0, 0, Header, 1, 17, 120
1, 0, Start_track
1, 0, Title_t, "DIE KUNST DER FUGE  durch Herrn Johann Sebastian BACH ehemaliger Kappellmeister und Musikdirektor zu Leipzig "
1, 0, Title_t, "BWV 1080"
1, 0, Copyright_t, "Copyright © 2000 by MATJAZ KOZELJ "
1, 0, Text_t, "JOHANN SEBASTIAN B A C H"
1, 0, Time_signature, 8, 2, 24, 8
1, 0, Key_signature, -1, "major"
1, 0, Tempo, 521739
1, 0, Marker_t, "CONTRAPUNCTUS 1"
1, 3840, Tempo, 521739
1, 36000, Tempo, 521739
1, 36035, Tempo, 526316
1, 36065, Tempo, 530973
1, 36095, Tempo, 535714
1, 36130, Tempo, 540541
1, 36160, Tempo, 545455
1, 36190, Tempo, 550459
1, 36220, Tempo, 555556
1, 36255, Tempo, 560748
1, 36285, Tempo, 566038
1, 36315, Tempo, 571429
1, 36345, Tempo, 576923
1, 36380, Tempo, 582524
1, 36410, Tempo, 588235
1, 36440, Tempo, 594059
1, 36470, Tempo, 600000
1, 36505, Tempo, 606061
1, 36535, Tempo, 612245
1, 36565, Tempo, 618557
1, 36595, Tempo, 625000
1, 36630, Tempo, 631579
1, 36660, Tempo, 638298
1, 36690, Tempo, 645161
1, 36720, Tempo, 652174
1, 36755, Tempo, 659341
1, 36785, Tempo, 666667
1, 36815, Tempo, 674157
1, 36850, Tempo, 681818
1, 36880, Tempo, 689655
1, 36910, Tempo, 697674
1, 36940, Tempo, 705882
1, 36975, Tempo, 714286
1, 37005, Tempo, 722892
1, 37035, Tempo, 731707
1, 37065, Tempo, 740741
1, 37100, Tempo, 750000
1, 37130, Tempo, 759494
1, 37160, Tempo, 769231
1, 37200, Tempo, 1578947
1, 37920, Tempo, 600000
1, 37920, Marker_t, "CONTRAPUNCTUS 2"
1, 41760, Tempo, 600000
1, 77280, Tempo, 600000
1, 77290, Tempo, 603015
1, 77297, Tempo, 606061
1, 77305, Tempo, 609137
1, 77312, Tempo, 612245
1, 77320, Tempo, 615385
1, 77330, Tempo, 618557
1, 77337, Tempo, 621762
1, 77345, Tempo, 625000
1, 77352, Tempo, 628272
1, 77360, Tempo, 631579
1, 77370, Tempo, 634921
1, 77377, Tempo, 638298
1, 77385, Tempo, 641711
1, 77392, Tempo, 645161
1, 77400, Tempo, 648649
1, 77410, Tempo, 652174
1, 77417, Tempo, 655738
1, 77425, Tempo, 659341
1, 77432, Tempo, 662983
1, 77440, Tempo, 666667
1, 77450, Tempo, 670391
1, 77457, Tempo, 674157
1, 77465, Tempo, 677966
1, 77472, Tempo, 681818
1, 77480, Tempo, 685714
1, 77490, Tempo, 689655
1, 77497, Tempo, 693642
1, 77505, Tempo, 697674
1, 77512, Tempo, 701754
1, 77520, Tempo, 705882
1, 77530, Tempo, 710059
1, 77537, Tempo, 714286
1, 77545, Tempo, 718563
1, 77552, Tempo, 722892
1, 77560, Tempo, 727273
1, 77570, Tempo, 731707
1, 77577, Tempo, 736196
1, 77585, Tempo, 740741
1, 77592, Tempo, 745342
1, 77600, Tempo, 750000
1, 77610, Tempo, 754717
1, 77617, Tempo, 759494
1, 77625, Tempo, 764331
1, 77632, Tempo, 769231
1, 77640, Tempo, 774194
1, 77650, Tempo, 779221
1, 77657, Tempo, 784314
1, 77665, Tempo, 789474
1, 77672, Tempo, 794702
1, 77680, Tempo, 800000
1, 77690, Tempo, 805369
1, 77697, Tempo, 810811
1, 77705, Tempo, 816327
1, 77712, Tempo, 821918
1, 77720, Tempo, 827586
1, 77730, Tempo, 833333
1, 77737, Tempo, 839161
1, 77745, Tempo, 845070
1, 77752, Tempo, 851064
1, 77760, Tempo, 857143
1, 77765, Tempo, 863309
1, 77770, Tempo, 869565
1, 77772, Tempo, 875912
1, 77777, Tempo, 882353
1, 77780, Tempo, 888889
1, 77785, Tempo, 895522
1, 77790, Tempo, 902256
1, 77792, Tempo, 909091
1, 77797, Tempo, 916031
1, 77800, Tempo, 923077
1, 77805, Tempo, 930233
1, 77810, Tempo, 937500
1, 77812, Tempo, 944882
1, 77817, Tempo, 952381
1, 77820, Tempo, 960000
1, 77825, Tempo, 967742
1, 77830, Tempo, 975610
1, 77832, Tempo, 983607
1, 77837, Tempo, 991736
1, 77840, Tempo, 1000000
1, 77845, Tempo, 1008403
1, 77850, Tempo, 1016949
1, 77852, Tempo, 1025641
1, 77857, Tempo, 1034483
1, 77860, Tempo, 1043478
1, 77865, Tempo, 1052632
1, 77870, Tempo, 1061947
1, 77872, Tempo, 1071429
1, 77877, Tempo, 1081081
1, 77880, Tempo, 1090909
1, 77885, Tempo, 1100917
1, 77890, Tempo, 1111111
1, 77892, Tempo, 1121495
1, 77897, Tempo, 1132075
1, 77900, Tempo, 1142857
1, 77905, Tempo, 1153846
1, 77910, Tempo, 1165049
1, 77912, Tempo, 1176471
1, 77917, Tempo, 1188119
1, 77920, Tempo, 1200000
1, 77925, Tempo, 1212121
1, 77930, Tempo, 1224490
1, 77932, Tempo, 1237113
1, 77937, Tempo, 1250000
1, 77940, Tempo, 1263158
1, 77945, Tempo, 1276596
1, 77950, Tempo, 1290323
1, 77952, Tempo, 1304348
1, 77957, Tempo, 1318681
1, 77960, Tempo, 1333333
1, 77965, Tempo, 1348315
1, 77970, Tempo, 1363636
1, 77972, Tempo, 1379310
1, 77977, Tempo, 1395349
1, 77980, Tempo, 1411765
1, 77985, Tempo, 1428571
1, 77990, Tempo, 1445783
1, 77992, Tempo, 1463415
1, 78720, Marker_t, "CONTRAPUNCTUS 3"
1, 78724, Tempo, 612245
1, 78729, Tempo, 606061
1, 114720, Marker_t, "CONTRAPUNCTUS 4"
1, 181440, Time_signature, 4, 2, 24, 8
1, 181920, Marker_t, "CONTRAPUNCTUS 5"
1, 181922, Tempo, 504202
1, 181953, Tempo, 500000
1, 225120, Marker_t, "CONTRAPUNCTUS 6 a 4 per Dimintionem in Stylo Francese"
1, 225122, Tempo, 759494
1, 225139, Tempo, 750000
1, 263520, Tempo, 833333
1, 263520, Marker_t, "CONTRAPUNCTUS 7 a 4 per Augmentationem et Diminutionem"
1, 263524, Tempo, 895522
1, 263572, Tempo, 909091
1, 263812, Tempo, 882353
1, 263841, Tempo, 895522
1, 263870, Tempo, 909091
1, 293280, Marker_t, "CONTRAPUNCTUS 8 a 3"
1, 293375, Tempo, 521739
1, 307155, Tempo, 521739
1, 311517, Tempo, 555556
1, 311520, Tempo, 697674
1, 311522, Tempo, 714286
1, 311524, Tempo, 895522
1, 311536, Tempo, 909091
1, 311582, Tempo, 869565
1, 311750, Tempo, 882353
1, 311760, Marker_t, "Erste Ausfuehrung"
1, 311762, Tempo, 535714
1, 311764, Tempo, 555556
1, 337440, Tempo, 545455
1, 382567, Tempo, 555556
1, 382600, Tempo, 560748
1, 382612, Tempo, 576923
1, 382629, Tempo, 582524
1, 382644, Tempo, 588235
1, 382658, Tempo, 594059
1, 382675, Tempo, 600000
1, 382689, Tempo, 606061
1, 382704, Tempo, 612245
1, 382718, Tempo, 618557
1, 382735, Tempo, 625000
1, 382749, Tempo, 631579
1, 382764, Tempo, 638298
1, 382778, Tempo, 645161
1, 382795, Tempo, 652174
1, 382809, Tempo, 659341
1, 382824, Tempo, 666667
1, 382838, Tempo, 674157
1, 382855, Tempo, 681818
1, 382869, Tempo, 689655
1, 382884, Tempo, 697674
1, 382900, Tempo, 705882
1, 382915, Tempo, 714286
1, 382929, Tempo, 722892
1, 382944, Tempo, 731707
1, 382960, Tempo, 740741
1, 382975, Tempo, 750000
1, 382989, Tempo, 759494
1, 383004, Tempo, 769231
1, 383020, Tempo, 779221
1, 383035, Tempo, 789474
1, 383049, Tempo, 800000
1, 383064, Tempo, 810811
1, 383066, Tempo, 759494
1, 383068, Tempo, 769231
1, 383071, Tempo, 779221
1, 383073, Tempo, 789474
1, 383076, Tempo, 800000
1, 383078, Tempo, 810811
1, 383080, Tempo, 833333
1, 383083, Tempo, 845070
1, 383085, Tempo, 857143
1, 383088, Tempo, 869565
1, 383090, Tempo, 882353
1, 383092, Tempo, 895522
1, 383095, Tempo, 909091
1, 383097, Tempo, 937500
1, 383100, Tempo, 937500
1, 383114, Tempo, 952381
1, 383128, Tempo, 967742
1, 383131, Tempo, 1250000
1, 383133, Tempo, 967742
1, 383148, Tempo, 1500000
1, 383150, Tempo, 1538462
1, 383152, Tempo, 1578947
1, 383155, Tempo, 1621622
1, 383157, Tempo, 1714286
1, 383160, Tempo, 1764706
1, 383162, Tempo, 1818182
1, 383164, Tempo, 1875000
1, 383167, Tempo, 1935484
1, 383169, Tempo, 2000000
1, 383172, Tempo, 2142857
1, 383200, Tempo, 1935484
1, 383203, Tempo, 1875000
1, 383205, Tempo, 1764706
1, 383208, Tempo, 1714286
1, 383210, Tempo, 1621622
1, 383212, Tempo, 1578947
1, 383215, Tempo, 1500000
1, 383217, Tempo, 1428571
1, 383220, Tempo, 1621622
1, 383224, Tempo, 1578947
1, 383227, Tempo, 1538462
1, 383232, Tempo, 1500000
1, 383234, Tempo, 1463415
1, 383239, Tempo, 1428571
1, 383241, Tempo, 1395349
1, 383246, Tempo, 1363636
1, 383248, Tempo, 1333333
1, 383253, Tempo, 1304348
1, 383256, Tempo, 1276596
1, 383260, Tempo, 1250000
1, 383263, Tempo, 1224490
1, 383265, Tempo, 1200000
1, 383270, Tempo, 1176471
1, 383272, Tempo, 1153846
1, 383277, Tempo, 1132075
1, 383280, Tempo, 1111111
1, 383284, Tempo, 1090909
1, 383287, Tempo, 1071429
1, 383292, Tempo, 1052632
1, 383294, Tempo, 1034483
1, 383299, Tempo, 1016949
1, 383301, Tempo, 1000000
1, 383306, Tempo, 983607
1, 383308, Tempo, 967742
1, 383313, Tempo, 952381
1, 383316, Tempo, 937500
1, 383318, Tempo, 923077
1, 383323, Tempo, 909091
1, 383325, Tempo, 895522
1, 383330, Tempo, 882353
1, 383332, Tempo, 869565
1, 383337, Tempo, 857143
1, 383340, Tempo, 845070
1, 383344, Tempo, 833333
1, 383347, Tempo, 821918
1, 383352, Tempo, 810811
1, 383354, Tempo, 800000
1, 383359, Tempo, 789474
1, 383361, Tempo, 779221
1, 383366, Tempo, 769231
1, 383368, Tempo, 759494
1, 383371, Tempo, 750000
1, 383402, Tempo, 722892
1, 383409, Tempo, 521739
1, 383520, Marker_t, "CONTRAPUNCTUS 9 a 4 alla Duodecima"
1, 444960, Tempo, 530973
1, 444962, Tempo, 535714
1, 444974, Tempo, 540541
1, 444986, Tempo, 545455
1, 444998, Tempo, 550459
1, 445010, Tempo, 555556
1, 445022, Tempo, 560748
1, 445034, Tempo, 566038
1, 445046, Tempo, 571429
1, 445058, Tempo, 576923
1, 445070, Tempo, 582524
1, 445082, Tempo, 588235
1, 445094, Tempo, 594059
1, 445106, Tempo, 600000
1, 445118, Tempo, 606061
1, 445130, Tempo, 612245
1, 445142, Tempo, 618557
1, 445154, Tempo, 625000
1, 445166, Tempo, 631579
1, 445176, Tempo, 705882
1, 445180, Tempo, 631579
1, 445190, Tempo, 638298
1, 445200, Tempo, 645161
1, 445209, Tempo, 652174
1, 445219, Tempo, 659341
1, 445226, Tempo, 666667
1, 445236, Tempo, 674157
1, 445245, Tempo, 681818
1, 445255, Tempo, 689655
1, 445264, Tempo, 697674
1, 445272, Tempo, 705882
1, 445281, Tempo, 714286
1, 445291, Tempo, 722892
1, 445300, Tempo, 731707
1, 445310, Tempo, 740741
1, 445317, Tempo, 750000
1, 445332, Tempo, 769231
1, 445353, Tempo, 779221
1, 445375, Tempo, 789474
1, 445396, Tempo, 800000
1, 445418, Tempo, 810811
1, 445440, Tempo, 821918
1, 445464, Tempo, 833333
1, 445485, Tempo, 845070
1, 445507, Tempo, 857143
1, 445528, Tempo, 869565
1, 445550, Tempo, 882353
1, 445572, Tempo, 895522
1, 445596, Tempo, 909091
1, 445617, Tempo, 923077
1, 445639, Tempo, 937500
1, 445660, Tempo, 952381
1, 445682, Tempo, 967742
1, 445704, Tempo, 983607
1, 445728, Tempo, 1000000
1, 445749, Tempo, 1016949
1, 445771, Tempo, 1034483
1, 445792, Tempo, 1052632
1, 445814, Tempo, 1071429
1, 445836, Tempo, 1090909
1, 445924, Tempo, 500000
1, 445925, Marker_t, "CONTRAPUNCTUS 10 a 4 alla Decima"
1, 502572, Tempo, 517241
1, 502586, Tempo, 521739
1, 502598, Tempo, 526316
1, 502610, Tempo, 530973
1, 502622, Tempo, 535714
1, 502636, Tempo, 540541
1, 502648, Tempo, 545455
1, 502660, Tempo, 550459
1, 502672, Tempo, 555556
1, 502684, Tempo, 560748
1, 502699, Tempo, 566038
1, 502711, Tempo, 571429
1, 502723, Tempo, 576923
1, 502735, Tempo, 582524
1, 502749, Tempo, 588235
1, 502761, Tempo, 594059
1, 502773, Tempo, 600000
1, 502785, Tempo, 606061
1, 502797, Tempo, 612245
1, 502812, Tempo, 618557
1, 502824, Tempo, 625000
1, 502836, Tempo, 631579
1, 502848, Tempo, 638298
1, 502860, Tempo, 645161
1, 502874, Tempo, 652174
1, 502886, Tempo, 659341
1, 502898, Tempo, 666667
1, 502910, Tempo, 674157
1, 502924, Tempo, 681818
1, 502936, Tempo, 689655
1, 502948, Tempo, 697674
1, 502960, Tempo, 705882
1, 502972, Tempo, 714286
1, 502987, Tempo, 722892
1, 502999, Tempo, 731707
1, 503011, Tempo, 740741
1, 503023, Tempo, 750000
1, 503035, Tempo, 759494
1, 503052, Tempo, 895522
1, 503061, Tempo, 909091
1, 503068, Tempo, 923077
1, 503078, Tempo, 937500
1, 503085, Tempo, 952381
1, 503095, Tempo, 967742
1, 503102, Tempo, 983607
1, 503112, Tempo, 1000000
1, 503119, Tempo, 1016949
1, 503128, Tempo, 1034483
1, 503136, Tempo, 1052632
1, 503143, Tempo, 1071429
1, 503152, Tempo, 1090909
1, 503160, Tempo, 1111111
1, 503169, Tempo, 1132075
1, 503176, Tempo, 1153846
1, 503186, Tempo, 1176471
1, 503193, Tempo, 1200000
1, 503203, Tempo, 1224490
1, 503210, Tempo, 1250000
1, 503217, Tempo, 1276596
1, 503227, Tempo, 1304348
1, 503234, Tempo, 1333333
1, 503244, Tempo, 1363636
1, 503251, Tempo, 1395349
1, 503260, Tempo, 1428571
1, 503268, Tempo, 1463415
1, 503277, Tempo, 1500000
1, 503284, Tempo, 1538462
1, 503292, Tempo, 1578947
1, 503299, Tempo, 833333
1, 503304, Tempo, 566038
1, 503316, Tempo, 512821
1, 503335, Tempo, 508475
1, 503352, Tempo, 504202
1, 503520, Marker_t, "CONTRAPUNCTUS 11 a 4 "
1, 503522, Tempo, 540541
1, 533580, Tempo, 545455
1, 590877, Tempo, 560748
1, 590884, Tempo, 566038
1, 590889, Tempo, 571429
1, 590894, Tempo, 576923
1, 590899, Tempo, 582524
1, 590904, Tempo, 588235
1, 590908, Tempo, 594059
1, 590913, Tempo, 600000
1, 590918, Tempo, 606061
1, 590923, Tempo, 612245
1, 590928, Tempo, 618557
1, 590932, Tempo, 625000
1, 590937, Tempo, 631579
1, 590942, Tempo, 638298
1, 590947, Tempo, 645161
1, 590952, Tempo, 652174
1, 590956, Tempo, 659341
1, 590961, Tempo, 666667
1, 590966, Tempo, 674157
1, 590971, Tempo, 681818
1, 590978, Tempo, 689655
1, 590983, Tempo, 697674
1, 590988, Tempo, 705882
1, 590992, Tempo, 714286
1, 590997, Tempo, 722892
1, 591002, Tempo, 731707
1, 591007, Tempo, 740741
1, 591012, Tempo, 750000
1, 591016, Tempo, 759494
1, 591021, Tempo, 769231
1, 591026, Tempo, 779221
1, 591031, Tempo, 789474
1, 591036, Tempo, 800000
1, 591040, Tempo, 810811
1, 591045, Tempo, 821918
1, 591050, Tempo, 833333
1, 591055, Tempo, 845070
1, 591060, Tempo, 857143
1, 591064, Tempo, 869565
1, 591069, Tempo, 882353
1, 591076, Tempo, 895522
1, 591081, Tempo, 909091
1, 591086, Tempo, 923077
1, 591091, Tempo, 937500
1, 591096, Tempo, 952381
1, 591100, Tempo, 967742
1, 591105, Tempo, 983607
1, 591110, Tempo, 1000000
1, 591115, Tempo, 1016949
1, 591120, Tempo, 1034483
1, 591124, Tempo, 1052632
1, 591129, Tempo, 1071429
1, 591134, Tempo, 1090909
1, 591139, Tempo, 1111111
1, 591144, Tempo, 1132075
1, 591148, Tempo, 1153846
1, 591153, Tempo, 1176471
1, 591158, Tempo, 1200000
1, 591163, Tempo, 1224490
1, 591168, Tempo, 1250000
1, 591352, Tempo, 1153846
1, 591588, Tempo, 1176471
1, 591820, Tempo, 1200000
1, 591837, Tempo, 550459
1, 592320, Time_signature, 3, 1, 48, 8
1, 592320, Marker_t, "CONTRAPUNCUS 12  a 4 Rectus"
1, 631922, Tempo, 550459
1, 631929, Tempo, 555556
1, 631936, Tempo, 560748
1, 631941, Tempo, 566038
1, 631948, Tempo, 571429
1, 631953, Tempo, 576923
1, 631960, Tempo, 582524
1, 631968, Tempo, 588235
1, 631972, Tempo, 594059
1, 631980, Tempo, 600000
1, 631984, Tempo, 606061
1, 631992, Tempo, 612245
1, 631999, Tempo, 618557
1, 632004, Tempo, 625000
1, 632011, Tempo, 631579
1, 632016, Tempo, 638298
1, 632023, Tempo, 645161
1, 632030, Tempo, 652174
1, 632035, Tempo, 659341
1, 632042, Tempo, 666667
1, 632047, Tempo, 674157
1, 632054, Tempo, 681818
1, 632061, Tempo, 689655
1, 632066, Tempo, 697674
1, 632073, Tempo, 705882
1, 632078, Tempo, 714286
1, 632085, Tempo, 722892
1, 632092, Tempo, 731707
1, 632097, Tempo, 740741
1, 632104, Tempo, 750000
1, 632109, Tempo, 759494
1, 632116, Tempo, 769231
1, 632124, Tempo, 779221
1, 632128, Tempo, 789474
1, 632136, Tempo, 800000
1, 632140, Tempo, 810811
1, 632148, Tempo, 821918
1, 632155, Tempo, 833333
1, 632160, Tempo, 845070
1, 632167, Tempo, 857143
1, 632172, Tempo, 869565
1, 632179, Tempo, 882353
1, 632186, Tempo, 895522
1, 632191, Tempo, 909091
1, 632198, Tempo, 923077
1, 632203, Tempo, 937500
1, 632210, Tempo, 952381
1, 632217, Tempo, 967742
1, 632222, Tempo, 983607
1, 632229, Tempo, 1000000
1, 632234, Tempo, 1016949
1, 632241, Tempo, 1034483
1, 632248, Tempo, 1052632
1, 632253, Tempo, 1071429
1, 632260, Tempo, 1090909
1, 632265, Tempo, 1111111
1, 632272, Tempo, 1132075
1, 632277, Tempo, 1153846
1, 632625, Tempo, 530973
1, 632628, Tempo, 535714
1, 632640, Marker_t, "CONTRAPUNCTUS 12  a 4 Inversus"
1, 672235, Tempo, 535714
1, 672244, Tempo, 540541
1, 672254, Tempo, 545455
1, 672261, Tempo, 550459
1, 672271, Tempo, 555556
1, 672278, Tempo, 560748
1, 672288, Tempo, 566038
1, 672297, Tempo, 571429
1, 672304, Tempo, 576923
1, 672314, Tempo, 582524
1, 672321, Tempo, 588235
1, 672331, Tempo, 594059
1, 672340, Tempo, 600000
1, 672348, Tempo, 606061
1, 672357, Tempo, 612245
1, 672364, Tempo, 618557
1, 672374, Tempo, 625000
1, 672384, Tempo, 631579
1, 672391, Tempo, 638298
1, 672400, Tempo, 645161
1, 672408, Tempo, 652174
1, 672417, Tempo, 659341
1, 672427, Tempo, 666667
1, 672434, Tempo, 674157
1, 672444, Tempo, 681818
1, 672451, Tempo, 689655
1, 672460, Tempo, 697674
1, 672470, Tempo, 705882
1, 672477, Tempo, 714286
1, 672487, Tempo, 722892
1, 672494, Tempo, 731707
1, 672504, Tempo, 740741
1, 672513, Tempo, 750000
1, 672520, Tempo, 759494
1, 672530, Tempo, 769231
1, 672537, Tempo, 779221
1, 672547, Tempo, 789474
1, 672556, Tempo, 800000
1, 672564, Tempo, 810811
1, 672573, Tempo, 821918
1, 672580, Tempo, 833333
1, 672607, Tempo, 1052632
1, 672952, Tempo, 550459
1, 675117, Tempo, 555556
1, 675120, Time_signature, 12, 4, 6, 8
1, 675120, Tempo, 714286
1, 675120, Marker_t, "CONTRAPUNCTUS 13 a 3 Rectus"
1, 699957, Tempo, 731707
1, 699969, Tempo, 740741
1, 699981, Tempo, 750000
1, 699993, Tempo, 759494
1, 700003, Tempo, 769231
1, 700015, Tempo, 779221
1, 700027, Tempo, 789474
1, 700036, Tempo, 800000
1, 700048, Tempo, 810811
1, 700060, Tempo, 821918
1, 700070, Tempo, 833333
1, 700082, Tempo, 845070
1, 700094, Tempo, 857143
1, 700104, Tempo, 869565
1, 700116, Tempo, 882353
1, 700128, Tempo, 895522
1, 700137, Tempo, 909091
1, 700149, Tempo, 923077
1, 700161, Tempo, 937500
1, 700171, Tempo, 952381
1, 700183, Tempo, 967742
1, 700195, Tempo, 983607
1, 700204, Tempo, 1000000
1, 700216, Tempo, 1016949
1, 700228, Tempo, 1034483
1, 700238, Tempo, 1052632
1, 700250, Tempo, 1071429
1, 700262, Tempo, 1090909
1, 700272, Tempo, 1111111
1, 700284, Tempo, 1132075
1, 700296, Tempo, 1153846
1, 700305, Tempo, 1176471
1, 700317, Tempo, 740741
1, 700680, Marker_t, "CONTRAPUNCTUS 13 a 4 Inversus"
1, 725882, Tempo, 740741
1, 725887, Tempo, 750000
1, 725889, Tempo, 759494
1, 725894, Tempo, 769231
1, 725896, Tempo, 779221
1, 725899, Tempo, 789474
1, 725904, Tempo, 800000
1, 725906, Tempo, 759494
1, 725918, Tempo, 769231
1, 725930, Tempo, 779221
1, 725940, Tempo, 789474
1, 725952, Tempo, 800000
1, 725961, Tempo, 810811
1, 725973, Tempo, 821918
1, 725983, Tempo, 833333
1, 725995, Tempo, 845070
1, 726004, Tempo, 857143
1, 726016, Tempo, 869565
1, 726028, Tempo, 882353
1, 726038, Tempo, 895522
1, 726050, Tempo, 909091
1, 726060, Tempo, 923077
1, 726072, Tempo, 937500
1, 726081, Tempo, 952381
1, 726093, Tempo, 967742
1, 726103, Tempo, 983607
1, 726115, Tempo, 1000000
1, 726127, Tempo, 1016949
1, 726136, Tempo, 1034483
1, 726148, Tempo, 1052632
1, 726158, Tempo, 1071429
1, 726170, Tempo, 1090909
1, 726180, Tempo, 1111111
1, 726192, Tempo, 1132075
1, 726201, Tempo, 1153846
1, 726870, Marker_t, "CONTRAPUNCTUS 14 Unvollendete Fuge a 3 Soggetti"
1, 726960, Time_signature, 4, 2, 24, 8
1, 727322, Tempo, 461538
1, 727440, Marker_t, "Soggetto 1"
1, 730984, Tempo, 461538
1, 781800, Marker_t, "Soggetto 2"
1, 819720, Marker_t, "Soggetto 3"
1, 842640, Time_signature, 12, 4, 6, 8
1, 843360, Time_signature, 9, 4, 6, 8
1, 843360, Tempo, 705882
1, 843360, Marker_t, "CANON in Hypodiapason alla Ottava"
1, 891163, Tempo, 722892
1, 891175, Tempo, 731707
1, 891187, Tempo, 740741
1, 891199, Tempo, 750000
1, 891211, Tempo, 759494
1, 891223, Tempo, 769231
1, 891235, Tempo, 779221
1, 891247, Tempo, 789474
1, 891259, Tempo, 800000
1, 891271, Tempo, 810811
1, 891283, Tempo, 821918
1, 891295, Tempo, 833333
1, 891307, Tempo, 845070
1, 891319, Tempo, 857143
1, 891321, Tempo, 833333
1, 891338, Tempo, 983607
1, 891348, Tempo, 1111111
1, 891369, Tempo, 923077
1, 891376, Tempo, 1176471
1, 891400, Tempo, 952381
1, 891405, Tempo, 833333
1, 891690, Time_signature, 12, 3, 12, 8
1, 891690, Tempo, 500000
1, 891690, Marker_t, "CANON alla Decima in Contraponto alla Terza"
1, 891691, Tempo, 555556
1, 894370, Tempo, 500000
1, 947735, Tempo, 504202
1, 947740, Tempo, 508475
1, 947742, Tempo, 512821
1, 947744, Tempo, 517241
1, 947749, Tempo, 521739
1, 947752, Tempo, 526316
1, 947754, Tempo, 530973
1, 947756, Tempo, 535714
1, 947761, Tempo, 540541
1, 947764, Tempo, 545455
1, 947766, Tempo, 550459
1, 947768, Tempo, 555556
1, 947773, Tempo, 560748
1, 947776, Tempo, 566038
1, 947778, Tempo, 571429
1, 947783, Tempo, 576923
1, 947785, Tempo, 582524
1, 947788, Tempo, 588235
1, 947790, Tempo, 594059
1, 947795, Tempo, 600000
1, 947797, Tempo, 606061
1, 947800, Tempo, 612245
1, 947802, Tempo, 618557
1, 947807, Tempo, 625000
1, 947809, Tempo, 631579
1, 947812, Tempo, 638298
1, 947816, Tempo, 645161
1, 947819, Tempo, 652174
1, 947821, Tempo, 659341
1, 947824, Tempo, 666667
1, 947828, Tempo, 674157
1, 947831, Tempo, 681818
1, 947833, Tempo, 689655
1, 947836, Tempo, 697674
1, 947848, Tempo, 731707
1, 948811, Tempo, 714286
1, 948818, Tempo, 705882
1, 948825, Tempo, 697674
1, 948830, Tempo, 689655
1, 948837, Tempo, 681818
1, 948842, Tempo, 674157
1, 948849, Tempo, 666667
1, 948856, Tempo, 659341
1, 948861, Tempo, 652174
1, 948868, Tempo, 645161
1, 948873, Tempo, 638298
1, 948880, Tempo, 631579
1, 948888, Tempo, 625000
1, 948892, Tempo, 618557
1, 948900, Tempo, 612245
1, 948904, Tempo, 606061
1, 948912, Tempo, 600000
1, 948916, Tempo, 594059
1, 953610, Time_signature, 4, 2, 24, 8
1, 953610, Marker_t, "CANON alla Duodecima in Contrapunto alla Quinta"
1, 953613, Tempo, 606061
1, 953616, Tempo, 550459
1, 953654, Tempo, 560748
1, 1022805, Tempo, 800000
1, 1022808, Tempo, 810811
1, 1022810, Tempo, 821918
1, 1022812, Tempo, 833333
1, 1022815, Tempo, 845070
1, 1022817, Tempo, 857143
1, 1022820, Tempo, 869565
1, 1022822, Tempo, 882353
1, 1022824, Tempo, 895522
1, 1022827, Tempo, 909091
1, 1022829, Tempo, 923077
1, 1022832, Tempo, 937500
1, 1022834, Tempo, 952381
1, 1022836, Tempo, 967742
1, 1022839, Tempo, 983607
1, 1022841, Tempo, 1000000
1, 1022844, Tempo, 1016949
1, 1022846, Tempo, 1034483
1, 1022848, Tempo, 1052632
1, 1022851, Tempo, 1071429
1, 1022853, Tempo, 1090909
1, 1022856, Tempo, 1111111
1, 1022858, Tempo, 1132075
1, 1022860, Tempo, 1176471
1, 1022863, Tempo, 1200000
1, 1022865, Tempo, 1224490
1, 1022868, Tempo, 1250000
1, 1022870, Tempo, 1276596
1, 1022872, Tempo, 1304348
1, 1022875, Tempo, 1333333
1, 1022877, Tempo, 1363636
1, 1022880, Tempo, 1395349
1, 1022882, Tempo, 1428571
1, 1022884, Tempo, 1463415
1, 1022887, Tempo, 1500000
1, 1022889, Tempo, 1538462
1, 1022892, Tempo, 1578947
1, 1022894, Tempo, 1621622
1, 1022896, Tempo, 1666667
1, 1022899, Tempo, 1714286
1, 1022901, Tempo, 1764706
1, 1022904, Tempo, 1818182
1, 1022906, Tempo, 1875000
1, 1022908, Tempo, 1935484
1, 1022911, Tempo, 2000000
1, 1022913, Tempo, 2068966
1, 1022916, Tempo, 2222222
1, 1023177, Tempo, 1363636
1, 1023184, Tempo, 1052632
1, 1023201, Tempo, 983607
1, 1023210, Marker_t, "CANON in Hypodiatessaron per Augmentationem in Contrario Motu, Continuus "
1, 1023216, Tempo, 588235
1, 1076490, Marker_t, "ANHANG: CONTRAPUNCTUS 13 Rectus = Alio modo Fuga a 2 Clav."
1, 1084170, Time_signature, 12, 4, 6, 8
1, 1084170, End_track
2, 0, Start_track
2, 0, MIDI_port, 0
2, 0, Title_t, "Johann Sebastian Bach  (1685-1750)"
2, 0, Program_c, 0, 6
2, 0, Note_on_c, 0, 62, 100
2, 240, Note_on_c, 0, 62, 0
2, 240, Note_on_c, 0, 69, 100
2, 480, Note_on_c, 0, 69, 0
2, 480, Note_on_c, 0, 65, 100
2, 720, Note_on_c, 0, 65, 0
2, 720, Note_on_c, 0, 62, 100
2, 960, Note_on_c, 0, 62, 0
2, 960, Note_on_c, 0, 61, 100
2, 1200, Note_on_c, 0, 61, 0
2, 1200, Note_on_c, 0, 62, 100
2, 1320, Note_on_c, 0, 62, 0
2, 1320, Note_on_c, 0, 64, 100
2, 1440, Note_on_c, 0, 64, 0
2, 1440, Note_on_c, 0, 65, 100
2, 1740, Note_on_c, 0, 65, 0
2, 1740, Note_on_c, 0, 67, 100
2, 1800, Note_on_c, 0, 67, 0
2, 1800, Note_on_c, 0, 65, 100
2, 1860, Note_on_c, 0, 65, 0
2, 1860, Note_on_c, 0, 64, 100
2, 1920, Note_on_c, 0, 64, 0
2, 1920, Note_on_c, 0, 69, 100
2, 1920, Note_on_c, 0, 62, 100
2, 2040, Note_on_c, 0, 62, 0
2, 2040, Note_on_c, 0, 64, 100
2, 2160, Note_on_c, 0, 64, 0
2, 2160, Note_on_c, 0, 69, 0
2, 2160, Note_on_c, 0, 74, 100
2, 2160, Note_on_c, 0, 65, 100
2, 2280, Note_on_c, 0, 65, 0
2, 2280, Note_on_c, 0, 67, 100
2, 2400, Note_on_c, 0, 67, 0
2, 2400, Note_on_c, 0, 74, 0
2, 2400, Note_on_c, 0, 72, 100
2, 2400, Note_on_c, 0, 69, 100
2, 2520, Note_on_c, 0, 69, 0
2, 2520, Note_on_c, 0, 57, 100
2, 2580, Note_on_c, 0, 57, 0
2, 2580, Note_on_c, 0, 59, 100
2, 2640, Note_on_c, 0, 59, 0
2, 2640, Note_on_c, 0, 72, 0
2, 2640, Note_on_c, 0, 69, 100
2, 2640, Note_on_c, 0, 60, 100
2, 2700, Note_on_c, 0, 60, 0
2, 2700, Note_on_c, 0, 57, 100
2, 2760, Note_on_c, 0, 57, 0
2, 2760, Note_on_c, 0, 65, 100
2, 2880, Note_on_c, 0, 69, 0
2, 2880, Note_on_c, 0, 68, 100
2, 2940, Note_on_c, 0, 65, 0
2, 2940, Note_on_c, 0, 59, 100
2, 3000, Note_on_c, 0, 59, 0
2, 3000, Note_on_c, 0, 64, 100
2, 3120, Note_on_c, 0, 68, 0
2, 3120, Note_on_c, 0, 69, 100
2, 3180, Note_on_c, 0, 64, 0
2, 3180, Note_on_c, 0, 65, 100
2, 3240, Note_on_c, 0, 65, 0
2, 3240, Note_on_c, 0, 69, 0
2, 3240, Note_on_c, 0, 71, 100
2, 3240, Note_on_c, 0, 64, 100
2, 3300, Note_on_c, 0, 64, 0
2, 3300, Note_on_c, 0, 62, 100
2, 3360, Note_on_c, 0, 62, 0
2, 3360, Note_on_c, 0, 71, 0
2, 3360, Note_on_c, 0, 72, 100
2, 3360, Note_on_c, 0, 64, 100
2, 3480, Note_on_c, 0, 64, 0
2, 3480, Note_on_c, 0, 66, 100
2, 3600, Note_on_c, 0, 66, 0
2, 3600, Note_on_c, 0, 67, 100
2, 3660, Note_on_c, 0, 72, 0
2, 3660, Note_on_c, 0, 74, 100
2, 3720, Note_on_c, 0, 74, 0
2, 3720, Note_on_c, 0, 72, 100
2, 3780, Note_on_c, 0, 72, 0
2, 3780, Note_on_c, 0, 70, 100
2, 3840, Note_on_c, 0, 70, 0
2, 3840, Note_on_c, 0, 69, 100
2, 3900, Note_on_c, 0, 69, 0
2, 3900, Note_on_c, 0, 62, 100
2, 3960, Note_on_c, 0, 62, 0
2, 3960, Note_on_c, 0, 67, 0
2, 3960, Note_on_c, 0, 74, 100
2, 3960, Note_on_c, 0, 65, 100
2, 4080, Note_on_c, 0, 65, 0
2, 4080, Note_on_c, 0, 64, 100
2, 4200, Note_on_c, 0, 74, 0
2, 4200, Note_on_c, 0, 73, 100
2, 4320, Note_on_c, 0, 73, 0
2, 4320, Note_on_c, 0, 64, 0
2, 4320, Note_on_c, 0, 74, 100
2, 4320, Note_on_c, 0, 62, 100
2, 4380, Note_on_c, 0, 74, 0
2, 4380, Note_on_c, 0, 69, 100
2, 4440, Note_on_c, 0, 69, 0
2, 4440, Note_on_c, 0, 72, 100
2, 4500, Note_on_c, 0, 62, 0
2, 4500, Note_on_c, 0, 64, 100
2, 4560, Note_on_c, 0, 64, 0
2, 4560, Note_on_c, 0, 65, 100
2, 4620, Note_on_c, 0, 72, 0
2, 4620, Note_on_c, 0, 69, 100
2, 4680, Note_on_c, 0, 69, 0
2, 4680, Note_on_c, 0, 70, 100
2, 4740, Note_on_c, 0, 65, 0
2, 4740, Note_on_c, 0, 62, 100
2, 4800, Note_on_c, 0, 62, 0
2, 4800, Note_on_c, 0, 67, 100
2, 4860, Note_on_c, 0, 70, 0
2, 4860, Note_on_c, 0, 64, 100
2, 4920, Note_on_c, 0, 64, 0
2, 4920, Note_on_c, 0, 69, 100
2, 4980, Note_on_c, 0, 67, 0
2, 4980, Note_on_c, 0, 67, 100
2, 5040, Note_on_c, 0, 67, 0
2, 5040, Note_on_c, 0, 65, 100
2, 5100, Note_on_c, 0, 65, 0
2, 5100, Note_on_c, 0, 64, 100
2, 5160, Note_on_c, 0, 64, 0
2, 5160, Note_on_c, 0, 62, 100
2, 5220, Note_on_c, 0, 62, 0
2, 5220, Note_on_c, 0, 61, 100
2, 5280, Note_on_c, 0, 61, 0
2, 5280, Note_on_c, 0, 69, 0
2, 5280, Note_on_c, 0, 69, 100
2, 5280, Note_on_c, 0, 62, 100
2, 5340, Note_on_c, 0, 69, 0
2, 5340, Note_on_c, 0, 72, 100
2, 5400, Note_on_c, 0, 62, 0
2, 5400, Note_on_c, 0, 67, 100
2, 5460, Note_on_c, 0, 72, 0
2, 5460, Note_on_c, 0, 71, 100
2, 5520, Note_on_c, 0, 71, 0
2, 5520, Note_on_c, 0, 72, 100
2, 5640, Note_on_c, 0, 67, 0
2, 5640, Note_on_c, 0, 60, 100
2, 5760, Note_on_c, 0, 60, 0
2, 5760, Note_on_c, 0, 65, 100
2, 5820, Note_on_c, 0, 72, 0
2, 5820, Note_on_c, 0, 62, 100
2, 5880, Note_on_c, 0, 62, 0
2, 5880, Note_on_c, 0, 72, 100
2, 5940, Note_on_c, 0, 65, 0
2, 5940, Note_on_c, 0, 64, 100
2, 6000, Note_on_c, 0, 64, 0
2, 6000, Note_on_c, 0, 65, 100
2, 6060, Note_on_c, 0, 72, 0
2, 6060, Note_on_c, 0, 69, 100
2, 6120, Note_on_c, 0, 69, 0
2, 6120, Note_on_c, 0, 71, 100
2, 6180, Note_on_c, 0, 65, 0
2, 6180, Note_on_c, 0, 56, 100
2, 6240, Note_on_c, 0, 56, 0
2, 6240, Note_on_c, 0, 64, 100
2, 6360, Note_on_c, 0, 71, 0
2, 6360, Note_on_c, 0, 69, 100
2, 6420, Note_on_c, 0, 69, 0
2, 6420, Note_on_c, 0, 68, 100
2, 6480, Note_on_c, 0, 68, 0
2, 6480, Note_on_c, 0, 69, 100
2, 6600, Note_on_c, 0, 64, 0
2, 6600, Note_on_c, 0, 62, 100
2, 6660, Note_on_c, 0, 62, 0
2, 6660, Note_on_c, 0, 60, 100
2, 6720, Note_on_c, 0, 60, 0
2, 6720, Note_on_c, 0, 69, 0
2, 6720, Note_on_c, 0, 71, 100
2, 6720, Note_on_c, 0, 62, 100
2, 6780, Note_on_c, 0, 62, 0
2, 6780, Note_on_c, 0, 65, 100
2, 6840, Note_on_c, 0, 65, 0
2, 6840, Note_on_c, 0, 64, 100
2, 6900, Note_on_c, 0, 64, 0
2, 6900, Note_on_c, 0, 62, 100
2, 6960, Note_on_c, 0, 62, 0
2, 6960, Note_on_c, 0, 71, 0
2, 6960, Note_on_c, 0, 72, 100
2, 6960, Note_on_c, 0, 60, 100
2, 7080, Note_on_c, 0, 60, 0
2, 7080, Note_on_c, 0, 72, 0
2, 7080, Note_on_c, 0, 74, 100
2, 7200, Note_on_c, 0, 74, 0
2, 7200, Note_on_c, 0, 67, 100
2, 7260, Note_on_c, 0, 67, 0
2, 7260, Note_on_c, 0, 70, 100
2, 7320, Note_on_c, 0, 70, 0
2, 7320, Note_on_c, 0, 69, 100
2, 7500, Note_on_c, 0, 69, 0
2, 7500, Note_on_c, 0, 70, 100
2, 7560, Note_on_c, 0, 70, 0
2, 7560, Note_on_c, 0, 69, 100
2, 7620, Note_on_c, 0, 69, 0
2, 7620, Note_on_c, 0, 67, 100
2, 7740, Note_on_c, 0, 67, 0
2, 7740, Note_on_c, 0, 64, 100
2, 7800, Note_on_c, 0, 64, 0
2, 7800, Note_on_c, 0, 65, 100
2, 7860, Note_on_c, 0, 65, 0
2, 7860, Note_on_c, 0, 62, 100
2, 7920, Note_on_c, 0, 62, 0
2, 7920, Note_on_c, 0, 70, 100
2, 8220, Note_on_c, 0, 70, 0
2, 8220, Note_on_c, 0, 67, 100
2, 8280, Note_on_c, 0, 67, 0
2, 8280, Note_on_c, 0, 69, 100
2, 8400, Note_on_c, 0, 69, 0
2, 8400, Note_on_c, 0, 74, 100
2, 8700, Note_on_c, 0, 74, 0
2, 8700, Note_on_c, 0, 71, 100
2, 8760, Note_on_c, 0, 71, 0
2, 8760, Note_on_c, 0, 72, 100
2, 8880, Note_on_c, 0, 72, 0
2, 8880, Note_on_c, 0, 77, 100
2, 9180, Note_on_c, 0, 77, 0
2, 9180, Note_on_c, 0, 74, 100
2, 9240, Note_on_c, 0, 74, 0
2, 9240, Note_on_c, 0, 76, 100
2, 9360, Note_on_c, 0, 76, 0
2, 9360, Note_on_c, 0, 69, 100
2, 9480, Note_on_c, 0, 69, 0
2, 9480, Note_on_c, 0, 74, 100
2, 9660, Note_on_c, 0, 74, 0
2, 9660, Note_on_c, 0, 71, 100
2, 9720, Note_on_c, 0, 71, 0
2, 9720, Note_on_c, 0, 72, 100
2, 9840, Note_on_c, 0, 72, 0
2, 9840, Note_on_c, 0, 65, 100
2, 9960, Note_on_c, 0, 65, 0
2, 9960, Note_on_c, 0, 70, 100
2, 10080, Note_on_c, 0, 70, 0
2, 10080, Note_on_c, 0, 69, 100
2, 10320, Note_on_c, 0, 69, 0
2, 10320, Note_on_c, 0, 62, 100
2, 10440, Note_on_c, 0, 62, 0
2, 10440, Note_on_c, 0, 67, 100
2, 10560, Note_on_c, 0, 62, 100
2, 10620, Note_on_c, 0, 67, 0
2, 10620, Note_on_c, 0, 64, 100
2, 10680, Note_on_c, 0, 64, 0
2, 10680, Note_on_c, 0, 65, 100
2, 10740, Note_on_c, 0, 65, 0
2, 10740, Note_on_c, 0, 74, 100
2, 10800, Note_on_c, 0, 74, 0
2, 10800, Note_on_c, 0, 62, 0
2, 10800, Note_on_c, 0, 64, 100
2, 10800, Note_on_c, 0, 69, 100
2, 11040, Note_on_c, 0, 69, 0
2, 11040, Note_on_c, 0, 65, 100
2, 11100, Note_on_c, 0, 64, 0
2, 11100, Note_on_c, 0, 62, 100
2, 11160, Note_on_c, 0, 62, 0
2, 11160, Note_on_c, 0, 69, 100
2, 11280, Note_on_c, 0, 65, 0
2, 11280, Note_on_c, 0, 62, 100
2, 11400, Note_on_c, 0, 69, 0
2, 11400, Note_on_c, 0, 67, 100
2, 11520, Note_on_c, 0, 67, 0
2, 11520, Note_on_c, 0, 62, 0
2, 11520, Note_on_c, 0, 69, 100
2, 11520, Note_on_c, 0, 61, 100
2, 11760, Note_on_c, 0, 61, 0
2, 11760, Note_on_c, 0, 69, 0
2, 11760, Note_on_c, 0, 62, 100
2, 11880, Note_on_c, 0, 62, 0
2, 11880, Note_on_c, 0, 64, 100
2, 12000, Note_on_c, 0, 64, 0
2, 12000, Note_on_c, 0, 65, 100
2, 12300, Note_on_c, 0, 65, 0
2, 12300, Note_on_c, 0, 67, 100
2, 12360, Note_on_c, 0, 67, 0
2, 12360, Note_on_c, 0, 65, 100
2, 12420, Note_on_c, 0, 65, 0
2, 12420, Note_on_c, 0, 64, 100
2, 12480, Note_on_c, 0, 64, 0
2, 12480, Note_on_c, 0, 62, 100
2, 12600, Note_on_c, 0, 62, 0
2, 12600, Note_on_c, 0, 67, 100
2, 12780, Note_on_c, 0, 67, 0
2, 12780, Note_on_c, 0, 64, 100
2, 12840, Note_on_c, 0, 64, 0
2, 12840, Note_on_c, 0, 65, 100
2, 12960, Note_on_c, 0, 65, 0
2, 12960, Note_on_c, 0, 64, 100
2, 13080, Note_on_c, 0, 64, 0
2, 13080, Note_on_c, 0, 69, 100
2, 13260, Note_on_c, 0, 69, 0
2, 13260, Note_on_c, 0, 66, 100
2, 13320, Note_on_c, 0, 66, 0
2, 13320, Note_on_c, 0, 67, 100
2, 13440, Note_on_c, 0, 67, 0
2, 13440, Note_on_c, 0, 69, 100
2, 13440, Note_on_c, 0, 66, 100
2, 13620, Note_on_c, 0, 66, 0
2, 13620, Note_on_c, 0, 74, 100
2, 13680, Note_on_c, 0, 74, 0
2, 13680, Note_on_c, 0, 69, 0
2, 13680, Note_on_c, 0, 76, 100
2, 13680, Note_on_c, 0, 68, 100
2, 13920, Note_on_c, 0, 68, 0
2, 13920, Note_on_c, 0, 76, 0
2, 13920, Note_on_c, 0, 72, 100
2, 13920, Note_on_c, 0, 69, 100
2, 14040, Note_on_c, 0, 69, 0
2, 14100, Note_on_c, 0, 57, 100
2, 14160, Note_on_c, 0, 57, 0
2, 14160, Note_on_c, 0, 72, 0
2, 14160, Note_on_c, 0, 69, 100
2, 14160, Note_on_c, 0, 60, 100
2, 14280, Note_on_c, 0, 60, 0
2, 14280, Note_on_c, 0, 57, 100
2, 14400, Note_on_c, 0, 57, 0
2, 14400, Note_on_c, 0, 69, 0
2, 14400, Note_on_c, 0, 68, 100
2, 14400, Note_on_c, 0, 62, 100
2, 14520, Note_on_c, 0, 62, 0
2, 14520, Note_on_c, 0, 65, 100
2, 14640, Note_on_c, 0, 65, 0
2, 14640, Note_on_c, 0, 68, 0
2, 14640, Note_on_c, 0, 69, 100
2, 14640, Note_on_c, 0, 64, 100
2, 14760, Note_on_c, 0, 64, 0
2, 14760, Note_on_c, 0, 69, 0
2, 14760, Note_on_c, 0, 71, 100
2, 14760, Note_on_c, 0, 62, 100
2, 14880, Note_on_c, 0, 62, 0
2, 14880, Note_on_c, 0, 71, 0
2, 14880, Note_on_c, 0, 72, 100
2, 14880, Note_on_c, 0, 60, 100
2, 15000, Note_on_c, 0, 60, 0
2, 15000, Note_on_c, 0, 69, 100
2, 15180, Note_on_c, 0, 72, 0
2, 15180, Note_on_c, 0, 74, 100
2, 15240, Note_on_c, 0, 74, 0
2, 15240, Note_on_c, 0, 69, 0
2, 15240, Note_on_c, 0, 72, 100
2, 15240, Note_on_c, 0, 62, 100
2, 15300, Note_on_c, 0, 72, 0
2, 15300, Note_on_c, 0, 70, 100
2, 15360, Note_on_c, 0, 70, 0
2, 15360, Note_on_c, 0, 62, 0
2, 15360, Note_on_c, 0, 69, 100
2, 15360, Note_on_c, 0, 64, 100
2, 15480, Note_on_c, 0, 64, 0
2, 15480, Note_on_c, 0, 69, 0
2, 15480, Note_on_c, 0, 69, 100
2, 15660, Note_on_c, 0, 69, 0
2, 15660, Note_on_c, 0, 67, 100
2, 15720, Note_on_c, 0, 67, 0
2, 15720, Note_on_c, 0, 69, 100
2, 15720, Note_on_c, 0, 65, 100
2, 15780, Note_on_c, 0, 65, 0
2, 15780, Note_on_c, 0, 64, 100
2, 15840, Note_on_c, 0, 64, 0
2, 15840, Note_on_c, 0, 62, 100
2, 15900, Note_on_c, 0, 69, 0
2, 15900, Note_on_c, 0, 72, 100
2, 15960, Note_on_c, 0, 72, 0
2, 15960, Note_on_c, 0, 70, 100
2, 16020, Note_on_c, 0, 70, 0
2, 16020, Note_on_c, 0, 69, 100
2, 16080, Note_on_c, 0, 69, 0
2, 16080, Note_on_c, 0, 70, 100
2, 16140, Note_on_c, 0, 70, 0
2, 16140, Note_on_c, 0, 69, 100
2, 16200, Note_on_c, 0, 69, 0
2, 16200, Note_on_c, 0, 67, 100
2, 16260, Note_on_c, 0, 67, 0
2, 16260, Note_on_c, 0, 66, 100
2, 16320, Note_on_c, 0, 66, 0
2, 16320, Note_on_c, 0, 67, 100
2, 16380, Note_on_c, 0, 62, 0
2, 16380, Note_on_c, 0, 62, 100
2, 16440, Note_on_c, 0, 62, 0
2, 16440, Note_on_c, 0, 67, 100
2, 16500, Note_on_c, 0, 67, 0
2, 16500, Note_on_c, 0, 70, 100
2, 16560, Note_on_c, 0, 70, 0
2, 16560, Note_on_c, 0, 64, 100
2, 16620, Note_on_c, 0, 67, 0
2, 16620, Note_on_c, 0, 67, 100
2, 16680, Note_on_c, 0, 67, 0
2, 16680, Note_on_c, 0, 60, 100
2, 16740, Note_on_c, 0, 64, 0
2, 16740, Note_on_c, 0, 66, 100
2, 16800, Note_on_c, 0, 66, 0
2, 16800, Note_on_c, 0, 67, 100
2, 16860, Note_on_c, 0, 60, 0
2, 16860, Note_on_c, 0, 57, 100
2, 16920, Note_on_c, 0, 57, 0
2, 16920, Note_on_c, 0, 58, 100
2, 16980, Note_on_c, 0, 67, 0
2, 16980, Note_on_c, 0, 64, 100
2, 17040, Note_on_c, 0, 64, 0
2, 17040, Note_on_c, 0, 58, 0
2, 17040, Note_on_c, 0, 61, 100
2, 17040, Note_on_c, 0, 57, 100
2, 17220, Note_on_c, 0, 61, 0
2, 17220, Note_on_c, 0, 69, 100
2, 17280, Note_on_c, 0, 69, 0
2, 17280, Note_on_c, 0, 62, 100
2, 17340, Note_on_c, 0, 57, 0
2, 17340, Note_on_c, 0, 53, 100
2, 17400, Note_on_c, 0, 53, 0
2, 17400, Note_on_c, 0, 55, 100
2, 17460, Note_on_c, 0, 62, 0
2, 17460, Note_on_c, 0, 65, 100
2, 17520, Note_on_c, 0, 65, 0
2, 17520, Note_on_c, 0, 55, 0
2, 17520, Note_on_c, 0, 64, 100
2, 17520, Note_on_c, 0, 60, 100
2, 17700, Note_on_c, 0, 64, 0
2, 17700, Note_on_c, 0, 72, 100
2, 17760, Note_on_c, 0, 72, 0
2, 17760, Note_on_c, 0, 65, 100
2, 17820, Note_on_c, 0, 60, 0
2, 17820, Note_on_c, 0, 57, 100
2, 17880, Note_on_c, 0, 57, 0
2, 17880, Note_on_c, 0, 59, 100
2, 17940, Note_on_c, 0, 65, 0
2, 17940, Note_on_c, 0, 69, 100
2, 18000, Note_on_c, 0, 69, 0
2, 18000, Note_on_c, 0, 59, 0
2, 18000, Note_on_c, 0, 67, 100
2, 18000, Note_on_c, 0, 64, 100
2, 18180, Note_on_c, 0, 67, 0
2, 18180, Note_on_c, 0, 76, 100
2, 18240, Note_on_c, 0, 76, 0
2, 18240, Note_on_c, 0, 69, 100
2, 18300, Note_on_c, 0, 64, 0
2, 18300, Note_on_c, 0, 61, 100
2, 18360, Note_on_c, 0, 61, 0
2, 18360, Note_on_c, 0, 62, 100
2, 18420, Note_on_c, 0, 69, 0
2, 18420, Note_on_c, 0, 72, 100
2, 18480, Note_on_c, 0, 72, 0
2, 18480, Note_on_c, 0, 62, 0
2, 18480, Note_on_c, 0, 71, 100
2, 18480, Note_on_c, 0, 67, 100
2, 18660, Note_on_c, 0, 71, 0
2, 18660, Note_on_c, 0, 79, 100
2, 18720, Note_on_c, 0, 79, 0
2, 18720, Note_on_c, 0, 73, 100
2, 18780, Note_on_c, 0, 67, 0
2, 18780, Note_on_c, 0, 69, 100
2, 18840, Note_on_c, 0, 69, 0
2, 18840, Note_on_c, 0, 70, 100
2, 18960, Note_on_c, 0, 70, 0
2, 18960, Note_on_c, 0, 73, 0
2, 18960, Note_on_c, 0, 74, 100
2, 18960, Note_on_c, 0, 69, 100
2, 19080, Note_on_c, 0, 74, 0
2, 19080, Note_on_c, 0, 76, 100
2, 19260, Note_on_c, 0, 76, 0
2, 19260, Note_on_c, 0, 73, 100
2, 19320, Note_on_c, 0, 73, 0
2, 19320, Note_on_c, 0, 74, 100
2, 19500, Note_on_c, 0, 69, 0
2, 19500, Note_on_c, 0, 65, 100
2, 19560, Note_on_c, 0, 65, 0
2, 19560, Note_on_c, 0, 67, 100
2, 19620, Note_on_c, 0, 74, 0
2, 19620, Note_on_c, 0, 76, 100
2, 19680, Note_on_c, 0, 76, 0
2, 19680, Note_on_c, 0, 67, 0
2, 19680, Note_on_c, 0, 77, 100
2, 19680, Note_on_c, 0, 69, 100
2, 19740, Note_on_c, 0, 77, 0
2, 19740, Note_on_c, 0, 76, 100
2, 19800, Note_on_c, 0, 76, 0
2, 19800, Note_on_c, 0, 79, 100
2, 19860, Note_on_c, 0, 69, 0
2, 19860, Note_on_c, 0, 70, 100
2, 19920, Note_on_c, 0, 70, 0
2, 19920, Note_on_c, 0, 69, 100
2, 19980, Note_on_c, 0, 79, 0
2, 19980, Note_on_c, 0, 77, 100
2, 20040, Note_on_c, 0, 77, 0
2, 20040, Note_on_c, 0, 69, 0
2, 20040, Note_on_c, 0, 76, 100
2, 20040, Note_on_c, 0, 67, 100
2, 20100, Note_on_c, 0, 76, 0
2, 20100, Note_on_c, 0, 74, 100
2, 20160, Note_on_c, 0, 74, 0
2, 20160, Note_on_c, 0, 73, 100
2, 20220, Note_on_c, 0, 73, 0
2, 20220, Note_on_c, 0, 69, 100
2, 20280, Note_on_c, 0, 69, 0
2, 20280, Note_on_c, 0, 67, 0
2, 20280, Note_on_c, 0, 74, 100
2, 20280, Note_on_c, 0, 65, 100
2, 20340, Note_on_c, 0, 65, 0
2, 20340, Note_on_c, 0, 62, 100
2, 20400, Note_on_c, 0, 62, 0
2, 20400, Note_on_c, 0, 69, 100
2, 20460, Note_on_c, 0, 74, 0
2, 20460, Note_on_c, 0, 71, 100
2, 20520, Note_on_c, 0, 71, 0
2, 20520, Note_on_c, 0, 72, 100
2, 20580, Note_on_c, 0, 69, 0
2, 20580, Note_on_c, 0, 67, 100
2, 20640, Note_on_c, 0, 67, 0
2, 20640, Note_on_c, 0, 72, 0
2, 20640, Note_on_c, 0, 72, 100
2, 20640, Note_on_c, 0, 66, 100
2, 20700, Note_on_c, 0, 66, 0
2, 20700, Note_on_c, 0, 62, 100
2, 20760, Note_on_c, 0, 62, 0
2, 20760, Note_on_c, 0, 72, 0
2, 20760, Note_on_c, 0, 70, 100
2, 20760, Note_on_c, 0, 67, 100
2, 20880, Note_on_c, 0, 70, 0
2, 20880, Note_on_c, 0, 69, 100
2, 20940, Note_on_c, 0, 67, 0
2, 20940, Note_on_c, 0, 64, 100
2, 21000, Note_on_c, 0, 64, 0
2, 21000, Note_on_c, 0, 69, 0
2, 21000, Note_on_c, 0, 65, 100
2, 21180, Note_on_c, 0, 65, 0
2, 21180, Note_on_c, 0, 62, 100
2, 21240, Note_on_c, 0, 62, 0
2, 21240, Note_on_c, 0, 67, 100
2, 21420, Note_on_c, 0, 67, 0
2, 21420, Note_on_c, 0, 64, 100
2, 21480, Note_on_c, 0, 64, 0
2, 21480, Note_on_c, 0, 69, 100
2, 21660, Note_on_c, 0, 69, 0
2, 21660, Note_on_c, 0, 65, 100
2, 21720, Note_on_c, 0, 65, 0
2, 21720, Note_on_c, 0, 70, 100
2, 21900, Note_on_c, 0, 70, 0
2, 21900, Note_on_c, 0, 67, 100
2, 21960, Note_on_c, 0, 67, 0
2, 21960, Note_on_c, 0, 69, 100
2, 22140, Note_on_c, 0, 69, 0
2, 22140, Note_on_c, 0, 65, 100
2, 22200, Note_on_c, 0, 65, 0
2, 22200, Note_on_c, 0, 67, 100
2, 22440, Note_on_c, 0, 67, 0
2, 22440, Note_on_c, 0, 65, 100
2, 22500, Note_on_c, 0, 65, 0
2, 22500, Note_on_c, 0, 62, 100
2, 22560, Note_on_c, 0, 62, 0
2, 22560, Note_on_c, 0, 69, 100
2, 22800, Note_on_c, 0, 69, 0
2, 22800, Note_on_c, 0, 74, 100
2, 23040, Note_on_c, 0, 76, 100
2, 23100, Note_on_c, 0, 74, 0
2, 23100, Note_on_c, 0, 73, 100
2, 23160, Note_on_c, 0, 73, 0
2, 23160, Note_on_c, 0, 71, 100
2, 23220, Note_on_c, 0, 71, 0
2, 23220, Note_on_c, 0, 73, 100
2, 23280, Note_on_c, 0, 73, 0
2, 23280, Note_on_c, 0, 76, 0
2, 23280, Note_on_c, 0, 81, 100
2, 23280, Note_on_c, 0, 74, 100
2, 23340, Note_on_c, 0, 74, 0
2, 23340, Note_on_c, 0, 69, 100
2, 23400, Note_on_c, 0, 69, 0
2, 23400, Note_on_c, 0, 76, 100
2, 23520, Note_on_c, 0, 81, 0
2, 23520, Note_on_c, 0, 77, 100
2, 23580, Note_on_c, 0, 76, 0
2, 23580, Note_on_c, 0, 69, 100
2, 23640, Note_on_c, 0, 69, 0
2, 23640, Note_on_c, 0, 74, 100
2, 23760, Note_on_c, 0, 74, 0
2, 23760, Note_on_c, 0, 77, 0
2, 23760, Note_on_c, 0, 74, 100
2, 23820, Note_on_c, 0, 65, 100
2, 23880, Note_on_c, 0, 65, 0
2, 23880, Note_on_c, 0, 70, 100
2, 24000, Note_on_c, 0, 74, 0
2, 24000, Note_on_c, 0, 73, 100
2, 24060, Note_on_c, 0, 70, 0
2, 24060, Note_on_c, 0, 64, 100
2, 24120, Note_on_c, 0, 64, 0
2, 24120, Note_on_c, 0, 69, 100
2, 24240, Note_on_c, 0, 73, 0
2, 24240, Note_on_c, 0, 74, 100
2, 24300, Note_on_c, 0, 69, 0
2, 24300, Note_on_c, 0, 67, 100
2, 24360, Note_on_c, 0, 67, 0
2, 24360, Note_on_c, 0, 74, 0
2, 24360, Note_on_c, 0, 76, 100
2, 24360, Note_on_c, 0, 65, 100
2, 24420, Note_on_c, 0, 65, 0
2, 24420, Note_on_c, 0, 64, 100
2, 24480, Note_on_c, 0, 64, 0
2, 24480, Note_on_c, 0, 76, 0
2, 24480, Note_on_c, 0, 77, 100
2, 24480, Note_on_c, 0, 62, 100
2, 24540, Note_on_c, 0, 62, 0
2, 24540, Note_on_c, 0, 69, 100
2, 24600, Note_on_c, 0, 69, 0
2, 24600, Note_on_c, 0, 74, 100
2, 24660, Note_on_c, 0, 74, 0
2, 24660, Note_on_c, 0, 71, 100
2, 24720, Note_on_c, 0, 71, 0
2, 24720, Note_on_c, 0, 67, 100
2, 24780, Note_on_c, 0, 67, 0
2, 24780, Note_on_c, 0, 77, 0
2, 24780, Note_on_c, 0, 79, 100
2, 24780, Note_on_c, 0, 64, 100
2, 24840, Note_on_c, 0, 64, 0
2, 24840, Note_on_c, 0, 79, 0
2, 24840, Note_on_c, 0, 77, 100
2, 24840, Note_on_c, 0, 72, 100
2, 24900, Note_on_c, 0, 77, 0
2, 24900, Note_on_c, 0, 76, 100
2, 24960, Note_on_c, 0, 76, 0
2, 24960, Note_on_c, 0, 74, 100
2, 25080, Note_on_c, 0, 72, 0
2, 25080, Note_on_c, 0, 70, 100
2, 25140, Note_on_c, 0, 74, 0
2, 25140, Note_on_c, 0, 76, 100
2, 25200, Note_on_c, 0, 76, 0
2, 25200, Note_on_c, 0, 70, 0
2, 25200, Note_on_c, 0, 73, 100
2, 25200, Note_on_c, 0, 69, 100
2, 25320, Note_on_c, 0, 73, 0
2, 25320, Note_on_c, 0, 74, 100
2, 25380, Note_on_c, 0, 74, 0
2, 25380, Note_on_c, 0, 77, 100
2, 25440, Note_on_c, 0, 77, 0
2, 25440, Note_on_c, 0, 69, 0
2, 25440, Note_on_c, 0, 70, 100
2, 25440, Note_on_c, 0, 67, 100
2, 25620, Note_on_c, 0, 67, 0
2, 25620, Note_on_c, 0, 65, 100
2, 25680, Note_on_c, 0, 65, 0
2, 25680, Note_on_c, 0, 64, 100
2, 25740, Note_on_c, 0, 70, 0
2, 25740, Note_on_c, 0, 70, 100
2, 25800, Note_on_c, 0, 70, 0
2, 25800, Note_on_c, 0, 69, 100
2, 25860, Note_on_c, 0, 69, 0
2, 25860, Note_on_c, 0, 67, 100
2, 25920, Note_on_c, 0, 67, 0
2, 25920, Note_on_c, 0, 65, 100
2, 26040, Note_on_c, 0, 64, 0
2, 26040, Note_on_c, 0, 62, 100
2, 26100, Note_on_c, 0, 62, 0
2, 26100, Note_on_c, 0, 61, 100
2, 26160, Note_on_c, 0, 61, 0
2, 26160, Note_on_c, 0, 65, 0
2, 26160, Note_on_c, 0, 70, 100
2, 26160, Note_on_c, 0, 62, 100
2, 26280, Note_on_c, 0, 62, 0
2, 26280, Note_on_c, 0, 67, 100
2, 26400, Note_on_c, 0, 70, 0
2, 26400, Note_on_c, 0, 69, 100
2, 26580, Note_on_c, 0, 67, 0
2, 26580, Note_on_c, 0, 65, 100
2, 26640, Note_on_c, 0, 65, 0
2, 26640, Note_on_c, 0, 64, 100
2, 26760, Note_on_c, 0, 69, 0
2, 26760, Note_on_c, 0, 76, 100
2, 26820, Note_on_c, 0, 64, 0
2, 26820, Note_on_c, 0, 64, 100
2, 26880, Note_on_c, 0, 64, 0
2, 26880, Note_on_c, 0, 69, 100
2, 26940, Note_on_c, 0, 76, 0
2, 26940, Note_on_c, 0, 73, 100
2, 27000, Note_on_c, 0, 73, 0
2, 27000, Note_on_c, 0, 74, 100
2, 27060, Note_on_c, 0, 74, 0
2, 27060, Note_on_c, 0, 76, 100
2, 27120, Note_on_c, 0, 76, 0
2, 27120, Note_on_c, 0, 77, 100
2, 27180, Note_on_c, 0, 77, 0
2, 27180, Note_on_c, 0, 74, 100
2, 27240, Note_on_c, 0, 74, 0
2, 27240, Note_on_c, 0, 69, 0
2, 27240, Note_on_c, 0, 79, 100
2, 27240, Note_on_c, 0, 67, 100
2, 27300, Note_on_c, 0, 67, 0
2, 27300, Note_on_c, 0, 70, 100
2, 27360, Note_on_c, 0, 70, 0
2, 27360, Note_on_c, 0, 69, 100
2, 27420, Note_on_c, 0, 79, 0
2, 27420, Note_on_c, 0, 76, 100
2, 27480, Note_on_c, 0, 76, 0
2, 27480, Note_on_c, 0, 81, 100
2, 27540, Note_on_c, 0, 81, 0
2, 27540, Note_on_c, 0, 79, 100
2, 27600, Note_on_c, 0, 79, 0
2, 27600, Note_on_c, 0, 77, 100
2, 27660, Note_on_c, 0, 77, 0
2, 27660, Note_on_c, 0, 69, 0
2, 27660, Note_on_c, 0, 76, 100
2, 27660, Note_on_c, 0, 67, 100
2, 27720, Note_on_c, 0, 67, 0
2, 27720, Note_on_c, 0, 76, 0
2, 27720, Note_on_c, 0, 74, 100
2, 27720, Note_on_c, 0, 65, 100
2, 27780, Note_on_c, 0, 65, 0
2, 27780, Note_on_c, 0, 74, 0
2, 27780, Note_on_c, 0, 73, 100
2, 27780, Note_on_c, 0, 64, 100
2, 27840, Note_on_c, 0, 64, 0
2, 27840, Note_on_c, 0, 73, 0
2, 27840, Note_on_c, 0, 74, 100
2, 27840, Note_on_c, 0, 62, 100
2, 27900, Note_on_c, 0, 74, 0
2, 27900, Note_on_c, 0, 72, 100
2, 27960, Note_on_c, 0, 72, 0
2, 27960, Note_on_c, 0, 70, 100
2, 28020, Note_on_c, 0, 70, 0
2, 28020, Note_on_c, 0, 69, 100
2, 28080, Note_on_c, 0, 69, 0
2, 28080, Note_on_c, 0, 67, 100
2, 28200, Note_on_c, 0, 62, 0
2, 28200, Note_on_c, 0, 64, 100
2, 28320, Note_on_c, 0, 64, 0
2, 28320, Note_on_c, 0, 57, 100
2, 28380, Note_on_c, 0, 67, 0
2, 28380, Note_on_c, 0, 64, 100
2, 28440, Note_on_c, 0, 64, 0
2, 28440, Note_on_c, 0, 57, 0
2, 28440, Note_on_c, 0, 65, 100
2, 28500, Note_on_c, 0, 65, 0
2, 28500, Note_on_c, 0, 62, 100
2, 28560, Note_on_c, 0, 62, 0
2, 28560, Note_on_c, 0, 69, 100
2, 28680, Note_on_c, 0, 63, 100
2, 28800, Note_on_c, 0, 63, 0
2, 28800, Note_on_c, 0, 62, 100
2, 28860, Note_on_c, 0, 69, 0
2, 28860, Note_on_c, 0, 66, 100
2, 28920, Note_on_c, 0, 66, 0
2, 28920, Note_on_c, 0, 67, 100
2, 28980, Note_on_c, 0, 67, 0
2, 28980, Note_on_c, 0, 70, 100
2, 29040, Note_on_c, 0, 70, 0
2, 29040, Note_on_c, 0, 62, 0
2, 29040, Note_on_c, 0, 72, 100
2, 29160, Note_on_c, 0, 66, 100
2, 29280, Note_on_c, 0, 66, 0
2, 29280, Note_on_c, 0, 67, 100
2, 29340, Note_on_c, 0, 67, 0
2, 29340, Note_on_c, 0, 72, 0
2, 29340, Note_on_c, 0, 69, 100
2, 29340, Note_on_c, 0, 66, 100
2, 29400, Note_on_c, 0, 66, 0
2, 29400, Note_on_c, 0, 69, 0
2, 29400, Note_on_c, 0, 70, 100
2, 29400, Note_on_c, 0, 67, 100
2, 29460, Note_on_c, 0, 70, 0
2, 29460, Note_on_c, 0, 74, 100
2, 29520, Note_on_c, 0, 74, 0
2, 29520, Note_on_c, 0, 67, 0
2, 29520, Note_on_c, 0, 75, 100
2, 29640, Note_on_c, 0, 75, 0
2, 29640, Note_on_c, 0, 74, 100
2, 29640, Note_on_c, 0, 70, 100
2, 29760, Note_on_c, 0, 74, 0
2, 29760, Note_on_c, 0, 73, 100
2, 29820, Note_on_c, 0, 70, 0
2, 29820, Note_on_c, 0, 69, 100
2, 29880, Note_on_c, 0, 69, 0
2, 29880, Note_on_c, 0, 73, 0
2, 29880, Note_on_c, 0, 81, 100
2, 29880, Note_on_c, 0, 77, 100
2, 29940, Note_on_c, 0, 77, 0
2, 29940, Note_on_c, 0, 74, 100
2, 30000, Note_on_c, 0, 74, 0
2, 30000, Note_on_c, 0, 71, 100
2, 30060, Note_on_c, 0, 81, 0
2, 30060, Note_on_c, 0, 74, 100
2, 30120, Note_on_c, 0, 74, 0
2, 30120, Note_on_c, 0, 71, 0
2, 30120, Note_on_c, 0, 79, 100
2, 30120, Note_on_c, 0, 76, 100
2, 30180, Note_on_c, 0, 76, 0
2, 30180, Note_on_c, 0, 73, 100
2, 30240, Note_on_c, 0, 73, 0
2, 30240, Note_on_c, 0, 69, 100
2, 30300, Note_on_c, 0, 79, 0
2, 30300, Note_on_c, 0, 73, 100
2, 30360, Note_on_c, 0, 73, 0
2, 30360, Note_on_c, 0, 69, 0
2, 30360, Note_on_c, 0, 77, 100
2, 30360, Note_on_c, 0, 74, 100
2, 30420, Note_on_c, 0, 74, 0
2, 30420, Note_on_c, 0, 69, 100
2, 30480, Note_on_c, 0, 69, 0
2, 30480, Note_on_c, 0, 70, 100
2, 30540, Note_on_c, 0, 77, 0
2, 30540, Note_on_c, 0, 74, 100
2, 30600, Note_on_c, 0, 74, 0
2, 30600, Note_on_c, 0, 76, 100
2, 30660, Note_on_c, 0, 70, 0
2, 30660, Note_on_c, 0, 67, 100
2, 30720, Note_on_c, 0, 67, 0
2, 30720, Note_on_c, 0, 69, 100
2, 30780, Note_on_c, 0, 76, 0
2, 30780, Note_on_c, 0, 73, 100
2, 30840, Note_on_c, 0, 73, 0
2, 30840, Note_on_c, 0, 74, 100
2, 30900, Note_on_c, 0, 69, 0
2, 30900, Note_on_c, 0, 65, 100
2, 30960, Note_on_c, 0, 65, 0
2, 30960, Note_on_c, 0, 64, 100
2, 31020, Note_on_c, 0, 74, 0
2, 31020, Note_on_c, 0, 71, 100
2, 31080, Note_on_c, 0, 71, 0
2, 31080, Note_on_c, 0, 72, 100
2, 31140, Note_on_c, 0, 64, 0
2, 31140, Note_on_c, 0, 67, 100
2, 31200, Note_on_c, 0, 67, 0
2, 31200, Note_on_c, 0, 66, 100
2, 31260, Note_on_c, 0, 66, 0
2, 31260, Note_on_c, 0, 62, 100
2, 31320, Note_on_c, 0, 62, 0
2, 31320, Note_on_c, 0, 72, 0
2, 31320, Note_on_c, 0, 70, 100
2, 31320, Note_on_c, 0, 67, 100
2, 31440, Note_on_c, 0, 70, 0
2, 31440, Note_on_c, 0, 69, 100
2, 31500, Note_on_c, 0, 67, 0
2, 31500, Note_on_c, 0, 64, 100
2, 31560, Note_on_c, 0, 64, 0
2, 31560, Note_on_c, 0, 65, 100
2, 31620, Note_on_c, 0, 69, 0
2, 31620, Note_on_c, 0, 69, 100
2, 31680, Note_on_c, 0, 69, 0
2, 31680, Note_on_c, 0, 74, 100
2, 31740, Note_on_c, 0, 74, 0
2, 31740, Note_on_c, 0, 65, 0
2, 31740, Note_on_c, 0, 77, 100
2, 31740, Note_on_c, 0, 74, 100
2, 31800, Note_on_c, 0, 74, 0
2, 31800, Note_on_c, 0, 77, 0
2, 31800, Note_on_c, 0, 76, 100
2, 31800, Note_on_c, 0, 72, 100
2, 31860, Note_on_c, 0, 76, 0
2, 31860, Note_on_c, 0, 79, 100
2, 31920, Note_on_c, 0, 79, 0
2, 31920, Note_on_c, 0, 77, 100
2, 31980, Note_on_c, 0, 77, 0
2, 31980, Note_on_c, 0, 76, 100
2, 32040, Note_on_c, 0, 76, 0
2, 32040, Note_on_c, 0, 74, 100
2, 32100, Note_on_c, 0, 72, 0
2, 32100, Note_on_c, 0, 72, 100
2, 32160, Note_on_c, 0, 72, 0
2, 32160, Note_on_c, 0, 70, 100
2, 32220, Note_on_c, 0, 70, 0
2, 32220, Note_on_c, 0, 74, 0
2, 32220, Note_on_c, 0, 77, 100
2, 32220, Note_on_c, 0, 69, 100
2, 32280, Note_on_c, 0, 69, 0
2, 32280, Note_on_c, 0, 68, 100
2, 32340, Note_on_c, 0, 77, 0
2, 32340, Note_on_c, 0, 76, 100
2, 32400, Note_on_c, 0, 76, 0
2, 32400, Note_on_c, 0, 68, 0
2, 32400, Note_on_c, 0, 77, 100
2, 32400, Note_on_c, 0, 69, 100
2, 32460, Note_on_c, 0, 77, 0
2, 32460, Note_on_c, 0, 74, 100
2, 32520, Note_on_c, 0, 74, 0
2, 32520, Note_on_c, 0, 76, 100
2, 32580, Note_on_c, 0, 69, 0
2, 32580, Note_on_c, 0, 64, 100
2, 32640, Note_on_c, 0, 64, 0
2, 32640, Note_on_c, 0, 69, 100
2, 32700, Note_on_c, 0, 76, 0
2, 32700, Note_on_c, 0, 74, 100
2, 32760, Note_on_c, 0, 74, 0
2, 32760, Note_on_c, 0, 69, 0
2, 32760, Note_on_c, 0, 72, 100
2, 32760, Note_on_c, 0, 67, 100
2, 32820, Note_on_c, 0, 72, 0
2, 32820, Note_on_c, 0, 71, 100
2, 32880, Note_on_c, 0, 71, 0
2, 32880, Note_on_c, 0, 72, 100
2, 33060, Note_on_c, 0, 72, 0
2, 33060, Note_on_c, 0, 67, 0
2, 33060, Note_on_c, 0, 81, 100
2, 33060, Note_on_c, 0, 72, 100
2, 33120, Note_on_c, 0, 72, 0
2, 33120, Note_on_c, 0, 81, 0
2, 33120, Note_on_c, 0, 79, 100
2, 33120, Note_on_c, 0, 69, 100
2, 33180, Note_on_c, 0, 79, 0
2, 33180, Note_on_c, 0, 78, 100
2, 33240, Note_on_c, 0, 78, 0
2, 33240, Note_on_c, 0, 69, 0
2, 33240, Note_on_c, 0, 79, 100
2, 33240, Note_on_c, 0, 67, 100
2, 33300, Note_on_c, 0, 79, 0
2, 33300, Note_on_c, 0, 82, 100
2, 33360, Note_on_c, 0, 82, 0
2, 33360, Note_on_c, 0, 73, 100
2, 33480, Note_on_c, 0, 73, 0
2, 33480, Note_on_c, 0, 67, 0
2, 33840, Note_on_c, 0, 74, 100
2, 33840, Note_on_c, 0, 69, 100
2, 33960, Note_on_c, 0, 69, 0
2, 33960, Note_on_c, 0, 74, 0
2, 34320, Note_on_c, 0, 74, 100
2, 34320, Note_on_c, 0, 71, 100
2, 34560, Note_on_c, 0, 71, 0
2, 34560, Note_on_c, 0, 69, 100
2, 34860, Note_on_c, 0, 74, 0
2, 34860, Note_on_c, 0, 71, 100
2, 34920, Note_on_c, 0, 71, 0
2, 34920, Note_on_c, 0, 73, 100
2, 34980, Note_on_c, 0, 69, 0
2, 34980, Note_on_c, 0, 67, 100
2, 35040, Note_on_c, 0, 67, 0
2, 35040, Note_on_c, 0, 73, 0
2, 35040, Note_on_c, 0, 74, 100
2, 35040, Note_on_c, 0, 66, 100
2, 35100, Note_on_c, 0, 66, 0
2, 35100, Note_on_c, 0, 67, 100
2, 35160, Note_on_c, 0, 67, 0
2, 35160, Note_on_c, 0, 69, 100
2, 35220, Note_on_c, 0, 74, 0
2, 35220, Note_on_c, 0, 72, 100
2, 35280, Note_on_c, 0, 72, 0
2, 35280, Note_on_c, 0, 70, 100
2, 35340, Note_on_c, 0, 69, 0
2, 35340, Note_on_c, 0, 67, 100
2, 35400, Note_on_c, 0, 67, 0
2, 35400, Note_on_c, 0, 72, 100
2, 35460, Note_on_c, 0, 70, 0
2, 35460, Note_on_c, 0, 69, 100
2, 35520, Note_on_c, 0, 69, 0
2, 35520, Note_on_c, 0, 62, 100
2, 35580, Note_on_c, 0, 72, 0
2, 35580, Note_on_c, 0, 66, 100
2, 35640, Note_on_c, 0, 66, 0
2, 35640, Note_on_c, 0, 67, 100
2, 35700, Note_on_c, 0, 67, 0
2, 35700, Note_on_c, 0, 70, 100
2, 35760, Note_on_c, 0, 70, 0
2, 35760, Note_on_c, 0, 62, 0
2, 35760, Note_on_c, 0, 63, 100
2, 35820, Note_on_c, 0, 67, 100
2, 35880, Note_on_c, 0, 67, 0
2, 35880, Note_on_c, 0, 69, 100
2, 35940, Note_on_c, 0, 69, 0
2, 35940, Note_on_c, 0, 72, 100
2, 36000, Note_on_c, 0, 63, 0
2, 36000, Note_on_c, 0, 62, 100
2, 36060, Note_on_c, 0, 72, 0
2, 36060, Note_on_c, 0, 70, 100
2, 36120, Note_on_c, 0, 70, 0
2, 36120, Note_on_c, 0, 62, 0
2, 36120, Note_on_c, 0, 72, 100
2, 36120, Note_on_c, 0, 57, 100
2, 36180, Note_on_c, 0, 72, 0
2, 36180, Note_on_c, 0, 75, 100
2, 36240, Note_on_c, 0, 57, 0
2, 36240, Note_on_c, 0, 58, 100
2, 36300, Note_on_c, 0, 75, 0
2, 36300, Note_on_c, 0, 74, 100
2, 36360, Note_on_c, 0, 74, 0
2, 36360, Note_on_c, 0, 58, 0
2, 36360, Note_on_c, 0, 78, 100
2, 36360, Note_on_c, 0, 60, 100
2, 36420, Note_on_c, 0, 78, 0
2, 36420, Note_on_c, 0, 81, 100
2, 36480, Note_on_c, 0, 60, 0
2, 36480, Note_on_c, 0, 62, 100
2, 36540, Note_on_c, 0, 81, 0
2, 36540, Note_on_c, 0, 79, 100
2, 36570, Note_on_c, 0, 79, 0
2, 36570, Note_on_c, 0, 81, 100
2, 36600, Note_on_c, 0, 81, 0
2, 36600, Note_on_c, 0, 62, 0
2, 36600, Note_on_c, 0, 82, 100
2, 36600, Note_on_c, 0, 55, 100
2, 36660, Note_on_c, 0, 82, 0
2, 36660, Note_on_c, 0, 73, 100
2, 36720, Note_on_c, 0, 73, 0
2, 36720, Note_on_c, 0, 74, 100
2, 36780, Note_on_c, 0, 55, 0
2, 36780, Note_on_c, 0, 70, 100
2, 36840, Note_on_c, 0, 70, 0
2, 36840, Note_on_c, 0, 69, 100
2, 36900, Note_on_c, 0, 69, 0
2, 36900, Note_on_c, 0, 67, 100
2, 37020, Note_on_c, 0, 67, 0
2, 37020, Note_on_c, 0, 66, 100
2, 37080, Note_on_c, 0, 66, 0
2, 37080, Note_on_c, 0, 64, 100
2, 37140, Note_on_c, 0, 64, 0
2, 37140, Note_on_c, 0, 67, 100
2, 37200, Note_on_c, 0, 67, 0
2, 37200, Note_on_c, 0, 66, 100
2, 37440, Note_on_c, 0, 66, 0
2, 37440, Note_on_c, 0, 74, 0
2, 41760, Note_on_c, 0, 62, 100
2, 42000, Note_on_c, 0, 62, 0
2, 42000, Note_on_c, 0, 69, 100
2, 42240, Note_on_c, 0, 69, 0
2, 42240, Note_on_c, 0, 65, 100
2, 42480, Note_on_c, 0, 65, 0
2, 42480, Note_on_c, 0, 62, 100
2, 42720, Note_on_c, 0, 62, 0
2, 42720, Note_on_c, 0, 61, 100
2, 42960, Note_on_c, 0, 61, 0
2, 42960, Note_on_c, 0, 62, 100
2, 43080, Note_on_c, 0, 62, 0
2, 43080, Note_on_c, 0, 64, 100
2, 43200, Note_on_c, 0, 64, 0
2, 43200, Note_on_c, 0, 65, 100
2, 43530, Note_on_c, 0, 65, 0
2, 43530, Note_on_c, 0, 67, 100
2, 43560, Note_on_c, 0, 67, 0
2, 43560, Note_on_c, 0, 65, 100
2, 43650, Note_on_c, 0, 65, 0
2, 43650, Note_on_c, 0, 64, 100
2, 43680, Note_on_c, 0, 64, 0
2, 43680, Note_on_c, 0, 69, 100
2, 43680, Note_on_c, 0, 62, 100
2, 43770, Note_on_c, 0, 62, 0
2, 43770, Note_on_c, 0, 64, 100
2, 43800, Note_on_c, 0, 64, 0
2, 43800, Note_on_c, 0, 65, 100
2, 43890, Note_on_c, 0, 65, 0
2, 43890, Note_on_c, 0, 67, 100
2, 43920, Note_on_c, 0, 67, 0
2, 43920, Note_on_c, 0, 69, 0
2, 43920, Note_on_c, 0, 74, 100
2, 43920, Note_on_c, 0, 69, 100
2, 44160, Note_on_c, 0, 74, 0
2, 44160, Note_on_c, 0, 72, 100
2, 44250, Note_on_c, 0, 69, 0
2, 44250, Note_on_c, 0, 67, 100
2, 44280, Note_on_c, 0, 67, 0
2, 44280, Note_on_c, 0, 65, 100
2, 44370, Note_on_c, 0, 65, 0
2, 44370, Note_on_c, 0, 64, 100
2, 44400, Note_on_c, 0, 72, 0
2, 44400, Note_on_c, 0, 69, 100
2, 44490, Note_on_c, 0, 64, 0
2, 44490, Note_on_c, 0, 65, 100
2, 44520, Note_on_c, 0, 65, 0
2, 44520, Note_on_c, 0, 64, 100
2, 44610, Note_on_c, 0, 64, 0
2, 44610, Note_on_c, 0, 62, 100
2, 44640, Note_on_c, 0, 69, 0
2, 44640, Note_on_c, 0, 68, 100
2, 44730, Note_on_c, 0, 62, 0
2, 44730, Note_on_c, 0, 62, 100
2, 44760, Note_on_c, 0, 62, 0
2, 44760, Note_on_c, 0, 64, 100
2, 44850, Note_on_c, 0, 64, 0
2, 44850, Note_on_c, 0, 65, 100
2, 44880, Note_on_c, 0, 65, 0
2, 44880, Note_on_c, 0, 68, 0
2, 44880, Note_on_c, 0, 69, 100
2, 44880, Note_on_c, 0, 64, 100
2, 45000, Note_on_c, 0, 64, 0
2, 45000, Note_on_c, 0, 69, 0
2, 45000, Note_on_c, 0, 71, 100
2, 45000, Note_on_c, 0, 62, 100
2, 45120, Note_on_c, 0, 62, 0
2, 45120, Note_on_c, 0, 71, 0
2, 45120, Note_on_c, 0, 72, 100
2, 45120, Note_on_c, 0, 60, 100
2, 45240, Note_on_c, 0, 60, 0
2, 45240, Note_on_c, 0, 64, 100
2, 45360, Note_on_c, 0, 64, 0
2, 45360, Note_on_c, 0, 65, 100
2, 45450, Note_on_c, 0, 72, 0
2, 45450, Note_on_c, 0, 74, 100
2, 45480, Note_on_c, 0, 74, 0
2, 45480, Note_on_c, 0, 65, 0
2, 45480, Note_on_c, 0, 72, 100
2, 45480, Note_on_c, 0, 64, 100
2, 45570, Note_on_c, 0, 72, 0
2, 45570, Note_on_c, 0, 71, 100
2, 45600, Note_on_c, 0, 71, 0
2, 45600, Note_on_c, 0, 69, 100
2, 45690, Note_on_c, 0, 64, 0
2, 45690, Note_on_c, 0, 61, 100
2, 45720, Note_on_c, 0, 61, 0
2, 45720, Note_on_c, 0, 62, 100
2, 45810, Note_on_c, 0, 62, 0
2, 45810, Note_on_c, 0, 64, 100
2, 45840, Note_on_c, 0, 64, 0
2, 45840, Note_on_c, 0, 65, 100
2, 45960, Note_on_c, 0, 65, 0
2, 45960, Note_on_c, 0, 64, 100
2, 46170, Note_on_c, 0, 64, 0
2, 46170, Note_on_c, 0, 64, 100
2, 46200, Note_on_c, 0, 64, 0
2, 46200, Note_on_c, 0, 62, 100
2, 46290, Note_on_c, 0, 62, 0
2, 46290, Note_on_c, 0, 61, 100
2, 46320, Note_on_c, 0, 61, 0
2, 46320, Note_on_c, 0, 62, 100
2, 46440, Note_on_c, 0, 62, 0
2, 46440, Note_on_c, 0, 60, 100
2, 46560, Note_on_c, 0, 69, 0
2, 46560, Note_on_c, 0, 62, 100
2, 46680, Note_on_c, 0, 60, 0
2, 46680, Note_on_c, 0, 58, 100
2, 46770, Note_on_c, 0, 58, 0
2, 46770, Note_on_c, 0, 57, 100
2, 46800, Note_on_c, 0, 57, 0
2, 46800, Note_on_c, 0, 58, 100
2, 46920, Note_on_c, 0, 58, 0
2, 46920, Note_on_c, 0, 57, 100
2, 47130, Note_on_c, 0, 57, 0
2, 47130, Note_on_c, 0, 54, 100
2, 47160, Note_on_c, 0, 54, 0
2, 47160, Note_on_c, 0, 55, 100
2, 47250, Note_on_c, 0, 55, 0
2, 47250, Note_on_c, 0, 57, 100
2, 47280, Note_on_c, 0, 57, 0
2, 47280, Note_on_c, 0, 58, 100
2, 47400, Note_on_c, 0, 58, 0
2, 47400, Note_on_c, 0, 57, 100
2, 47520, Note_on_c, 0, 57, 0
2, 47520, Note_on_c, 0, 56, 100
2, 47610, Note_on_c, 0, 62, 0
2, 47610, Note_on_c, 0, 61, 100
2, 47640, Note_on_c, 0, 61, 0
2, 47640, Note_on_c, 0, 56, 0
2, 47640, Note_on_c, 0, 62, 100
2, 47730, Note_on_c, 0, 62, 0
2, 47730, Note_on_c, 0, 65, 100
2, 47760, Note_on_c, 0, 65, 0
2, 47760, Note_on_c, 0, 64, 100
2, 47850, Note_on_c, 0, 64, 0
2, 47850, Note_on_c, 0, 62, 100
2, 47880, Note_on_c, 0, 62, 0
2, 47880, Note_on_c, 0, 68, 100
2, 47970, Note_on_c, 0, 68, 0
2, 47970, Note_on_c, 0, 69, 100
2, 48000, Note_on_c, 0, 69, 0
2, 48000, Note_on_c, 0, 71, 100
2, 48090, Note_on_c, 0, 71, 0
2, 48090, Note_on_c, 0, 72, 100
2, 48120, Note_on_c, 0, 72, 0
2, 48120, Note_on_c, 0, 74, 100
2, 48210, Note_on_c, 0, 74, 0
2, 48210, Note_on_c, 0, 65, 100
2, 48240, Note_on_c, 0, 59, 100
2, 48330, Note_on_c, 0, 65, 0
2, 48330, Note_on_c, 0, 64, 100
2, 48345, Note_on_c, 0, 64, 0
2, 48345, Note_on_c, 0, 62, 100
2, 48360, Note_on_c, 0, 62, 0
2, 48360, Note_on_c, 0, 61, 100
2, 48450, Note_on_c, 0, 61, 0
2, 48450, Note_on_c, 0, 62, 100
2, 48480, Note_on_c, 0, 62, 0
2, 48480, Note_on_c, 0, 59, 0
2, 48480, Note_on_c, 0, 61, 100
2, 48480, Note_on_c, 0, 57, 100
2, 48570, Note_on_c, 0, 57, 0
2, 48570, Note_on_c, 0, 64, 100
2, 48600, Note_on_c, 0, 64, 0
2, 48600, Note_on_c, 0, 61, 0
2, 48600, Note_on_c, 0, 65, 100
2, 48690, Note_on_c, 0, 65, 0
2, 48690, Note_on_c, 0, 67, 100
2, 48720, Note_on_c, 0, 67, 0
2, 48720, Note_on_c, 0, 69, 100
2, 48960, Note_on_c, 0, 69, 0
2, 48960, Note_on_c, 0, 65, 100
2, 49200, Note_on_c, 0, 65, 0
2, 49200, Note_on_c, 0, 62, 100
2, 49440, Note_on_c, 0, 62, 0
2, 49440, Note_on_c, 0, 61, 100
2, 49680, Note_on_c, 0, 61, 0
2, 49680, Note_on_c, 0, 62, 100
2, 49800, Note_on_c, 0, 62, 0
2, 49800, Note_on_c, 0, 64, 100
2, 49920, Note_on_c, 0, 64, 0
2, 49920, Note_on_c, 0, 69, 100
2, 49920, Note_on_c, 0, 65, 100
2, 50160, Note_on_c, 0, 69, 0
2, 50160, Note_on_c, 0, 74, 100
2, 50250, Note_on_c, 0, 65, 0
2, 50250, Note_on_c, 0, 69, 100
2, 50280, Note_on_c, 0, 69, 0
2, 50280, Note_on_c, 0, 68, 100
2, 50370, Note_on_c, 0, 68, 0
2, 50370, Note_on_c, 0, 66, 100
2, 50400, Note_on_c, 0, 66, 0
2, 50400, Note_on_c, 0, 74, 0
2, 50400, Note_on_c, 0, 72, 100
2, 50400, Note_on_c, 0, 64, 100
2, 50640, Note_on_c, 0, 72, 0
2, 50640, Note_on_c, 0, 69, 100
2, 50730, Note_on_c, 0, 64, 0
2, 50730, Note_on_c, 0, 57, 100
2, 50760, Note_on_c, 0, 57, 0
2, 50760, Note_on_c, 0, 62, 100
2, 50850, Note_on_c, 0, 62, 0
2, 50850, Note_on_c, 0, 60, 100
2, 50880, Note_on_c, 0, 60, 0
2, 50880, Note_on_c, 0, 69, 0
2, 50880, Note_on_c, 0, 68, 100
2, 50880, Note_on_c, 0, 59, 100
2, 51120, Note_on_c, 0, 59, 0
2, 51120, Note_on_c, 0, 68, 0
2, 51120, Note_on_c, 0, 69, 100
2, 51210, Note_on_c, 0, 64, 100
2, 51240, Note_on_c, 0, 64, 0
2, 51240, Note_on_c, 0, 69, 0
2, 51240, Note_on_c, 0, 71, 100
2, 51240, Note_on_c, 0, 66, 100
2, 51330, Note_on_c, 0, 66, 0
2, 51330, Note_on_c, 0, 68, 100
2, 51360, Note_on_c, 0, 68, 0
2, 51360, Note_on_c, 0, 71, 0
2, 51360, Note_on_c, 0, 72, 100
2, 51360, Note_on_c, 0, 69, 100
2, 51690, Note_on_c, 0, 72, 0
2, 51690, Note_on_c, 0, 74, 100
2, 51720, Note_on_c, 0, 74, 0
2, 51720, Note_on_c, 0, 69, 0
2, 51720, Note_on_c, 0, 72, 100
2, 51720, Note_on_c, 0, 68, 100
2, 51810, Note_on_c, 0, 72, 0
2, 51810, Note_on_c, 0, 71, 100
2, 51840, Note_on_c, 0, 71, 0
2, 51840, Note_on_c, 0, 68, 0
2, 51840, Note_on_c, 0, 72, 100
2, 51840, Note_on_c, 0, 69, 100
2, 51930, Note_on_c, 0, 69, 0
2, 51930, Note_on_c, 0, 67, 100
2, 51960, Note_on_c, 0, 67, 0
2, 51960, Note_on_c, 0, 72, 0
2, 51960, Note_on_c, 0, 81, 100
2, 51960, Note_on_c, 0, 65, 100
2, 52050, Note_on_c, 0, 65, 0
2, 52050, Note_on_c, 0, 64, 100
2, 52080, Note_on_c, 0, 64, 0
2, 52080, Note_on_c, 0, 62, 100
2, 52170, Note_on_c, 0, 81, 0
2, 52170, Note_on_c, 0, 79, 100
2, 52200, Note_on_c, 0, 79, 0
2, 52200, Note_on_c, 0, 62, 0
2, 52200, Note_on_c, 0, 77, 100
2, 52200, Note_on_c, 0, 67, 100
2, 52290, Note_on_c, 0, 77, 0
2, 52290, Note_on_c, 0, 76, 100
2, 52320, Note_on_c, 0, 67, 0
2, 52320, Note_on_c, 0, 65, 100
2, 52410, Note_on_c, 0, 76, 0
2, 52410, Note_on_c, 0, 77, 100
2, 52440, Note_on_c, 0, 77, 0
2, 52440, Note_on_c, 0, 76, 100
2, 52530, Note_on_c, 0, 76, 0
2, 52530, Note_on_c, 0, 74, 100
2, 52560, Note_on_c, 0, 65, 0
2, 52560, Note_on_c, 0, 64, 100
2, 52650, Note_on_c, 0, 74, 0
2, 52650, Note_on_c, 0, 76, 100
2, 52680, Note_on_c, 0, 76, 0
2, 52680, Note_on_c, 0, 74, 100
2, 52770, Note_on_c, 0, 74, 0
2, 52770, Note_on_c, 0, 73, 100
2, 52800, Note_on_c, 0, 73, 0
2, 52800, Note_on_c, 0, 64, 0
2, 52800, Note_on_c, 0, 74, 100
2, 52800, Note_on_c, 0, 62, 100
2, 53040, Note_on_c, 0, 62, 0
2, 53040, Note_on_c, 0, 74, 0
2, 53370, Note_on_c, 0, 70, 100
2, 53400, Note_on_c, 0, 70, 0
2, 53400, Note_on_c, 0, 69, 100
2, 53490, Note_on_c, 0, 69, 0
2, 53490, Note_on_c, 0, 67, 100
2, 53520, Note_on_c, 0, 67, 0
2, 53520, Note_on_c, 0, 65, 100
2, 53610, Note_on_c, 0, 65, 0
2, 53610, Note_on_c, 0, 64, 100
2, 53640, Note_on_c, 0, 64, 0
2, 53640, Note_on_c, 0, 62, 100
2, 53730, Note_on_c, 0, 62, 0
2, 53730, Note_on_c, 0, 61, 100
2, 53760, Note_on_c, 0, 61, 0
2, 53760, Note_on_c, 0, 62, 100
2, 53850, Note_on_c, 0, 81, 100
2, 53880, Note_on_c, 0, 81, 0
2, 53880, Note_on_c, 0, 62, 0
2, 53880, Note_on_c, 0, 80, 100
2, 53880, Note_on_c, 0, 74, 100
2, 53970, Note_on_c, 0, 80, 0
2, 53970, Note_on_c, 0, 81, 100
2, 54000, Note_on_c, 0, 81, 0
2, 54000, Note_on_c, 0, 74, 0
2, 54000, Note_on_c, 0, 74, 100
2, 54000, Note_on_c, 0, 71, 100
2, 54120, Note_on_c, 0, 71, 0
2, 54120, Note_on_c, 0, 74, 0
2, 54120, Note_on_c, 0, 79, 100
2, 54120, Note_on_c, 0, 73, 100
2, 54240, Note_on_c, 0, 73, 0
2, 54240, Note_on_c, 0, 79, 0
2, 54240, Note_on_c, 0, 79, 100
2, 54240, Note_on_c, 0, 74, 100
2, 54330, Note_on_c, 0, 79, 0
2, 54330, Note_on_c, 0, 77, 100
2, 54360, Note_on_c, 0, 77, 0
2, 54360, Note_on_c, 0, 74, 0
2, 54360, Note_on_c, 0, 76, 100
2, 54450, Note_on_c, 0, 76, 0
2, 54450, Note_on_c, 0, 74, 100
2, 54480, Note_on_c, 0, 74, 0
2, 54480, Note_on_c, 0, 76, 100
2, 54600, Note_on_c, 0, 76, 0
2, 54600, Note_on_c, 0, 81, 100
2, 54600, Note_on_c, 0, 72, 100
2, 54720, Note_on_c, 0, 81, 0
2, 54720, Note_on_c, 0, 74, 100
2, 54810, Note_on_c, 0, 72, 0
2, 54810, Note_on_c, 0, 70, 100
2, 54840, Note_on_c, 0, 70, 0
2, 54840, Note_on_c, 0, 74, 0
2, 54840, Note_on_c, 0, 76, 100
2, 54840, Note_on_c, 0, 69, 100
2, 54930, Note_on_c, 0, 69, 0
2, 54930, Note_on_c, 0, 67, 100
2, 54960, Note_on_c, 0, 67, 0
2, 54960, Note_on_c, 0, 76, 0
2, 54960, Note_on_c, 0, 64, 100
2, 54960, Note_on_c, 0, 69, 100
2, 55080, Note_on_c, 0, 64, 0
2, 55080, Note_on_c, 0, 65, 100
2, 55200, Note_on_c, 0, 65, 0
2, 55200, Note_on_c, 0, 69, 0
2, 55200, Note_on_c, 0, 64, 100
2, 55200, Note_on_c, 0, 68, 100
2, 55320, Note_on_c, 0, 68, 0
2, 55320, Note_on_c, 0, 64, 0
2, 55320, Note_on_c, 0, 76, 100
2, 55320, Note_on_c, 0, 72, 100
2, 55440, Note_on_c, 0, 72, 0
2, 55440, Note_on_c, 0, 66, 100
2, 55530, Note_on_c, 0, 76, 0
2, 55530, Note_on_c, 0, 74, 100
2, 55560, Note_on_c, 0, 74, 0
2, 55560, Note_on_c, 0, 66, 0
2, 55560, Note_on_c, 0, 72, 100
2, 55560, Note_on_c, 0, 68, 100
2, 55650, Note_on_c, 0, 72, 0
2, 55650, Note_on_c, 0, 71, 100
2, 55680, Note_on_c, 0, 71, 0
2, 55680, Note_on_c, 0, 68, 0
2, 55680, Note_on_c, 0, 72, 100
2, 55680, Note_on_c, 0, 69, 100
2, 55770, Note_on_c, 0, 69, 0
2, 55770, Note_on_c, 0, 72, 0
2, 55770, Note_on_c, 0, 74, 100
2, 55770, Note_on_c, 0, 70, 100
2, 55800, Note_on_c, 0, 70, 0
2, 55800, Note_on_c, 0, 74, 0
2, 55800, Note_on_c, 0, 76, 100
2, 55800, Note_on_c, 0, 69, 100
2, 55890, Note_on_c, 0, 69, 0
2, 55890, Note_on_c, 0, 67, 100
2, 55920, Note_on_c, 0, 67, 0
2, 55920, Note_on_c, 0, 65, 100
2, 56010, Note_on_c, 0, 65, 0
2, 56010, Note_on_c, 0, 76, 0
2, 56010, Note_on_c, 0, 77, 100
2, 56010, Note_on_c, 0, 69, 100
2, 56040, Note_on_c, 0, 69, 0
2, 56040, Note_on_c, 0, 77, 0
2, 56040, Note_on_c, 0, 76, 100
2, 56040, Note_on_c, 0, 67, 100
2, 56130, Note_on_c, 0, 67, 0
2, 56130, Note_on_c, 0, 76, 0
2, 56130, Note_on_c, 0, 74, 100
2, 56130, Note_on_c, 0, 65, 100
2, 56160, Note_on_c, 0, 74, 0
2, 56160, Note_on_c, 0, 81, 100
2, 56250, Note_on_c, 0, 65, 0
2, 56250, Note_on_c, 0, 64, 100
2, 56280, Note_on_c, 0, 64, 0
2, 56280, Note_on_c, 0, 81, 0
2, 56280, Note_on_c, 0, 66, 100
2, 56370, Note_on_c, 0, 66, 0
2, 56370, Note_on_c, 0, 68, 100
2, 56400, Note_on_c, 0, 68, 0
2, 56400, Note_on_c, 0, 69, 100
2, 56490, Note_on_c, 0, 69, 0
2, 56490, Note_on_c, 0, 71, 100
2, 56520, Note_on_c, 0, 71, 0
2, 56520, Note_on_c, 0, 72, 100
2, 56610, Note_on_c, 0, 72, 0
2, 56610, Note_on_c, 0, 69, 100
2, 56640, Note_on_c, 0, 69, 0
2, 56640, Note_on_c, 0, 71, 100
2, 56970, Note_on_c, 0, 71, 0
2, 56970, Note_on_c, 0, 69, 100
2, 57000, Note_on_c, 0, 69, 0
2, 57000, Note_on_c, 0, 68, 100
2, 57090, Note_on_c, 0, 68, 0
2, 57090, Note_on_c, 0, 69, 100
2, 57120, Note_on_c, 0, 69, 0
2, 57120, Note_on_c, 0, 63, 100
2, 57210, Note_on_c, 0, 63, 0
2, 57210, Note_on_c, 0, 76, 100
2, 57210, Note_on_c, 0, 57, 100
2, 57240, Note_on_c, 0, 57, 0
2, 57240, Note_on_c, 0, 76, 0
2, 57240, Note_on_c, 0, 75, 100
2, 57240, Note_on_c, 0, 69, 100
2, 57330, Note_on_c, 0, 75, 0
2, 57330, Note_on_c, 0, 76, 100
2, 57360, Note_on_c, 0, 76, 0
2, 57360, Note_on_c, 0, 69, 100
2, 57480, Note_on_c, 0, 69, 0
2, 57480, Note_on_c, 0, 69, 0
2, 57480, Note_on_c, 0, 74, 100
2, 57480, Note_on_c, 0, 64, 100
2, 57690, Note_on_c, 0, 74, 0
2, 57690, Note_on_c, 0, 72, 100
2, 57720, Note_on_c, 0, 72, 0
2, 57720, Note_on_c, 0, 64, 0
2, 57720, Note_on_c, 0, 70, 100
2, 57720, Note_on_c, 0, 65, 100
2, 57810, Note_on_c, 0, 70, 0
2, 57810, Note_on_c, 0, 69, 100
2, 57840, Note_on_c, 0, 69, 0
2, 57840, Note_on_c, 0, 65, 0
2, 57840, Note_on_c, 0, 70, 100
2, 57840, Note_on_c, 0, 62, 100
2, 57960, Note_on_c, 0, 62, 0
2, 57960, Note_on_c, 0, 67, 100
2, 58080, Note_on_c, 0, 67, 0
2, 58080, Note_on_c, 0, 60, 100
2, 58170, Note_on_c, 0, 60, 0
2, 58170, Note_on_c, 0, 70, 0
2, 58170, Note_on_c, 0, 69, 100
2, 58170, Note_on_c, 0, 65, 100
2, 58200, Note_on_c, 0, 65, 0
2, 58200, Note_on_c, 0, 69, 0
2, 58200, Note_on_c, 0, 67, 100
2, 58200, Note_on_c, 0, 64, 100
2, 58290, Note_on_c, 0, 64, 0
2, 58290, Note_on_c, 0, 67, 0
2, 58290, Note_on_c, 0, 65, 100
2, 58290, Note_on_c, 0, 62, 100
2, 58320, Note_on_c, 0, 65, 0
2, 58320, Note_on_c, 0, 67, 100
2, 58410, Note_on_c, 0, 62, 0
2, 58410, Note_on_c, 0, 64, 100
2, 58440, Note_on_c, 0, 64, 0
2, 58440, Note_on_c, 0, 62, 100
2, 58530, Note_on_c, 0, 62, 0
2, 58530, Note_on_c, 0, 61, 100
2, 58560, Note_on_c, 0, 61, 0
2, 58560, Note_on_c, 0, 62, 100
2, 58650, Note_on_c, 0, 67, 0
2, 58650, Note_on_c, 0, 65, 100
2, 58680, Note_on_c, 0, 65, 0
2, 58680, Note_on_c, 0, 67, 100
2, 58770, Note_on_c, 0, 67, 0
2, 58770, Note_on_c, 0, 69, 100
2, 58800, Note_on_c, 0, 69, 0
2, 58800, Note_on_c, 0, 70, 100
2, 58890, Note_on_c, 0, 70, 0
2, 58890, Note_on_c, 0, 72, 100
2, 58920, Note_on_c, 0, 72, 0
2, 58920, Note_on_c, 0, 62, 0
2, 58920, Note_on_c, 0, 74, 100
2, 58920, Note_on_c, 0, 67, 100
2, 59010, Note_on_c, 0, 74, 0
2, 59010, Note_on_c, 0, 76, 100
2, 59040, Note_on_c, 0, 76, 0
2, 59040, Note_on_c, 0, 67, 0
2, 59040, Note_on_c, 0, 77, 100
2, 59040, Note_on_c, 0, 60, 100
2, 59280, Note_on_c, 0, 77, 0
2, 59280, Note_on_c, 0, 84, 100
2, 59370, Note_on_c, 0, 60, 0
2, 59370, Note_on_c, 0, 58, 100
2, 59400, Note_on_c, 0, 58, 0
2, 59400, Note_on_c, 0, 57, 100
2, 59490, Note_on_c, 0, 57, 0
2, 59490, Note_on_c, 0, 55, 100
2, 59520, Note_on_c, 0, 55, 0
2, 59520, Note_on_c, 0, 84, 0
2, 59520, Note_on_c, 0, 81, 100
2, 59520, Note_on_c, 0, 53, 100
2, 59610, Note_on_c, 0, 53, 0
2, 59610, Note_on_c, 0, 65, 100
2, 59640, Note_on_c, 0, 65, 0
2, 59640, Note_on_c, 0, 67, 100
2, 59730, Note_on_c, 0, 67, 0
2, 59730, Note_on_c, 0, 69, 100
2, 59760, Note_on_c, 0, 69, 0
2, 59760, Note_on_c, 0, 81, 0
2, 59760, Note_on_c, 0, 77, 100
2, 59760, Note_on_c, 0, 70, 100
2, 59850, Note_on_c, 0, 70, 0
2, 59850, Note_on_c, 0, 72, 100
2, 59880, Note_on_c, 0, 72, 0
2, 59880, Note_on_c, 0, 74, 100
2, 59970, Note_on_c, 0, 74, 0
2, 59970, Note_on_c, 0, 70, 100
2, 60000, Note_on_c, 0, 70, 0
2, 60000, Note_on_c, 0, 77, 0
2, 60000, Note_on_c, 0, 76, 100
2, 60000, Note_on_c, 0, 72, 100
2, 60120, Note_on_c, 0, 72, 0
2, 60120, Note_on_c, 0, 67, 100
2, 60240, Note_on_c, 0, 67, 0
2, 60240, Note_on_c, 0, 76, 0
2, 60240, Note_on_c, 0, 77, 100
2, 60240, Note_on_c, 0, 72, 100
2, 60360, Note_on_c, 0, 77, 0
2, 60360, Note_on_c, 0, 79, 100
2, 60480, Note_on_c, 0, 79, 0
2, 60480, Note_on_c, 0, 81, 100
2, 60720, Note_on_c, 0, 72, 0
2, 60720, Note_on_c, 0, 74, 100
2, 60810, Note_on_c, 0, 81, 0
2, 60810, Note_on_c, 0, 82, 100
2, 60840, Note_on_c, 0, 82, 0
2, 60840, Note_on_c, 0, 74, 0
2, 60840, Note_on_c, 0, 81, 100
2, 60840, Note_on_c, 0, 72, 100
2, 60930, Note_on_c, 0, 72, 0
2, 60930, Note_on_c, 0, 81, 0
2, 60930, Note_on_c, 0, 79, 100
2, 60930, Note_on_c, 0, 70, 100
2, 60960, Note_on_c, 0, 70, 0
2, 60960, Note_on_c, 0, 79, 0
2, 60960, Note_on_c, 0, 78, 100
2, 60960, Note_on_c, 0, 69, 100
2, 61200, Note_on_c, 0, 69, 0
2, 61200, Note_on_c, 0, 78, 0
2, 61200, Note_on_c, 0, 79, 100
2, 61200, Note_on_c, 0, 74, 100
2, 61320, Note_on_c, 0, 79, 0
2, 61320, Note_on_c, 0, 81, 100
2, 61440, Note_on_c, 0, 74, 0
2, 61440, Note_on_c, 0, 70, 100
2, 61530, Note_on_c, 0, 81, 0
2, 61530, Note_on_c, 0, 74, 100
2, 61560, Note_on_c, 0, 74, 0
2, 61560, Note_on_c, 0, 79, 100
2, 61650, Note_on_c, 0, 79, 0
2, 61650, Note_on_c, 0, 77, 100
2, 61680, Note_on_c, 0, 77, 0
2, 61680, Note_on_c, 0, 70, 0
2, 61680, Note_on_c, 0, 75, 100
2, 61680, Note_on_c, 0, 67, 100
2, 61770, Note_on_c, 0, 75, 0
2, 61770, Note_on_c, 0, 74, 100
2, 61800, Note_on_c, 0, 74, 0
2, 61800, Note_on_c, 0, 72, 100
2, 61890, Note_on_c, 0, 72, 0
2, 61890, Note_on_c, 0, 70, 100
2, 61920, Note_on_c, 0, 70, 0
2, 61920, Note_on_c, 0, 67, 0
2, 61920, Note_on_c, 0, 69, 100
2, 61920, Note_on_c, 0, 66, 100
2, 62160, Note_on_c, 0, 66, 0
2, 62160, Note_on_c, 0, 69, 0
2, 62160, Note_on_c, 0, 67, 100
2, 62280, Note_on_c, 0, 67, 0
2, 62280, Note_on_c, 0, 69, 100
2, 62400, Note_on_c, 0, 69, 0
2, 62400, Note_on_c, 0, 70, 100
2, 62730, Note_on_c, 0, 70, 0
2, 62730, Note_on_c, 0, 72, 100
2, 62760, Note_on_c, 0, 72, 0
2, 62760, Note_on_c, 0, 70, 100
2, 62850, Note_on_c, 0, 70, 0
2, 62850, Note_on_c, 0, 69, 100
2, 62880, Note_on_c, 0, 69, 0
2, 62880, Note_on_c, 0, 67, 100
2, 63000, Note_on_c, 0, 67, 0
2, 63000, Note_on_c, 0, 70, 100
2, 63120, Note_on_c, 0, 70, 0
2, 63120, Note_on_c, 0, 69, 100
2, 63240, Note_on_c, 0, 69, 0
2, 63240, Note_on_c, 0, 72, 100
2, 63450, Note_on_c, 0, 72, 0
2, 63450, Note_on_c, 0, 65, 100
2, 63480, Note_on_c, 0, 65, 0
2, 63480, Note_on_c, 0, 67, 100
2, 63570, Note_on_c, 0, 67, 0
2, 63570, Note_on_c, 0, 69, 100
2, 63600, Note_on_c, 0, 69, 0
2, 63600, Note_on_c, 0, 70, 100
2, 63690, Note_on_c, 0, 70, 0
2, 63690, Note_on_c, 0, 72, 100
2, 63720, Note_on_c, 0, 72, 0
2, 63720, Note_on_c, 0, 74, 100
2, 63810, Note_on_c, 0, 74, 0
2, 63810, Note_on_c, 0, 70, 100
2, 63840, Note_on_c, 0, 70, 0
2, 63840, Note_on_c, 0, 72, 100
2, 63930, Note_on_c, 0, 79, 100
2, 63960, Note_on_c, 0, 79, 0
2, 63960, Note_on_c, 0, 77, 100
2, 64050, Note_on_c, 0, 77, 0
2, 64050, Note_on_c, 0, 75, 100
2, 64080, Note_on_c, 0, 75, 0
2, 64080, Note_on_c, 0, 72, 0
2, 64080, Note_on_c, 0, 74, 100
2, 64080, Note_on_c, 0, 65, 100
2, 64170, Note_on_c, 0, 74, 0
2, 64170, Note_on_c, 0, 72, 100
2, 64200, Note_on_c, 0, 72, 0
2, 64200, Note_on_c, 0, 70, 100
2, 64290, Note_on_c, 0, 70, 0
2, 64290, Note_on_c, 0, 69, 100
2, 64320, Note_on_c, 0, 69, 0
2, 64320, Note_on_c, 0, 70, 100
2, 64410, Note_on_c, 0, 65, 0
2, 64410, Note_on_c, 0, 68, 100
2, 64440, Note_on_c, 0, 68, 0
2, 64440, Note_on_c, 0, 67, 100
2, 64530, Note_on_c, 0, 67, 0
2, 64530, Note_on_c, 0, 65, 100
2, 64560, Note_on_c, 0, 65, 0
2, 64560, Note_on_c, 0, 70, 0
2, 64560, Note_on_c, 0, 75, 100
2, 64560, Note_on_c, 0, 67, 100
2, 64680, Note_on_c, 0, 67, 0
2, 64680, Note_on_c, 0, 69, 100
2, 64800, Note_on_c, 0, 69, 0
2, 64800, Note_on_c, 0, 70, 100
2, 64890, Note_on_c, 0, 75, 0
2, 64890, Note_on_c, 0, 74, 100
2, 64920, Note_on_c, 0, 74, 0
2, 64920, Note_on_c, 0, 73, 100
2, 65010, Note_on_c, 0, 73, 0
2, 65010, Note_on_c, 0, 74, 100
2, 65040, Note_on_c, 0, 74, 0
2, 65040, Note_on_c, 0, 70, 0
2, 65040, Note_on_c, 0, 67, 100
2, 65160, Note_on_c, 0, 67, 0
2, 65160, Note_on_c, 0, 72, 100
2, 65370, Note_on_c, 0, 67, 100
2, 65400, Note_on_c, 0, 67, 0
2, 65400, Note_on_c, 0, 72, 0
2, 65400, Note_on_c, 0, 70, 100
2, 65400, Note_on_c, 0, 66, 100
2, 65490, Note_on_c, 0, 66, 0
2, 65490, Note_on_c, 0, 67, 100
2, 65520, Note_on_c, 0, 67, 0
2, 65520, Note_on_c, 0, 70, 0
2, 65520, Note_on_c, 0, 69, 100
2, 65520, Note_on_c, 0, 64, 100
2, 65640, Note_on_c, 0, 64, 0
2, 65640, Note_on_c, 0, 65, 100
2, 65850, Note_on_c, 0, 65, 0
2, 65850, Note_on_c, 0, 69, 0
2, 65850, Note_on_c, 0, 77, 100
2, 65850, Note_on_c, 0, 62, 100
2, 65880, Note_on_c, 0, 62, 0
2, 65880, Note_on_c, 0, 77, 0
2, 65880, Note_on_c, 0, 79, 100
2, 65880, Note_on_c, 0, 61, 100
2, 65970, Note_on_c, 0, 61, 0
2, 65970, Note_on_c, 0, 79, 0
2, 65970, Note_on_c, 0, 77, 100
2, 65970, Note_on_c, 0, 62, 100
2, 66000, Note_on_c, 0, 62, 0
2, 66000, Note_on_c, 0, 77, 0
2, 66000, Note_on_c, 0, 76, 100
2, 66000, Note_on_c, 0, 67, 100
2, 66090, Note_on_c, 0, 76, 0
2, 66090, Note_on_c, 0, 74, 100
2, 66120, Note_on_c, 0, 74, 0
2, 66120, Note_on_c, 0, 73, 100
2, 66210, Note_on_c, 0, 73, 0
2, 66210, Note_on_c, 0, 74, 100
2, 66240, Note_on_c, 0, 74, 0
2, 66240, Note_on_c, 0, 73, 100
2, 66330, Note_on_c, 0, 73, 0
2, 66330, Note_on_c, 0, 81, 100
2, 66360, Note_on_c, 0, 81, 0
2, 66360, Note_on_c, 0, 67, 0
2, 66360, Note_on_c, 0, 82, 100
2, 66360, Note_on_c, 0, 65, 100
2, 66450, Note_on_c, 0, 82, 0
2, 66450, Note_on_c, 0, 81, 100
2, 66480, Note_on_c, 0, 81, 0
2, 66480, Note_on_c, 0, 65, 0
2, 66480, Note_on_c, 0, 79, 100
2, 66480, Note_on_c, 0, 64, 100
2, 66570, Note_on_c, 0, 79, 0
2, 66570, Note_on_c, 0, 77, 100
2, 66600, Note_on_c, 0, 77, 0
2, 66600, Note_on_c, 0, 64, 0
2, 66600, Note_on_c, 0, 76, 100
2, 66600, Note_on_c, 0, 69, 100
2, 66690, Note_on_c, 0, 76, 0
2, 66690, Note_on_c, 0, 77, 100
2, 66720, Note_on_c, 0, 77, 0
2, 66720, Note_on_c, 0, 79, 100
2, 66810, Note_on_c, 0, 79, 0
2, 66810, Note_on_c, 0, 77, 100
2, 66840, Note_on_c, 0, 77, 0
2, 66840, Note_on_c, 0, 69, 0
2, 66840, Note_on_c, 0, 76, 100
2, 66930, Note_on_c, 0, 76, 0
2, 66930, Note_on_c, 0, 74, 100
2, 67050, Note_on_c, 0, 74, 0
2, 67050, Note_on_c, 0, 76, 100
2, 67080, Note_on_c, 0, 76, 0
2, 67080, Note_on_c, 0, 74, 100
2, 67170, Note_on_c, 0, 74, 0
2, 67170, Note_on_c, 0, 73, 100
2, 67200, Note_on_c, 0, 73, 0
2, 67200, Note_on_c, 0, 74, 100
2, 67290, Note_on_c, 0, 70, 100
2, 67320, Note_on_c, 0, 70, 0
2, 67320, Note_on_c, 0, 74, 0
2, 67320, Note_on_c, 0, 69, 100
2, 67410, Note_on_c, 0, 69, 0
2, 67410, Note_on_c, 0, 67, 100
2, 67530, Note_on_c, 0, 67, 0
2, 67530, Note_on_c, 0, 69, 100
2, 67560, Note_on_c, 0, 69, 0
2, 67560, Note_on_c, 0, 70, 100
2, 67560, Note_on_c, 0, 67, 100
2, 67650, Note_on_c, 0, 67, 0
2, 67650, Note_on_c, 0, 65, 100
2, 67680, Note_on_c, 0, 65, 0
2, 67680, Note_on_c, 0, 64, 100
2, 67770, Note_on_c, 0, 70, 0
2, 67770, Note_on_c, 0, 70, 100
2, 67800, Note_on_c, 0, 70, 0
2, 67800, Note_on_c, 0, 64, 0
2, 67800, Note_on_c, 0, 69, 100
2, 67800, Note_on_c, 0, 57, 100
2, 67890, Note_on_c, 0, 69, 0
2, 67890, Note_on_c, 0, 67, 100
2, 67920, Note_on_c, 0, 67, 0
2, 67920, Note_on_c, 0, 57, 0
2, 67920, Note_on_c, 0, 65, 100
2, 67920, Note_on_c, 0, 58, 100
2, 68010, Note_on_c, 0, 65, 0
2, 68010, Note_on_c, 0, 64, 100
2, 68040, Note_on_c, 0, 64, 0
2, 68040, Note_on_c, 0, 62, 100
2, 68130, Note_on_c, 0, 62, 0
2, 68130, Note_on_c, 0, 61, 100
2, 68160, Note_on_c, 0, 61, 0
2, 68160, Note_on_c, 0, 58, 0
2, 68160, Note_on_c, 0, 62, 100
2, 68160, Note_on_c, 0, 57, 100
2, 68250, Note_on_c, 0, 62, 0
2, 68250, Note_on_c, 0, 74, 100
2, 68280, Note_on_c, 0, 74, 0
2, 68280, Note_on_c, 0, 57, 0
2, 68280, Note_on_c, 0, 76, 100
2, 68280, Note_on_c, 0, 69, 100
2, 68370, Note_on_c, 0, 76, 0
2, 68370, Note_on_c, 0, 77, 100
2, 68400, Note_on_c, 0, 77, 0
2, 68400, Note_on_c, 0, 69, 0
2, 68400, Note_on_c, 0, 79, 100
2, 68400, Note_on_c, 0, 71, 100
2, 68520, Note_on_c, 0, 71, 0
2, 68520, Note_on_c, 0, 73, 100
2, 68640, Note_on_c, 0, 73, 0
2, 68640, Note_on_c, 0, 74, 100
2, 68760, Note_on_c, 0, 74, 0
2, 68760, Note_on_c, 0, 79, 0
2, 68760, Note_on_c, 0, 77, 100
2, 68850, Note_on_c, 0, 77, 0
2, 68850, Note_on_c, 0, 76, 100
2, 68880, Note_on_c, 0, 76, 0
2, 68880, Note_on_c, 0, 77, 100
2, 69000, Note_on_c, 0, 77, 0
2, 69000, Note_on_c, 0, 81, 100
2, 69120, Note_on_c, 0, 81, 0
2, 69120, Note_on_c, 0, 74, 100
2, 69210, Note_on_c, 0, 67, 100
2, 69240, Note_on_c, 0, 67, 0
2, 69240, Note_on_c, 0, 69, 100
2, 69330, Note_on_c, 0, 69, 0
2, 69330, Note_on_c, 0, 70, 100
2, 69360, Note_on_c, 0, 70, 0
2, 69360, Note_on_c, 0, 74, 0
2, 69360, Note_on_c, 0, 76, 100
2, 69360, Note_on_c, 0, 72, 100
2, 69480, Note_on_c, 0, 76, 0
2, 69480, Note_on_c, 0, 78, 100
2, 69600, Note_on_c, 0, 78, 0
2, 69600, Note_on_c, 0, 79, 100
2, 69720, Note_on_c, 0, 72, 0
2, 69720, Note_on_c, 0, 70, 100
2, 69810, Note_on_c, 0, 70, 0
2, 69810, Note_on_c, 0, 69, 100
2, 69840, Note_on_c, 0, 69, 0
2, 69840, Note_on_c, 0, 70, 100
2, 69960, Note_on_c, 0, 70, 0
2, 69960, Note_on_c, 0, 79, 0
2, 69960, Note_on_c, 0, 74, 100
2, 69960, Note_on_c, 0, 69, 100
2, 70080, Note_on_c, 0, 69, 0
2, 70080, Note_on_c, 0, 67, 100
2, 70170, Note_on_c, 0, 74, 0
2, 70170, Note_on_c, 0, 76, 100
2, 70200, Note_on_c, 0, 76, 0
2, 70200, Note_on_c, 0, 74, 100
2, 70290, Note_on_c, 0, 74, 0
2, 70290, Note_on_c, 0, 72, 100
2, 70320, Note_on_c, 0, 67, 0
2, 70320, Note_on_c, 0, 65, 100
2, 70410, Note_on_c, 0, 72, 0
2, 70410, Note_on_c, 0, 74, 100
2, 70440, Note_on_c, 0, 74, 0
2, 70440, Note_on_c, 0, 72, 100
2, 70530, Note_on_c, 0, 72, 0
2, 70530, Note_on_c, 0, 70, 100
2, 70560, Note_on_c, 0, 65, 0
2, 70560, Note_on_c, 0, 64, 100
2, 70650, Note_on_c, 0, 70, 0
2, 70650, Note_on_c, 0, 70, 100
2, 70680, Note_on_c, 0, 70, 0
2, 70680, Note_on_c, 0, 69, 100
2, 70770, Note_on_c, 0, 69, 0
2, 70770, Note_on_c, 0, 67, 100
2, 70800, Note_on_c, 0, 67, 0
2, 70800, Note_on_c, 0, 64, 0
2, 70800, Note_on_c, 0, 65, 100
2, 70800, Note_on_c, 0, 62, 100
2, 70890, Note_on_c, 0, 65, 0
2, 70890, Note_on_c, 0, 72, 100
2, 70920, Note_on_c, 0, 72, 0
2, 70920, Note_on_c, 0, 62, 0
2, 70920, Note_on_c, 0, 70, 100
2, 70920, Note_on_c, 0, 65, 100
2, 71010, Note_on_c, 0, 70, 0
2, 71010, Note_on_c, 0, 69, 100
2, 71040, Note_on_c, 0, 69, 0
2, 71040, Note_on_c, 0, 68, 100
2, 71130, Note_on_c, 0, 65, 0
2, 71130, Note_on_c, 0, 65, 100
2, 71160, Note_on_c, 0, 65, 0
2, 71160, Note_on_c, 0, 64, 100
2, 71220, Note_on_c, 0, 68, 0
2, 71250, Note_on_c, 0, 68, 100
2, 71280, Note_on_c, 0, 68, 0
2, 71280, Note_on_c, 0, 69, 100
2, 71370, Note_on_c, 0, 64, 0
2, 71370, Note_on_c, 0, 64, 100
2, 71400, Note_on_c, 0, 64, 0
2, 71400, Note_on_c, 0, 62, 100
2, 71460, Note_on_c, 0, 69, 0
2, 71490, Note_on_c, 0, 69, 100
2, 71520, Note_on_c, 0, 69, 0
2, 71520, Note_on_c, 0, 62, 0
2, 71520, Note_on_c, 0, 74, 100
2, 71610, Note_on_c, 0, 74, 0
2, 71610, Note_on_c, 0, 76, 100
2, 71640, Note_on_c, 0, 76, 0
2, 71640, Note_on_c, 0, 77, 100
2, 71730, Note_on_c, 0, 74, 100
2, 71760, Note_on_c, 0, 74, 0
2, 71760, Note_on_c, 0, 77, 0
2, 71760, Note_on_c, 0, 76, 100
2, 71760, Note_on_c, 0, 72, 100
2, 71850, Note_on_c, 0, 72, 0
2, 71850, Note_on_c, 0, 71, 100
2, 71880, Note_on_c, 0, 71, 0
2, 71880, Note_on_c, 0, 69, 100
2, 71970, Note_on_c, 0, 69, 0
2, 71970, Note_on_c, 0, 68, 100
2, 72000, Note_on_c, 0, 68, 0
2, 72000, Note_on_c, 0, 69, 100
2, 72090, Note_on_c, 0, 76, 0
2, 72090, Note_on_c, 0, 81, 100
2, 72120, Note_on_c, 0, 81, 0
2, 72120, Note_on_c, 0, 80, 100
2, 72210, Note_on_c, 0, 80, 0
2, 72210, Note_on_c, 0, 81, 100
2, 72240, Note_on_c, 0, 81, 0
2, 72240, Note_on_c, 0, 69, 0
2, 72240, Note_on_c, 0, 76, 100
2, 72330, Note_on_c, 0, 76, 0
2, 72330, Note_on_c, 0, 78, 100
2, 72360, Note_on_c, 0, 78, 0
2, 72360, Note_on_c, 0, 79, 100
2, 72360, Note_on_c, 0, 76, 100
2, 72570, Note_on_c, 0, 76, 0
2, 72570, Note_on_c, 0, 69, 100
2, 72600, Note_on_c, 0, 69, 0
2, 72600, Note_on_c, 0, 79, 0
2, 72600, Note_on_c, 0, 77, 100
2, 72600, Note_on_c, 0, 74, 100
2, 72690, Note_on_c, 0, 74, 0
2, 72690, Note_on_c, 0, 72, 100
2, 72720, Note_on_c, 0, 72, 0
2, 72720, Note_on_c, 0, 70, 100
2, 72810, Note_on_c, 0, 70, 0
2, 72810, Note_on_c, 0, 69, 100
2, 72840, Note_on_c, 0, 69, 0
2, 72840, Note_on_c, 0, 77, 0
2, 72840, Note_on_c, 0, 76, 100
2, 72840, Note_on_c, 0, 67, 100
2, 72930, Note_on_c, 0, 67, 0
2, 72930, Note_on_c, 0, 76, 0
2, 72930, Note_on_c, 0, 74, 100
2, 72930, Note_on_c, 0, 65, 100
2, 72960, Note_on_c, 0, 65, 0
2, 72960, Note_on_c, 0, 74, 0
2, 72960, Note_on_c, 0, 73, 100
2, 72960, Note_on_c, 0, 64, 100
2, 73080, Note_on_c, 0, 73, 0
2, 73080, Note_on_c, 0, 76, 100
2, 73200, Note_on_c, 0, 76, 0
2, 73200, Note_on_c, 0, 69, 100
2, 73290, Note_on_c, 0, 64, 0
2, 73290, Note_on_c, 0, 67, 100
2, 73320, Note_on_c, 0, 67, 0
2, 73320, Note_on_c, 0, 65, 100
2, 73410, Note_on_c, 0, 65, 0
2, 73410, Note_on_c, 0, 64, 100
2, 73440, Note_on_c, 0, 64, 0
2, 73440, Note_on_c, 0, 62, 100
2, 73530, Note_on_c, 0, 62, 0
2, 73530, Note_on_c, 0, 60, 100
2, 73560, Note_on_c, 0, 60, 0
2, 73560, Note_on_c, 0, 69, 0
2, 73560, Note_on_c, 0, 62, 100
2, 73560, Note_on_c, 0, 58, 100
2, 73650, Note_on_c, 0, 58, 0
2, 73650, Note_on_c, 0, 57, 100
2, 73680, Note_on_c, 0, 57, 0
2, 73680, Note_on_c, 0, 58, 100
2, 73800, Note_on_c, 0, 62, 0
2, 73800, Note_on_c, 0, 67, 100
2, 73920, Note_on_c, 0, 58, 0
2, 73920, Note_on_c, 0, 57, 100
2, 74010, Note_on_c, 0, 67, 0
2, 74010, Note_on_c, 0, 70, 100
2, 74040, Note_on_c, 0, 70, 0
2, 74040, Note_on_c, 0, 69, 100
2, 74130, Note_on_c, 0, 69, 0
2, 74130, Note_on_c, 0, 67, 100
2, 74250, Note_on_c, 0, 67, 0
2, 74250, Note_on_c, 0, 69, 100
2, 74280, Note_on_c, 0, 69, 0
2, 74280, Note_on_c, 0, 57, 0
2, 74280, Note_on_c, 0, 67, 100
2, 74280, Note_on_c, 0, 59, 100
2, 74370, Note_on_c, 0, 67, 0
2, 74370, Note_on_c, 0, 65, 100
2, 74400, Note_on_c, 0, 59, 0
2, 74400, Note_on_c, 0, 61, 100
2, 74490, Note_on_c, 0, 65, 0
2, 74490, Note_on_c, 0, 67, 100
2, 74520, Note_on_c, 0, 67, 0
2, 74520, Note_on_c, 0, 65, 100
2, 74610, Note_on_c, 0, 65, 0
2, 74610, Note_on_c, 0, 64, 100
2, 74640, Note_on_c, 0, 61, 0
2, 74640, Note_on_c, 0, 56, 100
2, 74730, Note_on_c, 0, 64, 0
2, 74730, Note_on_c, 0, 65, 100
2, 74760, Note_on_c, 0, 65, 0
2, 74760, Note_on_c, 0, 64, 100
2, 74850, Note_on_c, 0, 64, 0
2, 74850, Note_on_c, 0, 62, 100
2, 74880, Note_on_c, 0, 56, 0
2, 74880, Note_on_c, 0, 57, 100
2, 74970, Note_on_c, 0, 62, 0
2, 74970, Note_on_c, 0, 59, 100
2, 75000, Note_on_c, 0, 59, 0
2, 75000, Note_on_c, 0, 61, 100
2, 75090, Note_on_c, 0, 61, 0
2, 75090, Note_on_c, 0, 64, 100
2, 75120, Note_on_c, 0, 64, 0
2, 75120, Note_on_c, 0, 57, 0
2, 75120, Note_on_c, 0, 57, 100
2, 75210, Note_on_c, 0, 57, 0
2, 75210, Note_on_c, 0, 67, 100
2, 75240, Note_on_c, 0, 67, 0
2, 75240, Note_on_c, 0, 65, 100
2, 75240, Note_on_c, 0, 61, 100
2, 75330, Note_on_c, 0, 65, 0
2, 75330, Note_on_c, 0, 64, 100
2, 75360, Note_on_c, 0, 64, 0
2, 75360, Note_on_c, 0, 61, 0
2, 75360, Note_on_c, 0, 62, 100
2, 75360, Note_on_c, 0, 62, 100
2, 75450, Note_on_c, 0, 62, 0
2, 75450, Note_on_c, 0, 65, 100
2, 75480, Note_on_c, 0, 65, 0
2, 75480, Note_on_c, 0, 64, 100
2, 75570, Note_on_c, 0, 64, 0
2, 75570, Note_on_c, 0, 62, 100
2, 75600, Note_on_c, 0, 62, 0
2, 75600, Note_on_c, 0, 62, 0
2, 75600, Note_on_c, 0, 69, 100
2, 75600, Note_on_c, 0, 61, 100
2, 75690, Note_on_c, 0, 61, 0
2, 75690, Note_on_c, 0, 57, 100
2, 75720, Note_on_c, 0, 57, 0
2, 75720, Note_on_c, 0, 59, 100
2, 75810, Note_on_c, 0, 59, 0
2, 75810, Note_on_c, 0, 61, 100
2, 75840, Note_on_c, 0, 61, 0
2, 75840, Note_on_c, 0, 69, 0
2, 75840, Note_on_c, 0, 65, 100
2, 75840, Note_on_c, 0, 62, 100
2, 75960, Note_on_c, 0, 62, 0
2, 75960, Note_on_c, 0, 60, 100
2, 76080, Note_on_c, 0, 65, 0
2, 76080, Note_on_c, 0, 62, 100
2, 76200, Note_on_c, 0, 60, 0
2, 76200, Note_on_c, 0, 58, 100
2, 76320, Note_on_c, 0, 62, 0
2, 76320, Note_on_c, 0, 61, 100
2, 76410, Note_on_c, 0, 58, 0
2, 76410, Note_on_c, 0, 58, 100
2, 76440, Note_on_c, 0, 58, 0
2, 76440, Note_on_c, 0, 57, 100
2, 76530, Note_on_c, 0, 57, 0
2, 76530, Note_on_c, 0, 55, 100
2, 76560, Note_on_c, 0, 55, 0
2, 76560, Note_on_c, 0, 61, 0
2, 76560, Note_on_c, 0, 62, 100
2, 76560, Note_on_c, 0, 53, 100
2, 76680, Note_on_c, 0, 53, 0
2, 76680, Note_on_c, 0, 62, 0
2, 76680, Note_on_c, 0, 64, 100
2, 76680, Note_on_c, 0, 58, 100
2, 76800, Note_on_c, 0, 58, 0
2, 76800, Note_on_c, 0, 64, 0
2, 76800, Note_on_c, 0, 65, 100
2, 76800, Note_on_c, 0, 57, 100
2, 77040, Note_on_c, 0, 57, 0
2, 77040, Note_on_c, 0, 58, 100
2, 77130, Note_on_c, 0, 65, 0
2, 77130, Note_on_c, 0, 67, 100
2, 77160, Note_on_c, 0, 67, 0
2, 77160, Note_on_c, 0, 58, 0
2, 77160, Note_on_c, 0, 65, 100
2, 77160, Note_on_c, 0, 57, 100
2, 77250, Note_on_c, 0, 65, 0
2, 77250, Note_on_c, 0, 64, 100
2, 77280, Note_on_c, 0, 64, 0
2, 77280, Note_on_c, 0, 62, 100
2, 77370, Note_on_c, 0, 57, 0
2, 77370, Note_on_c, 0, 54, 100
2, 77400, Note_on_c, 0, 54, 0
2, 77400, Note_on_c, 0, 55, 100
2, 77490, Note_on_c, 0, 55, 0
2, 77490, Note_on_c, 0, 57, 100
2, 77520, Note_on_c, 0, 57, 0
2, 77520, Note_on_c, 0, 58, 100
2, 77850, Note_on_c, 0, 58, 0
2, 77850, Note_on_c, 0, 57, 100
2, 77880, Note_on_c, 0, 57, 0
2, 77880, Note_on_c, 0, 58, 100
2, 77970, Note_on_c, 0, 58, 0
2, 77970, Note_on_c, 0, 55, 100
2, 78000, Note_on_c, 0, 55, 0
2, 78000, Note_on_c, 0, 57, 100
2, 78240, Note_on_c, 0, 57, 0
2, 78240, Note_on_c, 0, 62, 0
2, 80640, Note_on_c, 0, 69, 100
2, 80880, Note_on_c, 0, 69, 0
2, 80880, Note_on_c, 0, 62, 100
2, 81120, Note_on_c, 0, 62, 0
2, 81120, Note_on_c, 0, 65, 100
2, 81360, Note_on_c, 0, 65, 0
2, 81360, Note_on_c, 0, 69, 100
2, 81600, Note_on_c, 0, 69, 0
2, 81600, Note_on_c, 0, 70, 100
2, 81840, Note_on_c, 0, 70, 0
2, 81840, Note_on_c, 0, 69, 100
2, 81960, Note_on_c, 0, 69, 0
2, 81960, Note_on_c, 0, 67, 100
2, 82080, Note_on_c, 0, 67, 0
2, 82080, Note_on_c, 0, 65, 100
2, 82380, Note_on_c, 0, 65, 0
2, 82380, Note_on_c, 0, 64, 100
2, 82440, Note_on_c, 0, 64, 0
2, 82440, Note_on_c, 0, 65, 100
2, 82500, Note_on_c, 0, 65, 0
2, 82500, Note_on_c, 0, 67, 100
2, 82560, Note_on_c, 0, 67, 0
2, 82560, Note_on_c, 0, 69, 100
2, 82560, Note_on_c, 0, 74, 100
2, 82680, Note_on_c, 0, 69, 0
2, 82680, Note_on_c, 0, 67, 100
2, 82800, Note_on_c, 0, 74, 0
2, 82800, Note_on_c, 0, 69, 100
2, 82920, Note_on_c, 0, 67, 0
2, 82920, Note_on_c, 0, 66, 100
2, 82980, Note_on_c, 0, 66, 0
2, 82980, Note_on_c, 0, 65, 100
2, 83040, Note_on_c, 0, 65, 0
2, 83040, Note_on_c, 0, 69, 0
2, 83040, Note_on_c, 0, 72, 100
2, 83040, Note_on_c, 0, 64, 100
2, 83100, Note_on_c, 0, 64, 0
2, 83100, Note_on_c, 0, 63, 100
2, 83160, Note_on_c, 0, 63, 0
2, 83160, Note_on_c, 0, 64, 100
2, 83220, Note_on_c, 0, 64, 0
2, 83220, Note_on_c, 0, 66, 100
2, 83280, Note_on_c, 0, 66, 0
2, 83280, Note_on_c, 0, 72, 0
2, 83280, Note_on_c, 0, 76, 100
2, 83280, Note_on_c, 0, 67, 100
2, 83400, Note_on_c, 0, 67, 0
2, 83400, Note_on_c, 0, 68, 100
2, 83520, Note_on_c, 0, 76, 0
2, 83520, Note_on_c, 0, 77, 100
2, 83640, Note_on_c, 0, 68, 0
2, 83640, Note_on_c, 0, 69, 100
2, 83700, Note_on_c, 0, 69, 0
2, 83700, Note_on_c, 0, 71, 100
2, 83760, Note_on_c, 0, 71, 0
2, 83760, Note_on_c, 0, 77, 0
2, 83760, Note_on_c, 0, 72, 100
2, 83760, Note_on_c, 0, 76, 100
2, 83880, Note_on_c, 0, 76, 0
2, 83880, Note_on_c, 0, 72, 0
2, 83880, Note_on_c, 0, 71, 100
2, 83880, Note_on_c, 0, 74, 100
2, 84000, Note_on_c, 0, 74, 0
2, 84000, Note_on_c, 0, 73, 100
2, 84060, Note_on_c, 0, 71, 0
2, 84060, Note_on_c, 0, 64, 100
2, 84120, Note_on_c, 0, 64, 0
2, 84120, Note_on_c, 0, 65, 100
2, 84180, Note_on_c, 0, 65, 0
2, 84180, Note_on_c, 0, 67, 100
2, 84240, Note_on_c, 0, 67, 0
2, 84240, Note_on_c, 0, 69, 100
2, 84300, Note_on_c, 0, 73, 0
2, 84300, Note_on_c, 0, 69, 100
2, 84360, Note_on_c, 0, 69, 0
2, 84360, Note_on_c, 0, 69, 0
2, 84360, Note_on_c, 0, 67, 100
2, 84360, Note_on_c, 0, 71, 100
2, 84420, Note_on_c, 0, 71, 0
2, 84420, Note_on_c, 0, 72, 100
2, 84480, Note_on_c, 0, 72, 0
2, 84480, Note_on_c, 0, 74, 100
2, 84540, Note_on_c, 0, 67, 0
2, 84540, Note_on_c, 0, 66, 100
2, 84600, Note_on_c, 0, 66, 0
2, 84600, Note_on_c, 0, 67, 100
2, 84660, Note_on_c, 0, 67, 0
2, 84660, Note_on_c, 0, 69, 100
2, 84720, Note_on_c, 0, 69, 0
2, 84720, Note_on_c, 0, 70, 100
2, 84780, Note_on_c, 0, 74, 0
2, 84780, Note_on_c, 0, 74, 100
2, 84840, Note_on_c, 0, 74, 0
2, 84840, Note_on_c, 0, 70, 0
2, 84840, Note_on_c, 0, 69, 100
2, 84840, Note_on_c, 0, 76, 100
2, 84900, Note_on_c, 0, 76, 0
2, 84900, Note_on_c, 0, 77, 100
2, 84960, Note_on_c, 0, 77, 0
2, 84960, Note_on_c, 0, 69, 0
2, 84960, Note_on_c, 0, 67, 100
2, 84960, Note_on_c, 0, 79, 100
2, 85020, Note_on_c, 0, 79, 0
2, 85020, Note_on_c, 0, 71, 100
2, 85080, Note_on_c, 0, 71, 0
2, 85080, Note_on_c, 0, 73, 100
2, 85140, Note_on_c, 0, 73, 0
2, 85140, Note_on_c, 0, 74, 100
2, 85200, Note_on_c, 0, 74, 0
2, 85200, Note_on_c, 0, 76, 100
2, 85260, Note_on_c, 0, 67, 0
2, 85260, Note_on_c, 0, 64, 100
2, 85320, Note_on_c, 0, 64, 0
2, 85320, Note_on_c, 0, 76, 0
2, 85320, Note_on_c, 0, 74, 100
2, 85320, Note_on_c, 0, 65, 100
2, 85380, Note_on_c, 0, 65, 0
2, 85380, Note_on_c, 0, 67, 100
2, 85440, Note_on_c, 0, 67, 0
2, 85440, Note_on_c, 0, 69, 100
2, 85500, Note_on_c, 0, 74, 0
2, 85500, Note_on_c, 0, 73, 100
2, 85560, Note_on_c, 0, 73, 0
2, 85560, Note_on_c, 0, 72, 100
2, 85620, Note_on_c, 0, 69, 0
2, 85620, Note_on_c, 0, 67, 100
2, 85680, Note_on_c, 0, 67, 0
2, 85680, Note_on_c, 0, 66, 100
2, 85740, Note_on_c, 0, 66, 0
2, 85740, Note_on_c, 0, 65, 100
2, 85800, Note_on_c, 0, 65, 0
2, 85800, Note_on_c, 0, 72, 0
2, 85800, Note_on_c, 0, 65, 100
2, 85800, Note_on_c, 0, 71, 100
2, 85860, Note_on_c, 0, 71, 0
2, 85860, Note_on_c, 0, 70, 100
2, 85920, Note_on_c, 0, 70, 0
2, 85920, Note_on_c, 0, 69, 100
2, 85980, Note_on_c, 0, 69, 0
2, 85980, Note_on_c, 0, 68, 100
2, 86040, Note_on_c, 0, 68, 0
2, 86040, Note_on_c, 0, 69, 100
2, 86100, Note_on_c, 0, 69, 0
2, 86100, Note_on_c, 0, 71, 100
2, 86160, Note_on_c, 0, 71, 0
2, 86160, Note_on_c, 0, 72, 100
2, 86220, Note_on_c, 0, 65, 0
2, 86220, Note_on_c, 0, 69, 100
2, 86280, Note_on_c, 0, 69, 0
2, 86280, Note_on_c, 0, 72, 0
2, 86280, Note_on_c, 0, 73, 100
2, 86280, Note_on_c, 0, 67, 100
2, 86340, Note_on_c, 0, 67, 0
2, 86340, Note_on_c, 0, 65, 100
2, 86400, Note_on_c, 0, 65, 0
2, 86400, Note_on_c, 0, 67, 100
2, 86460, Note_on_c, 0, 67, 0
2, 86460, Note_on_c, 0, 64, 100
2, 86520, Note_on_c, 0, 64, 0
2, 86520, Note_on_c, 0, 73, 0
2, 86520, Note_on_c, 0, 74, 100
2, 86520, Note_on_c, 0, 65, 100
2, 86580, Note_on_c, 0, 65, 0
2, 86580, Note_on_c, 0, 74, 0
2, 86580, Note_on_c, 0, 76, 100
2, 86580, Note_on_c, 0, 67, 100
2, 86640, Note_on_c, 0, 67, 0
2, 86640, Note_on_c, 0, 76, 0
2, 86640, Note_on_c, 0, 69, 100
2, 86640, Note_on_c, 0, 77, 100
2, 86760, Note_on_c, 0, 77, 0
2, 86760, Note_on_c, 0, 76, 100
2, 86940, Note_on_c, 0, 76, 0
2, 86940, Note_on_c, 0, 69, 0
2, 86940, Note_on_c, 0, 61, 100
2, 86940, Note_on_c, 0, 69, 100
2, 87000, Note_on_c, 0, 69, 0
2, 87000, Note_on_c, 0, 61, 0
2, 87000, Note_on_c, 0, 62, 100
2, 87000, Note_on_c, 0, 71, 100
2, 87060, Note_on_c, 0, 71, 0
2, 87060, Note_on_c, 0, 62, 0
2, 87060, Note_on_c, 0, 64, 100
2, 87060, Note_on_c, 0, 73, 100
2, 87120, Note_on_c, 0, 73, 0
2, 87120, Note_on_c, 0, 64, 0
2, 87120, Note_on_c, 0, 74, 100
2, 87120, Note_on_c, 0, 65, 100
2, 87180, Note_on_c, 0, 65, 0
2, 87180, Note_on_c, 0, 67, 100
2, 87240, Note_on_c, 0, 67, 0
2, 87240, Note_on_c, 0, 69, 100
2, 87300, Note_on_c, 0, 69, 0
2, 87300, Note_on_c, 0, 74, 0
2, 87300, Note_on_c, 0, 76, 100
2, 87300, Note_on_c, 0, 70, 100
2, 87360, Note_on_c, 0, 70, 0
2, 87360, Note_on_c, 0, 76, 0
2, 87360, Note_on_c, 0, 64, 100
2, 87360, Note_on_c, 0, 73, 100
2, 87480, Note_on_c, 0, 73, 0
2, 87480, Note_on_c, 0, 64, 0
2, 87480, Note_on_c, 0, 77, 100
2, 87480, Note_on_c, 0, 69, 100
2, 87600, Note_on_c, 0, 77, 0
2, 87600, Note_on_c, 0, 74, 100
2, 87720, Note_on_c, 0, 69, 0
2, 87720, Note_on_c, 0, 68, 100
2, 87780, Note_on_c, 0, 68, 0
2, 87780, Note_on_c, 0, 74, 0
2, 87780, Note_on_c, 0, 67, 100
2, 87780, Note_on_c, 0, 76, 100
2, 87840, Note_on_c, 0, 76, 0
2, 87840, Note_on_c, 0, 69, 100
2, 87900, Note_on_c, 0, 67, 0
2, 87900, Note_on_c, 0, 66, 100
2, 87960, Note_on_c, 0, 66, 0
2, 87960, Note_on_c, 0, 69, 0
2, 87960, Note_on_c, 0, 70, 100
2, 87960, Note_on_c, 0, 74, 100
2, 88080, Note_on_c, 0, 70, 0
2, 88080, Note_on_c, 0, 67, 100
2, 88200, Note_on_c, 0, 74, 0
2, 88200, Note_on_c, 0, 73, 100
2, 88260, Note_on_c, 0, 73, 0
2, 88260, Note_on_c, 0, 67, 0
2, 88260, Note_on_c, 0, 69, 100
2, 88260, Note_on_c, 0, 73, 100
2, 88320, Note_on_c, 0, 69, 0
2, 88320, Note_on_c, 0, 62, 100
2, 88380, Note_on_c, 0, 73, 0
2, 88380, Note_on_c, 0, 71, 100
2, 88440, Note_on_c, 0, 71, 0
2, 88440, Note_on_c, 0, 62, 0
2, 88440, Note_on_c, 0, 75, 100
2, 88440, Note_on_c, 0, 67, 100
2, 88560, Note_on_c, 0, 75, 0
2, 88560, Note_on_c, 0, 72, 100
2, 88680, Note_on_c, 0, 67, 0
2, 88680, Note_on_c, 0, 66, 100
2, 88740, Note_on_c, 0, 66, 0
2, 88740, Note_on_c, 0, 72, 0
2, 88740, Note_on_c, 0, 65, 100
2, 88740, Note_on_c, 0, 74, 100
2, 88800, Note_on_c, 0, 74, 0
2, 88800, Note_on_c, 0, 67, 100
2, 88860, Note_on_c, 0, 65, 0
2, 88860, Note_on_c, 0, 64, 100
2, 88920, Note_on_c, 0, 64, 0
2, 88920, Note_on_c, 0, 67, 0
2, 88920, Note_on_c, 0, 68, 100
2, 88920, Note_on_c, 0, 72, 100
2, 89040, Note_on_c, 0, 68, 0
2, 89040, Note_on_c, 0, 65, 100
2, 89160, Note_on_c, 0, 72, 0
2, 89160, Note_on_c, 0, 71, 100
2, 89220, Note_on_c, 0, 71, 0
2, 89220, Note_on_c, 0, 65, 0
2, 89220, Note_on_c, 0, 70, 100
2, 89220, Note_on_c, 0, 67, 100
2, 89280, Note_on_c, 0, 67, 0
2, 89280, Note_on_c, 0, 60, 100
2, 89340, Note_on_c, 0, 70, 0
2, 89400, Note_on_c, 0, 60, 0
2, 89400, Note_on_c, 0, 72, 100
2, 89400, Note_on_c, 0, 81, 100
2, 89640, Note_on_c, 0, 81, 0
2, 89640, Note_on_c, 0, 72, 0
2, 89640, Note_on_c, 0, 74, 100
2, 89640, Note_on_c, 0, 71, 100
2, 89700, Note_on_c, 0, 71, 0
2, 89700, Note_on_c, 0, 70, 100
2, 89760, Note_on_c, 0, 70, 0
2, 89760, Note_on_c, 0, 69, 100
2, 89820, Note_on_c, 0, 69, 0
2, 89820, Note_on_c, 0, 74, 0
2, 89820, Note_on_c, 0, 76, 100
2, 89820, Note_on_c, 0, 68, 100
2, 89880, Note_on_c, 0, 68, 0
2, 89880, Note_on_c, 0, 76, 0
2, 89880, Note_on_c, 0, 77, 100
2, 89880, Note_on_c, 0, 69, 100
2, 89940, Note_on_c, 0, 69, 0
2, 89940, Note_on_c, 0, 71, 100
2, 90000, Note_on_c, 0, 71, 0
2, 90000, Note_on_c, 0, 72, 100
2, 90060, Note_on_c, 0, 77, 0
2, 90060, Note_on_c, 0, 79, 100
2, 90120, Note_on_c, 0, 79, 0
2, 90120, Note_on_c, 0, 72, 0
2, 90120, Note_on_c, 0, 73, 100
2, 90120, Note_on_c, 0, 81, 100
2, 90300, Note_on_c, 0, 81, 0
2, 90300, Note_on_c, 0, 79, 100
2, 90360, Note_on_c, 0, 79, 0
2, 90360, Note_on_c, 0, 73, 0
2, 90360, Note_on_c, 0, 82, 100
2, 90360, Note_on_c, 0, 74, 100
2, 90420, Note_on_c, 0, 74, 0
2, 90420, Note_on_c, 0, 76, 100
2, 90480, Note_on_c, 0, 76, 0
2, 90480, Note_on_c, 0, 77, 100
2, 90540, Note_on_c, 0, 77, 0
2, 90540, Note_on_c, 0, 74, 100
2, 90600, Note_on_c, 0, 74, 0
2, 90600, Note_on_c, 0, 82, 0
2, 90600, Note_on_c, 0, 76, 100
2, 90600, Note_on_c, 0, 81, 100
2, 90660, Note_on_c, 0, 81, 0
2, 90660, Note_on_c, 0, 79, 100
2, 90720, Note_on_c, 0, 79, 0
2, 90720, Note_on_c, 0, 77, 100
2, 90780, Note_on_c, 0, 76, 0
2, 90780, Note_on_c, 0, 69, 100
2, 90840, Note_on_c, 0, 69, 0
2, 90840, Note_on_c, 0, 71, 100
2, 90900, Note_on_c, 0, 71, 0
2, 90900, Note_on_c, 0, 73, 100
2, 90960, Note_on_c, 0, 73, 0
2, 90960, Note_on_c, 0, 74, 100
2, 91020, Note_on_c, 0, 77, 0
2, 91020, Note_on_c, 0, 76, 100
2, 91080, Note_on_c, 0, 76, 0
2, 91080, Note_on_c, 0, 78, 100
2, 91140, Note_on_c, 0, 78, 0
2, 91140, Note_on_c, 0, 79, 100
2, 91200, Note_on_c, 0, 79, 0
2, 91200, Note_on_c, 0, 81, 100
2, 91260, Note_on_c, 0, 74, 0
2, 91260, Note_on_c, 0, 72, 100
2, 91320, Note_on_c, 0, 72, 0
2, 91320, Note_on_c, 0, 81, 0
2, 91320, Note_on_c, 0, 74, 100
2, 91320, Note_on_c, 0, 70, 100
2, 91380, Note_on_c, 0, 70, 0
2, 91380, Note_on_c, 0, 69, 100
2, 91440, Note_on_c, 0, 69, 0
2, 91440, Note_on_c, 0, 70, 100
2, 91500, Note_on_c, 0, 74, 0
2, 91500, Note_on_c, 0, 79, 100
2, 91560, Note_on_c, 0, 79, 0
2, 91560, Note_on_c, 0, 73, 100
2, 91620, Note_on_c, 0, 73, 0
2, 91620, Note_on_c, 0, 74, 100
2, 91680, Note_on_c, 0, 74, 0
2, 91680, Note_on_c, 0, 76, 100
2, 91740, Note_on_c, 0, 76, 0
2, 91740, Note_on_c, 0, 77, 100
2, 91800, Note_on_c, 0, 77, 0
2, 91800, Note_on_c, 0, 70, 0
2, 91800, Note_on_c, 0, 69, 100
2, 91800, Note_on_c, 0, 79, 100
2, 91860, Note_on_c, 0, 79, 0
2, 91860, Note_on_c, 0, 76, 100
2, 91920, Note_on_c, 0, 76, 0
2, 91920, Note_on_c, 0, 77, 100
2, 91980, Note_on_c, 0, 69, 0
2, 91980, Note_on_c, 0, 74, 100
2, 92040, Note_on_c, 0, 74, 0
2, 92040, Note_on_c, 0, 68, 100
2, 92100, Note_on_c, 0, 68, 0
2, 92100, Note_on_c, 0, 69, 100
2, 92160, Note_on_c, 0, 69, 0
2, 92160, Note_on_c, 0, 71, 100
2, 92220, Note_on_c, 0, 77, 0
2, 92220, Note_on_c, 0, 77, 100
2, 92280, Note_on_c, 0, 77, 0
2, 92280, Note_on_c, 0, 76, 100
2, 92340, Note_on_c, 0, 76, 0
2, 92340, Note_on_c, 0, 74, 100
2, 92400, Note_on_c, 0, 74, 0
2, 92400, Note_on_c, 0, 72, 100
2, 92460, Note_on_c, 0, 71, 0
2, 92460, Note_on_c, 0, 69, 100
2, 92490, Note_on_c, 0, 69, 0
2, 92490, Note_on_c, 0, 67, 100
2, 92520, Note_on_c, 0, 67, 0
2, 92520, Note_on_c, 0, 66, 100
2, 92580, Note_on_c, 0, 66, 0
2, 92580, Note_on_c, 0, 72, 0
2, 92580, Note_on_c, 0, 76, 100
2, 92580, Note_on_c, 0, 65, 100
2, 92640, Note_on_c, 0, 65, 0
2, 92640, Note_on_c, 0, 76, 0
2, 92640, Note_on_c, 0, 76, 100
2, 92640, Note_on_c, 0, 64, 100
2, 92700, Note_on_c, 0, 64, 0
2, 92700, Note_on_c, 0, 63, 100
2, 92760, Note_on_c, 0, 63, 0
2, 92760, Note_on_c, 0, 76, 0
2, 92760, Note_on_c, 0, 60, 100
2, 92760, Note_on_c, 0, 64, 100
2, 92820, Note_on_c, 0, 64, 0
2, 92820, Note_on_c, 0, 65, 100
2, 92880, Note_on_c, 0, 65, 0
2, 92880, Note_on_c, 0, 67, 100
2, 92940, Note_on_c, 0, 60, 0
2, 92940, Note_on_c, 0, 62, 100
2, 93000, Note_on_c, 0, 62, 0
2, 93000, Note_on_c, 0, 67, 0
2, 93000, Note_on_c, 0, 68, 100
2, 93000, Note_on_c, 0, 64, 100
2, 93180, Note_on_c, 0, 64, 0
2, 93180, Note_on_c, 0, 62, 100
2, 93240, Note_on_c, 0, 62, 0
2, 93240, Note_on_c, 0, 68, 0
2, 93240, Note_on_c, 0, 65, 100
2, 93240, Note_on_c, 0, 69, 100
2, 93300, Note_on_c, 0, 69, 0
2, 93300, Note_on_c, 0, 71, 100
2, 93360, Note_on_c, 0, 71, 0
2, 93360, Note_on_c, 0, 72, 100
2, 93420, Note_on_c, 0, 72, 0
2, 93420, Note_on_c, 0, 69, 100
2, 93480, Note_on_c, 0, 69, 0
2, 93480, Note_on_c, 0, 65, 0
2, 93480, Note_on_c, 0, 71, 100
2, 93480, Note_on_c, 0, 64, 100
2, 93540, Note_on_c, 0, 64, 0
2, 93540, Note_on_c, 0, 62, 100
2, 93600, Note_on_c, 0, 62, 0
2, 93600, Note_on_c, 0, 60, 100
2, 93660, Note_on_c, 0, 71, 0
2, 93660, Note_on_c, 0, 64, 100
2, 93720, Note_on_c, 0, 64, 0
2, 93720, Note_on_c, 0, 66, 100
2, 93780, Note_on_c, 0, 66, 0
2, 93780, Note_on_c, 0, 68, 100
2, 93840, Note_on_c, 0, 68, 0
2, 93840, Note_on_c, 0, 69, 100
2, 93900, Note_on_c, 0, 60, 0
2, 93900, Note_on_c, 0, 59, 100
2, 93960, Note_on_c, 0, 59, 0
2, 93960, Note_on_c, 0, 61, 100
2, 94020, Note_on_c, 0, 61, 0
2, 94020, Note_on_c, 0, 62, 100
2, 94080, Note_on_c, 0, 62, 0
2, 94080, Note_on_c, 0, 64, 100
2, 94140, Note_on_c, 0, 69, 0
2, 94140, Note_on_c, 0, 70, 100
2, 94200, Note_on_c, 0, 70, 0
2, 94200, Note_on_c, 0, 69, 100
2, 94260, Note_on_c, 0, 69, 0
2, 94260, Note_on_c, 0, 67, 100
2, 94320, Note_on_c, 0, 67, 0
2, 94320, Note_on_c, 0, 66, 100
2, 94380, Note_on_c, 0, 64, 0
2, 94380, Note_on_c, 0, 57, 100
2, 94440, Note_on_c, 0, 57, 0
2, 94440, Note_on_c, 0, 66, 0
2, 94440, Note_on_c, 0, 65, 100
2, 94440, Note_on_c, 0, 59, 100
2, 94500, Note_on_c, 0, 59, 0
2, 94500, Note_on_c, 0, 60, 100
2, 94560, Note_on_c, 0, 60, 0
2, 94560, Note_on_c, 0, 62, 100
2, 94620, Note_on_c, 0, 65, 0
2, 94620, Note_on_c, 0, 69, 100
2, 94680, Note_on_c, 0, 69, 0
2, 94680, Note_on_c, 0, 67, 100
2, 94740, Note_on_c, 0, 67, 0
2, 94740, Note_on_c, 0, 65, 100
2, 94800, Note_on_c, 0, 65, 0
2, 94800, Note_on_c, 0, 64, 100
2, 94860, Note_on_c, 0, 62, 0
2, 94860, Note_on_c, 0, 55, 100
2, 94920, Note_on_c, 0, 55, 0
2, 94920, Note_on_c, 0, 64, 0
2, 94920, Note_on_c, 0, 63, 100
2, 94920, Note_on_c, 0, 57, 100
2, 94980, Note_on_c, 0, 57, 0
2, 94980, Note_on_c, 0, 58, 100
2, 95040, Note_on_c, 0, 58, 0
2, 95040, Note_on_c, 0, 60, 100
2, 95100, Note_on_c, 0, 60, 0
2, 95100, Note_on_c, 0, 63, 0
2, 95100, Note_on_c, 0, 67, 100
2, 95100, Note_on_c, 0, 58, 100
2, 95160, Note_on_c, 0, 58, 0
2, 95160, Note_on_c, 0, 67, 0
2, 95160, Note_on_c, 0, 60, 100
2, 95160, Note_on_c, 0, 65, 100
2, 95220, Note_on_c, 0, 65, 0
2, 95220, Note_on_c, 0, 63, 100
2, 95280, Note_on_c, 0, 63, 0
2, 95280, Note_on_c, 0, 62, 100
2, 95400, Note_on_c, 0, 60, 0
2, 95460, Note_on_c, 0, 62, 0
2, 95460, Note_on_c, 0, 64, 100
2, 95520, Note_on_c, 0, 64, 0
2, 95520, Note_on_c, 0, 65, 100
2, 95580, Note_on_c, 0, 65, 0
2, 95580, Note_on_c, 0, 64, 100
2, 95640, Note_on_c, 0, 64, 0
2, 95640, Note_on_c, 0, 65, 100
2, 95700, Note_on_c, 0, 65, 0
2, 95700, Note_on_c, 0, 67, 100
2, 95760, Note_on_c, 0, 67, 0
2, 95760, Note_on_c, 0, 69, 100
2, 95820, Note_on_c, 0, 69, 0
2, 95820, Note_on_c, 0, 67, 100
2, 95880, Note_on_c, 0, 67, 0
2, 95880, Note_on_c, 0, 69, 100
2, 96060, Note_on_c, 0, 69, 0
2, 96060, Note_on_c, 0, 67, 100
2, 96120, Note_on_c, 0, 67, 0
2, 96120, Note_on_c, 0, 62, 100
2, 96120, Note_on_c, 0, 70, 100
2, 96180, Note_on_c, 0, 70, 0
2, 96180, Note_on_c, 0, 69, 100
2, 96240, Note_on_c, 0, 69, 0
2, 96240, Note_on_c, 0, 67, 100
2, 96300, Note_on_c, 0, 67, 0
2, 96300, Note_on_c, 0, 65, 100
2, 96360, Note_on_c, 0, 65, 0
2, 96360, Note_on_c, 0, 62, 0
2, 96360, Note_on_c, 0, 67, 100
2, 96360, Note_on_c, 0, 60, 100
2, 96420, Note_on_c, 0, 60, 0
2, 96420, Note_on_c, 0, 58, 100
2, 96480, Note_on_c, 0, 58, 0
2, 96540, Note_on_c, 0, 67, 0
2, 96540, Note_on_c, 0, 60, 100
2, 96600, Note_on_c, 0, 60, 0
2, 96600, Note_on_c, 0, 62, 100
2, 96660, Note_on_c, 0, 62, 0
2, 96660, Note_on_c, 0, 64, 100
2, 96720, Note_on_c, 0, 64, 0
2, 96720, Note_on_c, 0, 65, 100
2, 96780, Note_on_c, 0, 65, 0
2, 96780, Note_on_c, 0, 64, 100
2, 96840, Note_on_c, 0, 64, 0
2, 96840, Note_on_c, 0, 65, 100
2, 97020, Note_on_c, 0, 65, 0
2, 97020, Note_on_c, 0, 64, 100
2, 97050, Note_on_c, 0, 64, 0
2, 97050, Note_on_c, 0, 62, 100
2, 97080, Note_on_c, 0, 62, 0
2, 97080, Note_on_c, 0, 60, 100
2, 97080, Note_on_c, 0, 64, 100
2, 97200, Note_on_c, 0, 64, 0
2, 97200, Note_on_c, 0, 65, 100
2, 97320, Note_on_c, 0, 60, 0
2, 97320, Note_on_c, 0, 59, 100
2, 97380, Note_on_c, 0, 59, 0
2, 97380, Note_on_c, 0, 65, 0
2, 97380, Note_on_c, 0, 58, 100
2, 97380, Note_on_c, 0, 67, 100
2, 97440, Note_on_c, 0, 67, 0
2, 97440, Note_on_c, 0, 60, 100
2, 97500, Note_on_c, 0, 58, 0
2, 97500, Note_on_c, 0, 57, 100
2, 97560, Note_on_c, 0, 57, 0
2, 97560, Note_on_c, 0, 60, 0
2, 97560, Note_on_c, 0, 69, 100
2, 97560, Note_on_c, 0, 65, 100
2, 97680, Note_on_c, 0, 65, 0
2, 97680, Note_on_c, 0, 62, 100
2, 97800, Note_on_c, 0, 69, 0
2, 97800, Note_on_c, 0, 68, 100
2, 97860, Note_on_c, 0, 68, 0
2, 97860, Note_on_c, 0, 62, 0
2, 97860, Note_on_c, 0, 67, 100
2, 97860, Note_on_c, 0, 64, 100
2, 97920, Note_on_c, 0, 64, 0
2, 97920, Note_on_c, 0, 57, 100
2, 97980, Note_on_c, 0, 67, 0
2, 97980, Note_on_c, 0, 65, 100
2, 98010, Note_on_c, 0, 65, 0
2, 98010, Note_on_c, 0, 64, 100
2, 98040, Note_on_c, 0, 64, 0
2, 98040, Note_on_c, 0, 57, 0
2, 98040, Note_on_c, 0, 62, 100
2, 98040, Note_on_c, 0, 65, 100
2, 98160, Note_on_c, 0, 65, 0
2, 98160, Note_on_c, 0, 67, 100
2, 98280, Note_on_c, 0, 62, 0
2, 98280, Note_on_c, 0, 61, 100
2, 98340, Note_on_c, 0, 61, 0
2, 98340, Note_on_c, 0, 67, 0
2, 98340, Note_on_c, 0, 60, 100
2, 98340, Note_on_c, 0, 69, 100
2, 98400, Note_on_c, 0, 69, 0
2, 98400, Note_on_c, 0, 62, 100
2, 98460, Note_on_c, 0, 60, 0
2, 98460, Note_on_c, 0, 59, 100
2, 98520, Note_on_c, 0, 59, 0
2, 98520, Note_on_c, 0, 62, 0
2, 98520, Note_on_c, 0, 71, 100
2, 98520, Note_on_c, 0, 67, 100
2, 98640, Note_on_c, 0, 67, 0
2, 98640, Note_on_c, 0, 64, 100
2, 98760, Note_on_c, 0, 71, 0
2, 98760, Note_on_c, 0, 70, 100
2, 98820, Note_on_c, 0, 70, 0
2, 98820, Note_on_c, 0, 64, 0
2, 98820, Note_on_c, 0, 69, 100
2, 98820, Note_on_c, 0, 66, 100
2, 98880, Note_on_c, 0, 66, 0
2, 98880, Note_on_c, 0, 76, 100
2, 98940, Note_on_c, 0, 69, 0
2, 98940, Note_on_c, 0, 68, 100
2, 99000, Note_on_c, 0, 68, 0
2, 99000, Note_on_c, 0, 67, 100
2, 99120, Note_on_c, 0, 76, 0
2, 99120, Note_on_c, 0, 69, 100
2, 99240, Note_on_c, 0, 67, 0
2, 99240, Note_on_c, 0, 66, 100
2, 99300, Note_on_c, 0, 66, 0
2, 99300, Note_on_c, 0, 65, 100
2, 99360, Note_on_c, 0, 65, 0
2, 99360, Note_on_c, 0, 69, 0
2, 99360, Note_on_c, 0, 64, 100
2, 99360, Note_on_c, 0, 72, 100
2, 99420, Note_on_c, 0, 64, 0
2, 99420, Note_on_c, 0, 63, 100
2, 99480, Note_on_c, 0, 63, 0
2, 99480, Note_on_c, 0, 64, 100
2, 99540, Note_on_c, 0, 64, 0
2, 99540, Note_on_c, 0, 66, 100
2, 99600, Note_on_c, 0, 66, 0
2, 99600, Note_on_c, 0, 72, 0
2, 99600, Note_on_c, 0, 67, 100
2, 99600, Note_on_c, 0, 76, 100
2, 99720, Note_on_c, 0, 67, 0
2, 99720, Note_on_c, 0, 68, 100
2, 99840, Note_on_c, 0, 76, 0
2, 99840, Note_on_c, 0, 77, 100
2, 99960, Note_on_c, 0, 68, 0
2, 99960, Note_on_c, 0, 69, 100
2, 100020, Note_on_c, 0, 69, 0
2, 100020, Note_on_c, 0, 71, 100
2, 100080, Note_on_c, 0, 71, 0
2, 100080, Note_on_c, 0, 77, 0
2, 100080, Note_on_c, 0, 72, 100
2, 100080, Note_on_c, 0, 76, 100
2, 100200, Note_on_c, 0, 76, 0
2, 100200, Note_on_c, 0, 72, 0
2, 100200, Note_on_c, 0, 70, 100
2, 100200, Note_on_c, 0, 74, 100
2, 100320, Note_on_c, 0, 74, 0
2, 100380, Note_on_c, 0, 70, 0
2, 100380, Note_on_c, 0, 64, 100
2, 100440, Note_on_c, 0, 64, 0
2, 100440, Note_on_c, 0, 66, 100
2, 100500, Note_on_c, 0, 66, 0
2, 100500, Note_on_c, 0, 68, 100
2, 100560, Note_on_c, 0, 68, 0
2, 100560, Note_on_c, 0, 69, 100
2, 100620, Note_on_c, 0, 69, 0
2, 100620, Note_on_c, 0, 69, 100
2, 100620, Note_on_c, 0, 67, 100
2, 100680, Note_on_c, 0, 67, 0
2, 100680, Note_on_c, 0, 69, 0
2, 100680, Note_on_c, 0, 71, 100
2, 100680, Note_on_c, 0, 65, 100
2, 100740, Note_on_c, 0, 65, 0
2, 100740, Note_on_c, 0, 71, 0
2, 100740, Note_on_c, 0, 73, 100
2, 100740, Note_on_c, 0, 64, 100
2, 100800, Note_on_c, 0, 64, 0
2, 100800, Note_on_c, 0, 73, 0
2, 100800, Note_on_c, 0, 65, 100
2, 100800, Note_on_c, 0, 74, 100
2, 100860, Note_on_c, 0, 74, 0
2, 100860, Note_on_c, 0, 65, 0
2, 100860, Note_on_c, 0, 66, 100
2, 100860, Note_on_c, 0, 72, 100
2, 100920, Note_on_c, 0, 72, 0
2, 100920, Note_on_c, 0, 66, 0
2, 100920, Note_on_c, 0, 67, 100
2, 100920, Note_on_c, 0, 71, 100
2, 100980, Note_on_c, 0, 71, 0
2, 100980, Note_on_c, 0, 67, 0
2, 100980, Note_on_c, 0, 69, 100
2, 101040, Note_on_c, 0, 70, 100
2, 101100, Note_on_c, 0, 69, 0
2, 101100, Note_on_c, 0, 67, 100
2, 101160, Note_on_c, 0, 67, 0
2, 101160, Note_on_c, 0, 70, 0
2, 101160, Note_on_c, 0, 72, 100
2, 101160, Note_on_c, 0, 65, 100
2, 101220, Note_on_c, 0, 65, 0
2, 101220, Note_on_c, 0, 64, 100
2, 101280, Note_on_c, 0, 64, 0
2, 101280, Note_on_c, 0, 62, 100
2, 101340, Note_on_c, 0, 62, 0
2, 101340, Note_on_c, 0, 72, 0
2, 101340, Note_on_c, 0, 71, 100
2, 101340, Note_on_c, 0, 67, 100
2, 101400, Note_on_c, 0, 67, 0
2, 101400, Note_on_c, 0, 71, 0
2, 101400, Note_on_c, 0, 72, 100
2, 101400, Note_on_c, 0, 69, 100
2, 101460, Note_on_c, 0, 69, 0
2, 101460, Note_on_c, 0, 72, 0
2, 101460, Note_on_c, 0, 74, 100
2, 101460, Note_on_c, 0, 71, 100
2, 101520, Note_on_c, 0, 71, 0
2, 101520, Note_on_c, 0, 74, 0
2, 101520, Note_on_c, 0, 76, 100
2, 101520, Note_on_c, 0, 72, 100
2, 101580, Note_on_c, 0, 72, 0
2, 101580, Note_on_c, 0, 76, 0
2, 101580, Note_on_c, 0, 74, 100
2, 101580, Note_on_c, 0, 64, 100
2, 101640, Note_on_c, 0, 64, 0
2, 101640, Note_on_c, 0, 74, 0
2, 101640, Note_on_c, 0, 72, 100
2, 101640, Note_on_c, 0, 65, 100
2, 101700, Note_on_c, 0, 65, 0
2, 101700, Note_on_c, 0, 72, 0
2, 101700, Note_on_c, 0, 67, 100
2, 101700, Note_on_c, 0, 70, 100
2, 101760, Note_on_c, 0, 70, 0
2, 101760, Note_on_c, 0, 69, 100
2, 101820, Note_on_c, 0, 67, 0
2, 101820, Note_on_c, 0, 65, 100
2, 101880, Note_on_c, 0, 65, 0
2, 101880, Note_on_c, 0, 69, 0
2, 101880, Note_on_c, 0, 70, 100
2, 101880, Note_on_c, 0, 63, 100
2, 101940, Note_on_c, 0, 63, 0
2, 101940, Note_on_c, 0, 62, 100
2, 102000, Note_on_c, 0, 62, 0
2, 102000, Note_on_c, 0, 60, 100
2, 102060, Note_on_c, 0, 60, 0
2, 102060, Note_on_c, 0, 70, 0
2, 102060, Note_on_c, 0, 69, 100
2, 102060, Note_on_c, 0, 65, 100
2, 102120, Note_on_c, 0, 65, 0
2, 102120, Note_on_c, 0, 69, 0
2, 102120, Note_on_c, 0, 70, 100
2, 102120, Note_on_c, 0, 67, 100
2, 102180, Note_on_c, 0, 67, 0
2, 102180, Note_on_c, 0, 70, 0
2, 102180, Note_on_c, 0, 72, 100
2, 102180, Note_on_c, 0, 69, 100
2, 102240, Note_on_c, 0, 69, 0
2, 102240, Note_on_c, 0, 72, 0
2, 102240, Note_on_c, 0, 70, 100
2, 102240, Note_on_c, 0, 74, 100
2, 102300, Note_on_c, 0, 74, 0
2, 102300, Note_on_c, 0, 70, 0
2, 102300, Note_on_c, 0, 62, 100
2, 102300, Note_on_c, 0, 72, 100
2, 102360, Note_on_c, 0, 72, 0
2, 102360, Note_on_c, 0, 62, 0
2, 102360, Note_on_c, 0, 63, 100
2, 102360, Note_on_c, 0, 70, 100
2, 102420, Note_on_c, 0, 70, 0
2, 102420, Note_on_c, 0, 63, 0
2, 102420, Note_on_c, 0, 65, 100
2, 102420, Note_on_c, 0, 68, 100
2, 102480, Note_on_c, 0, 68, 0
2, 102480, Note_on_c, 0, 65, 0
2, 102480, Note_on_c, 0, 67, 100
2, 102480, Note_on_c, 0, 58, 100
2, 102540, Note_on_c, 0, 58, 0
2, 102540, Note_on_c, 0, 59, 100
2, 102600, Note_on_c, 0, 59, 0
2, 102600, Note_on_c, 0, 60, 100
2, 102660, Note_on_c, 0, 60, 0
2, 102660, Note_on_c, 0, 62, 100
2, 102720, Note_on_c, 0, 62, 0
2, 102720, Note_on_c, 0, 63, 100
2, 102780, Note_on_c, 0, 63, 0
2, 102780, Note_on_c, 0, 67, 0
2, 102780, Note_on_c, 0, 62, 100
2, 102780, Note_on_c, 0, 66, 100
2, 102840, Note_on_c, 0, 66, 0
2, 102840, Note_on_c, 0, 62, 0
2, 102840, Note_on_c, 0, 67, 100
2, 102840, Note_on_c, 0, 60, 100
2, 102900, Note_on_c, 0, 60, 0
2, 102900, Note_on_c, 0, 67, 0
2, 102900, Note_on_c, 0, 69, 100
2, 102900, Note_on_c, 0, 64, 100
2, 102960, Note_on_c, 0, 64, 0
2, 102960, Note_on_c, 0, 69, 0
2, 102960, Note_on_c, 0, 62, 100
2, 102960, Note_on_c, 0, 70, 100
2, 103020, Note_on_c, 0, 70, 0
2, 103020, Note_on_c, 0, 62, 0
2, 103020, Note_on_c, 0, 66, 100
2, 103020, Note_on_c, 0, 69, 100
2, 103080, Note_on_c, 0, 69, 0
2, 103080, Note_on_c, 0, 66, 0
2, 103080, Note_on_c, 0, 67, 100
2, 103080, Note_on_c, 0, 70, 100
2, 103140, Note_on_c, 0, 70, 0
2, 103140, Note_on_c, 0, 72, 100
2, 103200, Note_on_c, 0, 72, 0
2, 103200, Note_on_c, 0, 74, 100
2, 103260, Note_on_c, 0, 74, 0
2, 103260, Note_on_c, 0, 67, 0
2, 103260, Note_on_c, 0, 73, 100
2, 103260, Note_on_c, 0, 69, 100
2, 103320, Note_on_c, 0, 69, 0
2, 103320, Note_on_c, 0, 73, 0
2, 103320, Note_on_c, 0, 74, 100
2, 103320, Note_on_c, 0, 70, 100
2, 103380, Note_on_c, 0, 74, 0
2, 103380, Note_on_c, 0, 76, 100
2, 103440, Note_on_c, 0, 76, 0
2, 103440, Note_on_c, 0, 77, 100
2, 103500, Note_on_c, 0, 70, 0
2, 103500, Note_on_c, 0, 74, 100
2, 103560, Note_on_c, 0, 74, 0
2, 103560, Note_on_c, 0, 77, 0
2, 103560, Note_on_c, 0, 73, 100
2, 103560, Note_on_c, 0, 78, 100
2, 103620, Note_on_c, 0, 73, 0
2, 103620, Note_on_c, 0, 70, 100
2, 103680, Note_on_c, 0, 70, 0
2, 103680, Note_on_c, 0, 72, 100
2, 103740, Note_on_c, 0, 72, 0
2, 103740, Note_on_c, 0, 69, 100
2, 103800, Note_on_c, 0, 69, 0
2, 103800, Note_on_c, 0, 78, 0
2, 103800, Note_on_c, 0, 79, 100
2, 103800, Note_on_c, 0, 70, 100
2, 103860, Note_on_c, 0, 70, 0
2, 103860, Note_on_c, 0, 79, 0
2, 103860, Note_on_c, 0, 81, 100
2, 103860, Note_on_c, 0, 72, 100
2, 103920, Note_on_c, 0, 72, 0
2, 103920, Note_on_c, 0, 81, 0
2, 103920, Note_on_c, 0, 74, 100
2, 103920, Note_on_c, 0, 82, 100
2, 104040, Note_on_c, 0, 82, 0
2, 104040, Note_on_c, 0, 81, 100
2, 104220, Note_on_c, 0, 81, 0
2, 104220, Note_on_c, 0, 74, 100
2, 104280, Note_on_c, 0, 74, 0
2, 104280, Note_on_c, 0, 76, 100
2, 104340, Note_on_c, 0, 76, 0
2, 104340, Note_on_c, 0, 78, 100
2, 104400, Note_on_c, 0, 78, 0
2, 104400, Note_on_c, 0, 79, 100
2, 104460, Note_on_c, 0, 74, 0
2, 104460, Note_on_c, 0, 73, 100
2, 104520, Note_on_c, 0, 73, 0
2, 104520, Note_on_c, 0, 74, 100
2, 104580, Note_on_c, 0, 74, 0
2, 104580, Note_on_c, 0, 76, 100
2, 104640, Note_on_c, 0, 76, 0
2, 104640, Note_on_c, 0, 69, 100
2, 104700, Note_on_c, 0, 79, 0
2, 104700, Note_on_c, 0, 78, 100
2, 104760, Note_on_c, 0, 78, 0
2, 104760, Note_on_c, 0, 79, 100
2, 104820, Note_on_c, 0, 79, 0
2, 104820, Note_on_c, 0, 81, 100
2, 104880, Note_on_c, 0, 69, 0
2, 104880, Note_on_c, 0, 62, 100
2, 104940, Note_on_c, 0, 81, 0
2, 104940, Note_on_c, 0, 77, 100
2, 105000, Note_on_c, 0, 77, 0
2, 105000, Note_on_c, 0, 79, 100
2, 105060, Note_on_c, 0, 62, 0
2, 105060, Note_on_c, 0, 64, 100
2, 105120, Note_on_c, 0, 64, 0
2, 105120, Note_on_c, 0, 79, 0
2, 105120, Note_on_c, 0, 65, 100
2, 105300, Note_on_c, 0, 65, 0
2, 105300, Note_on_c, 0, 67, 100
2, 105360, Note_on_c, 0, 67, 0
2, 105360, Note_on_c, 0, 69, 100
2, 105540, Note_on_c, 0, 69, 0
2, 105540, Note_on_c, 0, 67, 100
2, 105600, Note_on_c, 0, 67, 0
2, 105600, Note_on_c, 0, 70, 100
2, 105720, Note_on_c, 0, 62, 100
2, 105780, Note_on_c, 0, 62, 0
2, 105780, Note_on_c, 0, 64, 100
2, 105840, Note_on_c, 0, 64, 0
2, 105840, Note_on_c, 0, 65, 100
2, 105900, Note_on_c, 0, 70, 0
2, 105900, Note_on_c, 0, 69, 100
2, 105960, Note_on_c, 0, 65, 0
2, 105960, Note_on_c, 0, 64, 100
2, 106020, Note_on_c, 0, 69, 0
2, 106020, Note_on_c, 0, 67, 100
2, 106080, Note_on_c, 0, 67, 0
2, 106080, Note_on_c, 0, 64, 0
2, 106080, Note_on_c, 0, 65, 100
2, 106080, Note_on_c, 0, 74, 100
2, 106320, Note_on_c, 0, 74, 0
2, 106320, Note_on_c, 0, 69, 100
2, 106380, Note_on_c, 0, 65, 0
2, 106380, Note_on_c, 0, 64, 100
2, 106440, Note_on_c, 0, 64, 0
2, 106440, Note_on_c, 0, 66, 100
2, 106500, Note_on_c, 0, 66, 0
2, 106500, Note_on_c, 0, 69, 0
2, 106500, Note_on_c, 0, 71, 100
2, 106500, Note_on_c, 0, 68, 100
2, 106560, Note_on_c, 0, 68, 0
2, 106560, Note_on_c, 0, 71, 0
2, 106560, Note_on_c, 0, 72, 100
2, 106560, Note_on_c, 0, 69, 100
2, 106620, Note_on_c, 0, 69, 0
2, 106620, Note_on_c, 0, 71, 100
2, 106680, Note_on_c, 0, 71, 0
2, 106680, Note_on_c, 0, 72, 100
2, 106740, Note_on_c, 0, 72, 0
2, 106740, Note_on_c, 0, 74, 100
2, 106800, Note_on_c, 0, 74, 0
2, 106800, Note_on_c, 0, 72, 0
2, 106800, Note_on_c, 0, 76, 100
2, 106800, Note_on_c, 0, 71, 100
2, 106860, Note_on_c, 0, 71, 0
2, 106860, Note_on_c, 0, 73, 100
2, 106920, Note_on_c, 0, 73, 0
2, 106920, Note_on_c, 0, 74, 100
2, 106980, Note_on_c, 0, 76, 0
2, 106980, Note_on_c, 0, 74, 100
2, 107040, Note_on_c, 0, 74, 0
2, 107040, Note_on_c, 0, 74, 0
2, 107040, Note_on_c, 0, 77, 100
2, 107040, Note_on_c, 0, 73, 100
2, 107100, Note_on_c, 0, 73, 0
2, 107100, Note_on_c, 0, 72, 100
2, 107160, Note_on_c, 0, 72, 0
2, 107160, Note_on_c, 0, 70, 100
2, 107220, Note_on_c, 0, 70, 0
2, 107220, Note_on_c, 0, 69, 100
2, 107280, Note_on_c, 0, 69, 0
2, 107280, Note_on_c, 0, 70, 100
2, 107340, Note_on_c, 0, 77, 0
2, 107340, Note_on_c, 0, 76, 100
2, 107400, Note_on_c, 0, 70, 0
2, 107400, Note_on_c, 0, 71, 100
2, 107460, Note_on_c, 0, 76, 0
2, 107460, Note_on_c, 0, 74, 100
2, 107520, Note_on_c, 0, 74, 0
2, 107520, Note_on_c, 0, 71, 0
2, 107520, Note_on_c, 0, 73, 100
2, 107520, Note_on_c, 0, 69, 100
2, 107580, Note_on_c, 0, 69, 0
2, 107580, Note_on_c, 0, 67, 100
2, 107640, Note_on_c, 0, 67, 0
2, 107640, Note_on_c, 0, 73, 0
2, 107640, Note_on_c, 0, 72, 100
2, 107640, Note_on_c, 0, 66, 100
2, 107700, Note_on_c, 0, 66, 0
2, 107700, Note_on_c, 0, 69, 100
2, 107760, Note_on_c, 0, 69, 0
2, 107760, Note_on_c, 0, 62, 100
2, 107820, Note_on_c, 0, 72, 0
2, 107820, Note_on_c, 0, 69, 100
2, 107880, Note_on_c, 0, 69, 0
2, 107880, Note_on_c, 0, 71, 100
2, 107940, Note_on_c, 0, 71, 0
2, 107940, Note_on_c, 0, 73, 100
2, 108000, Note_on_c, 0, 73, 0
2, 108000, Note_on_c, 0, 74, 100
2, 108060, Note_on_c, 0, 62, 0
2, 108060, Note_on_c, 0, 66, 100
2, 108120, Note_on_c, 0, 66, 0
2, 108120, Note_on_c, 0, 67, 100
2, 108180, Note_on_c, 0, 67, 0
2, 108180, Note_on_c, 0, 69, 100
2, 108240, Note_on_c, 0, 69, 0
2, 108240, Note_on_c, 0, 70, 100
2, 108300, Note_on_c, 0, 70, 0
2, 108300, Note_on_c, 0, 74, 0
2, 108300, Note_on_c, 0, 74, 100
2, 108300, Note_on_c, 0, 71, 100
2, 108360, Note_on_c, 0, 71, 0
2, 108360, Note_on_c, 0, 74, 0
2, 108360, Note_on_c, 0, 76, 100
2, 108360, Note_on_c, 0, 73, 100
2, 108420, Note_on_c, 0, 73, 0
2, 108420, Note_on_c, 0, 76, 0
2, 108420, Note_on_c, 0, 77, 100
2, 108420, Note_on_c, 0, 74, 100
2, 108480, Note_on_c, 0, 74, 0
2, 108480, Note_on_c, 0, 77, 0
2, 108480, Note_on_c, 0, 79, 100
2, 108480, Note_on_c, 0, 76, 100
2, 108540, Note_on_c, 0, 76, 0
2, 108540, Note_on_c, 0, 74, 100
2, 108600, Note_on_c, 0, 74, 0
2, 108600, Note_on_c, 0, 75, 100
2, 108660, Note_on_c, 0, 75, 0
2, 108660, Note_on_c, 0, 79, 0
2, 108660, Note_on_c, 0, 69, 100
2, 108660, Note_on_c, 0, 78, 100
2, 108720, Note_on_c, 0, 78, 0
2, 108720, Note_on_c, 0, 69, 0
2, 108720, Note_on_c, 0, 79, 100
2, 108720, Note_on_c, 0, 70, 100
2, 108780, Note_on_c, 0, 70, 0
2, 108780, Note_on_c, 0, 72, 100
2, 108840, Note_on_c, 0, 72, 0
2, 108840, Note_on_c, 0, 74, 100
2, 108900, Note_on_c, 0, 79, 0
2, 108900, Note_on_c, 0, 80, 100
2, 108960, Note_on_c, 0, 80, 0
2, 108960, Note_on_c, 0, 81, 100
2, 109080, Note_on_c, 0, 74, 0
2, 109080, Note_on_c, 0, 72, 100
2, 109140, Note_on_c, 0, 72, 0
2, 109140, Note_on_c, 0, 71, 100
2, 109200, Note_on_c, 0, 71, 0
2, 109200, Note_on_c, 0, 69, 100
2, 109260, Note_on_c, 0, 81, 0
2, 109260, Note_on_c, 0, 81, 100
2, 109320, Note_on_c, 0, 81, 0
2, 109320, Note_on_c, 0, 69, 0
2, 109320, Note_on_c, 0, 76, 100
2, 109320, Note_on_c, 0, 79, 100
2, 109380, Note_on_c, 0, 79, 0
2, 109380, Note_on_c, 0, 77, 100
2, 109440, Note_on_c, 0, 77, 0
2, 109440, Note_on_c, 0, 79, 100
2, 109500, Note_on_c, 0, 76, 0
2, 109500, Note_on_c, 0, 76, 100
2, 109560, Note_on_c, 0, 76, 0
2, 109560, Note_on_c, 0, 79, 0
2, 109560, Note_on_c, 0, 77, 100
2, 109560, Note_on_c, 0, 74, 100
2, 109620, Note_on_c, 0, 74, 0
2, 109620, Note_on_c, 0, 77, 0
2, 109620, Note_on_c, 0, 76, 100
2, 109620, Note_on_c, 0, 73, 100
2, 109680, Note_on_c, 0, 73, 0
2, 109680, Note_on_c, 0, 76, 0
2, 109680, Note_on_c, 0, 74, 100
2, 109740, Note_on_c, 0, 74, 0
2, 109740, Note_on_c, 0, 69, 100
2, 109740, Note_on_c, 0, 73, 100
2, 109800, Note_on_c, 0, 73, 0
2, 109800, Note_on_c, 0, 69, 0
2, 109800, Note_on_c, 0, 74, 100
2, 109800, Note_on_c, 0, 70, 100
2, 109860, Note_on_c, 0, 70, 0
2, 109860, Note_on_c, 0, 74, 0
2, 109860, Note_on_c, 0, 67, 100
2, 109860, Note_on_c, 0, 76, 100
2, 109920, Note_on_c, 0, 76, 0
2, 109920, Note_on_c, 0, 67, 0
2, 109920, Note_on_c, 0, 69, 100
2, 109920, Note_on_c, 0, 77, 100
2, 109980, Note_on_c, 0, 77, 0
2, 109980, Note_on_c, 0, 79, 100
2, 110040, Note_on_c, 0, 79, 0
2, 110040, Note_on_c, 0, 77, 100
2, 110100, Note_on_c, 0, 77, 0
2, 110100, Note_on_c, 0, 76, 100
2, 110160, Note_on_c, 0, 76, 0
2, 110160, Note_on_c, 0, 77, 100
2, 110220, Note_on_c, 0, 77, 0
2, 110220, Note_on_c, 0, 69, 0
2, 110220, Note_on_c, 0, 70, 100
2, 110220, Note_on_c, 0, 79, 100
2, 110280, Note_on_c, 0, 79, 0
2, 110280, Note_on_c, 0, 70, 0
2, 110280, Note_on_c, 0, 81, 100
2, 110280, Note_on_c, 0, 69, 100
2, 110340, Note_on_c, 0, 69, 0
2, 110340, Note_on_c, 0, 67, 100
2, 110400, Note_on_c, 0, 67, 0
2, 110400, Note_on_c, 0, 81, 0
2, 110400, Note_on_c, 0, 72, 100
2, 110400, Note_on_c, 0, 66, 100
2, 110460, Note_on_c, 0, 66, 0
2, 110460, Note_on_c, 0, 67, 100
2, 110520, Note_on_c, 0, 67, 0
2, 110520, Note_on_c, 0, 69, 100
2, 110640, Note_on_c, 0, 69, 0
2, 110640, Note_on_c, 0, 62, 100
2, 110700, Note_on_c, 0, 72, 0
2, 110700, Note_on_c, 0, 66, 100
2, 110760, Note_on_c, 0, 66, 0
2, 110760, Note_on_c, 0, 67, 100
2, 110820, Note_on_c, 0, 67, 0
2, 110820, Note_on_c, 0, 69, 100
2, 110880, Note_on_c, 0, 69, 0
2, 110880, Note_on_c, 0, 70, 100
2, 111120, Note_on_c, 0, 70, 0
2, 111120, Note_on_c, 0, 69, 100
2, 111180, Note_on_c, 0, 62, 0
2, 111180, Note_on_c, 0, 63, 100
2, 111240, Note_on_c, 0, 63, 0
2, 111240, Note_on_c, 0, 62, 100
2, 111300, Note_on_c, 0, 62, 0
2, 111300, Note_on_c, 0, 60, 100
2, 111360, Note_on_c, 0, 60, 0
2, 111360, Note_on_c, 0, 58, 100
2, 111420, Note_on_c, 0, 58, 0
2, 111420, Note_on_c, 0, 69, 0
2, 111420, Note_on_c, 0, 62, 100
2, 111420, Note_on_c, 0, 66, 100
2, 111480, Note_on_c, 0, 66, 0
2, 111480, Note_on_c, 0, 62, 0
2, 111480, Note_on_c, 0, 67, 100
2, 111480, Note_on_c, 0, 61, 100
2, 111540, Note_on_c, 0, 61, 0
2, 111540, Note_on_c, 0, 64, 100
2, 111660, Note_on_c, 0, 64, 0
2, 111660, Note_on_c, 0, 67, 0
2, 111660, Note_on_c, 0, 64, 100
2, 111660, Note_on_c, 0, 67, 100
2, 111720, Note_on_c, 0, 67, 0
2, 111720, Note_on_c, 0, 64, 0
2, 111720, Note_on_c, 0, 62, 100
2, 111720, Note_on_c, 0, 66, 100
2, 111780, Note_on_c, 0, 66, 0
2, 111780, Note_on_c, 0, 62, 0
2, 111780, Note_on_c, 0, 60, 100
2, 111780, Note_on_c, 0, 64, 100
2, 111840, Note_on_c, 0, 64, 0
2, 111840, Note_on_c, 0, 60, 0
2, 111840, Note_on_c, 0, 62, 100
2, 111840, Note_on_c, 0, 66, 100
2, 111900, Note_on_c, 0, 66, 0
2, 111900, Note_on_c, 0, 67, 100
2, 111960, Note_on_c, 0, 67, 0
2, 111960, Note_on_c, 0, 69, 100
2, 112020, Note_on_c, 0, 62, 0
2, 112020, Note_on_c, 0, 60, 100
2, 112080, Note_on_c, 0, 60, 0
2, 112080, Note_on_c, 0, 69, 0
2, 112080, Note_on_c, 0, 62, 100
2, 112080, Note_on_c, 0, 58, 100
2, 112380, Note_on_c, 0, 58, 0
2, 112380, Note_on_c, 0, 57, 100
2, 112440, Note_on_c, 0, 57, 0
2, 112440, Note_on_c, 0, 58, 100
2, 112500, Note_on_c, 0, 62, 0
2, 112500, Note_on_c, 0, 61, 100
2, 112560, Note_on_c, 0, 61, 0
2, 112560, Note_on_c, 0, 62, 100
2, 112860, Note_on_c, 0, 58, 0
2, 112860, Note_on_c, 0, 57, 100
2, 112920, Note_on_c, 0, 57, 0
2, 112920, Note_on_c, 0, 58, 100
2, 112980, Note_on_c, 0, 58, 0
2, 112980, Note_on_c, 0, 55, 100
2, 113040, Note_on_c, 0, 55, 0
2, 113040, Note_on_c, 0, 57, 100
2, 113520, Note_on_c, 0, 57, 0
2, 113520, Note_on_c, 0, 62, 0
2, 114720, Note_on_c, 0, 69, 60
2, 114960, Note_on_c, 0, 69, 0
2, 114960, Note_on_c, 0, 62, 60
2, 115200, Note_on_c, 0, 62, 0
2, 115200, Note_on_c, 0, 65, 60
2, 115440, Note_on_c, 0, 65, 0
2, 115440, Note_on_c, 0, 69, 60
2, 115680, Note_on_c, 0, 69, 0
2, 115680, Note_on_c, 0, 70, 60
2, 115920, Note_on_c, 0, 70, 0
2, 115920, Note_on_c, 0, 69, 60
2, 116040, Note_on_c, 0, 69, 0
2, 116040, Note_on_c, 0, 67, 60
2, 116160, Note_on_c, 0, 67, 0
2, 116160, Note_on_c, 0, 65, 60
2, 116460, Note_on_c, 0, 65, 0
2, 116460, Note_on_c, 0, 64, 60
2, 116520, Note_on_c, 0, 64, 0
2, 116520, Note_on_c, 0, 65, 60
2, 116580, Note_on_c, 0, 65, 0
2, 116580, Note_on_c, 0, 67, 60
2, 116640, Note_on_c, 0, 67, 0
2, 116640, Note_on_c, 0, 69, 50
2, 116640, Note_on_c, 0, 62, 60
2, 116880, Note_on_c, 0, 62, 0
2, 116880, Note_on_c, 0, 57, 60
2, 116940, Note_on_c, 0, 69, 0
2, 116940, Note_on_c, 0, 70, 50
2, 117000, Note_on_c, 0, 70, 0
2, 117000, Note_on_c, 0, 69, 50
2, 117060, Note_on_c, 0, 69, 0
2, 117060, Note_on_c, 0, 68, 50
2, 117120, Note_on_c, 0, 68, 0
2, 117120, Note_on_c, 0, 57, 0
2, 117120, Note_on_c, 0, 69, 50
2, 117120, Note_on_c, 0, 60, 60
2, 117360, Note_on_c, 0, 60, 0
2, 117360, Note_on_c, 0, 64, 60
2, 117420, Note_on_c, 0, 69, 0
2, 117420, Note_on_c, 0, 70, 50
2, 117480, Note_on_c, 0, 70, 0
2, 117480, Note_on_c, 0, 69, 50
2, 117540, Note_on_c, 0, 69, 0
2, 117540, Note_on_c, 0, 68, 50
2, 117600, Note_on_c, 0, 68, 0
2, 117600, Note_on_c, 0, 64, 0
2, 117600, Note_on_c, 0, 69, 50
2, 117600, Note_on_c, 0, 65, 60
2, 117720, Note_on_c, 0, 69, 0
2, 117720, Note_on_c, 0, 74, 50
2, 117840, Note_on_c, 0, 74, 0
2, 117840, Note_on_c, 0, 65, 0
2, 117840, Note_on_c, 0, 67, 50
2, 117840, Note_on_c, 0, 64, 60
2, 117960, Note_on_c, 0, 64, 0
2, 117960, Note_on_c, 0, 67, 0
2, 117960, Note_on_c, 0, 70, 50
2, 117960, Note_on_c, 0, 62, 60
2, 118080, Note_on_c, 0, 62, 0
2, 118080, Note_on_c, 0, 61, 60
2, 118200, Note_on_c, 0, 70, 0
2, 118200, Note_on_c, 0, 64, 60
2, 118320, Note_on_c, 0, 64, 0
2, 118320, Note_on_c, 0, 69, 60
2, 118380, Note_on_c, 0, 61, 0
2, 118380, Note_on_c, 0, 57, 60
2, 118440, Note_on_c, 0, 57, 0
2, 118440, Note_on_c, 0, 69, 0
2, 118440, Note_on_c, 0, 67, 50
2, 118440, Note_on_c, 0, 59, 60
2, 118500, Note_on_c, 0, 59, 0
2, 118500, Note_on_c, 0, 61, 60
2, 118560, Note_on_c, 0, 61, 0
2, 118560, Note_on_c, 0, 62, 60
2, 118680, Note_on_c, 0, 67, 0
2, 118680, Note_on_c, 0, 65, 60
2, 118800, Note_on_c, 0, 65, 0
2, 118800, Note_on_c, 0, 70, 60
2, 118860, Note_on_c, 0, 62, 0
2, 118860, Note_on_c, 0, 60, 60
2, 118920, Note_on_c, 0, 60, 0
2, 118920, Note_on_c, 0, 62, 60
2, 118980, Note_on_c, 0, 62, 0
2, 118980, Note_on_c, 0, 64, 60
2, 119040, Note_on_c, 0, 64, 0
2, 119040, Note_on_c, 0, 70, 0
2, 119040, Note_on_c, 0, 65, 60
2, 119160, Note_on_c, 0, 69, 60
2, 119280, Note_on_c, 0, 69, 0
2, 119280, Note_on_c, 0, 74, 50
2, 119340, Note_on_c, 0, 65, 0
2, 119340, Note_on_c, 0, 64, 60
2, 119400, Note_on_c, 0, 64, 0
2, 119400, Note_on_c, 0, 65, 60
2, 119460, Note_on_c, 0, 65, 0
2, 119460, Note_on_c, 0, 67, 60
2, 119520, Note_on_c, 0, 67, 0
2, 119520, Note_on_c, 0, 69, 50
2, 119640, Note_on_c, 0, 74, 0
2, 119640, Note_on_c, 0, 72, 50
2, 119760, Note_on_c, 0, 72, 0
2, 119760, Note_on_c, 0, 70, 50
2, 119820, Note_on_c, 0, 69, 0
2, 119820, Note_on_c, 0, 67, 50
2, 119880, Note_on_c, 0, 67, 0
2, 119880, Note_on_c, 0, 65, 50
2, 119940, Note_on_c, 0, 65, 0
2, 119940, Note_on_c, 0, 64, 50
2, 120000, Note_on_c, 0, 64, 0
2, 120000, Note_on_c, 0, 62, 50
2, 120120, Note_on_c, 0, 70, 0
2, 120120, Note_on_c, 0, 69, 50
2, 120180, Note_on_c, 0, 69, 0
2, 120180, Note_on_c, 0, 67, 50
2, 120240, Note_on_c, 0, 67, 0
2, 120240, Note_on_c, 0, 65, 50
2, 120300, Note_on_c, 0, 62, 0
2, 120300, Note_on_c, 0, 64, 50
2, 120360, Note_on_c, 0, 64, 0
2, 120360, Note_on_c, 0, 62, 50
2, 120420, Note_on_c, 0, 62, 0
2, 120420, Note_on_c, 0, 61, 50
2, 120480, Note_on_c, 0, 61, 0
2, 120480, Note_on_c, 0, 65, 0
2, 120480, Note_on_c, 0, 62, 50
2, 120540, Note_on_c, 0, 77, 60
2, 120600, Note_on_c, 0, 77, 0
2, 120600, Note_on_c, 0, 62, 0
2, 120600, Note_on_c, 0, 76, 60
2, 120600, Note_on_c, 0, 67, 50
2, 120660, Note_on_c, 0, 76, 0
2, 120660, Note_on_c, 0, 74, 60
2, 120720, Note_on_c, 0, 74, 0
2, 120720, Note_on_c, 0, 67, 0
2, 120720, Note_on_c, 0, 76, 60
2, 120720, Note_on_c, 0, 61, 50
2, 120780, Note_on_c, 0, 76, 0
2, 120780, Note_on_c, 0, 77, 60
2, 120840, Note_on_c, 0, 77, 0
2, 120840, Note_on_c, 0, 61, 0
2, 120840, Note_on_c, 0, 79, 60
2, 120840, Note_on_c, 0, 64, 50
2, 120900, Note_on_c, 0, 79, 0
2, 120900, Note_on_c, 0, 76, 60
2, 120960, Note_on_c, 0, 76, 0
2, 120960, Note_on_c, 0, 81, 60
2, 121080, Note_on_c, 0, 64, 0
2, 121080, Note_on_c, 0, 57, 50
2, 121200, Note_on_c, 0, 57, 0
2, 121200, Note_on_c, 0, 81, 0
2, 121200, Note_on_c, 0, 62, 50
2, 121320, Note_on_c, 0, 69, 50
2, 121440, Note_on_c, 0, 69, 0
2, 121440, Note_on_c, 0, 65, 50
2, 121500, Note_on_c, 0, 62, 0
2, 121500, Note_on_c, 0, 63, 50
2, 121560, Note_on_c, 0, 63, 0
2, 121560, Note_on_c, 0, 62, 50
2, 121620, Note_on_c, 0, 62, 0
2, 121620, Note_on_c, 0, 61, 50
2, 121680, Note_on_c, 0, 61, 0
2, 121680, Note_on_c, 0, 62, 50
2, 121800, Note_on_c, 0, 62, 0
2, 121800, Note_on_c, 0, 74, 50
2, 121920, Note_on_c, 0, 74, 0
2, 121920, Note_on_c, 0, 65, 0
2, 121920, Note_on_c, 0, 64, 50
2, 122040, Note_on_c, 0, 64, 0
2, 122040, Note_on_c, 0, 76, 50
2, 122040, Note_on_c, 0, 72, 50
2, 122100, Note_on_c, 0, 72, 0
2, 122100, Note_on_c, 0, 71, 50
2, 122160, Note_on_c, 0, 71, 0
2, 122160, Note_on_c, 0, 76, 0
2, 122160, Note_on_c, 0, 72, 50
2, 122160, Note_on_c, 0, 69, 50
2, 122220, Note_on_c, 0, 69, 0
2, 122220, Note_on_c, 0, 67, 50
2, 122280, Note_on_c, 0, 67, 0
2, 122280, Note_on_c, 0, 65, 50
2, 122340, Note_on_c, 0, 65, 0
2, 122340, Note_on_c, 0, 64, 50
2, 122400, Note_on_c, 0, 64, 0
2, 122400, Note_on_c, 0, 72, 0
2, 122400, Note_on_c, 0, 62, 50
2, 122460, Note_on_c, 0, 72, 55
2, 122520, Note_on_c, 0, 72, 0
2, 122520, Note_on_c, 0, 62, 0
2, 122520, Note_on_c, 0, 71, 55
2, 122520, Note_on_c, 0, 67, 50
2, 122580, Note_on_c, 0, 71, 0
2, 122580, Note_on_c, 0, 69, 55
2, 122640, Note_on_c, 0, 69, 0
2, 122640, Note_on_c, 0, 71, 55
2, 122700, Note_on_c, 0, 71, 0
2, 122700, Note_on_c, 0, 67, 0
2, 122700, Note_on_c, 0, 73, 55
2, 122700, Note_on_c, 0, 69, 50
2, 122760, Note_on_c, 0, 69, 0
2, 122760, Note_on_c, 0, 73, 0
2, 122760, Note_on_c, 0, 74, 55
2, 122760, Note_on_c, 0, 67, 50
2, 122820, Note_on_c, 0, 67, 0
2, 122820, Note_on_c, 0, 65, 50
2, 122880, Note_on_c, 0, 65, 0
2, 122880, Note_on_c, 0, 74, 0
2, 122880, Note_on_c, 0, 76, 55
2, 122880, Note_on_c, 0, 67, 50
2, 122940, Note_on_c, 0, 67, 0
2, 122940, Note_on_c, 0, 69, 50
2, 123000, Note_on_c, 0, 69, 0
2, 123000, Note_on_c, 0, 70, 50
2, 123060, Note_on_c, 0, 70, 0
2, 123060, Note_on_c, 0, 67, 50
2, 123120, Note_on_c, 0, 67, 0
2, 123120, Note_on_c, 0, 64, 50
2, 123180, Note_on_c, 0, 76, 0
2, 123180, Note_on_c, 0, 73, 50
2, 123240, Note_on_c, 0, 73, 0
2, 123240, Note_on_c, 0, 74, 50
2, 123300, Note_on_c, 0, 74, 0
2, 123300, Note_on_c, 0, 76, 50
2, 123360, Note_on_c, 0, 76, 0
2, 123360, Note_on_c, 0, 64, 0
2, 123360, Note_on_c, 0, 69, 60
2, 123480, Note_on_c, 0, 62, 50
2, 123540, Note_on_c, 0, 62, 0
2, 123540, Note_on_c, 0, 64, 50
2, 123600, Note_on_c, 0, 64, 0
2, 123600, Note_on_c, 0, 65, 50
2, 123720, Note_on_c, 0, 69, 0
2, 123720, Note_on_c, 0, 74, 60
2, 123840, Note_on_c, 0, 74, 0
2, 123840, Note_on_c, 0, 70, 60
2, 123960, Note_on_c, 0, 65, 0
2, 123960, Note_on_c, 0, 67, 50
2, 124080, Note_on_c, 0, 67, 0
2, 124080, Note_on_c, 0, 64, 50
2, 124200, Note_on_c, 0, 70, 0
2, 124200, Note_on_c, 0, 72, 60
2, 124320, Note_on_c, 0, 72, 0
2, 124320, Note_on_c, 0, 64, 0
2, 124320, Note_on_c, 0, 69, 60
2, 124440, Note_on_c, 0, 65, 50
2, 124560, Note_on_c, 0, 65, 0
2, 124560, Note_on_c, 0, 62, 50
2, 124680, Note_on_c, 0, 69, 0
2, 124680, Note_on_c, 0, 70, 60
2, 124800, Note_on_c, 0, 70, 0
2, 124800, Note_on_c, 0, 62, 0
2, 124800, Note_on_c, 0, 67, 60
2, 124920, Note_on_c, 0, 64, 50
2, 125040, Note_on_c, 0, 64, 0
2, 125040, Note_on_c, 0, 61, 50
2, 125160, Note_on_c, 0, 67, 0
2, 125160, Note_on_c, 0, 69, 60
2, 125280, Note_on_c, 0, 69, 0
2, 125280, Note_on_c, 0, 61, 0
2, 125280, Note_on_c, 0, 65, 60
2, 125280, Note_on_c, 0, 62, 50
2, 125520, Note_on_c, 0, 62, 0
2, 125520, Note_on_c, 0, 65, 0
2, 125580, Note_on_c, 0, 72, 60
2, 125640, Note_on_c, 0, 72, 0
2, 125640, Note_on_c, 0, 70, 60
2, 125700, Note_on_c, 0, 70, 0
2, 125700, Note_on_c, 0, 69, 60
2, 125760, Note_on_c, 0, 69, 0
2, 125760, Note_on_c, 0, 67, 60
2, 126060, Note_on_c, 0, 67, 0
2, 126060, Note_on_c, 0, 74, 60
2, 126120, Note_on_c, 0, 74, 0
2, 126120, Note_on_c, 0, 72, 60
2, 126180, Note_on_c, 0, 72, 0
2, 126180, Note_on_c, 0, 70, 60
2, 126240, Note_on_c, 0, 70, 0
2, 126240, Note_on_c, 0, 69, 60
2, 126540, Note_on_c, 0, 69, 0
2, 126540, Note_on_c, 0, 75, 60
2, 126600, Note_on_c, 0, 75, 0
2, 126600, Note_on_c, 0, 74, 60
2, 126660, Note_on_c, 0, 74, 0
2, 126660, Note_on_c, 0, 72, 60
2, 126720, Note_on_c, 0, 72, 0
2, 126720, Note_on_c, 0, 70, 50
2, 127020, Note_on_c, 0, 70, 0
2, 127021, Note_on_c, 0, 70, 50
2, 127078, Note_on_c, 0, 70, 0
2, 127080, Note_on_c, 0, 69, 50
2, 127140, Note_on_c, 0, 69, 0
2, 127140, Note_on_c, 0, 67, 50
2, 127198, Note_on_c, 0, 67, 0
2, 127200, Note_on_c, 0, 72, 60
2, 127200, Note_on_c, 0, 65, 50
2, 127320, Note_on_c, 0, 65, 0
2, 127320, Note_on_c, 0, 63, 50
2, 127440, Note_on_c, 0, 63, 0
2, 127440, Note_on_c, 0, 72, 0
2, 127440, Note_on_c, 0, 65, 60
2, 127440, Note_on_c, 0, 62, 50
2, 127680, Note_on_c, 0, 62, 0
2, 127680, Note_on_c, 0, 65, 0
2, 127680, Note_on_c, 0, 69, 60
2, 127680, Note_on_c, 0, 60, 50
2, 127740, Note_on_c, 0, 60, 0
2, 127740, Note_on_c, 0, 66, 50
2, 127800, Note_on_c, 0, 66, 0
2, 127800, Note_on_c, 0, 65, 50
2, 127860, Note_on_c, 0, 65, 0
2, 127860, Note_on_c, 0, 64, 50
2, 127920, Note_on_c, 0, 64, 0
2, 127920, Note_on_c, 0, 69, 0
2, 127920, Note_on_c, 0, 72, 60
2, 127920, Note_on_c, 0, 65, 50
2, 128160, Note_on_c, 0, 72, 0
2, 128160, Note_on_c, 0, 74, 60
2, 128220, Note_on_c, 0, 65, 0
2, 128220, Note_on_c, 0, 72, 50
2, 128280, Note_on_c, 0, 72, 0
2, 128280, Note_on_c, 0, 70, 50
2, 128340, Note_on_c, 0, 70, 0
2, 128340, Note_on_c, 0, 69, 50
2, 128400, Note_on_c, 0, 69, 0
2, 128400, Note_on_c, 0, 74, 0
2, 128400, Note_on_c, 0, 72, 60
2, 128400, Note_on_c, 0, 67, 50
2, 128460, Note_on_c, 0, 67, 0
2, 128460, Note_on_c, 0, 69, 50
2, 128520, Note_on_c, 0, 69, 0
2, 128520, Note_on_c, 0, 72, 0
2, 128520, Note_on_c, 0, 70, 60
2, 128520, Note_on_c, 0, 67, 50
2, 128580, Note_on_c, 0, 67, 0
2, 128580, Note_on_c, 0, 65, 50
2, 128640, Note_on_c, 0, 65, 0
2, 128640, Note_on_c, 0, 70, 0
2, 128640, Note_on_c, 0, 69, 60
2, 128640, Note_on_c, 0, 64, 50
2, 128760, Note_on_c, 0, 64, 0
2, 128760, Note_on_c, 0, 62, 50
2, 128880, Note_on_c, 0, 62, 0
2, 128880, Note_on_c, 0, 64, 50
2, 128940, Note_on_c, 0, 69, 0
2, 128940, Note_on_c, 0, 67, 60
2, 129000, Note_on_c, 0, 67, 0
2, 129000, Note_on_c, 0, 64, 0
2, 129000, Note_on_c, 0, 69, 60
2, 129000, Note_on_c, 0, 62, 50
2, 129060, Note_on_c, 0, 69, 0
2, 129060, Note_on_c, 0, 71, 60
2, 129120, Note_on_c, 0, 71, 0
2, 129120, Note_on_c, 0, 62, 0
2, 129120, Note_on_c, 0, 72, 50
2, 129120, Note_on_c, 0, 67, 60
2, 129360, Note_on_c, 0, 67, 0
2, 129360, Note_on_c, 0, 72, 0
2, 129360, Note_on_c, 0, 60, 60
2, 129600, Note_on_c, 0, 60, 0
2, 129600, Note_on_c, 0, 64, 60
2, 129720, Note_on_c, 0, 76, 50
2, 129840, Note_on_c, 0, 76, 0
2, 129840, Note_on_c, 0, 64, 0
2, 129840, Note_on_c, 0, 72, 50
2, 129840, Note_on_c, 0, 67, 60
2, 130080, Note_on_c, 0, 67, 0
2, 130080, Note_on_c, 0, 69, 60
2, 130200, Note_on_c, 0, 72, 0
2, 130200, Note_on_c, 0, 71, 50
2, 130260, Note_on_c, 0, 71, 0
2, 130260, Note_on_c, 0, 72, 50
2, 130320, Note_on_c, 0, 72, 0
2, 130320, Note_on_c, 0, 69, 0
2, 130320, Note_on_c, 0, 74, 50
2, 130320, Note_on_c, 0, 67, 60
2, 130440, Note_on_c, 0, 67, 0
2, 130440, Note_on_c, 0, 65, 60
2, 130560, Note_on_c, 0, 65, 0
2, 130560, Note_on_c, 0, 74, 0
2, 130560, Note_on_c, 0, 64, 60
2, 130620, Note_on_c, 0, 67, 50
2, 130680, Note_on_c, 0, 67, 0
2, 130680, Note_on_c, 0, 69, 50
2, 130740, Note_on_c, 0, 69, 0
2, 130740, Note_on_c, 0, 71, 50
2, 130800, Note_on_c, 0, 71, 0
2, 130800, Note_on_c, 0, 72, 50
2, 130860, Note_on_c, 0, 64, 0
2, 130860, Note_on_c, 0, 62, 60
2, 130920, Note_on_c, 0, 62, 0
2, 130920, Note_on_c, 0, 64, 60
2, 130980, Note_on_c, 0, 64, 0
2, 130980, Note_on_c, 0, 66, 60
2, 131040, Note_on_c, 0, 66, 0
2, 131040, Note_on_c, 0, 67, 50
2, 131160, Note_on_c, 0, 72, 0
2, 131160, Note_on_c, 0, 74, 50
2, 131280, Note_on_c, 0, 74, 0
2, 131280, Note_on_c, 0, 70, 50
2, 131340, Note_on_c, 0, 67, 0
2, 131340, Note_on_c, 0, 68, 50
2, 131400, Note_on_c, 0, 68, 0
2, 131400, Note_on_c, 0, 67, 50
2, 131460, Note_on_c, 0, 67, 0
2, 131460, Note_on_c, 0, 66, 50
2, 131520, Note_on_c, 0, 66, 0
2, 131520, Note_on_c, 0, 70, 0
2, 131520, Note_on_c, 0, 67, 50
2, 131640, Note_on_c, 0, 74, 50
2, 131760, Note_on_c, 0, 74, 0
2, 131760, Note_on_c, 0, 70, 50
2, 131820, Note_on_c, 0, 67, 0
2, 131820, Note_on_c, 0, 68, 50
2, 131880, Note_on_c, 0, 68, 0
2, 131880, Note_on_c, 0, 70, 0
2, 131880, Note_on_c, 0, 82, 50
2, 131880, Note_on_c, 0, 67, 50
2, 131940, Note_on_c, 0, 67, 0
2, 131940, Note_on_c, 0, 66, 50
2, 132000, Note_on_c, 0, 66, 0
2, 132000, Note_on_c, 0, 82, 0
2, 132000, Note_on_c, 0, 67, 50
2, 132120, Note_on_c, 0, 67, 0
2, 132120, Note_on_c, 0, 81, 50
2, 132120, Note_on_c, 0, 72, 50
2, 132180, Note_on_c, 0, 81, 0
2, 132180, Note_on_c, 0, 79, 50
2, 132240, Note_on_c, 0, 79, 0
2, 132240, Note_on_c, 0, 72, 0
2, 132240, Note_on_c, 0, 81, 50
2, 132240, Note_on_c, 0, 66, 50
2, 132300, Note_on_c, 0, 81, 0
2, 132300, Note_on_c, 0, 79, 50
2, 132360, Note_on_c, 0, 79, 0
2, 132360, Note_on_c, 0, 66, 0
2, 132360, Note_on_c, 0, 78, 50
2, 132360, Note_on_c, 0, 69, 50
2, 132420, Note_on_c, 0, 78, 0
2, 132420, Note_on_c, 0, 81, 50
2, 132480, Note_on_c, 0, 81, 0
2, 132480, Note_on_c, 0, 74, 50
2, 132540, Note_on_c, 0, 69, 0
2, 132540, Note_on_c, 0, 68, 50
2, 132600, Note_on_c, 0, 68, 0
2, 132600, Note_on_c, 0, 67, 50
2, 132660, Note_on_c, 0, 67, 0
2, 132660, Note_on_c, 0, 66, 50
2, 132720, Note_on_c, 0, 66, 0
2, 132720, Note_on_c, 0, 74, 0
2, 132720, Note_on_c, 0, 67, 50
2, 132840, Note_on_c, 0, 74, 50
2, 132960, Note_on_c, 0, 74, 0
2, 132960, Note_on_c, 0, 67, 0
2, 132960, Note_on_c, 0, 70, 50
2, 133020, Note_on_c, 0, 66, 50
2, 133080, Note_on_c, 0, 66, 0
2, 133080, Note_on_c, 0, 67, 50
2, 133140, Note_on_c, 0, 70, 0
2, 133258, Note_on_c, 0, 67, 0
2, 133260, Note_on_c, 0, 69, 50
2, 133260, Note_on_c, 0, 67, 50
2, 133318, Note_on_c, 0, 67, 0
2, 133320, Note_on_c, 0, 66, 50
2, 133378, Note_on_c, 0, 66, 0
2, 133380, Note_on_c, 0, 64, 50
2, 133438, Note_on_c, 0, 64, 0
2, 133440, Note_on_c, 0, 62, 50
2, 133500, Note_on_c, 0, 69, 0
2, 133500, Note_on_c, 0, 67, 50
2, 133560, Note_on_c, 0, 67, 0
2, 133560, Note_on_c, 0, 62, 0
2, 133560, Note_on_c, 0, 81, 50
2, 133560, Note_on_c, 0, 65, 50
2, 133620, Note_on_c, 0, 65, 0
2, 133620, Note_on_c, 0, 64, 50
2, 133678, Note_on_c, 0, 64, 0
2, 133680, Note_on_c, 0, 81, 0
2, 133680, Note_on_c, 0, 77, 50
2, 133800, Note_on_c, 0, 69, 50
2, 133920, Note_on_c, 0, 69, 0
2, 133920, Note_on_c, 0, 77, 0
2, 133920, Note_on_c, 0, 65, 50
2, 134040, Note_on_c, 0, 65, 0
2, 134040, Note_on_c, 0, 79, 50
2, 134040, Note_on_c, 0, 70, 50
2, 134160, Note_on_c, 0, 70, 0
2, 134160, Note_on_c, 0, 79, 0
2, 134160, Note_on_c, 0, 73, 50
2, 134160, Note_on_c, 0, 64, 50
2, 134220, Note_on_c, 0, 73, 0
2, 134220, Note_on_c, 0, 74, 50
2, 134280, Note_on_c, 0, 74, 0
2, 134280, Note_on_c, 0, 76, 50
2, 134340, Note_on_c, 0, 64, 0
2, 134340, Note_on_c, 0, 70, 50
2, 134400, Note_on_c, 0, 69, 50
2, 134460, Note_on_c, 0, 69, 0
2, 134460, Note_on_c, 0, 70, 0
2, 134460, Note_on_c, 0, 76, 0
2, 134460, Note_on_c, 0, 69, 50
2, 134460, Note_on_c, 0, 67, 50
2, 134520, Note_on_c, 0, 67, 0
2, 134520, Note_on_c, 0, 69, 0
2, 134520, Note_on_c, 0, 71, 50
2, 134520, Note_on_c, 0, 65, 50
2, 134580, Note_on_c, 0, 65, 0
2, 134580, Note_on_c, 0, 71, 0
2, 134580, Note_on_c, 0, 73, 50
2, 134580, Note_on_c, 0, 67, 50
2, 134640, Note_on_c, 0, 67, 0
2, 134640, Note_on_c, 0, 73, 0
2, 134640, Note_on_c, 0, 74, 50
2, 134640, Note_on_c, 0, 69, 50
2, 134880, Note_on_c, 0, 69, 0
2, 134880, Note_on_c, 0, 74, 0
2, 134940, Note_on_c, 0, 71, 55
2, 134940, Note_on_c, 0, 68, 50
2, 135000, Note_on_c, 0, 68, 0
2, 135000, Note_on_c, 0, 71, 0
2, 135000, Note_on_c, 0, 72, 55
2, 135000, Note_on_c, 0, 69, 50
2, 135060, Note_on_c, 0, 72, 0
2, 135060, Note_on_c, 0, 74, 56
2, 135120, Note_on_c, 0, 74, 0
2, 135120, Note_on_c, 0, 69, 0
2, 135120, Note_on_c, 0, 76, 57
2, 135180, Note_on_c, 0, 64, 50
2, 135240, Note_on_c, 0, 64, 0
2, 135240, Note_on_c, 0, 65, 50
2, 135300, Note_on_c, 0, 65, 0
2, 135300, Note_on_c, 0, 67, 50
2, 135360, Note_on_c, 0, 67, 0
2, 135360, Note_on_c, 0, 69, 50
2, 135420, Note_on_c, 0, 76, 0
2, 135420, Note_on_c, 0, 79, 58
2, 135480, Note_on_c, 0, 79, 0
2, 135480, Note_on_c, 0, 77, 57
2, 135540, Note_on_c, 0, 77, 0
2, 135540, Note_on_c, 0, 76, 56
2, 135600, Note_on_c, 0, 76, 0
2, 135600, Note_on_c, 0, 69, 0
2, 135600, Note_on_c, 0, 74, 55
2, 135660, Note_on_c, 0, 62, 50
2, 135720, Note_on_c, 0, 62, 0
2, 135720, Note_on_c, 0, 64, 50
2, 135780, Note_on_c, 0, 64, 0
2, 135780, Note_on_c, 0, 65, 50
2, 135840, Note_on_c, 0, 65, 0
2, 135840, Note_on_c, 0, 67, 50
2, 135900, Note_on_c, 0, 74, 0
2, 135900, Note_on_c, 0, 77, 57
2, 135960, Note_on_c, 0, 77, 0
2, 135960, Note_on_c, 0, 76, 56
2, 136020, Note_on_c, 0, 76, 0
2, 136020, Note_on_c, 0, 74, 55
2, 136080, Note_on_c, 0, 74, 0
2, 136080, Note_on_c, 0, 67, 0
2, 136080, Note_on_c, 0, 72, 55
2, 136140, Note_on_c, 0, 60, 50
2, 136200, Note_on_c, 0, 60, 0
2, 136200, Note_on_c, 0, 62, 50
2, 136260, Note_on_c, 0, 62, 0
2, 136260, Note_on_c, 0, 64, 50
2, 136320, Note_on_c, 0, 64, 0
2, 136320, Note_on_c, 0, 72, 0
2, 136320, Note_on_c, 0, 65, 50
2, 136380, Note_on_c, 0, 76, 56
2, 136440, Note_on_c, 0, 76, 0
2, 136440, Note_on_c, 0, 74, 55
2, 136500, Note_on_c, 0, 74, 0
2, 136500, Note_on_c, 0, 72, 55
2, 136560, Note_on_c, 0, 72, 0
2, 136560, Note_on_c, 0, 71, 55
2, 136620, Note_on_c, 0, 65, 0
2, 136620, Note_on_c, 0, 64, 50
2, 136680, Note_on_c, 0, 64, 0
2, 136680, Note_on_c, 0, 62, 50
2, 136740, Note_on_c, 0, 62, 0
2, 136740, Note_on_c, 0, 65, 50
2, 136800, Note_on_c, 0, 65, 0
2, 136800, Note_on_c, 0, 64, 50
2, 136860, Note_on_c, 0, 71, 0
2, 136860, Note_on_c, 0, 69, 52
2, 136920, Note_on_c, 0, 69, 0
2, 136920, Note_on_c, 0, 68, 50
2, 136980, Note_on_c, 0, 68, 0
2, 136980, Note_on_c, 0, 71, 50
2, 137040, Note_on_c, 0, 71, 0
2, 137040, Note_on_c, 0, 69, 60
2, 137100, Note_on_c, 0, 69, 0
2, 137100, Note_on_c, 0, 71, 60
2, 137160, Note_on_c, 0, 71, 0
2, 137160, Note_on_c, 0, 72, 65
2, 137220, Note_on_c, 0, 64, 0
2, 137220, Note_on_c, 0, 69, 50
2, 137280, Note_on_c, 0, 69, 0
2, 137280, Note_on_c, 0, 65, 50
2, 137340, Note_on_c, 0, 72, 0
2, 137340, Note_on_c, 0, 71, 50
2, 137400, Note_on_c, 0, 71, 0
2, 137400, Note_on_c, 0, 65, 0
2, 137400, Note_on_c, 0, 69, 50
2, 137400, Note_on_c, 0, 69, 50
2, 137460, Note_on_c, 0, 69, 0
2, 137460, Note_on_c, 0, 72, 50
2, 137520, Note_on_c, 0, 72, 0
2, 137520, Note_on_c, 0, 71, 60
2, 137580, Note_on_c, 0, 71, 0
2, 137580, Note_on_c, 0, 72, 60
2, 137640, Note_on_c, 0, 72, 0
2, 137640, Note_on_c, 0, 74, 65
2, 137700, Note_on_c, 0, 69, 0
2, 137700, Note_on_c, 0, 71, 50
2, 137760, Note_on_c, 0, 74, 0
2, 137760, Note_on_c, 0, 68, 50
2, 137820, Note_on_c, 0, 71, 0
2, 137820, Note_on_c, 0, 72, 50
2, 137880, Note_on_c, 0, 72, 0
2, 137880, Note_on_c, 0, 68, 0
2, 137880, Note_on_c, 0, 71, 60
2, 137880, Note_on_c, 0, 71, 50
2, 137940, Note_on_c, 0, 71, 0
2, 137940, Note_on_c, 0, 74, 60
2, 138000, Note_on_c, 0, 74, 0
2, 138000, Note_on_c, 0, 72, 60
2, 138060, Note_on_c, 0, 72, 0
2, 138060, Note_on_c, 0, 74, 60
2, 138120, Note_on_c, 0, 74, 0
2, 138120, Note_on_c, 0, 76, 65
2, 138180, Note_on_c, 0, 71, 0
2, 138180, Note_on_c, 0, 72, 50
2, 138240, Note_on_c, 0, 69, 50
2, 138300, Note_on_c, 0, 72, 0
2, 138300, Note_on_c, 0, 76, 0
2, 138300, Note_on_c, 0, 74, 50
2, 138360, Note_on_c, 0, 74, 0
2, 138360, Note_on_c, 0, 73, 50
2, 138420, Note_on_c, 0, 73, 0
2, 138420, Note_on_c, 0, 76, 50
2, 138480, Note_on_c, 0, 76, 0
2, 138480, Note_on_c, 0, 69, 0
2, 138480, Note_on_c, 0, 74, 60
2, 138540, Note_on_c, 0, 74, 0
2, 138540, Note_on_c, 0, 76, 60
2, 138600, Note_on_c, 0, 76, 0
2, 138600, Note_on_c, 0, 77, 65
2, 138600, Note_on_c, 0, 68, 50
2, 138660, Note_on_c, 0, 68, 0
2, 138660, Note_on_c, 0, 69, 50
2, 138720, Note_on_c, 0, 69, 0
2, 138720, Note_on_c, 0, 71, 50
2, 138840, Note_on_c, 0, 71, 0
2, 138840, Note_on_c, 0, 77, 0
2, 138840, Note_on_c, 0, 76, 60
2, 138840, Note_on_c, 0, 74, 50
2, 138960, Note_on_c, 0, 74, 0
2, 138960, Note_on_c, 0, 68, 50
2, 139080, Note_on_c, 0, 68, 0
2, 139080, Note_on_c, 0, 76, 0
2, 139080, Note_on_c, 0, 74, 60
2, 139080, Note_on_c, 0, 71, 50
2, 139200, Note_on_c, 0, 71, 0
2, 139200, Note_on_c, 0, 74, 0
2, 139200, Note_on_c, 0, 72, 60
2, 139260, Note_on_c, 0, 69, 50
2, 139320, Note_on_c, 0, 69, 0
2, 139320, Note_on_c, 0, 72, 0
2, 139320, Note_on_c, 0, 81, 65
2, 139320, Note_on_c, 0, 72, 50
2, 139440, Note_on_c, 0, 72, 0
2, 139500, Note_on_c, 0, 77, 50
2, 139560, Note_on_c, 0, 77, 0
2, 139560, Note_on_c, 0, 81, 0
2, 139560, Note_on_c, 0, 80, 65
2, 139560, Note_on_c, 0, 76, 50
2, 139620, Note_on_c, 0, 76, 0
2, 139620, Note_on_c, 0, 74, 50
2, 139680, Note_on_c, 0, 80, 0
2, 139680, Note_on_c, 0, 81, 70
2, 139740, Note_on_c, 0, 74, 0
2, 139800, Note_on_c, 0, 81, 0
2, 139800, Note_on_c, 0, 76, 60
2, 139800, Note_on_c, 0, 72, 50
2, 139860, Note_on_c, 0, 72, 0
2, 139860, Note_on_c, 0, 71, 50
2, 139920, Note_on_c, 0, 71, 0
2, 139920, Note_on_c, 0, 76, 0
2, 139920, Note_on_c, 0, 72, 60
2, 139920, Note_on_c, 0, 69, 50
2, 140160, Note_on_c, 0, 69, 0
2, 140160, Note_on_c, 0, 72, 0
2, 140220, Note_on_c, 0, 70, 50
2, 140280, Note_on_c, 0, 70, 0
2, 140280, Note_on_c, 0, 72, 60
2, 140280, Note_on_c, 0, 69, 50
2, 140340, Note_on_c, 0, 69, 0
2, 140340, Note_on_c, 0, 67, 50
2, 140400, Note_on_c, 0, 67, 0
2, 140400, Note_on_c, 0, 72, 0
2, 140400, Note_on_c, 0, 69, 60
2, 140400, Note_on_c, 0, 65, 50
2, 140638, Note_on_c, 0, 65, 0
2, 140638, Note_on_c, 0, 69, 0
2, 140700, Note_on_c, 0, 79, 50
2, 140760, Note_on_c, 0, 79, 0
2, 140760, Note_on_c, 0, 81, 60
2, 140760, Note_on_c, 0, 77, 50
2, 140820, Note_on_c, 0, 77, 0
2, 140820, Note_on_c, 0, 76, 50
2, 140880, Note_on_c, 0, 76, 0
2, 140880, Note_on_c, 0, 81, 0
2, 140880, Note_on_c, 0, 77, 60
2, 140880, Note_on_c, 0, 74, 50
2, 141120, Note_on_c, 0, 74, 0
2, 141120, Note_on_c, 0, 77, 0
2, 141180, Note_on_c, 0, 75, 50
2, 141240, Note_on_c, 0, 75, 0
2, 141240, Note_on_c, 0, 77, 60
2, 141240, Note_on_c, 0, 74, 50
2, 141300, Note_on_c, 0, 74, 0
2, 141300, Note_on_c, 0, 72, 50
2, 141360, Note_on_c, 0, 72, 0
2, 141360, Note_on_c, 0, 77, 0
2, 141360, Note_on_c, 0, 74, 60
2, 141360, Note_on_c, 0, 70, 50
2, 141600, Note_on_c, 0, 70, 0
2, 141600, Note_on_c, 0, 74, 0
2, 141660, Note_on_c, 0, 84, 60
2, 141720, Note_on_c, 0, 84, 0
2, 141720, Note_on_c, 0, 82, 60
2, 141780, Note_on_c, 0, 82, 0
2, 141780, Note_on_c, 0, 81, 60
2, 141840, Note_on_c, 0, 81, 0
2, 141840, Note_on_c, 0, 79, 60
2, 141900, Note_on_c, 0, 79, 0
2, 141900, Note_on_c, 0, 77, 60
2, 141960, Note_on_c, 0, 77, 0
2, 141960, Note_on_c, 0, 76, 60
2, 141960, Note_on_c, 0, 70, 50
2, 142020, Note_on_c, 0, 76, 0
2, 142020, Note_on_c, 0, 74, 60
2, 142080, Note_on_c, 0, 74, 0
2, 142080, Note_on_c, 0, 70, 0
2, 142080, Note_on_c, 0, 72, 60
2, 142080, Note_on_c, 0, 67, 50
2, 142200, Note_on_c, 0, 72, 0
2, 142200, Note_on_c, 0, 74, 60
2, 142320, Note_on_c, 0, 74, 0
2, 142320, Note_on_c, 0, 70, 60
2, 142380, Note_on_c, 0, 67, 0
2, 142380, Note_on_c, 0, 69, 50
2, 142440, Note_on_c, 0, 69, 0
2, 142440, Note_on_c, 0, 67, 50
2, 142500, Note_on_c, 0, 67, 0
2, 142500, Note_on_c, 0, 65, 50
2, 142558, Note_on_c, 0, 65, 0
2, 142558, Note_on_c, 0, 70, 0
2, 142560, Note_on_c, 0, 70, 50
2, 142560, Note_on_c, 0, 64, 50
2, 142620, Note_on_c, 0, 64, 0
2, 142620, Note_on_c, 0, 72, 50
2, 142680, Note_on_c, 0, 72, 0
2, 142680, Note_on_c, 0, 70, 0
2, 142680, Note_on_c, 0, 79, 60
2, 142680, Note_on_c, 0, 70, 50
2, 142740, Note_on_c, 0, 70, 0
2, 142740, Note_on_c, 0, 69, 50
2, 142800, Note_on_c, 0, 69, 0
2, 142800, Note_on_c, 0, 79, 0
2, 142800, Note_on_c, 0, 76, 60
2, 142800, Note_on_c, 0, 67, 50
2, 142860, Note_on_c, 0, 67, 0
2, 142860, Note_on_c, 0, 70, 50
2, 142920, Note_on_c, 0, 70, 0
2, 142920, Note_on_c, 0, 69, 50
2, 142980, Note_on_c, 0, 69, 0
2, 142980, Note_on_c, 0, 74, 50
2, 143040, Note_on_c, 0, 74, 0
2, 143040, Note_on_c, 0, 72, 50
2, 143100, Note_on_c, 0, 76, 0
2, 143100, Note_on_c, 0, 81, 60
2, 143160, Note_on_c, 0, 81, 0
2, 143160, Note_on_c, 0, 72, 0
2, 143160, Note_on_c, 0, 79, 60
2, 143160, Note_on_c, 0, 64, 50
2, 143220, Note_on_c, 0, 79, 0
2, 143220, Note_on_c, 0, 77, 60
2, 143280, Note_on_c, 0, 77, 0
2, 143280, Note_on_c, 0, 64, 0
2, 143280, Note_on_c, 0, 76, 60
2, 143280, Note_on_c, 0, 60, 50
2, 143340, Note_on_c, 0, 76, 0
2, 143340, Note_on_c, 0, 74, 60
2, 143400, Note_on_c, 0, 74, 0
2, 143400, Note_on_c, 0, 72, 60
2, 143460, Note_on_c, 0, 72, 0
2, 143460, Note_on_c, 0, 70, 60
2, 143520, Note_on_c, 0, 70, 0
2, 143520, Note_on_c, 0, 60, 0
2, 143520, Note_on_c, 0, 69, 60
2, 143580, Note_on_c, 0, 69, 0
2, 143580, Note_on_c, 0, 77, 50
2, 143640, Note_on_c, 0, 77, 0
2, 143640, Note_on_c, 0, 76, 50
2, 143640, Note_on_c, 0, 68, 50
2, 143700, Note_on_c, 0, 76, 0
2, 143700, Note_on_c, 0, 75, 50
2, 143760, Note_on_c, 0, 75, 0
2, 143760, Note_on_c, 0, 68, 0
2, 143760, Note_on_c, 0, 76, 50
2, 143760, Note_on_c, 0, 67, 50
2, 143820, Note_on_c, 0, 67, 0
2, 143820, Note_on_c, 0, 73, 50
2, 143880, Note_on_c, 0, 73, 0
2, 143880, Note_on_c, 0, 72, 50
2, 143940, Note_on_c, 0, 72, 0
2, 143940, Note_on_c, 0, 71, 50
2, 144000, Note_on_c, 0, 71, 0
2, 144000, Note_on_c, 0, 72, 50
2, 144060, Note_on_c, 0, 76, 0
2, 144060, Note_on_c, 0, 77, 50
2, 144120, Note_on_c, 0, 77, 0
2, 144120, Note_on_c, 0, 76, 50
2, 144180, Note_on_c, 0, 76, 0
2, 144180, Note_on_c, 0, 75, 50
2, 144240, Note_on_c, 0, 75, 0
2, 144240, Note_on_c, 0, 76, 50
2, 144300, Note_on_c, 0, 72, 0
2, 144300, Note_on_c, 0, 73, 50
2, 144360, Note_on_c, 0, 73, 0
2, 144360, Note_on_c, 0, 72, 50
2, 144420, Note_on_c, 0, 72, 0
2, 144420, Note_on_c, 0, 71, 50
2, 144480, Note_on_c, 0, 71, 0
2, 144480, Note_on_c, 0, 72, 50
2, 144540, Note_on_c, 0, 76, 0
2, 144540, Note_on_c, 0, 79, 50
2, 144600, Note_on_c, 0, 79, 0
2, 144600, Note_on_c, 0, 78, 50
2, 144660, Note_on_c, 0, 78, 0
2, 144660, Note_on_c, 0, 76, 50
2, 144720, Note_on_c, 0, 76, 0
2, 144720, Note_on_c, 0, 78, 50
2, 144780, Note_on_c, 0, 78, 0
2, 144780, Note_on_c, 0, 79, 50
2, 144840, Note_on_c, 0, 79, 0
2, 144840, Note_on_c, 0, 81, 50
2, 144900, Note_on_c, 0, 72, 0
2, 144900, Note_on_c, 0, 79, 50
2, 144960, Note_on_c, 0, 81, 0
2, 144960, Note_on_c, 0, 74, 50
2, 144998, Note_on_c, 0, 79, 0
2, 145020, Note_on_c, 0, 70, 50
2, 145080, Note_on_c, 0, 70, 0
2, 145080, Note_on_c, 0, 69, 50
2, 145140, Note_on_c, 0, 69, 0
2, 145140, Note_on_c, 0, 67, 50
2, 145200, Note_on_c, 0, 67, 0
2, 145200, Note_on_c, 0, 69, 50
2, 145320, Note_on_c, 0, 74, 0
2, 145321, Note_on_c, 0, 74, 50
2, 145439, Note_on_c, 0, 74, 0
2, 145440, Note_on_c, 0, 70, 50
2, 145500, Note_on_c, 0, 69, 0
2, 145500, Note_on_c, 0, 68, 50
2, 145560, Note_on_c, 0, 68, 0
2, 145560, Note_on_c, 0, 67, 50
2, 145620, Note_on_c, 0, 67, 0
2, 145620, Note_on_c, 0, 66, 50
2, 145680, Note_on_c, 0, 66, 0
2, 145680, Note_on_c, 0, 67, 50
2, 145740, Note_on_c, 0, 70, 0
2, 145740, Note_on_c, 0, 75, 55
2, 145800, Note_on_c, 0, 75, 0
2, 145800, Note_on_c, 0, 74, 55
2, 145860, Note_on_c, 0, 74, 0
2, 145860, Note_on_c, 0, 73, 55
2, 145918, Note_on_c, 0, 73, 0
2, 145918, Note_on_c, 0, 67, 0
2, 145920, Note_on_c, 0, 74, 55
2, 145980, Note_on_c, 0, 68, 50
2, 146040, Note_on_c, 0, 68, 0
2, 146040, Note_on_c, 0, 67, 50
2, 146100, Note_on_c, 0, 67, 0
2, 146100, Note_on_c, 0, 66, 50
2, 146160, Note_on_c, 0, 66, 0
2, 146160, Note_on_c, 0, 67, 50
2, 146220, Note_on_c, 0, 74, 0
2, 146220, Note_on_c, 0, 75, 55
2, 146280, Note_on_c, 0, 75, 0
2, 146280, Note_on_c, 0, 67, 0
2, 146280, Note_on_c, 0, 74, 55
2, 146280, Note_on_c, 0, 68, 50
2, 146340, Note_on_c, 0, 74, 0
2, 146340, Note_on_c, 0, 73, 55
2, 146398, Note_on_c, 0, 73, 0
2, 146398, Note_on_c, 0, 68, 0
2, 146400, Note_on_c, 0, 74, 55
2, 146400, Note_on_c, 0, 65, 60
2, 146640, Note_on_c, 0, 65, 0
2, 146640, Note_on_c, 0, 74, 0
2, 146640, Note_on_c, 0, 71, 60
2, 147000, Note_on_c, 0, 71, 0
2, 147000, Note_on_c, 0, 70, 60
2, 147120, Note_on_c, 0, 70, 0
2, 147120, Note_on_c, 0, 67, 60
2, 147240, Note_on_c, 0, 67, 0
2, 147240, Note_on_c, 0, 64, 60
2, 147360, Note_on_c, 0, 64, 0
2, 147360, Note_on_c, 0, 69, 60
2, 147720, Note_on_c, 0, 69, 0
2, 147720, Note_on_c, 0, 62, 60
2, 147840, Note_on_c, 0, 62, 0
2, 147840, Note_on_c, 0, 70, 60
2, 148200, Note_on_c, 0, 70, 0
2, 148200, Note_on_c, 0, 60, 60
2, 148320, Note_on_c, 0, 60, 0
2, 148320, Note_on_c, 0, 69, 60
2, 148680, Note_on_c, 0, 69, 0
2, 148680, Note_on_c, 0, 70, 60
2, 148800, Note_on_c, 0, 70, 0
2, 148800, Note_on_c, 0, 67, 60
2, 149100, Note_on_c, 0, 67, 0
2, 149100, Note_on_c, 0, 70, 60
2, 149160, Note_on_c, 0, 70, 0
2, 149160, Note_on_c, 0, 69, 60
2, 149220, Note_on_c, 0, 69, 0
2, 149220, Note_on_c, 0, 67, 60
2, 149280, Note_on_c, 0, 67, 0
2, 149280, Note_on_c, 0, 69, 60
2, 149520, Note_on_c, 0, 69, 0
2, 149520, Note_on_c, 0, 62, 50
2, 149760, Note_on_c, 0, 62, 0
2, 149760, Note_on_c, 0, 65, 60
2, 150000, Note_on_c, 0, 65, 0
2, 150000, Note_on_c, 0, 69, 60
2, 150240, Note_on_c, 0, 69, 0
2, 150240, Note_on_c, 0, 72, 60
2, 150480, Note_on_c, 0, 72, 0
2, 150480, Note_on_c, 0, 71, 60
2, 150600, Note_on_c, 0, 71, 0
2, 150600, Note_on_c, 0, 69, 60
2, 150720, Note_on_c, 0, 69, 0
2, 150720, Note_on_c, 0, 68, 50
2, 151020, Note_on_c, 0, 68, 0
2, 151020, Note_on_c, 0, 64, 50
2, 151080, Note_on_c, 0, 64, 0
2, 151080, Note_on_c, 0, 66, 50
2, 151140, Note_on_c, 0, 66, 0
2, 151140, Note_on_c, 0, 68, 50
2, 151200, Note_on_c, 0, 68, 0
2, 151200, Note_on_c, 0, 76, 62
2, 151200, Note_on_c, 0, 69, 50
2, 151260, Note_on_c, 0, 69, 0
2, 151260, Note_on_c, 0, 70, 50
2, 151320, Note_on_c, 0, 70, 0
2, 151320, Note_on_c, 0, 69, 50
2, 151380, Note_on_c, 0, 69, 0
2, 151380, Note_on_c, 0, 68, 50
2, 151438, Note_on_c, 0, 76, 0
2, 151440, Note_on_c, 0, 68, 0
2, 151440, Note_on_c, 0, 69, 62
2, 151440, Note_on_c, 0, 69, 50
2, 151500, Note_on_c, 0, 69, 0
2, 151500, Note_on_c, 0, 74, 50
2, 151560, Note_on_c, 0, 74, 0
2, 151560, Note_on_c, 0, 72, 50
2, 151620, Note_on_c, 0, 72, 0
2, 151620, Note_on_c, 0, 71, 50
2, 151680, Note_on_c, 0, 71, 0
2, 151680, Note_on_c, 0, 69, 0
2, 151680, Note_on_c, 0, 72, 63
2, 151680, Note_on_c, 0, 69, 50
2, 151740, Note_on_c, 0, 69, 0
2, 151740, Note_on_c, 0, 70, 50
2, 151800, Note_on_c, 0, 70, 0
2, 151800, Note_on_c, 0, 69, 50
2, 151860, Note_on_c, 0, 69, 0
2, 151860, Note_on_c, 0, 68, 50
2, 151920, Note_on_c, 0, 68, 0
2, 151920, Note_on_c, 0, 72, 0
2, 151920, Note_on_c, 0, 76, 65
2, 151920, Note_on_c, 0, 69, 50
2, 151980, Note_on_c, 0, 69, 0
2, 151980, Note_on_c, 0, 74, 50
2, 152040, Note_on_c, 0, 74, 0
2, 152040, Note_on_c, 0, 72, 50
2, 152100, Note_on_c, 0, 72, 0
2, 152100, Note_on_c, 0, 71, 50
2, 152158, Note_on_c, 0, 71, 0
2, 152158, Note_on_c, 0, 76, 0
2, 152160, Note_on_c, 0, 79, 65
2, 152160, Note_on_c, 0, 70, 50
2, 152220, Note_on_c, 0, 70, 0
2, 152220, Note_on_c, 0, 78, 50
2, 152280, Note_on_c, 0, 78, 0
2, 152280, Note_on_c, 0, 76, 50
2, 152340, Note_on_c, 0, 76, 0
2, 152340, Note_on_c, 0, 74, 50
2, 152400, Note_on_c, 0, 74, 0
2, 152400, Note_on_c, 0, 79, 0
2, 152400, Note_on_c, 0, 78, 65
2, 152400, Note_on_c, 0, 73, 50
2, 152460, Note_on_c, 0, 73, 0
2, 152460, Note_on_c, 0, 71, 50
2, 152520, Note_on_c, 0, 71, 0
2, 152520, Note_on_c, 0, 78, 0
2, 152520, Note_on_c, 0, 76, 65
2, 152520, Note_on_c, 0, 69, 50
2, 152580, Note_on_c, 0, 69, 0
2, 152580, Note_on_c, 0, 73, 50
2, 152640, Note_on_c, 0, 73, 0
2, 152640, Note_on_c, 0, 76, 0
2, 152640, Note_on_c, 0, 75, 65
2, 152640, Note_on_c, 0, 66, 50
2, 152700, Note_on_c, 0, 66, 0
2, 152700, Note_on_c, 0, 67, 50
2, 152760, Note_on_c, 0, 67, 0
2, 152760, Note_on_c, 0, 66, 50
2, 152820, Note_on_c, 0, 66, 0
2, 152820, Note_on_c, 0, 67, 50
2, 152880, Note_on_c, 0, 67, 0
2, 152880, Note_on_c, 0, 69, 50
2, 152940, Note_on_c, 0, 75, 0
2, 152940, Note_on_c, 0, 71, 65
2, 153000, Note_on_c, 0, 71, 0
2, 153000, Note_on_c, 0, 69, 0
2, 153000, Note_on_c, 0, 73, 65
2, 153000, Note_on_c, 0, 66, 50
2, 153060, Note_on_c, 0, 73, 0
2, 153060, Note_on_c, 0, 75, 65
2, 153120, Note_on_c, 0, 75, 0
2, 153120, Note_on_c, 0, 66, 0
2, 153120, Note_on_c, 0, 76, 65
2, 153120, Note_on_c, 0, 64, 50
2, 153240, Note_on_c, 0, 64, 0
2, 153240, Note_on_c, 0, 71, 50
2, 153360, Note_on_c, 0, 71, 0
2, 153360, Note_on_c, 0, 69, 50
2, 153420, Note_on_c, 0, 76, 0
2, 153420, Note_on_c, 0, 77, 60
2, 153480, Note_on_c, 0, 77, 0
2, 153480, Note_on_c, 0, 79, 60
2, 153540, Note_on_c, 0, 79, 0
2, 153540, Note_on_c, 0, 76, 60
2, 153600, Note_on_c, 0, 76, 0
2, 153600, Note_on_c, 0, 69, 0
2, 153600, Note_on_c, 0, 77, 60
2, 153660, Note_on_c, 0, 77, 0
2, 153660, Note_on_c, 0, 76, 60
2, 153660, Note_on_c, 0, 68, 50
2, 153720, Note_on_c, 0, 68, 0
2, 153720, Note_on_c, 0, 76, 0
2, 153720, Note_on_c, 0, 74, 60
2, 153720, Note_on_c, 0, 66, 50
2, 153780, Note_on_c, 0, 66, 0
2, 153780, Note_on_c, 0, 69, 50
2, 153840, Note_on_c, 0, 69, 0
2, 153840, Note_on_c, 0, 68, 50
2, 153900, Note_on_c, 0, 74, 0
2, 153900, Note_on_c, 0, 76, 60
2, 153960, Note_on_c, 0, 76, 0
2, 153960, Note_on_c, 0, 68, 0
2, 153960, Note_on_c, 0, 77, 60
2, 153960, Note_on_c, 0, 69, 50
2, 154020, Note_on_c, 0, 77, 0
2, 154020, Note_on_c, 0, 74, 60
2, 154080, Note_on_c, 0, 74, 0
2, 154080, Note_on_c, 0, 69, 0
2, 154080, Note_on_c, 0, 76, 60
2, 154080, Note_on_c, 0, 71, 50
2, 154140, Note_on_c, 0, 76, 0
2, 154140, Note_on_c, 0, 74, 60
2, 154200, Note_on_c, 0, 74, 0
2, 154200, Note_on_c, 0, 71, 0
2, 154200, Note_on_c, 0, 72, 60
2, 154200, Note_on_c, 0, 69, 50
2, 154260, Note_on_c, 0, 69, 0
2, 154260, Note_on_c, 0, 68, 50
2, 154320, Note_on_c, 0, 68, 0
2, 154320, Note_on_c, 0, 69, 50
2, 154380, Note_on_c, 0, 72, 0
2, 154380, Note_on_c, 0, 74, 60
2, 154440, Note_on_c, 0, 74, 0
2, 154440, Note_on_c, 0, 75, 60
2, 154500, Note_on_c, 0, 75, 0
2, 154500, Note_on_c, 0, 72, 60
2, 154560, Note_on_c, 0, 72, 0
2, 154560, Note_on_c, 0, 69, 0
2, 154560, Note_on_c, 0, 74, 60
2, 154620, Note_on_c, 0, 74, 0
2, 154620, Note_on_c, 0, 72, 60
2, 154680, Note_on_c, 0, 72, 0
2, 154680, Note_on_c, 0, 71, 60
2, 154680, Note_on_c, 0, 67, 50
2, 154740, Note_on_c, 0, 67, 0
2, 154740, Note_on_c, 0, 66, 50
2, 154800, Note_on_c, 0, 66, 0
2, 154800, Note_on_c, 0, 71, 0
2, 154800, Note_on_c, 0, 67, 50
2, 154860, Note_on_c, 0, 72, 60
2, 154920, Note_on_c, 0, 72, 0
2, 154920, Note_on_c, 0, 67, 0
2, 154920, Note_on_c, 0, 74, 60
2, 154980, Note_on_c, 0, 74, 0
2, 154980, Note_on_c, 0, 71, 60
2, 155040, Note_on_c, 0, 71, 0
2, 155040, Note_on_c, 0, 72, 65
2, 155160, Note_on_c, 0, 66, 50
2, 155340, Note_on_c, 0, 66, 0
2, 155340, Note_on_c, 0, 67, 50
2, 155400, Note_on_c, 0, 67, 0
2, 155400, Note_on_c, 0, 69, 50
2, 155460, Note_on_c, 0, 69, 0
2, 155460, Note_on_c, 0, 66, 50
2, 155520, Note_on_c, 0, 66, 0
2, 155520, Note_on_c, 0, 67, 50
2, 155640, Note_on_c, 0, 67, 0
2, 155640, Note_on_c, 0, 65, 50
2, 155700, Note_on_c, 0, 65, 0
2, 155700, Note_on_c, 0, 68, 50
2, 155760, Note_on_c, 0, 68, 0
2, 155760, Note_on_c, 0, 72, 0
2, 155760, Note_on_c, 0, 71, 65
2, 155760, Note_on_c, 0, 67, 50
2, 155820, Note_on_c, 0, 67, 0
2, 155820, Note_on_c, 0, 65, 50
2, 155878, Note_on_c, 0, 65, 0
2, 155880, Note_on_c, 0, 64, 50
2, 155940, Note_on_c, 0, 64, 0
2, 155940, Note_on_c, 0, 62, 50
2, 155998, Note_on_c, 0, 62, 0
2, 155998, Note_on_c, 0, 71, 0
2, 156000, Note_on_c, 0, 72, 65
2, 156000, Note_on_c, 0, 64, 50
2, 156120, Note_on_c, 0, 64, 0
2, 156120, Note_on_c, 0, 67, 50
2, 156240, Note_on_c, 0, 67, 0
2, 156240, Note_on_c, 0, 72, 0
2, 156240, Note_on_c, 0, 64, 50
2, 156360, Note_on_c, 0, 64, 0
2, 156360, Note_on_c, 0, 72, 60
2, 156360, Note_on_c, 0, 67, 50
2, 156480, Note_on_c, 0, 72, 0
2, 156480, Note_on_c, 0, 69, 60
2, 156540, Note_on_c, 0, 67, 0
2, 156540, Note_on_c, 0, 67, 50
2, 156600, Note_on_c, 0, 67, 0
2, 156600, Note_on_c, 0, 65, 50
2, 156660, Note_on_c, 0, 65, 0
2, 156660, Note_on_c, 0, 64, 50
2, 156720, Note_on_c, 0, 64, 0
2, 156720, Note_on_c, 0, 69, 0
2, 156720, Note_on_c, 0, 65, 50
2, 156840, Note_on_c, 0, 65, 0
2, 156840, Note_on_c, 0, 81, 60
2, 156960, Note_on_c, 0, 81, 0
2, 156960, Note_on_c, 0, 77, 60
2, 157080, Note_on_c, 0, 69, 50
2, 157200, Note_on_c, 0, 69, 0
2, 157200, Note_on_c, 0, 77, 0
2, 157200, Note_on_c, 0, 65, 50
2, 157320, Note_on_c, 0, 65, 0
2, 157320, Note_on_c, 0, 74, 60
2, 157320, Note_on_c, 0, 69, 50
2, 157440, Note_on_c, 0, 74, 0
2, 157440, Note_on_c, 0, 70, 60
2, 157498, Note_on_c, 0, 69, 0
2, 157500, Note_on_c, 0, 69, 50
2, 157560, Note_on_c, 0, 69, 0
2, 157560, Note_on_c, 0, 67, 50
2, 157620, Note_on_c, 0, 67, 0
2, 157620, Note_on_c, 0, 66, 50
2, 157680, Note_on_c, 0, 66, 0
2, 157680, Note_on_c, 0, 70, 0
2, 157680, Note_on_c, 0, 67, 50
2, 157800, Note_on_c, 0, 74, 60
2, 157920, Note_on_c, 0, 74, 0
2, 157920, Note_on_c, 0, 67, 0
2, 157920, Note_on_c, 0, 79, 60
2, 158040, Note_on_c, 0, 76, 50
2, 158160, Note_on_c, 0, 76, 0
2, 158160, Note_on_c, 0, 73, 50
2, 158280, Note_on_c, 0, 73, 0
2, 158280, Note_on_c, 0, 74, 50
2, 158460, Note_on_c, 0, 74, 0
2, 158460, Note_on_c, 0, 71, 55
2, 158520, Note_on_c, 0, 71, 0
2, 158520, Note_on_c, 0, 73, 56
2, 158580, Note_on_c, 0, 73, 0
2, 158580, Note_on_c, 0, 74, 57
2, 158640, Note_on_c, 0, 74, 0
2, 158640, Note_on_c, 0, 76, 58
2, 158700, Note_on_c, 0, 79, 0
2, 158700, Note_on_c, 0, 79, 60
2, 158760, Note_on_c, 0, 79, 0
2, 158760, Note_on_c, 0, 77, 60
2, 158820, Note_on_c, 0, 77, 0
2, 158820, Note_on_c, 0, 76, 60
2, 158878, Note_on_c, 0, 76, 0
2, 158880, Note_on_c, 0, 77, 55
2, 158940, Note_on_c, 0, 76, 0
2, 158941, Note_on_c, 0, 76, 50
2, 158998, Note_on_c, 0, 76, 0
2, 159000, Note_on_c, 0, 74, 50
2, 159060, Note_on_c, 0, 74, 0
2, 159060, Note_on_c, 0, 73, 50
2, 159120, Note_on_c, 0, 73, 0
2, 159120, Note_on_c, 0, 77, 0
2, 159120, Note_on_c, 0, 74, 50
2, 159180, Note_on_c, 0, 79, 56
2, 159240, Note_on_c, 0, 79, 0
2, 159240, Note_on_c, 0, 81, 57
2, 159300, Note_on_c, 0, 81, 0
2, 159300, Note_on_c, 0, 82, 57
2, 159360, Note_on_c, 0, 82, 0
2, 159360, Note_on_c, 0, 74, 0
2, 159360, Note_on_c, 0, 84, 58
2, 159420, Note_on_c, 0, 84, 0
2, 159420, Note_on_c, 0, 77, 57
2, 159480, Note_on_c, 0, 77, 0
2, 159480, Note_on_c, 0, 75, 56
2, 159540, Note_on_c, 0, 75, 0
2, 159540, Note_on_c, 0, 74, 56
2, 159600, Note_on_c, 0, 74, 0
2, 159600, Note_on_c, 0, 75, 57
2, 159660, Note_on_c, 0, 70, 50
2, 159720, Note_on_c, 0, 70, 0
2, 159720, Note_on_c, 0, 69, 50
2, 159780, Note_on_c, 0, 69, 0
2, 159780, Note_on_c, 0, 67, 50
2, 159840, Note_on_c, 0, 67, 0
2, 159840, Note_on_c, 0, 65, 50
2, 159900, Note_on_c, 0, 65, 0
2, 159900, Note_on_c, 0, 72, 50
2, 159960, Note_on_c, 0, 72, 0
2, 159960, Note_on_c, 0, 75, 0
2, 159960, Note_on_c, 0, 74, 56
2, 159960, Note_on_c, 0, 70, 50
2, 160020, Note_on_c, 0, 70, 0
2, 160020, Note_on_c, 0, 69, 50
2, 160080, Note_on_c, 0, 69, 0
2, 160080, Note_on_c, 0, 74, 0
2, 160080, Note_on_c, 0, 70, 50
2, 160140, Note_on_c, 0, 76, 57
2, 160200, Note_on_c, 0, 76, 0
2, 160200, Note_on_c, 0, 70, 0
2, 160200, Note_on_c, 0, 78, 58
2, 160260, Note_on_c, 0, 78, 0
2, 160260, Note_on_c, 0, 79, 59
2, 160320, Note_on_c, 0, 79, 0
2, 160320, Note_on_c, 0, 81, 60
2, 160380, Note_on_c, 0, 81, 0
2, 160380, Note_on_c, 0, 74, 56
2, 160440, Note_on_c, 0, 74, 0
2, 160440, Note_on_c, 0, 72, 55
2, 160500, Note_on_c, 0, 72, 0
2, 160500, Note_on_c, 0, 70, 55
2, 160560, Note_on_c, 0, 70, 0
2, 160560, Note_on_c, 0, 72, 56
2, 160620, Note_on_c, 0, 67, 50
2, 160680, Note_on_c, 0, 67, 0
2, 160680, Note_on_c, 0, 66, 50
2, 160740, Note_on_c, 0, 66, 0
2, 160740, Note_on_c, 0, 64, 50
2, 160800, Note_on_c, 0, 64, 0
2, 160800, Note_on_c, 0, 62, 50
2, 160860, Note_on_c, 0, 72, 0
2, 160860, Note_on_c, 0, 70, 55
2, 160920, Note_on_c, 0, 70, 0
2, 160920, Note_on_c, 0, 62, 0
2, 160920, Note_on_c, 0, 72, 56
2, 160980, Note_on_c, 0, 72, 0
2, 160980, Note_on_c, 0, 75, 57
2, 161040, Note_on_c, 0, 75, 0
2, 161040, Note_on_c, 0, 74, 56
2, 161100, Note_on_c, 0, 67, 50
2, 161160, Note_on_c, 0, 67, 0
2, 161160, Note_on_c, 0, 69, 50
2, 161220, Note_on_c, 0, 69, 0
2, 161220, Note_on_c, 0, 70, 50
2, 161280, Note_on_c, 0, 70, 0
2, 161280, Note_on_c, 0, 63, 50
2, 161400, Note_on_c, 0, 63, 0
2, 161400, Note_on_c, 0, 74, 0
2, 161400, Note_on_c, 0, 72, 55
2, 161460, Note_on_c, 0, 72, 0
2, 161460, Note_on_c, 0, 74, 56
2, 161520, Note_on_c, 0, 74, 0
2, 161520, Note_on_c, 0, 76, 57
2, 161580, Note_on_c, 0, 69, 50
2, 161640, Note_on_c, 0, 69, 0
2, 161640, Note_on_c, 0, 70, 50
2, 161700, Note_on_c, 0, 70, 0
2, 161700, Note_on_c, 0, 72, 50
2, 161760, Note_on_c, 0, 72, 0
2, 161760, Note_on_c, 0, 66, 50
2, 161880, Note_on_c, 0, 66, 0
2, 161880, Note_on_c, 0, 76, 0
2, 161880, Note_on_c, 0, 74, 56
2, 161940, Note_on_c, 0, 74, 0
2, 161940, Note_on_c, 0, 75, 57
2, 162000, Note_on_c, 0, 75, 0
2, 162000, Note_on_c, 0, 77, 58
2, 162060, Note_on_c, 0, 70, 50
2, 162120, Note_on_c, 0, 70, 0
2, 162120, Note_on_c, 0, 74, 50
2, 162180, Note_on_c, 0, 74, 0
2, 162180, Note_on_c, 0, 68, 50
2, 162240, Note_on_c, 0, 68, 0
2, 162240, Note_on_c, 0, 67, 50
2, 162360, Note_on_c, 0, 67, 0
2, 162360, Note_on_c, 0, 77, 0
2, 162360, Note_on_c, 0, 75, 57
2, 162420, Note_on_c, 0, 75, 0
2, 162420, Note_on_c, 0, 77, 59
2, 162480, Note_on_c, 0, 77, 0
2, 162480, Note_on_c, 0, 79, 60
2, 162540, Note_on_c, 0, 69, 50
2, 162600, Note_on_c, 0, 69, 0
2, 162600, Note_on_c, 0, 70, 50
2, 162660, Note_on_c, 0, 70, 0
2, 162660, Note_on_c, 0, 67, 50
2, 162720, Note_on_c, 0, 67, 0
2, 162720, Note_on_c, 0, 69, 50
2, 162840, Note_on_c, 0, 69, 0
2, 162840, Note_on_c, 0, 79, 0
2, 162840, Note_on_c, 0, 77, 60
2, 162900, Note_on_c, 0, 77, 0
2, 162900, Note_on_c, 0, 79, 63
2, 162960, Note_on_c, 0, 79, 0
2, 162960, Note_on_c, 0, 81, 64
2, 163200, Note_on_c, 0, 81, 0
2, 163260, Note_on_c, 0, 74, 65
2, 163320, Note_on_c, 0, 79, 68
2, 163380, Note_on_c, 0, 74, 0
2, 163500, Note_on_c, 0, 75, 50
2, 163560, Note_on_c, 0, 75, 0
2, 163560, Note_on_c, 0, 79, 0
2, 163560, Note_on_c, 0, 78, 68
2, 163560, Note_on_c, 0, 74, 50
2, 163620, Note_on_c, 0, 74, 0
2, 163620, Note_on_c, 0, 72, 50
2, 163680, Note_on_c, 0, 72, 0
2, 163680, Note_on_c, 0, 78, 0
2, 163680, Note_on_c, 0, 79, 70
2, 163680, Note_on_c, 0, 70, 50
2, 163800, Note_on_c, 0, 70, 0
2, 163800, Note_on_c, 0, 79, 0
2, 163980, Note_on_c, 0, 72, 50
2, 164040, Note_on_c, 0, 72, 0
2, 164040, Note_on_c, 0, 79, 60
2, 164040, Note_on_c, 0, 70, 50
2, 164100, Note_on_c, 0, 70, 0
2, 164100, Note_on_c, 0, 69, 50
2, 164160, Note_on_c, 0, 69, 0
2, 164160, Note_on_c, 0, 79, 0
2, 164160, Note_on_c, 0, 76, 60
2, 164160, Note_on_c, 0, 67, 50
2, 164400, Note_on_c, 0, 67, 0
2, 164400, Note_on_c, 0, 76, 0
2, 164460, Note_on_c, 0, 77, 55
2, 164520, Note_on_c, 0, 77, 0
2, 164520, Note_on_c, 0, 76, 55
2, 164520, Note_on_c, 0, 67, 50
2, 164580, Note_on_c, 0, 76, 0
2, 164580, Note_on_c, 0, 74, 55
2, 164638, Note_on_c, 0, 74, 0
2, 164638, Note_on_c, 0, 67, 0
2, 164640, Note_on_c, 0, 72, 55
2, 164640, Note_on_c, 0, 64, 50
2, 164880, Note_on_c, 0, 64, 0
2, 164880, Note_on_c, 0, 72, 0
2, 164940, Note_on_c, 0, 70, 50
2, 165000, Note_on_c, 0, 70, 0
2, 165000, Note_on_c, 0, 72, 60
2, 165000, Note_on_c, 0, 69, 50
2, 165060, Note_on_c, 0, 69, 0
2, 165060, Note_on_c, 0, 67, 50
2, 165120, Note_on_c, 0, 67, 0
2, 165120, Note_on_c, 0, 72, 0
2, 165120, Note_on_c, 0, 69, 60
2, 165120, Note_on_c, 0, 65, 50
2, 165360, Note_on_c, 0, 65, 0
2, 165360, Note_on_c, 0, 69, 0
2, 165420, Note_on_c, 0, 79, 55
2, 165480, Note_on_c, 0, 79, 0
2, 165480, Note_on_c, 0, 77, 55
2, 165480, Note_on_c, 0, 69, 50
2, 165540, Note_on_c, 0, 77, 0
2, 165540, Note_on_c, 0, 76, 55
2, 165600, Note_on_c, 0, 76, 0
2, 165600, Note_on_c, 0, 69, 0
2, 165600, Note_on_c, 0, 74, 55
2, 165600, Note_on_c, 0, 65, 50
2, 165660, Note_on_c, 0, 74, 0
2, 165660, Note_on_c, 0, 75, 55
2, 165720, Note_on_c, 0, 75, 0
2, 165720, Note_on_c, 0, 74, 55
2, 165780, Note_on_c, 0, 74, 0
2, 165780, Note_on_c, 0, 73, 55
2, 165840, Note_on_c, 0, 73, 0
2, 165840, Note_on_c, 0, 74, 55
2, 165900, Note_on_c, 0, 65, 0
2, 165900, Note_on_c, 0, 67, 50
2, 165960, Note_on_c, 0, 67, 0
2, 165960, Note_on_c, 0, 65, 50
2, 166020, Note_on_c, 0, 65, 0
2, 166020, Note_on_c, 0, 64, 50
2, 166080, Note_on_c, 0, 64, 0
2, 166080, Note_on_c, 0, 62, 50
2, 166140, Note_on_c, 0, 74, 0
2, 166140, Note_on_c, 0, 75, 55
2, 166200, Note_on_c, 0, 75, 0
2, 166200, Note_on_c, 0, 62, 0
2, 166200, Note_on_c, 0, 65, 50
2, 166260, Note_on_c, 0, 73, 55
2, 166320, Note_on_c, 0, 73, 0
2, 166320, Note_on_c, 0, 74, 55
2, 166380, Note_on_c, 0, 65, 0
2, 166380, Note_on_c, 0, 67, 50
2, 166440, Note_on_c, 0, 67, 0
2, 166440, Note_on_c, 0, 65, 50
2, 166500, Note_on_c, 0, 65, 0
2, 166500, Note_on_c, 0, 64, 50
2, 166560, Note_on_c, 0, 64, 0
2, 166560, Note_on_c, 0, 62, 50
2, 166620, Note_on_c, 0, 74, 0
2, 166620, Note_on_c, 0, 75, 55
2, 166680, Note_on_c, 0, 75, 0
2, 166680, Note_on_c, 0, 62, 0
2, 166680, Note_on_c, 0, 74, 55
2, 166680, Note_on_c, 0, 64, 50
2, 166740, Note_on_c, 0, 74, 0
2, 166740, Note_on_c, 0, 73, 55
2, 166800, Note_on_c, 0, 73, 0
2, 166800, Note_on_c, 0, 64, 0
2, 166800, Note_on_c, 0, 74, 55
2, 166800, Note_on_c, 0, 65, 50
2, 166860, Note_on_c, 0, 65, 0
2, 166860, Note_on_c, 0, 69, 50
2, 166920, Note_on_c, 0, 69, 0
2, 166920, Note_on_c, 0, 71, 50
2, 166980, Note_on_c, 0, 71, 0
2, 166980, Note_on_c, 0, 74, 0
2, 166980, Note_on_c, 0, 76, 55
2, 166980, Note_on_c, 0, 73, 50
2, 167040, Note_on_c, 0, 73, 0
2, 167040, Note_on_c, 0, 77, 55
2, 167040, Note_on_c, 0, 74, 55
2, 167100, Note_on_c, 0, 76, 0
2, 167160, Note_on_c, 0, 74, 0
2, 167160, Note_on_c, 0, 77, 0
2, 167160, Note_on_c, 0, 81, 55
2, 167160, Note_on_c, 0, 77, 55
2, 167280, Note_on_c, 0, 77, 0
2, 167280, Note_on_c, 0, 81, 0
2, 167280, Note_on_c, 0, 77, 55
2, 167280, Note_on_c, 0, 74, 55
2, 167400, Note_on_c, 0, 74, 0
2, 167400, Note_on_c, 0, 77, 0
2, 167400, Note_on_c, 0, 69, 50
2, 167520, Note_on_c, 0, 69, 0
2, 167520, Note_on_c, 0, 74, 53
2, 167520, Note_on_c, 0, 65, 60
2, 167640, Note_on_c, 0, 74, 0
2, 167640, Note_on_c, 0, 69, 50
2, 167760, Note_on_c, 0, 65, 0
2, 167760, Note_on_c, 0, 60, 60
2, 167880, Note_on_c, 0, 69, 0
2, 167880, Note_on_c, 0, 72, 50
2, 168000, Note_on_c, 0, 60, 0
2, 168000, Note_on_c, 0, 64, 60
2, 168120, Note_on_c, 0, 72, 0
2, 168120, Note_on_c, 0, 76, 50
2, 168240, Note_on_c, 0, 64, 0
2, 168240, Note_on_c, 0, 68, 60
2, 168360, Note_on_c, 0, 76, 0
2, 168360, Note_on_c, 0, 77, 50
2, 168480, Note_on_c, 0, 68, 0
2, 168480, Note_on_c, 0, 69, 60
2, 168600, Note_on_c, 0, 77, 0
2, 168600, Note_on_c, 0, 76, 50
2, 168720, Note_on_c, 0, 69, 0
2, 168720, Note_on_c, 0, 67, 60
2, 168840, Note_on_c, 0, 67, 0
2, 168840, Note_on_c, 0, 76, 0
2, 168840, Note_on_c, 0, 74, 50
2, 168840, Note_on_c, 0, 65, 60
2, 168958, Note_on_c, 0, 65, 0
2, 168960, Note_on_c, 0, 64, 60
2, 169080, Note_on_c, 0, 74, 0
2, 169080, Note_on_c, 0, 73, 50
2, 169200, Note_on_c, 0, 64, 0
2, 169200, Note_on_c, 0, 64, 50
2, 169258, Note_on_c, 0, 64, 0
2, 169260, Note_on_c, 0, 73, 0
2, 169260, Note_on_c, 0, 69, 50
2, 169260, Note_on_c, 0, 61, 50
2, 169320, Note_on_c, 0, 61, 0
2, 169320, Note_on_c, 0, 69, 0
2, 169320, Note_on_c, 0, 71, 50
2, 169320, Note_on_c, 0, 62, 50
2, 169380, Note_on_c, 0, 62, 0
2, 169380, Note_on_c, 0, 71, 0
2, 169380, Note_on_c, 0, 73, 50
2, 169380, Note_on_c, 0, 64, 50
2, 169440, Note_on_c, 0, 64, 0
2, 169440, Note_on_c, 0, 73, 0
2, 169440, Note_on_c, 0, 74, 50
2, 169440, Note_on_c, 0, 57, 50
2, 169560, Note_on_c, 0, 57, 0
2, 169560, Note_on_c, 0, 69, 50
2, 169680, Note_on_c, 0, 69, 0
2, 169680, Note_on_c, 0, 74, 0
2, 169680, Note_on_c, 0, 66, 50
2, 169800, Note_on_c, 0, 74, 50
2, 169920, Note_on_c, 0, 74, 0
2, 169920, Note_on_c, 0, 66, 0
2, 169920, Note_on_c, 0, 70, 50
2, 169980, Note_on_c, 0, 66, 50
2, 170040, Note_on_c, 0, 66, 0
2, 170040, Note_on_c, 0, 67, 50
2, 170100, Note_on_c, 0, 67, 0
2, 170100, Note_on_c, 0, 69, 50
2, 170160, Note_on_c, 0, 69, 0
2, 170160, Note_on_c, 0, 70, 0
2, 170160, Note_on_c, 0, 67, 50
2, 170220, Note_on_c, 0, 67, 0
2, 170220, Note_on_c, 0, 65, 50
2, 170280, Note_on_c, 0, 65, 0
2, 170280, Note_on_c, 0, 64, 50
2, 170340, Note_on_c, 0, 64, 0
2, 170340, Note_on_c, 0, 62, 50
2, 170400, Note_on_c, 0, 62, 0
2, 170400, Note_on_c, 0, 60, 50
2, 170460, Note_on_c, 0, 70, 50
2, 170520, Note_on_c, 0, 70, 0
2, 170520, Note_on_c, 0, 60, 0
2, 170520, Note_on_c, 0, 72, 50
2, 170580, Note_on_c, 0, 72, 0
2, 170580, Note_on_c, 0, 74, 50
2, 170640, Note_on_c, 0, 74, 0
2, 170640, Note_on_c, 0, 72, 50
2, 170700, Note_on_c, 0, 72, 0
2, 170700, Note_on_c, 0, 70, 50
2, 170760, Note_on_c, 0, 70, 0
2, 170760, Note_on_c, 0, 69, 50
2, 170820, Note_on_c, 0, 69, 0
2, 170820, Note_on_c, 0, 67, 50
2, 170880, Note_on_c, 0, 67, 0
2, 170880, Note_on_c, 0, 69, 50
2, 170940, Note_on_c, 0, 64, 50
2, 171000, Note_on_c, 0, 64, 0
2, 171000, Note_on_c, 0, 65, 50
2, 171060, Note_on_c, 0, 65, 0
2, 171060, Note_on_c, 0, 67, 50
2, 171120, Note_on_c, 0, 67, 0
2, 171120, Note_on_c, 0, 65, 50
2, 171180, Note_on_c, 0, 65, 0
2, 171180, Note_on_c, 0, 63, 50
2, 171240, Note_on_c, 0, 63, 0
2, 171240, Note_on_c, 0, 62, 50
2, 171300, Note_on_c, 0, 62, 0
2, 171300, Note_on_c, 0, 61, 50
2, 171360, Note_on_c, 0, 61, 0
2, 171360, Note_on_c, 0, 62, 50
2, 171480, Note_on_c, 0, 62, 0
2, 171480, Note_on_c, 0, 69, 0
2, 171480, Note_on_c, 0, 67, 57
2, 171600, Note_on_c, 0, 67, 0
2, 171600, Note_on_c, 0, 72, 57
2, 171720, Note_on_c, 0, 64, 50
2, 171840, Note_on_c, 0, 64, 0
2, 171840, Note_on_c, 0, 72, 0
2, 171840, Note_on_c, 0, 60, 50
2, 171960, Note_on_c, 0, 60, 0
2, 171960, Note_on_c, 0, 69, 57
2, 172080, Note_on_c, 0, 69, 0
2, 172080, Note_on_c, 0, 74, 57
2, 172200, Note_on_c, 0, 66, 50
2, 172320, Note_on_c, 0, 66, 0
2, 172320, Note_on_c, 0, 62, 50
2, 172440, Note_on_c, 0, 62, 0
2, 172440, Note_on_c, 0, 74, 0
2, 172440, Note_on_c, 0, 71, 57
2, 172560, Note_on_c, 0, 71, 0
2, 172560, Note_on_c, 0, 76, 57
2, 172680, Note_on_c, 0, 68, 50
2, 172800, Note_on_c, 0, 68, 0
2, 172800, Note_on_c, 0, 64, 50
2, 172860, Note_on_c, 0, 76, 0
2, 172860, Note_on_c, 0, 77, 57
2, 172920, Note_on_c, 0, 77, 0
2, 172920, Note_on_c, 0, 64, 0
2, 172920, Note_on_c, 0, 79, 57
2, 172980, Note_on_c, 0, 79, 0
2, 172980, Note_on_c, 0, 74, 57
2, 173040, Note_on_c, 0, 74, 0
2, 173040, Note_on_c, 0, 73, 57
2, 173100, Note_on_c, 0, 73, 0
2, 173100, Note_on_c, 0, 82, 57
2, 173160, Note_on_c, 0, 82, 0
2, 173160, Note_on_c, 0, 81, 57
2, 173220, Note_on_c, 0, 81, 0
2, 173220, Note_on_c, 0, 79, 57
2, 173278, Note_on_c, 0, 79, 0
2, 173280, Note_on_c, 0, 77, 57
2, 173340, Note_on_c, 0, 74, 50
2, 173400, Note_on_c, 0, 74, 0
2, 173400, Note_on_c, 0, 73, 50
2, 173460, Note_on_c, 0, 73, 0
2, 173460, Note_on_c, 0, 76, 50
2, 173520, Note_on_c, 0, 76, 0
2, 173520, Note_on_c, 0, 74, 50
2, 173580, Note_on_c, 0, 74, 0
2, 173580, Note_on_c, 0, 72, 50
2, 173640, Note_on_c, 0, 72, 0
2, 173640, Note_on_c, 0, 70, 50
2, 173700, Note_on_c, 0, 70, 0
2, 173700, Note_on_c, 0, 69, 50
2, 173760, Note_on_c, 0, 69, 0
2, 173760, Note_on_c, 0, 70, 50
2, 173820, Note_on_c, 0, 70, 0
2, 173820, Note_on_c, 0, 69, 50
2, 173880, Note_on_c, 0, 69, 0
2, 173880, Note_on_c, 0, 77, 0
2, 173880, Note_on_c, 0, 76, 57
2, 173880, Note_on_c, 0, 67, 50
2, 173940, Note_on_c, 0, 76, 0
2, 173940, Note_on_c, 0, 74, 57
2, 174000, Note_on_c, 0, 74, 0
2, 174000, Note_on_c, 0, 67, 0
2, 174000, Note_on_c, 0, 76, 57
2, 174060, Note_on_c, 0, 69, 50
2, 174120, Note_on_c, 0, 69, 0
2, 174120, Note_on_c, 0, 70, 50
2, 174180, Note_on_c, 0, 70, 0
2, 174180, Note_on_c, 0, 67, 50
2, 174240, Note_on_c, 0, 67, 0
2, 174240, Note_on_c, 0, 69, 50
2, 174300, Note_on_c, 0, 69, 0
2, 174300, Note_on_c, 0, 67, 50
2, 174360, Note_on_c, 0, 67, 0
2, 174360, Note_on_c, 0, 76, 0
2, 174360, Note_on_c, 0, 74, 50
2, 174360, Note_on_c, 0, 65, 50
2, 174420, Note_on_c, 0, 74, 0
2, 174420, Note_on_c, 0, 73, 50
2, 174480, Note_on_c, 0, 73, 0
2, 174480, Note_on_c, 0, 74, 50
2, 174540, Note_on_c, 0, 65, 0
2, 174540, Note_on_c, 0, 67, 50
2, 174600, Note_on_c, 0, 67, 0
2, 174600, Note_on_c, 0, 69, 50
2, 174660, Note_on_c, 0, 69, 0
2, 174660, Note_on_c, 0, 65, 50
2, 174720, Note_on_c, 0, 65, 0
2, 174720, Note_on_c, 0, 74, 0
2, 174720, Note_on_c, 0, 67, 50
2, 174780, Note_on_c, 0, 67, 0
2, 174780, Note_on_c, 0, 65, 50
2, 174840, Note_on_c, 0, 65, 0
2, 174840, Note_on_c, 0, 72, 50
2, 174840, Note_on_c, 0, 63, 50
2, 174900, Note_on_c, 0, 72, 0
2, 174900, Note_on_c, 0, 70, 50
2, 174960, Note_on_c, 0, 70, 0
2, 174960, Note_on_c, 0, 72, 50
2, 175020, Note_on_c, 0, 63, 0
2, 175020, Note_on_c, 0, 66, 50
2, 175080, Note_on_c, 0, 66, 0
2, 175080, Note_on_c, 0, 67, 50
2, 175140, Note_on_c, 0, 67, 0
2, 175140, Note_on_c, 0, 64, 50
2, 175200, Note_on_c, 0, 64, 0
2, 175200, Note_on_c, 0, 66, 50
2, 175260, Note_on_c, 0, 66, 0
2, 175260, Note_on_c, 0, 67, 50
2, 175320, Note_on_c, 0, 67, 0
2, 175320, Note_on_c, 0, 69, 50
2, 175440, Note_on_c, 0, 69, 0
2, 175440, Note_on_c, 0, 62, 50
2, 175500, Note_on_c, 0, 72, 0
2, 175500, Note_on_c, 0, 70, 50
2, 175560, Note_on_c, 0, 70, 0
2, 175560, Note_on_c, 0, 62, 0
2, 175560, Note_on_c, 0, 72, 50
2, 175620, Note_on_c, 0, 72, 0
2, 175620, Note_on_c, 0, 69, 50
2, 175680, Note_on_c, 0, 69, 0
2, 175680, Note_on_c, 0, 70, 50
2, 175740, Note_on_c, 0, 70, 0
2, 175740, Note_on_c, 0, 74, 50
2, 175800, Note_on_c, 0, 74, 0
2, 175800, Note_on_c, 0, 75, 50
2, 175860, Note_on_c, 0, 75, 0
2, 175860, Note_on_c, 0, 72, 50
2, 175920, Note_on_c, 0, 72, 0
2, 175920, Note_on_c, 0, 74, 50
2, 175980, Note_on_c, 0, 74, 0
2, 175980, Note_on_c, 0, 79, 50
2, 176040, Note_on_c, 0, 79, 0
2, 176040, Note_on_c, 0, 74, 50
2, 176100, Note_on_c, 0, 74, 0
2, 176100, Note_on_c, 0, 72, 50
2, 176160, Note_on_c, 0, 72, 0
2, 176220, Note_on_c, 0, 70, 50
2, 176280, Note_on_c, 0, 70, 0
2, 176280, Note_on_c, 0, 72, 50
2, 176280, Note_on_c, 0, 57, 50
2, 176340, Note_on_c, 0, 72, 0
2, 176340, Note_on_c, 0, 75, 50
2, 176400, Note_on_c, 0, 75, 0
2, 176400, Note_on_c, 0, 57, 0
2, 176400, Note_on_c, 0, 74, 50
2, 176400, Note_on_c, 0, 58, 50
2, 176460, Note_on_c, 0, 74, 0
2, 176460, Note_on_c, 0, 72, 50
2, 176520, Note_on_c, 0, 72, 0
2, 176520, Note_on_c, 0, 58, 0
2, 176520, Note_on_c, 0, 70, 50
2, 176520, Note_on_c, 0, 60, 50
2, 176580, Note_on_c, 0, 70, 0
2, 176580, Note_on_c, 0, 69, 50
2, 176640, Note_on_c, 0, 69, 0
2, 176640, Note_on_c, 0, 60, 0
2, 176640, Note_on_c, 0, 67, 50
2, 176640, Note_on_c, 0, 62, 50
2, 176700, Note_on_c, 0, 67, 0
2, 176700, Note_on_c, 0, 66, 50
2, 176760, Note_on_c, 0, 66, 0
2, 176760, Note_on_c, 0, 67, 50
2, 176880, Note_on_c, 0, 67, 0
2, 176880, Note_on_c, 0, 62, 0
2, 177000, Note_on_c, 0, 69, 50
2, 177000, Note_on_c, 0, 57, 50
2, 177120, Note_on_c, 0, 57, 0
2, 177120, Note_on_c, 0, 69, 0
2, 177120, Note_on_c, 0, 68, 50
2, 177120, Note_on_c, 0, 59, 50
2, 177360, Note_on_c, 0, 59, 0
2, 177360, Note_on_c, 0, 68, 0
2, 177360, Note_on_c, 0, 69, 50
2, 177480, Note_on_c, 0, 69, 0
2, 177480, Note_on_c, 0, 65, 50
2, 177598, Note_on_c, 0, 65, 0
2, 177720, Note_on_c, 0, 64, 50
2, 177840, Note_on_c, 0, 64, 0
2, 177900, Note_on_c, 0, 81, 50
2, 177960, Note_on_c, 0, 81, 0
2, 177960, Note_on_c, 0, 79, 50
2, 178020, Note_on_c, 0, 79, 0
2, 178020, Note_on_c, 0, 76, 50
2, 178080, Note_on_c, 0, 76, 0
2, 178080, Note_on_c, 0, 77, 50
2, 178080, Note_on_c, 0, 69, 60
2, 178140, Note_on_c, 0, 77, 0
2, 178140, Note_on_c, 0, 81, 50
2, 178200, Note_on_c, 0, 81, 0
2, 178200, Note_on_c, 0, 74, 50
2, 178260, Note_on_c, 0, 74, 0
2, 178260, Note_on_c, 0, 73, 50
2, 178320, Note_on_c, 0, 73, 0
2, 178320, Note_on_c, 0, 69, 0
2, 178320, Note_on_c, 0, 74, 50
2, 178320, Note_on_c, 0, 62, 60
2, 178560, Note_on_c, 0, 62, 0
2, 178560, Note_on_c, 0, 65, 60
2, 178620, Note_on_c, 0, 74, 0
2, 178620, Note_on_c, 0, 77, 50
2, 178680, Note_on_c, 0, 77, 0
2, 178680, Note_on_c, 0, 76, 50
2, 178740, Note_on_c, 0, 76, 0
2, 178740, Note_on_c, 0, 74, 50
2, 178800, Note_on_c, 0, 74, 0
2, 178800, Note_on_c, 0, 65, 0
2, 178800, Note_on_c, 0, 73, 50
2, 178800, Note_on_c, 0, 69, 60
2, 178860, Note_on_c, 0, 73, 0
2, 178860, Note_on_c, 0, 74, 50
2, 178920, Note_on_c, 0, 74, 0
2, 178920, Note_on_c, 0, 71, 50
2, 178980, Note_on_c, 0, 71, 0
2, 178980, Note_on_c, 0, 73, 50
2, 179040, Note_on_c, 0, 73, 0
2, 179040, Note_on_c, 0, 69, 0
2, 179040, Note_on_c, 0, 74, 50
2, 179040, Note_on_c, 0, 70, 60
2, 179220, Note_on_c, 0, 74, 0
2, 179220, Note_on_c, 0, 73, 50
2, 179280, Note_on_c, 0, 70, 0
2, 179280, Note_on_c, 0, 74, 50
2, 179280, Note_on_c, 0, 69, 60
2, 179340, Note_on_c, 0, 73, 0
2, 179400, Note_on_c, 0, 69, 0
2, 179400, Note_on_c, 0, 67, 60
2, 179460, Note_on_c, 0, 74, 0
2, 179460, Note_on_c, 0, 73, 50
2, 179520, Note_on_c, 0, 67, 0
2, 179520, Note_on_c, 0, 74, 50
2, 179520, Note_on_c, 0, 66, 60
2, 179580, Note_on_c, 0, 73, 0
2, 179700, Note_on_c, 0, 74, 0
2, 179700, Note_on_c, 0, 75, 50
2, 179760, Note_on_c, 0, 75, 0
2, 179760, Note_on_c, 0, 69, 50
2, 179820, Note_on_c, 0, 66, 0
2, 179820, Note_on_c, 0, 62, 60
2, 179880, Note_on_c, 0, 62, 0
2, 179880, Note_on_c, 0, 69, 0
2, 179880, Note_on_c, 0, 64, 60
2, 179940, Note_on_c, 0, 64, 0
2, 179940, Note_on_c, 0, 66, 60
2, 180000, Note_on_c, 0, 66, 0
2, 180000, Note_on_c, 0, 67, 60
2, 180060, Note_on_c, 0, 74, 50
2, 180120, Note_on_c, 0, 74, 0
2, 180120, Note_on_c, 0, 76, 50
2, 180180, Note_on_c, 0, 76, 0
2, 180180, Note_on_c, 0, 79, 50
2, 180240, Note_on_c, 0, 79, 0
2, 180240, Note_on_c, 0, 67, 0
2, 180240, Note_on_c, 0, 73, 50
2, 180240, Note_on_c, 0, 67, 60
2, 180300, Note_on_c, 0, 67, 0
2, 180300, Note_on_c, 0, 66, 50
2, 180360, Note_on_c, 0, 66, 0
2, 180360, Note_on_c, 0, 67, 50
2, 180420, Note_on_c, 0, 67, 0
2, 180420, Note_on_c, 0, 64, 50
2, 180480, Note_on_c, 0, 64, 0
2, 180480, Note_on_c, 0, 73, 0
2, 180480, Note_on_c, 0, 74, 50
2, 180480, Note_on_c, 0, 66, 50
2, 180958, Note_on_c, 0, 66, 0
2, 180958, Note_on_c, 0, 74, 0
2, 181920, Control_c, 0, 121, 0
2, 181920, Control_c, 0, 121, 0
2, 181920, Note_on_c, 0, 69, 90
2, 182160, Note_on_c, 0, 69, 0
2, 182160, Control_c, 0, 91, 40
2, 182160, Control_c, 0, 10, 32
2, 182160, Control_c, 0, 0, 8
2, 182160, Note_on_c, 0, 62, 90
2, 182340, Note_on_c, 0, 62, 0
2, 182340, Note_on_c, 0, 64, 90
2, 182400, Note_on_c, 0, 64, 0
2, 182400, Note_on_c, 0, 65, 90
2, 182580, Note_on_c, 0, 65, 0
2, 182580, Note_on_c, 0, 67, 90
2, 182640, Note_on_c, 0, 67, 0
2, 182640, Note_on_c, 0, 69, 90
2, 182880, Note_on_c, 0, 69, 0
2, 182880, Note_on_c, 0, 70, 90
2, 183120, Note_on_c, 0, 70, 0
2, 183120, Note_on_c, 0, 69, 90
2, 183300, Note_on_c, 0, 69, 0
2, 183300, Note_on_c, 0, 67, 90
2, 183360, Note_on_c, 0, 67, 0
2, 183360, Note_on_c, 0, 65, 90
2, 183660, Note_on_c, 0, 65, 0
2, 183660, Note_on_c, 0, 64, 90
2, 183720, Note_on_c, 0, 64, 0
2, 183720, Note_on_c, 0, 65, 90
2, 183780, Note_on_c, 0, 65, 0
2, 183780, Note_on_c, 0, 67, 90
2, 183840, Note_on_c, 0, 67, 0
2, 183840, Note_on_c, 0, 69, 90
2, 183900, Note_on_c, 0, 69, 0
2, 183900, Note_on_c, 0, 70, 90
2, 183960, Note_on_c, 0, 70, 0
2, 183960, Note_on_c, 0, 72, 90
2, 184140, Note_on_c, 0, 72, 0
2, 184140, Note_on_c, 0, 70, 90
2, 184200, Note_on_c, 0, 70, 0
2, 184200, Note_on_c, 0, 69, 90
2, 184260, Note_on_c, 0, 69, 0
2, 184260, Note_on_c, 0, 70, 90
2, 184320, Note_on_c, 0, 70, 0
2, 184320, Note_on_c, 0, 64, 90
2, 184380, Note_on_c, 0, 64, 0
2, 184380, Note_on_c, 0, 65, 90
2, 184440, Note_on_c, 0, 65, 0
2, 184440, Note_on_c, 0, 67, 90
2, 184620, Note_on_c, 0, 67, 0
2, 184620, Note_on_c, 0, 69, 90
2, 184680, Note_on_c, 0, 69, 0
2, 184680, Note_on_c, 0, 65, 90
2, 184740, Note_on_c, 0, 65, 0
2, 184740, Note_on_c, 0, 67, 90
2, 184800, Note_on_c, 0, 67, 0
2, 184800, Control_c, 0, 91, 40
2, 184800, Control_c, 0, 0, 0
2, 184800, Note_on_c, 0, 74, 90
2, 184800, Note_on_c, 0, 69, 90
2, 184860, Note_on_c, 0, 69, 0
2, 184860, Note_on_c, 0, 67, 90
2, 184920, Note_on_c, 0, 67, 0
2, 184920, Note_on_c, 0, 65, 90
2, 184980, Note_on_c, 0, 65, 0
2, 184980, Note_on_c, 0, 64, 90
2, 185040, Note_on_c, 0, 64, 0
2, 185040, Note_on_c, 0, 74, 0
2, 185040, Note_on_c, 0, 81, 90
2, 185040, Note_on_c, 0, 62, 90
2, 185100, Note_on_c, 0, 62, 0
2, 185100, Note_on_c, 0, 59, 90
2, 185160, Note_on_c, 0, 59, 0
2, 185160, Note_on_c, 0, 61, 90
2, 185220, Note_on_c, 0, 81, 0
2, 185220, Note_on_c, 0, 79, 90
2, 185280, Note_on_c, 0, 79, 0
2, 185280, Note_on_c, 0, 61, 0
2, 185280, Note_on_c, 0, 77, 90
2, 185280, Note_on_c, 0, 62, 90
2, 185460, Note_on_c, 0, 77, 0
2, 185460, Note_on_c, 0, 76, 90
2, 185520, Note_on_c, 0, 76, 0
2, 185520, Note_on_c, 0, 74, 90
2, 185580, Note_on_c, 0, 62, 0
2, 185580, Note_on_c, 0, 64, 90
2, 185640, Note_on_c, 0, 64, 0
2, 185640, Note_on_c, 0, 65, 90
2, 185700, Note_on_c, 0, 65, 0
2, 185700, Note_on_c, 0, 67, 90
2, 185760, Note_on_c, 0, 67, 0
2, 185760, Note_on_c, 0, 74, 0
2, 185760, Note_on_c, 0, 73, 90
2, 185760, Note_on_c, 0, 69, 90
2, 185820, Note_on_c, 0, 69, 0
2, 185820, Note_on_c, 0, 64, 90
2, 185880, Note_on_c, 0, 64, 0
2, 185880, Note_on_c, 0, 69, 90
2, 186000, Note_on_c, 0, 73, 0
2, 186000, Note_on_c, 0, 74, 90
2, 186060, Note_on_c, 0, 69, 0
2, 186060, Note_on_c, 0, 62, 90
2, 186120, Note_on_c, 0, 62, 0
2, 186120, Note_on_c, 0, 67, 90
2, 186180, Note_on_c, 0, 74, 0
2, 186180, Note_on_c, 0, 76, 90
2, 186240, Note_on_c, 0, 76, 0
2, 186240, Note_on_c, 0, 67, 0
2, 186240, Note_on_c, 0, 77, 90
2, 186240, Note_on_c, 0, 65, 90
2, 186300, Note_on_c, 0, 65, 0
2, 186300, Note_on_c, 0, 69, 90
2, 186360, Note_on_c, 0, 69, 0
2, 186360, Note_on_c, 0, 71, 90
2, 186420, Note_on_c, 0, 71, 0
2, 186420, Note_on_c, 0, 73, 90
2, 186480, Note_on_c, 0, 73, 0
2, 186480, Note_on_c, 0, 74, 90
2, 186540, Note_on_c, 0, 74, 0
2, 186540, Note_on_c, 0, 77, 0
2, 186540, Note_on_c, 0, 81, 90
2, 186540, Note_on_c, 0, 69, 90
2, 186600, Note_on_c, 0, 69, 0
2, 186600, Note_on_c, 0, 81, 0
2, 186600, Note_on_c, 0, 79, 90
2, 186600, Note_on_c, 0, 74, 90
2, 186660, Note_on_c, 0, 79, 0
2, 186660, Note_on_c, 0, 77, 90
2, 186720, Note_on_c, 0, 77, 0
2, 186720, Note_on_c, 0, 74, 0
2, 186720, Note_on_c, 0, 76, 90
2, 186720, Note_on_c, 0, 72, 90
2, 186780, Note_on_c, 0, 76, 0
2, 186780, Note_on_c, 0, 80, 90
2, 186840, Note_on_c, 0, 80, 0
2, 186840, Note_on_c, 0, 81, 90
2, 186900, Note_on_c, 0, 81, 0
2, 186900, Note_on_c, 0, 83, 90
2, 186960, Note_on_c, 0, 83, 0
2, 186960, Note_on_c, 0, 72, 0
2, 186960, Note_on_c, 0, 84, 90
2, 187260, Note_on_c, 0, 84, 0
2, 187260, Note_on_c, 0, 84, 90
2, 187320, Note_on_c, 0, 84, 0
2, 187320, Note_on_c, 0, 82, 90
2, 187380, Note_on_c, 0, 82, 0
2, 187380, Note_on_c, 0, 81, 90
2, 187440, Note_on_c, 0, 81, 0
2, 187440, Note_on_c, 0, 82, 90
2, 187500, Note_on_c, 0, 81, 90
2, 187560, Note_on_c, 0, 81, 0
2, 187560, Note_on_c, 0, 79, 90
2, 187620, Note_on_c, 0, 79, 0
2, 187620, Note_on_c, 0, 77, 90
2, 187680, Note_on_c, 0, 77, 0
2, 187680, Note_on_c, 0, 76, 90
2, 187740, Note_on_c, 0, 82, 0
2, 187740, Note_on_c, 0, 82, 90
2, 187800, Note_on_c, 0, 82, 0
2, 187800, Note_on_c, 0, 81, 90
2, 187860, Note_on_c, 0, 81, 0
2, 187860, Note_on_c, 0, 79, 90
2, 187920, Note_on_c, 0, 79, 0
2, 187920, Note_on_c, 0, 81, 90
2, 187980, Note_on_c, 0, 76, 0
2, 187980, Note_on_c, 0, 79, 90
2, 188040, Note_on_c, 0, 79, 0
2, 188040, Note_on_c, 0, 77, 90
2, 188100, Note_on_c, 0, 77, 0
2, 188100, Note_on_c, 0, 76, 90
2, 188160, Note_on_c, 0, 76, 0
2, 188160, Note_on_c, 0, 77, 90
2, 188280, Note_on_c, 0, 81, 0
2, 188280, Note_on_c, 0, 82, 90
2, 188400, Note_on_c, 0, 82, 0
2, 188400, Note_on_c, 0, 77, 0
2, 188400, Note_on_c, 0, 79, 90
2, 188400, Note_on_c, 0, 76, 90
2, 188700, Note_on_c, 0, 76, 0
2, 188700, Note_on_c, 0, 69, 90
2, 188760, Note_on_c, 0, 69, 0
2, 188760, Note_on_c, 0, 71, 90
2, 188820, Note_on_c, 0, 71, 0
2, 188820, Note_on_c, 0, 73, 90
2, 188880, Note_on_c, 0, 73, 0
2, 188880, Note_on_c, 0, 74, 90
2, 188940, Note_on_c, 0, 74, 0
2, 188940, Note_on_c, 0, 69, 90
2, 189000, Note_on_c, 0, 69, 0
2, 189000, Note_on_c, 0, 79, 0
2, 189000, Note_on_c, 0, 77, 90
2, 189000, Note_on_c, 0, 74, 90
2, 189120, Note_on_c, 0, 77, 0
2, 189120, Note_on_c, 0, 76, 90
2, 189180, Note_on_c, 0, 74, 0
2, 189180, Note_on_c, 0, 74, 90
2, 189240, Note_on_c, 0, 74, 0
2, 189240, Note_on_c, 0, 73, 90
2, 189300, Note_on_c, 0, 73, 0
2, 189300, Note_on_c, 0, 71, 90
2, 189360, Note_on_c, 0, 71, 0
2, 189360, Note_on_c, 0, 76, 0
2, 189360, Note_on_c, 0, 73, 90
2, 189600, Note_on_c, 0, 73, 0
2, 189600, Note_on_c, 0, 74, 90
2, 189660, Note_on_c, 0, 57, 90
2, 189720, Note_on_c, 0, 57, 0
2, 189720, Note_on_c, 0, 59, 90
2, 189780, Note_on_c, 0, 59, 0
2, 189780, Note_on_c, 0, 61, 90
2, 189840, Note_on_c, 0, 61, 0
2, 189840, Note_on_c, 0, 74, 0
2, 189840, Note_on_c, 0, 69, 90
2, 189840, Note_on_c, 0, 62, 90
2, 189900, Note_on_c, 0, 62, 0
2, 189900, Note_on_c, 0, 64, 90
2, 189960, Note_on_c, 0, 64, 0
2, 189960, Note_on_c, 0, 65, 90
2, 190020, Note_on_c, 0, 69, 0
2, 190020, Note_on_c, 0, 71, 90
2, 190080, Note_on_c, 0, 71, 0
2, 190080, Note_on_c, 0, 72, 90
2, 190140, Note_on_c, 0, 65, 0
2, 190140, Note_on_c, 0, 67, 90
2, 190200, Note_on_c, 0, 67, 0
2, 190200, Note_on_c, 0, 69, 90
2, 190260, Note_on_c, 0, 72, 0
2, 190260, Note_on_c, 0, 74, 90
2, 190320, Note_on_c, 0, 74, 0
2, 190320, Note_on_c, 0, 76, 90
2, 190380, Note_on_c, 0, 69, 0
2, 190380, Note_on_c, 0, 67, 90
2, 190440, Note_on_c, 0, 67, 0
2, 190440, Note_on_c, 0, 65, 90
2, 190500, Note_on_c, 0, 65, 0
2, 190500, Note_on_c, 0, 64, 90
2, 190560, Note_on_c, 0, 64, 0
2, 190560, Note_on_c, 0, 76, 0
2, 190560, Note_on_c, 0, 77, 90
2, 190560, Note_on_c, 0, 62, 90
2, 190680, Note_on_c, 0, 62, 0
2, 190680, Note_on_c, 0, 74, 90
2, 190800, Note_on_c, 0, 77, 0
2, 190800, Note_on_c, 0, 76, 90
2, 190860, Note_on_c, 0, 74, 0
2, 190860, Note_on_c, 0, 74, 90
2, 190920, Note_on_c, 0, 74, 0
2, 190920, Note_on_c, 0, 72, 90
2, 190980, Note_on_c, 0, 72, 0
2, 190980, Note_on_c, 0, 76, 0
2, 190980, Note_on_c, 0, 74, 90
2, 190980, Note_on_c, 0, 71, 90
2, 191040, Note_on_c, 0, 71, 0
2, 191040, Note_on_c, 0, 74, 0
2, 191040, Note_on_c, 0, 72, 90
2, 191040, Note_on_c, 0, 69, 90
2, 191100, Note_on_c, 0, 69, 0
2, 191100, Note_on_c, 0, 64, 90
2, 191160, Note_on_c, 0, 64, 0
2, 191160, Note_on_c, 0, 66, 90
2, 191220, Note_on_c, 0, 66, 0
2, 191220, Note_on_c, 0, 68, 90
2, 191280, Note_on_c, 0, 68, 0
2, 191280, Note_on_c, 0, 69, 90
2, 191340, Note_on_c, 0, 72, 0
2, 191340, Note_on_c, 0, 71, 90
2, 191400, Note_on_c, 0, 71, 0
2, 191400, Note_on_c, 0, 72, 90
2, 191460, Note_on_c, 0, 72, 0
2, 191460, Note_on_c, 0, 74, 90
2, 191520, Note_on_c, 0, 74, 0
2, 191520, Note_on_c, 0, 76, 90
2, 191580, Note_on_c, 0, 69, 0
2, 191580, Note_on_c, 0, 68, 90
2, 191640, Note_on_c, 0, 68, 0
2, 191640, Note_on_c, 0, 76, 0
2, 191640, Note_on_c, 0, 75, 90
2, 191640, Note_on_c, 0, 69, 90
2, 191700, Note_on_c, 0, 69, 0
2, 191700, Note_on_c, 0, 71, 90
2, 191760, Note_on_c, 0, 71, 0
2, 191760, Note_on_c, 0, 72, 90
2, 191820, Note_on_c, 0, 75, 0
2, 191820, Note_on_c, 0, 78, 90
2, 191880, Note_on_c, 0, 78, 0
2, 191880, Note_on_c, 0, 76, 90
2, 191940, Note_on_c, 0, 76, 0
2, 191940, Note_on_c, 0, 75, 90
2, 192000, Note_on_c, 0, 75, 0
2, 192000, Note_on_c, 0, 72, 0
2, 192000, Note_on_c, 0, 76, 90
2, 192000, Note_on_c, 0, 71, 90
2, 192060, Note_on_c, 0, 76, 0
2, 192060, Note_on_c, 0, 74, 90
2, 192120, Note_on_c, 0, 74, 0
2, 192120, Note_on_c, 0, 72, 90
2, 192180, Note_on_c, 0, 72, 0
2, 192180, Note_on_c, 0, 71, 90
2, 192240, Note_on_c, 0, 71, 0
2, 192240, Note_on_c, 0, 72, 90
2, 192300, Note_on_c, 0, 71, 0
2, 192300, Note_on_c, 0, 71, 90
2, 192360, Note_on_c, 0, 71, 0
2, 192360, Note_on_c, 0, 69, 90
2, 192420, Note_on_c, 0, 69, 0
2, 192420, Note_on_c, 0, 72, 0
2, 192420, Note_on_c, 0, 71, 90
2, 192420, Note_on_c, 0, 68, 90
2, 192480, Note_on_c, 0, 68, 0
2, 192480, Note_on_c, 0, 71, 0
2, 192480, Note_on_c, 0, 69, 90
2, 192480, Note_on_c, 0, 69, 90
2, 192540, Note_on_c, 0, 69, 0
2, 192540, Note_on_c, 0, 67, 90
2, 192600, Note_on_c, 0, 67, 0
2, 192600, Note_on_c, 0, 65, 90
2, 192660, Note_on_c, 0, 65, 0
2, 192660, Note_on_c, 0, 64, 90
2, 192720, Note_on_c, 0, 64, 0
2, 192720, Note_on_c, 0, 65, 90
2, 192780, Note_on_c, 0, 69, 0
2, 192780, Note_on_c, 0, 70, 90
2, 192840, Note_on_c, 0, 70, 0
2, 192840, Note_on_c, 0, 69, 90
2, 192900, Note_on_c, 0, 69, 0
2, 192900, Note_on_c, 0, 65, 0
2, 192900, Note_on_c, 0, 67, 90
2, 192900, Note_on_c, 0, 67, 90
2, 192960, Note_on_c, 0, 67, 0
2, 192960, Note_on_c, 0, 67, 0
2, 192960, Note_on_c, 0, 69, 90
2, 192960, Note_on_c, 0, 60, 90
2, 193020, Note_on_c, 0, 69, 0
2, 193020, Note_on_c, 0, 72, 90
2, 193080, Note_on_c, 0, 72, 0
2, 193080, Note_on_c, 0, 60, 0
2, 193080, Note_on_c, 0, 74, 90
2, 193140, Note_on_c, 0, 74, 0
2, 193140, Note_on_c, 0, 76, 90
2, 193200, Note_on_c, 0, 76, 0
2, 193200, Note_on_c, 0, 77, 90
2, 193260, Note_on_c, 0, 77, 0
2, 193260, Note_on_c, 0, 79, 90
2, 193320, Note_on_c, 0, 79, 0
2, 193320, Note_on_c, 0, 81, 90
2, 193500, Note_on_c, 0, 81, 0
2, 193500, Note_on_c, 0, 79, 90
2, 193560, Note_on_c, 0, 79, 0
2, 193560, Note_on_c, 0, 77, 90
2, 193620, Note_on_c, 0, 77, 0
2, 193620, Note_on_c, 0, 76, 90
2, 193680, Note_on_c, 0, 76, 0
2, 193680, Note_on_c, 0, 77, 90
2, 193740, Note_on_c, 0, 77, 0
2, 193740, Note_on_c, 0, 76, 90
2, 193800, Note_on_c, 0, 76, 0
2, 193800, Note_on_c, 0, 74, 90
2, 193860, Note_on_c, 0, 74, 0
2, 193860, Note_on_c, 0, 73, 90
2, 193920, Note_on_c, 0, 73, 0
2, 193920, Note_on_c, 0, 74, 90
2, 193920, Note_on_c, 0, 62, 90
2, 193980, Note_on_c, 0, 74, 0
2, 193980, Note_on_c, 0, 69, 90
2, 194040, Note_on_c, 0, 69, 0
2, 194040, Note_on_c, 0, 71, 90
2, 194100, Note_on_c, 0, 71, 0
2, 194100, Note_on_c, 0, 73, 90
2, 194160, Note_on_c, 0, 73, 0
2, 194160, Note_on_c, 0, 62, 0
2, 194160, Note_on_c, 0, 74, 90
2, 194160, Note_on_c, 0, 69, 90
2, 194340, Note_on_c, 0, 69, 0
2, 194340, Note_on_c, 0, 67, 90
2, 194400, Note_on_c, 0, 67, 0
2, 194400, Note_on_c, 0, 65, 90
2, 194460, Note_on_c, 0, 74, 0
2, 194460, Note_on_c, 0, 72, 90
2, 194520, Note_on_c, 0, 72, 0
2, 194520, Note_on_c, 0, 70, 90
2, 194580, Note_on_c, 0, 70, 0
2, 194580, Note_on_c, 0, 65, 0
2, 194580, Note_on_c, 0, 69, 90
2, 194580, Note_on_c, 0, 64, 90
2, 194640, Note_on_c, 0, 64, 0
2, 194640, Note_on_c, 0, 69, 0
2, 194640, Note_on_c, 0, 67, 90
2, 194640, Note_on_c, 0, 62, 90
2, 194880, Note_on_c, 0, 62, 0
2, 194880, Note_on_c, 0, 61, 90
2, 195120, Note_on_c, 0, 61, 0
2, 195120, Note_on_c, 0, 62, 90
2, 195180, Note_on_c, 0, 67, 0
2, 195180, Note_on_c, 0, 65, 90
2, 195240, Note_on_c, 0, 65, 0
2, 195240, Note_on_c, 0, 70, 90
2, 195300, Note_on_c, 0, 62, 0
2, 195300, Note_on_c, 0, 64, 90
2, 195360, Note_on_c, 0, 64, 0
2, 195360, Note_on_c, 0, 70, 0
2, 195360, Note_on_c, 0, 69, 90
2, 195360, Note_on_c, 0, 65, 90
2, 195480, Note_on_c, 0, 69, 0
2, 195660, Note_on_c, 0, 65, 0
2, 195660, Note_on_c, 0, 67, 90
2, 195720, Note_on_c, 0, 67, 0
2, 195720, Note_on_c, 0, 65, 90
2, 195780, Note_on_c, 0, 65, 0
2, 195780, Note_on_c, 0, 63, 90
2, 195840, Note_on_c, 0, 63, 0
2, 195840, Note_on_c, 0, 62, 90
2, 196380, Note_on_c, 0, 62, 0
2, 196380, Note_on_c, 0, 63, 90
2, 196440, Note_on_c, 0, 63, 0
2, 196440, Note_on_c, 0, 62, 90
2, 196500, Note_on_c, 0, 62, 0
2, 196500, Note_on_c, 0, 60, 90
2, 196560, Note_on_c, 0, 60, 0
2, 196560, Note_on_c, 0, 58, 90
2, 197100, Note_on_c, 0, 58, 0
2, 197100, Note_on_c, 0, 62, 90
2, 197160, Note_on_c, 0, 62, 0
2, 197160, Note_on_c, 0, 60, 90
2, 197220, Note_on_c, 0, 60, 0
2, 197220, Note_on_c, 0, 58, 90
2, 197280, Note_on_c, 0, 58, 0
2, 197280, Note_on_c, 0, 57, 90
2, 197460, Note_on_c, 0, 57, 0
2, 197460, Note_on_c, 0, 69, 90
2, 197520, Note_on_c, 0, 69, 0
2, 197520, Note_on_c, 0, 72, 90
2, 197520, Note_on_c, 0, 67, 90
2, 197580, Note_on_c, 0, 67, 0
2, 197580, Note_on_c, 0, 65, 90
2, 197640, Note_on_c, 0, 65, 0
2, 197640, Note_on_c, 0, 67, 90
2, 197760, Note_on_c, 0, 67, 0
2, 197760, Note_on_c, 0, 72, 0
2, 197760, Note_on_c, 0, 65, 90
2, 197760, Note_on_c, 0, 60, 90
2, 197880, Note_on_c, 0, 60, 0
2, 197940, Note_on_c, 0, 65, 0
2, 197940, Note_on_c, 0, 67, 90
2, 198000, Note_on_c, 0, 67, 0
2, 198000, Note_on_c, 0, 69, 90
2, 198060, Note_on_c, 0, 65, 90
2, 198120, Note_on_c, 0, 65, 0
2, 198120, Note_on_c, 0, 64, 90
2, 198180, Note_on_c, 0, 64, 0
2, 198180, Note_on_c, 0, 69, 0
2, 198180, Note_on_c, 0, 70, 90
2, 198180, Note_on_c, 0, 62, 90
2, 198240, Note_on_c, 0, 62, 0
2, 198240, Note_on_c, 0, 70, 0
2, 198240, Note_on_c, 0, 72, 90
2, 198240, Note_on_c, 0, 67, 90
2, 198300, Note_on_c, 0, 67, 0
2, 198300, Note_on_c, 0, 69, 90
2, 198360, Note_on_c, 0, 69, 0
2, 198360, Note_on_c, 0, 70, 90
2, 198480, Note_on_c, 0, 72, 0
2, 198480, Note_on_c, 0, 74, 90
2, 198540, Note_on_c, 0, 70, 0
2, 198540, Note_on_c, 0, 69, 90
2, 198600, Note_on_c, 0, 69, 0
2, 198600, Note_on_c, 0, 70, 90
2, 198720, Note_on_c, 0, 70, 0
2, 198720, Note_on_c, 0, 74, 0
2, 198720, Note_on_c, 0, 72, 90
2, 198720, Note_on_c, 0, 69, 90
2, 198840, Note_on_c, 0, 69, 0
2, 198840, Note_on_c, 0, 64, 90
2, 198900, Note_on_c, 0, 72, 0
2, 198900, Note_on_c, 0, 70, 90
2, 198960, Note_on_c, 0, 70, 0
2, 198960, Note_on_c, 0, 64, 0
2, 198960, Note_on_c, 0, 69, 90
2, 198960, Note_on_c, 0, 65, 90
2, 199260, Note_on_c, 0, 65, 0
2, 199260, Note_on_c, 0, 69, 0
2, 199260, Note_on_c, 0, 67, 90
2, 199260, Note_on_c, 0, 64, 90
2, 199320, Note_on_c, 0, 64, 0
2, 199320, Note_on_c, 0, 67, 0
2, 199320, Note_on_c, 0, 69, 90
2, 199320, Note_on_c, 0, 65, 90
2, 199380, Note_on_c, 0, 65, 0
2, 199380, Note_on_c, 0, 69, 0
2, 199380, Note_on_c, 0, 70, 90
2, 199380, Note_on_c, 0, 67, 90
2, 199440, Note_on_c, 0, 67, 0
2, 199440, Note_on_c, 0, 70, 0
2, 199440, Note_on_c, 0, 72, 90
2, 199440, Note_on_c, 0, 69, 90
2, 199740, Note_on_c, 0, 69, 0
2, 199740, Note_on_c, 0, 72, 0
2, 199740, Note_on_c, 0, 74, 90
2, 199740, Note_on_c, 0, 70, 90
2, 199800, Note_on_c, 0, 70, 0
2, 199800, Note_on_c, 0, 74, 0
2, 199800, Note_on_c, 0, 72, 90
2, 199800, Note_on_c, 0, 69, 90
2, 199860, Note_on_c, 0, 69, 0
2, 199860, Note_on_c, 0, 72, 0
2, 199860, Note_on_c, 0, 70, 90
2, 199860, Note_on_c, 0, 67, 90
2, 199920, Note_on_c, 0, 67, 0
2, 199920, Note_on_c, 0, 70, 0
2, 199920, Note_on_c, 0, 69, 90
2, 199920, Note_on_c, 0, 65, 90
2, 200040, Note_on_c, 0, 65, 0
2, 200040, Note_on_c, 0, 69, 0
2, 200040, Note_on_c, 0, 77, 90
2, 200040, Note_on_c, 0, 69, 90
2, 200160, Note_on_c, 0, 69, 0
2, 200160, Note_on_c, 0, 67, 90
2, 200280, Note_on_c, 0, 77, 0
2, 200280, Note_on_c, 0, 76, 90
2, 200400, Note_on_c, 0, 67, 0
2, 200400, Note_on_c, 0, 65, 90
2, 200520, Note_on_c, 0, 76, 0
2, 200520, Note_on_c, 0, 74, 90
2, 200640, Note_on_c, 0, 65, 0
2, 200640, Note_on_c, 0, 64, 90
2, 200760, Note_on_c, 0, 74, 0
2, 200760, Note_on_c, 0, 72, 90
2, 200880, Note_on_c, 0, 64, 0
2, 200880, Note_on_c, 0, 62, 90
2, 201000, Note_on_c, 0, 72, 0
2, 201000, Note_on_c, 0, 70, 90
2, 201120, Note_on_c, 0, 62, 0
2, 201120, Note_on_c, 0, 60, 90
2, 201240, Note_on_c, 0, 60, 0
2, 201300, Note_on_c, 0, 70, 0
2, 201300, Note_on_c, 0, 69, 90
2, 201360, Note_on_c, 0, 69, 0
2, 201360, Note_on_c, 0, 72, 90
2, 201360, Note_on_c, 0, 67, 90
2, 201420, Note_on_c, 0, 72, 0
2, 201420, Note_on_c, 0, 71, 90
2, 201480, Note_on_c, 0, 71, 0
2, 201480, Note_on_c, 0, 72, 90
2, 201600, Note_on_c, 0, 72, 0
2, 201600, Note_on_c, 0, 67, 0
2, 201600, Note_on_c, 0, 66, 90
2, 201600, Note_on_c, 0, 74, 90
2, 201660, Note_on_c, 0, 66, 0
2, 201660, Note_on_c, 0, 62, 90
2, 201720, Note_on_c, 0, 62, 0
2, 201720, Note_on_c, 0, 67, 90
2, 201780, Note_on_c, 0, 74, 0
2, 201780, Note_on_c, 0, 72, 90
2, 201840, Note_on_c, 0, 72, 0
2, 201840, Note_on_c, 0, 70, 90
2, 201900, Note_on_c, 0, 67, 0
2, 201900, Note_on_c, 0, 79, 90
2, 201960, Note_on_c, 0, 79, 0
2, 201960, Note_on_c, 0, 77, 90
2, 202020, Note_on_c, 0, 70, 0
2, 202020, Note_on_c, 0, 69, 90
2, 202080, Note_on_c, 0, 69, 0
2, 202080, Note_on_c, 0, 77, 0
2, 202080, Note_on_c, 0, 70, 90
2, 202080, Note_on_c, 0, 67, 90
2, 202260, Note_on_c, 0, 70, 0
2, 202260, Note_on_c, 0, 69, 90
2, 202320, Note_on_c, 0, 69, 0
2, 202320, Note_on_c, 0, 67, 0
2, 202320, Note_on_c, 0, 74, 90
2, 202320, Note_on_c, 0, 66, 90
2, 202440, Note_on_c, 0, 74, 0
2, 202560, Note_on_c, 0, 66, 0
2, 202560, Note_on_c, 0, 67, 90
2, 202740, Note_on_c, 0, 67, 0
2, 202740, Note_on_c, 0, 69, 90
2, 202800, Note_on_c, 0, 69, 0
2, 202800, Note_on_c, 0, 70, 90
2, 202920, Note_on_c, 0, 74, 90
2, 203040, Note_on_c, 0, 74, 0
2, 203040, Note_on_c, 0, 79, 90
2, 203100, Note_on_c, 0, 70, 0
2, 203100, Note_on_c, 0, 72, 90
2, 203160, Note_on_c, 0, 72, 0
2, 203160, Note_on_c, 0, 70, 90
2, 203220, Note_on_c, 0, 70, 0
2, 203220, Note_on_c, 0, 69, 90
2, 203280, Note_on_c, 0, 69, 0
2, 203280, Note_on_c, 0, 67, 90
2, 203340, Note_on_c, 0, 67, 0
2, 203340, Note_on_c, 0, 70, 90
2, 203400, Note_on_c, 0, 70, 0
2, 203400, Note_on_c, 0, 79, 0
2, 203400, Note_on_c, 0, 77, 90
2, 203400, Note_on_c, 0, 69, 90
2, 203460, Note_on_c, 0, 69, 0
2, 203460, Note_on_c, 0, 77, 0
2, 203460, Note_on_c, 0, 75, 90
2, 203460, Note_on_c, 0, 67, 90
2, 203520, Note_on_c, 0, 67, 0
2, 203520, Note_on_c, 0, 75, 0
2, 203520, Note_on_c, 0, 77, 90
2, 203520, Note_on_c, 0, 69, 90
2, 203640, Note_on_c, 0, 69, 0
2, 203640, Note_on_c, 0, 72, 90
2, 203760, Note_on_c, 0, 72, 0
2, 203760, Note_on_c, 0, 65, 90
2, 203820, Note_on_c, 0, 77, 0
2, 203820, Note_on_c, 0, 75, 90
2, 203880, Note_on_c, 0, 75, 0
2, 203880, Note_on_c, 0, 74, 90
2, 203940, Note_on_c, 0, 65, 0
2, 203940, Note_on_c, 0, 67, 90
2, 204000, Note_on_c, 0, 67, 0
2, 204000, Note_on_c, 0, 65, 90
2, 204060, Note_on_c, 0, 65, 0
2, 204060, Note_on_c, 0, 74, 0
2, 204060, Note_on_c, 0, 67, 90
2, 204060, Note_on_c, 0, 63, 90
2, 204120, Note_on_c, 0, 63, 0
2, 204120, Note_on_c, 0, 67, 0
2, 204120, Note_on_c, 0, 65, 90
2, 204120, Note_on_c, 0, 62, 90
2, 204180, Note_on_c, 0, 62, 0
2, 204180, Note_on_c, 0, 65, 0
2, 204180, Note_on_c, 0, 63, 90
2, 204180, Note_on_c, 0, 60, 90
2, 204240, Note_on_c, 0, 60, 0
2, 204240, Note_on_c, 0, 63, 0
2, 204240, Note_on_c, 0, 62, 90
2, 204240, Note_on_c, 0, 62, 90
2, 204300, Note_on_c, 0, 62, 0
2, 204300, Note_on_c, 0, 65, 90
2, 204360, Note_on_c, 0, 65, 0
2, 204360, Note_on_c, 0, 62, 0
2, 204360, Note_on_c, 0, 67, 90
2, 204420, Note_on_c, 0, 67, 0
2, 204420, Note_on_c, 0, 69, 90
2, 204480, Note_on_c, 0, 69, 0
2, 204480, Note_on_c, 0, 70, 90
2, 204540, Note_on_c, 0, 70, 0
2, 204540, Note_on_c, 0, 65, 90
2, 204540, Note_on_c, 0, 57, 90
2, 204600, Note_on_c, 0, 57, 0
2, 204600, Note_on_c, 0, 65, 0
2, 204600, Note_on_c, 0, 70, 90
2, 204600, Note_on_c, 0, 58, 90
2, 204660, Note_on_c, 0, 58, 0
2, 204660, Note_on_c, 0, 60, 90
2, 204720, Note_on_c, 0, 60, 0
2, 204720, Note_on_c, 0, 62, 90
2, 204780, Note_on_c, 0, 62, 0
2, 204780, Note_on_c, 0, 70, 0
2, 204780, Note_on_c, 0, 72, 90
2, 204780, Note_on_c, 0, 60, 90
2, 204840, Note_on_c, 0, 60, 0
2, 204840, Note_on_c, 0, 72, 0
2, 204840, Note_on_c, 0, 70, 90
2, 204840, Note_on_c, 0, 63, 90
2, 204900, Note_on_c, 0, 70, 0
2, 204900, Note_on_c, 0, 69, 90
2, 204960, Note_on_c, 0, 69, 0
2, 204960, Note_on_c, 0, 63, 0
2, 204960, Note_on_c, 0, 70, 90
2, 204960, Note_on_c, 0, 62, 90
2, 205020, Note_on_c, 0, 70, 0
2, 205020, Note_on_c, 0, 72, 90
2, 205080, Note_on_c, 0, 72, 0
2, 205080, Note_on_c, 0, 62, 0
2, 205080, Note_on_c, 0, 74, 90
2, 205080, Note_on_c, 0, 67, 90
2, 205140, Note_on_c, 0, 67, 0
2, 205140, Note_on_c, 0, 69, 90
2, 205200, Note_on_c, 0, 69, 0
2, 205200, Note_on_c, 0, 70, 90
2, 205260, Note_on_c, 0, 70, 0
2, 205260, Note_on_c, 0, 74, 0
2, 205260, Note_on_c, 0, 75, 90
2, 205260, Note_on_c, 0, 72, 90
2, 205320, Note_on_c, 0, 72, 0
2, 205320, Note_on_c, 0, 75, 0
2, 205320, Note_on_c, 0, 77, 90
2, 205320, Note_on_c, 0, 74, 90
2, 205500, Note_on_c, 0, 74, 0
2, 205500, Note_on_c, 0, 77, 0
2, 205500, Note_on_c, 0, 75, 90
2, 205500, Note_on_c, 0, 72, 90
2, 205560, Note_on_c, 0, 72, 0
2, 205560, Note_on_c, 0, 75, 0
2, 205560, Note_on_c, 0, 74, 90
2, 205560, Note_on_c, 0, 70, 90
2, 205620, Note_on_c, 0, 70, 0
2, 205620, Note_on_c, 0, 74, 0
2, 205620, Note_on_c, 0, 72, 90
2, 205620, Note_on_c, 0, 69, 90
2, 205680, Note_on_c, 0, 69, 0
2, 205680, Note_on_c, 0, 72, 0
2, 205680, Note_on_c, 0, 70, 90
2, 205680, Note_on_c, 0, 67, 90
2, 205740, Note_on_c, 0, 67, 0
2, 205740, Note_on_c, 0, 69, 90
2, 205800, Note_on_c, 0, 69, 0
2, 205800, Note_on_c, 0, 70, 90
2, 205860, Note_on_c, 0, 70, 0
2, 205860, Note_on_c, 0, 72, 90
2, 205920, Note_on_c, 0, 72, 0
2, 205920, Note_on_c, 0, 74, 90
2, 205980, Note_on_c, 0, 70, 0
2, 205980, Note_on_c, 0, 67, 90
2, 206040, Note_on_c, 0, 67, 0
2, 206040, Note_on_c, 0, 74, 0
2, 206040, Note_on_c, 0, 72, 90
2, 206040, Note_on_c, 0, 69, 90
2, 206160, Note_on_c, 0, 72, 0
2, 206160, Note_on_c, 0, 77, 90
2, 206220, Note_on_c, 0, 69, 0
2, 206220, Note_on_c, 0, 65, 90
2, 206280, Note_on_c, 0, 65, 0
2, 206280, Note_on_c, 0, 67, 90
2, 206340, Note_on_c, 0, 67, 0
2, 206340, Note_on_c, 0, 69, 90
2, 206400, Note_on_c, 0, 69, 0
2, 206400, Note_on_c, 0, 70, 90
2, 206460, Note_on_c, 0, 77, 0
2, 206460, Note_on_c, 0, 76, 90
2, 206520, Note_on_c, 0, 76, 0
2, 206520, Note_on_c, 0, 77, 90
2, 206580, Note_on_c, 0, 77, 0
2, 206580, Note_on_c, 0, 79, 90
2, 206640, Note_on_c, 0, 79, 0
2, 206640, Note_on_c, 0, 72, 90
2, 206700, Note_on_c, 0, 70, 0
2, 206700, Note_on_c, 0, 70, 90
2, 206760, Note_on_c, 0, 70, 0
2, 206760, Note_on_c, 0, 69, 90
2, 206820, Note_on_c, 0, 69, 0
2, 206820, Note_on_c, 0, 67, 90
2, 206880, Note_on_c, 0, 67, 0
2, 206880, Note_on_c, 0, 69, 90
2, 207000, Note_on_c, 0, 69, 0
2, 207000, Note_on_c, 0, 72, 0
2, 207000, Note_on_c, 0, 77, 90
2, 207120, Note_on_c, 0, 77, 0
2, 207120, Note_on_c, 0, 72, 90
2, 207240, Note_on_c, 0, 72, 90
2, 207300, Note_on_c, 0, 72, 0
2, 207300, Note_on_c, 0, 74, 90
2, 207360, Note_on_c, 0, 74, 0
2, 207360, Note_on_c, 0, 72, 0
2, 207360, Note_on_c, 0, 75, 90
2, 207360, Note_on_c, 0, 67, 90
2, 207540, Note_on_c, 0, 67, 0
2, 207540, Note_on_c, 0, 75, 0
2, 207540, Note_on_c, 0, 77, 90
2, 207540, Note_on_c, 0, 69, 90
2, 207600, Note_on_c, 0, 69, 0
2, 207600, Note_on_c, 0, 77, 0
2, 207600, Note_on_c, 0, 79, 90
2, 207600, Note_on_c, 0, 70, 90
2, 207720, Note_on_c, 0, 79, 0
2, 207720, Note_on_c, 0, 74, 90
2, 207780, Note_on_c, 0, 70, 0
2, 207780, Note_on_c, 0, 72, 90
2, 207840, Note_on_c, 0, 72, 0
2, 207840, Note_on_c, 0, 74, 90
2, 207900, Note_on_c, 0, 74, 0
2, 207900, Note_on_c, 0, 76, 90
2, 207960, Note_on_c, 0, 76, 0
2, 207960, Note_on_c, 0, 74, 0
2, 207960, Note_on_c, 0, 77, 90
2, 207960, Note_on_c, 0, 69, 90
2, 208140, Note_on_c, 0, 69, 0
2, 208140, Note_on_c, 0, 77, 0
2, 208140, Note_on_c, 0, 79, 90
2, 208140, Note_on_c, 0, 70, 90
2, 208200, Note_on_c, 0, 70, 0
2, 208200, Note_on_c, 0, 79, 0
2, 208200, Note_on_c, 0, 81, 90
2, 208200, Note_on_c, 0, 72, 90
2, 208320, Note_on_c, 0, 81, 0
2, 208320, Note_on_c, 0, 76, 90
2, 208380, Note_on_c, 0, 76, 0
2, 208380, Note_on_c, 0, 77, 90
2, 208440, Note_on_c, 0, 77, 0
2, 208440, Note_on_c, 0, 72, 0
2, 208440, Note_on_c, 0, 79, 90
2, 208440, Note_on_c, 0, 70, 90
2, 208560, Note_on_c, 0, 79, 0
2, 208560, Note_on_c, 0, 74, 90
2, 208620, Note_on_c, 0, 74, 0
2, 208620, Note_on_c, 0, 76, 90
2, 208680, Note_on_c, 0, 76, 0
2, 208680, Note_on_c, 0, 70, 0
2, 208680, Note_on_c, 0, 77, 90
2, 208680, Note_on_c, 0, 69, 90
2, 208800, Note_on_c, 0, 77, 0
2, 208800, Note_on_c, 0, 76, 90
2, 208860, Note_on_c, 0, 69, 0
2, 208860, Note_on_c, 0, 71, 90
2, 208920, Note_on_c, 0, 71, 0
2, 208920, Note_on_c, 0, 69, 90
2, 208980, Note_on_c, 0, 69, 0
2, 208980, Note_on_c, 0, 68, 90
2, 209040, Note_on_c, 0, 68, 0
2, 209040, Note_on_c, 0, 76, 0
2, 209040, Note_on_c, 0, 81, 90
2, 209040, Note_on_c, 0, 69, 90
2, 209160, Note_on_c, 0, 69, 0
2, 209220, Note_on_c, 0, 81, 0
2, 209220, Note_on_c, 0, 79, 90
2, 209280, Note_on_c, 0, 79, 0
2, 209280, Note_on_c, 0, 77, 90
2, 209460, Note_on_c, 0, 77, 0
2, 209460, Note_on_c, 0, 76, 90
2, 209520, Note_on_c, 0, 76, 0
2, 209520, Note_on_c, 0, 74, 90
2, 209520, Note_on_c, 0, 62, 90
2, 209760, Note_on_c, 0, 62, 0
2, 209760, Note_on_c, 0, 74, 0
2, 209760, Note_on_c, 0, 73, 90
2, 209760, Note_on_c, 0, 69, 90
2, 209940, Note_on_c, 0, 69, 0
2, 209940, Note_on_c, 0, 67, 90
2, 210000, Note_on_c, 0, 67, 0
2, 210000, Note_on_c, 0, 73, 0
2, 210000, Note_on_c, 0, 74, 90
2, 210000, Note_on_c, 0, 65, 90
2, 210180, Note_on_c, 0, 65, 0
2, 210180, Note_on_c, 0, 74, 0
2, 210180, Note_on_c, 0, 76, 90
2, 210180, Note_on_c, 0, 64, 90
2, 210240, Note_on_c, 0, 64, 0
2, 210240, Note_on_c, 0, 76, 0
2, 210240, Note_on_c, 0, 77, 90
2, 210240, Note_on_c, 0, 62, 90
2, 210480, Note_on_c, 0, 62, 0
2, 210480, Note_on_c, 0, 61, 90
2, 210540, Note_on_c, 0, 77, 0
2, 210540, Note_on_c, 0, 79, 90
2, 210600, Note_on_c, 0, 79, 0
2, 210600, Note_on_c, 0, 77, 90
2, 210660, Note_on_c, 0, 77, 0
2, 210660, Note_on_c, 0, 76, 90
2, 210720, Note_on_c, 0, 76, 0
2, 210720, Note_on_c, 0, 61, 0
2, 210720, Note_on_c, 0, 74, 90
2, 210720, Note_on_c, 0, 62, 90
2, 210900, Note_on_c, 0, 62, 0
2, 210900, Note_on_c, 0, 64, 90
2, 210960, Note_on_c, 0, 64, 0
2, 210960, Note_on_c, 0, 65, 90
2, 211080, Note_on_c, 0, 74, 0
2, 211080, Note_on_c, 0, 69, 90
2, 211260, Note_on_c, 0, 65, 0
2, 211260, Note_on_c, 0, 67, 90
2, 211320, Note_on_c, 0, 67, 0
2, 211320, Note_on_c, 0, 69, 0
2, 211320, Note_on_c, 0, 72, 90
2, 211320, Note_on_c, 0, 65, 90
2, 211380, Note_on_c, 0, 65, 0
2, 211380, Note_on_c, 0, 63, 90
2, 211440, Note_on_c, 0, 63, 0
2, 211440, Note_on_c, 0, 72, 0
2, 211440, Note_on_c, 0, 65, 90
2, 211440, Note_on_c, 0, 62, 90
2, 211740, Note_on_c, 0, 65, 0
2, 211740, Note_on_c, 0, 69, 90
2, 211800, Note_on_c, 0, 69, 0
2, 211800, Note_on_c, 0, 67, 90
2, 211860, Note_on_c, 0, 67, 0
2, 211860, Note_on_c, 0, 65, 90
2, 211920, Note_on_c, 0, 65, 0
2, 211920, Note_on_c, 0, 64, 90
2, 211980, Note_on_c, 0, 62, 0
2, 211980, Note_on_c, 0, 62, 90
2, 212040, Note_on_c, 0, 62, 0
2, 212040, Note_on_c, 0, 60, 90
2, 212100, Note_on_c, 0, 60, 0
2, 212100, Note_on_c, 0, 58, 90
2, 212160, Note_on_c, 0, 58, 0
2, 212160, Note_on_c, 0, 57, 90
2, 212460, Note_on_c, 0, 64, 0
2, 212460, Note_on_c, 0, 62, 90
2, 212520, Note_on_c, 0, 62, 0
2, 212520, Note_on_c, 0, 57, 0
2, 212520, Note_on_c, 0, 61, 90
2, 212520, Note_on_c, 0, 56, 90
2, 212580, Note_on_c, 0, 61, 0
2, 212580, Note_on_c, 0, 62, 90
2, 212640, Note_on_c, 0, 62, 0
2, 212640, Note_on_c, 0, 56, 0
2, 212640, Note_on_c, 0, 61, 90
2, 212640, Note_on_c, 0, 57, 90
2, 212760, Note_on_c, 0, 57, 0
2, 212760, Note_on_c, 0, 61, 0
2, 212760, Note_on_c, 0, 76, 90
2, 212880, Note_on_c, 0, 76, 0
2, 212880, Note_on_c, 0, 81, 90
2, 213000, Note_on_c, 0, 69, 90
2, 213060, Note_on_c, 0, 81, 0
2, 213060, Note_on_c, 0, 79, 90
2, 213120, Note_on_c, 0, 79, 0
2, 213120, Note_on_c, 0, 69, 0
2, 213120, Note_on_c, 0, 77, 90
2, 213120, Note_on_c, 0, 74, 90
2, 213300, Note_on_c, 0, 74, 0
2, 213300, Note_on_c, 0, 77, 0
2, 213300, Note_on_c, 0, 76, 90
2, 213300, Note_on_c, 0, 72, 90
2, 213360, Note_on_c, 0, 72, 0
2, 213360, Note_on_c, 0, 76, 0
2, 213360, Note_on_c, 0, 74, 90
2, 213360, Note_on_c, 0, 70, 90
2, 213480, Note_on_c, 0, 74, 0
2, 213480, Note_on_c, 0, 79, 90
2, 213540, Note_on_c, 0, 70, 0
2, 213540, Note_on_c, 0, 69, 90
2, 213600, Note_on_c, 0, 69, 0
2, 213600, Note_on_c, 0, 67, 90
2, 213660, Note_on_c, 0, 79, 0
2, 213660, Note_on_c, 0, 77, 90
2, 213720, Note_on_c, 0, 77, 0
2, 213720, Note_on_c, 0, 67, 0
2, 213720, Note_on_c, 0, 76, 90
2, 213720, Note_on_c, 0, 72, 90
2, 213900, Note_on_c, 0, 72, 0
2, 213900, Note_on_c, 0, 76, 0
2, 213900, Note_on_c, 0, 74, 90
2, 213900, Note_on_c, 0, 70, 90
2, 213960, Note_on_c, 0, 70, 0
2, 213960, Note_on_c, 0, 74, 0
2, 213960, Note_on_c, 0, 72, 90
2, 213960, Note_on_c, 0, 69, 90
2, 214080, Note_on_c, 0, 72, 0
2, 214080, Note_on_c, 0, 77, 90
2, 214140, Note_on_c, 0, 77, 0
2, 214140, Note_on_c, 0, 69, 0
2, 214140, Note_on_c, 0, 76, 90
2, 214140, Note_on_c, 0, 67, 90
2, 214200, Note_on_c, 0, 67, 0
2, 214200, Note_on_c, 0, 76, 0
2, 214200, Note_on_c, 0, 74, 90
2, 214200, Note_on_c, 0, 65, 90
2, 214320, Note_on_c, 0, 65, 0
2, 214320, Note_on_c, 0, 74, 0
2, 214320, Note_on_c, 0, 79, 90
2, 214320, Note_on_c, 0, 70, 90
2, 214380, Note_on_c, 0, 70, 0
2, 214380, Note_on_c, 0, 79, 0
2, 214380, Note_on_c, 0, 77, 90
2, 214380, Note_on_c, 0, 69, 90
2, 214440, Note_on_c, 0, 69, 0
2, 214440, Note_on_c, 0, 77, 0
2, 214440, Note_on_c, 0, 76, 90
2, 214440, Note_on_c, 0, 67, 90
2, 214560, Note_on_c, 0, 67, 0
2, 214560, Note_on_c, 0, 76, 0
2, 214560, Note_on_c, 0, 81, 90
2, 214560, Note_on_c, 0, 72, 90
2, 214620, Note_on_c, 0, 72, 0
2, 214620, Note_on_c, 0, 70, 90
2, 214680, Note_on_c, 0, 70, 0
2, 214680, Note_on_c, 0, 72, 90
2, 214800, Note_on_c, 0, 81, 0
2, 214800, Note_on_c, 0, 74, 90
2, 214860, Note_on_c, 0, 72, 0
2, 214860, Note_on_c, 0, 69, 90
2, 214920, Note_on_c, 0, 69, 0
2, 214920, Note_on_c, 0, 70, 90
2, 214980, Note_on_c, 0, 74, 0
2, 214980, Note_on_c, 0, 76, 90
2, 215040, Note_on_c, 0, 76, 0
2, 215040, Note_on_c, 0, 70, 0
2, 215040, Note_on_c, 0, 77, 90
2, 215040, Note_on_c, 0, 69, 90
2, 215100, Note_on_c, 0, 69, 0
2, 215100, Note_on_c, 0, 73, 90
2, 215160, Note_on_c, 0, 73, 0
2, 215160, Note_on_c, 0, 74, 90
2, 215220, Note_on_c, 0, 74, 0
2, 215220, Note_on_c, 0, 77, 0
2, 215220, Note_on_c, 0, 79, 90
2, 215220, Note_on_c, 0, 76, 90
2, 215280, Note_on_c, 0, 76, 0
2, 215280, Note_on_c, 0, 79, 0
2, 215280, Note_on_c, 0, 81, 90
2, 215280, Note_on_c, 0, 77, 90
2, 215520, Note_on_c, 0, 77, 0
2, 215520, Note_on_c, 0, 81, 0
2, 215520, Note_on_c, 0, 82, 90
2, 215580, Note_on_c, 0, 81, 90
2, 215640, Note_on_c, 0, 81, 0
2, 215640, Note_on_c, 0, 79, 90
2, 215700, Note_on_c, 0, 79, 0
2, 215700, Note_on_c, 0, 77, 90
2, 215760, Note_on_c, 0, 77, 0
2, 215760, Note_on_c, 0, 82, 0
2, 215760, Note_on_c, 0, 81, 90
2, 215760, Note_on_c, 0, 76, 90
2, 215820, Note_on_c, 0, 76, 0
2, 215820, Note_on_c, 0, 74, 90
2, 215880, Note_on_c, 0, 74, 0
2, 215880, Note_on_c, 0, 76, 90
2, 215940, Note_on_c, 0, 81, 0
2, 215940, Note_on_c, 0, 79, 90
2, 216000, Note_on_c, 0, 79, 0
2, 216000, Note_on_c, 0, 76, 0
2, 216000, Note_on_c, 0, 77, 90
2, 216000, Note_on_c, 0, 74, 90
2, 216240, Note_on_c, 0, 74, 0
2, 216300, Note_on_c, 0, 77, 0
2, 216300, Note_on_c, 0, 76, 90
2, 216360, Note_on_c, 0, 76, 0
2, 216360, Note_on_c, 0, 77, 90
2, 216420, Note_on_c, 0, 77, 0
2, 216420, Note_on_c, 0, 79, 90
2, 216480, Note_on_c, 0, 79, 0
2, 216480, Note_on_c, 0, 81, 90
2, 216540, Note_on_c, 0, 81, 0
2, 216540, Note_on_c, 0, 79, 90
2, 216600, Note_on_c, 0, 79, 0
2, 216600, Note_on_c, 0, 77, 90
2, 216660, Note_on_c, 0, 77, 0
2, 216660, Note_on_c, 0, 81, 90
2, 216720, Note_on_c, 0, 81, 0
2, 216720, Note_on_c, 0, 74, 90
2, 217020, Note_on_c, 0, 74, 0
2, 217020, Note_on_c, 0, 70, 90
2, 217080, Note_on_c, 0, 70, 0
2, 217080, Note_on_c, 0, 72, 90
2, 217320, Note_on_c, 0, 72, 0
2, 217320, Note_on_c, 0, 70, 90
2, 217440, Note_on_c, 0, 70, 0
2, 217440, Note_on_c, 0, 69, 90
2, 217740, Note_on_c, 0, 69, 0
2, 217740, Note_on_c, 0, 62, 90
2, 217800, Note_on_c, 0, 62, 0
2, 217800, Note_on_c, 0, 67, 90
2, 217860, Note_on_c, 0, 67, 0
2, 217860, Note_on_c, 0, 70, 90
2, 217920, Note_on_c, 0, 70, 0
2, 217920, Note_on_c, 0, 64, 90
2, 218280, Note_on_c, 0, 64, 0
2, 218280, Note_on_c, 0, 62, 90
2, 218460, Note_on_c, 0, 62, 0
2, 218460, Note_on_c, 0, 61, 90
2, 218520, Note_on_c, 0, 61, 0
2, 218520, Note_on_c, 0, 62, 90
2, 218580, Note_on_c, 0, 62, 0
2, 218580, Note_on_c, 0, 59, 90
2, 218640, Note_on_c, 0, 59, 0
2, 218640, Note_on_c, 0, 60, 90
2, 218700, Note_on_c, 0, 60, 0
2, 218700, Note_on_c, 0, 64, 90
2, 218760, Note_on_c, 0, 64, 0
2, 218760, Note_on_c, 0, 69, 90
2, 218880, Note_on_c, 0, 62, 90
2, 218940, Note_on_c, 0, 69, 0
2, 218940, Note_on_c, 0, 70, 90
2, 219000, Note_on_c, 0, 70, 0
2, 219000, Note_on_c, 0, 69, 90
2, 219060, Note_on_c, 0, 69, 0
2, 219060, Note_on_c, 0, 67, 90
2, 219120, Note_on_c, 0, 67, 0
2, 219120, Note_on_c, 0, 62, 0
2, 219120, Note_on_c, 0, 65, 90
2, 219120, Note_on_c, 0, 69, 90
2, 219180, Note_on_c, 0, 65, 0
2, 219180, Note_on_c, 0, 64, 90
2, 219240, Note_on_c, 0, 64, 0
2, 219240, Note_on_c, 0, 62, 90
2, 219300, Note_on_c, 0, 62, 0
2, 219300, Note_on_c, 0, 69, 0
2, 219300, Note_on_c, 0, 64, 90
2, 219300, Note_on_c, 0, 67, 90
2, 219360, Note_on_c, 0, 67, 0
2, 219360, Note_on_c, 0, 64, 0
2, 219360, Note_on_c, 0, 65, 90
2, 219360, Note_on_c, 0, 65, 90
2, 219420, Note_on_c, 0, 65, 0
2, 219420, Note_on_c, 0, 67, 90
2, 219480, Note_on_c, 0, 67, 0
2, 219480, Note_on_c, 0, 69, 90
2, 219540, Note_on_c, 0, 65, 0
2, 219540, Note_on_c, 0, 64, 90
2, 219600, Note_on_c, 0, 64, 0
2, 219600, Note_on_c, 0, 62, 90
2, 219660, Note_on_c, 0, 69, 0
2, 219660, Note_on_c, 0, 67, 90
2, 219720, Note_on_c, 0, 67, 0
2, 219720, Note_on_c, 0, 65, 90
2, 219780, Note_on_c, 0, 65, 0
2, 219780, Note_on_c, 0, 67, 90
2, 219840, Note_on_c, 0, 67, 0
2, 219840, Note_on_c, 0, 62, 0
2, 219840, Note_on_c, 0, 69, 90
2, 219840, Note_on_c, 0, 61, 90
2, 219900, Note_on_c, 0, 69, 0
2, 219900, Note_on_c, 0, 67, 90
2, 219960, Note_on_c, 0, 67, 0
2, 219960, Note_on_c, 0, 65, 90
2, 220020, Note_on_c, 0, 65, 0
2, 220020, Note_on_c, 0, 64, 90
2, 220080, Note_on_c, 0, 64, 0
2, 220080, Note_on_c, 0, 61, 0
2, 220080, Note_on_c, 0, 62, 90
2, 220080, Note_on_c, 0, 62, 90
2, 220140, Note_on_c, 0, 62, 0
2, 220140, Note_on_c, 0, 70, 90
2, 220200, Note_on_c, 0, 70, 0
2, 220200, Note_on_c, 0, 69, 90
2, 220260, Note_on_c, 0, 69, 0
2, 220260, Note_on_c, 0, 62, 0
2, 220260, Note_on_c, 0, 67, 90
2, 220260, Note_on_c, 0, 64, 90
2, 220320, Note_on_c, 0, 64, 0
2, 220320, Note_on_c, 0, 67, 0
2, 220320, Note_on_c, 0, 65, 90
2, 220320, Note_on_c, 0, 65, 90
2, 220380, Note_on_c, 0, 65, 0
2, 220380, Note_on_c, 0, 69, 90
2, 220440, Note_on_c, 0, 69, 0
2, 220440, Note_on_c, 0, 71, 90
2, 220500, Note_on_c, 0, 71, 0
2, 220500, Note_on_c, 0, 73, 90
2, 220560, Note_on_c, 0, 73, 0
2, 220560, Note_on_c, 0, 74, 90
2, 220620, Note_on_c, 0, 65, 0
2, 220620, Note_on_c, 0, 67, 90
2, 220680, Note_on_c, 0, 67, 0
2, 220680, Note_on_c, 0, 65, 90
2, 220740, Note_on_c, 0, 65, 0
2, 220740, Note_on_c, 0, 64, 90
2, 220800, Note_on_c, 0, 64, 0
2, 220800, Note_on_c, 0, 62, 90
2, 220860, Note_on_c, 0, 74, 0
2, 220860, Note_on_c, 0, 75, 90
2, 220920, Note_on_c, 0, 75, 0
2, 220920, Note_on_c, 0, 74, 90
2, 220980, Note_on_c, 0, 74, 0
2, 220980, Note_on_c, 0, 72, 90
2, 221040, Note_on_c, 0, 72, 0
2, 221040, Note_on_c, 0, 70, 90
2, 221100, Note_on_c, 0, 70, 0
2, 221100, Note_on_c, 0, 74, 90
2, 221160, Note_on_c, 0, 74, 0
2, 221160, Note_on_c, 0, 62, 0
2, 221160, Note_on_c, 0, 76, 90
2, 221220, Note_on_c, 0, 76, 0
2, 221220, Note_on_c, 0, 78, 90
2, 221280, Note_on_c, 0, 78, 0
2, 221280, Note_on_c, 0, 79, 90
2, 221340, Note_on_c, 0, 69, 90
2, 221400, Note_on_c, 0, 69, 0
2, 221400, Note_on_c, 0, 70, 90
2, 221460, Note_on_c, 0, 70, 0
2, 221460, Note_on_c, 0, 72, 90
2, 221520, Note_on_c, 0, 72, 0
2, 221520, Note_on_c, 0, 74, 90
2, 221580, Note_on_c, 0, 79, 0
2, 221580, Note_on_c, 0, 81, 90
2, 221640, Note_on_c, 0, 81, 0
2, 221640, Note_on_c, 0, 79, 90
2, 221700, Note_on_c, 0, 79, 0
2, 221700, Note_on_c, 0, 77, 90
2, 221760, Note_on_c, 0, 77, 0
2, 221760, Note_on_c, 0, 74, 0
2, 221760, Note_on_c, 0, 76, 90
2, 221760, Note_on_c, 0, 69, 90
2, 221820, Note_on_c, 0, 76, 0
2, 221820, Note_on_c, 0, 73, 90
2, 221880, Note_on_c, 0, 73, 0
2, 221880, Note_on_c, 0, 74, 90
2, 222060, Note_on_c, 0, 69, 0
2, 222060, Note_on_c, 0, 69, 90
2, 222120, Note_on_c, 0, 69, 0
2, 222120, Note_on_c, 0, 67, 90
2, 222180, Note_on_c, 0, 74, 0
2, 222180, Note_on_c, 0, 79, 90
2, 222240, Note_on_c, 0, 79, 0
2, 222240, Note_on_c, 0, 73, 90
2, 222300, Note_on_c, 0, 67, 0
2, 222300, Note_on_c, 0, 69, 90
2, 222360, Note_on_c, 0, 69, 0
2, 222360, Note_on_c, 0, 73, 0
2, 222360, Note_on_c, 0, 74, 90
2, 222360, Note_on_c, 0, 70, 90
2, 222480, Note_on_c, 0, 70, 0
2, 222480, Note_on_c, 0, 69, 90
2, 222600, Note_on_c, 0, 74, 0
2, 222600, Note_on_c, 0, 73, 90
2, 222660, Note_on_c, 0, 69, 0
2, 222660, Note_on_c, 0, 67, 90
2, 222720, Note_on_c, 0, 73, 0
2, 222720, Note_on_c, 0, 74, 90
2, 222780, Note_on_c, 0, 67, 0
2, 222780, Note_on_c, 0, 64, 90
2, 222840, Note_on_c, 0, 64, 0
2, 222840, Note_on_c, 0, 66, 90
2, 222960, Note_on_c, 0, 66, 0
2, 222960, Note_on_c, 0, 74, 0
2, 222960, Note_on_c, 0, 69, 90
2, 223020, Note_on_c, 0, 74, 90
2, 223080, Note_on_c, 0, 74, 0
2, 223080, Note_on_c, 0, 72, 90
2, 223140, Note_on_c, 0, 72, 0
2, 223140, Note_on_c, 0, 69, 0
2, 223140, Note_on_c, 0, 70, 90
2, 223140, Note_on_c, 0, 67, 90
2, 223200, Note_on_c, 0, 67, 0
2, 223200, Note_on_c, 0, 70, 0
2, 223200, Note_on_c, 0, 69, 90
2, 223200, Note_on_c, 0, 66, 90
2, 223260, Note_on_c, 0, 69, 0
2, 223260, Note_on_c, 0, 70, 90
2, 223320, Note_on_c, 0, 70, 0
2, 223320, Note_on_c, 0, 69, 90
2, 223380, Note_on_c, 0, 69, 0
2, 223380, Note_on_c, 0, 66, 0
2, 223380, Note_on_c, 0, 67, 90
2, 223380, Note_on_c, 0, 64, 90
2, 223440, Note_on_c, 0, 64, 0
2, 223440, Note_on_c, 0, 67, 0
2, 223440, Note_on_c, 0, 65, 90
2, 223440, Note_on_c, 0, 62, 90
2, 223500, Note_on_c, 0, 65, 0
2, 223500, Note_on_c, 0, 67, 90
2, 223560, Note_on_c, 0, 67, 0
2, 223560, Note_on_c, 0, 65, 90
2, 223620, Note_on_c, 0, 65, 0
2, 223620, Note_on_c, 0, 69, 90
2, 223680, Note_on_c, 0, 69, 0
2, 223680, Note_on_c, 0, 62, 0
2, 223680, Note_on_c, 0, 64, 90
2, 223680, Note_on_c, 0, 61, 90
2, 223740, Note_on_c, 0, 64, 0
2, 223740, Note_on_c, 0, 62, 90
2, 223800, Note_on_c, 0, 62, 0
2, 223800, Note_on_c, 0, 64, 90
2, 223860, Note_on_c, 0, 64, 0
2, 223860, Note_on_c, 0, 67, 90
2, 223920, Note_on_c, 0, 67, 0
2, 223920, Note_on_c, 0, 61, 0
2, 223920, Note_on_c, 0, 66, 90
2, 223920, Note_on_c, 0, 62, 90
2, 223980, Note_on_c, 0, 66, 0
2, 223980, Note_on_c, 0, 69, 90
2, 223980, Note_on_c, 0, 69, 90
2, 224040, Note_on_c, 0, 69, 0
2, 224040, Note_on_c, 0, 72, 90
2, 224100, Note_on_c, 0, 62, 0
2, 224100, Note_on_c, 0, 64, 90
2, 224160, Note_on_c, 0, 64, 0
2, 224160, Note_on_c, 0, 66, 90
2, 224460, Note_on_c, 0, 66, 0
2, 224460, Note_on_c, 0, 72, 0
2, 224460, Note_on_c, 0, 69, 0
2, 224460, Note_on_c, 0, 70, 90
2, 224460, Note_on_c, 0, 70, 90
2, 224460, Note_on_c, 0, 67, 90
2, 224520, Note_on_c, 0, 67, 0
2, 224520, Note_on_c, 0, 70, 0
2, 224520, Note_on_c, 0, 70, 0
2, 224520, Note_on_c, 0, 69, 90
2, 224520, Note_on_c, 0, 74, 90
2, 224520, Note_on_c, 0, 66, 90
2, 224580, Note_on_c, 0, 66, 0
2, 224580, Note_on_c, 0, 74, 0
2, 224580, Note_on_c, 0, 69, 0
2, 224580, Note_on_c, 0, 67, 90
2, 224580, Note_on_c, 0, 73, 90
2, 224580, Note_on_c, 0, 64, 90
2, 224640, Note_on_c, 0, 64, 0
2, 224640, Note_on_c, 0, 73, 0
2, 224640, Note_on_c, 0, 67, 0
2, 224640, Note_on_c, 0, 66, 90
2, 224640, Note_on_c, 0, 74, 90
2, 224640, Note_on_c, 0, 62, 90
2, 225120, Note_on_c, 0, 62, 0
2, 225120, Note_on_c, 0, 74, 0
2, 225120, Note_on_c, 0, 66, 0
2, 225120, Control_c, 0, 121, 0
2, 225120, Control_c, 0, 121, 0
2, 225600, Control_c, 0, 91, 40
2, 225600, Control_c, 0, 0, 0
2, 225600, Note_on_c, 0, 81, 90
2, 225720, Note_on_c, 0, 81, 0
2, 225720, Note_on_c, 0, 74, 90
2, 225810, Note_on_c, 0, 74, 0
2, 225810, Note_on_c, 0, 76, 90
2, 225840, Note_on_c, 0, 76, 0
2, 225840, Note_on_c, 0, 77, 90
2, 225930, Note_on_c, 0, 77, 0
2, 225930, Note_on_c, 0, 79, 90
2, 225960, Note_on_c, 0, 79, 0
2, 225960, Note_on_c, 0, 81, 90
2, 226080, Note_on_c, 0, 81, 0
2, 226080, Note_on_c, 0, 82, 90
2, 226200, Note_on_c, 0, 82, 0
2, 226200, Note_on_c, 0, 81, 90
2, 226290, Note_on_c, 0, 81, 0
2, 226290, Note_on_c, 0, 79, 90
2, 226320, Note_on_c, 0, 79, 0
2, 226320, Note_on_c, 0, 77, 90
2, 226320, Control_c, 0, 91, 40
2, 226320, Control_c, 0, 0, 0
2, 226320, Note_on_c, 0, 62, 90
2, 226440, Note_on_c, 0, 62, 0
2, 226440, Note_on_c, 0, 69, 90
2, 226470, Note_on_c, 0, 77, 0
2, 226470, Note_on_c, 0, 76, 90
2, 226500, Note_on_c, 0, 76, 0
2, 226500, Note_on_c, 0, 77, 90
2, 226530, Note_on_c, 0, 77, 0
2, 226530, Note_on_c, 0, 69, 0
2, 226530, Note_on_c, 0, 79, 90
2, 226530, Note_on_c, 0, 67, 90
2, 226560, Note_on_c, 0, 67, 0
2, 226560, Note_on_c, 0, 79, 0
2, 226560, Note_on_c, 0, 81, 90
2, 226650, Note_on_c, 0, 81, 0
2, 226650, Note_on_c, 0, 79, 90
2, 226680, Note_on_c, 0, 79, 0
2, 226680, Note_on_c, 0, 77, 90
2, 226710, Note_on_c, 0, 77, 0
2, 226710, Note_on_c, 0, 76, 90
2, 226740, Note_on_c, 0, 76, 0
2, 226740, Note_on_c, 0, 74, 90
2, 226770, Note_on_c, 0, 74, 0
2, 226770, Note_on_c, 0, 72, 90
2, 226800, Note_on_c, 0, 72, 0
2, 226800, Note_on_c, 0, 72, 90
2, 226815, Note_on_c, 0, 72, 0
2, 226815, Note_on_c, 0, 70, 90
2, 226830, Note_on_c, 0, 70, 0
2, 226830, Note_on_c, 0, 72, 90
2, 226845, Note_on_c, 0, 72, 0
2, 226845, Note_on_c, 0, 70, 90
2, 226860, Note_on_c, 0, 70, 0
2, 226860, Note_on_c, 0, 72, 90
2, 226875, Note_on_c, 0, 72, 0
2, 226875, Note_on_c, 0, 70, 90
2, 226890, Note_on_c, 0, 70, 0
2, 226890, Note_on_c, 0, 72, 90
2, 226905, Note_on_c, 0, 72, 0
2, 226905, Note_on_c, 0, 70, 90
2, 226920, Note_on_c, 0, 70, 0
2, 226920, Note_on_c, 0, 69, 90
2, 226920, Note_on_c, 0, 62, 90
2, 227010, Note_on_c, 0, 62, 0
2, 227010, Note_on_c, 0, 64, 90
2, 227040, Note_on_c, 0, 64, 0
2, 227040, Note_on_c, 0, 65, 90
2, 227130, Note_on_c, 0, 69, 0
2, 227130, Note_on_c, 0, 71, 90
2, 227160, Note_on_c, 0, 71, 0
2, 227160, Note_on_c, 0, 72, 90
2, 227190, Note_on_c, 0, 65, 0
2, 227190, Note_on_c, 0, 67, 90
2, 227220, Note_on_c, 0, 67, 0
2, 227220, Note_on_c, 0, 65, 90
2, 227250, Note_on_c, 0, 65, 0
2, 227250, Note_on_c, 0, 64, 90
2, 227280, Note_on_c, 0, 64, 0
2, 227280, Note_on_c, 0, 62, 90
2, 227370, Note_on_c, 0, 72, 0
2, 227370, Note_on_c, 0, 71, 90
2, 227400, Note_on_c, 0, 71, 0
2, 227400, Note_on_c, 0, 62, 0
2, 227400, Note_on_c, 0, 73, 90
2, 227400, Note_on_c, 0, 64, 90
2, 227490, Note_on_c, 0, 64, 0
2, 227490, Note_on_c, 0, 73, 0
2, 227490, Note_on_c, 0, 74, 90
2, 227490, Note_on_c, 0, 65, 90
2, 227520, Note_on_c, 0, 65, 0
2, 227520, Note_on_c, 0, 74, 0
2, 227520, Note_on_c, 0, 76, 90
2, 227520, Note_on_c, 0, 67, 90
2, 227640, Note_on_c, 0, 67, 0
2, 227640, Note_on_c, 0, 65, 90
2, 227670, Note_on_c, 0, 76, 0
2, 227670, Note_on_c, 0, 77, 90
2, 227700, Note_on_c, 0, 77, 0
2, 227700, Note_on_c, 0, 76, 90
2, 227730, Note_on_c, 0, 76, 0
2, 227730, Note_on_c, 0, 74, 90
2, 227760, Note_on_c, 0, 74, 0
2, 227760, Note_on_c, 0, 73, 90
2, 227850, Note_on_c, 0, 65, 0
2, 227850, Note_on_c, 0, 64, 90
2, 227880, Note_on_c, 0, 64, 0
2, 227880, Note_on_c, 0, 73, 0
2, 227880, Note_on_c, 0, 74, 90
2, 227880, Note_on_c, 0, 65, 90
2, 227970, Note_on_c, 0, 65, 0
2, 227970, Note_on_c, 0, 74, 0
2, 227970, Note_on_c, 0, 76, 90
2, 227970, Note_on_c, 0, 67, 90
2, 228000, Note_on_c, 0, 67, 0
2, 228000, Note_on_c, 0, 76, 0
2, 228000, Note_on_c, 0, 77, 90
2, 228000, Note_on_c, 0, 69, 80
2, 228090, Note_on_c, 0, 77, 0
2, 228090, Note_on_c, 0, 76, 90
2, 228120, Note_on_c, 0, 76, 0
2, 228120, Note_on_c, 0, 77, 90
2, 228210, Note_on_c, 0, 77, 0
2, 228210, Note_on_c, 0, 74, 90
2, 228240, Note_on_c, 0, 74, 0
2, 228240, Note_on_c, 0, 76, 90
2, 228330, Note_on_c, 0, 69, 0
2, 228330, Note_on_c, 0, 70, 80
2, 228354, Note_on_c, 0, 70, 0
2, 228360, Note_on_c, 0, 72, 80
2, 228432, Note_on_c, 0, 72, 0
2, 228435, Note_on_c, 0, 70, 80
2, 228447, Note_on_c, 0, 70, 0
2, 228450, Note_on_c, 0, 69, 80
2, 228462, Note_on_c, 0, 69, 0
2, 228465, Note_on_c, 0, 67, 80
2, 228477, Note_on_c, 0, 67, 0
2, 228480, Note_on_c, 0, 69, 80
2, 228570, Note_on_c, 0, 76, 0
2, 228570, Note_on_c, 0, 74, 90
2, 228600, Note_on_c, 0, 74, 0
2, 228600, Note_on_c, 0, 72, 90
2, 228690, Note_on_c, 0, 72, 0
2, 228690, Note_on_c, 0, 71, 90
2, 228720, Note_on_c, 0, 71, 0
2, 228720, Note_on_c, 0, 69, 0
2, 228720, Note_on_c, 0, 69, 90
2, 228720, Note_on_c, 0, 76, 80
2, 228810, Note_on_c, 0, 69, 0
2, 228810, Note_on_c, 0, 81, 90
2, 228840, Note_on_c, 0, 81, 0
2, 228840, Note_on_c, 0, 79, 90
2, 228900, Note_on_c, 0, 76, 0
2, 228900, Note_on_c, 0, 74, 80
2, 228930, Note_on_c, 0, 79, 0
2, 228930, Note_on_c, 0, 77, 90
2, 228960, Note_on_c, 0, 77, 0
2, 228960, Note_on_c, 0, 74, 0
2, 228960, Note_on_c, 0, 76, 90
2, 228960, Note_on_c, 0, 72, 90
2, 229080, Note_on_c, 0, 76, 0
2, 229140, Note_on_c, 0, 72, 0
2, 229140, Note_on_c, 0, 71, 90
2, 229200, Note_on_c, 0, 71, 0
2, 229200, Note_on_c, 0, 69, 90
2, 229440, Note_on_c, 0, 69, 0
2, 229440, Note_on_c, 0, 68, 90
2, 229680, Note_on_c, 0, 68, 0
2, 229680, Note_on_c, 0, 69, 90
2, 229680, Note_on_c, 0, 69, 90
2, 229800, Note_on_c, 0, 69, 0
2, 229800, Note_on_c, 0, 76, 90
2, 229860, Note_on_c, 0, 69, 0
2, 229860, Note_on_c, 0, 71, 90
2, 229890, Note_on_c, 0, 76, 0
2, 229890, Note_on_c, 0, 74, 90
2, 229920, Note_on_c, 0, 74, 0
2, 229920, Note_on_c, 0, 71, 0
2, 229920, Note_on_c, 0, 72, 90
2, 229920, Note_on_c, 0, 72, 90
2, 230010, Note_on_c, 0, 72, 0
2, 230010, Note_on_c, 0, 71, 90
2, 230040, Note_on_c, 0, 71, 0
2, 230040, Note_on_c, 0, 69, 90
2, 230160, Note_on_c, 0, 69, 0
2, 230160, Note_on_c, 0, 68, 90
2, 230250, Note_on_c, 0, 72, 0
2, 230250, Note_on_c, 0, 74, 90
2, 230280, Note_on_c, 0, 74, 0
2, 230280, Note_on_c, 0, 68, 0
2, 230280, Note_on_c, 0, 69, 90
2, 230280, Note_on_c, 0, 72, 90
2, 230370, Note_on_c, 0, 72, 0
2, 230370, Note_on_c, 0, 69, 0
2, 230370, Note_on_c, 0, 71, 90
2, 230370, Note_on_c, 0, 71, 90
2, 230400, Note_on_c, 0, 71, 0
2, 230400, Note_on_c, 0, 71, 0
2, 230400, Note_on_c, 0, 72, 90
2, 230400, Note_on_c, 0, 69, 90
2, 230550, Note_on_c, 0, 72, 0
2, 230550, Note_on_c, 0, 74, 90
2, 230580, Note_on_c, 0, 74, 0
2, 230580, Note_on_c, 0, 72, 90
2, 230610, Note_on_c, 0, 72, 0
2, 230610, Note_on_c, 0, 69, 0
2, 230610, Note_on_c, 0, 71, 90
2, 230610, Note_on_c, 0, 68, 90
2, 230640, Note_on_c, 0, 68, 0
2, 230640, Note_on_c, 0, 71, 0
2, 230640, Note_on_c, 0, 69, 90
2, 230640, Note_on_c, 0, 69, 90
2, 230832, Note_on_c, 0, 69, 0
2, 230835, Note_on_c, 0, 67, 80
2, 230847, Note_on_c, 0, 67, 0
2, 230850, Note_on_c, 0, 65, 80
2, 230862, Note_on_c, 0, 65, 0
2, 230865, Note_on_c, 0, 64, 80
2, 230877, Note_on_c, 0, 64, 0
2, 230880, Note_on_c, 0, 65, 80
2, 231075, Note_on_c, 0, 69, 0
2, 231075, Note_on_c, 0, 69, 90
2, 231090, Note_on_c, 0, 69, 0
2, 231090, Note_on_c, 0, 70, 90
2, 231105, Note_on_c, 0, 70, 0
2, 231105, Note_on_c, 0, 72, 90
2, 231120, Note_on_c, 0, 72, 0
2, 231120, Note_on_c, 0, 74, 90
2, 231312, Note_on_c, 0, 65, 0
2, 231315, Note_on_c, 0, 65, 80
2, 231327, Note_on_c, 0, 65, 0
2, 231330, Note_on_c, 0, 67, 80
2, 231342, Note_on_c, 0, 67, 0
2, 231345, Note_on_c, 0, 69, 80
2, 231357, Note_on_c, 0, 69, 0
2, 231360, Note_on_c, 0, 70, 80
2, 231552, Note_on_c, 0, 70, 0
2, 231555, Note_on_c, 0, 74, 0
2, 231555, Note_on_c, 0, 74, 90
2, 231570, Note_on_c, 0, 74, 0
2, 231570, Note_on_c, 0, 76, 90
2, 231585, Note_on_c, 0, 76, 0
2, 231585, Note_on_c, 0, 77, 90
2, 231600, Note_on_c, 0, 77, 0
2, 231600, Note_on_c, 0, 79, 90
2, 231600, Note_on_c, 0, 70, 80
2, 231690, Note_on_c, 0, 70, 0
2, 231690, Note_on_c, 0, 71, 80
2, 231714, Note_on_c, 0, 71, 0
2, 231720, Note_on_c, 0, 74, 80
2, 231780, Note_on_c, 0, 74, 0
2, 231780, Note_on_c, 0, 73, 80
2, 231792, Note_on_c, 0, 73, 0
2, 231795, Note_on_c, 0, 71, 80
2, 231807, Note_on_c, 0, 71, 0
2, 231810, Note_on_c, 0, 73, 80
2, 231822, Note_on_c, 0, 73, 0
2, 231825, Note_on_c, 0, 74, 80
2, 231837, Note_on_c, 0, 74, 0
2, 231840, Note_on_c, 0, 79, 0
2, 231840, Note_on_c, 0, 73, 90
2, 231840, Note_on_c, 0, 76, 80
2, 231930, Note_on_c, 0, 77, 90
2, 231936, Note_on_c, 0, 76, 0
2, 231945, Note_on_c, 0, 77, 0
2, 231945, Note_on_c, 0, 76, 90
2, 231960, Note_on_c, 0, 76, 0
2, 231960, Note_on_c, 0, 77, 90
2, 232050, Note_on_c, 0, 77, 0
2, 232050, Note_on_c, 0, 73, 0
2, 232050, Note_on_c, 0, 79, 90
2, 232050, Note_on_c, 0, 74, 90
2, 232065, Note_on_c, 0, 74, 0
2, 232065, Note_on_c, 0, 73, 90
2, 232080, Note_on_c, 0, 73, 0
2, 232080, Note_on_c, 0, 79, 0
2, 232080, Note_on_c, 0, 81, 90
2, 232080, Note_on_c, 0, 74, 90
2, 232170, Note_on_c, 0, 81, 0
2, 232170, Note_on_c, 0, 79, 90
2, 232185, Note_on_c, 0, 79, 0
2, 232185, Note_on_c, 0, 77, 90
2, 232200, Note_on_c, 0, 77, 0
2, 232200, Note_on_c, 0, 76, 90
2, 232290, Note_on_c, 0, 76, 0
2, 232290, Note_on_c, 0, 74, 0
2, 232290, Note_on_c, 0, 78, 90
2, 232290, Note_on_c, 0, 72, 90
2, 232320, Note_on_c, 0, 72, 0
2, 232320, Note_on_c, 0, 78, 0
2, 232320, Note_on_c, 0, 79, 90
2, 232320, Note_on_c, 0, 70, 90
2, 232410, Note_on_c, 0, 70, 0
2, 232410, Note_on_c, 0, 67, 90
2, 232440, Note_on_c, 0, 67, 0
2, 232440, Note_on_c, 0, 79, 0
2, 232440, Note_on_c, 0, 65, 90
2, 232530, Note_on_c, 0, 65, 0
2, 232530, Note_on_c, 0, 64, 90
2, 232560, Note_on_c, 0, 64, 0
2, 232560, Note_on_c, 0, 69, 90
2, 232560, Note_on_c, 0, 81, 90
2, 232560, Note_on_c, 0, 62, 90
2, 232650, Note_on_c, 0, 62, 0
2, 232650, Note_on_c, 0, 73, 90
2, 232680, Note_on_c, 0, 73, 0
2, 232680, Note_on_c, 0, 81, 0
2, 232680, Note_on_c, 0, 74, 90
2, 232680, Note_on_c, 0, 74, 90
2, 232740, Note_on_c, 0, 69, 0
2, 232770, Note_on_c, 0, 74, 0
2, 232770, Note_on_c, 0, 76, 90
2, 232800, Note_on_c, 0, 76, 0
2, 232800, Note_on_c, 0, 77, 90
2, 232890, Note_on_c, 0, 77, 0
2, 232890, Note_on_c, 0, 74, 0
2, 232890, Note_on_c, 0, 79, 90
2, 232890, Note_on_c, 0, 71, 90
2, 232920, Note_on_c, 0, 71, 0
2, 232920, Note_on_c, 0, 79, 0
2, 232920, Note_on_c, 0, 81, 90
2, 232920, Note_on_c, 0, 73, 90
2, 233010, Note_on_c, 0, 73, 0
2, 233010, Note_on_c, 0, 69, 90
2, 233040, Note_on_c, 0, 69, 0
2, 233040, Note_on_c, 0, 81, 0
2, 233040, Note_on_c, 0, 82, 90
2, 233040, Note_on_c, 0, 65, 90
2, 233130, Note_on_c, 0, 65, 0
2, 233130, Note_on_c, 0, 64, 90
2, 233160, Note_on_c, 0, 64, 0
2, 233160, Note_on_c, 0, 82, 0
2, 233160, Note_on_c, 0, 81, 90
2, 233160, Note_on_c, 0, 65, 90
2, 233250, Note_on_c, 0, 65, 0
2, 233250, Note_on_c, 0, 81, 0
2, 233250, Note_on_c, 0, 79, 90
2, 233250, Note_on_c, 0, 67, 90
2, 233280, Note_on_c, 0, 67, 0
2, 233280, Note_on_c, 0, 79, 0
2, 233280, Note_on_c, 0, 77, 90
2, 233280, Note_on_c, 0, 69, 90
2, 233430, Note_on_c, 0, 77, 0
2, 233430, Note_on_c, 0, 76, 90
2, 233460, Note_on_c, 0, 76, 0
2, 233460, Note_on_c, 0, 77, 90
2, 233490, Note_on_c, 0, 77, 0
2, 233490, Note_on_c, 0, 69, 0
2, 233490, Note_on_c, 0, 79, 90
2, 233490, Note_on_c, 0, 70, 90
2, 233520, Note_on_c, 0, 70, 0
2, 233520, Note_on_c, 0, 79, 0
2, 233520, Note_on_c, 0, 81, 90
2, 233520, Note_on_c, 0, 69, 90
2, 233610, Note_on_c, 0, 69, 0
2, 233610, Note_on_c, 0, 79, 90
2, 233640, Note_on_c, 0, 79, 0
2, 233640, Note_on_c, 0, 81, 0
2, 233640, Note_on_c, 0, 77, 90
2, 233670, Note_on_c, 0, 77, 0
2, 233670, Note_on_c, 0, 76, 90
2, 233700, Note_on_c, 0, 76, 0
2, 233700, Note_on_c, 0, 74, 90
2, 233730, Note_on_c, 0, 74, 0
2, 233730, Note_on_c, 0, 73, 90
2, 233760, Note_on_c, 0, 73, 0
2, 233760, Note_on_c, 0, 74, 90
2, 233910, Note_on_c, 0, 74, 0
2, 233910, Note_on_c, 0, 72, 90
2, 233940, Note_on_c, 0, 72, 0
2, 233940, Note_on_c, 0, 71, 90
2, 233970, Note_on_c, 0, 71, 0
2, 233970, Note_on_c, 0, 69, 90
2, 234000, Note_on_c, 0, 69, 0
2, 234000, Note_on_c, 0, 71, 90
2, 234090, Note_on_c, 0, 71, 0
2, 234090, Note_on_c, 0, 67, 90
2, 234120, Note_on_c, 0, 67, 0
2, 234120, Note_on_c, 0, 72, 90
2, 234330, Note_on_c, 0, 72, 0
2, 234330, Note_on_c, 0, 71, 90
2, 234345, Note_on_c, 0, 71, 0
2, 234345, Note_on_c, 0, 69, 90
2, 234360, Note_on_c, 0, 69, 0
2, 234360, Note_on_c, 0, 72, 90
2, 234375, Note_on_c, 0, 72, 0
2, 234375, Note_on_c, 0, 71, 90
2, 234390, Note_on_c, 0, 71, 0
2, 234390, Note_on_c, 0, 72, 90
2, 234405, Note_on_c, 0, 72, 0
2, 234405, Note_on_c, 0, 71, 90
2, 234420, Note_on_c, 0, 71, 0
2, 234420, Note_on_c, 0, 72, 90
2, 234435, Note_on_c, 0, 72, 0
2, 234435, Note_on_c, 0, 71, 90
2, 234450, Note_on_c, 0, 71, 0
2, 234450, Note_on_c, 0, 72, 90
2, 234480, Note_on_c, 0, 72, 0
2, 234480, Note_on_c, 0, 72, 90
2, 234570, Note_on_c, 0, 72, 0
2, 234570, Note_on_c, 0, 70, 90
2, 234600, Note_on_c, 0, 70, 0
2, 234600, Note_on_c, 0, 70, 90
2, 234615, Note_on_c, 0, 70, 0
2, 234615, Note_on_c, 0, 69, 90
2, 234630, Note_on_c, 0, 69, 0
2, 234630, Note_on_c, 0, 70, 90
2, 234645, Note_on_c, 0, 70, 0
2, 234645, Note_on_c, 0, 69, 90
2, 234660, Note_on_c, 0, 69, 0
2, 234660, Note_on_c, 0, 70, 90
2, 234675, Note_on_c, 0, 70, 0
2, 234675, Note_on_c, 0, 69, 90
2, 234690, Note_on_c, 0, 69, 0
2, 234690, Note_on_c, 0, 67, 90
2, 234705, Note_on_c, 0, 67, 0
2, 234705, Note_on_c, 0, 69, 80
2, 234720, Note_on_c, 0, 69, 0
2, 234720, Note_on_c, 0, 70, 90
2, 234810, Note_on_c, 0, 70, 0
2, 234810, Note_on_c, 0, 74, 90
2, 234840, Note_on_c, 0, 74, 0
2, 234840, Note_on_c, 0, 72, 90
2, 234930, Note_on_c, 0, 72, 0
2, 234930, Note_on_c, 0, 70, 90
2, 234960, Note_on_c, 0, 70, 0
2, 234960, Note_on_c, 0, 69, 90
2, 235050, Note_on_c, 0, 74, 90
2, 235080, Note_on_c, 0, 74, 0
2, 235080, Note_on_c, 0, 72, 90
2, 235170, Note_on_c, 0, 72, 0
2, 235170, Note_on_c, 0, 69, 0
2, 235170, Note_on_c, 0, 70, 90
2, 235170, Note_on_c, 0, 67, 90
2, 235200, Note_on_c, 0, 67, 0
2, 235200, Note_on_c, 0, 70, 0
2, 235200, Note_on_c, 0, 69, 90
2, 235200, Note_on_c, 0, 65, 90
2, 235290, Note_on_c, 0, 65, 0
2, 235290, Note_on_c, 0, 69, 0
2, 235290, Note_on_c, 0, 70, 90
2, 235290, Note_on_c, 0, 67, 90
2, 235320, Note_on_c, 0, 67, 0
2, 235320, Note_on_c, 0, 70, 0
2, 235320, Note_on_c, 0, 72, 90
2, 235320, Note_on_c, 0, 65, 90
2, 235410, Note_on_c, 0, 65, 0
2, 235410, Note_on_c, 0, 63, 90
2, 235440, Note_on_c, 0, 63, 0
2, 235440, Note_on_c, 0, 62, 90
2, 235515, Note_on_c, 0, 72, 0
2, 235515, Note_on_c, 0, 65, 90
2, 235530, Note_on_c, 0, 65, 0
2, 235530, Note_on_c, 0, 67, 90
2, 235545, Note_on_c, 0, 67, 0
2, 235545, Note_on_c, 0, 69, 90
2, 235560, Note_on_c, 0, 69, 0
2, 235560, Note_on_c, 0, 62, 0
2, 235560, Note_on_c, 0, 70, 90
2, 235560, Note_on_c, 0, 67, 90
2, 235650, Note_on_c, 0, 70, 0
2, 235650, Note_on_c, 0, 70, 90
2, 235680, Note_on_c, 0, 70, 0
2, 235680, Note_on_c, 0, 70, 90
2, 235770, Note_on_c, 0, 70, 0
2, 235770, Note_on_c, 0, 67, 0
2, 235770, Note_on_c, 0, 69, 90
2, 235770, Note_on_c, 0, 64, 90
2, 235785, Note_on_c, 0, 69, 0
2, 235785, Note_on_c, 0, 67, 90
2, 235800, Note_on_c, 0, 67, 0
2, 235800, Note_on_c, 0, 64, 0
2, 235800, Note_on_c, 0, 69, 90
2, 235800, Note_on_c, 0, 65, 90
2, 235890, Note_on_c, 0, 69, 0
2, 235890, Note_on_c, 0, 70, 90
2, 235920, Note_on_c, 0, 70, 0
2, 235920, Note_on_c, 0, 72, 90
2, 236010, Note_on_c, 0, 72, 0
2, 236010, Note_on_c, 0, 65, 0
2, 236010, Note_on_c, 0, 72, 90
2, 236010, Note_on_c, 0, 64, 90
2, 236040, Note_on_c, 0, 64, 0
2, 236040, Note_on_c, 0, 72, 0
2, 236040, Note_on_c, 0, 74, 90
2, 236040, Note_on_c, 0, 65, 90
2, 236130, Note_on_c, 0, 65, 0
2, 236130, Note_on_c, 0, 74, 0
2, 236130, Note_on_c, 0, 76, 90
2, 236130, Note_on_c, 0, 67, 90
2, 236160, Note_on_c, 0, 67, 0
2, 236160, Note_on_c, 0, 76, 0
2, 236160, Note_on_c, 0, 77, 90
2, 236160, Note_on_c, 0, 69, 90
2, 236250, Note_on_c, 0, 77, 0
2, 236250, Note_on_c, 0, 76, 90
2, 236280, Note_on_c, 0, 76, 0
2, 236280, Note_on_c, 0, 69, 0
2, 236280, Note_on_c, 0, 77, 90
2, 236280, Note_on_c, 0, 74, 90
2, 236370, Note_on_c, 0, 77, 0
2, 236370, Note_on_c, 0, 79, 90
2, 236400, Note_on_c, 0, 79, 0
2, 236400, Note_on_c, 0, 74, 0
2, 236400, Note_on_c, 0, 76, 90
2, 236400, Note_on_c, 0, 67, 90
2, 236490, Note_on_c, 0, 76, 0
2, 236490, Note_on_c, 0, 74, 90
2, 236520, Note_on_c, 0, 74, 0
2, 236520, Note_on_c, 0, 67, 0
2, 236520, Note_on_c, 0, 76, 90
2, 236640, Note_on_c, 0, 65, 90
2, 236730, Note_on_c, 0, 76, 0
2, 236730, Note_on_c, 0, 74, 90
2, 236745, Note_on_c, 0, 74, 0
2, 236745, Note_on_c, 0, 73, 90
2, 236760, Note_on_c, 0, 73, 0
2, 236760, Note_on_c, 0, 74, 90
2, 236835, Note_on_c, 0, 74, 0
2, 236835, Note_on_c, 0, 72, 90
2, 236850, Note_on_c, 0, 72, 0
2, 236850, Note_on_c, 0, 70, 90
2, 236865, Note_on_c, 0, 70, 0
2, 236865, Note_on_c, 0, 69, 90
2, 236880, Note_on_c, 0, 69, 0
2, 236880, Note_on_c, 0, 65, 0
2, 236880, Note_on_c, 0, 67, 90
2, 236880, Note_on_c, 0, 72, 90
2, 236970, Note_on_c, 0, 67, 0
2, 236970, Note_on_c, 0, 70, 90
2, 237000, Note_on_c, 0, 70, 0
2, 237000, Note_on_c, 0, 69, 90
2, 237060, Note_on_c, 0, 72, 0
2, 237060, Note_on_c, 0, 70, 90
2, 237090, Note_on_c, 0, 69, 0
2, 237090, Note_on_c, 0, 67, 90
2, 237120, Note_on_c, 0, 67, 0
2, 237120, Note_on_c, 0, 70, 0
2, 237120, Note_on_c, 0, 65, 90
2, 237120, Note_on_c, 0, 69, 90
2, 237270, Note_on_c, 0, 65, 0
2, 237270, Note_on_c, 0, 64, 90
2, 237300, Note_on_c, 0, 64, 0
2, 237300, Note_on_c, 0, 69, 0
2, 237300, Note_on_c, 0, 62, 90
2, 237300, Note_on_c, 0, 67, 90
2, 237330, Note_on_c, 0, 62, 0
2, 237330, Note_on_c, 0, 61, 90
2, 237360, Note_on_c, 0, 61, 0
2, 237360, Note_on_c, 0, 67, 0
2, 237360, Note_on_c, 0, 62, 90
2, 237360, Note_on_c, 0, 69, 90
2, 237480, Note_on_c, 0, 62, 0
2, 237570, Note_on_c, 0, 74, 90
2, 237600, Note_on_c, 0, 74, 0
2, 237600, Note_on_c, 0, 69, 0
2, 237600, Note_on_c, 0, 67, 90
2, 237600, Note_on_c, 0, 64, 90
2, 237750, Note_on_c, 0, 67, 0
2, 237750, Note_on_c, 0, 70, 90
2, 237780, Note_on_c, 0, 70, 0
2, 237780, Note_on_c, 0, 69, 90
2, 237810, Note_on_c, 0, 69, 0
2, 237810, Note_on_c, 0, 67, 90
2, 237840, Note_on_c, 0, 67, 0
2, 237840, Note_on_c, 0, 64, 0
2, 237840, Note_on_c, 0, 65, 90
2, 237840, Note_on_c, 0, 65, 90
2, 237870, Note_on_c, 0, 65, 0
2, 237870, Note_on_c, 0, 69, 90
2, 237900, Note_on_c, 0, 69, 0
2, 237900, Note_on_c, 0, 71, 90
2, 237930, Note_on_c, 0, 71, 0
2, 237930, Note_on_c, 0, 73, 90
2, 237960, Note_on_c, 0, 73, 0
2, 237960, Note_on_c, 0, 74, 90
2, 238020, Note_on_c, 0, 65, 0
2, 238020, Note_on_c, 0, 67, 90
2, 238080, Note_on_c, 0, 67, 0
2, 238080, Note_on_c, 0, 74, 0
2, 238080, Note_on_c, 0, 69, 90
2, 238110, Note_on_c, 0, 71, 90
2, 238140, Note_on_c, 0, 71, 0
2, 238140, Note_on_c, 0, 74, 90
2, 238170, Note_on_c, 0, 74, 0
2, 238170, Note_on_c, 0, 76, 90
2, 238200, Note_on_c, 0, 76, 0
2, 238200, Note_on_c, 0, 77, 90
2, 238290, Note_on_c, 0, 77, 0
2, 238290, Note_on_c, 0, 76, 90
2, 238305, Note_on_c, 0, 76, 0
2, 238305, Note_on_c, 0, 74, 90
2, 238320, Note_on_c, 0, 74, 0
2, 238320, Note_on_c, 0, 72, 90
2, 238410, Note_on_c, 0, 69, 0
2, 238410, Note_on_c, 0, 70, 90
2, 238440, Note_on_c, 0, 70, 0
2, 238440, Note_on_c, 0, 69, 90
2, 238530, Note_on_c, 0, 69, 0
2, 238530, Note_on_c, 0, 67, 90
2, 238560, Note_on_c, 0, 67, 0
2, 238560, Note_on_c, 0, 65, 90
2, 238650, Note_on_c, 0, 72, 0
2, 238650, Note_on_c, 0, 69, 90
2, 238680, Note_on_c, 0, 69, 0
2, 238680, Note_on_c, 0, 74, 90
2, 238770, Note_on_c, 0, 74, 0
2, 238770, Note_on_c, 0, 72, 90
2, 238800, Note_on_c, 0, 72, 0
2, 238800, Note_on_c, 0, 70, 90
2, 238890, Note_on_c, 0, 65, 0
2, 238890, Note_on_c, 0, 62, 90
2, 238920, Note_on_c, 0, 62, 0
2, 238920, Note_on_c, 0, 67, 90
2, 239010, Note_on_c, 0, 67, 0
2, 239010, Note_on_c, 0, 65, 90
2, 239040, Note_on_c, 0, 65, 0
2, 239040, Note_on_c, 0, 64, 90
2, 239130, Note_on_c, 0, 70, 0
2, 239130, Note_on_c, 0, 67, 90
2, 239160, Note_on_c, 0, 67, 0
2, 239160, Note_on_c, 0, 72, 90
2, 239250, Note_on_c, 0, 72, 0
2, 239250, Note_on_c, 0, 70, 90
2, 239280, Note_on_c, 0, 70, 0
2, 239280, Note_on_c, 0, 69, 90
2, 239370, Note_on_c, 0, 64, 0
2, 239370, Note_on_c, 0, 60, 90
2, 239400, Note_on_c, 0, 60, 0
2, 239400, Note_on_c, 0, 65, 90
2, 239490, Note_on_c, 0, 65, 0
2, 239490, Note_on_c, 0, 64, 90
2, 239520, Note_on_c, 0, 64, 0
2, 239520, Note_on_c, 0, 62, 90
2, 239610, Note_on_c, 0, 69, 0
2, 239610, Note_on_c, 0, 67, 90
2, 239625, Note_on_c, 0, 67, 0
2, 239625, Note_on_c, 0, 65, 90
2, 239640, Note_on_c, 0, 65, 0
2, 239640, Note_on_c, 0, 67, 90
2, 239730, Note_on_c, 0, 67, 0
2, 239730, Note_on_c, 0, 64, 90
2, 239760, Note_on_c, 0, 64, 0
2, 239760, Note_on_c, 0, 65, 90
2, 239850, Note_on_c, 0, 65, 0
2, 239850, Note_on_c, 0, 67, 90
2, 239880, Note_on_c, 0, 67, 0
2, 239880, Note_on_c, 0, 62, 0
2, 239880, Note_on_c, 0, 64, 90
2, 239880, Note_on_c, 0, 61, 90
2, 240000, Note_on_c, 0, 61, 0
2, 240000, Note_on_c, 0, 69, 90
2, 240090, Note_on_c, 0, 64, 0
2, 240090, Note_on_c, 0, 62, 90
2, 240105, Note_on_c, 0, 62, 0
2, 240105, Note_on_c, 0, 61, 90
2, 240120, Note_on_c, 0, 61, 0
2, 240120, Note_on_c, 0, 69, 0
2, 240120, Note_on_c, 0, 62, 90
2, 240120, Note_on_c, 0, 62, 90
2, 240210, Note_on_c, 0, 62, 0
2, 240210, Note_on_c, 0, 64, 90
2, 240240, Note_on_c, 0, 64, 0
2, 240240, Note_on_c, 0, 65, 90
2, 240330, Note_on_c, 0, 65, 0
2, 240330, Note_on_c, 0, 62, 0
2, 240330, Note_on_c, 0, 64, 90
2, 240330, Note_on_c, 0, 67, 90
2, 240360, Note_on_c, 0, 67, 0
2, 240360, Note_on_c, 0, 64, 0
2, 240360, Note_on_c, 0, 65, 90
2, 240360, Note_on_c, 0, 69, 90
2, 240450, Note_on_c, 0, 65, 0
2, 240450, Note_on_c, 0, 62, 90
2, 240480, Note_on_c, 0, 62, 0
2, 240480, Note_on_c, 0, 69, 0
2, 240480, Note_on_c, 0, 67, 90
2, 240480, Note_on_c, 0, 70, 90
2, 240555, Note_on_c, 0, 67, 0
2, 240555, Note_on_c, 0, 76, 90
2, 240570, Note_on_c, 0, 76, 0
2, 240570, Note_on_c, 0, 77, 90
2, 240585, Note_on_c, 0, 77, 0
2, 240585, Note_on_c, 0, 79, 90
2, 240600, Note_on_c, 0, 79, 0
2, 240600, Note_on_c, 0, 70, 0
2, 240600, Note_on_c, 0, 77, 90
2, 240600, Note_on_c, 0, 69, 90
2, 240690, Note_on_c, 0, 69, 0
2, 240690, Note_on_c, 0, 77, 0
2, 240690, Note_on_c, 0, 76, 90
2, 240690, Note_on_c, 0, 67, 90
2, 240720, Note_on_c, 0, 67, 0
2, 240720, Note_on_c, 0, 76, 0
2, 240720, Note_on_c, 0, 74, 90
2, 240720, Note_on_c, 0, 65, 90
2, 240810, Note_on_c, 0, 74, 0
2, 240810, Note_on_c, 0, 72, 90
2, 240840, Note_on_c, 0, 72, 0
2, 240840, Note_on_c, 0, 70, 90
2, 240870, Note_on_c, 0, 65, 0
2, 240870, Note_on_c, 0, 64, 90
2, 240900, Note_on_c, 0, 64, 0
2, 240900, Note_on_c, 0, 65, 90
2, 240930, Note_on_c, 0, 65, 0
2, 240930, Note_on_c, 0, 67, 90
2, 240960, Note_on_c, 0, 67, 0
2, 240960, Note_on_c, 0, 70, 0
2, 240960, Note_on_c, 0, 69, 90
2, 240960, Note_on_c, 0, 69, 90
2, 241020, Note_on_c, 0, 69, 0
2, 241050, Note_on_c, 0, 69, 0
2, 241050, Note_on_c, 0, 70, 90
2, 241080, Note_on_c, 0, 70, 0
2, 241080, Note_on_c, 0, 72, 90
2, 241170, Note_on_c, 0, 72, 0
2, 241170, Note_on_c, 0, 74, 90
2, 241200, Note_on_c, 0, 74, 0
2, 241200, Note_on_c, 0, 67, 90
2, 241290, Note_on_c, 0, 67, 0
2, 241290, Note_on_c, 0, 75, 90
2, 241320, Note_on_c, 0, 75, 0
2, 241320, Note_on_c, 0, 69, 90
2, 241410, Note_on_c, 0, 69, 0
2, 241410, Note_on_c, 0, 70, 90
2, 241425, Note_on_c, 0, 70, 0
2, 241425, Note_on_c, 0, 72, 90
2, 241440, Note_on_c, 0, 72, 0
2, 241440, Note_on_c, 0, 74, 90
2, 241440, Note_on_c, 0, 66, 90
2, 241530, Note_on_c, 0, 66, 0
2, 241530, Note_on_c, 0, 69, 90
2, 241560, Note_on_c, 0, 69, 0
2, 241560, Note_on_c, 0, 62, 90
2, 241680, Note_on_c, 0, 74, 0
2, 241680, Note_on_c, 0, 67, 90
2, 241770, Note_on_c, 0, 62, 0
2, 241770, Note_on_c, 0, 62, 90
2, 241800, Note_on_c, 0, 62, 0
2, 241800, Note_on_c, 0, 64, 90
2, 241860, Note_on_c, 0, 67, 0
2, 241860, Note_on_c, 0, 69, 90
2, 241890, Note_on_c, 0, 64, 0
2, 241890, Note_on_c, 0, 66, 90
2, 241920, Note_on_c, 0, 66, 0
2, 241920, Note_on_c, 0, 69, 0
2, 241920, Note_on_c, 0, 70, 90
2, 241920, Note_on_c, 0, 67, 90
2, 242010, Note_on_c, 0, 67, 0
2, 242010, Note_on_c, 0, 66, 90
2, 242040, Note_on_c, 0, 66, 0
2, 242040, Note_on_c, 0, 67, 90
2, 242100, Note_on_c, 0, 70, 0
2, 242100, Note_on_c, 0, 72, 90
2, 242130, Note_on_c, 0, 67, 0
2, 242130, Note_on_c, 0, 69, 90
2, 242160, Note_on_c, 0, 69, 0
2, 242160, Note_on_c, 0, 72, 0
2, 242160, Note_on_c, 0, 74, 90
2, 242160, Note_on_c, 0, 70, 90
2, 242250, Note_on_c, 0, 70, 0
2, 242250, Note_on_c, 0, 72, 90
2, 242265, Note_on_c, 0, 72, 0
2, 242265, Note_on_c, 0, 74, 90
2, 242280, Note_on_c, 0, 74, 0
2, 242280, Note_on_c, 0, 72, 90
2, 242310, Note_on_c, 0, 72, 0
2, 242310, Note_on_c, 0, 70, 90
2, 242340, Note_on_c, 0, 70, 0
2, 242340, Note_on_c, 0, 69, 90
2, 242370, Note_on_c, 0, 69, 0
2, 242370, Note_on_c, 0, 67, 90
2, 242400, Note_on_c, 0, 67, 0
2, 242400, Note_on_c, 0, 74, 0
2, 242400, Note_on_c, 0, 75, 90
2, 242400, Note_on_c, 0, 72, 90
2, 242490, Note_on_c, 0, 72, 0
2, 242490, Note_on_c, 0, 70, 90
2, 242505, Note_on_c, 0, 70, 0
2, 242505, Note_on_c, 0, 69, 90
2, 242520, Note_on_c, 0, 69, 0
2, 242520, Note_on_c, 0, 70, 90
2, 242610, Note_on_c, 0, 70, 0
2, 242610, Note_on_c, 0, 66, 90
2, 242640, Note_on_c, 0, 66, 0
2, 242640, Note_on_c, 0, 75, 0
2, 242640, Note_on_c, 0, 74, 90
2, 242640, Note_on_c, 0, 67, 90
2, 242730, Note_on_c, 0, 67, 0
2, 242730, Note_on_c, 0, 69, 90
2, 242745, Note_on_c, 0, 69, 0
2, 242745, Note_on_c, 0, 70, 90
2, 242760, Note_on_c, 0, 70, 0
2, 242760, Note_on_c, 0, 64, 90
2, 242820, Note_on_c, 0, 74, 0
2, 242820, Note_on_c, 0, 72, 90
2, 242850, Note_on_c, 0, 64, 0
2, 242850, Note_on_c, 0, 65, 90
2, 242880, Note_on_c, 0, 65, 0
2, 242880, Note_on_c, 0, 72, 0
2, 242880, Note_on_c, 0, 70, 90
2, 242880, Note_on_c, 0, 67, 90
2, 243000, Note_on_c, 0, 67, 0
2, 243210, Note_on_c, 0, 70, 0
2, 243210, Note_on_c, 0, 69, 90
2, 243240, Note_on_c, 0, 69, 0
2, 243240, Note_on_c, 0, 70, 90
2, 243330, Note_on_c, 0, 70, 0
2, 243330, Note_on_c, 0, 72, 90
2, 243360, Note_on_c, 0, 72, 0
2, 243360, Note_on_c, 0, 74, 90
2, 243510, Note_on_c, 0, 74, 0
2, 243510, Note_on_c, 0, 75, 90
2, 243540, Note_on_c, 0, 75, 0
2, 243540, Note_on_c, 0, 74, 90
2, 243570, Note_on_c, 0, 74, 0
2, 243570, Note_on_c, 0, 72, 90
2, 243600, Note_on_c, 0, 72, 0
2, 243600, Note_on_c, 0, 70, 90
2, 243630, Note_on_c, 0, 70, 0
2, 243630, Note_on_c, 0, 74, 90
2, 243660, Note_on_c, 0, 74, 0
2, 243660, Note_on_c, 0, 75, 90
2, 243690, Note_on_c, 0, 75, 0
2, 243690, Note_on_c, 0, 77, 90
2, 243720, Note_on_c, 0, 77, 0
2, 243720, Note_on_c, 0, 79, 90
2, 243870, Note_on_c, 0, 79, 0
2, 243870, Note_on_c, 0, 80, 90
2, 243900, Note_on_c, 0, 80, 0
2, 243900, Note_on_c, 0, 79, 90
2, 243930, Note_on_c, 0, 79, 0
2, 243930, Note_on_c, 0, 77, 90
2, 243960, Note_on_c, 0, 77, 0
2, 243960, Note_on_c, 0, 75, 90
2, 243990, Note_on_c, 0, 75, 0
2, 243990, Note_on_c, 0, 74, 90
2, 244020, Note_on_c, 0, 74, 0
2, 244020, Note_on_c, 0, 72, 90
2, 244050, Note_on_c, 0, 72, 0
2, 244050, Note_on_c, 0, 70, 90
2, 244080, Note_on_c, 0, 70, 0
2, 244080, Note_on_c, 0, 70, 90
2, 244095, Note_on_c, 0, 70, 0
2, 244095, Note_on_c, 0, 69, 90
2, 244110, Note_on_c, 0, 69, 0
2, 244110, Note_on_c, 0, 70, 90
2, 244125, Note_on_c, 0, 70, 0
2, 244125, Note_on_c, 0, 69, 90
2, 244140, Note_on_c, 0, 69, 0
2, 244140, Note_on_c, 0, 70, 90
2, 244155, Note_on_c, 0, 70, 0
2, 244155, Note_on_c, 0, 69, 90
2, 244170, Note_on_c, 0, 69, 0
2, 244170, Note_on_c, 0, 67, 90
2, 244185, Note_on_c, 0, 67, 0
2, 244185, Note_on_c, 0, 65, 90
2, 244200, Note_on_c, 0, 65, 0
2, 244200, Note_on_c, 0, 70, 90
2, 244350, Note_on_c, 0, 70, 0
2, 244350, Note_on_c, 0, 69, 90
2, 244380, Note_on_c, 0, 69, 0
2, 244380, Note_on_c, 0, 67, 90
2, 244410, Note_on_c, 0, 67, 0
2, 244410, Note_on_c, 0, 69, 90
2, 244440, Note_on_c, 0, 69, 0
2, 244440, Note_on_c, 0, 70, 90
2, 244470, Note_on_c, 0, 70, 0
2, 244470, Note_on_c, 0, 72, 90
2, 244500, Note_on_c, 0, 72, 0
2, 244500, Note_on_c, 0, 74, 90
2, 244530, Note_on_c, 0, 74, 0
2, 244530, Note_on_c, 0, 76, 90
2, 244560, Note_on_c, 0, 76, 0
2, 244560, Note_on_c, 0, 77, 90
2, 244650, Note_on_c, 0, 77, 0
2, 244650, Note_on_c, 0, 75, 90
2, 244680, Note_on_c, 0, 75, 0
2, 244680, Note_on_c, 0, 74, 90
2, 244710, Note_on_c, 0, 74, 0
2, 244710, Note_on_c, 0, 72, 90
2, 244740, Note_on_c, 0, 72, 0
2, 244740, Note_on_c, 0, 70, 90
2, 244770, Note_on_c, 0, 70, 0
2, 244770, Note_on_c, 0, 69, 90
2, 244800, Note_on_c, 0, 69, 0
2, 244800, Note_on_c, 0, 70, 90
2, 244800, Note_on_c, 0, 65, 90
2, 244890, Note_on_c, 0, 70, 0
2, 244890, Note_on_c, 0, 72, 90
2, 244905, Note_on_c, 0, 72, 0
2, 244905, Note_on_c, 0, 74, 90
2, 244920, Note_on_c, 0, 74, 0
2, 244920, Note_on_c, 0, 65, 0
2, 244920, Note_on_c, 0, 67, 90
2, 245010, Note_on_c, 0, 67, 0
2, 245010, Note_on_c, 0, 79, 90
2, 245040, Note_on_c, 0, 79, 0
2, 245040, Note_on_c, 0, 70, 90
2, 245115, Note_on_c, 0, 70, 0
2, 245115, Note_on_c, 0, 69, 90
2, 245130, Note_on_c, 0, 69, 0
2, 245130, Note_on_c, 0, 67, 90
2, 245145, Note_on_c, 0, 67, 0
2, 245145, Note_on_c, 0, 70, 90
2, 245160, Note_on_c, 0, 70, 0
2, 245160, Note_on_c, 0, 69, 90
2, 245175, Note_on_c, 0, 69, 0
2, 245175, Note_on_c, 0, 70, 90
2, 245190, Note_on_c, 0, 70, 0
2, 245190, Note_on_c, 0, 69, 90
2, 245205, Note_on_c, 0, 69, 0
2, 245205, Note_on_c, 0, 70, 90
2, 245220, Note_on_c, 0, 70, 0
2, 245220, Note_on_c, 0, 69, 90
2, 245250, Note_on_c, 0, 69, 0
2, 245250, Note_on_c, 0, 70, 90
2, 245280, Note_on_c, 0, 70, 0
2, 245280, Note_on_c, 0, 70, 90
2, 245280, Note_on_c, 0, 67, 90
2, 245400, Note_on_c, 0, 67, 0
2, 245400, Note_on_c, 0, 70, 0
2, 245400, Note_on_c, 0, 65, 90
2, 245490, Note_on_c, 0, 65, 0
2, 245490, Note_on_c, 0, 72, 90
2, 245490, Note_on_c, 0, 63, 90
2, 245520, Note_on_c, 0, 63, 0
2, 245520, Note_on_c, 0, 72, 0
2, 245520, Note_on_c, 0, 65, 90
2, 245520, Note_on_c, 0, 62, 90
2, 245595, Note_on_c, 0, 65, 0
2, 245595, Note_on_c, 0, 67, 90
2, 245610, Note_on_c, 0, 67, 0
2, 245610, Note_on_c, 0, 65, 90
2, 245625, Note_on_c, 0, 65, 0
2, 245625, Note_on_c, 0, 64, 90
2, 245640, Note_on_c, 0, 64, 0
2, 245640, Note_on_c, 0, 65, 90
2, 245670, Note_on_c, 0, 62, 0
2, 245670, Note_on_c, 0, 60, 90
2, 245700, Note_on_c, 0, 60, 0
2, 245700, Note_on_c, 0, 62, 90
2, 245730, Note_on_c, 0, 62, 0
2, 245730, Note_on_c, 0, 65, 0
2, 245730, Note_on_c, 0, 67, 90
2, 245730, Note_on_c, 0, 64, 90
2, 245760, Note_on_c, 0, 64, 0
2, 245760, Note_on_c, 0, 67, 0
2, 245760, Note_on_c, 0, 69, 90
2, 245760, Note_on_c, 0, 65, 90
2, 245850, Note_on_c, 0, 65, 0
2, 245850, Note_on_c, 0, 60, 90
2, 245880, Note_on_c, 0, 60, 0
2, 245880, Note_on_c, 0, 65, 90
2, 245910, Note_on_c, 0, 69, 0
2, 245910, Note_on_c, 0, 67, 90
2, 245940, Note_on_c, 0, 67, 0
2, 245940, Note_on_c, 0, 69, 90
2, 245970, Note_on_c, 0, 69, 0
2, 245970, Note_on_c, 0, 71, 90
2, 246000, Note_on_c, 0, 71, 0
2, 246000, Note_on_c, 0, 72, 90
2, 246090, Note_on_c, 0, 72, 0
2, 246090, Note_on_c, 0, 67, 90
2, 246120, Note_on_c, 0, 67, 0
2, 246120, Note_on_c, 0, 65, 0
2, 246120, Note_on_c, 0, 72, 90
2, 246120, Note_on_c, 0, 64, 90
2, 246150, Note_on_c, 0, 64, 0
2, 246150, Note_on_c, 0, 62, 90
2, 246180, Note_on_c, 0, 62, 0
2, 246180, Note_on_c, 0, 64, 90
2, 246210, Note_on_c, 0, 64, 0
2, 246210, Note_on_c, 0, 66, 90
2, 246240, Note_on_c, 0, 66, 0
2, 246240, Note_on_c, 0, 67, 90
2, 246330, Note_on_c, 0, 67, 0
2, 246330, Note_on_c, 0, 62, 90
2, 246360, Note_on_c, 0, 62, 0
2, 246360, Note_on_c, 0, 72, 0
2, 246360, Note_on_c, 0, 71, 90
2, 246360, Note_on_c, 0, 67, 90
2, 246390, Note_on_c, 0, 71, 0
2, 246390, Note_on_c, 0, 69, 90
2, 246420, Note_on_c, 0, 69, 0
2, 246420, Note_on_c, 0, 71, 90
2, 246450, Note_on_c, 0, 71, 0
2, 246450, Note_on_c, 0, 73, 90
2, 246480, Note_on_c, 0, 73, 0
2, 246480, Note_on_c, 0, 74, 90
2, 246570, Note_on_c, 0, 74, 0
2, 246570, Note_on_c, 0, 76, 90
2, 246600, Note_on_c, 0, 76, 0
2, 246600, Note_on_c, 0, 67, 0
2, 246600, Note_on_c, 0, 77, 90
2, 246600, Note_on_c, 0, 65, 90
2, 246675, Note_on_c, 0, 65, 0
2, 246675, Note_on_c, 0, 69, 90
2, 246690, Note_on_c, 0, 69, 0
2, 246690, Note_on_c, 0, 70, 90
2, 246705, Note_on_c, 0, 70, 0
2, 246705, Note_on_c, 0, 72, 90
2, 246720, Note_on_c, 0, 72, 0
2, 246720, Note_on_c, 0, 74, 90
2, 246810, Note_on_c, 0, 77, 0
2, 246810, Note_on_c, 0, 77, 90
2, 246840, Note_on_c, 0, 77, 0
2, 246840, Note_on_c, 0, 74, 0
2, 246840, Note_on_c, 0, 76, 90
2, 246840, Note_on_c, 0, 67, 90
2, 246930, Note_on_c, 0, 76, 0
2, 246930, Note_on_c, 0, 74, 90
2, 246960, Note_on_c, 0, 74, 0
2, 246960, Note_on_c, 0, 73, 90
2, 247050, Note_on_c, 0, 73, 0
2, 247050, Note_on_c, 0, 69, 90
2, 247080, Note_on_c, 0, 69, 0
2, 247080, Note_on_c, 0, 67, 0
2, 247080, Note_on_c, 0, 74, 90
2, 247080, Note_on_c, 0, 65, 90
2, 247170, Note_on_c, 0, 65, 0
2, 247170, Note_on_c, 0, 62, 90
2, 247200, Note_on_c, 0, 62, 0
2, 247200, Note_on_c, 0, 64, 90
2, 247290, Note_on_c, 0, 74, 0
2, 247290, Note_on_c, 0, 72, 90
2, 247305, Note_on_c, 0, 72, 0
2, 247305, Note_on_c, 0, 71, 90
2, 247320, Note_on_c, 0, 71, 0
2, 247320, Note_on_c, 0, 64, 0
2, 247320, Note_on_c, 0, 72, 90
2, 247320, Note_on_c, 0, 69, 90
2, 247410, Note_on_c, 0, 69, 0
2, 247410, Note_on_c, 0, 67, 90
2, 247440, Note_on_c, 0, 67, 0
2, 247440, Note_on_c, 0, 65, 90
2, 247530, Note_on_c, 0, 65, 0
2, 247530, Note_on_c, 0, 72, 0
2, 247530, Note_on_c, 0, 70, 90
2, 247530, Note_on_c, 0, 64, 90
2, 247545, Note_on_c, 0, 70, 0
2, 247545, Note_on_c, 0, 69, 90
2, 247560, Note_on_c, 0, 69, 0
2, 247560, Note_on_c, 0, 64, 0
2, 247560, Note_on_c, 0, 70, 90
2, 247560, Note_on_c, 0, 62, 90
2, 247650, Note_on_c, 0, 62, 0
2, 247650, Note_on_c, 0, 61, 90
2, 247680, Note_on_c, 0, 61, 0
2, 247680, Note_on_c, 0, 62, 90
2, 247710, Note_on_c, 0, 70, 0
2, 247710, Note_on_c, 0, 70, 90
2, 247740, Note_on_c, 0, 70, 0
2, 247740, Note_on_c, 0, 69, 90
2, 247770, Note_on_c, 0, 69, 0
2, 247770, Note_on_c, 0, 67, 90
2, 247800, Note_on_c, 0, 67, 0
2, 247800, Note_on_c, 0, 65, 90
2, 248010, Note_on_c, 0, 65, 0
2, 248010, Note_on_c, 0, 62, 0
2, 248010, Note_on_c, 0, 67, 90
2, 248010, Note_on_c, 0, 64, 90
2, 248040, Note_on_c, 0, 64, 0
2, 248040, Note_on_c, 0, 67, 0
2, 248040, Note_on_c, 0, 69, 90
2, 248040, Note_on_c, 0, 65, 90
2, 248130, Note_on_c, 0, 65, 0
2, 248130, Note_on_c, 0, 69, 0
2, 248130, Note_on_c, 0, 70, 90
2, 248130, Note_on_c, 0, 67, 90
2, 248160, Note_on_c, 0, 67, 0
2, 248160, Note_on_c, 0, 70, 0
2, 248160, Note_on_c, 0, 67, 90
2, 248160, Note_on_c, 0, 64, 90
2, 248250, Note_on_c, 0, 67, 0
2, 248250, Note_on_c, 0, 76, 90
2, 248265, Note_on_c, 0, 76, 0
2, 248265, Note_on_c, 0, 77, 90
2, 248280, Note_on_c, 0, 77, 0
2, 248280, Note_on_c, 0, 64, 0
2, 248280, Note_on_c, 0, 79, 90
2, 248370, Note_on_c, 0, 79, 0
2, 248370, Note_on_c, 0, 73, 90
2, 248370, Note_on_c, 0, 67, 90
2, 248400, Note_on_c, 0, 67, 0
2, 248400, Note_on_c, 0, 73, 0
2, 248400, Note_on_c, 0, 74, 90
2, 248400, Note_on_c, 0, 65, 90
2, 248490, Note_on_c, 0, 65, 0
2, 248490, Note_on_c, 0, 74, 0
2, 248490, Note_on_c, 0, 76, 90
2, 248490, Note_on_c, 0, 67, 90
2, 248520, Note_on_c, 0, 67, 0
2, 248520, Note_on_c, 0, 76, 0
2, 248520, Note_on_c, 0, 74, 90
2, 248520, Note_on_c, 0, 69, 90
2, 248535, Note_on_c, 0, 74, 0
2, 248535, Note_on_c, 0, 73, 90
2, 248550, Note_on_c, 0, 73, 0
2, 248550, Note_on_c, 0, 74, 90
2, 248565, Note_on_c, 0, 74, 0
2, 248565, Note_on_c, 0, 72, 90
2, 248610, Note_on_c, 0, 72, 0
2, 248610, Note_on_c, 0, 74, 90
2, 248640, Note_on_c, 0, 74, 0
2, 248640, Note_on_c, 0, 69, 0
2, 248640, Note_on_c, 0, 74, 90
2, 248730, Note_on_c, 0, 74, 0
2, 248730, Note_on_c, 0, 76, 90
2, 248760, Note_on_c, 0, 76, 0
2, 248760, Note_on_c, 0, 77, 90
2, 248850, Note_on_c, 0, 77, 0
2, 248850, Note_on_c, 0, 79, 90
2, 248880, Note_on_c, 0, 79, 0
2, 248880, Note_on_c, 0, 81, 90
2, 248955, Note_on_c, 0, 76, 90
2, 248970, Note_on_c, 0, 76, 0
2, 248970, Note_on_c, 0, 74, 90
2, 248985, Note_on_c, 0, 74, 0
2, 248985, Note_on_c, 0, 73, 90
2, 249000, Note_on_c, 0, 73, 0
2, 249000, Note_on_c, 0, 74, 90
2, 249075, Note_on_c, 0, 81, 0
2, 249075, Note_on_c, 0, 81, 90
2, 249090, Note_on_c, 0, 81, 0
2, 249090, Note_on_c, 0, 79, 90
2, 249105, Note_on_c, 0, 79, 0
2, 249105, Note_on_c, 0, 77, 90
2, 249120, Note_on_c, 0, 77, 0
2, 249120, Note_on_c, 0, 76, 90
2, 249315, Note_on_c, 0, 74, 0
2, 249315, Note_on_c, 0, 74, 90
2, 249330, Note_on_c, 0, 74, 0
2, 249330, Note_on_c, 0, 72, 90
2, 249345, Note_on_c, 0, 72, 0
2, 249345, Note_on_c, 0, 71, 90
2, 249360, Note_on_c, 0, 71, 0
2, 249360, Note_on_c, 0, 72, 90
2, 249450, Note_on_c, 0, 76, 0
2, 249450, Note_on_c, 0, 74, 90
2, 249480, Note_on_c, 0, 74, 0
2, 249480, Note_on_c, 0, 72, 0
2, 249480, Note_on_c, 0, 76, 90
2, 249570, Note_on_c, 0, 76, 0
2, 249570, Note_on_c, 0, 77, 90
2, 249600, Note_on_c, 0, 77, 0
2, 249600, Note_on_c, 0, 79, 90
2, 249675, Note_on_c, 0, 74, 90
2, 249690, Note_on_c, 0, 74, 0
2, 249690, Note_on_c, 0, 72, 90
2, 249705, Note_on_c, 0, 72, 0
2, 249705, Note_on_c, 0, 71, 90
2, 249720, Note_on_c, 0, 71, 0
2, 249720, Note_on_c, 0, 72, 90
2, 249795, Note_on_c, 0, 79, 0
2, 249795, Note_on_c, 0, 79, 90
2, 249810, Note_on_c, 0, 79, 0
2, 249810, Note_on_c, 0, 77, 90
2, 249825, Note_on_c, 0, 77, 0
2, 249825, Note_on_c, 0, 76, 90
2, 249840, Note_on_c, 0, 76, 0
2, 249840, Note_on_c, 0, 74, 90
2, 250035, Note_on_c, 0, 72, 0
2, 250035, Note_on_c, 0, 72, 90
2, 250050, Note_on_c, 0, 72, 0
2, 250050, Note_on_c, 0, 70, 90
2, 250065, Note_on_c, 0, 70, 0
2, 250065, Note_on_c, 0, 69, 90
2, 250080, Note_on_c, 0, 69, 0
2, 250080, Note_on_c, 0, 70, 90
2, 250170, Note_on_c, 0, 73, 90
2, 250200, Note_on_c, 0, 73, 0
2, 250200, Note_on_c, 0, 70, 0
2, 250200, Note_on_c, 0, 74, 0
2, 250200, Note_on_c, 0, 74, 90
2, 250290, Note_on_c, 0, 74, 0
2, 250290, Note_on_c, 0, 76, 90
2, 250320, Note_on_c, 0, 76, 0
2, 250320, Note_on_c, 0, 77, 90
2, 250395, Note_on_c, 0, 72, 90
2, 250410, Note_on_c, 0, 72, 0
2, 250410, Note_on_c, 0, 70, 90
2, 250425, Note_on_c, 0, 70, 0
2, 250425, Note_on_c, 0, 69, 90
2, 250440, Note_on_c, 0, 69, 0
2, 250440, Note_on_c, 0, 70, 90
2, 250515, Note_on_c, 0, 77, 0
2, 250515, Note_on_c, 0, 77, 90
2, 250530, Note_on_c, 0, 77, 0
2, 250530, Note_on_c, 0, 76, 90
2, 250545, Note_on_c, 0, 76, 0
2, 250545, Note_on_c, 0, 74, 90
2, 250560, Note_on_c, 0, 74, 0
2, 250560, Note_on_c, 0, 72, 90
2, 250755, Note_on_c, 0, 70, 0
2, 250755, Note_on_c, 0, 70, 90
2, 250770, Note_on_c, 0, 70, 0
2, 250770, Note_on_c, 0, 69, 90
2, 250785, Note_on_c, 0, 69, 0
2, 250785, Note_on_c, 0, 67, 90
2, 250800, Note_on_c, 0, 67, 0
2, 250800, Note_on_c, 0, 69, 90
2, 250890, Note_on_c, 0, 72, 0
2, 250890, Note_on_c, 0, 72, 90
2, 250920, Note_on_c, 0, 72, 0
2, 250920, Note_on_c, 0, 77, 90
2, 251010, Note_on_c, 0, 77, 0
2, 251010, Note_on_c, 0, 76, 90
2, 251040, Note_on_c, 0, 76, 0
2, 251040, Note_on_c, 0, 69, 0
2, 251040, Note_on_c, 0, 74, 90
2, 251130, Note_on_c, 0, 74, 0
2, 251130, Note_on_c, 0, 72, 90
2, 251130, Note_on_c, 0, 62, 90
2, 251160, Note_on_c, 0, 62, 0
2, 251160, Note_on_c, 0, 72, 0
2, 251160, Note_on_c, 0, 70, 90
2, 251160, Note_on_c, 0, 67, 90
2, 251250, Note_on_c, 0, 67, 0
2, 251250, Note_on_c, 0, 65, 90
2, 251280, Note_on_c, 0, 65, 0
2, 251280, Note_on_c, 0, 64, 90
2, 251370, Note_on_c, 0, 64, 0
2, 251370, Note_on_c, 0, 70, 0
2, 251370, Note_on_c, 0, 64, 90
2, 251370, Note_on_c, 0, 62, 90
2, 251400, Note_on_c, 0, 62, 0
2, 251400, Note_on_c, 0, 64, 0
2, 251400, Note_on_c, 0, 69, 90
2, 251400, Note_on_c, 0, 61, 90
2, 251490, Note_on_c, 0, 69, 0
2, 251490, Note_on_c, 0, 67, 90
2, 251520, Note_on_c, 0, 67, 0
2, 251520, Note_on_c, 0, 61, 0
2, 251520, Note_on_c, 0, 65, 90
2, 251520, Note_on_c, 0, 62, 90
2, 251610, Note_on_c, 0, 65, 0
2, 251610, Note_on_c, 0, 66, 90
2, 251640, Note_on_c, 0, 66, 0
2, 251640, Note_on_c, 0, 67, 90
2, 251730, Note_on_c, 0, 67, 0
2, 251730, Note_on_c, 0, 69, 90
2, 251760, Note_on_c, 0, 69, 0
2, 251760, Note_on_c, 0, 70, 90
2, 251790, Note_on_c, 0, 62, 0
2, 251790, Note_on_c, 0, 62, 90
2, 251820, Note_on_c, 0, 62, 0
2, 251820, Note_on_c, 0, 64, 90
2, 251850, Note_on_c, 0, 64, 0
2, 251850, Note_on_c, 0, 70, 0
2, 251850, Note_on_c, 0, 71, 90
2, 251850, Note_on_c, 0, 65, 90
2, 251880, Note_on_c, 0, 65, 0
2, 251880, Note_on_c, 0, 71, 0
2, 251880, Note_on_c, 0, 73, 90
2, 251880, Note_on_c, 0, 64, 90
2, 251910, Note_on_c, 0, 64, 0
2, 251910, Note_on_c, 0, 62, 90
2, 251940, Note_on_c, 0, 62, 0
2, 251940, Note_on_c, 0, 61, 90
2, 251970, Note_on_c, 0, 61, 0
2, 251970, Note_on_c, 0, 73, 0
2, 251970, Note_on_c, 0, 74, 90
2, 251970, Note_on_c, 0, 59, 90
2, 252000, Note_on_c, 0, 59, 0
2, 252000, Note_on_c, 0, 74, 0
2, 252000, Note_on_c, 0, 76, 90
2, 252000, Note_on_c, 0, 61, 90
2, 252120, Note_on_c, 0, 76, 0
2, 252120, Note_on_c, 0, 81, 90
2, 252150, Note_on_c, 0, 61, 0
2, 252150, Note_on_c, 0, 57, 90
2, 252180, Note_on_c, 0, 57, 0
2, 252180, Note_on_c, 0, 59, 90
2, 252210, Note_on_c, 0, 59, 0
2, 252210, Note_on_c, 0, 81, 0
2, 252210, Note_on_c, 0, 79, 90
2, 252210, Note_on_c, 0, 61, 90
2, 252240, Note_on_c, 0, 61, 0
2, 252240, Note_on_c, 0, 79, 0
2, 252240, Note_on_c, 0, 77, 90
2, 252240, Note_on_c, 0, 62, 90
2, 252330, Note_on_c, 0, 62, 0
2, 252330, Note_on_c, 0, 77, 0
2, 252330, Note_on_c, 0, 76, 90
2, 252330, Note_on_c, 0, 64, 90
2, 252360, Note_on_c, 0, 64, 0
2, 252360, Note_on_c, 0, 76, 0
2, 252360, Note_on_c, 0, 74, 90
2, 252360, Note_on_c, 0, 65, 90
2, 252450, Note_on_c, 0, 65, 0
2, 252450, Note_on_c, 0, 67, 90
2, 252480, Note_on_c, 0, 67, 0
2, 252480, Note_on_c, 0, 74, 0
2, 252480, Note_on_c, 0, 73, 90
2, 252480, Note_on_c, 0, 69, 90
2, 252600, Note_on_c, 0, 73, 0
2, 252600, Note_on_c, 0, 74, 90
2, 252690, Note_on_c, 0, 74, 0
2, 252690, Note_on_c, 0, 76, 90
2, 252720, Note_on_c, 0, 76, 0
2, 252720, Note_on_c, 0, 69, 0
2, 252720, Note_on_c, 0, 77, 90
2, 252720, Note_on_c, 0, 62, 90
2, 252870, Note_on_c, 0, 77, 0
2, 252870, Note_on_c, 0, 79, 90
2, 252900, Note_on_c, 0, 79, 0
2, 252900, Note_on_c, 0, 62, 0
2, 252900, Note_on_c, 0, 77, 90
2, 252900, Note_on_c, 0, 64, 90
2, 252930, Note_on_c, 0, 77, 0
2, 252930, Note_on_c, 0, 76, 90
2, 252960, Note_on_c, 0, 76, 0
2, 252960, Note_on_c, 0, 64, 0
2, 252960, Note_on_c, 0, 65, 90
2, 252960, Note_on_c, 0, 74, 90
2, 253080, Note_on_c, 0, 74, 0
2, 253140, Note_on_c, 0, 65, 0
2, 253140, Note_on_c, 0, 67, 90
2, 253200, Note_on_c, 0, 67, 0
2, 253200, Note_on_c, 0, 69, 90
2, 253440, Note_on_c, 0, 69, 0
2, 253440, Note_on_c, 0, 70, 90
2, 253680, Note_on_c, 0, 70, 0
2, 253680, Note_on_c, 0, 69, 90
2, 253860, Note_on_c, 0, 69, 0
2, 253860, Note_on_c, 0, 67, 90
2, 253920, Note_on_c, 0, 67, 0
2, 253920, Note_on_c, 0, 65, 90
2, 254250, Note_on_c, 0, 65, 0
2, 254250, Note_on_c, 0, 64, 90
2, 254280, Note_on_c, 0, 64, 0
2, 254280, Note_on_c, 0, 65, 90
2, 254370, Note_on_c, 0, 65, 0
2, 254370, Note_on_c, 0, 67, 90
2, 254400, Note_on_c, 0, 67, 0
2, 254400, Note_on_c, 0, 69, 90
2, 254550, Note_on_c, 0, 69, 0
2, 254550, Note_on_c, 0, 60, 90
2, 254580, Note_on_c, 0, 60, 0
2, 254580, Note_on_c, 0, 62, 90
2, 254610, Note_on_c, 0, 62, 0
2, 254610, Note_on_c, 0, 64, 90
2, 254640, Note_on_c, 0, 64, 0
2, 254640, Note_on_c, 0, 65, 90
2, 254670, Note_on_c, 0, 65, 0
2, 254670, Note_on_c, 0, 67, 90
2, 254700, Note_on_c, 0, 67, 0
2, 254700, Note_on_c, 0, 65, 90
2, 254730, Note_on_c, 0, 65, 0
2, 254730, Note_on_c, 0, 64, 90
2, 254760, Note_on_c, 0, 64, 0
2, 254760, Note_on_c, 0, 62, 90
2, 254790, Note_on_c, 0, 62, 0
2, 254790, Note_on_c, 0, 65, 90
2, 254820, Note_on_c, 0, 65, 0
2, 254820, Note_on_c, 0, 67, 90
2, 254850, Note_on_c, 0, 67, 0
2, 254850, Note_on_c, 0, 69, 90
2, 254880, Note_on_c, 0, 69, 0
2, 254880, Note_on_c, 0, 70, 90
2, 254910, Note_on_c, 0, 70, 0
2, 254910, Note_on_c, 0, 72, 90
2, 254940, Note_on_c, 0, 72, 0
2, 254940, Note_on_c, 0, 70, 90
2, 254970, Note_on_c, 0, 70, 0
2, 254970, Note_on_c, 0, 69, 90
2, 255000, Note_on_c, 0, 69, 0
2, 255000, Note_on_c, 0, 67, 90
2, 255030, Note_on_c, 0, 67, 0
2, 255030, Note_on_c, 0, 55, 90
2, 255060, Note_on_c, 0, 55, 0
2, 255060, Note_on_c, 0, 57, 90
2, 255090, Note_on_c, 0, 57, 0
2, 255090, Note_on_c, 0, 58, 90
2, 255120, Note_on_c, 0, 58, 0
2, 255120, Note_on_c, 0, 60, 90
2, 255150, Note_on_c, 0, 60, 0
2, 255150, Note_on_c, 0, 62, 90
2, 255180, Note_on_c, 0, 62, 0
2, 255180, Note_on_c, 0, 60, 90
2, 255210, Note_on_c, 0, 60, 0
2, 255210, Note_on_c, 0, 58, 90
2, 255240, Note_on_c, 0, 58, 0
2, 255240, Note_on_c, 0, 57, 90
2, 255270, Note_on_c, 0, 57, 0
2, 255270, Note_on_c, 0, 58, 90
2, 255300, Note_on_c, 0, 58, 0
2, 255300, Note_on_c, 0, 57, 90
2, 255330, Note_on_c, 0, 57, 0
2, 255330, Note_on_c, 0, 55, 90
2, 255360, Note_on_c, 0, 55, 0
2, 255360, Note_on_c, 0, 53, 90
2, 255435, Note_on_c, 0, 53, 0
2, 255435, Note_on_c, 0, 57, 90
2, 255450, Note_on_c, 0, 57, 0
2, 255450, Note_on_c, 0, 59, 90
2, 255465, Note_on_c, 0, 59, 0
2, 255465, Note_on_c, 0, 61, 90
2, 255480, Note_on_c, 0, 61, 0
2, 255480, Note_on_c, 0, 62, 90
2, 255600, Note_on_c, 0, 69, 90
2, 255690, Note_on_c, 0, 62, 0
2, 255690, Note_on_c, 0, 61, 90
2, 255720, Note_on_c, 0, 61, 0
2, 255720, Note_on_c, 0, 62, 90
2, 255810, Note_on_c, 0, 62, 0
2, 255810, Note_on_c, 0, 64, 90
2, 255840, Note_on_c, 0, 64, 0
2, 255840, Note_on_c, 0, 69, 0
2, 255840, Note_on_c, 0, 62, 90
2, 255840, Note_on_c, 0, 65, 90
2, 255960, Note_on_c, 0, 65, 0
2, 256020, Note_on_c, 0, 62, 0
2, 256020, Note_on_c, 0, 64, 90
2, 256080, Note_on_c, 0, 64, 0
2, 256080, Note_on_c, 0, 65, 90
2, 256080, Note_on_c, 0, 62, 90
2, 256200, Note_on_c, 0, 62, 0
2, 256200, Note_on_c, 0, 69, 90
2, 256260, Note_on_c, 0, 65, 0
2, 256260, Note_on_c, 0, 67, 90
2, 256290, Note_on_c, 0, 69, 0
2, 256290, Note_on_c, 0, 67, 90
2, 256320, Note_on_c, 0, 67, 0
2, 256320, Note_on_c, 0, 67, 0
2, 256320, Note_on_c, 0, 69, 90
2, 256320, Note_on_c, 0, 65, 90
2, 256410, Note_on_c, 0, 65, 0
2, 256410, Note_on_c, 0, 64, 90
2, 256440, Note_on_c, 0, 64, 0
2, 256440, Note_on_c, 0, 62, 90
2, 256560, Note_on_c, 0, 62, 0
2, 256560, Note_on_c, 0, 69, 0
2, 256560, Note_on_c, 0, 70, 90
2, 256560, Note_on_c, 0, 61, 90
2, 256680, Note_on_c, 0, 61, 0
2, 256680, Note_on_c, 0, 62, 90
2, 256770, Note_on_c, 0, 62, 0
2, 256770, Note_on_c, 0, 64, 90
2, 256800, Note_on_c, 0, 64, 0
2, 256800, Note_on_c, 0, 70, 0
2, 256800, Note_on_c, 0, 69, 90
2, 256800, Note_on_c, 0, 65, 90
2, 256950, Note_on_c, 0, 65, 0
2, 256950, Note_on_c, 0, 67, 90
2, 256980, Note_on_c, 0, 67, 0
2, 256980, Note_on_c, 0, 69, 0
2, 256980, Note_on_c, 0, 67, 90
2, 256980, Note_on_c, 0, 65, 90
2, 257010, Note_on_c, 0, 65, 0
2, 257010, Note_on_c, 0, 64, 90
2, 257040, Note_on_c, 0, 64, 0
2, 257040, Note_on_c, 0, 67, 0
2, 257040, Note_on_c, 0, 65, 90
2, 257040, Note_on_c, 0, 62, 90
2, 257130, Note_on_c, 0, 62, 0
2, 257130, Note_on_c, 0, 57, 90
2, 257160, Note_on_c, 0, 57, 0
2, 257160, Note_on_c, 0, 58, 90
2, 257250, Note_on_c, 0, 58, 0
2, 257250, Note_on_c, 0, 60, 90
2, 257280, Note_on_c, 0, 60, 0
2, 257280, Note_on_c, 0, 62, 90
2, 257370, Note_on_c, 0, 65, 0
2, 257370, Note_on_c, 0, 64, 90
2, 257400, Note_on_c, 0, 64, 0
2, 257400, Note_on_c, 0, 65, 90
2, 257490, Note_on_c, 0, 65, 0
2, 257490, Note_on_c, 0, 67, 90
2, 257520, Note_on_c, 0, 67, 0
2, 257520, Note_on_c, 0, 69, 90
2, 257610, Note_on_c, 0, 62, 0
2, 257610, Note_on_c, 0, 57, 90
2, 257640, Note_on_c, 0, 57, 0
2, 257640, Note_on_c, 0, 62, 90
2, 257730, Note_on_c, 0, 62, 0
2, 257730, Note_on_c, 0, 60, 90
2, 257760, Note_on_c, 0, 60, 0
2, 257760, Note_on_c, 0, 58, 90
2, 257835, Note_on_c, 0, 69, 0
2, 257835, Note_on_c, 0, 62, 90
2, 257850, Note_on_c, 0, 62, 0
2, 257850, Note_on_c, 0, 58, 0
2, 257850, Note_on_c, 0, 64, 90
2, 257850, Note_on_c, 0, 57, 90
2, 257865, Note_on_c, 0, 64, 0
2, 257865, Note_on_c, 0, 65, 90
2, 257880, Note_on_c, 0, 65, 0
2, 257880, Note_on_c, 0, 57, 0
2, 257880, Note_on_c, 0, 67, 90
2, 257880, Note_on_c, 0, 58, 90
2, 258090, Note_on_c, 0, 58, 0
2, 258090, Note_on_c, 0, 55, 90
2, 258120, Note_on_c, 0, 55, 0
2, 258120, Note_on_c, 0, 60, 90
2, 258210, Note_on_c, 0, 60, 0
2, 258210, Note_on_c, 0, 58, 90
2, 258240, Note_on_c, 0, 58, 0
2, 258240, Note_on_c, 0, 57, 90
2, 258315, Note_on_c, 0, 67, 0
2, 258315, Note_on_c, 0, 60, 90
2, 258330, Note_on_c, 0, 60, 0
2, 258330, Note_on_c, 0, 57, 0
2, 258330, Note_on_c, 0, 62, 90
2, 258330, Note_on_c, 0, 55, 90
2, 258345, Note_on_c, 0, 62, 0
2, 258345, Note_on_c, 0, 64, 90
2, 258360, Note_on_c, 0, 64, 0
2, 258360, Note_on_c, 0, 55, 0
2, 258360, Note_on_c, 0, 65, 90
2, 258360, Note_on_c, 0, 57, 90
2, 258570, Note_on_c, 0, 65, 0
2, 258570, Note_on_c, 0, 62, 90
2, 258600, Note_on_c, 0, 62, 0
2, 258600, Note_on_c, 0, 57, 0
2, 258600, Note_on_c, 0, 67, 90
2, 258600, Note_on_c, 0, 55, 90
2, 258690, Note_on_c, 0, 55, 0
2, 258690, Note_on_c, 0, 67, 0
2, 258690, Note_on_c, 0, 65, 90
2, 258690, Note_on_c, 0, 62, 90
2, 258720, Note_on_c, 0, 62, 0
2, 258720, Note_on_c, 0, 65, 0
2, 258720, Note_on_c, 0, 64, 90
2, 258720, Note_on_c, 0, 60, 90
2, 258810, Note_on_c, 0, 60, 0
2, 258810, Note_on_c, 0, 64, 0
2, 258810, Note_on_c, 0, 67, 90
2, 258810, Note_on_c, 0, 64, 90
2, 258840, Note_on_c, 0, 64, 0
2, 258840, Note_on_c, 0, 67, 0
2, 258840, Note_on_c, 0, 72, 90
2, 258840, Note_on_c, 0, 65, 90
2, 258930, Note_on_c, 0, 65, 0
2, 258930, Note_on_c, 0, 72, 0
2, 258930, Note_on_c, 0, 70, 90
2, 258930, Note_on_c, 0, 67, 90
2, 258960, Note_on_c, 0, 67, 0
2, 258960, Note_on_c, 0, 70, 0
2, 258960, Note_on_c, 0, 69, 90
2, 258960, Note_on_c, 0, 65, 90
2, 259050, Note_on_c, 0, 65, 0
2, 259050, Note_on_c, 0, 69, 0
2, 259050, Note_on_c, 0, 72, 90
2, 259050, Note_on_c, 0, 67, 90
2, 259080, Note_on_c, 0, 67, 0
2, 259080, Note_on_c, 0, 72, 0
2, 259080, Note_on_c, 0, 77, 90
2, 259080, Note_on_c, 0, 69, 90
2, 259170, Note_on_c, 0, 77, 0
2, 259170, Note_on_c, 0, 75, 90
2, 259200, Note_on_c, 0, 75, 0
2, 259200, Note_on_c, 0, 74, 90
2, 259290, Note_on_c, 0, 69, 0
2, 259290, Note_on_c, 0, 66, 90
2, 259320, Note_on_c, 0, 66, 0
2, 259320, Note_on_c, 0, 67, 90
2, 259410, Note_on_c, 0, 67, 0
2, 259410, Note_on_c, 0, 74, 0
2, 259410, Note_on_c, 0, 74, 90
2, 259410, Note_on_c, 0, 69, 90
2, 259440, Note_on_c, 0, 69, 0
2, 259440, Note_on_c, 0, 74, 0
2, 259440, Note_on_c, 0, 73, 90
2, 259440, Note_on_c, 0, 70, 90
2, 259650, Note_on_c, 0, 70, 0
2, 259650, Note_on_c, 0, 73, 0
2, 259650, Note_on_c, 0, 76, 90
2, 259650, Note_on_c, 0, 70, 90
2, 259680, Note_on_c, 0, 70, 0
2, 259680, Note_on_c, 0, 76, 0
2, 259680, Note_on_c, 0, 69, 90
2, 259680, Note_on_c, 0, 64, 90
2, 259800, Note_on_c, 0, 64, 0
2, 259800, Note_on_c, 0, 69, 0
2, 259860, Note_on_c, 0, 76, 90
2, 259860, Note_on_c, 0, 73, 90
2, 259875, Note_on_c, 0, 76, 0
2, 259875, Note_on_c, 0, 77, 90
2, 259890, Note_on_c, 0, 77, 0
2, 259890, Note_on_c, 0, 79, 90
2, 259920, Note_on_c, 0, 79, 0
2, 259920, Note_on_c, 0, 73, 0
2, 259920, Note_on_c, 0, 77, 90
2, 259920, Note_on_c, 0, 74, 90
2, 259950, Note_on_c, 0, 77, 0
2, 259950, Note_on_c, 0, 76, 90
2, 259980, Note_on_c, 0, 76, 0
2, 259980, Note_on_c, 0, 74, 0
2, 259980, Note_on_c, 0, 74, 90
2, 260010, Note_on_c, 0, 74, 0
2, 260010, Note_on_c, 0, 73, 90
2, 260040, Note_on_c, 0, 73, 0
2, 260040, Note_on_c, 0, 74, 90
2, 260130, Note_on_c, 0, 64, 90
2, 260160, Note_on_c, 0, 64, 0
2, 260160, Note_on_c, 0, 65, 90
2, 260250, Note_on_c, 0, 65, 0
2, 260250, Note_on_c, 0, 74, 0
2, 260250, Note_on_c, 0, 76, 90
2, 260250, Note_on_c, 0, 67, 90
2, 260280, Note_on_c, 0, 67, 0
2, 260280, Note_on_c, 0, 76, 0
2, 260280, Note_on_c, 0, 74, 90
2, 260280, Note_on_c, 0, 64, 90
2, 260295, Note_on_c, 0, 74, 0
2, 260295, Note_on_c, 0, 73, 90
2, 260310, Note_on_c, 0, 73, 0
2, 260310, Note_on_c, 0, 74, 90
2, 260325, Note_on_c, 0, 74, 0
2, 260325, Note_on_c, 0, 73, 90
2, 260370, Note_on_c, 0, 73, 0
2, 260370, Note_on_c, 0, 64, 0
2, 260370, Note_on_c, 0, 74, 90
2, 260370, Note_on_c, 0, 67, 90
2, 260400, Note_on_c, 0, 67, 0
2, 260400, Note_on_c, 0, 74, 0
2, 260400, Note_on_c, 0, 74, 90
2, 260400, Note_on_c, 0, 67, 90
2, 260475, Note_on_c, 0, 67, 0
2, 260475, Note_on_c, 0, 67, 90
2, 260490, Note_on_c, 0, 67, 0
2, 260490, Note_on_c, 0, 66, 90
2, 260505, Note_on_c, 0, 66, 0
2, 260505, Note_on_c, 0, 64, 90
2, 260520, Note_on_c, 0, 64, 0
2, 260520, Note_on_c, 0, 74, 0
2, 260520, Note_on_c, 0, 66, 90
2, 260610, Note_on_c, 0, 66, 0
2, 260610, Note_on_c, 0, 69, 90
2, 260640, Note_on_c, 0, 69, 0
2, 260640, Note_on_c, 0, 62, 90
2, 260730, Note_on_c, 0, 62, 0
2, 260730, Note_on_c, 0, 60, 90
2, 260760, Note_on_c, 0, 60, 0
2, 260760, Note_on_c, 0, 58, 90
2, 260850, Note_on_c, 0, 58, 0
2, 260850, Note_on_c, 0, 63, 90
2, 260880, Note_on_c, 0, 63, 0
2, 260880, Note_on_c, 0, 74, 90
2, 260880, Note_on_c, 0, 57, 90
2, 260955, Note_on_c, 0, 57, 0
2, 260955, Note_on_c, 0, 69, 90
2, 260970, Note_on_c, 0, 69, 0
2, 260970, Note_on_c, 0, 70, 90
2, 260985, Note_on_c, 0, 70, 0
2, 260985, Note_on_c, 0, 72, 90
2, 261000, Note_on_c, 0, 72, 0
2, 261000, Note_on_c, 0, 70, 90
2, 261030, Note_on_c, 0, 70, 0
2, 261030, Note_on_c, 0, 69, 90
2, 261060, Note_on_c, 0, 69, 0
2, 261060, Note_on_c, 0, 67, 90
2, 261090, Note_on_c, 0, 67, 0
2, 261090, Note_on_c, 0, 66, 90
2, 261120, Note_on_c, 0, 66, 0
2, 261120, Note_on_c, 0, 74, 0
2, 261120, Note_on_c, 0, 67, 90
2, 261120, Note_on_c, 0, 67, 90
2, 261210, Note_on_c, 0, 67, 0
2, 261210, Note_on_c, 0, 62, 90
2, 261240, Note_on_c, 0, 62, 0
2, 261240, Note_on_c, 0, 64, 90
2, 261300, Note_on_c, 0, 67, 0
2, 261300, Note_on_c, 0, 69, 90
2, 261330, Note_on_c, 0, 64, 0
2, 261330, Note_on_c, 0, 66, 90
2, 261360, Note_on_c, 0, 66, 0
2, 261360, Note_on_c, 0, 69, 0
2, 261360, Note_on_c, 0, 70, 90
2, 261360, Note_on_c, 0, 67, 90
2, 261450, Note_on_c, 0, 70, 0
2, 261450, Note_on_c, 0, 74, 90
2, 261480, Note_on_c, 0, 74, 0
2, 261480, Note_on_c, 0, 67, 0
2, 261480, Note_on_c, 0, 79, 90
2, 261480, Note_on_c, 0, 74, 90
2, 261570, Note_on_c, 0, 74, 0
2, 261570, Note_on_c, 0, 79, 0
2, 261570, Note_on_c, 0, 78, 90
2, 261570, Note_on_c, 0, 72, 90
2, 261600, Note_on_c, 0, 72, 0
2, 261600, Note_on_c, 0, 78, 0
2, 261600, Note_on_c, 0, 79, 90
2, 261600, Note_on_c, 0, 70, 90
2, 261690, Note_on_c, 0, 70, 0
2, 261690, Note_on_c, 0, 79, 0
2, 261690, Note_on_c, 0, 81, 90
2, 261690, Note_on_c, 0, 69, 90
2, 261720, Note_on_c, 0, 69, 0
2, 261720, Note_on_c, 0, 81, 0
2, 261720, Note_on_c, 0, 82, 90
2, 261720, Note_on_c, 0, 67, 90
2, 261810, Note_on_c, 0, 82, 0
2, 261810, Note_on_c, 0, 79, 90
2, 261840, Note_on_c, 0, 79, 0
2, 261840, Note_on_c, 0, 67, 0
2, 261840, Note_on_c, 0, 81, 90
2, 261840, Note_on_c, 0, 66, 90
2, 261930, Note_on_c, 0, 81, 0
2, 261930, Note_on_c, 0, 82, 90
2, 261945, Note_on_c, 0, 82, 0
2, 261945, Note_on_c, 0, 84, 90
2, 261960, Note_on_c, 0, 84, 0
2, 261960, Note_on_c, 0, 66, 0
2, 261960, Note_on_c, 0, 82, 90
2, 261960, Note_on_c, 0, 67, 90
2, 261990, Note_on_c, 0, 82, 0
2, 261990, Note_on_c, 0, 81, 90
2, 262020, Note_on_c, 0, 81, 0
2, 262020, Note_on_c, 0, 79, 90
2, 262050, Note_on_c, 0, 79, 0
2, 262050, Note_on_c, 0, 67, 0
2, 262050, Note_on_c, 0, 78, 90
2, 262050, Note_on_c, 0, 69, 90
2, 262080, Note_on_c, 0, 69, 0
2, 262080, Note_on_c, 0, 78, 0
2, 262080, Note_on_c, 0, 79, 90
2, 262080, Note_on_c, 0, 70, 90
2, 262230, Note_on_c, 0, 70, 0
2, 262230, Note_on_c, 0, 72, 90
2, 262260, Note_on_c, 0, 72, 0
2, 262260, Note_on_c, 0, 72, 90
2, 262260, Note_on_c, 0, 70, 90
2, 262290, Note_on_c, 0, 70, 0
2, 262290, Note_on_c, 0, 69, 90
2, 262320, Note_on_c, 0, 69, 0
2, 262320, Note_on_c, 0, 72, 0
2, 262320, Note_on_c, 0, 70, 90
2, 262320, Note_on_c, 0, 67, 90
2, 262470, Note_on_c, 0, 67, 0
2, 262470, Note_on_c, 0, 69, 90
2, 262500, Note_on_c, 0, 69, 0
2, 262500, Note_on_c, 0, 67, 90
2, 262530, Note_on_c, 0, 67, 0
2, 262530, Note_on_c, 0, 66, 90
2, 262560, Note_on_c, 0, 66, 0
2, 262560, Note_on_c, 0, 64, 90
2, 262650, Note_on_c, 0, 64, 0
2, 262650, Note_on_c, 0, 70, 0
2, 262650, Note_on_c, 0, 79, 0
2, 262650, Note_on_c, 0, 69, 90
2, 262650, Note_on_c, 0, 78, 90
2, 262680, Note_on_c, 0, 78, 0
2, 262680, Note_on_c, 0, 69, 0
2, 262680, Note_on_c, 0, 70, 90
2, 262680, Note_on_c, 0, 79, 90
2, 262770, Note_on_c, 0, 79, 0
2, 262770, Note_on_c, 0, 70, 0
2, 262770, Note_on_c, 0, 73, 90
2, 262770, Note_on_c, 0, 76, 90
2, 262770, Note_on_c, 0, 67, 90
2, 262800, Note_on_c, 0, 67, 0
2, 262800, Note_on_c, 0, 76, 0
2, 262800, Note_on_c, 0, 73, 0
2, 262800, Note_on_c, 0, 74, 90
2, 262800, Note_on_c, 0, 77, 90
2, 262800, Note_on_c, 0, 69, 90
2, 263040, Note_on_c, 0, 69, 0
2, 263040, Note_on_c, 0, 77, 0
2, 263040, Note_on_c, 0, 74, 0
2, 263520, Control_c, 0, 32, 0
2, 263520, Control_c, 0, 121, 0
2, 263520, Control_c, 0, 121, 0
2, 264000, Control_c, 0, 91, 40
2, 264000, Control_c, 0, 0, 8
2, 264000, Note_on_c, 0, 81, 90
2, 264240, Note_on_c, 0, 81, 0
2, 264240, Note_on_c, 0, 74, 90
2, 264420, Note_on_c, 0, 74, 0
2, 264420, Note_on_c, 0, 76, 90
2, 264480, Note_on_c, 0, 76, 0
2, 264480, Note_on_c, 0, 77, 90
2, 264480, Control_c, 0, 91, 40
2, 264480, Control_c, 0, 0, 0
2, 264480, Note_on_c, 0, 74, 90
2, 264600, Note_on_c, 0, 74, 0
2, 264600, Note_on_c, 0, 69, 90
2, 264660, Note_on_c, 0, 77, 0
2, 264660, Note_on_c, 0, 79, 90
2, 264690, Note_on_c, 0, 69, 0
2, 264690, Note_on_c, 0, 71, 90
2, 264720, Note_on_c, 0, 71, 0
2, 264720, Note_on_c, 0, 79, 0
2, 264720, Note_on_c, 0, 81, 90
2, 264720, Note_on_c, 0, 72, 90
2, 264810, Note_on_c, 0, 72, 0
2, 264810, Note_on_c, 0, 74, 90
2, 264840, Note_on_c, 0, 74, 0
2, 264840, Note_on_c, 0, 76, 90
2, 264960, Note_on_c, 0, 76, 0
2, 264960, Note_on_c, 0, 81, 0
2, 264960, Note_on_c, 0, 82, 90
2, 264960, Note_on_c, 0, 77, 90
2, 265080, Note_on_c, 0, 77, 0
2, 265080, Note_on_c, 0, 76, 90
2, 265170, Note_on_c, 0, 76, 0
2, 265170, Note_on_c, 0, 74, 90
2, 265200, Note_on_c, 0, 74, 0
2, 265200, Note_on_c, 0, 82, 0
2, 265200, Note_on_c, 0, 81, 90
2, 265200, Note_on_c, 0, 73, 90
2, 265350, Note_on_c, 0, 73, 0
2, 265350, Note_on_c, 0, 69, 90
2, 265380, Note_on_c, 0, 69, 0
2, 265380, Note_on_c, 0, 81, 0
2, 265380, Note_on_c, 0, 79, 90
2, 265380, Note_on_c, 0, 71, 90
2, 265410, Note_on_c, 0, 71, 0
2, 265410, Note_on_c, 0, 73, 90
2, 265440, Note_on_c, 0, 73, 0
2, 265440, Note_on_c, 0, 79, 0
2, 265440, Note_on_c, 0, 77, 90
2, 265440, Note_on_c, 0, 74, 90
2, 265470, Note_on_c, 0, 74, 0
2, 265470, Note_on_c, 0, 70, 90
2, 265500, Note_on_c, 0, 70, 0
2, 265500, Note_on_c, 0, 69, 90
2, 265530, Note_on_c, 0, 69, 0
2, 265530, Note_on_c, 0, 67, 90
2, 265560, Note_on_c, 0, 67, 0
2, 265560, Note_on_c, 0, 65, 90
2, 265710, Note_on_c, 0, 65, 0
2, 265710, Note_on_c, 0, 69, 90
2, 265740, Note_on_c, 0, 69, 0
2, 265740, Note_on_c, 0, 77, 0
2, 265740, Note_on_c, 0, 76, 90
2, 265740, Note_on_c, 0, 71, 90
2, 265770, Note_on_c, 0, 71, 0
2, 265770, Note_on_c, 0, 73, 90
2, 265800, Note_on_c, 0, 73, 0
2, 265800, Note_on_c, 0, 76, 0
2, 265800, Note_on_c, 0, 77, 90
2, 265800, Note_on_c, 0, 74, 90
2, 265860, Note_on_c, 0, 77, 0
2, 265860, Note_on_c, 0, 79, 90
2, 265920, Note_on_c, 0, 79, 0
2, 265920, Note_on_c, 0, 81, 90
2, 265950, Note_on_c, 0, 74, 0
2, 265950, Note_on_c, 0, 74, 90
2, 265980, Note_on_c, 0, 74, 0
2, 265980, Note_on_c, 0, 72, 90
2, 266010, Note_on_c, 0, 72, 0
2, 266010, Note_on_c, 0, 71, 90
2, 266040, Note_on_c, 0, 71, 0
2, 266040, Note_on_c, 0, 72, 90
2, 266070, Note_on_c, 0, 81, 0
2, 266070, Note_on_c, 0, 79, 90
2, 266100, Note_on_c, 0, 79, 0
2, 266100, Note_on_c, 0, 77, 90
2, 266130, Note_on_c, 0, 77, 0
2, 266130, Note_on_c, 0, 76, 90
2, 266160, Note_on_c, 0, 76, 0
2, 266160, Note_on_c, 0, 74, 90
2, 266190, Note_on_c, 0, 72, 0
2, 266190, Note_on_c, 0, 72, 90
2, 266220, Note_on_c, 0, 72, 0
2, 266220, Note_on_c, 0, 70, 90
2, 266250, Note_on_c, 0, 70, 0
2, 266250, Note_on_c, 0, 69, 90
2, 266280, Note_on_c, 0, 69, 0
2, 266280, Note_on_c, 0, 68, 90
2, 266310, Note_on_c, 0, 74, 0
2, 266310, Note_on_c, 0, 74, 90
2, 266340, Note_on_c, 0, 74, 0
2, 266340, Note_on_c, 0, 76, 90
2, 266370, Note_on_c, 0, 76, 0
2, 266370, Note_on_c, 0, 77, 90
2, 266400, Note_on_c, 0, 77, 0
2, 266400, Note_on_c, 0, 68, 0
2, 266400, Note_on_c, 0, 76, 90
2, 266400, Note_on_c, 0, 69, 90
2, 266430, Note_on_c, 0, 76, 0
2, 266430, Note_on_c, 0, 74, 90
2, 266460, Note_on_c, 0, 74, 0
2, 266460, Note_on_c, 0, 72, 90
2, 266490, Note_on_c, 0, 72, 0
2, 266490, Note_on_c, 0, 71, 90
2, 266520, Note_on_c, 0, 71, 0
2, 266520, Note_on_c, 0, 69, 0
2, 266520, Note_on_c, 0, 69, 90
2, 266520, Note_on_c, 0, 76, 90
2, 266580, Note_on_c, 0, 69, 0
2, 266610, Note_on_c, 0, 76, 0
2, 266610, Note_on_c, 0, 74, 90
2, 266640, Note_on_c, 0, 74, 0
2, 266640, Note_on_c, 0, 72, 90
2, 266670, Note_on_c, 0, 76, 90
2, 266700, Note_on_c, 0, 76, 0
2, 266700, Note_on_c, 0, 81, 90
2, 266730, Note_on_c, 0, 81, 0
2, 266730, Note_on_c, 0, 72, 0
2, 266730, Note_on_c, 0, 79, 90
2, 266730, Note_on_c, 0, 70, 90
2, 266760, Note_on_c, 0, 70, 0
2, 266760, Note_on_c, 0, 79, 0
2, 266760, Note_on_c, 0, 77, 90
2, 266760, Note_on_c, 0, 69, 90
2, 266790, Note_on_c, 0, 77, 0
2, 266790, Note_on_c, 0, 76, 90
2, 266820, Note_on_c, 0, 76, 0
2, 266820, Note_on_c, 0, 74, 90
2, 266850, Note_on_c, 0, 74, 0
2, 266850, Note_on_c, 0, 72, 90
2, 266880, Note_on_c, 0, 72, 0
2, 266880, Note_on_c, 0, 69, 0
2, 266880, Note_on_c, 0, 71, 90
2, 266880, Note_on_c, 0, 68, 90
2, 267000, Note_on_c, 0, 68, 0
2, 267000, Note_on_c, 0, 71, 0
2, 267000, Note_on_c, 0, 69, 90
2, 267090, Note_on_c, 0, 69, 0
2, 267090, Note_on_c, 0, 71, 90
2, 267120, Note_on_c, 0, 71, 0
2, 267120, Note_on_c, 0, 72, 90
2, 267150, Note_on_c, 0, 74, 90
2, 267180, Note_on_c, 0, 74, 0
2, 267180, Note_on_c, 0, 76, 90
2, 267210, Note_on_c, 0, 76, 0
2, 267210, Note_on_c, 0, 77, 90
2, 267240, Note_on_c, 0, 77, 0
2, 267240, Note_on_c, 0, 79, 90
2, 267270, Note_on_c, 0, 72, 0
2, 267270, Note_on_c, 0, 74, 90
2, 267300, Note_on_c, 0, 74, 0
2, 267300, Note_on_c, 0, 72, 90
2, 267330, Note_on_c, 0, 72, 0
2, 267330, Note_on_c, 0, 70, 90
2, 267360, Note_on_c, 0, 70, 0
2, 267360, Note_on_c, 0, 69, 90
2, 267390, Note_on_c, 0, 79, 0
2, 267390, Note_on_c, 0, 79, 90
2, 267420, Note_on_c, 0, 79, 0
2, 267420, Note_on_c, 0, 77, 90
2, 267450, Note_on_c, 0, 77, 0
2, 267450, Note_on_c, 0, 76, 90
2, 267480, Note_on_c, 0, 76, 0
2, 267480, Note_on_c, 0, 77, 90
2, 267510, Note_on_c, 0, 69, 0
2, 267510, Note_on_c, 0, 69, 90
2, 267540, Note_on_c, 0, 69, 0
2, 267540, Note_on_c, 0, 71, 90
2, 267570, Note_on_c, 0, 71, 0
2, 267570, Note_on_c, 0, 73, 90
2, 267600, Note_on_c, 0, 73, 0
2, 267600, Note_on_c, 0, 74, 90
2, 267630, Note_on_c, 0, 77, 0
2, 267630, Note_on_c, 0, 79, 90
2, 267660, Note_on_c, 0, 79, 0
2, 267660, Note_on_c, 0, 77, 90
2, 267690, Note_on_c, 0, 77, 0
2, 267690, Note_on_c, 0, 76, 90
2, 267720, Note_on_c, 0, 76, 0
2, 267720, Note_on_c, 0, 74, 90
2, 267750, Note_on_c, 0, 74, 0
2, 267750, Note_on_c, 0, 72, 90
2, 267780, Note_on_c, 0, 72, 0
2, 267780, Note_on_c, 0, 70, 90
2, 267810, Note_on_c, 0, 70, 0
2, 267810, Note_on_c, 0, 69, 90
2, 267840, Note_on_c, 0, 69, 0
2, 267840, Note_on_c, 0, 67, 90
2, 267870, Note_on_c, 0, 74, 0
2, 267870, Note_on_c, 0, 77, 90
2, 267900, Note_on_c, 0, 77, 0
2, 267900, Note_on_c, 0, 76, 90
2, 267930, Note_on_c, 0, 76, 0
2, 267930, Note_on_c, 0, 74, 90
2, 267960, Note_on_c, 0, 74, 0
2, 267960, Note_on_c, 0, 73, 90
2, 267990, Note_on_c, 0, 67, 0
2, 267990, Note_on_c, 0, 64, 90
2, 268020, Note_on_c, 0, 64, 0
2, 268020, Note_on_c, 0, 65, 90
2, 268050, Note_on_c, 0, 65, 0
2, 268050, Note_on_c, 0, 67, 90
2, 268080, Note_on_c, 0, 67, 0
2, 268080, Note_on_c, 0, 69, 90
2, 268110, Note_on_c, 0, 73, 0
2, 268110, Note_on_c, 0, 73, 90
2, 268140, Note_on_c, 0, 73, 0
2, 268140, Note_on_c, 0, 74, 90
2, 268170, Note_on_c, 0, 74, 0
2, 268170, Note_on_c, 0, 76, 90
2, 268200, Note_on_c, 0, 76, 0
2, 268200, Note_on_c, 0, 77, 90
2, 268230, Note_on_c, 0, 69, 0
2, 268230, Note_on_c, 0, 67, 90
2, 268260, Note_on_c, 0, 67, 0
2, 268260, Note_on_c, 0, 69, 90
2, 268290, Note_on_c, 0, 69, 0
2, 268290, Note_on_c, 0, 71, 90
2, 268320, Note_on_c, 0, 71, 0
2, 268320, Note_on_c, 0, 72, 90
2, 268350, Note_on_c, 0, 77, 0
2, 268350, Note_on_c, 0, 76, 90
2, 268380, Note_on_c, 0, 76, 0
2, 268380, Note_on_c, 0, 72, 0
2, 268380, Note_on_c, 0, 77, 90
2, 268380, Note_on_c, 0, 74, 90
2, 268410, Note_on_c, 0, 74, 0
2, 268410, Note_on_c, 0, 77, 0
2, 268410, Note_on_c, 0, 79, 90
2, 268410, Note_on_c, 0, 76, 90
2, 268440, Note_on_c, 0, 76, 0
2, 268440, Note_on_c, 0, 79, 0
2, 268440, Note_on_c, 0, 81, 90
2, 268440, Note_on_c, 0, 77, 90
2, 268560, Note_on_c, 0, 81, 0
2, 268560, Note_on_c, 0, 79, 90
2, 268590, Note_on_c, 0, 77, 0
2, 268590, Note_on_c, 0, 77, 90
2, 268620, Note_on_c, 0, 77, 0
2, 268620, Note_on_c, 0, 75, 90
2, 268650, Note_on_c, 0, 75, 0
2, 268650, Note_on_c, 0, 74, 90
2, 268680, Note_on_c, 0, 74, 0
2, 268680, Note_on_c, 0, 75, 90
2, 268710, Note_on_c, 0, 79, 0
2, 268710, Note_on_c, 0, 82, 90
2, 268740, Note_on_c, 0, 82, 0
2, 268740, Note_on_c, 0, 81, 90
2, 268770, Note_on_c, 0, 81, 0
2, 268770, Note_on_c, 0, 79, 90
2, 268800, Note_on_c, 0, 79, 0
2, 268800, Note_on_c, 0, 78, 90
2, 268830, Note_on_c, 0, 75, 0
2, 268830, Note_on_c, 0, 74, 90
2, 268860, Note_on_c, 0, 74, 0
2, 268860, Note_on_c, 0, 72, 90
2, 268890, Note_on_c, 0, 72, 0
2, 268890, Note_on_c, 0, 70, 90
2, 268920, Note_on_c, 0, 70, 0
2, 268950, Note_on_c, 0, 78, 0
2, 268950, Note_on_c, 0, 78, 90
2, 268950, Note_on_c, 0, 72, 90
2, 268980, Note_on_c, 0, 78, 0
2, 268980, Note_on_c, 0, 79, 90
2, 269010, Note_on_c, 0, 79, 0
2, 269010, Note_on_c, 0, 81, 90
2, 269040, Note_on_c, 0, 81, 0
2, 269040, Note_on_c, 0, 74, 90
2, 269070, Note_on_c, 0, 72, 0
2, 269070, Note_on_c, 0, 72, 90
2, 269100, Note_on_c, 0, 72, 0
2, 269100, Note_on_c, 0, 70, 90
2, 269130, Note_on_c, 0, 70, 0
2, 269130, Note_on_c, 0, 69, 90
2, 269160, Note_on_c, 0, 69, 0
2, 269160, Note_on_c, 0, 74, 0
2, 269160, Note_on_c, 0, 75, 90
2, 269160, Note_on_c, 0, 67, 90
2, 269220, Note_on_c, 0, 67, 0
2, 269220, Note_on_c, 0, 72, 90
2, 269280, Note_on_c, 0, 72, 0
2, 269280, Note_on_c, 0, 75, 0
2, 269280, Note_on_c, 0, 74, 90
2, 269280, Note_on_c, 0, 66, 90
2, 269310, Note_on_c, 0, 66, 0
2, 269310, Note_on_c, 0, 62, 90
2, 269340, Note_on_c, 0, 62, 0
2, 269340, Note_on_c, 0, 64, 90
2, 269370, Note_on_c, 0, 64, 0
2, 269370, Note_on_c, 0, 66, 90
2, 269400, Note_on_c, 0, 66, 0
2, 269400, Note_on_c, 0, 74, 0
2, 269400, Note_on_c, 0, 67, 90
2, 269520, Note_on_c, 0, 69, 90
2, 269550, Note_on_c, 0, 67, 0
2, 269550, Note_on_c, 0, 67, 90
2, 269580, Note_on_c, 0, 67, 0
2, 269580, Note_on_c, 0, 66, 90
2, 269610, Note_on_c, 0, 66, 0
2, 269610, Note_on_c, 0, 64, 90
2, 269640, Note_on_c, 0, 64, 0
2, 269640, Note_on_c, 0, 69, 0
2, 269640, Note_on_c, 0, 74, 90
2, 269640, Note_on_c, 0, 66, 90
2, 269730, Note_on_c, 0, 74, 0
2, 269730, Note_on_c, 0, 72, 90
2, 269760, Note_on_c, 0, 72, 0
2, 269760, Note_on_c, 0, 66, 0
2, 269760, Note_on_c, 0, 70, 90
2, 269760, Note_on_c, 0, 67, 90
2, 269850, Note_on_c, 0, 67, 0
2, 269850, Note_on_c, 0, 70, 0
2, 269850, Note_on_c, 0, 69, 90
2, 269850, Note_on_c, 0, 65, 90
2, 269880, Note_on_c, 0, 65, 0
2, 269880, Note_on_c, 0, 69, 0
2, 269880, Note_on_c, 0, 67, 90
2, 269880, Note_on_c, 0, 63, 90
2, 270000, Note_on_c, 0, 63, 0
2, 270000, Note_on_c, 0, 67, 0
2, 270000, Note_on_c, 0, 66, 90
2, 270000, Note_on_c, 0, 62, 90
2, 270120, Note_on_c, 0, 66, 0
2, 270120, Note_on_c, 0, 67, 90
2, 270210, Note_on_c, 0, 67, 0
2, 270210, Note_on_c, 0, 69, 90
2, 270240, Note_on_c, 0, 69, 0
2, 270240, Note_on_c, 0, 62, 0
2, 270240, Note_on_c, 0, 70, 90
2, 270240, Note_on_c, 0, 55, 90
2, 270390, Note_on_c, 0, 70, 0
2, 270390, Note_on_c, 0, 72, 90
2, 270420, Note_on_c, 0, 72, 0
2, 270420, Note_on_c, 0, 55, 0
2, 270420, Note_on_c, 0, 70, 90
2, 270420, Note_on_c, 0, 57, 90
2, 270450, Note_on_c, 0, 70, 0
2, 270450, Note_on_c, 0, 69, 90
2, 270480, Note_on_c, 0, 69, 0
2, 270480, Note_on_c, 0, 57, 0
2, 270480, Note_on_c, 0, 67, 90
2, 270480, Note_on_c, 0, 58, 90
2, 270570, Note_on_c, 0, 58, 0
2, 270570, Note_on_c, 0, 60, 90
2, 270600, Note_on_c, 0, 60, 0
2, 270600, Note_on_c, 0, 62, 90
2, 270630, Note_on_c, 0, 67, 0
2, 270630, Note_on_c, 0, 68, 90
2, 270660, Note_on_c, 0, 68, 0
2, 270660, Note_on_c, 0, 67, 90
2, 270690, Note_on_c, 0, 67, 0
2, 270690, Note_on_c, 0, 65, 90
2, 270720, Note_on_c, 0, 65, 0
2, 270720, Note_on_c, 0, 62, 0
2, 270720, Note_on_c, 0, 63, 90
2, 270720, Note_on_c, 0, 63, 90
2, 270750, Note_on_c, 0, 63, 0
2, 270750, Note_on_c, 0, 67, 90
2, 270780, Note_on_c, 0, 67, 0
2, 270780, Note_on_c, 0, 69, 90
2, 270810, Note_on_c, 0, 69, 0
2, 270810, Note_on_c, 0, 70, 90
2, 270840, Note_on_c, 0, 70, 0
2, 270840, Note_on_c, 0, 72, 90
2, 270960, Note_on_c, 0, 63, 0
2, 270960, Note_on_c, 0, 62, 90
2, 270990, Note_on_c, 0, 72, 0
2, 270990, Note_on_c, 0, 72, 90
2, 271020, Note_on_c, 0, 72, 0
2, 271020, Note_on_c, 0, 70, 90
2, 271050, Note_on_c, 0, 70, 0
2, 271050, Note_on_c, 0, 69, 90
2, 271080, Note_on_c, 0, 69, 0
2, 271080, Note_on_c, 0, 70, 90
2, 271110, Note_on_c, 0, 70, 0
2, 271110, Note_on_c, 0, 72, 90
2, 271140, Note_on_c, 0, 72, 0
2, 271140, Note_on_c, 0, 62, 0
2, 271140, Note_on_c, 0, 74, 90
2, 271140, Note_on_c, 0, 60, 90
2, 271170, Note_on_c, 0, 74, 0
2, 271170, Note_on_c, 0, 75, 90
2, 271200, Note_on_c, 0, 75, 0
2, 271200, Note_on_c, 0, 60, 0
2, 271200, Note_on_c, 0, 77, 90
2, 271200, Note_on_c, 0, 58, 90
2, 271230, Note_on_c, 0, 77, 0
2, 271230, Note_on_c, 0, 75, 90
2, 271260, Note_on_c, 0, 75, 0
2, 271260, Note_on_c, 0, 74, 90
2, 271290, Note_on_c, 0, 74, 0
2, 271290, Note_on_c, 0, 72, 90
2, 271320, Note_on_c, 0, 72, 0
2, 271320, Note_on_c, 0, 70, 90
2, 271470, Note_on_c, 0, 70, 0
2, 271470, Note_on_c, 0, 69, 90
2, 271500, Note_on_c, 0, 69, 0
2, 271500, Note_on_c, 0, 58, 0
2, 271500, Note_on_c, 0, 67, 90
2, 271500, Note_on_c, 0, 57, 90
2, 271530, Note_on_c, 0, 67, 0
2, 271530, Note_on_c, 0, 65, 90
2, 271560, Note_on_c, 0, 65, 0
2, 271560, Note_on_c, 0, 57, 0
2, 271560, Note_on_c, 0, 64, 90
2, 271560, Note_on_c, 0, 58, 90
2, 271590, Note_on_c, 0, 64, 0
2, 271590, Note_on_c, 0, 67, 90
2, 271620, Note_on_c, 0, 67, 0
2, 271620, Note_on_c, 0, 58, 0
2, 271620, Note_on_c, 0, 65, 90
2, 271620, Note_on_c, 0, 60, 90
2, 271650, Note_on_c, 0, 65, 0
2, 271650, Note_on_c, 0, 64, 90
2, 271680, Note_on_c, 0, 64, 0
2, 271680, Note_on_c, 0, 60, 0
2, 271680, Note_on_c, 0, 65, 90
2, 271680, Note_on_c, 0, 62, 90
2, 271800, Note_on_c, 0, 62, 0
2, 271860, Note_on_c, 0, 65, 0
2, 271860, Note_on_c, 0, 70, 90
2, 271950, Note_on_c, 0, 70, 0
2, 271950, Note_on_c, 0, 70, 90
2, 271980, Note_on_c, 0, 70, 0
2, 271980, Note_on_c, 0, 69, 90
2, 272010, Note_on_c, 0, 69, 0
2, 272010, Note_on_c, 0, 67, 90
2, 272040, Note_on_c, 0, 67, 0
2, 272040, Note_on_c, 0, 69, 90
2, 272100, Note_on_c, 0, 69, 0
2, 272100, Note_on_c, 0, 71, 90
2, 272130, Note_on_c, 0, 71, 0
2, 272130, Note_on_c, 0, 72, 90
2, 272160, Note_on_c, 0, 72, 0
2, 272160, Note_on_c, 0, 74, 90
2, 272160, Note_on_c, 0, 67, 90
2, 272190, Note_on_c, 0, 74, 0
2, 272190, Note_on_c, 0, 71, 90
2, 272220, Note_on_c, 0, 71, 0
2, 272220, Note_on_c, 0, 67, 0
2, 272220, Note_on_c, 0, 72, 90
2, 272250, Note_on_c, 0, 72, 0
2, 272250, Note_on_c, 0, 74, 90
2, 272280, Note_on_c, 0, 74, 0
2, 272280, Note_on_c, 0, 67, 90
2, 272340, Note_on_c, 0, 67, 0
2, 272340, Note_on_c, 0, 75, 90
2, 272340, Note_on_c, 0, 72, 90
2, 272400, Note_on_c, 0, 75, 0
2, 272400, Note_on_c, 0, 74, 90
2, 272430, Note_on_c, 0, 72, 0
2, 272430, Note_on_c, 0, 72, 90
2, 272460, Note_on_c, 0, 72, 0
2, 272460, Note_on_c, 0, 70, 90
2, 272490, Note_on_c, 0, 70, 0
2, 272490, Note_on_c, 0, 69, 90
2, 272520, Note_on_c, 0, 69, 0
2, 272520, Note_on_c, 0, 70, 90
2, 272580, Note_on_c, 0, 74, 0
2, 272580, Note_on_c, 0, 76, 90
2, 272640, Note_on_c, 0, 76, 0
2, 272640, Note_on_c, 0, 77, 90
2, 272670, Note_on_c, 0, 70, 0
2, 272670, Note_on_c, 0, 70, 90
2, 272700, Note_on_c, 0, 70, 0
2, 272700, Note_on_c, 0, 69, 90
2, 272730, Note_on_c, 0, 69, 0
2, 272730, Note_on_c, 0, 67, 90
2, 272760, Note_on_c, 0, 67, 0
2, 272760, Note_on_c, 0, 69, 90
2, 272790, Note_on_c, 0, 69, 0
2, 272790, Note_on_c, 0, 70, 90
2, 272820, Note_on_c, 0, 70, 0
2, 272820, Note_on_c, 0, 72, 90
2, 272910, Note_on_c, 0, 72, 0
2, 272910, Note_on_c, 0, 70, 90
2, 272940, Note_on_c, 0, 70, 0
2, 272940, Note_on_c, 0, 77, 0
2, 272940, Note_on_c, 0, 75, 90
2, 272940, Note_on_c, 0, 69, 90
2, 273000, Note_on_c, 0, 75, 0
2, 273000, Note_on_c, 0, 74, 90
2, 273030, Note_on_c, 0, 69, 0
2, 273030, Note_on_c, 0, 62, 90
2, 273060, Note_on_c, 0, 62, 0
2, 273060, Note_on_c, 0, 67, 90
2, 273150, Note_on_c, 0, 74, 0
2, 273150, Note_on_c, 0, 69, 90
2, 273180, Note_on_c, 0, 69, 0
2, 273180, Note_on_c, 0, 67, 0
2, 273180, Note_on_c, 0, 74, 90
2, 273180, Note_on_c, 0, 65, 90
2, 273210, Note_on_c, 0, 65, 0
2, 273210, Note_on_c, 0, 67, 90
2, 273240, Note_on_c, 0, 67, 0
2, 273240, Note_on_c, 0, 69, 90
2, 273270, Note_on_c, 0, 74, 0
2, 273270, Note_on_c, 0, 72, 90
2, 273300, Note_on_c, 0, 72, 0
2, 273300, Note_on_c, 0, 74, 90
2, 273330, Note_on_c, 0, 74, 0
2, 273330, Note_on_c, 0, 75, 90
2, 273360, Note_on_c, 0, 75, 0
2, 273360, Note_on_c, 0, 77, 90
2, 273390, Note_on_c, 0, 69, 0
2, 273390, Note_on_c, 0, 70, 90
2, 273420, Note_on_c, 0, 70, 0
2, 273420, Note_on_c, 0, 72, 90
2, 273450, Note_on_c, 0, 72, 0
2, 273450, Note_on_c, 0, 69, 90
2, 273480, Note_on_c, 0, 69, 0
2, 273480, Note_on_c, 0, 70, 90
2, 273510, Note_on_c, 0, 77, 0
2, 273510, Note_on_c, 0, 79, 90
2, 273540, Note_on_c, 0, 79, 0
2, 273540, Note_on_c, 0, 77, 90
2, 273570, Note_on_c, 0, 77, 0
2, 273570, Note_on_c, 0, 75, 90
2, 273600, Note_on_c, 0, 75, 0
2, 273600, Note_on_c, 0, 74, 90
2, 273630, Note_on_c, 0, 70, 0
2, 273630, Note_on_c, 0, 70, 90
2, 273660, Note_on_c, 0, 70, 0
2, 273660, Note_on_c, 0, 69, 90
2, 273690, Note_on_c, 0, 69, 0
2, 273690, Note_on_c, 0, 67, 90
2, 273720, Note_on_c, 0, 67, 0
2, 273720, Note_on_c, 0, 65, 90
2, 273750, Note_on_c, 0, 74, 0
2, 273750, Note_on_c, 0, 74, 90
2, 273780, Note_on_c, 0, 74, 0
2, 273780, Note_on_c, 0, 72, 90
2, 273810, Note_on_c, 0, 72, 0
2, 273810, Note_on_c, 0, 70, 90
2, 273840, Note_on_c, 0, 70, 0
2, 273840, Note_on_c, 0, 69, 90
2, 273870, Note_on_c, 0, 69, 0
2, 273870, Note_on_c, 0, 75, 90
2, 273900, Note_on_c, 0, 75, 0
2, 273900, Note_on_c, 0, 74, 90
2, 273960, Note_on_c, 0, 74, 0
2, 273960, Note_on_c, 0, 72, 90
2, 273990, Note_on_c, 0, 65, 0
2, 273990, Note_on_c, 0, 67, 90
2, 274020, Note_on_c, 0, 67, 0
2, 274020, Note_on_c, 0, 65, 90
2, 274050, Note_on_c, 0, 65, 0
2, 274050, Note_on_c, 0, 64, 90
2, 274080, Note_on_c, 0, 64, 0
2, 274080, Note_on_c, 0, 65, 90
2, 274110, Note_on_c, 0, 72, 0
2, 274110, Note_on_c, 0, 70, 90
2, 274140, Note_on_c, 0, 70, 0
2, 274140, Note_on_c, 0, 69, 90
2, 274170, Note_on_c, 0, 69, 0
2, 274170, Note_on_c, 0, 67, 90
2, 274200, Note_on_c, 0, 67, 0
2, 274200, Note_on_c, 0, 65, 0
2, 274200, Note_on_c, 0, 69, 90
2, 274200, Note_on_c, 0, 72, 90
2, 274230, Note_on_c, 0, 69, 0
2, 274230, Note_on_c, 0, 67, 90
2, 274260, Note_on_c, 0, 67, 0
2, 274260, Note_on_c, 0, 65, 90
2, 274290, Note_on_c, 0, 72, 0
2, 274290, Note_on_c, 0, 70, 90
2, 274320, Note_on_c, 0, 70, 0
2, 274320, Note_on_c, 0, 65, 0
2, 274320, Note_on_c, 0, 72, 90
2, 274320, Note_on_c, 0, 69, 90
2, 274410, Note_on_c, 0, 69, 0
2, 274410, Note_on_c, 0, 67, 90
2, 274440, Note_on_c, 0, 67, 0
2, 274440, Note_on_c, 0, 65, 90
2, 274470, Note_on_c, 0, 72, 0
2, 274470, Note_on_c, 0, 71, 90
2, 274500, Note_on_c, 0, 71, 0
2, 274500, Note_on_c, 0, 72, 90
2, 274530, Note_on_c, 0, 72, 0
2, 274530, Note_on_c, 0, 74, 90
2, 274560, Note_on_c, 0, 74, 0
2, 274560, Note_on_c, 0, 65, 0
2, 274560, Note_on_c, 0, 67, 90
2, 274560, Note_on_c, 0, 64, 90
2, 274680, Note_on_c, 0, 64, 0
2, 274680, Note_on_c, 0, 67, 0
2, 274680, Note_on_c, 0, 65, 90
2, 274770, Note_on_c, 0, 65, 0
2, 274770, Note_on_c, 0, 67, 90
2, 274800, Note_on_c, 0, 67, 0
2, 274800, Note_on_c, 0, 72, 90
2, 274800, Note_on_c, 0, 69, 90
2, 274920, Note_on_c, 0, 72, 0
2, 274920, Note_on_c, 0, 65, 90
2, 274950, Note_on_c, 0, 69, 0
2, 274950, Note_on_c, 0, 70, 90
2, 274980, Note_on_c, 0, 70, 0
2, 274980, Note_on_c, 0, 69, 90
2, 275010, Note_on_c, 0, 69, 0
2, 275010, Note_on_c, 0, 65, 0
2, 275010, Note_on_c, 0, 67, 90
2, 275010, Note_on_c, 0, 67, 90
2, 275040, Note_on_c, 0, 67, 0
2, 275040, Note_on_c, 0, 67, 0
2, 275040, Note_on_c, 0, 69, 90
2, 275040, Note_on_c, 0, 65, 90
2, 275130, Note_on_c, 0, 69, 0
2, 275130, Note_on_c, 0, 70, 90
2, 275160, Note_on_c, 0, 70, 0
2, 275160, Note_on_c, 0, 72, 90
2, 275190, Note_on_c, 0, 65, 0
2, 275190, Note_on_c, 0, 67, 90
2, 275220, Note_on_c, 0, 67, 0
2, 275220, Note_on_c, 0, 65, 90
2, 275250, Note_on_c, 0, 65, 0
2, 275250, Note_on_c, 0, 63, 90
2, 275280, Note_on_c, 0, 63, 0
2, 275280, Note_on_c, 0, 72, 0
2, 275280, Note_on_c, 0, 74, 90
2, 275280, Note_on_c, 0, 62, 90
2, 275310, Note_on_c, 0, 62, 0
2, 275310, Note_on_c, 0, 64, 90
2, 275340, Note_on_c, 0, 64, 0
2, 275340, Note_on_c, 0, 65, 90
2, 275400, Note_on_c, 0, 74, 0
2, 275400, Note_on_c, 0, 72, 90
2, 275430, Note_on_c, 0, 65, 0
2, 275430, Note_on_c, 0, 65, 90
2, 275460, Note_on_c, 0, 65, 0
2, 275460, Note_on_c, 0, 64, 90
2, 275490, Note_on_c, 0, 72, 0
2, 275490, Note_on_c, 0, 70, 90
2, 275520, Note_on_c, 0, 70, 0
2, 275520, Note_on_c, 0, 69, 90
2, 275550, Note_on_c, 0, 64, 0
2, 275550, Note_on_c, 0, 64, 90
2, 275580, Note_on_c, 0, 64, 0
2, 275580, Note_on_c, 0, 62, 90
2, 275610, Note_on_c, 0, 62, 0
2, 275610, Note_on_c, 0, 61, 90
2, 275640, Note_on_c, 0, 61, 0
2, 275640, Note_on_c, 0, 62, 90
2, 275670, Note_on_c, 0, 69, 0
2, 275670, Note_on_c, 0, 67, 90
2, 275700, Note_on_c, 0, 67, 0
2, 275700, Note_on_c, 0, 69, 90
2, 275730, Note_on_c, 0, 69, 0
2, 275730, Note_on_c, 0, 70, 90
2, 275760, Note_on_c, 0, 70, 0
2, 275760, Note_on_c, 0, 62, 0
2, 275760, Note_on_c, 0, 72, 90
2, 275760, Note_on_c, 0, 60, 90
2, 275790, Note_on_c, 0, 60, 0
2, 275790, Note_on_c, 0, 64, 90
2, 275820, Note_on_c, 0, 64, 0
2, 275820, Note_on_c, 0, 65, 90
2, 275850, Note_on_c, 0, 65, 0
2, 275850, Note_on_c, 0, 67, 90
2, 275880, Note_on_c, 0, 67, 0
2, 275880, Note_on_c, 0, 69, 90
2, 275910, Note_on_c, 0, 72, 0
2, 275910, Note_on_c, 0, 74, 90
2, 275940, Note_on_c, 0, 74, 0
2, 275940, Note_on_c, 0, 72, 90
2, 275970, Note_on_c, 0, 72, 0
2, 275970, Note_on_c, 0, 71, 90
2, 276000, Note_on_c, 0, 71, 0
2, 276000, Note_on_c, 0, 69, 0
2, 276000, Note_on_c, 0, 72, 90
2, 276000, Note_on_c, 0, 67, 90
2, 276030, Note_on_c, 0, 72, 0
2, 276030, Note_on_c, 0, 74, 90
2, 276060, Note_on_c, 0, 74, 0
2, 276060, Note_on_c, 0, 76, 90
2, 276090, Note_on_c, 0, 76, 0
2, 276090, Note_on_c, 0, 67, 0
2, 276090, Note_on_c, 0, 77, 90
2, 276090, Note_on_c, 0, 69, 90
2, 276120, Note_on_c, 0, 69, 0
2, 276120, Note_on_c, 0, 77, 0
2, 276120, Note_on_c, 0, 79, 90
2, 276120, Note_on_c, 0, 70, 90
2, 276150, Note_on_c, 0, 70, 0
2, 276150, Note_on_c, 0, 62, 90
2, 276180, Note_on_c, 0, 62, 0
2, 276180, Note_on_c, 0, 61, 90
2, 276210, Note_on_c, 0, 61, 0
2, 276210, Note_on_c, 0, 59, 90
2, 276240, Note_on_c, 0, 59, 0
2, 276240, Note_on_c, 0, 61, 90
2, 276270, Note_on_c, 0, 79, 0
2, 276270, Note_on_c, 0, 77, 90
2, 276300, Note_on_c, 0, 77, 0
2, 276300, Note_on_c, 0, 76, 90
2, 276330, Note_on_c, 0, 76, 0
2, 276330, Note_on_c, 0, 74, 90
2, 276360, Note_on_c, 0, 74, 0
2, 276360, Note_on_c, 0, 61, 0
2, 276360, Note_on_c, 0, 73, 90
2, 276390, Note_on_c, 0, 70, 90
2, 276420, Note_on_c, 0, 70, 0
2, 276420, Note_on_c, 0, 69, 90
2, 276450, Note_on_c, 0, 69, 0
2, 276450, Note_on_c, 0, 67, 90
2, 276480, Note_on_c, 0, 67, 0
2, 276480, Note_on_c, 0, 73, 0
2, 276480, Note_on_c, 0, 74, 90
2, 276480, Note_on_c, 0, 69, 90
2, 276510, Note_on_c, 0, 69, 0
2, 276510, Note_on_c, 0, 67, 90
2, 276540, Note_on_c, 0, 67, 0
2, 276540, Note_on_c, 0, 65, 90
2, 276570, Note_on_c, 0, 65, 0
2, 276570, Note_on_c, 0, 64, 90
2, 276600, Note_on_c, 0, 64, 0
2, 276600, Note_on_c, 0, 74, 0
2, 276600, Note_on_c, 0, 62, 90
2, 276630, Note_on_c, 0, 69, 90
2, 276660, Note_on_c, 0, 69, 0
2, 276660, Note_on_c, 0, 62, 0
2, 276660, Note_on_c, 0, 71, 90
2, 276690, Note_on_c, 0, 71, 0
2, 276690, Note_on_c, 0, 73, 90
2, 276720, Note_on_c, 0, 73, 0
2, 276720, Note_on_c, 0, 74, 90
2, 276750, Note_on_c, 0, 74, 0
2, 276750, Note_on_c, 0, 76, 90
2, 276750, Note_on_c, 0, 69, 90
2, 276780, Note_on_c, 0, 69, 0
2, 276780, Note_on_c, 0, 76, 0
2, 276780, Note_on_c, 0, 77, 90
2, 276780, Note_on_c, 0, 74, 90
2, 276810, Note_on_c, 0, 74, 0
2, 276810, Note_on_c, 0, 72, 90
2, 276840, Note_on_c, 0, 72, 0
2, 276840, Note_on_c, 0, 70, 90
2, 276870, Note_on_c, 0, 70, 0
2, 276870, Note_on_c, 0, 69, 90
2, 276900, Note_on_c, 0, 69, 0
2, 276900, Note_on_c, 0, 77, 0
2, 276900, Note_on_c, 0, 76, 90
2, 276900, Note_on_c, 0, 70, 90
2, 276930, Note_on_c, 0, 70, 0
2, 276930, Note_on_c, 0, 67, 90
2, 276960, Note_on_c, 0, 67, 0
2, 276960, Note_on_c, 0, 64, 90
2, 276990, Note_on_c, 0, 76, 0
2, 276990, Note_on_c, 0, 76, 90
2, 277020, Note_on_c, 0, 76, 0
2, 277020, Note_on_c, 0, 64, 0
2, 277020, Note_on_c, 0, 81, 90
2, 277050, Note_on_c, 0, 81, 0
2, 277050, Note_on_c, 0, 79, 90
2, 277080, Note_on_c, 0, 79, 0
2, 277080, Note_on_c, 0, 77, 90
2, 277110, Note_on_c, 0, 77, 0
2, 277110, Note_on_c, 0, 76, 90
2, 277140, Note_on_c, 0, 76, 0
2, 277140, Note_on_c, 0, 74, 90
2, 277170, Note_on_c, 0, 74, 0
2, 277170, Note_on_c, 0, 73, 90
2, 277200, Note_on_c, 0, 73, 0
2, 277200, Note_on_c, 0, 74, 90
2, 277200, Note_on_c, 0, 62, 90
2, 277230, Note_on_c, 0, 74, 0
2, 277230, Note_on_c, 0, 70, 90
2, 277260, Note_on_c, 0, 70, 0
2, 277260, Note_on_c, 0, 69, 90
2, 277290, Note_on_c, 0, 69, 0
2, 277290, Note_on_c, 0, 67, 90
2, 277320, Note_on_c, 0, 67, 0
2, 277320, Note_on_c, 0, 62, 0
2, 277320, Note_on_c, 0, 65, 90
2, 277320, Note_on_c, 0, 69, 90
2, 277350, Note_on_c, 0, 65, 0
2, 277350, Note_on_c, 0, 64, 90
2, 277380, Note_on_c, 0, 64, 0
2, 277380, Note_on_c, 0, 62, 90
2, 277410, Note_on_c, 0, 62, 0
2, 277410, Note_on_c, 0, 69, 0
2, 277410, Note_on_c, 0, 61, 90
2, 277410, Note_on_c, 0, 67, 90
2, 277440, Note_on_c, 0, 67, 0
2, 277440, Note_on_c, 0, 61, 0
2, 277440, Note_on_c, 0, 62, 90
2, 277440, Note_on_c, 0, 65, 90
2, 277470, Note_on_c, 0, 62, 0
2, 277470, Note_on_c, 0, 69, 90
2, 277500, Note_on_c, 0, 69, 0
2, 277500, Note_on_c, 0, 74, 90
2, 277530, Note_on_c, 0, 65, 0
2, 277530, Note_on_c, 0, 64, 90
2, 277560, Note_on_c, 0, 64, 0
2, 277560, Note_on_c, 0, 62, 90
2, 277590, Note_on_c, 0, 74, 0
2, 277590, Note_on_c, 0, 77, 90
2, 277620, Note_on_c, 0, 77, 0
2, 277620, Note_on_c, 0, 76, 90
2, 277650, Note_on_c, 0, 76, 0
2, 277650, Note_on_c, 0, 74, 90
2, 277680, Note_on_c, 0, 74, 0
2, 277680, Note_on_c, 0, 62, 0
2, 277680, Note_on_c, 0, 76, 90
2, 277680, Note_on_c, 0, 61, 90
2, 277710, Note_on_c, 0, 76, 0
2, 277710, Note_on_c, 0, 81, 90
2, 277770, Note_on_c, 0, 81, 0
2, 277770, Note_on_c, 0, 69, 90
2, 277800, Note_on_c, 0, 69, 0
2, 277800, Note_on_c, 0, 61, 0
2, 277800, Note_on_c, 0, 70, 90
2, 277800, Note_on_c, 0, 62, 90
2, 277830, Note_on_c, 0, 70, 0
2, 277830, Note_on_c, 0, 74, 90
2, 277860, Note_on_c, 0, 74, 0
2, 277860, Note_on_c, 0, 79, 90
2, 277890, Note_on_c, 0, 79, 0
2, 277890, Note_on_c, 0, 62, 0
2, 277890, Note_on_c, 0, 67, 90
2, 277890, Note_on_c, 0, 64, 90
2, 277920, Note_on_c, 0, 64, 0
2, 277920, Note_on_c, 0, 67, 0
2, 277920, Note_on_c, 0, 69, 90
2, 277920, Note_on_c, 0, 65, 90
2, 277950, Note_on_c, 0, 69, 0
2, 277950, Note_on_c, 0, 72, 90
2, 277980, Note_on_c, 0, 72, 0
2, 277980, Note_on_c, 0, 77, 90
2, 278010, Note_on_c, 0, 77, 0
2, 278010, Note_on_c, 0, 76, 90
2, 278040, Note_on_c, 0, 76, 0
2, 278040, Note_on_c, 0, 74, 90
2, 278070, Note_on_c, 0, 65, 0
2, 278070, Note_on_c, 0, 67, 90
2, 278100, Note_on_c, 0, 67, 0
2, 278100, Note_on_c, 0, 65, 90
2, 278130, Note_on_c, 0, 65, 0
2, 278130, Note_on_c, 0, 74, 0
2, 278130, Note_on_c, 0, 76, 90
2, 278130, Note_on_c, 0, 64, 90
2, 278160, Note_on_c, 0, 64, 0
2, 278160, Note_on_c, 0, 76, 0
2, 278160, Note_on_c, 0, 69, 90
2, 278160, Note_on_c, 0, 62, 90
2, 278220, Note_on_c, 0, 69, 0
2, 278220, Note_on_c, 0, 74, 90
2, 278280, Note_on_c, 0, 62, 0
2, 278310, Note_on_c, 0, 74, 0
2, 278310, Note_on_c, 0, 76, 90
2, 278340, Note_on_c, 0, 76, 0
2, 278340, Note_on_c, 0, 74, 90
2, 278370, Note_on_c, 0, 74, 0
2, 278370, Note_on_c, 0, 72, 90
2, 278400, Note_on_c, 0, 72, 0
2, 278400, Note_on_c, 0, 77, 90
2, 278460, Note_on_c, 0, 77, 0
2, 278460, Note_on_c, 0, 70, 90
2, 278550, Note_on_c, 0, 70, 0
2, 278550, Note_on_c, 0, 72, 90
2, 278580, Note_on_c, 0, 72, 0
2, 278580, Note_on_c, 0, 70, 90
2, 278610, Note_on_c, 0, 70, 0
2, 278610, Note_on_c, 0, 69, 90
2, 278640, Note_on_c, 0, 69, 0
2, 278640, Note_on_c, 0, 67, 90
2, 278700, Note_on_c, 0, 67, 0
2, 278700, Note_on_c, 0, 79, 90
2, 278790, Note_on_c, 0, 79, 0
2, 278790, Note_on_c, 0, 82, 90
2, 278820, Note_on_c, 0, 82, 0
2, 278820, Note_on_c, 0, 81, 90
2, 278850, Note_on_c, 0, 81, 0
2, 278850, Note_on_c, 0, 79, 90
2, 278880, Note_on_c, 0, 79, 0
2, 278880, Note_on_c, 0, 78, 90
2, 278940, Note_on_c, 0, 78, 0
2, 278940, Note_on_c, 0, 77, 90
2, 279030, Note_on_c, 0, 77, 0
2, 279030, Note_on_c, 0, 81, 90
2, 279060, Note_on_c, 0, 81, 0
2, 279060, Note_on_c, 0, 79, 90
2, 279090, Note_on_c, 0, 79, 0
2, 279090, Note_on_c, 0, 77, 90
2, 279120, Note_on_c, 0, 77, 0
2, 279120, Note_on_c, 0, 76, 90
2, 279180, Note_on_c, 0, 76, 0
2, 279180, Note_on_c, 0, 75, 90
2, 279270, Note_on_c, 0, 75, 0
2, 279270, Note_on_c, 0, 79, 90
2, 279300, Note_on_c, 0, 79, 0
2, 279300, Note_on_c, 0, 77, 90
2, 279330, Note_on_c, 0, 77, 0
2, 279330, Note_on_c, 0, 75, 90
2, 279360, Note_on_c, 0, 75, 0
2, 279360, Note_on_c, 0, 74, 90
2, 279480, Note_on_c, 0, 74, 0
2, 279480, Note_on_c, 0, 73, 90
2, 279540, Note_on_c, 0, 73, 0
2, 279540, Note_on_c, 0, 72, 90
2, 279660, Note_on_c, 0, 72, 0
2, 279660, Note_on_c, 0, 70, 90
2, 279690, Note_on_c, 0, 70, 0
2, 279690, Note_on_c, 0, 69, 90
2, 279720, Note_on_c, 0, 69, 0
2, 279720, Note_on_c, 0, 67, 90
2, 279750, Note_on_c, 0, 67, 0
2, 279750, Note_on_c, 0, 77, 90
2, 279780, Note_on_c, 0, 77, 0
2, 279780, Note_on_c, 0, 76, 90
2, 279810, Note_on_c, 0, 76, 0
2, 279810, Note_on_c, 0, 74, 90
2, 279840, Note_on_c, 0, 74, 0
2, 279840, Note_on_c, 0, 73, 90
2, 279840, Note_on_c, 0, 69, 90
2, 279930, Note_on_c, 0, 73, 0
2, 279930, Note_on_c, 0, 74, 90
2, 279960, Note_on_c, 0, 74, 0
2, 279960, Note_on_c, 0, 76, 90
2, 280050, Note_on_c, 0, 76, 0
2, 280050, Note_on_c, 0, 73, 90
2, 280080, Note_on_c, 0, 73, 0
2, 280080, Note_on_c, 0, 74, 90
2, 280110, Note_on_c, 0, 74, 0
2, 280110, Note_on_c, 0, 77, 90
2, 280140, Note_on_c, 0, 77, 0
2, 280140, Note_on_c, 0, 76, 90
2, 280170, Note_on_c, 0, 76, 0
2, 280170, Note_on_c, 0, 74, 90
2, 280200, Note_on_c, 0, 74, 0
2, 280200, Note_on_c, 0, 73, 90
2, 280230, Note_on_c, 0, 73, 0
2, 280230, Note_on_c, 0, 76, 90
2, 280260, Note_on_c, 0, 76, 0
2, 280260, Note_on_c, 0, 69, 90
2, 280290, Note_on_c, 0, 69, 0
2, 280290, Note_on_c, 0, 67, 90
2, 280320, Note_on_c, 0, 67, 0
2, 280320, Note_on_c, 0, 69, 0
2, 280320, Note_on_c, 0, 65, 90
2, 280320, Note_on_c, 0, 62, 90
2, 280350, Note_on_c, 0, 65, 0
2, 280350, Note_on_c, 0, 67, 90
2, 280380, Note_on_c, 0, 67, 0
2, 280380, Note_on_c, 0, 65, 90
2, 280410, Note_on_c, 0, 65, 0
2, 280410, Note_on_c, 0, 64, 90
2, 280440, Note_on_c, 0, 64, 0
2, 280440, Note_on_c, 0, 62, 90
2, 280470, Note_on_c, 0, 62, 0
2, 280470, Note_on_c, 0, 65, 90
2, 280500, Note_on_c, 0, 65, 0
2, 280500, Note_on_c, 0, 70, 90
2, 280530, Note_on_c, 0, 70, 0
2, 280530, Note_on_c, 0, 69, 90
2, 280560, Note_on_c, 0, 69, 0
2, 280560, Note_on_c, 0, 67, 90
2, 280590, Note_on_c, 0, 67, 0
2, 280590, Note_on_c, 0, 65, 90
2, 280620, Note_on_c, 0, 65, 0
2, 280620, Note_on_c, 0, 64, 90
2, 280650, Note_on_c, 0, 64, 0
2, 280650, Note_on_c, 0, 65, 90
2, 280680, Note_on_c, 0, 65, 0
2, 280680, Note_on_c, 0, 62, 0
2, 280680, Note_on_c, 0, 67, 90
2, 280680, Note_on_c, 0, 64, 90
2, 280710, Note_on_c, 0, 67, 0
2, 280710, Note_on_c, 0, 70, 90
2, 280740, Note_on_c, 0, 70, 0
2, 280740, Note_on_c, 0, 74, 90
2, 280770, Note_on_c, 0, 74, 0
2, 280770, Note_on_c, 0, 73, 90
2, 280800, Note_on_c, 0, 73, 0
2, 280800, Note_on_c, 0, 64, 0
2, 280800, Note_on_c, 0, 74, 90
2, 280800, Note_on_c, 0, 65, 90
2, 280920, Note_on_c, 0, 74, 0
2, 280950, Note_on_c, 0, 74, 90
2, 280980, Note_on_c, 0, 74, 0
2, 280980, Note_on_c, 0, 72, 90
2, 281010, Note_on_c, 0, 72, 0
2, 281010, Note_on_c, 0, 70, 90
2, 281040, Note_on_c, 0, 70, 0
2, 281040, Note_on_c, 0, 69, 90
2, 281160, Note_on_c, 0, 69, 0
2, 281160, Note_on_c, 0, 65, 0
2, 281160, Note_on_c, 0, 67, 90
2, 281190, Note_on_c, 0, 73, 90
2, 281220, Note_on_c, 0, 73, 0
2, 281220, Note_on_c, 0, 74, 90
2, 281250, Note_on_c, 0, 74, 0
2, 281250, Note_on_c, 0, 76, 90
2, 281280, Note_on_c, 0, 76, 0
2, 281280, Note_on_c, 0, 67, 0
2, 281280, Note_on_c, 0, 77, 90
2, 281280, Note_on_c, 0, 69, 90
2, 281310, Note_on_c, 0, 77, 0
2, 281310, Note_on_c, 0, 79, 90
2, 281340, Note_on_c, 0, 79, 0
2, 281340, Note_on_c, 0, 77, 90
2, 281370, Note_on_c, 0, 77, 0
2, 281370, Note_on_c, 0, 76, 90
2, 281400, Note_on_c, 0, 76, 0
2, 281400, Note_on_c, 0, 74, 90
2, 281520, Note_on_c, 0, 74, 0
2, 281520, Note_on_c, 0, 81, 90
2, 281700, Note_on_c, 0, 81, 0
2, 281700, Note_on_c, 0, 79, 90
2, 281760, Note_on_c, 0, 79, 0
2, 281760, Note_on_c, 0, 69, 0
2, 281760, Note_on_c, 0, 77, 90
2, 281760, Note_on_c, 0, 70, 90
2, 281940, Note_on_c, 0, 77, 0
2, 281940, Note_on_c, 0, 76, 90
2, 282000, Note_on_c, 0, 76, 0
2, 282000, Note_on_c, 0, 74, 90
2, 282240, Note_on_c, 0, 74, 0
2, 282240, Note_on_c, 0, 70, 0
2, 282240, Note_on_c, 0, 73, 90
2, 282240, Note_on_c, 0, 69, 90
2, 282480, Note_on_c, 0, 73, 0
2, 282480, Note_on_c, 0, 74, 90
2, 282600, Note_on_c, 0, 74, 0
2, 282600, Note_on_c, 0, 69, 0
2, 282600, Note_on_c, 0, 76, 90
2, 282600, Note_on_c, 0, 67, 90
2, 282720, Note_on_c, 0, 67, 0
2, 282720, Note_on_c, 0, 76, 0
2, 282720, Note_on_c, 0, 77, 90
2, 282720, Note_on_c, 0, 65, 90
2, 283020, Note_on_c, 0, 77, 0
2, 283020, Note_on_c, 0, 79, 90
2, 283080, Note_on_c, 0, 79, 0
2, 283080, Note_on_c, 0, 77, 90
2, 283140, Note_on_c, 0, 77, 0
2, 283140, Note_on_c, 0, 76, 90
2, 283200, Note_on_c, 0, 76, 0
2, 283200, Note_on_c, 0, 74, 90
2, 283230, Note_on_c, 0, 74, 0
2, 283230, Note_on_c, 0, 69, 90
2, 283260, Note_on_c, 0, 69, 0
2, 283260, Note_on_c, 0, 74, 90
2, 283320, Note_on_c, 0, 65, 0
2, 283320, Note_on_c, 0, 64, 90
2, 283350, Note_on_c, 0, 74, 0
2, 283350, Note_on_c, 0, 76, 90
2, 283380, Note_on_c, 0, 76, 0
2, 283380, Note_on_c, 0, 74, 90
2, 283410, Note_on_c, 0, 74, 0
2, 283410, Note_on_c, 0, 73, 90
2, 283440, Note_on_c, 0, 73, 0
2, 283440, Note_on_c, 0, 64, 0
2, 283440, Note_on_c, 0, 74, 90
2, 283440, Note_on_c, 0, 65, 90
2, 283500, Note_on_c, 0, 74, 0
2, 283500, Note_on_c, 0, 81, 90
2, 283560, Note_on_c, 0, 81, 0
2, 283560, Note_on_c, 0, 65, 0
2, 283560, Note_on_c, 0, 74, 90
2, 283560, Note_on_c, 0, 67, 90
2, 283650, Note_on_c, 0, 74, 0
2, 283650, Note_on_c, 0, 76, 90
2, 283680, Note_on_c, 0, 76, 0
2, 283680, Note_on_c, 0, 67, 0
2, 283680, Note_on_c, 0, 77, 90
2, 283680, Note_on_c, 0, 69, 90
2, 283770, Note_on_c, 0, 77, 0
2, 283770, Note_on_c, 0, 79, 90
2, 283800, Note_on_c, 0, 79, 0
2, 283800, Note_on_c, 0, 69, 0
2, 283800, Note_on_c, 0, 81, 90
2, 283800, Note_on_c, 0, 62, 90
2, 283890, Note_on_c, 0, 62, 0
2, 283890, Note_on_c, 0, 64, 90
2, 283920, Note_on_c, 0, 64, 0
2, 283920, Note_on_c, 0, 81, 0
2, 283920, Note_on_c, 0, 82, 90
2, 283920, Note_on_c, 0, 65, 90
2, 284010, Note_on_c, 0, 65, 0
2, 284010, Note_on_c, 0, 67, 90
2, 284040, Note_on_c, 0, 67, 0
2, 284040, Note_on_c, 0, 82, 0
2, 284040, Note_on_c, 0, 81, 90
2, 284040, Note_on_c, 0, 69, 90
2, 284130, Note_on_c, 0, 81, 0
2, 284130, Note_on_c, 0, 79, 90
2, 284160, Note_on_c, 0, 79, 0
2, 284160, Note_on_c, 0, 69, 0
2, 284160, Note_on_c, 0, 77, 90
2, 284160, Note_on_c, 0, 70, 90
2, 284280, Note_on_c, 0, 70, 0
2, 284280, Note_on_c, 0, 69, 90
2, 284310, Note_on_c, 0, 77, 0
2, 284310, Note_on_c, 0, 76, 90
2, 284340, Note_on_c, 0, 76, 0
2, 284340, Note_on_c, 0, 77, 90
2, 284370, Note_on_c, 0, 77, 0
2, 284370, Note_on_c, 0, 69, 0
2, 284370, Note_on_c, 0, 79, 90
2, 284370, Note_on_c, 0, 67, 90
2, 284400, Note_on_c, 0, 67, 0
2, 284400, Note_on_c, 0, 79, 0
2, 284400, Note_on_c, 0, 81, 90
2, 284400, Note_on_c, 0, 65, 90
2, 284430, Note_on_c, 0, 81, 0
2, 284430, Note_on_c, 0, 77, 90
2, 284460, Note_on_c, 0, 77, 0
2, 284460, Note_on_c, 0, 76, 90
2, 284490, Note_on_c, 0, 76, 0
2, 284490, Note_on_c, 0, 74, 90
2, 284520, Note_on_c, 0, 74, 0
2, 284520, Note_on_c, 0, 65, 0
2, 284520, Note_on_c, 0, 72, 90
2, 284520, Note_on_c, 0, 65, 90
2, 284550, Note_on_c, 0, 65, 0
2, 284550, Note_on_c, 0, 64, 90
2, 284580, Note_on_c, 0, 64, 0
2, 284580, Note_on_c, 0, 72, 0
2, 284580, Note_on_c, 0, 65, 90
2, 284610, Note_on_c, 0, 65, 0
2, 284610, Note_on_c, 0, 67, 90
2, 284640, Note_on_c, 0, 67, 0
2, 284640, Note_on_c, 0, 69, 90
2, 284760, Note_on_c, 0, 69, 0
2, 284760, Note_on_c, 0, 74, 90
2, 284850, Note_on_c, 0, 74, 0
2, 284850, Note_on_c, 0, 72, 90
2, 284880, Note_on_c, 0, 72, 0
2, 284880, Note_on_c, 0, 70, 90
2, 284970, Note_on_c, 0, 70, 0
2, 284970, Note_on_c, 0, 69, 90
2, 285000, Note_on_c, 0, 69, 0
2, 285000, Note_on_c, 0, 67, 90
2, 285120, Note_on_c, 0, 67, 0
2, 285120, Note_on_c, 0, 66, 90
2, 285240, Note_on_c, 0, 66, 0
2, 285240, Note_on_c, 0, 67, 90
2, 285330, Note_on_c, 0, 67, 0
2, 285330, Note_on_c, 0, 69, 90
2, 285360, Note_on_c, 0, 69, 0
2, 285360, Note_on_c, 0, 70, 90
2, 285510, Note_on_c, 0, 70, 0
2, 285510, Note_on_c, 0, 72, 90
2, 285540, Note_on_c, 0, 72, 0
2, 285540, Note_on_c, 0, 70, 90
2, 285570, Note_on_c, 0, 70, 0
2, 285570, Note_on_c, 0, 69, 90
2, 285600, Note_on_c, 0, 69, 0
2, 285600, Note_on_c, 0, 67, 90
2, 285750, Note_on_c, 0, 67, 0
2, 285750, Note_on_c, 0, 66, 90
2, 285780, Note_on_c, 0, 66, 0
2, 285780, Note_on_c, 0, 67, 90
2, 285810, Note_on_c, 0, 67, 0
2, 285810, Note_on_c, 0, 69, 90
2, 285840, Note_on_c, 0, 69, 0
2, 285840, Note_on_c, 0, 70, 90
2, 285870, Note_on_c, 0, 70, 0
2, 285870, Note_on_c, 0, 72, 90
2, 285900, Note_on_c, 0, 72, 0
2, 285900, Note_on_c, 0, 70, 90
2, 285930, Note_on_c, 0, 70, 0
2, 285930, Note_on_c, 0, 69, 90
2, 285960, Note_on_c, 0, 69, 0
2, 285960, Note_on_c, 0, 67, 90
2, 285990, Note_on_c, 0, 67, 0
2, 285990, Note_on_c, 0, 65, 90
2, 286020, Note_on_c, 0, 65, 0
2, 286020, Note_on_c, 0, 64, 90
2, 286050, Note_on_c, 0, 64, 0
2, 286050, Note_on_c, 0, 62, 90
2, 286080, Note_on_c, 0, 62, 0
2, 286080, Note_on_c, 0, 64, 90
2, 286230, Note_on_c, 0, 64, 0
2, 286230, Note_on_c, 0, 64, 90
2, 286260, Note_on_c, 0, 64, 0
2, 286260, Note_on_c, 0, 65, 90
2, 286290, Note_on_c, 0, 65, 0
2, 286290, Note_on_c, 0, 67, 90
2, 286320, Note_on_c, 0, 67, 0
2, 286320, Note_on_c, 0, 69, 90
2, 286380, Note_on_c, 0, 69, 0
2, 286380, Note_on_c, 0, 62, 90
2, 286500, Note_on_c, 0, 62, 0
2, 286500, Note_on_c, 0, 60, 90
2, 286530, Note_on_c, 0, 60, 0
2, 286530, Note_on_c, 0, 58, 90
2, 286560, Note_on_c, 0, 58, 0
2, 286560, Note_on_c, 0, 57, 90
2, 286590, Note_on_c, 0, 57, 0
2, 286590, Note_on_c, 0, 60, 90
2, 286620, Note_on_c, 0, 60, 0
2, 286620, Note_on_c, 0, 62, 90
2, 286650, Note_on_c, 0, 62, 0
2, 286650, Note_on_c, 0, 64, 90
2, 286680, Note_on_c, 0, 64, 0
2, 286680, Note_on_c, 0, 65, 90
2, 286710, Note_on_c, 0, 65, 0
2, 286710, Note_on_c, 0, 67, 90
2, 286740, Note_on_c, 0, 67, 0
2, 286740, Note_on_c, 0, 69, 90
2, 286770, Note_on_c, 0, 69, 0
2, 286770, Note_on_c, 0, 70, 90
2, 286800, Note_on_c, 0, 70, 0
2, 286800, Note_on_c, 0, 72, 90
2, 286860, Note_on_c, 0, 72, 0
2, 286860, Note_on_c, 0, 63, 90
2, 286950, Note_on_c, 0, 63, 0
2, 286950, Note_on_c, 0, 67, 90
2, 286980, Note_on_c, 0, 67, 0
2, 286980, Note_on_c, 0, 65, 90
2, 287010, Note_on_c, 0, 65, 0
2, 287010, Note_on_c, 0, 63, 90
2, 287040, Note_on_c, 0, 63, 0
2, 287040, Note_on_c, 0, 74, 90
2, 287040, Note_on_c, 0, 62, 90
2, 287160, Note_on_c, 0, 62, 0
2, 287310, Note_on_c, 0, 69, 90
2, 287340, Note_on_c, 0, 69, 0
2, 287340, Note_on_c, 0, 70, 90
2, 287370, Note_on_c, 0, 70, 0
2, 287370, Note_on_c, 0, 72, 90
2, 287400, Note_on_c, 0, 72, 0
2, 287400, Note_on_c, 0, 70, 90
2, 287430, Note_on_c, 0, 70, 0
2, 287430, Note_on_c, 0, 69, 90
2, 287460, Note_on_c, 0, 69, 0
2, 287460, Note_on_c, 0, 67, 90
2, 287490, Note_on_c, 0, 67, 0
2, 287490, Note_on_c, 0, 65, 90
2, 287520, Note_on_c, 0, 65, 0
2, 287520, Note_on_c, 0, 74, 0
2, 287520, Note_on_c, 0, 81, 90
2, 287520, Note_on_c, 0, 64, 90
2, 287580, Note_on_c, 0, 64, 0
2, 287580, Note_on_c, 0, 76, 90
2, 287640, Note_on_c, 0, 76, 0
2, 287640, Note_on_c, 0, 69, 90
2, 287730, Note_on_c, 0, 69, 0
2, 287730, Note_on_c, 0, 71, 90
2, 287760, Note_on_c, 0, 71, 0
2, 287760, Note_on_c, 0, 73, 90
2, 287850, Note_on_c, 0, 73, 0
2, 287850, Note_on_c, 0, 74, 90
2, 287880, Note_on_c, 0, 74, 0
2, 287880, Note_on_c, 0, 81, 0
2, 287880, Note_on_c, 0, 79, 90
2, 287880, Note_on_c, 0, 76, 90
2, 288000, Note_on_c, 0, 76, 0
2, 288000, Note_on_c, 0, 79, 0
2, 288000, Note_on_c, 0, 77, 90
2, 288000, Note_on_c, 0, 77, 90
2, 288120, Note_on_c, 0, 77, 0
2, 288120, Note_on_c, 0, 76, 90
2, 288210, Note_on_c, 0, 76, 0
2, 288210, Note_on_c, 0, 74, 90
2, 288240, Note_on_c, 0, 74, 0
2, 288240, Note_on_c, 0, 73, 90
2, 288360, Note_on_c, 0, 77, 0
2, 288360, Note_on_c, 0, 76, 90
2, 288390, Note_on_c, 0, 73, 0
2, 288390, Note_on_c, 0, 69, 90
2, 288420, Note_on_c, 0, 69, 0
2, 288420, Note_on_c, 0, 71, 90
2, 288450, Note_on_c, 0, 71, 0
2, 288450, Note_on_c, 0, 73, 90
2, 288480, Note_on_c, 0, 73, 0
2, 288480, Note_on_c, 0, 76, 0
2, 288480, Note_on_c, 0, 74, 90
2, 288480, Note_on_c, 0, 74, 90
2, 288600, Note_on_c, 0, 74, 0
2, 288600, Note_on_c, 0, 69, 90
2, 288780, Note_on_c, 0, 69, 0
2, 288780, Note_on_c, 0, 67, 90
2, 288810, Note_on_c, 0, 67, 0
2, 288810, Note_on_c, 0, 69, 90
2, 288840, Note_on_c, 0, 69, 0
2, 288840, Note_on_c, 0, 70, 90
2, 288900, Note_on_c, 0, 70, 0
2, 288900, Note_on_c, 0, 67, 90
2, 288960, Note_on_c, 0, 74, 0
2, 288960, Note_on_c, 0, 73, 90
2, 288990, Note_on_c, 0, 67, 0
2, 288990, Note_on_c, 0, 69, 90
2, 289020, Note_on_c, 0, 69, 0
2, 289020, Note_on_c, 0, 67, 90
2, 289050, Note_on_c, 0, 67, 0
2, 289050, Note_on_c, 0, 65, 90
2, 289080, Note_on_c, 0, 65, 0
2, 289080, Note_on_c, 0, 64, 90
2, 289110, Note_on_c, 0, 64, 0
2, 289110, Note_on_c, 0, 62, 90
2, 289140, Note_on_c, 0, 62, 0
2, 289140, Note_on_c, 0, 64, 90
2, 289170, Note_on_c, 0, 64, 0
2, 289170, Note_on_c, 0, 65, 90
2, 289200, Note_on_c, 0, 65, 0
2, 289200, Note_on_c, 0, 67, 90
2, 289260, Note_on_c, 0, 67, 0
2, 289260, Note_on_c, 0, 70, 90
2, 289320, Note_on_c, 0, 70, 0
2, 289320, Note_on_c, 0, 64, 90
2, 289440, Note_on_c, 0, 64, 0
2, 289440, Note_on_c, 0, 73, 0
2, 289440, Note_on_c, 0, 74, 90
2, 289440, Note_on_c, 0, 69, 90
2, 289530, Note_on_c, 0, 69, 0
2, 289530, Note_on_c, 0, 67, 90
2, 289560, Note_on_c, 0, 67, 0
2, 289560, Note_on_c, 0, 65, 90
2, 289650, Note_on_c, 0, 65, 0
2, 289650, Note_on_c, 0, 64, 90
2, 289680, Note_on_c, 0, 64, 0
2, 289680, Note_on_c, 0, 62, 90
2, 289800, Note_on_c, 0, 62, 0
2, 289800, Note_on_c, 0, 74, 0
2, 289800, Note_on_c, 0, 76, 90
2, 289800, Note_on_c, 0, 61, 90
2, 289920, Note_on_c, 0, 61, 0
2, 289920, Note_on_c, 0, 76, 0
2, 289920, Note_on_c, 0, 77, 90
2, 289920, Note_on_c, 0, 62, 90
2, 289950, Note_on_c, 0, 74, 90
2, 289980, Note_on_c, 0, 74, 0
2, 289980, Note_on_c, 0, 72, 90
2, 290010, Note_on_c, 0, 72, 0
2, 290010, Note_on_c, 0, 62, 0
2, 290010, Note_on_c, 0, 70, 90
2, 290010, Note_on_c, 0, 64, 90
2, 290040, Note_on_c, 0, 64, 0
2, 290040, Note_on_c, 0, 70, 0
2, 290040, Note_on_c, 0, 69, 90
2, 290040, Note_on_c, 0, 65, 90
2, 290190, Note_on_c, 0, 65, 0
2, 290190, Note_on_c, 0, 69, 0
2, 290190, Note_on_c, 0, 70, 90
2, 290190, Note_on_c, 0, 67, 90
2, 290220, Note_on_c, 0, 67, 0
2, 290220, Note_on_c, 0, 70, 0
2, 290220, Note_on_c, 0, 69, 90
2, 290220, Note_on_c, 0, 65, 90
2, 290250, Note_on_c, 0, 65, 0
2, 290250, Note_on_c, 0, 69, 0
2, 290250, Note_on_c, 0, 67, 90
2, 290250, Note_on_c, 0, 64, 90
2, 290280, Note_on_c, 0, 64, 0
2, 290280, Note_on_c, 0, 67, 0
2, 290280, Note_on_c, 0, 65, 90
2, 290280, Note_on_c, 0, 62, 90
2, 290340, Note_on_c, 0, 65, 0
2, 290340, Note_on_c, 0, 67, 90
2, 290370, Note_on_c, 0, 67, 0
2, 290370, Note_on_c, 0, 69, 90
2, 290400, Note_on_c, 0, 69, 0
2, 290400, Note_on_c, 0, 70, 90
2, 290460, Note_on_c, 0, 70, 0
2, 290460, Note_on_c, 0, 62, 0
2, 290460, Note_on_c, 0, 74, 90
2, 290460, Note_on_c, 0, 70, 90
2, 290520, Note_on_c, 0, 74, 0
2, 290520, Note_on_c, 0, 77, 0
2, 290520, Note_on_c, 0, 73, 90
2, 290520, Note_on_c, 0, 79, 90
2, 290580, Note_on_c, 0, 73, 0
2, 290580, Note_on_c, 0, 70, 0
2, 290580, Note_on_c, 0, 76, 90
2, 290580, Note_on_c, 0, 69, 90
2, 290610, Note_on_c, 0, 69, 0
2, 290610, Note_on_c, 0, 67, 90
2, 290640, Note_on_c, 0, 67, 0
2, 290640, Note_on_c, 0, 79, 0
2, 290640, Note_on_c, 0, 77, 90
2, 290640, Note_on_c, 0, 69, 90
2, 290700, Note_on_c, 0, 69, 0
2, 290700, Note_on_c, 0, 76, 0
2, 290700, Note_on_c, 0, 74, 90
2, 290700, Note_on_c, 0, 65, 90
2, 290760, Note_on_c, 0, 65, 0
2, 290760, Note_on_c, 0, 77, 0
2, 290760, Note_on_c, 0, 76, 90
2, 290760, Note_on_c, 0, 67, 90
2, 290820, Note_on_c, 0, 67, 0
2, 290820, Note_on_c, 0, 74, 0
2, 290820, Note_on_c, 0, 73, 90
2, 290820, Note_on_c, 0, 64, 90
2, 290880, Note_on_c, 0, 64, 0
2, 290880, Note_on_c, 0, 73, 0
2, 290880, Note_on_c, 0, 76, 0
2, 290880, Note_on_c, 0, 74, 90
2, 290880, Note_on_c, 0, 74, 90
2, 290880, Note_on_c, 0, 65, 90
2, 290910, Note_on_c, 0, 74, 0
2, 290910, Note_on_c, 0, 70, 90
2, 290940, Note_on_c, 0, 70, 0
2, 290940, Note_on_c, 0, 65, 0
2, 290940, Note_on_c, 0, 69, 90
2, 290970, Note_on_c, 0, 69, 0
2, 290970, Note_on_c, 0, 67, 90
2, 291000, Note_on_c, 0, 67, 0
2, 291000, Note_on_c, 0, 65, 90
2, 291030, Note_on_c, 0, 65, 0
2, 291030, Note_on_c, 0, 69, 90
2, 291060, Note_on_c, 0, 62, 90
2, 291090, Note_on_c, 0, 69, 0
2, 291090, Note_on_c, 0, 68, 90
2, 291120, Note_on_c, 0, 68, 0
2, 291120, Note_on_c, 0, 71, 90
2, 291150, Note_on_c, 0, 74, 0
2, 291150, Note_on_c, 0, 76, 90
2, 291180, Note_on_c, 0, 76, 0
2, 291180, Note_on_c, 0, 71, 0
2, 291180, Note_on_c, 0, 74, 90
2, 291210, Note_on_c, 0, 74, 0
2, 291210, Note_on_c, 0, 73, 90
2, 291240, Note_on_c, 0, 73, 0
2, 291240, Note_on_c, 0, 74, 90
2, 291270, Note_on_c, 0, 74, 0
2, 291270, Note_on_c, 0, 76, 90
2, 291300, Note_on_c, 0, 76, 0
2, 291300, Note_on_c, 0, 77, 90
2, 291330, Note_on_c, 0, 77, 0
2, 291330, Note_on_c, 0, 76, 90
2, 291360, Note_on_c, 0, 76, 0
2, 291360, Note_on_c, 0, 62, 0
2, 291360, Note_on_c, 0, 79, 90
2, 291390, Note_on_c, 0, 79, 0
2, 291390, Note_on_c, 0, 77, 90
2, 291420, Note_on_c, 0, 77, 0
2, 291420, Note_on_c, 0, 76, 90
2, 291450, Note_on_c, 0, 76, 0
2, 291450, Note_on_c, 0, 74, 90
2, 291480, Note_on_c, 0, 74, 0
2, 291480, Note_on_c, 0, 76, 90
2, 291510, Note_on_c, 0, 76, 0
2, 291510, Note_on_c, 0, 73, 90
2, 291540, Note_on_c, 0, 73, 0
2, 291540, Note_on_c, 0, 65, 90
2, 291540, Note_on_c, 0, 74, 90
2, 291540, Note_on_c, 0, 56, 90
2, 291600, Note_on_c, 0, 56, 0
2, 291600, Note_on_c, 0, 57, 90
2, 291630, Note_on_c, 0, 65, 0
2, 291630, Note_on_c, 0, 62, 90
2, 291660, Note_on_c, 0, 62, 0
2, 291660, Note_on_c, 0, 64, 90
2, 291690, Note_on_c, 0, 64, 0
2, 291690, Note_on_c, 0, 65, 90
2, 291720, Note_on_c, 0, 65, 0
2, 291720, Note_on_c, 0, 74, 0
2, 291720, Note_on_c, 0, 73, 90
2, 291720, Note_on_c, 0, 67, 90
2, 291750, Note_on_c, 0, 67, 0
2, 291750, Note_on_c, 0, 69, 90
2, 291780, Note_on_c, 0, 69, 0
2, 291780, Note_on_c, 0, 70, 90
2, 291810, Note_on_c, 0, 70, 0
2, 291810, Note_on_c, 0, 67, 90
2, 291840, Note_on_c, 0, 67, 0
2, 291840, Note_on_c, 0, 73, 0
2, 291840, Note_on_c, 0, 57, 0
2, 291840, Note_on_c, 0, 66, 90
2, 291840, Note_on_c, 0, 74, 90
2, 291840, Note_on_c, 0, 58, 90
2, 291870, Note_on_c, 0, 66, 0
2, 291870, Note_on_c, 0, 69, 90
2, 291900, Note_on_c, 0, 69, 0
2, 291900, Note_on_c, 0, 67, 90
2, 291930, Note_on_c, 0, 67, 0
2, 291930, Note_on_c, 0, 66, 90
2, 291960, Note_on_c, 0, 66, 0
2, 291960, Note_on_c, 0, 67, 90
2, 291990, Note_on_c, 0, 58, 0
2, 291990, Note_on_c, 0, 60, 90
2, 292020, Note_on_c, 0, 60, 0
2, 292020, Note_on_c, 0, 74, 0
2, 292020, Note_on_c, 0, 74, 90
2, 292020, Note_on_c, 0, 58, 90
2, 292050, Note_on_c, 0, 58, 0
2, 292050, Note_on_c, 0, 57, 90
2, 292080, Note_on_c, 0, 57, 0
2, 292080, Note_on_c, 0, 74, 0
2, 292080, Note_on_c, 0, 73, 90
2, 292080, Note_on_c, 0, 55, 90
2, 292110, Note_on_c, 0, 55, 0
2, 292110, Note_on_c, 0, 54, 90
2, 292140, Note_on_c, 0, 54, 0
2, 292140, Note_on_c, 0, 73, 0
2, 292140, Note_on_c, 0, 67, 0
2, 292140, Note_on_c, 0, 70, 90
2, 292140, Note_on_c, 0, 72, 90
2, 292140, Note_on_c, 0, 52, 90
2, 292170, Note_on_c, 0, 52, 0
2, 292170, Note_on_c, 0, 55, 90
2, 292200, Note_on_c, 0, 55, 0
2, 292200, Note_on_c, 0, 70, 0
2, 292200, Note_on_c, 0, 69, 90
2, 292200, Note_on_c, 0, 54, 90
2, 292230, Note_on_c, 0, 72, 0
2, 292230, Note_on_c, 0, 75, 90
2, 292260, Note_on_c, 0, 75, 0
2, 292260, Note_on_c, 0, 74, 90
2, 292290, Note_on_c, 0, 74, 0
2, 292290, Note_on_c, 0, 72, 90
2, 292320, Note_on_c, 0, 72, 0
2, 292320, Note_on_c, 0, 54, 0
2, 292320, Note_on_c, 0, 69, 0
2, 292320, Note_on_c, 0, 62, 90
2, 292320, Note_on_c, 0, 70, 90
2, 292320, Note_on_c, 0, 55, 90
2, 292350, Note_on_c, 0, 70, 0
2, 292350, Note_on_c, 0, 69, 90
2, 292380, Note_on_c, 0, 69, 0
2, 292380, Note_on_c, 0, 67, 90
2, 292410, Note_on_c, 0, 67, 0
2, 292410, Note_on_c, 0, 70, 90
2, 292440, Note_on_c, 0, 62, 0
2, 292440, Note_on_c, 0, 61, 90
2, 292470, Note_on_c, 0, 70, 0
2, 292470, Note_on_c, 0, 70, 90
2, 292500, Note_on_c, 0, 70, 0
2, 292500, Note_on_c, 0, 69, 90
2, 292530, Note_on_c, 0, 69, 0
2, 292530, Note_on_c, 0, 67, 90
2, 292560, Note_on_c, 0, 67, 0
2, 292560, Note_on_c, 0, 61, 0
2, 292560, Note_on_c, 0, 55, 0
2, 292560, Note_on_c, 0, 62, 90
2, 292560, Note_on_c, 0, 66, 90
2, 292560, Note_on_c, 0, 57, 90
2, 292800, Note_on_c, 0, 57, 0
2, 292800, Note_on_c, 0, 66, 0
2, 292800, Note_on_c, 0, 62, 0
2, 297360, Note_on_c, 0, 56, 100
2, 297420, Note_on_c, 0, 56, 0
2, 297420, Note_on_c, 0, 65, 100
2, 297480, Note_on_c, 0, 65, 0
2, 297480, Note_on_c, 0, 64, 100
2, 297540, Note_on_c, 0, 64, 0
2, 297540, Note_on_c, 0, 62, 100
2, 297600, Note_on_c, 0, 62, 0
2, 297600, Note_on_c, 0, 60, 100
2, 297660, Note_on_c, 0, 60, 0
2, 297660, Note_on_c, 0, 59, 100
2, 297720, Note_on_c, 0, 59, 0
2, 297720, Note_on_c, 0, 60, 100
2, 297780, Note_on_c, 0, 60, 0
2, 297780, Note_on_c, 0, 64, 100
2, 297840, Note_on_c, 0, 64, 0
2, 297840, Note_on_c, 0, 69, 100
2, 297900, Note_on_c, 0, 69, 0
2, 297900, Note_on_c, 0, 62, 100
2, 297960, Note_on_c, 0, 62, 0
2, 297960, Note_on_c, 0, 61, 100
2, 298020, Note_on_c, 0, 61, 0
2, 298020, Note_on_c, 0, 64, 100
2, 298080, Note_on_c, 0, 64, 0
2, 298080, Note_on_c, 0, 62, 100
2, 298140, Note_on_c, 0, 62, 0
2, 298140, Note_on_c, 0, 65, 100
2, 298200, Note_on_c, 0, 65, 0
2, 298200, Note_on_c, 0, 64, 100
2, 298260, Note_on_c, 0, 64, 0
2, 298260, Note_on_c, 0, 67, 100
2, 298320, Note_on_c, 0, 67, 0
2, 298320, Note_on_c, 0, 65, 100
2, 298380, Note_on_c, 0, 65, 0
2, 298380, Note_on_c, 0, 60, 100
2, 298440, Note_on_c, 0, 60, 0
2, 298440, Note_on_c, 0, 59, 100
2, 298500, Note_on_c, 0, 59, 0
2, 298500, Note_on_c, 0, 65, 100
2, 298560, Note_on_c, 0, 65, 0
2, 298560, Note_on_c, 0, 64, 100
2, 298560, Note_on_c, 0, 72, 100
2, 298680, Note_on_c, 0, 72, 0
2, 298680, Note_on_c, 0, 64, 0
2, 298680, Note_on_c, 0, 60, 100
2, 298680, Note_on_c, 0, 77, 100
2, 298800, Note_on_c, 0, 77, 0
2, 298800, Note_on_c, 0, 60, 0
2, 298800, Note_on_c, 0, 62, 100
2, 298800, Note_on_c, 0, 71, 100
2, 298920, Note_on_c, 0, 71, 0
2, 298920, Note_on_c, 0, 62, 0
2, 298920, Note_on_c, 0, 67, 100
2, 298920, Note_on_c, 0, 70, 100
2, 299040, Note_on_c, 0, 70, 0
2, 299040, Note_on_c, 0, 67, 0
2, 299040, Note_on_c, 0, 69, 100
2, 299160, Note_on_c, 0, 69, 0
2, 299160, Note_on_c, 0, 74, 100
2, 299280, Note_on_c, 0, 74, 0
2, 299280, Note_on_c, 0, 67, 100
2, 299520, Note_on_c, 0, 67, 0
2, 299520, Note_on_c, 0, 65, 100
2, 299640, Note_on_c, 0, 65, 0
2, 299640, Note_on_c, 0, 67, 100
2, 299760, Note_on_c, 0, 67, 0
2, 299760, Note_on_c, 0, 69, 100
2, 299820, Note_on_c, 0, 69, 0
2, 299820, Note_on_c, 0, 67, 100
2, 299880, Note_on_c, 0, 67, 0
2, 299880, Note_on_c, 0, 69, 100
2, 300000, Note_on_c, 0, 69, 0
2, 300000, Note_on_c, 0, 62, 100
2, 300120, Note_on_c, 0, 62, 0
2, 300120, Note_on_c, 0, 74, 100
2, 300240, Note_on_c, 0, 74, 0
2, 300240, Note_on_c, 0, 72, 100
2, 300360, Note_on_c, 0, 72, 0
2, 300360, Note_on_c, 0, 70, 100
2, 300480, Note_on_c, 0, 70, 0
2, 300480, Note_on_c, 0, 53, 100
2, 300480, Note_on_c, 0, 69, 100
2, 300540, Note_on_c, 0, 53, 0
2, 300540, Note_on_c, 0, 72, 100
2, 300600, Note_on_c, 0, 72, 0
2, 300600, Note_on_c, 0, 69, 0
2, 300600, Note_on_c, 0, 70, 100
2, 300600, Note_on_c, 0, 77, 100
2, 300660, Note_on_c, 0, 70, 0
2, 300660, Note_on_c, 0, 69, 100
2, 300720, Note_on_c, 0, 69, 0
2, 300720, Note_on_c, 0, 77, 0
2, 300720, Note_on_c, 0, 70, 100
2, 300720, Note_on_c, 0, 76, 100
2, 300780, Note_on_c, 0, 70, 0
2, 300780, Note_on_c, 0, 67, 100
2, 300840, Note_on_c, 0, 67, 0
2, 300840, Note_on_c, 0, 76, 0
2, 300840, Note_on_c, 0, 69, 100
2, 300840, Note_on_c, 0, 74, 100
2, 300900, Note_on_c, 0, 69, 0
2, 300900, Note_on_c, 0, 65, 100
2, 300960, Note_on_c, 0, 65, 0
2, 300960, Note_on_c, 0, 74, 0
2, 300960, Note_on_c, 0, 73, 100
2, 300960, Note_on_c, 0, 64, 100
2, 301080, Note_on_c, 0, 64, 0
2, 301080, Note_on_c, 0, 70, 100
2, 301200, Note_on_c, 0, 70, 0
2, 301200, Note_on_c, 0, 73, 0
2, 301200, Note_on_c, 0, 69, 100
2, 301320, Note_on_c, 0, 69, 0
2, 301320, Note_on_c, 0, 73, 100
2, 301320, Note_on_c, 0, 67, 100
2, 301380, Note_on_c, 0, 73, 0
2, 301380, Note_on_c, 0, 74, 100
2, 301410, Note_on_c, 0, 74, 0
2, 301410, Note_on_c, 0, 76, 100
2, 301440, Note_on_c, 0, 76, 0
2, 301440, Note_on_c, 0, 67, 0
2, 301440, Note_on_c, 0, 69, 100
2, 301440, Note_on_c, 0, 65, 100
2, 301500, Note_on_c, 0, 69, 0
2, 301500, Note_on_c, 0, 74, 100
2, 301560, Note_on_c, 0, 74, 0
2, 301560, Note_on_c, 0, 65, 0
2, 301560, Note_on_c, 0, 72, 100
2, 301620, Note_on_c, 0, 72, 0
2, 301620, Note_on_c, 0, 70, 100
2, 301680, Note_on_c, 0, 70, 0
2, 301680, Note_on_c, 0, 72, 100
2, 301740, Note_on_c, 0, 72, 0
2, 301740, Note_on_c, 0, 69, 100
2, 301800, Note_on_c, 0, 69, 0
2, 301800, Note_on_c, 0, 70, 100
2, 301860, Note_on_c, 0, 70, 0
2, 301860, Note_on_c, 0, 67, 100
2, 301920, Note_on_c, 0, 67, 0
2, 301920, Note_on_c, 0, 69, 100
2, 301980, Note_on_c, 0, 67, 100
2, 302040, Note_on_c, 0, 67, 0
2, 302040, Note_on_c, 0, 65, 100
2, 302100, Note_on_c, 0, 65, 0
2, 302100, Note_on_c, 0, 64, 100
2, 302160, Note_on_c, 0, 64, 0
2, 302160, Note_on_c, 0, 65, 100
2, 302220, Note_on_c, 0, 65, 0
2, 302220, Note_on_c, 0, 62, 100
2, 302280, Note_on_c, 0, 62, 0
2, 302280, Note_on_c, 0, 64, 100
2, 302340, Note_on_c, 0, 64, 0
2, 302340, Note_on_c, 0, 61, 100
2, 302400, Note_on_c, 0, 61, 0
2, 302400, Note_on_c, 0, 62, 100
2, 302460, Note_on_c, 0, 69, 0
2, 302460, Note_on_c, 0, 69, 100
2, 302520, Note_on_c, 0, 69, 0
2, 302520, Note_on_c, 0, 67, 100
2, 302580, Note_on_c, 0, 67, 0
2, 302580, Note_on_c, 0, 65, 100
2, 302640, Note_on_c, 0, 65, 0
2, 302640, Note_on_c, 0, 67, 100
2, 302700, Note_on_c, 0, 67, 0
2, 302700, Note_on_c, 0, 64, 100
2, 302760, Note_on_c, 0, 64, 0
2, 302760, Note_on_c, 0, 65, 100
2, 302820, Note_on_c, 0, 65, 0
2, 302820, Note_on_c, 0, 74, 100
2, 302880, Note_on_c, 0, 74, 0
2, 302880, Note_on_c, 0, 67, 100
2, 302895, Note_on_c, 0, 67, 0
2, 302895, Note_on_c, 0, 65, 100
2, 302910, Note_on_c, 0, 65, 0
2, 302910, Note_on_c, 0, 67, 100
2, 302925, Note_on_c, 0, 67, 0
2, 302925, Note_on_c, 0, 65, 100
2, 302940, Note_on_c, 0, 65, 0
2, 302940, Note_on_c, 0, 67, 100
2, 302955, Note_on_c, 0, 67, 0
2, 302955, Note_on_c, 0, 65, 100
2, 303000, Note_on_c, 0, 65, 0
2, 303000, Note_on_c, 0, 62, 0
2, 303000, Note_on_c, 0, 60, 100
2, 303000, Note_on_c, 0, 64, 100
2, 303120, Note_on_c, 0, 64, 0
2, 303120, Note_on_c, 0, 60, 0
2, 303120, Note_on_c, 0, 69, 100
2, 303180, Note_on_c, 0, 73, 100
2, 303240, Note_on_c, 0, 73, 0
2, 303240, Note_on_c, 0, 74, 100
2, 303360, Note_on_c, 0, 69, 0
2, 303360, Note_on_c, 0, 67, 100
2, 303420, Note_on_c, 0, 74, 0
2, 303420, Note_on_c, 0, 71, 100
2, 303480, Note_on_c, 0, 71, 0
2, 303480, Note_on_c, 0, 67, 0
2, 303480, Note_on_c, 0, 69, 100
2, 303480, Note_on_c, 0, 72, 100
2, 303540, Note_on_c, 0, 69, 0
2, 303540, Note_on_c, 0, 67, 100
2, 303600, Note_on_c, 0, 67, 0
2, 303600, Note_on_c, 0, 72, 0
2, 303600, Note_on_c, 0, 69, 100
2, 303600, Note_on_c, 0, 66, 100
2, 303660, Note_on_c, 0, 69, 0
2, 303660, Note_on_c, 0, 72, 100
2, 303720, Note_on_c, 0, 72, 0
2, 303720, Note_on_c, 0, 66, 0
2, 303720, Note_on_c, 0, 71, 100
2, 303720, Note_on_c, 0, 65, 100
2, 303840, Note_on_c, 0, 65, 0
2, 303840, Note_on_c, 0, 64, 100
2, 303900, Note_on_c, 0, 71, 0
2, 303900, Note_on_c, 0, 68, 100
2, 303960, Note_on_c, 0, 68, 0
2, 303960, Note_on_c, 0, 64, 0
2, 303960, Note_on_c, 0, 66, 100
2, 303960, Note_on_c, 0, 69, 100
2, 304020, Note_on_c, 0, 66, 0
2, 304020, Note_on_c, 0, 64, 100
2, 304080, Note_on_c, 0, 64, 0
2, 304080, Note_on_c, 0, 69, 0
2, 304080, Note_on_c, 0, 62, 100
2, 304080, Note_on_c, 0, 65, 100
2, 304140, Note_on_c, 0, 65, 0
2, 304140, Note_on_c, 0, 69, 100
2, 304200, Note_on_c, 0, 69, 0
2, 304200, Note_on_c, 0, 67, 100
2, 304260, Note_on_c, 0, 67, 0
2, 304260, Note_on_c, 0, 71, 100
2, 304320, Note_on_c, 0, 71, 0
2, 304320, Note_on_c, 0, 62, 0
2, 304320, Note_on_c, 0, 69, 100
2, 304320, Note_on_c, 0, 60, 100
2, 304380, Note_on_c, 0, 69, 0
2, 304380, Note_on_c, 0, 72, 100
2, 304440, Note_on_c, 0, 72, 0
2, 304440, Note_on_c, 0, 60, 0
2, 304440, Note_on_c, 0, 71, 100
2, 304440, Note_on_c, 0, 62, 100
2, 304500, Note_on_c, 0, 71, 0
2, 304500, Note_on_c, 0, 74, 100
2, 304560, Note_on_c, 0, 74, 0
2, 304560, Note_on_c, 0, 62, 0
2, 304560, Note_on_c, 0, 64, 100
2, 304560, Note_on_c, 0, 72, 100
2, 304620, Note_on_c, 0, 64, 0
2, 304620, Note_on_c, 0, 62, 100
2, 304680, Note_on_c, 0, 62, 0
2, 304680, Note_on_c, 0, 64, 100
2, 304800, Note_on_c, 0, 64, 0
2, 304860, Note_on_c, 0, 72, 0
2, 304860, Note_on_c, 0, 75, 100
2, 304920, Note_on_c, 0, 75, 0
2, 304920, Note_on_c, 0, 74, 100
2, 304980, Note_on_c, 0, 74, 0
2, 304980, Note_on_c, 0, 72, 100
2, 305040, Note_on_c, 0, 72, 0
2, 305040, Note_on_c, 0, 74, 100
2, 305100, Note_on_c, 0, 74, 0
2, 305100, Note_on_c, 0, 70, 100
2, 305160, Note_on_c, 0, 70, 0
2, 305160, Note_on_c, 0, 72, 100
2, 305220, Note_on_c, 0, 72, 0
2, 305220, Note_on_c, 0, 69, 100
2, 305280, Note_on_c, 0, 69, 0
2, 305280, Note_on_c, 0, 70, 100
2, 305340, Note_on_c, 0, 69, 100
2, 305400, Note_on_c, 0, 69, 0
2, 305400, Note_on_c, 0, 67, 100
2, 305460, Note_on_c, 0, 67, 0
2, 305460, Note_on_c, 0, 66, 100
2, 305520, Note_on_c, 0, 66, 0
2, 305520, Note_on_c, 0, 67, 100
2, 305580, Note_on_c, 0, 67, 0
2, 305580, Note_on_c, 0, 64, 100
2, 305640, Note_on_c, 0, 64, 0
2, 305640, Note_on_c, 0, 65, 100
2, 305700, Note_on_c, 0, 65, 0
2, 305700, Note_on_c, 0, 62, 100
2, 305760, Note_on_c, 0, 62, 0
2, 305760, Note_on_c, 0, 64, 100
2, 305820, Note_on_c, 0, 70, 0
2, 305820, Note_on_c, 0, 74, 100
2, 305880, Note_on_c, 0, 74, 0
2, 305880, Note_on_c, 0, 64, 0
2, 305880, Note_on_c, 0, 72, 100
2, 305880, Note_on_c, 0, 65, 100
2, 305940, Note_on_c, 0, 72, 0
2, 305940, Note_on_c, 0, 70, 100
2, 306000, Note_on_c, 0, 70, 0
2, 306000, Note_on_c, 0, 65, 0
2, 306000, Note_on_c, 0, 72, 100
2, 306000, Note_on_c, 0, 67, 100
2, 306060, Note_on_c, 0, 72, 0
2, 306060, Note_on_c, 0, 69, 100
2, 306120, Note_on_c, 0, 69, 0
2, 306120, Note_on_c, 0, 67, 0
2, 306120, Note_on_c, 0, 70, 100
2, 306120, Note_on_c, 0, 64, 100
2, 306180, Note_on_c, 0, 70, 0
2, 306180, Note_on_c, 0, 67, 100
2, 306240, Note_on_c, 0, 67, 0
2, 306240, Note_on_c, 0, 64, 0
2, 306240, Note_on_c, 0, 69, 100
2, 306240, Note_on_c, 0, 65, 100
2, 306360, Note_on_c, 0, 65, 0
2, 306360, Note_on_c, 0, 69, 0
2, 306360, Note_on_c, 0, 74, 100
2, 306360, Note_on_c, 0, 69, 100
2, 306480, Note_on_c, 0, 69, 0
2, 306480, Note_on_c, 0, 74, 0
2, 306480, Note_on_c, 0, 68, 100
2, 306600, Note_on_c, 0, 68, 0
2, 306600, Note_on_c, 0, 67, 100
2, 306720, Note_on_c, 0, 67, 0
2, 306720, Note_on_c, 0, 65, 100
2, 306720, Note_on_c, 0, 57, 100
2, 306840, Note_on_c, 0, 57, 0
2, 306840, Note_on_c, 0, 65, 0
2, 306840, Note_on_c, 0, 65, 100
2, 306840, Note_on_c, 0, 70, 100
2, 306960, Note_on_c, 0, 70, 0
2, 306960, Note_on_c, 0, 65, 0
2, 306960, Note_on_c, 0, 64, 100
2, 307080, Note_on_c, 0, 64, 0
2, 307080, Note_on_c, 0, 63, 100
2, 307200, Note_on_c, 0, 63, 0
2, 307200, Note_on_c, 0, 62, 100
2, 307320, Note_on_c, 0, 62, 0
2, 307320, Note_on_c, 0, 67, 100
2, 307440, Note_on_c, 0, 67, 0
2, 307440, Note_on_c, 0, 61, 100
2, 307560, Note_on_c, 0, 61, 0
2, 307560, Note_on_c, 0, 60, 100
2, 307740, Note_on_c, 0, 60, 0
2, 307740, Note_on_c, 0, 60, 100
2, 307800, Note_on_c, 0, 60, 0
2, 307800, Note_on_c, 0, 58, 100
2, 307860, Note_on_c, 0, 58, 0
2, 307860, Note_on_c, 0, 57, 100
2, 307920, Note_on_c, 0, 57, 0
2, 307920, Note_on_c, 0, 58, 100
2, 307980, Note_on_c, 0, 58, 0
2, 307980, Note_on_c, 0, 62, 100
2, 308040, Note_on_c, 0, 62, 0
2, 308040, Note_on_c, 0, 60, 100
2, 308100, Note_on_c, 0, 60, 0
2, 308100, Note_on_c, 0, 63, 100
2, 308160, Note_on_c, 0, 63, 0
2, 308160, Note_on_c, 0, 62, 100
2, 308220, Note_on_c, 0, 62, 0
2, 308220, Note_on_c, 0, 69, 100
2, 308280, Note_on_c, 0, 69, 0
2, 308280, Note_on_c, 0, 67, 100
2, 308340, Note_on_c, 0, 67, 0
2, 308340, Note_on_c, 0, 66, 100
2, 308400, Note_on_c, 0, 66, 0
2, 308400, Note_on_c, 0, 67, 100
2, 308460, Note_on_c, 0, 67, 0
2, 308460, Note_on_c, 0, 70, 100
2, 308520, Note_on_c, 0, 70, 0
2, 308520, Note_on_c, 0, 69, 100
2, 308520, Note_on_c, 0, 60, 100
2, 308580, Note_on_c, 0, 69, 0
2, 308580, Note_on_c, 0, 72, 100
2, 308640, Note_on_c, 0, 72, 0
2, 308640, Note_on_c, 0, 60, 0
2, 308640, Note_on_c, 0, 70, 100
2, 308640, Note_on_c, 0, 62, 100
2, 308700, Note_on_c, 0, 62, 0
2, 308700, Note_on_c, 0, 65, 100
2, 308760, Note_on_c, 0, 65, 0
2, 308760, Note_on_c, 0, 64, 100
2, 308820, Note_on_c, 0, 64, 0
2, 308820, Note_on_c, 0, 62, 100
2, 308880, Note_on_c, 0, 62, 0
2, 308880, Note_on_c, 0, 61, 100
2, 308940, Note_on_c, 0, 70, 0
2, 308940, Note_on_c, 0, 67, 100
2, 309000, Note_on_c, 0, 67, 0
2, 309000, Note_on_c, 0, 61, 0
2, 309000, Note_on_c, 0, 62, 100
2, 309000, Note_on_c, 0, 69, 100
2, 309060, Note_on_c, 0, 69, 0
2, 309060, Note_on_c, 0, 65, 100
2, 309120, Note_on_c, 0, 65, 0
2, 309120, Note_on_c, 0, 62, 0
2, 309120, Note_on_c, 0, 67, 100
2, 309120, Note_on_c, 0, 64, 100
2, 309180, Note_on_c, 0, 64, 0
2, 309180, Note_on_c, 0, 62, 100
2, 309240, Note_on_c, 0, 62, 0
2, 309240, Note_on_c, 0, 61, 100
2, 309300, Note_on_c, 0, 61, 0
2, 309300, Note_on_c, 0, 59, 100
2, 309360, Note_on_c, 0, 59, 0
2, 309360, Note_on_c, 0, 67, 0
2, 309360, Note_on_c, 0, 61, 100
2, 309480, Note_on_c, 0, 61, 0
2, 309480, Note_on_c, 0, 64, 100
2, 309480, Note_on_c, 0, 73, 100
2, 309600, Note_on_c, 0, 73, 0
2, 309600, Note_on_c, 0, 64, 0
2, 309600, Note_on_c, 0, 69, 100
2, 309600, Note_on_c, 0, 74, 100
2, 309660, Note_on_c, 0, 74, 0
2, 309660, Note_on_c, 0, 67, 100
2, 309720, Note_on_c, 0, 67, 0
2, 309720, Note_on_c, 0, 69, 0
2, 309720, Note_on_c, 0, 65, 100
2, 309780, Note_on_c, 0, 65, 0
2, 309780, Note_on_c, 0, 64, 100
2, 309840, Note_on_c, 0, 64, 0
2, 309840, Note_on_c, 0, 65, 100
2, 309900, Note_on_c, 0, 65, 0
2, 309900, Note_on_c, 0, 69, 100
2, 309960, Note_on_c, 0, 69, 0
2, 309960, Note_on_c, 0, 67, 100
2, 310020, Note_on_c, 0, 67, 0
2, 310020, Note_on_c, 0, 70, 100
2, 310080, Note_on_c, 0, 70, 0
2, 310080, Note_on_c, 0, 69, 100
2, 310140, Note_on_c, 0, 69, 0
2, 310140, Note_on_c, 0, 64, 100
2, 310200, Note_on_c, 0, 64, 0
2, 310200, Note_on_c, 0, 62, 100
2, 310260, Note_on_c, 0, 62, 0
2, 310260, Note_on_c, 0, 61, 100
2, 310320, Note_on_c, 0, 61, 0
2, 310320, Note_on_c, 0, 62, 100
2, 310380, Note_on_c, 0, 62, 0
2, 310380, Note_on_c, 0, 65, 100
2, 310440, Note_on_c, 0, 65, 0
2, 310440, Note_on_c, 0, 64, 100
2, 310500, Note_on_c, 0, 64, 0
2, 310500, Note_on_c, 0, 67, 100
2, 310560, Note_on_c, 0, 67, 0
2, 310560, Note_on_c, 0, 69, 100
2, 310620, Note_on_c, 0, 69, 0
2, 310620, Note_on_c, 0, 60, 100
2, 310680, Note_on_c, 0, 60, 0
2, 310680, Note_on_c, 0, 59, 100
2, 310740, Note_on_c, 0, 59, 0
2, 310740, Note_on_c, 0, 57, 100
2, 310800, Note_on_c, 0, 57, 0
2, 310800, Note_on_c, 0, 58, 100
2, 310860, Note_on_c, 0, 58, 0
2, 310860, Note_on_c, 0, 62, 100
2, 310920, Note_on_c, 0, 62, 0
2, 310920, Note_on_c, 0, 61, 100
2, 310980, Note_on_c, 0, 61, 0
2, 310980, Note_on_c, 0, 64, 100
2, 311040, Note_on_c, 0, 64, 0
2, 311040, Note_on_c, 0, 62, 100
2, 311100, Note_on_c, 0, 62, 0
2, 311100, Note_on_c, 0, 65, 100
2, 311160, Note_on_c, 0, 65, 0
2, 311160, Note_on_c, 0, 64, 100
2, 311220, Note_on_c, 0, 64, 0
2, 311220, Note_on_c, 0, 67, 100
2, 311280, Note_on_c, 0, 67, 0
2, 311280, Note_on_c, 0, 65, 100
2, 311340, Note_on_c, 0, 65, 0
2, 311340, Note_on_c, 0, 64, 100
2, 311400, Note_on_c, 0, 64, 0
2, 311400, Note_on_c, 0, 62, 100
2, 311460, Note_on_c, 0, 62, 0
2, 311460, Note_on_c, 0, 61, 100
2, 311520, Note_on_c, 0, 61, 0
2, 311520, Note_on_c, 0, 61, 100
2, 311640, Note_on_c, 0, 61, 0
2, 311640, Note_on_c, 0, 62, 100
2, 311760, Note_on_c, 0, 62, 0
2, 311760, Note_on_c, 0, 74, 100
2, 311880, Note_on_c, 0, 70, 100
2, 312000, Note_on_c, 0, 74, 0
2, 312000, Note_on_c, 0, 72, 100
2, 312060, Note_on_c, 0, 70, 0
2, 312060, Note_on_c, 0, 68, 100
2, 312120, Note_on_c, 0, 68, 0
2, 312120, Note_on_c, 0, 72, 0
2, 312120, Note_on_c, 0, 69, 100
2, 312120, Note_on_c, 0, 77, 100
2, 312180, Note_on_c, 0, 69, 0
2, 312180, Note_on_c, 0, 69, 100
2, 312240, Note_on_c, 0, 69, 0
2, 312240, Note_on_c, 0, 77, 0
2, 312240, Note_on_c, 0, 69, 100
2, 312240, Note_on_c, 0, 71, 100
2, 312300, Note_on_c, 0, 69, 0
2, 312300, Note_on_c, 0, 66, 100
2, 312360, Note_on_c, 0, 66, 0
2, 312360, Note_on_c, 0, 71, 0
2, 312360, Note_on_c, 0, 67, 100
2, 312360, Note_on_c, 0, 70, 100
2, 312420, Note_on_c, 0, 67, 0
2, 312420, Note_on_c, 0, 67, 100
2, 312480, Note_on_c, 0, 67, 0
2, 312480, Note_on_c, 0, 70, 0
2, 312480, Note_on_c, 0, 69, 100
2, 312480, Note_on_c, 0, 67, 100
2, 312540, Note_on_c, 0, 67, 0
2, 312540, Note_on_c, 0, 64, 100
2, 312600, Note_on_c, 0, 64, 0
2, 312600, Note_on_c, 0, 69, 0
2, 312600, Note_on_c, 0, 65, 100
2, 312600, Note_on_c, 0, 74, 100
2, 312660, Note_on_c, 0, 65, 0
2, 312660, Note_on_c, 0, 65, 100
2, 312720, Note_on_c, 0, 65, 0
2, 312720, Note_on_c, 0, 74, 0
2, 312720, Note_on_c, 0, 69, 100
2, 312720, Note_on_c, 0, 65, 100
2, 312735, Note_on_c, 0, 69, 0
2, 312735, Note_on_c, 0, 67, 100
2, 312750, Note_on_c, 0, 67, 0
2, 312750, Note_on_c, 0, 69, 100
2, 312765, Note_on_c, 0, 69, 0
2, 312765, Note_on_c, 0, 67, 100
2, 312780, Note_on_c, 0, 67, 0
2, 312780, Note_on_c, 0, 65, 0
2, 312780, Note_on_c, 0, 69, 100
2, 312780, Note_on_c, 0, 64, 100
2, 312795, Note_on_c, 0, 69, 0
2, 312795, Note_on_c, 0, 67, 100
2, 312810, Note_on_c, 0, 67, 0
2, 312810, Note_on_c, 0, 69, 100
2, 312825, Note_on_c, 0, 69, 0
2, 312825, Note_on_c, 0, 67, 100
2, 312840, Note_on_c, 0, 67, 0
2, 312840, Note_on_c, 0, 64, 0
2, 312840, Note_on_c, 0, 69, 100
2, 312840, Note_on_c, 0, 62, 100
2, 312855, Note_on_c, 0, 69, 0
2, 312855, Note_on_c, 0, 67, 100
2, 312870, Note_on_c, 0, 67, 0
2, 312870, Note_on_c, 0, 69, 100
2, 312885, Note_on_c, 0, 69, 0
2, 312885, Note_on_c, 0, 67, 100
2, 312900, Note_on_c, 0, 67, 0
2, 312900, Note_on_c, 0, 62, 0
2, 312900, Note_on_c, 0, 69, 100
2, 312900, Note_on_c, 0, 61, 100
2, 312915, Note_on_c, 0, 69, 0
2, 312915, Note_on_c, 0, 67, 100
2, 312930, Note_on_c, 0, 67, 0
2, 312930, Note_on_c, 0, 65, 100
2, 312945, Note_on_c, 0, 65, 0
2, 312945, Note_on_c, 0, 67, 100
2, 312960, Note_on_c, 0, 67, 0
2, 312960, Note_on_c, 0, 61, 0
2, 312960, Note_on_c, 0, 62, 100
2, 312960, Note_on_c, 0, 65, 100
2, 313080, Note_on_c, 0, 65, 0
2, 313080, Note_on_c, 0, 67, 100
2, 313200, Note_on_c, 0, 67, 0
2, 313200, Note_on_c, 0, 69, 100
2, 313260, Note_on_c, 0, 69, 0
2, 313260, Note_on_c, 0, 67, 100
2, 313320, Note_on_c, 0, 67, 0
2, 313320, Note_on_c, 0, 62, 0
2, 313320, Note_on_c, 0, 60, 100
2, 313320, Note_on_c, 0, 69, 100
2, 313440, Note_on_c, 0, 69, 0
2, 313440, Note_on_c, 0, 62, 100
2, 313500, Note_on_c, 0, 60, 0
2, 313500, Note_on_c, 0, 60, 100
2, 313560, Note_on_c, 0, 60, 0
2, 313680, Note_on_c, 0, 62, 0
2, 313800, Note_on_c, 0, 75, 100
2, 313980, Note_on_c, 0, 75, 0
2, 313980, Note_on_c, 0, 73, 100
2, 314040, Note_on_c, 0, 73, 0
2, 314040, Note_on_c, 0, 74, 100
2, 314100, Note_on_c, 0, 74, 0
2, 314100, Note_on_c, 0, 74, 100
2, 314160, Note_on_c, 0, 74, 0
2, 314160, Note_on_c, 0, 74, 100
2, 314160, Note_on_c, 0, 67, 100
2, 314220, Note_on_c, 0, 74, 0
2, 314220, Note_on_c, 0, 71, 100
2, 314280, Note_on_c, 0, 71, 0
2, 314280, Note_on_c, 0, 72, 100
2, 314340, Note_on_c, 0, 72, 0
2, 314340, Note_on_c, 0, 72, 100
2, 314400, Note_on_c, 0, 72, 0
2, 314400, Note_on_c, 0, 67, 0
2, 314400, Note_on_c, 0, 72, 100
2, 314400, Note_on_c, 0, 65, 100
2, 314460, Note_on_c, 0, 72, 0
2, 314460, Note_on_c, 0, 69, 100
2, 314520, Note_on_c, 0, 69, 0
2, 314520, Note_on_c, 0, 65, 0
2, 314520, Note_on_c, 0, 70, 100
2, 314520, Note_on_c, 0, 64, 100
2, 314580, Note_on_c, 0, 70, 0
2, 314580, Note_on_c, 0, 70, 100
2, 314640, Note_on_c, 0, 70, 0
2, 314640, Note_on_c, 0, 64, 0
2, 314640, Note_on_c, 0, 63, 100
2, 314640, Note_on_c, 0, 70, 100
2, 314700, Note_on_c, 0, 70, 0
2, 314700, Note_on_c, 0, 69, 100
2, 314760, Note_on_c, 0, 69, 0
2, 314760, Note_on_c, 0, 67, 100
2, 314820, Note_on_c, 0, 67, 0
2, 314820, Note_on_c, 0, 66, 100
2, 314880, Note_on_c, 0, 66, 0
2, 314880, Note_on_c, 0, 67, 100
2, 314940, Note_on_c, 0, 63, 0
2, 314940, Note_on_c, 0, 62, 100
2, 315000, Note_on_c, 0, 62, 0
2, 315000, Note_on_c, 0, 60, 100
2, 315060, Note_on_c, 0, 60, 0
2, 315060, Note_on_c, 0, 58, 100
2, 315120, Note_on_c, 0, 58, 0
2, 315120, Note_on_c, 0, 57, 100
2, 315180, Note_on_c, 0, 57, 0
2, 315180, Note_on_c, 0, 58, 100
2, 315240, Note_on_c, 0, 58, 0
2, 315240, Note_on_c, 0, 67, 0
2, 315240, Note_on_c, 0, 65, 100
2, 315240, Note_on_c, 0, 55, 100
2, 315300, Note_on_c, 0, 55, 0
2, 315300, Note_on_c, 0, 57, 100
2, 315360, Note_on_c, 0, 57, 0
2, 315360, Note_on_c, 0, 59, 100
2, 315420, Note_on_c, 0, 65, 0
2, 315420, Note_on_c, 0, 67, 100
2, 315480, Note_on_c, 0, 67, 0
2, 315480, Note_on_c, 0, 59, 0
2, 315480, Note_on_c, 0, 60, 100
2, 315480, Note_on_c, 0, 65, 100
2, 315540, Note_on_c, 0, 65, 0
2, 315540, Note_on_c, 0, 63, 100
2, 315600, Note_on_c, 0, 63, 0
2, 315600, Note_on_c, 0, 62, 100
2, 315660, Note_on_c, 0, 62, 0
2, 315660, Note_on_c, 0, 64, 100
2, 315720, Note_on_c, 0, 64, 0
2, 315720, Note_on_c, 0, 60, 0
2, 315720, Note_on_c, 0, 60, 100
2, 315780, Note_on_c, 0, 60, 0
2, 315780, Note_on_c, 0, 62, 100
2, 315840, Note_on_c, 0, 62, 0
2, 315840, Note_on_c, 0, 64, 100
2, 315900, Note_on_c, 0, 64, 0
2, 315900, Note_on_c, 0, 72, 100
2, 315960, Note_on_c, 0, 72, 0
2, 315960, Note_on_c, 0, 70, 100
2, 316020, Note_on_c, 0, 70, 0
2, 316020, Note_on_c, 0, 69, 100
2, 316080, Note_on_c, 0, 69, 0
2, 316080, Note_on_c, 0, 67, 100
2, 316140, Note_on_c, 0, 67, 0
2, 316140, Note_on_c, 0, 69, 100
2, 316200, Note_on_c, 0, 69, 0
2, 316200, Note_on_c, 0, 65, 100
2, 316260, Note_on_c, 0, 65, 0
2, 316260, Note_on_c, 0, 67, 100
2, 316320, Note_on_c, 0, 67, 0
2, 316320, Note_on_c, 0, 69, 100
2, 316380, Note_on_c, 0, 69, 0
2, 316380, Note_on_c, 0, 67, 100
2, 316440, Note_on_c, 0, 67, 0
2, 316440, Note_on_c, 0, 65, 100
2, 316500, Note_on_c, 0, 65, 0
2, 316500, Note_on_c, 0, 64, 100
2, 316560, Note_on_c, 0, 64, 0
2, 316560, Note_on_c, 0, 69, 100
2, 316560, Note_on_c, 0, 62, 100
2, 316620, Note_on_c, 0, 62, 0
2, 316620, Note_on_c, 0, 64, 100
2, 316680, Note_on_c, 0, 64, 0
2, 316680, Note_on_c, 0, 60, 100
2, 316740, Note_on_c, 0, 60, 0
2, 316740, Note_on_c, 0, 62, 100
2, 316800, Note_on_c, 0, 62, 0
2, 316800, Note_on_c, 0, 69, 0
2, 316800, Note_on_c, 0, 59, 100
2, 316800, Note_on_c, 0, 67, 100
2, 316920, Note_on_c, 0, 67, 0
2, 316920, Note_on_c, 0, 59, 0
2, 316920, Note_on_c, 0, 67, 100
2, 316920, Note_on_c, 0, 72, 100
2, 317040, Note_on_c, 0, 72, 0
2, 317040, Note_on_c, 0, 67, 0
2, 317040, Note_on_c, 0, 66, 100
2, 317040, Note_on_c, 0, 69, 100
2, 317160, Note_on_c, 0, 69, 0
2, 317160, Note_on_c, 0, 66, 0
2, 317160, Note_on_c, 0, 65, 100
2, 317160, Note_on_c, 0, 70, 100
2, 317280, Note_on_c, 0, 70, 0
2, 317280, Note_on_c, 0, 65, 0
2, 317280, Note_on_c, 0, 64, 100
2, 317280, Note_on_c, 0, 68, 100
2, 317400, Note_on_c, 0, 68, 0
2, 317400, Note_on_c, 0, 64, 0
2, 317400, Note_on_c, 0, 76, 100
2, 317400, Note_on_c, 0, 69, 100
2, 317520, Note_on_c, 0, 69, 0
2, 317520, Note_on_c, 0, 76, 0
2, 317520, Note_on_c, 0, 64, 100
2, 317535, Note_on_c, 0, 64, 0
2, 317535, Note_on_c, 0, 62, 100
2, 317550, Note_on_c, 0, 62, 0
2, 317550, Note_on_c, 0, 64, 100
2, 317565, Note_on_c, 0, 64, 0
2, 317565, Note_on_c, 0, 62, 100
2, 317580, Note_on_c, 0, 62, 0
2, 317580, Note_on_c, 0, 64, 100
2, 317595, Note_on_c, 0, 64, 0
2, 317595, Note_on_c, 0, 62, 100
2, 317610, Note_on_c, 0, 62, 0
2, 317610, Note_on_c, 0, 64, 100
2, 317625, Note_on_c, 0, 64, 0
2, 317625, Note_on_c, 0, 62, 100
2, 317640, Note_on_c, 0, 62, 0
2, 317640, Note_on_c, 0, 64, 100
2, 317655, Note_on_c, 0, 64, 0
2, 317655, Note_on_c, 0, 62, 100
2, 317670, Note_on_c, 0, 62, 0
2, 317670, Note_on_c, 0, 64, 100
2, 317685, Note_on_c, 0, 64, 0
2, 317685, Note_on_c, 0, 62, 100
2, 317700, Note_on_c, 0, 62, 0
2, 317700, Note_on_c, 0, 64, 100
2, 317715, Note_on_c, 0, 64, 0
2, 317715, Note_on_c, 0, 62, 100
2, 317730, Note_on_c, 0, 62, 0
2, 317730, Note_on_c, 0, 60, 100
2, 317745, Note_on_c, 0, 60, 0
2, 317745, Note_on_c, 0, 62, 100
2, 317760, Note_on_c, 0, 62, 0
2, 317820, Note_on_c, 0, 76, 100
2, 317880, Note_on_c, 0, 76, 0
2, 317880, Note_on_c, 0, 74, 100
2, 317940, Note_on_c, 0, 74, 0
2, 317940, Note_on_c, 0, 72, 100
2, 318000, Note_on_c, 0, 72, 0
2, 318000, Note_on_c, 0, 71, 100
2, 318060, Note_on_c, 0, 71, 0
2, 318060, Note_on_c, 0, 72, 100
2, 318120, Note_on_c, 0, 72, 0
2, 318120, Note_on_c, 0, 69, 100
2, 318180, Note_on_c, 0, 69, 0
2, 318180, Note_on_c, 0, 70, 100
2, 318240, Note_on_c, 0, 70, 0
2, 318240, Note_on_c, 0, 73, 100
2, 318360, Note_on_c, 0, 73, 0
2, 318360, Note_on_c, 0, 74, 100
2, 318480, Note_on_c, 0, 74, 0
2, 318480, Note_on_c, 0, 76, 100
2, 318540, Note_on_c, 0, 76, 0
2, 318540, Note_on_c, 0, 74, 100
2, 318600, Note_on_c, 0, 74, 0
2, 318600, Note_on_c, 0, 76, 100
2, 318720, Note_on_c, 0, 76, 0
2, 318720, Note_on_c, 0, 69, 100
2, 318840, Note_on_c, 0, 69, 0
2, 318840, Note_on_c, 0, 70, 100
2, 318900, Note_on_c, 0, 70, 0
2, 318900, Note_on_c, 0, 69, 100
2, 318960, Note_on_c, 0, 69, 0
2, 318960, Note_on_c, 0, 67, 100
2, 319020, Note_on_c, 0, 67, 0
2, 319020, Note_on_c, 0, 65, 100
2, 319080, Note_on_c, 0, 65, 0
2, 319080, Note_on_c, 0, 67, 100
2, 319080, Note_on_c, 0, 60, 100
2, 319140, Note_on_c, 0, 60, 0
2, 319140, Note_on_c, 0, 58, 100
2, 319200, Note_on_c, 0, 58, 0
2, 319200, Note_on_c, 0, 57, 100
2, 319260, Note_on_c, 0, 67, 0
2, 319260, Note_on_c, 0, 60, 100
2, 319320, Note_on_c, 0, 60, 0
2, 319320, Note_on_c, 0, 62, 100
2, 319380, Note_on_c, 0, 62, 0
2, 319380, Note_on_c, 0, 64, 100
2, 319440, Note_on_c, 0, 64, 0
2, 319440, Note_on_c, 0, 57, 0
2, 319440, Note_on_c, 0, 65, 100
2, 319500, Note_on_c, 0, 65, 0
2, 319500, Note_on_c, 0, 64, 100
2, 319560, Note_on_c, 0, 64, 0
2, 319560, Note_on_c, 0, 62, 100
2, 319560, Note_on_c, 0, 67, 100
2, 319620, Note_on_c, 0, 67, 0
2, 319620, Note_on_c, 0, 65, 100
2, 319680, Note_on_c, 0, 65, 0
2, 319680, Note_on_c, 0, 64, 100
2, 319740, Note_on_c, 0, 62, 0
2, 319740, Note_on_c, 0, 55, 100
2, 319800, Note_on_c, 0, 55, 0
2, 319800, Note_on_c, 0, 57, 100
2, 319860, Note_on_c, 0, 57, 0
2, 319860, Note_on_c, 0, 58, 100
2, 319920, Note_on_c, 0, 58, 0
2, 319920, Note_on_c, 0, 64, 0
2, 319920, Note_on_c, 0, 60, 100
2, 319980, Note_on_c, 0, 60, 0
2, 319980, Note_on_c, 0, 58, 100
2, 320040, Note_on_c, 0, 58, 0
2, 320040, Note_on_c, 0, 69, 100
2, 320040, Note_on_c, 0, 62, 100
2, 320100, Note_on_c, 0, 62, 0
2, 320100, Note_on_c, 0, 60, 100
2, 320160, Note_on_c, 0, 60, 0
2, 320160, Note_on_c, 0, 58, 100
2, 320220, Note_on_c, 0, 69, 0
2, 320220, Note_on_c, 0, 62, 100
2, 320280, Note_on_c, 0, 62, 0
2, 320280, Note_on_c, 0, 64, 100
2, 320340, Note_on_c, 0, 64, 0
2, 320340, Note_on_c, 0, 65, 100
2, 320400, Note_on_c, 0, 65, 0
2, 320400, Note_on_c, 0, 58, 0
2, 320400, Note_on_c, 0, 67, 100
2, 320460, Note_on_c, 0, 67, 0
2, 320460, Note_on_c, 0, 65, 100
2, 320520, Note_on_c, 0, 65, 0
2, 320520, Note_on_c, 0, 64, 100
2, 320520, Note_on_c, 0, 69, 100
2, 320580, Note_on_c, 0, 69, 0
2, 320580, Note_on_c, 0, 67, 100
2, 320640, Note_on_c, 0, 67, 0
2, 320640, Note_on_c, 0, 65, 100
2, 320700, Note_on_c, 0, 64, 0
2, 320700, Note_on_c, 0, 61, 100
2, 320760, Note_on_c, 0, 61, 0
2, 320760, Note_on_c, 0, 62, 100
2, 320820, Note_on_c, 0, 62, 0
2, 320820, Note_on_c, 0, 64, 100
2, 320880, Note_on_c, 0, 64, 0
2, 320880, Note_on_c, 0, 65, 0
2, 320880, Note_on_c, 0, 65, 100
2, 320940, Note_on_c, 0, 65, 0
2, 320940, Note_on_c, 0, 64, 100
2, 321000, Note_on_c, 0, 64, 0
2, 321000, Note_on_c, 0, 74, 100
2, 321000, Note_on_c, 0, 67, 100
2, 321060, Note_on_c, 0, 67, 0
2, 321060, Note_on_c, 0, 65, 100
2, 321120, Note_on_c, 0, 65, 0
2, 321120, Note_on_c, 0, 64, 100
2, 321240, Note_on_c, 0, 74, 0
2, 321240, Note_on_c, 0, 72, 100
2, 321360, Note_on_c, 0, 64, 0
2, 321360, Note_on_c, 0, 62, 100
2, 321480, Note_on_c, 0, 72, 0
2, 321480, Note_on_c, 0, 70, 100
2, 321600, Note_on_c, 0, 62, 0
2, 321600, Note_on_c, 0, 60, 100
2, 321720, Note_on_c, 0, 60, 0
2, 321720, Note_on_c, 0, 70, 0
2, 321720, Note_on_c, 0, 65, 100
2, 321720, Note_on_c, 0, 69, 100
2, 321840, Note_on_c, 0, 69, 0
2, 321840, Note_on_c, 0, 67, 100
2, 321960, Note_on_c, 0, 65, 0
2, 321960, Note_on_c, 0, 64, 100
2, 322080, Note_on_c, 0, 64, 0
2, 322080, Note_on_c, 0, 67, 0
2, 322080, Note_on_c, 0, 65, 100
2, 322080, Note_on_c, 0, 65, 100
2, 322140, Note_on_c, 0, 65, 0
2, 322140, Note_on_c, 0, 72, 100
2, 322200, Note_on_c, 0, 72, 0
2, 322200, Note_on_c, 0, 74, 100
2, 322260, Note_on_c, 0, 74, 0
2, 322260, Note_on_c, 0, 76, 100
2, 322320, Note_on_c, 0, 76, 0
2, 322320, Note_on_c, 0, 65, 0
2, 322320, Note_on_c, 0, 77, 100
2, 322440, Note_on_c, 0, 74, 100
2, 322560, Note_on_c, 0, 77, 0
2, 322560, Note_on_c, 0, 76, 100
2, 322620, Note_on_c, 0, 74, 0
2, 322620, Note_on_c, 0, 71, 100
2, 322680, Note_on_c, 0, 71, 0
2, 322680, Note_on_c, 0, 76, 0
2, 322680, Note_on_c, 0, 72, 100
2, 322680, Note_on_c, 0, 81, 100
2, 322740, Note_on_c, 0, 72, 0
2, 322740, Note_on_c, 0, 72, 100
2, 322800, Note_on_c, 0, 72, 0
2, 322800, Note_on_c, 0, 81, 0
2, 322800, Note_on_c, 0, 72, 100
2, 322800, Note_on_c, 0, 74, 100
2, 322860, Note_on_c, 0, 72, 0
2, 322860, Note_on_c, 0, 69, 100
2, 322920, Note_on_c, 0, 69, 0
2, 322920, Note_on_c, 0, 74, 0
2, 322920, Note_on_c, 0, 70, 100
2, 322920, Note_on_c, 0, 73, 100
2, 322980, Note_on_c, 0, 70, 0
2, 322980, Note_on_c, 0, 70, 100
2, 323040, Note_on_c, 0, 70, 0
2, 323040, Note_on_c, 0, 73, 0
2, 323040, Note_on_c, 0, 70, 100
2, 323040, Note_on_c, 0, 72, 100
2, 323100, Note_on_c, 0, 70, 0
2, 323100, Note_on_c, 0, 68, 100
2, 323160, Note_on_c, 0, 68, 0
2, 323160, Note_on_c, 0, 72, 0
2, 323160, Note_on_c, 0, 69, 100
2, 323160, Note_on_c, 0, 77, 100
2, 323220, Note_on_c, 0, 69, 0
2, 323220, Note_on_c, 0, 69, 100
2, 323280, Note_on_c, 0, 69, 0
2, 323280, Note_on_c, 0, 77, 0
2, 323280, Note_on_c, 0, 70, 100
2, 323280, Note_on_c, 0, 69, 100
2, 323340, Note_on_c, 0, 69, 0
2, 323340, Note_on_c, 0, 67, 100
2, 323400, Note_on_c, 0, 67, 0
2, 323400, Note_on_c, 0, 65, 100
2, 323460, Note_on_c, 0, 65, 0
2, 323460, Note_on_c, 0, 64, 100
2, 323520, Note_on_c, 0, 64, 0
2, 323520, Note_on_c, 0, 70, 0
2, 323520, Note_on_c, 0, 65, 100
2, 323520, Note_on_c, 0, 69, 100
2, 323640, Note_on_c, 0, 69, 0
2, 323640, Note_on_c, 0, 70, 100
2, 323760, Note_on_c, 0, 70, 0
2, 323760, Note_on_c, 0, 72, 100
2, 323820, Note_on_c, 0, 72, 0
2, 323820, Note_on_c, 0, 70, 100
2, 323880, Note_on_c, 0, 70, 0
2, 323880, Note_on_c, 0, 65, 0
2, 323880, Note_on_c, 0, 63, 100
2, 323880, Note_on_c, 0, 72, 100
2, 324000, Note_on_c, 0, 72, 0
2, 324000, Note_on_c, 0, 65, 100
2, 324060, Note_on_c, 0, 63, 0
2, 324060, Note_on_c, 0, 62, 100
2, 324120, Note_on_c, 0, 62, 0
2, 324120, Note_on_c, 0, 65, 0
2, 324120, Note_on_c, 0, 64, 100
2, 324180, Note_on_c, 0, 64, 0
2, 324180, Note_on_c, 0, 65, 100
2, 324240, Note_on_c, 0, 65, 0
2, 324240, Note_on_c, 0, 67, 100
2, 324300, Note_on_c, 0, 67, 0
2, 324300, Note_on_c, 0, 65, 100
2, 324360, Note_on_c, 0, 65, 0
2, 324360, Note_on_c, 0, 70, 100
2, 324360, Note_on_c, 0, 67, 100
2, 324480, Note_on_c, 0, 67, 0
2, 324480, Note_on_c, 0, 60, 100
2, 324540, Note_on_c, 0, 70, 0
2, 324540, Note_on_c, 0, 69, 100
2, 324600, Note_on_c, 0, 69, 0
2, 324600, Note_on_c, 0, 60, 0
2, 324600, Note_on_c, 0, 62, 100
2, 324600, Note_on_c, 0, 71, 100
2, 324660, Note_on_c, 0, 71, 0
2, 324660, Note_on_c, 0, 62, 0
2, 324660, Note_on_c, 0, 64, 100
2, 324660, Note_on_c, 0, 72, 100
2, 324720, Note_on_c, 0, 72, 0
2, 324720, Note_on_c, 0, 64, 0
2, 324720, Note_on_c, 0, 65, 100
2, 324720, Note_on_c, 0, 74, 100
2, 324780, Note_on_c, 0, 74, 0
2, 324780, Note_on_c, 0, 65, 0
2, 324780, Note_on_c, 0, 64, 100
2, 324780, Note_on_c, 0, 72, 100
2, 324840, Note_on_c, 0, 72, 0
2, 324840, Note_on_c, 0, 64, 0
2, 324840, Note_on_c, 0, 74, 100
2, 324840, Note_on_c, 0, 65, 100
2, 324960, Note_on_c, 0, 65, 0
2, 324960, Note_on_c, 0, 74, 0
2, 324960, Note_on_c, 0, 67, 100
2, 324960, Note_on_c, 0, 64, 100
2, 325020, Note_on_c, 0, 67, 0
2, 325020, Note_on_c, 0, 71, 100
2, 325080, Note_on_c, 0, 71, 0
2, 325080, Note_on_c, 0, 64, 0
2, 325080, Note_on_c, 0, 72, 100
2, 325140, Note_on_c, 0, 72, 0
2, 325140, Note_on_c, 0, 74, 100
2, 325200, Note_on_c, 0, 74, 0
2, 325200, Note_on_c, 0, 76, 100
2, 325260, Note_on_c, 0, 76, 0
2, 325260, Note_on_c, 0, 77, 100
2, 325320, Note_on_c, 0, 77, 0
2, 325320, Note_on_c, 0, 79, 100
2, 325380, Note_on_c, 0, 79, 0
2, 325380, Note_on_c, 0, 79, 100
2, 325440, Note_on_c, 0, 79, 0
2, 325440, Note_on_c, 0, 79, 100
2, 325500, Note_on_c, 0, 79, 0
2, 325500, Note_on_c, 0, 76, 100
2, 325560, Note_on_c, 0, 76, 0
2, 325560, Note_on_c, 0, 77, 100
2, 325560, Note_on_c, 0, 69, 100
2, 325620, Note_on_c, 0, 77, 0
2, 325620, Note_on_c, 0, 77, 100
2, 325680, Note_on_c, 0, 77, 0
2, 325680, Note_on_c, 0, 69, 0
2, 325680, Note_on_c, 0, 77, 100
2, 325680, Note_on_c, 0, 70, 100
2, 325740, Note_on_c, 0, 77, 0
2, 325740, Note_on_c, 0, 74, 100
2, 325800, Note_on_c, 0, 74, 0
2, 325800, Note_on_c, 0, 70, 0
2, 325800, Note_on_c, 0, 75, 100
2, 325860, Note_on_c, 0, 75, 0
2, 325860, Note_on_c, 0, 75, 100
2, 325920, Note_on_c, 0, 75, 0
2, 325920, Note_on_c, 0, 75, 100
2, 325980, Note_on_c, 0, 75, 0
2, 325980, Note_on_c, 0, 73, 100
2, 326040, Note_on_c, 0, 73, 0
2, 326040, Note_on_c, 0, 74, 100
2, 326040, Note_on_c, 0, 65, 100
2, 326100, Note_on_c, 0, 74, 0
2, 326100, Note_on_c, 0, 74, 100
2, 326160, Note_on_c, 0, 74, 0
2, 326160, Note_on_c, 0, 65, 0
2, 326160, Note_on_c, 0, 74, 100
2, 326160, Note_on_c, 0, 67, 100
2, 326220, Note_on_c, 0, 74, 0
2, 326220, Note_on_c, 0, 72, 100
2, 326280, Note_on_c, 0, 72, 0
2, 326280, Note_on_c, 0, 67, 0
2, 326280, Note_on_c, 0, 70, 100
2, 326340, Note_on_c, 0, 70, 0
2, 326340, Note_on_c, 0, 69, 100
2, 326400, Note_on_c, 0, 69, 0
2, 326400, Note_on_c, 0, 70, 100
2, 326400, Note_on_c, 0, 53, 100
2, 326460, Note_on_c, 0, 53, 0
2, 326460, Note_on_c, 0, 70, 0
2, 326460, Note_on_c, 0, 65, 100
2, 326520, Note_on_c, 0, 65, 0
2, 326520, Note_on_c, 0, 63, 100
2, 326520, Note_on_c, 0, 70, 100
2, 326580, Note_on_c, 0, 63, 0
2, 326580, Note_on_c, 0, 62, 100
2, 326640, Note_on_c, 0, 62, 0
2, 326640, Note_on_c, 0, 60, 100
2, 326700, Note_on_c, 0, 60, 0
2, 326700, Note_on_c, 0, 62, 100
2, 326760, Note_on_c, 0, 62, 0
2, 326760, Note_on_c, 0, 70, 0
2, 326760, Note_on_c, 0, 58, 100
2, 326760, Note_on_c, 0, 69, 100
2, 326820, Note_on_c, 0, 58, 0
2, 326820, Note_on_c, 0, 60, 100
2, 326880, Note_on_c, 0, 60, 0
2, 326880, Note_on_c, 0, 69, 0
2, 326880, Note_on_c, 0, 70, 100
2, 326880, Note_on_c, 0, 62, 100
2, 326940, Note_on_c, 0, 70, 0
2, 326940, Note_on_c, 0, 77, 100
2, 327000, Note_on_c, 0, 77, 0
2, 327000, Note_on_c, 0, 62, 0
2, 327000, Note_on_c, 0, 75, 100
2, 327060, Note_on_c, 0, 75, 0
2, 327060, Note_on_c, 0, 74, 100
2, 327120, Note_on_c, 0, 74, 0
2, 327120, Note_on_c, 0, 72, 100
2, 327180, Note_on_c, 0, 72, 0
2, 327180, Note_on_c, 0, 74, 100
2, 327240, Note_on_c, 0, 74, 0
2, 327240, Note_on_c, 0, 70, 100
2, 327300, Note_on_c, 0, 70, 0
2, 327300, Note_on_c, 0, 72, 100
2, 327360, Note_on_c, 0, 72, 0
2, 327360, Note_on_c, 0, 74, 100
2, 327480, Note_on_c, 0, 74, 0
2, 327480, Note_on_c, 0, 79, 100
2, 327480, Note_on_c, 0, 70, 100
2, 327600, Note_on_c, 0, 70, 0
2, 327600, Note_on_c, 0, 69, 100
2, 327720, Note_on_c, 0, 79, 0
2, 327720, Note_on_c, 0, 78, 100
2, 327840, Note_on_c, 0, 78, 0
2, 327840, Note_on_c, 0, 69, 0
2, 327840, Note_on_c, 0, 79, 100
2, 327900, Note_on_c, 0, 79, 0
2, 327900, Note_on_c, 0, 74, 100
2, 327960, Note_on_c, 0, 74, 0
2, 327960, Note_on_c, 0, 72, 100
2, 328020, Note_on_c, 0, 72, 0
2, 328020, Note_on_c, 0, 70, 100
2, 328080, Note_on_c, 0, 70, 0
2, 328080, Note_on_c, 0, 69, 100
2, 328140, Note_on_c, 0, 69, 0
2, 328140, Note_on_c, 0, 70, 100
2, 328200, Note_on_c, 0, 70, 0
2, 328200, Note_on_c, 0, 68, 100
2, 328200, Note_on_c, 0, 65, 100
2, 328260, Note_on_c, 0, 68, 0
2, 328260, Note_on_c, 0, 69, 100
2, 328320, Note_on_c, 0, 69, 0
2, 328320, Note_on_c, 0, 65, 0
2, 328320, Note_on_c, 0, 67, 100
2, 328320, Note_on_c, 0, 70, 100
2, 328380, Note_on_c, 0, 67, 0
2, 328380, Note_on_c, 0, 62, 100
2, 328440, Note_on_c, 0, 62, 0
2, 328440, Note_on_c, 0, 67, 100
2, 328500, Note_on_c, 0, 67, 0
2, 328500, Note_on_c, 0, 67, 100
2, 328560, Note_on_c, 0, 67, 0
2, 328560, Note_on_c, 0, 70, 0
2, 328560, Note_on_c, 0, 67, 100
2, 328560, Note_on_c, 0, 69, 100
2, 328620, Note_on_c, 0, 67, 0
2, 328620, Note_on_c, 0, 64, 100
2, 328680, Note_on_c, 0, 64, 0
2, 328680, Note_on_c, 0, 65, 100
2, 328740, Note_on_c, 0, 65, 0
2, 328740, Note_on_c, 0, 65, 100
2, 328800, Note_on_c, 0, 65, 0
2, 328800, Note_on_c, 0, 69, 0
2, 328800, Note_on_c, 0, 65, 100
2, 328800, Note_on_c, 0, 74, 100
2, 328860, Note_on_c, 0, 65, 0
2, 328860, Note_on_c, 0, 62, 100
2, 328920, Note_on_c, 0, 62, 0
2, 328920, Note_on_c, 0, 74, 0
2, 328920, Note_on_c, 0, 63, 100
2, 328920, Note_on_c, 0, 67, 100
2, 328980, Note_on_c, 0, 63, 0
2, 328980, Note_on_c, 0, 63, 100
2, 329040, Note_on_c, 0, 63, 0
2, 329040, Note_on_c, 0, 67, 0
2, 329040, Note_on_c, 0, 65, 100
2, 329040, Note_on_c, 0, 63, 100
2, 329100, Note_on_c, 0, 63, 0
2, 329100, Note_on_c, 0, 61, 100
2, 329160, Note_on_c, 0, 61, 0
2, 329160, Note_on_c, 0, 62, 100
2, 329220, Note_on_c, 0, 62, 0
2, 329220, Note_on_c, 0, 62, 100
2, 329280, Note_on_c, 0, 62, 0
2, 329280, Note_on_c, 0, 65, 0
2, 329280, Note_on_c, 0, 63, 100
2, 329280, Note_on_c, 0, 62, 100
2, 329340, Note_on_c, 0, 62, 0
2, 329340, Note_on_c, 0, 59, 100
2, 329400, Note_on_c, 0, 59, 0
2, 329400, Note_on_c, 0, 60, 100
2, 329460, Note_on_c, 0, 60, 0
2, 329460, Note_on_c, 0, 60, 100
2, 329520, Note_on_c, 0, 60, 0
2, 329520, Note_on_c, 0, 63, 0
2, 329520, Note_on_c, 0, 60, 100
2, 329520, Note_on_c, 0, 62, 100
2, 329580, Note_on_c, 0, 60, 0
2, 329580, Note_on_c, 0, 58, 100
2, 329640, Note_on_c, 0, 58, 0
2, 329640, Note_on_c, 0, 62, 0
2, 329640, Note_on_c, 0, 57, 100
2, 329640, Note_on_c, 0, 64, 100
2, 329700, Note_on_c, 0, 57, 0
2, 329700, Note_on_c, 0, 55, 100
2, 329760, Note_on_c, 0, 55, 0
2, 329760, Note_on_c, 0, 64, 0
2, 329760, Note_on_c, 0, 57, 100
2, 329760, Note_on_c, 0, 61, 100
2, 329880, Note_on_c, 0, 61, 0
2, 329880, Note_on_c, 0, 62, 100
2, 330000, Note_on_c, 0, 62, 0
2, 330000, Note_on_c, 0, 57, 0
2, 330000, Note_on_c, 0, 67, 100
2, 330000, Note_on_c, 0, 59, 100
2, 330120, Note_on_c, 0, 59, 0
2, 330120, Note_on_c, 0, 61, 100
2, 330240, Note_on_c, 0, 61, 0
2, 330240, Note_on_c, 0, 62, 100
2, 330300, Note_on_c, 0, 62, 0
2, 330300, Note_on_c, 0, 67, 0
2, 330300, Note_on_c, 0, 57, 100
2, 330300, Note_on_c, 0, 64, 100
2, 330360, Note_on_c, 0, 64, 0
2, 330360, Note_on_c, 0, 57, 0
2, 330360, Note_on_c, 0, 62, 100
2, 330360, Note_on_c, 0, 65, 100
2, 330420, Note_on_c, 0, 65, 0
2, 330420, Note_on_c, 0, 65, 100
2, 330480, Note_on_c, 0, 65, 0
2, 330480, Note_on_c, 0, 64, 100
2, 330540, Note_on_c, 0, 62, 0
2, 330600, Note_on_c, 0, 64, 0
2, 330600, Note_on_c, 0, 69, 100
2, 330720, Note_on_c, 0, 69, 0
2, 330720, Note_on_c, 0, 74, 100
2, 330900, Note_on_c, 0, 74, 0
2, 330900, Note_on_c, 0, 76, 100
2, 330960, Note_on_c, 0, 76, 0
2, 330960, Note_on_c, 0, 73, 100
2, 331080, Note_on_c, 0, 73, 0
2, 331080, Note_on_c, 0, 69, 100
2, 331080, Note_on_c, 0, 74, 100
2, 331200, Note_on_c, 0, 74, 0
2, 331200, Note_on_c, 0, 69, 0
2, 331200, Note_on_c, 0, 67, 100
2, 331200, Note_on_c, 0, 71, 100
2, 331320, Note_on_c, 0, 71, 0
2, 331320, Note_on_c, 0, 67, 0
2, 331320, Note_on_c, 0, 72, 100
2, 331440, Note_on_c, 0, 72, 0
2, 331440, Note_on_c, 0, 66, 100
2, 331560, Note_on_c, 0, 66, 0
2, 331560, Note_on_c, 0, 65, 100
2, 331560, Note_on_c, 0, 70, 100
2, 331680, Note_on_c, 0, 70, 0
2, 331680, Note_on_c, 0, 65, 0
2, 331680, Note_on_c, 0, 64, 100
2, 331680, Note_on_c, 0, 68, 100
2, 331800, Note_on_c, 0, 68, 0
2, 331800, Note_on_c, 0, 64, 0
2, 331800, Note_on_c, 0, 69, 100
2, 331920, Note_on_c, 0, 69, 0
2, 331920, Note_on_c, 0, 62, 100
2, 332040, Note_on_c, 0, 62, 0
2, 332040, Note_on_c, 0, 71, 100
2, 332040, Note_on_c, 0, 74, 100
2, 332160, Note_on_c, 0, 74, 0
2, 332160, Note_on_c, 0, 72, 100
2, 332220, Note_on_c, 0, 71, 0
2, 332220, Note_on_c, 0, 68, 100
2, 332280, Note_on_c, 0, 68, 0
2, 332280, Note_on_c, 0, 72, 0
2, 332280, Note_on_c, 0, 69, 100
2, 332280, Note_on_c, 0, 77, 100
2, 332340, Note_on_c, 0, 69, 0
2, 332340, Note_on_c, 0, 69, 100
2, 332400, Note_on_c, 0, 69, 0
2, 332400, Note_on_c, 0, 77, 0
2, 332400, Note_on_c, 0, 69, 100
2, 332400, Note_on_c, 0, 71, 100
2, 332460, Note_on_c, 0, 69, 0
2, 332460, Note_on_c, 0, 66, 100
2, 332520, Note_on_c, 0, 66, 0
2, 332520, Note_on_c, 0, 71, 0
2, 332520, Note_on_c, 0, 67, 100
2, 332520, Note_on_c, 0, 70, 100
2, 332580, Note_on_c, 0, 67, 0
2, 332580, Note_on_c, 0, 67, 100
2, 332640, Note_on_c, 0, 67, 0
2, 332640, Note_on_c, 0, 70, 0
2, 332640, Note_on_c, 0, 67, 100
2, 332640, Note_on_c, 0, 69, 100
2, 332700, Note_on_c, 0, 67, 0
2, 332700, Note_on_c, 0, 64, 100
2, 332760, Note_on_c, 0, 64, 0
2, 332760, Note_on_c, 0, 69, 0
2, 332760, Note_on_c, 0, 65, 100
2, 332760, Note_on_c, 0, 74, 100
2, 332820, Note_on_c, 0, 65, 0
2, 332820, Note_on_c, 0, 65, 100
2, 332880, Note_on_c, 0, 65, 0
2, 332880, Note_on_c, 0, 74, 0
2, 332880, Note_on_c, 0, 67, 100
2, 332880, Note_on_c, 0, 65, 100
2, 332940, Note_on_c, 0, 65, 0
2, 332940, Note_on_c, 0, 63, 100
2, 333000, Note_on_c, 0, 63, 0
2, 333000, Note_on_c, 0, 62, 100
2, 333060, Note_on_c, 0, 62, 0
2, 333060, Note_on_c, 0, 60, 100
2, 333120, Note_on_c, 0, 60, 0
2, 333120, Note_on_c, 0, 67, 0
2, 333120, Note_on_c, 0, 62, 100
2, 333120, Note_on_c, 0, 66, 100
2, 333240, Note_on_c, 0, 66, 0
2, 333240, Note_on_c, 0, 67, 100
2, 333360, Note_on_c, 0, 67, 0
2, 333360, Note_on_c, 0, 62, 0
2, 333360, Note_on_c, 0, 69, 100
2, 333420, Note_on_c, 0, 69, 0
2, 333420, Note_on_c, 0, 67, 100
2, 333480, Note_on_c, 0, 67, 0
2, 333480, Note_on_c, 0, 60, 100
2, 333480, Note_on_c, 0, 69, 100
2, 333600, Note_on_c, 0, 69, 0
2, 333600, Note_on_c, 0, 62, 100
2, 333660, Note_on_c, 0, 62, 0
2, 333660, Note_on_c, 0, 64, 100
2, 333720, Note_on_c, 0, 64, 0
2, 333720, Note_on_c, 0, 60, 0
2, 333720, Note_on_c, 0, 66, 100
2, 333780, Note_on_c, 0, 66, 0
2, 333780, Note_on_c, 0, 67, 100
2, 333840, Note_on_c, 0, 67, 0
2, 333840, Note_on_c, 0, 69, 100
2, 333900, Note_on_c, 0, 69, 0
2, 333900, Note_on_c, 0, 67, 100
2, 333960, Note_on_c, 0, 67, 0
2, 333960, Note_on_c, 0, 70, 100
2, 334020, Note_on_c, 0, 70, 0
2, 334020, Note_on_c, 0, 69, 100
2, 334080, Note_on_c, 0, 69, 0
2, 334080, Note_on_c, 0, 72, 100
2, 334140, Note_on_c, 0, 72, 0
2, 334140, Note_on_c, 0, 71, 100
2, 334200, Note_on_c, 0, 71, 0
2, 334200, Note_on_c, 0, 74, 100
2, 334260, Note_on_c, 0, 74, 0
2, 334260, Note_on_c, 0, 73, 100
2, 334320, Note_on_c, 0, 73, 0
2, 334320, Note_on_c, 0, 76, 100
2, 334380, Note_on_c, 0, 76, 0
2, 334380, Note_on_c, 0, 74, 100
2, 334440, Note_on_c, 0, 74, 0
2, 334440, Note_on_c, 0, 77, 100
2, 334500, Note_on_c, 0, 77, 0
2, 334500, Note_on_c, 0, 76, 100
2, 334560, Note_on_c, 0, 76, 0
2, 334560, Note_on_c, 0, 79, 100
2, 334620, Note_on_c, 0, 79, 0
2, 334620, Note_on_c, 0, 74, 100
2, 334680, Note_on_c, 0, 74, 0
2, 334680, Note_on_c, 0, 73, 100
2, 334740, Note_on_c, 0, 73, 0
2, 334740, Note_on_c, 0, 76, 100
2, 334800, Note_on_c, 0, 76, 0
2, 334800, Note_on_c, 0, 69, 100
2, 334920, Note_on_c, 0, 69, 0
2, 334920, Note_on_c, 0, 79, 100
2, 334920, Note_on_c, 0, 73, 100
2, 335040, Note_on_c, 0, 73, 0
2, 335040, Note_on_c, 0, 79, 0
2, 335040, Note_on_c, 0, 74, 100
2, 335040, Note_on_c, 0, 77, 100
2, 335160, Note_on_c, 0, 77, 0
2, 335160, Note_on_c, 0, 74, 0
2, 335160, Note_on_c, 0, 81, 100
2, 335280, Note_on_c, 0, 81, 0
2, 335280, Note_on_c, 0, 74, 100
2, 335340, Note_on_c, 0, 74, 0
2, 335340, Note_on_c, 0, 76, 100
2, 335400, Note_on_c, 0, 76, 0
2, 335400, Note_on_c, 0, 77, 100
2, 335400, Note_on_c, 0, 72, 100
2, 335460, Note_on_c, 0, 77, 0
2, 335460, Note_on_c, 0, 77, 100
2, 335520, Note_on_c, 0, 77, 0
2, 335520, Note_on_c, 0, 72, 0
2, 335520, Note_on_c, 0, 70, 100
2, 335520, Note_on_c, 0, 77, 100
2, 335580, Note_on_c, 0, 77, 0
2, 335580, Note_on_c, 0, 70, 0
2, 335580, Note_on_c, 0, 70, 100
2, 335580, Note_on_c, 0, 75, 100
2, 335640, Note_on_c, 0, 75, 0
2, 335640, Note_on_c, 0, 70, 0
2, 335640, Note_on_c, 0, 70, 100
2, 335640, Note_on_c, 0, 76, 100
2, 335700, Note_on_c, 0, 76, 0
2, 335700, Note_on_c, 0, 70, 0
2, 335700, Note_on_c, 0, 67, 100
2, 335700, Note_on_c, 0, 76, 100
2, 335760, Note_on_c, 0, 76, 0
2, 335760, Note_on_c, 0, 67, 0
2, 335760, Note_on_c, 0, 69, 100
2, 335760, Note_on_c, 0, 76, 100
2, 335820, Note_on_c, 0, 76, 0
2, 335820, Note_on_c, 0, 69, 0
2, 335820, Note_on_c, 0, 73, 100
2, 335820, Note_on_c, 0, 69, 100
2, 335880, Note_on_c, 0, 69, 0
2, 335880, Note_on_c, 0, 73, 0
2, 335880, Note_on_c, 0, 74, 100
2, 335880, Note_on_c, 0, 69, 100
2, 335940, Note_on_c, 0, 69, 0
2, 335940, Note_on_c, 0, 74, 0
2, 335940, Note_on_c, 0, 65, 100
2, 335940, Note_on_c, 0, 74, 100
2, 336000, Note_on_c, 0, 74, 0
2, 336000, Note_on_c, 0, 65, 0
2, 336000, Note_on_c, 0, 67, 100
2, 336000, Note_on_c, 0, 74, 100
2, 336060, Note_on_c, 0, 74, 0
2, 336060, Note_on_c, 0, 67, 0
2, 336060, Note_on_c, 0, 67, 100
2, 336060, Note_on_c, 0, 71, 100
2, 336120, Note_on_c, 0, 71, 0
2, 336120, Note_on_c, 0, 67, 0
2, 336120, Note_on_c, 0, 67, 100
2, 336120, Note_on_c, 0, 72, 100
2, 336180, Note_on_c, 0, 72, 0
2, 336180, Note_on_c, 0, 67, 0
2, 336180, Note_on_c, 0, 64, 100
2, 336180, Note_on_c, 0, 72, 100
2, 336240, Note_on_c, 0, 72, 0
2, 336240, Note_on_c, 0, 64, 0
2, 336240, Note_on_c, 0, 65, 100
2, 336240, Note_on_c, 0, 72, 100
2, 336300, Note_on_c, 0, 72, 0
2, 336300, Note_on_c, 0, 69, 100
2, 336360, Note_on_c, 0, 69, 0
2, 336360, Note_on_c, 0, 65, 0
2, 336360, Note_on_c, 0, 62, 100
2, 336360, Note_on_c, 0, 70, 100
2, 336420, Note_on_c, 0, 70, 0
2, 336420, Note_on_c, 0, 62, 0
2, 336420, Note_on_c, 0, 67, 100
2, 336420, Note_on_c, 0, 70, 100
2, 336480, Note_on_c, 0, 70, 0
2, 336480, Note_on_c, 0, 67, 0
2, 336480, Note_on_c, 0, 70, 100
2, 336480, Note_on_c, 0, 64, 100
2, 336540, Note_on_c, 0, 70, 0
2, 336540, Note_on_c, 0, 67, 100
2, 336600, Note_on_c, 0, 67, 0
2, 336600, Note_on_c, 0, 64, 0
2, 336600, Note_on_c, 0, 73, 100
2, 336660, Note_on_c, 0, 73, 0
2, 336660, Note_on_c, 0, 73, 100
2, 336720, Note_on_c, 0, 73, 0
2, 336720, Note_on_c, 0, 73, 100
2, 336780, Note_on_c, 0, 73, 0
2, 336780, Note_on_c, 0, 76, 100
2, 336780, Note_on_c, 0, 67, 100
2, 336840, Note_on_c, 0, 67, 0
2, 336840, Note_on_c, 0, 76, 0
2, 336840, Note_on_c, 0, 76, 100
2, 336840, Note_on_c, 0, 67, 100
2, 336900, Note_on_c, 0, 67, 0
2, 336900, Note_on_c, 0, 76, 0
2, 336900, Note_on_c, 0, 76, 100
2, 336900, Note_on_c, 0, 67, 100
2, 336960, Note_on_c, 0, 67, 0
2, 336960, Note_on_c, 0, 76, 0
2, 336960, Note_on_c, 0, 76, 100
2, 336960, Note_on_c, 0, 67, 100
2, 337020, Note_on_c, 0, 67, 0
2, 337020, Note_on_c, 0, 76, 0
2, 337020, Note_on_c, 0, 73, 100
2, 337020, Note_on_c, 0, 64, 100
2, 337080, Note_on_c, 0, 64, 0
2, 337080, Note_on_c, 0, 73, 0
2, 337080, Note_on_c, 0, 65, 100
2, 337080, Note_on_c, 0, 74, 100
2, 337200, Note_on_c, 0, 74, 0
2, 337200, Note_on_c, 0, 65, 0
2, 337230, Note_on_c, 0, 72, 100
2, 337260, Note_on_c, 0, 72, 0
2, 337260, Note_on_c, 0, 70, 100
2, 337290, Note_on_c, 0, 70, 0
2, 337290, Note_on_c, 0, 69, 100
2, 337320, Note_on_c, 0, 69, 0
2, 337320, Note_on_c, 0, 67, 100
2, 337350, Note_on_c, 0, 67, 0
2, 337350, Note_on_c, 0, 77, 100
2, 337380, Note_on_c, 0, 77, 0
2, 337380, Note_on_c, 0, 76, 100
2, 337410, Note_on_c, 0, 76, 0
2, 337410, Note_on_c, 0, 74, 100
2, 337440, Note_on_c, 0, 74, 0
2, 337440, Note_on_c, 0, 69, 100
2, 337440, Note_on_c, 0, 73, 100
2, 337680, Note_on_c, 0, 73, 0
2, 337680, Note_on_c, 0, 69, 0
2, 337740, Note_on_c, 0, 69, 100
2, 337800, Note_on_c, 0, 69, 0
2, 337800, Note_on_c, 0, 71, 100
2, 337860, Note_on_c, 0, 71, 0
2, 337860, Note_on_c, 0, 73, 100
2, 337920, Note_on_c, 0, 73, 0
2, 337920, Note_on_c, 0, 74, 100
2, 337980, Note_on_c, 0, 74, 0
2, 337980, Note_on_c, 0, 73, 100
2, 338040, Note_on_c, 0, 73, 0
2, 338040, Note_on_c, 0, 69, 100
2, 338040, Note_on_c, 0, 76, 100
2, 338100, Note_on_c, 0, 76, 0
2, 338100, Note_on_c, 0, 74, 100
2, 338160, Note_on_c, 0, 74, 0
2, 338160, Note_on_c, 0, 69, 0
2, 338160, Note_on_c, 0, 77, 100
2, 338160, Note_on_c, 0, 62, 100
2, 338280, Note_on_c, 0, 62, 0
2, 338280, Note_on_c, 0, 77, 0
2, 338280, Note_on_c, 0, 70, 100
2, 338280, Note_on_c, 0, 64, 100
2, 338400, Note_on_c, 0, 64, 0
2, 338460, Note_on_c, 0, 70, 0
2, 338460, Note_on_c, 0, 69, 100
2, 338520, Note_on_c, 0, 69, 0
2, 338520, Note_on_c, 0, 74, 100
2, 338520, Note_on_c, 0, 65, 100
2, 338580, Note_on_c, 0, 74, 0
2, 338580, Note_on_c, 0, 72, 100
2, 338640, Note_on_c, 0, 72, 0
2, 338640, Note_on_c, 0, 65, 0
2, 338640, Note_on_c, 0, 75, 100
2, 338640, Note_on_c, 0, 67, 100
2, 338700, Note_on_c, 0, 75, 0
2, 338700, Note_on_c, 0, 74, 100
2, 338760, Note_on_c, 0, 74, 0
2, 338760, Note_on_c, 0, 67, 0
2, 338760, Note_on_c, 0, 65, 100
2, 338760, Note_on_c, 0, 69, 100
2, 338820, Note_on_c, 0, 65, 0
2, 338820, Note_on_c, 0, 72, 100
2, 338880, Note_on_c, 0, 72, 0
2, 338880, Note_on_c, 0, 69, 0
2, 338880, Note_on_c, 0, 70, 100
2, 338940, Note_on_c, 0, 70, 0
2, 338940, Note_on_c, 0, 74, 100
2, 339000, Note_on_c, 0, 74, 0
2, 339000, Note_on_c, 0, 75, 100
2, 339000, Note_on_c, 0, 70, 100
2, 339060, Note_on_c, 0, 75, 0
2, 339060, Note_on_c, 0, 79, 100
2, 339120, Note_on_c, 0, 79, 0
2, 339120, Note_on_c, 0, 70, 0
2, 339120, Note_on_c, 0, 77, 100
2, 339120, Note_on_c, 0, 69, 100
2, 339180, Note_on_c, 0, 77, 0
2, 339180, Note_on_c, 0, 74, 100
2, 339240, Note_on_c, 0, 74, 0
2, 339240, Note_on_c, 0, 69, 0
2, 339240, Note_on_c, 0, 76, 100
2, 339240, Note_on_c, 0, 67, 100
2, 339300, Note_on_c, 0, 76, 0
2, 339300, Note_on_c, 0, 73, 100
2, 339360, Note_on_c, 0, 73, 0
2, 339360, Note_on_c, 0, 67, 0
2, 339360, Note_on_c, 0, 73, 100
2, 339420, Note_on_c, 0, 73, 0
2, 339420, Note_on_c, 0, 74, 100
2, 339480, Note_on_c, 0, 74, 0
2, 339480, Note_on_c, 0, 65, 100
2, 339480, Note_on_c, 0, 62, 100
2, 339540, Note_on_c, 0, 65, 0
2, 339540, Note_on_c, 0, 64, 100
2, 339600, Note_on_c, 0, 64, 0
2, 339600, Note_on_c, 0, 62, 0
2, 339600, Note_on_c, 0, 74, 100
2, 339600, Note_on_c, 0, 65, 100
2, 339720, Note_on_c, 0, 65, 0
2, 339720, Note_on_c, 0, 74, 0
2, 339720, Note_on_c, 0, 76, 100
2, 339720, Note_on_c, 0, 67, 100
2, 339840, Note_on_c, 0, 67, 0
2, 339840, Note_on_c, 0, 76, 0
2, 339840, Note_on_c, 0, 73, 100
2, 339840, Note_on_c, 0, 69, 100
2, 339960, Note_on_c, 0, 73, 0
2, 339960, Note_on_c, 0, 74, 100
2, 340080, Note_on_c, 0, 74, 0
2, 340080, Note_on_c, 0, 69, 0
2, 340080, Note_on_c, 0, 79, 100
2, 340080, Note_on_c, 0, 71, 100
2, 340200, Note_on_c, 0, 71, 0
2, 340200, Note_on_c, 0, 73, 100
2, 340320, Note_on_c, 0, 73, 0
2, 340320, Note_on_c, 0, 74, 100
2, 340380, Note_on_c, 0, 79, 0
2, 340380, Note_on_c, 0, 76, 100
2, 340440, Note_on_c, 0, 76, 0
2, 340440, Note_on_c, 0, 74, 0
2, 340440, Note_on_c, 0, 69, 100
2, 340440, Note_on_c, 0, 77, 100
2, 340500, Note_on_c, 0, 77, 0
2, 340500, Note_on_c, 0, 77, 100
2, 340560, Note_on_c, 0, 77, 0
2, 340560, Note_on_c, 0, 77, 100
2, 340620, Note_on_c, 0, 69, 0
2, 340620, Note_on_c, 0, 65, 100
2, 340680, Note_on_c, 0, 65, 0
2, 340680, Note_on_c, 0, 67, 100
2, 340740, Note_on_c, 0, 67, 0
2, 340740, Note_on_c, 0, 67, 100
2, 340800, Note_on_c, 0, 67, 0
2, 340860, Note_on_c, 0, 77, 0
2, 340860, Note_on_c, 0, 76, 100
2, 340920, Note_on_c, 0, 76, 0
2, 340920, Note_on_c, 0, 81, 100
2, 340980, Note_on_c, 0, 81, 0
2, 340980, Note_on_c, 0, 81, 100
2, 341040, Note_on_c, 0, 81, 0
2, 341040, Note_on_c, 0, 81, 100
2, 341100, Note_on_c, 0, 77, 100
2, 341160, Note_on_c, 0, 77, 0
2, 341160, Note_on_c, 0, 81, 0
2, 341160, Note_on_c, 0, 76, 100
2, 341160, Note_on_c, 0, 80, 100
2, 341220, Note_on_c, 0, 76, 0
2, 341220, Note_on_c, 0, 74, 100
2, 341280, Note_on_c, 0, 74, 0
2, 341280, Note_on_c, 0, 80, 0
2, 341280, Note_on_c, 0, 72, 100
2, 341280, Note_on_c, 0, 81, 100
2, 341340, Note_on_c, 0, 72, 0
2, 341340, Note_on_c, 0, 71, 100
2, 341400, Note_on_c, 0, 71, 0
2, 341400, Note_on_c, 0, 81, 0
2, 341400, Note_on_c, 0, 74, 100
2, 341400, Note_on_c, 0, 69, 100
2, 341460, Note_on_c, 0, 74, 0
2, 341460, Note_on_c, 0, 71, 100
2, 341520, Note_on_c, 0, 71, 0
2, 341520, Note_on_c, 0, 72, 100
2, 341580, Note_on_c, 0, 69, 0
2, 341580, Note_on_c, 0, 69, 100
2, 341640, Note_on_c, 0, 72, 0
2, 341640, Note_on_c, 0, 71, 100
2, 341700, Note_on_c, 0, 69, 0
2, 341700, Note_on_c, 0, 67, 100
2, 341760, Note_on_c, 0, 67, 0
2, 341760, Note_on_c, 0, 71, 0
2, 341760, Note_on_c, 0, 69, 100
2, 341760, Note_on_c, 0, 69, 100
2, 341820, Note_on_c, 0, 69, 0
2, 341820, Note_on_c, 0, 64, 100
2, 341880, Note_on_c, 0, 64, 0
2, 341880, Note_on_c, 0, 69, 0
2, 341880, Note_on_c, 0, 69, 100
2, 341940, Note_on_c, 0, 69, 0
2, 341940, Note_on_c, 0, 68, 100
2, 342000, Note_on_c, 0, 68, 0
2, 342000, Note_on_c, 0, 69, 100
2, 342060, Note_on_c, 0, 69, 0
2, 342060, Note_on_c, 0, 72, 100
2, 342120, Note_on_c, 0, 72, 0
2, 342120, Note_on_c, 0, 71, 100
2, 342180, Note_on_c, 0, 71, 0
2, 342180, Note_on_c, 0, 72, 100
2, 342240, Note_on_c, 0, 72, 0
2, 342240, Note_on_c, 0, 72, 100
2, 342300, Note_on_c, 0, 72, 0
2, 342300, Note_on_c, 0, 76, 100
2, 342360, Note_on_c, 0, 76, 0
2, 342360, Note_on_c, 0, 84, 100
2, 342360, Note_on_c, 0, 69, 100
2, 342420, Note_on_c, 0, 84, 0
2, 342420, Note_on_c, 0, 81, 100
2, 342480, Note_on_c, 0, 81, 0
2, 342480, Note_on_c, 0, 69, 0
2, 342480, Note_on_c, 0, 83, 100
2, 342480, Note_on_c, 0, 74, 100
2, 342540, Note_on_c, 0, 83, 0
2, 342540, Note_on_c, 0, 80, 100
2, 342600, Note_on_c, 0, 80, 0
2, 342600, Note_on_c, 0, 74, 0
2, 342600, Note_on_c, 0, 81, 100
2, 342600, Note_on_c, 0, 72, 100
2, 342660, Note_on_c, 0, 81, 0
2, 342660, Note_on_c, 0, 78, 100
2, 342720, Note_on_c, 0, 78, 0
2, 342720, Note_on_c, 0, 72, 0
2, 342720, Note_on_c, 0, 80, 100
2, 342720, Note_on_c, 0, 71, 100
2, 342780, Note_on_c, 0, 80, 0
2, 342780, Note_on_c, 0, 76, 100
2, 342840, Note_on_c, 0, 76, 0
2, 342840, Note_on_c, 0, 71, 0
2, 342840, Note_on_c, 0, 74, 100
2, 342900, Note_on_c, 0, 74, 0
2, 342900, Note_on_c, 0, 71, 100
2, 342960, Note_on_c, 0, 71, 0
2, 342960, Note_on_c, 0, 72, 100
2, 343020, Note_on_c, 0, 72, 0
2, 343020, Note_on_c, 0, 69, 100
2, 343080, Note_on_c, 0, 69, 0
2, 343080, Note_on_c, 0, 71, 100
2, 343140, Note_on_c, 0, 71, 0
2, 343140, Note_on_c, 0, 68, 100
2, 343200, Note_on_c, 0, 68, 0
2, 343200, Note_on_c, 0, 69, 100
2, 343320, Note_on_c, 0, 76, 100
2, 343380, Note_on_c, 0, 69, 0
2, 343380, Note_on_c, 0, 67, 100
2, 343440, Note_on_c, 0, 67, 0
2, 343440, Note_on_c, 0, 76, 0
2, 343440, Note_on_c, 0, 69, 100
2, 343440, Note_on_c, 0, 66, 100
2, 343560, Note_on_c, 0, 66, 0
2, 343560, Note_on_c, 0, 69, 0
2, 343560, Note_on_c, 0, 65, 100
2, 343560, Note_on_c, 0, 71, 100
2, 343680, Note_on_c, 0, 71, 0
2, 343740, Note_on_c, 0, 65, 0
2, 343740, Note_on_c, 0, 62, 100
2, 343800, Note_on_c, 0, 62, 0
2, 343800, Note_on_c, 0, 64, 100
2, 343800, Note_on_c, 0, 72, 100
2, 343920, Note_on_c, 0, 72, 0
2, 343920, Note_on_c, 0, 64, 0
2, 343920, Note_on_c, 0, 74, 100
2, 344040, Note_on_c, 0, 74, 0
2, 344040, Note_on_c, 0, 76, 100
2, 344040, Note_on_c, 0, 69, 100
2, 344160, Note_on_c, 0, 76, 0
2, 344220, Note_on_c, 0, 69, 0
2, 344220, Note_on_c, 0, 68, 100
2, 344280, Note_on_c, 0, 68, 0
2, 344280, Note_on_c, 0, 74, 100
2, 344280, Note_on_c, 0, 77, 100
2, 344340, Note_on_c, 0, 74, 0
2, 344340, Note_on_c, 0, 68, 100
2, 344400, Note_on_c, 0, 68, 0
2, 344400, Note_on_c, 0, 77, 0
2, 344400, Note_on_c, 0, 69, 100
2, 344400, Note_on_c, 0, 76, 100
2, 344460, Note_on_c, 0, 69, 0
2, 344460, Note_on_c, 0, 72, 100
2, 344520, Note_on_c, 0, 72, 0
2, 344520, Note_on_c, 0, 76, 0
2, 344520, Note_on_c, 0, 71, 100
2, 344520, Note_on_c, 0, 74, 100
2, 344580, Note_on_c, 0, 71, 0
2, 344580, Note_on_c, 0, 65, 100
2, 344640, Note_on_c, 0, 65, 0
2, 344640, Note_on_c, 0, 74, 0
2, 344640, Note_on_c, 0, 64, 100
2, 344700, Note_on_c, 0, 64, 0
2, 344700, Note_on_c, 0, 63, 100
2, 344760, Note_on_c, 0, 63, 0
2, 344760, Note_on_c, 0, 72, 100
2, 344760, Note_on_c, 0, 64, 100
2, 344820, Note_on_c, 0, 72, 0
2, 344820, Note_on_c, 0, 71, 100
2, 344880, Note_on_c, 0, 71, 0
2, 344880, Note_on_c, 0, 64, 0
2, 344880, Note_on_c, 0, 72, 100
2, 345000, Note_on_c, 0, 72, 0
2, 345000, Note_on_c, 0, 74, 100
2, 345120, Note_on_c, 0, 74, 0
2, 345120, Note_on_c, 0, 76, 100
2, 345180, Note_on_c, 0, 64, 100
2, 345240, Note_on_c, 0, 64, 0
2, 345240, Note_on_c, 0, 68, 100
2, 345300, Note_on_c, 0, 68, 0
2, 345300, Note_on_c, 0, 71, 100
2, 345360, Note_on_c, 0, 71, 0
2, 345360, Note_on_c, 0, 69, 100
2, 345420, Note_on_c, 0, 69, 0
2, 345420, Note_on_c, 0, 66, 100
2, 345480, Note_on_c, 0, 66, 0
2, 345480, Note_on_c, 0, 67, 100
2, 345540, Note_on_c, 0, 67, 0
2, 345540, Note_on_c, 0, 64, 100
2, 345600, Note_on_c, 0, 64, 0
2, 345600, Note_on_c, 0, 65, 100
2, 345660, Note_on_c, 0, 76, 0
2, 345660, Note_on_c, 0, 69, 100
2, 345720, Note_on_c, 0, 69, 0
2, 345720, Note_on_c, 0, 65, 0
2, 345720, Note_on_c, 0, 72, 100
2, 345720, Note_on_c, 0, 66, 100
2, 345780, Note_on_c, 0, 72, 0
2, 345780, Note_on_c, 0, 75, 100
2, 345840, Note_on_c, 0, 75, 0
2, 345840, Note_on_c, 0, 66, 0
2, 345840, Note_on_c, 0, 74, 100
2, 345840, Note_on_c, 0, 67, 100
2, 345900, Note_on_c, 0, 74, 0
2, 345900, Note_on_c, 0, 70, 100
2, 345960, Note_on_c, 0, 70, 0
2, 345960, Note_on_c, 0, 72, 100
2, 346020, Note_on_c, 0, 72, 0
2, 346020, Note_on_c, 0, 67, 0
2, 346020, Note_on_c, 0, 65, 100
2, 346020, Note_on_c, 0, 69, 100
2, 346080, Note_on_c, 0, 69, 0
2, 346080, Note_on_c, 0, 65, 0
2, 346080, Note_on_c, 0, 67, 100
2, 346080, Note_on_c, 0, 70, 100
2, 346200, Note_on_c, 0, 70, 0
2, 346200, Note_on_c, 0, 67, 0
2, 346260, Note_on_c, 0, 74, 100
2, 346260, Note_on_c, 0, 79, 100
2, 346320, Note_on_c, 0, 79, 0
2, 346320, Note_on_c, 0, 74, 0
2, 346320, Note_on_c, 0, 72, 100
2, 346320, Note_on_c, 0, 78, 100
2, 346380, Note_on_c, 0, 72, 0
2, 346380, Note_on_c, 0, 69, 100
2, 346440, Note_on_c, 0, 69, 0
2, 346440, Note_on_c, 0, 78, 0
2, 346440, Note_on_c, 0, 74, 100
2, 346440, Note_on_c, 0, 77, 100
2, 346500, Note_on_c, 0, 74, 0
2, 346500, Note_on_c, 0, 68, 100
2, 346560, Note_on_c, 0, 68, 0
2, 346560, Note_on_c, 0, 77, 0
2, 346560, Note_on_c, 0, 67, 100
2, 346620, Note_on_c, 0, 75, 100
2, 346680, Note_on_c, 0, 75, 0
2, 346680, Note_on_c, 0, 67, 0
2, 346680, Note_on_c, 0, 74, 100
2, 346680, Note_on_c, 0, 68, 100
2, 346740, Note_on_c, 0, 74, 0
2, 346740, Note_on_c, 0, 72, 100
2, 346800, Note_on_c, 0, 72, 0
2, 346800, Note_on_c, 0, 74, 100
2, 346860, Note_on_c, 0, 68, 0
2, 346860, Note_on_c, 0, 67, 100
2, 346920, Note_on_c, 0, 67, 0
2, 346920, Note_on_c, 0, 74, 0
2, 346920, Note_on_c, 0, 66, 100
2, 346920, Note_on_c, 0, 75, 100
2, 346980, Note_on_c, 0, 66, 0
2, 346980, Note_on_c, 0, 67, 100
2, 347040, Note_on_c, 0, 67, 0
2, 347040, Note_on_c, 0, 69, 100
2, 347100, Note_on_c, 0, 75, 0
2, 347100, Note_on_c, 0, 74, 100
2, 347160, Note_on_c, 0, 74, 0
2, 347160, Note_on_c, 0, 69, 0
2, 347160, Note_on_c, 0, 73, 100
2, 347160, Note_on_c, 0, 70, 100
2, 347220, Note_on_c, 0, 73, 0
2, 347220, Note_on_c, 0, 74, 100
2, 347280, Note_on_c, 0, 74, 0
2, 347280, Note_on_c, 0, 70, 0
2, 347280, Note_on_c, 0, 76, 100
2, 347340, Note_on_c, 0, 76, 0
2, 347340, Note_on_c, 0, 78, 100
2, 347400, Note_on_c, 0, 78, 0
2, 347400, Note_on_c, 0, 79, 100
2, 347400, Note_on_c, 0, 70, 100
2, 347460, Note_on_c, 0, 79, 0
2, 347460, Note_on_c, 0, 79, 100
2, 347520, Note_on_c, 0, 79, 0
2, 347520, Note_on_c, 0, 70, 0
2, 347520, Note_on_c, 0, 79, 100
2, 347520, Note_on_c, 0, 69, 100
2, 347580, Note_on_c, 0, 79, 0
2, 347580, Note_on_c, 0, 76, 100
2, 347640, Note_on_c, 0, 76, 0
2, 347640, Note_on_c, 0, 69, 0
2, 347640, Note_on_c, 0, 77, 100
2, 347640, Note_on_c, 0, 74, 100
2, 347700, Note_on_c, 0, 77, 0
2, 347700, Note_on_c, 0, 77, 100
2, 347760, Note_on_c, 0, 77, 0
2, 347760, Note_on_c, 0, 74, 0
2, 347760, Note_on_c, 0, 77, 100
2, 347760, Note_on_c, 0, 68, 100
2, 347820, Note_on_c, 0, 77, 0
2, 347820, Note_on_c, 0, 74, 100
2, 347880, Note_on_c, 0, 74, 0
2, 347880, Note_on_c, 0, 68, 0
2, 347880, Note_on_c, 0, 75, 100
2, 347880, Note_on_c, 0, 67, 100
2, 347940, Note_on_c, 0, 75, 0
2, 347940, Note_on_c, 0, 75, 100
2, 348000, Note_on_c, 0, 75, 0
2, 348000, Note_on_c, 0, 67, 0
2, 348000, Note_on_c, 0, 75, 100
2, 348000, Note_on_c, 0, 66, 100
2, 348060, Note_on_c, 0, 75, 0
2, 348060, Note_on_c, 0, 73, 100
2, 348120, Note_on_c, 0, 73, 0
2, 348120, Note_on_c, 0, 66, 0
2, 348120, Note_on_c, 0, 74, 100
2, 348120, Note_on_c, 0, 70, 100
2, 348180, Note_on_c, 0, 74, 0
2, 348180, Note_on_c, 0, 74, 100
2, 348240, Note_on_c, 0, 74, 0
2, 348240, Note_on_c, 0, 70, 0
2, 348240, Note_on_c, 0, 74, 100
2, 348240, Note_on_c, 0, 64, 100
2, 348300, Note_on_c, 0, 74, 0
2, 348300, Note_on_c, 0, 71, 100
2, 348360, Note_on_c, 0, 71, 0
2, 348360, Note_on_c, 0, 64, 0
2, 348360, Note_on_c, 0, 72, 100
2, 348360, Note_on_c, 0, 63, 100
2, 348420, Note_on_c, 0, 72, 0
2, 348420, Note_on_c, 0, 72, 100
2, 348480, Note_on_c, 0, 72, 0
2, 348480, Note_on_c, 0, 63, 0
2, 348480, Note_on_c, 0, 72, 100
2, 348480, Note_on_c, 0, 62, 100
2, 348540, Note_on_c, 0, 72, 0
2, 348540, Note_on_c, 0, 69, 100
2, 348600, Note_on_c, 0, 69, 0
2, 348600, Note_on_c, 0, 62, 0
2, 348600, Note_on_c, 0, 70, 100
2, 348600, Note_on_c, 0, 67, 100
2, 348660, Note_on_c, 0, 70, 0
2, 348660, Note_on_c, 0, 70, 100
2, 348720, Note_on_c, 0, 70, 0
2, 348720, Note_on_c, 0, 67, 0
2, 348720, Note_on_c, 0, 70, 100
2, 348720, Note_on_c, 0, 61, 100
2, 348780, Note_on_c, 0, 70, 0
2, 348780, Note_on_c, 0, 67, 100
2, 348840, Note_on_c, 0, 67, 0
2, 348840, Note_on_c, 0, 61, 0
2, 348840, Note_on_c, 0, 68, 100
2, 348840, Note_on_c, 0, 60, 100
2, 348900, Note_on_c, 0, 68, 0
2, 348900, Note_on_c, 0, 68, 100
2, 348960, Note_on_c, 0, 68, 0
2, 348960, Note_on_c, 0, 60, 0
2, 348960, Note_on_c, 0, 68, 100
2, 348960, Note_on_c, 0, 59, 100
2, 349020, Note_on_c, 0, 68, 0
2, 349020, Note_on_c, 0, 66, 100
2, 349080, Note_on_c, 0, 66, 0
2, 349080, Note_on_c, 0, 59, 0
2, 349080, Note_on_c, 0, 67, 100
2, 349080, Note_on_c, 0, 58, 100
2, 349200, Note_on_c, 0, 58, 0
2, 349200, Note_on_c, 0, 57, 100
2, 349320, Note_on_c, 0, 67, 0
2, 349320, Note_on_c, 0, 65, 100
2, 349440, Note_on_c, 0, 65, 0
2, 349440, Note_on_c, 0, 57, 0
2, 349440, Note_on_c, 0, 55, 100
2, 349440, Note_on_c, 0, 67, 100
2, 349560, Note_on_c, 0, 55, 0
2, 349560, Note_on_c, 0, 62, 100
2, 349620, Note_on_c, 0, 62, 0
2, 349620, Note_on_c, 0, 62, 100
2, 349680, Note_on_c, 0, 62, 0
2, 349680, Note_on_c, 0, 67, 0
2, 349680, Note_on_c, 0, 66, 100
2, 349680, Note_on_c, 0, 62, 100
2, 349740, Note_on_c, 0, 62, 0
2, 349740, Note_on_c, 0, 66, 0
2, 349740, Note_on_c, 0, 67, 100
2, 349740, Note_on_c, 0, 58, 100
2, 349800, Note_on_c, 0, 58, 0
2, 349800, Note_on_c, 0, 67, 0
2, 349800, Note_on_c, 0, 60, 100
2, 349800, Note_on_c, 0, 69, 100
2, 349860, Note_on_c, 0, 60, 0
2, 349860, Note_on_c, 0, 60, 100
2, 349920, Note_on_c, 0, 60, 0
2, 349920, Note_on_c, 0, 60, 100
2, 349980, Note_on_c, 0, 60, 0
2, 349980, Note_on_c, 0, 57, 100
2, 350040, Note_on_c, 0, 57, 0
2, 350040, Note_on_c, 0, 69, 0
2, 350040, Note_on_c, 0, 67, 100
2, 350040, Note_on_c, 0, 58, 100
2, 350100, Note_on_c, 0, 58, 0
2, 350100, Note_on_c, 0, 67, 0
2, 350100, Note_on_c, 0, 67, 100
2, 350100, Note_on_c, 0, 58, 100
2, 350160, Note_on_c, 0, 58, 0
2, 350160, Note_on_c, 0, 67, 0
2, 350160, Note_on_c, 0, 67, 100
2, 350160, Note_on_c, 0, 57, 100
2, 350220, Note_on_c, 0, 67, 0
2, 350220, Note_on_c, 0, 64, 100
2, 350280, Note_on_c, 0, 64, 0
2, 350280, Note_on_c, 0, 57, 0
2, 350280, Note_on_c, 0, 62, 100
2, 350280, Note_on_c, 0, 65, 100
2, 350340, Note_on_c, 0, 65, 0
2, 350340, Note_on_c, 0, 62, 0
2, 350340, Note_on_c, 0, 62, 100
2, 350340, Note_on_c, 0, 65, 100
2, 350400, Note_on_c, 0, 65, 0
2, 350400, Note_on_c, 0, 62, 0
2, 350400, Note_on_c, 0, 62, 100
2, 350400, Note_on_c, 0, 63, 100
2, 350460, Note_on_c, 0, 62, 0
2, 350460, Note_on_c, 0, 59, 100
2, 350520, Note_on_c, 0, 59, 0
2, 350520, Note_on_c, 0, 63, 0
2, 350520, Note_on_c, 0, 69, 100
2, 350520, Note_on_c, 0, 60, 100
2, 350580, Note_on_c, 0, 60, 0
2, 350580, Note_on_c, 0, 69, 0
2, 350580, Note_on_c, 0, 69, 100
2, 350580, Note_on_c, 0, 60, 100
2, 350640, Note_on_c, 0, 60, 0
2, 350640, Note_on_c, 0, 69, 0
2, 350640, Note_on_c, 0, 69, 100
2, 350640, Note_on_c, 0, 58, 100
2, 350700, Note_on_c, 0, 69, 0
2, 350700, Note_on_c, 0, 67, 100
2, 350760, Note_on_c, 0, 67, 0
2, 350760, Note_on_c, 0, 58, 0
2, 350760, Note_on_c, 0, 67, 100
2, 350760, Note_on_c, 0, 70, 100
2, 350820, Note_on_c, 0, 70, 0
2, 350820, Note_on_c, 0, 67, 0
2, 350820, Note_on_c, 0, 67, 100
2, 350820, Note_on_c, 0, 70, 100
2, 350880, Note_on_c, 0, 70, 0
2, 350880, Note_on_c, 0, 67, 0
2, 350880, Note_on_c, 0, 67, 100
2, 350880, Note_on_c, 0, 69, 100
2, 350940, Note_on_c, 0, 67, 0
2, 350940, Note_on_c, 0, 64, 100
2, 351000, Note_on_c, 0, 64, 0
2, 351000, Note_on_c, 0, 69, 0
2, 351000, Note_on_c, 0, 74, 100
2, 351000, Note_on_c, 0, 65, 100
2, 351060, Note_on_c, 0, 65, 0
2, 351060, Note_on_c, 0, 74, 0
2, 351060, Note_on_c, 0, 74, 100
2, 351060, Note_on_c, 0, 65, 100
2, 351120, Note_on_c, 0, 65, 0
2, 351120, Note_on_c, 0, 74, 0
2, 351120, Note_on_c, 0, 74, 100
2, 351120, Note_on_c, 0, 64, 100
2, 351180, Note_on_c, 0, 74, 0
2, 351180, Note_on_c, 0, 71, 100
2, 351240, Note_on_c, 0, 71, 0
2, 351240, Note_on_c, 0, 64, 0
2, 351240, Note_on_c, 0, 69, 100
2, 351240, Note_on_c, 0, 72, 100
2, 351300, Note_on_c, 0, 72, 0
2, 351300, Note_on_c, 0, 69, 0
2, 351300, Note_on_c, 0, 69, 100
2, 351300, Note_on_c, 0, 72, 100
2, 351360, Note_on_c, 0, 72, 0
2, 351360, Note_on_c, 0, 69, 0
2, 351360, Note_on_c, 0, 69, 100
2, 351360, Note_on_c, 0, 71, 100
2, 351420, Note_on_c, 0, 69, 0
2, 351420, Note_on_c, 0, 68, 100
2, 351480, Note_on_c, 0, 68, 0
2, 351480, Note_on_c, 0, 71, 0
2, 351480, Note_on_c, 0, 71, 100
2, 351480, Note_on_c, 0, 76, 100
2, 351540, Note_on_c, 0, 71, 0
2, 351540, Note_on_c, 0, 69, 100
2, 351600, Note_on_c, 0, 69, 0
2, 351600, Note_on_c, 0, 76, 0
2, 351600, Note_on_c, 0, 72, 100
2, 351600, Note_on_c, 0, 78, 100
2, 351660, Note_on_c, 0, 72, 0
2, 351660, Note_on_c, 0, 71, 100
2, 351720, Note_on_c, 0, 71, 0
2, 351720, Note_on_c, 0, 78, 0
2, 351720, Note_on_c, 0, 74, 100
2, 351720, Note_on_c, 0, 80, 100
2, 351780, Note_on_c, 0, 74, 0
2, 351780, Note_on_c, 0, 72, 100
2, 351840, Note_on_c, 0, 72, 0
2, 351840, Note_on_c, 0, 80, 0
2, 351840, Note_on_c, 0, 76, 100
2, 351840, Note_on_c, 0, 81, 100
2, 351900, Note_on_c, 0, 76, 0
2, 351900, Note_on_c, 0, 74, 100
2, 351960, Note_on_c, 0, 74, 0
2, 351960, Note_on_c, 0, 81, 0
2, 351960, Note_on_c, 0, 77, 100
2, 351960, Note_on_c, 0, 82, 100
2, 352020, Note_on_c, 0, 77, 0
2, 352020, Note_on_c, 0, 76, 100
2, 352080, Note_on_c, 0, 76, 0
2, 352080, Note_on_c, 0, 82, 0
2, 352080, Note_on_c, 0, 74, 100
2, 352080, Note_on_c, 0, 76, 100
2, 352140, Note_on_c, 0, 74, 0
2, 352140, Note_on_c, 0, 72, 100
2, 352200, Note_on_c, 0, 72, 0
2, 352200, Note_on_c, 0, 76, 0
2, 352200, Note_on_c, 0, 71, 100
2, 352200, Note_on_c, 0, 80, 100
2, 352260, Note_on_c, 0, 71, 0
2, 352260, Note_on_c, 0, 74, 100
2, 352320, Note_on_c, 0, 74, 0
2, 352320, Note_on_c, 0, 80, 0
2, 352320, Note_on_c, 0, 69, 100
2, 352320, Note_on_c, 0, 81, 100
2, 352560, Note_on_c, 0, 81, 0
2, 352560, Note_on_c, 0, 69, 0
2, 352920, Note_on_c, 0, 81, 100
2, 352980, Note_on_c, 0, 81, 0
2, 352980, Note_on_c, 0, 81, 100
2, 353040, Note_on_c, 0, 81, 0
2, 353040, Note_on_c, 0, 81, 100
2, 353100, Note_on_c, 0, 81, 0
2, 353100, Note_on_c, 0, 77, 100
2, 353160, Note_on_c, 0, 77, 0
2, 353160, Note_on_c, 0, 79, 100
2, 353220, Note_on_c, 0, 79, 0
2, 353220, Note_on_c, 0, 79, 100
2, 353280, Note_on_c, 0, 79, 0
2, 353280, Note_on_c, 0, 79, 100
2, 353340, Note_on_c, 0, 79, 0
2, 353340, Note_on_c, 0, 76, 100
2, 353400, Note_on_c, 0, 76, 0
2, 353400, Note_on_c, 0, 77, 100
2, 353460, Note_on_c, 0, 77, 0
2, 353460, Note_on_c, 0, 77, 100
2, 353520, Note_on_c, 0, 77, 0
2, 353520, Note_on_c, 0, 77, 100
2, 353580, Note_on_c, 0, 77, 0
2, 353580, Note_on_c, 0, 76, 100
2, 353640, Note_on_c, 0, 76, 0
2, 353640, Note_on_c, 0, 74, 100
2, 353700, Note_on_c, 0, 74, 0
2, 353700, Note_on_c, 0, 73, 100
2, 353760, Note_on_c, 0, 73, 0
2, 353760, Note_on_c, 0, 74, 100
2, 353820, Note_on_c, 0, 74, 0
2, 353820, Note_on_c, 0, 77, 100
2, 353880, Note_on_c, 0, 77, 0
2, 353880, Note_on_c, 0, 76, 100
2, 353940, Note_on_c, 0, 76, 0
2, 353940, Note_on_c, 0, 74, 100
2, 354000, Note_on_c, 0, 74, 0
2, 354000, Note_on_c, 0, 73, 100
2, 354060, Note_on_c, 0, 73, 0
2, 354060, Note_on_c, 0, 74, 100
2, 354120, Note_on_c, 0, 74, 0
2, 354120, Note_on_c, 0, 71, 100
2, 354180, Note_on_c, 0, 71, 0
2, 354180, Note_on_c, 0, 72, 100
2, 354240, Note_on_c, 0, 72, 0
2, 354240, Note_on_c, 0, 74, 100
2, 354300, Note_on_c, 0, 74, 0
2, 354300, Note_on_c, 0, 69, 100
2, 354360, Note_on_c, 0, 69, 0
2, 354360, Note_on_c, 0, 70, 100
2, 354420, Note_on_c, 0, 70, 0
2, 354420, Note_on_c, 0, 67, 100
2, 354480, Note_on_c, 0, 67, 0
2, 354480, Note_on_c, 0, 64, 100
2, 354600, Note_on_c, 0, 64, 0
2, 354600, Note_on_c, 0, 67, 100
2, 354780, Note_on_c, 0, 67, 0
2, 354780, Note_on_c, 0, 67, 100
2, 354840, Note_on_c, 0, 67, 0
2, 354840, Note_on_c, 0, 65, 100
2, 354900, Note_on_c, 0, 65, 0
2, 354900, Note_on_c, 0, 64, 100
2, 354960, Note_on_c, 0, 64, 0
2, 354960, Note_on_c, 0, 66, 100
2, 355020, Note_on_c, 0, 66, 0
2, 355020, Note_on_c, 0, 74, 100
2, 355080, Note_on_c, 0, 74, 0
2, 355080, Note_on_c, 0, 68, 100
2, 355140, Note_on_c, 0, 68, 0
2, 355140, Note_on_c, 0, 71, 100
2, 355260, Note_on_c, 0, 71, 0
2, 355260, Note_on_c, 0, 71, 100
2, 355320, Note_on_c, 0, 71, 0
2, 355320, Note_on_c, 0, 69, 100
2, 355320, Note_on_c, 0, 65, 100
2, 355380, Note_on_c, 0, 69, 0
2, 355380, Note_on_c, 0, 68, 100
2, 355440, Note_on_c, 0, 68, 0
2, 355440, Note_on_c, 0, 65, 0
2, 355440, Note_on_c, 0, 69, 100
2, 355440, Note_on_c, 0, 64, 100
2, 355500, Note_on_c, 0, 69, 0
2, 355500, Note_on_c, 0, 77, 100
2, 355560, Note_on_c, 0, 77, 0
2, 355560, Note_on_c, 0, 64, 0
2, 355560, Note_on_c, 0, 70, 100
2, 355560, Note_on_c, 0, 62, 100
2, 355620, Note_on_c, 0, 70, 0
2, 355620, Note_on_c, 0, 74, 100
2, 355680, Note_on_c, 0, 62, 0
2, 355680, Note_on_c, 0, 64, 100
2, 355740, Note_on_c, 0, 74, 0
2, 355740, Note_on_c, 0, 74, 100
2, 355800, Note_on_c, 0, 74, 0
2, 355800, Note_on_c, 0, 64, 0
2, 355800, Note_on_c, 0, 72, 100
2, 355800, Note_on_c, 0, 69, 100
2, 355860, Note_on_c, 0, 72, 0
2, 355860, Note_on_c, 0, 71, 100
2, 355920, Note_on_c, 0, 71, 0
2, 355920, Note_on_c, 0, 69, 0
2, 355920, Note_on_c, 0, 73, 100
2, 355920, Note_on_c, 0, 67, 100
2, 355980, Note_on_c, 0, 73, 0
2, 355980, Note_on_c, 0, 81, 100
2, 356040, Note_on_c, 0, 81, 0
2, 356040, Note_on_c, 0, 67, 0
2, 356040, Note_on_c, 0, 74, 100
2, 356040, Note_on_c, 0, 65, 100
2, 356100, Note_on_c, 0, 74, 0
2, 356100, Note_on_c, 0, 77, 100
2, 356160, Note_on_c, 0, 77, 0
2, 356160, Note_on_c, 0, 71, 100
2, 356220, Note_on_c, 0, 65, 0
2, 356280, Note_on_c, 0, 71, 0
2, 356280, Note_on_c, 0, 76, 100
2, 356400, Note_on_c, 0, 76, 0
2, 356400, Note_on_c, 0, 81, 100
2, 356520, Note_on_c, 0, 81, 0
2, 356520, Note_on_c, 0, 69, 100
2, 356640, Note_on_c, 0, 69, 0
2, 356640, Note_on_c, 0, 67, 100
2, 356760, Note_on_c, 0, 67, 0
2, 356760, Note_on_c, 0, 72, 100
2, 356880, Note_on_c, 0, 72, 0
2, 356880, Note_on_c, 0, 77, 100
2, 357000, Note_on_c, 0, 77, 0
2, 357000, Note_on_c, 0, 65, 100
2, 357120, Note_on_c, 0, 65, 0
2, 357120, Note_on_c, 0, 64, 100
2, 357180, Note_on_c, 0, 64, 0
2, 357180, Note_on_c, 0, 76, 100
2, 357240, Note_on_c, 0, 76, 0
2, 357240, Note_on_c, 0, 74, 100
2, 357300, Note_on_c, 0, 74, 0
2, 357300, Note_on_c, 0, 72, 100
2, 357360, Note_on_c, 0, 72, 0
2, 357360, Note_on_c, 0, 71, 100
2, 357420, Note_on_c, 0, 71, 0
2, 357420, Note_on_c, 0, 72, 100
2, 357480, Note_on_c, 0, 72, 0
2, 357480, Note_on_c, 0, 69, 100
2, 357540, Note_on_c, 0, 69, 0
2, 357540, Note_on_c, 0, 71, 100
2, 357600, Note_on_c, 0, 71, 0
2, 357600, Note_on_c, 0, 72, 100
2, 357660, Note_on_c, 0, 72, 0
2, 357660, Note_on_c, 0, 76, 100
2, 357720, Note_on_c, 0, 76, 0
2, 357720, Note_on_c, 0, 74, 100
2, 357780, Note_on_c, 0, 74, 0
2, 357780, Note_on_c, 0, 77, 100
2, 357840, Note_on_c, 0, 77, 0
2, 357840, Note_on_c, 0, 76, 100
2, 357960, Note_on_c, 0, 76, 0
2, 357960, Note_on_c, 0, 74, 100
2, 358080, Note_on_c, 0, 57, 100
2, 358140, Note_on_c, 0, 57, 0
2, 358140, Note_on_c, 0, 64, 100
2, 358200, Note_on_c, 0, 64, 0
2, 358200, Note_on_c, 0, 74, 0
2, 358200, Note_on_c, 0, 72, 100
2, 358320, Note_on_c, 0, 72, 0
2, 358320, Note_on_c, 0, 71, 100
2, 358440, Note_on_c, 0, 71, 0
2, 358440, Note_on_c, 0, 67, 100
2, 358440, Note_on_c, 0, 73, 100
2, 358560, Note_on_c, 0, 73, 0
2, 358560, Note_on_c, 0, 74, 100
2, 358620, Note_on_c, 0, 74, 0
2, 358620, Note_on_c, 0, 67, 0
2, 358620, Note_on_c, 0, 65, 100
2, 358620, Note_on_c, 0, 69, 100
2, 358680, Note_on_c, 0, 69, 0
2, 358680, Note_on_c, 0, 65, 0
2, 358680, Note_on_c, 0, 64, 100
2, 358680, Note_on_c, 0, 67, 100
2, 358740, Note_on_c, 0, 67, 0
2, 358740, Note_on_c, 0, 64, 0
2, 358740, Note_on_c, 0, 62, 100
2, 358740, Note_on_c, 0, 65, 100
2, 358800, Note_on_c, 0, 65, 0
2, 358800, Note_on_c, 0, 62, 0
2, 358800, Note_on_c, 0, 61, 100
2, 358800, Note_on_c, 0, 64, 100
2, 358860, Note_on_c, 0, 64, 0
2, 358860, Note_on_c, 0, 61, 0
2, 358860, Note_on_c, 0, 62, 100
2, 358920, Note_on_c, 0, 62, 0
2, 358920, Note_on_c, 0, 59, 100
2, 358920, Note_on_c, 0, 64, 100
2, 358980, Note_on_c, 0, 59, 0
2, 358980, Note_on_c, 0, 60, 100
2, 359040, Note_on_c, 0, 60, 0
2, 359040, Note_on_c, 0, 64, 0
2, 359040, Note_on_c, 0, 62, 100
2, 359100, Note_on_c, 0, 64, 100
2, 359160, Note_on_c, 0, 64, 0
2, 359160, Note_on_c, 0, 62, 0
2, 359160, Note_on_c, 0, 65, 100
2, 359220, Note_on_c, 0, 65, 0
2, 359220, Note_on_c, 0, 67, 100
2, 359280, Note_on_c, 0, 67, 0
2, 359280, Note_on_c, 0, 69, 100
2, 359340, Note_on_c, 0, 69, 0
2, 359340, Note_on_c, 0, 67, 100
2, 359400, Note_on_c, 0, 67, 0
2, 359400, Note_on_c, 0, 70, 100
2, 359460, Note_on_c, 0, 70, 0
2, 359460, Note_on_c, 0, 69, 100
2, 359520, Note_on_c, 0, 69, 0
2, 359520, Note_on_c, 0, 70, 100
2, 359760, Note_on_c, 0, 70, 0
2, 359760, Note_on_c, 0, 72, 100
2, 359775, Note_on_c, 0, 72, 0
2, 359775, Note_on_c, 0, 71, 100
2, 359790, Note_on_c, 0, 71, 0
2, 359790, Note_on_c, 0, 72, 100
2, 359805, Note_on_c, 0, 72, 0
2, 359805, Note_on_c, 0, 71, 100
2, 359820, Note_on_c, 0, 71, 0
2, 359820, Note_on_c, 0, 72, 100
2, 359835, Note_on_c, 0, 72, 0
2, 359835, Note_on_c, 0, 71, 100
2, 359850, Note_on_c, 0, 71, 0
2, 359850, Note_on_c, 0, 72, 100
2, 359865, Note_on_c, 0, 72, 0
2, 359865, Note_on_c, 0, 71, 100
2, 359880, Note_on_c, 0, 71, 0
2, 359880, Note_on_c, 0, 72, 100
2, 359895, Note_on_c, 0, 72, 0
2, 359895, Note_on_c, 0, 71, 100
2, 359910, Note_on_c, 0, 71, 0
2, 359910, Note_on_c, 0, 72, 100
2, 359925, Note_on_c, 0, 72, 0
2, 359925, Note_on_c, 0, 71, 100
2, 359940, Note_on_c, 0, 71, 0
2, 359940, Note_on_c, 0, 72, 100
2, 359955, Note_on_c, 0, 72, 0
2, 359955, Note_on_c, 0, 71, 100
2, 359970, Note_on_c, 0, 71, 0
2, 359970, Note_on_c, 0, 69, 100
2, 359985, Note_on_c, 0, 69, 0
2, 359985, Note_on_c, 0, 71, 100
2, 360000, Note_on_c, 0, 71, 0
2, 360000, Note_on_c, 0, 64, 100
2, 360000, Note_on_c, 0, 72, 100
2, 360060, Note_on_c, 0, 64, 0
2, 360060, Note_on_c, 0, 65, 100
2, 360120, Note_on_c, 0, 65, 0
2, 360120, Note_on_c, 0, 67, 100
2, 360180, Note_on_c, 0, 67, 0
2, 360180, Note_on_c, 0, 69, 100
2, 360240, Note_on_c, 0, 69, 0
2, 360240, Note_on_c, 0, 72, 0
2, 360240, Note_on_c, 0, 70, 100
2, 360300, Note_on_c, 0, 70, 0
2, 360300, Note_on_c, 0, 69, 100
2, 360360, Note_on_c, 0, 69, 0
2, 360360, Note_on_c, 0, 72, 100
2, 360420, Note_on_c, 0, 72, 0
2, 360420, Note_on_c, 0, 70, 100
2, 360480, Note_on_c, 0, 70, 0
2, 360480, Note_on_c, 0, 72, 100
2, 360540, Note_on_c, 0, 77, 100
2, 360600, Note_on_c, 0, 77, 0
2, 360600, Note_on_c, 0, 72, 0
2, 360600, Note_on_c, 0, 76, 100
2, 360660, Note_on_c, 0, 76, 0
2, 360660, Note_on_c, 0, 74, 100
2, 360720, Note_on_c, 0, 74, 0
2, 360720, Note_on_c, 0, 72, 100
2, 360780, Note_on_c, 0, 72, 0
2, 360780, Note_on_c, 0, 74, 100
2, 360840, Note_on_c, 0, 74, 0
2, 360840, Note_on_c, 0, 70, 100
2, 360900, Note_on_c, 0, 70, 0
2, 360900, Note_on_c, 0, 72, 100
2, 360960, Note_on_c, 0, 72, 0
2, 360960, Note_on_c, 0, 69, 100
2, 361020, Note_on_c, 0, 69, 0
2, 361020, Note_on_c, 0, 69, 100
2, 361020, Note_on_c, 0, 72, 100
2, 361080, Note_on_c, 0, 72, 0
2, 361080, Note_on_c, 0, 69, 0
2, 361080, Note_on_c, 0, 67, 100
2, 361080, Note_on_c, 0, 70, 100
2, 361140, Note_on_c, 0, 70, 0
2, 361140, Note_on_c, 0, 67, 0
2, 361140, Note_on_c, 0, 65, 100
2, 361140, Note_on_c, 0, 69, 100
2, 361200, Note_on_c, 0, 69, 0
2, 361200, Note_on_c, 0, 65, 0
2, 361200, Note_on_c, 0, 64, 100
2, 361200, Note_on_c, 0, 67, 100
2, 361260, Note_on_c, 0, 67, 0
2, 361260, Note_on_c, 0, 64, 0
2, 361260, Note_on_c, 0, 65, 100
2, 361260, Note_on_c, 0, 69, 100
2, 361320, Note_on_c, 0, 69, 0
2, 361320, Note_on_c, 0, 65, 0
2, 361320, Note_on_c, 0, 62, 100
2, 361320, Note_on_c, 0, 65, 100
2, 361380, Note_on_c, 0, 65, 0
2, 361380, Note_on_c, 0, 62, 0
2, 361380, Note_on_c, 0, 64, 100
2, 361380, Note_on_c, 0, 67, 100
2, 361440, Note_on_c, 0, 67, 0
2, 361440, Note_on_c, 0, 64, 0
2, 361440, Note_on_c, 0, 65, 100
2, 361440, Note_on_c, 0, 69, 100
2, 361500, Note_on_c, 0, 65, 0
2, 361500, Note_on_c, 0, 60, 100
2, 361560, Note_on_c, 0, 60, 0
2, 361560, Note_on_c, 0, 65, 100
2, 361680, Note_on_c, 0, 69, 0
2, 361680, Note_on_c, 0, 67, 100
2, 361800, Note_on_c, 0, 65, 0
2, 361800, Note_on_c, 0, 64, 100
2, 361920, Note_on_c, 0, 67, 0
2, 361920, Note_on_c, 0, 65, 100
2, 362040, Note_on_c, 0, 64, 0
2, 362040, Note_on_c, 0, 62, 100
2, 362160, Note_on_c, 0, 65, 0
2, 362160, Note_on_c, 0, 64, 100
2, 362220, Note_on_c, 0, 62, 0
2, 362220, Note_on_c, 0, 59, 100
2, 362280, Note_on_c, 0, 59, 0
2, 362280, Note_on_c, 0, 61, 100
2, 362340, Note_on_c, 0, 61, 0
2, 362340, Note_on_c, 0, 62, 100
2, 362400, Note_on_c, 0, 62, 0
2, 362400, Note_on_c, 0, 64, 0
2, 362400, Note_on_c, 0, 57, 100
2, 362400, Note_on_c, 0, 62, 100
2, 362460, Note_on_c, 0, 57, 0
2, 362460, Note_on_c, 0, 59, 100
2, 362520, Note_on_c, 0, 59, 0
2, 362520, Note_on_c, 0, 62, 0
2, 362520, Note_on_c, 0, 61, 100
2, 362580, Note_on_c, 0, 61, 0
2, 362580, Note_on_c, 0, 62, 100
2, 362640, Note_on_c, 0, 62, 0
2, 362640, Note_on_c, 0, 64, 100
2, 362700, Note_on_c, 0, 64, 0
2, 362700, Note_on_c, 0, 62, 100
2, 362760, Note_on_c, 0, 62, 0
2, 362760, Note_on_c, 0, 65, 100
2, 362820, Note_on_c, 0, 65, 0
2, 362820, Note_on_c, 0, 64, 100
2, 362880, Note_on_c, 0, 64, 0
2, 362880, Note_on_c, 0, 67, 100
2, 362940, Note_on_c, 0, 67, 0
2, 362940, Note_on_c, 0, 66, 100
2, 363000, Note_on_c, 0, 66, 0
2, 363000, Note_on_c, 0, 68, 100
2, 363060, Note_on_c, 0, 68, 0
2, 363060, Note_on_c, 0, 69, 100
2, 363120, Note_on_c, 0, 69, 0
2, 363120, Note_on_c, 0, 71, 100
2, 363180, Note_on_c, 0, 71, 0
2, 363180, Note_on_c, 0, 69, 100
2, 363240, Note_on_c, 0, 69, 0
2, 363240, Note_on_c, 0, 72, 100
2, 363300, Note_on_c, 0, 72, 0
2, 363300, Note_on_c, 0, 70, 100
2, 363360, Note_on_c, 0, 70, 0
2, 363360, Note_on_c, 0, 74, 100
2, 363420, Note_on_c, 0, 74, 0
2, 363420, Note_on_c, 0, 72, 100
2, 363480, Note_on_c, 0, 72, 0
2, 363480, Note_on_c, 0, 71, 100
2, 363540, Note_on_c, 0, 71, 0
2, 363540, Note_on_c, 0, 69, 100
2, 363600, Note_on_c, 0, 69, 0
2, 363600, Note_on_c, 0, 71, 100
2, 363660, Note_on_c, 0, 71, 0
2, 363660, Note_on_c, 0, 72, 100
2, 363720, Note_on_c, 0, 72, 0
2, 363720, Note_on_c, 0, 71, 100
2, 363780, Note_on_c, 0, 71, 0
2, 363780, Note_on_c, 0, 74, 100
2, 363840, Note_on_c, 0, 74, 0
2, 363840, Note_on_c, 0, 74, 100
2, 363840, Note_on_c, 0, 76, 100
2, 363900, Note_on_c, 0, 74, 0
2, 363900, Note_on_c, 0, 71, 100
2, 363960, Note_on_c, 0, 71, 0
2, 363960, Note_on_c, 0, 76, 0
2, 363960, Note_on_c, 0, 72, 100
2, 363960, Note_on_c, 0, 81, 100
2, 364020, Note_on_c, 0, 72, 0
2, 364020, Note_on_c, 0, 72, 100
2, 364080, Note_on_c, 0, 72, 0
2, 364080, Note_on_c, 0, 81, 0
2, 364080, Note_on_c, 0, 72, 100
2, 364080, Note_on_c, 0, 75, 100
2, 364140, Note_on_c, 0, 72, 0
2, 364140, Note_on_c, 0, 70, 100
2, 364200, Note_on_c, 0, 70, 0
2, 364200, Note_on_c, 0, 75, 0
2, 364200, Note_on_c, 0, 71, 100
2, 364200, Note_on_c, 0, 74, 100
2, 364260, Note_on_c, 0, 71, 0
2, 364260, Note_on_c, 0, 71, 100
2, 364320, Note_on_c, 0, 71, 0
2, 364320, Note_on_c, 0, 74, 0
2, 364320, Note_on_c, 0, 71, 100
2, 364320, Note_on_c, 0, 72, 100
2, 364380, Note_on_c, 0, 71, 0
2, 364380, Note_on_c, 0, 68, 100
2, 364440, Note_on_c, 0, 68, 0
2, 364440, Note_on_c, 0, 72, 0
2, 364440, Note_on_c, 0, 69, 100
2, 364440, Note_on_c, 0, 77, 100
2, 364500, Note_on_c, 0, 69, 0
2, 364500, Note_on_c, 0, 69, 100
2, 364560, Note_on_c, 0, 69, 0
2, 364560, Note_on_c, 0, 77, 0
2, 364560, Note_on_c, 0, 69, 100
2, 364560, Note_on_c, 0, 70, 100
2, 364620, Note_on_c, 0, 69, 0
2, 364620, Note_on_c, 0, 67, 100
2, 364680, Note_on_c, 0, 67, 0
2, 364680, Note_on_c, 0, 65, 100
2, 364740, Note_on_c, 0, 65, 0
2, 364740, Note_on_c, 0, 64, 100
2, 364800, Note_on_c, 0, 64, 0
2, 364800, Note_on_c, 0, 70, 0
2, 364800, Note_on_c, 0, 65, 100
2, 364800, Note_on_c, 0, 69, 100
2, 364860, Note_on_c, 0, 65, 0
2, 364860, Note_on_c, 0, 69, 100
2, 364920, Note_on_c, 0, 69, 0
2, 364920, Note_on_c, 0, 69, 0
2, 364920, Note_on_c, 0, 67, 100
2, 364920, Note_on_c, 0, 70, 100
2, 364980, Note_on_c, 0, 67, 0
2, 364980, Note_on_c, 0, 65, 100
2, 365040, Note_on_c, 0, 65, 0
2, 365040, Note_on_c, 0, 70, 0
2, 365040, Note_on_c, 0, 64, 100
2, 365100, Note_on_c, 0, 64, 0
2, 365100, Note_on_c, 0, 65, 100
2, 365160, Note_on_c, 0, 65, 0
2, 365160, Note_on_c, 0, 62, 100
2, 365160, Note_on_c, 0, 72, 100
2, 365220, Note_on_c, 0, 62, 0
2, 365220, Note_on_c, 0, 64, 100
2, 365280, Note_on_c, 0, 64, 0
2, 365280, Note_on_c, 0, 72, 0
2, 365280, Note_on_c, 0, 65, 100
2, 365340, Note_on_c, 0, 69, 100
2, 365400, Note_on_c, 0, 69, 0
2, 365400, Note_on_c, 0, 65, 0
2, 365400, Note_on_c, 0, 72, 100
2, 365400, Note_on_c, 0, 77, 100
2, 365460, Note_on_c, 0, 72, 0
2, 365460, Note_on_c, 0, 70, 100
2, 365520, Note_on_c, 0, 70, 0
2, 365520, Note_on_c, 0, 72, 100
2, 365580, Note_on_c, 0, 77, 0
2, 365580, Note_on_c, 0, 76, 100
2, 365640, Note_on_c, 0, 76, 0
2, 365640, Note_on_c, 0, 72, 0
2, 365640, Note_on_c, 0, 74, 100
2, 365700, Note_on_c, 0, 74, 0
2, 365700, Note_on_c, 0, 77, 100
2, 365760, Note_on_c, 0, 77, 0
2, 365760, Note_on_c, 0, 76, 100
2, 365880, Note_on_c, 0, 76, 0
2, 365880, Note_on_c, 0, 81, 100
2, 365940, Note_on_c, 0, 81, 0
2, 365940, Note_on_c, 0, 80, 100
2, 366000, Note_on_c, 0, 80, 0
2, 366000, Note_on_c, 0, 72, 100
2, 366000, Note_on_c, 0, 81, 100
2, 366120, Note_on_c, 0, 81, 0
2, 366120, Note_on_c, 0, 75, 100
2, 366240, Note_on_c, 0, 75, 0
2, 366240, Note_on_c, 0, 72, 0
2, 366240, Note_on_c, 0, 71, 100
2, 366240, Note_on_c, 0, 76, 100
2, 366360, Note_on_c, 0, 76, 0
2, 366360, Note_on_c, 0, 71, 0
2, 366360, Note_on_c, 0, 76, 100
2, 366360, Note_on_c, 0, 79, 100
2, 366480, Note_on_c, 0, 79, 0
2, 366480, Note_on_c, 0, 76, 0
2, 366480, Note_on_c, 0, 70, 100
2, 366480, Note_on_c, 0, 73, 100
2, 366600, Note_on_c, 0, 73, 0
2, 366600, Note_on_c, 0, 70, 0
2, 366600, Note_on_c, 0, 74, 100
2, 366600, Note_on_c, 0, 69, 100
2, 366720, Note_on_c, 0, 69, 0
2, 366720, Note_on_c, 0, 74, 0
2, 366720, Note_on_c, 0, 67, 100
2, 366840, Note_on_c, 0, 67, 0
2, 366840, Note_on_c, 0, 72, 100
2, 366840, Note_on_c, 0, 76, 100
2, 366960, Note_on_c, 0, 76, 0
2, 366960, Note_on_c, 0, 72, 0
2, 366960, Note_on_c, 0, 77, 100
2, 367080, Note_on_c, 0, 77, 0
2, 367080, Note_on_c, 0, 79, 100
2, 367200, Note_on_c, 0, 79, 0
2, 367320, Note_on_c, 0, 81, 100
2, 367440, Note_on_c, 0, 81, 0
2, 367440, Note_on_c, 0, 79, 100
2, 367560, Note_on_c, 0, 79, 0
2, 367560, Note_on_c, 0, 77, 100
2, 367680, Note_on_c, 0, 77, 0
2, 367800, Note_on_c, 0, 76, 100
2, 367800, Note_on_c, 0, 72, 100
2, 367860, Note_on_c, 0, 76, 0
2, 367860, Note_on_c, 0, 74, 100
2, 367920, Note_on_c, 0, 74, 0
2, 367920, Note_on_c, 0, 76, 100
2, 367980, Note_on_c, 0, 72, 0
2, 367980, Note_on_c, 0, 70, 100
2, 368040, Note_on_c, 0, 70, 0
2, 368040, Note_on_c, 0, 76, 0
2, 368040, Note_on_c, 0, 69, 100
2, 368040, Note_on_c, 0, 78, 100
2, 368100, Note_on_c, 0, 69, 0
2, 368100, Note_on_c, 0, 72, 100
2, 368160, Note_on_c, 0, 72, 0
2, 368160, Note_on_c, 0, 78, 0
2, 368160, Note_on_c, 0, 79, 100
2, 368160, Note_on_c, 0, 70, 100
2, 368220, Note_on_c, 0, 79, 0
2, 368220, Note_on_c, 0, 74, 100
2, 368280, Note_on_c, 0, 74, 0
2, 368280, Note_on_c, 0, 70, 0
2, 368280, Note_on_c, 0, 76, 100
2, 368340, Note_on_c, 0, 76, 0
2, 368340, Note_on_c, 0, 78, 100
2, 368400, Note_on_c, 0, 78, 0
2, 368400, Note_on_c, 0, 79, 100
2, 368460, Note_on_c, 0, 79, 0
2, 368460, Note_on_c, 0, 77, 100
2, 368520, Note_on_c, 0, 77, 0
2, 368520, Note_on_c, 0, 81, 100
2, 368580, Note_on_c, 0, 81, 0
2, 368580, Note_on_c, 0, 79, 100
2, 368640, Note_on_c, 0, 79, 0
2, 368640, Note_on_c, 0, 82, 100
2, 368700, Note_on_c, 0, 82, 0
2, 368700, Note_on_c, 0, 81, 100
2, 368760, Note_on_c, 0, 81, 0
2, 368760, Note_on_c, 0, 79, 100
2, 368820, Note_on_c, 0, 79, 0
2, 368820, Note_on_c, 0, 77, 100
2, 368880, Note_on_c, 0, 77, 0
2, 368880, Note_on_c, 0, 75, 100
2, 368940, Note_on_c, 0, 75, 0
2, 368940, Note_on_c, 0, 74, 100
2, 369000, Note_on_c, 0, 74, 0
2, 369000, Note_on_c, 0, 75, 100
2, 369060, Note_on_c, 0, 75, 0
2, 369060, Note_on_c, 0, 75, 100
2, 369120, Note_on_c, 0, 75, 0
2, 369120, Note_on_c, 0, 75, 100
2, 369180, Note_on_c, 0, 75, 0
2, 369180, Note_on_c, 0, 73, 100
2, 369240, Note_on_c, 0, 73, 0
2, 369240, Note_on_c, 0, 74, 100
2, 369300, Note_on_c, 0, 74, 0
2, 369300, Note_on_c, 0, 74, 100
2, 369360, Note_on_c, 0, 74, 0
2, 369360, Note_on_c, 0, 74, 100
2, 369420, Note_on_c, 0, 74, 0
2, 369420, Note_on_c, 0, 71, 100
2, 369480, Note_on_c, 0, 71, 0
2, 369480, Note_on_c, 0, 72, 100
2, 369540, Note_on_c, 0, 72, 0
2, 369540, Note_on_c, 0, 72, 100
2, 369600, Note_on_c, 0, 72, 0
2, 369600, Note_on_c, 0, 72, 100
2, 369660, Note_on_c, 0, 72, 0
2, 369660, Note_on_c, 0, 69, 100
2, 369720, Note_on_c, 0, 69, 0
2, 369720, Note_on_c, 0, 70, 100
2, 369780, Note_on_c, 0, 70, 0
2, 369780, Note_on_c, 0, 70, 100
2, 369840, Note_on_c, 0, 70, 0
2, 369840, Note_on_c, 0, 70, 100
2, 369900, Note_on_c, 0, 70, 0
2, 369900, Note_on_c, 0, 69, 100
2, 369960, Note_on_c, 0, 69, 0
2, 369960, Note_on_c, 0, 67, 100
2, 370020, Note_on_c, 0, 67, 0
2, 370020, Note_on_c, 0, 66, 100
2, 370080, Note_on_c, 0, 66, 0
2, 370080, Note_on_c, 0, 67, 100
2, 370140, Note_on_c, 0, 67, 0
2, 370140, Note_on_c, 0, 70, 100
2, 370200, Note_on_c, 0, 70, 0
2, 370200, Note_on_c, 0, 69, 100
2, 370200, Note_on_c, 0, 63, 100
2, 370260, Note_on_c, 0, 69, 0
2, 370260, Note_on_c, 0, 67, 100
2, 370320, Note_on_c, 0, 67, 0
2, 370320, Note_on_c, 0, 63, 0
2, 370320, Note_on_c, 0, 66, 100
2, 370320, Note_on_c, 0, 62, 100
2, 370380, Note_on_c, 0, 66, 0
2, 370380, Note_on_c, 0, 67, 100
2, 370440, Note_on_c, 0, 67, 0
2, 370440, Note_on_c, 0, 62, 0
2, 370440, Note_on_c, 0, 64, 100
2, 370440, Note_on_c, 0, 60, 100
2, 370500, Note_on_c, 0, 64, 0
2, 370500, Note_on_c, 0, 65, 100
2, 370560, Note_on_c, 0, 65, 0
2, 370560, Note_on_c, 0, 60, 0
2, 370560, Note_on_c, 0, 67, 100
2, 370620, Note_on_c, 0, 67, 0
2, 370620, Note_on_c, 0, 62, 100
2, 370680, Note_on_c, 0, 62, 0
2, 370680, Note_on_c, 0, 67, 100
2, 370860, Note_on_c, 0, 67, 0
2, 370860, Note_on_c, 0, 70, 100
2, 370920, Note_on_c, 0, 70, 0
2, 370920, Note_on_c, 0, 69, 100
2, 370980, Note_on_c, 0, 69, 0
2, 370980, Note_on_c, 0, 72, 100
2, 371040, Note_on_c, 0, 72, 0
2, 371040, Note_on_c, 0, 62, 100
2, 371040, Note_on_c, 0, 70, 100
2, 371100, Note_on_c, 0, 62, 0
2, 371100, Note_on_c, 0, 63, 100
2, 371160, Note_on_c, 0, 63, 0
2, 371160, Note_on_c, 0, 62, 100
2, 371220, Note_on_c, 0, 62, 0
2, 371220, Note_on_c, 0, 61, 100
2, 371280, Note_on_c, 0, 61, 0
2, 371280, Note_on_c, 0, 62, 100
2, 371340, Note_on_c, 0, 62, 0
2, 371340, Note_on_c, 0, 65, 100
2, 371400, Note_on_c, 0, 65, 0
2, 371400, Note_on_c, 0, 64, 100
2, 371460, Note_on_c, 0, 64, 0
2, 371460, Note_on_c, 0, 67, 100
2, 371520, Note_on_c, 0, 67, 0
2, 371520, Note_on_c, 0, 65, 100
2, 371580, Note_on_c, 0, 65, 0
2, 371580, Note_on_c, 0, 64, 100
2, 371640, Note_on_c, 0, 64, 0
2, 371640, Note_on_c, 0, 70, 0
2, 371640, Note_on_c, 0, 69, 100
2, 371640, Note_on_c, 0, 65, 100
2, 371700, Note_on_c, 0, 69, 0
2, 371700, Note_on_c, 0, 67, 100
2, 371760, Note_on_c, 0, 67, 0
2, 371760, Note_on_c, 0, 69, 100
2, 371820, Note_on_c, 0, 65, 0
2, 371820, Note_on_c, 0, 64, 100
2, 371880, Note_on_c, 0, 64, 0
2, 371880, Note_on_c, 0, 69, 0
2, 371880, Note_on_c, 0, 62, 100
2, 371880, Note_on_c, 0, 74, 100
2, 371940, Note_on_c, 0, 62, 0
2, 371940, Note_on_c, 0, 65, 100
2, 372000, Note_on_c, 0, 65, 0
2, 372000, Note_on_c, 0, 64, 100
2, 372060, Note_on_c, 0, 64, 0
2, 372060, Note_on_c, 0, 74, 0
2, 372060, Note_on_c, 0, 66, 100
2, 372060, Note_on_c, 0, 72, 100
2, 372120, Note_on_c, 0, 72, 0
2, 372120, Note_on_c, 0, 66, 0
2, 372120, Note_on_c, 0, 71, 100
2, 372120, Note_on_c, 0, 67, 100
2, 372180, Note_on_c, 0, 71, 0
2, 372180, Note_on_c, 0, 74, 100
2, 372240, Note_on_c, 0, 74, 0
2, 372240, Note_on_c, 0, 73, 100
2, 372300, Note_on_c, 0, 73, 0
2, 372300, Note_on_c, 0, 67, 0
2, 372300, Note_on_c, 0, 65, 100
2, 372300, Note_on_c, 0, 74, 100
2, 372360, Note_on_c, 0, 74, 0
2, 372360, Note_on_c, 0, 65, 0
2, 372360, Note_on_c, 0, 64, 100
2, 372360, Note_on_c, 0, 76, 100
2, 372420, Note_on_c, 0, 64, 0
2, 372420, Note_on_c, 0, 67, 100
2, 372480, Note_on_c, 0, 67, 0
2, 372480, Note_on_c, 0, 65, 100
2, 372540, Note_on_c, 0, 65, 0
2, 372540, Note_on_c, 0, 76, 0
2, 372540, Note_on_c, 0, 74, 100
2, 372540, Note_on_c, 0, 67, 100
2, 372600, Note_on_c, 0, 67, 0
2, 372600, Note_on_c, 0, 74, 0
2, 372600, Note_on_c, 0, 73, 100
2, 372600, Note_on_c, 0, 69, 100
2, 372660, Note_on_c, 0, 73, 0
2, 372660, Note_on_c, 0, 76, 100
2, 372720, Note_on_c, 0, 76, 0
2, 372720, Note_on_c, 0, 74, 100
2, 372780, Note_on_c, 0, 74, 0
2, 372780, Note_on_c, 0, 69, 0
2, 372780, Note_on_c, 0, 67, 100
2, 372780, Note_on_c, 0, 76, 100
2, 372840, Note_on_c, 0, 76, 0
2, 372840, Note_on_c, 0, 67, 0
2, 372840, Note_on_c, 0, 65, 100
2, 372840, Note_on_c, 0, 77, 100
2, 372900, Note_on_c, 0, 65, 0
2, 372900, Note_on_c, 0, 69, 100
2, 372960, Note_on_c, 0, 69, 0
2, 372960, Note_on_c, 0, 68, 100
2, 373020, Note_on_c, 0, 68, 0
2, 373020, Note_on_c, 0, 77, 0
2, 373020, Note_on_c, 0, 76, 100
2, 373020, Note_on_c, 0, 69, 100
2, 373080, Note_on_c, 0, 69, 0
2, 373080, Note_on_c, 0, 76, 0
2, 373080, Note_on_c, 0, 74, 100
2, 373080, Note_on_c, 0, 71, 100
2, 373140, Note_on_c, 0, 74, 0
2, 373140, Note_on_c, 0, 77, 100
2, 373200, Note_on_c, 0, 77, 0
2, 373200, Note_on_c, 0, 76, 100
2, 373260, Note_on_c, 0, 76, 0
2, 373260, Note_on_c, 0, 74, 100
2, 373320, Note_on_c, 0, 74, 0
2, 373320, Note_on_c, 0, 71, 0
2, 373320, Note_on_c, 0, 69, 100
2, 373320, Note_on_c, 0, 73, 100
2, 373380, Note_on_c, 0, 73, 0
2, 373380, Note_on_c, 0, 69, 0
2, 373380, Note_on_c, 0, 67, 100
2, 373380, Note_on_c, 0, 71, 100
2, 373440, Note_on_c, 0, 71, 0
2, 373440, Note_on_c, 0, 67, 0
2, 373440, Note_on_c, 0, 69, 100
2, 373440, Note_on_c, 0, 73, 100
2, 373500, Note_on_c, 0, 69, 0
2, 373500, Note_on_c, 0, 64, 100
2, 373560, Note_on_c, 0, 64, 0
2, 373560, Note_on_c, 0, 73, 0
2, 373560, Note_on_c, 0, 69, 100
2, 373560, Note_on_c, 0, 77, 100
2, 373620, Note_on_c, 0, 69, 0
2, 373620, Note_on_c, 0, 69, 100
2, 373680, Note_on_c, 0, 69, 0
2, 373680, Note_on_c, 0, 77, 0
2, 373680, Note_on_c, 0, 69, 100
2, 373680, Note_on_c, 0, 71, 100
2, 373740, Note_on_c, 0, 71, 0
2, 373740, Note_on_c, 0, 69, 0
2, 373740, Note_on_c, 0, 66, 100
2, 373740, Note_on_c, 0, 74, 100
2, 373800, Note_on_c, 0, 74, 0
2, 373800, Note_on_c, 0, 66, 0
2, 373800, Note_on_c, 0, 67, 100
2, 373800, Note_on_c, 0, 72, 100
2, 373860, Note_on_c, 0, 72, 0
2, 373860, Note_on_c, 0, 67, 0
2, 373860, Note_on_c, 0, 67, 100
2, 373860, Note_on_c, 0, 76, 100
2, 373920, Note_on_c, 0, 76, 0
2, 373920, Note_on_c, 0, 67, 0
2, 373920, Note_on_c, 0, 67, 100
2, 373920, Note_on_c, 0, 69, 100
2, 373980, Note_on_c, 0, 67, 0
2, 373980, Note_on_c, 0, 64, 100
2, 374040, Note_on_c, 0, 64, 0
2, 374040, Note_on_c, 0, 69, 0
2, 374040, Note_on_c, 0, 81, 100
2, 374040, Note_on_c, 0, 65, 100
2, 374100, Note_on_c, 0, 65, 0
2, 374100, Note_on_c, 0, 81, 0
2, 374100, Note_on_c, 0, 62, 100
2, 374100, Note_on_c, 0, 81, 100
2, 374160, Note_on_c, 0, 81, 0
2, 374160, Note_on_c, 0, 62, 0
2, 374160, Note_on_c, 0, 59, 100
2, 374160, Note_on_c, 0, 81, 100
2, 374220, Note_on_c, 0, 81, 0
2, 374220, Note_on_c, 0, 59, 0
2, 374220, Note_on_c, 0, 62, 100
2, 374220, Note_on_c, 0, 78, 100
2, 374280, Note_on_c, 0, 78, 0
2, 374280, Note_on_c, 0, 62, 0
2, 374280, Note_on_c, 0, 61, 100
2, 374280, Note_on_c, 0, 79, 100
2, 374340, Note_on_c, 0, 79, 0
2, 374340, Note_on_c, 0, 61, 0
2, 374340, Note_on_c, 0, 62, 100
2, 374340, Note_on_c, 0, 79, 100
2, 374400, Note_on_c, 0, 79, 0
2, 374400, Note_on_c, 0, 62, 0
2, 374400, Note_on_c, 0, 79, 100
2, 374460, Note_on_c, 0, 79, 0
2, 374460, Note_on_c, 0, 76, 100
2, 374520, Note_on_c, 0, 76, 0
2, 374520, Note_on_c, 0, 77, 100
2, 374580, Note_on_c, 0, 77, 0
2, 374580, Note_on_c, 0, 77, 100
2, 374640, Note_on_c, 0, 77, 0
2, 374640, Note_on_c, 0, 77, 100
2, 374700, Note_on_c, 0, 77, 0
2, 374700, Note_on_c, 0, 74, 100
2, 374760, Note_on_c, 0, 74, 0
2, 374760, Note_on_c, 0, 76, 100
2, 374820, Note_on_c, 0, 76, 0
2, 374820, Note_on_c, 0, 76, 100
2, 374880, Note_on_c, 0, 76, 0
2, 374880, Note_on_c, 0, 76, 100
2, 375000, Note_on_c, 0, 76, 0
2, 375000, Note_on_c, 0, 69, 100
2, 375120, Note_on_c, 0, 69, 0
2, 375120, Note_on_c, 0, 62, 100
2, 375240, Note_on_c, 0, 62, 0
2, 375240, Note_on_c, 0, 64, 100
2, 375360, Note_on_c, 0, 64, 0
2, 375480, Note_on_c, 0, 65, 100
2, 375600, Note_on_c, 0, 65, 0
2, 375600, Note_on_c, 0, 67, 100
2, 375720, Note_on_c, 0, 67, 0
2, 375720, Note_on_c, 0, 69, 100
2, 375840, Note_on_c, 0, 69, 0
2, 375960, Note_on_c, 0, 70, 100
2, 376080, Note_on_c, 0, 70, 0
2, 376080, Note_on_c, 0, 69, 100
2, 376200, Note_on_c, 0, 69, 0
2, 376200, Note_on_c, 0, 67, 100
2, 376320, Note_on_c, 0, 67, 0
2, 376440, Note_on_c, 0, 65, 100
2, 376500, Note_on_c, 0, 65, 0
2, 376500, Note_on_c, 0, 64, 100
2, 376560, Note_on_c, 0, 64, 0
2, 376560, Note_on_c, 0, 65, 100
2, 376680, Note_on_c, 0, 65, 0
2, 376680, Note_on_c, 0, 67, 100
2, 376800, Note_on_c, 0, 67, 0
2, 376800, Note_on_c, 0, 69, 100
2, 376860, Note_on_c, 0, 69, 0
2, 376860, Note_on_c, 0, 67, 100
2, 376920, Note_on_c, 0, 67, 0
2, 376920, Note_on_c, 0, 66, 100
2, 376980, Note_on_c, 0, 66, 0
2, 376980, Note_on_c, 0, 69, 100
2, 377040, Note_on_c, 0, 69, 0
2, 377040, Note_on_c, 0, 62, 100
2, 377160, Note_on_c, 0, 62, 0
2, 377160, Note_on_c, 0, 74, 100
2, 377160, Note_on_c, 0, 66, 100
2, 377280, Note_on_c, 0, 66, 0
2, 377280, Note_on_c, 0, 67, 100
2, 377340, Note_on_c, 0, 74, 0
2, 377340, Note_on_c, 0, 72, 100
2, 377400, Note_on_c, 0, 72, 0
2, 377400, Note_on_c, 0, 70, 100
2, 377460, Note_on_c, 0, 70, 0
2, 377460, Note_on_c, 0, 67, 0
2, 377460, Note_on_c, 0, 65, 100
2, 377460, Note_on_c, 0, 74, 100
2, 377520, Note_on_c, 0, 74, 0
2, 377520, Note_on_c, 0, 65, 0
2, 377520, Note_on_c, 0, 64, 100
2, 377520, Note_on_c, 0, 67, 100
2, 377640, Note_on_c, 0, 67, 0
2, 377640, Note_on_c, 0, 64, 0
2, 377640, Note_on_c, 0, 63, 100
2, 377640, Note_on_c, 0, 72, 100
2, 377820, Note_on_c, 0, 72, 0
2, 377820, Note_on_c, 0, 63, 0
2, 377820, Note_on_c, 0, 62, 100
2, 377820, Note_on_c, 0, 70, 100
2, 377880, Note_on_c, 0, 70, 0
2, 377880, Note_on_c, 0, 62, 0
2, 377880, Note_on_c, 0, 60, 100
2, 377880, Note_on_c, 0, 69, 100
2, 377940, Note_on_c, 0, 69, 0
2, 377940, Note_on_c, 0, 60, 0
2, 377940, Note_on_c, 0, 63, 100
2, 377940, Note_on_c, 0, 72, 100
2, 378000, Note_on_c, 0, 72, 0
2, 378000, Note_on_c, 0, 63, 0
2, 378000, Note_on_c, 0, 62, 100
2, 378000, Note_on_c, 0, 70, 100
2, 378120, Note_on_c, 0, 70, 0
2, 378120, Note_on_c, 0, 62, 0
2, 378120, Note_on_c, 0, 62, 100
2, 378120, Note_on_c, 0, 70, 100
2, 378270, Note_on_c, 0, 70, 0
2, 378270, Note_on_c, 0, 72, 100
2, 378300, Note_on_c, 0, 72, 0
2, 378300, Note_on_c, 0, 70, 100
2, 378330, Note_on_c, 0, 70, 0
2, 378330, Note_on_c, 0, 69, 100
2, 378360, Note_on_c, 0, 69, 0
2, 378360, Note_on_c, 0, 62, 0
2, 378360, Note_on_c, 0, 67, 100
2, 378390, Note_on_c, 0, 67, 0
2, 378390, Note_on_c, 0, 70, 100
2, 378420, Note_on_c, 0, 70, 0
2, 378420, Note_on_c, 0, 72, 100
2, 378450, Note_on_c, 0, 72, 0
2, 378450, Note_on_c, 0, 74, 100
2, 378480, Note_on_c, 0, 74, 0
2, 378480, Note_on_c, 0, 75, 100
2, 378510, Note_on_c, 0, 75, 0
2, 378510, Note_on_c, 0, 77, 100
2, 378540, Note_on_c, 0, 77, 0
2, 378540, Note_on_c, 0, 75, 100
2, 378570, Note_on_c, 0, 75, 0
2, 378570, Note_on_c, 0, 74, 100
2, 378600, Note_on_c, 0, 74, 0
2, 378600, Note_on_c, 0, 73, 100
2, 378630, Note_on_c, 0, 73, 0
2, 378630, Note_on_c, 0, 74, 100
2, 378660, Note_on_c, 0, 74, 0
2, 378660, Note_on_c, 0, 76, 100
2, 378690, Note_on_c, 0, 76, 0
2, 378690, Note_on_c, 0, 77, 100
2, 378720, Note_on_c, 0, 77, 0
2, 378720, Note_on_c, 0, 79, 100
2, 378750, Note_on_c, 0, 79, 0
2, 378750, Note_on_c, 0, 81, 100
2, 378780, Note_on_c, 0, 81, 0
2, 378780, Note_on_c, 0, 79, 100
2, 378810, Note_on_c, 0, 79, 0
2, 378810, Note_on_c, 0, 77, 100
2, 378840, Note_on_c, 0, 77, 0
2, 378840, Note_on_c, 0, 76, 100
2, 378870, Note_on_c, 0, 76, 0
2, 378870, Note_on_c, 0, 77, 100
2, 378900, Note_on_c, 0, 77, 0
2, 378900, Note_on_c, 0, 79, 100
2, 378930, Note_on_c, 0, 79, 0
2, 378930, Note_on_c, 0, 81, 100
2, 378960, Note_on_c, 0, 81, 0
2, 378960, Note_on_c, 0, 82, 100
2, 379020, Note_on_c, 0, 82, 0
2, 379020, Note_on_c, 0, 81, 100
2, 379050, Note_on_c, 0, 81, 0
2, 379050, Note_on_c, 0, 79, 100
2, 379080, Note_on_c, 0, 79, 0
2, 379080, Note_on_c, 0, 77, 100
2, 379110, Note_on_c, 0, 77, 0
2, 379110, Note_on_c, 0, 76, 100
2, 379140, Note_on_c, 0, 76, 0
2, 379140, Note_on_c, 0, 74, 100
2, 379170, Note_on_c, 0, 74, 0
2, 379170, Note_on_c, 0, 73, 100
2, 379200, Note_on_c, 0, 73, 0
2, 379200, Note_on_c, 0, 74, 100
2, 379260, Note_on_c, 0, 65, 100
2, 379320, Note_on_c, 0, 65, 0
2, 379320, Note_on_c, 0, 65, 100
2, 379380, Note_on_c, 0, 65, 0
2, 379380, Note_on_c, 0, 64, 100
2, 379440, Note_on_c, 0, 64, 0
2, 379440, Note_on_c, 0, 64, 100
2, 379500, Note_on_c, 0, 64, 0
2, 379500, Note_on_c, 0, 67, 100
2, 379560, Note_on_c, 0, 67, 0
2, 379560, Note_on_c, 0, 74, 0
2, 379560, Note_on_c, 0, 67, 100
2, 379560, Note_on_c, 0, 73, 100
2, 379620, Note_on_c, 0, 67, 0
2, 379620, Note_on_c, 0, 66, 100
2, 379680, Note_on_c, 0, 66, 0
2, 379680, Note_on_c, 0, 73, 0
2, 379680, Note_on_c, 0, 66, 100
2, 379680, Note_on_c, 0, 74, 100
2, 379740, Note_on_c, 0, 66, 0
2, 379740, Note_on_c, 0, 69, 100
2, 379800, Note_on_c, 0, 69, 0
2, 379800, Note_on_c, 0, 74, 0
2, 379800, Note_on_c, 0, 69, 100
2, 379800, Note_on_c, 0, 72, 100
2, 379860, Note_on_c, 0, 69, 0
2, 379860, Note_on_c, 0, 67, 100
2, 379920, Note_on_c, 0, 67, 0
2, 379920, Note_on_c, 0, 72, 0
2, 379920, Note_on_c, 0, 71, 100
2, 379920, Note_on_c, 0, 67, 100
2, 379980, Note_on_c, 0, 71, 0
2, 379980, Note_on_c, 0, 79, 100
2, 380040, Note_on_c, 0, 79, 0
2, 380040, Note_on_c, 0, 67, 0
2, 380040, Note_on_c, 0, 79, 100
2, 380040, Note_on_c, 0, 70, 100
2, 380100, Note_on_c, 0, 79, 0
2, 380100, Note_on_c, 0, 78, 100
2, 380160, Note_on_c, 0, 78, 0
2, 380160, Note_on_c, 0, 70, 0
2, 380160, Note_on_c, 0, 78, 100
2, 380160, Note_on_c, 0, 69, 100
2, 380220, Note_on_c, 0, 78, 0
2, 380220, Note_on_c, 0, 81, 100
2, 380280, Note_on_c, 0, 81, 0
2, 380280, Note_on_c, 0, 69, 0
2, 380280, Note_on_c, 0, 81, 100
2, 380280, Note_on_c, 0, 72, 100
2, 380340, Note_on_c, 0, 81, 0
2, 380340, Note_on_c, 0, 79, 100
2, 380400, Note_on_c, 0, 79, 0
2, 380400, Note_on_c, 0, 72, 0
2, 380400, Note_on_c, 0, 70, 100
2, 380400, Note_on_c, 0, 79, 100
2, 380460, Note_on_c, 0, 79, 0
2, 380460, Note_on_c, 0, 70, 0
2, 380460, Note_on_c, 0, 69, 100
2, 380460, Note_on_c, 0, 77, 100
2, 380520, Note_on_c, 0, 77, 0
2, 380520, Note_on_c, 0, 69, 0
2, 380520, Note_on_c, 0, 75, 100
2, 380520, Note_on_c, 0, 70, 100
2, 380580, Note_on_c, 0, 75, 0
2, 380580, Note_on_c, 0, 74, 100
2, 380640, Note_on_c, 0, 74, 0
2, 380640, Note_on_c, 0, 73, 100
2, 380700, Note_on_c, 0, 70, 0
2, 380700, Note_on_c, 0, 68, 100
2, 380760, Note_on_c, 0, 68, 0
2, 380760, Note_on_c, 0, 73, 0
2, 380760, Note_on_c, 0, 69, 100
2, 380760, Note_on_c, 0, 77, 100
2, 380820, Note_on_c, 0, 69, 0
2, 380820, Note_on_c, 0, 69, 100
2, 380880, Note_on_c, 0, 69, 0
2, 380880, Note_on_c, 0, 77, 0
2, 380880, Note_on_c, 0, 69, 100
2, 380880, Note_on_c, 0, 71, 100
2, 380940, Note_on_c, 0, 69, 0
2, 380940, Note_on_c, 0, 66, 100
2, 381000, Note_on_c, 0, 66, 0
2, 381000, Note_on_c, 0, 71, 0
2, 381000, Note_on_c, 0, 67, 100
2, 381000, Note_on_c, 0, 70, 100
2, 381060, Note_on_c, 0, 67, 0
2, 381060, Note_on_c, 0, 67, 100
2, 381120, Note_on_c, 0, 67, 0
2, 381120, Note_on_c, 0, 70, 0
2, 381120, Note_on_c, 0, 67, 100
2, 381120, Note_on_c, 0, 69, 100
2, 381180, Note_on_c, 0, 67, 0
2, 381180, Note_on_c, 0, 64, 100
2, 381240, Note_on_c, 0, 64, 0
2, 381240, Note_on_c, 0, 69, 0
2, 381240, Note_on_c, 0, 65, 100
2, 381240, Note_on_c, 0, 74, 100
2, 381300, Note_on_c, 0, 65, 0
2, 381300, Note_on_c, 0, 65, 100
2, 381360, Note_on_c, 0, 65, 0
2, 381360, Note_on_c, 0, 74, 0
2, 381360, Note_on_c, 0, 65, 100
2, 381360, Note_on_c, 0, 67, 100
2, 381420, Note_on_c, 0, 65, 0
2, 381420, Note_on_c, 0, 63, 100
2, 381480, Note_on_c, 0, 63, 0
2, 381480, Note_on_c, 0, 62, 100
2, 381540, Note_on_c, 0, 62, 0
2, 381540, Note_on_c, 0, 61, 100
2, 381600, Note_on_c, 0, 61, 0
2, 381600, Note_on_c, 0, 67, 0
2, 381600, Note_on_c, 0, 62, 100
2, 381600, Note_on_c, 0, 65, 100
2, 381660, Note_on_c, 0, 62, 0
2, 381660, Note_on_c, 0, 65, 100
2, 381720, Note_on_c, 0, 65, 0
2, 381720, Note_on_c, 0, 65, 0
2, 381720, Note_on_c, 0, 64, 100
2, 381720, Note_on_c, 0, 67, 100
2, 381780, Note_on_c, 0, 64, 0
2, 381780, Note_on_c, 0, 62, 100
2, 381840, Note_on_c, 0, 62, 0
2, 381840, Note_on_c, 0, 67, 0
2, 381840, Note_on_c, 0, 69, 100
2, 381840, Note_on_c, 0, 61, 100
2, 381900, Note_on_c, 0, 61, 0
2, 381900, Note_on_c, 0, 69, 0
2, 381900, Note_on_c, 0, 67, 100
2, 381900, Note_on_c, 0, 62, 100
2, 381960, Note_on_c, 0, 62, 0
2, 381960, Note_on_c, 0, 67, 0
2, 381960, Note_on_c, 0, 59, 100
2, 381960, Note_on_c, 0, 69, 100
2, 382020, Note_on_c, 0, 59, 0
2, 382020, Note_on_c, 0, 60, 100
2, 382080, Note_on_c, 0, 60, 0
2, 382080, Note_on_c, 0, 69, 0
2, 382080, Note_on_c, 0, 62, 100
2, 382080, Note_on_c, 0, 62, 100
2, 382140, Note_on_c, 0, 62, 0
2, 382140, Note_on_c, 0, 58, 100
2, 382200, Note_on_c, 0, 58, 0
2, 382200, Note_on_c, 0, 57, 100
2, 382260, Note_on_c, 0, 57, 0
2, 382260, Note_on_c, 0, 55, 100
2, 382320, Note_on_c, 0, 55, 0
2, 382320, Note_on_c, 0, 57, 100
2, 382380, Note_on_c, 0, 57, 0
2, 382380, Note_on_c, 0, 62, 100
2, 382410, Note_on_c, 0, 62, 0
2, 382410, Note_on_c, 0, 60, 100
2, 382440, Note_on_c, 0, 60, 0
2, 382440, Note_on_c, 0, 58, 100
2, 382470, Note_on_c, 0, 58, 0
2, 382470, Note_on_c, 0, 57, 100
2, 382500, Note_on_c, 0, 57, 0
2, 382500, Note_on_c, 0, 55, 100
2, 382560, Note_on_c, 0, 55, 0
2, 382590, Note_on_c, 0, 62, 0
2, 382590, Note_on_c, 0, 59, 100
2, 382620, Note_on_c, 0, 59, 0
2, 382620, Note_on_c, 0, 61, 100
2, 382650, Note_on_c, 0, 61, 0
2, 382650, Note_on_c, 0, 62, 100
2, 382680, Note_on_c, 0, 62, 0
2, 382680, Note_on_c, 0, 64, 100
2, 382710, Note_on_c, 0, 64, 0
2, 382710, Note_on_c, 0, 65, 100
2, 382740, Note_on_c, 0, 65, 0
2, 382740, Note_on_c, 0, 67, 100
2, 382770, Note_on_c, 0, 67, 0
2, 382770, Note_on_c, 0, 64, 100
2, 382800, Note_on_c, 0, 64, 0
2, 382800, Note_on_c, 0, 62, 100
2, 382815, Note_on_c, 0, 62, 0
2, 382815, Note_on_c, 0, 61, 100
2, 382830, Note_on_c, 0, 61, 0
2, 382830, Note_on_c, 0, 62, 100
2, 382845, Note_on_c, 0, 62, 0
2, 382845, Note_on_c, 0, 61, 100
2, 382860, Note_on_c, 0, 61, 0
2, 382860, Note_on_c, 0, 62, 100
2, 382875, Note_on_c, 0, 62, 0
2, 382875, Note_on_c, 0, 61, 100
2, 382890, Note_on_c, 0, 61, 0
2, 382890, Note_on_c, 0, 62, 100
2, 382905, Note_on_c, 0, 62, 0
2, 382905, Note_on_c, 0, 61, 100
2, 382920, Note_on_c, 0, 61, 0
2, 382920, Note_on_c, 0, 62, 100
2, 382935, Note_on_c, 0, 62, 0
2, 382935, Note_on_c, 0, 61, 100
2, 382950, Note_on_c, 0, 61, 0
2, 382950, Note_on_c, 0, 62, 100
2, 382965, Note_on_c, 0, 62, 0
2, 382965, Note_on_c, 0, 61, 100
2, 382980, Note_on_c, 0, 61, 0
2, 382980, Note_on_c, 0, 62, 100
2, 383040, Note_on_c, 0, 62, 0
2, 383040, Note_on_c, 0, 62, 100
2, 383280, Note_on_c, 0, 62, 0
2, 383525, Control_c, 0, 91, 40
2, 383525, Control_c, 0, 0, 8
2, 383525, Control_c, 0, 121, 0
2, 383525, Control_c, 0, 0, 0
2, 383525, Control_c, 0, 91, 40
2, 383525, Control_c, 0, 0, 0
2, 383525, Control_c, 0, 121, 0
2, 383645, Note_on_c, 0, 62, 90
2, 383765, Note_on_c, 0, 62, 0
2, 383765, Note_on_c, 0, 74, 90
2, 384125, Note_on_c, 0, 74, 0
2, 384125, Note_on_c, 0, 73, 90
2, 384185, Note_on_c, 0, 73, 0
2, 384185, Note_on_c, 0, 71, 90
2, 384245, Note_on_c, 0, 71, 0
2, 384245, Note_on_c, 0, 69, 90
2, 384305, Note_on_c, 0, 69, 0
2, 384305, Note_on_c, 0, 67, 90
2, 384365, Note_on_c, 0, 67, 0
2, 384365, Note_on_c, 0, 65, 90
2, 384425, Note_on_c, 0, 65, 0
2, 384425, Note_on_c, 0, 64, 90
2, 384485, Note_on_c, 0, 64, 0
2, 384485, Note_on_c, 0, 62, 90
2, 384545, Note_on_c, 0, 62, 0
2, 384545, Note_on_c, 0, 61, 90
2, 384605, Note_on_c, 0, 61, 0
2, 384605, Note_on_c, 0, 62, 90
2, 384665, Note_on_c, 0, 62, 0
2, 384665, Note_on_c, 0, 64, 90
2, 384725, Note_on_c, 0, 64, 0
2, 384725, Note_on_c, 0, 65, 90
2, 384785, Note_on_c, 0, 65, 0
2, 384785, Note_on_c, 0, 62, 90
2, 384845, Note_on_c, 0, 62, 0
2, 384845, Note_on_c, 0, 64, 90
2, 384905, Note_on_c, 0, 64, 0
2, 384905, Note_on_c, 0, 65, 90
2, 384965, Note_on_c, 0, 65, 0
2, 384965, Note_on_c, 0, 67, 90
2, 385025, Note_on_c, 0, 67, 0
2, 385025, Note_on_c, 0, 66, 90
2, 385085, Note_on_c, 0, 66, 0
2, 385085, Note_on_c, 0, 67, 90
2, 385145, Note_on_c, 0, 67, 0
2, 385145, Note_on_c, 0, 69, 90
2, 385205, Note_on_c, 0, 69, 0
2, 385205, Note_on_c, 0, 70, 90
2, 385265, Note_on_c, 0, 70, 0
2, 385265, Note_on_c, 0, 67, 90
2, 385325, Note_on_c, 0, 67, 0
2, 385325, Note_on_c, 0, 69, 90
2, 385385, Note_on_c, 0, 69, 0
2, 385385, Note_on_c, 0, 70, 90
2, 385445, Note_on_c, 0, 70, 0
2, 385445, Note_on_c, 0, 70, 90
2, 385460, Note_on_c, 0, 70, 0
2, 385460, Note_on_c, 0, 72, 90
2, 385475, Note_on_c, 0, 72, 0
2, 385475, Note_on_c, 0, 70, 90
2, 385565, Note_on_c, 0, 70, 0
2, 385565, Note_on_c, 0, 69, 90
2, 385685, Note_on_c, 0, 69, 0
2, 385745, Note_on_c, 0, 69, 90
2, 385805, Note_on_c, 0, 69, 0
2, 385805, Note_on_c, 0, 67, 90
2, 385865, Note_on_c, 0, 67, 0
2, 385865, Note_on_c, 0, 69, 90
2, 385925, Note_on_c, 0, 69, 0
2, 385925, Note_on_c, 0, 70, 90
2, 385985, Note_on_c, 0, 70, 0
2, 385985, Note_on_c, 0, 74, 90
2, 386045, Note_on_c, 0, 74, 0
2, 386045, Note_on_c, 0, 72, 90
2, 386105, Note_on_c, 0, 72, 0
2, 386105, Note_on_c, 0, 70, 90
2, 386165, Note_on_c, 0, 70, 0
2, 386165, Note_on_c, 0, 72, 90
2, 386225, Note_on_c, 0, 72, 0
2, 386225, Note_on_c, 0, 70, 90
2, 386285, Note_on_c, 0, 70, 0
2, 386285, Note_on_c, 0, 69, 90
2, 386345, Note_on_c, 0, 69, 0
2, 386345, Note_on_c, 0, 67, 90
2, 386405, Note_on_c, 0, 67, 0
2, 386405, Note_on_c, 0, 65, 90
2, 386465, Note_on_c, 0, 65, 0
2, 386465, Note_on_c, 0, 70, 90
2, 386525, Note_on_c, 0, 70, 0
2, 386525, Note_on_c, 0, 69, 90
2, 386585, Note_on_c, 0, 69, 0
2, 386585, Note_on_c, 0, 67, 90
2, 386645, Note_on_c, 0, 67, 0
2, 386645, Note_on_c, 0, 69, 90
2, 386705, Note_on_c, 0, 69, 0
2, 386705, Note_on_c, 0, 67, 90
2, 386765, Note_on_c, 0, 67, 0
2, 386765, Note_on_c, 0, 65, 90
2, 386825, Note_on_c, 0, 65, 0
2, 386825, Note_on_c, 0, 64, 90
2, 386885, Note_on_c, 0, 64, 0
2, 386885, Note_on_c, 0, 62, 90
2, 386945, Note_on_c, 0, 62, 0
2, 386945, Note_on_c, 0, 67, 90
2, 387005, Note_on_c, 0, 67, 0
2, 387005, Note_on_c, 0, 69, 90
2, 387005, Note_on_c, 0, 65, 90
2, 387065, Note_on_c, 0, 65, 0
2, 387065, Note_on_c, 0, 64, 90
2, 387125, Note_on_c, 0, 64, 0
2, 387125, Note_on_c, 0, 69, 0
2, 387125, Note_on_c, 0, 81, 90
2, 387125, Note_on_c, 0, 65, 90
2, 387185, Note_on_c, 0, 65, 0
2, 387185, Note_on_c, 0, 64, 90
2, 387245, Note_on_c, 0, 64, 0
2, 387245, Note_on_c, 0, 62, 90
2, 387305, Note_on_c, 0, 62, 0
2, 387305, Note_on_c, 0, 60, 90
2, 387365, Note_on_c, 0, 60, 0
2, 387365, Note_on_c, 0, 59, 90
2, 387485, Note_on_c, 0, 59, 0
2, 387485, Note_on_c, 0, 81, 0
2, 387485, Note_on_c, 0, 80, 90
2, 387485, Note_on_c, 0, 64, 90
2, 387545, Note_on_c, 0, 80, 0
2, 387545, Note_on_c, 0, 78, 90
2, 387605, Note_on_c, 0, 78, 0
2, 387605, Note_on_c, 0, 64, 0
2, 387605, Note_on_c, 0, 76, 90
2, 387605, Note_on_c, 0, 68, 90
2, 387665, Note_on_c, 0, 76, 0
2, 387665, Note_on_c, 0, 74, 90
2, 387725, Note_on_c, 0, 74, 0
2, 387725, Note_on_c, 0, 68, 0
2, 387725, Note_on_c, 0, 72, 90
2, 387725, Note_on_c, 0, 64, 90
2, 387785, Note_on_c, 0, 72, 0
2, 387785, Note_on_c, 0, 71, 90
2, 387845, Note_on_c, 0, 71, 0
2, 387845, Note_on_c, 0, 64, 0
2, 387845, Note_on_c, 0, 69, 90
2, 387845, Note_on_c, 0, 60, 90
2, 387905, Note_on_c, 0, 60, 0
2, 387905, Note_on_c, 0, 69, 0
2, 387905, Note_on_c, 0, 68, 90
2, 387905, Note_on_c, 0, 62, 90
2, 387965, Note_on_c, 0, 62, 0
2, 387965, Note_on_c, 0, 68, 0
2, 387965, Note_on_c, 0, 69, 90
2, 387965, Note_on_c, 0, 60, 90
2, 388025, Note_on_c, 0, 60, 0
2, 388025, Note_on_c, 0, 69, 0
2, 388025, Note_on_c, 0, 71, 90
2, 388025, Note_on_c, 0, 59, 90
2, 388085, Note_on_c, 0, 59, 0
2, 388085, Note_on_c, 0, 71, 0
2, 388085, Note_on_c, 0, 72, 90
2, 388085, Note_on_c, 0, 57, 90
2, 388145, Note_on_c, 0, 72, 0
2, 388145, Note_on_c, 0, 69, 90
2, 388205, Note_on_c, 0, 69, 0
2, 388205, Note_on_c, 0, 57, 0
2, 388205, Note_on_c, 0, 71, 90
2, 388205, Note_on_c, 0, 67, 90
2, 388265, Note_on_c, 0, 71, 0
2, 388265, Note_on_c, 0, 72, 90
2, 388325, Note_on_c, 0, 72, 0
2, 388325, Note_on_c, 0, 67, 0
2, 388325, Note_on_c, 0, 74, 90
2, 388325, Note_on_c, 0, 65, 90
2, 388385, Note_on_c, 0, 65, 0
2, 388385, Note_on_c, 0, 74, 0
2, 388385, Note_on_c, 0, 73, 90
2, 388385, Note_on_c, 0, 67, 90
2, 388445, Note_on_c, 0, 67, 0
2, 388445, Note_on_c, 0, 73, 0
2, 388445, Note_on_c, 0, 74, 90
2, 388445, Note_on_c, 0, 65, 90
2, 388505, Note_on_c, 0, 65, 0
2, 388505, Note_on_c, 0, 74, 0
2, 388505, Note_on_c, 0, 76, 90
2, 388505, Note_on_c, 0, 64, 90
2, 388565, Note_on_c, 0, 64, 0
2, 388565, Note_on_c, 0, 76, 0
2, 388565, Note_on_c, 0, 77, 90
2, 388565, Note_on_c, 0, 62, 90
2, 388625, Note_on_c, 0, 77, 0
2, 388625, Note_on_c, 0, 74, 90
2, 388685, Note_on_c, 0, 74, 0
2, 388685, Note_on_c, 0, 62, 0
2, 388685, Note_on_c, 0, 76, 90
2, 388685, Note_on_c, 0, 74, 90
2, 388745, Note_on_c, 0, 76, 0
2, 388745, Note_on_c, 0, 77, 90
2, 388805, Note_on_c, 0, 77, 0
2, 388805, Note_on_c, 0, 74, 0
2, 388805, Note_on_c, 0, 77, 90
2, 388805, Note_on_c, 0, 68, 90
2, 388820, Note_on_c, 0, 77, 0
2, 388820, Note_on_c, 0, 79, 90
2, 388835, Note_on_c, 0, 79, 0
2, 388835, Note_on_c, 0, 77, 90
2, 388925, Note_on_c, 0, 77, 0
2, 388925, Note_on_c, 0, 68, 0
2, 388925, Note_on_c, 0, 76, 90
2, 388925, Note_on_c, 0, 69, 90
2, 388985, Note_on_c, 0, 69, 0
2, 388985, Note_on_c, 0, 71, 90
2, 389045, Note_on_c, 0, 71, 0
2, 389045, Note_on_c, 0, 76, 0
2, 389045, Note_on_c, 0, 72, 90
2, 389105, Note_on_c, 0, 76, 90
2, 389165, Note_on_c, 0, 76, 0
2, 389165, Note_on_c, 0, 72, 0
2, 389165, Note_on_c, 0, 74, 90
2, 389165, Note_on_c, 0, 71, 90
2, 389225, Note_on_c, 0, 74, 0
2, 389225, Note_on_c, 0, 76, 90
2, 389285, Note_on_c, 0, 76, 0
2, 389285, Note_on_c, 0, 71, 0
2, 389285, Note_on_c, 0, 77, 90
2, 389285, Note_on_c, 0, 69, 90
2, 389345, Note_on_c, 0, 77, 0
2, 389345, Note_on_c, 0, 81, 90
2, 389405, Note_on_c, 0, 81, 0
2, 389405, Note_on_c, 0, 79, 90
2, 389465, Note_on_c, 0, 79, 0
2, 389465, Note_on_c, 0, 77, 90
2, 389525, Note_on_c, 0, 77, 0
2, 389525, Note_on_c, 0, 69, 0
2, 389525, Note_on_c, 0, 79, 90
2, 389585, Note_on_c, 0, 79, 0
2, 389585, Note_on_c, 0, 77, 90
2, 389645, Note_on_c, 0, 77, 0
2, 389645, Note_on_c, 0, 76, 90
2, 389645, Note_on_c, 0, 68, 90
2, 389705, Note_on_c, 0, 76, 0
2, 389705, Note_on_c, 0, 74, 90
2, 389765, Note_on_c, 0, 74, 0
2, 389765, Note_on_c, 0, 68, 0
2, 389765, Note_on_c, 0, 72, 90
2, 389765, Note_on_c, 0, 69, 90
2, 389825, Note_on_c, 0, 72, 0
2, 389825, Note_on_c, 0, 77, 90
2, 389885, Note_on_c, 0, 77, 0
2, 389885, Note_on_c, 0, 76, 90
2, 389945, Note_on_c, 0, 76, 0
2, 389945, Note_on_c, 0, 74, 90
2, 390005, Note_on_c, 0, 74, 0
2, 390005, Note_on_c, 0, 69, 0
2, 390005, Note_on_c, 0, 76, 90
2, 390065, Note_on_c, 0, 76, 0
2, 390065, Note_on_c, 0, 74, 90
2, 390125, Note_on_c, 0, 74, 0
2, 390125, Note_on_c, 0, 72, 90
2, 390125, Note_on_c, 0, 64, 90
2, 390185, Note_on_c, 0, 72, 0
2, 390185, Note_on_c, 0, 70, 90
2, 390245, Note_on_c, 0, 70, 0
2, 390245, Note_on_c, 0, 64, 0
2, 390245, Note_on_c, 0, 69, 90
2, 390245, Note_on_c, 0, 65, 90
2, 390305, Note_on_c, 0, 69, 0
2, 390305, Note_on_c, 0, 74, 90
2, 390365, Note_on_c, 0, 74, 0
2, 390365, Note_on_c, 0, 72, 90
2, 390425, Note_on_c, 0, 72, 0
2, 390425, Note_on_c, 0, 70, 90
2, 390485, Note_on_c, 0, 70, 0
2, 390485, Note_on_c, 0, 65, 0
2, 390485, Note_on_c, 0, 72, 90
2, 390545, Note_on_c, 0, 72, 0
2, 390545, Note_on_c, 0, 70, 90
2, 390605, Note_on_c, 0, 70, 0
2, 390605, Note_on_c, 0, 69, 90
2, 390605, Note_on_c, 0, 65, 90
2, 390665, Note_on_c, 0, 69, 0
2, 390665, Note_on_c, 0, 68, 90
2, 390725, Note_on_c, 0, 68, 0
2, 390725, Note_on_c, 0, 65, 0
2, 390725, Note_on_c, 0, 69, 90
2, 390725, Note_on_c, 0, 64, 90
2, 390845, Note_on_c, 0, 69, 0
2, 390845, Note_on_c, 0, 76, 90
2, 390965, Note_on_c, 0, 76, 0
2, 390965, Note_on_c, 0, 64, 0
2, 390965, Note_on_c, 0, 73, 90
2, 391085, Note_on_c, 0, 67, 90
2, 391205, Note_on_c, 0, 73, 0
2, 391205, Note_on_c, 0, 74, 90
2, 391325, Note_on_c, 0, 67, 0
2, 391325, Note_on_c, 0, 65, 90
2, 391385, Note_on_c, 0, 65, 0
2, 391385, Note_on_c, 0, 67, 90
2, 391445, Note_on_c, 0, 67, 0
2, 391445, Note_on_c, 0, 74, 0
2, 391445, Note_on_c, 0, 69, 90
2, 391565, Note_on_c, 0, 72, 90
2, 391685, Note_on_c, 0, 69, 0
2, 391685, Note_on_c, 0, 62, 90
2, 391805, Note_on_c, 0, 72, 0
2, 391805, Note_on_c, 0, 70, 90
2, 391865, Note_on_c, 0, 70, 0
2, 391865, Note_on_c, 0, 74, 90
2, 391925, Note_on_c, 0, 74, 0
2, 391925, Note_on_c, 0, 62, 0
2, 391925, Note_on_c, 0, 79, 90
2, 392045, Note_on_c, 0, 79, 0
2, 392045, Note_on_c, 0, 76, 90
2, 392045, Note_on_c, 0, 67, 90
2, 392165, Note_on_c, 0, 67, 0
2, 392165, Note_on_c, 0, 76, 0
2, 392165, Note_on_c, 0, 73, 90
2, 392165, Note_on_c, 0, 64, 90
2, 392285, Note_on_c, 0, 64, 0
2, 392285, Note_on_c, 0, 65, 90
2, 392345, Note_on_c, 0, 65, 0
2, 392345, Note_on_c, 0, 67, 90
2, 392405, Note_on_c, 0, 67, 0
2, 392405, Note_on_c, 0, 73, 0
2, 392405, Note_on_c, 0, 65, 90
2, 392525, Note_on_c, 0, 65, 0
2, 392525, Note_on_c, 0, 73, 90
2, 392525, Note_on_c, 0, 64, 90
2, 392645, Note_on_c, 0, 64, 0
2, 392645, Note_on_c, 0, 73, 0
2, 392645, Note_on_c, 0, 74, 90
2, 392645, Note_on_c, 0, 62, 90
2, 392765, Note_on_c, 0, 62, 0
2, 392765, Note_on_c, 0, 74, 0
2, 392765, Note_on_c, 0, 77, 90
2, 392885, Note_on_c, 0, 77, 0
2, 392885, Note_on_c, 0, 76, 90
2, 392915, Note_on_c, 0, 76, 0
2, 392915, Note_on_c, 0, 77, 90
2, 392945, Note_on_c, 0, 77, 0
2, 392945, Note_on_c, 0, 79, 90
2, 393005, Note_on_c, 0, 79, 0
2, 393005, Note_on_c, 0, 70, 90
2, 393005, Note_on_c, 0, 64, 90
2, 393125, Note_on_c, 0, 64, 0
2, 393125, Note_on_c, 0, 70, 0
2, 393125, Note_on_c, 0, 69, 90
2, 393125, Note_on_c, 0, 65, 90
2, 393245, Note_on_c, 0, 65, 0
2, 393245, Note_on_c, 0, 69, 0
2, 393245, Note_on_c, 0, 74, 90
2, 393365, Note_on_c, 0, 74, 0
2, 393365, Note_on_c, 0, 73, 90
2, 393395, Note_on_c, 0, 73, 0
2, 393395, Note_on_c, 0, 74, 90
2, 393425, Note_on_c, 0, 74, 0
2, 393425, Note_on_c, 0, 76, 90
2, 393485, Note_on_c, 0, 76, 0
2, 393485, Note_on_c, 0, 67, 90
2, 393485, Note_on_c, 0, 61, 90
2, 393605, Note_on_c, 0, 61, 0
2, 393605, Note_on_c, 0, 67, 0
2, 393605, Note_on_c, 0, 65, 90
2, 393605, Note_on_c, 0, 62, 90
2, 393845, Note_on_c, 0, 62, 0
2, 393845, Note_on_c, 0, 65, 0
2, 393965, Note_on_c, 0, 72, 90
2, 393965, Note_on_c, 0, 64, 90
2, 394085, Note_on_c, 0, 64, 0
2, 394085, Note_on_c, 0, 72, 0
2, 394085, Note_on_c, 0, 71, 90
2, 394085, Note_on_c, 0, 65, 90
2, 394205, Note_on_c, 0, 65, 0
2, 394205, Note_on_c, 0, 62, 90
2, 394325, Note_on_c, 0, 62, 0
2, 394325, Note_on_c, 0, 71, 0
2, 394385, Note_on_c, 0, 65, 90
2, 394445, Note_on_c, 0, 65, 0
2, 394445, Note_on_c, 0, 68, 90
2, 394445, Note_on_c, 0, 64, 90
2, 394505, Note_on_c, 0, 64, 0
2, 394505, Note_on_c, 0, 62, 90
2, 394565, Note_on_c, 0, 62, 0
2, 394565, Note_on_c, 0, 68, 0
2, 394565, Note_on_c, 0, 69, 90
2, 394565, Note_on_c, 0, 60, 90
2, 394625, Note_on_c, 0, 60, 0
2, 394625, Note_on_c, 0, 59, 90
2, 394685, Note_on_c, 0, 59, 0
2, 394685, Note_on_c, 0, 60, 90
2, 394745, Note_on_c, 0, 60, 0
2, 394745, Note_on_c, 0, 62, 90
2, 394805, Note_on_c, 0, 62, 0
2, 394805, Note_on_c, 0, 64, 90
2, 394865, Note_on_c, 0, 64, 0
2, 394865, Note_on_c, 0, 60, 90
2, 394925, Note_on_c, 0, 60, 0
2, 394925, Note_on_c, 0, 62, 90
2, 394985, Note_on_c, 0, 62, 0
2, 394985, Note_on_c, 0, 64, 90
2, 395045, Note_on_c, 0, 64, 0
2, 395045, Note_on_c, 0, 65, 90
2, 395165, Note_on_c, 0, 65, 0
2, 395525, Note_on_c, 0, 69, 0
2, 395525, Note_on_c, 0, 71, 90
2, 395585, Note_on_c, 0, 71, 0
2, 395585, Note_on_c, 0, 72, 90
2, 395645, Note_on_c, 0, 72, 0
2, 395645, Note_on_c, 0, 74, 90
2, 395705, Note_on_c, 0, 74, 0
2, 395705, Note_on_c, 0, 71, 90
2, 395765, Note_on_c, 0, 71, 0
2, 395765, Note_on_c, 0, 72, 90
2, 396245, Note_on_c, 0, 72, 0
2, 396245, Note_on_c, 0, 70, 90
2, 396485, Note_on_c, 0, 70, 0
2, 396485, Note_on_c, 0, 69, 90
2, 396725, Note_on_c, 0, 69, 0
2, 396725, Note_on_c, 0, 67, 90
2, 396965, Note_on_c, 0, 67, 0
2, 396965, Note_on_c, 0, 65, 90
2, 397025, Note_on_c, 0, 65, 0
2, 397025, Note_on_c, 0, 69, 90
2, 397085, Note_on_c, 0, 69, 0
2, 397085, Note_on_c, 0, 67, 90
2, 397145, Note_on_c, 0, 67, 0
2, 397145, Note_on_c, 0, 65, 90
2, 397205, Note_on_c, 0, 65, 0
2, 397205, Note_on_c, 0, 67, 90
2, 397265, Note_on_c, 0, 67, 0
2, 397265, Note_on_c, 0, 65, 90
2, 397325, Note_on_c, 0, 65, 0
2, 397325, Note_on_c, 0, 64, 90
2, 397385, Note_on_c, 0, 64, 0
2, 397385, Note_on_c, 0, 62, 90
2, 397445, Note_on_c, 0, 62, 0
2, 397445, Note_on_c, 0, 67, 90
2, 397505, Note_on_c, 0, 67, 0
2, 397505, Note_on_c, 0, 70, 90
2, 397565, Note_on_c, 0, 70, 0
2, 397565, Note_on_c, 0, 69, 90
2, 397625, Note_on_c, 0, 69, 0
2, 397625, Note_on_c, 0, 67, 90
2, 397685, Note_on_c, 0, 67, 0
2, 397685, Note_on_c, 0, 69, 90
2, 397745, Note_on_c, 0, 69, 0
2, 397745, Note_on_c, 0, 67, 90
2, 397805, Note_on_c, 0, 67, 0
2, 397805, Note_on_c, 0, 65, 90
2, 397865, Note_on_c, 0, 65, 0
2, 397865, Note_on_c, 0, 64, 90
2, 397925, Note_on_c, 0, 64, 0
2, 397925, Note_on_c, 0, 69, 90
2, 398045, Note_on_c, 0, 69, 0
2, 398045, Note_on_c, 0, 72, 90
2, 398165, Note_on_c, 0, 72, 0
2, 398165, Note_on_c, 0, 77, 90
2, 398285, Note_on_c, 0, 69, 90
2, 398405, Note_on_c, 0, 69, 0
2, 398405, Note_on_c, 0, 70, 90
2, 398465, Note_on_c, 0, 70, 0
2, 398465, Note_on_c, 0, 74, 90
2, 398525, Note_on_c, 0, 74, 0
2, 398525, Note_on_c, 0, 72, 90
2, 398585, Note_on_c, 0, 72, 0
2, 398585, Note_on_c, 0, 70, 90
2, 398645, Note_on_c, 0, 70, 0
2, 398645, Note_on_c, 0, 77, 0
2, 398645, Note_on_c, 0, 76, 90
2, 398645, Note_on_c, 0, 72, 90
2, 398705, Note_on_c, 0, 72, 0
2, 398705, Note_on_c, 0, 70, 90
2, 398765, Note_on_c, 0, 70, 0
2, 398765, Note_on_c, 0, 69, 90
2, 398825, Note_on_c, 0, 69, 0
2, 398825, Note_on_c, 0, 67, 90
2, 398885, Note_on_c, 0, 67, 0
2, 398885, Note_on_c, 0, 65, 90
2, 398945, Note_on_c, 0, 65, 0
2, 398945, Note_on_c, 0, 69, 90
2, 399005, Note_on_c, 0, 69, 0
2, 399005, Note_on_c, 0, 67, 90
2, 399065, Note_on_c, 0, 67, 0
2, 399065, Note_on_c, 0, 65, 90
2, 399125, Note_on_c, 0, 65, 0
2, 399125, Note_on_c, 0, 76, 0
2, 399125, Note_on_c, 0, 74, 90
2, 399125, Note_on_c, 0, 67, 90
2, 399185, Note_on_c, 0, 67, 0
2, 399185, Note_on_c, 0, 65, 90
2, 399245, Note_on_c, 0, 65, 0
2, 399245, Note_on_c, 0, 64, 90
2, 399305, Note_on_c, 0, 64, 0
2, 399305, Note_on_c, 0, 62, 90
2, 399365, Note_on_c, 0, 62, 0
2, 399365, Note_on_c, 0, 64, 90
2, 399425, Note_on_c, 0, 64, 0
2, 399425, Note_on_c, 0, 70, 90
2, 399485, Note_on_c, 0, 70, 0
2, 399485, Note_on_c, 0, 69, 90
2, 399545, Note_on_c, 0, 69, 0
2, 399545, Note_on_c, 0, 67, 90
2, 399605, Note_on_c, 0, 67, 0
2, 399605, Note_on_c, 0, 74, 0
2, 399605, Note_on_c, 0, 73, 90
2, 399605, Note_on_c, 0, 69, 90
2, 399665, Note_on_c, 0, 69, 0
2, 399665, Note_on_c, 0, 67, 90
2, 399725, Note_on_c, 0, 67, 0
2, 399725, Note_on_c, 0, 65, 90
2, 399785, Note_on_c, 0, 65, 0
2, 399785, Note_on_c, 0, 64, 90
2, 399845, Note_on_c, 0, 64, 0
2, 399845, Note_on_c, 0, 73, 0
2, 399845, Note_on_c, 0, 74, 90
2, 399845, Note_on_c, 0, 62, 90
2, 399905, Note_on_c, 0, 62, 0
2, 399905, Note_on_c, 0, 72, 90
2, 399965, Note_on_c, 0, 72, 0
2, 399965, Note_on_c, 0, 70, 90
2, 400025, Note_on_c, 0, 70, 0
2, 400025, Note_on_c, 0, 69, 90
2, 400085, Note_on_c, 0, 69, 0
2, 400085, Note_on_c, 0, 67, 90
2, 400145, Note_on_c, 0, 67, 0
2, 400145, Note_on_c, 0, 65, 90
2, 400205, Note_on_c, 0, 65, 0
2, 400205, Note_on_c, 0, 64, 90
2, 400265, Note_on_c, 0, 64, 0
2, 400265, Note_on_c, 0, 67, 90
2, 400325, Note_on_c, 0, 67, 0
2, 400325, Note_on_c, 0, 74, 0
2, 400325, Note_on_c, 0, 81, 90
2, 400325, Note_on_c, 0, 65, 90
2, 400445, Note_on_c, 0, 65, 0
2, 400445, Note_on_c, 0, 64, 90
2, 400565, Note_on_c, 0, 64, 0
2, 400685, Note_on_c, 0, 73, 90
2, 400805, Note_on_c, 0, 73, 0
2, 400805, Note_on_c, 0, 81, 0
2, 400805, Note_on_c, 0, 77, 90
2, 400805, Note_on_c, 0, 74, 90
2, 400925, Note_on_c, 0, 74, 0
2, 400925, Note_on_c, 0, 69, 90
2, 401045, Note_on_c, 0, 69, 0
2, 401045, Note_on_c, 0, 74, 90
2, 401165, Note_on_c, 0, 74, 0
2, 401165, Note_on_c, 0, 72, 90
2, 401285, Note_on_c, 0, 77, 0
2, 401285, Note_on_c, 0, 74, 90
2, 401405, Note_on_c, 0, 72, 0
2, 401405, Note_on_c, 0, 70, 90
2, 401465, Note_on_c, 0, 70, 0
2, 401465, Note_on_c, 0, 69, 90
2, 401525, Note_on_c, 0, 69, 0
2, 401525, Note_on_c, 0, 67, 90
2, 401645, Note_on_c, 0, 67, 0
2, 401645, Note_on_c, 0, 65, 90
2, 401765, Note_on_c, 0, 65, 0
2, 401765, Note_on_c, 0, 74, 0
2, 401765, Note_on_c, 0, 73, 90
2, 401765, Note_on_c, 0, 64, 90
2, 401885, Note_on_c, 0, 64, 0
2, 401885, Note_on_c, 0, 65, 90
2, 401945, Note_on_c, 0, 65, 0
2, 401945, Note_on_c, 0, 67, 90
2, 402005, Note_on_c, 0, 67, 0
2, 402005, Note_on_c, 0, 65, 90
2, 402125, Note_on_c, 0, 65, 0
2, 402125, Note_on_c, 0, 64, 90
2, 402245, Note_on_c, 0, 64, 0
2, 402245, Note_on_c, 0, 73, 0
2, 402245, Note_on_c, 0, 74, 90
2, 402245, Note_on_c, 0, 62, 90
2, 402365, Note_on_c, 0, 62, 0
2, 402365, Note_on_c, 0, 67, 90
2, 402485, Note_on_c, 0, 74, 0
2, 402485, Note_on_c, 0, 76, 90
2, 402605, Note_on_c, 0, 67, 0
2, 402605, Note_on_c, 0, 70, 90
2, 402725, Note_on_c, 0, 70, 0
2, 402725, Note_on_c, 0, 76, 0
2, 402725, Note_on_c, 0, 77, 90
2, 402725, Note_on_c, 0, 69, 90
2, 402845, Note_on_c, 0, 69, 0
2, 402845, Note_on_c, 0, 72, 90
2, 402965, Note_on_c, 0, 72, 0
2, 402965, Note_on_c, 0, 65, 90
2, 403085, Note_on_c, 0, 65, 0
2, 403085, Note_on_c, 0, 69, 90
2, 403145, Note_on_c, 0, 69, 0
2, 403145, Note_on_c, 0, 67, 90
2, 403205, Note_on_c, 0, 67, 0
2, 403205, Note_on_c, 0, 69, 90
2, 403265, Note_on_c, 0, 69, 0
2, 403265, Note_on_c, 0, 76, 90
2, 403325, Note_on_c, 0, 76, 0
2, 403325, Note_on_c, 0, 77, 0
2, 403325, Note_on_c, 0, 79, 90
2, 403325, Note_on_c, 0, 74, 90
2, 403385, Note_on_c, 0, 74, 0
2, 403385, Note_on_c, 0, 73, 90
2, 403445, Note_on_c, 0, 73, 0
2, 403445, Note_on_c, 0, 79, 0
2, 403445, Note_on_c, 0, 77, 90
2, 403445, Note_on_c, 0, 74, 90
2, 403505, Note_on_c, 0, 74, 0
2, 403505, Note_on_c, 0, 72, 90
2, 403565, Note_on_c, 0, 72, 0
2, 403565, Note_on_c, 0, 77, 0
2, 403565, Note_on_c, 0, 76, 90
2, 403565, Note_on_c, 0, 70, 90
2, 403625, Note_on_c, 0, 70, 0
2, 403625, Note_on_c, 0, 69, 90
2, 403685, Note_on_c, 0, 69, 0
2, 403685, Note_on_c, 0, 76, 0
2, 403685, Note_on_c, 0, 74, 90
2, 403685, Note_on_c, 0, 70, 90
2, 403805, Note_on_c, 0, 70, 0
2, 403805, Note_on_c, 0, 72, 90
2, 403925, Note_on_c, 0, 72, 0
2, 403925, Note_on_c, 0, 70, 90
2, 404045, Note_on_c, 0, 70, 0
2, 404045, Note_on_c, 0, 69, 90
2, 404165, Note_on_c, 0, 69, 0
2, 404165, Note_on_c, 0, 67, 90
2, 404225, Note_on_c, 0, 74, 0
2, 404225, Note_on_c, 0, 74, 90
2, 404285, Note_on_c, 0, 74, 0
2, 404285, Note_on_c, 0, 72, 90
2, 404345, Note_on_c, 0, 72, 0
2, 404345, Note_on_c, 0, 70, 90
2, 404405, Note_on_c, 0, 70, 0
2, 404405, Note_on_c, 0, 67, 0
2, 404405, Note_on_c, 0, 72, 90
2, 404465, Note_on_c, 0, 72, 0
2, 404465, Note_on_c, 0, 70, 90
2, 404525, Note_on_c, 0, 70, 0
2, 404525, Note_on_c, 0, 69, 90
2, 404585, Note_on_c, 0, 69, 0
2, 404585, Note_on_c, 0, 67, 90
2, 404645, Note_on_c, 0, 67, 0
2, 404645, Note_on_c, 0, 69, 90
2, 404705, Note_on_c, 0, 69, 0
2, 404705, Note_on_c, 0, 84, 90
2, 404765, Note_on_c, 0, 84, 0
2, 404765, Note_on_c, 0, 82, 90
2, 404765, Note_on_c, 0, 60, 90
2, 404825, Note_on_c, 0, 82, 0
2, 404825, Note_on_c, 0, 81, 90
2, 404885, Note_on_c, 0, 81, 0
2, 404885, Note_on_c, 0, 60, 0
2, 404885, Note_on_c, 0, 82, 90
2, 404885, Note_on_c, 0, 72, 90
2, 404945, Note_on_c, 0, 82, 0
2, 404945, Note_on_c, 0, 81, 90
2, 405005, Note_on_c, 0, 81, 0
2, 405005, Note_on_c, 0, 79, 90
2, 405065, Note_on_c, 0, 79, 0
2, 405065, Note_on_c, 0, 77, 90
2, 405125, Note_on_c, 0, 77, 0
2, 405125, Note_on_c, 0, 76, 90
2, 405185, Note_on_c, 0, 76, 0
2, 405185, Note_on_c, 0, 77, 90
2, 405245, Note_on_c, 0, 77, 0
2, 405245, Note_on_c, 0, 72, 0
2, 405245, Note_on_c, 0, 79, 90
2, 405245, Note_on_c, 0, 70, 90
2, 405305, Note_on_c, 0, 70, 0
2, 405305, Note_on_c, 0, 69, 90
2, 405365, Note_on_c, 0, 69, 0
2, 405365, Note_on_c, 0, 79, 0
2, 405365, Note_on_c, 0, 67, 90
2, 405425, Note_on_c, 0, 67, 0
2, 405425, Note_on_c, 0, 65, 90
2, 405485, Note_on_c, 0, 65, 0
2, 405485, Note_on_c, 0, 79, 90
2, 405485, Note_on_c, 0, 64, 90
2, 405545, Note_on_c, 0, 64, 0
2, 405545, Note_on_c, 0, 62, 90
2, 405605, Note_on_c, 0, 62, 0
2, 405605, Note_on_c, 0, 79, 0
2, 405605, Note_on_c, 0, 79, 90
2, 405605, Note_on_c, 0, 60, 90
2, 405665, Note_on_c, 0, 60, 0
2, 405665, Note_on_c, 0, 58, 90
2, 405725, Note_on_c, 0, 58, 0
2, 405725, Note_on_c, 0, 79, 0
2, 405725, Note_on_c, 0, 77, 90
2, 405725, Note_on_c, 0, 60, 90
2, 405785, Note_on_c, 0, 60, 0
2, 405785, Note_on_c, 0, 62, 90
2, 405845, Note_on_c, 0, 62, 0
2, 405845, Note_on_c, 0, 77, 0
2, 405845, Note_on_c, 0, 64, 90
2, 405905, Note_on_c, 0, 64, 0
2, 405905, Note_on_c, 0, 72, 90
2, 405905, Note_on_c, 0, 60, 90
2, 405965, Note_on_c, 0, 60, 0
2, 405965, Note_on_c, 0, 72, 0
2, 405965, Note_on_c, 0, 70, 90
2, 405965, Note_on_c, 0, 62, 90
2, 406025, Note_on_c, 0, 62, 0
2, 406025, Note_on_c, 0, 70, 0
2, 406025, Note_on_c, 0, 72, 90
2, 406025, Note_on_c, 0, 64, 90
2, 406085, Note_on_c, 0, 64, 0
2, 406085, Note_on_c, 0, 72, 0
2, 406085, Note_on_c, 0, 69, 90
2, 406085, Note_on_c, 0, 65, 90
2, 406145, Note_on_c, 0, 65, 0
2, 406145, Note_on_c, 0, 64, 90
2, 406205, Note_on_c, 0, 64, 0
2, 406205, Note_on_c, 0, 69, 0
2, 406205, Note_on_c, 0, 74, 90
2, 406205, Note_on_c, 0, 65, 90
2, 406265, Note_on_c, 0, 65, 0
2, 406265, Note_on_c, 0, 67, 90
2, 406325, Note_on_c, 0, 67, 0
2, 406325, Note_on_c, 0, 74, 0
2, 406325, Note_on_c, 0, 72, 90
2, 406325, Note_on_c, 0, 69, 90
2, 406385, Note_on_c, 0, 69, 0
2, 406385, Note_on_c, 0, 65, 90
2, 406445, Note_on_c, 0, 65, 0
2, 406445, Note_on_c, 0, 72, 0
2, 406445, Note_on_c, 0, 71, 90
2, 406445, Note_on_c, 0, 67, 90
2, 406505, Note_on_c, 0, 67, 0
2, 406505, Note_on_c, 0, 69, 90
2, 406565, Note_on_c, 0, 69, 0
2, 406565, Note_on_c, 0, 71, 0
2, 406565, Note_on_c, 0, 72, 90
2, 406565, Note_on_c, 0, 69, 90
2, 406580, Note_on_c, 0, 69, 0
2, 406580, Note_on_c, 0, 70, 90
2, 406595, Note_on_c, 0, 70, 0
2, 406595, Note_on_c, 0, 69, 90
2, 406685, Note_on_c, 0, 69, 0
2, 406685, Note_on_c, 0, 72, 0
2, 406685, Note_on_c, 0, 70, 90
2, 406685, Note_on_c, 0, 67, 90
2, 406745, Note_on_c, 0, 70, 0
2, 406745, Note_on_c, 0, 69, 90
2, 406805, Note_on_c, 0, 69, 0
2, 406805, Note_on_c, 0, 67, 0
2, 406805, Note_on_c, 0, 70, 90
2, 406865, Note_on_c, 0, 67, 90
2, 406925, Note_on_c, 0, 67, 0
2, 406925, Note_on_c, 0, 65, 90
2, 406985, Note_on_c, 0, 65, 0
2, 406985, Note_on_c, 0, 67, 90
2, 407045, Note_on_c, 0, 67, 0
2, 407045, Note_on_c, 0, 70, 0
2, 407045, Note_on_c, 0, 69, 90
2, 407045, Note_on_c, 0, 69, 90
2, 407105, Note_on_c, 0, 69, 0
2, 407105, Note_on_c, 0, 72, 90
2, 407165, Note_on_c, 0, 72, 0
2, 407165, Note_on_c, 0, 69, 0
2, 407165, Note_on_c, 0, 77, 90
2, 407165, Note_on_c, 0, 70, 90
2, 407225, Note_on_c, 0, 70, 0
2, 407225, Note_on_c, 0, 69, 90
2, 407285, Note_on_c, 0, 69, 0
2, 407285, Note_on_c, 0, 77, 0
2, 407285, Note_on_c, 0, 74, 90
2, 407285, Note_on_c, 0, 70, 90
2, 407345, Note_on_c, 0, 70, 0
2, 407345, Note_on_c, 0, 69, 90
2, 407405, Note_on_c, 0, 69, 0
2, 407405, Note_on_c, 0, 67, 90
2, 407465, Note_on_c, 0, 67, 0
2, 407465, Note_on_c, 0, 65, 90
2, 407525, Note_on_c, 0, 65, 0
2, 407525, Note_on_c, 0, 64, 90
2, 407585, Note_on_c, 0, 64, 0
2, 407585, Note_on_c, 0, 74, 0
2, 407585, Note_on_c, 0, 72, 90
2, 407585, Note_on_c, 0, 69, 90
2, 407645, Note_on_c, 0, 69, 0
2, 407645, Note_on_c, 0, 72, 0
2, 407645, Note_on_c, 0, 70, 90
2, 407645, Note_on_c, 0, 67, 90
2, 407705, Note_on_c, 0, 67, 0
2, 407705, Note_on_c, 0, 70, 0
2, 407705, Note_on_c, 0, 69, 90
2, 407705, Note_on_c, 0, 65, 90
2, 407765, Note_on_c, 0, 65, 0
2, 407765, Note_on_c, 0, 69, 0
2, 407765, Note_on_c, 0, 70, 90
2, 407765, Note_on_c, 0, 67, 90
2, 407825, Note_on_c, 0, 67, 0
2, 407825, Note_on_c, 0, 70, 0
2, 407825, Note_on_c, 0, 69, 90
2, 407825, Note_on_c, 0, 65, 90
2, 407885, Note_on_c, 0, 65, 0
2, 407885, Note_on_c, 0, 69, 0
2, 407885, Note_on_c, 0, 67, 90
2, 407885, Note_on_c, 0, 64, 90
2, 407945, Note_on_c, 0, 64, 0
2, 407945, Note_on_c, 0, 67, 0
2, 407945, Note_on_c, 0, 65, 90
2, 407945, Note_on_c, 0, 62, 90
2, 408005, Note_on_c, 0, 62, 0
2, 408005, Note_on_c, 0, 65, 0
2, 408005, Note_on_c, 0, 64, 90
2, 408005, Note_on_c, 0, 60, 90
2, 408065, Note_on_c, 0, 64, 0
2, 408065, Note_on_c, 0, 65, 90
2, 408125, Note_on_c, 0, 65, 0
2, 408125, Note_on_c, 0, 67, 90
2, 408185, Note_on_c, 0, 67, 0
2, 408185, Note_on_c, 0, 69, 90
2, 408245, Note_on_c, 0, 69, 0
2, 408245, Note_on_c, 0, 60, 0
2, 408245, Note_on_c, 0, 70, 90
2, 408305, Note_on_c, 0, 60, 90
2, 408365, Note_on_c, 0, 60, 0
2, 408365, Note_on_c, 0, 62, 90
2, 408425, Note_on_c, 0, 62, 0
2, 408425, Note_on_c, 0, 64, 90
2, 408485, Note_on_c, 0, 64, 0
2, 408485, Note_on_c, 0, 65, 90
2, 408545, Note_on_c, 0, 70, 0
2, 408545, Note_on_c, 0, 69, 90
2, 408605, Note_on_c, 0, 69, 0
2, 408605, Note_on_c, 0, 71, 90
2, 408665, Note_on_c, 0, 71, 0
2, 408665, Note_on_c, 0, 72, 90
2, 408725, Note_on_c, 0, 72, 0
2, 408725, Note_on_c, 0, 74, 90
2, 408785, Note_on_c, 0, 65, 0
2, 408785, Note_on_c, 0, 64, 90
2, 408845, Note_on_c, 0, 64, 0
2, 408845, Note_on_c, 0, 66, 90
2, 408905, Note_on_c, 0, 66, 0
2, 408905, Note_on_c, 0, 68, 90
2, 408965, Note_on_c, 0, 68, 0
2, 408965, Note_on_c, 0, 69, 90
2, 409025, Note_on_c, 0, 74, 0
2, 409025, Note_on_c, 0, 72, 90
2, 409085, Note_on_c, 0, 72, 0
2, 409085, Note_on_c, 0, 74, 90
2, 409145, Note_on_c, 0, 74, 0
2, 409145, Note_on_c, 0, 76, 90
2, 409205, Note_on_c, 0, 76, 0
2, 409205, Note_on_c, 0, 77, 90
2, 409265, Note_on_c, 0, 69, 0
2, 409265, Note_on_c, 0, 67, 90
2, 409325, Note_on_c, 0, 67, 0
2, 409325, Note_on_c, 0, 69, 90
2, 409385, Note_on_c, 0, 69, 0
2, 409385, Note_on_c, 0, 71, 90
2, 409445, Note_on_c, 0, 71, 0
2, 409445, Note_on_c, 0, 72, 90
2, 409505, Note_on_c, 0, 77, 0
2, 409505, Note_on_c, 0, 77, 90
2, 409565, Note_on_c, 0, 77, 0
2, 409565, Note_on_c, 0, 72, 0
2, 409565, Note_on_c, 0, 76, 90
2, 409565, Note_on_c, 0, 64, 90
2, 409625, Note_on_c, 0, 76, 0
2, 409625, Note_on_c, 0, 74, 90
2, 409685, Note_on_c, 0, 74, 0
2, 409685, Note_on_c, 0, 64, 0
2, 409685, Note_on_c, 0, 76, 90
2, 409685, Note_on_c, 0, 66, 90
2, 409745, Note_on_c, 0, 76, 0
2, 409745, Note_on_c, 0, 74, 90
2, 409805, Note_on_c, 0, 74, 0
2, 409805, Note_on_c, 0, 66, 0
2, 409805, Note_on_c, 0, 72, 90
2, 409805, Note_on_c, 0, 68, 90
2, 409865, Note_on_c, 0, 72, 0
2, 409865, Note_on_c, 0, 71, 90
2, 409925, Note_on_c, 0, 71, 0
2, 409925, Note_on_c, 0, 68, 0
2, 409925, Note_on_c, 0, 72, 90
2, 409925, Note_on_c, 0, 69, 90
2, 409985, Note_on_c, 0, 72, 0
2, 409985, Note_on_c, 0, 74, 90
2, 410045, Note_on_c, 0, 74, 0
2, 410045, Note_on_c, 0, 69, 0
2, 410045, Note_on_c, 0, 72, 90
2, 410045, Note_on_c, 0, 60, 90
2, 410105, Note_on_c, 0, 72, 0
2, 410105, Note_on_c, 0, 70, 90
2, 410165, Note_on_c, 0, 70, 0
2, 410165, Note_on_c, 0, 60, 0
2, 410165, Note_on_c, 0, 72, 90
2, 410165, Note_on_c, 0, 62, 90
2, 410225, Note_on_c, 0, 72, 0
2, 410225, Note_on_c, 0, 70, 90
2, 410285, Note_on_c, 0, 70, 0
2, 410285, Note_on_c, 0, 62, 0
2, 410285, Note_on_c, 0, 69, 90
2, 410285, Note_on_c, 0, 64, 90
2, 410345, Note_on_c, 0, 69, 0
2, 410345, Note_on_c, 0, 67, 90
2, 410405, Note_on_c, 0, 67, 0
2, 410405, Note_on_c, 0, 64, 0
2, 410405, Note_on_c, 0, 69, 90
2, 410405, Note_on_c, 0, 65, 90
2, 410525, Note_on_c, 0, 65, 0
2, 410525, Note_on_c, 0, 69, 0
2, 410525, Note_on_c, 0, 73, 90
2, 410525, Note_on_c, 0, 67, 90
2, 410645, Note_on_c, 0, 67, 0
2, 410645, Note_on_c, 0, 73, 0
2, 410645, Note_on_c, 0, 74, 90
2, 410645, Note_on_c, 0, 65, 90
2, 410765, Note_on_c, 0, 65, 0
2, 410765, Note_on_c, 0, 74, 0
2, 410765, Note_on_c, 0, 76, 90
2, 410765, Note_on_c, 0, 61, 90
2, 410885, Note_on_c, 0, 61, 0
2, 410885, Note_on_c, 0, 76, 0
2, 410885, Note_on_c, 0, 69, 90
2, 410885, Note_on_c, 0, 61, 90
2, 410945, Note_on_c, 0, 69, 0
2, 410945, Note_on_c, 0, 70, 90
2, 411005, Note_on_c, 0, 70, 0
2, 411005, Note_on_c, 0, 61, 0
2, 411005, Note_on_c, 0, 69, 90
2, 411005, Note_on_c, 0, 62, 90
2, 411065, Note_on_c, 0, 69, 0
2, 411065, Note_on_c, 0, 67, 90
2, 411125, Note_on_c, 0, 67, 0
2, 411125, Note_on_c, 0, 62, 0
2, 411125, Note_on_c, 0, 69, 90
2, 411185, Note_on_c, 0, 69, 0
2, 411185, Note_on_c, 0, 67, 90
2, 411245, Note_on_c, 0, 67, 0
2, 411245, Note_on_c, 0, 65, 90
2, 411305, Note_on_c, 0, 65, 0
2, 411305, Note_on_c, 0, 64, 90
2, 411365, Note_on_c, 0, 64, 0
2, 411365, Note_on_c, 0, 65, 90
2, 411365, Note_on_c, 0, 62, 90
2, 411425, Note_on_c, 0, 65, 0
2, 411425, Note_on_c, 0, 72, 90
2, 411485, Note_on_c, 0, 72, 0
2, 411485, Note_on_c, 0, 70, 90
2, 411545, Note_on_c, 0, 70, 0
2, 411545, Note_on_c, 0, 69, 90
2, 411605, Note_on_c, 0, 69, 0
2, 411605, Note_on_c, 0, 70, 90
2, 411665, Note_on_c, 0, 70, 0
2, 411665, Note_on_c, 0, 69, 90
2, 411725, Note_on_c, 0, 69, 0
2, 411725, Note_on_c, 0, 67, 90
2, 411785, Note_on_c, 0, 67, 0
2, 411785, Note_on_c, 0, 65, 90
2, 411845, Note_on_c, 0, 65, 0
2, 411845, Note_on_c, 0, 62, 0
2, 411845, Note_on_c, 0, 64, 90
2, 411845, Note_on_c, 0, 69, 90
2, 411965, Note_on_c, 0, 64, 0
2, 411965, Note_on_c, 0, 76, 90
2, 412085, Note_on_c, 0, 76, 0
2, 412145, Note_on_c, 0, 76, 90
2, 412205, Note_on_c, 0, 76, 0
2, 412205, Note_on_c, 0, 74, 90
2, 412265, Note_on_c, 0, 74, 0
2, 412265, Note_on_c, 0, 73, 90
2, 412325, Note_on_c, 0, 73, 0
2, 412325, Note_on_c, 0, 69, 0
2, 412325, Note_on_c, 0, 74, 90
2, 412325, Note_on_c, 0, 65, 90
2, 412445, Note_on_c, 0, 74, 0
2, 412445, Note_on_c, 0, 69, 90
2, 412565, Note_on_c, 0, 69, 0
2, 412565, Note_on_c, 0, 74, 90
2, 412685, Note_on_c, 0, 74, 0
2, 412685, Note_on_c, 0, 72, 90
2, 412805, Note_on_c, 0, 72, 0
2, 412805, Note_on_c, 0, 65, 0
2, 412805, Note_on_c, 0, 70, 90
2, 412805, Note_on_c, 0, 62, 90
2, 412925, Note_on_c, 0, 70, 0
2, 412925, Note_on_c, 0, 69, 90
2, 413045, Note_on_c, 0, 69, 0
2, 413045, Note_on_c, 0, 67, 90
2, 413165, Note_on_c, 0, 67, 0
2, 413165, Note_on_c, 0, 65, 90
2, 413285, Note_on_c, 0, 65, 0
2, 413285, Note_on_c, 0, 62, 0
2, 413285, Note_on_c, 0, 64, 90
2, 413285, Note_on_c, 0, 61, 90
2, 413345, Note_on_c, 0, 64, 0
2, 413345, Note_on_c, 0, 62, 90
2, 413405, Note_on_c, 0, 62, 0
2, 413405, Note_on_c, 0, 64, 90
2, 413465, Note_on_c, 0, 64, 0
2, 413465, Note_on_c, 0, 65, 90
2, 413525, Note_on_c, 0, 65, 0
2, 413525, Note_on_c, 0, 67, 90
2, 413585, Note_on_c, 0, 67, 0
2, 413585, Note_on_c, 0, 64, 90
2, 413645, Note_on_c, 0, 64, 0
2, 413645, Note_on_c, 0, 69, 90
2, 413765, Note_on_c, 0, 61, 0
2, 413765, Note_on_c, 0, 62, 90
2, 413825, Note_on_c, 0, 69, 0
2, 413825, Note_on_c, 0, 65, 90
2, 413885, Note_on_c, 0, 65, 0
2, 413885, Note_on_c, 0, 70, 90
2, 414005, Note_on_c, 0, 62, 0
2, 414005, Note_on_c, 0, 64, 90
2, 414065, Note_on_c, 0, 70, 0
2, 414065, Note_on_c, 0, 67, 90
2, 414125, Note_on_c, 0, 67, 0
2, 414125, Note_on_c, 0, 72, 90
2, 414185, Note_on_c, 0, 72, 0
2, 414185, Note_on_c, 0, 70, 90
2, 414245, Note_on_c, 0, 70, 0
2, 414245, Note_on_c, 0, 64, 0
2, 414245, Note_on_c, 0, 69, 90
2, 414245, Note_on_c, 0, 65, 90
2, 414305, Note_on_c, 0, 69, 0
2, 414305, Note_on_c, 0, 74, 90
2, 414365, Note_on_c, 0, 74, 0
2, 414365, Note_on_c, 0, 72, 90
2, 414425, Note_on_c, 0, 72, 0
2, 414425, Note_on_c, 0, 70, 90
2, 414485, Note_on_c, 0, 70, 0
2, 414485, Note_on_c, 0, 72, 90
2, 414545, Note_on_c, 0, 72, 0
2, 414545, Note_on_c, 0, 69, 90
2, 414605, Note_on_c, 0, 69, 0
2, 414605, Note_on_c, 0, 72, 90
2, 414785, Note_on_c, 0, 72, 0
2, 414785, Note_on_c, 0, 74, 90
2, 414845, Note_on_c, 0, 74, 0
2, 414845, Note_on_c, 0, 65, 0
2, 414845, Note_on_c, 0, 72, 90
2, 414845, Note_on_c, 0, 67, 90
2, 414905, Note_on_c, 0, 72, 0
2, 414905, Note_on_c, 0, 70, 90
2, 414965, Note_on_c, 0, 70, 0
2, 414965, Note_on_c, 0, 67, 0
2, 414965, Note_on_c, 0, 72, 90
2, 414965, Note_on_c, 0, 65, 90
2, 415025, Note_on_c, 0, 72, 0
2, 415025, Note_on_c, 0, 70, 90
2, 415085, Note_on_c, 0, 70, 0
2, 415085, Note_on_c, 0, 65, 0
2, 415085, Note_on_c, 0, 69, 90
2, 415085, Note_on_c, 0, 64, 90
2, 415145, Note_on_c, 0, 69, 0
2, 415145, Note_on_c, 0, 67, 90
2, 415205, Note_on_c, 0, 67, 0
2, 415205, Note_on_c, 0, 64, 0
2, 415205, Note_on_c, 0, 65, 90
2, 415205, Note_on_c, 0, 62, 90
2, 415265, Note_on_c, 0, 62, 0
2, 415265, Note_on_c, 0, 64, 90
2, 415325, Note_on_c, 0, 64, 0
2, 415325, Note_on_c, 0, 62, 90
2, 415385, Note_on_c, 0, 62, 0
2, 415385, Note_on_c, 0, 61, 90
2, 415445, Note_on_c, 0, 61, 0
2, 415445, Note_on_c, 0, 62, 90
2, 415505, Note_on_c, 0, 62, 0
2, 415505, Note_on_c, 0, 60, 90
2, 415565, Note_on_c, 0, 60, 0
2, 415565, Note_on_c, 0, 59, 90
2, 415625, Note_on_c, 0, 59, 0
2, 415625, Note_on_c, 0, 57, 90
2, 415685, Note_on_c, 0, 57, 0
2, 415685, Note_on_c, 0, 59, 90
2, 415745, Note_on_c, 0, 65, 0
2, 415745, Note_on_c, 0, 69, 90
2, 415805, Note_on_c, 0, 69, 0
2, 415805, Note_on_c, 0, 67, 90
2, 415865, Note_on_c, 0, 67, 0
2, 415865, Note_on_c, 0, 65, 90
2, 415925, Note_on_c, 0, 65, 0
2, 415925, Note_on_c, 0, 67, 90
2, 415985, Note_on_c, 0, 67, 0
2, 415985, Note_on_c, 0, 65, 90
2, 416045, Note_on_c, 0, 65, 0
2, 416045, Note_on_c, 0, 64, 90
2, 416105, Note_on_c, 0, 64, 0
2, 416105, Note_on_c, 0, 62, 90
2, 416165, Note_on_c, 0, 62, 0
2, 416165, Note_on_c, 0, 64, 90
2, 416225, Note_on_c, 0, 59, 0
2, 416225, Note_on_c, 0, 62, 90
2, 416285, Note_on_c, 0, 62, 0
2, 416285, Note_on_c, 0, 60, 90
2, 416345, Note_on_c, 0, 60, 0
2, 416345, Note_on_c, 0, 59, 90
2, 416405, Note_on_c, 0, 59, 0
2, 416405, Note_on_c, 0, 60, 90
2, 416465, Note_on_c, 0, 60, 0
2, 416465, Note_on_c, 0, 59, 90
2, 416525, Note_on_c, 0, 59, 0
2, 416525, Note_on_c, 0, 57, 90
2, 416585, Note_on_c, 0, 57, 0
2, 416585, Note_on_c, 0, 56, 90
2, 416645, Note_on_c, 0, 56, 0
2, 416645, Note_on_c, 0, 57, 90
2, 416705, Note_on_c, 0, 64, 0
2, 416705, Note_on_c, 0, 79, 90
2, 416765, Note_on_c, 0, 79, 0
2, 416765, Note_on_c, 0, 57, 0
2, 416765, Note_on_c, 0, 77, 90
2, 416825, Note_on_c, 0, 77, 0
2, 416825, Note_on_c, 0, 76, 90
2, 416885, Note_on_c, 0, 76, 0
2, 416885, Note_on_c, 0, 77, 90
2, 416945, Note_on_c, 0, 77, 0
2, 416945, Note_on_c, 0, 76, 90
2, 417005, Note_on_c, 0, 76, 0
2, 417005, Note_on_c, 0, 74, 90
2, 417065, Note_on_c, 0, 74, 0
2, 417065, Note_on_c, 0, 72, 90
2, 417125, Note_on_c, 0, 72, 0
2, 417125, Note_on_c, 0, 74, 90
2, 417185, Note_on_c, 0, 72, 90
2, 417245, Note_on_c, 0, 72, 0
2, 417245, Note_on_c, 0, 71, 90
2, 417305, Note_on_c, 0, 71, 0
2, 417305, Note_on_c, 0, 69, 90
2, 417365, Note_on_c, 0, 69, 0
2, 417365, Note_on_c, 0, 71, 90
2, 417425, Note_on_c, 0, 71, 0
2, 417425, Note_on_c, 0, 69, 90
2, 417485, Note_on_c, 0, 69, 0
2, 417485, Note_on_c, 0, 68, 90
2, 417545, Note_on_c, 0, 68, 0
2, 417545, Note_on_c, 0, 66, 90
2, 417605, Note_on_c, 0, 66, 0
2, 417605, Note_on_c, 0, 68, 90
2, 417665, Note_on_c, 0, 74, 0
2, 417665, Note_on_c, 0, 77, 90
2, 417725, Note_on_c, 0, 77, 0
2, 417725, Note_on_c, 0, 68, 0
2, 417725, Note_on_c, 0, 76, 90
2, 417785, Note_on_c, 0, 76, 0
2, 417785, Note_on_c, 0, 74, 90
2, 417845, Note_on_c, 0, 74, 0
2, 417845, Note_on_c, 0, 76, 90
2, 417905, Note_on_c, 0, 76, 0
2, 417905, Note_on_c, 0, 74, 90
2, 417965, Note_on_c, 0, 74, 0
2, 417965, Note_on_c, 0, 72, 90
2, 418025, Note_on_c, 0, 72, 0
2, 418025, Note_on_c, 0, 71, 90
2, 418085, Note_on_c, 0, 71, 0
2, 418085, Note_on_c, 0, 72, 90
2, 418145, Note_on_c, 0, 72, 0
2, 418145, Note_on_c, 0, 76, 90
2, 418205, Note_on_c, 0, 76, 0
2, 418205, Note_on_c, 0, 74, 90
2, 418205, Note_on_c, 0, 64, 90
2, 418265, Note_on_c, 0, 74, 0
2, 418265, Note_on_c, 0, 72, 90
2, 418325, Note_on_c, 0, 72, 0
2, 418325, Note_on_c, 0, 64, 0
2, 418325, Note_on_c, 0, 74, 90
2, 418325, Note_on_c, 0, 76, 90
2, 418385, Note_on_c, 0, 74, 0
2, 418385, Note_on_c, 0, 72, 90
2, 418445, Note_on_c, 0, 72, 0
2, 418445, Note_on_c, 0, 71, 90
2, 418505, Note_on_c, 0, 71, 0
2, 418505, Note_on_c, 0, 69, 90
2, 418565, Note_on_c, 0, 69, 0
2, 418565, Note_on_c, 0, 71, 90
2, 418685, Note_on_c, 0, 71, 0
2, 418685, Note_on_c, 0, 76, 0
2, 418685, Note_on_c, 0, 74, 90
2, 418745, Note_on_c, 0, 74, 0
2, 418745, Note_on_c, 0, 72, 90
2, 418805, Note_on_c, 0, 72, 0
2, 418805, Note_on_c, 0, 71, 90
2, 418865, Note_on_c, 0, 71, 0
2, 418865, Note_on_c, 0, 69, 90
2, 418925, Note_on_c, 0, 69, 0
2, 418925, Note_on_c, 0, 68, 90
2, 418985, Note_on_c, 0, 68, 0
2, 418985, Note_on_c, 0, 66, 90
2, 419045, Note_on_c, 0, 66, 0
2, 419045, Note_on_c, 0, 64, 90
2, 419105, Note_on_c, 0, 64, 0
2, 419105, Note_on_c, 0, 62, 90
2, 419165, Note_on_c, 0, 62, 0
2, 419165, Note_on_c, 0, 64, 90
2, 419165, Note_on_c, 0, 64, 90
2, 419225, Note_on_c, 0, 64, 0
2, 419225, Note_on_c, 0, 66, 90
2, 419285, Note_on_c, 0, 66, 0
2, 419285, Note_on_c, 0, 64, 0
2, 419285, Note_on_c, 0, 76, 90
2, 419285, Note_on_c, 0, 68, 90
2, 419345, Note_on_c, 0, 68, 0
2, 419345, Note_on_c, 0, 64, 90
2, 419405, Note_on_c, 0, 64, 0
2, 419405, Note_on_c, 0, 66, 90
2, 419465, Note_on_c, 0, 66, 0
2, 419465, Note_on_c, 0, 68, 90
2, 419525, Note_on_c, 0, 68, 0
2, 419525, Note_on_c, 0, 69, 90
2, 419585, Note_on_c, 0, 69, 0
2, 419585, Note_on_c, 0, 68, 90
2, 419645, Note_on_c, 0, 68, 0
2, 419645, Note_on_c, 0, 76, 0
2, 419645, Note_on_c, 0, 75, 90
2, 419645, Note_on_c, 0, 69, 90
2, 419705, Note_on_c, 0, 69, 0
2, 419705, Note_on_c, 0, 71, 90
2, 419765, Note_on_c, 0, 71, 0
2, 419765, Note_on_c, 0, 75, 0
2, 419765, Note_on_c, 0, 72, 90
2, 419825, Note_on_c, 0, 72, 0
2, 419825, Note_on_c, 0, 69, 90
2, 419885, Note_on_c, 0, 69, 0
2, 419885, Note_on_c, 0, 75, 90
2, 419885, Note_on_c, 0, 71, 90
2, 419945, Note_on_c, 0, 71, 0
2, 419945, Note_on_c, 0, 72, 90
2, 420005, Note_on_c, 0, 72, 0
2, 420005, Note_on_c, 0, 75, 0
2, 420005, Note_on_c, 0, 76, 90
2, 420005, Note_on_c, 0, 72, 90
2, 420065, Note_on_c, 0, 76, 0
2, 420065, Note_on_c, 0, 77, 90
2, 420125, Note_on_c, 0, 77, 0
2, 420125, Note_on_c, 0, 72, 0
2, 420125, Note_on_c, 0, 76, 90
2, 420125, Note_on_c, 0, 71, 90
2, 420185, Note_on_c, 0, 76, 0
2, 420185, Note_on_c, 0, 74, 90
2, 420245, Note_on_c, 0, 74, 0
2, 420245, Note_on_c, 0, 71, 0
2, 420245, Note_on_c, 0, 76, 90
2, 420305, Note_on_c, 0, 76, 0
2, 420305, Note_on_c, 0, 74, 90
2, 420305, Note_on_c, 0, 71, 90
2, 420365, Note_on_c, 0, 71, 0
2, 420365, Note_on_c, 0, 74, 0
2, 420365, Note_on_c, 0, 72, 90
2, 420365, Note_on_c, 0, 69, 90
2, 420425, Note_on_c, 0, 69, 0
2, 420425, Note_on_c, 0, 72, 0
2, 420425, Note_on_c, 0, 71, 90
2, 420425, Note_on_c, 0, 71, 90
2, 420485, Note_on_c, 0, 71, 0
2, 420485, Note_on_c, 0, 71, 0
2, 420485, Note_on_c, 0, 69, 90
2, 420485, Note_on_c, 0, 72, 90
2, 420545, Note_on_c, 0, 72, 0
2, 420545, Note_on_c, 0, 76, 90
2, 420605, Note_on_c, 0, 76, 0
2, 420605, Note_on_c, 0, 69, 0
2, 420605, Note_on_c, 0, 81, 90
2, 420605, Note_on_c, 0, 74, 90
2, 420665, Note_on_c, 0, 74, 0
2, 420665, Note_on_c, 0, 72, 90
2, 420725, Note_on_c, 0, 72, 0
2, 420725, Note_on_c, 0, 81, 0
2, 420725, Note_on_c, 0, 74, 90
2, 420725, Note_on_c, 0, 74, 90
2, 420785, Note_on_c, 0, 74, 0
2, 420785, Note_on_c, 0, 72, 90
2, 420845, Note_on_c, 0, 72, 0
2, 420845, Note_on_c, 0, 74, 0
2, 420845, Note_on_c, 0, 77, 90
2, 420845, Note_on_c, 0, 71, 90
2, 420905, Note_on_c, 0, 71, 0
2, 420905, Note_on_c, 0, 69, 90
2, 420965, Note_on_c, 0, 69, 0
2, 420965, Note_on_c, 0, 67, 90
2, 421025, Note_on_c, 0, 67, 0
2, 421025, Note_on_c, 0, 77, 0
2, 421025, Note_on_c, 0, 76, 90
2, 421025, Note_on_c, 0, 72, 90
2, 421085, Note_on_c, 0, 72, 0
2, 421085, Note_on_c, 0, 76, 0
2, 421085, Note_on_c, 0, 74, 90
2, 421085, Note_on_c, 0, 71, 90
2, 421145, Note_on_c, 0, 71, 0
2, 421145, Note_on_c, 0, 74, 0
2, 421145, Note_on_c, 0, 72, 90
2, 421145, Note_on_c, 0, 69, 90
2, 421205, Note_on_c, 0, 69, 0
2, 421205, Note_on_c, 0, 72, 0
2, 421205, Note_on_c, 0, 74, 90
2, 421205, Note_on_c, 0, 71, 90
2, 421265, Note_on_c, 0, 71, 0
2, 421265, Note_on_c, 0, 74, 0
2, 421265, Note_on_c, 0, 72, 90
2, 421265, Note_on_c, 0, 69, 90
2, 421325, Note_on_c, 0, 69, 0
2, 421325, Note_on_c, 0, 72, 0
2, 421325, Note_on_c, 0, 71, 90
2, 421325, Note_on_c, 0, 68, 90
2, 421385, Note_on_c, 0, 68, 0
2, 421385, Note_on_c, 0, 71, 0
2, 421385, Note_on_c, 0, 69, 90
2, 421385, Note_on_c, 0, 66, 90
2, 421445, Note_on_c, 0, 66, 0
2, 421445, Note_on_c, 0, 69, 0
2, 421445, Note_on_c, 0, 68, 90
2, 421445, Note_on_c, 0, 64, 90
2, 421565, Note_on_c, 0, 64, 0
2, 421565, Note_on_c, 0, 65, 90
2, 421685, Note_on_c, 0, 65, 0
2, 421685, Note_on_c, 0, 68, 0
2, 421685, Note_on_c, 0, 69, 90
2, 421685, Note_on_c, 0, 64, 90
2, 421805, Note_on_c, 0, 69, 0
2, 421805, Note_on_c, 0, 71, 90
2, 421925, Note_on_c, 0, 71, 0
2, 421925, Note_on_c, 0, 72, 90
2, 422045, Note_on_c, 0, 64, 0
2, 422045, Note_on_c, 0, 64, 90
2, 422165, Note_on_c, 0, 64, 0
2, 422165, Note_on_c, 0, 69, 90
2, 422285, Note_on_c, 0, 69, 0
2, 422285, Note_on_c, 0, 67, 90
2, 422405, Note_on_c, 0, 67, 0
2, 422405, Note_on_c, 0, 66, 90
2, 422525, Note_on_c, 0, 66, 0
2, 422525, Note_on_c, 0, 72, 0
2, 422525, Note_on_c, 0, 69, 90
2, 422645, Note_on_c, 0, 69, 0
2, 422645, Note_on_c, 0, 74, 90
2, 422765, Note_on_c, 0, 74, 0
2, 422765, Note_on_c, 0, 72, 90
2, 422885, Note_on_c, 0, 72, 0
2, 422885, Note_on_c, 0, 71, 90
2, 423005, Note_on_c, 0, 62, 90
2, 423125, Note_on_c, 0, 62, 0
2, 423125, Note_on_c, 0, 67, 90
2, 423245, Note_on_c, 0, 67, 0
2, 423245, Note_on_c, 0, 65, 90
2, 423365, Note_on_c, 0, 65, 0
2, 423365, Note_on_c, 0, 64, 90
2, 423485, Note_on_c, 0, 64, 0
2, 423485, Note_on_c, 0, 71, 0
2, 423485, Note_on_c, 0, 67, 90
2, 423605, Note_on_c, 0, 67, 0
2, 423605, Note_on_c, 0, 72, 90
2, 423725, Note_on_c, 0, 72, 0
2, 423725, Note_on_c, 0, 70, 90
2, 423845, Note_on_c, 0, 70, 0
2, 423845, Note_on_c, 0, 69, 90
2, 423905, Note_on_c, 0, 76, 90
2, 423965, Note_on_c, 0, 76, 0
2, 423965, Note_on_c, 0, 74, 90
2, 424025, Note_on_c, 0, 74, 0
2, 424025, Note_on_c, 0, 72, 90
2, 424085, Note_on_c, 0, 72, 0
2, 424085, Note_on_c, 0, 74, 90
2, 424145, Note_on_c, 0, 74, 0
2, 424145, Note_on_c, 0, 72, 90
2, 424205, Note_on_c, 0, 72, 0
2, 424205, Note_on_c, 0, 71, 90
2, 424265, Note_on_c, 0, 71, 0
2, 424265, Note_on_c, 0, 69, 90
2, 424325, Note_on_c, 0, 69, 0
2, 424325, Note_on_c, 0, 69, 0
2, 424325, Note_on_c, 0, 76, 90
2, 424325, Note_on_c, 0, 71, 90
2, 424385, Note_on_c, 0, 71, 0
2, 424385, Note_on_c, 0, 72, 90
2, 424445, Note_on_c, 0, 72, 0
2, 424445, Note_on_c, 0, 71, 90
2, 424505, Note_on_c, 0, 71, 0
2, 424505, Note_on_c, 0, 69, 90
2, 424565, Note_on_c, 0, 69, 0
2, 424565, Note_on_c, 0, 71, 90
2, 424625, Note_on_c, 0, 71, 0
2, 424625, Note_on_c, 0, 69, 90
2, 424685, Note_on_c, 0, 69, 0
2, 424685, Note_on_c, 0, 68, 90
2, 424745, Note_on_c, 0, 68, 0
2, 424745, Note_on_c, 0, 66, 90
2, 424805, Note_on_c, 0, 66, 0
2, 424805, Note_on_c, 0, 76, 0
2, 424805, Note_on_c, 0, 72, 90
2, 424805, Note_on_c, 0, 64, 90
2, 424865, Note_on_c, 0, 72, 0
2, 424865, Note_on_c, 0, 81, 90
2, 424925, Note_on_c, 0, 81, 0
2, 424925, Note_on_c, 0, 79, 90
2, 424985, Note_on_c, 0, 79, 0
2, 424985, Note_on_c, 0, 77, 90
2, 425045, Note_on_c, 0, 77, 0
2, 425045, Note_on_c, 0, 79, 90
2, 425105, Note_on_c, 0, 79, 0
2, 425105, Note_on_c, 0, 77, 90
2, 425165, Note_on_c, 0, 77, 0
2, 425165, Note_on_c, 0, 76, 90
2, 425225, Note_on_c, 0, 76, 0
2, 425225, Note_on_c, 0, 74, 90
2, 425285, Note_on_c, 0, 74, 0
2, 425285, Note_on_c, 0, 64, 0
2, 425285, Note_on_c, 0, 73, 90
2, 425285, Note_on_c, 0, 69, 90
2, 425345, Note_on_c, 0, 73, 0
2, 425345, Note_on_c, 0, 76, 90
2, 425405, Note_on_c, 0, 76, 0
2, 425405, Note_on_c, 0, 74, 90
2, 425465, Note_on_c, 0, 74, 0
2, 425465, Note_on_c, 0, 73, 90
2, 425525, Note_on_c, 0, 73, 0
2, 425525, Note_on_c, 0, 74, 90
2, 425585, Note_on_c, 0, 74, 0
2, 425585, Note_on_c, 0, 73, 90
2, 425645, Note_on_c, 0, 73, 0
2, 425645, Note_on_c, 0, 71, 90
2, 425705, Note_on_c, 0, 71, 0
2, 425705, Note_on_c, 0, 69, 90
2, 425765, Note_on_c, 0, 69, 0
2, 425765, Note_on_c, 0, 74, 90
2, 425885, Note_on_c, 0, 74, 0
2, 425885, Note_on_c, 0, 69, 0
2, 425885, Note_on_c, 0, 69, 90
2, 425885, Note_on_c, 0, 74, 90
2, 425945, Note_on_c, 0, 74, 0
2, 425945, Note_on_c, 0, 76, 90
2, 426005, Note_on_c, 0, 76, 0
2, 426005, Note_on_c, 0, 69, 0
2, 426005, Note_on_c, 0, 81, 90
2, 426005, Note_on_c, 0, 77, 90
2, 426125, Note_on_c, 0, 77, 0
2, 426125, Note_on_c, 0, 76, 90
2, 426185, Note_on_c, 0, 76, 0
2, 426185, Note_on_c, 0, 74, 90
2, 426245, Note_on_c, 0, 74, 0
2, 426245, Note_on_c, 0, 76, 90
2, 426365, Note_on_c, 0, 76, 0
2, 426365, Note_on_c, 0, 81, 0
2, 426365, Note_on_c, 0, 79, 90
2, 426425, Note_on_c, 0, 79, 0
2, 426425, Note_on_c, 0, 77, 90
2, 426485, Note_on_c, 0, 77, 0
2, 426485, Note_on_c, 0, 76, 90
2, 426545, Note_on_c, 0, 76, 0
2, 426545, Note_on_c, 0, 74, 90
2, 426605, Note_on_c, 0, 74, 0
2, 426605, Note_on_c, 0, 73, 90
2, 426665, Note_on_c, 0, 73, 0
2, 426665, Note_on_c, 0, 71, 90
2, 426725, Note_on_c, 0, 71, 0
2, 426725, Note_on_c, 0, 69, 90
2, 426785, Note_on_c, 0, 69, 0
2, 426785, Note_on_c, 0, 67, 90
2, 426845, Note_on_c, 0, 67, 0
2, 426845, Note_on_c, 0, 69, 90
2, 426905, Note_on_c, 0, 69, 0
2, 426905, Note_on_c, 0, 71, 90
2, 426965, Note_on_c, 0, 71, 0
2, 426965, Note_on_c, 0, 72, 90
2, 427025, Note_on_c, 0, 72, 0
2, 427025, Note_on_c, 0, 69, 90
2, 427025, Note_on_c, 0, 60, 90
2, 427085, Note_on_c, 0, 60, 0
2, 427085, Note_on_c, 0, 69, 0
2, 427085, Note_on_c, 0, 71, 90
2, 427085, Note_on_c, 0, 62, 90
2, 427145, Note_on_c, 0, 62, 0
2, 427145, Note_on_c, 0, 71, 0
2, 427145, Note_on_c, 0, 73, 90
2, 427145, Note_on_c, 0, 64, 90
2, 427205, Note_on_c, 0, 64, 0
2, 427205, Note_on_c, 0, 73, 0
2, 427205, Note_on_c, 0, 74, 90
2, 427205, Note_on_c, 0, 65, 90
2, 427265, Note_on_c, 0, 74, 0
2, 427265, Note_on_c, 0, 73, 90
2, 427325, Note_on_c, 0, 73, 0
2, 427325, Note_on_c, 0, 65, 0
2, 427325, Note_on_c, 0, 74, 90
2, 427385, Note_on_c, 0, 74, 0
2, 427385, Note_on_c, 0, 76, 90
2, 427445, Note_on_c, 0, 76, 0
2, 427445, Note_on_c, 0, 77, 90
2, 427505, Note_on_c, 0, 77, 0
2, 427505, Note_on_c, 0, 74, 90
2, 427505, Note_on_c, 0, 65, 90
2, 427565, Note_on_c, 0, 65, 0
2, 427565, Note_on_c, 0, 74, 0
2, 427565, Note_on_c, 0, 76, 90
2, 427565, Note_on_c, 0, 67, 90
2, 427625, Note_on_c, 0, 67, 0
2, 427625, Note_on_c, 0, 76, 0
2, 427625, Note_on_c, 0, 77, 90
2, 427625, Note_on_c, 0, 69, 90
2, 427685, Note_on_c, 0, 69, 0
2, 427685, Note_on_c, 0, 77, 0
2, 427685, Note_on_c, 0, 77, 90
2, 427685, Note_on_c, 0, 70, 90
2, 427745, Note_on_c, 0, 70, 0
2, 427745, Note_on_c, 0, 69, 90
2, 427805, Note_on_c, 0, 69, 0
2, 427805, Note_on_c, 0, 77, 0
2, 427805, Note_on_c, 0, 76, 90
2, 427805, Note_on_c, 0, 67, 90
2, 427865, Note_on_c, 0, 67, 0
2, 427865, Note_on_c, 0, 70, 90
2, 427925, Note_on_c, 0, 70, 0
2, 427925, Note_on_c, 0, 76, 0
2, 427925, Note_on_c, 0, 69, 90
2, 427985, Note_on_c, 0, 76, 90
2, 428045, Note_on_c, 0, 76, 0
2, 428045, Note_on_c, 0, 74, 90
2, 428105, Note_on_c, 0, 74, 0
2, 428105, Note_on_c, 0, 76, 90
2, 428165, Note_on_c, 0, 76, 0
2, 428165, Note_on_c, 0, 77, 90
2, 428225, Note_on_c, 0, 77, 0
2, 428225, Note_on_c, 0, 81, 90
2, 428285, Note_on_c, 0, 81, 0
2, 428285, Note_on_c, 0, 69, 0
2, 428285, Note_on_c, 0, 79, 90
2, 428285, Note_on_c, 0, 70, 90
2, 428345, Note_on_c, 0, 79, 0
2, 428345, Note_on_c, 0, 77, 90
2, 428405, Note_on_c, 0, 77, 0
2, 428405, Note_on_c, 0, 79, 90
2, 428465, Note_on_c, 0, 79, 0
2, 428465, Note_on_c, 0, 77, 90
2, 428525, Note_on_c, 0, 77, 0
2, 428525, Note_on_c, 0, 70, 0
2, 428525, Note_on_c, 0, 76, 90
2, 428525, Note_on_c, 0, 72, 90
2, 428585, Note_on_c, 0, 72, 0
2, 428585, Note_on_c, 0, 76, 0
2, 428585, Note_on_c, 0, 74, 90
2, 428585, Note_on_c, 0, 70, 90
2, 428645, Note_on_c, 0, 70, 0
2, 428645, Note_on_c, 0, 74, 0
2, 428645, Note_on_c, 0, 72, 90
2, 428645, Note_on_c, 0, 69, 90
2, 428705, Note_on_c, 0, 72, 0
2, 428705, Note_on_c, 0, 77, 90
2, 428765, Note_on_c, 0, 77, 0
2, 428765, Note_on_c, 0, 69, 0
2, 428765, Note_on_c, 0, 76, 90
2, 428765, Note_on_c, 0, 65, 90
2, 428825, Note_on_c, 0, 76, 0
2, 428825, Note_on_c, 0, 74, 90
2, 428885, Note_on_c, 0, 74, 0
2, 428885, Note_on_c, 0, 65, 0
2, 428885, Note_on_c, 0, 76, 90
2, 428885, Note_on_c, 0, 67, 90
2, 428945, Note_on_c, 0, 76, 0
2, 428945, Note_on_c, 0, 74, 90
2, 429005, Note_on_c, 0, 74, 0
2, 429005, Note_on_c, 0, 67, 0
2, 429005, Note_on_c, 0, 72, 90
2, 429005, Note_on_c, 0, 64, 90
2, 429065, Note_on_c, 0, 72, 0
2, 429065, Note_on_c, 0, 70, 90
2, 429125, Note_on_c, 0, 70, 0
2, 429125, Note_on_c, 0, 64, 0
2, 429125, Note_on_c, 0, 69, 90
2, 429125, Note_on_c, 0, 65, 90
2, 429185, Note_on_c, 0, 69, 0
2, 429185, Note_on_c, 0, 74, 90
2, 429245, Note_on_c, 0, 74, 0
2, 429245, Note_on_c, 0, 65, 0
2, 429245, Note_on_c, 0, 72, 90
2, 429305, Note_on_c, 0, 72, 0
2, 429305, Note_on_c, 0, 70, 90
2, 429365, Note_on_c, 0, 70, 0
2, 429365, Note_on_c, 0, 72, 90
2, 429425, Note_on_c, 0, 72, 0
2, 429425, Note_on_c, 0, 70, 90
2, 429485, Note_on_c, 0, 70, 0
2, 429485, Note_on_c, 0, 69, 90
2, 429485, Note_on_c, 0, 61, 90
2, 429545, Note_on_c, 0, 69, 0
2, 429545, Note_on_c, 0, 67, 90
2, 429605, Note_on_c, 0, 67, 0
2, 429605, Note_on_c, 0, 61, 0
2, 429605, Note_on_c, 0, 65, 90
2, 429605, Note_on_c, 0, 62, 90
2, 429665, Note_on_c, 0, 65, 0
2, 429665, Note_on_c, 0, 70, 90
2, 429725, Note_on_c, 0, 70, 0
2, 429725, Note_on_c, 0, 62, 0
2, 429725, Note_on_c, 0, 69, 90
2, 429785, Note_on_c, 0, 69, 0
2, 429785, Note_on_c, 0, 67, 90
2, 429845, Note_on_c, 0, 67, 0
2, 429845, Note_on_c, 0, 69, 90
2, 429905, Note_on_c, 0, 69, 0
2, 429905, Note_on_c, 0, 67, 90
2, 429965, Note_on_c, 0, 67, 0
2, 429965, Note_on_c, 0, 65, 90
2, 430025, Note_on_c, 0, 65, 0
2, 430025, Note_on_c, 0, 64, 90
2, 430085, Note_on_c, 0, 64, 0
2, 430085, Note_on_c, 0, 62, 90
2, 430625, Note_on_c, 0, 62, 0
2, 430625, Note_on_c, 0, 74, 90
2, 430685, Note_on_c, 0, 74, 0
2, 430685, Note_on_c, 0, 72, 90
2, 430685, Note_on_c, 0, 62, 90
2, 430745, Note_on_c, 0, 72, 0
2, 430745, Note_on_c, 0, 70, 90
2, 430805, Note_on_c, 0, 70, 0
2, 430805, Note_on_c, 0, 62, 0
2, 430805, Note_on_c, 0, 72, 90
2, 430805, Note_on_c, 0, 74, 90
2, 430865, Note_on_c, 0, 72, 0
2, 430865, Note_on_c, 0, 70, 90
2, 430925, Note_on_c, 0, 70, 0
2, 430925, Note_on_c, 0, 69, 90
2, 430985, Note_on_c, 0, 69, 0
2, 430985, Note_on_c, 0, 67, 90
2, 431045, Note_on_c, 0, 67, 0
2, 431045, Note_on_c, 0, 69, 90
2, 431165, Note_on_c, 0, 69, 0
2, 431165, Note_on_c, 0, 74, 0
2, 431165, Note_on_c, 0, 72, 90
2, 431225, Note_on_c, 0, 72, 0
2, 431225, Note_on_c, 0, 70, 90
2, 431285, Note_on_c, 0, 70, 0
2, 431285, Note_on_c, 0, 69, 90
2, 431345, Note_on_c, 0, 69, 0
2, 431345, Note_on_c, 0, 67, 90
2, 431405, Note_on_c, 0, 67, 0
2, 431405, Note_on_c, 0, 66, 90
2, 431465, Note_on_c, 0, 66, 0
2, 431465, Note_on_c, 0, 64, 90
2, 431525, Note_on_c, 0, 64, 0
2, 431525, Note_on_c, 0, 62, 90
2, 431585, Note_on_c, 0, 62, 0
2, 431585, Note_on_c, 0, 61, 90
2, 431645, Note_on_c, 0, 61, 0
2, 431645, Note_on_c, 0, 62, 90
2, 431705, Note_on_c, 0, 62, 0
2, 431705, Note_on_c, 0, 64, 90
2, 431765, Note_on_c, 0, 64, 0
2, 431765, Note_on_c, 0, 70, 90
2, 431765, Note_on_c, 0, 66, 90
2, 431825, Note_on_c, 0, 66, 0
2, 431825, Note_on_c, 0, 62, 90
2, 431885, Note_on_c, 0, 62, 0
2, 431885, Note_on_c, 0, 64, 90
2, 431945, Note_on_c, 0, 64, 0
2, 431945, Note_on_c, 0, 66, 90
2, 432005, Note_on_c, 0, 66, 0
2, 432005, Note_on_c, 0, 67, 90
2, 432065, Note_on_c, 0, 67, 0
2, 432065, Note_on_c, 0, 66, 90
2, 432125, Note_on_c, 0, 66, 0
2, 432125, Note_on_c, 0, 70, 0
2, 432125, Note_on_c, 0, 71, 90
2, 432125, Note_on_c, 0, 67, 90
2, 432185, Note_on_c, 0, 67, 0
2, 432185, Note_on_c, 0, 69, 90
2, 432245, Note_on_c, 0, 69, 0
2, 432245, Note_on_c, 0, 71, 0
2, 432245, Note_on_c, 0, 72, 90
2, 432245, Note_on_c, 0, 70, 90
2, 432305, Note_on_c, 0, 70, 0
2, 432305, Note_on_c, 0, 67, 90
2, 432365, Note_on_c, 0, 67, 0
2, 432365, Note_on_c, 0, 72, 0
2, 432365, Note_on_c, 0, 73, 90
2, 432365, Note_on_c, 0, 69, 90
2, 432425, Note_on_c, 0, 69, 0
2, 432425, Note_on_c, 0, 70, 90
2, 432485, Note_on_c, 0, 70, 0
2, 432485, Note_on_c, 0, 73, 0
2, 432485, Note_on_c, 0, 70, 90
2, 432545, Note_on_c, 0, 74, 90
2, 432605, Note_on_c, 0, 74, 0
2, 432605, Note_on_c, 0, 70, 0
2, 432605, Note_on_c, 0, 72, 90
2, 432605, Note_on_c, 0, 69, 90
2, 432665, Note_on_c, 0, 72, 0
2, 432665, Note_on_c, 0, 70, 90
2, 432725, Note_on_c, 0, 70, 0
2, 432725, Note_on_c, 0, 69, 0
2, 432725, Note_on_c, 0, 72, 90
2, 432785, Note_on_c, 0, 69, 90
2, 432845, Note_on_c, 0, 69, 0
2, 432845, Note_on_c, 0, 72, 0
2, 432845, Note_on_c, 0, 74, 90
2, 432845, Note_on_c, 0, 67, 90
2, 432905, Note_on_c, 0, 67, 0
2, 432905, Note_on_c, 0, 69, 90
2, 432965, Note_on_c, 0, 69, 0
2, 432965, Note_on_c, 0, 74, 0
2, 432965, Note_on_c, 0, 70, 90
2, 432965, Note_on_c, 0, 70, 90
2, 433025, Note_on_c, 0, 70, 0
2, 433025, Note_on_c, 0, 74, 90
2, 433085, Note_on_c, 0, 74, 0
2, 433085, Note_on_c, 0, 70, 0
2, 433085, Note_on_c, 0, 79, 90
2, 433085, Note_on_c, 0, 72, 90
2, 433145, Note_on_c, 0, 72, 0
2, 433145, Note_on_c, 0, 70, 90
2, 433205, Note_on_c, 0, 70, 0
2, 433205, Note_on_c, 0, 72, 90
2, 433265, Note_on_c, 0, 72, 0
2, 433265, Note_on_c, 0, 70, 90
2, 433325, Note_on_c, 0, 70, 0
2, 433325, Note_on_c, 0, 79, 0
2, 433325, Note_on_c, 0, 77, 90
2, 433325, Note_on_c, 0, 69, 90
2, 433385, Note_on_c, 0, 69, 0
2, 433385, Note_on_c, 0, 77, 0
2, 433385, Note_on_c, 0, 75, 90
2, 433385, Note_on_c, 0, 67, 90
2, 433445, Note_on_c, 0, 67, 0
2, 433445, Note_on_c, 0, 75, 0
2, 433445, Note_on_c, 0, 74, 90
2, 433445, Note_on_c, 0, 65, 90
2, 433505, Note_on_c, 0, 65, 0
2, 433505, Note_on_c, 0, 70, 90
2, 433565, Note_on_c, 0, 70, 0
2, 433565, Note_on_c, 0, 74, 0
2, 433565, Note_on_c, 0, 75, 90
2, 433565, Note_on_c, 0, 68, 90
2, 433625, Note_on_c, 0, 68, 0
2, 433625, Note_on_c, 0, 67, 90
2, 433685, Note_on_c, 0, 67, 0
2, 433685, Note_on_c, 0, 75, 0
2, 433685, Note_on_c, 0, 77, 90
2, 433685, Note_on_c, 0, 68, 90
2, 433745, Note_on_c, 0, 68, 0
2, 433745, Note_on_c, 0, 67, 90
2, 433805, Note_on_c, 0, 67, 0
2, 433805, Note_on_c, 0, 77, 0
2, 433805, Note_on_c, 0, 65, 90
2, 433865, Note_on_c, 0, 65, 0
2, 433865, Note_on_c, 0, 63, 90
2, 433925, Note_on_c, 0, 63, 0
2, 433925, Note_on_c, 0, 62, 90
2, 434165, Note_on_c, 0, 62, 0
2, 434165, Note_on_c, 0, 63, 90
2, 434285, Note_on_c, 0, 63, 0
2, 434285, Note_on_c, 0, 65, 90
2, 434405, Note_on_c, 0, 65, 0
2, 434405, Note_on_c, 0, 58, 90
2, 434525, Note_on_c, 0, 58, 0
2, 434525, Note_on_c, 0, 59, 90
2, 434645, Note_on_c, 0, 59, 0
2, 434645, Note_on_c, 0, 60, 90
2, 434765, Note_on_c, 0, 60, 0
2, 434765, Note_on_c, 0, 62, 90
2, 434885, Note_on_c, 0, 62, 0
2, 434885, Note_on_c, 0, 63, 90
2, 435425, Note_on_c, 0, 63, 0
2, 435425, Note_on_c, 0, 67, 90
2, 435485, Note_on_c, 0, 67, 0
2, 435485, Note_on_c, 0, 65, 90
2, 435545, Note_on_c, 0, 65, 0
2, 435545, Note_on_c, 0, 63, 90
2, 435605, Note_on_c, 0, 63, 0
2, 435605, Note_on_c, 0, 65, 90
2, 435665, Note_on_c, 0, 65, 0
2, 435665, Note_on_c, 0, 63, 90
2, 435725, Note_on_c, 0, 63, 0
2, 435725, Note_on_c, 0, 62, 90
2, 435785, Note_on_c, 0, 62, 0
2, 435785, Note_on_c, 0, 60, 90
2, 435845, Note_on_c, 0, 60, 0
2, 435845, Note_on_c, 0, 69, 90
2, 436385, Note_on_c, 0, 69, 0
2, 436385, Note_on_c, 0, 70, 90
2, 436445, Note_on_c, 0, 70, 0
2, 436445, Note_on_c, 0, 69, 90
2, 436505, Note_on_c, 0, 69, 0
2, 436505, Note_on_c, 0, 67, 90
2, 436565, Note_on_c, 0, 67, 0
2, 436565, Note_on_c, 0, 70, 90
2, 436625, Note_on_c, 0, 70, 0
2, 436625, Note_on_c, 0, 69, 90
2, 436685, Note_on_c, 0, 69, 0
2, 436685, Note_on_c, 0, 67, 90
2, 436745, Note_on_c, 0, 67, 0
2, 436745, Note_on_c, 0, 66, 90
2, 436805, Note_on_c, 0, 66, 0
2, 436805, Note_on_c, 0, 67, 90
2, 436865, Note_on_c, 0, 62, 90
2, 436925, Note_on_c, 0, 62, 0
2, 436925, Note_on_c, 0, 67, 0
2, 436925, Note_on_c, 0, 64, 90
2, 436985, Note_on_c, 0, 64, 0
2, 436985, Note_on_c, 0, 66, 90
2, 437045, Note_on_c, 0, 66, 0
2, 437045, Note_on_c, 0, 67, 90
2, 437105, Note_on_c, 0, 67, 0
2, 437105, Note_on_c, 0, 66, 90
2, 437165, Note_on_c, 0, 66, 0
2, 437165, Note_on_c, 0, 67, 90
2, 437225, Note_on_c, 0, 67, 0
2, 437225, Note_on_c, 0, 69, 90
2, 437285, Note_on_c, 0, 69, 0
2, 437285, Note_on_c, 0, 70, 90
2, 437345, Note_on_c, 0, 70, 0
2, 437345, Note_on_c, 0, 67, 90
2, 437405, Note_on_c, 0, 67, 0
2, 437405, Note_on_c, 0, 69, 90
2, 437465, Note_on_c, 0, 69, 0
2, 437465, Note_on_c, 0, 71, 90
2, 437525, Note_on_c, 0, 71, 0
2, 437525, Note_on_c, 0, 72, 90
2, 437585, Note_on_c, 0, 72, 0
2, 437585, Note_on_c, 0, 71, 90
2, 437645, Note_on_c, 0, 71, 0
2, 437645, Note_on_c, 0, 72, 90
2, 437705, Note_on_c, 0, 72, 0
2, 437705, Note_on_c, 0, 74, 90
2, 437765, Note_on_c, 0, 74, 0
2, 437765, Note_on_c, 0, 75, 90
2, 437825, Note_on_c, 0, 59, 90
2, 437885, Note_on_c, 0, 59, 0
2, 437885, Note_on_c, 0, 75, 0
2, 437885, Note_on_c, 0, 74, 90
2, 437885, Note_on_c, 0, 60, 90
2, 437945, Note_on_c, 0, 60, 0
2, 437945, Note_on_c, 0, 62, 90
2, 438005, Note_on_c, 0, 62, 0
2, 438005, Note_on_c, 0, 74, 0
2, 438005, Note_on_c, 0, 72, 90
2, 438005, Note_on_c, 0, 63, 90
2, 438065, Note_on_c, 0, 63, 0
2, 438065, Note_on_c, 0, 60, 90
2, 438125, Note_on_c, 0, 60, 0
2, 438125, Note_on_c, 0, 72, 0
2, 438125, Note_on_c, 0, 70, 90
2, 438125, Note_on_c, 0, 62, 90
2, 438185, Note_on_c, 0, 62, 0
2, 438185, Note_on_c, 0, 64, 90
2, 438245, Note_on_c, 0, 64, 0
2, 438245, Note_on_c, 0, 70, 0
2, 438245, Note_on_c, 0, 69, 90
2, 438245, Note_on_c, 0, 65, 90
2, 438305, Note_on_c, 0, 69, 0
2, 438305, Note_on_c, 0, 67, 90
2, 438365, Note_on_c, 0, 67, 0
2, 438365, Note_on_c, 0, 69, 90
2, 438425, Note_on_c, 0, 69, 0
2, 438425, Note_on_c, 0, 70, 90
2, 438485, Note_on_c, 0, 70, 0
2, 438485, Note_on_c, 0, 72, 90
2, 438545, Note_on_c, 0, 72, 0
2, 438545, Note_on_c, 0, 69, 90
2, 438605, Note_on_c, 0, 69, 0
2, 438605, Note_on_c, 0, 71, 90
2, 438665, Note_on_c, 0, 71, 0
2, 438665, Note_on_c, 0, 73, 90
2, 438725, Note_on_c, 0, 73, 0
2, 438725, Note_on_c, 0, 74, 90
2, 438845, Note_on_c, 0, 74, 0
2, 438845, Note_on_c, 0, 67, 90
2, 438965, Note_on_c, 0, 65, 0
2, 438965, Note_on_c, 0, 64, 90
2, 439085, Note_on_c, 0, 67, 0
2, 439085, Note_on_c, 0, 65, 90
2, 439205, Note_on_c, 0, 64, 0
2, 439205, Note_on_c, 0, 62, 90
2, 439265, Note_on_c, 0, 65, 0
2, 439265, Note_on_c, 0, 64, 90
2, 439325, Note_on_c, 0, 64, 0
2, 439325, Note_on_c, 0, 62, 90
2, 439385, Note_on_c, 0, 62, 0
2, 439385, Note_on_c, 0, 60, 90
2, 439445, Note_on_c, 0, 60, 0
2, 439445, Note_on_c, 0, 58, 90
2, 439565, Note_on_c, 0, 62, 0
2, 439565, Note_on_c, 0, 67, 90
2, 439685, Note_on_c, 0, 58, 0
2, 439685, Note_on_c, 0, 57, 90
2, 439745, Note_on_c, 0, 67, 0
2, 439745, Note_on_c, 0, 70, 90
2, 439805, Note_on_c, 0, 70, 0
2, 439805, Note_on_c, 0, 57, 0
2, 439805, Note_on_c, 0, 69, 90
2, 439865, Note_on_c, 0, 69, 0
2, 439865, Note_on_c, 0, 67, 90
2, 439925, Note_on_c, 0, 67, 0
2, 439925, Note_on_c, 0, 69, 90
2, 439985, Note_on_c, 0, 69, 0
2, 439985, Note_on_c, 0, 67, 90
2, 440045, Note_on_c, 0, 67, 0
2, 440045, Note_on_c, 0, 65, 90
2, 440105, Note_on_c, 0, 65, 0
2, 440105, Note_on_c, 0, 64, 90
2, 440165, Note_on_c, 0, 64, 0
2, 440165, Note_on_c, 0, 65, 90
2, 440165, Note_on_c, 0, 62, 90
2, 440225, Note_on_c, 0, 65, 0
2, 440225, Note_on_c, 0, 64, 90
2, 440285, Note_on_c, 0, 64, 0
2, 440285, Note_on_c, 0, 65, 90
2, 440345, Note_on_c, 0, 65, 0
2, 440345, Note_on_c, 0, 69, 90
2, 440405, Note_on_c, 0, 69, 0
2, 440405, Note_on_c, 0, 67, 90
2, 440465, Note_on_c, 0, 67, 0
2, 440465, Note_on_c, 0, 65, 90
2, 440525, Note_on_c, 0, 65, 0
2, 440525, Note_on_c, 0, 64, 90
2, 440585, Note_on_c, 0, 64, 0
2, 440585, Note_on_c, 0, 62, 90
2, 440645, Note_on_c, 0, 62, 0
2, 440645, Note_on_c, 0, 62, 0
2, 440645, Note_on_c, 0, 64, 90
2, 440645, Note_on_c, 0, 69, 90
2, 440885, Note_on_c, 0, 64, 0
2, 441005, Note_on_c, 0, 73, 90
2, 441125, Note_on_c, 0, 73, 0
2, 441125, Note_on_c, 0, 69, 0
2, 441125, Note_on_c, 0, 74, 90
2, 441125, Note_on_c, 0, 65, 90
2, 441425, Note_on_c, 0, 74, 0
2, 441425, Note_on_c, 0, 72, 90
2, 441485, Note_on_c, 0, 72, 0
2, 441485, Note_on_c, 0, 70, 90
2, 441545, Note_on_c, 0, 70, 0
2, 441545, Note_on_c, 0, 69, 90
2, 441605, Note_on_c, 0, 69, 0
2, 441605, Note_on_c, 0, 65, 0
2, 441605, Note_on_c, 0, 67, 90
2, 441605, Note_on_c, 0, 62, 90
2, 442085, Note_on_c, 0, 62, 0
2, 442085, Note_on_c, 0, 61, 90
2, 442565, Note_on_c, 0, 61, 0
2, 442565, Note_on_c, 0, 67, 0
2, 442565, Note_on_c, 0, 65, 90
2, 442565, Note_on_c, 0, 62, 90
2, 442805, Note_on_c, 0, 62, 0
2, 442805, Note_on_c, 0, 65, 0
2, 442805, Note_on_c, 0, 64, 90
2, 442925, Note_on_c, 0, 70, 90
2, 443045, Note_on_c, 0, 70, 0
2, 443045, Note_on_c, 0, 64, 0
2, 443045, Note_on_c, 0, 69, 90
2, 443045, Note_on_c, 0, 65, 90
2, 443285, Note_on_c, 0, 69, 0
2, 443405, Note_on_c, 0, 73, 90
2, 443525, Note_on_c, 0, 73, 0
2, 443525, Note_on_c, 0, 74, 90
2, 443585, Note_on_c, 0, 74, 0
2, 443585, Note_on_c, 0, 72, 90
2, 443645, Note_on_c, 0, 72, 0
2, 443645, Note_on_c, 0, 65, 0
2, 443645, Note_on_c, 0, 70, 90
2, 443645, Note_on_c, 0, 67, 90
2, 443705, Note_on_c, 0, 70, 0
2, 443705, Note_on_c, 0, 69, 90
2, 443765, Note_on_c, 0, 69, 0
2, 443765, Note_on_c, 0, 67, 0
2, 443765, Note_on_c, 0, 70, 90
2, 443765, Note_on_c, 0, 65, 90
2, 443825, Note_on_c, 0, 70, 0
2, 443825, Note_on_c, 0, 69, 90
2, 443885, Note_on_c, 0, 69, 0
2, 443885, Note_on_c, 0, 65, 0
2, 443885, Note_on_c, 0, 67, 90
2, 443885, Note_on_c, 0, 63, 90
2, 443945, Note_on_c, 0, 67, 0
2, 443945, Note_on_c, 0, 66, 90
2, 444005, Note_on_c, 0, 66, 0
2, 444005, Note_on_c, 0, 63, 0
2, 444005, Note_on_c, 0, 67, 90
2, 444005, Note_on_c, 0, 62, 90
2, 444245, Note_on_c, 0, 62, 0
2, 444365, Note_on_c, 0, 62, 90
2, 444485, Note_on_c, 0, 62, 0
2, 444485, Note_on_c, 0, 64, 90
2, 444545, Note_on_c, 0, 67, 0
2, 444545, Note_on_c, 0, 70, 90
2, 444605, Note_on_c, 0, 70, 0
2, 444605, Note_on_c, 0, 64, 0
2, 444605, Note_on_c, 0, 69, 90
2, 444605, Note_on_c, 0, 61, 90
2, 444665, Note_on_c, 0, 69, 0
2, 444665, Note_on_c, 0, 67, 90
2, 444725, Note_on_c, 0, 67, 0
2, 444725, Note_on_c, 0, 61, 0
2, 444725, Note_on_c, 0, 69, 90
2, 444725, Note_on_c, 0, 62, 90
2, 444785, Note_on_c, 0, 69, 0
2, 444785, Note_on_c, 0, 67, 90
2, 444845, Note_on_c, 0, 67, 0
2, 444845, Note_on_c, 0, 65, 90
2, 444905, Note_on_c, 0, 65, 0
2, 444905, Note_on_c, 0, 64, 90
2, 444965, Note_on_c, 0, 64, 0
2, 444965, Note_on_c, 0, 65, 90
2, 445145, Note_on_c, 0, 65, 0
2, 445145, Note_on_c, 0, 67, 90
2, 445205, Note_on_c, 0, 67, 0
2, 445205, Note_on_c, 0, 62, 0
2, 445205, Note_on_c, 0, 64, 90
2, 445205, Note_on_c, 0, 61, 90
2, 445385, Note_on_c, 0, 64, 0
2, 445385, Note_on_c, 0, 62, 90
2, 445445, Note_on_c, 0, 62, 0
2, 445445, Note_on_c, 0, 61, 0
2, 445445, Note_on_c, 0, 62, 90
2, 445445, Note_on_c, 0, 57, 90
2, 445925, Note_on_c, 0, 57, 0
2, 445925, Note_on_c, 0, 62, 0
2, 445925, Control_c, 0, 121, 0
2, 445925, Control_c, 0, 91, 40
2, 445925, Control_c, 0, 0, 0
2, 445925, Control_c, 0, 121, 0
2, 445925, Control_c, 0, 91, 40
2, 445925, Control_c, 0, 0, 8
2, 446045, Note_on_c, 0, 61, 90
2, 446165, Note_on_c, 0, 61, 0
2, 446165, Note_on_c, 0, 62, 90
2, 446285, Note_on_c, 0, 62, 0
2, 446285, Note_on_c, 0, 57, 90
2, 446405, Note_on_c, 0, 57, 0
2, 446525, Note_on_c, 0, 65, 90
2, 446645, Note_on_c, 0, 65, 0
2, 446645, Note_on_c, 0, 64, 90
2, 446765, Note_on_c, 0, 64, 0
2, 446765, Note_on_c, 0, 69, 90
2, 446885, Note_on_c, 0, 69, 0
2, 446885, Note_on_c, 0, 62, 90
2, 446945, Note_on_c, 0, 62, 0
2, 446945, Note_on_c, 0, 64, 90
2, 447005, Note_on_c, 0, 64, 0
2, 447005, Note_on_c, 0, 65, 90
2, 447065, Note_on_c, 0, 65, 0
2, 447065, Note_on_c, 0, 67, 90
2, 447125, Note_on_c, 0, 67, 0
2, 447125, Note_on_c, 0, 69, 90
2, 447185, Note_on_c, 0, 69, 0
2, 447185, Note_on_c, 0, 70, 90
2, 447245, Note_on_c, 0, 70, 0
2, 447245, Note_on_c, 0, 72, 90
2, 447425, Note_on_c, 0, 72, 0
2, 447425, Note_on_c, 0, 70, 90
2, 447485, Note_on_c, 0, 70, 0
2, 447485, Note_on_c, 0, 69, 90
2, 447545, Note_on_c, 0, 69, 0
2, 447545, Note_on_c, 0, 67, 90
2, 447605, Note_on_c, 0, 67, 0
2, 447605, Note_on_c, 0, 66, 90
2, 447665, Note_on_c, 0, 66, 0
2, 447665, Note_on_c, 0, 62, 90
2, 447725, Note_on_c, 0, 62, 0
2, 447725, Note_on_c, 0, 67, 90
2, 447905, Note_on_c, 0, 67, 0
2, 447905, Note_on_c, 0, 64, 90
2, 447965, Note_on_c, 0, 64, 0
2, 447965, Note_on_c, 0, 66, 90
2, 448025, Note_on_c, 0, 66, 0
2, 448025, Note_on_c, 0, 67, 90
2, 448085, Note_on_c, 0, 67, 0
2, 448085, Note_on_c, 0, 70, 90
2, 448385, Note_on_c, 0, 70, 0
2, 448385, Note_on_c, 0, 67, 90
2, 448445, Note_on_c, 0, 67, 0
2, 448445, Note_on_c, 0, 69, 90
2, 448505, Note_on_c, 0, 69, 0
2, 448505, Note_on_c, 0, 73, 90
2, 448565, Note_on_c, 0, 73, 0
2, 448565, Note_on_c, 0, 74, 90
2, 448865, Note_on_c, 0, 74, 0
2, 448865, Note_on_c, 0, 72, 90
2, 448925, Note_on_c, 0, 72, 0
2, 448925, Note_on_c, 0, 70, 90
2, 448985, Note_on_c, 0, 70, 0
2, 448985, Note_on_c, 0, 69, 90
2, 449045, Note_on_c, 0, 69, 0
2, 449045, Note_on_c, 0, 67, 90
2, 449105, Note_on_c, 0, 67, 0
2, 449105, Note_on_c, 0, 65, 90
2, 449165, Note_on_c, 0, 65, 0
2, 449165, Note_on_c, 0, 64, 90
2, 449285, Note_on_c, 0, 64, 0
2, 449285, Note_on_c, 0, 69, 90
2, 449465, Note_on_c, 0, 69, 0
2, 449465, Note_on_c, 0, 67, 90
2, 449525, Note_on_c, 0, 67, 0
2, 449525, Note_on_c, 0, 65, 90
2, 449645, Note_on_c, 0, 65, 0
2, 449645, Note_on_c, 0, 72, 90
2, 449645, Note_on_c, 0, 64, 90
2, 449705, Note_on_c, 0, 64, 0
2, 449705, Note_on_c, 0, 66, 90
2, 449765, Note_on_c, 0, 66, 0
2, 449765, Note_on_c, 0, 72, 0
2, 449765, Note_on_c, 0, 71, 90
2, 449765, Note_on_c, 0, 68, 90
2, 449885, Note_on_c, 0, 68, 0
2, 449885, Note_on_c, 0, 71, 0
2, 449885, Note_on_c, 0, 76, 90
2, 449885, Note_on_c, 0, 69, 90
2, 449945, Note_on_c, 0, 69, 0
2, 449945, Note_on_c, 0, 71, 90
2, 450005, Note_on_c, 0, 71, 0
2, 450005, Note_on_c, 0, 76, 0
2, 450005, Note_on_c, 0, 72, 90
2, 450125, Note_on_c, 0, 72, 0
2, 450125, Note_on_c, 0, 68, 90
2, 450125, Note_on_c, 0, 71, 90
2, 450245, Note_on_c, 0, 71, 0
2, 450245, Note_on_c, 0, 68, 0
2, 450245, Note_on_c, 0, 69, 90
2, 450245, Note_on_c, 0, 69, 90
2, 450365, Note_on_c, 0, 69, 0
2, 450365, Note_on_c, 0, 64, 90
2, 450485, Note_on_c, 0, 64, 0
2, 450485, Note_on_c, 0, 69, 0
2, 450485, Note_on_c, 0, 69, 90
2, 450545, Note_on_c, 0, 69, 0
2, 450545, Note_on_c, 0, 67, 90
2, 450605, Note_on_c, 0, 67, 0
2, 450605, Note_on_c, 0, 65, 90
2, 450665, Note_on_c, 0, 65, 0
2, 450665, Note_on_c, 0, 64, 90
2, 450725, Note_on_c, 0, 64, 0
2, 450725, Note_on_c, 0, 62, 90
2, 450785, Note_on_c, 0, 62, 0
2, 450785, Note_on_c, 0, 60, 90
2, 450845, Note_on_c, 0, 60, 0
2, 450845, Note_on_c, 0, 59, 90
2, 451025, Note_on_c, 0, 59, 0
2, 451025, Note_on_c, 0, 61, 90
2, 451085, Note_on_c, 0, 61, 0
2, 451085, Note_on_c, 0, 62, 90
2, 451145, Note_on_c, 0, 62, 0
2, 451145, Note_on_c, 0, 64, 90
2, 451205, Note_on_c, 0, 64, 0
2, 451205, Note_on_c, 0, 65, 90
2, 451265, Note_on_c, 0, 65, 0
2, 451265, Note_on_c, 0, 64, 90
2, 451325, Note_on_c, 0, 64, 0
2, 451325, Note_on_c, 0, 65, 90
2, 451385, Note_on_c, 0, 65, 0
2, 451385, Note_on_c, 0, 62, 90
2, 451445, Note_on_c, 0, 62, 0
2, 451445, Note_on_c, 0, 64, 90
2, 451505, Note_on_c, 0, 64, 0
2, 451505, Note_on_c, 0, 66, 90
2, 451565, Note_on_c, 0, 66, 0
2, 451565, Note_on_c, 0, 67, 90
2, 451625, Note_on_c, 0, 67, 0
2, 451625, Note_on_c, 0, 69, 90
2, 451685, Note_on_c, 0, 69, 0
2, 451685, Note_on_c, 0, 70, 90
2, 451745, Note_on_c, 0, 70, 0
2, 451745, Note_on_c, 0, 69, 90
2, 451805, Note_on_c, 0, 69, 0
2, 451805, Note_on_c, 0, 70, 90
2, 451865, Note_on_c, 0, 70, 0
2, 451865, Note_on_c, 0, 67, 90
2, 451925, Note_on_c, 0, 67, 0
2, 451925, Note_on_c, 0, 69, 90
2, 452045, Note_on_c, 0, 69, 0
2, 452045, Note_on_c, 0, 74, 90
2, 452225, Note_on_c, 0, 74, 0
2, 452225, Note_on_c, 0, 72, 90
2, 452285, Note_on_c, 0, 72, 0
2, 452285, Note_on_c, 0, 74, 90
2, 452285, Note_on_c, 0, 68, 90
2, 452345, Note_on_c, 0, 74, 0
2, 452345, Note_on_c, 0, 71, 90
2, 452405, Note_on_c, 0, 71, 0
2, 452405, Note_on_c, 0, 68, 0
2, 452405, Note_on_c, 0, 72, 90
2, 452405, Note_on_c, 0, 69, 90
2, 452525, Note_on_c, 0, 69, 0
2, 452525, Note_on_c, 0, 72, 0
2, 452525, Note_on_c, 0, 73, 90
2, 452525, Note_on_c, 0, 65, 90
2, 452645, Note_on_c, 0, 65, 0
2, 452645, Note_on_c, 0, 73, 0
2, 452645, Note_on_c, 0, 74, 90
2, 452765, Note_on_c, 0, 74, 0
2, 452765, Note_on_c, 0, 67, 90
2, 452765, Note_on_c, 0, 70, 90
2, 452885, Note_on_c, 0, 70, 0
2, 452885, Note_on_c, 0, 67, 0
2, 452885, Note_on_c, 0, 65, 90
2, 452885, Note_on_c, 0, 69, 90
2, 453005, Note_on_c, 0, 69, 0
2, 453005, Note_on_c, 0, 65, 0
2, 453005, Note_on_c, 0, 69, 90
2, 453005, Note_on_c, 0, 74, 90
2, 453125, Note_on_c, 0, 74, 0
2, 453125, Note_on_c, 0, 69, 0
2, 453125, Note_on_c, 0, 74, 90
2, 453125, Note_on_c, 0, 67, 90
2, 453185, Note_on_c, 0, 67, 0
2, 453185, Note_on_c, 0, 69, 90
2, 453245, Note_on_c, 0, 69, 0
2, 453245, Note_on_c, 0, 71, 90
2, 453305, Note_on_c, 0, 71, 0
2, 453305, Note_on_c, 0, 74, 0
2, 453305, Note_on_c, 0, 76, 90
2, 453305, Note_on_c, 0, 73, 90
2, 453365, Note_on_c, 0, 73, 0
2, 453365, Note_on_c, 0, 76, 0
2, 453365, Note_on_c, 0, 77, 90
2, 453365, Note_on_c, 0, 74, 90
2, 453425, Note_on_c, 0, 74, 0
2, 453425, Note_on_c, 0, 77, 0
2, 453425, Note_on_c, 0, 79, 90
2, 453425, Note_on_c, 0, 76, 90
2, 453485, Note_on_c, 0, 76, 0
2, 453485, Note_on_c, 0, 79, 0
2, 453485, Note_on_c, 0, 81, 90
2, 453485, Note_on_c, 0, 77, 90
2, 453665, Note_on_c, 0, 77, 0
2, 453665, Note_on_c, 0, 76, 90
2, 453725, Note_on_c, 0, 76, 0
2, 453725, Note_on_c, 0, 81, 0
2, 453725, Note_on_c, 0, 82, 90
2, 453725, Note_on_c, 0, 74, 90
2, 453785, Note_on_c, 0, 74, 0
2, 453785, Note_on_c, 0, 82, 0
2, 453785, Note_on_c, 0, 81, 90
2, 453785, Note_on_c, 0, 72, 90
2, 453845, Note_on_c, 0, 72, 0
2, 453845, Note_on_c, 0, 81, 0
2, 453845, Note_on_c, 0, 79, 90
2, 453845, Note_on_c, 0, 70, 90
2, 453905, Note_on_c, 0, 70, 0
2, 453905, Note_on_c, 0, 79, 0
2, 453905, Note_on_c, 0, 77, 90
2, 453905, Note_on_c, 0, 69, 90
2, 453965, Note_on_c, 0, 69, 0
2, 453965, Note_on_c, 0, 77, 0
2, 453965, Note_on_c, 0, 79, 90
2, 453965, Note_on_c, 0, 70, 90
2, 454085, Note_on_c, 0, 79, 0
2, 454085, Note_on_c, 0, 72, 90
2, 454205, Note_on_c, 0, 70, 0
2, 454205, Note_on_c, 0, 69, 90
2, 454265, Note_on_c, 0, 69, 0
2, 454265, Note_on_c, 0, 67, 90
2, 454325, Note_on_c, 0, 67, 0
2, 454325, Note_on_c, 0, 65, 90
2, 454385, Note_on_c, 0, 65, 0
2, 454385, Note_on_c, 0, 67, 90
2, 454445, Note_on_c, 0, 67, 0
2, 454445, Note_on_c, 0, 65, 90
2, 454505, Note_on_c, 0, 65, 0
2, 454505, Note_on_c, 0, 63, 90
2, 454565, Note_on_c, 0, 63, 0
2, 454565, Note_on_c, 0, 62, 90
2, 454625, Note_on_c, 0, 72, 0
2, 454625, Note_on_c, 0, 66, 90
2, 454685, Note_on_c, 0, 66, 0
2, 454685, Note_on_c, 0, 67, 90
2, 454745, Note_on_c, 0, 67, 0
2, 454745, Note_on_c, 0, 69, 90
2, 454805, Note_on_c, 0, 69, 0
2, 454805, Note_on_c, 0, 70, 90
2, 454925, Note_on_c, 0, 62, 0
2, 454925, Note_on_c, 0, 64, 90
2, 454985, Note_on_c, 0, 64, 0
2, 454985, Note_on_c, 0, 65, 90
2, 455045, Note_on_c, 0, 65, 0
2, 455045, Note_on_c, 0, 67, 90
2, 455105, Note_on_c, 0, 67, 0
2, 455105, Note_on_c, 0, 65, 90
2, 455165, Note_on_c, 0, 65, 0
2, 455165, Note_on_c, 0, 64, 90
2, 455225, Note_on_c, 0, 64, 0
2, 455225, Note_on_c, 0, 62, 90
2, 455285, Note_on_c, 0, 62, 0
2, 455285, Note_on_c, 0, 70, 0
2, 455285, Note_on_c, 0, 69, 90
2, 455285, Note_on_c, 0, 60, 90
2, 455405, Note_on_c, 0, 60, 0
2, 455405, Note_on_c, 0, 65, 90
2, 455525, Note_on_c, 0, 65, 0
2, 455525, Note_on_c, 0, 65, 90
2, 455585, Note_on_c, 0, 69, 0
2, 455585, Note_on_c, 0, 74, 90
2, 455705, Note_on_c, 0, 74, 0
2, 455705, Note_on_c, 0, 73, 90
2, 455765, Note_on_c, 0, 73, 0
2, 455765, Note_on_c, 0, 74, 90
2, 455825, Note_on_c, 0, 65, 0
2, 455825, Note_on_c, 0, 66, 90
2, 455885, Note_on_c, 0, 66, 0
2, 455885, Note_on_c, 0, 67, 90
2, 455945, Note_on_c, 0, 67, 0
2, 455945, Note_on_c, 0, 68, 90
2, 456005, Note_on_c, 0, 68, 0
2, 456005, Note_on_c, 0, 69, 90
2, 456125, Note_on_c, 0, 74, 0
2, 456125, Note_on_c, 0, 73, 90
2, 456245, Note_on_c, 0, 73, 0
2, 456245, Note_on_c, 0, 69, 0
2, 456485, Note_on_c, 0, 81, 90
2, 456725, Note_on_c, 0, 81, 0
2, 456725, Note_on_c, 0, 74, 90
2, 456905, Note_on_c, 0, 74, 0
2, 456905, Note_on_c, 0, 76, 90
2, 456965, Note_on_c, 0, 76, 0
2, 456965, Note_on_c, 0, 77, 90
2, 456965, Note_on_c, 0, 74, 90
2, 457145, Note_on_c, 0, 77, 0
2, 457145, Note_on_c, 0, 79, 90
2, 457205, Note_on_c, 0, 79, 0
2, 457205, Note_on_c, 0, 74, 0
2, 457205, Note_on_c, 0, 81, 90
2, 457205, Note_on_c, 0, 69, 90
2, 457385, Note_on_c, 0, 69, 0
2, 457385, Note_on_c, 0, 71, 90
2, 457445, Note_on_c, 0, 71, 0
2, 457445, Note_on_c, 0, 81, 0
2, 457445, Note_on_c, 0, 82, 90
2, 457445, Note_on_c, 0, 73, 90
2, 457625, Note_on_c, 0, 73, 0
2, 457625, Note_on_c, 0, 74, 90
2, 457685, Note_on_c, 0, 74, 0
2, 457685, Note_on_c, 0, 82, 0
2, 457685, Note_on_c, 0, 81, 90
2, 457685, Note_on_c, 0, 76, 90
2, 457865, Note_on_c, 0, 81, 0
2, 457865, Note_on_c, 0, 79, 90
2, 457925, Note_on_c, 0, 79, 0
2, 457925, Note_on_c, 0, 76, 0
2, 457925, Note_on_c, 0, 77, 90
2, 457925, Note_on_c, 0, 69, 90
2, 458165, Note_on_c, 0, 69, 0
2, 458225, Note_on_c, 0, 77, 0
2, 458225, Note_on_c, 0, 76, 90
2, 458285, Note_on_c, 0, 76, 0
2, 458285, Note_on_c, 0, 78, 90
2, 458345, Note_on_c, 0, 78, 0
2, 458345, Note_on_c, 0, 80, 90
2, 458405, Note_on_c, 0, 80, 0
2, 458405, Note_on_c, 0, 81, 90
2, 458465, Note_on_c, 0, 81, 0
2, 458465, Note_on_c, 0, 79, 90
2, 458495, Note_on_c, 0, 79, 0
2, 458495, Note_on_c, 0, 77, 90
2, 458525, Note_on_c, 0, 77, 0
2, 458525, Note_on_c, 0, 76, 90
2, 458705, Note_on_c, 0, 76, 0
2, 458705, Note_on_c, 0, 74, 90
2, 458765, Note_on_c, 0, 74, 0
2, 458765, Note_on_c, 0, 72, 90
2, 458825, Note_on_c, 0, 72, 0
2, 458825, Note_on_c, 0, 71, 90
2, 458885, Note_on_c, 0, 71, 0
2, 458885, Note_on_c, 0, 69, 90
2, 458945, Note_on_c, 0, 69, 0
2, 458945, Note_on_c, 0, 68, 90
2, 459005, Note_on_c, 0, 68, 0
2, 459005, Note_on_c, 0, 69, 90
2, 459065, Note_on_c, 0, 69, 0
2, 459065, Note_on_c, 0, 71, 90
2, 459125, Note_on_c, 0, 71, 0
2, 459125, Note_on_c, 0, 73, 90
2, 459185, Note_on_c, 0, 73, 0
2, 459185, Note_on_c, 0, 74, 90
2, 459245, Note_on_c, 0, 74, 0
2, 459245, Note_on_c, 0, 76, 90
2, 459305, Note_on_c, 0, 76, 0
2, 459305, Note_on_c, 0, 77, 90
2, 459365, Note_on_c, 0, 77, 0
2, 459365, Note_on_c, 0, 79, 90
2, 459425, Note_on_c, 0, 79, 0
2, 459425, Note_on_c, 0, 81, 90
2, 459485, Note_on_c, 0, 81, 0
2, 459485, Note_on_c, 0, 82, 90
2, 459545, Note_on_c, 0, 82, 0
2, 459545, Note_on_c, 0, 79, 90
2, 459605, Note_on_c, 0, 79, 0
2, 459605, Note_on_c, 0, 76, 90
2, 459665, Note_on_c, 0, 76, 0
2, 459665, Note_on_c, 0, 81, 90
2, 459725, Note_on_c, 0, 81, 0
2, 459725, Note_on_c, 0, 79, 90
2, 459785, Note_on_c, 0, 79, 0
2, 459785, Note_on_c, 0, 81, 90
2, 459845, Note_on_c, 0, 81, 0
2, 459845, Note_on_c, 0, 77, 90
2, 459905, Note_on_c, 0, 77, 0
2, 459905, Note_on_c, 0, 79, 90
2, 459965, Note_on_c, 0, 79, 0
2, 459965, Note_on_c, 0, 81, 90
2, 460025, Note_on_c, 0, 81, 0
2, 460025, Note_on_c, 0, 77, 90
2, 460085, Note_on_c, 0, 77, 0
2, 460085, Note_on_c, 0, 74, 90
2, 460145, Note_on_c, 0, 74, 0
2, 460145, Note_on_c, 0, 79, 90
2, 460205, Note_on_c, 0, 79, 0
2, 460205, Note_on_c, 0, 77, 90
2, 460265, Note_on_c, 0, 77, 0
2, 460265, Note_on_c, 0, 79, 90
2, 460325, Note_on_c, 0, 79, 0
2, 460325, Note_on_c, 0, 76, 90
2, 460385, Note_on_c, 0, 76, 0
2, 460385, Note_on_c, 0, 77, 90
2, 460445, Note_on_c, 0, 77, 0
2, 460445, Note_on_c, 0, 79, 90
2, 460505, Note_on_c, 0, 79, 0
2, 460505, Note_on_c, 0, 76, 90
2, 460565, Note_on_c, 0, 76, 0
2, 460565, Note_on_c, 0, 77, 90
2, 460745, Note_on_c, 0, 77, 0
2, 460745, Note_on_c, 0, 79, 90
2, 460805, Note_on_c, 0, 79, 0
2, 460805, Note_on_c, 0, 81, 90
2, 460985, Note_on_c, 0, 81, 0
2, 460985, Note_on_c, 0, 79, 90
2, 461045, Note_on_c, 0, 79, 0
2, 461045, Note_on_c, 0, 77, 90
2, 461105, Note_on_c, 0, 77, 0
2, 461105, Note_on_c, 0, 76, 90
2, 461165, Note_on_c, 0, 76, 0
2, 461165, Note_on_c, 0, 74, 90
2, 461225, Note_on_c, 0, 74, 0
2, 461225, Note_on_c, 0, 73, 90
2, 461285, Note_on_c, 0, 73, 0
2, 461285, Note_on_c, 0, 74, 90
2, 461585, Note_on_c, 0, 74, 0
2, 461585, Note_on_c, 0, 71, 90
2, 461645, Note_on_c, 0, 71, 0
2, 461645, Note_on_c, 0, 73, 90
2, 461765, Note_on_c, 0, 73, 0
2, 461765, Note_on_c, 0, 74, 90
2, 461765, Note_on_c, 0, 74, 90
2, 461825, Note_on_c, 0, 74, 0
2, 461825, Note_on_c, 0, 70, 90
2, 461885, Note_on_c, 0, 70, 0
2, 461885, Note_on_c, 0, 69, 90
2, 461945, Note_on_c, 0, 69, 0
2, 461945, Note_on_c, 0, 67, 90
2, 462005, Note_on_c, 0, 67, 0
2, 462005, Note_on_c, 0, 74, 0
2, 462005, Note_on_c, 0, 65, 90
2, 462005, Note_on_c, 0, 69, 90
2, 462125, Note_on_c, 0, 65, 0
2, 462125, Note_on_c, 0, 77, 90
2, 462185, Note_on_c, 0, 69, 0
2, 462185, Note_on_c, 0, 71, 90
2, 462245, Note_on_c, 0, 71, 0
2, 462245, Note_on_c, 0, 72, 90
2, 462305, Note_on_c, 0, 77, 0
2, 462305, Note_on_c, 0, 76, 90
2, 462365, Note_on_c, 0, 76, 0
2, 462365, Note_on_c, 0, 78, 90
2, 462425, Note_on_c, 0, 78, 0
2, 462425, Note_on_c, 0, 72, 0
2, 462425, Note_on_c, 0, 80, 90
2, 462425, Note_on_c, 0, 74, 90
2, 462485, Note_on_c, 0, 74, 0
2, 462485, Note_on_c, 0, 80, 0
2, 462485, Note_on_c, 0, 81, 90
2, 462485, Note_on_c, 0, 76, 90
2, 462725, Note_on_c, 0, 76, 0
2, 462725, Note_on_c, 0, 77, 90
2, 462965, Note_on_c, 0, 77, 0
2, 462965, Note_on_c, 0, 76, 90
2, 463025, Note_on_c, 0, 81, 0
2, 463025, Note_on_c, 0, 81, 90
2, 463085, Note_on_c, 0, 81, 0
2, 463085, Note_on_c, 0, 79, 90
2, 463145, Note_on_c, 0, 79, 0
2, 463145, Note_on_c, 0, 76, 0
2, 463145, Note_on_c, 0, 77, 90
2, 463145, Note_on_c, 0, 74, 90
2, 463205, Note_on_c, 0, 74, 0
2, 463205, Note_on_c, 0, 77, 0
2, 463205, Note_on_c, 0, 76, 90
2, 463205, Note_on_c, 0, 73, 90
2, 463325, Note_on_c, 0, 76, 0
2, 463325, Note_on_c, 0, 81, 90
2, 463505, Note_on_c, 0, 73, 0
2, 463505, Note_on_c, 0, 69, 90
2, 463565, Note_on_c, 0, 69, 0
2, 463565, Note_on_c, 0, 81, 0
2, 463565, Note_on_c, 0, 79, 90
2, 463565, Note_on_c, 0, 71, 90
2, 463625, Note_on_c, 0, 71, 0
2, 463625, Note_on_c, 0, 73, 90
2, 463685, Note_on_c, 0, 73, 0
2, 463685, Note_on_c, 0, 79, 0
2, 463685, Note_on_c, 0, 77, 90
2, 463685, Note_on_c, 0, 74, 90
2, 463925, Note_on_c, 0, 77, 0
2, 463925, Note_on_c, 0, 76, 90
2, 463985, Note_on_c, 0, 74, 0
2, 463985, Note_on_c, 0, 74, 90
2, 464045, Note_on_c, 0, 74, 0
2, 464045, Note_on_c, 0, 72, 90
2, 464105, Note_on_c, 0, 72, 0
2, 464105, Note_on_c, 0, 71, 90
2, 464165, Note_on_c, 0, 71, 0
2, 464165, Note_on_c, 0, 72, 90
2, 464285, Note_on_c, 0, 76, 0
2, 464285, Note_on_c, 0, 78, 90
2, 464345, Note_on_c, 0, 78, 0
2, 464345, Note_on_c, 0, 79, 90
2, 464405, Note_on_c, 0, 79, 0
2, 464405, Note_on_c, 0, 81, 90
2, 464465, Note_on_c, 0, 72, 0
2, 464465, Note_on_c, 0, 72, 90
2, 464525, Note_on_c, 0, 72, 0
2, 464525, Note_on_c, 0, 81, 0
2, 464525, Note_on_c, 0, 74, 90
2, 464525, Note_on_c, 0, 70, 90
2, 464585, Note_on_c, 0, 70, 0
2, 464585, Note_on_c, 0, 69, 90
2, 464645, Note_on_c, 0, 69, 0
2, 464645, Note_on_c, 0, 70, 90
2, 464765, Note_on_c, 0, 74, 0
2, 464765, Note_on_c, 0, 76, 90
2, 464825, Note_on_c, 0, 76, 0
2, 464825, Note_on_c, 0, 77, 90
2, 464885, Note_on_c, 0, 77, 0
2, 464885, Note_on_c, 0, 79, 90
2, 464945, Note_on_c, 0, 70, 0
2, 464945, Note_on_c, 0, 70, 90
2, 465005, Note_on_c, 0, 70, 0
2, 465005, Note_on_c, 0, 79, 0
2, 465005, Note_on_c, 0, 72, 90
2, 465005, Note_on_c, 0, 69, 90
2, 465065, Note_on_c, 0, 69, 0
2, 465065, Note_on_c, 0, 67, 90
2, 465125, Note_on_c, 0, 67, 0
2, 465125, Note_on_c, 0, 69, 90
2, 465185, Note_on_c, 0, 72, 0
2, 465185, Note_on_c, 0, 71, 90
2, 465245, Note_on_c, 0, 71, 0
2, 465245, Note_on_c, 0, 73, 90
2, 465305, Note_on_c, 0, 73, 0
2, 465305, Note_on_c, 0, 74, 90
2, 465365, Note_on_c, 0, 74, 0
2, 465365, Note_on_c, 0, 76, 90
2, 465425, Note_on_c, 0, 69, 0
2, 465425, Note_on_c, 0, 67, 90
2, 465485, Note_on_c, 0, 67, 0
2, 465485, Note_on_c, 0, 76, 0
2, 465485, Note_on_c, 0, 69, 90
2, 465485, Note_on_c, 0, 65, 90
2, 465545, Note_on_c, 0, 65, 0
2, 465545, Note_on_c, 0, 64, 90
2, 465605, Note_on_c, 0, 64, 0
2, 465605, Note_on_c, 0, 65, 90
2, 465665, Note_on_c, 0, 69, 0
2, 465665, Note_on_c, 0, 69, 90
2, 465725, Note_on_c, 0, 69, 0
2, 465725, Note_on_c, 0, 74, 90
2, 465785, Note_on_c, 0, 74, 0
2, 465785, Note_on_c, 0, 73, 90
2, 465845, Note_on_c, 0, 73, 0
2, 465845, Note_on_c, 0, 74, 90
2, 465965, Note_on_c, 0, 65, 0
2, 465965, Note_on_c, 0, 65, 90
2, 466085, Note_on_c, 0, 65, 0
2, 466085, Note_on_c, 0, 64, 90
2, 466205, Note_on_c, 0, 74, 0
2, 466205, Note_on_c, 0, 74, 90
2, 466325, Note_on_c, 0, 74, 0
2, 466325, Note_on_c, 0, 73, 90
2, 466445, Note_on_c, 0, 64, 0
2, 466445, Note_on_c, 0, 64, 90
2, 466565, Note_on_c, 0, 64, 0
2, 466565, Note_on_c, 0, 73, 0
2, 466565, Note_on_c, 0, 74, 90
2, 466565, Note_on_c, 0, 69, 90
2, 466625, Note_on_c, 0, 74, 0
2, 466625, Note_on_c, 0, 70, 90
2, 466685, Note_on_c, 0, 70, 0
2, 466685, Note_on_c, 0, 72, 90
2, 466805, Note_on_c, 0, 69, 0
2, 466805, Note_on_c, 0, 62, 90
2, 466865, Note_on_c, 0, 72, 0
2, 466865, Note_on_c, 0, 69, 90
2, 466925, Note_on_c, 0, 69, 0
2, 466925, Note_on_c, 0, 70, 90
2, 466985, Note_on_c, 0, 62, 0
2, 466985, Note_on_c, 0, 64, 90
2, 467045, Note_on_c, 0, 64, 0
2, 467045, Note_on_c, 0, 65, 90
2, 467105, Note_on_c, 0, 70, 0
2, 467105, Note_on_c, 0, 69, 90
2, 467165, Note_on_c, 0, 69, 0
2, 467165, Note_on_c, 0, 74, 90
2, 467225, Note_on_c, 0, 65, 0
2, 467225, Note_on_c, 0, 67, 90
2, 467285, Note_on_c, 0, 67, 0
2, 467285, Note_on_c, 0, 69, 90
2, 467345, Note_on_c, 0, 74, 0
2, 467345, Note_on_c, 0, 73, 90
2, 467405, Note_on_c, 0, 73, 0
2, 467405, Note_on_c, 0, 74, 90
2, 467525, Note_on_c, 0, 69, 0
2, 467525, Note_on_c, 0, 70, 90
2, 467585, Note_on_c, 0, 74, 0
2, 467585, Note_on_c, 0, 73, 90
2, 467645, Note_on_c, 0, 73, 0
2, 467645, Note_on_c, 0, 74, 90
2, 467705, Note_on_c, 0, 74, 0
2, 467705, Note_on_c, 0, 76, 90
2, 467765, Note_on_c, 0, 76, 0
2, 467765, Note_on_c, 0, 70, 0
2, 467765, Note_on_c, 0, 77, 90
2, 467765, Note_on_c, 0, 69, 90
2, 467945, Note_on_c, 0, 69, 0
2, 467945, Note_on_c, 0, 77, 0
2, 467945, Note_on_c, 0, 76, 90
2, 467945, Note_on_c, 0, 67, 90
2, 468005, Note_on_c, 0, 67, 0
2, 468005, Note_on_c, 0, 76, 0
2, 468005, Note_on_c, 0, 74, 90
2, 468005, Note_on_c, 0, 65, 90
2, 468305, Note_on_c, 0, 65, 0
2, 468305, Note_on_c, 0, 74, 0
2, 468305, Note_on_c, 0, 73, 90
2, 468305, Note_on_c, 0, 64, 90
2, 468365, Note_on_c, 0, 64, 0
2, 468365, Note_on_c, 0, 73, 0
2, 468365, Note_on_c, 0, 74, 90
2, 468365, Note_on_c, 0, 65, 90
2, 468425, Note_on_c, 0, 65, 0
2, 468425, Note_on_c, 0, 74, 0
2, 468425, Note_on_c, 0, 76, 90
2, 468425, Note_on_c, 0, 67, 90
2, 468485, Note_on_c, 0, 67, 0
2, 468485, Note_on_c, 0, 76, 0
2, 468485, Note_on_c, 0, 73, 90
2, 468485, Note_on_c, 0, 69, 90
2, 468605, Note_on_c, 0, 69, 0
2, 468605, Note_on_c, 0, 73, 0
2, 468605, Note_on_c, 0, 74, 90
2, 468785, Note_on_c, 0, 74, 0
2, 468785, Note_on_c, 0, 72, 90
2, 468845, Note_on_c, 0, 72, 0
2, 468845, Note_on_c, 0, 70, 90
2, 468905, Note_on_c, 0, 70, 0
2, 468905, Note_on_c, 0, 69, 90
2, 468965, Note_on_c, 0, 69, 0
2, 468965, Note_on_c, 0, 67, 90
2, 469085, Note_on_c, 0, 67, 0
2, 469085, Note_on_c, 0, 72, 90
2, 469265, Note_on_c, 0, 72, 0
2, 469265, Note_on_c, 0, 70, 90
2, 469325, Note_on_c, 0, 70, 0
2, 469325, Note_on_c, 0, 69, 90
2, 469385, Note_on_c, 0, 69, 0
2, 469385, Note_on_c, 0, 67, 90
2, 469445, Note_on_c, 0, 67, 0
2, 469445, Note_on_c, 0, 65, 90
2, 469565, Note_on_c, 0, 65, 0
2, 469565, Note_on_c, 0, 74, 90
2, 469565, Note_on_c, 0, 70, 90
2, 469625, Note_on_c, 0, 74, 0
2, 469625, Note_on_c, 0, 76, 90
2, 469685, Note_on_c, 0, 76, 0
2, 469685, Note_on_c, 0, 77, 90
2, 469745, Note_on_c, 0, 77, 0
2, 469745, Note_on_c, 0, 79, 90
2, 469805, Note_on_c, 0, 79, 0
2, 469805, Note_on_c, 0, 70, 0
2, 469805, Note_on_c, 0, 81, 90
2, 469805, Note_on_c, 0, 69, 90
2, 469865, Note_on_c, 0, 81, 0
2, 469865, Note_on_c, 0, 77, 90
2, 469925, Note_on_c, 0, 77, 0
2, 469925, Note_on_c, 0, 69, 0
2, 469925, Note_on_c, 0, 79, 90
2, 469925, Note_on_c, 0, 76, 90
2, 469985, Note_on_c, 0, 79, 0
2, 469985, Note_on_c, 0, 81, 90
2, 470045, Note_on_c, 0, 81, 0
2, 470045, Note_on_c, 0, 76, 0
2, 470045, Note_on_c, 0, 82, 90
2, 470105, Note_on_c, 0, 82, 0
2, 470105, Note_on_c, 0, 79, 90
2, 470165, Note_on_c, 0, 79, 0
2, 470165, Note_on_c, 0, 76, 90
2, 470225, Note_on_c, 0, 76, 0
2, 470225, Note_on_c, 0, 81, 90
2, 470285, Note_on_c, 0, 81, 0
2, 470285, Note_on_c, 0, 79, 90
2, 470345, Note_on_c, 0, 79, 0
2, 470345, Note_on_c, 0, 81, 90
2, 470405, Note_on_c, 0, 81, 0
2, 470405, Note_on_c, 0, 77, 90
2, 470465, Note_on_c, 0, 77, 0
2, 470465, Note_on_c, 0, 76, 90
2, 470525, Note_on_c, 0, 76, 0
2, 470525, Note_on_c, 0, 74, 90
2, 470525, Note_on_c, 0, 62, 90
2, 470645, Note_on_c, 0, 62, 0
2, 470645, Note_on_c, 0, 65, 90
2, 470705, Note_on_c, 0, 74, 0
2, 470705, Note_on_c, 0, 71, 90
2, 470765, Note_on_c, 0, 71, 0
2, 470765, Note_on_c, 0, 65, 0
2, 470765, Note_on_c, 0, 72, 90
2, 470765, Note_on_c, 0, 60, 90
2, 470825, Note_on_c, 0, 72, 0
2, 470825, Note_on_c, 0, 74, 90
2, 470885, Note_on_c, 0, 74, 0
2, 470885, Note_on_c, 0, 60, 0
2, 470885, Note_on_c, 0, 76, 90
2, 470945, Note_on_c, 0, 76, 0
2, 470945, Note_on_c, 0, 74, 90
2, 471005, Note_on_c, 0, 74, 0
2, 471005, Note_on_c, 0, 72, 90
2, 471005, Note_on_c, 0, 69, 90
2, 471125, Note_on_c, 0, 69, 0
2, 471125, Note_on_c, 0, 67, 90
2, 471185, Note_on_c, 0, 72, 0
2, 471185, Note_on_c, 0, 71, 90
2, 471245, Note_on_c, 0, 71, 0
2, 471245, Note_on_c, 0, 67, 0
2, 471245, Note_on_c, 0, 76, 90
2, 471245, Note_on_c, 0, 72, 90
2, 471365, Note_on_c, 0, 72, 0
2, 471365, Note_on_c, 0, 65, 90
2, 471425, Note_on_c, 0, 65, 0
2, 471425, Note_on_c, 0, 67, 90
2, 471485, Note_on_c, 0, 67, 0
2, 471485, Note_on_c, 0, 76, 0
2, 471485, Note_on_c, 0, 74, 90
2, 471485, Note_on_c, 0, 69, 90
2, 471545, Note_on_c, 0, 69, 0
2, 471545, Note_on_c, 0, 71, 90
2, 471605, Note_on_c, 0, 71, 0
2, 471605, Note_on_c, 0, 74, 0
2, 471605, Note_on_c, 0, 72, 90
2, 471605, Note_on_c, 0, 72, 90
2, 471665, Note_on_c, 0, 72, 0
2, 471665, Note_on_c, 0, 74, 90
2, 471725, Note_on_c, 0, 74, 0
2, 471725, Note_on_c, 0, 72, 0
2, 471725, Note_on_c, 0, 71, 90
2, 471725, Note_on_c, 0, 76, 90
2, 471845, Note_on_c, 0, 71, 0
2, 471845, Note_on_c, 0, 69, 90
2, 471905, Note_on_c, 0, 76, 0
2, 471905, Note_on_c, 0, 74, 90
2, 471965, Note_on_c, 0, 74, 0
2, 471965, Note_on_c, 0, 72, 90
2, 472025, Note_on_c, 0, 72, 0
2, 472025, Note_on_c, 0, 71, 90
2, 472085, Note_on_c, 0, 71, 0
2, 472085, Note_on_c, 0, 69, 0
2, 472085, Note_on_c, 0, 69, 90
2, 472385, Note_on_c, 0, 69, 0
2, 472385, Note_on_c, 0, 66, 90
2, 472445, Note_on_c, 0, 66, 0
2, 472445, Note_on_c, 0, 68, 90
2, 472565, Note_on_c, 0, 68, 0
2, 473405, Note_on_c, 0, 69, 90
2, 473465, Note_on_c, 0, 69, 0
2, 473465, Note_on_c, 0, 71, 90
2, 473525, Note_on_c, 0, 71, 0
2, 473525, Note_on_c, 0, 73, 90
2, 473585, Note_on_c, 0, 73, 0
2, 473585, Note_on_c, 0, 74, 90
2, 473645, Note_on_c, 0, 74, 0
2, 473645, Note_on_c, 0, 76, 90
2, 473705, Note_on_c, 0, 76, 0
2, 473705, Note_on_c, 0, 77, 90
2, 473765, Note_on_c, 0, 77, 0
2, 473765, Note_on_c, 0, 79, 90
2, 473825, Note_on_c, 0, 79, 0
2, 473825, Note_on_c, 0, 81, 90
2, 473885, Note_on_c, 0, 81, 0
2, 473885, Note_on_c, 0, 82, 90
2, 473945, Note_on_c, 0, 82, 0
2, 473945, Note_on_c, 0, 79, 90
2, 474005, Note_on_c, 0, 79, 0
2, 474005, Note_on_c, 0, 76, 90
2, 474065, Note_on_c, 0, 76, 0
2, 474065, Note_on_c, 0, 81, 90
2, 474125, Note_on_c, 0, 81, 0
2, 474125, Note_on_c, 0, 79, 90
2, 474185, Note_on_c, 0, 79, 0
2, 474185, Note_on_c, 0, 81, 90
2, 474245, Note_on_c, 0, 81, 0
2, 474245, Note_on_c, 0, 77, 90
2, 474305, Note_on_c, 0, 77, 0
2, 474305, Note_on_c, 0, 79, 90
2, 474365, Note_on_c, 0, 79, 0
2, 474365, Note_on_c, 0, 77, 90
2, 474365, Note_on_c, 0, 62, 90
2, 474425, Note_on_c, 0, 62, 0
2, 474425, Note_on_c, 0, 77, 0
2, 474425, Note_on_c, 0, 76, 90
2, 474425, Note_on_c, 0, 64, 90
2, 474485, Note_on_c, 0, 64, 0
2, 474485, Note_on_c, 0, 76, 0
2, 474485, Note_on_c, 0, 74, 90
2, 474485, Note_on_c, 0, 65, 90
2, 474545, Note_on_c, 0, 65, 0
2, 474545, Note_on_c, 0, 74, 0
2, 474545, Note_on_c, 0, 76, 90
2, 474545, Note_on_c, 0, 67, 90
2, 474605, Note_on_c, 0, 67, 0
2, 474605, Note_on_c, 0, 76, 0
2, 474605, Note_on_c, 0, 77, 90
2, 474605, Note_on_c, 0, 69, 90
2, 474665, Note_on_c, 0, 69, 0
2, 474665, Note_on_c, 0, 77, 0
2, 474665, Note_on_c, 0, 74, 90
2, 474665, Note_on_c, 0, 71, 90
2, 474725, Note_on_c, 0, 71, 0
2, 474725, Note_on_c, 0, 74, 0
2, 474725, Note_on_c, 0, 76, 90
2, 474725, Note_on_c, 0, 72, 90
2, 474785, Note_on_c, 0, 72, 0
2, 474785, Note_on_c, 0, 76, 0
2, 474785, Note_on_c, 0, 78, 90
2, 474785, Note_on_c, 0, 74, 90
2, 474845, Note_on_c, 0, 74, 0
2, 474845, Note_on_c, 0, 78, 0
2, 474845, Note_on_c, 0, 79, 90
2, 474845, Note_on_c, 0, 75, 90
2, 474905, Note_on_c, 0, 75, 0
2, 474905, Note_on_c, 0, 72, 90
2, 474965, Note_on_c, 0, 72, 0
2, 474965, Note_on_c, 0, 69, 90
2, 475025, Note_on_c, 0, 69, 0
2, 475025, Note_on_c, 0, 74, 90
2, 475085, Note_on_c, 0, 74, 0
2, 475085, Note_on_c, 0, 79, 0
2, 475085, Note_on_c, 0, 78, 90
2, 475085, Note_on_c, 0, 72, 90
2, 475145, Note_on_c, 0, 72, 0
2, 475145, Note_on_c, 0, 74, 90
2, 475205, Note_on_c, 0, 74, 0
2, 475205, Note_on_c, 0, 78, 0
2, 475205, Note_on_c, 0, 79, 90
2, 475205, Note_on_c, 0, 70, 90
2, 475265, Note_on_c, 0, 70, 0
2, 475265, Note_on_c, 0, 72, 90
2, 475325, Note_on_c, 0, 72, 0
2, 475325, Note_on_c, 0, 79, 0
2, 475325, Note_on_c, 0, 74, 90
2, 475325, Note_on_c, 0, 70, 90
2, 475385, Note_on_c, 0, 70, 0
2, 475385, Note_on_c, 0, 69, 90
2, 475445, Note_on_c, 0, 69, 0
2, 475445, Note_on_c, 0, 74, 0
2, 475445, Note_on_c, 0, 79, 90
2, 475445, Note_on_c, 0, 67, 90
2, 475505, Note_on_c, 0, 67, 0
2, 475505, Note_on_c, 0, 69, 90
2, 475565, Note_on_c, 0, 69, 0
2, 475565, Note_on_c, 0, 70, 90
2, 475625, Note_on_c, 0, 70, 0
2, 475625, Note_on_c, 0, 67, 90
2, 475685, Note_on_c, 0, 67, 0
2, 475685, Note_on_c, 0, 69, 90
2, 475745, Note_on_c, 0, 69, 0
2, 475745, Note_on_c, 0, 71, 90
2, 475805, Note_on_c, 0, 71, 0
2, 475805, Note_on_c, 0, 79, 0
2, 475805, Note_on_c, 0, 77, 90
2, 475805, Note_on_c, 0, 72, 90
2, 475865, Note_on_c, 0, 77, 0
2, 475865, Note_on_c, 0, 76, 90
2, 475925, Note_on_c, 0, 76, 0
2, 475925, Note_on_c, 0, 77, 90
2, 476045, Note_on_c, 0, 77, 0
2, 476045, Note_on_c, 0, 72, 0
2, 476045, Note_on_c, 0, 74, 90
2, 476045, Note_on_c, 0, 70, 90
2, 476165, Note_on_c, 0, 74, 0
2, 476165, Note_on_c, 0, 72, 90
2, 476285, Note_on_c, 0, 70, 0
2, 476285, Note_on_c, 0, 64, 90
2, 476405, Note_on_c, 0, 64, 0
2, 476405, Note_on_c, 0, 69, 90
2, 476525, Note_on_c, 0, 72, 0
2, 476525, Note_on_c, 0, 72, 90
2, 476645, Note_on_c, 0, 72, 0
2, 476645, Note_on_c, 0, 77, 90
2, 476765, Note_on_c, 0, 69, 0
2, 476765, Note_on_c, 0, 74, 90
2, 476885, Note_on_c, 0, 74, 0
2, 476885, Note_on_c, 0, 67, 90
2, 476945, Note_on_c, 0, 77, 0
2, 476945, Note_on_c, 0, 79, 90
2, 477005, Note_on_c, 0, 79, 0
2, 477005, Note_on_c, 0, 77, 90
2, 477065, Note_on_c, 0, 77, 0
2, 477065, Note_on_c, 0, 79, 90
2, 477125, Note_on_c, 0, 79, 0
2, 477125, Note_on_c, 0, 76, 90
2, 477185, Note_on_c, 0, 67, 0
2, 477185, Note_on_c, 0, 67, 90
2, 477245, Note_on_c, 0, 67, 0
2, 477245, Note_on_c, 0, 76, 0
2, 477245, Note_on_c, 0, 69, 90
2, 477245, Note_on_c, 0, 65, 90
2, 477305, Note_on_c, 0, 65, 0
2, 477305, Note_on_c, 0, 64, 90
2, 477365, Note_on_c, 0, 64, 0
2, 477365, Note_on_c, 0, 69, 0
2, 477365, Note_on_c, 0, 70, 90
2, 477365, Note_on_c, 0, 65, 90
2, 477425, Note_on_c, 0, 65, 0
2, 477425, Note_on_c, 0, 64, 90
2, 477485, Note_on_c, 0, 64, 0
2, 477485, Note_on_c, 0, 70, 0
2, 477485, Note_on_c, 0, 65, 90
2, 477485, Note_on_c, 0, 62, 90
2, 477545, Note_on_c, 0, 62, 0
2, 477545, Note_on_c, 0, 61, 90
2, 477605, Note_on_c, 0, 61, 0
2, 477605, Note_on_c, 0, 65, 0
2, 477605, Note_on_c, 0, 62, 90
2, 477665, Note_on_c, 0, 62, 0
2, 477665, Note_on_c, 0, 64, 90
2, 477725, Note_on_c, 0, 64, 0
2, 477725, Note_on_c, 0, 74, 90
2, 477725, Note_on_c, 0, 65, 90
2, 477845, Note_on_c, 0, 74, 0
2, 477845, Note_on_c, 0, 72, 90
2, 477905, Note_on_c, 0, 65, 0
2, 477905, Note_on_c, 0, 64, 90
2, 477965, Note_on_c, 0, 64, 0
2, 477965, Note_on_c, 0, 72, 0
2, 477965, Note_on_c, 0, 77, 90
2, 477965, Note_on_c, 0, 62, 90
2, 478085, Note_on_c, 0, 77, 0
2, 478085, Note_on_c, 0, 70, 90
2, 478145, Note_on_c, 0, 70, 0
2, 478145, Note_on_c, 0, 72, 90
2, 478205, Note_on_c, 0, 72, 0
2, 478205, Note_on_c, 0, 62, 0
2, 478205, Note_on_c, 0, 74, 90
2, 478205, Note_on_c, 0, 74, 90
2, 478265, Note_on_c, 0, 74, 0
2, 478265, Note_on_c, 0, 74, 0
2, 478265, Note_on_c, 0, 76, 90
2, 478265, Note_on_c, 0, 73, 90
2, 478325, Note_on_c, 0, 73, 0
2, 478325, Note_on_c, 0, 76, 0
2, 478325, Note_on_c, 0, 77, 90
2, 478325, Note_on_c, 0, 74, 90
2, 478385, Note_on_c, 0, 74, 0
2, 478385, Note_on_c, 0, 77, 0
2, 478385, Note_on_c, 0, 79, 90
2, 478385, Note_on_c, 0, 76, 90
2, 478445, Note_on_c, 0, 76, 0
2, 478445, Note_on_c, 0, 79, 0
2, 478445, Note_on_c, 0, 81, 90
2, 478445, Note_on_c, 0, 77, 90
2, 478625, Note_on_c, 0, 81, 0
2, 478625, Note_on_c, 0, 79, 90
2, 478685, Note_on_c, 0, 79, 0
2, 478685, Note_on_c, 0, 77, 0
2, 478685, Note_on_c, 0, 77, 90
2, 478685, Note_on_c, 0, 69, 90
2, 478745, Note_on_c, 0, 77, 0
2, 478745, Note_on_c, 0, 76, 90
2, 478805, Note_on_c, 0, 76, 0
2, 478805, Note_on_c, 0, 69, 0
2, 478805, Note_on_c, 0, 74, 90
2, 478805, Note_on_c, 0, 70, 90
2, 478925, Note_on_c, 0, 70, 0
2, 478925, Note_on_c, 0, 62, 90
2, 478985, Note_on_c, 0, 62, 0
2, 478985, Note_on_c, 0, 64, 90
2, 479045, Note_on_c, 0, 64, 0
2, 479045, Note_on_c, 0, 74, 0
2, 479045, Note_on_c, 0, 72, 90
2, 479045, Note_on_c, 0, 65, 90
2, 479105, Note_on_c, 0, 65, 0
2, 479105, Note_on_c, 0, 64, 90
2, 479165, Note_on_c, 0, 64, 0
2, 479165, Note_on_c, 0, 65, 90
2, 479225, Note_on_c, 0, 65, 0
2, 479225, Note_on_c, 0, 67, 90
2, 479285, Note_on_c, 0, 67, 0
2, 479285, Note_on_c, 0, 69, 90
2, 479345, Note_on_c, 0, 72, 0
2, 479345, Note_on_c, 0, 72, 90
2, 479405, Note_on_c, 0, 72, 0
2, 479405, Note_on_c, 0, 74, 90
2, 479465, Note_on_c, 0, 74, 0
2, 479465, Note_on_c, 0, 69, 0
2, 479465, Note_on_c, 0, 76, 90
2, 479465, Note_on_c, 0, 67, 90
2, 479525, Note_on_c, 0, 67, 0
2, 479525, Note_on_c, 0, 76, 0
2, 479525, Note_on_c, 0, 77, 90
2, 479525, Note_on_c, 0, 65, 90
2, 479585, Note_on_c, 0, 65, 0
2, 479585, Note_on_c, 0, 67, 90
2, 479645, Note_on_c, 0, 67, 0
2, 479645, Note_on_c, 0, 70, 90
2, 479705, Note_on_c, 0, 70, 0
2, 479705, Note_on_c, 0, 72, 90
2, 479765, Note_on_c, 0, 72, 0
2, 479765, Note_on_c, 0, 74, 90
2, 479825, Note_on_c, 0, 77, 0
2, 479825, Note_on_c, 0, 78, 90
2, 479885, Note_on_c, 0, 78, 0
2, 479885, Note_on_c, 0, 79, 90
2, 479945, Note_on_c, 0, 79, 0
2, 479945, Note_on_c, 0, 81, 90
2, 480005, Note_on_c, 0, 81, 0
2, 480005, Note_on_c, 0, 82, 90
2, 480185, Note_on_c, 0, 74, 0
2, 480185, Note_on_c, 0, 72, 90
2, 480245, Note_on_c, 0, 72, 0
2, 480245, Note_on_c, 0, 82, 0
2, 480245, Note_on_c, 0, 70, 90
2, 480305, Note_on_c, 0, 74, 90
2, 480365, Note_on_c, 0, 74, 0
2, 480365, Note_on_c, 0, 76, 90
2, 480425, Note_on_c, 0, 76, 0
2, 480425, Note_on_c, 0, 70, 0
2, 480425, Note_on_c, 0, 77, 90
2, 480425, Note_on_c, 0, 69, 90
2, 480485, Note_on_c, 0, 69, 0
2, 480485, Note_on_c, 0, 77, 0
2, 480485, Note_on_c, 0, 79, 90
2, 480485, Note_on_c, 0, 67, 90
2, 480545, Note_on_c, 0, 67, 0
2, 480545, Note_on_c, 0, 71, 90
2, 480605, Note_on_c, 0, 71, 0
2, 480605, Note_on_c, 0, 72, 90
2, 480665, Note_on_c, 0, 72, 0
2, 480665, Note_on_c, 0, 74, 90
2, 480725, Note_on_c, 0, 74, 0
2, 480725, Note_on_c, 0, 76, 90
2, 480785, Note_on_c, 0, 79, 0
2, 480785, Note_on_c, 0, 80, 90
2, 480845, Note_on_c, 0, 80, 0
2, 480845, Note_on_c, 0, 81, 90
2, 480905, Note_on_c, 0, 81, 0
2, 480905, Note_on_c, 0, 83, 90
2, 480965, Note_on_c, 0, 83, 0
2, 480965, Note_on_c, 0, 84, 90
2, 481145, Note_on_c, 0, 76, 0
2, 481145, Note_on_c, 0, 74, 90
2, 481205, Note_on_c, 0, 74, 0
2, 481205, Note_on_c, 0, 84, 0
2, 481205, Note_on_c, 0, 72, 90
2, 481265, Note_on_c, 0, 76, 90
2, 481325, Note_on_c, 0, 76, 0
2, 481325, Note_on_c, 0, 77, 90
2, 481385, Note_on_c, 0, 77, 0
2, 481385, Note_on_c, 0, 72, 0
2, 481385, Note_on_c, 0, 79, 90
2, 481385, Note_on_c, 0, 71, 90
2, 481445, Note_on_c, 0, 71, 0
2, 481445, Note_on_c, 0, 79, 0
2, 481445, Note_on_c, 0, 81, 90
2, 481445, Note_on_c, 0, 72, 90
2, 481685, Note_on_c, 0, 72, 0
2, 481685, Note_on_c, 0, 81, 0
2, 481685, Note_on_c, 0, 74, 90
2, 481685, Note_on_c, 0, 65, 90
2, 481865, Note_on_c, 0, 65, 0
2, 481865, Note_on_c, 0, 74, 0
2, 481865, Note_on_c, 0, 76, 90
2, 481865, Note_on_c, 0, 67, 90
2, 481925, Note_on_c, 0, 67, 0
2, 481925, Note_on_c, 0, 76, 0
2, 481925, Note_on_c, 0, 77, 90
2, 481925, Note_on_c, 0, 69, 90
2, 482105, Note_on_c, 0, 69, 0
2, 482105, Note_on_c, 0, 77, 0
2, 482105, Note_on_c, 0, 79, 90
2, 482105, Note_on_c, 0, 70, 90
2, 482165, Note_on_c, 0, 70, 0
2, 482165, Note_on_c, 0, 79, 0
2, 482165, Note_on_c, 0, 81, 90
2, 482165, Note_on_c, 0, 72, 90
2, 482405, Note_on_c, 0, 72, 0
2, 482405, Note_on_c, 0, 81, 0
2, 482405, Note_on_c, 0, 82, 90
2, 482405, Note_on_c, 0, 74, 90
2, 482645, Note_on_c, 0, 74, 0
2, 482645, Note_on_c, 0, 82, 0
2, 482645, Note_on_c, 0, 81, 90
2, 482645, Note_on_c, 0, 72, 90
2, 482825, Note_on_c, 0, 72, 0
2, 482825, Note_on_c, 0, 81, 0
2, 482825, Note_on_c, 0, 79, 90
2, 482825, Note_on_c, 0, 70, 90
2, 482885, Note_on_c, 0, 70, 0
2, 482885, Note_on_c, 0, 79, 0
2, 482885, Note_on_c, 0, 77, 90
2, 482885, Note_on_c, 0, 69, 90
2, 483185, Note_on_c, 0, 69, 0
2, 483185, Note_on_c, 0, 77, 0
2, 483185, Note_on_c, 0, 76, 90
2, 483185, Note_on_c, 0, 67, 90
2, 483245, Note_on_c, 0, 67, 0
2, 483245, Note_on_c, 0, 76, 0
2, 483245, Note_on_c, 0, 77, 90
2, 483245, Note_on_c, 0, 69, 90
2, 483305, Note_on_c, 0, 69, 0
2, 483305, Note_on_c, 0, 77, 0
2, 483305, Note_on_c, 0, 79, 90
2, 483305, Note_on_c, 0, 70, 90
2, 483365, Note_on_c, 0, 70, 0
2, 483365, Note_on_c, 0, 79, 0
2, 483365, Note_on_c, 0, 81, 90
2, 483365, Note_on_c, 0, 72, 90
2, 483425, Note_on_c, 0, 81, 0
2, 483425, Note_on_c, 0, 77, 90
2, 483485, Note_on_c, 0, 77, 0
2, 483485, Note_on_c, 0, 79, 90
2, 483605, Note_on_c, 0, 72, 0
2, 483665, Note_on_c, 0, 79, 0
2, 483665, Note_on_c, 0, 74, 90
2, 483725, Note_on_c, 0, 74, 0
2, 483725, Note_on_c, 0, 76, 90
2, 483785, Note_on_c, 0, 76, 0
2, 483785, Note_on_c, 0, 79, 90
2, 483845, Note_on_c, 0, 79, 0
2, 483845, Note_on_c, 0, 72, 90
2, 483905, Note_on_c, 0, 64, 90
2, 483965, Note_on_c, 0, 64, 0
2, 483965, Note_on_c, 0, 65, 90
2, 484025, Note_on_c, 0, 65, 0
2, 484025, Note_on_c, 0, 69, 90
2, 484085, Note_on_c, 0, 69, 0
2, 484085, Note_on_c, 0, 72, 0
2, 484085, Note_on_c, 0, 70, 90
2, 484085, Note_on_c, 0, 62, 90
2, 484205, Note_on_c, 0, 62, 0
2, 484205, Note_on_c, 0, 64, 90
2, 484325, Note_on_c, 0, 64, 0
2, 484325, Note_on_c, 0, 65, 90
2, 484385, Note_on_c, 0, 70, 0
2, 484385, Note_on_c, 0, 67, 90
2, 484445, Note_on_c, 0, 67, 0
2, 484445, Note_on_c, 0, 69, 90
2, 484505, Note_on_c, 0, 69, 0
2, 484505, Note_on_c, 0, 65, 0
2, 484505, Note_on_c, 0, 72, 90
2, 484505, Note_on_c, 0, 64, 90
2, 484565, Note_on_c, 0, 64, 0
2, 484565, Note_on_c, 0, 72, 0
2, 484565, Note_on_c, 0, 77, 90
2, 484565, Note_on_c, 0, 62, 90
2, 484625, Note_on_c, 0, 62, 0
2, 484625, Note_on_c, 0, 57, 90
2, 484685, Note_on_c, 0, 57, 0
2, 484685, Note_on_c, 0, 58, 90
2, 484745, Note_on_c, 0, 58, 0
2, 484745, Note_on_c, 0, 62, 90
2, 484805, Note_on_c, 0, 62, 0
2, 484805, Note_on_c, 0, 67, 90
2, 484925, Note_on_c, 0, 77, 0
2, 484925, Note_on_c, 0, 71, 90
2, 485045, Note_on_c, 0, 71, 0
2, 485045, Note_on_c, 0, 76, 90
2, 485105, Note_on_c, 0, 67, 0
2, 485105, Note_on_c, 0, 70, 90
2, 485165, Note_on_c, 0, 70, 0
2, 485165, Note_on_c, 0, 69, 90
2, 485225, Note_on_c, 0, 69, 0
2, 485225, Note_on_c, 0, 64, 90
2, 485285, Note_on_c, 0, 64, 0
2, 485285, Note_on_c, 0, 65, 90
2, 485405, Note_on_c, 0, 76, 0
2, 485405, Note_on_c, 0, 74, 90
2, 485525, Note_on_c, 0, 74, 0
2, 485525, Note_on_c, 0, 65, 0
2, 485585, Note_on_c, 0, 76, 90
2, 485645, Note_on_c, 0, 76, 0
2, 485645, Note_on_c, 0, 77, 90
2, 485705, Note_on_c, 0, 77, 0
2, 485705, Note_on_c, 0, 81, 90
2, 485765, Note_on_c, 0, 81, 0
2, 485765, Note_on_c, 0, 74, 90
2, 485825, Note_on_c, 0, 66, 90
2, 485885, Note_on_c, 0, 66, 0
2, 485885, Note_on_c, 0, 67, 90
2, 485945, Note_on_c, 0, 67, 0
2, 485945, Note_on_c, 0, 70, 90
2, 486005, Note_on_c, 0, 70, 0
2, 486005, Note_on_c, 0, 74, 0
2, 486005, Note_on_c, 0, 72, 90
2, 486005, Note_on_c, 0, 64, 90
2, 486125, Note_on_c, 0, 64, 0
2, 486125, Note_on_c, 0, 66, 90
2, 486245, Note_on_c, 0, 66, 0
2, 486245, Note_on_c, 0, 67, 90
2, 486305, Note_on_c, 0, 67, 0
2, 486305, Note_on_c, 0, 72, 0
2, 486305, Note_on_c, 0, 69, 90
2, 486305, Note_on_c, 0, 66, 90
2, 486365, Note_on_c, 0, 66, 0
2, 486365, Note_on_c, 0, 69, 0
2, 486365, Note_on_c, 0, 71, 90
2, 486365, Note_on_c, 0, 67, 90
2, 486425, Note_on_c, 0, 71, 0
2, 486425, Note_on_c, 0, 73, 90
2, 486485, Note_on_c, 0, 73, 0
2, 486485, Note_on_c, 0, 67, 0
2, 486485, Note_on_c, 0, 74, 90
2, 486485, Note_on_c, 0, 71, 90
2, 486605, Note_on_c, 0, 71, 0
2, 486605, Note_on_c, 0, 74, 0
2, 486605, Note_on_c, 0, 69, 90
2, 486605, Note_on_c, 0, 65, 90
2, 486725, Note_on_c, 0, 65, 0
2, 486725, Note_on_c, 0, 69, 0
2, 486845, Note_on_c, 0, 77, 90
2, 486845, Note_on_c, 0, 74, 90
2, 486965, Note_on_c, 0, 74, 0
2, 486965, Note_on_c, 0, 77, 0
2, 486965, Note_on_c, 0, 76, 90
2, 486965, Note_on_c, 0, 72, 90
2, 487085, Note_on_c, 0, 72, 0
2, 487085, Note_on_c, 0, 76, 0
2, 487085, Note_on_c, 0, 81, 90
2, 487085, Note_on_c, 0, 77, 90
2, 487205, Note_on_c, 0, 77, 0
2, 487205, Note_on_c, 0, 81, 0
2, 487205, Note_on_c, 0, 74, 90
2, 487205, Note_on_c, 0, 70, 90
2, 487265, Note_on_c, 0, 70, 0
2, 487265, Note_on_c, 0, 74, 0
2, 487265, Note_on_c, 0, 76, 90
2, 487265, Note_on_c, 0, 72, 90
2, 487325, Note_on_c, 0, 72, 0
2, 487325, Note_on_c, 0, 76, 0
2, 487325, Note_on_c, 0, 77, 90
2, 487325, Note_on_c, 0, 74, 90
2, 487385, Note_on_c, 0, 74, 0
2, 487385, Note_on_c, 0, 77, 0
2, 487385, Note_on_c, 0, 79, 90
2, 487385, Note_on_c, 0, 76, 90
2, 487445, Note_on_c, 0, 76, 0
2, 487445, Note_on_c, 0, 79, 0
2, 487445, Note_on_c, 0, 81, 90
2, 487445, Note_on_c, 0, 77, 90
2, 487505, Note_on_c, 0, 77, 0
2, 487505, Note_on_c, 0, 81, 0
2, 487505, Note_on_c, 0, 82, 90
2, 487505, Note_on_c, 0, 79, 90
2, 487565, Note_on_c, 0, 79, 0
2, 487565, Note_on_c, 0, 82, 0
2, 487565, Note_on_c, 0, 84, 90
2, 487565, Note_on_c, 0, 81, 90
2, 487745, Note_on_c, 0, 81, 0
2, 487745, Note_on_c, 0, 84, 0
2, 487745, Note_on_c, 0, 82, 90
2, 487745, Note_on_c, 0, 79, 90
2, 487805, Note_on_c, 0, 79, 0
2, 487805, Note_on_c, 0, 82, 0
2, 487805, Note_on_c, 0, 81, 90
2, 487805, Note_on_c, 0, 77, 90
2, 487865, Note_on_c, 0, 77, 0
2, 487865, Note_on_c, 0, 81, 0
2, 487865, Note_on_c, 0, 79, 90
2, 487865, Note_on_c, 0, 76, 90
2, 487925, Note_on_c, 0, 76, 0
2, 487925, Note_on_c, 0, 79, 0
2, 487925, Note_on_c, 0, 77, 90
2, 487925, Note_on_c, 0, 74, 90
2, 488165, Note_on_c, 0, 74, 0
2, 488165, Note_on_c, 0, 77, 0
2, 488165, Note_on_c, 0, 76, 90
2, 488165, Note_on_c, 0, 73, 90
2, 488405, Note_on_c, 0, 73, 0
2, 488405, Note_on_c, 0, 76, 0
2, 488705, Note_on_c, 0, 67, 90
2, 488765, Note_on_c, 0, 67, 0
2, 488765, Note_on_c, 0, 69, 90
2, 488825, Note_on_c, 0, 69, 0
2, 488825, Note_on_c, 0, 67, 90
2, 488885, Note_on_c, 0, 67, 0
2, 488885, Note_on_c, 0, 66, 90
2, 488945, Note_on_c, 0, 72, 90
2, 489005, Note_on_c, 0, 72, 0
2, 489005, Note_on_c, 0, 66, 0
2, 489005, Note_on_c, 0, 74, 90
2, 489005, Note_on_c, 0, 69, 90
2, 489065, Note_on_c, 0, 74, 0
2, 489065, Note_on_c, 0, 72, 90
2, 489125, Note_on_c, 0, 72, 0
2, 489125, Note_on_c, 0, 69, 0
2, 489125, Note_on_c, 0, 70, 90
2, 489185, Note_on_c, 0, 67, 90
2, 489245, Note_on_c, 0, 67, 0
2, 489245, Note_on_c, 0, 65, 90
2, 489305, Note_on_c, 0, 65, 0
2, 489305, Note_on_c, 0, 67, 90
2, 489365, Note_on_c, 0, 67, 0
2, 489365, Note_on_c, 0, 70, 0
2, 489365, Note_on_c, 0, 69, 90
2, 489485, Note_on_c, 0, 69, 0
2, 489485, Note_on_c, 0, 64, 90
2, 489605, Note_on_c, 0, 64, 0
2, 489605, Note_on_c, 0, 65, 90
2, 489665, Note_on_c, 0, 77, 90
2, 489725, Note_on_c, 0, 77, 0
2, 489725, Note_on_c, 0, 65, 0
2, 489725, Note_on_c, 0, 79, 90
2, 489725, Note_on_c, 0, 72, 90
2, 489785, Note_on_c, 0, 79, 0
2, 489785, Note_on_c, 0, 77, 90
2, 489845, Note_on_c, 0, 77, 0
2, 489845, Note_on_c, 0, 72, 0
2, 489845, Note_on_c, 0, 76, 90
2, 489845, Note_on_c, 0, 67, 90
2, 489965, Note_on_c, 0, 67, 0
2, 489965, Note_on_c, 0, 76, 0
2, 489965, Note_on_c, 0, 81, 90
2, 489965, Note_on_c, 0, 76, 90
2, 490085, Note_on_c, 0, 76, 0
2, 490085, Note_on_c, 0, 81, 0
2, 490085, Note_on_c, 0, 77, 90
2, 490085, Note_on_c, 0, 69, 90
2, 490145, Note_on_c, 0, 77, 0
2, 490145, Note_on_c, 0, 81, 90
2, 490205, Note_on_c, 0, 81, 0
2, 490205, Note_on_c, 0, 69, 0
2, 490205, Note_on_c, 0, 82, 90
2, 490265, Note_on_c, 0, 82, 0
2, 490265, Note_on_c, 0, 81, 90
2, 490325, Note_on_c, 0, 81, 0
2, 490325, Note_on_c, 0, 79, 90
2, 490385, Note_on_c, 0, 74, 90
2, 490445, Note_on_c, 0, 74, 0
2, 490445, Note_on_c, 0, 79, 0
2, 490445, Note_on_c, 0, 84, 90
2, 490445, Note_on_c, 0, 75, 90
2, 490505, Note_on_c, 0, 75, 0
2, 490505, Note_on_c, 0, 74, 90
2, 490565, Note_on_c, 0, 74, 0
2, 490565, Note_on_c, 0, 84, 0
2, 490565, Note_on_c, 0, 77, 90
2, 490565, Note_on_c, 0, 72, 90
2, 490685, Note_on_c, 0, 72, 0
2, 490685, Note_on_c, 0, 77, 0
2, 490685, Note_on_c, 0, 82, 90
2, 490685, Note_on_c, 0, 77, 90
2, 490805, Note_on_c, 0, 77, 0
2, 490805, Note_on_c, 0, 82, 0
2, 490805, Note_on_c, 0, 70, 90
2, 490925, Note_on_c, 0, 70, 0
2, 490925, Note_on_c, 0, 77, 90
2, 490925, Note_on_c, 0, 72, 90
2, 491045, Note_on_c, 0, 72, 0
2, 491105, Note_on_c, 0, 67, 90
2, 491165, Note_on_c, 0, 67, 0
2, 491165, Note_on_c, 0, 77, 0
2, 491165, Note_on_c, 0, 75, 90
2, 491165, Note_on_c, 0, 69, 90
2, 491225, Note_on_c, 0, 69, 0
2, 491225, Note_on_c, 0, 67, 90
2, 491285, Note_on_c, 0, 67, 0
2, 491285, Note_on_c, 0, 65, 90
2, 491405, Note_on_c, 0, 65, 0
2, 491405, Note_on_c, 0, 75, 0
2, 491405, Note_on_c, 0, 74, 90
2, 491405, Note_on_c, 0, 70, 90
2, 491525, Note_on_c, 0, 70, 0
2, 491585, Note_on_c, 0, 63, 90
2, 491645, Note_on_c, 0, 63, 0
2, 491645, Note_on_c, 0, 74, 0
2, 491645, Note_on_c, 0, 72, 90
2, 491645, Note_on_c, 0, 64, 90
2, 491705, Note_on_c, 0, 64, 0
2, 491705, Note_on_c, 0, 63, 90
2, 491765, Note_on_c, 0, 63, 0
2, 491765, Note_on_c, 0, 62, 90
2, 491885, Note_on_c, 0, 62, 0
2, 491885, Note_on_c, 0, 72, 0
2, 491885, Note_on_c, 0, 70, 90
2, 491885, Note_on_c, 0, 67, 90
2, 492005, Note_on_c, 0, 67, 0
2, 492065, Note_on_c, 0, 60, 90
2, 492125, Note_on_c, 0, 60, 0
2, 492125, Note_on_c, 0, 70, 0
2, 492125, Note_on_c, 0, 69, 90
2, 492125, Note_on_c, 0, 62, 90
2, 492185, Note_on_c, 0, 62, 0
2, 492185, Note_on_c, 0, 60, 90
2, 492245, Note_on_c, 0, 60, 0
2, 492245, Note_on_c, 0, 58, 90
2, 492305, Note_on_c, 0, 69, 0
2, 492305, Note_on_c, 0, 67, 90
2, 492365, Note_on_c, 0, 67, 0
2, 492365, Note_on_c, 0, 58, 0
2, 492365, Note_on_c, 0, 79, 90
2, 492365, Note_on_c, 0, 70, 90
2, 492545, Note_on_c, 0, 70, 0
2, 492545, Note_on_c, 0, 79, 0
2, 492545, Note_on_c, 0, 76, 90
2, 492545, Note_on_c, 0, 67, 90
2, 492605, Note_on_c, 0, 67, 0
2, 492605, Note_on_c, 0, 76, 0
2, 492605, Note_on_c, 0, 78, 90
2, 492605, Note_on_c, 0, 69, 90
2, 492725, Note_on_c, 0, 78, 0
2, 492725, Note_on_c, 0, 77, 90
2, 492785, Note_on_c, 0, 69, 0
2, 492785, Note_on_c, 0, 67, 90
2, 492845, Note_on_c, 0, 67, 0
2, 492845, Note_on_c, 0, 65, 90
2, 492905, Note_on_c, 0, 65, 0
2, 492905, Note_on_c, 0, 63, 90
2, 492965, Note_on_c, 0, 63, 0
2, 492965, Note_on_c, 0, 62, 90
2, 493085, Note_on_c, 0, 62, 0
2, 493085, Note_on_c, 0, 77, 0
2, 493085, Note_on_c, 0, 75, 90
2, 493085, Note_on_c, 0, 67, 90
2, 493145, Note_on_c, 0, 75, 0
2, 493145, Note_on_c, 0, 74, 90
2, 493205, Note_on_c, 0, 74, 0
2, 493205, Note_on_c, 0, 75, 90
2, 493265, Note_on_c, 0, 67, 0
2, 493265, Note_on_c, 0, 65, 90
2, 493325, Note_on_c, 0, 65, 0
2, 493325, Note_on_c, 0, 63, 90
2, 493385, Note_on_c, 0, 63, 0
2, 493385, Note_on_c, 0, 62, 90
2, 493445, Note_on_c, 0, 62, 0
2, 493445, Note_on_c, 0, 60, 90
2, 493565, Note_on_c, 0, 60, 0
2, 493565, Note_on_c, 0, 75, 0
2, 493565, Note_on_c, 0, 74, 90
2, 493565, Note_on_c, 0, 65, 90
2, 493625, Note_on_c, 0, 74, 0
2, 493625, Note_on_c, 0, 72, 90
2, 493685, Note_on_c, 0, 72, 0
2, 493685, Note_on_c, 0, 74, 90
2, 493745, Note_on_c, 0, 74, 0
2, 493745, Note_on_c, 0, 65, 0
2, 493745, Note_on_c, 0, 75, 90
2, 493745, Note_on_c, 0, 63, 90
2, 493805, Note_on_c, 0, 63, 0
2, 493805, Note_on_c, 0, 75, 0
2, 493805, Note_on_c, 0, 77, 90
2, 493805, Note_on_c, 0, 62, 90
2, 493865, Note_on_c, 0, 62, 0
2, 493865, Note_on_c, 0, 60, 90
2, 493925, Note_on_c, 0, 60, 0
2, 493925, Note_on_c, 0, 58, 90
2, 493985, Note_on_c, 0, 77, 0
2, 493985, Note_on_c, 0, 74, 90
2, 494045, Note_on_c, 0, 74, 0
2, 494045, Note_on_c, 0, 76, 90
2, 494105, Note_on_c, 0, 76, 0
2, 494105, Note_on_c, 0, 58, 0
2, 494105, Note_on_c, 0, 77, 90
2, 494105, Note_on_c, 0, 57, 90
2, 494165, Note_on_c, 0, 57, 0
2, 494165, Note_on_c, 0, 77, 0
2, 494165, Note_on_c, 0, 79, 90
2, 494165, Note_on_c, 0, 58, 90
2, 494225, Note_on_c, 0, 58, 0
2, 494225, Note_on_c, 0, 60, 90
2, 494285, Note_on_c, 0, 60, 0
2, 494285, Note_on_c, 0, 79, 0
2, 494285, Note_on_c, 0, 70, 90
2, 494285, Note_on_c, 0, 62, 90
2, 494345, Note_on_c, 0, 62, 0
2, 494345, Note_on_c, 0, 64, 90
2, 494405, Note_on_c, 0, 64, 0
2, 494405, Note_on_c, 0, 65, 90
2, 494465, Note_on_c, 0, 70, 0
2, 494465, Note_on_c, 0, 67, 90
2, 494525, Note_on_c, 0, 67, 0
2, 494525, Note_on_c, 0, 65, 0
2, 494525, Note_on_c, 0, 69, 90
2, 494525, Note_on_c, 0, 60, 90
2, 494585, Note_on_c, 0, 69, 0
2, 494585, Note_on_c, 0, 70, 90
2, 494645, Note_on_c, 0, 70, 0
2, 494645, Note_on_c, 0, 60, 0
2, 494645, Note_on_c, 0, 72, 90
2, 494705, Note_on_c, 0, 72, 0
2, 494705, Note_on_c, 0, 74, 90
2, 494765, Note_on_c, 0, 74, 0
2, 494765, Note_on_c, 0, 75, 90
2, 494825, Note_on_c, 0, 75, 0
2, 494825, Note_on_c, 0, 72, 90
2, 494885, Note_on_c, 0, 72, 0
2, 494885, Note_on_c, 0, 74, 90
2, 494945, Note_on_c, 0, 72, 90
2, 495005, Note_on_c, 0, 72, 0
2, 495005, Note_on_c, 0, 74, 0
2, 495005, Note_on_c, 0, 77, 90
2, 495005, Note_on_c, 0, 70, 90
2, 495065, Note_on_c, 0, 70, 0
2, 495065, Note_on_c, 0, 69, 90
2, 495125, Note_on_c, 0, 69, 0
2, 495125, Note_on_c, 0, 77, 0
2, 495125, Note_on_c, 0, 70, 90
2, 495125, Note_on_c, 0, 67, 90
2, 495185, Note_on_c, 0, 67, 0
2, 495185, Note_on_c, 0, 66, 90
2, 495245, Note_on_c, 0, 66, 0
2, 495245, Note_on_c, 0, 67, 90
2, 495305, Note_on_c, 0, 67, 0
2, 495305, Note_on_c, 0, 70, 0
2, 495305, Note_on_c, 0, 72, 90
2, 495305, Note_on_c, 0, 69, 90
2, 495365, Note_on_c, 0, 69, 0
2, 495365, Note_on_c, 0, 72, 0
2, 495365, Note_on_c, 0, 74, 90
2, 495365, Note_on_c, 0, 70, 90
2, 495425, Note_on_c, 0, 70, 0
2, 495425, Note_on_c, 0, 69, 90
2, 495485, Note_on_c, 0, 69, 0
2, 495485, Note_on_c, 0, 70, 90
2, 495545, Note_on_c, 0, 70, 0
2, 495545, Note_on_c, 0, 74, 0
2, 495545, Note_on_c, 0, 76, 90
2, 495545, Note_on_c, 0, 67, 90
2, 495605, Note_on_c, 0, 67, 0
2, 495605, Note_on_c, 0, 76, 0
2, 495605, Note_on_c, 0, 77, 90
2, 495605, Note_on_c, 0, 72, 90
2, 495665, Note_on_c, 0, 72, 0
2, 495665, Note_on_c, 0, 75, 90
2, 495725, Note_on_c, 0, 75, 0
2, 495725, Note_on_c, 0, 74, 90
2, 495785, Note_on_c, 0, 74, 0
2, 495785, Note_on_c, 0, 72, 90
2, 495845, Note_on_c, 0, 72, 0
2, 495845, Note_on_c, 0, 77, 0
2, 495845, Note_on_c, 0, 79, 90
2, 495845, Note_on_c, 0, 70, 90
2, 495965, Note_on_c, 0, 70, 0
2, 495965, Note_on_c, 0, 75, 90
2, 496085, Note_on_c, 0, 75, 0
2, 496085, Note_on_c, 0, 79, 0
2, 496085, Note_on_c, 0, 77, 90
2, 496145, Note_on_c, 0, 75, 90
2, 496205, Note_on_c, 0, 75, 0
2, 496205, Note_on_c, 0, 74, 90
2, 496265, Note_on_c, 0, 74, 0
2, 496265, Note_on_c, 0, 77, 0
2, 496265, Note_on_c, 0, 76, 90
2, 496265, Note_on_c, 0, 72, 90
2, 496325, Note_on_c, 0, 72, 0
2, 496325, Note_on_c, 0, 76, 0
2, 496325, Note_on_c, 0, 74, 90
2, 496325, Note_on_c, 0, 70, 90
2, 496385, Note_on_c, 0, 70, 0
2, 496385, Note_on_c, 0, 69, 90
2, 496445, Note_on_c, 0, 69, 0
2, 496445, Note_on_c, 0, 67, 90
2, 496505, Note_on_c, 0, 67, 0
2, 496505, Note_on_c, 0, 69, 90
2, 496565, Note_on_c, 0, 69, 0
2, 496565, Note_on_c, 0, 70, 90
2, 496625, Note_on_c, 0, 70, 0
2, 496625, Note_on_c, 0, 74, 0
2, 496625, Note_on_c, 0, 72, 90
2, 496625, Note_on_c, 0, 69, 90
2, 496685, Note_on_c, 0, 69, 0
2, 496685, Note_on_c, 0, 72, 0
2, 496685, Note_on_c, 0, 74, 90
2, 496685, Note_on_c, 0, 70, 90
2, 496745, Note_on_c, 0, 70, 0
2, 496745, Note_on_c, 0, 74, 0
2, 496745, Note_on_c, 0, 76, 90
2, 496745, Note_on_c, 0, 67, 90
2, 496805, Note_on_c, 0, 67, 0
2, 496805, Note_on_c, 0, 76, 0
2, 496805, Note_on_c, 0, 77, 90
2, 496805, Note_on_c, 0, 72, 90
2, 496925, Note_on_c, 0, 72, 0
2, 496925, Note_on_c, 0, 77, 0
2, 496925, Note_on_c, 0, 65, 90
2, 496985, Note_on_c, 0, 65, 0
2, 496985, Note_on_c, 0, 67, 90
2, 497045, Note_on_c, 0, 67, 0
2, 497045, Note_on_c, 0, 69, 90
2, 497105, Note_on_c, 0, 69, 0
2, 497105, Note_on_c, 0, 70, 90
2, 497165, Note_on_c, 0, 70, 0
2, 497165, Note_on_c, 0, 72, 90
2, 497165, Note_on_c, 0, 65, 90
2, 497225, Note_on_c, 0, 72, 0
2, 497225, Note_on_c, 0, 74, 90
2, 497285, Note_on_c, 0, 74, 0
2, 497285, Note_on_c, 0, 65, 0
2, 497285, Note_on_c, 0, 75, 90
2, 497285, Note_on_c, 0, 67, 90
2, 497345, Note_on_c, 0, 67, 0
2, 497345, Note_on_c, 0, 75, 0
2, 497345, Note_on_c, 0, 77, 90
2, 497345, Note_on_c, 0, 69, 90
2, 497405, Note_on_c, 0, 69, 0
2, 497405, Note_on_c, 0, 77, 0
2, 497405, Note_on_c, 0, 79, 90
2, 497405, Note_on_c, 0, 70, 90
2, 497465, Note_on_c, 0, 79, 0
2, 497465, Note_on_c, 0, 75, 90
2, 497525, Note_on_c, 0, 75, 0
2, 497525, Note_on_c, 0, 72, 90
2, 497585, Note_on_c, 0, 72, 0
2, 497585, Note_on_c, 0, 77, 90
2, 497645, Note_on_c, 0, 77, 0
2, 497645, Note_on_c, 0, 70, 0
2, 497645, Note_on_c, 0, 75, 90
2, 497645, Note_on_c, 0, 69, 90
2, 497705, Note_on_c, 0, 75, 0
2, 497705, Note_on_c, 0, 77, 90
2, 497765, Note_on_c, 0, 77, 0
2, 497765, Note_on_c, 0, 74, 90
2, 497825, Note_on_c, 0, 74, 0
2, 497825, Note_on_c, 0, 75, 90
2, 497885, Note_on_c, 0, 75, 0
2, 497885, Note_on_c, 0, 69, 0
2, 497885, Note_on_c, 0, 77, 90
2, 497885, Note_on_c, 0, 62, 90
2, 497945, Note_on_c, 0, 77, 0
2, 497945, Note_on_c, 0, 74, 90
2, 498005, Note_on_c, 0, 74, 0
2, 498005, Note_on_c, 0, 62, 0
2, 498005, Note_on_c, 0, 70, 90
2, 498065, Note_on_c, 0, 70, 0
2, 498065, Note_on_c, 0, 67, 90
2, 498065, Note_on_c, 0, 67, 90
2, 498125, Note_on_c, 0, 67, 0
2, 498125, Note_on_c, 0, 67, 0
2, 498125, Note_on_c, 0, 79, 90
2, 498125, Note_on_c, 0, 69, 90
2, 498185, Note_on_c, 0, 69, 0
2, 498185, Note_on_c, 0, 70, 90
2, 498245, Note_on_c, 0, 70, 0
2, 498245, Note_on_c, 0, 72, 90
2, 498305, Note_on_c, 0, 72, 0
2, 498305, Note_on_c, 0, 74, 90
2, 498365, Note_on_c, 0, 74, 0
2, 498365, Note_on_c, 0, 79, 0
2, 498365, Note_on_c, 0, 79, 90
2, 498365, Note_on_c, 0, 75, 90
2, 498425, Note_on_c, 0, 75, 0
2, 498425, Note_on_c, 0, 72, 90
2, 498485, Note_on_c, 0, 72, 0
2, 498485, Note_on_c, 0, 69, 90
2, 498545, Note_on_c, 0, 69, 0
2, 498545, Note_on_c, 0, 74, 90
2, 498605, Note_on_c, 0, 74, 0
2, 498605, Note_on_c, 0, 79, 0
2, 498605, Note_on_c, 0, 78, 90
2, 498605, Note_on_c, 0, 72, 90
2, 498665, Note_on_c, 0, 72, 0
2, 498665, Note_on_c, 0, 74, 90
2, 498725, Note_on_c, 0, 74, 0
2, 498725, Note_on_c, 0, 78, 0
2, 498725, Note_on_c, 0, 79, 90
2, 498725, Note_on_c, 0, 70, 90
2, 498785, Note_on_c, 0, 79, 0
2, 498785, Note_on_c, 0, 77, 90
2, 498845, Note_on_c, 0, 77, 0
2, 498845, Note_on_c, 0, 75, 90
2, 498905, Note_on_c, 0, 75, 0
2, 498905, Note_on_c, 0, 74, 90
2, 498965, Note_on_c, 0, 74, 0
2, 498965, Note_on_c, 0, 70, 0
2, 498965, Note_on_c, 0, 73, 90
2, 498965, Note_on_c, 0, 69, 90
2, 499085, Note_on_c, 0, 69, 0
2, 499085, Note_on_c, 0, 73, 0
2, 499085, Note_on_c, 0, 74, 90
2, 499085, Note_on_c, 0, 70, 90
2, 499205, Note_on_c, 0, 74, 0
2, 499205, Note_on_c, 0, 76, 90
2, 499265, Note_on_c, 0, 70, 0
2, 499265, Note_on_c, 0, 69, 90
2, 499325, Note_on_c, 0, 69, 0
2, 499325, Note_on_c, 0, 67, 90
2, 499385, Note_on_c, 0, 67, 0
2, 499385, Note_on_c, 0, 69, 90
2, 499445, Note_on_c, 0, 69, 0
2, 499445, Note_on_c, 0, 65, 90
2, 499505, Note_on_c, 0, 76, 0
2, 499505, Note_on_c, 0, 69, 90
2, 499565, Note_on_c, 0, 69, 0
2, 499565, Note_on_c, 0, 74, 90
2, 499625, Note_on_c, 0, 74, 0
2, 499625, Note_on_c, 0, 72, 90
2, 499685, Note_on_c, 0, 72, 0
2, 499685, Note_on_c, 0, 70, 90
2, 499745, Note_on_c, 0, 65, 0
2, 499745, Note_on_c, 0, 69, 90
2, 499805, Note_on_c, 0, 69, 0
2, 499805, Note_on_c, 0, 67, 90
2, 499865, Note_on_c, 0, 67, 0
2, 499865, Note_on_c, 0, 65, 90
2, 499925, Note_on_c, 0, 65, 0
2, 499925, Note_on_c, 0, 64, 90
2, 500045, Note_on_c, 0, 64, 0
2, 500045, Note_on_c, 0, 62, 90
2, 500165, Note_on_c, 0, 62, 0
2, 500165, Note_on_c, 0, 61, 90
2, 500225, Note_on_c, 0, 61, 0
2, 500225, Note_on_c, 0, 70, 0
2, 500225, Note_on_c, 0, 70, 90
2, 500225, Note_on_c, 0, 62, 90
2, 500285, Note_on_c, 0, 62, 0
2, 500285, Note_on_c, 0, 70, 0
2, 500285, Note_on_c, 0, 69, 90
2, 500285, Note_on_c, 0, 64, 90
2, 500345, Note_on_c, 0, 69, 0
2, 500345, Note_on_c, 0, 67, 90
2, 500405, Note_on_c, 0, 67, 0
2, 500405, Note_on_c, 0, 65, 90
2, 500465, Note_on_c, 0, 64, 0
2, 500465, Note_on_c, 0, 64, 90
2, 500525, Note_on_c, 0, 64, 0
2, 500525, Note_on_c, 0, 62, 90
2, 500585, Note_on_c, 0, 65, 0
2, 500585, Note_on_c, 0, 65, 90
2, 500645, Note_on_c, 0, 65, 0
2, 500645, Note_on_c, 0, 64, 90
2, 500705, Note_on_c, 0, 64, 0
2, 500705, Note_on_c, 0, 69, 90
2, 500765, Note_on_c, 0, 62, 0
2, 500765, Note_on_c, 0, 61, 90
2, 500825, Note_on_c, 0, 69, 0
2, 500825, Note_on_c, 0, 67, 90
2, 500885, Note_on_c, 0, 67, 0
2, 500885, Note_on_c, 0, 61, 0
2, 500885, Note_on_c, 0, 65, 90
2, 500885, Note_on_c, 0, 62, 90
2, 500945, Note_on_c, 0, 65, 0
2, 500945, Note_on_c, 0, 64, 90
2, 501005, Note_on_c, 0, 64, 0
2, 501005, Note_on_c, 0, 62, 0
2, 501005, Note_on_c, 0, 65, 90
2, 501005, Note_on_c, 0, 57, 90
2, 501065, Note_on_c, 0, 65, 0
2, 501065, Note_on_c, 0, 67, 90
2, 501125, Note_on_c, 0, 67, 0
2, 501125, Note_on_c, 0, 57, 0
2, 501125, Note_on_c, 0, 69, 90
2, 501185, Note_on_c, 0, 69, 0
2, 501185, Note_on_c, 0, 67, 90
2, 501245, Note_on_c, 0, 67, 0
2, 501245, Note_on_c, 0, 69, 90
2, 501245, Note_on_c, 0, 65, 90
2, 501305, Note_on_c, 0, 69, 0
2, 501305, Note_on_c, 0, 70, 90
2, 501365, Note_on_c, 0, 70, 0
2, 501365, Note_on_c, 0, 65, 0
2, 501365, Note_on_c, 0, 72, 90
2, 501365, Note_on_c, 0, 64, 90
2, 501425, Note_on_c, 0, 72, 0
2, 501425, Note_on_c, 0, 74, 90
2, 501485, Note_on_c, 0, 74, 0
2, 501485, Note_on_c, 0, 64, 0
2, 501485, Note_on_c, 0, 75, 90
2, 501485, Note_on_c, 0, 69, 90
2, 501545, Note_on_c, 0, 75, 0
2, 501545, Note_on_c, 0, 72, 90
2, 501605, Note_on_c, 0, 72, 0
2, 501605, Note_on_c, 0, 69, 0
2, 501605, Note_on_c, 0, 74, 90
2, 501605, Note_on_c, 0, 62, 90
2, 501665, Note_on_c, 0, 62, 0
2, 501665, Note_on_c, 0, 64, 90
2, 501725, Note_on_c, 0, 64, 0
2, 501725, Note_on_c, 0, 65, 90
2, 501785, Note_on_c, 0, 65, 0
2, 501785, Note_on_c, 0, 67, 90
2, 501845, Note_on_c, 0, 67, 0
2, 501845, Note_on_c, 0, 74, 0
2, 501845, Note_on_c, 0, 72, 90
2, 501845, Note_on_c, 0, 69, 90
2, 501905, Note_on_c, 0, 69, 0
2, 501905, Note_on_c, 0, 70, 90
2, 501965, Note_on_c, 0, 70, 0
2, 501965, Note_on_c, 0, 72, 0
2, 501965, Note_on_c, 0, 77, 90
2, 501965, Note_on_c, 0, 72, 90
2, 502025, Note_on_c, 0, 77, 0
2, 502025, Note_on_c, 0, 76, 90
2, 502085, Note_on_c, 0, 76, 0
2, 502085, Note_on_c, 0, 77, 90
2, 502145, Note_on_c, 0, 72, 0
2, 502145, Note_on_c, 0, 70, 90
2, 502205, Note_on_c, 0, 70, 0
2, 502205, Note_on_c, 0, 69, 90
2, 502265, Note_on_c, 0, 69, 0
2, 502265, Note_on_c, 0, 77, 0
2, 502265, Note_on_c, 0, 73, 90
2, 502265, Note_on_c, 0, 67, 90
2, 502325, Note_on_c, 0, 67, 0
2, 502325, Note_on_c, 0, 73, 0
2, 502325, Note_on_c, 0, 74, 90
2, 502325, Note_on_c, 0, 65, 90
2, 502385, Note_on_c, 0, 65, 0
2, 502385, Note_on_c, 0, 67, 90
2, 502445, Note_on_c, 0, 67, 0
2, 502445, Note_on_c, 0, 69, 90
2, 502925, Note_on_c, 0, 74, 0
2, 502925, Note_on_c, 0, 73, 90
2, 503045, Note_on_c, 0, 73, 0
2, 503045, Note_on_c, 0, 74, 90
2, 503285, Note_on_c, 0, 74, 0
2, 503285, Note_on_c, 0, 69, 0
2, 503520, Control_c, 0, 121, 0
2, 503520, Control_c, 0, 91, 40
2, 503520, Control_c, 0, 0, 0
2, 503520, Control_c, 0, 121, 0
2, 503520, Control_c, 0, 91, 40
2, 503520, Control_c, 0, 0, 8
2, 503640, Note_on_c, 0, 62, 96
2, 503760, Note_on_c, 0, 62, 0
2, 503760, Note_on_c, 0, 69, 96
2, 503880, Note_on_c, 0, 69, 0
2, 503880, Note_on_c, 0, 67, 96
2, 504000, Note_on_c, 0, 67, 0
2, 504120, Note_on_c, 0, 65, 96
2, 504240, Note_on_c, 0, 65, 0
2, 504240, Note_on_c, 0, 64, 96
2, 504360, Note_on_c, 0, 64, 0
2, 504360, Note_on_c, 0, 62, 96
2, 504480, Note_on_c, 0, 62, 0
2, 504600, Note_on_c, 0, 61, 96
2, 504720, Note_on_c, 0, 61, 0
2, 504720, Note_on_c, 0, 62, 96
2, 504840, Note_on_c, 0, 62, 0
2, 504840, Note_on_c, 0, 64, 96
2, 504960, Note_on_c, 0, 64, 0
2, 505080, Note_on_c, 0, 65, 96
2, 505140, Note_on_c, 0, 65, 0
2, 505140, Note_on_c, 0, 67, 96
2, 505200, Note_on_c, 0, 67, 0
2, 505200, Note_on_c, 0, 65, 96
2, 505320, Note_on_c, 0, 65, 0
2, 505320, Note_on_c, 0, 64, 96
2, 505440, Note_on_c, 0, 64, 0
2, 505440, Note_on_c, 0, 62, 96
2, 505560, Note_on_c, 0, 62, 0
2, 505560, Note_on_c, 0, 69, 96
2, 505560, Note_on_c, 0, 60, 96
2, 505620, Note_on_c, 0, 60, 0
2, 505620, Note_on_c, 0, 59, 96
2, 505680, Note_on_c, 0, 59, 0
2, 505680, Note_on_c, 0, 69, 0
2, 505680, Note_on_c, 0, 76, 96
2, 505680, Note_on_c, 0, 60, 96
2, 505800, Note_on_c, 0, 60, 0
2, 505800, Note_on_c, 0, 76, 0
2, 505800, Note_on_c, 0, 74, 96
2, 505800, Note_on_c, 0, 62, 96
2, 505920, Note_on_c, 0, 62, 0
2, 505920, Note_on_c, 0, 74, 0
2, 505920, Note_on_c, 0, 64, 96
2, 506040, Note_on_c, 0, 64, 0
2, 506040, Note_on_c, 0, 72, 96
2, 506040, Note_on_c, 0, 57, 96
2, 506160, Note_on_c, 0, 57, 0
2, 506160, Note_on_c, 0, 72, 0
2, 506160, Note_on_c, 0, 71, 96
2, 506160, Note_on_c, 0, 62, 96
2, 506220, Note_on_c, 0, 62, 0
2, 506220, Note_on_c, 0, 64, 96
2, 506280, Note_on_c, 0, 64, 0
2, 506280, Note_on_c, 0, 71, 0
2, 506280, Note_on_c, 0, 69, 96
2, 506280, Note_on_c, 0, 65, 96
2, 506400, Note_on_c, 0, 65, 0
2, 506400, Note_on_c, 0, 69, 0
2, 506400, Note_on_c, 0, 65, 96
2, 506460, Note_on_c, 0, 65, 0
2, 506460, Note_on_c, 0, 64, 96
2, 506520, Note_on_c, 0, 68, 96
2, 506580, Note_on_c, 0, 64, 0
2, 506580, Note_on_c, 0, 62, 96
2, 506640, Note_on_c, 0, 62, 0
2, 506640, Note_on_c, 0, 68, 0
2, 506640, Note_on_c, 0, 69, 96
2, 506640, Note_on_c, 0, 60, 96
2, 506700, Note_on_c, 0, 60, 0
2, 506700, Note_on_c, 0, 59, 96
2, 506760, Note_on_c, 0, 59, 0
2, 506760, Note_on_c, 0, 69, 0
2, 506760, Note_on_c, 0, 71, 96
2, 506760, Note_on_c, 0, 57, 96
2, 506820, Note_on_c, 0, 57, 0
2, 506820, Note_on_c, 0, 56, 96
2, 506880, Note_on_c, 0, 56, 0
2, 506880, Note_on_c, 0, 71, 0
2, 506880, Note_on_c, 0, 57, 96
2, 506940, Note_on_c, 0, 57, 0
2, 506940, Note_on_c, 0, 64, 96
2, 507000, Note_on_c, 0, 64, 0
2, 507000, Note_on_c, 0, 72, 96
2, 507000, Note_on_c, 0, 69, 96
2, 507060, Note_on_c, 0, 72, 0
2, 507060, Note_on_c, 0, 74, 96
2, 507120, Note_on_c, 0, 74, 0
2, 507120, Note_on_c, 0, 72, 96
2, 507180, Note_on_c, 0, 69, 0
2, 507180, Note_on_c, 0, 62, 96
2, 507240, Note_on_c, 0, 62, 0
2, 507240, Note_on_c, 0, 72, 0
2, 507240, Note_on_c, 0, 71, 96
2, 507240, Note_on_c, 0, 67, 96
2, 507360, Note_on_c, 0, 71, 0
2, 507360, Note_on_c, 0, 69, 96
2, 507480, Note_on_c, 0, 69, 0
2, 507480, Note_on_c, 0, 67, 0
2, 507480, Note_on_c, 0, 71, 96
2, 507480, Note_on_c, 0, 65, 96
2, 507540, Note_on_c, 0, 65, 0
2, 507540, Note_on_c, 0, 67, 96
2, 507600, Note_on_c, 0, 67, 0
2, 507600, Note_on_c, 0, 71, 0
2, 507600, Note_on_c, 0, 72, 96
2, 507600, Note_on_c, 0, 65, 96
2, 507720, Note_on_c, 0, 65, 0
2, 507720, Note_on_c, 0, 72, 0
2, 507720, Note_on_c, 0, 73, 96
2, 507720, Note_on_c, 0, 64, 96
2, 507840, Note_on_c, 0, 64, 0
2, 507840, Note_on_c, 0, 73, 0
2, 507840, Note_on_c, 0, 74, 96
2, 507840, Note_on_c, 0, 65, 96
2, 507900, Note_on_c, 0, 65, 0
2, 507900, Note_on_c, 0, 67, 96
2, 507960, Note_on_c, 0, 67, 0
2, 507960, Note_on_c, 0, 74, 0
2, 507960, Note_on_c, 0, 73, 96
2, 507960, Note_on_c, 0, 69, 96
2, 508020, Note_on_c, 0, 73, 0
2, 508020, Note_on_c, 0, 71, 96
2, 508080, Note_on_c, 0, 71, 0
2, 508080, Note_on_c, 0, 69, 0
2, 508080, Note_on_c, 0, 73, 96
2, 508080, Note_on_c, 0, 67, 96
2, 508140, Note_on_c, 0, 67, 0
2, 508140, Note_on_c, 0, 69, 96
2, 508200, Note_on_c, 0, 69, 0
2, 508200, Note_on_c, 0, 73, 0
2, 508200, Note_on_c, 0, 74, 96
2, 508200, Note_on_c, 0, 70, 96
2, 508320, Note_on_c, 0, 74, 0
2, 508320, Note_on_c, 0, 76, 96
2, 508440, Note_on_c, 0, 76, 0
2, 508440, Note_on_c, 0, 70, 0
2, 508440, Note_on_c, 0, 79, 96
2, 508440, Note_on_c, 0, 69, 96
2, 508500, Note_on_c, 0, 69, 0
2, 508500, Note_on_c, 0, 70, 96
2, 508560, Note_on_c, 0, 70, 0
2, 508560, Note_on_c, 0, 79, 0
2, 508560, Note_on_c, 0, 77, 96
2, 508560, Note_on_c, 0, 69, 96
2, 508680, Note_on_c, 0, 69, 0
2, 508680, Note_on_c, 0, 77, 0
2, 508680, Note_on_c, 0, 76, 96
2, 508680, Note_on_c, 0, 67, 96
2, 508800, Note_on_c, 0, 76, 0
2, 508800, Note_on_c, 0, 81, 96
2, 508920, Note_on_c, 0, 81, 0
2, 508920, Note_on_c, 0, 67, 0
2, 508920, Note_on_c, 0, 74, 96
2, 508920, Note_on_c, 0, 65, 96
2, 509040, Note_on_c, 0, 65, 0
2, 509040, Note_on_c, 0, 74, 0
2, 509040, Note_on_c, 0, 71, 96
2, 509040, Note_on_c, 0, 62, 96
2, 509160, Note_on_c, 0, 62, 0
2, 509160, Note_on_c, 0, 71, 0
2, 509160, Note_on_c, 0, 73, 96
2, 509160, Note_on_c, 0, 67, 96
2, 509280, Note_on_c, 0, 73, 0
2, 509280, Note_on_c, 0, 74, 96
2, 509400, Note_on_c, 0, 67, 0
2, 509400, Note_on_c, 0, 65, 96
2, 509520, Note_on_c, 0, 65, 0
2, 509520, Note_on_c, 0, 74, 0
2, 509520, Note_on_c, 0, 72, 96
2, 509520, Note_on_c, 0, 64, 96
2, 509580, Note_on_c, 0, 64, 0
2, 509580, Note_on_c, 0, 69, 96
2, 509640, Note_on_c, 0, 72, 0
2, 509640, Note_on_c, 0, 71, 96
2, 509700, Note_on_c, 0, 69, 0
2, 509700, Note_on_c, 0, 68, 96
2, 509760, Note_on_c, 0, 68, 0
2, 509760, Note_on_c, 0, 71, 0
2, 509760, Note_on_c, 0, 69, 96
2, 509760, Note_on_c, 0, 69, 96
2, 509880, Note_on_c, 0, 69, 0
2, 509880, Note_on_c, 0, 69, 0
2, 509880, Note_on_c, 0, 76, 96
2, 509880, Note_on_c, 0, 68, 96
2, 509940, Note_on_c, 0, 68, 0
2, 509940, Note_on_c, 0, 66, 96
2, 510000, Note_on_c, 0, 66, 0
2, 510000, Note_on_c, 0, 76, 0
2, 510000, Note_on_c, 0, 74, 96
2, 510000, Note_on_c, 0, 68, 96
2, 510120, Note_on_c, 0, 68, 0
2, 510120, Note_on_c, 0, 74, 0
2, 510120, Note_on_c, 0, 72, 96
2, 510120, Note_on_c, 0, 69, 96
2, 510240, Note_on_c, 0, 69, 0
2, 510240, Note_on_c, 0, 62, 96
2, 510300, Note_on_c, 0, 62, 0
2, 510300, Note_on_c, 0, 64, 96
2, 510360, Note_on_c, 0, 64, 0
2, 510360, Note_on_c, 0, 72, 0
2, 510360, Note_on_c, 0, 71, 96
2, 510360, Note_on_c, 0, 65, 96
2, 510480, Note_on_c, 0, 65, 0
2, 510480, Note_on_c, 0, 71, 0
2, 510480, Note_on_c, 0, 69, 96
2, 510480, Note_on_c, 0, 64, 96
2, 510600, Note_on_c, 0, 64, 0
2, 510600, Note_on_c, 0, 69, 0
2, 510600, Note_on_c, 0, 68, 96
2, 510600, Note_on_c, 0, 62, 96
2, 510720, Note_on_c, 0, 68, 0
2, 510720, Note_on_c, 0, 69, 96
2, 510840, Note_on_c, 0, 69, 0
2, 510840, Note_on_c, 0, 62, 0
2, 510840, Note_on_c, 0, 64, 96
2, 510840, Note_on_c, 0, 60, 96
2, 510960, Note_on_c, 0, 60, 0
2, 510960, Note_on_c, 0, 64, 0
2, 510960, Note_on_c, 0, 65, 96
2, 511080, Note_on_c, 0, 65, 0
2, 511080, Note_on_c, 0, 71, 96
2, 511080, Note_on_c, 0, 64, 96
2, 511140, Note_on_c, 0, 64, 0
2, 511140, Note_on_c, 0, 62, 96
2, 511200, Note_on_c, 0, 62, 0
2, 511200, Note_on_c, 0, 71, 0
2, 511200, Note_on_c, 0, 73, 96
2, 511200, Note_on_c, 0, 64, 96
2, 511320, Note_on_c, 0, 64, 0
2, 511320, Note_on_c, 0, 73, 0
2, 511320, Note_on_c, 0, 74, 96
2, 511320, Note_on_c, 0, 65, 96
2, 511440, Note_on_c, 0, 65, 0
2, 511440, Note_on_c, 0, 67, 96
2, 511560, Note_on_c, 0, 74, 0
2, 511560, Note_on_c, 0, 76, 96
2, 511680, Note_on_c, 0, 76, 0
2, 511680, Note_on_c, 0, 69, 96
2, 511800, Note_on_c, 0, 69, 0
2, 511800, Note_on_c, 0, 67, 0
2, 511800, Note_on_c, 0, 81, 96
2, 511800, Note_on_c, 0, 65, 96
2, 511860, Note_on_c, 0, 65, 0
2, 511860, Note_on_c, 0, 81, 0
2, 511860, Note_on_c, 0, 82, 96
2, 511860, Note_on_c, 0, 64, 96
2, 511920, Note_on_c, 0, 64, 0
2, 511920, Note_on_c, 0, 82, 0
2, 511920, Note_on_c, 0, 81, 96
2, 511920, Note_on_c, 0, 65, 96
2, 512040, Note_on_c, 0, 65, 0
2, 512040, Note_on_c, 0, 81, 0
2, 512040, Note_on_c, 0, 79, 96
2, 512040, Note_on_c, 0, 70, 96
2, 512160, Note_on_c, 0, 70, 0
2, 512160, Note_on_c, 0, 79, 0
2, 512160, Note_on_c, 0, 77, 96
2, 512160, Note_on_c, 0, 69, 96
2, 512280, Note_on_c, 0, 69, 0
2, 512280, Note_on_c, 0, 77, 0
2, 512280, Note_on_c, 0, 73, 96
2, 512280, Note_on_c, 0, 67, 96
2, 512400, Note_on_c, 0, 67, 0
2, 512400, Note_on_c, 0, 73, 0
2, 512400, Note_on_c, 0, 74, 96
2, 512400, Note_on_c, 0, 69, 96
2, 512520, Note_on_c, 0, 69, 0
2, 512520, Note_on_c, 0, 74, 0
2, 512520, Note_on_c, 0, 75, 96
2, 512760, Note_on_c, 0, 75, 0
2, 512760, Note_on_c, 0, 74, 96
2, 512820, Note_on_c, 0, 74, 0
2, 512820, Note_on_c, 0, 75, 96
2, 512880, Note_on_c, 0, 75, 0
2, 512880, Note_on_c, 0, 74, 96
2, 513000, Note_on_c, 0, 74, 0
2, 513000, Note_on_c, 0, 72, 96
2, 513240, Note_on_c, 0, 72, 0
2, 513240, Note_on_c, 0, 76, 96
2, 513240, Note_on_c, 0, 70, 96
2, 513300, Note_on_c, 0, 70, 0
2, 513300, Note_on_c, 0, 76, 0
2, 513300, Note_on_c, 0, 77, 96
2, 513300, Note_on_c, 0, 72, 96
2, 513360, Note_on_c, 0, 72, 0
2, 513360, Note_on_c, 0, 77, 0
2, 513360, Note_on_c, 0, 76, 96
2, 513360, Note_on_c, 0, 70, 96
2, 513480, Note_on_c, 0, 70, 0
2, 513480, Note_on_c, 0, 76, 0
2, 513480, Note_on_c, 0, 74, 96
2, 513480, Note_on_c, 0, 69, 96
2, 513600, Note_on_c, 0, 69, 0
2, 513600, Note_on_c, 0, 74, 0
2, 513600, Note_on_c, 0, 73, 96
2, 513600, Note_on_c, 0, 67, 96
2, 513720, Note_on_c, 0, 67, 0
2, 513720, Note_on_c, 0, 73, 0
2, 513720, Note_on_c, 0, 76, 96
2, 513720, Note_on_c, 0, 61, 96
2, 513840, Note_on_c, 0, 61, 0
2, 513840, Note_on_c, 0, 76, 0
2, 513840, Note_on_c, 0, 81, 96
2, 513960, Note_on_c, 0, 81, 0
2, 513960, Note_on_c, 0, 79, 96
2, 513960, Note_on_c, 0, 69, 96
2, 514080, Note_on_c, 0, 79, 0
2, 514140, Note_on_c, 0, 69, 0
2, 514140, Note_on_c, 0, 74, 96
2, 514200, Note_on_c, 0, 77, 96
2, 514260, Note_on_c, 0, 74, 0
2, 514260, Note_on_c, 0, 72, 96
2, 514320, Note_on_c, 0, 72, 0
2, 514320, Note_on_c, 0, 77, 0
2, 514320, Note_on_c, 0, 76, 96
2, 514320, Note_on_c, 0, 70, 96
2, 514380, Note_on_c, 0, 70, 0
2, 514380, Note_on_c, 0, 69, 96
2, 514440, Note_on_c, 0, 76, 0
2, 514440, Note_on_c, 0, 74, 96
2, 514500, Note_on_c, 0, 69, 0
2, 514500, Note_on_c, 0, 70, 96
2, 514560, Note_on_c, 0, 70, 0
2, 514560, Note_on_c, 0, 74, 0
2, 514560, Note_on_c, 0, 61, 96
2, 514680, Note_on_c, 0, 61, 0
2, 514680, Note_on_c, 0, 73, 96
2, 514680, Note_on_c, 0, 70, 96
2, 514800, Note_on_c, 0, 70, 0
2, 514800, Note_on_c, 0, 73, 0
2, 514800, Note_on_c, 0, 74, 96
2, 514800, Note_on_c, 0, 69, 96
2, 514920, Note_on_c, 0, 69, 0
2, 514920, Note_on_c, 0, 74, 0
2, 514920, Note_on_c, 0, 76, 96
2, 514920, Note_on_c, 0, 67, 96
2, 515040, Note_on_c, 0, 67, 0
2, 515040, Note_on_c, 0, 76, 0
2, 515040, Note_on_c, 0, 65, 96
2, 515160, Note_on_c, 0, 65, 0
2, 515160, Note_on_c, 0, 77, 96
2, 515160, Note_on_c, 0, 74, 96
2, 515220, Note_on_c, 0, 77, 0
2, 515220, Note_on_c, 0, 79, 96
2, 515280, Note_on_c, 0, 79, 0
2, 515280, Note_on_c, 0, 77, 96
2, 515400, Note_on_c, 0, 77, 0
2, 515400, Note_on_c, 0, 74, 0
2, 515400, Note_on_c, 0, 76, 96
2, 515400, Note_on_c, 0, 73, 96
2, 515460, Note_on_c, 0, 73, 0
2, 515460, Note_on_c, 0, 72, 96
2, 515520, Note_on_c, 0, 72, 0
2, 515520, Note_on_c, 0, 76, 0
2, 515520, Note_on_c, 0, 74, 96
2, 515520, Note_on_c, 0, 71, 96
2, 515640, Note_on_c, 0, 71, 0
2, 515640, Note_on_c, 0, 70, 96
2, 515760, Note_on_c, 0, 70, 0
2, 515760, Note_on_c, 0, 69, 96
2, 515880, Note_on_c, 0, 74, 0
2, 515880, Note_on_c, 0, 73, 96
2, 516000, Note_on_c, 0, 73, 0
2, 516000, Note_on_c, 0, 69, 0
2, 516000, Note_on_c, 0, 74, 96
2, 516000, Note_on_c, 0, 69, 96
2, 516240, Note_on_c, 0, 69, 0
2, 516240, Note_on_c, 0, 74, 0
2, 516240, Note_on_c, 0, 57, 96
2, 516480, Note_on_c, 0, 57, 0
2, 516480, Note_on_c, 0, 58, 96
2, 516600, Note_on_c, 0, 58, 0
2, 516600, Note_on_c, 0, 62, 96
2, 516600, Note_on_c, 0, 53, 96
2, 516720, Note_on_c, 0, 53, 0
2, 516720, Note_on_c, 0, 62, 0
2, 516720, Note_on_c, 0, 63, 96
2, 516720, Note_on_c, 0, 60, 96
2, 516840, Note_on_c, 0, 60, 0
2, 516840, Note_on_c, 0, 63, 0
2, 516840, Note_on_c, 0, 64, 96
2, 516840, Note_on_c, 0, 61, 96
2, 516960, Note_on_c, 0, 61, 0
2, 516960, Note_on_c, 0, 64, 0
2, 516960, Note_on_c, 0, 65, 96
2, 516960, Note_on_c, 0, 62, 96
2, 517080, Note_on_c, 0, 62, 0
2, 517080, Note_on_c, 0, 65, 0
2, 517080, Note_on_c, 0, 66, 96
2, 517080, Note_on_c, 0, 57, 96
2, 517200, Note_on_c, 0, 57, 0
2, 517200, Note_on_c, 0, 66, 0
2, 517200, Note_on_c, 0, 67, 96
2, 517200, Note_on_c, 0, 64, 96
2, 517320, Note_on_c, 0, 67, 0
2, 517320, Note_on_c, 0, 68, 96
2, 517440, Note_on_c, 0, 68, 0
2, 517440, Note_on_c, 0, 64, 0
2, 517440, Note_on_c, 0, 69, 96
2, 517440, Note_on_c, 0, 65, 96
2, 517500, Note_on_c, 0, 69, 0
2, 517500, Note_on_c, 0, 71, 96
2, 517560, Note_on_c, 0, 71, 0
2, 517560, Note_on_c, 0, 65, 0
2, 517560, Note_on_c, 0, 72, 96
2, 517560, Note_on_c, 0, 64, 96
2, 517620, Note_on_c, 0, 72, 0
2, 517620, Note_on_c, 0, 69, 96
2, 517680, Note_on_c, 0, 69, 0
2, 517680, Note_on_c, 0, 64, 0
2, 517680, Note_on_c, 0, 77, 96
2, 517680, Note_on_c, 0, 62, 96
2, 517740, Note_on_c, 0, 62, 0
2, 517740, Note_on_c, 0, 64, 96
2, 517800, Note_on_c, 0, 64, 0
2, 517800, Note_on_c, 0, 62, 96
2, 517860, Note_on_c, 0, 77, 0
2, 517860, Note_on_c, 0, 76, 96
2, 517890, Note_on_c, 0, 76, 0
2, 517890, Note_on_c, 0, 74, 96
2, 517920, Note_on_c, 0, 74, 0
2, 517920, Note_on_c, 0, 62, 0
2, 517920, Note_on_c, 0, 73, 96
2, 517920, Note_on_c, 0, 69, 96
2, 518040, Note_on_c, 0, 73, 0
2, 518040, Note_on_c, 0, 74, 96
2, 518100, Note_on_c, 0, 69, 0
2, 518100, Note_on_c, 0, 69, 96
2, 518160, Note_on_c, 0, 69, 0
2, 518160, Note_on_c, 0, 74, 0
2, 518160, Note_on_c, 0, 79, 96
2, 518160, Note_on_c, 0, 71, 96
2, 518220, Note_on_c, 0, 71, 0
2, 518220, Note_on_c, 0, 69, 96
2, 518280, Note_on_c, 0, 69, 0
2, 518280, Note_on_c, 0, 71, 96
2, 518340, Note_on_c, 0, 71, 0
2, 518340, Note_on_c, 0, 73, 96
2, 518400, Note_on_c, 0, 73, 0
2, 518400, Note_on_c, 0, 74, 96
2, 518520, Note_on_c, 0, 74, 0
2, 518520, Note_on_c, 0, 79, 0
2, 518520, Note_on_c, 0, 77, 96
2, 518520, Note_on_c, 0, 69, 96
2, 518580, Note_on_c, 0, 77, 0
2, 518580, Note_on_c, 0, 76, 96
2, 518640, Note_on_c, 0, 76, 0
2, 518640, Note_on_c, 0, 69, 0
2, 518640, Note_on_c, 0, 77, 96
2, 518640, Note_on_c, 0, 74, 96
2, 518700, Note_on_c, 0, 77, 0
2, 518700, Note_on_c, 0, 79, 96
2, 518760, Note_on_c, 0, 79, 0
2, 518760, Note_on_c, 0, 74, 0
2, 518760, Note_on_c, 0, 77, 96
2, 518760, Note_on_c, 0, 73, 96
2, 518820, Note_on_c, 0, 77, 0
2, 518820, Note_on_c, 0, 76, 96
2, 518880, Note_on_c, 0, 76, 0
2, 518880, Note_on_c, 0, 73, 0
2, 518880, Note_on_c, 0, 74, 96
2, 518880, Note_on_c, 0, 72, 96
2, 519000, Note_on_c, 0, 72, 0
2, 519000, Note_on_c, 0, 74, 0
2, 519000, Note_on_c, 0, 79, 96
2, 519000, Note_on_c, 0, 71, 96
2, 519060, Note_on_c, 0, 79, 0
2, 519060, Note_on_c, 0, 78, 96
2, 519120, Note_on_c, 0, 78, 0
2, 519120, Note_on_c, 0, 71, 0
2, 519120, Note_on_c, 0, 79, 96
2, 519120, Note_on_c, 0, 70, 96
2, 519180, Note_on_c, 0, 79, 0
2, 519180, Note_on_c, 0, 81, 96
2, 519240, Note_on_c, 0, 81, 0
2, 519240, Note_on_c, 0, 70, 0
2, 519240, Note_on_c, 0, 79, 96
2, 519240, Note_on_c, 0, 69, 96
2, 519300, Note_on_c, 0, 79, 0
2, 519300, Note_on_c, 0, 77, 96
2, 519360, Note_on_c, 0, 77, 0
2, 519360, Note_on_c, 0, 69, 0
2, 519360, Note_on_c, 0, 76, 96
2, 519360, Note_on_c, 0, 68, 96
2, 519420, Note_on_c, 0, 68, 0
2, 519420, Note_on_c, 0, 72, 96
2, 519480, Note_on_c, 0, 72, 0
2, 519480, Note_on_c, 0, 76, 0
2, 519480, Note_on_c, 0, 78, 96
2, 519480, Note_on_c, 0, 71, 96
2, 519540, Note_on_c, 0, 71, 0
2, 519540, Note_on_c, 0, 69, 96
2, 519600, Note_on_c, 0, 69, 0
2, 519600, Note_on_c, 0, 78, 0
2, 519600, Note_on_c, 0, 79, 96
2, 519600, Note_on_c, 0, 71, 96
2, 519660, Note_on_c, 0, 71, 0
2, 519660, Note_on_c, 0, 74, 96
2, 519720, Note_on_c, 0, 74, 0
2, 519720, Note_on_c, 0, 79, 0
2, 519720, Note_on_c, 0, 80, 96
2, 519720, Note_on_c, 0, 72, 96
2, 519780, Note_on_c, 0, 72, 0
2, 519780, Note_on_c, 0, 71, 96
2, 519840, Note_on_c, 0, 71, 0
2, 519840, Note_on_c, 0, 80, 0
2, 519840, Note_on_c, 0, 81, 96
2, 519840, Note_on_c, 0, 69, 96
2, 519900, Note_on_c, 0, 81, 0
2, 519900, Note_on_c, 0, 79, 96
2, 519960, Note_on_c, 0, 79, 0
2, 519960, Note_on_c, 0, 77, 96
2, 520020, Note_on_c, 0, 77, 0
2, 520020, Note_on_c, 0, 76, 96
2, 520080, Note_on_c, 0, 76, 0
2, 520080, Note_on_c, 0, 69, 0
2, 520080, Note_on_c, 0, 74, 96
2, 520140, Note_on_c, 0, 74, 0
2, 520140, Note_on_c, 0, 73, 96
2, 520200, Note_on_c, 0, 73, 0
2, 520200, Note_on_c, 0, 74, 96
2, 520260, Note_on_c, 0, 65, 96
2, 520320, Note_on_c, 0, 65, 0
2, 520320, Note_on_c, 0, 64, 96
2, 520380, Note_on_c, 0, 74, 0
2, 520380, Note_on_c, 0, 72, 96
2, 520440, Note_on_c, 0, 72, 0
2, 520440, Note_on_c, 0, 64, 0
2, 520440, Note_on_c, 0, 70, 96
2, 520440, Note_on_c, 0, 67, 96
2, 520500, Note_on_c, 0, 70, 0
2, 520500, Note_on_c, 0, 69, 96
2, 520560, Note_on_c, 0, 69, 0
2, 520560, Note_on_c, 0, 67, 0
2, 520560, Note_on_c, 0, 68, 96
2, 520560, Note_on_c, 0, 65, 96
2, 520620, Note_on_c, 0, 68, 0
2, 520620, Note_on_c, 0, 69, 96
2, 520680, Note_on_c, 0, 69, 0
2, 520680, Note_on_c, 0, 65, 0
2, 520680, Note_on_c, 0, 68, 96
2, 520680, Note_on_c, 0, 66, 96
2, 520740, Note_on_c, 0, 68, 0
2, 520740, Note_on_c, 0, 69, 96
2, 520800, Note_on_c, 0, 69, 0
2, 520800, Note_on_c, 0, 66, 0
2, 520800, Note_on_c, 0, 68, 96
2, 520800, Note_on_c, 0, 64, 96
2, 520860, Note_on_c, 0, 64, 0
2, 520860, Note_on_c, 0, 66, 96
2, 520920, Note_on_c, 0, 66, 0
2, 520920, Note_on_c, 0, 68, 0
2, 520920, Note_on_c, 0, 76, 96
2, 520920, Note_on_c, 0, 68, 96
2, 520980, Note_on_c, 0, 68, 0
2, 520980, Note_on_c, 0, 64, 96
2, 521040, Note_on_c, 0, 64, 0
2, 521040, Note_on_c, 0, 69, 96
2, 521160, Note_on_c, 0, 76, 0
2, 521160, Note_on_c, 0, 75, 96
2, 521280, Note_on_c, 0, 75, 0
2, 521280, Note_on_c, 0, 69, 0
2, 521280, Note_on_c, 0, 74, 96
2, 521280, Note_on_c, 0, 68, 96
2, 521400, Note_on_c, 0, 68, 0
2, 521400, Note_on_c, 0, 74, 0
2, 521400, Note_on_c, 0, 73, 96
2, 521400, Note_on_c, 0, 67, 96
2, 521520, Note_on_c, 0, 67, 0
2, 521520, Note_on_c, 0, 73, 0
2, 521520, Note_on_c, 0, 72, 96
2, 521520, Note_on_c, 0, 69, 96
2, 521640, Note_on_c, 0, 69, 0
2, 521640, Note_on_c, 0, 72, 0
2, 521640, Note_on_c, 0, 71, 96
2, 521640, Note_on_c, 0, 64, 96
2, 521820, Note_on_c, 0, 71, 0
2, 521820, Note_on_c, 0, 69, 96
2, 521880, Note_on_c, 0, 69, 0
2, 521880, Note_on_c, 0, 64, 0
2, 521880, Note_on_c, 0, 69, 96
2, 521940, Note_on_c, 0, 81, 96
2, 522000, Note_on_c, 0, 81, 0
2, 522000, Note_on_c, 0, 69, 0
2, 522000, Note_on_c, 0, 71, 96
2, 522000, Note_on_c, 0, 68, 96
2, 522060, Note_on_c, 0, 71, 0
2, 522060, Note_on_c, 0, 69, 96
2, 522120, Note_on_c, 0, 69, 0
2, 522120, Note_on_c, 0, 68, 0
2, 522120, Note_on_c, 0, 71, 96
2, 522120, Note_on_c, 0, 67, 96
2, 522180, Note_on_c, 0, 71, 0
2, 522180, Note_on_c, 0, 73, 96
2, 522240, Note_on_c, 0, 73, 0
2, 522240, Note_on_c, 0, 74, 96
2, 522300, Note_on_c, 0, 67, 0
2, 522300, Note_on_c, 0, 65, 96
2, 522360, Note_on_c, 0, 65, 0
2, 522360, Note_on_c, 0, 74, 0
2, 522360, Note_on_c, 0, 70, 96
2, 522420, Note_on_c, 0, 74, 96
2, 522480, Note_on_c, 0, 74, 0
2, 522480, Note_on_c, 0, 76, 96
2, 522540, Note_on_c, 0, 76, 0
2, 522540, Note_on_c, 0, 74, 96
2, 522600, Note_on_c, 0, 74, 0
2, 522600, Note_on_c, 0, 70, 0
2, 522600, Note_on_c, 0, 76, 96
2, 522600, Note_on_c, 0, 69, 96
2, 522660, Note_on_c, 0, 76, 0
2, 522660, Note_on_c, 0, 78, 96
2, 522720, Note_on_c, 0, 78, 0
2, 522720, Note_on_c, 0, 69, 0
2, 522720, Note_on_c, 0, 79, 96
2, 522720, Note_on_c, 0, 74, 96
2, 522780, Note_on_c, 0, 79, 0
2, 522780, Note_on_c, 0, 67, 96
2, 522840, Note_on_c, 0, 67, 0
2, 522840, Note_on_c, 0, 74, 0
2, 522840, Note_on_c, 0, 79, 96
2, 522840, Note_on_c, 0, 72, 96
2, 522900, Note_on_c, 0, 72, 0
2, 522900, Note_on_c, 0, 71, 96
2, 522960, Note_on_c, 0, 71, 0
2, 522960, Note_on_c, 0, 79, 0
2, 522960, Note_on_c, 0, 78, 96
2, 522960, Note_on_c, 0, 72, 96
2, 523080, Note_on_c, 0, 72, 0
2, 523080, Note_on_c, 0, 78, 0
2, 523080, Note_on_c, 0, 77, 96
2, 523080, Note_on_c, 0, 74, 96
2, 523200, Note_on_c, 0, 74, 0
2, 523200, Note_on_c, 0, 67, 96
2, 523260, Note_on_c, 0, 77, 0
2, 523260, Note_on_c, 0, 74, 96
2, 523320, Note_on_c, 0, 74, 0
2, 523320, Note_on_c, 0, 67, 0
2, 523320, Note_on_c, 0, 76, 96
2, 523320, Note_on_c, 0, 72, 96
2, 523440, Note_on_c, 0, 72, 0
2, 523440, Note_on_c, 0, 76, 0
2, 523440, Note_on_c, 0, 77, 96
2, 523440, Note_on_c, 0, 71, 96
2, 523560, Note_on_c, 0, 71, 0
2, 523560, Note_on_c, 0, 77, 0
2, 523560, Note_on_c, 0, 79, 96
2, 523560, Note_on_c, 0, 70, 96
2, 523680, Note_on_c, 0, 79, 0
2, 523680, Note_on_c, 0, 72, 96
2, 523740, Note_on_c, 0, 70, 0
2, 523740, Note_on_c, 0, 69, 96
2, 523800, Note_on_c, 0, 69, 0
2, 523800, Note_on_c, 0, 72, 0
2, 523800, Note_on_c, 0, 77, 96
2, 523800, Note_on_c, 0, 74, 96
2, 523920, Note_on_c, 0, 77, 0
2, 523920, Note_on_c, 0, 76, 96
2, 523950, Note_on_c, 0, 74, 0
2, 523950, Note_on_c, 0, 72, 96
2, 523980, Note_on_c, 0, 72, 0
2, 523980, Note_on_c, 0, 70, 96
2, 524010, Note_on_c, 0, 70, 0
2, 524010, Note_on_c, 0, 69, 96
2, 524040, Note_on_c, 0, 69, 0
2, 524040, Note_on_c, 0, 76, 0
2, 524040, Note_on_c, 0, 75, 96
2, 524040, Note_on_c, 0, 67, 96
2, 524100, Note_on_c, 0, 67, 0
2, 524100, Note_on_c, 0, 66, 96
2, 524160, Note_on_c, 0, 66, 0
2, 524160, Note_on_c, 0, 67, 96
2, 524220, Note_on_c, 0, 75, 0
2, 524220, Note_on_c, 0, 74, 96
2, 524280, Note_on_c, 0, 74, 0
2, 524280, Note_on_c, 0, 67, 0
2, 524280, Note_on_c, 0, 72, 96
2, 524280, Note_on_c, 0, 68, 96
2, 524340, Note_on_c, 0, 72, 0
2, 524340, Note_on_c, 0, 71, 96
2, 524400, Note_on_c, 0, 71, 0
2, 524400, Note_on_c, 0, 68, 0
2, 524400, Note_on_c, 0, 72, 96
2, 524400, Note_on_c, 0, 67, 96
2, 524460, Note_on_c, 0, 72, 0
2, 524460, Note_on_c, 0, 70, 96
2, 524520, Note_on_c, 0, 70, 0
2, 524520, Note_on_c, 0, 69, 96
2, 524580, Note_on_c, 0, 67, 0
2, 524580, Note_on_c, 0, 67, 96
2, 524640, Note_on_c, 0, 67, 0
2, 524640, Note_on_c, 0, 65, 96
2, 524700, Note_on_c, 0, 69, 0
2, 524700, Note_on_c, 0, 71, 96
2, 524760, Note_on_c, 0, 71, 0
2, 524760, Note_on_c, 0, 65, 0
2, 524760, Note_on_c, 0, 72, 96
2, 524760, Note_on_c, 0, 64, 96
2, 524820, Note_on_c, 0, 64, 0
2, 524820, Note_on_c, 0, 63, 96
2, 524880, Note_on_c, 0, 63, 0
2, 524880, Note_on_c, 0, 64, 96
2, 524940, Note_on_c, 0, 72, 0
2, 524940, Note_on_c, 0, 71, 96
2, 525000, Note_on_c, 0, 71, 0
2, 525000, Note_on_c, 0, 64, 0
2, 525000, Note_on_c, 0, 73, 96
2, 525060, Note_on_c, 0, 73, 0
2, 525060, Note_on_c, 0, 76, 96
2, 525180, Note_on_c, 0, 76, 0
2, 525180, Note_on_c, 0, 74, 96
2, 525240, Note_on_c, 0, 67, 96
2, 525300, Note_on_c, 0, 74, 0
2, 525300, Note_on_c, 0, 73, 96
2, 525360, Note_on_c, 0, 73, 0
2, 525360, Note_on_c, 0, 67, 0
2, 525360, Note_on_c, 0, 74, 96
2, 525360, Note_on_c, 0, 66, 96
2, 525420, Note_on_c, 0, 74, 0
2, 525420, Note_on_c, 0, 69, 96
2, 525480, Note_on_c, 0, 66, 0
2, 525480, Note_on_c, 0, 65, 96
2, 525540, Note_on_c, 0, 69, 0
2, 525540, Note_on_c, 0, 68, 96
2, 525600, Note_on_c, 0, 68, 0
2, 525600, Note_on_c, 0, 65, 0
2, 525600, Note_on_c, 0, 69, 96
2, 525600, Note_on_c, 0, 64, 96
2, 525720, Note_on_c, 0, 64, 0
2, 525780, Note_on_c, 0, 64, 96
2, 525840, Note_on_c, 0, 64, 0
2, 525840, Note_on_c, 0, 69, 0
2, 525840, Note_on_c, 0, 65, 96
2, 525960, Note_on_c, 0, 65, 0
2, 525960, Note_on_c, 0, 66, 96
2, 526020, Note_on_c, 0, 69, 96
2, 526080, Note_on_c, 0, 69, 0
2, 526080, Note_on_c, 0, 66, 0
2, 526080, Note_on_c, 0, 70, 96
2, 526080, Note_on_c, 0, 67, 96
2, 526200, Note_on_c, 0, 70, 0
2, 526200, Note_on_c, 0, 71, 96
2, 526320, Note_on_c, 0, 71, 0
2, 526320, Note_on_c, 0, 72, 96
2, 526380, Note_on_c, 0, 67, 0
2, 526380, Note_on_c, 0, 65, 96
2, 526440, Note_on_c, 0, 65, 0
2, 526440, Note_on_c, 0, 64, 96
2, 526560, Note_on_c, 0, 64, 0
2, 526560, Note_on_c, 0, 65, 96
2, 526620, Note_on_c, 0, 72, 0
2, 526620, Note_on_c, 0, 74, 96
2, 526680, Note_on_c, 0, 74, 0
2, 526680, Note_on_c, 0, 65, 0
2, 526680, Note_on_c, 0, 72, 96
2, 526680, Note_on_c, 0, 67, 96
2, 526740, Note_on_c, 0, 72, 0
2, 526740, Note_on_c, 0, 70, 96
2, 526800, Note_on_c, 0, 70, 0
2, 526800, Note_on_c, 0, 69, 96
2, 526920, Note_on_c, 0, 69, 0
2, 526920, Note_on_c, 0, 67, 0
2, 526920, Note_on_c, 0, 74, 96
2, 526920, Note_on_c, 0, 66, 96
2, 527040, Note_on_c, 0, 66, 0
2, 527040, Note_on_c, 0, 67, 96
2, 527100, Note_on_c, 0, 74, 0
2, 527100, Note_on_c, 0, 76, 96
2, 527160, Note_on_c, 0, 76, 0
2, 527160, Note_on_c, 0, 67, 0
2, 527160, Note_on_c, 0, 74, 96
2, 527160, Note_on_c, 0, 69, 96
2, 527220, Note_on_c, 0, 74, 0
2, 527220, Note_on_c, 0, 72, 96
2, 527280, Note_on_c, 0, 72, 0
2, 527280, Note_on_c, 0, 71, 96
2, 527400, Note_on_c, 0, 71, 0
2, 527400, Note_on_c, 0, 69, 0
2, 527400, Note_on_c, 0, 76, 96
2, 527400, Note_on_c, 0, 68, 96
2, 527520, Note_on_c, 0, 68, 0
2, 527520, Note_on_c, 0, 69, 96
2, 527580, Note_on_c, 0, 76, 0
2, 527580, Note_on_c, 0, 81, 96
2, 527640, Note_on_c, 0, 81, 0
2, 527640, Note_on_c, 0, 69, 0
2, 527640, Note_on_c, 0, 76, 96
2, 527640, Note_on_c, 0, 71, 96
2, 527700, Note_on_c, 0, 76, 0
2, 527700, Note_on_c, 0, 74, 96
2, 527760, Note_on_c, 0, 74, 0
2, 527760, Note_on_c, 0, 72, 96
2, 527820, Note_on_c, 0, 71, 0
2, 527820, Note_on_c, 0, 64, 96
2, 527850, Note_on_c, 0, 64, 0
2, 527850, Note_on_c, 0, 65, 96
2, 527880, Note_on_c, 0, 65, 0
2, 527880, Note_on_c, 0, 72, 0
2, 527880, Note_on_c, 0, 73, 96
2, 527880, Note_on_c, 0, 67, 96
2, 527910, Note_on_c, 0, 67, 0
2, 527910, Note_on_c, 0, 69, 96
2, 527940, Note_on_c, 0, 69, 0
2, 527940, Note_on_c, 0, 70, 96
2, 528000, Note_on_c, 0, 70, 0
2, 528000, Note_on_c, 0, 73, 0
2, 528000, Note_on_c, 0, 74, 96
2, 528000, Note_on_c, 0, 69, 96
2, 528120, Note_on_c, 0, 69, 0
2, 528120, Note_on_c, 0, 74, 0
2, 528120, Note_on_c, 0, 76, 96
2, 528120, Note_on_c, 0, 67, 96
2, 528240, Note_on_c, 0, 67, 0
2, 528240, Note_on_c, 0, 76, 0
2, 528240, Note_on_c, 0, 77, 96
2, 528240, Note_on_c, 0, 65, 96
2, 528360, Note_on_c, 0, 65, 0
2, 528360, Note_on_c, 0, 77, 0
2, 528360, Note_on_c, 0, 78, 96
2, 528420, Note_on_c, 0, 74, 96
2, 528480, Note_on_c, 0, 74, 0
2, 528480, Note_on_c, 0, 78, 0
2, 528480, Note_on_c, 0, 79, 96
2, 528480, Note_on_c, 0, 76, 96
2, 528540, Note_on_c, 0, 76, 0
2, 528540, Note_on_c, 0, 74, 96
2, 528600, Note_on_c, 0, 74, 0
2, 528600, Note_on_c, 0, 79, 0
2, 528600, Note_on_c, 0, 81, 96
2, 528600, Note_on_c, 0, 76, 96
2, 528660, Note_on_c, 0, 76, 0
2, 528660, Note_on_c, 0, 78, 96
2, 528720, Note_on_c, 0, 78, 0
2, 528720, Note_on_c, 0, 81, 0
2, 528720, Note_on_c, 0, 82, 96
2, 528720, Note_on_c, 0, 79, 96
2, 528780, Note_on_c, 0, 79, 0
2, 528780, Note_on_c, 0, 77, 96
2, 528840, Note_on_c, 0, 77, 0
2, 528840, Note_on_c, 0, 75, 96
2, 528900, Note_on_c, 0, 75, 0
2, 528900, Note_on_c, 0, 74, 96
2, 528960, Note_on_c, 0, 74, 0
2, 528960, Note_on_c, 0, 73, 96
2, 529020, Note_on_c, 0, 82, 0
2, 529020, Note_on_c, 0, 76, 96
2, 529080, Note_on_c, 0, 76, 0
2, 529080, Note_on_c, 0, 73, 0
2, 529080, Note_on_c, 0, 81, 96
2, 529080, Note_on_c, 0, 74, 96
2, 529200, Note_on_c, 0, 81, 0
2, 529200, Note_on_c, 0, 80, 96
2, 529320, Note_on_c, 0, 80, 0
2, 529320, Note_on_c, 0, 74, 0
2, 529320, Note_on_c, 0, 79, 96
2, 529320, Note_on_c, 0, 76, 96
2, 529440, Note_on_c, 0, 76, 0
2, 529440, Note_on_c, 0, 79, 0
2, 529440, Note_on_c, 0, 78, 96
2, 529440, Note_on_c, 0, 69, 96
2, 529560, Note_on_c, 0, 69, 0
2, 529560, Note_on_c, 0, 78, 0
2, 529560, Note_on_c, 0, 77, 96
2, 529620, Note_on_c, 0, 70, 96
2, 529680, Note_on_c, 0, 77, 0
2, 529680, Note_on_c, 0, 76, 96
2, 529740, Note_on_c, 0, 70, 0
2, 529740, Note_on_c, 0, 69, 96
2, 529800, Note_on_c, 0, 69, 0
2, 529800, Note_on_c, 0, 76, 0
2, 529800, Note_on_c, 0, 75, 96
2, 529800, Note_on_c, 0, 67, 96
2, 529860, Note_on_c, 0, 67, 0
2, 529860, Note_on_c, 0, 66, 96
2, 529920, Note_on_c, 0, 66, 0
2, 529920, Note_on_c, 0, 75, 0
2, 529920, Note_on_c, 0, 74, 96
2, 529920, Note_on_c, 0, 67, 96
2, 530040, Note_on_c, 0, 67, 0
2, 530040, Note_on_c, 0, 68, 96
2, 530100, Note_on_c, 0, 74, 0
2, 530100, Note_on_c, 0, 73, 96
2, 530160, Note_on_c, 0, 73, 0
2, 530160, Note_on_c, 0, 68, 0
2, 530160, Note_on_c, 0, 74, 96
2, 530160, Note_on_c, 0, 69, 96
2, 530280, Note_on_c, 0, 69, 0
2, 530280, Note_on_c, 0, 71, 96
2, 530340, Note_on_c, 0, 74, 0
2, 530340, Note_on_c, 0, 76, 96
2, 530400, Note_on_c, 0, 76, 0
2, 530400, Note_on_c, 0, 71, 0
2, 530400, Note_on_c, 0, 74, 96
2, 530400, Note_on_c, 0, 69, 96
2, 530460, Note_on_c, 0, 74, 0
2, 530460, Note_on_c, 0, 73, 96
2, 530520, Note_on_c, 0, 73, 0
2, 530520, Note_on_c, 0, 69, 0
2, 530520, Note_on_c, 0, 77, 96
2, 530580, Note_on_c, 0, 61, 96
2, 530640, Note_on_c, 0, 61, 0
2, 530640, Note_on_c, 0, 77, 0
2, 530640, Note_on_c, 0, 71, 96
2, 530640, Note_on_c, 0, 62, 96
2, 530700, Note_on_c, 0, 62, 0
2, 530700, Note_on_c, 0, 61, 96
2, 530760, Note_on_c, 0, 61, 0
2, 530760, Note_on_c, 0, 71, 0
2, 530760, Note_on_c, 0, 70, 96
2, 530760, Note_on_c, 0, 62, 96
2, 530820, Note_on_c, 0, 62, 0
2, 530820, Note_on_c, 0, 64, 96
2, 530880, Note_on_c, 0, 64, 0
2, 530880, Note_on_c, 0, 70, 0
2, 530880, Note_on_c, 0, 69, 96
2, 530880, Note_on_c, 0, 57, 96
2, 531000, Note_on_c, 0, 57, 0
2, 531000, Note_on_c, 0, 69, 0
2, 531000, Note_on_c, 0, 74, 96
2, 531060, Note_on_c, 0, 57, 96
2, 531120, Note_on_c, 0, 57, 0
2, 531120, Note_on_c, 0, 74, 0
2, 531120, Note_on_c, 0, 67, 96
2, 531120, Note_on_c, 0, 58, 96
2, 531180, Note_on_c, 0, 58, 0
2, 531180, Note_on_c, 0, 57, 96
2, 531240, Note_on_c, 0, 57, 0
2, 531240, Note_on_c, 0, 58, 96
2, 531300, Note_on_c, 0, 58, 0
2, 531300, Note_on_c, 0, 60, 96
2, 531360, Note_on_c, 0, 60, 0
2, 531360, Note_on_c, 0, 67, 0
2, 531360, Note_on_c, 0, 65, 96
2, 531360, Note_on_c, 0, 62, 96
2, 531420, Note_on_c, 0, 62, 0
2, 531420, Note_on_c, 0, 58, 96
2, 531480, Note_on_c, 0, 58, 0
2, 531480, Note_on_c, 0, 65, 0
2, 531480, Note_on_c, 0, 67, 96
2, 531480, Note_on_c, 0, 63, 96
2, 531540, Note_on_c, 0, 63, 0
2, 531540, Note_on_c, 0, 62, 96
2, 531600, Note_on_c, 0, 62, 0
2, 531600, Note_on_c, 0, 67, 0
2, 531600, Note_on_c, 0, 69, 96
2, 531600, Note_on_c, 0, 60, 96
2, 531660, Note_on_c, 0, 60, 0
2, 531660, Note_on_c, 0, 69, 0
2, 531660, Note_on_c, 0, 67, 96
2, 531660, Note_on_c, 0, 63, 96
2, 531720, Note_on_c, 0, 63, 0
2, 531720, Note_on_c, 0, 67, 0
2, 531720, Note_on_c, 0, 69, 96
2, 531720, Note_on_c, 0, 62, 96
2, 531780, Note_on_c, 0, 62, 0
2, 531780, Note_on_c, 0, 60, 96
2, 531840, Note_on_c, 0, 69, 0
2, 531840, Note_on_c, 0, 62, 96
2, 531900, Note_on_c, 0, 60, 0
2, 531900, Note_on_c, 0, 58, 96
2, 531960, Note_on_c, 0, 58, 0
2, 531960, Note_on_c, 0, 62, 0
2, 531960, Note_on_c, 0, 67, 96
2, 531960, Note_on_c, 0, 60, 96
2, 532080, Note_on_c, 0, 67, 0
2, 532080, Note_on_c, 0, 66, 96
2, 532200, Note_on_c, 0, 66, 0
2, 532200, Note_on_c, 0, 60, 0
2, 532200, Note_on_c, 0, 65, 96
2, 532200, Note_on_c, 0, 62, 96
2, 532320, Note_on_c, 0, 62, 0
2, 532320, Note_on_c, 0, 55, 96
2, 532440, Note_on_c, 0, 55, 0
2, 532440, Note_on_c, 0, 65, 0
2, 532440, Note_on_c, 0, 64, 96
2, 532560, Note_on_c, 0, 64, 0
2, 532560, Note_on_c, 0, 65, 96
2, 532680, Note_on_c, 0, 65, 0
2, 532680, Note_on_c, 0, 67, 96
2, 532800, Note_on_c, 0, 67, 0
2, 532800, Note_on_c, 0, 60, 96
2, 532920, Note_on_c, 0, 60, 0
2, 532920, Note_on_c, 0, 69, 96
2, 532980, Note_on_c, 0, 72, 96
2, 533040, Note_on_c, 0, 72, 0
2, 533040, Note_on_c, 0, 69, 0
2, 533040, Note_on_c, 0, 74, 96
2, 533040, Note_on_c, 0, 68, 96
2, 533100, Note_on_c, 0, 74, 0
2, 533100, Note_on_c, 0, 72, 96
2, 533160, Note_on_c, 0, 72, 0
2, 533160, Note_on_c, 0, 68, 0
2, 533160, Note_on_c, 0, 74, 96
2, 533160, Note_on_c, 0, 67, 96
2, 533220, Note_on_c, 0, 74, 0
2, 533220, Note_on_c, 0, 76, 96
2, 533280, Note_on_c, 0, 76, 0
2, 533280, Note_on_c, 0, 69, 96
2, 533340, Note_on_c, 0, 67, 0
2, 533340, Note_on_c, 0, 65, 96
2, 533400, Note_on_c, 0, 65, 0
2, 533400, Note_on_c, 0, 69, 0
2, 533400, Note_on_c, 0, 77, 96
2, 533460, Note_on_c, 0, 65, 96
2, 533520, Note_on_c, 0, 65, 0
2, 533520, Note_on_c, 0, 77, 0
2, 533520, Note_on_c, 0, 76, 96
2, 533520, Note_on_c, 0, 67, 96
2, 533580, Note_on_c, 0, 67, 0
2, 533580, Note_on_c, 0, 65, 96
2, 533640, Note_on_c, 0, 65, 0
2, 533640, Note_on_c, 0, 76, 0
2, 533640, Note_on_c, 0, 75, 96
2, 533640, Note_on_c, 0, 67, 96
2, 533700, Note_on_c, 0, 67, 0
2, 533700, Note_on_c, 0, 69, 96
2, 533760, Note_on_c, 0, 69, 0
2, 533760, Note_on_c, 0, 70, 96
2, 533820, Note_on_c, 0, 70, 0
2, 533820, Note_on_c, 0, 75, 0
2, 533820, Note_on_c, 0, 74, 96
2, 533820, Note_on_c, 0, 65, 96
2, 533880, Note_on_c, 0, 65, 0
2, 533880, Note_on_c, 0, 74, 0
2, 533880, Note_on_c, 0, 70, 96
2, 533940, Note_on_c, 0, 70, 0
2, 533940, Note_on_c, 0, 74, 96
2, 533940, Note_on_c, 0, 74, 96
2, 534000, Note_on_c, 0, 74, 0
2, 534000, Note_on_c, 0, 74, 0
2, 534000, Note_on_c, 0, 75, 96
2, 534000, Note_on_c, 0, 72, 96
2, 534060, Note_on_c, 0, 72, 0
2, 534060, Note_on_c, 0, 75, 0
2, 534060, Note_on_c, 0, 74, 96
2, 534060, Note_on_c, 0, 71, 96
2, 534120, Note_on_c, 0, 71, 0
2, 534120, Note_on_c, 0, 74, 0
2, 534120, Note_on_c, 0, 75, 96
2, 534120, Note_on_c, 0, 72, 96
2, 534180, Note_on_c, 0, 72, 0
2, 534180, Note_on_c, 0, 75, 0
2, 534180, Note_on_c, 0, 77, 96
2, 534180, Note_on_c, 0, 74, 96
2, 534240, Note_on_c, 0, 74, 0
2, 534240, Note_on_c, 0, 77, 0
2, 534240, Note_on_c, 0, 79, 96
2, 534240, Note_on_c, 0, 71, 96
2, 534300, Note_on_c, 0, 71, 0
2, 534300, Note_on_c, 0, 74, 96
2, 534360, Note_on_c, 0, 74, 0
2, 534360, Note_on_c, 0, 79, 0
2, 534360, Note_on_c, 0, 67, 96
2, 534420, Note_on_c, 0, 79, 96
2, 534480, Note_on_c, 0, 79, 0
2, 534480, Note_on_c, 0, 67, 0
2, 534480, Note_on_c, 0, 81, 96
2, 534480, Note_on_c, 0, 66, 96
2, 534540, Note_on_c, 0, 81, 0
2, 534540, Note_on_c, 0, 80, 96
2, 534600, Note_on_c, 0, 80, 0
2, 534600, Note_on_c, 0, 66, 0
2, 534600, Note_on_c, 0, 81, 96
2, 534600, Note_on_c, 0, 65, 96
2, 534660, Note_on_c, 0, 81, 0
2, 534660, Note_on_c, 0, 83, 96
2, 534720, Note_on_c, 0, 83, 0
2, 534720, Note_on_c, 0, 65, 0
2, 534720, Note_on_c, 0, 80, 96
2, 534720, Note_on_c, 0, 64, 96
2, 534780, Note_on_c, 0, 80, 0
2, 534780, Note_on_c, 0, 83, 96
2, 534840, Note_on_c, 0, 83, 0
2, 534840, Note_on_c, 0, 64, 0
2, 534840, Note_on_c, 0, 76, 96
2, 534900, Note_on_c, 0, 68, 96
2, 534960, Note_on_c, 0, 68, 0
2, 534960, Note_on_c, 0, 76, 0
2, 534960, Note_on_c, 0, 75, 96
2, 534960, Note_on_c, 0, 69, 96
2, 535020, Note_on_c, 0, 69, 0
2, 535020, Note_on_c, 0, 68, 96
2, 535080, Note_on_c, 0, 68, 0
2, 535080, Note_on_c, 0, 75, 0
2, 535080, Note_on_c, 0, 74, 96
2, 535080, Note_on_c, 0, 69, 96
2, 535140, Note_on_c, 0, 69, 0
2, 535140, Note_on_c, 0, 71, 96
2, 535200, Note_on_c, 0, 71, 0
2, 535200, Note_on_c, 0, 74, 0
2, 535200, Note_on_c, 0, 73, 96
2, 535200, Note_on_c, 0, 64, 96
2, 535320, Note_on_c, 0, 73, 0
2, 535320, Note_on_c, 0, 77, 96
2, 535380, Note_on_c, 0, 64, 0
2, 535380, Note_on_c, 0, 62, 96
2, 535440, Note_on_c, 0, 62, 0
2, 535440, Note_on_c, 0, 77, 0
2, 535440, Note_on_c, 0, 76, 96
2, 535440, Note_on_c, 0, 61, 96
2, 535560, Note_on_c, 0, 61, 0
2, 535560, Note_on_c, 0, 76, 0
2, 535560, Note_on_c, 0, 75, 96
2, 535560, Note_on_c, 0, 60, 96
2, 535680, Note_on_c, 0, 60, 0
2, 535680, Note_on_c, 0, 75, 0
2, 535680, Note_on_c, 0, 76, 96
2, 535680, Note_on_c, 0, 59, 96
2, 535740, Note_on_c, 0, 59, 0
2, 535740, Note_on_c, 0, 71, 96
2, 535800, Note_on_c, 0, 71, 0
2, 535800, Note_on_c, 0, 76, 0
2, 535800, Note_on_c, 0, 76, 96
2, 535800, Note_on_c, 0, 69, 96
2, 535860, Note_on_c, 0, 69, 0
2, 535860, Note_on_c, 0, 68, 96
2, 535920, Note_on_c, 0, 68, 0
2, 535920, Note_on_c, 0, 76, 0
2, 535920, Note_on_c, 0, 75, 96
2, 535920, Note_on_c, 0, 69, 96
2, 535980, Note_on_c, 0, 69, 0
2, 535980, Note_on_c, 0, 72, 96
2, 536040, Note_on_c, 0, 72, 0
2, 536040, Note_on_c, 0, 75, 0
2, 536040, Note_on_c, 0, 74, 96
2, 536040, Note_on_c, 0, 71, 96
2, 536100, Note_on_c, 0, 71, 0
2, 536100, Note_on_c, 0, 69, 96
2, 536160, Note_on_c, 0, 69, 0
2, 536160, Note_on_c, 0, 74, 0
2, 536160, Note_on_c, 0, 73, 96
2, 536160, Note_on_c, 0, 68, 96
2, 536280, Note_on_c, 0, 68, 0
2, 536280, Note_on_c, 0, 73, 0
2, 536280, Note_on_c, 0, 72, 96
2, 536280, Note_on_c, 0, 67, 96
2, 536400, Note_on_c, 0, 67, 0
2, 536400, Note_on_c, 0, 72, 0
2, 536400, Note_on_c, 0, 71, 96
2, 536400, Note_on_c, 0, 66, 96
2, 536520, Note_on_c, 0, 66, 0
2, 536520, Note_on_c, 0, 71, 0
2, 536520, Note_on_c, 0, 70, 96
2, 536520, Note_on_c, 0, 65, 96
2, 536640, Note_on_c, 0, 65, 0
2, 536640, Note_on_c, 0, 70, 0
2, 536640, Note_on_c, 0, 69, 96
2, 536640, Note_on_c, 0, 64, 96
2, 536760, Note_on_c, 0, 64, 0
2, 536760, Note_on_c, 0, 65, 96
2, 536880, Note_on_c, 0, 65, 0
2, 536880, Note_on_c, 0, 64, 96
2, 537000, Note_on_c, 0, 69, 0
2, 537000, Note_on_c, 0, 68, 96
2, 537120, Note_on_c, 0, 68, 0
2, 537120, Note_on_c, 0, 64, 0
2, 537120, Note_on_c, 0, 69, 96
2, 537120, Note_on_c, 0, 64, 96
2, 537240, Note_on_c, 0, 64, 0
2, 537240, Note_on_c, 0, 69, 0
2, 537480, Note_on_c, 0, 74, 96
2, 537480, Note_on_c, 0, 65, 96
2, 537600, Note_on_c, 0, 65, 0
2, 537600, Note_on_c, 0, 74, 0
2, 537600, Note_on_c, 0, 74, 96
2, 537600, Note_on_c, 0, 65, 96
2, 537720, Note_on_c, 0, 65, 0
2, 537720, Note_on_c, 0, 74, 0
2, 537720, Note_on_c, 0, 72, 96
2, 537720, Note_on_c, 0, 64, 96
2, 537840, Note_on_c, 0, 64, 0
2, 537840, Note_on_c, 0, 72, 0
2, 537960, Note_on_c, 0, 70, 96
2, 537960, Note_on_c, 0, 67, 96
2, 538080, Note_on_c, 0, 67, 0
2, 538080, Note_on_c, 0, 70, 0
2, 538080, Note_on_c, 0, 70, 96
2, 538080, Note_on_c, 0, 67, 96
2, 538200, Note_on_c, 0, 67, 0
2, 538200, Note_on_c, 0, 70, 0
2, 538200, Note_on_c, 0, 69, 96
2, 538200, Note_on_c, 0, 65, 96
2, 538260, Note_on_c, 0, 69, 0
2, 538260, Note_on_c, 0, 71, 96
2, 538320, Note_on_c, 0, 71, 0
2, 538320, Note_on_c, 0, 65, 0
2, 538320, Note_on_c, 0, 72, 96
2, 538440, Note_on_c, 0, 72, 0
2, 538440, Note_on_c, 0, 71, 96
2, 538440, Note_on_c, 0, 68, 96
2, 538500, Note_on_c, 0, 71, 0
2, 538500, Note_on_c, 0, 72, 96
2, 538560, Note_on_c, 0, 72, 0
2, 538560, Note_on_c, 0, 74, 96
2, 538680, Note_on_c, 0, 74, 0
2, 538680, Note_on_c, 0, 68, 0
2, 538680, Note_on_c, 0, 72, 96
2, 538680, Note_on_c, 0, 69, 96
2, 538740, Note_on_c, 0, 72, 0
2, 538740, Note_on_c, 0, 74, 96
2, 538800, Note_on_c, 0, 74, 0
2, 538800, Note_on_c, 0, 69, 0
2, 538800, Note_on_c, 0, 76, 96
2, 538920, Note_on_c, 0, 76, 0
2, 538920, Note_on_c, 0, 74, 96
2, 538920, Note_on_c, 0, 69, 96
2, 539040, Note_on_c, 0, 69, 0
2, 539040, Note_on_c, 0, 68, 96
2, 539160, Note_on_c, 0, 68, 0
2, 539160, Note_on_c, 0, 74, 0
2, 539160, Note_on_c, 0, 72, 96
2, 539160, Note_on_c, 0, 69, 96
2, 539280, Note_on_c, 0, 72, 0
2, 539280, Note_on_c, 0, 71, 96
2, 539400, Note_on_c, 0, 71, 0
2, 539400, Note_on_c, 0, 69, 0
2, 539400, Note_on_c, 0, 73, 96
2, 539400, Note_on_c, 0, 67, 96
2, 539520, Note_on_c, 0, 67, 0
2, 539520, Note_on_c, 0, 73, 0
2, 539520, Note_on_c, 0, 74, 96
2, 539520, Note_on_c, 0, 65, 96
2, 539580, Note_on_c, 0, 65, 0
2, 539580, Note_on_c, 0, 64, 96
2, 539640, Note_on_c, 0, 64, 0
2, 539640, Note_on_c, 0, 74, 0
2, 539640, Note_on_c, 0, 81, 96
2, 539640, Note_on_c, 0, 62, 96
2, 539760, Note_on_c, 0, 81, 0
2, 539760, Note_on_c, 0, 74, 96
2, 539880, Note_on_c, 0, 74, 0
2, 539880, Note_on_c, 0, 62, 0
2, 539880, Note_on_c, 0, 76, 96
2, 539880, Note_on_c, 0, 67, 96
2, 540000, Note_on_c, 0, 67, 0
2, 540000, Note_on_c, 0, 76, 0
2, 540000, Note_on_c, 0, 65, 96
2, 540060, Note_on_c, 0, 65, 0
2, 540060, Note_on_c, 0, 69, 96
2, 540120, Note_on_c, 0, 69, 0
2, 540120, Note_on_c, 0, 77, 96
2, 540120, Note_on_c, 0, 70, 96
2, 540180, Note_on_c, 0, 70, 0
2, 540180, Note_on_c, 0, 74, 96
2, 540240, Note_on_c, 0, 74, 0
2, 540240, Note_on_c, 0, 77, 0
2, 540240, Note_on_c, 0, 79, 96
2, 540240, Note_on_c, 0, 73, 96
2, 540360, Note_on_c, 0, 73, 0
2, 540360, Note_on_c, 0, 79, 0
2, 540360, Note_on_c, 0, 81, 96
2, 540360, Note_on_c, 0, 72, 96
2, 540480, Note_on_c, 0, 72, 0
2, 540480, Note_on_c, 0, 81, 0
2, 540480, Note_on_c, 0, 71, 96
2, 540540, Note_on_c, 0, 71, 0
2, 540540, Note_on_c, 0, 73, 96
2, 540600, Note_on_c, 0, 73, 0
2, 540600, Note_on_c, 0, 82, 96
2, 540600, Note_on_c, 0, 74, 96
2, 540720, Note_on_c, 0, 74, 0
2, 540720, Note_on_c, 0, 82, 0
2, 540720, Note_on_c, 0, 81, 96
2, 540720, Note_on_c, 0, 72, 96
2, 540840, Note_on_c, 0, 72, 0
2, 540840, Note_on_c, 0, 81, 0
2, 540840, Note_on_c, 0, 79, 96
2, 540840, Note_on_c, 0, 70, 96
2, 540960, Note_on_c, 0, 70, 0
2, 540960, Note_on_c, 0, 79, 0
2, 540960, Note_on_c, 0, 69, 96
2, 541080, Note_on_c, 0, 69, 0
2, 541080, Note_on_c, 0, 77, 96
2, 541140, Note_on_c, 0, 77, 0
2, 541140, Note_on_c, 0, 76, 96
2, 541200, Note_on_c, 0, 76, 0
2, 541200, Note_on_c, 0, 77, 96
2, 541320, Note_on_c, 0, 77, 0
2, 541320, Note_on_c, 0, 79, 96
2, 541440, Note_on_c, 0, 79, 0
2, 541440, Note_on_c, 0, 81, 96
2, 541560, Note_on_c, 0, 71, 96
2, 541620, Note_on_c, 0, 81, 0
2, 541620, Note_on_c, 0, 79, 96
2, 541680, Note_on_c, 0, 79, 0
2, 541680, Note_on_c, 0, 71, 0
2, 541680, Note_on_c, 0, 78, 96
2, 541680, Note_on_c, 0, 72, 96
2, 541740, Note_on_c, 0, 72, 0
2, 541740, Note_on_c, 0, 74, 96
2, 541770, Note_on_c, 0, 74, 0
2, 541770, Note_on_c, 0, 75, 96
2, 541800, Note_on_c, 0, 75, 0
2, 541800, Note_on_c, 0, 78, 0
2, 541800, Note_on_c, 0, 77, 96
2, 541800, Note_on_c, 0, 74, 96
2, 541920, Note_on_c, 0, 77, 0
2, 541920, Note_on_c, 0, 76, 96
2, 541980, Note_on_c, 0, 74, 0
2, 541980, Note_on_c, 0, 72, 96
2, 542010, Note_on_c, 0, 72, 0
2, 542010, Note_on_c, 0, 70, 96
2, 542040, Note_on_c, 0, 70, 0
2, 542040, Note_on_c, 0, 76, 0
2, 542040, Note_on_c, 0, 75, 96
2, 542040, Note_on_c, 0, 69, 96
2, 542100, Note_on_c, 0, 69, 0
2, 542100, Note_on_c, 0, 67, 96
2, 542160, Note_on_c, 0, 67, 0
2, 542160, Note_on_c, 0, 75, 0
2, 542160, Note_on_c, 0, 74, 96
2, 542160, Note_on_c, 0, 66, 96
2, 542280, Note_on_c, 0, 66, 0
2, 542280, Note_on_c, 0, 74, 0
2, 542280, Note_on_c, 0, 73, 96
2, 542280, Note_on_c, 0, 67, 96
2, 542400, Note_on_c, 0, 67, 0
2, 542400, Note_on_c, 0, 73, 0
2, 542400, Note_on_c, 0, 72, 96
2, 542400, Note_on_c, 0, 66, 96
2, 542460, Note_on_c, 0, 66, 0
2, 542460, Note_on_c, 0, 69, 96
2, 542520, Note_on_c, 0, 72, 0
2, 542520, Note_on_c, 0, 71, 96
2, 542580, Note_on_c, 0, 69, 0
2, 542580, Note_on_c, 0, 67, 96
2, 542640, Note_on_c, 0, 71, 0
2, 542640, Note_on_c, 0, 73, 96
2, 542700, Note_on_c, 0, 67, 0
2, 542700, Note_on_c, 0, 71, 96
2, 542760, Note_on_c, 0, 73, 0
2, 542760, Note_on_c, 0, 74, 96
2, 542820, Note_on_c, 0, 71, 0
2, 542820, Note_on_c, 0, 69, 96
2, 542880, Note_on_c, 0, 69, 0
2, 542880, Note_on_c, 0, 74, 0
2, 542880, Note_on_c, 0, 76, 96
2, 542880, Note_on_c, 0, 70, 96
2, 542940, Note_on_c, 0, 70, 0
2, 542940, Note_on_c, 0, 69, 96
2, 543060, Note_on_c, 0, 69, 0
2, 543060, Note_on_c, 0, 70, 96
2, 543120, Note_on_c, 0, 70, 0
2, 543120, Note_on_c, 0, 69, 96
2, 543180, Note_on_c, 0, 69, 0
2, 543180, Note_on_c, 0, 67, 96
2, 543240, Note_on_c, 0, 67, 0
2, 543240, Note_on_c, 0, 65, 96
2, 543300, Note_on_c, 0, 65, 0
2, 543300, Note_on_c, 0, 64, 96
2, 543360, Note_on_c, 0, 64, 0
2, 543360, Note_on_c, 0, 65, 96
2, 543420, Note_on_c, 0, 76, 0
2, 543420, Note_on_c, 0, 74, 96
2, 543480, Note_on_c, 0, 74, 0
2, 543480, Note_on_c, 0, 65, 0
2, 543480, Note_on_c, 0, 73, 96
2, 543480, Note_on_c, 0, 69, 96
2, 543540, Note_on_c, 0, 73, 0
2, 543540, Note_on_c, 0, 76, 96
2, 543600, Note_on_c, 0, 76, 0
2, 543600, Note_on_c, 0, 69, 0
2, 543600, Note_on_c, 0, 74, 96
2, 543600, Note_on_c, 0, 62, 96
2, 543660, Note_on_c, 0, 74, 0
2, 543660, Note_on_c, 0, 72, 96
2, 543720, Note_on_c, 0, 72, 0
2, 543720, Note_on_c, 0, 62, 0
2, 543720, Note_on_c, 0, 70, 96
2, 543720, Note_on_c, 0, 64, 96
2, 543780, Note_on_c, 0, 70, 0
2, 543780, Note_on_c, 0, 74, 96
2, 543840, Note_on_c, 0, 74, 0
2, 543840, Note_on_c, 0, 64, 0
2, 543840, Note_on_c, 0, 72, 96
2, 543900, Note_on_c, 0, 72, 0
2, 543900, Note_on_c, 0, 70, 96
2, 543960, Note_on_c, 0, 70, 0
2, 543960, Note_on_c, 0, 69, 96
2, 543960, Note_on_c, 0, 65, 96
2, 544020, Note_on_c, 0, 69, 0
2, 544020, Note_on_c, 0, 72, 96
2, 544080, Note_on_c, 0, 72, 0
2, 544080, Note_on_c, 0, 65, 0
2, 544080, Note_on_c, 0, 70, 96
2, 544080, Note_on_c, 0, 67, 96
2, 544140, Note_on_c, 0, 70, 0
2, 544140, Note_on_c, 0, 79, 96
2, 544200, Note_on_c, 0, 67, 0
2, 544200, Note_on_c, 0, 69, 96
2, 544260, Note_on_c, 0, 79, 0
2, 544260, Note_on_c, 0, 78, 96
2, 544320, Note_on_c, 0, 78, 0
2, 544320, Note_on_c, 0, 69, 0
2, 544320, Note_on_c, 0, 79, 96
2, 544380, Note_on_c, 0, 79, 0
2, 544380, Note_on_c, 0, 77, 96
2, 544440, Note_on_c, 0, 77, 0
2, 544440, Note_on_c, 0, 76, 96
2, 544440, Note_on_c, 0, 70, 96
2, 544500, Note_on_c, 0, 76, 0
2, 544500, Note_on_c, 0, 74, 96
2, 544560, Note_on_c, 0, 74, 0
2, 544560, Note_on_c, 0, 70, 0
2, 544560, Note_on_c, 0, 72, 96
2, 544560, Note_on_c, 0, 69, 96
2, 544620, Note_on_c, 0, 72, 0
2, 544620, Note_on_c, 0, 74, 96
2, 544680, Note_on_c, 0, 74, 0
2, 544680, Note_on_c, 0, 69, 0
2, 544680, Note_on_c, 0, 70, 96
2, 544680, Note_on_c, 0, 67, 96
2, 544740, Note_on_c, 0, 70, 0
2, 544740, Note_on_c, 0, 72, 96
2, 544800, Note_on_c, 0, 72, 0
2, 544800, Note_on_c, 0, 67, 0
2, 544800, Note_on_c, 0, 69, 96
2, 544920, Note_on_c, 0, 65, 96
2, 544980, Note_on_c, 0, 65, 0
2, 544980, Note_on_c, 0, 64, 96
2, 545040, Note_on_c, 0, 64, 0
2, 545040, Note_on_c, 0, 65, 96
2, 545100, Note_on_c, 0, 69, 0
2, 545100, Note_on_c, 0, 70, 96
2, 545160, Note_on_c, 0, 70, 0
2, 545160, Note_on_c, 0, 65, 0
2, 545160, Note_on_c, 0, 69, 96
2, 545160, Note_on_c, 0, 67, 96
2, 545220, Note_on_c, 0, 69, 0
2, 545220, Note_on_c, 0, 70, 96
2, 545280, Note_on_c, 0, 70, 0
2, 545280, Note_on_c, 0, 67, 0
2, 545280, Note_on_c, 0, 72, 96
2, 545280, Note_on_c, 0, 69, 96
2, 545340, Note_on_c, 0, 69, 0
2, 545340, Note_on_c, 0, 70, 96
2, 545400, Note_on_c, 0, 70, 0
2, 545400, Note_on_c, 0, 72, 0
2, 545400, Note_on_c, 0, 77, 96
2, 545400, Note_on_c, 0, 72, 96
2, 545640, Note_on_c, 0, 72, 0
2, 545640, Note_on_c, 0, 77, 0
2, 545640, Note_on_c, 0, 76, 96
2, 545640, Note_on_c, 0, 70, 96
2, 545760, Note_on_c, 0, 76, 0
2, 545760, Note_on_c, 0, 77, 96
2, 545880, Note_on_c, 0, 70, 0
2, 545880, Note_on_c, 0, 69, 96
2, 546000, Note_on_c, 0, 69, 0
2, 546000, Note_on_c, 0, 77, 0
2, 546600, Note_on_c, 0, 58, 96
2, 546780, Note_on_c, 0, 58, 0
2, 546780, Note_on_c, 0, 57, 96
2, 546840, Note_on_c, 0, 57, 0
2, 546840, Note_on_c, 0, 60, 96
2, 546900, Note_on_c, 0, 60, 0
2, 546900, Note_on_c, 0, 60, 96
2, 546960, Note_on_c, 0, 60, 0
2, 546960, Note_on_c, 0, 60, 96
2, 547020, Note_on_c, 0, 60, 0
2, 547020, Note_on_c, 0, 59, 96
2, 547080, Note_on_c, 0, 59, 0
2, 547080, Note_on_c, 0, 62, 96
2, 547140, Note_on_c, 0, 62, 0
2, 547140, Note_on_c, 0, 62, 96
2, 547200, Note_on_c, 0, 62, 0
2, 547200, Note_on_c, 0, 62, 96
2, 547260, Note_on_c, 0, 62, 0
2, 547260, Note_on_c, 0, 61, 96
2, 547320, Note_on_c, 0, 61, 0
2, 547320, Note_on_c, 0, 62, 96
2, 547380, Note_on_c, 0, 62, 0
2, 547380, Note_on_c, 0, 64, 96
2, 547440, Note_on_c, 0, 64, 0
2, 547440, Note_on_c, 0, 65, 96
2, 547500, Note_on_c, 0, 65, 0
2, 547500, Note_on_c, 0, 64, 96
2, 547560, Note_on_c, 0, 64, 0
2, 547560, Note_on_c, 0, 65, 96
2, 547620, Note_on_c, 0, 65, 0
2, 547620, Note_on_c, 0, 67, 96
2, 547680, Note_on_c, 0, 67, 0
2, 547680, Note_on_c, 0, 64, 96
2, 547740, Note_on_c, 0, 64, 0
2, 547740, Note_on_c, 0, 67, 96
2, 547800, Note_on_c, 0, 67, 0
2, 547800, Note_on_c, 0, 65, 96
2, 547860, Note_on_c, 0, 65, 0
2, 547860, Note_on_c, 0, 64, 96
2, 547920, Note_on_c, 0, 64, 0
2, 547920, Note_on_c, 0, 62, 96
2, 548040, Note_on_c, 0, 62, 0
2, 548040, Note_on_c, 0, 70, 96
2, 548040, Note_on_c, 0, 64, 96
2, 548160, Note_on_c, 0, 64, 0
2, 548160, Note_on_c, 0, 65, 96
2, 548220, Note_on_c, 0, 70, 0
2, 548220, Note_on_c, 0, 69, 96
2, 548280, Note_on_c, 0, 69, 0
2, 548280, Note_on_c, 0, 65, 0
2, 548280, Note_on_c, 0, 72, 96
2, 548280, Note_on_c, 0, 60, 96
2, 548340, Note_on_c, 0, 72, 0
2, 548340, Note_on_c, 0, 72, 96
2, 548400, Note_on_c, 0, 72, 0
2, 548400, Note_on_c, 0, 60, 0
2, 548400, Note_on_c, 0, 72, 96
2, 548400, Note_on_c, 0, 67, 96
2, 548460, Note_on_c, 0, 72, 0
2, 548460, Note_on_c, 0, 71, 96
2, 548520, Note_on_c, 0, 71, 0
2, 548520, Note_on_c, 0, 67, 0
2, 548520, Note_on_c, 0, 74, 96
2, 548520, Note_on_c, 0, 68, 96
2, 548580, Note_on_c, 0, 74, 0
2, 548580, Note_on_c, 0, 74, 96
2, 548640, Note_on_c, 0, 74, 0
2, 548640, Note_on_c, 0, 68, 0
2, 548640, Note_on_c, 0, 74, 96
2, 548640, Note_on_c, 0, 69, 96
2, 548700, Note_on_c, 0, 74, 0
2, 548700, Note_on_c, 0, 73, 96
2, 548760, Note_on_c, 0, 73, 0
2, 548760, Note_on_c, 0, 69, 0
2, 548760, Note_on_c, 0, 76, 96
2, 548760, Note_on_c, 0, 64, 96
2, 548820, Note_on_c, 0, 76, 0
2, 548820, Note_on_c, 0, 76, 96
2, 548880, Note_on_c, 0, 76, 0
2, 548880, Note_on_c, 0, 64, 0
2, 548880, Note_on_c, 0, 76, 96
2, 548880, Note_on_c, 0, 71, 96
2, 548940, Note_on_c, 0, 76, 0
2, 548940, Note_on_c, 0, 74, 96
2, 549000, Note_on_c, 0, 74, 0
2, 549000, Note_on_c, 0, 77, 96
2, 549060, Note_on_c, 0, 77, 0
2, 549060, Note_on_c, 0, 77, 96
2, 549120, Note_on_c, 0, 77, 0
2, 549120, Note_on_c, 0, 71, 0
2, 549120, Note_on_c, 0, 77, 96
2, 549120, Note_on_c, 0, 72, 96
2, 549180, Note_on_c, 0, 77, 0
2, 549180, Note_on_c, 0, 76, 96
2, 549240, Note_on_c, 0, 76, 0
2, 549240, Note_on_c, 0, 72, 0
2, 549240, Note_on_c, 0, 78, 96
2, 549240, Note_on_c, 0, 71, 96
2, 549300, Note_on_c, 0, 78, 0
2, 549300, Note_on_c, 0, 80, 96
2, 549360, Note_on_c, 0, 80, 0
2, 549360, Note_on_c, 0, 71, 0
2, 549360, Note_on_c, 0, 81, 96
2, 549360, Note_on_c, 0, 69, 96
2, 549420, Note_on_c, 0, 69, 0
2, 549420, Note_on_c, 0, 81, 0
2, 549420, Note_on_c, 0, 80, 96
2, 549420, Note_on_c, 0, 71, 96
2, 549480, Note_on_c, 0, 71, 0
2, 549480, Note_on_c, 0, 80, 0
2, 549480, Note_on_c, 0, 81, 96
2, 549480, Note_on_c, 0, 69, 96
2, 549600, Note_on_c, 0, 69, 0
2, 549600, Note_on_c, 0, 76, 96
2, 549660, Note_on_c, 0, 81, 0
2, 549660, Note_on_c, 0, 78, 96
2, 549720, Note_on_c, 0, 78, 0
2, 549720, Note_on_c, 0, 79, 96
2, 549780, Note_on_c, 0, 79, 0
2, 549780, Note_on_c, 0, 79, 96
2, 549840, Note_on_c, 0, 79, 0
2, 549840, Note_on_c, 0, 76, 0
2, 549840, Note_on_c, 0, 79, 96
2, 549900, Note_on_c, 0, 79, 0
2, 549900, Note_on_c, 0, 76, 96
2, 549960, Note_on_c, 0, 76, 0
2, 549960, Note_on_c, 0, 77, 96
2, 549960, Note_on_c, 0, 74, 96
2, 550020, Note_on_c, 0, 77, 0
2, 550020, Note_on_c, 0, 77, 96
2, 550080, Note_on_c, 0, 77, 0
2, 550080, Note_on_c, 0, 76, 96
2, 550140, Note_on_c, 0, 74, 0
2, 550140, Note_on_c, 0, 71, 96
2, 550200, Note_on_c, 0, 71, 0
2, 550200, Note_on_c, 0, 72, 96
2, 550260, Note_on_c, 0, 72, 0
2, 550260, Note_on_c, 0, 72, 96
2, 550320, Note_on_c, 0, 72, 0
2, 550320, Note_on_c, 0, 76, 0
2, 550320, Note_on_c, 0, 75, 96
2, 550320, Note_on_c, 0, 72, 96
2, 550380, Note_on_c, 0, 72, 0
2, 550380, Note_on_c, 0, 69, 96
2, 550440, Note_on_c, 0, 69, 0
2, 550440, Note_on_c, 0, 75, 0
2, 550440, Note_on_c, 0, 74, 96
2, 550440, Note_on_c, 0, 71, 96
2, 550500, Note_on_c, 0, 71, 0
2, 550500, Note_on_c, 0, 71, 96
2, 550560, Note_on_c, 0, 71, 0
2, 550560, Note_on_c, 0, 71, 96
2, 550620, Note_on_c, 0, 71, 0
2, 550620, Note_on_c, 0, 74, 0
2, 550620, Note_on_c, 0, 71, 96
2, 550620, Note_on_c, 0, 68, 96
2, 550680, Note_on_c, 0, 68, 0
2, 550680, Note_on_c, 0, 71, 0
2, 550680, Note_on_c, 0, 72, 96
2, 550680, Note_on_c, 0, 69, 96
2, 550740, Note_on_c, 0, 69, 0
2, 550740, Note_on_c, 0, 72, 0
2, 550740, Note_on_c, 0, 76, 96
2, 550740, Note_on_c, 0, 72, 96
2, 550800, Note_on_c, 0, 72, 0
2, 550800, Note_on_c, 0, 76, 0
2, 550800, Note_on_c, 0, 69, 96
2, 550800, Note_on_c, 0, 66, 96
2, 550920, Note_on_c, 0, 66, 0
2, 550920, Note_on_c, 0, 69, 0
2, 550920, Note_on_c, 0, 71, 96
2, 550920, Note_on_c, 0, 65, 96
2, 551040, Note_on_c, 0, 65, 0
2, 551040, Note_on_c, 0, 64, 96
2, 551100, Note_on_c, 0, 71, 0
2, 551100, Note_on_c, 0, 68, 96
2, 551160, Note_on_c, 0, 68, 0
2, 551160, Note_on_c, 0, 69, 96
2, 551220, Note_on_c, 0, 69, 0
2, 551220, Note_on_c, 0, 72, 96
2, 551280, Note_on_c, 0, 72, 0
2, 551280, Note_on_c, 0, 64, 0
2, 551280, Note_on_c, 0, 71, 96
2, 551280, Note_on_c, 0, 66, 96
2, 551340, Note_on_c, 0, 71, 0
2, 551340, Note_on_c, 0, 74, 96
2, 551400, Note_on_c, 0, 74, 0
2, 551400, Note_on_c, 0, 66, 0
2, 551400, Note_on_c, 0, 73, 96
2, 551400, Note_on_c, 0, 70, 96
2, 551460, Note_on_c, 0, 73, 0
2, 551460, Note_on_c, 0, 76, 96
2, 551520, Note_on_c, 0, 76, 0
2, 551520, Note_on_c, 0, 70, 0
2, 551520, Note_on_c, 0, 74, 96
2, 551520, Note_on_c, 0, 69, 96
2, 551580, Note_on_c, 0, 74, 0
2, 551580, Note_on_c, 0, 73, 96
2, 551640, Note_on_c, 0, 73, 0
2, 551640, Note_on_c, 0, 69, 0
2, 551640, Note_on_c, 0, 74, 96
2, 551640, Note_on_c, 0, 62, 96
2, 551760, Note_on_c, 0, 62, 0
2, 551760, Note_on_c, 0, 69, 96
2, 551880, Note_on_c, 0, 69, 0
2, 551880, Note_on_c, 0, 74, 0
2, 551880, Note_on_c, 0, 79, 96
2, 551880, Note_on_c, 0, 67, 96
2, 551910, Note_on_c, 0, 79, 0
2, 551910, Note_on_c, 0, 77, 96
2, 551940, Note_on_c, 0, 77, 0
2, 551940, Note_on_c, 0, 76, 96
2, 552000, Note_on_c, 0, 76, 0
2, 552000, Note_on_c, 0, 67, 0
2, 552000, Note_on_c, 0, 77, 96
2, 552120, Note_on_c, 0, 77, 0
2, 552120, Note_on_c, 0, 69, 96
2, 552120, Note_on_c, 0, 65, 96
2, 552180, Note_on_c, 0, 69, 0
2, 552180, Note_on_c, 0, 67, 96
2, 552240, Note_on_c, 0, 67, 0
2, 552240, Note_on_c, 0, 65, 0
2, 552240, Note_on_c, 0, 69, 96
2, 552240, Note_on_c, 0, 64, 96
2, 552360, Note_on_c, 0, 64, 0
2, 552360, Note_on_c, 0, 69, 0
2, 552360, Note_on_c, 0, 70, 96
2, 552360, Note_on_c, 0, 62, 96
2, 552480, Note_on_c, 0, 62, 0
2, 552480, Note_on_c, 0, 57, 96
2, 552540, Note_on_c, 0, 70, 0
2, 552540, Note_on_c, 0, 67, 96
2, 552600, Note_on_c, 0, 67, 0
2, 552600, Note_on_c, 0, 57, 0
2, 552600, Note_on_c, 0, 69, 96
2, 552600, Note_on_c, 0, 61, 96
2, 552660, Note_on_c, 0, 69, 0
2, 552660, Note_on_c, 0, 69, 96
2, 552720, Note_on_c, 0, 69, 0
2, 552720, Note_on_c, 0, 61, 0
2, 552720, Note_on_c, 0, 69, 96
2, 552720, Note_on_c, 0, 62, 96
2, 552780, Note_on_c, 0, 69, 0
2, 552780, Note_on_c, 0, 65, 96
2, 552840, Note_on_c, 0, 65, 0
2, 552840, Note_on_c, 0, 62, 0
2, 552840, Note_on_c, 0, 67, 96
2, 552840, Note_on_c, 0, 64, 96
2, 552900, Note_on_c, 0, 67, 0
2, 552900, Note_on_c, 0, 67, 96
2, 552960, Note_on_c, 0, 67, 0
2, 552960, Note_on_c, 0, 64, 0
2, 552960, Note_on_c, 0, 65, 96
2, 553020, Note_on_c, 0, 65, 0
2, 553020, Note_on_c, 0, 64, 96
2, 553050, Note_on_c, 0, 64, 0
2, 553050, Note_on_c, 0, 62, 96
2, 553080, Note_on_c, 0, 62, 0
2, 553080, Note_on_c, 0, 74, 96
2, 553080, Note_on_c, 0, 65, 96
2, 553140, Note_on_c, 0, 65, 0
2, 553140, Note_on_c, 0, 67, 96
2, 553200, Note_on_c, 0, 67, 0
2, 553200, Note_on_c, 0, 74, 0
2, 553200, Note_on_c, 0, 71, 96
2, 553200, Note_on_c, 0, 65, 96
2, 553320, Note_on_c, 0, 65, 0
2, 553320, Note_on_c, 0, 71, 0
2, 553320, Note_on_c, 0, 73, 96
2, 553320, Note_on_c, 0, 64, 96
2, 553440, Note_on_c, 0, 64, 0
2, 553440, Note_on_c, 0, 73, 0
2, 553440, Note_on_c, 0, 74, 96
2, 553440, Note_on_c, 0, 62, 96
2, 553560, Note_on_c, 0, 62, 0
2, 553560, Note_on_c, 0, 74, 0
2, 553560, Note_on_c, 0, 72, 96
2, 553560, Note_on_c, 0, 69, 96
2, 553680, Note_on_c, 0, 72, 0
2, 553680, Note_on_c, 0, 71, 96
2, 553740, Note_on_c, 0, 69, 0
2, 553740, Note_on_c, 0, 66, 96
2, 553800, Note_on_c, 0, 66, 0
2, 553800, Note_on_c, 0, 71, 0
2, 553800, Note_on_c, 0, 70, 96
2, 553800, Note_on_c, 0, 67, 96
2, 553860, Note_on_c, 0, 67, 0
2, 553860, Note_on_c, 0, 67, 96
2, 553920, Note_on_c, 0, 67, 0
2, 553920, Note_on_c, 0, 67, 96
2, 553980, Note_on_c, 0, 67, 0
2, 553980, Note_on_c, 0, 70, 0
2, 553980, Note_on_c, 0, 69, 96
2, 553980, Note_on_c, 0, 64, 96
2, 554040, Note_on_c, 0, 64, 0
2, 554040, Note_on_c, 0, 69, 0
2, 554040, Note_on_c, 0, 74, 96
2, 554040, Note_on_c, 0, 65, 96
2, 554100, Note_on_c, 0, 65, 0
2, 554100, Note_on_c, 0, 65, 96
2, 554160, Note_on_c, 0, 65, 0
2, 554160, Note_on_c, 0, 65, 96
2, 554220, Note_on_c, 0, 65, 0
2, 554220, Note_on_c, 0, 74, 0
2, 554220, Note_on_c, 0, 71, 96
2, 554220, Note_on_c, 0, 62, 96
2, 554280, Note_on_c, 0, 62, 0
2, 554280, Note_on_c, 0, 71, 0
2, 554280, Note_on_c, 0, 73, 96
2, 554280, Note_on_c, 0, 64, 96
2, 554340, Note_on_c, 0, 64, 0
2, 554340, Note_on_c, 0, 73, 0
2, 554340, Note_on_c, 0, 76, 96
2, 554340, Note_on_c, 0, 64, 96
2, 554400, Note_on_c, 0, 64, 0
2, 554400, Note_on_c, 0, 76, 0
2, 554400, Note_on_c, 0, 81, 96
2, 554400, Note_on_c, 0, 64, 96
2, 554460, Note_on_c, 0, 64, 0
2, 554460, Note_on_c, 0, 61, 96
2, 554520, Note_on_c, 0, 61, 0
2, 554520, Note_on_c, 0, 81, 0
2, 554520, Note_on_c, 0, 69, 96
2, 554520, Note_on_c, 0, 62, 96
2, 554580, Note_on_c, 0, 69, 0
2, 554580, Note_on_c, 0, 74, 96
2, 554640, Note_on_c, 0, 74, 0
2, 554640, Note_on_c, 0, 62, 0
2, 554640, Note_on_c, 0, 74, 96
2, 554700, Note_on_c, 0, 74, 0
2, 554700, Note_on_c, 0, 71, 96
2, 554760, Note_on_c, 0, 71, 0
2, 554760, Note_on_c, 0, 72, 96
2, 554760, Note_on_c, 0, 60, 96
2, 554820, Note_on_c, 0, 72, 0
2, 554820, Note_on_c, 0, 72, 96
2, 554880, Note_on_c, 0, 72, 0
2, 554880, Note_on_c, 0, 60, 0
2, 554880, Note_on_c, 0, 72, 96
2, 554880, Note_on_c, 0, 65, 96
2, 554940, Note_on_c, 0, 72, 0
2, 554940, Note_on_c, 0, 69, 96
2, 555000, Note_on_c, 0, 69, 0
2, 555000, Note_on_c, 0, 65, 0
2, 555000, Note_on_c, 0, 70, 96
2, 555000, Note_on_c, 0, 64, 96
2, 555060, Note_on_c, 0, 70, 0
2, 555060, Note_on_c, 0, 70, 96
2, 555120, Note_on_c, 0, 70, 0
2, 555120, Note_on_c, 0, 64, 0
2, 555120, Note_on_c, 0, 72, 96
2, 555120, Note_on_c, 0, 63, 96
2, 555180, Note_on_c, 0, 72, 0
2, 555180, Note_on_c, 0, 74, 96
2, 555240, Note_on_c, 0, 74, 0
2, 555240, Note_on_c, 0, 63, 0
2, 555240, Note_on_c, 0, 75, 96
2, 555300, Note_on_c, 0, 72, 96
2, 555420, Note_on_c, 0, 72, 0
2, 555420, Note_on_c, 0, 69, 96
2, 555480, Note_on_c, 0, 69, 0
2, 555480, Note_on_c, 0, 75, 0
2, 555480, Note_on_c, 0, 74, 96
2, 555480, Note_on_c, 0, 70, 96
2, 555540, Note_on_c, 0, 70, 0
2, 555540, Note_on_c, 0, 70, 96
2, 555600, Note_on_c, 0, 70, 0
2, 555600, Note_on_c, 0, 74, 0
2, 555600, Note_on_c, 0, 76, 96
2, 555600, Note_on_c, 0, 70, 96
2, 555660, Note_on_c, 0, 70, 0
2, 555660, Note_on_c, 0, 67, 96
2, 555720, Note_on_c, 0, 67, 0
2, 555720, Note_on_c, 0, 76, 0
2, 555720, Note_on_c, 0, 77, 96
2, 555720, Note_on_c, 0, 68, 96
2, 555780, Note_on_c, 0, 68, 0
2, 555780, Note_on_c, 0, 68, 96
2, 555840, Note_on_c, 0, 68, 0
2, 555840, Note_on_c, 0, 67, 96
2, 555900, Note_on_c, 0, 77, 0
2, 555900, Note_on_c, 0, 74, 96
2, 555960, Note_on_c, 0, 74, 0
2, 555960, Note_on_c, 0, 75, 96
2, 556020, Note_on_c, 0, 75, 0
2, 556020, Note_on_c, 0, 67, 0
2, 556020, Note_on_c, 0, 75, 96
2, 556020, Note_on_c, 0, 69, 96
2, 556080, Note_on_c, 0, 69, 0
2, 556080, Note_on_c, 0, 75, 0
2, 556080, Note_on_c, 0, 75, 96
2, 556080, Note_on_c, 0, 66, 96
2, 556140, Note_on_c, 0, 75, 0
2, 556140, Note_on_c, 0, 72, 96
2, 556200, Note_on_c, 0, 72, 0
2, 556200, Note_on_c, 0, 74, 96
2, 556260, Note_on_c, 0, 74, 0
2, 556260, Note_on_c, 0, 66, 0
2, 556260, Note_on_c, 0, 74, 96
2, 556260, Note_on_c, 0, 67, 96
2, 556320, Note_on_c, 0, 67, 0
2, 556320, Note_on_c, 0, 74, 0
2, 556320, Note_on_c, 0, 76, 96
2, 556320, Note_on_c, 0, 60, 96
2, 556440, Note_on_c, 0, 60, 0
2, 556440, Note_on_c, 0, 76, 0
2, 556440, Note_on_c, 0, 78, 96
2, 556440, Note_on_c, 0, 72, 96
2, 556560, Note_on_c, 0, 78, 0
2, 556560, Note_on_c, 0, 79, 96
2, 556620, Note_on_c, 0, 72, 0
2, 556620, Note_on_c, 0, 69, 96
2, 556680, Note_on_c, 0, 69, 0
2, 556680, Note_on_c, 0, 79, 0
2, 556680, Note_on_c, 0, 75, 96
2, 556680, Note_on_c, 0, 70, 96
2, 556740, Note_on_c, 0, 70, 0
2, 556740, Note_on_c, 0, 70, 96
2, 556800, Note_on_c, 0, 70, 0
2, 556800, Note_on_c, 0, 75, 0
2, 556800, Note_on_c, 0, 73, 96
2, 556800, Note_on_c, 0, 69, 96
2, 556920, Note_on_c, 0, 73, 0
2, 556920, Note_on_c, 0, 74, 96
2, 557040, Note_on_c, 0, 74, 0
2, 557040, Note_on_c, 0, 69, 0
2, 557040, Note_on_c, 0, 71, 96
2, 557040, Note_on_c, 0, 67, 96
2, 557160, Note_on_c, 0, 71, 0
2, 557160, Note_on_c, 0, 72, 96
2, 557280, Note_on_c, 0, 72, 0
2, 557280, Note_on_c, 0, 67, 0
2, 557280, Note_on_c, 0, 69, 96
2, 557280, Note_on_c, 0, 65, 96
2, 557400, Note_on_c, 0, 69, 0
2, 557400, Note_on_c, 0, 70, 96
2, 557580, Note_on_c, 0, 65, 0
2, 557580, Note_on_c, 0, 67, 96
2, 557640, Note_on_c, 0, 67, 0
2, 557640, Note_on_c, 0, 70, 0
2, 557640, Note_on_c, 0, 69, 96
2, 557640, Note_on_c, 0, 65, 96
2, 557700, Note_on_c, 0, 65, 0
2, 557700, Note_on_c, 0, 63, 96
2, 557760, Note_on_c, 0, 69, 0
2, 557760, Note_on_c, 0, 70, 96
2, 557820, Note_on_c, 0, 63, 0
2, 557820, Note_on_c, 0, 62, 96
2, 557880, Note_on_c, 0, 62, 0
2, 557880, Note_on_c, 0, 70, 0
2, 557880, Note_on_c, 0, 65, 96
2, 557880, Note_on_c, 0, 65, 96
2, 557940, Note_on_c, 0, 65, 0
2, 557940, Note_on_c, 0, 65, 96
2, 558000, Note_on_c, 0, 65, 0
2, 558000, Note_on_c, 0, 65, 0
2, 558000, Note_on_c, 0, 72, 96
2, 558000, Note_on_c, 0, 65, 96
2, 558060, Note_on_c, 0, 65, 0
2, 558060, Note_on_c, 0, 63, 96
2, 558120, Note_on_c, 0, 63, 0
2, 558120, Note_on_c, 0, 72, 0
2, 558120, Note_on_c, 0, 73, 96
2, 558120, Note_on_c, 0, 67, 96
2, 558180, Note_on_c, 0, 67, 0
2, 558180, Note_on_c, 0, 67, 96
2, 558240, Note_on_c, 0, 67, 0
2, 558240, Note_on_c, 0, 73, 0
2, 558240, Note_on_c, 0, 74, 96
2, 558240, Note_on_c, 0, 67, 96
2, 558300, Note_on_c, 0, 67, 0
2, 558300, Note_on_c, 0, 66, 96
2, 558360, Note_on_c, 0, 66, 0
2, 558360, Note_on_c, 0, 74, 0
2, 558360, Note_on_c, 0, 69, 96
2, 558360, Note_on_c, 0, 69, 96
2, 558420, Note_on_c, 0, 69, 0
2, 558420, Note_on_c, 0, 69, 96
2, 558480, Note_on_c, 0, 69, 0
2, 558480, Note_on_c, 0, 69, 0
2, 558480, Note_on_c, 0, 76, 96
2, 558480, Note_on_c, 0, 69, 96
2, 558540, Note_on_c, 0, 69, 0
2, 558540, Note_on_c, 0, 67, 96
2, 558600, Note_on_c, 0, 67, 0
2, 558600, Note_on_c, 0, 71, 96
2, 558660, Note_on_c, 0, 71, 0
2, 558660, Note_on_c, 0, 71, 96
2, 558720, Note_on_c, 0, 71, 0
2, 558720, Note_on_c, 0, 76, 0
2, 558720, Note_on_c, 0, 77, 96
2, 558720, Note_on_c, 0, 69, 96
2, 558840, Note_on_c, 0, 69, 0
2, 558840, Note_on_c, 0, 77, 0
2, 558840, Note_on_c, 0, 76, 96
2, 558840, Note_on_c, 0, 71, 96
2, 558900, Note_on_c, 0, 71, 0
2, 558900, Note_on_c, 0, 73, 96
2, 558960, Note_on_c, 0, 73, 0
2, 558960, Note_on_c, 0, 76, 0
2, 558960, Note_on_c, 0, 74, 96
2, 558960, Note_on_c, 0, 74, 96
2, 559020, Note_on_c, 0, 74, 0
2, 559020, Note_on_c, 0, 76, 96
2, 559080, Note_on_c, 0, 76, 0
2, 559080, Note_on_c, 0, 74, 0
2, 559080, Note_on_c, 0, 74, 96
2, 559200, Note_on_c, 0, 74, 0
2, 559200, Note_on_c, 0, 81, 96
2, 559320, Note_on_c, 0, 81, 0
2, 559320, Note_on_c, 0, 79, 96
2, 559500, Note_on_c, 0, 79, 0
2, 559500, Note_on_c, 0, 76, 96
2, 559560, Note_on_c, 0, 76, 0
2, 559560, Note_on_c, 0, 77, 96
2, 559560, Note_on_c, 0, 74, 96
2, 559620, Note_on_c, 0, 77, 0
2, 559620, Note_on_c, 0, 77, 96
2, 559680, Note_on_c, 0, 77, 0
2, 559680, Note_on_c, 0, 77, 96
2, 559740, Note_on_c, 0, 77, 0
2, 559740, Note_on_c, 0, 74, 0
2, 559740, Note_on_c, 0, 75, 96
2, 559740, Note_on_c, 0, 71, 96
2, 559800, Note_on_c, 0, 71, 0
2, 559800, Note_on_c, 0, 75, 0
2, 559800, Note_on_c, 0, 76, 96
2, 559800, Note_on_c, 0, 72, 96
2, 559860, Note_on_c, 0, 72, 0
2, 559860, Note_on_c, 0, 76, 0
2, 559860, Note_on_c, 0, 76, 96
2, 559860, Note_on_c, 0, 72, 96
2, 559920, Note_on_c, 0, 72, 0
2, 559920, Note_on_c, 0, 76, 0
2, 559920, Note_on_c, 0, 76, 96
2, 559920, Note_on_c, 0, 72, 96
2, 559980, Note_on_c, 0, 72, 0
2, 559980, Note_on_c, 0, 76, 0
2, 559980, Note_on_c, 0, 73, 96
2, 559980, Note_on_c, 0, 69, 96
2, 560040, Note_on_c, 0, 69, 0
2, 560040, Note_on_c, 0, 73, 0
2, 560040, Note_on_c, 0, 74, 96
2, 560040, Note_on_c, 0, 71, 96
2, 560100, Note_on_c, 0, 71, 0
2, 560100, Note_on_c, 0, 74, 0
2, 560100, Note_on_c, 0, 74, 96
2, 560100, Note_on_c, 0, 71, 96
2, 560160, Note_on_c, 0, 71, 0
2, 560160, Note_on_c, 0, 74, 0
2, 560160, Note_on_c, 0, 74, 96
2, 560160, Note_on_c, 0, 71, 96
2, 560220, Note_on_c, 0, 71, 0
2, 560220, Note_on_c, 0, 74, 0
2, 560220, Note_on_c, 0, 71, 96
2, 560220, Note_on_c, 0, 68, 96
2, 560280, Note_on_c, 0, 68, 0
2, 560280, Note_on_c, 0, 71, 0
2, 560280, Note_on_c, 0, 72, 96
2, 560280, Note_on_c, 0, 69, 96
2, 560340, Note_on_c, 0, 69, 0
2, 560340, Note_on_c, 0, 72, 0
2, 560340, Note_on_c, 0, 72, 96
2, 560340, Note_on_c, 0, 69, 96
2, 560400, Note_on_c, 0, 69, 0
2, 560400, Note_on_c, 0, 72, 0
2, 560400, Note_on_c, 0, 72, 96
2, 560400, Note_on_c, 0, 69, 96
2, 560460, Note_on_c, 0, 69, 0
2, 560460, Note_on_c, 0, 72, 0
2, 560460, Note_on_c, 0, 69, 96
2, 560460, Note_on_c, 0, 66, 96
2, 560520, Note_on_c, 0, 66, 0
2, 560520, Note_on_c, 0, 69, 0
2, 560520, Note_on_c, 0, 71, 96
2, 560520, Note_on_c, 0, 68, 96
2, 560580, Note_on_c, 0, 68, 0
2, 560580, Note_on_c, 0, 71, 0
2, 560580, Note_on_c, 0, 71, 96
2, 560580, Note_on_c, 0, 68, 96
2, 560640, Note_on_c, 0, 68, 0
2, 560640, Note_on_c, 0, 71, 0
2, 560640, Note_on_c, 0, 71, 96
2, 560640, Note_on_c, 0, 68, 96
2, 560700, Note_on_c, 0, 68, 0
2, 560700, Note_on_c, 0, 71, 0
2, 560700, Note_on_c, 0, 76, 96
2, 560700, Note_on_c, 0, 69, 96
2, 560730, Note_on_c, 0, 69, 0
2, 560730, Note_on_c, 0, 67, 96
2, 560760, Note_on_c, 0, 67, 0
2, 560760, Note_on_c, 0, 76, 0
2, 560760, Note_on_c, 0, 69, 96
2, 560760, Note_on_c, 0, 66, 96
2, 560820, Note_on_c, 0, 66, 0
2, 560820, Note_on_c, 0, 64, 96
2, 560880, Note_on_c, 0, 64, 0
2, 560880, Note_on_c, 0, 66, 96
2, 560940, Note_on_c, 0, 69, 0
2, 560940, Note_on_c, 0, 72, 96
2, 561000, Note_on_c, 0, 72, 0
2, 561000, Note_on_c, 0, 71, 96
2, 561060, Note_on_c, 0, 71, 0
2, 561060, Note_on_c, 0, 69, 96
2, 561120, Note_on_c, 0, 69, 0
2, 561120, Note_on_c, 0, 68, 96
2, 561180, Note_on_c, 0, 66, 0
2, 561180, Note_on_c, 0, 64, 96
2, 561240, Note_on_c, 0, 64, 0
2, 561240, Note_on_c, 0, 68, 0
2, 561240, Note_on_c, 0, 71, 96
2, 561240, Note_on_c, 0, 68, 96
2, 561300, Note_on_c, 0, 68, 0
2, 561300, Note_on_c, 0, 68, 96
2, 561360, Note_on_c, 0, 68, 0
2, 561360, Note_on_c, 0, 71, 0
2, 561360, Note_on_c, 0, 69, 96
2, 561360, Note_on_c, 0, 68, 96
2, 561420, Note_on_c, 0, 68, 0
2, 561420, Note_on_c, 0, 66, 96
2, 561480, Note_on_c, 0, 66, 0
2, 561480, Note_on_c, 0, 69, 0
2, 561480, Note_on_c, 0, 72, 96
2, 561480, Note_on_c, 0, 69, 96
2, 561540, Note_on_c, 0, 69, 0
2, 561540, Note_on_c, 0, 69, 96
2, 561600, Note_on_c, 0, 69, 0
2, 561600, Note_on_c, 0, 72, 0
2, 561600, Note_on_c, 0, 71, 96
2, 561600, Note_on_c, 0, 69, 96
2, 561660, Note_on_c, 0, 69, 0
2, 561660, Note_on_c, 0, 68, 96
2, 561720, Note_on_c, 0, 68, 0
2, 561720, Note_on_c, 0, 71, 0
2, 561720, Note_on_c, 0, 74, 96
2, 561720, Note_on_c, 0, 71, 96
2, 561780, Note_on_c, 0, 71, 0
2, 561780, Note_on_c, 0, 71, 96
2, 561840, Note_on_c, 0, 71, 0
2, 561840, Note_on_c, 0, 71, 96
2, 561900, Note_on_c, 0, 71, 0
2, 561900, Note_on_c, 0, 74, 0
2, 561900, Note_on_c, 0, 72, 96
2, 561900, Note_on_c, 0, 69, 96
2, 561960, Note_on_c, 0, 69, 0
2, 561960, Note_on_c, 0, 72, 0
2, 561960, Note_on_c, 0, 75, 96
2, 561960, Note_on_c, 0, 72, 96
2, 562020, Note_on_c, 0, 72, 0
2, 562020, Note_on_c, 0, 75, 0
2, 562020, Note_on_c, 0, 75, 96
2, 562020, Note_on_c, 0, 72, 96
2, 562080, Note_on_c, 0, 72, 0
2, 562080, Note_on_c, 0, 75, 0
2, 562080, Note_on_c, 0, 75, 96
2, 562080, Note_on_c, 0, 72, 96
2, 562140, Note_on_c, 0, 72, 0
2, 562140, Note_on_c, 0, 75, 0
2, 562140, Note_on_c, 0, 74, 96
2, 562140, Note_on_c, 0, 71, 96
2, 562200, Note_on_c, 0, 71, 0
2, 562200, Note_on_c, 0, 74, 0
2, 562200, Note_on_c, 0, 77, 96
2, 562200, Note_on_c, 0, 74, 96
2, 562260, Note_on_c, 0, 74, 0
2, 562260, Note_on_c, 0, 77, 0
2, 562260, Note_on_c, 0, 77, 96
2, 562260, Note_on_c, 0, 74, 96
2, 562320, Note_on_c, 0, 74, 0
2, 562320, Note_on_c, 0, 77, 0
2, 562320, Note_on_c, 0, 77, 96
2, 562320, Note_on_c, 0, 74, 96
2, 562380, Note_on_c, 0, 74, 0
2, 562380, Note_on_c, 0, 77, 0
2, 562380, Note_on_c, 0, 76, 96
2, 562380, Note_on_c, 0, 73, 96
2, 562440, Note_on_c, 0, 73, 0
2, 562440, Note_on_c, 0, 76, 0
2, 562440, Note_on_c, 0, 79, 96
2, 562440, Note_on_c, 0, 76, 96
2, 562500, Note_on_c, 0, 76, 0
2, 562500, Note_on_c, 0, 79, 0
2, 562500, Note_on_c, 0, 79, 96
2, 562500, Note_on_c, 0, 76, 96
2, 562560, Note_on_c, 0, 76, 0
2, 562560, Note_on_c, 0, 79, 0
2, 562560, Note_on_c, 0, 79, 96
2, 562560, Note_on_c, 0, 76, 96
2, 562620, Note_on_c, 0, 76, 0
2, 562620, Note_on_c, 0, 79, 0
2, 562620, Note_on_c, 0, 77, 96
2, 562620, Note_on_c, 0, 74, 96
2, 562680, Note_on_c, 0, 74, 0
2, 562680, Note_on_c, 0, 77, 0
2, 562680, Note_on_c, 0, 84, 96
2, 562680, Note_on_c, 0, 75, 96
2, 562740, Note_on_c, 0, 75, 0
2, 562740, Note_on_c, 0, 84, 0
2, 562740, Note_on_c, 0, 84, 96
2, 562740, Note_on_c, 0, 75, 96
2, 562800, Note_on_c, 0, 75, 0
2, 562800, Note_on_c, 0, 84, 0
2, 562800, Note_on_c, 0, 84, 96
2, 562800, Note_on_c, 0, 75, 96
2, 562860, Note_on_c, 0, 75, 0
2, 562860, Note_on_c, 0, 84, 0
2, 562860, Note_on_c, 0, 82, 96
2, 562860, Note_on_c, 0, 74, 96
2, 562920, Note_on_c, 0, 74, 0
2, 562920, Note_on_c, 0, 82, 0
2, 562920, Note_on_c, 0, 77, 96
2, 562920, Note_on_c, 0, 74, 96
2, 562980, Note_on_c, 0, 74, 0
2, 562980, Note_on_c, 0, 77, 0
2, 562980, Note_on_c, 0, 77, 96
2, 562980, Note_on_c, 0, 74, 96
2, 563040, Note_on_c, 0, 74, 0
2, 563040, Note_on_c, 0, 77, 0
2, 563040, Note_on_c, 0, 77, 96
2, 563040, Note_on_c, 0, 74, 96
2, 563100, Note_on_c, 0, 74, 0
2, 563100, Note_on_c, 0, 77, 0
2, 563100, Note_on_c, 0, 76, 96
2, 563100, Note_on_c, 0, 72, 96
2, 563160, Note_on_c, 0, 72, 0
2, 563160, Note_on_c, 0, 76, 0
2, 563160, Note_on_c, 0, 76, 96
2, 563160, Note_on_c, 0, 67, 96
2, 563220, Note_on_c, 0, 67, 0
2, 563220, Note_on_c, 0, 76, 0
2, 563220, Note_on_c, 0, 76, 96
2, 563220, Note_on_c, 0, 67, 96
2, 563280, Note_on_c, 0, 67, 0
2, 563280, Note_on_c, 0, 76, 0
2, 563280, Note_on_c, 0, 76, 96
2, 563280, Note_on_c, 0, 69, 96
2, 563340, Note_on_c, 0, 76, 0
2, 563340, Note_on_c, 0, 74, 96
2, 563400, Note_on_c, 0, 74, 0
2, 563400, Note_on_c, 0, 69, 0
2, 563400, Note_on_c, 0, 82, 96
2, 563400, Note_on_c, 0, 74, 96
2, 563460, Note_on_c, 0, 74, 0
2, 563460, Note_on_c, 0, 82, 0
2, 563460, Note_on_c, 0, 82, 96
2, 563460, Note_on_c, 0, 74, 96
2, 563520, Note_on_c, 0, 74, 0
2, 563520, Note_on_c, 0, 82, 0
2, 563520, Note_on_c, 0, 73, 96
2, 563520, Note_on_c, 0, 70, 96
2, 563580, Note_on_c, 0, 70, 0
2, 563580, Note_on_c, 0, 67, 96
2, 563640, Note_on_c, 0, 67, 0
2, 563640, Note_on_c, 0, 73, 0
2, 563640, Note_on_c, 0, 74, 96
2, 563640, Note_on_c, 0, 69, 96
2, 563760, Note_on_c, 0, 69, 0
2, 563760, Note_on_c, 0, 74, 0
2, 563760, Note_on_c, 0, 71, 96
2, 563760, Note_on_c, 0, 68, 96
2, 563880, Note_on_c, 0, 68, 0
2, 563880, Note_on_c, 0, 71, 0
2, 563880, Note_on_c, 0, 76, 96
2, 563880, Note_on_c, 0, 69, 96
2, 563940, Note_on_c, 0, 69, 0
2, 563940, Note_on_c, 0, 67, 96
2, 564000, Note_on_c, 0, 67, 0
2, 564000, Note_on_c, 0, 76, 0
2, 564000, Note_on_c, 0, 69, 96
2, 564000, Note_on_c, 0, 66, 96
2, 564120, Note_on_c, 0, 66, 0
2, 564120, Note_on_c, 0, 69, 0
2, 564120, Note_on_c, 0, 74, 96
2, 564120, Note_on_c, 0, 68, 96
2, 564180, Note_on_c, 0, 74, 0
2, 564180, Note_on_c, 0, 76, 96
2, 564240, Note_on_c, 0, 76, 0
2, 564240, Note_on_c, 0, 77, 96
2, 564300, Note_on_c, 0, 68, 0
2, 564300, Note_on_c, 0, 71, 96
2, 564360, Note_on_c, 0, 71, 0
2, 564360, Note_on_c, 0, 69, 96
2, 564420, Note_on_c, 0, 69, 0
2, 564420, Note_on_c, 0, 72, 96
2, 564480, Note_on_c, 0, 72, 0
2, 564480, Note_on_c, 0, 71, 96
2, 564540, Note_on_c, 0, 77, 0
2, 564540, Note_on_c, 0, 76, 96
2, 564600, Note_on_c, 0, 71, 0
2, 564600, Note_on_c, 0, 69, 96
2, 564660, Note_on_c, 0, 76, 0
2, 564660, Note_on_c, 0, 74, 96
2, 564720, Note_on_c, 0, 74, 0
2, 564720, Note_on_c, 0, 72, 96
2, 564780, Note_on_c, 0, 72, 0
2, 564780, Note_on_c, 0, 71, 96
2, 564840, Note_on_c, 0, 69, 0
2, 564840, Note_on_c, 0, 68, 96
2, 564870, Note_on_c, 0, 71, 0
2, 564870, Note_on_c, 0, 69, 96
2, 564900, Note_on_c, 0, 69, 0
2, 564900, Note_on_c, 0, 71, 96
2, 564960, Note_on_c, 0, 71, 0
2, 564960, Note_on_c, 0, 68, 0
2, 564960, Note_on_c, 0, 69, 96
2, 564960, Note_on_c, 0, 69, 96
2, 565080, Note_on_c, 0, 69, 0
2, 565080, Note_on_c, 0, 67, 96
2, 565200, Note_on_c, 0, 67, 0
2, 565200, Note_on_c, 0, 69, 0
2, 565200, Note_on_c, 0, 66, 96
2, 565320, Note_on_c, 0, 66, 0
2, 565320, Note_on_c, 0, 68, 96
2, 565320, Note_on_c, 0, 65, 96
2, 565440, Note_on_c, 0, 65, 0
2, 565440, Note_on_c, 0, 68, 0
2, 565440, Note_on_c, 0, 69, 96
2, 565440, Note_on_c, 0, 64, 96
2, 565620, Note_on_c, 0, 64, 0
2, 565620, Note_on_c, 0, 69, 0
2, 565620, Note_on_c, 0, 69, 96
2, 565620, Note_on_c, 0, 64, 96
2, 565680, Note_on_c, 0, 64, 0
2, 565680, Note_on_c, 0, 69, 0
2, 565680, Note_on_c, 0, 71, 96
2, 565680, Note_on_c, 0, 65, 96
2, 565740, Note_on_c, 0, 65, 0
2, 565740, Note_on_c, 0, 71, 0
2, 565740, Note_on_c, 0, 74, 96
2, 565740, Note_on_c, 0, 69, 96
2, 565800, Note_on_c, 0, 69, 0
2, 565800, Note_on_c, 0, 74, 0
2, 565800, Note_on_c, 0, 73, 96
2, 565800, Note_on_c, 0, 64, 96
2, 565860, Note_on_c, 0, 64, 0
2, 565860, Note_on_c, 0, 73, 0
2, 565860, Note_on_c, 0, 73, 96
2, 565860, Note_on_c, 0, 64, 96
2, 565920, Note_on_c, 0, 64, 0
2, 565920, Note_on_c, 0, 73, 0
2, 565920, Note_on_c, 0, 73, 96
2, 565920, Note_on_c, 0, 64, 96
2, 565980, Note_on_c, 0, 64, 0
2, 565980, Note_on_c, 0, 73, 0
2, 565980, Note_on_c, 0, 76, 96
2, 565980, Note_on_c, 0, 67, 96
2, 566040, Note_on_c, 0, 67, 0
2, 566040, Note_on_c, 0, 76, 0
2, 566040, Note_on_c, 0, 74, 96
2, 566040, Note_on_c, 0, 65, 96
2, 566100, Note_on_c, 0, 65, 0
2, 566100, Note_on_c, 0, 74, 0
2, 566100, Note_on_c, 0, 74, 96
2, 566100, Note_on_c, 0, 65, 96
2, 566160, Note_on_c, 0, 65, 0
2, 566160, Note_on_c, 0, 74, 0
2, 566160, Note_on_c, 0, 74, 96
2, 566160, Note_on_c, 0, 65, 96
2, 566220, Note_on_c, 0, 65, 0
2, 566220, Note_on_c, 0, 74, 0
2, 566220, Note_on_c, 0, 77, 96
2, 566220, Note_on_c, 0, 69, 96
2, 566280, Note_on_c, 0, 69, 0
2, 566280, Note_on_c, 0, 77, 0
2, 566280, Note_on_c, 0, 76, 96
2, 566280, Note_on_c, 0, 67, 96
2, 566340, Note_on_c, 0, 67, 0
2, 566340, Note_on_c, 0, 76, 0
2, 566340, Note_on_c, 0, 76, 96
2, 566340, Note_on_c, 0, 67, 96
2, 566400, Note_on_c, 0, 67, 0
2, 566400, Note_on_c, 0, 76, 0
2, 566400, Note_on_c, 0, 76, 96
2, 566400, Note_on_c, 0, 67, 96
2, 566460, Note_on_c, 0, 67, 0
2, 566460, Note_on_c, 0, 76, 0
2, 566460, Note_on_c, 0, 79, 96
2, 566460, Note_on_c, 0, 70, 96
2, 566520, Note_on_c, 0, 70, 0
2, 566520, Note_on_c, 0, 79, 0
2, 566520, Note_on_c, 0, 77, 96
2, 566520, Note_on_c, 0, 69, 96
2, 566580, Note_on_c, 0, 69, 0
2, 566580, Note_on_c, 0, 77, 0
2, 566580, Note_on_c, 0, 77, 96
2, 566580, Note_on_c, 0, 74, 96
2, 566640, Note_on_c, 0, 74, 0
2, 566640, Note_on_c, 0, 77, 0
2, 566640, Note_on_c, 0, 77, 96
2, 566640, Note_on_c, 0, 74, 96
2, 566700, Note_on_c, 0, 74, 0
2, 566700, Note_on_c, 0, 77, 0
2, 566700, Note_on_c, 0, 74, 96
2, 566700, Note_on_c, 0, 71, 96
2, 566760, Note_on_c, 0, 71, 0
2, 566760, Note_on_c, 0, 74, 0
2, 566760, Note_on_c, 0, 76, 96
2, 566760, Note_on_c, 0, 73, 96
2, 566820, Note_on_c, 0, 73, 0
2, 566820, Note_on_c, 0, 76, 0
2, 566820, Note_on_c, 0, 76, 96
2, 566820, Note_on_c, 0, 73, 96
2, 566880, Note_on_c, 0, 73, 0
2, 566880, Note_on_c, 0, 76, 0
2, 566880, Note_on_c, 0, 76, 96
2, 566880, Note_on_c, 0, 73, 96
2, 566940, Note_on_c, 0, 73, 0
2, 566940, Note_on_c, 0, 76, 0
2, 566940, Note_on_c, 0, 72, 96
2, 566940, Note_on_c, 0, 64, 96
2, 567000, Note_on_c, 0, 64, 0
2, 567000, Note_on_c, 0, 72, 0
2, 567000, Note_on_c, 0, 74, 96
2, 567000, Note_on_c, 0, 65, 96
2, 567060, Note_on_c, 0, 65, 0
2, 567060, Note_on_c, 0, 74, 0
2, 567060, Note_on_c, 0, 74, 96
2, 567060, Note_on_c, 0, 65, 96
2, 567120, Note_on_c, 0, 65, 0
2, 567120, Note_on_c, 0, 74, 0
2, 567120, Note_on_c, 0, 74, 96
2, 567120, Note_on_c, 0, 70, 96
2, 567180, Note_on_c, 0, 74, 0
2, 567180, Note_on_c, 0, 72, 96
2, 567240, Note_on_c, 0, 72, 0
2, 567240, Note_on_c, 0, 76, 96
2, 567300, Note_on_c, 0, 76, 0
2, 567300, Note_on_c, 0, 74, 96
2, 567360, Note_on_c, 0, 74, 0
2, 567360, Note_on_c, 0, 77, 96
2, 567420, Note_on_c, 0, 77, 0
2, 567420, Note_on_c, 0, 76, 96
2, 567480, Note_on_c, 0, 76, 0
2, 567480, Note_on_c, 0, 79, 96
2, 567540, Note_on_c, 0, 70, 0
2, 567540, Note_on_c, 0, 70, 96
2, 567600, Note_on_c, 0, 70, 0
2, 567600, Note_on_c, 0, 69, 96
2, 567660, Note_on_c, 0, 79, 0
2, 567660, Note_on_c, 0, 77, 96
2, 567720, Note_on_c, 0, 77, 0
2, 567720, Note_on_c, 0, 69, 0
2, 567720, Note_on_c, 0, 76, 96
2, 567720, Note_on_c, 0, 67, 96
2, 567780, Note_on_c, 0, 76, 0
2, 567780, Note_on_c, 0, 74, 96
2, 567840, Note_on_c, 0, 74, 0
2, 567840, Note_on_c, 0, 73, 96
2, 567900, Note_on_c, 0, 73, 0
2, 567900, Note_on_c, 0, 69, 96
2, 567960, Note_on_c, 0, 69, 0
2, 567960, Note_on_c, 0, 67, 0
2, 567960, Note_on_c, 0, 74, 96
2, 567960, Note_on_c, 0, 65, 96
2, 568020, Note_on_c, 0, 65, 0
2, 568020, Note_on_c, 0, 62, 96
2, 568080, Note_on_c, 0, 62, 0
2, 568080, Note_on_c, 0, 67, 96
2, 568200, Note_on_c, 0, 74, 0
2, 568200, Note_on_c, 0, 73, 96
2, 568320, Note_on_c, 0, 73, 0
2, 568320, Note_on_c, 0, 74, 96
2, 568380, Note_on_c, 0, 74, 0
2, 568380, Note_on_c, 0, 69, 96
2, 568440, Note_on_c, 0, 69, 0
2, 568440, Note_on_c, 0, 67, 0
2, 568440, Note_on_c, 0, 74, 96
2, 568440, Note_on_c, 0, 65, 96
2, 568500, Note_on_c, 0, 65, 0
2, 568500, Note_on_c, 0, 74, 0
2, 568500, Note_on_c, 0, 74, 96
2, 568500, Note_on_c, 0, 67, 96
2, 568560, Note_on_c, 0, 67, 0
2, 568560, Note_on_c, 0, 74, 0
2, 568560, Note_on_c, 0, 74, 96
2, 568560, Note_on_c, 0, 65, 96
2, 568620, Note_on_c, 0, 74, 0
2, 568620, Note_on_c, 0, 71, 96
2, 568680, Note_on_c, 0, 71, 0
2, 568680, Note_on_c, 0, 65, 0
2, 568680, Note_on_c, 0, 72, 96
2, 568680, Note_on_c, 0, 63, 96
2, 568740, Note_on_c, 0, 72, 0
2, 568740, Note_on_c, 0, 72, 96
2, 568800, Note_on_c, 0, 72, 0
2, 568800, Note_on_c, 0, 70, 96
2, 568860, Note_on_c, 0, 63, 0
2, 568860, Note_on_c, 0, 62, 96
2, 568920, Note_on_c, 0, 62, 0
2, 568920, Note_on_c, 0, 70, 0
2, 568920, Note_on_c, 0, 69, 96
2, 568920, Note_on_c, 0, 65, 96
2, 568980, Note_on_c, 0, 65, 0
2, 568980, Note_on_c, 0, 65, 96
2, 569040, Note_on_c, 0, 65, 0
2, 569040, Note_on_c, 0, 65, 96
2, 569100, Note_on_c, 0, 65, 0
2, 569100, Note_on_c, 0, 69, 0
2, 569100, Note_on_c, 0, 67, 96
2, 569100, Note_on_c, 0, 64, 96
2, 569160, Note_on_c, 0, 64, 0
2, 569160, Note_on_c, 0, 67, 0
2, 569160, Note_on_c, 0, 70, 96
2, 569160, Note_on_c, 0, 67, 96
2, 569220, Note_on_c, 0, 67, 0
2, 569220, Note_on_c, 0, 70, 0
2, 569220, Note_on_c, 0, 70, 96
2, 569220, Note_on_c, 0, 67, 96
2, 569280, Note_on_c, 0, 67, 0
2, 569280, Note_on_c, 0, 70, 0
2, 569280, Note_on_c, 0, 70, 96
2, 569280, Note_on_c, 0, 67, 96
2, 569340, Note_on_c, 0, 67, 0
2, 569340, Note_on_c, 0, 70, 0
2, 569340, Note_on_c, 0, 69, 96
2, 569340, Note_on_c, 0, 66, 96
2, 569400, Note_on_c, 0, 66, 0
2, 569400, Note_on_c, 0, 69, 0
2, 569400, Note_on_c, 0, 72, 96
2, 569400, Note_on_c, 0, 69, 96
2, 569460, Note_on_c, 0, 69, 0
2, 569460, Note_on_c, 0, 72, 0
2, 569460, Note_on_c, 0, 72, 96
2, 569460, Note_on_c, 0, 69, 96
2, 569520, Note_on_c, 0, 69, 0
2, 569520, Note_on_c, 0, 72, 0
2, 569520, Note_on_c, 0, 72, 96
2, 569520, Note_on_c, 0, 69, 96
2, 569580, Note_on_c, 0, 69, 0
2, 569580, Note_on_c, 0, 72, 0
2, 569580, Note_on_c, 0, 71, 96
2, 569580, Note_on_c, 0, 68, 96
2, 569640, Note_on_c, 0, 68, 0
2, 569640, Note_on_c, 0, 71, 0
2, 569640, Note_on_c, 0, 74, 96
2, 569640, Note_on_c, 0, 71, 96
2, 569700, Note_on_c, 0, 71, 0
2, 569700, Note_on_c, 0, 74, 0
2, 569700, Note_on_c, 0, 74, 96
2, 569700, Note_on_c, 0, 71, 96
2, 569760, Note_on_c, 0, 71, 0
2, 569760, Note_on_c, 0, 74, 0
2, 569760, Note_on_c, 0, 74, 96
2, 569760, Note_on_c, 0, 71, 96
2, 569820, Note_on_c, 0, 71, 0
2, 569820, Note_on_c, 0, 74, 0
2, 569820, Note_on_c, 0, 73, 96
2, 569820, Note_on_c, 0, 69, 96
2, 569880, Note_on_c, 0, 69, 0
2, 569880, Note_on_c, 0, 73, 0
2, 569880, Note_on_c, 0, 74, 96
2, 569880, Note_on_c, 0, 71, 96
2, 569940, Note_on_c, 0, 71, 0
2, 569940, Note_on_c, 0, 74, 0
2, 569940, Note_on_c, 0, 76, 96
2, 569940, Note_on_c, 0, 73, 96
2, 570000, Note_on_c, 0, 73, 0
2, 570000, Note_on_c, 0, 76, 0
2, 570000, Note_on_c, 0, 77, 96
2, 570000, Note_on_c, 0, 74, 96
2, 570060, Note_on_c, 0, 74, 0
2, 570060, Note_on_c, 0, 77, 0
2, 570060, Note_on_c, 0, 76, 96
2, 570060, Note_on_c, 0, 73, 96
2, 570120, Note_on_c, 0, 73, 0
2, 570120, Note_on_c, 0, 76, 0
2, 570120, Note_on_c, 0, 77, 96
2, 570120, Note_on_c, 0, 74, 96
2, 570180, Note_on_c, 0, 74, 0
2, 570180, Note_on_c, 0, 77, 0
2, 570180, Note_on_c, 0, 79, 96
2, 570180, Note_on_c, 0, 76, 96
2, 570240, Note_on_c, 0, 76, 0
2, 570240, Note_on_c, 0, 79, 0
2, 570240, Note_on_c, 0, 76, 96
2, 570240, Note_on_c, 0, 73, 96
2, 570360, Note_on_c, 0, 73, 0
2, 570360, Note_on_c, 0, 76, 0
2, 570360, Note_on_c, 0, 77, 96
2, 570360, Note_on_c, 0, 72, 96
2, 570480, Note_on_c, 0, 72, 0
2, 570480, Note_on_c, 0, 77, 0
2, 570480, Note_on_c, 0, 74, 96
2, 570480, Note_on_c, 0, 71, 96
2, 570600, Note_on_c, 0, 71, 0
2, 570600, Note_on_c, 0, 74, 0
2, 570600, Note_on_c, 0, 76, 96
2, 570600, Note_on_c, 0, 70, 96
2, 570720, Note_on_c, 0, 70, 0
2, 570720, Note_on_c, 0, 76, 0
2, 570720, Note_on_c, 0, 73, 96
2, 570720, Note_on_c, 0, 69, 96
2, 570840, Note_on_c, 0, 69, 0
2, 570840, Note_on_c, 0, 73, 0
2, 570840, Note_on_c, 0, 74, 96
2, 570840, Note_on_c, 0, 70, 96
2, 570960, Note_on_c, 0, 70, 0
2, 570960, Note_on_c, 0, 74, 0
2, 570960, Note_on_c, 0, 71, 96
2, 571080, Note_on_c, 0, 71, 0
2, 571080, Note_on_c, 0, 72, 96
2, 571200, Note_on_c, 0, 72, 0
2, 571200, Note_on_c, 0, 73, 96
2, 571320, Note_on_c, 0, 73, 0
2, 571320, Note_on_c, 0, 81, 96
2, 571320, Note_on_c, 0, 74, 96
2, 571440, Note_on_c, 0, 74, 0
2, 571440, Note_on_c, 0, 75, 96
2, 571500, Note_on_c, 0, 81, 0
2, 571500, Note_on_c, 0, 78, 96
2, 571560, Note_on_c, 0, 78, 0
2, 571560, Note_on_c, 0, 79, 96
2, 571620, Note_on_c, 0, 79, 0
2, 571620, Note_on_c, 0, 79, 96
2, 571680, Note_on_c, 0, 79, 0
2, 571680, Note_on_c, 0, 79, 96
2, 571740, Note_on_c, 0, 79, 0
2, 571740, Note_on_c, 0, 75, 0
2, 571740, Note_on_c, 0, 76, 96
2, 571740, Note_on_c, 0, 73, 96
2, 571800, Note_on_c, 0, 73, 0
2, 571800, Note_on_c, 0, 76, 0
2, 571800, Note_on_c, 0, 77, 96
2, 571800, Note_on_c, 0, 74, 96
2, 571860, Note_on_c, 0, 74, 0
2, 571860, Note_on_c, 0, 77, 0
2, 571860, Note_on_c, 0, 77, 96
2, 571860, Note_on_c, 0, 74, 96
2, 571920, Note_on_c, 0, 74, 0
2, 571920, Note_on_c, 0, 77, 0
2, 571920, Note_on_c, 0, 77, 96
2, 571920, Note_on_c, 0, 74, 96
2, 571980, Note_on_c, 0, 74, 0
2, 571980, Note_on_c, 0, 77, 0
2, 571980, Note_on_c, 0, 75, 96
2, 571980, Note_on_c, 0, 71, 96
2, 572040, Note_on_c, 0, 71, 0
2, 572040, Note_on_c, 0, 75, 0
2, 572040, Note_on_c, 0, 76, 96
2, 572040, Note_on_c, 0, 72, 96
2, 572100, Note_on_c, 0, 72, 0
2, 572100, Note_on_c, 0, 76, 0
2, 572100, Note_on_c, 0, 76, 96
2, 572100, Note_on_c, 0, 72, 96
2, 572160, Note_on_c, 0, 72, 0
2, 572160, Note_on_c, 0, 76, 0
2, 572160, Note_on_c, 0, 75, 96
2, 572160, Note_on_c, 0, 71, 96
2, 572280, Note_on_c, 0, 75, 0
2, 572280, Note_on_c, 0, 76, 96
2, 572340, Note_on_c, 0, 76, 0
2, 572340, Note_on_c, 0, 71, 0
2, 572340, Note_on_c, 0, 74, 96
2, 572340, Note_on_c, 0, 70, 96
2, 572400, Note_on_c, 0, 70, 0
2, 572400, Note_on_c, 0, 74, 0
2, 572400, Note_on_c, 0, 73, 96
2, 572400, Note_on_c, 0, 69, 96
2, 572520, Note_on_c, 0, 73, 0
2, 572520, Note_on_c, 0, 74, 96
2, 572580, Note_on_c, 0, 74, 0
2, 572580, Note_on_c, 0, 69, 0
2, 572580, Note_on_c, 0, 72, 96
2, 572580, Note_on_c, 0, 68, 96
2, 572640, Note_on_c, 0, 68, 0
2, 572640, Note_on_c, 0, 72, 0
2, 572640, Note_on_c, 0, 71, 96
2, 572640, Note_on_c, 0, 67, 96
2, 572760, Note_on_c, 0, 71, 0
2, 572760, Note_on_c, 0, 72, 96
2, 572820, Note_on_c, 0, 67, 0
2, 572820, Note_on_c, 0, 65, 96
2, 572880, Note_on_c, 0, 65, 0
2, 572880, Note_on_c, 0, 63, 96
2, 572940, Note_on_c, 0, 63, 0
2, 572940, Note_on_c, 0, 62, 96
2, 573000, Note_on_c, 0, 62, 0
2, 573000, Note_on_c, 0, 72, 0
2, 573000, Note_on_c, 0, 71, 96
2, 573000, Note_on_c, 0, 65, 96
2, 573060, Note_on_c, 0, 65, 0
2, 573060, Note_on_c, 0, 65, 96
2, 573120, Note_on_c, 0, 65, 0
2, 573120, Note_on_c, 0, 71, 0
2, 573120, Note_on_c, 0, 72, 96
2, 573120, Note_on_c, 0, 65, 96
2, 573180, Note_on_c, 0, 65, 0
2, 573180, Note_on_c, 0, 64, 96
2, 573240, Note_on_c, 0, 64, 0
2, 573240, Note_on_c, 0, 72, 0
2, 573240, Note_on_c, 0, 67, 96
2, 573240, Note_on_c, 0, 67, 96
2, 573300, Note_on_c, 0, 67, 0
2, 573300, Note_on_c, 0, 67, 96
2, 573360, Note_on_c, 0, 67, 0
2, 573360, Note_on_c, 0, 67, 0
2, 573360, Note_on_c, 0, 74, 96
2, 573360, Note_on_c, 0, 67, 96
2, 573420, Note_on_c, 0, 67, 0
2, 573420, Note_on_c, 0, 66, 96
2, 573480, Note_on_c, 0, 66, 0
2, 573480, Note_on_c, 0, 74, 0
2, 573480, Note_on_c, 0, 75, 96
2, 573480, Note_on_c, 0, 69, 96
2, 573540, Note_on_c, 0, 69, 0
2, 573540, Note_on_c, 0, 69, 96
2, 573600, Note_on_c, 0, 69, 0
2, 573600, Note_on_c, 0, 75, 0
2, 573600, Note_on_c, 0, 76, 96
2, 573600, Note_on_c, 0, 69, 96
2, 573660, Note_on_c, 0, 69, 0
2, 573660, Note_on_c, 0, 68, 96
2, 573720, Note_on_c, 0, 68, 0
2, 573720, Note_on_c, 0, 76, 0
2, 573720, Note_on_c, 0, 71, 96
2, 573720, Note_on_c, 0, 71, 96
2, 573780, Note_on_c, 0, 71, 0
2, 573780, Note_on_c, 0, 71, 96
2, 573840, Note_on_c, 0, 71, 0
2, 573840, Note_on_c, 0, 71, 0
2, 573840, Note_on_c, 0, 78, 96
2, 573840, Note_on_c, 0, 71, 96
2, 573900, Note_on_c, 0, 71, 0
2, 573900, Note_on_c, 0, 69, 96
2, 573960, Note_on_c, 0, 69, 0
2, 573960, Note_on_c, 0, 72, 96
2, 574020, Note_on_c, 0, 72, 0
2, 574020, Note_on_c, 0, 72, 96
2, 574080, Note_on_c, 0, 72, 0
2, 574080, Note_on_c, 0, 78, 0
2, 574080, Note_on_c, 0, 79, 96
2, 574080, Note_on_c, 0, 72, 96
2, 574140, Note_on_c, 0, 72, 0
2, 574140, Note_on_c, 0, 71, 96
2, 574200, Note_on_c, 0, 71, 0
2, 574200, Note_on_c, 0, 79, 0
2, 574200, Note_on_c, 0, 78, 96
2, 574200, Note_on_c, 0, 69, 96
2, 574260, Note_on_c, 0, 69, 0
2, 574260, Note_on_c, 0, 71, 96
2, 574320, Note_on_c, 0, 71, 0
2, 574320, Note_on_c, 0, 78, 0
2, 574320, Note_on_c, 0, 76, 96
2, 574320, Note_on_c, 0, 67, 96
2, 574380, Note_on_c, 0, 76, 0
2, 574380, Note_on_c, 0, 78, 96
2, 574440, Note_on_c, 0, 78, 0
2, 574440, Note_on_c, 0, 67, 0
2, 574440, Note_on_c, 0, 76, 96
2, 574440, Note_on_c, 0, 72, 96
2, 574560, Note_on_c, 0, 72, 0
2, 574560, Note_on_c, 0, 76, 0
2, 574560, Note_on_c, 0, 83, 96
2, 574560, Note_on_c, 0, 71, 96
2, 574620, Note_on_c, 0, 83, 0
2, 574620, Note_on_c, 0, 75, 96
2, 574680, Note_on_c, 0, 75, 0
2, 574680, Note_on_c, 0, 71, 0
2, 574680, Note_on_c, 0, 76, 96
2, 574860, Note_on_c, 0, 76, 0
2, 574860, Note_on_c, 0, 73, 96
2, 574920, Note_on_c, 0, 73, 0
2, 574920, Note_on_c, 0, 74, 96
2, 574980, Note_on_c, 0, 74, 0
2, 574980, Note_on_c, 0, 74, 96
2, 575040, Note_on_c, 0, 74, 0
2, 575040, Note_on_c, 0, 74, 96
2, 575100, Note_on_c, 0, 74, 0
2, 575100, Note_on_c, 0, 71, 96
2, 575160, Note_on_c, 0, 71, 0
2, 575160, Note_on_c, 0, 72, 96
2, 575160, Note_on_c, 0, 69, 96
2, 575220, Note_on_c, 0, 72, 0
2, 575220, Note_on_c, 0, 72, 96
2, 575280, Note_on_c, 0, 72, 0
2, 575280, Note_on_c, 0, 72, 96
2, 575340, Note_on_c, 0, 72, 0
2, 575340, Note_on_c, 0, 69, 0
2, 575340, Note_on_c, 0, 69, 96
2, 575340, Note_on_c, 0, 66, 96
2, 575400, Note_on_c, 0, 66, 0
2, 575400, Note_on_c, 0, 69, 0
2, 575400, Note_on_c, 0, 70, 96
2, 575400, Note_on_c, 0, 67, 96
2, 575460, Note_on_c, 0, 67, 0
2, 575460, Note_on_c, 0, 70, 0
2, 575460, Note_on_c, 0, 70, 96
2, 575460, Note_on_c, 0, 67, 96
2, 575520, Note_on_c, 0, 67, 0
2, 575520, Note_on_c, 0, 70, 0
2, 575520, Note_on_c, 0, 69, 96
2, 575520, Note_on_c, 0, 66, 96
2, 575640, Note_on_c, 0, 66, 0
2, 575640, Note_on_c, 0, 69, 0
2, 575640, Note_on_c, 0, 70, 96
2, 575640, Note_on_c, 0, 65, 96
2, 575760, Note_on_c, 0, 65, 0
2, 575760, Note_on_c, 0, 70, 0
2, 575760, Note_on_c, 0, 68, 96
2, 575760, Note_on_c, 0, 64, 96
2, 575880, Note_on_c, 0, 64, 0
2, 575880, Note_on_c, 0, 68, 0
2, 575880, Note_on_c, 0, 69, 96
2, 576000, Note_on_c, 0, 69, 0
2, 576000, Note_on_c, 0, 74, 96
2, 576120, Note_on_c, 0, 74, 0
2, 576120, Note_on_c, 0, 76, 96
2, 576240, Note_on_c, 0, 76, 0
2, 576240, Note_on_c, 0, 73, 96
2, 576360, Note_on_c, 0, 73, 0
2, 576360, Note_on_c, 0, 74, 96
2, 576360, Note_on_c, 0, 69, 96
2, 576540, Note_on_c, 0, 69, 0
2, 576540, Note_on_c, 0, 74, 0
2, 576540, Note_on_c, 0, 77, 96
2, 576540, Note_on_c, 0, 65, 96
2, 576600, Note_on_c, 0, 65, 0
2, 576600, Note_on_c, 0, 77, 0
2, 576600, Note_on_c, 0, 76, 96
2, 576600, Note_on_c, 0, 67, 96
2, 576660, Note_on_c, 0, 67, 0
2, 576660, Note_on_c, 0, 76, 0
2, 576660, Note_on_c, 0, 76, 96
2, 576660, Note_on_c, 0, 67, 96
2, 576720, Note_on_c, 0, 67, 0
2, 576720, Note_on_c, 0, 76, 0
2, 576720, Note_on_c, 0, 76, 96
2, 576720, Note_on_c, 0, 67, 96
2, 576780, Note_on_c, 0, 67, 0
2, 576780, Note_on_c, 0, 76, 0
2, 576780, Note_on_c, 0, 79, 96
2, 576780, Note_on_c, 0, 64, 96
2, 576840, Note_on_c, 0, 64, 0
2, 576840, Note_on_c, 0, 79, 0
2, 576840, Note_on_c, 0, 77, 96
2, 576840, Note_on_c, 0, 65, 96
2, 576900, Note_on_c, 0, 65, 0
2, 576900, Note_on_c, 0, 77, 0
2, 576900, Note_on_c, 0, 77, 96
2, 576900, Note_on_c, 0, 65, 96
2, 576960, Note_on_c, 0, 65, 0
2, 576960, Note_on_c, 0, 77, 0
2, 576960, Note_on_c, 0, 77, 96
2, 576960, Note_on_c, 0, 65, 96
2, 577020, Note_on_c, 0, 65, 0
2, 577020, Note_on_c, 0, 77, 0
2, 577020, Note_on_c, 0, 81, 96
2, 577020, Note_on_c, 0, 62, 96
2, 577080, Note_on_c, 0, 62, 0
2, 577080, Note_on_c, 0, 81, 0
2, 577080, Note_on_c, 0, 79, 96
2, 577080, Note_on_c, 0, 64, 96
2, 577140, Note_on_c, 0, 64, 0
2, 577140, Note_on_c, 0, 79, 0
2, 577140, Note_on_c, 0, 79, 96
2, 577140, Note_on_c, 0, 64, 96
2, 577200, Note_on_c, 0, 64, 0
2, 577200, Note_on_c, 0, 79, 0
2, 577200, Note_on_c, 0, 79, 96
2, 577200, Note_on_c, 0, 64, 96
2, 577260, Note_on_c, 0, 64, 0
2, 577260, Note_on_c, 0, 79, 0
2, 577260, Note_on_c, 0, 82, 96
2, 577260, Note_on_c, 0, 61, 96
2, 577320, Note_on_c, 0, 61, 0
2, 577320, Note_on_c, 0, 82, 0
2, 577320, Note_on_c, 0, 81, 96
2, 577320, Note_on_c, 0, 62, 96
2, 577380, Note_on_c, 0, 81, 0
2, 577380, Note_on_c, 0, 81, 96
2, 577440, Note_on_c, 0, 81, 0
2, 577440, Note_on_c, 0, 79, 96
2, 577500, Note_on_c, 0, 62, 0
2, 577500, Note_on_c, 0, 59, 96
2, 577560, Note_on_c, 0, 59, 0
2, 577560, Note_on_c, 0, 79, 0
2, 577560, Note_on_c, 0, 67, 96
2, 577560, Note_on_c, 0, 60, 96
2, 577620, Note_on_c, 0, 60, 0
2, 577620, Note_on_c, 0, 64, 96
2, 577680, Note_on_c, 0, 64, 0
2, 577680, Note_on_c, 0, 64, 96
2, 577740, Note_on_c, 0, 64, 0
2, 577740, Note_on_c, 0, 67, 0
2, 577740, Note_on_c, 0, 70, 96
2, 577740, Note_on_c, 0, 67, 96
2, 577800, Note_on_c, 0, 67, 0
2, 577800, Note_on_c, 0, 70, 0
2, 577800, Note_on_c, 0, 69, 96
2, 577800, Note_on_c, 0, 66, 96
2, 577860, Note_on_c, 0, 66, 0
2, 577860, Note_on_c, 0, 69, 0
2, 577860, Note_on_c, 0, 69, 96
2, 577860, Note_on_c, 0, 66, 96
2, 577920, Note_on_c, 0, 66, 0
2, 577920, Note_on_c, 0, 69, 0
2, 577920, Note_on_c, 0, 69, 96
2, 577920, Note_on_c, 0, 66, 96
2, 577980, Note_on_c, 0, 66, 0
2, 577980, Note_on_c, 0, 69, 0
2, 577980, Note_on_c, 0, 65, 96
2, 577980, Note_on_c, 0, 62, 96
2, 578040, Note_on_c, 0, 62, 0
2, 578040, Note_on_c, 0, 65, 0
2, 578040, Note_on_c, 0, 67, 96
2, 578040, Note_on_c, 0, 64, 96
2, 578100, Note_on_c, 0, 67, 0
2, 578100, Note_on_c, 0, 67, 96
2, 578160, Note_on_c, 0, 67, 0
2, 578160, Note_on_c, 0, 67, 96
2, 578220, Note_on_c, 0, 67, 0
2, 578220, Note_on_c, 0, 64, 0
2, 578220, Note_on_c, 0, 70, 96
2, 578220, Note_on_c, 0, 67, 96
2, 578280, Note_on_c, 0, 67, 0
2, 578280, Note_on_c, 0, 70, 0
2, 578280, Note_on_c, 0, 75, 96
2, 578280, Note_on_c, 0, 66, 96
2, 578340, Note_on_c, 0, 66, 0
2, 578340, Note_on_c, 0, 66, 96
2, 578400, Note_on_c, 0, 66, 0
2, 578400, Note_on_c, 0, 66, 96
2, 578460, Note_on_c, 0, 66, 0
2, 578460, Note_on_c, 0, 75, 0
2, 578460, Note_on_c, 0, 74, 96
2, 578460, Note_on_c, 0, 69, 96
2, 578520, Note_on_c, 0, 69, 0
2, 578520, Note_on_c, 0, 74, 0
2, 578520, Note_on_c, 0, 79, 96
2, 578520, Note_on_c, 0, 67, 96
2, 578580, Note_on_c, 0, 67, 0
2, 578580, Note_on_c, 0, 79, 0
2, 578580, Note_on_c, 0, 77, 96
2, 578580, Note_on_c, 0, 67, 96
2, 578640, Note_on_c, 0, 67, 0
2, 578640, Note_on_c, 0, 77, 0
2, 578640, Note_on_c, 0, 76, 96
2, 578640, Note_on_c, 0, 67, 96
2, 578700, Note_on_c, 0, 67, 0
2, 578700, Note_on_c, 0, 76, 0
2, 578700, Note_on_c, 0, 74, 96
2, 578700, Note_on_c, 0, 69, 96
2, 578760, Note_on_c, 0, 69, 0
2, 578760, Note_on_c, 0, 74, 0
2, 578760, Note_on_c, 0, 73, 96
2, 578760, Note_on_c, 0, 71, 96
2, 578820, Note_on_c, 0, 73, 0
2, 578820, Note_on_c, 0, 74, 96
2, 578880, Note_on_c, 0, 74, 0
2, 578880, Note_on_c, 0, 73, 96
2, 579000, Note_on_c, 0, 73, 0
2, 579000, Note_on_c, 0, 71, 0
2, 579000, Note_on_c, 0, 81, 96
2, 579000, Note_on_c, 0, 64, 96
2, 579120, Note_on_c, 0, 64, 0
2, 579120, Note_on_c, 0, 81, 0
2, 579120, Note_on_c, 0, 74, 96
2, 579120, Note_on_c, 0, 69, 96
2, 579240, Note_on_c, 0, 69, 0
2, 579240, Note_on_c, 0, 74, 0
2, 579240, Note_on_c, 0, 76, 96
2, 579240, Note_on_c, 0, 67, 96
2, 579360, Note_on_c, 0, 67, 0
2, 579360, Note_on_c, 0, 76, 0
2, 579480, Note_on_c, 0, 77, 96
2, 579480, Note_on_c, 0, 65, 96
2, 579600, Note_on_c, 0, 65, 0
2, 579600, Note_on_c, 0, 77, 0
2, 579600, Note_on_c, 0, 79, 96
2, 579600, Note_on_c, 0, 64, 96
2, 579720, Note_on_c, 0, 64, 0
2, 579720, Note_on_c, 0, 79, 0
2, 579720, Note_on_c, 0, 81, 96
2, 579720, Note_on_c, 0, 62, 96
2, 579840, Note_on_c, 0, 62, 0
2, 579840, Note_on_c, 0, 81, 0
2, 579960, Note_on_c, 0, 82, 96
2, 579960, Note_on_c, 0, 61, 96
2, 580080, Note_on_c, 0, 61, 0
2, 580080, Note_on_c, 0, 82, 0
2, 580080, Note_on_c, 0, 81, 96
2, 580080, Note_on_c, 0, 62, 96
2, 580200, Note_on_c, 0, 62, 0
2, 580200, Note_on_c, 0, 81, 0
2, 580200, Note_on_c, 0, 79, 96
2, 580200, Note_on_c, 0, 64, 96
2, 580320, Note_on_c, 0, 64, 0
2, 580320, Note_on_c, 0, 79, 0
2, 580440, Note_on_c, 0, 77, 96
2, 580440, Note_on_c, 0, 65, 96
2, 580500, Note_on_c, 0, 65, 0
2, 580500, Note_on_c, 0, 77, 0
2, 580500, Note_on_c, 0, 76, 96
2, 580500, Note_on_c, 0, 67, 96
2, 580560, Note_on_c, 0, 67, 0
2, 580560, Note_on_c, 0, 76, 0
2, 580560, Note_on_c, 0, 77, 96
2, 580560, Note_on_c, 0, 65, 96
2, 580680, Note_on_c, 0, 65, 0
2, 580680, Note_on_c, 0, 77, 0
2, 580680, Note_on_c, 0, 79, 96
2, 580680, Note_on_c, 0, 63, 96
2, 580800, Note_on_c, 0, 63, 0
2, 580800, Note_on_c, 0, 79, 0
2, 580800, Note_on_c, 0, 81, 96
2, 580800, Note_on_c, 0, 62, 96
2, 580920, Note_on_c, 0, 62, 0
2, 580920, Note_on_c, 0, 81, 0
2, 580920, Note_on_c, 0, 74, 96
2, 580920, Note_on_c, 0, 66, 96
2, 581040, Note_on_c, 0, 66, 0
2, 581040, Note_on_c, 0, 67, 96
2, 581100, Note_on_c, 0, 74, 0
2, 581100, Note_on_c, 0, 70, 96
2, 581160, Note_on_c, 0, 70, 0
2, 581160, Note_on_c, 0, 72, 96
2, 581220, Note_on_c, 0, 72, 0
2, 581220, Note_on_c, 0, 72, 96
2, 581280, Note_on_c, 0, 72, 0
2, 581280, Note_on_c, 0, 72, 96
2, 581400, Note_on_c, 0, 67, 0
2, 581400, Note_on_c, 0, 65, 96
2, 581460, Note_on_c, 0, 65, 0
2, 581460, Note_on_c, 0, 64, 96
2, 581520, Note_on_c, 0, 64, 0
2, 581520, Note_on_c, 0, 65, 96
2, 581580, Note_on_c, 0, 72, 0
2, 581580, Note_on_c, 0, 68, 96
2, 581640, Note_on_c, 0, 68, 0
2, 581640, Note_on_c, 0, 70, 96
2, 581700, Note_on_c, 0, 70, 0
2, 581700, Note_on_c, 0, 70, 96
2, 581760, Note_on_c, 0, 70, 0
2, 581760, Note_on_c, 0, 70, 96
2, 581820, Note_on_c, 0, 65, 0
2, 581820, Note_on_c, 0, 62, 96
2, 581880, Note_on_c, 0, 62, 0
2, 581880, Note_on_c, 0, 63, 96
2, 581940, Note_on_c, 0, 63, 0
2, 581940, Note_on_c, 0, 70, 96
2, 582000, Note_on_c, 0, 70, 0
2, 582000, Note_on_c, 0, 70, 0
2, 582000, Note_on_c, 0, 70, 96
2, 582060, Note_on_c, 0, 70, 0
2, 582060, Note_on_c, 0, 67, 96
2, 582120, Note_on_c, 0, 67, 0
2, 582120, Note_on_c, 0, 74, 96
2, 582120, Note_on_c, 0, 69, 96
2, 582180, Note_on_c, 0, 69, 0
2, 582180, Note_on_c, 0, 69, 96
2, 582240, Note_on_c, 0, 69, 0
2, 582240, Note_on_c, 0, 67, 96
2, 582300, Note_on_c, 0, 74, 0
2, 582300, Note_on_c, 0, 77, 96
2, 582360, Note_on_c, 0, 77, 0
2, 582360, Note_on_c, 0, 67, 0
2, 582360, Note_on_c, 0, 76, 96
2, 582360, Note_on_c, 0, 72, 96
2, 582420, Note_on_c, 0, 76, 0
2, 582420, Note_on_c, 0, 76, 96
2, 582480, Note_on_c, 0, 76, 0
2, 582480, Note_on_c, 0, 77, 96
2, 582540, Note_on_c, 0, 72, 0
2, 582540, Note_on_c, 0, 71, 96
2, 582600, Note_on_c, 0, 71, 0
2, 582600, Note_on_c, 0, 74, 96
2, 582660, Note_on_c, 0, 74, 0
2, 582660, Note_on_c, 0, 74, 96
2, 582720, Note_on_c, 0, 74, 0
2, 582720, Note_on_c, 0, 72, 96
2, 582780, Note_on_c, 0, 77, 0
2, 582780, Note_on_c, 0, 74, 96
2, 582840, Note_on_c, 0, 74, 0
2, 582840, Note_on_c, 0, 72, 0
2, 582840, Note_on_c, 0, 75, 96
2, 582900, Note_on_c, 0, 75, 0
2, 582900, Note_on_c, 0, 75, 96
2, 582960, Note_on_c, 0, 75, 0
2, 582960, Note_on_c, 0, 75, 96
2, 583020, Note_on_c, 0, 67, 96
2, 583080, Note_on_c, 0, 67, 0
2, 583080, Note_on_c, 0, 66, 96
2, 583140, Note_on_c, 0, 75, 0
2, 583140, Note_on_c, 0, 75, 96
2, 583200, Note_on_c, 0, 75, 0
2, 583200, Note_on_c, 0, 74, 96
2, 583260, Note_on_c, 0, 74, 0
2, 583260, Note_on_c, 0, 72, 96
2, 583320, Note_on_c, 0, 72, 0
2, 583320, Note_on_c, 0, 66, 0
2, 583320, Note_on_c, 0, 70, 96
2, 583320, Note_on_c, 0, 67, 96
2, 583380, Note_on_c, 0, 70, 0
2, 583380, Note_on_c, 0, 69, 96
2, 583440, Note_on_c, 0, 69, 0
2, 583440, Note_on_c, 0, 67, 0
2, 583440, Note_on_c, 0, 67, 96
2, 583500, Note_on_c, 0, 63, 96
2, 583560, Note_on_c, 0, 63, 0
2, 583560, Note_on_c, 0, 67, 0
2, 583560, Note_on_c, 0, 65, 96
2, 583560, Note_on_c, 0, 62, 96
2, 583620, Note_on_c, 0, 62, 0
2, 583620, Note_on_c, 0, 60, 96
2, 583680, Note_on_c, 0, 60, 0
2, 583680, Note_on_c, 0, 62, 96
2, 583740, Note_on_c, 0, 65, 0
2, 583740, Note_on_c, 0, 68, 96
2, 583800, Note_on_c, 0, 68, 0
2, 583800, Note_on_c, 0, 67, 96
2, 583860, Note_on_c, 0, 67, 0
2, 583860, Note_on_c, 0, 62, 0
2, 583860, Note_on_c, 0, 67, 96
2, 583860, Note_on_c, 0, 65, 96
2, 583920, Note_on_c, 0, 65, 0
2, 583920, Note_on_c, 0, 67, 0
2, 583920, Note_on_c, 0, 67, 96
2, 583920, Note_on_c, 0, 64, 96
2, 583980, Note_on_c, 0, 64, 0
2, 583980, Note_on_c, 0, 67, 0
2, 583980, Note_on_c, 0, 70, 96
2, 583980, Note_on_c, 0, 64, 96
2, 584040, Note_on_c, 0, 64, 0
2, 584040, Note_on_c, 0, 70, 0
2, 584040, Note_on_c, 0, 69, 96
2, 584040, Note_on_c, 0, 64, 96
2, 584100, Note_on_c, 0, 64, 0
2, 584100, Note_on_c, 0, 69, 0
2, 584100, Note_on_c, 0, 69, 96
2, 584100, Note_on_c, 0, 67, 96
2, 584160, Note_on_c, 0, 67, 0
2, 584160, Note_on_c, 0, 69, 0
2, 584160, Note_on_c, 0, 69, 96
2, 584160, Note_on_c, 0, 66, 96
2, 584220, Note_on_c, 0, 66, 0
2, 584220, Note_on_c, 0, 69, 0
2, 584220, Note_on_c, 0, 72, 96
2, 584220, Note_on_c, 0, 66, 96
2, 584280, Note_on_c, 0, 66, 0
2, 584280, Note_on_c, 0, 72, 0
2, 584280, Note_on_c, 0, 71, 96
2, 584280, Note_on_c, 0, 66, 96
2, 584340, Note_on_c, 0, 66, 0
2, 584340, Note_on_c, 0, 71, 0
2, 584340, Note_on_c, 0, 71, 96
2, 584340, Note_on_c, 0, 69, 96
2, 584400, Note_on_c, 0, 69, 0
2, 584400, Note_on_c, 0, 71, 0
2, 584400, Note_on_c, 0, 71, 96
2, 584400, Note_on_c, 0, 67, 96
2, 584460, Note_on_c, 0, 71, 0
2, 584460, Note_on_c, 0, 74, 96
2, 584520, Note_on_c, 0, 74, 0
2, 584520, Note_on_c, 0, 73, 96
2, 584580, Note_on_c, 0, 73, 0
2, 584580, Note_on_c, 0, 73, 96
2, 584640, Note_on_c, 0, 73, 0
2, 584640, Note_on_c, 0, 73, 96
2, 584700, Note_on_c, 0, 73, 0
2, 584700, Note_on_c, 0, 67, 0
2, 584700, Note_on_c, 0, 76, 96
2, 584700, Note_on_c, 0, 70, 96
2, 584760, Note_on_c, 0, 70, 0
2, 584760, Note_on_c, 0, 76, 0
2, 584760, Note_on_c, 0, 74, 96
2, 584760, Note_on_c, 0, 69, 96
2, 584820, Note_on_c, 0, 69, 0
2, 584820, Note_on_c, 0, 74, 0
2, 584820, Note_on_c, 0, 74, 96
2, 584820, Note_on_c, 0, 69, 96
2, 584880, Note_on_c, 0, 69, 0
2, 584880, Note_on_c, 0, 74, 0
2, 584880, Note_on_c, 0, 74, 96
2, 584880, Note_on_c, 0, 69, 96
2, 584940, Note_on_c, 0, 69, 0
2, 584940, Note_on_c, 0, 74, 0
2, 584940, Note_on_c, 0, 77, 96
2, 584940, Note_on_c, 0, 74, 96
2, 585000, Note_on_c, 0, 74, 0
2, 585000, Note_on_c, 0, 77, 0
2, 585000, Note_on_c, 0, 76, 96
2, 585000, Note_on_c, 0, 70, 96
2, 585060, Note_on_c, 0, 70, 0
2, 585060, Note_on_c, 0, 76, 0
2, 585060, Note_on_c, 0, 76, 96
2, 585060, Note_on_c, 0, 70, 96
2, 585120, Note_on_c, 0, 70, 0
2, 585120, Note_on_c, 0, 76, 0
2, 585120, Note_on_c, 0, 69, 96
2, 585120, Note_on_c, 0, 64, 96
2, 585240, Note_on_c, 0, 64, 0
2, 585240, Note_on_c, 0, 62, 96
2, 585360, Note_on_c, 0, 62, 0
2, 585360, Note_on_c, 0, 69, 0
2, 585360, Note_on_c, 0, 70, 96
2, 585480, Note_on_c, 0, 79, 96
2, 585600, Note_on_c, 0, 79, 0
2, 585600, Note_on_c, 0, 73, 96
2, 585660, Note_on_c, 0, 73, 0
2, 585660, Note_on_c, 0, 76, 96
2, 585720, Note_on_c, 0, 76, 0
2, 585720, Note_on_c, 0, 70, 0
2, 585720, Note_on_c, 0, 74, 96
2, 585720, Note_on_c, 0, 69, 96
2, 585780, Note_on_c, 0, 74, 0
2, 585780, Note_on_c, 0, 74, 96
2, 585840, Note_on_c, 0, 74, 0
2, 585840, Note_on_c, 0, 69, 0
2, 585840, Note_on_c, 0, 74, 96
2, 585840, Note_on_c, 0, 70, 96
2, 585900, Note_on_c, 0, 74, 0
2, 585900, Note_on_c, 0, 77, 96
2, 585960, Note_on_c, 0, 77, 0
2, 585960, Note_on_c, 0, 76, 96
2, 586020, Note_on_c, 0, 76, 0
2, 586020, Note_on_c, 0, 76, 96
2, 586080, Note_on_c, 0, 76, 0
2, 586080, Note_on_c, 0, 70, 0
2, 586080, Note_on_c, 0, 76, 96
2, 586080, Note_on_c, 0, 69, 96
2, 586140, Note_on_c, 0, 76, 0
2, 586140, Note_on_c, 0, 79, 96
2, 586200, Note_on_c, 0, 79, 0
2, 586200, Note_on_c, 0, 77, 96
2, 586260, Note_on_c, 0, 77, 0
2, 586260, Note_on_c, 0, 76, 96
2, 586320, Note_on_c, 0, 76, 0
2, 586320, Note_on_c, 0, 69, 0
2, 586320, Note_on_c, 0, 81, 96
2, 586380, Note_on_c, 0, 81, 0
2, 586380, Note_on_c, 0, 74, 96
2, 586440, Note_on_c, 0, 74, 0
2, 586440, Note_on_c, 0, 79, 96
2, 586440, Note_on_c, 0, 67, 96
2, 586500, Note_on_c, 0, 79, 0
2, 586500, Note_on_c, 0, 79, 96
2, 586560, Note_on_c, 0, 79, 0
2, 586560, Note_on_c, 0, 67, 0
2, 586560, Note_on_c, 0, 79, 96
2, 586560, Note_on_c, 0, 69, 96
2, 586620, Note_on_c, 0, 79, 0
2, 586620, Note_on_c, 0, 76, 96
2, 586680, Note_on_c, 0, 76, 0
2, 586680, Note_on_c, 0, 77, 96
2, 586740, Note_on_c, 0, 77, 0
2, 586740, Note_on_c, 0, 69, 0
2, 586740, Note_on_c, 0, 77, 96
2, 586740, Note_on_c, 0, 70, 96
2, 586800, Note_on_c, 0, 70, 0
2, 586800, Note_on_c, 0, 77, 0
2, 586800, Note_on_c, 0, 77, 96
2, 586800, Note_on_c, 0, 69, 96
2, 586860, Note_on_c, 0, 69, 0
2, 586860, Note_on_c, 0, 77, 0
2, 586860, Note_on_c, 0, 74, 96
2, 586860, Note_on_c, 0, 65, 96
2, 586920, Note_on_c, 0, 65, 0
2, 586920, Note_on_c, 0, 74, 0
2, 586920, Note_on_c, 0, 76, 96
2, 586920, Note_on_c, 0, 67, 96
2, 586980, Note_on_c, 0, 67, 0
2, 586980, Note_on_c, 0, 67, 96
2, 587040, Note_on_c, 0, 67, 0
2, 587040, Note_on_c, 0, 76, 0
2, 587040, Note_on_c, 0, 74, 96
2, 587040, Note_on_c, 0, 65, 96
2, 587160, Note_on_c, 0, 65, 0
2, 587160, Note_on_c, 0, 74, 0
2, 587160, Note_on_c, 0, 69, 96
2, 587160, Note_on_c, 0, 62, 96
2, 587280, Note_on_c, 0, 62, 0
2, 587280, Note_on_c, 0, 69, 0
2, 587280, Note_on_c, 0, 69, 96
2, 587400, Note_on_c, 0, 69, 0
2, 587400, Note_on_c, 0, 70, 96
2, 587400, Note_on_c, 0, 67, 96
2, 587520, Note_on_c, 0, 67, 0
2, 587580, Note_on_c, 0, 70, 0
2, 587580, Note_on_c, 0, 69, 96
2, 587640, Note_on_c, 0, 69, 0
2, 587640, Note_on_c, 0, 72, 96
2, 587640, Note_on_c, 0, 65, 96
2, 587700, Note_on_c, 0, 72, 0
2, 587700, Note_on_c, 0, 72, 96
2, 587760, Note_on_c, 0, 72, 0
2, 587760, Note_on_c, 0, 65, 0
2, 587760, Note_on_c, 0, 72, 96
2, 587760, Note_on_c, 0, 64, 96
2, 587820, Note_on_c, 0, 72, 0
2, 587820, Note_on_c, 0, 71, 96
2, 587880, Note_on_c, 0, 71, 0
2, 587880, Note_on_c, 0, 64, 0
2, 587880, Note_on_c, 0, 79, 96
2, 587880, Note_on_c, 0, 62, 96
2, 588000, Note_on_c, 0, 62, 0
2, 588060, Note_on_c, 0, 79, 0
2, 588060, Note_on_c, 0, 77, 96
2, 588120, Note_on_c, 0, 77, 0
2, 588120, Note_on_c, 0, 79, 96
2, 588120, Note_on_c, 0, 61, 96
2, 588180, Note_on_c, 0, 79, 0
2, 588180, Note_on_c, 0, 76, 96
2, 588240, Note_on_c, 0, 76, 0
2, 588240, Note_on_c, 0, 61, 0
2, 588240, Note_on_c, 0, 77, 96
2, 588240, Note_on_c, 0, 62, 96
2, 588360, Note_on_c, 0, 62, 0
2, 588360, Note_on_c, 0, 77, 0
2, 588360, Note_on_c, 0, 82, 96
2, 588360, Note_on_c, 0, 64, 96
2, 588480, Note_on_c, 0, 64, 0
2, 588480, Note_on_c, 0, 82, 0
2, 588480, Note_on_c, 0, 81, 96
2, 588540, Note_on_c, 0, 81, 0
2, 588540, Note_on_c, 0, 73, 96
2, 588600, Note_on_c, 0, 73, 0
2, 588600, Note_on_c, 0, 74, 96
2, 588600, Note_on_c, 0, 65, 96
2, 588660, Note_on_c, 0, 65, 0
2, 588660, Note_on_c, 0, 74, 0
2, 588660, Note_on_c, 0, 74, 96
2, 588660, Note_on_c, 0, 67, 96
2, 588720, Note_on_c, 0, 67, 0
2, 588720, Note_on_c, 0, 74, 0
2, 588720, Note_on_c, 0, 74, 96
2, 588720, Note_on_c, 0, 65, 96
2, 588780, Note_on_c, 0, 74, 0
2, 588780, Note_on_c, 0, 71, 96
2, 588840, Note_on_c, 0, 71, 0
2, 588840, Note_on_c, 0, 65, 0
2, 588840, Note_on_c, 0, 72, 96
2, 588840, Note_on_c, 0, 64, 96
2, 588900, Note_on_c, 0, 72, 0
2, 588900, Note_on_c, 0, 72, 96
2, 588960, Note_on_c, 0, 72, 0
2, 588960, Note_on_c, 0, 64, 0
2, 588960, Note_on_c, 0, 72, 96
2, 588960, Note_on_c, 0, 62, 96
2, 589020, Note_on_c, 0, 72, 0
2, 589020, Note_on_c, 0, 69, 96
2, 589080, Note_on_c, 0, 69, 0
2, 589080, Note_on_c, 0, 71, 96
2, 589140, Note_on_c, 0, 71, 0
2, 589140, Note_on_c, 0, 74, 96
2, 589200, Note_on_c, 0, 74, 0
2, 589200, Note_on_c, 0, 62, 0
2, 589200, Note_on_c, 0, 67, 96
2, 589200, Note_on_c, 0, 61, 96
2, 589260, Note_on_c, 0, 67, 0
2, 589260, Note_on_c, 0, 70, 96
2, 589320, Note_on_c, 0, 70, 0
2, 589320, Note_on_c, 0, 61, 0
2, 589320, Note_on_c, 0, 72, 96
2, 589320, Note_on_c, 0, 60, 96
2, 589380, Note_on_c, 0, 72, 0
2, 589380, Note_on_c, 0, 66, 96
2, 589440, Note_on_c, 0, 66, 0
2, 589440, Note_on_c, 0, 60, 0
2, 589440, Note_on_c, 0, 65, 96
2, 589440, Note_on_c, 0, 62, 96
2, 589500, Note_on_c, 0, 62, 0
2, 589500, Note_on_c, 0, 70, 96
2, 589560, Note_on_c, 0, 65, 0
2, 589560, Note_on_c, 0, 74, 96
2, 589620, Note_on_c, 0, 70, 0
2, 589620, Note_on_c, 0, 69, 96
2, 589680, Note_on_c, 0, 74, 0
2, 589680, Note_on_c, 0, 81, 96
2, 589740, Note_on_c, 0, 69, 0
2, 589740, Note_on_c, 0, 72, 96
2, 589800, Note_on_c, 0, 72, 0
2, 589800, Note_on_c, 0, 81, 0
2, 589800, Note_on_c, 0, 79, 96
2, 589800, Note_on_c, 0, 76, 96
2, 589860, Note_on_c, 0, 76, 0
2, 589860, Note_on_c, 0, 70, 96
2, 589920, Note_on_c, 0, 70, 0
2, 589920, Note_on_c, 0, 79, 0
2, 589920, Note_on_c, 0, 69, 96
2, 589980, Note_on_c, 0, 69, 0
2, 589980, Note_on_c, 0, 74, 96
2, 590040, Note_on_c, 0, 74, 0
2, 590040, Note_on_c, 0, 77, 96
2, 590040, Note_on_c, 0, 73, 96
2, 590100, Note_on_c, 0, 73, 0
2, 590100, Note_on_c, 0, 72, 96
2, 590160, Note_on_c, 0, 72, 0
2, 590160, Note_on_c, 0, 77, 0
2, 590160, Note_on_c, 0, 76, 96
2, 590160, Note_on_c, 0, 71, 96
2, 590220, Note_on_c, 0, 71, 0
2, 590220, Note_on_c, 0, 70, 96
2, 590280, Note_on_c, 0, 70, 0
2, 590280, Note_on_c, 0, 76, 0
2, 590280, Note_on_c, 0, 74, 96
2, 590280, Note_on_c, 0, 69, 96
2, 590340, Note_on_c, 0, 69, 0
2, 590340, Note_on_c, 0, 68, 96
2, 590400, Note_on_c, 0, 68, 0
2, 590400, Note_on_c, 0, 74, 0
2, 590400, Note_on_c, 0, 69, 96
2, 590460, Note_on_c, 0, 69, 0
2, 590460, Note_on_c, 0, 70, 96
2, 590520, Note_on_c, 0, 70, 0
2, 590520, Note_on_c, 0, 73, 96
2, 590520, Note_on_c, 0, 67, 96
2, 590580, Note_on_c, 0, 67, 0
2, 590580, Note_on_c, 0, 69, 96
2, 590640, Note_on_c, 0, 69, 0
2, 590640, Note_on_c, 0, 73, 0
2, 590640, Note_on_c, 0, 74, 96
2, 590640, Note_on_c, 0, 65, 96
2, 590760, Note_on_c, 0, 65, 0
2, 590760, Note_on_c, 0, 74, 0
2, 590760, Note_on_c, 0, 76, 96
2, 590760, Note_on_c, 0, 70, 96
2, 590880, Note_on_c, 0, 70, 0
2, 590880, Note_on_c, 0, 76, 0
2, 590880, Note_on_c, 0, 61, 96
2, 591000, Note_on_c, 0, 61, 0
2, 591000, Note_on_c, 0, 77, 96
2, 591000, Note_on_c, 0, 69, 96
2, 591060, Note_on_c, 0, 69, 0
2, 591060, Note_on_c, 0, 77, 0
2, 591060, Note_on_c, 0, 79, 96
2, 591060, Note_on_c, 0, 70, 96
2, 591120, Note_on_c, 0, 70, 0
2, 591120, Note_on_c, 0, 79, 0
2, 591120, Note_on_c, 0, 77, 96
2, 591120, Note_on_c, 0, 69, 96
2, 591240, Note_on_c, 0, 69, 0
2, 591240, Note_on_c, 0, 77, 0
2, 591240, Note_on_c, 0, 76, 96
2, 591240, Note_on_c, 0, 67, 96
2, 591360, Note_on_c, 0, 67, 0
2, 591360, Note_on_c, 0, 76, 0
2, 591360, Note_on_c, 0, 74, 96
2, 591360, Note_on_c, 0, 66, 96
2, 591840, Note_on_c, 0, 66, 0
2, 591840, Note_on_c, 0, 74, 0
2, 592320, Control_c, 0, 91, 64
2, 592320, Control_c, 0, 93, 0
2, 592320, Control_c, 0, 91, 64
2, 592320, Control_c, 0, 93, 0
2, 598800, Note_on_c, 0, 62, 100
2, 599040, Note_on_c, 0, 62, 0
2, 599040, Note_on_c, 0, 69, 100
2, 599520, Note_on_c, 0, 69, 0
2, 599520, Note_on_c, 0, 65, 100
2, 599760, Note_on_c, 0, 65, 0
2, 599760, Note_on_c, 0, 62, 100
2, 600240, Note_on_c, 0, 62, 0
2, 600240, Note_on_c, 0, 61, 100
2, 600480, Note_on_c, 0, 61, 0
2, 600480, Note_on_c, 0, 62, 100
2, 600720, Note_on_c, 0, 62, 0
2, 600720, Note_on_c, 0, 64, 100
2, 600960, Note_on_c, 0, 64, 0
2, 600960, Note_on_c, 0, 65, 100
2, 601320, Note_on_c, 0, 65, 0
2, 601320, Note_on_c, 0, 67, 100
2, 601440, Note_on_c, 0, 67, 0
2, 601440, Note_on_c, 0, 65, 100
2, 601560, Note_on_c, 0, 65, 0
2, 601560, Note_on_c, 0, 64, 100
2, 601680, Note_on_c, 0, 64, 0
2, 601680, Note_on_c, 0, 69, 100
2, 601680, Note_on_c, 0, 62, 100
2, 601920, Note_on_c, 0, 62, 0
2, 601920, Note_on_c, 0, 69, 0
2, 601920, Note_on_c, 0, 74, 100
2, 602040, Note_on_c, 0, 64, 100
2, 602160, Note_on_c, 0, 64, 0
2, 602160, Note_on_c, 0, 65, 100
2, 602280, Note_on_c, 0, 65, 0
2, 602280, Note_on_c, 0, 67, 100
2, 602400, Note_on_c, 0, 67, 0
2, 602400, Note_on_c, 0, 74, 0
2, 602400, Note_on_c, 0, 72, 100
2, 602400, Note_on_c, 0, 69, 100
2, 602640, Note_on_c, 0, 69, 0
2, 602640, Note_on_c, 0, 72, 0
2, 602640, Note_on_c, 0, 69, 100
2, 602760, Note_on_c, 0, 71, 100
2, 602880, Note_on_c, 0, 71, 0
2, 602880, Note_on_c, 0, 72, 100
2, 603000, Note_on_c, 0, 72, 0
2, 603000, Note_on_c, 0, 74, 100
2, 603120, Note_on_c, 0, 74, 0
2, 603120, Note_on_c, 0, 69, 0
2, 603120, Note_on_c, 0, 68, 100
2, 603120, Note_on_c, 0, 76, 100
2, 603240, Note_on_c, 0, 76, 0
2, 603240, Note_on_c, 0, 74, 100
2, 603360, Note_on_c, 0, 74, 0
2, 603360, Note_on_c, 0, 68, 0
2, 603360, Note_on_c, 0, 69, 100
2, 603360, Note_on_c, 0, 72, 100
2, 603480, Note_on_c, 0, 72, 0
2, 603480, Note_on_c, 0, 71, 100
2, 603600, Note_on_c, 0, 71, 0
2, 603600, Note_on_c, 0, 69, 0
2, 603600, Note_on_c, 0, 71, 100
2, 603600, Note_on_c, 0, 69, 100
2, 603720, Note_on_c, 0, 69, 0
2, 603720, Note_on_c, 0, 68, 100
2, 603840, Note_on_c, 0, 68, 0
2, 603840, Note_on_c, 0, 71, 0
2, 603840, Note_on_c, 0, 72, 100
2, 603840, Note_on_c, 0, 69, 100
2, 604200, Note_on_c, 0, 69, 0
2, 604200, Note_on_c, 0, 72, 0
2, 604200, Note_on_c, 0, 74, 100
2, 604200, Note_on_c, 0, 70, 100
2, 604320, Note_on_c, 0, 70, 0
2, 604320, Note_on_c, 0, 74, 0
2, 604320, Note_on_c, 0, 72, 100
2, 604320, Note_on_c, 0, 69, 100
2, 604440, Note_on_c, 0, 69, 0
2, 604440, Note_on_c, 0, 72, 0
2, 604440, Note_on_c, 0, 70, 100
2, 604440, Note_on_c, 0, 67, 100
2, 604560, Note_on_c, 0, 67, 0
2, 604560, Note_on_c, 0, 70, 0
2, 604560, Note_on_c, 0, 69, 100
2, 604560, Note_on_c, 0, 65, 100
2, 604920, Note_on_c, 0, 65, 0
2, 604920, Note_on_c, 0, 69, 0
2, 604920, Note_on_c, 0, 70, 100
2, 604920, Note_on_c, 0, 67, 100
2, 605040, Note_on_c, 0, 67, 0
2, 605040, Note_on_c, 0, 70, 0
2, 605040, Note_on_c, 0, 69, 100
2, 605040, Note_on_c, 0, 65, 100
2, 605160, Note_on_c, 0, 65, 0
2, 605160, Note_on_c, 0, 69, 0
2, 605160, Note_on_c, 0, 67, 100
2, 605160, Note_on_c, 0, 64, 100
2, 605280, Note_on_c, 0, 64, 0
2, 605280, Note_on_c, 0, 67, 0
2, 605280, Note_on_c, 0, 65, 100
2, 605280, Note_on_c, 0, 62, 100
2, 605640, Note_on_c, 0, 62, 0
2, 605640, Note_on_c, 0, 65, 0
2, 605640, Note_on_c, 0, 67, 100
2, 605640, Note_on_c, 0, 64, 100
2, 605760, Note_on_c, 0, 64, 0
2, 605760, Note_on_c, 0, 67, 0
2, 605760, Note_on_c, 0, 65, 100
2, 605760, Note_on_c, 0, 62, 100
2, 605880, Note_on_c, 0, 62, 0
2, 605880, Note_on_c, 0, 65, 0
2, 605880, Note_on_c, 0, 64, 100
2, 605880, Note_on_c, 0, 61, 100
2, 606000, Note_on_c, 0, 61, 0
2, 606000, Note_on_c, 0, 64, 0
2, 606000, Note_on_c, 0, 65, 100
2, 606000, Note_on_c, 0, 62, 100
2, 606120, Note_on_c, 0, 62, 0
2, 606120, Note_on_c, 0, 65, 0
2, 606120, Note_on_c, 0, 67, 100
2, 606120, Note_on_c, 0, 64, 100
2, 606240, Note_on_c, 0, 64, 0
2, 606240, Note_on_c, 0, 67, 0
2, 606240, Note_on_c, 0, 69, 100
2, 606240, Note_on_c, 0, 65, 100
2, 606600, Note_on_c, 0, 65, 0
2, 606600, Note_on_c, 0, 69, 0
2, 606600, Note_on_c, 0, 71, 100
2, 606600, Note_on_c, 0, 67, 100
2, 606660, Note_on_c, 0, 67, 0
2, 606660, Note_on_c, 0, 71, 0
2, 606660, Note_on_c, 0, 73, 100
2, 606660, Note_on_c, 0, 64, 100
2, 606720, Note_on_c, 0, 64, 0
2, 606720, Note_on_c, 0, 73, 0
2, 606720, Note_on_c, 0, 74, 100
2, 606720, Note_on_c, 0, 65, 100
2, 606780, Note_on_c, 0, 74, 0
2, 606780, Note_on_c, 0, 76, 100
2, 606840, Note_on_c, 0, 76, 0
2, 606840, Note_on_c, 0, 65, 0
2, 606840, Note_on_c, 0, 77, 100
2, 606840, Note_on_c, 0, 69, 100
2, 606900, Note_on_c, 0, 77, 0
2, 606900, Note_on_c, 0, 79, 100
2, 606960, Note_on_c, 0, 79, 0
2, 606960, Note_on_c, 0, 69, 0
2, 606960, Note_on_c, 0, 81, 100
2, 606960, Note_on_c, 0, 62, 100
2, 607080, Note_on_c, 0, 62, 0
2, 607080, Note_on_c, 0, 57, 100
2, 607140, Note_on_c, 0, 57, 0
2, 607140, Note_on_c, 0, 59, 100
2, 607200, Note_on_c, 0, 59, 0
2, 607200, Note_on_c, 0, 61, 100
2, 607260, Note_on_c, 0, 81, 0
2, 607260, Note_on_c, 0, 82, 100
2, 607320, Note_on_c, 0, 82, 0
2, 607320, Note_on_c, 0, 61, 0
2, 607320, Note_on_c, 0, 81, 100
2, 607320, Note_on_c, 0, 62, 100
2, 607380, Note_on_c, 0, 62, 0
2, 607380, Note_on_c, 0, 81, 0
2, 607380, Note_on_c, 0, 79, 100
2, 607380, Note_on_c, 0, 64, 100
2, 607440, Note_on_c, 0, 64, 0
2, 607440, Note_on_c, 0, 79, 0
2, 607440, Note_on_c, 0, 77, 100
2, 607440, Note_on_c, 0, 62, 100
2, 607560, Note_on_c, 0, 62, 0
2, 607560, Note_on_c, 0, 77, 0
2, 607560, Note_on_c, 0, 76, 100
2, 607560, Note_on_c, 0, 61, 100
2, 607680, Note_on_c, 0, 61, 0
2, 607680, Note_on_c, 0, 76, 0
2, 607680, Note_on_c, 0, 74, 100
2, 607680, Note_on_c, 0, 62, 100
2, 607740, Note_on_c, 0, 62, 0
2, 607740, Note_on_c, 0, 64, 100
2, 607800, Note_on_c, 0, 64, 0
2, 607800, Note_on_c, 0, 65, 100
2, 607860, Note_on_c, 0, 65, 0
2, 607860, Note_on_c, 0, 67, 100
2, 607920, Note_on_c, 0, 67, 0
2, 607920, Note_on_c, 0, 69, 100
2, 608040, Note_on_c, 0, 74, 0
2, 608040, Note_on_c, 0, 73, 100
2, 608100, Note_on_c, 0, 73, 0
2, 608100, Note_on_c, 0, 71, 100
2, 608160, Note_on_c, 0, 71, 0
2, 608160, Note_on_c, 0, 73, 100
2, 608400, Note_on_c, 0, 73, 0
2, 608400, Note_on_c, 0, 74, 100
2, 608520, Note_on_c, 0, 69, 0
2, 608520, Note_on_c, 0, 70, 100
2, 608580, Note_on_c, 0, 70, 0
2, 608580, Note_on_c, 0, 72, 100
2, 608640, Note_on_c, 0, 72, 0
2, 608640, Note_on_c, 0, 72, 100
2, 608670, Note_on_c, 0, 72, 0
2, 608670, Note_on_c, 0, 70, 100
2, 608700, Note_on_c, 0, 70, 0
2, 608700, Note_on_c, 0, 72, 100
2, 608730, Note_on_c, 0, 72, 0
2, 608730, Note_on_c, 0, 70, 100
2, 608760, Note_on_c, 0, 70, 0
2, 608760, Note_on_c, 0, 74, 0
2, 608760, Note_on_c, 0, 76, 100
2, 608760, Note_on_c, 0, 72, 100
2, 608790, Note_on_c, 0, 72, 0
2, 608790, Note_on_c, 0, 70, 100
2, 608820, Note_on_c, 0, 70, 0
2, 608820, Note_on_c, 0, 72, 100
2, 608850, Note_on_c, 0, 72, 0
2, 608850, Note_on_c, 0, 70, 100
2, 608880, Note_on_c, 0, 70, 0
2, 608880, Note_on_c, 0, 76, 0
2, 608880, Note_on_c, 0, 77, 100
2, 608880, Note_on_c, 0, 69, 100
2, 609000, Note_on_c, 0, 69, 0
2, 609000, Note_on_c, 0, 62, 100
2, 609240, Note_on_c, 0, 62, 0
2, 609240, Note_on_c, 0, 77, 0
2, 609240, Note_on_c, 0, 79, 100
2, 609240, Note_on_c, 0, 63, 100
2, 609360, Note_on_c, 0, 63, 0
2, 609360, Note_on_c, 0, 79, 0
2, 609360, Note_on_c, 0, 77, 100
2, 609360, Note_on_c, 0, 62, 100
2, 609480, Note_on_c, 0, 62, 0
2, 609480, Note_on_c, 0, 77, 0
2, 609480, Note_on_c, 0, 75, 100
2, 609480, Note_on_c, 0, 60, 100
2, 609600, Note_on_c, 0, 60, 0
2, 609600, Note_on_c, 0, 75, 0
2, 609600, Note_on_c, 0, 74, 100
2, 609600, Note_on_c, 0, 58, 100
2, 609780, Note_on_c, 0, 58, 0
2, 609780, Note_on_c, 0, 60, 100
2, 609810, Note_on_c, 0, 60, 0
2, 609810, Note_on_c, 0, 58, 100
2, 609840, Note_on_c, 0, 58, 0
2, 609840, Note_on_c, 0, 57, 100
2, 610080, Note_on_c, 0, 57, 0
2, 610080, Note_on_c, 0, 74, 0
2, 610140, Note_on_c, 0, 74, 100
2, 610200, Note_on_c, 0, 74, 0
2, 610200, Note_on_c, 0, 76, 100
2, 610260, Note_on_c, 0, 76, 0
2, 610260, Note_on_c, 0, 78, 100
2, 610320, Note_on_c, 0, 78, 0
2, 610320, Note_on_c, 0, 79, 100
2, 610320, Note_on_c, 0, 67, 100
2, 610380, Note_on_c, 0, 67, 0
2, 610380, Note_on_c, 0, 79, 0
2, 610380, Note_on_c, 0, 78, 100
2, 610380, Note_on_c, 0, 69, 100
2, 610440, Note_on_c, 0, 69, 0
2, 610440, Note_on_c, 0, 78, 0
2, 610440, Note_on_c, 0, 79, 100
2, 610440, Note_on_c, 0, 70, 100
2, 610500, Note_on_c, 0, 70, 0
2, 610500, Note_on_c, 0, 79, 0
2, 610500, Note_on_c, 0, 81, 100
2, 610500, Note_on_c, 0, 72, 100
2, 610560, Note_on_c, 0, 72, 0
2, 610560, Note_on_c, 0, 81, 0
2, 610560, Note_on_c, 0, 82, 100
2, 610560, Note_on_c, 0, 74, 100
2, 610680, Note_on_c, 0, 82, 0
2, 610860, Note_on_c, 0, 74, 0
2, 610860, Note_on_c, 0, 75, 100
2, 610920, Note_on_c, 0, 75, 0
2, 610920, Note_on_c, 0, 74, 100
2, 610980, Note_on_c, 0, 74, 0
2, 610980, Note_on_c, 0, 72, 100
2, 611040, Note_on_c, 0, 72, 0
2, 611040, Note_on_c, 0, 70, 100
2, 611160, Note_on_c, 0, 70, 0
2, 611160, Note_on_c, 0, 69, 100
2, 611280, Note_on_c, 0, 69, 0
2, 611280, Note_on_c, 0, 67, 100
2, 611520, Note_on_c, 0, 74, 100
2, 611640, Note_on_c, 0, 67, 0
2, 611640, Note_on_c, 0, 66, 100
2, 611700, Note_on_c, 0, 66, 0
2, 611700, Note_on_c, 0, 64, 100
2, 611760, Note_on_c, 0, 64, 0
2, 611760, Note_on_c, 0, 66, 100
2, 611880, Note_on_c, 0, 74, 0
2, 611880, Note_on_c, 0, 72, 100
2, 612000, Note_on_c, 0, 72, 0
2, 612000, Note_on_c, 0, 66, 0
2, 612000, Note_on_c, 0, 70, 100
2, 612000, Note_on_c, 0, 67, 100
2, 612120, Note_on_c, 0, 70, 0
2, 612120, Note_on_c, 0, 69, 100
2, 612240, Note_on_c, 0, 69, 0
2, 612240, Note_on_c, 0, 67, 100
2, 612360, Note_on_c, 0, 67, 0
2, 612360, Note_on_c, 0, 67, 0
2, 612360, Note_on_c, 0, 66, 100
2, 612360, Note_on_c, 0, 69, 100
2, 612480, Note_on_c, 0, 69, 0
2, 612480, Note_on_c, 0, 66, 0
2, 612480, Note_on_c, 0, 67, 100
2, 612480, Note_on_c, 0, 70, 100
2, 612600, Note_on_c, 0, 67, 0
2, 612600, Note_on_c, 0, 63, 100
2, 612720, Note_on_c, 0, 63, 0
2, 612720, Note_on_c, 0, 62, 100
2, 612840, Note_on_c, 0, 70, 0
2, 612840, Note_on_c, 0, 72, 100
2, 612960, Note_on_c, 0, 72, 0
2, 612960, Note_on_c, 0, 70, 100
2, 613080, Note_on_c, 0, 70, 0
2, 613080, Note_on_c, 0, 69, 100
2, 613200, Note_on_c, 0, 69, 0
2, 613200, Note_on_c, 0, 67, 100
2, 613320, Note_on_c, 0, 62, 0
2, 613320, Note_on_c, 0, 63, 100
2, 613380, Note_on_c, 0, 63, 0
2, 613380, Note_on_c, 0, 65, 100
2, 613440, Note_on_c, 0, 65, 0
2, 613440, Note_on_c, 0, 67, 100
2, 613560, Note_on_c, 0, 67, 0
2, 613560, Note_on_c, 0, 67, 0
2, 613560, Note_on_c, 0, 65, 100
2, 613560, Note_on_c, 0, 68, 100
2, 613680, Note_on_c, 0, 68, 0
2, 613680, Note_on_c, 0, 65, 0
2, 613680, Note_on_c, 0, 63, 100
2, 613680, Note_on_c, 0, 67, 100
2, 613800, Note_on_c, 0, 67, 0
2, 613800, Note_on_c, 0, 63, 0
2, 613800, Note_on_c, 0, 62, 100
2, 613800, Note_on_c, 0, 65, 100
2, 613920, Note_on_c, 0, 65, 0
2, 613920, Note_on_c, 0, 62, 0
2, 613920, Note_on_c, 0, 60, 100
2, 613920, Note_on_c, 0, 63, 100
2, 614220, Note_on_c, 0, 60, 0
2, 614220, Note_on_c, 0, 62, 100
2, 614280, Note_on_c, 0, 62, 0
2, 614280, Note_on_c, 0, 63, 0
2, 614280, Note_on_c, 0, 63, 100
2, 614280, Note_on_c, 0, 67, 100
2, 614340, Note_on_c, 0, 63, 0
2, 614340, Note_on_c, 0, 60, 100
2, 614400, Note_on_c, 0, 60, 0
2, 614400, Note_on_c, 0, 67, 0
2, 614400, Note_on_c, 0, 62, 100
2, 614400, Note_on_c, 0, 65, 100
2, 614460, Note_on_c, 0, 62, 0
2, 614460, Note_on_c, 0, 58, 100
2, 614520, Note_on_c, 0, 58, 0
2, 614520, Note_on_c, 0, 65, 0
2, 614520, Note_on_c, 0, 60, 100
2, 614520, Note_on_c, 0, 63, 100
2, 614580, Note_on_c, 0, 60, 0
2, 614580, Note_on_c, 0, 57, 100
2, 614640, Note_on_c, 0, 57, 0
2, 614640, Note_on_c, 0, 63, 0
2, 614640, Note_on_c, 0, 58, 100
2, 614640, Note_on_c, 0, 62, 100
2, 614940, Note_on_c, 0, 62, 0
2, 614940, Note_on_c, 0, 58, 0
2, 614940, Note_on_c, 0, 60, 100
2, 614940, Note_on_c, 0, 63, 100
2, 615000, Note_on_c, 0, 63, 0
2, 615000, Note_on_c, 0, 60, 0
2, 615000, Note_on_c, 0, 62, 100
2, 615000, Note_on_c, 0, 65, 100
2, 615060, Note_on_c, 0, 65, 0
2, 615060, Note_on_c, 0, 62, 0
2, 615060, Note_on_c, 0, 63, 100
2, 615060, Note_on_c, 0, 63, 100
2, 615120, Note_on_c, 0, 63, 0
2, 615120, Note_on_c, 0, 63, 0
2, 615120, Note_on_c, 0, 65, 100
2, 615120, Note_on_c, 0, 62, 100
2, 615180, Note_on_c, 0, 62, 0
2, 615180, Note_on_c, 0, 63, 100
2, 615240, Note_on_c, 0, 63, 0
2, 615240, Note_on_c, 0, 62, 100
2, 615300, Note_on_c, 0, 62, 0
2, 615300, Note_on_c, 0, 60, 100
2, 615360, Note_on_c, 0, 60, 0
2, 615360, Note_on_c, 0, 58, 100
2, 615480, Note_on_c, 0, 58, 0
2, 615480, Note_on_c, 0, 57, 100
2, 615540, Note_on_c, 0, 57, 0
2, 615540, Note_on_c, 0, 55, 100
2, 615600, Note_on_c, 0, 55, 0
2, 615600, Note_on_c, 0, 65, 0
2, 615600, Note_on_c, 0, 77, 100
2, 615600, Note_on_c, 0, 53, 100
2, 615660, Note_on_c, 0, 77, 0
2, 615660, Note_on_c, 0, 75, 100
2, 615720, Note_on_c, 0, 75, 0
2, 615720, Note_on_c, 0, 74, 100
2, 615780, Note_on_c, 0, 74, 0
2, 615780, Note_on_c, 0, 72, 100
2, 615840, Note_on_c, 0, 72, 0
2, 615840, Note_on_c, 0, 74, 100
2, 615900, Note_on_c, 0, 53, 0
2, 615900, Note_on_c, 0, 55, 100
2, 615960, Note_on_c, 0, 55, 0
2, 615960, Note_on_c, 0, 74, 0
2, 615960, Note_on_c, 0, 77, 100
2, 615960, Note_on_c, 0, 57, 100
2, 616020, Note_on_c, 0, 57, 0
2, 616020, Note_on_c, 0, 58, 100
2, 616080, Note_on_c, 0, 58, 0
2, 616080, Note_on_c, 0, 77, 0
2, 616080, Note_on_c, 0, 72, 100
2, 616080, Note_on_c, 0, 60, 100
2, 616140, Note_on_c, 0, 72, 0
2, 616140, Note_on_c, 0, 70, 100
2, 616200, Note_on_c, 0, 70, 0
2, 616200, Note_on_c, 0, 69, 100
2, 616260, Note_on_c, 0, 69, 0
2, 616260, Note_on_c, 0, 67, 100
2, 616320, Note_on_c, 0, 67, 0
2, 616320, Note_on_c, 0, 60, 0
2, 616320, Note_on_c, 0, 65, 100
2, 616320, Note_on_c, 0, 62, 100
2, 616380, Note_on_c, 0, 62, 0
2, 616380, Note_on_c, 0, 63, 100
2, 616440, Note_on_c, 0, 63, 0
2, 616440, Note_on_c, 0, 62, 100
2, 616500, Note_on_c, 0, 62, 0
2, 616500, Note_on_c, 0, 60, 100
2, 616560, Note_on_c, 0, 60, 0
2, 616560, Note_on_c, 0, 58, 100
2, 616620, Note_on_c, 0, 65, 0
2, 616620, Note_on_c, 0, 67, 100
2, 616680, Note_on_c, 0, 67, 0
2, 616680, Note_on_c, 0, 65, 100
2, 616740, Note_on_c, 0, 65, 0
2, 616740, Note_on_c, 0, 63, 100
2, 616800, Note_on_c, 0, 63, 0
2, 616800, Note_on_c, 0, 62, 100
2, 616860, Note_on_c, 0, 62, 0
2, 616860, Note_on_c, 0, 58, 0
2, 616860, Note_on_c, 0, 64, 100
2, 616860, Note_on_c, 0, 60, 100
2, 616920, Note_on_c, 0, 60, 0
2, 616920, Note_on_c, 0, 64, 0
2, 616920, Note_on_c, 0, 66, 100
2, 616920, Note_on_c, 0, 62, 100
2, 616980, Note_on_c, 0, 62, 0
2, 616980, Note_on_c, 0, 66, 0
2, 616980, Note_on_c, 0, 67, 100
2, 616980, Note_on_c, 0, 63, 100
2, 617040, Note_on_c, 0, 63, 0
2, 617040, Note_on_c, 0, 67, 0
2, 617040, Note_on_c, 0, 69, 100
2, 617040, Note_on_c, 0, 62, 100
2, 617160, Note_on_c, 0, 62, 0
2, 617160, Note_on_c, 0, 60, 100
2, 617220, Note_on_c, 0, 60, 0
2, 617220, Note_on_c, 0, 58, 100
2, 617280, Note_on_c, 0, 58, 0
2, 617280, Note_on_c, 0, 57, 100
2, 617400, Note_on_c, 0, 57, 0
2, 617400, Note_on_c, 0, 69, 100
2, 617520, Note_on_c, 0, 69, 0
2, 617520, Note_on_c, 0, 69, 0
2, 617520, Note_on_c, 0, 70, 100
2, 617520, Note_on_c, 0, 67, 100
2, 617580, Note_on_c, 0, 70, 0
2, 617580, Note_on_c, 0, 69, 100
2, 617640, Note_on_c, 0, 69, 0
2, 617640, Note_on_c, 0, 70, 100
2, 617700, Note_on_c, 0, 70, 0
2, 617700, Note_on_c, 0, 72, 100
2, 617760, Note_on_c, 0, 72, 0
2, 617760, Note_on_c, 0, 67, 0
2, 617760, Note_on_c, 0, 74, 100
2, 617760, Note_on_c, 0, 65, 100
2, 617820, Note_on_c, 0, 74, 0
2, 617820, Note_on_c, 0, 72, 100
2, 617880, Note_on_c, 0, 72, 0
2, 617880, Note_on_c, 0, 74, 100
2, 617940, Note_on_c, 0, 74, 0
2, 617940, Note_on_c, 0, 75, 100
2, 618000, Note_on_c, 0, 75, 0
2, 618000, Note_on_c, 0, 77, 100
2, 618060, Note_on_c, 0, 77, 0
2, 618060, Note_on_c, 0, 75, 100
2, 618120, Note_on_c, 0, 75, 0
2, 618120, Note_on_c, 0, 65, 0
2, 618120, Note_on_c, 0, 74, 100
2, 618120, Note_on_c, 0, 67, 100
2, 618180, Note_on_c, 0, 67, 0
2, 618180, Note_on_c, 0, 74, 0
2, 618180, Note_on_c, 0, 72, 100
2, 618180, Note_on_c, 0, 68, 100
2, 618240, Note_on_c, 0, 68, 0
2, 618240, Note_on_c, 0, 72, 0
2, 618240, Note_on_c, 0, 70, 100
2, 618240, Note_on_c, 0, 67, 100
2, 618300, Note_on_c, 0, 67, 0
2, 618300, Note_on_c, 0, 70, 0
2, 618300, Note_on_c, 0, 68, 100
2, 618300, Note_on_c, 0, 65, 100
2, 618360, Note_on_c, 0, 65, 0
2, 618360, Note_on_c, 0, 68, 0
2, 618360, Note_on_c, 0, 67, 100
2, 618360, Note_on_c, 0, 63, 100
2, 618420, Note_on_c, 0, 63, 0
2, 618420, Note_on_c, 0, 67, 0
2, 618420, Note_on_c, 0, 68, 100
2, 618420, Note_on_c, 0, 65, 100
2, 618480, Note_on_c, 0, 65, 0
2, 618480, Note_on_c, 0, 68, 0
2, 618480, Note_on_c, 0, 70, 100
2, 618480, Note_on_c, 0, 67, 100
2, 618540, Note_on_c, 0, 67, 0
2, 618540, Note_on_c, 0, 65, 100
2, 618600, Note_on_c, 0, 65, 0
2, 618600, Note_on_c, 0, 70, 0
2, 618600, Note_on_c, 0, 70, 100
2, 618600, Note_on_c, 0, 67, 100
2, 618660, Note_on_c, 0, 67, 0
2, 618660, Note_on_c, 0, 68, 100
2, 618720, Note_on_c, 0, 68, 0
2, 618720, Note_on_c, 0, 67, 100
2, 618840, Note_on_c, 0, 67, 0
2, 618840, Note_on_c, 0, 70, 0
2, 618840, Note_on_c, 0, 72, 100
2, 618840, Note_on_c, 0, 65, 100
2, 618900, Note_on_c, 0, 72, 0
2, 618900, Note_on_c, 0, 74, 100
2, 618960, Note_on_c, 0, 74, 0
2, 618960, Note_on_c, 0, 65, 0
2, 618960, Note_on_c, 0, 75, 100
2, 618960, Note_on_c, 0, 63, 100
2, 619200, Note_on_c, 0, 63, 0
2, 619260, Note_on_c, 0, 57, 100
2, 619320, Note_on_c, 0, 57, 0
2, 619320, Note_on_c, 0, 55, 100
2, 619380, Note_on_c, 0, 55, 0
2, 619380, Note_on_c, 0, 58, 100
2, 619440, Note_on_c, 0, 58, 0
2, 619440, Note_on_c, 0, 60, 100
2, 619500, Note_on_c, 0, 60, 0
2, 619500, Note_on_c, 0, 62, 100
2, 619560, Note_on_c, 0, 62, 0
2, 619560, Note_on_c, 0, 63, 100
2, 619620, Note_on_c, 0, 63, 0
2, 619620, Note_on_c, 0, 62, 100
2, 619680, Note_on_c, 0, 62, 0
2, 619680, Note_on_c, 0, 60, 100
2, 619800, Note_on_c, 0, 60, 0
2, 619800, Note_on_c, 0, 75, 0
2, 619800, Note_on_c, 0, 77, 100
2, 619800, Note_on_c, 0, 57, 100
2, 619860, Note_on_c, 0, 77, 0
2, 619860, Note_on_c, 0, 79, 100
2, 619920, Note_on_c, 0, 79, 0
2, 619920, Note_on_c, 0, 57, 0
2, 619920, Note_on_c, 0, 77, 100
2, 619920, Note_on_c, 0, 58, 100
2, 620040, Note_on_c, 0, 58, 0
2, 620040, Note_on_c, 0, 77, 0
2, 620040, Note_on_c, 0, 75, 100
2, 620040, Note_on_c, 0, 60, 100
2, 620160, Note_on_c, 0, 60, 0
2, 620160, Note_on_c, 0, 75, 0
2, 620160, Note_on_c, 0, 74, 100
2, 620160, Note_on_c, 0, 62, 100
2, 620280, Note_on_c, 0, 62, 0
2, 620280, Note_on_c, 0, 66, 100
2, 620400, Note_on_c, 0, 66, 0
2, 620400, Note_on_c, 0, 67, 100
2, 620460, Note_on_c, 0, 67, 0
2, 620460, Note_on_c, 0, 69, 100
2, 620520, Note_on_c, 0, 69, 0
2, 620520, Note_on_c, 0, 70, 100
2, 620580, Note_on_c, 0, 70, 0
2, 620580, Note_on_c, 0, 72, 100
2, 620640, Note_on_c, 0, 72, 0
2, 620640, Note_on_c, 0, 70, 100
2, 620700, Note_on_c, 0, 70, 0
2, 620700, Note_on_c, 0, 74, 100
2, 620760, Note_on_c, 0, 74, 0
2, 620760, Note_on_c, 0, 69, 100
2, 620820, Note_on_c, 0, 69, 0
2, 620820, Note_on_c, 0, 72, 100
2, 620880, Note_on_c, 0, 72, 0
2, 620880, Note_on_c, 0, 70, 100
2, 621000, Note_on_c, 0, 70, 0
2, 621000, Note_on_c, 0, 74, 0
2, 621000, Note_on_c, 0, 76, 100
2, 621000, Note_on_c, 0, 67, 100
2, 621060, Note_on_c, 0, 76, 0
2, 621060, Note_on_c, 0, 77, 100
2, 621120, Note_on_c, 0, 77, 0
2, 621120, Note_on_c, 0, 67, 0
2, 621120, Note_on_c, 0, 76, 100
2, 621120, Note_on_c, 0, 69, 100
2, 621180, Note_on_c, 0, 76, 0
2, 621180, Note_on_c, 0, 74, 100
2, 621240, Note_on_c, 0, 74, 0
2, 621240, Note_on_c, 0, 69, 0
2, 621240, Note_on_c, 0, 73, 100
2, 621240, Note_on_c, 0, 70, 100
2, 621300, Note_on_c, 0, 73, 0
2, 621300, Note_on_c, 0, 74, 100
2, 621360, Note_on_c, 0, 74, 0
2, 621360, Note_on_c, 0, 70, 0
2, 621360, Note_on_c, 0, 73, 100
2, 621360, Note_on_c, 0, 69, 100
2, 621480, Note_on_c, 0, 69, 0
2, 621480, Note_on_c, 0, 73, 0
2, 621480, Note_on_c, 0, 74, 100
2, 621480, Note_on_c, 0, 65, 100
2, 621600, Note_on_c, 0, 65, 0
2, 621600, Note_on_c, 0, 74, 0
2, 621600, Note_on_c, 0, 76, 100
2, 621600, Note_on_c, 0, 61, 100
2, 621660, Note_on_c, 0, 61, 0
2, 621660, Note_on_c, 0, 62, 100
2, 621720, Note_on_c, 0, 62, 0
2, 621720, Note_on_c, 0, 64, 100
2, 621780, Note_on_c, 0, 64, 0
2, 621780, Note_on_c, 0, 61, 100
2, 621840, Note_on_c, 0, 61, 0
2, 621840, Note_on_c, 0, 76, 0
2, 621840, Note_on_c, 0, 69, 100
2, 621840, Note_on_c, 0, 62, 100
2, 621960, Note_on_c, 0, 69, 0
2, 621960, Note_on_c, 0, 81, 100
2, 622140, Note_on_c, 0, 62, 0
2, 622140, Note_on_c, 0, 65, 100
2, 622200, Note_on_c, 0, 65, 0
2, 622200, Note_on_c, 0, 81, 0
2, 622200, Note_on_c, 0, 79, 100
2, 622200, Note_on_c, 0, 64, 100
2, 622260, Note_on_c, 0, 64, 0
2, 622260, Note_on_c, 0, 79, 0
2, 622260, Note_on_c, 0, 77, 100
2, 622260, Note_on_c, 0, 62, 100
2, 622320, Note_on_c, 0, 62, 0
2, 622320, Note_on_c, 0, 77, 0
2, 622320, Note_on_c, 0, 76, 100
2, 622320, Note_on_c, 0, 61, 100
2, 622380, Note_on_c, 0, 76, 0
2, 622380, Note_on_c, 0, 79, 100
2, 622440, Note_on_c, 0, 79, 0
2, 622440, Note_on_c, 0, 77, 100
2, 622500, Note_on_c, 0, 77, 0
2, 622500, Note_on_c, 0, 76, 100
2, 622560, Note_on_c, 0, 76, 0
2, 622560, Note_on_c, 0, 61, 0
2, 622560, Note_on_c, 0, 74, 100
2, 622560, Note_on_c, 0, 62, 100
2, 622620, Note_on_c, 0, 74, 0
2, 622620, Note_on_c, 0, 73, 100
2, 622680, Note_on_c, 0, 73, 0
2, 622680, Note_on_c, 0, 74, 100
2, 622740, Note_on_c, 0, 74, 0
2, 622740, Note_on_c, 0, 76, 100
2, 622800, Note_on_c, 0, 76, 0
2, 622800, Note_on_c, 0, 77, 100
2, 622860, Note_on_c, 0, 62, 0
2, 622860, Note_on_c, 0, 64, 100
2, 622920, Note_on_c, 0, 64, 0
2, 622920, Note_on_c, 0, 65, 100
2, 622980, Note_on_c, 0, 65, 0
2, 622980, Note_on_c, 0, 67, 100
2, 623040, Note_on_c, 0, 67, 0
2, 623040, Note_on_c, 0, 69, 100
2, 623100, Note_on_c, 0, 77, 0
2, 623100, Note_on_c, 0, 76, 100
2, 623160, Note_on_c, 0, 76, 0
2, 623160, Note_on_c, 0, 77, 100
2, 623220, Note_on_c, 0, 77, 0
2, 623220, Note_on_c, 0, 79, 100
2, 623280, Note_on_c, 0, 79, 0
2, 623280, Note_on_c, 0, 81, 100
2, 623340, Note_on_c, 0, 81, 0
2, 623340, Note_on_c, 0, 79, 100
2, 623400, Note_on_c, 0, 79, 0
2, 623400, Note_on_c, 0, 69, 0
2, 623400, Note_on_c, 0, 81, 100
2, 623400, Note_on_c, 0, 64, 100
2, 623460, Note_on_c, 0, 81, 0
2, 623460, Note_on_c, 0, 82, 100
2, 623520, Note_on_c, 0, 82, 0
2, 623520, Note_on_c, 0, 64, 0
2, 623520, Note_on_c, 0, 81, 100
2, 623520, Note_on_c, 0, 65, 100
2, 623580, Note_on_c, 0, 81, 0
2, 623580, Note_on_c, 0, 79, 100
2, 623640, Note_on_c, 0, 79, 0
2, 623640, Note_on_c, 0, 65, 0
2, 623640, Note_on_c, 0, 77, 100
2, 623640, Note_on_c, 0, 69, 100
2, 623700, Note_on_c, 0, 77, 0
2, 623700, Note_on_c, 0, 76, 100
2, 623760, Note_on_c, 0, 76, 0
2, 623760, Note_on_c, 0, 69, 0
2, 623760, Note_on_c, 0, 74, 100
2, 623760, Note_on_c, 0, 70, 100
2, 623940, Note_on_c, 0, 70, 0
2, 623940, Note_on_c, 0, 69, 100
2, 623970, Note_on_c, 0, 69, 0
2, 623970, Note_on_c, 0, 67, 100
2, 624000, Note_on_c, 0, 67, 0
2, 624000, Note_on_c, 0, 65, 100
2, 624060, Note_on_c, 0, 65, 0
2, 624060, Note_on_c, 0, 74, 0
2, 624060, Note_on_c, 0, 73, 100
2, 624060, Note_on_c, 0, 64, 100
2, 624120, Note_on_c, 0, 64, 0
2, 624120, Note_on_c, 0, 73, 0
2, 624120, Note_on_c, 0, 74, 100
2, 624120, Note_on_c, 0, 65, 100
2, 624180, Note_on_c, 0, 65, 0
2, 624180, Note_on_c, 0, 74, 0
2, 624180, Note_on_c, 0, 76, 100
2, 624180, Note_on_c, 0, 67, 100
2, 624240, Note_on_c, 0, 67, 0
2, 624240, Note_on_c, 0, 76, 0
2, 624240, Note_on_c, 0, 74, 100
2, 624240, Note_on_c, 0, 65, 100
2, 624300, Note_on_c, 0, 65, 0
2, 624300, Note_on_c, 0, 74, 0
2, 624300, Note_on_c, 0, 72, 100
2, 624300, Note_on_c, 0, 64, 100
2, 624360, Note_on_c, 0, 64, 0
2, 624360, Note_on_c, 0, 72, 0
2, 624360, Note_on_c, 0, 70, 100
2, 624360, Note_on_c, 0, 62, 100
2, 624420, Note_on_c, 0, 70, 0
2, 624420, Note_on_c, 0, 69, 100
2, 624480, Note_on_c, 0, 69, 0
2, 624480, Note_on_c, 0, 71, 100
2, 624540, Note_on_c, 0, 71, 0
2, 624540, Note_on_c, 0, 73, 100
2, 624600, Note_on_c, 0, 73, 0
2, 624600, Note_on_c, 0, 62, 0
2, 624600, Note_on_c, 0, 74, 100
2, 624600, Note_on_c, 0, 61, 100
2, 624660, Note_on_c, 0, 74, 0
2, 624660, Note_on_c, 0, 76, 100
2, 624720, Note_on_c, 0, 76, 0
2, 624720, Note_on_c, 0, 61, 0
2, 624720, Note_on_c, 0, 77, 100
2, 624720, Note_on_c, 0, 62, 100
2, 624780, Note_on_c, 0, 77, 0
2, 624780, Note_on_c, 0, 76, 100
2, 624840, Note_on_c, 0, 76, 0
2, 624840, Note_on_c, 0, 62, 0
2, 624840, Note_on_c, 0, 77, 100
2, 624840, Note_on_c, 0, 57, 100
2, 624900, Note_on_c, 0, 77, 0
2, 624900, Note_on_c, 0, 79, 100
2, 624960, Note_on_c, 0, 79, 0
2, 624960, Note_on_c, 0, 57, 0
2, 624960, Note_on_c, 0, 77, 100
2, 624960, Note_on_c, 0, 62, 100
2, 625020, Note_on_c, 0, 62, 0
2, 625020, Note_on_c, 0, 77, 0
2, 625020, Note_on_c, 0, 76, 100
2, 625020, Note_on_c, 0, 64, 100
2, 625080, Note_on_c, 0, 64, 0
2, 625080, Note_on_c, 0, 76, 0
2, 625080, Note_on_c, 0, 74, 100
2, 625080, Note_on_c, 0, 65, 100
2, 625140, Note_on_c, 0, 74, 0
2, 625140, Note_on_c, 0, 73, 100
2, 625200, Note_on_c, 0, 73, 0
2, 625200, Note_on_c, 0, 74, 100
2, 625260, Note_on_c, 0, 74, 0
2, 625260, Note_on_c, 0, 65, 0
2, 625260, Note_on_c, 0, 76, 100
2, 625260, Note_on_c, 0, 67, 100
2, 625320, Note_on_c, 0, 67, 0
2, 625320, Note_on_c, 0, 76, 0
2, 625320, Note_on_c, 0, 77, 100
2, 625320, Note_on_c, 0, 69, 100
2, 625380, Note_on_c, 0, 69, 0
2, 625380, Note_on_c, 0, 77, 0
2, 625380, Note_on_c, 0, 74, 100
2, 625380, Note_on_c, 0, 65, 100
2, 625440, Note_on_c, 0, 65, 0
2, 625440, Note_on_c, 0, 74, 0
2, 625440, Note_on_c, 0, 70, 100
2, 625440, Note_on_c, 0, 62, 100
2, 625500, Note_on_c, 0, 70, 0
2, 625500, Note_on_c, 0, 69, 100
2, 625560, Note_on_c, 0, 69, 0
2, 625560, Note_on_c, 0, 70, 100
2, 625620, Note_on_c, 0, 70, 0
2, 625620, Note_on_c, 0, 72, 100
2, 625680, Note_on_c, 0, 72, 0
2, 625680, Note_on_c, 0, 62, 0
2, 625680, Note_on_c, 0, 70, 100
2, 625800, Note_on_c, 0, 70, 0
2, 625800, Note_on_c, 0, 74, 100
2, 625920, Note_on_c, 0, 74, 0
2, 625920, Note_on_c, 0, 70, 100
2, 626040, Note_on_c, 0, 70, 0
2, 626040, Note_on_c, 0, 74, 100
2, 626040, Note_on_c, 0, 62, 100
2, 626160, Note_on_c, 0, 62, 0
2, 626160, Note_on_c, 0, 74, 0
2, 626160, Note_on_c, 0, 79, 100
2, 626160, Note_on_c, 0, 64, 100
2, 626220, Note_on_c, 0, 79, 0
2, 626220, Note_on_c, 0, 77, 100
2, 626280, Note_on_c, 0, 77, 0
2, 626280, Note_on_c, 0, 64, 0
2, 626280, Note_on_c, 0, 79, 100
2, 626280, Note_on_c, 0, 61, 100
2, 626340, Note_on_c, 0, 79, 0
2, 626340, Note_on_c, 0, 81, 100
2, 626400, Note_on_c, 0, 81, 0
2, 626400, Note_on_c, 0, 61, 0
2, 626400, Note_on_c, 0, 79, 100
2, 626400, Note_on_c, 0, 64, 100
2, 626460, Note_on_c, 0, 79, 0
2, 626460, Note_on_c, 0, 77, 100
2, 626520, Note_on_c, 0, 77, 0
2, 626520, Note_on_c, 0, 64, 0
2, 626520, Note_on_c, 0, 76, 100
2, 626520, Note_on_c, 0, 67, 100
2, 626700, Note_on_c, 0, 67, 0
2, 626700, Note_on_c, 0, 76, 0
2, 626700, Note_on_c, 0, 77, 100
2, 626700, Note_on_c, 0, 69, 100
2, 626760, Note_on_c, 0, 69, 0
2, 626760, Note_on_c, 0, 77, 0
2, 626760, Note_on_c, 0, 76, 100
2, 626760, Note_on_c, 0, 67, 100
2, 626820, Note_on_c, 0, 67, 0
2, 626820, Note_on_c, 0, 76, 0
2, 626820, Note_on_c, 0, 74, 100
2, 626820, Note_on_c, 0, 65, 100
2, 626880, Note_on_c, 0, 65, 0
2, 626880, Note_on_c, 0, 74, 0
2, 626880, Note_on_c, 0, 73, 100
2, 626880, Note_on_c, 0, 64, 100
2, 626940, Note_on_c, 0, 73, 0
2, 626940, Note_on_c, 0, 71, 100
2, 627000, Note_on_c, 0, 71, 0
2, 627000, Note_on_c, 0, 64, 0
2, 627000, Note_on_c, 0, 73, 100
2, 627000, Note_on_c, 0, 69, 100
2, 627060, Note_on_c, 0, 73, 0
2, 627060, Note_on_c, 0, 74, 100
2, 627120, Note_on_c, 0, 74, 0
2, 627120, Note_on_c, 0, 69, 0
2, 627120, Note_on_c, 0, 73, 100
2, 627180, Note_on_c, 0, 73, 0
2, 627180, Note_on_c, 0, 76, 100
2, 627240, Note_on_c, 0, 76, 0
2, 627240, Note_on_c, 0, 64, 100
2, 627420, Note_on_c, 0, 64, 0
2, 627420, Note_on_c, 0, 65, 100
2, 627480, Note_on_c, 0, 65, 0
2, 627480, Note_on_c, 0, 67, 100
2, 627540, Note_on_c, 0, 67, 0
2, 627540, Note_on_c, 0, 69, 100
2, 627570, Note_on_c, 0, 69, 0
2, 627570, Note_on_c, 0, 70, 100
2, 627600, Note_on_c, 0, 70, 0
2, 627600, Note_on_c, 0, 69, 100
2, 627600, Note_on_c, 0, 62, 100
2, 627660, Note_on_c, 0, 62, 0
2, 627660, Note_on_c, 0, 64, 100
2, 627720, Note_on_c, 0, 64, 0
2, 627720, Note_on_c, 0, 65, 100
2, 627780, Note_on_c, 0, 65, 0
2, 627780, Note_on_c, 0, 67, 100
2, 627840, Note_on_c, 0, 67, 0
2, 627840, Note_on_c, 0, 69, 100
2, 628200, Note_on_c, 0, 69, 0
2, 628200, Note_on_c, 0, 67, 100
2, 628320, Note_on_c, 0, 67, 0
2, 628320, Note_on_c, 0, 65, 100
2, 628440, Note_on_c, 0, 65, 0
2, 628440, Note_on_c, 0, 64, 100
2, 628560, Note_on_c, 0, 64, 0
2, 628560, Note_on_c, 0, 62, 100
2, 628920, Note_on_c, 0, 62, 0
2, 628920, Note_on_c, 0, 61, 100
2, 628980, Note_on_c, 0, 61, 0
2, 628980, Note_on_c, 0, 59, 100
2, 629040, Note_on_c, 0, 59, 0
2, 629040, Note_on_c, 0, 61, 100
2, 629280, Note_on_c, 0, 61, 0
2, 629280, Note_on_c, 0, 62, 100
2, 629640, Note_on_c, 0, 62, 0
2, 629640, Note_on_c, 0, 64, 100
2, 629760, Note_on_c, 0, 64, 0
2, 629760, Note_on_c, 0, 65, 100
2, 629880, Note_on_c, 0, 65, 0
2, 629880, Note_on_c, 0, 64, 100
2, 630000, Note_on_c, 0, 64, 0
2, 630000, Note_on_c, 0, 65, 100
2, 630120, Note_on_c, 0, 65, 0
2, 630120, Note_on_c, 0, 67, 100
2, 630240, Note_on_c, 0, 67, 0
2, 630240, Note_on_c, 0, 65, 100
2, 630360, Note_on_c, 0, 65, 0
2, 630360, Note_on_c, 0, 64, 100
2, 630480, Note_on_c, 0, 64, 0
2, 630480, Note_on_c, 0, 62, 100
2, 630600, Note_on_c, 0, 62, 0
2, 630600, Note_on_c, 0, 69, 0
2, 630600, Note_on_c, 0, 67, 100
2, 630660, Note_on_c, 0, 67, 0
2, 630660, Note_on_c, 0, 66, 100
2, 630720, Note_on_c, 0, 66, 0
2, 630720, Note_on_c, 0, 67, 100
2, 630780, Note_on_c, 0, 67, 0
2, 630780, Note_on_c, 0, 69, 100
2, 630840, Note_on_c, 0, 69, 0
2, 630840, Note_on_c, 0, 70, 100
2, 630900, Note_on_c, 0, 70, 0
2, 630900, Note_on_c, 0, 72, 100
2, 630960, Note_on_c, 0, 72, 0
2, 630960, Note_on_c, 0, 74, 100
2, 631020, Note_on_c, 0, 66, 100
2, 631080, Note_on_c, 0, 66, 0
2, 631080, Note_on_c, 0, 67, 100
2, 631140, Note_on_c, 0, 67, 0
2, 631140, Note_on_c, 0, 69, 100
2, 631200, Note_on_c, 0, 69, 0
2, 631200, Note_on_c, 0, 70, 100
2, 631320, Note_on_c, 0, 70, 0
2, 631320, Note_on_c, 0, 74, 0
2, 631320, Note_on_c, 0, 72, 100
2, 631320, Note_on_c, 0, 69, 100
2, 631440, Note_on_c, 0, 69, 0
2, 631440, Note_on_c, 0, 72, 0
2, 631440, Note_on_c, 0, 70, 100
2, 631440, Note_on_c, 0, 67, 100
2, 631560, Note_on_c, 0, 67, 0
2, 631560, Note_on_c, 0, 70, 0
2, 631560, Note_on_c, 0, 69, 100
2, 631560, Note_on_c, 0, 66, 100
2, 631680, Note_on_c, 0, 66, 0
2, 631680, Note_on_c, 0, 69, 0
2, 631680, Note_on_c, 0, 67, 100
2, 631680, Note_on_c, 0, 64, 100
2, 631740, Note_on_c, 0, 67, 0
2, 631740, Note_on_c, 0, 69, 100
2, 631800, Note_on_c, 0, 69, 0
2, 631800, Note_on_c, 0, 70, 100
2, 631920, Note_on_c, 0, 70, 0
2, 631920, Note_on_c, 0, 64, 0
2, 631920, Note_on_c, 0, 69, 100
2, 631980, Note_on_c, 0, 64, 100
2, 632040, Note_on_c, 0, 64, 0
2, 632040, Note_on_c, 0, 66, 100
2, 632100, Note_on_c, 0, 66, 0
2, 632100, Note_on_c, 0, 67, 100
2, 632160, Note_on_c, 0, 67, 0
2, 632160, Note_on_c, 0, 66, 100
2, 632640, Note_on_c, 0, 66, 0
2, 632640, Note_on_c, 0, 69, 0
2, 632640, Note_on_c, 0, 69, 100
2, 632880, Note_on_c, 0, 69, 0
2, 632880, Note_on_c, 0, 62, 100
2, 633360, Note_on_c, 0, 62, 0
2, 633360, Note_on_c, 0, 65, 100
2, 633600, Note_on_c, 0, 65, 0
2, 633600, Note_on_c, 0, 69, 100
2, 634080, Note_on_c, 0, 69, 0
2, 634080, Note_on_c, 0, 70, 100
2, 634320, Note_on_c, 0, 70, 0
2, 634320, Note_on_c, 0, 69, 100
2, 634560, Note_on_c, 0, 69, 0
2, 634560, Note_on_c, 0, 67, 100
2, 634800, Note_on_c, 0, 67, 0
2, 634800, Note_on_c, 0, 65, 100
2, 635160, Note_on_c, 0, 65, 0
2, 635160, Note_on_c, 0, 64, 100
2, 635280, Note_on_c, 0, 64, 0
2, 635280, Note_on_c, 0, 65, 100
2, 635400, Note_on_c, 0, 65, 0
2, 635400, Note_on_c, 0, 67, 100
2, 635520, Note_on_c, 0, 67, 0
2, 635520, Note_on_c, 0, 62, 100
2, 635520, Note_on_c, 0, 69, 100
2, 635760, Note_on_c, 0, 69, 0
2, 635760, Note_on_c, 0, 62, 0
2, 635760, Note_on_c, 0, 57, 100
2, 635880, Note_on_c, 0, 67, 100
2, 636000, Note_on_c, 0, 67, 0
2, 636000, Note_on_c, 0, 65, 100
2, 636120, Note_on_c, 0, 65, 0
2, 636120, Note_on_c, 0, 64, 100
2, 636240, Note_on_c, 0, 64, 0
2, 636240, Note_on_c, 0, 57, 0
2, 636240, Note_on_c, 0, 58, 100
2, 636240, Note_on_c, 0, 62, 100
2, 636480, Note_on_c, 0, 62, 0
2, 636480, Note_on_c, 0, 58, 0
2, 636480, Note_on_c, 0, 62, 100
2, 636600, Note_on_c, 0, 60, 100
2, 636720, Note_on_c, 0, 60, 0
2, 636720, Note_on_c, 0, 58, 100
2, 636840, Note_on_c, 0, 58, 0
2, 636840, Note_on_c, 0, 57, 100
2, 636960, Note_on_c, 0, 57, 0
2, 636960, Note_on_c, 0, 62, 0
2, 636960, Note_on_c, 0, 55, 100
2, 636960, Note_on_c, 0, 63, 100
2, 637080, Note_on_c, 0, 55, 0
2, 637080, Note_on_c, 0, 57, 100
2, 637200, Note_on_c, 0, 57, 0
2, 637200, Note_on_c, 0, 63, 0
2, 637200, Note_on_c, 0, 58, 100
2, 637200, Note_on_c, 0, 62, 100
2, 637320, Note_on_c, 0, 58, 0
2, 637320, Note_on_c, 0, 60, 100
2, 637440, Note_on_c, 0, 60, 0
2, 637440, Note_on_c, 0, 62, 0
2, 637440, Note_on_c, 0, 62, 100
2, 637440, Note_on_c, 0, 60, 100
2, 637560, Note_on_c, 0, 62, 0
2, 637560, Note_on_c, 0, 63, 100
2, 637680, Note_on_c, 0, 63, 0
2, 637680, Note_on_c, 0, 60, 0
2, 637680, Note_on_c, 0, 58, 100
2, 637680, Note_on_c, 0, 62, 100
2, 637800, Note_on_c, 0, 62, 0
2, 637800, Note_on_c, 0, 64, 100
2, 637860, Note_on_c, 0, 64, 0
2, 637860, Note_on_c, 0, 66, 100
2, 637920, Note_on_c, 0, 66, 0
2, 637920, Note_on_c, 0, 67, 100
2, 638040, Note_on_c, 0, 58, 0
2, 638040, Note_on_c, 0, 57, 100
2, 638160, Note_on_c, 0, 57, 0
2, 638160, Note_on_c, 0, 59, 100
2, 638280, Note_on_c, 0, 59, 0
2, 638280, Note_on_c, 0, 67, 0
2, 638280, Note_on_c, 0, 69, 100
2, 638280, Note_on_c, 0, 61, 100
2, 638340, Note_on_c, 0, 69, 0
2, 638340, Note_on_c, 0, 67, 100
2, 638400, Note_on_c, 0, 67, 0
2, 638400, Note_on_c, 0, 61, 0
2, 638400, Note_on_c, 0, 62, 100
2, 638400, Note_on_c, 0, 65, 100
2, 638520, Note_on_c, 0, 65, 0
2, 638520, Note_on_c, 0, 67, 100
2, 638580, Note_on_c, 0, 67, 0
2, 638580, Note_on_c, 0, 69, 100
2, 638640, Note_on_c, 0, 69, 0
2, 638640, Note_on_c, 0, 70, 100
2, 638760, Note_on_c, 0, 62, 0
2, 638760, Note_on_c, 0, 60, 100
2, 638880, Note_on_c, 0, 60, 0
2, 638880, Note_on_c, 0, 62, 100
2, 639000, Note_on_c, 0, 62, 0
2, 639000, Note_on_c, 0, 70, 0
2, 639000, Note_on_c, 0, 72, 100
2, 639000, Note_on_c, 0, 64, 100
2, 639060, Note_on_c, 0, 72, 0
2, 639060, Note_on_c, 0, 70, 100
2, 639120, Note_on_c, 0, 70, 0
2, 639120, Note_on_c, 0, 64, 0
2, 639120, Note_on_c, 0, 65, 100
2, 639120, Note_on_c, 0, 69, 100
2, 639180, Note_on_c, 0, 65, 0
2, 639180, Note_on_c, 0, 64, 100
2, 639240, Note_on_c, 0, 64, 0
2, 639240, Note_on_c, 0, 65, 100
2, 639300, Note_on_c, 0, 65, 0
2, 639300, Note_on_c, 0, 67, 100
2, 639360, Note_on_c, 0, 67, 0
2, 639360, Note_on_c, 0, 69, 0
2, 639360, Note_on_c, 0, 69, 100
2, 639480, Note_on_c, 0, 69, 0
2, 639480, Note_on_c, 0, 77, 100
2, 639480, Note_on_c, 0, 62, 100
2, 639600, Note_on_c, 0, 62, 0
2, 639600, Note_on_c, 0, 77, 0
2, 639600, Note_on_c, 0, 76, 100
2, 639600, Note_on_c, 0, 60, 100
2, 639720, Note_on_c, 0, 60, 0
2, 639720, Note_on_c, 0, 76, 0
2, 639720, Note_on_c, 0, 74, 100
2, 639720, Note_on_c, 0, 58, 100
2, 639840, Note_on_c, 0, 58, 0
2, 639840, Note_on_c, 0, 74, 0
2, 639840, Note_on_c, 0, 72, 100
2, 639960, Note_on_c, 0, 72, 0
2, 639960, Note_on_c, 0, 74, 100
2, 640080, Note_on_c, 0, 74, 0
2, 640080, Note_on_c, 0, 74, 100
2, 640110, Note_on_c, 0, 74, 0
2, 640110, Note_on_c, 0, 73, 100
2, 640140, Note_on_c, 0, 73, 0
2, 640140, Note_on_c, 0, 74, 100
2, 640170, Note_on_c, 0, 74, 0
2, 640170, Note_on_c, 0, 73, 100
2, 640200, Note_on_c, 0, 73, 0
2, 640200, Note_on_c, 0, 74, 100
2, 640230, Note_on_c, 0, 74, 0
2, 640230, Note_on_c, 0, 73, 100
2, 640260, Note_on_c, 0, 73, 0
2, 640260, Note_on_c, 0, 74, 100
2, 640290, Note_on_c, 0, 74, 0
2, 640290, Note_on_c, 0, 73, 100
2, 640320, Note_on_c, 0, 73, 0
2, 640320, Note_on_c, 0, 74, 100
2, 640350, Note_on_c, 0, 74, 0
2, 640350, Note_on_c, 0, 73, 100
2, 640380, Note_on_c, 0, 73, 0
2, 640380, Note_on_c, 0, 74, 100
2, 640410, Note_on_c, 0, 74, 0
2, 640410, Note_on_c, 0, 73, 100
2, 640440, Note_on_c, 0, 73, 0
2, 640440, Note_on_c, 0, 74, 100
2, 640470, Note_on_c, 0, 74, 0
2, 640470, Note_on_c, 0, 73, 100
2, 640500, Note_on_c, 0, 73, 0
2, 640500, Note_on_c, 0, 74, 100
2, 640530, Note_on_c, 0, 74, 0
2, 640530, Note_on_c, 0, 73, 100
2, 640560, Note_on_c, 0, 73, 0
2, 640560, Note_on_c, 0, 74, 100
2, 641340, Note_on_c, 0, 74, 0
2, 641340, Note_on_c, 0, 76, 100
2, 641400, Note_on_c, 0, 76, 0
2, 641400, Note_on_c, 0, 77, 100
2, 641460, Note_on_c, 0, 77, 0
2, 641460, Note_on_c, 0, 76, 100
2, 641520, Note_on_c, 0, 76, 0
2, 641520, Note_on_c, 0, 74, 100
2, 641640, Note_on_c, 0, 74, 0
2, 641640, Note_on_c, 0, 58, 100
2, 641640, Note_on_c, 0, 73, 100
2, 641760, Note_on_c, 0, 73, 0
2, 641760, Note_on_c, 0, 58, 0
2, 641760, Note_on_c, 0, 57, 100
2, 641760, Note_on_c, 0, 74, 100
2, 641880, Note_on_c, 0, 74, 0
2, 641880, Note_on_c, 0, 57, 0
2, 641880, Note_on_c, 0, 55, 100
2, 641880, Note_on_c, 0, 76, 100
2, 642000, Note_on_c, 0, 76, 0
2, 642000, Note_on_c, 0, 55, 0
2, 642000, Note_on_c, 0, 62, 100
2, 642000, Note_on_c, 0, 77, 100
2, 642120, Note_on_c, 0, 77, 0
2, 642120, Note_on_c, 0, 62, 0
2, 642120, Note_on_c, 0, 64, 100
2, 642120, Note_on_c, 0, 79, 100
2, 642240, Note_on_c, 0, 79, 0
2, 642240, Note_on_c, 0, 64, 0
2, 642240, Note_on_c, 0, 65, 100
2, 642240, Note_on_c, 0, 81, 100
2, 642360, Note_on_c, 0, 65, 0
2, 642360, Note_on_c, 0, 67, 100
2, 642480, Note_on_c, 0, 67, 0
2, 642480, Note_on_c, 0, 81, 0
2, 642480, Note_on_c, 0, 69, 100
2, 642600, Note_on_c, 0, 69, 0
2, 642600, Note_on_c, 0, 67, 100
2, 642600, Note_on_c, 0, 73, 100
2, 642720, Note_on_c, 0, 73, 0
2, 642720, Note_on_c, 0, 67, 0
2, 642720, Note_on_c, 0, 74, 100
2, 642720, Note_on_c, 0, 65, 100
2, 642780, Note_on_c, 0, 74, 0
2, 642780, Note_on_c, 0, 76, 100
2, 642840, Note_on_c, 0, 76, 0
2, 642840, Note_on_c, 0, 65, 0
2, 642840, Note_on_c, 0, 77, 100
2, 642840, Note_on_c, 0, 64, 100
2, 642900, Note_on_c, 0, 77, 0
2, 642900, Note_on_c, 0, 79, 100
2, 642960, Note_on_c, 0, 79, 0
2, 642960, Note_on_c, 0, 64, 0
2, 642960, Note_on_c, 0, 77, 100
2, 642960, Note_on_c, 0, 62, 100
2, 643080, Note_on_c, 0, 62, 0
2, 643080, Note_on_c, 0, 63, 100
2, 643200, Note_on_c, 0, 63, 0
2, 643200, Note_on_c, 0, 77, 0
2, 643200, Note_on_c, 0, 62, 100
2, 643320, Note_on_c, 0, 62, 0
2, 643320, Note_on_c, 0, 66, 100
2, 643320, Note_on_c, 0, 60, 100
2, 643440, Note_on_c, 0, 60, 0
2, 643440, Note_on_c, 0, 66, 0
2, 643440, Note_on_c, 0, 58, 100
2, 643440, Note_on_c, 0, 67, 100
2, 643500, Note_on_c, 0, 67, 0
2, 643500, Note_on_c, 0, 69, 100
2, 643560, Note_on_c, 0, 69, 0
2, 643560, Note_on_c, 0, 58, 0
2, 643560, Note_on_c, 0, 57, 100
2, 643560, Note_on_c, 0, 70, 100
2, 643620, Note_on_c, 0, 70, 0
2, 643620, Note_on_c, 0, 72, 100
2, 643680, Note_on_c, 0, 72, 0
2, 643680, Note_on_c, 0, 57, 0
2, 643680, Note_on_c, 0, 55, 100
2, 643680, Note_on_c, 0, 70, 100
2, 643920, Note_on_c, 0, 70, 0
2, 644040, Note_on_c, 0, 67, 100
2, 644160, Note_on_c, 0, 67, 0
2, 644160, Note_on_c, 0, 74, 100
2, 644220, Note_on_c, 0, 74, 0
2, 644220, Note_on_c, 0, 72, 100
2, 644280, Note_on_c, 0, 72, 0
2, 644280, Note_on_c, 0, 55, 0
2, 644280, Note_on_c, 0, 70, 100
2, 644340, Note_on_c, 0, 70, 0
2, 644340, Note_on_c, 0, 69, 100
2, 644400, Note_on_c, 0, 69, 0
2, 644400, Note_on_c, 0, 67, 100
2, 644640, Note_on_c, 0, 67, 0
2, 644640, Note_on_c, 0, 79, 100
2, 644760, Note_on_c, 0, 57, 100
2, 644880, Note_on_c, 0, 57, 0
2, 644880, Note_on_c, 0, 79, 0
2, 644880, Note_on_c, 0, 58, 100
2, 644880, Note_on_c, 0, 77, 100
2, 644940, Note_on_c, 0, 77, 0
2, 644940, Note_on_c, 0, 76, 100
2, 645000, Note_on_c, 0, 76, 0
2, 645000, Note_on_c, 0, 58, 0
2, 645000, Note_on_c, 0, 65, 100
2, 645000, Note_on_c, 0, 74, 100
2, 645060, Note_on_c, 0, 74, 0
2, 645060, Note_on_c, 0, 72, 100
2, 645120, Note_on_c, 0, 72, 0
2, 645120, Note_on_c, 0, 65, 0
2, 645120, Note_on_c, 0, 70, 100
2, 645360, Note_on_c, 0, 70, 0
2, 645360, Note_on_c, 0, 82, 100
2, 645480, Note_on_c, 0, 61, 100
2, 645600, Note_on_c, 0, 61, 0
2, 645600, Note_on_c, 0, 82, 0
2, 645600, Note_on_c, 0, 62, 100
2, 645600, Note_on_c, 0, 81, 100
2, 645660, Note_on_c, 0, 81, 0
2, 645660, Note_on_c, 0, 79, 100
2, 645720, Note_on_c, 0, 79, 0
2, 645720, Note_on_c, 0, 62, 0
2, 645720, Note_on_c, 0, 57, 100
2, 645720, Note_on_c, 0, 77, 100
2, 645780, Note_on_c, 0, 77, 0
2, 645780, Note_on_c, 0, 57, 0
2, 645780, Note_on_c, 0, 55, 100
2, 645780, Note_on_c, 0, 76, 100
2, 645840, Note_on_c, 0, 76, 0
2, 645840, Note_on_c, 0, 55, 0
2, 645840, Note_on_c, 0, 53, 100
2, 645840, Note_on_c, 0, 74, 100
2, 645960, Note_on_c, 0, 53, 0
2, 645960, Note_on_c, 0, 58, 100
2, 646080, Note_on_c, 0, 58, 0
2, 646080, Note_on_c, 0, 74, 0
2, 646080, Note_on_c, 0, 57, 100
2, 646200, Note_on_c, 0, 57, 0
2, 646200, Note_on_c, 0, 64, 100
2, 646200, Note_on_c, 0, 73, 100
2, 646320, Note_on_c, 0, 73, 0
2, 646320, Note_on_c, 0, 64, 0
2, 646320, Note_on_c, 0, 62, 100
2, 646320, Note_on_c, 0, 74, 100
2, 646440, Note_on_c, 0, 74, 0
2, 646440, Note_on_c, 0, 76, 100
2, 646560, Note_on_c, 0, 76, 0
2, 646560, Note_on_c, 0, 77, 100
2, 646680, Note_on_c, 0, 77, 0
2, 646680, Note_on_c, 0, 62, 0
2, 646680, Note_on_c, 0, 64, 100
2, 646680, Note_on_c, 0, 79, 100
2, 646800, Note_on_c, 0, 79, 0
2, 646800, Note_on_c, 0, 64, 0
2, 646800, Note_on_c, 0, 81, 100
2, 646800, Note_on_c, 0, 65, 100
2, 646920, Note_on_c, 0, 65, 0
2, 646920, Note_on_c, 0, 67, 100
2, 647040, Note_on_c, 0, 67, 0
2, 647040, Note_on_c, 0, 81, 0
2, 647040, Note_on_c, 0, 69, 100
2, 647340, Note_on_c, 0, 69, 0
2, 647340, Note_on_c, 0, 67, 100
2, 647400, Note_on_c, 0, 67, 0
2, 647400, Note_on_c, 0, 65, 100
2, 647460, Note_on_c, 0, 65, 0
2, 647460, Note_on_c, 0, 64, 100
2, 647520, Note_on_c, 0, 64, 0
2, 647520, Note_on_c, 0, 62, 100
2, 647820, Note_on_c, 0, 62, 0
2, 647820, Note_on_c, 0, 50, 100
2, 647880, Note_on_c, 0, 50, 0
2, 647880, Note_on_c, 0, 62, 100
2, 647940, Note_on_c, 0, 62, 0
2, 647940, Note_on_c, 0, 64, 100
2, 648000, Note_on_c, 0, 64, 0
2, 648000, Note_on_c, 0, 65, 100
2, 648060, Note_on_c, 0, 65, 0
2, 648060, Note_on_c, 0, 67, 100
2, 648120, Note_on_c, 0, 67, 0
2, 648120, Note_on_c, 0, 69, 100
2, 648180, Note_on_c, 0, 69, 0
2, 648180, Note_on_c, 0, 67, 100
2, 648240, Note_on_c, 0, 67, 0
2, 648240, Note_on_c, 0, 65, 100
2, 648240, Note_on_c, 0, 69, 100
2, 648300, Note_on_c, 0, 69, 0
2, 648300, Note_on_c, 0, 67, 100
2, 648360, Note_on_c, 0, 67, 0
2, 648360, Note_on_c, 0, 65, 0
2, 648360, Note_on_c, 0, 53, 100
2, 648360, Note_on_c, 0, 65, 100
2, 648420, Note_on_c, 0, 65, 0
2, 648420, Note_on_c, 0, 64, 100
2, 648480, Note_on_c, 0, 64, 0
2, 648480, Note_on_c, 0, 53, 0
2, 648480, Note_on_c, 0, 62, 100
2, 648480, Note_on_c, 0, 55, 100
2, 648540, Note_on_c, 0, 62, 0
2, 648540, Note_on_c, 0, 61, 100
2, 648600, Note_on_c, 0, 61, 0
2, 648600, Note_on_c, 0, 62, 100
2, 648660, Note_on_c, 0, 62, 0
2, 648660, Note_on_c, 0, 64, 100
2, 648720, Note_on_c, 0, 64, 0
2, 648720, Note_on_c, 0, 55, 0
2, 648720, Note_on_c, 0, 65, 100
2, 648720, Note_on_c, 0, 53, 100
2, 648840, Note_on_c, 0, 65, 0
2, 648840, Note_on_c, 0, 67, 100
2, 648960, Note_on_c, 0, 67, 0
2, 648960, Note_on_c, 0, 69, 100
2, 649080, Note_on_c, 0, 69, 0
2, 649080, Note_on_c, 0, 53, 0
2, 649080, Note_on_c, 0, 52, 100
2, 649080, Note_on_c, 0, 70, 100
2, 649200, Note_on_c, 0, 70, 0
2, 649200, Note_on_c, 0, 52, 0
2, 649200, Note_on_c, 0, 69, 100
2, 649200, Note_on_c, 0, 53, 100
2, 649320, Note_on_c, 0, 69, 0
2, 649320, Note_on_c, 0, 71, 100
2, 649380, Note_on_c, 0, 71, 0
2, 649380, Note_on_c, 0, 73, 100
2, 649440, Note_on_c, 0, 73, 0
2, 649440, Note_on_c, 0, 53, 0
2, 649440, Note_on_c, 0, 65, 100
2, 649440, Note_on_c, 0, 74, 100
2, 649800, Note_on_c, 0, 74, 0
2, 649800, Note_on_c, 0, 76, 100
2, 649860, Note_on_c, 0, 76, 0
2, 649860, Note_on_c, 0, 74, 100
2, 649920, Note_on_c, 0, 74, 0
2, 649920, Note_on_c, 0, 72, 100
2, 650040, Note_on_c, 0, 72, 0
2, 650040, Note_on_c, 0, 65, 0
2, 650040, Note_on_c, 0, 64, 100
2, 650040, Note_on_c, 0, 76, 100
2, 650100, Note_on_c, 0, 64, 0
2, 650100, Note_on_c, 0, 67, 100
2, 650160, Note_on_c, 0, 67, 0
2, 650160, Note_on_c, 0, 76, 0
2, 650160, Note_on_c, 0, 69, 100
2, 650160, Note_on_c, 0, 65, 100
2, 650220, Note_on_c, 0, 65, 0
2, 650220, Note_on_c, 0, 62, 100
2, 650280, Note_on_c, 0, 62, 0
2, 650280, Note_on_c, 0, 60, 100
2, 650340, Note_on_c, 0, 60, 0
2, 650340, Note_on_c, 0, 59, 100
2, 650400, Note_on_c, 0, 59, 0
2, 650400, Note_on_c, 0, 69, 0
2, 650400, Note_on_c, 0, 57, 100
2, 650460, Note_on_c, 0, 72, 100
2, 650520, Note_on_c, 0, 72, 0
2, 650520, Note_on_c, 0, 57, 0
2, 650520, Note_on_c, 0, 71, 100
2, 650520, Note_on_c, 0, 59, 100
2, 650580, Note_on_c, 0, 71, 0
2, 650580, Note_on_c, 0, 69, 100
2, 650640, Note_on_c, 0, 69, 0
2, 650640, Note_on_c, 0, 59, 0
2, 650640, Note_on_c, 0, 60, 100
2, 650640, Note_on_c, 0, 68, 100
2, 650700, Note_on_c, 0, 60, 0
2, 650700, Note_on_c, 0, 59, 100
2, 650760, Note_on_c, 0, 59, 0
2, 650760, Note_on_c, 0, 68, 0
2, 650760, Note_on_c, 0, 60, 100
2, 650760, Note_on_c, 0, 69, 100
2, 650820, Note_on_c, 0, 69, 0
2, 650820, Note_on_c, 0, 60, 0
2, 650820, Note_on_c, 0, 62, 100
2, 650820, Note_on_c, 0, 71, 100
2, 650880, Note_on_c, 0, 71, 0
2, 650880, Note_on_c, 0, 62, 0
2, 650880, Note_on_c, 0, 64, 100
2, 650880, Note_on_c, 0, 72, 100
2, 650940, Note_on_c, 0, 64, 0
2, 650940, Note_on_c, 0, 65, 100
2, 651000, Note_on_c, 0, 65, 0
2, 651000, Note_on_c, 0, 72, 0
2, 651000, Note_on_c, 0, 64, 100
2, 651000, Note_on_c, 0, 74, 100
2, 651060, Note_on_c, 0, 64, 0
2, 651060, Note_on_c, 0, 62, 100
2, 651120, Note_on_c, 0, 62, 0
2, 651120, Note_on_c, 0, 74, 0
2, 651120, Note_on_c, 0, 60, 100
2, 651120, Note_on_c, 0, 76, 100
2, 651180, Note_on_c, 0, 60, 0
2, 651180, Note_on_c, 0, 59, 100
2, 651240, Note_on_c, 0, 59, 0
2, 651240, Note_on_c, 0, 76, 0
2, 651240, Note_on_c, 0, 57, 100
2, 651240, Note_on_c, 0, 77, 100
2, 651300, Note_on_c, 0, 57, 0
2, 651300, Note_on_c, 0, 55, 100
2, 651360, Note_on_c, 0, 55, 0
2, 651360, Note_on_c, 0, 77, 0
2, 651360, Note_on_c, 0, 57, 100
2, 651360, Note_on_c, 0, 76, 100
2, 651480, Note_on_c, 0, 76, 0
2, 651480, Note_on_c, 0, 74, 100
2, 651600, Note_on_c, 0, 74, 0
2, 651600, Note_on_c, 0, 57, 0
2, 651600, Note_on_c, 0, 72, 100
2, 651720, Note_on_c, 0, 72, 0
2, 651720, Note_on_c, 0, 74, 100
2, 651840, Note_on_c, 0, 74, 0
2, 651840, Note_on_c, 0, 72, 100
2, 651960, Note_on_c, 0, 72, 0
2, 651960, Note_on_c, 0, 71, 100
2, 652080, Note_on_c, 0, 71, 0
2, 652080, Note_on_c, 0, 69, 100
2, 652320, Note_on_c, 0, 69, 0
2, 652320, Note_on_c, 0, 67, 100
2, 652560, Note_on_c, 0, 67, 0
2, 652620, Note_on_c, 0, 67, 100
2, 652680, Note_on_c, 0, 67, 0
2, 652680, Note_on_c, 0, 69, 100
2, 652740, Note_on_c, 0, 69, 0
2, 652740, Note_on_c, 0, 71, 100
2, 652800, Note_on_c, 0, 71, 0
2, 652800, Note_on_c, 0, 72, 100
2, 652860, Note_on_c, 0, 72, 0
2, 652860, Note_on_c, 0, 74, 100
2, 652920, Note_on_c, 0, 74, 0
2, 652920, Note_on_c, 0, 76, 100
2, 652980, Note_on_c, 0, 76, 0
2, 652980, Note_on_c, 0, 77, 100
2, 653040, Note_on_c, 0, 77, 0
2, 653040, Note_on_c, 0, 76, 100
2, 653100, Note_on_c, 0, 76, 0
2, 653100, Note_on_c, 0, 81, 100
2, 653160, Note_on_c, 0, 81, 0
2, 653160, Note_on_c, 0, 79, 100
2, 653220, Note_on_c, 0, 79, 0
2, 653220, Note_on_c, 0, 77, 100
2, 653280, Note_on_c, 0, 77, 0
2, 653280, Note_on_c, 0, 76, 100
2, 653340, Note_on_c, 0, 76, 0
2, 653340, Note_on_c, 0, 74, 100
2, 653400, Note_on_c, 0, 74, 0
2, 653400, Note_on_c, 0, 72, 100
2, 653460, Note_on_c, 0, 72, 0
2, 653460, Note_on_c, 0, 71, 100
2, 653520, Note_on_c, 0, 71, 0
2, 653520, Note_on_c, 0, 72, 100
2, 653580, Note_on_c, 0, 72, 0
2, 653580, Note_on_c, 0, 74, 100
2, 653640, Note_on_c, 0, 74, 0
2, 653640, Note_on_c, 0, 76, 100
2, 653700, Note_on_c, 0, 76, 0
2, 653700, Note_on_c, 0, 74, 100
2, 653760, Note_on_c, 0, 74, 0
2, 653760, Note_on_c, 0, 72, 100
2, 654000, Note_on_c, 0, 72, 0
2, 654120, Note_on_c, 0, 72, 100
2, 654240, Note_on_c, 0, 72, 0
2, 654240, Note_on_c, 0, 70, 100
2, 654300, Note_on_c, 0, 70, 0
2, 654300, Note_on_c, 0, 69, 100
2, 654360, Note_on_c, 0, 69, 0
2, 654360, Note_on_c, 0, 67, 100
2, 654420, Note_on_c, 0, 67, 0
2, 654420, Note_on_c, 0, 70, 100
2, 654480, Note_on_c, 0, 70, 0
2, 654480, Note_on_c, 0, 74, 100
2, 654720, Note_on_c, 0, 74, 0
2, 654780, Note_on_c, 0, 69, 100
2, 654840, Note_on_c, 0, 69, 0
2, 654840, Note_on_c, 0, 67, 100
2, 654900, Note_on_c, 0, 67, 0
2, 654900, Note_on_c, 0, 65, 100
2, 654960, Note_on_c, 0, 65, 0
2, 654960, Note_on_c, 0, 60, 100
2, 654960, Note_on_c, 0, 64, 100
2, 655080, Note_on_c, 0, 64, 0
2, 655080, Note_on_c, 0, 65, 100
2, 655140, Note_on_c, 0, 65, 0
2, 655140, Note_on_c, 0, 67, 100
2, 655200, Note_on_c, 0, 67, 0
2, 655200, Note_on_c, 0, 69, 100
2, 655260, Note_on_c, 0, 60, 0
2, 655260, Note_on_c, 0, 58, 100
2, 655320, Note_on_c, 0, 58, 0
2, 655320, Note_on_c, 0, 69, 0
2, 655320, Note_on_c, 0, 70, 100
2, 655320, Note_on_c, 0, 57, 100
2, 655380, Note_on_c, 0, 57, 0
2, 655380, Note_on_c, 0, 55, 100
2, 655440, Note_on_c, 0, 55, 0
2, 655440, Note_on_c, 0, 70, 0
2, 655440, Note_on_c, 0, 72, 100
2, 655440, Note_on_c, 0, 57, 100
2, 655500, Note_on_c, 0, 57, 0
2, 655500, Note_on_c, 0, 55, 100
2, 655560, Note_on_c, 0, 55, 0
2, 655560, Note_on_c, 0, 72, 0
2, 655560, Note_on_c, 0, 74, 100
2, 655560, Note_on_c, 0, 57, 100
2, 655620, Note_on_c, 0, 57, 0
2, 655620, Note_on_c, 0, 58, 100
2, 655680, Note_on_c, 0, 58, 0
2, 655680, Note_on_c, 0, 74, 0
2, 655680, Note_on_c, 0, 60, 100
2, 655680, Note_on_c, 0, 72, 100
2, 655800, Note_on_c, 0, 72, 0
2, 655800, Note_on_c, 0, 60, 0
2, 655800, Note_on_c, 0, 62, 100
2, 655800, Note_on_c, 0, 70, 100
2, 655860, Note_on_c, 0, 62, 0
2, 655860, Note_on_c, 0, 64, 100
2, 655920, Note_on_c, 0, 64, 0
2, 655920, Note_on_c, 0, 70, 0
2, 655920, Note_on_c, 0, 65, 100
2, 655920, Note_on_c, 0, 69, 100
2, 656040, Note_on_c, 0, 69, 0
2, 656040, Note_on_c, 0, 67, 100
2, 656160, Note_on_c, 0, 67, 0
2, 656160, Note_on_c, 0, 65, 100
2, 656220, Note_on_c, 0, 65, 0
2, 656220, Note_on_c, 0, 63, 100
2, 656280, Note_on_c, 0, 63, 0
2, 656280, Note_on_c, 0, 62, 100
2, 656340, Note_on_c, 0, 62, 0
2, 656340, Note_on_c, 0, 57, 100
2, 656340, Note_on_c, 0, 63, 100
2, 656400, Note_on_c, 0, 63, 0
2, 656400, Note_on_c, 0, 57, 0
2, 656400, Note_on_c, 0, 62, 100
2, 656460, Note_on_c, 0, 65, 0
2, 656460, Note_on_c, 0, 64, 100
2, 656520, Note_on_c, 0, 64, 0
2, 656520, Note_on_c, 0, 65, 100
2, 656580, Note_on_c, 0, 65, 0
2, 656580, Note_on_c, 0, 67, 100
2, 656640, Note_on_c, 0, 67, 0
2, 656640, Note_on_c, 0, 62, 0
2, 656640, Note_on_c, 0, 60, 100
2, 656640, Note_on_c, 0, 69, 100
2, 656880, Note_on_c, 0, 60, 100
2, 656940, Note_on_c, 0, 69, 0
2, 656940, Note_on_c, 0, 67, 100
2, 657000, Note_on_c, 0, 67, 0
2, 657000, Note_on_c, 0, 60, 0
2, 657000, Note_on_c, 0, 69, 100
2, 657060, Note_on_c, 0, 69, 0
2, 657060, Note_on_c, 0, 70, 100
2, 657120, Note_on_c, 0, 70, 0
2, 657120, Note_on_c, 0, 72, 100
2, 657180, Note_on_c, 0, 60, 0
2, 657180, Note_on_c, 0, 58, 100
2, 657240, Note_on_c, 0, 58, 0
2, 657240, Note_on_c, 0, 72, 0
2, 657240, Note_on_c, 0, 57, 100
2, 657240, Note_on_c, 0, 74, 100
2, 657300, Note_on_c, 0, 74, 0
2, 657300, Note_on_c, 0, 57, 0
2, 657300, Note_on_c, 0, 55, 100
2, 657300, Note_on_c, 0, 76, 100
2, 657360, Note_on_c, 0, 76, 0
2, 657360, Note_on_c, 0, 55, 0
2, 657360, Note_on_c, 0, 77, 100
2, 657360, Note_on_c, 0, 57, 100
2, 657480, Note_on_c, 0, 57, 0
2, 657480, Note_on_c, 0, 59, 100
2, 657540, Note_on_c, 0, 59, 0
2, 657540, Note_on_c, 0, 60, 100
2, 657600, Note_on_c, 0, 60, 0
2, 657600, Note_on_c, 0, 62, 100
2, 657720, Note_on_c, 0, 62, 0
2, 657720, Note_on_c, 0, 77, 0
2, 657720, Note_on_c, 0, 79, 100
2, 657720, Note_on_c, 0, 59, 100
2, 657780, Note_on_c, 0, 79, 0
2, 657780, Note_on_c, 0, 77, 100
2, 657840, Note_on_c, 0, 77, 0
2, 657840, Note_on_c, 0, 59, 0
2, 657840, Note_on_c, 0, 60, 100
2, 657840, Note_on_c, 0, 76, 100
2, 657960, Note_on_c, 0, 76, 0
2, 657960, Note_on_c, 0, 77, 100
2, 658080, Note_on_c, 0, 77, 0
2, 658080, Note_on_c, 0, 72, 100
2, 658140, Note_on_c, 0, 60, 0
2, 658140, Note_on_c, 0, 62, 100
2, 658200, Note_on_c, 0, 62, 0
2, 658200, Note_on_c, 0, 60, 100
2, 658260, Note_on_c, 0, 60, 0
2, 658260, Note_on_c, 0, 58, 100
2, 658320, Note_on_c, 0, 58, 0
2, 658320, Note_on_c, 0, 72, 0
2, 658320, Note_on_c, 0, 57, 100
2, 658440, Note_on_c, 0, 57, 0
2, 658440, Note_on_c, 0, 60, 100
2, 658560, Note_on_c, 0, 60, 0
2, 658560, Note_on_c, 0, 55, 100
2, 658860, Note_on_c, 0, 55, 0
2, 658860, Note_on_c, 0, 57, 100
2, 658920, Note_on_c, 0, 57, 0
2, 658920, Note_on_c, 0, 55, 100
2, 658980, Note_on_c, 0, 55, 0
2, 658980, Note_on_c, 0, 53, 100
2, 659040, Note_on_c, 0, 53, 0
2, 659040, Note_on_c, 0, 58, 100
2, 659160, Note_on_c, 0, 58, 0
2, 659160, Note_on_c, 0, 60, 100
2, 659280, Note_on_c, 0, 60, 0
2, 659280, Note_on_c, 0, 58, 100
2, 659340, Note_on_c, 0, 58, 0
2, 659340, Note_on_c, 0, 60, 100
2, 659400, Note_on_c, 0, 60, 0
2, 659400, Note_on_c, 0, 58, 100
2, 659460, Note_on_c, 0, 58, 0
2, 659460, Note_on_c, 0, 57, 100
2, 659520, Note_on_c, 0, 57, 0
2, 659520, Note_on_c, 0, 58, 100
2, 659580, Note_on_c, 0, 62, 100
2, 659640, Note_on_c, 0, 62, 0
2, 659640, Note_on_c, 0, 58, 0
2, 659640, Note_on_c, 0, 63, 100
2, 659640, Note_on_c, 0, 60, 100
2, 659700, Note_on_c, 0, 63, 0
2, 659760, Note_on_c, 0, 60, 0
2, 659760, Note_on_c, 0, 62, 100
2, 659880, Note_on_c, 0, 62, 0
2, 659880, Note_on_c, 0, 63, 100
2, 660000, Note_on_c, 0, 63, 0
2, 660000, Note_on_c, 0, 62, 100
2, 660120, Note_on_c, 0, 62, 0
2, 660120, Note_on_c, 0, 65, 100
2, 660240, Note_on_c, 0, 65, 0
2, 660240, Note_on_c, 0, 63, 100
2, 660360, Note_on_c, 0, 63, 0
2, 660360, Note_on_c, 0, 62, 100
2, 660480, Note_on_c, 0, 62, 0
2, 660480, Note_on_c, 0, 61, 100
2, 660540, Note_on_c, 0, 61, 0
2, 660540, Note_on_c, 0, 59, 100
2, 660600, Note_on_c, 0, 59, 0
2, 660600, Note_on_c, 0, 57, 100
2, 660660, Note_on_c, 0, 57, 0
2, 660660, Note_on_c, 0, 59, 100
2, 660720, Note_on_c, 0, 59, 0
2, 660720, Note_on_c, 0, 61, 100
2, 660840, Note_on_c, 0, 61, 0
2, 660840, Note_on_c, 0, 62, 100
2, 660960, Note_on_c, 0, 62, 0
2, 660960, Note_on_c, 0, 64, 100
2, 661080, Note_on_c, 0, 64, 0
2, 661080, Note_on_c, 0, 65, 100
2, 661200, Note_on_c, 0, 65, 0
2, 661200, Note_on_c, 0, 64, 100
2, 661320, Note_on_c, 0, 64, 0
2, 661320, Note_on_c, 0, 67, 100
2, 661440, Note_on_c, 0, 67, 0
2, 661440, Note_on_c, 0, 65, 100
2, 661560, Note_on_c, 0, 65, 0
2, 661560, Note_on_c, 0, 64, 100
2, 661680, Note_on_c, 0, 64, 0
2, 661680, Note_on_c, 0, 62, 100
2, 661740, Note_on_c, 0, 62, 0
2, 661740, Note_on_c, 0, 64, 100
2, 661800, Note_on_c, 0, 64, 0
2, 661800, Note_on_c, 0, 62, 100
2, 661860, Note_on_c, 0, 62, 0
2, 661860, Note_on_c, 0, 61, 100
2, 661920, Note_on_c, 0, 61, 0
2, 661920, Note_on_c, 0, 62, 100
2, 662040, Note_on_c, 0, 62, 0
2, 662040, Note_on_c, 0, 64, 100
2, 662160, Note_on_c, 0, 64, 0
2, 662160, Note_on_c, 0, 65, 100
2, 662160, Note_on_c, 0, 69, 100
2, 662220, Note_on_c, 0, 69, 0
2, 662220, Note_on_c, 0, 65, 0
2, 662220, Note_on_c, 0, 64, 100
2, 662220, Note_on_c, 0, 67, 100
2, 662280, Note_on_c, 0, 67, 0
2, 662280, Note_on_c, 0, 64, 0
2, 662280, Note_on_c, 0, 62, 100
2, 662280, Note_on_c, 0, 65, 100
2, 662340, Note_on_c, 0, 65, 0
2, 662340, Note_on_c, 0, 64, 100
2, 662400, Note_on_c, 0, 64, 0
2, 662400, Note_on_c, 0, 62, 100
2, 662460, Note_on_c, 0, 62, 0
2, 662460, Note_on_c, 0, 60, 100
2, 662520, Note_on_c, 0, 60, 0
2, 662520, Note_on_c, 0, 58, 100
2, 662580, Note_on_c, 0, 58, 0
2, 662580, Note_on_c, 0, 57, 100
2, 662640, Note_on_c, 0, 57, 0
2, 662640, Note_on_c, 0, 58, 100
2, 662700, Note_on_c, 0, 62, 0
2, 662700, Note_on_c, 0, 61, 100
2, 662760, Note_on_c, 0, 61, 0
2, 662760, Note_on_c, 0, 62, 100
2, 662820, Note_on_c, 0, 62, 0
2, 662820, Note_on_c, 0, 64, 100
2, 662880, Note_on_c, 0, 64, 0
2, 662880, Note_on_c, 0, 58, 0
2, 662880, Note_on_c, 0, 65, 100
2, 662880, Note_on_c, 0, 57, 100
2, 663000, Note_on_c, 0, 65, 0
2, 663000, Note_on_c, 0, 67, 100
2, 663120, Note_on_c, 0, 67, 0
2, 663120, Note_on_c, 0, 69, 100
2, 663180, Note_on_c, 0, 57, 0
2, 663360, Note_on_c, 0, 57, 100
2, 663480, Note_on_c, 0, 69, 0
2, 663480, Note_on_c, 0, 70, 100
2, 663540, Note_on_c, 0, 70, 0
2, 663540, Note_on_c, 0, 72, 100
2, 663600, Note_on_c, 0, 72, 0
2, 663600, Note_on_c, 0, 57, 0
2, 663600, Note_on_c, 0, 70, 100
2, 663840, Note_on_c, 0, 70, 0
2, 663840, Note_on_c, 0, 69, 100
2, 663900, Note_on_c, 0, 70, 100
2, 663960, Note_on_c, 0, 70, 0
2, 663960, Note_on_c, 0, 69, 100
2, 664020, Note_on_c, 0, 69, 0
2, 664020, Note_on_c, 0, 67, 100
2, 664080, Note_on_c, 0, 67, 0
2, 664080, Note_on_c, 0, 65, 100
2, 664140, Note_on_c, 0, 65, 0
2, 664140, Note_on_c, 0, 62, 100
2, 664200, Note_on_c, 0, 62, 0
2, 664200, Note_on_c, 0, 69, 0
2, 664200, Note_on_c, 0, 64, 100
2, 664200, Note_on_c, 0, 67, 100
2, 664260, Note_on_c, 0, 64, 0
2, 664260, Note_on_c, 0, 61, 100
2, 664320, Note_on_c, 0, 61, 0
2, 664320, Note_on_c, 0, 67, 0
2, 664320, Note_on_c, 0, 62, 100
2, 664320, Note_on_c, 0, 65, 100
2, 664680, Note_on_c, 0, 65, 0
2, 664680, Note_on_c, 0, 62, 0
2, 664680, Note_on_c, 0, 60, 100
2, 664680, Note_on_c, 0, 64, 100
2, 664800, Note_on_c, 0, 64, 0
2, 664800, Note_on_c, 0, 60, 0
2, 664800, Note_on_c, 0, 62, 100
2, 664800, Note_on_c, 0, 65, 100
2, 664920, Note_on_c, 0, 65, 0
2, 664920, Note_on_c, 0, 62, 0
2, 664920, Note_on_c, 0, 64, 100
2, 664920, Note_on_c, 0, 67, 100
2, 665040, Note_on_c, 0, 67, 0
2, 665040, Note_on_c, 0, 64, 0
2, 665040, Note_on_c, 0, 65, 100
2, 665040, Note_on_c, 0, 69, 100
2, 665100, Note_on_c, 0, 65, 0
2, 665100, Note_on_c, 0, 64, 100
2, 665160, Note_on_c, 0, 64, 0
2, 665160, Note_on_c, 0, 62, 100
2, 665280, Note_on_c, 0, 62, 0
2, 665280, Note_on_c, 0, 69, 100
2, 665340, Note_on_c, 0, 69, 0
2, 665340, Note_on_c, 0, 70, 100
2, 665400, Note_on_c, 0, 70, 0
2, 665400, Note_on_c, 0, 69, 0
2, 665400, Note_on_c, 0, 69, 100
2, 665460, Note_on_c, 0, 69, 0
2, 665460, Note_on_c, 0, 67, 100
2, 665520, Note_on_c, 0, 67, 0
2, 665520, Note_on_c, 0, 65, 100
2, 665640, Note_on_c, 0, 65, 0
2, 665640, Note_on_c, 0, 57, 100
2, 665640, Note_on_c, 0, 69, 100
2, 665760, Note_on_c, 0, 69, 0
2, 665760, Note_on_c, 0, 64, 100
2, 665880, Note_on_c, 0, 57, 0
2, 666060, Note_on_c, 0, 64, 0
2, 666060, Note_on_c, 0, 65, 100
2, 666120, Note_on_c, 0, 65, 0
2, 666120, Note_on_c, 0, 60, 100
2, 666120, Note_on_c, 0, 64, 100
2, 666180, Note_on_c, 0, 64, 0
2, 666180, Note_on_c, 0, 60, 0
2, 666180, Note_on_c, 0, 59, 100
2, 666180, Note_on_c, 0, 62, 100
2, 666240, Note_on_c, 0, 62, 0
2, 666240, Note_on_c, 0, 59, 0
2, 666240, Note_on_c, 0, 57, 100
2, 666240, Note_on_c, 0, 64, 100
2, 666300, Note_on_c, 0, 57, 0
2, 666300, Note_on_c, 0, 59, 100
2, 666360, Note_on_c, 0, 59, 0
2, 666360, Note_on_c, 0, 64, 0
2, 666360, Note_on_c, 0, 60, 100
2, 666360, Note_on_c, 0, 65, 100
2, 666420, Note_on_c, 0, 60, 0
2, 666420, Note_on_c, 0, 62, 100
2, 666480, Note_on_c, 0, 62, 0
2, 666480, Note_on_c, 0, 65, 0
2, 666480, Note_on_c, 0, 67, 100
2, 666480, Note_on_c, 0, 64, 100
2, 666540, Note_on_c, 0, 64, 0
2, 666540, Note_on_c, 0, 62, 100
2, 666600, Note_on_c, 0, 62, 0
2, 666600, Note_on_c, 0, 61, 100
2, 666780, Note_on_c, 0, 67, 0
2, 666780, Note_on_c, 0, 69, 100
2, 666840, Note_on_c, 0, 69, 0
2, 666840, Note_on_c, 0, 61, 0
2, 666840, Note_on_c, 0, 67, 100
2, 666840, Note_on_c, 0, 64, 100
2, 666900, Note_on_c, 0, 67, 0
2, 666900, Note_on_c, 0, 65, 100
2, 666960, Note_on_c, 0, 65, 0
2, 666960, Note_on_c, 0, 64, 0
2, 666960, Note_on_c, 0, 64, 100
2, 666960, Note_on_c, 0, 60, 100
2, 667080, Note_on_c, 0, 60, 0
2, 667080, Note_on_c, 0, 64, 0
2, 667080, Note_on_c, 0, 55, 100
2, 667080, Note_on_c, 0, 67, 100
2, 667200, Note_on_c, 0, 67, 0
2, 667200, Note_on_c, 0, 62, 100
2, 667260, Note_on_c, 0, 55, 0
2, 667260, Note_on_c, 0, 57, 100
2, 667320, Note_on_c, 0, 57, 0
2, 667320, Note_on_c, 0, 55, 100
2, 667380, Note_on_c, 0, 55, 0
2, 667380, Note_on_c, 0, 53, 100
2, 667440, Note_on_c, 0, 53, 0
2, 667440, Note_on_c, 0, 52, 100
2, 667500, Note_on_c, 0, 62, 0
2, 667500, Note_on_c, 0, 64, 100
2, 667560, Note_on_c, 0, 64, 0
2, 667560, Note_on_c, 0, 52, 0
2, 667560, Note_on_c, 0, 58, 100
2, 667560, Note_on_c, 0, 62, 100
2, 667620, Note_on_c, 0, 62, 0
2, 667620, Note_on_c, 0, 60, 100
2, 667680, Note_on_c, 0, 60, 0
2, 667680, Note_on_c, 0, 62, 100
2, 667800, Note_on_c, 0, 62, 0
2, 667800, Note_on_c, 0, 58, 0
2, 667800, Note_on_c, 0, 55, 100
2, 667800, Note_on_c, 0, 67, 100
2, 667920, Note_on_c, 0, 67, 0
2, 667920, Note_on_c, 0, 55, 0
2, 667920, Note_on_c, 0, 57, 100
2, 667920, Note_on_c, 0, 65, 100
2, 668220, Note_on_c, 0, 57, 0
2, 668220, Note_on_c, 0, 60, 100
2, 668280, Note_on_c, 0, 60, 0
2, 668280, Note_on_c, 0, 65, 0
2, 668280, Note_on_c, 0, 67, 100
2, 668280, Note_on_c, 0, 58, 100
2, 668340, Note_on_c, 0, 58, 0
2, 668340, Note_on_c, 0, 67, 0
2, 668340, Note_on_c, 0, 69, 100
2, 668340, Note_on_c, 0, 57, 100
2, 668400, Note_on_c, 0, 57, 0
2, 668400, Note_on_c, 0, 69, 0
2, 668400, Note_on_c, 0, 70, 100
2, 668400, Note_on_c, 0, 55, 100
2, 668460, Note_on_c, 0, 55, 0
2, 668460, Note_on_c, 0, 70, 0
2, 668460, Note_on_c, 0, 74, 100
2, 668460, Note_on_c, 0, 58, 100
2, 668520, Note_on_c, 0, 58, 0
2, 668520, Note_on_c, 0, 74, 0
2, 668520, Note_on_c, 0, 72, 100
2, 668520, Note_on_c, 0, 57, 100
2, 668580, Note_on_c, 0, 57, 0
2, 668580, Note_on_c, 0, 72, 0
2, 668580, Note_on_c, 0, 70, 100
2, 668580, Note_on_c, 0, 55, 100
2, 668640, Note_on_c, 0, 55, 0
2, 668640, Note_on_c, 0, 70, 0
2, 668640, Note_on_c, 0, 62, 100
2, 668640, Note_on_c, 0, 69, 100
2, 668700, Note_on_c, 0, 69, 0
2, 668700, Note_on_c, 0, 70, 100
2, 668760, Note_on_c, 0, 70, 0
2, 668760, Note_on_c, 0, 62, 0
2, 668760, Note_on_c, 0, 69, 100
2, 668820, Note_on_c, 0, 69, 0
2, 668820, Note_on_c, 0, 67, 100
2, 668880, Note_on_c, 0, 67, 0
2, 668880, Note_on_c, 0, 65, 100
2, 668880, Note_on_c, 0, 69, 100
2, 668940, Note_on_c, 0, 69, 0
2, 668940, Note_on_c, 0, 67, 100
2, 669000, Note_on_c, 0, 67, 0
2, 669000, Note_on_c, 0, 65, 100
2, 669060, Note_on_c, 0, 65, 0
2, 669060, Note_on_c, 0, 64, 100
2, 669120, Note_on_c, 0, 64, 0
2, 669120, Note_on_c, 0, 62, 100
2, 669180, Note_on_c, 0, 65, 0
2, 669180, Note_on_c, 0, 67, 100
2, 669240, Note_on_c, 0, 67, 0
2, 669240, Note_on_c, 0, 65, 100
2, 669300, Note_on_c, 0, 65, 0
2, 669300, Note_on_c, 0, 64, 100
2, 669360, Note_on_c, 0, 64, 0
2, 669360, Note_on_c, 0, 62, 100
2, 669420, Note_on_c, 0, 62, 0
2, 669420, Note_on_c, 0, 61, 100
2, 669480, Note_on_c, 0, 61, 0
2, 669480, Note_on_c, 0, 62, 0
2, 669480, Note_on_c, 0, 62, 100
2, 669540, Note_on_c, 0, 62, 0
2, 669540, Note_on_c, 0, 64, 100
2, 669600, Note_on_c, 0, 64, 0
2, 669600, Note_on_c, 0, 81, 100
2, 669600, Note_on_c, 0, 65, 100
2, 669660, Note_on_c, 0, 81, 0
2, 669660, Note_on_c, 0, 79, 100
2, 669720, Note_on_c, 0, 79, 0
2, 669720, Note_on_c, 0, 77, 100
2, 669780, Note_on_c, 0, 77, 0
2, 669780, Note_on_c, 0, 76, 100
2, 669840, Note_on_c, 0, 76, 0
2, 669840, Note_on_c, 0, 74, 100
2, 669900, Note_on_c, 0, 65, 0
2, 669900, Note_on_c, 0, 67, 100
2, 669960, Note_on_c, 0, 67, 0
2, 669960, Note_on_c, 0, 69, 100
2, 670020, Note_on_c, 0, 69, 0
2, 670020, Note_on_c, 0, 70, 100
2, 670080, Note_on_c, 0, 70, 0
2, 670080, Note_on_c, 0, 69, 100
2, 670140, Note_on_c, 0, 69, 0
2, 670140, Note_on_c, 0, 62, 100
2, 670200, Note_on_c, 0, 62, 0
2, 670200, Note_on_c, 0, 74, 0
2, 670200, Note_on_c, 0, 60, 100
2, 670200, Note_on_c, 0, 76, 100
2, 670260, Note_on_c, 0, 60, 0
2, 670260, Note_on_c, 0, 58, 100
2, 670320, Note_on_c, 0, 58, 0
2, 670320, Note_on_c, 0, 76, 0
2, 670320, Note_on_c, 0, 57, 100
2, 670320, Note_on_c, 0, 77, 100
2, 670380, Note_on_c, 0, 57, 0
2, 670380, Note_on_c, 0, 55, 100
2, 670440, Note_on_c, 0, 55, 0
2, 670440, Note_on_c, 0, 77, 0
2, 670440, Note_on_c, 0, 57, 100
2, 670440, Note_on_c, 0, 79, 100
2, 670500, Note_on_c, 0, 57, 0
2, 670500, Note_on_c, 0, 58, 100
2, 670560, Note_on_c, 0, 58, 0
2, 670560, Note_on_c, 0, 79, 0
2, 670560, Note_on_c, 0, 57, 100
2, 670560, Note_on_c, 0, 77, 100
2, 670620, Note_on_c, 0, 77, 0
2, 670620, Note_on_c, 0, 74, 100
2, 670680, Note_on_c, 0, 74, 0
2, 670680, Note_on_c, 0, 57, 0
2, 670680, Note_on_c, 0, 64, 100
2, 670680, Note_on_c, 0, 72, 100
2, 670740, Note_on_c, 0, 72, 0
2, 670740, Note_on_c, 0, 70, 100
2, 670800, Note_on_c, 0, 70, 0
2, 670800, Note_on_c, 0, 64, 0
2, 670800, Note_on_c, 0, 65, 100
2, 670800, Note_on_c, 0, 69, 100
2, 670920, Note_on_c, 0, 65, 0
2, 670920, Note_on_c, 0, 61, 100
2, 671100, Note_on_c, 0, 61, 0
2, 671100, Note_on_c, 0, 62, 100
2, 671160, Note_on_c, 0, 62, 0
2, 671160, Note_on_c, 0, 64, 100
2, 671220, Note_on_c, 0, 64, 0
2, 671220, Note_on_c, 0, 62, 100
2, 671280, Note_on_c, 0, 62, 0
2, 671280, Note_on_c, 0, 61, 100
2, 671340, Note_on_c, 0, 61, 0
2, 671340, Note_on_c, 0, 59, 100
2, 671400, Note_on_c, 0, 59, 0
2, 671400, Note_on_c, 0, 61, 100
2, 671460, Note_on_c, 0, 61, 0
2, 671460, Note_on_c, 0, 62, 100
2, 671520, Note_on_c, 0, 62, 0
2, 671520, Note_on_c, 0, 64, 100
2, 671580, Note_on_c, 0, 64, 0
2, 671580, Note_on_c, 0, 69, 100
2, 671640, Note_on_c, 0, 69, 0
2, 671640, Note_on_c, 0, 67, 100
2, 671700, Note_on_c, 0, 67, 0
2, 671700, Note_on_c, 0, 65, 100
2, 671760, Note_on_c, 0, 65, 0
2, 671760, Note_on_c, 0, 64, 100
2, 671820, Note_on_c, 0, 64, 0
2, 671820, Note_on_c, 0, 62, 100
2, 671880, Note_on_c, 0, 62, 0
2, 671880, Note_on_c, 0, 61, 100
2, 671940, Note_on_c, 0, 61, 0
2, 671940, Note_on_c, 0, 59, 100
2, 672000, Note_on_c, 0, 59, 0
2, 672000, Note_on_c, 0, 61, 100
2, 672060, Note_on_c, 0, 61, 0
2, 672060, Note_on_c, 0, 62, 100
2, 672120, Note_on_c, 0, 62, 0
2, 672120, Note_on_c, 0, 64, 100
2, 672180, Note_on_c, 0, 64, 0
2, 672180, Note_on_c, 0, 66, 100
2, 672210, Note_on_c, 0, 66, 0
2, 672210, Note_on_c, 0, 67, 100
2, 672240, Note_on_c, 0, 67, 0
2, 672240, Note_on_c, 0, 66, 100
2, 672300, Note_on_c, 0, 66, 0
2, 672300, Note_on_c, 0, 64, 100
2, 672360, Note_on_c, 0, 64, 0
2, 672360, Note_on_c, 0, 62, 100
2, 672480, Note_on_c, 0, 62, 0
2, 672480, Note_on_c, 0, 69, 100
2, 672540, Note_on_c, 0, 69, 0
2, 672540, Note_on_c, 0, 74, 100
2, 672570, Note_on_c, 0, 74, 0
2, 672570, Note_on_c, 0, 76, 100
2, 672600, Note_on_c, 0, 76, 0
2, 672600, Note_on_c, 0, 78, 100
2, 672630, Note_on_c, 0, 78, 0
2, 672630, Note_on_c, 0, 76, 100
2, 672660, Note_on_c, 0, 76, 0
2, 672660, Note_on_c, 0, 74, 100
2, 672720, Note_on_c, 0, 74, 0
2, 672720, Note_on_c, 0, 81, 100
2, 672960, Note_on_c, 0, 81, 0
2, 672960, Note_on_c, 0, 69, 0
2, 675390, Note_on_c, 0, 74, 100
2, 675480, Note_on_c, 0, 74, 0
2, 675480, Note_on_c, 0, 69, 100
2, 675570, Note_on_c, 0, 69, 0
2, 675570, Note_on_c, 0, 81, 100
2, 675690, Note_on_c, 0, 81, 0
2, 675690, Note_on_c, 0, 79, 100
2, 675720, Note_on_c, 0, 79, 0
2, 675720, Note_on_c, 0, 77, 100
2, 675750, Note_on_c, 0, 77, 0
2, 675750, Note_on_c, 0, 79, 100
2, 675780, Note_on_c, 0, 79, 0
2, 675780, Note_on_c, 0, 77, 100
2, 675810, Note_on_c, 0, 77, 0
2, 675810, Note_on_c, 0, 76, 100
2, 675840, Note_on_c, 0, 76, 0
2, 675840, Note_on_c, 0, 77, 100
2, 675870, Note_on_c, 0, 77, 0
2, 675870, Note_on_c, 0, 76, 100
2, 675900, Note_on_c, 0, 76, 0
2, 675900, Note_on_c, 0, 74, 100
2, 675930, Note_on_c, 0, 74, 0
2, 675930, Note_on_c, 0, 76, 100
2, 676050, Note_on_c, 0, 76, 0
2, 676050, Note_on_c, 0, 74, 100
2, 676080, Note_on_c, 0, 74, 0
2, 676080, Note_on_c, 0, 73, 100
2, 676110, Note_on_c, 0, 73, 0
2, 676110, Note_on_c, 0, 74, 100
2, 676140, Note_on_c, 0, 74, 0
2, 676140, Note_on_c, 0, 73, 100
2, 676170, Note_on_c, 0, 73, 0
2, 676170, Note_on_c, 0, 71, 100
2, 676200, Note_on_c, 0, 71, 0
2, 676200, Note_on_c, 0, 73, 100
2, 676230, Note_on_c, 0, 73, 0
2, 676230, Note_on_c, 0, 74, 100
2, 676260, Note_on_c, 0, 74, 0
2, 676260, Note_on_c, 0, 76, 100
2, 676290, Note_on_c, 0, 76, 0
2, 676290, Note_on_c, 0, 74, 100
2, 676410, Note_on_c, 0, 74, 0
2, 676410, Note_on_c, 0, 76, 100
2, 676440, Note_on_c, 0, 76, 0
2, 676440, Note_on_c, 0, 77, 100
2, 676470, Note_on_c, 0, 77, 0
2, 676470, Note_on_c, 0, 76, 100
2, 676500, Note_on_c, 0, 76, 0
2, 676500, Note_on_c, 0, 77, 100
2, 676530, Note_on_c, 0, 77, 0
2, 676530, Note_on_c, 0, 79, 100
2, 676560, Note_on_c, 0, 79, 0
2, 676560, Note_on_c, 0, 77, 100
2, 676620, Note_on_c, 0, 77, 0
2, 676620, Note_on_c, 0, 74, 100
2, 676650, Note_on_c, 0, 74, 0
2, 676650, Note_on_c, 0, 69, 100
2, 676710, Note_on_c, 0, 69, 0
2, 676710, Note_on_c, 0, 74, 100
2, 676740, Note_on_c, 0, 74, 0
2, 676740, Note_on_c, 0, 77, 100
2, 676800, Note_on_c, 0, 77, 0
2, 676800, Note_on_c, 0, 79, 100
2, 676830, Note_on_c, 0, 79, 0
2, 676830, Note_on_c, 0, 69, 100
2, 676830, Note_on_c, 0, 77, 100
2, 676890, Note_on_c, 0, 77, 0
2, 676890, Note_on_c, 0, 76, 100
2, 676920, Note_on_c, 0, 76, 0
2, 676920, Note_on_c, 0, 69, 0
2, 676920, Note_on_c, 0, 74, 100
2, 676920, Note_on_c, 0, 74, 100
2, 676950, Note_on_c, 0, 74, 0
2, 676950, Note_on_c, 0, 79, 100
2, 676980, Note_on_c, 0, 79, 0
2, 676980, Note_on_c, 0, 76, 100
2, 677010, Note_on_c, 0, 76, 0
2, 677010, Note_on_c, 0, 74, 0
2, 677010, Note_on_c, 0, 62, 100
2, 677010, Note_on_c, 0, 77, 100
2, 677040, Note_on_c, 0, 77, 0
2, 677040, Note_on_c, 0, 79, 100
2, 677070, Note_on_c, 0, 79, 0
2, 677070, Note_on_c, 0, 81, 100
2, 677100, Note_on_c, 0, 81, 0
2, 677100, Note_on_c, 0, 82, 100
2, 677130, Note_on_c, 0, 62, 0
2, 677130, Note_on_c, 0, 64, 100
2, 677160, Note_on_c, 0, 64, 0
2, 677160, Note_on_c, 0, 65, 100
2, 677190, Note_on_c, 0, 65, 0
2, 677190, Note_on_c, 0, 82, 0
2, 677190, Note_on_c, 0, 73, 100
2, 677190, Note_on_c, 0, 64, 100
2, 677220, Note_on_c, 0, 64, 0
2, 677220, Note_on_c, 0, 65, 100
2, 677250, Note_on_c, 0, 65, 0
2, 677250, Note_on_c, 0, 67, 100
2, 677280, Note_on_c, 0, 67, 0
2, 677280, Note_on_c, 0, 73, 0
2, 677280, Note_on_c, 0, 65, 100
2, 677280, Note_on_c, 0, 74, 100
2, 677310, Note_on_c, 0, 65, 0
2, 677310, Note_on_c, 0, 67, 100
2, 677340, Note_on_c, 0, 67, 0
2, 677340, Note_on_c, 0, 69, 100
2, 677370, Note_on_c, 0, 69, 0
2, 677370, Note_on_c, 0, 67, 100
2, 677400, Note_on_c, 0, 74, 0
2, 677400, Note_on_c, 0, 76, 100
2, 677430, Note_on_c, 0, 76, 0
2, 677430, Note_on_c, 0, 77, 100
2, 677460, Note_on_c, 0, 77, 0
2, 677460, Note_on_c, 0, 76, 100
2, 677490, Note_on_c, 0, 67, 0
2, 677490, Note_on_c, 0, 69, 100
2, 677520, Note_on_c, 0, 69, 0
2, 677520, Note_on_c, 0, 70, 100
2, 677550, Note_on_c, 0, 70, 0
2, 677550, Note_on_c, 0, 69, 100
2, 677580, Note_on_c, 0, 69, 0
2, 677580, Note_on_c, 0, 70, 100
2, 677610, Note_on_c, 0, 70, 0
2, 677610, Note_on_c, 0, 72, 100
2, 677640, Note_on_c, 0, 72, 0
2, 677640, Note_on_c, 0, 70, 100
2, 677670, Note_on_c, 0, 70, 0
2, 677670, Note_on_c, 0, 69, 100
2, 677700, Note_on_c, 0, 69, 0
2, 677700, Note_on_c, 0, 67, 100
2, 677730, Note_on_c, 0, 67, 0
2, 677730, Note_on_c, 0, 69, 100
2, 677760, Note_on_c, 0, 76, 0
2, 677760, Note_on_c, 0, 77, 100
2, 677790, Note_on_c, 0, 77, 0
2, 677790, Note_on_c, 0, 79, 100
2, 677820, Note_on_c, 0, 79, 0
2, 677820, Note_on_c, 0, 77, 100
2, 677850, Note_on_c, 0, 69, 0
2, 677850, Note_on_c, 0, 67, 100
2, 677880, Note_on_c, 0, 67, 0
2, 677880, Note_on_c, 0, 77, 0
2, 677880, Note_on_c, 0, 69, 100
2, 677880, Note_on_c, 0, 65, 100
2, 677910, Note_on_c, 0, 65, 0
2, 677910, Note_on_c, 0, 69, 0
2, 677910, Note_on_c, 0, 71, 100
2, 677910, Note_on_c, 0, 67, 100
2, 677940, Note_on_c, 0, 67, 0
2, 677940, Note_on_c, 0, 65, 100
2, 677970, Note_on_c, 0, 65, 0
2, 677970, Note_on_c, 0, 71, 0
2, 677970, Note_on_c, 0, 73, 100
2, 677970, Note_on_c, 0, 64, 100
2, 678000, Note_on_c, 0, 64, 0
2, 678000, Note_on_c, 0, 73, 0
2, 678000, Note_on_c, 0, 77, 100
2, 678000, Note_on_c, 0, 69, 100
2, 678030, Note_on_c, 0, 69, 0
2, 678030, Note_on_c, 0, 70, 100
2, 678060, Note_on_c, 0, 70, 0
2, 678060, Note_on_c, 0, 72, 100
2, 678090, Note_on_c, 0, 72, 0
2, 678090, Note_on_c, 0, 77, 0
2, 678090, Note_on_c, 0, 70, 100
2, 678120, Note_on_c, 0, 70, 0
2, 678120, Note_on_c, 0, 69, 100
2, 678150, Note_on_c, 0, 69, 0
2, 678150, Note_on_c, 0, 67, 100
2, 678180, Note_on_c, 0, 67, 0
2, 678180, Note_on_c, 0, 66, 100
2, 678270, Note_on_c, 0, 66, 0
2, 678270, Note_on_c, 0, 75, 100
2, 678270, Note_on_c, 0, 78, 100
2, 678360, Note_on_c, 0, 78, 0
2, 678360, Note_on_c, 0, 75, 0
2, 678360, Note_on_c, 0, 79, 100
2, 678360, Note_on_c, 0, 74, 100
2, 678390, Note_on_c, 0, 79, 0
2, 678390, Note_on_c, 0, 78, 100
2, 678420, Note_on_c, 0, 78, 0
2, 678420, Note_on_c, 0, 76, 100
2, 678450, Note_on_c, 0, 76, 0
2, 678450, Note_on_c, 0, 74, 0
2, 678450, Note_on_c, 0, 77, 100
2, 678480, Note_on_c, 0, 77, 0
2, 678480, Note_on_c, 0, 79, 100
2, 678510, Note_on_c, 0, 79, 0
2, 678510, Note_on_c, 0, 76, 100
2, 678540, Note_on_c, 0, 76, 0
2, 678540, Note_on_c, 0, 77, 100
2, 678570, Note_on_c, 0, 77, 0
2, 678570, Note_on_c, 0, 79, 100
2, 678600, Note_on_c, 0, 79, 0
2, 678600, Note_on_c, 0, 81, 100
2, 678630, Note_on_c, 0, 81, 0
2, 678630, Note_on_c, 0, 82, 100
2, 678660, Note_on_c, 0, 82, 0
2, 678660, Note_on_c, 0, 81, 100
2, 678690, Note_on_c, 0, 81, 0
2, 678690, Note_on_c, 0, 79, 100
2, 678720, Note_on_c, 0, 79, 0
2, 678720, Note_on_c, 0, 81, 100
2, 678810, Note_on_c, 0, 81, 0
2, 678990, Note_on_c, 0, 78, 100
2, 679080, Note_on_c, 0, 78, 0
2, 679080, Note_on_c, 0, 79, 100
2, 679170, Note_on_c, 0, 79, 0
2, 679170, Note_on_c, 0, 82, 100
2, 679260, Note_on_c, 0, 82, 0
2, 679260, Note_on_c, 0, 79, 100
2, 679350, Note_on_c, 0, 79, 0
2, 679350, Note_on_c, 0, 74, 100
2, 679410, Note_on_c, 0, 74, 0
2, 679410, Note_on_c, 0, 72, 100
2, 679440, Note_on_c, 0, 72, 0
2, 679440, Note_on_c, 0, 70, 100
2, 679530, Note_on_c, 0, 70, 0
2, 679530, Note_on_c, 0, 74, 100
2, 679530, Note_on_c, 0, 70, 100
2, 679590, Note_on_c, 0, 70, 0
2, 679590, Note_on_c, 0, 67, 100
2, 679620, Note_on_c, 0, 67, 0
2, 679620, Note_on_c, 0, 74, 0
2, 679620, Note_on_c, 0, 70, 100
2, 679620, Note_on_c, 0, 62, 100
2, 679680, Note_on_c, 0, 62, 0
2, 679680, Note_on_c, 0, 60, 100
2, 679710, Note_on_c, 0, 60, 0
2, 679710, Note_on_c, 0, 70, 0
2, 679710, Note_on_c, 0, 67, 100
2, 679710, Note_on_c, 0, 62, 100
2, 679770, Note_on_c, 0, 62, 0
2, 679770, Note_on_c, 0, 64, 100
2, 679800, Note_on_c, 0, 64, 0
2, 679800, Note_on_c, 0, 67, 0
2, 679800, Note_on_c, 0, 65, 100
2, 679800, Note_on_c, 0, 69, 100
2, 679860, Note_on_c, 0, 65, 0
2, 679860, Note_on_c, 0, 60, 100
2, 679890, Note_on_c, 0, 60, 0
2, 679890, Note_on_c, 0, 69, 0
2, 679890, Note_on_c, 0, 81, 100
2, 679980, Note_on_c, 0, 81, 0
2, 679980, Note_on_c, 0, 65, 100
2, 680040, Note_on_c, 0, 65, 0
2, 680040, Note_on_c, 0, 69, 100
2, 680070, Note_on_c, 0, 69, 0
2, 680070, Note_on_c, 0, 67, 100
2, 680130, Note_on_c, 0, 67, 0
2, 680130, Note_on_c, 0, 65, 100
2, 680160, Note_on_c, 0, 65, 0
2, 680160, Note_on_c, 0, 64, 100
2, 680220, Note_on_c, 0, 64, 0
2, 680220, Note_on_c, 0, 69, 100
2, 680250, Note_on_c, 0, 69, 0
2, 680250, Note_on_c, 0, 72, 100
2, 680250, Note_on_c, 0, 76, 100
2, 680310, Note_on_c, 0, 72, 0
2, 680310, Note_on_c, 0, 69, 100
2, 680340, Note_on_c, 0, 69, 0
2, 680340, Note_on_c, 0, 76, 0
2, 680340, Note_on_c, 0, 64, 100
2, 680340, Note_on_c, 0, 72, 100
2, 680400, Note_on_c, 0, 64, 0
2, 680400, Note_on_c, 0, 62, 100
2, 680430, Note_on_c, 0, 62, 0
2, 680430, Note_on_c, 0, 72, 0
2, 680430, Note_on_c, 0, 64, 100
2, 680430, Note_on_c, 0, 69, 100
2, 680490, Note_on_c, 0, 64, 0
2, 680490, Note_on_c, 0, 66, 100
2, 680520, Note_on_c, 0, 66, 0
2, 680520, Note_on_c, 0, 69, 0
2, 680520, Note_on_c, 0, 67, 100
2, 680520, Note_on_c, 0, 70, 100
2, 680580, Note_on_c, 0, 67, 0
2, 680580, Note_on_c, 0, 62, 100
2, 680610, Note_on_c, 0, 62, 0
2, 680610, Note_on_c, 0, 70, 0
2, 680610, Note_on_c, 0, 82, 100
2, 680700, Note_on_c, 0, 82, 0
2, 680700, Note_on_c, 0, 67, 100
2, 680760, Note_on_c, 0, 67, 0
2, 680760, Note_on_c, 0, 70, 100
2, 680790, Note_on_c, 0, 70, 0
2, 680790, Note_on_c, 0, 69, 100
2, 680850, Note_on_c, 0, 69, 0
2, 680850, Note_on_c, 0, 67, 100
2, 680880, Note_on_c, 0, 67, 0
2, 680880, Note_on_c, 0, 65, 100
2, 680940, Note_on_c, 0, 65, 0
2, 680940, Note_on_c, 0, 64, 100
2, 680970, Note_on_c, 0, 64, 0
2, 680970, Note_on_c, 0, 65, 100
2, 681030, Note_on_c, 0, 65, 0
2, 681030, Note_on_c, 0, 67, 100
2, 681060, Note_on_c, 0, 67, 0
2, 681060, Note_on_c, 0, 69, 100
2, 681120, Note_on_c, 0, 69, 0
2, 681120, Note_on_c, 0, 67, 100
2, 681150, Note_on_c, 0, 67, 0
2, 681150, Note_on_c, 0, 65, 100
2, 681210, Note_on_c, 0, 65, 0
2, 681210, Note_on_c, 0, 69, 100
2, 681240, Note_on_c, 0, 69, 0
2, 681240, Note_on_c, 0, 64, 100
2, 681300, Note_on_c, 0, 64, 0
2, 681300, Note_on_c, 0, 62, 100
2, 681330, Note_on_c, 0, 62, 0
2, 681330, Note_on_c, 0, 64, 100
2, 681390, Note_on_c, 0, 64, 0
2, 681390, Note_on_c, 0, 65, 100
2, 681420, Note_on_c, 0, 65, 0
2, 681420, Note_on_c, 0, 67, 100
2, 681480, Note_on_c, 0, 67, 0
2, 681480, Note_on_c, 0, 65, 100
2, 681510, Note_on_c, 0, 65, 0
2, 681510, Note_on_c, 0, 64, 100
2, 681570, Note_on_c, 0, 64, 0
2, 681570, Note_on_c, 0, 67, 100
2, 681600, Note_on_c, 0, 67, 0
2, 681600, Note_on_c, 0, 62, 100
2, 681660, Note_on_c, 0, 62, 0
2, 681660, Note_on_c, 0, 61, 100
2, 681690, Note_on_c, 0, 61, 0
2, 681690, Note_on_c, 0, 62, 100
2, 681750, Note_on_c, 0, 62, 0
2, 681750, Note_on_c, 0, 64, 100
2, 681780, Note_on_c, 0, 64, 0
2, 681780, Note_on_c, 0, 65, 100
2, 681840, Note_on_c, 0, 65, 0
2, 681840, Note_on_c, 0, 67, 100
2, 681870, Note_on_c, 0, 67, 0
2, 681870, Note_on_c, 0, 81, 100
2, 681870, Note_on_c, 0, 69, 100
2, 681930, Note_on_c, 0, 69, 0
2, 681930, Note_on_c, 0, 67, 100
2, 681960, Note_on_c, 0, 67, 0
2, 681960, Note_on_c, 0, 81, 0
2, 681960, Note_on_c, 0, 86, 100
2, 681960, Note_on_c, 0, 65, 100
2, 682020, Note_on_c, 0, 65, 0
2, 682020, Note_on_c, 0, 67, 100
2, 682050, Note_on_c, 0, 67, 0
2, 682050, Note_on_c, 0, 86, 0
2, 682050, Note_on_c, 0, 74, 100
2, 682050, Note_on_c, 0, 65, 100
2, 682110, Note_on_c, 0, 65, 0
2, 682110, Note_on_c, 0, 64, 100
2, 682140, Note_on_c, 0, 64, 0
2, 682140, Note_on_c, 0, 62, 100
2, 682170, Note_on_c, 0, 74, 0
2, 682170, Note_on_c, 0, 76, 100
2, 682200, Note_on_c, 0, 76, 0
2, 682200, Note_on_c, 0, 77, 100
2, 682230, Note_on_c, 0, 77, 0
2, 682230, Note_on_c, 0, 62, 0
2, 682230, Note_on_c, 0, 70, 100
2, 682230, Note_on_c, 0, 76, 100
2, 682260, Note_on_c, 0, 76, 0
2, 682260, Note_on_c, 0, 77, 100
2, 682290, Note_on_c, 0, 77, 0
2, 682290, Note_on_c, 0, 79, 100
2, 682320, Note_on_c, 0, 79, 0
2, 682320, Note_on_c, 0, 70, 0
2, 682320, Note_on_c, 0, 77, 100
2, 682350, Note_on_c, 0, 77, 0
2, 682350, Note_on_c, 0, 79, 100
2, 682380, Note_on_c, 0, 79, 0
2, 682380, Note_on_c, 0, 81, 100
2, 682410, Note_on_c, 0, 81, 0
2, 682410, Note_on_c, 0, 79, 100
2, 682530, Note_on_c, 0, 79, 0
2, 682530, Note_on_c, 0, 81, 100
2, 682560, Note_on_c, 0, 81, 0
2, 682560, Note_on_c, 0, 82, 100
2, 682590, Note_on_c, 0, 82, 0
2, 682590, Note_on_c, 0, 81, 100
2, 682620, Note_on_c, 0, 81, 0
2, 682620, Note_on_c, 0, 82, 100
2, 682650, Note_on_c, 0, 82, 0
2, 682650, Note_on_c, 0, 84, 100
2, 682680, Note_on_c, 0, 84, 0
2, 682680, Note_on_c, 0, 82, 100
2, 682710, Note_on_c, 0, 82, 0
2, 682710, Note_on_c, 0, 81, 100
2, 682740, Note_on_c, 0, 81, 0
2, 682740, Note_on_c, 0, 79, 100
2, 682770, Note_on_c, 0, 79, 0
2, 682770, Note_on_c, 0, 81, 100
2, 682890, Note_on_c, 0, 81, 0
2, 682890, Note_on_c, 0, 79, 100
2, 682920, Note_on_c, 0, 79, 0
2, 682920, Note_on_c, 0, 77, 100
2, 682950, Note_on_c, 0, 77, 0
2, 682950, Note_on_c, 0, 79, 100
2, 682980, Note_on_c, 0, 79, 0
2, 682980, Note_on_c, 0, 77, 100
2, 683010, Note_on_c, 0, 77, 0
2, 683010, Note_on_c, 0, 76, 100
2, 683040, Note_on_c, 0, 76, 0
2, 683040, Note_on_c, 0, 77, 100
2, 683040, Note_on_c, 0, 69, 100
2, 683100, Note_on_c, 0, 77, 0
2, 683100, Note_on_c, 0, 81, 100
2, 683130, Note_on_c, 0, 81, 0
2, 683130, Note_on_c, 0, 69, 0
2, 683130, Note_on_c, 0, 86, 100
2, 683190, Note_on_c, 0, 86, 0
2, 683190, Note_on_c, 0, 81, 100
2, 683220, Note_on_c, 0, 81, 0
2, 683220, Note_on_c, 0, 77, 100
2, 683280, Note_on_c, 0, 77, 0
2, 683280, Note_on_c, 0, 76, 100
2, 683310, Note_on_c, 0, 76, 0
2, 683310, Note_on_c, 0, 78, 100
2, 683310, Note_on_c, 0, 69, 100
2, 683370, Note_on_c, 0, 78, 0
2, 683370, Note_on_c, 0, 80, 100
2, 683400, Note_on_c, 0, 80, 0
2, 683400, Note_on_c, 0, 69, 0
2, 683400, Note_on_c, 0, 81, 100
2, 683490, Note_on_c, 0, 81, 0
2, 683490, Note_on_c, 0, 79, 100
2, 683550, Note_on_c, 0, 79, 0
2, 683550, Note_on_c, 0, 78, 100
2, 683580, Note_on_c, 0, 78, 0
2, 683580, Note_on_c, 0, 76, 100
2, 683670, Note_on_c, 0, 76, 0
2, 683670, Note_on_c, 0, 69, 100
2, 683670, Note_on_c, 0, 77, 100
2, 683760, Note_on_c, 0, 77, 0
2, 683760, Note_on_c, 0, 69, 0
2, 683760, Note_on_c, 0, 79, 100
2, 683760, Note_on_c, 0, 71, 100
2, 683820, Note_on_c, 0, 79, 0
2, 683820, Note_on_c, 0, 83, 100
2, 683850, Note_on_c, 0, 83, 0
2, 683850, Note_on_c, 0, 71, 0
2, 683850, Note_on_c, 0, 88, 100
2, 683910, Note_on_c, 0, 88, 0
2, 683910, Note_on_c, 0, 83, 100
2, 683940, Note_on_c, 0, 83, 0
2, 683940, Note_on_c, 0, 79, 100
2, 684000, Note_on_c, 0, 79, 0
2, 684000, Note_on_c, 0, 78, 100
2, 684030, Note_on_c, 0, 78, 0
2, 684030, Note_on_c, 0, 79, 100
2, 684030, Note_on_c, 0, 71, 100
2, 684090, Note_on_c, 0, 79, 0
2, 684090, Note_on_c, 0, 81, 100
2, 684120, Note_on_c, 0, 81, 0
2, 684120, Note_on_c, 0, 71, 0
2, 684120, Note_on_c, 0, 83, 100
2, 684210, Note_on_c, 0, 83, 0
2, 684210, Note_on_c, 0, 81, 100
2, 684270, Note_on_c, 0, 81, 0
2, 684270, Note_on_c, 0, 79, 100
2, 684300, Note_on_c, 0, 79, 0
2, 684300, Note_on_c, 0, 78, 100
2, 684390, Note_on_c, 0, 78, 0
2, 684390, Note_on_c, 0, 71, 100
2, 684390, Note_on_c, 0, 80, 100
2, 684480, Note_on_c, 0, 80, 0
2, 684480, Note_on_c, 0, 71, 0
2, 684480, Note_on_c, 0, 81, 100
2, 684540, Note_on_c, 0, 81, 0
2, 684540, Note_on_c, 0, 83, 100
2, 684570, Note_on_c, 0, 83, 0
2, 684570, Note_on_c, 0, 84, 100
2, 684630, Note_on_c, 0, 84, 0
2, 684630, Note_on_c, 0, 82, 100
2, 684660, Note_on_c, 0, 82, 0
2, 684660, Note_on_c, 0, 81, 100
2, 684720, Note_on_c, 0, 81, 0
2, 684720, Note_on_c, 0, 79, 100
2, 684750, Note_on_c, 0, 79, 0
2, 684750, Note_on_c, 0, 77, 100
2, 684810, Note_on_c, 0, 77, 0
2, 684810, Note_on_c, 0, 81, 100
2, 684840, Note_on_c, 0, 81, 0
2, 684840, Note_on_c, 0, 79, 100
2, 684960, Note_on_c, 0, 79, 0
2, 684960, Note_on_c, 0, 81, 100
2, 684990, Note_on_c, 0, 81, 0
2, 684990, Note_on_c, 0, 82, 100
2, 685020, Note_on_c, 0, 82, 0
2, 685020, Note_on_c, 0, 81, 100
2, 685050, Note_on_c, 0, 81, 0
2, 685050, Note_on_c, 0, 82, 100
2, 685080, Note_on_c, 0, 82, 0
2, 685080, Note_on_c, 0, 84, 100
2, 685110, Note_on_c, 0, 84, 0
2, 685110, Note_on_c, 0, 82, 100
2, 685140, Note_on_c, 0, 82, 0
2, 685140, Note_on_c, 0, 84, 100
2, 685170, Note_on_c, 0, 84, 0
2, 685170, Note_on_c, 0, 86, 100
2, 685200, Note_on_c, 0, 86, 0
2, 685200, Note_on_c, 0, 84, 100
2, 685230, Note_on_c, 0, 84, 0
2, 685230, Note_on_c, 0, 72, 100
2, 685260, Note_on_c, 0, 72, 0
2, 685260, Note_on_c, 0, 70, 100
2, 685290, Note_on_c, 0, 70, 0
2, 685290, Note_on_c, 0, 72, 100
2, 685290, Note_on_c, 0, 69, 100
2, 685320, Note_on_c, 0, 69, 0
2, 685320, Note_on_c, 0, 70, 100
2, 685350, Note_on_c, 0, 70, 0
2, 685350, Note_on_c, 0, 72, 100
2, 685380, Note_on_c, 0, 72, 0
2, 685380, Note_on_c, 0, 77, 100
2, 685410, Note_on_c, 0, 72, 0
2, 685410, Note_on_c, 0, 70, 100
2, 685440, Note_on_c, 0, 70, 0
2, 685440, Note_on_c, 0, 69, 100
2, 685470, Note_on_c, 0, 69, 0
2, 685470, Note_on_c, 0, 70, 100
2, 685500, Note_on_c, 0, 70, 0
2, 685500, Note_on_c, 0, 69, 100
2, 685530, Note_on_c, 0, 69, 0
2, 685530, Note_on_c, 0, 67, 100
2, 685560, Note_on_c, 0, 67, 0
2, 685560, Note_on_c, 0, 69, 100
2, 685590, Note_on_c, 0, 69, 0
2, 685590, Note_on_c, 0, 77, 0
2, 685590, Note_on_c, 0, 67, 100
2, 685590, Note_on_c, 0, 76, 100
2, 685620, Note_on_c, 0, 76, 0
2, 685620, Note_on_c, 0, 67, 0
2, 685620, Note_on_c, 0, 65, 100
2, 685620, Note_on_c, 0, 74, 100
2, 685650, Note_on_c, 0, 74, 0
2, 685650, Note_on_c, 0, 65, 0
2, 685650, Note_on_c, 0, 67, 100
2, 685650, Note_on_c, 0, 76, 100
2, 685680, Note_on_c, 0, 76, 0
2, 685680, Note_on_c, 0, 77, 100
2, 685710, Note_on_c, 0, 77, 0
2, 685710, Note_on_c, 0, 74, 100
2, 685740, Note_on_c, 0, 74, 0
2, 685740, Note_on_c, 0, 76, 100
2, 685770, Note_on_c, 0, 67, 0
2, 685770, Note_on_c, 0, 65, 100
2, 685800, Note_on_c, 0, 65, 0
2, 685800, Note_on_c, 0, 64, 100
2, 685830, Note_on_c, 0, 64, 0
2, 685830, Note_on_c, 0, 76, 0
2, 685830, Note_on_c, 0, 81, 100
2, 685830, Note_on_c, 0, 65, 100
2, 685860, Note_on_c, 0, 65, 0
2, 685860, Note_on_c, 0, 64, 100
2, 685890, Note_on_c, 0, 64, 0
2, 685890, Note_on_c, 0, 62, 100
2, 685920, Note_on_c, 0, 62, 0
2, 685920, Note_on_c, 0, 81, 0
2, 685920, Note_on_c, 0, 64, 100
2, 685920, Note_on_c, 0, 79, 100
2, 685950, Note_on_c, 0, 79, 0
2, 685950, Note_on_c, 0, 64, 0
2, 685950, Note_on_c, 0, 65, 100
2, 685950, Note_on_c, 0, 81, 100
2, 685980, Note_on_c, 0, 81, 0
2, 685980, Note_on_c, 0, 65, 0
2, 685980, Note_on_c, 0, 67, 100
2, 685980, Note_on_c, 0, 82, 100
2, 686010, Note_on_c, 0, 82, 0
2, 686010, Note_on_c, 0, 67, 0
2, 686010, Note_on_c, 0, 65, 100
2, 686010, Note_on_c, 0, 81, 100
2, 686040, Note_on_c, 0, 81, 0
2, 686040, Note_on_c, 0, 79, 100
2, 686070, Note_on_c, 0, 79, 0
2, 686070, Note_on_c, 0, 82, 100
2, 686100, Note_on_c, 0, 82, 0
2, 686100, Note_on_c, 0, 81, 100
2, 686130, Note_on_c, 0, 65, 0
2, 686130, Note_on_c, 0, 67, 100
2, 686160, Note_on_c, 0, 67, 0
2, 686160, Note_on_c, 0, 69, 100
2, 686190, Note_on_c, 0, 69, 0
2, 686190, Note_on_c, 0, 81, 0
2, 686190, Note_on_c, 0, 76, 100
2, 686190, Note_on_c, 0, 67, 100
2, 686220, Note_on_c, 0, 67, 0
2, 686220, Note_on_c, 0, 69, 100
2, 686250, Note_on_c, 0, 69, 0
2, 686250, Note_on_c, 0, 70, 100
2, 686280, Note_on_c, 0, 70, 0
2, 686280, Note_on_c, 0, 76, 0
2, 686280, Note_on_c, 0, 69, 100
2, 686280, Note_on_c, 0, 77, 100
2, 686310, Note_on_c, 0, 77, 0
2, 686310, Note_on_c, 0, 84, 100
2, 686340, Note_on_c, 0, 84, 0
2, 686340, Note_on_c, 0, 69, 0
2, 686340, Note_on_c, 0, 65, 100
2, 686340, Note_on_c, 0, 81, 100
2, 686370, Note_on_c, 0, 81, 0
2, 686370, Note_on_c, 0, 65, 0
2, 686370, Note_on_c, 0, 60, 100
2, 686370, Note_on_c, 0, 77, 100
2, 686400, Note_on_c, 0, 77, 0
2, 686400, Note_on_c, 0, 81, 100
2, 686430, Note_on_c, 0, 81, 0
2, 686430, Note_on_c, 0, 60, 0
2, 686430, Note_on_c, 0, 65, 100
2, 686430, Note_on_c, 0, 77, 100
2, 686460, Note_on_c, 0, 77, 0
2, 686460, Note_on_c, 0, 65, 0
2, 686460, Note_on_c, 0, 72, 100
2, 686460, Note_on_c, 0, 69, 100
2, 686520, Note_on_c, 0, 69, 0
2, 686520, Note_on_c, 0, 72, 0
2, 686520, Note_on_c, 0, 70, 100
2, 686520, Note_on_c, 0, 79, 100
2, 686550, Note_on_c, 0, 79, 0
2, 686550, Note_on_c, 0, 70, 0
2, 686550, Note_on_c, 0, 69, 100
2, 686550, Note_on_c, 0, 77, 100
2, 686610, Note_on_c, 0, 77, 0
2, 686610, Note_on_c, 0, 69, 0
2, 686610, Note_on_c, 0, 67, 100
2, 686610, Note_on_c, 0, 75, 100
2, 686640, Note_on_c, 0, 75, 0
2, 686640, Note_on_c, 0, 67, 0
2, 686640, Note_on_c, 0, 74, 100
2, 686640, Note_on_c, 0, 65, 100
2, 686670, Note_on_c, 0, 74, 0
2, 686670, Note_on_c, 0, 72, 100
2, 686700, Note_on_c, 0, 72, 0
2, 686700, Note_on_c, 0, 70, 100
2, 686730, Note_on_c, 0, 70, 0
2, 686730, Note_on_c, 0, 65, 0
2, 686730, Note_on_c, 0, 72, 100
2, 686730, Note_on_c, 0, 69, 100
2, 686760, Note_on_c, 0, 72, 0
2, 686760, Note_on_c, 0, 70, 100
2, 686790, Note_on_c, 0, 70, 0
2, 686790, Note_on_c, 0, 69, 100
2, 686820, Note_on_c, 0, 69, 0
2, 686820, Note_on_c, 0, 69, 0
2, 686820, Note_on_c, 0, 77, 100
2, 686820, Note_on_c, 0, 74, 100
2, 686880, Note_on_c, 0, 74, 0
2, 686880, Note_on_c, 0, 72, 100
2, 686910, Note_on_c, 0, 72, 0
2, 686910, Note_on_c, 0, 70, 100
2, 686970, Note_on_c, 0, 70, 0
2, 686970, Note_on_c, 0, 74, 100
2, 687000, Note_on_c, 0, 74, 0
2, 687000, Note_on_c, 0, 72, 100
2, 687120, Note_on_c, 0, 72, 0
2, 687120, Note_on_c, 0, 74, 100
2, 687150, Note_on_c, 0, 74, 0
2, 687150, Note_on_c, 0, 75, 100
2, 687180, Note_on_c, 0, 75, 0
2, 687180, Note_on_c, 0, 74, 100
2, 687210, Note_on_c, 0, 74, 0
2, 687210, Note_on_c, 0, 72, 100
2, 687240, Note_on_c, 0, 72, 0
2, 687240, Note_on_c, 0, 70, 100
2, 687270, Note_on_c, 0, 70, 0
2, 687270, Note_on_c, 0, 69, 100
2, 687300, Note_on_c, 0, 69, 0
2, 687300, Note_on_c, 0, 70, 100
2, 687330, Note_on_c, 0, 70, 0
2, 687330, Note_on_c, 0, 72, 100
2, 687360, Note_on_c, 0, 72, 0
2, 687360, Note_on_c, 0, 70, 100
2, 687390, Note_on_c, 0, 70, 0
2, 687390, Note_on_c, 0, 69, 100
2, 687420, Note_on_c, 0, 69, 0
2, 687420, Note_on_c, 0, 67, 100
2, 687450, Note_on_c, 0, 67, 0
2, 687450, Note_on_c, 0, 69, 100
2, 687480, Note_on_c, 0, 69, 0
2, 687480, Note_on_c, 0, 67, 100
2, 687510, Note_on_c, 0, 67, 0
2, 687510, Note_on_c, 0, 70, 100
2, 687540, Note_on_c, 0, 70, 0
2, 687540, Note_on_c, 0, 69, 100
2, 687570, Note_on_c, 0, 69, 0
2, 687570, Note_on_c, 0, 70, 100
2, 687600, Note_on_c, 0, 70, 0
2, 687600, Note_on_c, 0, 72, 100
2, 687630, Note_on_c, 0, 72, 0
2, 687630, Note_on_c, 0, 74, 100
2, 687660, Note_on_c, 0, 74, 0
2, 687660, Note_on_c, 0, 72, 100
2, 687690, Note_on_c, 0, 72, 0
2, 687690, Note_on_c, 0, 70, 100
2, 687720, Note_on_c, 0, 70, 0
2, 687720, Note_on_c, 0, 72, 100
2, 687810, Note_on_c, 0, 72, 0
2, 687810, Note_on_c, 0, 69, 100
2, 687900, Note_on_c, 0, 69, 0
2, 687900, Note_on_c, 0, 77, 0
2, 687900, Note_on_c, 0, 65, 100
2, 687990, Note_on_c, 0, 65, 0
2, 687990, Note_on_c, 0, 81, 100
2, 687990, Note_on_c, 0, 72, 100
2, 688080, Note_on_c, 0, 72, 0
2, 688080, Note_on_c, 0, 81, 0
2, 688080, Note_on_c, 0, 67, 100
2, 688080, Note_on_c, 0, 76, 100
2, 688170, Note_on_c, 0, 76, 0
2, 688170, Note_on_c, 0, 67, 0
2, 688170, Note_on_c, 0, 88, 100
2, 688260, Note_on_c, 0, 71, 100
2, 688290, Note_on_c, 0, 88, 0
2, 688290, Note_on_c, 0, 86, 100
2, 688320, Note_on_c, 0, 86, 0
2, 688320, Note_on_c, 0, 84, 100
2, 688350, Note_on_c, 0, 84, 0
2, 688350, Note_on_c, 0, 71, 0
2, 688350, Note_on_c, 0, 86, 100
2, 688380, Note_on_c, 0, 86, 0
2, 688380, Note_on_c, 0, 84, 100
2, 688410, Note_on_c, 0, 84, 0
2, 688410, Note_on_c, 0, 83, 100
2, 688440, Note_on_c, 0, 83, 0
2, 688440, Note_on_c, 0, 84, 100
2, 688470, Note_on_c, 0, 84, 0
2, 688470, Note_on_c, 0, 83, 100
2, 688500, Note_on_c, 0, 83, 0
2, 688500, Note_on_c, 0, 81, 100
2, 688530, Note_on_c, 0, 81, 0
2, 688530, Note_on_c, 0, 83, 100
2, 688650, Note_on_c, 0, 83, 0
2, 688650, Note_on_c, 0, 81, 100
2, 688680, Note_on_c, 0, 81, 0
2, 688680, Note_on_c, 0, 80, 100
2, 688710, Note_on_c, 0, 80, 0
2, 688710, Note_on_c, 0, 81, 100
2, 688740, Note_on_c, 0, 81, 0
2, 688740, Note_on_c, 0, 80, 100
2, 688770, Note_on_c, 0, 80, 0
2, 688770, Note_on_c, 0, 78, 100
2, 688800, Note_on_c, 0, 78, 0
2, 688800, Note_on_c, 0, 80, 100
2, 688830, Note_on_c, 0, 80, 0
2, 688830, Note_on_c, 0, 81, 100
2, 688860, Note_on_c, 0, 81, 0
2, 688860, Note_on_c, 0, 83, 100
2, 688890, Note_on_c, 0, 83, 0
2, 688890, Note_on_c, 0, 81, 100
2, 689010, Note_on_c, 0, 81, 0
2, 689010, Note_on_c, 0, 83, 100
2, 689040, Note_on_c, 0, 83, 0
2, 689040, Note_on_c, 0, 84, 100
2, 689070, Note_on_c, 0, 84, 0
2, 689070, Note_on_c, 0, 83, 100
2, 689100, Note_on_c, 0, 83, 0
2, 689100, Note_on_c, 0, 84, 100
2, 689130, Note_on_c, 0, 84, 0
2, 689130, Note_on_c, 0, 86, 100
2, 689160, Note_on_c, 0, 86, 0
2, 689160, Note_on_c, 0, 84, 100
2, 689220, Note_on_c, 0, 84, 0
2, 689220, Note_on_c, 0, 81, 100
2, 689250, Note_on_c, 0, 81, 0
2, 689250, Note_on_c, 0, 76, 100
2, 689310, Note_on_c, 0, 76, 0
2, 689310, Note_on_c, 0, 81, 100
2, 689340, Note_on_c, 0, 81, 0
2, 689340, Note_on_c, 0, 84, 100
2, 689400, Note_on_c, 0, 84, 0
2, 689400, Note_on_c, 0, 86, 100
2, 689430, Note_on_c, 0, 86, 0
2, 689430, Note_on_c, 0, 84, 100
2, 689490, Note_on_c, 0, 84, 0
2, 689490, Note_on_c, 0, 83, 100
2, 689520, Note_on_c, 0, 83, 0
2, 689520, Note_on_c, 0, 81, 100
2, 689610, Note_on_c, 0, 81, 0
2, 689610, Note_on_c, 0, 84, 100
2, 689700, Note_on_c, 0, 84, 0
2, 689700, Note_on_c, 0, 81, 100
2, 689790, Note_on_c, 0, 81, 0
2, 689790, Note_on_c, 0, 64, 100
2, 689790, Note_on_c, 0, 76, 100
2, 689850, Note_on_c, 0, 76, 0
2, 689850, Note_on_c, 0, 77, 100
2, 689880, Note_on_c, 0, 77, 0
2, 689880, Note_on_c, 0, 64, 0
2, 689880, Note_on_c, 0, 79, 100
2, 689940, Note_on_c, 0, 79, 0
2, 689940, Note_on_c, 0, 76, 100
2, 689970, Note_on_c, 0, 76, 0
2, 689970, Note_on_c, 0, 71, 100
2, 690030, Note_on_c, 0, 71, 0
2, 690030, Note_on_c, 0, 76, 100
2, 690060, Note_on_c, 0, 76, 0
2, 690060, Note_on_c, 0, 79, 100
2, 690120, Note_on_c, 0, 79, 0
2, 690120, Note_on_c, 0, 82, 100
2, 690150, Note_on_c, 0, 82, 0
2, 690150, Note_on_c, 0, 81, 100
2, 690210, Note_on_c, 0, 81, 0
2, 690210, Note_on_c, 0, 79, 100
2, 690240, Note_on_c, 0, 79, 0
2, 690240, Note_on_c, 0, 77, 100
2, 690330, Note_on_c, 0, 77, 0
2, 690330, Note_on_c, 0, 86, 100
2, 690420, Note_on_c, 0, 86, 0
2, 690420, Note_on_c, 0, 82, 100
2, 690510, Note_on_c, 0, 82, 0
2, 690510, Note_on_c, 0, 65, 100
2, 690510, Note_on_c, 0, 77, 100
2, 690570, Note_on_c, 0, 77, 0
2, 690570, Note_on_c, 0, 79, 100
2, 690600, Note_on_c, 0, 79, 0
2, 690600, Note_on_c, 0, 65, 0
2, 690600, Note_on_c, 0, 81, 100
2, 690660, Note_on_c, 0, 81, 0
2, 690660, Note_on_c, 0, 77, 100
2, 690690, Note_on_c, 0, 77, 0
2, 690690, Note_on_c, 0, 69, 100
2, 690750, Note_on_c, 0, 69, 0
2, 690750, Note_on_c, 0, 77, 100
2, 690780, Note_on_c, 0, 77, 0
2, 690780, Note_on_c, 0, 81, 100
2, 690840, Note_on_c, 0, 81, 0
2, 690840, Note_on_c, 0, 79, 100
2, 690870, Note_on_c, 0, 79, 0
2, 690870, Note_on_c, 0, 82, 100
2, 690930, Note_on_c, 0, 82, 0
2, 690930, Note_on_c, 0, 81, 100
2, 690960, Note_on_c, 0, 81, 0
2, 691140, Note_on_c, 0, 67, 100
2, 691200, Note_on_c, 0, 67, 0
2, 691200, Note_on_c, 0, 65, 100
2, 691230, Note_on_c, 0, 65, 0
2, 691230, Note_on_c, 0, 73, 100
2, 691230, Note_on_c, 0, 67, 100
2, 691290, Note_on_c, 0, 67, 0
2, 691290, Note_on_c, 0, 69, 100
2, 691320, Note_on_c, 0, 69, 0
2, 691320, Note_on_c, 0, 73, 0
2, 691320, Note_on_c, 0, 70, 100
2, 691320, Note_on_c, 0, 74, 100
2, 691380, Note_on_c, 0, 70, 0
2, 691380, Note_on_c, 0, 67, 100
2, 691410, Note_on_c, 0, 67, 0
2, 691410, Note_on_c, 0, 74, 0
2, 691410, Note_on_c, 0, 64, 100
2, 691470, Note_on_c, 0, 64, 0
2, 691470, Note_on_c, 0, 67, 100
2, 691500, Note_on_c, 0, 67, 0
2, 691500, Note_on_c, 0, 70, 100
2, 691560, Note_on_c, 0, 70, 0
2, 691560, Note_on_c, 0, 65, 100
2, 691560, Note_on_c, 0, 69, 100
2, 691590, Note_on_c, 0, 69, 0
2, 691590, Note_on_c, 0, 65, 0
2, 691590, Note_on_c, 0, 67, 100
2, 691590, Note_on_c, 0, 71, 100
2, 691620, Note_on_c, 0, 67, 0
2, 691620, Note_on_c, 0, 65, 100
2, 691650, Note_on_c, 0, 65, 0
2, 691650, Note_on_c, 0, 71, 0
2, 691650, Note_on_c, 0, 73, 100
2, 691650, Note_on_c, 0, 64, 100
2, 691680, Note_on_c, 0, 64, 0
2, 691680, Note_on_c, 0, 73, 0
2, 691680, Note_on_c, 0, 74, 100
2, 691680, Note_on_c, 0, 70, 100
2, 691740, Note_on_c, 0, 74, 0
2, 691740, Note_on_c, 0, 70, 100
2, 691770, Note_on_c, 0, 70, 0
2, 691770, Note_on_c, 0, 70, 0
2, 691770, Note_on_c, 0, 67, 100
2, 691830, Note_on_c, 0, 67, 0
2, 691830, Note_on_c, 0, 70, 100
2, 691860, Note_on_c, 0, 70, 0
2, 691860, Note_on_c, 0, 74, 100
2, 691920, Note_on_c, 0, 74, 0
2, 691920, Note_on_c, 0, 73, 100
2, 691950, Note_on_c, 0, 73, 0
2, 691950, Note_on_c, 0, 74, 100
2, 691950, Note_on_c, 0, 79, 100
2, 692010, Note_on_c, 0, 74, 0
2, 692010, Note_on_c, 0, 76, 100
2, 692040, Note_on_c, 0, 76, 0
2, 692040, Note_on_c, 0, 79, 0
2, 692040, Note_on_c, 0, 77, 100
2, 692040, Note_on_c, 0, 86, 100
2, 692070, Note_on_c, 0, 77, 0
2, 692070, Note_on_c, 0, 74, 100
2, 692100, Note_on_c, 0, 74, 0
2, 692100, Note_on_c, 0, 69, 100
2, 692130, Note_on_c, 0, 69, 0
2, 692130, Note_on_c, 0, 86, 0
2, 692130, Note_on_c, 0, 74, 100
2, 692130, Note_on_c, 0, 65, 100
2, 692160, Note_on_c, 0, 65, 0
2, 692160, Note_on_c, 0, 67, 100
2, 692190, Note_on_c, 0, 67, 0
2, 692190, Note_on_c, 0, 69, 100
2, 692220, Note_on_c, 0, 69, 0
2, 692220, Note_on_c, 0, 70, 100
2, 692250, Note_on_c, 0, 74, 0
2, 692250, Note_on_c, 0, 76, 100
2, 692280, Note_on_c, 0, 76, 0
2, 692280, Note_on_c, 0, 77, 100
2, 692310, Note_on_c, 0, 77, 0
2, 692310, Note_on_c, 0, 76, 100
2, 692340, Note_on_c, 0, 76, 0
2, 692340, Note_on_c, 0, 77, 100
2, 692370, Note_on_c, 0, 77, 0
2, 692370, Note_on_c, 0, 79, 100
2, 692400, Note_on_c, 0, 79, 0
2, 692400, Note_on_c, 0, 70, 0
2, 692400, Note_on_c, 0, 77, 100
2, 692400, Note_on_c, 0, 69, 100
2, 692430, Note_on_c, 0, 77, 0
2, 692430, Note_on_c, 0, 79, 100
2, 692460, Note_on_c, 0, 79, 0
2, 692460, Note_on_c, 0, 81, 100
2, 692490, Note_on_c, 0, 81, 0
2, 692490, Note_on_c, 0, 69, 0
2, 692490, Note_on_c, 0, 79, 100
2, 692580, Note_on_c, 0, 64, 100
2, 692610, Note_on_c, 0, 64, 0
2, 692610, Note_on_c, 0, 79, 0
2, 692610, Note_on_c, 0, 81, 100
2, 692610, Note_on_c, 0, 66, 100
2, 692640, Note_on_c, 0, 66, 0
2, 692640, Note_on_c, 0, 81, 0
2, 692640, Note_on_c, 0, 82, 100
2, 692640, Note_on_c, 0, 67, 100
2, 692670, Note_on_c, 0, 82, 0
2, 692670, Note_on_c, 0, 81, 100
2, 692670, Note_on_c, 0, 63, 100
2, 692700, Note_on_c, 0, 81, 0
2, 692700, Note_on_c, 0, 82, 100
2, 692730, Note_on_c, 0, 82, 0
2, 692730, Note_on_c, 0, 67, 0
2, 692730, Note_on_c, 0, 84, 100
2, 692730, Note_on_c, 0, 65, 100
2, 692760, Note_on_c, 0, 65, 0
2, 692760, Note_on_c, 0, 84, 0
2, 692760, Note_on_c, 0, 63, 0
2, 692760, Note_on_c, 0, 82, 100
2, 692760, Note_on_c, 0, 62, 100
2, 692760, Note_on_c, 0, 67, 100
2, 692790, Note_on_c, 0, 82, 0
2, 692790, Note_on_c, 0, 81, 100
2, 692820, Note_on_c, 0, 81, 0
2, 692820, Note_on_c, 0, 62, 0
2, 692820, Note_on_c, 0, 64, 100
2, 692820, Note_on_c, 0, 79, 100
2, 692850, Note_on_c, 0, 79, 0
2, 692850, Note_on_c, 0, 64, 0
2, 692850, Note_on_c, 0, 67, 0
2, 692850, Note_on_c, 0, 65, 100
2, 692850, Note_on_c, 0, 81, 100
2, 692880, Note_on_c, 0, 65, 0
2, 692880, Note_on_c, 0, 64, 100
2, 692910, Note_on_c, 0, 64, 0
2, 692910, Note_on_c, 0, 62, 100
2, 692940, Note_on_c, 0, 62, 0
2, 692940, Note_on_c, 0, 61, 100
2, 692970, Note_on_c, 0, 81, 0
2, 692970, Note_on_c, 0, 79, 100
2, 693000, Note_on_c, 0, 79, 0
2, 693000, Note_on_c, 0, 61, 0
2, 693000, Note_on_c, 0, 69, 100
2, 693000, Note_on_c, 0, 77, 100
2, 693030, Note_on_c, 0, 77, 0
2, 693030, Note_on_c, 0, 69, 0
2, 693030, Note_on_c, 0, 70, 100
2, 693030, Note_on_c, 0, 79, 100
2, 693060, Note_on_c, 0, 79, 0
2, 693060, Note_on_c, 0, 70, 0
2, 693060, Note_on_c, 0, 69, 100
2, 693060, Note_on_c, 0, 77, 100
2, 693090, Note_on_c, 0, 77, 0
2, 693090, Note_on_c, 0, 69, 0
2, 693090, Note_on_c, 0, 67, 100
2, 693090, Note_on_c, 0, 76, 100
2, 693120, Note_on_c, 0, 76, 0
2, 693120, Note_on_c, 0, 67, 0
2, 693120, Note_on_c, 0, 77, 100
2, 693180, Note_on_c, 0, 77, 0
2, 693180, Note_on_c, 0, 81, 100
2, 693210, Note_on_c, 0, 81, 0
2, 693210, Note_on_c, 0, 86, 100
2, 693270, Note_on_c, 0, 86, 0
2, 693270, Note_on_c, 0, 81, 100
2, 693300, Note_on_c, 0, 81, 0
2, 693300, Note_on_c, 0, 77, 100
2, 693360, Note_on_c, 0, 77, 0
2, 693360, Note_on_c, 0, 76, 100
2, 693390, Note_on_c, 0, 76, 0
2, 693390, Note_on_c, 0, 78, 100
2, 693450, Note_on_c, 0, 78, 0
2, 693450, Note_on_c, 0, 80, 100
2, 693480, Note_on_c, 0, 80, 0
2, 693480, Note_on_c, 0, 81, 100
2, 693570, Note_on_c, 0, 81, 0
2, 693570, Note_on_c, 0, 72, 100
2, 693660, Note_on_c, 0, 72, 0
2, 693660, Note_on_c, 0, 76, 100
2, 693750, Note_on_c, 0, 76, 0
2, 693750, Note_on_c, 0, 64, 100
2, 693750, Note_on_c, 0, 81, 100
2, 693840, Note_on_c, 0, 81, 0
2, 693840, Note_on_c, 0, 64, 0
2, 693840, Note_on_c, 0, 76, 100
2, 693900, Note_on_c, 0, 76, 0
2, 693900, Note_on_c, 0, 79, 100
2, 693930, Note_on_c, 0, 79, 0
2, 693930, Note_on_c, 0, 84, 100
2, 693990, Note_on_c, 0, 84, 0
2, 693990, Note_on_c, 0, 79, 100
2, 694020, Note_on_c, 0, 79, 0
2, 694020, Note_on_c, 0, 76, 100
2, 694080, Note_on_c, 0, 76, 0
2, 694080, Note_on_c, 0, 74, 100
2, 694110, Note_on_c, 0, 74, 0
2, 694110, Note_on_c, 0, 76, 100
2, 694170, Note_on_c, 0, 76, 0
2, 694170, Note_on_c, 0, 78, 100
2, 694200, Note_on_c, 0, 78, 0
2, 694200, Note_on_c, 0, 79, 100
2, 694290, Note_on_c, 0, 79, 0
2, 694290, Note_on_c, 0, 70, 100
2, 694380, Note_on_c, 0, 70, 0
2, 694380, Note_on_c, 0, 74, 100
2, 694470, Note_on_c, 0, 74, 0
2, 694470, Note_on_c, 0, 62, 100
2, 694470, Note_on_c, 0, 79, 100
2, 694560, Note_on_c, 0, 79, 0
2, 694560, Note_on_c, 0, 62, 0
2, 694560, Note_on_c, 0, 72, 100
2, 694560, Note_on_c, 0, 72, 100
2, 694620, Note_on_c, 0, 72, 0
2, 694620, Note_on_c, 0, 77, 100
2, 694650, Note_on_c, 0, 77, 0
2, 694650, Note_on_c, 0, 72, 0
2, 694650, Note_on_c, 0, 82, 100
2, 694710, Note_on_c, 0, 82, 0
2, 694710, Note_on_c, 0, 77, 100
2, 694740, Note_on_c, 0, 77, 0
2, 694740, Note_on_c, 0, 74, 100
2, 694800, Note_on_c, 0, 74, 0
2, 694800, Note_on_c, 0, 72, 100
2, 694830, Note_on_c, 0, 72, 0
2, 694830, Note_on_c, 0, 74, 100
2, 694890, Note_on_c, 0, 74, 0
2, 694890, Note_on_c, 0, 76, 100
2, 694920, Note_on_c, 0, 76, 0
2, 694920, Note_on_c, 0, 77, 100
2, 695100, Note_on_c, 0, 77, 0
2, 695190, Note_on_c, 0, 74, 100
2, 695280, Note_on_c, 0, 74, 0
2, 695280, Note_on_c, 0, 73, 100
2, 695340, Note_on_c, 0, 73, 0
2, 695340, Note_on_c, 0, 76, 100
2, 695370, Note_on_c, 0, 76, 0
2, 695370, Note_on_c, 0, 81, 100
2, 695430, Note_on_c, 0, 81, 0
2, 695430, Note_on_c, 0, 76, 100
2, 695460, Note_on_c, 0, 76, 0
2, 695460, Note_on_c, 0, 73, 100
2, 695520, Note_on_c, 0, 73, 0
2, 695520, Note_on_c, 0, 71, 100
2, 695550, Note_on_c, 0, 71, 0
2, 695550, Note_on_c, 0, 73, 100
2, 695550, Note_on_c, 0, 69, 100
2, 695610, Note_on_c, 0, 73, 0
2, 695610, Note_on_c, 0, 74, 100
2, 695640, Note_on_c, 0, 74, 0
2, 695640, Note_on_c, 0, 69, 0
2, 695640, Note_on_c, 0, 76, 100
2, 695730, Note_on_c, 0, 76, 0
2, 695820, Note_on_c, 0, 67, 100
2, 695880, Note_on_c, 0, 67, 0
2, 695880, Note_on_c, 0, 70, 100
2, 695880, Note_on_c, 0, 79, 100
2, 695910, Note_on_c, 0, 79, 0
2, 695910, Note_on_c, 0, 70, 0
2, 695910, Note_on_c, 0, 77, 100
2, 695910, Note_on_c, 0, 69, 100
2, 695970, Note_on_c, 0, 69, 0
2, 695970, Note_on_c, 0, 77, 0
2, 695970, Note_on_c, 0, 67, 100
2, 695970, Note_on_c, 0, 76, 100
2, 696000, Note_on_c, 0, 76, 0
2, 696000, Note_on_c, 0, 67, 0
2, 696000, Note_on_c, 0, 76, 100
2, 696000, Note_on_c, 0, 82, 100
2, 696180, Note_on_c, 0, 82, 0
2, 696180, Note_on_c, 0, 76, 0
2, 696270, Note_on_c, 0, 79, 100
2, 696360, Note_on_c, 0, 79, 0
2, 696360, Note_on_c, 0, 77, 100
2, 696390, Note_on_c, 0, 77, 0
2, 696390, Note_on_c, 0, 76, 100
2, 696420, Note_on_c, 0, 76, 0
2, 696420, Note_on_c, 0, 74, 100
2, 696450, Note_on_c, 0, 74, 0
2, 696450, Note_on_c, 0, 73, 100
2, 696480, Note_on_c, 0, 73, 0
2, 696480, Note_on_c, 0, 76, 100
2, 696510, Note_on_c, 0, 76, 0
2, 696510, Note_on_c, 0, 74, 100
2, 696540, Note_on_c, 0, 74, 0
2, 696540, Note_on_c, 0, 72, 100
2, 696570, Note_on_c, 0, 72, 0
2, 696570, Note_on_c, 0, 74, 100
2, 696600, Note_on_c, 0, 74, 0
2, 696600, Note_on_c, 0, 72, 100
2, 696630, Note_on_c, 0, 72, 0
2, 696630, Note_on_c, 0, 70, 100
2, 696660, Note_on_c, 0, 70, 0
2, 696660, Note_on_c, 0, 72, 100
2, 696690, Note_on_c, 0, 72, 0
2, 696690, Note_on_c, 0, 70, 100
2, 696720, Note_on_c, 0, 70, 0
2, 696720, Note_on_c, 0, 69, 100
2, 696720, Note_on_c, 0, 69, 100
2, 696750, Note_on_c, 0, 69, 0
2, 696750, Note_on_c, 0, 77, 100
2, 696780, Note_on_c, 0, 77, 0
2, 696780, Note_on_c, 0, 76, 100
2, 696810, Note_on_c, 0, 76, 0
2, 696810, Note_on_c, 0, 69, 0
2, 696810, Note_on_c, 0, 74, 100
2, 696840, Note_on_c, 0, 74, 0
2, 696840, Note_on_c, 0, 76, 100
2, 696870, Note_on_c, 0, 76, 0
2, 696870, Note_on_c, 0, 77, 100
2, 696900, Note_on_c, 0, 77, 0
2, 696900, Note_on_c, 0, 79, 100
2, 696930, Note_on_c, 0, 79, 0
2, 696930, Note_on_c, 0, 76, 100
2, 696960, Note_on_c, 0, 76, 0
2, 696960, Note_on_c, 0, 74, 100
2, 696990, Note_on_c, 0, 74, 0
2, 696990, Note_on_c, 0, 73, 100
2, 697020, Note_on_c, 0, 73, 0
2, 697020, Note_on_c, 0, 74, 100
2, 697050, Note_on_c, 0, 74, 0
2, 697050, Note_on_c, 0, 76, 100
2, 697080, Note_on_c, 0, 76, 0
2, 697080, Note_on_c, 0, 77, 100
2, 697110, Note_on_c, 0, 77, 0
2, 697110, Note_on_c, 0, 81, 100
2, 697140, Note_on_c, 0, 81, 0
2, 697140, Note_on_c, 0, 77, 100
2, 697170, Note_on_c, 0, 77, 0
2, 697170, Note_on_c, 0, 69, 100
2, 697170, Note_on_c, 0, 74, 100
2, 697200, Note_on_c, 0, 74, 0
2, 697200, Note_on_c, 0, 77, 100
2, 697230, Note_on_c, 0, 77, 0
2, 697230, Note_on_c, 0, 74, 100
2, 697260, Note_on_c, 0, 74, 0
2, 697260, Note_on_c, 0, 69, 100
2, 697290, Note_on_c, 0, 69, 0
2, 697290, Note_on_c, 0, 69, 0
2, 697290, Note_on_c, 0, 70, 100
2, 697290, Note_on_c, 0, 67, 100
2, 697320, Note_on_c, 0, 67, 0
2, 697320, Note_on_c, 0, 70, 0
2, 697320, Note_on_c, 0, 72, 100
2, 697320, Note_on_c, 0, 65, 100
2, 697350, Note_on_c, 0, 65, 0
2, 697350, Note_on_c, 0, 72, 0
2, 697350, Note_on_c, 0, 67, 100
2, 697350, Note_on_c, 0, 70, 100
2, 697380, Note_on_c, 0, 70, 0
2, 697380, Note_on_c, 0, 67, 0
2, 697380, Note_on_c, 0, 65, 100
2, 697380, Note_on_c, 0, 69, 100
2, 697410, Note_on_c, 0, 69, 0
2, 697410, Note_on_c, 0, 65, 0
2, 697410, Note_on_c, 0, 64, 100
2, 697410, Note_on_c, 0, 67, 100
2, 697440, Note_on_c, 0, 67, 0
2, 697440, Note_on_c, 0, 64, 0
2, 697440, Note_on_c, 0, 65, 100
2, 697440, Note_on_c, 0, 69, 100
2, 697470, Note_on_c, 0, 65, 0
2, 697470, Note_on_c, 0, 64, 100
2, 697500, Note_on_c, 0, 64, 0
2, 697500, Note_on_c, 0, 62, 100
2, 697530, Note_on_c, 0, 62, 0
2, 697530, Note_on_c, 0, 64, 100
2, 697650, Note_on_c, 0, 64, 0
2, 697650, Note_on_c, 0, 62, 100
2, 697680, Note_on_c, 0, 62, 0
2, 697680, Note_on_c, 0, 61, 100
2, 697710, Note_on_c, 0, 61, 0
2, 697710, Note_on_c, 0, 62, 100
2, 697740, Note_on_c, 0, 62, 0
2, 697740, Note_on_c, 0, 61, 100
2, 697770, Note_on_c, 0, 61, 0
2, 697770, Note_on_c, 0, 59, 100
2, 697800, Note_on_c, 0, 59, 0
2, 697800, Note_on_c, 0, 61, 100
2, 697830, Note_on_c, 0, 61, 0
2, 697830, Note_on_c, 0, 62, 100
2, 697860, Note_on_c, 0, 62, 0
2, 697860, Note_on_c, 0, 64, 100
2, 697890, Note_on_c, 0, 64, 0
2, 697890, Note_on_c, 0, 62, 100
2, 697920, Note_on_c, 0, 69, 0
2, 697920, Note_on_c, 0, 70, 100
2, 697950, Note_on_c, 0, 70, 0
2, 697950, Note_on_c, 0, 72, 100
2, 697980, Note_on_c, 0, 72, 0
2, 697980, Note_on_c, 0, 70, 100
2, 698010, Note_on_c, 0, 62, 0
2, 698010, Note_on_c, 0, 64, 100
2, 698040, Note_on_c, 0, 64, 0
2, 698040, Note_on_c, 0, 65, 100
2, 698070, Note_on_c, 0, 65, 0
2, 698070, Note_on_c, 0, 70, 0
2, 698070, Note_on_c, 0, 64, 100
2, 698100, Note_on_c, 0, 64, 0
2, 698100, Note_on_c, 0, 65, 100
2, 698130, Note_on_c, 0, 65, 0
2, 698130, Note_on_c, 0, 67, 100
2, 698160, Note_on_c, 0, 67, 0
2, 698190, Note_on_c, 0, 69, 100
2, 698220, Note_on_c, 0, 69, 0
2, 698220, Note_on_c, 0, 74, 100
2, 698250, Note_on_c, 0, 74, 0
2, 698250, Note_on_c, 0, 77, 100
2, 698280, Note_on_c, 0, 77, 0
2, 698280, Note_on_c, 0, 74, 100
2, 698310, Note_on_c, 0, 74, 0
2, 698310, Note_on_c, 0, 77, 100
2, 698340, Note_on_c, 0, 77, 0
2, 698340, Note_on_c, 0, 81, 100
2, 698370, Note_on_c, 0, 81, 0
2, 698370, Note_on_c, 0, 77, 100
2, 698400, Note_on_c, 0, 77, 0
2, 698400, Note_on_c, 0, 74, 100
2, 698430, Note_on_c, 0, 74, 0
2, 698430, Note_on_c, 0, 69, 100
2, 698460, Note_on_c, 0, 69, 0
2, 698460, Note_on_c, 0, 70, 100
2, 698490, Note_on_c, 0, 70, 0
2, 698490, Note_on_c, 0, 72, 100
2, 698520, Note_on_c, 0, 72, 0
2, 698520, Note_on_c, 0, 70, 100
2, 698550, Note_on_c, 0, 70, 0
2, 698550, Note_on_c, 0, 74, 100
2, 698580, Note_on_c, 0, 74, 0
2, 698580, Note_on_c, 0, 79, 100
2, 698610, Note_on_c, 0, 79, 0
2, 698610, Note_on_c, 0, 82, 100
2, 698640, Note_on_c, 0, 82, 0
2, 698640, Note_on_c, 0, 81, 100
2, 698670, Note_on_c, 0, 81, 0
2, 698670, Note_on_c, 0, 79, 100
2, 698700, Note_on_c, 0, 79, 0
2, 698700, Note_on_c, 0, 78, 100
2, 698730, Note_on_c, 0, 78, 0
2, 698730, Note_on_c, 0, 79, 100
2, 698760, Note_on_c, 0, 79, 0
2, 698760, Note_on_c, 0, 81, 100
2, 698790, Note_on_c, 0, 81, 0
2, 698790, Note_on_c, 0, 79, 100
2, 698850, Note_on_c, 0, 79, 0
2, 698850, Note_on_c, 0, 70, 100
2, 698880, Note_on_c, 0, 70, 0
2, 698880, Note_on_c, 0, 69, 100
2, 699000, Note_on_c, 0, 69, 0
2, 699000, Note_on_c, 0, 70, 100
2, 699030, Note_on_c, 0, 70, 0
2, 699030, Note_on_c, 0, 72, 100
2, 699060, Note_on_c, 0, 72, 0
2, 699060, Note_on_c, 0, 70, 100
2, 699090, Note_on_c, 0, 70, 0
2, 699090, Note_on_c, 0, 69, 100
2, 699120, Note_on_c, 0, 69, 0
2, 699120, Note_on_c, 0, 67, 100
2, 699150, Note_on_c, 0, 67, 0
2, 699150, Note_on_c, 0, 66, 100
2, 699180, Note_on_c, 0, 66, 0
2, 699180, Note_on_c, 0, 67, 100
2, 699210, Note_on_c, 0, 67, 0
2, 699210, Note_on_c, 0, 69, 100
2, 699240, Note_on_c, 0, 69, 0
2, 699240, Note_on_c, 0, 67, 100
2, 699300, Note_on_c, 0, 67, 0
2, 699300, Note_on_c, 0, 76, 100
2, 699330, Note_on_c, 0, 76, 0
2, 699330, Note_on_c, 0, 77, 100
2, 699360, Note_on_c, 0, 77, 0
2, 699360, Note_on_c, 0, 79, 100
2, 699390, Note_on_c, 0, 79, 0
2, 699390, Note_on_c, 0, 81, 100
2, 699420, Note_on_c, 0, 81, 0
2, 699420, Note_on_c, 0, 74, 100
2, 699435, Note_on_c, 0, 74, 0
2, 699435, Note_on_c, 0, 73, 100
2, 699450, Note_on_c, 0, 73, 0
2, 699450, Note_on_c, 0, 74, 100
2, 699465, Note_on_c, 0, 74, 0
2, 699465, Note_on_c, 0, 73, 100
2, 699480, Note_on_c, 0, 73, 0
2, 699480, Note_on_c, 0, 74, 100
2, 699495, Note_on_c, 0, 74, 0
2, 699495, Note_on_c, 0, 73, 100
2, 699510, Note_on_c, 0, 73, 0
2, 699510, Note_on_c, 0, 74, 100
2, 699510, Note_on_c, 0, 70, 100
2, 699525, Note_on_c, 0, 74, 0
2, 699525, Note_on_c, 0, 73, 100
2, 699600, Note_on_c, 0, 73, 0
2, 699600, Note_on_c, 0, 70, 0
2, 699600, Note_on_c, 0, 69, 100
2, 699600, Note_on_c, 0, 74, 100
2, 699630, Note_on_c, 0, 69, 0
2, 699630, Note_on_c, 0, 74, 100
2, 699660, Note_on_c, 0, 74, 0
2, 699660, Note_on_c, 0, 69, 100
2, 699690, Note_on_c, 0, 69, 0
2, 699690, Note_on_c, 0, 74, 0
2, 699690, Note_on_c, 0, 65, 100
2, 699720, Note_on_c, 0, 65, 0
2, 699720, Note_on_c, 0, 69, 100
2, 699750, Note_on_c, 0, 69, 0
2, 699750, Note_on_c, 0, 65, 100
2, 699780, Note_on_c, 0, 65, 0
2, 699780, Note_on_c, 0, 62, 100
2, 699840, Note_on_c, 0, 73, 100
2, 699870, Note_on_c, 0, 73, 0
2, 699870, Note_on_c, 0, 62, 0
2, 699870, Note_on_c, 0, 74, 100
2, 699870, Note_on_c, 0, 74, 100
2, 699930, Note_on_c, 0, 74, 0
2, 699930, Note_on_c, 0, 76, 100
2, 699960, Note_on_c, 0, 76, 0
2, 699960, Note_on_c, 0, 74, 0
2, 699960, Note_on_c, 0, 69, 100
2, 699960, Note_on_c, 0, 78, 100
2, 699990, Note_on_c, 0, 78, 0
2, 699990, Note_on_c, 0, 79, 100
2, 700020, Note_on_c, 0, 79, 0
2, 700020, Note_on_c, 0, 81, 100
2, 700050, Note_on_c, 0, 81, 0
2, 700050, Note_on_c, 0, 74, 100
2, 700080, Note_on_c, 0, 69, 0
2, 700080, Note_on_c, 0, 66, 100
2, 700110, Note_on_c, 0, 66, 0
2, 700110, Note_on_c, 0, 64, 100
2, 700140, Note_on_c, 0, 64, 0
2, 700230, Note_on_c, 0, 74, 0
2, 700230, Note_on_c, 0, 76, 100
2, 700260, Note_on_c, 0, 76, 0
2, 700260, Note_on_c, 0, 74, 100
2, 700290, Note_on_c, 0, 74, 0
2, 700290, Note_on_c, 0, 69, 100
2, 700290, Note_on_c, 0, 73, 100
2, 700320, Note_on_c, 0, 73, 0
2, 700320, Note_on_c, 0, 69, 0
2, 700320, Note_on_c, 0, 69, 100
2, 700320, Note_on_c, 0, 78, 100
2, 700680, Note_on_c, 0, 78, 0
2, 700680, Note_on_c, 0, 69, 0
2, 700950, Note_on_c, 0, 69, 100
2, 701040, Note_on_c, 0, 69, 0
2, 701040, Note_on_c, 0, 74, 100
2, 701130, Note_on_c, 0, 74, 0
2, 701130, Note_on_c, 0, 62, 100
2, 701250, Note_on_c, 0, 62, 0
2, 701250, Note_on_c, 0, 64, 100
2, 701280, Note_on_c, 0, 64, 0
2, 701280, Note_on_c, 0, 65, 100
2, 701310, Note_on_c, 0, 65, 0
2, 701310, Note_on_c, 0, 64, 100
2, 701340, Note_on_c, 0, 64, 0
2, 701340, Note_on_c, 0, 65, 100
2, 701370, Note_on_c, 0, 65, 0
2, 701370, Note_on_c, 0, 67, 100
2, 701400, Note_on_c, 0, 67, 0
2, 701400, Note_on_c, 0, 65, 100
2, 701430, Note_on_c, 0, 65, 0
2, 701430, Note_on_c, 0, 67, 100
2, 701460, Note_on_c, 0, 67, 0
2, 701460, Note_on_c, 0, 69, 100
2, 701490, Note_on_c, 0, 69, 0
2, 701490, Note_on_c, 0, 67, 100
2, 701610, Note_on_c, 0, 67, 0
2, 701610, Note_on_c, 0, 69, 100
2, 701640, Note_on_c, 0, 69, 0
2, 701640, Note_on_c, 0, 70, 100
2, 701670, Note_on_c, 0, 70, 0
2, 701670, Note_on_c, 0, 69, 100
2, 701700, Note_on_c, 0, 69, 0
2, 701700, Note_on_c, 0, 70, 100
2, 701730, Note_on_c, 0, 70, 0
2, 701730, Note_on_c, 0, 72, 100
2, 701760, Note_on_c, 0, 72, 0
2, 701760, Note_on_c, 0, 70, 100
2, 701790, Note_on_c, 0, 70, 0
2, 701790, Note_on_c, 0, 69, 100
2, 701820, Note_on_c, 0, 69, 0
2, 701820, Note_on_c, 0, 67, 100
2, 701850, Note_on_c, 0, 67, 0
2, 701850, Note_on_c, 0, 69, 100
2, 701970, Note_on_c, 0, 69, 0
2, 701970, Note_on_c, 0, 67, 100
2, 702000, Note_on_c, 0, 67, 0
2, 702000, Note_on_c, 0, 65, 100
2, 702030, Note_on_c, 0, 65, 0
2, 702030, Note_on_c, 0, 67, 100
2, 702060, Note_on_c, 0, 67, 0
2, 702060, Note_on_c, 0, 65, 100
2, 702090, Note_on_c, 0, 65, 0
2, 702090, Note_on_c, 0, 64, 100
2, 702120, Note_on_c, 0, 64, 0
2, 702120, Note_on_c, 0, 65, 100
2, 702180, Note_on_c, 0, 65, 0
2, 702180, Note_on_c, 0, 69, 100
2, 702210, Note_on_c, 0, 69, 0
2, 702210, Note_on_c, 0, 74, 100
2, 702270, Note_on_c, 0, 74, 0
2, 702270, Note_on_c, 0, 69, 100
2, 702300, Note_on_c, 0, 69, 0
2, 702300, Note_on_c, 0, 65, 100
2, 702360, Note_on_c, 0, 65, 0
2, 702360, Note_on_c, 0, 64, 100
2, 702390, Note_on_c, 0, 64, 0
2, 702390, Note_on_c, 0, 65, 100
2, 702450, Note_on_c, 0, 65, 0
2, 702450, Note_on_c, 0, 67, 100
2, 702480, Note_on_c, 0, 67, 0
2, 702480, Note_on_c, 0, 69, 100
2, 702510, Note_on_c, 0, 69, 0
2, 702510, Note_on_c, 0, 64, 100
2, 702540, Note_on_c, 0, 64, 0
2, 702540, Note_on_c, 0, 67, 100
2, 702570, Note_on_c, 0, 67, 0
2, 702570, Note_on_c, 0, 65, 100
2, 702600, Note_on_c, 0, 65, 0
2, 702600, Note_on_c, 0, 64, 100
2, 702630, Note_on_c, 0, 64, 0
2, 702630, Note_on_c, 0, 62, 100
2, 702660, Note_on_c, 0, 62, 0
2, 702660, Note_on_c, 0, 61, 100
2, 702750, Note_on_c, 0, 61, 0
2, 702750, Note_on_c, 0, 70, 100
2, 702840, Note_on_c, 0, 70, 0
2, 702840, Note_on_c, 0, 69, 100
2, 702960, Note_on_c, 0, 69, 0
2, 702960, Note_on_c, 0, 67, 100
2, 702990, Note_on_c, 0, 67, 0
2, 702990, Note_on_c, 0, 65, 100
2, 703020, Note_on_c, 0, 65, 0
2, 703020, Note_on_c, 0, 67, 100
2, 703320, Note_on_c, 0, 67, 0
2, 703320, Note_on_c, 0, 65, 100
2, 703350, Note_on_c, 0, 65, 0
2, 703350, Note_on_c, 0, 64, 100
2, 703380, Note_on_c, 0, 64, 0
2, 703380, Note_on_c, 0, 65, 100
2, 703440, Note_on_c, 0, 65, 0
2, 703440, Note_on_c, 0, 74, 100
2, 703470, Note_on_c, 0, 74, 0
2, 703470, Note_on_c, 0, 72, 100
2, 703530, Note_on_c, 0, 72, 0
2, 703530, Note_on_c, 0, 70, 100
2, 703560, Note_on_c, 0, 70, 0
2, 703560, Note_on_c, 0, 69, 100
2, 703800, Note_on_c, 0, 69, 0
2, 703800, Note_on_c, 0, 70, 100
2, 703830, Note_on_c, 0, 70, 0
2, 703830, Note_on_c, 0, 74, 100
2, 703830, Note_on_c, 0, 69, 100
2, 703890, Note_on_c, 0, 69, 0
2, 703890, Note_on_c, 0, 67, 100
2, 703920, Note_on_c, 0, 67, 0
2, 703920, Note_on_c, 0, 74, 0
2, 703920, Note_on_c, 0, 65, 100
2, 703920, Note_on_c, 0, 81, 100
2, 704010, Note_on_c, 0, 81, 0
2, 704010, Note_on_c, 0, 65, 0
2, 704010, Note_on_c, 0, 69, 100
2, 704130, Note_on_c, 0, 69, 0
2, 704130, Note_on_c, 0, 71, 100
2, 704160, Note_on_c, 0, 71, 0
2, 704160, Note_on_c, 0, 72, 100
2, 704190, Note_on_c, 0, 72, 0
2, 704190, Note_on_c, 0, 71, 100
2, 704190, Note_on_c, 0, 65, 100
2, 704220, Note_on_c, 0, 71, 0
2, 704220, Note_on_c, 0, 72, 100
2, 704250, Note_on_c, 0, 72, 0
2, 704250, Note_on_c, 0, 74, 100
2, 704280, Note_on_c, 0, 74, 0
2, 704280, Note_on_c, 0, 65, 0
2, 704280, Note_on_c, 0, 64, 100
2, 704280, Note_on_c, 0, 72, 100
2, 704310, Note_on_c, 0, 72, 0
2, 704310, Note_on_c, 0, 64, 0
2, 704310, Note_on_c, 0, 65, 100
2, 704310, Note_on_c, 0, 74, 100
2, 704340, Note_on_c, 0, 74, 0
2, 704340, Note_on_c, 0, 65, 0
2, 704340, Note_on_c, 0, 67, 100
2, 704340, Note_on_c, 0, 76, 100
2, 704370, Note_on_c, 0, 76, 0
2, 704370, Note_on_c, 0, 67, 0
2, 704370, Note_on_c, 0, 74, 100
2, 704490, Note_on_c, 0, 74, 0
2, 704490, Note_on_c, 0, 76, 100
2, 704520, Note_on_c, 0, 76, 0
2, 704520, Note_on_c, 0, 77, 100
2, 704550, Note_on_c, 0, 77, 0
2, 704550, Note_on_c, 0, 76, 100
2, 704580, Note_on_c, 0, 76, 0
2, 704580, Note_on_c, 0, 77, 100
2, 704610, Note_on_c, 0, 77, 0
2, 704610, Note_on_c, 0, 79, 100
2, 704640, Note_on_c, 0, 79, 0
2, 704640, Note_on_c, 0, 77, 100
2, 704670, Note_on_c, 0, 77, 0
2, 704670, Note_on_c, 0, 76, 100
2, 704700, Note_on_c, 0, 76, 0
2, 704700, Note_on_c, 0, 74, 100
2, 704730, Note_on_c, 0, 74, 0
2, 704730, Note_on_c, 0, 76, 100
2, 704850, Note_on_c, 0, 76, 0
2, 704850, Note_on_c, 0, 74, 100
2, 704880, Note_on_c, 0, 74, 0
2, 704880, Note_on_c, 0, 72, 100
2, 704910, Note_on_c, 0, 72, 0
2, 704910, Note_on_c, 0, 74, 100
2, 704940, Note_on_c, 0, 74, 0
2, 704940, Note_on_c, 0, 72, 100
2, 704970, Note_on_c, 0, 72, 0
2, 704970, Note_on_c, 0, 71, 100
2, 705000, Note_on_c, 0, 71, 0
2, 705000, Note_on_c, 0, 72, 100
2, 705060, Note_on_c, 0, 72, 0
2, 705060, Note_on_c, 0, 76, 100
2, 705090, Note_on_c, 0, 76, 0
2, 705090, Note_on_c, 0, 81, 100
2, 705150, Note_on_c, 0, 81, 0
2, 705150, Note_on_c, 0, 76, 100
2, 705180, Note_on_c, 0, 76, 0
2, 705180, Note_on_c, 0, 72, 100
2, 705240, Note_on_c, 0, 72, 0
2, 705240, Note_on_c, 0, 71, 100
2, 705270, Note_on_c, 0, 71, 0
2, 705270, Note_on_c, 0, 69, 100
2, 705270, Note_on_c, 0, 72, 100
2, 705330, Note_on_c, 0, 72, 0
2, 705330, Note_on_c, 0, 69, 0
2, 705330, Note_on_c, 0, 71, 100
2, 705330, Note_on_c, 0, 74, 100
2, 705360, Note_on_c, 0, 74, 0
2, 705360, Note_on_c, 0, 71, 0
2, 705360, Note_on_c, 0, 76, 100
2, 705360, Note_on_c, 0, 72, 100
2, 705450, Note_on_c, 0, 72, 0
2, 705450, Note_on_c, 0, 69, 100
2, 705540, Note_on_c, 0, 69, 0
2, 705540, Note_on_c, 0, 76, 0
2, 705540, Note_on_c, 0, 72, 100
2, 705630, Note_on_c, 0, 72, 0
2, 705630, Note_on_c, 0, 73, 100
2, 705630, Note_on_c, 0, 76, 100
2, 705720, Note_on_c, 0, 76, 0
2, 705720, Note_on_c, 0, 73, 0
2, 705720, Note_on_c, 0, 74, 100
2, 705720, Note_on_c, 0, 74, 100
2, 705810, Note_on_c, 0, 74, 0
2, 705810, Note_on_c, 0, 74, 0
2, 705810, Note_on_c, 0, 77, 100
2, 705810, Note_on_c, 0, 62, 100
2, 705870, Note_on_c, 0, 77, 0
2, 705870, Note_on_c, 0, 76, 100
2, 705900, Note_on_c, 0, 76, 0
2, 705900, Note_on_c, 0, 62, 0
2, 705900, Note_on_c, 0, 74, 100
2, 705990, Note_on_c, 0, 74, 0
2, 705990, Note_on_c, 0, 84, 100
2, 706080, Note_on_c, 0, 84, 0
2, 706080, Note_on_c, 0, 82, 100
2, 706170, Note_on_c, 0, 82, 0
2, 706170, Note_on_c, 0, 67, 100
2, 706170, Note_on_c, 0, 74, 100
2, 706260, Note_on_c, 0, 74, 0
2, 706260, Note_on_c, 0, 67, 0
2, 706260, Note_on_c, 0, 70, 100
2, 706350, Note_on_c, 0, 70, 0
2, 706350, Note_on_c, 0, 71, 100
2, 706350, Note_on_c, 0, 74, 100
2, 706440, Note_on_c, 0, 74, 0
2, 706440, Note_on_c, 0, 71, 0
2, 706440, Note_on_c, 0, 72, 100
2, 706530, Note_on_c, 0, 72, 0
2, 706530, Note_on_c, 0, 76, 100
2, 706530, Note_on_c, 0, 60, 100
2, 706590, Note_on_c, 0, 76, 0
2, 706590, Note_on_c, 0, 74, 100
2, 706620, Note_on_c, 0, 74, 0
2, 706620, Note_on_c, 0, 60, 0
2, 706620, Note_on_c, 0, 72, 100
2, 706710, Note_on_c, 0, 72, 0
2, 706710, Note_on_c, 0, 82, 100
2, 706800, Note_on_c, 0, 82, 0
2, 706800, Note_on_c, 0, 81, 100
2, 706950, Note_on_c, 0, 81, 0
2, 706950, Note_on_c, 0, 79, 100
2, 706980, Note_on_c, 0, 79, 0
2, 706980, Note_on_c, 0, 77, 100
2, 707040, Note_on_c, 0, 77, 0
2, 707040, Note_on_c, 0, 76, 100
2, 707070, Note_on_c, 0, 76, 0
2, 707070, Note_on_c, 0, 74, 100
2, 707130, Note_on_c, 0, 74, 0
2, 707130, Note_on_c, 0, 77, 100
2, 707160, Note_on_c, 0, 77, 0
2, 707160, Note_on_c, 0, 70, 100
2, 707250, Note_on_c, 0, 70, 0
2, 707250, Note_on_c, 0, 82, 100
2, 707340, Note_on_c, 0, 82, 0
2, 707340, Note_on_c, 0, 79, 100
2, 707430, Note_on_c, 0, 79, 0
2, 707430, Note_on_c, 0, 76, 100
2, 707520, Note_on_c, 0, 76, 0
2, 707520, Note_on_c, 0, 73, 100
2, 707610, Note_on_c, 0, 73, 0
2, 707640, Note_on_c, 0, 74, 100
2, 707670, Note_on_c, 0, 74, 0
2, 707670, Note_on_c, 0, 76, 100
2, 707700, Note_on_c, 0, 76, 0
2, 707700, Note_on_c, 0, 69, 100
2, 707760, Note_on_c, 0, 69, 0
2, 707760, Note_on_c, 0, 76, 100
2, 707790, Note_on_c, 0, 76, 0
2, 707790, Note_on_c, 0, 77, 100
2, 707850, Note_on_c, 0, 77, 0
2, 707850, Note_on_c, 0, 79, 100
2, 707880, Note_on_c, 0, 79, 0
2, 707880, Note_on_c, 0, 81, 100
2, 707970, Note_on_c, 0, 69, 100
2, 708030, Note_on_c, 0, 81, 0
2, 708030, Note_on_c, 0, 79, 100
2, 708060, Note_on_c, 0, 79, 0
2, 708060, Note_on_c, 0, 77, 100
2, 708090, Note_on_c, 0, 77, 0
2, 708090, Note_on_c, 0, 69, 0
2, 708090, Note_on_c, 0, 67, 100
2, 708090, Note_on_c, 0, 76, 100
2, 708120, Note_on_c, 0, 76, 0
2, 708120, Note_on_c, 0, 67, 0
2, 708120, Note_on_c, 0, 65, 100
2, 708120, Note_on_c, 0, 74, 100
2, 708150, Note_on_c, 0, 74, 0
2, 708150, Note_on_c, 0, 65, 0
2, 708150, Note_on_c, 0, 67, 100
2, 708150, Note_on_c, 0, 76, 100
2, 708180, Note_on_c, 0, 67, 0
2, 708180, Note_on_c, 0, 65, 100
2, 708210, Note_on_c, 0, 65, 0
2, 708210, Note_on_c, 0, 76, 0
2, 708210, Note_on_c, 0, 67, 100
2, 708210, Note_on_c, 0, 82, 100
2, 708240, Note_on_c, 0, 82, 0
2, 708240, Note_on_c, 0, 67, 0
2, 708240, Note_on_c, 0, 81, 100
2, 708270, Note_on_c, 0, 81, 0
2, 708270, Note_on_c, 0, 79, 100
2, 708300, Note_on_c, 0, 79, 0
2, 708300, Note_on_c, 0, 77, 100
2, 708330, Note_on_c, 0, 77, 0
2, 708330, Note_on_c, 0, 79, 100
2, 708360, Note_on_c, 0, 79, 0
2, 708360, Note_on_c, 0, 73, 100
2, 708390, Note_on_c, 0, 73, 0
2, 708390, Note_on_c, 0, 76, 100
2, 708420, Note_on_c, 0, 76, 0
2, 708420, Note_on_c, 0, 79, 100
2, 708450, Note_on_c, 0, 79, 0
2, 708450, Note_on_c, 0, 77, 100
2, 708480, Note_on_c, 0, 77, 0
2, 708480, Note_on_c, 0, 76, 100
2, 708570, Note_on_c, 0, 76, 0
2, 708570, Note_on_c, 0, 77, 100
2, 708600, Note_on_c, 0, 77, 0
2, 708600, Note_on_c, 0, 76, 100
2, 708630, Note_on_c, 0, 76, 0
2, 708630, Note_on_c, 0, 77, 100
2, 708660, Note_on_c, 0, 77, 0
2, 708660, Note_on_c, 0, 79, 100
2, 708690, Note_on_c, 0, 79, 0
2, 708690, Note_on_c, 0, 77, 100
2, 708720, Note_on_c, 0, 77, 0
2, 708720, Note_on_c, 0, 74, 100
2, 708750, Note_on_c, 0, 74, 0
2, 708750, Note_on_c, 0, 69, 100
2, 708780, Note_on_c, 0, 69, 0
2, 708780, Note_on_c, 0, 71, 100
2, 708810, Note_on_c, 0, 71, 0
2, 708810, Note_on_c, 0, 73, 100
2, 708840, Note_on_c, 0, 73, 0
2, 708840, Note_on_c, 0, 74, 100
2, 708870, Note_on_c, 0, 74, 0
2, 708870, Note_on_c, 0, 73, 100
2, 708900, Note_on_c, 0, 73, 0
2, 708900, Note_on_c, 0, 74, 100
2, 708930, Note_on_c, 0, 74, 0
2, 708930, Note_on_c, 0, 67, 100
2, 708930, Note_on_c, 0, 76, 100
2, 708960, Note_on_c, 0, 76, 0
2, 708960, Note_on_c, 0, 67, 0
2, 708960, Note_on_c, 0, 74, 100
2, 709050, Note_on_c, 0, 74, 0
2, 709050, Note_on_c, 0, 77, 100
2, 709140, Note_on_c, 0, 77, 0
2, 709140, Note_on_c, 0, 65, 100
2, 709140, Note_on_c, 0, 74, 100
2, 709200, Note_on_c, 0, 65, 0
2, 709200, Note_on_c, 0, 67, 100
2, 709230, Note_on_c, 0, 67, 0
2, 709230, Note_on_c, 0, 74, 0
2, 709230, Note_on_c, 0, 65, 100
2, 709230, Note_on_c, 0, 69, 100
2, 709290, Note_on_c, 0, 65, 0
2, 709290, Note_on_c, 0, 64, 100
2, 709320, Note_on_c, 0, 64, 0
2, 709320, Note_on_c, 0, 69, 0
2, 709320, Note_on_c, 0, 70, 100
2, 709380, Note_on_c, 0, 70, 0
2, 709380, Note_on_c, 0, 74, 100
2, 709410, Note_on_c, 0, 74, 0
2, 709410, Note_on_c, 0, 79, 100
2, 709470, Note_on_c, 0, 79, 0
2, 709470, Note_on_c, 0, 74, 100
2, 709500, Note_on_c, 0, 74, 0
2, 709500, Note_on_c, 0, 70, 100
2, 709560, Note_on_c, 0, 70, 0
2, 709560, Note_on_c, 0, 67, 100
2, 709590, Note_on_c, 0, 67, 0
2, 709590, Note_on_c, 0, 69, 100
2, 709590, Note_on_c, 0, 65, 100
2, 709650, Note_on_c, 0, 69, 0
2, 709650, Note_on_c, 0, 71, 100
2, 709680, Note_on_c, 0, 71, 0
2, 709680, Note_on_c, 0, 65, 0
2, 709680, Note_on_c, 0, 72, 100
2, 709770, Note_on_c, 0, 72, 0
2, 709770, Note_on_c, 0, 75, 100
2, 709860, Note_on_c, 0, 75, 0
2, 709860, Note_on_c, 0, 64, 100
2, 709860, Note_on_c, 0, 72, 100
2, 709920, Note_on_c, 0, 64, 0
2, 709920, Note_on_c, 0, 65, 100
2, 709950, Note_on_c, 0, 65, 0
2, 709950, Note_on_c, 0, 72, 0
2, 709950, Note_on_c, 0, 64, 100
2, 709950, Note_on_c, 0, 67, 100
2, 710010, Note_on_c, 0, 64, 0
2, 710010, Note_on_c, 0, 62, 100
2, 710040, Note_on_c, 0, 62, 0
2, 710040, Note_on_c, 0, 67, 0
2, 710040, Note_on_c, 0, 69, 100
2, 710100, Note_on_c, 0, 69, 0
2, 710100, Note_on_c, 0, 72, 100
2, 710130, Note_on_c, 0, 72, 0
2, 710130, Note_on_c, 0, 77, 100
2, 710190, Note_on_c, 0, 77, 0
2, 710190, Note_on_c, 0, 72, 100
2, 710220, Note_on_c, 0, 72, 0
2, 710220, Note_on_c, 0, 69, 100
2, 710280, Note_on_c, 0, 69, 0
2, 710280, Note_on_c, 0, 65, 100
2, 710310, Note_on_c, 0, 65, 0
2, 710310, Note_on_c, 0, 67, 100
2, 710310, Note_on_c, 0, 63, 100
2, 710370, Note_on_c, 0, 67, 0
2, 710370, Note_on_c, 0, 69, 100
2, 710400, Note_on_c, 0, 69, 0
2, 710400, Note_on_c, 0, 63, 0
2, 710400, Note_on_c, 0, 70, 100
2, 710490, Note_on_c, 0, 70, 0
2, 710490, Note_on_c, 0, 82, 100
2, 710610, Note_on_c, 0, 82, 0
2, 710610, Note_on_c, 0, 80, 100
2, 710640, Note_on_c, 0, 80, 0
2, 710640, Note_on_c, 0, 79, 100
2, 710670, Note_on_c, 0, 79, 0
2, 710670, Note_on_c, 0, 80, 100
2, 710700, Note_on_c, 0, 80, 0
2, 710700, Note_on_c, 0, 79, 100
2, 710730, Note_on_c, 0, 79, 0
2, 710730, Note_on_c, 0, 77, 100
2, 710760, Note_on_c, 0, 77, 0
2, 710760, Note_on_c, 0, 79, 100
2, 710790, Note_on_c, 0, 79, 0
2, 710790, Note_on_c, 0, 77, 100
2, 710820, Note_on_c, 0, 77, 0
2, 710820, Note_on_c, 0, 75, 100
2, 710850, Note_on_c, 0, 75, 0
2, 710850, Note_on_c, 0, 77, 100
2, 710970, Note_on_c, 0, 77, 0
2, 710970, Note_on_c, 0, 75, 100
2, 711000, Note_on_c, 0, 75, 0
2, 711000, Note_on_c, 0, 74, 100
2, 711030, Note_on_c, 0, 74, 0
2, 711030, Note_on_c, 0, 75, 100
2, 711060, Note_on_c, 0, 75, 0
2, 711060, Note_on_c, 0, 74, 100
2, 711090, Note_on_c, 0, 74, 0
2, 711090, Note_on_c, 0, 72, 100
2, 711120, Note_on_c, 0, 72, 0
2, 711120, Note_on_c, 0, 74, 100
2, 711150, Note_on_c, 0, 70, 100
2, 711180, Note_on_c, 0, 70, 0
2, 711180, Note_on_c, 0, 72, 100
2, 711210, Note_on_c, 0, 72, 0
2, 711210, Note_on_c, 0, 74, 0
2, 711210, Note_on_c, 0, 74, 100
2, 711210, Note_on_c, 0, 77, 100
2, 711240, Note_on_c, 0, 74, 0
2, 711240, Note_on_c, 0, 72, 100
2, 711270, Note_on_c, 0, 72, 0
2, 711270, Note_on_c, 0, 70, 100
2, 711300, Note_on_c, 0, 70, 0
2, 711300, Note_on_c, 0, 77, 0
2, 711300, Note_on_c, 0, 65, 100
2, 711300, Note_on_c, 0, 74, 100
2, 711390, Note_on_c, 0, 74, 0
2, 711390, Note_on_c, 0, 69, 100
2, 711480, Note_on_c, 0, 69, 0
2, 711480, Note_on_c, 0, 70, 100
2, 711510, Note_on_c, 0, 65, 0
2, 711510, Note_on_c, 0, 67, 100
2, 711540, Note_on_c, 0, 67, 0
2, 711540, Note_on_c, 0, 68, 100
2, 711570, Note_on_c, 0, 68, 0
2, 711570, Note_on_c, 0, 67, 100
2, 711600, Note_on_c, 0, 67, 0
2, 711600, Note_on_c, 0, 65, 100
2, 711630, Note_on_c, 0, 65, 0
2, 711630, Note_on_c, 0, 68, 100
2, 711660, Note_on_c, 0, 68, 0
2, 711660, Note_on_c, 0, 67, 100
2, 711750, Note_on_c, 0, 67, 0
2, 711750, Note_on_c, 0, 62, 100
2, 711840, Note_on_c, 0, 62, 0
2, 711840, Note_on_c, 0, 63, 100
2, 711870, Note_on_c, 0, 63, 0
2, 711870, Note_on_c, 0, 62, 100
2, 711900, Note_on_c, 0, 62, 0
2, 711900, Note_on_c, 0, 60, 100
2, 711930, Note_on_c, 0, 60, 0
2, 711930, Note_on_c, 0, 62, 100
2, 711960, Note_on_c, 0, 62, 0
2, 711960, Note_on_c, 0, 63, 100
2, 711990, Note_on_c, 0, 63, 0
2, 711990, Note_on_c, 0, 60, 100
2, 712020, Note_on_c, 0, 60, 0
2, 712020, Note_on_c, 0, 62, 100
2, 712110, Note_on_c, 0, 62, 0
2, 712110, Note_on_c, 0, 67, 100
2, 712200, Note_on_c, 0, 67, 0
2, 712200, Note_on_c, 0, 65, 100
2, 712230, Note_on_c, 0, 65, 0
2, 712230, Note_on_c, 0, 58, 100
2, 712260, Note_on_c, 0, 58, 0
2, 712260, Note_on_c, 0, 62, 100
2, 712290, Note_on_c, 0, 62, 0
2, 712290, Note_on_c, 0, 65, 100
2, 712320, Note_on_c, 0, 65, 0
2, 712320, Note_on_c, 0, 62, 100
2, 712350, Note_on_c, 0, 62, 0
2, 712350, Note_on_c, 0, 65, 100
2, 712380, Note_on_c, 0, 65, 0
2, 712380, Note_on_c, 0, 70, 0
2, 712380, Note_on_c, 0, 70, 100
2, 712440, Note_on_c, 0, 70, 0
2, 712440, Note_on_c, 0, 64, 100
2, 712470, Note_on_c, 0, 64, 0
2, 712470, Note_on_c, 0, 65, 100
2, 712470, Note_on_c, 0, 70, 100
2, 712530, Note_on_c, 0, 65, 0
2, 712530, Note_on_c, 0, 67, 100
2, 712560, Note_on_c, 0, 67, 0
2, 712560, Note_on_c, 0, 70, 0
2, 712560, Note_on_c, 0, 69, 100
2, 712560, Note_on_c, 0, 65, 100
2, 712590, Note_on_c, 0, 69, 0
2, 712590, Note_on_c, 0, 70, 100
2, 712620, Note_on_c, 0, 70, 0
2, 712620, Note_on_c, 0, 72, 100
2, 712650, Note_on_c, 0, 72, 0
2, 712650, Note_on_c, 0, 65, 0
2, 712650, Note_on_c, 0, 77, 100
2, 712650, Note_on_c, 0, 70, 100
2, 712680, Note_on_c, 0, 70, 0
2, 712680, Note_on_c, 0, 72, 100
2, 712710, Note_on_c, 0, 72, 0
2, 712710, Note_on_c, 0, 74, 100
2, 712740, Note_on_c, 0, 74, 0
2, 712740, Note_on_c, 0, 65, 100
2, 712770, Note_on_c, 0, 77, 0
2, 712770, Note_on_c, 0, 75, 100
2, 712800, Note_on_c, 0, 75, 0
2, 712800, Note_on_c, 0, 74, 100
2, 712830, Note_on_c, 0, 74, 0
2, 712830, Note_on_c, 0, 75, 100
2, 712860, Note_on_c, 0, 75, 0
2, 712860, Note_on_c, 0, 74, 100
2, 712890, Note_on_c, 0, 74, 0
2, 712890, Note_on_c, 0, 72, 100
2, 712920, Note_on_c, 0, 72, 0
2, 712920, Note_on_c, 0, 74, 100
2, 712950, Note_on_c, 0, 74, 0
2, 712950, Note_on_c, 0, 72, 100
2, 712980, Note_on_c, 0, 72, 0
2, 712980, Note_on_c, 0, 70, 100
2, 713010, Note_on_c, 0, 70, 0
2, 713010, Note_on_c, 0, 72, 100
2, 713130, Note_on_c, 0, 72, 0
2, 713130, Note_on_c, 0, 70, 100
2, 713160, Note_on_c, 0, 70, 0
2, 713160, Note_on_c, 0, 69, 100
2, 713190, Note_on_c, 0, 69, 0
2, 713190, Note_on_c, 0, 70, 100
2, 713220, Note_on_c, 0, 70, 0
2, 713220, Note_on_c, 0, 69, 100
2, 713250, Note_on_c, 0, 69, 0
2, 713250, Note_on_c, 0, 67, 100
2, 713280, Note_on_c, 0, 67, 0
2, 713280, Note_on_c, 0, 69, 100
2, 713310, Note_on_c, 0, 69, 0
2, 713310, Note_on_c, 0, 70, 100
2, 713340, Note_on_c, 0, 70, 0
2, 713340, Note_on_c, 0, 72, 100
2, 713370, Note_on_c, 0, 72, 0
2, 713370, Note_on_c, 0, 70, 100
2, 713490, Note_on_c, 0, 70, 0
2, 713490, Note_on_c, 0, 72, 100
2, 713520, Note_on_c, 0, 72, 0
2, 713520, Note_on_c, 0, 74, 100
2, 713550, Note_on_c, 0, 74, 0
2, 713550, Note_on_c, 0, 72, 100
2, 713580, Note_on_c, 0, 72, 0
2, 713580, Note_on_c, 0, 74, 100
2, 713610, Note_on_c, 0, 74, 0
2, 713610, Note_on_c, 0, 75, 100
2, 713640, Note_on_c, 0, 75, 0
2, 713640, Note_on_c, 0, 74, 100
2, 713700, Note_on_c, 0, 74, 0
2, 713700, Note_on_c, 0, 70, 100
2, 713730, Note_on_c, 0, 70, 0
2, 713730, Note_on_c, 0, 65, 100
2, 713790, Note_on_c, 0, 65, 0
2, 713790, Note_on_c, 0, 70, 100
2, 713820, Note_on_c, 0, 70, 0
2, 713820, Note_on_c, 0, 65, 0
2, 713820, Note_on_c, 0, 74, 100
2, 713880, Note_on_c, 0, 74, 0
2, 713880, Note_on_c, 0, 75, 100
2, 713910, Note_on_c, 0, 75, 0
2, 713910, Note_on_c, 0, 74, 100
2, 713910, Note_on_c, 0, 62, 100
2, 713970, Note_on_c, 0, 74, 0
2, 713970, Note_on_c, 0, 72, 100
2, 714000, Note_on_c, 0, 72, 0
2, 714000, Note_on_c, 0, 62, 0
2, 714000, Note_on_c, 0, 70, 100
2, 714000, Note_on_c, 0, 67, 100
2, 714030, Note_on_c, 0, 70, 0
2, 714030, Note_on_c, 0, 67, 100
2, 714060, Note_on_c, 0, 67, 0
2, 714060, Note_on_c, 0, 69, 100
2, 714090, Note_on_c, 0, 69, 0
2, 714090, Note_on_c, 0, 67, 0
2, 714090, Note_on_c, 0, 70, 100
2, 714120, Note_on_c, 0, 70, 0
2, 714120, Note_on_c, 0, 72, 100
2, 714150, Note_on_c, 0, 72, 0
2, 714150, Note_on_c, 0, 74, 100
2, 714180, Note_on_c, 0, 74, 0
2, 714180, Note_on_c, 0, 76, 100
2, 714240, Note_on_c, 0, 76, 0
2, 714240, Note_on_c, 0, 74, 100
2, 714270, Note_on_c, 0, 74, 0
2, 714270, Note_on_c, 0, 72, 100
2, 714330, Note_on_c, 0, 72, 0
2, 714330, Note_on_c, 0, 76, 100
2, 714360, Note_on_c, 0, 76, 0
2, 714360, Note_on_c, 0, 74, 100
2, 714390, Note_on_c, 0, 74, 0
2, 714390, Note_on_c, 0, 75, 100
2, 714420, Note_on_c, 0, 75, 0
2, 714420, Note_on_c, 0, 77, 100
2, 714450, Note_on_c, 0, 77, 0
2, 714450, Note_on_c, 0, 75, 100
2, 714480, Note_on_c, 0, 75, 0
2, 714480, Note_on_c, 0, 79, 100
2, 714510, Note_on_c, 0, 79, 0
2, 714510, Note_on_c, 0, 75, 100
2, 714540, Note_on_c, 0, 75, 0
2, 714540, Note_on_c, 0, 72, 100
2, 714570, Note_on_c, 0, 72, 0
2, 714570, Note_on_c, 0, 71, 100
2, 714600, Note_on_c, 0, 71, 0
2, 714600, Note_on_c, 0, 69, 100
2, 714630, Note_on_c, 0, 69, 0
2, 714630, Note_on_c, 0, 71, 100
2, 714660, Note_on_c, 0, 71, 0
2, 714660, Note_on_c, 0, 72, 100
2, 714690, Note_on_c, 0, 72, 0
2, 714690, Note_on_c, 0, 74, 100
2, 714720, Note_on_c, 0, 74, 0
2, 714720, Note_on_c, 0, 72, 100
2, 714750, Note_on_c, 0, 72, 0
2, 714750, Note_on_c, 0, 70, 100
2, 714780, Note_on_c, 0, 70, 0
2, 714780, Note_on_c, 0, 69, 100
2, 714810, Note_on_c, 0, 69, 0
2, 714810, Note_on_c, 0, 70, 100
2, 714840, Note_on_c, 0, 70, 0
2, 714840, Note_on_c, 0, 67, 100
2, 714870, Note_on_c, 0, 67, 0
2, 714870, Note_on_c, 0, 69, 100
2, 714900, Note_on_c, 0, 69, 0
2, 714900, Note_on_c, 0, 70, 100
2, 714930, Note_on_c, 0, 70, 0
2, 714930, Note_on_c, 0, 72, 100
2, 714960, Note_on_c, 0, 72, 0
2, 714960, Note_on_c, 0, 74, 100
2, 714990, Note_on_c, 0, 74, 0
2, 714990, Note_on_c, 0, 75, 100
2, 715020, Note_on_c, 0, 75, 0
2, 715020, Note_on_c, 0, 74, 100
2, 715050, Note_on_c, 0, 74, 0
2, 715050, Note_on_c, 0, 72, 100
2, 715080, Note_on_c, 0, 72, 0
2, 715080, Note_on_c, 0, 74, 100
2, 715110, Note_on_c, 0, 74, 0
2, 715110, Note_on_c, 0, 67, 100
2, 715140, Note_on_c, 0, 67, 0
2, 715140, Note_on_c, 0, 70, 100
2, 715170, Note_on_c, 0, 70, 0
2, 715170, Note_on_c, 0, 74, 100
2, 715200, Note_on_c, 0, 74, 0
2, 715200, Note_on_c, 0, 70, 100
2, 715230, Note_on_c, 0, 70, 0
2, 715230, Note_on_c, 0, 74, 100
2, 715260, Note_on_c, 0, 74, 0
2, 715260, Note_on_c, 0, 79, 100
2, 715320, Note_on_c, 0, 79, 0
2, 715320, Note_on_c, 0, 78, 100
2, 715350, Note_on_c, 0, 78, 0
2, 715350, Note_on_c, 0, 79, 100
2, 715410, Note_on_c, 0, 79, 0
2, 715410, Note_on_c, 0, 81, 100
2, 715440, Note_on_c, 0, 81, 0
2, 715440, Note_on_c, 0, 82, 100
2, 715500, Note_on_c, 0, 82, 0
2, 715500, Note_on_c, 0, 79, 100
2, 715530, Note_on_c, 0, 79, 0
2, 715530, Note_on_c, 0, 74, 100
2, 715590, Note_on_c, 0, 74, 0
2, 715590, Note_on_c, 0, 79, 100
2, 715620, Note_on_c, 0, 79, 0
2, 715620, Note_on_c, 0, 82, 100
2, 715680, Note_on_c, 0, 82, 0
2, 715680, Note_on_c, 0, 84, 100
2, 715710, Note_on_c, 0, 84, 0
2, 715710, Note_on_c, 0, 82, 100
2, 715770, Note_on_c, 0, 82, 0
2, 715770, Note_on_c, 0, 81, 100
2, 715800, Note_on_c, 0, 81, 0
2, 715800, Note_on_c, 0, 79, 100
2, 715860, Note_on_c, 0, 67, 100
2, 715890, Note_on_c, 0, 67, 0
2, 715890, Note_on_c, 0, 79, 0
2, 715890, Note_on_c, 0, 72, 100
2, 715890, Note_on_c, 0, 76, 100
2, 715950, Note_on_c, 0, 72, 0
2, 715950, Note_on_c, 0, 67, 100
2, 715980, Note_on_c, 0, 67, 0
2, 715980, Note_on_c, 0, 76, 0
2, 715980, Note_on_c, 0, 79, 100
2, 716070, Note_on_c, 0, 79, 0
2, 716070, Note_on_c, 0, 82, 100
2, 716160, Note_on_c, 0, 82, 0
2, 716160, Note_on_c, 0, 81, 100
2, 716220, Note_on_c, 0, 81, 0
2, 716220, Note_on_c, 0, 77, 100
2, 716250, Note_on_c, 0, 77, 0
2, 716250, Note_on_c, 0, 72, 100
2, 716310, Note_on_c, 0, 72, 0
2, 716310, Note_on_c, 0, 77, 100
2, 716340, Note_on_c, 0, 77, 0
2, 716340, Note_on_c, 0, 81, 100
2, 716400, Note_on_c, 0, 81, 0
2, 716400, Note_on_c, 0, 82, 100
2, 716430, Note_on_c, 0, 82, 0
2, 716430, Note_on_c, 0, 81, 100
2, 716490, Note_on_c, 0, 81, 0
2, 716490, Note_on_c, 0, 79, 100
2, 716520, Note_on_c, 0, 79, 0
2, 716520, Note_on_c, 0, 77, 100
2, 716580, Note_on_c, 0, 65, 100
2, 716610, Note_on_c, 0, 65, 0
2, 716610, Note_on_c, 0, 77, 0
2, 716610, Note_on_c, 0, 70, 100
2, 716610, Note_on_c, 0, 74, 100
2, 716670, Note_on_c, 0, 70, 0
2, 716670, Note_on_c, 0, 65, 100
2, 716700, Note_on_c, 0, 65, 0
2, 716700, Note_on_c, 0, 74, 0
2, 716700, Note_on_c, 0, 77, 100
2, 716790, Note_on_c, 0, 77, 0
2, 716790, Note_on_c, 0, 81, 100
2, 716880, Note_on_c, 0, 81, 0
2, 716880, Note_on_c, 0, 79, 100
2, 716970, Note_on_c, 0, 79, 0
2, 716970, Note_on_c, 0, 74, 100
2, 717060, Note_on_c, 0, 74, 0
2, 717060, Note_on_c, 0, 73, 100
2, 717150, Note_on_c, 0, 73, 0
2, 717150, Note_on_c, 0, 70, 100
2, 717240, Note_on_c, 0, 70, 0
2, 717240, Note_on_c, 0, 69, 100
2, 717330, Note_on_c, 0, 69, 0
2, 717330, Note_on_c, 0, 73, 100
2, 717345, Note_on_c, 0, 73, 0
2, 717345, Note_on_c, 0, 74, 100
2, 717360, Note_on_c, 0, 74, 0
2, 717360, Note_on_c, 0, 76, 100
2, 717375, Note_on_c, 0, 76, 0
2, 717375, Note_on_c, 0, 77, 100
2, 717390, Note_on_c, 0, 77, 0
2, 717390, Note_on_c, 0, 79, 100
2, 717405, Note_on_c, 0, 79, 0
2, 717405, Note_on_c, 0, 81, 100
2, 717420, Note_on_c, 0, 81, 0
2, 717420, Note_on_c, 0, 82, 100
2, 717480, Note_on_c, 0, 77, 100
2, 717510, Note_on_c, 0, 77, 0
2, 717510, Note_on_c, 0, 82, 0
2, 717510, Note_on_c, 0, 76, 100
2, 717540, Note_on_c, 0, 76, 0
2, 717540, Note_on_c, 0, 77, 100
2, 717570, Note_on_c, 0, 77, 0
2, 717570, Note_on_c, 0, 79, 100
2, 717600, Note_on_c, 0, 79, 0
2, 717600, Note_on_c, 0, 73, 100
2, 717630, Note_on_c, 0, 76, 100
2, 717660, Note_on_c, 0, 76, 0
2, 717660, Note_on_c, 0, 81, 100
2, 717690, Note_on_c, 0, 81, 0
2, 717690, Note_on_c, 0, 73, 0
2, 717690, Note_on_c, 0, 79, 100
2, 717720, Note_on_c, 0, 79, 0
2, 717720, Note_on_c, 0, 77, 100
2, 717750, Note_on_c, 0, 77, 0
2, 717750, Note_on_c, 0, 76, 100
2, 717780, Note_on_c, 0, 76, 0
2, 717780, Note_on_c, 0, 77, 100
2, 717810, Note_on_c, 0, 77, 0
2, 717810, Note_on_c, 0, 76, 100
2, 717840, Note_on_c, 0, 76, 0
2, 717840, Note_on_c, 0, 74, 100
2, 717870, Note_on_c, 0, 74, 0
2, 717870, Note_on_c, 0, 73, 100
2, 717870, Note_on_c, 0, 64, 100
2, 717900, Note_on_c, 0, 73, 0
2, 717900, Note_on_c, 0, 74, 100
2, 717930, Note_on_c, 0, 74, 0
2, 717930, Note_on_c, 0, 76, 100
2, 717960, Note_on_c, 0, 76, 0
2, 717960, Note_on_c, 0, 64, 0
2, 717960, Note_on_c, 0, 77, 100
2, 718050, Note_on_c, 0, 77, 0
2, 718050, Note_on_c, 0, 69, 100
2, 718170, Note_on_c, 0, 69, 0
2, 718170, Note_on_c, 0, 67, 100
2, 718200, Note_on_c, 0, 67, 0
2, 718200, Note_on_c, 0, 65, 100
2, 718230, Note_on_c, 0, 65, 0
2, 718230, Note_on_c, 0, 67, 100
2, 718230, Note_on_c, 0, 70, 100
2, 718260, Note_on_c, 0, 67, 0
2, 718260, Note_on_c, 0, 65, 100
2, 718290, Note_on_c, 0, 65, 0
2, 718290, Note_on_c, 0, 64, 100
2, 718320, Note_on_c, 0, 64, 0
2, 718320, Note_on_c, 0, 70, 0
2, 718320, Note_on_c, 0, 65, 100
2, 718320, Note_on_c, 0, 69, 100
2, 718350, Note_on_c, 0, 69, 0
2, 718350, Note_on_c, 0, 65, 0
2, 718350, Note_on_c, 0, 64, 100
2, 718350, Note_on_c, 0, 67, 100
2, 718380, Note_on_c, 0, 67, 0
2, 718380, Note_on_c, 0, 64, 0
2, 718380, Note_on_c, 0, 62, 100
2, 718380, Note_on_c, 0, 65, 100
2, 718410, Note_on_c, 0, 65, 0
2, 718410, Note_on_c, 0, 62, 0
2, 718410, Note_on_c, 0, 67, 100
2, 718440, Note_on_c, 0, 67, 0
2, 718440, Note_on_c, 0, 69, 100
2, 718470, Note_on_c, 0, 69, 0
2, 718470, Note_on_c, 0, 65, 100
2, 718500, Note_on_c, 0, 65, 0
2, 718500, Note_on_c, 0, 67, 100
2, 718515, Note_on_c, 0, 67, 0
2, 718515, Note_on_c, 0, 65, 100
2, 718530, Note_on_c, 0, 65, 0
2, 718530, Note_on_c, 0, 64, 100
2, 718650, Note_on_c, 0, 64, 0
2, 718650, Note_on_c, 0, 65, 100
2, 718680, Note_on_c, 0, 65, 0
2, 718680, Note_on_c, 0, 61, 100
2, 718680, Note_on_c, 0, 64, 100
2, 718710, Note_on_c, 0, 61, 0
2, 718710, Note_on_c, 0, 62, 100
2, 718740, Note_on_c, 0, 62, 0
2, 718740, Note_on_c, 0, 64, 100
2, 718770, Note_on_c, 0, 64, 0
2, 718770, Note_on_c, 0, 64, 0
2, 718770, Note_on_c, 0, 62, 100
2, 718890, Note_on_c, 0, 62, 0
2, 718890, Note_on_c, 0, 64, 100
2, 718920, Note_on_c, 0, 64, 0
2, 718920, Note_on_c, 0, 65, 100
2, 718950, Note_on_c, 0, 65, 0
2, 718950, Note_on_c, 0, 64, 100
2, 718950, Note_on_c, 0, 76, 100
2, 718980, Note_on_c, 0, 64, 0
2, 718980, Note_on_c, 0, 65, 100
2, 719010, Note_on_c, 0, 65, 0
2, 719010, Note_on_c, 0, 67, 100
2, 719040, Note_on_c, 0, 67, 0
2, 719040, Note_on_c, 0, 76, 0
2, 719040, Note_on_c, 0, 65, 100
2, 719040, Note_on_c, 0, 69, 100
2, 719100, Note_on_c, 0, 65, 0
2, 719130, Note_on_c, 0, 69, 0
2, 719220, Note_on_c, 0, 65, 100
2, 719280, Note_on_c, 0, 65, 0
2, 719280, Note_on_c, 0, 67, 100
2, 719310, Note_on_c, 0, 67, 0
2, 719310, Note_on_c, 0, 65, 100
2, 719310, Note_on_c, 0, 69, 100
2, 719370, Note_on_c, 0, 65, 0
2, 719370, Note_on_c, 0, 64, 100
2, 719400, Note_on_c, 0, 64, 0
2, 719400, Note_on_c, 0, 69, 0
2, 719400, Note_on_c, 0, 70, 100
2, 719400, Note_on_c, 0, 62, 100
2, 719460, Note_on_c, 0, 70, 0
2, 719460, Note_on_c, 0, 74, 100
2, 719490, Note_on_c, 0, 74, 0
2, 719490, Note_on_c, 0, 62, 0
2, 719490, Note_on_c, 0, 79, 100
2, 719490, Note_on_c, 0, 70, 100
2, 719550, Note_on_c, 0, 79, 0
2, 719550, Note_on_c, 0, 74, 100
2, 719580, Note_on_c, 0, 74, 0
2, 719580, Note_on_c, 0, 70, 0
2, 719580, Note_on_c, 0, 70, 100
2, 719580, Note_on_c, 0, 67, 100
2, 719640, Note_on_c, 0, 70, 0
2, 719640, Note_on_c, 0, 67, 100
2, 719670, Note_on_c, 0, 67, 0
2, 719670, Note_on_c, 0, 67, 0
2, 719670, Note_on_c, 0, 69, 100
2, 719670, Note_on_c, 0, 62, 100
2, 719730, Note_on_c, 0, 69, 0
2, 719730, Note_on_c, 0, 70, 100
2, 719760, Note_on_c, 0, 70, 0
2, 719760, Note_on_c, 0, 62, 0
2, 719760, Note_on_c, 0, 67, 100
2, 719760, Note_on_c, 0, 64, 100
2, 719820, Note_on_c, 0, 67, 0
2, 719820, Note_on_c, 0, 64, 100
2, 719850, Note_on_c, 0, 64, 0
2, 719850, Note_on_c, 0, 64, 0
2, 719850, Note_on_c, 0, 59, 100
2, 719910, Note_on_c, 0, 59, 0
2, 719910, Note_on_c, 0, 64, 100
2, 719940, Note_on_c, 0, 64, 0
2, 719940, Note_on_c, 0, 67, 100
2, 720000, Note_on_c, 0, 67, 0
2, 720000, Note_on_c, 0, 69, 100
2, 720030, Note_on_c, 0, 69, 0
2, 720030, Note_on_c, 0, 67, 100
2, 720030, Note_on_c, 0, 71, 100
2, 720090, Note_on_c, 0, 67, 0
2, 720090, Note_on_c, 0, 65, 100
2, 720120, Note_on_c, 0, 65, 0
2, 720120, Note_on_c, 0, 71, 0
2, 720120, Note_on_c, 0, 72, 100
2, 720120, Note_on_c, 0, 64, 100
2, 720180, Note_on_c, 0, 72, 0
2, 720180, Note_on_c, 0, 76, 100
2, 720210, Note_on_c, 0, 76, 0
2, 720210, Note_on_c, 0, 64, 0
2, 720210, Note_on_c, 0, 81, 100
2, 720210, Note_on_c, 0, 72, 100
2, 720270, Note_on_c, 0, 81, 0
2, 720270, Note_on_c, 0, 76, 100
2, 720300, Note_on_c, 0, 76, 0
2, 720300, Note_on_c, 0, 72, 0
2, 720300, Note_on_c, 0, 72, 100
2, 720300, Note_on_c, 0, 69, 100
2, 720360, Note_on_c, 0, 72, 0
2, 720360, Note_on_c, 0, 69, 100
2, 720390, Note_on_c, 0, 69, 0
2, 720390, Note_on_c, 0, 69, 0
2, 720390, Note_on_c, 0, 70, 100
2, 720390, Note_on_c, 0, 64, 100
2, 720450, Note_on_c, 0, 70, 0
2, 720450, Note_on_c, 0, 72, 100
2, 720480, Note_on_c, 0, 72, 0
2, 720480, Note_on_c, 0, 64, 0
2, 720480, Note_on_c, 0, 69, 100
2, 720480, Note_on_c, 0, 65, 100
2, 720540, Note_on_c, 0, 69, 0
2, 720540, Note_on_c, 0, 65, 100
2, 720570, Note_on_c, 0, 65, 0
2, 720570, Note_on_c, 0, 65, 0
2, 720570, Note_on_c, 0, 60, 100
2, 720630, Note_on_c, 0, 60, 0
2, 720630, Note_on_c, 0, 65, 100
2, 720660, Note_on_c, 0, 65, 0
2, 720660, Note_on_c, 0, 69, 100
2, 720720, Note_on_c, 0, 69, 0
2, 720720, Note_on_c, 0, 70, 100
2, 720750, Note_on_c, 0, 70, 0
2, 720750, Note_on_c, 0, 69, 100
2, 720750, Note_on_c, 0, 72, 100
2, 720810, Note_on_c, 0, 69, 0
2, 720810, Note_on_c, 0, 67, 100
2, 720840, Note_on_c, 0, 67, 0
2, 720840, Note_on_c, 0, 72, 0
2, 720840, Note_on_c, 0, 65, 100
2, 720840, Note_on_c, 0, 74, 100
2, 720900, Note_on_c, 0, 74, 0
2, 720900, Note_on_c, 0, 77, 100
2, 720930, Note_on_c, 0, 77, 0
2, 720930, Note_on_c, 0, 82, 100
2, 720990, Note_on_c, 0, 82, 0
2, 720990, Note_on_c, 0, 77, 100
2, 721020, Note_on_c, 0, 77, 0
2, 721020, Note_on_c, 0, 65, 0
2, 721020, Note_on_c, 0, 74, 100
2, 721080, Note_on_c, 0, 74, 0
2, 721080, Note_on_c, 0, 70, 100
2, 721110, Note_on_c, 0, 70, 0
2, 721110, Note_on_c, 0, 72, 100
2, 721110, Note_on_c, 0, 69, 100
2, 721170, Note_on_c, 0, 72, 0
2, 721170, Note_on_c, 0, 74, 100
2, 721200, Note_on_c, 0, 74, 0
2, 721200, Note_on_c, 0, 69, 0
2, 721200, Note_on_c, 0, 70, 100
2, 721200, Note_on_c, 0, 67, 100
2, 721260, Note_on_c, 0, 70, 0
2, 721260, Note_on_c, 0, 67, 100
2, 721290, Note_on_c, 0, 67, 0
2, 721290, Note_on_c, 0, 67, 0
2, 721290, Note_on_c, 0, 62, 100
2, 721350, Note_on_c, 0, 62, 0
2, 721350, Note_on_c, 0, 67, 100
2, 721380, Note_on_c, 0, 67, 0
2, 721380, Note_on_c, 0, 70, 100
2, 721440, Note_on_c, 0, 70, 0
2, 721440, Note_on_c, 0, 72, 100
2, 721470, Note_on_c, 0, 72, 0
2, 721470, Note_on_c, 0, 70, 100
2, 721470, Note_on_c, 0, 74, 100
2, 721530, Note_on_c, 0, 70, 0
2, 721530, Note_on_c, 0, 69, 100
2, 721560, Note_on_c, 0, 69, 0
2, 721560, Note_on_c, 0, 74, 0
2, 721560, Note_on_c, 0, 67, 100
2, 721560, Note_on_c, 0, 73, 100
2, 721650, Note_on_c, 0, 73, 0
2, 721650, Note_on_c, 0, 67, 0
2, 721800, Note_on_c, 0, 64, 100
2, 721800, Note_on_c, 0, 79, 100
2, 721830, Note_on_c, 0, 79, 0
2, 721830, Note_on_c, 0, 64, 0
2, 721830, Note_on_c, 0, 65, 100
2, 721830, Note_on_c, 0, 77, 100
2, 721890, Note_on_c, 0, 77, 0
2, 721890, Note_on_c, 0, 65, 0
2, 721890, Note_on_c, 0, 67, 100
2, 721890, Note_on_c, 0, 76, 100
2, 721920, Note_on_c, 0, 76, 0
2, 721920, Note_on_c, 0, 67, 0
2, 721920, Note_on_c, 0, 82, 100
2, 722160, Note_on_c, 0, 82, 0
2, 722220, Note_on_c, 0, 82, 100
2, 722250, Note_on_c, 0, 82, 0
2, 722250, Note_on_c, 0, 73, 100
2, 722280, Note_on_c, 0, 73, 0
2, 722280, Note_on_c, 0, 65, 100
2, 722280, Note_on_c, 0, 74, 100
2, 722310, Note_on_c, 0, 65, 0
2, 722310, Note_on_c, 0, 67, 100
2, 722340, Note_on_c, 0, 67, 0
2, 722340, Note_on_c, 0, 69, 100
2, 722370, Note_on_c, 0, 69, 0
2, 722370, Note_on_c, 0, 70, 100
2, 722400, Note_on_c, 0, 70, 0
2, 722400, Note_on_c, 0, 74, 0
2, 722400, Note_on_c, 0, 77, 100
2, 722400, Note_on_c, 0, 67, 100
2, 722415, Note_on_c, 0, 77, 0
2, 722415, Note_on_c, 0, 76, 100
2, 722430, Note_on_c, 0, 76, 0
2, 722430, Note_on_c, 0, 67, 0
2, 722430, Note_on_c, 0, 77, 100
2, 722430, Note_on_c, 0, 69, 100
2, 722445, Note_on_c, 0, 77, 0
2, 722445, Note_on_c, 0, 76, 100
2, 722460, Note_on_c, 0, 76, 0
2, 722460, Note_on_c, 0, 69, 0
2, 722460, Note_on_c, 0, 77, 100
2, 722460, Note_on_c, 0, 71, 100
2, 722475, Note_on_c, 0, 77, 0
2, 722475, Note_on_c, 0, 76, 100
2, 722490, Note_on_c, 0, 76, 0
2, 722490, Note_on_c, 0, 71, 0
2, 722490, Note_on_c, 0, 77, 100
2, 722490, Note_on_c, 0, 69, 100
2, 722505, Note_on_c, 0, 77, 0
2, 722505, Note_on_c, 0, 76, 100
2, 722520, Note_on_c, 0, 69, 0
2, 722520, Note_on_c, 0, 71, 100
2, 722550, Note_on_c, 0, 71, 0
2, 722550, Note_on_c, 0, 73, 100
2, 722580, Note_on_c, 0, 73, 0
2, 722580, Note_on_c, 0, 76, 0
2, 722580, Note_on_c, 0, 74, 100
2, 722580, Note_on_c, 0, 71, 100
2, 722610, Note_on_c, 0, 71, 0
2, 722610, Note_on_c, 0, 74, 0
2, 722610, Note_on_c, 0, 76, 100
2, 722610, Note_on_c, 0, 73, 100
2, 722640, Note_on_c, 0, 73, 0
2, 722640, Note_on_c, 0, 76, 0
2, 722640, Note_on_c, 0, 74, 100
2, 722640, Note_on_c, 0, 77, 100
2, 722670, Note_on_c, 0, 74, 0
2, 722670, Note_on_c, 0, 65, 100
2, 722700, Note_on_c, 0, 65, 0
2, 722700, Note_on_c, 0, 67, 100
2, 722730, Note_on_c, 0, 67, 0
2, 722730, Note_on_c, 0, 69, 100
2, 722760, Note_on_c, 0, 69, 0
2, 722760, Note_on_c, 0, 77, 0
2, 722760, Note_on_c, 0, 79, 100
2, 722760, Note_on_c, 0, 67, 100
2, 722790, Note_on_c, 0, 67, 0
2, 722790, Note_on_c, 0, 79, 0
2, 722790, Note_on_c, 0, 81, 100
2, 722790, Note_on_c, 0, 65, 100
2, 722820, Note_on_c, 0, 65, 0
2, 722820, Note_on_c, 0, 81, 0
2, 722820, Note_on_c, 0, 81, 100
2, 722820, Note_on_c, 0, 64, 100
2, 722835, Note_on_c, 0, 81, 0
2, 722835, Note_on_c, 0, 79, 100
2, 722850, Note_on_c, 0, 79, 0
2, 722850, Note_on_c, 0, 64, 0
2, 722850, Note_on_c, 0, 81, 100
2, 722850, Note_on_c, 0, 67, 100
2, 722865, Note_on_c, 0, 81, 0
2, 722865, Note_on_c, 0, 79, 100
2, 722880, Note_on_c, 0, 79, 0
2, 722880, Note_on_c, 0, 67, 0
2, 722880, Note_on_c, 0, 81, 100
2, 722880, Note_on_c, 0, 69, 100
2, 722895, Note_on_c, 0, 81, 0
2, 722895, Note_on_c, 0, 79, 100
2, 722910, Note_on_c, 0, 79, 0
2, 722910, Note_on_c, 0, 69, 0
2, 722910, Note_on_c, 0, 81, 100
2, 722910, Note_on_c, 0, 70, 100
2, 722925, Note_on_c, 0, 81, 0
2, 722925, Note_on_c, 0, 79, 100
2, 722940, Note_on_c, 0, 79, 0
2, 722940, Note_on_c, 0, 70, 0
2, 722940, Note_on_c, 0, 77, 100
2, 722940, Note_on_c, 0, 69, 100
2, 722970, Note_on_c, 0, 69, 0
2, 722970, Note_on_c, 0, 77, 0
2, 722970, Note_on_c, 0, 79, 100
2, 722970, Note_on_c, 0, 67, 100
2, 723000, Note_on_c, 0, 67, 0
2, 723000, Note_on_c, 0, 79, 0
2, 723000, Note_on_c, 0, 65, 100
2, 723000, Note_on_c, 0, 81, 100
2, 723030, Note_on_c, 0, 65, 0
2, 723030, Note_on_c, 0, 62, 100
2, 723060, Note_on_c, 0, 62, 0
2, 723060, Note_on_c, 0, 65, 100
2, 723090, Note_on_c, 0, 65, 0
2, 723090, Note_on_c, 0, 69, 100
2, 723120, Note_on_c, 0, 69, 0
2, 723120, Note_on_c, 0, 65, 100
2, 723150, Note_on_c, 0, 65, 0
2, 723150, Note_on_c, 0, 69, 100
2, 723180, Note_on_c, 0, 69, 0
2, 723180, Note_on_c, 0, 74, 100
2, 723210, Note_on_c, 0, 74, 0
2, 723210, Note_on_c, 0, 73, 100
2, 723240, Note_on_c, 0, 73, 0
2, 723240, Note_on_c, 0, 71, 100
2, 723270, Note_on_c, 0, 71, 0
2, 723270, Note_on_c, 0, 73, 100
2, 723300, Note_on_c, 0, 73, 0
2, 723300, Note_on_c, 0, 74, 100
2, 723330, Note_on_c, 0, 74, 0
2, 723330, Note_on_c, 0, 76, 100
2, 723360, Note_on_c, 0, 76, 0
2, 723360, Note_on_c, 0, 74, 100
2, 723390, Note_on_c, 0, 81, 0
2, 723390, Note_on_c, 0, 82, 100
2, 723420, Note_on_c, 0, 82, 0
2, 723420, Note_on_c, 0, 84, 100
2, 723450, Note_on_c, 0, 84, 0
2, 723450, Note_on_c, 0, 82, 100
2, 723480, Note_on_c, 0, 82, 0
2, 723480, Note_on_c, 0, 79, 100
2, 723510, Note_on_c, 0, 79, 0
2, 723510, Note_on_c, 0, 74, 100
2, 723540, Note_on_c, 0, 74, 0
2, 723540, Note_on_c, 0, 76, 100
2, 723570, Note_on_c, 0, 76, 0
2, 723570, Note_on_c, 0, 78, 100
2, 723600, Note_on_c, 0, 78, 0
2, 723600, Note_on_c, 0, 79, 100
2, 723630, Note_on_c, 0, 79, 0
2, 723630, Note_on_c, 0, 78, 100
2, 723660, Note_on_c, 0, 78, 0
2, 723660, Note_on_c, 0, 79, 100
2, 723690, Note_on_c, 0, 79, 0
2, 723690, Note_on_c, 0, 81, 100
2, 723720, Note_on_c, 0, 81, 0
2, 723720, Note_on_c, 0, 79, 100
2, 723750, Note_on_c, 0, 79, 0
2, 723750, Note_on_c, 0, 77, 100
2, 723780, Note_on_c, 0, 77, 0
2, 723780, Note_on_c, 0, 76, 100
2, 723810, Note_on_c, 0, 76, 0
2, 723810, Note_on_c, 0, 77, 100
2, 723840, Note_on_c, 0, 77, 0
2, 723840, Note_on_c, 0, 74, 0
2, 723840, Note_on_c, 0, 73, 100
2, 723840, Note_on_c, 0, 76, 100
2, 723870, Note_on_c, 0, 76, 0
2, 723870, Note_on_c, 0, 73, 0
2, 723870, Note_on_c, 0, 71, 100
2, 723870, Note_on_c, 0, 74, 100
2, 723900, Note_on_c, 0, 74, 0
2, 723900, Note_on_c, 0, 71, 0
2, 723900, Note_on_c, 0, 76, 100
2, 723900, Note_on_c, 0, 73, 100
2, 723990, Note_on_c, 0, 73, 0
2, 723990, Note_on_c, 0, 76, 0
2, 724110, Note_on_c, 0, 74, 100
2, 724140, Note_on_c, 0, 74, 0
2, 724140, Note_on_c, 0, 70, 100
2, 724170, Note_on_c, 0, 70, 0
2, 724170, Note_on_c, 0, 65, 100
2, 724200, Note_on_c, 0, 65, 0
2, 724200, Note_on_c, 0, 69, 100
2, 724230, Note_on_c, 0, 69, 0
2, 724230, Note_on_c, 0, 65, 100
2, 724260, Note_on_c, 0, 65, 0
2, 724260, Note_on_c, 0, 62, 100
2, 724290, Note_on_c, 0, 62, 0
2, 724290, Note_on_c, 0, 65, 100
2, 724320, Note_on_c, 0, 65, 0
2, 724320, Note_on_c, 0, 69, 100
2, 724350, Note_on_c, 0, 69, 0
2, 724350, Note_on_c, 0, 74, 100
2, 724350, Note_on_c, 0, 74, 100
2, 724380, Note_on_c, 0, 74, 0
2, 724380, Note_on_c, 0, 73, 100
2, 724410, Note_on_c, 0, 73, 0
2, 724410, Note_on_c, 0, 71, 100
2, 724440, Note_on_c, 0, 71, 0
2, 724440, Note_on_c, 0, 74, 0
2, 724440, Note_on_c, 0, 73, 100
2, 724440, Note_on_c, 0, 69, 100
2, 724470, Note_on_c, 0, 73, 0
2, 724470, Note_on_c, 0, 69, 100
2, 724500, Note_on_c, 0, 69, 0
2, 724500, Note_on_c, 0, 64, 100
2, 724530, Note_on_c, 0, 64, 0
2, 724530, Note_on_c, 0, 69, 0
2, 724530, Note_on_c, 0, 81, 100
2, 724530, Note_on_c, 0, 60, 100
2, 724560, Note_on_c, 0, 60, 0
2, 724560, Note_on_c, 0, 62, 100
2, 724590, Note_on_c, 0, 62, 0
2, 724590, Note_on_c, 0, 64, 100
2, 724620, Note_on_c, 0, 64, 0
2, 724620, Note_on_c, 0, 65, 100
2, 724650, Note_on_c, 0, 65, 0
2, 724650, Note_on_c, 0, 81, 0
2, 724650, Note_on_c, 0, 79, 100
2, 724650, Note_on_c, 0, 64, 100
2, 724680, Note_on_c, 0, 64, 0
2, 724680, Note_on_c, 0, 79, 0
2, 724680, Note_on_c, 0, 77, 100
2, 724680, Note_on_c, 0, 62, 100
2, 724710, Note_on_c, 0, 62, 0
2, 724710, Note_on_c, 0, 77, 0
2, 724710, Note_on_c, 0, 64, 100
2, 724710, Note_on_c, 0, 79, 100
2, 724740, Note_on_c, 0, 79, 0
2, 724740, Note_on_c, 0, 77, 100
2, 724770, Note_on_c, 0, 77, 0
2, 724770, Note_on_c, 0, 64, 0
2, 724770, Note_on_c, 0, 72, 100
2, 724770, Note_on_c, 0, 76, 100
2, 724800, Note_on_c, 0, 76, 0
2, 724800, Note_on_c, 0, 72, 0
2, 724800, Note_on_c, 0, 77, 100
2, 724800, Note_on_c, 0, 74, 100
2, 724830, Note_on_c, 0, 77, 0
2, 724830, Note_on_c, 0, 76, 100
2, 724860, Note_on_c, 0, 76, 0
2, 724860, Note_on_c, 0, 74, 100
2, 724890, Note_on_c, 0, 74, 0
2, 724890, Note_on_c, 0, 76, 100
2, 724920, Note_on_c, 0, 74, 0
2, 724920, Note_on_c, 0, 73, 100
2, 724950, Note_on_c, 0, 73, 0
2, 724950, Note_on_c, 0, 71, 100
2, 724980, Note_on_c, 0, 71, 0
2, 724980, Note_on_c, 0, 73, 100
2, 725010, Note_on_c, 0, 73, 0
2, 725010, Note_on_c, 0, 76, 0
2, 725010, Note_on_c, 0, 74, 100
2, 725040, Note_on_c, 0, 74, 0
2, 725040, Note_on_c, 0, 73, 100
2, 725040, Note_on_c, 0, 76, 100
2, 725070, Note_on_c, 0, 76, 0
2, 725070, Note_on_c, 0, 73, 0
2, 725070, Note_on_c, 0, 74, 100
2, 725070, Note_on_c, 0, 77, 100
2, 725100, Note_on_c, 0, 77, 0
2, 725100, Note_on_c, 0, 74, 0
2, 725100, Note_on_c, 0, 73, 100
2, 725100, Note_on_c, 0, 76, 100
2, 725130, Note_on_c, 0, 76, 0
2, 725130, Note_on_c, 0, 73, 0
2, 725130, Note_on_c, 0, 71, 100
2, 725130, Note_on_c, 0, 74, 100
2, 725160, Note_on_c, 0, 74, 0
2, 725160, Note_on_c, 0, 71, 0
2, 725160, Note_on_c, 0, 76, 100
2, 725160, Note_on_c, 0, 73, 100
2, 725190, Note_on_c, 0, 73, 0
2, 725190, Note_on_c, 0, 74, 100
2, 725220, Note_on_c, 0, 74, 0
2, 725220, Note_on_c, 0, 76, 0
2, 725220, Note_on_c, 0, 67, 100
2, 725220, Note_on_c, 0, 76, 100
2, 725250, Note_on_c, 0, 76, 0
2, 725250, Note_on_c, 0, 67, 0
2, 725250, Note_on_c, 0, 74, 100
2, 725250, Note_on_c, 0, 65, 100
2, 725280, Note_on_c, 0, 65, 0
2, 725280, Note_on_c, 0, 64, 100
2, 725310, Note_on_c, 0, 64, 0
2, 725310, Note_on_c, 0, 62, 100
2, 725340, Note_on_c, 0, 62, 0
2, 725370, Note_on_c, 0, 74, 0
2, 725370, Note_on_c, 0, 76, 100
2, 725400, Note_on_c, 0, 76, 0
2, 725400, Note_on_c, 0, 77, 100
2, 725430, Note_on_c, 0, 77, 0
2, 725430, Note_on_c, 0, 76, 100
2, 725460, Note_on_c, 0, 76, 0
2, 725460, Note_on_c, 0, 77, 100
2, 725490, Note_on_c, 0, 77, 0
2, 725490, Note_on_c, 0, 79, 100
2, 725520, Note_on_c, 0, 79, 0
2, 725520, Note_on_c, 0, 77, 100
2, 725520, Note_on_c, 0, 69, 100
2, 725580, Note_on_c, 0, 77, 0
2, 725580, Note_on_c, 0, 74, 100
2, 725610, Note_on_c, 0, 74, 0
2, 725610, Note_on_c, 0, 69, 0
2, 725610, Note_on_c, 0, 69, 100
2, 725670, Note_on_c, 0, 69, 0
2, 725670, Note_on_c, 0, 74, 100
2, 725700, Note_on_c, 0, 74, 0
2, 725700, Note_on_c, 0, 77, 100
2, 725760, Note_on_c, 0, 77, 0
2, 725760, Note_on_c, 0, 70, 100
2, 725760, Note_on_c, 0, 79, 100
2, 725790, Note_on_c, 0, 79, 0
2, 725790, Note_on_c, 0, 70, 0
2, 725790, Note_on_c, 0, 69, 100
2, 725790, Note_on_c, 0, 77, 100
2, 725850, Note_on_c, 0, 77, 0
2, 725850, Note_on_c, 0, 69, 0
2, 725850, Note_on_c, 0, 67, 100
2, 725850, Note_on_c, 0, 76, 100
2, 725880, Note_on_c, 0, 76, 0
2, 725880, Note_on_c, 0, 67, 0
2, 725880, Note_on_c, 0, 65, 100
2, 725880, Note_on_c, 0, 74, 100
2, 725910, Note_on_c, 0, 74, 0
2, 725910, Note_on_c, 0, 65, 0
2, 725910, Note_on_c, 0, 64, 100
2, 725910, Note_on_c, 0, 72, 100
2, 725940, Note_on_c, 0, 72, 0
2, 725940, Note_on_c, 0, 64, 0
2, 725940, Note_on_c, 0, 62, 100
2, 725940, Note_on_c, 0, 70, 100
2, 725970, Note_on_c, 0, 70, 0
2, 725970, Note_on_c, 0, 62, 0
2, 725970, Note_on_c, 0, 69, 100
2, 725970, Note_on_c, 0, 72, 100
2, 726090, Note_on_c, 0, 72, 0
2, 726090, Note_on_c, 0, 70, 100
2, 726120, Note_on_c, 0, 70, 0
2, 726120, Note_on_c, 0, 69, 100
2, 726150, Note_on_c, 0, 69, 0
2, 726150, Note_on_c, 0, 69, 0
2, 726150, Note_on_c, 0, 67, 100
2, 726150, Note_on_c, 0, 70, 100
2, 726180, Note_on_c, 0, 70, 0
2, 726180, Note_on_c, 0, 67, 0
2, 726180, Note_on_c, 0, 69, 100
2, 726180, Note_on_c, 0, 72, 100
2, 726210, Note_on_c, 0, 72, 0
2, 726210, Note_on_c, 0, 69, 0
2, 726210, Note_on_c, 0, 70, 100
2, 726210, Note_on_c, 0, 74, 100
2, 726240, Note_on_c, 0, 74, 0
2, 726240, Note_on_c, 0, 70, 0
2, 726240, Note_on_c, 0, 69, 100
2, 726240, Note_on_c, 0, 66, 100
2, 726600, Note_on_c, 0, 66, 0
2, 726600, Note_on_c, 0, 69, 0
2, 727320, Control_c, 0, 91, 64
2, 727320, Control_c, 0, 93, 10
2, 727320, Control_c, 0, 74, 64
2, 727320, Control_c, 0, 91, 64
2, 727320, Control_c, 0, 93, 10
2, 727320, Control_c, 0, 74, 64
2, 732480, Note_on_c, 0, 62, 100
2, 732720, Note_on_c, 0, 62, 0
2, 732720, Note_on_c, 0, 69, 100
2, 733080, Note_on_c, 0, 69, 0
2, 733080, Note_on_c, 0, 67, 100
2, 733200, Note_on_c, 0, 67, 0
2, 733200, Note_on_c, 0, 65, 100
2, 733680, Note_on_c, 0, 65, 0
2, 733680, Note_on_c, 0, 67, 100
2, 734160, Note_on_c, 0, 67, 0
2, 734160, Note_on_c, 0, 69, 100
2, 734640, Note_on_c, 0, 69, 0
2, 734640, Note_on_c, 0, 62, 100
2, 734880, Note_on_c, 0, 69, 100
2, 735120, Note_on_c, 0, 69, 0
2, 735120, Note_on_c, 0, 74, 100
2, 735360, Note_on_c, 0, 62, 0
2, 735360, Note_on_c, 0, 64, 100
2, 735480, Note_on_c, 0, 74, 0
2, 735480, Note_on_c, 0, 74, 100
2, 735600, Note_on_c, 0, 74, 0
2, 735600, Note_on_c, 0, 72, 100
2, 735720, Note_on_c, 0, 64, 0
2, 735720, Note_on_c, 0, 60, 100
2, 735840, Note_on_c, 0, 60, 0
2, 735840, Note_on_c, 0, 65, 100
2, 736080, Note_on_c, 0, 72, 0
2, 736080, Note_on_c, 0, 74, 100
2, 736200, Note_on_c, 0, 65, 0
2, 736200, Note_on_c, 0, 62, 100
2, 736320, Note_on_c, 0, 62, 0
2, 736320, Note_on_c, 0, 67, 100
2, 736560, Note_on_c, 0, 74, 0
2, 736560, Note_on_c, 0, 76, 100
2, 736680, Note_on_c, 0, 67, 0
2, 736680, Note_on_c, 0, 64, 100
2, 736800, Note_on_c, 0, 64, 0
2, 736800, Note_on_c, 0, 69, 100
2, 736920, Note_on_c, 0, 69, 0
2, 736920, Note_on_c, 0, 67, 100
2, 737040, Note_on_c, 0, 76, 0
2, 737040, Note_on_c, 0, 69, 100
2, 737160, Note_on_c, 0, 67, 0
2, 737160, Note_on_c, 0, 65, 100
2, 737220, Note_on_c, 0, 65, 0
2, 737220, Note_on_c, 0, 64, 100
2, 737280, Note_on_c, 0, 64, 0
2, 737280, Note_on_c, 0, 65, 100
2, 737400, Note_on_c, 0, 69, 0
2, 737400, Note_on_c, 0, 71, 100
2, 737520, Note_on_c, 0, 71, 0
2, 737520, Note_on_c, 0, 65, 0
2, 737520, Note_on_c, 0, 72, 100
2, 737520, Note_on_c, 0, 64, 100
2, 737640, Note_on_c, 0, 64, 0
2, 737640, Note_on_c, 0, 60, 100
2, 737700, Note_on_c, 0, 60, 0
2, 737700, Note_on_c, 0, 62, 100
2, 737760, Note_on_c, 0, 62, 0
2, 737760, Note_on_c, 0, 64, 100
2, 737880, Note_on_c, 0, 72, 0
2, 737880, Note_on_c, 0, 74, 100
2, 738000, Note_on_c, 0, 74, 0
2, 738000, Note_on_c, 0, 67, 100
2, 738120, Note_on_c, 0, 64, 0
2, 738120, Note_on_c, 0, 63, 100
2, 738240, Note_on_c, 0, 67, 0
2, 738240, Note_on_c, 0, 66, 100
2, 738360, Note_on_c, 0, 63, 0
2, 738360, Note_on_c, 0, 62, 100
2, 738480, Note_on_c, 0, 66, 0
2, 738480, Note_on_c, 0, 67, 100
2, 738540, Note_on_c, 0, 62, 0
2, 738540, Note_on_c, 0, 64, 100
2, 738600, Note_on_c, 0, 64, 0
2, 738600, Note_on_c, 0, 65, 100
2, 738720, Note_on_c, 0, 67, 0
2, 738720, Note_on_c, 0, 68, 100
2, 738840, Note_on_c, 0, 65, 0
2, 738840, Note_on_c, 0, 64, 100
2, 738900, Note_on_c, 0, 64, 0
2, 738900, Note_on_c, 0, 62, 100
2, 738960, Note_on_c, 0, 62, 0
2, 738960, Note_on_c, 0, 68, 0
2, 738960, Note_on_c, 0, 69, 100
2, 738960, Note_on_c, 0, 60, 100
2, 739020, Note_on_c, 0, 69, 0
2, 739020, Note_on_c, 0, 72, 100
2, 739080, Note_on_c, 0, 60, 0
2, 739080, Note_on_c, 0, 62, 100
2, 739140, Note_on_c, 0, 72, 0
2, 739140, Note_on_c, 0, 71, 100
2, 739200, Note_on_c, 0, 71, 0
2, 739200, Note_on_c, 0, 62, 0
2, 739200, Note_on_c, 0, 72, 100
2, 739200, Note_on_c, 0, 64, 100
2, 739440, Note_on_c, 0, 64, 0
2, 739440, Note_on_c, 0, 62, 100
2, 739560, Note_on_c, 0, 72, 0
2, 739560, Note_on_c, 0, 71, 100
2, 739620, Note_on_c, 0, 71, 0
2, 739620, Note_on_c, 0, 69, 100
2, 739680, Note_on_c, 0, 69, 0
2, 739680, Note_on_c, 0, 71, 100
2, 739800, Note_on_c, 0, 62, 0
2, 739800, Note_on_c, 0, 64, 100
2, 739860, Note_on_c, 0, 64, 0
2, 739860, Note_on_c, 0, 65, 100
2, 739920, Note_on_c, 0, 65, 0
2, 739920, Note_on_c, 0, 71, 0
2, 739920, Note_on_c, 0, 72, 100
2, 739920, Note_on_c, 0, 64, 100
2, 740040, Note_on_c, 0, 64, 0
2, 740040, Note_on_c, 0, 72, 0
2, 740040, Note_on_c, 0, 70, 100
2, 740040, Note_on_c, 0, 62, 100
2, 740160, Note_on_c, 0, 62, 0
2, 740160, Note_on_c, 0, 70, 0
2, 740160, Note_on_c, 0, 69, 100
2, 740160, Note_on_c, 0, 60, 100
2, 740280, Note_on_c, 0, 69, 0
2, 740280, Note_on_c, 0, 67, 100
2, 740400, Note_on_c, 0, 67, 0
2, 740400, Note_on_c, 0, 66, 100
2, 740520, Note_on_c, 0, 60, 0
2, 740520, Note_on_c, 0, 62, 100
2, 740580, Note_on_c, 0, 62, 0
2, 740580, Note_on_c, 0, 63, 100
2, 740640, Note_on_c, 0, 63, 0
2, 740640, Note_on_c, 0, 62, 100
2, 740760, Note_on_c, 0, 66, 0
2, 740760, Note_on_c, 0, 67, 100
2, 740820, Note_on_c, 0, 67, 0
2, 740820, Note_on_c, 0, 69, 100
2, 740880, Note_on_c, 0, 69, 0
2, 740880, Note_on_c, 0, 67, 100
2, 741000, Note_on_c, 0, 62, 0
2, 741000, Note_on_c, 0, 64, 100
2, 741060, Note_on_c, 0, 64, 0
2, 741060, Note_on_c, 0, 66, 100
2, 741120, Note_on_c, 0, 66, 0
2, 741120, Note_on_c, 0, 67, 100
2, 741240, Note_on_c, 0, 67, 0
2, 741240, Note_on_c, 0, 69, 100
2, 741300, Note_on_c, 0, 69, 0
2, 741300, Note_on_c, 0, 70, 100
2, 741360, Note_on_c, 0, 70, 0
2, 741360, Note_on_c, 0, 72, 100
2, 741480, Note_on_c, 0, 67, 0
2, 741480, Note_on_c, 0, 66, 100
2, 741540, Note_on_c, 0, 66, 0
2, 741540, Note_on_c, 0, 67, 100
2, 741600, Note_on_c, 0, 67, 0
2, 741600, Note_on_c, 0, 69, 100
2, 741840, Note_on_c, 0, 69, 0
2, 741840, Note_on_c, 0, 62, 100
2, 741960, Note_on_c, 0, 72, 0
2, 741960, Note_on_c, 0, 70, 100
2, 742020, Note_on_c, 0, 70, 0
2, 742020, Note_on_c, 0, 69, 100
2, 742080, Note_on_c, 0, 69, 0
2, 742080, Note_on_c, 0, 70, 100
2, 742200, Note_on_c, 0, 62, 0
2, 742200, Note_on_c, 0, 64, 100
2, 742320, Note_on_c, 0, 64, 0
2, 742320, Note_on_c, 0, 70, 0
2, 742320, Note_on_c, 0, 69, 100
2, 742320, Note_on_c, 0, 65, 100
2, 742440, Note_on_c, 0, 69, 0
2, 742440, Note_on_c, 0, 71, 100
2, 742500, Note_on_c, 0, 71, 0
2, 742500, Note_on_c, 0, 73, 100
2, 742560, Note_on_c, 0, 73, 0
2, 742560, Note_on_c, 0, 74, 100
2, 742800, Note_on_c, 0, 65, 0
2, 742800, Note_on_c, 0, 64, 100
2, 742920, Note_on_c, 0, 74, 0
2, 742920, Note_on_c, 0, 76, 100
2, 742980, Note_on_c, 0, 76, 0
2, 742980, Note_on_c, 0, 74, 100
2, 743040, Note_on_c, 0, 74, 0
2, 743040, Note_on_c, 0, 73, 100
2, 743280, Note_on_c, 0, 73, 0
2, 743280, Note_on_c, 0, 64, 0
2, 743280, Note_on_c, 0, 74, 100
2, 743280, Note_on_c, 0, 62, 100
2, 743400, Note_on_c, 0, 74, 0
2, 743400, Note_on_c, 0, 72, 100
2, 743640, Note_on_c, 0, 72, 0
2, 743640, Note_on_c, 0, 71, 100
2, 743760, Note_on_c, 0, 71, 0
2, 743760, Note_on_c, 0, 62, 0
2, 743760, Note_on_c, 0, 73, 100
2, 743760, Note_on_c, 0, 69, 100
2, 744000, Note_on_c, 0, 73, 0
2, 744000, Note_on_c, 0, 74, 100
2, 744480, Note_on_c, 0, 74, 0
2, 744480, Note_on_c, 0, 73, 100
2, 744600, Note_on_c, 0, 69, 0
2, 744600, Note_on_c, 0, 67, 100
2, 744720, Note_on_c, 0, 73, 0
2, 744720, Note_on_c, 0, 74, 100
2, 744840, Note_on_c, 0, 67, 0
2, 744840, Note_on_c, 0, 65, 100
2, 744900, Note_on_c, 0, 65, 0
2, 744900, Note_on_c, 0, 64, 100
2, 744960, Note_on_c, 0, 64, 0
2, 744960, Note_on_c, 0, 74, 0
2, 744960, Note_on_c, 0, 69, 100
2, 744960, Note_on_c, 0, 65, 100
2, 745200, Note_on_c, 0, 65, 0
2, 745200, Note_on_c, 0, 69, 0
2, 745200, Note_on_c, 0, 74, 100
2, 745440, Note_on_c, 0, 62, 100
2, 745560, Note_on_c, 0, 74, 0
2, 745560, Note_on_c, 0, 74, 100
2, 745680, Note_on_c, 0, 74, 0
2, 745680, Note_on_c, 0, 62, 0
2, 745680, Note_on_c, 0, 72, 100
2, 745680, Note_on_c, 0, 69, 100
2, 746040, Note_on_c, 0, 69, 0
2, 746040, Note_on_c, 0, 67, 100
2, 746160, Note_on_c, 0, 67, 0
2, 746160, Note_on_c, 0, 72, 0
2, 746160, Note_on_c, 0, 74, 100
2, 746160, Note_on_c, 0, 65, 100
2, 746640, Note_on_c, 0, 65, 0
2, 746640, Note_on_c, 0, 74, 0
2, 746640, Note_on_c, 0, 76, 100
2, 746640, Note_on_c, 0, 67, 100
2, 747120, Note_on_c, 0, 67, 0
2, 747120, Note_on_c, 0, 76, 0
2, 747120, Note_on_c, 0, 69, 100
2, 747120, Note_on_c, 0, 69, 100
2, 747240, Note_on_c, 0, 69, 0
2, 747240, Note_on_c, 0, 71, 100
2, 747360, Note_on_c, 0, 71, 0
2, 747360, Note_on_c, 0, 72, 100
2, 747600, Note_on_c, 0, 69, 0
2, 747600, Note_on_c, 0, 62, 100
2, 747720, Note_on_c, 0, 62, 0
2, 747720, Note_on_c, 0, 64, 100
2, 747840, Note_on_c, 0, 64, 0
2, 747840, Note_on_c, 0, 65, 100
2, 747960, Note_on_c, 0, 72, 0
2, 747960, Note_on_c, 0, 71, 100
2, 748080, Note_on_c, 0, 71, 0
2, 748080, Note_on_c, 0, 72, 100
2, 748200, Note_on_c, 0, 72, 0
2, 748200, Note_on_c, 0, 65, 0
2, 748200, Note_on_c, 0, 67, 100
2, 748200, Note_on_c, 0, 64, 100
2, 748260, Note_on_c, 0, 64, 0
2, 748260, Note_on_c, 0, 62, 100
2, 748320, Note_on_c, 0, 62, 0
2, 748320, Note_on_c, 0, 67, 0
2, 748320, Note_on_c, 0, 72, 100
2, 748320, Note_on_c, 0, 64, 100
2, 748680, Note_on_c, 0, 64, 0
2, 748680, Note_on_c, 0, 60, 100
2, 748800, Note_on_c, 0, 60, 0
2, 748800, Note_on_c, 0, 65, 100
2, 748920, Note_on_c, 0, 72, 0
2, 748920, Note_on_c, 0, 69, 100
2, 749040, Note_on_c, 0, 69, 0
2, 749040, Note_on_c, 0, 74, 100
2, 749160, Note_on_c, 0, 65, 0
2, 749160, Note_on_c, 0, 62, 100
2, 749280, Note_on_c, 0, 62, 0
2, 749280, Note_on_c, 0, 67, 100
2, 749400, Note_on_c, 0, 67, 0
2, 749400, Note_on_c, 0, 65, 100
2, 749520, Note_on_c, 0, 65, 0
2, 749520, Note_on_c, 0, 64, 100
2, 749640, Note_on_c, 0, 64, 0
2, 749640, Note_on_c, 0, 74, 0
2, 749640, Note_on_c, 0, 67, 100
2, 749640, Note_on_c, 0, 62, 100
2, 749760, Note_on_c, 0, 62, 0
2, 749760, Note_on_c, 0, 67, 0
2, 749760, Note_on_c, 0, 72, 100
2, 749760, Note_on_c, 0, 63, 100
2, 749880, Note_on_c, 0, 72, 0
2, 749880, Note_on_c, 0, 70, 100
2, 750000, Note_on_c, 0, 70, 0
2, 750000, Note_on_c, 0, 69, 100
2, 750120, Note_on_c, 0, 69, 0
2, 750120, Note_on_c, 0, 67, 100
2, 750240, Note_on_c, 0, 67, 0
2, 750240, Note_on_c, 0, 63, 0
2, 750240, Note_on_c, 0, 69, 100
2, 750240, Note_on_c, 0, 62, 100
2, 750360, Note_on_c, 0, 62, 0
2, 750360, Note_on_c, 0, 60, 100
2, 750480, Note_on_c, 0, 60, 0
2, 750480, Note_on_c, 0, 59, 100
2, 750600, Note_on_c, 0, 59, 0
2, 750600, Note_on_c, 0, 57, 100
2, 750720, Note_on_c, 0, 57, 0
2, 750720, Note_on_c, 0, 69, 0
2, 750720, Note_on_c, 0, 67, 100
2, 750720, Note_on_c, 0, 58, 100
2, 750840, Note_on_c, 0, 67, 0
2, 750840, Note_on_c, 0, 65, 100
2, 750960, Note_on_c, 0, 65, 0
2, 750960, Note_on_c, 0, 64, 100
2, 751080, Note_on_c, 0, 64, 0
2, 751080, Note_on_c, 0, 62, 100
2, 751200, Note_on_c, 0, 62, 0
2, 751200, Note_on_c, 0, 58, 0
2, 751200, Note_on_c, 0, 63, 100
2, 751200, Note_on_c, 0, 57, 100
2, 751320, Note_on_c, 0, 57, 0
2, 751320, Note_on_c, 0, 55, 100
2, 751440, Note_on_c, 0, 55, 0
2, 751440, Note_on_c, 0, 54, 100
2, 751560, Note_on_c, 0, 54, 0
2, 751560, Note_on_c, 0, 57, 100
2, 751680, Note_on_c, 0, 57, 0
2, 751680, Note_on_c, 0, 63, 0
2, 751680, Note_on_c, 0, 62, 100
2, 751680, Note_on_c, 0, 62, 100
2, 751800, Note_on_c, 0, 62, 0
2, 751800, Note_on_c, 0, 60, 100
2, 751920, Note_on_c, 0, 60, 0
2, 751920, Note_on_c, 0, 58, 100
2, 752040, Note_on_c, 0, 58, 0
2, 752040, Note_on_c, 0, 57, 100
2, 752160, Note_on_c, 0, 57, 0
2, 752160, Note_on_c, 0, 58, 100
2, 752277, Note_on_c, 0, 62, 0
2, 752280, Note_on_c, 0, 62, 100
2, 752400, Note_on_c, 0, 62, 0
2, 752400, Note_on_c, 0, 58, 0
2, 752400, Note_on_c, 0, 67, 100
2, 752400, Note_on_c, 0, 59, 100
2, 752520, Note_on_c, 0, 67, 0
2, 752520, Note_on_c, 0, 65, 100
2, 752640, Note_on_c, 0, 65, 0
2, 752640, Note_on_c, 0, 59, 0
2, 752640, Note_on_c, 0, 64, 100
2, 752640, Note_on_c, 0, 60, 100
2, 752760, Note_on_c, 0, 64, 0
2, 752760, Note_on_c, 0, 67, 100
2, 752880, Note_on_c, 0, 67, 0
2, 752880, Note_on_c, 0, 72, 100
2, 753000, Note_on_c, 0, 60, 0
2, 753000, Note_on_c, 0, 64, 100
2, 753120, Note_on_c, 0, 64, 0
2, 753120, Note_on_c, 0, 69, 100
2, 753240, Note_on_c, 0, 72, 0
2, 753240, Note_on_c, 0, 72, 100
2, 753360, Note_on_c, 0, 72, 0
2, 753360, Note_on_c, 0, 77, 100
2, 753480, Note_on_c, 0, 77, 0
2, 753480, Note_on_c, 0, 69, 0
2, 753480, Note_on_c, 0, 76, 100
2, 753480, Note_on_c, 0, 67, 100
2, 753600, Note_on_c, 0, 67, 0
2, 753600, Note_on_c, 0, 76, 0
2, 753600, Note_on_c, 0, 74, 100
2, 753600, Note_on_c, 0, 65, 100
2, 753720, Note_on_c, 0, 74, 0
2, 753720, Note_on_c, 0, 72, 100
2, 753780, Note_on_c, 0, 65, 0
2, 753780, Note_on_c, 0, 64, 100
2, 753840, Note_on_c, 0, 64, 0
2, 753840, Note_on_c, 0, 72, 0
2, 753840, Note_on_c, 0, 71, 100
2, 753840, Note_on_c, 0, 62, 100
2, 753960, Note_on_c, 0, 62, 0
2, 753960, Note_on_c, 0, 64, 100
2, 754020, Note_on_c, 0, 64, 0
2, 754020, Note_on_c, 0, 65, 100
2, 754080, Note_on_c, 0, 65, 0
2, 754080, Note_on_c, 0, 71, 0
2, 754080, Note_on_c, 0, 73, 100
2, 754080, Note_on_c, 0, 67, 100
2, 754320, Note_on_c, 0, 67, 0
2, 754320, Note_on_c, 0, 73, 0
2, 754320, Note_on_c, 0, 74, 100
2, 754320, Note_on_c, 0, 66, 100
2, 754440, Note_on_c, 0, 66, 0
2, 754440, Note_on_c, 0, 67, 100
2, 754500, Note_on_c, 0, 67, 0
2, 754500, Note_on_c, 0, 69, 100
2, 754560, Note_on_c, 0, 69, 0
2, 754560, Note_on_c, 0, 70, 100
2, 754680, Note_on_c, 0, 70, 0
2, 754680, Note_on_c, 0, 74, 0
2, 754680, Note_on_c, 0, 72, 100
2, 754680, Note_on_c, 0, 69, 100
2, 754740, Note_on_c, 0, 69, 0
2, 754740, Note_on_c, 0, 72, 0
2, 754740, Note_on_c, 0, 74, 100
2, 754740, Note_on_c, 0, 70, 100
2, 754800, Note_on_c, 0, 70, 0
2, 754800, Note_on_c, 0, 74, 0
2, 754800, Note_on_c, 0, 76, 100
2, 754800, Note_on_c, 0, 72, 100
2, 754920, Note_on_c, 0, 76, 0
2, 754920, Note_on_c, 0, 81, 100
2, 755160, Note_on_c, 0, 81, 0
2, 755160, Note_on_c, 0, 72, 0
2, 755160, Note_on_c, 0, 74, 100
2, 755160, Note_on_c, 0, 70, 100
2, 755220, Note_on_c, 0, 70, 0
2, 755220, Note_on_c, 0, 69, 100
2, 755280, Note_on_c, 0, 69, 0
2, 755280, Note_on_c, 0, 70, 100
2, 755400, Note_on_c, 0, 74, 0
2, 755400, Note_on_c, 0, 79, 100
2, 755640, Note_on_c, 0, 79, 0
2, 755640, Note_on_c, 0, 70, 0
2, 755640, Note_on_c, 0, 72, 100
2, 755640, Note_on_c, 0, 69, 100
2, 755700, Note_on_c, 0, 69, 0
2, 755700, Note_on_c, 0, 67, 100
2, 755760, Note_on_c, 0, 67, 0
2, 755760, Note_on_c, 0, 66, 100
2, 755880, Note_on_c, 0, 72, 0
2, 755880, Note_on_c, 0, 71, 100
2, 756000, Note_on_c, 0, 66, 0
2, 756000, Note_on_c, 0, 67, 100
2, 756120, Note_on_c, 0, 71, 0
2, 756120, Note_on_c, 0, 70, 100
2, 756240, Note_on_c, 0, 70, 0
2, 756240, Note_on_c, 0, 69, 100
2, 756360, Note_on_c, 0, 67, 0
2, 756360, Note_on_c, 0, 65, 100
2, 756420, Note_on_c, 0, 65, 0
2, 756420, Note_on_c, 0, 64, 100
2, 756480, Note_on_c, 0, 64, 0
2, 756480, Note_on_c, 0, 69, 0
2, 756480, Note_on_c, 0, 65, 100
2, 756600, Note_on_c, 0, 65, 0
2, 756600, Note_on_c, 0, 67, 100
2, 756660, Note_on_c, 0, 67, 0
2, 756660, Note_on_c, 0, 65, 100
2, 756720, Note_on_c, 0, 65, 0
2, 756720, Note_on_c, 0, 64, 100
2, 756960, Note_on_c, 0, 69, 100
2, 757080, Note_on_c, 0, 64, 0
2, 757080, Note_on_c, 0, 65, 100
2, 757140, Note_on_c, 0, 65, 0
2, 757140, Note_on_c, 0, 67, 100
2, 757200, Note_on_c, 0, 67, 0
2, 757200, Note_on_c, 0, 69, 0
2, 757200, Note_on_c, 0, 74, 100
2, 757200, Note_on_c, 0, 69, 100
2, 757320, Note_on_c, 0, 69, 0
2, 757320, Note_on_c, 0, 67, 100
2, 757440, Note_on_c, 0, 67, 0
2, 757440, Note_on_c, 0, 65, 100
2, 757560, Note_on_c, 0, 65, 0
2, 757560, Note_on_c, 0, 74, 0
2, 757560, Note_on_c, 0, 72, 100
2, 757560, Note_on_c, 0, 63, 100
2, 757680, Note_on_c, 0, 63, 0
2, 757680, Note_on_c, 0, 72, 0
2, 757680, Note_on_c, 0, 70, 100
2, 757680, Note_on_c, 0, 62, 100
2, 757800, Note_on_c, 0, 62, 0
2, 757800, Note_on_c, 0, 67, 100
2, 757860, Note_on_c, 0, 67, 0
2, 757860, Note_on_c, 0, 66, 100
2, 757920, Note_on_c, 0, 66, 0
2, 757920, Note_on_c, 0, 67, 100
2, 758160, Note_on_c, 0, 70, 0
2, 758160, Note_on_c, 0, 72, 100
2, 758400, Note_on_c, 0, 67, 0
2, 758400, Note_on_c, 0, 65, 100
2, 758640, Note_on_c, 0, 72, 0
2, 758640, Note_on_c, 0, 74, 100
2, 758760, Note_on_c, 0, 65, 0
2, 758760, Note_on_c, 0, 67, 100
2, 758820, Note_on_c, 0, 67, 0
2, 758820, Note_on_c, 0, 69, 100
2, 758880, Note_on_c, 0, 69, 0
2, 758880, Note_on_c, 0, 67, 100
2, 759000, Note_on_c, 0, 67, 0
2, 759000, Note_on_c, 0, 65, 100
2, 759120, Note_on_c, 0, 65, 0
2, 759120, Note_on_c, 0, 74, 0
2, 759120, Note_on_c, 0, 67, 100
2, 759120, Note_on_c, 0, 64, 100
2, 759240, Note_on_c, 0, 64, 0
2, 759240, Note_on_c, 0, 60, 100
2, 759360, Note_on_c, 0, 60, 0
2, 759360, Note_on_c, 0, 67, 0
2, 759360, Note_on_c, 0, 69, 100
2, 759360, Note_on_c, 0, 65, 100
2, 759480, Note_on_c, 0, 69, 0
2, 759480, Note_on_c, 0, 70, 100
2, 759600, Note_on_c, 0, 70, 0
2, 759600, Note_on_c, 0, 72, 100
2, 759720, Note_on_c, 0, 72, 0
2, 759720, Note_on_c, 0, 65, 0
2, 759720, Note_on_c, 0, 67, 100
2, 759720, Note_on_c, 0, 64, 100
2, 759780, Note_on_c, 0, 64, 0
2, 759780, Note_on_c, 0, 62, 100
2, 759840, Note_on_c, 0, 62, 0
2, 759840, Note_on_c, 0, 67, 0
2, 759840, Note_on_c, 0, 72, 100
2, 759840, Note_on_c, 0, 63, 100
2, 759960, Note_on_c, 0, 72, 0
2, 759960, Note_on_c, 0, 70, 100
2, 760080, Note_on_c, 0, 70, 0
2, 760080, Note_on_c, 0, 69, 100
2, 760200, Note_on_c, 0, 69, 0
2, 760200, Note_on_c, 0, 65, 100
2, 760320, Note_on_c, 0, 65, 0
2, 760320, Note_on_c, 0, 63, 0
2, 760320, Note_on_c, 0, 70, 100
2, 760320, Note_on_c, 0, 62, 100
2, 760560, Note_on_c, 0, 62, 0
2, 760560, Note_on_c, 0, 60, 100
2, 760800, Note_on_c, 0, 70, 0
2, 760800, Note_on_c, 0, 69, 100
2, 761040, Note_on_c, 0, 69, 0
2, 761040, Note_on_c, 0, 60, 0
2, 761040, Note_on_c, 0, 70, 100
2, 761040, Note_on_c, 0, 65, 100
2, 761280, Note_on_c, 0, 70, 0
2, 761280, Note_on_c, 0, 69, 100
2, 761520, Note_on_c, 0, 65, 0
2, 761520, Note_on_c, 0, 58, 100
2, 761640, Note_on_c, 0, 69, 0
2, 761640, Note_on_c, 0, 67, 100
2, 761700, Note_on_c, 0, 67, 0
2, 761700, Note_on_c, 0, 65, 100
2, 761760, Note_on_c, 0, 65, 0
2, 761760, Note_on_c, 0, 67, 100
2, 761880, Note_on_c, 0, 67, 0
2, 761880, Note_on_c, 0, 58, 0
2, 761880, Note_on_c, 0, 69, 100
2, 761880, Note_on_c, 0, 60, 100
2, 762000, Note_on_c, 0, 60, 0
2, 762000, Note_on_c, 0, 69, 0
2, 762000, Note_on_c, 0, 70, 100
2, 762000, Note_on_c, 0, 62, 100
2, 762120, Note_on_c, 0, 70, 0
2, 762120, Note_on_c, 0, 65, 100
2, 762240, Note_on_c, 0, 65, 0
2, 762240, Note_on_c, 0, 70, 100
2, 762480, Note_on_c, 0, 70, 0
2, 762480, Note_on_c, 0, 62, 0
2, 762480, Note_on_c, 0, 69, 100
2, 762480, Note_on_c, 0, 60, 100
2, 762540, Note_on_c, 0, 69, 0
2, 762540, Note_on_c, 0, 70, 100
2, 762600, Note_on_c, 0, 70, 0
2, 762600, Note_on_c, 0, 72, 100
2, 762660, Note_on_c, 0, 72, 0
2, 762660, Note_on_c, 0, 74, 100
2, 762720, Note_on_c, 0, 74, 0
2, 762720, Note_on_c, 0, 75, 100
2, 762780, Note_on_c, 0, 75, 0
2, 762780, Note_on_c, 0, 69, 100
2, 762840, Note_on_c, 0, 69, 0
2, 762840, Note_on_c, 0, 67, 100
2, 762900, Note_on_c, 0, 67, 0
2, 762900, Note_on_c, 0, 66, 100
2, 762960, Note_on_c, 0, 66, 0
2, 762960, Note_on_c, 0, 60, 0
2, 762960, Note_on_c, 0, 67, 100
2, 762960, Note_on_c, 0, 58, 100
2, 763320, Note_on_c, 0, 67, 0
2, 763320, Note_on_c, 0, 69, 100
2, 763380, Note_on_c, 0, 69, 0
2, 763380, Note_on_c, 0, 70, 100
2, 763440, Note_on_c, 0, 70, 0
2, 763440, Note_on_c, 0, 58, 0
2, 763440, Note_on_c, 0, 69, 100
2, 763440, Note_on_c, 0, 65, 100
2, 763560, Note_on_c, 0, 69, 0
2, 763560, Note_on_c, 0, 70, 100
2, 763620, Note_on_c, 0, 70, 0
2, 763620, Note_on_c, 0, 72, 100
2, 763680, Note_on_c, 0, 72, 0
2, 763680, Note_on_c, 0, 70, 100
2, 763800, Note_on_c, 0, 65, 0
2, 763800, Note_on_c, 0, 63, 100
2, 763860, Note_on_c, 0, 63, 0
2, 763860, Note_on_c, 0, 65, 100
2, 763920, Note_on_c, 0, 65, 0
2, 763920, Note_on_c, 0, 67, 100
2, 764040, Note_on_c, 0, 70, 0
2, 764040, Note_on_c, 0, 69, 100
2, 764100, Note_on_c, 0, 69, 0
2, 764100, Note_on_c, 0, 70, 100
2, 764160, Note_on_c, 0, 70, 0
2, 764160, Note_on_c, 0, 72, 100
2, 764280, Note_on_c, 0, 67, 0
2, 764280, Note_on_c, 0, 66, 100
2, 764340, Note_on_c, 0, 66, 0
2, 764340, Note_on_c, 0, 67, 100
2, 764400, Note_on_c, 0, 67, 0
2, 764400, Note_on_c, 0, 69, 100
2, 764520, Note_on_c, 0, 72, 0
2, 764520, Note_on_c, 0, 74, 100
2, 764580, Note_on_c, 0, 74, 0
2, 764580, Note_on_c, 0, 72, 100
2, 764640, Note_on_c, 0, 72, 0
2, 764640, Note_on_c, 0, 70, 100
2, 764760, Note_on_c, 0, 69, 0
2, 764760, Note_on_c, 0, 67, 100
2, 764820, Note_on_c, 0, 67, 0
2, 764820, Note_on_c, 0, 65, 100
2, 764880, Note_on_c, 0, 65, 0
2, 764880, Note_on_c, 0, 70, 0
2, 764880, Note_on_c, 0, 69, 100
2, 764880, Note_on_c, 0, 63, 100
2, 765120, Note_on_c, 0, 63, 0
2, 765120, Note_on_c, 0, 69, 0
2, 765120, Note_on_c, 0, 81, 100
2, 765120, Note_on_c, 0, 62, 100
2, 765360, Note_on_c, 0, 81, 0
2, 765360, Note_on_c, 0, 74, 100
2, 765600, Note_on_c, 0, 62, 0
2, 765600, Note_on_c, 0, 67, 100
2, 765720, Note_on_c, 0, 74, 0
2, 765720, Note_on_c, 0, 76, 100
2, 765840, Note_on_c, 0, 76, 0
2, 765840, Note_on_c, 0, 67, 0
2, 765840, Note_on_c, 0, 77, 100
2, 765840, Note_on_c, 0, 65, 100
2, 766080, Note_on_c, 0, 65, 0
2, 766080, Note_on_c, 0, 62, 100
2, 766320, Note_on_c, 0, 62, 0
2, 766320, Note_on_c, 0, 77, 0
2, 766320, Note_on_c, 0, 76, 100
2, 766320, Note_on_c, 0, 69, 100
2, 766680, Note_on_c, 0, 69, 0
2, 766680, Note_on_c, 0, 67, 100
2, 766800, Note_on_c, 0, 67, 0
2, 766800, Note_on_c, 0, 76, 0
2, 766800, Note_on_c, 0, 74, 100
2, 766800, Note_on_c, 0, 65, 100
2, 767280, Note_on_c, 0, 65, 0
2, 767280, Note_on_c, 0, 74, 0
2, 767280, Note_on_c, 0, 79, 100
2, 767280, Note_on_c, 0, 67, 100
2, 767760, Note_on_c, 0, 67, 0
2, 767760, Note_on_c, 0, 69, 100
2, 768000, Note_on_c, 0, 79, 0
2, 768000, Note_on_c, 0, 78, 100
2, 768240, Note_on_c, 0, 78, 0
2, 768240, Note_on_c, 0, 69, 0
2, 768240, Note_on_c, 0, 79, 100
2, 768240, Note_on_c, 0, 62, 100
2, 768360, Note_on_c, 0, 79, 0
2, 768360, Note_on_c, 0, 77, 100
2, 768420, Note_on_c, 0, 77, 0
2, 768420, Note_on_c, 0, 75, 100
2, 768480, Note_on_c, 0, 75, 0
2, 768480, Note_on_c, 0, 62, 0
2, 768480, Note_on_c, 0, 74, 100
2, 768600, Note_on_c, 0, 74, 0
2, 768600, Note_on_c, 0, 75, 100
2, 768720, Note_on_c, 0, 75, 0
2, 768720, Note_on_c, 0, 77, 100
2, 768720, Note_on_c, 0, 70, 100
2, 768840, Note_on_c, 0, 70, 0
2, 768840, Note_on_c, 0, 69, 100
2, 768900, Note_on_c, 0, 69, 0
2, 768900, Note_on_c, 0, 67, 100
2, 768960, Note_on_c, 0, 67, 0
2, 768960, Note_on_c, 0, 65, 100
2, 769080, Note_on_c, 0, 65, 0
2, 769080, Note_on_c, 0, 77, 0
2, 769080, Note_on_c, 0, 75, 100
2, 769080, Note_on_c, 0, 67, 100
2, 769140, Note_on_c, 0, 75, 0
2, 769140, Note_on_c, 0, 74, 100
2, 769200, Note_on_c, 0, 74, 0
2, 769200, Note_on_c, 0, 67, 0
2, 769200, Note_on_c, 0, 72, 100
2, 769200, Note_on_c, 0, 69, 100
2, 769320, Note_on_c, 0, 69, 0
2, 769320, Note_on_c, 0, 72, 0
2, 769320, Note_on_c, 0, 74, 100
2, 769320, Note_on_c, 0, 70, 100
2, 769440, Note_on_c, 0, 70, 0
2, 769440, Note_on_c, 0, 74, 0
2, 769440, Note_on_c, 0, 75, 100
2, 769440, Note_on_c, 0, 72, 100
2, 769560, Note_on_c, 0, 72, 0
2, 769560, Note_on_c, 0, 75, 0
2, 769560, Note_on_c, 0, 77, 100
2, 769560, Note_on_c, 0, 70, 100
2, 769620, Note_on_c, 0, 70, 0
2, 769620, Note_on_c, 0, 69, 100
2, 769680, Note_on_c, 0, 69, 0
2, 769680, Note_on_c, 0, 77, 0
2, 769680, Note_on_c, 0, 79, 100
2, 769680, Note_on_c, 0, 67, 100
2, 769800, Note_on_c, 0, 67, 0
2, 769800, Note_on_c, 0, 79, 0
2, 769800, Note_on_c, 0, 77, 100
2, 769800, Note_on_c, 0, 69, 100
2, 769860, Note_on_c, 0, 77, 0
2, 769860, Note_on_c, 0, 75, 100
2, 769920, Note_on_c, 0, 75, 0
2, 769920, Note_on_c, 0, 69, 0
2, 769920, Note_on_c, 0, 74, 100
2, 769920, Note_on_c, 0, 70, 100
2, 770040, Note_on_c, 0, 74, 0
2, 770040, Note_on_c, 0, 75, 100
2, 770100, Note_on_c, 0, 75, 0
2, 770100, Note_on_c, 0, 74, 100
2, 770160, Note_on_c, 0, 74, 0
2, 770160, Note_on_c, 0, 72, 100
2, 770280, Note_on_c, 0, 70, 0
2, 770280, Note_on_c, 0, 69, 100
2, 770340, Note_on_c, 0, 69, 0
2, 770340, Note_on_c, 0, 67, 100
2, 770400, Note_on_c, 0, 67, 0
2, 770400, Note_on_c, 0, 69, 100
2, 770520, Note_on_c, 0, 72, 0
2, 770520, Note_on_c, 0, 74, 100
2, 770580, Note_on_c, 0, 74, 0
2, 770580, Note_on_c, 0, 75, 100
2, 770640, Note_on_c, 0, 75, 0
2, 770640, Note_on_c, 0, 77, 100
2, 770760, Note_on_c, 0, 69, 0
2, 770760, Note_on_c, 0, 70, 100
2, 770820, Note_on_c, 0, 70, 0
2, 770820, Note_on_c, 0, 72, 100
2, 770880, Note_on_c, 0, 72, 0
2, 770880, Note_on_c, 0, 70, 100
2, 771000, Note_on_c, 0, 70, 0
2, 771000, Note_on_c, 0, 69, 100
2, 771120, Note_on_c, 0, 69, 0
2, 771120, Note_on_c, 0, 67, 100
2, 771240, Note_on_c, 0, 67, 0
2, 771240, Note_on_c, 0, 77, 0
2, 771240, Note_on_c, 0, 75, 100
2, 771240, Note_on_c, 0, 66, 100
2, 771300, Note_on_c, 0, 75, 0
2, 771300, Note_on_c, 0, 74, 100
2, 771360, Note_on_c, 0, 74, 0
2, 771360, Note_on_c, 0, 66, 0
2, 771360, Note_on_c, 0, 72, 100
2, 771360, Note_on_c, 0, 67, 100
2, 771480, Note_on_c, 0, 72, 0
2, 771480, Note_on_c, 0, 70, 100
2, 771600, Note_on_c, 0, 70, 0
2, 771600, Note_on_c, 0, 67, 0
2, 771600, Note_on_c, 0, 69, 100
2, 771600, Note_on_c, 0, 74, 100
2, 771720, Note_on_c, 0, 69, 0
2, 771720, Note_on_c, 0, 81, 100
2, 771780, Note_on_c, 0, 81, 0
2, 771780, Note_on_c, 0, 79, 100
2, 771840, Note_on_c, 0, 79, 0
2, 771840, Note_on_c, 0, 77, 100
2, 771960, Note_on_c, 0, 77, 0
2, 771960, Note_on_c, 0, 74, 0
2, 771960, Note_on_c, 0, 75, 100
2, 771960, Note_on_c, 0, 72, 100
2, 772080, Note_on_c, 0, 72, 0
2, 772080, Note_on_c, 0, 70, 100
2, 772200, Note_on_c, 0, 75, 0
2, 772200, Note_on_c, 0, 74, 100
2, 772440, Note_on_c, 0, 74, 0
2, 772440, Note_on_c, 0, 72, 100
2, 772500, Note_on_c, 0, 72, 0
2, 772500, Note_on_c, 0, 70, 100
2, 772560, Note_on_c, 0, 70, 0
2, 772560, Note_on_c, 0, 70, 0
2, 772560, Note_on_c, 0, 69, 100
2, 772560, Note_on_c, 0, 72, 100
2, 772680, Note_on_c, 0, 69, 0
2, 772680, Note_on_c, 0, 67, 100
2, 772800, Note_on_c, 0, 67, 0
2, 772800, Note_on_c, 0, 69, 100
2, 773040, Note_on_c, 0, 69, 0
2, 773040, Note_on_c, 0, 72, 0
2, 773040, Note_on_c, 0, 70, 100
2, 773040, Note_on_c, 0, 74, 100
2, 773520, Note_on_c, 0, 74, 0
2, 773520, Note_on_c, 0, 67, 100
2, 773640, Note_on_c, 0, 70, 0
2, 773640, Note_on_c, 0, 69, 100
2, 773700, Note_on_c, 0, 69, 0
2, 773700, Note_on_c, 0, 70, 100
2, 773760, Note_on_c, 0, 70, 0
2, 773760, Note_on_c, 0, 72, 100
2, 773880, Note_on_c, 0, 67, 0
2, 773880, Note_on_c, 0, 66, 100
2, 773940, Note_on_c, 0, 66, 0
2, 773940, Note_on_c, 0, 67, 100
2, 774000, Note_on_c, 0, 67, 0
2, 774000, Note_on_c, 0, 67, 100
2, 774120, Note_on_c, 0, 67, 0
2, 774120, Note_on_c, 0, 72, 0
2, 774120, Note_on_c, 0, 81, 100
2, 774120, Note_on_c, 0, 72, 100
2, 774180, Note_on_c, 0, 72, 0
2, 774180, Note_on_c, 0, 70, 100
2, 774240, Note_on_c, 0, 70, 0
2, 774240, Note_on_c, 0, 81, 0
2, 774240, Note_on_c, 0, 74, 100
2, 774240, Note_on_c, 0, 69, 100
2, 774300, Note_on_c, 0, 69, 0
2, 774300, Note_on_c, 0, 67, 100
2, 774360, Note_on_c, 0, 67, 0
2, 774360, Note_on_c, 0, 69, 100
2, 774600, Note_on_c, 0, 69, 0
2, 774600, Note_on_c, 0, 74, 0
2, 774600, Note_on_c, 0, 76, 100
2, 774600, Note_on_c, 0, 67, 100
2, 774720, Note_on_c, 0, 67, 0
2, 774720, Note_on_c, 0, 76, 0
2, 774720, Note_on_c, 0, 77, 100
2, 774720, Note_on_c, 0, 62, 100
2, 774960, Note_on_c, 0, 62, 0
2, 774960, Note_on_c, 0, 69, 100
2, 775200, Note_on_c, 0, 77, 0
2, 775200, Note_on_c, 0, 76, 100
2, 775320, Note_on_c, 0, 69, 0
2, 775320, Note_on_c, 0, 67, 100
2, 775440, Note_on_c, 0, 67, 0
2, 775440, Note_on_c, 0, 65, 100
2, 775560, Note_on_c, 0, 76, 0
2, 775560, Note_on_c, 0, 74, 100
2, 775620, Note_on_c, 0, 74, 0
2, 775620, Note_on_c, 0, 73, 100
2, 775680, Note_on_c, 0, 73, 0
2, 775680, Note_on_c, 0, 74, 100
2, 775920, Note_on_c, 0, 65, 0
2, 775920, Note_on_c, 0, 67, 100
2, 776160, Note_on_c, 0, 74, 0
2, 776160, Note_on_c, 0, 79, 100
2, 776400, Note_on_c, 0, 67, 0
2, 776400, Note_on_c, 0, 69, 100
2, 776640, Note_on_c, 0, 79, 0
2, 776640, Note_on_c, 0, 77, 100
2, 776880, Note_on_c, 0, 69, 0
2, 776880, Note_on_c, 0, 62, 100
2, 777000, Note_on_c, 0, 62, 0
2, 777000, Note_on_c, 0, 67, 100
2, 777060, Note_on_c, 0, 67, 0
2, 777060, Note_on_c, 0, 65, 100
2, 777120, Note_on_c, 0, 65, 0
2, 777120, Note_on_c, 0, 77, 0
2, 777120, Note_on_c, 0, 76, 100
2, 777120, Note_on_c, 0, 67, 100
2, 777180, Note_on_c, 0, 67, 0
2, 777180, Note_on_c, 0, 69, 100
2, 777240, Note_on_c, 0, 69, 0
2, 777240, Note_on_c, 0, 76, 0
2, 777240, Note_on_c, 0, 74, 100
2, 777240, Note_on_c, 0, 70, 100
2, 777360, Note_on_c, 0, 70, 0
2, 777360, Note_on_c, 0, 74, 0
2, 777360, Note_on_c, 0, 73, 100
2, 777360, Note_on_c, 0, 62, 100
2, 777480, Note_on_c, 0, 62, 0
2, 777480, Note_on_c, 0, 69, 100
2, 777600, Note_on_c, 0, 73, 0
2, 777600, Note_on_c, 0, 74, 100
2, 777720, Note_on_c, 0, 69, 0
2, 777720, Note_on_c, 0, 67, 100
2, 777780, Note_on_c, 0, 67, 0
2, 777780, Note_on_c, 0, 65, 100
2, 777840, Note_on_c, 0, 65, 0
2, 777840, Note_on_c, 0, 64, 100
2, 777960, Note_on_c, 0, 64, 0
2, 777960, Note_on_c, 0, 62, 100
2, 778080, Note_on_c, 0, 62, 0
2, 778080, Note_on_c, 0, 74, 0
2, 778080, Note_on_c, 0, 73, 100
2, 778080, Note_on_c, 0, 64, 100
2, 778320, Note_on_c, 0, 64, 0
2, 778320, Note_on_c, 0, 73, 0
2, 778320, Note_on_c, 0, 74, 100
2, 778320, Note_on_c, 0, 62, 100
2, 778440, Note_on_c, 0, 62, 0
2, 778440, Note_on_c, 0, 74, 0
2, 778440, Note_on_c, 0, 69, 100
2, 778440, Note_on_c, 0, 65, 100
2, 778500, Note_on_c, 0, 65, 0
2, 778500, Note_on_c, 0, 64, 100
2, 778560, Note_on_c, 0, 64, 0
2, 778560, Note_on_c, 0, 69, 0
2, 778560, Note_on_c, 0, 74, 100
2, 778560, Note_on_c, 0, 65, 100
2, 778620, Note_on_c, 0, 65, 0
2, 778620, Note_on_c, 0, 67, 100
2, 778680, Note_on_c, 0, 67, 0
2, 778680, Note_on_c, 0, 74, 0
2, 778680, Note_on_c, 0, 72, 100
2, 778680, Note_on_c, 0, 69, 100
2, 778800, Note_on_c, 0, 72, 0
2, 778800, Note_on_c, 0, 70, 100
2, 778920, Note_on_c, 0, 69, 0
2, 778920, Note_on_c, 0, 67, 100
2, 778980, Note_on_c, 0, 67, 0
2, 778980, Note_on_c, 0, 66, 100
2, 779040, Note_on_c, 0, 66, 0
2, 779040, Note_on_c, 0, 67, 100
2, 779160, Note_on_c, 0, 67, 0
2, 779160, Note_on_c, 0, 70, 100
2, 779280, Note_on_c, 0, 70, 0
2, 779280, Note_on_c, 0, 64, 100
2, 779340, Note_on_c, 0, 70, 0
2, 779340, Note_on_c, 0, 69, 100
2, 779400, Note_on_c, 0, 69, 0
2, 779400, Note_on_c, 0, 76, 100
2, 779520, Note_on_c, 0, 76, 0
2, 779520, Note_on_c, 0, 64, 0
2, 779520, Note_on_c, 0, 81, 100
2, 779640, Note_on_c, 0, 81, 0
2, 779640, Note_on_c, 0, 79, 100
2, 779640, Note_on_c, 0, 76, 100
2, 779880, Note_on_c, 0, 76, 0
2, 779880, Note_on_c, 0, 79, 0
2, 779880, Note_on_c, 0, 77, 100
2, 779880, Note_on_c, 0, 69, 100
2, 779940, Note_on_c, 0, 77, 0
2, 779940, Note_on_c, 0, 76, 100
2, 780000, Note_on_c, 0, 76, 0
2, 780000, Note_on_c, 0, 69, 0
2, 780000, Note_on_c, 0, 77, 100
2, 780000, Note_on_c, 0, 74, 100
2, 780120, Note_on_c, 0, 77, 0
2, 780120, Note_on_c, 0, 74, 100
2, 780240, Note_on_c, 0, 74, 0
2, 780240, Note_on_c, 0, 82, 100
2, 780360, Note_on_c, 0, 74, 0
2, 780360, Note_on_c, 0, 76, 100
2, 780420, Note_on_c, 0, 76, 0
2, 780420, Note_on_c, 0, 77, 100
2, 780480, Note_on_c, 0, 77, 0
2, 780480, Note_on_c, 0, 76, 100
2, 780600, Note_on_c, 0, 76, 0
2, 780600, Note_on_c, 0, 74, 100
2, 780720, Note_on_c, 0, 74, 0
2, 780720, Note_on_c, 0, 82, 0
2, 780720, Note_on_c, 0, 76, 100
2, 780720, Note_on_c, 0, 73, 100
2, 780840, Note_on_c, 0, 73, 0
2, 780840, Note_on_c, 0, 69, 100
2, 780960, Note_on_c, 0, 76, 0
2, 780960, Note_on_c, 0, 74, 100
2, 781080, Note_on_c, 0, 69, 0
2, 781080, Note_on_c, 0, 67, 100
2, 781140, Note_on_c, 0, 67, 0
2, 781140, Note_on_c, 0, 65, 100
2, 781200, Note_on_c, 0, 65, 0
2, 781200, Note_on_c, 0, 67, 100
2, 781320, Note_on_c, 0, 67, 0
2, 781320, Note_on_c, 0, 64, 100
2, 781440, Note_on_c, 0, 74, 0
2, 781440, Note_on_c, 0, 73, 100
2, 781500, Note_on_c, 0, 64, 0
2, 781500, Note_on_c, 0, 65, 100
2, 781560, Note_on_c, 0, 65, 0
2, 781560, Note_on_c, 0, 67, 100
2, 781680, Note_on_c, 0, 73, 0
2, 781680, Note_on_c, 0, 74, 100
2, 781800, Note_on_c, 0, 74, 0
2, 781800, Note_on_c, 0, 67, 0
2, 781800, Note_on_c, 0, 69, 100
2, 781800, Note_on_c, 0, 65, 100
2, 781860, Note_on_c, 0, 65, 0
2, 781860, Note_on_c, 0, 67, 100
2, 781920, Note_on_c, 0, 67, 0
2, 781920, Note_on_c, 0, 69, 0
2, 781920, Note_on_c, 0, 69, 100
2, 781920, Note_on_c, 0, 65, 100
2, 781980, Note_on_c, 0, 65, 0
2, 781980, Note_on_c, 0, 64, 100
2, 782040, Note_on_c, 0, 64, 0
2, 782040, Note_on_c, 0, 69, 0
2, 782040, Note_on_c, 0, 67, 100
2, 782040, Note_on_c, 0, 62, 100
2, 782100, Note_on_c, 0, 62, 0
2, 782100, Note_on_c, 0, 61, 100
2, 782160, Note_on_c, 0, 61, 0
2, 782160, Note_on_c, 0, 67, 0
2, 782160, Note_on_c, 0, 65, 100
2, 782160, Note_on_c, 0, 62, 100
2, 782220, Note_on_c, 0, 62, 0
2, 782220, Note_on_c, 0, 57, 100
2, 782280, Note_on_c, 0, 57, 0
2, 782280, Note_on_c, 0, 65, 0
2, 782280, Note_on_c, 0, 62, 100
2, 782340, Note_on_c, 0, 62, 0
2, 782340, Note_on_c, 0, 64, 100
2, 782400, Note_on_c, 0, 64, 0
2, 782400, Note_on_c, 0, 65, 100
2, 782460, Note_on_c, 0, 65, 0
2, 782460, Note_on_c, 0, 64, 100
2, 782520, Note_on_c, 0, 64, 0
2, 782520, Note_on_c, 0, 62, 100
2, 782580, Note_on_c, 0, 62, 0
2, 782580, Note_on_c, 0, 65, 100
2, 782640, Note_on_c, 0, 65, 0
2, 782640, Note_on_c, 0, 64, 100
2, 782700, Note_on_c, 0, 64, 0
2, 782700, Note_on_c, 0, 57, 100
2, 782760, Note_on_c, 0, 57, 0
2, 782760, Note_on_c, 0, 64, 100
2, 782820, Note_on_c, 0, 64, 0
2, 782820, Note_on_c, 0, 65, 100
2, 782880, Note_on_c, 0, 65, 0
2, 782880, Note_on_c, 0, 67, 100
2, 782940, Note_on_c, 0, 67, 0
2, 782940, Note_on_c, 0, 65, 100
2, 782970, Note_on_c, 0, 65, 0
2, 782970, Note_on_c, 0, 64, 100
2, 783000, Note_on_c, 0, 64, 0
2, 783000, Note_on_c, 0, 65, 100
2, 783060, Note_on_c, 0, 65, 0
2, 783060, Note_on_c, 0, 67, 100
2, 783120, Note_on_c, 0, 67, 0
2, 783120, Note_on_c, 0, 69, 100
2, 783180, Note_on_c, 0, 69, 0
2, 783180, Note_on_c, 0, 67, 100
2, 783240, Note_on_c, 0, 67, 0
2, 783240, Note_on_c, 0, 65, 100
2, 783300, Note_on_c, 0, 65, 0
2, 783300, Note_on_c, 0, 67, 100
2, 783360, Note_on_c, 0, 67, 0
2, 783360, Note_on_c, 0, 69, 100
2, 783660, Note_on_c, 0, 69, 0
2, 783660, Note_on_c, 0, 67, 100
2, 783690, Note_on_c, 0, 67, 0
2, 783690, Note_on_c, 0, 66, 100
2, 783720, Note_on_c, 0, 66, 0
2, 783720, Note_on_c, 0, 67, 100
2, 783780, Note_on_c, 0, 67, 0
2, 783780, Note_on_c, 0, 69, 100
2, 783840, Note_on_c, 0, 69, 0
2, 783840, Note_on_c, 0, 70, 100
2, 784140, Note_on_c, 0, 70, 0
2, 784140, Note_on_c, 0, 69, 100
2, 784200, Note_on_c, 0, 69, 0
2, 784200, Note_on_c, 0, 67, 100
2, 784260, Note_on_c, 0, 67, 0
2, 784260, Note_on_c, 0, 65, 100
2, 784320, Note_on_c, 0, 65, 0
2, 784320, Note_on_c, 0, 64, 100
2, 784380, Note_on_c, 0, 64, 0
2, 784380, Note_on_c, 0, 62, 100
2, 784440, Note_on_c, 0, 62, 0
2, 784440, Note_on_c, 0, 64, 100
2, 784500, Note_on_c, 0, 64, 0
2, 784500, Note_on_c, 0, 67, 100
2, 784560, Note_on_c, 0, 67, 0
2, 784560, Note_on_c, 0, 65, 100
2, 784620, Note_on_c, 0, 65, 0
2, 784620, Note_on_c, 0, 64, 100
2, 784680, Note_on_c, 0, 64, 0
2, 784680, Note_on_c, 0, 62, 100
2, 784740, Note_on_c, 0, 62, 0
2, 784740, Note_on_c, 0, 60, 100
2, 784800, Note_on_c, 0, 60, 0
2, 784800, Note_on_c, 0, 59, 100
2, 784860, Note_on_c, 0, 59, 0
2, 784860, Note_on_c, 0, 57, 100
2, 784920, Note_on_c, 0, 57, 0
2, 784920, Note_on_c, 0, 59, 100
2, 784980, Note_on_c, 0, 59, 0
2, 784980, Note_on_c, 0, 62, 100
2, 785040, Note_on_c, 0, 62, 0
2, 785040, Note_on_c, 0, 60, 100
2, 785100, Note_on_c, 0, 60, 0
2, 785100, Note_on_c, 0, 59, 100
2, 785160, Note_on_c, 0, 59, 0
2, 785160, Note_on_c, 0, 72, 100
2, 785160, Note_on_c, 0, 57, 100
2, 785220, Note_on_c, 0, 57, 0
2, 785220, Note_on_c, 0, 72, 0
2, 785220, Note_on_c, 0, 74, 100
2, 785220, Note_on_c, 0, 56, 100
2, 785280, Note_on_c, 0, 56, 0
2, 785280, Note_on_c, 0, 74, 0
2, 785280, Note_on_c, 0, 72, 100
2, 785280, Note_on_c, 0, 57, 100
2, 785340, Note_on_c, 0, 72, 0
2, 785340, Note_on_c, 0, 71, 100
2, 785400, Note_on_c, 0, 71, 0
2, 785400, Note_on_c, 0, 57, 0
2, 785400, Note_on_c, 0, 69, 100
2, 785400, Note_on_c, 0, 59, 100
2, 785460, Note_on_c, 0, 69, 0
2, 785460, Note_on_c, 0, 68, 100
2, 785520, Note_on_c, 0, 68, 0
2, 785520, Note_on_c, 0, 59, 0
2, 785520, Note_on_c, 0, 69, 100
2, 785520, Note_on_c, 0, 60, 100
2, 785580, Note_on_c, 0, 69, 0
2, 785580, Note_on_c, 0, 64, 100
2, 785640, Note_on_c, 0, 64, 0
2, 785640, Note_on_c, 0, 69, 100
2, 785700, Note_on_c, 0, 69, 0
2, 785700, Note_on_c, 0, 60, 0
2, 785700, Note_on_c, 0, 71, 100
2, 785700, Note_on_c, 0, 62, 100
2, 785760, Note_on_c, 0, 62, 0
2, 785760, Note_on_c, 0, 71, 0
2, 785760, Note_on_c, 0, 72, 100
2, 785760, Note_on_c, 0, 64, 100
2, 785820, Note_on_c, 0, 72, 0
2, 785820, Note_on_c, 0, 71, 100
2, 785880, Note_on_c, 0, 71, 0
2, 785880, Note_on_c, 0, 64, 0
2, 785880, Note_on_c, 0, 69, 100
2, 785880, Note_on_c, 0, 66, 100
2, 785940, Note_on_c, 0, 69, 0
2, 785940, Note_on_c, 0, 72, 100
2, 786000, Note_on_c, 0, 72, 0
2, 786000, Note_on_c, 0, 66, 0
2, 786000, Note_on_c, 0, 71, 100
2, 786000, Note_on_c, 0, 67, 100
2, 786060, Note_on_c, 0, 71, 0
2, 786060, Note_on_c, 0, 64, 100
2, 786120, Note_on_c, 0, 64, 0
2, 786120, Note_on_c, 0, 67, 0
2, 786120, Note_on_c, 0, 71, 100
2, 786120, Note_on_c, 0, 68, 100
2, 786180, Note_on_c, 0, 71, 0
2, 786180, Note_on_c, 0, 72, 100
2, 786240, Note_on_c, 0, 72, 0
2, 786240, Note_on_c, 0, 74, 100
2, 786300, Note_on_c, 0, 74, 0
2, 786300, Note_on_c, 0, 72, 100
2, 786330, Note_on_c, 0, 72, 0
2, 786330, Note_on_c, 0, 71, 100
2, 786360, Note_on_c, 0, 71, 0
2, 786360, Note_on_c, 0, 68, 0
2, 786360, Note_on_c, 0, 72, 100
2, 786360, Note_on_c, 0, 69, 100
2, 786420, Note_on_c, 0, 72, 0
2, 786420, Note_on_c, 0, 74, 100
2, 786480, Note_on_c, 0, 74, 0
2, 786480, Note_on_c, 0, 76, 100
2, 786540, Note_on_c, 0, 76, 0
2, 786540, Note_on_c, 0, 69, 0
2, 786540, Note_on_c, 0, 74, 100
2, 786540, Note_on_c, 0, 65, 100
2, 786600, Note_on_c, 0, 65, 0
2, 786600, Note_on_c, 0, 74, 0
2, 786600, Note_on_c, 0, 72, 100
2, 786600, Note_on_c, 0, 64, 100
2, 786660, Note_on_c, 0, 64, 0
2, 786660, Note_on_c, 0, 72, 0
2, 786660, Note_on_c, 0, 74, 100
2, 786660, Note_on_c, 0, 62, 100
2, 786720, Note_on_c, 0, 62, 0
2, 786720, Note_on_c, 0, 74, 0
2, 786720, Note_on_c, 0, 76, 100
2, 786720, Note_on_c, 0, 60, 100
2, 786780, Note_on_c, 0, 60, 0
2, 786780, Note_on_c, 0, 59, 100
2, 786840, Note_on_c, 0, 59, 0
2, 786840, Note_on_c, 0, 57, 100
2, 786900, Note_on_c, 0, 57, 0
2, 786900, Note_on_c, 0, 55, 100
2, 786960, Note_on_c, 0, 55, 0
2, 786960, Note_on_c, 0, 53, 100
2, 787020, Note_on_c, 0, 53, 0
2, 787020, Note_on_c, 0, 76, 0
2, 787020, Note_on_c, 0, 74, 100
2, 787020, Note_on_c, 0, 67, 100
2, 787050, Note_on_c, 0, 74, 0
2, 787050, Note_on_c, 0, 73, 100
2, 787080, Note_on_c, 0, 73, 0
2, 787080, Note_on_c, 0, 67, 0
2, 787080, Note_on_c, 0, 74, 100
2, 787080, Note_on_c, 0, 65, 100
2, 787140, Note_on_c, 0, 65, 0
2, 787140, Note_on_c, 0, 74, 0
2, 787140, Note_on_c, 0, 76, 100
2, 787140, Note_on_c, 0, 64, 100
2, 787200, Note_on_c, 0, 64, 0
2, 787200, Note_on_c, 0, 76, 0
2, 787200, Note_on_c, 0, 77, 100
2, 787200, Note_on_c, 0, 62, 100
2, 787260, Note_on_c, 0, 62, 0
2, 787260, Note_on_c, 0, 60, 100
2, 787320, Note_on_c, 0, 60, 0
2, 787320, Note_on_c, 0, 59, 100
2, 787380, Note_on_c, 0, 59, 0
2, 787380, Note_on_c, 0, 57, 100
2, 787440, Note_on_c, 0, 57, 0
2, 787440, Note_on_c, 0, 56, 100
2, 787500, Note_on_c, 0, 77, 0
2, 787500, Note_on_c, 0, 76, 100
2, 787560, Note_on_c, 0, 76, 0
2, 787560, Note_on_c, 0, 56, 0
2, 787560, Note_on_c, 0, 74, 100
2, 787560, Note_on_c, 0, 57, 100
2, 787620, Note_on_c, 0, 74, 0
2, 787620, Note_on_c, 0, 72, 100
2, 787680, Note_on_c, 0, 72, 0
2, 787680, Note_on_c, 0, 71, 100
2, 787740, Note_on_c, 0, 71, 0
2, 787740, Note_on_c, 0, 69, 100
2, 787800, Note_on_c, 0, 69, 0
2, 787800, Note_on_c, 0, 57, 0
2, 787800, Note_on_c, 0, 71, 100
2, 787800, Note_on_c, 0, 56, 100
2, 787860, Note_on_c, 0, 71, 0
2, 787860, Note_on_c, 0, 74, 100
2, 787920, Note_on_c, 0, 74, 0
2, 787920, Note_on_c, 0, 56, 0
2, 787920, Note_on_c, 0, 72, 100
2, 787920, Note_on_c, 0, 57, 100
2, 787980, Note_on_c, 0, 72, 0
2, 787980, Note_on_c, 0, 81, 100
2, 788040, Note_on_c, 0, 81, 0
2, 788040, Note_on_c, 0, 57, 0
2, 788040, Note_on_c, 0, 79, 100
2, 788040, Note_on_c, 0, 59, 100
2, 788100, Note_on_c, 0, 79, 0
2, 788100, Note_on_c, 0, 77, 100
2, 788160, Note_on_c, 0, 77, 0
2, 788160, Note_on_c, 0, 59, 0
2, 788160, Note_on_c, 0, 76, 100
2, 788160, Note_on_c, 0, 60, 100
2, 788220, Note_on_c, 0, 76, 0
2, 788220, Note_on_c, 0, 74, 100
2, 788280, Note_on_c, 0, 74, 0
2, 788280, Note_on_c, 0, 60, 0
2, 788280, Note_on_c, 0, 76, 100
2, 788280, Note_on_c, 0, 61, 100
2, 788340, Note_on_c, 0, 76, 0
2, 788340, Note_on_c, 0, 79, 100
2, 788400, Note_on_c, 0, 79, 0
2, 788400, Note_on_c, 0, 61, 0
2, 788400, Note_on_c, 0, 77, 100
2, 788400, Note_on_c, 0, 62, 100
2, 788460, Note_on_c, 0, 77, 0
2, 788460, Note_on_c, 0, 76, 100
2, 788520, Note_on_c, 0, 76, 0
2, 788520, Note_on_c, 0, 62, 0
2, 788520, Note_on_c, 0, 74, 100
2, 788520, Note_on_c, 0, 69, 100
2, 788580, Note_on_c, 0, 74, 0
2, 788580, Note_on_c, 0, 73, 100
2, 788640, Note_on_c, 0, 73, 0
2, 788640, Note_on_c, 0, 74, 100
2, 788760, Note_on_c, 0, 74, 0
2, 788760, Note_on_c, 0, 69, 0
2, 788760, Note_on_c, 0, 76, 100
2, 788760, Note_on_c, 0, 67, 100
2, 788880, Note_on_c, 0, 76, 0
2, 788880, Note_on_c, 0, 69, 100
2, 789000, Note_on_c, 0, 67, 0
2, 789000, Note_on_c, 0, 65, 100
2, 789060, Note_on_c, 0, 65, 0
2, 789060, Note_on_c, 0, 64, 100
2, 789120, Note_on_c, 0, 64, 0
2, 789120, Note_on_c, 0, 62, 100
2, 789240, Note_on_c, 0, 62, 0
2, 789240, Note_on_c, 0, 69, 0
2, 789240, Note_on_c, 0, 71, 100
2, 789240, Note_on_c, 0, 67, 100
2, 789360, Note_on_c, 0, 71, 0
2, 789360, Note_on_c, 0, 72, 100
2, 789420, Note_on_c, 0, 67, 0
2, 789420, Note_on_c, 0, 65, 100
2, 789480, Note_on_c, 0, 65, 0
2, 789480, Note_on_c, 0, 72, 0
2, 789480, Note_on_c, 0, 73, 100
2, 789480, Note_on_c, 0, 67, 100
2, 789540, Note_on_c, 0, 67, 0
2, 789540, Note_on_c, 0, 69, 100
2, 789600, Note_on_c, 0, 69, 0
2, 789600, Note_on_c, 0, 70, 100
2, 789660, Note_on_c, 0, 70, 0
2, 789660, Note_on_c, 0, 69, 100
2, 789690, Note_on_c, 0, 69, 0
2, 789690, Note_on_c, 0, 67, 100
2, 789720, Note_on_c, 0, 67, 0
2, 789720, Note_on_c, 0, 73, 0
2, 789720, Note_on_c, 0, 74, 100
2, 789720, Note_on_c, 0, 69, 100
2, 789780, Note_on_c, 0, 69, 0
2, 789780, Note_on_c, 0, 74, 0
2, 789780, Note_on_c, 0, 76, 100
2, 789780, Note_on_c, 0, 70, 100
2, 789840, Note_on_c, 0, 70, 0
2, 789840, Note_on_c, 0, 76, 0
2, 789840, Note_on_c, 0, 77, 100
2, 789840, Note_on_c, 0, 61, 100
2, 789900, Note_on_c, 0, 77, 0
2, 789900, Note_on_c, 0, 82, 100
2, 789960, Note_on_c, 0, 82, 0
2, 789960, Note_on_c, 0, 61, 0
2, 789960, Note_on_c, 0, 81, 100
2, 789960, Note_on_c, 0, 62, 100
2, 790020, Note_on_c, 0, 81, 0
2, 790020, Note_on_c, 0, 79, 100
2, 790080, Note_on_c, 0, 79, 0
2, 790080, Note_on_c, 0, 77, 100
2, 790140, Note_on_c, 0, 77, 0
2, 790140, Note_on_c, 0, 62, 0
2, 790140, Note_on_c, 0, 76, 100
2, 790140, Note_on_c, 0, 61, 100
2, 790200, Note_on_c, 0, 61, 0
2, 790200, Note_on_c, 0, 76, 0
2, 790200, Note_on_c, 0, 74, 100
2, 790200, Note_on_c, 0, 65, 100
2, 790260, Note_on_c, 0, 65, 0
2, 790260, Note_on_c, 0, 74, 0
2, 790260, Note_on_c, 0, 72, 100
2, 790260, Note_on_c, 0, 64, 100
2, 790320, Note_on_c, 0, 64, 0
2, 790320, Note_on_c, 0, 72, 0
2, 790320, Note_on_c, 0, 70, 100
2, 790320, Note_on_c, 0, 62, 100
2, 790380, Note_on_c, 0, 70, 0
2, 790380, Note_on_c, 0, 84, 100
2, 790440, Note_on_c, 0, 84, 0
2, 790440, Note_on_c, 0, 82, 100
2, 790500, Note_on_c, 0, 82, 0
2, 790500, Note_on_c, 0, 81, 100
2, 790560, Note_on_c, 0, 81, 0
2, 790560, Note_on_c, 0, 79, 100
2, 790620, Note_on_c, 0, 79, 0
2, 790620, Note_on_c, 0, 62, 0
2, 790620, Note_on_c, 0, 77, 100
2, 790620, Note_on_c, 0, 69, 100
2, 790680, Note_on_c, 0, 69, 0
2, 790680, Note_on_c, 0, 77, 0
2, 790680, Note_on_c, 0, 76, 100
2, 790680, Note_on_c, 0, 67, 100
2, 790740, Note_on_c, 0, 67, 0
2, 790740, Note_on_c, 0, 76, 0
2, 790740, Note_on_c, 0, 74, 100
2, 790740, Note_on_c, 0, 65, 100
2, 790800, Note_on_c, 0, 65, 0
2, 790800, Note_on_c, 0, 74, 0
2, 790800, Note_on_c, 0, 73, 100
2, 790800, Note_on_c, 0, 64, 100
2, 790920, Note_on_c, 0, 64, 0
2, 790920, Note_on_c, 0, 73, 0
2, 790920, Note_on_c, 0, 74, 100
2, 790920, Note_on_c, 0, 69, 100
2, 791040, Note_on_c, 0, 69, 0
2, 791040, Note_on_c, 0, 67, 100
2, 791160, Note_on_c, 0, 67, 0
2, 791160, Note_on_c, 0, 74, 0
2, 791160, Note_on_c, 0, 73, 100
2, 791160, Note_on_c, 0, 70, 100
2, 791280, Note_on_c, 0, 70, 0
2, 791280, Note_on_c, 0, 73, 0
2, 791280, Note_on_c, 0, 74, 100
2, 791280, Note_on_c, 0, 69, 100
2, 791400, Note_on_c, 0, 74, 0
2, 791400, Note_on_c, 0, 76, 100
2, 791520, Note_on_c, 0, 76, 0
2, 791520, Note_on_c, 0, 77, 100
2, 791640, Note_on_c, 0, 69, 0
2, 791640, Note_on_c, 0, 68, 100
2, 791760, Note_on_c, 0, 68, 0
2, 791760, Note_on_c, 0, 77, 0
2, 791760, Note_on_c, 0, 76, 100
2, 791760, Note_on_c, 0, 69, 100
2, 791880, Note_on_c, 0, 76, 0
2, 791880, Note_on_c, 0, 81, 100
2, 792000, Note_on_c, 0, 81, 0
2, 792000, Note_on_c, 0, 69, 0
2, 792000, Note_on_c, 0, 76, 100
2, 792120, Note_on_c, 0, 76, 0
2, 792120, Note_on_c, 0, 74, 100
2, 792120, Note_on_c, 0, 64, 100
2, 792240, Note_on_c, 0, 64, 0
2, 792240, Note_on_c, 0, 64, 100
2, 792360, Note_on_c, 0, 74, 0
2, 792360, Note_on_c, 0, 72, 100
2, 792420, Note_on_c, 0, 72, 0
2, 792420, Note_on_c, 0, 74, 100
2, 792480, Note_on_c, 0, 74, 0
2, 792480, Note_on_c, 0, 64, 0
2, 792480, Note_on_c, 0, 76, 100
2, 792600, Note_on_c, 0, 76, 0
2, 792600, Note_on_c, 0, 77, 100
2, 792600, Note_on_c, 0, 69, 100
2, 792720, Note_on_c, 0, 69, 0
2, 792720, Note_on_c, 0, 74, 100
2, 792840, Note_on_c, 0, 77, 0
2, 792840, Note_on_c, 0, 76, 100
2, 792900, Note_on_c, 0, 74, 0
2, 792900, Note_on_c, 0, 72, 100
2, 792960, Note_on_c, 0, 72, 0
2, 792960, Note_on_c, 0, 71, 100
2, 793080, Note_on_c, 0, 71, 0
2, 793080, Note_on_c, 0, 69, 100
2, 793140, Note_on_c, 0, 69, 0
2, 793140, Note_on_c, 0, 76, 0
2, 793140, Note_on_c, 0, 71, 100
2, 793140, Note_on_c, 0, 68, 100
2, 793200, Note_on_c, 0, 68, 0
2, 793200, Note_on_c, 0, 71, 0
2, 793200, Note_on_c, 0, 72, 100
2, 793200, Note_on_c, 0, 69, 100
2, 793320, Note_on_c, 0, 69, 0
2, 793320, Note_on_c, 0, 72, 0
2, 793560, Note_on_c, 0, 72, 100
2, 793680, Note_on_c, 0, 72, 0
2, 793680, Note_on_c, 0, 69, 100
2, 794040, Note_on_c, 0, 69, 0
2, 794040, Note_on_c, 0, 68, 100
2, 794100, Note_on_c, 0, 68, 0
2, 794100, Note_on_c, 0, 69, 100
2, 794160, Note_on_c, 0, 69, 0
2, 794160, Note_on_c, 0, 71, 100
2, 794220, Note_on_c, 0, 71, 0
2, 794220, Note_on_c, 0, 76, 100
2, 794280, Note_on_c, 0, 76, 0
2, 794280, Note_on_c, 0, 69, 100
2, 794520, Note_on_c, 0, 69, 0
2, 794520, Note_on_c, 0, 68, 100
2, 794640, Note_on_c, 0, 68, 0
2, 794640, Note_on_c, 0, 69, 100
2, 794760, Note_on_c, 0, 69, 0
2, 795180, Note_on_c, 0, 81, 100
2, 795240, Note_on_c, 0, 81, 0
2, 795240, Note_on_c, 0, 79, 100
2, 795300, Note_on_c, 0, 79, 0
2, 795300, Note_on_c, 0, 77, 100
2, 795360, Note_on_c, 0, 77, 0
2, 795360, Note_on_c, 0, 76, 100
2, 795420, Note_on_c, 0, 76, 0
2, 795420, Note_on_c, 0, 74, 100
2, 795480, Note_on_c, 0, 74, 0
2, 795480, Note_on_c, 0, 76, 100
2, 795540, Note_on_c, 0, 76, 0
2, 795540, Note_on_c, 0, 79, 100
2, 795600, Note_on_c, 0, 79, 0
2, 795600, Note_on_c, 0, 78, 100
2, 795660, Note_on_c, 0, 74, 100
2, 795720, Note_on_c, 0, 74, 0
2, 795720, Note_on_c, 0, 78, 0
2, 795720, Note_on_c, 0, 79, 100
2, 795720, Note_on_c, 0, 72, 100
2, 795780, Note_on_c, 0, 72, 0
2, 795780, Note_on_c, 0, 70, 100
2, 795840, Note_on_c, 0, 70, 0
2, 795840, Note_on_c, 0, 69, 100
2, 795900, Note_on_c, 0, 69, 0
2, 795900, Note_on_c, 0, 67, 100
2, 795960, Note_on_c, 0, 67, 0
2, 795960, Note_on_c, 0, 79, 0
2, 795960, Note_on_c, 0, 77, 100
2, 795960, Note_on_c, 0, 69, 100
2, 796020, Note_on_c, 0, 69, 0
2, 796020, Note_on_c, 0, 72, 100
2, 796080, Note_on_c, 0, 72, 0
2, 796080, Note_on_c, 0, 71, 100
2, 796140, Note_on_c, 0, 77, 0
2, 796140, Note_on_c, 0, 79, 100
2, 796200, Note_on_c, 0, 79, 0
2, 796200, Note_on_c, 0, 71, 0
2, 796200, Note_on_c, 0, 77, 100
2, 796200, Note_on_c, 0, 72, 100
2, 796260, Note_on_c, 0, 77, 0
2, 796260, Note_on_c, 0, 76, 100
2, 796320, Note_on_c, 0, 76, 0
2, 796320, Note_on_c, 0, 74, 100
2, 796380, Note_on_c, 0, 74, 0
2, 796380, Note_on_c, 0, 72, 100
2, 796440, Note_on_c, 0, 72, 0
2, 796440, Note_on_c, 0, 72, 0
2, 796440, Note_on_c, 0, 74, 100
2, 796440, Note_on_c, 0, 70, 100
2, 796500, Note_on_c, 0, 74, 0
2, 796500, Note_on_c, 0, 77, 100
2, 796560, Note_on_c, 0, 77, 0
2, 796560, Note_on_c, 0, 76, 100
2, 796620, Note_on_c, 0, 70, 0
2, 796620, Note_on_c, 0, 67, 100
2, 796680, Note_on_c, 0, 67, 0
2, 796680, Note_on_c, 0, 76, 0
2, 796680, Note_on_c, 0, 77, 100
2, 796680, Note_on_c, 0, 69, 100
2, 796800, Note_on_c, 0, 69, 0
2, 796800, Note_on_c, 0, 70, 100
2, 796920, Note_on_c, 0, 70, 0
2, 796920, Note_on_c, 0, 77, 0
2, 796920, Note_on_c, 0, 76, 100
2, 796920, Note_on_c, 0, 67, 100
2, 796980, Note_on_c, 0, 76, 0
2, 796980, Note_on_c, 0, 74, 100
2, 797040, Note_on_c, 0, 74, 0
2, 797040, Note_on_c, 0, 76, 100
2, 797100, Note_on_c, 0, 67, 0
2, 797100, Note_on_c, 0, 69, 100
2, 797160, Note_on_c, 0, 69, 0
2, 797160, Note_on_c, 0, 76, 0
2, 797160, Note_on_c, 0, 67, 100
2, 797220, Note_on_c, 0, 67, 0
2, 797220, Note_on_c, 0, 65, 100
2, 797280, Note_on_c, 0, 65, 0
2, 797280, Note_on_c, 0, 64, 100
2, 797340, Note_on_c, 0, 64, 0
2, 797340, Note_on_c, 0, 62, 100
2, 797400, Note_on_c, 0, 62, 0
2, 797400, Note_on_c, 0, 64, 100
2, 797460, Note_on_c, 0, 64, 0
2, 797460, Note_on_c, 0, 67, 100
2, 797520, Note_on_c, 0, 67, 0
2, 797520, Note_on_c, 0, 65, 100
2, 797580, Note_on_c, 0, 65, 0
2, 797580, Note_on_c, 0, 69, 100
2, 797640, Note_on_c, 0, 69, 0
2, 797640, Note_on_c, 0, 77, 100
2, 797640, Note_on_c, 0, 62, 100
2, 797700, Note_on_c, 0, 77, 0
2, 797700, Note_on_c, 0, 79, 100
2, 797760, Note_on_c, 0, 79, 0
2, 797760, Note_on_c, 0, 62, 0
2, 797760, Note_on_c, 0, 77, 100
2, 797820, Note_on_c, 0, 77, 0
2, 797820, Note_on_c, 0, 76, 100
2, 797880, Note_on_c, 0, 76, 0
2, 797880, Note_on_c, 0, 74, 100
2, 797940, Note_on_c, 0, 74, 0
2, 797940, Note_on_c, 0, 73, 100
2, 798000, Note_on_c, 0, 73, 0
2, 798000, Note_on_c, 0, 74, 100
2, 798060, Note_on_c, 0, 74, 0
2, 798060, Note_on_c, 0, 69, 100
2, 798120, Note_on_c, 0, 69, 0
2, 798120, Note_on_c, 0, 74, 100
2, 798180, Note_on_c, 0, 74, 0
2, 798180, Note_on_c, 0, 76, 100
2, 798240, Note_on_c, 0, 76, 0
2, 798240, Note_on_c, 0, 77, 100
2, 798300, Note_on_c, 0, 77, 0
2, 798300, Note_on_c, 0, 76, 100
2, 798360, Note_on_c, 0, 76, 0
2, 798360, Note_on_c, 0, 74, 100
2, 798420, Note_on_c, 0, 74, 0
2, 798420, Note_on_c, 0, 77, 100
2, 798480, Note_on_c, 0, 77, 0
2, 798480, Note_on_c, 0, 76, 100
2, 798540, Note_on_c, 0, 76, 0
2, 798540, Note_on_c, 0, 69, 100
2, 798600, Note_on_c, 0, 69, 0
2, 798600, Note_on_c, 0, 76, 100
2, 798660, Note_on_c, 0, 76, 0
2, 798660, Note_on_c, 0, 77, 100
2, 798720, Note_on_c, 0, 77, 0
2, 798720, Note_on_c, 0, 79, 100
2, 798780, Note_on_c, 0, 79, 0
2, 798780, Note_on_c, 0, 77, 100
2, 798810, Note_on_c, 0, 77, 0
2, 798810, Note_on_c, 0, 76, 100
2, 798840, Note_on_c, 0, 76, 0
2, 798840, Note_on_c, 0, 77, 100
2, 798900, Note_on_c, 0, 77, 0
2, 798900, Note_on_c, 0, 79, 100
2, 798960, Note_on_c, 0, 79, 0
2, 798960, Note_on_c, 0, 81, 100
2, 799020, Note_on_c, 0, 81, 0
2, 799020, Note_on_c, 0, 79, 100
2, 799080, Note_on_c, 0, 79, 0
2, 799080, Note_on_c, 0, 77, 100
2, 799140, Note_on_c, 0, 77, 0
2, 799140, Note_on_c, 0, 79, 100
2, 799200, Note_on_c, 0, 79, 0
2, 799200, Note_on_c, 0, 81, 100
2, 799500, Note_on_c, 0, 81, 0
2, 799500, Note_on_c, 0, 79, 100
2, 799530, Note_on_c, 0, 79, 0
2, 799530, Note_on_c, 0, 77, 100
2, 799560, Note_on_c, 0, 77, 0
2, 799560, Note_on_c, 0, 79, 100
2, 799620, Note_on_c, 0, 79, 0
2, 799620, Note_on_c, 0, 81, 100
2, 799680, Note_on_c, 0, 81, 0
2, 799680, Note_on_c, 0, 82, 100
2, 799980, Note_on_c, 0, 82, 0
2, 799980, Note_on_c, 0, 81, 100
2, 800040, Note_on_c, 0, 81, 0
2, 800040, Note_on_c, 0, 79, 100
2, 800100, Note_on_c, 0, 79, 0
2, 800100, Note_on_c, 0, 77, 100
2, 800160, Note_on_c, 0, 77, 0
2, 800160, Note_on_c, 0, 76, 100
2, 800220, Note_on_c, 0, 76, 0
2, 800220, Note_on_c, 0, 74, 100
2, 800280, Note_on_c, 0, 74, 0
2, 800280, Note_on_c, 0, 76, 100
2, 800340, Note_on_c, 0, 76, 0
2, 800340, Note_on_c, 0, 79, 100
2, 800400, Note_on_c, 0, 79, 0
2, 800400, Note_on_c, 0, 77, 100
2, 800460, Note_on_c, 0, 77, 0
2, 800460, Note_on_c, 0, 76, 100
2, 800520, Note_on_c, 0, 76, 0
2, 800520, Note_on_c, 0, 74, 100
2, 800580, Note_on_c, 0, 74, 0
2, 800580, Note_on_c, 0, 72, 100
2, 800640, Note_on_c, 0, 72, 0
2, 800640, Note_on_c, 0, 71, 100
2, 800700, Note_on_c, 0, 71, 0
2, 800700, Note_on_c, 0, 69, 100
2, 800760, Note_on_c, 0, 69, 0
2, 800760, Note_on_c, 0, 71, 100
2, 800820, Note_on_c, 0, 71, 0
2, 800820, Note_on_c, 0, 74, 100
2, 800880, Note_on_c, 0, 74, 0
2, 800880, Note_on_c, 0, 72, 100
2, 801000, Note_on_c, 0, 72, 0
2, 801000, Note_on_c, 0, 71, 100
2, 801060, Note_on_c, 0, 71, 0
2, 801060, Note_on_c, 0, 69, 100
2, 801120, Note_on_c, 0, 69, 0
2, 801120, Note_on_c, 0, 68, 100
2, 801180, Note_on_c, 0, 68, 0
2, 801180, Note_on_c, 0, 66, 100
2, 801240, Note_on_c, 0, 66, 0
2, 801240, Note_on_c, 0, 68, 100
2, 801300, Note_on_c, 0, 68, 0
2, 801300, Note_on_c, 0, 71, 100
2, 801360, Note_on_c, 0, 71, 0
2, 801360, Note_on_c, 0, 64, 100
2, 801480, Note_on_c, 0, 64, 0
2, 801480, Note_on_c, 0, 69, 100
2, 801720, Note_on_c, 0, 69, 0
2, 801720, Note_on_c, 0, 68, 100
2, 801840, Note_on_c, 0, 68, 0
2, 801840, Note_on_c, 0, 69, 100
2, 801960, Note_on_c, 0, 69, 0
2, 801960, Note_on_c, 0, 76, 100
2, 801960, Note_on_c, 0, 72, 100
2, 802020, Note_on_c, 0, 72, 0
2, 802020, Note_on_c, 0, 74, 100
2, 802080, Note_on_c, 0, 74, 0
2, 802080, Note_on_c, 0, 72, 100
2, 802140, Note_on_c, 0, 72, 0
2, 802140, Note_on_c, 0, 71, 100
2, 802200, Note_on_c, 0, 71, 0
2, 802200, Note_on_c, 0, 76, 0
2, 802200, Note_on_c, 0, 74, 100
2, 802200, Note_on_c, 0, 69, 100
2, 802260, Note_on_c, 0, 69, 0
2, 802260, Note_on_c, 0, 68, 100
2, 802320, Note_on_c, 0, 68, 0
2, 802320, Note_on_c, 0, 69, 100
2, 802380, Note_on_c, 0, 69, 0
2, 802380, Note_on_c, 0, 64, 100
2, 802440, Note_on_c, 0, 64, 0
2, 802440, Note_on_c, 0, 74, 0
2, 802440, Note_on_c, 0, 72, 100
2, 802440, Note_on_c, 0, 69, 100
2, 802500, Note_on_c, 0, 69, 0
2, 802500, Note_on_c, 0, 72, 0
2, 802500, Note_on_c, 0, 74, 100
2, 802500, Note_on_c, 0, 71, 100
2, 802560, Note_on_c, 0, 71, 0
2, 802560, Note_on_c, 0, 74, 0
2, 802560, Note_on_c, 0, 76, 100
2, 802560, Note_on_c, 0, 72, 100
2, 802620, Note_on_c, 0, 72, 0
2, 802620, Note_on_c, 0, 71, 100
2, 802680, Note_on_c, 0, 71, 0
2, 802680, Note_on_c, 0, 76, 0
2, 802680, Note_on_c, 0, 75, 100
2, 802680, Note_on_c, 0, 69, 100
2, 802740, Note_on_c, 0, 69, 0
2, 802740, Note_on_c, 0, 72, 100
2, 802800, Note_on_c, 0, 72, 0
2, 802800, Note_on_c, 0, 75, 0
2, 802800, Note_on_c, 0, 76, 100
2, 802800, Note_on_c, 0, 71, 100
2, 802860, Note_on_c, 0, 71, 0
2, 802860, Note_on_c, 0, 64, 100
2, 802920, Note_on_c, 0, 64, 0
2, 802920, Note_on_c, 0, 76, 0
2, 802920, Note_on_c, 0, 71, 100
2, 802980, Note_on_c, 0, 71, 0
2, 802980, Note_on_c, 0, 72, 100
2, 803040, Note_on_c, 0, 72, 0
2, 803040, Note_on_c, 0, 74, 100
2, 803100, Note_on_c, 0, 74, 0
2, 803100, Note_on_c, 0, 72, 100
2, 803130, Note_on_c, 0, 72, 0
2, 803130, Note_on_c, 0, 71, 100
2, 803160, Note_on_c, 0, 71, 0
2, 803160, Note_on_c, 0, 72, 100
2, 803220, Note_on_c, 0, 72, 0
2, 803220, Note_on_c, 0, 74, 100
2, 803280, Note_on_c, 0, 74, 0
2, 803280, Note_on_c, 0, 76, 100
2, 803340, Note_on_c, 0, 76, 0
2, 803340, Note_on_c, 0, 74, 100
2, 803400, Note_on_c, 0, 74, 0
2, 803400, Note_on_c, 0, 72, 100
2, 803460, Note_on_c, 0, 72, 0
2, 803460, Note_on_c, 0, 74, 100
2, 803520, Note_on_c, 0, 74, 0
2, 803520, Note_on_c, 0, 76, 100
2, 803820, Note_on_c, 0, 76, 0
2, 803820, Note_on_c, 0, 74, 100
2, 803850, Note_on_c, 0, 74, 0
2, 803850, Note_on_c, 0, 73, 100
2, 803880, Note_on_c, 0, 73, 0
2, 803880, Note_on_c, 0, 74, 100
2, 803940, Note_on_c, 0, 74, 0
2, 803940, Note_on_c, 0, 76, 100
2, 804000, Note_on_c, 0, 76, 0
2, 804000, Note_on_c, 0, 77, 100
2, 804300, Note_on_c, 0, 77, 0
2, 804300, Note_on_c, 0, 76, 100
2, 804360, Note_on_c, 0, 76, 0
2, 804360, Note_on_c, 0, 74, 100
2, 804420, Note_on_c, 0, 74, 0
2, 804420, Note_on_c, 0, 72, 100
2, 804480, Note_on_c, 0, 72, 0
2, 804480, Note_on_c, 0, 71, 100
2, 804540, Note_on_c, 0, 71, 0
2, 804540, Note_on_c, 0, 69, 100
2, 804600, Note_on_c, 0, 69, 0
2, 804600, Note_on_c, 0, 71, 100
2, 804660, Note_on_c, 0, 71, 0
2, 804660, Note_on_c, 0, 74, 100
2, 804720, Note_on_c, 0, 74, 0
2, 804720, Note_on_c, 0, 72, 100
2, 805260, Note_on_c, 0, 72, 0
2, 805260, Note_on_c, 0, 74, 100
2, 805320, Note_on_c, 0, 74, 0
2, 805320, Note_on_c, 0, 72, 100
2, 805380, Note_on_c, 0, 72, 0
2, 805380, Note_on_c, 0, 70, 100
2, 805440, Note_on_c, 0, 70, 0
2, 805440, Note_on_c, 0, 69, 100
2, 805500, Note_on_c, 0, 69, 0
2, 805500, Note_on_c, 0, 67, 100
2, 805560, Note_on_c, 0, 67, 0
2, 805560, Note_on_c, 0, 69, 100
2, 805620, Note_on_c, 0, 69, 0
2, 805620, Note_on_c, 0, 72, 100
2, 805680, Note_on_c, 0, 72, 0
2, 805680, Note_on_c, 0, 70, 100
2, 806220, Note_on_c, 0, 70, 0
2, 806220, Note_on_c, 0, 72, 100
2, 806280, Note_on_c, 0, 72, 0
2, 806280, Note_on_c, 0, 70, 100
2, 806340, Note_on_c, 0, 70, 0
2, 806340, Note_on_c, 0, 69, 100
2, 806400, Note_on_c, 0, 69, 0
2, 806400, Note_on_c, 0, 67, 100
2, 806460, Note_on_c, 0, 67, 0
2, 806460, Note_on_c, 0, 65, 100
2, 806520, Note_on_c, 0, 65, 0
2, 806520, Note_on_c, 0, 67, 100
2, 806580, Note_on_c, 0, 67, 0
2, 806580, Note_on_c, 0, 70, 100
2, 806640, Note_on_c, 0, 70, 0
2, 806640, Note_on_c, 0, 69, 100
2, 806700, Note_on_c, 0, 69, 0
2, 806700, Note_on_c, 0, 70, 100
2, 806760, Note_on_c, 0, 70, 0
2, 806760, Note_on_c, 0, 69, 100
2, 806820, Note_on_c, 0, 69, 0
2, 806820, Note_on_c, 0, 67, 100
2, 806880, Note_on_c, 0, 67, 0
2, 806880, Note_on_c, 0, 65, 100
2, 806940, Note_on_c, 0, 65, 0
2, 806940, Note_on_c, 0, 64, 100
2, 807000, Note_on_c, 0, 64, 0
2, 807000, Note_on_c, 0, 65, 100
2, 807060, Note_on_c, 0, 65, 0
2, 807060, Note_on_c, 0, 69, 100
2, 807120, Note_on_c, 0, 69, 0
2, 807120, Note_on_c, 0, 62, 100
2, 807180, Note_on_c, 0, 62, 0
2, 807180, Note_on_c, 0, 64, 100
2, 807240, Note_on_c, 0, 64, 0
2, 807240, Note_on_c, 0, 65, 100
2, 807420, Note_on_c, 0, 65, 0
2, 807420, Note_on_c, 0, 64, 100
2, 807480, Note_on_c, 0, 64, 0
2, 807480, Note_on_c, 0, 70, 100
2, 807720, Note_on_c, 0, 70, 0
2, 807720, Note_on_c, 0, 69, 100
2, 807780, Note_on_c, 0, 69, 0
2, 807780, Note_on_c, 0, 67, 100
2, 807840, Note_on_c, 0, 67, 0
2, 807840, Note_on_c, 0, 65, 100
2, 807900, Note_on_c, 0, 65, 0
2, 807900, Note_on_c, 0, 69, 100
2, 807960, Note_on_c, 0, 69, 0
2, 807960, Note_on_c, 0, 62, 100
2, 808140, Note_on_c, 0, 62, 0
2, 808140, Note_on_c, 0, 67, 100
2, 808200, Note_on_c, 0, 67, 0
2, 808200, Note_on_c, 0, 60, 100
2, 808320, Note_on_c, 0, 60, 0
2, 808320, Note_on_c, 0, 65, 100
2, 808320, Note_on_c, 0, 62, 100
2, 808560, Note_on_c, 0, 62, 0
2, 808560, Note_on_c, 0, 65, 0
2, 808560, Note_on_c, 0, 72, 100
2, 808560, Note_on_c, 0, 64, 100
2, 808680, Note_on_c, 0, 64, 0
2, 808680, Note_on_c, 0, 65, 100
2, 808740, Note_on_c, 0, 65, 0
2, 808740, Note_on_c, 0, 67, 100
2, 808800, Note_on_c, 0, 67, 0
2, 808800, Note_on_c, 0, 69, 100
2, 808920, Note_on_c, 0, 69, 0
2, 808920, Note_on_c, 0, 72, 0
2, 808920, Note_on_c, 0, 70, 100
2, 808920, Note_on_c, 0, 67, 100
2, 809040, Note_on_c, 0, 70, 0
2, 809040, Note_on_c, 0, 69, 100
2, 809160, Note_on_c, 0, 67, 0
2, 809160, Note_on_c, 0, 65, 100
2, 809220, Note_on_c, 0, 65, 0
2, 809220, Note_on_c, 0, 64, 100
2, 809280, Note_on_c, 0, 64, 0
2, 809280, Note_on_c, 0, 65, 100
2, 809520, Note_on_c, 0, 69, 0
2, 809520, Note_on_c, 0, 70, 100
2, 809580, Note_on_c, 0, 65, 0
2, 809580, Note_on_c, 0, 63, 100
2, 809640, Note_on_c, 0, 63, 0
2, 809640, Note_on_c, 0, 65, 100
2, 809820, Note_on_c, 0, 65, 0
2, 809820, Note_on_c, 0, 62, 100
2, 809880, Note_on_c, 0, 62, 0
2, 809880, Note_on_c, 0, 63, 100
2, 809940, Note_on_c, 0, 63, 0
2, 809940, Note_on_c, 0, 67, 100
2, 810000, Note_on_c, 0, 67, 0
2, 810000, Note_on_c, 0, 70, 0
2, 810000, Note_on_c, 0, 72, 100
2, 810000, Note_on_c, 0, 60, 100
2, 810180, Note_on_c, 0, 60, 0
2, 810180, Note_on_c, 0, 62, 100
2, 810240, Note_on_c, 0, 62, 0
2, 810240, Note_on_c, 0, 63, 100
2, 810480, Note_on_c, 0, 72, 0
2, 810480, Note_on_c, 0, 65, 100
2, 810600, Note_on_c, 0, 63, 0
2, 810600, Note_on_c, 0, 62, 100
2, 810660, Note_on_c, 0, 62, 0
2, 810660, Note_on_c, 0, 60, 100
2, 810720, Note_on_c, 0, 60, 0
2, 810720, Note_on_c, 0, 62, 100
2, 810780, Note_on_c, 0, 65, 0
2, 810780, Note_on_c, 0, 66, 100
2, 810840, Note_on_c, 0, 66, 0
2, 810840, Note_on_c, 0, 67, 100
2, 810900, Note_on_c, 0, 67, 0
2, 810900, Note_on_c, 0, 69, 100
2, 810960, Note_on_c, 0, 69, 0
2, 810960, Note_on_c, 0, 70, 100
2, 811018, Note_on_c, 0, 62, 0
2, 811020, Note_on_c, 0, 62, 100
2, 811080, Note_on_c, 0, 62, 0
2, 811080, Note_on_c, 0, 64, 100
2, 811140, Note_on_c, 0, 64, 0
2, 811140, Note_on_c, 0, 66, 100
2, 811200, Note_on_c, 0, 66, 0
2, 811200, Note_on_c, 0, 67, 100
2, 811260, Note_on_c, 0, 70, 0
2, 811260, Note_on_c, 0, 71, 100
2, 811320, Note_on_c, 0, 71, 0
2, 811320, Note_on_c, 0, 72, 100
2, 811380, Note_on_c, 0, 72, 0
2, 811380, Note_on_c, 0, 74, 100
2, 811440, Note_on_c, 0, 74, 0
2, 811440, Note_on_c, 0, 76, 100
2, 811500, Note_on_c, 0, 67, 0
2, 811500, Note_on_c, 0, 74, 100
2, 811560, Note_on_c, 0, 74, 0
2, 811560, Note_on_c, 0, 72, 100
2, 811620, Note_on_c, 0, 72, 0
2, 811620, Note_on_c, 0, 70, 100
2, 811680, Note_on_c, 0, 70, 0
2, 811680, Note_on_c, 0, 69, 100
2, 811740, Note_on_c, 0, 69, 0
2, 811740, Note_on_c, 0, 67, 100
2, 811800, Note_on_c, 0, 67, 0
2, 811800, Note_on_c, 0, 69, 100
2, 811860, Note_on_c, 0, 69, 0
2, 811860, Note_on_c, 0, 72, 100
2, 811920, Note_on_c, 0, 72, 0
2, 811920, Note_on_c, 0, 66, 100
2, 812040, Note_on_c, 0, 76, 0
2, 812040, Note_on_c, 0, 69, 100
2, 812160, Note_on_c, 0, 69, 0
2, 812160, Note_on_c, 0, 74, 100
2, 812280, Note_on_c, 0, 66, 0
2, 812280, Note_on_c, 0, 66, 100
2, 812400, Note_on_c, 0, 66, 0
2, 812400, Note_on_c, 0, 67, 100
2, 812460, Note_on_c, 0, 67, 0
2, 812460, Note_on_c, 0, 69, 100
2, 812520, Note_on_c, 0, 69, 0
2, 812520, Note_on_c, 0, 67, 100
2, 812580, Note_on_c, 0, 67, 0
2, 812580, Note_on_c, 0, 65, 100
2, 812640, Note_on_c, 0, 65, 0
2, 812640, Note_on_c, 0, 74, 0
2, 812640, Note_on_c, 0, 73, 100
2, 812640, Note_on_c, 0, 64, 100
2, 812700, Note_on_c, 0, 64, 0
2, 812700, Note_on_c, 0, 62, 100
2, 812760, Note_on_c, 0, 62, 0
2, 812760, Note_on_c, 0, 64, 100
2, 812820, Note_on_c, 0, 64, 0
2, 812820, Note_on_c, 0, 67, 100
2, 812880, Note_on_c, 0, 67, 0
2, 812880, Note_on_c, 0, 73, 0
2, 812880, Note_on_c, 0, 74, 100
2, 812880, Note_on_c, 0, 66, 100
2, 813000, Note_on_c, 0, 66, 0
2, 813000, Note_on_c, 0, 67, 100
2, 813120, Note_on_c, 0, 74, 0
2, 813120, Note_on_c, 0, 72, 100
2, 813240, Note_on_c, 0, 67, 0
2, 813240, Note_on_c, 0, 66, 100
2, 813300, Note_on_c, 0, 66, 0
2, 813300, Note_on_c, 0, 69, 100
2, 813360, Note_on_c, 0, 69, 0
2, 813360, Note_on_c, 0, 62, 100
2, 813420, Note_on_c, 0, 62, 0
2, 813420, Note_on_c, 0, 66, 100
2, 813480, Note_on_c, 0, 66, 0
2, 813480, Note_on_c, 0, 72, 0
2, 813480, Note_on_c, 0, 70, 100
2, 813480, Note_on_c, 0, 67, 100
2, 813540, Note_on_c, 0, 67, 0
2, 813540, Note_on_c, 0, 70, 0
2, 813540, Note_on_c, 0, 69, 100
2, 813540, Note_on_c, 0, 66, 100
2, 813600, Note_on_c, 0, 66, 0
2, 813600, Note_on_c, 0, 69, 0
2, 813600, Note_on_c, 0, 70, 100
2, 813600, Note_on_c, 0, 67, 100
2, 813720, Note_on_c, 0, 67, 0
2, 813720, Note_on_c, 0, 70, 0
2, 813720, Note_on_c, 0, 75, 100
2, 813720, Note_on_c, 0, 72, 100
2, 813840, Note_on_c, 0, 75, 0
2, 813840, Note_on_c, 0, 74, 100
2, 813960, Note_on_c, 0, 74, 0
2, 813960, Note_on_c, 0, 72, 0
2, 813960, Note_on_c, 0, 76, 100
2, 813960, Note_on_c, 0, 70, 100
2, 814020, Note_on_c, 0, 76, 0
2, 814020, Note_on_c, 0, 78, 100
2, 814080, Note_on_c, 0, 78, 0
2, 814080, Note_on_c, 0, 70, 0
2, 814080, Note_on_c, 0, 79, 100
2, 814140, Note_on_c, 0, 77, 100
2, 814200, Note_on_c, 0, 77, 0
2, 814200, Note_on_c, 0, 75, 100
2, 814260, Note_on_c, 0, 75, 0
2, 814260, Note_on_c, 0, 74, 100
2, 814320, Note_on_c, 0, 74, 0
2, 814320, Note_on_c, 0, 72, 100
2, 814380, Note_on_c, 0, 72, 0
2, 814380, Note_on_c, 0, 71, 100
2, 814440, Note_on_c, 0, 71, 0
2, 814440, Note_on_c, 0, 79, 0
2, 814440, Note_on_c, 0, 77, 100
2, 814440, Note_on_c, 0, 72, 100
2, 814500, Note_on_c, 0, 72, 0
2, 814500, Note_on_c, 0, 74, 100
2, 814560, Note_on_c, 0, 74, 0
2, 814560, Note_on_c, 0, 67, 100
2, 814620, Note_on_c, 0, 77, 0
2, 814620, Note_on_c, 0, 75, 100
2, 814680, Note_on_c, 0, 75, 0
2, 814680, Note_on_c, 0, 74, 100
2, 814740, Note_on_c, 0, 74, 0
2, 814740, Note_on_c, 0, 72, 100
2, 814800, Note_on_c, 0, 72, 0
2, 814800, Note_on_c, 0, 67, 0
2, 814800, Note_on_c, 0, 70, 100
2, 814800, Note_on_c, 0, 74, 100
2, 814860, Note_on_c, 0, 70, 0
2, 814860, Note_on_c, 0, 69, 100
2, 814920, Note_on_c, 0, 69, 0
2, 814920, Note_on_c, 0, 67, 100
2, 815040, Note_on_c, 0, 67, 0
2, 815040, Note_on_c, 0, 74, 100
2, 815160, Note_on_c, 0, 74, 0
2, 815160, Note_on_c, 0, 72, 100
2, 815280, Note_on_c, 0, 72, 0
2, 815280, Note_on_c, 0, 74, 0
2, 815280, Note_on_c, 0, 79, 100
2, 815280, Note_on_c, 0, 71, 100
2, 815640, Note_on_c, 0, 79, 0
2, 815640, Note_on_c, 0, 77, 100
2, 815760, Note_on_c, 0, 77, 0
2, 815760, Note_on_c, 0, 71, 0
2, 815760, Note_on_c, 0, 75, 100
2, 815760, Note_on_c, 0, 72, 100
2, 816240, Note_on_c, 0, 72, 0
2, 816240, Note_on_c, 0, 75, 0
2, 816240, Note_on_c, 0, 77, 100
2, 816240, Note_on_c, 0, 74, 100
2, 816720, Note_on_c, 0, 74, 0
2, 816720, Note_on_c, 0, 77, 0
2, 816720, Note_on_c, 0, 79, 100
2, 816720, Note_on_c, 0, 67, 100
2, 816840, Note_on_c, 0, 67, 0
2, 816840, Note_on_c, 0, 69, 100
2, 816960, Note_on_c, 0, 69, 0
2, 816960, Note_on_c, 0, 70, 100
2, 817200, Note_on_c, 0, 79, 0
2, 817200, Note_on_c, 0, 72, 100
2, 817320, Note_on_c, 0, 70, 0
2, 817320, Note_on_c, 0, 69, 100
2, 817380, Note_on_c, 0, 69, 0
2, 817380, Note_on_c, 0, 67, 100
2, 817440, Note_on_c, 0, 67, 0
2, 817440, Note_on_c, 0, 66, 100
2, 817500, Note_on_c, 0, 66, 0
2, 817500, Note_on_c, 0, 64, 100
2, 817560, Note_on_c, 0, 64, 0
2, 817560, Note_on_c, 0, 66, 100
2, 817620, Note_on_c, 0, 66, 0
2, 817620, Note_on_c, 0, 69, 100
2, 817680, Note_on_c, 0, 69, 0
2, 817680, Note_on_c, 0, 62, 100
2, 817740, Note_on_c, 0, 72, 0
2, 817740, Note_on_c, 0, 66, 100
2, 817800, Note_on_c, 0, 66, 0
2, 817800, Note_on_c, 0, 67, 100
2, 817860, Note_on_c, 0, 67, 0
2, 817860, Note_on_c, 0, 69, 100
2, 817920, Note_on_c, 0, 69, 0
2, 817920, Note_on_c, 0, 62, 0
2, 817920, Note_on_c, 0, 70, 100
2, 817980, Note_on_c, 0, 70, 0
2, 817980, Note_on_c, 0, 72, 100
2, 818040, Note_on_c, 0, 72, 0
2, 818040, Note_on_c, 0, 70, 100
2, 818100, Note_on_c, 0, 70, 0
2, 818100, Note_on_c, 0, 67, 100
2, 818160, Note_on_c, 0, 67, 0
2, 818160, Note_on_c, 0, 75, 100
2, 818220, Note_on_c, 0, 74, 100
2, 818280, Note_on_c, 0, 74, 0
2, 818280, Note_on_c, 0, 72, 100
2, 818340, Note_on_c, 0, 72, 0
2, 818340, Note_on_c, 0, 70, 100
2, 818400, Note_on_c, 0, 70, 0
2, 818400, Note_on_c, 0, 69, 100
2, 818460, Note_on_c, 0, 69, 0
2, 818460, Note_on_c, 0, 67, 100
2, 818520, Note_on_c, 0, 67, 0
2, 818520, Note_on_c, 0, 69, 100
2, 818580, Note_on_c, 0, 69, 0
2, 818580, Note_on_c, 0, 72, 100
2, 818640, Note_on_c, 0, 72, 0
2, 818640, Note_on_c, 0, 66, 100
2, 818697, Note_on_c, 0, 75, 0
2, 818700, Note_on_c, 0, 75, 100
2, 818760, Note_on_c, 0, 75, 0
2, 818760, Note_on_c, 0, 74, 100
2, 818820, Note_on_c, 0, 74, 0
2, 818820, Note_on_c, 0, 72, 100
2, 818880, Note_on_c, 0, 72, 0
2, 818880, Note_on_c, 0, 70, 100
2, 818940, Note_on_c, 0, 70, 0
2, 818940, Note_on_c, 0, 69, 100
2, 819000, Note_on_c, 0, 69, 0
2, 819000, Note_on_c, 0, 70, 100
2, 819060, Note_on_c, 0, 70, 0
2, 819060, Note_on_c, 0, 74, 100
2, 819120, Note_on_c, 0, 74, 0
2, 819120, Note_on_c, 0, 66, 0
2, 819120, Note_on_c, 0, 67, 100
2, 819120, Note_on_c, 0, 67, 100
2, 819180, Note_on_c, 0, 67, 0
2, 819180, Note_on_c, 0, 65, 100
2, 819240, Note_on_c, 0, 65, 0
2, 819240, Note_on_c, 0, 63, 100
2, 819300, Note_on_c, 0, 67, 0
2, 819300, Note_on_c, 0, 69, 100
2, 819360, Note_on_c, 0, 69, 0
2, 819360, Note_on_c, 0, 63, 0
2, 819360, Note_on_c, 0, 66, 100
2, 819360, Note_on_c, 0, 62, 100
2, 819480, Note_on_c, 0, 62, 0
2, 819480, Note_on_c, 0, 60, 100
2, 819540, Note_on_c, 0, 66, 0
2, 819540, Note_on_c, 0, 67, 100
2, 819600, Note_on_c, 0, 67, 0
2, 819600, Note_on_c, 0, 67, 100
2, 819720, Note_on_c, 0, 60, 0
2, 819720, Note_on_c, 0, 58, 100
2, 819840, Note_on_c, 0, 58, 0
2, 819840, Note_on_c, 0, 67, 0
2, 820800, Note_on_c, 0, 65, 100
2, 821040, Note_on_c, 0, 65, 0
2, 821040, Note_on_c, 0, 64, 100
2, 821280, Note_on_c, 0, 64, 0
2, 821280, Note_on_c, 0, 67, 100
2, 821520, Note_on_c, 0, 67, 0
2, 821520, Note_on_c, 0, 66, 100
2, 821700, Note_on_c, 0, 66, 0
2, 821700, Note_on_c, 0, 68, 100
2, 821760, Note_on_c, 0, 68, 0
2, 821760, Note_on_c, 0, 69, 100
2, 822180, Note_on_c, 0, 69, 0
2, 822180, Note_on_c, 0, 68, 100
2, 822210, Note_on_c, 0, 68, 0
2, 822210, Note_on_c, 0, 66, 100
2, 822240, Note_on_c, 0, 66, 0
2, 822240, Note_on_c, 0, 68, 100
2, 822480, Note_on_c, 0, 68, 0
2, 822480, Note_on_c, 0, 69, 100
2, 822600, Note_on_c, 0, 69, 0
2, 822600, Note_on_c, 0, 64, 100
2, 822720, Note_on_c, 0, 64, 0
2, 822720, Note_on_c, 0, 69, 100
2, 822840, Note_on_c, 0, 69, 0
2, 822840, Note_on_c, 0, 67, 100
2, 822960, Note_on_c, 0, 67, 0
2, 822960, Note_on_c, 0, 65, 100
2, 823200, Note_on_c, 0, 65, 0
2, 823320, Note_on_c, 0, 66, 100
2, 823440, Note_on_c, 0, 66, 0
2, 823440, Note_on_c, 0, 67, 100
2, 823560, Note_on_c, 0, 67, 0
2, 823560, Note_on_c, 0, 62, 100
2, 823680, Note_on_c, 0, 62, 0
2, 823680, Note_on_c, 0, 70, 100
2, 823680, Note_on_c, 0, 67, 100
2, 823800, Note_on_c, 0, 67, 0
2, 823800, Note_on_c, 0, 65, 100
2, 823920, Note_on_c, 0, 65, 0
2, 823920, Note_on_c, 0, 70, 0
2, 823920, Note_on_c, 0, 69, 100
2, 823920, Note_on_c, 0, 64, 100
2, 824040, Note_on_c, 0, 64, 0
2, 824040, Note_on_c, 0, 66, 100
2, 824100, Note_on_c, 0, 66, 0
2, 824100, Note_on_c, 0, 67, 100
2, 824160, Note_on_c, 0, 67, 0
2, 824160, Note_on_c, 0, 69, 0
2, 824160, Note_on_c, 0, 72, 100
2, 824160, Note_on_c, 0, 69, 100
2, 824400, Note_on_c, 0, 72, 0
2, 824400, Note_on_c, 0, 71, 100
2, 824520, Note_on_c, 0, 69, 0
2, 824520, Note_on_c, 0, 67, 100
2, 824580, Note_on_c, 0, 71, 0
2, 824580, Note_on_c, 0, 73, 100
2, 824640, Note_on_c, 0, 73, 0
2, 824640, Note_on_c, 0, 67, 0
2, 824640, Note_on_c, 0, 74, 100
2, 824640, Note_on_c, 0, 69, 100
2, 824760, Note_on_c, 0, 69, 0
2, 824760, Note_on_c, 0, 62, 100
2, 824880, Note_on_c, 0, 62, 0
2, 824880, Note_on_c, 0, 67, 100
2, 825060, Note_on_c, 0, 67, 0
2, 825060, Note_on_c, 0, 74, 0
2, 825060, Note_on_c, 0, 73, 100
2, 825060, Note_on_c, 0, 65, 100
2, 825090, Note_on_c, 0, 73, 0
2, 825090, Note_on_c, 0, 71, 100
2, 825120, Note_on_c, 0, 71, 0
2, 825120, Note_on_c, 0, 65, 0
2, 825120, Note_on_c, 0, 73, 100
2, 825120, Note_on_c, 0, 64, 100
2, 825360, Note_on_c, 0, 64, 0
2, 825360, Note_on_c, 0, 73, 0
2, 825360, Note_on_c, 0, 74, 100
2, 825360, Note_on_c, 0, 62, 100
2, 825480, Note_on_c, 0, 62, 0
2, 825480, Note_on_c, 0, 74, 0
2, 825720, Note_on_c, 0, 75, 100
2, 825840, Note_on_c, 0, 75, 0
2, 825840, Note_on_c, 0, 76, 100
2, 825960, Note_on_c, 0, 76, 0
2, 825960, Note_on_c, 0, 71, 100
2, 826080, Note_on_c, 0, 71, 0
2, 826080, Note_on_c, 0, 76, 100
2, 826200, Note_on_c, 0, 76, 0
2, 826200, Note_on_c, 0, 74, 100
2, 826200, Note_on_c, 0, 71, 100
2, 826320, Note_on_c, 0, 74, 0
2, 826320, Note_on_c, 0, 72, 100
2, 826440, Note_on_c, 0, 71, 0
2, 826440, Note_on_c, 0, 64, 100
2, 826560, Note_on_c, 0, 64, 0
2, 826560, Note_on_c, 0, 72, 0
2, 826560, Note_on_c, 0, 73, 100
2, 826560, Note_on_c, 0, 69, 100
2, 826680, Note_on_c, 0, 69, 0
2, 826680, Note_on_c, 0, 67, 100
2, 826800, Note_on_c, 0, 67, 0
2, 826800, Note_on_c, 0, 73, 0
2, 826800, Note_on_c, 0, 74, 100
2, 826800, Note_on_c, 0, 65, 100
2, 826920, Note_on_c, 0, 74, 0
2, 826920, Note_on_c, 0, 69, 100
2, 827040, Note_on_c, 0, 69, 0
2, 827040, Note_on_c, 0, 74, 100
2, 827160, Note_on_c, 0, 65, 0
2, 827160, Note_on_c, 0, 67, 100
2, 827220, Note_on_c, 0, 67, 0
2, 827220, Note_on_c, 0, 65, 100
2, 827280, Note_on_c, 0, 65, 0
2, 827280, Note_on_c, 0, 64, 100
2, 827400, Note_on_c, 0, 74, 0
2, 827400, Note_on_c, 0, 72, 100
2, 827460, Note_on_c, 0, 72, 0
2, 827460, Note_on_c, 0, 71, 100
2, 827520, Note_on_c, 0, 71, 0
2, 827520, Note_on_c, 0, 72, 100
2, 827580, Note_on_c, 0, 64, 0
2, 827580, Note_on_c, 0, 62, 100
2, 827640, Note_on_c, 0, 62, 0
2, 827640, Note_on_c, 0, 63, 100
2, 827700, Note_on_c, 0, 63, 0
2, 827700, Note_on_c, 0, 60, 100
2, 827760, Note_on_c, 0, 60, 0
2, 827760, Note_on_c, 0, 62, 100
2, 827880, Note_on_c, 0, 72, 0
2, 827880, Note_on_c, 0, 70, 100
2, 827940, Note_on_c, 0, 70, 0
2, 827940, Note_on_c, 0, 69, 100
2, 828000, Note_on_c, 0, 69, 0
2, 828000, Note_on_c, 0, 70, 100
2, 828120, Note_on_c, 0, 70, 0
2, 828120, Note_on_c, 0, 62, 0
2, 828120, Note_on_c, 0, 67, 100
2, 828120, Note_on_c, 0, 64, 100
2, 828180, Note_on_c, 0, 64, 0
2, 828180, Note_on_c, 0, 62, 100
2, 828240, Note_on_c, 0, 62, 0
2, 828240, Note_on_c, 0, 67, 0
2, 828240, Note_on_c, 0, 69, 100
2, 828240, Note_on_c, 0, 61, 100
2, 828360, Note_on_c, 0, 61, 0
2, 828360, Note_on_c, 0, 69, 0
2, 828360, Note_on_c, 0, 81, 100
2, 828360, Note_on_c, 0, 64, 100
2, 828480, Note_on_c, 0, 64, 0
2, 828480, Note_on_c, 0, 69, 100
2, 828600, Note_on_c, 0, 81, 0
2, 828600, Note_on_c, 0, 74, 100
2, 828780, Note_on_c, 0, 69, 0
2, 828780, Note_on_c, 0, 62, 100
2, 828840, Note_on_c, 0, 62, 0
2, 828840, Note_on_c, 0, 74, 0
2, 828840, Note_on_c, 0, 76, 100
2, 828840, Note_on_c, 0, 67, 100
2, 828960, Note_on_c, 0, 67, 0
2, 828960, Note_on_c, 0, 76, 0
2, 828960, Note_on_c, 0, 77, 100
2, 829200, Note_on_c, 0, 77, 0
2, 829200, Note_on_c, 0, 76, 100
2, 829440, Note_on_c, 0, 64, 100
2, 829500, Note_on_c, 0, 76, 0
2, 829500, Note_on_c, 0, 73, 100
2, 829560, Note_on_c, 0, 73, 0
2, 829560, Note_on_c, 0, 74, 100
2, 829620, Note_on_c, 0, 74, 0
2, 829620, Note_on_c, 0, 76, 100
2, 829680, Note_on_c, 0, 76, 0
2, 829680, Note_on_c, 0, 64, 0
2, 829680, Note_on_c, 0, 69, 100
2, 829680, Note_on_c, 0, 65, 100
2, 829920, Note_on_c, 0, 65, 0
2, 829920, Note_on_c, 0, 62, 100
2, 830040, Note_on_c, 0, 69, 0
2, 830040, Note_on_c, 0, 67, 100
2, 830100, Note_on_c, 0, 67, 0
2, 830100, Note_on_c, 0, 66, 100
2, 830160, Note_on_c, 0, 66, 0
2, 830160, Note_on_c, 0, 62, 0
2, 830160, Note_on_c, 0, 67, 100
2, 830160, Note_on_c, 0, 63, 100
2, 830340, Note_on_c, 0, 63, 0
2, 830340, Note_on_c, 0, 62, 100
2, 830400, Note_on_c, 0, 62, 0
2, 830400, Note_on_c, 0, 61, 100
2, 830880, Note_on_c, 0, 61, 0
2, 830880, Note_on_c, 0, 67, 0
2, 830880, Note_on_c, 0, 65, 100
2, 830880, Note_on_c, 0, 62, 100
2, 830940, Note_on_c, 0, 65, 0
2, 830940, Note_on_c, 0, 64, 100
2, 831000, Note_on_c, 0, 64, 0
2, 831000, Note_on_c, 0, 65, 100
2, 831120, Note_on_c, 0, 65, 0
2, 831120, Note_on_c, 0, 64, 100
2, 831240, Note_on_c, 0, 62, 0
2, 831240, Note_on_c, 0, 61, 100
2, 831360, Note_on_c, 0, 61, 0
2, 831360, Note_on_c, 0, 64, 0
2, 831360, Note_on_c, 0, 70, 100
2, 831360, Note_on_c, 0, 62, 100
2, 831480, Note_on_c, 0, 62, 0
2, 831480, Note_on_c, 0, 64, 100
2, 831600, Note_on_c, 0, 64, 0
2, 831600, Note_on_c, 0, 70, 0
2, 831600, Note_on_c, 0, 69, 100
2, 831600, Note_on_c, 0, 65, 100
2, 831720, Note_on_c, 0, 65, 0
2, 831720, Note_on_c, 0, 64, 100
2, 831780, Note_on_c, 0, 64, 0
2, 831780, Note_on_c, 0, 65, 100
2, 831840, Note_on_c, 0, 65, 0
2, 831840, Note_on_c, 0, 69, 0
2, 831840, Note_on_c, 0, 72, 100
2, 831840, Note_on_c, 0, 67, 100
2, 832080, Note_on_c, 0, 72, 0
2, 832080, Note_on_c, 0, 71, 100
2, 832140, Note_on_c, 0, 67, 0
2, 832140, Note_on_c, 0, 66, 100
2, 832200, Note_on_c, 0, 66, 0
2, 832200, Note_on_c, 0, 67, 100
2, 832260, Note_on_c, 0, 67, 0
2, 832260, Note_on_c, 0, 71, 0
2, 832260, Note_on_c, 0, 73, 100
2, 832260, Note_on_c, 0, 70, 100
2, 832320, Note_on_c, 0, 70, 0
2, 832320, Note_on_c, 0, 73, 0
2, 832320, Note_on_c, 0, 74, 100
2, 832320, Note_on_c, 0, 69, 100
2, 832740, Note_on_c, 0, 74, 0
2, 832740, Note_on_c, 0, 73, 100
2, 832770, Note_on_c, 0, 73, 0
2, 832770, Note_on_c, 0, 71, 100
2, 832800, Note_on_c, 0, 71, 0
2, 832800, Note_on_c, 0, 69, 0
2, 832800, Note_on_c, 0, 73, 100
2, 832800, Note_on_c, 0, 67, 100
2, 832860, Note_on_c, 0, 73, 0
2, 832860, Note_on_c, 0, 75, 100
2, 832920, Note_on_c, 0, 75, 0
2, 832920, Note_on_c, 0, 67, 0
2, 832920, Note_on_c, 0, 76, 100
2, 832920, Note_on_c, 0, 66, 100
2, 832950, Note_on_c, 0, 76, 0
2, 832950, Note_on_c, 0, 75, 100
2, 832980, Note_on_c, 0, 75, 0
2, 832980, Note_on_c, 0, 73, 100
2, 833010, Note_on_c, 0, 73, 0
2, 833010, Note_on_c, 0, 75, 100
2, 833040, Note_on_c, 0, 75, 0
2, 833040, Note_on_c, 0, 66, 0
2, 833040, Note_on_c, 0, 76, 100
2, 833040, Note_on_c, 0, 64, 100
2, 833160, Note_on_c, 0, 76, 0
2, 833160, Note_on_c, 0, 71, 100
2, 833280, Note_on_c, 0, 71, 0
2, 833280, Note_on_c, 0, 76, 100
2, 833400, Note_on_c, 0, 76, 0
2, 833400, Note_on_c, 0, 74, 100
2, 833520, Note_on_c, 0, 74, 0
2, 833520, Note_on_c, 0, 72, 100
2, 833638, Note_on_c, 0, 64, 0
2, 833640, Note_on_c, 0, 64, 100
2, 833760, Note_on_c, 0, 64, 0
2, 833760, Note_on_c, 0, 72, 0
2, 833760, Note_on_c, 0, 73, 100
2, 833760, Note_on_c, 0, 69, 100
2, 833880, Note_on_c, 0, 69, 0
2, 833880, Note_on_c, 0, 67, 100
2, 834000, Note_on_c, 0, 73, 0
2, 834000, Note_on_c, 0, 74, 100
2, 834060, Note_on_c, 0, 67, 0
2, 834060, Note_on_c, 0, 66, 100
2, 834120, Note_on_c, 0, 66, 0
2, 834120, Note_on_c, 0, 67, 100
2, 834180, Note_on_c, 0, 67, 0
2, 834180, Note_on_c, 0, 69, 100
2, 834240, Note_on_c, 0, 69, 0
2, 834240, Note_on_c, 0, 70, 100
2, 834300, Note_on_c, 0, 74, 0
2, 834300, Note_on_c, 0, 77, 100
2, 834360, Note_on_c, 0, 77, 0
2, 834360, Note_on_c, 0, 70, 0
2, 834360, Note_on_c, 0, 75, 100
2, 834360, Note_on_c, 0, 71, 100
2, 834420, Note_on_c, 0, 75, 0
2, 834420, Note_on_c, 0, 74, 100
2, 834480, Note_on_c, 0, 74, 0
2, 834480, Note_on_c, 0, 71, 0
2, 834480, Note_on_c, 0, 72, 100
2, 834480, Note_on_c, 0, 72, 100
2, 834540, Note_on_c, 0, 72, 0
2, 834540, Note_on_c, 0, 79, 100
2, 834600, Note_on_c, 0, 79, 0
2, 834600, Note_on_c, 0, 77, 100
2, 834660, Note_on_c, 0, 77, 0
2, 834660, Note_on_c, 0, 75, 100
2, 834720, Note_on_c, 0, 75, 0
2, 834720, Note_on_c, 0, 74, 100
2, 834780, Note_on_c, 0, 74, 0
2, 834780, Note_on_c, 0, 72, 100
2, 834840, Note_on_c, 0, 72, 0
2, 834840, Note_on_c, 0, 74, 100
2, 834900, Note_on_c, 0, 72, 0
2, 834900, Note_on_c, 0, 70, 100
2, 834960, Note_on_c, 0, 70, 0
2, 834960, Note_on_c, 0, 69, 100
2, 835020, Note_on_c, 0, 74, 0
2, 835020, Note_on_c, 0, 71, 100
2, 835080, Note_on_c, 0, 71, 0
2, 835080, Note_on_c, 0, 72, 100
2, 835140, Note_on_c, 0, 69, 0
2, 835140, Note_on_c, 0, 68, 100
2, 835200, Note_on_c, 0, 68, 0
2, 835200, Note_on_c, 0, 67, 100
2, 835320, Note_on_c, 0, 72, 0
2, 835320, Note_on_c, 0, 71, 100
2, 835440, Note_on_c, 0, 71, 0
2, 835440, Note_on_c, 0, 72, 100
2, 835620, Note_on_c, 0, 72, 0
2, 835620, Note_on_c, 0, 70, 100
2, 835650, Note_on_c, 0, 70, 0
2, 835650, Note_on_c, 0, 68, 100
2, 835680, Note_on_c, 0, 68, 0
2, 835680, Note_on_c, 0, 67, 0
2, 835680, Note_on_c, 0, 67, 100
2, 835680, Note_on_c, 0, 70, 100
2, 835740, Note_on_c, 0, 67, 0
2, 835740, Note_on_c, 0, 64, 100
2, 835800, Note_on_c, 0, 64, 0
2, 835800, Note_on_c, 0, 76, 100
2, 835920, Note_on_c, 0, 70, 0
2, 835920, Note_on_c, 0, 69, 100
2, 835980, Note_on_c, 0, 76, 0
2, 835980, Note_on_c, 0, 74, 100
2, 836010, Note_on_c, 0, 74, 0
2, 836010, Note_on_c, 0, 73, 100
2, 836040, Note_on_c, 0, 73, 0
2, 836040, Note_on_c, 0, 74, 100
2, 836100, Note_on_c, 0, 74, 0
2, 836100, Note_on_c, 0, 72, 100
2, 836130, Note_on_c, 0, 72, 0
2, 836130, Note_on_c, 0, 71, 100
2, 836160, Note_on_c, 0, 71, 0
2, 836160, Note_on_c, 0, 69, 0
2, 836160, Note_on_c, 0, 69, 100
2, 836160, Note_on_c, 0, 72, 100
2, 836280, Note_on_c, 0, 69, 0
2, 836400, Note_on_c, 0, 72, 0
2, 836400, Note_on_c, 0, 71, 100
2, 836580, Note_on_c, 0, 71, 0
2, 836580, Note_on_c, 0, 73, 100
2, 836640, Note_on_c, 0, 73, 0
2, 836640, Note_on_c, 0, 74, 100
2, 837060, Note_on_c, 0, 74, 0
2, 837060, Note_on_c, 0, 73, 100
2, 837090, Note_on_c, 0, 73, 0
2, 837090, Note_on_c, 0, 71, 100
2, 837120, Note_on_c, 0, 71, 0
2, 837120, Note_on_c, 0, 73, 100
2, 837240, Note_on_c, 0, 81, 100
2, 837360, Note_on_c, 0, 73, 0
2, 837360, Note_on_c, 0, 74, 100
2, 837420, Note_on_c, 0, 74, 0
2, 837420, Note_on_c, 0, 81, 0
2, 837420, Note_on_c, 0, 79, 100
2, 837420, Note_on_c, 0, 76, 100
2, 837450, Note_on_c, 0, 76, 0
2, 837450, Note_on_c, 0, 79, 0
2, 837450, Note_on_c, 0, 81, 100
2, 837450, Note_on_c, 0, 77, 100
2, 837480, Note_on_c, 0, 77, 0
2, 837480, Note_on_c, 0, 81, 0
2, 837480, Note_on_c, 0, 82, 100
2, 837480, Note_on_c, 0, 79, 100
2, 837660, Note_on_c, 0, 82, 0
2, 837660, Note_on_c, 0, 72, 100
2, 837720, Note_on_c, 0, 72, 0
2, 837720, Note_on_c, 0, 79, 0
2, 837720, Note_on_c, 0, 81, 100
2, 837720, Note_on_c, 0, 73, 100
2, 837780, Note_on_c, 0, 81, 0
2, 837780, Note_on_c, 0, 79, 100
2, 837840, Note_on_c, 0, 79, 0
2, 837840, Note_on_c, 0, 73, 0
2, 837840, Note_on_c, 0, 77, 100
2, 837840, Note_on_c, 0, 74, 100
2, 837900, Note_on_c, 0, 74, 0
2, 837900, Note_on_c, 0, 77, 0
2, 837900, Note_on_c, 0, 76, 100
2, 837900, Note_on_c, 0, 69, 100
2, 837930, Note_on_c, 0, 76, 0
2, 837930, Note_on_c, 0, 74, 100
2, 837960, Note_on_c, 0, 74, 0
2, 837960, Note_on_c, 0, 69, 0
2, 837960, Note_on_c, 0, 73, 100
2, 837960, Note_on_c, 0, 70, 100
2, 838020, Note_on_c, 0, 73, 0
2, 838020, Note_on_c, 0, 74, 100
2, 838080, Note_on_c, 0, 74, 0
2, 838080, Note_on_c, 0, 70, 0
2, 838080, Note_on_c, 0, 76, 100
2, 838080, Note_on_c, 0, 69, 100
2, 838140, Note_on_c, 0, 76, 0
2, 838140, Note_on_c, 0, 74, 100
2, 838170, Note_on_c, 0, 74, 0
2, 838170, Note_on_c, 0, 76, 100
2, 838200, Note_on_c, 0, 76, 0
2, 838200, Note_on_c, 0, 77, 100
2, 838260, Note_on_c, 0, 77, 0
2, 838260, Note_on_c, 0, 76, 100
2, 838320, Note_on_c, 0, 76, 0
2, 838320, Note_on_c, 0, 74, 100
2, 838380, Note_on_c, 0, 69, 0
2, 838380, Note_on_c, 0, 67, 100
2, 838440, Note_on_c, 0, 67, 0
2, 838440, Note_on_c, 0, 65, 100
2, 838500, Note_on_c, 0, 65, 0
2, 838500, Note_on_c, 0, 74, 0
2, 838500, Note_on_c, 0, 73, 100
2, 838500, Note_on_c, 0, 64, 100
2, 838560, Note_on_c, 0, 64, 0
2, 838560, Note_on_c, 0, 73, 0
2, 838560, Note_on_c, 0, 74, 100
2, 838560, Note_on_c, 0, 62, 100
2, 838620, Note_on_c, 0, 74, 0
2, 838620, Note_on_c, 0, 76, 100
2, 838650, Note_on_c, 0, 76, 0
2, 838650, Note_on_c, 0, 77, 100
2, 838680, Note_on_c, 0, 77, 0
2, 838680, Note_on_c, 0, 62, 0
2, 838680, Note_on_c, 0, 76, 100
2, 838740, Note_on_c, 0, 76, 0
2, 838740, Note_on_c, 0, 74, 100
2, 838800, Note_on_c, 0, 74, 0
2, 838800, Note_on_c, 0, 73, 100
2, 838860, Note_on_c, 0, 64, 100
2, 838920, Note_on_c, 0, 64, 0
2, 838920, Note_on_c, 0, 73, 0
2, 838920, Note_on_c, 0, 65, 100
2, 838980, Note_on_c, 0, 65, 0
2, 838980, Note_on_c, 0, 67, 100
2, 839040, Note_on_c, 0, 67, 0
2, 839040, Note_on_c, 0, 65, 100
2, 839100, Note_on_c, 0, 65, 0
2, 839100, Note_on_c, 0, 76, 100
2, 839100, Note_on_c, 0, 64, 100
2, 839160, Note_on_c, 0, 64, 0
2, 839160, Note_on_c, 0, 76, 0
2, 839160, Note_on_c, 0, 77, 100
2, 839160, Note_on_c, 0, 62, 100
2, 839220, Note_on_c, 0, 62, 0
2, 839220, Note_on_c, 0, 77, 0
2, 839220, Note_on_c, 0, 79, 100
2, 839220, Note_on_c, 0, 61, 100
2, 839280, Note_on_c, 0, 61, 0
2, 839280, Note_on_c, 0, 79, 0
2, 839280, Note_on_c, 0, 77, 100
2, 839280, Note_on_c, 0, 62, 100
2, 839340, Note_on_c, 0, 62, 0
2, 839340, Note_on_c, 0, 77, 0
2, 839340, Note_on_c, 0, 76, 100
2, 839340, Note_on_c, 0, 57, 100
2, 839400, Note_on_c, 0, 57, 0
2, 839400, Note_on_c, 0, 76, 0
2, 839400, Note_on_c, 0, 74, 100
2, 839400, Note_on_c, 0, 62, 100
2, 839460, Note_on_c, 0, 62, 0
2, 839460, Note_on_c, 0, 74, 0
2, 839460, Note_on_c, 0, 73, 100
2, 839460, Note_on_c, 0, 64, 100
2, 839520, Note_on_c, 0, 64, 0
2, 839520, Note_on_c, 0, 73, 0
2, 839520, Note_on_c, 0, 74, 100
2, 839520, Note_on_c, 0, 65, 100
2, 839580, Note_on_c, 0, 65, 0
2, 839580, Note_on_c, 0, 64, 100
2, 839640, Note_on_c, 0, 64, 0
2, 839640, Note_on_c, 0, 62, 100
2, 839700, Note_on_c, 0, 62, 0
2, 839700, Note_on_c, 0, 65, 100
2, 839760, Note_on_c, 0, 65, 0
2, 839760, Note_on_c, 0, 64, 100
2, 839820, Note_on_c, 0, 64, 0
2, 839820, Note_on_c, 0, 57, 100
2, 839880, Note_on_c, 0, 57, 0
2, 839880, Note_on_c, 0, 74, 0
2, 839880, Note_on_c, 0, 73, 100
2, 839880, Note_on_c, 0, 64, 100
2, 839940, Note_on_c, 0, 64, 0
2, 839940, Note_on_c, 0, 73, 0
2, 839940, Note_on_c, 0, 74, 100
2, 839940, Note_on_c, 0, 65, 100
2, 840000, Note_on_c, 0, 65, 0
2, 840000, Note_on_c, 0, 74, 0
2, 840000, Note_on_c, 0, 76, 100
2, 840000, Note_on_c, 0, 67, 100
2, 840060, Note_on_c, 0, 67, 0
2, 840060, Note_on_c, 0, 65, 100
2, 840090, Note_on_c, 0, 65, 0
2, 840090, Note_on_c, 0, 64, 100
2, 840120, Note_on_c, 0, 64, 0
2, 840120, Note_on_c, 0, 65, 100
2, 840180, Note_on_c, 0, 65, 0
2, 840180, Note_on_c, 0, 67, 100
2, 840240, Note_on_c, 0, 67, 0
2, 840240, Note_on_c, 0, 69, 100
2, 840300, Note_on_c, 0, 69, 0
2, 840300, Note_on_c, 0, 67, 100
2, 840360, Note_on_c, 0, 67, 0
2, 840360, Note_on_c, 0, 76, 0
2, 840360, Note_on_c, 0, 74, 100
2, 840360, Note_on_c, 0, 65, 100
2, 840420, Note_on_c, 0, 65, 0
2, 840420, Note_on_c, 0, 74, 0
2, 840420, Note_on_c, 0, 76, 100
2, 840420, Note_on_c, 0, 67, 100
2, 840480, Note_on_c, 0, 67, 0
2, 840480, Note_on_c, 0, 76, 0
2, 840480, Note_on_c, 0, 77, 100
2, 840480, Note_on_c, 0, 69, 100
2, 840540, Note_on_c, 0, 77, 0
2, 840540, Note_on_c, 0, 79, 100
2, 840600, Note_on_c, 0, 79, 0
2, 840600, Note_on_c, 0, 81, 100
2, 840660, Note_on_c, 0, 81, 0
2, 840660, Note_on_c, 0, 77, 100
2, 840720, Note_on_c, 0, 77, 0
2, 840720, Note_on_c, 0, 74, 100
2, 840780, Note_on_c, 0, 69, 0
2, 840780, Note_on_c, 0, 67, 100
2, 840810, Note_on_c, 0, 67, 0
2, 840810, Note_on_c, 0, 66, 100
2, 840840, Note_on_c, 0, 66, 0
2, 840840, Note_on_c, 0, 74, 0
2, 840840, Note_on_c, 0, 76, 100
2, 840840, Note_on_c, 0, 67, 100
2, 840900, Note_on_c, 0, 67, 0
2, 840900, Note_on_c, 0, 76, 0
2, 840900, Note_on_c, 0, 78, 100
2, 840900, Note_on_c, 0, 69, 100
2, 840960, Note_on_c, 0, 69, 0
2, 840960, Note_on_c, 0, 78, 0
2, 840960, Note_on_c, 0, 79, 100
2, 840960, Note_on_c, 0, 70, 100
2, 841020, Note_on_c, 0, 79, 0
2, 841020, Note_on_c, 0, 81, 100
2, 841080, Note_on_c, 0, 81, 0
2, 841080, Note_on_c, 0, 82, 100
2, 841140, Note_on_c, 0, 82, 0
2, 841140, Note_on_c, 0, 79, 100
2, 841200, Note_on_c, 0, 79, 0
2, 841200, Note_on_c, 0, 76, 100
2, 841260, Note_on_c, 0, 70, 0
2, 841260, Note_on_c, 0, 69, 100
2, 841320, Note_on_c, 0, 69, 0
2, 841320, Note_on_c, 0, 76, 0
2, 841320, Note_on_c, 0, 67, 100
2, 841380, Note_on_c, 0, 67, 0
2, 841380, Note_on_c, 0, 65, 100
2, 841440, Note_on_c, 0, 65, 0
2, 841440, Note_on_c, 0, 64, 100
2, 841500, Note_on_c, 0, 64, 0
2, 841500, Note_on_c, 0, 62, 100
2, 841560, Note_on_c, 0, 62, 0
2, 841560, Note_on_c, 0, 64, 100
2, 841620, Note_on_c, 0, 64, 0
2, 841620, Note_on_c, 0, 67, 100
2, 841680, Note_on_c, 0, 67, 0
2, 841680, Note_on_c, 0, 65, 100
2, 841800, Note_on_c, 0, 65, 0
2, 841800, Note_on_c, 0, 69, 100
2, 842040, Note_on_c, 0, 69, 0
2, 843360, Note_on_c, 0, 69, 100
2, 843450, Note_on_c, 0, 69, 0
2, 843450, Note_on_c, 0, 62, 100
2, 843480, Note_on_c, 0, 62, 0
2, 843480, Note_on_c, 0, 61, 100
2, 843510, Note_on_c, 0, 61, 0
2, 843510, Note_on_c, 0, 62, 100
2, 843540, Note_on_c, 0, 62, 0
2, 843540, Note_on_c, 0, 64, 100
2, 843570, Note_on_c, 0, 64, 0
2, 843570, Note_on_c, 0, 62, 100
2, 843600, Note_on_c, 0, 62, 0
2, 843600, Note_on_c, 0, 64, 100
2, 843630, Note_on_c, 0, 64, 0
2, 843630, Note_on_c, 0, 65, 100
2, 843660, Note_on_c, 0, 65, 0
2, 843660, Note_on_c, 0, 64, 100
2, 843690, Note_on_c, 0, 64, 0
2, 843690, Note_on_c, 0, 65, 100
2, 843720, Note_on_c, 0, 65, 0
2, 843720, Note_on_c, 0, 67, 100
2, 843750, Note_on_c, 0, 67, 0
2, 843750, Note_on_c, 0, 65, 100
2, 843780, Note_on_c, 0, 65, 0
2, 843780, Note_on_c, 0, 67, 100
2, 843810, Note_on_c, 0, 67, 0
2, 843810, Note_on_c, 0, 69, 100
2, 843840, Note_on_c, 0, 69, 0
2, 843840, Note_on_c, 0, 67, 100
2, 843870, Note_on_c, 0, 67, 0
2, 843870, Note_on_c, 0, 69, 100
2, 843900, Note_on_c, 0, 69, 0
2, 843900, Note_on_c, 0, 70, 100
2, 843960, Note_on_c, 0, 70, 0
2, 843990, Note_on_c, 0, 69, 100
2, 844050, Note_on_c, 0, 69, 0
2, 844080, Note_on_c, 0, 67, 100
2, 844140, Note_on_c, 0, 67, 0
2, 844170, Note_on_c, 0, 67, 100
2, 844200, Note_on_c, 0, 67, 0
2, 844200, Note_on_c, 0, 65, 100
2, 844320, Note_on_c, 0, 65, 0
2, 844320, Note_on_c, 0, 64, 100
2, 844350, Note_on_c, 0, 64, 0
2, 844350, Note_on_c, 0, 65, 100
2, 844410, Note_on_c, 0, 65, 0
2, 844410, Note_on_c, 0, 67, 100
2, 844440, Note_on_c, 0, 67, 0
2, 844440, Note_on_c, 0, 69, 100
2, 844500, Note_on_c, 0, 69, 0
2, 844500, Note_on_c, 0, 79, 100
2, 844530, Note_on_c, 0, 79, 0
2, 844530, Note_on_c, 0, 77, 100
2, 844590, Note_on_c, 0, 77, 0
2, 844590, Note_on_c, 0, 69, 100
2, 844620, Note_on_c, 0, 69, 0
2, 844620, Note_on_c, 0, 67, 100
2, 844680, Note_on_c, 0, 67, 0
2, 844680, Note_on_c, 0, 76, 100
2, 844710, Note_on_c, 0, 76, 0
2, 844710, Note_on_c, 0, 74, 100
2, 844770, Note_on_c, 0, 74, 0
2, 844770, Note_on_c, 0, 65, 100
2, 844800, Note_on_c, 0, 65, 0
2, 844800, Note_on_c, 0, 64, 100
2, 844860, Note_on_c, 0, 64, 0
2, 844860, Note_on_c, 0, 74, 100
2, 844890, Note_on_c, 0, 74, 0
2, 844890, Note_on_c, 0, 73, 100
2, 844950, Note_on_c, 0, 73, 0
2, 844950, Note_on_c, 0, 64, 100
2, 844980, Note_on_c, 0, 64, 0
2, 844980, Note_on_c, 0, 64, 100
2, 845010, Note_on_c, 0, 64, 0
2, 845010, Note_on_c, 0, 62, 100
2, 845040, Note_on_c, 0, 62, 0
2, 845040, Note_on_c, 0, 61, 100
2, 845070, Note_on_c, 0, 61, 0
2, 845070, Note_on_c, 0, 62, 100
2, 845100, Note_on_c, 0, 62, 0
2, 845100, Note_on_c, 0, 64, 100
2, 845130, Note_on_c, 0, 64, 0
2, 845130, Note_on_c, 0, 65, 100
2, 845160, Note_on_c, 0, 65, 0
2, 845160, Note_on_c, 0, 67, 100
2, 845190, Note_on_c, 0, 67, 0
2, 845190, Note_on_c, 0, 69, 100
2, 845220, Note_on_c, 0, 69, 0
2, 845220, Note_on_c, 0, 70, 100
2, 845250, Note_on_c, 0, 70, 0
2, 845250, Note_on_c, 0, 70, 100
2, 845280, Note_on_c, 0, 70, 0
2, 845280, Note_on_c, 0, 69, 100
2, 845310, Note_on_c, 0, 69, 0
2, 845310, Note_on_c, 0, 67, 100
2, 845340, Note_on_c, 0, 67, 0
2, 845340, Note_on_c, 0, 69, 100
2, 845370, Note_on_c, 0, 69, 0
2, 845370, Note_on_c, 0, 71, 100
2, 845400, Note_on_c, 0, 71, 0
2, 845400, Note_on_c, 0, 73, 100
2, 845430, Note_on_c, 0, 73, 0
2, 845430, Note_on_c, 0, 74, 100
2, 845460, Note_on_c, 0, 74, 0
2, 845460, Note_on_c, 0, 76, 100
2, 845490, Note_on_c, 0, 76, 0
2, 845490, Note_on_c, 0, 77, 100
2, 845520, Note_on_c, 0, 77, 0
2, 845520, Note_on_c, 0, 77, 100
2, 845550, Note_on_c, 0, 77, 0
2, 845550, Note_on_c, 0, 74, 100
2, 845580, Note_on_c, 0, 74, 0
2, 845580, Note_on_c, 0, 76, 100
2, 845610, Note_on_c, 0, 76, 0
2, 845610, Note_on_c, 0, 76, 100
2, 845640, Note_on_c, 0, 76, 0
2, 845640, Note_on_c, 0, 73, 100
2, 845670, Note_on_c, 0, 73, 0
2, 845670, Note_on_c, 0, 74, 100
2, 845700, Note_on_c, 0, 74, 0
2, 845700, Note_on_c, 0, 74, 100
2, 845730, Note_on_c, 0, 74, 0
2, 845730, Note_on_c, 0, 71, 100
2, 845760, Note_on_c, 0, 71, 0
2, 845760, Note_on_c, 0, 72, 100
2, 845790, Note_on_c, 0, 72, 0
2, 845790, Note_on_c, 0, 72, 100
2, 845820, Note_on_c, 0, 72, 0
2, 845820, Note_on_c, 0, 69, 100
2, 845850, Note_on_c, 0, 69, 0
2, 845850, Note_on_c, 0, 70, 100
2, 845880, Note_on_c, 0, 70, 0
2, 845880, Note_on_c, 0, 70, 100
2, 845910, Note_on_c, 0, 70, 0
2, 845910, Note_on_c, 0, 67, 100
2, 845940, Note_on_c, 0, 67, 0
2, 845940, Note_on_c, 0, 69, 100
2, 845970, Note_on_c, 0, 69, 0
2, 845970, Note_on_c, 0, 69, 100
2, 846000, Note_on_c, 0, 69, 0
2, 846000, Note_on_c, 0, 65, 100
2, 846030, Note_on_c, 0, 65, 0
2, 846030, Note_on_c, 0, 67, 100
2, 846060, Note_on_c, 0, 67, 0
2, 846060, Note_on_c, 0, 67, 100
2, 846090, Note_on_c, 0, 67, 0
2, 846090, Note_on_c, 0, 65, 100
2, 846180, Note_on_c, 0, 65, 0
2, 846180, Note_on_c, 0, 67, 100
2, 846210, Note_on_c, 0, 67, 0
2, 846210, Note_on_c, 0, 69, 100
2, 846240, Note_on_c, 0, 69, 0
2, 846240, Note_on_c, 0, 70, 100
2, 846270, Note_on_c, 0, 70, 0
2, 846270, Note_on_c, 0, 69, 100
2, 846300, Note_on_c, 0, 69, 0
2, 846300, Note_on_c, 0, 67, 100
2, 846330, Note_on_c, 0, 67, 0
2, 846330, Note_on_c, 0, 74, 100
2, 846360, Note_on_c, 0, 74, 0
2, 846360, Note_on_c, 0, 73, 100
2, 846450, Note_on_c, 0, 73, 0
2, 846450, Note_on_c, 0, 74, 100
2, 846480, Note_on_c, 0, 74, 0
2, 846480, Note_on_c, 0, 76, 100
2, 846510, Note_on_c, 0, 76, 0
2, 846510, Note_on_c, 0, 77, 100
2, 846540, Note_on_c, 0, 77, 0
2, 846540, Note_on_c, 0, 76, 100
2, 846570, Note_on_c, 0, 76, 0
2, 846570, Note_on_c, 0, 74, 100
2, 846600, Note_on_c, 0, 74, 0
2, 846600, Note_on_c, 0, 81, 100
2, 846615, Note_on_c, 0, 81, 0
2, 846615, Note_on_c, 0, 80, 100
2, 846630, Note_on_c, 0, 80, 0
2, 846630, Note_on_c, 0, 78, 100
2, 846645, Note_on_c, 0, 78, 0
2, 846645, Note_on_c, 0, 80, 100
2, 846660, Note_on_c, 0, 80, 0
2, 846660, Note_on_c, 0, 81, 100
2, 846675, Note_on_c, 0, 81, 0
2, 846675, Note_on_c, 0, 80, 100
2, 846690, Note_on_c, 0, 80, 0
2, 846690, Note_on_c, 0, 81, 100
2, 846705, Note_on_c, 0, 81, 0
2, 846705, Note_on_c, 0, 80, 100
2, 846720, Note_on_c, 0, 80, 0
2, 846720, Note_on_c, 0, 81, 100
2, 846735, Note_on_c, 0, 81, 0
2, 846735, Note_on_c, 0, 80, 100
2, 846750, Note_on_c, 0, 80, 0
2, 846750, Note_on_c, 0, 81, 100
2, 846765, Note_on_c, 0, 81, 0
2, 846765, Note_on_c, 0, 80, 100
2, 846780, Note_on_c, 0, 80, 0
2, 846780, Note_on_c, 0, 81, 100
2, 846795, Note_on_c, 0, 81, 0
2, 846795, Note_on_c, 0, 80, 100
2, 846810, Note_on_c, 0, 80, 0
2, 846810, Note_on_c, 0, 81, 100
2, 846825, Note_on_c, 0, 81, 0
2, 846825, Note_on_c, 0, 80, 100
2, 846840, Note_on_c, 0, 80, 0
2, 846840, Note_on_c, 0, 78, 100
2, 846855, Note_on_c, 0, 78, 0
2, 846855, Note_on_c, 0, 80, 100
2, 846870, Note_on_c, 0, 80, 0
2, 846870, Note_on_c, 0, 81, 100
2, 846930, Note_on_c, 0, 81, 0
2, 847020, Note_on_c, 0, 73, 100
2, 847050, Note_on_c, 0, 73, 0
2, 847050, Note_on_c, 0, 74, 100
2, 847110, Note_on_c, 0, 74, 0
2, 847110, Note_on_c, 0, 76, 100
2, 847140, Note_on_c, 0, 76, 0
2, 847140, Note_on_c, 0, 69, 100
2, 847170, Note_on_c, 0, 69, 0
2, 847170, Note_on_c, 0, 71, 100
2, 847200, Note_on_c, 0, 71, 0
2, 847200, Note_on_c, 0, 73, 100
2, 847230, Note_on_c, 0, 73, 0
2, 847230, Note_on_c, 0, 74, 100
2, 847260, Note_on_c, 0, 74, 0
2, 847260, Note_on_c, 0, 76, 100
2, 847290, Note_on_c, 0, 76, 0
2, 847290, Note_on_c, 0, 77, 100
2, 847320, Note_on_c, 0, 77, 0
2, 847320, Note_on_c, 0, 67, 100
2, 847440, Note_on_c, 0, 67, 0
2, 847440, Note_on_c, 0, 79, 100
2, 847470, Note_on_c, 0, 79, 0
2, 847470, Note_on_c, 0, 77, 100
2, 847500, Note_on_c, 0, 77, 0
2, 847500, Note_on_c, 0, 76, 100
2, 847530, Note_on_c, 0, 76, 0
2, 847530, Note_on_c, 0, 74, 100
2, 847560, Note_on_c, 0, 74, 0
2, 847560, Note_on_c, 0, 73, 100
2, 847590, Note_on_c, 0, 73, 0
2, 847590, Note_on_c, 0, 74, 100
2, 847710, Note_on_c, 0, 74, 0
2, 847710, Note_on_c, 0, 71, 100
2, 847740, Note_on_c, 0, 71, 0
2, 847740, Note_on_c, 0, 73, 100
2, 847770, Note_on_c, 0, 73, 0
2, 847770, Note_on_c, 0, 74, 100
2, 847800, Note_on_c, 0, 74, 0
2, 847800, Note_on_c, 0, 76, 100
2, 847830, Note_on_c, 0, 76, 0
2, 847830, Note_on_c, 0, 77, 100
2, 847860, Note_on_c, 0, 77, 0
2, 847860, Note_on_c, 0, 76, 100
2, 847890, Note_on_c, 0, 76, 0
2, 847890, Note_on_c, 0, 77, 100
2, 847920, Note_on_c, 0, 77, 0
2, 847920, Note_on_c, 0, 74, 100
2, 847950, Note_on_c, 0, 74, 0
2, 847950, Note_on_c, 0, 73, 100
2, 847980, Note_on_c, 0, 73, 0
2, 847980, Note_on_c, 0, 74, 100
2, 848010, Note_on_c, 0, 74, 0
2, 848010, Note_on_c, 0, 76, 100
2, 848040, Note_on_c, 0, 76, 0
2, 848040, Note_on_c, 0, 69, 100
2, 848160, Note_on_c, 0, 69, 0
2, 848160, Note_on_c, 0, 70, 100
2, 848190, Note_on_c, 0, 70, 0
2, 848190, Note_on_c, 0, 67, 100
2, 848220, Note_on_c, 0, 67, 0
2, 848220, Note_on_c, 0, 65, 100
2, 848250, Note_on_c, 0, 65, 0
2, 848250, Note_on_c, 0, 67, 100
2, 848280, Note_on_c, 0, 67, 0
2, 848280, Note_on_c, 0, 64, 100
2, 848310, Note_on_c, 0, 64, 0
2, 848310, Note_on_c, 0, 65, 100
2, 848340, Note_on_c, 0, 65, 0
2, 848340, Note_on_c, 0, 69, 100
2, 848370, Note_on_c, 0, 69, 0
2, 848370, Note_on_c, 0, 74, 100
2, 848400, Note_on_c, 0, 74, 0
2, 848400, Note_on_c, 0, 72, 100
2, 848430, Note_on_c, 0, 72, 0
2, 848430, Note_on_c, 0, 70, 100
2, 848460, Note_on_c, 0, 70, 0
2, 848460, Note_on_c, 0, 69, 100
2, 848490, Note_on_c, 0, 69, 0
2, 848490, Note_on_c, 0, 70, 100
2, 848520, Note_on_c, 0, 70, 0
2, 848520, Note_on_c, 0, 74, 100
2, 848550, Note_on_c, 0, 74, 0
2, 848550, Note_on_c, 0, 79, 100
2, 848580, Note_on_c, 0, 79, 0
2, 848580, Note_on_c, 0, 73, 100
2, 848610, Note_on_c, 0, 73, 0
2, 848610, Note_on_c, 0, 76, 100
2, 848640, Note_on_c, 0, 76, 0
2, 848640, Note_on_c, 0, 69, 100
2, 848670, Note_on_c, 0, 69, 0
2, 848670, Note_on_c, 0, 70, 100
2, 848700, Note_on_c, 0, 70, 0
2, 848700, Note_on_c, 0, 69, 100
2, 848730, Note_on_c, 0, 69, 0
2, 848730, Note_on_c, 0, 67, 100
2, 848760, Note_on_c, 0, 67, 0
2, 848760, Note_on_c, 0, 65, 100
2, 848790, Note_on_c, 0, 65, 0
2, 848790, Note_on_c, 0, 67, 100
2, 848820, Note_on_c, 0, 67, 0
2, 848820, Note_on_c, 0, 64, 100
2, 848850, Note_on_c, 0, 64, 0
2, 848850, Note_on_c, 0, 65, 100
2, 848910, Note_on_c, 0, 65, 0
2, 848910, Note_on_c, 0, 74, 100
2, 848940, Note_on_c, 0, 74, 0
2, 848940, Note_on_c, 0, 67, 100
2, 849000, Note_on_c, 0, 67, 0
2, 849000, Note_on_c, 0, 65, 100
2, 849030, Note_on_c, 0, 65, 0
2, 849030, Note_on_c, 0, 64, 100
2, 849060, Note_on_c, 0, 64, 0
2, 849060, Note_on_c, 0, 69, 100
2, 849090, Note_on_c, 0, 69, 0
2, 849090, Note_on_c, 0, 67, 100
2, 849120, Note_on_c, 0, 67, 0
2, 849120, Note_on_c, 0, 65, 100
2, 849150, Note_on_c, 0, 65, 0
2, 849150, Note_on_c, 0, 64, 100
2, 849180, Note_on_c, 0, 64, 0
2, 849180, Note_on_c, 0, 62, 100
2, 849210, Note_on_c, 0, 62, 0
2, 849210, Note_on_c, 0, 62, 100
2, 849225, Note_on_c, 0, 62, 0
2, 849225, Note_on_c, 0, 61, 100
2, 849240, Note_on_c, 0, 61, 0
2, 849240, Note_on_c, 0, 62, 100
2, 849255, Note_on_c, 0, 62, 0
2, 849255, Note_on_c, 0, 61, 100
2, 849270, Note_on_c, 0, 61, 0
2, 849270, Note_on_c, 0, 62, 100
2, 849285, Note_on_c, 0, 62, 0
2, 849285, Note_on_c, 0, 61, 100
2, 849300, Note_on_c, 0, 61, 0
2, 849300, Note_on_c, 0, 62, 100
2, 849360, Note_on_c, 0, 62, 0
2, 849840, Note_on_c, 0, 74, 100
2, 849930, Note_on_c, 0, 74, 0
2, 849930, Note_on_c, 0, 69, 100
2, 849960, Note_on_c, 0, 69, 0
2, 849960, Note_on_c, 0, 68, 100
2, 849990, Note_on_c, 0, 68, 0
2, 849990, Note_on_c, 0, 69, 100
2, 850020, Note_on_c, 0, 69, 0
2, 850020, Note_on_c, 0, 71, 100
2, 850050, Note_on_c, 0, 71, 0
2, 850050, Note_on_c, 0, 69, 100
2, 850080, Note_on_c, 0, 69, 0
2, 850080, Note_on_c, 0, 71, 100
2, 850110, Note_on_c, 0, 71, 0
2, 850110, Note_on_c, 0, 72, 100
2, 850140, Note_on_c, 0, 72, 0
2, 850140, Note_on_c, 0, 71, 100
2, 850170, Note_on_c, 0, 71, 0
2, 850170, Note_on_c, 0, 73, 100
2, 850200, Note_on_c, 0, 73, 0
2, 850200, Note_on_c, 0, 74, 100
2, 850230, Note_on_c, 0, 74, 0
2, 850230, Note_on_c, 0, 73, 100
2, 850260, Note_on_c, 0, 73, 0
2, 850260, Note_on_c, 0, 74, 100
2, 850290, Note_on_c, 0, 74, 0
2, 850290, Note_on_c, 0, 76, 100
2, 850320, Note_on_c, 0, 76, 0
2, 850320, Note_on_c, 0, 74, 100
2, 850350, Note_on_c, 0, 74, 0
2, 850350, Note_on_c, 0, 76, 100
2, 850380, Note_on_c, 0, 76, 0
2, 850380, Note_on_c, 0, 77, 100
2, 850440, Note_on_c, 0, 77, 0
2, 850470, Note_on_c, 0, 76, 100
2, 850530, Note_on_c, 0, 76, 0
2, 850560, Note_on_c, 0, 74, 100
2, 850620, Note_on_c, 0, 74, 0
2, 850650, Note_on_c, 0, 74, 100
2, 850680, Note_on_c, 0, 74, 0
2, 850680, Note_on_c, 0, 73, 100
2, 850800, Note_on_c, 0, 73, 0
2, 850800, Note_on_c, 0, 69, 100
2, 850830, Note_on_c, 0, 69, 0
2, 850830, Note_on_c, 0, 71, 100
2, 850890, Note_on_c, 0, 71, 0
2, 850890, Note_on_c, 0, 73, 100
2, 850920, Note_on_c, 0, 73, 0
2, 850920, Note_on_c, 0, 74, 100
2, 850950, Note_on_c, 0, 74, 0
2, 850950, Note_on_c, 0, 72, 100
2, 850980, Note_on_c, 0, 72, 0
2, 850980, Note_on_c, 0, 71, 100
2, 851010, Note_on_c, 0, 71, 0
2, 851010, Note_on_c, 0, 72, 100
2, 851070, Note_on_c, 0, 72, 0
2, 851070, Note_on_c, 0, 81, 100
2, 851100, Note_on_c, 0, 81, 0
2, 851100, Note_on_c, 0, 80, 100
2, 851160, Note_on_c, 0, 80, 0
2, 851160, Note_on_c, 0, 74, 100
2, 851190, Note_on_c, 0, 74, 0
2, 851190, Note_on_c, 0, 76, 100
2, 851250, Note_on_c, 0, 76, 0
2, 851250, Note_on_c, 0, 79, 100
2, 851280, Note_on_c, 0, 79, 0
2, 851280, Note_on_c, 0, 77, 100
2, 851310, Note_on_c, 0, 77, 0
2, 851310, Note_on_c, 0, 76, 100
2, 851340, Note_on_c, 0, 76, 0
2, 851340, Note_on_c, 0, 74, 100
2, 851370, Note_on_c, 0, 74, 0
2, 851370, Note_on_c, 0, 73, 100
2, 851430, Note_on_c, 0, 73, 0
2, 851430, Note_on_c, 0, 82, 100
2, 851460, Note_on_c, 0, 82, 0
2, 851460, Note_on_c, 0, 81, 100
2, 851490, Note_on_c, 0, 81, 0
2, 851490, Note_on_c, 0, 77, 100
2, 851520, Note_on_c, 0, 77, 0
2, 851520, Note_on_c, 0, 74, 100
2, 851550, Note_on_c, 0, 74, 0
2, 851550, Note_on_c, 0, 74, 100
2, 851580, Note_on_c, 0, 74, 0
2, 851580, Note_on_c, 0, 79, 100
2, 851610, Note_on_c, 0, 79, 0
2, 851610, Note_on_c, 0, 72, 100
2, 851640, Note_on_c, 0, 72, 0
2, 851640, Note_on_c, 0, 72, 100
2, 851670, Note_on_c, 0, 72, 0
2, 851670, Note_on_c, 0, 77, 100
2, 851700, Note_on_c, 0, 77, 0
2, 851700, Note_on_c, 0, 70, 100
2, 851730, Note_on_c, 0, 70, 0
2, 851730, Note_on_c, 0, 70, 100
2, 851760, Note_on_c, 0, 70, 0
2, 851760, Note_on_c, 0, 69, 100
2, 851790, Note_on_c, 0, 69, 0
2, 851790, Note_on_c, 0, 67, 100
2, 851820, Note_on_c, 0, 67, 0
2, 851820, Note_on_c, 0, 69, 100
2, 851850, Note_on_c, 0, 69, 0
2, 851850, Note_on_c, 0, 73, 100
2, 851880, Note_on_c, 0, 73, 0
2, 851880, Note_on_c, 0, 76, 100
2, 851910, Note_on_c, 0, 76, 0
2, 851910, Note_on_c, 0, 79, 100
2, 851940, Note_on_c, 0, 79, 0
2, 851940, Note_on_c, 0, 77, 100
2, 851970, Note_on_c, 0, 77, 0
2, 851970, Note_on_c, 0, 76, 100
2, 852000, Note_on_c, 0, 76, 0
2, 852000, Note_on_c, 0, 77, 100
2, 852030, Note_on_c, 0, 77, 0
2, 852030, Note_on_c, 0, 76, 100
2, 852060, Note_on_c, 0, 76, 0
2, 852060, Note_on_c, 0, 74, 100
2, 852090, Note_on_c, 0, 74, 0
2, 852090, Note_on_c, 0, 76, 100
2, 852120, Note_on_c, 0, 76, 0
2, 852120, Note_on_c, 0, 74, 100
2, 852150, Note_on_c, 0, 74, 0
2, 852150, Note_on_c, 0, 72, 100
2, 852180, Note_on_c, 0, 72, 0
2, 852180, Note_on_c, 0, 74, 100
2, 852210, Note_on_c, 0, 74, 0
2, 852210, Note_on_c, 0, 72, 100
2, 852240, Note_on_c, 0, 72, 0
2, 852240, Note_on_c, 0, 71, 100
2, 852270, Note_on_c, 0, 71, 0
2, 852270, Note_on_c, 0, 72, 100
2, 852300, Note_on_c, 0, 72, 0
2, 852300, Note_on_c, 0, 74, 100
2, 852330, Note_on_c, 0, 74, 0
2, 852330, Note_on_c, 0, 76, 100
2, 852360, Note_on_c, 0, 76, 0
2, 852360, Note_on_c, 0, 74, 100
2, 852390, Note_on_c, 0, 74, 0
2, 852390, Note_on_c, 0, 76, 100
2, 852420, Note_on_c, 0, 76, 0
2, 852420, Note_on_c, 0, 77, 100
2, 852450, Note_on_c, 0, 77, 0
2, 852450, Note_on_c, 0, 76, 100
2, 852480, Note_on_c, 0, 76, 0
2, 852480, Note_on_c, 0, 77, 100
2, 852510, Note_on_c, 0, 77, 0
2, 852510, Note_on_c, 0, 79, 100
2, 852540, Note_on_c, 0, 79, 0
2, 852540, Note_on_c, 0, 77, 100
2, 852570, Note_on_c, 0, 77, 0
2, 852570, Note_on_c, 0, 74, 100
2, 852600, Note_on_c, 0, 74, 0
2, 852600, Note_on_c, 0, 81, 100
2, 852630, Note_on_c, 0, 81, 0
2, 852630, Note_on_c, 0, 70, 100
2, 852660, Note_on_c, 0, 70, 0
2, 852660, Note_on_c, 0, 76, 100
2, 852690, Note_on_c, 0, 76, 0
2, 852690, Note_on_c, 0, 79, 100
2, 852720, Note_on_c, 0, 79, 0
2, 852720, Note_on_c, 0, 69, 100
2, 852750, Note_on_c, 0, 69, 0
2, 852750, Note_on_c, 0, 74, 100
2, 852780, Note_on_c, 0, 74, 0
2, 852780, Note_on_c, 0, 77, 100
2, 852810, Note_on_c, 0, 77, 0
2, 852810, Note_on_c, 0, 67, 100
2, 852840, Note_on_c, 0, 67, 0
2, 852840, Note_on_c, 0, 73, 100
2, 852870, Note_on_c, 0, 73, 0
2, 852870, Note_on_c, 0, 76, 100
2, 852900, Note_on_c, 0, 76, 0
2, 852900, Note_on_c, 0, 65, 100
2, 852930, Note_on_c, 0, 65, 0
2, 852930, Note_on_c, 0, 69, 100
2, 852960, Note_on_c, 0, 69, 0
2, 852960, Note_on_c, 0, 67, 100
2, 852990, Note_on_c, 0, 67, 0
2, 852990, Note_on_c, 0, 70, 100
2, 853020, Note_on_c, 0, 70, 0
2, 853020, Note_on_c, 0, 69, 100
2, 853050, Note_on_c, 0, 69, 0
2, 853050, Note_on_c, 0, 73, 100
2, 853080, Note_on_c, 0, 73, 0
2, 853080, Note_on_c, 0, 74, 100
2, 853110, Note_on_c, 0, 74, 0
2, 853110, Note_on_c, 0, 76, 100
2, 853140, Note_on_c, 0, 76, 0
2, 853140, Note_on_c, 0, 77, 100
2, 853170, Note_on_c, 0, 77, 0
2, 853170, Note_on_c, 0, 69, 100
2, 853230, Note_on_c, 0, 69, 0
2, 853230, Note_on_c, 0, 68, 100
2, 853245, Note_on_c, 0, 68, 0
2, 853245, Note_on_c, 0, 69, 100
2, 853260, Note_on_c, 0, 69, 0
2, 853260, Note_on_c, 0, 68, 100
2, 853275, Note_on_c, 0, 68, 0
2, 853275, Note_on_c, 0, 69, 100
2, 853290, Note_on_c, 0, 69, 0
2, 853290, Note_on_c, 0, 68, 100
2, 853305, Note_on_c, 0, 68, 0
2, 853305, Note_on_c, 0, 69, 100
2, 853320, Note_on_c, 0, 69, 0
2, 853320, Note_on_c, 0, 68, 100
2, 853350, Note_on_c, 0, 68, 0
2, 853350, Note_on_c, 0, 69, 100
2, 853410, Note_on_c, 0, 69, 0
2, 853500, Note_on_c, 0, 71, 100
2, 853530, Note_on_c, 0, 71, 0
2, 853530, Note_on_c, 0, 72, 100
2, 853590, Note_on_c, 0, 72, 0
2, 853590, Note_on_c, 0, 69, 100
2, 853620, Note_on_c, 0, 69, 0
2, 853620, Note_on_c, 0, 74, 100
2, 853680, Note_on_c, 0, 74, 0
2, 853680, Note_on_c, 0, 77, 100
2, 853710, Note_on_c, 0, 77, 0
2, 853710, Note_on_c, 0, 77, 100
2, 853740, Note_on_c, 0, 77, 0
2, 853740, Note_on_c, 0, 76, 100
2, 853770, Note_on_c, 0, 76, 0
2, 853770, Note_on_c, 0, 74, 100
2, 853800, Note_on_c, 0, 74, 0
2, 853800, Note_on_c, 0, 72, 100
2, 853830, Note_on_c, 0, 72, 0
2, 853830, Note_on_c, 0, 74, 100
2, 853860, Note_on_c, 0, 74, 0
2, 853860, Note_on_c, 0, 71, 100
2, 853890, Note_on_c, 0, 71, 0
2, 853890, Note_on_c, 0, 76, 100
2, 853980, Note_on_c, 0, 76, 0
2, 853980, Note_on_c, 0, 69, 100
2, 854070, Note_on_c, 0, 69, 0
2, 854160, Note_on_c, 0, 69, 100
2, 854250, Note_on_c, 0, 69, 0
2, 854250, Note_on_c, 0, 76, 100
2, 854280, Note_on_c, 0, 76, 0
2, 854280, Note_on_c, 0, 77, 100
2, 854310, Note_on_c, 0, 77, 0
2, 854310, Note_on_c, 0, 76, 100
2, 854340, Note_on_c, 0, 76, 0
2, 854340, Note_on_c, 0, 74, 100
2, 854370, Note_on_c, 0, 74, 0
2, 854370, Note_on_c, 0, 76, 100
2, 854400, Note_on_c, 0, 76, 0
2, 854400, Note_on_c, 0, 74, 100
2, 854430, Note_on_c, 0, 74, 0
2, 854430, Note_on_c, 0, 72, 100
2, 854460, Note_on_c, 0, 72, 0
2, 854460, Note_on_c, 0, 74, 100
2, 854490, Note_on_c, 0, 74, 0
2, 854490, Note_on_c, 0, 72, 100
2, 854520, Note_on_c, 0, 72, 0
2, 854520, Note_on_c, 0, 71, 100
2, 854550, Note_on_c, 0, 71, 0
2, 854550, Note_on_c, 0, 72, 100
2, 854580, Note_on_c, 0, 72, 0
2, 854580, Note_on_c, 0, 71, 100
2, 854610, Note_on_c, 0, 71, 0
2, 854610, Note_on_c, 0, 69, 100
2, 854640, Note_on_c, 0, 69, 0
2, 854640, Note_on_c, 0, 71, 100
2, 854670, Note_on_c, 0, 71, 0
2, 854670, Note_on_c, 0, 69, 100
2, 854700, Note_on_c, 0, 69, 0
2, 854700, Note_on_c, 0, 68, 100
2, 854760, Note_on_c, 0, 68, 0
2, 854790, Note_on_c, 0, 69, 100
2, 854850, Note_on_c, 0, 69, 0
2, 854880, Note_on_c, 0, 71, 100
2, 854940, Note_on_c, 0, 71, 0
2, 854970, Note_on_c, 0, 71, 100
2, 855000, Note_on_c, 0, 71, 0
2, 855000, Note_on_c, 0, 72, 100
2, 855120, Note_on_c, 0, 72, 0
2, 855120, Note_on_c, 0, 74, 100
2, 855150, Note_on_c, 0, 74, 0
2, 855150, Note_on_c, 0, 72, 100
2, 855210, Note_on_c, 0, 72, 0
2, 855210, Note_on_c, 0, 71, 100
2, 855240, Note_on_c, 0, 71, 0
2, 855240, Note_on_c, 0, 69, 100
2, 855270, Note_on_c, 0, 69, 0
2, 855270, Note_on_c, 0, 64, 100
2, 855300, Note_on_c, 0, 64, 0
2, 855300, Note_on_c, 0, 69, 100
2, 855330, Note_on_c, 0, 69, 0
2, 855330, Note_on_c, 0, 72, 100
2, 855360, Note_on_c, 0, 72, 0
2, 855360, Note_on_c, 0, 69, 100
2, 855390, Note_on_c, 0, 69, 0
2, 855390, Note_on_c, 0, 72, 100
2, 855420, Note_on_c, 0, 72, 0
2, 855420, Note_on_c, 0, 76, 100
2, 855480, Note_on_c, 0, 76, 0
2, 855480, Note_on_c, 0, 68, 100
2, 855510, Note_on_c, 0, 68, 0
2, 855510, Note_on_c, 0, 69, 100
2, 855570, Note_on_c, 0, 69, 0
2, 855570, Note_on_c, 0, 77, 100
2, 855600, Note_on_c, 0, 77, 0
2, 855600, Note_on_c, 0, 67, 100
2, 855660, Note_on_c, 0, 67, 0
2, 855660, Note_on_c, 0, 76, 100
2, 855690, Note_on_c, 0, 76, 0
2, 855690, Note_on_c, 0, 65, 100
2, 855750, Note_on_c, 0, 65, 0
2, 855750, Note_on_c, 0, 74, 100
2, 855780, Note_on_c, 0, 74, 0
2, 855780, Note_on_c, 0, 64, 100
2, 855810, Note_on_c, 0, 64, 0
2, 855810, Note_on_c, 0, 71, 100
2, 855840, Note_on_c, 0, 71, 0
2, 855840, Note_on_c, 0, 74, 100
2, 855870, Note_on_c, 0, 74, 0
2, 855870, Note_on_c, 0, 72, 100
2, 855900, Note_on_c, 0, 72, 0
2, 855900, Note_on_c, 0, 71, 100
2, 855930, Note_on_c, 0, 71, 0
2, 855930, Note_on_c, 0, 69, 100
2, 855960, Note_on_c, 0, 69, 0
2, 855960, Note_on_c, 0, 68, 100
2, 855990, Note_on_c, 0, 68, 0
2, 855990, Note_on_c, 0, 74, 100
2, 856020, Note_on_c, 0, 74, 0
2, 856020, Note_on_c, 0, 77, 100
2, 856050, Note_on_c, 0, 77, 0
2, 856050, Note_on_c, 0, 76, 100
2, 856080, Note_on_c, 0, 76, 0
2, 856080, Note_on_c, 0, 74, 100
2, 856110, Note_on_c, 0, 74, 0
2, 856110, Note_on_c, 0, 72, 100
2, 856140, Note_on_c, 0, 72, 0
2, 856140, Note_on_c, 0, 71, 100
2, 856170, Note_on_c, 0, 71, 0
2, 856170, Note_on_c, 0, 69, 100
2, 856200, Note_on_c, 0, 69, 0
2, 856200, Note_on_c, 0, 68, 100
2, 856230, Note_on_c, 0, 68, 0
2, 856230, Note_on_c, 0, 69, 100
2, 856260, Note_on_c, 0, 69, 0
2, 856260, Note_on_c, 0, 64, 100
2, 856290, Note_on_c, 0, 64, 0
2, 856290, Note_on_c, 0, 71, 100
2, 856320, Note_on_c, 0, 71, 0
2, 856320, Note_on_c, 0, 72, 100
2, 856350, Note_on_c, 0, 72, 0
2, 856350, Note_on_c, 0, 71, 100
2, 856380, Note_on_c, 0, 71, 0
2, 856380, Note_on_c, 0, 69, 100
2, 856410, Note_on_c, 0, 69, 0
2, 856410, Note_on_c, 0, 76, 100
2, 856530, Note_on_c, 0, 76, 0
2, 856530, Note_on_c, 0, 71, 100
2, 856560, Note_on_c, 0, 71, 0
2, 856560, Note_on_c, 0, 74, 100
2, 856590, Note_on_c, 0, 74, 0
2, 856590, Note_on_c, 0, 74, 100
2, 856620, Note_on_c, 0, 74, 0
2, 856620, Note_on_c, 0, 72, 100
2, 856650, Note_on_c, 0, 72, 0
2, 856650, Note_on_c, 0, 81, 100
2, 856673, Note_on_c, 0, 81, 0
2, 856680, Note_on_c, 0, 72, 100
2, 856710, Note_on_c, 0, 72, 0
2, 856710, Note_on_c, 0, 71, 100
2, 856740, Note_on_c, 0, 71, 0
2, 856740, Note_on_c, 0, 79, 100
2, 856763, Note_on_c, 0, 79, 0
2, 856770, Note_on_c, 0, 71, 100
2, 856800, Note_on_c, 0, 71, 0
2, 856800, Note_on_c, 0, 69, 100
2, 856830, Note_on_c, 0, 69, 0
2, 856830, Note_on_c, 0, 77, 100
2, 856853, Note_on_c, 0, 77, 0
2, 856860, Note_on_c, 0, 69, 100
2, 856890, Note_on_c, 0, 69, 0
2, 856890, Note_on_c, 0, 68, 100
2, 856920, Note_on_c, 0, 68, 0
2, 856920, Note_on_c, 0, 71, 100
2, 856943, Note_on_c, 0, 71, 0
2, 856950, Note_on_c, 0, 64, 100
2, 857010, Note_on_c, 0, 64, 0
2, 857220, Note_on_c, 0, 74, 100
2, 857340, Note_on_c, 0, 74, 0
2, 857340, Note_on_c, 0, 72, 100
2, 857370, Note_on_c, 0, 72, 0
2, 857370, Note_on_c, 0, 74, 100
2, 857400, Note_on_c, 0, 74, 0
2, 857400, Note_on_c, 0, 76, 100
2, 857430, Note_on_c, 0, 76, 0
2, 857430, Note_on_c, 0, 74, 100
2, 857460, Note_on_c, 0, 74, 0
2, 857460, Note_on_c, 0, 72, 100
2, 857490, Note_on_c, 0, 72, 0
2, 857490, Note_on_c, 0, 71, 100
2, 857520, Note_on_c, 0, 71, 0
2, 857520, Note_on_c, 0, 72, 100
2, 857550, Note_on_c, 0, 72, 0
2, 857550, Note_on_c, 0, 74, 100
2, 857580, Note_on_c, 0, 74, 0
2, 857580, Note_on_c, 0, 76, 100
2, 857610, Note_on_c, 0, 76, 0
2, 857610, Note_on_c, 0, 78, 100
2, 857640, Note_on_c, 0, 78, 0
2, 857640, Note_on_c, 0, 80, 100
2, 857670, Note_on_c, 0, 80, 0
2, 857670, Note_on_c, 0, 81, 100
2, 857700, Note_on_c, 0, 81, 0
2, 857700, Note_on_c, 0, 76, 100
2, 857730, Note_on_c, 0, 76, 0
2, 857730, Note_on_c, 0, 72, 100
2, 857760, Note_on_c, 0, 72, 0
2, 857760, Note_on_c, 0, 74, 100
2, 857790, Note_on_c, 0, 74, 0
2, 857790, Note_on_c, 0, 79, 100
2, 857820, Note_on_c, 0, 79, 0
2, 857820, Note_on_c, 0, 71, 100
2, 857850, Note_on_c, 0, 71, 0
2, 857850, Note_on_c, 0, 72, 100
2, 857880, Note_on_c, 0, 72, 0
2, 857880, Note_on_c, 0, 77, 100
2, 857910, Note_on_c, 0, 77, 0
2, 857910, Note_on_c, 0, 69, 100
2, 857940, Note_on_c, 0, 69, 0
2, 857940, Note_on_c, 0, 71, 100
2, 857970, Note_on_c, 0, 71, 0
2, 857970, Note_on_c, 0, 76, 100
2, 858000, Note_on_c, 0, 76, 0
2, 858000, Note_on_c, 0, 74, 100
2, 858030, Note_on_c, 0, 74, 0
2, 858030, Note_on_c, 0, 72, 100
2, 858060, Note_on_c, 0, 72, 0
2, 858060, Note_on_c, 0, 71, 100
2, 858090, Note_on_c, 0, 71, 0
2, 858090, Note_on_c, 0, 69, 100
2, 858120, Note_on_c, 0, 69, 0
2, 858120, Note_on_c, 0, 71, 100
2, 858150, Note_on_c, 0, 71, 0
2, 858150, Note_on_c, 0, 69, 100
2, 858180, Note_on_c, 0, 69, 0
2, 858180, Note_on_c, 0, 68, 100
2, 858210, Note_on_c, 0, 68, 0
2, 858210, Note_on_c, 0, 69, 100
2, 858240, Note_on_c, 0, 69, 0
2, 858240, Note_on_c, 0, 68, 100
2, 858270, Note_on_c, 0, 68, 0
2, 858270, Note_on_c, 0, 66, 100
2, 858300, Note_on_c, 0, 66, 0
2, 858300, Note_on_c, 0, 68, 100
2, 858330, Note_on_c, 0, 68, 0
2, 858330, Note_on_c, 0, 64, 100
2, 858360, Note_on_c, 0, 64, 0
2, 858360, Note_on_c, 0, 68, 100
2, 858390, Note_on_c, 0, 68, 0
2, 858390, Note_on_c, 0, 71, 100
2, 858420, Note_on_c, 0, 71, 0
2, 858420, Note_on_c, 0, 76, 100
2, 858450, Note_on_c, 0, 76, 0
2, 858450, Note_on_c, 0, 74, 100
2, 858480, Note_on_c, 0, 74, 0
2, 858480, Note_on_c, 0, 72, 100
2, 858510, Note_on_c, 0, 72, 0
2, 858510, Note_on_c, 0, 71, 100
2, 858540, Note_on_c, 0, 71, 0
2, 858540, Note_on_c, 0, 69, 100
2, 858570, Note_on_c, 0, 69, 0
2, 858570, Note_on_c, 0, 74, 100
2, 858690, Note_on_c, 0, 74, 0
2, 858690, Note_on_c, 0, 72, 100
2, 858720, Note_on_c, 0, 72, 0
2, 858720, Note_on_c, 0, 71, 100
2, 858750, Note_on_c, 0, 71, 0
2, 858750, Note_on_c, 0, 72, 100
2, 858810, Note_on_c, 0, 72, 0
2, 858840, Note_on_c, 0, 77, 100
2, 858900, Note_on_c, 0, 77, 0
2, 858930, Note_on_c, 0, 76, 100
2, 858990, Note_on_c, 0, 76, 0
2, 859020, Note_on_c, 0, 74, 100
2, 859080, Note_on_c, 0, 74, 0
2, 859080, Note_on_c, 0, 68, 100
2, 859110, Note_on_c, 0, 68, 0
2, 859110, Note_on_c, 0, 69, 100
2, 859170, Note_on_c, 0, 69, 0
2, 859170, Note_on_c, 0, 72, 100
2, 859200, Note_on_c, 0, 72, 0
2, 859200, Note_on_c, 0, 67, 100
2, 859215, Note_on_c, 0, 67, 0
2, 859215, Note_on_c, 0, 65, 100
2, 859230, Note_on_c, 0, 65, 0
2, 859230, Note_on_c, 0, 67, 100
2, 859245, Note_on_c, 0, 67, 0
2, 859245, Note_on_c, 0, 65, 100
2, 859260, Note_on_c, 0, 65, 0
2, 859260, Note_on_c, 0, 64, 100
2, 859275, Note_on_c, 0, 64, 0
2, 859275, Note_on_c, 0, 65, 100
2, 859290, Note_on_c, 0, 65, 0
2, 859290, Note_on_c, 0, 64, 100
2, 859350, Note_on_c, 0, 64, 0
2, 859590, Note_on_c, 0, 62, 100
2, 859620, Note_on_c, 0, 62, 0
2, 859620, Note_on_c, 0, 64, 100
2, 859650, Note_on_c, 0, 64, 0
2, 859650, Note_on_c, 0, 65, 100
2, 859680, Note_on_c, 0, 65, 0
2, 859680, Note_on_c, 0, 67, 100
2, 859710, Note_on_c, 0, 67, 0
2, 859710, Note_on_c, 0, 65, 100
2, 859740, Note_on_c, 0, 65, 0
2, 859740, Note_on_c, 0, 64, 100
2, 859860, Note_on_c, 0, 64, 0
2, 859860, Note_on_c, 0, 65, 100
2, 859890, Note_on_c, 0, 65, 0
2, 859890, Note_on_c, 0, 67, 100
2, 859920, Note_on_c, 0, 67, 0
2, 859920, Note_on_c, 0, 69, 100
2, 859950, Note_on_c, 0, 69, 0
2, 859950, Note_on_c, 0, 70, 100
2, 859980, Note_on_c, 0, 70, 0
2, 859980, Note_on_c, 0, 69, 100
2, 860010, Note_on_c, 0, 69, 0
2, 860010, Note_on_c, 0, 67, 100
2, 860040, Note_on_c, 0, 67, 0
2, 860040, Note_on_c, 0, 69, 100
2, 860070, Note_on_c, 0, 69, 0
2, 860070, Note_on_c, 0, 67, 100
2, 860100, Note_on_c, 0, 67, 0
2, 860100, Note_on_c, 0, 65, 100
2, 860130, Note_on_c, 0, 65, 0
2, 860130, Note_on_c, 0, 67, 100
2, 860160, Note_on_c, 0, 67, 0
2, 860160, Note_on_c, 0, 65, 100
2, 860190, Note_on_c, 0, 65, 0
2, 860190, Note_on_c, 0, 64, 100
2, 860220, Note_on_c, 0, 64, 0
2, 860220, Note_on_c, 0, 65, 100
2, 860250, Note_on_c, 0, 65, 0
2, 860250, Note_on_c, 0, 64, 100
2, 860280, Note_on_c, 0, 64, 0
2, 860280, Note_on_c, 0, 62, 100
2, 860310, Note_on_c, 0, 62, 0
2, 860310, Note_on_c, 0, 64, 100
2, 860340, Note_on_c, 0, 64, 0
2, 860340, Note_on_c, 0, 62, 100
2, 860370, Note_on_c, 0, 62, 0
2, 860370, Note_on_c, 0, 61, 100
2, 860430, Note_on_c, 0, 61, 0
2, 860460, Note_on_c, 0, 62, 100
2, 860520, Note_on_c, 0, 62, 0
2, 860550, Note_on_c, 0, 64, 100
2, 860610, Note_on_c, 0, 64, 0
2, 860640, Note_on_c, 0, 65, 100
2, 860790, Note_on_c, 0, 65, 0
2, 860790, Note_on_c, 0, 69, 100
2, 860820, Note_on_c, 0, 69, 0
2, 860820, Note_on_c, 0, 69, 100
2, 860835, Note_on_c, 0, 69, 0
2, 860835, Note_on_c, 0, 67, 100
2, 860850, Note_on_c, 0, 67, 0
2, 860850, Note_on_c, 0, 69, 100
2, 860865, Note_on_c, 0, 69, 0
2, 860865, Note_on_c, 0, 67, 100
2, 860880, Note_on_c, 0, 67, 0
2, 860880, Note_on_c, 0, 65, 100
2, 860910, Note_on_c, 0, 65, 0
2, 860910, Note_on_c, 0, 67, 100
2, 860940, Note_on_c, 0, 67, 0
2, 860940, Note_on_c, 0, 65, 100
2, 860970, Note_on_c, 0, 65, 0
2, 860970, Note_on_c, 0, 64, 100
2, 861000, Note_on_c, 0, 64, 0
2, 861000, Note_on_c, 0, 74, 100
2, 861015, Note_on_c, 0, 74, 0
2, 861015, Note_on_c, 0, 73, 100
2, 861030, Note_on_c, 0, 73, 0
2, 861030, Note_on_c, 0, 70, 100
2, 861045, Note_on_c, 0, 70, 0
2, 861045, Note_on_c, 0, 73, 100
2, 861060, Note_on_c, 0, 73, 0
2, 861060, Note_on_c, 0, 74, 100
2, 861075, Note_on_c, 0, 74, 0
2, 861075, Note_on_c, 0, 73, 100
2, 861090, Note_on_c, 0, 73, 0
2, 861090, Note_on_c, 0, 74, 100
2, 861105, Note_on_c, 0, 74, 0
2, 861105, Note_on_c, 0, 73, 100
2, 861120, Note_on_c, 0, 73, 0
2, 861120, Note_on_c, 0, 74, 100
2, 861135, Note_on_c, 0, 74, 0
2, 861135, Note_on_c, 0, 73, 100
2, 861150, Note_on_c, 0, 73, 0
2, 861150, Note_on_c, 0, 70, 100
2, 861165, Note_on_c, 0, 70, 0
2, 861165, Note_on_c, 0, 73, 100
2, 861180, Note_on_c, 0, 73, 0
2, 861180, Note_on_c, 0, 74, 100
2, 861210, Note_on_c, 0, 74, 0
2, 861210, Note_on_c, 0, 70, 100
2, 861240, Note_on_c, 0, 70, 0
2, 861240, Note_on_c, 0, 79, 100
2, 861270, Note_on_c, 0, 79, 0
2, 861270, Note_on_c, 0, 72, 100
2, 861300, Note_on_c, 0, 72, 0
2, 861300, Note_on_c, 0, 69, 100
2, 861330, Note_on_c, 0, 69, 0
2, 861330, Note_on_c, 0, 77, 100
2, 861360, Note_on_c, 0, 77, 0
2, 861360, Note_on_c, 0, 70, 100
2, 861390, Note_on_c, 0, 70, 0
2, 861390, Note_on_c, 0, 67, 100
2, 861420, Note_on_c, 0, 67, 0
2, 861420, Note_on_c, 0, 76, 100
2, 861450, Note_on_c, 0, 76, 0
2, 861450, Note_on_c, 0, 69, 100
2, 861480, Note_on_c, 0, 69, 0
2, 861480, Note_on_c, 0, 67, 100
2, 861510, Note_on_c, 0, 67, 0
2, 861510, Note_on_c, 0, 76, 100
2, 861540, Note_on_c, 0, 76, 0
2, 861540, Note_on_c, 0, 69, 100
2, 861570, Note_on_c, 0, 69, 0
2, 861570, Note_on_c, 0, 65, 100
2, 861600, Note_on_c, 0, 65, 0
2, 861600, Note_on_c, 0, 74, 100
2, 861630, Note_on_c, 0, 74, 0
2, 861630, Note_on_c, 0, 67, 100
2, 861660, Note_on_c, 0, 67, 0
2, 861660, Note_on_c, 0, 64, 100
2, 861690, Note_on_c, 0, 64, 0
2, 861690, Note_on_c, 0, 73, 100
2, 861720, Note_on_c, 0, 73, 0
2, 861720, Note_on_c, 0, 74, 100
2, 861750, Note_on_c, 0, 74, 0
2, 861750, Note_on_c, 0, 69, 100
2, 861780, Note_on_c, 0, 69, 0
2, 861780, Note_on_c, 0, 65, 100
2, 861810, Note_on_c, 0, 65, 0
2, 861810, Note_on_c, 0, 62, 100
2, 861840, Note_on_c, 0, 62, 0
2, 861840, Note_on_c, 0, 64, 100
2, 861870, Note_on_c, 0, 64, 0
2, 861870, Note_on_c, 0, 65, 100
2, 861900, Note_on_c, 0, 65, 0
2, 861900, Note_on_c, 0, 64, 100
2, 861930, Note_on_c, 0, 64, 0
2, 861930, Note_on_c, 0, 65, 100
2, 861960, Note_on_c, 0, 65, 0
2, 861960, Note_on_c, 0, 62, 100
2, 861990, Note_on_c, 0, 62, 0
2, 861990, Note_on_c, 0, 64, 100
2, 862110, Note_on_c, 0, 64, 0
2, 862110, Note_on_c, 0, 65, 100
2, 862140, Note_on_c, 0, 65, 0
2, 862140, Note_on_c, 0, 67, 100
2, 862170, Note_on_c, 0, 67, 0
2, 862170, Note_on_c, 0, 65, 100
2, 862200, Note_on_c, 0, 65, 0
2, 862200, Note_on_c, 0, 67, 100
2, 862230, Note_on_c, 0, 67, 0
2, 862230, Note_on_c, 0, 64, 100
2, 862260, Note_on_c, 0, 64, 0
2, 862260, Note_on_c, 0, 65, 100
2, 862320, Note_on_c, 0, 65, 0
2, 862350, Note_on_c, 0, 64, 100
2, 862410, Note_on_c, 0, 64, 0
2, 862440, Note_on_c, 0, 62, 100
2, 862500, Note_on_c, 0, 62, 0
2, 862530, Note_on_c, 0, 61, 100
2, 862590, Note_on_c, 0, 61, 0
2, 862620, Note_on_c, 0, 62, 100
2, 862680, Note_on_c, 0, 62, 0
2, 862710, Note_on_c, 0, 64, 100
2, 862770, Note_on_c, 0, 64, 0
2, 862800, Note_on_c, 0, 65, 100
2, 862830, Note_on_c, 0, 65, 0
2, 862830, Note_on_c, 0, 64, 100
2, 862860, Note_on_c, 0, 64, 0
2, 862860, Note_on_c, 0, 62, 100
2, 862890, Note_on_c, 0, 62, 0
2, 862890, Note_on_c, 0, 70, 100
2, 862920, Note_on_c, 0, 70, 0
2, 862920, Note_on_c, 0, 69, 100
2, 862950, Note_on_c, 0, 69, 0
2, 862950, Note_on_c, 0, 67, 100
2, 862980, Note_on_c, 0, 67, 0
2, 862980, Note_on_c, 0, 73, 100
2, 863040, Note_on_c, 0, 73, 0
2, 863100, Note_on_c, 0, 67, 100
2, 863130, Note_on_c, 0, 67, 0
2, 863130, Note_on_c, 0, 62, 100
2, 863160, Note_on_c, 0, 62, 0
2, 863160, Note_on_c, 0, 61, 100
2, 863190, Note_on_c, 0, 61, 0
2, 863190, Note_on_c, 0, 62, 100
2, 863220, Note_on_c, 0, 62, 0
2, 863220, Note_on_c, 0, 64, 100
2, 863250, Note_on_c, 0, 64, 0
2, 863250, Note_on_c, 0, 57, 100
2, 863280, Note_on_c, 0, 57, 0
2, 863280, Note_on_c, 0, 59, 100
2, 863310, Note_on_c, 0, 59, 0
2, 863310, Note_on_c, 0, 61, 100
2, 863340, Note_on_c, 0, 61, 0
2, 863340, Note_on_c, 0, 62, 100
2, 863370, Note_on_c, 0, 62, 0
2, 863370, Note_on_c, 0, 55, 100
2, 863400, Note_on_c, 0, 55, 0
2, 863400, Note_on_c, 0, 58, 100
2, 863430, Note_on_c, 0, 58, 0
2, 863430, Note_on_c, 0, 60, 100
2, 863460, Note_on_c, 0, 60, 0
2, 863460, Note_on_c, 0, 53, 100
2, 863490, Note_on_c, 0, 53, 0
2, 863490, Note_on_c, 0, 57, 100
2, 863520, Note_on_c, 0, 57, 0
2, 863520, Note_on_c, 0, 58, 100
2, 863550, Note_on_c, 0, 58, 0
2, 863550, Note_on_c, 0, 52, 100
2, 863580, Note_on_c, 0, 52, 0
2, 863580, Note_on_c, 0, 55, 100
2, 863610, Note_on_c, 0, 55, 0
2, 863610, Note_on_c, 0, 57, 100
2, 863640, Note_on_c, 0, 57, 0
2, 863640, Note_on_c, 0, 69, 100
2, 863670, Note_on_c, 0, 69, 0
2, 863670, Note_on_c, 0, 67, 100
2, 863700, Note_on_c, 0, 67, 0
2, 863700, Note_on_c, 0, 65, 100
2, 863730, Note_on_c, 0, 65, 0
2, 863730, Note_on_c, 0, 74, 100
2, 863760, Note_on_c, 0, 74, 0
2, 863760, Note_on_c, 0, 72, 100
2, 863790, Note_on_c, 0, 72, 0
2, 863790, Note_on_c, 0, 70, 100
2, 863820, Note_on_c, 0, 70, 0
2, 863820, Note_on_c, 0, 69, 100
2, 863850, Note_on_c, 0, 69, 0
2, 863850, Note_on_c, 0, 70, 100
2, 863880, Note_on_c, 0, 70, 0
2, 863880, Note_on_c, 0, 69, 100
2, 863970, Note_on_c, 0, 69, 0
2, 863970, Note_on_c, 0, 62, 100
2, 864000, Note_on_c, 0, 62, 0
2, 864000, Note_on_c, 0, 61, 100
2, 864030, Note_on_c, 0, 61, 0
2, 864030, Note_on_c, 0, 62, 100
2, 864060, Note_on_c, 0, 62, 0
2, 864060, Note_on_c, 0, 64, 100
2, 864090, Note_on_c, 0, 64, 0
2, 864090, Note_on_c, 0, 62, 100
2, 864120, Note_on_c, 0, 62, 0
2, 864120, Note_on_c, 0, 64, 100
2, 864150, Note_on_c, 0, 64, 0
2, 864150, Note_on_c, 0, 65, 100
2, 864180, Note_on_c, 0, 65, 0
2, 864180, Note_on_c, 0, 64, 100
2, 864210, Note_on_c, 0, 64, 0
2, 864210, Note_on_c, 0, 65, 100
2, 864240, Note_on_c, 0, 65, 0
2, 864240, Note_on_c, 0, 67, 100
2, 864270, Note_on_c, 0, 67, 0
2, 864270, Note_on_c, 0, 65, 100
2, 864300, Note_on_c, 0, 65, 0
2, 864300, Note_on_c, 0, 67, 100
2, 864330, Note_on_c, 0, 67, 0
2, 864330, Note_on_c, 0, 69, 100
2, 864360, Note_on_c, 0, 69, 0
2, 864360, Note_on_c, 0, 67, 100
2, 864390, Note_on_c, 0, 67, 0
2, 864390, Note_on_c, 0, 69, 100
2, 864420, Note_on_c, 0, 69, 0
2, 864420, Note_on_c, 0, 70, 100
2, 864480, Note_on_c, 0, 70, 0
2, 864510, Note_on_c, 0, 69, 100
2, 864570, Note_on_c, 0, 69, 0
2, 864600, Note_on_c, 0, 67, 100
2, 864660, Note_on_c, 0, 67, 0
2, 864690, Note_on_c, 0, 67, 100
2, 864720, Note_on_c, 0, 67, 0
2, 864720, Note_on_c, 0, 65, 100
2, 864840, Note_on_c, 0, 65, 0
2, 864840, Note_on_c, 0, 64, 100
2, 864870, Note_on_c, 0, 64, 0
2, 864870, Note_on_c, 0, 65, 100
2, 864930, Note_on_c, 0, 65, 0
2, 864930, Note_on_c, 0, 67, 100
2, 864960, Note_on_c, 0, 67, 0
2, 864960, Note_on_c, 0, 69, 100
2, 865020, Note_on_c, 0, 69, 0
2, 865020, Note_on_c, 0, 79, 100
2, 865050, Note_on_c, 0, 79, 0
2, 865050, Note_on_c, 0, 77, 100
2, 865110, Note_on_c, 0, 77, 0
2, 865110, Note_on_c, 0, 69, 100
2, 865140, Note_on_c, 0, 69, 0
2, 865140, Note_on_c, 0, 67, 100
2, 865200, Note_on_c, 0, 67, 0
2, 865200, Note_on_c, 0, 76, 100
2, 865230, Note_on_c, 0, 76, 0
2, 865230, Note_on_c, 0, 74, 100
2, 865290, Note_on_c, 0, 74, 0
2, 865290, Note_on_c, 0, 65, 100
2, 865320, Note_on_c, 0, 65, 0
2, 865320, Note_on_c, 0, 64, 100
2, 865380, Note_on_c, 0, 64, 0
2, 865380, Note_on_c, 0, 74, 100
2, 865410, Note_on_c, 0, 74, 0
2, 865410, Note_on_c, 0, 73, 100
2, 865470, Note_on_c, 0, 73, 0
2, 865470, Note_on_c, 0, 64, 100
2, 865500, Note_on_c, 0, 64, 0
2, 865500, Note_on_c, 0, 64, 100
2, 865530, Note_on_c, 0, 64, 0
2, 865530, Note_on_c, 0, 62, 100
2, 865560, Note_on_c, 0, 62, 0
2, 865560, Note_on_c, 0, 61, 100
2, 865590, Note_on_c, 0, 61, 0
2, 865590, Note_on_c, 0, 62, 100
2, 865620, Note_on_c, 0, 62, 0
2, 865620, Note_on_c, 0, 64, 100
2, 865650, Note_on_c, 0, 64, 0
2, 865650, Note_on_c, 0, 65, 100
2, 865680, Note_on_c, 0, 65, 0
2, 865680, Note_on_c, 0, 67, 100
2, 865710, Note_on_c, 0, 67, 0
2, 865710, Note_on_c, 0, 69, 100
2, 865740, Note_on_c, 0, 69, 0
2, 865740, Note_on_c, 0, 70, 100
2, 865770, Note_on_c, 0, 70, 0
2, 865770, Note_on_c, 0, 70, 100
2, 865800, Note_on_c, 0, 70, 0
2, 865800, Note_on_c, 0, 69, 100
2, 865830, Note_on_c, 0, 69, 0
2, 865830, Note_on_c, 0, 67, 100
2, 865860, Note_on_c, 0, 67, 0
2, 865860, Note_on_c, 0, 69, 100
2, 865890, Note_on_c, 0, 69, 0
2, 865890, Note_on_c, 0, 71, 100
2, 865920, Note_on_c, 0, 71, 0
2, 865920, Note_on_c, 0, 73, 100
2, 865950, Note_on_c, 0, 73, 0
2, 865950, Note_on_c, 0, 74, 100
2, 865980, Note_on_c, 0, 74, 0
2, 865980, Note_on_c, 0, 76, 100
2, 866010, Note_on_c, 0, 76, 0
2, 866010, Note_on_c, 0, 77, 100
2, 866040, Note_on_c, 0, 77, 0
2, 866040, Note_on_c, 0, 77, 100
2, 866070, Note_on_c, 0, 77, 0
2, 866070, Note_on_c, 0, 74, 100
2, 866100, Note_on_c, 0, 74, 0
2, 866100, Note_on_c, 0, 76, 100
2, 866130, Note_on_c, 0, 76, 0
2, 866130, Note_on_c, 0, 76, 100
2, 866160, Note_on_c, 0, 76, 0
2, 866160, Note_on_c, 0, 73, 100
2, 866190, Note_on_c, 0, 73, 0
2, 866190, Note_on_c, 0, 74, 100
2, 866220, Note_on_c, 0, 74, 0
2, 866220, Note_on_c, 0, 74, 100
2, 866250, Note_on_c, 0, 74, 0
2, 866250, Note_on_c, 0, 71, 100
2, 866280, Note_on_c, 0, 71, 0
2, 866280, Note_on_c, 0, 72, 100
2, 866310, Note_on_c, 0, 72, 0
2, 866310, Note_on_c, 0, 72, 100
2, 866340, Note_on_c, 0, 72, 0
2, 866340, Note_on_c, 0, 69, 100
2, 866370, Note_on_c, 0, 69, 0
2, 866370, Note_on_c, 0, 70, 100
2, 866400, Note_on_c, 0, 70, 0
2, 866400, Note_on_c, 0, 70, 100
2, 866430, Note_on_c, 0, 70, 0
2, 866430, Note_on_c, 0, 67, 100
2, 866460, Note_on_c, 0, 67, 0
2, 866460, Note_on_c, 0, 69, 100
2, 866490, Note_on_c, 0, 69, 0
2, 866490, Note_on_c, 0, 69, 100
2, 866520, Note_on_c, 0, 69, 0
2, 866520, Note_on_c, 0, 65, 100
2, 866550, Note_on_c, 0, 65, 0
2, 866550, Note_on_c, 0, 67, 100
2, 866580, Note_on_c, 0, 67, 0
2, 866580, Note_on_c, 0, 67, 100
2, 866610, Note_on_c, 0, 67, 0
2, 866610, Note_on_c, 0, 65, 100
2, 866700, Note_on_c, 0, 65, 0
2, 866700, Note_on_c, 0, 67, 100
2, 866730, Note_on_c, 0, 67, 0
2, 866730, Note_on_c, 0, 69, 100
2, 866760, Note_on_c, 0, 69, 0
2, 866760, Note_on_c, 0, 70, 100
2, 866790, Note_on_c, 0, 70, 0
2, 866790, Note_on_c, 0, 69, 100
2, 866820, Note_on_c, 0, 69, 0
2, 866820, Note_on_c, 0, 67, 100
2, 866850, Note_on_c, 0, 67, 0
2, 866850, Note_on_c, 0, 74, 100
2, 866880, Note_on_c, 0, 74, 0
2, 866880, Note_on_c, 0, 73, 100
2, 866970, Note_on_c, 0, 73, 0
2, 866970, Note_on_c, 0, 74, 100
2, 867000, Note_on_c, 0, 74, 0
2, 867000, Note_on_c, 0, 76, 100
2, 867030, Note_on_c, 0, 76, 0
2, 867030, Note_on_c, 0, 77, 100
2, 867060, Note_on_c, 0, 77, 0
2, 867060, Note_on_c, 0, 76, 100
2, 867090, Note_on_c, 0, 76, 0
2, 867090, Note_on_c, 0, 74, 100
2, 867120, Note_on_c, 0, 74, 0
2, 867120, Note_on_c, 0, 81, 100
2, 867135, Note_on_c, 0, 81, 0
2, 867135, Note_on_c, 0, 80, 100
2, 867150, Note_on_c, 0, 80, 0
2, 867150, Note_on_c, 0, 78, 100
2, 867165, Note_on_c, 0, 78, 0
2, 867165, Note_on_c, 0, 80, 100
2, 867180, Note_on_c, 0, 80, 0
2, 867180, Note_on_c, 0, 81, 100
2, 867195, Note_on_c, 0, 81, 0
2, 867195, Note_on_c, 0, 80, 100
2, 867210, Note_on_c, 0, 80, 0
2, 867210, Note_on_c, 0, 81, 100
2, 867225, Note_on_c, 0, 81, 0
2, 867225, Note_on_c, 0, 80, 100
2, 867240, Note_on_c, 0, 80, 0
2, 867240, Note_on_c, 0, 81, 100
2, 867255, Note_on_c, 0, 81, 0
2, 867255, Note_on_c, 0, 80, 100
2, 867270, Note_on_c, 0, 80, 0
2, 867270, Note_on_c, 0, 81, 100
2, 867285, Note_on_c, 0, 81, 0
2, 867285, Note_on_c, 0, 80, 100
2, 867300, Note_on_c, 0, 80, 0
2, 867300, Note_on_c, 0, 81, 100
2, 867315, Note_on_c, 0, 81, 0
2, 867315, Note_on_c, 0, 80, 100
2, 867330, Note_on_c, 0, 80, 0
2, 867330, Note_on_c, 0, 81, 100
2, 867345, Note_on_c, 0, 81, 0
2, 867345, Note_on_c, 0, 80, 100
2, 867360, Note_on_c, 0, 80, 0
2, 867360, Note_on_c, 0, 78, 100
2, 867375, Note_on_c, 0, 78, 0
2, 867375, Note_on_c, 0, 80, 100
2, 867390, Note_on_c, 0, 80, 0
2, 867390, Note_on_c, 0, 81, 100
2, 867450, Note_on_c, 0, 81, 0
2, 867540, Note_on_c, 0, 73, 100
2, 867570, Note_on_c, 0, 73, 0
2, 867570, Note_on_c, 0, 74, 100
2, 867630, Note_on_c, 0, 74, 0
2, 867630, Note_on_c, 0, 76, 100
2, 867660, Note_on_c, 0, 76, 0
2, 867660, Note_on_c, 0, 69, 100
2, 867690, Note_on_c, 0, 69, 0
2, 867690, Note_on_c, 0, 71, 100
2, 867720, Note_on_c, 0, 71, 0
2, 867720, Note_on_c, 0, 73, 100
2, 867750, Note_on_c, 0, 73, 0
2, 867750, Note_on_c, 0, 74, 100
2, 867780, Note_on_c, 0, 74, 0
2, 867780, Note_on_c, 0, 76, 100
2, 867810, Note_on_c, 0, 76, 0
2, 867810, Note_on_c, 0, 77, 100
2, 867840, Note_on_c, 0, 77, 0
2, 867840, Note_on_c, 0, 67, 100
2, 867960, Note_on_c, 0, 67, 0
2, 867960, Note_on_c, 0, 79, 100
2, 867990, Note_on_c, 0, 79, 0
2, 867990, Note_on_c, 0, 77, 100
2, 868020, Note_on_c, 0, 77, 0
2, 868020, Note_on_c, 0, 76, 100
2, 868050, Note_on_c, 0, 76, 0
2, 868050, Note_on_c, 0, 74, 100
2, 868080, Note_on_c, 0, 74, 0
2, 868080, Note_on_c, 0, 73, 100
2, 868110, Note_on_c, 0, 73, 0
2, 868110, Note_on_c, 0, 74, 100
2, 868230, Note_on_c, 0, 74, 0
2, 868230, Note_on_c, 0, 71, 100
2, 868260, Note_on_c, 0, 71, 0
2, 868260, Note_on_c, 0, 73, 100
2, 868290, Note_on_c, 0, 73, 0
2, 868290, Note_on_c, 0, 74, 100
2, 868320, Note_on_c, 0, 74, 0
2, 868320, Note_on_c, 0, 76, 100
2, 868350, Note_on_c, 0, 76, 0
2, 868350, Note_on_c, 0, 77, 100
2, 868380, Note_on_c, 0, 77, 0
2, 868380, Note_on_c, 0, 76, 100
2, 868410, Note_on_c, 0, 76, 0
2, 868410, Note_on_c, 0, 77, 100
2, 868440, Note_on_c, 0, 77, 0
2, 868440, Note_on_c, 0, 74, 100
2, 868470, Note_on_c, 0, 74, 0
2, 868470, Note_on_c, 0, 73, 100
2, 868500, Note_on_c, 0, 73, 0
2, 868500, Note_on_c, 0, 74, 100
2, 868530, Note_on_c, 0, 74, 0
2, 868530, Note_on_c, 0, 76, 100
2, 868560, Note_on_c, 0, 76, 0
2, 868560, Note_on_c, 0, 69, 100
2, 868680, Note_on_c, 0, 69, 0
2, 868680, Note_on_c, 0, 70, 100
2, 868710, Note_on_c, 0, 70, 0
2, 868710, Note_on_c, 0, 67, 100
2, 868740, Note_on_c, 0, 67, 0
2, 868740, Note_on_c, 0, 65, 100
2, 868770, Note_on_c, 0, 65, 0
2, 868770, Note_on_c, 0, 67, 100
2, 868800, Note_on_c, 0, 67, 0
2, 868800, Note_on_c, 0, 64, 100
2, 868830, Note_on_c, 0, 64, 0
2, 868830, Note_on_c, 0, 65, 100
2, 868860, Note_on_c, 0, 65, 0
2, 868860, Note_on_c, 0, 69, 100
2, 868890, Note_on_c, 0, 69, 0
2, 868890, Note_on_c, 0, 74, 100
2, 868920, Note_on_c, 0, 74, 0
2, 868920, Note_on_c, 0, 72, 100
2, 868950, Note_on_c, 0, 72, 0
2, 868950, Note_on_c, 0, 70, 100
2, 868980, Note_on_c, 0, 70, 0
2, 868980, Note_on_c, 0, 69, 100
2, 869010, Note_on_c, 0, 69, 0
2, 869010, Note_on_c, 0, 70, 100
2, 869040, Note_on_c, 0, 70, 0
2, 869040, Note_on_c, 0, 74, 100
2, 869070, Note_on_c, 0, 74, 0
2, 869070, Note_on_c, 0, 79, 100
2, 869100, Note_on_c, 0, 79, 0
2, 869100, Note_on_c, 0, 73, 100
2, 869130, Note_on_c, 0, 73, 0
2, 869130, Note_on_c, 0, 76, 100
2, 869160, Note_on_c, 0, 76, 0
2, 869160, Note_on_c, 0, 69, 100
2, 869190, Note_on_c, 0, 69, 0
2, 869190, Note_on_c, 0, 70, 100
2, 869220, Note_on_c, 0, 70, 0
2, 869220, Note_on_c, 0, 69, 100
2, 869250, Note_on_c, 0, 69, 0
2, 869250, Note_on_c, 0, 67, 100
2, 869280, Note_on_c, 0, 67, 0
2, 869280, Note_on_c, 0, 65, 100
2, 869310, Note_on_c, 0, 65, 0
2, 869310, Note_on_c, 0, 67, 100
2, 869340, Note_on_c, 0, 67, 0
2, 869340, Note_on_c, 0, 64, 100
2, 869370, Note_on_c, 0, 64, 0
2, 869370, Note_on_c, 0, 65, 100
2, 869430, Note_on_c, 0, 65, 0
2, 869430, Note_on_c, 0, 74, 100
2, 869460, Note_on_c, 0, 74, 0
2, 869460, Note_on_c, 0, 67, 100
2, 869520, Note_on_c, 0, 67, 0
2, 869520, Note_on_c, 0, 65, 100
2, 869550, Note_on_c, 0, 65, 0
2, 869550, Note_on_c, 0, 64, 100
2, 869580, Note_on_c, 0, 64, 0
2, 869580, Note_on_c, 0, 69, 100
2, 869610, Note_on_c, 0, 69, 0
2, 869610, Note_on_c, 0, 67, 100
2, 869640, Note_on_c, 0, 67, 0
2, 869640, Note_on_c, 0, 65, 100
2, 869670, Note_on_c, 0, 65, 0
2, 869670, Note_on_c, 0, 64, 100
2, 869700, Note_on_c, 0, 64, 0
2, 869700, Note_on_c, 0, 62, 100
2, 869730, Note_on_c, 0, 62, 0
2, 869730, Note_on_c, 0, 62, 100
2, 869745, Note_on_c, 0, 62, 0
2, 869745, Note_on_c, 0, 61, 100
2, 869760, Note_on_c, 0, 61, 0
2, 869760, Note_on_c, 0, 62, 100
2, 869775, Note_on_c, 0, 62, 0
2, 869775, Note_on_c, 0, 61, 100
2, 869790, Note_on_c, 0, 61, 0
2, 869790, Note_on_c, 0, 62, 100
2, 869805, Note_on_c, 0, 62, 0
2, 869805, Note_on_c, 0, 61, 100
2, 869820, Note_on_c, 0, 61, 0
2, 869820, Note_on_c, 0, 62, 100
2, 869880, Note_on_c, 0, 62, 0
2, 870360, Note_on_c, 0, 74, 100
2, 870450, Note_on_c, 0, 74, 0
2, 870450, Note_on_c, 0, 69, 100
2, 870480, Note_on_c, 0, 69, 0
2, 870480, Note_on_c, 0, 68, 100
2, 870510, Note_on_c, 0, 68, 0
2, 870510, Note_on_c, 0, 69, 100
2, 870540, Note_on_c, 0, 69, 0
2, 870540, Note_on_c, 0, 71, 100
2, 870570, Note_on_c, 0, 71, 0
2, 870570, Note_on_c, 0, 69, 100
2, 870600, Note_on_c, 0, 69, 0
2, 870600, Note_on_c, 0, 71, 100
2, 870630, Note_on_c, 0, 71, 0
2, 870630, Note_on_c, 0, 72, 100
2, 870660, Note_on_c, 0, 72, 0
2, 870660, Note_on_c, 0, 71, 100
2, 870690, Note_on_c, 0, 71, 0
2, 870690, Note_on_c, 0, 73, 100
2, 870720, Note_on_c, 0, 73, 0
2, 870720, Note_on_c, 0, 74, 100
2, 870750, Note_on_c, 0, 74, 0
2, 870750, Note_on_c, 0, 73, 100
2, 870780, Note_on_c, 0, 73, 0
2, 870780, Note_on_c, 0, 74, 100
2, 870810, Note_on_c, 0, 74, 0
2, 870810, Note_on_c, 0, 76, 100
2, 870840, Note_on_c, 0, 76, 0
2, 870840, Note_on_c, 0, 74, 100
2, 870870, Note_on_c, 0, 74, 0
2, 870870, Note_on_c, 0, 76, 100
2, 870900, Note_on_c, 0, 76, 0
2, 870900, Note_on_c, 0, 77, 100
2, 870960, Note_on_c, 0, 77, 0
2, 870990, Note_on_c, 0, 76, 100
2, 871050, Note_on_c, 0, 76, 0
2, 871080, Note_on_c, 0, 74, 100
2, 871140, Note_on_c, 0, 74, 0
2, 871170, Note_on_c, 0, 74, 100
2, 871200, Note_on_c, 0, 74, 0
2, 871200, Note_on_c, 0, 73, 100
2, 871320, Note_on_c, 0, 73, 0
2, 871320, Note_on_c, 0, 69, 100
2, 871350, Note_on_c, 0, 69, 0
2, 871350, Note_on_c, 0, 71, 100
2, 871410, Note_on_c, 0, 71, 0
2, 871410, Note_on_c, 0, 73, 100
2, 871440, Note_on_c, 0, 73, 0
2, 871440, Note_on_c, 0, 74, 100
2, 871470, Note_on_c, 0, 74, 0
2, 871470, Note_on_c, 0, 72, 100
2, 871500, Note_on_c, 0, 72, 0
2, 871500, Note_on_c, 0, 71, 100
2, 871530, Note_on_c, 0, 71, 0
2, 871530, Note_on_c, 0, 72, 100
2, 871590, Note_on_c, 0, 72, 0
2, 871590, Note_on_c, 0, 81, 100
2, 871620, Note_on_c, 0, 81, 0
2, 871620, Note_on_c, 0, 80, 100
2, 871680, Note_on_c, 0, 80, 0
2, 871680, Note_on_c, 0, 74, 100
2, 871710, Note_on_c, 0, 74, 0
2, 871710, Note_on_c, 0, 76, 100
2, 871770, Note_on_c, 0, 76, 0
2, 871770, Note_on_c, 0, 79, 100
2, 871800, Note_on_c, 0, 79, 0
2, 871800, Note_on_c, 0, 77, 100
2, 871830, Note_on_c, 0, 77, 0
2, 871830, Note_on_c, 0, 76, 100
2, 871860, Note_on_c, 0, 76, 0
2, 871860, Note_on_c, 0, 74, 100
2, 871890, Note_on_c, 0, 74, 0
2, 871890, Note_on_c, 0, 73, 100
2, 871950, Note_on_c, 0, 73, 0
2, 871950, Note_on_c, 0, 82, 100
2, 871980, Note_on_c, 0, 82, 0
2, 871980, Note_on_c, 0, 81, 100
2, 872010, Note_on_c, 0, 81, 0
2, 872010, Note_on_c, 0, 77, 100
2, 872040, Note_on_c, 0, 77, 0
2, 872040, Note_on_c, 0, 74, 100
2, 872070, Note_on_c, 0, 74, 0
2, 872070, Note_on_c, 0, 74, 100
2, 872100, Note_on_c, 0, 74, 0
2, 872100, Note_on_c, 0, 79, 100
2, 872130, Note_on_c, 0, 79, 0
2, 872130, Note_on_c, 0, 72, 100
2, 872160, Note_on_c, 0, 72, 0
2, 872160, Note_on_c, 0, 72, 100
2, 872190, Note_on_c, 0, 72, 0
2, 872190, Note_on_c, 0, 77, 100
2, 872220, Note_on_c, 0, 77, 0
2, 872220, Note_on_c, 0, 70, 100
2, 872250, Note_on_c, 0, 70, 0
2, 872250, Note_on_c, 0, 70, 100
2, 872280, Note_on_c, 0, 70, 0
2, 872280, Note_on_c, 0, 69, 100
2, 872310, Note_on_c, 0, 69, 0
2, 872310, Note_on_c, 0, 67, 100
2, 872340, Note_on_c, 0, 67, 0
2, 872340, Note_on_c, 0, 69, 100
2, 872370, Note_on_c, 0, 69, 0
2, 872370, Note_on_c, 0, 73, 100
2, 872400, Note_on_c, 0, 73, 0
2, 872400, Note_on_c, 0, 76, 100
2, 872430, Note_on_c, 0, 76, 0
2, 872430, Note_on_c, 0, 79, 100
2, 872460, Note_on_c, 0, 79, 0
2, 872460, Note_on_c, 0, 77, 100
2, 872490, Note_on_c, 0, 77, 0
2, 872490, Note_on_c, 0, 76, 100
2, 872520, Note_on_c, 0, 76, 0
2, 872520, Note_on_c, 0, 77, 100
2, 872550, Note_on_c, 0, 77, 0
2, 872550, Note_on_c, 0, 76, 100
2, 872580, Note_on_c, 0, 76, 0
2, 872580, Note_on_c, 0, 74, 100
2, 872610, Note_on_c, 0, 74, 0
2, 872610, Note_on_c, 0, 76, 100
2, 872640, Note_on_c, 0, 76, 0
2, 872640, Note_on_c, 0, 74, 100
2, 872670, Note_on_c, 0, 74, 0
2, 872670, Note_on_c, 0, 72, 100
2, 872700, Note_on_c, 0, 72, 0
2, 872700, Note_on_c, 0, 74, 100
2, 872730, Note_on_c, 0, 74, 0
2, 872730, Note_on_c, 0, 72, 100
2, 872760, Note_on_c, 0, 72, 0
2, 872760, Note_on_c, 0, 71, 100
2, 872790, Note_on_c, 0, 71, 0
2, 872790, Note_on_c, 0, 72, 100
2, 872820, Note_on_c, 0, 72, 0
2, 872820, Note_on_c, 0, 74, 100
2, 872850, Note_on_c, 0, 74, 0
2, 872850, Note_on_c, 0, 76, 100
2, 872880, Note_on_c, 0, 76, 0
2, 872880, Note_on_c, 0, 74, 100
2, 872910, Note_on_c, 0, 74, 0
2, 872910, Note_on_c, 0, 76, 100
2, 872940, Note_on_c, 0, 76, 0
2, 872940, Note_on_c, 0, 77, 100
2, 872970, Note_on_c, 0, 77, 0
2, 872970, Note_on_c, 0, 76, 100
2, 873000, Note_on_c, 0, 76, 0
2, 873000, Note_on_c, 0, 77, 100
2, 873030, Note_on_c, 0, 77, 0
2, 873030, Note_on_c, 0, 79, 100
2, 873060, Note_on_c, 0, 79, 0
2, 873060, Note_on_c, 0, 77, 100
2, 873090, Note_on_c, 0, 77, 0
2, 873090, Note_on_c, 0, 74, 100
2, 873120, Note_on_c, 0, 74, 0
2, 873120, Note_on_c, 0, 81, 100
2, 873150, Note_on_c, 0, 81, 0
2, 873150, Note_on_c, 0, 70, 100
2, 873180, Note_on_c, 0, 70, 0
2, 873180, Note_on_c, 0, 76, 100
2, 873210, Note_on_c, 0, 76, 0
2, 873210, Note_on_c, 0, 79, 100
2, 873240, Note_on_c, 0, 79, 0
2, 873240, Note_on_c, 0, 69, 100
2, 873270, Note_on_c, 0, 69, 0
2, 873270, Note_on_c, 0, 74, 100
2, 873300, Note_on_c, 0, 74, 0
2, 873300, Note_on_c, 0, 77, 100
2, 873330, Note_on_c, 0, 77, 0
2, 873330, Note_on_c, 0, 67, 100
2, 873360, Note_on_c, 0, 67, 0
2, 873360, Note_on_c, 0, 73, 100
2, 873390, Note_on_c, 0, 73, 0
2, 873390, Note_on_c, 0, 76, 100
2, 873420, Note_on_c, 0, 76, 0
2, 873420, Note_on_c, 0, 65, 100
2, 873450, Note_on_c, 0, 65, 0
2, 873450, Note_on_c, 0, 69, 100
2, 873480, Note_on_c, 0, 69, 0
2, 873480, Note_on_c, 0, 67, 100
2, 873510, Note_on_c, 0, 67, 0
2, 873510, Note_on_c, 0, 70, 100
2, 873540, Note_on_c, 0, 70, 0
2, 873540, Note_on_c, 0, 69, 100
2, 873570, Note_on_c, 0, 69, 0
2, 873570, Note_on_c, 0, 73, 100
2, 873600, Note_on_c, 0, 73, 0
2, 873600, Note_on_c, 0, 74, 100
2, 873630, Note_on_c, 0, 74, 0
2, 873630, Note_on_c, 0, 76, 100
2, 873660, Note_on_c, 0, 76, 0
2, 873660, Note_on_c, 0, 77, 100
2, 873690, Note_on_c, 0, 77, 0
2, 873690, Note_on_c, 0, 69, 100
2, 873705, Note_on_c, 0, 69, 0
2, 873705, Note_on_c, 0, 68, 100
2, 873720, Note_on_c, 0, 68, 0
2, 873720, Note_on_c, 0, 66, 100
2, 873735, Note_on_c, 0, 66, 0
2, 873735, Note_on_c, 0, 68, 100
2, 873750, Note_on_c, 0, 68, 0
2, 873750, Note_on_c, 0, 69, 100
2, 873765, Note_on_c, 0, 69, 0
2, 873765, Note_on_c, 0, 68, 100
2, 873780, Note_on_c, 0, 68, 0
2, 873780, Note_on_c, 0, 69, 100
2, 873795, Note_on_c, 0, 69, 0
2, 873795, Note_on_c, 0, 68, 100
2, 873810, Note_on_c, 0, 68, 0
2, 873810, Note_on_c, 0, 69, 100
2, 873825, Note_on_c, 0, 69, 0
2, 873825, Note_on_c, 0, 68, 100
2, 873840, Note_on_c, 0, 68, 0
2, 873840, Note_on_c, 0, 66, 100
2, 873855, Note_on_c, 0, 66, 0
2, 873855, Note_on_c, 0, 68, 100
2, 873870, Note_on_c, 0, 68, 0
2, 873870, Note_on_c, 0, 69, 100
2, 873930, Note_on_c, 0, 69, 0
2, 874020, Note_on_c, 0, 71, 100
2, 874050, Note_on_c, 0, 71, 0
2, 874050, Note_on_c, 0, 72, 100
2, 874110, Note_on_c, 0, 72, 0
2, 874110, Note_on_c, 0, 69, 100
2, 874140, Note_on_c, 0, 69, 0
2, 874140, Note_on_c, 0, 74, 100
2, 874200, Note_on_c, 0, 74, 0
2, 874200, Note_on_c, 0, 77, 100
2, 874230, Note_on_c, 0, 77, 0
2, 874230, Note_on_c, 0, 77, 100
2, 874260, Note_on_c, 0, 77, 0
2, 874260, Note_on_c, 0, 76, 100
2, 874290, Note_on_c, 0, 76, 0
2, 874290, Note_on_c, 0, 74, 100
2, 874320, Note_on_c, 0, 74, 0
2, 874320, Note_on_c, 0, 72, 100
2, 874350, Note_on_c, 0, 72, 0
2, 874350, Note_on_c, 0, 74, 100
2, 874380, Note_on_c, 0, 74, 0
2, 874380, Note_on_c, 0, 71, 100
2, 874410, Note_on_c, 0, 71, 0
2, 874410, Note_on_c, 0, 76, 100
2, 874500, Note_on_c, 0, 76, 0
2, 874500, Note_on_c, 0, 69, 100
2, 874590, Note_on_c, 0, 69, 0
2, 874680, Note_on_c, 0, 69, 100
2, 874770, Note_on_c, 0, 69, 0
2, 874770, Note_on_c, 0, 76, 100
2, 874800, Note_on_c, 0, 76, 0
2, 874800, Note_on_c, 0, 77, 100
2, 874830, Note_on_c, 0, 77, 0
2, 874830, Note_on_c, 0, 76, 100
2, 874860, Note_on_c, 0, 76, 0
2, 874860, Note_on_c, 0, 74, 100
2, 874890, Note_on_c, 0, 74, 0
2, 874890, Note_on_c, 0, 76, 100
2, 874920, Note_on_c, 0, 76, 0
2, 874920, Note_on_c, 0, 74, 100
2, 874950, Note_on_c, 0, 74, 0
2, 874950, Note_on_c, 0, 72, 100
2, 874980, Note_on_c, 0, 72, 0
2, 874980, Note_on_c, 0, 74, 100
2, 875010, Note_on_c, 0, 74, 0
2, 875010, Note_on_c, 0, 72, 100
2, 875040, Note_on_c, 0, 72, 0
2, 875040, Note_on_c, 0, 71, 100
2, 875070, Note_on_c, 0, 71, 0
2, 875070, Note_on_c, 0, 72, 100
2, 875100, Note_on_c, 0, 72, 0
2, 875100, Note_on_c, 0, 71, 100
2, 875130, Note_on_c, 0, 71, 0
2, 875130, Note_on_c, 0, 69, 100
2, 875160, Note_on_c, 0, 69, 0
2, 875160, Note_on_c, 0, 71, 100
2, 875190, Note_on_c, 0, 71, 0
2, 875190, Note_on_c, 0, 69, 100
2, 875220, Note_on_c, 0, 69, 0
2, 875220, Note_on_c, 0, 68, 100
2, 875280, Note_on_c, 0, 68, 0
2, 875310, Note_on_c, 0, 69, 100
2, 875370, Note_on_c, 0, 69, 0
2, 875400, Note_on_c, 0, 71, 100
2, 875460, Note_on_c, 0, 71, 0
2, 875490, Note_on_c, 0, 71, 100
2, 875520, Note_on_c, 0, 71, 0
2, 875520, Note_on_c, 0, 72, 100
2, 875640, Note_on_c, 0, 72, 0
2, 875640, Note_on_c, 0, 74, 100
2, 875670, Note_on_c, 0, 74, 0
2, 875670, Note_on_c, 0, 72, 100
2, 875730, Note_on_c, 0, 72, 0
2, 875730, Note_on_c, 0, 71, 100
2, 875760, Note_on_c, 0, 71, 0
2, 875760, Note_on_c, 0, 69, 100
2, 875790, Note_on_c, 0, 69, 0
2, 875790, Note_on_c, 0, 64, 100
2, 875820, Note_on_c, 0, 64, 0
2, 875820, Note_on_c, 0, 69, 100
2, 875850, Note_on_c, 0, 69, 0
2, 875850, Note_on_c, 0, 72, 100
2, 875880, Note_on_c, 0, 72, 0
2, 875880, Note_on_c, 0, 69, 100
2, 875910, Note_on_c, 0, 69, 0
2, 875910, Note_on_c, 0, 72, 100
2, 875940, Note_on_c, 0, 72, 0
2, 875940, Note_on_c, 0, 76, 100
2, 876000, Note_on_c, 0, 76, 0
2, 876000, Note_on_c, 0, 68, 100
2, 876030, Note_on_c, 0, 68, 0
2, 876030, Note_on_c, 0, 69, 100
2, 876090, Note_on_c, 0, 69, 0
2, 876090, Note_on_c, 0, 77, 100
2, 876120, Note_on_c, 0, 77, 0
2, 876120, Note_on_c, 0, 67, 100
2, 876180, Note_on_c, 0, 67, 0
2, 876180, Note_on_c, 0, 76, 100
2, 876210, Note_on_c, 0, 76, 0
2, 876210, Note_on_c, 0, 65, 100
2, 876270, Note_on_c, 0, 65, 0
2, 876270, Note_on_c, 0, 74, 100
2, 876300, Note_on_c, 0, 74, 0
2, 876300, Note_on_c, 0, 64, 100
2, 876330, Note_on_c, 0, 64, 0
2, 876330, Note_on_c, 0, 71, 100
2, 876360, Note_on_c, 0, 71, 0
2, 876360, Note_on_c, 0, 74, 100
2, 876390, Note_on_c, 0, 74, 0
2, 876390, Note_on_c, 0, 72, 100
2, 876420, Note_on_c, 0, 72, 0
2, 876420, Note_on_c, 0, 71, 100
2, 876450, Note_on_c, 0, 71, 0
2, 876450, Note_on_c, 0, 69, 100
2, 876480, Note_on_c, 0, 69, 0
2, 876480, Note_on_c, 0, 68, 100
2, 876510, Note_on_c, 0, 68, 0
2, 876510, Note_on_c, 0, 74, 100
2, 876540, Note_on_c, 0, 74, 0
2, 876540, Note_on_c, 0, 77, 100
2, 876570, Note_on_c, 0, 77, 0
2, 876570, Note_on_c, 0, 76, 100
2, 876600, Note_on_c, 0, 76, 0
2, 876600, Note_on_c, 0, 74, 100
2, 876630, Note_on_c, 0, 74, 0
2, 876630, Note_on_c, 0, 72, 100
2, 876660, Note_on_c, 0, 72, 0
2, 876660, Note_on_c, 0, 71, 100
2, 876690, Note_on_c, 0, 71, 0
2, 876690, Note_on_c, 0, 69, 100
2, 876720, Note_on_c, 0, 69, 0
2, 876720, Note_on_c, 0, 68, 100
2, 876750, Note_on_c, 0, 68, 0
2, 876750, Note_on_c, 0, 69, 100
2, 876780, Note_on_c, 0, 69, 0
2, 876780, Note_on_c, 0, 64, 100
2, 876810, Note_on_c, 0, 64, 0
2, 876810, Note_on_c, 0, 71, 100
2, 876840, Note_on_c, 0, 71, 0
2, 876840, Note_on_c, 0, 72, 100
2, 876870, Note_on_c, 0, 72, 0
2, 876870, Note_on_c, 0, 71, 100
2, 876900, Note_on_c, 0, 71, 0
2, 876900, Note_on_c, 0, 69, 100
2, 876930, Note_on_c, 0, 69, 0
2, 876930, Note_on_c, 0, 76, 100
2, 877050, Note_on_c, 0, 76, 0
2, 877050, Note_on_c, 0, 71, 100
2, 877080, Note_on_c, 0, 71, 0
2, 877080, Note_on_c, 0, 74, 100
2, 877110, Note_on_c, 0, 74, 0
2, 877110, Note_on_c, 0, 74, 100
2, 877140, Note_on_c, 0, 74, 0
2, 877140, Note_on_c, 0, 72, 100
2, 877170, Note_on_c, 0, 72, 0
2, 877170, Note_on_c, 0, 81, 100
2, 877193, Note_on_c, 0, 81, 0
2, 877200, Note_on_c, 0, 72, 100
2, 877230, Note_on_c, 0, 72, 0
2, 877230, Note_on_c, 0, 71, 100
2, 877260, Note_on_c, 0, 71, 0
2, 877260, Note_on_c, 0, 79, 100
2, 877283, Note_on_c, 0, 79, 0
2, 877290, Note_on_c, 0, 71, 100
2, 877320, Note_on_c, 0, 71, 0
2, 877320, Note_on_c, 0, 69, 100
2, 877350, Note_on_c, 0, 69, 0
2, 877350, Note_on_c, 0, 77, 100
2, 877373, Note_on_c, 0, 77, 0
2, 877380, Note_on_c, 0, 69, 100
2, 877410, Note_on_c, 0, 69, 0
2, 877410, Note_on_c, 0, 68, 100
2, 877440, Note_on_c, 0, 68, 0
2, 877440, Note_on_c, 0, 71, 100
2, 877463, Note_on_c, 0, 71, 0
2, 877470, Note_on_c, 0, 64, 100
2, 877530, Note_on_c, 0, 64, 0
2, 877740, Note_on_c, 0, 74, 100
2, 877860, Note_on_c, 0, 74, 0
2, 877860, Note_on_c, 0, 72, 100
2, 877890, Note_on_c, 0, 72, 0
2, 877890, Note_on_c, 0, 74, 100
2, 877920, Note_on_c, 0, 74, 0
2, 877920, Note_on_c, 0, 76, 100
2, 877950, Note_on_c, 0, 76, 0
2, 877950, Note_on_c, 0, 74, 100
2, 877980, Note_on_c, 0, 74, 0
2, 877980, Note_on_c, 0, 72, 100
2, 878010, Note_on_c, 0, 72, 0
2, 878010, Note_on_c, 0, 71, 100
2, 878040, Note_on_c, 0, 71, 0
2, 878040, Note_on_c, 0, 72, 100
2, 878070, Note_on_c, 0, 72, 0
2, 878070, Note_on_c, 0, 74, 100
2, 878100, Note_on_c, 0, 74, 0
2, 878100, Note_on_c, 0, 76, 100
2, 878130, Note_on_c, 0, 76, 0
2, 878130, Note_on_c, 0, 78, 100
2, 878160, Note_on_c, 0, 78, 0
2, 878160, Note_on_c, 0, 80, 100
2, 878190, Note_on_c, 0, 80, 0
2, 878190, Note_on_c, 0, 81, 100
2, 878220, Note_on_c, 0, 81, 0
2, 878220, Note_on_c, 0, 76, 100
2, 878250, Note_on_c, 0, 76, 0
2, 878250, Note_on_c, 0, 72, 100
2, 878280, Note_on_c, 0, 72, 0
2, 878280, Note_on_c, 0, 74, 100
2, 878310, Note_on_c, 0, 74, 0
2, 878310, Note_on_c, 0, 79, 100
2, 878340, Note_on_c, 0, 79, 0
2, 878340, Note_on_c, 0, 71, 100
2, 878370, Note_on_c, 0, 71, 0
2, 878370, Note_on_c, 0, 72, 100
2, 878400, Note_on_c, 0, 72, 0
2, 878400, Note_on_c, 0, 77, 100
2, 878430, Note_on_c, 0, 77, 0
2, 878430, Note_on_c, 0, 69, 100
2, 878460, Note_on_c, 0, 69, 0
2, 878460, Note_on_c, 0, 71, 100
2, 878490, Note_on_c, 0, 71, 0
2, 878490, Note_on_c, 0, 76, 100
2, 878520, Note_on_c, 0, 76, 0
2, 878520, Note_on_c, 0, 74, 100
2, 878550, Note_on_c, 0, 74, 0
2, 878550, Note_on_c, 0, 72, 100
2, 878580, Note_on_c, 0, 72, 0
2, 878580, Note_on_c, 0, 71, 100
2, 878610, Note_on_c, 0, 71, 0
2, 878610, Note_on_c, 0, 69, 100
2, 878640, Note_on_c, 0, 69, 0
2, 878640, Note_on_c, 0, 71, 100
2, 878670, Note_on_c, 0, 71, 0
2, 878670, Note_on_c, 0, 69, 100
2, 878700, Note_on_c, 0, 69, 0
2, 878700, Note_on_c, 0, 68, 100
2, 878730, Note_on_c, 0, 68, 0
2, 878730, Note_on_c, 0, 69, 100
2, 878760, Note_on_c, 0, 69, 0
2, 878760, Note_on_c, 0, 68, 100
2, 878790, Note_on_c, 0, 68, 0
2, 878790, Note_on_c, 0, 66, 100
2, 878820, Note_on_c, 0, 66, 0
2, 878820, Note_on_c, 0, 68, 100
2, 878850, Note_on_c, 0, 68, 0
2, 878850, Note_on_c, 0, 64, 100
2, 878880, Note_on_c, 0, 64, 0
2, 878880, Note_on_c, 0, 68, 100
2, 878910, Note_on_c, 0, 68, 0
2, 878910, Note_on_c, 0, 71, 100
2, 878940, Note_on_c, 0, 71, 0
2, 878940, Note_on_c, 0, 76, 100
2, 878970, Note_on_c, 0, 76, 0
2, 878970, Note_on_c, 0, 74, 100
2, 879000, Note_on_c, 0, 74, 0
2, 879000, Note_on_c, 0, 72, 100
2, 879030, Note_on_c, 0, 72, 0
2, 879030, Note_on_c, 0, 71, 100
2, 879060, Note_on_c, 0, 71, 0
2, 879060, Note_on_c, 0, 69, 100
2, 879090, Note_on_c, 0, 69, 0
2, 879090, Note_on_c, 0, 74, 100
2, 879210, Note_on_c, 0, 74, 0
2, 879210, Note_on_c, 0, 72, 100
2, 879240, Note_on_c, 0, 72, 0
2, 879240, Note_on_c, 0, 71, 100
2, 879270, Note_on_c, 0, 71, 0
2, 879270, Note_on_c, 0, 72, 100
2, 879330, Note_on_c, 0, 72, 0
2, 879360, Note_on_c, 0, 77, 100
2, 879420, Note_on_c, 0, 77, 0
2, 879450, Note_on_c, 0, 76, 100
2, 879510, Note_on_c, 0, 76, 0
2, 879540, Note_on_c, 0, 74, 100
2, 879600, Note_on_c, 0, 74, 0
2, 879600, Note_on_c, 0, 68, 100
2, 879630, Note_on_c, 0, 68, 0
2, 879630, Note_on_c, 0, 69, 100
2, 879690, Note_on_c, 0, 69, 0
2, 879690, Note_on_c, 0, 72, 100
2, 879720, Note_on_c, 0, 72, 0
2, 879720, Note_on_c, 0, 67, 100
2, 879735, Note_on_c, 0, 67, 0
2, 879735, Note_on_c, 0, 65, 100
2, 879750, Note_on_c, 0, 65, 0
2, 879750, Note_on_c, 0, 67, 100
2, 879765, Note_on_c, 0, 67, 0
2, 879765, Note_on_c, 0, 65, 100
2, 879780, Note_on_c, 0, 65, 0
2, 879780, Note_on_c, 0, 64, 100
2, 879795, Note_on_c, 0, 64, 0
2, 879795, Note_on_c, 0, 65, 100
2, 879810, Note_on_c, 0, 65, 0
2, 879810, Note_on_c, 0, 64, 100
2, 879870, Note_on_c, 0, 64, 0
2, 880110, Note_on_c, 0, 62, 100
2, 880140, Note_on_c, 0, 62, 0
2, 880140, Note_on_c, 0, 64, 100
2, 880170, Note_on_c, 0, 64, 0
2, 880170, Note_on_c, 0, 65, 100
2, 880200, Note_on_c, 0, 65, 0
2, 880200, Note_on_c, 0, 67, 100
2, 880230, Note_on_c, 0, 67, 0
2, 880230, Note_on_c, 0, 65, 100
2, 880260, Note_on_c, 0, 65, 0
2, 880260, Note_on_c, 0, 64, 100
2, 880380, Note_on_c, 0, 64, 0
2, 880380, Note_on_c, 0, 65, 100
2, 880410, Note_on_c, 0, 65, 0
2, 880410, Note_on_c, 0, 67, 100
2, 880440, Note_on_c, 0, 67, 0
2, 880440, Note_on_c, 0, 69, 100
2, 880470, Note_on_c, 0, 69, 0
2, 880470, Note_on_c, 0, 70, 100
2, 880500, Note_on_c, 0, 70, 0
2, 880500, Note_on_c, 0, 69, 100
2, 880530, Note_on_c, 0, 69, 0
2, 880530, Note_on_c, 0, 67, 100
2, 880560, Note_on_c, 0, 67, 0
2, 880560, Note_on_c, 0, 69, 100
2, 880590, Note_on_c, 0, 69, 0
2, 880590, Note_on_c, 0, 67, 100
2, 880620, Note_on_c, 0, 67, 0
2, 880620, Note_on_c, 0, 65, 100
2, 880650, Note_on_c, 0, 65, 0
2, 880650, Note_on_c, 0, 67, 100
2, 880680, Note_on_c, 0, 67, 0
2, 880680, Note_on_c, 0, 65, 100
2, 880710, Note_on_c, 0, 65, 0
2, 880710, Note_on_c, 0, 64, 100
2, 880740, Note_on_c, 0, 64, 0
2, 880740, Note_on_c, 0, 65, 100
2, 880770, Note_on_c, 0, 65, 0
2, 880770, Note_on_c, 0, 64, 100
2, 880800, Note_on_c, 0, 64, 0
2, 880800, Note_on_c, 0, 62, 100
2, 880830, Note_on_c, 0, 62, 0
2, 880830, Note_on_c, 0, 64, 100
2, 880860, Note_on_c, 0, 64, 0
2, 880860, Note_on_c, 0, 62, 100
2, 880890, Note_on_c, 0, 62, 0
2, 880890, Note_on_c, 0, 61, 100
2, 880950, Note_on_c, 0, 61, 0
2, 880980, Note_on_c, 0, 62, 100
2, 881040, Note_on_c, 0, 62, 0
2, 881070, Note_on_c, 0, 64, 100
2, 881130, Note_on_c, 0, 64, 0
2, 881160, Note_on_c, 0, 65, 100
2, 881310, Note_on_c, 0, 65, 0
2, 881310, Note_on_c, 0, 69, 100
2, 881340, Note_on_c, 0, 69, 0
2, 881340, Note_on_c, 0, 69, 100
2, 881355, Note_on_c, 0, 69, 0
2, 881355, Note_on_c, 0, 67, 100
2, 881370, Note_on_c, 0, 67, 0
2, 881370, Note_on_c, 0, 69, 100
2, 881385, Note_on_c, 0, 69, 0
2, 881385, Note_on_c, 0, 67, 100
2, 881400, Note_on_c, 0, 67, 0
2, 881400, Note_on_c, 0, 65, 100
2, 881430, Note_on_c, 0, 65, 0
2, 881430, Note_on_c, 0, 67, 100
2, 881460, Note_on_c, 0, 67, 0
2, 881460, Note_on_c, 0, 65, 100
2, 881490, Note_on_c, 0, 65, 0
2, 881490, Note_on_c, 0, 64, 100
2, 881520, Note_on_c, 0, 64, 0
2, 881520, Note_on_c, 0, 74, 100
2, 881535, Note_on_c, 0, 74, 0
2, 881535, Note_on_c, 0, 73, 100
2, 881550, Note_on_c, 0, 73, 0
2, 881550, Note_on_c, 0, 70, 100
2, 881565, Note_on_c, 0, 70, 0
2, 881565, Note_on_c, 0, 73, 100
2, 881580, Note_on_c, 0, 73, 0
2, 881580, Note_on_c, 0, 74, 100
2, 881595, Note_on_c, 0, 74, 0
2, 881595, Note_on_c, 0, 73, 100
2, 881610, Note_on_c, 0, 73, 0
2, 881610, Note_on_c, 0, 74, 100
2, 881625, Note_on_c, 0, 74, 0
2, 881625, Note_on_c, 0, 73, 100
2, 881640, Note_on_c, 0, 73, 0
2, 881640, Note_on_c, 0, 74, 100
2, 881655, Note_on_c, 0, 74, 0
2, 881655, Note_on_c, 0, 73, 100
2, 881670, Note_on_c, 0, 73, 0
2, 881670, Note_on_c, 0, 70, 100
2, 881685, Note_on_c, 0, 70, 0
2, 881685, Note_on_c, 0, 73, 100
2, 881700, Note_on_c, 0, 73, 0
2, 881700, Note_on_c, 0, 74, 100
2, 881730, Note_on_c, 0, 74, 0
2, 881730, Note_on_c, 0, 70, 100
2, 881760, Note_on_c, 0, 70, 0
2, 881760, Note_on_c, 0, 79, 100
2, 881790, Note_on_c, 0, 79, 0
2, 881790, Note_on_c, 0, 72, 100
2, 881820, Note_on_c, 0, 72, 0
2, 881820, Note_on_c, 0, 69, 100
2, 881850, Note_on_c, 0, 69, 0
2, 881850, Note_on_c, 0, 77, 100
2, 881880, Note_on_c, 0, 77, 0
2, 881880, Note_on_c, 0, 70, 100
2, 881910, Note_on_c, 0, 70, 0
2, 881910, Note_on_c, 0, 67, 100
2, 881940, Note_on_c, 0, 67, 0
2, 881940, Note_on_c, 0, 76, 100
2, 881970, Note_on_c, 0, 76, 0
2, 881970, Note_on_c, 0, 69, 100
2, 882000, Note_on_c, 0, 69, 0
2, 882000, Note_on_c, 0, 67, 100
2, 882030, Note_on_c, 0, 67, 0
2, 882030, Note_on_c, 0, 76, 100
2, 882060, Note_on_c, 0, 76, 0
2, 882060, Note_on_c, 0, 69, 100
2, 882090, Note_on_c, 0, 69, 0
2, 882090, Note_on_c, 0, 65, 100
2, 882120, Note_on_c, 0, 65, 0
2, 882120, Note_on_c, 0, 74, 100
2, 882150, Note_on_c, 0, 74, 0
2, 882150, Note_on_c, 0, 67, 100
2, 882180, Note_on_c, 0, 67, 0
2, 882180, Note_on_c, 0, 64, 100
2, 882210, Note_on_c, 0, 64, 0
2, 882210, Note_on_c, 0, 73, 100
2, 882240, Note_on_c, 0, 73, 0
2, 882240, Note_on_c, 0, 74, 100
2, 882270, Note_on_c, 0, 74, 0
2, 882270, Note_on_c, 0, 69, 100
2, 882300, Note_on_c, 0, 69, 0
2, 882300, Note_on_c, 0, 65, 100
2, 882330, Note_on_c, 0, 65, 0
2, 882330, Note_on_c, 0, 62, 100
2, 882360, Note_on_c, 0, 62, 0
2, 882360, Note_on_c, 0, 64, 100
2, 882390, Note_on_c, 0, 64, 0
2, 882390, Note_on_c, 0, 65, 100
2, 882420, Note_on_c, 0, 65, 0
2, 882420, Note_on_c, 0, 64, 100
2, 882450, Note_on_c, 0, 64, 0
2, 882450, Note_on_c, 0, 65, 100
2, 882480, Note_on_c, 0, 65, 0
2, 882480, Note_on_c, 0, 62, 100
2, 882510, Note_on_c, 0, 62, 0
2, 882510, Note_on_c, 0, 64, 100
2, 882630, Note_on_c, 0, 64, 0
2, 882630, Note_on_c, 0, 65, 100
2, 882660, Note_on_c, 0, 65, 0
2, 882660, Note_on_c, 0, 67, 100
2, 882690, Note_on_c, 0, 67, 0
2, 882690, Note_on_c, 0, 65, 100
2, 882720, Note_on_c, 0, 65, 0
2, 882720, Note_on_c, 0, 67, 100
2, 882750, Note_on_c, 0, 67, 0
2, 882750, Note_on_c, 0, 64, 100
2, 882780, Note_on_c, 0, 64, 0
2, 882780, Note_on_c, 0, 65, 100
2, 882840, Note_on_c, 0, 65, 0
2, 882870, Note_on_c, 0, 64, 100
2, 882930, Note_on_c, 0, 64, 0
2, 882960, Note_on_c, 0, 62, 100
2, 883020, Note_on_c, 0, 62, 0
2, 883050, Note_on_c, 0, 61, 100
2, 883110, Note_on_c, 0, 61, 0
2, 883140, Note_on_c, 0, 62, 100
2, 883200, Note_on_c, 0, 62, 0
2, 883230, Note_on_c, 0, 64, 100
2, 883290, Note_on_c, 0, 64, 0
2, 883320, Note_on_c, 0, 65, 100
2, 883350, Note_on_c, 0, 65, 0
2, 883350, Note_on_c, 0, 64, 100
2, 883380, Note_on_c, 0, 64, 0
2, 883380, Note_on_c, 0, 62, 100
2, 883410, Note_on_c, 0, 62, 0
2, 883410, Note_on_c, 0, 70, 100
2, 883440, Note_on_c, 0, 70, 0
2, 883440, Note_on_c, 0, 69, 100
2, 883470, Note_on_c, 0, 69, 0
2, 883470, Note_on_c, 0, 67, 100
2, 883500, Note_on_c, 0, 67, 0
2, 883500, Note_on_c, 0, 73, 100
2, 883560, Note_on_c, 0, 73, 0
2, 883620, Note_on_c, 0, 67, 100
2, 883650, Note_on_c, 0, 67, 0
2, 883650, Note_on_c, 0, 62, 100
2, 883680, Note_on_c, 0, 62, 0
2, 883680, Note_on_c, 0, 61, 100
2, 883710, Note_on_c, 0, 61, 0
2, 883710, Note_on_c, 0, 62, 100
2, 883740, Note_on_c, 0, 62, 0
2, 883740, Note_on_c, 0, 64, 100
2, 883770, Note_on_c, 0, 64, 0
2, 883770, Note_on_c, 0, 57, 100
2, 883800, Note_on_c, 0, 57, 0
2, 883800, Note_on_c, 0, 59, 100
2, 883830, Note_on_c, 0, 59, 0
2, 883830, Note_on_c, 0, 61, 100
2, 883860, Note_on_c, 0, 61, 0
2, 883860, Note_on_c, 0, 62, 100
2, 883890, Note_on_c, 0, 62, 0
2, 883890, Note_on_c, 0, 55, 100
2, 883920, Note_on_c, 0, 55, 0
2, 883920, Note_on_c, 0, 58, 100
2, 883950, Note_on_c, 0, 58, 0
2, 883950, Note_on_c, 0, 60, 100
2, 883980, Note_on_c, 0, 60, 0
2, 883980, Note_on_c, 0, 53, 100
2, 884010, Note_on_c, 0, 53, 0
2, 884010, Note_on_c, 0, 57, 100
2, 884040, Note_on_c, 0, 57, 0
2, 884040, Note_on_c, 0, 58, 100
2, 884070, Note_on_c, 0, 58, 0
2, 884070, Note_on_c, 0, 52, 100
2, 884100, Note_on_c, 0, 52, 0
2, 884100, Note_on_c, 0, 55, 100
2, 884130, Note_on_c, 0, 55, 0
2, 884130, Note_on_c, 0, 57, 100
2, 884160, Note_on_c, 0, 57, 0
2, 884160, Note_on_c, 0, 69, 100
2, 884190, Note_on_c, 0, 69, 0
2, 884190, Note_on_c, 0, 67, 100
2, 884220, Note_on_c, 0, 67, 0
2, 884220, Note_on_c, 0, 65, 100
2, 884250, Note_on_c, 0, 65, 0
2, 884250, Note_on_c, 0, 74, 100
2, 884280, Note_on_c, 0, 74, 0
2, 884280, Note_on_c, 0, 72, 100
2, 884310, Note_on_c, 0, 72, 0
2, 884310, Note_on_c, 0, 70, 100
2, 884340, Note_on_c, 0, 70, 0
2, 884340, Note_on_c, 0, 69, 100
2, 884370, Note_on_c, 0, 69, 0
2, 884370, Note_on_c, 0, 70, 100
2, 884400, Note_on_c, 0, 70, 0
2, 884400, Note_on_c, 0, 69, 100
2, 884490, Note_on_c, 0, 69, 0
2, 884490, Note_on_c, 0, 62, 100
2, 884520, Note_on_c, 0, 62, 0
2, 884520, Note_on_c, 0, 61, 100
2, 884550, Note_on_c, 0, 61, 0
2, 884550, Note_on_c, 0, 62, 100
2, 884580, Note_on_c, 0, 62, 0
2, 884580, Note_on_c, 0, 64, 100
2, 884610, Note_on_c, 0, 64, 0
2, 884610, Note_on_c, 0, 62, 100
2, 884640, Note_on_c, 0, 62, 0
2, 884640, Note_on_c, 0, 64, 100
2, 884670, Note_on_c, 0, 64, 0
2, 884670, Note_on_c, 0, 65, 100
2, 884700, Note_on_c, 0, 65, 0
2, 884700, Note_on_c, 0, 64, 100
2, 884730, Note_on_c, 0, 64, 0
2, 884730, Note_on_c, 0, 65, 100
2, 884760, Note_on_c, 0, 65, 0
2, 884760, Note_on_c, 0, 67, 100
2, 884790, Note_on_c, 0, 67, 0
2, 884790, Note_on_c, 0, 65, 100
2, 884820, Note_on_c, 0, 65, 0
2, 884820, Note_on_c, 0, 67, 100
2, 884850, Note_on_c, 0, 67, 0
2, 884850, Note_on_c, 0, 69, 100
2, 884880, Note_on_c, 0, 69, 0
2, 884880, Note_on_c, 0, 67, 100
2, 884910, Note_on_c, 0, 67, 0
2, 884910, Note_on_c, 0, 69, 100
2, 884940, Note_on_c, 0, 69, 0
2, 884940, Note_on_c, 0, 70, 100
2, 885000, Note_on_c, 0, 70, 0
2, 885030, Note_on_c, 0, 69, 100
2, 885090, Note_on_c, 0, 69, 0
2, 885120, Note_on_c, 0, 67, 100
2, 885180, Note_on_c, 0, 67, 0
2, 885210, Note_on_c, 0, 67, 100
2, 885240, Note_on_c, 0, 67, 0
2, 885240, Note_on_c, 0, 65, 100
2, 885360, Note_on_c, 0, 65, 0
2, 885360, Note_on_c, 0, 64, 100
2, 885390, Note_on_c, 0, 64, 0
2, 885390, Note_on_c, 0, 65, 100
2, 885450, Note_on_c, 0, 65, 0
2, 885450, Note_on_c, 0, 67, 100
2, 885480, Note_on_c, 0, 67, 0
2, 885480, Note_on_c, 0, 69, 100
2, 885540, Note_on_c, 0, 69, 0
2, 885540, Note_on_c, 0, 79, 100
2, 885570, Note_on_c, 0, 79, 0
2, 885570, Note_on_c, 0, 77, 100
2, 885630, Note_on_c, 0, 77, 0
2, 885630, Note_on_c, 0, 69, 100
2, 885660, Note_on_c, 0, 69, 0
2, 885660, Note_on_c, 0, 67, 100
2, 885720, Note_on_c, 0, 67, 0
2, 885720, Note_on_c, 0, 76, 100
2, 885750, Note_on_c, 0, 76, 0
2, 885750, Note_on_c, 0, 74, 100
2, 885810, Note_on_c, 0, 74, 0
2, 885810, Note_on_c, 0, 65, 100
2, 885840, Note_on_c, 0, 65, 0
2, 885840, Note_on_c, 0, 64, 100
2, 885900, Note_on_c, 0, 64, 0
2, 885900, Note_on_c, 0, 74, 100
2, 885930, Note_on_c, 0, 74, 0
2, 885930, Note_on_c, 0, 73, 100
2, 885990, Note_on_c, 0, 73, 0
2, 885990, Note_on_c, 0, 64, 100
2, 886020, Note_on_c, 0, 64, 0
2, 886020, Note_on_c, 0, 64, 100
2, 886050, Note_on_c, 0, 64, 0
2, 886050, Note_on_c, 0, 62, 100
2, 886080, Note_on_c, 0, 62, 0
2, 886080, Note_on_c, 0, 61, 100
2, 886110, Note_on_c, 0, 61, 0
2, 886110, Note_on_c, 0, 62, 100
2, 886140, Note_on_c, 0, 62, 0
2, 886140, Note_on_c, 0, 64, 100
2, 886170, Note_on_c, 0, 64, 0
2, 886170, Note_on_c, 0, 65, 100
2, 886200, Note_on_c, 0, 65, 0
2, 886200, Note_on_c, 0, 67, 100
2, 886230, Note_on_c, 0, 67, 0
2, 886230, Note_on_c, 0, 69, 100
2, 886260, Note_on_c, 0, 69, 0
2, 886260, Note_on_c, 0, 70, 100
2, 886290, Note_on_c, 0, 70, 0
2, 886290, Note_on_c, 0, 70, 100
2, 886320, Note_on_c, 0, 70, 0
2, 886320, Note_on_c, 0, 69, 100
2, 886350, Note_on_c, 0, 69, 0
2, 886350, Note_on_c, 0, 67, 100
2, 886380, Note_on_c, 0, 67, 0
2, 886380, Note_on_c, 0, 69, 100
2, 886410, Note_on_c, 0, 69, 0
2, 886410, Note_on_c, 0, 71, 100
2, 886440, Note_on_c, 0, 71, 0
2, 886440, Note_on_c, 0, 73, 100
2, 886470, Note_on_c, 0, 73, 0
2, 886470, Note_on_c, 0, 74, 100
2, 886500, Note_on_c, 0, 74, 0
2, 886500, Note_on_c, 0, 76, 100
2, 886530, Note_on_c, 0, 76, 0
2, 886530, Note_on_c, 0, 77, 100
2, 886560, Note_on_c, 0, 77, 0
2, 886560, Note_on_c, 0, 77, 100
2, 886590, Note_on_c, 0, 77, 0
2, 886590, Note_on_c, 0, 74, 100
2, 886620, Note_on_c, 0, 74, 0
2, 886620, Note_on_c, 0, 76, 100
2, 886650, Note_on_c, 0, 76, 0
2, 886650, Note_on_c, 0, 76, 100
2, 886680, Note_on_c, 0, 76, 0
2, 886680, Note_on_c, 0, 73, 100
2, 886710, Note_on_c, 0, 73, 0
2, 886710, Note_on_c, 0, 74, 100
2, 886740, Note_on_c, 0, 74, 0
2, 886740, Note_on_c, 0, 74, 100
2, 886770, Note_on_c, 0, 74, 0
2, 886770, Note_on_c, 0, 71, 100
2, 886800, Note_on_c, 0, 71, 0
2, 886800, Note_on_c, 0, 72, 100
2, 886830, Note_on_c, 0, 72, 0
2, 886830, Note_on_c, 0, 72, 100
2, 886860, Note_on_c, 0, 72, 0
2, 886860, Note_on_c, 0, 69, 100
2, 886890, Note_on_c, 0, 69, 0
2, 886890, Note_on_c, 0, 70, 100
2, 886920, Note_on_c, 0, 70, 0
2, 886920, Note_on_c, 0, 70, 100
2, 886950, Note_on_c, 0, 70, 0
2, 886950, Note_on_c, 0, 67, 100
2, 886980, Note_on_c, 0, 67, 0
2, 886980, Note_on_c, 0, 69, 100
2, 887010, Note_on_c, 0, 69, 0
2, 887010, Note_on_c, 0, 69, 100
2, 887040, Note_on_c, 0, 69, 0
2, 887040, Note_on_c, 0, 65, 100
2, 887070, Note_on_c, 0, 65, 0
2, 887070, Note_on_c, 0, 67, 100
2, 887100, Note_on_c, 0, 67, 0
2, 887100, Note_on_c, 0, 67, 100
2, 887130, Note_on_c, 0, 67, 0
2, 887130, Note_on_c, 0, 65, 100
2, 887220, Note_on_c, 0, 65, 0
2, 887220, Note_on_c, 0, 67, 100
2, 887250, Note_on_c, 0, 67, 0
2, 887250, Note_on_c, 0, 69, 100
2, 887280, Note_on_c, 0, 69, 0
2, 887280, Note_on_c, 0, 70, 100
2, 887310, Note_on_c, 0, 70, 0
2, 887310, Note_on_c, 0, 69, 100
2, 887340, Note_on_c, 0, 69, 0
2, 887340, Note_on_c, 0, 67, 100
2, 887370, Note_on_c, 0, 67, 0
2, 887370, Note_on_c, 0, 74, 100
2, 887400, Note_on_c, 0, 74, 0
2, 887400, Note_on_c, 0, 73, 100
2, 887490, Note_on_c, 0, 73, 0
2, 887490, Note_on_c, 0, 74, 100
2, 887520, Note_on_c, 0, 74, 0
2, 887520, Note_on_c, 0, 76, 100
2, 887550, Note_on_c, 0, 76, 0
2, 887550, Note_on_c, 0, 77, 100
2, 887580, Note_on_c, 0, 77, 0
2, 887580, Note_on_c, 0, 76, 100
2, 887610, Note_on_c, 0, 76, 0
2, 887610, Note_on_c, 0, 74, 100
2, 887640, Note_on_c, 0, 74, 0
2, 887640, Note_on_c, 0, 81, 100
2, 887655, Note_on_c, 0, 81, 0
2, 887655, Note_on_c, 0, 80, 100
2, 887670, Note_on_c, 0, 80, 0
2, 887670, Note_on_c, 0, 78, 100
2, 887685, Note_on_c, 0, 78, 0
2, 887685, Note_on_c, 0, 80, 100
2, 887700, Note_on_c, 0, 80, 0
2, 887700, Note_on_c, 0, 81, 100
2, 887715, Note_on_c, 0, 81, 0
2, 887715, Note_on_c, 0, 80, 100
2, 887730, Note_on_c, 0, 80, 0
2, 887730, Note_on_c, 0, 81, 100
2, 887745, Note_on_c, 0, 81, 0
2, 887745, Note_on_c, 0, 80, 100
2, 887760, Note_on_c, 0, 80, 0
2, 887760, Note_on_c, 0, 81, 100
2, 887775, Note_on_c, 0, 81, 0
2, 887775, Note_on_c, 0, 80, 100
2, 887790, Note_on_c, 0, 80, 0
2, 887790, Note_on_c, 0, 81, 100
2, 887805, Note_on_c, 0, 81, 0
2, 887805, Note_on_c, 0, 80, 100
2, 887820, Note_on_c, 0, 80, 0
2, 887820, Note_on_c, 0, 81, 100
2, 887835, Note_on_c, 0, 81, 0
2, 887835, Note_on_c, 0, 80, 100
2, 887850, Note_on_c, 0, 80, 0
2, 887850, Note_on_c, 0, 81, 100
2, 887865, Note_on_c, 0, 81, 0
2, 887865, Note_on_c, 0, 80, 100
2, 887880, Note_on_c, 0, 80, 0
2, 887880, Note_on_c, 0, 78, 100
2, 887895, Note_on_c, 0, 78, 0
2, 887895, Note_on_c, 0, 80, 100
2, 887910, Note_on_c, 0, 80, 0
2, 887910, Note_on_c, 0, 81, 100
2, 887970, Note_on_c, 0, 81, 0
2, 888060, Note_on_c, 0, 73, 100
2, 888090, Note_on_c, 0, 73, 0
2, 888090, Note_on_c, 0, 74, 100
2, 888150, Note_on_c, 0, 74, 0
2, 888150, Note_on_c, 0, 76, 100
2, 888180, Note_on_c, 0, 76, 0
2, 888180, Note_on_c, 0, 69, 100
2, 888210, Note_on_c, 0, 69, 0
2, 888210, Note_on_c, 0, 71, 100
2, 888240, Note_on_c, 0, 71, 0
2, 888240, Note_on_c, 0, 73, 100
2, 888270, Note_on_c, 0, 73, 0
2, 888270, Note_on_c, 0, 74, 100
2, 888300, Note_on_c, 0, 74, 0
2, 888300, Note_on_c, 0, 76, 100
2, 888330, Note_on_c, 0, 76, 0
2, 888330, Note_on_c, 0, 77, 100
2, 888360, Note_on_c, 0, 77, 0
2, 888360, Note_on_c, 0, 67, 100
2, 888480, Note_on_c, 0, 67, 0
2, 888480, Note_on_c, 0, 79, 100
2, 888510, Note_on_c, 0, 79, 0
2, 888510, Note_on_c, 0, 77, 100
2, 888540, Note_on_c, 0, 77, 0
2, 888540, Note_on_c, 0, 76, 100
2, 888570, Note_on_c, 0, 76, 0
2, 888570, Note_on_c, 0, 74, 100
2, 888600, Note_on_c, 0, 74, 0
2, 888600, Note_on_c, 0, 73, 100
2, 888630, Note_on_c, 0, 73, 0
2, 888630, Note_on_c, 0, 74, 100
2, 888750, Note_on_c, 0, 74, 0
2, 888750, Note_on_c, 0, 71, 100
2, 888780, Note_on_c, 0, 71, 0
2, 888780, Note_on_c, 0, 73, 100
2, 888810, Note_on_c, 0, 73, 0
2, 888810, Note_on_c, 0, 74, 100
2, 888840, Note_on_c, 0, 74, 0
2, 888840, Note_on_c, 0, 76, 100
2, 888870, Note_on_c, 0, 76, 0
2, 888870, Note_on_c, 0, 77, 100
2, 888900, Note_on_c, 0, 77, 0
2, 888900, Note_on_c, 0, 76, 100
2, 888930, Note_on_c, 0, 76, 0
2, 888930, Note_on_c, 0, 77, 100
2, 888960, Note_on_c, 0, 77, 0
2, 888960, Note_on_c, 0, 74, 100
2, 888990, Note_on_c, 0, 74, 0
2, 888990, Note_on_c, 0, 73, 100
2, 889020, Note_on_c, 0, 73, 0
2, 889020, Note_on_c, 0, 74, 100
2, 889050, Note_on_c, 0, 74, 0
2, 889050, Note_on_c, 0, 76, 100
2, 889080, Note_on_c, 0, 76, 0
2, 889080, Note_on_c, 0, 69, 100
2, 889200, Note_on_c, 0, 69, 0
2, 889200, Note_on_c, 0, 70, 100
2, 889230, Note_on_c, 0, 70, 0
2, 889230, Note_on_c, 0, 67, 100
2, 889260, Note_on_c, 0, 67, 0
2, 889260, Note_on_c, 0, 65, 100
2, 889290, Note_on_c, 0, 65, 0
2, 889290, Note_on_c, 0, 67, 100
2, 889320, Note_on_c, 0, 67, 0
2, 889320, Note_on_c, 0, 64, 100
2, 889350, Note_on_c, 0, 64, 0
2, 889350, Note_on_c, 0, 65, 100
2, 889380, Note_on_c, 0, 65, 0
2, 889380, Note_on_c, 0, 69, 100
2, 889410, Note_on_c, 0, 69, 0
2, 889410, Note_on_c, 0, 74, 100
2, 889440, Note_on_c, 0, 74, 0
2, 889440, Note_on_c, 0, 72, 100
2, 889470, Note_on_c, 0, 72, 0
2, 889470, Note_on_c, 0, 70, 100
2, 889500, Note_on_c, 0, 70, 0
2, 889500, Note_on_c, 0, 69, 100
2, 889530, Note_on_c, 0, 69, 0
2, 889530, Note_on_c, 0, 70, 100
2, 889560, Note_on_c, 0, 70, 0
2, 889560, Note_on_c, 0, 74, 100
2, 889590, Note_on_c, 0, 74, 0
2, 889590, Note_on_c, 0, 79, 100
2, 889620, Note_on_c, 0, 79, 0
2, 889620, Note_on_c, 0, 73, 100
2, 889650, Note_on_c, 0, 73, 0
2, 889650, Note_on_c, 0, 76, 100
2, 889680, Note_on_c, 0, 76, 0
2, 889680, Note_on_c, 0, 69, 100
2, 889710, Note_on_c, 0, 69, 0
2, 889710, Note_on_c, 0, 70, 100
2, 889740, Note_on_c, 0, 70, 0
2, 889740, Note_on_c, 0, 69, 100
2, 889770, Note_on_c, 0, 69, 0
2, 889770, Note_on_c, 0, 67, 100
2, 889800, Note_on_c, 0, 67, 0
2, 889800, Note_on_c, 0, 65, 100
2, 889830, Note_on_c, 0, 65, 0
2, 889830, Note_on_c, 0, 67, 100
2, 889860, Note_on_c, 0, 67, 0
2, 889860, Note_on_c, 0, 64, 100
2, 889890, Note_on_c, 0, 64, 0
2, 889890, Note_on_c, 0, 65, 100
2, 889950, Note_on_c, 0, 65, 0
2, 889950, Note_on_c, 0, 74, 100
2, 889980, Note_on_c, 0, 74, 0
2, 889980, Note_on_c, 0, 67, 100
2, 890040, Note_on_c, 0, 67, 0
2, 890040, Note_on_c, 0, 65, 100
2, 890070, Note_on_c, 0, 65, 0
2, 890070, Note_on_c, 0, 64, 100
2, 890100, Note_on_c, 0, 64, 0
2, 890100, Note_on_c, 0, 69, 100
2, 890130, Note_on_c, 0, 69, 0
2, 890130, Note_on_c, 0, 67, 100
2, 890160, Note_on_c, 0, 67, 0
2, 890160, Note_on_c, 0, 65, 100
2, 890190, Note_on_c, 0, 65, 0
2, 890190, Note_on_c, 0, 64, 100
2, 890220, Note_on_c, 0, 64, 0
2, 890220, Note_on_c, 0, 62, 100
2, 890250, Note_on_c, 0, 62, 0
2, 890250, Note_on_c, 0, 62, 100
2, 890265, Note_on_c, 0, 62, 0
2, 890265, Note_on_c, 0, 61, 100
2, 890280, Note_on_c, 0, 61, 0
2, 890280, Note_on_c, 0, 62, 100
2, 890295, Note_on_c, 0, 62, 0
2, 890295, Note_on_c, 0, 61, 100
2, 890310, Note_on_c, 0, 61, 0
2, 890310, Note_on_c, 0, 62, 100
2, 890325, Note_on_c, 0, 62, 0
2, 890325, Note_on_c, 0, 61, 100
2, 890340, Note_on_c, 0, 61, 0
2, 890340, Note_on_c, 0, 62, 100
2, 890400, Note_on_c, 0, 62, 0
2, 890490, Note_on_c, 0, 70, 100
2, 890520, Note_on_c, 0, 70, 0
2, 890520, Note_on_c, 0, 69, 100
2, 890580, Note_on_c, 0, 69, 0
2, 890580, Note_on_c, 0, 77, 100
2, 890610, Note_on_c, 0, 77, 0
2, 890610, Note_on_c, 0, 67, 100
2, 890640, Note_on_c, 0, 67, 0
2, 890640, Note_on_c, 0, 69, 100
2, 890670, Note_on_c, 0, 69, 0
2, 890670, Note_on_c, 0, 70, 100
2, 890700, Note_on_c, 0, 70, 0
2, 890700, Note_on_c, 0, 69, 100
2, 890730, Note_on_c, 0, 69, 0
2, 890730, Note_on_c, 0, 73, 100
2, 890760, Note_on_c, 0, 73, 0
2, 890760, Note_on_c, 0, 76, 100
2, 890790, Note_on_c, 0, 76, 0
2, 890790, Note_on_c, 0, 79, 100
2, 890820, Note_on_c, 0, 79, 0
2, 890820, Note_on_c, 0, 77, 100
2, 890850, Note_on_c, 0, 77, 0
2, 890850, Note_on_c, 0, 76, 100
2, 890880, Note_on_c, 0, 76, 0
2, 890880, Note_on_c, 0, 81, 100
2, 890940, Note_on_c, 0, 81, 0
2, 890940, Note_on_c, 0, 73, 100
2, 890970, Note_on_c, 0, 73, 0
2, 890970, Note_on_c, 0, 74, 100
2, 891000, Note_on_c, 0, 74, 0
2, 891000, Note_on_c, 0, 76, 100
2, 891030, Note_on_c, 0, 76, 0
2, 891030, Note_on_c, 0, 77, 100
2, 891060, Note_on_c, 0, 77, 0
2, 891060, Note_on_c, 0, 70, 100
2, 891090, Note_on_c, 0, 70, 0
2, 891090, Note_on_c, 0, 75, 100
2, 891120, Note_on_c, 0, 75, 0
2, 891120, Note_on_c, 0, 74, 100
2, 891150, Note_on_c, 0, 74, 0
2, 891150, Note_on_c, 0, 73, 100
2, 891180, Note_on_c, 0, 73, 0
2, 891180, Note_on_c, 0, 74, 100
2, 891210, Note_on_c, 0, 74, 0
2, 891210, Note_on_c, 0, 76, 100
2, 891240, Note_on_c, 0, 76, 0
2, 891240, Note_on_c, 0, 69, 100
2, 891300, Note_on_c, 0, 69, 0
2, 891330, Note_on_c, 0, 45, 100
2, 891390, Note_on_c, 0, 45, 0
2, 891420, Note_on_c, 0, 38, 100
2, 891600, Note_on_c, 0, 38, 0
2, 894570, Note_on_c, 0, 72, 100
2, 894750, Note_on_c, 0, 72, 0
2, 894750, Note_on_c, 0, 65, 100
2, 895110, Note_on_c, 0, 65, 0
2, 895110, Note_on_c, 0, 69, 100
2, 895470, Note_on_c, 0, 69, 0
2, 895470, Note_on_c, 0, 72, 100
2, 895830, Note_on_c, 0, 72, 0
2, 895830, Note_on_c, 0, 74, 100
2, 896190, Note_on_c, 0, 74, 0
2, 896190, Note_on_c, 0, 72, 100
2, 896550, Note_on_c, 0, 72, 0
2, 896550, Note_on_c, 0, 70, 100
2, 896910, Note_on_c, 0, 70, 0
2, 896910, Note_on_c, 0, 69, 100
2, 897210, Note_on_c, 0, 69, 0
2, 897210, Note_on_c, 0, 67, 100
2, 897270, Note_on_c, 0, 67, 0
2, 897270, Note_on_c, 0, 69, 100
2, 897390, Note_on_c, 0, 69, 0
2, 897390, Note_on_c, 0, 71, 100
2, 897450, Note_on_c, 0, 71, 0
2, 897450, Note_on_c, 0, 72, 100
2, 897510, Note_on_c, 0, 72, 0
2, 897510, Note_on_c, 0, 70, 100
2, 897570, Note_on_c, 0, 70, 0
2, 897570, Note_on_c, 0, 72, 100
2, 897630, Note_on_c, 0, 72, 0
2, 897630, Note_on_c, 0, 74, 100
2, 897690, Note_on_c, 0, 74, 0
2, 897690, Note_on_c, 0, 72, 100
2, 897750, Note_on_c, 0, 72, 0
2, 897750, Note_on_c, 0, 70, 100
2, 897810, Note_on_c, 0, 70, 0
2, 897810, Note_on_c, 0, 69, 100
2, 897870, Note_on_c, 0, 69, 0
2, 897870, Note_on_c, 0, 70, 100
2, 897930, Note_on_c, 0, 70, 0
2, 897930, Note_on_c, 0, 67, 100
2, 897990, Note_on_c, 0, 67, 0
2, 897990, Note_on_c, 0, 65, 100
2, 898050, Note_on_c, 0, 65, 0
2, 898050, Note_on_c, 0, 67, 100
2, 898110, Note_on_c, 0, 67, 0
2, 898110, Note_on_c, 0, 64, 100
2, 898170, Note_on_c, 0, 64, 0
2, 898170, Note_on_c, 0, 65, 100
2, 898230, Note_on_c, 0, 65, 0
2, 898230, Note_on_c, 0, 72, 100
2, 898290, Note_on_c, 0, 72, 0
2, 898290, Note_on_c, 0, 77, 100
2, 898350, Note_on_c, 0, 77, 0
2, 898350, Note_on_c, 0, 76, 100
2, 898410, Note_on_c, 0, 76, 0
2, 898410, Note_on_c, 0, 77, 100
2, 898470, Note_on_c, 0, 77, 0
2, 898470, Note_on_c, 0, 74, 100
2, 898530, Note_on_c, 0, 74, 0
2, 898530, Note_on_c, 0, 72, 100
2, 898590, Note_on_c, 0, 72, 0
2, 898590, Note_on_c, 0, 74, 100
2, 898650, Note_on_c, 0, 74, 0
2, 898650, Note_on_c, 0, 70, 100
2, 898710, Note_on_c, 0, 70, 0
2, 898710, Note_on_c, 0, 69, 100
2, 898770, Note_on_c, 0, 69, 0
2, 898770, Note_on_c, 0, 70, 100
2, 898830, Note_on_c, 0, 70, 0
2, 898830, Note_on_c, 0, 67, 100
2, 898890, Note_on_c, 0, 67, 0
2, 898890, Note_on_c, 0, 69, 100
2, 898950, Note_on_c, 0, 69, 0
2, 898950, Note_on_c, 0, 65, 100
2, 899010, Note_on_c, 0, 65, 0
2, 899010, Note_on_c, 0, 67, 100
2, 899070, Note_on_c, 0, 67, 0
2, 899070, Note_on_c, 0, 69, 100
2, 899130, Note_on_c, 0, 69, 0
2, 899130, Note_on_c, 0, 67, 100
2, 899190, Note_on_c, 0, 67, 0
2, 899190, Note_on_c, 0, 69, 100
2, 899250, Note_on_c, 0, 69, 0
2, 899250, Note_on_c, 0, 70, 100
2, 899310, Note_on_c, 0, 70, 0
2, 899310, Note_on_c, 0, 72, 100
2, 899370, Note_on_c, 0, 72, 0
2, 899370, Note_on_c, 0, 74, 100
2, 899430, Note_on_c, 0, 74, 0
2, 899430, Note_on_c, 0, 76, 100
2, 899490, Note_on_c, 0, 76, 0
2, 899490, Note_on_c, 0, 77, 100
2, 899550, Note_on_c, 0, 77, 0
2, 899550, Note_on_c, 0, 76, 100
2, 899610, Note_on_c, 0, 76, 0
2, 899610, Note_on_c, 0, 77, 100
2, 899670, Note_on_c, 0, 77, 0
2, 899670, Note_on_c, 0, 65, 100
2, 899730, Note_on_c, 0, 65, 0
2, 899730, Note_on_c, 0, 77, 100
2, 899850, Note_on_c, 0, 77, 0
2, 899850, Note_on_c, 0, 76, 100
2, 899910, Note_on_c, 0, 76, 0
2, 899910, Note_on_c, 0, 79, 100
2, 899970, Note_on_c, 0, 79, 0
2, 899970, Note_on_c, 0, 77, 100
2, 900030, Note_on_c, 0, 77, 0
2, 900030, Note_on_c, 0, 79, 100
2, 900090, Note_on_c, 0, 79, 0
2, 900090, Note_on_c, 0, 81, 100
2, 900150, Note_on_c, 0, 81, 0
2, 900150, Note_on_c, 0, 79, 100
2, 900210, Note_on_c, 0, 79, 0
2, 900210, Note_on_c, 0, 81, 100
2, 900270, Note_on_c, 0, 81, 0
2, 900270, Note_on_c, 0, 77, 100
2, 900330, Note_on_c, 0, 77, 0
2, 900330, Note_on_c, 0, 76, 100
2, 900510, Note_on_c, 0, 76, 0
2, 900510, Note_on_c, 0, 69, 100
2, 900870, Note_on_c, 0, 69, 0
2, 900870, Note_on_c, 0, 72, 100
2, 901230, Note_on_c, 0, 72, 0
2, 901230, Note_on_c, 0, 76, 100
2, 901590, Note_on_c, 0, 76, 0
2, 901590, Note_on_c, 0, 77, 100
2, 901950, Note_on_c, 0, 77, 0
2, 901950, Note_on_c, 0, 76, 100
2, 902310, Note_on_c, 0, 76, 0
2, 902310, Note_on_c, 0, 74, 100
2, 902670, Note_on_c, 0, 74, 0
2, 902670, Note_on_c, 0, 72, 100
2, 902970, Note_on_c, 0, 72, 0
2, 902970, Note_on_c, 0, 71, 100
2, 903030, Note_on_c, 0, 71, 0
2, 903030, Note_on_c, 0, 72, 100
2, 903150, Note_on_c, 0, 72, 0
2, 903150, Note_on_c, 0, 74, 100
2, 903210, Note_on_c, 0, 74, 0
2, 903210, Note_on_c, 0, 76, 100
2, 903270, Note_on_c, 0, 76, 0
2, 903270, Note_on_c, 0, 74, 100
2, 903330, Note_on_c, 0, 74, 0
2, 903330, Note_on_c, 0, 76, 100
2, 903450, Note_on_c, 0, 76, 0
2, 903450, Note_on_c, 0, 77, 100
2, 903510, Note_on_c, 0, 77, 0
2, 903510, Note_on_c, 0, 79, 100
2, 903570, Note_on_c, 0, 79, 0
2, 903570, Note_on_c, 0, 77, 100
2, 903630, Note_on_c, 0, 77, 0
2, 903630, Note_on_c, 0, 79, 100
2, 903690, Note_on_c, 0, 79, 0
2, 903690, Note_on_c, 0, 81, 100
2, 903750, Note_on_c, 0, 81, 0
2, 903750, Note_on_c, 0, 79, 100
2, 903810, Note_on_c, 0, 79, 0
2, 903810, Note_on_c, 0, 81, 100
2, 903870, Note_on_c, 0, 81, 0
2, 903870, Note_on_c, 0, 82, 100
2, 903930, Note_on_c, 0, 82, 0
2, 903930, Note_on_c, 0, 81, 100
2, 903990, Note_on_c, 0, 81, 0
2, 903990, Note_on_c, 0, 82, 100
2, 904050, Note_on_c, 0, 82, 0
2, 904050, Note_on_c, 0, 84, 100
2, 904110, Note_on_c, 0, 84, 0
2, 904110, Note_on_c, 0, 82, 100
2, 904170, Note_on_c, 0, 82, 0
2, 904170, Note_on_c, 0, 84, 100
2, 904230, Note_on_c, 0, 84, 0
2, 904230, Note_on_c, 0, 86, 100
2, 904290, Note_on_c, 0, 86, 0
2, 904290, Note_on_c, 0, 84, 100
2, 904350, Note_on_c, 0, 84, 0
2, 904350, Note_on_c, 0, 82, 100
2, 904410, Note_on_c, 0, 82, 0
2, 904410, Note_on_c, 0, 84, 100
2, 904530, Note_on_c, 0, 84, 0
2, 904530, Note_on_c, 0, 81, 100
2, 904590, Note_on_c, 0, 81, 0
2, 904590, Note_on_c, 0, 77, 100
2, 904650, Note_on_c, 0, 77, 0
2, 904650, Note_on_c, 0, 74, 100
2, 904710, Note_on_c, 0, 74, 0
2, 904710, Note_on_c, 0, 72, 100
2, 904770, Note_on_c, 0, 72, 0
2, 904770, Note_on_c, 0, 74, 100
2, 904890, Note_on_c, 0, 74, 0
2, 904890, Note_on_c, 0, 82, 100
2, 904950, Note_on_c, 0, 82, 0
2, 904950, Note_on_c, 0, 74, 100
2, 905010, Note_on_c, 0, 74, 0
2, 905010, Note_on_c, 0, 72, 100
2, 905070, Note_on_c, 0, 72, 0
2, 905070, Note_on_c, 0, 70, 100
2, 905130, Note_on_c, 0, 70, 0
2, 905130, Note_on_c, 0, 72, 100
2, 905250, Note_on_c, 0, 72, 0
2, 905250, Note_on_c, 0, 81, 100
2, 905310, Note_on_c, 0, 81, 0
2, 905310, Note_on_c, 0, 72, 100
2, 905370, Note_on_c, 0, 72, 0
2, 905370, Note_on_c, 0, 70, 100
2, 905430, Note_on_c, 0, 70, 0
2, 905430, Note_on_c, 0, 69, 100
2, 905490, Note_on_c, 0, 69, 0
2, 905490, Note_on_c, 0, 70, 100
2, 905610, Note_on_c, 0, 70, 0
2, 905610, Note_on_c, 0, 79, 100
2, 905670, Note_on_c, 0, 79, 0
2, 905670, Note_on_c, 0, 70, 100
2, 905730, Note_on_c, 0, 70, 0
2, 905730, Note_on_c, 0, 69, 100
2, 905790, Note_on_c, 0, 69, 0
2, 905790, Note_on_c, 0, 67, 100
2, 905850, Note_on_c, 0, 67, 0
2, 905850, Note_on_c, 0, 69, 100
2, 905970, Note_on_c, 0, 69, 0
2, 905970, Note_on_c, 0, 67, 100
2, 906030, Note_on_c, 0, 67, 0
2, 906030, Note_on_c, 0, 65, 100
2, 906090, Note_on_c, 0, 65, 0
2, 906090, Note_on_c, 0, 70, 100
2, 906210, Note_on_c, 0, 70, 0
2, 906210, Note_on_c, 0, 67, 100
2, 906270, Note_on_c, 0, 67, 0
2, 906270, Note_on_c, 0, 64, 100
2, 906450, Note_on_c, 0, 64, 0
2, 906630, Note_on_c, 0, 76, 100
2, 906870, Note_on_c, 0, 76, 0
2, 906870, Note_on_c, 0, 74, 100
2, 906900, Note_on_c, 0, 74, 0
2, 906900, Note_on_c, 0, 73, 100
2, 906930, Note_on_c, 0, 73, 0
2, 906930, Note_on_c, 0, 71, 100
2, 906960, Note_on_c, 0, 71, 0
2, 906960, Note_on_c, 0, 69, 100
2, 906990, Note_on_c, 0, 69, 0
2, 906990, Note_on_c, 0, 79, 100
2, 907290, Note_on_c, 0, 79, 0
2, 907290, Note_on_c, 0, 76, 100
2, 907350, Note_on_c, 0, 76, 0
2, 907350, Note_on_c, 0, 81, 100
2, 907710, Note_on_c, 0, 81, 0
2, 907710, Note_on_c, 0, 80, 100
2, 907890, Note_on_c, 0, 80, 0
2, 907890, Note_on_c, 0, 79, 100
2, 908070, Note_on_c, 0, 79, 0
2, 908070, Note_on_c, 0, 78, 100
2, 908250, Note_on_c, 0, 78, 0
2, 908250, Note_on_c, 0, 77, 100
2, 908430, Note_on_c, 0, 77, 0
2, 908430, Note_on_c, 0, 76, 100
2, 908730, Note_on_c, 0, 76, 0
2, 908730, Note_on_c, 0, 81, 100
2, 908790, Note_on_c, 0, 81, 0
2, 908790, Note_on_c, 0, 74, 100
2, 908850, Note_on_c, 0, 74, 0
2, 908850, Note_on_c, 0, 76, 100
2, 908910, Note_on_c, 0, 76, 0
2, 908910, Note_on_c, 0, 77, 100
2, 909030, Note_on_c, 0, 77, 0
2, 909030, Note_on_c, 0, 76, 100
2, 909060, Note_on_c, 0, 76, 0
2, 909060, Note_on_c, 0, 74, 100
2, 909090, Note_on_c, 0, 74, 0
2, 909090, Note_on_c, 0, 76, 100
2, 909150, Note_on_c, 0, 76, 0
2, 909210, Note_on_c, 0, 86, 100
2, 909240, Note_on_c, 0, 86, 0
2, 909240, Note_on_c, 0, 84, 100
2, 909270, Note_on_c, 0, 84, 0
2, 909270, Note_on_c, 0, 82, 100
2, 909300, Note_on_c, 0, 82, 0
2, 909300, Note_on_c, 0, 81, 100
2, 909330, Note_on_c, 0, 81, 0
2, 909330, Note_on_c, 0, 79, 100
2, 909360, Note_on_c, 0, 79, 0
2, 909360, Note_on_c, 0, 81, 100
2, 909390, Note_on_c, 0, 81, 0
2, 909390, Note_on_c, 0, 82, 100
2, 909420, Note_on_c, 0, 82, 0
2, 909420, Note_on_c, 0, 81, 100
2, 909450, Note_on_c, 0, 81, 0
2, 909450, Note_on_c, 0, 79, 100
2, 909480, Note_on_c, 0, 79, 0
2, 909480, Note_on_c, 0, 77, 100
2, 909510, Note_on_c, 0, 77, 0
2, 909510, Note_on_c, 0, 76, 100
2, 909570, Note_on_c, 0, 76, 0
2, 909570, Note_on_c, 0, 79, 100
2, 909630, Note_on_c, 0, 79, 0
2, 909630, Note_on_c, 0, 82, 100
2, 909690, Note_on_c, 0, 82, 0
2, 909690, Note_on_c, 0, 73, 100
2, 909750, Note_on_c, 0, 73, 0
2, 909750, Note_on_c, 0, 76, 100
2, 909810, Note_on_c, 0, 76, 0
2, 909810, Note_on_c, 0, 79, 100
2, 909870, Note_on_c, 0, 79, 0
2, 909930, Note_on_c, 0, 76, 100
2, 909990, Note_on_c, 0, 76, 0
2, 909990, Note_on_c, 0, 77, 100
2, 910050, Note_on_c, 0, 77, 0
2, 910050, Note_on_c, 0, 79, 100
2, 910110, Note_on_c, 0, 79, 0
2, 910110, Note_on_c, 0, 81, 100
2, 910170, Note_on_c, 0, 81, 0
2, 910170, Note_on_c, 0, 82, 100
2, 910260, Note_on_c, 0, 82, 0
2, 910260, Note_on_c, 0, 81, 100
2, 910290, Note_on_c, 0, 81, 0
2, 910290, Note_on_c, 0, 79, 100
2, 910320, Note_on_c, 0, 79, 0
2, 910320, Note_on_c, 0, 81, 100
2, 910350, Note_on_c, 0, 81, 0
2, 910350, Note_on_c, 0, 82, 100
2, 910380, Note_on_c, 0, 82, 0
2, 910380, Note_on_c, 0, 79, 100
2, 910410, Note_on_c, 0, 79, 0
2, 910410, Note_on_c, 0, 81, 100
2, 910440, Note_on_c, 0, 81, 0
2, 910440, Note_on_c, 0, 79, 100
2, 910470, Note_on_c, 0, 79, 0
2, 910470, Note_on_c, 0, 77, 100
2, 910500, Note_on_c, 0, 77, 0
2, 910500, Note_on_c, 0, 76, 100
2, 910530, Note_on_c, 0, 76, 0
2, 910530, Note_on_c, 0, 77, 100
2, 910650, Note_on_c, 0, 77, 0
2, 910650, Note_on_c, 0, 76, 100
2, 910710, Note_on_c, 0, 76, 0
2, 910710, Note_on_c, 0, 75, 100
2, 910770, Note_on_c, 0, 75, 0
2, 910770, Note_on_c, 0, 76, 100
2, 910800, Note_on_c, 0, 76, 0
2, 910800, Note_on_c, 0, 74, 100
2, 910830, Note_on_c, 0, 74, 0
2, 910830, Note_on_c, 0, 72, 100
2, 910860, Note_on_c, 0, 72, 0
2, 910860, Note_on_c, 0, 74, 100
2, 910890, Note_on_c, 0, 74, 0
2, 910890, Note_on_c, 0, 75, 100
2, 911010, Note_on_c, 0, 75, 0
2, 911010, Note_on_c, 0, 74, 100
2, 911070, Note_on_c, 0, 74, 0
2, 911070, Note_on_c, 0, 73, 100
2, 911130, Note_on_c, 0, 73, 0
2, 911130, Note_on_c, 0, 74, 100
2, 911160, Note_on_c, 0, 74, 0
2, 911160, Note_on_c, 0, 72, 100
2, 911190, Note_on_c, 0, 72, 0
2, 911190, Note_on_c, 0, 70, 100
2, 911220, Note_on_c, 0, 70, 0
2, 911220, Note_on_c, 0, 72, 100
2, 911250, Note_on_c, 0, 72, 0
2, 911250, Note_on_c, 0, 73, 100
2, 911370, Note_on_c, 0, 73, 0
2, 911370, Note_on_c, 0, 72, 100
2, 911430, Note_on_c, 0, 72, 0
2, 911430, Note_on_c, 0, 71, 100
2, 911490, Note_on_c, 0, 71, 0
2, 911490, Note_on_c, 0, 72, 100
2, 911730, Note_on_c, 0, 72, 0
2, 911790, Note_on_c, 0, 83, 100
2, 911850, Note_on_c, 0, 83, 0
2, 911850, Note_on_c, 0, 84, 100
2, 911970, Note_on_c, 0, 84, 0
2, 911970, Note_on_c, 0, 72, 100
2, 912030, Note_on_c, 0, 72, 0
2, 912030, Note_on_c, 0, 77, 100
2, 912270, Note_on_c, 0, 77, 0
2, 912270, Note_on_c, 0, 76, 100
2, 912330, Note_on_c, 0, 76, 0
2, 912330, Note_on_c, 0, 77, 100
2, 912390, Note_on_c, 0, 77, 0
2, 912390, Note_on_c, 0, 82, 100
2, 912630, Note_on_c, 0, 82, 0
2, 912630, Note_on_c, 0, 81, 100
2, 912660, Note_on_c, 0, 81, 0
2, 912660, Note_on_c, 0, 79, 100
2, 912690, Note_on_c, 0, 79, 0
2, 912690, Note_on_c, 0, 77, 100
2, 912720, Note_on_c, 0, 77, 0
2, 912720, Note_on_c, 0, 76, 100
2, 912750, Note_on_c, 0, 76, 0
2, 912750, Note_on_c, 0, 86, 100
2, 913050, Note_on_c, 0, 86, 0
2, 913050, Note_on_c, 0, 77, 100
2, 913110, Note_on_c, 0, 77, 0
2, 913110, Note_on_c, 0, 76, 100
2, 913170, Note_on_c, 0, 76, 0
2, 913170, Note_on_c, 0, 77, 100
2, 913230, Note_on_c, 0, 77, 0
2, 913230, Note_on_c, 0, 79, 100
2, 913350, Note_on_c, 0, 79, 0
2, 913350, Note_on_c, 0, 84, 100
2, 913410, Note_on_c, 0, 84, 0
2, 913410, Note_on_c, 0, 77, 100
2, 913470, Note_on_c, 0, 77, 0
2, 913470, Note_on_c, 0, 82, 100
2, 913770, Note_on_c, 0, 82, 0
2, 913770, Note_on_c, 0, 72, 100
2, 913830, Note_on_c, 0, 72, 0
2, 913830, Note_on_c, 0, 81, 100
2, 914130, Note_on_c, 0, 81, 0
2, 914130, Note_on_c, 0, 74, 100
2, 914190, Note_on_c, 0, 74, 0
2, 914190, Note_on_c, 0, 79, 100
2, 914430, Note_on_c, 0, 79, 0
2, 914430, Note_on_c, 0, 77, 100
2, 914490, Note_on_c, 0, 77, 0
2, 914490, Note_on_c, 0, 76, 100
2, 914550, Note_on_c, 0, 76, 0
2, 914550, Note_on_c, 0, 77, 100
2, 914610, Note_on_c, 0, 77, 0
2, 914610, Note_on_c, 0, 79, 100
2, 914670, Note_on_c, 0, 79, 0
2, 914670, Note_on_c, 0, 81, 100
2, 914730, Note_on_c, 0, 81, 0
2, 914730, Note_on_c, 0, 79, 100
2, 914790, Note_on_c, 0, 79, 0
2, 914790, Note_on_c, 0, 73, 100
2, 914850, Note_on_c, 0, 73, 0
2, 914940, Note_on_c, 0, 86, 100
2, 914970, Note_on_c, 0, 86, 0
2, 914970, Note_on_c, 0, 85, 100
2, 915000, Note_on_c, 0, 85, 0
2, 915000, Note_on_c, 0, 83, 100
2, 915030, Note_on_c, 0, 83, 0
2, 915030, Note_on_c, 0, 81, 100
2, 915060, Note_on_c, 0, 81, 0
2, 915060, Note_on_c, 0, 79, 100
2, 915090, Note_on_c, 0, 79, 0
2, 915090, Note_on_c, 0, 77, 100
2, 915300, Note_on_c, 0, 77, 0
2, 915300, Note_on_c, 0, 81, 100
2, 915330, Note_on_c, 0, 81, 0
2, 915330, Note_on_c, 0, 82, 100
2, 915360, Note_on_c, 0, 82, 0
2, 915360, Note_on_c, 0, 81, 100
2, 915390, Note_on_c, 0, 81, 0
2, 915390, Note_on_c, 0, 79, 100
2, 915420, Note_on_c, 0, 79, 0
2, 915420, Note_on_c, 0, 77, 100
2, 915450, Note_on_c, 0, 77, 0
2, 915450, Note_on_c, 0, 76, 100
2, 915510, Note_on_c, 0, 76, 0
2, 915510, Note_on_c, 0, 77, 100
2, 915570, Note_on_c, 0, 77, 0
2, 915570, Note_on_c, 0, 79, 100
2, 915630, Note_on_c, 0, 79, 0
2, 915630, Note_on_c, 0, 81, 100
2, 915660, Note_on_c, 0, 81, 0
2, 915660, Note_on_c, 0, 79, 100
2, 915690, Note_on_c, 0, 79, 0
2, 915690, Note_on_c, 0, 77, 100
2, 915720, Note_on_c, 0, 77, 0
2, 915720, Note_on_c, 0, 79, 100
2, 915750, Note_on_c, 0, 79, 0
2, 915750, Note_on_c, 0, 81, 100
2, 915810, Note_on_c, 0, 81, 0
2, 915810, Note_on_c, 0, 83, 100
2, 915870, Note_on_c, 0, 83, 0
2, 915870, Note_on_c, 0, 85, 100
2, 915930, Note_on_c, 0, 85, 0
2, 915930, Note_on_c, 0, 86, 100
2, 916050, Note_on_c, 0, 86, 0
2, 916050, Note_on_c, 0, 84, 100
2, 916110, Note_on_c, 0, 84, 0
2, 916110, Note_on_c, 0, 83, 100
2, 916170, Note_on_c, 0, 83, 0
2, 916170, Note_on_c, 0, 84, 100
2, 916200, Note_on_c, 0, 84, 0
2, 916200, Note_on_c, 0, 83, 100
2, 916230, Note_on_c, 0, 83, 0
2, 916230, Note_on_c, 0, 81, 100
2, 916260, Note_on_c, 0, 81, 0
2, 916260, Note_on_c, 0, 80, 100
2, 916290, Note_on_c, 0, 80, 0
2, 916290, Note_on_c, 0, 81, 100
2, 916410, Note_on_c, 0, 81, 0
2, 916410, Note_on_c, 0, 82, 100
2, 916470, Note_on_c, 0, 82, 0
2, 916470, Note_on_c, 0, 81, 100
2, 916530, Note_on_c, 0, 81, 0
2, 916530, Note_on_c, 0, 79, 100
2, 916590, Note_on_c, 0, 79, 0
2, 916590, Note_on_c, 0, 78, 100
2, 916650, Note_on_c, 0, 78, 0
2, 916650, Note_on_c, 0, 79, 100
2, 916770, Note_on_c, 0, 79, 0
2, 916770, Note_on_c, 0, 77, 100
2, 916800, Note_on_c, 0, 77, 0
2, 916800, Note_on_c, 0, 76, 100
2, 916830, Note_on_c, 0, 76, 0
2, 916830, Note_on_c, 0, 74, 100
2, 916860, Note_on_c, 0, 74, 0
2, 916860, Note_on_c, 0, 73, 100
2, 916890, Note_on_c, 0, 73, 0
2, 916890, Note_on_c, 0, 77, 100
2, 916950, Note_on_c, 0, 77, 0
2, 916950, Note_on_c, 0, 76, 100
2, 917010, Note_on_c, 0, 76, 0
2, 917010, Note_on_c, 0, 77, 100
2, 917130, Note_on_c, 0, 77, 0
2, 917130, Note_on_c, 0, 79, 100
2, 917190, Note_on_c, 0, 79, 0
2, 917190, Note_on_c, 0, 77, 100
2, 917250, Note_on_c, 0, 77, 0
2, 917250, Note_on_c, 0, 76, 100
2, 917310, Note_on_c, 0, 76, 0
2, 917310, Note_on_c, 0, 77, 100
2, 917370, Note_on_c, 0, 77, 0
2, 917370, Note_on_c, 0, 79, 100
2, 917430, Note_on_c, 0, 79, 0
2, 917430, Note_on_c, 0, 72, 100
2, 917490, Note_on_c, 0, 72, 0
2, 917490, Note_on_c, 0, 76, 100
2, 917550, Note_on_c, 0, 76, 0
2, 917550, Note_on_c, 0, 72, 100
2, 917610, Note_on_c, 0, 72, 0
2, 917610, Note_on_c, 0, 76, 100
2, 917640, Note_on_c, 0, 76, 0
2, 917640, Note_on_c, 0, 77, 100
2, 917670, Note_on_c, 0, 77, 0
2, 917670, Note_on_c, 0, 79, 100
2, 917700, Note_on_c, 0, 79, 0
2, 917700, Note_on_c, 0, 81, 100
2, 917730, Note_on_c, 0, 81, 0
2, 917730, Note_on_c, 0, 82, 100
2, 917760, Note_on_c, 0, 82, 0
2, 917760, Note_on_c, 0, 79, 100
2, 917790, Note_on_c, 0, 79, 0
2, 917790, Note_on_c, 0, 81, 100
2, 917820, Note_on_c, 0, 81, 0
2, 917820, Note_on_c, 0, 82, 100
2, 917850, Note_on_c, 0, 82, 0
2, 917850, Note_on_c, 0, 84, 100
2, 917910, Note_on_c, 0, 84, 0
2, 917910, Note_on_c, 0, 76, 100
2, 917970, Note_on_c, 0, 76, 0
2, 917970, Note_on_c, 0, 77, 100
2, 918000, Note_on_c, 0, 77, 0
2, 918000, Note_on_c, 0, 81, 100
2, 918030, Note_on_c, 0, 81, 0
2, 918030, Note_on_c, 0, 79, 100
2, 918060, Note_on_c, 0, 79, 0
2, 918060, Note_on_c, 0, 77, 100
2, 918090, Note_on_c, 0, 77, 0
2, 918090, Note_on_c, 0, 76, 100
2, 918120, Note_on_c, 0, 76, 0
2, 918120, Note_on_c, 0, 74, 100
2, 918150, Note_on_c, 0, 74, 0
2, 918150, Note_on_c, 0, 72, 100
2, 918210, Note_on_c, 0, 72, 0
2, 918210, Note_on_c, 0, 76, 100
2, 918270, Note_on_c, 0, 76, 0
2, 918270, Note_on_c, 0, 79, 100
2, 918330, Note_on_c, 0, 79, 0
2, 918330, Note_on_c, 0, 84, 100
2, 918750, Note_on_c, 0, 84, 0
2, 918750, Note_on_c, 0, 82, 100
2, 918810, Note_on_c, 0, 82, 0
2, 918810, Note_on_c, 0, 81, 100
2, 918870, Note_on_c, 0, 81, 0
2, 918870, Note_on_c, 0, 79, 100
2, 919170, Note_on_c, 0, 79, 0
2, 919170, Note_on_c, 0, 84, 100
2, 919230, Note_on_c, 0, 84, 0
2, 919230, Note_on_c, 0, 77, 100
2, 919530, Note_on_c, 0, 77, 0
2, 919530, Note_on_c, 0, 86, 100
2, 919590, Note_on_c, 0, 86, 0
2, 919590, Note_on_c, 0, 76, 100
2, 919650, Note_on_c, 0, 76, 0
2, 919650, Note_on_c, 0, 79, 100
2, 919710, Note_on_c, 0, 79, 0
2, 919710, Note_on_c, 0, 85, 100
2, 919770, Note_on_c, 0, 85, 0
2, 919770, Note_on_c, 0, 69, 100
2, 919950, Note_on_c, 0, 69, 0
2, 919950, Note_on_c, 0, 62, 100
2, 920310, Note_on_c, 0, 62, 0
2, 920310, Note_on_c, 0, 65, 100
2, 920670, Note_on_c, 0, 65, 0
2, 920670, Note_on_c, 0, 69, 100
2, 921030, Note_on_c, 0, 69, 0
2, 921030, Note_on_c, 0, 70, 100
2, 921390, Note_on_c, 0, 70, 0
2, 921390, Note_on_c, 0, 69, 100
2, 921750, Note_on_c, 0, 69, 0
2, 921750, Note_on_c, 0, 67, 100
2, 922110, Note_on_c, 0, 67, 0
2, 922110, Note_on_c, 0, 65, 100
2, 922410, Note_on_c, 0, 65, 0
2, 922410, Note_on_c, 0, 64, 100
2, 922470, Note_on_c, 0, 64, 0
2, 922470, Note_on_c, 0, 65, 100
2, 922590, Note_on_c, 0, 65, 0
2, 922590, Note_on_c, 0, 67, 100
2, 922650, Note_on_c, 0, 67, 0
2, 922650, Note_on_c, 0, 69, 100
2, 922710, Note_on_c, 0, 69, 0
2, 922710, Note_on_c, 0, 67, 100
2, 922770, Note_on_c, 0, 67, 0
2, 922770, Note_on_c, 0, 69, 100
2, 922830, Note_on_c, 0, 69, 0
2, 922830, Note_on_c, 0, 70, 100
2, 922890, Note_on_c, 0, 70, 0
2, 922890, Note_on_c, 0, 69, 100
2, 922950, Note_on_c, 0, 69, 0
2, 922950, Note_on_c, 0, 67, 100
2, 923010, Note_on_c, 0, 67, 0
2, 923010, Note_on_c, 0, 65, 100
2, 923070, Note_on_c, 0, 65, 0
2, 923070, Note_on_c, 0, 69, 100
2, 923130, Note_on_c, 0, 69, 0
2, 923130, Note_on_c, 0, 64, 100
2, 923190, Note_on_c, 0, 64, 0
2, 923190, Note_on_c, 0, 62, 100
2, 923250, Note_on_c, 0, 62, 0
2, 923250, Note_on_c, 0, 64, 100
2, 923310, Note_on_c, 0, 64, 0
2, 923310, Note_on_c, 0, 61, 100
2, 923370, Note_on_c, 0, 61, 0
2, 923370, Note_on_c, 0, 62, 100
2, 923430, Note_on_c, 0, 62, 0
2, 923430, Note_on_c, 0, 69, 100
2, 923490, Note_on_c, 0, 69, 0
2, 923490, Note_on_c, 0, 74, 100
2, 923550, Note_on_c, 0, 74, 0
2, 923550, Note_on_c, 0, 72, 100
2, 923610, Note_on_c, 0, 72, 0
2, 923610, Note_on_c, 0, 74, 100
2, 923670, Note_on_c, 0, 74, 0
2, 923670, Note_on_c, 0, 70, 100
2, 923730, Note_on_c, 0, 70, 0
2, 923730, Note_on_c, 0, 69, 100
2, 923790, Note_on_c, 0, 69, 0
2, 923790, Note_on_c, 0, 70, 100
2, 923850, Note_on_c, 0, 70, 0
2, 923850, Note_on_c, 0, 67, 100
2, 923910, Note_on_c, 0, 67, 0
2, 923910, Note_on_c, 0, 65, 100
2, 923970, Note_on_c, 0, 65, 0
2, 923970, Note_on_c, 0, 67, 100
2, 924030, Note_on_c, 0, 67, 0
2, 924030, Note_on_c, 0, 64, 100
2, 924090, Note_on_c, 0, 64, 0
2, 924090, Note_on_c, 0, 65, 100
2, 924150, Note_on_c, 0, 65, 0
2, 924150, Note_on_c, 0, 62, 100
2, 924210, Note_on_c, 0, 62, 0
2, 924210, Note_on_c, 0, 64, 100
2, 924270, Note_on_c, 0, 64, 0
2, 924270, Note_on_c, 0, 65, 100
2, 924330, Note_on_c, 0, 65, 0
2, 924330, Note_on_c, 0, 69, 100
2, 924390, Note_on_c, 0, 69, 0
2, 924390, Note_on_c, 0, 67, 100
2, 924450, Note_on_c, 0, 67, 0
2, 924450, Note_on_c, 0, 69, 100
2, 924510, Note_on_c, 0, 69, 0
2, 924510, Note_on_c, 0, 71, 100
2, 924570, Note_on_c, 0, 71, 0
2, 924570, Note_on_c, 0, 73, 100
2, 924630, Note_on_c, 0, 73, 0
2, 924630, Note_on_c, 0, 74, 100
2, 924690, Note_on_c, 0, 74, 0
2, 924690, Note_on_c, 0, 76, 100
2, 924750, Note_on_c, 0, 76, 0
2, 924750, Note_on_c, 0, 73, 100
2, 924810, Note_on_c, 0, 73, 0
2, 924810, Note_on_c, 0, 74, 100
2, 924870, Note_on_c, 0, 74, 0
2, 924870, Note_on_c, 0, 62, 100
2, 924930, Note_on_c, 0, 62, 0
2, 924930, Note_on_c, 0, 74, 100
2, 925050, Note_on_c, 0, 74, 0
2, 925050, Note_on_c, 0, 73, 100
2, 925110, Note_on_c, 0, 73, 0
2, 925110, Note_on_c, 0, 76, 100
2, 925170, Note_on_c, 0, 76, 0
2, 925170, Note_on_c, 0, 74, 100
2, 925230, Note_on_c, 0, 74, 0
2, 925230, Note_on_c, 0, 76, 100
2, 925290, Note_on_c, 0, 76, 0
2, 925290, Note_on_c, 0, 77, 100
2, 925350, Note_on_c, 0, 77, 0
2, 925350, Note_on_c, 0, 76, 100
2, 925410, Note_on_c, 0, 76, 0
2, 925410, Note_on_c, 0, 77, 100
2, 925470, Note_on_c, 0, 77, 0
2, 925470, Note_on_c, 0, 74, 100
2, 925530, Note_on_c, 0, 74, 0
2, 925530, Note_on_c, 0, 72, 100
2, 925710, Note_on_c, 0, 72, 0
2, 925710, Note_on_c, 0, 65, 100
2, 926070, Note_on_c, 0, 65, 0
2, 926070, Note_on_c, 0, 69, 100
2, 926430, Note_on_c, 0, 69, 0
2, 926430, Note_on_c, 0, 72, 100
2, 926790, Note_on_c, 0, 72, 0
2, 926790, Note_on_c, 0, 74, 100
2, 927150, Note_on_c, 0, 74, 0
2, 927150, Note_on_c, 0, 72, 100
2, 927510, Note_on_c, 0, 72, 0
2, 927510, Note_on_c, 0, 70, 100
2, 927870, Note_on_c, 0, 70, 0
2, 927870, Note_on_c, 0, 69, 100
2, 928170, Note_on_c, 0, 69, 0
2, 928170, Note_on_c, 0, 67, 100
2, 928230, Note_on_c, 0, 67, 0
2, 928230, Note_on_c, 0, 69, 100
2, 928350, Note_on_c, 0, 69, 0
2, 928350, Note_on_c, 0, 71, 100
2, 928410, Note_on_c, 0, 71, 0
2, 928410, Note_on_c, 0, 72, 100
2, 928470, Note_on_c, 0, 72, 0
2, 928470, Note_on_c, 0, 71, 100
2, 928530, Note_on_c, 0, 71, 0
2, 928530, Note_on_c, 0, 72, 100
2, 928650, Note_on_c, 0, 72, 0
2, 928650, Note_on_c, 0, 74, 100
2, 928710, Note_on_c, 0, 74, 0
2, 928710, Note_on_c, 0, 76, 100
2, 928770, Note_on_c, 0, 76, 0
2, 928770, Note_on_c, 0, 74, 100
2, 928830, Note_on_c, 0, 74, 0
2, 928830, Note_on_c, 0, 76, 100
2, 928890, Note_on_c, 0, 76, 0
2, 928890, Note_on_c, 0, 77, 100
2, 928950, Note_on_c, 0, 77, 0
2, 928950, Note_on_c, 0, 76, 100
2, 929010, Note_on_c, 0, 76, 0
2, 929010, Note_on_c, 0, 77, 100
2, 929070, Note_on_c, 0, 77, 0
2, 929070, Note_on_c, 0, 79, 100
2, 929130, Note_on_c, 0, 79, 0
2, 929130, Note_on_c, 0, 77, 100
2, 929190, Note_on_c, 0, 77, 0
2, 929190, Note_on_c, 0, 79, 100
2, 929250, Note_on_c, 0, 79, 0
2, 929250, Note_on_c, 0, 81, 100
2, 929310, Note_on_c, 0, 81, 0
2, 929310, Note_on_c, 0, 79, 100
2, 929370, Note_on_c, 0, 79, 0
2, 929370, Note_on_c, 0, 81, 100
2, 929430, Note_on_c, 0, 81, 0
2, 929430, Note_on_c, 0, 82, 100
2, 929490, Note_on_c, 0, 82, 0
2, 929490, Note_on_c, 0, 81, 100
2, 929550, Note_on_c, 0, 81, 0
2, 929550, Note_on_c, 0, 79, 100
2, 929610, Note_on_c, 0, 79, 0
2, 929610, Note_on_c, 0, 81, 100
2, 929730, Note_on_c, 0, 81, 0
2, 929730, Note_on_c, 0, 77, 100
2, 929790, Note_on_c, 0, 77, 0
2, 929790, Note_on_c, 0, 74, 100
2, 929850, Note_on_c, 0, 74, 0
2, 929850, Note_on_c, 0, 70, 100
2, 929910, Note_on_c, 0, 70, 0
2, 929910, Note_on_c, 0, 69, 100
2, 929970, Note_on_c, 0, 69, 0
2, 929970, Note_on_c, 0, 70, 100
2, 930090, Note_on_c, 0, 70, 0
2, 930090, Note_on_c, 0, 79, 100
2, 930150, Note_on_c, 0, 79, 0
2, 930150, Note_on_c, 0, 70, 100
2, 930210, Note_on_c, 0, 70, 0
2, 930210, Note_on_c, 0, 69, 100
2, 930270, Note_on_c, 0, 69, 0
2, 930270, Note_on_c, 0, 67, 100
2, 930330, Note_on_c, 0, 67, 0
2, 930330, Note_on_c, 0, 69, 100
2, 930450, Note_on_c, 0, 69, 0
2, 930450, Note_on_c, 0, 77, 100
2, 930510, Note_on_c, 0, 77, 0
2, 930510, Note_on_c, 0, 69, 100
2, 930570, Note_on_c, 0, 69, 0
2, 930570, Note_on_c, 0, 67, 100
2, 930630, Note_on_c, 0, 67, 0
2, 930630, Note_on_c, 0, 65, 100
2, 930690, Note_on_c, 0, 65, 0
2, 930690, Note_on_c, 0, 67, 100
2, 930810, Note_on_c, 0, 67, 0
2, 930810, Note_on_c, 0, 76, 100
2, 930870, Note_on_c, 0, 76, 0
2, 930870, Note_on_c, 0, 67, 100
2, 930930, Note_on_c, 0, 67, 0
2, 930930, Note_on_c, 0, 65, 100
2, 930990, Note_on_c, 0, 65, 0
2, 930990, Note_on_c, 0, 64, 100
2, 931050, Note_on_c, 0, 64, 0
2, 931050, Note_on_c, 0, 65, 100
2, 931170, Note_on_c, 0, 65, 0
2, 931170, Note_on_c, 0, 64, 100
2, 931230, Note_on_c, 0, 64, 0
2, 931230, Note_on_c, 0, 62, 100
2, 931290, Note_on_c, 0, 62, 0
2, 931290, Note_on_c, 0, 67, 100
2, 931410, Note_on_c, 0, 67, 0
2, 931410, Note_on_c, 0, 64, 100
2, 931470, Note_on_c, 0, 64, 0
2, 931470, Note_on_c, 0, 60, 100
2, 931650, Note_on_c, 0, 60, 0
2, 931830, Note_on_c, 0, 72, 100
2, 932070, Note_on_c, 0, 72, 0
2, 932070, Note_on_c, 0, 70, 100
2, 932100, Note_on_c, 0, 70, 0
2, 932100, Note_on_c, 0, 69, 100
2, 932130, Note_on_c, 0, 69, 0
2, 932130, Note_on_c, 0, 67, 100
2, 932160, Note_on_c, 0, 67, 0
2, 932160, Note_on_c, 0, 65, 100
2, 932190, Note_on_c, 0, 65, 0
2, 932190, Note_on_c, 0, 76, 100
2, 932490, Note_on_c, 0, 76, 0
2, 932490, Note_on_c, 0, 72, 100
2, 932550, Note_on_c, 0, 72, 0
2, 932550, Note_on_c, 0, 77, 100
2, 932910, Note_on_c, 0, 77, 0
2, 932910, Note_on_c, 0, 76, 100
2, 933090, Note_on_c, 0, 76, 0
2, 933090, Note_on_c, 0, 75, 100
2, 933270, Note_on_c, 0, 75, 0
2, 933270, Note_on_c, 0, 74, 100
2, 933450, Note_on_c, 0, 74, 0
2, 933450, Note_on_c, 0, 73, 100
2, 933630, Note_on_c, 0, 73, 0
2, 933630, Note_on_c, 0, 72, 100
2, 933930, Note_on_c, 0, 72, 0
2, 933930, Note_on_c, 0, 77, 100
2, 933990, Note_on_c, 0, 77, 0
2, 933990, Note_on_c, 0, 71, 100
2, 934050, Note_on_c, 0, 71, 0
2, 934050, Note_on_c, 0, 72, 100
2, 934110, Note_on_c, 0, 72, 0
2, 934110, Note_on_c, 0, 74, 100
2, 934230, Note_on_c, 0, 74, 0
2, 934230, Note_on_c, 0, 72, 100
2, 934260, Note_on_c, 0, 72, 0
2, 934260, Note_on_c, 0, 71, 100
2, 934290, Note_on_c, 0, 71, 0
2, 934290, Note_on_c, 0, 72, 100
2, 934350, Note_on_c, 0, 72, 0
2, 934410, Note_on_c, 0, 82, 100
2, 934440, Note_on_c, 0, 82, 0
2, 934440, Note_on_c, 0, 81, 100
2, 934470, Note_on_c, 0, 81, 0
2, 934470, Note_on_c, 0, 79, 100
2, 934500, Note_on_c, 0, 79, 0
2, 934500, Note_on_c, 0, 77, 100
2, 934530, Note_on_c, 0, 77, 0
2, 934530, Note_on_c, 0, 76, 100
2, 934560, Note_on_c, 0, 76, 0
2, 934560, Note_on_c, 0, 77, 100
2, 934590, Note_on_c, 0, 77, 0
2, 934590, Note_on_c, 0, 79, 100
2, 934620, Note_on_c, 0, 79, 0
2, 934620, Note_on_c, 0, 77, 100
2, 934650, Note_on_c, 0, 77, 0
2, 934650, Note_on_c, 0, 76, 100
2, 934680, Note_on_c, 0, 76, 0
2, 934680, Note_on_c, 0, 74, 100
2, 934710, Note_on_c, 0, 74, 0
2, 934710, Note_on_c, 0, 72, 100
2, 934770, Note_on_c, 0, 72, 0
2, 934770, Note_on_c, 0, 76, 100
2, 934830, Note_on_c, 0, 76, 0
2, 934830, Note_on_c, 0, 79, 100
2, 934890, Note_on_c, 0, 79, 0
2, 934890, Note_on_c, 0, 69, 100
2, 934950, Note_on_c, 0, 69, 0
2, 934950, Note_on_c, 0, 72, 100
2, 935010, Note_on_c, 0, 72, 0
2, 935010, Note_on_c, 0, 76, 100
2, 935070, Note_on_c, 0, 76, 0
2, 935130, Note_on_c, 0, 72, 100
2, 935190, Note_on_c, 0, 72, 0
2, 935190, Note_on_c, 0, 74, 100
2, 935250, Note_on_c, 0, 74, 0
2, 935250, Note_on_c, 0, 76, 100
2, 935310, Note_on_c, 0, 76, 0
2, 935310, Note_on_c, 0, 77, 100
2, 935370, Note_on_c, 0, 77, 0
2, 935370, Note_on_c, 0, 79, 100
2, 935460, Note_on_c, 0, 79, 0
2, 935460, Note_on_c, 0, 77, 100
2, 935490, Note_on_c, 0, 77, 0
2, 935490, Note_on_c, 0, 76, 100
2, 935520, Note_on_c, 0, 76, 0
2, 935520, Note_on_c, 0, 77, 100
2, 935550, Note_on_c, 0, 77, 0
2, 935550, Note_on_c, 0, 79, 100
2, 935580, Note_on_c, 0, 79, 0
2, 935580, Note_on_c, 0, 76, 100
2, 935610, Note_on_c, 0, 76, 0
2, 935610, Note_on_c, 0, 77, 100
2, 935640, Note_on_c, 0, 77, 0
2, 935640, Note_on_c, 0, 76, 100
2, 935670, Note_on_c, 0, 76, 0
2, 935670, Note_on_c, 0, 74, 100
2, 935700, Note_on_c, 0, 74, 0
2, 935700, Note_on_c, 0, 73, 100
2, 935730, Note_on_c, 0, 73, 0
2, 935730, Note_on_c, 0, 74, 100
2, 935850, Note_on_c, 0, 74, 0
2, 935850, Note_on_c, 0, 72, 100
2, 935910, Note_on_c, 0, 72, 0
2, 935910, Note_on_c, 0, 71, 100
2, 935970, Note_on_c, 0, 71, 0
2, 935970, Note_on_c, 0, 72, 100
2, 936000, Note_on_c, 0, 72, 0
2, 936000, Note_on_c, 0, 71, 100
2, 936030, Note_on_c, 0, 71, 0
2, 936030, Note_on_c, 0, 69, 100
2, 936060, Note_on_c, 0, 69, 0
2, 936060, Note_on_c, 0, 71, 100
2, 936090, Note_on_c, 0, 71, 0
2, 936090, Note_on_c, 0, 72, 100
2, 936210, Note_on_c, 0, 72, 0
2, 936210, Note_on_c, 0, 70, 100
2, 936270, Note_on_c, 0, 70, 0
2, 936270, Note_on_c, 0, 69, 100
2, 936330, Note_on_c, 0, 69, 0
2, 936330, Note_on_c, 0, 70, 100
2, 936360, Note_on_c, 0, 70, 0
2, 936360, Note_on_c, 0, 69, 100
2, 936390, Note_on_c, 0, 69, 0
2, 936390, Note_on_c, 0, 67, 100
2, 936420, Note_on_c, 0, 67, 0
2, 936420, Note_on_c, 0, 69, 100
2, 936450, Note_on_c, 0, 69, 0
2, 936450, Note_on_c, 0, 70, 100
2, 936570, Note_on_c, 0, 70, 0
2, 936570, Note_on_c, 0, 69, 100
2, 936630, Note_on_c, 0, 69, 0
2, 936630, Note_on_c, 0, 67, 100
2, 936690, Note_on_c, 0, 67, 0
2, 936690, Note_on_c, 0, 67, 100
2, 936720, Note_on_c, 0, 67, 0
2, 936720, Note_on_c, 0, 69, 100
2, 936930, Note_on_c, 0, 69, 0
2, 936990, Note_on_c, 0, 80, 100
2, 937050, Note_on_c, 0, 80, 0
2, 937050, Note_on_c, 0, 81, 100
2, 937170, Note_on_c, 0, 81, 0
2, 937170, Note_on_c, 0, 69, 100
2, 937230, Note_on_c, 0, 69, 0
2, 937230, Note_on_c, 0, 74, 100
2, 937470, Note_on_c, 0, 74, 0
2, 937470, Note_on_c, 0, 73, 100
2, 937530, Note_on_c, 0, 73, 0
2, 937530, Note_on_c, 0, 74, 100
2, 937590, Note_on_c, 0, 74, 0
2, 937590, Note_on_c, 0, 79, 100
2, 937830, Note_on_c, 0, 79, 0
2, 937830, Note_on_c, 0, 77, 100
2, 937860, Note_on_c, 0, 77, 0
2, 937860, Note_on_c, 0, 76, 100
2, 937890, Note_on_c, 0, 76, 0
2, 937890, Note_on_c, 0, 74, 100
2, 937920, Note_on_c, 0, 74, 0
2, 937920, Note_on_c, 0, 73, 100
2, 937950, Note_on_c, 0, 73, 0
2, 937950, Note_on_c, 0, 82, 100
2, 938250, Note_on_c, 0, 82, 0
2, 938250, Note_on_c, 0, 74, 100
2, 938310, Note_on_c, 0, 74, 0
2, 938310, Note_on_c, 0, 73, 100
2, 938370, Note_on_c, 0, 73, 0
2, 938370, Note_on_c, 0, 74, 100
2, 938430, Note_on_c, 0, 74, 0
2, 938430, Note_on_c, 0, 76, 100
2, 938550, Note_on_c, 0, 76, 0
2, 938550, Note_on_c, 0, 81, 100
2, 938610, Note_on_c, 0, 81, 0
2, 938610, Note_on_c, 0, 74, 100
2, 938670, Note_on_c, 0, 74, 0
2, 938670, Note_on_c, 0, 79, 100
2, 938970, Note_on_c, 0, 79, 0
2, 938970, Note_on_c, 0, 69, 100
2, 939030, Note_on_c, 0, 69, 0
2, 939030, Note_on_c, 0, 77, 100
2, 939330, Note_on_c, 0, 77, 0
2, 939330, Note_on_c, 0, 67, 100
2, 939390, Note_on_c, 0, 67, 0
2, 939390, Note_on_c, 0, 76, 100
2, 939630, Note_on_c, 0, 76, 0
2, 939630, Note_on_c, 0, 74, 100
2, 939690, Note_on_c, 0, 74, 0
2, 939690, Note_on_c, 0, 73, 100
2, 939750, Note_on_c, 0, 73, 0
2, 939750, Note_on_c, 0, 74, 100
2, 939810, Note_on_c, 0, 74, 0
2, 939810, Note_on_c, 0, 76, 100
2, 939870, Note_on_c, 0, 76, 0
2, 939870, Note_on_c, 0, 77, 100
2, 939930, Note_on_c, 0, 77, 0
2, 939930, Note_on_c, 0, 76, 100
2, 939990, Note_on_c, 0, 76, 0
2, 939990, Note_on_c, 0, 69, 100
2, 940050, Note_on_c, 0, 69, 0
2, 940140, Note_on_c, 0, 82, 100
2, 940170, Note_on_c, 0, 82, 0
2, 940170, Note_on_c, 0, 81, 100
2, 940200, Note_on_c, 0, 81, 0
2, 940200, Note_on_c, 0, 79, 100
2, 940230, Note_on_c, 0, 79, 0
2, 940230, Note_on_c, 0, 77, 100
2, 940260, Note_on_c, 0, 77, 0
2, 940260, Note_on_c, 0, 76, 100
2, 940290, Note_on_c, 0, 76, 0
2, 940290, Note_on_c, 0, 74, 100
2, 940500, Note_on_c, 0, 74, 0
2, 940500, Note_on_c, 0, 77, 100
2, 940530, Note_on_c, 0, 77, 0
2, 940530, Note_on_c, 0, 79, 100
2, 940560, Note_on_c, 0, 79, 0
2, 940560, Note_on_c, 0, 77, 100
2, 940590, Note_on_c, 0, 77, 0
2, 940590, Note_on_c, 0, 76, 100
2, 940620, Note_on_c, 0, 76, 0
2, 940620, Note_on_c, 0, 74, 100
2, 940650, Note_on_c, 0, 74, 0
2, 940650, Note_on_c, 0, 73, 100
2, 940710, Note_on_c, 0, 73, 0
2, 940710, Note_on_c, 0, 74, 100
2, 940770, Note_on_c, 0, 74, 0
2, 940770, Note_on_c, 0, 76, 100
2, 940830, Note_on_c, 0, 76, 0
2, 940830, Note_on_c, 0, 77, 100
2, 940860, Note_on_c, 0, 77, 0
2, 940860, Note_on_c, 0, 76, 100
2, 940890, Note_on_c, 0, 76, 0
2, 940890, Note_on_c, 0, 74, 100
2, 940920, Note_on_c, 0, 74, 0
2, 940920, Note_on_c, 0, 76, 100
2, 940950, Note_on_c, 0, 76, 0
2, 940950, Note_on_c, 0, 77, 100
2, 941010, Note_on_c, 0, 77, 0
2, 941010, Note_on_c, 0, 79, 100
2, 941070, Note_on_c, 0, 79, 0
2, 941070, Note_on_c, 0, 81, 100
2, 941130, Note_on_c, 0, 81, 0
2, 941130, Note_on_c, 0, 82, 100
2, 941250, Note_on_c, 0, 82, 0
2, 941250, Note_on_c, 0, 81, 100
2, 941310, Note_on_c, 0, 81, 0
2, 941310, Note_on_c, 0, 79, 100
2, 941370, Note_on_c, 0, 79, 0
2, 941370, Note_on_c, 0, 81, 100
2, 941400, Note_on_c, 0, 81, 0
2, 941400, Note_on_c, 0, 79, 100
2, 941430, Note_on_c, 0, 79, 0
2, 941430, Note_on_c, 0, 77, 100
2, 941460, Note_on_c, 0, 77, 0
2, 941460, Note_on_c, 0, 76, 100
2, 941490, Note_on_c, 0, 76, 0
2, 941490, Note_on_c, 0, 77, 100
2, 941610, Note_on_c, 0, 77, 0
2, 941610, Note_on_c, 0, 79, 100
2, 941670, Note_on_c, 0, 79, 0
2, 941670, Note_on_c, 0, 77, 100
2, 941730, Note_on_c, 0, 77, 0
2, 941730, Note_on_c, 0, 76, 100
2, 941790, Note_on_c, 0, 76, 0
2, 941790, Note_on_c, 0, 75, 100
2, 941850, Note_on_c, 0, 75, 0
2, 941850, Note_on_c, 0, 76, 100
2, 941970, Note_on_c, 0, 76, 0
2, 941970, Note_on_c, 0, 74, 100
2, 942000, Note_on_c, 0, 74, 0
2, 942000, Note_on_c, 0, 72, 100
2, 942030, Note_on_c, 0, 72, 0
2, 942030, Note_on_c, 0, 70, 100
2, 942060, Note_on_c, 0, 70, 0
2, 942060, Note_on_c, 0, 69, 100
2, 942090, Note_on_c, 0, 69, 0
2, 942090, Note_on_c, 0, 74, 100
2, 942150, Note_on_c, 0, 74, 0
2, 942150, Note_on_c, 0, 73, 100
2, 942210, Note_on_c, 0, 73, 0
2, 942210, Note_on_c, 0, 74, 100
2, 942330, Note_on_c, 0, 74, 0
2, 942330, Note_on_c, 0, 76, 100
2, 942390, Note_on_c, 0, 76, 0
2, 942390, Note_on_c, 0, 74, 100
2, 942450, Note_on_c, 0, 74, 0
2, 942450, Note_on_c, 0, 73, 100
2, 942510, Note_on_c, 0, 73, 0
2, 942510, Note_on_c, 0, 74, 100
2, 942570, Note_on_c, 0, 74, 0
2, 942570, Note_on_c, 0, 76, 100
2, 942630, Note_on_c, 0, 76, 0
2, 942630, Note_on_c, 0, 69, 100
2, 942690, Note_on_c, 0, 69, 0
2, 942690, Note_on_c, 0, 73, 100
2, 942750, Note_on_c, 0, 73, 0
2, 942750, Note_on_c, 0, 71, 100
2, 942810, Note_on_c, 0, 71, 0
2, 942810, Note_on_c, 0, 73, 100
2, 942840, Note_on_c, 0, 73, 0
2, 942840, Note_on_c, 0, 74, 100
2, 942870, Note_on_c, 0, 74, 0
2, 942870, Note_on_c, 0, 76, 100
2, 942900, Note_on_c, 0, 76, 0
2, 942900, Note_on_c, 0, 77, 100
2, 942930, Note_on_c, 0, 77, 0
2, 942930, Note_on_c, 0, 79, 100
2, 942960, Note_on_c, 0, 79, 0
2, 942960, Note_on_c, 0, 76, 100
2, 942990, Note_on_c, 0, 76, 0
2, 942990, Note_on_c, 0, 77, 100
2, 943020, Note_on_c, 0, 77, 0
2, 943020, Note_on_c, 0, 79, 100
2, 943050, Note_on_c, 0, 79, 0
2, 943050, Note_on_c, 0, 81, 100
2, 943110, Note_on_c, 0, 81, 0
2, 943110, Note_on_c, 0, 72, 100
2, 943170, Note_on_c, 0, 72, 0
2, 943170, Note_on_c, 0, 74, 100
2, 943200, Note_on_c, 0, 74, 0
2, 943200, Note_on_c, 0, 77, 100
2, 943230, Note_on_c, 0, 77, 0
2, 943230, Note_on_c, 0, 76, 100
2, 943260, Note_on_c, 0, 76, 0
2, 943260, Note_on_c, 0, 74, 100
2, 943290, Note_on_c, 0, 74, 0
2, 943290, Note_on_c, 0, 73, 100
2, 943320, Note_on_c, 0, 73, 0
2, 943320, Note_on_c, 0, 71, 100
2, 943350, Note_on_c, 0, 71, 0
2, 943350, Note_on_c, 0, 69, 100
2, 943410, Note_on_c, 0, 69, 0
2, 943410, Note_on_c, 0, 73, 100
2, 943470, Note_on_c, 0, 73, 0
2, 943470, Note_on_c, 0, 76, 100
2, 943530, Note_on_c, 0, 76, 0
2, 943530, Note_on_c, 0, 81, 100
2, 943950, Note_on_c, 0, 81, 0
2, 943950, Note_on_c, 0, 79, 100
2, 944010, Note_on_c, 0, 79, 0
2, 944010, Note_on_c, 0, 77, 100
2, 944070, Note_on_c, 0, 77, 0
2, 944070, Note_on_c, 0, 76, 100
2, 944370, Note_on_c, 0, 76, 0
2, 944370, Note_on_c, 0, 81, 100
2, 944430, Note_on_c, 0, 81, 0
2, 944430, Note_on_c, 0, 74, 100
2, 944730, Note_on_c, 0, 74, 0
2, 944730, Note_on_c, 0, 82, 100
2, 944790, Note_on_c, 0, 82, 0
2, 944790, Note_on_c, 0, 73, 100
2, 944850, Note_on_c, 0, 73, 0
2, 944850, Note_on_c, 0, 76, 100
2, 944910, Note_on_c, 0, 76, 0
2, 944910, Note_on_c, 0, 81, 100
2, 944970, Note_on_c, 0, 81, 0
2, 944970, Note_on_c, 0, 69, 100
2, 945090, Note_on_c, 0, 69, 0
2, 945090, Note_on_c, 0, 74, 100
2, 945150, Note_on_c, 0, 74, 0
2, 945150, Note_on_c, 0, 70, 100
2, 945390, Note_on_c, 0, 70, 0
2, 945390, Note_on_c, 0, 69, 100
2, 945450, Note_on_c, 0, 69, 0
2, 945450, Note_on_c, 0, 68, 100
2, 945510, Note_on_c, 0, 68, 0
2, 945510, Note_on_c, 0, 69, 100
2, 945750, Note_on_c, 0, 69, 0
2, 945750, Note_on_c, 0, 76, 100
2, 945810, Note_on_c, 0, 76, 0
2, 945810, Note_on_c, 0, 73, 100
2, 945870, Note_on_c, 0, 73, 0
2, 945930, Note_on_c, 0, 82, 100
2, 945960, Note_on_c, 0, 82, 0
2, 945960, Note_on_c, 0, 81, 100
2, 945990, Note_on_c, 0, 81, 0
2, 945990, Note_on_c, 0, 79, 100
2, 946020, Note_on_c, 0, 79, 0
2, 946020, Note_on_c, 0, 81, 100
2, 946050, Note_on_c, 0, 81, 0
2, 946050, Note_on_c, 0, 77, 100
2, 946260, Note_on_c, 0, 77, 0
2, 946260, Note_on_c, 0, 81, 100
2, 946290, Note_on_c, 0, 81, 0
2, 946290, Note_on_c, 0, 79, 100
2, 946320, Note_on_c, 0, 79, 0
2, 946320, Note_on_c, 0, 77, 100
2, 946350, Note_on_c, 0, 77, 0
2, 946350, Note_on_c, 0, 76, 100
2, 946380, Note_on_c, 0, 76, 0
2, 946380, Note_on_c, 0, 74, 100
2, 946410, Note_on_c, 0, 74, 0
2, 946410, Note_on_c, 0, 73, 100
2, 946440, Note_on_c, 0, 73, 0
2, 946440, Note_on_c, 0, 71, 100
2, 946470, Note_on_c, 0, 71, 0
2, 946470, Note_on_c, 0, 69, 100
2, 946500, Note_on_c, 0, 69, 0
2, 946500, Note_on_c, 0, 71, 100
2, 946530, Note_on_c, 0, 71, 0
2, 946530, Note_on_c, 0, 73, 100
2, 946560, Note_on_c, 0, 73, 0
2, 946560, Note_on_c, 0, 74, 100
2, 946590, Note_on_c, 0, 74, 0
2, 946590, Note_on_c, 0, 76, 100
2, 946620, Note_on_c, 0, 76, 0
2, 946620, Note_on_c, 0, 74, 100
2, 946650, Note_on_c, 0, 74, 0
2, 946650, Note_on_c, 0, 76, 100
2, 946680, Note_on_c, 0, 76, 0
2, 946680, Note_on_c, 0, 77, 100
2, 946710, Note_on_c, 0, 77, 0
2, 946710, Note_on_c, 0, 79, 100
2, 946740, Note_on_c, 0, 79, 0
2, 946740, Note_on_c, 0, 76, 100
2, 946770, Note_on_c, 0, 76, 0
2, 946770, Note_on_c, 0, 77, 100
2, 946800, Note_on_c, 0, 77, 0
2, 946800, Note_on_c, 0, 74, 100
2, 946830, Note_on_c, 0, 74, 0
2, 946830, Note_on_c, 0, 76, 100
2, 946860, Note_on_c, 0, 76, 0
2, 946860, Note_on_c, 0, 77, 100
2, 946890, Note_on_c, 0, 77, 0
2, 946890, Note_on_c, 0, 79, 100
2, 946920, Note_on_c, 0, 79, 0
2, 946920, Note_on_c, 0, 81, 100
2, 946950, Note_on_c, 0, 81, 0
2, 946950, Note_on_c, 0, 82, 100
2, 946980, Note_on_c, 0, 82, 0
2, 946980, Note_on_c, 0, 81, 100
2, 947010, Note_on_c, 0, 81, 0
2, 947010, Note_on_c, 0, 79, 100
2, 947040, Note_on_c, 0, 79, 0
2, 947040, Note_on_c, 0, 77, 100
2, 947070, Note_on_c, 0, 77, 0
2, 947070, Note_on_c, 0, 76, 100
2, 947100, Note_on_c, 0, 76, 0
2, 947100, Note_on_c, 0, 74, 100
2, 947130, Note_on_c, 0, 74, 0
2, 947130, Note_on_c, 0, 73, 100
2, 947160, Note_on_c, 0, 73, 0
2, 947160, Note_on_c, 0, 76, 100
2, 947190, Note_on_c, 0, 76, 0
2, 947190, Note_on_c, 0, 79, 100
2, 947220, Note_on_c, 0, 79, 0
2, 947220, Note_on_c, 0, 82, 100
2, 947250, Note_on_c, 0, 82, 0
2, 947250, Note_on_c, 0, 81, 100
2, 947280, Note_on_c, 0, 81, 0
2, 947280, Note_on_c, 0, 79, 100
2, 947310, Note_on_c, 0, 79, 0
2, 947310, Note_on_c, 0, 81, 100
2, 947340, Note_on_c, 0, 81, 0
2, 947340, Note_on_c, 0, 79, 100
2, 947370, Note_on_c, 0, 79, 0
2, 947370, Note_on_c, 0, 77, 100
2, 947400, Note_on_c, 0, 77, 0
2, 947400, Note_on_c, 0, 76, 100
2, 947430, Note_on_c, 0, 76, 0
2, 947430, Note_on_c, 0, 74, 100
2, 947460, Note_on_c, 0, 74, 0
2, 947460, Note_on_c, 0, 72, 100
2, 947490, Note_on_c, 0, 72, 0
2, 947490, Note_on_c, 0, 70, 100
2, 947520, Note_on_c, 0, 70, 0
2, 947520, Note_on_c, 0, 72, 100
2, 947550, Note_on_c, 0, 72, 0
2, 947550, Note_on_c, 0, 70, 100
2, 947580, Note_on_c, 0, 70, 0
2, 947580, Note_on_c, 0, 69, 100
2, 947610, Note_on_c, 0, 69, 0
2, 947610, Note_on_c, 0, 67, 100
2, 947640, Note_on_c, 0, 67, 0
2, 947640, Note_on_c, 0, 65, 100
2, 947670, Note_on_c, 0, 65, 0
2, 947670, Note_on_c, 0, 67, 100
2, 947700, Note_on_c, 0, 67, 0
2, 947700, Note_on_c, 0, 70, 100
2, 947730, Note_on_c, 0, 70, 0
2, 947730, Note_on_c, 0, 69, 100
2, 947760, Note_on_c, 0, 69, 0
2, 947760, Note_on_c, 0, 67, 100
2, 947790, Note_on_c, 0, 67, 0
2, 947790, Note_on_c, 0, 65, 100
2, 947820, Note_on_c, 0, 65, 0
2, 947820, Note_on_c, 0, 64, 100
2, 947850, Note_on_c, 0, 64, 0
2, 947850, Note_on_c, 0, 65, 100
2, 947880, Note_on_c, 0, 65, 0
2, 947880, Note_on_c, 0, 67, 100
2, 947910, Note_on_c, 0, 67, 0
2, 947910, Note_on_c, 0, 65, 100
2, 947940, Note_on_c, 0, 65, 0
2, 947940, Note_on_c, 0, 64, 100
2, 947970, Note_on_c, 0, 64, 0
2, 947970, Note_on_c, 0, 65, 100
2, 948000, Note_on_c, 0, 65, 0
2, 948000, Note_on_c, 0, 70, 100
2, 948030, Note_on_c, 0, 70, 0
2, 948030, Note_on_c, 0, 69, 100
2, 948060, Note_on_c, 0, 69, 0
2, 948060, Note_on_c, 0, 67, 100
2, 948090, Note_on_c, 0, 67, 0
2, 948090, Note_on_c, 0, 69, 100
2, 948120, Note_on_c, 0, 69, 0
2, 948120, Note_on_c, 0, 74, 100
2, 948150, Note_on_c, 0, 74, 0
2, 948150, Note_on_c, 0, 73, 100
2, 948180, Note_on_c, 0, 73, 0
2, 948180, Note_on_c, 0, 71, 100
2, 948210, Note_on_c, 0, 71, 0
2, 948210, Note_on_c, 0, 72, 100
2, 948240, Note_on_c, 0, 72, 0
2, 948240, Note_on_c, 0, 77, 100
2, 948270, Note_on_c, 0, 77, 0
2, 948270, Note_on_c, 0, 76, 100
2, 948300, Note_on_c, 0, 76, 0
2, 948300, Note_on_c, 0, 74, 100
2, 948330, Note_on_c, 0, 74, 0
2, 948330, Note_on_c, 0, 76, 100
2, 948360, Note_on_c, 0, 76, 0
2, 948360, Note_on_c, 0, 77, 100
2, 948375, Note_on_c, 0, 77, 0
2, 948375, Note_on_c, 0, 79, 100
2, 948390, Note_on_c, 0, 79, 0
2, 948390, Note_on_c, 0, 77, 100
2, 948405, Note_on_c, 0, 77, 0
2, 948405, Note_on_c, 0, 76, 100
2, 948420, Note_on_c, 0, 76, 0
2, 948420, Note_on_c, 0, 74, 100
2, 948435, Note_on_c, 0, 74, 0
2, 948435, Note_on_c, 0, 73, 100
2, 948450, Note_on_c, 0, 73, 0
2, 948450, Note_on_c, 0, 74, 100
2, 948465, Note_on_c, 0, 74, 0
2, 948465, Note_on_c, 0, 77, 100
2, 948480, Note_on_c, 0, 77, 0
2, 948480, Note_on_c, 0, 79, 100
2, 948495, Note_on_c, 0, 79, 0
2, 948495, Note_on_c, 0, 81, 100
2, 948510, Note_on_c, 0, 81, 0
2, 948510, Note_on_c, 0, 82, 100
2, 948540, Note_on_c, 0, 82, 0
2, 948540, Note_on_c, 0, 74, 100
2, 948570, Note_on_c, 0, 74, 0
2, 948570, Note_on_c, 0, 73, 100
2, 948600, Note_on_c, 0, 73, 0
2, 948600, Note_on_c, 0, 69, 100
2, 948630, Note_on_c, 0, 69, 0
2, 948630, Note_on_c, 0, 74, 100
2, 948660, Note_on_c, 0, 74, 0
2, 948660, Note_on_c, 0, 72, 100
2, 948690, Note_on_c, 0, 72, 0
2, 948690, Note_on_c, 0, 74, 100
2, 948990, Note_on_c, 0, 74, 0
2, 948990, Note_on_c, 0, 62, 100
2, 949020, Note_on_c, 0, 62, 0
2, 949020, Note_on_c, 0, 64, 100
2, 949050, Note_on_c, 0, 64, 0
2, 949050, Note_on_c, 0, 65, 100
2, 949070, Note_on_c, 0, 65, 0
2, 949070, Note_on_c, 0, 64, 100
2, 949090, Note_on_c, 0, 64, 0
2, 949090, Note_on_c, 0, 65, 100
2, 949110, Note_on_c, 0, 65, 0
2, 949110, Note_on_c, 0, 64, 100
2, 949130, Note_on_c, 0, 64, 0
2, 949130, Note_on_c, 0, 65, 100
2, 949150, Note_on_c, 0, 65, 0
2, 949150, Note_on_c, 0, 64, 100
2, 949170, Note_on_c, 0, 64, 0
2, 949170, Note_on_c, 0, 65, 100
2, 949190, Note_on_c, 0, 65, 0
2, 949190, Note_on_c, 0, 64, 100
2, 949210, Note_on_c, 0, 64, 0
2, 949210, Note_on_c, 0, 65, 100
2, 949230, Note_on_c, 0, 65, 0
2, 949230, Note_on_c, 0, 64, 100
2, 949250, Note_on_c, 0, 64, 0
2, 949250, Note_on_c, 0, 62, 100
2, 949270, Note_on_c, 0, 62, 0
2, 949270, Note_on_c, 0, 64, 100
2, 949290, Note_on_c, 0, 64, 0
2, 949290, Note_on_c, 0, 62, 100
2, 949770, Note_on_c, 0, 62, 0
2, 953610, Control_c, 0, 121, 0
2, 953610, Control_c, 0, 91, 92
2, 953610, Control_c, 0, 0, 8
2, 957450, Note_on_c, 0, 69, 90
2, 957490, Note_on_c, 0, 69, 0
2, 957490, Note_on_c, 0, 71, 90
2, 957530, Note_on_c, 0, 71, 0
2, 957530, Note_on_c, 0, 69, 90
2, 957570, Note_on_c, 0, 69, 0
2, 957570, Note_on_c, 0, 68, 90
2, 957610, Note_on_c, 0, 68, 0
2, 957610, Note_on_c, 0, 69, 90
2, 957650, Note_on_c, 0, 69, 0
2, 957650, Note_on_c, 0, 71, 90
2, 957690, Note_on_c, 0, 71, 0
2, 957690, Note_on_c, 0, 72, 90
2, 957730, Note_on_c, 0, 72, 0
2, 957730, Note_on_c, 0, 74, 90
2, 957770, Note_on_c, 0, 74, 0
2, 957770, Note_on_c, 0, 72, 90
2, 957810, Note_on_c, 0, 72, 0
2, 957810, Note_on_c, 0, 71, 90
2, 957850, Note_on_c, 0, 71, 0
2, 957850, Note_on_c, 0, 72, 90
2, 957890, Note_on_c, 0, 72, 0
2, 957890, Note_on_c, 0, 74, 90
2, 957930, Note_on_c, 0, 74, 0
2, 957930, Note_on_c, 0, 76, 90
2, 958230, Note_on_c, 0, 76, 0
2, 958230, Note_on_c, 0, 74, 90
2, 958290, Note_on_c, 0, 74, 0
2, 958290, Note_on_c, 0, 72, 90
2, 958350, Note_on_c, 0, 72, 0
2, 958350, Note_on_c, 0, 71, 90
2, 958410, Note_on_c, 0, 71, 0
2, 958410, Note_on_c, 0, 72, 90
2, 958710, Note_on_c, 0, 72, 0
2, 958710, Note_on_c, 0, 71, 90
2, 958770, Note_on_c, 0, 71, 0
2, 958770, Note_on_c, 0, 69, 90
2, 958830, Note_on_c, 0, 69, 0
2, 958830, Note_on_c, 0, 68, 90
2, 958890, Note_on_c, 0, 68, 0
2, 958890, Note_on_c, 0, 69, 90
2, 959010, Note_on_c, 0, 69, 0
2, 959010, Note_on_c, 0, 71, 90
2, 959070, Note_on_c, 0, 71, 0
2, 959070, Note_on_c, 0, 72, 90
2, 959130, Note_on_c, 0, 72, 0
2, 959130, Note_on_c, 0, 74, 90
2, 959190, Note_on_c, 0, 74, 0
2, 959190, Note_on_c, 0, 76, 90
2, 959250, Note_on_c, 0, 76, 0
2, 959250, Note_on_c, 0, 77, 90
2, 959370, Note_on_c, 0, 77, 0
2, 959370, Note_on_c, 0, 77, 90
2, 959490, Note_on_c, 0, 77, 0
2, 959490, Note_on_c, 0, 68, 90
2, 959610, Note_on_c, 0, 68, 0
2, 959670, Note_on_c, 0, 64, 90
2, 959730, Note_on_c, 0, 64, 0
2, 959730, Note_on_c, 0, 66, 90
2, 959790, Note_on_c, 0, 66, 0
2, 959790, Note_on_c, 0, 68, 90
2, 959850, Note_on_c, 0, 68, 0
2, 959850, Note_on_c, 0, 69, 90
2, 959910, Note_on_c, 0, 69, 0
2, 959910, Note_on_c, 0, 68, 90
2, 959970, Note_on_c, 0, 68, 0
2, 959970, Note_on_c, 0, 66, 90
2, 960030, Note_on_c, 0, 66, 0
2, 960030, Note_on_c, 0, 64, 90
2, 960090, Note_on_c, 0, 64, 0
2, 960090, Note_on_c, 0, 71, 90
2, 960150, Note_on_c, 0, 71, 0
2, 960150, Note_on_c, 0, 68, 90
2, 960210, Note_on_c, 0, 68, 0
2, 960210, Note_on_c, 0, 66, 90
2, 960270, Note_on_c, 0, 66, 0
2, 960270, Note_on_c, 0, 64, 90
2, 960330, Note_on_c, 0, 64, 0
2, 960330, Note_on_c, 0, 72, 90
2, 960390, Note_on_c, 0, 72, 0
2, 960390, Note_on_c, 0, 71, 90
2, 960450, Note_on_c, 0, 71, 0
2, 960450, Note_on_c, 0, 69, 90
2, 960570, Note_on_c, 0, 69, 0
2, 960630, Note_on_c, 0, 77, 90
2, 960690, Note_on_c, 0, 77, 0
2, 960690, Note_on_c, 0, 76, 90
2, 960750, Note_on_c, 0, 76, 0
2, 960750, Note_on_c, 0, 75, 90
2, 960810, Note_on_c, 0, 75, 0
2, 960810, Note_on_c, 0, 76, 90
2, 960870, Note_on_c, 0, 76, 0
2, 960870, Note_on_c, 0, 72, 90
2, 960930, Note_on_c, 0, 72, 0
2, 960930, Note_on_c, 0, 71, 90
2, 960990, Note_on_c, 0, 71, 0
2, 960990, Note_on_c, 0, 69, 90
2, 961050, Note_on_c, 0, 69, 0
2, 961050, Note_on_c, 0, 72, 90
2, 961110, Note_on_c, 0, 72, 0
2, 961110, Note_on_c, 0, 71, 90
2, 961170, Note_on_c, 0, 71, 0
2, 961170, Note_on_c, 0, 69, 90
2, 961230, Note_on_c, 0, 69, 0
2, 961230, Note_on_c, 0, 68, 90
2, 961290, Note_on_c, 0, 68, 0
2, 961290, Note_on_c, 0, 69, 90
2, 961410, Note_on_c, 0, 69, 0
2, 961530, Note_on_c, 0, 64, 90
2, 961570, Note_on_c, 0, 64, 0
2, 961570, Note_on_c, 0, 65, 90
2, 961610, Note_on_c, 0, 65, 0
2, 961610, Note_on_c, 0, 64, 90
2, 961650, Note_on_c, 0, 64, 0
2, 961650, Note_on_c, 0, 63, 90
2, 961690, Note_on_c, 0, 63, 0
2, 961690, Note_on_c, 0, 64, 90
2, 961730, Note_on_c, 0, 64, 0
2, 961730, Note_on_c, 0, 65, 90
2, 961770, Note_on_c, 0, 65, 0
2, 961770, Note_on_c, 0, 67, 90
2, 961830, Note_on_c, 0, 67, 0
2, 961830, Note_on_c, 0, 64, 90
2, 961890, Note_on_c, 0, 64, 0
2, 961890, Note_on_c, 0, 65, 90
2, 961950, Note_on_c, 0, 65, 0
2, 961950, Note_on_c, 0, 67, 90
2, 962010, Note_on_c, 0, 67, 0
2, 962010, Note_on_c, 0, 69, 90
2, 962070, Note_on_c, 0, 69, 0
2, 962070, Note_on_c, 0, 71, 90
2, 962130, Note_on_c, 0, 71, 0
2, 962130, Note_on_c, 0, 73, 90
2, 962190, Note_on_c, 0, 73, 0
2, 962190, Note_on_c, 0, 74, 90
2, 962250, Note_on_c, 0, 74, 0
2, 962250, Note_on_c, 0, 76, 90
2, 962310, Note_on_c, 0, 76, 0
2, 962310, Note_on_c, 0, 74, 90
2, 962370, Note_on_c, 0, 74, 0
2, 962370, Note_on_c, 0, 73, 90
2, 962430, Note_on_c, 0, 73, 0
2, 962430, Note_on_c, 0, 71, 90
2, 962490, Note_on_c, 0, 71, 0
2, 962490, Note_on_c, 0, 69, 90
2, 962670, Note_on_c, 0, 69, 0
2, 962670, Note_on_c, 0, 70, 90
2, 962730, Note_on_c, 0, 70, 0
2, 962730, Note_on_c, 0, 72, 90
2, 962790, Note_on_c, 0, 72, 0
2, 962790, Note_on_c, 0, 70, 90
2, 962850, Note_on_c, 0, 70, 0
2, 962850, Note_on_c, 0, 69, 90
2, 962910, Note_on_c, 0, 69, 0
2, 962910, Note_on_c, 0, 67, 90
2, 962970, Note_on_c, 0, 67, 0
2, 962970, Note_on_c, 0, 65, 90
2, 963030, Note_on_c, 0, 65, 0
2, 963030, Note_on_c, 0, 67, 90
2, 963090, Note_on_c, 0, 67, 0
2, 963090, Note_on_c, 0, 69, 90
2, 963150, Note_on_c, 0, 69, 0
2, 963150, Note_on_c, 0, 65, 90
2, 963210, Note_on_c, 0, 65, 0
2, 963210, Note_on_c, 0, 62, 90
2, 963270, Note_on_c, 0, 62, 0
2, 963270, Note_on_c, 0, 64, 90
2, 963330, Note_on_c, 0, 64, 0
2, 963330, Note_on_c, 0, 65, 90
2, 963390, Note_on_c, 0, 65, 0
2, 963390, Note_on_c, 0, 58, 90
2, 963450, Note_on_c, 0, 58, 0
2, 963450, Note_on_c, 0, 70, 90
2, 963510, Note_on_c, 0, 70, 0
2, 963510, Note_on_c, 0, 67, 90
2, 963570, Note_on_c, 0, 67, 0
2, 963570, Note_on_c, 0, 69, 90
2, 963630, Note_on_c, 0, 69, 0
2, 963630, Note_on_c, 0, 70, 90
2, 963690, Note_on_c, 0, 70, 0
2, 963690, Note_on_c, 0, 60, 90
2, 963750, Note_on_c, 0, 60, 0
2, 963750, Note_on_c, 0, 64, 90
2, 963810, Note_on_c, 0, 64, 0
2, 963810, Note_on_c, 0, 69, 90
2, 963930, Note_on_c, 0, 69, 0
2, 963930, Note_on_c, 0, 62, 90
2, 963990, Note_on_c, 0, 62, 0
2, 963990, Note_on_c, 0, 65, 90
2, 964050, Note_on_c, 0, 65, 0
2, 964050, Note_on_c, 0, 70, 90
2, 964170, Note_on_c, 0, 70, 0
2, 964170, Note_on_c, 0, 64, 90
2, 964230, Note_on_c, 0, 64, 0
2, 964230, Note_on_c, 0, 67, 90
2, 964290, Note_on_c, 0, 67, 0
2, 964290, Note_on_c, 0, 69, 90
2, 964350, Note_on_c, 0, 69, 0
2, 964350, Note_on_c, 0, 70, 90
2, 964410, Note_on_c, 0, 70, 0
2, 964410, Note_on_c, 0, 72, 90
2, 964470, Note_on_c, 0, 72, 0
2, 964470, Note_on_c, 0, 69, 90
2, 964530, Note_on_c, 0, 69, 0
2, 964530, Note_on_c, 0, 67, 90
2, 964590, Note_on_c, 0, 67, 0
2, 964590, Note_on_c, 0, 65, 90
2, 964650, Note_on_c, 0, 65, 0
2, 964650, Note_on_c, 0, 67, 90
2, 964770, Note_on_c, 0, 67, 0
2, 964770, Note_on_c, 0, 72, 90
2, 964890, Note_on_c, 0, 72, 0
2, 964890, Note_on_c, 0, 69, 90
2, 965010, Note_on_c, 0, 69, 0
2, 965010, Note_on_c, 0, 71, 90
2, 965130, Note_on_c, 0, 71, 0
2, 965130, Note_on_c, 0, 72, 90
2, 965170, Note_on_c, 0, 72, 0
2, 965170, Note_on_c, 0, 74, 90
2, 965210, Note_on_c, 0, 74, 0
2, 965210, Note_on_c, 0, 72, 90
2, 965250, Note_on_c, 0, 72, 0
2, 965250, Note_on_c, 0, 71, 90
2, 965290, Note_on_c, 0, 71, 0
2, 965290, Note_on_c, 0, 72, 90
2, 965330, Note_on_c, 0, 72, 0
2, 965330, Note_on_c, 0, 74, 90
2, 965370, Note_on_c, 0, 74, 0
2, 965370, Note_on_c, 0, 76, 90
2, 965550, Note_on_c, 0, 76, 0
2, 965550, Note_on_c, 0, 74, 90
2, 965580, Note_on_c, 0, 74, 0
2, 965580, Note_on_c, 0, 72, 90
2, 965610, Note_on_c, 0, 72, 0
2, 965610, Note_on_c, 0, 71, 90
2, 965670, Note_on_c, 0, 71, 0
2, 965670, Note_on_c, 0, 67, 90
2, 965730, Note_on_c, 0, 67, 0
2, 965730, Note_on_c, 0, 69, 90
2, 965790, Note_on_c, 0, 69, 0
2, 965790, Note_on_c, 0, 71, 90
2, 965850, Note_on_c, 0, 71, 0
2, 965850, Note_on_c, 0, 72, 90
2, 966030, Note_on_c, 0, 72, 0
2, 966030, Note_on_c, 0, 71, 90
2, 966060, Note_on_c, 0, 71, 0
2, 966060, Note_on_c, 0, 69, 90
2, 966090, Note_on_c, 0, 69, 0
2, 966090, Note_on_c, 0, 68, 90
2, 966210, Note_on_c, 0, 68, 0
2, 966210, Note_on_c, 0, 64, 90
2, 966330, Note_on_c, 0, 64, 0
2, 966390, Note_on_c, 0, 69, 90
2, 966450, Note_on_c, 0, 69, 0
2, 966450, Note_on_c, 0, 67, 90
2, 966510, Note_on_c, 0, 67, 0
2, 966510, Note_on_c, 0, 65, 90
2, 966570, Note_on_c, 0, 65, 0
2, 966570, Note_on_c, 0, 64, 90
2, 966690, Note_on_c, 0, 64, 0
2, 966690, Note_on_c, 0, 60, 90
2, 966750, Note_on_c, 0, 60, 0
2, 966750, Note_on_c, 0, 64, 90
2, 966810, Note_on_c, 0, 64, 0
2, 966810, Note_on_c, 0, 69, 90
2, 966930, Note_on_c, 0, 69, 0
2, 966930, Note_on_c, 0, 61, 90
2, 967050, Note_on_c, 0, 61, 0
2, 967050, Note_on_c, 0, 62, 90
2, 967170, Note_on_c, 0, 62, 0
2, 967170, Note_on_c, 0, 57, 90
2, 967290, Note_on_c, 0, 57, 0
2, 967350, Note_on_c, 0, 59, 90
2, 967410, Note_on_c, 0, 59, 0
2, 967410, Note_on_c, 0, 61, 90
2, 967470, Note_on_c, 0, 61, 0
2, 967470, Note_on_c, 0, 62, 90
2, 967530, Note_on_c, 0, 62, 0
2, 967530, Note_on_c, 0, 64, 90
2, 967590, Note_on_c, 0, 64, 0
2, 967590, Note_on_c, 0, 62, 90
2, 967650, Note_on_c, 0, 62, 0
2, 967650, Note_on_c, 0, 61, 90
2, 967710, Note_on_c, 0, 61, 0
2, 967710, Note_on_c, 0, 64, 90
2, 967770, Note_on_c, 0, 64, 0
2, 967770, Note_on_c, 0, 65, 90
2, 967830, Note_on_c, 0, 65, 0
2, 967830, Note_on_c, 0, 64, 90
2, 967890, Note_on_c, 0, 64, 0
2, 967890, Note_on_c, 0, 62, 90
2, 967950, Note_on_c, 0, 62, 0
2, 967950, Note_on_c, 0, 65, 90
2, 968010, Note_on_c, 0, 65, 0
2, 968010, Note_on_c, 0, 67, 90
2, 968070, Note_on_c, 0, 67, 0
2, 968070, Note_on_c, 0, 65, 90
2, 968130, Note_on_c, 0, 65, 0
2, 968130, Note_on_c, 0, 64, 90
2, 968190, Note_on_c, 0, 64, 0
2, 968190, Note_on_c, 0, 62, 90
2, 968250, Note_on_c, 0, 62, 0
2, 968250, Note_on_c, 0, 64, 90
2, 968310, Note_on_c, 0, 64, 0
2, 968310, Note_on_c, 0, 72, 90
2, 968370, Note_on_c, 0, 72, 0
2, 968370, Note_on_c, 0, 70, 90
2, 968430, Note_on_c, 0, 70, 0
2, 968430, Note_on_c, 0, 69, 90
2, 968490, Note_on_c, 0, 69, 0
2, 968490, Note_on_c, 0, 70, 90
2, 968550, Note_on_c, 0, 70, 0
2, 968550, Note_on_c, 0, 67, 90
2, 968610, Note_on_c, 0, 67, 0
2, 968610, Note_on_c, 0, 64, 90
2, 968670, Note_on_c, 0, 64, 0
2, 968670, Note_on_c, 0, 67, 90
2, 968730, Note_on_c, 0, 67, 0
2, 968730, Note_on_c, 0, 61, 90
2, 968790, Note_on_c, 0, 61, 0
2, 968790, Note_on_c, 0, 64, 90
2, 968850, Note_on_c, 0, 64, 0
2, 968850, Note_on_c, 0, 62, 90
2, 968910, Note_on_c, 0, 62, 0
2, 968910, Note_on_c, 0, 65, 90
2, 968970, Note_on_c, 0, 65, 0
2, 968970, Note_on_c, 0, 64, 90
2, 969090, Note_on_c, 0, 64, 0
2, 969210, Note_on_c, 0, 71, 90
2, 969250, Note_on_c, 0, 71, 0
2, 969250, Note_on_c, 0, 72, 90
2, 969290, Note_on_c, 0, 72, 0
2, 969290, Note_on_c, 0, 71, 90
2, 969330, Note_on_c, 0, 71, 0
2, 969330, Note_on_c, 0, 69, 90
2, 969370, Note_on_c, 0, 69, 0
2, 969370, Note_on_c, 0, 71, 90
2, 969410, Note_on_c, 0, 71, 0
2, 969410, Note_on_c, 0, 73, 90
2, 969450, Note_on_c, 0, 73, 0
2, 969450, Note_on_c, 0, 74, 90
2, 969490, Note_on_c, 0, 74, 0
2, 969490, Note_on_c, 0, 76, 90
2, 969530, Note_on_c, 0, 76, 0
2, 969530, Note_on_c, 0, 74, 90
2, 969570, Note_on_c, 0, 74, 0
2, 969570, Note_on_c, 0, 73, 90
2, 969610, Note_on_c, 0, 73, 0
2, 969610, Note_on_c, 0, 74, 90
2, 969650, Note_on_c, 0, 74, 0
2, 969650, Note_on_c, 0, 76, 90
2, 969690, Note_on_c, 0, 76, 0
2, 969690, Note_on_c, 0, 77, 90
2, 969730, Note_on_c, 0, 77, 0
2, 969730, Note_on_c, 0, 79, 90
2, 969770, Note_on_c, 0, 79, 0
2, 969770, Note_on_c, 0, 77, 90
2, 969810, Note_on_c, 0, 77, 0
2, 969810, Note_on_c, 0, 76, 90
2, 969850, Note_on_c, 0, 76, 0
2, 969850, Note_on_c, 0, 77, 90
2, 969890, Note_on_c, 0, 77, 0
2, 969890, Note_on_c, 0, 79, 90
2, 969930, Note_on_c, 0, 79, 0
2, 969930, Note_on_c, 0, 81, 90
2, 970230, Note_on_c, 0, 81, 0
2, 970230, Note_on_c, 0, 79, 90
2, 970290, Note_on_c, 0, 79, 0
2, 970290, Note_on_c, 0, 77, 90
2, 970350, Note_on_c, 0, 77, 0
2, 970350, Note_on_c, 0, 76, 90
2, 970410, Note_on_c, 0, 76, 0
2, 970410, Note_on_c, 0, 77, 90
2, 970710, Note_on_c, 0, 77, 0
2, 970710, Note_on_c, 0, 76, 90
2, 970770, Note_on_c, 0, 76, 0
2, 970770, Note_on_c, 0, 74, 90
2, 970830, Note_on_c, 0, 74, 0
2, 970830, Note_on_c, 0, 73, 90
2, 970890, Note_on_c, 0, 73, 0
2, 970890, Note_on_c, 0, 74, 90
2, 971010, Note_on_c, 0, 74, 0
2, 971010, Note_on_c, 0, 76, 90
2, 971070, Note_on_c, 0, 76, 0
2, 971070, Note_on_c, 0, 77, 90
2, 971130, Note_on_c, 0, 77, 0
2, 971130, Note_on_c, 0, 79, 90
2, 971190, Note_on_c, 0, 79, 0
2, 971190, Note_on_c, 0, 81, 90
2, 971250, Note_on_c, 0, 81, 0
2, 971250, Note_on_c, 0, 82, 90
2, 971370, Note_on_c, 0, 82, 0
2, 971370, Note_on_c, 0, 82, 90
2, 971490, Note_on_c, 0, 82, 0
2, 971490, Note_on_c, 0, 73, 90
2, 971610, Note_on_c, 0, 73, 0
2, 971670, Note_on_c, 0, 69, 90
2, 971730, Note_on_c, 0, 69, 0
2, 971730, Note_on_c, 0, 71, 90
2, 971790, Note_on_c, 0, 71, 0
2, 971790, Note_on_c, 0, 73, 90
2, 971850, Note_on_c, 0, 73, 0
2, 971850, Note_on_c, 0, 74, 90
2, 971910, Note_on_c, 0, 74, 0
2, 971910, Note_on_c, 0, 73, 90
2, 971970, Note_on_c, 0, 73, 0
2, 971970, Note_on_c, 0, 71, 90
2, 972030, Note_on_c, 0, 71, 0
2, 972030, Note_on_c, 0, 69, 90
2, 972090, Note_on_c, 0, 69, 0
2, 972090, Note_on_c, 0, 76, 90
2, 972150, Note_on_c, 0, 76, 0
2, 972150, Note_on_c, 0, 73, 90
2, 972210, Note_on_c, 0, 73, 0
2, 972210, Note_on_c, 0, 71, 90
2, 972270, Note_on_c, 0, 71, 0
2, 972270, Note_on_c, 0, 69, 90
2, 972330, Note_on_c, 0, 69, 0
2, 972330, Note_on_c, 0, 77, 90
2, 972390, Note_on_c, 0, 77, 0
2, 972390, Note_on_c, 0, 76, 90
2, 972450, Note_on_c, 0, 76, 0
2, 972450, Note_on_c, 0, 74, 90
2, 972570, Note_on_c, 0, 74, 0
2, 972630, Note_on_c, 0, 82, 90
2, 972690, Note_on_c, 0, 82, 0
2, 972690, Note_on_c, 0, 81, 90
2, 972750, Note_on_c, 0, 81, 0
2, 972750, Note_on_c, 0, 80, 90
2, 972810, Note_on_c, 0, 80, 0
2, 972810, Note_on_c, 0, 81, 90
2, 972870, Note_on_c, 0, 81, 0
2, 972870, Note_on_c, 0, 77, 90
2, 972930, Note_on_c, 0, 77, 0
2, 972930, Note_on_c, 0, 76, 90
2, 972990, Note_on_c, 0, 76, 0
2, 972990, Note_on_c, 0, 74, 90
2, 973050, Note_on_c, 0, 74, 0
2, 973050, Note_on_c, 0, 77, 90
2, 973110, Note_on_c, 0, 77, 0
2, 973110, Note_on_c, 0, 76, 90
2, 973170, Note_on_c, 0, 76, 0
2, 973170, Note_on_c, 0, 74, 90
2, 973230, Note_on_c, 0, 74, 0
2, 973230, Note_on_c, 0, 73, 90
2, 973290, Note_on_c, 0, 73, 0
2, 973290, Note_on_c, 0, 74, 90
2, 973400, Note_on_c, 0, 74, 0
2, 973530, Note_on_c, 0, 69, 90
2, 973570, Note_on_c, 0, 69, 0
2, 973570, Note_on_c, 0, 71, 90
2, 973610, Note_on_c, 0, 71, 0
2, 973610, Note_on_c, 0, 69, 90
2, 973650, Note_on_c, 0, 69, 0
2, 973650, Note_on_c, 0, 68, 90
2, 973690, Note_on_c, 0, 68, 0
2, 973690, Note_on_c, 0, 69, 90
2, 973730, Note_on_c, 0, 69, 0
2, 973730, Note_on_c, 0, 71, 90
2, 973770, Note_on_c, 0, 71, 0
2, 973770, Note_on_c, 0, 73, 90
2, 973830, Note_on_c, 0, 73, 0
2, 973830, Note_on_c, 0, 69, 90
2, 973890, Note_on_c, 0, 69, 0
2, 973890, Note_on_c, 0, 71, 90
2, 973950, Note_on_c, 0, 71, 0
2, 973950, Note_on_c, 0, 73, 90
2, 974010, Note_on_c, 0, 73, 0
2, 974010, Note_on_c, 0, 74, 90
2, 974070, Note_on_c, 0, 74, 0
2, 974070, Note_on_c, 0, 76, 90
2, 974130, Note_on_c, 0, 76, 0
2, 974130, Note_on_c, 0, 77, 90
2, 974190, Note_on_c, 0, 77, 0
2, 974190, Note_on_c, 0, 79, 90
2, 974250, Note_on_c, 0, 79, 0
2, 974250, Note_on_c, 0, 81, 90
2, 974310, Note_on_c, 0, 81, 0
2, 974310, Note_on_c, 0, 79, 90
2, 974370, Note_on_c, 0, 79, 0
2, 974370, Note_on_c, 0, 77, 90
2, 974430, Note_on_c, 0, 77, 0
2, 974430, Note_on_c, 0, 76, 90
2, 974490, Note_on_c, 0, 76, 0
2, 974490, Note_on_c, 0, 74, 90
2, 974670, Note_on_c, 0, 74, 0
2, 974670, Note_on_c, 0, 76, 90
2, 974730, Note_on_c, 0, 76, 0
2, 974730, Note_on_c, 0, 77, 90
2, 974790, Note_on_c, 0, 77, 0
2, 974790, Note_on_c, 0, 76, 90
2, 974850, Note_on_c, 0, 76, 0
2, 974850, Note_on_c, 0, 74, 90
2, 974910, Note_on_c, 0, 74, 0
2, 974910, Note_on_c, 0, 72, 90
2, 974970, Note_on_c, 0, 72, 0
2, 974970, Note_on_c, 0, 70, 90
2, 975030, Note_on_c, 0, 70, 0
2, 975030, Note_on_c, 0, 72, 90
2, 975090, Note_on_c, 0, 72, 0
2, 975090, Note_on_c, 0, 74, 90
2, 975150, Note_on_c, 0, 74, 0
2, 975150, Note_on_c, 0, 70, 90
2, 975210, Note_on_c, 0, 70, 0
2, 975210, Note_on_c, 0, 67, 90
2, 975270, Note_on_c, 0, 67, 0
2, 975270, Note_on_c, 0, 69, 90
2, 975330, Note_on_c, 0, 69, 0
2, 975330, Note_on_c, 0, 70, 90
2, 975390, Note_on_c, 0, 70, 0
2, 975390, Note_on_c, 0, 64, 90
2, 975450, Note_on_c, 0, 64, 0
2, 975450, Note_on_c, 0, 76, 90
2, 975510, Note_on_c, 0, 76, 0
2, 975510, Note_on_c, 0, 73, 90
2, 975570, Note_on_c, 0, 73, 0
2, 975570, Note_on_c, 0, 74, 90
2, 975630, Note_on_c, 0, 74, 0
2, 975630, Note_on_c, 0, 76, 90
2, 975690, Note_on_c, 0, 76, 0
2, 975690, Note_on_c, 0, 65, 90
2, 975750, Note_on_c, 0, 65, 0
2, 975750, Note_on_c, 0, 69, 90
2, 975810, Note_on_c, 0, 69, 0
2, 975810, Note_on_c, 0, 74, 90
2, 975930, Note_on_c, 0, 74, 0
2, 975930, Note_on_c, 0, 67, 90
2, 975990, Note_on_c, 0, 67, 0
2, 975990, Note_on_c, 0, 70, 90
2, 976050, Note_on_c, 0, 70, 0
2, 976050, Note_on_c, 0, 76, 90
2, 976170, Note_on_c, 0, 76, 0
2, 976170, Note_on_c, 0, 69, 90
2, 976230, Note_on_c, 0, 69, 0
2, 976230, Note_on_c, 0, 73, 90
2, 976290, Note_on_c, 0, 73, 0
2, 976290, Note_on_c, 0, 74, 90
2, 976350, Note_on_c, 0, 74, 0
2, 976350, Note_on_c, 0, 76, 90
2, 976410, Note_on_c, 0, 76, 0
2, 976410, Note_on_c, 0, 77, 90
2, 976470, Note_on_c, 0, 77, 0
2, 976470, Note_on_c, 0, 74, 90
2, 976530, Note_on_c, 0, 74, 0
2, 976530, Note_on_c, 0, 73, 90
2, 976590, Note_on_c, 0, 73, 0
2, 976590, Note_on_c, 0, 71, 90
2, 976650, Note_on_c, 0, 71, 0
2, 976650, Note_on_c, 0, 73, 90
2, 976770, Note_on_c, 0, 73, 0
2, 976770, Note_on_c, 0, 77, 90
2, 976890, Note_on_c, 0, 77, 0
2, 976890, Note_on_c, 0, 74, 90
2, 977010, Note_on_c, 0, 74, 0
2, 977010, Note_on_c, 0, 76, 90
2, 977130, Note_on_c, 0, 76, 0
2, 977130, Note_on_c, 0, 77, 90
2, 977170, Note_on_c, 0, 77, 0
2, 977170, Note_on_c, 0, 79, 90
2, 977210, Note_on_c, 0, 79, 0
2, 977210, Note_on_c, 0, 77, 90
2, 977250, Note_on_c, 0, 77, 0
2, 977250, Note_on_c, 0, 76, 90
2, 977290, Note_on_c, 0, 76, 0
2, 977290, Note_on_c, 0, 77, 90
2, 977330, Note_on_c, 0, 77, 0
2, 977330, Note_on_c, 0, 79, 90
2, 977370, Note_on_c, 0, 79, 0
2, 977370, Note_on_c, 0, 81, 90
2, 977550, Note_on_c, 0, 81, 0
2, 977550, Note_on_c, 0, 79, 90
2, 977580, Note_on_c, 0, 79, 0
2, 977580, Note_on_c, 0, 77, 90
2, 977610, Note_on_c, 0, 77, 0
2, 977610, Note_on_c, 0, 76, 90
2, 977670, Note_on_c, 0, 76, 0
2, 977670, Note_on_c, 0, 73, 90
2, 977730, Note_on_c, 0, 73, 0
2, 977730, Note_on_c, 0, 74, 90
2, 977790, Note_on_c, 0, 74, 0
2, 977790, Note_on_c, 0, 76, 90
2, 977850, Note_on_c, 0, 76, 0
2, 977850, Note_on_c, 0, 77, 90
2, 978030, Note_on_c, 0, 77, 0
2, 978030, Note_on_c, 0, 76, 90
2, 978060, Note_on_c, 0, 76, 0
2, 978060, Note_on_c, 0, 74, 90
2, 978090, Note_on_c, 0, 74, 0
2, 978090, Note_on_c, 0, 73, 90
2, 978210, Note_on_c, 0, 73, 0
2, 978210, Note_on_c, 0, 69, 90
2, 978330, Note_on_c, 0, 69, 0
2, 978390, Note_on_c, 0, 74, 90
2, 978450, Note_on_c, 0, 74, 0
2, 978450, Note_on_c, 0, 72, 90
2, 978510, Note_on_c, 0, 72, 0
2, 978510, Note_on_c, 0, 70, 90
2, 978570, Note_on_c, 0, 70, 0
2, 978570, Note_on_c, 0, 69, 90
2, 978690, Note_on_c, 0, 69, 0
2, 978690, Note_on_c, 0, 65, 90
2, 978750, Note_on_c, 0, 65, 0
2, 978750, Note_on_c, 0, 69, 90
2, 978810, Note_on_c, 0, 69, 0
2, 978810, Note_on_c, 0, 74, 90
2, 978930, Note_on_c, 0, 74, 0
2, 978930, Note_on_c, 0, 66, 90
2, 979050, Note_on_c, 0, 66, 0
2, 979050, Note_on_c, 0, 67, 90
2, 979170, Note_on_c, 0, 67, 0
2, 979170, Note_on_c, 0, 62, 90
2, 979290, Note_on_c, 0, 62, 0
2, 979350, Note_on_c, 0, 64, 90
2, 979410, Note_on_c, 0, 64, 0
2, 979410, Note_on_c, 0, 65, 90
2, 979470, Note_on_c, 0, 65, 0
2, 979470, Note_on_c, 0, 67, 90
2, 979530, Note_on_c, 0, 67, 0
2, 979530, Note_on_c, 0, 69, 90
2, 979590, Note_on_c, 0, 69, 0
2, 979590, Note_on_c, 0, 67, 90
2, 979650, Note_on_c, 0, 67, 0
2, 979650, Note_on_c, 0, 65, 90
2, 979710, Note_on_c, 0, 65, 0
2, 979710, Note_on_c, 0, 69, 90
2, 979770, Note_on_c, 0, 69, 0
2, 979770, Note_on_c, 0, 70, 90
2, 979830, Note_on_c, 0, 70, 0
2, 979830, Note_on_c, 0, 69, 90
2, 979890, Note_on_c, 0, 69, 0
2, 979890, Note_on_c, 0, 67, 90
2, 979950, Note_on_c, 0, 67, 0
2, 979950, Note_on_c, 0, 70, 90
2, 980010, Note_on_c, 0, 70, 0
2, 980010, Note_on_c, 0, 72, 90
2, 980070, Note_on_c, 0, 72, 0
2, 980070, Note_on_c, 0, 70, 90
2, 980130, Note_on_c, 0, 70, 0
2, 980130, Note_on_c, 0, 69, 90
2, 980190, Note_on_c, 0, 69, 0
2, 980190, Note_on_c, 0, 67, 90
2, 980250, Note_on_c, 0, 67, 0
2, 980250, Note_on_c, 0, 69, 90
2, 980310, Note_on_c, 0, 69, 0
2, 980310, Note_on_c, 0, 77, 90
2, 980370, Note_on_c, 0, 77, 0
2, 980370, Note_on_c, 0, 76, 90
2, 980430, Note_on_c, 0, 76, 0
2, 980430, Note_on_c, 0, 74, 90
2, 980490, Note_on_c, 0, 74, 0
2, 980490, Note_on_c, 0, 76, 90
2, 980550, Note_on_c, 0, 76, 0
2, 980550, Note_on_c, 0, 72, 90
2, 980610, Note_on_c, 0, 72, 0
2, 980610, Note_on_c, 0, 69, 90
2, 980670, Note_on_c, 0, 69, 0
2, 980670, Note_on_c, 0, 72, 90
2, 980730, Note_on_c, 0, 72, 0
2, 980730, Note_on_c, 0, 65, 90
2, 980790, Note_on_c, 0, 65, 0
2, 980790, Note_on_c, 0, 69, 90
2, 980850, Note_on_c, 0, 69, 0
2, 980850, Note_on_c, 0, 67, 90
2, 980910, Note_on_c, 0, 67, 0
2, 980910, Note_on_c, 0, 70, 90
2, 980970, Note_on_c, 0, 70, 0
2, 980970, Note_on_c, 0, 69, 90
2, 981090, Note_on_c, 0, 69, 0
2, 981210, Note_on_c, 0, 76, 90
2, 981250, Note_on_c, 0, 76, 0
2, 981250, Note_on_c, 0, 77, 90
2, 981290, Note_on_c, 0, 77, 0
2, 981290, Note_on_c, 0, 76, 90
2, 981330, Note_on_c, 0, 76, 0
2, 981330, Note_on_c, 0, 74, 90
2, 981370, Note_on_c, 0, 74, 0
2, 981370, Note_on_c, 0, 76, 90
2, 981410, Note_on_c, 0, 76, 0
2, 981410, Note_on_c, 0, 77, 90
2, 981450, Note_on_c, 0, 77, 0
2, 981450, Note_on_c, 0, 79, 90
2, 981600, Note_on_c, 0, 79, 0
2, 981600, Note_on_c, 0, 77, 90
2, 981630, Note_on_c, 0, 77, 0
2, 981630, Note_on_c, 0, 76, 90
2, 981660, Note_on_c, 0, 76, 0
2, 981660, Note_on_c, 0, 74, 90
2, 981690, Note_on_c, 0, 74, 0
2, 981690, Note_on_c, 0, 72, 90
2, 981730, Note_on_c, 0, 72, 0
2, 981730, Note_on_c, 0, 74, 90
2, 981770, Note_on_c, 0, 74, 0
2, 981770, Note_on_c, 0, 72, 90
2, 981810, Note_on_c, 0, 72, 0
2, 981810, Note_on_c, 0, 71, 90
2, 981850, Note_on_c, 0, 71, 0
2, 981850, Note_on_c, 0, 72, 90
2, 981890, Note_on_c, 0, 72, 0
2, 981890, Note_on_c, 0, 74, 90
2, 981930, Note_on_c, 0, 74, 0
2, 981930, Note_on_c, 0, 76, 90
2, 981990, Note_on_c, 0, 76, 0
2, 981990, Note_on_c, 0, 74, 90
2, 982050, Note_on_c, 0, 74, 0
2, 982050, Note_on_c, 0, 73, 90
2, 982110, Note_on_c, 0, 73, 0
2, 982110, Note_on_c, 0, 71, 90
2, 982170, Note_on_c, 0, 71, 0
2, 982170, Note_on_c, 0, 69, 90
2, 982350, Note_on_c, 0, 69, 0
2, 982350, Note_on_c, 0, 70, 90
2, 982410, Note_on_c, 0, 70, 0
2, 982410, Note_on_c, 0, 72, 90
2, 982470, Note_on_c, 0, 72, 0
2, 982470, Note_on_c, 0, 70, 90
2, 982530, Note_on_c, 0, 70, 0
2, 982530, Note_on_c, 0, 69, 90
2, 982590, Note_on_c, 0, 69, 0
2, 982590, Note_on_c, 0, 67, 90
2, 982650, Note_on_c, 0, 67, 0
2, 982650, Note_on_c, 0, 65, 90
2, 982710, Note_on_c, 0, 65, 0
2, 982710, Note_on_c, 0, 67, 90
2, 982770, Note_on_c, 0, 67, 0
2, 982770, Note_on_c, 0, 69, 90
2, 982830, Note_on_c, 0, 69, 0
2, 982830, Note_on_c, 0, 65, 90
2, 982890, Note_on_c, 0, 65, 0
2, 982890, Note_on_c, 0, 70, 90
2, 982950, Note_on_c, 0, 70, 0
2, 982950, Note_on_c, 0, 67, 90
2, 983010, Note_on_c, 0, 67, 0
2, 983010, Note_on_c, 0, 65, 90
2, 983070, Note_on_c, 0, 65, 0
2, 983070, Note_on_c, 0, 64, 90
2, 983130, Note_on_c, 0, 64, 0
2, 983130, Note_on_c, 0, 62, 90
2, 983250, Note_on_c, 0, 62, 0
2, 983490, Note_on_c, 0, 69, 90
2, 983610, Note_on_c, 0, 69, 0
2, 983610, Note_on_c, 0, 62, 90
2, 983670, Note_on_c, 0, 62, 0
2, 983670, Note_on_c, 0, 65, 90
2, 983730, Note_on_c, 0, 65, 0
2, 983730, Note_on_c, 0, 70, 90
2, 983850, Note_on_c, 0, 70, 0
2, 983850, Note_on_c, 0, 64, 90
2, 983910, Note_on_c, 0, 64, 0
2, 983910, Note_on_c, 0, 67, 90
2, 983970, Note_on_c, 0, 67, 0
2, 983970, Note_on_c, 0, 72, 90
2, 984090, Note_on_c, 0, 72, 0
2, 984150, Note_on_c, 0, 69, 90
2, 984210, Note_on_c, 0, 69, 0
2, 984210, Note_on_c, 0, 67, 90
2, 984270, Note_on_c, 0, 67, 0
2, 984270, Note_on_c, 0, 66, 90
2, 984330, Note_on_c, 0, 66, 0
2, 984330, Note_on_c, 0, 67, 90
2, 984450, Note_on_c, 0, 67, 0
2, 984450, Note_on_c, 0, 69, 90
2, 984690, Note_on_c, 0, 69, 0
2, 984690, Note_on_c, 0, 70, 90
2, 984810, Note_on_c, 0, 70, 0
2, 984810, Note_on_c, 0, 61, 90
2, 984870, Note_on_c, 0, 61, 0
2, 984870, Note_on_c, 0, 62, 90
2, 984930, Note_on_c, 0, 62, 0
2, 984930, Note_on_c, 0, 64, 90
2, 984990, Note_on_c, 0, 64, 0
2, 984990, Note_on_c, 0, 65, 90
2, 985050, Note_on_c, 0, 65, 0
2, 985050, Note_on_c, 0, 67, 90
2, 985090, Note_on_c, 0, 67, 0
2, 985090, Note_on_c, 0, 69, 90
2, 985130, Note_on_c, 0, 69, 0
2, 985130, Note_on_c, 0, 67, 90
2, 985170, Note_on_c, 0, 67, 0
2, 985170, Note_on_c, 0, 65, 90
2, 985210, Note_on_c, 0, 65, 0
2, 985210, Note_on_c, 0, 67, 90
2, 985250, Note_on_c, 0, 67, 0
2, 985250, Note_on_c, 0, 69, 90
2, 985290, Note_on_c, 0, 69, 0
2, 985290, Note_on_c, 0, 70, 90
2, 985410, Note_on_c, 0, 70, 0
2, 985410, Note_on_c, 0, 67, 90
2, 985530, Note_on_c, 0, 67, 0
2, 985530, Note_on_c, 0, 74, 90
2, 985570, Note_on_c, 0, 74, 0
2, 985570, Note_on_c, 0, 76, 90
2, 985610, Note_on_c, 0, 76, 0
2, 985610, Note_on_c, 0, 74, 90
2, 985650, Note_on_c, 0, 74, 0
2, 985650, Note_on_c, 0, 73, 90
2, 985690, Note_on_c, 0, 73, 0
2, 985690, Note_on_c, 0, 74, 90
2, 985730, Note_on_c, 0, 74, 0
2, 985730, Note_on_c, 0, 76, 90
2, 985770, Note_on_c, 0, 76, 0
2, 985770, Note_on_c, 0, 77, 90
2, 985890, Note_on_c, 0, 77, 0
2, 985890, Note_on_c, 0, 74, 90
2, 986010, Note_on_c, 0, 74, 0
2, 986010, Note_on_c, 0, 69, 90
2, 986050, Note_on_c, 0, 69, 0
2, 986050, Note_on_c, 0, 71, 90
2, 986090, Note_on_c, 0, 71, 0
2, 986090, Note_on_c, 0, 69, 90
2, 986130, Note_on_c, 0, 69, 0
2, 986130, Note_on_c, 0, 68, 90
2, 986170, Note_on_c, 0, 68, 0
2, 986170, Note_on_c, 0, 69, 90
2, 986210, Note_on_c, 0, 69, 0
2, 986210, Note_on_c, 0, 71, 90
2, 986250, Note_on_c, 0, 71, 0
2, 986250, Note_on_c, 0, 73, 90
2, 986290, Note_on_c, 0, 73, 0
2, 986290, Note_on_c, 0, 74, 90
2, 986330, Note_on_c, 0, 74, 0
2, 986330, Note_on_c, 0, 73, 90
2, 986370, Note_on_c, 0, 73, 0
2, 986370, Note_on_c, 0, 71, 90
2, 986410, Note_on_c, 0, 71, 0
2, 986410, Note_on_c, 0, 73, 90
2, 986450, Note_on_c, 0, 73, 0
2, 986450, Note_on_c, 0, 74, 90
2, 986490, Note_on_c, 0, 74, 0
2, 986490, Note_on_c, 0, 76, 90
2, 986550, Note_on_c, 0, 76, 0
2, 986550, Note_on_c, 0, 69, 90
2, 986610, Note_on_c, 0, 69, 0
2, 986610, Note_on_c, 0, 81, 90
2, 986790, Note_on_c, 0, 81, 0
2, 986790, Note_on_c, 0, 79, 90
2, 986850, Note_on_c, 0, 79, 0
2, 986850, Note_on_c, 0, 77, 90
2, 986910, Note_on_c, 0, 77, 0
2, 986910, Note_on_c, 0, 76, 90
2, 986970, Note_on_c, 0, 76, 0
2, 986970, Note_on_c, 0, 77, 90
2, 987270, Note_on_c, 0, 77, 0
2, 987270, Note_on_c, 0, 76, 90
2, 987330, Note_on_c, 0, 76, 0
2, 987330, Note_on_c, 0, 74, 90
2, 987390, Note_on_c, 0, 74, 0
2, 987390, Note_on_c, 0, 72, 90
2, 987450, Note_on_c, 0, 72, 0
2, 987450, Note_on_c, 0, 70, 90
2, 987510, Note_on_c, 0, 70, 0
2, 987510, Note_on_c, 0, 72, 90
2, 987570, Note_on_c, 0, 72, 0
2, 987570, Note_on_c, 0, 74, 90
2, 987630, Note_on_c, 0, 74, 0
2, 987630, Note_on_c, 0, 70, 90
2, 987690, Note_on_c, 0, 70, 0
2, 987690, Note_on_c, 0, 67, 90
2, 987750, Note_on_c, 0, 67, 0
2, 987750, Note_on_c, 0, 69, 90
2, 987810, Note_on_c, 0, 69, 0
2, 987810, Note_on_c, 0, 70, 90
2, 987870, Note_on_c, 0, 70, 0
2, 987870, Note_on_c, 0, 64, 90
2, 987930, Note_on_c, 0, 64, 0
2, 987930, Note_on_c, 0, 76, 90
2, 987990, Note_on_c, 0, 76, 0
2, 987990, Note_on_c, 0, 73, 90
2, 988050, Note_on_c, 0, 73, 0
2, 988050, Note_on_c, 0, 74, 90
2, 988110, Note_on_c, 0, 74, 0
2, 988110, Note_on_c, 0, 76, 90
2, 988170, Note_on_c, 0, 76, 0
2, 988170, Note_on_c, 0, 65, 90
2, 988230, Note_on_c, 0, 65, 0
2, 988230, Note_on_c, 0, 69, 90
2, 988290, Note_on_c, 0, 69, 0
2, 988290, Note_on_c, 0, 74, 90
2, 988410, Note_on_c, 0, 74, 0
2, 988410, Note_on_c, 0, 67, 90
2, 988470, Note_on_c, 0, 67, 0
2, 988470, Note_on_c, 0, 70, 90
2, 988530, Note_on_c, 0, 70, 0
2, 988530, Note_on_c, 0, 76, 90
2, 988650, Note_on_c, 0, 76, 0
2, 988650, Note_on_c, 0, 69, 90
2, 988710, Note_on_c, 0, 69, 0
2, 988710, Note_on_c, 0, 73, 90
2, 988770, Note_on_c, 0, 73, 0
2, 988770, Note_on_c, 0, 74, 90
2, 988830, Note_on_c, 0, 74, 0
2, 988830, Note_on_c, 0, 76, 90
2, 988890, Note_on_c, 0, 76, 0
2, 988890, Note_on_c, 0, 77, 90
2, 988950, Note_on_c, 0, 77, 0
2, 988950, Note_on_c, 0, 74, 90
2, 989010, Note_on_c, 0, 74, 0
2, 989010, Note_on_c, 0, 73, 90
2, 989070, Note_on_c, 0, 73, 0
2, 989070, Note_on_c, 0, 71, 90
2, 989130, Note_on_c, 0, 71, 0
2, 989130, Note_on_c, 0, 73, 90
2, 989250, Note_on_c, 0, 73, 0
2, 989250, Note_on_c, 0, 77, 90
2, 989370, Note_on_c, 0, 77, 0
2, 989370, Note_on_c, 0, 74, 90
2, 989490, Note_on_c, 0, 74, 0
2, 989490, Note_on_c, 0, 76, 90
2, 989610, Note_on_c, 0, 76, 0
2, 989610, Note_on_c, 0, 69, 90
2, 989650, Note_on_c, 0, 69, 0
2, 989650, Note_on_c, 0, 71, 90
2, 989690, Note_on_c, 0, 71, 0
2, 989690, Note_on_c, 0, 69, 90
2, 989730, Note_on_c, 0, 69, 0
2, 989730, Note_on_c, 0, 68, 90
2, 989770, Note_on_c, 0, 68, 0
2, 989770, Note_on_c, 0, 69, 90
2, 989810, Note_on_c, 0, 69, 0
2, 989810, Note_on_c, 0, 71, 90
2, 989850, Note_on_c, 0, 71, 0
2, 989850, Note_on_c, 0, 72, 90
2, 989890, Note_on_c, 0, 72, 0
2, 989890, Note_on_c, 0, 74, 90
2, 989930, Note_on_c, 0, 74, 0
2, 989930, Note_on_c, 0, 72, 90
2, 989970, Note_on_c, 0, 72, 0
2, 989970, Note_on_c, 0, 71, 90
2, 990010, Note_on_c, 0, 71, 0
2, 990010, Note_on_c, 0, 72, 90
2, 990050, Note_on_c, 0, 72, 0
2, 990050, Note_on_c, 0, 74, 90
2, 990090, Note_on_c, 0, 74, 0
2, 990090, Note_on_c, 0, 76, 90
2, 990390, Note_on_c, 0, 76, 0
2, 990390, Note_on_c, 0, 74, 90
2, 990450, Note_on_c, 0, 74, 0
2, 990450, Note_on_c, 0, 72, 90
2, 990510, Note_on_c, 0, 72, 0
2, 990510, Note_on_c, 0, 71, 90
2, 990570, Note_on_c, 0, 71, 0
2, 990570, Note_on_c, 0, 72, 90
2, 990870, Note_on_c, 0, 72, 0
2, 990870, Note_on_c, 0, 71, 90
2, 990930, Note_on_c, 0, 71, 0
2, 990930, Note_on_c, 0, 69, 90
2, 990990, Note_on_c, 0, 69, 0
2, 990990, Note_on_c, 0, 68, 90
2, 991050, Note_on_c, 0, 68, 0
2, 991050, Note_on_c, 0, 69, 90
2, 991170, Note_on_c, 0, 69, 0
2, 991170, Note_on_c, 0, 71, 90
2, 991230, Note_on_c, 0, 71, 0
2, 991230, Note_on_c, 0, 72, 90
2, 991290, Note_on_c, 0, 72, 0
2, 991290, Note_on_c, 0, 74, 90
2, 991350, Note_on_c, 0, 74, 0
2, 991350, Note_on_c, 0, 76, 90
2, 991410, Note_on_c, 0, 76, 0
2, 991410, Note_on_c, 0, 77, 90
2, 991530, Note_on_c, 0, 77, 0
2, 991530, Note_on_c, 0, 77, 90
2, 991650, Note_on_c, 0, 77, 0
2, 991650, Note_on_c, 0, 68, 90
2, 991770, Note_on_c, 0, 68, 0
2, 991830, Note_on_c, 0, 64, 90
2, 991890, Note_on_c, 0, 64, 0
2, 991890, Note_on_c, 0, 66, 90
2, 991950, Note_on_c, 0, 66, 0
2, 991950, Note_on_c, 0, 68, 90
2, 992010, Note_on_c, 0, 68, 0
2, 992010, Note_on_c, 0, 69, 90
2, 992070, Note_on_c, 0, 69, 0
2, 992070, Note_on_c, 0, 68, 90
2, 992130, Note_on_c, 0, 68, 0
2, 992130, Note_on_c, 0, 66, 90
2, 992190, Note_on_c, 0, 66, 0
2, 992190, Note_on_c, 0, 64, 90
2, 992250, Note_on_c, 0, 64, 0
2, 992250, Note_on_c, 0, 71, 90
2, 992310, Note_on_c, 0, 71, 0
2, 992310, Note_on_c, 0, 68, 90
2, 992370, Note_on_c, 0, 68, 0
2, 992370, Note_on_c, 0, 66, 90
2, 992430, Note_on_c, 0, 66, 0
2, 992430, Note_on_c, 0, 64, 90
2, 992490, Note_on_c, 0, 64, 0
2, 992490, Note_on_c, 0, 72, 90
2, 992550, Note_on_c, 0, 72, 0
2, 992550, Note_on_c, 0, 71, 90
2, 992610, Note_on_c, 0, 71, 0
2, 992610, Note_on_c, 0, 69, 90
2, 992730, Note_on_c, 0, 69, 0
2, 992790, Note_on_c, 0, 77, 90
2, 992850, Note_on_c, 0, 77, 0
2, 992850, Note_on_c, 0, 76, 90
2, 992910, Note_on_c, 0, 76, 0
2, 992910, Note_on_c, 0, 75, 90
2, 992970, Note_on_c, 0, 75, 0
2, 992970, Note_on_c, 0, 76, 90
2, 993030, Note_on_c, 0, 76, 0
2, 993030, Note_on_c, 0, 72, 90
2, 993090, Note_on_c, 0, 72, 0
2, 993090, Note_on_c, 0, 71, 90
2, 993150, Note_on_c, 0, 71, 0
2, 993150, Note_on_c, 0, 69, 90
2, 993210, Note_on_c, 0, 69, 0
2, 993210, Note_on_c, 0, 72, 90
2, 993270, Note_on_c, 0, 72, 0
2, 993270, Note_on_c, 0, 71, 90
2, 993330, Note_on_c, 0, 71, 0
2, 993330, Note_on_c, 0, 69, 90
2, 993390, Note_on_c, 0, 69, 0
2, 993390, Note_on_c, 0, 68, 90
2, 993450, Note_on_c, 0, 68, 0
2, 993450, Note_on_c, 0, 69, 90
2, 993570, Note_on_c, 0, 69, 0
2, 993690, Note_on_c, 0, 64, 90
2, 993730, Note_on_c, 0, 64, 0
2, 993730, Note_on_c, 0, 65, 90
2, 993770, Note_on_c, 0, 65, 0
2, 993770, Note_on_c, 0, 64, 90
2, 993810, Note_on_c, 0, 64, 0
2, 993810, Note_on_c, 0, 63, 90
2, 993850, Note_on_c, 0, 63, 0
2, 993850, Note_on_c, 0, 64, 90
2, 993890, Note_on_c, 0, 64, 0
2, 993890, Note_on_c, 0, 65, 90
2, 993930, Note_on_c, 0, 65, 0
2, 993930, Note_on_c, 0, 67, 90
2, 993990, Note_on_c, 0, 67, 0
2, 993990, Note_on_c, 0, 64, 90
2, 994050, Note_on_c, 0, 64, 0
2, 994050, Note_on_c, 0, 65, 90
2, 994110, Note_on_c, 0, 65, 0
2, 994110, Note_on_c, 0, 67, 90
2, 994170, Note_on_c, 0, 67, 0
2, 994170, Note_on_c, 0, 69, 90
2, 994230, Note_on_c, 0, 69, 0
2, 994230, Note_on_c, 0, 71, 90
2, 994290, Note_on_c, 0, 71, 0
2, 994290, Note_on_c, 0, 73, 90
2, 994350, Note_on_c, 0, 73, 0
2, 994350, Note_on_c, 0, 74, 90
2, 994410, Note_on_c, 0, 74, 0
2, 994410, Note_on_c, 0, 76, 90
2, 994470, Note_on_c, 0, 76, 0
2, 994470, Note_on_c, 0, 74, 90
2, 994530, Note_on_c, 0, 74, 0
2, 994530, Note_on_c, 0, 73, 90
2, 994590, Note_on_c, 0, 73, 0
2, 994590, Note_on_c, 0, 71, 90
2, 994650, Note_on_c, 0, 71, 0
2, 994650, Note_on_c, 0, 69, 90
2, 994830, Note_on_c, 0, 69, 0
2, 994830, Note_on_c, 0, 70, 90
2, 994890, Note_on_c, 0, 70, 0
2, 994890, Note_on_c, 0, 72, 90
2, 994950, Note_on_c, 0, 72, 0
2, 994950, Note_on_c, 0, 70, 90
2, 995010, Note_on_c, 0, 70, 0
2, 995010, Note_on_c, 0, 69, 90
2, 995070, Note_on_c, 0, 69, 0
2, 995070, Note_on_c, 0, 67, 90
2, 995130, Note_on_c, 0, 67, 0
2, 995130, Note_on_c, 0, 65, 90
2, 995190, Note_on_c, 0, 65, 0
2, 995190, Note_on_c, 0, 67, 90
2, 995250, Note_on_c, 0, 67, 0
2, 995250, Note_on_c, 0, 69, 90
2, 995310, Note_on_c, 0, 69, 0
2, 995310, Note_on_c, 0, 65, 90
2, 995370, Note_on_c, 0, 65, 0
2, 995370, Note_on_c, 0, 62, 90
2, 995430, Note_on_c, 0, 62, 0
2, 995430, Note_on_c, 0, 64, 90
2, 995490, Note_on_c, 0, 64, 0
2, 995490, Note_on_c, 0, 65, 90
2, 995550, Note_on_c, 0, 65, 0
2, 995550, Note_on_c, 0, 58, 90
2, 995610, Note_on_c, 0, 58, 0
2, 995610, Note_on_c, 0, 70, 90
2, 995670, Note_on_c, 0, 70, 0
2, 995670, Note_on_c, 0, 67, 90
2, 995730, Note_on_c, 0, 67, 0
2, 995730, Note_on_c, 0, 69, 90
2, 995790, Note_on_c, 0, 69, 0
2, 995790, Note_on_c, 0, 70, 90
2, 995850, Note_on_c, 0, 70, 0
2, 995850, Note_on_c, 0, 60, 90
2, 995910, Note_on_c, 0, 60, 0
2, 995910, Note_on_c, 0, 64, 90
2, 995970, Note_on_c, 0, 64, 0
2, 995970, Note_on_c, 0, 69, 90
2, 996090, Note_on_c, 0, 69, 0
2, 996090, Note_on_c, 0, 62, 90
2, 996150, Note_on_c, 0, 62, 0
2, 996150, Note_on_c, 0, 65, 90
2, 996210, Note_on_c, 0, 65, 0
2, 996210, Note_on_c, 0, 70, 90
2, 996330, Note_on_c, 0, 70, 0
2, 996330, Note_on_c, 0, 64, 90
2, 996390, Note_on_c, 0, 64, 0
2, 996390, Note_on_c, 0, 67, 90
2, 996450, Note_on_c, 0, 67, 0
2, 996450, Note_on_c, 0, 69, 90
2, 996510, Note_on_c, 0, 69, 0
2, 996510, Note_on_c, 0, 70, 90
2, 996570, Note_on_c, 0, 70, 0
2, 996570, Note_on_c, 0, 72, 90
2, 996630, Note_on_c, 0, 72, 0
2, 996630, Note_on_c, 0, 69, 90
2, 996690, Note_on_c, 0, 69, 0
2, 996690, Note_on_c, 0, 67, 90
2, 996750, Note_on_c, 0, 67, 0
2, 996750, Note_on_c, 0, 65, 90
2, 996810, Note_on_c, 0, 65, 0
2, 996810, Note_on_c, 0, 67, 90
2, 996930, Note_on_c, 0, 67, 0
2, 996930, Note_on_c, 0, 72, 90
2, 997050, Note_on_c, 0, 72, 0
2, 997050, Note_on_c, 0, 69, 90
2, 997170, Note_on_c, 0, 69, 0
2, 997170, Note_on_c, 0, 71, 90
2, 997290, Note_on_c, 0, 71, 0
2, 997290, Note_on_c, 0, 72, 90
2, 997330, Note_on_c, 0, 72, 0
2, 997330, Note_on_c, 0, 74, 90
2, 997370, Note_on_c, 0, 74, 0
2, 997370, Note_on_c, 0, 72, 90
2, 997410, Note_on_c, 0, 72, 0
2, 997410, Note_on_c, 0, 71, 90
2, 997450, Note_on_c, 0, 71, 0
2, 997450, Note_on_c, 0, 72, 90
2, 997490, Note_on_c, 0, 72, 0
2, 997490, Note_on_c, 0, 74, 90
2, 997530, Note_on_c, 0, 74, 0
2, 997530, Note_on_c, 0, 76, 90
2, 997710, Note_on_c, 0, 76, 0
2, 997710, Note_on_c, 0, 74, 90
2, 997740, Note_on_c, 0, 74, 0
2, 997740, Note_on_c, 0, 72, 90
2, 997770, Note_on_c, 0, 72, 0
2, 997770, Note_on_c, 0, 71, 90
2, 997830, Note_on_c, 0, 71, 0
2, 997830, Note_on_c, 0, 67, 90
2, 997890, Note_on_c, 0, 67, 0
2, 997890, Note_on_c, 0, 69, 90
2, 997950, Note_on_c, 0, 69, 0
2, 997950, Note_on_c, 0, 71, 90
2, 998010, Note_on_c, 0, 71, 0
2, 998010, Note_on_c, 0, 72, 90
2, 998190, Note_on_c, 0, 72, 0
2, 998190, Note_on_c, 0, 71, 90
2, 998220, Note_on_c, 0, 71, 0
2, 998220, Note_on_c, 0, 69, 90
2, 998250, Note_on_c, 0, 69, 0
2, 998250, Note_on_c, 0, 68, 90
2, 998370, Note_on_c, 0, 68, 0
2, 998370, Note_on_c, 0, 64, 90
2, 998490, Note_on_c, 0, 64, 0
2, 998550, Note_on_c, 0, 69, 90
2, 998610, Note_on_c, 0, 69, 0
2, 998610, Note_on_c, 0, 67, 90
2, 998670, Note_on_c, 0, 67, 0
2, 998670, Note_on_c, 0, 65, 90
2, 998730, Note_on_c, 0, 65, 0
2, 998730, Note_on_c, 0, 64, 90
2, 998850, Note_on_c, 0, 64, 0
2, 998850, Note_on_c, 0, 60, 90
2, 998910, Note_on_c, 0, 60, 0
2, 998910, Note_on_c, 0, 64, 90
2, 998970, Note_on_c, 0, 64, 0
2, 998970, Note_on_c, 0, 69, 90
2, 999090, Note_on_c, 0, 69, 0
2, 999090, Note_on_c, 0, 61, 90
2, 999210, Note_on_c, 0, 61, 0
2, 999210, Note_on_c, 0, 62, 90
2, 999330, Note_on_c, 0, 62, 0
2, 999330, Note_on_c, 0, 57, 90
2, 999450, Note_on_c, 0, 57, 0
2, 999510, Note_on_c, 0, 59, 90
2, 999570, Note_on_c, 0, 59, 0
2, 999570, Note_on_c, 0, 61, 90
2, 999630, Note_on_c, 0, 61, 0
2, 999630, Note_on_c, 0, 62, 90
2, 999690, Note_on_c, 0, 62, 0
2, 999690, Note_on_c, 0, 64, 90
2, 999750, Note_on_c, 0, 64, 0
2, 999750, Note_on_c, 0, 62, 90
2, 999810, Note_on_c, 0, 62, 0
2, 999810, Note_on_c, 0, 61, 90
2, 999870, Note_on_c, 0, 61, 0
2, 999870, Note_on_c, 0, 64, 90
2, 999930, Note_on_c, 0, 64, 0
2, 999930, Note_on_c, 0, 65, 90
2, 999990, Note_on_c, 0, 65, 0
2, 999990, Note_on_c, 0, 64, 90
2, 1000050, Note_on_c, 0, 64, 0
2, 1000050, Note_on_c, 0, 62, 90
2, 1000110, Note_on_c, 0, 62, 0
2, 1000110, Note_on_c, 0, 65, 90
2, 1000170, Note_on_c, 0, 65, 0
2, 1000170, Note_on_c, 0, 67, 90
2, 1000230, Note_on_c, 0, 67, 0
2, 1000230, Note_on_c, 0, 65, 90
2, 1000290, Note_on_c, 0, 65, 0
2, 1000290, Note_on_c, 0, 64, 90
2, 1000350, Note_on_c, 0, 64, 0
2, 1000350, Note_on_c, 0, 62, 90
2, 1000410, Note_on_c, 0, 62, 0
2, 1000410, Note_on_c, 0, 64, 90
2, 1000470, Note_on_c, 0, 64, 0
2, 1000470, Note_on_c, 0, 72, 90
2, 1000530, Note_on_c, 0, 72, 0
2, 1000530, Note_on_c, 0, 70, 90
2, 1000590, Note_on_c, 0, 70, 0
2, 1000590, Note_on_c, 0, 69, 90
2, 1000650, Note_on_c, 0, 69, 0
2, 1000650, Note_on_c, 0, 70, 90
2, 1000710, Note_on_c, 0, 70, 0
2, 1000710, Note_on_c, 0, 67, 90
2, 1000770, Note_on_c, 0, 67, 0
2, 1000770, Note_on_c, 0, 64, 90
2, 1000830, Note_on_c, 0, 64, 0
2, 1000830, Note_on_c, 0, 67, 90
2, 1000890, Note_on_c, 0, 67, 0
2, 1000890, Note_on_c, 0, 61, 90
2, 1000950, Note_on_c, 0, 61, 0
2, 1000950, Note_on_c, 0, 64, 90
2, 1001010, Note_on_c, 0, 64, 0
2, 1001010, Note_on_c, 0, 62, 90
2, 1001070, Note_on_c, 0, 62, 0
2, 1001070, Note_on_c, 0, 65, 90
2, 1001130, Note_on_c, 0, 65, 0
2, 1001130, Note_on_c, 0, 64, 90
2, 1001250, Note_on_c, 0, 64, 0
2, 1001370, Note_on_c, 0, 71, 90
2, 1001410, Note_on_c, 0, 71, 0
2, 1001410, Note_on_c, 0, 72, 90
2, 1001450, Note_on_c, 0, 72, 0
2, 1001450, Note_on_c, 0, 71, 90
2, 1001490, Note_on_c, 0, 71, 0
2, 1001490, Note_on_c, 0, 69, 90
2, 1001530, Note_on_c, 0, 69, 0
2, 1001530, Note_on_c, 0, 71, 90
2, 1001570, Note_on_c, 0, 71, 0
2, 1001570, Note_on_c, 0, 73, 90
2, 1001610, Note_on_c, 0, 73, 0
2, 1001610, Note_on_c, 0, 74, 90
2, 1001650, Note_on_c, 0, 74, 0
2, 1001650, Note_on_c, 0, 76, 90
2, 1001690, Note_on_c, 0, 76, 0
2, 1001690, Note_on_c, 0, 74, 90
2, 1001730, Note_on_c, 0, 74, 0
2, 1001730, Note_on_c, 0, 73, 90
2, 1001770, Note_on_c, 0, 73, 0
2, 1001770, Note_on_c, 0, 74, 90
2, 1001810, Note_on_c, 0, 74, 0
2, 1001810, Note_on_c, 0, 76, 90
2, 1001850, Note_on_c, 0, 76, 0
2, 1001850, Note_on_c, 0, 77, 90
2, 1001890, Note_on_c, 0, 77, 0
2, 1001890, Note_on_c, 0, 79, 90
2, 1001930, Note_on_c, 0, 79, 0
2, 1001930, Note_on_c, 0, 77, 90
2, 1001970, Note_on_c, 0, 77, 0
2, 1001970, Note_on_c, 0, 76, 90
2, 1002010, Note_on_c, 0, 76, 0
2, 1002010, Note_on_c, 0, 77, 90
2, 1002050, Note_on_c, 0, 77, 0
2, 1002050, Note_on_c, 0, 79, 90
2, 1002090, Note_on_c, 0, 79, 0
2, 1002090, Note_on_c, 0, 81, 90
2, 1002390, Note_on_c, 0, 81, 0
2, 1002390, Note_on_c, 0, 79, 90
2, 1002450, Note_on_c, 0, 79, 0
2, 1002450, Note_on_c, 0, 77, 90
2, 1002510, Note_on_c, 0, 77, 0
2, 1002510, Note_on_c, 0, 76, 90
2, 1002570, Note_on_c, 0, 76, 0
2, 1002570, Note_on_c, 0, 77, 90
2, 1002870, Note_on_c, 0, 77, 0
2, 1002870, Note_on_c, 0, 76, 90
2, 1002930, Note_on_c, 0, 76, 0
2, 1002930, Note_on_c, 0, 74, 90
2, 1002990, Note_on_c, 0, 74, 0
2, 1002990, Note_on_c, 0, 73, 90
2, 1003050, Note_on_c, 0, 73, 0
2, 1003050, Note_on_c, 0, 74, 90
2, 1003170, Note_on_c, 0, 74, 0
2, 1003170, Note_on_c, 0, 76, 90
2, 1003230, Note_on_c, 0, 76, 0
2, 1003230, Note_on_c, 0, 77, 90
2, 1003290, Note_on_c, 0, 77, 0
2, 1003290, Note_on_c, 0, 79, 90
2, 1003350, Note_on_c, 0, 79, 0
2, 1003350, Note_on_c, 0, 81, 90
2, 1003410, Note_on_c, 0, 81, 0
2, 1003410, Note_on_c, 0, 82, 90
2, 1003530, Note_on_c, 0, 82, 0
2, 1003530, Note_on_c, 0, 82, 90
2, 1003650, Note_on_c, 0, 82, 0
2, 1003650, Note_on_c, 0, 73, 90
2, 1003770, Note_on_c, 0, 73, 0
2, 1003830, Note_on_c, 0, 69, 90
2, 1003890, Note_on_c, 0, 69, 0
2, 1003890, Note_on_c, 0, 71, 90
2, 1003950, Note_on_c, 0, 71, 0
2, 1003950, Note_on_c, 0, 73, 90
2, 1004010, Note_on_c, 0, 73, 0
2, 1004010, Note_on_c, 0, 74, 90
2, 1004070, Note_on_c, 0, 74, 0
2, 1004070, Note_on_c, 0, 73, 90
2, 1004130, Note_on_c, 0, 73, 0
2, 1004130, Note_on_c, 0, 71, 90
2, 1004190, Note_on_c, 0, 71, 0
2, 1004190, Note_on_c, 0, 69, 90
2, 1004250, Note_on_c, 0, 69, 0
2, 1004250, Note_on_c, 0, 76, 90
2, 1004310, Note_on_c, 0, 76, 0
2, 1004310, Note_on_c, 0, 73, 90
2, 1004370, Note_on_c, 0, 73, 0
2, 1004370, Note_on_c, 0, 71, 90
2, 1004430, Note_on_c, 0, 71, 0
2, 1004430, Note_on_c, 0, 69, 90
2, 1004490, Note_on_c, 0, 69, 0
2, 1004490, Note_on_c, 0, 77, 90
2, 1004550, Note_on_c, 0, 77, 0
2, 1004550, Note_on_c, 0, 76, 90
2, 1004610, Note_on_c, 0, 76, 0
2, 1004610, Note_on_c, 0, 74, 90
2, 1004730, Note_on_c, 0, 74, 0
2, 1004790, Note_on_c, 0, 82, 90
2, 1004850, Note_on_c, 0, 82, 0
2, 1004850, Note_on_c, 0, 81, 90
2, 1004910, Note_on_c, 0, 81, 0
2, 1004910, Note_on_c, 0, 80, 90
2, 1004970, Note_on_c, 0, 80, 0
2, 1004970, Note_on_c, 0, 81, 90
2, 1005030, Note_on_c, 0, 81, 0
2, 1005030, Note_on_c, 0, 77, 90
2, 1005090, Note_on_c, 0, 77, 0
2, 1005090, Note_on_c, 0, 76, 90
2, 1005150, Note_on_c, 0, 76, 0
2, 1005150, Note_on_c, 0, 74, 90
2, 1005210, Note_on_c, 0, 74, 0
2, 1005210, Note_on_c, 0, 77, 90
2, 1005270, Note_on_c, 0, 77, 0
2, 1005270, Note_on_c, 0, 76, 90
2, 1005330, Note_on_c, 0, 76, 0
2, 1005330, Note_on_c, 0, 74, 90
2, 1005390, Note_on_c, 0, 74, 0
2, 1005390, Note_on_c, 0, 73, 90
2, 1005450, Note_on_c, 0, 73, 0
2, 1005450, Note_on_c, 0, 74, 90
2, 1005560, Note_on_c, 0, 74, 0
2, 1005690, Note_on_c, 0, 69, 90
2, 1005730, Note_on_c, 0, 69, 0
2, 1005730, Note_on_c, 0, 71, 90
2, 1005770, Note_on_c, 0, 71, 0
2, 1005770, Note_on_c, 0, 69, 90
2, 1005810, Note_on_c, 0, 69, 0
2, 1005810, Note_on_c, 0, 68, 90
2, 1005850, Note_on_c, 0, 68, 0
2, 1005850, Note_on_c, 0, 69, 90
2, 1005890, Note_on_c, 0, 69, 0
2, 1005890, Note_on_c, 0, 71, 90
2, 1005930, Note_on_c, 0, 71, 0
2, 1005930, Note_on_c, 0, 73, 90
2, 1005990, Note_on_c, 0, 73, 0
2, 1005990, Note_on_c, 0, 69, 90
2, 1006050, Note_on_c, 0, 69, 0
2, 1006050, Note_on_c, 0, 71, 90
2, 1006110, Note_on_c, 0, 71, 0
2, 1006110, Note_on_c, 0, 73, 90
2, 1006170, Note_on_c, 0, 73, 0
2, 1006170, Note_on_c, 0, 74, 90
2, 1006230, Note_on_c, 0, 74, 0
2, 1006230, Note_on_c, 0, 76, 90
2, 1006290, Note_on_c, 0, 76, 0
2, 1006290, Note_on_c, 0, 77, 90
2, 1006350, Note_on_c, 0, 77, 0
2, 1006350, Note_on_c, 0, 79, 90
2, 1006410, Note_on_c, 0, 79, 0
2, 1006410, Note_on_c, 0, 81, 90
2, 1006470, Note_on_c, 0, 81, 0
2, 1006470, Note_on_c, 0, 79, 90
2, 1006530, Note_on_c, 0, 79, 0
2, 1006530, Note_on_c, 0, 77, 90
2, 1006590, Note_on_c, 0, 77, 0
2, 1006590, Note_on_c, 0, 76, 90
2, 1006650, Note_on_c, 0, 76, 0
2, 1006650, Note_on_c, 0, 74, 90
2, 1006830, Note_on_c, 0, 74, 0
2, 1006830, Note_on_c, 0, 76, 90
2, 1006890, Note_on_c, 0, 76, 0
2, 1006890, Note_on_c, 0, 77, 90
2, 1006950, Note_on_c, 0, 77, 0
2, 1006950, Note_on_c, 0, 76, 90
2, 1007010, Note_on_c, 0, 76, 0
2, 1007010, Note_on_c, 0, 74, 90
2, 1007070, Note_on_c, 0, 74, 0
2, 1007070, Note_on_c, 0, 72, 90
2, 1007130, Note_on_c, 0, 72, 0
2, 1007130, Note_on_c, 0, 70, 90
2, 1007190, Note_on_c, 0, 70, 0
2, 1007190, Note_on_c, 0, 72, 90
2, 1007250, Note_on_c, 0, 72, 0
2, 1007250, Note_on_c, 0, 74, 90
2, 1007310, Note_on_c, 0, 74, 0
2, 1007310, Note_on_c, 0, 70, 90
2, 1007370, Note_on_c, 0, 70, 0
2, 1007370, Note_on_c, 0, 67, 90
2, 1007430, Note_on_c, 0, 67, 0
2, 1007430, Note_on_c, 0, 69, 90
2, 1007490, Note_on_c, 0, 69, 0
2, 1007490, Note_on_c, 0, 70, 90
2, 1007550, Note_on_c, 0, 70, 0
2, 1007550, Note_on_c, 0, 64, 90
2, 1007610, Note_on_c, 0, 64, 0
2, 1007610, Note_on_c, 0, 76, 90
2, 1007670, Note_on_c, 0, 76, 0
2, 1007670, Note_on_c, 0, 73, 90
2, 1007730, Note_on_c, 0, 73, 0
2, 1007730, Note_on_c, 0, 74, 90
2, 1007790, Note_on_c, 0, 74, 0
2, 1007790, Note_on_c, 0, 76, 90
2, 1007850, Note_on_c, 0, 76, 0
2, 1007850, Note_on_c, 0, 65, 90
2, 1007910, Note_on_c, 0, 65, 0
2, 1007910, Note_on_c, 0, 69, 90
2, 1007970, Note_on_c, 0, 69, 0
2, 1007970, Note_on_c, 0, 74, 90
2, 1008090, Note_on_c, 0, 74, 0
2, 1008090, Note_on_c, 0, 67, 90
2, 1008150, Note_on_c, 0, 67, 0
2, 1008150, Note_on_c, 0, 70, 90
2, 1008210, Note_on_c, 0, 70, 0
2, 1008210, Note_on_c, 0, 76, 90
2, 1008330, Note_on_c, 0, 76, 0
2, 1008330, Note_on_c, 0, 69, 90
2, 1008390, Note_on_c, 0, 69, 0
2, 1008390, Note_on_c, 0, 73, 90
2, 1008450, Note_on_c, 0, 73, 0
2, 1008450, Note_on_c, 0, 74, 90
2, 1008510, Note_on_c, 0, 74, 0
2, 1008510, Note_on_c, 0, 76, 90
2, 1008570, Note_on_c, 0, 76, 0
2, 1008570, Note_on_c, 0, 77, 90
2, 1008630, Note_on_c, 0, 77, 0
2, 1008630, Note_on_c, 0, 74, 90
2, 1008690, Note_on_c, 0, 74, 0
2, 1008690, Note_on_c, 0, 73, 90
2, 1008750, Note_on_c, 0, 73, 0
2, 1008750, Note_on_c, 0, 71, 90
2, 1008810, Note_on_c, 0, 71, 0
2, 1008810, Note_on_c, 0, 73, 90
2, 1008930, Note_on_c, 0, 73, 0
2, 1008930, Note_on_c, 0, 77, 90
2, 1009050, Note_on_c, 0, 77, 0
2, 1009050, Note_on_c, 0, 74, 90
2, 1009170, Note_on_c, 0, 74, 0
2, 1009170, Note_on_c, 0, 76, 90
2, 1009290, Note_on_c, 0, 76, 0
2, 1009290, Note_on_c, 0, 77, 90
2, 1009330, Note_on_c, 0, 77, 0
2, 1009330, Note_on_c, 0, 79, 90
2, 1009370, Note_on_c, 0, 79, 0
2, 1009370, Note_on_c, 0, 77, 90
2, 1009410, Note_on_c, 0, 77, 0
2, 1009410, Note_on_c, 0, 76, 90
2, 1009450, Note_on_c, 0, 76, 0
2, 1009450, Note_on_c, 0, 77, 90
2, 1009490, Note_on_c, 0, 77, 0
2, 1009490, Note_on_c, 0, 79, 90
2, 1009530, Note_on_c, 0, 79, 0
2, 1009530, Note_on_c, 0, 81, 90
2, 1009710, Note_on_c, 0, 81, 0
2, 1009710, Note_on_c, 0, 79, 90
2, 1009740, Note_on_c, 0, 79, 0
2, 1009740, Note_on_c, 0, 77, 90
2, 1009770, Note_on_c, 0, 77, 0
2, 1009770, Note_on_c, 0, 76, 90
2, 1009830, Note_on_c, 0, 76, 0
2, 1009830, Note_on_c, 0, 73, 90
2, 1009890, Note_on_c, 0, 73, 0
2, 1009890, Note_on_c, 0, 74, 90
2, 1009950, Note_on_c, 0, 74, 0
2, 1009950, Note_on_c, 0, 76, 90
2, 1010010, Note_on_c, 0, 76, 0
2, 1010010, Note_on_c, 0, 77, 90
2, 1010190, Note_on_c, 0, 77, 0
2, 1010190, Note_on_c, 0, 76, 90
2, 1010220, Note_on_c, 0, 76, 0
2, 1010220, Note_on_c, 0, 74, 90
2, 1010250, Note_on_c, 0, 74, 0
2, 1010250, Note_on_c, 0, 73, 90
2, 1010370, Note_on_c, 0, 73, 0
2, 1010370, Note_on_c, 0, 69, 90
2, 1010490, Note_on_c, 0, 69, 0
2, 1010550, Note_on_c, 0, 74, 90
2, 1010610, Note_on_c, 0, 74, 0
2, 1010610, Note_on_c, 0, 72, 90
2, 1010670, Note_on_c, 0, 72, 0
2, 1010670, Note_on_c, 0, 70, 90
2, 1010730, Note_on_c, 0, 70, 0
2, 1010730, Note_on_c, 0, 69, 90
2, 1010850, Note_on_c, 0, 69, 0
2, 1010850, Note_on_c, 0, 65, 90
2, 1010910, Note_on_c, 0, 65, 0
2, 1010910, Note_on_c, 0, 69, 90
2, 1010970, Note_on_c, 0, 69, 0
2, 1010970, Note_on_c, 0, 74, 90
2, 1011090, Note_on_c, 0, 74, 0
2, 1011090, Note_on_c, 0, 66, 90
2, 1011210, Note_on_c, 0, 66, 0
2, 1011210, Note_on_c, 0, 67, 90
2, 1011330, Note_on_c, 0, 67, 0
2, 1011330, Note_on_c, 0, 62, 90
2, 1011450, Note_on_c, 0, 62, 0
2, 1011510, Note_on_c, 0, 64, 90
2, 1011570, Note_on_c, 0, 64, 0
2, 1011570, Note_on_c, 0, 65, 90
2, 1011630, Note_on_c, 0, 65, 0
2, 1011630, Note_on_c, 0, 67, 90
2, 1011690, Note_on_c, 0, 67, 0
2, 1011690, Note_on_c, 0, 69, 90
2, 1011750, Note_on_c, 0, 69, 0
2, 1011750, Note_on_c, 0, 67, 90
2, 1011810, Note_on_c, 0, 67, 0
2, 1011810, Note_on_c, 0, 65, 90
2, 1011870, Note_on_c, 0, 65, 0
2, 1011870, Note_on_c, 0, 69, 90
2, 1011930, Note_on_c, 0, 69, 0
2, 1011930, Note_on_c, 0, 70, 90
2, 1011990, Note_on_c, 0, 70, 0
2, 1011990, Note_on_c, 0, 69, 90
2, 1012050, Note_on_c, 0, 69, 0
2, 1012050, Note_on_c, 0, 67, 90
2, 1012110, Note_on_c, 0, 67, 0
2, 1012110, Note_on_c, 0, 70, 90
2, 1012170, Note_on_c, 0, 70, 0
2, 1012170, Note_on_c, 0, 72, 90
2, 1012230, Note_on_c, 0, 72, 0
2, 1012230, Note_on_c, 0, 70, 90
2, 1012290, Note_on_c, 0, 70, 0
2, 1012290, Note_on_c, 0, 69, 90
2, 1012350, Note_on_c, 0, 69, 0
2, 1012350, Note_on_c, 0, 67, 90
2, 1012410, Note_on_c, 0, 67, 0
2, 1012410, Note_on_c, 0, 69, 90
2, 1012470, Note_on_c, 0, 69, 0
2, 1012470, Note_on_c, 0, 77, 90
2, 1012530, Note_on_c, 0, 77, 0
2, 1012530, Note_on_c, 0, 76, 90
2, 1012590, Note_on_c, 0, 76, 0
2, 1012590, Note_on_c, 0, 74, 90
2, 1012650, Note_on_c, 0, 74, 0
2, 1012650, Note_on_c, 0, 76, 90
2, 1012710, Note_on_c, 0, 76, 0
2, 1012710, Note_on_c, 0, 72, 90
2, 1012770, Note_on_c, 0, 72, 0
2, 1012770, Note_on_c, 0, 69, 90
2, 1012830, Note_on_c, 0, 69, 0
2, 1012830, Note_on_c, 0, 72, 90
2, 1012890, Note_on_c, 0, 72, 0
2, 1012890, Note_on_c, 0, 65, 90
2, 1012950, Note_on_c, 0, 65, 0
2, 1012950, Note_on_c, 0, 69, 90
2, 1013010, Note_on_c, 0, 69, 0
2, 1013010, Note_on_c, 0, 67, 90
2, 1013070, Note_on_c, 0, 67, 0
2, 1013070, Note_on_c, 0, 70, 90
2, 1013130, Note_on_c, 0, 70, 0
2, 1013130, Note_on_c, 0, 69, 90
2, 1013250, Note_on_c, 0, 69, 0
2, 1013370, Note_on_c, 0, 76, 90
2, 1013410, Note_on_c, 0, 76, 0
2, 1013410, Note_on_c, 0, 77, 90
2, 1013450, Note_on_c, 0, 77, 0
2, 1013450, Note_on_c, 0, 76, 90
2, 1013490, Note_on_c, 0, 76, 0
2, 1013490, Note_on_c, 0, 74, 90
2, 1013530, Note_on_c, 0, 74, 0
2, 1013530, Note_on_c, 0, 76, 90
2, 1013570, Note_on_c, 0, 76, 0
2, 1013570, Note_on_c, 0, 77, 90
2, 1013610, Note_on_c, 0, 77, 0
2, 1013610, Note_on_c, 0, 79, 90
2, 1013760, Note_on_c, 0, 79, 0
2, 1013760, Note_on_c, 0, 77, 90
2, 1013790, Note_on_c, 0, 77, 0
2, 1013790, Note_on_c, 0, 76, 90
2, 1013820, Note_on_c, 0, 76, 0
2, 1013820, Note_on_c, 0, 74, 90
2, 1013850, Note_on_c, 0, 74, 0
2, 1013850, Note_on_c, 0, 72, 90
2, 1013890, Note_on_c, 0, 72, 0
2, 1013890, Note_on_c, 0, 74, 90
2, 1013930, Note_on_c, 0, 74, 0
2, 1013930, Note_on_c, 0, 72, 90
2, 1013970, Note_on_c, 0, 72, 0
2, 1013970, Note_on_c, 0, 71, 90
2, 1014010, Note_on_c, 0, 71, 0
2, 1014010, Note_on_c, 0, 72, 90
2, 1014050, Note_on_c, 0, 72, 0
2, 1014050, Note_on_c, 0, 74, 90
2, 1014090, Note_on_c, 0, 74, 0
2, 1014090, Note_on_c, 0, 76, 90
2, 1014150, Note_on_c, 0, 76, 0
2, 1014150, Note_on_c, 0, 74, 90
2, 1014210, Note_on_c, 0, 74, 0
2, 1014210, Note_on_c, 0, 73, 90
2, 1014270, Note_on_c, 0, 73, 0
2, 1014270, Note_on_c, 0, 71, 90
2, 1014330, Note_on_c, 0, 71, 0
2, 1014330, Note_on_c, 0, 69, 90
2, 1014510, Note_on_c, 0, 69, 0
2, 1014510, Note_on_c, 0, 70, 90
2, 1014570, Note_on_c, 0, 70, 0
2, 1014570, Note_on_c, 0, 72, 90
2, 1014630, Note_on_c, 0, 72, 0
2, 1014630, Note_on_c, 0, 70, 90
2, 1014690, Note_on_c, 0, 70, 0
2, 1014690, Note_on_c, 0, 69, 90
2, 1014750, Note_on_c, 0, 69, 0
2, 1014750, Note_on_c, 0, 67, 90
2, 1014810, Note_on_c, 0, 67, 0
2, 1014810, Note_on_c, 0, 65, 90
2, 1014870, Note_on_c, 0, 65, 0
2, 1014870, Note_on_c, 0, 67, 90
2, 1014930, Note_on_c, 0, 67, 0
2, 1014930, Note_on_c, 0, 69, 90
2, 1014990, Note_on_c, 0, 69, 0
2, 1014990, Note_on_c, 0, 65, 90
2, 1015050, Note_on_c, 0, 65, 0
2, 1015050, Note_on_c, 0, 70, 90
2, 1015110, Note_on_c, 0, 70, 0
2, 1015110, Note_on_c, 0, 67, 90
2, 1015170, Note_on_c, 0, 67, 0
2, 1015170, Note_on_c, 0, 65, 90
2, 1015230, Note_on_c, 0, 65, 0
2, 1015230, Note_on_c, 0, 64, 90
2, 1015290, Note_on_c, 0, 64, 0
2, 1015290, Note_on_c, 0, 62, 90
2, 1015410, Note_on_c, 0, 62, 0
2, 1015650, Note_on_c, 0, 69, 90
2, 1015770, Note_on_c, 0, 69, 0
2, 1015770, Note_on_c, 0, 62, 90
2, 1015830, Note_on_c, 0, 62, 0
2, 1015830, Note_on_c, 0, 65, 90
2, 1015890, Note_on_c, 0, 65, 0
2, 1015890, Note_on_c, 0, 70, 90
2, 1016010, Note_on_c, 0, 70, 0
2, 1016010, Note_on_c, 0, 64, 90
2, 1016070, Note_on_c, 0, 64, 0
2, 1016070, Note_on_c, 0, 67, 90
2, 1016130, Note_on_c, 0, 67, 0
2, 1016130, Note_on_c, 0, 72, 90
2, 1016250, Note_on_c, 0, 72, 0
2, 1016310, Note_on_c, 0, 69, 90
2, 1016370, Note_on_c, 0, 69, 0
2, 1016370, Note_on_c, 0, 67, 90
2, 1016430, Note_on_c, 0, 67, 0
2, 1016430, Note_on_c, 0, 66, 90
2, 1016490, Note_on_c, 0, 66, 0
2, 1016490, Note_on_c, 0, 67, 90
2, 1016610, Note_on_c, 0, 67, 0
2, 1016610, Note_on_c, 0, 69, 90
2, 1016850, Note_on_c, 0, 69, 0
2, 1016850, Note_on_c, 0, 70, 90
2, 1016970, Note_on_c, 0, 70, 0
2, 1016970, Note_on_c, 0, 61, 90
2, 1017030, Note_on_c, 0, 61, 0
2, 1017030, Note_on_c, 0, 62, 90
2, 1017090, Note_on_c, 0, 62, 0
2, 1017090, Note_on_c, 0, 64, 90
2, 1017150, Note_on_c, 0, 64, 0
2, 1017150, Note_on_c, 0, 65, 90
2, 1017210, Note_on_c, 0, 65, 0
2, 1017210, Note_on_c, 0, 67, 90
2, 1017250, Note_on_c, 0, 67, 0
2, 1017250, Note_on_c, 0, 69, 90
2, 1017290, Note_on_c, 0, 69, 0
2, 1017290, Note_on_c, 0, 67, 90
2, 1017330, Note_on_c, 0, 67, 0
2, 1017330, Note_on_c, 0, 65, 90
2, 1017370, Note_on_c, 0, 65, 0
2, 1017370, Note_on_c, 0, 67, 90
2, 1017410, Note_on_c, 0, 67, 0
2, 1017410, Note_on_c, 0, 69, 90
2, 1017450, Note_on_c, 0, 69, 0
2, 1017450, Note_on_c, 0, 70, 90
2, 1017570, Note_on_c, 0, 70, 0
2, 1017570, Note_on_c, 0, 67, 90
2, 1017690, Note_on_c, 0, 67, 0
2, 1017690, Note_on_c, 0, 74, 90
2, 1017730, Note_on_c, 0, 74, 0
2, 1017730, Note_on_c, 0, 76, 90
2, 1017770, Note_on_c, 0, 76, 0
2, 1017770, Note_on_c, 0, 74, 90
2, 1017810, Note_on_c, 0, 74, 0
2, 1017810, Note_on_c, 0, 73, 90
2, 1017850, Note_on_c, 0, 73, 0
2, 1017850, Note_on_c, 0, 74, 90
2, 1017890, Note_on_c, 0, 74, 0
2, 1017890, Note_on_c, 0, 76, 90
2, 1017930, Note_on_c, 0, 76, 0
2, 1017930, Note_on_c, 0, 77, 90
2, 1018050, Note_on_c, 0, 77, 0
2, 1018050, Note_on_c, 0, 74, 90
2, 1018170, Note_on_c, 0, 74, 0
2, 1018170, Note_on_c, 0, 69, 90
2, 1018210, Note_on_c, 0, 69, 0
2, 1018210, Note_on_c, 0, 71, 90
2, 1018250, Note_on_c, 0, 71, 0
2, 1018250, Note_on_c, 0, 69, 90
2, 1018290, Note_on_c, 0, 69, 0
2, 1018290, Note_on_c, 0, 68, 90
2, 1018330, Note_on_c, 0, 68, 0
2, 1018330, Note_on_c, 0, 69, 90
2, 1018370, Note_on_c, 0, 69, 0
2, 1018370, Note_on_c, 0, 71, 90
2, 1018410, Note_on_c, 0, 71, 0
2, 1018410, Note_on_c, 0, 73, 90
2, 1018450, Note_on_c, 0, 73, 0
2, 1018450, Note_on_c, 0, 74, 90
2, 1018490, Note_on_c, 0, 74, 0
2, 1018490, Note_on_c, 0, 73, 90
2, 1018530, Note_on_c, 0, 73, 0
2, 1018530, Note_on_c, 0, 71, 90
2, 1018570, Note_on_c, 0, 71, 0
2, 1018570, Note_on_c, 0, 73, 90
2, 1018610, Note_on_c, 0, 73, 0
2, 1018610, Note_on_c, 0, 74, 90
2, 1018650, Note_on_c, 0, 74, 0
2, 1018650, Note_on_c, 0, 76, 90
2, 1018710, Note_on_c, 0, 76, 0
2, 1018710, Note_on_c, 0, 69, 90
2, 1018770, Note_on_c, 0, 69, 0
2, 1018770, Note_on_c, 0, 81, 90
2, 1018950, Note_on_c, 0, 81, 0
2, 1018950, Note_on_c, 0, 79, 90
2, 1019010, Note_on_c, 0, 79, 0
2, 1019010, Note_on_c, 0, 77, 90
2, 1019070, Note_on_c, 0, 77, 0
2, 1019070, Note_on_c, 0, 76, 90
2, 1019130, Note_on_c, 0, 76, 0
2, 1019130, Note_on_c, 0, 77, 90
2, 1019430, Note_on_c, 0, 77, 0
2, 1019430, Note_on_c, 0, 76, 90
2, 1019490, Note_on_c, 0, 76, 0
2, 1019490, Note_on_c, 0, 74, 90
2, 1019550, Note_on_c, 0, 74, 0
2, 1019550, Note_on_c, 0, 72, 90
2, 1019610, Note_on_c, 0, 72, 0
2, 1019610, Note_on_c, 0, 70, 90
2, 1019670, Note_on_c, 0, 70, 0
2, 1019670, Note_on_c, 0, 72, 90
2, 1019730, Note_on_c, 0, 72, 0
2, 1019730, Note_on_c, 0, 74, 90
2, 1019790, Note_on_c, 0, 74, 0
2, 1019790, Note_on_c, 0, 70, 90
2, 1019850, Note_on_c, 0, 70, 0
2, 1019850, Note_on_c, 0, 67, 90
2, 1019910, Note_on_c, 0, 67, 0
2, 1019910, Note_on_c, 0, 69, 90
2, 1019970, Note_on_c, 0, 69, 0
2, 1019970, Note_on_c, 0, 70, 90
2, 1020030, Note_on_c, 0, 70, 0
2, 1020030, Note_on_c, 0, 64, 90
2, 1020090, Note_on_c, 0, 64, 0
2, 1020090, Note_on_c, 0, 76, 90
2, 1020150, Note_on_c, 0, 76, 0
2, 1020150, Note_on_c, 0, 73, 90
2, 1020210, Note_on_c, 0, 73, 0
2, 1020210, Note_on_c, 0, 74, 90
2, 1020270, Note_on_c, 0, 74, 0
2, 1020270, Note_on_c, 0, 76, 90
2, 1020330, Note_on_c, 0, 76, 0
2, 1020330, Note_on_c, 0, 65, 90
2, 1020390, Note_on_c, 0, 65, 0
2, 1020390, Note_on_c, 0, 69, 90
2, 1020450, Note_on_c, 0, 69, 0
2, 1020450, Note_on_c, 0, 74, 90
2, 1020570, Note_on_c, 0, 74, 0
2, 1020570, Note_on_c, 0, 67, 90
2, 1020630, Note_on_c, 0, 67, 0
2, 1020630, Note_on_c, 0, 70, 90
2, 1020690, Note_on_c, 0, 70, 0
2, 1020690, Note_on_c, 0, 76, 90
2, 1020810, Note_on_c, 0, 76, 0
2, 1020810, Note_on_c, 0, 69, 90
2, 1020870, Note_on_c, 0, 69, 0
2, 1020870, Note_on_c, 0, 73, 90
2, 1020930, Note_on_c, 0, 73, 0
2, 1020930, Note_on_c, 0, 74, 90
2, 1020990, Note_on_c, 0, 74, 0
2, 1020990, Note_on_c, 0, 76, 90
2, 1021050, Note_on_c, 0, 76, 0
2, 1021050, Note_on_c, 0, 77, 90
2, 1021110, Note_on_c, 0, 77, 0
2, 1021110, Note_on_c, 0, 74, 90
2, 1021170, Note_on_c, 0, 74, 0
2, 1021170, Note_on_c, 0, 73, 90
2, 1021230, Note_on_c, 0, 73, 0
2, 1021230, Note_on_c, 0, 71, 90
2, 1021290, Note_on_c, 0, 71, 0
2, 1021290, Note_on_c, 0, 73, 90
2, 1021410, Note_on_c, 0, 73, 0
2, 1021410, Note_on_c, 0, 77, 90
2, 1021530, Note_on_c, 0, 77, 0
2, 1021530, Note_on_c, 0, 74, 90
2, 1021650, Note_on_c, 0, 74, 0
2, 1021650, Note_on_c, 0, 76, 90
2, 1021770, Note_on_c, 0, 76, 0
2, 1021770, Note_on_c, 0, 77, 90
2, 1021830, Note_on_c, 0, 77, 0
2, 1021830, Note_on_c, 0, 76, 90
2, 1021890, Note_on_c, 0, 76, 0
2, 1021890, Note_on_c, 0, 74, 90
2, 1022010, Note_on_c, 0, 74, 0
2, 1022070, Note_on_c, 0, 82, 90
2, 1022130, Note_on_c, 0, 82, 0
2, 1022130, Note_on_c, 0, 81, 90
2, 1022190, Note_on_c, 0, 81, 0
2, 1022190, Note_on_c, 0, 80, 90
2, 1022250, Note_on_c, 0, 80, 0
2, 1022250, Note_on_c, 0, 81, 90
2, 1022310, Note_on_c, 0, 81, 0
2, 1022310, Note_on_c, 0, 77, 90
2, 1022370, Note_on_c, 0, 77, 0
2, 1022370, Note_on_c, 0, 76, 90
2, 1022430, Note_on_c, 0, 76, 0
2, 1022430, Note_on_c, 0, 74, 90
2, 1022490, Note_on_c, 0, 74, 0
2, 1022490, Note_on_c, 0, 77, 90
2, 1022550, Note_on_c, 0, 77, 0
2, 1022550, Note_on_c, 0, 76, 90
2, 1022610, Note_on_c, 0, 76, 0
2, 1022610, Note_on_c, 0, 74, 90
2, 1022670, Note_on_c, 0, 74, 0
2, 1022670, Note_on_c, 0, 73, 90
2, 1022730, Note_on_c, 0, 73, 0
2, 1022730, Note_on_c, 0, 74, 90
2, 1023210, Note_on_c, 0, 74, 0
2, 1023210, Note_on_c, 0, 62, 64
2, 1023270, Note_on_c, 0, 62, 0
2, 1023270, Note_on_c, 0, 70, 64
2, 1023330, Note_on_c, 0, 70, 0
2, 1023330, Note_on_c, 0, 69, 64
2, 1023570, Note_on_c, 0, 69, 0
2, 1023570, Note_on_c, 0, 67, 64
2, 1023690, Note_on_c, 0, 67, 0
2, 1023690, Note_on_c, 0, 65, 64
2, 1023750, Note_on_c, 0, 65, 0
2, 1023750, Note_on_c, 0, 64, 64
2, 1023780, Note_on_c, 0, 64, 0
2, 1023780, Note_on_c, 0, 62, 64
2, 1023810, Note_on_c, 0, 62, 0
2, 1023810, Note_on_c, 0, 63, 64
2, 1024050, Note_on_c, 0, 63, 0
2, 1024050, Note_on_c, 0, 62, 64
2, 1024170, Note_on_c, 0, 62, 0
2, 1024170, Note_on_c, 0, 61, 64
2, 1024230, Note_on_c, 0, 61, 0
2, 1024230, Note_on_c, 0, 62, 64
2, 1024260, Note_on_c, 0, 62, 0
2, 1024260, Note_on_c, 0, 64, 64
2, 1024290, Note_on_c, 0, 64, 0
2, 1024290, Note_on_c, 0, 62, 64
2, 1024530, Note_on_c, 0, 62, 0
2, 1024530, Note_on_c, 0, 64, 64
2, 1024650, Note_on_c, 0, 64, 0
2, 1024650, Note_on_c, 0, 65, 64
2, 1024710, Note_on_c, 0, 65, 0
2, 1024710, Note_on_c, 0, 57, 64
2, 1024770, Note_on_c, 0, 57, 0
2, 1024770, Note_on_c, 0, 67, 64
2, 1025010, Note_on_c, 0, 67, 0
2, 1025010, Note_on_c, 0, 65, 64
2, 1025070, Note_on_c, 0, 65, 0
2, 1025070, Note_on_c, 0, 64, 64
2, 1025130, Note_on_c, 0, 64, 0
2, 1025130, Note_on_c, 0, 65, 64
2, 1025160, Note_on_c, 0, 65, 0
2, 1025160, Note_on_c, 0, 67, 64
2, 1025190, Note_on_c, 0, 67, 0
2, 1025190, Note_on_c, 0, 69, 64
2, 1025310, Note_on_c, 0, 69, 0
2, 1025310, Note_on_c, 0, 67, 64
2, 1025370, Note_on_c, 0, 67, 0
2, 1025370, Note_on_c, 0, 65, 64
2, 1025430, Note_on_c, 0, 65, 0
2, 1025430, Note_on_c, 0, 74, 64
2, 1025490, Note_on_c, 0, 74, 0
2, 1025490, Note_on_c, 0, 67, 64
2, 1025550, Note_on_c, 0, 67, 0
2, 1025550, Note_on_c, 0, 76, 64
2, 1025610, Note_on_c, 0, 76, 0
2, 1025610, Note_on_c, 0, 69, 64
2, 1025670, Note_on_c, 0, 69, 0
2, 1025670, Note_on_c, 0, 77, 64
2, 1025730, Note_on_c, 0, 77, 0
2, 1025730, Note_on_c, 0, 71, 64
2, 1025790, Note_on_c, 0, 71, 0
2, 1025790, Note_on_c, 0, 74, 64
2, 1025850, Note_on_c, 0, 74, 0
2, 1025850, Note_on_c, 0, 72, 64
2, 1025910, Note_on_c, 0, 72, 0
2, 1025910, Note_on_c, 0, 70, 64
2, 1025970, Note_on_c, 0, 70, 0
2, 1025970, Note_on_c, 0, 79, 64
2, 1026030, Note_on_c, 0, 79, 0
2, 1026030, Note_on_c, 0, 70, 64
2, 1026090, Note_on_c, 0, 70, 0
2, 1026090, Note_on_c, 0, 69, 64
2, 1026120, Note_on_c, 0, 69, 0
2, 1026120, Note_on_c, 0, 75, 64
2, 1026150, Note_on_c, 0, 75, 0
2, 1026150, Note_on_c, 0, 74, 64
2, 1026270, Note_on_c, 0, 74, 0
2, 1026270, Note_on_c, 0, 72, 64
2, 1026330, Note_on_c, 0, 72, 0
2, 1026330, Note_on_c, 0, 70, 64
2, 1026390, Note_on_c, 0, 70, 0
2, 1026390, Note_on_c, 0, 79, 64
2, 1026450, Note_on_c, 0, 79, 0
2, 1026450, Note_on_c, 0, 72, 64
2, 1026510, Note_on_c, 0, 72, 0
2, 1026510, Note_on_c, 0, 81, 64
2, 1026570, Note_on_c, 0, 81, 0
2, 1026570, Note_on_c, 0, 74, 64
2, 1026630, Note_on_c, 0, 74, 0
2, 1026630, Note_on_c, 0, 82, 64
2, 1026690, Note_on_c, 0, 82, 0
2, 1026690, Note_on_c, 0, 76, 64
2, 1026750, Note_on_c, 0, 76, 0
2, 1026750, Note_on_c, 0, 79, 64
2, 1026810, Note_on_c, 0, 79, 0
2, 1026810, Note_on_c, 0, 77, 64
2, 1026870, Note_on_c, 0, 77, 0
2, 1026870, Note_on_c, 0, 75, 64
2, 1026930, Note_on_c, 0, 75, 0
2, 1026930, Note_on_c, 0, 84, 64
2, 1026990, Note_on_c, 0, 84, 0
2, 1026990, Note_on_c, 0, 75, 64
2, 1027050, Note_on_c, 0, 75, 0
2, 1027050, Note_on_c, 0, 74, 64
2, 1027110, Note_on_c, 0, 74, 0
2, 1027110, Note_on_c, 0, 62, 64
2, 1027230, Note_on_c, 0, 62, 0
2, 1027230, Note_on_c, 0, 64, 64
2, 1027290, Note_on_c, 0, 64, 0
2, 1027290, Note_on_c, 0, 65, 64
2, 1027350, Note_on_c, 0, 65, 0
2, 1027350, Note_on_c, 0, 69, 64
2, 1027410, Note_on_c, 0, 69, 0
2, 1027410, Note_on_c, 0, 74, 64
2, 1027470, Note_on_c, 0, 74, 0
2, 1027470, Note_on_c, 0, 77, 64
2, 1027530, Note_on_c, 0, 77, 0
2, 1027530, Note_on_c, 0, 67, 64
2, 1027590, Note_on_c, 0, 67, 0
2, 1027590, Note_on_c, 0, 76, 64
2, 1027650, Note_on_c, 0, 76, 0
2, 1027650, Note_on_c, 0, 65, 64
2, 1027710, Note_on_c, 0, 65, 0
2, 1027710, Note_on_c, 0, 74, 64
2, 1027770, Note_on_c, 0, 74, 0
2, 1027770, Note_on_c, 0, 64, 64
2, 1027830, Note_on_c, 0, 64, 0
2, 1027830, Note_on_c, 0, 73, 64
2, 1027890, Note_on_c, 0, 73, 0
2, 1027890, Note_on_c, 0, 74, 64
2, 1027950, Note_on_c, 0, 74, 0
2, 1027950, Note_on_c, 0, 76, 64
2, 1028010, Note_on_c, 0, 76, 0
2, 1028010, Note_on_c, 0, 69, 64
2, 1028070, Note_on_c, 0, 69, 0
2, 1028070, Note_on_c, 0, 74, 64
2, 1028100, Note_on_c, 0, 74, 0
2, 1028100, Note_on_c, 0, 72, 64
2, 1028130, Note_on_c, 0, 72, 0
2, 1028130, Note_on_c, 0, 70, 64
2, 1028190, Note_on_c, 0, 70, 0
2, 1028190, Note_on_c, 0, 69, 64
2, 1028250, Note_on_c, 0, 69, 0
2, 1028250, Note_on_c, 0, 67, 64
2, 1028310, Note_on_c, 0, 67, 0
2, 1028310, Note_on_c, 0, 79, 64
2, 1028340, Note_on_c, 0, 79, 0
2, 1028340, Note_on_c, 0, 77, 64
2, 1028370, Note_on_c, 0, 77, 0
2, 1028370, Note_on_c, 0, 76, 64
2, 1028430, Note_on_c, 0, 76, 0
2, 1028430, Note_on_c, 0, 74, 64
2, 1028490, Note_on_c, 0, 74, 0
2, 1028490, Note_on_c, 0, 73, 64
2, 1028550, Note_on_c, 0, 73, 0
2, 1028550, Note_on_c, 0, 76, 64
2, 1028580, Note_on_c, 0, 76, 0
2, 1028580, Note_on_c, 0, 74, 64
2, 1028610, Note_on_c, 0, 74, 0
2, 1028610, Note_on_c, 0, 72, 64
2, 1028670, Note_on_c, 0, 72, 0
2, 1028670, Note_on_c, 0, 71, 64
2, 1028730, Note_on_c, 0, 71, 0
2, 1028730, Note_on_c, 0, 69, 64
2, 1028790, Note_on_c, 0, 69, 0
2, 1028790, Note_on_c, 0, 81, 64
2, 1028820, Note_on_c, 0, 81, 0
2, 1028820, Note_on_c, 0, 79, 64
2, 1028850, Note_on_c, 0, 79, 0
2, 1028850, Note_on_c, 0, 77, 64
2, 1028880, Note_on_c, 0, 77, 0
2, 1028880, Note_on_c, 0, 76, 64
2, 1028910, Note_on_c, 0, 76, 0
2, 1028910, Note_on_c, 0, 74, 64
2, 1028940, Note_on_c, 0, 74, 0
2, 1028940, Note_on_c, 0, 73, 64
2, 1028970, Note_on_c, 0, 73, 0
2, 1028970, Note_on_c, 0, 74, 64
2, 1029090, Note_on_c, 0, 74, 0
2, 1029210, Note_on_c, 0, 62, 64
2, 1029270, Note_on_c, 0, 62, 0
2, 1029270, Note_on_c, 0, 70, 64
2, 1029390, Note_on_c, 0, 70, 0
2, 1029390, Note_on_c, 0, 69, 64
2, 1029420, Note_on_c, 0, 69, 0
2, 1029420, Note_on_c, 0, 67, 64
2, 1029450, Note_on_c, 0, 67, 0
2, 1029450, Note_on_c, 0, 69, 64
2, 1029480, Note_on_c, 0, 69, 0
2, 1029480, Note_on_c, 0, 65, 64
2, 1029510, Note_on_c, 0, 65, 0
2, 1029510, Note_on_c, 0, 62, 64
2, 1029630, Note_on_c, 0, 62, 0
2, 1029630, Note_on_c, 0, 64, 64
2, 1029660, Note_on_c, 0, 64, 0
2, 1029660, Note_on_c, 0, 65, 64
2, 1029690, Note_on_c, 0, 65, 0
2, 1029690, Note_on_c, 0, 67, 64
2, 1029720, Note_on_c, 0, 67, 0
2, 1029720, Note_on_c, 0, 64, 64
2, 1029750, Note_on_c, 0, 64, 0
2, 1029750, Note_on_c, 0, 61, 64
2, 1029870, Note_on_c, 0, 61, 0
2, 1029870, Note_on_c, 0, 62, 64
2, 1029900, Note_on_c, 0, 62, 0
2, 1029900, Note_on_c, 0, 64, 64
2, 1029930, Note_on_c, 0, 64, 0
2, 1029930, Note_on_c, 0, 65, 64
2, 1029960, Note_on_c, 0, 65, 0
2, 1029960, Note_on_c, 0, 64, 64
2, 1029990, Note_on_c, 0, 64, 0
2, 1029990, Note_on_c, 0, 62, 64
2, 1030110, Note_on_c, 0, 62, 0
2, 1030110, Note_on_c, 0, 74, 64
2, 1030170, Note_on_c, 0, 74, 0
2, 1030170, Note_on_c, 0, 75, 64
2, 1030230, Note_on_c, 0, 75, 0
2, 1030230, Note_on_c, 0, 76, 64
2, 1030290, Note_on_c, 0, 76, 0
2, 1030290, Note_on_c, 0, 77, 64
2, 1030350, Note_on_c, 0, 77, 0
2, 1030350, Note_on_c, 0, 78, 64
2, 1030410, Note_on_c, 0, 78, 0
2, 1030410, Note_on_c, 0, 79, 64
2, 1030470, Note_on_c, 0, 79, 0
2, 1030470, Note_on_c, 0, 80, 64
2, 1030530, Note_on_c, 0, 80, 0
2, 1030530, Note_on_c, 0, 81, 64
2, 1030590, Note_on_c, 0, 81, 0
2, 1030590, Note_on_c, 0, 82, 64
2, 1030710, Note_on_c, 0, 82, 0
2, 1030710, Note_on_c, 0, 81, 64
2, 1030740, Note_on_c, 0, 81, 0
2, 1030740, Note_on_c, 0, 79, 64
2, 1030770, Note_on_c, 0, 79, 0
2, 1030770, Note_on_c, 0, 81, 64
2, 1030830, Note_on_c, 0, 81, 0
2, 1030830, Note_on_c, 0, 76, 64
2, 1030890, Note_on_c, 0, 76, 0
2, 1030890, Note_on_c, 0, 77, 64
2, 1030920, Note_on_c, 0, 77, 0
2, 1030920, Note_on_c, 0, 76, 64
2, 1030950, Note_on_c, 0, 76, 0
2, 1030950, Note_on_c, 0, 74, 64
2, 1031070, Note_on_c, 0, 74, 0
2, 1031070, Note_on_c, 0, 72, 64
2, 1031100, Note_on_c, 0, 72, 0
2, 1031100, Note_on_c, 0, 71, 64
2, 1031130, Note_on_c, 0, 71, 0
2, 1031130, Note_on_c, 0, 72, 64
2, 1031190, Note_on_c, 0, 72, 0
2, 1031190, Note_on_c, 0, 77, 64
2, 1031310, Note_on_c, 0, 77, 0
2, 1031310, Note_on_c, 0, 76, 64
2, 1031340, Note_on_c, 0, 76, 0
2, 1031340, Note_on_c, 0, 74, 64
2, 1031370, Note_on_c, 0, 74, 0
2, 1031370, Note_on_c, 0, 76, 64
2, 1031400, Note_on_c, 0, 76, 0
2, 1031400, Note_on_c, 0, 72, 64
2, 1031430, Note_on_c, 0, 72, 0
2, 1031430, Note_on_c, 0, 69, 64
2, 1031550, Note_on_c, 0, 69, 0
2, 1031550, Note_on_c, 0, 71, 64
2, 1031580, Note_on_c, 0, 71, 0
2, 1031580, Note_on_c, 0, 72, 64
2, 1031610, Note_on_c, 0, 72, 0
2, 1031610, Note_on_c, 0, 74, 64
2, 1031640, Note_on_c, 0, 74, 0
2, 1031640, Note_on_c, 0, 71, 64
2, 1031670, Note_on_c, 0, 71, 0
2, 1031670, Note_on_c, 0, 68, 64
2, 1031790, Note_on_c, 0, 68, 0
2, 1031790, Note_on_c, 0, 69, 64
2, 1031820, Note_on_c, 0, 69, 0
2, 1031820, Note_on_c, 0, 71, 64
2, 1031850, Note_on_c, 0, 71, 0
2, 1031850, Note_on_c, 0, 72, 64
2, 1031880, Note_on_c, 0, 72, 0
2, 1031880, Note_on_c, 0, 71, 64
2, 1031910, Note_on_c, 0, 71, 0
2, 1031910, Note_on_c, 0, 69, 64
2, 1032030, Note_on_c, 0, 69, 0
2, 1032030, Note_on_c, 0, 57, 64
2, 1032090, Note_on_c, 0, 57, 0
2, 1032090, Note_on_c, 0, 58, 64
2, 1032150, Note_on_c, 0, 58, 0
2, 1032150, Note_on_c, 0, 59, 64
2, 1032210, Note_on_c, 0, 59, 0
2, 1032210, Note_on_c, 0, 60, 64
2, 1032270, Note_on_c, 0, 60, 0
2, 1032270, Note_on_c, 0, 61, 64
2, 1032330, Note_on_c, 0, 61, 0
2, 1032330, Note_on_c, 0, 62, 64
2, 1032390, Note_on_c, 0, 62, 0
2, 1032390, Note_on_c, 0, 63, 64
2, 1032450, Note_on_c, 0, 63, 0
2, 1032450, Note_on_c, 0, 64, 64
2, 1032510, Note_on_c, 0, 64, 0
2, 1032510, Note_on_c, 0, 65, 64
2, 1032630, Note_on_c, 0, 65, 0
2, 1032630, Note_on_c, 0, 64, 64
2, 1032660, Note_on_c, 0, 64, 0
2, 1032660, Note_on_c, 0, 62, 64
2, 1032690, Note_on_c, 0, 62, 0
2, 1032690, Note_on_c, 0, 64, 64
2, 1032750, Note_on_c, 0, 64, 0
2, 1032750, Note_on_c, 0, 59, 64
2, 1032810, Note_on_c, 0, 59, 0
2, 1032810, Note_on_c, 0, 60, 64
2, 1032840, Note_on_c, 0, 60, 0
2, 1032840, Note_on_c, 0, 59, 64
2, 1032870, Note_on_c, 0, 59, 0
2, 1032870, Note_on_c, 0, 57, 64
2, 1032930, Note_on_c, 0, 57, 0
2, 1032990, Note_on_c, 0, 72, 64
2, 1033050, Note_on_c, 0, 72, 0
2, 1033050, Note_on_c, 0, 62, 64
2, 1033110, Note_on_c, 0, 62, 0
2, 1033110, Note_on_c, 0, 70, 64
2, 1033170, Note_on_c, 0, 70, 0
2, 1033170, Note_on_c, 0, 64, 64
2, 1033230, Note_on_c, 0, 64, 0
2, 1033230, Note_on_c, 0, 70, 64
2, 1033320, Note_on_c, 0, 70, 0
2, 1033320, Note_on_c, 0, 69, 64
2, 1033350, Note_on_c, 0, 69, 0
2, 1033350, Note_on_c, 0, 67, 64
2, 1033380, Note_on_c, 0, 67, 0
2, 1033380, Note_on_c, 0, 69, 64
2, 1033410, Note_on_c, 0, 69, 0
2, 1033410, Note_on_c, 0, 70, 64
2, 1033440, Note_on_c, 0, 70, 0
2, 1033440, Note_on_c, 0, 69, 64
2, 1033470, Note_on_c, 0, 69, 0
2, 1033470, Note_on_c, 0, 70, 64
2, 1033500, Note_on_c, 0, 70, 0
2, 1033500, Note_on_c, 0, 71, 64
2, 1033530, Note_on_c, 0, 71, 0
2, 1033530, Note_on_c, 0, 72, 64
2, 1033560, Note_on_c, 0, 72, 0
2, 1033560, Note_on_c, 0, 71, 64
2, 1033590, Note_on_c, 0, 71, 0
2, 1033590, Note_on_c, 0, 72, 64
2, 1033620, Note_on_c, 0, 72, 0
2, 1033620, Note_on_c, 0, 73, 64
2, 1033650, Note_on_c, 0, 73, 0
2, 1033650, Note_on_c, 0, 74, 64
2, 1033710, Note_on_c, 0, 74, 0
2, 1033710, Note_on_c, 0, 62, 64
2, 1033770, Note_on_c, 0, 62, 0
2, 1033770, Note_on_c, 0, 64, 64
2, 1033800, Note_on_c, 0, 64, 0
2, 1033800, Note_on_c, 0, 62, 64
2, 1033830, Note_on_c, 0, 62, 0
2, 1033830, Note_on_c, 0, 61, 64
2, 1033890, Note_on_c, 0, 61, 0
2, 1033950, Note_on_c, 0, 64, 64
2, 1034010, Note_on_c, 0, 64, 0
2, 1034010, Note_on_c, 0, 65, 64
2, 1034040, Note_on_c, 0, 65, 0
2, 1034040, Note_on_c, 0, 64, 64
2, 1034070, Note_on_c, 0, 64, 0
2, 1034070, Note_on_c, 0, 62, 64
2, 1034130, Note_on_c, 0, 62, 0
2, 1034190, Note_on_c, 0, 65, 64
2, 1034250, Note_on_c, 0, 65, 0
2, 1034250, Note_on_c, 0, 67, 64
2, 1034280, Note_on_c, 0, 67, 0
2, 1034280, Note_on_c, 0, 65, 64
2, 1034310, Note_on_c, 0, 65, 0
2, 1034310, Note_on_c, 0, 64, 64
2, 1034430, Note_on_c, 0, 64, 0
2, 1034430, Note_on_c, 0, 74, 64
2, 1034550, Note_on_c, 0, 74, 0
2, 1034550, Note_on_c, 0, 73, 64
2, 1034580, Note_on_c, 0, 73, 0
2, 1034580, Note_on_c, 0, 74, 64
2, 1034610, Note_on_c, 0, 74, 0
2, 1034610, Note_on_c, 0, 76, 64
2, 1034670, Note_on_c, 0, 76, 0
2, 1034670, Note_on_c, 0, 67, 64
2, 1034730, Note_on_c, 0, 67, 0
2, 1034730, Note_on_c, 0, 67, 64
2, 1034790, Note_on_c, 0, 67, 0
2, 1034790, Note_on_c, 0, 65, 64
2, 1034820, Note_on_c, 0, 65, 0
2, 1034820, Note_on_c, 0, 64, 64
2, 1034850, Note_on_c, 0, 64, 0
2, 1034850, Note_on_c, 0, 65, 64
2, 1035030, Note_on_c, 0, 65, 0
2, 1035030, Note_on_c, 0, 64, 64
2, 1035060, Note_on_c, 0, 64, 0
2, 1035060, Note_on_c, 0, 62, 64
2, 1035090, Note_on_c, 0, 62, 0
2, 1035090, Note_on_c, 0, 60, 64
2, 1035150, Note_on_c, 0, 60, 0
2, 1035150, Note_on_c, 0, 59, 64
2, 1035210, Note_on_c, 0, 59, 0
2, 1035210, Note_on_c, 0, 60, 64
2, 1035270, Note_on_c, 0, 60, 0
2, 1035270, Note_on_c, 0, 72, 64
2, 1035300, Note_on_c, 0, 72, 0
2, 1035300, Note_on_c, 0, 71, 64
2, 1035330, Note_on_c, 0, 71, 0
2, 1035330, Note_on_c, 0, 72, 64
2, 1035510, Note_on_c, 0, 72, 0
2, 1035510, Note_on_c, 0, 70, 64
2, 1035540, Note_on_c, 0, 70, 0
2, 1035540, Note_on_c, 0, 69, 64
2, 1035570, Note_on_c, 0, 69, 0
2, 1035570, Note_on_c, 0, 67, 64
2, 1035630, Note_on_c, 0, 67, 0
2, 1035630, Note_on_c, 0, 66, 64
2, 1035690, Note_on_c, 0, 66, 0
2, 1035690, Note_on_c, 0, 67, 64
2, 1035750, Note_on_c, 0, 67, 0
2, 1035750, Note_on_c, 0, 79, 64
2, 1035780, Note_on_c, 0, 79, 0
2, 1035780, Note_on_c, 0, 78, 64
2, 1035810, Note_on_c, 0, 78, 0
2, 1035810, Note_on_c, 0, 79, 64
2, 1035990, Note_on_c, 0, 79, 0
2, 1035990, Note_on_c, 0, 77, 64
2, 1036110, Note_on_c, 0, 77, 0
2, 1036110, Note_on_c, 0, 76, 64
2, 1036170, Note_on_c, 0, 76, 0
2, 1036170, Note_on_c, 0, 77, 64
2, 1036230, Note_on_c, 0, 77, 0
2, 1036230, Note_on_c, 0, 82, 64
2, 1036260, Note_on_c, 0, 82, 0
2, 1036260, Note_on_c, 0, 81, 64
2, 1036290, Note_on_c, 0, 81, 0
2, 1036290, Note_on_c, 0, 82, 64
2, 1036410, Note_on_c, 0, 82, 0
2, 1036410, Note_on_c, 0, 82, 64
2, 1036440, Note_on_c, 0, 82, 0
2, 1036440, Note_on_c, 0, 81, 64
2, 1036470, Note_on_c, 0, 81, 0
2, 1036470, Note_on_c, 0, 79, 64
2, 1036500, Note_on_c, 0, 79, 0
2, 1036500, Note_on_c, 0, 77, 64
2, 1036530, Note_on_c, 0, 77, 0
2, 1036530, Note_on_c, 0, 76, 64
2, 1036560, Note_on_c, 0, 76, 0
2, 1036560, Note_on_c, 0, 74, 64
2, 1036590, Note_on_c, 0, 74, 0
2, 1036590, Note_on_c, 0, 73, 64
2, 1036620, Note_on_c, 0, 73, 0
2, 1036620, Note_on_c, 0, 74, 64
2, 1036650, Note_on_c, 0, 74, 0
2, 1036650, Note_on_c, 0, 73, 64
2, 1036680, Note_on_c, 0, 73, 0
2, 1036680, Note_on_c, 0, 77, 64
2, 1036710, Note_on_c, 0, 77, 0
2, 1036710, Note_on_c, 0, 76, 64
2, 1036740, Note_on_c, 0, 76, 0
2, 1036740, Note_on_c, 0, 75, 64
2, 1036770, Note_on_c, 0, 75, 0
2, 1036770, Note_on_c, 0, 76, 64
2, 1036800, Note_on_c, 0, 76, 0
2, 1036800, Note_on_c, 0, 74, 64
2, 1036830, Note_on_c, 0, 74, 0
2, 1036830, Note_on_c, 0, 73, 64
2, 1036860, Note_on_c, 0, 73, 0
2, 1036860, Note_on_c, 0, 74, 64
2, 1036890, Note_on_c, 0, 74, 0
2, 1036890, Note_on_c, 0, 72, 64
2, 1036920, Note_on_c, 0, 72, 0
2, 1036920, Note_on_c, 0, 71, 64
2, 1036950, Note_on_c, 0, 71, 0
2, 1036950, Note_on_c, 0, 72, 64
2, 1036980, Note_on_c, 0, 72, 0
2, 1036980, Note_on_c, 0, 70, 64
2, 1037010, Note_on_c, 0, 70, 0
2, 1037010, Note_on_c, 0, 69, 64
2, 1037040, Note_on_c, 0, 69, 0
2, 1037040, Note_on_c, 0, 70, 64
2, 1037070, Note_on_c, 0, 70, 0
2, 1037070, Note_on_c, 0, 69, 64
2, 1037100, Note_on_c, 0, 69, 0
2, 1037100, Note_on_c, 0, 68, 64
2, 1037130, Note_on_c, 0, 68, 0
2, 1037130, Note_on_c, 0, 69, 64
2, 1037190, Note_on_c, 0, 69, 0
2, 1037190, Note_on_c, 0, 61, 64
2, 1037220, Note_on_c, 0, 61, 0
2, 1037220, Note_on_c, 0, 62, 64
2, 1037250, Note_on_c, 0, 62, 0
2, 1037250, Note_on_c, 0, 64, 64
2, 1037310, Note_on_c, 0, 64, 0
2, 1037310, Note_on_c, 0, 64, 64
2, 1037340, Note_on_c, 0, 64, 0
2, 1037340, Note_on_c, 0, 65, 64
2, 1037370, Note_on_c, 0, 65, 0
2, 1037370, Note_on_c, 0, 67, 64
2, 1037400, Note_on_c, 0, 67, 0
2, 1037400, Note_on_c, 0, 69, 64
2, 1037430, Note_on_c, 0, 69, 0
2, 1037430, Note_on_c, 0, 70, 64
2, 1037550, Note_on_c, 0, 70, 0
2, 1037550, Note_on_c, 0, 69, 64
2, 1037580, Note_on_c, 0, 69, 0
2, 1037580, Note_on_c, 0, 67, 64
2, 1037610, Note_on_c, 0, 67, 0
2, 1037610, Note_on_c, 0, 65, 64
2, 1037640, Note_on_c, 0, 65, 0
2, 1037640, Note_on_c, 0, 64, 64
2, 1037670, Note_on_c, 0, 64, 0
2, 1037670, Note_on_c, 0, 62, 64
2, 1037700, Note_on_c, 0, 62, 0
2, 1037700, Note_on_c, 0, 64, 64
2, 1037730, Note_on_c, 0, 64, 0
2, 1037730, Note_on_c, 0, 65, 64
2, 1037760, Note_on_c, 0, 65, 0
2, 1037760, Note_on_c, 0, 67, 64
2, 1037790, Note_on_c, 0, 67, 0
2, 1037790, Note_on_c, 0, 69, 64
2, 1037820, Note_on_c, 0, 69, 0
2, 1037820, Note_on_c, 0, 71, 64
2, 1037850, Note_on_c, 0, 71, 0
2, 1037850, Note_on_c, 0, 73, 64
2, 1037880, Note_on_c, 0, 73, 0
2, 1037880, Note_on_c, 0, 71, 64
2, 1037910, Note_on_c, 0, 71, 0
2, 1037910, Note_on_c, 0, 69, 64
2, 1037940, Note_on_c, 0, 69, 0
2, 1037940, Note_on_c, 0, 71, 64
2, 1037970, Note_on_c, 0, 71, 0
2, 1037970, Note_on_c, 0, 73, 64
2, 1038000, Note_on_c, 0, 73, 0
2, 1038000, Note_on_c, 0, 74, 64
2, 1038030, Note_on_c, 0, 74, 0
2, 1038030, Note_on_c, 0, 76, 64
2, 1038060, Note_on_c, 0, 76, 0
2, 1038060, Note_on_c, 0, 77, 64
2, 1038090, Note_on_c, 0, 77, 0
2, 1038090, Note_on_c, 0, 79, 64
2, 1038120, Note_on_c, 0, 79, 0
2, 1038120, Note_on_c, 0, 77, 64
2, 1038150, Note_on_c, 0, 77, 0
2, 1038150, Note_on_c, 0, 76, 64
2, 1038180, Note_on_c, 0, 76, 0
2, 1038180, Note_on_c, 0, 77, 64
2, 1038210, Note_on_c, 0, 77, 0
2, 1038210, Note_on_c, 0, 79, 64
2, 1038240, Note_on_c, 0, 79, 0
2, 1038240, Note_on_c, 0, 81, 64
2, 1038270, Note_on_c, 0, 81, 0
2, 1038270, Note_on_c, 0, 82, 64
2, 1038300, Note_on_c, 0, 82, 0
2, 1038300, Note_on_c, 0, 81, 64
2, 1038330, Note_on_c, 0, 81, 0
2, 1038330, Note_on_c, 0, 79, 64
2, 1038360, Note_on_c, 0, 79, 0
2, 1038360, Note_on_c, 0, 77, 64
2, 1038390, Note_on_c, 0, 77, 0
2, 1038390, Note_on_c, 0, 76, 64
2, 1038420, Note_on_c, 0, 76, 0
2, 1038420, Note_on_c, 0, 74, 64
2, 1038450, Note_on_c, 0, 74, 0
2, 1038450, Note_on_c, 0, 73, 64
2, 1038480, Note_on_c, 0, 73, 0
2, 1038480, Note_on_c, 0, 74, 64
2, 1038510, Note_on_c, 0, 74, 0
2, 1038510, Note_on_c, 0, 76, 64
2, 1038570, Note_on_c, 0, 76, 0
2, 1038570, Note_on_c, 0, 76, 64
2, 1038630, Note_on_c, 0, 76, 0
2, 1038630, Note_on_c, 0, 74, 64
2, 1038750, Note_on_c, 0, 74, 0
2, 1038750, Note_on_c, 0, 72, 64
2, 1038780, Note_on_c, 0, 72, 0
2, 1038780, Note_on_c, 0, 71, 64
2, 1038810, Note_on_c, 0, 71, 0
2, 1038810, Note_on_c, 0, 72, 64
2, 1038870, Note_on_c, 0, 72, 0
2, 1038870, Note_on_c, 0, 77, 64
2, 1038990, Note_on_c, 0, 77, 0
2, 1038990, Note_on_c, 0, 76, 64
2, 1039020, Note_on_c, 0, 76, 0
2, 1039020, Note_on_c, 0, 75, 64
2, 1039050, Note_on_c, 0, 75, 0
2, 1039050, Note_on_c, 0, 76, 64
2, 1039110, Note_on_c, 0, 76, 0
2, 1039110, Note_on_c, 0, 71, 64
2, 1039230, Note_on_c, 0, 71, 0
2, 1039230, Note_on_c, 0, 73, 64
2, 1039290, Note_on_c, 0, 73, 0
2, 1039290, Note_on_c, 0, 74, 64
2, 1039350, Note_on_c, 0, 74, 0
2, 1039350, Note_on_c, 0, 69, 64
2, 1039470, Note_on_c, 0, 69, 0
2, 1039470, Note_on_c, 0, 71, 64
2, 1039530, Note_on_c, 0, 71, 0
2, 1039530, Note_on_c, 0, 72, 64
2, 1039590, Note_on_c, 0, 72, 0
2, 1039590, Note_on_c, 0, 67, 64
2, 1039710, Note_on_c, 0, 67, 0
2, 1039710, Note_on_c, 0, 69, 64
2, 1039770, Note_on_c, 0, 69, 0
2, 1039770, Note_on_c, 0, 70, 64
2, 1039800, Note_on_c, 0, 70, 0
2, 1039800, Note_on_c, 0, 69, 64
2, 1039830, Note_on_c, 0, 69, 0
2, 1039830, Note_on_c, 0, 67, 64
2, 1039920, Note_on_c, 0, 67, 0
2, 1039920, Note_on_c, 0, 69, 64
2, 1039950, Note_on_c, 0, 69, 0
2, 1039950, Note_on_c, 0, 67, 64
2, 1039980, Note_on_c, 0, 67, 0
2, 1039980, Note_on_c, 0, 66, 64
2, 1040010, Note_on_c, 0, 66, 0
2, 1040010, Note_on_c, 0, 67, 64
2, 1040070, Note_on_c, 0, 67, 0
2, 1040070, Note_on_c, 0, 57, 64
2, 1040130, Note_on_c, 0, 57, 0
2, 1040190, Note_on_c, 0, 67, 64
2, 1040310, Note_on_c, 0, 67, 0
2, 1040310, Note_on_c, 0, 65, 64
2, 1040340, Note_on_c, 0, 65, 0
2, 1040340, Note_on_c, 0, 64, 64
2, 1040370, Note_on_c, 0, 64, 0
2, 1040370, Note_on_c, 0, 62, 64
2, 1040400, Note_on_c, 0, 62, 0
2, 1040400, Note_on_c, 0, 61, 64
2, 1040430, Note_on_c, 0, 61, 0
2, 1040430, Note_on_c, 0, 64, 64
2, 1040490, Note_on_c, 0, 64, 0
2, 1040490, Note_on_c, 0, 64, 64
2, 1040520, Note_on_c, 0, 64, 0
2, 1040520, Note_on_c, 0, 62, 64
2, 1040550, Note_on_c, 0, 62, 0
2, 1040550, Note_on_c, 0, 74, 64
2, 1040670, Note_on_c, 0, 74, 0
2, 1040670, Note_on_c, 0, 72, 64
2, 1040700, Note_on_c, 0, 72, 0
2, 1040700, Note_on_c, 0, 71, 64
2, 1040730, Note_on_c, 0, 71, 0
2, 1040730, Note_on_c, 0, 72, 64
2, 1040790, Note_on_c, 0, 72, 0
2, 1040790, Note_on_c, 0, 70, 64
2, 1040820, Note_on_c, 0, 70, 0
2, 1040820, Note_on_c, 0, 69, 64
2, 1040850, Note_on_c, 0, 69, 0
2, 1040850, Note_on_c, 0, 67, 64
2, 1040880, Note_on_c, 0, 67, 0
2, 1040880, Note_on_c, 0, 66, 64
2, 1040910, Note_on_c, 0, 66, 0
2, 1040910, Note_on_c, 0, 69, 64
2, 1041000, Note_on_c, 0, 69, 0
2, 1041000, Note_on_c, 0, 67, 64
2, 1041030, Note_on_c, 0, 67, 0
2, 1041030, Note_on_c, 0, 69, 64
2, 1041060, Note_on_c, 0, 69, 0
2, 1041060, Note_on_c, 0, 70, 64
2, 1041090, Note_on_c, 0, 70, 0
2, 1041090, Note_on_c, 0, 72, 64
2, 1041120, Note_on_c, 0, 72, 0
2, 1041120, Note_on_c, 0, 70, 64
2, 1041150, Note_on_c, 0, 70, 0
2, 1041150, Note_on_c, 0, 69, 64
2, 1041210, Note_on_c, 0, 69, 0
2, 1041210, Note_on_c, 0, 75, 64
2, 1041270, Note_on_c, 0, 75, 0
2, 1041270, Note_on_c, 0, 74, 64
2, 1041390, Note_on_c, 0, 74, 0
2, 1041390, Note_on_c, 0, 72, 64
2, 1041450, Note_on_c, 0, 72, 0
2, 1041450, Note_on_c, 0, 70, 64
2, 1041480, Note_on_c, 0, 70, 0
2, 1041480, Note_on_c, 0, 72, 64
2, 1041510, Note_on_c, 0, 72, 0
2, 1041510, Note_on_c, 0, 74, 64
2, 1041540, Note_on_c, 0, 74, 0
2, 1041540, Note_on_c, 0, 76, 64
2, 1041570, Note_on_c, 0, 76, 0
2, 1041570, Note_on_c, 0, 78, 64
2, 1041600, Note_on_c, 0, 78, 0
2, 1041600, Note_on_c, 0, 76, 64
2, 1041630, Note_on_c, 0, 76, 0
2, 1041630, Note_on_c, 0, 74, 64
2, 1041690, Note_on_c, 0, 74, 0
2, 1041690, Note_on_c, 0, 82, 64
2, 1041750, Note_on_c, 0, 82, 0
2, 1041750, Note_on_c, 0, 81, 64
2, 1041870, Note_on_c, 0, 81, 0
2, 1041870, Note_on_c, 0, 79, 64
2, 1041930, Note_on_c, 0, 79, 0
2, 1041930, Note_on_c, 0, 78, 64
2, 1041960, Note_on_c, 0, 78, 0
2, 1041960, Note_on_c, 0, 79, 64
2, 1041990, Note_on_c, 0, 79, 0
2, 1041990, Note_on_c, 0, 81, 64
2, 1042020, Note_on_c, 0, 81, 0
2, 1042020, Note_on_c, 0, 82, 64
2, 1042050, Note_on_c, 0, 82, 0
2, 1042050, Note_on_c, 0, 84, 64
2, 1042080, Note_on_c, 0, 84, 0
2, 1042080, Note_on_c, 0, 75, 64
2, 1042110, Note_on_c, 0, 75, 0
2, 1042110, Note_on_c, 0, 74, 64
2, 1042140, Note_on_c, 0, 74, 0
2, 1042140, Note_on_c, 0, 72, 64
2, 1042170, Note_on_c, 0, 72, 0
2, 1042170, Note_on_c, 0, 79, 64
2, 1042180, Note_on_c, 0, 79, 0
2, 1042180, Note_on_c, 0, 78, 64
2, 1042200, Note_on_c, 0, 78, 0
2, 1042200, Note_on_c, 0, 79, 64
2, 1042220, Note_on_c, 0, 79, 0
2, 1042220, Note_on_c, 0, 78, 64
2, 1042240, Note_on_c, 0, 78, 0
2, 1042240, Note_on_c, 0, 79, 64
2, 1042260, Note_on_c, 0, 79, 0
2, 1042260, Note_on_c, 0, 78, 64
2, 1042270, Note_on_c, 0, 78, 0
2, 1042270, Note_on_c, 0, 79, 64
2, 1042290, Note_on_c, 0, 79, 0
2, 1042290, Note_on_c, 0, 78, 64
2, 1042310, Note_on_c, 0, 78, 0
2, 1042310, Note_on_c, 0, 79, 64
2, 1042330, Note_on_c, 0, 79, 0
2, 1042330, Note_on_c, 0, 78, 64
2, 1042350, Note_on_c, 0, 78, 0
2, 1042350, Note_on_c, 0, 76, 64
2, 1042380, Note_on_c, 0, 76, 0
2, 1042380, Note_on_c, 0, 78, 64
2, 1042410, Note_on_c, 0, 78, 0
2, 1042410, Note_on_c, 0, 79, 64
2, 1042530, Note_on_c, 0, 79, 0
2, 1042530, Note_on_c, 0, 79, 64
2, 1042560, Note_on_c, 0, 79, 0
2, 1042560, Note_on_c, 0, 77, 64
2, 1042590, Note_on_c, 0, 77, 0
2, 1042590, Note_on_c, 0, 76, 64
2, 1042620, Note_on_c, 0, 76, 0
2, 1042620, Note_on_c, 0, 79, 64
2, 1042650, Note_on_c, 0, 79, 0
2, 1042650, Note_on_c, 0, 77, 64
2, 1042680, Note_on_c, 0, 77, 0
2, 1042680, Note_on_c, 0, 76, 64
2, 1042710, Note_on_c, 0, 76, 0
2, 1042710, Note_on_c, 0, 74, 64
2, 1042740, Note_on_c, 0, 74, 0
2, 1042740, Note_on_c, 0, 73, 64
2, 1042770, Note_on_c, 0, 73, 0
2, 1042770, Note_on_c, 0, 72, 64
2, 1042800, Note_on_c, 0, 72, 0
2, 1042800, Note_on_c, 0, 70, 64
2, 1042830, Note_on_c, 0, 70, 0
2, 1042830, Note_on_c, 0, 69, 64
2, 1042860, Note_on_c, 0, 69, 0
2, 1042860, Note_on_c, 0, 68, 64
2, 1042890, Note_on_c, 0, 68, 0
2, 1042890, Note_on_c, 0, 69, 64
2, 1042950, Note_on_c, 0, 69, 0
2, 1042950, Note_on_c, 0, 81, 64
2, 1043010, Note_on_c, 0, 81, 0
2, 1043010, Note_on_c, 0, 74, 64
2, 1043070, Note_on_c, 0, 74, 0
2, 1043070, Note_on_c, 0, 78, 64
2, 1043130, Note_on_c, 0, 78, 0
2, 1043130, Note_on_c, 0, 67, 64
2, 1043190, Note_on_c, 0, 67, 0
2, 1043190, Note_on_c, 0, 79, 64
2, 1043250, Note_on_c, 0, 79, 0
2, 1043250, Note_on_c, 0, 72, 64
2, 1043310, Note_on_c, 0, 72, 0
2, 1043310, Note_on_c, 0, 76, 64
2, 1043370, Note_on_c, 0, 76, 0
2, 1043370, Note_on_c, 0, 65, 64
2, 1043430, Note_on_c, 0, 65, 0
2, 1043430, Note_on_c, 0, 77, 64
2, 1043490, Note_on_c, 0, 77, 0
2, 1043490, Note_on_c, 0, 71, 64
2, 1043550, Note_on_c, 0, 71, 0
2, 1043550, Note_on_c, 0, 74, 64
2, 1043610, Note_on_c, 0, 74, 0
2, 1043610, Note_on_c, 0, 64, 64
2, 1043670, Note_on_c, 0, 64, 0
2, 1043670, Note_on_c, 0, 76, 64
2, 1043730, Note_on_c, 0, 76, 0
2, 1043730, Note_on_c, 0, 69, 64
2, 1043760, Note_on_c, 0, 69, 0
2, 1043760, Note_on_c, 0, 73, 64
2, 1043790, Note_on_c, 0, 73, 0
2, 1043790, Note_on_c, 0, 74, 64
2, 1043820, Note_on_c, 0, 74, 0
2, 1043820, Note_on_c, 0, 75, 64
2, 1043850, Note_on_c, 0, 75, 0
2, 1043850, Note_on_c, 0, 74, 64
2, 1043880, Note_on_c, 0, 74, 0
2, 1043880, Note_on_c, 0, 71, 64
2, 1043910, Note_on_c, 0, 71, 0
2, 1043910, Note_on_c, 0, 72, 64
2, 1044030, Note_on_c, 0, 72, 0
2, 1044030, Note_on_c, 0, 72, 64
2, 1044150, Note_on_c, 0, 72, 0
2, 1044150, Note_on_c, 0, 70, 64
2, 1044270, Note_on_c, 0, 70, 0
2, 1044270, Note_on_c, 0, 69, 64
2, 1044330, Note_on_c, 0, 69, 0
2, 1044330, Note_on_c, 0, 69, 64
2, 1044390, Note_on_c, 0, 69, 0
2, 1044390, Note_on_c, 0, 67, 64
2, 1044510, Note_on_c, 0, 67, 0
2, 1044510, Note_on_c, 0, 65, 64
2, 1044540, Note_on_c, 0, 65, 0
2, 1044540, Note_on_c, 0, 64, 64
2, 1044570, Note_on_c, 0, 64, 0
2, 1044570, Note_on_c, 0, 65, 64
2, 1044630, Note_on_c, 0, 65, 0
2, 1044630, Note_on_c, 0, 70, 64
2, 1044660, Note_on_c, 0, 70, 0
2, 1044660, Note_on_c, 0, 69, 64
2, 1044690, Note_on_c, 0, 69, 0
2, 1044690, Note_on_c, 0, 67, 64
2, 1044720, Note_on_c, 0, 67, 0
2, 1044720, Note_on_c, 0, 65, 64
2, 1044750, Note_on_c, 0, 65, 0
2, 1044750, Note_on_c, 0, 64, 64
2, 1044780, Note_on_c, 0, 64, 0
2, 1044780, Note_on_c, 0, 62, 64
2, 1044810, Note_on_c, 0, 62, 0
2, 1044810, Note_on_c, 0, 61, 64
2, 1044840, Note_on_c, 0, 61, 0
2, 1044840, Note_on_c, 0, 62, 64
2, 1044870, Note_on_c, 0, 62, 0
2, 1044870, Note_on_c, 0, 64, 64
2, 1044930, Note_on_c, 0, 64, 0
2, 1044990, Note_on_c, 0, 64, 64
2, 1045080, Note_on_c, 0, 64, 0
2, 1045080, Note_on_c, 0, 65, 64
2, 1045110, Note_on_c, 0, 65, 0
2, 1045110, Note_on_c, 0, 64, 64
2, 1045140, Note_on_c, 0, 64, 0
2, 1045140, Note_on_c, 0, 62, 64
2, 1045170, Note_on_c, 0, 62, 0
2, 1045170, Note_on_c, 0, 64, 64
2, 1045200, Note_on_c, 0, 64, 0
2, 1045200, Note_on_c, 0, 65, 64
2, 1045230, Note_on_c, 0, 65, 0
2, 1045230, Note_on_c, 0, 67, 64
2, 1045260, Note_on_c, 0, 67, 0
2, 1045260, Note_on_c, 0, 69, 64
2, 1045290, Note_on_c, 0, 69, 0
2, 1045290, Note_on_c, 0, 70, 64
2, 1045320, Note_on_c, 0, 70, 0
2, 1045320, Note_on_c, 0, 69, 64
2, 1045350, Note_on_c, 0, 69, 0
2, 1045350, Note_on_c, 0, 67, 64
2, 1045380, Note_on_c, 0, 67, 0
2, 1045380, Note_on_c, 0, 66, 64
2, 1045410, Note_on_c, 0, 66, 0
2, 1045410, Note_on_c, 0, 67, 64
2, 1045530, Note_on_c, 0, 67, 0
2, 1045530, Note_on_c, 0, 67, 64
2, 1045560, Note_on_c, 0, 67, 0
2, 1045560, Note_on_c, 0, 69, 64
2, 1045590, Note_on_c, 0, 69, 0
2, 1045590, Note_on_c, 0, 67, 64
2, 1045620, Note_on_c, 0, 67, 0
2, 1045620, Note_on_c, 0, 66, 64
2, 1045650, Note_on_c, 0, 66, 0
2, 1045650, Note_on_c, 0, 67, 64
2, 1045770, Note_on_c, 0, 67, 0
2, 1045770, Note_on_c, 0, 67, 64
2, 1045800, Note_on_c, 0, 67, 0
2, 1045800, Note_on_c, 0, 69, 64
2, 1045830, Note_on_c, 0, 69, 0
2, 1045830, Note_on_c, 0, 67, 64
2, 1045860, Note_on_c, 0, 67, 0
2, 1045860, Note_on_c, 0, 66, 64
2, 1045890, Note_on_c, 0, 66, 0
2, 1045890, Note_on_c, 0, 67, 64
2, 1045950, Note_on_c, 0, 67, 0
2, 1045950, Note_on_c, 0, 79, 64
2, 1046040, Note_on_c, 0, 79, 0
2, 1046040, Note_on_c, 0, 74, 64
2, 1046070, Note_on_c, 0, 74, 0
2, 1046070, Note_on_c, 0, 73, 64
2, 1046100, Note_on_c, 0, 73, 0
2, 1046100, Note_on_c, 0, 71, 64
2, 1046130, Note_on_c, 0, 71, 0
2, 1046130, Note_on_c, 0, 69, 64
2, 1046160, Note_on_c, 0, 69, 0
2, 1046160, Note_on_c, 0, 73, 64
2, 1046190, Note_on_c, 0, 73, 0
2, 1046190, Note_on_c, 0, 76, 64
2, 1046220, Note_on_c, 0, 76, 0
2, 1046220, Note_on_c, 0, 79, 64
2, 1046250, Note_on_c, 0, 79, 0
2, 1046250, Note_on_c, 0, 77, 64
2, 1046280, Note_on_c, 0, 77, 0
2, 1046280, Note_on_c, 0, 76, 64
2, 1046310, Note_on_c, 0, 76, 0
2, 1046310, Note_on_c, 0, 74, 64
2, 1046340, Note_on_c, 0, 74, 0
2, 1046340, Note_on_c, 0, 73, 64
2, 1046370, Note_on_c, 0, 73, 0
2, 1046370, Note_on_c, 0, 74, 64
2, 1046430, Note_on_c, 0, 74, 0
2, 1046430, Note_on_c, 0, 70, 64
2, 1046490, Note_on_c, 0, 70, 0
2, 1046490, Note_on_c, 0, 69, 64
2, 1046520, Note_on_c, 0, 69, 0
2, 1046520, Note_on_c, 0, 67, 64
2, 1046550, Note_on_c, 0, 67, 0
2, 1046550, Note_on_c, 0, 75, 64
2, 1046670, Note_on_c, 0, 75, 0
2, 1046670, Note_on_c, 0, 74, 64
2, 1046790, Note_on_c, 0, 74, 0
2, 1046790, Note_on_c, 0, 73, 64
2, 1046820, Note_on_c, 0, 73, 0
2, 1046820, Note_on_c, 0, 71, 64
2, 1046850, Note_on_c, 0, 71, 0
2, 1046850, Note_on_c, 0, 73, 64
2, 1046910, Note_on_c, 0, 73, 0
2, 1046910, Note_on_c, 0, 69, 64
2, 1046970, Note_on_c, 0, 69, 0
2, 1046970, Note_on_c, 0, 67, 64
2, 1047000, Note_on_c, 0, 67, 0
2, 1047000, Note_on_c, 0, 65, 64
2, 1047030, Note_on_c, 0, 65, 0
2, 1047030, Note_on_c, 0, 74, 64
2, 1047150, Note_on_c, 0, 74, 0
2, 1047150, Note_on_c, 0, 72, 64
2, 1047210, Note_on_c, 0, 72, 0
2, 1047210, Note_on_c, 0, 72, 64
2, 1047270, Note_on_c, 0, 72, 0
2, 1047270, Note_on_c, 0, 71, 64
2, 1047300, Note_on_c, 0, 71, 0
2, 1047300, Note_on_c, 0, 69, 64
2, 1047330, Note_on_c, 0, 69, 0
2, 1047330, Note_on_c, 0, 71, 64
2, 1047390, Note_on_c, 0, 71, 0
2, 1047390, Note_on_c, 0, 67, 64
2, 1047450, Note_on_c, 0, 67, 0
2, 1047450, Note_on_c, 0, 65, 64
2, 1047480, Note_on_c, 0, 65, 0
2, 1047480, Note_on_c, 0, 64, 64
2, 1047510, Note_on_c, 0, 64, 0
2, 1047510, Note_on_c, 0, 67, 64
2, 1047540, Note_on_c, 0, 67, 0
2, 1047540, Note_on_c, 0, 70, 64
2, 1047570, Note_on_c, 0, 70, 0
2, 1047570, Note_on_c, 0, 73, 64
2, 1047600, Note_on_c, 0, 73, 0
2, 1047600, Note_on_c, 0, 67, 64
2, 1047630, Note_on_c, 0, 67, 0
2, 1047630, Note_on_c, 0, 65, 64
2, 1047660, Note_on_c, 0, 65, 0
2, 1047660, Note_on_c, 0, 64, 64
2, 1047690, Note_on_c, 0, 64, 0
2, 1047690, Note_on_c, 0, 62, 64
2, 1047720, Note_on_c, 0, 62, 0
2, 1047720, Note_on_c, 0, 59, 64
2, 1047750, Note_on_c, 0, 59, 0
2, 1047750, Note_on_c, 0, 61, 64
2, 1047840, Note_on_c, 0, 61, 0
2, 1047840, Note_on_c, 0, 62, 64
2, 1047870, Note_on_c, 0, 62, 0
2, 1047870, Note_on_c, 0, 64, 64
2, 1047900, Note_on_c, 0, 64, 0
2, 1047900, Note_on_c, 0, 65, 64
2, 1047930, Note_on_c, 0, 65, 0
2, 1047930, Note_on_c, 0, 64, 64
2, 1047960, Note_on_c, 0, 64, 0
2, 1047960, Note_on_c, 0, 61, 64
2, 1047990, Note_on_c, 0, 61, 0
2, 1047990, Note_on_c, 0, 70, 64
2, 1048110, Note_on_c, 0, 70, 0
2, 1048110, Note_on_c, 0, 69, 64
2, 1048140, Note_on_c, 0, 69, 0
2, 1048140, Note_on_c, 0, 67, 64
2, 1048170, Note_on_c, 0, 67, 0
2, 1048170, Program_c, 0, 6
2, 1048170, Note_on_c, 0, 65, 64
2, 1048230, Note_on_c, 0, 65, 0
2, 1048230, Program_c, 0, 6
2, 1048230, Note_on_c, 0, 64, 64
2, 1048290, Note_on_c, 0, 64, 0
2, 1048290, Note_on_c, 0, 65, 64
2, 1048350, Note_on_c, 0, 65, 0
2, 1048350, Note_on_c, 0, 62, 64
2, 1048430, Note_on_c, 0, 62, 0
2, 1048430, Note_on_c, 0, 61, 64
2, 1048450, Note_on_c, 0, 61, 0
2, 1048450, Note_on_c, 0, 62, 64
2, 1048470, Note_on_c, 0, 62, 0
2, 1048470, Note_on_c, 0, 61, 64
2, 1048490, Note_on_c, 0, 61, 0
2, 1048490, Note_on_c, 0, 62, 64
2, 1048510, Note_on_c, 0, 62, 0
2, 1048510, Note_on_c, 0, 61, 64
2, 1048530, Note_on_c, 0, 61, 0
2, 1048530, Note_on_c, 0, 62, 64
2, 1048550, Note_on_c, 0, 62, 0
2, 1048550, Note_on_c, 0, 61, 64
2, 1048570, Note_on_c, 0, 61, 0
2, 1048570, Note_on_c, 0, 59, 64
2, 1048590, Note_on_c, 0, 59, 0
2, 1048590, Note_on_c, 0, 61, 64
2, 1048610, Note_on_c, 0, 61, 0
2, 1048610, Note_on_c, 0, 62, 64
2, 1048770, Note_on_c, 0, 62, 0
2, 1050090, Note_on_c, 0, 53, 100
2, 1050090, Program_c, 0, 6
2, 1050090, Note_on_c, 0, 81, 100
2, 1050090, Program_c, 0, 6
2, 1050090, Program_c, 0, 6
2, 1050090, Program_c, 0, 5
2, 1050120, Note_on_c, 0, 53, 0
2, 1050120, Program_c, 0, 6
2, 1050120, Note_on_c, 0, 55, 100
2, 1050135, Program_c, 0, 5
2, 1050150, Note_on_c, 0, 55, 0
2, 1050150, Program_c, 0, 6
2, 1050150, Note_on_c, 0, 57, 100
2, 1050210, Note_on_c, 0, 81, 0
2, 1050210, Program_c, 0, 6
2, 1050210, Note_on_c, 0, 73, 64
2, 1050270, Note_on_c, 0, 57, 0
2, 1050330, Note_on_c, 0, 73, 0
2, 1050330, Note_on_c, 0, 74, 64
2, 1050810, Note_on_c, 0, 74, 0
2, 1050810, Note_on_c, 0, 76, 64
2, 1051050, Note_on_c, 0, 76, 0
2, 1051050, Note_on_c, 0, 78, 64
2, 1051170, Note_on_c, 0, 78, 0
2, 1051170, Note_on_c, 0, 79, 64
2, 1051230, Note_on_c, 0, 79, 0
2, 1051230, Note_on_c, 0, 81, 64
2, 1051290, Note_on_c, 0, 81, 0
2, 1051290, Note_on_c, 0, 79, 64
2, 1051770, Note_on_c, 0, 79, 0
2, 1051770, Note_on_c, 0, 81, 64
2, 1052010, Note_on_c, 0, 81, 0
2, 1052010, Note_on_c, 0, 82, 64
2, 1052130, Note_on_c, 0, 82, 0
2, 1052130, Note_on_c, 0, 81, 64
2, 1052190, Note_on_c, 0, 81, 0
2, 1052190, Note_on_c, 0, 79, 64
2, 1052250, Note_on_c, 0, 79, 0
2, 1052250, Note_on_c, 0, 81, 64
2, 1052730, Note_on_c, 0, 81, 0
2, 1052730, Note_on_c, 0, 79, 64
2, 1052970, Note_on_c, 0, 79, 0
2, 1052970, Note_on_c, 0, 77, 64
2, 1053090, Note_on_c, 0, 77, 0
2, 1053090, Note_on_c, 0, 86, 64
2, 1053210, Note_on_c, 0, 86, 0
2, 1053210, Note_on_c, 0, 76, 64
2, 1053690, Note_on_c, 0, 76, 0
2, 1053690, Note_on_c, 0, 77, 64
2, 1053810, Note_on_c, 0, 77, 0
2, 1053810, Note_on_c, 0, 79, 64
2, 1053930, Note_on_c, 0, 79, 0
2, 1053930, Note_on_c, 0, 77, 64
2, 1053990, Note_on_c, 0, 77, 0
2, 1053990, Note_on_c, 0, 76, 64
2, 1054050, Note_on_c, 0, 76, 0
2, 1054050, Note_on_c, 0, 74, 64
2, 1054290, Note_on_c, 0, 74, 0
2, 1054290, Note_on_c, 0, 76, 64
2, 1054410, Note_on_c, 0, 76, 0
2, 1054410, Note_on_c, 0, 77, 64
2, 1054530, Note_on_c, 0, 77, 0
2, 1054530, Note_on_c, 0, 69, 64
2, 1054650, Note_on_c, 0, 69, 0
2, 1054650, Note_on_c, 0, 76, 64
2, 1054770, Note_on_c, 0, 76, 0
2, 1054770, Note_on_c, 0, 67, 64
2, 1054890, Note_on_c, 0, 67, 0
2, 1054890, Note_on_c, 0, 74, 64
2, 1055010, Note_on_c, 0, 74, 0
2, 1055010, Note_on_c, 0, 65, 64
2, 1055130, Note_on_c, 0, 65, 0
2, 1055130, Note_on_c, 0, 72, 64
2, 1055250, Note_on_c, 0, 72, 0
2, 1055250, Note_on_c, 0, 69, 64
2, 1055370, Note_on_c, 0, 69, 0
2, 1055370, Note_on_c, 0, 71, 64
2, 1055490, Note_on_c, 0, 71, 0
2, 1055490, Note_on_c, 0, 72, 64
2, 1055610, Note_on_c, 0, 72, 0
2, 1055610, Note_on_c, 0, 64, 64
2, 1055730, Note_on_c, 0, 64, 0
2, 1055730, Note_on_c, 0, 73, 64
2, 1055850, Note_on_c, 0, 73, 0
2, 1055850, Note_on_c, 0, 74, 64
2, 1055910, Note_on_c, 0, 74, 0
2, 1055910, Note_on_c, 0, 68, 64
2, 1055970, Note_on_c, 0, 68, 0
2, 1055970, Note_on_c, 0, 69, 64
2, 1056210, Note_on_c, 0, 69, 0
2, 1056210, Note_on_c, 0, 71, 64
2, 1056330, Note_on_c, 0, 71, 0
2, 1056330, Note_on_c, 0, 72, 64
2, 1056450, Note_on_c, 0, 72, 0
2, 1056450, Note_on_c, 0, 64, 64
2, 1056570, Note_on_c, 0, 64, 0
2, 1056570, Note_on_c, 0, 71, 64
2, 1056690, Note_on_c, 0, 71, 0
2, 1056690, Note_on_c, 0, 62, 64
2, 1056810, Note_on_c, 0, 62, 0
2, 1056810, Note_on_c, 0, 69, 64
2, 1056930, Note_on_c, 0, 69, 0
2, 1056930, Note_on_c, 0, 60, 64
2, 1057050, Note_on_c, 0, 60, 0
2, 1057050, Note_on_c, 0, 67, 64
2, 1057170, Note_on_c, 0, 67, 0
2, 1057170, Note_on_c, 0, 64, 64
2, 1057290, Note_on_c, 0, 64, 0
2, 1057290, Note_on_c, 0, 66, 64
2, 1057410, Note_on_c, 0, 66, 0
2, 1057410, Note_on_c, 0, 67, 64
2, 1057530, Note_on_c, 0, 67, 0
2, 1057530, Note_on_c, 0, 59, 64
2, 1057650, Note_on_c, 0, 59, 0
2, 1057650, Note_on_c, 0, 68, 64
2, 1057770, Note_on_c, 0, 68, 0
2, 1057770, Note_on_c, 0, 69, 64
2, 1057890, Note_on_c, 0, 69, 0
2, 1057890, Note_on_c, 0, 81, 64
2, 1058130, Note_on_c, 0, 81, 0
2, 1058130, Note_on_c, 0, 79, 64
2, 1058250, Note_on_c, 0, 79, 0
2, 1058250, Note_on_c, 0, 77, 64
2, 1058370, Note_on_c, 0, 77, 0
2, 1058370, Note_on_c, 0, 74, 64
2, 1058490, Note_on_c, 0, 74, 0
2, 1058490, Note_on_c, 0, 69, 64
2, 1058610, Note_on_c, 0, 69, 0
2, 1058610, Note_on_c, 0, 65, 64
2, 1058730, Note_on_c, 0, 65, 0
2, 1058730, Note_on_c, 0, 76, 64
2, 1058850, Note_on_c, 0, 76, 0
2, 1058850, Note_on_c, 0, 67, 64
2, 1058970, Note_on_c, 0, 67, 0
2, 1058970, Note_on_c, 0, 77, 64
2, 1059090, Note_on_c, 0, 77, 0
2, 1059090, Note_on_c, 0, 69, 64
2, 1059210, Note_on_c, 0, 69, 0
2, 1059210, Note_on_c, 0, 79, 64
2, 1059330, Note_on_c, 0, 79, 0
2, 1059330, Note_on_c, 0, 70, 64
2, 1059450, Note_on_c, 0, 70, 0
2, 1059450, Note_on_c, 0, 69, 64
2, 1059570, Note_on_c, 0, 69, 0
2, 1059570, Note_on_c, 0, 67, 64
2, 1059690, Note_on_c, 0, 67, 0
2, 1059690, Note_on_c, 0, 74, 64
2, 1059810, Note_on_c, 0, 74, 0
2, 1059810, Note_on_c, 0, 69, 64
2, 1059870, Note_on_c, 0, 69, 0
2, 1059870, Note_on_c, 0, 71, 64
2, 1059930, Note_on_c, 0, 71, 0
2, 1059930, Note_on_c, 0, 72, 64
2, 1060050, Note_on_c, 0, 72, 0
2, 1060050, Note_on_c, 0, 74, 64
2, 1060170, Note_on_c, 0, 74, 0
2, 1060170, Note_on_c, 0, 76, 64
2, 1060290, Note_on_c, 0, 76, 0
2, 1060290, Note_on_c, 0, 64, 64
2, 1060350, Note_on_c, 0, 64, 0
2, 1060350, Note_on_c, 0, 66, 64
2, 1060410, Note_on_c, 0, 66, 0
2, 1060410, Note_on_c, 0, 67, 64
2, 1060530, Note_on_c, 0, 67, 0
2, 1060530, Note_on_c, 0, 69, 64
2, 1060650, Note_on_c, 0, 69, 0
2, 1060650, Note_on_c, 0, 70, 64
2, 1060770, Note_on_c, 0, 70, 0
2, 1060770, Note_on_c, 0, 67, 64
2, 1060830, Note_on_c, 0, 67, 0
2, 1060830, Note_on_c, 0, 69, 64
2, 1060890, Note_on_c, 0, 69, 0
2, 1060890, Note_on_c, 0, 71, 64
2, 1061010, Note_on_c, 0, 71, 0
2, 1061010, Note_on_c, 0, 73, 64
2, 1061130, Note_on_c, 0, 73, 0
2, 1061130, Note_on_c, 0, 74, 64
2, 1061250, Note_on_c, 0, 74, 0
2, 1061250, Note_on_c, 0, 62, 64
2, 1061310, Note_on_c, 0, 62, 0
2, 1061310, Note_on_c, 0, 64, 64
2, 1061370, Note_on_c, 0, 64, 0
2, 1061370, Note_on_c, 0, 65, 64
2, 1061430, Note_on_c, 0, 65, 0
2, 1061430, Note_on_c, 0, 67, 64
2, 1061490, Note_on_c, 0, 67, 0
2, 1061490, Note_on_c, 0, 69, 64
2, 1061550, Note_on_c, 0, 69, 0
2, 1061550, Note_on_c, 0, 70, 64
2, 1061610, Note_on_c, 0, 70, 0
2, 1061610, Note_on_c, 0, 69, 64
2, 1061850, Note_on_c, 0, 69, 0
2, 1062090, Note_on_c, 0, 81, 64
2, 1062210, Note_on_c, 0, 81, 0
2, 1062210, Note_on_c, 0, 73, 64
2, 1062450, Note_on_c, 0, 73, 0
2, 1062450, Note_on_c, 0, 74, 64
2, 1062510, Note_on_c, 0, 74, 0
2, 1062510, Note_on_c, 0, 76, 64
2, 1062570, Note_on_c, 0, 76, 0
2, 1062570, Note_on_c, 0, 74, 64
2, 1062630, Note_on_c, 0, 74, 0
2, 1062630, Note_on_c, 0, 77, 64
2, 1062690, Note_on_c, 0, 77, 0
2, 1062690, Note_on_c, 0, 81, 64
2, 1062930, Note_on_c, 0, 81, 0
2, 1062930, Note_on_c, 0, 79, 64
2, 1062990, Note_on_c, 0, 79, 0
2, 1062990, Note_on_c, 0, 77, 64
2, 1063050, Note_on_c, 0, 77, 0
2, 1063050, Note_on_c, 0, 76, 64
2, 1063110, Note_on_c, 0, 76, 0
2, 1063110, Note_on_c, 0, 79, 64
2, 1063170, Note_on_c, 0, 79, 0
2, 1063170, Note_on_c, 0, 82, 64
2, 1063410, Note_on_c, 0, 82, 0
2, 1063410, Note_on_c, 0, 81, 64
2, 1063470, Note_on_c, 0, 81, 0
2, 1063470, Note_on_c, 0, 79, 64
2, 1063530, Note_on_c, 0, 79, 0
2, 1063530, Note_on_c, 0, 78, 64
2, 1063590, Note_on_c, 0, 78, 0
2, 1063590, Note_on_c, 0, 80, 64
2, 1063650, Note_on_c, 0, 80, 0
2, 1063650, Note_on_c, 0, 81, 64
2, 1063890, Note_on_c, 0, 81, 0
2, 1063890, Note_on_c, 0, 69, 64
2, 1064010, Note_on_c, 0, 69, 0
2, 1064010, Note_on_c, 0, 68, 64
2, 1064130, Note_on_c, 0, 68, 0
2, 1064130, Note_on_c, 0, 67, 64
2, 1064250, Note_on_c, 0, 67, 0
2, 1064250, Note_on_c, 0, 66, 64
2, 1064370, Note_on_c, 0, 66, 0
2, 1064370, Note_on_c, 0, 65, 64
2, 1064490, Note_on_c, 0, 65, 0
2, 1064490, Note_on_c, 0, 64, 64
2, 1064610, Note_on_c, 0, 64, 0
2, 1064610, Note_on_c, 0, 63, 64
2, 1064730, Note_on_c, 0, 63, 0
2, 1064730, Note_on_c, 0, 62, 64
2, 1064850, Note_on_c, 0, 62, 0
2, 1064850, Note_on_c, 0, 61, 64
2, 1065090, Note_on_c, 0, 61, 0
2, 1065090, Note_on_c, 0, 62, 64
2, 1065150, Note_on_c, 0, 62, 0
2, 1065150, Note_on_c, 0, 64, 64
2, 1065210, Note_on_c, 0, 64, 0
2, 1065210, Note_on_c, 0, 62, 64
2, 1065330, Note_on_c, 0, 62, 0
2, 1065330, Note_on_c, 0, 67, 64
2, 1065450, Note_on_c, 0, 67, 0
2, 1065450, Note_on_c, 0, 66, 64
2, 1065510, Note_on_c, 0, 66, 0
2, 1065510, Note_on_c, 0, 68, 64
2, 1065570, Note_on_c, 0, 68, 0
2, 1065570, Note_on_c, 0, 69, 64
2, 1065810, Note_on_c, 0, 69, 0
2, 1065810, Note_on_c, 0, 70, 64
2, 1065870, Note_on_c, 0, 70, 0
2, 1065870, Note_on_c, 0, 72, 64
2, 1065930, Note_on_c, 0, 72, 0
2, 1065930, Note_on_c, 0, 70, 64
2, 1066050, Note_on_c, 0, 70, 0
2, 1066050, Note_on_c, 0, 66, 64
2, 1066290, Note_on_c, 0, 66, 0
2, 1066290, Note_on_c, 0, 68, 64
2, 1066350, Note_on_c, 0, 68, 0
2, 1066350, Note_on_c, 0, 69, 64
2, 1066410, Note_on_c, 0, 69, 0
2, 1066410, Note_on_c, 0, 67, 64
2, 1066470, Note_on_c, 0, 67, 0
2, 1066470, Note_on_c, 0, 70, 64
2, 1066530, Note_on_c, 0, 70, 0
2, 1066530, Note_on_c, 0, 74, 64
2, 1066770, Note_on_c, 0, 74, 0
2, 1066770, Note_on_c, 0, 72, 64
2, 1066830, Note_on_c, 0, 72, 0
2, 1066830, Note_on_c, 0, 70, 64
2, 1066890, Note_on_c, 0, 70, 0
2, 1066890, Note_on_c, 0, 69, 64
2, 1066950, Note_on_c, 0, 69, 0
2, 1066950, Note_on_c, 0, 72, 64
2, 1067010, Note_on_c, 0, 72, 0
2, 1067010, Note_on_c, 0, 75, 64
2, 1067250, Note_on_c, 0, 75, 0
2, 1067250, Note_on_c, 0, 74, 64
2, 1067310, Note_on_c, 0, 74, 0
2, 1067310, Note_on_c, 0, 72, 64
2, 1067370, Note_on_c, 0, 72, 0
2, 1067370, Note_on_c, 0, 71, 64
2, 1067430, Note_on_c, 0, 71, 0
2, 1067430, Note_on_c, 0, 73, 64
2, 1067490, Note_on_c, 0, 73, 0
2, 1067490, Note_on_c, 0, 74, 64
2, 1067730, Note_on_c, 0, 74, 0
2, 1067730, Note_on_c, 0, 86, 64
2, 1067850, Note_on_c, 0, 86, 0
2, 1067850, Note_on_c, 0, 85, 64
2, 1067970, Note_on_c, 0, 85, 0
2, 1067970, Note_on_c, 0, 84, 64
2, 1068090, Note_on_c, 0, 84, 0
2, 1068090, Note_on_c, 0, 83, 64
2, 1068210, Note_on_c, 0, 83, 0
2, 1068210, Note_on_c, 0, 82, 64
2, 1068330, Note_on_c, 0, 82, 0
2, 1068330, Note_on_c, 0, 81, 64
2, 1068450, Note_on_c, 0, 81, 0
2, 1068450, Note_on_c, 0, 80, 64
2, 1068570, Note_on_c, 0, 80, 0
2, 1068570, Note_on_c, 0, 79, 64
2, 1068690, Note_on_c, 0, 79, 0
2, 1068690, Note_on_c, 0, 78, 64
2, 1068930, Note_on_c, 0, 78, 0
2, 1068930, Note_on_c, 0, 79, 64
2, 1068990, Note_on_c, 0, 79, 0
2, 1068990, Note_on_c, 0, 81, 64
2, 1069050, Note_on_c, 0, 81, 0
2, 1069050, Note_on_c, 0, 79, 64
2, 1069170, Note_on_c, 0, 79, 0
2, 1069170, Note_on_c, 0, 84, 64
2, 1069290, Note_on_c, 0, 84, 0
2, 1069290, Note_on_c, 0, 83, 64
2, 1069350, Note_on_c, 0, 83, 0
2, 1069350, Note_on_c, 0, 85, 64
2, 1069410, Note_on_c, 0, 85, 0
2, 1069410, Note_on_c, 0, 86, 64
2, 1069530, Note_on_c, 0, 86, 0
2, 1069650, Note_on_c, 0, 70, 64
2, 1069770, Note_on_c, 0, 70, 0
2, 1069770, Note_on_c, 0, 81, 64
2, 1069890, Note_on_c, 0, 81, 0
2, 1069890, Note_on_c, 0, 73, 64
2, 1070010, Note_on_c, 0, 73, 0
2, 1070010, Note_on_c, 0, 79, 64
2, 1070130, Note_on_c, 0, 79, 0
2, 1070130, Note_on_c, 0, 73, 64
2, 1070250, Note_on_c, 0, 73, 0
2, 1070250, Note_on_c, 0, 73, 64
2, 1070310, Note_on_c, 0, 73, 0
2, 1070310, Note_on_c, 0, 74, 64
2, 1070370, Note_on_c, 0, 74, 0
2, 1070370, Note_on_c, 0, 76, 64
2, 1070430, Note_on_c, 0, 76, 0
2, 1070430, Note_on_c, 0, 74, 64
2, 1070490, Note_on_c, 0, 74, 0
2, 1070490, Note_on_c, 0, 73, 64
2, 1070550, Note_on_c, 0, 73, 0
2, 1070550, Note_on_c, 0, 74, 64
2, 1070610, Note_on_c, 0, 74, 0
2, 1070610, Note_on_c, 0, 73, 64
2, 1070670, Note_on_c, 0, 73, 0
2, 1070670, Note_on_c, 0, 72, 64
2, 1070730, Note_on_c, 0, 72, 0
2, 1070730, Note_on_c, 0, 71, 64
2, 1070790, Note_on_c, 0, 71, 0
2, 1070790, Note_on_c, 0, 72, 64
2, 1070850, Note_on_c, 0, 72, 0
2, 1070850, Note_on_c, 0, 71, 64
2, 1070910, Note_on_c, 0, 71, 0
2, 1070910, Note_on_c, 0, 70, 64
2, 1070970, Note_on_c, 0, 70, 0
2, 1070970, Note_on_c, 0, 69, 64
2, 1071090, Note_on_c, 0, 69, 0
2, 1071090, Note_on_c, 0, 81, 64
2, 1071210, Note_on_c, 0, 81, 0
2, 1071210, Note_on_c, 0, 81, 64
2, 1071330, Note_on_c, 0, 81, 0
2, 1071330, Note_on_c, 0, 82, 64
2, 1071450, Note_on_c, 0, 82, 0
2, 1071570, Note_on_c, 0, 79, 64
2, 1071690, Note_on_c, 0, 79, 0
2, 1071690, Note_on_c, 0, 80, 64
2, 1071810, Note_on_c, 0, 80, 0
2, 1071810, Note_on_c, 0, 81, 64
2, 1071930, Note_on_c, 0, 81, 0
2, 1072050, Note_on_c, 0, 77, 64
2, 1072170, Note_on_c, 0, 77, 0
2, 1072170, Note_on_c, 0, 78, 64
2, 1072290, Note_on_c, 0, 78, 0
2, 1072290, Note_on_c, 0, 79, 64
2, 1072530, Note_on_c, 0, 79, 0
2, 1072530, Note_on_c, 0, 69, 64
2, 1072770, Note_on_c, 0, 69, 0
2, 1072770, Note_on_c, 0, 70, 64
2, 1072830, Note_on_c, 0, 70, 0
2, 1072830, Note_on_c, 0, 69, 64
2, 1072890, Note_on_c, 0, 69, 0
2, 1072890, Note_on_c, 0, 70, 64
2, 1073010, Note_on_c, 0, 70, 0
2, 1073010, Note_on_c, 0, 76, 64
2, 1073130, Note_on_c, 0, 76, 0
2, 1073130, Note_on_c, 0, 74, 64
2, 1073190, Note_on_c, 0, 74, 0
2, 1073190, Note_on_c, 0, 82, 64
2, 1073250, Note_on_c, 0, 82, 0
2, 1073250, Note_on_c, 0, 81, 64
2, 1073490, Note_on_c, 0, 81, 0
2, 1073490, Note_on_c, 0, 79, 64
2, 1073610, Note_on_c, 0, 79, 0
2, 1073610, Note_on_c, 0, 77, 64
2, 1073670, Note_on_c, 0, 77, 0
2, 1073670, Note_on_c, 0, 76, 64
2, 1073700, Note_on_c, 0, 76, 0
2, 1073700, Note_on_c, 0, 74, 64
2, 1073730, Note_on_c, 0, 74, 0
2, 1073730, Note_on_c, 0, 75, 64
2, 1073970, Note_on_c, 0, 75, 0
2, 1073970, Note_on_c, 0, 74, 64
2, 1074090, Note_on_c, 0, 74, 0
2, 1074090, Note_on_c, 0, 73, 64
2, 1074150, Note_on_c, 0, 73, 0
2, 1074150, Note_on_c, 0, 74, 64
2, 1074180, Note_on_c, 0, 74, 0
2, 1074180, Note_on_c, 0, 76, 64
2, 1074210, Note_on_c, 0, 76, 0
2, 1074210, Note_on_c, 0, 74, 64
2, 1074450, Note_on_c, 0, 74, 0
2, 1074450, Note_on_c, 0, 76, 64
2, 1074570, Note_on_c, 0, 76, 0
2, 1074570, Note_on_c, 0, 77, 64
2, 1074630, Note_on_c, 0, 77, 0
2, 1074630, Note_on_c, 0, 69, 64
2, 1074690, Note_on_c, 0, 69, 0
2, 1074690, Note_on_c, 0, 79, 64
2, 1074930, Note_on_c, 0, 79, 0
2, 1074930, Note_on_c, 0, 77, 64
2, 1074990, Note_on_c, 0, 77, 0
2, 1074990, Note_on_c, 0, 76, 64
2, 1075050, Note_on_c, 0, 76, 0
2, 1075050, Note_on_c, 0, 74, 64
2, 1075770, Note_on_c, 0, 74, 0
2, 1075770, End_track
3, 0, Start_track
3, 0, MIDI_port, 0
3, 0, Title_t, "DIE KUNST DER FUGE durch Herrn Johann Sebastian Bach, ehemaligen Capellmeister und Musikdirector zu Leipzig - BWV 1080"
3, 3840, Note_on_c, 0, 50, 100
3, 4080, Note_on_c, 0, 50, 0
3, 4080, Note_on_c, 0, 57, 100
3, 4320, Note_on_c, 0, 57, 0
3, 4320, Note_on_c, 0, 53, 100
3, 4560, Note_on_c, 0, 53, 0
3, 4560, Note_on_c, 0, 50, 100
3, 4800, Note_on_c, 0, 50, 0
3, 4800, Note_on_c, 0, 49, 100
3, 5040, Note_on_c, 0, 49, 0
3, 5040, Note_on_c, 0, 50, 100
3, 5160, Note_on_c, 0, 50, 0
3, 5160, Note_on_c, 0, 52, 100
3, 5280, Note_on_c, 0, 52, 0
3, 5280, Note_on_c, 0, 53, 100
3, 5580, Note_on_c, 0, 53, 0
3, 5580, Note_on_c, 0, 55, 100
3, 5640, Note_on_c, 0, 55, 0
3, 5640, Note_on_c, 0, 53, 100
3, 5700, Note_on_c, 0, 53, 0
3, 5700, Note_on_c, 0, 52, 100
3, 5760, Note_on_c, 0, 52, 0
3, 5760, Note_on_c, 0, 57, 100
3, 5760, Note_on_c, 0, 50, 100
3, 6000, Note_on_c, 0, 50, 0
3, 6000, Note_on_c, 0, 57, 0
3, 6000, Note_on_c, 0, 62, 100
3, 6240, Note_on_c, 0, 62, 0
3, 6240, Note_on_c, 0, 60, 100
3, 6360, Note_on_c, 0, 45, 100
3, 6420, Note_on_c, 0, 45, 0
3, 6420, Note_on_c, 0, 47, 100
3, 6480, Note_on_c, 0, 47, 0
3, 6480, Note_on_c, 0, 60, 0
3, 6480, Note_on_c, 0, 57, 100
3, 6480, Note_on_c, 0, 48, 100
3, 6540, Note_on_c, 0, 48, 0
3, 6540, Note_on_c, 0, 45, 100
3, 6600, Note_on_c, 0, 45, 0
3, 6600, Note_on_c, 0, 53, 100
3, 6720, Note_on_c, 0, 57, 0
3, 6720, Note_on_c, 0, 56, 100
3, 6780, Note_on_c, 0, 53, 0
3, 6780, Note_on_c, 0, 47, 100
3, 6840, Note_on_c, 0, 47, 0
3, 6840, Note_on_c, 0, 52, 100
3, 6960, Note_on_c, 0, 56, 0
3, 6960, Note_on_c, 0, 57, 100
3, 7020, Note_on_c, 0, 52, 0
3, 7020, Note_on_c, 0, 53, 100
3, 7080, Note_on_c, 0, 53, 0
3, 7080, Note_on_c, 0, 57, 0
3, 7080, Note_on_c, 0, 59, 100
3, 7080, Note_on_c, 0, 52, 100
3, 7140, Note_on_c, 0, 52, 0
3, 7140, Note_on_c, 0, 50, 100
3, 7200, Note_on_c, 0, 50, 0
3, 7200, Note_on_c, 0, 59, 0
3, 7200, Note_on_c, 0, 60, 100
3, 7200, Note_on_c, 0, 52, 100
3, 7260, Note_on_c, 0, 52, 0
3, 7260, Note_on_c, 0, 55, 100
3, 7320, Note_on_c, 0, 55, 0
3, 7320, Note_on_c, 0, 54, 100
3, 7380, Note_on_c, 0, 54, 0
3, 7380, Note_on_c, 0, 57, 100
3, 7440, Note_on_c, 0, 57, 0
3, 7440, Note_on_c, 0, 55, 100
3, 7500, Note_on_c, 0, 60, 0
3, 7500, Note_on_c, 0, 62, 100
3, 7560, Note_on_c, 0, 62, 0
3, 7560, Note_on_c, 0, 60, 100
3, 7620, Note_on_c, 0, 60, 0
3, 7620, Note_on_c, 0, 58, 100
3, 7680, Note_on_c, 0, 58, 0
3, 7680, Note_on_c, 0, 55, 0
3, 7680, Note_on_c, 0, 57, 100
3, 7680, Note_on_c, 0, 50, 100
3, 7980, Note_on_c, 0, 57, 0
3, 7980, Note_on_c, 0, 53, 100
3, 8040, Note_on_c, 0, 53, 0
3, 8040, Note_on_c, 0, 50, 0
3, 8040, Note_on_c, 0, 55, 100
3, 8040, Note_on_c, 0, 52, 100
3, 8100, Note_on_c, 0, 52, 0
3, 8100, Note_on_c, 0, 50, 100
3, 8160, Note_on_c, 0, 50, 0
3, 8160, Note_on_c, 0, 55, 0
3, 8160, Note_on_c, 0, 60, 100
3, 8160, Note_on_c, 0, 52, 100
3, 8280, Note_on_c, 0, 52, 0
3, 8280, Note_on_c, 0, 53, 100
3, 8340, Note_on_c, 0, 53, 0
3, 8340, Note_on_c, 0, 52, 100
3, 8400, Note_on_c, 0, 52, 0
3, 8400, Note_on_c, 0, 54, 100
3, 8460, Note_on_c, 0, 60, 0
3, 8460, Note_on_c, 0, 57, 100
3, 8520, Note_on_c, 0, 57, 0
3, 8520, Note_on_c, 0, 54, 0
3, 8520, Note_on_c, 0, 59, 100
3, 8520, Note_on_c, 0, 55, 100
3, 8580, Note_on_c, 0, 55, 0
3, 8580, Note_on_c, 0, 54, 100
3, 8640, Note_on_c, 0, 54, 0
3, 8640, Note_on_c, 0, 59, 0
3, 8640, Note_on_c, 0, 64, 100
3, 8640, Note_on_c, 0, 56, 100
3, 8760, Note_on_c, 0, 56, 0
3, 8760, Note_on_c, 0, 57, 100
3, 8820, Note_on_c, 0, 57, 0
3, 8820, Note_on_c, 0, 56, 100
3, 8880, Note_on_c, 0, 56, 0
3, 8880, Note_on_c, 0, 57, 100
3, 8940, Note_on_c, 0, 64, 0
3, 8940, Note_on_c, 0, 61, 100
3, 9000, Note_on_c, 0, 61, 0
3, 9000, Note_on_c, 0, 57, 0
3, 9000, Note_on_c, 0, 62, 100
3, 9000, Note_on_c, 0, 58, 100
3, 9060, Note_on_c, 0, 58, 0
3, 9060, Note_on_c, 0, 57, 100
3, 9120, Note_on_c, 0, 57, 0
3, 9120, Note_on_c, 0, 62, 0
3, 9120, Note_on_c, 0, 67, 100
3, 9120, Note_on_c, 0, 59, 100
3, 9240, Note_on_c, 0, 59, 0
3, 9240, Note_on_c, 0, 60, 100
3, 9300, Note_on_c, 0, 60, 0
3, 9300, Note_on_c, 0, 59, 100
3, 9360, Note_on_c, 0, 59, 0
3, 9360, Note_on_c, 0, 61, 100
3, 9420, Note_on_c, 0, 67, 0
3, 9420, Note_on_c, 0, 64, 100
3, 9480, Note_on_c, 0, 64, 0
3, 9480, Note_on_c, 0, 61, 0
3, 9480, Note_on_c, 0, 65, 100
3, 9480, Note_on_c, 0, 62, 100
3, 9540, Note_on_c, 0, 62, 0
3, 9540, Note_on_c, 0, 56, 100
3, 9600, Note_on_c, 0, 56, 0
3, 9600, Note_on_c, 0, 65, 0
3, 9600, Note_on_c, 0, 64, 100
3, 9600, Note_on_c, 0, 57, 100
3, 9780, Note_on_c, 0, 64, 0
3, 9780, Note_on_c, 0, 69, 100
3, 9840, Note_on_c, 0, 69, 0
3, 9840, Note_on_c, 0, 62, 100
3, 9900, Note_on_c, 0, 57, 0
3, 9900, Note_on_c, 0, 53, 100
3, 9960, Note_on_c, 0, 53, 0
3, 9960, Note_on_c, 0, 55, 100
3, 10020, Note_on_c, 0, 62, 0
3, 10020, Note_on_c, 0, 64, 100
3, 10080, Note_on_c, 0, 64, 0
3, 10080, Note_on_c, 0, 61, 100
3, 10140, Note_on_c, 0, 55, 0
3, 10140, Note_on_c, 0, 52, 100
3, 10200, Note_on_c, 0, 52, 0
3, 10200, Note_on_c, 0, 61, 0
3, 10200, Note_on_c, 0, 62, 100
3, 10200, Note_on_c, 0, 53, 100
3, 10260, Note_on_c, 0, 62, 0
3, 10260, Note_on_c, 0, 57, 100
3, 10320, Note_on_c, 0, 57, 0
3, 10320, Note_on_c, 0, 59, 100
3, 10380, Note_on_c, 0, 53, 0
3, 10380, Note_on_c, 0, 50, 100
3, 10440, Note_on_c, 0, 50, 0
3, 10440, Note_on_c, 0, 52, 100
3, 10500, Note_on_c, 0, 59, 0
3, 10500, Note_on_c, 0, 61, 100
3, 10560, Note_on_c, 0, 61, 0
3, 10560, Note_on_c, 0, 52, 0
3, 10560, Note_on_c, 0, 62, 100
3, 10560, Note_on_c, 0, 50, 100
3, 10680, Note_on_c, 0, 62, 0
3, 10680, Note_on_c, 0, 57, 100
3, 10860, Note_on_c, 0, 50, 0
3, 10860, Note_on_c, 0, 47, 100
3, 10920, Note_on_c, 0, 47, 0
3, 10920, Note_on_c, 0, 49, 100
3, 11040, Note_on_c, 0, 49, 0
3, 11040, Note_on_c, 0, 50, 100
3, 11220, Note_on_c, 0, 50, 0
3, 11220, Note_on_c, 0, 48, 100
3, 11280, Note_on_c, 0, 48, 0
3, 11280, Note_on_c, 0, 57, 0
3, 11280, Note_on_c, 0, 58, 100
3, 11280, Note_on_c, 0, 46, 100
3, 11520, Note_on_c, 0, 46, 0
3, 11520, Note_on_c, 0, 58, 0
3, 11520, Note_on_c, 0, 45, 100
3, 11580, Note_on_c, 0, 52, 100
3, 11640, Note_on_c, 0, 52, 0
3, 11640, Note_on_c, 0, 57, 100
3, 11700, Note_on_c, 0, 45, 0
3, 11700, Note_on_c, 0, 43, 100
3, 11760, Note_on_c, 0, 43, 0
3, 11760, Note_on_c, 0, 41, 100
3, 11820, Note_on_c, 0, 41, 0
3, 11820, Note_on_c, 0, 57, 0
3, 11820, Note_on_c, 0, 58, 100
3, 11820, Note_on_c, 0, 43, 100
3, 11880, Note_on_c, 0, 43, 0
3, 11880, Note_on_c, 0, 58, 0
3, 11880, Note_on_c, 0, 57, 100
3, 11880, Note_on_c, 0, 41, 100
3, 11940, Note_on_c, 0, 41, 0
3, 11940, Note_on_c, 0, 57, 0
3, 11940, Note_on_c, 0, 55, 100
3, 11940, Note_on_c, 0, 40, 100
3, 12000, Note_on_c, 0, 40, 0
3, 12000, Note_on_c, 0, 55, 0
3, 12000, Note_on_c, 0, 57, 100
3, 12000, Note_on_c, 0, 38, 100
3, 12060, Note_on_c, 0, 38, 0
3, 12060, Note_on_c, 0, 41, 100
3, 12120, Note_on_c, 0, 41, 0
3, 12120, Note_on_c, 0, 57, 0
3, 12120, Note_on_c, 0, 59, 100
3, 12120, Note_on_c, 0, 40, 100
3, 12180, Note_on_c, 0, 40, 0
3, 12180, Note_on_c, 0, 38, 100
3, 12240, Note_on_c, 0, 38, 0
3, 12240, Note_on_c, 0, 59, 0
3, 12240, Note_on_c, 0, 60, 100
3, 12240, Note_on_c, 0, 45, 100
3, 12420, Note_on_c, 0, 45, 0
3, 12420, Note_on_c, 0, 41, 100
3, 12480, Note_on_c, 0, 41, 0
3, 12480, Note_on_c, 0, 46, 100
3, 12540, Note_on_c, 0, 60, 0
3, 12540, Note_on_c, 0, 57, 100
3, 12600, Note_on_c, 0, 57, 0
3, 12600, Note_on_c, 0, 58, 100
3, 12660, Note_on_c, 0, 46, 0
3, 12660, Note_on_c, 0, 43, 100
3, 12720, Note_on_c, 0, 43, 0
3, 12720, Note_on_c, 0, 58, 0
3, 12720, Note_on_c, 0, 57, 100
3, 12720, Note_on_c, 0, 50, 100
3, 12840, Note_on_c, 0, 57, 0
3, 12840, Note_on_c, 0, 62, 100
3, 12900, Note_on_c, 0, 50, 0
3, 12900, Note_on_c, 0, 53, 100
3, 12960, Note_on_c, 0, 53, 0
3, 12960, Note_on_c, 0, 57, 100
3, 13020, Note_on_c, 0, 62, 0
3, 13020, Note_on_c, 0, 59, 100
3, 13080, Note_on_c, 0, 59, 0
3, 13080, Note_on_c, 0, 60, 100
3, 13140, Note_on_c, 0, 57, 0
3, 13140, Note_on_c, 0, 45, 100
3, 13200, Note_on_c, 0, 45, 0
3, 13200, Note_on_c, 0, 60, 0
3, 13200, Note_on_c, 0, 59, 100
3, 13200, Note_on_c, 0, 40, 100
3, 13320, Note_on_c, 0, 59, 0
3, 13320, Note_on_c, 0, 64, 100
3, 13440, Note_on_c, 0, 40, 0
3, 13500, Note_on_c, 0, 64, 0
3, 13500, Note_on_c, 0, 57, 100
3, 13560, Note_on_c, 0, 57, 0
3, 13560, Note_on_c, 0, 62, 100
3, 13680, Note_on_c, 0, 52, 100
3, 13740, Note_on_c, 0, 62, 0
3, 13740, Note_on_c, 0, 62, 100
3, 13800, Note_on_c, 0, 62, 0
3, 13800, Note_on_c, 0, 60, 100
3, 13860, Note_on_c, 0, 60, 0
3, 13860, Note_on_c, 0, 59, 100
3, 13920, Note_on_c, 0, 59, 0
3, 13920, Note_on_c, 0, 52, 0
3, 13920, Note_on_c, 0, 60, 100
3, 13920, Note_on_c, 0, 57, 100
3, 13980, Note_on_c, 0, 60, 0
3, 13980, Note_on_c, 0, 62, 100
3, 14040, Note_on_c, 0, 62, 0
3, 14040, Note_on_c, 0, 64, 100
3, 14160, Note_on_c, 0, 57, 0
3, 14160, Note_on_c, 0, 53, 100
3, 14220, Note_on_c, 0, 64, 0
3, 14220, Note_on_c, 0, 64, 100
3, 14280, Note_on_c, 0, 64, 0
3, 14280, Note_on_c, 0, 62, 100
3, 14340, Note_on_c, 0, 62, 0
3, 14340, Note_on_c, 0, 60, 100
3, 14400, Note_on_c, 0, 60, 0
3, 14400, Note_on_c, 0, 59, 100
3, 14460, Note_on_c, 0, 53, 0
3, 14460, Note_on_c, 0, 53, 100
3, 14520, Note_on_c, 0, 53, 0
3, 14520, Note_on_c, 0, 52, 100
3, 14580, Note_on_c, 0, 52, 0
3, 14580, Note_on_c, 0, 50, 100
3, 14640, Note_on_c, 0, 50, 0
3, 14640, Note_on_c, 0, 59, 0
3, 14640, Note_on_c, 0, 60, 100
3, 14640, Note_on_c, 0, 48, 100
3, 14700, Note_on_c, 0, 48, 0
3, 14700, Note_on_c, 0, 50, 100
3, 14760, Note_on_c, 0, 50, 0
3, 14760, Note_on_c, 0, 60, 0
3, 14760, Note_on_c, 0, 56, 100
3, 14760, Note_on_c, 0, 48, 100
3, 14820, Note_on_c, 0, 48, 0
3, 14820, Note_on_c, 0, 47, 100
3, 14880, Note_on_c, 0, 47, 0
3, 14880, Note_on_c, 0, 56, 0
3, 14880, Note_on_c, 0, 57, 100
3, 14880, Note_on_c, 0, 45, 100
3, 14940, Note_on_c, 0, 57, 0
3, 14940, Note_on_c, 0, 55, 100
3, 15000, Note_on_c, 0, 55, 0
3, 15000, Note_on_c, 0, 54, 100
3, 15060, Note_on_c, 0, 54, 0
3, 15060, Note_on_c, 0, 52, 100
3, 15120, Note_on_c, 0, 52, 0
3, 15120, Note_on_c, 0, 45, 0
3, 15120, Note_on_c, 0, 54, 100
3, 15120, Note_on_c, 0, 50, 100
3, 15240, Note_on_c, 0, 54, 0
3, 15240, Note_on_c, 0, 55, 100
3, 15360, Note_on_c, 0, 50, 0
3, 15360, Note_on_c, 0, 49, 100
3, 15420, Note_on_c, 0, 55, 0
3, 15420, Note_on_c, 0, 55, 100
3, 15480, Note_on_c, 0, 55, 0
3, 15480, Note_on_c, 0, 53, 100
3, 15540, Note_on_c, 0, 53, 0
3, 15540, Note_on_c, 0, 52, 100
3, 15600, Note_on_c, 0, 52, 0
3, 15600, Note_on_c, 0, 49, 0
3, 15600, Note_on_c, 0, 53, 100
3, 15600, Note_on_c, 0, 45, 100
3, 15660, Note_on_c, 0, 53, 0
3, 15660, Note_on_c, 0, 52, 100
3, 15720, Note_on_c, 0, 52, 0
3, 15720, Note_on_c, 0, 50, 100
3, 15780, Note_on_c, 0, 50, 0
3, 15780, Note_on_c, 0, 49, 100
3, 15840, Note_on_c, 0, 49, 0
3, 15840, Note_on_c, 0, 45, 0
3, 15840, Note_on_c, 0, 50, 100
3, 15840, Note_on_c, 0, 42, 100
3, 15960, Note_on_c, 0, 50, 0
3, 16080, Note_on_c, 0, 42, 0
3, 16080, Note_on_c, 0, 43, 100
3, 16200, Note_on_c, 0, 43, 0
3, 16200, Note_on_c, 0, 45, 100
3, 16320, Note_on_c, 0, 45, 0
3, 16320, Note_on_c, 0, 46, 100
3, 16620, Note_on_c, 0, 46, 0
3, 16620, Note_on_c, 0, 48, 100
3, 16680, Note_on_c, 0, 48, 0
3, 16680, Note_on_c, 0, 46, 100
3, 16740, Note_on_c, 0, 46, 0
3, 16740, Note_on_c, 0, 45, 100
3, 16800, Note_on_c, 0, 45, 0
3, 16800, Note_on_c, 0, 43, 100
3, 17100, Note_on_c, 0, 43, 0
3, 17100, Note_on_c, 0, 40, 100
3, 17160, Note_on_c, 0, 40, 0
3, 17160, Note_on_c, 0, 41, 100
3, 17280, Note_on_c, 0, 41, 0
3, 17280, Note_on_c, 0, 46, 100
3, 17580, Note_on_c, 0, 46, 0
3, 17580, Note_on_c, 0, 43, 100
3, 17640, Note_on_c, 0, 43, 0
3, 17640, Note_on_c, 0, 45, 100
3, 17760, Note_on_c, 0, 45, 0
3, 17760, Note_on_c, 0, 50, 100
3, 18060, Note_on_c, 0, 50, 0
3, 18060, Note_on_c, 0, 47, 100
3, 18120, Note_on_c, 0, 47, 0
3, 18120, Note_on_c, 0, 48, 100
3, 18240, Note_on_c, 0, 48, 0
3, 18240, Note_on_c, 0, 53, 100
3, 18540, Note_on_c, 0, 53, 0
3, 18540, Note_on_c, 0, 50, 100
3, 18600, Note_on_c, 0, 50, 0
3, 18600, Note_on_c, 0, 52, 100
3, 18720, Note_on_c, 0, 52, 0
3, 18720, Note_on_c, 0, 52, 100
3, 18720, Note_on_c, 0, 45, 100
3, 18900, Note_on_c, 0, 45, 0
3, 18900, Note_on_c, 0, 55, 100
3, 18960, Note_on_c, 0, 55, 0
3, 18960, Note_on_c, 0, 52, 0
3, 18960, Note_on_c, 0, 57, 100
3, 18960, Note_on_c, 0, 53, 100
3, 19020, Note_on_c, 0, 53, 0
3, 19020, Note_on_c, 0, 52, 100
3, 19080, Note_on_c, 0, 52, 0
3, 19080, Note_on_c, 0, 50, 100
3, 19140, Note_on_c, 0, 50, 0
3, 19140, Note_on_c, 0, 49, 100
3, 19200, Note_on_c, 0, 49, 0
3, 19200, Note_on_c, 0, 57, 0
3, 19200, Note_on_c, 0, 53, 100
3, 19200, Note_on_c, 0, 50, 100
3, 19380, Note_on_c, 0, 50, 0
3, 19380, Note_on_c, 0, 41, 100
3, 19440, Note_on_c, 0, 41, 0
3, 19440, Note_on_c, 0, 53, 0
3, 19440, Note_on_c, 0, 50, 100
3, 19440, Note_on_c, 0, 46, 100
3, 19680, Note_on_c, 0, 46, 0
3, 19680, Note_on_c, 0, 50, 0
3, 19680, Note_on_c, 0, 49, 100
3, 19680, Note_on_c, 0, 45, 100
3, 19920, Note_on_c, 0, 49, 0
3, 19920, Note_on_c, 0, 50, 100
3, 20040, Note_on_c, 0, 50, 0
3, 20040, Note_on_c, 0, 52, 100
3, 20160, Note_on_c, 0, 52, 0
3, 20160, Note_on_c, 0, 53, 100
3, 20340, Note_on_c, 0, 45, 0
3, 20340, Note_on_c, 0, 46, 100
3, 20400, Note_on_c, 0, 46, 0
3, 20400, Note_on_c, 0, 45, 100
3, 20460, Note_on_c, 0, 45, 0
3, 20460, Note_on_c, 0, 53, 0
3, 20460, Note_on_c, 0, 55, 100
3, 20460, Note_on_c, 0, 43, 100
3, 20520, Note_on_c, 0, 43, 0
3, 20520, Note_on_c, 0, 55, 0
3, 20520, Note_on_c, 0, 53, 100
3, 20520, Note_on_c, 0, 45, 100
3, 20580, Note_on_c, 0, 53, 0
3, 20580, Note_on_c, 0, 52, 100
3, 20640, Note_on_c, 0, 52, 0
3, 20640, Note_on_c, 0, 45, 0
3, 20640, Note_on_c, 0, 50, 100
3, 20640, Note_on_c, 0, 46, 100
3, 20820, Note_on_c, 0, 46, 0
3, 20820, Note_on_c, 0, 43, 100
3, 20880, Note_on_c, 0, 43, 0
3, 20880, Note_on_c, 0, 50, 100
3, 21000, Note_on_c, 0, 50, 0
3, 21000, Note_on_c, 0, 57, 100
3, 21060, Note_on_c, 0, 57, 0
3, 21060, Note_on_c, 0, 53, 100
3, 21120, Note_on_c, 0, 53, 0
3, 21120, Note_on_c, 0, 58, 100
3, 21240, Note_on_c, 0, 50, 0
3, 21240, Note_on_c, 0, 52, 100
3, 21300, Note_on_c, 0, 58, 0
3, 21300, Note_on_c, 0, 55, 100
3, 21360, Note_on_c, 0, 55, 0
3, 21360, Note_on_c, 0, 60, 100
3, 21480, Note_on_c, 0, 52, 0
3, 21480, Note_on_c, 0, 53, 100
3, 21540, Note_on_c, 0, 60, 0
3, 21540, Note_on_c, 0, 57, 100
3, 21600, Note_on_c, 0, 57, 0
3, 21600, Note_on_c, 0, 62, 100
3, 21720, Note_on_c, 0, 62, 0
3, 21720, Note_on_c, 0, 55, 100
3, 21780, Note_on_c, 0, 53, 0
3, 21780, Note_on_c, 0, 50, 100
3, 21840, Note_on_c, 0, 50, 0
3, 21840, Note_on_c, 0, 55, 0
3, 21840, Note_on_c, 0, 60, 100
3, 21840, Note_on_c, 0, 52, 100
3, 21960, Note_on_c, 0, 60, 0
3, 21960, Note_on_c, 0, 53, 100
3, 22020, Note_on_c, 0, 52, 0
3, 22020, Note_on_c, 0, 49, 100
3, 22080, Note_on_c, 0, 49, 0
3, 22080, Note_on_c, 0, 53, 0
3, 22080, Note_on_c, 0, 58, 100
3, 22080, Note_on_c, 0, 50, 100
3, 22200, Note_on_c, 0, 58, 0
3, 22200, Note_on_c, 0, 52, 100
3, 22260, Note_on_c, 0, 50, 0
3, 22260, Note_on_c, 0, 47, 100
3, 22320, Note_on_c, 0, 47, 0
3, 22320, Note_on_c, 0, 52, 0
3, 22320, Note_on_c, 0, 57, 100
3, 22320, Note_on_c, 0, 49, 100
3, 22380, Note_on_c, 0, 49, 0
3, 22380, Note_on_c, 0, 45, 100
3, 22440, Note_on_c, 0, 45, 0
3, 22440, Note_on_c, 0, 50, 100
3, 22560, Note_on_c, 0, 57, 0
3, 22560, Note_on_c, 0, 52, 100
3, 22620, Note_on_c, 0, 50, 0
3, 22620, Note_on_c, 0, 48, 100
3, 22680, Note_on_c, 0, 48, 0
3, 22680, Note_on_c, 0, 52, 0
3, 22680, Note_on_c, 0, 57, 100
3, 22680, Note_on_c, 0, 47, 100
3, 22740, Note_on_c, 0, 47, 0
3, 22740, Note_on_c, 0, 45, 100
3, 22800, Note_on_c, 0, 45, 0
3, 22800, Note_on_c, 0, 47, 100
3, 22860, Note_on_c, 0, 57, 0
3, 22860, Note_on_c, 0, 56, 100
3, 22920, Note_on_c, 0, 56, 0
3, 22920, Note_on_c, 0, 54, 100
3, 22980, Note_on_c, 0, 54, 0
3, 22980, Note_on_c, 0, 56, 100
3, 23040, Note_on_c, 0, 56, 0
3, 23040, Note_on_c, 0, 47, 0
3, 23040, Note_on_c, 0, 57, 100
3, 23040, Note_on_c, 0, 45, 100
3, 23160, Note_on_c, 0, 45, 0
3, 23220, Note_on_c, 0, 57, 0
3, 23220, Note_on_c, 0, 55, 100
3, 23280, Note_on_c, 0, 55, 0
3, 23280, Note_on_c, 0, 53, 100
3, 23340, Note_on_c, 0, 53, 0
3, 23340, Note_on_c, 0, 52, 100
3, 23400, Note_on_c, 0, 52, 0
3, 23400, Note_on_c, 0, 50, 100
3, 23460, Note_on_c, 0, 50, 0
3, 23460, Note_on_c, 0, 49, 100
3, 23520, Note_on_c, 0, 49, 0
3, 23520, Note_on_c, 0, 50, 100
3, 23640, Note_on_c, 0, 50, 0
3, 23640, Note_on_c, 0, 53, 100
3, 23700, Note_on_c, 0, 53, 0
3, 23700, Note_on_c, 0, 50, 100
3, 23760, Note_on_c, 0, 50, 0
3, 23760, Note_on_c, 0, 58, 100
3, 23880, Note_on_c, 0, 58, 0
3, 23880, Note_on_c, 0, 55, 100
3, 23940, Note_on_c, 0, 55, 0
3, 23940, Note_on_c, 0, 52, 100
3, 24000, Note_on_c, 0, 52, 0
3, 24000, Note_on_c, 0, 57, 100
3, 24180, Note_on_c, 0, 57, 0
3, 24180, Note_on_c, 0, 65, 100
3, 24240, Note_on_c, 0, 65, 0
3, 24240, Note_on_c, 0, 59, 100
3, 24360, Note_on_c, 0, 59, 0
3, 24360, Note_on_c, 0, 61, 100
3, 24480, Note_on_c, 0, 61, 0
3, 24480, Note_on_c, 0, 62, 100
3, 24600, Note_on_c, 0, 62, 0
3, 24600, Note_on_c, 0, 59, 100
3, 24660, Note_on_c, 0, 59, 0
3, 24660, Note_on_c, 0, 55, 100
3, 24720, Note_on_c, 0, 55, 0
3, 24720, Note_on_c, 0, 60, 100
3, 24840, Note_on_c, 0, 60, 0
3, 24840, Note_on_c, 0, 57, 100
3, 24900, Note_on_c, 0, 57, 0
3, 24900, Note_on_c, 0, 53, 100
3, 24960, Note_on_c, 0, 53, 0
3, 24960, Note_on_c, 0, 58, 100
3, 25020, Note_on_c, 0, 58, 0
3, 25020, Note_on_c, 0, 62, 100
3, 25080, Note_on_c, 0, 62, 0
3, 25080, Note_on_c, 0, 67, 100
3, 25260, Note_on_c, 0, 67, 0
3, 25260, Note_on_c, 0, 64, 100
3, 25320, Note_on_c, 0, 64, 0
3, 25320, Note_on_c, 0, 65, 100
3, 25500, Note_on_c, 0, 65, 0
3, 25500, Note_on_c, 0, 65, 100
3, 25560, Note_on_c, 0, 65, 0
3, 25560, Note_on_c, 0, 64, 100
3, 25620, Note_on_c, 0, 64, 0
3, 25620, Note_on_c, 0, 62, 100
3, 25680, Note_on_c, 0, 62, 0
3, 25680, Note_on_c, 0, 61, 100
3, 25920, Note_on_c, 0, 61, 0
3, 25920, Note_on_c, 0, 62, 100
3, 25980, Note_on_c, 0, 62, 0
3, 25980, Note_on_c, 0, 60, 100
3, 26040, Note_on_c, 0, 60, 0
3, 26040, Note_on_c, 0, 58, 100
3, 26100, Note_on_c, 0, 58, 0
3, 26100, Note_on_c, 0, 57, 100
3, 26160, Note_on_c, 0, 57, 0
3, 26160, Note_on_c, 0, 55, 100
3, 26220, Note_on_c, 0, 55, 0
3, 26220, Note_on_c, 0, 57, 100
3, 26280, Note_on_c, 0, 57, 0
3, 26280, Note_on_c, 0, 58, 100
3, 26340, Note_on_c, 0, 58, 0
3, 26340, Note_on_c, 0, 60, 100
3, 26400, Note_on_c, 0, 60, 0
3, 26400, Note_on_c, 0, 62, 100
3, 26400, Note_on_c, 0, 50, 100
3, 26460, Note_on_c, 0, 62, 0
3, 26460, Note_on_c, 0, 57, 100
3, 26520, Note_on_c, 0, 57, 0
3, 26520, Note_on_c, 0, 62, 100
3, 26640, Note_on_c, 0, 50, 0
3, 26640, Note_on_c, 0, 57, 100
3, 26700, Note_on_c, 0, 62, 0
3, 26700, Note_on_c, 0, 59, 100
3, 26760, Note_on_c, 0, 59, 0
3, 26760, Note_on_c, 0, 61, 100
3, 26880, Note_on_c, 0, 57, 0
3, 26880, Note_on_c, 0, 53, 100
3, 26940, Note_on_c, 0, 61, 0
3, 26940, Note_on_c, 0, 64, 100
3, 27000, Note_on_c, 0, 64, 0
3, 27000, Note_on_c, 0, 57, 100
3, 27060, Note_on_c, 0, 57, 0
3, 27060, Note_on_c, 0, 61, 100
3, 27120, Note_on_c, 0, 61, 0
3, 27120, Note_on_c, 0, 53, 0
3, 27120, Note_on_c, 0, 62, 100
3, 27120, Note_on_c, 0, 50, 100
3, 27240, Note_on_c, 0, 62, 0
3, 27240, Note_on_c, 0, 58, 100
3, 27300, Note_on_c, 0, 58, 0
3, 27300, Note_on_c, 0, 55, 100
3, 27360, Note_on_c, 0, 55, 0
3, 27360, Note_on_c, 0, 50, 0
3, 27360, Note_on_c, 0, 52, 100
3, 27360, Note_on_c, 0, 49, 100
3, 27600, Note_on_c, 0, 49, 0
3, 27600, Note_on_c, 0, 52, 0
3, 27600, Note_on_c, 0, 53, 100
3, 27600, Note_on_c, 0, 50, 100
3, 27720, Note_on_c, 0, 50, 0
3, 27720, Note_on_c, 0, 53, 0
3, 27720, Note_on_c, 0, 55, 100
3, 27720, Note_on_c, 0, 52, 100
3, 27840, Note_on_c, 0, 52, 0
3, 27840, Note_on_c, 0, 55, 0
3, 27840, Note_on_c, 0, 57, 100
3, 27840, Note_on_c, 0, 53, 100
3, 28080, Note_on_c, 0, 57, 0
3, 28080, Note_on_c, 0, 59, 100
3, 28140, Note_on_c, 0, 53, 0
3, 28140, Note_on_c, 0, 55, 100
3, 28200, Note_on_c, 0, 55, 0
3, 28200, Note_on_c, 0, 59, 0
3, 28200, Note_on_c, 0, 61, 100
3, 28200, Note_on_c, 0, 53, 100
3, 28260, Note_on_c, 0, 53, 0
3, 28260, Note_on_c, 0, 52, 100
3, 28320, Note_on_c, 0, 52, 0
3, 28320, Note_on_c, 0, 61, 0
3, 28320, Note_on_c, 0, 62, 100
3, 28320, Note_on_c, 0, 50, 100
3, 28440, Note_on_c, 0, 62, 0
3, 28620, Note_on_c, 0, 50, 0
3, 28620, Note_on_c, 0, 51, 100
3, 28680, Note_on_c, 0, 51, 0
3, 28680, Note_on_c, 0, 54, 100
3, 28680, Note_on_c, 0, 50, 100
3, 28740, Note_on_c, 0, 50, 0
3, 28740, Note_on_c, 0, 48, 100
3, 28800, Note_on_c, 0, 48, 0
3, 28800, Note_on_c, 0, 54, 0
3, 28800, Note_on_c, 0, 55, 100
3, 28800, Note_on_c, 0, 46, 100
3, 28860, Note_on_c, 0, 55, 0
3, 28860, Note_on_c, 0, 57, 100
3, 28920, Note_on_c, 0, 57, 0
3, 28920, Note_on_c, 0, 58, 100
3, 29040, Note_on_c, 0, 58, 0
3, 29100, Note_on_c, 0, 46, 0
3, 29100, Note_on_c, 0, 48, 100
3, 29160, Note_on_c, 0, 48, 0
3, 29160, Note_on_c, 0, 60, 100
3, 29160, Note_on_c, 0, 46, 100
3, 29220, Note_on_c, 0, 46, 0
3, 29220, Note_on_c, 0, 45, 100
3, 29280, Note_on_c, 0, 45, 0
3, 29280, Note_on_c, 0, 60, 0
3, 29280, Note_on_c, 0, 62, 100
3, 29280, Note_on_c, 0, 43, 100
3, 29520, Note_on_c, 0, 62, 0
3, 29580, Note_on_c, 0, 55, 100
3, 29640, Note_on_c, 0, 43, 0
3, 29640, Note_on_c, 0, 43, 100
3, 29700, Note_on_c, 0, 55, 0
3, 29700, Note_on_c, 0, 53, 100
3, 29760, Note_on_c, 0, 53, 0
3, 29760, Note_on_c, 0, 52, 100
3, 30000, Note_on_c, 0, 52, 0
3, 30360, Note_on_c, 0, 53, 100
3, 30420, Note_on_c, 0, 53, 0
3, 30420, Note_on_c, 0, 50, 100
3, 30480, Note_on_c, 0, 50, 0
3, 30480, Note_on_c, 0, 55, 100
3, 30660, Note_on_c, 0, 55, 0
3, 30660, Note_on_c, 0, 49, 100
3, 30720, Note_on_c, 0, 49, 0
3, 30720, Note_on_c, 0, 53, 100
3, 30900, Note_on_c, 0, 53, 0
3, 30900, Note_on_c, 0, 50, 100
3, 30960, Note_on_c, 0, 50, 0
3, 30960, Note_on_c, 0, 57, 100
3, 31080, Note_on_c, 0, 43, 0
3, 31080, Note_on_c, 0, 45, 100
3, 31200, Note_on_c, 0, 45, 0
3, 31200, Note_on_c, 0, 57, 0
3, 31200, Note_on_c, 0, 50, 100
3, 31200, Note_on_c, 0, 46, 100
3, 31320, Note_on_c, 0, 50, 0
3, 31320, Note_on_c, 0, 62, 100
3, 31380, Note_on_c, 0, 46, 0
3, 31380, Note_on_c, 0, 43, 100
3, 31440, Note_on_c, 0, 43, 0
3, 31440, Note_on_c, 0, 50, 100
3, 31560, Note_on_c, 0, 62, 0
3, 31560, Note_on_c, 0, 57, 100
3, 31620, Note_on_c, 0, 57, 0
3, 31620, Note_on_c, 0, 53, 100
3, 31680, Note_on_c, 0, 53, 0
3, 31680, Note_on_c, 0, 58, 100
3, 31740, Note_on_c, 0, 50, 0
3, 31740, Note_on_c, 0, 46, 100
3, 31800, Note_on_c, 0, 46, 0
3, 31800, Note_on_c, 0, 48, 100
3, 31920, Note_on_c, 0, 48, 0
3, 31920, Note_on_c, 0, 53, 100
3, 31980, Note_on_c, 0, 58, 0
3, 31980, Note_on_c, 0, 56, 100
3, 32040, Note_on_c, 0, 56, 0
3, 32040, Note_on_c, 0, 57, 100
3, 32160, Note_on_c, 0, 57, 0
3, 32160, Note_on_c, 0, 62, 100
3, 32220, Note_on_c, 0, 53, 0
3, 32220, Note_on_c, 0, 50, 100
3, 32280, Note_on_c, 0, 50, 0
3, 32280, Note_on_c, 0, 52, 100
3, 32400, Note_on_c, 0, 52, 0
3, 32400, Note_on_c, 0, 57, 100
3, 32460, Note_on_c, 0, 62, 0
3, 32460, Note_on_c, 0, 59, 100
3, 32520, Note_on_c, 0, 59, 0
3, 32520, Note_on_c, 0, 60, 100
3, 32640, Note_on_c, 0, 60, 0
3, 32640, Note_on_c, 0, 65, 100
3, 32700, Note_on_c, 0, 57, 0
3, 32700, Note_on_c, 0, 53, 100
3, 32760, Note_on_c, 0, 53, 0
3, 32760, Note_on_c, 0, 55, 100
3, 32880, Note_on_c, 0, 55, 0
3, 32880, Note_on_c, 0, 60, 100
3, 32940, Note_on_c, 0, 65, 0
3, 32940, Note_on_c, 0, 62, 100
3, 33000, Note_on_c, 0, 62, 0
3, 33000, Note_on_c, 0, 63, 100
3, 33120, Note_on_c, 0, 63, 0
3, 33120, Note_on_c, 0, 62, 100
3, 33180, Note_on_c, 0, 60, 0
3, 33180, Note_on_c, 0, 57, 100
3, 33240, Note_on_c, 0, 57, 0
3, 33240, Note_on_c, 0, 58, 100
3, 33360, Note_on_c, 0, 62, 0
3, 33360, Note_on_c, 0, 64, 100
3, 33480, Note_on_c, 0, 64, 0
3, 33480, Note_on_c, 0, 58, 0
3, 33840, Note_on_c, 0, 65, 100
3, 33840, Note_on_c, 0, 57, 100
3, 33960, Note_on_c, 0, 57, 0
3, 33960, Note_on_c, 0, 65, 0
3, 34320, Note_on_c, 0, 65, 100
3, 34320, Note_on_c, 0, 56, 100
3, 34560, Note_on_c, 0, 56, 0
3, 34560, Note_on_c, 0, 57, 100
3, 34680, Note_on_c, 0, 65, 0
3, 34680, Note_on_c, 0, 64, 100
3, 34740, Note_on_c, 0, 64, 0
3, 34740, Note_on_c, 0, 62, 100
3, 34800, Note_on_c, 0, 62, 0
3, 34800, Note_on_c, 0, 64, 100
3, 34920, Note_on_c, 0, 64, 0
3, 34920, Note_on_c, 0, 57, 0
3, 34920, Note_on_c, 0, 45, 100
3, 35040, Note_on_c, 0, 45, 0
3, 35040, Note_on_c, 0, 57, 100
3, 35040, Note_on_c, 0, 50, 100
3, 35280, Note_on_c, 0, 57, 0
3, 35280, Note_on_c, 0, 62, 100
3, 35520, Note_on_c, 0, 62, 0
3, 35520, Note_on_c, 0, 58, 100
3, 35760, Note_on_c, 0, 58, 0
3, 35760, Note_on_c, 0, 55, 100
3, 36000, Note_on_c, 0, 55, 0
3, 36000, Note_on_c, 0, 54, 100
3, 36240, Note_on_c, 0, 54, 0
3, 36240, Note_on_c, 0, 55, 100
3, 36360, Note_on_c, 0, 55, 0
3, 36360, Note_on_c, 0, 57, 100
3, 36480, Note_on_c, 0, 57, 0
3, 36480, Note_on_c, 0, 58, 100
3, 36780, Note_on_c, 0, 58, 0
3, 36780, Note_on_c, 0, 62, 100
3, 36840, Note_on_c, 0, 62, 0
3, 36840, Note_on_c, 0, 60, 100
3, 36900, Note_on_c, 0, 60, 0
3, 36900, Note_on_c, 0, 58, 100
3, 36960, Note_on_c, 0, 58, 0
3, 36960, Note_on_c, 0, 57, 100
3, 37080, Note_on_c, 0, 57, 0
3, 37080, Note_on_c, 0, 57, 100
3, 37440, Note_on_c, 0, 57, 0
3, 37440, Note_on_c, 0, 50, 0
3, 37920, Note_on_c, 0, 50, 100
3, 38160, Note_on_c, 0, 50, 0
3, 38160, Note_on_c, 0, 57, 100
3, 38400, Note_on_c, 0, 57, 0
3, 38400, Note_on_c, 0, 53, 100
3, 38640, Note_on_c, 0, 53, 0
3, 38640, Note_on_c, 0, 50, 100
3, 38880, Note_on_c, 0, 50, 0
3, 38880, Note_on_c, 0, 49, 100
3, 39120, Note_on_c, 0, 49, 0
3, 39120, Note_on_c, 0, 50, 100
3, 39240, Note_on_c, 0, 50, 0
3, 39240, Note_on_c, 0, 52, 100
3, 39360, Note_on_c, 0, 52, 0
3, 39360, Note_on_c, 0, 53, 100
3, 39690, Note_on_c, 0, 53, 0
3, 39690, Note_on_c, 0, 55, 100
3, 39720, Note_on_c, 0, 55, 0
3, 39720, Note_on_c, 0, 53, 100
3, 39810, Note_on_c, 0, 53, 0
3, 39810, Note_on_c, 0, 52, 100
3, 39840, Note_on_c, 0, 52, 0
3, 39840, Note_on_c, 0, 57, 100
3, 39840, Note_on_c, 0, 50, 100
3, 39930, Note_on_c, 0, 50, 0
3, 39930, Note_on_c, 0, 52, 100
3, 39960, Note_on_c, 0, 52, 0
3, 39960, Note_on_c, 0, 50, 100
3, 40050, Note_on_c, 0, 50, 0
3, 40050, Note_on_c, 0, 48, 100
3, 40080, Note_on_c, 0, 57, 0
3, 40080, Note_on_c, 0, 62, 100
3, 40170, Note_on_c, 0, 48, 0
3, 40170, Note_on_c, 0, 50, 100
3, 40200, Note_on_c, 0, 50, 0
3, 40200, Note_on_c, 0, 48, 100
3, 40290, Note_on_c, 0, 48, 0
3, 40290, Note_on_c, 0, 47, 100
3, 40320, Note_on_c, 0, 62, 0
3, 40320, Note_on_c, 0, 60, 100
3, 40410, Note_on_c, 0, 47, 0
3, 40410, Note_on_c, 0, 45, 100
3, 40440, Note_on_c, 0, 45, 0
3, 40440, Note_on_c, 0, 47, 100
3, 40530, Note_on_c, 0, 47, 0
3, 40530, Note_on_c, 0, 48, 100
3, 40560, Note_on_c, 0, 48, 0
3, 40560, Note_on_c, 0, 60, 0
3, 40560, Note_on_c, 0, 57, 100
3, 40560, Note_on_c, 0, 50, 100
3, 40650, Note_on_c, 0, 50, 0
3, 40650, Note_on_c, 0, 52, 100
3, 40680, Note_on_c, 0, 52, 0
3, 40680, Note_on_c, 0, 53, 100
3, 40770, Note_on_c, 0, 53, 0
3, 40770, Note_on_c, 0, 50, 100
3, 40800, Note_on_c, 0, 50, 0
3, 40800, Note_on_c, 0, 57, 0
3, 40800, Note_on_c, 0, 56, 100
3, 40800, Note_on_c, 0, 52, 100
3, 40890, Note_on_c, 0, 52, 0
3, 40890, Note_on_c, 0, 53, 100
3, 40920, Note_on_c, 0, 53, 0
3, 40920, Note_on_c, 0, 52, 100
3, 41010, Note_on_c, 0, 52, 0
3, 41010, Note_on_c, 0, 50, 100
3, 41040, Note_on_c, 0, 50, 0
3, 41040, Note_on_c, 0, 56, 0
3, 41040, Note_on_c, 0, 57, 100
3, 41040, Note_on_c, 0, 48, 100
3, 41130, Note_on_c, 0, 48, 0
3, 41130, Note_on_c, 0, 47, 100
3, 41160, Note_on_c, 0, 47, 0
3, 41160, Note_on_c, 0, 57, 0
3, 41160, Note_on_c, 0, 59, 100
3, 41160, Note_on_c, 0, 45, 100
3, 41250, Note_on_c, 0, 45, 0
3, 41250, Note_on_c, 0, 44, 100
3, 41280, Note_on_c, 0, 44, 0
3, 41280, Note_on_c, 0, 59, 0
3, 41280, Note_on_c, 0, 60, 100
3, 41280, Note_on_c, 0, 45, 100
3, 41370, Note_on_c, 0, 45, 0
3, 41370, Note_on_c, 0, 57, 100
3, 41400, Note_on_c, 0, 57, 0
3, 41400, Note_on_c, 0, 56, 100
3, 41490, Note_on_c, 0, 56, 0
3, 41490, Note_on_c, 0, 57, 100
3, 41520, Note_on_c, 0, 57, 0
3, 41520, Note_on_c, 0, 50, 100
3, 41610, Note_on_c, 0, 60, 0
3, 41610, Note_on_c, 0, 62, 100
3, 41640, Note_on_c, 0, 62, 0
3, 41640, Note_on_c, 0, 50, 0
3, 41640, Note_on_c, 0, 60, 100
3, 41640, Note_on_c, 0, 55, 100
3, 41730, Note_on_c, 0, 60, 0
3, 41730, Note_on_c, 0, 58, 100
3, 41760, Note_on_c, 0, 58, 0
3, 41760, Note_on_c, 0, 57, 100
3, 41850, Note_on_c, 0, 55, 0
3, 41850, Note_on_c, 0, 53, 100
3, 41880, Note_on_c, 0, 53, 0
3, 41880, Note_on_c, 0, 52, 100
3, 41970, Note_on_c, 0, 52, 0
3, 41970, Note_on_c, 0, 50, 100
3, 42000, Note_on_c, 0, 50, 0
3, 42000, Note_on_c, 0, 49, 100
3, 42090, Note_on_c, 0, 57, 0
3, 42090, Note_on_c, 0, 67, 100
3, 42120, Note_on_c, 0, 67, 0
3, 42120, Note_on_c, 0, 65, 100
3, 42210, Note_on_c, 0, 65, 0
3, 42210, Note_on_c, 0, 64, 100
3, 42240, Note_on_c, 0, 64, 0
3, 42240, Note_on_c, 0, 49, 0
3, 42240, Note_on_c, 0, 62, 100
3, 42240, Note_on_c, 0, 50, 100
3, 42330, Note_on_c, 0, 62, 0
3, 42330, Note_on_c, 0, 60, 100
3, 42360, Note_on_c, 0, 60, 0
3, 42360, Note_on_c, 0, 50, 0
3, 42360, Note_on_c, 0, 58, 100
3, 42360, Note_on_c, 0, 38, 100
3, 42450, Note_on_c, 0, 58, 0
3, 42450, Note_on_c, 0, 57, 100
3, 42480, Note_on_c, 0, 57, 0
3, 42480, Note_on_c, 0, 38, 0
3, 42480, Note_on_c, 0, 58, 100
3, 42480, Note_on_c, 0, 43, 100
3, 42570, Note_on_c, 0, 43, 0
3, 42570, Note_on_c, 0, 58, 0
3, 42570, Note_on_c, 0, 57, 100
3, 42570, Note_on_c, 0, 45, 100
3, 42600, Note_on_c, 0, 45, 0
3, 42600, Note_on_c, 0, 57, 0
3, 42600, Note_on_c, 0, 55, 100
3, 42600, Note_on_c, 0, 46, 100
3, 42690, Note_on_c, 0, 55, 0
3, 42690, Note_on_c, 0, 53, 100
3, 42720, Note_on_c, 0, 53, 0
3, 42720, Note_on_c, 0, 52, 100
3, 42810, Note_on_c, 0, 46, 0
3, 42810, Note_on_c, 0, 46, 100
3, 42840, Note_on_c, 0, 46, 0
3, 42840, Note_on_c, 0, 45, 100
3, 42930, Note_on_c, 0, 45, 0
3, 42930, Note_on_c, 0, 43, 100
3, 42960, Note_on_c, 0, 43, 0
3, 42960, Note_on_c, 0, 52, 0
3, 42960, Note_on_c, 0, 41, 100
3, 43050, Note_on_c, 0, 57, 100
3, 43080, Note_on_c, 0, 57, 0
3, 43080, Note_on_c, 0, 41, 0
3, 43080, Note_on_c, 0, 59, 100
3, 43080, Note_on_c, 0, 40, 100
3, 43170, Note_on_c, 0, 59, 0
3, 43170, Note_on_c, 0, 61, 100
3, 43200, Note_on_c, 0, 61, 0
3, 43200, Note_on_c, 0, 40, 0
3, 43200, Note_on_c, 0, 62, 100
3, 43200, Note_on_c, 0, 38, 100
3, 43290, Note_on_c, 0, 38, 0
3, 43290, Note_on_c, 0, 50, 100
3, 43320, Note_on_c, 0, 50, 0
3, 43320, Note_on_c, 0, 52, 100
3, 43410, Note_on_c, 0, 52, 0
3, 43410, Note_on_c, 0, 53, 100
3, 43440, Note_on_c, 0, 53, 0
3, 43440, Note_on_c, 0, 55, 100
3, 43530, Note_on_c, 0, 55, 0
3, 43530, Note_on_c, 0, 58, 100
3, 43560, Note_on_c, 0, 58, 0
3, 43560, Note_on_c, 0, 62, 0
3, 43560, Note_on_c, 0, 61, 100
3, 43560, Note_on_c, 0, 57, 100
3, 43650, Note_on_c, 0, 57, 0
3, 43650, Note_on_c, 0, 55, 100
3, 43680, Note_on_c, 0, 55, 0
3, 43680, Note_on_c, 0, 61, 0
3, 43680, Note_on_c, 0, 62, 100
3, 43680, Note_on_c, 0, 53, 100
3, 43770, Note_on_c, 0, 53, 0
3, 43770, Note_on_c, 0, 55, 100
3, 43800, Note_on_c, 0, 55, 0
3, 43800, Note_on_c, 0, 53, 100
3, 43860, Note_on_c, 0, 62, 0
3, 43890, Note_on_c, 0, 53, 0
3, 43890, Note_on_c, 0, 64, 100
3, 43890, Note_on_c, 0, 52, 100
3, 43920, Note_on_c, 0, 52, 0
3, 43920, Note_on_c, 0, 64, 0
3, 43920, Note_on_c, 0, 65, 100
3, 43920, Note_on_c, 0, 50, 100
3, 44010, Note_on_c, 0, 50, 0
3, 44010, Note_on_c, 0, 52, 100
3, 44040, Note_on_c, 0, 52, 0
3, 44040, Note_on_c, 0, 53, 100
3, 44130, Note_on_c, 0, 53, 0
3, 44130, Note_on_c, 0, 55, 100
3, 44160, Note_on_c, 0, 55, 0
3, 44160, Note_on_c, 0, 65, 0
3, 44160, Note_on_c, 0, 64, 100
3, 44160, Note_on_c, 0, 57, 100
3, 44280, Note_on_c, 0, 64, 0
3, 44280, Note_on_c, 0, 60, 100
3, 44400, Note_on_c, 0, 57, 0
3, 44400, Note_on_c, 0, 53, 100
3, 44520, Note_on_c, 0, 60, 0
3, 44520, Note_on_c, 0, 57, 100
3, 44640, Note_on_c, 0, 57, 0
3, 44640, Note_on_c, 0, 59, 100
3, 44730, Note_on_c, 0, 53, 0
3, 44730, Note_on_c, 0, 53, 100
3, 44760, Note_on_c, 0, 53, 0
3, 44760, Note_on_c, 0, 52, 100
3, 44850, Note_on_c, 0, 52, 0
3, 44850, Note_on_c, 0, 50, 100
3, 44880, Note_on_c, 0, 50, 0
3, 44880, Note_on_c, 0, 59, 0
3, 44880, Note_on_c, 0, 48, 100
3, 44970, Note_on_c, 0, 52, 100
3, 45000, Note_on_c, 0, 52, 0
3, 45000, Note_on_c, 0, 48, 0
3, 45000, Note_on_c, 0, 54, 100
3, 45000, Note_on_c, 0, 47, 100
3, 45090, Note_on_c, 0, 54, 0
3, 45090, Note_on_c, 0, 56, 100
3, 45120, Note_on_c, 0, 56, 0
3, 45120, Note_on_c, 0, 47, 0
3, 45120, Note_on_c, 0, 57, 100
3, 45210, Note_on_c, 0, 45, 100
3, 45240, Note_on_c, 0, 45, 0
3, 45240, Note_on_c, 0, 47, 100
3, 45330, Note_on_c, 0, 47, 0
3, 45330, Note_on_c, 0, 48, 100
3, 45360, Note_on_c, 0, 48, 0
3, 45360, Note_on_c, 0, 50, 100
3, 45480, Note_on_c, 0, 50, 0
3, 45480, Note_on_c, 0, 57, 0
3, 45480, Note_on_c, 0, 56, 100
3, 45480, Note_on_c, 0, 52, 100
3, 45600, Note_on_c, 0, 52, 0
3, 45600, Note_on_c, 0, 56, 0
3, 45600, Note_on_c, 0, 57, 100
3, 45600, Note_on_c, 0, 53, 100
3, 45720, Note_on_c, 0, 57, 0
3, 45720, Note_on_c, 0, 59, 100
3, 45810, Note_on_c, 0, 59, 0
3, 45810, Note_on_c, 0, 61, 100
3, 45840, Note_on_c, 0, 61, 0
3, 45840, Note_on_c, 0, 62, 100
3, 45930, Note_on_c, 0, 53, 0
3, 45930, Note_on_c, 0, 52, 100
3, 45960, Note_on_c, 0, 52, 0
3, 45960, Note_on_c, 0, 62, 0
3, 45960, Note_on_c, 0, 55, 100
3, 45960, Note_on_c, 0, 50, 100
3, 46050, Note_on_c, 0, 50, 0
3, 46050, Note_on_c, 0, 49, 100
3, 46080, Note_on_c, 0, 49, 0
3, 46080, Note_on_c, 0, 50, 100
3, 46170, Note_on_c, 0, 55, 0
3, 46170, Note_on_c, 0, 55, 100
3, 46200, Note_on_c, 0, 55, 0
3, 46200, Note_on_c, 0, 53, 100
3, 46290, Note_on_c, 0, 53, 0
3, 46290, Note_on_c, 0, 52, 100
3, 46320, Note_on_c, 0, 52, 0
3, 46320, Note_on_c, 0, 50, 0
3, 46320, Note_on_c, 0, 53, 100
3, 46320, Note_on_c, 0, 50, 100
3, 46410, Note_on_c, 0, 50, 0
3, 46410, Note_on_c, 0, 48, 100
3, 46440, Note_on_c, 0, 48, 0
3, 46440, Note_on_c, 0, 53, 0
3, 46440, Note_on_c, 0, 54, 100
3, 46440, Note_on_c, 0, 46, 100
3, 46530, Note_on_c, 0, 46, 0
3, 46530, Note_on_c, 0, 45, 100
3, 46560, Note_on_c, 0, 45, 0
3, 46560, Note_on_c, 0, 46, 100
3, 46650, Note_on_c, 0, 54, 0
3, 46650, Note_on_c, 0, 50, 100
3, 46680, Note_on_c, 0, 50, 0
3, 46680, Note_on_c, 0, 52, 100
3, 46770, Note_on_c, 0, 52, 0
3, 46770, Note_on_c, 0, 54, 100
3, 46800, Note_on_c, 0, 54, 0
3, 46800, Note_on_c, 0, 55, 100
3, 46890, Note_on_c, 0, 46, 0
3, 46890, Note_on_c, 0, 45, 100
3, 46920, Note_on_c, 0, 45, 0
3, 46920, Note_on_c, 0, 55, 0
3, 46920, Note_on_c, 0, 48, 100
3, 46920, Note_on_c, 0, 43, 100
3, 47010, Note_on_c, 0, 43, 0
3, 47010, Note_on_c, 0, 42, 100
3, 47040, Note_on_c, 0, 42, 0
3, 47040, Note_on_c, 0, 43, 100
3, 47130, Note_on_c, 0, 48, 0
3, 47130, Note_on_c, 0, 45, 100
3, 47160, Note_on_c, 0, 45, 0
3, 47160, Note_on_c, 0, 46, 100
3, 47250, Note_on_c, 0, 46, 0
3, 47250, Note_on_c, 0, 48, 100
3, 47280, Note_on_c, 0, 48, 0
3, 47280, Note_on_c, 0, 50, 100
3, 47370, Note_on_c, 0, 50, 0
3, 47370, Note_on_c, 0, 49, 100
3, 47400, Note_on_c, 0, 49, 0
3, 47400, Note_on_c, 0, 50, 100
3, 47490, Note_on_c, 0, 43, 0
3, 47490, Note_on_c, 0, 41, 100
3, 47520, Note_on_c, 0, 41, 0
3, 47520, Note_on_c, 0, 50, 0
3, 47520, Note_on_c, 0, 52, 100
3, 47520, Note_on_c, 0, 40, 100
3, 47640, Note_on_c, 0, 52, 0
3, 48240, Note_on_c, 0, 40, 0
3, 48240, Note_on_c, 0, 56, 100
3, 48240, Note_on_c, 0, 52, 100
3, 48480, Note_on_c, 0, 52, 0
3, 48480, Note_on_c, 0, 56, 0
3, 48480, Note_on_c, 0, 52, 100
3, 48480, Note_on_c, 0, 45, 100
3, 48600, Note_on_c, 0, 45, 0
3, 48600, Note_on_c, 0, 52, 0
3, 48810, Note_on_c, 0, 57, 100
3, 48840, Note_on_c, 0, 57, 0
3, 48840, Note_on_c, 0, 59, 100
3, 48930, Note_on_c, 0, 59, 0
3, 48930, Note_on_c, 0, 61, 100
3, 48960, Note_on_c, 0, 61, 0
3, 48960, Note_on_c, 0, 62, 100
3, 49050, Note_on_c, 0, 50, 100
3, 49080, Note_on_c, 0, 50, 0
3, 49080, Note_on_c, 0, 62, 0
3, 49080, Note_on_c, 0, 60, 100
3, 49080, Note_on_c, 0, 52, 100
3, 49170, Note_on_c, 0, 52, 0
3, 49170, Note_on_c, 0, 53, 100
3, 49200, Note_on_c, 0, 53, 0
3, 49200, Note_on_c, 0, 55, 100
3, 49290, Note_on_c, 0, 55, 0
3, 49290, Note_on_c, 0, 57, 100
3, 49320, Note_on_c, 0, 57, 0
3, 49320, Note_on_c, 0, 60, 0
3, 49320, Note_on_c, 0, 58, 100
3, 49320, Note_on_c, 0, 55, 100
3, 49410, Note_on_c, 0, 55, 0
3, 49410, Note_on_c, 0, 53, 100
3, 49440, Note_on_c, 0, 53, 0
3, 49440, Note_on_c, 0, 52, 100
3, 49530, Note_on_c, 0, 52, 0
3, 49530, Note_on_c, 0, 58, 0
3, 49530, Note_on_c, 0, 55, 100
3, 49530, Note_on_c, 0, 58, 100
3, 49560, Note_on_c, 0, 58, 0
3, 49560, Note_on_c, 0, 55, 0
3, 49560, Note_on_c, 0, 53, 100
3, 49560, Note_on_c, 0, 57, 100
3, 49650, Note_on_c, 0, 57, 0
3, 49650, Note_on_c, 0, 53, 0
3, 49650, Note_on_c, 0, 52, 100
3, 49650, Note_on_c, 0, 55, 100
3, 49680, Note_on_c, 0, 55, 0
3, 49680, Note_on_c, 0, 52, 0
3, 49680, Note_on_c, 0, 57, 100
3, 49680, Note_on_c, 0, 53, 100
3, 49770, Note_on_c, 0, 53, 0
3, 49770, Note_on_c, 0, 52, 100
3, 49800, Note_on_c, 0, 52, 0
3, 49800, Note_on_c, 0, 50, 100
3, 49890, Note_on_c, 0, 50, 0
3, 49890, Note_on_c, 0, 49, 100
3, 49920, Note_on_c, 0, 49, 0
3, 49920, Note_on_c, 0, 50, 100
3, 50010, Note_on_c, 0, 57, 0
3, 50010, Note_on_c, 0, 62, 100
3, 50040, Note_on_c, 0, 62, 0
3, 50040, Note_on_c, 0, 50, 0
3, 50040, Note_on_c, 0, 61, 100
3, 50040, Note_on_c, 0, 53, 100
3, 50130, Note_on_c, 0, 61, 0
3, 50130, Note_on_c, 0, 62, 100
3, 50160, Note_on_c, 0, 62, 0
3, 50160, Note_on_c, 0, 53, 0
3, 50160, Note_on_c, 0, 56, 100
3, 50160, Note_on_c, 0, 47, 100
3, 50280, Note_on_c, 0, 47, 0
3, 50280, Note_on_c, 0, 56, 0
3, 50280, Note_on_c, 0, 59, 100
3, 50280, Note_on_c, 0, 52, 100
3, 50400, Note_on_c, 0, 52, 0
3, 50400, Note_on_c, 0, 45, 100
3, 50490, Note_on_c, 0, 59, 0
3, 50490, Note_on_c, 0, 52, 100
3, 50520, Note_on_c, 0, 52, 0
3, 50520, Note_on_c, 0, 57, 100
3, 50610, Note_on_c, 0, 57, 0
3, 50610, Note_on_c, 0, 55, 100
3, 50640, Note_on_c, 0, 55, 0
3, 50640, Note_on_c, 0, 45, 0
3, 50640, Note_on_c, 0, 53, 100
3, 50640, Note_on_c, 0, 50, 100
3, 50970, Note_on_c, 0, 50, 0
3, 50970, Note_on_c, 0, 47, 100
3, 51000, Note_on_c, 0, 47, 0
3, 51000, Note_on_c, 0, 53, 0
3, 51000, Note_on_c, 0, 52, 100
3, 51000, Note_on_c, 0, 52, 100
3, 51090, Note_on_c, 0, 52, 0
3, 51090, Note_on_c, 0, 50, 100
3, 51120, Note_on_c, 0, 50, 0
3, 51120, Note_on_c, 0, 52, 0
3, 51120, Note_on_c, 0, 48, 100
3, 51240, Note_on_c, 0, 48, 0
3, 51240, Note_on_c, 0, 47, 100
3, 51360, Note_on_c, 0, 47, 0
3, 51360, Note_on_c, 0, 45, 100
3, 51450, Note_on_c, 0, 67, 100
3, 51480, Note_on_c, 0, 67, 0
3, 51480, Note_on_c, 0, 45, 0
3, 51480, Note_on_c, 0, 65, 100
3, 51570, Note_on_c, 0, 65, 0
3, 51570, Note_on_c, 0, 64, 100
3, 51600, Note_on_c, 0, 64, 0
3, 51600, Note_on_c, 0, 63, 100
3, 51720, Note_on_c, 0, 63, 0
3, 51720, Note_on_c, 0, 64, 100
3, 51840, Note_on_c, 0, 64, 0
3, 51840, Note_on_c, 0, 57, 100
3, 52080, Note_on_c, 0, 57, 0
3, 52080, Note_on_c, 0, 59, 100
3, 52200, Note_on_c, 0, 59, 0
3, 52200, Note_on_c, 0, 61, 100
3, 52320, Note_on_c, 0, 61, 0
3, 52320, Note_on_c, 0, 62, 100
3, 52320, Note_on_c, 0, 50, 100
3, 52560, Note_on_c, 0, 50, 0
3, 52560, Note_on_c, 0, 62, 0
3, 52560, Note_on_c, 0, 57, 100
3, 52800, Note_on_c, 0, 57, 0
3, 52800, Note_on_c, 0, 53, 100
3, 52890, Note_on_c, 0, 57, 100
3, 52920, Note_on_c, 0, 57, 0
3, 52920, Note_on_c, 0, 59, 100
3, 53010, Note_on_c, 0, 59, 0
3, 53010, Note_on_c, 0, 61, 100
3, 53040, Note_on_c, 0, 61, 0
3, 53040, Note_on_c, 0, 53, 0
3, 53040, Note_on_c, 0, 62, 100
3, 53040, Note_on_c, 0, 50, 100
3, 53130, Note_on_c, 0, 62, 0
3, 53130, Note_on_c, 0, 64, 100
3, 53160, Note_on_c, 0, 64, 0
3, 53160, Note_on_c, 0, 65, 100
3, 53250, Note_on_c, 0, 65, 0
3, 53250, Note_on_c, 0, 62, 100
3, 53280, Note_on_c, 0, 62, 0
3, 53280, Note_on_c, 0, 50, 0
3, 53280, Note_on_c, 0, 64, 100
3, 53280, Note_on_c, 0, 49, 100
3, 53400, Note_on_c, 0, 64, 0
3, 53400, Note_on_c, 0, 52, 100
3, 53520, Note_on_c, 0, 52, 0
3, 53520, Note_on_c, 0, 49, 0
3, 53520, Note_on_c, 0, 53, 100
3, 53520, Note_on_c, 0, 50, 100
3, 53640, Note_on_c, 0, 50, 0
3, 53640, Note_on_c, 0, 53, 0
3, 53640, Note_on_c, 0, 55, 100
3, 53640, Note_on_c, 0, 52, 100
3, 53760, Note_on_c, 0, 52, 0
3, 53760, Note_on_c, 0, 55, 0
3, 53760, Note_on_c, 0, 57, 100
3, 53760, Note_on_c, 0, 53, 100
3, 53880, Note_on_c, 0, 57, 0
3, 54090, Note_on_c, 0, 53, 0
3, 54090, Note_on_c, 0, 55, 100
3, 54120, Note_on_c, 0, 55, 0
3, 54120, Note_on_c, 0, 53, 100
3, 54210, Note_on_c, 0, 53, 0
3, 54210, Note_on_c, 0, 52, 100
3, 54240, Note_on_c, 0, 52, 0
3, 54240, Note_on_c, 0, 50, 100
3, 54360, Note_on_c, 0, 50, 0
3, 54360, Note_on_c, 0, 62, 100
3, 54570, Note_on_c, 0, 62, 0
3, 54570, Note_on_c, 0, 60, 100
3, 54600, Note_on_c, 0, 60, 0
3, 54600, Note_on_c, 0, 58, 100
3, 54690, Note_on_c, 0, 58, 0
3, 54690, Note_on_c, 0, 57, 100
3, 54720, Note_on_c, 0, 57, 0
3, 54720, Note_on_c, 0, 58, 100
3, 54840, Note_on_c, 0, 58, 0
3, 54840, Note_on_c, 0, 59, 100
3, 54840, Note_on_c, 0, 55, 100
3, 54960, Note_on_c, 0, 59, 0
3, 54960, Note_on_c, 0, 61, 100
3, 55050, Note_on_c, 0, 55, 0
3, 55050, Note_on_c, 0, 53, 100
3, 55080, Note_on_c, 0, 53, 0
3, 55080, Note_on_c, 0, 61, 0
3, 55080, Note_on_c, 0, 62, 100
3, 55080, Note_on_c, 0, 52, 100
3, 55170, Note_on_c, 0, 52, 0
3, 55170, Note_on_c, 0, 50, 100
3, 55200, Note_on_c, 0, 50, 0
3, 55200, Note_on_c, 0, 52, 100
3, 55290, Note_on_c, 0, 62, 0
3, 55290, Note_on_c, 0, 60, 100
3, 55320, Note_on_c, 0, 60, 0
3, 55320, Note_on_c, 0, 59, 100
3, 55410, Note_on_c, 0, 59, 0
3, 55410, Note_on_c, 0, 57, 100
3, 55440, Note_on_c, 0, 57, 0
3, 55440, Note_on_c, 0, 52, 0
3, 55440, Note_on_c, 0, 59, 100
3, 55560, Note_on_c, 0, 59, 0
3, 55560, Note_on_c, 0, 64, 100
3, 55680, Note_on_c, 0, 64, 0
3, 55680, Note_on_c, 0, 57, 100
3, 55920, Note_on_c, 0, 57, 0
3, 55920, Note_on_c, 0, 62, 100
3, 56160, Note_on_c, 0, 62, 0
3, 56160, Note_on_c, 0, 60, 100
3, 56400, Note_on_c, 0, 60, 0
3, 56400, Note_on_c, 0, 57, 100
3, 56640, Note_on_c, 0, 57, 0
3, 56640, Note_on_c, 0, 56, 100
3, 56730, Note_on_c, 0, 53, 100
3, 56760, Note_on_c, 0, 53, 0
3, 56760, Note_on_c, 0, 52, 100
3, 56850, Note_on_c, 0, 52, 0
3, 56850, Note_on_c, 0, 50, 100
3, 56880, Note_on_c, 0, 50, 0
3, 56880, Note_on_c, 0, 56, 0
3, 56880, Note_on_c, 0, 57, 100
3, 56880, Note_on_c, 0, 48, 100
3, 57000, Note_on_c, 0, 48, 0
3, 57000, Note_on_c, 0, 57, 0
3, 57000, Note_on_c, 0, 59, 100
3, 57000, Note_on_c, 0, 53, 100
3, 57120, Note_on_c, 0, 59, 0
3, 57120, Note_on_c, 0, 60, 100
3, 57240, Note_on_c, 0, 53, 0
3, 57240, Note_on_c, 0, 54, 100
3, 57450, Note_on_c, 0, 60, 0
3, 57450, Note_on_c, 0, 62, 100
3, 57480, Note_on_c, 0, 62, 0
3, 57480, Note_on_c, 0, 54, 0
3, 57480, Note_on_c, 0, 60, 100
3, 57480, Note_on_c, 0, 56, 100
3, 57570, Note_on_c, 0, 60, 0
3, 57570, Note_on_c, 0, 59, 100
3, 57600, Note_on_c, 0, 59, 0
3, 57600, Note_on_c, 0, 56, 0
3, 57600, Note_on_c, 0, 57, 100
3, 57600, Note_on_c, 0, 57, 100
3, 57840, Note_on_c, 0, 57, 0
3, 57930, Note_on_c, 0, 57, 0
3, 57930, Note_on_c, 0, 55, 100
3, 57960, Note_on_c, 0, 55, 0
3, 57960, Note_on_c, 0, 53, 100
3, 58050, Note_on_c, 0, 53, 0
3, 58050, Note_on_c, 0, 52, 100
3, 58080, Note_on_c, 0, 52, 0
3, 58080, Note_on_c, 0, 53, 100
3, 58200, Note_on_c, 0, 53, 0
3, 58200, Note_on_c, 0, 58, 100
3, 58320, Note_on_c, 0, 58, 0
3, 58320, Note_on_c, 0, 52, 100
3, 58440, Note_on_c, 0, 52, 0
3, 58440, Note_on_c, 0, 57, 100
3, 58560, Note_on_c, 0, 57, 0
3, 58560, Note_on_c, 0, 50, 100
3, 58680, Note_on_c, 0, 50, 0
3, 58680, Note_on_c, 0, 52, 100
3, 58770, Note_on_c, 0, 52, 0
3, 58770, Note_on_c, 0, 53, 100
3, 58800, Note_on_c, 0, 53, 0
3, 58800, Note_on_c, 0, 55, 100
3, 58890, Note_on_c, 0, 55, 0
3, 58890, Note_on_c, 0, 57, 100
3, 58920, Note_on_c, 0, 57, 0
3, 58920, Note_on_c, 0, 58, 100
3, 59130, Note_on_c, 0, 58, 0
3, 59130, Note_on_c, 0, 57, 100
3, 59160, Note_on_c, 0, 57, 0
3, 59160, Note_on_c, 0, 55, 100
3, 59250, Note_on_c, 0, 55, 0
3, 59250, Note_on_c, 0, 53, 100
3, 59280, Note_on_c, 0, 53, 0
3, 59280, Note_on_c, 0, 52, 100
3, 59520, Note_on_c, 0, 52, 0
3, 59520, Note_on_c, 0, 53, 100
3, 59640, Note_on_c, 0, 53, 0
3, 59880, Note_on_c, 0, 58, 100
3, 60090, Note_on_c, 0, 58, 0
3, 60090, Note_on_c, 0, 62, 100
3, 60120, Note_on_c, 0, 62, 0
3, 60120, Note_on_c, 0, 60, 100
3, 60210, Note_on_c, 0, 60, 0
3, 60210, Note_on_c, 0, 58, 100
3, 60240, Note_on_c, 0, 58, 0
3, 60240, Note_on_c, 0, 57, 100
3, 60330, Note_on_c, 0, 57, 0
3, 60330, Note_on_c, 0, 55, 100
3, 60360, Note_on_c, 0, 55, 0
3, 60360, Note_on_c, 0, 53, 100
3, 60450, Note_on_c, 0, 53, 0
3, 60450, Note_on_c, 0, 52, 100
3, 60480, Note_on_c, 0, 52, 0
3, 60480, Note_on_c, 0, 53, 100
3, 60570, Note_on_c, 0, 53, 0
3, 60570, Note_on_c, 0, 65, 100
3, 60600, Note_on_c, 0, 65, 0
3, 60600, Note_on_c, 0, 64, 100
3, 60690, Note_on_c, 0, 64, 0
3, 60690, Note_on_c, 0, 65, 100
3, 60720, Note_on_c, 0, 65, 0
3, 60720, Note_on_c, 0, 58, 100
3, 60840, Note_on_c, 0, 58, 0
3, 60840, Note_on_c, 0, 63, 100
3, 61050, Note_on_c, 0, 63, 0
3, 61050, Note_on_c, 0, 63, 100
3, 61080, Note_on_c, 0, 63, 0
3, 61080, Note_on_c, 0, 62, 100
3, 61170, Note_on_c, 0, 62, 0
3, 61170, Note_on_c, 0, 60, 100
3, 61200, Note_on_c, 0, 60, 0
3, 61200, Note_on_c, 0, 58, 100
3, 61290, Note_on_c, 0, 58, 0
3, 61290, Note_on_c, 0, 57, 100
3, 61320, Note_on_c, 0, 57, 0
3, 61320, Note_on_c, 0, 55, 100
3, 61410, Note_on_c, 0, 55, 0
3, 61410, Note_on_c, 0, 54, 100
3, 61440, Note_on_c, 0, 54, 0
3, 61440, Note_on_c, 0, 55, 100
3, 61530, Note_on_c, 0, 55, 0
3, 61530, Note_on_c, 0, 57, 100
3, 61560, Note_on_c, 0, 57, 0
3, 61560, Note_on_c, 0, 58, 100
3, 61800, Note_on_c, 0, 58, 0
3, 61800, Note_on_c, 0, 57, 100
3, 61890, Note_on_c, 0, 57, 0
3, 61890, Note_on_c, 0, 58, 100
3, 61920, Note_on_c, 0, 58, 0
3, 61920, Note_on_c, 0, 60, 100
3, 62010, Note_on_c, 0, 51, 100
3, 62040, Note_on_c, 0, 51, 0
3, 62040, Note_on_c, 0, 60, 0
3, 62040, Note_on_c, 0, 63, 100
3, 62040, Note_on_c, 0, 50, 100
3, 62130, Note_on_c, 0, 50, 0
3, 62130, Note_on_c, 0, 48, 100
3, 62160, Note_on_c, 0, 48, 0
3, 62160, Note_on_c, 0, 63, 0
3, 62160, Note_on_c, 0, 62, 100
3, 62160, Note_on_c, 0, 46, 100
3, 62250, Note_on_c, 0, 46, 0
3, 62250, Note_on_c, 0, 45, 100
3, 62280, Note_on_c, 0, 45, 0
3, 62280, Note_on_c, 0, 43, 100
3, 62370, Note_on_c, 0, 43, 0
3, 62370, Note_on_c, 0, 42, 100
3, 62400, Note_on_c, 0, 42, 0
3, 62400, Note_on_c, 0, 43, 100
3, 62490, Note_on_c, 0, 43, 0
3, 62490, Note_on_c, 0, 55, 100
3, 62520, Note_on_c, 0, 55, 0
3, 62520, Note_on_c, 0, 62, 0
3, 62520, Note_on_c, 0, 62, 100
3, 62520, Note_on_c, 0, 54, 100
3, 62610, Note_on_c, 0, 54, 0
3, 62610, Note_on_c, 0, 55, 100
3, 62640, Note_on_c, 0, 55, 0
3, 62640, Note_on_c, 0, 62, 0
3, 62640, Note_on_c, 0, 64, 100
3, 62640, Note_on_c, 0, 48, 100
3, 62760, Note_on_c, 0, 64, 0
3, 62760, Note_on_c, 0, 65, 100
3, 62970, Note_on_c, 0, 65, 0
3, 62970, Note_on_c, 0, 65, 100
3, 63000, Note_on_c, 0, 65, 0
3, 63000, Note_on_c, 0, 63, 100
3, 63090, Note_on_c, 0, 63, 0
3, 63090, Note_on_c, 0, 62, 100
3, 63120, Note_on_c, 0, 62, 0
3, 63120, Note_on_c, 0, 48, 0
3, 63120, Note_on_c, 0, 60, 100
3, 63120, Note_on_c, 0, 53, 100
3, 63210, Note_on_c, 0, 60, 0
3, 63210, Note_on_c, 0, 58, 100
3, 63240, Note_on_c, 0, 58, 0
3, 63240, Note_on_c, 0, 57, 100
3, 63330, Note_on_c, 0, 57, 0
3, 63330, Note_on_c, 0, 55, 100
3, 63360, Note_on_c, 0, 55, 0
3, 63360, Note_on_c, 0, 53, 0
3, 63360, Note_on_c, 0, 53, 100
3, 63360, Note_on_c, 0, 50, 100
3, 63480, Note_on_c, 0, 53, 0
3, 63600, Note_on_c, 0, 50, 0
3, 63600, Note_on_c, 0, 46, 100
3, 63840, Note_on_c, 0, 46, 0
3, 63840, Note_on_c, 0, 45, 100
3, 63960, Note_on_c, 0, 48, 100
3, 64080, Note_on_c, 0, 48, 0
3, 64080, Note_on_c, 0, 45, 0
3, 64080, Note_on_c, 0, 50, 100
3, 64080, Note_on_c, 0, 46, 100
3, 64200, Note_on_c, 0, 46, 0
3, 64200, Note_on_c, 0, 50, 0
3, 64200, Note_on_c, 0, 51, 100
3, 64200, Note_on_c, 0, 48, 100
3, 64320, Note_on_c, 0, 48, 0
3, 64320, Note_on_c, 0, 51, 0
3, 64320, Note_on_c, 0, 53, 100
3, 64320, Note_on_c, 0, 50, 100
3, 64440, Note_on_c, 0, 53, 0
3, 64440, Note_on_c, 0, 58, 100
3, 64650, Note_on_c, 0, 50, 0
3, 64650, Note_on_c, 0, 51, 100
3, 64680, Note_on_c, 0, 51, 0
3, 64680, Note_on_c, 0, 58, 0
3, 64680, Note_on_c, 0, 63, 100
3, 64680, Note_on_c, 0, 50, 100
3, 64770, Note_on_c, 0, 50, 0
3, 64770, Note_on_c, 0, 48, 100
3, 64800, Note_on_c, 0, 48, 0
3, 64800, Note_on_c, 0, 63, 0
3, 64800, Note_on_c, 0, 65, 100
3, 64800, Note_on_c, 0, 46, 100
3, 64890, Note_on_c, 0, 46, 0
3, 64890, Note_on_c, 0, 58, 100
3, 64920, Note_on_c, 0, 58, 0
3, 64920, Note_on_c, 0, 57, 100
3, 65010, Note_on_c, 0, 57, 0
3, 65010, Note_on_c, 0, 58, 100
3, 65040, Note_on_c, 0, 58, 0
3, 65040, Note_on_c, 0, 65, 0
3, 65040, Note_on_c, 0, 52, 100
3, 65130, Note_on_c, 0, 60, 100
3, 65160, Note_on_c, 0, 60, 0
3, 65160, Note_on_c, 0, 52, 0
3, 65160, Note_on_c, 0, 58, 100
3, 65160, Note_on_c, 0, 54, 100
3, 65250, Note_on_c, 0, 58, 0
3, 65250, Note_on_c, 0, 57, 100
3, 65280, Note_on_c, 0, 57, 0
3, 65280, Note_on_c, 0, 54, 0
3, 65280, Note_on_c, 0, 55, 100
3, 65280, Note_on_c, 0, 55, 100
3, 65400, Note_on_c, 0, 55, 0
3, 65400, Note_on_c, 0, 63, 100
3, 65520, Note_on_c, 0, 63, 0
3, 65520, Note_on_c, 0, 61, 100
3, 65610, Note_on_c, 0, 55, 0
3, 65610, Note_on_c, 0, 53, 100
3, 65640, Note_on_c, 0, 53, 0
3, 65640, Note_on_c, 0, 61, 0
3, 65640, Note_on_c, 0, 62, 100
3, 65640, Note_on_c, 0, 52, 100
3, 65730, Note_on_c, 0, 52, 0
3, 65730, Note_on_c, 0, 50, 100
3, 65760, Note_on_c, 0, 50, 0
3, 65760, Note_on_c, 0, 58, 100
3, 65820, Note_on_c, 0, 62, 0
3, 66240, Note_on_c, 0, 58, 0
3, 66240, Note_on_c, 0, 57, 100
3, 66360, Note_on_c, 0, 57, 0
3, 66360, Note_on_c, 0, 62, 100
3, 66600, Note_on_c, 0, 62, 0
3, 66600, Note_on_c, 0, 61, 100
3, 66720, Note_on_c, 0, 61, 0
3, 66720, Note_on_c, 0, 62, 100
3, 66720, Note_on_c, 0, 50, 100
3, 66960, Note_on_c, 0, 50, 0
3, 66960, Note_on_c, 0, 62, 0
3, 66960, Note_on_c, 0, 64, 100
3, 66960, Note_on_c, 0, 57, 100
3, 67200, Note_on_c, 0, 57, 0
3, 67200, Note_on_c, 0, 64, 0
3, 67200, Note_on_c, 0, 57, 100
3, 67200, Note_on_c, 0, 53, 100
3, 67320, Note_on_c, 0, 57, 0
3, 67320, Note_on_c, 0, 59, 100
3, 67410, Note_on_c, 0, 59, 0
3, 67410, Note_on_c, 0, 61, 100
3, 67440, Note_on_c, 0, 61, 0
3, 67440, Note_on_c, 0, 53, 0
3, 67440, Note_on_c, 0, 62, 100
3, 67440, Note_on_c, 0, 50, 100
3, 67560, Note_on_c, 0, 62, 0
3, 67680, Note_on_c, 0, 50, 0
3, 67680, Note_on_c, 0, 49, 100
3, 67800, Note_on_c, 0, 52, 100
3, 67920, Note_on_c, 0, 52, 0
3, 67920, Note_on_c, 0, 49, 0
3, 67920, Note_on_c, 0, 53, 100
3, 67920, Note_on_c, 0, 50, 100
3, 68040, Note_on_c, 0, 50, 0
3, 68040, Note_on_c, 0, 53, 0
3, 68040, Note_on_c, 0, 55, 100
3, 68040, Note_on_c, 0, 52, 100
3, 68160, Note_on_c, 0, 52, 0
3, 68160, Note_on_c, 0, 55, 0
3, 68160, Note_on_c, 0, 57, 100
3, 68160, Note_on_c, 0, 53, 100
3, 68400, Note_on_c, 0, 57, 0
3, 68490, Note_on_c, 0, 53, 0
3, 68490, Note_on_c, 0, 55, 100
3, 68520, Note_on_c, 0, 55, 0
3, 68520, Note_on_c, 0, 53, 100
3, 68610, Note_on_c, 0, 53, 0
3, 68610, Note_on_c, 0, 52, 100
3, 68640, Note_on_c, 0, 52, 0
3, 68640, Note_on_c, 0, 50, 100
3, 68730, Note_on_c, 0, 57, 100
3, 68760, Note_on_c, 0, 57, 0
3, 68760, Note_on_c, 0, 59, 100
3, 68850, Note_on_c, 0, 59, 0
3, 68850, Note_on_c, 0, 61, 100
3, 68880, Note_on_c, 0, 61, 0
3, 68880, Note_on_c, 0, 62, 100
3, 68970, Note_on_c, 0, 50, 0
3, 68970, Note_on_c, 0, 51, 100
3, 69000, Note_on_c, 0, 51, 0
3, 69000, Note_on_c, 0, 62, 0
3, 69000, Note_on_c, 0, 54, 100
3, 69000, Note_on_c, 0, 50, 100
3, 69090, Note_on_c, 0, 50, 0
3, 69090, Note_on_c, 0, 48, 100
3, 69120, Note_on_c, 0, 48, 0
3, 69120, Note_on_c, 0, 54, 0
3, 69120, Note_on_c, 0, 55, 100
3, 69120, Note_on_c, 0, 46, 100
3, 69240, Note_on_c, 0, 55, 0
3, 69450, Note_on_c, 0, 46, 0
3, 69450, Note_on_c, 0, 48, 100
3, 69480, Note_on_c, 0, 48, 0
3, 69480, Note_on_c, 0, 46, 100
3, 69570, Note_on_c, 0, 46, 0
3, 69570, Note_on_c, 0, 45, 100
3, 69600, Note_on_c, 0, 45, 0
3, 69600, Note_on_c, 0, 43, 100
3, 69690, Note_on_c, 0, 43, 0
3, 69690, Note_on_c, 0, 50, 100
3, 69720, Note_on_c, 0, 50, 0
3, 69720, Note_on_c, 0, 52, 100
3, 69810, Note_on_c, 0, 52, 0
3, 69810, Note_on_c, 0, 54, 100
3, 69840, Note_on_c, 0, 54, 0
3, 69840, Note_on_c, 0, 55, 100
3, 69930, Note_on_c, 0, 55, 0
3, 69930, Note_on_c, 0, 57, 100
3, 69960, Note_on_c, 0, 57, 0
3, 69960, Note_on_c, 0, 55, 100
3, 70050, Note_on_c, 0, 55, 0
3, 70050, Note_on_c, 0, 53, 100
3, 70080, Note_on_c, 0, 53, 0
3, 70080, Note_on_c, 0, 52, 100
3, 70200, Note_on_c, 0, 52, 0
3, 70200, Note_on_c, 0, 57, 100
3, 70320, Note_on_c, 0, 57, 0
3, 70320, Note_on_c, 0, 50, 100
3, 70440, Note_on_c, 0, 50, 0
3, 70440, Note_on_c, 0, 55, 100
3, 70560, Note_on_c, 0, 55, 0
3, 70560, Note_on_c, 0, 49, 100
3, 70680, Note_on_c, 0, 57, 100
3, 70800, Note_on_c, 0, 49, 0
3, 70800, Note_on_c, 0, 50, 100
3, 70920, Note_on_c, 0, 57, 0
3, 70920, Note_on_c, 0, 62, 100
3, 71040, Note_on_c, 0, 50, 0
3, 71040, Note_on_c, 0, 52, 100
3, 71160, Note_on_c, 0, 62, 0
3, 71160, Note_on_c, 0, 60, 100
3, 71280, Note_on_c, 0, 52, 0
3, 71280, Note_on_c, 0, 53, 100
3, 71400, Note_on_c, 0, 60, 0
3, 71400, Note_on_c, 0, 57, 100
3, 71520, Note_on_c, 0, 53, 0
3, 71520, Note_on_c, 0, 47, 100
3, 71640, Note_on_c, 0, 57, 0
3, 71640, Note_on_c, 0, 56, 100
3, 71760, Note_on_c, 0, 56, 0
3, 71760, Note_on_c, 0, 47, 0
3, 71760, Note_on_c, 0, 57, 100
3, 71760, Note_on_c, 0, 48, 100
3, 71880, Note_on_c, 0, 57, 0
3, 71880, Note_on_c, 0, 59, 100
3, 72000, Note_on_c, 0, 59, 0
3, 72000, Note_on_c, 0, 60, 100
3, 72120, Note_on_c, 0, 48, 0
3, 72120, Note_on_c, 0, 50, 100
3, 72240, Note_on_c, 0, 50, 0
3, 72240, Note_on_c, 0, 52, 100
3, 72330, Note_on_c, 0, 60, 0
3, 72330, Note_on_c, 0, 62, 100
3, 72360, Note_on_c, 0, 62, 0
3, 72360, Note_on_c, 0, 61, 100
3, 72450, Note_on_c, 0, 61, 0
3, 72450, Note_on_c, 0, 59, 100
3, 72480, Note_on_c, 0, 59, 0
3, 72480, Note_on_c, 0, 52, 0
3, 72480, Note_on_c, 0, 57, 100
3, 72480, Note_on_c, 0, 53, 100
3, 72600, Note_on_c, 0, 53, 0
3, 72600, Note_on_c, 0, 50, 100
3, 72720, Note_on_c, 0, 50, 0
3, 72720, Note_on_c, 0, 57, 0
3, 72720, Note_on_c, 0, 58, 100
3, 72720, Note_on_c, 0, 55, 100
3, 73050, Note_on_c, 0, 58, 0
3, 73050, Note_on_c, 0, 58, 100
3, 73080, Note_on_c, 0, 58, 0
3, 73080, Note_on_c, 0, 55, 0
3, 73080, Note_on_c, 0, 57, 100
3, 73080, Note_on_c, 0, 49, 100
3, 73170, Note_on_c, 0, 57, 0
3, 73170, Note_on_c, 0, 55, 100
3, 73200, Note_on_c, 0, 55, 0
3, 73200, Note_on_c, 0, 49, 0
3, 73200, Note_on_c, 0, 53, 100
3, 73200, Note_on_c, 0, 50, 100
3, 73290, Note_on_c, 0, 53, 0
3, 73290, Note_on_c, 0, 52, 100
3, 73320, Note_on_c, 0, 52, 0
3, 73320, Note_on_c, 0, 50, 0
3, 73320, Note_on_c, 0, 50, 100
3, 73320, Note_on_c, 0, 45, 100
3, 73410, Note_on_c, 0, 50, 0
3, 73410, Note_on_c, 0, 49, 100
3, 73440, Note_on_c, 0, 49, 0
3, 73440, Note_on_c, 0, 45, 0
3, 73440, Note_on_c, 0, 50, 100
3, 73440, Note_on_c, 0, 46, 100
3, 73560, Note_on_c, 0, 50, 0
3, 73560, Note_on_c, 0, 52, 100
3, 73650, Note_on_c, 0, 52, 0
3, 73650, Note_on_c, 0, 54, 100
3, 73680, Note_on_c, 0, 54, 0
3, 73680, Note_on_c, 0, 55, 100
3, 73770, Note_on_c, 0, 55, 0
3, 73770, Note_on_c, 0, 53, 100
3, 73800, Note_on_c, 0, 53, 0
3, 73800, Note_on_c, 0, 46, 0
3, 73800, Note_on_c, 0, 52, 100
3, 73800, Note_on_c, 0, 43, 100
3, 73890, Note_on_c, 0, 52, 0
3, 73890, Note_on_c, 0, 50, 100
3, 73920, Note_on_c, 0, 50, 0
3, 73920, Note_on_c, 0, 43, 0
3, 73920, Note_on_c, 0, 49, 100
3, 73920, Note_on_c, 0, 45, 100
3, 74160, Note_on_c, 0, 49, 0
3, 74160, Note_on_c, 0, 50, 100
3, 74400, Note_on_c, 0, 50, 0
3, 74400, Note_on_c, 0, 52, 100
3, 74640, Note_on_c, 0, 52, 0
3, 74640, Note_on_c, 0, 53, 100
3, 74880, Note_on_c, 0, 53, 0
3, 74880, Note_on_c, 0, 52, 100
3, 75120, Note_on_c, 0, 52, 0
3, 75210, Note_on_c, 0, 45, 0
3, 75210, Note_on_c, 0, 46, 100
3, 75240, Note_on_c, 0, 46, 0
3, 75240, Note_on_c, 0, 57, 100
3, 75240, Note_on_c, 0, 45, 100
3, 75330, Note_on_c, 0, 45, 0
3, 75330, Note_on_c, 0, 43, 100
3, 75360, Note_on_c, 0, 57, 0
3, 75360, Note_on_c, 0, 57, 100
3, 75450, Note_on_c, 0, 43, 0
3, 75450, Note_on_c, 0, 45, 100
3, 75480, Note_on_c, 0, 45, 0
3, 75480, Note_on_c, 0, 43, 100
3, 75570, Note_on_c, 0, 43, 0
3, 75570, Note_on_c, 0, 41, 100
3, 75600, Note_on_c, 0, 57, 0
3, 75690, Note_on_c, 0, 41, 0
3, 75690, Note_on_c, 0, 43, 100
3, 75720, Note_on_c, 0, 43, 0
3, 75720, Note_on_c, 0, 41, 100
3, 75810, Note_on_c, 0, 41, 0
3, 75810, Note_on_c, 0, 40, 100
3, 75840, Note_on_c, 0, 40, 0
3, 75840, Note_on_c, 0, 38, 100
3, 75930, Note_on_c, 0, 50, 100
3, 75960, Note_on_c, 0, 50, 0
3, 75960, Note_on_c, 0, 38, 0
3, 75960, Note_on_c, 0, 52, 100
3, 76050, Note_on_c, 0, 52, 0
3, 76050, Note_on_c, 0, 53, 100
3, 76080, Note_on_c, 0, 53, 0
3, 76080, Note_on_c, 0, 55, 100
3, 76170, Note_on_c, 0, 55, 0
3, 76170, Note_on_c, 0, 57, 100
3, 76170, Note_on_c, 0, 40, 100
3, 76200, Note_on_c, 0, 40, 0
3, 76200, Note_on_c, 0, 57, 0
3, 76200, Note_on_c, 0, 55, 100
3, 76200, Note_on_c, 0, 41, 100
3, 76290, Note_on_c, 0, 41, 0
3, 76290, Note_on_c, 0, 55, 0
3, 76290, Note_on_c, 0, 53, 100
3, 76290, Note_on_c, 0, 43, 100
3, 76320, Note_on_c, 0, 43, 0
3, 76320, Note_on_c, 0, 53, 0
3, 76320, Note_on_c, 0, 52, 100
3, 76320, Note_on_c, 0, 45, 100
3, 76410, Note_on_c, 0, 52, 0
3, 76410, Note_on_c, 0, 55, 100
3, 76440, Note_on_c, 0, 55, 0
3, 76440, Note_on_c, 0, 53, 100
3, 76530, Note_on_c, 0, 53, 0
3, 76530, Note_on_c, 0, 52, 100
3, 76560, Note_on_c, 0, 52, 0
3, 76560, Note_on_c, 0, 45, 0
3, 76560, Note_on_c, 0, 50, 100
3, 76650, Note_on_c, 0, 46, 100
3, 76680, Note_on_c, 0, 46, 0
3, 76680, Note_on_c, 0, 45, 100
3, 76770, Note_on_c, 0, 45, 0
3, 76770, Note_on_c, 0, 43, 100
3, 76800, Note_on_c, 0, 43, 0
3, 76800, Note_on_c, 0, 50, 0
3, 76800, Note_on_c, 0, 49, 100
3, 76800, Note_on_c, 0, 45, 100
3, 76890, Note_on_c, 0, 45, 0
3, 76890, Note_on_c, 0, 41, 100
3, 76920, Note_on_c, 0, 41, 0
3, 76920, Note_on_c, 0, 49, 0
3, 76920, Note_on_c, 0, 50, 100
3, 76920, Note_on_c, 0, 40, 100
3, 77010, Note_on_c, 0, 40, 0
3, 77010, Note_on_c, 0, 38, 100
3, 77040, Note_on_c, 0, 38, 0
3, 77040, Note_on_c, 0, 43, 100
3, 77160, Note_on_c, 0, 43, 0
3, 77160, Note_on_c, 0, 50, 0
3, 77160, Note_on_c, 0, 49, 100
3, 77160, Note_on_c, 0, 45, 100
3, 77280, Note_on_c, 0, 45, 0
3, 77280, Note_on_c, 0, 49, 0
3, 77280, Note_on_c, 0, 50, 100
3, 77280, Note_on_c, 0, 46, 100
3, 77370, Note_on_c, 0, 46, 0
3, 77370, Note_on_c, 0, 48, 100
3, 77400, Note_on_c, 0, 48, 0
3, 77400, Note_on_c, 0, 50, 0
3, 77400, Note_on_c, 0, 52, 100
3, 77400, Note_on_c, 0, 46, 100
3, 77490, Note_on_c, 0, 46, 0
3, 77490, Note_on_c, 0, 52, 0
3, 77490, Note_on_c, 0, 54, 100
3, 77490, Note_on_c, 0, 45, 100
3, 77520, Note_on_c, 0, 45, 0
3, 77520, Note_on_c, 0, 54, 0
3, 77520, Note_on_c, 0, 55, 100
3, 77520, Note_on_c, 0, 43, 100
3, 77610, Note_on_c, 0, 43, 0
3, 77610, Note_on_c, 0, 45, 100
3, 77640, Note_on_c, 0, 45, 0
3, 77640, Note_on_c, 0, 46, 100
3, 77730, Note_on_c, 0, 46, 0
3, 77730, Note_on_c, 0, 43, 100
3, 77760, Note_on_c, 0, 43, 0
3, 77760, Note_on_c, 0, 50, 100
3, 77850, Note_on_c, 0, 55, 0
3, 77850, Note_on_c, 0, 54, 100
3, 77880, Note_on_c, 0, 54, 0
3, 77880, Note_on_c, 0, 55, 100
3, 77970, Note_on_c, 0, 55, 0
3, 77970, Note_on_c, 0, 52, 100
3, 78000, Note_on_c, 0, 52, 0
3, 78000, Note_on_c, 0, 50, 0
3, 78000, Note_on_c, 0, 54, 100
3, 78000, Note_on_c, 0, 38, 100
3, 78240, Note_on_c, 0, 38, 0
3, 78240, Note_on_c, 0, 54, 0
3, 78720, Note_on_c, 0, 62, 100
3, 78960, Note_on_c, 0, 62, 0
3, 78960, Note_on_c, 0, 57, 100
3, 79200, Note_on_c, 0, 57, 0
3, 79200, Note_on_c, 0, 60, 100
3, 79440, Note_on_c, 0, 60, 0
3, 79440, Note_on_c, 0, 64, 100
3, 79680, Note_on_c, 0, 64, 0
3, 79680, Note_on_c, 0, 65, 100
3, 79920, Note_on_c, 0, 65, 0
3, 79920, Note_on_c, 0, 64, 100
3, 80040, Note_on_c, 0, 64, 0
3, 80040, Note_on_c, 0, 62, 100
3, 80160, Note_on_c, 0, 62, 0
3, 80160, Note_on_c, 0, 61, 100
3, 80460, Note_on_c, 0, 61, 0
3, 80460, Note_on_c, 0, 57, 100
3, 80520, Note_on_c, 0, 57, 0
3, 80520, Note_on_c, 0, 59, 100
3, 80580, Note_on_c, 0, 59, 0
3, 80580, Note_on_c, 0, 61, 100
3, 80640, Note_on_c, 0, 61, 0
3, 80640, Note_on_c, 0, 62, 100
3, 80760, Note_on_c, 0, 62, 0
3, 80760, Note_on_c, 0, 60, 100
3, 81000, Note_on_c, 0, 60, 0
3, 81000, Note_on_c, 0, 59, 100
3, 81060, Note_on_c, 0, 59, 0
3, 81060, Note_on_c, 0, 58, 100
3, 81120, Note_on_c, 0, 58, 0
3, 81120, Note_on_c, 0, 57, 100
3, 81180, Note_on_c, 0, 57, 0
3, 81180, Note_on_c, 0, 56, 100
3, 81240, Note_on_c, 0, 56, 0
3, 81240, Note_on_c, 0, 57, 100
3, 81300, Note_on_c, 0, 57, 0
3, 81300, Note_on_c, 0, 59, 100
3, 81360, Note_on_c, 0, 59, 0
3, 81360, Note_on_c, 0, 60, 100
3, 81480, Note_on_c, 0, 60, 0
3, 81480, Note_on_c, 0, 61, 100
3, 81720, Note_on_c, 0, 61, 0
3, 81720, Note_on_c, 0, 62, 100
3, 81780, Note_on_c, 0, 62, 0
3, 81780, Note_on_c, 0, 64, 100
3, 81840, Note_on_c, 0, 64, 0
3, 81840, Note_on_c, 0, 65, 100
3, 81960, Note_on_c, 0, 65, 0
3, 81960, Note_on_c, 0, 64, 100
3, 82140, Note_on_c, 0, 64, 0
3, 82140, Note_on_c, 0, 57, 100
3, 82200, Note_on_c, 0, 57, 0
3, 82200, Note_on_c, 0, 59, 100
3, 82260, Note_on_c, 0, 59, 0
3, 82260, Note_on_c, 0, 61, 100
3, 82320, Note_on_c, 0, 61, 0
3, 82320, Note_on_c, 0, 62, 100
3, 82380, Note_on_c, 0, 62, 0
3, 82380, Note_on_c, 0, 61, 100
3, 82440, Note_on_c, 0, 61, 0
3, 82440, Note_on_c, 0, 62, 100
3, 82500, Note_on_c, 0, 62, 0
3, 82500, Note_on_c, 0, 64, 100
3, 82560, Note_on_c, 0, 64, 0
3, 82560, Note_on_c, 0, 65, 100
3, 82620, Note_on_c, 0, 65, 0
3, 82620, Note_on_c, 0, 64, 100
3, 82680, Note_on_c, 0, 64, 0
3, 82680, Note_on_c, 0, 62, 100
3, 82740, Note_on_c, 0, 62, 0
3, 82740, Note_on_c, 0, 61, 100
3, 82800, Note_on_c, 0, 61, 0
3, 82800, Note_on_c, 0, 62, 100
3, 82920, Note_on_c, 0, 62, 0
3, 82920, Note_on_c, 0, 50, 100
3, 83040, Note_on_c, 0, 50, 0
3, 83040, Note_on_c, 0, 57, 100
3, 83100, Note_on_c, 0, 57, 0
3, 83100, Note_on_c, 0, 59, 100
3, 83160, Note_on_c, 0, 59, 0
3, 83160, Note_on_c, 0, 60, 100
3, 83340, Note_on_c, 0, 60, 0
3, 83340, Note_on_c, 0, 64, 100
3, 83400, Note_on_c, 0, 64, 0
3, 83400, Note_on_c, 0, 62, 100
3, 83460, Note_on_c, 0, 62, 0
3, 83460, Note_on_c, 0, 60, 100
3, 83520, Note_on_c, 0, 60, 0
3, 83520, Note_on_c, 0, 59, 100
3, 83580, Note_on_c, 0, 59, 0
3, 83580, Note_on_c, 0, 47, 100
3, 83640, Note_on_c, 0, 47, 0
3, 83640, Note_on_c, 0, 48, 100
3, 83700, Note_on_c, 0, 48, 0
3, 83700, Note_on_c, 0, 50, 100
3, 83760, Note_on_c, 0, 50, 0
3, 83760, Note_on_c, 0, 52, 100
3, 83820, Note_on_c, 0, 52, 0
3, 83820, Note_on_c, 0, 54, 100
3, 83880, Note_on_c, 0, 54, 0
3, 83880, Note_on_c, 0, 56, 100
3, 83940, Note_on_c, 0, 56, 0
3, 83940, Note_on_c, 0, 52, 100
3, 84000, Note_on_c, 0, 52, 0
3, 84000, Note_on_c, 0, 57, 100
3, 84120, Note_on_c, 0, 57, 0
3, 84120, Note_on_c, 0, 55, 100
3, 84240, Note_on_c, 0, 55, 0
3, 84240, Note_on_c, 0, 53, 100
3, 84360, Note_on_c, 0, 53, 0
3, 84360, Note_on_c, 0, 52, 100
3, 84480, Note_on_c, 0, 52, 0
3, 84480, Note_on_c, 0, 50, 100
3, 84540, Note_on_c, 0, 50, 0
3, 84540, Note_on_c, 0, 62, 100
3, 84600, Note_on_c, 0, 62, 0
3, 84600, Note_on_c, 0, 64, 100
3, 84660, Note_on_c, 0, 64, 0
3, 84660, Note_on_c, 0, 66, 100
3, 84720, Note_on_c, 0, 66, 0
3, 84720, Note_on_c, 0, 67, 100
3, 84840, Note_on_c, 0, 67, 0
3, 84840, Note_on_c, 0, 65, 100
3, 84960, Note_on_c, 0, 65, 0
3, 84960, Note_on_c, 0, 64, 100
3, 85080, Note_on_c, 0, 64, 0
3, 85080, Note_on_c, 0, 62, 100
3, 85200, Note_on_c, 0, 62, 0
3, 85200, Note_on_c, 0, 61, 100
3, 85320, Note_on_c, 0, 61, 0
3, 85320, Note_on_c, 0, 62, 100
3, 85440, Note_on_c, 0, 62, 0
3, 85440, Note_on_c, 0, 57, 100
3, 85440, Note_on_c, 0, 64, 100
3, 85680, Note_on_c, 0, 64, 0
3, 85680, Note_on_c, 0, 57, 0
3, 85680, Note_on_c, 0, 62, 100
3, 85680, Note_on_c, 0, 50, 100
3, 85920, Note_on_c, 0, 50, 0
3, 85920, Note_on_c, 0, 53, 100
3, 86040, Note_on_c, 0, 62, 0
3, 86040, Note_on_c, 0, 60, 100
3, 86100, Note_on_c, 0, 60, 0
3, 86100, Note_on_c, 0, 59, 100
3, 86160, Note_on_c, 0, 59, 0
3, 86160, Note_on_c, 0, 53, 0
3, 86160, Note_on_c, 0, 57, 100
3, 86160, Note_on_c, 0, 57, 100
3, 86280, Note_on_c, 0, 57, 0
3, 86400, Note_on_c, 0, 57, 0
3, 86400, Note_on_c, 0, 58, 100
3, 86520, Note_on_c, 0, 62, 100
3, 86640, Note_on_c, 0, 58, 0
3, 86640, Note_on_c, 0, 57, 100
3, 86700, Note_on_c, 0, 62, 0
3, 86700, Note_on_c, 0, 59, 100
3, 86760, Note_on_c, 0, 59, 0
3, 86760, Note_on_c, 0, 57, 0
3, 86760, Note_on_c, 0, 55, 100
3, 86760, Note_on_c, 0, 61, 100
3, 86820, Note_on_c, 0, 61, 0
3, 86820, Note_on_c, 0, 62, 100
3, 86880, Note_on_c, 0, 62, 0
3, 86880, Note_on_c, 0, 55, 0
3, 86880, Note_on_c, 0, 53, 100
3, 86880, Note_on_c, 0, 57, 100
3, 87000, Note_on_c, 0, 57, 0
3, 87180, Note_on_c, 0, 53, 0
3, 87180, Note_on_c, 0, 52, 100
3, 87240, Note_on_c, 0, 52, 0
3, 87240, Note_on_c, 0, 53, 100
3, 87300, Note_on_c, 0, 53, 0
3, 87300, Note_on_c, 0, 55, 100
3, 87360, Note_on_c, 0, 55, 0
3, 87360, Note_on_c, 0, 57, 100
3, 87420, Note_on_c, 0, 57, 0
3, 87420, Note_on_c, 0, 45, 100
3, 87480, Note_on_c, 0, 45, 0
3, 87540, Note_on_c, 0, 45, 100
3, 87600, Note_on_c, 0, 45, 0
3, 87600, Note_on_c, 0, 46, 100
3, 87660, Note_on_c, 0, 46, 0
3, 87660, Note_on_c, 0, 45, 100
3, 87720, Note_on_c, 0, 45, 0
3, 87720, Note_on_c, 0, 47, 100
3, 87780, Note_on_c, 0, 47, 0
3, 87780, Note_on_c, 0, 49, 100
3, 87840, Note_on_c, 0, 49, 0
3, 87840, Note_on_c, 0, 50, 100
3, 87900, Note_on_c, 0, 50, 0
3, 87900, Note_on_c, 0, 38, 100
3, 87960, Note_on_c, 0, 38, 0
3, 88020, Note_on_c, 0, 50, 100
3, 88080, Note_on_c, 0, 50, 0
3, 88080, Note_on_c, 0, 51, 100
3, 88140, Note_on_c, 0, 51, 0
3, 88140, Note_on_c, 0, 50, 100
3, 88200, Note_on_c, 0, 50, 0
3, 88200, Note_on_c, 0, 52, 100
3, 88260, Note_on_c, 0, 52, 0
3, 88260, Note_on_c, 0, 54, 100
3, 88320, Note_on_c, 0, 54, 0
3, 88320, Note_on_c, 0, 55, 100
3, 88380, Note_on_c, 0, 55, 0
3, 88380, Note_on_c, 0, 43, 100
3, 88440, Note_on_c, 0, 43, 0
3, 88500, Note_on_c, 0, 43, 100
3, 88560, Note_on_c, 0, 43, 0
3, 88560, Note_on_c, 0, 44, 100
3, 88620, Note_on_c, 0, 44, 0
3, 88620, Note_on_c, 0, 43, 100
3, 88680, Note_on_c, 0, 43, 0
3, 88680, Note_on_c, 0, 45, 100
3, 88740, Note_on_c, 0, 45, 0
3, 88740, Note_on_c, 0, 47, 100
3, 88800, Note_on_c, 0, 47, 0
3, 88800, Note_on_c, 0, 48, 100
3, 88860, Note_on_c, 0, 48, 0
3, 88860, Note_on_c, 0, 36, 100
3, 88920, Note_on_c, 0, 36, 0
3, 88980, Note_on_c, 0, 48, 100
3, 89040, Note_on_c, 0, 48, 0
3, 89040, Note_on_c, 0, 49, 100
3, 89100, Note_on_c, 0, 49, 0
3, 89100, Note_on_c, 0, 48, 100
3, 89160, Note_on_c, 0, 48, 0
3, 89160, Note_on_c, 0, 50, 100
3, 89220, Note_on_c, 0, 50, 0
3, 89220, Note_on_c, 0, 52, 100
3, 89280, Note_on_c, 0, 52, 0
3, 89280, Note_on_c, 0, 53, 100
3, 89340, Note_on_c, 0, 53, 0
3, 89340, Note_on_c, 0, 41, 100
3, 89400, Note_on_c, 0, 41, 0
3, 89460, Note_on_c, 0, 53, 100
3, 89520, Note_on_c, 0, 53, 0
3, 89520, Note_on_c, 0, 54, 100
3, 89580, Note_on_c, 0, 54, 0
3, 89580, Note_on_c, 0, 55, 100
3, 89640, Note_on_c, 0, 55, 0
3, 89700, Note_on_c, 0, 43, 100
3, 89760, Note_on_c, 0, 43, 0
3, 89760, Note_on_c, 0, 41, 100
3, 89820, Note_on_c, 0, 41, 0
3, 89820, Note_on_c, 0, 40, 100
3, 89880, Note_on_c, 0, 40, 0
3, 89880, Note_on_c, 0, 38, 100
3, 89940, Note_on_c, 0, 38, 0
3, 89940, Note_on_c, 0, 50, 100
3, 90000, Note_on_c, 0, 50, 0
3, 90000, Note_on_c, 0, 45, 100
3, 90060, Note_on_c, 0, 45, 0
3, 90060, Note_on_c, 0, 58, 100
3, 90120, Note_on_c, 0, 58, 0
3, 90120, Note_on_c, 0, 57, 100
3, 90180, Note_on_c, 0, 57, 0
3, 90180, Note_on_c, 0, 55, 100
3, 90240, Note_on_c, 0, 55, 0
3, 90240, Note_on_c, 0, 53, 100
3, 90300, Note_on_c, 0, 53, 0
3, 90300, Note_on_c, 0, 52, 100
3, 90360, Note_on_c, 0, 52, 0
3, 90360, Note_on_c, 0, 50, 100
3, 90540, Note_on_c, 0, 50, 0
3, 90540, Note_on_c, 0, 55, 100
3, 90600, Note_on_c, 0, 55, 0
3, 90600, Note_on_c, 0, 49, 100
3, 90720, Note_on_c, 0, 49, 0
3, 90720, Note_on_c, 0, 50, 100
3, 90840, Note_on_c, 0, 50, 0
3, 90900, Note_on_c, 0, 45, 100
3, 90960, Note_on_c, 0, 45, 0
3, 90960, Note_on_c, 0, 46, 100
3, 91020, Note_on_c, 0, 46, 0
3, 91020, Note_on_c, 0, 58, 100
3, 91080, Note_on_c, 0, 58, 0
3, 91080, Note_on_c, 0, 57, 100
3, 91140, Note_on_c, 0, 57, 0
3, 91140, Note_on_c, 0, 55, 100
3, 91200, Note_on_c, 0, 55, 0
3, 91200, Note_on_c, 0, 55, 100
3, 91220, Note_on_c, 0, 55, 0
3, 91220, Note_on_c, 0, 54, 100
3, 91240, Note_on_c, 0, 54, 0
3, 91240, Note_on_c, 0, 55, 100
3, 91260, Note_on_c, 0, 55, 0
3, 91260, Note_on_c, 0, 54, 100
3, 91280, Note_on_c, 0, 54, 0
3, 91280, Note_on_c, 0, 55, 100
3, 91300, Note_on_c, 0, 55, 0
3, 91300, Note_on_c, 0, 54, 100
3, 91320, Note_on_c, 0, 54, 0
3, 91320, Note_on_c, 0, 55, 100
3, 91340, Note_on_c, 0, 55, 0
3, 91340, Note_on_c, 0, 54, 100
3, 91360, Note_on_c, 0, 54, 0
3, 91360, Note_on_c, 0, 55, 100
3, 91380, Note_on_c, 0, 55, 0
3, 91380, Note_on_c, 0, 54, 100
3, 91400, Note_on_c, 0, 54, 0
3, 91400, Note_on_c, 0, 52, 100
3, 91420, Note_on_c, 0, 52, 0
3, 91420, Note_on_c, 0, 54, 100
3, 91440, Note_on_c, 0, 54, 0
3, 91440, Note_on_c, 0, 55, 100
3, 91500, Note_on_c, 0, 55, 0
3, 91500, Note_on_c, 0, 53, 100
3, 91560, Note_on_c, 0, 53, 0
3, 91560, Note_on_c, 0, 52, 100
3, 91620, Note_on_c, 0, 52, 0
3, 91620, Note_on_c, 0, 50, 100
3, 91680, Note_on_c, 0, 50, 0
3, 91680, Note_on_c, 0, 50, 100
3, 91700, Note_on_c, 0, 50, 0
3, 91700, Note_on_c, 0, 49, 100
3, 91720, Note_on_c, 0, 49, 0
3, 91720, Note_on_c, 0, 50, 100
3, 91740, Note_on_c, 0, 50, 0
3, 91740, Note_on_c, 0, 49, 100
3, 91760, Note_on_c, 0, 49, 0
3, 91760, Note_on_c, 0, 50, 100
3, 91780, Note_on_c, 0, 50, 0
3, 91780, Note_on_c, 0, 49, 100
3, 91800, Note_on_c, 0, 49, 0
3, 91800, Note_on_c, 0, 50, 100
3, 91820, Note_on_c, 0, 50, 0
3, 91820, Note_on_c, 0, 49, 100
3, 91840, Note_on_c, 0, 49, 0
3, 91840, Note_on_c, 0, 50, 100
3, 91860, Note_on_c, 0, 50, 0
3, 91860, Note_on_c, 0, 49, 100
3, 91880, Note_on_c, 0, 49, 0
3, 91880, Note_on_c, 0, 47, 100
3, 91900, Note_on_c, 0, 47, 0
3, 91900, Note_on_c, 0, 49, 100
3, 91920, Note_on_c, 0, 49, 0
3, 91920, Note_on_c, 0, 50, 100
3, 91980, Note_on_c, 0, 50, 0
3, 91980, Note_on_c, 0, 48, 100
3, 92040, Note_on_c, 0, 48, 0
3, 92040, Note_on_c, 0, 47, 100
3, 92100, Note_on_c, 0, 47, 0
3, 92100, Note_on_c, 0, 45, 100
3, 92160, Note_on_c, 0, 45, 0
3, 92160, Note_on_c, 0, 42, 100
3, 92280, Note_on_c, 0, 42, 0
3, 92280, Note_on_c, 0, 64, 100
3, 92280, Note_on_c, 0, 56, 100
3, 92400, Note_on_c, 0, 56, 0
3, 92400, Note_on_c, 0, 57, 100
3, 92520, Note_on_c, 0, 57, 0
3, 92520, Note_on_c, 0, 64, 0
3, 92520, Note_on_c, 0, 45, 100
3, 92520, Note_on_c, 0, 57, 100
3, 92580, Note_on_c, 0, 45, 0
3, 92580, Note_on_c, 0, 47, 100
3, 92640, Note_on_c, 0, 47, 0
3, 92640, Note_on_c, 0, 48, 100
3, 92700, Note_on_c, 0, 57, 0
3, 92700, Note_on_c, 0, 58, 100
3, 92760, Note_on_c, 0, 58, 0
3, 92760, Note_on_c, 0, 48, 0
3, 92820, Note_on_c, 0, 45, 100
3, 92880, Note_on_c, 0, 45, 0
3, 92880, Note_on_c, 0, 52, 100
3, 92940, Note_on_c, 0, 52, 0
3, 92940, Note_on_c, 0, 53, 100
3, 93000, Note_on_c, 0, 53, 0
3, 93000, Note_on_c, 0, 52, 100
3, 93060, Note_on_c, 0, 52, 0
3, 93060, Note_on_c, 0, 50, 100
3, 93120, Note_on_c, 0, 50, 0
3, 93120, Note_on_c, 0, 48, 100
3, 93180, Note_on_c, 0, 48, 0
3, 93180, Note_on_c, 0, 47, 100
3, 93240, Note_on_c, 0, 47, 0
3, 93240, Note_on_c, 0, 45, 100
3, 93420, Note_on_c, 0, 45, 0
3, 93420, Note_on_c, 0, 50, 100
3, 93480, Note_on_c, 0, 50, 0
3, 93480, Note_on_c, 0, 44, 100
3, 93600, Note_on_c, 0, 44, 0
3, 93600, Note_on_c, 0, 45, 100
3, 93660, Note_on_c, 0, 45, 0
3, 93660, Note_on_c, 0, 48, 100
3, 93720, Note_on_c, 0, 48, 0
3, 93720, Note_on_c, 0, 50, 100
3, 93780, Note_on_c, 0, 50, 0
3, 93780, Note_on_c, 0, 52, 100
3, 93840, Note_on_c, 0, 52, 0
3, 93840, Note_on_c, 0, 53, 100
3, 93960, Note_on_c, 0, 53, 0
3, 93960, Note_on_c, 0, 52, 100
3, 94020, Note_on_c, 0, 52, 0
3, 94020, Note_on_c, 0, 50, 100
3, 94080, Note_on_c, 0, 50, 0
3, 94080, Note_on_c, 0, 49, 100
3, 94140, Note_on_c, 0, 49, 0
3, 94140, Note_on_c, 0, 45, 100
3, 94200, Note_on_c, 0, 45, 0
3, 94200, Note_on_c, 0, 47, 100
3, 94260, Note_on_c, 0, 47, 0
3, 94260, Note_on_c, 0, 49, 100
3, 94320, Note_on_c, 0, 49, 0
3, 94320, Note_on_c, 0, 50, 100
3, 94380, Note_on_c, 0, 50, 0
3, 94380, Note_on_c, 0, 52, 100
3, 94440, Note_on_c, 0, 52, 0
3, 94440, Note_on_c, 0, 50, 100
3, 94500, Note_on_c, 0, 50, 0
3, 94500, Note_on_c, 0, 48, 100
3, 94560, Note_on_c, 0, 48, 0
3, 94560, Note_on_c, 0, 47, 100
3, 94620, Note_on_c, 0, 47, 0
3, 94620, Note_on_c, 0, 43, 100
3, 94680, Note_on_c, 0, 43, 0
3, 94680, Note_on_c, 0, 45, 100
3, 94740, Note_on_c, 0, 45, 0
3, 94740, Note_on_c, 0, 47, 100
3, 94800, Note_on_c, 0, 47, 0
3, 94800, Note_on_c, 0, 48, 100
3, 94860, Note_on_c, 0, 48, 0
3, 94860, Note_on_c, 0, 50, 100
3, 94920, Note_on_c, 0, 50, 0
3, 94920, Note_on_c, 0, 48, 100
3, 94980, Note_on_c, 0, 48, 0
3, 94980, Note_on_c, 0, 46, 100
3, 95040, Note_on_c, 0, 46, 0
3, 95040, Note_on_c, 0, 45, 100
3, 95100, Note_on_c, 0, 45, 0
3, 95100, Note_on_c, 0, 43, 100
3, 95160, Note_on_c, 0, 43, 0
3, 95160, Note_on_c, 0, 45, 100
3, 95220, Note_on_c, 0, 45, 0
3, 95220, Note_on_c, 0, 41, 100
3, 95280, Note_on_c, 0, 41, 0
3, 95280, Note_on_c, 0, 46, 100
3, 95340, Note_on_c, 0, 46, 0
3, 95340, Note_on_c, 0, 45, 100
3, 95400, Note_on_c, 0, 45, 0
3, 95400, Note_on_c, 0, 53, 100
3, 95400, Note_on_c, 0, 46, 100
3, 95460, Note_on_c, 0, 46, 0
3, 95460, Note_on_c, 0, 48, 100
3, 95520, Note_on_c, 0, 48, 0
3, 95520, Note_on_c, 0, 50, 100
3, 95580, Note_on_c, 0, 53, 0
3, 95580, Note_on_c, 0, 55, 100
3, 95640, Note_on_c, 0, 55, 0
3, 95640, Note_on_c, 0, 57, 100
3, 95700, Note_on_c, 0, 50, 0
3, 95700, Note_on_c, 0, 52, 100
3, 95760, Note_on_c, 0, 52, 0
3, 95760, Note_on_c, 0, 53, 100
3, 95820, Note_on_c, 0, 57, 0
3, 95820, Note_on_c, 0, 58, 100
3, 95880, Note_on_c, 0, 58, 0
3, 95880, Note_on_c, 0, 60, 100
3, 95940, Note_on_c, 0, 53, 0
3, 95940, Note_on_c, 0, 50, 100
3, 96000, Note_on_c, 0, 50, 0
3, 96000, Note_on_c, 0, 55, 100
3, 96060, Note_on_c, 0, 60, 0
3, 96180, Note_on_c, 0, 55, 0
3, 96180, Note_on_c, 0, 53, 100
3, 96240, Note_on_c, 0, 53, 0
3, 96240, Note_on_c, 0, 52, 100
3, 96300, Note_on_c, 0, 52, 0
3, 96300, Note_on_c, 0, 50, 100
3, 96360, Note_on_c, 0, 50, 0
3, 96360, Note_on_c, 0, 52, 100
3, 96420, Note_on_c, 0, 52, 0
3, 96420, Note_on_c, 0, 48, 100
3, 96480, Note_on_c, 0, 48, 0
3, 96480, Note_on_c, 0, 57, 100
3, 96480, Note_on_c, 0, 53, 100
3, 96600, Note_on_c, 0, 53, 0
3, 96600, Note_on_c, 0, 52, 100
3, 96720, Note_on_c, 0, 52, 0
3, 96780, Note_on_c, 0, 57, 0
3, 96780, Note_on_c, 0, 55, 100
3, 96840, Note_on_c, 0, 55, 0
3, 96840, Note_on_c, 0, 57, 100
3, 96900, Note_on_c, 0, 57, 0
3, 96900, Note_on_c, 0, 59, 100
3, 96960, Note_on_c, 0, 59, 0
3, 96960, Note_on_c, 0, 60, 100
3, 96960, Note_on_c, 0, 48, 100
3, 97020, Note_on_c, 0, 60, 0
3, 97020, Note_on_c, 0, 55, 100
3, 97080, Note_on_c, 0, 55, 0
3, 97080, Note_on_c, 0, 48, 0
3, 97140, Note_on_c, 0, 48, 100
3, 97200, Note_on_c, 0, 48, 0
3, 97200, Note_on_c, 0, 49, 100
3, 97260, Note_on_c, 0, 49, 0
3, 97260, Note_on_c, 0, 48, 100
3, 97320, Note_on_c, 0, 48, 0
3, 97320, Note_on_c, 0, 50, 100
3, 97380, Note_on_c, 0, 50, 0
3, 97380, Note_on_c, 0, 52, 100
3, 97440, Note_on_c, 0, 52, 0
3, 97440, Note_on_c, 0, 53, 100
3, 97500, Note_on_c, 0, 53, 0
3, 97500, Note_on_c, 0, 41, 100
3, 97560, Note_on_c, 0, 41, 0
3, 97620, Note_on_c, 0, 53, 100
3, 97680, Note_on_c, 0, 53, 0
3, 97680, Note_on_c, 0, 46, 100
3, 97740, Note_on_c, 0, 46, 0
3, 97740, Note_on_c, 0, 45, 100
3, 97800, Note_on_c, 0, 45, 0
3, 97800, Note_on_c, 0, 47, 100
3, 97860, Note_on_c, 0, 47, 0
3, 97860, Note_on_c, 0, 49, 100
3, 97920, Note_on_c, 0, 49, 0
3, 97920, Note_on_c, 0, 50, 100
3, 97980, Note_on_c, 0, 50, 0
3, 97980, Note_on_c, 0, 38, 100
3, 98040, Note_on_c, 0, 38, 0
3, 98100, Note_on_c, 0, 50, 100
3, 98160, Note_on_c, 0, 50, 0
3, 98160, Note_on_c, 0, 51, 100
3, 98220, Note_on_c, 0, 51, 0
3, 98220, Note_on_c, 0, 50, 100
3, 98280, Note_on_c, 0, 50, 0
3, 98280, Note_on_c, 0, 52, 100
3, 98340, Note_on_c, 0, 52, 0
3, 98340, Note_on_c, 0, 54, 100
3, 98400, Note_on_c, 0, 54, 0
3, 98400, Note_on_c, 0, 55, 100
3, 98460, Note_on_c, 0, 55, 0
3, 98460, Note_on_c, 0, 43, 100
3, 98520, Note_on_c, 0, 43, 0
3, 98580, Note_on_c, 0, 55, 100
3, 98640, Note_on_c, 0, 55, 0
3, 98640, Note_on_c, 0, 48, 100
3, 98700, Note_on_c, 0, 48, 0
3, 98700, Note_on_c, 0, 47, 100
3, 98760, Note_on_c, 0, 47, 0
3, 98760, Note_on_c, 0, 49, 100
3, 98820, Note_on_c, 0, 49, 0
3, 98820, Note_on_c, 0, 51, 100
3, 98880, Note_on_c, 0, 51, 0
3, 98880, Note_on_c, 0, 52, 100
3, 98880, Note_on_c, 0, 59, 100
3, 99060, Note_on_c, 0, 59, 0
3, 99060, Note_on_c, 0, 52, 0
3, 99060, Note_on_c, 0, 52, 100
3, 99060, Note_on_c, 0, 61, 100
3, 99120, Note_on_c, 0, 61, 0
3, 99120, Note_on_c, 0, 52, 0
3, 99120, Note_on_c, 0, 62, 100
3, 99120, Note_on_c, 0, 53, 100
3, 99180, Note_on_c, 0, 53, 0
3, 99180, Note_on_c, 0, 55, 100
3, 99240, Note_on_c, 0, 55, 0
3, 99240, Note_on_c, 0, 57, 100
3, 99300, Note_on_c, 0, 62, 0
3, 99300, Note_on_c, 0, 62, 100
3, 99360, Note_on_c, 0, 62, 0
3, 99360, Note_on_c, 0, 60, 100
3, 99420, Note_on_c, 0, 60, 0
3, 99420, Note_on_c, 0, 59, 100
3, 99480, Note_on_c, 0, 59, 0
3, 99480, Note_on_c, 0, 60, 100
3, 99540, Note_on_c, 0, 60, 0
3, 99540, Note_on_c, 0, 57, 0
3, 99540, Note_on_c, 0, 57, 100
3, 99600, Note_on_c, 0, 57, 0
3, 99600, Note_on_c, 0, 59, 100
3, 99600, Note_on_c, 0, 55, 100
3, 99660, Note_on_c, 0, 55, 0
3, 99660, Note_on_c, 0, 54, 100
3, 99720, Note_on_c, 0, 54, 0
3, 99720, Note_on_c, 0, 52, 100
3, 99780, Note_on_c, 0, 59, 0
3, 99780, Note_on_c, 0, 60, 100
3, 99840, Note_on_c, 0, 60, 0
3, 99840, Note_on_c, 0, 62, 100
3, 99900, Note_on_c, 0, 62, 0
3, 99900, Note_on_c, 0, 52, 0
3, 99900, Note_on_c, 0, 60, 100
3, 99900, Note_on_c, 0, 53, 100
3, 99960, Note_on_c, 0, 53, 0
3, 99960, Note_on_c, 0, 52, 100
3, 100020, Note_on_c, 0, 52, 0
3, 100020, Note_on_c, 0, 60, 0
3, 100020, Note_on_c, 0, 59, 100
3, 100020, Note_on_c, 0, 50, 100
3, 100080, Note_on_c, 0, 50, 0
3, 100080, Note_on_c, 0, 48, 100
3, 100140, Note_on_c, 0, 59, 0
3, 100140, Note_on_c, 0, 57, 100
3, 100200, Note_on_c, 0, 48, 0
3, 100200, Note_on_c, 0, 52, 100
3, 100260, Note_on_c, 0, 57, 0
3, 100260, Note_on_c, 0, 56, 100
3, 100320, Note_on_c, 0, 56, 0
3, 100320, Note_on_c, 0, 52, 0
3, 100320, Note_on_c, 0, 45, 100
3, 100320, Note_on_c, 0, 57, 100
3, 100440, Note_on_c, 0, 57, 0
3, 100440, Note_on_c, 0, 45, 0
3, 100860, Note_on_c, 0, 50, 100
3, 100920, Note_on_c, 0, 50, 0
3, 100920, Note_on_c, 0, 52, 100
3, 100980, Note_on_c, 0, 52, 0
3, 100980, Note_on_c, 0, 54, 100
3, 101040, Note_on_c, 0, 54, 0
3, 101040, Note_on_c, 0, 55, 100
3, 101160, Note_on_c, 0, 55, 0
3, 101160, Note_on_c, 0, 57, 100
3, 101220, Note_on_c, 0, 57, 0
3, 101220, Note_on_c, 0, 53, 100
3, 101280, Note_on_c, 0, 53, 0
3, 101280, Note_on_c, 0, 55, 100
3, 101340, Note_on_c, 0, 55, 0
3, 101340, Note_on_c, 0, 65, 100
3, 101400, Note_on_c, 0, 65, 0
3, 101400, Note_on_c, 0, 64, 100
3, 101460, Note_on_c, 0, 64, 0
3, 101460, Note_on_c, 0, 62, 100
3, 101520, Note_on_c, 0, 62, 0
3, 101520, Note_on_c, 0, 60, 100
3, 101580, Note_on_c, 0, 60, 0
3, 101580, Note_on_c, 0, 48, 100
3, 101640, Note_on_c, 0, 48, 0
3, 101640, Note_on_c, 0, 50, 100
3, 101700, Note_on_c, 0, 50, 0
3, 101700, Note_on_c, 0, 52, 100
3, 101760, Note_on_c, 0, 52, 0
3, 101760, Note_on_c, 0, 53, 100
3, 101880, Note_on_c, 0, 53, 0
3, 101880, Note_on_c, 0, 55, 100
3, 101940, Note_on_c, 0, 55, 0
3, 101940, Note_on_c, 0, 51, 100
3, 102000, Note_on_c, 0, 51, 0
3, 102000, Note_on_c, 0, 53, 100
3, 102060, Note_on_c, 0, 53, 0
3, 102060, Note_on_c, 0, 63, 100
3, 102120, Note_on_c, 0, 63, 0
3, 102120, Note_on_c, 0, 62, 100
3, 102180, Note_on_c, 0, 62, 0
3, 102180, Note_on_c, 0, 60, 100
3, 102240, Note_on_c, 0, 60, 0
3, 102240, Note_on_c, 0, 58, 100
3, 102300, Note_on_c, 0, 58, 0
3, 102300, Note_on_c, 0, 46, 100
3, 102360, Note_on_c, 0, 46, 0
3, 102360, Note_on_c, 0, 48, 100
3, 102420, Note_on_c, 0, 48, 0
3, 102420, Note_on_c, 0, 50, 100
3, 102480, Note_on_c, 0, 50, 0
3, 102480, Note_on_c, 0, 51, 100
3, 102540, Note_on_c, 0, 51, 0
3, 102540, Note_on_c, 0, 53, 100
3, 102600, Note_on_c, 0, 53, 0
3, 102600, Note_on_c, 0, 51, 100
3, 102660, Note_on_c, 0, 51, 0
3, 102660, Note_on_c, 0, 50, 100
3, 102720, Note_on_c, 0, 50, 0
3, 102720, Note_on_c, 0, 48, 100
3, 102720, Note_on_c, 0, 48, 100
3, 102780, Note_on_c, 0, 48, 0
3, 102780, Note_on_c, 0, 50, 100
3, 102840, Note_on_c, 0, 50, 0
3, 102840, Note_on_c, 0, 52, 100
3, 102900, Note_on_c, 0, 52, 0
3, 102900, Note_on_c, 0, 54, 100
3, 102960, Note_on_c, 0, 54, 0
3, 102960, Note_on_c, 0, 48, 0
3, 102960, Note_on_c, 0, 55, 100
3, 102960, Note_on_c, 0, 43, 100
3, 103080, Note_on_c, 0, 55, 0
3, 103140, Note_on_c, 0, 51, 100
3, 103200, Note_on_c, 0, 51, 0
3, 103200, Note_on_c, 0, 43, 0
3, 103200, Note_on_c, 0, 50, 100
3, 103200, Note_on_c, 0, 46, 100
3, 103320, Note_on_c, 0, 50, 0
3, 103380, Note_on_c, 0, 55, 100
3, 103440, Note_on_c, 0, 55, 0
3, 103440, Note_on_c, 0, 46, 0
3, 103440, Note_on_c, 0, 53, 100
3, 103440, Note_on_c, 0, 50, 100
3, 103500, Note_on_c, 0, 53, 0
3, 103500, Note_on_c, 0, 58, 100
3, 103560, Note_on_c, 0, 58, 0
3, 103560, Note_on_c, 0, 57, 100
3, 103680, Note_on_c, 0, 50, 0
3, 103680, Note_on_c, 0, 51, 100
3, 103800, Note_on_c, 0, 57, 0
3, 103800, Note_on_c, 0, 55, 100
3, 103920, Note_on_c, 0, 51, 0
3, 103920, Note_on_c, 0, 50, 100
3, 103980, Note_on_c, 0, 55, 0
3, 103980, Note_on_c, 0, 52, 100
3, 104040, Note_on_c, 0, 52, 0
3, 104040, Note_on_c, 0, 50, 0
3, 104040, Note_on_c, 0, 54, 100
3, 104040, Note_on_c, 0, 48, 100
3, 104100, Note_on_c, 0, 54, 0
3, 104100, Note_on_c, 0, 57, 100
3, 104160, Note_on_c, 0, 57, 0
3, 104160, Note_on_c, 0, 48, 0
3, 104160, Note_on_c, 0, 46, 100
3, 104160, Note_on_c, 0, 50, 100
3, 104220, Note_on_c, 0, 50, 0
3, 104220, Note_on_c, 0, 54, 100
3, 104280, Note_on_c, 0, 54, 0
3, 104280, Note_on_c, 0, 55, 100
3, 104340, Note_on_c, 0, 55, 0
3, 104340, Note_on_c, 0, 57, 100
3, 104400, Note_on_c, 0, 57, 0
3, 104400, Note_on_c, 0, 58, 100
3, 104460, Note_on_c, 0, 58, 0
3, 104460, Note_on_c, 0, 46, 0
3, 104460, Note_on_c, 0, 45, 100
3, 104520, Note_on_c, 0, 45, 0
3, 104520, Note_on_c, 0, 47, 100
3, 104580, Note_on_c, 0, 47, 0
3, 104580, Note_on_c, 0, 48, 100
3, 104640, Note_on_c, 0, 48, 0
3, 104640, Note_on_c, 0, 50, 100
3, 104700, Note_on_c, 0, 62, 100
3, 104760, Note_on_c, 0, 62, 0
3, 104760, Note_on_c, 0, 50, 0
3, 104760, Note_on_c, 0, 52, 100
3, 104760, Note_on_c, 0, 61, 100
3, 104820, Note_on_c, 0, 61, 0
3, 104820, Note_on_c, 0, 52, 0
3, 104820, Note_on_c, 0, 54, 100
3, 104820, Note_on_c, 0, 60, 100
3, 104880, Note_on_c, 0, 54, 0
3, 104880, Note_on_c, 0, 55, 100
3, 104940, Note_on_c, 0, 60, 0
3, 104940, Note_on_c, 0, 60, 100
3, 105000, Note_on_c, 0, 60, 0
3, 105000, Note_on_c, 0, 59, 100
3, 105060, Note_on_c, 0, 59, 0
3, 105060, Note_on_c, 0, 58, 100
3, 105120, Note_on_c, 0, 58, 0
3, 105120, Note_on_c, 0, 55, 0
3, 105120, Note_on_c, 0, 50, 100
3, 105120, Note_on_c, 0, 57, 100
3, 105180, Note_on_c, 0, 57, 0
3, 105180, Note_on_c, 0, 56, 100
3, 105240, Note_on_c, 0, 56, 0
3, 105240, Note_on_c, 0, 57, 100
3, 105300, Note_on_c, 0, 57, 0
3, 105300, Note_on_c, 0, 59, 100
3, 105360, Note_on_c, 0, 59, 0
3, 105360, Note_on_c, 0, 50, 0
3, 105360, Note_on_c, 0, 60, 100
3, 105360, Note_on_c, 0, 48, 100
3, 105420, Note_on_c, 0, 48, 0
3, 105420, Note_on_c, 0, 50, 100
3, 105480, Note_on_c, 0, 50, 0
3, 105480, Note_on_c, 0, 60, 0
3, 105480, Note_on_c, 0, 61, 100
3, 105480, Note_on_c, 0, 52, 100
3, 105660, Note_on_c, 0, 52, 0
3, 105660, Note_on_c, 0, 55, 100
3, 105720, Note_on_c, 0, 55, 0
3, 105720, Note_on_c, 0, 61, 0
3, 105720, Note_on_c, 0, 53, 100
3, 105780, Note_on_c, 0, 53, 0
3, 105780, Note_on_c, 0, 52, 100
3, 105840, Note_on_c, 0, 52, 0
3, 105840, Note_on_c, 0, 50, 100
3, 105960, Note_on_c, 0, 50, 0
3, 105960, Note_on_c, 0, 49, 100
3, 106080, Note_on_c, 0, 49, 0
3, 106080, Note_on_c, 0, 50, 100
3, 106140, Note_on_c, 0, 57, 100
3, 106200, Note_on_c, 0, 57, 0
3, 106200, Note_on_c, 0, 59, 100
3, 106260, Note_on_c, 0, 59, 0
3, 106260, Note_on_c, 0, 61, 100
3, 106320, Note_on_c, 0, 61, 0
3, 106320, Note_on_c, 0, 62, 100
3, 106380, Note_on_c, 0, 62, 0
3, 106380, Note_on_c, 0, 50, 0
3, 106380, Note_on_c, 0, 48, 100
3, 106380, Note_on_c, 0, 57, 100
3, 106440, Note_on_c, 0, 57, 0
3, 106440, Note_on_c, 0, 50, 100
3, 106500, Note_on_c, 0, 48, 0
3, 106500, Note_on_c, 0, 47, 100
3, 106560, Note_on_c, 0, 47, 0
3, 106560, Note_on_c, 0, 50, 0
3, 106560, Note_on_c, 0, 52, 100
3, 106620, Note_on_c, 0, 52, 0
3, 106620, Note_on_c, 0, 51, 100
3, 106680, Note_on_c, 0, 51, 0
3, 106680, Note_on_c, 0, 52, 100
3, 106740, Note_on_c, 0, 52, 0
3, 106740, Note_on_c, 0, 54, 100
3, 106800, Note_on_c, 0, 54, 0
3, 106800, Note_on_c, 0, 55, 100
3, 106800, Note_on_c, 0, 43, 100
3, 106860, Note_on_c, 0, 43, 0
3, 106860, Note_on_c, 0, 45, 100
3, 106920, Note_on_c, 0, 45, 0
3, 106920, Note_on_c, 0, 46, 100
3, 106980, Note_on_c, 0, 55, 0
3, 106980, Note_on_c, 0, 56, 100
3, 107040, Note_on_c, 0, 56, 0
3, 107040, Note_on_c, 0, 46, 0
3, 107040, Note_on_c, 0, 57, 100
3, 107040, Note_on_c, 0, 45, 100
3, 107100, Note_on_c, 0, 45, 0
3, 107100, Note_on_c, 0, 50, 100
3, 107160, Note_on_c, 0, 50, 0
3, 107160, Note_on_c, 0, 57, 0
3, 107160, Note_on_c, 0, 52, 100
3, 107220, Note_on_c, 0, 52, 0
3, 107220, Note_on_c, 0, 53, 100
3, 107280, Note_on_c, 0, 53, 0
3, 107280, Note_on_c, 0, 55, 100
3, 107400, Note_on_c, 0, 55, 0
3, 107400, Note_on_c, 0, 56, 100
3, 107400, Note_on_c, 0, 64, 100
3, 107520, Note_on_c, 0, 64, 0
3, 107520, Note_on_c, 0, 56, 0
3, 107520, Note_on_c, 0, 64, 100
3, 107520, Note_on_c, 0, 57, 100
3, 107580, Note_on_c, 0, 57, 0
3, 107580, Note_on_c, 0, 58, 100
3, 107640, Note_on_c, 0, 58, 0
3, 107640, Note_on_c, 0, 64, 0
3, 107640, Note_on_c, 0, 57, 100
3, 107700, Note_on_c, 0, 57, 0
3, 107700, Note_on_c, 0, 55, 100
3, 107760, Note_on_c, 0, 55, 0
3, 107760, Note_on_c, 0, 54, 100
3, 107880, Note_on_c, 0, 54, 0
3, 107880, Note_on_c, 0, 55, 100
3, 107940, Note_on_c, 0, 55, 0
3, 107940, Note_on_c, 0, 57, 100
3, 108000, Note_on_c, 0, 57, 0
3, 108000, Note_on_c, 0, 58, 100
3, 108060, Note_on_c, 0, 58, 0
3, 108060, Note_on_c, 0, 60, 100
3, 108120, Note_on_c, 0, 60, 0
3, 108120, Note_on_c, 0, 58, 100
3, 108180, Note_on_c, 0, 58, 0
3, 108180, Note_on_c, 0, 57, 100
3, 108240, Note_on_c, 0, 57, 0
3, 108240, Note_on_c, 0, 55, 100
3, 108300, Note_on_c, 0, 55, 0
3, 108300, Note_on_c, 0, 53, 100
3, 108360, Note_on_c, 0, 53, 0
3, 108360, Note_on_c, 0, 52, 100
3, 108420, Note_on_c, 0, 52, 0
3, 108420, Note_on_c, 0, 50, 100
3, 108480, Note_on_c, 0, 50, 0
3, 108480, Note_on_c, 0, 49, 100
3, 108480, Note_on_c, 0, 57, 100
3, 108600, Note_on_c, 0, 49, 0
3, 108600, Note_on_c, 0, 48, 100
3, 108720, Note_on_c, 0, 57, 0
3, 108720, Note_on_c, 0, 50, 100
3, 108840, Note_on_c, 0, 48, 0
3, 108840, Note_on_c, 0, 47, 100
3, 108900, Note_on_c, 0, 47, 0
3, 108900, Note_on_c, 0, 46, 100
3, 108960, Note_on_c, 0, 46, 0
3, 108960, Note_on_c, 0, 50, 0
3, 108960, Note_on_c, 0, 53, 100
3, 108960, Note_on_c, 0, 45, 100
3, 109020, Note_on_c, 0, 45, 0
3, 109020, Note_on_c, 0, 44, 100
3, 109080, Note_on_c, 0, 44, 0
3, 109080, Note_on_c, 0, 45, 100
3, 109140, Note_on_c, 0, 45, 0
3, 109140, Note_on_c, 0, 47, 100
3, 109200, Note_on_c, 0, 47, 0
3, 109200, Note_on_c, 0, 53, 0
3, 109200, Note_on_c, 0, 48, 100
3, 109200, Note_on_c, 0, 57, 100
3, 109320, Note_on_c, 0, 48, 0
3, 109320, Note_on_c, 0, 49, 100
3, 109440, Note_on_c, 0, 57, 0
3, 109440, Note_on_c, 0, 58, 100
3, 109560, Note_on_c, 0, 49, 0
3, 109560, Note_on_c, 0, 50, 100
3, 109620, Note_on_c, 0, 50, 0
3, 109620, Note_on_c, 0, 52, 100
3, 109680, Note_on_c, 0, 52, 0
3, 109680, Note_on_c, 0, 58, 0
3, 109680, Note_on_c, 0, 53, 100
3, 109680, Note_on_c, 0, 57, 100
3, 109800, Note_on_c, 0, 57, 0
3, 109800, Note_on_c, 0, 53, 0
3, 109800, Note_on_c, 0, 52, 100
3, 109800, Note_on_c, 0, 55, 100
3, 109920, Note_on_c, 0, 55, 0
3, 109920, Note_on_c, 0, 53, 100
3, 109980, Note_on_c, 0, 52, 0
3, 109980, Note_on_c, 0, 45, 100
3, 110040, Note_on_c, 0, 45, 0
3, 110040, Note_on_c, 0, 47, 100
3, 110100, Note_on_c, 0, 47, 0
3, 110100, Note_on_c, 0, 49, 100
3, 110160, Note_on_c, 0, 49, 0
3, 110160, Note_on_c, 0, 50, 100
3, 110220, Note_on_c, 0, 53, 0
3, 110220, Note_on_c, 0, 52, 100
3, 110280, Note_on_c, 0, 52, 0
3, 110280, Note_on_c, 0, 54, 100
3, 110340, Note_on_c, 0, 54, 0
3, 110340, Note_on_c, 0, 55, 100
3, 110400, Note_on_c, 0, 55, 0
3, 110400, Note_on_c, 0, 57, 100
3, 110460, Note_on_c, 0, 50, 0
3, 110460, Note_on_c, 0, 48, 100
3, 110520, Note_on_c, 0, 48, 0
3, 110520, Note_on_c, 0, 46, 100
3, 110580, Note_on_c, 0, 46, 0
3, 110580, Note_on_c, 0, 45, 100
3, 110640, Note_on_c, 0, 45, 0
3, 110640, Note_on_c, 0, 46, 100
3, 110700, Note_on_c, 0, 57, 0
3, 110700, Note_on_c, 0, 50, 100
3, 110760, Note_on_c, 0, 50, 0
3, 110760, Note_on_c, 0, 52, 100
3, 110820, Note_on_c, 0, 52, 0
3, 110820, Note_on_c, 0, 54, 100
3, 110880, Note_on_c, 0, 54, 0
3, 110880, Note_on_c, 0, 55, 100
3, 110940, Note_on_c, 0, 46, 0
3, 110940, Note_on_c, 0, 45, 100
3, 111000, Note_on_c, 0, 45, 0
3, 111000, Note_on_c, 0, 46, 100
3, 111060, Note_on_c, 0, 46, 0
3, 111060, Note_on_c, 0, 43, 100
3, 111120, Note_on_c, 0, 43, 0
3, 111120, Note_on_c, 0, 50, 100
3, 111180, Note_on_c, 0, 55, 0
3, 111180, Note_on_c, 0, 54, 100
3, 111240, Note_on_c, 0, 54, 0
3, 111240, Note_on_c, 0, 55, 100
3, 111300, Note_on_c, 0, 55, 0
3, 111300, Note_on_c, 0, 57, 100
3, 111360, Note_on_c, 0, 57, 0
3, 111360, Note_on_c, 0, 58, 100
3, 111480, Note_on_c, 0, 58, 0
3, 111480, Note_on_c, 0, 57, 100
3, 111540, Note_on_c, 0, 57, 0
3, 111540, Note_on_c, 0, 55, 100
3, 111600, Note_on_c, 0, 55, 0
3, 111600, Note_on_c, 0, 57, 100
3, 112140, Note_on_c, 0, 57, 0
3, 112140, Note_on_c, 0, 57, 100
3, 112200, Note_on_c, 0, 57, 0
3, 112200, Note_on_c, 0, 55, 100
3, 112260, Note_on_c, 0, 55, 0
3, 112260, Note_on_c, 0, 54, 100
3, 112320, Note_on_c, 0, 54, 0
3, 112320, Note_on_c, 0, 55, 100
3, 112620, Note_on_c, 0, 50, 0
3, 112620, Note_on_c, 0, 45, 100
3, 112680, Note_on_c, 0, 45, 0
3, 112680, Note_on_c, 0, 46, 100
3, 112740, Note_on_c, 0, 46, 0
3, 112740, Note_on_c, 0, 43, 100
3, 112800, Note_on_c, 0, 43, 0
3, 112800, Note_on_c, 0, 38, 100
3, 112860, Note_on_c, 0, 55, 0
3, 112860, Note_on_c, 0, 54, 100
3, 112920, Note_on_c, 0, 54, 0
3, 112920, Note_on_c, 0, 55, 100
3, 112980, Note_on_c, 0, 55, 0
3, 112980, Note_on_c, 0, 52, 100
3, 113040, Note_on_c, 0, 52, 0
3, 113040, Note_on_c, 0, 53, 100
3, 113520, Note_on_c, 0, 53, 0
3, 113520, Note_on_c, 0, 38, 0
3, 119520, Note_on_c, 0, 57, 65
3, 119760, Note_on_c, 0, 57, 0
3, 119760, Note_on_c, 0, 50, 65
3, 120000, Note_on_c, 0, 50, 0
3, 120000, Note_on_c, 0, 53, 65
3, 120240, Note_on_c, 0, 53, 0
3, 120240, Note_on_c, 0, 57, 65
3, 120480, Note_on_c, 0, 57, 0
3, 120480, Note_on_c, 0, 58, 65
3, 120720, Note_on_c, 0, 58, 0
3, 120720, Note_on_c, 0, 57, 65
3, 120840, Note_on_c, 0, 57, 0
3, 120840, Note_on_c, 0, 55, 65
3, 120960, Note_on_c, 0, 55, 0
3, 120960, Note_on_c, 0, 53, 65
3, 121260, Note_on_c, 0, 53, 0
3, 121260, Note_on_c, 0, 52, 65
3, 121320, Note_on_c, 0, 52, 0
3, 121320, Note_on_c, 0, 53, 65
3, 121380, Note_on_c, 0, 53, 0
3, 121380, Note_on_c, 0, 55, 65
3, 121440, Note_on_c, 0, 55, 0
3, 121440, Note_on_c, 0, 57, 50
3, 121440, Note_on_c, 0, 50, 65
3, 121680, Note_on_c, 0, 50, 0
3, 121680, Note_on_c, 0, 57, 0
3, 121680, Note_on_c, 0, 45, 65
3, 121860, Note_on_c, 0, 58, 50
3, 121920, Note_on_c, 0, 45, 0
3, 121920, Note_on_c, 0, 57, 50
3, 121920, Note_on_c, 0, 48, 65
3, 121980, Note_on_c, 0, 57, 0
3, 121980, Note_on_c, 0, 58, 0
3, 121980, Note_on_c, 0, 55, 50
3, 122038, Note_on_c, 0, 55, 0
3, 122160, Note_on_c, 0, 48, 0
3, 122160, Note_on_c, 0, 52, 65
3, 122220, Note_on_c, 0, 58, 50
3, 122280, Note_on_c, 0, 58, 0
3, 122280, Note_on_c, 0, 57, 50
3, 122340, Note_on_c, 0, 57, 0
3, 122340, Note_on_c, 0, 56, 50
3, 122400, Note_on_c, 0, 56, 0
3, 122400, Note_on_c, 0, 52, 0
3, 122400, Note_on_c, 0, 57, 50
3, 122400, Note_on_c, 0, 53, 65
3, 122520, Note_on_c, 0, 57, 0
3, 122520, Note_on_c, 0, 62, 50
3, 122640, Note_on_c, 0, 62, 0
3, 122640, Note_on_c, 0, 53, 0
3, 122640, Note_on_c, 0, 55, 50
3, 122640, Note_on_c, 0, 52, 65
3, 122760, Note_on_c, 0, 52, 0
3, 122760, Note_on_c, 0, 55, 0
3, 122760, Note_on_c, 0, 58, 50
3, 122760, Note_on_c, 0, 50, 65
3, 122880, Note_on_c, 0, 50, 0
3, 122880, Note_on_c, 0, 49, 65
3, 123000, Note_on_c, 0, 58, 0
3, 123000, Note_on_c, 0, 52, 50
3, 123120, Note_on_c, 0, 52, 0
3, 123120, Note_on_c, 0, 57, 50
3, 123180, Note_on_c, 0, 49, 0
3, 123180, Note_on_c, 0, 45, 50
3, 123240, Note_on_c, 0, 45, 0
3, 123240, Note_on_c, 0, 57, 0
3, 123240, Note_on_c, 0, 55, 50
3, 123240, Note_on_c, 0, 47, 50
3, 123300, Note_on_c, 0, 47, 0
3, 123300, Note_on_c, 0, 49, 50
3, 123360, Note_on_c, 0, 49, 0
3, 123360, Note_on_c, 0, 55, 0
3, 123360, Note_on_c, 0, 53, 50
3, 123360, Note_on_c, 0, 50, 50
3, 123420, Note_on_c, 0, 53, 0
3, 123420, Note_on_c, 0, 52, 50
3, 123480, Note_on_c, 0, 52, 0
3, 123480, Note_on_c, 0, 53, 50
3, 123540, Note_on_c, 0, 53, 0
3, 123540, Note_on_c, 0, 55, 50
3, 123600, Note_on_c, 0, 55, 0
3, 123600, Note_on_c, 0, 57, 50
3, 123660, Note_on_c, 0, 50, 0
3, 123660, Note_on_c, 0, 48, 50
3, 123720, Note_on_c, 0, 48, 0
3, 123720, Note_on_c, 0, 57, 0
3, 123720, Note_on_c, 0, 46, 50
3, 123780, Note_on_c, 0, 46, 0
3, 123780, Note_on_c, 0, 45, 50
3, 123840, Note_on_c, 0, 45, 0
3, 123840, Note_on_c, 0, 43, 50
3, 123900, Note_on_c, 0, 50, 50
3, 123960, Note_on_c, 0, 50, 0
3, 123960, Note_on_c, 0, 52, 50
3, 124020, Note_on_c, 0, 52, 0
3, 124020, Note_on_c, 0, 53, 50
3, 124080, Note_on_c, 0, 53, 0
3, 124080, Note_on_c, 0, 55, 50
3, 124140, Note_on_c, 0, 43, 0
3, 124140, Note_on_c, 0, 46, 50
3, 124200, Note_on_c, 0, 46, 0
3, 124200, Note_on_c, 0, 55, 0
3, 124200, Note_on_c, 0, 45, 50
3, 124260, Note_on_c, 0, 45, 0
3, 124260, Note_on_c, 0, 43, 50
3, 124320, Note_on_c, 0, 43, 0
3, 124320, Note_on_c, 0, 41, 50
3, 124380, Note_on_c, 0, 49, 50
3, 124440, Note_on_c, 0, 49, 0
3, 124440, Note_on_c, 0, 50, 50
3, 124500, Note_on_c, 0, 50, 0
3, 124500, Note_on_c, 0, 52, 50
3, 124560, Note_on_c, 0, 52, 0
3, 124560, Note_on_c, 0, 53, 50
3, 124620, Note_on_c, 0, 41, 0
3, 124620, Note_on_c, 0, 45, 50
3, 124680, Note_on_c, 0, 45, 0
3, 124680, Note_on_c, 0, 53, 0
3, 124680, Note_on_c, 0, 43, 50
3, 124740, Note_on_c, 0, 43, 0
3, 124740, Note_on_c, 0, 41, 50
3, 124800, Note_on_c, 0, 41, 0
3, 124800, Note_on_c, 0, 40, 50
3, 124860, Note_on_c, 0, 46, 50
3, 124920, Note_on_c, 0, 46, 0
3, 124920, Note_on_c, 0, 49, 50
3, 124980, Note_on_c, 0, 49, 0
3, 124980, Note_on_c, 0, 50, 50
3, 125040, Note_on_c, 0, 50, 0
3, 125040, Note_on_c, 0, 52, 50
3, 125100, Note_on_c, 0, 40, 0
3, 125100, Note_on_c, 0, 43, 50
3, 125160, Note_on_c, 0, 43, 0
3, 125160, Note_on_c, 0, 52, 0
3, 125160, Note_on_c, 0, 41, 50
3, 125220, Note_on_c, 0, 41, 0
3, 125220, Note_on_c, 0, 40, 50
3, 125280, Note_on_c, 0, 40, 0
3, 125280, Note_on_c, 0, 38, 50
3, 125340, Note_on_c, 0, 57, 50
3, 125400, Note_on_c, 0, 57, 0
3, 125400, Note_on_c, 0, 38, 0
3, 125400, Note_on_c, 0, 58, 50
3, 125400, Note_on_c, 0, 50, 50
3, 125460, Note_on_c, 0, 58, 0
3, 125460, Note_on_c, 0, 60, 50
3, 125520, Note_on_c, 0, 60, 0
3, 125520, Note_on_c, 0, 50, 0
3, 125520, Note_on_c, 0, 62, 50
3, 125520, Note_on_c, 0, 46, 50
3, 125640, Note_on_c, 0, 46, 0
3, 125640, Note_on_c, 0, 43, 50
3, 125760, Note_on_c, 0, 43, 0
3, 125760, Note_on_c, 0, 62, 0
3, 125760, Note_on_c, 0, 40, 50
3, 125820, Note_on_c, 0, 50, 50
3, 125880, Note_on_c, 0, 50, 0
3, 125880, Note_on_c, 0, 40, 0
3, 125880, Note_on_c, 0, 52, 50
3, 125880, Note_on_c, 0, 52, 50
3, 125940, Note_on_c, 0, 52, 0
3, 125940, Note_on_c, 0, 53, 50
3, 126000, Note_on_c, 0, 53, 0
3, 126000, Note_on_c, 0, 52, 0
3, 126000, Note_on_c, 0, 55, 50
3, 126000, Note_on_c, 0, 48, 50
3, 126120, Note_on_c, 0, 48, 0
3, 126120, Note_on_c, 0, 45, 50
3, 126240, Note_on_c, 0, 45, 0
3, 126240, Note_on_c, 0, 55, 0
3, 126240, Note_on_c, 0, 41, 50
3, 126300, Note_on_c, 0, 61, 50
3, 126360, Note_on_c, 0, 61, 0
3, 126360, Note_on_c, 0, 41, 0
3, 126360, Note_on_c, 0, 62, 50
3, 126360, Note_on_c, 0, 53, 50
3, 126420, Note_on_c, 0, 62, 0
3, 126420, Note_on_c, 0, 64, 50
3, 126480, Note_on_c, 0, 64, 0
3, 126480, Note_on_c, 0, 53, 0
3, 126480, Note_on_c, 0, 65, 50
3, 126480, Note_on_c, 0, 50, 50
3, 126600, Note_on_c, 0, 50, 0
3, 126600, Note_on_c, 0, 46, 50
3, 126720, Note_on_c, 0, 46, 0
3, 126720, Note_on_c, 0, 43, 50
3, 126780, Note_on_c, 0, 65, 0
3, 126780, Note_on_c, 0, 65, 50
3, 126840, Note_on_c, 0, 65, 0
3, 126840, Note_on_c, 0, 43, 0
3, 126840, Note_on_c, 0, 64, 50
3, 126840, Note_on_c, 0, 55, 50
3, 126900, Note_on_c, 0, 64, 0
3, 126900, Note_on_c, 0, 62, 50
3, 126960, Note_on_c, 0, 62, 0
3, 126960, Note_on_c, 0, 55, 0
3, 126960, Note_on_c, 0, 60, 50
3, 126960, Note_on_c, 0, 52, 50
3, 127080, Note_on_c, 0, 52, 0
3, 127080, Note_on_c, 0, 48, 50
3, 127198, Note_on_c, 0, 48, 0
3, 127198, Note_on_c, 0, 60, 0
3, 127200, Note_on_c, 0, 45, 50
3, 127260, Note_on_c, 0, 45, 0
3, 127260, Note_on_c, 0, 41, 50
3, 127320, Note_on_c, 0, 41, 0
3, 127320, Note_on_c, 0, 43, 50
3, 127380, Note_on_c, 0, 43, 0
3, 127380, Note_on_c, 0, 45, 50
3, 127440, Note_on_c, 0, 45, 0
3, 127440, Note_on_c, 0, 46, 50
3, 127500, Note_on_c, 0, 46, 0
3, 127500, Note_on_c, 0, 48, 50
3, 127560, Note_on_c, 0, 48, 0
3, 127560, Note_on_c, 0, 58, 50
3, 127560, Note_on_c, 0, 50, 50
3, 127620, Note_on_c, 0, 50, 0
3, 127620, Note_on_c, 0, 52, 50
3, 127680, Note_on_c, 0, 52, 0
3, 127680, Note_on_c, 0, 58, 0
3, 127680, Note_on_c, 0, 57, 50
3, 127680, Note_on_c, 0, 53, 50
3, 127800, Note_on_c, 0, 57, 0
3, 127800, Note_on_c, 0, 60, 50
3, 127920, Note_on_c, 0, 60, 0
3, 127920, Note_on_c, 0, 57, 50
3, 127980, Note_on_c, 0, 53, 0
3, 127980, Note_on_c, 0, 51, 50
3, 128040, Note_on_c, 0, 51, 0
3, 128040, Note_on_c, 0, 50, 50
3, 128100, Note_on_c, 0, 50, 0
3, 128100, Note_on_c, 0, 48, 50
3, 128160, Note_on_c, 0, 48, 0
3, 128160, Note_on_c, 0, 46, 50
3, 128220, Note_on_c, 0, 57, 0
3, 128280, Note_on_c, 0, 55, 50
3, 128340, Note_on_c, 0, 55, 0
3, 128340, Note_on_c, 0, 53, 50
3, 128400, Note_on_c, 0, 53, 0
3, 128400, Note_on_c, 0, 46, 0
3, 128400, Note_on_c, 0, 52, 50
3, 128400, Note_on_c, 0, 48, 50
3, 128460, Note_on_c, 0, 52, 0
3, 128460, Note_on_c, 0, 50, 50
3, 128520, Note_on_c, 0, 50, 0
3, 128520, Note_on_c, 0, 52, 50
3, 128640, Note_on_c, 0, 48, 0
3, 128640, Note_on_c, 0, 49, 50
3, 128760, Note_on_c, 0, 52, 0
3, 128760, Note_on_c, 0, 57, 50
3, 128820, Note_on_c, 0, 57, 0
3, 128820, Note_on_c, 0, 55, 50
3, 128880, Note_on_c, 0, 55, 0
3, 128880, Note_on_c, 0, 49, 0
3, 128880, Note_on_c, 0, 53, 50
3, 128880, Note_on_c, 0, 50, 50
3, 128940, Note_on_c, 0, 53, 0
3, 128940, Note_on_c, 0, 52, 50
3, 129000, Note_on_c, 0, 52, 0
3, 129000, Note_on_c, 0, 53, 50
3, 129120, Note_on_c, 0, 53, 0
3, 129120, Note_on_c, 0, 50, 0
3, 129120, Note_on_c, 0, 48, 50
3, 129240, Note_on_c, 0, 52, 50
3, 129300, Note_on_c, 0, 52, 0
3, 129300, Note_on_c, 0, 50, 50
3, 129360, Note_on_c, 0, 50, 0
3, 129360, Note_on_c, 0, 48, 0
3, 129360, Note_on_c, 0, 52, 50
3, 129420, Note_on_c, 0, 52, 0
3, 129420, Note_on_c, 0, 53, 50
3, 129480, Note_on_c, 0, 53, 0
3, 129480, Note_on_c, 0, 55, 50
3, 129480, Note_on_c, 0, 52, 50
3, 129600, Note_on_c, 0, 52, 0
3, 129600, Note_on_c, 0, 55, 0
3, 129600, Note_on_c, 0, 48, 50
3, 129660, Note_on_c, 0, 57, 50
3, 129720, Note_on_c, 0, 57, 0
3, 129720, Note_on_c, 0, 48, 0
3, 129720, Note_on_c, 0, 58, 50
3, 129720, Note_on_c, 0, 55, 50
3, 129780, Note_on_c, 0, 55, 0
3, 129780, Note_on_c, 0, 53, 50
3, 129840, Note_on_c, 0, 53, 0
3, 129840, Note_on_c, 0, 52, 50
3, 129900, Note_on_c, 0, 52, 0
3, 129900, Note_on_c, 0, 50, 50
3, 129960, Note_on_c, 0, 50, 0
3, 129960, Note_on_c, 0, 58, 0
3, 129960, Note_on_c, 0, 57, 50
3, 129960, Note_on_c, 0, 51, 50
3, 130020, Note_on_c, 0, 57, 0
3, 130020, Note_on_c, 0, 55, 50
3, 130080, Note_on_c, 0, 55, 0
3, 130080, Note_on_c, 0, 53, 50
3, 130140, Note_on_c, 0, 51, 0
3, 130200, Note_on_c, 0, 50, 50
3, 130260, Note_on_c, 0, 50, 0
3, 130260, Note_on_c, 0, 48, 50
3, 130320, Note_on_c, 0, 48, 0
3, 130320, Note_on_c, 0, 53, 0
3, 130320, Note_on_c, 0, 47, 50
3, 130380, Note_on_c, 0, 47, 0
3, 130380, Note_on_c, 0, 43, 50
3, 130440, Note_on_c, 0, 43, 0
3, 130440, Note_on_c, 0, 45, 50
3, 130500, Note_on_c, 0, 45, 0
3, 130500, Note_on_c, 0, 47, 50
3, 130560, Note_on_c, 0, 47, 0
3, 130560, Note_on_c, 0, 48, 50
3, 130680, Note_on_c, 0, 48, 0
3, 130680, Note_on_c, 0, 46, 50
3, 130800, Note_on_c, 0, 46, 0
3, 130800, Note_on_c, 0, 45, 50
3, 131040, Note_on_c, 0, 45, 0
3, 131040, Note_on_c, 0, 62, 65
3, 131040, Note_on_c, 0, 43, 50
3, 131100, Note_on_c, 0, 43, 0
3, 131100, Note_on_c, 0, 45, 50
3, 131160, Note_on_c, 0, 45, 0
3, 131160, Note_on_c, 0, 46, 50
3, 131220, Note_on_c, 0, 46, 0
3, 131220, Note_on_c, 0, 50, 50
3, 131280, Note_on_c, 0, 50, 0
3, 131280, Note_on_c, 0, 62, 0
3, 131280, Note_on_c, 0, 55, 65
3, 131520, Note_on_c, 0, 55, 0
3, 131520, Note_on_c, 0, 58, 65
3, 131760, Note_on_c, 0, 58, 0
3, 131760, Note_on_c, 0, 62, 65
3, 132000, Note_on_c, 0, 62, 0
3, 132000, Note_on_c, 0, 63, 65
3, 132240, Note_on_c, 0, 63, 0
3, 132240, Note_on_c, 0, 62, 65
3, 132360, Note_on_c, 0, 62, 0
3, 132360, Note_on_c, 0, 60, 65
3, 132480, Note_on_c, 0, 60, 0
3, 132480, Note_on_c, 0, 58, 65
3, 132780, Note_on_c, 0, 58, 0
3, 132780, Note_on_c, 0, 57, 65
3, 132840, Note_on_c, 0, 57, 0
3, 132840, Note_on_c, 0, 58, 65
3, 132900, Note_on_c, 0, 58, 0
3, 132900, Note_on_c, 0, 60, 50
3, 132960, Note_on_c, 0, 60, 0
3, 132960, Note_on_c, 0, 62, 50
3, 132960, Note_on_c, 0, 55, 65
3, 133020, Note_on_c, 0, 62, 0
3, 133020, Note_on_c, 0, 63, 50
3, 133080, Note_on_c, 0, 63, 0
3, 133080, Note_on_c, 0, 62, 50
3, 133140, Note_on_c, 0, 62, 0
3, 133140, Note_on_c, 0, 61, 50
3, 133200, Note_on_c, 0, 61, 0
3, 133200, Note_on_c, 0, 55, 0
3, 133200, Note_on_c, 0, 62, 50
3, 133200, Note_on_c, 0, 50, 65
3, 133260, Note_on_c, 0, 62, 0
3, 133260, Note_on_c, 0, 52, 50
3, 133320, Note_on_c, 0, 52, 0
3, 133320, Note_on_c, 0, 53, 50
3, 133380, Note_on_c, 0, 53, 0
3, 133380, Note_on_c, 0, 55, 50
3, 133438, Note_on_c, 0, 55, 0
3, 133438, Note_on_c, 0, 50, 0
3, 133440, Note_on_c, 0, 57, 50
3, 133440, Note_on_c, 0, 53, 65
3, 133500, Note_on_c, 0, 57, 0
3, 133500, Note_on_c, 0, 50, 50
3, 133560, Note_on_c, 0, 50, 0
3, 133560, Note_on_c, 0, 62, 50
3, 133680, Note_on_c, 0, 62, 0
3, 133680, Note_on_c, 0, 53, 0
3, 133680, Note_on_c, 0, 57, 65
3, 133740, Note_on_c, 0, 63, 50
3, 133800, Note_on_c, 0, 63, 0
3, 133800, Note_on_c, 0, 62, 50
3, 133860, Note_on_c, 0, 62, 0
3, 133860, Note_on_c, 0, 61, 50
3, 133920, Note_on_c, 0, 61, 0
3, 133920, Note_on_c, 0, 57, 0
3, 133920, Note_on_c, 0, 62, 50
3, 133920, Note_on_c, 0, 58, 65
3, 133980, Note_on_c, 0, 62, 0
3, 133980, Note_on_c, 0, 65, 50
3, 134040, Note_on_c, 0, 65, 0
3, 134040, Note_on_c, 0, 64, 50
3, 134100, Note_on_c, 0, 64, 0
3, 134100, Note_on_c, 0, 62, 50
3, 134160, Note_on_c, 0, 62, 0
3, 134160, Note_on_c, 0, 58, 0
3, 134160, Note_on_c, 0, 69, 50
3, 134160, Note_on_c, 0, 57, 65
3, 134280, Note_on_c, 0, 57, 0
3, 134280, Note_on_c, 0, 69, 0
3, 134280, Note_on_c, 0, 61, 50
3, 134280, Note_on_c, 0, 55, 65
3, 134400, Note_on_c, 0, 55, 0
3, 134400, Note_on_c, 0, 53, 65
3, 134520, Note_on_c, 0, 61, 0
3, 134520, Note_on_c, 0, 62, 50
3, 134580, Note_on_c, 0, 62, 0
3, 134580, Note_on_c, 0, 64, 50
3, 134640, Note_on_c, 0, 64, 0
3, 134640, Note_on_c, 0, 65, 50
3, 134700, Note_on_c, 0, 53, 0
3, 134700, Note_on_c, 0, 52, 60
3, 134760, Note_on_c, 0, 52, 0
3, 134760, Note_on_c, 0, 53, 60
3, 134820, Note_on_c, 0, 53, 0
3, 134820, Note_on_c, 0, 55, 60
3, 134880, Note_on_c, 0, 55, 0
3, 134880, Note_on_c, 0, 65, 0
3, 134880, Note_on_c, 0, 57, 60
3, 135000, Note_on_c, 0, 64, 50
3, 135120, Note_on_c, 0, 64, 0
3, 135120, Note_on_c, 0, 57, 0
3, 135120, Note_on_c, 0, 60, 50
3, 135240, Note_on_c, 0, 57, 50
3, 135360, Note_on_c, 0, 57, 0
3, 135360, Note_on_c, 0, 60, 0
3, 135360, Note_on_c, 0, 53, 50
3, 135480, Note_on_c, 0, 62, 50
3, 135600, Note_on_c, 0, 62, 0
3, 135600, Note_on_c, 0, 53, 0
3, 135600, Note_on_c, 0, 59, 50
3, 135720, Note_on_c, 0, 55, 50
3, 135840, Note_on_c, 0, 55, 0
3, 135840, Note_on_c, 0, 59, 0
3, 135840, Note_on_c, 0, 58, 50
3, 135840, Note_on_c, 0, 52, 50
3, 135960, Note_on_c, 0, 58, 0
3, 135960, Note_on_c, 0, 60, 50
3, 136080, Note_on_c, 0, 60, 0
3, 136080, Note_on_c, 0, 52, 0
3, 136080, Note_on_c, 0, 57, 50
3, 136200, Note_on_c, 0, 53, 50
3, 136320, Note_on_c, 0, 53, 0
3, 136320, Note_on_c, 0, 57, 0
3, 136320, Note_on_c, 0, 50, 50
3, 136440, Note_on_c, 0, 59, 50
3, 136560, Note_on_c, 0, 59, 0
3, 136560, Note_on_c, 0, 56, 50
3, 136620, Note_on_c, 0, 50, 0
3, 136620, Note_on_c, 0, 48, 50
3, 136680, Note_on_c, 0, 48, 0
3, 136680, Note_on_c, 0, 47, 50
3, 136740, Note_on_c, 0, 47, 0
3, 136740, Note_on_c, 0, 50, 50
3, 136800, Note_on_c, 0, 50, 0
3, 136800, Note_on_c, 0, 48, 50
3, 136920, Note_on_c, 0, 56, 0
3, 136920, Note_on_c, 0, 52, 50
3, 136980, Note_on_c, 0, 48, 0
3, 136980, Note_on_c, 0, 47, 50
3, 137040, Note_on_c, 0, 47, 0
3, 137040, Note_on_c, 0, 48, 50
3, 137160, Note_on_c, 0, 48, 0
3, 137160, Note_on_c, 0, 52, 0
3, 137160, Note_on_c, 0, 57, 50
3, 137160, Note_on_c, 0, 45, 50
3, 137280, Note_on_c, 0, 45, 0
3, 137280, Note_on_c, 0, 50, 50
3, 137400, Note_on_c, 0, 57, 0
3, 137400, Note_on_c, 0, 53, 50
3, 137460, Note_on_c, 0, 50, 0
3, 137460, Note_on_c, 0, 48, 50
3, 137520, Note_on_c, 0, 50, 50
3, 137580, Note_on_c, 0, 48, 0
3, 137640, Note_on_c, 0, 50, 0
3, 137640, Note_on_c, 0, 53, 0
3, 137640, Note_on_c, 0, 50, 50
3, 137640, Note_on_c, 0, 47, 50
3, 137760, Note_on_c, 0, 47, 0
3, 137760, Note_on_c, 0, 50, 0
3, 137760, Note_on_c, 0, 59, 50
3, 137760, Note_on_c, 0, 52, 50
3, 137880, Note_on_c, 0, 59, 0
3, 137880, Note_on_c, 0, 56, 50
3, 137940, Note_on_c, 0, 52, 0
3, 137940, Note_on_c, 0, 50, 50
3, 138000, Note_on_c, 0, 52, 50
3, 138060, Note_on_c, 0, 50, 0
3, 138120, Note_on_c, 0, 52, 0
3, 138120, Note_on_c, 0, 56, 0
3, 138120, Note_on_c, 0, 48, 50
3, 138240, Note_on_c, 0, 48, 0
3, 138240, Note_on_c, 0, 57, 50
3, 138240, Note_on_c, 0, 53, 50
3, 138360, Note_on_c, 0, 57, 0
3, 138360, Note_on_c, 0, 64, 50
3, 138420, Note_on_c, 0, 53, 0
3, 138420, Note_on_c, 0, 52, 50
3, 138480, Note_on_c, 0, 64, 0
3, 138480, Note_on_c, 0, 57, 50
3, 138480, Note_on_c, 0, 53, 50
3, 138540, Note_on_c, 0, 52, 0
3, 138600, Note_on_c, 0, 53, 0
3, 138600, Note_on_c, 0, 57, 0
3, 138600, Note_on_c, 0, 62, 50
3, 138600, Note_on_c, 0, 50, 50
3, 138720, Note_on_c, 0, 50, 0
3, 138720, Note_on_c, 0, 56, 50
3, 138780, Note_on_c, 0, 62, 0
3, 138780, Note_on_c, 0, 60, 50
3, 138840, Note_on_c, 0, 60, 0
3, 138840, Note_on_c, 0, 59, 50
3, 138900, Note_on_c, 0, 59, 0
3, 138900, Note_on_c, 0, 62, 50
3, 138960, Note_on_c, 0, 62, 0
3, 138960, Note_on_c, 0, 56, 0
3, 138960, Note_on_c, 0, 60, 50
3, 139020, Note_on_c, 0, 60, 0
3, 139020, Note_on_c, 0, 59, 50
3, 139080, Note_on_c, 0, 59, 0
3, 139080, Note_on_c, 0, 57, 50
3, 139080, Note_on_c, 0, 52, 50
3, 139140, Note_on_c, 0, 57, 0
3, 139140, Note_on_c, 0, 56, 50
3, 139200, Note_on_c, 0, 56, 0
3, 139200, Note_on_c, 0, 52, 0
3, 139200, Note_on_c, 0, 57, 60
3, 139200, Note_on_c, 0, 57, 50
3, 139320, Note_on_c, 0, 57, 0
3, 139320, Note_on_c, 0, 53, 50
3, 139378, Note_on_c, 0, 57, 0
3, 139380, Note_on_c, 0, 59, 60
3, 139438, Note_on_c, 0, 59, 0
3, 139440, Note_on_c, 0, 53, 0
3, 139440, Note_on_c, 0, 50, 50
3, 139560, Note_on_c, 0, 50, 0
3, 139560, Note_on_c, 0, 59, 60
3, 139560, Note_on_c, 0, 52, 50
3, 139680, Note_on_c, 0, 52, 0
3, 139680, Note_on_c, 0, 57, 60
3, 139680, Note_on_c, 0, 45, 60
3, 139798, Note_on_c, 0, 59, 0
3, 139920, Note_on_c, 0, 45, 0
3, 139920, Note_on_c, 0, 57, 0
3, 139980, Note_on_c, 0, 62, 50
3, 140040, Note_on_c, 0, 62, 0
3, 140040, Note_on_c, 0, 60, 50
3, 140040, Note_on_c, 0, 57, 50
3, 140100, Note_on_c, 0, 60, 0
3, 140100, Note_on_c, 0, 58, 50
3, 140160, Note_on_c, 0, 58, 0
3, 140160, Note_on_c, 0, 57, 0
3, 140160, Note_on_c, 0, 57, 50
3, 140160, Note_on_c, 0, 53, 50
3, 140400, Note_on_c, 0, 53, 0
3, 140400, Note_on_c, 0, 57, 0
3, 140460, Note_on_c, 0, 58, 50
3, 140520, Note_on_c, 0, 58, 0
3, 140520, Note_on_c, 0, 57, 50
3, 140520, Note_on_c, 0, 53, 50
3, 140580, Note_on_c, 0, 57, 0
3, 140580, Note_on_c, 0, 55, 50
3, 140638, Note_on_c, 0, 55, 0
3, 140638, Note_on_c, 0, 53, 0
3, 140640, Note_on_c, 0, 53, 50
3, 140640, Note_on_c, 0, 50, 50
3, 140880, Note_on_c, 0, 50, 0
3, 140880, Note_on_c, 0, 53, 0
3, 140940, Note_on_c, 0, 67, 50
3, 141000, Note_on_c, 0, 67, 0
3, 141000, Note_on_c, 0, 65, 50
3, 141000, Note_on_c, 0, 62, 50
3, 141060, Note_on_c, 0, 65, 0
3, 141060, Note_on_c, 0, 64, 50
3, 141120, Note_on_c, 0, 64, 0
3, 141120, Note_on_c, 0, 62, 0
3, 141120, Note_on_c, 0, 62, 50
3, 141120, Note_on_c, 0, 58, 50
3, 141360, Note_on_c, 0, 58, 0
3, 141360, Note_on_c, 0, 62, 0
3, 141420, Note_on_c, 0, 63, 50
3, 141480, Note_on_c, 0, 63, 0
3, 141480, Note_on_c, 0, 62, 50
3, 141480, Note_on_c, 0, 58, 50
3, 141540, Note_on_c, 0, 62, 0
3, 141540, Note_on_c, 0, 60, 50
3, 141600, Note_on_c, 0, 60, 0
3, 141600, Note_on_c, 0, 58, 0
3, 141600, Note_on_c, 0, 58, 50
3, 141600, Note_on_c, 0, 55, 50
3, 141720, Note_on_c, 0, 58, 0
3, 141720, Note_on_c, 0, 67, 50
3, 141840, Note_on_c, 0, 67, 0
3, 141840, Note_on_c, 0, 55, 0
3, 141840, Note_on_c, 0, 64, 50
3, 141900, Note_on_c, 0, 57, 50
3, 141960, Note_on_c, 0, 57, 0
3, 141960, Note_on_c, 0, 55, 50
3, 142020, Note_on_c, 0, 55, 0
3, 142020, Note_on_c, 0, 53, 50
3, 142080, Note_on_c, 0, 53, 0
3, 142080, Note_on_c, 0, 64, 0
3, 142080, Note_on_c, 0, 52, 50
3, 142140, Note_on_c, 0, 60, 50
3, 142200, Note_on_c, 0, 60, 0
3, 142200, Note_on_c, 0, 58, 50
3, 142260, Note_on_c, 0, 58, 0
3, 142260, Note_on_c, 0, 57, 50
3, 142320, Note_on_c, 0, 57, 0
3, 142320, Note_on_c, 0, 52, 0
3, 142320, Note_on_c, 0, 55, 50
3, 142380, Note_on_c, 0, 53, 50
3, 142440, Note_on_c, 0, 53, 0
3, 142440, Note_on_c, 0, 52, 50
3, 142500, Note_on_c, 0, 52, 0
3, 142500, Note_on_c, 0, 50, 50
3, 142558, Note_on_c, 0, 50, 0
3, 142558, Note_on_c, 0, 55, 0
3, 142560, Note_on_c, 0, 48, 50
3, 142800, Note_on_c, 0, 48, 0
3, 142860, Note_on_c, 0, 62, 50
3, 142920, Note_on_c, 0, 62, 0
3, 142920, Note_on_c, 0, 60, 50
3, 142980, Note_on_c, 0, 60, 0
3, 142980, Note_on_c, 0, 58, 50
3, 143040, Note_on_c, 0, 58, 0
3, 143040, Note_on_c, 0, 57, 50
3, 143280, Note_on_c, 0, 57, 0
3, 143340, Note_on_c, 0, 58, 50
3, 143400, Note_on_c, 0, 58, 0
3, 143400, Note_on_c, 0, 57, 50
3, 143460, Note_on_c, 0, 57, 0
3, 143460, Note_on_c, 0, 55, 50
3, 143520, Note_on_c, 0, 55, 0
3, 143520, Note_on_c, 0, 57, 50
3, 143520, Note_on_c, 0, 53, 55
3, 143640, Note_on_c, 0, 57, 0
3, 143640, Note_on_c, 0, 59, 50
3, 143760, Note_on_c, 0, 59, 0
3, 143760, Note_on_c, 0, 53, 0
3, 143760, Note_on_c, 0, 60, 50
3, 143760, Note_on_c, 0, 48, 55
3, 143880, Note_on_c, 0, 60, 0
3, 143880, Note_on_c, 0, 64, 50
3, 144000, Note_on_c, 0, 64, 0
3, 144000, Note_on_c, 0, 48, 0
3, 144000, Note_on_c, 0, 60, 50
3, 144000, Note_on_c, 0, 52, 55
3, 144240, Note_on_c, 0, 52, 0
3, 144240, Note_on_c, 0, 60, 0
3, 144240, Note_on_c, 0, 55, 55
3, 144360, Note_on_c, 0, 64, 50
3, 144480, Note_on_c, 0, 64, 0
3, 144480, Note_on_c, 0, 55, 0
3, 144480, Note_on_c, 0, 60, 50
3, 144480, Note_on_c, 0, 58, 55
3, 144720, Note_on_c, 0, 58, 0
3, 144720, Note_on_c, 0, 60, 0
3, 144720, Note_on_c, 0, 57, 55
3, 144840, Note_on_c, 0, 57, 0
3, 144840, Note_on_c, 0, 63, 50
3, 144840, Note_on_c, 0, 55, 55
3, 144960, Note_on_c, 0, 55, 0
3, 144960, Note_on_c, 0, 63, 0
3, 144960, Note_on_c, 0, 57, 50
3, 144960, Note_on_c, 0, 54, 55
3, 145200, Note_on_c, 0, 57, 0
3, 145260, Note_on_c, 0, 54, 0
3, 145260, Note_on_c, 0, 50, 55
3, 145320, Note_on_c, 0, 50, 0
3, 145320, Note_on_c, 0, 52, 55
3, 145380, Note_on_c, 0, 52, 0
3, 145380, Note_on_c, 0, 54, 55
3, 145440, Note_on_c, 0, 54, 0
3, 145440, Note_on_c, 0, 62, 50
3, 145440, Note_on_c, 0, 55, 55
3, 145560, Note_on_c, 0, 55, 0
3, 145560, Note_on_c, 0, 50, 50
3, 145680, Note_on_c, 0, 50, 0
3, 145680, Note_on_c, 0, 62, 0
3, 145680, Note_on_c, 0, 55, 50
3, 145680, Note_on_c, 0, 46, 50
3, 145918, Note_on_c, 0, 46, 0
3, 145918, Note_on_c, 0, 55, 0
3, 145920, Note_on_c, 0, 58, 50
3, 146040, Note_on_c, 0, 50, 50
3, 146160, Note_on_c, 0, 50, 0
3, 146160, Note_on_c, 0, 58, 0
3, 146160, Note_on_c, 0, 41, 50
3, 146160, Note_on_c, 0, 46, 50
3, 146398, Note_on_c, 0, 46, 0
3, 146398, Note_on_c, 0, 41, 0
3, 146460, Note_on_c, 0, 69, 50
3, 146460, Note_on_c, 0, 48, 50
3, 146520, Note_on_c, 0, 48, 0
3, 146520, Note_on_c, 0, 69, 0
3, 146520, Note_on_c, 0, 68, 50
3, 146520, Note_on_c, 0, 47, 50
3, 146580, Note_on_c, 0, 47, 0
3, 146580, Note_on_c, 0, 68, 0
3, 146580, Note_on_c, 0, 69, 50
3, 146580, Note_on_c, 0, 45, 50
3, 146640, Note_on_c, 0, 45, 0
3, 146640, Note_on_c, 0, 69, 0
3, 146640, Note_on_c, 0, 64, 50
3, 146640, Note_on_c, 0, 44, 50
3, 146700, Note_on_c, 0, 44, 0
3, 146700, Note_on_c, 0, 40, 50
3, 146760, Note_on_c, 0, 40, 0
3, 146760, Note_on_c, 0, 64, 0
3, 146760, Note_on_c, 0, 42, 50
3, 146761, Note_on_c, 0, 62, 50
3, 146820, Note_on_c, 0, 42, 0
3, 146820, Note_on_c, 0, 44, 50
3, 146879, Note_on_c, 0, 62, 0
3, 146880, Note_on_c, 0, 44, 0
3, 146880, Note_on_c, 0, 61, 50
3, 146880, Note_on_c, 0, 43, 50
3, 146940, Note_on_c, 0, 43, 0
3, 146940, Note_on_c, 0, 57, 50
3, 147000, Note_on_c, 0, 57, 0
3, 147000, Note_on_c, 0, 55, 50
3, 147060, Note_on_c, 0, 55, 0
3, 147060, Note_on_c, 0, 53, 50
3, 147120, Note_on_c, 0, 53, 0
3, 147120, Note_on_c, 0, 61, 0
3, 147120, Note_on_c, 0, 52, 50
3, 147180, Note_on_c, 0, 52, 0
3, 147180, Note_on_c, 0, 57, 50
3, 147180, Note_on_c, 0, 53, 50
3, 147240, Note_on_c, 0, 53, 0
3, 147240, Note_on_c, 0, 57, 0
3, 147240, Note_on_c, 0, 59, 50
3, 147240, Note_on_c, 0, 55, 50
3, 147300, Note_on_c, 0, 55, 0
3, 147300, Note_on_c, 0, 59, 0
3, 147300, Note_on_c, 0, 61, 50
3, 147300, Note_on_c, 0, 52, 50
3, 147360, Note_on_c, 0, 52, 0
3, 147360, Note_on_c, 0, 61, 0
3, 147360, Note_on_c, 0, 62, 50
3, 147360, Note_on_c, 0, 53, 50
3, 147420, Note_on_c, 0, 53, 0
3, 147420, Note_on_c, 0, 55, 50
3, 147480, Note_on_c, 0, 55, 0
3, 147480, Note_on_c, 0, 62, 0
3, 147480, Note_on_c, 0, 57, 50
3, 147480, Note_on_c, 0, 53, 50
3, 147540, Note_on_c, 0, 53, 0
3, 147540, Note_on_c, 0, 52, 50
3, 147600, Note_on_c, 0, 52, 0
3, 147600, Note_on_c, 0, 57, 0
3, 147600, Note_on_c, 0, 65, 50
3, 147600, Note_on_c, 0, 50, 50
3, 147660, Note_on_c, 0, 50, 0
3, 147660, Note_on_c, 0, 48, 50
3, 147720, Note_on_c, 0, 48, 0
3, 147720, Note_on_c, 0, 46, 50
3, 147780, Note_on_c, 0, 46, 0
3, 147780, Note_on_c, 0, 45, 50
3, 147840, Note_on_c, 0, 45, 0
3, 147840, Note_on_c, 0, 65, 0
3, 147840, Note_on_c, 0, 43, 50
3, 147900, Note_on_c, 0, 43, 0
3, 147900, Note_on_c, 0, 45, 50
3, 147960, Note_on_c, 0, 45, 0
3, 147960, Note_on_c, 0, 55, 50
3, 147960, Note_on_c, 0, 46, 50
3, 148020, Note_on_c, 0, 46, 0
3, 148020, Note_on_c, 0, 43, 50
3, 148080, Note_on_c, 0, 43, 0
3, 148080, Note_on_c, 0, 55, 0
3, 148080, Note_on_c, 0, 64, 50
3, 148080, Note_on_c, 0, 48, 50
3, 148140, Note_on_c, 0, 48, 0
3, 148140, Note_on_c, 0, 50, 50
3, 148200, Note_on_c, 0, 50, 0
3, 148200, Note_on_c, 0, 52, 50
3, 148260, Note_on_c, 0, 52, 0
3, 148260, Note_on_c, 0, 48, 50
3, 148320, Note_on_c, 0, 48, 0
3, 148320, Note_on_c, 0, 53, 50
3, 148380, Note_on_c, 0, 53, 0
3, 148380, Note_on_c, 0, 55, 50
3, 148440, Note_on_c, 0, 55, 0
3, 148440, Note_on_c, 0, 64, 0
3, 148440, Note_on_c, 0, 65, 50
3, 148440, Note_on_c, 0, 57, 50
3, 148500, Note_on_c, 0, 57, 0
3, 148500, Note_on_c, 0, 53, 50
3, 148560, Note_on_c, 0, 53, 0
3, 148560, Note_on_c, 0, 65, 0
3, 148560, Note_on_c, 0, 62, 50
3, 148560, Note_on_c, 0, 58, 50
3, 148620, Note_on_c, 0, 58, 0
3, 148620, Note_on_c, 0, 57, 50
3, 148680, Note_on_c, 0, 57, 0
3, 148680, Note_on_c, 0, 55, 50
3, 148740, Note_on_c, 0, 55, 0
3, 148740, Note_on_c, 0, 53, 50
3, 148800, Note_on_c, 0, 53, 0
3, 148800, Note_on_c, 0, 52, 50
3, 148860, Note_on_c, 0, 52, 0
3, 148860, Note_on_c, 0, 62, 0
3, 148860, Note_on_c, 0, 65, 50
3, 148860, Note_on_c, 0, 50, 50
3, 148920, Note_on_c, 0, 50, 0
3, 148920, Note_on_c, 0, 65, 0
3, 148920, Note_on_c, 0, 64, 50
3, 148920, Note_on_c, 0, 49, 50
3, 148980, Note_on_c, 0, 49, 0
3, 148980, Note_on_c, 0, 64, 0
3, 148980, Note_on_c, 0, 62, 50
3, 148980, Note_on_c, 0, 47, 50
3, 149040, Note_on_c, 0, 47, 0
3, 149040, Note_on_c, 0, 62, 0
3, 149040, Note_on_c, 0, 61, 50
3, 149040, Note_on_c, 0, 45, 50
3, 149100, Note_on_c, 0, 45, 0
3, 149100, Note_on_c, 0, 43, 50
3, 149160, Note_on_c, 0, 43, 0
3, 149160, Note_on_c, 0, 41, 50
3, 149220, Note_on_c, 0, 41, 0
3, 149220, Note_on_c, 0, 40, 50
3, 149280, Note_on_c, 0, 40, 0
3, 149280, Note_on_c, 0, 61, 0
3, 149280, Note_on_c, 0, 60, 50
3, 149280, Note_on_c, 0, 41, 50
3, 149340, Note_on_c, 0, 60, 0
3, 149340, Note_on_c, 0, 63, 50
3, 149400, Note_on_c, 0, 63, 0
3, 149400, Note_on_c, 0, 41, 0
3, 149400, Note_on_c, 0, 62, 50
3, 149400, Note_on_c, 0, 57, 50
3, 149460, Note_on_c, 0, 62, 0
3, 149460, Note_on_c, 0, 61, 50
3, 149520, Note_on_c, 0, 61, 0
3, 149520, Note_on_c, 0, 57, 0
3, 149520, Note_on_c, 0, 62, 50
3, 149520, Note_on_c, 0, 53, 50
3, 149580, Note_on_c, 0, 62, 0
3, 149580, Note_on_c, 0, 67, 50
3, 149640, Note_on_c, 0, 67, 0
3, 149640, Note_on_c, 0, 53, 0
3, 149640, Note_on_c, 0, 65, 50
3, 149640, Note_on_c, 0, 50, 50
3, 149700, Note_on_c, 0, 65, 0
3, 149700, Note_on_c, 0, 64, 50
3, 149760, Note_on_c, 0, 64, 0
3, 149760, Note_on_c, 0, 50, 0
3, 149760, Note_on_c, 0, 62, 50
3, 149820, Note_on_c, 0, 62, 0
3, 149820, Note_on_c, 0, 63, 50
3, 149880, Note_on_c, 0, 63, 0
3, 149880, Note_on_c, 0, 62, 50
3, 149880, Note_on_c, 0, 45, 50
3, 149940, Note_on_c, 0, 62, 0
3, 149940, Note_on_c, 0, 61, 50
3, 150000, Note_on_c, 0, 61, 0
3, 150000, Note_on_c, 0, 45, 0
3, 150000, Note_on_c, 0, 62, 50
3, 150000, Note_on_c, 0, 41, 50
3, 150060, Note_on_c, 0, 62, 0
3, 150060, Note_on_c, 0, 67, 50
3, 150120, Note_on_c, 0, 67, 0
3, 150120, Note_on_c, 0, 41, 0
3, 150120, Note_on_c, 0, 65, 50
3, 150120, Note_on_c, 0, 38, 50
3, 150180, Note_on_c, 0, 65, 0
3, 150180, Note_on_c, 0, 64, 50
3, 150240, Note_on_c, 0, 64, 0
3, 150240, Note_on_c, 0, 38, 0
3, 150240, Note_on_c, 0, 63, 50
3, 150300, Note_on_c, 0, 63, 0
3, 150300, Note_on_c, 0, 64, 50
3, 150300, Note_on_c, 0, 55, 50
3, 150360, Note_on_c, 0, 55, 0
3, 150360, Note_on_c, 0, 64, 0
3, 150360, Note_on_c, 0, 63, 50
3, 150360, Note_on_c, 0, 54, 50
3, 150420, Note_on_c, 0, 54, 0
3, 150420, Note_on_c, 0, 63, 0
3, 150420, Note_on_c, 0, 64, 50
3, 150420, Note_on_c, 0, 52, 50
3, 150480, Note_on_c, 0, 52, 0
3, 150480, Note_on_c, 0, 64, 0
3, 150480, Note_on_c, 0, 66, 50
3, 150480, Note_on_c, 0, 51, 50
3, 150540, Note_on_c, 0, 51, 0
3, 150540, Note_on_c, 0, 66, 0
3, 150540, Note_on_c, 0, 64, 50
3, 150540, Note_on_c, 0, 49, 50
3, 150600, Note_on_c, 0, 49, 0
3, 150600, Note_on_c, 0, 64, 0
3, 150600, Note_on_c, 0, 66, 50
3, 150600, Note_on_c, 0, 51, 50
3, 150660, Note_on_c, 0, 51, 0
3, 150660, Note_on_c, 0, 66, 0
3, 150660, Note_on_c, 0, 63, 50
3, 150660, Note_on_c, 0, 47, 50
3, 150720, Note_on_c, 0, 47, 0
3, 150720, Note_on_c, 0, 63, 0
3, 150720, Note_on_c, 0, 59, 50
3, 150720, Note_on_c, 0, 52, 50
3, 150780, Note_on_c, 0, 59, 0
3, 150780, Note_on_c, 0, 60, 50
3, 150840, Note_on_c, 0, 60, 0
3, 150840, Note_on_c, 0, 52, 0
3, 150840, Note_on_c, 0, 59, 50
3, 150840, Note_on_c, 0, 40, 50
3, 150900, Note_on_c, 0, 59, 0
3, 150900, Note_on_c, 0, 60, 50
3, 150960, Note_on_c, 0, 60, 0
3, 150960, Note_on_c, 0, 40, 0
3, 150960, Note_on_c, 0, 62, 50
3, 150960, Note_on_c, 0, 47, 50
3, 151080, Note_on_c, 0, 47, 0
3, 151080, Note_on_c, 0, 62, 0
3, 151080, Note_on_c, 0, 59, 50
3, 151080, Note_on_c, 0, 50, 50
3, 151200, Note_on_c, 0, 50, 0
3, 151200, Note_on_c, 0, 59, 0
3, 151200, Note_on_c, 0, 57, 50
3, 151200, Note_on_c, 0, 48, 50
3, 151320, Note_on_c, 0, 48, 0
3, 151320, Note_on_c, 0, 57, 0
3, 151320, Note_on_c, 0, 64, 50
3, 151440, Note_on_c, 0, 64, 0
3, 151440, Note_on_c, 0, 60, 50
3, 151560, Note_on_c, 0, 60, 0
3, 151560, Note_on_c, 0, 57, 50
3, 151680, Note_on_c, 0, 57, 0
3, 151680, Note_on_c, 0, 54, 50
3, 151800, Note_on_c, 0, 64, 50
3, 151920, Note_on_c, 0, 64, 0
3, 151920, Note_on_c, 0, 54, 0
3, 151920, Note_on_c, 0, 60, 50
3, 152040, Note_on_c, 0, 60, 0
3, 152040, Note_on_c, 0, 64, 50
3, 152040, Note_on_c, 0, 57, 50
3, 152158, Note_on_c, 0, 57, 0
3, 152158, Note_on_c, 0, 64, 0
3, 152160, Note_on_c, 0, 53, 50
3, 152280, Note_on_c, 0, 53, 0
3, 152280, Note_on_c, 0, 58, 50
3, 152280, Note_on_c, 0, 49, 50
3, 152400, Note_on_c, 0, 49, 0
3, 152400, Note_on_c, 0, 58, 0
3, 152400, Note_on_c, 0, 46, 50
3, 152520, Note_on_c, 0, 46, 0
3, 152520, Note_on_c, 0, 54, 50
3, 152520, Note_on_c, 0, 42, 50
3, 152580, Note_on_c, 0, 54, 0
3, 152580, Note_on_c, 0, 55, 50
3, 152640, Note_on_c, 0, 55, 0
3, 152640, Note_on_c, 0, 42, 0
3, 152640, Note_on_c, 0, 57, 50
3, 152760, Note_on_c, 0, 47, 50
3, 152880, Note_on_c, 0, 47, 0
3, 152880, Note_on_c, 0, 57, 0
3, 152880, Note_on_c, 0, 54, 50
3, 153000, Note_on_c, 0, 54, 0
3, 153000, Note_on_c, 0, 59, 50
3, 153000, Note_on_c, 0, 57, 50
3, 153180, Note_on_c, 0, 59, 0
3, 153180, Note_on_c, 0, 60, 50
3, 153240, Note_on_c, 0, 60, 0
3, 153240, Note_on_c, 0, 57, 0
3, 153240, Note_on_c, 0, 62, 50
3, 153240, Note_on_c, 0, 56, 50
3, 153300, Note_on_c, 0, 62, 0
3, 153300, Note_on_c, 0, 59, 50
3, 153360, Note_on_c, 0, 59, 0
3, 153360, Note_on_c, 0, 56, 0
3, 153360, Note_on_c, 0, 60, 50
3, 153360, Note_on_c, 0, 57, 50
3, 153480, Note_on_c, 0, 60, 0
3, 153480, Note_on_c, 0, 61, 50
3, 153600, Note_on_c, 0, 61, 0
3, 153600, Note_on_c, 0, 57, 0
3, 153600, Note_on_c, 0, 62, 50
3, 153660, Note_on_c, 0, 59, 50
3, 153720, Note_on_c, 0, 59, 0
3, 153720, Note_on_c, 0, 60, 50
3, 153780, Note_on_c, 0, 60, 0
3, 153780, Note_on_c, 0, 57, 50
3, 153840, Note_on_c, 0, 57, 0
3, 153840, Note_on_c, 0, 59, 50
3, 153960, Note_on_c, 0, 59, 0
3, 153960, Note_on_c, 0, 62, 0
3, 153960, Note_on_c, 0, 60, 50
3, 153960, Note_on_c, 0, 57, 50
3, 154080, Note_on_c, 0, 57, 0
3, 154080, Note_on_c, 0, 60, 0
3, 154080, Note_on_c, 0, 59, 50
3, 154080, Note_on_c, 0, 56, 50
3, 154200, Note_on_c, 0, 56, 0
3, 154200, Note_on_c, 0, 59, 0
3, 154200, Note_on_c, 0, 64, 50
3, 154200, Note_on_c, 0, 52, 50
3, 154320, Note_on_c, 0, 52, 0
3, 154320, Note_on_c, 0, 64, 0
3, 154320, Note_on_c, 0, 60, 50
3, 154320, Note_on_c, 0, 53, 50
3, 154380, Note_on_c, 0, 60, 0
3, 154380, Note_on_c, 0, 59, 50
3, 154440, Note_on_c, 0, 59, 0
3, 154440, Note_on_c, 0, 53, 0
3, 154440, Note_on_c, 0, 60, 50
3, 154440, Note_on_c, 0, 54, 50
3, 154560, Note_on_c, 0, 54, 0
3, 154560, Note_on_c, 0, 60, 0
3, 154560, Note_on_c, 0, 57, 50
3, 154680, Note_on_c, 0, 57, 0
3, 154680, Note_on_c, 0, 62, 50
3, 154680, Note_on_c, 0, 55, 50
3, 154800, Note_on_c, 0, 62, 0
3, 154800, Note_on_c, 0, 63, 50
3, 154920, Note_on_c, 0, 63, 0
3, 154920, Note_on_c, 0, 55, 0
3, 154920, Note_on_c, 0, 65, 50
3, 154920, Note_on_c, 0, 56, 50
3, 155040, Note_on_c, 0, 65, 0
3, 155040, Note_on_c, 0, 65, 50
3, 155100, Note_on_c, 0, 65, 0
3, 155100, Note_on_c, 0, 58, 50
3, 155160, Note_on_c, 0, 58, 0
3, 155160, Note_on_c, 0, 56, 0
3, 155160, Note_on_c, 0, 60, 50
3, 155160, Note_on_c, 0, 57, 50
3, 155220, Note_on_c, 0, 60, 0
3, 155220, Note_on_c, 0, 62, 50
3, 155280, Note_on_c, 0, 62, 0
3, 155280, Note_on_c, 0, 63, 50
3, 155340, Note_on_c, 0, 57, 0
3, 155340, Note_on_c, 0, 55, 50
3, 155400, Note_on_c, 0, 55, 0
3, 155400, Note_on_c, 0, 54, 50
3, 155460, Note_on_c, 0, 54, 0
3, 155460, Note_on_c, 0, 57, 50
3, 155520, Note_on_c, 0, 57, 0
3, 155520, Note_on_c, 0, 55, 50
3, 155580, Note_on_c, 0, 63, 0
3, 155580, Note_on_c, 0, 62, 50
3, 155760, Note_on_c, 0, 62, 0
3, 155760, Note_on_c, 0, 55, 0
3, 155880, Note_on_c, 0, 55, 50
3, 155880, Note_on_c, 0, 43, 50
3, 156000, Note_on_c, 0, 48, 50
3, 156058, Note_on_c, 0, 55, 0
3, 156060, Note_on_c, 0, 55, 50
3, 156118, Note_on_c, 0, 55, 0
3, 156120, Note_on_c, 0, 43, 0
3, 156120, Note_on_c, 0, 57, 50
3, 156180, Note_on_c, 0, 57, 0
3, 156180, Note_on_c, 0, 59, 50
3, 156240, Note_on_c, 0, 59, 0
3, 156240, Note_on_c, 0, 48, 0
3, 156240, Note_on_c, 0, 60, 50
3, 156300, Note_on_c, 0, 48, 50
3, 156360, Note_on_c, 0, 48, 0
3, 156360, Note_on_c, 0, 60, 0
3, 156360, Note_on_c, 0, 50, 50
3, 156420, Note_on_c, 0, 50, 0
3, 156420, Note_on_c, 0, 52, 50
3, 156480, Note_on_c, 0, 52, 0
3, 156480, Note_on_c, 0, 53, 50
3, 156600, Note_on_c, 0, 60, 50
3, 156720, Note_on_c, 0, 60, 0
3, 156720, Note_on_c, 0, 53, 0
3, 156720, Note_on_c, 0, 57, 50
3, 156780, Note_on_c, 0, 55, 50
3, 156840, Note_on_c, 0, 55, 0
3, 156840, Note_on_c, 0, 53, 50
3, 156900, Note_on_c, 0, 53, 0
3, 156900, Note_on_c, 0, 52, 50
3, 156960, Note_on_c, 0, 52, 0
3, 156960, Note_on_c, 0, 57, 0
3, 156960, Note_on_c, 0, 50, 50
3, 157020, Note_on_c, 0, 57, 50
3, 157080, Note_on_c, 0, 57, 0
3, 157080, Note_on_c, 0, 59, 50
3, 157140, Note_on_c, 0, 59, 0
3, 157140, Note_on_c, 0, 61, 50
3, 157200, Note_on_c, 0, 61, 0
3, 157200, Note_on_c, 0, 50, 0
3, 157200, Note_on_c, 0, 62, 50
3, 157260, Note_on_c, 0, 50, 50
3, 157320, Note_on_c, 0, 50, 0
3, 157320, Note_on_c, 0, 62, 0
3, 157320, Note_on_c, 0, 52, 50
3, 157380, Note_on_c, 0, 52, 0
3, 157380, Note_on_c, 0, 53, 50
3, 157440, Note_on_c, 0, 53, 0
3, 157440, Note_on_c, 0, 55, 50
3, 157560, Note_on_c, 0, 62, 50
3, 157680, Note_on_c, 0, 62, 0
3, 157680, Note_on_c, 0, 55, 0
3, 157680, Note_on_c, 0, 59, 50
3, 157740, Note_on_c, 0, 57, 50
3, 157800, Note_on_c, 0, 57, 0
3, 157800, Note_on_c, 0, 55, 50
3, 157860, Note_on_c, 0, 55, 0
3, 157860, Note_on_c, 0, 53, 50
3, 157920, Note_on_c, 0, 53, 0
3, 157920, Note_on_c, 0, 59, 0
3, 157920, Note_on_c, 0, 52, 50
3, 157980, Note_on_c, 0, 59, 50
3, 158040, Note_on_c, 0, 59, 0
3, 158040, Note_on_c, 0, 61, 50
3, 158100, Note_on_c, 0, 61, 0
3, 158100, Note_on_c, 0, 62, 50
3, 158160, Note_on_c, 0, 62, 0
3, 158160, Note_on_c, 0, 52, 0
3, 158160, Note_on_c, 0, 64, 50
3, 158220, Note_on_c, 0, 52, 50
3, 158280, Note_on_c, 0, 52, 0
3, 158280, Note_on_c, 0, 64, 0
3, 158280, Note_on_c, 0, 70, 50
3, 158280, Note_on_c, 0, 53, 50
3, 158340, Note_on_c, 0, 53, 0
3, 158340, Note_on_c, 0, 55, 50
3, 158400, Note_on_c, 0, 55, 0
3, 158400, Note_on_c, 0, 70, 0
3, 158400, Note_on_c, 0, 64, 50
3, 158400, Note_on_c, 0, 57, 50
3, 158460, Note_on_c, 0, 64, 0
3, 158460, Note_on_c, 0, 62, 50
3, 158520, Note_on_c, 0, 62, 0
3, 158520, Note_on_c, 0, 64, 50
3, 158640, Note_on_c, 0, 64, 0
3, 158640, Note_on_c, 0, 57, 0
3, 158640, Note_on_c, 0, 61, 50
3, 158760, Note_on_c, 0, 57, 50
3, 158878, Note_on_c, 0, 57, 0
3, 158878, Note_on_c, 0, 61, 0
3, 158880, Note_on_c, 0, 50, 50
3, 159000, Note_on_c, 0, 57, 50
3, 159120, Note_on_c, 0, 57, 0
3, 159120, Note_on_c, 0, 50, 0
3, 159120, Note_on_c, 0, 53, 50
3, 159180, Note_on_c, 0, 50, 50
3, 159240, Note_on_c, 0, 50, 0
3, 159240, Note_on_c, 0, 48, 50
3, 159300, Note_on_c, 0, 48, 0
3, 159300, Note_on_c, 0, 46, 50
3, 159360, Note_on_c, 0, 46, 0
3, 159360, Note_on_c, 0, 53, 0
3, 159360, Note_on_c, 0, 45, 50
3, 159480, Note_on_c, 0, 45, 0
3, 159480, Note_on_c, 0, 60, 50
3, 159600, Note_on_c, 0, 60, 0
3, 159600, Note_on_c, 0, 57, 50
3, 159720, Note_on_c, 0, 57, 0
3, 159720, Note_on_c, 0, 60, 50
3, 159720, Note_on_c, 0, 53, 50
3, 159840, Note_on_c, 0, 53, 0
3, 159840, Note_on_c, 0, 60, 0
3, 159840, Note_on_c, 0, 46, 50
3, 159960, Note_on_c, 0, 53, 50
3, 160080, Note_on_c, 0, 53, 0
3, 160080, Note_on_c, 0, 46, 0
3, 160080, Note_on_c, 0, 50, 50
3, 160140, Note_on_c, 0, 46, 50
3, 160200, Note_on_c, 0, 46, 0
3, 160200, Note_on_c, 0, 45, 50
3, 160260, Note_on_c, 0, 45, 0
3, 160260, Note_on_c, 0, 43, 50
3, 160320, Note_on_c, 0, 43, 0
3, 160320, Note_on_c, 0, 50, 0
3, 160320, Note_on_c, 0, 42, 50
3, 160440, Note_on_c, 0, 42, 0
3, 160440, Note_on_c, 0, 57, 50
3, 160560, Note_on_c, 0, 57, 0
3, 160560, Note_on_c, 0, 54, 50
3, 160680, Note_on_c, 0, 54, 0
3, 160680, Note_on_c, 0, 57, 50
3, 160680, Note_on_c, 0, 50, 50
3, 160800, Note_on_c, 0, 50, 0
3, 160800, Note_on_c, 0, 57, 0
3, 160800, Note_on_c, 0, 43, 50
3, 160920, Note_on_c, 0, 43, 0
3, 160920, Note_on_c, 0, 55, 50
3, 160920, Note_on_c, 0, 45, 50
3, 160980, Note_on_c, 0, 55, 0
3, 160980, Note_on_c, 0, 54, 50
3, 161040, Note_on_c, 0, 54, 0
3, 161040, Note_on_c, 0, 45, 0
3, 161040, Note_on_c, 0, 55, 50
3, 161040, Note_on_c, 0, 46, 50
3, 161160, Note_on_c, 0, 46, 0
3, 161160, Note_on_c, 0, 43, 50
3, 161280, Note_on_c, 0, 43, 0
3, 161280, Note_on_c, 0, 48, 50
3, 161340, Note_on_c, 0, 55, 0
3, 161340, Note_on_c, 0, 54, 57
3, 161400, Note_on_c, 0, 54, 0
3, 161400, Note_on_c, 0, 48, 0
3, 161400, Note_on_c, 0, 55, 57
3, 161400, Note_on_c, 0, 51, 50
3, 161460, Note_on_c, 0, 55, 0
3, 161460, Note_on_c, 0, 58, 57
3, 161520, Note_on_c, 0, 58, 0
3, 161520, Note_on_c, 0, 51, 0
3, 161520, Note_on_c, 0, 57, 57
3, 161520, Note_on_c, 0, 48, 50
3, 161640, Note_on_c, 0, 48, 0
3, 161640, Note_on_c, 0, 45, 50
3, 161760, Note_on_c, 0, 45, 0
3, 161760, Note_on_c, 0, 57, 0
3, 161760, Note_on_c, 0, 50, 50
3, 161820, Note_on_c, 0, 55, 57
3, 161880, Note_on_c, 0, 55, 0
3, 161880, Note_on_c, 0, 50, 0
3, 161880, Note_on_c, 0, 57, 57
3, 161880, Note_on_c, 0, 54, 50
3, 161940, Note_on_c, 0, 57, 0
3, 161940, Note_on_c, 0, 60, 57
3, 162000, Note_on_c, 0, 60, 0
3, 162000, Note_on_c, 0, 54, 0
3, 162000, Note_on_c, 0, 58, 57
3, 162000, Note_on_c, 0, 50, 50
3, 162120, Note_on_c, 0, 50, 0
3, 162120, Note_on_c, 0, 46, 50
3, 162240, Note_on_c, 0, 46, 0
3, 162240, Note_on_c, 0, 51, 50
3, 162300, Note_on_c, 0, 58, 0
3, 162300, Note_on_c, 0, 57, 58
3, 162360, Note_on_c, 0, 57, 0
3, 162360, Note_on_c, 0, 51, 0
3, 162360, Note_on_c, 0, 58, 59
3, 162360, Note_on_c, 0, 55, 50
3, 162420, Note_on_c, 0, 58, 0
3, 162420, Note_on_c, 0, 62, 60
3, 162480, Note_on_c, 0, 62, 0
3, 162480, Note_on_c, 0, 55, 0
3, 162480, Note_on_c, 0, 60, 60
3, 162480, Note_on_c, 0, 52, 50
3, 162600, Note_on_c, 0, 52, 0
3, 162600, Note_on_c, 0, 48, 50
3, 162720, Note_on_c, 0, 48, 0
3, 162720, Note_on_c, 0, 53, 50
3, 162780, Note_on_c, 0, 60, 0
3, 162780, Note_on_c, 0, 58, 60
3, 162840, Note_on_c, 0, 58, 0
3, 162840, Note_on_c, 0, 53, 0
3, 162840, Note_on_c, 0, 60, 62
3, 162840, Note_on_c, 0, 57, 50
3, 162900, Note_on_c, 0, 60, 0
3, 162900, Note_on_c, 0, 63, 62
3, 162960, Note_on_c, 0, 63, 0
3, 162960, Note_on_c, 0, 57, 0
3, 162960, Note_on_c, 0, 62, 60
3, 162960, Note_on_c, 0, 54, 50
3, 163020, Note_on_c, 0, 62, 0
3, 163020, Note_on_c, 0, 60, 58
3, 163080, Note_on_c, 0, 60, 0
3, 163080, Note_on_c, 0, 54, 0
3, 163080, Note_on_c, 0, 58, 50
3, 163080, Note_on_c, 0, 50, 50
3, 163140, Note_on_c, 0, 58, 0
3, 163140, Note_on_c, 0, 57, 57
3, 163200, Note_on_c, 0, 57, 0
3, 163200, Note_on_c, 0, 50, 0
3, 163200, Note_on_c, 0, 58, 57
3, 163200, Note_on_c, 0, 55, 50
3, 163320, Note_on_c, 0, 55, 0
3, 163320, Note_on_c, 0, 51, 50
3, 163380, Note_on_c, 0, 58, 0
3, 163380, Note_on_c, 0, 60, 56
3, 163440, Note_on_c, 0, 51, 0
3, 163440, Note_on_c, 0, 57, 55
3, 163440, Note_on_c, 0, 48, 50
3, 163500, Note_on_c, 0, 60, 0
3, 163560, Note_on_c, 0, 48, 0
3, 163560, Note_on_c, 0, 50, 50
3, 163680, Note_on_c, 0, 50, 0
3, 163680, Note_on_c, 0, 57, 0
3, 163680, Note_on_c, 0, 55, 54
3, 163680, Note_on_c, 0, 55, 50
3, 163740, Note_on_c, 0, 55, 0
3, 163740, Note_on_c, 0, 63, 50
3, 163800, Note_on_c, 0, 63, 0
3, 163800, Note_on_c, 0, 55, 0
3, 163800, Note_on_c, 0, 62, 50
3, 163800, Note_on_c, 0, 58, 50
3, 163860, Note_on_c, 0, 62, 0
3, 163860, Note_on_c, 0, 60, 50
3, 163920, Note_on_c, 0, 60, 0
3, 163920, Note_on_c, 0, 58, 0
3, 163920, Note_on_c, 0, 58, 50
3, 163920, Note_on_c, 0, 55, 50
3, 164160, Note_on_c, 0, 55, 0
3, 164160, Note_on_c, 0, 58, 0
3, 164220, Note_on_c, 0, 60, 50
3, 164280, Note_on_c, 0, 60, 0
3, 164280, Note_on_c, 0, 58, 50
3, 164280, Note_on_c, 0, 55, 50
3, 164340, Note_on_c, 0, 58, 0
3, 164340, Note_on_c, 0, 57, 50
3, 164400, Note_on_c, 0, 57, 0
3, 164400, Note_on_c, 0, 55, 0
3, 164400, Note_on_c, 0, 55, 50
3, 164400, Note_on_c, 0, 52, 50
3, 164638, Note_on_c, 0, 52, 0
3, 164638, Note_on_c, 0, 55, 0
3, 164700, Note_on_c, 0, 62, 50
3, 164760, Note_on_c, 0, 62, 0
3, 164760, Note_on_c, 0, 60, 50
3, 164760, Note_on_c, 0, 57, 50
3, 164820, Note_on_c, 0, 60, 0
3, 164820, Note_on_c, 0, 58, 50
3, 164880, Note_on_c, 0, 58, 0
3, 164880, Note_on_c, 0, 57, 0
3, 164880, Note_on_c, 0, 57, 50
3, 164880, Note_on_c, 0, 53, 50
3, 165120, Note_on_c, 0, 53, 0
3, 165120, Note_on_c, 0, 57, 0
3, 165180, Note_on_c, 0, 58, 50
3, 165240, Note_on_c, 0, 58, 0
3, 165240, Note_on_c, 0, 57, 50
3, 165240, Note_on_c, 0, 53, 50
3, 165300, Note_on_c, 0, 57, 0
3, 165300, Note_on_c, 0, 55, 50
3, 165360, Note_on_c, 0, 55, 0
3, 165360, Note_on_c, 0, 53, 0
3, 165360, Note_on_c, 0, 53, 50
3, 165360, Note_on_c, 0, 50, 50
3, 165600, Note_on_c, 0, 53, 0
3, 165600, Note_on_c, 0, 57, 50
3, 165720, Note_on_c, 0, 50, 0
3, 165720, Note_on_c, 0, 53, 50
3, 165840, Note_on_c, 0, 57, 0
3, 165840, Note_on_c, 0, 50, 60
3, 165960, Note_on_c, 0, 53, 0
3, 165960, Note_on_c, 0, 46, 50
3, 166080, Note_on_c, 0, 50, 0
3, 166080, Note_on_c, 0, 53, 60
3, 166200, Note_on_c, 0, 46, 0
3, 166200, Note_on_c, 0, 50, 50
3, 166320, Note_on_c, 0, 53, 0
3, 166320, Note_on_c, 0, 57, 60
3, 166440, Note_on_c, 0, 50, 0
3, 166440, Note_on_c, 0, 53, 50
3, 166560, Note_on_c, 0, 57, 0
3, 166560, Note_on_c, 0, 58, 60
3, 166680, Note_on_c, 0, 53, 0
3, 166680, Note_on_c, 0, 55, 50
3, 166800, Note_on_c, 0, 58, 0
3, 166800, Note_on_c, 0, 57, 60
3, 166860, Note_on_c, 0, 55, 0
3, 166860, Note_on_c, 0, 53, 50
3, 166920, Note_on_c, 0, 57, 0
3, 166920, Note_on_c, 0, 55, 60
3, 166980, Note_on_c, 0, 53, 0
3, 166980, Note_on_c, 0, 52, 50
3, 167040, Note_on_c, 0, 52, 0
3, 167040, Note_on_c, 0, 55, 0
3, 167040, Note_on_c, 0, 53, 60
3, 167040, Note_on_c, 0, 50, 50
3, 167280, Note_on_c, 0, 50, 0
3, 167340, Note_on_c, 0, 53, 0
3, 167340, Note_on_c, 0, 52, 60
3, 167340, Note_on_c, 0, 49, 50
3, 167400, Note_on_c, 0, 49, 0
3, 167400, Note_on_c, 0, 52, 0
3, 167400, Note_on_c, 0, 53, 60
3, 167401, Note_on_c, 0, 50, 50
3, 167458, Note_on_c, 0, 50, 0
3, 167460, Note_on_c, 0, 53, 0
3, 167460, Note_on_c, 0, 55, 60
3, 167460, Note_on_c, 0, 52, 50
3, 167520, Note_on_c, 0, 52, 0
3, 167520, Note_on_c, 0, 55, 0
3, 167520, Note_on_c, 0, 57, 60
3, 167520, Note_on_c, 0, 53, 50
3, 167580, Note_on_c, 0, 57, 0
3, 167580, Note_on_c, 0, 58, 55
3, 167580, Note_on_c, 0, 57, 55
3, 167640, Note_on_c, 0, 57, 0
3, 167640, Note_on_c, 0, 58, 0
3, 167700, Note_on_c, 0, 56, 55
3, 167760, Note_on_c, 0, 56, 0
3, 167760, Note_on_c, 0, 57, 55
3, 167818, Note_on_c, 0, 53, 0
3, 167820, Note_on_c, 0, 53, 50
3, 167878, Note_on_c, 0, 53, 0
3, 167880, Note_on_c, 0, 52, 50
3, 167940, Note_on_c, 0, 52, 0
3, 167940, Note_on_c, 0, 50, 50
3, 168000, Note_on_c, 0, 50, 0
3, 168000, Note_on_c, 0, 48, 50
3, 168058, Note_on_c, 0, 57, 0
3, 168060, Note_on_c, 0, 57, 50
3, 168118, Note_on_c, 0, 57, 0
3, 168120, Note_on_c, 0, 55, 50
3, 168180, Note_on_c, 0, 55, 0
3, 168180, Note_on_c, 0, 53, 50
3, 168240, Note_on_c, 0, 53, 0
3, 168240, Note_on_c, 0, 52, 50
3, 168300, Note_on_c, 0, 48, 0
3, 168300, Note_on_c, 0, 47, 50
3, 168360, Note_on_c, 0, 52, 0
3, 168360, Note_on_c, 0, 50, 50
3, 168420, Note_on_c, 0, 47, 0
3, 168420, Note_on_c, 0, 46, 50
3, 168480, Note_on_c, 0, 46, 0
3, 168480, Note_on_c, 0, 45, 50
3, 168540, Note_on_c, 0, 50, 0
3, 168540, Note_on_c, 0, 52, 50
3, 168600, Note_on_c, 0, 52, 0
3, 168600, Note_on_c, 0, 50, 50
3, 168660, Note_on_c, 0, 50, 0
3, 168660, Note_on_c, 0, 49, 50
3, 168720, Note_on_c, 0, 49, 0
3, 168720, Note_on_c, 0, 50, 50
3, 168780, Note_on_c, 0, 50, 0
3, 168780, Note_on_c, 0, 52, 50
3, 168840, Note_on_c, 0, 52, 0
3, 168840, Note_on_c, 0, 53, 50
3, 168900, Note_on_c, 0, 53, 0
3, 168900, Note_on_c, 0, 55, 50
3, 168958, Note_on_c, 0, 55, 0
3, 168960, Note_on_c, 0, 57, 50
3, 169018, Note_on_c, 0, 45, 0
3, 169020, Note_on_c, 0, 55, 50
3, 169080, Note_on_c, 0, 55, 0
3, 169080, Note_on_c, 0, 57, 0
3, 169080, Note_on_c, 0, 57, 50
3, 169140, Note_on_c, 0, 57, 0
3, 169140, Note_on_c, 0, 58, 50
3, 169200, Note_on_c, 0, 58, 0
3, 169200, Note_on_c, 0, 57, 50
3, 169260, Note_on_c, 0, 57, 0
3, 169260, Note_on_c, 0, 55, 50
3, 169320, Note_on_c, 0, 55, 0
3, 169320, Note_on_c, 0, 53, 50
3, 169380, Note_on_c, 0, 53, 0
3, 169380, Note_on_c, 0, 52, 50
3, 169440, Note_on_c, 0, 52, 0
3, 169440, Note_on_c, 0, 54, 50
3, 169500, Note_on_c, 0, 60, 50
3, 169560, Note_on_c, 0, 60, 0
3, 169560, Note_on_c, 0, 62, 50
3, 169620, Note_on_c, 0, 62, 0
3, 169620, Note_on_c, 0, 63, 50
3, 169680, Note_on_c, 0, 63, 0
3, 169680, Note_on_c, 0, 54, 0
3, 169680, Note_on_c, 0, 62, 50
3, 169740, Note_on_c, 0, 62, 0
3, 169740, Note_on_c, 0, 60, 50
3, 169800, Note_on_c, 0, 60, 0
3, 169800, Note_on_c, 0, 58, 50
3, 169800, Note_on_c, 0, 50, 50
3, 169860, Note_on_c, 0, 58, 0
3, 169860, Note_on_c, 0, 57, 50
3, 169920, Note_on_c, 0, 57, 0
3, 169920, Note_on_c, 0, 50, 0
3, 169920, Note_on_c, 0, 55, 50
3, 169920, Note_on_c, 0, 43, 50
3, 170040, Note_on_c, 0, 43, 0
3, 170040, Note_on_c, 0, 55, 0
3, 170040, Note_on_c, 0, 62, 50
3, 170160, Note_on_c, 0, 62, 0
3, 170160, Note_on_c, 0, 58, 50
3, 170280, Note_on_c, 0, 55, 50
3, 170400, Note_on_c, 0, 55, 0
3, 170400, Note_on_c, 0, 52, 50
3, 170460, Note_on_c, 0, 58, 0
3, 170460, Note_on_c, 0, 55, 50
3, 170520, Note_on_c, 0, 55, 0
3, 170520, Note_on_c, 0, 57, 50
3, 170580, Note_on_c, 0, 57, 0
3, 170580, Note_on_c, 0, 58, 50
3, 170640, Note_on_c, 0, 58, 0
3, 170640, Note_on_c, 0, 52, 0
3, 170640, Note_on_c, 0, 57, 50
3, 170700, Note_on_c, 0, 57, 0
3, 170700, Note_on_c, 0, 55, 50
3, 170760, Note_on_c, 0, 55, 0
3, 170760, Note_on_c, 0, 53, 50
3, 170760, Note_on_c, 0, 48, 50
3, 170820, Note_on_c, 0, 53, 0
3, 170820, Note_on_c, 0, 52, 50
3, 170880, Note_on_c, 0, 52, 0
3, 170880, Note_on_c, 0, 48, 0
3, 170880, Note_on_c, 0, 53, 50
3, 170880, Note_on_c, 0, 53, 50
3, 171000, Note_on_c, 0, 53, 0
3, 171000, Note_on_c, 0, 48, 50
3, 171120, Note_on_c, 0, 48, 0
3, 171120, Note_on_c, 0, 45, 50
3, 171240, Note_on_c, 0, 45, 0
3, 171240, Note_on_c, 0, 41, 50
3, 171360, Note_on_c, 0, 41, 0
3, 171360, Note_on_c, 0, 46, 50
3, 171420, Note_on_c, 0, 53, 0
3, 171420, Note_on_c, 0, 53, 50
3, 171480, Note_on_c, 0, 53, 0
3, 171480, Note_on_c, 0, 52, 50
3, 171540, Note_on_c, 0, 52, 0
3, 171540, Note_on_c, 0, 50, 50
3, 171600, Note_on_c, 0, 50, 0
3, 171600, Note_on_c, 0, 46, 0
3, 171600, Note_on_c, 0, 52, 50
3, 171601, Note_on_c, 0, 46, 50
3, 171658, Note_on_c, 0, 46, 0
3, 171660, Note_on_c, 0, 45, 50
3, 171720, Note_on_c, 0, 45, 0
3, 171720, Note_on_c, 0, 52, 0
3, 171720, Note_on_c, 0, 55, 50
3, 171720, Note_on_c, 0, 43, 50
3, 171780, Note_on_c, 0, 43, 0
3, 171780, Note_on_c, 0, 46, 50
3, 171840, Note_on_c, 0, 46, 0
3, 171840, Note_on_c, 0, 55, 0
3, 171840, Note_on_c, 0, 45, 50
3, 171900, Note_on_c, 0, 45, 0
3, 171900, Note_on_c, 0, 47, 50
3, 171960, Note_on_c, 0, 47, 0
3, 171960, Note_on_c, 0, 54, 50
3, 171960, Note_on_c, 0, 48, 50
3, 172020, Note_on_c, 0, 54, 0
3, 172020, Note_on_c, 0, 52, 50
3, 172080, Note_on_c, 0, 52, 0
3, 172080, Note_on_c, 0, 54, 50
3, 172140, Note_on_c, 0, 48, 0
3, 172140, Note_on_c, 0, 47, 50
3, 172200, Note_on_c, 0, 47, 0
3, 172200, Note_on_c, 0, 54, 0
3, 172200, Note_on_c, 0, 57, 50
3, 172200, Note_on_c, 0, 45, 50
3, 172260, Note_on_c, 0, 45, 0
3, 172260, Note_on_c, 0, 48, 50
3, 172320, Note_on_c, 0, 48, 0
3, 172320, Note_on_c, 0, 47, 50
3, 172380, Note_on_c, 0, 47, 0
3, 172380, Note_on_c, 0, 49, 50
3, 172440, Note_on_c, 0, 49, 0
3, 172440, Note_on_c, 0, 57, 0
3, 172440, Note_on_c, 0, 56, 50
3, 172440, Note_on_c, 0, 50, 50
3, 172500, Note_on_c, 0, 56, 0
3, 172500, Note_on_c, 0, 54, 50
3, 172560, Note_on_c, 0, 54, 0
3, 172560, Note_on_c, 0, 56, 50
3, 172620, Note_on_c, 0, 50, 0
3, 172620, Note_on_c, 0, 49, 50
3, 172680, Note_on_c, 0, 49, 0
3, 172680, Note_on_c, 0, 56, 0
3, 172680, Note_on_c, 0, 59, 50
3, 172680, Note_on_c, 0, 47, 50
3, 172740, Note_on_c, 0, 47, 0
3, 172740, Note_on_c, 0, 50, 50
3, 172800, Note_on_c, 0, 50, 0
3, 172800, Note_on_c, 0, 49, 50
3, 172860, Note_on_c, 0, 49, 0
3, 172860, Note_on_c, 0, 50, 50
3, 172920, Note_on_c, 0, 50, 0
3, 172920, Note_on_c, 0, 59, 0
3, 172920, Note_on_c, 0, 58, 50
3, 172920, Note_on_c, 0, 52, 50
3, 173040, Note_on_c, 0, 58, 0
3, 173040, Note_on_c, 0, 57, 50
3, 173100, Note_on_c, 0, 52, 0
3, 173100, Note_on_c, 0, 50, 50
3, 173160, Note_on_c, 0, 50, 0
3, 173160, Note_on_c, 0, 49, 50
3, 173220, Note_on_c, 0, 49, 0
3, 173220, Note_on_c, 0, 52, 50
3, 173278, Note_on_c, 0, 52, 0
3, 173278, Note_on_c, 0, 57, 0
3, 173280, Note_on_c, 0, 50, 50
3, 173400, Note_on_c, 0, 50, 0
3, 173400, Note_on_c, 0, 55, 50
3, 173400, Note_on_c, 0, 52, 50
3, 173520, Note_on_c, 0, 52, 0
3, 173520, Note_on_c, 0, 55, 0
3, 173520, Note_on_c, 0, 57, 50
3, 173520, Note_on_c, 0, 53, 50
3, 173640, Note_on_c, 0, 53, 0
3, 173640, Note_on_c, 0, 57, 0
3, 173640, Note_on_c, 0, 62, 50
3, 173640, Note_on_c, 0, 50, 50
3, 173760, Note_on_c, 0, 50, 0
3, 173760, Note_on_c, 0, 55, 50
3, 173880, Note_on_c, 0, 62, 0
3, 173880, Note_on_c, 0, 58, 50
3, 174000, Note_on_c, 0, 58, 0
3, 174000, Note_on_c, 0, 55, 0
3, 174000, Note_on_c, 0, 55, 50
3, 174120, Note_on_c, 0, 55, 0
3, 174120, Note_on_c, 0, 52, 50
3, 174120, Note_on_c, 0, 48, 50
3, 174240, Note_on_c, 0, 48, 0
3, 174240, Note_on_c, 0, 52, 0
3, 174240, Note_on_c, 0, 53, 50
3, 174360, Note_on_c, 0, 57, 50
3, 174480, Note_on_c, 0, 57, 0
3, 174480, Note_on_c, 0, 53, 0
3, 174480, Note_on_c, 0, 53, 50
3, 174600, Note_on_c, 0, 53, 0
3, 174600, Note_on_c, 0, 50, 50
3, 174600, Note_on_c, 0, 41, 50
3, 174720, Note_on_c, 0, 41, 0
3, 174720, Note_on_c, 0, 50, 0
3, 174720, Note_on_c, 0, 46, 50
3, 174840, Note_on_c, 0, 55, 50
3, 174960, Note_on_c, 0, 55, 0
3, 174960, Note_on_c, 0, 51, 50
3, 175020, Note_on_c, 0, 46, 0
3, 175020, Note_on_c, 0, 45, 50
3, 175080, Note_on_c, 0, 45, 0
3, 175080, Note_on_c, 0, 51, 0
3, 175080, Note_on_c, 0, 48, 50
3, 175080, Note_on_c, 0, 46, 50
3, 175140, Note_on_c, 0, 46, 0
3, 175140, Note_on_c, 0, 43, 50
3, 175200, Note_on_c, 0, 43, 0
3, 175200, Note_on_c, 0, 48, 0
3, 175200, Note_on_c, 0, 50, 50
3, 175200, Note_on_c, 0, 46, 50
3, 175260, Note_on_c, 0, 46, 0
3, 175260, Note_on_c, 0, 45, 50
3, 175320, Note_on_c, 0, 45, 0
3, 175320, Note_on_c, 0, 43, 50
3, 175380, Note_on_c, 0, 43, 0
3, 175380, Note_on_c, 0, 42, 50
3, 175440, Note_on_c, 0, 42, 0
3, 175440, Note_on_c, 0, 43, 50
3, 175500, Note_on_c, 0, 50, 0
3, 175560, Note_on_c, 0, 52, 50
3, 175620, Note_on_c, 0, 52, 0
3, 175620, Note_on_c, 0, 54, 50
3, 175680, Note_on_c, 0, 54, 0
3, 175680, Note_on_c, 0, 55, 50
3, 175740, Note_on_c, 0, 43, 0
3, 175740, Note_on_c, 0, 42, 50
3, 175800, Note_on_c, 0, 42, 0
3, 175800, Note_on_c, 0, 55, 0
3, 175800, Note_on_c, 0, 43, 50
3, 175860, Note_on_c, 0, 43, 0
3, 175860, Note_on_c, 0, 45, 50
3, 175920, Note_on_c, 0, 45, 0
3, 175920, Note_on_c, 0, 46, 50
3, 175980, Note_on_c, 0, 46, 0
3, 175980, Note_on_c, 0, 43, 50
3, 176040, Note_on_c, 0, 43, 0
3, 176040, Note_on_c, 0, 46, 50
3, 176100, Note_on_c, 0, 46, 0
3, 176100, Note_on_c, 0, 50, 50
3, 176160, Note_on_c, 0, 50, 0
3, 176160, Note_on_c, 0, 62, 60
3, 176160, Note_on_c, 0, 55, 50
3, 176400, Note_on_c, 0, 62, 0
3, 176400, Note_on_c, 0, 55, 60
3, 176640, Note_on_c, 0, 55, 0
3, 176640, Note_on_c, 0, 58, 60
3, 176700, Note_on_c, 0, 55, 0
3, 176700, Note_on_c, 0, 50, 50
3, 176760, Note_on_c, 0, 50, 0
3, 176760, Note_on_c, 0, 48, 50
3, 176820, Note_on_c, 0, 48, 0
3, 176820, Note_on_c, 0, 45, 50
3, 176880, Note_on_c, 0, 45, 0
3, 176880, Note_on_c, 0, 58, 0
3, 176880, Note_on_c, 0, 62, 60
3, 176880, Note_on_c, 0, 46, 50
3, 176940, Note_on_c, 0, 46, 0
3, 176940, Note_on_c, 0, 50, 50
3, 177000, Note_on_c, 0, 50, 0
3, 177000, Note_on_c, 0, 43, 50
3, 177060, Note_on_c, 0, 43, 0
3, 177060, Note_on_c, 0, 41, 50
3, 177120, Note_on_c, 0, 41, 0
3, 177120, Note_on_c, 0, 62, 0
3, 177120, Note_on_c, 0, 65, 60
3, 177120, Note_on_c, 0, 40, 50
3, 177180, Note_on_c, 0, 40, 0
3, 177180, Note_on_c, 0, 52, 50
3, 177240, Note_on_c, 0, 52, 0
3, 177240, Note_on_c, 0, 50, 50
3, 177300, Note_on_c, 0, 50, 0
3, 177300, Note_on_c, 0, 47, 50
3, 177360, Note_on_c, 0, 47, 0
3, 177360, Note_on_c, 0, 65, 0
3, 177360, Note_on_c, 0, 64, 60
3, 177360, Note_on_c, 0, 48, 50
3, 177420, Note_on_c, 0, 48, 0
3, 177420, Note_on_c, 0, 52, 50
3, 177480, Note_on_c, 0, 52, 0
3, 177480, Note_on_c, 0, 64, 0
3, 177480, Note_on_c, 0, 62, 60
3, 177480, Note_on_c, 0, 45, 50
3, 177540, Note_on_c, 0, 45, 0
3, 177540, Note_on_c, 0, 44, 50
3, 177598, Note_on_c, 0, 44, 0
3, 177598, Note_on_c, 0, 62, 0
3, 177600, Note_on_c, 0, 61, 60
3, 177600, Note_on_c, 0, 45, 50
3, 177660, Note_on_c, 0, 45, 0
3, 177660, Note_on_c, 0, 57, 50
3, 177720, Note_on_c, 0, 57, 0
3, 177720, Note_on_c, 0, 55, 50
3, 177780, Note_on_c, 0, 55, 0
3, 177780, Note_on_c, 0, 52, 50
3, 177840, Note_on_c, 0, 52, 0
3, 177840, Note_on_c, 0, 53, 50
3, 177900, Note_on_c, 0, 61, 0
3, 177900, Note_on_c, 0, 57, 60
3, 177960, Note_on_c, 0, 57, 0
3, 177960, Note_on_c, 0, 59, 60
3, 178020, Note_on_c, 0, 59, 0
3, 178020, Note_on_c, 0, 61, 60
3, 178080, Note_on_c, 0, 61, 0
3, 178080, Note_on_c, 0, 62, 60
3, 178200, Note_on_c, 0, 62, 0
3, 178200, Note_on_c, 0, 57, 50
3, 178320, Note_on_c, 0, 53, 0
3, 178320, Note_on_c, 0, 46, 50
3, 178380, Note_on_c, 0, 57, 0
3, 178380, Note_on_c, 0, 58, 50
3, 178440, Note_on_c, 0, 58, 0
3, 178440, Note_on_c, 0, 57, 50
3, 178500, Note_on_c, 0, 57, 0
3, 178500, Note_on_c, 0, 56, 50
3, 178560, Note_on_c, 0, 56, 0
3, 178560, Note_on_c, 0, 46, 0
3, 178560, Note_on_c, 0, 57, 50
3, 178560, Note_on_c, 0, 45, 50
3, 178620, Note_on_c, 0, 57, 0
3, 178620, Note_on_c, 0, 47, 50
3, 178680, Note_on_c, 0, 47, 0
3, 178680, Note_on_c, 0, 49, 50
3, 178740, Note_on_c, 0, 49, 0
3, 178740, Note_on_c, 0, 50, 50
3, 178800, Note_on_c, 0, 50, 0
3, 178800, Note_on_c, 0, 52, 50
3, 178860, Note_on_c, 0, 52, 0
3, 178860, Note_on_c, 0, 53, 50
3, 178920, Note_on_c, 0, 53, 0
3, 178920, Note_on_c, 0, 55, 50
3, 178980, Note_on_c, 0, 55, 0
3, 178980, Note_on_c, 0, 52, 50
3, 179040, Note_on_c, 0, 52, 0
3, 179040, Note_on_c, 0, 45, 0
3, 179040, Note_on_c, 0, 54, 50
3, 179040, Note_on_c, 0, 50, 50
3, 179100, Note_on_c, 0, 54, 0
3, 179100, Note_on_c, 0, 57, 50
3, 179160, Note_on_c, 0, 57, 0
3, 179160, Note_on_c, 0, 55, 50
3, 179340, Note_on_c, 0, 55, 0
3, 179340, Note_on_c, 0, 54, 50
3, 179400, Note_on_c, 0, 54, 0
3, 179400, Note_on_c, 0, 58, 50
3, 179580, Note_on_c, 0, 58, 0
3, 179580, Note_on_c, 0, 57, 50
3, 179640, Note_on_c, 0, 57, 0
3, 179640, Note_on_c, 0, 60, 50
3, 179880, Note_on_c, 0, 60, 0
3, 180000, Note_on_c, 0, 59, 50
3, 180120, Note_on_c, 0, 59, 0
3, 180120, Note_on_c, 0, 58, 50
3, 180360, Note_on_c, 0, 58, 0
3, 180360, Note_on_c, 0, 57, 50
3, 180420, Note_on_c, 0, 57, 0
3, 180420, Note_on_c, 0, 55, 50
3, 180480, Note_on_c, 0, 55, 0
3, 180480, Note_on_c, 0, 57, 50
3, 180958, Note_on_c, 0, 57, 0
3, 180958, Note_on_c, 0, 50, 0
3, 181920, Control_c, 0, 121, 0
3, 181920, Control_c, 0, 121, 0
3, 183360, Control_c, 0, 91, 40
3, 183360, Control_c, 0, 0, 0
3, 183360, Note_on_c, 0, 50, 90
3, 183600, Note_on_c, 0, 50, 0
3, 183600, Note_on_c, 0, 57, 90
3, 183780, Note_on_c, 0, 57, 0
3, 183780, Note_on_c, 0, 55, 90
3, 183840, Note_on_c, 0, 55, 0
3, 183840, Note_on_c, 0, 53, 90
3, 184020, Note_on_c, 0, 53, 0
3, 184020, Note_on_c, 0, 52, 90
3, 184080, Note_on_c, 0, 52, 0
3, 184080, Note_on_c, 0, 50, 90
3, 184320, Note_on_c, 0, 50, 0
3, 184320, Note_on_c, 0, 49, 90
3, 184560, Note_on_c, 0, 49, 0
3, 184560, Note_on_c, 0, 50, 90
3, 184740, Note_on_c, 0, 50, 0
3, 184740, Note_on_c, 0, 52, 90
3, 184800, Note_on_c, 0, 52, 0
3, 184800, Note_on_c, 0, 53, 90
3, 185100, Note_on_c, 0, 53, 0
3, 185100, Note_on_c, 0, 55, 90
3, 185160, Note_on_c, 0, 55, 0
3, 185160, Note_on_c, 0, 53, 90
3, 185220, Note_on_c, 0, 53, 0
3, 185220, Note_on_c, 0, 52, 90
3, 185280, Note_on_c, 0, 52, 0
3, 185280, Note_on_c, 0, 50, 90
3, 185340, Note_on_c, 0, 50, 0
3, 185340, Note_on_c, 0, 53, 90
3, 185400, Note_on_c, 0, 53, 0
3, 185400, Note_on_c, 0, 55, 90
3, 185460, Note_on_c, 0, 55, 0
3, 185460, Note_on_c, 0, 57, 90
3, 185520, Note_on_c, 0, 57, 0
3, 185520, Note_on_c, 0, 58, 90
3, 185760, Note_on_c, 0, 58, 0
3, 185760, Note_on_c, 0, 57, 90
3, 185940, Note_on_c, 0, 57, 0
3, 185940, Note_on_c, 0, 45, 90
3, 186000, Note_on_c, 0, 45, 0
3, 186000, Note_on_c, 0, 47, 90
3, 186180, Note_on_c, 0, 47, 0
3, 186180, Note_on_c, 0, 49, 90
3, 186240, Note_on_c, 0, 49, 0
3, 186240, Control_c, 0, 91, 40
3, 186240, Control_c, 0, 0, 0
3, 186240, Note_on_c, 0, 62, 90
3, 186240, Note_on_c, 0, 50, 90
3, 186420, Note_on_c, 0, 50, 0
3, 186420, Note_on_c, 0, 52, 90
3, 186480, Note_on_c, 0, 52, 0
3, 186480, Note_on_c, 0, 62, 0
3, 186480, Note_on_c, 0, 57, 90
3, 186480, Note_on_c, 0, 53, 90
3, 186600, Note_on_c, 0, 53, 0
3, 186600, Note_on_c, 0, 50, 90
3, 186660, Note_on_c, 0, 57, 0
3, 186660, Note_on_c, 0, 59, 90
3, 186720, Note_on_c, 0, 59, 0
3, 186720, Note_on_c, 0, 50, 0
3, 186720, Note_on_c, 0, 60, 90
3, 186720, Note_on_c, 0, 57, 90
3, 186900, Note_on_c, 0, 60, 0
3, 186900, Note_on_c, 0, 62, 90
3, 186960, Note_on_c, 0, 62, 0
3, 186960, Note_on_c, 0, 64, 90
3, 187020, Note_on_c, 0, 57, 0
3, 187020, Note_on_c, 0, 57, 90
3, 187080, Note_on_c, 0, 57, 0
3, 187080, Note_on_c, 0, 58, 90
3, 187140, Note_on_c, 0, 58, 0
3, 187140, Note_on_c, 0, 60, 90
3, 187200, Note_on_c, 0, 60, 0
3, 187200, Note_on_c, 0, 64, 0
3, 187200, Note_on_c, 0, 65, 90
3, 187200, Note_on_c, 0, 62, 90
3, 187440, Note_on_c, 0, 62, 0
3, 187440, Note_on_c, 0, 65, 0
3, 187440, Note_on_c, 0, 64, 90
3, 187440, Note_on_c, 0, 55, 90
3, 187620, Note_on_c, 0, 64, 0
3, 187620, Note_on_c, 0, 62, 90
3, 187680, Note_on_c, 0, 62, 0
3, 187680, Note_on_c, 0, 61, 90
3, 187740, Note_on_c, 0, 55, 0
3, 187740, Note_on_c, 0, 55, 90
3, 187800, Note_on_c, 0, 55, 0
3, 187800, Note_on_c, 0, 53, 90
3, 187860, Note_on_c, 0, 53, 0
3, 187860, Note_on_c, 0, 52, 90
3, 187920, Note_on_c, 0, 52, 0
3, 187920, Note_on_c, 0, 53, 90
3, 187980, Note_on_c, 0, 61, 0
3, 187980, Note_on_c, 0, 57, 90
3, 188040, Note_on_c, 0, 57, 0
3, 188040, Note_on_c, 0, 59, 90
3, 188100, Note_on_c, 0, 59, 0
3, 188100, Note_on_c, 0, 61, 90
3, 188160, Note_on_c, 0, 61, 0
3, 188160, Note_on_c, 0, 62, 90
3, 188220, Note_on_c, 0, 53, 0
3, 188220, Note_on_c, 0, 53, 90
3, 188280, Note_on_c, 0, 53, 0
3, 188280, Note_on_c, 0, 52, 90
3, 188340, Note_on_c, 0, 52, 0
3, 188340, Note_on_c, 0, 50, 90
3, 188400, Note_on_c, 0, 50, 0
3, 188400, Note_on_c, 0, 52, 90
3, 188460, Note_on_c, 0, 62, 0
3, 188460, Note_on_c, 0, 62, 90
3, 188520, Note_on_c, 0, 62, 0
3, 188520, Note_on_c, 0, 61, 90
3, 188580, Note_on_c, 0, 61, 0
3, 188580, Note_on_c, 0, 59, 90
3, 188640, Note_on_c, 0, 59, 0
3, 188640, Note_on_c, 0, 52, 0
3, 188640, Note_on_c, 0, 61, 90
3, 188640, Note_on_c, 0, 57, 90
3, 188760, Note_on_c, 0, 61, 0
3, 188760, Note_on_c, 0, 62, 90
3, 188820, Note_on_c, 0, 62, 0
3, 188820, Note_on_c, 0, 64, 90
3, 188880, Note_on_c, 0, 64, 0
3, 188880, Note_on_c, 0, 65, 90
3, 188940, Note_on_c, 0, 65, 0
3, 188940, Note_on_c, 0, 64, 90
3, 189000, Note_on_c, 0, 64, 0
3, 189000, Note_on_c, 0, 65, 90
3, 189060, Note_on_c, 0, 65, 0
3, 189060, Note_on_c, 0, 67, 90
3, 189120, Note_on_c, 0, 67, 0
3, 189120, Note_on_c, 0, 69, 90
3, 189240, Note_on_c, 0, 69, 0
3, 189240, Note_on_c, 0, 64, 90
3, 189360, Note_on_c, 0, 64, 0
3, 189360, Note_on_c, 0, 69, 90
3, 189420, Note_on_c, 0, 57, 0
3, 189420, Note_on_c, 0, 58, 90
3, 189480, Note_on_c, 0, 58, 0
3, 189480, Note_on_c, 0, 57, 90
3, 189540, Note_on_c, 0, 57, 0
3, 189540, Note_on_c, 0, 55, 90
3, 189600, Note_on_c, 0, 55, 0
3, 189600, Note_on_c, 0, 69, 0
3, 189600, Note_on_c, 0, 53, 90
3, 189960, Note_on_c, 0, 53, 0
3, 189960, Note_on_c, 0, 50, 90
3, 190080, Note_on_c, 0, 50, 0
3, 190080, Note_on_c, 0, 57, 90
3, 190200, Note_on_c, 0, 57, 0
3, 190200, Note_on_c, 0, 53, 90
3, 190320, Note_on_c, 0, 53, 0
3, 190320, Note_on_c, 0, 60, 90
3, 190620, Note_on_c, 0, 60, 0
3, 190620, Note_on_c, 0, 60, 90
3, 190680, Note_on_c, 0, 60, 0
3, 190680, Note_on_c, 0, 59, 90
3, 190740, Note_on_c, 0, 59, 0
3, 190740, Note_on_c, 0, 57, 90
3, 190800, Note_on_c, 0, 57, 0
3, 190800, Note_on_c, 0, 56, 90
3, 191040, Note_on_c, 0, 56, 0
3, 191040, Note_on_c, 0, 57, 90
3, 191040, Note_on_c, 0, 57, 90
3, 191280, Note_on_c, 0, 57, 0
3, 191280, Note_on_c, 0, 64, 90
3, 191340, Note_on_c, 0, 57, 0
3, 191340, Note_on_c, 0, 55, 90
3, 191400, Note_on_c, 0, 55, 0
3, 191400, Note_on_c, 0, 53, 90
3, 191460, Note_on_c, 0, 64, 0
3, 191460, Note_on_c, 0, 62, 90
3, 191520, Note_on_c, 0, 62, 0
3, 191520, Note_on_c, 0, 53, 0
3, 191520, Note_on_c, 0, 60, 90
3, 191520, Note_on_c, 0, 52, 90
3, 191700, Note_on_c, 0, 60, 0
3, 191700, Note_on_c, 0, 59, 90
3, 191760, Note_on_c, 0, 59, 0
3, 191760, Note_on_c, 0, 57, 90
3, 192000, Note_on_c, 0, 57, 0
3, 192000, Note_on_c, 0, 56, 90
3, 192240, Note_on_c, 0, 56, 0
3, 192240, Note_on_c, 0, 52, 0
3, 192240, Note_on_c, 0, 57, 90
3, 192420, Note_on_c, 0, 57, 0
3, 192420, Note_on_c, 0, 59, 90
3, 192480, Note_on_c, 0, 59, 0
3, 192480, Note_on_c, 0, 60, 90
3, 192480, Note_on_c, 0, 57, 90
3, 192720, Note_on_c, 0, 57, 0
3, 192720, Note_on_c, 0, 50, 90
3, 192780, Note_on_c, 0, 60, 0
3, 192780, Note_on_c, 0, 62, 90
3, 192840, Note_on_c, 0, 62, 0
3, 192840, Note_on_c, 0, 60, 90
3, 192900, Note_on_c, 0, 60, 0
3, 192900, Note_on_c, 0, 50, 0
3, 192900, Note_on_c, 0, 58, 90
3, 192900, Note_on_c, 0, 52, 90
3, 192960, Note_on_c, 0, 52, 0
3, 192960, Note_on_c, 0, 58, 0
3, 192960, Note_on_c, 0, 57, 90
3, 192960, Note_on_c, 0, 53, 90
3, 193140, Note_on_c, 0, 53, 0
3, 193140, Note_on_c, 0, 55, 90
3, 193200, Note_on_c, 0, 55, 0
3, 193200, Note_on_c, 0, 57, 0
3, 193200, Note_on_c, 0, 57, 90
3, 193260, Note_on_c, 0, 64, 90
3, 193320, Note_on_c, 0, 64, 0
3, 193320, Note_on_c, 0, 62, 90
3, 193380, Note_on_c, 0, 62, 0
3, 193380, Note_on_c, 0, 61, 90
3, 193440, Note_on_c, 0, 61, 0
3, 193440, Note_on_c, 0, 57, 0
3, 193440, Note_on_c, 0, 62, 90
3, 193440, Note_on_c, 0, 58, 90
3, 193680, Note_on_c, 0, 58, 0
3, 193680, Note_on_c, 0, 57, 90
3, 193740, Note_on_c, 0, 62, 0
3, 193740, Note_on_c, 0, 61, 90
3, 193800, Note_on_c, 0, 61, 0
3, 193800, Note_on_c, 0, 64, 90
3, 193860, Note_on_c, 0, 57, 0
3, 193860, Note_on_c, 0, 55, 90
3, 193920, Note_on_c, 0, 55, 0
3, 193920, Note_on_c, 0, 64, 0
3, 193920, Note_on_c, 0, 57, 90
3, 193920, Note_on_c, 0, 53, 90
3, 194220, Note_on_c, 0, 53, 0
3, 194220, Note_on_c, 0, 52, 90
3, 194280, Note_on_c, 0, 52, 0
3, 194280, Note_on_c, 0, 57, 0
3, 194280, Note_on_c, 0, 62, 90
3, 194280, Note_on_c, 0, 53, 90
3, 194340, Note_on_c, 0, 53, 0
3, 194340, Note_on_c, 0, 55, 90
3, 194400, Note_on_c, 0, 55, 0
3, 194400, Note_on_c, 0, 57, 90
3, 194580, Note_on_c, 0, 62, 0
3, 194580, Note_on_c, 0, 60, 90
3, 194640, Note_on_c, 0, 60, 0
3, 194640, Note_on_c, 0, 57, 0
3, 194640, Note_on_c, 0, 58, 90
3, 194700, Note_on_c, 0, 57, 90
3, 194760, Note_on_c, 0, 57, 0
3, 194760, Note_on_c, 0, 55, 90
3, 194820, Note_on_c, 0, 55, 0
3, 194820, Note_on_c, 0, 53, 90
3, 194880, Note_on_c, 0, 53, 0
3, 194880, Note_on_c, 0, 52, 90
3, 194940, Note_on_c, 0, 58, 0
3, 194940, Note_on_c, 0, 58, 90
3, 195000, Note_on_c, 0, 58, 0
3, 195000, Note_on_c, 0, 57, 90
3, 195060, Note_on_c, 0, 57, 0
3, 195060, Note_on_c, 0, 55, 90
3, 195120, Note_on_c, 0, 55, 0
3, 195120, Note_on_c, 0, 52, 0
3, 195120, Note_on_c, 0, 57, 90
3, 195120, Note_on_c, 0, 50, 90
3, 195300, Note_on_c, 0, 57, 0
3, 195300, Note_on_c, 0, 55, 90
3, 195360, Note_on_c, 0, 55, 0
3, 195360, Note_on_c, 0, 57, 90
3, 195420, Note_on_c, 0, 50, 0
3, 195420, Note_on_c, 0, 50, 90
3, 195480, Note_on_c, 0, 50, 0
3, 195480, Note_on_c, 0, 57, 0
3, 195480, Note_on_c, 0, 58, 90
3, 195480, Note_on_c, 0, 48, 90
3, 195540, Note_on_c, 0, 48, 0
3, 195540, Note_on_c, 0, 46, 90
3, 195600, Note_on_c, 0, 46, 0
3, 195600, Note_on_c, 0, 58, 0
3, 195600, Note_on_c, 0, 60, 90
3, 195600, Note_on_c, 0, 45, 90
3, 195840, Note_on_c, 0, 45, 0
3, 195840, Note_on_c, 0, 46, 90
3, 195900, Note_on_c, 0, 60, 0
3, 195900, Note_on_c, 0, 58, 90
3, 195960, Note_on_c, 0, 58, 0
3, 195960, Note_on_c, 0, 57, 90
3, 196020, Note_on_c, 0, 57, 0
3, 196020, Note_on_c, 0, 55, 90
3, 196080, Note_on_c, 0, 55, 0
3, 196080, Note_on_c, 0, 53, 90
3, 196140, Note_on_c, 0, 46, 0
3, 196140, Note_on_c, 0, 46, 90
3, 196200, Note_on_c, 0, 46, 0
3, 196200, Note_on_c, 0, 53, 0
3, 196200, Note_on_c, 0, 55, 90
3, 196200, Note_on_c, 0, 45, 90
3, 196260, Note_on_c, 0, 45, 0
3, 196260, Note_on_c, 0, 43, 90
3, 196320, Note_on_c, 0, 43, 0
3, 196320, Note_on_c, 0, 55, 0
3, 196320, Note_on_c, 0, 57, 90
3, 196320, Note_on_c, 0, 42, 90
3, 196560, Note_on_c, 0, 42, 0
3, 196560, Note_on_c, 0, 43, 90
3, 196620, Note_on_c, 0, 57, 0
3, 196620, Note_on_c, 0, 55, 90
3, 196680, Note_on_c, 0, 55, 0
3, 196680, Note_on_c, 0, 53, 90
3, 196740, Note_on_c, 0, 53, 0
3, 196740, Note_on_c, 0, 52, 90
3, 196800, Note_on_c, 0, 52, 0
3, 196800, Note_on_c, 0, 50, 90
3, 196860, Note_on_c, 0, 43, 0
3, 196860, Note_on_c, 0, 43, 90
3, 196920, Note_on_c, 0, 43, 0
3, 196920, Note_on_c, 0, 50, 0
3, 196920, Note_on_c, 0, 52, 90
3, 196920, Note_on_c, 0, 41, 90
3, 196980, Note_on_c, 0, 41, 0
3, 196980, Note_on_c, 0, 40, 90
3, 197040, Note_on_c, 0, 40, 0
3, 197040, Note_on_c, 0, 52, 0
3, 197040, Note_on_c, 0, 53, 90
3, 197040, Note_on_c, 0, 38, 90
3, 197160, Note_on_c, 0, 38, 0
3, 197160, Note_on_c, 0, 53, 0
3, 197160, Note_on_c, 0, 55, 90
3, 197160, Note_on_c, 0, 40, 90
3, 197280, Note_on_c, 0, 40, 0
3, 197280, Note_on_c, 0, 41, 90
3, 197340, Note_on_c, 0, 55, 0
3, 197340, Note_on_c, 0, 55, 90
3, 197400, Note_on_c, 0, 55, 0
3, 197400, Note_on_c, 0, 53, 90
3, 197520, Note_on_c, 0, 41, 0
3, 197520, Note_on_c, 0, 48, 90
3, 197640, Note_on_c, 0, 53, 0
3, 197640, Note_on_c, 0, 52, 90
3, 197700, Note_on_c, 0, 48, 0
3, 197700, Note_on_c, 0, 46, 90
3, 197760, Note_on_c, 0, 46, 0
3, 197760, Note_on_c, 0, 52, 0
3, 197760, Note_on_c, 0, 53, 90
3, 197760, Note_on_c, 0, 45, 90
3, 197820, Note_on_c, 0, 53, 0
3, 197820, Note_on_c, 0, 48, 90
3, 197880, Note_on_c, 0, 48, 0
3, 197880, Note_on_c, 0, 50, 90
3, 197940, Note_on_c, 0, 50, 0
3, 197940, Note_on_c, 0, 45, 0
3, 197940, Note_on_c, 0, 52, 90
3, 197940, Note_on_c, 0, 43, 90
3, 198000, Note_on_c, 0, 43, 0
3, 198000, Note_on_c, 0, 52, 0
3, 198000, Note_on_c, 0, 53, 90
3, 198000, Note_on_c, 0, 41, 90
3, 198120, Note_on_c, 0, 53, 0
3, 198240, Note_on_c, 0, 41, 0
3, 198240, Note_on_c, 0, 40, 90
3, 198420, Note_on_c, 0, 48, 90
3, 198480, Note_on_c, 0, 48, 0
3, 198480, Note_on_c, 0, 40, 0
3, 198480, Note_on_c, 0, 53, 90
3, 198480, Note_on_c, 0, 41, 90
3, 198660, Note_on_c, 0, 41, 0
3, 198660, Note_on_c, 0, 53, 0
3, 198660, Note_on_c, 0, 52, 90
3, 198660, Note_on_c, 0, 43, 90
3, 198720, Note_on_c, 0, 43, 0
3, 198720, Note_on_c, 0, 52, 0
3, 198720, Note_on_c, 0, 53, 90
3, 198720, Note_on_c, 0, 45, 90
3, 198780, Note_on_c, 0, 53, 0
3, 198780, Note_on_c, 0, 57, 90
3, 198840, Note_on_c, 0, 57, 0
3, 198840, Note_on_c, 0, 60, 90
3, 199020, Note_on_c, 0, 45, 0
3, 199020, Note_on_c, 0, 46, 90
3, 199080, Note_on_c, 0, 46, 0
3, 199080, Note_on_c, 0, 45, 90
3, 199140, Note_on_c, 0, 45, 0
3, 199140, Note_on_c, 0, 43, 90
3, 199200, Note_on_c, 0, 43, 0
3, 199200, Note_on_c, 0, 41, 90
3, 199260, Note_on_c, 0, 60, 0
3, 199260, Note_on_c, 0, 58, 90
3, 199320, Note_on_c, 0, 58, 0
3, 199320, Note_on_c, 0, 57, 90
3, 199380, Note_on_c, 0, 57, 0
3, 199380, Note_on_c, 0, 55, 90
3, 199440, Note_on_c, 0, 55, 0
3, 199440, Note_on_c, 0, 53, 90
3, 199500, Note_on_c, 0, 41, 0
3, 199500, Note_on_c, 0, 43, 90
3, 199560, Note_on_c, 0, 43, 0
3, 199560, Note_on_c, 0, 45, 90
3, 199620, Note_on_c, 0, 45, 0
3, 199620, Note_on_c, 0, 48, 90
3, 199680, Note_on_c, 0, 48, 0
3, 199680, Note_on_c, 0, 50, 90
3, 199740, Note_on_c, 0, 53, 0
3, 199740, Note_on_c, 0, 52, 90
3, 199800, Note_on_c, 0, 52, 0
3, 199800, Note_on_c, 0, 53, 90
3, 199860, Note_on_c, 0, 53, 0
3, 199860, Note_on_c, 0, 55, 90
3, 199920, Note_on_c, 0, 55, 0
3, 199920, Note_on_c, 0, 57, 90
3, 199980, Note_on_c, 0, 50, 0
3, 199980, Note_on_c, 0, 52, 90
3, 200040, Note_on_c, 0, 52, 0
3, 200040, Note_on_c, 0, 57, 0
3, 200040, Note_on_c, 0, 50, 90
3, 200100, Note_on_c, 0, 50, 0
3, 200100, Note_on_c, 0, 48, 90
3, 200160, Note_on_c, 0, 48, 0
3, 200160, Note_on_c, 0, 47, 90
3, 200220, Note_on_c, 0, 47, 0
3, 200220, Note_on_c, 0, 50, 90
3, 200280, Note_on_c, 0, 50, 0
3, 200280, Note_on_c, 0, 48, 90
3, 200340, Note_on_c, 0, 48, 0
3, 200340, Note_on_c, 0, 47, 90
3, 200400, Note_on_c, 0, 47, 0
3, 200400, Note_on_c, 0, 45, 90
3, 200460, Note_on_c, 0, 45, 0
3, 200460, Note_on_c, 0, 43, 90
3, 200520, Note_on_c, 0, 43, 0
3, 200520, Note_on_c, 0, 45, 90
3, 200580, Note_on_c, 0, 45, 0
3, 200580, Note_on_c, 0, 47, 90
3, 200640, Note_on_c, 0, 47, 0
3, 200640, Note_on_c, 0, 48, 90
3, 200700, Note_on_c, 0, 48, 0
3, 200700, Note_on_c, 0, 50, 90
3, 200760, Note_on_c, 0, 50, 0
3, 200760, Note_on_c, 0, 52, 90
3, 200820, Note_on_c, 0, 52, 0
3, 200820, Note_on_c, 0, 53, 90
3, 200880, Note_on_c, 0, 53, 0
3, 200880, Note_on_c, 0, 55, 90
3, 200940, Note_on_c, 0, 55, 0
3, 200940, Note_on_c, 0, 57, 90
3, 201000, Note_on_c, 0, 57, 0
3, 201000, Note_on_c, 0, 55, 90
3, 201060, Note_on_c, 0, 55, 0
3, 201060, Note_on_c, 0, 53, 90
3, 201120, Note_on_c, 0, 53, 0
3, 201120, Note_on_c, 0, 60, 90
3, 201120, Note_on_c, 0, 52, 90
3, 201180, Note_on_c, 0, 52, 0
3, 201180, Note_on_c, 0, 48, 90
3, 201240, Note_on_c, 0, 48, 0
3, 201240, Note_on_c, 0, 53, 90
3, 201360, Note_on_c, 0, 60, 0
3, 201360, Note_on_c, 0, 55, 90
3, 201480, Note_on_c, 0, 53, 0
3, 201480, Note_on_c, 0, 51, 90
3, 201540, Note_on_c, 0, 55, 0
3, 201540, Note_on_c, 0, 57, 90
3, 201600, Note_on_c, 0, 57, 0
3, 201600, Note_on_c, 0, 51, 0
3, 201600, Note_on_c, 0, 58, 90
3, 201600, Note_on_c, 0, 50, 90
3, 201780, Note_on_c, 0, 58, 0
3, 201780, Note_on_c, 0, 60, 90
3, 201840, Note_on_c, 0, 60, 0
3, 201840, Note_on_c, 0, 62, 90
3, 202080, Note_on_c, 0, 62, 0
3, 202080, Note_on_c, 0, 63, 90
3, 202140, Note_on_c, 0, 50, 0
3, 202140, Note_on_c, 0, 43, 90
3, 202200, Note_on_c, 0, 43, 0
3, 202200, Note_on_c, 0, 48, 90
3, 202320, Note_on_c, 0, 63, 0
3, 202320, Note_on_c, 0, 62, 90
3, 202380, Note_on_c, 0, 48, 0
3, 202380, Note_on_c, 0, 48, 90
3, 202440, Note_on_c, 0, 48, 0
3, 202440, Note_on_c, 0, 46, 90
3, 202500, Note_on_c, 0, 46, 0
3, 202500, Note_on_c, 0, 62, 0
3, 202500, Note_on_c, 0, 60, 90
3, 202500, Note_on_c, 0, 45, 90
3, 202560, Note_on_c, 0, 45, 0
3, 202560, Note_on_c, 0, 60, 0
3, 202560, Note_on_c, 0, 58, 90
3, 202560, Note_on_c, 0, 43, 90
3, 202620, Note_on_c, 0, 43, 0
3, 202620, Note_on_c, 0, 50, 90
3, 202680, Note_on_c, 0, 50, 0
3, 202680, Note_on_c, 0, 52, 90
3, 202740, Note_on_c, 0, 52, 0
3, 202740, Note_on_c, 0, 54, 90
3, 202800, Note_on_c, 0, 54, 0
3, 202800, Note_on_c, 0, 55, 90
3, 202860, Note_on_c, 0, 58, 0
3, 202860, Note_on_c, 0, 57, 90
3, 202920, Note_on_c, 0, 57, 0
3, 202920, Note_on_c, 0, 58, 90
3, 202980, Note_on_c, 0, 58, 0
3, 202980, Note_on_c, 0, 60, 90
3, 203040, Note_on_c, 0, 60, 0
3, 203040, Note_on_c, 0, 62, 90
3, 203160, Note_on_c, 0, 55, 0
3, 203160, Note_on_c, 0, 53, 90
3, 203280, Note_on_c, 0, 53, 0
3, 203280, Note_on_c, 0, 51, 90
3, 203340, Note_on_c, 0, 62, 0
3, 203340, Note_on_c, 0, 62, 90
3, 203400, Note_on_c, 0, 62, 0
3, 203400, Note_on_c, 0, 60, 90
3, 203460, Note_on_c, 0, 60, 0
3, 203460, Note_on_c, 0, 58, 90
3, 203520, Note_on_c, 0, 58, 0
3, 203520, Note_on_c, 0, 60, 90
3, 203580, Note_on_c, 0, 51, 0
3, 203580, Note_on_c, 0, 51, 90
3, 203640, Note_on_c, 0, 51, 0
3, 203640, Note_on_c, 0, 50, 90
3, 203700, Note_on_c, 0, 50, 0
3, 203700, Note_on_c, 0, 48, 90
3, 203760, Note_on_c, 0, 48, 0
3, 203760, Note_on_c, 0, 50, 90
3, 203820, Note_on_c, 0, 60, 0
3, 203820, Note_on_c, 0, 53, 90
3, 203880, Note_on_c, 0, 53, 0
3, 203880, Note_on_c, 0, 58, 90
3, 203940, Note_on_c, 0, 50, 0
3, 203940, Note_on_c, 0, 51, 90
3, 204000, Note_on_c, 0, 51, 0
3, 204000, Note_on_c, 0, 53, 90
3, 204120, Note_on_c, 0, 58, 0
3, 204120, Note_on_c, 0, 57, 90
3, 204240, Note_on_c, 0, 57, 0
3, 204240, Note_on_c, 0, 53, 0
3, 204240, Note_on_c, 0, 58, 90
3, 204240, Note_on_c, 0, 46, 90
3, 204360, Note_on_c, 0, 58, 0
3, 204420, Note_on_c, 0, 46, 0
3, 204420, Note_on_c, 0, 48, 90
3, 204480, Note_on_c, 0, 48, 0
3, 204480, Note_on_c, 0, 50, 90
3, 204660, Note_on_c, 0, 50, 0
3, 204660, Note_on_c, 0, 51, 90
3, 204720, Note_on_c, 0, 51, 0
3, 204720, Note_on_c, 0, 65, 90
3, 204720, Note_on_c, 0, 53, 90
3, 204960, Note_on_c, 0, 53, 0
3, 204960, Note_on_c, 0, 65, 0
3, 204960, Note_on_c, 0, 58, 90
3, 204960, Note_on_c, 0, 55, 90
3, 205140, Note_on_c, 0, 58, 0
3, 205140, Note_on_c, 0, 60, 90
3, 205200, Note_on_c, 0, 60, 0
3, 205200, Note_on_c, 0, 55, 0
3, 205200, Note_on_c, 0, 62, 90
3, 205200, Note_on_c, 0, 53, 90
3, 205380, Note_on_c, 0, 53, 0
3, 205380, Note_on_c, 0, 62, 0
3, 205380, Note_on_c, 0, 63, 90
3, 205380, Note_on_c, 0, 51, 90
3, 205440, Note_on_c, 0, 51, 0
3, 205440, Note_on_c, 0, 63, 0
3, 205440, Note_on_c, 0, 65, 90
3, 205440, Note_on_c, 0, 50, 90
3, 205680, Note_on_c, 0, 65, 0
3, 205680, Note_on_c, 0, 67, 90
3, 205740, Note_on_c, 0, 50, 0
3, 205740, Note_on_c, 0, 48, 90
3, 205800, Note_on_c, 0, 48, 0
3, 205800, Note_on_c, 0, 50, 90
3, 205860, Note_on_c, 0, 50, 0
3, 205860, Note_on_c, 0, 51, 90
3, 205920, Note_on_c, 0, 51, 0
3, 205920, Note_on_c, 0, 67, 0
3, 205920, Note_on_c, 0, 65, 90
3, 205920, Note_on_c, 0, 53, 90
3, 206100, Note_on_c, 0, 65, 0
3, 206100, Note_on_c, 0, 63, 90
3, 206160, Note_on_c, 0, 63, 0
3, 206160, Note_on_c, 0, 62, 90
3, 206460, Note_on_c, 0, 62, 0
3, 206460, Note_on_c, 0, 60, 90
3, 206520, Note_on_c, 0, 60, 0
3, 206520, Note_on_c, 0, 62, 90
3, 206580, Note_on_c, 0, 62, 0
3, 206580, Note_on_c, 0, 64, 90
3, 206640, Note_on_c, 0, 64, 0
3, 206640, Note_on_c, 0, 65, 90
3, 207000, Note_on_c, 0, 65, 0
3, 207000, Note_on_c, 0, 53, 0
3, 207120, Note_on_c, 0, 65, 90
3, 207240, Note_on_c, 0, 65, 0
3, 207240, Note_on_c, 0, 60, 90
3, 207360, Note_on_c, 0, 60, 90
3, 207420, Note_on_c, 0, 60, 0
3, 207420, Note_on_c, 0, 62, 90
3, 207480, Note_on_c, 0, 62, 0
3, 207480, Note_on_c, 0, 60, 0
3, 207480, Note_on_c, 0, 63, 90
3, 207480, Note_on_c, 0, 55, 90
3, 207660, Note_on_c, 0, 55, 0
3, 207660, Note_on_c, 0, 63, 0
3, 207660, Note_on_c, 0, 65, 90
3, 207660, Note_on_c, 0, 57, 90
3, 207720, Note_on_c, 0, 57, 0
3, 207720, Note_on_c, 0, 65, 0
3, 207720, Note_on_c, 0, 67, 90
3, 207720, Note_on_c, 0, 58, 90
3, 207840, Note_on_c, 0, 67, 0
3, 207840, Note_on_c, 0, 62, 90
3, 207900, Note_on_c, 0, 58, 0
3, 207900, Note_on_c, 0, 60, 90
3, 207960, Note_on_c, 0, 60, 0
3, 207960, Note_on_c, 0, 62, 90
3, 208020, Note_on_c, 0, 62, 0
3, 208020, Note_on_c, 0, 64, 90
3, 208080, Note_on_c, 0, 64, 0
3, 208080, Note_on_c, 0, 62, 0
3, 208080, Note_on_c, 0, 65, 90
3, 208080, Note_on_c, 0, 57, 90
3, 208260, Note_on_c, 0, 57, 0
3, 208260, Note_on_c, 0, 65, 0
3, 208260, Note_on_c, 0, 67, 90
3, 208260, Note_on_c, 0, 58, 90
3, 208320, Note_on_c, 0, 58, 0
3, 208320, Note_on_c, 0, 67, 0
3, 208320, Note_on_c, 0, 69, 90
3, 208320, Note_on_c, 0, 60, 90
3, 208440, Note_on_c, 0, 60, 0
3, 208440, Note_on_c, 0, 69, 0
3, 208440, Note_on_c, 0, 64, 90
3, 208440, Note_on_c, 0, 55, 90
3, 208500, Note_on_c, 0, 55, 0
3, 208500, Note_on_c, 0, 64, 0
3, 208500, Note_on_c, 0, 65, 90
3, 208500, Note_on_c, 0, 57, 90
3, 208560, Note_on_c, 0, 57, 0
3, 208560, Note_on_c, 0, 65, 0
3, 208560, Note_on_c, 0, 67, 90
3, 208560, Note_on_c, 0, 58, 90
3, 208680, Note_on_c, 0, 58, 0
3, 208680, Note_on_c, 0, 67, 0
3, 208680, Note_on_c, 0, 62, 90
3, 208680, Note_on_c, 0, 53, 90
3, 208740, Note_on_c, 0, 53, 0
3, 208740, Note_on_c, 0, 55, 90
3, 208800, Note_on_c, 0, 55, 0
3, 208800, Note_on_c, 0, 57, 90
3, 208860, Note_on_c, 0, 62, 0
3, 208860, Note_on_c, 0, 62, 90
3, 208920, Note_on_c, 0, 62, 0
3, 208920, Note_on_c, 0, 61, 90
3, 208980, Note_on_c, 0, 61, 0
3, 208980, Note_on_c, 0, 59, 90
3, 209040, Note_on_c, 0, 59, 0
3, 209040, Note_on_c, 0, 61, 90
3, 209100, Note_on_c, 0, 57, 0
3, 209100, Note_on_c, 0, 55, 90
3, 209160, Note_on_c, 0, 55, 0
3, 209160, Note_on_c, 0, 53, 90
3, 209220, Note_on_c, 0, 53, 0
3, 209220, Note_on_c, 0, 52, 90
3, 209280, Note_on_c, 0, 52, 0
3, 209280, Note_on_c, 0, 61, 0
3, 209280, Note_on_c, 0, 62, 90
3, 209280, Note_on_c, 0, 50, 90
3, 209340, Note_on_c, 0, 62, 0
3, 209340, Note_on_c, 0, 57, 90
3, 209400, Note_on_c, 0, 57, 0
3, 209400, Note_on_c, 0, 60, 90
3, 209520, Note_on_c, 0, 50, 0
3, 209580, Note_on_c, 0, 60, 0
3, 209580, Note_on_c, 0, 57, 90
3, 209640, Note_on_c, 0, 57, 0
3, 209640, Note_on_c, 0, 58, 90
3, 209640, Note_on_c, 0, 55, 90
3, 209700, Note_on_c, 0, 58, 0
3, 209700, Note_on_c, 0, 67, 90
3, 209760, Note_on_c, 0, 67, 0
3, 209760, Note_on_c, 0, 64, 90
3, 209820, Note_on_c, 0, 55, 0
3, 209820, Note_on_c, 0, 52, 90
3, 209880, Note_on_c, 0, 52, 0
3, 209880, Note_on_c, 0, 64, 0
3, 209880, Note_on_c, 0, 57, 90
3, 209880, Note_on_c, 0, 53, 90
3, 210060, Note_on_c, 0, 57, 0
3, 210060, Note_on_c, 0, 57, 90
3, 210120, Note_on_c, 0, 57, 0
3, 210120, Note_on_c, 0, 59, 90
3, 210180, Note_on_c, 0, 59, 0
3, 210180, Note_on_c, 0, 61, 90
3, 210240, Note_on_c, 0, 61, 0
3, 210240, Note_on_c, 0, 62, 90
3, 210300, Note_on_c, 0, 53, 0
3, 210300, Note_on_c, 0, 52, 90
3, 210360, Note_on_c, 0, 52, 0
3, 210360, Note_on_c, 0, 62, 0
3, 210360, Note_on_c, 0, 53, 90
3, 210420, Note_on_c, 0, 53, 0
3, 210420, Note_on_c, 0, 55, 90
3, 210480, Note_on_c, 0, 55, 0
3, 210480, Note_on_c, 0, 57, 90
3, 210600, Note_on_c, 0, 69, 90
3, 210720, Note_on_c, 0, 69, 0
3, 210720, Note_on_c, 0, 70, 90
3, 210780, Note_on_c, 0, 57, 0
3, 210780, Note_on_c, 0, 54, 90
3, 210840, Note_on_c, 0, 54, 0
3, 210840, Note_on_c, 0, 70, 0
3, 210840, Note_on_c, 0, 58, 90
3, 210840, Note_on_c, 0, 55, 90
3, 210960, Note_on_c, 0, 55, 0
3, 210960, Note_on_c, 0, 58, 0
3, 210960, Note_on_c, 0, 57, 90
3, 210960, Note_on_c, 0, 50, 90
3, 211020, Note_on_c, 0, 57, 0
3, 211020, Note_on_c, 0, 55, 90
3, 211080, Note_on_c, 0, 55, 0
3, 211080, Note_on_c, 0, 57, 90
3, 211140, Note_on_c, 0, 57, 0
3, 211140, Note_on_c, 0, 58, 90
3, 211200, Note_on_c, 0, 58, 0
3, 211200, Note_on_c, 0, 50, 0
3, 211200, Note_on_c, 0, 60, 90
3, 211200, Note_on_c, 0, 45, 90
3, 211440, Note_on_c, 0, 45, 0
3, 211440, Note_on_c, 0, 46, 90
3, 211500, Note_on_c, 0, 60, 0
3, 211500, Note_on_c, 0, 60, 90
3, 211560, Note_on_c, 0, 60, 0
3, 211560, Note_on_c, 0, 58, 90
3, 211620, Note_on_c, 0, 58, 0
3, 211620, Note_on_c, 0, 57, 90
3, 211680, Note_on_c, 0, 57, 0
3, 211680, Note_on_c, 0, 46, 0
3, 211680, Note_on_c, 0, 55, 90
3, 211680, Note_on_c, 0, 47, 90
3, 211920, Note_on_c, 0, 47, 0
3, 211920, Note_on_c, 0, 48, 90
3, 212160, Note_on_c, 0, 48, 0
3, 212160, Note_on_c, 0, 49, 90
3, 212220, Note_on_c, 0, 55, 0
3, 212220, Note_on_c, 0, 55, 90
3, 212280, Note_on_c, 0, 55, 0
3, 212280, Note_on_c, 0, 53, 90
3, 212340, Note_on_c, 0, 53, 0
3, 212340, Note_on_c, 0, 52, 90
3, 212400, Note_on_c, 0, 52, 0
3, 212400, Note_on_c, 0, 49, 0
3, 212400, Note_on_c, 0, 53, 90
3, 212400, Note_on_c, 0, 50, 90
3, 212640, Note_on_c, 0, 50, 0
3, 212640, Note_on_c, 0, 53, 0
3, 212640, Note_on_c, 0, 52, 90
3, 212640, Note_on_c, 0, 45, 90
3, 212760, Note_on_c, 0, 45, 0
3, 212760, Note_on_c, 0, 52, 0
3, 212880, Note_on_c, 0, 57, 90
3, 213000, Note_on_c, 0, 57, 0
3, 213000, Note_on_c, 0, 62, 90
3, 213120, Note_on_c, 0, 62, 90
3, 213180, Note_on_c, 0, 62, 0
3, 213180, Note_on_c, 0, 60, 90
3, 213240, Note_on_c, 0, 60, 0
3, 213240, Note_on_c, 0, 62, 0
3, 213240, Note_on_c, 0, 67, 90
3, 213240, Note_on_c, 0, 58, 90
3, 213420, Note_on_c, 0, 58, 0
3, 213420, Note_on_c, 0, 67, 0
3, 213420, Note_on_c, 0, 65, 90
3, 213420, Note_on_c, 0, 57, 90
3, 213480, Note_on_c, 0, 57, 0
3, 213480, Note_on_c, 0, 65, 0
3, 213480, Note_on_c, 0, 64, 90
3, 213480, Note_on_c, 0, 55, 90
3, 213600, Note_on_c, 0, 55, 0
3, 213600, Note_on_c, 0, 60, 90
3, 213660, Note_on_c, 0, 64, 0
3, 213660, Note_on_c, 0, 62, 90
3, 213720, Note_on_c, 0, 62, 0
3, 213720, Note_on_c, 0, 60, 90
3, 213780, Note_on_c, 0, 60, 0
3, 213780, Note_on_c, 0, 58, 90
3, 213840, Note_on_c, 0, 58, 0
3, 213840, Note_on_c, 0, 60, 0
3, 213840, Note_on_c, 0, 65, 90
3, 213840, Note_on_c, 0, 57, 90
3, 214020, Note_on_c, 0, 57, 0
3, 214020, Note_on_c, 0, 65, 0
3, 214020, Note_on_c, 0, 64, 90
3, 214020, Note_on_c, 0, 55, 90
3, 214080, Note_on_c, 0, 55, 0
3, 214080, Note_on_c, 0, 64, 0
3, 214080, Note_on_c, 0, 62, 90
3, 214080, Note_on_c, 0, 53, 90
3, 214200, Note_on_c, 0, 53, 0
3, 214200, Note_on_c, 0, 58, 90
3, 214260, Note_on_c, 0, 58, 0
3, 214260, Note_on_c, 0, 57, 90
3, 214320, Note_on_c, 0, 57, 0
3, 214320, Note_on_c, 0, 55, 90
3, 214440, Note_on_c, 0, 55, 0
3, 214440, Note_on_c, 0, 62, 0
3, 214440, Note_on_c, 0, 64, 90
3, 214440, Note_on_c, 0, 60, 90
3, 214500, Note_on_c, 0, 60, 0
3, 214500, Note_on_c, 0, 58, 90
3, 214560, Note_on_c, 0, 58, 0
3, 214560, Note_on_c, 0, 57, 90
3, 214620, Note_on_c, 0, 64, 0
3, 214620, Note_on_c, 0, 62, 90
3, 214680, Note_on_c, 0, 62, 0
3, 214680, Note_on_c, 0, 64, 90
3, 214740, Note_on_c, 0, 64, 0
3, 214740, Note_on_c, 0, 66, 90
3, 214800, Note_on_c, 0, 66, 0
3, 214800, Note_on_c, 0, 57, 0
3, 214800, Note_on_c, 0, 67, 90
3, 214800, Note_on_c, 0, 55, 90
3, 215040, Note_on_c, 0, 55, 0
3, 215040, Note_on_c, 0, 67, 0
3, 215040, Note_on_c, 0, 69, 90
3, 215040, Note_on_c, 0, 50, 90
3, 215280, Note_on_c, 0, 50, 0
3, 215280, Note_on_c, 0, 69, 0
3, 215280, Note_on_c, 0, 62, 90
3, 215340, Note_on_c, 0, 67, 90
3, 215400, Note_on_c, 0, 67, 0
3, 215400, Note_on_c, 0, 65, 90
3, 215460, Note_on_c, 0, 65, 0
3, 215460, Note_on_c, 0, 62, 0
3, 215460, Note_on_c, 0, 64, 90
3, 215460, Note_on_c, 0, 64, 90
3, 215520, Note_on_c, 0, 64, 0
3, 215520, Note_on_c, 0, 64, 0
3, 215520, Note_on_c, 0, 65, 90
3, 215520, Note_on_c, 0, 62, 90
3, 215700, Note_on_c, 0, 65, 0
3, 215700, Note_on_c, 0, 67, 90
3, 215760, Note_on_c, 0, 67, 0
3, 215760, Note_on_c, 0, 69, 90
3, 215880, Note_on_c, 0, 62, 0
3, 215880, Note_on_c, 0, 61, 90
3, 216000, Note_on_c, 0, 61, 0
3, 216000, Note_on_c, 0, 69, 0
3, 216000, Note_on_c, 0, 70, 90
3, 216000, Note_on_c, 0, 62, 90
3, 216060, Note_on_c, 0, 62, 0
3, 216060, Note_on_c, 0, 55, 90
3, 216120, Note_on_c, 0, 55, 0
3, 216120, Note_on_c, 0, 57, 90
3, 216180, Note_on_c, 0, 57, 0
3, 216180, Note_on_c, 0, 58, 90
3, 216240, Note_on_c, 0, 58, 0
3, 216240, Note_on_c, 0, 70, 0
3, 216240, Note_on_c, 0, 69, 90
3, 216240, Note_on_c, 0, 60, 90
3, 216300, Note_on_c, 0, 60, 0
3, 216300, Note_on_c, 0, 48, 90
3, 216360, Note_on_c, 0, 48, 0
3, 216360, Note_on_c, 0, 50, 90
3, 216420, Note_on_c, 0, 50, 0
3, 216420, Note_on_c, 0, 69, 0
3, 216420, Note_on_c, 0, 67, 90
3, 216420, Note_on_c, 0, 52, 90
3, 216480, Note_on_c, 0, 52, 0
3, 216480, Note_on_c, 0, 67, 0
3, 216480, Note_on_c, 0, 65, 90
3, 216480, Note_on_c, 0, 53, 90
3, 216540, Note_on_c, 0, 53, 0
3, 216540, Note_on_c, 0, 55, 90
3, 216600, Note_on_c, 0, 55, 0
3, 216600, Note_on_c, 0, 57, 90
3, 216660, Note_on_c, 0, 57, 0
3, 216660, Note_on_c, 0, 53, 90
3, 216720, Note_on_c, 0, 53, 0
3, 216720, Note_on_c, 0, 58, 90
3, 216780, Note_on_c, 0, 65, 0
3, 216780, Note_on_c, 0, 64, 90
3, 216840, Note_on_c, 0, 64, 0
3, 216840, Note_on_c, 0, 58, 0
3, 216840, Note_on_c, 0, 66, 90
3, 216840, Note_on_c, 0, 57, 90
3, 216900, Note_on_c, 0, 57, 0
3, 216900, Note_on_c, 0, 66, 0
3, 216900, Note_on_c, 0, 67, 90
3, 216900, Note_on_c, 0, 55, 90
3, 216960, Note_on_c, 0, 55, 0
3, 216960, Note_on_c, 0, 67, 0
3, 216960, Note_on_c, 0, 69, 90
3, 216960, Note_on_c, 0, 54, 90
3, 217020, Note_on_c, 0, 69, 0
3, 217020, Note_on_c, 0, 67, 90
3, 217080, Note_on_c, 0, 67, 0
3, 217080, Note_on_c, 0, 54, 0
3, 217080, Note_on_c, 0, 66, 90
3, 217080, Note_on_c, 0, 57, 90
3, 217140, Note_on_c, 0, 66, 0
3, 217140, Note_on_c, 0, 69, 90
3, 217200, Note_on_c, 0, 69, 0
3, 217200, Note_on_c, 0, 57, 0
3, 217200, Note_on_c, 0, 62, 90
3, 217200, Note_on_c, 0, 58, 90
3, 217260, Note_on_c, 0, 58, 0
3, 217260, Note_on_c, 0, 45, 90
3, 217320, Note_on_c, 0, 45, 0
3, 217320, Note_on_c, 0, 62, 0
3, 217320, Note_on_c, 0, 67, 90
3, 217320, Note_on_c, 0, 46, 90
3, 217380, Note_on_c, 0, 46, 0
3, 217380, Note_on_c, 0, 48, 90
3, 217440, Note_on_c, 0, 48, 0
3, 217440, Note_on_c, 0, 50, 90
3, 217500, Note_on_c, 0, 50, 0
3, 217500, Note_on_c, 0, 67, 0
3, 217500, Note_on_c, 0, 61, 90
3, 217500, Note_on_c, 0, 52, 90
3, 217560, Note_on_c, 0, 52, 0
3, 217560, Note_on_c, 0, 61, 0
3, 217560, Note_on_c, 0, 62, 90
3, 217560, Note_on_c, 0, 53, 90
3, 217620, Note_on_c, 0, 53, 0
3, 217620, Note_on_c, 0, 62, 0
3, 217620, Note_on_c, 0, 65, 90
3, 217620, Note_on_c, 0, 50, 90
3, 217680, Note_on_c, 0, 50, 0
3, 217680, Note_on_c, 0, 65, 0
3, 217680, Note_on_c, 0, 58, 90
3, 217680, Note_on_c, 0, 55, 90
3, 217740, Note_on_c, 0, 55, 0
3, 217740, Note_on_c, 0, 53, 90
3, 217800, Note_on_c, 0, 53, 0
3, 217800, Note_on_c, 0, 52, 90
3, 217860, Note_on_c, 0, 52, 0
3, 217860, Note_on_c, 0, 55, 90
3, 217920, Note_on_c, 0, 55, 0
3, 217920, Note_on_c, 0, 49, 90
3, 217980, Note_on_c, 0, 49, 0
3, 217980, Note_on_c, 0, 58, 0
3, 217980, Note_on_c, 0, 57, 90
3, 217980, Note_on_c, 0, 50, 90
3, 218040, Note_on_c, 0, 50, 0
3, 218040, Note_on_c, 0, 57, 0
3, 218040, Note_on_c, 0, 55, 90
3, 218040, Note_on_c, 0, 52, 90
3, 218100, Note_on_c, 0, 52, 0
3, 218100, Note_on_c, 0, 55, 0
3, 218100, Note_on_c, 0, 57, 90
3, 218100, Note_on_c, 0, 49, 90
3, 218160, Note_on_c, 0, 49, 0
3, 218160, Note_on_c, 0, 57, 0
3, 218160, Note_on_c, 0, 53, 90
3, 218160, Note_on_c, 0, 50, 90
3, 218220, Note_on_c, 0, 50, 0
3, 218220, Note_on_c, 0, 48, 90
3, 218280, Note_on_c, 0, 48, 0
3, 218280, Note_on_c, 0, 46, 90
3, 218340, Note_on_c, 0, 46, 0
3, 218340, Note_on_c, 0, 50, 90
3, 218400, Note_on_c, 0, 50, 0
3, 218400, Note_on_c, 0, 53, 0
3, 218400, Note_on_c, 0, 52, 90
3, 218400, Note_on_c, 0, 44, 90
3, 218460, Note_on_c, 0, 44, 0
3, 218460, Note_on_c, 0, 45, 90
3, 218520, Note_on_c, 0, 45, 0
3, 218520, Note_on_c, 0, 47, 90
3, 218580, Note_on_c, 0, 47, 0
3, 218580, Note_on_c, 0, 44, 90
3, 218640, Note_on_c, 0, 44, 0
3, 218640, Note_on_c, 0, 52, 0
3, 218640, Note_on_c, 0, 57, 90
3, 218640, Note_on_c, 0, 45, 90
3, 218700, Note_on_c, 0, 45, 0
3, 218700, Note_on_c, 0, 55, 90
3, 218760, Note_on_c, 0, 55, 0
3, 218760, Note_on_c, 0, 53, 90
3, 218820, Note_on_c, 0, 53, 0
3, 218820, Note_on_c, 0, 57, 0
3, 218820, Note_on_c, 0, 55, 90
3, 218820, Note_on_c, 0, 52, 90
3, 218880, Note_on_c, 0, 52, 0
3, 218880, Note_on_c, 0, 55, 0
3, 218880, Note_on_c, 0, 53, 90
3, 218880, Note_on_c, 0, 50, 90
3, 219060, Note_on_c, 0, 53, 0
3, 219060, Note_on_c, 0, 52, 90
3, 219120, Note_on_c, 0, 52, 0
3, 219120, Note_on_c, 0, 50, 90
3, 219180, Note_on_c, 0, 50, 0
3, 219180, Note_on_c, 0, 48, 90
3, 219240, Note_on_c, 0, 48, 0
3, 219240, Note_on_c, 0, 46, 90
3, 219360, Note_on_c, 0, 46, 0
3, 219360, Note_on_c, 0, 50, 0
3, 219360, Note_on_c, 0, 49, 90
3, 219360, Note_on_c, 0, 45, 90
3, 219420, Note_on_c, 0, 45, 0
3, 219420, Note_on_c, 0, 46, 90
3, 219480, Note_on_c, 0, 46, 0
3, 219480, Note_on_c, 0, 45, 90
3, 219540, Note_on_c, 0, 45, 0
3, 219540, Note_on_c, 0, 43, 90
3, 219600, Note_on_c, 0, 43, 0
3, 219600, Note_on_c, 0, 49, 0
3, 219600, Note_on_c, 0, 50, 90
3, 219600, Note_on_c, 0, 41, 90
3, 219720, Note_on_c, 0, 41, 0
3, 219720, Note_on_c, 0, 46, 90
3, 219780, Note_on_c, 0, 50, 0
3, 219780, Note_on_c, 0, 52, 90
3, 219840, Note_on_c, 0, 52, 0
3, 219840, Note_on_c, 0, 46, 0
3, 219840, Note_on_c, 0, 53, 90
3, 219840, Note_on_c, 0, 45, 90
3, 220140, Note_on_c, 0, 53, 0
3, 220140, Note_on_c, 0, 55, 90
3, 220200, Note_on_c, 0, 55, 0
3, 220200, Note_on_c, 0, 45, 0
3, 220200, Note_on_c, 0, 53, 90
3, 220200, Note_on_c, 0, 47, 90
3, 220260, Note_on_c, 0, 47, 0
3, 220260, Note_on_c, 0, 53, 0
3, 220260, Note_on_c, 0, 52, 90
3, 220260, Note_on_c, 0, 49, 90
3, 220320, Note_on_c, 0, 49, 0
3, 220320, Note_on_c, 0, 52, 0
3, 220320, Note_on_c, 0, 50, 90
3, 220320, Note_on_c, 0, 50, 90
3, 220380, Note_on_c, 0, 50, 0
3, 220380, Note_on_c, 0, 53, 90
3, 220440, Note_on_c, 0, 53, 0
3, 220440, Note_on_c, 0, 55, 90
3, 220500, Note_on_c, 0, 55, 0
3, 220500, Note_on_c, 0, 57, 90
3, 220560, Note_on_c, 0, 57, 0
3, 220560, Note_on_c, 0, 58, 90
3, 220620, Note_on_c, 0, 50, 0
3, 220620, Note_on_c, 0, 49, 90
3, 220680, Note_on_c, 0, 49, 0
3, 220680, Note_on_c, 0, 50, 90
3, 220740, Note_on_c, 0, 50, 0
3, 220740, Note_on_c, 0, 52, 90
3, 220800, Note_on_c, 0, 52, 0
3, 220800, Note_on_c, 0, 53, 90
3, 220860, Note_on_c, 0, 58, 0
3, 220860, Note_on_c, 0, 60, 90
3, 220920, Note_on_c, 0, 60, 0
3, 220920, Note_on_c, 0, 53, 0
3, 220920, Note_on_c, 0, 58, 90
3, 220920, Note_on_c, 0, 54, 90
3, 220980, Note_on_c, 0, 58, 0
3, 220980, Note_on_c, 0, 57, 90
3, 221040, Note_on_c, 0, 57, 0
3, 221040, Note_on_c, 0, 54, 0
3, 221040, Note_on_c, 0, 55, 90
3, 221040, Note_on_c, 0, 55, 90
3, 221100, Note_on_c, 0, 55, 0
3, 221100, Note_on_c, 0, 58, 90
3, 221160, Note_on_c, 0, 58, 0
3, 221160, Note_on_c, 0, 60, 90
3, 221220, Note_on_c, 0, 60, 0
3, 221220, Note_on_c, 0, 62, 90
3, 221280, Note_on_c, 0, 62, 0
3, 221280, Note_on_c, 0, 63, 90
3, 221340, Note_on_c, 0, 55, 0
3, 221340, Note_on_c, 0, 54, 90
3, 221400, Note_on_c, 0, 54, 0
3, 221400, Note_on_c, 0, 55, 90
3, 221460, Note_on_c, 0, 55, 0
3, 221460, Note_on_c, 0, 57, 90
3, 221520, Note_on_c, 0, 57, 0
3, 221520, Note_on_c, 0, 63, 0
3, 221520, Note_on_c, 0, 62, 90
3, 221520, Note_on_c, 0, 58, 90
3, 221640, Note_on_c, 0, 62, 0
3, 221640, Note_on_c, 0, 67, 90
3, 221700, Note_on_c, 0, 58, 0
3, 221700, Note_on_c, 0, 59, 90
3, 221760, Note_on_c, 0, 59, 0
3, 221760, Note_on_c, 0, 61, 90
3, 221820, Note_on_c, 0, 61, 0
3, 221820, Note_on_c, 0, 57, 90
3, 221880, Note_on_c, 0, 57, 0
3, 221880, Note_on_c, 0, 67, 0
3, 221880, Note_on_c, 0, 65, 90
3, 221880, Note_on_c, 0, 62, 90
3, 221940, Note_on_c, 0, 62, 0
3, 221940, Note_on_c, 0, 65, 0
3, 221940, Note_on_c, 0, 64, 90
3, 221940, Note_on_c, 0, 60, 90
3, 222000, Note_on_c, 0, 60, 0
3, 222000, Note_on_c, 0, 64, 0
3, 222000, Note_on_c, 0, 62, 90
3, 222000, Note_on_c, 0, 59, 90
3, 222060, Note_on_c, 0, 59, 0
3, 222060, Note_on_c, 0, 62, 0
3, 222060, Note_on_c, 0, 65, 90
3, 222060, Note_on_c, 0, 57, 90
3, 222120, Note_on_c, 0, 57, 0
3, 222120, Note_on_c, 0, 65, 0
3, 222120, Note_on_c, 0, 64, 90
3, 222120, Note_on_c, 0, 58, 90
3, 222180, Note_on_c, 0, 64, 0
3, 222180, Note_on_c, 0, 62, 90
3, 222240, Note_on_c, 0, 62, 0
3, 222240, Note_on_c, 0, 64, 90
3, 222300, Note_on_c, 0, 58, 0
3, 222300, Note_on_c, 0, 57, 90
3, 222360, Note_on_c, 0, 64, 0
3, 222360, Note_on_c, 0, 65, 90
3, 222420, Note_on_c, 0, 57, 0
3, 222420, Note_on_c, 0, 56, 90
3, 222480, Note_on_c, 0, 56, 0
3, 222480, Note_on_c, 0, 65, 0
3, 222480, Note_on_c, 0, 64, 90
3, 222480, Note_on_c, 0, 57, 90
3, 222540, Note_on_c, 0, 64, 0
3, 222540, Note_on_c, 0, 62, 90
3, 222600, Note_on_c, 0, 62, 0
3, 222600, Note_on_c, 0, 57, 0
3, 222600, Note_on_c, 0, 64, 90
3, 222600, Note_on_c, 0, 45, 90
3, 222720, Note_on_c, 0, 45, 0
3, 222720, Note_on_c, 0, 64, 0
3, 222720, Note_on_c, 0, 62, 90
3, 222720, Note_on_c, 0, 57, 90
3, 222720, Note_on_c, 0, 50, 90
3, 222960, Note_on_c, 0, 50, 0
3, 222960, Note_on_c, 0, 57, 0
3, 222960, Note_on_c, 0, 62, 0
3, 222960, Note_on_c, 0, 50, 90
3, 223020, Note_on_c, 0, 52, 90
3, 223080, Note_on_c, 0, 52, 0
3, 223080, Note_on_c, 0, 54, 90
3, 223140, Note_on_c, 0, 54, 0
3, 223140, Note_on_c, 0, 50, 0
3, 223140, Note_on_c, 0, 55, 90
3, 223140, Note_on_c, 0, 52, 90
3, 223200, Note_on_c, 0, 52, 0
3, 223200, Note_on_c, 0, 55, 0
3, 223200, Note_on_c, 0, 57, 90
3, 223200, Note_on_c, 0, 54, 90
3, 223200, Note_on_c, 0, 50, 90
3, 223260, Note_on_c, 0, 57, 0
3, 223260, Note_on_c, 0, 55, 90
3, 223320, Note_on_c, 0, 55, 0
3, 223320, Note_on_c, 0, 57, 90
3, 223380, Note_on_c, 0, 57, 0
3, 223380, Note_on_c, 0, 54, 0
3, 223380, Note_on_c, 0, 58, 90
3, 223380, Note_on_c, 0, 55, 90
3, 223440, Note_on_c, 0, 55, 0
3, 223440, Note_on_c, 0, 58, 0
3, 223440, Note_on_c, 0, 50, 0
3, 223440, Note_on_c, 0, 60, 90
3, 223440, Note_on_c, 0, 57, 90
3, 223500, Note_on_c, 0, 60, 0
3, 223500, Note_on_c, 0, 58, 90
3, 223560, Note_on_c, 0, 58, 0
3, 223560, Note_on_c, 0, 60, 90
3, 223620, Note_on_c, 0, 60, 0
3, 223620, Note_on_c, 0, 54, 90
3, 223680, Note_on_c, 0, 54, 0
3, 223680, Note_on_c, 0, 57, 0
3, 223680, Note_on_c, 0, 55, 90
3, 223680, Note_on_c, 0, 58, 90
3, 223680, Note_on_c, 0, 50, 90
3, 223740, Note_on_c, 0, 55, 0
3, 223740, Note_on_c, 0, 57, 90
3, 223800, Note_on_c, 0, 57, 0
3, 223800, Note_on_c, 0, 55, 90
3, 223860, Note_on_c, 0, 55, 0
3, 223860, Note_on_c, 0, 52, 90
3, 223920, Note_on_c, 0, 52, 0
3, 223920, Note_on_c, 0, 50, 0
3, 223920, Note_on_c, 0, 58, 0
3, 223920, Note_on_c, 0, 57, 90
3, 223920, Note_on_c, 0, 57, 90
3, 223980, Note_on_c, 0, 57, 0
3, 223980, Note_on_c, 0, 55, 90
3, 224040, Note_on_c, 0, 55, 0
3, 224040, Note_on_c, 0, 54, 90
3, 224100, Note_on_c, 0, 54, 0
3, 224100, Note_on_c, 0, 57, 0
3, 224100, Note_on_c, 0, 52, 90
3, 224100, Note_on_c, 0, 55, 90
3, 224160, Note_on_c, 0, 55, 0
3, 224160, Note_on_c, 0, 52, 0
3, 224160, Note_on_c, 0, 50, 90
3, 224160, Note_on_c, 0, 54, 90
3, 224220, Note_on_c, 0, 48, 90
3, 224280, Note_on_c, 0, 48, 0
3, 224280, Note_on_c, 0, 46, 90
3, 224340, Note_on_c, 0, 46, 0
3, 224340, Note_on_c, 0, 45, 90
3, 224400, Note_on_c, 0, 45, 0
3, 224400, Note_on_c, 0, 43, 90
3, 224460, Note_on_c, 0, 54, 0
3, 224460, Note_on_c, 0, 50, 0
3, 224460, Note_on_c, 0, 49, 90
3, 224460, Note_on_c, 0, 52, 90
3, 224520, Note_on_c, 0, 52, 0
3, 224520, Note_on_c, 0, 49, 0
3, 224520, Note_on_c, 0, 50, 90
3, 224520, Note_on_c, 0, 54, 90
3, 224580, Note_on_c, 0, 54, 0
3, 224580, Note_on_c, 0, 50, 0
3, 224580, Note_on_c, 0, 52, 90
3, 224580, Note_on_c, 0, 55, 90
3, 224640, Note_on_c, 0, 55, 0
3, 224640, Note_on_c, 0, 52, 0
3, 224640, Note_on_c, 0, 43, 0
3, 224640, Note_on_c, 0, 54, 90
3, 224640, Note_on_c, 0, 57, 90
3, 224640, Note_on_c, 0, 50, 90
3, 225120, Note_on_c, 0, 50, 0
3, 225120, Note_on_c, 0, 57, 0
3, 225120, Note_on_c, 0, 54, 0
3, 225120, Control_c, 0, 121, 0
3, 225120, Control_c, 0, 91, 40
3, 225120, Control_c, 0, 0, 8
3, 225120, Control_c, 0, 121, 0
3, 225120, Note_on_c, 0, 50, 90
3, 225360, Note_on_c, 0, 50, 0
3, 225360, Note_on_c, 0, 57, 90
3, 225540, Note_on_c, 0, 57, 0
3, 225540, Note_on_c, 0, 55, 90
3, 225600, Note_on_c, 0, 55, 0
3, 225600, Note_on_c, 0, 53, 90
3, 225780, Note_on_c, 0, 53, 0
3, 225780, Note_on_c, 0, 52, 90
3, 225840, Note_on_c, 0, 52, 0
3, 225840, Note_on_c, 0, 50, 90
3, 226080, Note_on_c, 0, 50, 0
3, 226080, Note_on_c, 0, 49, 90
3, 226320, Note_on_c, 0, 49, 0
3, 226320, Note_on_c, 0, 50, 90
3, 226500, Note_on_c, 0, 50, 0
3, 226500, Note_on_c, 0, 52, 90
3, 226560, Note_on_c, 0, 52, 0
3, 226560, Note_on_c, 0, 65, 90
3, 226560, Note_on_c, 0, 53, 90
3, 226650, Note_on_c, 0, 65, 0
3, 226650, Note_on_c, 0, 64, 90
3, 226680, Note_on_c, 0, 64, 0
3, 226680, Note_on_c, 0, 62, 90
3, 226800, Note_on_c, 0, 62, 0
3, 226800, Note_on_c, 0, 61, 90
3, 226890, Note_on_c, 0, 53, 0
3, 226890, Note_on_c, 0, 55, 90
3, 226920, Note_on_c, 0, 55, 0
3, 226920, Note_on_c, 0, 61, 0
3, 226920, Note_on_c, 0, 53, 90
3, 227010, Note_on_c, 0, 53, 0
3, 227010, Note_on_c, 0, 52, 90
3, 227040, Note_on_c, 0, 52, 0
3, 227040, Note_on_c, 0, 50, 90
3, 227130, Note_on_c, 0, 50, 0
3, 227130, Note_on_c, 0, 38, 90
3, 227160, Note_on_c, 0, 38, 0
3, 227160, Note_on_c, 0, 40, 90
3, 227250, Note_on_c, 0, 40, 0
3, 227250, Note_on_c, 0, 41, 90
3, 227280, Note_on_c, 0, 41, 0
3, 227280, Note_on_c, 0, 43, 90
3, 227370, Note_on_c, 0, 43, 0
3, 227370, Note_on_c, 0, 45, 90
3, 227400, Note_on_c, 0, 45, 0
3, 227400, Note_on_c, 0, 43, 90
3, 227490, Note_on_c, 0, 43, 0
3, 227490, Note_on_c, 0, 41, 90
3, 227520, Note_on_c, 0, 41, 0
3, 227520, Note_on_c, 0, 40, 90
3, 227610, Note_on_c, 0, 40, 0
3, 227610, Note_on_c, 0, 52, 90
3, 227640, Note_on_c, 0, 52, 0
3, 227640, Note_on_c, 0, 53, 90
3, 227730, Note_on_c, 0, 53, 0
3, 227730, Note_on_c, 0, 55, 90
3, 227760, Note_on_c, 0, 55, 0
3, 227760, Note_on_c, 0, 57, 90
3, 227850, Note_on_c, 0, 57, 0
3, 227850, Note_on_c, 0, 58, 90
3, 227880, Note_on_c, 0, 58, 0
3, 227880, Note_on_c, 0, 57, 90
3, 227970, Note_on_c, 0, 57, 0
3, 227970, Note_on_c, 0, 55, 90
3, 228000, Note_on_c, 0, 55, 0
3, 228000, Control_c, 0, 91, 40
3, 228000, Control_c, 0, 0, 0
3, 228000, Note_on_c, 0, 62, 90
3, 228000, Note_on_c, 0, 53, 90
3, 228120, Note_on_c, 0, 53, 0
3, 228120, Note_on_c, 0, 62, 0
3, 228120, Note_on_c, 0, 57, 90
3, 228120, Note_on_c, 0, 50, 90
3, 228210, Note_on_c, 0, 57, 0
3, 228210, Note_on_c, 0, 59, 90
3, 228240, Note_on_c, 0, 59, 0
3, 228240, Note_on_c, 0, 50, 0
3, 228240, Note_on_c, 0, 60, 90
3, 228240, Note_on_c, 0, 57, 90
3, 228330, Note_on_c, 0, 60, 0
3, 228330, Note_on_c, 0, 62, 90
3, 228360, Note_on_c, 0, 62, 0
3, 228360, Note_on_c, 0, 64, 90
3, 228480, Note_on_c, 0, 64, 0
3, 228480, Note_on_c, 0, 65, 90
3, 228600, Note_on_c, 0, 65, 0
3, 228600, Note_on_c, 0, 64, 90
3, 228690, Note_on_c, 0, 64, 0
3, 228690, Note_on_c, 0, 62, 90
3, 228720, Note_on_c, 0, 62, 0
3, 228720, Note_on_c, 0, 60, 90
3, 228870, Note_on_c, 0, 60, 0
3, 228870, Note_on_c, 0, 59, 90
3, 228900, Note_on_c, 0, 59, 0
3, 228900, Note_on_c, 0, 60, 90
3, 228930, Note_on_c, 0, 60, 0
3, 228930, Note_on_c, 0, 62, 90
3, 228960, Note_on_c, 0, 62, 0
3, 228960, Note_on_c, 0, 64, 90
3, 229050, Note_on_c, 0, 57, 0
3, 229050, Note_on_c, 0, 52, 90
3, 229080, Note_on_c, 0, 52, 0
3, 229080, Note_on_c, 0, 57, 90
3, 229170, Note_on_c, 0, 57, 0
3, 229170, Note_on_c, 0, 55, 90
3, 229200, Note_on_c, 0, 55, 0
3, 229200, Note_on_c, 0, 53, 90
3, 229290, Note_on_c, 0, 53, 0
3, 229290, Note_on_c, 0, 52, 90
3, 229320, Note_on_c, 0, 52, 0
3, 229320, Note_on_c, 0, 64, 0
3, 229320, Note_on_c, 0, 62, 90
3, 229320, Note_on_c, 0, 53, 90
3, 229410, Note_on_c, 0, 53, 0
3, 229410, Note_on_c, 0, 50, 90
3, 229440, Note_on_c, 0, 50, 0
3, 229440, Note_on_c, 0, 52, 90
3, 229530, Note_on_c, 0, 62, 0
3, 229530, Note_on_c, 0, 59, 90
3, 229560, Note_on_c, 0, 59, 0
3, 229560, Note_on_c, 0, 64, 90
3, 229620, Note_on_c, 0, 52, 0
3, 229620, Note_on_c, 0, 52, 90
3, 229650, Note_on_c, 0, 64, 0
3, 229650, Note_on_c, 0, 62, 90
3, 229680, Note_on_c, 0, 62, 0
3, 229680, Note_on_c, 0, 52, 0
3, 229680, Note_on_c, 0, 60, 90
3, 229680, Note_on_c, 0, 53, 90
3, 229770, Note_on_c, 0, 53, 0
3, 229770, Note_on_c, 0, 60, 0
3, 229770, Note_on_c, 0, 62, 90
3, 229770, Note_on_c, 0, 52, 90
3, 229800, Note_on_c, 0, 52, 0
3, 229800, Note_on_c, 0, 62, 0
3, 229800, Note_on_c, 0, 60, 90
3, 229800, Note_on_c, 0, 54, 90
3, 229890, Note_on_c, 0, 54, 0
3, 229890, Note_on_c, 0, 60, 0
3, 229890, Note_on_c, 0, 59, 90
3, 229890, Note_on_c, 0, 56, 90
3, 229920, Note_on_c, 0, 56, 0
3, 229920, Note_on_c, 0, 59, 0
3, 229920, Note_on_c, 0, 57, 90
3, 229920, Note_on_c, 0, 57, 90
3, 230010, Note_on_c, 0, 57, 0
3, 230010, Note_on_c, 0, 57, 0
3, 230010, Note_on_c, 0, 64, 90
3, 230010, Note_on_c, 0, 55, 90
3, 230040, Note_on_c, 0, 55, 0
3, 230040, Note_on_c, 0, 53, 90
3, 230130, Note_on_c, 0, 64, 0
3, 230130, Note_on_c, 0, 63, 90
3, 230160, Note_on_c, 0, 63, 0
3, 230160, Note_on_c, 0, 53, 0
3, 230160, Note_on_c, 0, 64, 90
3, 230160, Note_on_c, 0, 52, 90
3, 230250, Note_on_c, 0, 64, 0
3, 230250, Note_on_c, 0, 59, 90
3, 230280, Note_on_c, 0, 59, 0
3, 230280, Note_on_c, 0, 60, 90
3, 230370, Note_on_c, 0, 60, 0
3, 230370, Note_on_c, 0, 56, 90
3, 230400, Note_on_c, 0, 56, 0
3, 230400, Note_on_c, 0, 52, 0
3, 230400, Note_on_c, 0, 57, 90
3, 230490, Note_on_c, 0, 57, 0
3, 230490, Note_on_c, 0, 52, 90
3, 230520, Note_on_c, 0, 52, 0
3, 230520, Note_on_c, 0, 53, 90
3, 230670, Note_on_c, 0, 53, 0
3, 230670, Note_on_c, 0, 55, 90
3, 230700, Note_on_c, 0, 55, 0
3, 230700, Note_on_c, 0, 53, 90
3, 230730, Note_on_c, 0, 53, 0
3, 230730, Note_on_c, 0, 52, 90
3, 230760, Note_on_c, 0, 52, 0
3, 230760, Note_on_c, 0, 50, 90
3, 230955, Note_on_c, 0, 50, 0
3, 230955, Note_on_c, 0, 57, 90
3, 230970, Note_on_c, 0, 57, 0
3, 230970, Note_on_c, 0, 58, 90
3, 230985, Note_on_c, 0, 58, 0
3, 230985, Note_on_c, 0, 60, 90
3, 231000, Note_on_c, 0, 60, 0
3, 231000, Note_on_c, 0, 62, 90
3, 231090, Note_on_c, 0, 62, 0
3, 231090, Note_on_c, 0, 60, 90
3, 231120, Note_on_c, 0, 60, 0
3, 231120, Note_on_c, 0, 58, 90
3, 231210, Note_on_c, 0, 58, 0
3, 231210, Note_on_c, 0, 60, 90
3, 231240, Note_on_c, 0, 60, 0
3, 231240, Note_on_c, 0, 58, 90
3, 231330, Note_on_c, 0, 58, 0
3, 231330, Note_on_c, 0, 57, 90
3, 231360, Note_on_c, 0, 57, 0
3, 231360, Note_on_c, 0, 55, 90
3, 231435, Note_on_c, 0, 55, 0
3, 231435, Note_on_c, 0, 62, 90
3, 231450, Note_on_c, 0, 62, 0
3, 231450, Note_on_c, 0, 64, 90
3, 231465, Note_on_c, 0, 64, 0
3, 231465, Note_on_c, 0, 65, 90
3, 231480, Note_on_c, 0, 65, 0
3, 231480, Note_on_c, 0, 67, 90
3, 231570, Note_on_c, 0, 67, 0
3, 231570, Note_on_c, 0, 65, 90
3, 231600, Note_on_c, 0, 65, 0
3, 231600, Note_on_c, 0, 64, 90
3, 231690, Note_on_c, 0, 64, 0
3, 231690, Note_on_c, 0, 65, 90
3, 231720, Note_on_c, 0, 65, 0
3, 231720, Note_on_c, 0, 64, 90
3, 231810, Note_on_c, 0, 64, 0
3, 231810, Note_on_c, 0, 62, 90
3, 231840, Note_on_c, 0, 62, 0
3, 231840, Note_on_c, 0, 61, 90
3, 231840, Note_on_c, 0, 57, 90
3, 231960, Note_on_c, 0, 57, 0
3, 231960, Note_on_c, 0, 61, 0
3, 231960, Note_on_c, 0, 57, 90
3, 231960, Note_on_c, 0, 50, 90
3, 232050, Note_on_c, 0, 50, 0
3, 232050, Note_on_c, 0, 52, 90
3, 232080, Note_on_c, 0, 52, 0
3, 232080, Note_on_c, 0, 53, 90
3, 232170, Note_on_c, 0, 53, 0
3, 232170, Note_on_c, 0, 55, 90
3, 232200, Note_on_c, 0, 55, 0
3, 232200, Note_on_c, 0, 57, 0
3, 232200, Note_on_c, 0, 57, 90
3, 232320, Note_on_c, 0, 57, 0
3, 232320, Note_on_c, 0, 62, 90
3, 232320, Note_on_c, 0, 58, 90
3, 232440, Note_on_c, 0, 58, 0
3, 232440, Note_on_c, 0, 57, 90
3, 232530, Note_on_c, 0, 57, 0
3, 232530, Note_on_c, 0, 55, 90
3, 232560, Note_on_c, 0, 55, 0
3, 232560, Note_on_c, 0, 62, 0
3, 232560, Note_on_c, 0, 53, 90
3, 232710, Note_on_c, 0, 53, 0
3, 232710, Note_on_c, 0, 52, 90
3, 232740, Note_on_c, 0, 52, 0
3, 232740, Note_on_c, 0, 67, 90
3, 232740, Note_on_c, 0, 53, 90
3, 232770, Note_on_c, 0, 53, 0
3, 232770, Note_on_c, 0, 55, 90
3, 232800, Note_on_c, 0, 55, 0
3, 232800, Note_on_c, 0, 67, 0
3, 232800, Note_on_c, 0, 65, 90
3, 232800, Note_on_c, 0, 57, 90
3, 232980, Note_on_c, 0, 65, 0
3, 232980, Note_on_c, 0, 64, 90
3, 233040, Note_on_c, 0, 64, 0
3, 233040, Note_on_c, 0, 57, 0
3, 233040, Note_on_c, 0, 62, 90
3, 233220, Note_on_c, 0, 58, 90
3, 233280, Note_on_c, 0, 58, 0
3, 233280, Note_on_c, 0, 62, 0
3, 233280, Note_on_c, 0, 61, 90
3, 233280, Note_on_c, 0, 57, 90
3, 233370, Note_on_c, 0, 57, 0
3, 233370, Note_on_c, 0, 55, 90
3, 233400, Note_on_c, 0, 55, 0
3, 233400, Note_on_c, 0, 53, 90
3, 233520, Note_on_c, 0, 61, 0
3, 233520, Note_on_c, 0, 62, 90
3, 233595, Note_on_c, 0, 53, 0
3, 233595, Note_on_c, 0, 55, 90
3, 233610, Note_on_c, 0, 55, 0
3, 233610, Note_on_c, 0, 53, 90
3, 233625, Note_on_c, 0, 53, 0
3, 233625, Note_on_c, 0, 52, 90
3, 233640, Note_on_c, 0, 52, 0
3, 233640, Note_on_c, 0, 50, 90
3, 233700, Note_on_c, 0, 62, 0
3, 233700, Note_on_c, 0, 64, 90
3, 233760, Note_on_c, 0, 64, 0
3, 233760, Note_on_c, 0, 50, 0
3, 233760, Note_on_c, 0, 65, 90
3, 233835, Note_on_c, 0, 50, 90
3, 233850, Note_on_c, 0, 50, 0
3, 233850, Note_on_c, 0, 52, 90
3, 233865, Note_on_c, 0, 52, 0
3, 233865, Note_on_c, 0, 53, 90
3, 233880, Note_on_c, 0, 53, 0
3, 233880, Note_on_c, 0, 55, 90
3, 234075, Note_on_c, 0, 55, 0
3, 234075, Note_on_c, 0, 52, 90
3, 234090, Note_on_c, 0, 52, 0
3, 234090, Note_on_c, 0, 65, 0
3, 234090, Note_on_c, 0, 67, 90
3, 234090, Note_on_c, 0, 53, 90
3, 234105, Note_on_c, 0, 53, 0
3, 234105, Note_on_c, 0, 55, 90
3, 234120, Note_on_c, 0, 55, 0
3, 234120, Note_on_c, 0, 67, 0
3, 234120, Note_on_c, 0, 65, 90
3, 234120, Note_on_c, 0, 57, 90
3, 234210, Note_on_c, 0, 57, 0
3, 234210, Note_on_c, 0, 65, 0
3, 234210, Note_on_c, 0, 64, 90
3, 234210, Note_on_c, 0, 55, 90
3, 234240, Note_on_c, 0, 55, 0
3, 234240, Note_on_c, 0, 64, 0
3, 234240, Note_on_c, 0, 62, 90
3, 234240, Note_on_c, 0, 53, 90
3, 234330, Note_on_c, 0, 53, 0
3, 234330, Note_on_c, 0, 50, 90
3, 234360, Note_on_c, 0, 50, 0
3, 234360, Note_on_c, 0, 62, 0
3, 234360, Note_on_c, 0, 55, 90
3, 234450, Note_on_c, 0, 55, 0
3, 234450, Note_on_c, 0, 53, 90
3, 234480, Note_on_c, 0, 53, 0
3, 234480, Note_on_c, 0, 60, 90
3, 234480, Note_on_c, 0, 52, 90
3, 234555, Note_on_c, 0, 52, 0
3, 234555, Note_on_c, 0, 48, 90
3, 234570, Note_on_c, 0, 48, 0
3, 234570, Note_on_c, 0, 50, 90
3, 234585, Note_on_c, 0, 50, 0
3, 234585, Note_on_c, 0, 52, 90
3, 234600, Note_on_c, 0, 52, 0
3, 234600, Note_on_c, 0, 53, 90
3, 234690, Note_on_c, 0, 53, 0
3, 234690, Note_on_c, 0, 51, 90
3, 234720, Note_on_c, 0, 51, 0
3, 234720, Note_on_c, 0, 60, 0
3, 234720, Note_on_c, 0, 53, 90
3, 234720, Note_on_c, 0, 50, 90
3, 234810, Note_on_c, 0, 50, 0
3, 234810, Note_on_c, 0, 48, 90
3, 234840, Note_on_c, 0, 48, 0
3, 234840, Note_on_c, 0, 50, 90
3, 234900, Note_on_c, 0, 53, 0
3, 234900, Note_on_c, 0, 55, 90
3, 234930, Note_on_c, 0, 50, 0
3, 234930, Note_on_c, 0, 52, 90
3, 234960, Note_on_c, 0, 52, 0
3, 234960, Note_on_c, 0, 55, 0
3, 234960, Note_on_c, 0, 57, 90
3, 234960, Note_on_c, 0, 53, 90
3, 235050, Note_on_c, 0, 53, 0
3, 235050, Note_on_c, 0, 52, 90
3, 235080, Note_on_c, 0, 52, 0
3, 235080, Note_on_c, 0, 53, 90
3, 235140, Note_on_c, 0, 57, 0
3, 235140, Note_on_c, 0, 58, 90
3, 235170, Note_on_c, 0, 53, 0
3, 235170, Note_on_c, 0, 55, 90
3, 235200, Note_on_c, 0, 55, 0
3, 235200, Note_on_c, 0, 58, 0
3, 235200, Note_on_c, 0, 60, 90
3, 235200, Note_on_c, 0, 57, 90
3, 235395, Note_on_c, 0, 57, 0
3, 235395, Note_on_c, 0, 53, 90
3, 235410, Note_on_c, 0, 53, 0
3, 235410, Note_on_c, 0, 55, 90
3, 235425, Note_on_c, 0, 55, 0
3, 235425, Note_on_c, 0, 57, 90
3, 235440, Note_on_c, 0, 57, 0
3, 235440, Note_on_c, 0, 60, 0
3, 235440, Note_on_c, 0, 62, 90
3, 235440, Note_on_c, 0, 58, 90
3, 235530, Note_on_c, 0, 58, 0
3, 235530, Note_on_c, 0, 57, 90
3, 235560, Note_on_c, 0, 57, 0
3, 235560, Note_on_c, 0, 55, 90
3, 235650, Note_on_c, 0, 55, 0
3, 235650, Note_on_c, 0, 53, 90
3, 235680, Note_on_c, 0, 53, 0
3, 235680, Note_on_c, 0, 62, 0
3, 235680, Note_on_c, 0, 60, 90
3, 235680, Note_on_c, 0, 52, 90
3, 235770, Note_on_c, 0, 52, 0
3, 235770, Note_on_c, 0, 48, 90
3, 235800, Note_on_c, 0, 48, 0
3, 235800, Note_on_c, 0, 53, 90
3, 235860, Note_on_c, 0, 60, 0
3, 235860, Note_on_c, 0, 58, 90
3, 235920, Note_on_c, 0, 58, 0
3, 235920, Note_on_c, 0, 57, 90
3, 236010, Note_on_c, 0, 53, 0
3, 236010, Note_on_c, 0, 55, 90
3, 236040, Note_on_c, 0, 55, 0
3, 236040, Note_on_c, 0, 53, 90
3, 236130, Note_on_c, 0, 53, 0
3, 236130, Note_on_c, 0, 52, 90
3, 236160, Note_on_c, 0, 52, 0
3, 236160, Note_on_c, 0, 57, 0
3, 236160, Note_on_c, 0, 50, 90
3, 236250, Note_on_c, 0, 55, 90
3, 236280, Note_on_c, 0, 55, 0
3, 236280, Note_on_c, 0, 57, 90
3, 236370, Note_on_c, 0, 57, 0
3, 236370, Note_on_c, 0, 59, 90
3, 236400, Note_on_c, 0, 59, 0
3, 236400, Note_on_c, 0, 50, 0
3, 236400, Note_on_c, 0, 60, 90
3, 236400, Note_on_c, 0, 48, 90
3, 236475, Note_on_c, 0, 48, 0
3, 236475, Note_on_c, 0, 55, 90
3, 236490, Note_on_c, 0, 55, 0
3, 236490, Note_on_c, 0, 57, 90
3, 236505, Note_on_c, 0, 57, 0
3, 236505, Note_on_c, 0, 58, 90
3, 236520, Note_on_c, 0, 58, 0
3, 236520, Note_on_c, 0, 60, 0
3, 236520, Note_on_c, 0, 60, 90
3, 236610, Note_on_c, 0, 60, 0
3, 236610, Note_on_c, 0, 58, 90
3, 236640, Note_on_c, 0, 58, 0
3, 236640, Note_on_c, 0, 57, 90
3, 236730, Note_on_c, 0, 57, 0
3, 236730, Note_on_c, 0, 53, 90
3, 236760, Note_on_c, 0, 53, 0
3, 236760, Note_on_c, 0, 58, 90
3, 236850, Note_on_c, 0, 58, 0
3, 236850, Note_on_c, 0, 62, 90
3, 236880, Note_on_c, 0, 62, 0
3, 236880, Note_on_c, 0, 52, 90
3, 237075, Note_on_c, 0, 52, 0
3, 237075, Note_on_c, 0, 48, 90
3, 237090, Note_on_c, 0, 48, 0
3, 237090, Note_on_c, 0, 50, 90
3, 237105, Note_on_c, 0, 50, 0
3, 237105, Note_on_c, 0, 52, 90
3, 237120, Note_on_c, 0, 52, 0
3, 237120, Note_on_c, 0, 60, 90
3, 237120, Note_on_c, 0, 53, 90
3, 237210, Note_on_c, 0, 53, 0
3, 237210, Note_on_c, 0, 52, 90
3, 237240, Note_on_c, 0, 52, 0
3, 237240, Note_on_c, 0, 60, 0
3, 237240, Note_on_c, 0, 53, 90
3, 237240, Note_on_c, 0, 50, 90
3, 237330, Note_on_c, 0, 53, 0
3, 237330, Note_on_c, 0, 55, 90
3, 237360, Note_on_c, 0, 55, 0
3, 237360, Note_on_c, 0, 57, 90
3, 237390, Note_on_c, 0, 50, 0
3, 237390, Note_on_c, 0, 50, 90
3, 237420, Note_on_c, 0, 50, 0
3, 237420, Note_on_c, 0, 48, 90
3, 237450, Note_on_c, 0, 48, 0
3, 237450, Note_on_c, 0, 57, 0
3, 237450, Note_on_c, 0, 58, 90
3, 237450, Note_on_c, 0, 46, 90
3, 237480, Note_on_c, 0, 46, 0
3, 237480, Note_on_c, 0, 58, 0
3, 237480, Note_on_c, 0, 60, 90
3, 237480, Note_on_c, 0, 45, 90
3, 237510, Note_on_c, 0, 45, 0
3, 237510, Note_on_c, 0, 41, 90
3, 237540, Note_on_c, 0, 41, 0
3, 237540, Note_on_c, 0, 43, 90
3, 237570, Note_on_c, 0, 43, 0
3, 237570, Note_on_c, 0, 45, 90
3, 237600, Note_on_c, 0, 45, 0
3, 237600, Note_on_c, 0, 60, 0
3, 237600, Note_on_c, 0, 61, 90
3, 237600, Note_on_c, 0, 46, 90
3, 237630, Note_on_c, 0, 46, 0
3, 237630, Note_on_c, 0, 43, 90
3, 237660, Note_on_c, 0, 43, 0
3, 237660, Note_on_c, 0, 45, 90
3, 237690, Note_on_c, 0, 45, 0
3, 237690, Note_on_c, 0, 46, 90
3, 237720, Note_on_c, 0, 46, 0
3, 237720, Note_on_c, 0, 61, 0
3, 237720, Note_on_c, 0, 60, 90
3, 237720, Note_on_c, 0, 48, 90
3, 237810, Note_on_c, 0, 48, 0
3, 237810, Note_on_c, 0, 60, 0
3, 237810, Note_on_c, 0, 58, 90
3, 237810, Note_on_c, 0, 49, 90
3, 237840, Note_on_c, 0, 49, 0
3, 237840, Note_on_c, 0, 58, 0
3, 237840, Note_on_c, 0, 57, 90
3, 237840, Note_on_c, 0, 50, 90
3, 237870, Note_on_c, 0, 50, 0
3, 237870, Note_on_c, 0, 48, 90
3, 237900, Note_on_c, 0, 48, 0
3, 237900, Note_on_c, 0, 50, 90
3, 237930, Note_on_c, 0, 50, 0
3, 237930, Note_on_c, 0, 52, 90
3, 237960, Note_on_c, 0, 52, 0
3, 237960, Note_on_c, 0, 53, 90
3, 237990, Note_on_c, 0, 57, 0
3, 237990, Note_on_c, 0, 55, 90
3, 238020, Note_on_c, 0, 55, 0
3, 238020, Note_on_c, 0, 57, 90
3, 238050, Note_on_c, 0, 57, 0
3, 238050, Note_on_c, 0, 58, 90
3, 238080, Note_on_c, 0, 58, 0
3, 238080, Note_on_c, 0, 60, 90
3, 238110, Note_on_c, 0, 53, 0
3, 238110, Note_on_c, 0, 52, 90
3, 238140, Note_on_c, 0, 52, 0
3, 238140, Note_on_c, 0, 53, 90
3, 238170, Note_on_c, 0, 53, 0
3, 238170, Note_on_c, 0, 55, 90
3, 238200, Note_on_c, 0, 55, 0
3, 238200, Note_on_c, 0, 57, 90
3, 238230, Note_on_c, 0, 60, 0
3, 238230, Note_on_c, 0, 59, 90
3, 238260, Note_on_c, 0, 59, 0
3, 238260, Note_on_c, 0, 60, 90
3, 238290, Note_on_c, 0, 60, 0
3, 238290, Note_on_c, 0, 62, 90
3, 238320, Note_on_c, 0, 62, 0
3, 238320, Note_on_c, 0, 64, 90
3, 238410, Note_on_c, 0, 57, 0
3, 238410, Note_on_c, 0, 55, 90
3, 238440, Note_on_c, 0, 55, 0
3, 238440, Note_on_c, 0, 64, 0
3, 238440, Note_on_c, 0, 53, 90
3, 238530, Note_on_c, 0, 53, 0
3, 238530, Note_on_c, 0, 52, 90
3, 238560, Note_on_c, 0, 52, 0
3, 238560, Note_on_c, 0, 50, 90
3, 238755, Note_on_c, 0, 50, 0
3, 238755, Note_on_c, 0, 38, 90
3, 238770, Note_on_c, 0, 38, 0
3, 238770, Note_on_c, 0, 40, 90
3, 238785, Note_on_c, 0, 40, 0
3, 238785, Note_on_c, 0, 41, 90
3, 238800, Note_on_c, 0, 41, 0
3, 238800, Note_on_c, 0, 43, 90
3, 238995, Note_on_c, 0, 43, 0
3, 238995, Note_on_c, 0, 41, 90
3, 239010, Note_on_c, 0, 41, 0
3, 239010, Note_on_c, 0, 40, 90
3, 239025, Note_on_c, 0, 40, 0
3, 239025, Note_on_c, 0, 38, 90
3, 239040, Note_on_c, 0, 38, 0
3, 239040, Note_on_c, 0, 36, 90
3, 239235, Note_on_c, 0, 36, 0
3, 239235, Note_on_c, 0, 48, 90
3, 239250, Note_on_c, 0, 48, 0
3, 239250, Note_on_c, 0, 50, 90
3, 239265, Note_on_c, 0, 50, 0
3, 239265, Note_on_c, 0, 52, 90
3, 239280, Note_on_c, 0, 52, 0
3, 239280, Note_on_c, 0, 53, 90
3, 239475, Note_on_c, 0, 53, 0
3, 239475, Note_on_c, 0, 52, 90
3, 239490, Note_on_c, 0, 52, 0
3, 239490, Note_on_c, 0, 50, 90
3, 239505, Note_on_c, 0, 50, 0
3, 239505, Note_on_c, 0, 48, 90
3, 239520, Note_on_c, 0, 48, 0
3, 239520, Note_on_c, 0, 50, 90
3, 239520, Note_on_c, 0, 46, 90
3, 239760, Note_on_c, 0, 46, 0
3, 239760, Note_on_c, 0, 50, 0
3, 239760, Note_on_c, 0, 57, 90
3, 239760, Note_on_c, 0, 45, 90
3, 239940, Note_on_c, 0, 57, 0
3, 239940, Note_on_c, 0, 55, 90
3, 240000, Note_on_c, 0, 55, 0
3, 240000, Note_on_c, 0, 53, 90
3, 240180, Note_on_c, 0, 53, 0
3, 240180, Note_on_c, 0, 52, 90
3, 240240, Note_on_c, 0, 52, 0
3, 240240, Note_on_c, 0, 50, 90
3, 240480, Note_on_c, 0, 50, 0
3, 240480, Note_on_c, 0, 49, 90
3, 240660, Note_on_c, 0, 45, 0
3, 240660, Note_on_c, 0, 45, 90
3, 240720, Note_on_c, 0, 45, 0
3, 240720, Note_on_c, 0, 49, 0
3, 240720, Note_on_c, 0, 50, 90
3, 240720, Note_on_c, 0, 46, 90
3, 240810, Note_on_c, 0, 46, 0
3, 240810, Note_on_c, 0, 45, 90
3, 240840, Note_on_c, 0, 45, 0
3, 240840, Note_on_c, 0, 43, 90
3, 240900, Note_on_c, 0, 50, 0
3, 240900, Note_on_c, 0, 52, 90
3, 240960, Note_on_c, 0, 52, 0
3, 240960, Note_on_c, 0, 43, 0
3, 240960, Note_on_c, 0, 53, 90
3, 240960, Note_on_c, 0, 41, 90
3, 241050, Note_on_c, 0, 41, 0
3, 241050, Note_on_c, 0, 43, 90
3, 241080, Note_on_c, 0, 43, 0
3, 241080, Note_on_c, 0, 45, 90
3, 241170, Note_on_c, 0, 45, 0
3, 241170, Note_on_c, 0, 46, 90
3, 241200, Note_on_c, 0, 46, 0
3, 241200, Note_on_c, 0, 48, 90
3, 241290, Note_on_c, 0, 53, 0
3, 241290, Note_on_c, 0, 55, 90
3, 241320, Note_on_c, 0, 55, 0
3, 241320, Note_on_c, 0, 53, 90
3, 241410, Note_on_c, 0, 53, 0
3, 241410, Note_on_c, 0, 51, 90
3, 241440, Note_on_c, 0, 51, 0
3, 241440, Note_on_c, 0, 50, 90
3, 241530, Note_on_c, 0, 50, 0
3, 241530, Note_on_c, 0, 54, 90
3, 241560, Note_on_c, 0, 54, 0
3, 241560, Note_on_c, 0, 55, 90
3, 241620, Note_on_c, 0, 48, 0
3, 241620, Note_on_c, 0, 48, 90
3, 241650, Note_on_c, 0, 55, 0
3, 241650, Note_on_c, 0, 57, 90
3, 241680, Note_on_c, 0, 57, 0
3, 241680, Note_on_c, 0, 48, 0
3, 241680, Note_on_c, 0, 58, 90
3, 241680, Note_on_c, 0, 46, 90
3, 241800, Note_on_c, 0, 58, 0
3, 241800, Note_on_c, 0, 60, 90
3, 241860, Note_on_c, 0, 46, 0
3, 241860, Note_on_c, 0, 45, 90
3, 241920, Note_on_c, 0, 45, 0
3, 241920, Note_on_c, 0, 60, 0
3, 241920, Note_on_c, 0, 62, 90
3, 241920, Note_on_c, 0, 43, 90
3, 242040, Note_on_c, 0, 43, 0
3, 242040, Note_on_c, 0, 50, 90
3, 242070, Note_on_c, 0, 62, 0
3, 242070, Note_on_c, 0, 60, 90
3, 242100, Note_on_c, 0, 60, 0
3, 242100, Note_on_c, 0, 58, 90
3, 242130, Note_on_c, 0, 58, 0
3, 242130, Note_on_c, 0, 50, 0
3, 242130, Note_on_c, 0, 57, 90
3, 242130, Note_on_c, 0, 48, 90
3, 242160, Note_on_c, 0, 48, 0
3, 242160, Note_on_c, 0, 57, 0
3, 242160, Note_on_c, 0, 55, 90
3, 242160, Note_on_c, 0, 46, 90
3, 242250, Note_on_c, 0, 46, 0
3, 242250, Note_on_c, 0, 45, 90
3, 242280, Note_on_c, 0, 45, 0
3, 242280, Note_on_c, 0, 55, 0
3, 242280, Note_on_c, 0, 43, 90
3, 242400, Note_on_c, 0, 43, 0
3, 242400, Note_on_c, 0, 42, 90
3, 242520, Note_on_c, 0, 42, 0
3, 242520, Note_on_c, 0, 43, 90
3, 242610, Note_on_c, 0, 43, 0
3, 242610, Note_on_c, 0, 45, 90
3, 242640, Note_on_c, 0, 45, 0
3, 242640, Note_on_c, 0, 62, 90
3, 242640, Note_on_c, 0, 46, 90
3, 242760, Note_on_c, 0, 62, 0
3, 242760, Note_on_c, 0, 55, 90
3, 242790, Note_on_c, 0, 46, 0
3, 242790, Note_on_c, 0, 48, 90
3, 242820, Note_on_c, 0, 48, 0
3, 242820, Note_on_c, 0, 46, 90
3, 242850, Note_on_c, 0, 46, 0
3, 242850, Note_on_c, 0, 55, 0
3, 242850, Note_on_c, 0, 57, 90
3, 242850, Note_on_c, 0, 45, 90
3, 242880, Note_on_c, 0, 45, 0
3, 242880, Note_on_c, 0, 57, 0
3, 242880, Note_on_c, 0, 58, 90
3, 242880, Note_on_c, 0, 43, 90
3, 242940, Note_on_c, 0, 43, 0
3, 242940, Note_on_c, 0, 55, 90
3, 242970, Note_on_c, 0, 58, 0
3, 242970, Note_on_c, 0, 60, 90
3, 243000, Note_on_c, 0, 60, 0
3, 243000, Note_on_c, 0, 62, 90
3, 243075, Note_on_c, 0, 55, 0
3, 243075, Note_on_c, 0, 53, 90
3, 243090, Note_on_c, 0, 53, 0
3, 243090, Note_on_c, 0, 51, 90
3, 243105, Note_on_c, 0, 51, 0
3, 243105, Note_on_c, 0, 50, 90
3, 243120, Note_on_c, 0, 50, 0
3, 243120, Note_on_c, 0, 62, 0
3, 243120, Note_on_c, 0, 63, 90
3, 243120, Note_on_c, 0, 48, 90
3, 243210, Note_on_c, 0, 48, 0
3, 243210, Note_on_c, 0, 53, 90
3, 243240, Note_on_c, 0, 53, 0
3, 243240, Note_on_c, 0, 63, 0
3, 243240, Note_on_c, 0, 62, 90
3, 243240, Note_on_c, 0, 55, 90
3, 243330, Note_on_c, 0, 55, 0
3, 243330, Note_on_c, 0, 62, 0
3, 243330, Note_on_c, 0, 60, 90
3, 243330, Note_on_c, 0, 57, 90
3, 243360, Note_on_c, 0, 57, 0
3, 243360, Note_on_c, 0, 60, 0
3, 243360, Note_on_c, 0, 58, 90
3, 243360, Note_on_c, 0, 58, 90
3, 243450, Note_on_c, 0, 58, 0
3, 243450, Note_on_c, 0, 57, 90
3, 243480, Note_on_c, 0, 57, 0
3, 243480, Note_on_c, 0, 55, 90
3, 243510, Note_on_c, 0, 58, 0
3, 243510, Note_on_c, 0, 57, 90
3, 243540, Note_on_c, 0, 57, 0
3, 243540, Note_on_c, 0, 58, 90
3, 243570, Note_on_c, 0, 58, 0
3, 243570, Note_on_c, 0, 60, 90
3, 243600, Note_on_c, 0, 60, 0
3, 243600, Note_on_c, 0, 62, 90
3, 243690, Note_on_c, 0, 55, 0
3, 243690, Note_on_c, 0, 53, 90
3, 243720, Note_on_c, 0, 53, 0
3, 243720, Note_on_c, 0, 51, 90
3, 243750, Note_on_c, 0, 62, 0
3, 243750, Note_on_c, 0, 55, 90
3, 243780, Note_on_c, 0, 55, 0
3, 243780, Note_on_c, 0, 57, 90
3, 243810, Note_on_c, 0, 57, 0
3, 243810, Note_on_c, 0, 59, 90
3, 243840, Note_on_c, 0, 59, 0
3, 243840, Note_on_c, 0, 60, 90
3, 243930, Note_on_c, 0, 51, 0
3, 243930, Note_on_c, 0, 50, 90
3, 243960, Note_on_c, 0, 50, 0
3, 243960, Note_on_c, 0, 60, 0
3, 243960, Note_on_c, 0, 48, 90
3, 244050, Note_on_c, 0, 48, 0
3, 244050, Note_on_c, 0, 50, 90
3, 244080, Note_on_c, 0, 50, 0
3, 244080, Note_on_c, 0, 51, 90
3, 244110, Note_on_c, 0, 51, 0
3, 244110, Note_on_c, 0, 55, 90
3, 244140, Note_on_c, 0, 55, 0
3, 244140, Note_on_c, 0, 53, 90
3, 244170, Note_on_c, 0, 53, 0
3, 244170, Note_on_c, 0, 51, 90
3, 244200, Note_on_c, 0, 51, 0
3, 244200, Note_on_c, 0, 50, 90
3, 244230, Note_on_c, 0, 50, 0
3, 244230, Note_on_c, 0, 48, 90
3, 244260, Note_on_c, 0, 48, 0
3, 244260, Note_on_c, 0, 46, 90
3, 244290, Note_on_c, 0, 46, 0
3, 244290, Note_on_c, 0, 45, 90
3, 244320, Note_on_c, 0, 45, 0
3, 244320, Note_on_c, 0, 43, 90
3, 244410, Note_on_c, 0, 43, 0
3, 244410, Note_on_c, 0, 41, 90
3, 244440, Note_on_c, 0, 41, 0
3, 244440, Note_on_c, 0, 43, 90
3, 244530, Note_on_c, 0, 43, 0
3, 244530, Note_on_c, 0, 46, 90
3, 244560, Note_on_c, 0, 46, 0
3, 244560, Note_on_c, 0, 45, 90
3, 244590, Note_on_c, 0, 45, 0
3, 244590, Note_on_c, 0, 41, 90
3, 244620, Note_on_c, 0, 41, 0
3, 244620, Note_on_c, 0, 43, 90
3, 244650, Note_on_c, 0, 43, 0
3, 244650, Note_on_c, 0, 45, 90
3, 244680, Note_on_c, 0, 45, 0
3, 244680, Note_on_c, 0, 46, 90
3, 244710, Note_on_c, 0, 46, 0
3, 244710, Note_on_c, 0, 48, 90
3, 244740, Note_on_c, 0, 48, 0
3, 244740, Note_on_c, 0, 50, 90
3, 244770, Note_on_c, 0, 50, 0
3, 244770, Note_on_c, 0, 51, 90
3, 244800, Note_on_c, 0, 51, 0
3, 244800, Note_on_c, 0, 50, 90
3, 244920, Note_on_c, 0, 50, 0
3, 244920, Note_on_c, 0, 58, 90
3, 244920, Note_on_c, 0, 51, 90
3, 245010, Note_on_c, 0, 58, 0
3, 245010, Note_on_c, 0, 60, 90
3, 245040, Note_on_c, 0, 60, 0
3, 245040, Note_on_c, 0, 51, 0
3, 245040, Note_on_c, 0, 62, 90
3, 245040, Note_on_c, 0, 53, 90
3, 245130, Note_on_c, 0, 62, 0
3, 245130, Note_on_c, 0, 63, 90
3, 245160, Note_on_c, 0, 63, 0
3, 245160, Note_on_c, 0, 65, 90
3, 245280, Note_on_c, 0, 65, 0
3, 245310, Note_on_c, 0, 53, 0
3, 245310, Note_on_c, 0, 51, 90
3, 245325, Note_on_c, 0, 51, 0
3, 245325, Note_on_c, 0, 50, 90
3, 245340, Note_on_c, 0, 50, 0
3, 245340, Note_on_c, 0, 51, 90
3, 245370, Note_on_c, 0, 51, 0
3, 245370, Note_on_c, 0, 48, 90
3, 245400, Note_on_c, 0, 48, 0
3, 245400, Note_on_c, 0, 46, 90
3, 245415, Note_on_c, 0, 46, 0
3, 245415, Note_on_c, 0, 45, 90
3, 245430, Note_on_c, 0, 45, 0
3, 245430, Note_on_c, 0, 46, 90
3, 245445, Note_on_c, 0, 46, 0
3, 245445, Note_on_c, 0, 45, 90
3, 245460, Note_on_c, 0, 45, 0
3, 245460, Note_on_c, 0, 46, 90
3, 245475, Note_on_c, 0, 46, 0
3, 245475, Note_on_c, 0, 45, 90
3, 245490, Note_on_c, 0, 45, 0
3, 245490, Note_on_c, 0, 43, 90
3, 245505, Note_on_c, 0, 43, 0
3, 245505, Note_on_c, 0, 45, 90
3, 245520, Note_on_c, 0, 45, 0
3, 245520, Note_on_c, 0, 46, 90
3, 245610, Note_on_c, 0, 46, 0
3, 245610, Note_on_c, 0, 58, 90
3, 245640, Note_on_c, 0, 58, 0
3, 245640, Note_on_c, 0, 57, 90
3, 245730, Note_on_c, 0, 57, 0
3, 245730, Note_on_c, 0, 55, 90
3, 245760, Note_on_c, 0, 55, 0
3, 245760, Note_on_c, 0, 53, 90
3, 245850, Note_on_c, 0, 53, 0
3, 245850, Note_on_c, 0, 41, 90
3, 245880, Note_on_c, 0, 41, 0
3, 245880, Note_on_c, 0, 39, 90
3, 245970, Note_on_c, 0, 39, 0
3, 245970, Note_on_c, 0, 38, 90
3, 246000, Note_on_c, 0, 38, 0
3, 246000, Note_on_c, 0, 36, 90
3, 246090, Note_on_c, 0, 36, 0
3, 246090, Note_on_c, 0, 48, 90
3, 246120, Note_on_c, 0, 48, 0
3, 246120, Note_on_c, 0, 46, 90
3, 246210, Note_on_c, 0, 46, 0
3, 246210, Note_on_c, 0, 45, 90
3, 246240, Note_on_c, 0, 45, 0
3, 246240, Note_on_c, 0, 43, 90
3, 246330, Note_on_c, 0, 43, 0
3, 246330, Note_on_c, 0, 55, 90
3, 246360, Note_on_c, 0, 55, 0
3, 246360, Note_on_c, 0, 53, 90
3, 246450, Note_on_c, 0, 53, 0
3, 246450, Note_on_c, 0, 52, 90
3, 246480, Note_on_c, 0, 52, 0
3, 246480, Note_on_c, 0, 50, 90
3, 246555, Note_on_c, 0, 50, 0
3, 246555, Note_on_c, 0, 57, 90
3, 246570, Note_on_c, 0, 57, 0
3, 246570, Note_on_c, 0, 59, 90
3, 246585, Note_on_c, 0, 59, 0
3, 246585, Note_on_c, 0, 61, 90
3, 246600, Note_on_c, 0, 61, 0
3, 246600, Note_on_c, 0, 62, 90
3, 246690, Note_on_c, 0, 62, 0
3, 246690, Note_on_c, 0, 60, 90
3, 246720, Note_on_c, 0, 60, 0
3, 246720, Note_on_c, 0, 58, 90
3, 246810, Note_on_c, 0, 58, 0
3, 246810, Note_on_c, 0, 57, 90
3, 246840, Note_on_c, 0, 57, 0
3, 246840, Note_on_c, 0, 58, 90
3, 246930, Note_on_c, 0, 58, 0
3, 246930, Note_on_c, 0, 55, 90
3, 246960, Note_on_c, 0, 55, 0
3, 246960, Note_on_c, 0, 57, 90
3, 247080, Note_on_c, 0, 57, 0
3, 247200, Note_on_c, 0, 45, 90
3, 247440, Note_on_c, 0, 45, 0
3, 247440, Note_on_c, 0, 38, 90
3, 247620, Note_on_c, 0, 38, 0
3, 247620, Note_on_c, 0, 40, 90
3, 247680, Note_on_c, 0, 40, 0
3, 247680, Note_on_c, 0, 50, 90
3, 247680, Note_on_c, 0, 41, 90
3, 247800, Note_on_c, 0, 50, 0
3, 247800, Note_on_c, 0, 57, 90
3, 247860, Note_on_c, 0, 41, 0
3, 247860, Note_on_c, 0, 43, 90
3, 247890, Note_on_c, 0, 57, 0
3, 247890, Note_on_c, 0, 55, 90
3, 247920, Note_on_c, 0, 55, 0
3, 247920, Note_on_c, 0, 43, 0
3, 247920, Note_on_c, 0, 53, 90
3, 247920, Note_on_c, 0, 45, 90
3, 248010, Note_on_c, 0, 53, 0
3, 248010, Note_on_c, 0, 52, 90
3, 248040, Note_on_c, 0, 52, 0
3, 248040, Note_on_c, 0, 50, 90
3, 248160, Note_on_c, 0, 50, 0
3, 248160, Note_on_c, 0, 45, 0
3, 248160, Note_on_c, 0, 49, 90
3, 248160, Note_on_c, 0, 46, 90
3, 248280, Note_on_c, 0, 49, 0
3, 248280, Note_on_c, 0, 50, 90
3, 248370, Note_on_c, 0, 50, 0
3, 248370, Note_on_c, 0, 52, 90
3, 248400, Note_on_c, 0, 52, 0
3, 248400, Note_on_c, 0, 46, 0
3, 248400, Note_on_c, 0, 53, 90
3, 248400, Note_on_c, 0, 45, 90
3, 248550, Note_on_c, 0, 53, 0
3, 248550, Note_on_c, 0, 55, 90
3, 248580, Note_on_c, 0, 55, 0
3, 248580, Note_on_c, 0, 45, 0
3, 248580, Note_on_c, 0, 53, 90
3, 248580, Note_on_c, 0, 43, 90
3, 248610, Note_on_c, 0, 53, 0
3, 248610, Note_on_c, 0, 52, 90
3, 248640, Note_on_c, 0, 52, 0
3, 248640, Note_on_c, 0, 43, 0
3, 248640, Note_on_c, 0, 50, 90
3, 248640, Note_on_c, 0, 41, 90
3, 248730, Note_on_c, 0, 50, 0
3, 248730, Note_on_c, 0, 49, 90
3, 248760, Note_on_c, 0, 49, 0
3, 248760, Note_on_c, 0, 50, 90
3, 248850, Note_on_c, 0, 50, 0
3, 248850, Note_on_c, 0, 52, 90
3, 248880, Note_on_c, 0, 52, 0
3, 248880, Note_on_c, 0, 53, 90
3, 248940, Note_on_c, 0, 53, 0
3, 248970, Note_on_c, 0, 41, 0
3, 248970, Note_on_c, 0, 40, 90
3, 249000, Note_on_c, 0, 40, 0
3, 249000, Note_on_c, 0, 41, 90
3, 249090, Note_on_c, 0, 41, 0
3, 249090, Note_on_c, 0, 43, 90
3, 249120, Note_on_c, 0, 43, 0
3, 249120, Note_on_c, 0, 45, 90
3, 249195, Note_on_c, 0, 52, 90
3, 249210, Note_on_c, 0, 52, 0
3, 249210, Note_on_c, 0, 54, 90
3, 249225, Note_on_c, 0, 54, 0
3, 249225, Note_on_c, 0, 56, 90
3, 249240, Note_on_c, 0, 56, 0
3, 249240, Note_on_c, 0, 57, 90
3, 249420, Note_on_c, 0, 57, 0
3, 249435, Note_on_c, 0, 45, 0
3, 249435, Note_on_c, 0, 48, 90
3, 249450, Note_on_c, 0, 48, 0
3, 249450, Note_on_c, 0, 47, 90
3, 249465, Note_on_c, 0, 47, 0
3, 249465, Note_on_c, 0, 45, 90
3, 249480, Note_on_c, 0, 45, 0
3, 249480, Note_on_c, 0, 43, 90
3, 249555, Note_on_c, 0, 43, 0
3, 249555, Note_on_c, 0, 45, 90
3, 249570, Note_on_c, 0, 45, 0
3, 249570, Note_on_c, 0, 43, 90
3, 249585, Note_on_c, 0, 43, 0
3, 249585, Note_on_c, 0, 41, 90
3, 249600, Note_on_c, 0, 41, 0
3, 249600, Note_on_c, 0, 40, 90
3, 249690, Note_on_c, 0, 40, 0
3, 249690, Note_on_c, 0, 38, 90
3, 249720, Note_on_c, 0, 38, 0
3, 249720, Note_on_c, 0, 40, 90
3, 249810, Note_on_c, 0, 40, 0
3, 249810, Note_on_c, 0, 41, 90
3, 249840, Note_on_c, 0, 41, 0
3, 249840, Note_on_c, 0, 43, 90
3, 249915, Note_on_c, 0, 50, 90
3, 249930, Note_on_c, 0, 50, 0
3, 249930, Note_on_c, 0, 52, 90
3, 249945, Note_on_c, 0, 52, 0
3, 249945, Note_on_c, 0, 54, 90
3, 249960, Note_on_c, 0, 54, 0
3, 249960, Note_on_c, 0, 55, 90
3, 250140, Note_on_c, 0, 55, 0
3, 250155, Note_on_c, 0, 43, 0
3, 250155, Note_on_c, 0, 46, 90
3, 250170, Note_on_c, 0, 46, 0
3, 250170, Note_on_c, 0, 45, 90
3, 250185, Note_on_c, 0, 45, 0
3, 250185, Note_on_c, 0, 43, 90
3, 250200, Note_on_c, 0, 43, 0
3, 250200, Note_on_c, 0, 41, 90
3, 250275, Note_on_c, 0, 41, 0
3, 250275, Note_on_c, 0, 43, 90
3, 250290, Note_on_c, 0, 43, 0
3, 250290, Note_on_c, 0, 41, 90
3, 250305, Note_on_c, 0, 41, 0
3, 250305, Note_on_c, 0, 40, 90
3, 250320, Note_on_c, 0, 40, 0
3, 250320, Note_on_c, 0, 38, 90
3, 250410, Note_on_c, 0, 38, 0
3, 250410, Note_on_c, 0, 36, 90
3, 250440, Note_on_c, 0, 36, 0
3, 250440, Note_on_c, 0, 38, 90
3, 250530, Note_on_c, 0, 38, 0
3, 250530, Note_on_c, 0, 40, 90
3, 250560, Note_on_c, 0, 40, 0
3, 250560, Note_on_c, 0, 41, 90
3, 250635, Note_on_c, 0, 48, 90
3, 250650, Note_on_c, 0, 48, 0
3, 250650, Note_on_c, 0, 50, 90
3, 250665, Note_on_c, 0, 50, 0
3, 250665, Note_on_c, 0, 52, 90
3, 250680, Note_on_c, 0, 52, 0
3, 250680, Note_on_c, 0, 53, 90
3, 250830, Note_on_c, 0, 53, 0
3, 250830, Note_on_c, 0, 55, 90
3, 250860, Note_on_c, 0, 55, 0
3, 250860, Note_on_c, 0, 41, 0
3, 250860, Note_on_c, 0, 53, 90
3, 250890, Note_on_c, 0, 53, 0
3, 250890, Note_on_c, 0, 52, 90
3, 250920, Note_on_c, 0, 52, 0
3, 250920, Note_on_c, 0, 50, 90
3, 250950, Note_on_c, 0, 50, 0
3, 250950, Note_on_c, 0, 53, 90
3, 250980, Note_on_c, 0, 53, 0
3, 250980, Note_on_c, 0, 55, 90
3, 251010, Note_on_c, 0, 55, 0
3, 251010, Note_on_c, 0, 57, 90
3, 251040, Note_on_c, 0, 57, 0
3, 251040, Note_on_c, 0, 58, 90
3, 251070, Note_on_c, 0, 58, 0
3, 251070, Note_on_c, 0, 60, 90
3, 251100, Note_on_c, 0, 60, 0
3, 251100, Note_on_c, 0, 58, 90
3, 251130, Note_on_c, 0, 58, 0
3, 251130, Note_on_c, 0, 57, 90
3, 251160, Note_on_c, 0, 57, 0
3, 251160, Note_on_c, 0, 55, 90
3, 251190, Note_on_c, 0, 55, 0
3, 251190, Note_on_c, 0, 53, 90
3, 251220, Note_on_c, 0, 53, 0
3, 251220, Note_on_c, 0, 52, 90
3, 251250, Note_on_c, 0, 52, 0
3, 251250, Note_on_c, 0, 50, 90
3, 251280, Note_on_c, 0, 50, 0
3, 251280, Note_on_c, 0, 49, 90
3, 251310, Note_on_c, 0, 49, 0
3, 251310, Note_on_c, 0, 55, 90
3, 251340, Note_on_c, 0, 55, 0
3, 251340, Note_on_c, 0, 57, 90
3, 251370, Note_on_c, 0, 57, 0
3, 251370, Note_on_c, 0, 58, 90
3, 251400, Note_on_c, 0, 58, 0
3, 251400, Note_on_c, 0, 57, 90
3, 251430, Note_on_c, 0, 57, 0
3, 251430, Note_on_c, 0, 55, 90
3, 251460, Note_on_c, 0, 55, 0
3, 251460, Note_on_c, 0, 53, 90
3, 251490, Note_on_c, 0, 53, 0
3, 251490, Note_on_c, 0, 52, 90
3, 251520, Note_on_c, 0, 52, 0
3, 251520, Note_on_c, 0, 50, 90
3, 251550, Note_on_c, 0, 50, 0
3, 251550, Note_on_c, 0, 57, 90
3, 251580, Note_on_c, 0, 57, 0
3, 251580, Note_on_c, 0, 58, 90
3, 251610, Note_on_c, 0, 58, 0
3, 251610, Note_on_c, 0, 60, 90
3, 251640, Note_on_c, 0, 60, 0
3, 251640, Note_on_c, 0, 58, 90
3, 251670, Note_on_c, 0, 58, 0
3, 251670, Note_on_c, 0, 57, 90
3, 251700, Note_on_c, 0, 57, 0
3, 251700, Note_on_c, 0, 55, 90
3, 251730, Note_on_c, 0, 55, 0
3, 251730, Note_on_c, 0, 54, 90
3, 251760, Note_on_c, 0, 54, 0
3, 251760, Note_on_c, 0, 55, 90
3, 252030, Note_on_c, 0, 55, 0
3, 252030, Note_on_c, 0, 58, 90
3, 252060, Note_on_c, 0, 58, 0
3, 252060, Note_on_c, 0, 57, 90
3, 252090, Note_on_c, 0, 57, 0
3, 252090, Note_on_c, 0, 55, 90
3, 252120, Note_on_c, 0, 55, 0
3, 252120, Note_on_c, 0, 53, 90
3, 252360, Note_on_c, 0, 53, 0
3, 252360, Note_on_c, 0, 58, 90
3, 252480, Note_on_c, 0, 58, 0
3, 252480, Note_on_c, 0, 57, 90
3, 252570, Note_on_c, 0, 45, 90
3, 252600, Note_on_c, 0, 45, 0
3, 252600, Note_on_c, 0, 57, 0
3, 252600, Note_on_c, 0, 47, 90
3, 252690, Note_on_c, 0, 47, 0
3, 252690, Note_on_c, 0, 49, 90
3, 252720, Note_on_c, 0, 49, 0
3, 252720, Note_on_c, 0, 62, 90
3, 252720, Note_on_c, 0, 50, 90
3, 252810, Note_on_c, 0, 50, 0
3, 252810, Note_on_c, 0, 52, 90
3, 252840, Note_on_c, 0, 52, 0
3, 252840, Note_on_c, 0, 62, 0
3, 252840, Note_on_c, 0, 69, 90
3, 252840, Note_on_c, 0, 53, 90
3, 252930, Note_on_c, 0, 69, 0
3, 252930, Note_on_c, 0, 67, 90
3, 252960, Note_on_c, 0, 67, 0
3, 253035, Note_on_c, 0, 53, 0
3, 253035, Note_on_c, 0, 53, 90
3, 253050, Note_on_c, 0, 53, 0
3, 253050, Note_on_c, 0, 64, 90
3, 253050, Note_on_c, 0, 55, 90
3, 253065, Note_on_c, 0, 55, 0
3, 253065, Note_on_c, 0, 57, 90
3, 253080, Note_on_c, 0, 57, 0
3, 253080, Note_on_c, 0, 64, 0
3, 253080, Note_on_c, 0, 62, 90
3, 253080, Note_on_c, 0, 58, 90
3, 253170, Note_on_c, 0, 58, 0
3, 253170, Note_on_c, 0, 46, 90
3, 253200, Note_on_c, 0, 46, 0
3, 253200, Note_on_c, 0, 62, 0
3, 253200, Note_on_c, 0, 61, 90
3, 253200, Note_on_c, 0, 45, 90
3, 253230, Note_on_c, 0, 45, 0
3, 253230, Note_on_c, 0, 58, 90
3, 253260, Note_on_c, 0, 58, 0
3, 253260, Note_on_c, 0, 57, 90
3, 253290, Note_on_c, 0, 57, 0
3, 253290, Note_on_c, 0, 55, 90
3, 253320, Note_on_c, 0, 55, 0
3, 253320, Note_on_c, 0, 61, 0
3, 253320, Note_on_c, 0, 62, 90
3, 253320, Note_on_c, 0, 53, 90
3, 253350, Note_on_c, 0, 53, 0
3, 253350, Note_on_c, 0, 52, 90
3, 253380, Note_on_c, 0, 52, 0
3, 253380, Note_on_c, 0, 50, 90
3, 253410, Note_on_c, 0, 50, 0
3, 253410, Note_on_c, 0, 62, 0
3, 253410, Note_on_c, 0, 64, 90
3, 253410, Note_on_c, 0, 49, 90
3, 253440, Note_on_c, 0, 49, 0
3, 253440, Note_on_c, 0, 64, 0
3, 253440, Note_on_c, 0, 65, 90
3, 253440, Note_on_c, 0, 50, 90
3, 253470, Note_on_c, 0, 50, 0
3, 253470, Note_on_c, 0, 60, 90
3, 253500, Note_on_c, 0, 60, 0
3, 253500, Note_on_c, 0, 58, 90
3, 253530, Note_on_c, 0, 58, 0
3, 253530, Note_on_c, 0, 57, 90
3, 253560, Note_on_c, 0, 57, 0
3, 253560, Note_on_c, 0, 55, 90
3, 253590, Note_on_c, 0, 55, 0
3, 253590, Note_on_c, 0, 65, 0
3, 253590, Note_on_c, 0, 69, 90
3, 253590, Note_on_c, 0, 53, 90
3, 253620, Note_on_c, 0, 53, 0
3, 253620, Note_on_c, 0, 69, 0
3, 253620, Note_on_c, 0, 67, 90
3, 253620, Note_on_c, 0, 52, 90
3, 253650, Note_on_c, 0, 52, 0
3, 253650, Note_on_c, 0, 67, 0
3, 253650, Note_on_c, 0, 65, 90
3, 253650, Note_on_c, 0, 50, 90
3, 253680, Note_on_c, 0, 50, 0
3, 253680, Note_on_c, 0, 65, 0
3, 253680, Note_on_c, 0, 64, 90
3, 253680, Note_on_c, 0, 49, 90
3, 253710, Note_on_c, 0, 49, 0
3, 253710, Note_on_c, 0, 64, 0
3, 253710, Note_on_c, 0, 65, 90
3, 253710, Note_on_c, 0, 62, 90
3, 253740, Note_on_c, 0, 62, 0
3, 253740, Note_on_c, 0, 65, 0
3, 253740, Note_on_c, 0, 64, 90
3, 253740, Note_on_c, 0, 61, 90
3, 253770, Note_on_c, 0, 61, 0
3, 253770, Note_on_c, 0, 64, 0
3, 253770, Note_on_c, 0, 62, 90
3, 253770, Note_on_c, 0, 59, 90
3, 253800, Note_on_c, 0, 59, 0
3, 253800, Note_on_c, 0, 62, 0
3, 253800, Note_on_c, 0, 60, 90
3, 253800, Note_on_c, 0, 57, 90
3, 253830, Note_on_c, 0, 57, 0
3, 253830, Note_on_c, 0, 55, 90
3, 253860, Note_on_c, 0, 55, 0
3, 253860, Note_on_c, 0, 53, 90
3, 253890, Note_on_c, 0, 53, 0
3, 253890, Note_on_c, 0, 52, 90
3, 253920, Note_on_c, 0, 52, 0
3, 253920, Note_on_c, 0, 60, 0
3, 253920, Note_on_c, 0, 62, 90
3, 253920, Note_on_c, 0, 50, 90
3, 253950, Note_on_c, 0, 50, 0
3, 253950, Note_on_c, 0, 52, 90
3, 253980, Note_on_c, 0, 52, 0
3, 253980, Note_on_c, 0, 50, 90
3, 254010, Note_on_c, 0, 50, 0
3, 254010, Note_on_c, 0, 62, 0
3, 254010, Note_on_c, 0, 57, 90
3, 254010, Note_on_c, 0, 48, 90
3, 254040, Note_on_c, 0, 48, 0
3, 254040, Note_on_c, 0, 57, 0
3, 254040, Note_on_c, 0, 62, 90
3, 254040, Note_on_c, 0, 46, 90
3, 254070, Note_on_c, 0, 46, 0
3, 254070, Note_on_c, 0, 45, 90
3, 254100, Note_on_c, 0, 45, 0
3, 254100, Note_on_c, 0, 43, 90
3, 254115, Note_on_c, 0, 62, 0
3, 254115, Note_on_c, 0, 60, 90
3, 254130, Note_on_c, 0, 60, 0
3, 254130, Note_on_c, 0, 43, 0
3, 254130, Note_on_c, 0, 58, 90
3, 254130, Note_on_c, 0, 41, 90
3, 254145, Note_on_c, 0, 58, 0
3, 254145, Note_on_c, 0, 57, 90
3, 254160, Note_on_c, 0, 57, 0
3, 254160, Note_on_c, 0, 41, 0
3, 254160, Note_on_c, 0, 58, 90
3, 254160, Note_on_c, 0, 43, 90
3, 254190, Note_on_c, 0, 43, 0
3, 254190, Note_on_c, 0, 50, 90
3, 254220, Note_on_c, 0, 50, 0
3, 254220, Note_on_c, 0, 48, 90
3, 254250, Note_on_c, 0, 48, 0
3, 254250, Note_on_c, 0, 58, 0
3, 254250, Note_on_c, 0, 57, 90
3, 254250, Note_on_c, 0, 46, 90
3, 254280, Note_on_c, 0, 46, 0
3, 254280, Note_on_c, 0, 57, 0
3, 254280, Note_on_c, 0, 60, 90
3, 254280, Note_on_c, 0, 45, 90
3, 254310, Note_on_c, 0, 45, 0
3, 254310, Note_on_c, 0, 43, 90
3, 254340, Note_on_c, 0, 43, 0
3, 254340, Note_on_c, 0, 41, 90
3, 254370, Note_on_c, 0, 41, 0
3, 254370, Note_on_c, 0, 40, 90
3, 254400, Note_on_c, 0, 40, 0
3, 254400, Note_on_c, 0, 41, 90
3, 254430, Note_on_c, 0, 41, 0
3, 254430, Note_on_c, 0, 48, 90
3, 254460, Note_on_c, 0, 48, 0
3, 254460, Note_on_c, 0, 50, 90
3, 254490, Note_on_c, 0, 50, 0
3, 254490, Note_on_c, 0, 52, 90
3, 254520, Note_on_c, 0, 52, 0
3, 254520, Note_on_c, 0, 60, 0
3, 254520, Note_on_c, 0, 53, 90
3, 254550, Note_on_c, 0, 53, 0
3, 254550, Note_on_c, 0, 55, 90
3, 254580, Note_on_c, 0, 55, 0
3, 254580, Note_on_c, 0, 53, 90
3, 254610, Note_on_c, 0, 53, 0
3, 254610, Note_on_c, 0, 52, 90
3, 254640, Note_on_c, 0, 52, 0
3, 254640, Note_on_c, 0, 50, 90
3, 254670, Note_on_c, 0, 50, 0
3, 254670, Note_on_c, 0, 53, 90
3, 254700, Note_on_c, 0, 53, 0
3, 254700, Note_on_c, 0, 55, 90
3, 254730, Note_on_c, 0, 55, 0
3, 254730, Note_on_c, 0, 57, 90
3, 254760, Note_on_c, 0, 57, 0
3, 254760, Note_on_c, 0, 58, 90
3, 254790, Note_on_c, 0, 58, 0
3, 254790, Note_on_c, 0, 60, 90
3, 254820, Note_on_c, 0, 60, 0
3, 254820, Note_on_c, 0, 58, 90
3, 254850, Note_on_c, 0, 58, 0
3, 254850, Note_on_c, 0, 57, 90
3, 254880, Note_on_c, 0, 57, 0
3, 254880, Note_on_c, 0, 55, 90
3, 254910, Note_on_c, 0, 55, 0
3, 254910, Note_on_c, 0, 43, 90
3, 254940, Note_on_c, 0, 43, 0
3, 254940, Note_on_c, 0, 45, 90
3, 254970, Note_on_c, 0, 45, 0
3, 254970, Note_on_c, 0, 46, 90
3, 255000, Note_on_c, 0, 46, 0
3, 255000, Note_on_c, 0, 48, 90
3, 255030, Note_on_c, 0, 48, 0
3, 255030, Note_on_c, 0, 50, 90
3, 255060, Note_on_c, 0, 50, 0
3, 255060, Note_on_c, 0, 48, 90
3, 255090, Note_on_c, 0, 48, 0
3, 255090, Note_on_c, 0, 46, 90
3, 255120, Note_on_c, 0, 46, 0
3, 255120, Note_on_c, 0, 53, 90
3, 255120, Note_on_c, 0, 45, 90
3, 255150, Note_on_c, 0, 45, 0
3, 255150, Note_on_c, 0, 46, 90
3, 255180, Note_on_c, 0, 46, 0
3, 255180, Note_on_c, 0, 45, 90
3, 255210, Note_on_c, 0, 45, 0
3, 255210, Note_on_c, 0, 43, 90
3, 255240, Note_on_c, 0, 43, 0
3, 255240, Note_on_c, 0, 53, 0
3, 255240, Note_on_c, 0, 60, 90
3, 255240, Note_on_c, 0, 41, 90
3, 255330, Note_on_c, 0, 60, 0
3, 255330, Note_on_c, 0, 58, 90
3, 255360, Note_on_c, 0, 58, 0
3, 255360, Note_on_c, 0, 57, 90
3, 255435, Note_on_c, 0, 57, 0
3, 255435, Note_on_c, 0, 55, 90
3, 255480, Note_on_c, 0, 55, 0
3, 255480, Note_on_c, 0, 53, 90
3, 255555, Note_on_c, 0, 41, 0
3, 255555, Note_on_c, 0, 40, 90
3, 255570, Note_on_c, 0, 40, 0
3, 255570, Note_on_c, 0, 41, 90
3, 255585, Note_on_c, 0, 41, 0
3, 255585, Note_on_c, 0, 43, 90
3, 255600, Note_on_c, 0, 43, 0
3, 255600, Note_on_c, 0, 53, 0
3, 255600, Note_on_c, 0, 52, 90
3, 255600, Note_on_c, 0, 45, 90
3, 255630, Note_on_c, 0, 45, 0
3, 255630, Note_on_c, 0, 58, 90
3, 255660, Note_on_c, 0, 58, 0
3, 255660, Note_on_c, 0, 57, 90
3, 255690, Note_on_c, 0, 57, 0
3, 255690, Note_on_c, 0, 55, 90
3, 255720, Note_on_c, 0, 55, 0
3, 255720, Note_on_c, 0, 52, 0
3, 255720, Note_on_c, 0, 53, 90
3, 255720, Note_on_c, 0, 53, 90
3, 255750, Note_on_c, 0, 53, 0
3, 255750, Note_on_c, 0, 52, 90
3, 255780, Note_on_c, 0, 52, 0
3, 255780, Note_on_c, 0, 50, 90
3, 255810, Note_on_c, 0, 53, 0
3, 255810, Note_on_c, 0, 55, 90
3, 255840, Note_on_c, 0, 55, 0
3, 255840, Note_on_c, 0, 57, 90
3, 255870, Note_on_c, 0, 50, 0
3, 255870, Note_on_c, 0, 48, 90
3, 255900, Note_on_c, 0, 48, 0
3, 255900, Note_on_c, 0, 46, 90
3, 255930, Note_on_c, 0, 46, 0
3, 255930, Note_on_c, 0, 45, 90
3, 255960, Note_on_c, 0, 45, 0
3, 255960, Note_on_c, 0, 46, 90
3, 255990, Note_on_c, 0, 46, 0
3, 255990, Note_on_c, 0, 57, 0
3, 255990, Note_on_c, 0, 58, 90
3, 255990, Note_on_c, 0, 43, 90
3, 256020, Note_on_c, 0, 43, 0
3, 256020, Note_on_c, 0, 58, 0
3, 256020, Note_on_c, 0, 57, 90
3, 256020, Note_on_c, 0, 49, 90
3, 256050, Note_on_c, 0, 57, 0
3, 256050, Note_on_c, 0, 55, 90
3, 256080, Note_on_c, 0, 55, 0
3, 256080, Note_on_c, 0, 49, 0
3, 256080, Note_on_c, 0, 53, 90
3, 256080, Note_on_c, 0, 50, 90
3, 256110, Note_on_c, 0, 50, 0
3, 256110, Note_on_c, 0, 53, 0
3, 256110, Note_on_c, 0, 55, 90
3, 256110, Note_on_c, 0, 46, 90
3, 256140, Note_on_c, 0, 46, 0
3, 256140, Note_on_c, 0, 55, 0
3, 256140, Note_on_c, 0, 53, 90
3, 256140, Note_on_c, 0, 45, 90
3, 256170, Note_on_c, 0, 45, 0
3, 256170, Note_on_c, 0, 53, 0
3, 256170, Note_on_c, 0, 52, 90
3, 256170, Note_on_c, 0, 43, 90
3, 256200, Note_on_c, 0, 43, 0
3, 256200, Note_on_c, 0, 52, 0
3, 256200, Note_on_c, 0, 50, 90
3, 256200, Note_on_c, 0, 41, 90
3, 256230, Note_on_c, 0, 41, 0
3, 256230, Note_on_c, 0, 43, 90
3, 256260, Note_on_c, 0, 43, 0
3, 256260, Note_on_c, 0, 41, 90
3, 256290, Note_on_c, 0, 41, 0
3, 256290, Note_on_c, 0, 50, 0
3, 256290, Note_on_c, 0, 57, 90
3, 256290, Note_on_c, 0, 40, 90
3, 256320, Note_on_c, 0, 40, 0
3, 256320, Note_on_c, 0, 57, 0
3, 256320, Note_on_c, 0, 62, 90
3, 256320, Note_on_c, 0, 38, 90
3, 256350, Note_on_c, 0, 38, 0
3, 256350, Note_on_c, 0, 45, 90
3, 256380, Note_on_c, 0, 45, 0
3, 256380, Note_on_c, 0, 46, 90
3, 256410, Note_on_c, 0, 46, 0
3, 256410, Note_on_c, 0, 62, 0
3, 256410, Note_on_c, 0, 60, 90
3, 256410, Note_on_c, 0, 48, 90
3, 256440, Note_on_c, 0, 48, 0
3, 256440, Note_on_c, 0, 60, 0
3, 256440, Note_on_c, 0, 58, 90
3, 256440, Note_on_c, 0, 50, 90
3, 256470, Note_on_c, 0, 50, 0
3, 256470, Note_on_c, 0, 52, 90
3, 256500, Note_on_c, 0, 52, 0
3, 256500, Note_on_c, 0, 53, 90
3, 256530, Note_on_c, 0, 58, 0
3, 256530, Note_on_c, 0, 57, 90
3, 256560, Note_on_c, 0, 57, 0
3, 256560, Note_on_c, 0, 53, 0
3, 256560, Note_on_c, 0, 55, 90
3, 256590, Note_on_c, 0, 52, 90
3, 256620, Note_on_c, 0, 52, 0
3, 256620, Note_on_c, 0, 55, 0
3, 256620, Note_on_c, 0, 53, 90
3, 256650, Note_on_c, 0, 53, 0
3, 256650, Note_on_c, 0, 55, 90
3, 256680, Note_on_c, 0, 55, 0
3, 256680, Note_on_c, 0, 53, 90
3, 256710, Note_on_c, 0, 53, 0
3, 256710, Note_on_c, 0, 52, 90
3, 256740, Note_on_c, 0, 52, 0
3, 256740, Note_on_c, 0, 50, 90
3, 256770, Note_on_c, 0, 50, 0
3, 256770, Note_on_c, 0, 49, 90
3, 256800, Note_on_c, 0, 49, 0
3, 256800, Note_on_c, 0, 50, 90
3, 256830, Note_on_c, 0, 52, 90
3, 256860, Note_on_c, 0, 52, 0
3, 256860, Note_on_c, 0, 53, 90
3, 256890, Note_on_c, 0, 53, 0
3, 256890, Note_on_c, 0, 55, 90
3, 256920, Note_on_c, 0, 55, 0
3, 256920, Note_on_c, 0, 57, 90
3, 257070, Note_on_c, 0, 57, 0
3, 257070, Note_on_c, 0, 58, 90
3, 257100, Note_on_c, 0, 58, 0
3, 257100, Note_on_c, 0, 57, 90
3, 257130, Note_on_c, 0, 57, 0
3, 257130, Note_on_c, 0, 55, 90
3, 257160, Note_on_c, 0, 55, 0
3, 257160, Note_on_c, 0, 53, 90
3, 257190, Note_on_c, 0, 50, 0
3, 257190, Note_on_c, 0, 51, 90
3, 257220, Note_on_c, 0, 51, 0
3, 257220, Note_on_c, 0, 50, 90
3, 257250, Note_on_c, 0, 50, 0
3, 257250, Note_on_c, 0, 48, 90
3, 257280, Note_on_c, 0, 48, 0
3, 257280, Note_on_c, 0, 53, 0
3, 257280, Note_on_c, 0, 46, 90
3, 257310, Note_on_c, 0, 52, 90
3, 257340, Note_on_c, 0, 52, 0
3, 257340, Note_on_c, 0, 50, 90
3, 257370, Note_on_c, 0, 50, 0
3, 257370, Note_on_c, 0, 49, 90
3, 257400, Note_on_c, 0, 49, 0
3, 257400, Note_on_c, 0, 50, 90
3, 257430, Note_on_c, 0, 46, 0
3, 257430, Note_on_c, 0, 46, 90
3, 257460, Note_on_c, 0, 46, 0
3, 257460, Note_on_c, 0, 45, 90
3, 257490, Note_on_c, 0, 45, 0
3, 257490, Note_on_c, 0, 43, 90
3, 257520, Note_on_c, 0, 43, 0
3, 257520, Note_on_c, 0, 42, 90
3, 257640, Note_on_c, 0, 42, 0
3, 257640, Note_on_c, 0, 50, 0
3, 257730, Note_on_c, 0, 50, 90
3, 257760, Note_on_c, 0, 50, 0
3, 257760, Note_on_c, 0, 55, 90
3, 257850, Note_on_c, 0, 55, 0
3, 257850, Note_on_c, 0, 53, 90
3, 257880, Note_on_c, 0, 53, 0
3, 257880, Note_on_c, 0, 52, 90
3, 257970, Note_on_c, 0, 52, 0
3, 257970, Note_on_c, 0, 50, 90
3, 257970, Note_on_c, 0, 43, 90
3, 258000, Note_on_c, 0, 43, 0
3, 258000, Note_on_c, 0, 50, 0
3, 258000, Note_on_c, 0, 52, 90
3, 258000, Note_on_c, 0, 48, 90
3, 258075, Note_on_c, 0, 48, 0
3, 258075, Note_on_c, 0, 49, 90
3, 258090, Note_on_c, 0, 49, 0
3, 258090, Note_on_c, 0, 48, 90
3, 258105, Note_on_c, 0, 48, 0
3, 258105, Note_on_c, 0, 46, 90
3, 258120, Note_on_c, 0, 46, 0
3, 258120, Note_on_c, 0, 45, 90
3, 258210, Note_on_c, 0, 52, 0
3, 258210, Note_on_c, 0, 48, 90
3, 258240, Note_on_c, 0, 48, 0
3, 258240, Note_on_c, 0, 45, 0
3, 258240, Note_on_c, 0, 53, 90
3, 258330, Note_on_c, 0, 53, 0
3, 258330, Note_on_c, 0, 52, 90
3, 258360, Note_on_c, 0, 52, 0
3, 258360, Note_on_c, 0, 50, 90
3, 258450, Note_on_c, 0, 50, 0
3, 258450, Note_on_c, 0, 49, 90
3, 258450, Note_on_c, 0, 41, 90
3, 258480, Note_on_c, 0, 41, 0
3, 258480, Note_on_c, 0, 49, 0
3, 258480, Note_on_c, 0, 50, 90
3, 258480, Note_on_c, 0, 46, 90
3, 258555, Note_on_c, 0, 46, 0
3, 258555, Note_on_c, 0, 48, 90
3, 258570, Note_on_c, 0, 48, 0
3, 258570, Note_on_c, 0, 46, 90
3, 258585, Note_on_c, 0, 46, 0
3, 258585, Note_on_c, 0, 45, 90
3, 258600, Note_on_c, 0, 45, 0
3, 258600, Note_on_c, 0, 46, 90
3, 258690, Note_on_c, 0, 46, 0
3, 258690, Note_on_c, 0, 50, 0
3, 258690, Note_on_c, 0, 55, 90
3, 258690, Note_on_c, 0, 47, 90
3, 258720, Note_on_c, 0, 47, 0
3, 258720, Note_on_c, 0, 48, 90
3, 258810, Note_on_c, 0, 48, 0
3, 258810, Note_on_c, 0, 46, 90
3, 258840, Note_on_c, 0, 46, 0
3, 258840, Note_on_c, 0, 55, 0
3, 258840, Note_on_c, 0, 45, 90
3, 258930, Note_on_c, 0, 45, 0
3, 258930, Note_on_c, 0, 52, 90
3, 258930, Note_on_c, 0, 48, 90
3, 258960, Note_on_c, 0, 48, 0
3, 258960, Note_on_c, 0, 52, 0
3, 258960, Note_on_c, 0, 57, 90
3, 258960, Note_on_c, 0, 53, 90
3, 259050, Note_on_c, 0, 53, 0
3, 259050, Note_on_c, 0, 57, 0
3, 259050, Note_on_c, 0, 55, 90
3, 259050, Note_on_c, 0, 51, 90
3, 259080, Note_on_c, 0, 51, 0
3, 259080, Note_on_c, 0, 55, 0
3, 259080, Note_on_c, 0, 53, 90
3, 259080, Note_on_c, 0, 50, 90
3, 259170, Note_on_c, 0, 50, 0
3, 259170, Note_on_c, 0, 53, 0
3, 259170, Note_on_c, 0, 60, 90
3, 259170, Note_on_c, 0, 53, 90
3, 259200, Note_on_c, 0, 53, 0
3, 259200, Note_on_c, 0, 60, 0
3, 259200, Note_on_c, 0, 62, 90
3, 259200, Note_on_c, 0, 58, 90
3, 259290, Note_on_c, 0, 58, 0
3, 259290, Note_on_c, 0, 62, 0
3, 259290, Note_on_c, 0, 60, 90
3, 259290, Note_on_c, 0, 57, 90
3, 259320, Note_on_c, 0, 57, 0
3, 259320, Note_on_c, 0, 60, 0
3, 259320, Note_on_c, 0, 58, 90
3, 259320, Note_on_c, 0, 55, 90
3, 259410, Note_on_c, 0, 55, 0
3, 259410, Note_on_c, 0, 58, 0
3, 259410, Note_on_c, 0, 57, 90
3, 259410, Note_on_c, 0, 53, 90
3, 259440, Note_on_c, 0, 53, 0
3, 259440, Note_on_c, 0, 57, 0
3, 259440, Note_on_c, 0, 55, 90
3, 259440, Note_on_c, 0, 52, 90
3, 259530, Note_on_c, 0, 52, 0
3, 259530, Note_on_c, 0, 53, 90
3, 259560, Note_on_c, 0, 53, 0
3, 259560, Note_on_c, 0, 52, 90
3, 259650, Note_on_c, 0, 52, 0
3, 259650, Note_on_c, 0, 55, 0
3, 259650, Note_on_c, 0, 55, 90
3, 259650, Note_on_c, 0, 50, 90
3, 259680, Note_on_c, 0, 50, 0
3, 259680, Note_on_c, 0, 55, 0
3, 259680, Note_on_c, 0, 55, 90
3, 259680, Note_on_c, 0, 49, 90
3, 259800, Note_on_c, 0, 49, 0
3, 259800, Note_on_c, 0, 55, 0
3, 259860, Note_on_c, 0, 57, 90
3, 259860, Note_on_c, 0, 45, 90
3, 259920, Note_on_c, 0, 45, 0
3, 259920, Note_on_c, 0, 57, 0
3, 259920, Note_on_c, 0, 57, 90
3, 259920, Note_on_c, 0, 50, 90
3, 259980, Note_on_c, 0, 57, 0
3, 260010, Note_on_c, 0, 50, 0
3, 260010, Note_on_c, 0, 52, 90
3, 260040, Note_on_c, 0, 52, 0
3, 260040, Note_on_c, 0, 53, 90
3, 260130, Note_on_c, 0, 53, 0
3, 260130, Note_on_c, 0, 58, 90
3, 260130, Note_on_c, 0, 55, 90
3, 260160, Note_on_c, 0, 55, 0
3, 260160, Note_on_c, 0, 58, 0
3, 260160, Note_on_c, 0, 57, 90
3, 260160, Note_on_c, 0, 57, 90
3, 260250, Note_on_c, 0, 57, 0
3, 260250, Note_on_c, 0, 57, 0
3, 260250, Note_on_c, 0, 58, 90
3, 260250, Note_on_c, 0, 55, 90
3, 260280, Note_on_c, 0, 55, 0
3, 260280, Note_on_c, 0, 58, 0
3, 260280, Note_on_c, 0, 57, 90
3, 260280, Note_on_c, 0, 57, 90
3, 260340, Note_on_c, 0, 57, 0
3, 260370, Note_on_c, 0, 57, 0
3, 260370, Note_on_c, 0, 45, 90
3, 260400, Note_on_c, 0, 45, 0
3, 260400, Note_on_c, 0, 57, 90
3, 260400, Note_on_c, 0, 50, 90
3, 260520, Note_on_c, 0, 57, 0
3, 260520, Note_on_c, 0, 62, 90
3, 260610, Note_on_c, 0, 62, 0
3, 260610, Note_on_c, 0, 60, 90
3, 260640, Note_on_c, 0, 60, 0
3, 260640, Note_on_c, 0, 58, 90
3, 260730, Note_on_c, 0, 58, 0
3, 260730, Note_on_c, 0, 57, 90
3, 260760, Note_on_c, 0, 57, 0
3, 260760, Note_on_c, 0, 55, 90
3, 260880, Note_on_c, 0, 55, 0
3, 260880, Note_on_c, 0, 54, 90
3, 261000, Note_on_c, 0, 54, 0
3, 261000, Note_on_c, 0, 55, 90
3, 261090, Note_on_c, 0, 55, 0
3, 261090, Note_on_c, 0, 57, 90
3, 261120, Note_on_c, 0, 57, 0
3, 261120, Note_on_c, 0, 58, 90
3, 261270, Note_on_c, 0, 58, 0
3, 261270, Note_on_c, 0, 60, 90
3, 261300, Note_on_c, 0, 60, 0
3, 261300, Note_on_c, 0, 58, 90
3, 261330, Note_on_c, 0, 58, 0
3, 261330, Note_on_c, 0, 57, 90
3, 261360, Note_on_c, 0, 57, 0
3, 261360, Note_on_c, 0, 55, 90
3, 261540, Note_on_c, 0, 55, 0
3, 261540, Note_on_c, 0, 57, 90
3, 261600, Note_on_c, 0, 57, 0
3, 261600, Note_on_c, 0, 58, 90
3, 261690, Note_on_c, 0, 58, 0
3, 261690, Note_on_c, 0, 60, 90
3, 261720, Note_on_c, 0, 60, 0
3, 261720, Note_on_c, 0, 62, 90
3, 261810, Note_on_c, 0, 62, 0
3, 261810, Note_on_c, 0, 58, 90
3, 261840, Note_on_c, 0, 58, 0
3, 261840, Note_on_c, 0, 60, 90
3, 261930, Note_on_c, 0, 60, 0
3, 261930, Note_on_c, 0, 57, 90
3, 261960, Note_on_c, 0, 57, 0
3, 261960, Note_on_c, 0, 58, 90
3, 262050, Note_on_c, 0, 58, 0
3, 262050, Note_on_c, 0, 60, 90
3, 262080, Note_on_c, 0, 60, 0
3, 262080, Note_on_c, 0, 62, 90
3, 262155, Note_on_c, 0, 62, 0
3, 262155, Note_on_c, 0, 50, 90
3, 262170, Note_on_c, 0, 50, 0
3, 262170, Note_on_c, 0, 52, 90
3, 262185, Note_on_c, 0, 52, 0
3, 262185, Note_on_c, 0, 54, 90
3, 262200, Note_on_c, 0, 54, 0
3, 262200, Note_on_c, 0, 55, 90
3, 262290, Note_on_c, 0, 55, 0
3, 262290, Note_on_c, 0, 57, 90
3, 262320, Note_on_c, 0, 57, 0
3, 262320, Note_on_c, 0, 58, 90
3, 262410, Note_on_c, 0, 58, 0
3, 262410, Note_on_c, 0, 60, 90
3, 262440, Note_on_c, 0, 60, 0
3, 262440, Note_on_c, 0, 62, 90
3, 262470, Note_on_c, 0, 62, 0
3, 262470, Note_on_c, 0, 60, 90
3, 262500, Note_on_c, 0, 60, 0
3, 262500, Note_on_c, 0, 58, 90
3, 262530, Note_on_c, 0, 58, 0
3, 262530, Note_on_c, 0, 57, 90
3, 262560, Note_on_c, 0, 57, 0
3, 262560, Note_on_c, 0, 55, 90
3, 262650, Note_on_c, 0, 55, 0
3, 262770, Note_on_c, 0, 58, 90
3, 262770, Note_on_c, 0, 64, 80
3, 262770, Note_on_c, 0, 55, 90
3, 262800, Note_on_c, 0, 55, 0
3, 262800, Note_on_c, 0, 64, 0
3, 262800, Note_on_c, 0, 58, 0
3, 262800, Note_on_c, 0, 54, 90
3, 262800, Note_on_c, 0, 57, 90
3, 262800, Note_on_c, 0, 62, 80
3, 263040, Note_on_c, 0, 62, 0
3, 263040, Note_on_c, 0, 50, 0
3, 263040, Note_on_c, 0, 54, 0
3, 263040, Note_on_c, 0, 57, 0
3, 263520, Control_c, 0, 121, 0
3, 263520, Note_on_c, 0, 62, 90
3, 263520, Control_c, 0, 121, 0
3, 263640, Note_on_c, 0, 62, 0
3, 263640, Control_c, 0, 91, 40
3, 263640, Control_c, 0, 10, 96
3, 263640, Control_c, 0, 0, 8
3, 263640, Note_on_c, 0, 69, 90
3, 263730, Note_on_c, 0, 69, 0
3, 263730, Note_on_c, 0, 67, 90
3, 263760, Note_on_c, 0, 67, 0
3, 263760, Note_on_c, 0, 65, 90
3, 263850, Note_on_c, 0, 65, 0
3, 263850, Note_on_c, 0, 64, 90
3, 263880, Note_on_c, 0, 64, 0
3, 263880, Note_on_c, 0, 62, 90
3, 264000, Note_on_c, 0, 62, 0
3, 264000, Note_on_c, 0, 61, 90
3, 264120, Note_on_c, 0, 61, 0
3, 264120, Note_on_c, 0, 62, 90
3, 264210, Note_on_c, 0, 62, 0
3, 264210, Note_on_c, 0, 64, 90
3, 264240, Note_on_c, 0, 64, 0
3, 264240, Note_on_c, 0, 65, 90
3, 264390, Note_on_c, 0, 65, 0
3, 264390, Note_on_c, 0, 67, 90
3, 264420, Note_on_c, 0, 67, 0
3, 264420, Note_on_c, 0, 65, 90
3, 264450, Note_on_c, 0, 65, 0
3, 264450, Note_on_c, 0, 64, 90
3, 264480, Note_on_c, 0, 64, 0
3, 264480, Note_on_c, 0, 62, 90
3, 264510, Note_on_c, 0, 62, 0
3, 264510, Note_on_c, 0, 61, 90
3, 264540, Note_on_c, 0, 61, 0
3, 264540, Note_on_c, 0, 62, 90
3, 264630, Note_on_c, 0, 62, 0
3, 264630, Note_on_c, 0, 62, 90
3, 264660, Note_on_c, 0, 62, 0
3, 264660, Note_on_c, 0, 60, 90
3, 264690, Note_on_c, 0, 60, 0
3, 264690, Note_on_c, 0, 59, 90
3, 264720, Note_on_c, 0, 59, 0
3, 264720, Note_on_c, 0, 57, 90
3, 264750, Note_on_c, 0, 57, 0
3, 264750, Note_on_c, 0, 56, 90
3, 264780, Note_on_c, 0, 56, 0
3, 264780, Note_on_c, 0, 57, 90
3, 264870, Note_on_c, 0, 57, 0
3, 264870, Note_on_c, 0, 57, 90
3, 264900, Note_on_c, 0, 57, 0
3, 264900, Note_on_c, 0, 59, 90
3, 264930, Note_on_c, 0, 59, 0
3, 264930, Note_on_c, 0, 61, 90
3, 264960, Note_on_c, 0, 61, 0
3, 264960, Note_on_c, 0, 62, 90
3, 264990, Note_on_c, 0, 62, 0
3, 264990, Note_on_c, 0, 60, 90
3, 265020, Note_on_c, 0, 60, 0
3, 265020, Note_on_c, 0, 58, 90
3, 265050, Note_on_c, 0, 58, 0
3, 265050, Note_on_c, 0, 57, 90
3, 265080, Note_on_c, 0, 57, 0
3, 265080, Note_on_c, 0, 55, 90
3, 265110, Note_on_c, 0, 55, 0
3, 265110, Note_on_c, 0, 54, 90
3, 265140, Note_on_c, 0, 54, 0
3, 265140, Note_on_c, 0, 55, 90
3, 265230, Note_on_c, 0, 55, 0
3, 265230, Note_on_c, 0, 58, 90
3, 265260, Note_on_c, 0, 58, 0
3, 265260, Note_on_c, 0, 57, 90
3, 265290, Note_on_c, 0, 57, 0
3, 265290, Note_on_c, 0, 55, 90
3, 265320, Note_on_c, 0, 55, 0
3, 265320, Note_on_c, 0, 53, 90
3, 265410, Note_on_c, 0, 53, 0
3, 265410, Note_on_c, 0, 52, 90
3, 265440, Note_on_c, 0, 52, 0
3, 265440, Note_on_c, 0, 50, 90
3, 265440, Note_on_c, 0, 50, 90
3, 265440, Control_c, 0, 91, 40
3, 265440, Control_c, 0, 10, 127
3, 265440, Control_c, 0, 0, 0
3, 265590, Note_on_c, 0, 50, 0
3, 265590, Note_on_c, 0, 57, 90
3, 265620, Note_on_c, 0, 57, 0
3, 265620, Note_on_c, 0, 59, 90
3, 265650, Note_on_c, 0, 59, 0
3, 265650, Note_on_c, 0, 61, 90
3, 265680, Note_on_c, 0, 61, 0
3, 265680, Note_on_c, 0, 62, 90
3, 265830, Note_on_c, 0, 62, 0
3, 265830, Note_on_c, 0, 57, 90
3, 265860, Note_on_c, 0, 57, 0
3, 265860, Note_on_c, 0, 55, 90
3, 265890, Note_on_c, 0, 55, 0
3, 265890, Note_on_c, 0, 53, 90
3, 265920, Note_on_c, 0, 53, 0
3, 265920, Note_on_c, 0, 50, 0
3, 265920, Note_on_c, 0, 52, 90
3, 265920, Note_on_c, 0, 45, 90
3, 266040, Note_on_c, 0, 52, 0
3, 266040, Note_on_c, 0, 57, 90
3, 266130, Note_on_c, 0, 57, 0
3, 266130, Note_on_c, 0, 55, 90
3, 266160, Note_on_c, 0, 55, 0
3, 266160, Note_on_c, 0, 53, 90
3, 266250, Note_on_c, 0, 53, 0
3, 266250, Note_on_c, 0, 52, 90
3, 266280, Note_on_c, 0, 52, 0
3, 266280, Note_on_c, 0, 45, 0
3, 266280, Note_on_c, 0, 50, 90
3, 266280, Note_on_c, 0, 47, 90
3, 266400, Note_on_c, 0, 47, 0
3, 266400, Note_on_c, 0, 50, 0
3, 266400, Note_on_c, 0, 48, 90
3, 266400, Note_on_c, 0, 48, 90
3, 266430, Note_on_c, 0, 48, 0
3, 266430, Note_on_c, 0, 50, 90
3, 266460, Note_on_c, 0, 50, 0
3, 266460, Note_on_c, 0, 52, 90
3, 266550, Note_on_c, 0, 52, 0
3, 266550, Note_on_c, 0, 52, 90
3, 266580, Note_on_c, 0, 52, 0
3, 266580, Note_on_c, 0, 54, 90
3, 266610, Note_on_c, 0, 54, 0
3, 266610, Note_on_c, 0, 56, 90
3, 266640, Note_on_c, 0, 56, 0
3, 266640, Note_on_c, 0, 57, 90
3, 266760, Note_on_c, 0, 57, 0
3, 266760, Note_on_c, 0, 48, 0
3, 266760, Note_on_c, 0, 50, 90
3, 266880, Note_on_c, 0, 50, 0
3, 266880, Note_on_c, 0, 52, 90
3, 266910, Note_on_c, 0, 59, 90
3, 266940, Note_on_c, 0, 59, 0
3, 266940, Note_on_c, 0, 64, 90
3, 266970, Note_on_c, 0, 64, 0
3, 266970, Note_on_c, 0, 62, 90
3, 267000, Note_on_c, 0, 62, 0
3, 267000, Note_on_c, 0, 60, 90
3, 267030, Note_on_c, 0, 60, 0
3, 267030, Note_on_c, 0, 59, 90
3, 267060, Note_on_c, 0, 59, 0
3, 267060, Note_on_c, 0, 57, 90
3, 267090, Note_on_c, 0, 57, 0
3, 267090, Note_on_c, 0, 56, 90
3, 267120, Note_on_c, 0, 56, 0
3, 267120, Note_on_c, 0, 57, 90
3, 267180, Note_on_c, 0, 57, 0
3, 267360, Note_on_c, 0, 52, 0
3, 267360, Note_on_c, 0, 57, 90
3, 267360, Note_on_c, 0, 53, 90
3, 267480, Note_on_c, 0, 57, 0
3, 267480, Note_on_c, 0, 50, 90
3, 267570, Note_on_c, 0, 50, 0
3, 267570, Note_on_c, 0, 52, 90
3, 267600, Note_on_c, 0, 52, 0
3, 267600, Note_on_c, 0, 53, 90
3, 267690, Note_on_c, 0, 53, 0
3, 267690, Note_on_c, 0, 55, 90
3, 267720, Note_on_c, 0, 55, 0
3, 267720, Note_on_c, 0, 57, 90
3, 267840, Note_on_c, 0, 57, 0
3, 267840, Note_on_c, 0, 53, 0
3, 267840, Note_on_c, 0, 58, 90
3, 267840, Note_on_c, 0, 52, 90
3, 267960, Note_on_c, 0, 58, 0
3, 267960, Note_on_c, 0, 57, 90
3, 268050, Note_on_c, 0, 57, 0
3, 268050, Note_on_c, 0, 55, 90
3, 268080, Note_on_c, 0, 55, 0
3, 268080, Note_on_c, 0, 53, 90
3, 268200, Note_on_c, 0, 52, 0
3, 268200, Note_on_c, 0, 50, 90
3, 268230, Note_on_c, 0, 53, 0
3, 268230, Note_on_c, 0, 52, 90
3, 268260, Note_on_c, 0, 52, 0
3, 268260, Note_on_c, 0, 53, 90
3, 268290, Note_on_c, 0, 53, 0
3, 268290, Note_on_c, 0, 55, 90
3, 268320, Note_on_c, 0, 55, 0
3, 268320, Note_on_c, 0, 50, 0
3, 268320, Note_on_c, 0, 57, 90
3, 268320, Note_on_c, 0, 48, 90
3, 268470, Note_on_c, 0, 57, 0
3, 268470, Note_on_c, 0, 55, 90
3, 268500, Note_on_c, 0, 55, 0
3, 268500, Note_on_c, 0, 57, 90
3, 268530, Note_on_c, 0, 57, 0
3, 268530, Note_on_c, 0, 58, 90
3, 268560, Note_on_c, 0, 58, 0
3, 268560, Note_on_c, 0, 60, 90
3, 268650, Note_on_c, 0, 60, 0
3, 268650, Note_on_c, 0, 55, 90
3, 268680, Note_on_c, 0, 55, 0
3, 268680, Note_on_c, 0, 60, 90
3, 268770, Note_on_c, 0, 60, 0
3, 268770, Note_on_c, 0, 58, 90
3, 268800, Note_on_c, 0, 58, 0
3, 268800, Note_on_c, 0, 57, 90
3, 268920, Note_on_c, 0, 48, 0
3, 268920, Note_on_c, 0, 45, 90
3, 268950, Note_on_c, 0, 57, 0
3, 268980, Note_on_c, 0, 50, 90
3, 269010, Note_on_c, 0, 50, 0
3, 269010, Note_on_c, 0, 52, 90
3, 269040, Note_on_c, 0, 52, 0
3, 269040, Note_on_c, 0, 45, 0
3, 269040, Note_on_c, 0, 54, 90
3, 269040, Note_on_c, 0, 46, 90
3, 269070, Note_on_c, 0, 54, 0
3, 269070, Note_on_c, 0, 55, 90
3, 269160, Note_on_c, 0, 46, 0
3, 269160, Note_on_c, 0, 48, 90
3, 269190, Note_on_c, 0, 55, 0
3, 269190, Note_on_c, 0, 53, 90
3, 269220, Note_on_c, 0, 53, 0
3, 269220, Note_on_c, 0, 55, 90
3, 269250, Note_on_c, 0, 55, 0
3, 269250, Note_on_c, 0, 57, 90
3, 269280, Note_on_c, 0, 57, 0
3, 269280, Note_on_c, 0, 48, 0
3, 269280, Note_on_c, 0, 58, 90
3, 269280, Note_on_c, 0, 50, 90
3, 269430, Note_on_c, 0, 58, 0
3, 269430, Note_on_c, 0, 57, 90
3, 269460, Note_on_c, 0, 57, 0
3, 269460, Note_on_c, 0, 58, 90
3, 269490, Note_on_c, 0, 58, 0
3, 269490, Note_on_c, 0, 60, 90
3, 269520, Note_on_c, 0, 60, 0
3, 269520, Note_on_c, 0, 50, 0
3, 269520, Note_on_c, 0, 62, 90
3, 269670, Note_on_c, 0, 62, 0
3, 269670, Note_on_c, 0, 60, 90
3, 269700, Note_on_c, 0, 60, 0
3, 269700, Note_on_c, 0, 58, 90
3, 269730, Note_on_c, 0, 58, 0
3, 269730, Note_on_c, 0, 57, 90
3, 269760, Note_on_c, 0, 57, 0
3, 269760, Note_on_c, 0, 55, 90
3, 269790, Note_on_c, 0, 43, 90
3, 269820, Note_on_c, 0, 43, 0
3, 269820, Note_on_c, 0, 45, 90
3, 269850, Note_on_c, 0, 45, 0
3, 269850, Note_on_c, 0, 46, 90
3, 269880, Note_on_c, 0, 46, 0
3, 269880, Note_on_c, 0, 48, 90
3, 269910, Note_on_c, 0, 55, 0
3, 269910, Note_on_c, 0, 55, 90
3, 269940, Note_on_c, 0, 55, 0
3, 269940, Note_on_c, 0, 57, 90
3, 269970, Note_on_c, 0, 57, 0
3, 269970, Note_on_c, 0, 58, 90
3, 270000, Note_on_c, 0, 58, 0
3, 270000, Note_on_c, 0, 57, 90
3, 270030, Note_on_c, 0, 48, 0
3, 270030, Note_on_c, 0, 45, 90
3, 270060, Note_on_c, 0, 45, 0
3, 270060, Note_on_c, 0, 50, 90
3, 270090, Note_on_c, 0, 50, 0
3, 270090, Note_on_c, 0, 48, 90
3, 270120, Note_on_c, 0, 48, 0
3, 270120, Note_on_c, 0, 57, 0
3, 270120, Note_on_c, 0, 46, 90
3, 270150, Note_on_c, 0, 46, 0
3, 270150, Note_on_c, 0, 45, 90
3, 270180, Note_on_c, 0, 45, 0
3, 270180, Note_on_c, 0, 43, 90
3, 270210, Note_on_c, 0, 43, 0
3, 270210, Note_on_c, 0, 42, 90
3, 270240, Note_on_c, 0, 42, 0
3, 270240, Note_on_c, 0, 43, 90
3, 270270, Note_on_c, 0, 43, 0
3, 270270, Note_on_c, 0, 46, 90
3, 270300, Note_on_c, 0, 46, 0
3, 270300, Note_on_c, 0, 48, 90
3, 270330, Note_on_c, 0, 48, 0
3, 270330, Note_on_c, 0, 50, 90
3, 270360, Note_on_c, 0, 50, 0
3, 270360, Note_on_c, 0, 51, 90
3, 270510, Note_on_c, 0, 51, 0
3, 270510, Note_on_c, 0, 50, 90
3, 270540, Note_on_c, 0, 50, 0
3, 270540, Note_on_c, 0, 48, 90
3, 270570, Note_on_c, 0, 48, 0
3, 270570, Note_on_c, 0, 47, 90
3, 270660, Note_on_c, 0, 47, 0
3, 270660, Note_on_c, 0, 45, 90
3, 270690, Note_on_c, 0, 45, 0
3, 270690, Note_on_c, 0, 47, 90
3, 270720, Note_on_c, 0, 47, 0
3, 270720, Note_on_c, 0, 48, 90
3, 270870, Note_on_c, 0, 48, 0
3, 270870, Note_on_c, 0, 50, 90
3, 270900, Note_on_c, 0, 50, 0
3, 270900, Note_on_c, 0, 51, 90
3, 270930, Note_on_c, 0, 51, 0
3, 270930, Note_on_c, 0, 53, 90
3, 270960, Note_on_c, 0, 53, 0
3, 270960, Note_on_c, 0, 55, 90
3, 271080, Note_on_c, 0, 55, 0
3, 271080, Note_on_c, 0, 53, 90
3, 271170, Note_on_c, 0, 53, 0
3, 271170, Note_on_c, 0, 51, 90
3, 271200, Note_on_c, 0, 51, 0
3, 271200, Note_on_c, 0, 58, 90
3, 271200, Note_on_c, 0, 50, 90
3, 271320, Note_on_c, 0, 58, 0
3, 271320, Note_on_c, 0, 65, 90
3, 271350, Note_on_c, 0, 50, 0
3, 271350, Note_on_c, 0, 51, 90
3, 271380, Note_on_c, 0, 51, 0
3, 271380, Note_on_c, 0, 50, 90
3, 271410, Note_on_c, 0, 50, 0
3, 271410, Note_on_c, 0, 65, 0
3, 271410, Note_on_c, 0, 63, 90
3, 271410, Note_on_c, 0, 48, 90
3, 271440, Note_on_c, 0, 48, 0
3, 271440, Note_on_c, 0, 63, 0
3, 271440, Note_on_c, 0, 62, 90
3, 271440, Note_on_c, 0, 46, 90
3, 271500, Note_on_c, 0, 46, 0
3, 271500, Note_on_c, 0, 50, 90
3, 271530, Note_on_c, 0, 62, 0
3, 271530, Note_on_c, 0, 60, 90
3, 271560, Note_on_c, 0, 60, 0
3, 271560, Note_on_c, 0, 50, 0
3, 271560, Note_on_c, 0, 58, 90
3, 271560, Note_on_c, 0, 43, 90
3, 271680, Note_on_c, 0, 43, 0
3, 271680, Note_on_c, 0, 58, 0
3, 271680, Note_on_c, 0, 57, 90
3, 271680, Note_on_c, 0, 41, 90
3, 271710, Note_on_c, 0, 41, 0
3, 271710, Note_on_c, 0, 45, 90
3, 271740, Note_on_c, 0, 45, 0
3, 271740, Note_on_c, 0, 46, 90
3, 271770, Note_on_c, 0, 46, 0
3, 271770, Note_on_c, 0, 48, 90
3, 271800, Note_on_c, 0, 48, 0
3, 271800, Note_on_c, 0, 57, 0
3, 271800, Note_on_c, 0, 58, 90
3, 271800, Note_on_c, 0, 50, 90
3, 271830, Note_on_c, 0, 50, 0
3, 271830, Note_on_c, 0, 48, 90
3, 271860, Note_on_c, 0, 48, 0
3, 271860, Note_on_c, 0, 50, 90
3, 271890, Note_on_c, 0, 50, 0
3, 271890, Note_on_c, 0, 58, 0
3, 271890, Note_on_c, 0, 60, 90
3, 271890, Note_on_c, 0, 51, 90
3, 271920, Note_on_c, 0, 51, 0
3, 271920, Note_on_c, 0, 60, 0
3, 271920, Note_on_c, 0, 62, 90
3, 271920, Note_on_c, 0, 53, 90
3, 272070, Note_on_c, 0, 62, 0
3, 272070, Note_on_c, 0, 63, 90
3, 272100, Note_on_c, 0, 63, 0
3, 272100, Note_on_c, 0, 62, 90
3, 272130, Note_on_c, 0, 62, 0
3, 272130, Note_on_c, 0, 60, 90
3, 272160, Note_on_c, 0, 60, 0
3, 272160, Note_on_c, 0, 59, 90
3, 272190, Note_on_c, 0, 59, 0
3, 272190, Note_on_c, 0, 62, 90
3, 272220, Note_on_c, 0, 62, 0
3, 272220, Note_on_c, 0, 63, 90
3, 272250, Note_on_c, 0, 63, 0
3, 272250, Note_on_c, 0, 65, 90
3, 272280, Note_on_c, 0, 65, 0
3, 272280, Note_on_c, 0, 67, 90
3, 272310, Note_on_c, 0, 53, 0
3, 272310, Note_on_c, 0, 51, 90
3, 272340, Note_on_c, 0, 51, 0
3, 272340, Note_on_c, 0, 50, 90
3, 272370, Note_on_c, 0, 50, 0
3, 272370, Note_on_c, 0, 48, 90
3, 272400, Note_on_c, 0, 48, 0
3, 272400, Note_on_c, 0, 55, 90
3, 272460, Note_on_c, 0, 67, 0
3, 272460, Note_on_c, 0, 62, 90
3, 272550, Note_on_c, 0, 62, 0
3, 272550, Note_on_c, 0, 62, 90
3, 272580, Note_on_c, 0, 62, 0
3, 272580, Note_on_c, 0, 60, 90
3, 272610, Note_on_c, 0, 60, 0
3, 272610, Note_on_c, 0, 58, 90
3, 272640, Note_on_c, 0, 58, 0
3, 272640, Note_on_c, 0, 55, 0
3, 272640, Note_on_c, 0, 60, 90
3, 272640, Note_on_c, 0, 53, 90
3, 272760, Note_on_c, 0, 53, 0
3, 272760, Note_on_c, 0, 60, 0
3, 272760, Note_on_c, 0, 65, 90
3, 272850, Note_on_c, 0, 65, 0
3, 272850, Note_on_c, 0, 63, 90
3, 272880, Note_on_c, 0, 63, 0
3, 272880, Note_on_c, 0, 62, 90
3, 272880, Note_on_c, 0, 53, 90
3, 272970, Note_on_c, 0, 62, 0
3, 272970, Note_on_c, 0, 60, 90
3, 273000, Note_on_c, 0, 60, 0
3, 273000, Note_on_c, 0, 53, 0
3, 273000, Note_on_c, 0, 58, 90
3, 273000, Note_on_c, 0, 46, 90
3, 273090, Note_on_c, 0, 46, 0
3, 273090, Note_on_c, 0, 48, 90
3, 273120, Note_on_c, 0, 48, 0
3, 273120, Note_on_c, 0, 58, 0
3, 273120, Note_on_c, 0, 57, 90
3, 273120, Note_on_c, 0, 50, 90
3, 273210, Note_on_c, 0, 50, 0
3, 273210, Note_on_c, 0, 51, 90
3, 273240, Note_on_c, 0, 51, 0
3, 273240, Note_on_c, 0, 53, 90
3, 273300, Note_on_c, 0, 57, 0
3, 273300, Note_on_c, 0, 58, 90
3, 273330, Note_on_c, 0, 58, 0
3, 273330, Note_on_c, 0, 60, 90
3, 273360, Note_on_c, 0, 60, 0
3, 273360, Note_on_c, 0, 62, 90
3, 273480, Note_on_c, 0, 53, 0
3, 273480, Note_on_c, 0, 55, 90
3, 273510, Note_on_c, 0, 62, 0
3, 273510, Note_on_c, 0, 63, 90
3, 273540, Note_on_c, 0, 63, 0
3, 273540, Note_on_c, 0, 62, 90
3, 273570, Note_on_c, 0, 62, 0
3, 273570, Note_on_c, 0, 60, 90
3, 273600, Note_on_c, 0, 60, 0
3, 273600, Note_on_c, 0, 58, 90
3, 273660, Note_on_c, 0, 55, 0
3, 273660, Note_on_c, 0, 53, 90
3, 273690, Note_on_c, 0, 53, 0
3, 273690, Note_on_c, 0, 51, 90
3, 273720, Note_on_c, 0, 51, 0
3, 273720, Note_on_c, 0, 50, 90
3, 273750, Note_on_c, 0, 58, 0
3, 273750, Note_on_c, 0, 58, 90
3, 273780, Note_on_c, 0, 58, 0
3, 273780, Note_on_c, 0, 57, 90
3, 273810, Note_on_c, 0, 57, 0
3, 273810, Note_on_c, 0, 55, 90
3, 273840, Note_on_c, 0, 55, 0
3, 273840, Note_on_c, 0, 57, 90
3, 273870, Note_on_c, 0, 50, 0
3, 273870, Note_on_c, 0, 45, 90
3, 273900, Note_on_c, 0, 45, 0
3, 273900, Note_on_c, 0, 57, 0
3, 273900, Note_on_c, 0, 58, 90
3, 273900, Note_on_c, 0, 50, 90
3, 273930, Note_on_c, 0, 50, 0
3, 273930, Note_on_c, 0, 52, 90
3, 273960, Note_on_c, 0, 52, 0
3, 273960, Note_on_c, 0, 53, 90
3, 273990, Note_on_c, 0, 58, 0
3, 273990, Note_on_c, 0, 58, 90
3, 274020, Note_on_c, 0, 58, 0
3, 274020, Note_on_c, 0, 57, 90
3, 274050, Note_on_c, 0, 57, 0
3, 274050, Note_on_c, 0, 55, 90
3, 274080, Note_on_c, 0, 55, 0
3, 274080, Note_on_c, 0, 57, 90
3, 274110, Note_on_c, 0, 57, 0
3, 274110, Note_on_c, 0, 55, 90
3, 274140, Note_on_c, 0, 55, 0
3, 274140, Note_on_c, 0, 53, 90
3, 274170, Note_on_c, 0, 53, 0
3, 274170, Note_on_c, 0, 52, 90
3, 274200, Note_on_c, 0, 52, 0
3, 274200, Note_on_c, 0, 53, 0
3, 274200, Note_on_c, 0, 53, 90
3, 274230, Note_on_c, 0, 46, 90
3, 274260, Note_on_c, 0, 46, 0
3, 274260, Note_on_c, 0, 45, 90
3, 274290, Note_on_c, 0, 45, 0
3, 274290, Note_on_c, 0, 43, 90
3, 274320, Note_on_c, 0, 43, 0
3, 274320, Note_on_c, 0, 41, 90
3, 274350, Note_on_c, 0, 41, 0
3, 274350, Note_on_c, 0, 45, 90
3, 274380, Note_on_c, 0, 45, 0
3, 274380, Note_on_c, 0, 46, 90
3, 274410, Note_on_c, 0, 46, 0
3, 274410, Note_on_c, 0, 48, 90
3, 274440, Note_on_c, 0, 48, 0
3, 274440, Note_on_c, 0, 50, 90
3, 274560, Note_on_c, 0, 50, 0
3, 274560, Note_on_c, 0, 53, 0
3, 274560, Note_on_c, 0, 60, 90
3, 274590, Note_on_c, 0, 36, 90
3, 274620, Note_on_c, 0, 36, 0
3, 274620, Note_on_c, 0, 48, 90
3, 274650, Note_on_c, 0, 48, 0
3, 274650, Note_on_c, 0, 46, 90
3, 274680, Note_on_c, 0, 46, 0
3, 274680, Note_on_c, 0, 45, 90
3, 274710, Note_on_c, 0, 45, 0
3, 274710, Note_on_c, 0, 43, 90
3, 274740, Note_on_c, 0, 43, 0
3, 274740, Note_on_c, 0, 41, 90
3, 274770, Note_on_c, 0, 41, 0
3, 274770, Note_on_c, 0, 40, 90
3, 274800, Note_on_c, 0, 40, 0
3, 274800, Note_on_c, 0, 41, 90
3, 274830, Note_on_c, 0, 41, 0
3, 274830, Note_on_c, 0, 48, 90
3, 274860, Note_on_c, 0, 48, 0
3, 274860, Note_on_c, 0, 53, 90
3, 274890, Note_on_c, 0, 53, 0
3, 274890, Note_on_c, 0, 52, 90
3, 274920, Note_on_c, 0, 52, 0
3, 274920, Note_on_c, 0, 60, 0
3, 274920, Note_on_c, 0, 58, 90
3, 274920, Note_on_c, 0, 50, 90
3, 275040, Note_on_c, 0, 58, 0
3, 275040, Note_on_c, 0, 57, 90
3, 275070, Note_on_c, 0, 50, 0
3, 275070, Note_on_c, 0, 50, 90
3, 275100, Note_on_c, 0, 50, 0
3, 275100, Note_on_c, 0, 48, 90
3, 275130, Note_on_c, 0, 48, 0
3, 275130, Note_on_c, 0, 46, 90
3, 275160, Note_on_c, 0, 46, 0
3, 275160, Note_on_c, 0, 45, 90
3, 275250, Note_on_c, 0, 45, 0
3, 275250, Note_on_c, 0, 45, 90
3, 275280, Note_on_c, 0, 45, 0
3, 275280, Note_on_c, 0, 46, 90
3, 275370, Note_on_c, 0, 46, 0
3, 275370, Note_on_c, 0, 47, 90
3, 275400, Note_on_c, 0, 47, 0
3, 275400, Note_on_c, 0, 57, 0
3, 275400, Note_on_c, 0, 55, 90
3, 275400, Note_on_c, 0, 48, 90
3, 275490, Note_on_c, 0, 48, 0
3, 275490, Note_on_c, 0, 49, 90
3, 275520, Note_on_c, 0, 49, 0
3, 275520, Note_on_c, 0, 55, 0
3, 275520, Note_on_c, 0, 53, 90
3, 275520, Note_on_c, 0, 50, 90
3, 275610, Note_on_c, 0, 50, 0
3, 275610, Note_on_c, 0, 52, 90
3, 275640, Note_on_c, 0, 52, 0
3, 275640, Note_on_c, 0, 53, 90
3, 275730, Note_on_c, 0, 53, 0
3, 275730, Note_on_c, 0, 55, 90
3, 275760, Note_on_c, 0, 55, 0
3, 275760, Note_on_c, 0, 57, 90
3, 275850, Note_on_c, 0, 57, 0
3, 275850, Note_on_c, 0, 58, 90
3, 275880, Note_on_c, 0, 58, 0
3, 275880, Note_on_c, 0, 60, 90
3, 275970, Note_on_c, 0, 60, 0
3, 275970, Note_on_c, 0, 62, 90
3, 276000, Note_on_c, 0, 62, 0
3, 276000, Note_on_c, 0, 53, 0
3, 276000, Note_on_c, 0, 52, 90
3, 276000, Note_on_c, 0, 55, 90
3, 276060, Note_on_c, 0, 55, 0
3, 276480, Note_on_c, 0, 52, 0
3, 276480, Note_on_c, 0, 53, 90
3, 276480, Note_on_c, 0, 50, 90
3, 276600, Note_on_c, 0, 50, 0
3, 276600, Note_on_c, 0, 57, 90
3, 276690, Note_on_c, 0, 57, 0
3, 276690, Note_on_c, 0, 55, 90
3, 276720, Note_on_c, 0, 55, 0
3, 276720, Note_on_c, 0, 53, 90
3, 276810, Note_on_c, 0, 53, 0
3, 276810, Note_on_c, 0, 52, 90
3, 276840, Note_on_c, 0, 52, 0
3, 276840, Note_on_c, 0, 53, 0
3, 276840, Note_on_c, 0, 55, 90
3, 276840, Note_on_c, 0, 50, 90
3, 276960, Note_on_c, 0, 50, 0
3, 276960, Note_on_c, 0, 55, 0
3, 276960, Note_on_c, 0, 57, 90
3, 276960, Note_on_c, 0, 49, 90
3, 277080, Note_on_c, 0, 49, 0
3, 277080, Note_on_c, 0, 50, 90
3, 277170, Note_on_c, 0, 50, 0
3, 277170, Note_on_c, 0, 52, 90
3, 277200, Note_on_c, 0, 52, 0
3, 277200, Note_on_c, 0, 53, 90
3, 277350, Note_on_c, 0, 53, 0
3, 277350, Note_on_c, 0, 55, 90
3, 277380, Note_on_c, 0, 55, 0
3, 277380, Note_on_c, 0, 53, 90
3, 277410, Note_on_c, 0, 53, 0
3, 277410, Note_on_c, 0, 52, 90
3, 277440, Note_on_c, 0, 52, 0
3, 277440, Note_on_c, 0, 50, 90
3, 277560, Note_on_c, 0, 50, 0
3, 277560, Note_on_c, 0, 57, 0
3, 277560, Note_on_c, 0, 58, 90
3, 277620, Note_on_c, 0, 55, 90
3, 277680, Note_on_c, 0, 58, 0
3, 277680, Note_on_c, 0, 57, 90
3, 277740, Note_on_c, 0, 55, 0
3, 277740, Note_on_c, 0, 53, 90
3, 277800, Note_on_c, 0, 57, 0
3, 277800, Note_on_c, 0, 55, 90
3, 277860, Note_on_c, 0, 53, 0
3, 277860, Note_on_c, 0, 52, 90
3, 277920, Note_on_c, 0, 55, 0
3, 277920, Note_on_c, 0, 53, 90
3, 277980, Note_on_c, 0, 52, 0
3, 277980, Note_on_c, 0, 50, 90
3, 278010, Note_on_c, 0, 50, 0
3, 278010, Note_on_c, 0, 48, 90
3, 278040, Note_on_c, 0, 48, 0
3, 278040, Note_on_c, 0, 53, 0
3, 278040, Note_on_c, 0, 47, 90
3, 278100, Note_on_c, 0, 55, 90
3, 278130, Note_on_c, 0, 47, 0
3, 278130, Note_on_c, 0, 49, 90
3, 278160, Note_on_c, 0, 49, 0
3, 278160, Note_on_c, 0, 50, 90
3, 278190, Note_on_c, 0, 55, 0
3, 278190, Note_on_c, 0, 57, 90
3, 278220, Note_on_c, 0, 57, 0
3, 278220, Note_on_c, 0, 50, 0
3, 278220, Note_on_c, 0, 55, 90
3, 278220, Note_on_c, 0, 46, 90
3, 278250, Note_on_c, 0, 55, 0
3, 278250, Note_on_c, 0, 53, 90
3, 278280, Note_on_c, 0, 53, 0
3, 278280, Note_on_c, 0, 46, 0
3, 278280, Note_on_c, 0, 52, 90
3, 278280, Note_on_c, 0, 43, 90
3, 278340, Note_on_c, 0, 43, 0
3, 278340, Note_on_c, 0, 52, 0
3, 278340, Note_on_c, 0, 57, 90
3, 278340, Note_on_c, 0, 45, 90
3, 278400, Note_on_c, 0, 45, 0
3, 278400, Note_on_c, 0, 50, 90
3, 278430, Note_on_c, 0, 57, 0
3, 278430, Note_on_c, 0, 58, 90
3, 278460, Note_on_c, 0, 58, 0
3, 278460, Note_on_c, 0, 50, 0
3, 278460, Note_on_c, 0, 57, 90
3, 278460, Note_on_c, 0, 52, 90
3, 278490, Note_on_c, 0, 57, 0
3, 278490, Note_on_c, 0, 55, 90
3, 278520, Note_on_c, 0, 55, 0
3, 278520, Note_on_c, 0, 52, 0
3, 278520, Note_on_c, 0, 53, 90
3, 278520, Note_on_c, 0, 53, 90
3, 278550, Note_on_c, 0, 53, 0
3, 278550, Note_on_c, 0, 57, 90
3, 278580, Note_on_c, 0, 57, 0
3, 278580, Note_on_c, 0, 62, 90
3, 278610, Note_on_c, 0, 62, 0
3, 278610, Note_on_c, 0, 60, 90
3, 278640, Note_on_c, 0, 60, 0
3, 278640, Note_on_c, 0, 58, 90
3, 278670, Note_on_c, 0, 53, 0
3, 278670, Note_on_c, 0, 57, 90
3, 278700, Note_on_c, 0, 57, 0
3, 278700, Note_on_c, 0, 58, 0
3, 278700, Note_on_c, 0, 59, 90
3, 278700, Note_on_c, 0, 55, 90
3, 278730, Note_on_c, 0, 55, 0
3, 278730, Note_on_c, 0, 53, 90
3, 278760, Note_on_c, 0, 53, 0
3, 278760, Note_on_c, 0, 59, 0
3, 278760, Note_on_c, 0, 60, 90
3, 278760, Note_on_c, 0, 52, 90
3, 278820, Note_on_c, 0, 52, 0
3, 278820, Note_on_c, 0, 60, 0
3, 278820, Note_on_c, 0, 61, 90
3, 278820, Note_on_c, 0, 57, 90
3, 278880, Note_on_c, 0, 57, 0
3, 278880, Note_on_c, 0, 61, 0
3, 278880, Note_on_c, 0, 62, 90
3, 278880, Note_on_c, 0, 50, 90
3, 278910, Note_on_c, 0, 62, 0
3, 278910, Note_on_c, 0, 60, 90
3, 278940, Note_on_c, 0, 60, 0
3, 278940, Note_on_c, 0, 50, 0
3, 278940, Note_on_c, 0, 59, 90
3, 278970, Note_on_c, 0, 59, 0
3, 278970, Note_on_c, 0, 57, 90
3, 279000, Note_on_c, 0, 57, 0
3, 279000, Note_on_c, 0, 59, 90
3, 279000, Note_on_c, 0, 55, 90
3, 279060, Note_on_c, 0, 55, 0
3, 279060, Note_on_c, 0, 59, 0
3, 279060, Note_on_c, 0, 58, 90
3, 279120, Note_on_c, 0, 48, 90
3, 279150, Note_on_c, 0, 58, 0
3, 279150, Note_on_c, 0, 62, 90
3, 279180, Note_on_c, 0, 62, 0
3, 279180, Note_on_c, 0, 48, 0
3, 279180, Note_on_c, 0, 60, 90
3, 279210, Note_on_c, 0, 60, 0
3, 279210, Note_on_c, 0, 58, 90
3, 279240, Note_on_c, 0, 58, 0
3, 279240, Note_on_c, 0, 57, 90
3, 279240, Note_on_c, 0, 53, 90
3, 279300, Note_on_c, 0, 53, 0
3, 279300, Note_on_c, 0, 57, 0
3, 279300, Note_on_c, 0, 69, 90
3, 279360, Note_on_c, 0, 46, 90
3, 279390, Note_on_c, 0, 69, 0
3, 279390, Note_on_c, 0, 69, 90
3, 279420, Note_on_c, 0, 69, 0
3, 279420, Note_on_c, 0, 46, 0
3, 279420, Note_on_c, 0, 67, 90
3, 279420, Note_on_c, 0, 58, 90
3, 279450, Note_on_c, 0, 67, 0
3, 279450, Note_on_c, 0, 65, 90
3, 279480, Note_on_c, 0, 65, 0
3, 279480, Note_on_c, 0, 64, 90
3, 279510, Note_on_c, 0, 58, 0
3, 279510, Note_on_c, 0, 57, 90
3, 279540, Note_on_c, 0, 57, 0
3, 279540, Note_on_c, 0, 64, 0
3, 279540, Note_on_c, 0, 63, 90
3, 279540, Note_on_c, 0, 55, 90
3, 279570, Note_on_c, 0, 55, 0
3, 279570, Note_on_c, 0, 54, 90
3, 279600, Note_on_c, 0, 54, 0
3, 279600, Note_on_c, 0, 63, 0
3, 279600, Note_on_c, 0, 62, 90
3, 279600, Note_on_c, 0, 55, 90
3, 279660, Note_on_c, 0, 55, 0
3, 279660, Note_on_c, 0, 62, 0
3, 279660, Note_on_c, 0, 61, 90
3, 279660, Note_on_c, 0, 57, 90
3, 279720, Note_on_c, 0, 57, 0
3, 279720, Note_on_c, 0, 61, 0
3, 279720, Note_on_c, 0, 62, 90
3, 279720, Note_on_c, 0, 58, 90
3, 279780, Note_on_c, 0, 58, 0
3, 279780, Note_on_c, 0, 62, 0
3, 279780, Note_on_c, 0, 67, 90
3, 279780, Note_on_c, 0, 55, 90
3, 279840, Note_on_c, 0, 55, 0
3, 279840, Note_on_c, 0, 57, 90
3, 279870, Note_on_c, 0, 67, 0
3, 279870, Note_on_c, 0, 65, 90
3, 279900, Note_on_c, 0, 65, 0
3, 279900, Note_on_c, 0, 64, 90
3, 279930, Note_on_c, 0, 64, 0
3, 279930, Note_on_c, 0, 62, 90
3, 279960, Note_on_c, 0, 62, 0
3, 279960, Note_on_c, 0, 61, 90
3, 279990, Note_on_c, 0, 57, 0
3, 279990, Note_on_c, 0, 58, 90
3, 280020, Note_on_c, 0, 58, 0
3, 280020, Note_on_c, 0, 61, 0
3, 280020, Note_on_c, 0, 64, 90
3, 280020, Note_on_c, 0, 57, 90
3, 280050, Note_on_c, 0, 57, 0
3, 280050, Note_on_c, 0, 55, 90
3, 280080, Note_on_c, 0, 55, 0
3, 280080, Note_on_c, 0, 64, 0
3, 280080, Note_on_c, 0, 57, 90
3, 280080, Note_on_c, 0, 53, 90
3, 280140, Note_on_c, 0, 57, 0
3, 280170, Note_on_c, 0, 53, 0
3, 280170, Note_on_c, 0, 55, 90
3, 280200, Note_on_c, 0, 55, 0
3, 280200, Note_on_c, 0, 57, 90
3, 280260, Note_on_c, 0, 57, 0
3, 280260, Note_on_c, 0, 49, 90
3, 280320, Note_on_c, 0, 49, 0
3, 280320, Note_on_c, 0, 50, 90
3, 280350, Note_on_c, 0, 46, 90
3, 280380, Note_on_c, 0, 46, 0
3, 280380, Note_on_c, 0, 50, 0
3, 280380, Note_on_c, 0, 45, 90
3, 280410, Note_on_c, 0, 45, 0
3, 280410, Note_on_c, 0, 43, 90
3, 280440, Note_on_c, 0, 43, 0
3, 280440, Note_on_c, 0, 41, 90
3, 280470, Note_on_c, 0, 41, 0
3, 280470, Note_on_c, 0, 40, 90
3, 280500, Note_on_c, 0, 40, 0
3, 280500, Note_on_c, 0, 38, 90
3, 280530, Note_on_c, 0, 38, 0
3, 280530, Note_on_c, 0, 37, 90
3, 280560, Note_on_c, 0, 37, 0
3, 280560, Note_on_c, 0, 50, 90
3, 280560, Note_on_c, 0, 38, 90
3, 280680, Note_on_c, 0, 38, 0
3, 280710, Note_on_c, 0, 55, 90
3, 280740, Note_on_c, 0, 55, 0
3, 280740, Note_on_c, 0, 53, 90
3, 280770, Note_on_c, 0, 53, 0
3, 280770, Note_on_c, 0, 52, 90
3, 280800, Note_on_c, 0, 52, 0
3, 280800, Note_on_c, 0, 50, 0
3, 280800, Note_on_c, 0, 57, 90
3, 280800, Note_on_c, 0, 50, 90
3, 280830, Note_on_c, 0, 50, 0
3, 280830, Note_on_c, 0, 49, 90
3, 280860, Note_on_c, 0, 49, 0
3, 280860, Note_on_c, 0, 50, 90
3, 280890, Note_on_c, 0, 50, 0
3, 280890, Note_on_c, 0, 52, 90
3, 280920, Note_on_c, 0, 52, 0
3, 280920, Note_on_c, 0, 53, 90
3, 280980, Note_on_c, 0, 57, 0
3, 280980, Note_on_c, 0, 55, 90
3, 281040, Note_on_c, 0, 55, 0
3, 281040, Note_on_c, 0, 53, 0
3, 281040, Note_on_c, 0, 53, 90
3, 281070, Note_on_c, 0, 41, 90
3, 281100, Note_on_c, 0, 41, 0
3, 281100, Note_on_c, 0, 43, 90
3, 281130, Note_on_c, 0, 43, 0
3, 281130, Note_on_c, 0, 45, 90
3, 281160, Note_on_c, 0, 45, 0
3, 281160, Note_on_c, 0, 46, 90
3, 281220, Note_on_c, 0, 46, 0
3, 281220, Note_on_c, 0, 53, 0
3, 281220, Note_on_c, 0, 52, 90
3, 281220, Note_on_c, 0, 43, 90
3, 281280, Note_on_c, 0, 43, 0
3, 281280, Note_on_c, 0, 52, 0
3, 281280, Note_on_c, 0, 50, 90
3, 281280, Note_on_c, 0, 50, 90
3, 281310, Note_on_c, 0, 50, 0
3, 281310, Note_on_c, 0, 38, 90
3, 281340, Note_on_c, 0, 38, 0
3, 281340, Note_on_c, 0, 50, 90
3, 281370, Note_on_c, 0, 50, 0
3, 281370, Note_on_c, 0, 52, 90
3, 281400, Note_on_c, 0, 52, 0
3, 281400, Note_on_c, 0, 53, 90
3, 281430, Note_on_c, 0, 53, 0
3, 281430, Note_on_c, 0, 57, 90
3, 281460, Note_on_c, 0, 57, 0
3, 281460, Note_on_c, 0, 55, 90
3, 281490, Note_on_c, 0, 55, 0
3, 281490, Note_on_c, 0, 53, 90
3, 281520, Note_on_c, 0, 53, 0
3, 281520, Note_on_c, 0, 50, 0
3, 281520, Note_on_c, 0, 49, 90
3, 281520, Note_on_c, 0, 52, 90
3, 281550, Note_on_c, 0, 52, 0
3, 281550, Note_on_c, 0, 50, 90
3, 281580, Note_on_c, 0, 50, 0
3, 281580, Note_on_c, 0, 52, 90
3, 281610, Note_on_c, 0, 52, 0
3, 281610, Note_on_c, 0, 53, 90
3, 281640, Note_on_c, 0, 53, 0
3, 281640, Note_on_c, 0, 52, 90
3, 281670, Note_on_c, 0, 52, 0
3, 281670, Note_on_c, 0, 53, 90
3, 281700, Note_on_c, 0, 53, 0
3, 281700, Note_on_c, 0, 50, 90
3, 281730, Note_on_c, 0, 50, 0
3, 281730, Note_on_c, 0, 52, 90
3, 281760, Note_on_c, 0, 52, 0
3, 281760, Note_on_c, 0, 49, 0
3, 281760, Note_on_c, 0, 50, 90
3, 281760, Note_on_c, 0, 53, 90
3, 281790, Note_on_c, 0, 53, 0
3, 281790, Note_on_c, 0, 52, 90
3, 281820, Note_on_c, 0, 52, 0
3, 281820, Note_on_c, 0, 53, 90
3, 281850, Note_on_c, 0, 53, 0
3, 281850, Note_on_c, 0, 55, 90
3, 281880, Note_on_c, 0, 55, 0
3, 281880, Note_on_c, 0, 53, 90
3, 281910, Note_on_c, 0, 53, 0
3, 281910, Note_on_c, 0, 52, 90
3, 281940, Note_on_c, 0, 52, 0
3, 281940, Note_on_c, 0, 50, 0
3, 281940, Note_on_c, 0, 52, 90
3, 281940, Note_on_c, 0, 50, 90
3, 281970, Note_on_c, 0, 50, 0
3, 281970, Note_on_c, 0, 49, 90
3, 282000, Note_on_c, 0, 49, 0
3, 282000, Note_on_c, 0, 52, 0
3, 282000, Note_on_c, 0, 53, 90
3, 282000, Note_on_c, 0, 50, 90
3, 282030, Note_on_c, 0, 50, 0
3, 282030, Note_on_c, 0, 48, 90
3, 282060, Note_on_c, 0, 48, 0
3, 282060, Note_on_c, 0, 46, 90
3, 282090, Note_on_c, 0, 46, 0
3, 282090, Note_on_c, 0, 45, 90
3, 282120, Note_on_c, 0, 45, 0
3, 282120, Note_on_c, 0, 43, 90
3, 282150, Note_on_c, 0, 43, 0
3, 282150, Note_on_c, 0, 45, 90
3, 282180, Note_on_c, 0, 45, 0
3, 282180, Note_on_c, 0, 46, 90
3, 282210, Note_on_c, 0, 46, 0
3, 282210, Note_on_c, 0, 43, 90
3, 282240, Note_on_c, 0, 43, 0
3, 282240, Note_on_c, 0, 45, 90
3, 282270, Note_on_c, 0, 45, 0
3, 282270, Note_on_c, 0, 43, 90
3, 282300, Note_on_c, 0, 43, 0
3, 282300, Note_on_c, 0, 53, 0
3, 282300, Note_on_c, 0, 55, 90
3, 282300, Note_on_c, 0, 45, 90
3, 282330, Note_on_c, 0, 45, 0
3, 282330, Note_on_c, 0, 46, 90
3, 282360, Note_on_c, 0, 46, 0
3, 282360, Note_on_c, 0, 55, 0
3, 282360, Note_on_c, 0, 53, 90
3, 282360, Note_on_c, 0, 45, 90
3, 282390, Note_on_c, 0, 45, 0
3, 282390, Note_on_c, 0, 57, 90
3, 282420, Note_on_c, 0, 57, 0
3, 282420, Note_on_c, 0, 53, 0
3, 282420, Note_on_c, 0, 52, 90
3, 282420, Note_on_c, 0, 55, 90
3, 282450, Note_on_c, 0, 55, 0
3, 282450, Note_on_c, 0, 57, 90
3, 282480, Note_on_c, 0, 57, 0
3, 282480, Note_on_c, 0, 52, 0
3, 282480, Note_on_c, 0, 50, 90
3, 282480, Note_on_c, 0, 53, 90
3, 282510, Note_on_c, 0, 53, 0
3, 282510, Note_on_c, 0, 57, 90
3, 282540, Note_on_c, 0, 57, 0
3, 282540, Note_on_c, 0, 62, 90
3, 282570, Note_on_c, 0, 62, 0
3, 282570, Note_on_c, 0, 60, 90
3, 282600, Note_on_c, 0, 60, 0
3, 282600, Note_on_c, 0, 58, 90
3, 282630, Note_on_c, 0, 58, 0
3, 282630, Note_on_c, 0, 57, 90
3, 282660, Note_on_c, 0, 57, 0
3, 282660, Note_on_c, 0, 55, 90
3, 282690, Note_on_c, 0, 55, 0
3, 282690, Note_on_c, 0, 58, 90
3, 282720, Note_on_c, 0, 58, 0
3, 282720, Note_on_c, 0, 57, 90
3, 282750, Note_on_c, 0, 57, 0
3, 282750, Note_on_c, 0, 55, 90
3, 282780, Note_on_c, 0, 55, 0
3, 282780, Note_on_c, 0, 53, 90
3, 282810, Note_on_c, 0, 53, 0
3, 282810, Note_on_c, 0, 52, 90
3, 282840, Note_on_c, 0, 52, 0
3, 282840, Note_on_c, 0, 50, 0
3, 282840, Note_on_c, 0, 50, 90
3, 282870, Note_on_c, 0, 50, 0
3, 282870, Note_on_c, 0, 48, 90
3, 282900, Note_on_c, 0, 48, 0
3, 282900, Note_on_c, 0, 49, 90
3, 282900, Note_on_c, 0, 46, 90
3, 282930, Note_on_c, 0, 46, 0
3, 282930, Note_on_c, 0, 45, 90
3, 282960, Note_on_c, 0, 45, 0
3, 282960, Note_on_c, 0, 46, 90
3, 282990, Note_on_c, 0, 49, 0
3, 282990, Note_on_c, 0, 52, 90
3, 283020, Note_on_c, 0, 52, 0
3, 283020, Note_on_c, 0, 50, 90
3, 283050, Note_on_c, 0, 50, 0
3, 283050, Note_on_c, 0, 49, 90
3, 283080, Note_on_c, 0, 49, 0
3, 283080, Note_on_c, 0, 46, 0
3, 283080, Note_on_c, 0, 50, 90
3, 283080, Note_on_c, 0, 45, 90
3, 283110, Note_on_c, 0, 50, 0
3, 283110, Note_on_c, 0, 52, 90
3, 283140, Note_on_c, 0, 52, 0
3, 283140, Note_on_c, 0, 53, 90
3, 283170, Note_on_c, 0, 53, 0
3, 283170, Note_on_c, 0, 55, 90
3, 283200, Note_on_c, 0, 55, 0
3, 283200, Note_on_c, 0, 57, 90
3, 283230, Note_on_c, 0, 57, 0
3, 283230, Note_on_c, 0, 55, 90
3, 283260, Note_on_c, 0, 55, 0
3, 283260, Note_on_c, 0, 53, 90
3, 283290, Note_on_c, 0, 53, 0
3, 283290, Note_on_c, 0, 55, 90
3, 283320, Note_on_c, 0, 55, 0
3, 283320, Note_on_c, 0, 45, 0
3, 283320, Note_on_c, 0, 57, 90
3, 283440, Note_on_c, 0, 57, 0
3, 283470, Note_on_c, 0, 63, 90
3, 283500, Note_on_c, 0, 63, 0
3, 283500, Note_on_c, 0, 62, 90
3, 283530, Note_on_c, 0, 62, 0
3, 283530, Note_on_c, 0, 61, 90
3, 283560, Note_on_c, 0, 61, 0
3, 283560, Note_on_c, 0, 58, 90
3, 283590, Note_on_c, 0, 58, 0
3, 283590, Note_on_c, 0, 57, 90
3, 283620, Note_on_c, 0, 57, 0
3, 283620, Note_on_c, 0, 55, 90
3, 283680, Note_on_c, 0, 55, 0
3, 283680, Note_on_c, 0, 62, 90
3, 283710, Note_on_c, 0, 58, 90
3, 283740, Note_on_c, 0, 58, 0
3, 283740, Note_on_c, 0, 57, 90
3, 283770, Note_on_c, 0, 57, 0
3, 283770, Note_on_c, 0, 55, 90
3, 283800, Note_on_c, 0, 55, 0
3, 283800, Note_on_c, 0, 62, 0
3, 283800, Note_on_c, 0, 53, 90
3, 283830, Note_on_c, 0, 53, 0
3, 283830, Note_on_c, 0, 52, 90
3, 283860, Note_on_c, 0, 52, 0
3, 283860, Note_on_c, 0, 62, 90
3, 283860, Note_on_c, 0, 50, 90
3, 283920, Note_on_c, 0, 50, 0
3, 283920, Note_on_c, 0, 62, 0
3, 283920, Note_on_c, 0, 62, 90
3, 283950, Note_on_c, 0, 62, 0
3, 283950, Note_on_c, 0, 61, 90
3, 283980, Note_on_c, 0, 61, 0
3, 283980, Note_on_c, 0, 62, 90
3, 284010, Note_on_c, 0, 62, 0
3, 284010, Note_on_c, 0, 64, 90
3, 284040, Note_on_c, 0, 64, 0
3, 284040, Note_on_c, 0, 65, 90
3, 284070, Note_on_c, 0, 65, 0
3, 284070, Note_on_c, 0, 67, 90
3, 284100, Note_on_c, 0, 67, 0
3, 284100, Note_on_c, 0, 65, 90
3, 284130, Note_on_c, 0, 65, 0
3, 284130, Note_on_c, 0, 64, 90
3, 284160, Note_on_c, 0, 64, 0
3, 284160, Note_on_c, 0, 62, 90
3, 284190, Note_on_c, 0, 55, 90
3, 284220, Note_on_c, 0, 55, 0
3, 284220, Note_on_c, 0, 57, 90
3, 284250, Note_on_c, 0, 57, 0
3, 284250, Note_on_c, 0, 58, 90
3, 284280, Note_on_c, 0, 58, 0
3, 284280, Note_on_c, 0, 62, 0
3, 284280, Note_on_c, 0, 60, 90
3, 284280, Note_on_c, 0, 60, 90
3, 284340, Note_on_c, 0, 60, 0
3, 284340, Note_on_c, 0, 48, 90
3, 284400, Note_on_c, 0, 48, 0
3, 284400, Note_on_c, 0, 53, 90
3, 284460, Note_on_c, 0, 53, 0
3, 284460, Note_on_c, 0, 55, 90
3, 284520, Note_on_c, 0, 55, 0
3, 284520, Note_on_c, 0, 57, 90
3, 284580, Note_on_c, 0, 57, 0
3, 284580, Note_on_c, 0, 55, 90
3, 284640, Note_on_c, 0, 55, 0
3, 284640, Note_on_c, 0, 54, 90
3, 284670, Note_on_c, 0, 60, 0
3, 284670, Note_on_c, 0, 63, 90
3, 284700, Note_on_c, 0, 63, 0
3, 284700, Note_on_c, 0, 62, 90
3, 284730, Note_on_c, 0, 62, 0
3, 284730, Note_on_c, 0, 60, 90
3, 284760, Note_on_c, 0, 60, 0
3, 284760, Note_on_c, 0, 54, 0
3, 284760, Note_on_c, 0, 58, 90
3, 284790, Note_on_c, 0, 50, 90
3, 284820, Note_on_c, 0, 50, 0
3, 284820, Note_on_c, 0, 52, 90
3, 284850, Note_on_c, 0, 52, 0
3, 284850, Note_on_c, 0, 58, 0
3, 284850, Note_on_c, 0, 57, 90
3, 284850, Note_on_c, 0, 53, 90
3, 284880, Note_on_c, 0, 53, 0
3, 284880, Note_on_c, 0, 57, 0
3, 284880, Note_on_c, 0, 55, 90
3, 284880, Note_on_c, 0, 55, 90
3, 284910, Note_on_c, 0, 55, 0
3, 284910, Note_on_c, 0, 50, 90
3, 284940, Note_on_c, 0, 50, 0
3, 284940, Note_on_c, 0, 55, 90
3, 284970, Note_on_c, 0, 55, 0
3, 284970, Note_on_c, 0, 53, 90
3, 285000, Note_on_c, 0, 53, 0
3, 285000, Note_on_c, 0, 55, 0
3, 285000, Note_on_c, 0, 51, 90
3, 285030, Note_on_c, 0, 51, 0
3, 285030, Note_on_c, 0, 50, 90
3, 285060, Note_on_c, 0, 50, 0
3, 285060, Note_on_c, 0, 63, 90
3, 285060, Note_on_c, 0, 48, 90
3, 285090, Note_on_c, 0, 48, 0
3, 285090, Note_on_c, 0, 46, 90
3, 285120, Note_on_c, 0, 46, 0
3, 285120, Note_on_c, 0, 63, 0
3, 285120, Note_on_c, 0, 57, 90
3, 285120, Note_on_c, 0, 48, 90
3, 285150, Note_on_c, 0, 48, 0
3, 285150, Note_on_c, 0, 51, 90
3, 285180, Note_on_c, 0, 51, 0
3, 285180, Note_on_c, 0, 57, 0
3, 285180, Note_on_c, 0, 50, 90
3, 285210, Note_on_c, 0, 50, 0
3, 285210, Note_on_c, 0, 48, 90
3, 285240, Note_on_c, 0, 48, 0
3, 285240, Note_on_c, 0, 62, 90
3, 285240, Note_on_c, 0, 46, 90
3, 285270, Note_on_c, 0, 46, 0
3, 285270, Note_on_c, 0, 45, 90
3, 285300, Note_on_c, 0, 45, 0
3, 285300, Note_on_c, 0, 43, 90
3, 285330, Note_on_c, 0, 43, 0
3, 285330, Note_on_c, 0, 42, 90
3, 285360, Note_on_c, 0, 42, 0
3, 285360, Note_on_c, 0, 62, 0
3, 285360, Note_on_c, 0, 55, 90
3, 285360, Note_on_c, 0, 43, 90
3, 285390, Note_on_c, 0, 43, 0
3, 285390, Note_on_c, 0, 50, 90
3, 285420, Note_on_c, 0, 50, 0
3, 285420, Note_on_c, 0, 55, 90
3, 285450, Note_on_c, 0, 55, 0
3, 285450, Note_on_c, 0, 57, 90
3, 285480, Note_on_c, 0, 57, 0
3, 285480, Note_on_c, 0, 58, 90
3, 285510, Note_on_c, 0, 55, 0
3, 285510, Note_on_c, 0, 54, 90
3, 285540, Note_on_c, 0, 54, 0
3, 285540, Note_on_c, 0, 55, 90
3, 285570, Note_on_c, 0, 55, 0
3, 285570, Note_on_c, 0, 58, 0
3, 285570, Note_on_c, 0, 60, 90
3, 285570, Note_on_c, 0, 57, 90
3, 285600, Note_on_c, 0, 57, 0
3, 285600, Note_on_c, 0, 60, 0
3, 285600, Note_on_c, 0, 62, 90
3, 285600, Note_on_c, 0, 58, 90
3, 285630, Note_on_c, 0, 58, 0
3, 285630, Note_on_c, 0, 55, 90
3, 285660, Note_on_c, 0, 55, 0
3, 285660, Note_on_c, 0, 57, 90
3, 285690, Note_on_c, 0, 57, 0
3, 285690, Note_on_c, 0, 58, 90
3, 285720, Note_on_c, 0, 58, 0
3, 285720, Note_on_c, 0, 62, 0
3, 285720, Note_on_c, 0, 63, 90
3, 285720, Note_on_c, 0, 60, 90
3, 285780, Note_on_c, 0, 60, 0
3, 285780, Note_on_c, 0, 48, 90
3, 285840, Note_on_c, 0, 48, 0
3, 285840, Note_on_c, 0, 63, 0
3, 285840, Note_on_c, 0, 62, 90
3, 285840, Note_on_c, 0, 55, 90
3, 285930, Note_on_c, 0, 62, 0
3, 285930, Note_on_c, 0, 60, 90
3, 285960, Note_on_c, 0, 60, 0
3, 285960, Note_on_c, 0, 55, 0
3, 285960, Note_on_c, 0, 58, 90
3, 286020, Note_on_c, 0, 43, 90
3, 286080, Note_on_c, 0, 43, 0
3, 286080, Note_on_c, 0, 48, 90
3, 286110, Note_on_c, 0, 58, 0
3, 286110, Note_on_c, 0, 55, 90
3, 286140, Note_on_c, 0, 55, 0
3, 286140, Note_on_c, 0, 57, 90
3, 286170, Note_on_c, 0, 57, 0
3, 286170, Note_on_c, 0, 48, 0
3, 286170, Note_on_c, 0, 58, 90
3, 286170, Note_on_c, 0, 46, 90
3, 286200, Note_on_c, 0, 46, 0
3, 286200, Note_on_c, 0, 58, 0
3, 286200, Note_on_c, 0, 60, 90
3, 286200, Note_on_c, 0, 45, 90
3, 286290, Note_on_c, 0, 45, 0
3, 286290, Note_on_c, 0, 43, 90
3, 286320, Note_on_c, 0, 43, 0
3, 286320, Note_on_c, 0, 41, 90
3, 286350, Note_on_c, 0, 60, 0
3, 286350, Note_on_c, 0, 60, 90
3, 286380, Note_on_c, 0, 60, 0
3, 286380, Note_on_c, 0, 58, 90
3, 286410, Note_on_c, 0, 58, 0
3, 286410, Note_on_c, 0, 57, 90
3, 286440, Note_on_c, 0, 57, 0
3, 286440, Note_on_c, 0, 41, 0
3, 286440, Note_on_c, 0, 55, 90
3, 286440, Note_on_c, 0, 40, 90
3, 286470, Note_on_c, 0, 55, 0
3, 286470, Note_on_c, 0, 53, 90
3, 286500, Note_on_c, 0, 53, 0
3, 286500, Note_on_c, 0, 52, 90
3, 286530, Note_on_c, 0, 52, 0
3, 286530, Note_on_c, 0, 50, 90
3, 286560, Note_on_c, 0, 50, 0
3, 286560, Note_on_c, 0, 40, 0
3, 286560, Note_on_c, 0, 48, 90
3, 286560, Note_on_c, 0, 41, 90
3, 286650, Note_on_c, 0, 41, 0
3, 286650, Note_on_c, 0, 43, 90
3, 286680, Note_on_c, 0, 43, 0
3, 286680, Note_on_c, 0, 48, 0
3, 286680, Note_on_c, 0, 45, 90
3, 286830, Note_on_c, 0, 45, 0
3, 286830, Note_on_c, 0, 62, 90
3, 286830, Note_on_c, 0, 46, 90
3, 286860, Note_on_c, 0, 46, 0
3, 286860, Note_on_c, 0, 62, 0
3, 286860, Note_on_c, 0, 60, 90
3, 286860, Note_on_c, 0, 45, 90
3, 286890, Note_on_c, 0, 45, 0
3, 286890, Note_on_c, 0, 60, 0
3, 286890, Note_on_c, 0, 58, 90
3, 286890, Note_on_c, 0, 43, 90
3, 286920, Note_on_c, 0, 43, 0
3, 286920, Note_on_c, 0, 58, 0
3, 286920, Note_on_c, 0, 57, 90
3, 286920, Note_on_c, 0, 41, 90
3, 286950, Note_on_c, 0, 41, 0
3, 286950, Note_on_c, 0, 51, 90
3, 286980, Note_on_c, 0, 51, 0
3, 286980, Note_on_c, 0, 50, 90
3, 287010, Note_on_c, 0, 50, 0
3, 287010, Note_on_c, 0, 48, 90
3, 287040, Note_on_c, 0, 48, 0
3, 287040, Note_on_c, 0, 46, 90
3, 287070, Note_on_c, 0, 57, 0
3, 287070, Note_on_c, 0, 50, 90
3, 287100, Note_on_c, 0, 50, 0
3, 287100, Note_on_c, 0, 52, 90
3, 287130, Note_on_c, 0, 52, 0
3, 287130, Note_on_c, 0, 54, 90
3, 287160, Note_on_c, 0, 54, 0
3, 287160, Note_on_c, 0, 46, 0
3, 287160, Note_on_c, 0, 55, 90
3, 287190, Note_on_c, 0, 58, 90
3, 287220, Note_on_c, 0, 58, 0
3, 287220, Note_on_c, 0, 55, 0
3, 287220, Note_on_c, 0, 57, 90
3, 287250, Note_on_c, 0, 57, 0
3, 287250, Note_on_c, 0, 55, 90
3, 287280, Note_on_c, 0, 55, 0
3, 287280, Note_on_c, 0, 54, 90
3, 287340, Note_on_c, 0, 54, 0
3, 287340, Note_on_c, 0, 50, 90
3, 287400, Note_on_c, 0, 50, 0
3, 287400, Note_on_c, 0, 55, 90
3, 287430, Note_on_c, 0, 65, 90
3, 287460, Note_on_c, 0, 65, 0
3, 287460, Note_on_c, 0, 64, 90
3, 287490, Note_on_c, 0, 64, 0
3, 287490, Note_on_c, 0, 62, 90
3, 287520, Note_on_c, 0, 62, 0
3, 287520, Note_on_c, 0, 61, 90
3, 287550, Note_on_c, 0, 55, 0
3, 287550, Note_on_c, 0, 55, 90
3, 287580, Note_on_c, 0, 55, 0
3, 287580, Note_on_c, 0, 53, 90
3, 287610, Note_on_c, 0, 53, 0
3, 287610, Note_on_c, 0, 52, 90
3, 287640, Note_on_c, 0, 52, 0
3, 287640, Note_on_c, 0, 53, 90
3, 287670, Note_on_c, 0, 61, 0
3, 287670, Note_on_c, 0, 57, 90
3, 287700, Note_on_c, 0, 57, 0
3, 287700, Note_on_c, 0, 62, 90
3, 287730, Note_on_c, 0, 53, 0
3, 287730, Note_on_c, 0, 50, 90
3, 287760, Note_on_c, 0, 50, 0
3, 287760, Note_on_c, 0, 62, 0
3, 287760, Note_on_c, 0, 64, 90
3, 287760, Note_on_c, 0, 57, 90
3, 287790, Note_on_c, 0, 64, 0
3, 287790, Note_on_c, 0, 65, 90
3, 287820, Note_on_c, 0, 65, 0
3, 287820, Note_on_c, 0, 64, 90
3, 287850, Note_on_c, 0, 64, 0
3, 287850, Note_on_c, 0, 62, 90
3, 287880, Note_on_c, 0, 62, 0
3, 287880, Note_on_c, 0, 57, 0
3, 287880, Note_on_c, 0, 60, 90
3, 287910, Note_on_c, 0, 45, 90
3, 287940, Note_on_c, 0, 45, 0
3, 287940, Note_on_c, 0, 60, 0
3, 287940, Note_on_c, 0, 47, 90
3, 287970, Note_on_c, 0, 47, 0
3, 287970, Note_on_c, 0, 49, 90
3, 288000, Note_on_c, 0, 49, 0
3, 288000, Note_on_c, 0, 50, 90
3, 288030, Note_on_c, 0, 57, 90
3, 288060, Note_on_c, 0, 57, 0
3, 288060, Note_on_c, 0, 59, 90
3, 288090, Note_on_c, 0, 59, 0
3, 288090, Note_on_c, 0, 61, 90
3, 288120, Note_on_c, 0, 61, 0
3, 288120, Note_on_c, 0, 50, 0
3, 288120, Note_on_c, 0, 62, 90
3, 288150, Note_on_c, 0, 52, 90
3, 288180, Note_on_c, 0, 52, 0
3, 288180, Note_on_c, 0, 62, 0
3, 288180, Note_on_c, 0, 53, 90
3, 288210, Note_on_c, 0, 53, 0
3, 288210, Note_on_c, 0, 55, 90
3, 288240, Note_on_c, 0, 55, 0
3, 288240, Note_on_c, 0, 57, 90
3, 288270, Note_on_c, 0, 59, 90
3, 288300, Note_on_c, 0, 59, 0
3, 288300, Note_on_c, 0, 61, 90
3, 288330, Note_on_c, 0, 61, 0
3, 288330, Note_on_c, 0, 62, 90
3, 288360, Note_on_c, 0, 62, 0
3, 288360, Note_on_c, 0, 64, 90
3, 288390, Note_on_c, 0, 64, 0
3, 288390, Note_on_c, 0, 65, 90
3, 288420, Note_on_c, 0, 65, 0
3, 288420, Note_on_c, 0, 67, 90
3, 288450, Note_on_c, 0, 67, 0
3, 288450, Note_on_c, 0, 69, 90
3, 288480, Note_on_c, 0, 69, 0
3, 288480, Note_on_c, 0, 57, 0
3, 288480, Note_on_c, 0, 65, 90
3, 288510, Note_on_c, 0, 58, 90
3, 288540, Note_on_c, 0, 58, 0
3, 288540, Note_on_c, 0, 57, 90
3, 288570, Note_on_c, 0, 57, 0
3, 288570, Note_on_c, 0, 55, 90
3, 288600, Note_on_c, 0, 55, 0
3, 288600, Note_on_c, 0, 65, 0
3, 288600, Note_on_c, 0, 53, 90
3, 288630, Note_on_c, 0, 53, 0
3, 288630, Note_on_c, 0, 52, 90
3, 288660, Note_on_c, 0, 52, 0
3, 288660, Note_on_c, 0, 50, 90
3, 288690, Note_on_c, 0, 50, 0
3, 288690, Note_on_c, 0, 53, 90
3, 288720, Note_on_c, 0, 53, 0
3, 288720, Note_on_c, 0, 46, 90
3, 288750, Note_on_c, 0, 50, 90
3, 288780, Note_on_c, 0, 50, 0
3, 288780, Note_on_c, 0, 52, 90
3, 288810, Note_on_c, 0, 52, 0
3, 288810, Note_on_c, 0, 54, 90
3, 288840, Note_on_c, 0, 54, 0
3, 288840, Note_on_c, 0, 55, 90
3, 288870, Note_on_c, 0, 55, 0
3, 288870, Note_on_c, 0, 57, 90
3, 288900, Note_on_c, 0, 57, 0
3, 288900, Note_on_c, 0, 58, 90
3, 288930, Note_on_c, 0, 58, 0
3, 288930, Note_on_c, 0, 55, 90
3, 288960, Note_on_c, 0, 55, 0
3, 288960, Note_on_c, 0, 46, 0
3, 288960, Note_on_c, 0, 57, 90
3, 288960, Note_on_c, 0, 45, 90
3, 289020, Note_on_c, 0, 57, 0
3, 289020, Note_on_c, 0, 52, 90
3, 289080, Note_on_c, 0, 52, 0
3, 289080, Note_on_c, 0, 45, 0
3, 289110, Note_on_c, 0, 57, 90
3, 289140, Note_on_c, 0, 57, 0
3, 289140, Note_on_c, 0, 55, 90
3, 289170, Note_on_c, 0, 55, 0
3, 289170, Note_on_c, 0, 53, 90
3, 289200, Note_on_c, 0, 53, 0
3, 289200, Note_on_c, 0, 58, 90
3, 289200, Note_on_c, 0, 52, 90
3, 289230, Note_on_c, 0, 52, 0
3, 289230, Note_on_c, 0, 50, 90
3, 289260, Note_on_c, 0, 50, 0
3, 289260, Note_on_c, 0, 58, 0
3, 289260, Note_on_c, 0, 55, 90
3, 289260, Note_on_c, 0, 52, 90
3, 289290, Note_on_c, 0, 52, 0
3, 289290, Note_on_c, 0, 53, 90
3, 289320, Note_on_c, 0, 53, 0
3, 289320, Note_on_c, 0, 55, 0
3, 289320, Note_on_c, 0, 55, 90
3, 289350, Note_on_c, 0, 55, 0
3, 289350, Note_on_c, 0, 58, 90
3, 289380, Note_on_c, 0, 58, 0
3, 289380, Note_on_c, 0, 57, 90
3, 289410, Note_on_c, 0, 57, 0
3, 289410, Note_on_c, 0, 55, 90
3, 289440, Note_on_c, 0, 55, 0
3, 289440, Note_on_c, 0, 57, 90
3, 289440, Note_on_c, 0, 53, 90
3, 289470, Note_on_c, 0, 53, 0
3, 289470, Note_on_c, 0, 55, 90
3, 289500, Note_on_c, 0, 55, 0
3, 289500, Note_on_c, 0, 53, 90
3, 289530, Note_on_c, 0, 53, 0
3, 289530, Note_on_c, 0, 52, 90
3, 289560, Note_on_c, 0, 52, 0
3, 289560, Note_on_c, 0, 57, 0
3, 289560, Note_on_c, 0, 62, 90
3, 289560, Note_on_c, 0, 50, 90
3, 289590, Note_on_c, 0, 50, 0
3, 289590, Note_on_c, 0, 52, 90
3, 289620, Note_on_c, 0, 52, 0
3, 289620, Note_on_c, 0, 53, 90
3, 289650, Note_on_c, 0, 62, 0
3, 289650, Note_on_c, 0, 60, 90
3, 289680, Note_on_c, 0, 60, 0
3, 289680, Note_on_c, 0, 58, 90
3, 289710, Note_on_c, 0, 53, 0
3, 289710, Note_on_c, 0, 57, 90
3, 289740, Note_on_c, 0, 57, 0
3, 289740, Note_on_c, 0, 55, 90
3, 289770, Note_on_c, 0, 55, 0
3, 289770, Note_on_c, 0, 58, 0
3, 289770, Note_on_c, 0, 57, 90
3, 289770, Note_on_c, 0, 53, 90
3, 289800, Note_on_c, 0, 53, 0
3, 289800, Note_on_c, 0, 57, 0
3, 289800, Note_on_c, 0, 55, 90
3, 289800, Note_on_c, 0, 52, 90
3, 289830, Note_on_c, 0, 52, 0
3, 289830, Note_on_c, 0, 57, 90
3, 289860, Note_on_c, 0, 57, 0
3, 289860, Note_on_c, 0, 55, 90
3, 289890, Note_on_c, 0, 55, 0
3, 289890, Note_on_c, 0, 57, 90
3, 289920, Note_on_c, 0, 57, 0
3, 289920, Note_on_c, 0, 55, 0
3, 289920, Note_on_c, 0, 53, 90
3, 289920, Note_on_c, 0, 50, 90
3, 290040, Note_on_c, 0, 50, 0
3, 290070, Note_on_c, 0, 53, 0
3, 290070, Note_on_c, 0, 53, 90
3, 290100, Note_on_c, 0, 53, 0
3, 290100, Note_on_c, 0, 55, 90
3, 290130, Note_on_c, 0, 55, 0
3, 290130, Note_on_c, 0, 57, 90
3, 290160, Note_on_c, 0, 57, 0
3, 290160, Note_on_c, 0, 58, 90
3, 290310, Note_on_c, 0, 58, 0
3, 290310, Note_on_c, 0, 60, 90
3, 290340, Note_on_c, 0, 60, 0
3, 290340, Note_on_c, 0, 58, 90
3, 290370, Note_on_c, 0, 58, 0
3, 290370, Note_on_c, 0, 57, 90
3, 290400, Note_on_c, 0, 57, 0
3, 290400, Note_on_c, 0, 55, 90
3, 290430, Note_on_c, 0, 57, 90
3, 290460, Note_on_c, 0, 57, 0
3, 290460, Note_on_c, 0, 55, 0
3, 290460, Note_on_c, 0, 55, 90
3, 290490, Note_on_c, 0, 55, 0
3, 290490, Note_on_c, 0, 53, 90
3, 290520, Note_on_c, 0, 53, 0
3, 290520, Note_on_c, 0, 52, 90
3, 290550, Note_on_c, 0, 52, 0
3, 290550, Note_on_c, 0, 50, 90
3, 290580, Note_on_c, 0, 50, 0
3, 290580, Note_on_c, 0, 49, 90
3, 290610, Note_on_c, 0, 49, 0
3, 290610, Note_on_c, 0, 52, 90
3, 290640, Note_on_c, 0, 52, 0
3, 290640, Note_on_c, 0, 45, 90
3, 290670, Note_on_c, 0, 47, 90
3, 290700, Note_on_c, 0, 47, 0
3, 290700, Note_on_c, 0, 49, 90
3, 290730, Note_on_c, 0, 49, 0
3, 290730, Note_on_c, 0, 50, 90
3, 290760, Note_on_c, 0, 50, 0
3, 290760, Note_on_c, 0, 52, 90
3, 290790, Note_on_c, 0, 52, 0
3, 290790, Note_on_c, 0, 53, 90
3, 290820, Note_on_c, 0, 53, 0
3, 290820, Note_on_c, 0, 55, 90
3, 290850, Note_on_c, 0, 55, 0
3, 290850, Note_on_c, 0, 52, 90
3, 290880, Note_on_c, 0, 52, 0
3, 290880, Note_on_c, 0, 57, 90
3, 290910, Note_on_c, 0, 45, 0
3, 290910, Note_on_c, 0, 55, 90
3, 290940, Note_on_c, 0, 55, 0
3, 290940, Note_on_c, 0, 57, 0
3, 290940, Note_on_c, 0, 53, 90
3, 290970, Note_on_c, 0, 53, 0
3, 290970, Note_on_c, 0, 52, 90
3, 291000, Note_on_c, 0, 52, 0
3, 291000, Note_on_c, 0, 50, 90
3, 291030, Note_on_c, 0, 50, 0
3, 291030, Note_on_c, 0, 48, 90
3, 291060, Note_on_c, 0, 48, 0
3, 291060, Note_on_c, 0, 53, 90
3, 291060, Note_on_c, 0, 46, 90
3, 291090, Note_on_c, 0, 46, 0
3, 291090, Note_on_c, 0, 50, 90
3, 291120, Note_on_c, 0, 50, 0
3, 291120, Note_on_c, 0, 44, 90
3, 291240, Note_on_c, 0, 44, 0
3, 291360, Note_on_c, 0, 53, 0
3, 291540, Note_on_c, 0, 50, 90
3, 291540, Note_on_c, 0, 46, 90
3, 291570, Note_on_c, 0, 50, 0
3, 291570, Note_on_c, 0, 52, 90
3, 291600, Note_on_c, 0, 52, 0
3, 291600, Note_on_c, 0, 46, 0
3, 291600, Note_on_c, 0, 53, 90
3, 291600, Note_on_c, 0, 45, 90
3, 291720, Note_on_c, 0, 53, 0
3, 291720, Note_on_c, 0, 52, 90
3, 291840, Note_on_c, 0, 52, 0
3, 291840, Note_on_c, 0, 45, 0
3, 291840, Note_on_c, 0, 50, 90
3, 291840, Note_on_c, 0, 50, 90
3, 291960, Note_on_c, 0, 50, 0
3, 292020, Note_on_c, 0, 62, 90
3, 292080, Note_on_c, 0, 62, 0
3, 292080, Note_on_c, 0, 64, 90
3, 292140, Note_on_c, 0, 64, 0
3, 292140, Note_on_c, 0, 67, 90
3, 292200, Note_on_c, 0, 67, 0
3, 292200, Note_on_c, 0, 62, 90
3, 292260, Note_on_c, 0, 62, 0
3, 292260, Note_on_c, 0, 57, 90
3, 292320, Note_on_c, 0, 57, 0
3, 292320, Note_on_c, 0, 58, 90
3, 292440, Note_on_c, 0, 58, 0
3, 292440, Note_on_c, 0, 52, 90
3, 292560, Note_on_c, 0, 52, 0
3, 292560, Note_on_c, 0, 50, 0
3, 292560, Note_on_c, 0, 50, 90
3, 292560, Note_on_c, 0, 38, 90
3, 292800, Note_on_c, 0, 38, 0
3, 292800, Note_on_c, 0, 50, 0
3, 293520, Note_on_c, 0, 62, 100
3, 293760, Note_on_c, 0, 62, 0
3, 293760, Note_on_c, 0, 60, 100
3, 293880, Note_on_c, 0, 60, 0
3, 293880, Note_on_c, 0, 65, 100
3, 294000, Note_on_c, 0, 65, 0
3, 294000, Note_on_c, 0, 59, 100
3, 294120, Note_on_c, 0, 59, 0
3, 294120, Note_on_c, 0, 58, 100
3, 294240, Note_on_c, 0, 58, 0
3, 294240, Note_on_c, 0, 57, 100
3, 294360, Note_on_c, 0, 57, 0
3, 294360, Note_on_c, 0, 62, 100
3, 294480, Note_on_c, 0, 62, 0
3, 294480, Note_on_c, 0, 57, 100
3, 294495, Note_on_c, 0, 57, 0
3, 294495, Note_on_c, 0, 55, 100
3, 294510, Note_on_c, 0, 55, 0
3, 294510, Note_on_c, 0, 57, 100
3, 294525, Note_on_c, 0, 57, 0
3, 294525, Note_on_c, 0, 55, 100
3, 294540, Note_on_c, 0, 55, 0
3, 294540, Note_on_c, 0, 57, 100
3, 294555, Note_on_c, 0, 57, 0
3, 294555, Note_on_c, 0, 55, 100
3, 294570, Note_on_c, 0, 55, 0
3, 294570, Note_on_c, 0, 57, 100
3, 294585, Note_on_c, 0, 57, 0
3, 294585, Note_on_c, 0, 55, 100
3, 294600, Note_on_c, 0, 55, 0
3, 294600, Note_on_c, 0, 57, 100
3, 294615, Note_on_c, 0, 57, 0
3, 294615, Note_on_c, 0, 55, 100
3, 294630, Note_on_c, 0, 55, 0
3, 294630, Note_on_c, 0, 57, 100
3, 294645, Note_on_c, 0, 57, 0
3, 294645, Note_on_c, 0, 55, 100
3, 294660, Note_on_c, 0, 55, 0
3, 294660, Note_on_c, 0, 57, 100
3, 294675, Note_on_c, 0, 57, 0
3, 294675, Note_on_c, 0, 55, 100
3, 294690, Note_on_c, 0, 55, 0
3, 294690, Note_on_c, 0, 53, 100
3, 294705, Note_on_c, 0, 53, 0
3, 294705, Note_on_c, 0, 55, 100
3, 294720, Note_on_c, 0, 55, 0
3, 294720, Note_on_c, 0, 53, 100
3, 294840, Note_on_c, 0, 53, 0
3, 294840, Note_on_c, 0, 55, 100
3, 294960, Note_on_c, 0, 55, 0
3, 294960, Note_on_c, 0, 57, 100
3, 295020, Note_on_c, 0, 57, 0
3, 295020, Note_on_c, 0, 55, 100
3, 295080, Note_on_c, 0, 55, 0
3, 295080, Note_on_c, 0, 57, 100
3, 295200, Note_on_c, 0, 57, 0
3, 295200, Note_on_c, 0, 50, 100
3, 295320, Note_on_c, 0, 50, 0
3, 295320, Note_on_c, 0, 62, 100
3, 295440, Note_on_c, 0, 62, 0
3, 295440, Note_on_c, 0, 60, 100
3, 295560, Note_on_c, 0, 60, 0
3, 295560, Note_on_c, 0, 59, 100
3, 295680, Note_on_c, 0, 59, 0
3, 295680, Note_on_c, 0, 60, 100
3, 295800, Note_on_c, 0, 60, 0
3, 295800, Note_on_c, 0, 65, 100
3, 295920, Note_on_c, 0, 65, 0
3, 295920, Note_on_c, 0, 57, 100
3, 295920, Note_on_c, 0, 64, 100
3, 296040, Note_on_c, 0, 64, 0
3, 296040, Note_on_c, 0, 63, 100
3, 296160, Note_on_c, 0, 63, 0
3, 296160, Note_on_c, 0, 57, 0
3, 296160, Note_on_c, 0, 55, 100
3, 296160, Note_on_c, 0, 64, 100
3, 296280, Note_on_c, 0, 55, 0
3, 296280, Note_on_c, 0, 60, 100
3, 296400, Note_on_c, 0, 60, 0
3, 296400, Note_on_c, 0, 64, 0
3, 296400, Note_on_c, 0, 54, 100
3, 296460, Note_on_c, 0, 62, 100
3, 296520, Note_on_c, 0, 62, 0
3, 296520, Note_on_c, 0, 54, 0
3, 296520, Note_on_c, 0, 60, 100
3, 296520, Note_on_c, 0, 53, 100
3, 296580, Note_on_c, 0, 60, 0
3, 296580, Note_on_c, 0, 58, 100
3, 296640, Note_on_c, 0, 58, 0
3, 296640, Note_on_c, 0, 53, 0
3, 296640, Note_on_c, 0, 52, 100
3, 296640, Note_on_c, 0, 60, 100
3, 296760, Note_on_c, 0, 52, 0
3, 296760, Note_on_c, 0, 57, 100
3, 296880, Note_on_c, 0, 57, 0
3, 296880, Note_on_c, 0, 60, 0
3, 296880, Note_on_c, 0, 52, 100
3, 296895, Note_on_c, 0, 52, 0
3, 296895, Note_on_c, 0, 50, 100
3, 296910, Note_on_c, 0, 50, 0
3, 296910, Note_on_c, 0, 52, 100
3, 296925, Note_on_c, 0, 52, 0
3, 296925, Note_on_c, 0, 50, 100
3, 296940, Note_on_c, 0, 50, 0
3, 296940, Note_on_c, 0, 52, 100
3, 296940, Note_on_c, 0, 59, 100
3, 296955, Note_on_c, 0, 52, 0
3, 296955, Note_on_c, 0, 50, 100
3, 296970, Note_on_c, 0, 50, 0
3, 296970, Note_on_c, 0, 52, 100
3, 296985, Note_on_c, 0, 52, 0
3, 296985, Note_on_c, 0, 50, 100
3, 297000, Note_on_c, 0, 50, 0
3, 297000, Note_on_c, 0, 59, 0
3, 297000, Note_on_c, 0, 52, 100
3, 297000, Note_on_c, 0, 57, 100
3, 297015, Note_on_c, 0, 52, 0
3, 297015, Note_on_c, 0, 50, 100
3, 297030, Note_on_c, 0, 50, 0
3, 297030, Note_on_c, 0, 52, 100
3, 297045, Note_on_c, 0, 52, 0
3, 297045, Note_on_c, 0, 50, 100
3, 297060, Note_on_c, 0, 50, 0
3, 297060, Note_on_c, 0, 57, 0
3, 297060, Note_on_c, 0, 52, 100
3, 297060, Note_on_c, 0, 56, 100
3, 297075, Note_on_c, 0, 52, 0
3, 297075, Note_on_c, 0, 50, 100
3, 297090, Note_on_c, 0, 50, 0
3, 297090, Note_on_c, 0, 48, 100
3, 297105, Note_on_c, 0, 48, 0
3, 297105, Note_on_c, 0, 50, 100
3, 297120, Note_on_c, 0, 50, 0
3, 297120, Note_on_c, 0, 56, 0
3, 297120, Note_on_c, 0, 48, 100
3, 297120, Note_on_c, 0, 57, 100
3, 297180, Note_on_c, 0, 57, 0
3, 297180, Note_on_c, 0, 60, 100
3, 297240, Note_on_c, 0, 60, 0
3, 297240, Note_on_c, 0, 48, 0
3, 297240, Note_on_c, 0, 50, 100
3, 297240, Note_on_c, 0, 59, 100
3, 297300, Note_on_c, 0, 59, 0
3, 297300, Note_on_c, 0, 62, 100
3, 297360, Note_on_c, 0, 62, 0
3, 297360, Note_on_c, 0, 50, 0
3, 297360, Note_on_c, 0, 52, 100
3, 297420, Note_on_c, 0, 52, 0
3, 297420, Note_on_c, 0, 50, 100
3, 297480, Note_on_c, 0, 50, 0
3, 297480, Note_on_c, 0, 52, 100
3, 297600, Note_on_c, 0, 52, 0
3, 297600, Note_on_c, 0, 45, 100
3, 297720, Note_on_c, 0, 45, 0
3, 297720, Note_on_c, 0, 55, 100
3, 297840, Note_on_c, 0, 55, 0
3, 297840, Note_on_c, 0, 53, 100
3, 297960, Note_on_c, 0, 53, 0
3, 297960, Note_on_c, 0, 52, 100
3, 298080, Note_on_c, 0, 52, 0
3, 298080, Note_on_c, 0, 53, 100
3, 298200, Note_on_c, 0, 53, 0
3, 298200, Note_on_c, 0, 58, 100
3, 298320, Note_on_c, 0, 58, 0
3, 298320, Note_on_c, 0, 57, 100
3, 298440, Note_on_c, 0, 57, 0
3, 298440, Note_on_c, 0, 56, 100
3, 298560, Note_on_c, 0, 56, 0
3, 298560, Note_on_c, 0, 57, 100
3, 298800, Note_on_c, 0, 57, 0
3, 298860, Note_on_c, 0, 55, 100
3, 298920, Note_on_c, 0, 55, 0
3, 298920, Note_on_c, 0, 53, 100
3, 298980, Note_on_c, 0, 53, 0
3, 298980, Note_on_c, 0, 52, 100
3, 299040, Note_on_c, 0, 52, 0
3, 299040, Note_on_c, 0, 53, 100
3, 299040, Note_on_c, 0, 60, 100
3, 299160, Note_on_c, 0, 60, 0
3, 299160, Note_on_c, 0, 57, 100
3, 299280, Note_on_c, 0, 57, 0
3, 299280, Note_on_c, 0, 53, 0
3, 299280, Note_on_c, 0, 59, 100
3, 299340, Note_on_c, 0, 52, 100
3, 299400, Note_on_c, 0, 52, 0
3, 299400, Note_on_c, 0, 59, 0
3, 299400, Note_on_c, 0, 50, 100
3, 299400, Note_on_c, 0, 64, 100
3, 299460, Note_on_c, 0, 50, 0
3, 299460, Note_on_c, 0, 49, 100
3, 299520, Note_on_c, 0, 49, 0
3, 299520, Note_on_c, 0, 64, 0
3, 299520, Note_on_c, 0, 57, 100
3, 299520, Note_on_c, 0, 50, 100
3, 299580, Note_on_c, 0, 57, 0
3, 299580, Note_on_c, 0, 60, 100
3, 299640, Note_on_c, 0, 60, 0
3, 299640, Note_on_c, 0, 58, 100
3, 299700, Note_on_c, 0, 58, 0
3, 299700, Note_on_c, 0, 62, 100
3, 299760, Note_on_c, 0, 62, 0
3, 299760, Note_on_c, 0, 50, 0
3, 299760, Note_on_c, 0, 60, 100
3, 299820, Note_on_c, 0, 48, 100
3, 299880, Note_on_c, 0, 48, 0
3, 299880, Note_on_c, 0, 46, 100
3, 299940, Note_on_c, 0, 46, 0
3, 299940, Note_on_c, 0, 45, 100
3, 300000, Note_on_c, 0, 45, 0
3, 300000, Note_on_c, 0, 46, 100
3, 300060, Note_on_c, 0, 60, 0
3, 300060, Note_on_c, 0, 58, 100
3, 300120, Note_on_c, 0, 58, 0
3, 300120, Note_on_c, 0, 57, 100
3, 300180, Note_on_c, 0, 57, 0
3, 300180, Note_on_c, 0, 55, 100
3, 300240, Note_on_c, 0, 55, 0
3, 300240, Note_on_c, 0, 46, 0
3, 300240, Note_on_c, 0, 48, 100
3, 300240, Note_on_c, 0, 57, 100
3, 300300, Note_on_c, 0, 57, 0
3, 300300, Note_on_c, 0, 53, 100
3, 300360, Note_on_c, 0, 53, 0
3, 300360, Note_on_c, 0, 55, 100
3, 300420, Note_on_c, 0, 55, 0
3, 300420, Note_on_c, 0, 52, 100
3, 300480, Note_on_c, 0, 52, 0
3, 300480, Note_on_c, 0, 48, 0
3, 300480, Note_on_c, 0, 41, 100
3, 300540, Note_on_c, 0, 41, 0
3, 300540, Note_on_c, 0, 45, 100
3, 300600, Note_on_c, 0, 45, 0
3, 300600, Note_on_c, 0, 43, 100
3, 300660, Note_on_c, 0, 43, 0
3, 300660, Note_on_c, 0, 41, 100
3, 300720, Note_on_c, 0, 41, 0
3, 300720, Note_on_c, 0, 43, 100
3, 300780, Note_on_c, 0, 43, 0
3, 300780, Note_on_c, 0, 40, 100
3, 300840, Note_on_c, 0, 40, 0
3, 300840, Note_on_c, 0, 41, 100
3, 300900, Note_on_c, 0, 41, 0
3, 300900, Note_on_c, 0, 38, 100
3, 300960, Note_on_c, 0, 38, 0
3, 300960, Note_on_c, 0, 45, 100
3, 301020, Note_on_c, 0, 45, 0
3, 301020, Note_on_c, 0, 55, 100
3, 301080, Note_on_c, 0, 55, 0
3, 301080, Note_on_c, 0, 53, 100
3, 301140, Note_on_c, 0, 53, 0
3, 301140, Note_on_c, 0, 52, 100
3, 301200, Note_on_c, 0, 52, 0
3, 301200, Note_on_c, 0, 53, 100
3, 301260, Note_on_c, 0, 53, 0
3, 301260, Note_on_c, 0, 50, 100
3, 301320, Note_on_c, 0, 50, 0
3, 301320, Note_on_c, 0, 52, 100
3, 301380, Note_on_c, 0, 52, 0
3, 301380, Note_on_c, 0, 49, 100
3, 301440, Note_on_c, 0, 49, 0
3, 301440, Note_on_c, 0, 46, 100
3, 301560, Note_on_c, 0, 48, 100
3, 301680, Note_on_c, 0, 48, 0
3, 301680, Note_on_c, 0, 51, 100
3, 301800, Note_on_c, 0, 51, 0
3, 301800, Note_on_c, 0, 52, 100
3, 301920, Note_on_c, 0, 46, 0
3, 301920, Note_on_c, 0, 49, 100
3, 301980, Note_on_c, 0, 52, 0
3, 302040, Note_on_c, 0, 49, 0
3, 302040, Note_on_c, 0, 57, 100
3, 302160, Note_on_c, 0, 57, 0
3, 302160, Note_on_c, 0, 50, 100
3, 302280, Note_on_c, 0, 50, 0
3, 302280, Note_on_c, 0, 53, 100
3, 302400, Note_on_c, 0, 53, 0
3, 302400, Note_on_c, 0, 46, 100
3, 302520, Note_on_c, 0, 46, 0
3, 302520, Note_on_c, 0, 45, 100
3, 302640, Note_on_c, 0, 45, 0
3, 302640, Note_on_c, 0, 46, 100
3, 302760, Note_on_c, 0, 46, 0
3, 302760, Note_on_c, 0, 43, 100
3, 302880, Note_on_c, 0, 43, 0
3, 302880, Note_on_c, 0, 45, 100
3, 302940, Note_on_c, 0, 45, 0
3, 302940, Note_on_c, 0, 57, 100
3, 303000, Note_on_c, 0, 57, 0
3, 303000, Note_on_c, 0, 55, 100
3, 303060, Note_on_c, 0, 55, 0
3, 303060, Note_on_c, 0, 53, 100
3, 303120, Note_on_c, 0, 53, 0
3, 303120, Note_on_c, 0, 55, 100
3, 303180, Note_on_c, 0, 55, 0
3, 303180, Note_on_c, 0, 52, 100
3, 303240, Note_on_c, 0, 52, 0
3, 303240, Note_on_c, 0, 53, 100
3, 303300, Note_on_c, 0, 53, 0
3, 303300, Note_on_c, 0, 50, 100
3, 303360, Note_on_c, 0, 50, 0
3, 303360, Note_on_c, 0, 52, 100
3, 303600, Note_on_c, 0, 52, 0
3, 303600, Note_on_c, 0, 50, 100
3, 303720, Note_on_c, 0, 50, 0
3, 303720, Note_on_c, 0, 55, 100
3, 303840, Note_on_c, 0, 55, 0
3, 303840, Note_on_c, 0, 49, 100
3, 303960, Note_on_c, 0, 49, 0
3, 303960, Note_on_c, 0, 48, 100
3, 304080, Note_on_c, 0, 48, 0
3, 304080, Note_on_c, 0, 47, 100
3, 304200, Note_on_c, 0, 47, 0
3, 304200, Note_on_c, 0, 52, 100
3, 304320, Note_on_c, 0, 52, 0
3, 304320, Note_on_c, 0, 45, 100
3, 304560, Note_on_c, 0, 45, 0
3, 304680, Note_on_c, 0, 57, 100
3, 304740, Note_on_c, 0, 57, 0
3, 304740, Note_on_c, 0, 55, 100
3, 304800, Note_on_c, 0, 55, 0
3, 304800, Note_on_c, 0, 54, 100
3, 304800, Note_on_c, 0, 57, 100
3, 304920, Note_on_c, 0, 57, 0
3, 304920, Note_on_c, 0, 54, 0
3, 304920, Note_on_c, 0, 50, 100
3, 304920, Note_on_c, 0, 54, 100
3, 305040, Note_on_c, 0, 54, 0
3, 305040, Note_on_c, 0, 50, 0
3, 305040, Note_on_c, 0, 52, 100
3, 305040, Note_on_c, 0, 55, 100
3, 305160, Note_on_c, 0, 55, 0
3, 305160, Note_on_c, 0, 52, 0
3, 305160, Note_on_c, 0, 54, 100
3, 305160, Note_on_c, 0, 57, 100
3, 305280, Note_on_c, 0, 54, 0
3, 305280, Note_on_c, 0, 43, 100
3, 305340, Note_on_c, 0, 57, 0
3, 305400, Note_on_c, 0, 43, 0
3, 305400, Note_on_c, 0, 45, 100
3, 305520, Note_on_c, 0, 45, 0
3, 305520, Note_on_c, 0, 46, 100
3, 305640, Note_on_c, 0, 46, 0
3, 305640, Note_on_c, 0, 43, 100
3, 305760, Note_on_c, 0, 43, 0
3, 305760, Note_on_c, 0, 48, 100
3, 305880, Note_on_c, 0, 48, 0
3, 305880, Note_on_c, 0, 50, 100
3, 306000, Note_on_c, 0, 50, 0
3, 306000, Note_on_c, 0, 52, 100
3, 306120, Note_on_c, 0, 52, 0
3, 306120, Note_on_c, 0, 48, 100
3, 306240, Note_on_c, 0, 48, 0
3, 306240, Note_on_c, 0, 41, 100
3, 306300, Note_on_c, 0, 41, 0
3, 306300, Note_on_c, 0, 55, 100
3, 306360, Note_on_c, 0, 55, 0
3, 306360, Note_on_c, 0, 53, 100
3, 306420, Note_on_c, 0, 53, 0
3, 306420, Note_on_c, 0, 52, 100
3, 306480, Note_on_c, 0, 52, 0
3, 306480, Note_on_c, 0, 53, 100
3, 306540, Note_on_c, 0, 53, 0
3, 306540, Note_on_c, 0, 50, 100
3, 306600, Note_on_c, 0, 50, 0
3, 306600, Note_on_c, 0, 52, 100
3, 306660, Note_on_c, 0, 52, 0
3, 306660, Note_on_c, 0, 49, 100
3, 306720, Note_on_c, 0, 49, 0
3, 306720, Note_on_c, 0, 50, 100
3, 306780, Note_on_c, 0, 50, 0
3, 306780, Note_on_c, 0, 51, 100
3, 306840, Note_on_c, 0, 51, 0
3, 306840, Note_on_c, 0, 50, 100
3, 306900, Note_on_c, 0, 50, 0
3, 306900, Note_on_c, 0, 48, 100
3, 306960, Note_on_c, 0, 48, 0
3, 306960, Note_on_c, 0, 50, 100
3, 307020, Note_on_c, 0, 50, 0
3, 307020, Note_on_c, 0, 46, 100
3, 307080, Note_on_c, 0, 46, 0
3, 307080, Note_on_c, 0, 48, 100
3, 307140, Note_on_c, 0, 48, 0
3, 307140, Note_on_c, 0, 45, 100
3, 307200, Note_on_c, 0, 45, 0
3, 307200, Note_on_c, 0, 46, 100
3, 307200, Note_on_c, 0, 53, 100
3, 307260, Note_on_c, 0, 46, 0
3, 307260, Note_on_c, 0, 48, 100
3, 307320, Note_on_c, 0, 48, 0
3, 307320, Note_on_c, 0, 53, 0
3, 307320, Note_on_c, 0, 46, 100
3, 307320, Note_on_c, 0, 62, 100
3, 307380, Note_on_c, 0, 46, 0
3, 307380, Note_on_c, 0, 45, 100
3, 307440, Note_on_c, 0, 45, 0
3, 307440, Note_on_c, 0, 62, 0
3, 307440, Note_on_c, 0, 46, 100
3, 307500, Note_on_c, 0, 46, 0
3, 307500, Note_on_c, 0, 52, 100
3, 307500, Note_on_c, 0, 43, 100
3, 307560, Note_on_c, 0, 43, 0
3, 307560, Note_on_c, 0, 52, 0
3, 307560, Note_on_c, 0, 54, 100
3, 307560, Note_on_c, 0, 45, 100
3, 307620, Note_on_c, 0, 45, 0
3, 307620, Note_on_c, 0, 54, 0
3, 307620, Note_on_c, 0, 55, 100
3, 307620, Note_on_c, 0, 42, 100
3, 307680, Note_on_c, 0, 42, 0
3, 307680, Note_on_c, 0, 55, 0
3, 307680, Note_on_c, 0, 50, 100
3, 307680, Note_on_c, 0, 43, 100
3, 307800, Note_on_c, 0, 50, 0
3, 307800, Note_on_c, 0, 54, 100
3, 307920, Note_on_c, 0, 54, 0
3, 307920, Note_on_c, 0, 55, 100
3, 308040, Note_on_c, 0, 55, 0
3, 308040, Note_on_c, 0, 57, 100
3, 308160, Note_on_c, 0, 57, 0
3, 308160, Note_on_c, 0, 58, 100
3, 308280, Note_on_c, 0, 58, 0
3, 308280, Note_on_c, 0, 57, 100
3, 308400, Note_on_c, 0, 57, 0
3, 308400, Note_on_c, 0, 58, 100
3, 308520, Note_on_c, 0, 58, 0
3, 308700, Note_on_c, 0, 43, 0
3, 308700, Note_on_c, 0, 45, 100
3, 308760, Note_on_c, 0, 45, 0
3, 308760, Note_on_c, 0, 43, 100
3, 308820, Note_on_c, 0, 43, 0
3, 308820, Note_on_c, 0, 41, 100
3, 308880, Note_on_c, 0, 41, 0
3, 308880, Note_on_c, 0, 43, 100
3, 308940, Note_on_c, 0, 43, 0
3, 308940, Note_on_c, 0, 40, 100
3, 309000, Note_on_c, 0, 40, 0
3, 309000, Note_on_c, 0, 41, 100
3, 309060, Note_on_c, 0, 41, 0
3, 309060, Note_on_c, 0, 38, 100
3, 309120, Note_on_c, 0, 38, 0
3, 309120, Note_on_c, 0, 37, 100
3, 309180, Note_on_c, 0, 37, 0
3, 309180, Note_on_c, 0, 46, 100
3, 309240, Note_on_c, 0, 46, 0
3, 309240, Note_on_c, 0, 45, 100
3, 309300, Note_on_c, 0, 45, 0
3, 309300, Note_on_c, 0, 43, 100
3, 309360, Note_on_c, 0, 43, 0
3, 309360, Note_on_c, 0, 45, 100
3, 309420, Note_on_c, 0, 45, 0
3, 309420, Note_on_c, 0, 41, 100
3, 309480, Note_on_c, 0, 41, 0
3, 309480, Note_on_c, 0, 43, 100
3, 309540, Note_on_c, 0, 43, 0
3, 309540, Note_on_c, 0, 40, 100
3, 309600, Note_on_c, 0, 40, 0
3, 309600, Note_on_c, 0, 41, 100
3, 309720, Note_on_c, 0, 41, 0
3, 309720, Note_on_c, 0, 45, 100
3, 309720, Note_on_c, 0, 49, 100
3, 309840, Note_on_c, 0, 49, 0
3, 309840, Note_on_c, 0, 45, 0
3, 309840, Note_on_c, 0, 50, 100
3, 309960, Note_on_c, 0, 58, 100
3, 310080, Note_on_c, 0, 58, 0
3, 310080, Note_on_c, 0, 50, 0
3, 310080, Note_on_c, 0, 48, 100
3, 310080, Note_on_c, 0, 52, 100
3, 310200, Note_on_c, 0, 52, 0
3, 310200, Note_on_c, 0, 48, 0
3, 310200, Note_on_c, 0, 57, 100
3, 310200, Note_on_c, 0, 53, 100
3, 310320, Note_on_c, 0, 53, 0
3, 310320, Note_on_c, 0, 47, 100
3, 310440, Note_on_c, 0, 47, 0
3, 310440, Note_on_c, 0, 57, 0
3, 310440, Note_on_c, 0, 55, 100
3, 310440, Note_on_c, 0, 46, 100
3, 310560, Note_on_c, 0, 46, 0
3, 310560, Note_on_c, 0, 55, 0
3, 310560, Note_on_c, 0, 45, 100
3, 310560, Note_on_c, 0, 48, 100
3, 310680, Note_on_c, 0, 48, 0
3, 310680, Note_on_c, 0, 45, 0
3, 310680, Note_on_c, 0, 53, 100
3, 310680, Note_on_c, 0, 50, 100
3, 310800, Note_on_c, 0, 50, 0
3, 310800, Note_on_c, 0, 43, 100
3, 310920, Note_on_c, 0, 53, 0
3, 310920, Note_on_c, 0, 52, 100
3, 311040, Note_on_c, 0, 52, 0
3, 311040, Note_on_c, 0, 43, 0
3, 311040, Note_on_c, 0, 41, 100
3, 311040, Note_on_c, 0, 57, 100
3, 311160, Note_on_c, 0, 57, 0
3, 311160, Note_on_c, 0, 41, 0
3, 311160, Note_on_c, 0, 43, 100
3, 311280, Note_on_c, 0, 43, 0
3, 311280, Note_on_c, 0, 45, 100
3, 311340, Note_on_c, 0, 45, 0
3, 311340, Note_on_c, 0, 43, 100
3, 311400, Note_on_c, 0, 43, 0
3, 311400, Note_on_c, 0, 55, 100
3, 311400, Note_on_c, 0, 45, 100
3, 311520, Note_on_c, 0, 45, 0
3, 311520, Note_on_c, 0, 55, 0
3, 311520, Note_on_c, 0, 38, 100
3, 311520, Note_on_c, 0, 55, 100
3, 311640, Note_on_c, 0, 55, 0
3, 311640, Note_on_c, 0, 38, 0
3, 311640, Note_on_c, 0, 38, 100
3, 311640, Note_on_c, 0, 53, 100
3, 311760, Note_on_c, 0, 53, 0
3, 311760, Note_on_c, 0, 38, 0
3, 313020, Note_on_c, 0, 58, 100
3, 313080, Note_on_c, 0, 58, 0
3, 313080, Note_on_c, 0, 57, 100
3, 313140, Note_on_c, 0, 57, 0
3, 313140, Note_on_c, 0, 55, 100
3, 313200, Note_on_c, 0, 55, 0
3, 313200, Note_on_c, 0, 54, 100
3, 313260, Note_on_c, 0, 54, 0
3, 313260, Note_on_c, 0, 55, 100
3, 313320, Note_on_c, 0, 55, 0
3, 313320, Note_on_c, 0, 52, 100
3, 313380, Note_on_c, 0, 52, 0
3, 313380, Note_on_c, 0, 54, 100
3, 313440, Note_on_c, 0, 54, 0
3, 313440, Note_on_c, 0, 55, 100
3, 313560, Note_on_c, 0, 55, 0
3, 313560, Note_on_c, 0, 58, 100
3, 313560, Note_on_c, 0, 50, 100
3, 313620, Note_on_c, 0, 58, 0
3, 313620, Note_on_c, 0, 57, 100
3, 313680, Note_on_c, 0, 57, 0
3, 313680, Note_on_c, 0, 50, 0
3, 313680, Note_on_c, 0, 58, 100
3, 313680, Note_on_c, 0, 55, 100
3, 313740, Note_on_c, 0, 58, 0
3, 313740, Note_on_c, 0, 62, 100
3, 313800, Note_on_c, 0, 62, 0
3, 313800, Note_on_c, 0, 60, 100
3, 313860, Note_on_c, 0, 60, 0
3, 313860, Note_on_c, 0, 58, 100
3, 313920, Note_on_c, 0, 58, 0
3, 313920, Note_on_c, 0, 55, 0
3, 313920, Note_on_c, 0, 53, 100
3, 313920, Note_on_c, 0, 57, 100
3, 314040, Note_on_c, 0, 57, 0
3, 314040, Note_on_c, 0, 53, 0
3, 314040, Note_on_c, 0, 58, 100
3, 314160, Note_on_c, 0, 58, 0
3, 314160, Note_on_c, 0, 52, 100
3, 314280, Note_on_c, 0, 52, 0
3, 314280, Note_on_c, 0, 51, 100
3, 314400, Note_on_c, 0, 51, 0
3, 314400, Note_on_c, 0, 50, 100
3, 314520, Note_on_c, 0, 50, 0
3, 314520, Note_on_c, 0, 55, 100
3, 314640, Note_on_c, 0, 55, 0
3, 314640, Note_on_c, 0, 50, 100
3, 314655, Note_on_c, 0, 50, 0
3, 314655, Note_on_c, 0, 48, 100
3, 314670, Note_on_c, 0, 48, 0
3, 314670, Note_on_c, 0, 50, 100
3, 314685, Note_on_c, 0, 50, 0
3, 314685, Note_on_c, 0, 48, 100
3, 314700, Note_on_c, 0, 48, 0
3, 314700, Note_on_c, 0, 50, 100
3, 314715, Note_on_c, 0, 50, 0
3, 314715, Note_on_c, 0, 48, 100
3, 314730, Note_on_c, 0, 48, 0
3, 314730, Note_on_c, 0, 50, 100
3, 314745, Note_on_c, 0, 50, 0
3, 314745, Note_on_c, 0, 48, 100
3, 314760, Note_on_c, 0, 48, 0
3, 314760, Note_on_c, 0, 50, 100
3, 314775, Note_on_c, 0, 50, 0
3, 314775, Note_on_c, 0, 48, 100
3, 314790, Note_on_c, 0, 48, 0
3, 314790, Note_on_c, 0, 50, 100
3, 314805, Note_on_c, 0, 50, 0
3, 314805, Note_on_c, 0, 48, 100
3, 314820, Note_on_c, 0, 48, 0
3, 314820, Note_on_c, 0, 50, 100
3, 314835, Note_on_c, 0, 50, 0
3, 314835, Note_on_c, 0, 48, 100
3, 314850, Note_on_c, 0, 48, 0
3, 314850, Note_on_c, 0, 46, 100
3, 314865, Note_on_c, 0, 46, 0
3, 314865, Note_on_c, 0, 48, 100
3, 314880, Note_on_c, 0, 48, 0
3, 314880, Note_on_c, 0, 46, 100
3, 315000, Note_on_c, 0, 46, 0
3, 315000, Note_on_c, 0, 48, 100
3, 315120, Note_on_c, 0, 48, 0
3, 315120, Note_on_c, 0, 50, 100
3, 315180, Note_on_c, 0, 50, 0
3, 315180, Note_on_c, 0, 48, 100
3, 315240, Note_on_c, 0, 48, 0
3, 315240, Note_on_c, 0, 50, 100
3, 315360, Note_on_c, 0, 50, 0
3, 315360, Note_on_c, 0, 43, 100
3, 315600, Note_on_c, 0, 43, 0
3, 315720, Note_on_c, 0, 58, 100
3, 315720, Note_on_c, 0, 55, 100
3, 315840, Note_on_c, 0, 55, 0
3, 315840, Note_on_c, 0, 48, 100
3, 315900, Note_on_c, 0, 58, 0
3, 315900, Note_on_c, 0, 57, 100
3, 315960, Note_on_c, 0, 57, 0
3, 315960, Note_on_c, 0, 55, 100
3, 316020, Note_on_c, 0, 55, 0
3, 316020, Note_on_c, 0, 53, 100
3, 316080, Note_on_c, 0, 53, 0
3, 316080, Note_on_c, 0, 48, 0
3, 316080, Note_on_c, 0, 52, 100
3, 316140, Note_on_c, 0, 52, 0
3, 316140, Note_on_c, 0, 53, 100
3, 316200, Note_on_c, 0, 53, 0
3, 316200, Note_on_c, 0, 50, 100
3, 316200, Note_on_c, 0, 48, 100
3, 316260, Note_on_c, 0, 50, 0
3, 316260, Note_on_c, 0, 52, 100
3, 316320, Note_on_c, 0, 52, 0
3, 316320, Note_on_c, 0, 48, 0
3, 316320, Note_on_c, 0, 41, 100
3, 316320, Note_on_c, 0, 53, 100
3, 316440, Note_on_c, 0, 53, 0
3, 316560, Note_on_c, 0, 41, 0
3, 316680, Note_on_c, 0, 53, 100
3, 316860, Note_on_c, 0, 53, 0
3, 316860, Note_on_c, 0, 51, 100
3, 316920, Note_on_c, 0, 51, 0
3, 316920, Note_on_c, 0, 52, 100
3, 316980, Note_on_c, 0, 52, 0
3, 316980, Note_on_c, 0, 52, 100
3, 317040, Note_on_c, 0, 52, 0
3, 317040, Note_on_c, 0, 52, 100
3, 317100, Note_on_c, 0, 52, 0
3, 317100, Note_on_c, 0, 49, 100
3, 317160, Note_on_c, 0, 49, 0
3, 317160, Note_on_c, 0, 50, 100
3, 317220, Note_on_c, 0, 50, 0
3, 317220, Note_on_c, 0, 50, 100
3, 317280, Note_on_c, 0, 50, 0
3, 317280, Note_on_c, 0, 50, 100
3, 317340, Note_on_c, 0, 50, 0
3, 317340, Note_on_c, 0, 47, 100
3, 317400, Note_on_c, 0, 47, 0
3, 317400, Note_on_c, 0, 48, 100
3, 317460, Note_on_c, 0, 48, 0
3, 317460, Note_on_c, 0, 48, 100
3, 317520, Note_on_c, 0, 48, 0
3, 317520, Note_on_c, 0, 48, 100
3, 317580, Note_on_c, 0, 48, 0
3, 317580, Note_on_c, 0, 47, 100
3, 317640, Note_on_c, 0, 47, 0
3, 317640, Note_on_c, 0, 45, 100
3, 317700, Note_on_c, 0, 45, 0
3, 317700, Note_on_c, 0, 44, 100
3, 317760, Note_on_c, 0, 44, 0
3, 317760, Note_on_c, 0, 45, 100
3, 317760, Note_on_c, 0, 60, 100
3, 317880, Note_on_c, 0, 60, 0
3, 317880, Note_on_c, 0, 62, 100
3, 318000, Note_on_c, 0, 62, 0
3, 318000, Note_on_c, 0, 45, 0
3, 318000, Note_on_c, 0, 64, 100
3, 318060, Note_on_c, 0, 64, 0
3, 318060, Note_on_c, 0, 62, 100
3, 318120, Note_on_c, 0, 62, 0
3, 318120, Note_on_c, 0, 55, 100
3, 318120, Note_on_c, 0, 64, 100
3, 318240, Note_on_c, 0, 64, 0
3, 318240, Note_on_c, 0, 57, 100
3, 318300, Note_on_c, 0, 55, 0
3, 318300, Note_on_c, 0, 53, 100
3, 318360, Note_on_c, 0, 53, 0
3, 318360, Note_on_c, 0, 52, 100
3, 318420, Note_on_c, 0, 52, 0
3, 318420, Note_on_c, 0, 50, 100
3, 318480, Note_on_c, 0, 50, 0
3, 318480, Note_on_c, 0, 57, 0
3, 318480, Note_on_c, 0, 49, 100
3, 318540, Note_on_c, 0, 49, 0
3, 318540, Note_on_c, 0, 50, 100
3, 318600, Note_on_c, 0, 50, 0
3, 318600, Note_on_c, 0, 55, 100
3, 318600, Note_on_c, 0, 47, 100
3, 318660, Note_on_c, 0, 47, 0
3, 318660, Note_on_c, 0, 48, 100
3, 318720, Note_on_c, 0, 48, 0
3, 318780, Note_on_c, 0, 55, 0
3, 318780, Note_on_c, 0, 53, 100
3, 318840, Note_on_c, 0, 53, 0
3, 318840, Note_on_c, 0, 55, 100
3, 318900, Note_on_c, 0, 55, 0
3, 318900, Note_on_c, 0, 57, 100
3, 318960, Note_on_c, 0, 57, 0
3, 318960, Note_on_c, 0, 58, 100
3, 319020, Note_on_c, 0, 58, 0
3, 319020, Note_on_c, 0, 57, 100
3, 319080, Note_on_c, 0, 57, 0
3, 319080, Note_on_c, 0, 52, 100
3, 319200, Note_on_c, 0, 52, 0
3, 319200, Note_on_c, 0, 53, 100
3, 319320, Note_on_c, 0, 53, 0
3, 319320, Note_on_c, 0, 41, 100
3, 319380, Note_on_c, 0, 41, 0
3, 319380, Note_on_c, 0, 43, 100
3, 319440, Note_on_c, 0, 43, 0
3, 319440, Note_on_c, 0, 45, 100
3, 319560, Note_on_c, 0, 45, 0
3, 319560, Note_on_c, 0, 47, 100
3, 319680, Note_on_c, 0, 47, 0
3, 319680, Note_on_c, 0, 48, 100
3, 319800, Note_on_c, 0, 48, 0
3, 319800, Note_on_c, 0, 46, 100
3, 319920, Note_on_c, 0, 46, 0
3, 319920, Note_on_c, 0, 45, 100
3, 320040, Note_on_c, 0, 45, 0
3, 320040, Note_on_c, 0, 54, 100
3, 320160, Note_on_c, 0, 54, 0
3, 320160, Note_on_c, 0, 43, 100
3, 320220, Note_on_c, 0, 43, 0
3, 320220, Note_on_c, 0, 53, 100
3, 320280, Note_on_c, 0, 53, 0
3, 320280, Note_on_c, 0, 52, 100
3, 320340, Note_on_c, 0, 52, 0
3, 320340, Note_on_c, 0, 50, 100
3, 320400, Note_on_c, 0, 50, 0
3, 320400, Note_on_c, 0, 49, 100
3, 320460, Note_on_c, 0, 49, 0
3, 320460, Note_on_c, 0, 50, 100
3, 320520, Note_on_c, 0, 50, 0
3, 320520, Note_on_c, 0, 47, 100
3, 320580, Note_on_c, 0, 47, 0
3, 320580, Note_on_c, 0, 49, 100
3, 320640, Note_on_c, 0, 49, 0
3, 320640, Note_on_c, 0, 50, 100
3, 320700, Note_on_c, 0, 50, 0
3, 320700, Note_on_c, 0, 52, 100
3, 320760, Note_on_c, 0, 52, 0
3, 320760, Note_on_c, 0, 53, 100
3, 320820, Note_on_c, 0, 53, 0
3, 320820, Note_on_c, 0, 55, 100
3, 320880, Note_on_c, 0, 55, 0
3, 320880, Note_on_c, 0, 57, 100
3, 320940, Note_on_c, 0, 57, 0
3, 320940, Note_on_c, 0, 55, 100
3, 321000, Note_on_c, 0, 55, 0
3, 321000, Note_on_c, 0, 58, 100
3, 321060, Note_on_c, 0, 58, 0
3, 321060, Note_on_c, 0, 57, 100
3, 321120, Note_on_c, 0, 57, 0
3, 321120, Note_on_c, 0, 55, 100
3, 321180, Note_on_c, 0, 55, 0
3, 321180, Note_on_c, 0, 53, 100
3, 321240, Note_on_c, 0, 53, 0
3, 321240, Note_on_c, 0, 57, 100
3, 321300, Note_on_c, 0, 57, 0
3, 321300, Note_on_c, 0, 55, 100
3, 321360, Note_on_c, 0, 55, 0
3, 321360, Note_on_c, 0, 53, 100
3, 321420, Note_on_c, 0, 53, 0
3, 321420, Note_on_c, 0, 52, 100
3, 321480, Note_on_c, 0, 52, 0
3, 321480, Note_on_c, 0, 55, 100
3, 321540, Note_on_c, 0, 55, 0
3, 321540, Note_on_c, 0, 53, 100
3, 321600, Note_on_c, 0, 53, 0
3, 321600, Note_on_c, 0, 52, 100
3, 321660, Note_on_c, 0, 52, 0
3, 321660, Note_on_c, 0, 53, 100
3, 321720, Note_on_c, 0, 53, 0
3, 321720, Note_on_c, 0, 55, 100
3, 321780, Note_on_c, 0, 55, 0
3, 321780, Note_on_c, 0, 57, 100
3, 321840, Note_on_c, 0, 57, 0
3, 321840, Note_on_c, 0, 58, 100
3, 321900, Note_on_c, 0, 58, 0
3, 321900, Note_on_c, 0, 57, 100
3, 321960, Note_on_c, 0, 57, 0
3, 321960, Note_on_c, 0, 60, 100
3, 322020, Note_on_c, 0, 60, 0
3, 322020, Note_on_c, 0, 58, 100
3, 322080, Note_on_c, 0, 58, 0
3, 322080, Note_on_c, 0, 57, 100
3, 322140, Note_on_c, 0, 57, 0
3, 322140, Note_on_c, 0, 55, 100
3, 322200, Note_on_c, 0, 55, 0
3, 322200, Note_on_c, 0, 53, 100
3, 322260, Note_on_c, 0, 53, 0
3, 322260, Note_on_c, 0, 52, 100
3, 322320, Note_on_c, 0, 52, 0
3, 322320, Note_on_c, 0, 50, 100
3, 322380, Note_on_c, 0, 50, 0
3, 322380, Note_on_c, 0, 57, 100
3, 322440, Note_on_c, 0, 57, 0
3, 322440, Note_on_c, 0, 48, 100
3, 322500, Note_on_c, 0, 48, 0
3, 322500, Note_on_c, 0, 47, 100
3, 322560, Note_on_c, 0, 47, 0
3, 322560, Note_on_c, 0, 48, 100
3, 323280, Note_on_c, 0, 48, 0
3, 323400, Note_on_c, 0, 49, 100
3, 323520, Note_on_c, 0, 49, 0
3, 323520, Note_on_c, 0, 50, 100
3, 323580, Note_on_c, 0, 50, 0
3, 323580, Note_on_c, 0, 62, 100
3, 323640, Note_on_c, 0, 62, 0
3, 323640, Note_on_c, 0, 60, 100
3, 323700, Note_on_c, 0, 60, 0
3, 323700, Note_on_c, 0, 58, 100
3, 323760, Note_on_c, 0, 58, 0
3, 323760, Note_on_c, 0, 57, 100
3, 323820, Note_on_c, 0, 57, 0
3, 323820, Note_on_c, 0, 58, 100
3, 323880, Note_on_c, 0, 58, 0
3, 323880, Note_on_c, 0, 55, 100
3, 323940, Note_on_c, 0, 55, 0
3, 323940, Note_on_c, 0, 57, 100
3, 324000, Note_on_c, 0, 57, 0
3, 324000, Note_on_c, 0, 58, 100
3, 324060, Note_on_c, 0, 58, 0
3, 324060, Note_on_c, 0, 57, 100
3, 324120, Note_on_c, 0, 57, 0
3, 324120, Note_on_c, 0, 55, 100
3, 324180, Note_on_c, 0, 55, 0
3, 324180, Note_on_c, 0, 53, 100
3, 324240, Note_on_c, 0, 53, 0
3, 324240, Note_on_c, 0, 52, 100
3, 324300, Note_on_c, 0, 52, 0
3, 324300, Note_on_c, 0, 53, 100
3, 324360, Note_on_c, 0, 53, 0
3, 324360, Note_on_c, 0, 50, 100
3, 324420, Note_on_c, 0, 50, 0
3, 324420, Note_on_c, 0, 52, 100
3, 324480, Note_on_c, 0, 52, 0
3, 324480, Note_on_c, 0, 53, 100
3, 324540, Note_on_c, 0, 53, 0
3, 324540, Note_on_c, 0, 52, 100
3, 324600, Note_on_c, 0, 52, 0
3, 324600, Note_on_c, 0, 50, 100
3, 324660, Note_on_c, 0, 50, 0
3, 324660, Note_on_c, 0, 48, 100
3, 324720, Note_on_c, 0, 48, 0
3, 324720, Note_on_c, 0, 47, 100
3, 324780, Note_on_c, 0, 47, 0
3, 324780, Note_on_c, 0, 48, 100
3, 324840, Note_on_c, 0, 48, 0
3, 324840, Note_on_c, 0, 45, 100
3, 324900, Note_on_c, 0, 45, 0
3, 324900, Note_on_c, 0, 47, 100
3, 324960, Note_on_c, 0, 47, 0
3, 324960, Note_on_c, 0, 48, 100
3, 325020, Note_on_c, 0, 48, 0
3, 325020, Note_on_c, 0, 50, 100
3, 325080, Note_on_c, 0, 50, 0
3, 325080, Note_on_c, 0, 52, 100
3, 325140, Note_on_c, 0, 52, 0
3, 325140, Note_on_c, 0, 53, 100
3, 325200, Note_on_c, 0, 53, 0
3, 325200, Note_on_c, 0, 55, 100
3, 325260, Note_on_c, 0, 55, 0
3, 325260, Note_on_c, 0, 57, 100
3, 325320, Note_on_c, 0, 57, 0
3, 325320, Note_on_c, 0, 58, 100
3, 325320, Note_on_c, 0, 62, 100
3, 325380, Note_on_c, 0, 58, 0
3, 325380, Note_on_c, 0, 55, 100
3, 325440, Note_on_c, 0, 55, 0
3, 325440, Note_on_c, 0, 62, 0
3, 325440, Note_on_c, 0, 57, 100
3, 325440, Note_on_c, 0, 60, 100
3, 325560, Note_on_c, 0, 60, 0
3, 325560, Note_on_c, 0, 57, 0
3, 325560, Note_on_c, 0, 62, 100
3, 325680, Note_on_c, 0, 62, 0
3, 325680, Note_on_c, 0, 55, 100
3, 325800, Note_on_c, 0, 55, 0
3, 325800, Note_on_c, 0, 58, 100
3, 325800, Note_on_c, 0, 54, 100
3, 325920, Note_on_c, 0, 54, 0
3, 325920, Note_on_c, 0, 58, 0
3, 325920, Note_on_c, 0, 53, 100
3, 325920, Note_on_c, 0, 57, 100
3, 326040, Note_on_c, 0, 57, 0
3, 326040, Note_on_c, 0, 53, 0
3, 326040, Note_on_c, 0, 58, 100
3, 326160, Note_on_c, 0, 58, 0
3, 326160, Note_on_c, 0, 51, 100
3, 326280, Note_on_c, 0, 55, 100
3, 326400, Note_on_c, 0, 55, 0
3, 326400, Note_on_c, 0, 51, 0
3, 326400, Note_on_c, 0, 50, 100
3, 326520, Note_on_c, 0, 50, 0
3, 326520, Note_on_c, 0, 51, 100
3, 326640, Note_on_c, 0, 51, 0
3, 326640, Note_on_c, 0, 53, 100
3, 326700, Note_on_c, 0, 53, 0
3, 326700, Note_on_c, 0, 52, 100
3, 326760, Note_on_c, 0, 52, 0
3, 326760, Note_on_c, 0, 53, 100
3, 326880, Note_on_c, 0, 53, 0
3, 326880, Note_on_c, 0, 46, 100
3, 327000, Note_on_c, 0, 46, 0
3, 327000, Note_on_c, 0, 58, 100
3, 327240, Note_on_c, 0, 58, 0
3, 327240, Note_on_c, 0, 57, 100
3, 327360, Note_on_c, 0, 57, 0
3, 327360, Note_on_c, 0, 58, 100
3, 327420, Note_on_c, 0, 58, 0
3, 327420, Note_on_c, 0, 55, 100
3, 327480, Note_on_c, 0, 55, 0
3, 327480, Note_on_c, 0, 57, 100
3, 327540, Note_on_c, 0, 57, 0
3, 327540, Note_on_c, 0, 58, 100
3, 327600, Note_on_c, 0, 58, 0
3, 327600, Note_on_c, 0, 60, 100
3, 327660, Note_on_c, 0, 60, 0
3, 327660, Note_on_c, 0, 58, 100
3, 327720, Note_on_c, 0, 58, 0
3, 327720, Note_on_c, 0, 62, 100
3, 327780, Note_on_c, 0, 62, 0
3, 327780, Note_on_c, 0, 60, 100
3, 327840, Note_on_c, 0, 60, 0
3, 327840, Note_on_c, 0, 58, 100
3, 327840, Note_on_c, 0, 62, 100
3, 327960, Note_on_c, 0, 62, 0
3, 327960, Note_on_c, 0, 58, 0
3, 327960, Note_on_c, 0, 67, 100
3, 327960, Note_on_c, 0, 63, 100
3, 328080, Note_on_c, 0, 63, 0
3, 328080, Note_on_c, 0, 60, 100
3, 328200, Note_on_c, 0, 60, 0
3, 328200, Note_on_c, 0, 67, 0
3, 328200, Note_on_c, 0, 62, 100
3, 328320, Note_on_c, 0, 62, 0
3, 328320, Note_on_c, 0, 55, 100
3, 328440, Note_on_c, 0, 55, 0
3, 328440, Note_on_c, 0, 51, 100
3, 328560, Note_on_c, 0, 51, 0
3, 328560, Note_on_c, 0, 49, 100
3, 328680, Note_on_c, 0, 49, 0
3, 328680, Note_on_c, 0, 50, 100
3, 328800, Note_on_c, 0, 50, 0
3, 328800, Note_on_c, 0, 47, 100
3, 328920, Note_on_c, 0, 47, 0
3, 328920, Note_on_c, 0, 48, 100
3, 329040, Note_on_c, 0, 48, 0
3, 329040, Note_on_c, 0, 45, 100
3, 329160, Note_on_c, 0, 45, 0
3, 329160, Note_on_c, 0, 46, 100
3, 329280, Note_on_c, 0, 46, 0
3, 329280, Note_on_c, 0, 43, 100
3, 329400, Note_on_c, 0, 43, 0
3, 329400, Note_on_c, 0, 44, 100
3, 329520, Note_on_c, 0, 44, 0
3, 329520, Note_on_c, 0, 42, 100
3, 329640, Note_on_c, 0, 42, 0
3, 329640, Note_on_c, 0, 43, 100
3, 329820, Note_on_c, 0, 43, 0
3, 329820, Note_on_c, 0, 40, 100
3, 329880, Note_on_c, 0, 40, 0
3, 329880, Note_on_c, 0, 41, 100
3, 329940, Note_on_c, 0, 41, 0
3, 329940, Note_on_c, 0, 41, 100
3, 330000, Note_on_c, 0, 41, 0
3, 330000, Note_on_c, 0, 41, 100
3, 330060, Note_on_c, 0, 41, 0
3, 330060, Note_on_c, 0, 38, 100
3, 330120, Note_on_c, 0, 38, 0
3, 330120, Note_on_c, 0, 40, 100
3, 330180, Note_on_c, 0, 40, 0
3, 330180, Note_on_c, 0, 40, 100
3, 330240, Note_on_c, 0, 40, 0
3, 330240, Note_on_c, 0, 38, 100
3, 330360, Note_on_c, 0, 38, 0
3, 330540, Note_on_c, 0, 59, 100
3, 330600, Note_on_c, 0, 59, 0
3, 330600, Note_on_c, 0, 60, 100
3, 330660, Note_on_c, 0, 60, 0
3, 330660, Note_on_c, 0, 60, 100
3, 330720, Note_on_c, 0, 60, 0
3, 330720, Note_on_c, 0, 60, 100
3, 330780, Note_on_c, 0, 60, 0
3, 330780, Note_on_c, 0, 57, 100
3, 330840, Note_on_c, 0, 57, 0
3, 330840, Note_on_c, 0, 55, 100
3, 330840, Note_on_c, 0, 58, 100
3, 330900, Note_on_c, 0, 58, 0
3, 330900, Note_on_c, 0, 58, 100
3, 330960, Note_on_c, 0, 58, 0
3, 330960, Note_on_c, 0, 57, 100
3, 331020, Note_on_c, 0, 55, 0
3, 331020, Note_on_c, 0, 52, 100
3, 331080, Note_on_c, 0, 52, 0
3, 331080, Note_on_c, 0, 57, 0
3, 331080, Note_on_c, 0, 53, 100
3, 331140, Note_on_c, 0, 53, 0
3, 331140, Note_on_c, 0, 53, 100
3, 331200, Note_on_c, 0, 53, 0
3, 331200, Note_on_c, 0, 53, 100
3, 331260, Note_on_c, 0, 53, 0
3, 331260, Note_on_c, 0, 51, 100
3, 331320, Note_on_c, 0, 51, 0
3, 331320, Note_on_c, 0, 52, 100
3, 331380, Note_on_c, 0, 52, 0
3, 331380, Note_on_c, 0, 52, 100
3, 331440, Note_on_c, 0, 52, 0
3, 331440, Note_on_c, 0, 52, 100
3, 331500, Note_on_c, 0, 52, 0
3, 331500, Note_on_c, 0, 49, 100
3, 331560, Note_on_c, 0, 49, 0
3, 331560, Note_on_c, 0, 50, 100
3, 331620, Note_on_c, 0, 50, 0
3, 331620, Note_on_c, 0, 50, 100
3, 331680, Note_on_c, 0, 50, 0
3, 331680, Note_on_c, 0, 50, 100
3, 331740, Note_on_c, 0, 50, 0
3, 331740, Note_on_c, 0, 47, 100
3, 331800, Note_on_c, 0, 47, 0
3, 331800, Note_on_c, 0, 48, 100
3, 331860, Note_on_c, 0, 48, 0
3, 331860, Note_on_c, 0, 48, 100
3, 331920, Note_on_c, 0, 48, 0
3, 331920, Note_on_c, 0, 48, 100
3, 331980, Note_on_c, 0, 48, 0
3, 331980, Note_on_c, 0, 47, 100
3, 332040, Note_on_c, 0, 47, 0
3, 332040, Note_on_c, 0, 45, 100
3, 332100, Note_on_c, 0, 45, 0
3, 332100, Note_on_c, 0, 44, 100
3, 332160, Note_on_c, 0, 44, 0
3, 332160, Note_on_c, 0, 45, 100
3, 332400, Note_on_c, 0, 45, 0
3, 332520, Note_on_c, 0, 50, 100
3, 332640, Note_on_c, 0, 50, 0
3, 332640, Note_on_c, 0, 49, 100
3, 332760, Note_on_c, 0, 49, 0
3, 332760, Note_on_c, 0, 48, 100
3, 332880, Note_on_c, 0, 48, 0
3, 332880, Note_on_c, 0, 47, 100
3, 333000, Note_on_c, 0, 47, 0
3, 333000, Note_on_c, 0, 48, 100
3, 333180, Note_on_c, 0, 48, 0
3, 333180, Note_on_c, 0, 46, 100
3, 333240, Note_on_c, 0, 46, 0
3, 333240, Note_on_c, 0, 45, 100
3, 333300, Note_on_c, 0, 45, 0
3, 333300, Note_on_c, 0, 43, 100
3, 333360, Note_on_c, 0, 43, 0
3, 333360, Note_on_c, 0, 42, 100
3, 333420, Note_on_c, 0, 42, 0
3, 333420, Note_on_c, 0, 43, 100
3, 333480, Note_on_c, 0, 43, 0
3, 333480, Note_on_c, 0, 40, 100
3, 333540, Note_on_c, 0, 40, 0
3, 333540, Note_on_c, 0, 41, 100
3, 333600, Note_on_c, 0, 41, 0
3, 333600, Note_on_c, 0, 43, 100
3, 333720, Note_on_c, 0, 43, 0
3, 333720, Note_on_c, 0, 55, 100
3, 333720, Note_on_c, 0, 58, 100
3, 333840, Note_on_c, 0, 58, 0
3, 333840, Note_on_c, 0, 60, 100
3, 333960, Note_on_c, 0, 60, 0
3, 333960, Note_on_c, 0, 55, 0
3, 333960, Note_on_c, 0, 54, 100
3, 333960, Note_on_c, 0, 62, 100
3, 334080, Note_on_c, 0, 62, 0
3, 334080, Note_on_c, 0, 54, 0
3, 334080, Note_on_c, 0, 55, 100
3, 334200, Note_on_c, 0, 55, 0
3, 334200, Note_on_c, 0, 53, 100
3, 334200, Note_on_c, 0, 59, 100
3, 334320, Note_on_c, 0, 59, 0
3, 334320, Note_on_c, 0, 53, 0
3, 334320, Note_on_c, 0, 52, 100
3, 334320, Note_on_c, 0, 61, 100
3, 334440, Note_on_c, 0, 61, 0
3, 334440, Note_on_c, 0, 52, 0
3, 334440, Note_on_c, 0, 50, 100
3, 334440, Note_on_c, 0, 62, 100
3, 334560, Note_on_c, 0, 62, 0
3, 334560, Note_on_c, 0, 50, 0
3, 334560, Note_on_c, 0, 49, 100
3, 334560, Note_on_c, 0, 57, 100
3, 334620, Note_on_c, 0, 57, 0
3, 334620, Note_on_c, 0, 49, 0
3, 334620, Note_on_c, 0, 58, 100
3, 334680, Note_on_c, 0, 58, 0
3, 334680, Note_on_c, 0, 57, 100
3, 334740, Note_on_c, 0, 57, 0
3, 334740, Note_on_c, 0, 55, 100
3, 334800, Note_on_c, 0, 55, 0
3, 334800, Note_on_c, 0, 53, 100
3, 334860, Note_on_c, 0, 53, 0
3, 334860, Note_on_c, 0, 55, 100
3, 334920, Note_on_c, 0, 55, 0
3, 334920, Note_on_c, 0, 52, 100
3, 334980, Note_on_c, 0, 52, 0
3, 334980, Note_on_c, 0, 53, 100
3, 335040, Note_on_c, 0, 53, 0
3, 335040, Note_on_c, 0, 50, 100
3, 335100, Note_on_c, 0, 50, 0
3, 335100, Note_on_c, 0, 52, 100
3, 335160, Note_on_c, 0, 52, 0
3, 335160, Note_on_c, 0, 48, 100
3, 335220, Note_on_c, 0, 48, 0
3, 335220, Note_on_c, 0, 50, 100
3, 335280, Note_on_c, 0, 50, 0
3, 335280, Note_on_c, 0, 46, 100
3, 335340, Note_on_c, 0, 46, 0
3, 335340, Note_on_c, 0, 48, 100
3, 335400, Note_on_c, 0, 48, 0
3, 335400, Note_on_c, 0, 45, 100
3, 335460, Note_on_c, 0, 45, 0
3, 335460, Note_on_c, 0, 46, 100
3, 335520, Note_on_c, 0, 46, 0
3, 335520, Note_on_c, 0, 43, 100
3, 335640, Note_on_c, 0, 43, 0
3, 335640, Note_on_c, 0, 48, 100
3, 335760, Note_on_c, 0, 48, 0
3, 335760, Note_on_c, 0, 42, 100
3, 335880, Note_on_c, 0, 42, 0
3, 335880, Note_on_c, 0, 41, 100
3, 336000, Note_on_c, 0, 41, 0
3, 336000, Note_on_c, 0, 40, 100
3, 336120, Note_on_c, 0, 40, 0
3, 336120, Note_on_c, 0, 45, 100
3, 336240, Note_on_c, 0, 45, 0
3, 336240, Note_on_c, 0, 38, 100
3, 336360, Note_on_c, 0, 38, 0
3, 336360, Note_on_c, 0, 55, 100
3, 336390, Note_on_c, 0, 55, 0
3, 336390, Note_on_c, 0, 53, 100
3, 336420, Note_on_c, 0, 53, 0
3, 336420, Note_on_c, 0, 52, 100
3, 336450, Note_on_c, 0, 52, 0
3, 336450, Note_on_c, 0, 50, 100
3, 336480, Note_on_c, 0, 50, 0
3, 336480, Note_on_c, 0, 49, 100
3, 336510, Note_on_c, 0, 49, 0
3, 336510, Note_on_c, 0, 50, 100
3, 336540, Note_on_c, 0, 50, 0
3, 336540, Note_on_c, 0, 52, 100
3, 336570, Note_on_c, 0, 52, 0
3, 336570, Note_on_c, 0, 53, 100
3, 336600, Note_on_c, 0, 53, 0
3, 336600, Note_on_c, 0, 52, 100
3, 336630, Note_on_c, 0, 52, 0
3, 336630, Note_on_c, 0, 50, 100
3, 336660, Note_on_c, 0, 50, 0
3, 336660, Note_on_c, 0, 49, 100
3, 336690, Note_on_c, 0, 49, 0
3, 336690, Note_on_c, 0, 47, 100
3, 336720, Note_on_c, 0, 47, 0
3, 336720, Note_on_c, 0, 45, 100
3, 336750, Note_on_c, 0, 45, 0
3, 336750, Note_on_c, 0, 47, 100
3, 336780, Note_on_c, 0, 47, 0
3, 336780, Note_on_c, 0, 49, 100
3, 336810, Note_on_c, 0, 49, 0
3, 336810, Note_on_c, 0, 50, 100
3, 336840, Note_on_c, 0, 50, 0
3, 336840, Note_on_c, 0, 49, 100
3, 336870, Note_on_c, 0, 49, 0
3, 336870, Note_on_c, 0, 47, 100
3, 336900, Note_on_c, 0, 47, 0
3, 336900, Note_on_c, 0, 45, 100
3, 336930, Note_on_c, 0, 45, 0
3, 336930, Note_on_c, 0, 43, 100
3, 336960, Note_on_c, 0, 43, 0
3, 336960, Note_on_c, 0, 41, 100
3, 337080, Note_on_c, 0, 41, 0
3, 337110, Note_on_c, 0, 38, 100
3, 337140, Note_on_c, 0, 38, 0
3, 337140, Note_on_c, 0, 40, 100
3, 337155, Note_on_c, 0, 40, 0
3, 337155, Note_on_c, 0, 41, 100
3, 337170, Note_on_c, 0, 41, 0
3, 337170, Note_on_c, 0, 43, 100
3, 337185, Note_on_c, 0, 43, 0
3, 337185, Note_on_c, 0, 45, 100
3, 337200, Note_on_c, 0, 45, 0
3, 337200, Note_on_c, 0, 48, 100
3, 337215, Note_on_c, 0, 48, 0
3, 337215, Note_on_c, 0, 46, 100
3, 337230, Note_on_c, 0, 46, 0
3, 337230, Note_on_c, 0, 45, 100
3, 337245, Note_on_c, 0, 45, 0
3, 337245, Note_on_c, 0, 46, 100
3, 337260, Note_on_c, 0, 46, 0
3, 337260, Note_on_c, 0, 48, 100
3, 337275, Note_on_c, 0, 48, 0
3, 337275, Note_on_c, 0, 46, 100
3, 337290, Note_on_c, 0, 46, 0
3, 337290, Note_on_c, 0, 48, 100
3, 337305, Note_on_c, 0, 48, 0
3, 337305, Note_on_c, 0, 46, 100
3, 337320, Note_on_c, 0, 46, 0
3, 337320, Note_on_c, 0, 48, 100
3, 337335, Note_on_c, 0, 48, 0
3, 337335, Note_on_c, 0, 46, 100
3, 337350, Note_on_c, 0, 46, 0
3, 337350, Note_on_c, 0, 48, 100
3, 337365, Note_on_c, 0, 48, 0
3, 337365, Note_on_c, 0, 46, 100
3, 337380, Note_on_c, 0, 46, 0
3, 337380, Note_on_c, 0, 48, 100
3, 337395, Note_on_c, 0, 48, 0
3, 337395, Note_on_c, 0, 46, 100
3, 337410, Note_on_c, 0, 46, 0
3, 337410, Note_on_c, 0, 45, 100
3, 337425, Note_on_c, 0, 45, 0
3, 337425, Note_on_c, 0, 46, 100
3, 337440, Note_on_c, 0, 46, 0
3, 337440, Note_on_c, 0, 45, 100
3, 337500, Note_on_c, 0, 45, 0
3, 337500, Note_on_c, 0, 57, 100
3, 337560, Note_on_c, 0, 57, 0
3, 337560, Note_on_c, 0, 55, 100
3, 337620, Note_on_c, 0, 55, 0
3, 337620, Note_on_c, 0, 53, 100
3, 337680, Note_on_c, 0, 53, 0
3, 337680, Note_on_c, 0, 52, 100
3, 337740, Note_on_c, 0, 52, 0
3, 337740, Note_on_c, 0, 53, 100
3, 337800, Note_on_c, 0, 53, 0
3, 337800, Note_on_c, 0, 50, 100
3, 337860, Note_on_c, 0, 50, 0
3, 337860, Note_on_c, 0, 52, 100
3, 337920, Note_on_c, 0, 52, 0
3, 337920, Note_on_c, 0, 53, 100
3, 338160, Note_on_c, 0, 53, 0
3, 338220, Note_on_c, 0, 52, 100
3, 338280, Note_on_c, 0, 52, 0
3, 338280, Note_on_c, 0, 50, 100
3, 338340, Note_on_c, 0, 50, 0
3, 338340, Note_on_c, 0, 49, 100
3, 338400, Note_on_c, 0, 49, 0
3, 338400, Note_on_c, 0, 50, 100
3, 338640, Note_on_c, 0, 50, 0
3, 338700, Note_on_c, 0, 48, 100
3, 338760, Note_on_c, 0, 48, 0
3, 338760, Note_on_c, 0, 46, 100
3, 338820, Note_on_c, 0, 46, 0
3, 338820, Note_on_c, 0, 45, 100
3, 338880, Note_on_c, 0, 45, 0
3, 338880, Note_on_c, 0, 43, 100
3, 339000, Note_on_c, 0, 43, 0
3, 339000, Note_on_c, 0, 55, 100
3, 339120, Note_on_c, 0, 55, 0
3, 339120, Note_on_c, 0, 57, 100
3, 339240, Note_on_c, 0, 57, 0
3, 339240, Note_on_c, 0, 45, 100
3, 339360, Note_on_c, 0, 45, 0
3, 339360, Note_on_c, 0, 46, 100
3, 339600, Note_on_c, 0, 46, 0
3, 339660, Note_on_c, 0, 58, 100
3, 339720, Note_on_c, 0, 58, 0
3, 339720, Note_on_c, 0, 57, 100
3, 339780, Note_on_c, 0, 57, 0
3, 339780, Note_on_c, 0, 55, 100
3, 339840, Note_on_c, 0, 55, 0
3, 339840, Note_on_c, 0, 55, 100
3, 339900, Note_on_c, 0, 55, 0
3, 339900, Note_on_c, 0, 52, 100
3, 339960, Note_on_c, 0, 52, 0
3, 339960, Note_on_c, 0, 53, 100
3, 340020, Note_on_c, 0, 53, 0
3, 340020, Note_on_c, 0, 53, 100
3, 340080, Note_on_c, 0, 53, 0
3, 340080, Note_on_c, 0, 53, 100
3, 340140, Note_on_c, 0, 53, 0
3, 340140, Note_on_c, 0, 50, 100
3, 340200, Note_on_c, 0, 50, 0
3, 340200, Note_on_c, 0, 52, 100
3, 340260, Note_on_c, 0, 52, 0
3, 340260, Note_on_c, 0, 52, 100
3, 340320, Note_on_c, 0, 52, 0
3, 340320, Note_on_c, 0, 50, 100
3, 340440, Note_on_c, 0, 50, 0
3, 340440, Note_on_c, 0, 62, 100
3, 340560, Note_on_c, 0, 62, 0
3, 340560, Note_on_c, 0, 57, 100
3, 340680, Note_on_c, 0, 57, 0
3, 340680, Note_on_c, 0, 59, 100
3, 340800, Note_on_c, 0, 59, 0
3, 340800, Note_on_c, 0, 67, 100
3, 340920, Note_on_c, 0, 67, 0
3, 340920, Note_on_c, 0, 60, 100
3, 340920, Note_on_c, 0, 64, 100
3, 341040, Note_on_c, 0, 64, 0
3, 341040, Note_on_c, 0, 60, 0
3, 341040, Note_on_c, 0, 62, 100
3, 341160, Note_on_c, 0, 62, 0
3, 341160, Note_on_c, 0, 64, 100
3, 341280, Note_on_c, 0, 64, 0
3, 341400, Note_on_c, 0, 65, 100
3, 341520, Note_on_c, 0, 65, 0
3, 341520, Note_on_c, 0, 64, 100
3, 341640, Note_on_c, 0, 64, 0
3, 341640, Note_on_c, 0, 62, 100
3, 341760, Note_on_c, 0, 62, 0
3, 341880, Note_on_c, 0, 60, 100
3, 341940, Note_on_c, 0, 60, 0
3, 341940, Note_on_c, 0, 59, 100
3, 342000, Note_on_c, 0, 59, 0
3, 342000, Note_on_c, 0, 60, 100
3, 342120, Note_on_c, 0, 60, 0
3, 342120, Note_on_c, 0, 62, 100
3, 342240, Note_on_c, 0, 62, 0
3, 342240, Note_on_c, 0, 64, 100
3, 342840, Note_on_c, 0, 64, 0
3, 342840, Note_on_c, 0, 56, 100
3, 342900, Note_on_c, 0, 56, 0
3, 342900, Note_on_c, 0, 65, 100
3, 342960, Note_on_c, 0, 65, 0
3, 342960, Note_on_c, 0, 57, 100
3, 343020, Note_on_c, 0, 57, 0
3, 343020, Note_on_c, 0, 64, 100
3, 343080, Note_on_c, 0, 64, 0
3, 343080, Note_on_c, 0, 59, 100
3, 343140, Note_on_c, 0, 59, 0
3, 343140, Note_on_c, 0, 62, 100
3, 343200, Note_on_c, 0, 62, 0
3, 343200, Note_on_c, 0, 60, 100
3, 343260, Note_on_c, 0, 60, 0
3, 343260, Note_on_c, 0, 59, 100
3, 343320, Note_on_c, 0, 59, 0
3, 343320, Note_on_c, 0, 60, 100
3, 343500, Note_on_c, 0, 60, 0
3, 343500, Note_on_c, 0, 59, 100
3, 343560, Note_on_c, 0, 59, 0
3, 343560, Note_on_c, 0, 57, 100
3, 343620, Note_on_c, 0, 57, 0
3, 343620, Note_on_c, 0, 56, 100
3, 343680, Note_on_c, 0, 56, 0
3, 343680, Note_on_c, 0, 57, 100
3, 343860, Note_on_c, 0, 57, 0
3, 343860, Note_on_c, 0, 55, 100
3, 343920, Note_on_c, 0, 55, 0
3, 343920, Note_on_c, 0, 53, 100
3, 343980, Note_on_c, 0, 53, 0
3, 343980, Note_on_c, 0, 52, 100
3, 344040, Note_on_c, 0, 52, 0
3, 344040, Note_on_c, 0, 50, 100
3, 344100, Note_on_c, 0, 50, 0
3, 344100, Note_on_c, 0, 48, 100
3, 344160, Note_on_c, 0, 48, 0
3, 344160, Note_on_c, 0, 47, 100
3, 344280, Note_on_c, 0, 47, 0
3, 344280, Note_on_c, 0, 40, 100
3, 344400, Note_on_c, 0, 40, 0
3, 344400, Note_on_c, 0, 42, 100
3, 344520, Note_on_c, 0, 42, 0
3, 344520, Note_on_c, 0, 44, 100
3, 344640, Note_on_c, 0, 44, 0
3, 344640, Note_on_c, 0, 45, 100
3, 344820, Note_on_c, 0, 45, 0
3, 344820, Note_on_c, 0, 44, 100
3, 344880, Note_on_c, 0, 44, 0
3, 344880, Note_on_c, 0, 45, 100
3, 344940, Note_on_c, 0, 45, 0
3, 344940, Note_on_c, 0, 48, 100
3, 345000, Note_on_c, 0, 48, 0
3, 345000, Note_on_c, 0, 47, 100
3, 345060, Note_on_c, 0, 47, 0
3, 345060, Note_on_c, 0, 50, 100
3, 345120, Note_on_c, 0, 50, 0
3, 345120, Note_on_c, 0, 48, 100
3, 345360, Note_on_c, 0, 48, 0
3, 345480, Note_on_c, 0, 49, 100
3, 345600, Note_on_c, 0, 49, 0
3, 345600, Note_on_c, 0, 50, 100
3, 345720, Note_on_c, 0, 50, 0
3, 345720, Note_on_c, 0, 45, 100
3, 345840, Note_on_c, 0, 45, 0
3, 345840, Note_on_c, 0, 46, 100
3, 345960, Note_on_c, 0, 46, 0
3, 345960, Note_on_c, 0, 50, 100
3, 346080, Note_on_c, 0, 50, 0
3, 346080, Note_on_c, 0, 43, 100
3, 346140, Note_on_c, 0, 43, 0
3, 346140, Note_on_c, 0, 50, 100
3, 346200, Note_on_c, 0, 50, 0
3, 346200, Note_on_c, 0, 55, 100
3, 346260, Note_on_c, 0, 55, 0
3, 346260, Note_on_c, 0, 58, 100
3, 346320, Note_on_c, 0, 58, 0
3, 346320, Note_on_c, 0, 57, 100
3, 346380, Note_on_c, 0, 57, 0
3, 346380, Note_on_c, 0, 60, 100
3, 346440, Note_on_c, 0, 60, 0
3, 346440, Note_on_c, 0, 59, 100
3, 346500, Note_on_c, 0, 59, 0
3, 346500, Note_on_c, 0, 62, 100
3, 346560, Note_on_c, 0, 62, 0
3, 346560, Note_on_c, 0, 51, 100
3, 346620, Note_on_c, 0, 51, 0
3, 346620, Note_on_c, 0, 55, 100
3, 346680, Note_on_c, 0, 55, 0
3, 346680, Note_on_c, 0, 53, 100
3, 346740, Note_on_c, 0, 53, 0
3, 346740, Note_on_c, 0, 56, 100
3, 346800, Note_on_c, 0, 56, 0
3, 346800, Note_on_c, 0, 47, 100
3, 346860, Note_on_c, 0, 47, 0
3, 346860, Note_on_c, 0, 50, 100
3, 346920, Note_on_c, 0, 50, 0
3, 346920, Note_on_c, 0, 48, 100
3, 346980, Note_on_c, 0, 48, 0
3, 346980, Note_on_c, 0, 51, 100
3, 347040, Note_on_c, 0, 51, 0
3, 347040, Note_on_c, 0, 42, 100
3, 347100, Note_on_c, 0, 42, 0
3, 347100, Note_on_c, 0, 45, 100
3, 347160, Note_on_c, 0, 45, 0
3, 347160, Note_on_c, 0, 43, 100
3, 347220, Note_on_c, 0, 43, 0
3, 347220, Note_on_c, 0, 46, 100
3, 347280, Note_on_c, 0, 46, 0
3, 347280, Note_on_c, 0, 37, 100
3, 347520, Note_on_c, 0, 37, 0
3, 347520, Note_on_c, 0, 38, 100
3, 349080, Note_on_c, 0, 38, 0
3, 349080, Note_on_c, 0, 50, 100
3, 349140, Note_on_c, 0, 50, 0
3, 349140, Note_on_c, 0, 50, 100
3, 349200, Note_on_c, 0, 50, 0
3, 349200, Note_on_c, 0, 50, 100
3, 349260, Note_on_c, 0, 50, 0
3, 349260, Note_on_c, 0, 47, 100
3, 349320, Note_on_c, 0, 47, 0
3, 349320, Note_on_c, 0, 48, 100
3, 349380, Note_on_c, 0, 48, 0
3, 349380, Note_on_c, 0, 48, 100
3, 349440, Note_on_c, 0, 48, 0
3, 349440, Note_on_c, 0, 48, 100
3, 349500, Note_on_c, 0, 48, 0
3, 349500, Note_on_c, 0, 45, 100
3, 349560, Note_on_c, 0, 45, 0
3, 349560, Note_on_c, 0, 46, 100
3, 349620, Note_on_c, 0, 46, 0
3, 349620, Note_on_c, 0, 43, 100
3, 349680, Note_on_c, 0, 43, 0
3, 349680, Note_on_c, 0, 50, 100
3, 349800, Note_on_c, 0, 50, 0
3, 349800, Note_on_c, 0, 38, 100
3, 349920, Note_on_c, 0, 38, 0
3, 349920, Note_on_c, 0, 43, 100
3, 350040, Note_on_c, 0, 43, 0
3, 350040, Note_on_c, 0, 43, 100
3, 350070, Note_on_c, 0, 43, 0
3, 350070, Note_on_c, 0, 45, 100
3, 350100, Note_on_c, 0, 45, 0
3, 350100, Note_on_c, 0, 46, 100
3, 350130, Note_on_c, 0, 46, 0
3, 350130, Note_on_c, 0, 48, 100
3, 350160, Note_on_c, 0, 48, 0
3, 350160, Note_on_c, 0, 50, 100
3, 350280, Note_on_c, 0, 50, 0
3, 350280, Note_on_c, 0, 48, 100
3, 350310, Note_on_c, 0, 48, 0
3, 350310, Note_on_c, 0, 47, 100
3, 350340, Note_on_c, 0, 47, 0
3, 350340, Note_on_c, 0, 45, 100
3, 350370, Note_on_c, 0, 45, 0
3, 350370, Note_on_c, 0, 43, 100
3, 350400, Note_on_c, 0, 43, 0
3, 350400, Note_on_c, 0, 48, 100
3, 350520, Note_on_c, 0, 48, 0
3, 350520, Note_on_c, 0, 43, 100
3, 350550, Note_on_c, 0, 43, 0
3, 350550, Note_on_c, 0, 42, 100
3, 350580, Note_on_c, 0, 42, 0
3, 350580, Note_on_c, 0, 40, 100
3, 350610, Note_on_c, 0, 40, 0
3, 350610, Note_on_c, 0, 38, 100
3, 350640, Note_on_c, 0, 38, 0
3, 350640, Note_on_c, 0, 43, 100
3, 350760, Note_on_c, 0, 43, 0
3, 350760, Note_on_c, 0, 55, 100
3, 350790, Note_on_c, 0, 55, 0
3, 350790, Note_on_c, 0, 53, 100
3, 350820, Note_on_c, 0, 53, 0
3, 350820, Note_on_c, 0, 52, 100
3, 350850, Note_on_c, 0, 52, 0
3, 350850, Note_on_c, 0, 50, 100
3, 350880, Note_on_c, 0, 50, 0
3, 350880, Note_on_c, 0, 49, 100
3, 351000, Note_on_c, 0, 49, 0
3, 351000, Note_on_c, 0, 50, 100
3, 351030, Note_on_c, 0, 50, 0
3, 351030, Note_on_c, 0, 48, 100
3, 351060, Note_on_c, 0, 48, 0
3, 351060, Note_on_c, 0, 47, 100
3, 351090, Note_on_c, 0, 47, 0
3, 351090, Note_on_c, 0, 45, 100
3, 351120, Note_on_c, 0, 45, 0
3, 351120, Note_on_c, 0, 44, 100
3, 351240, Note_on_c, 0, 44, 0
3, 351240, Note_on_c, 0, 45, 100
3, 351270, Note_on_c, 0, 45, 0
3, 351270, Note_on_c, 0, 43, 100
3, 351300, Note_on_c, 0, 43, 0
3, 351300, Note_on_c, 0, 41, 100
3, 351330, Note_on_c, 0, 41, 0
3, 351330, Note_on_c, 0, 40, 100
3, 351360, Note_on_c, 0, 40, 0
3, 351360, Note_on_c, 0, 38, 100
3, 351480, Note_on_c, 0, 38, 0
3, 351480, Note_on_c, 0, 36, 100
3, 351600, Note_on_c, 0, 36, 0
3, 351600, Note_on_c, 0, 38, 100
3, 351720, Note_on_c, 0, 38, 0
3, 351720, Note_on_c, 0, 40, 100
3, 351840, Note_on_c, 0, 40, 0
3, 351840, Note_on_c, 0, 41, 100
3, 351960, Note_on_c, 0, 41, 0
3, 351960, Note_on_c, 0, 38, 100
3, 352080, Note_on_c, 0, 38, 0
3, 352080, Note_on_c, 0, 40, 100
3, 352200, Note_on_c, 0, 40, 0
3, 352200, Note_on_c, 0, 52, 100
3, 352320, Note_on_c, 0, 52, 0
3, 352320, Note_on_c, 0, 45, 100
3, 352380, Note_on_c, 0, 45, 0
3, 352380, Note_on_c, 0, 52, 100
3, 352440, Note_on_c, 0, 52, 0
3, 352440, Note_on_c, 0, 57, 100
3, 352500, Note_on_c, 0, 57, 0
3, 352500, Note_on_c, 0, 57, 100
3, 352560, Note_on_c, 0, 57, 0
3, 352560, Note_on_c, 0, 57, 100
3, 352620, Note_on_c, 0, 57, 0
3, 352620, Note_on_c, 0, 53, 100
3, 352680, Note_on_c, 0, 53, 0
3, 352680, Note_on_c, 0, 55, 100
3, 352740, Note_on_c, 0, 55, 0
3, 352740, Note_on_c, 0, 55, 100
3, 352800, Note_on_c, 0, 55, 0
3, 352800, Note_on_c, 0, 55, 100
3, 352860, Note_on_c, 0, 55, 0
3, 352860, Note_on_c, 0, 52, 100
3, 352920, Note_on_c, 0, 52, 0
3, 352920, Note_on_c, 0, 53, 100
3, 352980, Note_on_c, 0, 53, 0
3, 352980, Note_on_c, 0, 53, 100
3, 353040, Note_on_c, 0, 53, 0
3, 353040, Note_on_c, 0, 62, 100
3, 353040, Note_on_c, 0, 53, 100
3, 353100, Note_on_c, 0, 53, 0
3, 353100, Note_on_c, 0, 50, 100
3, 353160, Note_on_c, 0, 50, 0
3, 353160, Note_on_c, 0, 58, 100
3, 353280, Note_on_c, 0, 58, 0
3, 353280, Note_on_c, 0, 62, 0
3, 353280, Note_on_c, 0, 57, 100
3, 353280, Note_on_c, 0, 60, 100
3, 353400, Note_on_c, 0, 60, 0
3, 353400, Note_on_c, 0, 57, 0
3, 353400, Note_on_c, 0, 62, 100
3, 353400, Note_on_c, 0, 65, 100
3, 353520, Note_on_c, 0, 65, 0
3, 353520, Note_on_c, 0, 62, 0
3, 353520, Note_on_c, 0, 56, 100
3, 353520, Note_on_c, 0, 59, 100
3, 353640, Note_on_c, 0, 59, 0
3, 353640, Note_on_c, 0, 56, 0
3, 353640, Note_on_c, 0, 55, 100
3, 353640, Note_on_c, 0, 58, 100
3, 353760, Note_on_c, 0, 58, 0
3, 353760, Note_on_c, 0, 55, 0
3, 353760, Note_on_c, 0, 53, 100
3, 353760, Note_on_c, 0, 57, 100
3, 353880, Note_on_c, 0, 57, 0
3, 353880, Note_on_c, 0, 53, 0
3, 353880, Note_on_c, 0, 58, 100
3, 353880, Note_on_c, 0, 62, 100
3, 354000, Note_on_c, 0, 62, 0
3, 354000, Note_on_c, 0, 58, 0
3, 354000, Note_on_c, 0, 57, 100
3, 354000, Note_on_c, 0, 52, 100
3, 354015, Note_on_c, 0, 57, 0
3, 354015, Note_on_c, 0, 55, 100
3, 354030, Note_on_c, 0, 55, 0
3, 354030, Note_on_c, 0, 57, 100
3, 354045, Note_on_c, 0, 57, 0
3, 354045, Note_on_c, 0, 55, 100
3, 354060, Note_on_c, 0, 55, 0
3, 354060, Note_on_c, 0, 57, 100
3, 354075, Note_on_c, 0, 57, 0
3, 354075, Note_on_c, 0, 55, 100
3, 354090, Note_on_c, 0, 55, 0
3, 354090, Note_on_c, 0, 57, 100
3, 354105, Note_on_c, 0, 57, 0
3, 354105, Note_on_c, 0, 55, 100
3, 354120, Note_on_c, 0, 55, 0
3, 354120, Note_on_c, 0, 57, 100
3, 354135, Note_on_c, 0, 57, 0
3, 354135, Note_on_c, 0, 55, 100
3, 354150, Note_on_c, 0, 55, 0
3, 354150, Note_on_c, 0, 57, 100
3, 354165, Note_on_c, 0, 57, 0
3, 354165, Note_on_c, 0, 55, 100
3, 354180, Note_on_c, 0, 55, 0
3, 354180, Note_on_c, 0, 57, 100
3, 354195, Note_on_c, 0, 57, 0
3, 354195, Note_on_c, 0, 55, 100
3, 354210, Note_on_c, 0, 55, 0
3, 354210, Note_on_c, 0, 53, 100
3, 354225, Note_on_c, 0, 53, 0
3, 354225, Note_on_c, 0, 55, 100
3, 354240, Note_on_c, 0, 55, 0
3, 354240, Note_on_c, 0, 53, 100
3, 354360, Note_on_c, 0, 53, 0
3, 354360, Note_on_c, 0, 52, 0
3, 354360, Note_on_c, 0, 50, 100
3, 354360, Note_on_c, 0, 55, 100
3, 354480, Note_on_c, 0, 55, 0
3, 354480, Note_on_c, 0, 57, 100
3, 354540, Note_on_c, 0, 57, 0
3, 354540, Note_on_c, 0, 55, 100
3, 354600, Note_on_c, 0, 55, 0
3, 354600, Note_on_c, 0, 57, 100
3, 354660, Note_on_c, 0, 50, 0
3, 354660, Note_on_c, 0, 49, 100
3, 354720, Note_on_c, 0, 49, 0
3, 354720, Note_on_c, 0, 57, 0
3, 354720, Note_on_c, 0, 50, 100
3, 354840, Note_on_c, 0, 50, 0
3, 354840, Note_on_c, 0, 62, 100
3, 354960, Note_on_c, 0, 62, 0
3, 354960, Note_on_c, 0, 60, 100
3, 355080, Note_on_c, 0, 60, 0
3, 355080, Note_on_c, 0, 59, 100
3, 355200, Note_on_c, 0, 59, 0
3, 355200, Note_on_c, 0, 60, 100
3, 355320, Note_on_c, 0, 60, 0
3, 355920, Note_on_c, 0, 57, 100
3, 356160, Note_on_c, 0, 57, 0
3, 356160, Note_on_c, 0, 55, 100
3, 356220, Note_on_c, 0, 63, 100
3, 356280, Note_on_c, 0, 63, 0
3, 356280, Note_on_c, 0, 55, 0
3, 356280, Note_on_c, 0, 64, 100
3, 356280, Note_on_c, 0, 60, 100
3, 356340, Note_on_c, 0, 64, 0
3, 356340, Note_on_c, 0, 64, 100
3, 356400, Note_on_c, 0, 64, 0
3, 356400, Note_on_c, 0, 60, 0
3, 356400, Note_on_c, 0, 64, 100
3, 356400, Note_on_c, 0, 54, 100
3, 356460, Note_on_c, 0, 64, 0
3, 356460, Note_on_c, 0, 61, 100
3, 356520, Note_on_c, 0, 61, 0
3, 356520, Note_on_c, 0, 54, 0
3, 356520, Note_on_c, 0, 62, 100
3, 356520, Note_on_c, 0, 53, 100
3, 356580, Note_on_c, 0, 62, 0
3, 356580, Note_on_c, 0, 62, 100
3, 356640, Note_on_c, 0, 62, 0
3, 356640, Note_on_c, 0, 53, 0
3, 356640, Note_on_c, 0, 62, 100
3, 356640, Note_on_c, 0, 52, 100
3, 356700, Note_on_c, 0, 62, 0
3, 356700, Note_on_c, 0, 59, 100
3, 356760, Note_on_c, 0, 59, 0
3, 356760, Note_on_c, 0, 52, 0
3, 356760, Note_on_c, 0, 60, 100
3, 356760, Note_on_c, 0, 57, 100
3, 356820, Note_on_c, 0, 60, 0
3, 356820, Note_on_c, 0, 60, 100
3, 356880, Note_on_c, 0, 60, 0
3, 356880, Note_on_c, 0, 57, 0
3, 356880, Note_on_c, 0, 60, 100
3, 356880, Note_on_c, 0, 50, 100
3, 356940, Note_on_c, 0, 60, 0
3, 356940, Note_on_c, 0, 59, 100
3, 357000, Note_on_c, 0, 59, 0
3, 357000, Note_on_c, 0, 57, 100
3, 357060, Note_on_c, 0, 57, 0
3, 357060, Note_on_c, 0, 56, 100
3, 357120, Note_on_c, 0, 56, 0
3, 357120, Note_on_c, 0, 50, 0
3, 357120, Note_on_c, 0, 48, 100
3, 357120, Note_on_c, 0, 57, 100
3, 357240, Note_on_c, 0, 48, 0
3, 357240, Note_on_c, 0, 50, 100
3, 357360, Note_on_c, 0, 50, 0
3, 357360, Note_on_c, 0, 52, 100
3, 357420, Note_on_c, 0, 52, 0
3, 357420, Note_on_c, 0, 50, 100
3, 357480, Note_on_c, 0, 50, 0
3, 357480, Note_on_c, 0, 57, 0
3, 357480, Note_on_c, 0, 52, 100
3, 357480, Note_on_c, 0, 56, 100
3, 357600, Note_on_c, 0, 56, 0
3, 357600, Note_on_c, 0, 52, 0
3, 357600, Note_on_c, 0, 57, 100
3, 357600, Note_on_c, 0, 45, 100
3, 357660, Note_on_c, 0, 57, 0
3, 357660, Note_on_c, 0, 60, 100
3, 357720, Note_on_c, 0, 60, 0
3, 357720, Note_on_c, 0, 45, 0
3, 357720, Note_on_c, 0, 59, 100
3, 357780, Note_on_c, 0, 59, 0
3, 357780, Note_on_c, 0, 57, 100
3, 357840, Note_on_c, 0, 57, 0
3, 357840, Note_on_c, 0, 56, 100
3, 357900, Note_on_c, 0, 56, 0
3, 357900, Note_on_c, 0, 57, 100
3, 357960, Note_on_c, 0, 57, 0
3, 357960, Note_on_c, 0, 54, 100
3, 357960, Note_on_c, 0, 47, 100
3, 358020, Note_on_c, 0, 54, 0
3, 358020, Note_on_c, 0, 55, 100
3, 358080, Note_on_c, 0, 55, 0
3, 358080, Note_on_c, 0, 47, 0
3, 358080, Note_on_c, 0, 48, 100
3, 358140, Note_on_c, 0, 48, 0
3, 358140, Note_on_c, 0, 47, 100
3, 358200, Note_on_c, 0, 47, 0
3, 358200, Note_on_c, 0, 48, 100
3, 358260, Note_on_c, 0, 48, 0
3, 358260, Note_on_c, 0, 50, 100
3, 358320, Note_on_c, 0, 50, 0
3, 358320, Note_on_c, 0, 52, 100
3, 358380, Note_on_c, 0, 52, 0
3, 358380, Note_on_c, 0, 50, 100
3, 358440, Note_on_c, 0, 50, 0
3, 358440, Note_on_c, 0, 53, 100
3, 358500, Note_on_c, 0, 53, 0
3, 358500, Note_on_c, 0, 52, 100
3, 358560, Note_on_c, 0, 52, 0
3, 358560, Note_on_c, 0, 53, 100
3, 358620, Note_on_c, 0, 53, 0
3, 358620, Note_on_c, 0, 50, 100
3, 358680, Note_on_c, 0, 50, 0
3, 358680, Note_on_c, 0, 55, 100
3, 358920, Note_on_c, 0, 55, 0
3, 358920, Note_on_c, 0, 53, 100
3, 358980, Note_on_c, 0, 53, 0
3, 358980, Note_on_c, 0, 52, 100
3, 359040, Note_on_c, 0, 52, 0
3, 359040, Note_on_c, 0, 53, 100
3, 359160, Note_on_c, 0, 53, 0
3, 359160, Note_on_c, 0, 57, 100
3, 359280, Note_on_c, 0, 57, 0
3, 359280, Note_on_c, 0, 54, 100
3, 359400, Note_on_c, 0, 54, 0
3, 359400, Note_on_c, 0, 50, 100
3, 359400, Note_on_c, 0, 54, 100
3, 359520, Note_on_c, 0, 54, 0
3, 359520, Note_on_c, 0, 50, 0
3, 359520, Note_on_c, 0, 55, 100
3, 359520, Note_on_c, 0, 55, 100
3, 359580, Note_on_c, 0, 55, 0
3, 359580, Note_on_c, 0, 57, 100
3, 359640, Note_on_c, 0, 57, 0
3, 359640, Note_on_c, 0, 58, 100
3, 359700, Note_on_c, 0, 58, 0
3, 359700, Note_on_c, 0, 60, 100
3, 359760, Note_on_c, 0, 60, 0
3, 359760, Note_on_c, 0, 55, 0
3, 359760, Note_on_c, 0, 62, 100
3, 359820, Note_on_c, 0, 62, 0
3, 359820, Note_on_c, 0, 60, 100
3, 359880, Note_on_c, 0, 60, 0
3, 359880, Note_on_c, 0, 64, 100
3, 359880, Note_on_c, 0, 55, 100
3, 359940, Note_on_c, 0, 64, 0
3, 359940, Note_on_c, 0, 62, 100
3, 360000, Note_on_c, 0, 62, 0
3, 360000, Note_on_c, 0, 55, 0
3, 360000, Note_on_c, 0, 48, 100
3, 360060, Note_on_c, 0, 48, 0
3, 360060, Note_on_c, 0, 60, 100
3, 360120, Note_on_c, 0, 60, 0
3, 360120, Note_on_c, 0, 58, 100
3, 360180, Note_on_c, 0, 58, 0
3, 360180, Note_on_c, 0, 57, 100
3, 360240, Note_on_c, 0, 57, 0
3, 360240, Note_on_c, 0, 55, 100
3, 360300, Note_on_c, 0, 55, 0
3, 360300, Note_on_c, 0, 57, 100
3, 360360, Note_on_c, 0, 57, 0
3, 360360, Note_on_c, 0, 53, 100
3, 360420, Note_on_c, 0, 53, 0
3, 360420, Note_on_c, 0, 55, 100
3, 360480, Note_on_c, 0, 55, 0
3, 360480, Note_on_c, 0, 57, 100
3, 360540, Note_on_c, 0, 57, 0
3, 360540, Note_on_c, 0, 58, 100
3, 360600, Note_on_c, 0, 58, 0
3, 360600, Note_on_c, 0, 60, 100
3, 360660, Note_on_c, 0, 60, 0
3, 360660, Note_on_c, 0, 62, 100
3, 360720, Note_on_c, 0, 62, 0
3, 360720, Note_on_c, 0, 64, 100
3, 360780, Note_on_c, 0, 64, 0
3, 360780, Note_on_c, 0, 60, 100
3, 360840, Note_on_c, 0, 60, 0
3, 360840, Note_on_c, 0, 65, 100
3, 360900, Note_on_c, 0, 65, 0
3, 360900, Note_on_c, 0, 64, 100
3, 360960, Note_on_c, 0, 64, 0
3, 360960, Note_on_c, 0, 65, 100
3, 361080, Note_on_c, 0, 65, 0
3, 361080, Note_on_c, 0, 58, 100
3, 361200, Note_on_c, 0, 58, 0
3, 361200, Note_on_c, 0, 60, 100
3, 361320, Note_on_c, 0, 60, 0
3, 361320, Note_on_c, 0, 48, 100
3, 361440, Note_on_c, 0, 48, 0
3, 361440, Note_on_c, 0, 53, 100
3, 361500, Note_on_c, 0, 53, 0
3, 361500, Note_on_c, 0, 55, 100
3, 361560, Note_on_c, 0, 55, 0
3, 361560, Note_on_c, 0, 57, 100
3, 361620, Note_on_c, 0, 57, 0
3, 361620, Note_on_c, 0, 58, 100
3, 361680, Note_on_c, 0, 58, 0
3, 361680, Note_on_c, 0, 60, 100
3, 361740, Note_on_c, 0, 60, 0
3, 361740, Note_on_c, 0, 59, 100
3, 361800, Note_on_c, 0, 59, 0
3, 361800, Note_on_c, 0, 62, 100
3, 361860, Note_on_c, 0, 62, 0
3, 361860, Note_on_c, 0, 61, 100
3, 361920, Note_on_c, 0, 61, 0
3, 361920, Note_on_c, 0, 62, 100
3, 361980, Note_on_c, 0, 62, 0
3, 361980, Note_on_c, 0, 47, 100
3, 362040, Note_on_c, 0, 47, 0
3, 362040, Note_on_c, 0, 49, 100
3, 362100, Note_on_c, 0, 49, 0
3, 362100, Note_on_c, 0, 50, 100
3, 362160, Note_on_c, 0, 50, 0
3, 362160, Note_on_c, 0, 52, 100
3, 362220, Note_on_c, 0, 52, 0
3, 362220, Note_on_c, 0, 50, 100
3, 362280, Note_on_c, 0, 50, 0
3, 362280, Note_on_c, 0, 53, 100
3, 362340, Note_on_c, 0, 53, 0
3, 362340, Note_on_c, 0, 52, 100
3, 362400, Note_on_c, 0, 52, 0
3, 362400, Note_on_c, 0, 55, 100
3, 362460, Note_on_c, 0, 55, 0
3, 362460, Note_on_c, 0, 53, 100
3, 362520, Note_on_c, 0, 53, 0
3, 362520, Note_on_c, 0, 52, 100
3, 362580, Note_on_c, 0, 52, 0
3, 362580, Note_on_c, 0, 50, 100
3, 362640, Note_on_c, 0, 50, 0
3, 362640, Note_on_c, 0, 49, 100
3, 362700, Note_on_c, 0, 49, 0
3, 362700, Note_on_c, 0, 50, 100
3, 362760, Note_on_c, 0, 50, 0
3, 362760, Note_on_c, 0, 47, 100
3, 362820, Note_on_c, 0, 47, 0
3, 362820, Note_on_c, 0, 49, 100
3, 362880, Note_on_c, 0, 49, 0
3, 362880, Note_on_c, 0, 50, 100
3, 362940, Note_on_c, 0, 50, 0
3, 362940, Note_on_c, 0, 48, 100
3, 363000, Note_on_c, 0, 48, 0
3, 363000, Note_on_c, 0, 47, 100
3, 363060, Note_on_c, 0, 47, 0
3, 363060, Note_on_c, 0, 45, 100
3, 363120, Note_on_c, 0, 45, 0
3, 363120, Note_on_c, 0, 44, 100
3, 363180, Note_on_c, 0, 44, 0
3, 363180, Note_on_c, 0, 45, 100
3, 363240, Note_on_c, 0, 45, 0
3, 363240, Note_on_c, 0, 42, 100
3, 363300, Note_on_c, 0, 42, 0
3, 363300, Note_on_c, 0, 43, 100
3, 363360, Note_on_c, 0, 43, 0
3, 363360, Note_on_c, 0, 45, 100
3, 363480, Note_on_c, 0, 45, 0
3, 363480, Note_on_c, 0, 57, 100
3, 363720, Note_on_c, 0, 57, 0
3, 363720, Note_on_c, 0, 56, 100
3, 363840, Note_on_c, 0, 56, 0
3, 363840, Note_on_c, 0, 57, 100
3, 363960, Note_on_c, 0, 57, 0
3, 363960, Note_on_c, 0, 60, 100
3, 364080, Note_on_c, 0, 60, 0
3, 364080, Note_on_c, 0, 54, 100
3, 364200, Note_on_c, 0, 54, 0
3, 364200, Note_on_c, 0, 56, 100
3, 364320, Note_on_c, 0, 56, 0
3, 364440, Note_on_c, 0, 57, 100
3, 364560, Note_on_c, 0, 57, 0
3, 364560, Note_on_c, 0, 58, 100
3, 364680, Note_on_c, 0, 58, 0
3, 364680, Note_on_c, 0, 60, 100
3, 364800, Note_on_c, 0, 60, 0
3, 364920, Note_on_c, 0, 62, 100
3, 365040, Note_on_c, 0, 62, 0
3, 365040, Note_on_c, 0, 60, 100
3, 365160, Note_on_c, 0, 60, 0
3, 365160, Note_on_c, 0, 58, 100
3, 365280, Note_on_c, 0, 58, 0
3, 365400, Note_on_c, 0, 57, 100
3, 365460, Note_on_c, 0, 57, 0
3, 365460, Note_on_c, 0, 55, 100
3, 365520, Note_on_c, 0, 55, 0
3, 365520, Note_on_c, 0, 57, 100
3, 365640, Note_on_c, 0, 57, 0
3, 365640, Note_on_c, 0, 59, 100
3, 365760, Note_on_c, 0, 59, 0
3, 365760, Note_on_c, 0, 60, 100
3, 365820, Note_on_c, 0, 60, 0
3, 365820, Note_on_c, 0, 62, 100
3, 365880, Note_on_c, 0, 62, 0
3, 365880, Note_on_c, 0, 60, 100
3, 365940, Note_on_c, 0, 60, 0
3, 365940, Note_on_c, 0, 59, 100
3, 366000, Note_on_c, 0, 59, 0
3, 366000, Note_on_c, 0, 57, 100
3, 366060, Note_on_c, 0, 57, 0
3, 366060, Note_on_c, 0, 60, 100
3, 366120, Note_on_c, 0, 60, 0
3, 366120, Note_on_c, 0, 66, 100
3, 366180, Note_on_c, 0, 66, 0
3, 366180, Note_on_c, 0, 69, 100
3, 366240, Note_on_c, 0, 69, 0
3, 366240, Note_on_c, 0, 69, 100
3, 366300, Note_on_c, 0, 69, 0
3, 366300, Note_on_c, 0, 66, 100
3, 366360, Note_on_c, 0, 66, 0
3, 366360, Note_on_c, 0, 67, 100
3, 366420, Note_on_c, 0, 67, 0
3, 366420, Note_on_c, 0, 67, 100
3, 366480, Note_on_c, 0, 67, 0
3, 366480, Note_on_c, 0, 67, 100
3, 366540, Note_on_c, 0, 67, 0
3, 366540, Note_on_c, 0, 64, 100
3, 366600, Note_on_c, 0, 64, 0
3, 366600, Note_on_c, 0, 65, 100
3, 366660, Note_on_c, 0, 65, 0
3, 366660, Note_on_c, 0, 65, 100
3, 366720, Note_on_c, 0, 65, 0
3, 366720, Note_on_c, 0, 65, 100
3, 366780, Note_on_c, 0, 65, 0
3, 366780, Note_on_c, 0, 63, 100
3, 366840, Note_on_c, 0, 63, 0
3, 366840, Note_on_c, 0, 64, 100
3, 366900, Note_on_c, 0, 64, 0
3, 366900, Note_on_c, 0, 64, 100
3, 366960, Note_on_c, 0, 64, 0
3, 366960, Note_on_c, 0, 64, 100
3, 366960, Note_on_c, 0, 65, 100
3, 367020, Note_on_c, 0, 64, 0
3, 367020, Note_on_c, 0, 62, 100
3, 367080, Note_on_c, 0, 62, 0
3, 367080, Note_on_c, 0, 60, 100
3, 367140, Note_on_c, 0, 60, 0
3, 367140, Note_on_c, 0, 59, 100
3, 367200, Note_on_c, 0, 59, 0
3, 367200, Note_on_c, 0, 65, 0
3, 367200, Note_on_c, 0, 60, 100
3, 367200, Note_on_c, 0, 64, 100
3, 367260, Note_on_c, 0, 60, 0
3, 367260, Note_on_c, 0, 64, 100
3, 367320, Note_on_c, 0, 64, 0
3, 367320, Note_on_c, 0, 64, 0
3, 367320, Note_on_c, 0, 62, 100
3, 367320, Note_on_c, 0, 65, 100
3, 367380, Note_on_c, 0, 62, 0
3, 367380, Note_on_c, 0, 60, 100
3, 367440, Note_on_c, 0, 60, 0
3, 367440, Note_on_c, 0, 65, 0
3, 367440, Note_on_c, 0, 67, 100
3, 367440, Note_on_c, 0, 59, 100
3, 367500, Note_on_c, 0, 59, 0
3, 367500, Note_on_c, 0, 67, 0
3, 367500, Note_on_c, 0, 60, 100
3, 367500, Note_on_c, 0, 65, 100
3, 367560, Note_on_c, 0, 65, 0
3, 367560, Note_on_c, 0, 60, 0
3, 367560, Note_on_c, 0, 57, 100
3, 367560, Note_on_c, 0, 67, 100
3, 367620, Note_on_c, 0, 57, 0
3, 367620, Note_on_c, 0, 58, 100
3, 367680, Note_on_c, 0, 58, 0
3, 367680, Note_on_c, 0, 67, 0
3, 367680, Note_on_c, 0, 60, 100
3, 367740, Note_on_c, 0, 62, 100
3, 367800, Note_on_c, 0, 62, 0
3, 367800, Note_on_c, 0, 60, 0
3, 367800, Note_on_c, 0, 60, 100
3, 367860, Note_on_c, 0, 60, 0
3, 367860, Note_on_c, 0, 58, 100
3, 367920, Note_on_c, 0, 58, 0
3, 367920, Note_on_c, 0, 57, 100
3, 368040, Note_on_c, 0, 57, 0
3, 368040, Note_on_c, 0, 62, 100
3, 368160, Note_on_c, 0, 62, 0
3, 368160, Note_on_c, 0, 67, 100
3, 368280, Note_on_c, 0, 67, 0
3, 368280, Note_on_c, 0, 60, 100
3, 368280, Note_on_c, 0, 69, 100
3, 368400, Note_on_c, 0, 69, 0
3, 368400, Note_on_c, 0, 60, 0
3, 368400, Note_on_c, 0, 58, 100
3, 368400, Note_on_c, 0, 67, 100
3, 368520, Note_on_c, 0, 67, 0
3, 368520, Note_on_c, 0, 58, 0
3, 368520, Note_on_c, 0, 57, 100
3, 368520, Note_on_c, 0, 66, 100
3, 368640, Note_on_c, 0, 66, 0
3, 368640, Note_on_c, 0, 57, 0
3, 368640, Note_on_c, 0, 67, 100
3, 368640, Note_on_c, 0, 55, 100
3, 368700, Note_on_c, 0, 67, 0
3, 368700, Note_on_c, 0, 65, 100
3, 368760, Note_on_c, 0, 65, 0
3, 368760, Note_on_c, 0, 63, 100
3, 368820, Note_on_c, 0, 63, 0
3, 368820, Note_on_c, 0, 62, 100
3, 368880, Note_on_c, 0, 62, 0
3, 368880, Note_on_c, 0, 55, 0
3, 368880, Note_on_c, 0, 60, 100
3, 368940, Note_on_c, 0, 58, 100
3, 369000, Note_on_c, 0, 58, 0
3, 369000, Note_on_c, 0, 60, 0
3, 369000, Note_on_c, 0, 57, 100
3, 369060, Note_on_c, 0, 57, 0
3, 369060, Note_on_c, 0, 55, 100
3, 369120, Note_on_c, 0, 55, 0
3, 369120, Note_on_c, 0, 53, 100
3, 369240, Note_on_c, 0, 53, 0
3, 369240, Note_on_c, 0, 58, 100
3, 369240, Note_on_c, 0, 62, 100
3, 369360, Note_on_c, 0, 62, 0
3, 369360, Note_on_c, 0, 58, 0
3, 369360, Note_on_c, 0, 52, 100
3, 369360, Note_on_c, 0, 55, 100
3, 369480, Note_on_c, 0, 55, 0
3, 369480, Note_on_c, 0, 52, 0
3, 369480, Note_on_c, 0, 57, 100
3, 369480, Note_on_c, 0, 51, 100
3, 369600, Note_on_c, 0, 51, 0
3, 369600, Note_on_c, 0, 57, 0
3, 369600, Note_on_c, 0, 50, 100
3, 369720, Note_on_c, 0, 50, 0
3, 369720, Note_on_c, 0, 58, 100
3, 369720, Note_on_c, 0, 55, 100
3, 369840, Note_on_c, 0, 55, 0
3, 369840, Note_on_c, 0, 58, 0
3, 369840, Note_on_c, 0, 48, 100
3, 369840, Note_on_c, 0, 60, 100
3, 369960, Note_on_c, 0, 60, 0
3, 369960, Note_on_c, 0, 62, 100
3, 370080, Note_on_c, 0, 62, 0
3, 370080, Note_on_c, 0, 48, 0
3, 370080, Note_on_c, 0, 46, 100
3, 370200, Note_on_c, 0, 46, 0
3, 370200, Note_on_c, 0, 48, 100
3, 370320, Note_on_c, 0, 48, 0
3, 370320, Note_on_c, 0, 50, 100
3, 370380, Note_on_c, 0, 50, 0
3, 370380, Note_on_c, 0, 48, 100
3, 370440, Note_on_c, 0, 48, 0
3, 370440, Note_on_c, 0, 50, 100
3, 370560, Note_on_c, 0, 50, 0
3, 370560, Note_on_c, 0, 43, 100
3, 370680, Note_on_c, 0, 58, 100
3, 370740, Note_on_c, 0, 58, 0
3, 370740, Note_on_c, 0, 57, 100
3, 370800, Note_on_c, 0, 57, 0
3, 370800, Note_on_c, 0, 43, 0
3, 370800, Note_on_c, 0, 58, 100
3, 370920, Note_on_c, 0, 58, 0
3, 370920, Note_on_c, 0, 60, 100
3, 371040, Note_on_c, 0, 60, 0
3, 371160, Note_on_c, 0, 55, 100
3, 371220, Note_on_c, 0, 55, 0
3, 371220, Note_on_c, 0, 57, 100
3, 371280, Note_on_c, 0, 57, 0
3, 371280, Note_on_c, 0, 55, 100
3, 371400, Note_on_c, 0, 55, 0
3, 371400, Note_on_c, 0, 49, 100
3, 371520, Note_on_c, 0, 49, 0
3, 371520, Note_on_c, 0, 50, 100
3, 371640, Note_on_c, 0, 50, 0
3, 371640, Note_on_c, 0, 62, 100
3, 371820, Note_on_c, 0, 62, 0
3, 371820, Note_on_c, 0, 60, 100
3, 371880, Note_on_c, 0, 60, 0
3, 371880, Note_on_c, 0, 58, 100
3, 371940, Note_on_c, 0, 58, 0
3, 371940, Note_on_c, 0, 57, 100
3, 372000, Note_on_c, 0, 57, 0
3, 372000, Note_on_c, 0, 55, 100
3, 372180, Note_on_c, 0, 55, 0
3, 372180, Note_on_c, 0, 53, 100
3, 372240, Note_on_c, 0, 53, 0
3, 372240, Note_on_c, 0, 52, 100
3, 372300, Note_on_c, 0, 52, 0
3, 372300, Note_on_c, 0, 50, 100
3, 372360, Note_on_c, 0, 50, 0
3, 372360, Note_on_c, 0, 49, 100
3, 372420, Note_on_c, 0, 49, 0
3, 372420, Note_on_c, 0, 58, 100
3, 372480, Note_on_c, 0, 58, 0
3, 372480, Note_on_c, 0, 57, 100
3, 372660, Note_on_c, 0, 57, 0
3, 372660, Note_on_c, 0, 55, 100
3, 372720, Note_on_c, 0, 55, 0
3, 372720, Note_on_c, 0, 53, 100
3, 372780, Note_on_c, 0, 53, 0
3, 372780, Note_on_c, 0, 52, 100
3, 372840, Note_on_c, 0, 52, 0
3, 372840, Note_on_c, 0, 50, 100
3, 372900, Note_on_c, 0, 50, 0
3, 372900, Note_on_c, 0, 60, 100
3, 372960, Note_on_c, 0, 60, 0
3, 372960, Note_on_c, 0, 59, 100
3, 373140, Note_on_c, 0, 59, 0
3, 373140, Note_on_c, 0, 57, 100
3, 373200, Note_on_c, 0, 57, 0
3, 373200, Note_on_c, 0, 56, 100
3, 373260, Note_on_c, 0, 56, 0
3, 373260, Note_on_c, 0, 59, 100
3, 373320, Note_on_c, 0, 59, 0
3, 373320, Note_on_c, 0, 52, 100
3, 373440, Note_on_c, 0, 52, 0
3, 373440, Note_on_c, 0, 57, 100
3, 374400, Note_on_c, 0, 57, 0
3, 374400, Note_on_c, 0, 57, 100
3, 374520, Note_on_c, 0, 57, 0
3, 374520, Note_on_c, 0, 62, 100
3, 374580, Note_on_c, 0, 62, 0
3, 374580, Note_on_c, 0, 60, 100
3, 374640, Note_on_c, 0, 60, 0
3, 374640, Note_on_c, 0, 50, 100
3, 374640, Note_on_c, 0, 59, 100
3, 374760, Note_on_c, 0, 59, 0
3, 374760, Note_on_c, 0, 58, 100
3, 374880, Note_on_c, 0, 50, 0
3, 374880, Note_on_c, 0, 48, 100
3, 374940, Note_on_c, 0, 58, 0
3, 374940, Note_on_c, 0, 56, 100
3, 375000, Note_on_c, 0, 56, 0
3, 375000, Note_on_c, 0, 48, 0
3, 375000, Note_on_c, 0, 57, 100
3, 375000, Note_on_c, 0, 53, 100
3, 375060, Note_on_c, 0, 57, 0
3, 375060, Note_on_c, 0, 57, 100
3, 375120, Note_on_c, 0, 57, 0
3, 375120, Note_on_c, 0, 53, 0
3, 375120, Note_on_c, 0, 57, 100
3, 375120, Note_on_c, 0, 47, 100
3, 375180, Note_on_c, 0, 57, 0
3, 375180, Note_on_c, 0, 54, 100
3, 375240, Note_on_c, 0, 54, 0
3, 375240, Note_on_c, 0, 47, 0
3, 375240, Note_on_c, 0, 55, 100
3, 375240, Note_on_c, 0, 46, 100
3, 375300, Note_on_c, 0, 55, 0
3, 375300, Note_on_c, 0, 55, 100
3, 375360, Note_on_c, 0, 55, 0
3, 375360, Note_on_c, 0, 46, 0
3, 375360, Note_on_c, 0, 55, 100
3, 375360, Note_on_c, 0, 45, 100
3, 375420, Note_on_c, 0, 55, 0
3, 375420, Note_on_c, 0, 52, 100
3, 375480, Note_on_c, 0, 52, 0
3, 375480, Note_on_c, 0, 45, 0
3, 375480, Note_on_c, 0, 53, 100
3, 375480, Note_on_c, 0, 50, 100
3, 375540, Note_on_c, 0, 53, 0
3, 375540, Note_on_c, 0, 53, 100
3, 375600, Note_on_c, 0, 53, 0
3, 375600, Note_on_c, 0, 50, 0
3, 375600, Note_on_c, 0, 53, 100
3, 375600, Note_on_c, 0, 43, 100
3, 375660, Note_on_c, 0, 53, 0
3, 375660, Note_on_c, 0, 51, 100
3, 375720, Note_on_c, 0, 51, 0
3, 375720, Note_on_c, 0, 50, 100
3, 375780, Note_on_c, 0, 50, 0
3, 375780, Note_on_c, 0, 49, 100
3, 375840, Note_on_c, 0, 49, 0
3, 375840, Note_on_c, 0, 43, 0
3, 375840, Note_on_c, 0, 50, 100
3, 375840, Note_on_c, 0, 41, 100
3, 375900, Note_on_c, 0, 50, 0
3, 375900, Note_on_c, 0, 53, 100
3, 375960, Note_on_c, 0, 53, 0
3, 375960, Note_on_c, 0, 41, 0
3, 375960, Note_on_c, 0, 52, 100
3, 375960, Note_on_c, 0, 43, 100
3, 376020, Note_on_c, 0, 52, 0
3, 376020, Note_on_c, 0, 50, 100
3, 376080, Note_on_c, 0, 50, 0
3, 376080, Note_on_c, 0, 43, 0
3, 376080, Note_on_c, 0, 45, 100
3, 376080, Note_on_c, 0, 49, 100
3, 376140, Note_on_c, 0, 49, 0
3, 376140, Note_on_c, 0, 45, 0
3, 376140, Note_on_c, 0, 50, 100
3, 376140, Note_on_c, 0, 43, 100
3, 376200, Note_on_c, 0, 43, 0
3, 376200, Note_on_c, 0, 50, 0
3, 376200, Note_on_c, 0, 47, 100
3, 376200, Note_on_c, 0, 45, 100
3, 376260, Note_on_c, 0, 47, 0
3, 376260, Note_on_c, 0, 48, 100
3, 376320, Note_on_c, 0, 48, 0
3, 376320, Note_on_c, 0, 45, 0
3, 376320, Note_on_c, 0, 50, 100
3, 376320, Note_on_c, 0, 38, 100
3, 376380, Note_on_c, 0, 50, 0
3, 376380, Note_on_c, 0, 52, 100
3, 376440, Note_on_c, 0, 52, 0
3, 376440, Note_on_c, 0, 38, 0
3, 376440, Note_on_c, 0, 53, 100
3, 376440, Note_on_c, 0, 50, 100
3, 376500, Note_on_c, 0, 53, 0
3, 376500, Note_on_c, 0, 55, 100
3, 376560, Note_on_c, 0, 55, 0
3, 376560, Note_on_c, 0, 57, 100
3, 376620, Note_on_c, 0, 50, 0
3, 376620, Note_on_c, 0, 48, 100
3, 376680, Note_on_c, 0, 48, 0
3, 376680, Note_on_c, 0, 57, 0
3, 376680, Note_on_c, 0, 46, 100
3, 376680, Note_on_c, 0, 62, 100
3, 376740, Note_on_c, 0, 46, 0
3, 376740, Note_on_c, 0, 50, 100
3, 376800, Note_on_c, 0, 50, 0
3, 376800, Note_on_c, 0, 62, 0
3, 376800, Note_on_c, 0, 54, 100
3, 376800, Note_on_c, 0, 48, 100
3, 376920, Note_on_c, 0, 48, 0
3, 376920, Note_on_c, 0, 54, 0
3, 376920, Note_on_c, 0, 57, 100
3, 376920, Note_on_c, 0, 60, 100
3, 377040, Note_on_c, 0, 57, 0
3, 377100, Note_on_c, 0, 60, 0
3, 377100, Note_on_c, 0, 58, 100
3, 377160, Note_on_c, 0, 58, 0
3, 377160, Note_on_c, 0, 57, 100
3, 377220, Note_on_c, 0, 57, 0
3, 377220, Note_on_c, 0, 60, 100
3, 377280, Note_on_c, 0, 60, 0
3, 377280, Note_on_c, 0, 58, 100
3, 377400, Note_on_c, 0, 58, 0
3, 377400, Note_on_c, 0, 46, 100
3, 377580, Note_on_c, 0, 46, 0
3, 377580, Note_on_c, 0, 45, 100
3, 377640, Note_on_c, 0, 45, 0
3, 377640, Note_on_c, 0, 43, 100
3, 377700, Note_on_c, 0, 43, 0
3, 377700, Note_on_c, 0, 46, 100
3, 377760, Note_on_c, 0, 46, 0
3, 377760, Note_on_c, 0, 45, 100
3, 377880, Note_on_c, 0, 45, 0
3, 377880, Note_on_c, 0, 57, 100
3, 378060, Note_on_c, 0, 57, 0
3, 378060, Note_on_c, 0, 55, 100
3, 378120, Note_on_c, 0, 55, 0
3, 378120, Note_on_c, 0, 54, 100
3, 378180, Note_on_c, 0, 54, 0
3, 378180, Note_on_c, 0, 57, 100
3, 378240, Note_on_c, 0, 57, 0
3, 378240, Note_on_c, 0, 55, 100
3, 378360, Note_on_c, 0, 55, 0
3, 378360, Note_on_c, 0, 55, 100
3, 378360, Note_on_c, 0, 58, 100
3, 378420, Note_on_c, 0, 58, 0
3, 378420, Note_on_c, 0, 55, 0
3, 378420, Note_on_c, 0, 55, 100
3, 378420, Note_on_c, 0, 58, 100
3, 378480, Note_on_c, 0, 58, 0
3, 378480, Note_on_c, 0, 55, 0
3, 378480, Note_on_c, 0, 55, 100
3, 378480, Note_on_c, 0, 58, 100
3, 378600, Note_on_c, 0, 58, 0
3, 378600, Note_on_c, 0, 55, 0
3, 378600, Note_on_c, 0, 52, 100
3, 378600, Note_on_c, 0, 55, 100
3, 378660, Note_on_c, 0, 55, 0
3, 378660, Note_on_c, 0, 52, 0
3, 378660, Note_on_c, 0, 52, 100
3, 378660, Note_on_c, 0, 55, 100
3, 378720, Note_on_c, 0, 55, 0
3, 378720, Note_on_c, 0, 52, 0
3, 378720, Note_on_c, 0, 52, 100
3, 378720, Note_on_c, 0, 55, 100
3, 378840, Note_on_c, 0, 55, 0
3, 378840, Note_on_c, 0, 52, 0
3, 378840, Note_on_c, 0, 49, 100
3, 378840, Note_on_c, 0, 58, 100
3, 378900, Note_on_c, 0, 58, 0
3, 378900, Note_on_c, 0, 49, 0
3, 378900, Note_on_c, 0, 49, 100
3, 378900, Note_on_c, 0, 58, 100
3, 378960, Note_on_c, 0, 58, 0
3, 378960, Note_on_c, 0, 49, 0
3, 378960, Note_on_c, 0, 52, 100
3, 378960, Note_on_c, 0, 49, 100
3, 379080, Note_on_c, 0, 49, 0
3, 379080, Note_on_c, 0, 52, 0
3, 379320, Note_on_c, 0, 56, 100
3, 379440, Note_on_c, 0, 56, 0
3, 379440, Note_on_c, 0, 57, 100
3, 379560, Note_on_c, 0, 57, 0
3, 379560, Note_on_c, 0, 45, 100
3, 379680, Note_on_c, 0, 45, 0
3, 379680, Note_on_c, 0, 50, 100
3, 380400, Note_on_c, 0, 50, 0
3, 380760, Note_on_c, 0, 45, 100
3, 380880, Note_on_c, 0, 45, 0
3, 380880, Note_on_c, 0, 38, 100
3, 381000, Note_on_c, 0, 38, 0
3, 381000, Note_on_c, 0, 40, 100
3, 381120, Note_on_c, 0, 40, 0
3, 381240, Note_on_c, 0, 41, 100
3, 381360, Note_on_c, 0, 41, 0
3, 381360, Note_on_c, 0, 43, 100
3, 381480, Note_on_c, 0, 43, 0
3, 381480, Note_on_c, 0, 45, 100
3, 381600, Note_on_c, 0, 45, 0
3, 381720, Note_on_c, 0, 46, 100
3, 381840, Note_on_c, 0, 46, 0
3, 381840, Note_on_c, 0, 45, 100
3, 381960, Note_on_c, 0, 45, 0
3, 381960, Note_on_c, 0, 43, 100
3, 382080, Note_on_c, 0, 43, 0
3, 382200, Note_on_c, 0, 41, 100
3, 382260, Note_on_c, 0, 41, 0
3, 382260, Note_on_c, 0, 40, 100
3, 382320, Note_on_c, 0, 40, 0
3, 382320, Note_on_c, 0, 41, 100
3, 382440, Note_on_c, 0, 41, 0
3, 382440, Note_on_c, 0, 43, 100
3, 382560, Note_on_c, 0, 43, 0
3, 382560, Note_on_c, 0, 53, 100
3, 382560, Note_on_c, 0, 45, 100
3, 382680, Note_on_c, 0, 53, 0
3, 382680, Note_on_c, 0, 52, 100
3, 382740, Note_on_c, 0, 52, 0
3, 382740, Note_on_c, 0, 50, 100
3, 382800, Note_on_c, 0, 50, 0
3, 382800, Note_on_c, 0, 52, 100
3, 382860, Note_on_c, 0, 52, 0
3, 382860, Note_on_c, 0, 53, 100
3, 382920, Note_on_c, 0, 53, 0
3, 382920, Note_on_c, 0, 55, 100
3, 383040, Note_on_c, 0, 45, 0
3, 383040, Note_on_c, 0, 38, 100
3, 383160, Note_on_c, 0, 55, 0
3, 383160, Note_on_c, 0, 54, 100
3, 383280, Note_on_c, 0, 54, 0
3, 383280, Note_on_c, 0, 38, 0
3, 383520, Control_c, 0, 91, 42
3, 383520, Control_c, 0, 0, 0
3, 383520, Control_c, 0, 121, 0
3, 383520, Control_c, 0, 91, 40
3, 383520, Control_c, 0, 0, 0
3, 383520, Control_c, 0, 121, 0
3, 390360, Note_on_c, 0, 50, 90
3, 390480, Note_on_c, 0, 50, 0
3, 390480, Note_on_c, 0, 62, 90
3, 390840, Note_on_c, 0, 62, 0
3, 390840, Note_on_c, 0, 61, 90
3, 390900, Note_on_c, 0, 61, 0
3, 390900, Note_on_c, 0, 59, 90
3, 390960, Note_on_c, 0, 59, 0
3, 390960, Note_on_c, 0, 57, 90
3, 391020, Note_on_c, 0, 57, 0
3, 391020, Note_on_c, 0, 55, 90
3, 391080, Note_on_c, 0, 55, 0
3, 391080, Note_on_c, 0, 53, 90
3, 391140, Note_on_c, 0, 53, 0
3, 391140, Note_on_c, 0, 52, 90
3, 391200, Note_on_c, 0, 52, 0
3, 391200, Note_on_c, 0, 50, 90
3, 391260, Note_on_c, 0, 50, 0
3, 391260, Note_on_c, 0, 49, 90
3, 391320, Note_on_c, 0, 49, 0
3, 391320, Note_on_c, 0, 50, 90
3, 391380, Note_on_c, 0, 50, 0
3, 391380, Note_on_c, 0, 52, 90
3, 391440, Note_on_c, 0, 52, 0
3, 391440, Note_on_c, 0, 53, 90
3, 391500, Note_on_c, 0, 53, 0
3, 391500, Note_on_c, 0, 50, 90
3, 391560, Note_on_c, 0, 50, 0
3, 391560, Note_on_c, 0, 52, 90
3, 391620, Note_on_c, 0, 52, 0
3, 391620, Note_on_c, 0, 53, 90
3, 391680, Note_on_c, 0, 53, 0
3, 391680, Note_on_c, 0, 55, 90
3, 391740, Note_on_c, 0, 55, 0
3, 391740, Note_on_c, 0, 54, 90
3, 391800, Note_on_c, 0, 54, 0
3, 391800, Note_on_c, 0, 55, 90
3, 391860, Note_on_c, 0, 55, 0
3, 391860, Note_on_c, 0, 57, 90
3, 391920, Note_on_c, 0, 57, 0
3, 391920, Note_on_c, 0, 58, 90
3, 391980, Note_on_c, 0, 58, 0
3, 391980, Note_on_c, 0, 55, 90
3, 392040, Note_on_c, 0, 55, 0
3, 392040, Note_on_c, 0, 57, 90
3, 392100, Note_on_c, 0, 57, 0
3, 392100, Note_on_c, 0, 58, 90
3, 392160, Note_on_c, 0, 58, 0
3, 392160, Note_on_c, 0, 58, 90
3, 392175, Note_on_c, 0, 58, 0
3, 392175, Note_on_c, 0, 60, 90
3, 392190, Note_on_c, 0, 60, 0
3, 392190, Note_on_c, 0, 58, 90
3, 392280, Note_on_c, 0, 58, 0
3, 392280, Note_on_c, 0, 57, 90
3, 392400, Note_on_c, 0, 57, 0
3, 392460, Note_on_c, 0, 57, 90
3, 392520, Note_on_c, 0, 57, 0
3, 392520, Note_on_c, 0, 55, 90
3, 392580, Note_on_c, 0, 55, 0
3, 392580, Note_on_c, 0, 57, 90
3, 392640, Note_on_c, 0, 57, 0
3, 392640, Note_on_c, 0, 58, 90
3, 392700, Note_on_c, 0, 58, 0
3, 392700, Note_on_c, 0, 62, 90
3, 392760, Note_on_c, 0, 62, 0
3, 392760, Note_on_c, 0, 60, 90
3, 392820, Note_on_c, 0, 60, 0
3, 392820, Note_on_c, 0, 58, 90
3, 392880, Note_on_c, 0, 58, 0
3, 392880, Note_on_c, 0, 60, 90
3, 392940, Note_on_c, 0, 60, 0
3, 392940, Note_on_c, 0, 58, 90
3, 393000, Note_on_c, 0, 58, 0
3, 393000, Note_on_c, 0, 57, 90
3, 393060, Note_on_c, 0, 57, 0
3, 393060, Note_on_c, 0, 55, 90
3, 393120, Note_on_c, 0, 55, 0
3, 393120, Note_on_c, 0, 53, 90
3, 393180, Note_on_c, 0, 53, 0
3, 393180, Note_on_c, 0, 58, 90
3, 393240, Note_on_c, 0, 58, 0
3, 393240, Note_on_c, 0, 57, 90
3, 393300, Note_on_c, 0, 57, 0
3, 393300, Note_on_c, 0, 55, 90
3, 393360, Note_on_c, 0, 55, 0
3, 393360, Note_on_c, 0, 57, 90
3, 393420, Note_on_c, 0, 57, 0
3, 393420, Note_on_c, 0, 55, 90
3, 393480, Note_on_c, 0, 55, 0
3, 393480, Note_on_c, 0, 53, 90
3, 393540, Note_on_c, 0, 53, 0
3, 393540, Note_on_c, 0, 52, 90
3, 393600, Note_on_c, 0, 52, 0
3, 393600, Note_on_c, 0, 50, 90
3, 393660, Note_on_c, 0, 50, 0
3, 393660, Note_on_c, 0, 55, 90
3, 393720, Note_on_c, 0, 55, 0
3, 393720, Note_on_c, 0, 57, 90
3, 393720, Note_on_c, 0, 53, 90
3, 393780, Note_on_c, 0, 53, 0
3, 393780, Note_on_c, 0, 52, 90
3, 393840, Note_on_c, 0, 52, 0
3, 393840, Note_on_c, 0, 57, 0
3, 393840, Note_on_c, 0, 69, 90
3, 393840, Note_on_c, 0, 53, 90
3, 393900, Note_on_c, 0, 53, 0
3, 393900, Note_on_c, 0, 52, 90
3, 393960, Note_on_c, 0, 52, 0
3, 393960, Note_on_c, 0, 50, 90
3, 394020, Note_on_c, 0, 50, 0
3, 394020, Note_on_c, 0, 48, 90
3, 394080, Note_on_c, 0, 48, 0
3, 394080, Note_on_c, 0, 50, 90
3, 394200, Note_on_c, 0, 50, 0
3, 394200, Note_on_c, 0, 69, 0
3, 394200, Note_on_c, 0, 68, 90
3, 394200, Note_on_c, 0, 47, 90
3, 394260, Note_on_c, 0, 68, 0
3, 394260, Note_on_c, 0, 66, 90
3, 394320, Note_on_c, 0, 66, 0
3, 394320, Note_on_c, 0, 47, 0
3, 394320, Note_on_c, 0, 64, 90
3, 394320, Note_on_c, 0, 52, 90
3, 394380, Note_on_c, 0, 64, 0
3, 394380, Note_on_c, 0, 62, 90
3, 394440, Note_on_c, 0, 62, 0
3, 394440, Note_on_c, 0, 60, 90
3, 394500, Note_on_c, 0, 60, 0
3, 394500, Note_on_c, 0, 59, 90
3, 394560, Note_on_c, 0, 59, 0
3, 394560, Note_on_c, 0, 52, 0
3, 394560, Note_on_c, 0, 57, 90
3, 394560, Note_on_c, 0, 45, 90
3, 394620, Note_on_c, 0, 57, 0
3, 394620, Note_on_c, 0, 56, 90
3, 394680, Note_on_c, 0, 56, 0
3, 394680, Note_on_c, 0, 57, 90
3, 394740, Note_on_c, 0, 57, 0
3, 394740, Note_on_c, 0, 59, 90
3, 394800, Note_on_c, 0, 59, 0
3, 394800, Note_on_c, 0, 45, 0
3, 394800, Note_on_c, 0, 60, 90
3, 394860, Note_on_c, 0, 60, 0
3, 394860, Note_on_c, 0, 57, 90
3, 394920, Note_on_c, 0, 57, 0
3, 394920, Note_on_c, 0, 59, 90
3, 394980, Note_on_c, 0, 59, 0
3, 394980, Note_on_c, 0, 60, 90
3, 395040, Note_on_c, 0, 60, 0
3, 395040, Note_on_c, 0, 62, 90
3, 395100, Note_on_c, 0, 62, 0
3, 395100, Note_on_c, 0, 61, 90
3, 395100, Note_on_c, 0, 55, 90
3, 395160, Note_on_c, 0, 55, 0
3, 395160, Note_on_c, 0, 61, 0
3, 395160, Note_on_c, 0, 62, 90
3, 395160, Note_on_c, 0, 53, 90
3, 395220, Note_on_c, 0, 53, 0
3, 395220, Note_on_c, 0, 62, 0
3, 395220, Note_on_c, 0, 64, 90
3, 395220, Note_on_c, 0, 52, 90
3, 395280, Note_on_c, 0, 52, 0
3, 395280, Note_on_c, 0, 64, 0
3, 395280, Note_on_c, 0, 65, 90
3, 395280, Note_on_c, 0, 50, 90
3, 395340, Note_on_c, 0, 50, 0
3, 395340, Note_on_c, 0, 65, 0
3, 395340, Note_on_c, 0, 62, 90
3, 395340, Note_on_c, 0, 48, 90
3, 395400, Note_on_c, 0, 48, 0
3, 395400, Note_on_c, 0, 62, 0
3, 395400, Note_on_c, 0, 64, 90
3, 395400, Note_on_c, 0, 47, 90
3, 395460, Note_on_c, 0, 47, 0
3, 395460, Note_on_c, 0, 64, 0
3, 395460, Note_on_c, 0, 65, 90
3, 395460, Note_on_c, 0, 45, 90
3, 395520, Note_on_c, 0, 45, 0
3, 395520, Note_on_c, 0, 65, 0
3, 395520, Note_on_c, 0, 65, 90
3, 395520, Note_on_c, 0, 45, 90
3, 395535, Note_on_c, 0, 45, 0
3, 395535, Note_on_c, 0, 65, 0
3, 395535, Note_on_c, 0, 67, 90
3, 395535, Note_on_c, 0, 44, 90
3, 395550, Note_on_c, 0, 44, 0
3, 395550, Note_on_c, 0, 67, 0
3, 395550, Note_on_c, 0, 65, 90
3, 395550, Note_on_c, 0, 45, 90
3, 395565, Note_on_c, 0, 45, 0
3, 395565, Note_on_c, 0, 44, 90
3, 395580, Note_on_c, 0, 44, 0
3, 395580, Note_on_c, 0, 45, 90
3, 395595, Note_on_c, 0, 45, 0
3, 395595, Note_on_c, 0, 44, 90
3, 395610, Note_on_c, 0, 44, 0
3, 395610, Note_on_c, 0, 45, 90
3, 395625, Note_on_c, 0, 45, 0
3, 395625, Note_on_c, 0, 44, 90
3, 395640, Note_on_c, 0, 44, 0
3, 395640, Note_on_c, 0, 65, 0
3, 395640, Note_on_c, 0, 64, 90
3, 395640, Note_on_c, 0, 45, 90
3, 395655, Note_on_c, 0, 45, 0
3, 395655, Note_on_c, 0, 44, 90
3, 395670, Note_on_c, 0, 44, 0
3, 395670, Note_on_c, 0, 45, 90
3, 395685, Note_on_c, 0, 45, 0
3, 395685, Note_on_c, 0, 44, 90
3, 395700, Note_on_c, 0, 44, 0
3, 395700, Note_on_c, 0, 42, 90
3, 395730, Note_on_c, 0, 42, 0
3, 395730, Note_on_c, 0, 44, 90
3, 395760, Note_on_c, 0, 44, 0
3, 395760, Note_on_c, 0, 64, 0
3, 395760, Note_on_c, 0, 45, 90
3, 395820, Note_on_c, 0, 45, 0
3, 395820, Note_on_c, 0, 64, 90
3, 395820, Note_on_c, 0, 43, 90
3, 395880, Note_on_c, 0, 43, 0
3, 395880, Note_on_c, 0, 64, 0
3, 395880, Note_on_c, 0, 62, 90
3, 395880, Note_on_c, 0, 41, 90
3, 395940, Note_on_c, 0, 41, 0
3, 395940, Note_on_c, 0, 62, 0
3, 395940, Note_on_c, 0, 64, 90
3, 395940, Note_on_c, 0, 40, 90
3, 396000, Note_on_c, 0, 40, 0
3, 396000, Note_on_c, 0, 64, 0
3, 396000, Note_on_c, 0, 65, 90
3, 396000, Note_on_c, 0, 38, 90
3, 396060, Note_on_c, 0, 65, 0
3, 396060, Note_on_c, 0, 69, 90
3, 396120, Note_on_c, 0, 69, 0
3, 396120, Note_on_c, 0, 38, 0
3, 396120, Note_on_c, 0, 67, 90
3, 396120, Note_on_c, 0, 50, 90
3, 396180, Note_on_c, 0, 67, 0
3, 396180, Note_on_c, 0, 65, 90
3, 396240, Note_on_c, 0, 65, 0
3, 396240, Note_on_c, 0, 50, 0
3, 396240, Note_on_c, 0, 67, 90
3, 396240, Note_on_c, 0, 52, 90
3, 396300, Note_on_c, 0, 67, 0
3, 396300, Note_on_c, 0, 65, 90
3, 396360, Note_on_c, 0, 65, 0
3, 396360, Note_on_c, 0, 52, 0
3, 396360, Note_on_c, 0, 64, 90
3, 396360, Note_on_c, 0, 48, 90
3, 396420, Note_on_c, 0, 64, 0
3, 396420, Note_on_c, 0, 62, 90
3, 396480, Note_on_c, 0, 62, 0
3, 396480, Note_on_c, 0, 48, 0
3, 396480, Note_on_c, 0, 60, 90
3, 396480, Note_on_c, 0, 53, 90
3, 396540, Note_on_c, 0, 60, 0
3, 396540, Note_on_c, 0, 65, 90
3, 396600, Note_on_c, 0, 65, 0
3, 396600, Note_on_c, 0, 53, 0
3, 396600, Note_on_c, 0, 64, 90
3, 396600, Note_on_c, 0, 47, 90
3, 396660, Note_on_c, 0, 64, 0
3, 396660, Note_on_c, 0, 62, 90
3, 396720, Note_on_c, 0, 62, 0
3, 396720, Note_on_c, 0, 47, 0
3, 396720, Note_on_c, 0, 64, 90
3, 396720, Note_on_c, 0, 49, 90
3, 396780, Note_on_c, 0, 64, 0
3, 396780, Note_on_c, 0, 62, 90
3, 396840, Note_on_c, 0, 62, 0
3, 396840, Note_on_c, 0, 49, 0
3, 396840, Note_on_c, 0, 60, 90
3, 396840, Note_on_c, 0, 45, 90
3, 396900, Note_on_c, 0, 60, 0
3, 396900, Note_on_c, 0, 58, 90
3, 396960, Note_on_c, 0, 58, 0
3, 396960, Note_on_c, 0, 45, 0
3, 396960, Note_on_c, 0, 57, 90
3, 396960, Note_on_c, 0, 50, 90
3, 397080, Note_on_c, 0, 57, 0
3, 397080, Note_on_c, 0, 58, 90
3, 397140, Note_on_c, 0, 58, 0
3, 397140, Note_on_c, 0, 57, 90
3, 397200, Note_on_c, 0, 57, 0
3, 397200, Note_on_c, 0, 50, 0
3, 397200, Note_on_c, 0, 58, 90
3, 397320, Note_on_c, 0, 50, 90
3, 397440, Note_on_c, 0, 50, 0
3, 397440, Note_on_c, 0, 52, 90
3, 397560, Note_on_c, 0, 58, 0
3, 397560, Note_on_c, 0, 60, 90
3, 397620, Note_on_c, 0, 60, 0
3, 397620, Note_on_c, 0, 58, 90
3, 397680, Note_on_c, 0, 58, 0
3, 397680, Note_on_c, 0, 52, 0
3, 397680, Note_on_c, 0, 60, 90
3, 397800, Note_on_c, 0, 48, 90
3, 397920, Note_on_c, 0, 48, 0
3, 397920, Note_on_c, 0, 53, 90
3, 397980, Note_on_c, 0, 53, 0
3, 397980, Note_on_c, 0, 57, 90
3, 398040, Note_on_c, 0, 57, 0
3, 398040, Note_on_c, 0, 60, 0
3, 398040, Note_on_c, 0, 55, 90
3, 398100, Note_on_c, 0, 55, 0
3, 398100, Note_on_c, 0, 53, 90
3, 398160, Note_on_c, 0, 53, 0
3, 398160, Note_on_c, 0, 55, 90
3, 398220, Note_on_c, 0, 55, 0
3, 398220, Note_on_c, 0, 53, 90
3, 398280, Note_on_c, 0, 53, 0
3, 398280, Note_on_c, 0, 52, 90
3, 398340, Note_on_c, 0, 52, 0
3, 398340, Note_on_c, 0, 50, 90
3, 398400, Note_on_c, 0, 50, 0
3, 398400, Note_on_c, 0, 55, 90
3, 398460, Note_on_c, 0, 55, 0
3, 398460, Note_on_c, 0, 58, 90
3, 398520, Note_on_c, 0, 58, 0
3, 398520, Note_on_c, 0, 57, 90
3, 398580, Note_on_c, 0, 57, 0
3, 398580, Note_on_c, 0, 55, 90
3, 398640, Note_on_c, 0, 55, 0
3, 398640, Note_on_c, 0, 57, 90
3, 398700, Note_on_c, 0, 57, 0
3, 398700, Note_on_c, 0, 55, 90
3, 398760, Note_on_c, 0, 55, 0
3, 398760, Note_on_c, 0, 53, 90
3, 398820, Note_on_c, 0, 53, 0
3, 398820, Note_on_c, 0, 52, 90
3, 398880, Note_on_c, 0, 52, 0
3, 398880, Note_on_c, 0, 57, 90
3, 399120, Note_on_c, 0, 57, 0
3, 399240, Note_on_c, 0, 58, 90
3, 399360, Note_on_c, 0, 58, 0
3, 399360, Note_on_c, 0, 55, 90
3, 399480, Note_on_c, 0, 55, 0
3, 399480, Note_on_c, 0, 52, 90
3, 399600, Note_on_c, 0, 52, 0
3, 399600, Note_on_c, 0, 57, 90
3, 399720, Note_on_c, 0, 57, 0
3, 399720, Note_on_c, 0, 45, 90
3, 399840, Note_on_c, 0, 45, 0
3, 399840, Note_on_c, 0, 46, 90
3, 399960, Note_on_c, 0, 46, 0
3, 399960, Note_on_c, 0, 50, 90
3, 399960, Note_on_c, 0, 53, 90
3, 400080, Note_on_c, 0, 53, 0
3, 400080, Note_on_c, 0, 50, 0
3, 400080, Note_on_c, 0, 62, 90
3, 400080, Note_on_c, 0, 58, 90
3, 400320, Note_on_c, 0, 58, 0
3, 400320, Note_on_c, 0, 57, 90
3, 400440, Note_on_c, 0, 62, 0
3, 400440, Note_on_c, 0, 61, 90
3, 400500, Note_on_c, 0, 61, 0
3, 400500, Note_on_c, 0, 59, 90
3, 400560, Note_on_c, 0, 59, 0
3, 400560, Note_on_c, 0, 57, 0
3, 400560, Note_on_c, 0, 57, 90
3, 400620, Note_on_c, 0, 57, 0
3, 400620, Note_on_c, 0, 55, 90
3, 400680, Note_on_c, 0, 55, 0
3, 400680, Note_on_c, 0, 53, 90
3, 400740, Note_on_c, 0, 53, 0
3, 400740, Note_on_c, 0, 52, 90
3, 400800, Note_on_c, 0, 52, 0
3, 400800, Note_on_c, 0, 50, 90
3, 400860, Note_on_c, 0, 50, 0
3, 400860, Note_on_c, 0, 49, 90
3, 400920, Note_on_c, 0, 49, 0
3, 400920, Note_on_c, 0, 50, 90
3, 400980, Note_on_c, 0, 50, 0
3, 400980, Note_on_c, 0, 52, 90
3, 401040, Note_on_c, 0, 52, 0
3, 401040, Note_on_c, 0, 53, 90
3, 401100, Note_on_c, 0, 53, 0
3, 401100, Note_on_c, 0, 50, 90
3, 401160, Note_on_c, 0, 50, 0
3, 401160, Note_on_c, 0, 52, 90
3, 401220, Note_on_c, 0, 52, 0
3, 401220, Note_on_c, 0, 53, 90
3, 401280, Note_on_c, 0, 53, 0
3, 401280, Note_on_c, 0, 55, 90
3, 401340, Note_on_c, 0, 55, 0
3, 401340, Note_on_c, 0, 54, 90
3, 401400, Note_on_c, 0, 54, 0
3, 401400, Note_on_c, 0, 55, 90
3, 401460, Note_on_c, 0, 55, 0
3, 401460, Note_on_c, 0, 57, 90
3, 401520, Note_on_c, 0, 57, 0
3, 401520, Note_on_c, 0, 58, 90
3, 401580, Note_on_c, 0, 58, 0
3, 401580, Note_on_c, 0, 55, 90
3, 401640, Note_on_c, 0, 55, 0
3, 401640, Note_on_c, 0, 57, 90
3, 401700, Note_on_c, 0, 57, 0
3, 401700, Note_on_c, 0, 58, 90
3, 401760, Note_on_c, 0, 58, 0
3, 401760, Note_on_c, 0, 58, 90
3, 401775, Note_on_c, 0, 58, 0
3, 401775, Note_on_c, 0, 60, 90
3, 401790, Note_on_c, 0, 60, 0
3, 401790, Note_on_c, 0, 58, 90
3, 401880, Note_on_c, 0, 58, 0
3, 401880, Note_on_c, 0, 57, 90
3, 402000, Note_on_c, 0, 57, 0
3, 402060, Note_on_c, 0, 57, 90
3, 402120, Note_on_c, 0, 57, 0
3, 402120, Note_on_c, 0, 55, 90
3, 402180, Note_on_c, 0, 55, 0
3, 402180, Note_on_c, 0, 57, 90
3, 402240, Note_on_c, 0, 57, 0
3, 402240, Note_on_c, 0, 58, 90
3, 402300, Note_on_c, 0, 58, 0
3, 402300, Note_on_c, 0, 62, 90
3, 402360, Note_on_c, 0, 62, 0
3, 402360, Note_on_c, 0, 60, 90
3, 402420, Note_on_c, 0, 60, 0
3, 402420, Note_on_c, 0, 58, 90
3, 402480, Note_on_c, 0, 58, 0
3, 402480, Note_on_c, 0, 60, 90
3, 402540, Note_on_c, 0, 60, 0
3, 402540, Note_on_c, 0, 58, 90
3, 402600, Note_on_c, 0, 58, 0
3, 402600, Note_on_c, 0, 57, 90
3, 402660, Note_on_c, 0, 57, 0
3, 402660, Note_on_c, 0, 55, 90
3, 402720, Note_on_c, 0, 55, 0
3, 402720, Note_on_c, 0, 53, 90
3, 402780, Note_on_c, 0, 53, 0
3, 402780, Note_on_c, 0, 58, 90
3, 402840, Note_on_c, 0, 58, 0
3, 402840, Note_on_c, 0, 57, 90
3, 402900, Note_on_c, 0, 57, 0
3, 402900, Note_on_c, 0, 55, 90
3, 402960, Note_on_c, 0, 55, 0
3, 402960, Note_on_c, 0, 57, 90
3, 403020, Note_on_c, 0, 57, 0
3, 403020, Note_on_c, 0, 55, 90
3, 403080, Note_on_c, 0, 55, 0
3, 403080, Note_on_c, 0, 53, 90
3, 403140, Note_on_c, 0, 53, 0
3, 403140, Note_on_c, 0, 52, 90
3, 403200, Note_on_c, 0, 52, 0
3, 403200, Note_on_c, 0, 50, 90
3, 403440, Note_on_c, 0, 50, 0
3, 403500, Note_on_c, 0, 50, 90
3, 403560, Note_on_c, 0, 50, 0
3, 403560, Note_on_c, 0, 52, 90
3, 403620, Note_on_c, 0, 52, 0
3, 403620, Note_on_c, 0, 53, 90
3, 403680, Note_on_c, 0, 53, 0
3, 403680, Note_on_c, 0, 55, 90
3, 403740, Note_on_c, 0, 55, 0
3, 403740, Note_on_c, 0, 57, 90
3, 403800, Note_on_c, 0, 57, 0
3, 403800, Note_on_c, 0, 55, 90
3, 403860, Note_on_c, 0, 55, 0
3, 403860, Note_on_c, 0, 53, 90
3, 403920, Note_on_c, 0, 53, 0
3, 403920, Note_on_c, 0, 55, 90
3, 403980, Note_on_c, 0, 55, 0
3, 403980, Note_on_c, 0, 53, 90
3, 404040, Note_on_c, 0, 53, 0
3, 404040, Note_on_c, 0, 52, 90
3, 404100, Note_on_c, 0, 52, 0
3, 404100, Note_on_c, 0, 50, 90
3, 404160, Note_on_c, 0, 50, 0
3, 404160, Note_on_c, 0, 52, 90
3, 404220, Note_on_c, 0, 52, 0
3, 404220, Note_on_c, 0, 53, 90
3, 404280, Note_on_c, 0, 53, 0
3, 404280, Note_on_c, 0, 52, 90
3, 404340, Note_on_c, 0, 52, 0
3, 404340, Note_on_c, 0, 50, 90
3, 404400, Note_on_c, 0, 50, 0
3, 404400, Note_on_c, 0, 52, 90
3, 404460, Note_on_c, 0, 52, 0
3, 404460, Note_on_c, 0, 48, 90
3, 404520, Note_on_c, 0, 48, 0
3, 404520, Note_on_c, 0, 50, 90
3, 404580, Note_on_c, 0, 50, 0
3, 404580, Note_on_c, 0, 52, 90
3, 404640, Note_on_c, 0, 52, 0
3, 404640, Note_on_c, 0, 53, 90
3, 405120, Note_on_c, 0, 53, 0
3, 405120, Note_on_c, 0, 60, 90
3, 405600, Note_on_c, 0, 60, 0
3, 405600, Note_on_c, 0, 57, 90
3, 406080, Note_on_c, 0, 57, 0
3, 406080, Note_on_c, 0, 53, 90
3, 406560, Note_on_c, 0, 53, 0
3, 406560, Note_on_c, 0, 52, 90
3, 407040, Note_on_c, 0, 52, 0
3, 407040, Note_on_c, 0, 53, 90
3, 407280, Note_on_c, 0, 53, 0
3, 407280, Note_on_c, 0, 55, 90
3, 407520, Note_on_c, 0, 55, 0
3, 407520, Note_on_c, 0, 57, 90
3, 408120, Note_on_c, 0, 57, 0
3, 408120, Note_on_c, 0, 58, 90
3, 408240, Note_on_c, 0, 58, 0
3, 408240, Note_on_c, 0, 57, 90
3, 408360, Note_on_c, 0, 57, 0
3, 408360, Note_on_c, 0, 55, 90
3, 408480, Note_on_c, 0, 55, 0
3, 408480, Note_on_c, 0, 53, 90
3, 408600, Note_on_c, 0, 53, 0
3, 408600, Note_on_c, 0, 62, 90
3, 408720, Note_on_c, 0, 62, 0
3, 408720, Note_on_c, 0, 60, 90
3, 408840, Note_on_c, 0, 60, 0
3, 408840, Note_on_c, 0, 59, 90
3, 408960, Note_on_c, 0, 59, 0
3, 408960, Note_on_c, 0, 57, 90
3, 409080, Note_on_c, 0, 57, 0
3, 409080, Note_on_c, 0, 65, 90
3, 409200, Note_on_c, 0, 65, 0
3, 409200, Note_on_c, 0, 64, 90
3, 409320, Note_on_c, 0, 64, 0
3, 409320, Note_on_c, 0, 62, 90
3, 409440, Note_on_c, 0, 62, 0
3, 409440, Note_on_c, 0, 60, 90
3, 409680, Note_on_c, 0, 60, 0
3, 409680, Note_on_c, 0, 59, 90
3, 409920, Note_on_c, 0, 59, 0
3, 409920, Note_on_c, 0, 57, 90
3, 410160, Note_on_c, 0, 57, 0
3, 410160, Note_on_c, 0, 55, 90
3, 410400, Note_on_c, 0, 55, 0
3, 410400, Note_on_c, 0, 53, 90
3, 410460, Note_on_c, 0, 53, 0
3, 410460, Note_on_c, 0, 58, 90
3, 410520, Note_on_c, 0, 58, 0
3, 410520, Note_on_c, 0, 57, 90
3, 410580, Note_on_c, 0, 57, 0
3, 410580, Note_on_c, 0, 55, 90
3, 410640, Note_on_c, 0, 55, 0
3, 410640, Note_on_c, 0, 57, 90
3, 410700, Note_on_c, 0, 57, 0
3, 410700, Note_on_c, 0, 55, 90
3, 410760, Note_on_c, 0, 55, 0
3, 410760, Note_on_c, 0, 53, 90
3, 410820, Note_on_c, 0, 53, 0
3, 410820, Note_on_c, 0, 52, 90
3, 410880, Note_on_c, 0, 52, 0
3, 410880, Note_on_c, 0, 53, 90
3, 410940, Note_on_c, 0, 53, 0
3, 410940, Note_on_c, 0, 55, 90
3, 411000, Note_on_c, 0, 55, 0
3, 411000, Note_on_c, 0, 53, 90
3, 411060, Note_on_c, 0, 53, 0
3, 411060, Note_on_c, 0, 52, 90
3, 411120, Note_on_c, 0, 52, 0
3, 411120, Note_on_c, 0, 53, 90
3, 411180, Note_on_c, 0, 53, 0
3, 411180, Note_on_c, 0, 52, 90
3, 411240, Note_on_c, 0, 52, 0
3, 411240, Note_on_c, 0, 50, 90
3, 411300, Note_on_c, 0, 50, 0
3, 411300, Note_on_c, 0, 49, 90
3, 411360, Note_on_c, 0, 49, 0
3, 411360, Note_on_c, 0, 50, 90
3, 411480, Note_on_c, 0, 38, 90
3, 411600, Note_on_c, 0, 38, 0
3, 411600, Note_on_c, 0, 50, 0
3, 411600, Note_on_c, 0, 50, 90
3, 411960, Note_on_c, 0, 50, 0
3, 411960, Note_on_c, 0, 49, 90
3, 412020, Note_on_c, 0, 49, 0
3, 412020, Note_on_c, 0, 47, 90
3, 412080, Note_on_c, 0, 47, 0
3, 412080, Note_on_c, 0, 45, 90
3, 412140, Note_on_c, 0, 45, 0
3, 412140, Note_on_c, 0, 43, 90
3, 412200, Note_on_c, 0, 43, 0
3, 412200, Note_on_c, 0, 41, 90
3, 412260, Note_on_c, 0, 41, 0
3, 412260, Note_on_c, 0, 40, 90
3, 412320, Note_on_c, 0, 40, 0
3, 412320, Note_on_c, 0, 38, 90
3, 412380, Note_on_c, 0, 38, 0
3, 412380, Note_on_c, 0, 37, 90
3, 412440, Note_on_c, 0, 37, 0
3, 412440, Note_on_c, 0, 38, 90
3, 412500, Note_on_c, 0, 38, 0
3, 412500, Note_on_c, 0, 40, 90
3, 412560, Note_on_c, 0, 40, 0
3, 412560, Note_on_c, 0, 41, 90
3, 412620, Note_on_c, 0, 41, 0
3, 412620, Note_on_c, 0, 38, 90
3, 412680, Note_on_c, 0, 38, 0
3, 412680, Note_on_c, 0, 40, 90
3, 412740, Note_on_c, 0, 40, 0
3, 412740, Note_on_c, 0, 41, 90
3, 412800, Note_on_c, 0, 41, 0
3, 412800, Note_on_c, 0, 43, 90
3, 412860, Note_on_c, 0, 43, 0
3, 412860, Note_on_c, 0, 42, 90
3, 412920, Note_on_c, 0, 42, 0
3, 412920, Note_on_c, 0, 43, 90
3, 412980, Note_on_c, 0, 43, 0
3, 412980, Note_on_c, 0, 45, 90
3, 413040, Note_on_c, 0, 45, 0
3, 413040, Note_on_c, 0, 46, 90
3, 413100, Note_on_c, 0, 46, 0
3, 413100, Note_on_c, 0, 43, 90
3, 413160, Note_on_c, 0, 43, 0
3, 413160, Note_on_c, 0, 45, 90
3, 413220, Note_on_c, 0, 45, 0
3, 413220, Note_on_c, 0, 46, 90
3, 413280, Note_on_c, 0, 46, 0
3, 413280, Note_on_c, 0, 46, 90
3, 413295, Note_on_c, 0, 46, 0
3, 413295, Note_on_c, 0, 48, 90
3, 413310, Note_on_c, 0, 48, 0
3, 413310, Note_on_c, 0, 46, 90
3, 413400, Note_on_c, 0, 46, 0
3, 413400, Note_on_c, 0, 45, 90
3, 413520, Note_on_c, 0, 45, 0
3, 413580, Note_on_c, 0, 45, 90
3, 413640, Note_on_c, 0, 45, 0
3, 413640, Note_on_c, 0, 43, 90
3, 413700, Note_on_c, 0, 43, 0
3, 413700, Note_on_c, 0, 45, 90
3, 413760, Note_on_c, 0, 45, 0
3, 413760, Note_on_c, 0, 46, 90
3, 413820, Note_on_c, 0, 46, 0
3, 413820, Note_on_c, 0, 50, 90
3, 413880, Note_on_c, 0, 50, 0
3, 413880, Note_on_c, 0, 48, 90
3, 413940, Note_on_c, 0, 48, 0
3, 413940, Note_on_c, 0, 46, 90
3, 414000, Note_on_c, 0, 46, 0
3, 414000, Note_on_c, 0, 48, 90
3, 414060, Note_on_c, 0, 48, 0
3, 414060, Note_on_c, 0, 46, 90
3, 414120, Note_on_c, 0, 46, 0
3, 414120, Note_on_c, 0, 45, 90
3, 414180, Note_on_c, 0, 45, 0
3, 414180, Note_on_c, 0, 43, 90
3, 414240, Note_on_c, 0, 43, 0
3, 414240, Note_on_c, 0, 41, 90
3, 414300, Note_on_c, 0, 41, 0
3, 414300, Note_on_c, 0, 46, 90
3, 414360, Note_on_c, 0, 46, 0
3, 414360, Note_on_c, 0, 45, 90
3, 414420, Note_on_c, 0, 45, 0
3, 414420, Note_on_c, 0, 43, 90
3, 414480, Note_on_c, 0, 43, 0
3, 414480, Note_on_c, 0, 45, 90
3, 414540, Note_on_c, 0, 45, 0
3, 414540, Note_on_c, 0, 43, 90
3, 414600, Note_on_c, 0, 43, 0
3, 414600, Note_on_c, 0, 41, 90
3, 414660, Note_on_c, 0, 41, 0
3, 414660, Note_on_c, 0, 40, 90
3, 414720, Note_on_c, 0, 40, 0
3, 414720, Note_on_c, 0, 38, 90
3, 414960, Note_on_c, 0, 38, 0
3, 415320, Note_on_c, 0, 38, 90
3, 415440, Note_on_c, 0, 38, 0
3, 415440, Note_on_c, 0, 40, 90
3, 415560, Note_on_c, 0, 40, 0
3, 415560, Note_on_c, 0, 41, 90
3, 415680, Note_on_c, 0, 41, 0
3, 415680, Note_on_c, 0, 43, 90
3, 415800, Note_on_c, 0, 43, 0
3, 415800, Note_on_c, 0, 55, 90
3, 415920, Note_on_c, 0, 55, 0
3, 415920, Note_on_c, 0, 52, 90
3, 416040, Note_on_c, 0, 52, 0
3, 416040, Note_on_c, 0, 55, 90
3, 416160, Note_on_c, 0, 55, 0
3, 416160, Note_on_c, 0, 48, 90
3, 416280, Note_on_c, 0, 48, 0
3, 416280, Note_on_c, 0, 36, 90
3, 416400, Note_on_c, 0, 36, 0
3, 416400, Note_on_c, 0, 38, 90
3, 416520, Note_on_c, 0, 38, 0
3, 416520, Note_on_c, 0, 40, 90
3, 416640, Note_on_c, 0, 40, 0
3, 416640, Note_on_c, 0, 41, 90
3, 416760, Note_on_c, 0, 41, 0
3, 416760, Note_on_c, 0, 57, 90
3, 416880, Note_on_c, 0, 57, 0
3, 416880, Note_on_c, 0, 50, 90
3, 417000, Note_on_c, 0, 50, 0
3, 417000, Note_on_c, 0, 53, 90
3, 417120, Note_on_c, 0, 53, 0
3, 417120, Note_on_c, 0, 47, 90
3, 417240, Note_on_c, 0, 47, 0
3, 417240, Note_on_c, 0, 50, 90
3, 417360, Note_on_c, 0, 50, 0
3, 417360, Note_on_c, 0, 44, 90
3, 417480, Note_on_c, 0, 44, 0
3, 417480, Note_on_c, 0, 47, 90
3, 417600, Note_on_c, 0, 47, 0
3, 417600, Note_on_c, 0, 40, 90
3, 417720, Note_on_c, 0, 40, 0
3, 417720, Note_on_c, 0, 52, 90
3, 417840, Note_on_c, 0, 52, 0
3, 417840, Note_on_c, 0, 54, 90
3, 417960, Note_on_c, 0, 54, 0
3, 417960, Note_on_c, 0, 56, 90
3, 418080, Note_on_c, 0, 56, 0
3, 418080, Note_on_c, 0, 57, 90
3, 418080, Note_on_c, 0, 57, 90
3, 418560, Note_on_c, 0, 57, 0
3, 418560, Note_on_c, 0, 64, 90
3, 418620, Note_on_c, 0, 57, 0
3, 418620, Note_on_c, 0, 56, 90
3, 418680, Note_on_c, 0, 56, 0
3, 418680, Note_on_c, 0, 57, 90
3, 418740, Note_on_c, 0, 57, 0
3, 418740, Note_on_c, 0, 54, 90
3, 418800, Note_on_c, 0, 54, 0
3, 418800, Note_on_c, 0, 56, 90
3, 418920, Note_on_c, 0, 56, 0
3, 418920, Note_on_c, 0, 59, 90
3, 419040, Note_on_c, 0, 59, 0
3, 419040, Note_on_c, 0, 64, 0
3, 419040, Note_on_c, 0, 60, 90
3, 419040, Note_on_c, 0, 59, 90
3, 419160, Note_on_c, 0, 59, 0
3, 419160, Note_on_c, 0, 57, 90
3, 419280, Note_on_c, 0, 57, 0
3, 419400, Note_on_c, 0, 52, 90
3, 419520, Note_on_c, 0, 52, 0
3, 419520, Note_on_c, 0, 60, 0
3, 419520, Note_on_c, 0, 57, 90
3, 419520, Note_on_c, 0, 53, 90
3, 420000, Note_on_c, 0, 53, 0
3, 420000, Note_on_c, 0, 57, 0
3, 420000, Note_on_c, 0, 56, 90
3, 420000, Note_on_c, 0, 52, 90
3, 420480, Note_on_c, 0, 52, 0
3, 420480, Note_on_c, 0, 56, 0
3, 420480, Note_on_c, 0, 57, 90
3, 420720, Note_on_c, 0, 57, 0
3, 420720, Note_on_c, 0, 59, 90
3, 420960, Note_on_c, 0, 59, 0
3, 420960, Note_on_c, 0, 60, 90
3, 421500, Note_on_c, 0, 50, 90
3, 421560, Note_on_c, 0, 50, 0
3, 421560, Note_on_c, 0, 60, 0
3, 421560, Note_on_c, 0, 62, 90
3, 421560, Note_on_c, 0, 48, 90
3, 421620, Note_on_c, 0, 48, 0
3, 421620, Note_on_c, 0, 47, 90
3, 421680, Note_on_c, 0, 47, 0
3, 421680, Note_on_c, 0, 62, 0
3, 421680, Note_on_c, 0, 60, 90
3, 421680, Note_on_c, 0, 48, 90
3, 421740, Note_on_c, 0, 48, 0
3, 421740, Note_on_c, 0, 47, 90
3, 421800, Note_on_c, 0, 47, 0
3, 421800, Note_on_c, 0, 60, 0
3, 421800, Note_on_c, 0, 59, 90
3, 421800, Note_on_c, 0, 45, 90
3, 421860, Note_on_c, 0, 45, 0
3, 421860, Note_on_c, 0, 44, 90
3, 421920, Note_on_c, 0, 44, 0
3, 421920, Note_on_c, 0, 59, 0
3, 421920, Note_on_c, 0, 57, 90
3, 421920, Note_on_c, 0, 45, 90
3, 421980, Note_on_c, 0, 57, 0
3, 421980, Note_on_c, 0, 56, 90
3, 422040, Note_on_c, 0, 56, 0
3, 422040, Note_on_c, 0, 45, 0
3, 422040, Note_on_c, 0, 57, 90
3, 422100, Note_on_c, 0, 57, 0
3, 422100, Note_on_c, 0, 59, 90
3, 422160, Note_on_c, 0, 59, 0
3, 422160, Note_on_c, 0, 60, 90
3, 422220, Note_on_c, 0, 60, 0
3, 422220, Note_on_c, 0, 57, 90
3, 422280, Note_on_c, 0, 57, 0
3, 422280, Note_on_c, 0, 59, 90
3, 422340, Note_on_c, 0, 59, 0
3, 422340, Note_on_c, 0, 60, 90
3, 422400, Note_on_c, 0, 60, 0
3, 422400, Note_on_c, 0, 62, 90
3, 422460, Note_on_c, 0, 62, 0
3, 422460, Note_on_c, 0, 61, 90
3, 422520, Note_on_c, 0, 61, 0
3, 422520, Note_on_c, 0, 62, 90
3, 422580, Note_on_c, 0, 62, 0
3, 422580, Note_on_c, 0, 64, 90
3, 422640, Note_on_c, 0, 64, 0
3, 422640, Note_on_c, 0, 66, 90
3, 422700, Note_on_c, 0, 66, 0
3, 422700, Note_on_c, 0, 62, 90
3, 422760, Note_on_c, 0, 62, 0
3, 422760, Note_on_c, 0, 64, 90
3, 422820, Note_on_c, 0, 64, 0
3, 422820, Note_on_c, 0, 66, 90
3, 422880, Note_on_c, 0, 66, 0
3, 422880, Note_on_c, 0, 55, 90
3, 422940, Note_on_c, 0, 55, 0
3, 422940, Note_on_c, 0, 54, 90
3, 423000, Note_on_c, 0, 54, 0
3, 423000, Note_on_c, 0, 55, 90
3, 423060, Note_on_c, 0, 55, 0
3, 423060, Note_on_c, 0, 57, 90
3, 423120, Note_on_c, 0, 57, 0
3, 423120, Note_on_c, 0, 59, 90
3, 423180, Note_on_c, 0, 59, 0
3, 423180, Note_on_c, 0, 55, 90
3, 423240, Note_on_c, 0, 55, 0
3, 423240, Note_on_c, 0, 57, 90
3, 423300, Note_on_c, 0, 57, 0
3, 423300, Note_on_c, 0, 59, 90
3, 423360, Note_on_c, 0, 59, 0
3, 423360, Note_on_c, 0, 60, 90
3, 423420, Note_on_c, 0, 60, 0
3, 423420, Note_on_c, 0, 59, 90
3, 423480, Note_on_c, 0, 59, 0
3, 423480, Note_on_c, 0, 60, 90
3, 423540, Note_on_c, 0, 60, 0
3, 423540, Note_on_c, 0, 62, 90
3, 423600, Note_on_c, 0, 62, 0
3, 423600, Note_on_c, 0, 64, 90
3, 423660, Note_on_c, 0, 64, 0
3, 423660, Note_on_c, 0, 60, 90
3, 423720, Note_on_c, 0, 60, 0
3, 423720, Note_on_c, 0, 62, 90
3, 423780, Note_on_c, 0, 62, 0
3, 423780, Note_on_c, 0, 64, 90
3, 423840, Note_on_c, 0, 64, 0
3, 423840, Note_on_c, 0, 53, 90
3, 423960, Note_on_c, 0, 53, 0
3, 423960, Note_on_c, 0, 52, 90
3, 424080, Note_on_c, 0, 52, 0
3, 424080, Note_on_c, 0, 54, 90
3, 424200, Note_on_c, 0, 54, 0
3, 424200, Note_on_c, 0, 50, 90
3, 424320, Note_on_c, 0, 50, 0
3, 424320, Note_on_c, 0, 55, 90
3, 424440, Note_on_c, 0, 55, 0
3, 424440, Note_on_c, 0, 54, 90
3, 424560, Note_on_c, 0, 54, 0
3, 424560, Note_on_c, 0, 56, 90
3, 424680, Note_on_c, 0, 56, 0
3, 424680, Note_on_c, 0, 52, 90
3, 424800, Note_on_c, 0, 52, 0
3, 424800, Note_on_c, 0, 57, 90
3, 424920, Note_on_c, 0, 57, 0
3, 424920, Note_on_c, 0, 58, 90
3, 424980, Note_on_c, 0, 58, 0
3, 424980, Note_on_c, 0, 57, 90
3, 425040, Note_on_c, 0, 57, 0
3, 425040, Note_on_c, 0, 58, 90
3, 425160, Note_on_c, 0, 58, 0
3, 425160, Note_on_c, 0, 55, 90
3, 425340, Note_on_c, 0, 55, 0
3, 425340, Note_on_c, 0, 67, 90
3, 425400, Note_on_c, 0, 67, 0
3, 425400, Note_on_c, 0, 65, 90
3, 425460, Note_on_c, 0, 65, 0
3, 425460, Note_on_c, 0, 64, 90
3, 425520, Note_on_c, 0, 64, 0
3, 425520, Note_on_c, 0, 65, 90
3, 425580, Note_on_c, 0, 65, 0
3, 425580, Note_on_c, 0, 64, 90
3, 425640, Note_on_c, 0, 64, 0
3, 425640, Note_on_c, 0, 62, 90
3, 425700, Note_on_c, 0, 62, 0
3, 425700, Note_on_c, 0, 61, 90
3, 425760, Note_on_c, 0, 61, 0
3, 425760, Note_on_c, 0, 62, 90
3, 425760, Note_on_c, 0, 50, 90
3, 425820, Note_on_c, 0, 62, 0
3, 425820, Note_on_c, 0, 52, 90
3, 425880, Note_on_c, 0, 52, 0
3, 425880, Note_on_c, 0, 53, 90
3, 425940, Note_on_c, 0, 53, 0
3, 425940, Note_on_c, 0, 55, 90
3, 426000, Note_on_c, 0, 55, 0
3, 426000, Note_on_c, 0, 57, 90
3, 426060, Note_on_c, 0, 57, 0
3, 426060, Note_on_c, 0, 55, 90
3, 426120, Note_on_c, 0, 55, 0
3, 426120, Note_on_c, 0, 57, 90
3, 426180, Note_on_c, 0, 57, 0
3, 426180, Note_on_c, 0, 59, 90
3, 426240, Note_on_c, 0, 59, 0
3, 426240, Note_on_c, 0, 50, 0
3, 426240, Note_on_c, 0, 61, 90
3, 426240, Note_on_c, 0, 57, 90
3, 426300, Note_on_c, 0, 61, 0
3, 426300, Note_on_c, 0, 59, 90
3, 426360, Note_on_c, 0, 59, 0
3, 426360, Note_on_c, 0, 61, 90
3, 426420, Note_on_c, 0, 61, 0
3, 426420, Note_on_c, 0, 62, 90
3, 426480, Note_on_c, 0, 62, 0
3, 426480, Note_on_c, 0, 61, 90
3, 426540, Note_on_c, 0, 61, 0
3, 426540, Note_on_c, 0, 62, 90
3, 426600, Note_on_c, 0, 62, 0
3, 426600, Note_on_c, 0, 64, 90
3, 426720, Note_on_c, 0, 57, 0
3, 426720, Note_on_c, 0, 53, 90
3, 426840, Note_on_c, 0, 64, 0
3, 426840, Note_on_c, 0, 62, 90
3, 426960, Note_on_c, 0, 62, 0
3, 426960, Note_on_c, 0, 57, 90
3, 427200, Note_on_c, 0, 53, 0
3, 427200, Note_on_c, 0, 50, 90
3, 427320, Note_on_c, 0, 57, 0
3, 427320, Note_on_c, 0, 53, 90
3, 427440, Note_on_c, 0, 53, 0
3, 427440, Note_on_c, 0, 58, 90
3, 427560, Note_on_c, 0, 58, 0
3, 427560, Note_on_c, 0, 62, 90
3, 427680, Note_on_c, 0, 62, 0
3, 427680, Note_on_c, 0, 50, 0
3, 427680, Note_on_c, 0, 55, 90
3, 427680, Note_on_c, 0, 49, 90
3, 427800, Note_on_c, 0, 55, 0
3, 427800, Note_on_c, 0, 58, 90
3, 427920, Note_on_c, 0, 58, 0
3, 427920, Note_on_c, 0, 52, 90
3, 427980, Note_on_c, 0, 52, 0
3, 427980, Note_on_c, 0, 55, 90
3, 428040, Note_on_c, 0, 55, 0
3, 428040, Note_on_c, 0, 53, 90
3, 428100, Note_on_c, 0, 53, 0
3, 428100, Note_on_c, 0, 52, 90
3, 428160, Note_on_c, 0, 52, 0
3, 428160, Note_on_c, 0, 49, 0
3, 428160, Note_on_c, 0, 50, 90
3, 428160, Note_on_c, 0, 50, 90
3, 428280, Note_on_c, 0, 50, 0
3, 428400, Note_on_c, 0, 50, 0
3, 428400, Note_on_c, 0, 52, 90
3, 428640, Note_on_c, 0, 52, 0
3, 428640, Note_on_c, 0, 53, 90
3, 428760, Note_on_c, 0, 57, 90
3, 428880, Note_on_c, 0, 57, 0
3, 428880, Note_on_c, 0, 58, 90
3, 429120, Note_on_c, 0, 58, 0
3, 429120, Note_on_c, 0, 60, 90
3, 429240, Note_on_c, 0, 60, 0
3, 429240, Note_on_c, 0, 53, 0
3, 429240, Note_on_c, 0, 55, 90
3, 429360, Note_on_c, 0, 55, 0
3, 429360, Note_on_c, 0, 53, 90
3, 429480, Note_on_c, 0, 53, 0
3, 429480, Note_on_c, 0, 55, 90
3, 429480, Note_on_c, 0, 52, 90
3, 429600, Note_on_c, 0, 52, 0
3, 429600, Note_on_c, 0, 55, 0
3, 429600, Note_on_c, 0, 57, 90
3, 429600, Note_on_c, 0, 50, 90
3, 429720, Note_on_c, 0, 57, 0
3, 429720, Note_on_c, 0, 52, 90
3, 429840, Note_on_c, 0, 52, 0
3, 429840, Note_on_c, 0, 53, 90
3, 429960, Note_on_c, 0, 53, 0
3, 429960, Note_on_c, 0, 57, 90
3, 430080, Note_on_c, 0, 57, 0
3, 430080, Note_on_c, 0, 58, 90
3, 430140, Note_on_c, 0, 58, 0
3, 430140, Note_on_c, 0, 50, 0
3, 430140, Note_on_c, 0, 60, 90
3, 430140, Note_on_c, 0, 51, 90
3, 430200, Note_on_c, 0, 51, 0
3, 430200, Note_on_c, 0, 60, 0
3, 430200, Note_on_c, 0, 58, 90
3, 430200, Note_on_c, 0, 50, 90
3, 430260, Note_on_c, 0, 50, 0
3, 430260, Note_on_c, 0, 58, 0
3, 430260, Note_on_c, 0, 57, 90
3, 430260, Note_on_c, 0, 48, 90
3, 430320, Note_on_c, 0, 48, 0
3, 430320, Note_on_c, 0, 57, 0
3, 430320, Note_on_c, 0, 58, 90
3, 430320, Note_on_c, 0, 50, 90
3, 430380, Note_on_c, 0, 50, 0
3, 430380, Note_on_c, 0, 58, 0
3, 430380, Note_on_c, 0, 57, 90
3, 430380, Note_on_c, 0, 48, 90
3, 430440, Note_on_c, 0, 48, 0
3, 430440, Note_on_c, 0, 57, 0
3, 430440, Note_on_c, 0, 55, 90
3, 430440, Note_on_c, 0, 46, 90
3, 430500, Note_on_c, 0, 46, 0
3, 430500, Note_on_c, 0, 55, 0
3, 430500, Note_on_c, 0, 54, 90
3, 430500, Note_on_c, 0, 45, 90
3, 430560, Note_on_c, 0, 45, 0
3, 430560, Note_on_c, 0, 54, 0
3, 430560, Note_on_c, 0, 55, 90
3, 430560, Note_on_c, 0, 46, 90
3, 430800, Note_on_c, 0, 46, 0
3, 430920, Note_on_c, 0, 58, 90
3, 431040, Note_on_c, 0, 58, 0
3, 431040, Note_on_c, 0, 55, 0
3, 431040, Note_on_c, 0, 62, 90
3, 431040, Note_on_c, 0, 54, 90
3, 431160, Note_on_c, 0, 54, 0
3, 431160, Note_on_c, 0, 57, 90
3, 431280, Note_on_c, 0, 57, 0
3, 431280, Note_on_c, 0, 54, 90
3, 431400, Note_on_c, 0, 54, 0
3, 431400, Note_on_c, 0, 50, 90
3, 431520, Note_on_c, 0, 50, 0
3, 431520, Note_on_c, 0, 62, 0
3, 431520, Note_on_c, 0, 58, 90
3, 431520, Note_on_c, 0, 55, 90
3, 431760, Note_on_c, 0, 55, 0
3, 431760, Note_on_c, 0, 50, 90
3, 432000, Note_on_c, 0, 50, 0
3, 432000, Note_on_c, 0, 58, 0
3, 432000, Note_on_c, 0, 55, 90
3, 432000, Note_on_c, 0, 51, 90
3, 432120, Note_on_c, 0, 51, 0
3, 432120, Note_on_c, 0, 53, 90
3, 432240, Note_on_c, 0, 53, 0
3, 432240, Note_on_c, 0, 52, 90
3, 432360, Note_on_c, 0, 52, 0
3, 432360, Note_on_c, 0, 51, 90
3, 432480, Note_on_c, 0, 51, 0
3, 432480, Note_on_c, 0, 55, 0
3, 432480, Note_on_c, 0, 54, 90
3, 432480, Note_on_c, 0, 50, 90
3, 432720, Note_on_c, 0, 50, 0
3, 432780, Note_on_c, 0, 48, 90
3, 432840, Note_on_c, 0, 48, 0
3, 432840, Note_on_c, 0, 46, 90
3, 432900, Note_on_c, 0, 46, 0
3, 432900, Note_on_c, 0, 45, 90
3, 432960, Note_on_c, 0, 45, 0
3, 432960, Note_on_c, 0, 54, 0
3, 432960, Note_on_c, 0, 55, 90
3, 432960, Note_on_c, 0, 43, 90
3, 433080, Note_on_c, 0, 43, 0
3, 433200, Note_on_c, 0, 55, 0
3, 433200, Note_on_c, 0, 57, 90
3, 433440, Note_on_c, 0, 57, 0
3, 433440, Note_on_c, 0, 58, 90
3, 433560, Note_on_c, 0, 51, 90
3, 433680, Note_on_c, 0, 51, 0
3, 433680, Note_on_c, 0, 50, 90
3, 433800, Note_on_c, 0, 50, 0
3, 433800, Note_on_c, 0, 55, 90
3, 433920, Note_on_c, 0, 55, 0
3, 433920, Note_on_c, 0, 53, 90
3, 433980, Note_on_c, 0, 53, 0
3, 433980, Note_on_c, 0, 56, 90
3, 434040, Note_on_c, 0, 56, 0
3, 434040, Note_on_c, 0, 58, 0
3, 434040, Note_on_c, 0, 60, 90
3, 434040, Note_on_c, 0, 55, 90
3, 434100, Note_on_c, 0, 55, 0
3, 434100, Note_on_c, 0, 53, 90
3, 434160, Note_on_c, 0, 53, 0
3, 434160, Note_on_c, 0, 60, 0
3, 434160, Note_on_c, 0, 58, 90
3, 434160, Note_on_c, 0, 55, 90
3, 434220, Note_on_c, 0, 55, 0
3, 434220, Note_on_c, 0, 53, 90
3, 434280, Note_on_c, 0, 53, 0
3, 434280, Note_on_c, 0, 58, 0
3, 434280, Note_on_c, 0, 57, 90
3, 434280, Note_on_c, 0, 51, 90
3, 434340, Note_on_c, 0, 51, 0
3, 434340, Note_on_c, 0, 50, 90
3, 434400, Note_on_c, 0, 50, 0
3, 434400, Note_on_c, 0, 57, 0
3, 434400, Note_on_c, 0, 55, 90
3, 434400, Note_on_c, 0, 51, 90
3, 434460, Note_on_c, 0, 51, 0
3, 434460, Note_on_c, 0, 53, 90
3, 434520, Note_on_c, 0, 53, 0
3, 434520, Note_on_c, 0, 51, 90
3, 434580, Note_on_c, 0, 51, 0
3, 434580, Note_on_c, 0, 50, 90
3, 434640, Note_on_c, 0, 50, 0
3, 434640, Note_on_c, 0, 51, 90
3, 434700, Note_on_c, 0, 51, 0
3, 434700, Note_on_c, 0, 50, 90
3, 434760, Note_on_c, 0, 50, 0
3, 434760, Note_on_c, 0, 48, 90
3, 434820, Note_on_c, 0, 48, 0
3, 434820, Note_on_c, 0, 47, 90
3, 434880, Note_on_c, 0, 47, 0
3, 434880, Note_on_c, 0, 48, 90
3, 434940, Note_on_c, 0, 48, 0
3, 434940, Note_on_c, 0, 50, 90
3, 435000, Note_on_c, 0, 50, 0
3, 435000, Note_on_c, 0, 55, 0
3, 435000, Note_on_c, 0, 55, 90
3, 435000, Note_on_c, 0, 48, 90
3, 435060, Note_on_c, 0, 48, 0
3, 435060, Note_on_c, 0, 46, 90
3, 435120, Note_on_c, 0, 46, 0
3, 435120, Note_on_c, 0, 55, 0
3, 435120, Note_on_c, 0, 57, 90
3, 435120, Note_on_c, 0, 48, 90
3, 435180, Note_on_c, 0, 48, 0
3, 435180, Note_on_c, 0, 46, 90
3, 435240, Note_on_c, 0, 46, 0
3, 435240, Note_on_c, 0, 57, 0
3, 435240, Note_on_c, 0, 58, 90
3, 435240, Note_on_c, 0, 45, 90
3, 435300, Note_on_c, 0, 45, 0
3, 435300, Note_on_c, 0, 43, 90
3, 435360, Note_on_c, 0, 43, 0
3, 435360, Note_on_c, 0, 58, 0
3, 435360, Note_on_c, 0, 60, 90
3, 435360, Note_on_c, 0, 45, 90
3, 435420, Note_on_c, 0, 45, 0
3, 435420, Note_on_c, 0, 46, 90
3, 435480, Note_on_c, 0, 46, 0
3, 435480, Note_on_c, 0, 45, 90
3, 435540, Note_on_c, 0, 45, 0
3, 435540, Note_on_c, 0, 43, 90
3, 435600, Note_on_c, 0, 43, 0
3, 435600, Note_on_c, 0, 45, 90
3, 435660, Note_on_c, 0, 45, 0
3, 435660, Note_on_c, 0, 43, 90
3, 435720, Note_on_c, 0, 43, 0
3, 435720, Note_on_c, 0, 42, 90
3, 435780, Note_on_c, 0, 42, 0
3, 435780, Note_on_c, 0, 40, 90
3, 435840, Note_on_c, 0, 40, 0
3, 435840, Note_on_c, 0, 42, 90
3, 435900, Note_on_c, 0, 60, 0
3, 435900, Note_on_c, 0, 63, 90
3, 435960, Note_on_c, 0, 63, 0
3, 435960, Note_on_c, 0, 62, 90
3, 436020, Note_on_c, 0, 62, 0
3, 436020, Note_on_c, 0, 60, 90
3, 436080, Note_on_c, 0, 60, 0
3, 436080, Note_on_c, 0, 42, 0
3, 436080, Note_on_c, 0, 62, 90
3, 436140, Note_on_c, 0, 62, 0
3, 436140, Note_on_c, 0, 60, 90
3, 436200, Note_on_c, 0, 60, 0
3, 436200, Note_on_c, 0, 58, 90
3, 436200, Note_on_c, 0, 54, 90
3, 436260, Note_on_c, 0, 58, 0
3, 436260, Note_on_c, 0, 57, 90
3, 436320, Note_on_c, 0, 57, 0
3, 436320, Note_on_c, 0, 54, 0
3, 436320, Note_on_c, 0, 58, 90
3, 436320, Note_on_c, 0, 55, 90
3, 436440, Note_on_c, 0, 55, 0
3, 436440, Note_on_c, 0, 51, 90
3, 436560, Note_on_c, 0, 51, 0
3, 436560, Note_on_c, 0, 58, 0
3, 436560, Note_on_c, 0, 60, 90
3, 436560, Note_on_c, 0, 48, 90
3, 436680, Note_on_c, 0, 48, 0
3, 436680, Note_on_c, 0, 60, 0
3, 436680, Note_on_c, 0, 57, 90
3, 436680, Note_on_c, 0, 50, 90
3, 436800, Note_on_c, 0, 50, 0
3, 436800, Note_on_c, 0, 57, 0
3, 436800, Note_on_c, 0, 58, 90
3, 436800, Note_on_c, 0, 43, 90
3, 436920, Note_on_c, 0, 43, 0
3, 436920, Note_on_c, 0, 58, 0
3, 436920, Note_on_c, 0, 60, 90
3, 437040, Note_on_c, 0, 60, 0
3, 437040, Note_on_c, 0, 58, 90
3, 437160, Note_on_c, 0, 58, 0
3, 437160, Note_on_c, 0, 57, 90
3, 437280, Note_on_c, 0, 57, 0
3, 437280, Note_on_c, 0, 55, 90
3, 437400, Note_on_c, 0, 53, 90
3, 437520, Note_on_c, 0, 53, 0
3, 437520, Note_on_c, 0, 55, 0
3, 437520, Note_on_c, 0, 57, 90
3, 437520, Note_on_c, 0, 51, 90
3, 437640, Note_on_c, 0, 51, 0
3, 437640, Note_on_c, 0, 57, 0
3, 437640, Note_on_c, 0, 59, 90
3, 437640, Note_on_c, 0, 50, 90
3, 437760, Note_on_c, 0, 50, 0
3, 437760, Note_on_c, 0, 59, 0
3, 437760, Note_on_c, 0, 60, 90
3, 437760, Note_on_c, 0, 48, 90
3, 437880, Note_on_c, 0, 48, 0
3, 437880, Note_on_c, 0, 60, 0
3, 438300, Note_on_c, 0, 52, 90
3, 438360, Note_on_c, 0, 52, 0
3, 438360, Note_on_c, 0, 53, 90
3, 438420, Note_on_c, 0, 53, 0
3, 438420, Note_on_c, 0, 55, 90
3, 438480, Note_on_c, 0, 55, 0
3, 438480, Note_on_c, 0, 57, 90
3, 438540, Note_on_c, 0, 57, 0
3, 438540, Note_on_c, 0, 53, 90
3, 438600, Note_on_c, 0, 53, 0
3, 438600, Note_on_c, 0, 55, 90
3, 438660, Note_on_c, 0, 55, 0
3, 438660, Note_on_c, 0, 57, 90
3, 438720, Note_on_c, 0, 57, 0
3, 438720, Note_on_c, 0, 58, 90
3, 438780, Note_on_c, 0, 60, 90
3, 438840, Note_on_c, 0, 60, 0
3, 438840, Note_on_c, 0, 58, 0
3, 438840, Note_on_c, 0, 58, 90
3, 438900, Note_on_c, 0, 58, 0
3, 438900, Note_on_c, 0, 57, 90
3, 438960, Note_on_c, 0, 57, 0
3, 438960, Note_on_c, 0, 55, 90
3, 439020, Note_on_c, 0, 55, 0
3, 439020, Note_on_c, 0, 58, 90
3, 439080, Note_on_c, 0, 58, 0
3, 439080, Note_on_c, 0, 57, 90
3, 439140, Note_on_c, 0, 57, 0
3, 439140, Note_on_c, 0, 55, 90
3, 439200, Note_on_c, 0, 55, 0
3, 439200, Note_on_c, 0, 53, 90
3, 439260, Note_on_c, 0, 55, 90
3, 439320, Note_on_c, 0, 55, 0
3, 439320, Note_on_c, 0, 53, 0
3, 439320, Note_on_c, 0, 53, 90
3, 439380, Note_on_c, 0, 53, 0
3, 439380, Note_on_c, 0, 52, 90
3, 439440, Note_on_c, 0, 52, 0
3, 439440, Note_on_c, 0, 50, 90
3, 439500, Note_on_c, 0, 50, 0
3, 439500, Note_on_c, 0, 53, 90
3, 439560, Note_on_c, 0, 53, 0
3, 439560, Note_on_c, 0, 52, 90
3, 439620, Note_on_c, 0, 52, 0
3, 439620, Note_on_c, 0, 50, 90
3, 439680, Note_on_c, 0, 50, 0
3, 439680, Note_on_c, 0, 49, 90
3, 439800, Note_on_c, 0, 49, 0
3, 439800, Note_on_c, 0, 52, 90
3, 439920, Note_on_c, 0, 52, 0
3, 439920, Note_on_c, 0, 49, 90
3, 440040, Note_on_c, 0, 49, 0
3, 440040, Note_on_c, 0, 45, 90
3, 440160, Note_on_c, 0, 45, 0
3, 440160, Note_on_c, 0, 50, 90
3, 440280, Note_on_c, 0, 50, 0
3, 440280, Note_on_c, 0, 50, 90
3, 440280, Note_on_c, 0, 48, 90
3, 440400, Note_on_c, 0, 48, 0
3, 440400, Note_on_c, 0, 50, 0
3, 440400, Note_on_c, 0, 62, 90
3, 440400, Note_on_c, 0, 46, 90
3, 440640, Note_on_c, 0, 46, 0
3, 440640, Note_on_c, 0, 45, 90
3, 440760, Note_on_c, 0, 62, 0
3, 440760, Note_on_c, 0, 61, 90
3, 440820, Note_on_c, 0, 61, 0
3, 440820, Note_on_c, 0, 59, 90
3, 440880, Note_on_c, 0, 59, 0
3, 440880, Note_on_c, 0, 45, 0
3, 440880, Note_on_c, 0, 57, 90
3, 440940, Note_on_c, 0, 57, 0
3, 440940, Note_on_c, 0, 55, 90
3, 441000, Note_on_c, 0, 55, 0
3, 441000, Note_on_c, 0, 53, 90
3, 441000, Note_on_c, 0, 45, 90
3, 441060, Note_on_c, 0, 53, 0
3, 441060, Note_on_c, 0, 52, 90
3, 441120, Note_on_c, 0, 52, 0
3, 441120, Note_on_c, 0, 45, 0
3, 441120, Note_on_c, 0, 50, 90
3, 441120, Note_on_c, 0, 46, 90
3, 441180, Note_on_c, 0, 50, 0
3, 441180, Note_on_c, 0, 49, 90
3, 441240, Note_on_c, 0, 49, 0
3, 441240, Note_on_c, 0, 50, 90
3, 441300, Note_on_c, 0, 50, 0
3, 441300, Note_on_c, 0, 52, 90
3, 441360, Note_on_c, 0, 52, 0
3, 441360, Note_on_c, 0, 53, 90
3, 441420, Note_on_c, 0, 53, 0
3, 441420, Note_on_c, 0, 50, 90
3, 441480, Note_on_c, 0, 50, 0
3, 441480, Note_on_c, 0, 52, 90
3, 441540, Note_on_c, 0, 52, 0
3, 441540, Note_on_c, 0, 53, 90
3, 441600, Note_on_c, 0, 53, 0
3, 441600, Note_on_c, 0, 55, 90
3, 441660, Note_on_c, 0, 55, 0
3, 441660, Note_on_c, 0, 54, 90
3, 441720, Note_on_c, 0, 54, 0
3, 441720, Note_on_c, 0, 55, 90
3, 441780, Note_on_c, 0, 55, 0
3, 441780, Note_on_c, 0, 57, 90
3, 441840, Note_on_c, 0, 57, 0
3, 441840, Note_on_c, 0, 46, 0
3, 441840, Note_on_c, 0, 58, 90
3, 441900, Note_on_c, 0, 58, 0
3, 441900, Note_on_c, 0, 55, 90
3, 441900, Note_on_c, 0, 52, 90
3, 441960, Note_on_c, 0, 52, 0
3, 441960, Note_on_c, 0, 55, 0
3, 441960, Note_on_c, 0, 57, 90
3, 441960, Note_on_c, 0, 53, 90
3, 442020, Note_on_c, 0, 53, 0
3, 442020, Note_on_c, 0, 57, 0
3, 442020, Note_on_c, 0, 58, 90
3, 442020, Note_on_c, 0, 55, 90
3, 442080, Note_on_c, 0, 55, 0
3, 442080, Note_on_c, 0, 58, 0
3, 442080, Note_on_c, 0, 58, 90
3, 442080, Note_on_c, 0, 45, 90
3, 442095, Note_on_c, 0, 58, 0
3, 442095, Note_on_c, 0, 60, 90
3, 442110, Note_on_c, 0, 60, 0
3, 442110, Note_on_c, 0, 58, 90
3, 442140, Note_on_c, 0, 45, 0
3, 442140, Note_on_c, 0, 52, 90
3, 442200, Note_on_c, 0, 52, 0
3, 442200, Note_on_c, 0, 58, 0
3, 442200, Note_on_c, 0, 57, 90
3, 442200, Note_on_c, 0, 57, 90
3, 442260, Note_on_c, 0, 57, 0
3, 442260, Note_on_c, 0, 55, 90
3, 442320, Note_on_c, 0, 55, 0
3, 442320, Note_on_c, 0, 57, 0
3, 442320, Note_on_c, 0, 53, 90
3, 442380, Note_on_c, 0, 57, 90
3, 442440, Note_on_c, 0, 57, 0
3, 442440, Note_on_c, 0, 53, 0
3, 442440, Note_on_c, 0, 55, 90
3, 442440, Note_on_c, 0, 52, 90
3, 442500, Note_on_c, 0, 55, 0
3, 442500, Note_on_c, 0, 57, 90
3, 442560, Note_on_c, 0, 57, 0
3, 442560, Note_on_c, 0, 52, 0
3, 442560, Note_on_c, 0, 58, 90
3, 442560, Note_on_c, 0, 50, 90
3, 442620, Note_on_c, 0, 58, 0
3, 442620, Note_on_c, 0, 62, 90
3, 442680, Note_on_c, 0, 62, 0
3, 442680, Note_on_c, 0, 60, 90
3, 442740, Note_on_c, 0, 60, 0
3, 442740, Note_on_c, 0, 58, 90
3, 442800, Note_on_c, 0, 58, 0
3, 442800, Note_on_c, 0, 50, 0
3, 442800, Note_on_c, 0, 60, 90
3, 442860, Note_on_c, 0, 60, 0
3, 442860, Note_on_c, 0, 58, 90
3, 442920, Note_on_c, 0, 58, 0
3, 442920, Note_on_c, 0, 57, 90
3, 442920, Note_on_c, 0, 49, 90
3, 442980, Note_on_c, 0, 57, 0
3, 442980, Note_on_c, 0, 55, 90
3, 443040, Note_on_c, 0, 55, 0
3, 443040, Note_on_c, 0, 49, 0
3, 443040, Note_on_c, 0, 53, 90
3, 443040, Note_on_c, 0, 50, 90
3, 443100, Note_on_c, 0, 53, 0
3, 443100, Note_on_c, 0, 58, 90
3, 443160, Note_on_c, 0, 58, 0
3, 443160, Note_on_c, 0, 57, 90
3, 443220, Note_on_c, 0, 57, 0
3, 443220, Note_on_c, 0, 55, 90
3, 443280, Note_on_c, 0, 55, 0
3, 443280, Note_on_c, 0, 50, 0
3, 443280, Note_on_c, 0, 57, 90
3, 443340, Note_on_c, 0, 57, 0
3, 443340, Note_on_c, 0, 55, 90
3, 443400, Note_on_c, 0, 55, 0
3, 443400, Note_on_c, 0, 53, 90
3, 443400, Note_on_c, 0, 45, 90
3, 443460, Note_on_c, 0, 53, 0
3, 443460, Note_on_c, 0, 52, 90
3, 443520, Note_on_c, 0, 52, 0
3, 443520, Note_on_c, 0, 45, 0
3, 443520, Note_on_c, 0, 50, 90
3, 443520, Note_on_c, 0, 46, 90
3, 443760, Note_on_c, 0, 46, 0
3, 443760, Note_on_c, 0, 50, 0
3, 443880, Note_on_c, 0, 57, 90
3, 443880, Note_on_c, 0, 48, 90
3, 444000, Note_on_c, 0, 48, 0
3, 444000, Note_on_c, 0, 57, 0
3, 444000, Note_on_c, 0, 58, 90
3, 444000, Note_on_c, 0, 46, 90
3, 444060, Note_on_c, 0, 46, 0
3, 444060, Note_on_c, 0, 48, 90
3, 444120, Note_on_c, 0, 48, 0
3, 444120, Note_on_c, 0, 46, 90
3, 444180, Note_on_c, 0, 46, 0
3, 444180, Note_on_c, 0, 45, 90
3, 444240, Note_on_c, 0, 45, 0
3, 444240, Note_on_c, 0, 58, 0
3, 444240, Note_on_c, 0, 46, 90
3, 444300, Note_on_c, 0, 46, 0
3, 444300, Note_on_c, 0, 45, 90
3, 444360, Note_on_c, 0, 45, 0
3, 444360, Note_on_c, 0, 58, 90
3, 444360, Note_on_c, 0, 43, 90
3, 444420, Note_on_c, 0, 43, 0
3, 444420, Note_on_c, 0, 41, 90
3, 444480, Note_on_c, 0, 41, 0
3, 444480, Note_on_c, 0, 58, 0
3, 444480, Note_on_c, 0, 49, 90
3, 444480, Note_on_c, 0, 40, 90
3, 444600, Note_on_c, 0, 40, 0
3, 444600, Note_on_c, 0, 49, 0
3, 444600, Note_on_c, 0, 55, 90
3, 444600, Note_on_c, 0, 52, 90
3, 444720, Note_on_c, 0, 52, 0
3, 444720, Note_on_c, 0, 55, 0
3, 444720, Note_on_c, 0, 53, 90
3, 444720, Note_on_c, 0, 53, 90
3, 444840, Note_on_c, 0, 53, 0
3, 444840, Note_on_c, 0, 53, 0
3, 444840, Note_on_c, 0, 58, 90
3, 444840, Note_on_c, 0, 55, 90
3, 444960, Note_on_c, 0, 55, 0
3, 444960, Note_on_c, 0, 58, 0
3, 444960, Note_on_c, 0, 57, 90
3, 444960, Note_on_c, 0, 57, 90
3, 445080, Note_on_c, 0, 57, 0
3, 445080, Note_on_c, 0, 55, 90
3, 445200, Note_on_c, 0, 55, 0
3, 445200, Note_on_c, 0, 57, 90
3, 445320, Note_on_c, 0, 57, 0
3, 445320, Note_on_c, 0, 57, 0
3, 445320, Note_on_c, 0, 55, 90
3, 445320, Note_on_c, 0, 45, 90
3, 445440, Note_on_c, 0, 45, 0
3, 445440, Note_on_c, 0, 55, 0
3, 445440, Note_on_c, 0, 54, 90
3, 445440, Note_on_c, 0, 50, 90
3, 445920, Note_on_c, 0, 50, 0
3, 445920, Note_on_c, 0, 54, 0
3, 445925, Control_c, 0, 121, 0
3, 445925, Control_c, 0, 91, 40
3, 445925, Control_c, 0, 0, 0
3, 445925, Control_c, 0, 121, 0
3, 445925, Control_c, 0, 91, 40
3, 445925, Control_c, 0, 0, 0
3, 447245, Note_on_c, 0, 54, 90
3, 447365, Note_on_c, 0, 54, 0
3, 447365, Note_on_c, 0, 55, 90
3, 447485, Note_on_c, 0, 55, 0
3, 447485, Note_on_c, 0, 50, 90
3, 447605, Note_on_c, 0, 50, 0
3, 447725, Note_on_c, 0, 58, 90
3, 447845, Note_on_c, 0, 58, 0
3, 447845, Note_on_c, 0, 57, 90
3, 447965, Note_on_c, 0, 57, 0
3, 447965, Note_on_c, 0, 62, 90
3, 448085, Note_on_c, 0, 62, 0
3, 448085, Note_on_c, 0, 55, 90
3, 448145, Note_on_c, 0, 55, 0
3, 448145, Note_on_c, 0, 57, 90
3, 448205, Note_on_c, 0, 57, 0
3, 448205, Note_on_c, 0, 58, 90
3, 448265, Note_on_c, 0, 58, 0
3, 448265, Note_on_c, 0, 60, 90
3, 448325, Note_on_c, 0, 60, 0
3, 448325, Note_on_c, 0, 62, 90
3, 448385, Note_on_c, 0, 62, 0
3, 448385, Note_on_c, 0, 64, 90
3, 448445, Note_on_c, 0, 64, 0
3, 448445, Note_on_c, 0, 65, 90
3, 448625, Note_on_c, 0, 65, 0
3, 448625, Note_on_c, 0, 64, 90
3, 448685, Note_on_c, 0, 64, 0
3, 448685, Note_on_c, 0, 62, 90
3, 448745, Note_on_c, 0, 62, 0
3, 448745, Note_on_c, 0, 60, 90
3, 448805, Note_on_c, 0, 60, 0
3, 448805, Note_on_c, 0, 58, 90
3, 448865, Note_on_c, 0, 58, 0
3, 448865, Note_on_c, 0, 57, 90
3, 448925, Note_on_c, 0, 57, 0
3, 448925, Note_on_c, 0, 62, 90
3, 448925, Note_on_c, 0, 53, 90
3, 449045, Note_on_c, 0, 53, 0
3, 449045, Note_on_c, 0, 52, 90
3, 449165, Note_on_c, 0, 52, 0
3, 449165, Note_on_c, 0, 62, 0
3, 449165, Note_on_c, 0, 61, 90
3, 449165, Note_on_c, 0, 57, 90
3, 449225, Note_on_c, 0, 61, 0
3, 449225, Note_on_c, 0, 59, 90
3, 449285, Note_on_c, 0, 59, 0
3, 449285, Note_on_c, 0, 57, 0
3, 449285, Note_on_c, 0, 61, 90
3, 449345, Note_on_c, 0, 61, 0
3, 449345, Note_on_c, 0, 62, 90
3, 449405, Note_on_c, 0, 62, 0
3, 449405, Note_on_c, 0, 64, 90
3, 449405, Note_on_c, 0, 49, 90
3, 449525, Note_on_c, 0, 49, 0
3, 449525, Note_on_c, 0, 50, 90
3, 449585, Note_on_c, 0, 64, 0
3, 449585, Note_on_c, 0, 62, 90
3, 449645, Note_on_c, 0, 62, 0
3, 449645, Note_on_c, 0, 50, 0
3, 449645, Note_on_c, 0, 64, 90
3, 449645, Note_on_c, 0, 45, 90
3, 449765, Note_on_c, 0, 45, 0
3, 449765, Note_on_c, 0, 52, 90
3, 449825, Note_on_c, 0, 52, 0
3, 449825, Note_on_c, 0, 50, 90
3, 449885, Note_on_c, 0, 50, 0
3, 449885, Note_on_c, 0, 48, 90
3, 449945, Note_on_c, 0, 48, 0
3, 449945, Note_on_c, 0, 47, 90
3, 450005, Note_on_c, 0, 47, 0
3, 450005, Note_on_c, 0, 45, 90
3, 450065, Note_on_c, 0, 45, 0
3, 450065, Note_on_c, 0, 43, 90
3, 450125, Note_on_c, 0, 43, 0
3, 450125, Note_on_c, 0, 64, 0
3, 450125, Note_on_c, 0, 62, 90
3, 450125, Note_on_c, 0, 41, 90
3, 450245, Note_on_c, 0, 62, 0
3, 450245, Note_on_c, 0, 60, 90
3, 450305, Note_on_c, 0, 41, 0
3, 450305, Note_on_c, 0, 43, 90
3, 450365, Note_on_c, 0, 43, 0
3, 450365, Note_on_c, 0, 45, 90
3, 450425, Note_on_c, 0, 45, 0
3, 450425, Note_on_c, 0, 47, 90
3, 450485, Note_on_c, 0, 47, 0
3, 450485, Note_on_c, 0, 60, 0
3, 450485, Note_on_c, 0, 48, 90
3, 450545, Note_on_c, 0, 52, 90
3, 450605, Note_on_c, 0, 52, 0
3, 450605, Note_on_c, 0, 48, 0
3, 450605, Note_on_c, 0, 57, 90
3, 450605, Note_on_c, 0, 45, 90
3, 450725, Note_on_c, 0, 45, 0
3, 450725, Note_on_c, 0, 47, 90
3, 450845, Note_on_c, 0, 47, 0
3, 450845, Note_on_c, 0, 57, 0
3, 450845, Note_on_c, 0, 55, 90
3, 450845, Note_on_c, 0, 52, 90
3, 450905, Note_on_c, 0, 55, 0
3, 450905, Note_on_c, 0, 54, 90
3, 450965, Note_on_c, 0, 54, 0
3, 450965, Note_on_c, 0, 55, 90
3, 451025, Note_on_c, 0, 52, 0
3, 451025, Note_on_c, 0, 45, 90
3, 451085, Note_on_c, 0, 45, 0
3, 451085, Note_on_c, 0, 47, 90
3, 451145, Note_on_c, 0, 47, 0
3, 451145, Note_on_c, 0, 49, 90
3, 451205, Note_on_c, 0, 49, 0
3, 451205, Note_on_c, 0, 55, 0
3, 451205, Note_on_c, 0, 53, 90
3, 451205, Note_on_c, 0, 50, 90
3, 451265, Note_on_c, 0, 53, 0
3, 451265, Note_on_c, 0, 55, 90
3, 451325, Note_on_c, 0, 55, 0
3, 451325, Note_on_c, 0, 57, 90
3, 451385, Note_on_c, 0, 57, 0
3, 451385, Note_on_c, 0, 59, 90
3, 451445, Note_on_c, 0, 59, 0
3, 451445, Note_on_c, 0, 50, 0
3, 451445, Note_on_c, 0, 60, 90
3, 451445, Note_on_c, 0, 48, 90
3, 451505, Note_on_c, 0, 48, 0
3, 451505, Note_on_c, 0, 50, 90
3, 451565, Note_on_c, 0, 50, 0
3, 451565, Note_on_c, 0, 52, 90
3, 451625, Note_on_c, 0, 52, 0
3, 451625, Note_on_c, 0, 54, 90
3, 451685, Note_on_c, 0, 54, 0
3, 451685, Note_on_c, 0, 60, 0
3, 451685, Note_on_c, 0, 58, 90
3, 451685, Note_on_c, 0, 55, 90
3, 451745, Note_on_c, 0, 58, 0
3, 451745, Note_on_c, 0, 60, 90
3, 451805, Note_on_c, 0, 60, 0
3, 451805, Note_on_c, 0, 62, 90
3, 451865, Note_on_c, 0, 62, 0
3, 451865, Note_on_c, 0, 64, 90
3, 451925, Note_on_c, 0, 64, 0
3, 451925, Note_on_c, 0, 55, 0
3, 451925, Note_on_c, 0, 65, 90
3, 451925, Note_on_c, 0, 50, 90
3, 451985, Note_on_c, 0, 50, 0
3, 451985, Note_on_c, 0, 52, 90
3, 452045, Note_on_c, 0, 52, 0
3, 452045, Note_on_c, 0, 53, 90
3, 452105, Note_on_c, 0, 53, 0
3, 452105, Note_on_c, 0, 55, 90
3, 452165, Note_on_c, 0, 55, 0
3, 452165, Note_on_c, 0, 65, 0
3, 452165, Note_on_c, 0, 64, 90
3, 452165, Note_on_c, 0, 57, 90
3, 452285, Note_on_c, 0, 64, 0
3, 452285, Note_on_c, 0, 65, 90
3, 452345, Note_on_c, 0, 65, 0
3, 452345, Note_on_c, 0, 62, 90
3, 452405, Note_on_c, 0, 62, 0
3, 452405, Note_on_c, 0, 57, 0
3, 452405, Note_on_c, 0, 64, 90
3, 452405, Note_on_c, 0, 57, 90
3, 452465, Note_on_c, 0, 57, 0
3, 452465, Note_on_c, 0, 64, 0
3, 452465, Note_on_c, 0, 57, 90
3, 452465, Note_on_c, 0, 53, 90
3, 452525, Note_on_c, 0, 53, 0
3, 452525, Note_on_c, 0, 57, 0
3, 452525, Note_on_c, 0, 58, 90
3, 452525, Note_on_c, 0, 55, 90
3, 452585, Note_on_c, 0, 55, 0
3, 452585, Note_on_c, 0, 52, 90
3, 452645, Note_on_c, 0, 52, 0
3, 452645, Note_on_c, 0, 58, 0
3, 452645, Note_on_c, 0, 57, 90
3, 452645, Note_on_c, 0, 53, 90
3, 452705, Note_on_c, 0, 53, 0
3, 452705, Note_on_c, 0, 52, 90
3, 452765, Note_on_c, 0, 52, 0
3, 452765, Note_on_c, 0, 57, 0
3, 452765, Note_on_c, 0, 62, 90
3, 452765, Note_on_c, 0, 50, 90
3, 452825, Note_on_c, 0, 50, 0
3, 452825, Note_on_c, 0, 49, 90
3, 452885, Note_on_c, 0, 49, 0
3, 452885, Note_on_c, 0, 62, 0
3, 452885, Note_on_c, 0, 50, 90
3, 452945, Note_on_c, 0, 50, 0
3, 452945, Note_on_c, 0, 46, 90
3, 453005, Note_on_c, 0, 46, 0
3, 453005, Note_on_c, 0, 54, 90
3, 453005, Note_on_c, 0, 48, 90
3, 453065, Note_on_c, 0, 48, 0
3, 453065, Note_on_c, 0, 45, 90
3, 453125, Note_on_c, 0, 45, 0
3, 453125, Note_on_c, 0, 54, 0
3, 453125, Note_on_c, 0, 55, 90
3, 453125, Note_on_c, 0, 47, 90
3, 453185, Note_on_c, 0, 47, 0
3, 453185, Note_on_c, 0, 49, 90
3, 453245, Note_on_c, 0, 49, 0
3, 453245, Note_on_c, 0, 55, 0
3, 453245, Note_on_c, 0, 50, 90
3, 453245, Note_on_c, 0, 50, 90
3, 453365, Note_on_c, 0, 50, 0
3, 453365, Note_on_c, 0, 57, 90
3, 453425, Note_on_c, 0, 57, 0
3, 453425, Note_on_c, 0, 55, 90
3, 453485, Note_on_c, 0, 55, 0
3, 453485, Note_on_c, 0, 50, 0
3, 453485, Note_on_c, 0, 53, 90
3, 453485, Note_on_c, 0, 41, 90
3, 453545, Note_on_c, 0, 53, 0
3, 453545, Note_on_c, 0, 52, 90
3, 453605, Note_on_c, 0, 52, 0
3, 453605, Note_on_c, 0, 41, 0
3, 453605, Note_on_c, 0, 50, 90
3, 453605, Note_on_c, 0, 43, 90
3, 453665, Note_on_c, 0, 50, 0
3, 453665, Note_on_c, 0, 48, 90
3, 453725, Note_on_c, 0, 48, 0
3, 453725, Note_on_c, 0, 46, 90
3, 453905, Note_on_c, 0, 46, 0
3, 453905, Note_on_c, 0, 48, 90
3, 453965, Note_on_c, 0, 48, 0
3, 453965, Note_on_c, 0, 43, 0
3, 453965, Note_on_c, 0, 50, 90
3, 453965, Note_on_c, 0, 41, 90
3, 454025, Note_on_c, 0, 41, 0
3, 454025, Note_on_c, 0, 50, 0
3, 454025, Note_on_c, 0, 52, 90
3, 454025, Note_on_c, 0, 43, 90
3, 454085, Note_on_c, 0, 43, 0
3, 454085, Note_on_c, 0, 52, 0
3, 454085, Note_on_c, 0, 53, 90
3, 454085, Note_on_c, 0, 45, 90
3, 454145, Note_on_c, 0, 53, 0
3, 454145, Note_on_c, 0, 55, 90
3, 454205, Note_on_c, 0, 55, 0
3, 454205, Note_on_c, 0, 53, 90
3, 454445, Note_on_c, 0, 53, 0
3, 454445, Note_on_c, 0, 45, 0
3, 454445, Note_on_c, 0, 55, 90
3, 454445, Note_on_c, 0, 46, 90
3, 454505, Note_on_c, 0, 46, 0
3, 454505, Note_on_c, 0, 55, 0
3, 454505, Note_on_c, 0, 57, 90
3, 454505, Note_on_c, 0, 48, 90
3, 454565, Note_on_c, 0, 48, 0
3, 454565, Note_on_c, 0, 57, 0
3, 454565, Note_on_c, 0, 58, 90
3, 454565, Note_on_c, 0, 50, 90
3, 454685, Note_on_c, 0, 50, 0
3, 454685, Note_on_c, 0, 52, 90
3, 454745, Note_on_c, 0, 52, 0
3, 454745, Note_on_c, 0, 54, 90
3, 454805, Note_on_c, 0, 54, 0
3, 454805, Note_on_c, 0, 55, 90
3, 454865, Note_on_c, 0, 55, 0
3, 454865, Note_on_c, 0, 58, 0
3, 454865, Note_on_c, 0, 57, 90
3, 454865, Note_on_c, 0, 53, 90
3, 454925, Note_on_c, 0, 53, 0
3, 454925, Note_on_c, 0, 57, 0
3, 454925, Note_on_c, 0, 55, 90
3, 454925, Note_on_c, 0, 52, 90
3, 454985, Note_on_c, 0, 52, 0
3, 454985, Note_on_c, 0, 55, 0
3, 454985, Note_on_c, 0, 53, 90
3, 454985, Note_on_c, 0, 50, 90
3, 455045, Note_on_c, 0, 50, 0
3, 455045, Note_on_c, 0, 53, 0
3, 455045, Note_on_c, 0, 52, 90
3, 455045, Note_on_c, 0, 48, 90
3, 455165, Note_on_c, 0, 48, 0
3, 455165, Note_on_c, 0, 52, 0
3, 455165, Note_on_c, 0, 53, 90
3, 455165, Note_on_c, 0, 50, 90
3, 455225, Note_on_c, 0, 50, 0
3, 455225, Note_on_c, 0, 53, 0
3, 455225, Note_on_c, 0, 55, 90
3, 455225, Note_on_c, 0, 52, 90
3, 455285, Note_on_c, 0, 52, 0
3, 455285, Note_on_c, 0, 55, 0
3, 455285, Note_on_c, 0, 57, 90
3, 455285, Note_on_c, 0, 53, 90
3, 455345, Note_on_c, 0, 53, 0
3, 455345, Note_on_c, 0, 52, 90
3, 455405, Note_on_c, 0, 52, 0
3, 455405, Note_on_c, 0, 57, 0
3, 455405, Note_on_c, 0, 62, 90
3, 455405, Note_on_c, 0, 50, 90
3, 455465, Note_on_c, 0, 50, 0
3, 455465, Note_on_c, 0, 48, 90
3, 455525, Note_on_c, 0, 48, 0
3, 455525, Note_on_c, 0, 62, 0
3, 455525, Note_on_c, 0, 50, 90
3, 455525, Note_on_c, 0, 46, 90
3, 455645, Note_on_c, 0, 46, 0
3, 455645, Note_on_c, 0, 50, 0
3, 455645, Note_on_c, 0, 58, 90
3, 455705, Note_on_c, 0, 58, 0
3, 455705, Note_on_c, 0, 57, 90
3, 455765, Note_on_c, 0, 57, 0
3, 455765, Note_on_c, 0, 58, 90
3, 455885, Note_on_c, 0, 58, 0
3, 455885, Note_on_c, 0, 62, 90
3, 455885, Note_on_c, 0, 46, 90
3, 456005, Note_on_c, 0, 46, 0
3, 456005, Note_on_c, 0, 62, 0
3, 456005, Note_on_c, 0, 64, 90
3, 456005, Note_on_c, 0, 45, 90
3, 456125, Note_on_c, 0, 45, 0
3, 456125, Note_on_c, 0, 57, 90
3, 456185, Note_on_c, 0, 57, 0
3, 456185, Note_on_c, 0, 58, 90
3, 456245, Note_on_c, 0, 58, 0
3, 456245, Note_on_c, 0, 64, 0
3, 456245, Note_on_c, 0, 57, 90
3, 456305, Note_on_c, 0, 57, 0
3, 456305, Note_on_c, 0, 55, 90
3, 456365, Note_on_c, 0, 55, 0
3, 456365, Note_on_c, 0, 53, 90
3, 456425, Note_on_c, 0, 53, 0
3, 456425, Note_on_c, 0, 52, 90
3, 456485, Note_on_c, 0, 52, 0
3, 456485, Note_on_c, 0, 53, 90
3, 456545, Note_on_c, 0, 53, 0
3, 456545, Note_on_c, 0, 52, 90
3, 456605, Note_on_c, 0, 52, 0
3, 456605, Note_on_c, 0, 53, 90
3, 456665, Note_on_c, 0, 53, 0
3, 456665, Note_on_c, 0, 55, 90
3, 456725, Note_on_c, 0, 55, 0
3, 456725, Note_on_c, 0, 53, 90
3, 456785, Note_on_c, 0, 53, 0
3, 456785, Note_on_c, 0, 52, 90
3, 456845, Note_on_c, 0, 52, 0
3, 456845, Note_on_c, 0, 50, 90
3, 456905, Note_on_c, 0, 50, 0
3, 456905, Note_on_c, 0, 49, 90
3, 456965, Note_on_c, 0, 49, 0
3, 456965, Note_on_c, 0, 50, 90
3, 457025, Note_on_c, 0, 50, 0
3, 457025, Note_on_c, 0, 38, 90
3, 457085, Note_on_c, 0, 38, 0
3, 457085, Note_on_c, 0, 50, 90
3, 457145, Note_on_c, 0, 50, 0
3, 457145, Note_on_c, 0, 52, 90
3, 457205, Note_on_c, 0, 52, 0
3, 457205, Note_on_c, 0, 53, 90
3, 457265, Note_on_c, 0, 53, 0
3, 457265, Note_on_c, 0, 57, 90
3, 457325, Note_on_c, 0, 57, 0
3, 457325, Note_on_c, 0, 62, 90
3, 457385, Note_on_c, 0, 62, 0
3, 457385, Note_on_c, 0, 65, 90
3, 457445, Note_on_c, 0, 65, 0
3, 457445, Note_on_c, 0, 64, 90
3, 457505, Note_on_c, 0, 64, 0
3, 457505, Note_on_c, 0, 65, 90
3, 457565, Note_on_c, 0, 65, 0
3, 457565, Note_on_c, 0, 67, 90
3, 457625, Note_on_c, 0, 67, 0
3, 457625, Note_on_c, 0, 64, 90
3, 457685, Note_on_c, 0, 64, 0
3, 457685, Note_on_c, 0, 61, 90
3, 457745, Note_on_c, 0, 61, 0
3, 457745, Note_on_c, 0, 62, 90
3, 457805, Note_on_c, 0, 62, 0
3, 457805, Note_on_c, 0, 64, 90
3, 457865, Note_on_c, 0, 64, 0
3, 457865, Note_on_c, 0, 61, 90
3, 457925, Note_on_c, 0, 61, 0
3, 457925, Note_on_c, 0, 62, 90
3, 457925, Note_on_c, 0, 62, 90
3, 458045, Note_on_c, 0, 62, 0
3, 458045, Note_on_c, 0, 50, 90
3, 458165, Note_on_c, 0, 50, 0
3, 458165, Note_on_c, 0, 62, 0
3, 458165, Note_on_c, 0, 57, 90
3, 458345, Note_on_c, 0, 57, 0
3, 458345, Note_on_c, 0, 59, 90
3, 458405, Note_on_c, 0, 59, 0
3, 458405, Note_on_c, 0, 60, 90
3, 458585, Note_on_c, 0, 60, 0
3, 458585, Note_on_c, 0, 62, 90
3, 458645, Note_on_c, 0, 62, 0
3, 458645, Note_on_c, 0, 64, 90
3, 458885, Note_on_c, 0, 64, 0
3, 458885, Note_on_c, 0, 65, 90
3, 459125, Note_on_c, 0, 65, 0
3, 459125, Note_on_c, 0, 64, 90
3, 459305, Note_on_c, 0, 64, 0
3, 459305, Note_on_c, 0, 62, 90
3, 459365, Note_on_c, 0, 62, 0
3, 459365, Note_on_c, 0, 61, 90
3, 459665, Note_on_c, 0, 61, 0
3, 459665, Note_on_c, 0, 57, 90
3, 459725, Note_on_c, 0, 57, 0
3, 459725, Note_on_c, 0, 59, 90
3, 459785, Note_on_c, 0, 59, 0
3, 459785, Note_on_c, 0, 61, 90
3, 459845, Note_on_c, 0, 61, 0
3, 459845, Note_on_c, 0, 62, 90
3, 459905, Note_on_c, 0, 62, 0
3, 459905, Note_on_c, 0, 64, 90
3, 459965, Note_on_c, 0, 64, 0
3, 459965, Note_on_c, 0, 65, 90
3, 460145, Note_on_c, 0, 65, 0
3, 460145, Note_on_c, 0, 64, 90
3, 460205, Note_on_c, 0, 64, 0
3, 460205, Note_on_c, 0, 62, 90
3, 460265, Note_on_c, 0, 62, 0
3, 460265, Note_on_c, 0, 64, 90
3, 460325, Note_on_c, 0, 64, 0
3, 460325, Note_on_c, 0, 61, 90
3, 460325, Note_on_c, 0, 57, 90
3, 460385, Note_on_c, 0, 61, 0
3, 460385, Note_on_c, 0, 62, 90
3, 460445, Note_on_c, 0, 62, 0
3, 460445, Note_on_c, 0, 64, 90
3, 460565, Note_on_c, 0, 57, 0
3, 460565, Note_on_c, 0, 50, 90
3, 460625, Note_on_c, 0, 64, 0
3, 460625, Note_on_c, 0, 57, 90
3, 460685, Note_on_c, 0, 57, 0
3, 460685, Note_on_c, 0, 62, 90
3, 460745, Note_on_c, 0, 50, 0
3, 460745, Note_on_c, 0, 52, 90
3, 460805, Note_on_c, 0, 52, 0
3, 460805, Note_on_c, 0, 53, 90
3, 460865, Note_on_c, 0, 62, 0
3, 460865, Note_on_c, 0, 64, 90
3, 460925, Note_on_c, 0, 64, 0
3, 460925, Note_on_c, 0, 65, 90
3, 460985, Note_on_c, 0, 53, 0
3, 460985, Note_on_c, 0, 55, 90
3, 461045, Note_on_c, 0, 55, 0
3, 461045, Note_on_c, 0, 57, 90
3, 461105, Note_on_c, 0, 65, 0
3, 461105, Note_on_c, 0, 67, 90
3, 461165, Note_on_c, 0, 67, 0
3, 461165, Note_on_c, 0, 69, 90
3, 461285, Note_on_c, 0, 57, 0
3, 461285, Note_on_c, 0, 58, 90
3, 461345, Note_on_c, 0, 69, 0
3, 461345, Note_on_c, 0, 67, 90
3, 461405, Note_on_c, 0, 67, 0
3, 461405, Note_on_c, 0, 65, 90
3, 461465, Note_on_c, 0, 65, 0
3, 461465, Note_on_c, 0, 64, 90
3, 461525, Note_on_c, 0, 64, 0
3, 461525, Note_on_c, 0, 58, 0
3, 461525, Note_on_c, 0, 65, 90
3, 461525, Note_on_c, 0, 57, 90
3, 461645, Note_on_c, 0, 65, 0
3, 461645, Note_on_c, 0, 64, 90
3, 461705, Note_on_c, 0, 57, 0
3, 461705, Note_on_c, 0, 55, 90
3, 461765, Note_on_c, 0, 55, 0
3, 461765, Note_on_c, 0, 64, 0
3, 461765, Note_on_c, 0, 57, 90
3, 461765, Note_on_c, 0, 53, 90
3, 461885, Note_on_c, 0, 57, 0
3, 461885, Note_on_c, 0, 59, 90
3, 461945, Note_on_c, 0, 59, 0
3, 461945, Note_on_c, 0, 61, 90
3, 462005, Note_on_c, 0, 61, 0
3, 462005, Note_on_c, 0, 62, 90
3, 462065, Note_on_c, 0, 53, 0
3, 462065, Note_on_c, 0, 52, 90
3, 462125, Note_on_c, 0, 52, 0
3, 462125, Note_on_c, 0, 53, 90
3, 462185, Note_on_c, 0, 53, 0
3, 462185, Note_on_c, 0, 55, 90
3, 462245, Note_on_c, 0, 55, 0
3, 462245, Note_on_c, 0, 62, 0
3, 462245, Note_on_c, 0, 60, 90
3, 462245, Note_on_c, 0, 57, 90
3, 462425, Note_on_c, 0, 60, 0
3, 462425, Note_on_c, 0, 59, 90
3, 462485, Note_on_c, 0, 59, 0
3, 462485, Note_on_c, 0, 60, 90
3, 462545, Note_on_c, 0, 57, 0
3, 462545, Note_on_c, 0, 55, 90
3, 462605, Note_on_c, 0, 55, 0
3, 462605, Note_on_c, 0, 53, 90
3, 462665, Note_on_c, 0, 53, 0
3, 462665, Note_on_c, 0, 52, 90
3, 462725, Note_on_c, 0, 52, 0
3, 462725, Note_on_c, 0, 50, 90
3, 462785, Note_on_c, 0, 60, 0
3, 462785, Note_on_c, 0, 60, 90
3, 462845, Note_on_c, 0, 60, 0
3, 462845, Note_on_c, 0, 58, 90
3, 462905, Note_on_c, 0, 58, 0
3, 462905, Note_on_c, 0, 57, 90
3, 462965, Note_on_c, 0, 57, 0
3, 462965, Note_on_c, 0, 50, 0
3, 462965, Note_on_c, 0, 58, 90
3, 462965, Note_on_c, 0, 55, 90
3, 463145, Note_on_c, 0, 58, 0
3, 463145, Note_on_c, 0, 62, 90
3, 463205, Note_on_c, 0, 62, 0
3, 463205, Note_on_c, 0, 69, 90
3, 463265, Note_on_c, 0, 55, 0
3, 463265, Note_on_c, 0, 55, 90
3, 463325, Note_on_c, 0, 55, 0
3, 463325, Note_on_c, 0, 53, 90
3, 463385, Note_on_c, 0, 53, 0
3, 463385, Note_on_c, 0, 52, 90
3, 463445, Note_on_c, 0, 52, 0
3, 463445, Note_on_c, 0, 69, 0
3, 463445, Note_on_c, 0, 53, 90
3, 463745, Note_on_c, 0, 53, 0
3, 463745, Note_on_c, 0, 52, 90
3, 463805, Note_on_c, 0, 52, 0
3, 463805, Note_on_c, 0, 53, 90
3, 463865, Note_on_c, 0, 53, 0
3, 463865, Note_on_c, 0, 55, 90
3, 463925, Note_on_c, 0, 55, 0
3, 463925, Note_on_c, 0, 57, 90
3, 464225, Note_on_c, 0, 57, 0
3, 464225, Note_on_c, 0, 58, 90
3, 464285, Note_on_c, 0, 58, 0
3, 464285, Note_on_c, 0, 57, 90
3, 464345, Note_on_c, 0, 57, 0
3, 464345, Note_on_c, 0, 55, 90
3, 464405, Note_on_c, 0, 55, 0
3, 464405, Note_on_c, 0, 54, 90
3, 464585, Note_on_c, 0, 54, 0
3, 464585, Note_on_c, 0, 52, 90
3, 464615, Note_on_c, 0, 52, 0
3, 464615, Note_on_c, 0, 54, 90
3, 464645, Note_on_c, 0, 54, 0
3, 464645, Note_on_c, 0, 55, 90
3, 464705, Note_on_c, 0, 55, 0
3, 464705, Note_on_c, 0, 57, 90
3, 464765, Note_on_c, 0, 57, 0
3, 464765, Note_on_c, 0, 55, 90
3, 464825, Note_on_c, 0, 55, 0
3, 464825, Note_on_c, 0, 53, 90
3, 464885, Note_on_c, 0, 53, 0
3, 464885, Note_on_c, 0, 52, 90
3, 465065, Note_on_c, 0, 52, 0
3, 465065, Note_on_c, 0, 50, 90
3, 465095, Note_on_c, 0, 50, 0
3, 465095, Note_on_c, 0, 52, 90
3, 465125, Note_on_c, 0, 52, 0
3, 465125, Note_on_c, 0, 53, 90
3, 465245, Note_on_c, 0, 53, 0
3, 465245, Note_on_c, 0, 52, 90
3, 465305, Note_on_c, 0, 52, 0
3, 465305, Note_on_c, 0, 50, 90
3, 465365, Note_on_c, 0, 50, 0
3, 465365, Note_on_c, 0, 49, 90
3, 465545, Note_on_c, 0, 49, 0
3, 465545, Note_on_c, 0, 47, 90
3, 465575, Note_on_c, 0, 47, 0
3, 465575, Note_on_c, 0, 49, 90
3, 465605, Note_on_c, 0, 49, 0
3, 465605, Note_on_c, 0, 50, 90
3, 465905, Note_on_c, 0, 50, 0
3, 465905, Note_on_c, 0, 41, 90
3, 465965, Note_on_c, 0, 41, 0
3, 465965, Note_on_c, 0, 46, 90
3, 466025, Note_on_c, 0, 46, 0
3, 466025, Note_on_c, 0, 45, 90
3, 466085, Note_on_c, 0, 45, 0
3, 466085, Note_on_c, 0, 43, 90
3, 466145, Note_on_c, 0, 43, 0
3, 466145, Note_on_c, 0, 45, 90
3, 466205, Note_on_c, 0, 45, 0
3, 466205, Note_on_c, 0, 46, 90
3, 466265, Note_on_c, 0, 46, 0
3, 466265, Note_on_c, 0, 45, 90
3, 466325, Note_on_c, 0, 45, 0
3, 466325, Note_on_c, 0, 40, 90
3, 466385, Note_on_c, 0, 40, 0
3, 466385, Note_on_c, 0, 45, 90
3, 466445, Note_on_c, 0, 45, 0
3, 466445, Note_on_c, 0, 43, 90
3, 466505, Note_on_c, 0, 43, 0
3, 466505, Note_on_c, 0, 45, 90
3, 466565, Note_on_c, 0, 45, 0
3, 466565, Note_on_c, 0, 41, 90
3, 466625, Note_on_c, 0, 41, 0
3, 466625, Note_on_c, 0, 43, 90
3, 466685, Note_on_c, 0, 43, 0
3, 466685, Note_on_c, 0, 54, 90
3, 466685, Note_on_c, 0, 45, 90
3, 466745, Note_on_c, 0, 45, 0
3, 466745, Note_on_c, 0, 42, 90
3, 466805, Note_on_c, 0, 42, 0
3, 466805, Note_on_c, 0, 54, 0
3, 466805, Note_on_c, 0, 55, 90
3, 466805, Note_on_c, 0, 46, 90
3, 466925, Note_on_c, 0, 46, 0
3, 466925, Note_on_c, 0, 55, 0
3, 466925, Note_on_c, 0, 50, 90
3, 466925, Note_on_c, 0, 43, 90
3, 467045, Note_on_c, 0, 43, 0
3, 467045, Note_on_c, 0, 50, 0
3, 467045, Note_on_c, 0, 50, 90
3, 467165, Note_on_c, 0, 58, 90
3, 467225, Note_on_c, 0, 50, 0
3, 467225, Note_on_c, 0, 52, 90
3, 467285, Note_on_c, 0, 52, 0
3, 467285, Note_on_c, 0, 58, 0
3, 467285, Note_on_c, 0, 57, 90
3, 467285, Note_on_c, 0, 53, 90
3, 467405, Note_on_c, 0, 57, 0
3, 467405, Note_on_c, 0, 62, 90
3, 467465, Note_on_c, 0, 53, 0
3, 467465, Note_on_c, 0, 54, 90
3, 467525, Note_on_c, 0, 54, 0
3, 467525, Note_on_c, 0, 62, 0
3, 467525, Note_on_c, 0, 55, 90
3, 467525, Note_on_c, 0, 55, 90
3, 467585, Note_on_c, 0, 55, 0
3, 467585, Note_on_c, 0, 57, 90
3, 467645, Note_on_c, 0, 57, 0
3, 467645, Note_on_c, 0, 58, 90
3, 467705, Note_on_c, 0, 58, 0
3, 467705, Note_on_c, 0, 60, 90
3, 467765, Note_on_c, 0, 60, 0
3, 467765, Note_on_c, 0, 55, 0
3, 467765, Note_on_c, 0, 62, 90
3, 467765, Note_on_c, 0, 53, 90
3, 467825, Note_on_c, 0, 53, 0
3, 467825, Note_on_c, 0, 62, 0
3, 467825, Note_on_c, 0, 64, 90
3, 467825, Note_on_c, 0, 55, 90
3, 467885, Note_on_c, 0, 55, 0
3, 467885, Note_on_c, 0, 64, 0
3, 467885, Note_on_c, 0, 65, 90
3, 467885, Note_on_c, 0, 57, 90
3, 468005, Note_on_c, 0, 57, 0
3, 468005, Note_on_c, 0, 58, 90
3, 468065, Note_on_c, 0, 65, 0
3, 468065, Note_on_c, 0, 64, 90
3, 468125, Note_on_c, 0, 64, 0
3, 468125, Note_on_c, 0, 58, 0
3, 468125, Note_on_c, 0, 62, 90
3, 468125, Note_on_c, 0, 57, 90
3, 468185, Note_on_c, 0, 62, 0
3, 468185, Note_on_c, 0, 60, 90
3, 468245, Note_on_c, 0, 60, 0
3, 468245, Note_on_c, 0, 58, 90
3, 468365, Note_on_c, 0, 57, 0
3, 468365, Note_on_c, 0, 55, 90
3, 468485, Note_on_c, 0, 55, 0
3, 468485, Note_on_c, 0, 58, 0
3, 468485, Note_on_c, 0, 57, 90
3, 468485, Note_on_c, 0, 55, 90
3, 468545, Note_on_c, 0, 55, 0
3, 468545, Note_on_c, 0, 55, 90
3, 468605, Note_on_c, 0, 55, 0
3, 468605, Note_on_c, 0, 53, 90
3, 468665, Note_on_c, 0, 53, 0
3, 468665, Note_on_c, 0, 52, 90
3, 468725, Note_on_c, 0, 52, 0
3, 468725, Note_on_c, 0, 53, 90
3, 468845, Note_on_c, 0, 57, 0
3, 468845, Note_on_c, 0, 62, 90
3, 468905, Note_on_c, 0, 62, 0
3, 468905, Note_on_c, 0, 60, 90
3, 468965, Note_on_c, 0, 60, 0
3, 468965, Note_on_c, 0, 58, 90
3, 469025, Note_on_c, 0, 58, 0
3, 469025, Note_on_c, 0, 57, 90
3, 469085, Note_on_c, 0, 57, 0
3, 469085, Note_on_c, 0, 53, 0
3, 469085, Note_on_c, 0, 55, 90
3, 469085, Note_on_c, 0, 52, 90
3, 469145, Note_on_c, 0, 52, 0
3, 469145, Note_on_c, 0, 50, 90
3, 469205, Note_on_c, 0, 50, 0
3, 469205, Note_on_c, 0, 52, 90
3, 469325, Note_on_c, 0, 55, 0
3, 469325, Note_on_c, 0, 60, 90
3, 469385, Note_on_c, 0, 60, 0
3, 469385, Note_on_c, 0, 58, 90
3, 469445, Note_on_c, 0, 58, 0
3, 469445, Note_on_c, 0, 57, 90
3, 469505, Note_on_c, 0, 57, 0
3, 469505, Note_on_c, 0, 55, 90
3, 469565, Note_on_c, 0, 55, 0
3, 469565, Note_on_c, 0, 52, 0
3, 469565, Note_on_c, 0, 53, 90
3, 469565, Note_on_c, 0, 50, 90
3, 469625, Note_on_c, 0, 50, 0
3, 469625, Note_on_c, 0, 49, 90
3, 469685, Note_on_c, 0, 49, 0
3, 469685, Note_on_c, 0, 50, 90
3, 469745, Note_on_c, 0, 53, 0
3, 469745, Note_on_c, 0, 52, 90
3, 469805, Note_on_c, 0, 52, 0
3, 469805, Note_on_c, 0, 53, 90
3, 469925, Note_on_c, 0, 53, 0
3, 469925, Note_on_c, 0, 58, 90
3, 470045, Note_on_c, 0, 58, 0
3, 470045, Note_on_c, 0, 52, 90
3, 470165, Note_on_c, 0, 52, 0
3, 470165, Note_on_c, 0, 50, 0
3, 470165, Note_on_c, 0, 57, 90
3, 470165, Note_on_c, 0, 49, 90
3, 470405, Note_on_c, 0, 49, 0
3, 470405, Note_on_c, 0, 50, 90
3, 470465, Note_on_c, 0, 57, 0
3, 470465, Note_on_c, 0, 55, 90
3, 470525, Note_on_c, 0, 55, 0
3, 470525, Note_on_c, 0, 53, 90
3, 470585, Note_on_c, 0, 53, 0
3, 470585, Note_on_c, 0, 55, 90
3, 470645, Note_on_c, 0, 55, 0
3, 470645, Note_on_c, 0, 50, 0
3, 470645, Note_on_c, 0, 57, 90
3, 470645, Note_on_c, 0, 45, 90
3, 470765, Note_on_c, 0, 57, 0
3, 470765, Note_on_c, 0, 52, 90
3, 470825, Note_on_c, 0, 45, 0
3, 470825, Note_on_c, 0, 47, 90
3, 470885, Note_on_c, 0, 47, 0
3, 470885, Note_on_c, 0, 52, 0
3, 470885, Note_on_c, 0, 57, 90
3, 470885, Note_on_c, 0, 48, 90
3, 471065, Note_on_c, 0, 48, 0
3, 471065, Note_on_c, 0, 57, 0
3, 471065, Note_on_c, 0, 59, 90
3, 471065, Note_on_c, 0, 50, 90
3, 471125, Note_on_c, 0, 50, 0
3, 471125, Note_on_c, 0, 59, 0
3, 471125, Note_on_c, 0, 60, 90
3, 471125, Note_on_c, 0, 52, 90
3, 471185, Note_on_c, 0, 60, 0
3, 471185, Note_on_c, 0, 62, 90
3, 471245, Note_on_c, 0, 62, 0
3, 471245, Note_on_c, 0, 60, 90
3, 471305, Note_on_c, 0, 60, 0
3, 471305, Note_on_c, 0, 59, 90
3, 471365, Note_on_c, 0, 59, 0
3, 471365, Note_on_c, 0, 52, 0
3, 471365, Note_on_c, 0, 57, 90
3, 471365, Note_on_c, 0, 53, 90
3, 471605, Note_on_c, 0, 53, 0
3, 471605, Note_on_c, 0, 52, 90
3, 471725, Note_on_c, 0, 57, 0
3, 471725, Note_on_c, 0, 56, 90
3, 471785, Note_on_c, 0, 52, 0
3, 471785, Note_on_c, 0, 50, 90
3, 471845, Note_on_c, 0, 50, 0
3, 471845, Note_on_c, 0, 56, 0
3, 471845, Note_on_c, 0, 57, 90
3, 471845, Note_on_c, 0, 48, 90
3, 471965, Note_on_c, 0, 57, 0
3, 471965, Note_on_c, 0, 52, 90
3, 472085, Note_on_c, 0, 52, 0
3, 472085, Note_on_c, 0, 64, 90
3, 472145, Note_on_c, 0, 48, 0
3, 472145, Note_on_c, 0, 47, 90
3, 472205, Note_on_c, 0, 47, 0
3, 472205, Note_on_c, 0, 64, 0
3, 472205, Note_on_c, 0, 62, 90
3, 472205, Note_on_c, 0, 48, 90
3, 472265, Note_on_c, 0, 48, 0
3, 472265, Note_on_c, 0, 62, 0
3, 472265, Note_on_c, 0, 60, 90
3, 472265, Note_on_c, 0, 50, 90
3, 472325, Note_on_c, 0, 50, 0
3, 472325, Note_on_c, 0, 60, 0
3, 472325, Note_on_c, 0, 59, 90
3, 472325, Note_on_c, 0, 52, 90
3, 472385, Note_on_c, 0, 52, 0
3, 472385, Note_on_c, 0, 51, 90
3, 472445, Note_on_c, 0, 51, 0
3, 472445, Note_on_c, 0, 59, 0
3, 472445, Note_on_c, 0, 52, 90
3, 472445, Note_on_c, 0, 52, 90
3, 472505, Note_on_c, 0, 52, 0
3, 472505, Note_on_c, 0, 54, 90
3, 472565, Note_on_c, 0, 54, 0
3, 472565, Note_on_c, 0, 52, 0
3, 472565, Note_on_c, 0, 56, 90
3, 472625, Note_on_c, 0, 56, 0
3, 472625, Note_on_c, 0, 57, 90
3, 472685, Note_on_c, 0, 57, 0
3, 472685, Note_on_c, 0, 59, 90
3, 472685, Note_on_c, 0, 52, 90
3, 472745, Note_on_c, 0, 59, 0
3, 472745, Note_on_c, 0, 60, 90
3, 472805, Note_on_c, 0, 60, 0
3, 472805, Note_on_c, 0, 52, 0
3, 472805, Note_on_c, 0, 62, 90
3, 472805, Note_on_c, 0, 54, 90
3, 472865, Note_on_c, 0, 54, 0
3, 472865, Note_on_c, 0, 62, 0
3, 472865, Note_on_c, 0, 64, 90
3, 472865, Note_on_c, 0, 56, 90
3, 472925, Note_on_c, 0, 56, 0
3, 472925, Note_on_c, 0, 64, 0
3, 472925, Note_on_c, 0, 65, 90
3, 472925, Note_on_c, 0, 57, 90
3, 472985, Note_on_c, 0, 65, 0
3, 472985, Note_on_c, 0, 62, 90
3, 473045, Note_on_c, 0, 62, 0
3, 473045, Note_on_c, 0, 59, 90
3, 473105, Note_on_c, 0, 59, 0
3, 473105, Note_on_c, 0, 64, 90
3, 473165, Note_on_c, 0, 64, 0
3, 473165, Note_on_c, 0, 57, 0
3, 473165, Note_on_c, 0, 62, 90
3, 473165, Note_on_c, 0, 56, 90
3, 473225, Note_on_c, 0, 56, 0
3, 473225, Note_on_c, 0, 62, 0
3, 473225, Note_on_c, 0, 64, 90
3, 473225, Note_on_c, 0, 54, 90
3, 473285, Note_on_c, 0, 54, 0
3, 473285, Note_on_c, 0, 64, 0
3, 473285, Note_on_c, 0, 61, 90
3, 473285, Note_on_c, 0, 55, 90
3, 473345, Note_on_c, 0, 61, 0
3, 473345, Note_on_c, 0, 57, 90
3, 473405, Note_on_c, 0, 57, 0
3, 473405, Note_on_c, 0, 55, 0
3, 473405, Note_on_c, 0, 62, 90
3, 473405, Note_on_c, 0, 53, 90
3, 473525, Note_on_c, 0, 53, 0
3, 473525, Note_on_c, 0, 62, 0
3, 473525, Note_on_c, 0, 55, 90
3, 473525, Note_on_c, 0, 52, 90
3, 473645, Note_on_c, 0, 52, 0
3, 473645, Note_on_c, 0, 55, 0
3, 473645, Note_on_c, 0, 58, 90
3, 473645, Note_on_c, 0, 50, 90
3, 473765, Note_on_c, 0, 50, 0
3, 473765, Note_on_c, 0, 58, 0
3, 473765, Note_on_c, 0, 52, 90
3, 473765, Note_on_c, 0, 49, 90
3, 473885, Note_on_c, 0, 49, 0
3, 473885, Note_on_c, 0, 52, 0
3, 473885, Note_on_c, 0, 50, 90
3, 473885, Note_on_c, 0, 50, 90
3, 473945, Note_on_c, 0, 50, 0
3, 473945, Note_on_c, 0, 46, 90
3, 474005, Note_on_c, 0, 46, 0
3, 474005, Note_on_c, 0, 43, 90
3, 474125, Note_on_c, 0, 43, 0
3, 474125, Note_on_c, 0, 50, 0
3, 474125, Note_on_c, 0, 49, 90
3, 474125, Note_on_c, 0, 45, 90
3, 474245, Note_on_c, 0, 45, 0
3, 474245, Note_on_c, 0, 49, 0
3, 474245, Note_on_c, 0, 50, 90
3, 474245, Note_on_c, 0, 38, 90
3, 474365, Note_on_c, 0, 38, 0
3, 474365, Note_on_c, 0, 50, 0
3, 475325, Note_on_c, 0, 43, 90
3, 475385, Note_on_c, 0, 43, 0
3, 475385, Note_on_c, 0, 45, 90
3, 475445, Note_on_c, 0, 45, 0
3, 475445, Note_on_c, 0, 46, 90
3, 475505, Note_on_c, 0, 46, 0
3, 475505, Note_on_c, 0, 48, 90
3, 475565, Note_on_c, 0, 48, 0
3, 475565, Note_on_c, 0, 50, 90
3, 475625, Note_on_c, 0, 50, 0
3, 475625, Note_on_c, 0, 52, 90
3, 475685, Note_on_c, 0, 52, 0
3, 475685, Note_on_c, 0, 53, 90
3, 475745, Note_on_c, 0, 53, 0
3, 475745, Note_on_c, 0, 55, 90
3, 475805, Note_on_c, 0, 55, 0
3, 475805, Note_on_c, 0, 57, 90
3, 475865, Note_on_c, 0, 57, 0
3, 475865, Note_on_c, 0, 53, 90
3, 475925, Note_on_c, 0, 53, 0
3, 475925, Note_on_c, 0, 50, 90
3, 475985, Note_on_c, 0, 50, 0
3, 475985, Note_on_c, 0, 55, 90
3, 476045, Note_on_c, 0, 55, 0
3, 476045, Note_on_c, 0, 53, 90
3, 476105, Note_on_c, 0, 53, 0
3, 476105, Note_on_c, 0, 55, 90
3, 476165, Note_on_c, 0, 55, 0
3, 476165, Note_on_c, 0, 52, 90
3, 476225, Note_on_c, 0, 52, 0
3, 476225, Note_on_c, 0, 53, 90
3, 476285, Note_on_c, 0, 53, 0
3, 476285, Note_on_c, 0, 55, 90
3, 476345, Note_on_c, 0, 55, 0
3, 476345, Note_on_c, 0, 52, 90
3, 476405, Note_on_c, 0, 52, 0
3, 476405, Note_on_c, 0, 48, 90
3, 476465, Note_on_c, 0, 48, 0
3, 476465, Note_on_c, 0, 53, 90
3, 476525, Note_on_c, 0, 53, 0
3, 476525, Note_on_c, 0, 52, 90
3, 476585, Note_on_c, 0, 52, 0
3, 476585, Note_on_c, 0, 53, 90
3, 476645, Note_on_c, 0, 53, 0
3, 476645, Note_on_c, 0, 50, 90
3, 476705, Note_on_c, 0, 50, 0
3, 476705, Note_on_c, 0, 52, 90
3, 476765, Note_on_c, 0, 52, 0
3, 476765, Note_on_c, 0, 53, 90
3, 476825, Note_on_c, 0, 53, 0
3, 476825, Note_on_c, 0, 50, 90
3, 476885, Note_on_c, 0, 50, 0
3, 476885, Note_on_c, 0, 47, 90
3, 476945, Note_on_c, 0, 47, 0
3, 476945, Note_on_c, 0, 52, 90
3, 477005, Note_on_c, 0, 52, 0
3, 477005, Note_on_c, 0, 50, 90
3, 477065, Note_on_c, 0, 50, 0
3, 477065, Note_on_c, 0, 52, 90
3, 477125, Note_on_c, 0, 52, 0
3, 477125, Note_on_c, 0, 53, 90
3, 477125, Note_on_c, 0, 49, 90
3, 477365, Note_on_c, 0, 49, 0
3, 477365, Note_on_c, 0, 53, 0
3, 477365, Note_on_c, 0, 50, 90
3, 477365, Note_on_c, 0, 50, 90
3, 477545, Note_on_c, 0, 50, 0
3, 477545, Note_on_c, 0, 52, 90
3, 477605, Note_on_c, 0, 52, 0
3, 477605, Note_on_c, 0, 53, 90
3, 477725, Note_on_c, 0, 50, 0
3, 477725, Note_on_c, 0, 46, 90
3, 477785, Note_on_c, 0, 53, 0
3, 477785, Note_on_c, 0, 55, 90
3, 477845, Note_on_c, 0, 55, 0
3, 477845, Note_on_c, 0, 46, 0
3, 477845, Note_on_c, 0, 57, 90
3, 477845, Note_on_c, 0, 53, 90
3, 478025, Note_on_c, 0, 53, 0
3, 478025, Note_on_c, 0, 50, 90
3, 478085, Note_on_c, 0, 50, 0
3, 478085, Note_on_c, 0, 57, 0
3, 478085, Note_on_c, 0, 58, 90
3, 478085, Note_on_c, 0, 55, 90
3, 478265, Note_on_c, 0, 55, 0
3, 478265, Note_on_c, 0, 55, 90
3, 478325, Note_on_c, 0, 55, 0
3, 478325, Note_on_c, 0, 58, 0
3, 478325, Note_on_c, 0, 57, 90
3, 478325, Note_on_c, 0, 53, 90
3, 478505, Note_on_c, 0, 53, 0
3, 478505, Note_on_c, 0, 57, 0
3, 478505, Note_on_c, 0, 55, 90
3, 478505, Note_on_c, 0, 52, 90
3, 478565, Note_on_c, 0, 52, 0
3, 478565, Note_on_c, 0, 55, 0
3, 478565, Note_on_c, 0, 53, 90
3, 478565, Note_on_c, 0, 50, 90
3, 478745, Note_on_c, 0, 50, 0
3, 478745, Note_on_c, 0, 48, 90
3, 478805, Note_on_c, 0, 48, 0
3, 478805, Note_on_c, 0, 46, 90
3, 478865, Note_on_c, 0, 53, 0
3, 478865, Note_on_c, 0, 52, 90
3, 478925, Note_on_c, 0, 52, 0
3, 478925, Note_on_c, 0, 53, 90
3, 478985, Note_on_c, 0, 53, 0
3, 478985, Note_on_c, 0, 55, 90
3, 479045, Note_on_c, 0, 55, 0
3, 479045, Note_on_c, 0, 46, 0
3, 479045, Note_on_c, 0, 57, 90
3, 479045, Note_on_c, 0, 53, 90
3, 479105, Note_on_c, 0, 57, 0
3, 479105, Note_on_c, 0, 60, 90
3, 479165, Note_on_c, 0, 60, 0
3, 479165, Note_on_c, 0, 62, 90
3, 479225, Note_on_c, 0, 62, 0
3, 479225, Note_on_c, 0, 64, 90
3, 479285, Note_on_c, 0, 64, 0
3, 479285, Note_on_c, 0, 53, 0
3, 479285, Note_on_c, 0, 65, 90
3, 479465, Note_on_c, 0, 65, 0
3, 479465, Note_on_c, 0, 64, 90
3, 479525, Note_on_c, 0, 64, 0
3, 479525, Note_on_c, 0, 62, 90
3, 479705, Note_on_c, 0, 62, 0
3, 479705, Note_on_c, 0, 60, 90
3, 479765, Note_on_c, 0, 60, 0
3, 479765, Note_on_c, 0, 58, 90
3, 479825, Note_on_c, 0, 50, 90
3, 479885, Note_on_c, 0, 50, 0
3, 479885, Note_on_c, 0, 52, 90
3, 479945, Note_on_c, 0, 52, 0
3, 479945, Note_on_c, 0, 58, 0
3, 479945, Note_on_c, 0, 57, 90
3, 479945, Note_on_c, 0, 54, 90
3, 480005, Note_on_c, 0, 54, 0
3, 480005, Note_on_c, 0, 57, 0
3, 480005, Note_on_c, 0, 55, 90
3, 480005, Note_on_c, 0, 55, 90
3, 480065, Note_on_c, 0, 55, 0
3, 480065, Note_on_c, 0, 62, 90
3, 480125, Note_on_c, 0, 62, 0
3, 480125, Note_on_c, 0, 64, 90
3, 480185, Note_on_c, 0, 64, 0
3, 480185, Note_on_c, 0, 66, 90
3, 480245, Note_on_c, 0, 66, 0
3, 480245, Note_on_c, 0, 55, 0
3, 480245, Note_on_c, 0, 67, 90
3, 480425, Note_on_c, 0, 67, 0
3, 480425, Note_on_c, 0, 65, 90
3, 480485, Note_on_c, 0, 65, 0
3, 480485, Note_on_c, 0, 64, 90
3, 480665, Note_on_c, 0, 64, 0
3, 480665, Note_on_c, 0, 62, 90
3, 480725, Note_on_c, 0, 62, 0
3, 480725, Note_on_c, 0, 60, 90
3, 480785, Note_on_c, 0, 52, 90
3, 480845, Note_on_c, 0, 52, 0
3, 480845, Note_on_c, 0, 54, 90
3, 480905, Note_on_c, 0, 54, 0
3, 480905, Note_on_c, 0, 60, 0
3, 480905, Note_on_c, 0, 59, 90
3, 480905, Note_on_c, 0, 56, 90
3, 480965, Note_on_c, 0, 56, 0
3, 480965, Note_on_c, 0, 59, 0
3, 480965, Note_on_c, 0, 57, 90
3, 480965, Note_on_c, 0, 57, 90
3, 481025, Note_on_c, 0, 57, 0
3, 481025, Note_on_c, 0, 64, 90
3, 481085, Note_on_c, 0, 64, 0
3, 481085, Note_on_c, 0, 66, 90
3, 481145, Note_on_c, 0, 66, 0
3, 481145, Note_on_c, 0, 68, 90
3, 481205, Note_on_c, 0, 68, 0
3, 481205, Note_on_c, 0, 57, 0
3, 481205, Note_on_c, 0, 69, 90
3, 481385, Note_on_c, 0, 69, 0
3, 481385, Note_on_c, 0, 67, 90
3, 481445, Note_on_c, 0, 67, 0
3, 481445, Note_on_c, 0, 65, 90
3, 481505, Note_on_c, 0, 65, 0
3, 481505, Note_on_c, 0, 64, 90
3, 481565, Note_on_c, 0, 64, 0
3, 481565, Note_on_c, 0, 65, 90
3, 481565, Note_on_c, 0, 57, 90
3, 481625, Note_on_c, 0, 65, 0
3, 481625, Note_on_c, 0, 60, 90
3, 481685, Note_on_c, 0, 60, 0
3, 481685, Note_on_c, 0, 57, 0
3, 481685, Note_on_c, 0, 62, 90
3, 481685, Note_on_c, 0, 58, 90
3, 481745, Note_on_c, 0, 62, 0
3, 481745, Note_on_c, 0, 60, 90
3, 481805, Note_on_c, 0, 60, 0
3, 481805, Note_on_c, 0, 58, 0
3, 481805, Note_on_c, 0, 62, 90
3, 481805, Note_on_c, 0, 53, 90
3, 481865, Note_on_c, 0, 62, 0
3, 481865, Note_on_c, 0, 58, 90
3, 481925, Note_on_c, 0, 58, 0
3, 481925, Note_on_c, 0, 53, 0
3, 481925, Note_on_c, 0, 57, 90
3, 481985, Note_on_c, 0, 57, 0
3, 481985, Note_on_c, 0, 55, 90
3, 482045, Note_on_c, 0, 55, 0
3, 482045, Note_on_c, 0, 53, 90
3, 482045, Note_on_c, 0, 50, 90
3, 482165, Note_on_c, 0, 50, 0
3, 482165, Note_on_c, 0, 48, 90
3, 482225, Note_on_c, 0, 53, 0
3, 482225, Note_on_c, 0, 52, 90
3, 482285, Note_on_c, 0, 52, 0
3, 482285, Note_on_c, 0, 48, 0
3, 482285, Note_on_c, 0, 53, 90
3, 482285, Note_on_c, 0, 53, 90
3, 482345, Note_on_c, 0, 53, 0
3, 482345, Note_on_c, 0, 57, 90
3, 482405, Note_on_c, 0, 53, 0
3, 482405, Note_on_c, 0, 46, 90
3, 482465, Note_on_c, 0, 46, 0
3, 482465, Note_on_c, 0, 57, 0
3, 482465, Note_on_c, 0, 55, 90
3, 482465, Note_on_c, 0, 48, 90
3, 482525, Note_on_c, 0, 48, 0
3, 482525, Note_on_c, 0, 55, 0
3, 482525, Note_on_c, 0, 53, 90
3, 482525, Note_on_c, 0, 50, 90
3, 482585, Note_on_c, 0, 50, 0
3, 482585, Note_on_c, 0, 53, 0
3, 482585, Note_on_c, 0, 55, 90
3, 482585, Note_on_c, 0, 52, 90
3, 482645, Note_on_c, 0, 52, 0
3, 482645, Note_on_c, 0, 55, 0
3, 482645, Note_on_c, 0, 57, 90
3, 482645, Note_on_c, 0, 53, 90
3, 482705, Note_on_c, 0, 53, 0
3, 482705, Note_on_c, 0, 55, 90
3, 482765, Note_on_c, 0, 55, 0
3, 482765, Note_on_c, 0, 57, 90
3, 482825, Note_on_c, 0, 57, 0
3, 482825, Note_on_c, 0, 58, 90
3, 482885, Note_on_c, 0, 58, 0
3, 482885, Note_on_c, 0, 60, 90
3, 482945, Note_on_c, 0, 57, 0
3, 482945, Note_on_c, 0, 55, 90
3, 483005, Note_on_c, 0, 55, 0
3, 483005, Note_on_c, 0, 53, 90
3, 483065, Note_on_c, 0, 53, 0
3, 483065, Note_on_c, 0, 52, 90
3, 483125, Note_on_c, 0, 52, 0
3, 483125, Note_on_c, 0, 50, 90
3, 483245, Note_on_c, 0, 60, 0
3, 483245, Note_on_c, 0, 53, 90
3, 483365, Note_on_c, 0, 50, 0
3, 483365, Note_on_c, 0, 48, 90
3, 483425, Note_on_c, 0, 53, 0
3, 483425, Note_on_c, 0, 50, 90
3, 483485, Note_on_c, 0, 50, 0
3, 483485, Note_on_c, 0, 52, 90
3, 483545, Note_on_c, 0, 52, 0
3, 483545, Note_on_c, 0, 55, 90
3, 483605, Note_on_c, 0, 55, 0
3, 483605, Note_on_c, 0, 48, 0
3, 483605, Note_on_c, 0, 60, 90
3, 483785, Note_on_c, 0, 60, 0
3, 483785, Note_on_c, 0, 58, 90
3, 483845, Note_on_c, 0, 58, 0
3, 483845, Note_on_c, 0, 57, 90
3, 484145, Note_on_c, 0, 57, 0
3, 484145, Note_on_c, 0, 53, 90
3, 484205, Note_on_c, 0, 53, 0
3, 484205, Note_on_c, 0, 55, 90
3, 484265, Note_on_c, 0, 55, 0
3, 484265, Note_on_c, 0, 60, 90
3, 484325, Note_on_c, 0, 60, 0
3, 484325, Note_on_c, 0, 53, 90
3, 484565, Note_on_c, 0, 53, 0
3, 484685, Note_on_c, 0, 58, 90
3, 484865, Note_on_c, 0, 58, 0
3, 484865, Note_on_c, 0, 50, 90
3, 484925, Note_on_c, 0, 50, 0
3, 484925, Note_on_c, 0, 52, 90
3, 484985, Note_on_c, 0, 52, 0
3, 484985, Note_on_c, 0, 55, 90
3, 485045, Note_on_c, 0, 55, 0
3, 485045, Note_on_c, 0, 49, 90
3, 485225, Note_on_c, 0, 49, 0
3, 485225, Note_on_c, 0, 49, 90
3, 485285, Note_on_c, 0, 49, 0
3, 485285, Note_on_c, 0, 50, 90
3, 485345, Note_on_c, 0, 50, 0
3, 485345, Note_on_c, 0, 52, 90
3, 485405, Note_on_c, 0, 52, 0
3, 485405, Note_on_c, 0, 53, 90
3, 485465, Note_on_c, 0, 53, 0
3, 485465, Note_on_c, 0, 57, 90
3, 485525, Note_on_c, 0, 57, 0
3, 485525, Note_on_c, 0, 62, 90
3, 485705, Note_on_c, 0, 62, 0
3, 485705, Note_on_c, 0, 60, 90
3, 485765, Note_on_c, 0, 60, 0
3, 485765, Note_on_c, 0, 58, 90
3, 486065, Note_on_c, 0, 58, 0
3, 486065, Note_on_c, 0, 55, 90
3, 486125, Note_on_c, 0, 55, 0
3, 486125, Note_on_c, 0, 57, 90
3, 486185, Note_on_c, 0, 57, 0
3, 486185, Note_on_c, 0, 62, 90
3, 486245, Note_on_c, 0, 62, 0
3, 486245, Note_on_c, 0, 55, 90
3, 486245, Note_on_c, 0, 55, 90
3, 486365, Note_on_c, 0, 55, 0
3, 486365, Note_on_c, 0, 62, 90
3, 486425, Note_on_c, 0, 62, 0
3, 486425, Note_on_c, 0, 64, 90
3, 486485, Note_on_c, 0, 64, 0
3, 486485, Note_on_c, 0, 55, 0
3, 486485, Note_on_c, 0, 65, 90
3, 486485, Note_on_c, 0, 50, 90
3, 486545, Note_on_c, 0, 65, 0
3, 486545, Note_on_c, 0, 64, 90
3, 486605, Note_on_c, 0, 64, 0
3, 486605, Note_on_c, 0, 62, 90
3, 486665, Note_on_c, 0, 62, 0
3, 486665, Note_on_c, 0, 50, 0
3, 486665, Note_on_c, 0, 61, 90
3, 486665, Note_on_c, 0, 52, 90
3, 486725, Note_on_c, 0, 52, 0
3, 486725, Note_on_c, 0, 61, 0
3, 486725, Note_on_c, 0, 62, 90
3, 486725, Note_on_c, 0, 53, 90
3, 486785, Note_on_c, 0, 62, 0
3, 486785, Note_on_c, 0, 57, 90
3, 486845, Note_on_c, 0, 57, 0
3, 486845, Note_on_c, 0, 69, 90
3, 486905, Note_on_c, 0, 53, 0
3, 486905, Note_on_c, 0, 55, 90
3, 486965, Note_on_c, 0, 55, 0
3, 486965, Note_on_c, 0, 57, 90
3, 487025, Note_on_c, 0, 69, 0
3, 487025, Note_on_c, 0, 64, 90
3, 487085, Note_on_c, 0, 64, 0
3, 487085, Note_on_c, 0, 62, 90
3, 487145, Note_on_c, 0, 62, 0
3, 487145, Note_on_c, 0, 61, 90
3, 487205, Note_on_c, 0, 61, 0
3, 487205, Note_on_c, 0, 57, 0
3, 487205, Note_on_c, 0, 67, 90
3, 487205, Note_on_c, 0, 58, 90
3, 487325, Note_on_c, 0, 67, 0
3, 487325, Note_on_c, 0, 62, 90
3, 487445, Note_on_c, 0, 62, 0
3, 487445, Note_on_c, 0, 58, 0
3, 487445, Note_on_c, 0, 57, 90
3, 487505, Note_on_c, 0, 62, 90
3, 487565, Note_on_c, 0, 62, 0
3, 487565, Note_on_c, 0, 60, 90
3, 487625, Note_on_c, 0, 60, 0
3, 487625, Note_on_c, 0, 57, 0
3, 487625, Note_on_c, 0, 58, 90
3, 487625, Note_on_c, 0, 55, 90
3, 487685, Note_on_c, 0, 55, 0
3, 487685, Note_on_c, 0, 58, 0
3, 487685, Note_on_c, 0, 57, 90
3, 487685, Note_on_c, 0, 53, 90
3, 487865, Note_on_c, 0, 57, 0
3, 487865, Note_on_c, 0, 61, 90
3, 487925, Note_on_c, 0, 61, 0
3, 487925, Note_on_c, 0, 62, 90
3, 487985, Note_on_c, 0, 53, 0
3, 487985, Note_on_c, 0, 52, 90
3, 488045, Note_on_c, 0, 52, 0
3, 488045, Note_on_c, 0, 62, 0
3, 488045, Note_on_c, 0, 57, 90
3, 488045, Note_on_c, 0, 53, 90
3, 488105, Note_on_c, 0, 53, 0
3, 488105, Note_on_c, 0, 55, 90
3, 488165, Note_on_c, 0, 55, 0
3, 488165, Note_on_c, 0, 57, 0
3, 488165, Note_on_c, 0, 69, 90
3, 488165, Note_on_c, 0, 57, 90
3, 488225, Note_on_c, 0, 69, 0
3, 488225, Note_on_c, 0, 64, 90
3, 488285, Note_on_c, 0, 64, 0
3, 488285, Note_on_c, 0, 62, 90
3, 488345, Note_on_c, 0, 62, 0
3, 488345, Note_on_c, 0, 64, 90
3, 488405, Note_on_c, 0, 64, 0
3, 488405, Note_on_c, 0, 57, 0
3, 488405, Note_on_c, 0, 65, 90
3, 488465, Note_on_c, 0, 57, 90
3, 488525, Note_on_c, 0, 57, 0
3, 488525, Note_on_c, 0, 65, 0
3, 488525, Note_on_c, 0, 61, 90
3, 488525, Note_on_c, 0, 55, 90
3, 488585, Note_on_c, 0, 55, 0
3, 488585, Note_on_c, 0, 57, 90
3, 488645, Note_on_c, 0, 57, 0
3, 488645, Note_on_c, 0, 61, 0
3, 488645, Note_on_c, 0, 62, 90
3, 488645, Note_on_c, 0, 58, 90
3, 488765, Note_on_c, 0, 58, 0
3, 488765, Note_on_c, 0, 62, 0
3, 488765, Note_on_c, 0, 57, 90
3, 488765, Note_on_c, 0, 54, 90
3, 488885, Note_on_c, 0, 54, 0
3, 488885, Note_on_c, 0, 57, 0
3, 488885, Note_on_c, 0, 60, 90
3, 488885, Note_on_c, 0, 57, 90
3, 489005, Note_on_c, 0, 57, 0
3, 489005, Note_on_c, 0, 60, 0
3, 489005, Note_on_c, 0, 54, 90
3, 489005, Note_on_c, 0, 50, 90
3, 489125, Note_on_c, 0, 50, 0
3, 489125, Note_on_c, 0, 54, 0
3, 489125, Note_on_c, 0, 55, 90
3, 489125, Note_on_c, 0, 51, 90
3, 489245, Note_on_c, 0, 51, 0
3, 489245, Note_on_c, 0, 55, 0
3, 489245, Note_on_c, 0, 60, 90
3, 489245, Note_on_c, 0, 50, 90
3, 489365, Note_on_c, 0, 50, 0
3, 489365, Note_on_c, 0, 60, 0
3, 489365, Note_on_c, 0, 53, 90
3, 489425, Note_on_c, 0, 60, 90
3, 489485, Note_on_c, 0, 60, 0
3, 489485, Note_on_c, 0, 53, 0
3, 489485, Note_on_c, 0, 58, 90
3, 489545, Note_on_c, 0, 58, 0
3, 489545, Note_on_c, 0, 60, 90
3, 489605, Note_on_c, 0, 60, 0
3, 489605, Note_on_c, 0, 62, 90
3, 489725, Note_on_c, 0, 62, 0
3, 489725, Note_on_c, 0, 57, 90
3, 489845, Note_on_c, 0, 57, 0
3, 489845, Note_on_c, 0, 60, 90
3, 489905, Note_on_c, 0, 52, 90
3, 489965, Note_on_c, 0, 52, 0
3, 489965, Note_on_c, 0, 60, 0
3, 489965, Note_on_c, 0, 61, 90
3, 489965, Note_on_c, 0, 53, 90
3, 490025, Note_on_c, 0, 53, 0
3, 490025, Note_on_c, 0, 52, 90
3, 490085, Note_on_c, 0, 52, 0
3, 490085, Note_on_c, 0, 61, 0
3, 490085, Note_on_c, 0, 62, 90
3, 490085, Note_on_c, 0, 50, 90
3, 490205, Note_on_c, 0, 50, 0
3, 490205, Note_on_c, 0, 62, 0
3, 490205, Note_on_c, 0, 60, 90
3, 490205, Note_on_c, 0, 53, 90
3, 490325, Note_on_c, 0, 60, 0
3, 490325, Note_on_c, 0, 58, 90
3, 490445, Note_on_c, 0, 58, 0
3, 490445, Note_on_c, 0, 53, 0
3, 490445, Note_on_c, 0, 55, 90
3, 490445, Note_on_c, 0, 51, 90
3, 490565, Note_on_c, 0, 55, 0
3, 490565, Note_on_c, 0, 57, 90
3, 490625, Note_on_c, 0, 57, 0
3, 490625, Note_on_c, 0, 60, 90
3, 490685, Note_on_c, 0, 60, 0
3, 490685, Note_on_c, 0, 51, 0
3, 490685, Note_on_c, 0, 58, 90
3, 490685, Note_on_c, 0, 50, 90
3, 490745, Note_on_c, 0, 58, 0
3, 490745, Note_on_c, 0, 60, 90
3, 490805, Note_on_c, 0, 60, 0
3, 490805, Note_on_c, 0, 50, 0
3, 490805, Note_on_c, 0, 62, 90
3, 490865, Note_on_c, 0, 53, 90
3, 490925, Note_on_c, 0, 53, 0
3, 490925, Note_on_c, 0, 62, 0
3, 490925, Note_on_c, 0, 57, 90
3, 490925, Note_on_c, 0, 51, 90
3, 490985, Note_on_c, 0, 51, 0
3, 490985, Note_on_c, 0, 53, 90
3, 491045, Note_on_c, 0, 53, 0
3, 491045, Note_on_c, 0, 57, 0
3, 491045, Note_on_c, 0, 58, 90
3, 491045, Note_on_c, 0, 55, 90
3, 491165, Note_on_c, 0, 55, 0
3, 491165, Note_on_c, 0, 58, 0
3, 491165, Note_on_c, 0, 60, 90
3, 491165, Note_on_c, 0, 48, 90
3, 491285, Note_on_c, 0, 48, 0
3, 491285, Note_on_c, 0, 50, 90
3, 491345, Note_on_c, 0, 60, 0
3, 491345, Note_on_c, 0, 57, 90
3, 491405, Note_on_c, 0, 57, 0
3, 491405, Note_on_c, 0, 58, 90
3, 491465, Note_on_c, 0, 58, 0
3, 491465, Note_on_c, 0, 57, 90
3, 491525, Note_on_c, 0, 57, 0
3, 491525, Note_on_c, 0, 50, 0
3, 491525, Note_on_c, 0, 55, 90
3, 491525, Note_on_c, 0, 51, 90
3, 491645, Note_on_c, 0, 51, 0
3, 491645, Note_on_c, 0, 55, 0
3, 491645, Note_on_c, 0, 60, 90
3, 491645, Note_on_c, 0, 45, 90
3, 491765, Note_on_c, 0, 45, 0
3, 491765, Note_on_c, 0, 60, 0
3, 491765, Note_on_c, 0, 46, 90
3, 491825, Note_on_c, 0, 53, 90
3, 491885, Note_on_c, 0, 53, 0
3, 491885, Note_on_c, 0, 55, 90
3, 491945, Note_on_c, 0, 55, 0
3, 491945, Note_on_c, 0, 53, 90
3, 492005, Note_on_c, 0, 53, 0
3, 492005, Note_on_c, 0, 46, 0
3, 492005, Note_on_c, 0, 51, 90
3, 492005, Note_on_c, 0, 48, 90
3, 492125, Note_on_c, 0, 48, 0
3, 492125, Note_on_c, 0, 51, 0
3, 492125, Note_on_c, 0, 57, 90
3, 492125, Note_on_c, 0, 42, 90
3, 492245, Note_on_c, 0, 42, 0
3, 492245, Note_on_c, 0, 57, 0
3, 492245, Note_on_c, 0, 43, 90
3, 492305, Note_on_c, 0, 50, 90
3, 492365, Note_on_c, 0, 50, 0
3, 492365, Note_on_c, 0, 51, 90
3, 492425, Note_on_c, 0, 51, 0
3, 492425, Note_on_c, 0, 49, 90
3, 492485, Note_on_c, 0, 49, 0
3, 492485, Note_on_c, 0, 43, 0
3, 492485, Note_on_c, 0, 50, 90
3, 492485, Note_on_c, 0, 38, 90
3, 492605, Note_on_c, 0, 50, 0
3, 492725, Note_on_c, 0, 38, 0
3, 492725, Note_on_c, 0, 62, 90
3, 492905, Note_on_c, 0, 62, 0
3, 492905, Note_on_c, 0, 60, 90
3, 492965, Note_on_c, 0, 60, 0
3, 492965, Note_on_c, 0, 59, 90
3, 493025, Note_on_c, 0, 59, 0
3, 493025, Note_on_c, 0, 57, 90
3, 493085, Note_on_c, 0, 57, 0
3, 493085, Note_on_c, 0, 55, 90
3, 493205, Note_on_c, 0, 55, 0
3, 493205, Note_on_c, 0, 60, 90
3, 493385, Note_on_c, 0, 60, 0
3, 493385, Note_on_c, 0, 58, 90
3, 493445, Note_on_c, 0, 58, 0
3, 493445, Note_on_c, 0, 57, 90
3, 493505, Note_on_c, 0, 57, 0
3, 493505, Note_on_c, 0, 55, 90
3, 493565, Note_on_c, 0, 55, 0
3, 493565, Note_on_c, 0, 53, 90
3, 493685, Note_on_c, 0, 53, 0
3, 493685, Note_on_c, 0, 58, 90
3, 493865, Note_on_c, 0, 58, 0
3, 493865, Note_on_c, 0, 57, 90
3, 493925, Note_on_c, 0, 57, 0
3, 493925, Note_on_c, 0, 55, 90
3, 494405, Note_on_c, 0, 55, 0
3, 494405, Note_on_c, 0, 53, 90
3, 494585, Note_on_c, 0, 53, 0
3, 494585, Note_on_c, 0, 55, 90
3, 494645, Note_on_c, 0, 55, 0
3, 494645, Note_on_c, 0, 57, 90
3, 494705, Note_on_c, 0, 57, 0
3, 494705, Note_on_c, 0, 58, 90
3, 494765, Note_on_c, 0, 58, 0
3, 494765, Note_on_c, 0, 60, 90
3, 494825, Note_on_c, 0, 60, 0
3, 494825, Note_on_c, 0, 57, 90
3, 494885, Note_on_c, 0, 57, 0
3, 494885, Note_on_c, 0, 58, 90
3, 495005, Note_on_c, 0, 58, 0
3, 495005, Note_on_c, 0, 53, 90
3, 495005, Note_on_c, 0, 50, 90
3, 495125, Note_on_c, 0, 50, 0
3, 495125, Note_on_c, 0, 53, 0
3, 495125, Note_on_c, 0, 55, 90
3, 495125, Note_on_c, 0, 51, 90
3, 495245, Note_on_c, 0, 51, 0
3, 495245, Note_on_c, 0, 55, 0
3, 495245, Note_on_c, 0, 50, 90
3, 495245, Note_on_c, 0, 46, 90
3, 495365, Note_on_c, 0, 46, 0
3, 495365, Note_on_c, 0, 50, 0
3, 495485, Note_on_c, 0, 58, 90
3, 495485, Note_on_c, 0, 55, 90
3, 495605, Note_on_c, 0, 55, 0
3, 495605, Note_on_c, 0, 58, 0
3, 495605, Note_on_c, 0, 57, 90
3, 495605, Note_on_c, 0, 53, 90
3, 495725, Note_on_c, 0, 53, 0
3, 495725, Note_on_c, 0, 57, 0
3, 495725, Note_on_c, 0, 62, 90
3, 495725, Note_on_c, 0, 58, 90
3, 495845, Note_on_c, 0, 58, 0
3, 495845, Note_on_c, 0, 62, 0
3, 495845, Note_on_c, 0, 55, 90
3, 495845, Note_on_c, 0, 51, 90
3, 495905, Note_on_c, 0, 51, 0
3, 495905, Note_on_c, 0, 55, 0
3, 495905, Note_on_c, 0, 57, 90
3, 495905, Note_on_c, 0, 53, 90
3, 495965, Note_on_c, 0, 53, 0
3, 495965, Note_on_c, 0, 57, 0
3, 495965, Note_on_c, 0, 58, 90
3, 495965, Note_on_c, 0, 55, 90
3, 496025, Note_on_c, 0, 55, 0
3, 496025, Note_on_c, 0, 58, 0
3, 496025, Note_on_c, 0, 60, 90
3, 496025, Note_on_c, 0, 57, 90
3, 496085, Note_on_c, 0, 57, 0
3, 496085, Note_on_c, 0, 60, 0
3, 496085, Note_on_c, 0, 62, 90
3, 496085, Note_on_c, 0, 58, 90
3, 496145, Note_on_c, 0, 58, 0
3, 496145, Note_on_c, 0, 62, 0
3, 496145, Note_on_c, 0, 63, 90
3, 496145, Note_on_c, 0, 60, 90
3, 496205, Note_on_c, 0, 60, 0
3, 496205, Note_on_c, 0, 63, 0
3, 496205, Note_on_c, 0, 65, 90
3, 496205, Note_on_c, 0, 62, 90
3, 496385, Note_on_c, 0, 62, 0
3, 496385, Note_on_c, 0, 65, 0
3, 496385, Note_on_c, 0, 63, 90
3, 496385, Note_on_c, 0, 60, 90
3, 496445, Note_on_c, 0, 60, 0
3, 496445, Note_on_c, 0, 63, 0
3, 496445, Note_on_c, 0, 62, 90
3, 496445, Note_on_c, 0, 58, 90
3, 496505, Note_on_c, 0, 58, 0
3, 496505, Note_on_c, 0, 62, 0
3, 496505, Note_on_c, 0, 60, 90
3, 496505, Note_on_c, 0, 57, 90
3, 496565, Note_on_c, 0, 57, 0
3, 496565, Note_on_c, 0, 60, 0
3, 496565, Note_on_c, 0, 58, 90
3, 496565, Note_on_c, 0, 55, 90
3, 496805, Note_on_c, 0, 55, 0
3, 496805, Note_on_c, 0, 58, 0
3, 496805, Note_on_c, 0, 57, 90
3, 496805, Note_on_c, 0, 53, 90
3, 496925, Note_on_c, 0, 57, 0
3, 496925, Note_on_c, 0, 65, 90
3, 497045, Note_on_c, 0, 65, 0
3, 497045, Note_on_c, 0, 53, 0
3, 497045, Note_on_c, 0, 63, 90
3, 497165, Note_on_c, 0, 63, 0
3, 497165, Note_on_c, 0, 62, 90
3, 497285, Note_on_c, 0, 62, 0
3, 497285, Note_on_c, 0, 60, 90
3, 497525, Note_on_c, 0, 60, 0
3, 497525, Note_on_c, 0, 65, 90
3, 497765, Note_on_c, 0, 65, 0
3, 497765, Note_on_c, 0, 58, 90
3, 497825, Note_on_c, 0, 58, 0
3, 497825, Note_on_c, 0, 60, 90
3, 497885, Note_on_c, 0, 60, 0
3, 497885, Note_on_c, 0, 62, 90
3, 497945, Note_on_c, 0, 62, 0
3, 497945, Note_on_c, 0, 58, 90
3, 498005, Note_on_c, 0, 58, 0
3, 498005, Note_on_c, 0, 63, 90
3, 498065, Note_on_c, 0, 63, 0
3, 498065, Note_on_c, 0, 62, 90
3, 498125, Note_on_c, 0, 62, 0
3, 498125, Note_on_c, 0, 60, 90
3, 498185, Note_on_c, 0, 60, 0
3, 498185, Note_on_c, 0, 58, 90
3, 498245, Note_on_c, 0, 58, 0
3, 498245, Note_on_c, 0, 57, 90
3, 498305, Note_on_c, 0, 57, 0
3, 498305, Note_on_c, 0, 58, 90
3, 498365, Note_on_c, 0, 58, 0
3, 498365, Note_on_c, 0, 60, 90
3, 498425, Note_on_c, 0, 60, 0
3, 498425, Note_on_c, 0, 57, 90
3, 498485, Note_on_c, 0, 57, 0
3, 498485, Note_on_c, 0, 62, 90
3, 498605, Note_on_c, 0, 62, 0
3, 498605, Note_on_c, 0, 50, 90
3, 498725, Note_on_c, 0, 50, 0
3, 498725, Note_on_c, 0, 55, 90
3, 498845, Note_on_c, 0, 55, 0
3, 498845, Note_on_c, 0, 67, 90
3, 499025, Note_on_c, 0, 67, 0
3, 499025, Note_on_c, 0, 65, 90
3, 499085, Note_on_c, 0, 65, 0
3, 499085, Note_on_c, 0, 64, 90
3, 499145, Note_on_c, 0, 64, 0
3, 499145, Note_on_c, 0, 62, 90
3, 499205, Note_on_c, 0, 62, 0
3, 499205, Note_on_c, 0, 61, 90
3, 499265, Note_on_c, 0, 61, 0
3, 499265, Note_on_c, 0, 62, 90
3, 499325, Note_on_c, 0, 62, 0
3, 499325, Note_on_c, 0, 64, 90
3, 499385, Note_on_c, 0, 64, 0
3, 499385, Note_on_c, 0, 61, 90
3, 499445, Note_on_c, 0, 61, 0
3, 499445, Note_on_c, 0, 62, 90
3, 499505, Note_on_c, 0, 62, 0
3, 499505, Note_on_c, 0, 60, 90
3, 499565, Note_on_c, 0, 60, 0
3, 499565, Note_on_c, 0, 58, 90
3, 499625, Note_on_c, 0, 58, 0
3, 499625, Note_on_c, 0, 57, 90
3, 499685, Note_on_c, 0, 57, 0
3, 499685, Note_on_c, 0, 55, 90
3, 499745, Note_on_c, 0, 55, 0
3, 499745, Note_on_c, 0, 50, 90
3, 499805, Note_on_c, 0, 50, 0
3, 499805, Note_on_c, 0, 52, 90
3, 499865, Note_on_c, 0, 52, 0
3, 499865, Note_on_c, 0, 53, 90
3, 499925, Note_on_c, 0, 53, 0
3, 499925, Note_on_c, 0, 55, 90
3, 499985, Note_on_c, 0, 55, 0
3, 499985, Note_on_c, 0, 57, 90
3, 500045, Note_on_c, 0, 57, 0
3, 500045, Note_on_c, 0, 58, 90
3, 500105, Note_on_c, 0, 58, 0
3, 500105, Note_on_c, 0, 55, 90
3, 500165, Note_on_c, 0, 55, 0
3, 500165, Note_on_c, 0, 57, 90
3, 500645, Note_on_c, 0, 57, 0
3, 500645, Note_on_c, 0, 57, 90
3, 500765, Note_on_c, 0, 57, 90
3, 500885, Note_on_c, 0, 57, 0
3, 500885, Note_on_c, 0, 57, 0
3, 500885, Note_on_c, 0, 58, 90
3, 500885, Note_on_c, 0, 50, 90
3, 501005, Note_on_c, 0, 58, 0
3, 501005, Note_on_c, 0, 53, 90
3, 501065, Note_on_c, 0, 50, 0
3, 501065, Note_on_c, 0, 52, 90
3, 501125, Note_on_c, 0, 52, 0
3, 501125, Note_on_c, 0, 53, 0
3, 501125, Note_on_c, 0, 53, 90
3, 501245, Note_on_c, 0, 62, 90
3, 501305, Note_on_c, 0, 53, 0
3, 501305, Note_on_c, 0, 55, 90
3, 501365, Note_on_c, 0, 55, 0
3, 501365, Note_on_c, 0, 62, 0
3, 501365, Note_on_c, 0, 60, 90
3, 501365, Note_on_c, 0, 57, 90
3, 501485, Note_on_c, 0, 60, 0
3, 501485, Note_on_c, 0, 65, 90
3, 501605, Note_on_c, 0, 65, 0
3, 501605, Note_on_c, 0, 57, 0
3, 501605, Note_on_c, 0, 58, 90
3, 501605, Note_on_c, 0, 58, 90
3, 501665, Note_on_c, 0, 58, 0
3, 501665, Note_on_c, 0, 60, 90
3, 501725, Note_on_c, 0, 60, 0
3, 501725, Note_on_c, 0, 62, 90
3, 501785, Note_on_c, 0, 62, 0
3, 501785, Note_on_c, 0, 64, 90
3, 501845, Note_on_c, 0, 64, 0
3, 501845, Note_on_c, 0, 58, 0
3, 501845, Note_on_c, 0, 65, 90
3, 501845, Note_on_c, 0, 57, 90
3, 501905, Note_on_c, 0, 65, 0
3, 501905, Note_on_c, 0, 67, 90
3, 501965, Note_on_c, 0, 67, 0
3, 501965, Note_on_c, 0, 69, 90
3, 502025, Note_on_c, 0, 57, 0
3, 502025, Note_on_c, 0, 55, 90
3, 502085, Note_on_c, 0, 55, 0
3, 502085, Note_on_c, 0, 53, 90
3, 502145, Note_on_c, 0, 69, 0
3, 502145, Note_on_c, 0, 67, 90
3, 502205, Note_on_c, 0, 67, 0
3, 502205, Note_on_c, 0, 65, 90
3, 502265, Note_on_c, 0, 65, 0
3, 502265, Note_on_c, 0, 64, 90
3, 502325, Note_on_c, 0, 64, 0
3, 502325, Note_on_c, 0, 62, 90
3, 502385, Note_on_c, 0, 53, 0
3, 502385, Note_on_c, 0, 52, 90
3, 502445, Note_on_c, 0, 52, 0
3, 502445, Note_on_c, 0, 53, 90
3, 502505, Note_on_c, 0, 53, 0
3, 502505, Note_on_c, 0, 62, 0
3, 502505, Note_on_c, 0, 64, 90
3, 502505, Note_on_c, 0, 55, 90
3, 502565, Note_on_c, 0, 55, 0
3, 502565, Note_on_c, 0, 64, 0
3, 502565, Note_on_c, 0, 65, 90
3, 502565, Note_on_c, 0, 57, 90
3, 502685, Note_on_c, 0, 65, 0
3, 502685, Note_on_c, 0, 64, 90
3, 502745, Note_on_c, 0, 64, 0
3, 502745, Note_on_c, 0, 62, 90
3, 502805, Note_on_c, 0, 62, 0
3, 502805, Note_on_c, 0, 64, 90
3, 502865, Note_on_c, 0, 64, 0
3, 502865, Note_on_c, 0, 65, 90
3, 502925, Note_on_c, 0, 65, 0
3, 502925, Note_on_c, 0, 67, 90
3, 503045, Note_on_c, 0, 57, 0
3, 503045, Note_on_c, 0, 50, 90
3, 503165, Note_on_c, 0, 67, 0
3, 503165, Note_on_c, 0, 66, 90
3, 503285, Note_on_c, 0, 66, 0
3, 503285, Note_on_c, 0, 50, 0
3, 503520, Control_c, 0, 121, 0
3, 503520, Control_c, 0, 91, 40
3, 503520, Control_c, 0, 0, 0
3, 503520, Control_c, 0, 121, 0
3, 503520, Control_c, 0, 91, 40
3, 503520, Control_c, 0, 0, 0
3, 507480, Note_on_c, 0, 50, 96
3, 507600, Note_on_c, 0, 50, 0
3, 507600, Note_on_c, 0, 57, 96
3, 507720, Note_on_c, 0, 57, 0
3, 507720, Note_on_c, 0, 55, 96
3, 507840, Note_on_c, 0, 55, 0
3, 507960, Note_on_c, 0, 53, 96
3, 508080, Note_on_c, 0, 53, 0
3, 508080, Note_on_c, 0, 52, 96
3, 508200, Note_on_c, 0, 52, 0
3, 508200, Note_on_c, 0, 50, 96
3, 508320, Note_on_c, 0, 50, 0
3, 508440, Note_on_c, 0, 49, 96
3, 508560, Note_on_c, 0, 49, 0
3, 508560, Note_on_c, 0, 50, 96
3, 508680, Note_on_c, 0, 50, 0
3, 508680, Note_on_c, 0, 52, 96
3, 508800, Note_on_c, 0, 52, 0
3, 508920, Note_on_c, 0, 53, 96
3, 508980, Note_on_c, 0, 53, 0
3, 508980, Note_on_c, 0, 55, 96
3, 509040, Note_on_c, 0, 55, 0
3, 509040, Note_on_c, 0, 53, 96
3, 509160, Note_on_c, 0, 53, 0
3, 509160, Note_on_c, 0, 52, 96
3, 509280, Note_on_c, 0, 52, 0
3, 509280, Note_on_c, 0, 50, 96
3, 509400, Note_on_c, 0, 57, 96
3, 509520, Note_on_c, 0, 57, 0
3, 509520, Note_on_c, 0, 50, 0
3, 509520, Note_on_c, 0, 64, 96
3, 509640, Note_on_c, 0, 64, 0
3, 509640, Note_on_c, 0, 62, 96
3, 509640, Note_on_c, 0, 52, 96
3, 509760, Note_on_c, 0, 52, 0
3, 509760, Note_on_c, 0, 62, 0
3, 509760, Note_on_c, 0, 53, 96
3, 509880, Note_on_c, 0, 53, 0
3, 509880, Note_on_c, 0, 60, 96
3, 509880, Note_on_c, 0, 52, 96
3, 509940, Note_on_c, 0, 52, 0
3, 509940, Note_on_c, 0, 50, 96
3, 510000, Note_on_c, 0, 50, 0
3, 510000, Note_on_c, 0, 60, 0
3, 510000, Note_on_c, 0, 59, 96
3, 510000, Note_on_c, 0, 52, 96
3, 510120, Note_on_c, 0, 52, 0
3, 510120, Note_on_c, 0, 59, 0
3, 510120, Note_on_c, 0, 57, 96
3, 510120, Note_on_c, 0, 53, 96
3, 510240, Note_on_c, 0, 53, 0
3, 510240, Note_on_c, 0, 57, 0
3, 510240, Note_on_c, 0, 47, 96
3, 510360, Note_on_c, 0, 47, 0
3, 510360, Note_on_c, 0, 56, 96
3, 510360, Note_on_c, 0, 48, 96
3, 510420, Note_on_c, 0, 48, 0
3, 510420, Note_on_c, 0, 50, 96
3, 510480, Note_on_c, 0, 50, 0
3, 510480, Note_on_c, 0, 56, 0
3, 510480, Note_on_c, 0, 57, 96
3, 510480, Note_on_c, 0, 48, 96
3, 510600, Note_on_c, 0, 48, 0
3, 510600, Note_on_c, 0, 57, 0
3, 510600, Note_on_c, 0, 59, 96
3, 510600, Note_on_c, 0, 47, 96
3, 510720, Note_on_c, 0, 47, 0
3, 510720, Note_on_c, 0, 59, 0
3, 510720, Note_on_c, 0, 45, 96
3, 510840, Note_on_c, 0, 45, 0
3, 510840, Note_on_c, 0, 60, 96
3, 510840, Note_on_c, 0, 57, 96
3, 510900, Note_on_c, 0, 60, 0
3, 510900, Note_on_c, 0, 62, 96
3, 510960, Note_on_c, 0, 62, 0
3, 510960, Note_on_c, 0, 57, 0
3, 510960, Note_on_c, 0, 60, 96
3, 510960, Note_on_c, 0, 50, 96
3, 511080, Note_on_c, 0, 50, 0
3, 511080, Note_on_c, 0, 60, 0
3, 511080, Note_on_c, 0, 59, 96
3, 511080, Note_on_c, 0, 55, 96
3, 511200, Note_on_c, 0, 59, 0
3, 511200, Note_on_c, 0, 57, 96
3, 511320, Note_on_c, 0, 55, 0
3, 511320, Note_on_c, 0, 53, 96
3, 511380, Note_on_c, 0, 53, 0
3, 511380, Note_on_c, 0, 55, 96
3, 511440, Note_on_c, 0, 55, 0
3, 511440, Note_on_c, 0, 57, 0
3, 511440, Note_on_c, 0, 59, 96
3, 511440, Note_on_c, 0, 53, 96
3, 511560, Note_on_c, 0, 53, 0
3, 511560, Note_on_c, 0, 59, 0
3, 511560, Note_on_c, 0, 61, 96
3, 511560, Note_on_c, 0, 52, 96
3, 511680, Note_on_c, 0, 52, 0
3, 511680, Note_on_c, 0, 61, 0
3, 511680, Note_on_c, 0, 62, 96
3, 511680, Note_on_c, 0, 50, 96
3, 511800, Note_on_c, 0, 50, 0
3, 511920, Note_on_c, 0, 62, 0
3, 512040, Note_on_c, 0, 62, 96
3, 512100, Note_on_c, 0, 62, 0
3, 512100, Note_on_c, 0, 61, 96
3, 512160, Note_on_c, 0, 61, 0
3, 512160, Note_on_c, 0, 62, 96
3, 512280, Note_on_c, 0, 62, 0
3, 512280, Note_on_c, 0, 64, 96
3, 512280, Note_on_c, 0, 50, 96
3, 512340, Note_on_c, 0, 50, 0
3, 512340, Note_on_c, 0, 52, 96
3, 512400, Note_on_c, 0, 52, 0
3, 512400, Note_on_c, 0, 64, 0
3, 512400, Note_on_c, 0, 65, 96
3, 512400, Note_on_c, 0, 50, 96
3, 512520, Note_on_c, 0, 50, 0
3, 512520, Note_on_c, 0, 65, 0
3, 512520, Note_on_c, 0, 66, 96
3, 512520, Note_on_c, 0, 48, 96
3, 512640, Note_on_c, 0, 48, 0
3, 512640, Note_on_c, 0, 66, 0
3, 512640, Note_on_c, 0, 67, 96
3, 512640, Note_on_c, 0, 46, 96
3, 512760, Note_on_c, 0, 46, 0
3, 512760, Note_on_c, 0, 58, 96
3, 512820, Note_on_c, 0, 67, 0
3, 512820, Note_on_c, 0, 66, 96
3, 512880, Note_on_c, 0, 66, 0
3, 512880, Note_on_c, 0, 58, 0
3, 512880, Note_on_c, 0, 67, 96
3, 512880, Note_on_c, 0, 52, 96
3, 513000, Note_on_c, 0, 52, 0
3, 513000, Note_on_c, 0, 67, 0
3, 513000, Note_on_c, 0, 69, 96
3, 513000, Note_on_c, 0, 54, 96
3, 513120, Note_on_c, 0, 54, 0
3, 513120, Note_on_c, 0, 69, 0
3, 513120, Note_on_c, 0, 62, 96
3, 513120, Note_on_c, 0, 55, 96
3, 513240, Note_on_c, 0, 62, 0
3, 513240, Note_on_c, 0, 67, 96
3, 513300, Note_on_c, 0, 67, 0
3, 513300, Note_on_c, 0, 69, 96
3, 513360, Note_on_c, 0, 69, 0
3, 513360, Note_on_c, 0, 67, 96
3, 513480, Note_on_c, 0, 67, 0
3, 513480, Note_on_c, 0, 55, 0
3, 513480, Note_on_c, 0, 65, 96
3, 513480, Note_on_c, 0, 57, 96
3, 513600, Note_on_c, 0, 57, 0
3, 513600, Note_on_c, 0, 65, 0
3, 513600, Note_on_c, 0, 64, 96
3, 513600, Note_on_c, 0, 58, 96
3, 513720, Note_on_c, 0, 58, 0
3, 513720, Note_on_c, 0, 57, 96
3, 513780, Note_on_c, 0, 57, 0
3, 513780, Note_on_c, 0, 55, 96
3, 513840, Note_on_c, 0, 55, 0
3, 513840, Note_on_c, 0, 64, 0
3, 513840, Note_on_c, 0, 62, 96
3, 513840, Note_on_c, 0, 53, 96
3, 513900, Note_on_c, 0, 53, 0
3, 513900, Note_on_c, 0, 52, 96
3, 513960, Note_on_c, 0, 52, 0
3, 513960, Note_on_c, 0, 62, 0
3, 513960, Note_on_c, 0, 52, 96
3, 513960, Note_on_c, 0, 50, 96
3, 514020, Note_on_c, 0, 50, 0
3, 514020, Note_on_c, 0, 49, 96
3, 514080, Note_on_c, 0, 49, 0
3, 514080, Note_on_c, 0, 52, 0
3, 514080, Note_on_c, 0, 53, 96
3, 514080, Note_on_c, 0, 50, 96
3, 514200, Note_on_c, 0, 50, 0
3, 514200, Note_on_c, 0, 53, 0
3, 514200, Note_on_c, 0, 62, 96
3, 514320, Note_on_c, 0, 62, 0
3, 514320, Note_on_c, 0, 67, 96
3, 514440, Note_on_c, 0, 67, 0
3, 514440, Note_on_c, 0, 65, 96
3, 514440, Note_on_c, 0, 50, 96
3, 514560, Note_on_c, 0, 50, 0
3, 514560, Note_on_c, 0, 65, 0
3, 514560, Note_on_c, 0, 64, 96
3, 514560, Note_on_c, 0, 57, 96
3, 514620, Note_on_c, 0, 64, 0
3, 514620, Note_on_c, 0, 65, 96
3, 514680, Note_on_c, 0, 57, 0
3, 514680, Note_on_c, 0, 55, 96
3, 514740, Note_on_c, 0, 65, 0
3, 514740, Note_on_c, 0, 64, 96
3, 514800, Note_on_c, 0, 64, 0
3, 514800, Note_on_c, 0, 55, 0
3, 514800, Note_on_c, 0, 57, 96
3, 514800, Note_on_c, 0, 53, 96
3, 514860, Note_on_c, 0, 57, 0
3, 514860, Note_on_c, 0, 62, 96
3, 514920, Note_on_c, 0, 53, 0
3, 514920, Note_on_c, 0, 58, 96
3, 514980, Note_on_c, 0, 62, 0
3, 514980, Note_on_c, 0, 61, 96
3, 515040, Note_on_c, 0, 61, 0
3, 515040, Note_on_c, 0, 58, 0
3, 515040, Note_on_c, 0, 62, 96
3, 515040, Note_on_c, 0, 57, 96
3, 515100, Note_on_c, 0, 57, 0
3, 515100, Note_on_c, 0, 55, 96
3, 515160, Note_on_c, 0, 55, 0
3, 515160, Note_on_c, 0, 62, 0
3, 515160, Note_on_c, 0, 69, 96
3, 515160, Note_on_c, 0, 53, 96
3, 515280, Note_on_c, 0, 53, 0
3, 515280, Note_on_c, 0, 69, 0
3, 515280, Note_on_c, 0, 70, 96
3, 515280, Note_on_c, 0, 55, 96
3, 515400, Note_on_c, 0, 55, 0
3, 515400, Note_on_c, 0, 70, 0
3, 515400, Note_on_c, 0, 64, 96
3, 515400, Note_on_c, 0, 57, 96
3, 515520, Note_on_c, 0, 64, 0
3, 515520, Note_on_c, 0, 65, 96
3, 515580, Note_on_c, 0, 57, 0
3, 515580, Note_on_c, 0, 56, 96
3, 515640, Note_on_c, 0, 56, 0
3, 515640, Note_on_c, 0, 57, 96
3, 515700, Note_on_c, 0, 57, 0
3, 515700, Note_on_c, 0, 56, 96
3, 515760, Note_on_c, 0, 56, 0
3, 515760, Note_on_c, 0, 65, 0
3, 515760, Note_on_c, 0, 64, 96
3, 515760, Note_on_c, 0, 57, 96
3, 515820, Note_on_c, 0, 64, 0
3, 515820, Note_on_c, 0, 65, 96
3, 515880, Note_on_c, 0, 65, 0
3, 515880, Note_on_c, 0, 57, 0
3, 515880, Note_on_c, 0, 67, 96
3, 515880, Note_on_c, 0, 45, 96
3, 516000, Note_on_c, 0, 45, 0
3, 516000, Note_on_c, 0, 50, 96
3, 516120, Note_on_c, 0, 67, 0
3, 516120, Note_on_c, 0, 65, 96
3, 516240, Note_on_c, 0, 65, 0
3, 516240, Note_on_c, 0, 50, 0
3, 517560, Note_on_c, 0, 57, 96
3, 517800, Note_on_c, 0, 57, 0
3, 517800, Note_on_c, 0, 56, 96
3, 517920, Note_on_c, 0, 56, 0
3, 517920, Note_on_c, 0, 55, 96
3, 518040, Note_on_c, 0, 55, 0
3, 518040, Note_on_c, 0, 54, 96
3, 518160, Note_on_c, 0, 54, 0
3, 518160, Note_on_c, 0, 53, 96
3, 518280, Note_on_c, 0, 53, 0
3, 518280, Note_on_c, 0, 52, 96
3, 518400, Note_on_c, 0, 52, 0
3, 518400, Note_on_c, 0, 50, 96
3, 518640, Note_on_c, 0, 50, 0
3, 519600, Note_on_c, 0, 52, 96
3, 519840, Note_on_c, 0, 52, 0
3, 519840, Note_on_c, 0, 53, 96
3, 519960, Note_on_c, 0, 53, 0
3, 519960, Note_on_c, 0, 48, 96
3, 519960, Note_on_c, 0, 45, 96
3, 520080, Note_on_c, 0, 45, 0
3, 520080, Note_on_c, 0, 48, 0
3, 520080, Note_on_c, 0, 55, 96
3, 520080, Note_on_c, 0, 46, 96
3, 520200, Note_on_c, 0, 46, 0
3, 520200, Note_on_c, 0, 55, 0
3, 520200, Note_on_c, 0, 56, 96
3, 520200, Note_on_c, 0, 47, 96
3, 520320, Note_on_c, 0, 47, 0
3, 520320, Note_on_c, 0, 56, 0
3, 520320, Note_on_c, 0, 57, 96
3, 520320, Note_on_c, 0, 48, 96
3, 520440, Note_on_c, 0, 48, 0
3, 520440, Note_on_c, 0, 57, 0
3, 520440, Note_on_c, 0, 52, 96
3, 520440, Note_on_c, 0, 49, 96
3, 520560, Note_on_c, 0, 49, 0
3, 520560, Note_on_c, 0, 52, 0
3, 520560, Note_on_c, 0, 59, 96
3, 520560, Note_on_c, 0, 50, 96
3, 520680, Note_on_c, 0, 50, 0
3, 520680, Note_on_c, 0, 51, 96
3, 520800, Note_on_c, 0, 51, 0
3, 520800, Note_on_c, 0, 59, 0
3, 520800, Note_on_c, 0, 60, 96
3, 520800, Note_on_c, 0, 52, 96
3, 520920, Note_on_c, 0, 60, 0
3, 520920, Note_on_c, 0, 59, 96
3, 521040, Note_on_c, 0, 59, 0
3, 521040, Note_on_c, 0, 52, 0
3, 521040, Note_on_c, 0, 57, 96
3, 521040, Note_on_c, 0, 53, 96
3, 521100, Note_on_c, 0, 57, 0
3, 521100, Note_on_c, 0, 59, 96
3, 521160, Note_on_c, 0, 59, 0
3, 521160, Note_on_c, 0, 57, 96
3, 521280, Note_on_c, 0, 57, 0
3, 521280, Note_on_c, 0, 53, 0
3, 521280, Note_on_c, 0, 64, 96
3, 521280, Note_on_c, 0, 52, 96
3, 521400, Note_on_c, 0, 52, 0
3, 521400, Note_on_c, 0, 64, 0
3, 521400, Note_on_c, 0, 64, 96
3, 521460, Note_on_c, 0, 52, 96
3, 521520, Note_on_c, 0, 52, 0
3, 521520, Note_on_c, 0, 64, 0
3, 521520, Note_on_c, 0, 63, 96
3, 521520, Note_on_c, 0, 54, 96
3, 521580, Note_on_c, 0, 54, 0
3, 521580, Note_on_c, 0, 52, 96
3, 521640, Note_on_c, 0, 52, 0
3, 521640, Note_on_c, 0, 63, 0
3, 521640, Note_on_c, 0, 62, 96
3, 521640, Note_on_c, 0, 54, 96
3, 521700, Note_on_c, 0, 54, 0
3, 521700, Note_on_c, 0, 56, 96
3, 521760, Note_on_c, 0, 56, 0
3, 521760, Note_on_c, 0, 62, 0
3, 521760, Note_on_c, 0, 61, 96
3, 521760, Note_on_c, 0, 57, 96
3, 521880, Note_on_c, 0, 57, 0
3, 521880, Note_on_c, 0, 61, 0
3, 521880, Note_on_c, 0, 65, 96
3, 522120, Note_on_c, 0, 65, 0
3, 522120, Note_on_c, 0, 64, 96
3, 522240, Note_on_c, 0, 64, 0
3, 522240, Note_on_c, 0, 62, 96
3, 522360, Note_on_c, 0, 62, 0
3, 522360, Note_on_c, 0, 50, 96
3, 522480, Note_on_c, 0, 50, 0
3, 522480, Note_on_c, 0, 49, 96
3, 522600, Note_on_c, 0, 49, 0
3, 522600, Note_on_c, 0, 48, 96
3, 522720, Note_on_c, 0, 48, 0
3, 522720, Note_on_c, 0, 47, 96
3, 522840, Note_on_c, 0, 47, 0
3, 522840, Note_on_c, 0, 53, 96
3, 522900, Note_on_c, 0, 55, 96
3, 522960, Note_on_c, 0, 55, 0
3, 522960, Note_on_c, 0, 57, 96
3, 523020, Note_on_c, 0, 57, 0
3, 523020, Note_on_c, 0, 55, 96
3, 523080, Note_on_c, 0, 55, 0
3, 523080, Note_on_c, 0, 53, 0
3, 523080, Note_on_c, 0, 57, 96
3, 523080, Note_on_c, 0, 50, 96
3, 523140, Note_on_c, 0, 57, 0
3, 523140, Note_on_c, 0, 59, 96
3, 523200, Note_on_c, 0, 59, 0
3, 523200, Note_on_c, 0, 50, 0
3, 523200, Note_on_c, 0, 60, 96
3, 523200, Note_on_c, 0, 48, 96
3, 523320, Note_on_c, 0, 48, 0
3, 523320, Note_on_c, 0, 60, 0
3, 523380, Note_on_c, 0, 48, 96
3, 523440, Note_on_c, 0, 48, 0
3, 523440, Note_on_c, 0, 50, 96
3, 523500, Note_on_c, 0, 50, 0
3, 523500, Note_on_c, 0, 48, 96
3, 523560, Note_on_c, 0, 48, 0
3, 523560, Note_on_c, 0, 50, 96
3, 523620, Note_on_c, 0, 50, 0
3, 523620, Note_on_c, 0, 52, 96
3, 523680, Note_on_c, 0, 52, 0
3, 523680, Note_on_c, 0, 53, 96
3, 523740, Note_on_c, 0, 53, 0
3, 523740, Note_on_c, 0, 52, 96
3, 523800, Note_on_c, 0, 52, 0
3, 523800, Note_on_c, 0, 53, 96
3, 523860, Note_on_c, 0, 53, 0
3, 523860, Note_on_c, 0, 55, 96
3, 523920, Note_on_c, 0, 55, 0
3, 523920, Note_on_c, 0, 57, 96
3, 524040, Note_on_c, 0, 57, 0
3, 524040, Note_on_c, 0, 45, 96
3, 524160, Note_on_c, 0, 45, 0
3, 524160, Note_on_c, 0, 46, 96
3, 524280, Note_on_c, 0, 46, 0
3, 524280, Note_on_c, 0, 50, 96
3, 524280, Note_on_c, 0, 41, 96
3, 524400, Note_on_c, 0, 41, 0
3, 524400, Note_on_c, 0, 50, 0
3, 524400, Note_on_c, 0, 51, 96
3, 524400, Note_on_c, 0, 48, 96
3, 524520, Note_on_c, 0, 48, 0
3, 524520, Note_on_c, 0, 51, 0
3, 524520, Note_on_c, 0, 52, 96
3, 524520, Note_on_c, 0, 49, 96
3, 524640, Note_on_c, 0, 49, 0
3, 524640, Note_on_c, 0, 52, 0
3, 524640, Note_on_c, 0, 53, 96
3, 524640, Note_on_c, 0, 50, 96
3, 524760, Note_on_c, 0, 50, 0
3, 524760, Note_on_c, 0, 53, 0
3, 524760, Note_on_c, 0, 54, 96
3, 524760, Note_on_c, 0, 45, 96
3, 524880, Note_on_c, 0, 45, 0
3, 524880, Note_on_c, 0, 54, 0
3, 524880, Note_on_c, 0, 55, 96
3, 524880, Note_on_c, 0, 52, 96
3, 525000, Note_on_c, 0, 55, 0
3, 525000, Note_on_c, 0, 56, 96
3, 525120, Note_on_c, 0, 56, 0
3, 525120, Note_on_c, 0, 52, 0
3, 525120, Note_on_c, 0, 57, 96
3, 525120, Note_on_c, 0, 53, 96
3, 525240, Note_on_c, 0, 53, 0
3, 525240, Note_on_c, 0, 57, 0
3, 525240, Note_on_c, 0, 52, 96
3, 525300, Note_on_c, 0, 57, 96
3, 525360, Note_on_c, 0, 57, 0
3, 525360, Note_on_c, 0, 52, 0
3, 525360, Note_on_c, 0, 58, 96
3, 525360, Note_on_c, 0, 50, 96
3, 525420, Note_on_c, 0, 50, 0
3, 525420, Note_on_c, 0, 52, 96
3, 525480, Note_on_c, 0, 52, 0
3, 525480, Note_on_c, 0, 58, 0
3, 525480, Note_on_c, 0, 59, 96
3, 525480, Note_on_c, 0, 50, 96
3, 525600, Note_on_c, 0, 50, 0
3, 525600, Note_on_c, 0, 59, 0
3, 525600, Note_on_c, 0, 60, 96
3, 525600, Note_on_c, 0, 57, 96
3, 525720, Note_on_c, 0, 60, 0
3, 525720, Note_on_c, 0, 61, 96
3, 525840, Note_on_c, 0, 61, 0
3, 525840, Note_on_c, 0, 57, 0
3, 525840, Note_on_c, 0, 62, 96
3, 525900, Note_on_c, 0, 62, 0
3, 525900, Note_on_c, 0, 63, 96
3, 525960, Note_on_c, 0, 63, 0
3, 525960, Note_on_c, 0, 62, 96
3, 526020, Note_on_c, 0, 62, 0
3, 526020, Note_on_c, 0, 60, 96
3, 526020, Note_on_c, 0, 57, 96
3, 526080, Note_on_c, 0, 57, 0
3, 526080, Note_on_c, 0, 60, 0
3, 526080, Note_on_c, 0, 62, 96
3, 526080, Note_on_c, 0, 55, 96
3, 526140, Note_on_c, 0, 55, 0
3, 526140, Note_on_c, 0, 57, 96
3, 526200, Note_on_c, 0, 57, 0
3, 526200, Note_on_c, 0, 55, 96
3, 526260, Note_on_c, 0, 55, 0
3, 526260, Note_on_c, 0, 53, 96
3, 526320, Note_on_c, 0, 53, 0
3, 526320, Note_on_c, 0, 62, 0
3, 526320, Note_on_c, 0, 55, 96
3, 526320, Note_on_c, 0, 52, 96
3, 526380, Note_on_c, 0, 52, 0
3, 526380, Note_on_c, 0, 50, 96
3, 526440, Note_on_c, 0, 50, 0
3, 526440, Note_on_c, 0, 55, 0
3, 526440, Note_on_c, 0, 60, 96
3, 526440, Note_on_c, 0, 48, 96
3, 526500, Note_on_c, 0, 60, 0
3, 526500, Note_on_c, 0, 58, 96
3, 526560, Note_on_c, 0, 58, 0
3, 526560, Note_on_c, 0, 48, 0
3, 526560, Note_on_c, 0, 57, 96
3, 526560, Note_on_c, 0, 50, 96
3, 526620, Note_on_c, 0, 57, 0
3, 526620, Note_on_c, 0, 53, 96
3, 526680, Note_on_c, 0, 53, 0
3, 526680, Note_on_c, 0, 50, 0
3, 526680, Note_on_c, 0, 60, 96
3, 526680, Note_on_c, 0, 52, 96
3, 526800, Note_on_c, 0, 52, 0
3, 526800, Note_on_c, 0, 53, 96
3, 526860, Note_on_c, 0, 60, 0
3, 526860, Note_on_c, 0, 64, 96
3, 526920, Note_on_c, 0, 64, 0
3, 526920, Note_on_c, 0, 53, 0
3, 526920, Note_on_c, 0, 62, 96
3, 526980, Note_on_c, 0, 62, 0
3, 526980, Note_on_c, 0, 60, 96
3, 526980, Note_on_c, 0, 50, 96
3, 527040, Note_on_c, 0, 50, 0
3, 527040, Note_on_c, 0, 60, 0
3, 527040, Note_on_c, 0, 59, 96
3, 527040, Note_on_c, 0, 52, 96
3, 527100, Note_on_c, 0, 59, 0
3, 527100, Note_on_c, 0, 55, 96
3, 527160, Note_on_c, 0, 55, 0
3, 527160, Note_on_c, 0, 52, 0
3, 527160, Note_on_c, 0, 62, 96
3, 527160, Note_on_c, 0, 54, 96
3, 527280, Note_on_c, 0, 54, 0
3, 527280, Note_on_c, 0, 55, 96
3, 527340, Note_on_c, 0, 62, 0
3, 527340, Note_on_c, 0, 65, 96
3, 527400, Note_on_c, 0, 65, 0
3, 527400, Note_on_c, 0, 55, 0
3, 527400, Note_on_c, 0, 64, 96
3, 527460, Note_on_c, 0, 64, 0
3, 527460, Note_on_c, 0, 62, 96
3, 527460, Note_on_c, 0, 52, 96
3, 527520, Note_on_c, 0, 52, 0
3, 527520, Note_on_c, 0, 62, 0
3, 527520, Note_on_c, 0, 60, 96
3, 527520, Note_on_c, 0, 54, 96
3, 527640, Note_on_c, 0, 54, 0
3, 527640, Note_on_c, 0, 60, 0
3, 527640, Note_on_c, 0, 59, 96
3, 527640, Note_on_c, 0, 56, 96
3, 527760, Note_on_c, 0, 56, 0
3, 527760, Note_on_c, 0, 59, 0
3, 527760, Note_on_c, 0, 57, 96
3, 527760, Note_on_c, 0, 57, 96
3, 527790, Note_on_c, 0, 57, 0
3, 527790, Note_on_c, 0, 59, 96
3, 527820, Note_on_c, 0, 59, 0
3, 527820, Note_on_c, 0, 60, 96
3, 527850, Note_on_c, 0, 60, 0
3, 527850, Note_on_c, 0, 62, 96
3, 527880, Note_on_c, 0, 62, 0
3, 527880, Note_on_c, 0, 57, 0
3, 527880, Note_on_c, 0, 64, 96
3, 527940, Note_on_c, 0, 55, 96
3, 528000, Note_on_c, 0, 55, 0
3, 528000, Note_on_c, 0, 64, 0
3, 528000, Note_on_c, 0, 65, 96
3, 528000, Note_on_c, 0, 53, 96
3, 528060, Note_on_c, 0, 53, 0
3, 528060, Note_on_c, 0, 55, 96
3, 528120, Note_on_c, 0, 55, 0
3, 528120, Note_on_c, 0, 65, 0
3, 528120, Note_on_c, 0, 61, 96
3, 528120, Note_on_c, 0, 53, 96
3, 528180, Note_on_c, 0, 53, 0
3, 528180, Note_on_c, 0, 52, 96
3, 528240, Note_on_c, 0, 52, 0
3, 528240, Note_on_c, 0, 61, 0
3, 528240, Note_on_c, 0, 62, 96
3, 528240, Note_on_c, 0, 50, 96
3, 528300, Note_on_c, 0, 50, 0
3, 528300, Note_on_c, 0, 62, 0
3, 528300, Note_on_c, 0, 45, 96
3, 528360, Note_on_c, 0, 45, 0
3, 528360, Note_on_c, 0, 50, 96
3, 528420, Note_on_c, 0, 50, 0
3, 528420, Note_on_c, 0, 48, 96
3, 528480, Note_on_c, 0, 48, 0
3, 528480, Note_on_c, 0, 46, 96
3, 528540, Note_on_c, 0, 46, 0
3, 528540, Note_on_c, 0, 48, 96
3, 528600, Note_on_c, 0, 48, 0
3, 528600, Note_on_c, 0, 46, 96
3, 528660, Note_on_c, 0, 46, 0
3, 528660, Note_on_c, 0, 45, 96
3, 528720, Note_on_c, 0, 45, 0
3, 528720, Note_on_c, 0, 43, 96
3, 528780, Note_on_c, 0, 43, 0
3, 528780, Note_on_c, 0, 50, 96
3, 528840, Note_on_c, 0, 50, 0
3, 528840, Note_on_c, 0, 55, 96
3, 529080, Note_on_c, 0, 55, 0
3, 529080, Note_on_c, 0, 54, 96
3, 529140, Note_on_c, 0, 57, 96
3, 529200, Note_on_c, 0, 57, 0
3, 529200, Note_on_c, 0, 54, 0
3, 529200, Note_on_c, 0, 59, 96
3, 529200, Note_on_c, 0, 53, 96
3, 529260, Note_on_c, 0, 59, 0
3, 529260, Note_on_c, 0, 57, 96
3, 529320, Note_on_c, 0, 57, 0
3, 529320, Note_on_c, 0, 53, 0
3, 529320, Note_on_c, 0, 59, 96
3, 529320, Note_on_c, 0, 52, 96
3, 529380, Note_on_c, 0, 59, 0
3, 529380, Note_on_c, 0, 61, 96
3, 529440, Note_on_c, 0, 61, 0
3, 529440, Note_on_c, 0, 52, 0
3, 529440, Note_on_c, 0, 62, 96
3, 529500, Note_on_c, 0, 62, 0
3, 529500, Note_on_c, 0, 57, 96
3, 529560, Note_on_c, 0, 57, 0
3, 529560, Note_on_c, 0, 62, 96
3, 529560, Note_on_c, 0, 50, 96
3, 529680, Note_on_c, 0, 50, 0
3, 529680, Note_on_c, 0, 62, 0
3, 529680, Note_on_c, 0, 49, 96
3, 529800, Note_on_c, 0, 49, 0
3, 529800, Note_on_c, 0, 48, 96
3, 529920, Note_on_c, 0, 48, 0
3, 529920, Note_on_c, 0, 47, 96
3, 529980, Note_on_c, 0, 49, 96
3, 530040, Note_on_c, 0, 49, 0
3, 530040, Note_on_c, 0, 47, 0
3, 530040, Note_on_c, 0, 50, 96
3, 530040, Note_on_c, 0, 46, 96
3, 530100, Note_on_c, 0, 50, 0
3, 530100, Note_on_c, 0, 52, 96
3, 530160, Note_on_c, 0, 52, 0
3, 530160, Note_on_c, 0, 46, 0
3, 530160, Note_on_c, 0, 53, 96
3, 530160, Note_on_c, 0, 45, 96
3, 530220, Note_on_c, 0, 53, 0
3, 530220, Note_on_c, 0, 52, 96
3, 530280, Note_on_c, 0, 52, 0
3, 530280, Note_on_c, 0, 45, 0
3, 530280, Note_on_c, 0, 53, 96
3, 530280, Note_on_c, 0, 44, 96
3, 530400, Note_on_c, 0, 44, 0
3, 530400, Note_on_c, 0, 53, 0
3, 530400, Note_on_c, 0, 52, 96
3, 530400, Note_on_c, 0, 45, 96
3, 530520, Note_on_c, 0, 45, 0
3, 530520, Note_on_c, 0, 52, 0
3, 530520, Note_on_c, 0, 57, 96
3, 530640, Note_on_c, 0, 57, 0
3, 530640, Note_on_c, 0, 56, 96
3, 530760, Note_on_c, 0, 56, 0
3, 530760, Note_on_c, 0, 55, 96
3, 530760, Note_on_c, 0, 49, 96
3, 530880, Note_on_c, 0, 49, 0
3, 530880, Note_on_c, 0, 55, 0
3, 530880, Note_on_c, 0, 54, 96
3, 530880, Note_on_c, 0, 50, 96
3, 531000, Note_on_c, 0, 50, 0
3, 531000, Note_on_c, 0, 54, 0
3, 531000, Note_on_c, 0, 53, 96
3, 531120, Note_on_c, 0, 53, 0
3, 531120, Note_on_c, 0, 52, 96
3, 531240, Note_on_c, 0, 52, 0
3, 531240, Note_on_c, 0, 51, 96
3, 531300, Note_on_c, 0, 45, 96
3, 531360, Note_on_c, 0, 45, 0
3, 531360, Note_on_c, 0, 51, 0
3, 531360, Note_on_c, 0, 50, 96
3, 531360, Note_on_c, 0, 46, 96
3, 531420, Note_on_c, 0, 46, 0
3, 531420, Note_on_c, 0, 45, 96
3, 531480, Note_on_c, 0, 45, 0
3, 531480, Note_on_c, 0, 50, 0
3, 531480, Note_on_c, 0, 43, 96
3, 531720, Note_on_c, 0, 43, 0
3, 531720, Note_on_c, 0, 42, 96
3, 531840, Note_on_c, 0, 42, 0
3, 531840, Note_on_c, 0, 41, 96
3, 531960, Note_on_c, 0, 41, 0
3, 531960, Note_on_c, 0, 40, 96
3, 532020, Note_on_c, 0, 55, 96
3, 532080, Note_on_c, 0, 55, 0
3, 532080, Note_on_c, 0, 40, 0
3, 532080, Note_on_c, 0, 57, 96
3, 532080, Note_on_c, 0, 39, 96
3, 532140, Note_on_c, 0, 57, 0
3, 532140, Note_on_c, 0, 55, 96
3, 532200, Note_on_c, 0, 55, 0
3, 532200, Note_on_c, 0, 39, 0
3, 532200, Note_on_c, 0, 57, 96
3, 532200, Note_on_c, 0, 38, 96
3, 532260, Note_on_c, 0, 57, 0
3, 532260, Note_on_c, 0, 59, 96
3, 532320, Note_on_c, 0, 59, 0
3, 532320, Note_on_c, 0, 38, 0
3, 532320, Note_on_c, 0, 60, 96
3, 532320, Note_on_c, 0, 36, 96
3, 532380, Note_on_c, 0, 60, 0
3, 532380, Note_on_c, 0, 48, 96
3, 532440, Note_on_c, 0, 48, 0
3, 532440, Note_on_c, 0, 36, 0
3, 532440, Note_on_c, 0, 60, 96
3, 532500, Note_on_c, 0, 48, 96
3, 532560, Note_on_c, 0, 48, 0
3, 532560, Note_on_c, 0, 60, 0
3, 532560, Note_on_c, 0, 59, 96
3, 532560, Note_on_c, 0, 50, 96
3, 532620, Note_on_c, 0, 50, 0
3, 532620, Note_on_c, 0, 48, 96
3, 532680, Note_on_c, 0, 48, 0
3, 532680, Note_on_c, 0, 59, 0
3, 532680, Note_on_c, 0, 58, 96
3, 532680, Note_on_c, 0, 50, 96
3, 532740, Note_on_c, 0, 50, 0
3, 532740, Note_on_c, 0, 52, 96
3, 532800, Note_on_c, 0, 52, 0
3, 532800, Note_on_c, 0, 53, 96
3, 532860, Note_on_c, 0, 53, 0
3, 532860, Note_on_c, 0, 48, 96
3, 532920, Note_on_c, 0, 48, 0
3, 532920, Note_on_c, 0, 58, 0
3, 532920, Note_on_c, 0, 57, 96
3, 532920, Note_on_c, 0, 53, 96
3, 533040, Note_on_c, 0, 57, 0
3, 533040, Note_on_c, 0, 59, 96
3, 533100, Note_on_c, 0, 59, 0
3, 533100, Note_on_c, 0, 57, 96
3, 533160, Note_on_c, 0, 57, 0
3, 533160, Note_on_c, 0, 53, 0
3, 533160, Note_on_c, 0, 59, 96
3, 533160, Note_on_c, 0, 52, 96
3, 533220, Note_on_c, 0, 59, 0
3, 533220, Note_on_c, 0, 61, 96
3, 533280, Note_on_c, 0, 61, 0
3, 533280, Note_on_c, 0, 52, 0
3, 533280, Note_on_c, 0, 62, 96
3, 533280, Note_on_c, 0, 50, 96
3, 533340, Note_on_c, 0, 62, 0
3, 533340, Note_on_c, 0, 57, 96
3, 533400, Note_on_c, 0, 57, 0
3, 533400, Note_on_c, 0, 50, 0
3, 533400, Note_on_c, 0, 62, 96
3, 533640, Note_on_c, 0, 62, 0
3, 533640, Note_on_c, 0, 60, 96
3, 533760, Note_on_c, 0, 60, 0
3, 533760, Note_on_c, 0, 58, 96
3, 533880, Note_on_c, 0, 58, 0
3, 533880, Note_on_c, 0, 67, 96
3, 533880, Note_on_c, 0, 58, 96
3, 534000, Note_on_c, 0, 58, 0
3, 534000, Note_on_c, 0, 67, 0
3, 534000, Note_on_c, 0, 66, 96
3, 534000, Note_on_c, 0, 57, 96
3, 534120, Note_on_c, 0, 57, 0
3, 534120, Note_on_c, 0, 66, 0
3, 534120, Note_on_c, 0, 65, 96
3, 534120, Note_on_c, 0, 56, 96
3, 534240, Note_on_c, 0, 56, 0
3, 534240, Note_on_c, 0, 55, 96
3, 534360, Note_on_c, 0, 55, 0
3, 534360, Note_on_c, 0, 65, 0
3, 534360, Note_on_c, 0, 64, 96
3, 534480, Note_on_c, 0, 64, 0
3, 534480, Note_on_c, 0, 63, 96
3, 534600, Note_on_c, 0, 63, 0
3, 534600, Note_on_c, 0, 62, 96
3, 534840, Note_on_c, 0, 62, 0
3, 534840, Note_on_c, 0, 61, 96
3, 534900, Note_on_c, 0, 52, 96
3, 534960, Note_on_c, 0, 52, 0
3, 534960, Note_on_c, 0, 61, 0
3, 534960, Note_on_c, 0, 60, 96
3, 534960, Note_on_c, 0, 54, 96
3, 535020, Note_on_c, 0, 54, 0
3, 535020, Note_on_c, 0, 52, 96
3, 535080, Note_on_c, 0, 52, 0
3, 535080, Note_on_c, 0, 60, 0
3, 535080, Note_on_c, 0, 59, 96
3, 535080, Note_on_c, 0, 54, 96
3, 535140, Note_on_c, 0, 54, 0
3, 535140, Note_on_c, 0, 56, 96
3, 535200, Note_on_c, 0, 56, 0
3, 535200, Note_on_c, 0, 57, 96
3, 535260, Note_on_c, 0, 57, 0
3, 535260, Note_on_c, 0, 52, 96
3, 535320, Note_on_c, 0, 52, 0
3, 535320, Note_on_c, 0, 59, 0
3, 535320, Note_on_c, 0, 57, 96
3, 535320, Note_on_c, 0, 57, 96
3, 535440, Note_on_c, 0, 57, 0
3, 535500, Note_on_c, 0, 57, 0
3, 535500, Note_on_c, 0, 56, 96
3, 535560, Note_on_c, 0, 56, 0
3, 535560, Note_on_c, 0, 57, 96
3, 535620, Note_on_c, 0, 66, 96
3, 535680, Note_on_c, 0, 66, 0
3, 535680, Note_on_c, 0, 57, 0
3, 535680, Note_on_c, 0, 64, 96
3, 535680, Note_on_c, 0, 56, 96
3, 535740, Note_on_c, 0, 64, 0
3, 535740, Note_on_c, 0, 62, 96
3, 535800, Note_on_c, 0, 62, 0
3, 535800, Note_on_c, 0, 56, 0
3, 535800, Note_on_c, 0, 60, 96
3, 535800, Note_on_c, 0, 60, 96
3, 535860, Note_on_c, 0, 60, 0
3, 535860, Note_on_c, 0, 59, 96
3, 535920, Note_on_c, 0, 59, 0
3, 535920, Note_on_c, 0, 60, 0
3, 535920, Note_on_c, 0, 60, 96
3, 535920, Note_on_c, 0, 54, 96
3, 536040, Note_on_c, 0, 54, 0
3, 536040, Note_on_c, 0, 60, 0
3, 536040, Note_on_c, 0, 62, 96
3, 536040, Note_on_c, 0, 53, 96
3, 536160, Note_on_c, 0, 53, 0
3, 536160, Note_on_c, 0, 62, 0
3, 536160, Note_on_c, 0, 64, 96
3, 536160, Note_on_c, 0, 52, 96
3, 536220, Note_on_c, 0, 64, 0
3, 536220, Note_on_c, 0, 63, 96
3, 536280, Note_on_c, 0, 63, 0
3, 536280, Note_on_c, 0, 52, 0
3, 536280, Note_on_c, 0, 64, 96
3, 536280, Note_on_c, 0, 57, 96
3, 536340, Note_on_c, 0, 64, 0
3, 536340, Note_on_c, 0, 60, 96
3, 536400, Note_on_c, 0, 60, 0
3, 536400, Note_on_c, 0, 57, 0
3, 536400, Note_on_c, 0, 62, 96
3, 536400, Note_on_c, 0, 50, 96
3, 536460, Note_on_c, 0, 62, 0
3, 536460, Note_on_c, 0, 61, 96
3, 536520, Note_on_c, 0, 61, 0
3, 536520, Note_on_c, 0, 62, 96
3, 536580, Note_on_c, 0, 62, 0
3, 536580, Note_on_c, 0, 56, 96
3, 536640, Note_on_c, 0, 56, 0
3, 536640, Note_on_c, 0, 50, 0
3, 536640, Note_on_c, 0, 57, 96
3, 536640, Note_on_c, 0, 48, 96
3, 536700, Note_on_c, 0, 57, 0
3, 536700, Note_on_c, 0, 59, 96
3, 536760, Note_on_c, 0, 59, 0
3, 536760, Note_on_c, 0, 48, 0
3, 536760, Note_on_c, 0, 60, 96
3, 536760, Note_on_c, 0, 50, 96
3, 536880, Note_on_c, 0, 50, 0
3, 536880, Note_on_c, 0, 60, 0
3, 536880, Note_on_c, 0, 59, 96
3, 536880, Note_on_c, 0, 52, 96
3, 536940, Note_on_c, 0, 52, 0
3, 536940, Note_on_c, 0, 50, 96
3, 537000, Note_on_c, 0, 50, 0
3, 537000, Note_on_c, 0, 52, 96
3, 537120, Note_on_c, 0, 52, 0
3, 537120, Note_on_c, 0, 59, 0
3, 537120, Note_on_c, 0, 60, 96
3, 537120, Note_on_c, 0, 45, 96
3, 537240, Note_on_c, 0, 45, 0
3, 537240, Note_on_c, 0, 60, 0
3, 537240, Note_on_c, 0, 64, 96
3, 537360, Note_on_c, 0, 64, 0
3, 537360, Note_on_c, 0, 57, 96
3, 537480, Note_on_c, 0, 57, 0
3, 537480, Note_on_c, 0, 59, 96
3, 537480, Note_on_c, 0, 56, 96
3, 537600, Note_on_c, 0, 56, 0
3, 537600, Note_on_c, 0, 59, 0
3, 537600, Note_on_c, 0, 57, 96
3, 537720, Note_on_c, 0, 60, 96
3, 537840, Note_on_c, 0, 60, 0
3, 537840, Note_on_c, 0, 57, 0
3, 537840, Note_on_c, 0, 62, 96
3, 537960, Note_on_c, 0, 62, 0
3, 537960, Note_on_c, 0, 64, 96
3, 537960, Note_on_c, 0, 49, 96
3, 538080, Note_on_c, 0, 49, 0
3, 538080, Note_on_c, 0, 64, 0
3, 538080, Note_on_c, 0, 50, 96
3, 538200, Note_on_c, 0, 65, 96
3, 538320, Note_on_c, 0, 65, 0
3, 538320, Note_on_c, 0, 50, 0
3, 538320, Note_on_c, 0, 64, 96
3, 538440, Note_on_c, 0, 64, 0
3, 538440, Note_on_c, 0, 62, 96
3, 538440, Note_on_c, 0, 52, 96
3, 538560, Note_on_c, 0, 52, 0
3, 538560, Note_on_c, 0, 62, 0
3, 538560, Note_on_c, 0, 53, 96
3, 538680, Note_on_c, 0, 60, 96
3, 538740, Note_on_c, 0, 60, 0
3, 538740, Note_on_c, 0, 59, 96
3, 538800, Note_on_c, 0, 59, 0
3, 538800, Note_on_c, 0, 53, 0
3, 538800, Note_on_c, 0, 60, 96
3, 538920, Note_on_c, 0, 60, 0
3, 538920, Note_on_c, 0, 62, 96
3, 538920, Note_on_c, 0, 47, 96
3, 539040, Note_on_c, 0, 47, 0
3, 539040, Note_on_c, 0, 62, 0
3, 539040, Note_on_c, 0, 64, 96
3, 539040, Note_on_c, 0, 48, 96
3, 539100, Note_on_c, 0, 48, 0
3, 539100, Note_on_c, 0, 47, 96
3, 539160, Note_on_c, 0, 47, 0
3, 539160, Note_on_c, 0, 48, 96
3, 539220, Note_on_c, 0, 48, 0
3, 539220, Note_on_c, 0, 50, 96
3, 539280, Note_on_c, 0, 50, 0
3, 539280, Note_on_c, 0, 64, 0
3, 539280, Note_on_c, 0, 52, 96
3, 539340, Note_on_c, 0, 52, 0
3, 539340, Note_on_c, 0, 40, 96
3, 539400, Note_on_c, 0, 40, 0
3, 539400, Note_on_c, 0, 58, 96
3, 539400, Note_on_c, 0, 52, 96
3, 539520, Note_on_c, 0, 52, 0
3, 539520, Note_on_c, 0, 58, 0
3, 539520, Note_on_c, 0, 57, 96
3, 539520, Note_on_c, 0, 53, 96
3, 539640, Note_on_c, 0, 53, 0
3, 539640, Note_on_c, 0, 57, 0
3, 539640, Note_on_c, 0, 62, 96
3, 539640, Note_on_c, 0, 54, 96
3, 539700, Note_on_c, 0, 62, 0
3, 539700, Note_on_c, 0, 60, 96
3, 539760, Note_on_c, 0, 60, 0
3, 539760, Note_on_c, 0, 54, 0
3, 539760, Note_on_c, 0, 59, 96
3, 539760, Note_on_c, 0, 55, 96
3, 539880, Note_on_c, 0, 55, 0
3, 539880, Note_on_c, 0, 59, 0
3, 539880, Note_on_c, 0, 58, 96
3, 539880, Note_on_c, 0, 49, 96
3, 540000, Note_on_c, 0, 49, 0
3, 540000, Note_on_c, 0, 58, 0
3, 540000, Note_on_c, 0, 57, 96
3, 540000, Note_on_c, 0, 50, 96
3, 540120, Note_on_c, 0, 50, 0
3, 540120, Note_on_c, 0, 57, 0
3, 540120, Note_on_c, 0, 50, 96
3, 540240, Note_on_c, 0, 50, 0
3, 540240, Note_on_c, 0, 52, 96
3, 540300, Note_on_c, 0, 52, 0
3, 540300, Note_on_c, 0, 50, 96
3, 540360, Note_on_c, 0, 50, 0
3, 540360, Note_on_c, 0, 52, 96
3, 540420, Note_on_c, 0, 52, 0
3, 540420, Note_on_c, 0, 54, 96
3, 540480, Note_on_c, 0, 54, 0
3, 540480, Note_on_c, 0, 55, 96
3, 540600, Note_on_c, 0, 55, 0
3, 540600, Note_on_c, 0, 54, 96
3, 540600, Note_on_c, 0, 50, 96
3, 540660, Note_on_c, 0, 54, 0
3, 540660, Note_on_c, 0, 52, 96
3, 540720, Note_on_c, 0, 52, 0
3, 540720, Note_on_c, 0, 50, 0
3, 540720, Note_on_c, 0, 54, 96
3, 540720, Note_on_c, 0, 51, 96
3, 540780, Note_on_c, 0, 54, 0
3, 540780, Note_on_c, 0, 57, 96
3, 540840, Note_on_c, 0, 57, 0
3, 540840, Note_on_c, 0, 51, 0
3, 540840, Note_on_c, 0, 61, 96
3, 540840, Note_on_c, 0, 52, 96
3, 540900, Note_on_c, 0, 61, 0
3, 540900, Note_on_c, 0, 64, 96
3, 540960, Note_on_c, 0, 52, 0
3, 540960, Note_on_c, 0, 53, 96
3, 541020, Note_on_c, 0, 64, 0
3, 541020, Note_on_c, 0, 62, 96
3, 541080, Note_on_c, 0, 53, 0
3, 541080, Note_on_c, 0, 58, 96
3, 541140, Note_on_c, 0, 62, 0
3, 541140, Note_on_c, 0, 61, 96
3, 541200, Note_on_c, 0, 61, 0
3, 541200, Note_on_c, 0, 58, 0
3, 541200, Note_on_c, 0, 62, 96
3, 541200, Note_on_c, 0, 57, 96
3, 541260, Note_on_c, 0, 62, 0
3, 541260, Note_on_c, 0, 65, 96
3, 541320, Note_on_c, 0, 57, 0
3, 541320, Note_on_c, 0, 55, 96
3, 541380, Note_on_c, 0, 65, 0
3, 541380, Note_on_c, 0, 64, 96
3, 541440, Note_on_c, 0, 64, 0
3, 541440, Note_on_c, 0, 55, 0
3, 541440, Note_on_c, 0, 65, 96
3, 541440, Note_on_c, 0, 62, 96
3, 541500, Note_on_c, 0, 65, 0
3, 541500, Note_on_c, 0, 64, 96
3, 541560, Note_on_c, 0, 64, 0
3, 541560, Note_on_c, 0, 62, 0
3, 541560, Note_on_c, 0, 62, 96
3, 541560, Note_on_c, 0, 50, 96
3, 541680, Note_on_c, 0, 50, 0
3, 541680, Note_on_c, 0, 62, 0
3, 541680, Note_on_c, 0, 45, 96
3, 541800, Note_on_c, 0, 45, 0
3, 541800, Note_on_c, 0, 68, 96
3, 541800, Note_on_c, 0, 47, 96
3, 541920, Note_on_c, 0, 47, 0
3, 541920, Note_on_c, 0, 68, 0
3, 541920, Note_on_c, 0, 69, 96
3, 542040, Note_on_c, 0, 69, 0
3, 542040, Note_on_c, 0, 60, 96
3, 542040, Note_on_c, 0, 48, 96
3, 542160, Note_on_c, 0, 48, 0
3, 542160, Note_on_c, 0, 50, 96
3, 542220, Note_on_c, 0, 60, 0
3, 542220, Note_on_c, 0, 58, 96
3, 542280, Note_on_c, 0, 58, 0
3, 542280, Note_on_c, 0, 50, 0
3, 542280, Note_on_c, 0, 57, 96
3, 542280, Note_on_c, 0, 52, 96
3, 542340, Note_on_c, 0, 57, 0
3, 542340, Note_on_c, 0, 55, 96
3, 542400, Note_on_c, 0, 55, 0
3, 542400, Note_on_c, 0, 52, 0
3, 542400, Note_on_c, 0, 62, 96
3, 542520, Note_on_c, 0, 53, 96
3, 542640, Note_on_c, 0, 53, 0
3, 542640, Note_on_c, 0, 62, 0
3, 542640, Note_on_c, 0, 64, 96
3, 542640, Note_on_c, 0, 52, 96
3, 542760, Note_on_c, 0, 52, 0
3, 542760, Note_on_c, 0, 64, 0
3, 542760, Note_on_c, 0, 65, 96
3, 542760, Note_on_c, 0, 50, 96
3, 542880, Note_on_c, 0, 50, 0
3, 542880, Note_on_c, 0, 65, 0
3, 542880, Note_on_c, 0, 67, 96
3, 543000, Note_on_c, 0, 67, 0
3, 543000, Note_on_c, 0, 64, 96
3, 543000, Note_on_c, 0, 49, 96
3, 543060, Note_on_c, 0, 49, 0
3, 543060, Note_on_c, 0, 45, 96
3, 543120, Note_on_c, 0, 45, 0
3, 543120, Note_on_c, 0, 64, 0
3, 543120, Note_on_c, 0, 47, 96
3, 543240, Note_on_c, 0, 47, 0
3, 543240, Note_on_c, 0, 57, 96
3, 543240, Note_on_c, 0, 49, 96
3, 543300, Note_on_c, 0, 57, 0
3, 543300, Note_on_c, 0, 58, 96
3, 543360, Note_on_c, 0, 58, 0
3, 543360, Note_on_c, 0, 49, 0
3, 543360, Note_on_c, 0, 57, 96
3, 543360, Note_on_c, 0, 50, 96
3, 543480, Note_on_c, 0, 50, 0
3, 543480, Note_on_c, 0, 45, 96
3, 543540, Note_on_c, 0, 57, 0
3, 543540, Note_on_c, 0, 55, 96
3, 543600, Note_on_c, 0, 55, 0
3, 543600, Note_on_c, 0, 45, 0
3, 543600, Note_on_c, 0, 53, 96
3, 543600, Note_on_c, 0, 46, 96
3, 543660, Note_on_c, 0, 53, 0
3, 543660, Note_on_c, 0, 50, 96
3, 543720, Note_on_c, 0, 50, 0
3, 543720, Note_on_c, 0, 46, 0
3, 543720, Note_on_c, 0, 55, 96
3, 543720, Note_on_c, 0, 43, 96
3, 543840, Note_on_c, 0, 43, 0
3, 543840, Note_on_c, 0, 45, 96
3, 543960, Note_on_c, 0, 45, 0
3, 543960, Note_on_c, 0, 55, 0
3, 543960, Note_on_c, 0, 53, 96
3, 543960, Note_on_c, 0, 50, 96
3, 544080, Note_on_c, 0, 50, 0
3, 544080, Note_on_c, 0, 43, 96
3, 544140, Note_on_c, 0, 53, 0
3, 544140, Note_on_c, 0, 50, 96
3, 544200, Note_on_c, 0, 50, 0
3, 544200, Note_on_c, 0, 51, 96
3, 544320, Note_on_c, 0, 51, 0
3, 544320, Note_on_c, 0, 50, 96
3, 544440, Note_on_c, 0, 50, 0
3, 544440, Note_on_c, 0, 55, 96
3, 544500, Note_on_c, 0, 55, 0
3, 544500, Note_on_c, 0, 53, 96
3, 544560, Note_on_c, 0, 53, 0
3, 544560, Note_on_c, 0, 43, 0
3, 544560, Note_on_c, 0, 52, 96
3, 544560, Note_on_c, 0, 45, 96
3, 544620, Note_on_c, 0, 52, 0
3, 544620, Note_on_c, 0, 50, 96
3, 544680, Note_on_c, 0, 50, 0
3, 544680, Note_on_c, 0, 52, 96
3, 544740, Note_on_c, 0, 52, 0
3, 544740, Note_on_c, 0, 48, 96
3, 544800, Note_on_c, 0, 48, 0
3, 544800, Note_on_c, 0, 53, 96
3, 544920, Note_on_c, 0, 53, 0
3, 544920, Note_on_c, 0, 45, 0
3, 544920, Note_on_c, 0, 47, 96
3, 544980, Note_on_c, 0, 47, 0
3, 544980, Note_on_c, 0, 49, 96
3, 545040, Note_on_c, 0, 49, 0
3, 545040, Note_on_c, 0, 50, 96
3, 545160, Note_on_c, 0, 50, 0
3, 545160, Note_on_c, 0, 46, 96
3, 545280, Note_on_c, 0, 46, 0
3, 545280, Note_on_c, 0, 53, 96
3, 545400, Note_on_c, 0, 53, 0
3, 545400, Note_on_c, 0, 69, 96
3, 545400, Note_on_c, 0, 45, 96
3, 545460, Note_on_c, 0, 45, 0
3, 545460, Note_on_c, 0, 46, 96
3, 545520, Note_on_c, 0, 46, 0
3, 545520, Note_on_c, 0, 69, 0
3, 545520, Note_on_c, 0, 67, 96
3, 545520, Note_on_c, 0, 48, 96
3, 545580, Note_on_c, 0, 67, 0
3, 545580, Note_on_c, 0, 65, 96
3, 545640, Note_on_c, 0, 65, 0
3, 545640, Note_on_c, 0, 48, 0
3, 545640, Note_on_c, 0, 67, 96
3, 545640, Note_on_c, 0, 36, 96
3, 545760, Note_on_c, 0, 36, 0
3, 545760, Note_on_c, 0, 67, 0
3, 545760, Note_on_c, 0, 65, 96
3, 545760, Note_on_c, 0, 41, 96
3, 546000, Note_on_c, 0, 41, 0
3, 546000, Note_on_c, 0, 65, 0
3, 546000, Note_on_c, 0, 45, 96
3, 546120, Note_on_c, 0, 51, 96
3, 546240, Note_on_c, 0, 45, 0
3, 546240, Note_on_c, 0, 46, 96
3, 546300, Note_on_c, 0, 51, 0
3, 546300, Note_on_c, 0, 50, 96
3, 546360, Note_on_c, 0, 50, 0
3, 546360, Note_on_c, 0, 46, 0
3, 546360, Note_on_c, 0, 53, 96
3, 546360, Note_on_c, 0, 41, 96
3, 546420, Note_on_c, 0, 53, 0
3, 546420, Note_on_c, 0, 53, 96
3, 546480, Note_on_c, 0, 53, 0
3, 546480, Note_on_c, 0, 41, 0
3, 546480, Note_on_c, 0, 53, 96
3, 546480, Note_on_c, 0, 48, 96
3, 546540, Note_on_c, 0, 53, 0
3, 546540, Note_on_c, 0, 52, 96
3, 546600, Note_on_c, 0, 52, 0
3, 546600, Note_on_c, 0, 48, 0
3, 546600, Note_on_c, 0, 55, 96
3, 546600, Note_on_c, 0, 49, 96
3, 546660, Note_on_c, 0, 55, 0
3, 546660, Note_on_c, 0, 55, 96
3, 546720, Note_on_c, 0, 55, 0
3, 546720, Note_on_c, 0, 49, 0
3, 546720, Note_on_c, 0, 55, 96
3, 546720, Note_on_c, 0, 50, 96
3, 546780, Note_on_c, 0, 55, 0
3, 546780, Note_on_c, 0, 54, 96
3, 546840, Note_on_c, 0, 54, 0
3, 546840, Note_on_c, 0, 50, 0
3, 546840, Note_on_c, 0, 57, 96
3, 546840, Note_on_c, 0, 45, 96
3, 546900, Note_on_c, 0, 57, 0
3, 546900, Note_on_c, 0, 57, 96
3, 546960, Note_on_c, 0, 57, 0
3, 546960, Note_on_c, 0, 45, 0
3, 546960, Note_on_c, 0, 57, 96
3, 546960, Note_on_c, 0, 52, 96
3, 547020, Note_on_c, 0, 57, 0
3, 547020, Note_on_c, 0, 56, 96
3, 547080, Note_on_c, 0, 56, 0
3, 547080, Note_on_c, 0, 59, 96
3, 547140, Note_on_c, 0, 59, 0
3, 547140, Note_on_c, 0, 59, 96
3, 547200, Note_on_c, 0, 59, 0
3, 547200, Note_on_c, 0, 52, 0
3, 547200, Note_on_c, 0, 59, 96
3, 547200, Note_on_c, 0, 53, 96
3, 547260, Note_on_c, 0, 59, 0
3, 547260, Note_on_c, 0, 57, 96
3, 547320, Note_on_c, 0, 57, 0
3, 547320, Note_on_c, 0, 53, 0
3, 547320, Note_on_c, 0, 59, 96
3, 547320, Note_on_c, 0, 52, 96
3, 547380, Note_on_c, 0, 59, 0
3, 547380, Note_on_c, 0, 61, 96
3, 547440, Note_on_c, 0, 61, 0
3, 547440, Note_on_c, 0, 52, 0
3, 547440, Note_on_c, 0, 62, 96
3, 547440, Note_on_c, 0, 50, 96
3, 547500, Note_on_c, 0, 50, 0
3, 547500, Note_on_c, 0, 62, 0
3, 547500, Note_on_c, 0, 56, 96
3, 547500, Note_on_c, 0, 52, 96
3, 547560, Note_on_c, 0, 52, 0
3, 547560, Note_on_c, 0, 56, 0
3, 547560, Note_on_c, 0, 57, 96
3, 547560, Note_on_c, 0, 50, 96
3, 547620, Note_on_c, 0, 57, 0
3, 547620, Note_on_c, 0, 59, 96
3, 547680, Note_on_c, 0, 59, 0
3, 547680, Note_on_c, 0, 50, 0
3, 547680, Note_on_c, 0, 60, 96
3, 547680, Note_on_c, 0, 57, 96
3, 547740, Note_on_c, 0, 57, 0
3, 547740, Note_on_c, 0, 52, 96
3, 547800, Note_on_c, 0, 52, 0
3, 547800, Note_on_c, 0, 57, 96
3, 547860, Note_on_c, 0, 60, 0
3, 547860, Note_on_c, 0, 60, 96
3, 547920, Note_on_c, 0, 60, 0
3, 547920, Note_on_c, 0, 58, 96
3, 547980, Note_on_c, 0, 58, 0
3, 547980, Note_on_c, 0, 57, 96
3, 548040, Note_on_c, 0, 57, 0
3, 548040, Note_on_c, 0, 57, 0
3, 548040, Note_on_c, 0, 58, 96
3, 548040, Note_on_c, 0, 55, 96
3, 548100, Note_on_c, 0, 58, 0
3, 548100, Note_on_c, 0, 60, 96
3, 548160, Note_on_c, 0, 60, 0
3, 548160, Note_on_c, 0, 55, 0
3, 548160, Note_on_c, 0, 62, 96
3, 548160, Note_on_c, 0, 53, 96
3, 548280, Note_on_c, 0, 62, 0
3, 548280, Note_on_c, 0, 57, 96
3, 548340, Note_on_c, 0, 53, 0
3, 548340, Note_on_c, 0, 55, 96
3, 548370, Note_on_c, 0, 55, 0
3, 548370, Note_on_c, 0, 53, 96
3, 548400, Note_on_c, 0, 53, 0
3, 548400, Note_on_c, 0, 57, 0
3, 548400, Note_on_c, 0, 64, 96
3, 548400, Note_on_c, 0, 52, 96
3, 548460, Note_on_c, 0, 52, 0
3, 548460, Note_on_c, 0, 50, 96
3, 548520, Note_on_c, 0, 50, 0
3, 548520, Note_on_c, 0, 52, 96
3, 548640, Note_on_c, 0, 52, 0
3, 548640, Note_on_c, 0, 45, 96
3, 548760, Note_on_c, 0, 45, 0
3, 548760, Note_on_c, 0, 64, 0
3, 548760, Note_on_c, 0, 62, 96
3, 548760, Note_on_c, 0, 57, 96
3, 548820, Note_on_c, 0, 62, 0
3, 548820, Note_on_c, 0, 61, 96
3, 548880, Note_on_c, 0, 61, 0
3, 548880, Note_on_c, 0, 65, 96
3, 549000, Note_on_c, 0, 65, 0
3, 549000, Note_on_c, 0, 57, 0
3, 549000, Note_on_c, 0, 56, 96
3, 549120, Note_on_c, 0, 56, 0
3, 549120, Note_on_c, 0, 57, 96
3, 549240, Note_on_c, 0, 62, 96
3, 549360, Note_on_c, 0, 62, 0
3, 549360, Note_on_c, 0, 57, 0
3, 549360, Note_on_c, 0, 61, 96
3, 549480, Note_on_c, 0, 61, 0
3, 549480, Note_on_c, 0, 60, 96
3, 549480, Note_on_c, 0, 51, 96
3, 549600, Note_on_c, 0, 51, 0
3, 549600, Note_on_c, 0, 52, 96
3, 549720, Note_on_c, 0, 60, 0
3, 549720, Note_on_c, 0, 59, 96
3, 549840, Note_on_c, 0, 59, 0
3, 549840, Note_on_c, 0, 52, 0
3, 549840, Note_on_c, 0, 60, 96
3, 549840, Note_on_c, 0, 57, 96
3, 549960, Note_on_c, 0, 57, 0
3, 549960, Note_on_c, 0, 60, 0
3, 549960, Note_on_c, 0, 67, 96
3, 549960, Note_on_c, 0, 59, 96
3, 550080, Note_on_c, 0, 59, 0
3, 550080, Note_on_c, 0, 67, 0
3, 550080, Note_on_c, 0, 67, 96
3, 550080, Note_on_c, 0, 60, 96
3, 550200, Note_on_c, 0, 60, 0
3, 550200, Note_on_c, 0, 52, 96
3, 550320, Note_on_c, 0, 52, 0
3, 550320, Note_on_c, 0, 67, 0
3, 550320, Note_on_c, 0, 54, 96
3, 550440, Note_on_c, 0, 54, 0
3, 550440, Note_on_c, 0, 65, 96
3, 550440, Note_on_c, 0, 56, 96
3, 550560, Note_on_c, 0, 56, 0
3, 550560, Note_on_c, 0, 57, 96
3, 550620, Note_on_c, 0, 65, 0
3, 550620, Note_on_c, 0, 63, 96
3, 550680, Note_on_c, 0, 63, 0
3, 550680, Note_on_c, 0, 64, 96
3, 550740, Note_on_c, 0, 64, 0
3, 550740, Note_on_c, 0, 64, 96
3, 550800, Note_on_c, 0, 64, 0
3, 550800, Note_on_c, 0, 64, 96
3, 550860, Note_on_c, 0, 64, 0
3, 550860, Note_on_c, 0, 61, 96
3, 550920, Note_on_c, 0, 61, 0
3, 550920, Note_on_c, 0, 62, 96
3, 550980, Note_on_c, 0, 62, 0
3, 550980, Note_on_c, 0, 62, 96
3, 551040, Note_on_c, 0, 62, 0
3, 551040, Note_on_c, 0, 62, 96
3, 551100, Note_on_c, 0, 62, 0
3, 551100, Note_on_c, 0, 59, 96
3, 551160, Note_on_c, 0, 59, 0
3, 551160, Note_on_c, 0, 57, 0
3, 551160, Note_on_c, 0, 60, 96
3, 551160, Note_on_c, 0, 57, 96
3, 551280, Note_on_c, 0, 60, 0
3, 551280, Note_on_c, 0, 62, 96
3, 551340, Note_on_c, 0, 57, 0
3, 551340, Note_on_c, 0, 54, 96
3, 551400, Note_on_c, 0, 54, 0
3, 551400, Note_on_c, 0, 62, 0
3, 551400, Note_on_c, 0, 64, 96
3, 551400, Note_on_c, 0, 55, 96
3, 551460, Note_on_c, 0, 55, 0
3, 551460, Note_on_c, 0, 55, 96
3, 551520, Note_on_c, 0, 55, 0
3, 551520, Note_on_c, 0, 64, 0
3, 551520, Note_on_c, 0, 57, 96
3, 551520, Note_on_c, 0, 55, 96
3, 551580, Note_on_c, 0, 55, 0
3, 551580, Note_on_c, 0, 52, 96
3, 551640, Note_on_c, 0, 52, 0
3, 551640, Note_on_c, 0, 53, 96
3, 551700, Note_on_c, 0, 53, 0
3, 551700, Note_on_c, 0, 57, 0
3, 551700, Note_on_c, 0, 57, 96
3, 551700, Note_on_c, 0, 53, 96
3, 551760, Note_on_c, 0, 53, 0
3, 551760, Note_on_c, 0, 57, 0
3, 551760, Note_on_c, 0, 59, 96
3, 551760, Note_on_c, 0, 53, 96
3, 551820, Note_on_c, 0, 53, 0
3, 551820, Note_on_c, 0, 50, 96
3, 551880, Note_on_c, 0, 50, 0
3, 551880, Note_on_c, 0, 59, 0
3, 551880, Note_on_c, 0, 61, 96
3, 551880, Note_on_c, 0, 52, 96
3, 551940, Note_on_c, 0, 52, 0
3, 551940, Note_on_c, 0, 52, 96
3, 552000, Note_on_c, 0, 52, 0
3, 552000, Note_on_c, 0, 61, 0
3, 552000, Note_on_c, 0, 62, 96
3, 552000, Note_on_c, 0, 52, 96
3, 552060, Note_on_c, 0, 52, 0
3, 552060, Note_on_c, 0, 49, 96
3, 552120, Note_on_c, 0, 49, 0
3, 552120, Note_on_c, 0, 62, 0
3, 552120, Note_on_c, 0, 50, 96
3, 552180, Note_on_c, 0, 50, 0
3, 552180, Note_on_c, 0, 52, 96
3, 552240, Note_on_c, 0, 52, 0
3, 552240, Note_on_c, 0, 53, 96
3, 552300, Note_on_c, 0, 53, 0
3, 552300, Note_on_c, 0, 52, 96
3, 552360, Note_on_c, 0, 52, 0
3, 552360, Note_on_c, 0, 67, 96
3, 552360, Note_on_c, 0, 53, 96
3, 552420, Note_on_c, 0, 53, 0
3, 552420, Note_on_c, 0, 55, 96
3, 552480, Note_on_c, 0, 55, 0
3, 552480, Note_on_c, 0, 67, 0
3, 552480, Note_on_c, 0, 64, 96
3, 552480, Note_on_c, 0, 49, 96
3, 552600, Note_on_c, 0, 49, 0
3, 552600, Note_on_c, 0, 64, 0
3, 552600, Note_on_c, 0, 55, 96
3, 552720, Note_on_c, 0, 55, 0
3, 552720, Note_on_c, 0, 53, 96
3, 552840, Note_on_c, 0, 53, 0
3, 552840, Note_on_c, 0, 49, 96
3, 552840, Note_on_c, 0, 46, 96
3, 552960, Note_on_c, 0, 49, 0
3, 552960, Note_on_c, 0, 50, 96
3, 553020, Note_on_c, 0, 46, 0
3, 553020, Note_on_c, 0, 44, 96
3, 553080, Note_on_c, 0, 44, 0
3, 553080, Note_on_c, 0, 50, 0
3, 553080, Note_on_c, 0, 57, 96
3, 553080, Note_on_c, 0, 45, 96
3, 553140, Note_on_c, 0, 45, 0
3, 553140, Note_on_c, 0, 45, 96
3, 553200, Note_on_c, 0, 45, 0
3, 553200, Note_on_c, 0, 57, 0
3, 553200, Note_on_c, 0, 62, 96
3, 553200, Note_on_c, 0, 45, 96
3, 553260, Note_on_c, 0, 45, 0
3, 553260, Note_on_c, 0, 41, 96
3, 553320, Note_on_c, 0, 41, 0
3, 553320, Note_on_c, 0, 62, 0
3, 553320, Note_on_c, 0, 69, 96
3, 553320, Note_on_c, 0, 43, 96
3, 553380, Note_on_c, 0, 43, 0
3, 553380, Note_on_c, 0, 43, 96
3, 553440, Note_on_c, 0, 43, 0
3, 553440, Note_on_c, 0, 43, 96
3, 553500, Note_on_c, 0, 43, 0
3, 553500, Note_on_c, 0, 40, 96
3, 553560, Note_on_c, 0, 40, 0
3, 553560, Note_on_c, 0, 69, 0
3, 553560, Note_on_c, 0, 42, 96
3, 553620, Note_on_c, 0, 42, 0
3, 553620, Note_on_c, 0, 42, 96
3, 553680, Note_on_c, 0, 42, 0
3, 553680, Note_on_c, 0, 62, 96
3, 553680, Note_on_c, 0, 43, 96
3, 553800, Note_on_c, 0, 43, 0
3, 553800, Note_on_c, 0, 40, 96
3, 553920, Note_on_c, 0, 40, 0
3, 553920, Note_on_c, 0, 62, 0
3, 553920, Note_on_c, 0, 61, 96
3, 553920, Note_on_c, 0, 45, 96
3, 554040, Note_on_c, 0, 45, 0
3, 554040, Note_on_c, 0, 61, 0
3, 554040, Note_on_c, 0, 65, 96
3, 554040, Note_on_c, 0, 57, 96
3, 554160, Note_on_c, 0, 57, 0
3, 554160, Note_on_c, 0, 65, 0
3, 554160, Note_on_c, 0, 59, 96
3, 554160, Note_on_c, 0, 56, 96
3, 554280, Note_on_c, 0, 56, 0
3, 554280, Note_on_c, 0, 59, 0
3, 554280, Note_on_c, 0, 58, 96
3, 554280, Note_on_c, 0, 55, 96
3, 554400, Note_on_c, 0, 55, 0
3, 554400, Note_on_c, 0, 58, 0
3, 554400, Note_on_c, 0, 57, 96
3, 554400, Note_on_c, 0, 54, 96
3, 554520, Note_on_c, 0, 54, 0
3, 554520, Note_on_c, 0, 57, 0
3, 554520, Note_on_c, 0, 62, 96
3, 554520, Note_on_c, 0, 53, 96
3, 554640, Note_on_c, 0, 53, 0
3, 554640, Note_on_c, 0, 62, 0
3, 554640, Note_on_c, 0, 55, 96
3, 554640, Note_on_c, 0, 52, 96
3, 554760, Note_on_c, 0, 52, 0
3, 554760, Note_on_c, 0, 51, 96
3, 554880, Note_on_c, 0, 51, 0
3, 554880, Note_on_c, 0, 55, 0
3, 554880, Note_on_c, 0, 53, 96
3, 554880, Note_on_c, 0, 50, 96
3, 555000, Note_on_c, 0, 50, 0
3, 555000, Note_on_c, 0, 53, 0
3, 555000, Note_on_c, 0, 55, 96
3, 555000, Note_on_c, 0, 49, 96
3, 555120, Note_on_c, 0, 49, 0
3, 555120, Note_on_c, 0, 55, 0
3, 555120, Note_on_c, 0, 57, 96
3, 555120, Note_on_c, 0, 48, 96
3, 555180, Note_on_c, 0, 57, 0
3, 555180, Note_on_c, 0, 55, 96
3, 555240, Note_on_c, 0, 55, 0
3, 555240, Note_on_c, 0, 48, 0
3, 555240, Note_on_c, 0, 57, 96
3, 555240, Note_on_c, 0, 53, 96
3, 555360, Note_on_c, 0, 53, 0
3, 555360, Note_on_c, 0, 57, 0
3, 555360, Note_on_c, 0, 50, 96
3, 555360, Note_on_c, 0, 46, 96
3, 555480, Note_on_c, 0, 50, 0
3, 555480, Note_on_c, 0, 53, 96
3, 555600, Note_on_c, 0, 53, 0
3, 555600, Note_on_c, 0, 46, 0
3, 555600, Note_on_c, 0, 60, 96
3, 555780, Note_on_c, 0, 60, 0
3, 555780, Note_on_c, 0, 62, 96
3, 555810, Note_on_c, 0, 62, 0
3, 555810, Note_on_c, 0, 60, 96
3, 555840, Note_on_c, 0, 60, 0
3, 555840, Note_on_c, 0, 59, 96
3, 555960, Note_on_c, 0, 59, 0
3, 555960, Note_on_c, 0, 60, 96
3, 556140, Note_on_c, 0, 60, 0
3, 556140, Note_on_c, 0, 57, 96
3, 556200, Note_on_c, 0, 57, 0
3, 556200, Note_on_c, 0, 58, 96
3, 556260, Note_on_c, 0, 58, 0
3, 556260, Note_on_c, 0, 58, 96
3, 556320, Note_on_c, 0, 58, 0
3, 556320, Note_on_c, 0, 58, 96
3, 556380, Note_on_c, 0, 58, 0
3, 556380, Note_on_c, 0, 55, 96
3, 556440, Note_on_c, 0, 55, 0
3, 556440, Note_on_c, 0, 57, 96
3, 556500, Note_on_c, 0, 57, 0
3, 556500, Note_on_c, 0, 57, 96
3, 556560, Note_on_c, 0, 57, 0
3, 556560, Note_on_c, 0, 55, 96
3, 556680, Note_on_c, 0, 55, 0
3, 556680, Note_on_c, 0, 67, 96
3, 556680, Note_on_c, 0, 43, 96
3, 556800, Note_on_c, 0, 67, 0
3, 556800, Note_on_c, 0, 64, 96
3, 556860, Note_on_c, 0, 43, 0
3, 556860, Note_on_c, 0, 40, 96
3, 556920, Note_on_c, 0, 40, 0
3, 556920, Note_on_c, 0, 64, 0
3, 556920, Note_on_c, 0, 62, 96
3, 556920, Note_on_c, 0, 41, 96
3, 556980, Note_on_c, 0, 41, 0
3, 556980, Note_on_c, 0, 41, 96
3, 557040, Note_on_c, 0, 41, 0
3, 557040, Note_on_c, 0, 41, 96
3, 557100, Note_on_c, 0, 41, 0
3, 557100, Note_on_c, 0, 38, 96
3, 557160, Note_on_c, 0, 38, 0
3, 557160, Note_on_c, 0, 62, 0
3, 557160, Note_on_c, 0, 60, 96
3, 557160, Note_on_c, 0, 39, 96
3, 557220, Note_on_c, 0, 39, 0
3, 557220, Note_on_c, 0, 39, 96
3, 557280, Note_on_c, 0, 39, 0
3, 557280, Note_on_c, 0, 39, 96
3, 557340, Note_on_c, 0, 39, 0
3, 557340, Note_on_c, 0, 36, 96
3, 557400, Note_on_c, 0, 36, 0
3, 557400, Note_on_c, 0, 60, 0
3, 557400, Note_on_c, 0, 58, 96
3, 557400, Note_on_c, 0, 38, 96
3, 557460, Note_on_c, 0, 38, 0
3, 557460, Note_on_c, 0, 58, 0
3, 557460, Note_on_c, 0, 60, 96
3, 557460, Note_on_c, 0, 39, 96
3, 557520, Note_on_c, 0, 39, 0
3, 557520, Note_on_c, 0, 60, 0
3, 557520, Note_on_c, 0, 62, 96
3, 557520, Note_on_c, 0, 41, 96
3, 557580, Note_on_c, 0, 41, 0
3, 557580, Note_on_c, 0, 39, 96
3, 557640, Note_on_c, 0, 39, 0
3, 557640, Note_on_c, 0, 62, 0
3, 557640, Note_on_c, 0, 60, 96
3, 557640, Note_on_c, 0, 41, 96
3, 557760, Note_on_c, 0, 41, 0
3, 557760, Note_on_c, 0, 60, 0
3, 557760, Note_on_c, 0, 58, 96
3, 557760, Note_on_c, 0, 46, 96
3, 557880, Note_on_c, 0, 46, 0
3, 557880, Note_on_c, 0, 50, 96
3, 557940, Note_on_c, 0, 58, 0
3, 557940, Note_on_c, 0, 57, 96
3, 558000, Note_on_c, 0, 57, 0
3, 558000, Note_on_c, 0, 50, 0
3, 558000, Note_on_c, 0, 55, 96
3, 558000, Note_on_c, 0, 51, 96
3, 558060, Note_on_c, 0, 55, 0
3, 558060, Note_on_c, 0, 58, 96
3, 558120, Note_on_c, 0, 58, 0
3, 558120, Note_on_c, 0, 57, 96
3, 558180, Note_on_c, 0, 57, 0
3, 558180, Note_on_c, 0, 55, 96
3, 558240, Note_on_c, 0, 55, 0
3, 558240, Note_on_c, 0, 51, 0
3, 558240, Note_on_c, 0, 57, 96
3, 558240, Note_on_c, 0, 50, 96
3, 558360, Note_on_c, 0, 50, 0
3, 558360, Note_on_c, 0, 57, 0
3, 558360, Note_on_c, 0, 62, 96
3, 558360, Note_on_c, 0, 54, 96
3, 558420, Note_on_c, 0, 62, 0
3, 558420, Note_on_c, 0, 60, 96
3, 558480, Note_on_c, 0, 60, 0
3, 558480, Note_on_c, 0, 54, 0
3, 558480, Note_on_c, 0, 59, 96
3, 558480, Note_on_c, 0, 55, 96
3, 558540, Note_on_c, 0, 59, 0
3, 558540, Note_on_c, 0, 61, 96
3, 558600, Note_on_c, 0, 61, 0
3, 558600, Note_on_c, 0, 55, 0
3, 558600, Note_on_c, 0, 62, 96
3, 558600, Note_on_c, 0, 56, 96
3, 558720, Note_on_c, 0, 56, 0
3, 558720, Note_on_c, 0, 57, 96
3, 558780, Note_on_c, 0, 62, 0
3, 558780, Note_on_c, 0, 61, 96
3, 558840, Note_on_c, 0, 61, 0
3, 558840, Note_on_c, 0, 57, 0
3, 558840, Note_on_c, 0, 67, 96
3, 558900, Note_on_c, 0, 57, 96
3, 558960, Note_on_c, 0, 57, 0
3, 558960, Note_on_c, 0, 58, 96
3, 559020, Note_on_c, 0, 67, 0
3, 559020, Note_on_c, 0, 64, 96
3, 559080, Note_on_c, 0, 64, 0
3, 559080, Note_on_c, 0, 58, 0
3, 559080, Note_on_c, 0, 65, 96
3, 559080, Note_on_c, 0, 59, 96
3, 559140, Note_on_c, 0, 65, 0
3, 559140, Note_on_c, 0, 65, 96
3, 559200, Note_on_c, 0, 65, 0
3, 559200, Note_on_c, 0, 59, 0
3, 559200, Note_on_c, 0, 65, 96
3, 559200, Note_on_c, 0, 60, 96
3, 559260, Note_on_c, 0, 65, 0
3, 559260, Note_on_c, 0, 63, 96
3, 559320, Note_on_c, 0, 63, 0
3, 559320, Note_on_c, 0, 60, 0
3, 559320, Note_on_c, 0, 64, 96
3, 559320, Note_on_c, 0, 61, 96
3, 559380, Note_on_c, 0, 64, 0
3, 559380, Note_on_c, 0, 64, 96
3, 559440, Note_on_c, 0, 64, 0
3, 559440, Note_on_c, 0, 61, 0
3, 559440, Note_on_c, 0, 64, 96
3, 559440, Note_on_c, 0, 62, 96
3, 559500, Note_on_c, 0, 64, 0
3, 559500, Note_on_c, 0, 57, 96
3, 559560, Note_on_c, 0, 57, 0
3, 559560, Note_on_c, 0, 62, 0
3, 559560, Note_on_c, 0, 62, 96
3, 559560, Note_on_c, 0, 50, 96
3, 559620, Note_on_c, 0, 62, 0
3, 559620, Note_on_c, 0, 60, 96
3, 559680, Note_on_c, 0, 60, 0
3, 559680, Note_on_c, 0, 50, 0
3, 559680, Note_on_c, 0, 59, 96
3, 559680, Note_on_c, 0, 55, 96
3, 559800, Note_on_c, 0, 55, 0
3, 559800, Note_on_c, 0, 59, 0
3, 559800, Note_on_c, 0, 58, 96
3, 559800, Note_on_c, 0, 48, 96
3, 559920, Note_on_c, 0, 48, 0
3, 559920, Note_on_c, 0, 58, 0
3, 559920, Note_on_c, 0, 57, 96
3, 559920, Note_on_c, 0, 53, 96
3, 560040, Note_on_c, 0, 53, 0
3, 560040, Note_on_c, 0, 57, 0
3, 560040, Note_on_c, 0, 47, 96
3, 560100, Note_on_c, 0, 57, 96
3, 560160, Note_on_c, 0, 57, 0
3, 560160, Note_on_c, 0, 47, 0
3, 560160, Note_on_c, 0, 56, 96
3, 560160, Note_on_c, 0, 52, 96
3, 560280, Note_on_c, 0, 52, 0
3, 560280, Note_on_c, 0, 56, 0
3, 560280, Note_on_c, 0, 55, 96
3, 560340, Note_on_c, 0, 52, 96
3, 560400, Note_on_c, 0, 52, 0
3, 560400, Note_on_c, 0, 55, 0
3, 560400, Note_on_c, 0, 54, 96
3, 560400, Note_on_c, 0, 51, 96
3, 560520, Note_on_c, 0, 51, 0
3, 560520, Note_on_c, 0, 54, 0
3, 560520, Note_on_c, 0, 53, 96
3, 560520, Note_on_c, 0, 50, 96
3, 560640, Note_on_c, 0, 50, 0
3, 560640, Note_on_c, 0, 53, 0
3, 560640, Note_on_c, 0, 52, 96
3, 560640, Note_on_c, 0, 49, 96
3, 560760, Note_on_c, 0, 49, 0
3, 560760, Note_on_c, 0, 48, 96
3, 560880, Note_on_c, 0, 48, 0
3, 560880, Note_on_c, 0, 47, 96
3, 560940, Note_on_c, 0, 47, 0
3, 560940, Note_on_c, 0, 45, 96
3, 561000, Note_on_c, 0, 45, 0
3, 561000, Note_on_c, 0, 52, 0
3, 561000, Note_on_c, 0, 51, 96
3, 561000, Note_on_c, 0, 47, 96
3, 561120, Note_on_c, 0, 47, 0
3, 561120, Note_on_c, 0, 51, 0
3, 561120, Note_on_c, 0, 52, 96
3, 561120, Note_on_c, 0, 40, 96
3, 561240, Note_on_c, 0, 40, 0
3, 561240, Note_on_c, 0, 52, 0
3, 561240, Note_on_c, 0, 64, 96
3, 561480, Note_on_c, 0, 64, 0
3, 561480, Note_on_c, 0, 63, 96
3, 561600, Note_on_c, 0, 63, 0
3, 561600, Note_on_c, 0, 64, 96
3, 561720, Note_on_c, 0, 64, 0
3, 561720, Note_on_c, 0, 56, 96
3, 561720, Note_on_c, 0, 52, 96
3, 561840, Note_on_c, 0, 52, 0
3, 561840, Note_on_c, 0, 56, 0
3, 561840, Note_on_c, 0, 57, 96
3, 561840, Note_on_c, 0, 53, 96
3, 561960, Note_on_c, 0, 53, 0
3, 561960, Note_on_c, 0, 57, 0
3, 561960, Note_on_c, 0, 54, 96
3, 562080, Note_on_c, 0, 54, 0
3, 562080, Note_on_c, 0, 55, 96
3, 562200, Note_on_c, 0, 55, 0
3, 562200, Note_on_c, 0, 56, 96
3, 562320, Note_on_c, 0, 56, 0
3, 562320, Note_on_c, 0, 57, 96
3, 562440, Note_on_c, 0, 57, 0
3, 562440, Note_on_c, 0, 64, 96
3, 562560, Note_on_c, 0, 64, 0
3, 562560, Note_on_c, 0, 65, 96
3, 562680, Note_on_c, 0, 65, 0
3, 562680, Note_on_c, 0, 66, 96
3, 562680, Note_on_c, 0, 57, 96
3, 562800, Note_on_c, 0, 57, 0
3, 562800, Note_on_c, 0, 66, 0
3, 562800, Note_on_c, 0, 67, 96
3, 562800, Note_on_c, 0, 58, 96
3, 562920, Note_on_c, 0, 58, 0
3, 562920, Note_on_c, 0, 67, 0
3, 562920, Note_on_c, 0, 68, 96
3, 562920, Note_on_c, 0, 59, 96
3, 563040, Note_on_c, 0, 59, 0
3, 563040, Note_on_c, 0, 68, 0
3, 563040, Note_on_c, 0, 69, 96
3, 563040, Note_on_c, 0, 60, 96
3, 563160, Note_on_c, 0, 60, 0
3, 563160, Note_on_c, 0, 61, 96
3, 563280, Note_on_c, 0, 61, 0
3, 563280, Note_on_c, 0, 62, 96
3, 563340, Note_on_c, 0, 69, 0
3, 563340, Note_on_c, 0, 65, 96
3, 563400, Note_on_c, 0, 65, 0
3, 563400, Note_on_c, 0, 67, 96
3, 563460, Note_on_c, 0, 67, 0
3, 563460, Note_on_c, 0, 67, 96
3, 563520, Note_on_c, 0, 67, 0
3, 563520, Note_on_c, 0, 67, 96
3, 563580, Note_on_c, 0, 67, 0
3, 563580, Note_on_c, 0, 64, 96
3, 563640, Note_on_c, 0, 64, 0
3, 563640, Note_on_c, 0, 62, 0
3, 563640, Note_on_c, 0, 65, 96
3, 563640, Note_on_c, 0, 62, 96
3, 563700, Note_on_c, 0, 62, 0
3, 563700, Note_on_c, 0, 65, 0
3, 563700, Note_on_c, 0, 65, 96
3, 563700, Note_on_c, 0, 62, 96
3, 563760, Note_on_c, 0, 62, 0
3, 563760, Note_on_c, 0, 65, 0
3, 563760, Note_on_c, 0, 65, 96
3, 563760, Note_on_c, 0, 62, 96
3, 563820, Note_on_c, 0, 62, 0
3, 563820, Note_on_c, 0, 65, 0
3, 563820, Note_on_c, 0, 62, 96
3, 563820, Note_on_c, 0, 59, 96
3, 563880, Note_on_c, 0, 59, 0
3, 563880, Note_on_c, 0, 62, 0
3, 563880, Note_on_c, 0, 64, 96
3, 563880, Note_on_c, 0, 60, 96
3, 563940, Note_on_c, 0, 60, 0
3, 563940, Note_on_c, 0, 64, 0
3, 563940, Note_on_c, 0, 64, 96
3, 563940, Note_on_c, 0, 60, 96
3, 564000, Note_on_c, 0, 60, 0
3, 564000, Note_on_c, 0, 64, 0
3, 564000, Note_on_c, 0, 64, 96
3, 564000, Note_on_c, 0, 60, 96
3, 564060, Note_on_c, 0, 60, 0
3, 564060, Note_on_c, 0, 64, 0
3, 564060, Note_on_c, 0, 60, 96
3, 564060, Note_on_c, 0, 57, 96
3, 564120, Note_on_c, 0, 57, 0
3, 564120, Note_on_c, 0, 60, 0
3, 564120, Note_on_c, 0, 62, 96
3, 564120, Note_on_c, 0, 59, 96
3, 564180, Note_on_c, 0, 59, 0
3, 564180, Note_on_c, 0, 62, 0
3, 564180, Note_on_c, 0, 62, 96
3, 564180, Note_on_c, 0, 59, 96
3, 564240, Note_on_c, 0, 59, 0
3, 564240, Note_on_c, 0, 62, 0
3, 564240, Note_on_c, 0, 62, 96
3, 564240, Note_on_c, 0, 59, 96
3, 564300, Note_on_c, 0, 59, 0
3, 564300, Note_on_c, 0, 56, 96
3, 564360, Note_on_c, 0, 56, 0
3, 564360, Note_on_c, 0, 57, 96
3, 564420, Note_on_c, 0, 57, 0
3, 564420, Note_on_c, 0, 57, 96
3, 564480, Note_on_c, 0, 57, 0
3, 564480, Note_on_c, 0, 56, 96
3, 564600, Note_on_c, 0, 56, 0
3, 564600, Note_on_c, 0, 62, 0
3, 564600, Note_on_c, 0, 60, 96
3, 564600, Note_on_c, 0, 57, 96
3, 564720, Note_on_c, 0, 57, 0
3, 564720, Note_on_c, 0, 60, 0
3, 564720, Note_on_c, 0, 65, 96
3, 564720, Note_on_c, 0, 50, 96
3, 564840, Note_on_c, 0, 50, 0
3, 564840, Note_on_c, 0, 65, 0
3, 564840, Note_on_c, 0, 59, 96
3, 564840, Note_on_c, 0, 52, 96
3, 564960, Note_on_c, 0, 52, 0
3, 564960, Note_on_c, 0, 59, 0
3, 564960, Note_on_c, 0, 60, 96
3, 564960, Note_on_c, 0, 45, 96
3, 565020, Note_on_c, 0, 60, 0
3, 565020, Note_on_c, 0, 62, 96
3, 565080, Note_on_c, 0, 62, 0
3, 565080, Note_on_c, 0, 64, 96
3, 565140, Note_on_c, 0, 64, 0
3, 565140, Note_on_c, 0, 64, 96
3, 565200, Note_on_c, 0, 64, 0
3, 565200, Note_on_c, 0, 64, 96
3, 565260, Note_on_c, 0, 64, 0
3, 565260, Note_on_c, 0, 61, 96
3, 565320, Note_on_c, 0, 61, 0
3, 565320, Note_on_c, 0, 62, 96
3, 565380, Note_on_c, 0, 62, 0
3, 565380, Note_on_c, 0, 62, 96
3, 565440, Note_on_c, 0, 62, 0
3, 565440, Note_on_c, 0, 62, 96
3, 565500, Note_on_c, 0, 62, 0
3, 565500, Note_on_c, 0, 59, 96
3, 565560, Note_on_c, 0, 59, 0
3, 565560, Note_on_c, 0, 45, 0
3, 565560, Note_on_c, 0, 60, 96
3, 565560, Note_on_c, 0, 57, 96
3, 565620, Note_on_c, 0, 57, 0
3, 565620, Note_on_c, 0, 60, 0
3, 565620, Note_on_c, 0, 60, 96
3, 565620, Note_on_c, 0, 57, 96
3, 565680, Note_on_c, 0, 57, 0
3, 565680, Note_on_c, 0, 60, 0
3, 565680, Note_on_c, 0, 62, 96
3, 565680, Note_on_c, 0, 57, 96
3, 565740, Note_on_c, 0, 57, 0
3, 565740, Note_on_c, 0, 62, 0
3, 565740, Note_on_c, 0, 65, 96
3, 565740, Note_on_c, 0, 53, 96
3, 565800, Note_on_c, 0, 53, 0
3, 565800, Note_on_c, 0, 65, 0
3, 565800, Note_on_c, 0, 58, 96
3, 565800, Note_on_c, 0, 55, 96
3, 565860, Note_on_c, 0, 55, 0
3, 565860, Note_on_c, 0, 58, 0
3, 565860, Note_on_c, 0, 58, 96
3, 565860, Note_on_c, 0, 55, 96
3, 565920, Note_on_c, 0, 55, 0
3, 565920, Note_on_c, 0, 58, 0
3, 565920, Note_on_c, 0, 58, 96
3, 565920, Note_on_c, 0, 55, 96
3, 565980, Note_on_c, 0, 55, 0
3, 565980, Note_on_c, 0, 58, 0
3, 565980, Note_on_c, 0, 55, 96
3, 565980, Note_on_c, 0, 52, 96
3, 566040, Note_on_c, 0, 52, 0
3, 566040, Note_on_c, 0, 55, 0
3, 566040, Note_on_c, 0, 57, 96
3, 566040, Note_on_c, 0, 53, 96
3, 566100, Note_on_c, 0, 53, 0
3, 566100, Note_on_c, 0, 57, 0
3, 566100, Note_on_c, 0, 57, 96
3, 566100, Note_on_c, 0, 53, 96
3, 566160, Note_on_c, 0, 53, 0
3, 566160, Note_on_c, 0, 57, 0
3, 566160, Note_on_c, 0, 57, 96
3, 566160, Note_on_c, 0, 53, 96
3, 566220, Note_on_c, 0, 53, 0
3, 566220, Note_on_c, 0, 57, 0
3, 566220, Note_on_c, 0, 53, 96
3, 566220, Note_on_c, 0, 50, 96
3, 566280, Note_on_c, 0, 50, 0
3, 566280, Note_on_c, 0, 53, 0
3, 566280, Note_on_c, 0, 55, 96
3, 566280, Note_on_c, 0, 52, 96
3, 566340, Note_on_c, 0, 52, 0
3, 566340, Note_on_c, 0, 55, 0
3, 566340, Note_on_c, 0, 55, 96
3, 566340, Note_on_c, 0, 52, 96
3, 566400, Note_on_c, 0, 52, 0
3, 566400, Note_on_c, 0, 55, 0
3, 566400, Note_on_c, 0, 55, 96
3, 566400, Note_on_c, 0, 52, 96
3, 566460, Note_on_c, 0, 52, 0
3, 566460, Note_on_c, 0, 55, 0
3, 566460, Note_on_c, 0, 52, 96
3, 566460, Note_on_c, 0, 49, 96
3, 566520, Note_on_c, 0, 49, 0
3, 566520, Note_on_c, 0, 52, 0
3, 566520, Note_on_c, 0, 53, 96
3, 566520, Note_on_c, 0, 50, 96
3, 566640, Note_on_c, 0, 50, 0
3, 566640, Note_on_c, 0, 53, 0
3, 566640, Note_on_c, 0, 57, 96
3, 566760, Note_on_c, 0, 57, 0
3, 566760, Note_on_c, 0, 58, 96
3, 566760, Note_on_c, 0, 55, 96
3, 566880, Note_on_c, 0, 55, 0
3, 566880, Note_on_c, 0, 58, 0
3, 566880, Note_on_c, 0, 57, 96
3, 567000, Note_on_c, 0, 53, 96
3, 567120, Note_on_c, 0, 53, 0
3, 567120, Note_on_c, 0, 57, 0
3, 567120, Note_on_c, 0, 55, 96
3, 567120, Note_on_c, 0, 52, 96
3, 567240, Note_on_c, 0, 52, 0
3, 567240, Note_on_c, 0, 50, 96
3, 567360, Note_on_c, 0, 50, 0
3, 567480, Note_on_c, 0, 55, 0
3, 567480, Note_on_c, 0, 52, 96
3, 567480, Note_on_c, 0, 49, 96
3, 567600, Note_on_c, 0, 49, 0
3, 567600, Note_on_c, 0, 52, 0
3, 567600, Note_on_c, 0, 53, 96
3, 567600, Note_on_c, 0, 50, 96
3, 567720, Note_on_c, 0, 50, 0
3, 567720, Note_on_c, 0, 53, 0
3, 567720, Note_on_c, 0, 55, 96
3, 567720, Note_on_c, 0, 52, 96
3, 567840, Note_on_c, 0, 52, 0
3, 567840, Note_on_c, 0, 55, 0
3, 567840, Note_on_c, 0, 57, 96
3, 567960, Note_on_c, 0, 53, 96
3, 568020, Note_on_c, 0, 53, 0
3, 568020, Note_on_c, 0, 57, 0
3, 568020, Note_on_c, 0, 58, 96
3, 568020, Note_on_c, 0, 55, 96
3, 568080, Note_on_c, 0, 55, 0
3, 568080, Note_on_c, 0, 58, 0
3, 568080, Note_on_c, 0, 58, 96
3, 568080, Note_on_c, 0, 53, 96
3, 568140, Note_on_c, 0, 58, 0
3, 568140, Note_on_c, 0, 57, 96
3, 568200, Note_on_c, 0, 57, 0
3, 568200, Note_on_c, 0, 53, 0
3, 568200, Note_on_c, 0, 58, 96
3, 568200, Note_on_c, 0, 52, 96
3, 568260, Note_on_c, 0, 58, 0
3, 568260, Note_on_c, 0, 55, 96
3, 568320, Note_on_c, 0, 55, 0
3, 568320, Note_on_c, 0, 52, 0
3, 568320, Note_on_c, 0, 57, 96
3, 568320, Note_on_c, 0, 50, 96
3, 568380, Note_on_c, 0, 50, 0
3, 568380, Note_on_c, 0, 49, 96
3, 568440, Note_on_c, 0, 49, 0
3, 568440, Note_on_c, 0, 50, 96
3, 568500, Note_on_c, 0, 50, 0
3, 568500, Note_on_c, 0, 52, 96
3, 568560, Note_on_c, 0, 52, 0
3, 568560, Note_on_c, 0, 57, 0
3, 568560, Note_on_c, 0, 53, 96
3, 568680, Note_on_c, 0, 53, 0
3, 568680, Note_on_c, 0, 57, 96
3, 568680, Note_on_c, 0, 54, 96
3, 568800, Note_on_c, 0, 54, 0
3, 568800, Note_on_c, 0, 57, 0
3, 568800, Note_on_c, 0, 58, 96
3, 568800, Note_on_c, 0, 55, 96
3, 568920, Note_on_c, 0, 55, 0
3, 568920, Note_on_c, 0, 58, 0
3, 568920, Note_on_c, 0, 53, 96
3, 568920, Note_on_c, 0, 50, 96
3, 569040, Note_on_c, 0, 50, 0
3, 569040, Note_on_c, 0, 53, 0
3, 569040, Note_on_c, 0, 60, 96
3, 569040, Note_on_c, 0, 57, 96
3, 569160, Note_on_c, 0, 60, 0
3, 569160, Note_on_c, 0, 61, 96
3, 569280, Note_on_c, 0, 61, 0
3, 569280, Note_on_c, 0, 62, 96
3, 569400, Note_on_c, 0, 62, 0
3, 569400, Note_on_c, 0, 57, 96
3, 569520, Note_on_c, 0, 57, 0
3, 569520, Note_on_c, 0, 64, 96
3, 569760, Note_on_c, 0, 64, 0
3, 569760, Note_on_c, 0, 65, 96
3, 569880, Note_on_c, 0, 65, 0
3, 569880, Note_on_c, 0, 64, 96
3, 570000, Note_on_c, 0, 64, 0
3, 570000, Note_on_c, 0, 62, 96
3, 570060, Note_on_c, 0, 62, 0
3, 570060, Note_on_c, 0, 64, 96
3, 570120, Note_on_c, 0, 64, 0
3, 570120, Note_on_c, 0, 62, 96
3, 570240, Note_on_c, 0, 62, 0
3, 570240, Note_on_c, 0, 69, 96
3, 570300, Note_on_c, 0, 69, 0
3, 570300, Note_on_c, 0, 64, 96
3, 570360, Note_on_c, 0, 64, 0
3, 570360, Note_on_c, 0, 57, 0
3, 570360, Note_on_c, 0, 69, 96
3, 570420, Note_on_c, 0, 69, 0
3, 570420, Note_on_c, 0, 69, 96
3, 570480, Note_on_c, 0, 69, 0
3, 570480, Note_on_c, 0, 69, 96
3, 570540, Note_on_c, 0, 69, 0
3, 570540, Note_on_c, 0, 66, 96
3, 570600, Note_on_c, 0, 66, 0
3, 570600, Note_on_c, 0, 67, 96
3, 570660, Note_on_c, 0, 67, 0
3, 570660, Note_on_c, 0, 67, 96
3, 570720, Note_on_c, 0, 67, 0
3, 570720, Note_on_c, 0, 67, 96
3, 570780, Note_on_c, 0, 67, 0
3, 570780, Note_on_c, 0, 64, 96
3, 570840, Note_on_c, 0, 64, 0
3, 570840, Note_on_c, 0, 65, 96
3, 570840, Note_on_c, 0, 50, 96
3, 570900, Note_on_c, 0, 65, 0
3, 570900, Note_on_c, 0, 65, 96
3, 570960, Note_on_c, 0, 65, 0
3, 570960, Note_on_c, 0, 65, 96
3, 571020, Note_on_c, 0, 65, 0
3, 571020, Note_on_c, 0, 50, 0
3, 571020, Note_on_c, 0, 68, 96
3, 571020, Note_on_c, 0, 53, 96
3, 571080, Note_on_c, 0, 53, 0
3, 571080, Note_on_c, 0, 68, 0
3, 571080, Note_on_c, 0, 67, 96
3, 571080, Note_on_c, 0, 52, 96
3, 571140, Note_on_c, 0, 52, 0
3, 571140, Note_on_c, 0, 67, 0
3, 571140, Note_on_c, 0, 67, 96
3, 571140, Note_on_c, 0, 52, 96
3, 571200, Note_on_c, 0, 52, 0
3, 571200, Note_on_c, 0, 67, 0
3, 571200, Note_on_c, 0, 67, 96
3, 571200, Note_on_c, 0, 52, 96
3, 571260, Note_on_c, 0, 52, 0
3, 571260, Note_on_c, 0, 67, 0
3, 571260, Note_on_c, 0, 70, 96
3, 571260, Note_on_c, 0, 55, 96
3, 571320, Note_on_c, 0, 55, 0
3, 571320, Note_on_c, 0, 70, 0
3, 571320, Note_on_c, 0, 69, 96
3, 571320, Note_on_c, 0, 54, 96
3, 571380, Note_on_c, 0, 54, 0
3, 571380, Note_on_c, 0, 54, 96
3, 571440, Note_on_c, 0, 54, 0
3, 571440, Note_on_c, 0, 69, 0
3, 571440, Note_on_c, 0, 60, 96
3, 571440, Note_on_c, 0, 54, 96
3, 571500, Note_on_c, 0, 54, 0
3, 571500, Note_on_c, 0, 57, 96
3, 571560, Note_on_c, 0, 57, 0
3, 571560, Note_on_c, 0, 55, 96
3, 571620, Note_on_c, 0, 55, 0
3, 571620, Note_on_c, 0, 55, 96
3, 571680, Note_on_c, 0, 55, 0
3, 571680, Note_on_c, 0, 60, 0
3, 571680, Note_on_c, 0, 58, 96
3, 571680, Note_on_c, 0, 55, 96
3, 571740, Note_on_c, 0, 55, 0
3, 571740, Note_on_c, 0, 58, 96
3, 571800, Note_on_c, 0, 58, 0
3, 571800, Note_on_c, 0, 58, 0
3, 571800, Note_on_c, 0, 57, 96
3, 571860, Note_on_c, 0, 57, 0
3, 571860, Note_on_c, 0, 57, 96
3, 571920, Note_on_c, 0, 57, 0
3, 571920, Note_on_c, 0, 57, 96
3, 572040, Note_on_c, 0, 67, 96
3, 572160, Note_on_c, 0, 67, 0
3, 572160, Note_on_c, 0, 66, 96
3, 572220, Note_on_c, 0, 57, 0
3, 572220, Note_on_c, 0, 54, 96
3, 572280, Note_on_c, 0, 54, 0
3, 572280, Note_on_c, 0, 66, 0
3, 572280, Note_on_c, 0, 64, 96
3, 572280, Note_on_c, 0, 55, 96
3, 572340, Note_on_c, 0, 55, 0
3, 572340, Note_on_c, 0, 55, 96
3, 572400, Note_on_c, 0, 55, 0
3, 572400, Note_on_c, 0, 55, 96
3, 572460, Note_on_c, 0, 55, 0
3, 572460, Note_on_c, 0, 52, 96
3, 572520, Note_on_c, 0, 52, 0
3, 572520, Note_on_c, 0, 64, 0
3, 572520, Note_on_c, 0, 62, 96
3, 572520, Note_on_c, 0, 53, 96
3, 572580, Note_on_c, 0, 53, 0
3, 572580, Note_on_c, 0, 53, 96
3, 572640, Note_on_c, 0, 53, 0
3, 572640, Note_on_c, 0, 53, 96
3, 572700, Note_on_c, 0, 53, 0
3, 572700, Note_on_c, 0, 50, 96
3, 572760, Note_on_c, 0, 50, 0
3, 572760, Note_on_c, 0, 62, 0
3, 572760, Note_on_c, 0, 51, 96
3, 572820, Note_on_c, 0, 51, 0
3, 572820, Note_on_c, 0, 53, 96
3, 572880, Note_on_c, 0, 53, 0
3, 572880, Note_on_c, 0, 55, 96
3, 573000, Note_on_c, 0, 55, 0
3, 573000, Note_on_c, 0, 43, 96
3, 573120, Note_on_c, 0, 43, 0
3, 573120, Note_on_c, 0, 48, 96
3, 573240, Note_on_c, 0, 52, 96
3, 573360, Note_on_c, 0, 52, 0
3, 573360, Note_on_c, 0, 48, 0
3, 573360, Note_on_c, 0, 59, 96
3, 573480, Note_on_c, 0, 59, 0
3, 573480, Note_on_c, 0, 57, 96
3, 573480, Note_on_c, 0, 53, 96
3, 573600, Note_on_c, 0, 53, 0
3, 573600, Note_on_c, 0, 57, 0
3, 573600, Note_on_c, 0, 52, 96
3, 573720, Note_on_c, 0, 55, 96
3, 573840, Note_on_c, 0, 55, 0
3, 573840, Note_on_c, 0, 52, 0
3, 573840, Note_on_c, 0, 54, 96
3, 573840, Note_on_c, 0, 51, 96
3, 573960, Note_on_c, 0, 51, 0
3, 573960, Note_on_c, 0, 54, 0
3, 573960, Note_on_c, 0, 52, 96
3, 573960, Note_on_c, 0, 57, 96
3, 574080, Note_on_c, 0, 57, 0
3, 574080, Note_on_c, 0, 52, 0
3, 574080, Note_on_c, 0, 55, 96
3, 574200, Note_on_c, 0, 55, 0
3, 574200, Note_on_c, 0, 51, 96
3, 574200, Note_on_c, 0, 48, 96
3, 574320, Note_on_c, 0, 51, 0
3, 574320, Note_on_c, 0, 52, 96
3, 574440, Note_on_c, 0, 52, 0
3, 574440, Note_on_c, 0, 48, 0
3, 574440, Note_on_c, 0, 54, 96
3, 574440, Note_on_c, 0, 47, 96
3, 574500, Note_on_c, 0, 47, 0
3, 574500, Note_on_c, 0, 45, 96
3, 574560, Note_on_c, 0, 45, 0
3, 574560, Note_on_c, 0, 54, 0
3, 574560, Note_on_c, 0, 43, 96
3, 574680, Note_on_c, 0, 43, 0
3, 574680, Note_on_c, 0, 55, 96
3, 574680, Note_on_c, 0, 48, 96
3, 574740, Note_on_c, 0, 55, 0
3, 574740, Note_on_c, 0, 57, 96
3, 574800, Note_on_c, 0, 57, 0
3, 574800, Note_on_c, 0, 48, 0
3, 574800, Note_on_c, 0, 55, 96
3, 574800, Note_on_c, 0, 45, 96
3, 574920, Note_on_c, 0, 45, 0
3, 574920, Note_on_c, 0, 55, 0
3, 574920, Note_on_c, 0, 54, 96
3, 574920, Note_on_c, 0, 47, 96
3, 575040, Note_on_c, 0, 47, 0
3, 575040, Note_on_c, 0, 54, 0
3, 575040, Note_on_c, 0, 52, 96
3, 575040, Note_on_c, 0, 44, 96
3, 575160, Note_on_c, 0, 44, 0
3, 575160, Note_on_c, 0, 45, 96
3, 575280, Note_on_c, 0, 45, 0
3, 575280, Note_on_c, 0, 52, 0
3, 575280, Note_on_c, 0, 40, 96
3, 575400, Note_on_c, 0, 40, 0
3, 575400, Note_on_c, 0, 64, 96
3, 575580, Note_on_c, 0, 64, 0
3, 575580, Note_on_c, 0, 61, 96
3, 575640, Note_on_c, 0, 61, 0
3, 575640, Note_on_c, 0, 62, 96
3, 575700, Note_on_c, 0, 62, 0
3, 575700, Note_on_c, 0, 62, 96
3, 575760, Note_on_c, 0, 62, 0
3, 575760, Note_on_c, 0, 62, 96
3, 575820, Note_on_c, 0, 62, 0
3, 575820, Note_on_c, 0, 59, 96
3, 575880, Note_on_c, 0, 59, 0
3, 575880, Note_on_c, 0, 60, 96
3, 575880, Note_on_c, 0, 57, 96
3, 575940, Note_on_c, 0, 60, 0
3, 575940, Note_on_c, 0, 60, 96
3, 576000, Note_on_c, 0, 60, 0
3, 576000, Note_on_c, 0, 59, 96
3, 576060, Note_on_c, 0, 57, 0
3, 576060, Note_on_c, 0, 54, 96
3, 576120, Note_on_c, 0, 54, 0
3, 576120, Note_on_c, 0, 59, 0
3, 576120, Note_on_c, 0, 58, 96
3, 576120, Note_on_c, 0, 55, 96
3, 576180, Note_on_c, 0, 55, 0
3, 576180, Note_on_c, 0, 55, 96
3, 576240, Note_on_c, 0, 55, 0
3, 576240, Note_on_c, 0, 58, 0
3, 576240, Note_on_c, 0, 57, 96
3, 576240, Note_on_c, 0, 55, 96
3, 576300, Note_on_c, 0, 55, 0
3, 576300, Note_on_c, 0, 52, 96
3, 576360, Note_on_c, 0, 52, 0
3, 576360, Note_on_c, 0, 54, 96
3, 576420, Note_on_c, 0, 57, 0
3, 576420, Note_on_c, 0, 60, 96
3, 576480, Note_on_c, 0, 60, 0
3, 576480, Note_on_c, 0, 54, 0
3, 576480, Note_on_c, 0, 58, 96
3, 576480, Note_on_c, 0, 55, 96
3, 576540, Note_on_c, 0, 58, 0
3, 576540, Note_on_c, 0, 57, 96
3, 576600, Note_on_c, 0, 57, 0
3, 576600, Note_on_c, 0, 55, 0
3, 576600, Note_on_c, 0, 58, 96
3, 576600, Note_on_c, 0, 49, 96
3, 576720, Note_on_c, 0, 49, 0
3, 576720, Note_on_c, 0, 58, 0
3, 576840, Note_on_c, 0, 57, 96
3, 576840, Note_on_c, 0, 50, 96
3, 576900, Note_on_c, 0, 57, 0
3, 576900, Note_on_c, 0, 59, 96
3, 576960, Note_on_c, 0, 59, 0
3, 576960, Note_on_c, 0, 50, 0
3, 576960, Note_on_c, 0, 61, 96
3, 576960, Note_on_c, 0, 57, 96
3, 577020, Note_on_c, 0, 61, 0
3, 577020, Note_on_c, 0, 59, 96
3, 577080, Note_on_c, 0, 59, 0
3, 577080, Note_on_c, 0, 57, 0
3, 577080, Note_on_c, 0, 61, 96
3, 577080, Note_on_c, 0, 58, 96
3, 577200, Note_on_c, 0, 58, 0
3, 577200, Note_on_c, 0, 61, 0
3, 577320, Note_on_c, 0, 60, 96
3, 577320, Note_on_c, 0, 54, 96
3, 577440, Note_on_c, 0, 54, 0
3, 577440, Note_on_c, 0, 60, 0
3, 577440, Note_on_c, 0, 59, 96
3, 577440, Note_on_c, 0, 53, 96
3, 577500, Note_on_c, 0, 59, 0
3, 577500, Note_on_c, 0, 62, 96
3, 577560, Note_on_c, 0, 62, 0
3, 577560, Note_on_c, 0, 53, 0
3, 577560, Note_on_c, 0, 60, 96
3, 577560, Note_on_c, 0, 52, 96
3, 577620, Note_on_c, 0, 60, 0
3, 577620, Note_on_c, 0, 60, 96
3, 577680, Note_on_c, 0, 60, 0
3, 577680, Note_on_c, 0, 52, 0
3, 577680, Note_on_c, 0, 60, 96
3, 577800, Note_on_c, 0, 51, 96
3, 577920, Note_on_c, 0, 51, 0
3, 577920, Note_on_c, 0, 50, 96
3, 577980, Note_on_c, 0, 60, 0
3, 577980, Note_on_c, 0, 57, 96
3, 578040, Note_on_c, 0, 57, 0
3, 578040, Note_on_c, 0, 50, 0
3, 578040, Note_on_c, 0, 58, 96
3, 578040, Note_on_c, 0, 49, 96
3, 578100, Note_on_c, 0, 58, 0
3, 578100, Note_on_c, 0, 58, 96
3, 578160, Note_on_c, 0, 58, 0
3, 578160, Note_on_c, 0, 49, 0
3, 578160, Note_on_c, 0, 58, 96
3, 578220, Note_on_c, 0, 58, 0
3, 578220, Note_on_c, 0, 55, 96
3, 578280, Note_on_c, 0, 55, 0
3, 578280, Note_on_c, 0, 57, 96
3, 578280, Note_on_c, 0, 48, 96
3, 578340, Note_on_c, 0, 57, 0
3, 578340, Note_on_c, 0, 57, 96
3, 578400, Note_on_c, 0, 57, 0
3, 578400, Note_on_c, 0, 48, 0
3, 578400, Note_on_c, 0, 57, 96
3, 578400, Note_on_c, 0, 47, 96
3, 578460, Note_on_c, 0, 57, 0
3, 578460, Note_on_c, 0, 54, 96
3, 578520, Note_on_c, 0, 54, 0
3, 578520, Note_on_c, 0, 47, 0
3, 578520, Note_on_c, 0, 55, 96
3, 578520, Note_on_c, 0, 46, 96
3, 578580, Note_on_c, 0, 55, 0
3, 578580, Note_on_c, 0, 55, 96
3, 578640, Note_on_c, 0, 55, 0
3, 578640, Note_on_c, 0, 55, 96
3, 578700, Note_on_c, 0, 55, 0
3, 578700, Note_on_c, 0, 52, 96
3, 578760, Note_on_c, 0, 52, 0
3, 578760, Note_on_c, 0, 46, 0
3, 578760, Note_on_c, 0, 53, 96
3, 578760, Note_on_c, 0, 45, 96
3, 578820, Note_on_c, 0, 45, 0
3, 578820, Note_on_c, 0, 53, 0
3, 578820, Note_on_c, 0, 53, 96
3, 578820, Note_on_c, 0, 44, 96
3, 578880, Note_on_c, 0, 44, 0
3, 578880, Note_on_c, 0, 53, 0
3, 578880, Note_on_c, 0, 52, 96
3, 578880, Note_on_c, 0, 45, 96
3, 578940, Note_on_c, 0, 52, 0
3, 578940, Note_on_c, 0, 57, 96
3, 579000, Note_on_c, 0, 57, 0
3, 579000, Note_on_c, 0, 45, 0
3, 579000, Note_on_c, 0, 61, 96
3, 579060, Note_on_c, 0, 55, 96
3, 579120, Note_on_c, 0, 55, 0
3, 579120, Note_on_c, 0, 61, 0
3, 579120, Note_on_c, 0, 53, 96
3, 579180, Note_on_c, 0, 53, 0
3, 579180, Note_on_c, 0, 52, 96
3, 579240, Note_on_c, 0, 52, 0
3, 579240, Note_on_c, 0, 70, 96
3, 579240, Note_on_c, 0, 50, 96
3, 579300, Note_on_c, 0, 50, 0
3, 579300, Note_on_c, 0, 49, 96
3, 579360, Note_on_c, 0, 49, 0
3, 579360, Note_on_c, 0, 50, 96
3, 579420, Note_on_c, 0, 70, 0
3, 579420, Note_on_c, 0, 69, 96
3, 579480, Note_on_c, 0, 69, 0
3, 579480, Note_on_c, 0, 50, 0
3, 579480, Note_on_c, 0, 74, 96
3, 579540, Note_on_c, 0, 50, 96
3, 579600, Note_on_c, 0, 50, 0
3, 579600, Note_on_c, 0, 52, 96
3, 579660, Note_on_c, 0, 74, 0
3, 579660, Note_on_c, 0, 72, 96
3, 579720, Note_on_c, 0, 72, 0
3, 579720, Note_on_c, 0, 52, 0
3, 579720, Note_on_c, 0, 70, 96
3, 579720, Note_on_c, 0, 54, 96
3, 579780, Note_on_c, 0, 70, 0
3, 579780, Note_on_c, 0, 69, 96
3, 579840, Note_on_c, 0, 69, 0
3, 579840, Note_on_c, 0, 54, 0
3, 579840, Note_on_c, 0, 70, 96
3, 579840, Note_on_c, 0, 55, 96
3, 579900, Note_on_c, 0, 55, 0
3, 579900, Note_on_c, 0, 53, 96
3, 579960, Note_on_c, 0, 53, 0
3, 579960, Note_on_c, 0, 70, 0
3, 579960, Note_on_c, 0, 52, 96
3, 580020, Note_on_c, 0, 52, 0
3, 580020, Note_on_c, 0, 55, 96
3, 580080, Note_on_c, 0, 55, 0
3, 580080, Note_on_c, 0, 53, 96
3, 580140, Note_on_c, 0, 57, 96
3, 580200, Note_on_c, 0, 57, 0
3, 580200, Note_on_c, 0, 61, 96
3, 580260, Note_on_c, 0, 61, 0
3, 580260, Note_on_c, 0, 57, 96
3, 580320, Note_on_c, 0, 57, 0
3, 580320, Note_on_c, 0, 62, 96
3, 580380, Note_on_c, 0, 53, 0
3, 580380, Note_on_c, 0, 53, 96
3, 580440, Note_on_c, 0, 53, 0
3, 580440, Note_on_c, 0, 58, 96
3, 580500, Note_on_c, 0, 62, 0
3, 580500, Note_on_c, 0, 61, 96
3, 580560, Note_on_c, 0, 61, 0
3, 580560, Note_on_c, 0, 62, 96
3, 580620, Note_on_c, 0, 58, 0
3, 580620, Note_on_c, 0, 57, 96
3, 580680, Note_on_c, 0, 57, 0
3, 580680, Note_on_c, 0, 55, 96
3, 580740, Note_on_c, 0, 62, 0
3, 580740, Note_on_c, 0, 60, 96
3, 580800, Note_on_c, 0, 55, 0
3, 580800, Note_on_c, 0, 54, 96
3, 580860, Note_on_c, 0, 60, 0
3, 580860, Note_on_c, 0, 57, 96
3, 580920, Note_on_c, 0, 57, 0
3, 580920, Note_on_c, 0, 54, 0
3, 580920, Note_on_c, 0, 58, 96
3, 580980, Note_on_c, 0, 58, 0
3, 580980, Note_on_c, 0, 58, 96
3, 580980, Note_on_c, 0, 50, 96
3, 581040, Note_on_c, 0, 50, 0
3, 581040, Note_on_c, 0, 58, 0
3, 581040, Note_on_c, 0, 58, 96
3, 581040, Note_on_c, 0, 51, 96
3, 581160, Note_on_c, 0, 51, 0
3, 581160, Note_on_c, 0, 52, 96
3, 581280, Note_on_c, 0, 52, 0
3, 581280, Note_on_c, 0, 53, 96
3, 581340, Note_on_c, 0, 58, 0
3, 581340, Note_on_c, 0, 55, 96
3, 581400, Note_on_c, 0, 55, 0
3, 581400, Note_on_c, 0, 53, 0
3, 581400, Note_on_c, 0, 56, 96
3, 581460, Note_on_c, 0, 56, 0
3, 581460, Note_on_c, 0, 56, 96
3, 581460, Note_on_c, 0, 48, 96
3, 581520, Note_on_c, 0, 48, 0
3, 581520, Note_on_c, 0, 56, 0
3, 581520, Note_on_c, 0, 56, 96
3, 581520, Note_on_c, 0, 49, 96
3, 581640, Note_on_c, 0, 49, 0
3, 581640, Note_on_c, 0, 50, 96
3, 581760, Note_on_c, 0, 50, 0
3, 581760, Note_on_c, 0, 51, 96
3, 581820, Note_on_c, 0, 56, 0
3, 581820, Note_on_c, 0, 53, 96
3, 581880, Note_on_c, 0, 53, 0
3, 581880, Note_on_c, 0, 51, 0
3, 581880, Note_on_c, 0, 55, 96
3, 581880, Note_on_c, 0, 58, 96
3, 582000, Note_on_c, 0, 58, 0
3, 582000, Note_on_c, 0, 55, 0
3, 582000, Note_on_c, 0, 62, 96
3, 582000, Note_on_c, 0, 52, 96
3, 582120, Note_on_c, 0, 52, 0
3, 582120, Note_on_c, 0, 62, 0
3, 582120, Note_on_c, 0, 60, 96
3, 582120, Note_on_c, 0, 54, 96
3, 582240, Note_on_c, 0, 54, 0
3, 582240, Note_on_c, 0, 60, 0
3, 582360, Note_on_c, 0, 58, 96
3, 582360, Note_on_c, 0, 55, 96
3, 582480, Note_on_c, 0, 55, 0
3, 582480, Note_on_c, 0, 58, 0
3, 582480, Note_on_c, 0, 57, 96
3, 582480, Note_on_c, 0, 57, 96
3, 582600, Note_on_c, 0, 57, 0
3, 582600, Note_on_c, 0, 57, 0
3, 582600, Note_on_c, 0, 55, 96
3, 582600, Note_on_c, 0, 59, 96
3, 582720, Note_on_c, 0, 59, 0
3, 582720, Note_on_c, 0, 55, 0
3, 582840, Note_on_c, 0, 54, 96
3, 582840, Note_on_c, 0, 60, 96
3, 582960, Note_on_c, 0, 60, 0
3, 582960, Note_on_c, 0, 54, 0
3, 582960, Note_on_c, 0, 55, 96
3, 582960, Note_on_c, 0, 58, 96
3, 583080, Note_on_c, 0, 58, 0
3, 583080, Note_on_c, 0, 55, 0
3, 583080, Note_on_c, 0, 57, 96
3, 583080, Note_on_c, 0, 57, 96
3, 583200, Note_on_c, 0, 57, 0
3, 583200, Note_on_c, 0, 57, 0
3, 583320, Note_on_c, 0, 58, 96
3, 583320, Note_on_c, 0, 55, 96
3, 583380, Note_on_c, 0, 55, 0
3, 583380, Note_on_c, 0, 58, 0
3, 583380, Note_on_c, 0, 60, 96
3, 583380, Note_on_c, 0, 54, 96
3, 583440, Note_on_c, 0, 54, 0
3, 583440, Note_on_c, 0, 60, 0
3, 583440, Note_on_c, 0, 58, 96
3, 583440, Note_on_c, 0, 55, 96
3, 583560, Note_on_c, 0, 55, 0
3, 583560, Note_on_c, 0, 58, 0
3, 583560, Note_on_c, 0, 57, 96
3, 583560, Note_on_c, 0, 57, 96
3, 583680, Note_on_c, 0, 57, 0
3, 583680, Note_on_c, 0, 57, 0
3, 583680, Note_on_c, 0, 55, 96
3, 583680, Note_on_c, 0, 59, 96
3, 583800, Note_on_c, 0, 59, 0
3, 583800, Note_on_c, 0, 55, 0
3, 583800, Note_on_c, 0, 47, 96
3, 583920, Note_on_c, 0, 47, 0
3, 583920, Note_on_c, 0, 48, 96
3, 584040, Note_on_c, 0, 48, 0
3, 584040, Note_on_c, 0, 49, 96
3, 584160, Note_on_c, 0, 49, 0
3, 584160, Note_on_c, 0, 50, 96
3, 584280, Note_on_c, 0, 62, 96
3, 584400, Note_on_c, 0, 50, 0
3, 584460, Note_on_c, 0, 62, 0
3, 584460, Note_on_c, 0, 65, 96
3, 584520, Note_on_c, 0, 65, 0
3, 584520, Note_on_c, 0, 64, 96
3, 584520, Note_on_c, 0, 58, 96
3, 584580, Note_on_c, 0, 64, 0
3, 584580, Note_on_c, 0, 64, 96
3, 584640, Note_on_c, 0, 64, 0
3, 584640, Note_on_c, 0, 64, 96
3, 584700, Note_on_c, 0, 64, 0
3, 584700, Note_on_c, 0, 58, 0
3, 584700, Note_on_c, 0, 67, 96
3, 584700, Note_on_c, 0, 55, 96
3, 584760, Note_on_c, 0, 55, 0
3, 584760, Note_on_c, 0, 67, 0
3, 584760, Note_on_c, 0, 65, 96
3, 584760, Note_on_c, 0, 57, 96
3, 584820, Note_on_c, 0, 57, 0
3, 584820, Note_on_c, 0, 65, 0
3, 584820, Note_on_c, 0, 65, 96
3, 584820, Note_on_c, 0, 57, 96
3, 584880, Note_on_c, 0, 57, 0
3, 584880, Note_on_c, 0, 65, 0
3, 584880, Note_on_c, 0, 65, 96
3, 584880, Note_on_c, 0, 57, 96
3, 584940, Note_on_c, 0, 57, 0
3, 584940, Note_on_c, 0, 65, 0
3, 584940, Note_on_c, 0, 69, 96
3, 584940, Note_on_c, 0, 53, 96
3, 585000, Note_on_c, 0, 53, 0
3, 585000, Note_on_c, 0, 69, 0
3, 585000, Note_on_c, 0, 67, 96
3, 585000, Note_on_c, 0, 55, 96
3, 585060, Note_on_c, 0, 55, 0
3, 585060, Note_on_c, 0, 67, 0
3, 585060, Note_on_c, 0, 67, 96
3, 585060, Note_on_c, 0, 55, 96
3, 585120, Note_on_c, 0, 55, 0
3, 585120, Note_on_c, 0, 67, 0
3, 585120, Note_on_c, 0, 61, 96
3, 585120, Note_on_c, 0, 55, 96
3, 585180, Note_on_c, 0, 55, 0
3, 585180, Note_on_c, 0, 52, 96
3, 585240, Note_on_c, 0, 52, 0
3, 585240, Note_on_c, 0, 61, 0
3, 585240, Note_on_c, 0, 62, 96
3, 585240, Note_on_c, 0, 53, 96
3, 585300, Note_on_c, 0, 53, 0
3, 585300, Note_on_c, 0, 53, 96
3, 585360, Note_on_c, 0, 53, 0
3, 585360, Note_on_c, 0, 62, 0
3, 585360, Note_on_c, 0, 55, 96
3, 585360, Note_on_c, 0, 53, 96
3, 585420, Note_on_c, 0, 53, 0
3, 585420, Note_on_c, 0, 50, 96
3, 585480, Note_on_c, 0, 50, 0
3, 585480, Note_on_c, 0, 52, 96
3, 585540, Note_on_c, 0, 52, 0
3, 585540, Note_on_c, 0, 52, 96
3, 585600, Note_on_c, 0, 52, 0
3, 585600, Note_on_c, 0, 52, 96
3, 585660, Note_on_c, 0, 52, 0
3, 585660, Note_on_c, 0, 49, 96
3, 585720, Note_on_c, 0, 49, 0
3, 585720, Note_on_c, 0, 55, 0
3, 585720, Note_on_c, 0, 53, 96
3, 585720, Note_on_c, 0, 50, 96
3, 585840, Note_on_c, 0, 50, 0
3, 585840, Note_on_c, 0, 53, 0
3, 585840, Note_on_c, 0, 45, 96
3, 585960, Note_on_c, 0, 45, 0
3, 585960, Note_on_c, 0, 62, 96
3, 585960, Note_on_c, 0, 55, 96
3, 586080, Note_on_c, 0, 62, 0
3, 586080, Note_on_c, 0, 61, 96
3, 586200, Note_on_c, 0, 55, 0
3, 586200, Note_on_c, 0, 57, 96
3, 586260, Note_on_c, 0, 57, 0
3, 586260, Note_on_c, 0, 55, 96
3, 586320, Note_on_c, 0, 55, 0
3, 586320, Note_on_c, 0, 61, 0
3, 586320, Note_on_c, 0, 53, 96
3, 586440, Note_on_c, 0, 53, 0
3, 586440, Note_on_c, 0, 62, 96
3, 586440, Note_on_c, 0, 58, 96
3, 586560, Note_on_c, 0, 58, 0
3, 586560, Note_on_c, 0, 62, 0
3, 586560, Note_on_c, 0, 61, 96
3, 586560, Note_on_c, 0, 57, 96
3, 586680, Note_on_c, 0, 61, 0
3, 586680, Note_on_c, 0, 62, 96
3, 586740, Note_on_c, 0, 57, 0
3, 586740, Note_on_c, 0, 55, 96
3, 586800, Note_on_c, 0, 55, 0
3, 586800, Note_on_c, 0, 62, 0
3, 586800, Note_on_c, 0, 57, 96
3, 586920, Note_on_c, 0, 57, 0
3, 586920, Note_on_c, 0, 49, 96
3, 586920, Note_on_c, 0, 45, 96
3, 587040, Note_on_c, 0, 45, 0
3, 587040, Note_on_c, 0, 49, 0
3, 587040, Note_on_c, 0, 50, 96
3, 587040, Note_on_c, 0, 46, 96
3, 587100, Note_on_c, 0, 50, 0
3, 587100, Note_on_c, 0, 52, 96
3, 587160, Note_on_c, 0, 52, 0
3, 587160, Note_on_c, 0, 46, 0
3, 587160, Note_on_c, 0, 53, 96
3, 587160, Note_on_c, 0, 41, 96
3, 587220, Note_on_c, 0, 53, 0
3, 587220, Note_on_c, 0, 53, 96
3, 587280, Note_on_c, 0, 53, 0
3, 587280, Note_on_c, 0, 41, 0
3, 587280, Note_on_c, 0, 53, 96
3, 587280, Note_on_c, 0, 48, 96
3, 587340, Note_on_c, 0, 53, 0
3, 587340, Note_on_c, 0, 52, 96
3, 587400, Note_on_c, 0, 52, 0
3, 587400, Note_on_c, 0, 48, 0
3, 587400, Note_on_c, 0, 55, 96
3, 587400, Note_on_c, 0, 49, 96
3, 587460, Note_on_c, 0, 55, 0
3, 587460, Note_on_c, 0, 55, 96
3, 587520, Note_on_c, 0, 55, 0
3, 587520, Note_on_c, 0, 49, 0
3, 587520, Note_on_c, 0, 55, 96
3, 587520, Note_on_c, 0, 50, 96
3, 587580, Note_on_c, 0, 55, 0
3, 587580, Note_on_c, 0, 53, 96
3, 587640, Note_on_c, 0, 53, 0
3, 587640, Note_on_c, 0, 50, 0
3, 587640, Note_on_c, 0, 57, 96
3, 587640, Note_on_c, 0, 45, 96
3, 587700, Note_on_c, 0, 57, 0
3, 587700, Note_on_c, 0, 57, 96
3, 587760, Note_on_c, 0, 57, 0
3, 587760, Note_on_c, 0, 45, 0
3, 587760, Note_on_c, 0, 57, 96
3, 587760, Note_on_c, 0, 52, 96
3, 587820, Note_on_c, 0, 57, 0
3, 587820, Note_on_c, 0, 55, 96
3, 587880, Note_on_c, 0, 55, 0
3, 587880, Note_on_c, 0, 58, 96
3, 587940, Note_on_c, 0, 58, 0
3, 587940, Note_on_c, 0, 58, 96
3, 588000, Note_on_c, 0, 58, 0
3, 588000, Note_on_c, 0, 52, 0
3, 588000, Note_on_c, 0, 58, 96
3, 588000, Note_on_c, 0, 53, 96
3, 588060, Note_on_c, 0, 58, 0
3, 588060, Note_on_c, 0, 57, 96
3, 588120, Note_on_c, 0, 57, 0
3, 588120, Note_on_c, 0, 53, 0
3, 588120, Note_on_c, 0, 58, 96
3, 588120, Note_on_c, 0, 52, 96
3, 588180, Note_on_c, 0, 58, 0
3, 588180, Note_on_c, 0, 55, 96
3, 588240, Note_on_c, 0, 55, 0
3, 588240, Note_on_c, 0, 52, 0
3, 588240, Note_on_c, 0, 57, 96
3, 588240, Note_on_c, 0, 50, 96
3, 588300, Note_on_c, 0, 50, 0
3, 588300, Note_on_c, 0, 52, 96
3, 588360, Note_on_c, 0, 52, 0
3, 588360, Note_on_c, 0, 50, 96
3, 588420, Note_on_c, 0, 57, 0
3, 588420, Note_on_c, 0, 55, 96
3, 588480, Note_on_c, 0, 55, 0
3, 588480, Note_on_c, 0, 50, 0
3, 588480, Note_on_c, 0, 53, 96
3, 588480, Note_on_c, 0, 57, 96
3, 588540, Note_on_c, 0, 53, 0
3, 588540, Note_on_c, 0, 52, 96
3, 588600, Note_on_c, 0, 52, 0
3, 588600, Note_on_c, 0, 57, 0
3, 588600, Note_on_c, 0, 50, 96
3, 588600, Note_on_c, 0, 58, 96
3, 588720, Note_on_c, 0, 58, 0
3, 588720, Note_on_c, 0, 50, 0
3, 588720, Note_on_c, 0, 57, 96
3, 588720, Note_on_c, 0, 57, 96
3, 588900, Note_on_c, 0, 57, 0
3, 588900, Note_on_c, 0, 55, 96
3, 588960, Note_on_c, 0, 55, 0
3, 588960, Note_on_c, 0, 54, 96
3, 589080, Note_on_c, 0, 54, 0
3, 589080, Note_on_c, 0, 57, 0
3, 589080, Note_on_c, 0, 55, 96
3, 589080, Note_on_c, 0, 53, 96
3, 589200, Note_on_c, 0, 53, 0
3, 589200, Note_on_c, 0, 52, 96
3, 589320, Note_on_c, 0, 52, 0
3, 589320, Note_on_c, 0, 55, 0
3, 589320, Note_on_c, 0, 57, 96
3, 589320, Note_on_c, 0, 51, 96
3, 589440, Note_on_c, 0, 57, 0
3, 589440, Note_on_c, 0, 58, 96
3, 589500, Note_on_c, 0, 51, 0
3, 589500, Note_on_c, 0, 50, 96
3, 589560, Note_on_c, 0, 50, 0
3, 589560, Note_on_c, 0, 58, 0
3, 589560, Note_on_c, 0, 53, 96
3, 589560, Note_on_c, 0, 53, 96
3, 589620, Note_on_c, 0, 53, 0
3, 589620, Note_on_c, 0, 53, 96
3, 589680, Note_on_c, 0, 53, 0
3, 589680, Note_on_c, 0, 53, 0
3, 589680, Note_on_c, 0, 60, 96
3, 589680, Note_on_c, 0, 53, 96
3, 589740, Note_on_c, 0, 53, 0
3, 589740, Note_on_c, 0, 52, 96
3, 589800, Note_on_c, 0, 52, 0
3, 589800, Note_on_c, 0, 60, 0
3, 589800, Note_on_c, 0, 61, 96
3, 589800, Note_on_c, 0, 55, 96
3, 589860, Note_on_c, 0, 55, 0
3, 589860, Note_on_c, 0, 55, 96
3, 589920, Note_on_c, 0, 55, 0
3, 589920, Note_on_c, 0, 61, 0
3, 589920, Note_on_c, 0, 62, 96
3, 589920, Note_on_c, 0, 55, 96
3, 589980, Note_on_c, 0, 55, 0
3, 589980, Note_on_c, 0, 53, 96
3, 590040, Note_on_c, 0, 53, 0
3, 590040, Note_on_c, 0, 62, 0
3, 590040, Note_on_c, 0, 57, 96
3, 590040, Note_on_c, 0, 57, 96
3, 590100, Note_on_c, 0, 57, 0
3, 590100, Note_on_c, 0, 57, 96
3, 590160, Note_on_c, 0, 57, 0
3, 590160, Note_on_c, 0, 57, 0
3, 590160, Note_on_c, 0, 64, 96
3, 590160, Note_on_c, 0, 57, 96
3, 590220, Note_on_c, 0, 57, 0
3, 590220, Note_on_c, 0, 55, 96
3, 590280, Note_on_c, 0, 55, 0
3, 590280, Note_on_c, 0, 58, 96
3, 590340, Note_on_c, 0, 58, 0
3, 590340, Note_on_c, 0, 58, 96
3, 590400, Note_on_c, 0, 58, 0
3, 590400, Note_on_c, 0, 64, 0
3, 590400, Note_on_c, 0, 65, 96
3, 590400, Note_on_c, 0, 57, 96
3, 590520, Note_on_c, 0, 65, 0
3, 590520, Note_on_c, 0, 64, 96
3, 590640, Note_on_c, 0, 64, 0
3, 590640, Note_on_c, 0, 62, 96
3, 590700, Note_on_c, 0, 62, 0
3, 590700, Note_on_c, 0, 64, 96
3, 590760, Note_on_c, 0, 64, 0
3, 590760, Note_on_c, 0, 62, 96
3, 590820, Note_on_c, 0, 57, 0
3, 590820, Note_on_c, 0, 56, 96
3, 590880, Note_on_c, 0, 56, 0
3, 590880, Note_on_c, 0, 62, 0
3, 590880, Note_on_c, 0, 69, 96
3, 590880, Note_on_c, 0, 57, 96
3, 591000, Note_on_c, 0, 69, 0
3, 591000, Note_on_c, 0, 62, 96
3, 591120, Note_on_c, 0, 62, 0
3, 591120, Note_on_c, 0, 57, 96
3, 591240, Note_on_c, 0, 57, 0
3, 591240, Note_on_c, 0, 45, 96
3, 591360, Note_on_c, 0, 45, 0
3, 591360, Note_on_c, 0, 57, 0
3, 591360, Note_on_c, 0, 57, 96
3, 591360, Note_on_c, 0, 50, 96
3, 591840, Note_on_c, 0, 50, 0
3, 591840, Note_on_c, 0, 57, 0
3, 592320, Control_c, 0, 91, 64
3, 592320, Control_c, 0, 93, 0
3, 592320, Control_c, 0, 91, 64
3, 592320, Control_c, 0, 93, 0
3, 592320, Note_on_c, 0, 50, 100
3, 592560, Note_on_c, 0, 50, 0
3, 592560, Note_on_c, 0, 57, 100
3, 593040, Note_on_c, 0, 57, 0
3, 593040, Note_on_c, 0, 53, 100
3, 593280, Note_on_c, 0, 53, 0
3, 593280, Note_on_c, 0, 50, 100
3, 593760, Note_on_c, 0, 50, 0
3, 593760, Note_on_c, 0, 49, 100
3, 594000, Note_on_c, 0, 49, 0
3, 594000, Note_on_c, 0, 50, 100
3, 594240, Note_on_c, 0, 50, 0
3, 594240, Note_on_c, 0, 52, 100
3, 594480, Note_on_c, 0, 52, 0
3, 594480, Note_on_c, 0, 53, 100
3, 594840, Note_on_c, 0, 53, 0
3, 594840, Note_on_c, 0, 55, 100
3, 594960, Note_on_c, 0, 55, 0
3, 594960, Note_on_c, 0, 53, 100
3, 595080, Note_on_c, 0, 53, 0
3, 595080, Note_on_c, 0, 52, 100
3, 595200, Note_on_c, 0, 52, 0
3, 595200, Note_on_c, 0, 57, 100
3, 595200, Note_on_c, 0, 50, 100
3, 595440, Note_on_c, 0, 50, 0
3, 595440, Note_on_c, 0, 57, 0
3, 595440, Note_on_c, 0, 62, 100
3, 595560, Note_on_c, 0, 52, 100
3, 595680, Note_on_c, 0, 52, 0
3, 595680, Note_on_c, 0, 53, 100
3, 595800, Note_on_c, 0, 53, 0
3, 595800, Note_on_c, 0, 55, 100
3, 595920, Note_on_c, 0, 55, 0
3, 595920, Note_on_c, 0, 62, 0
3, 595920, Note_on_c, 0, 60, 100
3, 595920, Note_on_c, 0, 57, 100
3, 596160, Note_on_c, 0, 57, 0
3, 596160, Note_on_c, 0, 60, 0
3, 596160, Note_on_c, 0, 57, 100
3, 596280, Note_on_c, 0, 59, 100
3, 596400, Note_on_c, 0, 59, 0
3, 596400, Note_on_c, 0, 60, 100
3, 596520, Note_on_c, 0, 60, 0
3, 596520, Note_on_c, 0, 62, 100
3, 596640, Note_on_c, 0, 62, 0
3, 596640, Note_on_c, 0, 57, 0
3, 596640, Note_on_c, 0, 56, 100
3, 596640, Note_on_c, 0, 64, 100
3, 596760, Note_on_c, 0, 64, 0
3, 596760, Note_on_c, 0, 62, 100
3, 596880, Note_on_c, 0, 62, 0
3, 596880, Note_on_c, 0, 56, 0
3, 596880, Note_on_c, 0, 57, 100
3, 596880, Note_on_c, 0, 60, 100
3, 597000, Note_on_c, 0, 60, 0
3, 597000, Note_on_c, 0, 59, 100
3, 597120, Note_on_c, 0, 59, 0
3, 597120, Note_on_c, 0, 57, 0
3, 597120, Note_on_c, 0, 59, 100
3, 597120, Note_on_c, 0, 57, 100
3, 597240, Note_on_c, 0, 57, 0
3, 597240, Note_on_c, 0, 56, 100
3, 597360, Note_on_c, 0, 56, 0
3, 597360, Note_on_c, 0, 59, 0
3, 597360, Note_on_c, 0, 60, 100
3, 597360, Note_on_c, 0, 57, 100
3, 597480, Note_on_c, 0, 57, 0
3, 597480, Note_on_c, 0, 55, 100
3, 597540, Note_on_c, 0, 55, 0
3, 597540, Note_on_c, 0, 53, 100
3, 597600, Note_on_c, 0, 53, 0
3, 597600, Note_on_c, 0, 53, 100
3, 597630, Note_on_c, 0, 53, 0
3, 597630, Note_on_c, 0, 52, 100
3, 597660, Note_on_c, 0, 52, 0
3, 597660, Note_on_c, 0, 53, 100
3, 597690, Note_on_c, 0, 53, 0
3, 597690, Note_on_c, 0, 52, 100
3, 597720, Note_on_c, 0, 52, 0
3, 597720, Note_on_c, 0, 60, 0
3, 597720, Note_on_c, 0, 62, 100
3, 597720, Note_on_c, 0, 53, 100
3, 597750, Note_on_c, 0, 53, 0
3, 597750, Note_on_c, 0, 52, 100
3, 597780, Note_on_c, 0, 52, 0
3, 597780, Note_on_c, 0, 53, 100
3, 597810, Note_on_c, 0, 53, 0
3, 597810, Note_on_c, 0, 52, 100
3, 597840, Note_on_c, 0, 52, 0
3, 597840, Note_on_c, 0, 62, 0
3, 597840, Note_on_c, 0, 60, 100
3, 597840, Note_on_c, 0, 53, 100
3, 597870, Note_on_c, 0, 53, 0
3, 597870, Note_on_c, 0, 52, 100
3, 597900, Note_on_c, 0, 52, 0
3, 597900, Note_on_c, 0, 53, 100
3, 597930, Note_on_c, 0, 53, 0
3, 597930, Note_on_c, 0, 52, 100
3, 597960, Note_on_c, 0, 52, 0
3, 597960, Note_on_c, 0, 60, 0
3, 597960, Note_on_c, 0, 59, 100
3, 597960, Note_on_c, 0, 53, 100
3, 597990, Note_on_c, 0, 53, 0
3, 597990, Note_on_c, 0, 52, 100
3, 598020, Note_on_c, 0, 52, 0
3, 598020, Note_on_c, 0, 50, 100
3, 598050, Note_on_c, 0, 50, 0
3, 598050, Note_on_c, 0, 52, 100
3, 598080, Note_on_c, 0, 52, 0
3, 598080, Note_on_c, 0, 59, 0
3, 598080, Note_on_c, 0, 57, 100
3, 598080, Note_on_c, 0, 53, 100
3, 598200, Note_on_c, 0, 53, 0
3, 598200, Note_on_c, 0, 52, 100
3, 598260, Note_on_c, 0, 52, 0
3, 598260, Note_on_c, 0, 50, 100
3, 598320, Note_on_c, 0, 50, 0
3, 598320, Note_on_c, 0, 50, 100
3, 598350, Note_on_c, 0, 50, 0
3, 598350, Note_on_c, 0, 49, 100
3, 598380, Note_on_c, 0, 49, 0
3, 598380, Note_on_c, 0, 50, 100
3, 598410, Note_on_c, 0, 50, 0
3, 598410, Note_on_c, 0, 49, 100
3, 598440, Note_on_c, 0, 49, 0
3, 598440, Note_on_c, 0, 57, 0
3, 598440, Note_on_c, 0, 58, 100
3, 598440, Note_on_c, 0, 50, 100
3, 598470, Note_on_c, 0, 50, 0
3, 598470, Note_on_c, 0, 49, 100
3, 598500, Note_on_c, 0, 49, 0
3, 598500, Note_on_c, 0, 50, 100
3, 598530, Note_on_c, 0, 50, 0
3, 598530, Note_on_c, 0, 49, 100
3, 598560, Note_on_c, 0, 49, 0
3, 598560, Note_on_c, 0, 58, 0
3, 598560, Note_on_c, 0, 57, 100
3, 598560, Note_on_c, 0, 50, 100
3, 598590, Note_on_c, 0, 50, 0
3, 598590, Note_on_c, 0, 49, 100
3, 598620, Note_on_c, 0, 49, 0
3, 598620, Note_on_c, 0, 50, 100
3, 598650, Note_on_c, 0, 50, 0
3, 598650, Note_on_c, 0, 49, 100
3, 598680, Note_on_c, 0, 49, 0
3, 598680, Note_on_c, 0, 57, 0
3, 598680, Note_on_c, 0, 55, 100
3, 598680, Note_on_c, 0, 50, 100
3, 598710, Note_on_c, 0, 50, 0
3, 598710, Note_on_c, 0, 49, 100
3, 598740, Note_on_c, 0, 49, 0
3, 598740, Note_on_c, 0, 47, 100
3, 598770, Note_on_c, 0, 47, 0
3, 598770, Note_on_c, 0, 49, 100
3, 598800, Note_on_c, 0, 49, 0
3, 598800, Note_on_c, 0, 55, 0
3, 598800, Note_on_c, 0, 53, 100
3, 598800, Note_on_c, 0, 50, 100
3, 598860, Note_on_c, 0, 53, 0
3, 598860, Note_on_c, 0, 55, 100
3, 598920, Note_on_c, 0, 55, 0
3, 598920, Note_on_c, 0, 53, 100
3, 598980, Note_on_c, 0, 53, 0
3, 598980, Note_on_c, 0, 52, 100
3, 599040, Note_on_c, 0, 52, 0
3, 599040, Note_on_c, 0, 50, 0
3, 599040, Note_on_c, 0, 50, 100
3, 599160, Note_on_c, 0, 50, 0
3, 599160, Note_on_c, 0, 57, 100
3, 599160, Note_on_c, 0, 41, 100
3, 599280, Note_on_c, 0, 41, 0
3, 599280, Note_on_c, 0, 57, 0
3, 599280, Note_on_c, 0, 59, 100
3, 599280, Note_on_c, 0, 43, 100
3, 599400, Note_on_c, 0, 43, 0
3, 599400, Note_on_c, 0, 59, 0
3, 599400, Note_on_c, 0, 61, 100
3, 599400, Note_on_c, 0, 45, 100
3, 599520, Note_on_c, 0, 45, 0
3, 599520, Note_on_c, 0, 61, 0
3, 599520, Note_on_c, 0, 62, 100
3, 599520, Note_on_c, 0, 46, 100
3, 599640, Note_on_c, 0, 46, 0
3, 599640, Note_on_c, 0, 45, 100
3, 599760, Note_on_c, 0, 45, 0
3, 599760, Note_on_c, 0, 62, 0
3, 599760, Note_on_c, 0, 48, 100
3, 599790, Note_on_c, 0, 48, 0
3, 599790, Note_on_c, 0, 46, 100
3, 599820, Note_on_c, 0, 46, 0
3, 599820, Note_on_c, 0, 48, 100
3, 599850, Note_on_c, 0, 48, 0
3, 599850, Note_on_c, 0, 46, 100
3, 599880, Note_on_c, 0, 46, 0
3, 599880, Note_on_c, 0, 64, 100
3, 599880, Note_on_c, 0, 48, 100
3, 599910, Note_on_c, 0, 48, 0
3, 599910, Note_on_c, 0, 46, 100
3, 599940, Note_on_c, 0, 46, 0
3, 599940, Note_on_c, 0, 48, 100
3, 599970, Note_on_c, 0, 48, 0
3, 599970, Note_on_c, 0, 46, 100
3, 600000, Note_on_c, 0, 46, 0
3, 600000, Note_on_c, 0, 64, 0
3, 600000, Note_on_c, 0, 65, 100
3, 600000, Note_on_c, 0, 48, 100
3, 600030, Note_on_c, 0, 48, 0
3, 600030, Note_on_c, 0, 46, 100
3, 600060, Note_on_c, 0, 46, 0
3, 600060, Note_on_c, 0, 48, 100
3, 600090, Note_on_c, 0, 48, 0
3, 600090, Note_on_c, 0, 46, 100
3, 600120, Note_on_c, 0, 46, 0
3, 600120, Note_on_c, 0, 65, 0
3, 600120, Note_on_c, 0, 67, 100
3, 600120, Note_on_c, 0, 48, 100
3, 600150, Note_on_c, 0, 48, 0
3, 600150, Note_on_c, 0, 46, 100
3, 600180, Note_on_c, 0, 46, 0
3, 600180, Note_on_c, 0, 48, 100
3, 600210, Note_on_c, 0, 48, 0
3, 600210, Note_on_c, 0, 46, 100
3, 600240, Note_on_c, 0, 46, 0
3, 600240, Note_on_c, 0, 67, 0
3, 600240, Note_on_c, 0, 69, 100
3, 600240, Note_on_c, 0, 45, 100
3, 600360, Note_on_c, 0, 69, 0
3, 600360, Note_on_c, 0, 67, 100
3, 600480, Note_on_c, 0, 67, 0
3, 600480, Note_on_c, 0, 65, 100
3, 600600, Note_on_c, 0, 65, 0
3, 600600, Note_on_c, 0, 64, 100
3, 600720, Note_on_c, 0, 64, 0
3, 600720, Note_on_c, 0, 62, 100
3, 600840, Note_on_c, 0, 62, 0
3, 600840, Note_on_c, 0, 61, 100
3, 600960, Note_on_c, 0, 61, 0
3, 600960, Note_on_c, 0, 62, 100
3, 601020, Note_on_c, 0, 45, 0
3, 601020, Note_on_c, 0, 43, 100
3, 601080, Note_on_c, 0, 43, 0
3, 601080, Note_on_c, 0, 41, 100
3, 601140, Note_on_c, 0, 41, 0
3, 601140, Note_on_c, 0, 43, 100
3, 601200, Note_on_c, 0, 43, 0
3, 601200, Note_on_c, 0, 45, 100
3, 601320, Note_on_c, 0, 45, 0
3, 601320, Note_on_c, 0, 62, 0
3, 601320, Note_on_c, 0, 61, 100
3, 601320, Note_on_c, 0, 46, 100
3, 601440, Note_on_c, 0, 46, 0
3, 601440, Note_on_c, 0, 61, 0
3, 601440, Note_on_c, 0, 62, 100
3, 601440, Note_on_c, 0, 45, 100
3, 601560, Note_on_c, 0, 45, 0
3, 601560, Note_on_c, 0, 62, 0
3, 601560, Note_on_c, 0, 64, 100
3, 601560, Note_on_c, 0, 43, 100
3, 601680, Note_on_c, 0, 43, 0
3, 601680, Note_on_c, 0, 64, 0
3, 601680, Note_on_c, 0, 57, 100
3, 601680, Note_on_c, 0, 41, 100
3, 601800, Note_on_c, 0, 41, 0
3, 601800, Note_on_c, 0, 57, 0
3, 601800, Note_on_c, 0, 55, 100
3, 601800, Note_on_c, 0, 40, 100
3, 601920, Note_on_c, 0, 40, 0
3, 601920, Note_on_c, 0, 55, 0
3, 601920, Note_on_c, 0, 53, 100
3, 601920, Note_on_c, 0, 38, 100
3, 602040, Note_on_c, 0, 53, 0
3, 602040, Note_on_c, 0, 52, 100
3, 602160, Note_on_c, 0, 52, 0
3, 602160, Note_on_c, 0, 38, 0
3, 602160, Note_on_c, 0, 50, 100
3, 602280, Note_on_c, 0, 50, 0
3, 602280, Note_on_c, 0, 52, 100
3, 602280, Note_on_c, 0, 46, 100
3, 602400, Note_on_c, 0, 46, 0
3, 602400, Note_on_c, 0, 52, 0
3, 602400, Note_on_c, 0, 53, 100
3, 602400, Note_on_c, 0, 45, 100
3, 602460, Note_on_c, 0, 45, 0
3, 602460, Note_on_c, 0, 43, 100
3, 602520, Note_on_c, 0, 43, 0
3, 602520, Note_on_c, 0, 53, 0
3, 602520, Note_on_c, 0, 55, 100
3, 602520, Note_on_c, 0, 41, 100
3, 602580, Note_on_c, 0, 41, 0
3, 602580, Note_on_c, 0, 40, 100
3, 602640, Note_on_c, 0, 40, 0
3, 602640, Note_on_c, 0, 55, 0
3, 602640, Note_on_c, 0, 57, 100
3, 602640, Note_on_c, 0, 41, 100
3, 602760, Note_on_c, 0, 57, 0
3, 602760, Note_on_c, 0, 56, 100
3, 602880, Note_on_c, 0, 56, 0
3, 602880, Note_on_c, 0, 41, 0
3, 602880, Note_on_c, 0, 57, 100
3, 603000, Note_on_c, 0, 57, 0
3, 603000, Note_on_c, 0, 59, 100
3, 603000, Note_on_c, 0, 53, 100
3, 603120, Note_on_c, 0, 53, 0
3, 603120, Note_on_c, 0, 59, 0
3, 603120, Note_on_c, 0, 60, 100
3, 603120, Note_on_c, 0, 52, 100
3, 603180, Note_on_c, 0, 52, 0
3, 603180, Note_on_c, 0, 50, 100
3, 603240, Note_on_c, 0, 50, 0
3, 603240, Note_on_c, 0, 60, 0
3, 603240, Note_on_c, 0, 62, 100
3, 603240, Note_on_c, 0, 48, 100
3, 603300, Note_on_c, 0, 48, 0
3, 603300, Note_on_c, 0, 47, 100
3, 603360, Note_on_c, 0, 47, 0
3, 603360, Note_on_c, 0, 62, 0
3, 603360, Note_on_c, 0, 64, 100
3, 603360, Note_on_c, 0, 48, 100
3, 603600, Note_on_c, 0, 48, 0
3, 603720, Note_on_c, 0, 52, 100
3, 603840, Note_on_c, 0, 52, 0
3, 603840, Note_on_c, 0, 45, 100
3, 603900, Note_on_c, 0, 45, 0
3, 603900, Note_on_c, 0, 47, 100
3, 603960, Note_on_c, 0, 47, 0
3, 603960, Note_on_c, 0, 64, 0
3, 603960, Note_on_c, 0, 57, 100
3, 603960, Note_on_c, 0, 48, 100
3, 604020, Note_on_c, 0, 48, 0
3, 604020, Note_on_c, 0, 50, 100
3, 604080, Note_on_c, 0, 50, 0
3, 604080, Note_on_c, 0, 57, 0
3, 604080, Note_on_c, 0, 52, 100
3, 604080, Note_on_c, 0, 52, 100
3, 604320, Note_on_c, 0, 52, 0
3, 604320, Note_on_c, 0, 52, 0
3, 604320, Note_on_c, 0, 40, 100
3, 604440, Note_on_c, 0, 62, 100
3, 604560, Note_on_c, 0, 62, 0
3, 604560, Note_on_c, 0, 40, 0
3, 604560, Note_on_c, 0, 60, 100
3, 604560, Note_on_c, 0, 41, 100
3, 604620, Note_on_c, 0, 41, 0
3, 604620, Note_on_c, 0, 43, 100
3, 604680, Note_on_c, 0, 43, 0
3, 604680, Note_on_c, 0, 60, 0
3, 604680, Note_on_c, 0, 53, 100
3, 604680, Note_on_c, 0, 45, 100
3, 604740, Note_on_c, 0, 45, 0
3, 604740, Note_on_c, 0, 46, 100
3, 604800, Note_on_c, 0, 46, 0
3, 604800, Note_on_c, 0, 53, 0
3, 604800, Note_on_c, 0, 48, 100
3, 604800, Note_on_c, 0, 48, 100
3, 605040, Note_on_c, 0, 48, 0
3, 605040, Note_on_c, 0, 48, 0
3, 605040, Note_on_c, 0, 36, 100
3, 605160, Note_on_c, 0, 58, 100
3, 605280, Note_on_c, 0, 58, 0
3, 605280, Note_on_c, 0, 36, 0
3, 605280, Note_on_c, 0, 57, 100
3, 605280, Note_on_c, 0, 38, 100
3, 605340, Note_on_c, 0, 38, 0
3, 605340, Note_on_c, 0, 40, 100
3, 605400, Note_on_c, 0, 40, 0
3, 605400, Note_on_c, 0, 57, 0
3, 605400, Note_on_c, 0, 62, 100
3, 605400, Note_on_c, 0, 41, 100
3, 605460, Note_on_c, 0, 41, 0
3, 605460, Note_on_c, 0, 62, 0
3, 605460, Note_on_c, 0, 64, 100
3, 605460, Note_on_c, 0, 43, 100
3, 605520, Note_on_c, 0, 43, 0
3, 605520, Note_on_c, 0, 64, 0
3, 605520, Note_on_c, 0, 65, 100
3, 605520, Note_on_c, 0, 45, 100
3, 605640, Note_on_c, 0, 65, 0
3, 605640, Note_on_c, 0, 61, 100
3, 605760, Note_on_c, 0, 61, 0
3, 605760, Note_on_c, 0, 45, 0
3, 605760, Note_on_c, 0, 62, 100
3, 605880, Note_on_c, 0, 62, 0
3, 605880, Note_on_c, 0, 55, 100
3, 605880, Note_on_c, 0, 46, 100
3, 606000, Note_on_c, 0, 46, 0
3, 606000, Note_on_c, 0, 55, 0
3, 606000, Note_on_c, 0, 57, 100
3, 606000, Note_on_c, 0, 45, 100
3, 606120, Note_on_c, 0, 45, 0
3, 606120, Note_on_c, 0, 43, 100
3, 606240, Note_on_c, 0, 43, 0
3, 606240, Note_on_c, 0, 41, 100
3, 606360, Note_on_c, 0, 41, 0
3, 606360, Note_on_c, 0, 57, 0
3, 606360, Note_on_c, 0, 55, 100
3, 606360, Note_on_c, 0, 40, 100
3, 606480, Note_on_c, 0, 40, 0
3, 606480, Note_on_c, 0, 55, 0
3, 606480, Note_on_c, 0, 53, 100
3, 606480, Note_on_c, 0, 38, 100
3, 606600, Note_on_c, 0, 53, 0
3, 606600, Note_on_c, 0, 52, 100
3, 606720, Note_on_c, 0, 52, 0
3, 606720, Note_on_c, 0, 38, 0
3, 606720, Note_on_c, 0, 50, 100
3, 607020, Note_on_c, 0, 50, 0
3, 607020, Note_on_c, 0, 52, 100
3, 607080, Note_on_c, 0, 52, 0
3, 607080, Note_on_c, 0, 53, 100
3, 607140, Note_on_c, 0, 53, 0
3, 607140, Note_on_c, 0, 55, 100
3, 607200, Note_on_c, 0, 55, 0
3, 607200, Note_on_c, 0, 57, 100
3, 607500, Note_on_c, 0, 57, 0
3, 607500, Note_on_c, 0, 69, 100
3, 607560, Note_on_c, 0, 69, 0
3, 607560, Note_on_c, 0, 57, 100
3, 607620, Note_on_c, 0, 57, 0
3, 607620, Note_on_c, 0, 55, 100
3, 607680, Note_on_c, 0, 55, 0
3, 607680, Note_on_c, 0, 53, 100
3, 607740, Note_on_c, 0, 53, 0
3, 607740, Note_on_c, 0, 52, 100
3, 607800, Note_on_c, 0, 52, 0
3, 607800, Note_on_c, 0, 50, 100
3, 607860, Note_on_c, 0, 50, 0
3, 607860, Note_on_c, 0, 52, 100
3, 607920, Note_on_c, 0, 52, 0
3, 607920, Note_on_c, 0, 53, 100
3, 607920, Note_on_c, 0, 50, 100
3, 607980, Note_on_c, 0, 50, 0
3, 607980, Note_on_c, 0, 52, 100
3, 608040, Note_on_c, 0, 52, 0
3, 608040, Note_on_c, 0, 53, 0
3, 608040, Note_on_c, 0, 65, 100
3, 608040, Note_on_c, 0, 53, 100
3, 608100, Note_on_c, 0, 53, 0
3, 608100, Note_on_c, 0, 55, 100
3, 608160, Note_on_c, 0, 55, 0
3, 608160, Note_on_c, 0, 65, 0
3, 608160, Note_on_c, 0, 64, 100
3, 608160, Note_on_c, 0, 57, 100
3, 608220, Note_on_c, 0, 57, 0
3, 608220, Note_on_c, 0, 58, 100
3, 608280, Note_on_c, 0, 58, 0
3, 608280, Note_on_c, 0, 57, 100
3, 608340, Note_on_c, 0, 57, 0
3, 608340, Note_on_c, 0, 55, 100
3, 608400, Note_on_c, 0, 55, 0
3, 608400, Note_on_c, 0, 64, 0
3, 608400, Note_on_c, 0, 65, 100
3, 608400, Note_on_c, 0, 53, 100
3, 608520, Note_on_c, 0, 53, 0
3, 608520, Note_on_c, 0, 52, 100
3, 608640, Note_on_c, 0, 52, 0
3, 608640, Note_on_c, 0, 50, 100
3, 608760, Note_on_c, 0, 50, 0
3, 608760, Note_on_c, 0, 65, 0
3, 608760, Note_on_c, 0, 67, 100
3, 608760, Note_on_c, 0, 49, 100
3, 608880, Note_on_c, 0, 49, 0
3, 608880, Note_on_c, 0, 67, 0
3, 608880, Note_on_c, 0, 65, 100
3, 608880, Note_on_c, 0, 50, 100
3, 609000, Note_on_c, 0, 50, 0
3, 609000, Note_on_c, 0, 48, 100
3, 609060, Note_on_c, 0, 48, 0
3, 609060, Note_on_c, 0, 46, 100
3, 609120, Note_on_c, 0, 46, 0
3, 609120, Note_on_c, 0, 65, 0
3, 609120, Note_on_c, 0, 53, 100
3, 609120, Note_on_c, 0, 46, 100
3, 609150, Note_on_c, 0, 46, 0
3, 609150, Note_on_c, 0, 45, 100
3, 609180, Note_on_c, 0, 45, 0
3, 609180, Note_on_c, 0, 46, 100
3, 609210, Note_on_c, 0, 46, 0
3, 609210, Note_on_c, 0, 45, 100
3, 609240, Note_on_c, 0, 45, 0
3, 609240, Note_on_c, 0, 46, 100
3, 609270, Note_on_c, 0, 46, 0
3, 609270, Note_on_c, 0, 45, 100
3, 609300, Note_on_c, 0, 45, 0
3, 609300, Note_on_c, 0, 46, 100
3, 609330, Note_on_c, 0, 46, 0
3, 609330, Note_on_c, 0, 45, 100
3, 609360, Note_on_c, 0, 45, 0
3, 609360, Note_on_c, 0, 46, 100
3, 609390, Note_on_c, 0, 46, 0
3, 609390, Note_on_c, 0, 45, 100
3, 609420, Note_on_c, 0, 45, 0
3, 609420, Note_on_c, 0, 46, 100
3, 609450, Note_on_c, 0, 46, 0
3, 609450, Note_on_c, 0, 45, 100
3, 609480, Note_on_c, 0, 45, 0
3, 609480, Note_on_c, 0, 46, 100
3, 609510, Note_on_c, 0, 46, 0
3, 609510, Note_on_c, 0, 45, 100
3, 609540, Note_on_c, 0, 45, 0
3, 609540, Note_on_c, 0, 43, 100
3, 609570, Note_on_c, 0, 43, 0
3, 609570, Note_on_c, 0, 45, 100
3, 609600, Note_on_c, 0, 45, 0
3, 609600, Note_on_c, 0, 46, 100
3, 609720, Note_on_c, 0, 46, 0
3, 609720, Note_on_c, 0, 53, 0
3, 609720, Note_on_c, 0, 55, 100
3, 609720, Note_on_c, 0, 43, 100
3, 609780, Note_on_c, 0, 55, 0
3, 609780, Note_on_c, 0, 52, 100
3, 609840, Note_on_c, 0, 52, 0
3, 609840, Note_on_c, 0, 43, 0
3, 609840, Note_on_c, 0, 54, 100
3, 609840, Note_on_c, 0, 50, 100
3, 609900, Note_on_c, 0, 54, 0
3, 609900, Note_on_c, 0, 57, 100
3, 609960, Note_on_c, 0, 57, 0
3, 609960, Note_on_c, 0, 58, 100
3, 610020, Note_on_c, 0, 58, 0
3, 610020, Note_on_c, 0, 60, 100
3, 610080, Note_on_c, 0, 60, 0
3, 610080, Note_on_c, 0, 50, 0
3, 610080, Note_on_c, 0, 62, 100
3, 610140, Note_on_c, 0, 46, 100
3, 610200, Note_on_c, 0, 46, 0
3, 610200, Note_on_c, 0, 62, 0
3, 610200, Note_on_c, 0, 60, 100
3, 610200, Note_on_c, 0, 48, 100
3, 610260, Note_on_c, 0, 48, 0
3, 610260, Note_on_c, 0, 50, 100
3, 610320, Note_on_c, 0, 50, 0
3, 610320, Note_on_c, 0, 60, 0
3, 610320, Note_on_c, 0, 58, 100
3, 610320, Note_on_c, 0, 51, 100
3, 610380, Note_on_c, 0, 58, 0
3, 610380, Note_on_c, 0, 60, 100
3, 610440, Note_on_c, 0, 60, 0
3, 610440, Note_on_c, 0, 51, 0
3, 610440, Note_on_c, 0, 58, 100
3, 610440, Note_on_c, 0, 50, 100
3, 610500, Note_on_c, 0, 50, 0
3, 610500, Note_on_c, 0, 58, 0
3, 610500, Note_on_c, 0, 57, 100
3, 610500, Note_on_c, 0, 48, 100
3, 610560, Note_on_c, 0, 48, 0
3, 610560, Note_on_c, 0, 57, 0
3, 610560, Note_on_c, 0, 55, 100
3, 610560, Note_on_c, 0, 46, 100
3, 610620, Note_on_c, 0, 55, 0
3, 610620, Note_on_c, 0, 54, 100
3, 610680, Note_on_c, 0, 54, 0
3, 610680, Note_on_c, 0, 46, 0
3, 610680, Note_on_c, 0, 55, 100
3, 610680, Note_on_c, 0, 45, 100
3, 610740, Note_on_c, 0, 55, 0
3, 610740, Note_on_c, 0, 57, 100
3, 610800, Note_on_c, 0, 57, 0
3, 610800, Note_on_c, 0, 45, 0
3, 610800, Note_on_c, 0, 58, 100
3, 610800, Note_on_c, 0, 43, 100
3, 610860, Note_on_c, 0, 58, 0
3, 610860, Note_on_c, 0, 60, 100
3, 610920, Note_on_c, 0, 60, 0
3, 610920, Note_on_c, 0, 43, 0
3, 610920, Note_on_c, 0, 62, 100
3, 610920, Note_on_c, 0, 42, 100
3, 610980, Note_on_c, 0, 62, 0
3, 610980, Note_on_c, 0, 63, 100
3, 611040, Note_on_c, 0, 63, 0
3, 611040, Note_on_c, 0, 42, 0
3, 611040, Note_on_c, 0, 62, 100
3, 611040, Note_on_c, 0, 43, 100
3, 611160, Note_on_c, 0, 43, 0
3, 611160, Note_on_c, 0, 45, 100
3, 611280, Note_on_c, 0, 45, 0
3, 611280, Note_on_c, 0, 62, 0
3, 611280, Note_on_c, 0, 46, 100
3, 611400, Note_on_c, 0, 46, 0
3, 611400, Note_on_c, 0, 45, 100
3, 611520, Note_on_c, 0, 45, 0
3, 611520, Note_on_c, 0, 46, 100
3, 611640, Note_on_c, 0, 46, 0
3, 611640, Note_on_c, 0, 48, 100
3, 611760, Note_on_c, 0, 48, 0
3, 611760, Note_on_c, 0, 50, 100
3, 612000, Note_on_c, 0, 50, 0
3, 612000, Note_on_c, 0, 51, 100
3, 612240, Note_on_c, 0, 51, 0
3, 612300, Note_on_c, 0, 51, 100
3, 612360, Note_on_c, 0, 51, 0
3, 612360, Note_on_c, 0, 50, 100
3, 612420, Note_on_c, 0, 50, 0
3, 612420, Note_on_c, 0, 48, 100
3, 612480, Note_on_c, 0, 48, 0
3, 612480, Note_on_c, 0, 46, 100
3, 612540, Note_on_c, 0, 46, 0
3, 612540, Note_on_c, 0, 45, 100
3, 612600, Note_on_c, 0, 45, 0
3, 612600, Note_on_c, 0, 43, 100
3, 612660, Note_on_c, 0, 43, 0
3, 612660, Note_on_c, 0, 42, 100
3, 612720, Note_on_c, 0, 42, 0
3, 612720, Note_on_c, 0, 43, 100
3, 612780, Note_on_c, 0, 43, 0
3, 612780, Note_on_c, 0, 38, 100
3, 612840, Note_on_c, 0, 38, 0
3, 612840, Note_on_c, 0, 40, 100
3, 612900, Note_on_c, 0, 40, 0
3, 612900, Note_on_c, 0, 42, 100
3, 612960, Note_on_c, 0, 42, 0
3, 612960, Note_on_c, 0, 43, 100
3, 613020, Note_on_c, 0, 43, 0
3, 613020, Note_on_c, 0, 45, 100
3, 613080, Note_on_c, 0, 45, 0
3, 613080, Note_on_c, 0, 46, 100
3, 613140, Note_on_c, 0, 46, 0
3, 613140, Note_on_c, 0, 48, 100
3, 613200, Note_on_c, 0, 48, 0
3, 613200, Note_on_c, 0, 46, 100
3, 613260, Note_on_c, 0, 46, 0
3, 613260, Note_on_c, 0, 45, 100
3, 613320, Note_on_c, 0, 45, 0
3, 613320, Note_on_c, 0, 43, 100
3, 613380, Note_on_c, 0, 43, 0
3, 613380, Note_on_c, 0, 45, 100
3, 613440, Note_on_c, 0, 45, 0
3, 613440, Note_on_c, 0, 46, 100
3, 613680, Note_on_c, 0, 46, 0
3, 613800, Note_on_c, 0, 47, 100
3, 613920, Note_on_c, 0, 47, 0
3, 613920, Note_on_c, 0, 48, 100
3, 613980, Note_on_c, 0, 48, 0
3, 613980, Note_on_c, 0, 50, 100
3, 614040, Note_on_c, 0, 50, 0
3, 614040, Note_on_c, 0, 51, 100
3, 614100, Note_on_c, 0, 51, 0
3, 614100, Note_on_c, 0, 48, 100
3, 614160, Note_on_c, 0, 48, 0
3, 614160, Note_on_c, 0, 45, 100
3, 614400, Note_on_c, 0, 45, 0
3, 614460, Note_on_c, 0, 50, 100
3, 614520, Note_on_c, 0, 50, 0
3, 614520, Note_on_c, 0, 51, 100
3, 614580, Note_on_c, 0, 51, 0
3, 614580, Note_on_c, 0, 53, 100
3, 614640, Note_on_c, 0, 53, 0
3, 614640, Note_on_c, 0, 58, 100
3, 614640, Note_on_c, 0, 55, 100
3, 614700, Note_on_c, 0, 58, 0
3, 614700, Note_on_c, 0, 60, 100
3, 614760, Note_on_c, 0, 60, 0
3, 614760, Note_on_c, 0, 55, 0
3, 614760, Note_on_c, 0, 62, 100
3, 614760, Note_on_c, 0, 53, 100
3, 614820, Note_on_c, 0, 53, 0
3, 614820, Note_on_c, 0, 62, 0
3, 614820, Note_on_c, 0, 63, 100
3, 614820, Note_on_c, 0, 51, 100
3, 614880, Note_on_c, 0, 51, 0
3, 614880, Note_on_c, 0, 63, 0
3, 614880, Note_on_c, 0, 65, 100
3, 614880, Note_on_c, 0, 50, 100
3, 615000, Note_on_c, 0, 50, 0
3, 615000, Note_on_c, 0, 48, 100
3, 615120, Note_on_c, 0, 48, 0
3, 615120, Note_on_c, 0, 46, 100
3, 615240, Note_on_c, 0, 46, 0
3, 615240, Note_on_c, 0, 45, 100
3, 615360, Note_on_c, 0, 45, 0
3, 615360, Note_on_c, 0, 46, 100
3, 615480, Note_on_c, 0, 46, 0
3, 615480, Note_on_c, 0, 48, 100
3, 615600, Note_on_c, 0, 48, 0
3, 615600, Note_on_c, 0, 65, 0
3, 615600, Note_on_c, 0, 53, 100
3, 615600, Note_on_c, 0, 50, 100
3, 615720, Note_on_c, 0, 50, 0
3, 615720, Note_on_c, 0, 51, 100
3, 615840, Note_on_c, 0, 51, 0
3, 615840, Note_on_c, 0, 53, 100
3, 615900, Note_on_c, 0, 53, 0
3, 615900, Note_on_c, 0, 55, 100
3, 615960, Note_on_c, 0, 55, 0
3, 615960, Note_on_c, 0, 57, 100
3, 616020, Note_on_c, 0, 57, 0
3, 616020, Note_on_c, 0, 58, 100
3, 616080, Note_on_c, 0, 58, 0
3, 616080, Note_on_c, 0, 60, 100
3, 616140, Note_on_c, 0, 53, 0
3, 616140, Note_on_c, 0, 55, 100
3, 616200, Note_on_c, 0, 55, 0
3, 616200, Note_on_c, 0, 53, 100
3, 616260, Note_on_c, 0, 53, 0
3, 616260, Note_on_c, 0, 51, 100
3, 616320, Note_on_c, 0, 51, 0
3, 616320, Note_on_c, 0, 60, 0
3, 616320, Note_on_c, 0, 62, 100
3, 616320, Note_on_c, 0, 50, 100
3, 616380, Note_on_c, 0, 62, 0
3, 616380, Note_on_c, 0, 63, 100
3, 616440, Note_on_c, 0, 63, 0
3, 616440, Note_on_c, 0, 62, 100
3, 616500, Note_on_c, 0, 62, 0
3, 616500, Note_on_c, 0, 60, 100
3, 616560, Note_on_c, 0, 60, 0
3, 616620, Note_on_c, 0, 50, 0
3, 616620, Note_on_c, 0, 51, 100
3, 616680, Note_on_c, 0, 51, 0
3, 616680, Note_on_c, 0, 50, 100
3, 616740, Note_on_c, 0, 50, 0
3, 616740, Note_on_c, 0, 48, 100
3, 616800, Note_on_c, 0, 48, 0
3, 616800, Note_on_c, 0, 46, 100
3, 616860, Note_on_c, 0, 60, 100
3, 616920, Note_on_c, 0, 60, 0
3, 616920, Note_on_c, 0, 46, 0
3, 616920, Note_on_c, 0, 62, 100
3, 616920, Note_on_c, 0, 45, 100
3, 616980, Note_on_c, 0, 45, 0
3, 616980, Note_on_c, 0, 62, 0
3, 616980, Note_on_c, 0, 63, 100
3, 616980, Note_on_c, 0, 43, 100
3, 617040, Note_on_c, 0, 43, 0
3, 617040, Note_on_c, 0, 63, 0
3, 617040, Note_on_c, 0, 62, 100
3, 617040, Note_on_c, 0, 43, 100
3, 617070, Note_on_c, 0, 43, 0
3, 617070, Note_on_c, 0, 42, 100
3, 617100, Note_on_c, 0, 42, 0
3, 617100, Note_on_c, 0, 43, 100
3, 617130, Note_on_c, 0, 43, 0
3, 617130, Note_on_c, 0, 42, 100
3, 617160, Note_on_c, 0, 42, 0
3, 617160, Note_on_c, 0, 62, 0
3, 617160, Note_on_c, 0, 60, 100
3, 617160, Note_on_c, 0, 43, 100
3, 617190, Note_on_c, 0, 43, 0
3, 617190, Note_on_c, 0, 42, 100
3, 617220, Note_on_c, 0, 42, 0
3, 617220, Note_on_c, 0, 60, 0
3, 617220, Note_on_c, 0, 58, 100
3, 617220, Note_on_c, 0, 43, 100
3, 617250, Note_on_c, 0, 43, 0
3, 617250, Note_on_c, 0, 42, 100
3, 617280, Note_on_c, 0, 42, 0
3, 617280, Note_on_c, 0, 58, 0
3, 617280, Note_on_c, 0, 57, 100
3, 617280, Note_on_c, 0, 43, 100
3, 617310, Note_on_c, 0, 43, 0
3, 617310, Note_on_c, 0, 42, 100
3, 617340, Note_on_c, 0, 42, 0
3, 617340, Note_on_c, 0, 43, 100
3, 617370, Note_on_c, 0, 43, 0
3, 617370, Note_on_c, 0, 42, 100
3, 617400, Note_on_c, 0, 42, 0
3, 617400, Note_on_c, 0, 57, 0
3, 617400, Note_on_c, 0, 60, 100
3, 617400, Note_on_c, 0, 43, 100
3, 617430, Note_on_c, 0, 43, 0
3, 617430, Note_on_c, 0, 42, 100
3, 617460, Note_on_c, 0, 42, 0
3, 617460, Note_on_c, 0, 40, 100
3, 617490, Note_on_c, 0, 40, 0
3, 617490, Note_on_c, 0, 42, 100
3, 617520, Note_on_c, 0, 42, 0
3, 617520, Note_on_c, 0, 60, 0
3, 617520, Note_on_c, 0, 58, 100
3, 617520, Note_on_c, 0, 43, 100
3, 617640, Note_on_c, 0, 43, 0
3, 617640, Note_on_c, 0, 39, 100
3, 617760, Note_on_c, 0, 39, 0
3, 617760, Note_on_c, 0, 46, 100
3, 617820, Note_on_c, 0, 58, 0
3, 617820, Note_on_c, 0, 57, 100
3, 617880, Note_on_c, 0, 57, 0
3, 617880, Note_on_c, 0, 58, 100
3, 617940, Note_on_c, 0, 58, 0
3, 617940, Note_on_c, 0, 60, 100
3, 618000, Note_on_c, 0, 60, 0
3, 618000, Note_on_c, 0, 46, 0
3, 618000, Note_on_c, 0, 62, 100
3, 618120, Note_on_c, 0, 62, 0
3, 618120, Note_on_c, 0, 58, 100
3, 618240, Note_on_c, 0, 58, 0
3, 618240, Note_on_c, 0, 63, 100
3, 618540, Note_on_c, 0, 63, 0
3, 618540, Note_on_c, 0, 62, 100
3, 618600, Note_on_c, 0, 62, 0
3, 618600, Note_on_c, 0, 63, 100
3, 618660, Note_on_c, 0, 63, 0
3, 618660, Note_on_c, 0, 65, 100
3, 618720, Note_on_c, 0, 65, 0
3, 618720, Note_on_c, 0, 63, 100
3, 618840, Note_on_c, 0, 63, 0
3, 618840, Note_on_c, 0, 62, 100
3, 618960, Note_on_c, 0, 62, 0
3, 618960, Note_on_c, 0, 60, 100
3, 619020, Note_on_c, 0, 60, 0
3, 619020, Note_on_c, 0, 58, 100
3, 619080, Note_on_c, 0, 58, 0
3, 619080, Note_on_c, 0, 60, 100
3, 619140, Note_on_c, 0, 60, 0
3, 619140, Note_on_c, 0, 62, 100
3, 619200, Note_on_c, 0, 62, 0
3, 619200, Note_on_c, 0, 60, 100
3, 619320, Note_on_c, 0, 60, 0
3, 619320, Note_on_c, 0, 58, 100
3, 619440, Note_on_c, 0, 58, 0
3, 619440, Note_on_c, 0, 57, 100
3, 619560, Note_on_c, 0, 57, 0
3, 619560, Note_on_c, 0, 55, 100
3, 619680, Note_on_c, 0, 55, 0
3, 619680, Note_on_c, 0, 57, 100
3, 619800, Note_on_c, 0, 57, 0
3, 619800, Note_on_c, 0, 53, 100
3, 619920, Note_on_c, 0, 53, 0
3, 619920, Note_on_c, 0, 55, 100
3, 620040, Note_on_c, 0, 55, 0
3, 620040, Note_on_c, 0, 57, 100
3, 620160, Note_on_c, 0, 57, 0
3, 620160, Note_on_c, 0, 58, 100
3, 620220, Note_on_c, 0, 58, 0
3, 620220, Note_on_c, 0, 60, 100
3, 620280, Note_on_c, 0, 60, 0
3, 620280, Note_on_c, 0, 62, 100
3, 620340, Note_on_c, 0, 62, 0
3, 620340, Note_on_c, 0, 60, 100
3, 620400, Note_on_c, 0, 60, 0
3, 620400, Note_on_c, 0, 58, 100
3, 620520, Note_on_c, 0, 58, 0
3, 620520, Note_on_c, 0, 57, 100
3, 620640, Note_on_c, 0, 57, 0
3, 620640, Note_on_c, 0, 55, 100
3, 620760, Note_on_c, 0, 55, 0
3, 620760, Note_on_c, 0, 54, 100
3, 620880, Note_on_c, 0, 54, 0
3, 620880, Note_on_c, 0, 55, 100
3, 621000, Note_on_c, 0, 55, 0
3, 621000, Note_on_c, 0, 52, 100
3, 621120, Note_on_c, 0, 52, 0
3, 621120, Note_on_c, 0, 53, 100
3, 621240, Note_on_c, 0, 53, 0
3, 621240, Note_on_c, 0, 55, 100
3, 621360, Note_on_c, 0, 55, 0
3, 621360, Note_on_c, 0, 57, 100
3, 621420, Note_on_c, 0, 57, 0
3, 621420, Note_on_c, 0, 55, 100
3, 621480, Note_on_c, 0, 55, 0
3, 621480, Note_on_c, 0, 57, 100
3, 621540, Note_on_c, 0, 57, 0
3, 621540, Note_on_c, 0, 58, 100
3, 621600, Note_on_c, 0, 58, 0
3, 621600, Note_on_c, 0, 57, 100
3, 621720, Note_on_c, 0, 57, 0
3, 621720, Note_on_c, 0, 55, 100
3, 621840, Note_on_c, 0, 55, 0
3, 621840, Note_on_c, 0, 53, 100
3, 621840, Note_on_c, 0, 50, 100
3, 621900, Note_on_c, 0, 50, 0
3, 621900, Note_on_c, 0, 53, 0
3, 621900, Note_on_c, 0, 55, 100
3, 621900, Note_on_c, 0, 52, 100
3, 621960, Note_on_c, 0, 52, 0
3, 621960, Note_on_c, 0, 55, 0
3, 621960, Note_on_c, 0, 57, 100
3, 621960, Note_on_c, 0, 53, 100
3, 622020, Note_on_c, 0, 53, 0
3, 622020, Note_on_c, 0, 55, 100
3, 622080, Note_on_c, 0, 55, 0
3, 622080, Note_on_c, 0, 57, 100
3, 622140, Note_on_c, 0, 57, 0
3, 622140, Note_on_c, 0, 59, 100
3, 622200, Note_on_c, 0, 59, 0
3, 622200, Note_on_c, 0, 61, 100
3, 622260, Note_on_c, 0, 61, 0
3, 622260, Note_on_c, 0, 62, 100
3, 622320, Note_on_c, 0, 62, 0
3, 622320, Note_on_c, 0, 64, 100
3, 622380, Note_on_c, 0, 57, 0
3, 622380, Note_on_c, 0, 58, 100
3, 622440, Note_on_c, 0, 58, 0
3, 622440, Note_on_c, 0, 64, 0
3, 622440, Note_on_c, 0, 69, 100
3, 622440, Note_on_c, 0, 57, 100
3, 622500, Note_on_c, 0, 57, 0
3, 622500, Note_on_c, 0, 55, 100
3, 622560, Note_on_c, 0, 55, 0
3, 622560, Note_on_c, 0, 53, 100
3, 622680, Note_on_c, 0, 53, 0
3, 622680, Note_on_c, 0, 69, 0
3, 622680, Note_on_c, 0, 67, 100
3, 622680, Note_on_c, 0, 52, 100
3, 622800, Note_on_c, 0, 52, 0
3, 622800, Note_on_c, 0, 67, 0
3, 622800, Note_on_c, 0, 65, 100
3, 622800, Note_on_c, 0, 50, 100
3, 622920, Note_on_c, 0, 65, 0
3, 622920, Note_on_c, 0, 69, 100
3, 623040, Note_on_c, 0, 69, 0
3, 623040, Note_on_c, 0, 62, 100
3, 623160, Note_on_c, 0, 50, 0
3, 623160, Note_on_c, 0, 49, 100
3, 623220, Note_on_c, 0, 49, 0
3, 623220, Note_on_c, 0, 47, 100
3, 623280, Note_on_c, 0, 47, 0
3, 623280, Note_on_c, 0, 62, 0
3, 623280, Note_on_c, 0, 49, 100
3, 623520, Note_on_c, 0, 49, 0
3, 623520, Note_on_c, 0, 50, 100
3, 623580, Note_on_c, 0, 49, 100
3, 623640, Note_on_c, 0, 49, 0
3, 623640, Note_on_c, 0, 50, 100
3, 623700, Note_on_c, 0, 50, 0
3, 623700, Note_on_c, 0, 52, 100
3, 623760, Note_on_c, 0, 52, 0
3, 623760, Note_on_c, 0, 53, 100
3, 623820, Note_on_c, 0, 53, 0
3, 623820, Note_on_c, 0, 57, 100
3, 623880, Note_on_c, 0, 57, 0
3, 623880, Note_on_c, 0, 50, 0
3, 623880, Note_on_c, 0, 55, 100
3, 623880, Note_on_c, 0, 52, 100
3, 623940, Note_on_c, 0, 55, 0
3, 623940, Note_on_c, 0, 58, 100
3, 624000, Note_on_c, 0, 58, 0
3, 624000, Note_on_c, 0, 52, 0
3, 624000, Note_on_c, 0, 57, 100
3, 624000, Note_on_c, 0, 53, 100
3, 624360, Note_on_c, 0, 53, 0
3, 624360, Note_on_c, 0, 57, 0
3, 624360, Note_on_c, 0, 58, 100
3, 624360, Note_on_c, 0, 55, 100
3, 624480, Note_on_c, 0, 55, 0
3, 624480, Note_on_c, 0, 58, 0
3, 624480, Note_on_c, 0, 57, 100
3, 624480, Note_on_c, 0, 53, 100
3, 624600, Note_on_c, 0, 53, 0
3, 624600, Note_on_c, 0, 57, 0
3, 624600, Note_on_c, 0, 55, 100
3, 624600, Note_on_c, 0, 52, 100
3, 624720, Note_on_c, 0, 52, 0
3, 624720, Note_on_c, 0, 55, 0
3, 624720, Note_on_c, 0, 53, 100
3, 624720, Note_on_c, 0, 50, 100
3, 624780, Note_on_c, 0, 53, 0
3, 624780, Note_on_c, 0, 55, 100
3, 624840, Note_on_c, 0, 55, 0
3, 624840, Note_on_c, 0, 57, 100
3, 624960, Note_on_c, 0, 57, 0
3, 624960, Note_on_c, 0, 50, 100
3, 625020, Note_on_c, 0, 50, 0
3, 625020, Note_on_c, 0, 49, 100
3, 625080, Note_on_c, 0, 49, 0
3, 625080, Note_on_c, 0, 50, 0
3, 625080, Note_on_c, 0, 50, 100
3, 625140, Note_on_c, 0, 50, 0
3, 625140, Note_on_c, 0, 52, 100
3, 625200, Note_on_c, 0, 52, 0
3, 625200, Note_on_c, 0, 53, 100
3, 625320, Note_on_c, 0, 53, 0
3, 625320, Note_on_c, 0, 62, 100
3, 625320, Note_on_c, 0, 50, 100
3, 625440, Note_on_c, 0, 50, 0
3, 625440, Note_on_c, 0, 55, 100
3, 625560, Note_on_c, 0, 62, 0
3, 625560, Note_on_c, 0, 67, 100
3, 625620, Note_on_c, 0, 67, 0
3, 625620, Note_on_c, 0, 66, 100
3, 625680, Note_on_c, 0, 66, 0
3, 625680, Note_on_c, 0, 67, 100
3, 625740, Note_on_c, 0, 55, 0
3, 625740, Note_on_c, 0, 54, 100
3, 625800, Note_on_c, 0, 54, 0
3, 625800, Note_on_c, 0, 67, 0
3, 625800, Note_on_c, 0, 58, 100
3, 625800, Note_on_c, 0, 55, 100
3, 625860, Note_on_c, 0, 55, 0
3, 625860, Note_on_c, 0, 58, 0
3, 625860, Note_on_c, 0, 60, 100
3, 625860, Note_on_c, 0, 57, 100
3, 625920, Note_on_c, 0, 57, 0
3, 625920, Note_on_c, 0, 60, 0
3, 625920, Note_on_c, 0, 62, 100
3, 625920, Note_on_c, 0, 55, 100
3, 625980, Note_on_c, 0, 62, 0
3, 625980, Note_on_c, 0, 60, 100
3, 626040, Note_on_c, 0, 60, 0
3, 626040, Note_on_c, 0, 55, 0
3, 626040, Note_on_c, 0, 58, 100
3, 626040, Note_on_c, 0, 53, 100
3, 626100, Note_on_c, 0, 58, 0
3, 626100, Note_on_c, 0, 57, 100
3, 626160, Note_on_c, 0, 57, 0
3, 626160, Note_on_c, 0, 53, 0
3, 626160, Note_on_c, 0, 55, 100
3, 626160, Note_on_c, 0, 52, 100
3, 626220, Note_on_c, 0, 55, 0
3, 626220, Note_on_c, 0, 57, 100
3, 626280, Note_on_c, 0, 57, 0
3, 626280, Note_on_c, 0, 58, 100
3, 626460, Note_on_c, 0, 52, 0
3, 626460, Note_on_c, 0, 50, 100
3, 626520, Note_on_c, 0, 50, 0
3, 626520, Note_on_c, 0, 58, 0
3, 626520, Note_on_c, 0, 55, 100
3, 626520, Note_on_c, 0, 52, 100
3, 626580, Note_on_c, 0, 52, 0
3, 626580, Note_on_c, 0, 53, 100
3, 626640, Note_on_c, 0, 53, 0
3, 626640, Note_on_c, 0, 55, 0
3, 626640, Note_on_c, 0, 59, 100
3, 626640, Note_on_c, 0, 55, 100
3, 626760, Note_on_c, 0, 55, 0
3, 626760, Note_on_c, 0, 59, 0
3, 626760, Note_on_c, 0, 64, 100
3, 626760, Note_on_c, 0, 52, 100
3, 626880, Note_on_c, 0, 52, 0
3, 626880, Note_on_c, 0, 57, 100
3, 626940, Note_on_c, 0, 64, 0
3, 626940, Note_on_c, 0, 62, 100
3, 627000, Note_on_c, 0, 62, 0
3, 627000, Note_on_c, 0, 64, 100
3, 627060, Note_on_c, 0, 64, 0
3, 627060, Note_on_c, 0, 65, 100
3, 627120, Note_on_c, 0, 65, 0
3, 627120, Note_on_c, 0, 67, 100
3, 627180, Note_on_c, 0, 57, 0
3, 627180, Note_on_c, 0, 55, 100
3, 627240, Note_on_c, 0, 55, 0
3, 627240, Note_on_c, 0, 67, 0
3, 627240, Note_on_c, 0, 61, 100
3, 627240, Note_on_c, 0, 57, 100
3, 627300, Note_on_c, 0, 57, 0
3, 627300, Note_on_c, 0, 58, 100
3, 627360, Note_on_c, 0, 58, 0
3, 627360, Note_on_c, 0, 57, 100
3, 627480, Note_on_c, 0, 57, 0
3, 627480, Note_on_c, 0, 61, 0
3, 627480, Note_on_c, 0, 61, 100
3, 627480, Note_on_c, 0, 52, 100
3, 627600, Note_on_c, 0, 52, 0
3, 627600, Note_on_c, 0, 61, 0
3, 627600, Note_on_c, 0, 62, 100
3, 627600, Note_on_c, 0, 53, 100
3, 627900, Note_on_c, 0, 62, 0
3, 627900, Note_on_c, 0, 59, 100
3, 627960, Note_on_c, 0, 59, 0
3, 627960, Note_on_c, 0, 53, 0
3, 627960, Note_on_c, 0, 61, 100
3, 627960, Note_on_c, 0, 52, 100
3, 628020, Note_on_c, 0, 52, 0
3, 628020, Note_on_c, 0, 61, 0
3, 628020, Note_on_c, 0, 62, 100
3, 628020, Note_on_c, 0, 50, 100
3, 628080, Note_on_c, 0, 50, 0
3, 628080, Note_on_c, 0, 62, 0
3, 628080, Note_on_c, 0, 64, 100
3, 628080, Note_on_c, 0, 49, 100
3, 628140, Note_on_c, 0, 49, 0
3, 628140, Note_on_c, 0, 64, 0
3, 628140, Note_on_c, 0, 61, 100
3, 628140, Note_on_c, 0, 45, 100
3, 628200, Note_on_c, 0, 45, 0
3, 628200, Note_on_c, 0, 61, 0
3, 628200, Note_on_c, 0, 62, 100
3, 628200, Note_on_c, 0, 47, 100
3, 628260, Note_on_c, 0, 47, 0
3, 628260, Note_on_c, 0, 62, 0
3, 628260, Note_on_c, 0, 64, 100
3, 628260, Note_on_c, 0, 49, 100
3, 628320, Note_on_c, 0, 49, 0
3, 628320, Note_on_c, 0, 64, 0
3, 628320, Note_on_c, 0, 57, 100
3, 628320, Note_on_c, 0, 50, 100
3, 628380, Note_on_c, 0, 50, 0
3, 628380, Note_on_c, 0, 49, 100
3, 628440, Note_on_c, 0, 49, 0
3, 628440, Note_on_c, 0, 57, 0
3, 628440, Note_on_c, 0, 50, 100
3, 628500, Note_on_c, 0, 50, 0
3, 628500, Note_on_c, 0, 52, 100
3, 628560, Note_on_c, 0, 52, 0
3, 628560, Note_on_c, 0, 50, 100
3, 628560, Note_on_c, 0, 53, 100
3, 628620, Note_on_c, 0, 50, 0
3, 628620, Note_on_c, 0, 52, 100
3, 628680, Note_on_c, 0, 52, 0
3, 628680, Note_on_c, 0, 53, 100
3, 628740, Note_on_c, 0, 53, 0
3, 628740, Note_on_c, 0, 55, 100
3, 628800, Note_on_c, 0, 55, 0
3, 628800, Note_on_c, 0, 57, 100
3, 628860, Note_on_c, 0, 53, 0
3, 628860, Note_on_c, 0, 52, 100
3, 628920, Note_on_c, 0, 52, 0
3, 628920, Note_on_c, 0, 53, 100
3, 628980, Note_on_c, 0, 53, 0
3, 628980, Note_on_c, 0, 55, 100
3, 629040, Note_on_c, 0, 55, 0
3, 629040, Note_on_c, 0, 57, 100
3, 629100, Note_on_c, 0, 57, 0
3, 629100, Note_on_c, 0, 58, 100
3, 629160, Note_on_c, 0, 58, 0
3, 629160, Note_on_c, 0, 57, 0
3, 629160, Note_on_c, 0, 57, 100
3, 629220, Note_on_c, 0, 57, 0
3, 629220, Note_on_c, 0, 55, 100
3, 629280, Note_on_c, 0, 55, 0
3, 629280, Note_on_c, 0, 53, 100
3, 629280, Note_on_c, 0, 38, 100
3, 629340, Note_on_c, 0, 38, 0
3, 629340, Note_on_c, 0, 40, 100
3, 629400, Note_on_c, 0, 40, 0
3, 629400, Note_on_c, 0, 41, 100
3, 629460, Note_on_c, 0, 41, 0
3, 629460, Note_on_c, 0, 43, 100
3, 629520, Note_on_c, 0, 43, 0
3, 629520, Note_on_c, 0, 45, 100
3, 629580, Note_on_c, 0, 53, 0
3, 629580, Note_on_c, 0, 52, 100
3, 629640, Note_on_c, 0, 52, 0
3, 629640, Note_on_c, 0, 50, 100
3, 629700, Note_on_c, 0, 50, 0
3, 629700, Note_on_c, 0, 49, 100
3, 629760, Note_on_c, 0, 49, 0
3, 629760, Note_on_c, 0, 50, 100
3, 629820, Note_on_c, 0, 50, 0
3, 629820, Note_on_c, 0, 57, 100
3, 629880, Note_on_c, 0, 57, 0
3, 629880, Note_on_c, 0, 45, 0
3, 629880, Note_on_c, 0, 59, 100
3, 629880, Note_on_c, 0, 43, 100
3, 629940, Note_on_c, 0, 59, 0
3, 629940, Note_on_c, 0, 61, 100
3, 630000, Note_on_c, 0, 61, 0
3, 630000, Note_on_c, 0, 43, 0
3, 630000, Note_on_c, 0, 62, 100
3, 630000, Note_on_c, 0, 41, 100
3, 630060, Note_on_c, 0, 62, 0
3, 630060, Note_on_c, 0, 64, 100
3, 630120, Note_on_c, 0, 64, 0
3, 630120, Note_on_c, 0, 41, 0
3, 630120, Note_on_c, 0, 62, 100
3, 630120, Note_on_c, 0, 40, 100
3, 630180, Note_on_c, 0, 62, 0
3, 630180, Note_on_c, 0, 61, 100
3, 630240, Note_on_c, 0, 61, 0
3, 630240, Note_on_c, 0, 40, 0
3, 630240, Note_on_c, 0, 62, 100
3, 630240, Note_on_c, 0, 41, 100
3, 630300, Note_on_c, 0, 41, 0
3, 630300, Note_on_c, 0, 45, 100
3, 630360, Note_on_c, 0, 45, 0
3, 630360, Note_on_c, 0, 62, 0
3, 630360, Note_on_c, 0, 55, 100
3, 630360, Note_on_c, 0, 47, 100
3, 630420, Note_on_c, 0, 47, 0
3, 630420, Note_on_c, 0, 49, 100
3, 630480, Note_on_c, 0, 49, 0
3, 630480, Note_on_c, 0, 55, 0
3, 630480, Note_on_c, 0, 54, 100
3, 630480, Note_on_c, 0, 50, 100
3, 630600, Note_on_c, 0, 54, 0
3, 630600, Note_on_c, 0, 58, 100
3, 630780, Note_on_c, 0, 58, 0
3, 630780, Note_on_c, 0, 57, 100
3, 630840, Note_on_c, 0, 57, 0
3, 630840, Note_on_c, 0, 55, 100
3, 630900, Note_on_c, 0, 55, 0
3, 630900, Note_on_c, 0, 57, 100
3, 630960, Note_on_c, 0, 57, 0
3, 630960, Note_on_c, 0, 58, 100
3, 631020, Note_on_c, 0, 58, 0
3, 631020, Note_on_c, 0, 60, 100
3, 631080, Note_on_c, 0, 60, 0
3, 631080, Note_on_c, 0, 58, 100
3, 631140, Note_on_c, 0, 58, 0
3, 631140, Note_on_c, 0, 57, 100
3, 631200, Note_on_c, 0, 57, 0
3, 631200, Note_on_c, 0, 55, 100
3, 631260, Note_on_c, 0, 55, 0
3, 631260, Note_on_c, 0, 50, 100
3, 631320, Note_on_c, 0, 50, 0
3, 631320, Note_on_c, 0, 52, 100
3, 631380, Note_on_c, 0, 52, 0
3, 631380, Note_on_c, 0, 54, 100
3, 631440, Note_on_c, 0, 54, 0
3, 631440, Note_on_c, 0, 55, 100
3, 631500, Note_on_c, 0, 55, 0
3, 631500, Note_on_c, 0, 57, 100
3, 631560, Note_on_c, 0, 57, 0
3, 631560, Note_on_c, 0, 58, 100
3, 631620, Note_on_c, 0, 58, 0
3, 631620, Note_on_c, 0, 60, 100
3, 631680, Note_on_c, 0, 60, 0
3, 631680, Note_on_c, 0, 58, 100
3, 631740, Note_on_c, 0, 58, 0
3, 631740, Note_on_c, 0, 57, 100
3, 631800, Note_on_c, 0, 57, 0
3, 631800, Note_on_c, 0, 55, 100
3, 631860, Note_on_c, 0, 55, 0
3, 631860, Note_on_c, 0, 54, 100
3, 631890, Note_on_c, 0, 54, 0
3, 631890, Note_on_c, 0, 52, 100
3, 631920, Note_on_c, 0, 52, 0
3, 631920, Note_on_c, 0, 54, 100
3, 631980, Note_on_c, 0, 54, 0
3, 631980, Note_on_c, 0, 55, 100
3, 632040, Note_on_c, 0, 55, 0
3, 632040, Note_on_c, 0, 57, 100
3, 632160, Note_on_c, 0, 57, 0
3, 632160, Note_on_c, 0, 50, 100
3, 632220, Note_on_c, 0, 50, 0
3, 632220, Note_on_c, 0, 45, 100
3, 632250, Note_on_c, 0, 45, 0
3, 632250, Note_on_c, 0, 43, 100
3, 632280, Note_on_c, 0, 43, 0
3, 632280, Note_on_c, 0, 42, 100
3, 632310, Note_on_c, 0, 42, 0
3, 632310, Note_on_c, 0, 43, 100
3, 632340, Note_on_c, 0, 43, 0
3, 632340, Note_on_c, 0, 45, 100
3, 632400, Note_on_c, 0, 45, 0
3, 632400, Note_on_c, 0, 38, 100
3, 632640, Note_on_c, 0, 38, 0
3, 632640, Note_on_c, 0, 50, 0
3, 639120, Note_on_c, 0, 57, 100
3, 639360, Note_on_c, 0, 57, 0
3, 639360, Note_on_c, 0, 50, 100
3, 639840, Note_on_c, 0, 50, 0
3, 639840, Note_on_c, 0, 53, 100
3, 639840, Note_on_c, 0, 57, 100
3, 640080, Note_on_c, 0, 57, 0
3, 640080, Note_on_c, 0, 53, 0
3, 640080, Note_on_c, 0, 57, 100
3, 640200, Note_on_c, 0, 55, 100
3, 640320, Note_on_c, 0, 55, 0
3, 640320, Note_on_c, 0, 53, 100
3, 640440, Note_on_c, 0, 53, 0
3, 640440, Note_on_c, 0, 52, 100
3, 640560, Note_on_c, 0, 52, 0
3, 640560, Note_on_c, 0, 57, 0
3, 640560, Note_on_c, 0, 58, 100
3, 640560, Note_on_c, 0, 50, 100
3, 640680, Note_on_c, 0, 50, 0
3, 640680, Note_on_c, 0, 52, 100
3, 640800, Note_on_c, 0, 52, 0
3, 640800, Note_on_c, 0, 58, 0
3, 640800, Note_on_c, 0, 57, 100
3, 640800, Note_on_c, 0, 53, 100
3, 640920, Note_on_c, 0, 53, 0
3, 640920, Note_on_c, 0, 55, 100
3, 641040, Note_on_c, 0, 55, 0
3, 641040, Note_on_c, 0, 57, 0
3, 641040, Note_on_c, 0, 55, 100
3, 641040, Note_on_c, 0, 57, 100
3, 641160, Note_on_c, 0, 57, 0
3, 641160, Note_on_c, 0, 58, 100
3, 641280, Note_on_c, 0, 58, 0
3, 641280, Note_on_c, 0, 55, 0
3, 641280, Note_on_c, 0, 53, 100
3, 641280, Note_on_c, 0, 57, 100
3, 641640, Note_on_c, 0, 57, 0
3, 641640, Note_on_c, 0, 53, 0
3, 641640, Note_on_c, 0, 52, 100
3, 641760, Note_on_c, 0, 52, 0
3, 641760, Note_on_c, 0, 53, 100
3, 641880, Note_on_c, 0, 53, 0
3, 641880, Note_on_c, 0, 55, 100
3, 642000, Note_on_c, 0, 55, 0
3, 642000, Note_on_c, 0, 50, 100
3, 642000, Note_on_c, 0, 57, 100
3, 642240, Note_on_c, 0, 57, 0
3, 642240, Note_on_c, 0, 50, 0
3, 642240, Note_on_c, 0, 45, 100
3, 642360, Note_on_c, 0, 55, 100
3, 642480, Note_on_c, 0, 55, 0
3, 642480, Note_on_c, 0, 53, 100
3, 642600, Note_on_c, 0, 53, 0
3, 642600, Note_on_c, 0, 52, 100
3, 642720, Note_on_c, 0, 52, 0
3, 642720, Note_on_c, 0, 45, 0
3, 642720, Note_on_c, 0, 46, 100
3, 642720, Note_on_c, 0, 50, 100
3, 642960, Note_on_c, 0, 50, 0
3, 642960, Note_on_c, 0, 46, 0
3, 642960, Note_on_c, 0, 50, 100
3, 643080, Note_on_c, 0, 48, 100
3, 643200, Note_on_c, 0, 48, 0
3, 643200, Note_on_c, 0, 46, 100
3, 643320, Note_on_c, 0, 46, 0
3, 643320, Note_on_c, 0, 45, 100
3, 643440, Note_on_c, 0, 45, 0
3, 643440, Note_on_c, 0, 50, 0
3, 643440, Note_on_c, 0, 43, 100
3, 643440, Note_on_c, 0, 51, 100
3, 643560, Note_on_c, 0, 43, 0
3, 643560, Note_on_c, 0, 45, 100
3, 643680, Note_on_c, 0, 45, 0
3, 643680, Note_on_c, 0, 51, 0
3, 643680, Note_on_c, 0, 46, 100
3, 643680, Note_on_c, 0, 50, 100
3, 643800, Note_on_c, 0, 46, 0
3, 643800, Note_on_c, 0, 48, 100
3, 643920, Note_on_c, 0, 48, 0
3, 643920, Note_on_c, 0, 50, 0
3, 643920, Note_on_c, 0, 48, 100
3, 643920, Note_on_c, 0, 50, 100
3, 644040, Note_on_c, 0, 50, 0
3, 644040, Note_on_c, 0, 51, 100
3, 644160, Note_on_c, 0, 51, 0
3, 644160, Note_on_c, 0, 48, 0
3, 644160, Note_on_c, 0, 46, 100
3, 644160, Note_on_c, 0, 50, 100
3, 644520, Note_on_c, 0, 50, 0
3, 644520, Note_on_c, 0, 46, 0
3, 644520, Note_on_c, 0, 45, 100
3, 644520, Note_on_c, 0, 49, 100
3, 644640, Note_on_c, 0, 49, 0
3, 644640, Note_on_c, 0, 45, 0
3, 644640, Note_on_c, 0, 47, 100
3, 644640, Note_on_c, 0, 50, 100
3, 644760, Note_on_c, 0, 50, 0
3, 644760, Note_on_c, 0, 47, 0
3, 644760, Note_on_c, 0, 49, 100
3, 644760, Note_on_c, 0, 52, 100
3, 644880, Note_on_c, 0, 52, 0
3, 644880, Note_on_c, 0, 49, 0
3, 644880, Note_on_c, 0, 53, 100
3, 644880, Note_on_c, 0, 50, 100
3, 645240, Note_on_c, 0, 50, 0
3, 645240, Note_on_c, 0, 53, 0
3, 645240, Note_on_c, 0, 52, 100
3, 645240, Note_on_c, 0, 49, 100
3, 645360, Note_on_c, 0, 49, 0
3, 645360, Note_on_c, 0, 52, 0
3, 645360, Note_on_c, 0, 50, 100
3, 645360, Note_on_c, 0, 53, 100
3, 645480, Note_on_c, 0, 53, 0
3, 645480, Note_on_c, 0, 50, 0
3, 645480, Note_on_c, 0, 52, 100
3, 645480, Note_on_c, 0, 55, 100
3, 645600, Note_on_c, 0, 55, 0
3, 645600, Note_on_c, 0, 52, 0
3, 645600, Note_on_c, 0, 53, 100
3, 645600, Note_on_c, 0, 57, 100
3, 645960, Note_on_c, 0, 57, 0
3, 645960, Note_on_c, 0, 53, 0
3, 645960, Note_on_c, 0, 52, 100
3, 645960, Note_on_c, 0, 55, 100
3, 646080, Note_on_c, 0, 55, 0
3, 646080, Note_on_c, 0, 52, 0
3, 646080, Note_on_c, 0, 53, 100
3, 646080, Note_on_c, 0, 57, 100
3, 646200, Note_on_c, 0, 57, 0
3, 646200, Note_on_c, 0, 53, 0
3, 646200, Note_on_c, 0, 55, 100
3, 646200, Note_on_c, 0, 58, 100
3, 646320, Note_on_c, 0, 58, 0
3, 646320, Note_on_c, 0, 55, 0
3, 646320, Note_on_c, 0, 53, 100
3, 646320, Note_on_c, 0, 57, 100
3, 646440, Note_on_c, 0, 57, 0
3, 646440, Note_on_c, 0, 53, 0
3, 646440, Note_on_c, 0, 52, 100
3, 646440, Note_on_c, 0, 55, 100
3, 646560, Note_on_c, 0, 55, 0
3, 646560, Note_on_c, 0, 52, 0
3, 646560, Note_on_c, 0, 50, 100
3, 646560, Note_on_c, 0, 53, 100
3, 646920, Note_on_c, 0, 53, 0
3, 646920, Note_on_c, 0, 50, 0
3, 646920, Note_on_c, 0, 48, 100
3, 646920, Note_on_c, 0, 52, 100
3, 646980, Note_on_c, 0, 52, 0
3, 646980, Note_on_c, 0, 48, 0
3, 646980, Note_on_c, 0, 46, 100
3, 646980, Note_on_c, 0, 55, 100
3, 647040, Note_on_c, 0, 55, 0
3, 647040, Note_on_c, 0, 46, 0
3, 647040, Note_on_c, 0, 45, 100
3, 647040, Note_on_c, 0, 53, 100
3, 647100, Note_on_c, 0, 45, 0
3, 647100, Note_on_c, 0, 43, 100
3, 647160, Note_on_c, 0, 43, 0
3, 647160, Note_on_c, 0, 53, 0
3, 647160, Note_on_c, 0, 41, 100
3, 647160, Note_on_c, 0, 50, 100
3, 647220, Note_on_c, 0, 41, 0
3, 647220, Note_on_c, 0, 40, 100
3, 647280, Note_on_c, 0, 40, 0
3, 647280, Note_on_c, 0, 50, 0
3, 647280, Note_on_c, 0, 38, 100
3, 647280, Note_on_c, 0, 57, 100
3, 647400, Note_on_c, 0, 57, 0
3, 647400, Note_on_c, 0, 62, 100
3, 647460, Note_on_c, 0, 62, 0
3, 647460, Note_on_c, 0, 60, 100
3, 647520, Note_on_c, 0, 60, 0
3, 647520, Note_on_c, 0, 58, 100
3, 647580, Note_on_c, 0, 38, 0
3, 647580, Note_on_c, 0, 37, 100
3, 647640, Note_on_c, 0, 37, 0
3, 647640, Note_on_c, 0, 58, 0
3, 647640, Note_on_c, 0, 57, 100
3, 647640, Note_on_c, 0, 38, 100
3, 647700, Note_on_c, 0, 38, 0
3, 647700, Note_on_c, 0, 57, 0
3, 647700, Note_on_c, 0, 55, 100
3, 647700, Note_on_c, 0, 40, 100
3, 647760, Note_on_c, 0, 40, 0
3, 647760, Note_on_c, 0, 55, 0
3, 647760, Note_on_c, 0, 41, 100
3, 647760, Note_on_c, 0, 57, 100
3, 647880, Note_on_c, 0, 57, 0
3, 647880, Note_on_c, 0, 41, 0
3, 647880, Note_on_c, 0, 58, 100
3, 647880, Note_on_c, 0, 43, 100
3, 648000, Note_on_c, 0, 43, 0
3, 648000, Note_on_c, 0, 58, 0
3, 648000, Note_on_c, 0, 45, 100
3, 648000, Note_on_c, 0, 57, 100
3, 648060, Note_on_c, 0, 57, 0
3, 648060, Note_on_c, 0, 55, 100
3, 648120, Note_on_c, 0, 55, 0
3, 648120, Note_on_c, 0, 53, 100
3, 648180, Note_on_c, 0, 53, 0
3, 648180, Note_on_c, 0, 52, 100
3, 648240, Note_on_c, 0, 52, 0
3, 648240, Note_on_c, 0, 50, 100
3, 648360, Note_on_c, 0, 45, 0
3, 648360, Note_on_c, 0, 46, 100
3, 648420, Note_on_c, 0, 46, 0
3, 648420, Note_on_c, 0, 48, 100
3, 648480, Note_on_c, 0, 48, 0
3, 648480, Note_on_c, 0, 46, 100
3, 648720, Note_on_c, 0, 46, 0
3, 648720, Note_on_c, 0, 45, 100
3, 648840, Note_on_c, 0, 50, 0
3, 648840, Note_on_c, 0, 49, 100
3, 648900, Note_on_c, 0, 49, 0
3, 648900, Note_on_c, 0, 47, 100
3, 648960, Note_on_c, 0, 47, 0
3, 648960, Note_on_c, 0, 49, 100
3, 649080, Note_on_c, 0, 45, 0
3, 649080, Note_on_c, 0, 43, 100
3, 649200, Note_on_c, 0, 43, 0
3, 649200, Note_on_c, 0, 49, 0
3, 649200, Note_on_c, 0, 50, 100
3, 649200, Note_on_c, 0, 41, 100
3, 649320, Note_on_c, 0, 50, 0
3, 649320, Note_on_c, 0, 57, 100
3, 649560, Note_on_c, 0, 57, 0
3, 649560, Note_on_c, 0, 41, 0
3, 649560, Note_on_c, 0, 40, 100
3, 649560, Note_on_c, 0, 55, 100
3, 649680, Note_on_c, 0, 55, 0
3, 649680, Note_on_c, 0, 40, 0
3, 649680, Note_on_c, 0, 41, 100
3, 649680, Note_on_c, 0, 57, 100
3, 649800, Note_on_c, 0, 57, 0
3, 649800, Note_on_c, 0, 41, 0
3, 649800, Note_on_c, 0, 43, 100
3, 649800, Note_on_c, 0, 59, 100
3, 649920, Note_on_c, 0, 59, 0
3, 649920, Note_on_c, 0, 43, 0
3, 649920, Note_on_c, 0, 45, 100
3, 649920, Note_on_c, 0, 60, 100
3, 650100, Note_on_c, 0, 60, 0
3, 650100, Note_on_c, 0, 59, 100
3, 650130, Note_on_c, 0, 59, 0
3, 650130, Note_on_c, 0, 60, 100
3, 650160, Note_on_c, 0, 60, 0
3, 650160, Note_on_c, 0, 62, 100
3, 650400, Note_on_c, 0, 62, 0
3, 650400, Note_on_c, 0, 45, 0
3, 650460, Note_on_c, 0, 45, 100
3, 650520, Note_on_c, 0, 45, 0
3, 650520, Note_on_c, 0, 43, 100
3, 650580, Note_on_c, 0, 43, 0
3, 650580, Note_on_c, 0, 41, 100
3, 650640, Note_on_c, 0, 41, 0
3, 650640, Note_on_c, 0, 40, 100
3, 650640, Note_on_c, 0, 52, 100
3, 650700, Note_on_c, 0, 52, 0
3, 650700, Note_on_c, 0, 40, 0
3, 650700, Note_on_c, 0, 41, 100
3, 650700, Note_on_c, 0, 50, 100
3, 650760, Note_on_c, 0, 50, 0
3, 650760, Note_on_c, 0, 41, 0
3, 650760, Note_on_c, 0, 40, 100
3, 650760, Note_on_c, 0, 48, 100
3, 650820, Note_on_c, 0, 48, 0
3, 650820, Note_on_c, 0, 40, 0
3, 650820, Note_on_c, 0, 38, 100
3, 650820, Note_on_c, 0, 47, 100
3, 650880, Note_on_c, 0, 47, 0
3, 650880, Note_on_c, 0, 38, 0
3, 650880, Note_on_c, 0, 45, 100
3, 650880, Note_on_c, 0, 36, 100
3, 651000, Note_on_c, 0, 36, 0
3, 651180, Note_on_c, 0, 45, 0
3, 651180, Note_on_c, 0, 44, 100
3, 651240, Note_on_c, 0, 44, 0
3, 651240, Note_on_c, 0, 45, 100
3, 651300, Note_on_c, 0, 45, 0
3, 651300, Note_on_c, 0, 46, 100
3, 651360, Note_on_c, 0, 46, 0
3, 651360, Note_on_c, 0, 48, 100
3, 651480, Note_on_c, 0, 48, 0
3, 651480, Note_on_c, 0, 50, 100
3, 651600, Note_on_c, 0, 50, 0
3, 651600, Note_on_c, 0, 52, 100
3, 651840, Note_on_c, 0, 45, 100
3, 651960, Note_on_c, 0, 52, 0
3, 651960, Note_on_c, 0, 53, 100
3, 652020, Note_on_c, 0, 53, 0
3, 652020, Note_on_c, 0, 55, 100
3, 652080, Note_on_c, 0, 55, 0
3, 652080, Note_on_c, 0, 53, 100
3, 652200, Note_on_c, 0, 45, 0
3, 652200, Note_on_c, 0, 47, 100
3, 652320, Note_on_c, 0, 47, 0
3, 652320, Note_on_c, 0, 53, 0
3, 652320, Note_on_c, 0, 48, 100
3, 652320, Note_on_c, 0, 52, 100
3, 652440, Note_on_c, 0, 48, 0
3, 652440, Note_on_c, 0, 50, 100
3, 652560, Note_on_c, 0, 50, 0
3, 652560, Note_on_c, 0, 52, 100
3, 652680, Note_on_c, 0, 52, 0
3, 652680, Note_on_c, 0, 52, 0
3, 652680, Note_on_c, 0, 50, 100
3, 652680, Note_on_c, 0, 53, 100
3, 652800, Note_on_c, 0, 53, 0
3, 652800, Note_on_c, 0, 50, 0
3, 652800, Note_on_c, 0, 52, 100
3, 652800, Note_on_c, 0, 48, 100
3, 652920, Note_on_c, 0, 52, 0
3, 652920, Note_on_c, 0, 56, 100
3, 653040, Note_on_c, 0, 56, 0
3, 653040, Note_on_c, 0, 57, 100
3, 653160, Note_on_c, 0, 48, 0
3, 653160, Note_on_c, 0, 47, 100
3, 653280, Note_on_c, 0, 47, 0
3, 653280, Note_on_c, 0, 48, 100
3, 653400, Note_on_c, 0, 48, 0
3, 653400, Note_on_c, 0, 50, 100
3, 653520, Note_on_c, 0, 50, 0
3, 653520, Note_on_c, 0, 52, 100
3, 653640, Note_on_c, 0, 57, 0
3, 653640, Note_on_c, 0, 55, 100
3, 653700, Note_on_c, 0, 55, 0
3, 653700, Note_on_c, 0, 53, 100
3, 653760, Note_on_c, 0, 53, 0
3, 653760, Note_on_c, 0, 52, 100
3, 653880, Note_on_c, 0, 52, 0
3, 653880, Note_on_c, 0, 52, 0
3, 653880, Note_on_c, 0, 50, 100
3, 653880, Note_on_c, 0, 54, 100
3, 654000, Note_on_c, 0, 54, 0
3, 654000, Note_on_c, 0, 50, 0
3, 654000, Note_on_c, 0, 52, 100
3, 654000, Note_on_c, 0, 55, 100
3, 654120, Note_on_c, 0, 55, 0
3, 654120, Note_on_c, 0, 52, 0
3, 654120, Note_on_c, 0, 57, 100
3, 654120, Note_on_c, 0, 54, 100
3, 654240, Note_on_c, 0, 54, 0
3, 654240, Note_on_c, 0, 57, 0
3, 654240, Note_on_c, 0, 55, 100
3, 654240, Note_on_c, 0, 58, 100
3, 654540, Note_on_c, 0, 58, 0
3, 654540, Note_on_c, 0, 57, 100
3, 654600, Note_on_c, 0, 57, 0
3, 654600, Note_on_c, 0, 55, 0
3, 654600, Note_on_c, 0, 52, 100
3, 654600, Note_on_c, 0, 55, 100
3, 654660, Note_on_c, 0, 55, 0
3, 654660, Note_on_c, 0, 58, 100
3, 654720, Note_on_c, 0, 58, 0
3, 654720, Note_on_c, 0, 52, 0
3, 654720, Note_on_c, 0, 53, 100
3, 654720, Note_on_c, 0, 57, 100
3, 654780, Note_on_c, 0, 57, 0
3, 654780, Note_on_c, 0, 60, 100
3, 654840, Note_on_c, 0, 60, 0
3, 654840, Note_on_c, 0, 53, 0
3, 654840, Note_on_c, 0, 55, 100
3, 654840, Note_on_c, 0, 58, 100
3, 654900, Note_on_c, 0, 58, 0
3, 654900, Note_on_c, 0, 62, 100
3, 654960, Note_on_c, 0, 62, 0
3, 654960, Note_on_c, 0, 55, 0
3, 654960, Note_on_c, 0, 57, 100
3, 654960, Note_on_c, 0, 60, 100
3, 655020, Note_on_c, 0, 60, 0
3, 655020, Note_on_c, 0, 58, 100
3, 655080, Note_on_c, 0, 58, 0
3, 655080, Note_on_c, 0, 57, 100
3, 655140, Note_on_c, 0, 57, 0
3, 655140, Note_on_c, 0, 55, 100
3, 655200, Note_on_c, 0, 55, 0
3, 655200, Note_on_c, 0, 57, 0
3, 655200, Note_on_c, 0, 53, 100
3, 655200, Note_on_c, 0, 57, 100
3, 655260, Note_on_c, 0, 57, 0
3, 655260, Note_on_c, 0, 55, 100
3, 655320, Note_on_c, 0, 55, 0
3, 655320, Note_on_c, 0, 53, 100
3, 655380, Note_on_c, 0, 53, 0
3, 655380, Note_on_c, 0, 55, 100
3, 655440, Note_on_c, 0, 55, 0
3, 655440, Note_on_c, 0, 53, 0
3, 655440, Note_on_c, 0, 50, 100
3, 655440, Note_on_c, 0, 53, 100
3, 655500, Note_on_c, 0, 53, 0
3, 655500, Note_on_c, 0, 52, 100
3, 655560, Note_on_c, 0, 52, 0
3, 655560, Note_on_c, 0, 53, 100
3, 655620, Note_on_c, 0, 53, 0
3, 655620, Note_on_c, 0, 55, 100
3, 655680, Note_on_c, 0, 55, 0
3, 655680, Note_on_c, 0, 57, 100
3, 655800, Note_on_c, 0, 57, 0
3, 655800, Note_on_c, 0, 58, 100
3, 655920, Note_on_c, 0, 58, 0
3, 655920, Note_on_c, 0, 50, 0
3, 655920, Note_on_c, 0, 41, 100
3, 655920, Note_on_c, 0, 60, 100
3, 655980, Note_on_c, 0, 41, 0
3, 655980, Note_on_c, 0, 43, 100
3, 656040, Note_on_c, 0, 43, 0
3, 656040, Note_on_c, 0, 45, 100
3, 656100, Note_on_c, 0, 45, 0
3, 656100, Note_on_c, 0, 46, 100
3, 656160, Note_on_c, 0, 46, 0
3, 656160, Note_on_c, 0, 45, 100
3, 656280, Note_on_c, 0, 45, 0
3, 656280, Note_on_c, 0, 60, 0
3, 656280, Note_on_c, 0, 41, 100
3, 656400, Note_on_c, 0, 41, 0
3, 656400, Note_on_c, 0, 58, 100
3, 656400, Note_on_c, 0, 46, 100
3, 656460, Note_on_c, 0, 46, 0
3, 656460, Note_on_c, 0, 48, 100
3, 656520, Note_on_c, 0, 48, 0
3, 656520, Note_on_c, 0, 50, 100
3, 656580, Note_on_c, 0, 50, 0
3, 656580, Note_on_c, 0, 52, 100
3, 656640, Note_on_c, 0, 52, 0
3, 656640, Note_on_c, 0, 58, 0
3, 656640, Note_on_c, 0, 57, 100
3, 656640, Note_on_c, 0, 53, 100
3, 656700, Note_on_c, 0, 57, 0
3, 656700, Note_on_c, 0, 55, 100
3, 656760, Note_on_c, 0, 55, 0
3, 656760, Note_on_c, 0, 57, 100
3, 656820, Note_on_c, 0, 57, 0
3, 656820, Note_on_c, 0, 58, 100
3, 656880, Note_on_c, 0, 58, 0
3, 656940, Note_on_c, 0, 53, 0
3, 656940, Note_on_c, 0, 52, 100
3, 657000, Note_on_c, 0, 52, 0
3, 657000, Note_on_c, 0, 58, 100
3, 657000, Note_on_c, 0, 53, 100
3, 657060, Note_on_c, 0, 53, 0
3, 657060, Note_on_c, 0, 55, 100
3, 657120, Note_on_c, 0, 55, 0
3, 657120, Note_on_c, 0, 58, 0
3, 657120, Note_on_c, 0, 57, 100
3, 657180, Note_on_c, 0, 55, 100
3, 657240, Note_on_c, 0, 55, 0
3, 657240, Note_on_c, 0, 53, 100
3, 657300, Note_on_c, 0, 53, 0
3, 657300, Note_on_c, 0, 52, 100
3, 657360, Note_on_c, 0, 52, 0
3, 657360, Note_on_c, 0, 50, 100
3, 657480, Note_on_c, 0, 57, 0
3, 657480, Note_on_c, 0, 55, 100
3, 657600, Note_on_c, 0, 55, 0
3, 657600, Note_on_c, 0, 57, 100
3, 657720, Note_on_c, 0, 57, 0
3, 657720, Note_on_c, 0, 50, 100
3, 657840, Note_on_c, 0, 50, 0
3, 657840, Note_on_c, 0, 50, 0
3, 657840, Note_on_c, 0, 52, 100
3, 657840, Note_on_c, 0, 48, 100
3, 657900, Note_on_c, 0, 48, 0
3, 657900, Note_on_c, 0, 50, 100
3, 657960, Note_on_c, 0, 50, 0
3, 657960, Note_on_c, 0, 48, 100
3, 658020, Note_on_c, 0, 48, 0
3, 658020, Note_on_c, 0, 46, 100
3, 658080, Note_on_c, 0, 46, 0
3, 658080, Note_on_c, 0, 52, 0
3, 658080, Note_on_c, 0, 53, 100
3, 658080, Note_on_c, 0, 45, 100
3, 658140, Note_on_c, 0, 45, 0
3, 658140, Note_on_c, 0, 46, 100
3, 658200, Note_on_c, 0, 46, 0
3, 658200, Note_on_c, 0, 45, 100
3, 658260, Note_on_c, 0, 45, 0
3, 658260, Note_on_c, 0, 43, 100
3, 658320, Note_on_c, 0, 43, 0
3, 658320, Note_on_c, 0, 41, 100
3, 658380, Note_on_c, 0, 41, 0
3, 658380, Note_on_c, 0, 43, 100
3, 658440, Note_on_c, 0, 43, 0
3, 658440, Note_on_c, 0, 53, 0
3, 658440, Note_on_c, 0, 52, 100
3, 658440, Note_on_c, 0, 45, 100
3, 658500, Note_on_c, 0, 45, 0
3, 658500, Note_on_c, 0, 52, 0
3, 658500, Note_on_c, 0, 50, 100
3, 658500, Note_on_c, 0, 46, 100
3, 658560, Note_on_c, 0, 46, 0
3, 658560, Note_on_c, 0, 50, 0
3, 658560, Note_on_c, 0, 48, 100
3, 658560, Note_on_c, 0, 52, 100
3, 658620, Note_on_c, 0, 52, 0
3, 658620, Note_on_c, 0, 48, 0
3, 658620, Note_on_c, 0, 50, 100
3, 658620, Note_on_c, 0, 53, 100
3, 658680, Note_on_c, 0, 53, 0
3, 658680, Note_on_c, 0, 50, 0
3, 658680, Note_on_c, 0, 52, 100
3, 658680, Note_on_c, 0, 55, 100
3, 658740, Note_on_c, 0, 55, 0
3, 658740, Note_on_c, 0, 52, 0
3, 658740, Note_on_c, 0, 50, 100
3, 658740, Note_on_c, 0, 53, 100
3, 658800, Note_on_c, 0, 53, 0
3, 658800, Note_on_c, 0, 50, 0
3, 658800, Note_on_c, 0, 48, 100
3, 658800, Note_on_c, 0, 52, 100
3, 658860, Note_on_c, 0, 52, 0
3, 658860, Note_on_c, 0, 53, 100
3, 658920, Note_on_c, 0, 53, 0
3, 658920, Note_on_c, 0, 48, 0
3, 658920, Note_on_c, 0, 48, 100
3, 658920, Note_on_c, 0, 52, 100
3, 658980, Note_on_c, 0, 52, 0
3, 658980, Note_on_c, 0, 50, 100
3, 659040, Note_on_c, 0, 50, 0
3, 659040, Note_on_c, 0, 52, 100
3, 659160, Note_on_c, 0, 52, 0
3, 659160, Note_on_c, 0, 48, 0
3, 659160, Note_on_c, 0, 54, 100
3, 659160, Note_on_c, 0, 46, 100
3, 659220, Note_on_c, 0, 46, 0
3, 659220, Note_on_c, 0, 45, 100
3, 659280, Note_on_c, 0, 45, 0
3, 659280, Note_on_c, 0, 54, 0
3, 659280, Note_on_c, 0, 55, 100
3, 659280, Note_on_c, 0, 43, 100
3, 659520, Note_on_c, 0, 55, 0
3, 659700, Note_on_c, 0, 60, 100
3, 659760, Note_on_c, 0, 60, 0
3, 659760, Note_on_c, 0, 58, 100
3, 659820, Note_on_c, 0, 58, 0
3, 659820, Note_on_c, 0, 57, 100
3, 659880, Note_on_c, 0, 57, 0
3, 659880, Note_on_c, 0, 55, 100
3, 659940, Note_on_c, 0, 55, 0
3, 659940, Note_on_c, 0, 57, 100
3, 660000, Note_on_c, 0, 57, 0
3, 660000, Note_on_c, 0, 58, 100
3, 660120, Note_on_c, 0, 58, 0
3, 660120, Note_on_c, 0, 43, 0
3, 660120, Note_on_c, 0, 41, 100
3, 660120, Note_on_c, 0, 62, 100
3, 660180, Note_on_c, 0, 41, 0
3, 660180, Note_on_c, 0, 40, 100
3, 660240, Note_on_c, 0, 40, 0
3, 660240, Note_on_c, 0, 62, 0
3, 660240, Note_on_c, 0, 41, 100
3, 660240, Note_on_c, 0, 60, 100
3, 660360, Note_on_c, 0, 60, 0
3, 660360, Note_on_c, 0, 41, 0
3, 660360, Note_on_c, 0, 43, 100
3, 660360, Note_on_c, 0, 58, 100
3, 660480, Note_on_c, 0, 58, 0
3, 660480, Note_on_c, 0, 43, 0
3, 660480, Note_on_c, 0, 45, 100
3, 660480, Note_on_c, 0, 57, 100
3, 660600, Note_on_c, 0, 57, 0
3, 660600, Note_on_c, 0, 55, 100
3, 660720, Note_on_c, 0, 55, 0
3, 660720, Note_on_c, 0, 52, 100
3, 660780, Note_on_c, 0, 52, 0
3, 660780, Note_on_c, 0, 50, 100
3, 660840, Note_on_c, 0, 50, 0
3, 660840, Note_on_c, 0, 49, 100
3, 660900, Note_on_c, 0, 49, 0
3, 660900, Note_on_c, 0, 47, 100
3, 660960, Note_on_c, 0, 47, 0
3, 660960, Note_on_c, 0, 49, 100
3, 661020, Note_on_c, 0, 49, 0
3, 661020, Note_on_c, 0, 45, 100
3, 661080, Note_on_c, 0, 45, 0
3, 661080, Note_on_c, 0, 50, 100
3, 661140, Note_on_c, 0, 50, 0
3, 661140, Note_on_c, 0, 47, 100
3, 661200, Note_on_c, 0, 47, 0
3, 661200, Note_on_c, 0, 48, 100
3, 661320, Note_on_c, 0, 48, 0
3, 661320, Note_on_c, 0, 45, 0
3, 661320, Note_on_c, 0, 43, 100
3, 661320, Note_on_c, 0, 52, 100
3, 661380, Note_on_c, 0, 43, 0
3, 661380, Note_on_c, 0, 41, 100
3, 661440, Note_on_c, 0, 41, 0
3, 661440, Note_on_c, 0, 52, 0
3, 661440, Note_on_c, 0, 43, 100
3, 661440, Note_on_c, 0, 50, 100
3, 661500, Note_on_c, 0, 43, 0
3, 661500, Note_on_c, 0, 45, 100
3, 661560, Note_on_c, 0, 45, 0
3, 661560, Note_on_c, 0, 50, 0
3, 661560, Note_on_c, 0, 46, 100
3, 661560, Note_on_c, 0, 49, 100
3, 661620, Note_on_c, 0, 46, 0
3, 661620, Note_on_c, 0, 45, 100
3, 661680, Note_on_c, 0, 45, 0
3, 661680, Note_on_c, 0, 49, 0
3, 661680, Note_on_c, 0, 50, 100
3, 661680, Note_on_c, 0, 46, 100
3, 661800, Note_on_c, 0, 46, 0
3, 661800, Note_on_c, 0, 50, 0
3, 661800, Note_on_c, 0, 52, 100
3, 661800, Note_on_c, 0, 45, 100
3, 661920, Note_on_c, 0, 45, 0
3, 661920, Note_on_c, 0, 52, 0
3, 661920, Note_on_c, 0, 58, 100
3, 661920, Note_on_c, 0, 43, 100
3, 661980, Note_on_c, 0, 58, 0
3, 661980, Note_on_c, 0, 57, 100
3, 662040, Note_on_c, 0, 57, 0
3, 662040, Note_on_c, 0, 55, 100
3, 662100, Note_on_c, 0, 55, 0
3, 662100, Note_on_c, 0, 58, 100
3, 662160, Note_on_c, 0, 58, 0
3, 662160, Note_on_c, 0, 43, 0
3, 662160, Note_on_c, 0, 50, 100
3, 662160, Note_on_c, 0, 57, 100
3, 662280, Note_on_c, 0, 50, 0
3, 662280, Note_on_c, 0, 38, 100
3, 662460, Note_on_c, 0, 57, 0
3, 662460, Note_on_c, 0, 53, 100
3, 662520, Note_on_c, 0, 53, 0
3, 662520, Note_on_c, 0, 38, 0
3, 662520, Note_on_c, 0, 40, 100
3, 662520, Note_on_c, 0, 55, 100
3, 662580, Note_on_c, 0, 55, 0
3, 662580, Note_on_c, 0, 40, 0
3, 662580, Note_on_c, 0, 41, 100
3, 662580, Note_on_c, 0, 57, 100
3, 662640, Note_on_c, 0, 57, 0
3, 662640, Note_on_c, 0, 41, 0
3, 662640, Note_on_c, 0, 43, 100
3, 662700, Note_on_c, 0, 43, 0
3, 662700, Note_on_c, 0, 40, 100
3, 662760, Note_on_c, 0, 40, 0
3, 662760, Note_on_c, 0, 41, 100
3, 662760, Note_on_c, 0, 50, 100
3, 662820, Note_on_c, 0, 41, 0
3, 662820, Note_on_c, 0, 43, 100
3, 662880, Note_on_c, 0, 43, 0
3, 662880, Note_on_c, 0, 45, 100
3, 662940, Note_on_c, 0, 45, 0
3, 662940, Note_on_c, 0, 46, 100
3, 663000, Note_on_c, 0, 46, 0
3, 663000, Note_on_c, 0, 50, 0
3, 663000, Note_on_c, 0, 52, 100
3, 663000, Note_on_c, 0, 45, 100
3, 663060, Note_on_c, 0, 45, 0
3, 663060, Note_on_c, 0, 43, 100
3, 663120, Note_on_c, 0, 43, 0
3, 663120, Note_on_c, 0, 52, 0
3, 663120, Note_on_c, 0, 53, 100
3, 663120, Note_on_c, 0, 41, 100
3, 663180, Note_on_c, 0, 55, 100
3, 663240, Note_on_c, 0, 55, 0
3, 663240, Note_on_c, 0, 53, 0
3, 663240, Note_on_c, 0, 50, 100
3, 663240, Note_on_c, 0, 53, 100
3, 663300, Note_on_c, 0, 53, 0
3, 663300, Note_on_c, 0, 52, 100
3, 663360, Note_on_c, 0, 52, 0
3, 663360, Note_on_c, 0, 50, 0
3, 663420, Note_on_c, 0, 41, 0
3, 663420, Note_on_c, 0, 43, 100
3, 663480, Note_on_c, 0, 43, 0
3, 663480, Note_on_c, 0, 50, 100
3, 663480, Note_on_c, 0, 41, 100
3, 663540, Note_on_c, 0, 41, 0
3, 663540, Note_on_c, 0, 40, 100
3, 663600, Note_on_c, 0, 40, 0
3, 663600, Note_on_c, 0, 38, 100
3, 663660, Note_on_c, 0, 38, 0
3, 663660, Note_on_c, 0, 40, 100
3, 663720, Note_on_c, 0, 40, 0
3, 663720, Note_on_c, 0, 50, 0
3, 663720, Note_on_c, 0, 38, 100
3, 663720, Note_on_c, 0, 55, 100
3, 663780, Note_on_c, 0, 38, 0
3, 663780, Note_on_c, 0, 37, 100
3, 663840, Note_on_c, 0, 37, 0
3, 663840, Note_on_c, 0, 55, 0
3, 663840, Note_on_c, 0, 38, 100
3, 663840, Note_on_c, 0, 53, 100
3, 663900, Note_on_c, 0, 38, 0
3, 663900, Note_on_c, 0, 40, 100
3, 663960, Note_on_c, 0, 40, 0
3, 663960, Note_on_c, 0, 53, 0
3, 663960, Note_on_c, 0, 41, 100
3, 663960, Note_on_c, 0, 50, 100
3, 664020, Note_on_c, 0, 41, 0
3, 664020, Note_on_c, 0, 43, 100
3, 664080, Note_on_c, 0, 43, 0
3, 664080, Note_on_c, 0, 50, 0
3, 664080, Note_on_c, 0, 45, 100
3, 664080, Note_on_c, 0, 49, 100
3, 664260, Note_on_c, 0, 49, 0
3, 664260, Note_on_c, 0, 50, 100
3, 664290, Note_on_c, 0, 50, 0
3, 664290, Note_on_c, 0, 52, 100
3, 664320, Note_on_c, 0, 52, 0
3, 664320, Note_on_c, 0, 53, 100
3, 664380, Note_on_c, 0, 53, 0
3, 664380, Note_on_c, 0, 45, 0
3, 664380, Note_on_c, 0, 46, 100
3, 664380, Note_on_c, 0, 55, 100
3, 664440, Note_on_c, 0, 55, 0
3, 664440, Note_on_c, 0, 46, 0
3, 664440, Note_on_c, 0, 45, 100
3, 664440, Note_on_c, 0, 53, 100
3, 664500, Note_on_c, 0, 53, 0
3, 664500, Note_on_c, 0, 45, 0
3, 664500, Note_on_c, 0, 43, 100
3, 664500, Note_on_c, 0, 52, 100
3, 664560, Note_on_c, 0, 52, 0
3, 664560, Note_on_c, 0, 43, 0
3, 664560, Note_on_c, 0, 45, 100
3, 664560, Note_on_c, 0, 53, 100
3, 664620, Note_on_c, 0, 53, 0
3, 664620, Note_on_c, 0, 45, 0
3, 664620, Note_on_c, 0, 46, 100
3, 664620, Note_on_c, 0, 55, 100
3, 664680, Note_on_c, 0, 55, 0
3, 664680, Note_on_c, 0, 46, 0
3, 664680, Note_on_c, 0, 57, 100
3, 664680, Note_on_c, 0, 48, 100
3, 664740, Note_on_c, 0, 48, 0
3, 664740, Note_on_c, 0, 50, 100
3, 664800, Note_on_c, 0, 50, 0
3, 664800, Note_on_c, 0, 48, 100
3, 664860, Note_on_c, 0, 48, 0
3, 664860, Note_on_c, 0, 46, 100
3, 664920, Note_on_c, 0, 46, 0
3, 664920, Note_on_c, 0, 57, 0
3, 664920, Note_on_c, 0, 45, 100
3, 664920, Note_on_c, 0, 58, 100
3, 664980, Note_on_c, 0, 45, 0
3, 664980, Note_on_c, 0, 43, 100
3, 665040, Note_on_c, 0, 43, 0
3, 665040, Note_on_c, 0, 58, 0
3, 665040, Note_on_c, 0, 41, 100
3, 665040, Note_on_c, 0, 57, 100
3, 665100, Note_on_c, 0, 41, 0
3, 665100, Note_on_c, 0, 43, 100
3, 665160, Note_on_c, 0, 43, 0
3, 665160, Note_on_c, 0, 57, 0
3, 665160, Note_on_c, 0, 41, 100
3, 665160, Note_on_c, 0, 62, 100
3, 665220, Note_on_c, 0, 41, 0
3, 665220, Note_on_c, 0, 40, 100
3, 665280, Note_on_c, 0, 40, 0
3, 665280, Note_on_c, 0, 62, 0
3, 665280, Note_on_c, 0, 57, 100
3, 665280, Note_on_c, 0, 41, 100
3, 665340, Note_on_c, 0, 41, 0
3, 665340, Note_on_c, 0, 57, 0
3, 665340, Note_on_c, 0, 55, 100
3, 665340, Note_on_c, 0, 43, 100
3, 665400, Note_on_c, 0, 43, 0
3, 665400, Note_on_c, 0, 55, 0
3, 665400, Note_on_c, 0, 45, 100
3, 665400, Note_on_c, 0, 53, 100
3, 665460, Note_on_c, 0, 45, 0
3, 665460, Note_on_c, 0, 46, 100
3, 665520, Note_on_c, 0, 46, 0
3, 665520, Note_on_c, 0, 45, 100
3, 665580, Note_on_c, 0, 45, 0
3, 665580, Note_on_c, 0, 53, 0
3, 665580, Note_on_c, 0, 52, 100
3, 665580, Note_on_c, 0, 43, 100
3, 665640, Note_on_c, 0, 43, 0
3, 665640, Note_on_c, 0, 52, 0
3, 665640, Note_on_c, 0, 52, 100
3, 665640, Note_on_c, 0, 41, 100
3, 665700, Note_on_c, 0, 41, 0
3, 665700, Note_on_c, 0, 52, 0
3, 665700, Note_on_c, 0, 53, 100
3, 665700, Note_on_c, 0, 45, 100
3, 665760, Note_on_c, 0, 45, 0
3, 665760, Note_on_c, 0, 53, 0
3, 665760, Note_on_c, 0, 48, 100
3, 665820, Note_on_c, 0, 48, 0
3, 665820, Note_on_c, 0, 50, 100
3, 665880, Note_on_c, 0, 50, 0
3, 665880, Note_on_c, 0, 52, 100
3, 665880, Note_on_c, 0, 48, 100
3, 665940, Note_on_c, 0, 48, 0
3, 665940, Note_on_c, 0, 52, 0
3, 665940, Note_on_c, 0, 53, 100
3, 665940, Note_on_c, 0, 47, 100
3, 666000, Note_on_c, 0, 47, 0
3, 666000, Note_on_c, 0, 53, 0
3, 666000, Note_on_c, 0, 48, 100
3, 666000, Note_on_c, 0, 52, 100
3, 666120, Note_on_c, 0, 52, 0
3, 666120, Note_on_c, 0, 48, 0
3, 666120, Note_on_c, 0, 45, 100
3, 666240, Note_on_c, 0, 45, 0
3, 666240, Note_on_c, 0, 48, 100
3, 666360, Note_on_c, 0, 48, 0
3, 666360, Note_on_c, 0, 57, 100
3, 666360, Note_on_c, 0, 45, 100
3, 666480, Note_on_c, 0, 45, 0
3, 666480, Note_on_c, 0, 57, 0
3, 666480, Note_on_c, 0, 40, 100
3, 666480, Note_on_c, 0, 55, 100
3, 666540, Note_on_c, 0, 40, 0
3, 666540, Note_on_c, 0, 41, 100
3, 666600, Note_on_c, 0, 41, 0
3, 666600, Note_on_c, 0, 55, 0
3, 666600, Note_on_c, 0, 40, 100
3, 666600, Note_on_c, 0, 58, 100
3, 666660, Note_on_c, 0, 40, 0
3, 666660, Note_on_c, 0, 38, 100
3, 666720, Note_on_c, 0, 38, 0
3, 666720, Note_on_c, 0, 58, 0
3, 666720, Note_on_c, 0, 40, 100
3, 666720, Note_on_c, 0, 57, 100
3, 666780, Note_on_c, 0, 40, 0
3, 666780, Note_on_c, 0, 41, 100
3, 666840, Note_on_c, 0, 41, 0
3, 666840, Note_on_c, 0, 57, 0
3, 666840, Note_on_c, 0, 43, 100
3, 666840, Note_on_c, 0, 52, 100
3, 667020, Note_on_c, 0, 52, 0
3, 667020, Note_on_c, 0, 43, 0
3, 667020, Note_on_c, 0, 42, 100
3, 667020, Note_on_c, 0, 50, 100
3, 667080, Note_on_c, 0, 50, 0
3, 667080, Note_on_c, 0, 42, 0
3, 667080, Note_on_c, 0, 43, 100
3, 667080, Note_on_c, 0, 52, 100
3, 667140, Note_on_c, 0, 52, 0
3, 667140, Note_on_c, 0, 43, 0
3, 667140, Note_on_c, 0, 45, 100
3, 667140, Note_on_c, 0, 54, 100
3, 667200, Note_on_c, 0, 54, 0
3, 667200, Note_on_c, 0, 45, 0
3, 667200, Note_on_c, 0, 46, 100
3, 667200, Note_on_c, 0, 55, 100
3, 667260, Note_on_c, 0, 46, 0
3, 667260, Note_on_c, 0, 48, 100
3, 667320, Note_on_c, 0, 48, 0
3, 667320, Note_on_c, 0, 55, 0
3, 667320, Note_on_c, 0, 46, 100
3, 667320, Note_on_c, 0, 50, 100
3, 667380, Note_on_c, 0, 46, 0
3, 667380, Note_on_c, 0, 45, 100
3, 667440, Note_on_c, 0, 45, 0
3, 667440, Note_on_c, 0, 50, 0
3, 667440, Note_on_c, 0, 46, 100
3, 667500, Note_on_c, 0, 46, 0
3, 667500, Note_on_c, 0, 43, 100
3, 667560, Note_on_c, 0, 43, 0
3, 667560, Note_on_c, 0, 55, 100
3, 667740, Note_on_c, 0, 55, 0
3, 667740, Note_on_c, 0, 53, 100
3, 667800, Note_on_c, 0, 53, 0
3, 667800, Note_on_c, 0, 52, 100
3, 667860, Note_on_c, 0, 52, 0
3, 667860, Note_on_c, 0, 50, 100
3, 667890, Note_on_c, 0, 50, 0
3, 667890, Note_on_c, 0, 49, 100
3, 667920, Note_on_c, 0, 49, 0
3, 667920, Note_on_c, 0, 50, 100
3, 667920, Note_on_c, 0, 57, 100
3, 667980, Note_on_c, 0, 57, 0
3, 667980, Note_on_c, 0, 55, 100
3, 668040, Note_on_c, 0, 55, 0
3, 668040, Note_on_c, 0, 53, 100
3, 668100, Note_on_c, 0, 53, 0
3, 668100, Note_on_c, 0, 52, 100
3, 668160, Note_on_c, 0, 52, 0
3, 668160, Note_on_c, 0, 50, 100
3, 668520, Note_on_c, 0, 50, 0
3, 668520, Note_on_c, 0, 52, 100
3, 668640, Note_on_c, 0, 52, 0
3, 668640, Note_on_c, 0, 53, 100
3, 668760, Note_on_c, 0, 53, 0
3, 668760, Note_on_c, 0, 55, 100
3, 668880, Note_on_c, 0, 55, 0
3, 668880, Note_on_c, 0, 57, 100
3, 669240, Note_on_c, 0, 57, 0
3, 669240, Note_on_c, 0, 58, 100
3, 669300, Note_on_c, 0, 58, 0
3, 669300, Note_on_c, 0, 60, 100
3, 669360, Note_on_c, 0, 60, 0
3, 669360, Note_on_c, 0, 58, 100
3, 669600, Note_on_c, 0, 58, 0
3, 669600, Note_on_c, 0, 57, 100
3, 669960, Note_on_c, 0, 57, 0
3, 669960, Note_on_c, 0, 55, 100
3, 670080, Note_on_c, 0, 55, 0
3, 670080, Note_on_c, 0, 53, 100
3, 670200, Note_on_c, 0, 53, 0
3, 670200, Note_on_c, 0, 55, 100
3, 670320, Note_on_c, 0, 55, 0
3, 670320, Note_on_c, 0, 53, 100
3, 670440, Note_on_c, 0, 53, 0
3, 670440, Note_on_c, 0, 52, 100
3, 670560, Note_on_c, 0, 52, 0
3, 670560, Note_on_c, 0, 53, 100
3, 670680, Note_on_c, 0, 53, 0
3, 670680, Note_on_c, 0, 55, 100
3, 670800, Note_on_c, 0, 55, 0
3, 670800, Note_on_c, 0, 57, 100
3, 670920, Note_on_c, 0, 57, 0
3, 670920, Note_on_c, 0, 50, 0
3, 670920, Note_on_c, 0, 52, 100
3, 670980, Note_on_c, 0, 52, 0
3, 670980, Note_on_c, 0, 53, 100
3, 671040, Note_on_c, 0, 53, 0
3, 671040, Note_on_c, 0, 52, 100
3, 671040, Note_on_c, 0, 55, 100
3, 671100, Note_on_c, 0, 52, 0
3, 671100, Note_on_c, 0, 50, 100
3, 671160, Note_on_c, 0, 50, 0
3, 671160, Note_on_c, 0, 55, 0
3, 671160, Note_on_c, 0, 49, 100
3, 671220, Note_on_c, 0, 49, 0
3, 671220, Note_on_c, 0, 47, 100
3, 671280, Note_on_c, 0, 47, 0
3, 671280, Note_on_c, 0, 45, 100
3, 671340, Note_on_c, 0, 53, 100
3, 671400, Note_on_c, 0, 53, 0
3, 671400, Note_on_c, 0, 52, 100
3, 671460, Note_on_c, 0, 52, 0
3, 671460, Note_on_c, 0, 50, 100
3, 671520, Note_on_c, 0, 50, 0
3, 671520, Note_on_c, 0, 49, 100
3, 671640, Note_on_c, 0, 49, 0
3, 671640, Note_on_c, 0, 45, 0
3, 671640, Note_on_c, 0, 47, 100
3, 671640, Note_on_c, 0, 50, 100
3, 671760, Note_on_c, 0, 50, 0
3, 671760, Note_on_c, 0, 47, 0
3, 671760, Note_on_c, 0, 49, 100
3, 671760, Note_on_c, 0, 52, 100
3, 671880, Note_on_c, 0, 52, 0
3, 671880, Note_on_c, 0, 49, 0
3, 671880, Note_on_c, 0, 50, 100
3, 671880, Note_on_c, 0, 53, 100
3, 672000, Note_on_c, 0, 53, 0
3, 672000, Note_on_c, 0, 50, 0
3, 672000, Note_on_c, 0, 52, 100
3, 672000, Note_on_c, 0, 55, 100
3, 672060, Note_on_c, 0, 52, 0
3, 672060, Note_on_c, 0, 50, 100
3, 672120, Note_on_c, 0, 50, 0
3, 672120, Note_on_c, 0, 48, 100
3, 672240, Note_on_c, 0, 48, 0
3, 672240, Note_on_c, 0, 55, 0
3, 672300, Note_on_c, 0, 55, 100
3, 672360, Note_on_c, 0, 55, 0
3, 672360, Note_on_c, 0, 54, 100
3, 672420, Note_on_c, 0, 54, 0
3, 672420, Note_on_c, 0, 52, 100
3, 672480, Note_on_c, 0, 52, 0
3, 672480, Note_on_c, 0, 50, 100
3, 672960, Note_on_c, 0, 50, 0
3, 677910, Note_on_c, 0, 57, 100
3, 678000, Note_on_c, 0, 57, 0
3, 678000, Note_on_c, 0, 50, 100
3, 678090, Note_on_c, 0, 50, 0
3, 678090, Note_on_c, 0, 62, 100
3, 678210, Note_on_c, 0, 62, 0
3, 678210, Note_on_c, 0, 60, 100
3, 678240, Note_on_c, 0, 60, 0
3, 678240, Note_on_c, 0, 58, 100
3, 678270, Note_on_c, 0, 58, 0
3, 678270, Note_on_c, 0, 60, 100
3, 678300, Note_on_c, 0, 60, 0
3, 678300, Note_on_c, 0, 58, 100
3, 678330, Note_on_c, 0, 58, 0
3, 678330, Note_on_c, 0, 57, 100
3, 678360, Note_on_c, 0, 57, 0
3, 678360, Note_on_c, 0, 58, 100
3, 678390, Note_on_c, 0, 58, 0
3, 678390, Note_on_c, 0, 57, 100
3, 678420, Note_on_c, 0, 57, 0
3, 678420, Note_on_c, 0, 55, 100
3, 678450, Note_on_c, 0, 55, 0
3, 678450, Note_on_c, 0, 57, 100
3, 678570, Note_on_c, 0, 57, 0
3, 678570, Note_on_c, 0, 55, 100
3, 678600, Note_on_c, 0, 55, 0
3, 678600, Note_on_c, 0, 54, 100
3, 678630, Note_on_c, 0, 54, 0
3, 678630, Note_on_c, 0, 62, 100
3, 678630, Note_on_c, 0, 55, 100
3, 678660, Note_on_c, 0, 55, 0
3, 678660, Note_on_c, 0, 54, 100
3, 678690, Note_on_c, 0, 54, 0
3, 678690, Note_on_c, 0, 53, 100
3, 678720, Note_on_c, 0, 53, 0
3, 678720, Note_on_c, 0, 54, 100
3, 678750, Note_on_c, 0, 54, 0
3, 678750, Note_on_c, 0, 55, 100
3, 678780, Note_on_c, 0, 55, 0
3, 678780, Note_on_c, 0, 57, 100
3, 678810, Note_on_c, 0, 57, 0
3, 678810, Note_on_c, 0, 62, 0
3, 678810, Note_on_c, 0, 55, 100
3, 678810, Note_on_c, 0, 63, 100
3, 678840, Note_on_c, 0, 63, 0
3, 678840, Note_on_c, 0, 62, 100
3, 678870, Note_on_c, 0, 62, 0
3, 678870, Note_on_c, 0, 65, 100
3, 678900, Note_on_c, 0, 65, 0
3, 678900, Note_on_c, 0, 64, 100
3, 678930, Note_on_c, 0, 55, 0
3, 678930, Note_on_c, 0, 57, 100
3, 678960, Note_on_c, 0, 57, 0
3, 678960, Note_on_c, 0, 58, 100
3, 678990, Note_on_c, 0, 58, 0
3, 678990, Note_on_c, 0, 57, 100
3, 679020, Note_on_c, 0, 57, 0
3, 679020, Note_on_c, 0, 58, 100
3, 679050, Note_on_c, 0, 58, 0
3, 679050, Note_on_c, 0, 60, 100
3, 679080, Note_on_c, 0, 60, 0
3, 679080, Note_on_c, 0, 64, 0
3, 679080, Note_on_c, 0, 58, 100
3, 679080, Note_on_c, 0, 62, 100
3, 679140, Note_on_c, 0, 58, 0
3, 679140, Note_on_c, 0, 55, 100
3, 679170, Note_on_c, 0, 55, 0
3, 679170, Note_on_c, 0, 50, 100
3, 679230, Note_on_c, 0, 50, 0
3, 679230, Note_on_c, 0, 55, 100
3, 679260, Note_on_c, 0, 55, 0
3, 679260, Note_on_c, 0, 58, 100
3, 679320, Note_on_c, 0, 58, 0
3, 679320, Note_on_c, 0, 60, 100
3, 679350, Note_on_c, 0, 60, 0
3, 679350, Note_on_c, 0, 58, 100
3, 679410, Note_on_c, 0, 58, 0
3, 679410, Note_on_c, 0, 57, 100
3, 679440, Note_on_c, 0, 57, 0
3, 679440, Note_on_c, 0, 55, 100
3, 679500, Note_on_c, 0, 62, 0
3, 679500, Note_on_c, 0, 67, 100
3, 679530, Note_on_c, 0, 67, 0
3, 679620, Note_on_c, 0, 55, 0
3, 679710, Note_on_c, 0, 58, 100
3, 679800, Note_on_c, 0, 58, 0
3, 679800, Note_on_c, 0, 57, 100
3, 679890, Note_on_c, 0, 57, 0
3, 679890, Note_on_c, 0, 53, 100
3, 679890, Note_on_c, 0, 57, 100
3, 679950, Note_on_c, 0, 57, 0
3, 679950, Note_on_c, 0, 53, 0
3, 679950, Note_on_c, 0, 60, 100
3, 679950, Note_on_c, 0, 55, 100
3, 679980, Note_on_c, 0, 55, 0
3, 679980, Note_on_c, 0, 60, 0
3, 679980, Note_on_c, 0, 57, 100
3, 680070, Note_on_c, 0, 57, 0
3, 680070, Note_on_c, 0, 47, 100
3, 680160, Note_on_c, 0, 47, 0
3, 680160, Note_on_c, 0, 48, 100
3, 680340, Note_on_c, 0, 48, 0
3, 680430, Note_on_c, 0, 60, 100
3, 680520, Note_on_c, 0, 60, 0
3, 680520, Note_on_c, 0, 58, 100
3, 680610, Note_on_c, 0, 58, 0
3, 680610, Note_on_c, 0, 55, 100
3, 680610, Note_on_c, 0, 58, 100
3, 680670, Note_on_c, 0, 58, 0
3, 680670, Note_on_c, 0, 55, 0
3, 680670, Note_on_c, 0, 62, 100
3, 680670, Note_on_c, 0, 57, 100
3, 680700, Note_on_c, 0, 57, 0
3, 680700, Note_on_c, 0, 62, 0
3, 680700, Note_on_c, 0, 58, 100
3, 680790, Note_on_c, 0, 58, 0
3, 680790, Note_on_c, 0, 49, 100
3, 680880, Note_on_c, 0, 49, 0
3, 680880, Note_on_c, 0, 50, 100
3, 681030, Note_on_c, 0, 50, 0
3, 681030, Note_on_c, 0, 52, 100
3, 681060, Note_on_c, 0, 52, 0
3, 681060, Note_on_c, 0, 53, 100
3, 681120, Note_on_c, 0, 53, 0
3, 681120, Note_on_c, 0, 55, 100
3, 681150, Note_on_c, 0, 55, 0
3, 681150, Note_on_c, 0, 57, 100
3, 681210, Note_on_c, 0, 57, 0
3, 681210, Note_on_c, 0, 53, 100
3, 681240, Note_on_c, 0, 53, 0
3, 681240, Note_on_c, 0, 60, 100
3, 681330, Note_on_c, 0, 60, 0
3, 681330, Note_on_c, 0, 48, 100
3, 681420, Note_on_c, 0, 48, 0
3, 681420, Note_on_c, 0, 52, 100
3, 681510, Note_on_c, 0, 52, 0
3, 681510, Note_on_c, 0, 55, 100
3, 681600, Note_on_c, 0, 55, 0
3, 681600, Note_on_c, 0, 58, 100
3, 681720, Note_on_c, 0, 58, 0
3, 681720, Note_on_c, 0, 57, 100
3, 681750, Note_on_c, 0, 57, 0
3, 681750, Note_on_c, 0, 55, 100
3, 681780, Note_on_c, 0, 55, 0
3, 681780, Note_on_c, 0, 62, 100
3, 681840, Note_on_c, 0, 62, 0
3, 681840, Note_on_c, 0, 55, 100
3, 681870, Note_on_c, 0, 55, 0
3, 681870, Note_on_c, 0, 53, 100
3, 681930, Note_on_c, 0, 53, 0
3, 681930, Note_on_c, 0, 50, 100
3, 681960, Note_on_c, 0, 50, 0
3, 681960, Note_on_c, 0, 50, 100
3, 682110, Note_on_c, 0, 50, 0
3, 682110, Note_on_c, 0, 52, 100
3, 682140, Note_on_c, 0, 52, 0
3, 682140, Note_on_c, 0, 53, 100
3, 682170, Note_on_c, 0, 53, 0
3, 682170, Note_on_c, 0, 55, 100
3, 682200, Note_on_c, 0, 55, 0
3, 682200, Note_on_c, 0, 57, 100
3, 682230, Note_on_c, 0, 57, 0
3, 682230, Note_on_c, 0, 55, 100
3, 682290, Note_on_c, 0, 55, 0
3, 682290, Note_on_c, 0, 49, 100
3, 682320, Note_on_c, 0, 49, 0
3, 682320, Note_on_c, 0, 50, 100
3, 682350, Note_on_c, 0, 50, 0
3, 682350, Note_on_c, 0, 52, 100
3, 682380, Note_on_c, 0, 52, 0
3, 682380, Note_on_c, 0, 53, 100
3, 682410, Note_on_c, 0, 53, 0
3, 682410, Note_on_c, 0, 61, 100
3, 682410, Note_on_c, 0, 52, 100
3, 682440, Note_on_c, 0, 52, 0
3, 682440, Note_on_c, 0, 58, 100
3, 682470, Note_on_c, 0, 58, 0
3, 682470, Note_on_c, 0, 55, 100
3, 682500, Note_on_c, 0, 55, 0
3, 682500, Note_on_c, 0, 61, 0
3, 682500, Note_on_c, 0, 52, 100
3, 682530, Note_on_c, 0, 52, 0
3, 682530, Note_on_c, 0, 54, 100
3, 682560, Note_on_c, 0, 54, 0
3, 682560, Note_on_c, 0, 55, 100
3, 682590, Note_on_c, 0, 63, 100
3, 682650, Note_on_c, 0, 55, 0
3, 682650, Note_on_c, 0, 54, 100
3, 682680, Note_on_c, 0, 54, 0
3, 682680, Note_on_c, 0, 63, 0
3, 682680, Note_on_c, 0, 62, 100
3, 682680, Note_on_c, 0, 55, 100
3, 682710, Note_on_c, 0, 55, 0
3, 682710, Note_on_c, 0, 53, 100
3, 682740, Note_on_c, 0, 53, 0
3, 682740, Note_on_c, 0, 52, 100
3, 682770, Note_on_c, 0, 52, 0
3, 682770, Note_on_c, 0, 62, 0
3, 682770, Note_on_c, 0, 53, 100
3, 682800, Note_on_c, 0, 53, 0
3, 682800, Note_on_c, 0, 57, 100
3, 682830, Note_on_c, 0, 57, 0
3, 682830, Note_on_c, 0, 62, 100
3, 682860, Note_on_c, 0, 62, 0
3, 682860, Note_on_c, 0, 60, 100
3, 682890, Note_on_c, 0, 60, 0
3, 682890, Note_on_c, 0, 58, 100
3, 682920, Note_on_c, 0, 58, 0
3, 682920, Note_on_c, 0, 57, 100
3, 682950, Note_on_c, 0, 57, 0
3, 682950, Note_on_c, 0, 62, 100
3, 682950, Note_on_c, 0, 58, 100
3, 682980, Note_on_c, 0, 58, 0
3, 682980, Note_on_c, 0, 57, 100
3, 683010, Note_on_c, 0, 57, 0
3, 683010, Note_on_c, 0, 55, 100
3, 683040, Note_on_c, 0, 55, 0
3, 683040, Note_on_c, 0, 62, 0
3, 683040, Note_on_c, 0, 57, 100
3, 683130, Note_on_c, 0, 57, 0
3, 683130, Note_on_c, 0, 53, 100
3, 683220, Note_on_c, 0, 53, 0
3, 683220, Note_on_c, 0, 57, 100
3, 683310, Note_on_c, 0, 57, 0
3, 683310, Note_on_c, 0, 62, 100
3, 683400, Note_on_c, 0, 62, 0
3, 683400, Note_on_c, 0, 60, 100
3, 683400, Note_on_c, 0, 64, 100
3, 683460, Note_on_c, 0, 60, 0
3, 683460, Note_on_c, 0, 57, 100
3, 683490, Note_on_c, 0, 57, 0
3, 683490, Note_on_c, 0, 64, 0
3, 683490, Note_on_c, 0, 52, 100
3, 683550, Note_on_c, 0, 52, 0
3, 683550, Note_on_c, 0, 57, 100
3, 683580, Note_on_c, 0, 57, 0
3, 683580, Note_on_c, 0, 60, 100
3, 683640, Note_on_c, 0, 60, 0
3, 683640, Note_on_c, 0, 64, 100
3, 683670, Note_on_c, 0, 64, 0
3, 683670, Note_on_c, 0, 62, 100
3, 683730, Note_on_c, 0, 62, 0
3, 683730, Note_on_c, 0, 60, 100
3, 683760, Note_on_c, 0, 60, 0
3, 683760, Note_on_c, 0, 59, 100
3, 683850, Note_on_c, 0, 59, 0
3, 683850, Note_on_c, 0, 55, 100
3, 683940, Note_on_c, 0, 55, 0
3, 683940, Note_on_c, 0, 59, 100
3, 684030, Note_on_c, 0, 59, 0
3, 684030, Note_on_c, 0, 64, 100
3, 684120, Note_on_c, 0, 64, 0
3, 684120, Note_on_c, 0, 62, 100
3, 684120, Note_on_c, 0, 66, 100
3, 684180, Note_on_c, 0, 62, 0
3, 684180, Note_on_c, 0, 59, 100
3, 684210, Note_on_c, 0, 59, 0
3, 684210, Note_on_c, 0, 66, 0
3, 684210, Note_on_c, 0, 54, 100
3, 684270, Note_on_c, 0, 54, 0
3, 684270, Note_on_c, 0, 59, 100
3, 684300, Note_on_c, 0, 59, 0
3, 684300, Note_on_c, 0, 62, 100
3, 684360, Note_on_c, 0, 62, 0
3, 684360, Note_on_c, 0, 65, 100
3, 684390, Note_on_c, 0, 65, 0
3, 684390, Note_on_c, 0, 64, 100
3, 684450, Note_on_c, 0, 64, 0
3, 684450, Note_on_c, 0, 62, 100
3, 684480, Note_on_c, 0, 62, 0
3, 684480, Note_on_c, 0, 60, 100
3, 684480, Note_on_c, 0, 64, 100
3, 684570, Note_on_c, 0, 64, 0
3, 684570, Note_on_c, 0, 60, 0
3, 684570, Note_on_c, 0, 48, 100
3, 684690, Note_on_c, 0, 48, 0
3, 684690, Note_on_c, 0, 50, 100
3, 684720, Note_on_c, 0, 50, 0
3, 684720, Note_on_c, 0, 52, 100
3, 684750, Note_on_c, 0, 52, 0
3, 684750, Note_on_c, 0, 50, 100
3, 684780, Note_on_c, 0, 50, 0
3, 684780, Note_on_c, 0, 52, 100
3, 684810, Note_on_c, 0, 52, 0
3, 684810, Note_on_c, 0, 53, 100
3, 684840, Note_on_c, 0, 53, 0
3, 684840, Note_on_c, 0, 52, 100
3, 684870, Note_on_c, 0, 52, 0
3, 684870, Note_on_c, 0, 53, 100
3, 684900, Note_on_c, 0, 53, 0
3, 684900, Note_on_c, 0, 55, 100
3, 684930, Note_on_c, 0, 55, 0
3, 684930, Note_on_c, 0, 53, 100
3, 685050, Note_on_c, 0, 53, 0
3, 685050, Note_on_c, 0, 55, 100
3, 685080, Note_on_c, 0, 55, 0
3, 685080, Note_on_c, 0, 57, 100
3, 685110, Note_on_c, 0, 57, 0
3, 685110, Note_on_c, 0, 55, 100
3, 685110, Note_on_c, 0, 65, 100
3, 685140, Note_on_c, 0, 55, 0
3, 685140, Note_on_c, 0, 57, 100
3, 685170, Note_on_c, 0, 57, 0
3, 685170, Note_on_c, 0, 58, 100
3, 685200, Note_on_c, 0, 58, 0
3, 685200, Note_on_c, 0, 65, 0
3, 685200, Note_on_c, 0, 60, 100
3, 685200, Note_on_c, 0, 57, 100
3, 685290, Note_on_c, 0, 57, 0
3, 685290, Note_on_c, 0, 60, 0
3, 685290, Note_on_c, 0, 53, 100
3, 685380, Note_on_c, 0, 53, 0
3, 685380, Note_on_c, 0, 57, 100
3, 685470, Note_on_c, 0, 57, 0
3, 685470, Note_on_c, 0, 62, 100
3, 685560, Note_on_c, 0, 62, 0
3, 685560, Note_on_c, 0, 60, 100
3, 686460, Note_on_c, 0, 60, 0
3, 686550, Note_on_c, 0, 60, 100
3, 686640, Note_on_c, 0, 60, 0
3, 686640, Note_on_c, 0, 65, 100
3, 686730, Note_on_c, 0, 65, 0
3, 686730, Note_on_c, 0, 53, 100
3, 686850, Note_on_c, 0, 53, 0
3, 686850, Note_on_c, 0, 55, 100
3, 686880, Note_on_c, 0, 55, 0
3, 686880, Note_on_c, 0, 57, 100
3, 686910, Note_on_c, 0, 57, 0
3, 686910, Note_on_c, 0, 55, 100
3, 686940, Note_on_c, 0, 55, 0
3, 686940, Note_on_c, 0, 57, 100
3, 686970, Note_on_c, 0, 57, 0
3, 686970, Note_on_c, 0, 58, 100
3, 687000, Note_on_c, 0, 58, 0
3, 687000, Note_on_c, 0, 57, 100
3, 687030, Note_on_c, 0, 57, 0
3, 687030, Note_on_c, 0, 58, 100
3, 687060, Note_on_c, 0, 58, 0
3, 687060, Note_on_c, 0, 60, 100
3, 687090, Note_on_c, 0, 60, 0
3, 687090, Note_on_c, 0, 58, 100
3, 687210, Note_on_c, 0, 58, 0
3, 687210, Note_on_c, 0, 60, 100
3, 687240, Note_on_c, 0, 60, 0
3, 687240, Note_on_c, 0, 62, 100
3, 687270, Note_on_c, 0, 62, 0
3, 687270, Note_on_c, 0, 60, 100
3, 687300, Note_on_c, 0, 60, 0
3, 687300, Note_on_c, 0, 62, 100
3, 687330, Note_on_c, 0, 62, 0
3, 687330, Note_on_c, 0, 63, 100
3, 687360, Note_on_c, 0, 63, 0
3, 687360, Note_on_c, 0, 62, 100
3, 687390, Note_on_c, 0, 62, 0
3, 687390, Note_on_c, 0, 60, 100
3, 687420, Note_on_c, 0, 60, 0
3, 687420, Note_on_c, 0, 58, 100
3, 687450, Note_on_c, 0, 58, 0
3, 687450, Note_on_c, 0, 60, 100
3, 687570, Note_on_c, 0, 60, 0
3, 687570, Note_on_c, 0, 58, 100
3, 687600, Note_on_c, 0, 58, 0
3, 687600, Note_on_c, 0, 57, 100
3, 687630, Note_on_c, 0, 57, 0
3, 687630, Note_on_c, 0, 58, 100
3, 687660, Note_on_c, 0, 58, 0
3, 687660, Note_on_c, 0, 57, 100
3, 687690, Note_on_c, 0, 57, 0
3, 687690, Note_on_c, 0, 55, 100
3, 687720, Note_on_c, 0, 55, 0
3, 687720, Note_on_c, 0, 57, 100
3, 687780, Note_on_c, 0, 57, 0
3, 687780, Note_on_c, 0, 60, 100
3, 687810, Note_on_c, 0, 60, 0
3, 687810, Note_on_c, 0, 65, 100
3, 687870, Note_on_c, 0, 65, 0
3, 687870, Note_on_c, 0, 60, 100
3, 687900, Note_on_c, 0, 60, 0
3, 687900, Note_on_c, 0, 57, 100
3, 687960, Note_on_c, 0, 57, 0
3, 687960, Note_on_c, 0, 55, 100
3, 687990, Note_on_c, 0, 55, 0
3, 687990, Note_on_c, 0, 57, 100
3, 688050, Note_on_c, 0, 57, 0
3, 688050, Note_on_c, 0, 59, 100
3, 688080, Note_on_c, 0, 59, 0
3, 688080, Note_on_c, 0, 60, 100
3, 688110, Note_on_c, 0, 60, 0
3, 688110, Note_on_c, 0, 64, 100
3, 688140, Note_on_c, 0, 64, 0
3, 688140, Note_on_c, 0, 62, 100
3, 688170, Note_on_c, 0, 62, 0
3, 688170, Note_on_c, 0, 60, 100
3, 688200, Note_on_c, 0, 60, 0
3, 688200, Note_on_c, 0, 59, 100
3, 688230, Note_on_c, 0, 59, 0
3, 688230, Note_on_c, 0, 57, 100
3, 688260, Note_on_c, 0, 57, 0
3, 688260, Note_on_c, 0, 56, 100
3, 688320, Note_on_c, 0, 56, 0
3, 688320, Note_on_c, 0, 57, 100
3, 688350, Note_on_c, 0, 57, 0
3, 688350, Note_on_c, 0, 59, 100
3, 688410, Note_on_c, 0, 59, 0
3, 688410, Note_on_c, 0, 55, 100
3, 688440, Note_on_c, 0, 55, 0
3, 688440, Note_on_c, 0, 64, 100
3, 688440, Note_on_c, 0, 57, 100
3, 688470, Note_on_c, 0, 57, 0
3, 688470, Note_on_c, 0, 56, 100
3, 688500, Note_on_c, 0, 56, 0
3, 688500, Note_on_c, 0, 54, 100
3, 688530, Note_on_c, 0, 54, 0
3, 688530, Note_on_c, 0, 56, 100
3, 688560, Note_on_c, 0, 56, 0
3, 688560, Note_on_c, 0, 52, 100
3, 688590, Note_on_c, 0, 52, 0
3, 688590, Note_on_c, 0, 56, 100
3, 688620, Note_on_c, 0, 56, 0
3, 688620, Note_on_c, 0, 59, 100
3, 688650, Note_on_c, 0, 59, 0
3, 688650, Note_on_c, 0, 60, 100
3, 688680, Note_on_c, 0, 60, 0
3, 688680, Note_on_c, 0, 62, 100
3, 688710, Note_on_c, 0, 62, 0
3, 688710, Note_on_c, 0, 60, 100
3, 688740, Note_on_c, 0, 60, 0
3, 688740, Note_on_c, 0, 59, 100
3, 688770, Note_on_c, 0, 59, 0
3, 688770, Note_on_c, 0, 57, 100
3, 688800, Note_on_c, 0, 57, 0
3, 688800, Note_on_c, 0, 59, 100
3, 688830, Note_on_c, 0, 59, 0
3, 688830, Note_on_c, 0, 60, 100
3, 688860, Note_on_c, 0, 60, 0
3, 688860, Note_on_c, 0, 62, 100
3, 688890, Note_on_c, 0, 62, 0
3, 688890, Note_on_c, 0, 60, 100
3, 688920, Note_on_c, 0, 60, 0
3, 688920, Note_on_c, 0, 64, 100
3, 688950, Note_on_c, 0, 64, 0
3, 688950, Note_on_c, 0, 62, 100
3, 688980, Note_on_c, 0, 62, 0
3, 688980, Note_on_c, 0, 60, 100
3, 689010, Note_on_c, 0, 60, 0
3, 689010, Note_on_c, 0, 59, 100
3, 689040, Note_on_c, 0, 59, 0
3, 689040, Note_on_c, 0, 57, 100
3, 689070, Note_on_c, 0, 57, 0
3, 689070, Note_on_c, 0, 56, 100
3, 689100, Note_on_c, 0, 56, 0
3, 689100, Note_on_c, 0, 57, 100
3, 689130, Note_on_c, 0, 57, 0
3, 689130, Note_on_c, 0, 59, 100
3, 689160, Note_on_c, 0, 59, 0
3, 689160, Note_on_c, 0, 57, 100
3, 689190, Note_on_c, 0, 57, 0
3, 689190, Note_on_c, 0, 64, 100
3, 689220, Note_on_c, 0, 64, 0
3, 689220, Note_on_c, 0, 60, 100
3, 689250, Note_on_c, 0, 60, 0
3, 689250, Note_on_c, 0, 57, 100
3, 689280, Note_on_c, 0, 57, 0
3, 689280, Note_on_c, 0, 60, 100
3, 689310, Note_on_c, 0, 60, 0
3, 689310, Note_on_c, 0, 57, 100
3, 689340, Note_on_c, 0, 57, 0
3, 689340, Note_on_c, 0, 52, 100
3, 689400, Note_on_c, 0, 52, 0
3, 689400, Note_on_c, 0, 53, 100
3, 689430, Note_on_c, 0, 53, 0
3, 689430, Note_on_c, 0, 52, 100
3, 689490, Note_on_c, 0, 52, 0
3, 689490, Note_on_c, 0, 50, 100
3, 689520, Note_on_c, 0, 50, 0
3, 689520, Note_on_c, 0, 48, 100
3, 689580, Note_on_c, 0, 48, 0
3, 689580, Note_on_c, 0, 52, 100
3, 689610, Note_on_c, 0, 52, 0
3, 689610, Note_on_c, 0, 57, 100
3, 689670, Note_on_c, 0, 57, 0
3, 689670, Note_on_c, 0, 52, 100
3, 689700, Note_on_c, 0, 52, 0
3, 689700, Note_on_c, 0, 64, 0
3, 689700, Note_on_c, 0, 48, 100
3, 689760, Note_on_c, 0, 48, 0
3, 689760, Note_on_c, 0, 47, 100
3, 689790, Note_on_c, 0, 47, 0
3, 689790, Note_on_c, 0, 48, 100
3, 689850, Note_on_c, 0, 48, 0
3, 689850, Note_on_c, 0, 50, 100
3, 689880, Note_on_c, 0, 50, 0
3, 689880, Note_on_c, 0, 59, 100
3, 689880, Note_on_c, 0, 52, 100
3, 689970, Note_on_c, 0, 52, 0
3, 689970, Note_on_c, 0, 55, 100
3, 690060, Note_on_c, 0, 55, 0
3, 690060, Note_on_c, 0, 59, 0
3, 690060, Note_on_c, 0, 52, 100
3, 690150, Note_on_c, 0, 52, 0
3, 690150, Note_on_c, 0, 64, 100
3, 690150, Note_on_c, 0, 49, 100
3, 690240, Note_on_c, 0, 49, 0
3, 690240, Note_on_c, 0, 64, 0
3, 690240, Note_on_c, 0, 65, 100
3, 690240, Note_on_c, 0, 50, 100
3, 690300, Note_on_c, 0, 50, 0
3, 690300, Note_on_c, 0, 53, 100
3, 690330, Note_on_c, 0, 53, 0
3, 690330, Note_on_c, 0, 58, 100
3, 690390, Note_on_c, 0, 58, 0
3, 690390, Note_on_c, 0, 53, 100
3, 690420, Note_on_c, 0, 53, 0
3, 690420, Note_on_c, 0, 65, 0
3, 690420, Note_on_c, 0, 50, 100
3, 690480, Note_on_c, 0, 50, 0
3, 690480, Note_on_c, 0, 48, 100
3, 690510, Note_on_c, 0, 48, 0
3, 690510, Note_on_c, 0, 50, 100
3, 690570, Note_on_c, 0, 50, 0
3, 690570, Note_on_c, 0, 52, 100
3, 690600, Note_on_c, 0, 52, 0
3, 690600, Note_on_c, 0, 60, 100
3, 690600, Note_on_c, 0, 53, 100
3, 690690, Note_on_c, 0, 53, 0
3, 690690, Note_on_c, 0, 57, 100
3, 690780, Note_on_c, 0, 57, 0
3, 690780, Note_on_c, 0, 60, 0
3, 690780, Note_on_c, 0, 53, 100
3, 690870, Note_on_c, 0, 53, 0
3, 690870, Note_on_c, 0, 65, 100
3, 690870, Note_on_c, 0, 50, 100
3, 690960, Note_on_c, 0, 50, 0
3, 690960, Note_on_c, 0, 65, 0
3, 690960, Note_on_c, 0, 48, 100
3, 690960, Note_on_c, 0, 67, 100
3, 691020, Note_on_c, 0, 67, 0
3, 691020, Note_on_c, 0, 64, 100
3, 691050, Note_on_c, 0, 64, 0
3, 691050, Note_on_c, 0, 48, 0
3, 691050, Note_on_c, 0, 57, 100
3, 691050, Note_on_c, 0, 61, 100
3, 691110, Note_on_c, 0, 61, 0
3, 691110, Note_on_c, 0, 64, 100
3, 691140, Note_on_c, 0, 64, 0
3, 691140, Note_on_c, 0, 57, 0
3, 691140, Note_on_c, 0, 58, 100
3, 691230, Note_on_c, 0, 58, 0
3, 691380, Note_on_c, 0, 58, 100
3, 691400, Note_on_c, 0, 58, 0
3, 691400, Note_on_c, 0, 57, 100
3, 691420, Note_on_c, 0, 57, 0
3, 691420, Note_on_c, 0, 55, 100
3, 691440, Note_on_c, 0, 55, 0
3, 691440, Note_on_c, 0, 53, 100
3, 691460, Note_on_c, 0, 53, 0
3, 691460, Note_on_c, 0, 52, 100
3, 691480, Note_on_c, 0, 52, 0
3, 691480, Note_on_c, 0, 50, 100
3, 691500, Note_on_c, 0, 50, 0
3, 691500, Note_on_c, 0, 49, 100
3, 691590, Note_on_c, 0, 49, 0
3, 691710, Note_on_c, 0, 55, 100
3, 691740, Note_on_c, 0, 55, 0
3, 691740, Note_on_c, 0, 50, 100
3, 691770, Note_on_c, 0, 50, 0
3, 691770, Note_on_c, 0, 52, 100
3, 691800, Note_on_c, 0, 52, 0
3, 691800, Note_on_c, 0, 53, 100
3, 691830, Note_on_c, 0, 53, 0
3, 691830, Note_on_c, 0, 55, 100
3, 691860, Note_on_c, 0, 55, 0
3, 691860, Note_on_c, 0, 52, 100
3, 691890, Note_on_c, 0, 52, 0
3, 691890, Note_on_c, 0, 53, 100
3, 691920, Note_on_c, 0, 53, 0
3, 691920, Note_on_c, 0, 55, 100
3, 691950, Note_on_c, 0, 55, 0
3, 691950, Note_on_c, 0, 57, 100
3, 691980, Note_on_c, 0, 57, 0
3, 691980, Note_on_c, 0, 55, 100
3, 692010, Note_on_c, 0, 55, 0
3, 692010, Note_on_c, 0, 53, 100
3, 692040, Note_on_c, 0, 53, 0
3, 692040, Note_on_c, 0, 53, 100
3, 692130, Note_on_c, 0, 53, 0
3, 692310, Note_on_c, 0, 61, 100
3, 692400, Note_on_c, 0, 61, 0
3, 692400, Note_on_c, 0, 62, 100
3, 692430, Note_on_c, 0, 62, 0
3, 692430, Note_on_c, 0, 64, 100
3, 692460, Note_on_c, 0, 64, 0
3, 692460, Note_on_c, 0, 65, 100
3, 692490, Note_on_c, 0, 65, 0
3, 692490, Note_on_c, 0, 64, 100
3, 692490, Note_on_c, 0, 61, 100
3, 692520, Note_on_c, 0, 64, 0
3, 692520, Note_on_c, 0, 62, 100
3, 692550, Note_on_c, 0, 62, 0
3, 692550, Note_on_c, 0, 65, 100
3, 692580, Note_on_c, 0, 65, 0
3, 692580, Note_on_c, 0, 61, 0
3, 693030, Note_on_c, 0, 55, 100
3, 693120, Note_on_c, 0, 55, 0
3, 693120, Note_on_c, 0, 62, 100
3, 693120, Note_on_c, 0, 69, 100
3, 693210, Note_on_c, 0, 69, 0
3, 693210, Note_on_c, 0, 62, 0
3, 693210, Note_on_c, 0, 65, 100
3, 693300, Note_on_c, 0, 65, 0
3, 693300, Note_on_c, 0, 62, 100
3, 693390, Note_on_c, 0, 62, 0
3, 693390, Note_on_c, 0, 62, 100
3, 693390, Note_on_c, 0, 69, 100
3, 693480, Note_on_c, 0, 69, 0
3, 693480, Note_on_c, 0, 62, 0
3, 693480, Note_on_c, 0, 60, 100
3, 693480, Note_on_c, 0, 64, 100
3, 693540, Note_on_c, 0, 60, 0
3, 693540, Note_on_c, 0, 57, 100
3, 693570, Note_on_c, 0, 57, 0
3, 693570, Note_on_c, 0, 64, 0
3, 693570, Note_on_c, 0, 52, 100
3, 693630, Note_on_c, 0, 52, 0
3, 693630, Note_on_c, 0, 57, 100
3, 693660, Note_on_c, 0, 57, 0
3, 693660, Note_on_c, 0, 60, 100
3, 693720, Note_on_c, 0, 60, 0
3, 693720, Note_on_c, 0, 64, 100
3, 693750, Note_on_c, 0, 64, 0
3, 693750, Note_on_c, 0, 62, 100
3, 693810, Note_on_c, 0, 62, 0
3, 693810, Note_on_c, 0, 58, 100
3, 693840, Note_on_c, 0, 58, 0
3, 693840, Note_on_c, 0, 67, 100
3, 693930, Note_on_c, 0, 67, 0
3, 693930, Note_on_c, 0, 64, 100
3, 694020, Note_on_c, 0, 64, 0
3, 694020, Note_on_c, 0, 60, 100
3, 694110, Note_on_c, 0, 60, 0
3, 694110, Note_on_c, 0, 67, 100
3, 694110, Note_on_c, 0, 60, 100
3, 694200, Note_on_c, 0, 60, 0
3, 694200, Note_on_c, 0, 67, 0
3, 694200, Note_on_c, 0, 58, 100
3, 694200, Note_on_c, 0, 62, 100
3, 694260, Note_on_c, 0, 58, 0
3, 694260, Note_on_c, 0, 55, 100
3, 694290, Note_on_c, 0, 55, 0
3, 694290, Note_on_c, 0, 62, 0
3, 694290, Note_on_c, 0, 50, 100
3, 694350, Note_on_c, 0, 50, 0
3, 694350, Note_on_c, 0, 55, 100
3, 694380, Note_on_c, 0, 55, 0
3, 694380, Note_on_c, 0, 58, 100
3, 694440, Note_on_c, 0, 58, 0
3, 694440, Note_on_c, 0, 62, 100
3, 694470, Note_on_c, 0, 62, 0
3, 694470, Note_on_c, 0, 60, 100
3, 694530, Note_on_c, 0, 60, 0
3, 694530, Note_on_c, 0, 58, 100
3, 694560, Note_on_c, 0, 58, 0
3, 694560, Note_on_c, 0, 65, 100
3, 694650, Note_on_c, 0, 65, 0
3, 694650, Note_on_c, 0, 62, 100
3, 694740, Note_on_c, 0, 62, 0
3, 694740, Note_on_c, 0, 58, 100
3, 694830, Note_on_c, 0, 58, 0
3, 694830, Note_on_c, 0, 58, 100
3, 694830, Note_on_c, 0, 65, 100
3, 694920, Note_on_c, 0, 65, 0
3, 694920, Note_on_c, 0, 58, 0
3, 694920, Note_on_c, 0, 57, 100
3, 694920, Note_on_c, 0, 60, 100
3, 694980, Note_on_c, 0, 57, 0
3, 694980, Note_on_c, 0, 53, 100
3, 695010, Note_on_c, 0, 53, 0
3, 695010, Note_on_c, 0, 60, 0
3, 695010, Note_on_c, 0, 48, 100
3, 695010, Note_on_c, 0, 57, 100
3, 695070, Note_on_c, 0, 48, 0
3, 695070, Note_on_c, 0, 53, 100
3, 695100, Note_on_c, 0, 53, 0
3, 695100, Note_on_c, 0, 57, 0
3, 695100, Note_on_c, 0, 57, 100
3, 695100, Note_on_c, 0, 60, 100
3, 695160, Note_on_c, 0, 57, 0
3, 695160, Note_on_c, 0, 60, 100
3, 695190, Note_on_c, 0, 60, 0
3, 695190, Note_on_c, 0, 60, 0
3, 695190, Note_on_c, 0, 58, 100
3, 695190, Note_on_c, 0, 65, 100
3, 695250, Note_on_c, 0, 58, 0
3, 695250, Note_on_c, 0, 57, 100
3, 695280, Note_on_c, 0, 57, 0
3, 695280, Note_on_c, 0, 65, 0
3, 695280, Note_on_c, 0, 64, 100
3, 695370, Note_on_c, 0, 64, 0
3, 695370, Note_on_c, 0, 61, 100
3, 695460, Note_on_c, 0, 61, 0
3, 695460, Note_on_c, 0, 64, 100
3, 695550, Note_on_c, 0, 64, 0
3, 695550, Note_on_c, 0, 57, 100
3, 695640, Note_on_c, 0, 57, 0
3, 695640, Note_on_c, 0, 67, 100
3, 695640, Note_on_c, 0, 58, 100
3, 695700, Note_on_c, 0, 67, 0
3, 695700, Note_on_c, 0, 64, 100
3, 695730, Note_on_c, 0, 64, 0
3, 695730, Note_on_c, 0, 58, 0
3, 695730, Note_on_c, 0, 61, 100
3, 695790, Note_on_c, 0, 61, 0
3, 695790, Note_on_c, 0, 64, 100
3, 695820, Note_on_c, 0, 64, 0
3, 695880, Note_on_c, 0, 52, 100
3, 695910, Note_on_c, 0, 52, 0
3, 695910, Note_on_c, 0, 53, 100
3, 695970, Note_on_c, 0, 53, 0
3, 695970, Note_on_c, 0, 55, 100
3, 696000, Note_on_c, 0, 55, 0
3, 696000, Note_on_c, 0, 49, 100
3, 696180, Note_on_c, 0, 49, 0
3, 696270, Note_on_c, 0, 64, 100
3, 696300, Note_on_c, 0, 49, 100
3, 696330, Note_on_c, 0, 49, 0
3, 696330, Note_on_c, 0, 58, 100
3, 696360, Note_on_c, 0, 58, 0
3, 696360, Note_on_c, 0, 64, 0
3, 696360, Note_on_c, 0, 57, 100
3, 696360, Note_on_c, 0, 65, 100
3, 696390, Note_on_c, 0, 65, 0
3, 696390, Note_on_c, 0, 67, 100
3, 696420, Note_on_c, 0, 67, 0
3, 696420, Note_on_c, 0, 69, 100
3, 696450, Note_on_c, 0, 69, 0
3, 696450, Note_on_c, 0, 64, 100
3, 696480, Note_on_c, 0, 57, 0
3, 696480, Note_on_c, 0, 55, 100
3, 696510, Note_on_c, 0, 55, 0
3, 696510, Note_on_c, 0, 54, 100
3, 696540, Note_on_c, 0, 54, 0
3, 696540, Note_on_c, 0, 55, 100
3, 696570, Note_on_c, 0, 64, 0
3, 696570, Note_on_c, 0, 66, 100
3, 696600, Note_on_c, 0, 66, 0
3, 696600, Note_on_c, 0, 67, 100
3, 696630, Note_on_c, 0, 67, 0
3, 696630, Note_on_c, 0, 62, 100
3, 696660, Note_on_c, 0, 55, 0
3, 696660, Note_on_c, 0, 57, 100
3, 696690, Note_on_c, 0, 57, 0
3, 696690, Note_on_c, 0, 55, 100
3, 696720, Note_on_c, 0, 55, 0
3, 696720, Note_on_c, 0, 62, 0
3, 696720, Note_on_c, 0, 53, 100
3, 696840, Note_on_c, 0, 53, 0
3, 696840, Note_on_c, 0, 52, 100
3, 696870, Note_on_c, 0, 52, 0
3, 696870, Note_on_c, 0, 50, 100
3, 696900, Note_on_c, 0, 50, 0
3, 696900, Note_on_c, 0, 64, 100
3, 696900, Note_on_c, 0, 52, 100
3, 696990, Note_on_c, 0, 64, 0
3, 697020, Note_on_c, 0, 52, 0
3, 697020, Note_on_c, 0, 53, 100
3, 697050, Note_on_c, 0, 53, 0
3, 697050, Note_on_c, 0, 52, 100
3, 697080, Note_on_c, 0, 52, 0
3, 697080, Note_on_c, 0, 57, 100
3, 697080, Note_on_c, 0, 50, 100
3, 697170, Note_on_c, 0, 57, 0
3, 697470, Note_on_c, 0, 50, 0
3, 697470, Note_on_c, 0, 49, 100
3, 697500, Note_on_c, 0, 49, 0
3, 697500, Note_on_c, 0, 47, 100
3, 697530, Note_on_c, 0, 47, 0
3, 697530, Note_on_c, 0, 49, 100
3, 697560, Note_on_c, 0, 49, 0
3, 697560, Note_on_c, 0, 50, 100
3, 697590, Note_on_c, 0, 50, 0
3, 697590, Note_on_c, 0, 57, 100
3, 697620, Note_on_c, 0, 57, 0
3, 697620, Note_on_c, 0, 55, 100
3, 697650, Note_on_c, 0, 55, 0
3, 697650, Note_on_c, 0, 53, 100
3, 697680, Note_on_c, 0, 53, 0
3, 697680, Note_on_c, 0, 52, 100
3, 697710, Note_on_c, 0, 52, 0
3, 697710, Note_on_c, 0, 53, 100
3, 697740, Note_on_c, 0, 53, 0
3, 697740, Note_on_c, 0, 52, 100
3, 697770, Note_on_c, 0, 52, 0
3, 697770, Note_on_c, 0, 50, 100
3, 697800, Note_on_c, 0, 50, 0
3, 697800, Note_on_c, 0, 52, 100
3, 697830, Note_on_c, 0, 52, 0
3, 697830, Note_on_c, 0, 53, 100
3, 697860, Note_on_c, 0, 53, 0
3, 697860, Note_on_c, 0, 57, 100
3, 697890, Note_on_c, 0, 57, 0
3, 697890, Note_on_c, 0, 54, 100
3, 697920, Note_on_c, 0, 54, 0
3, 697920, Note_on_c, 0, 55, 100
3, 697950, Note_on_c, 0, 55, 0
3, 697950, Note_on_c, 0, 57, 100
3, 697980, Note_on_c, 0, 57, 0
3, 697980, Note_on_c, 0, 55, 100
3, 698070, Note_on_c, 0, 55, 0
3, 698160, Note_on_c, 0, 65, 100
3, 698220, Note_on_c, 0, 65, 0
3, 698220, Note_on_c, 0, 62, 100
3, 698250, Note_on_c, 0, 62, 0
3, 698250, Note_on_c, 0, 57, 100
3, 698310, Note_on_c, 0, 57, 0
3, 698310, Note_on_c, 0, 62, 100
3, 698340, Note_on_c, 0, 62, 0
3, 698340, Note_on_c, 0, 65, 100
3, 698400, Note_on_c, 0, 65, 0
3, 698400, Note_on_c, 0, 67, 100
3, 698430, Note_on_c, 0, 67, 0
3, 698430, Note_on_c, 0, 65, 100
3, 698430, Note_on_c, 0, 57, 100
3, 698490, Note_on_c, 0, 65, 0
3, 698490, Note_on_c, 0, 64, 100
3, 698520, Note_on_c, 0, 64, 0
3, 698520, Note_on_c, 0, 57, 0
3, 698520, Note_on_c, 0, 62, 100
3, 698520, Note_on_c, 0, 62, 100
3, 698610, Note_on_c, 0, 62, 0
3, 698610, Note_on_c, 0, 50, 100
3, 698730, Note_on_c, 0, 50, 0
3, 698730, Note_on_c, 0, 52, 100
3, 698760, Note_on_c, 0, 52, 0
3, 698760, Note_on_c, 0, 54, 100
3, 698790, Note_on_c, 0, 54, 0
3, 698790, Note_on_c, 0, 52, 100
3, 698820, Note_on_c, 0, 52, 0
3, 698820, Note_on_c, 0, 54, 100
3, 698850, Note_on_c, 0, 54, 0
3, 698850, Note_on_c, 0, 55, 100
3, 698880, Note_on_c, 0, 55, 0
3, 698880, Note_on_c, 0, 54, 100
3, 698910, Note_on_c, 0, 54, 0
3, 698910, Note_on_c, 0, 55, 100
3, 698940, Note_on_c, 0, 55, 0
3, 698940, Note_on_c, 0, 57, 100
3, 698970, Note_on_c, 0, 57, 0
3, 698970, Note_on_c, 0, 55, 100
3, 699090, Note_on_c, 0, 55, 0
3, 699090, Note_on_c, 0, 57, 100
3, 699120, Note_on_c, 0, 57, 0
3, 699120, Note_on_c, 0, 58, 100
3, 699150, Note_on_c, 0, 58, 0
3, 699150, Note_on_c, 0, 57, 100
3, 699180, Note_on_c, 0, 57, 0
3, 699180, Note_on_c, 0, 58, 100
3, 699210, Note_on_c, 0, 58, 0
3, 699210, Note_on_c, 0, 60, 100
3, 699240, Note_on_c, 0, 60, 0
3, 699240, Note_on_c, 0, 58, 100
3, 699270, Note_on_c, 0, 58, 0
3, 699270, Note_on_c, 0, 57, 100
3, 699300, Note_on_c, 0, 57, 0
3, 699300, Note_on_c, 0, 55, 100
3, 699330, Note_on_c, 0, 55, 0
3, 699330, Note_on_c, 0, 62, 0
3, 699330, Note_on_c, 0, 57, 100
3, 699330, Note_on_c, 0, 61, 100
3, 699420, Note_on_c, 0, 61, 0
3, 699420, Note_on_c, 0, 64, 100
3, 699450, Note_on_c, 0, 57, 0
3, 699450, Note_on_c, 0, 55, 100
3, 699480, Note_on_c, 0, 55, 0
3, 699480, Note_on_c, 0, 53, 100
3, 699510, Note_on_c, 0, 53, 0
3, 699510, Note_on_c, 0, 64, 0
3, 699510, Note_on_c, 0, 55, 100
3, 699540, Note_on_c, 0, 55, 0
3, 699540, Note_on_c, 0, 53, 100
3, 699570, Note_on_c, 0, 53, 0
3, 699570, Note_on_c, 0, 52, 100
3, 699600, Note_on_c, 0, 52, 0
3, 699600, Note_on_c, 0, 53, 100
3, 699660, Note_on_c, 0, 53, 0
3, 699660, Note_on_c, 0, 57, 100
3, 699690, Note_on_c, 0, 57, 0
3, 699690, Note_on_c, 0, 62, 100
3, 699750, Note_on_c, 0, 62, 0
3, 699750, Note_on_c, 0, 57, 100
3, 699780, Note_on_c, 0, 57, 0
3, 699780, Note_on_c, 0, 53, 100
3, 699840, Note_on_c, 0, 53, 0
3, 699840, Note_on_c, 0, 52, 100
3, 699870, Note_on_c, 0, 52, 0
3, 699870, Note_on_c, 0, 54, 100
3, 699930, Note_on_c, 0, 54, 0
3, 699930, Note_on_c, 0, 55, 100
3, 699960, Note_on_c, 0, 55, 0
3, 699960, Note_on_c, 0, 57, 100
3, 699990, Note_on_c, 0, 57, 0
3, 699990, Note_on_c, 0, 58, 100
3, 700020, Note_on_c, 0, 58, 0
3, 700020, Note_on_c, 0, 60, 100
3, 700050, Note_on_c, 0, 60, 0
3, 700050, Note_on_c, 0, 58, 100
3, 700140, Note_on_c, 0, 58, 100
3, 700140, Note_on_c, 0, 62, 100
3, 700170, Note_on_c, 0, 62, 0
3, 700170, Note_on_c, 0, 58, 0
3, 700170, Note_on_c, 0, 58, 0
3, 700170, Note_on_c, 0, 60, 100
3, 700170, Note_on_c, 0, 60, 100
3, 700200, Note_on_c, 0, 60, 0
3, 700200, Note_on_c, 0, 60, 0
3, 700200, Note_on_c, 0, 58, 100
3, 700200, Note_on_c, 0, 62, 100
3, 700230, Note_on_c, 0, 62, 0
3, 700230, Note_on_c, 0, 58, 0
3, 700230, Note_on_c, 0, 60, 100
3, 700230, Note_on_c, 0, 57, 100
3, 700260, Note_on_c, 0, 60, 0
3, 700260, Note_on_c, 0, 59, 100
3, 700290, Note_on_c, 0, 59, 0
3, 700290, Note_on_c, 0, 57, 0
3, 700290, Note_on_c, 0, 57, 100
3, 700320, Note_on_c, 0, 57, 0
3, 700320, Note_on_c, 0, 62, 100
3, 700680, Note_on_c, 0, 62, 0
3, 702390, Note_on_c, 0, 50, 100
3, 702480, Note_on_c, 0, 50, 0
3, 702480, Note_on_c, 0, 43, 100
3, 702570, Note_on_c, 0, 43, 0
3, 702570, Note_on_c, 0, 57, 100
3, 702690, Note_on_c, 0, 57, 0
3, 702690, Note_on_c, 0, 55, 100
3, 702720, Note_on_c, 0, 55, 0
3, 702720, Note_on_c, 0, 53, 100
3, 702750, Note_on_c, 0, 53, 0
3, 702750, Note_on_c, 0, 55, 100
3, 702780, Note_on_c, 0, 55, 0
3, 702780, Note_on_c, 0, 53, 100
3, 702810, Note_on_c, 0, 53, 0
3, 702810, Note_on_c, 0, 52, 100
3, 702840, Note_on_c, 0, 52, 0
3, 702840, Note_on_c, 0, 53, 100
3, 702870, Note_on_c, 0, 53, 0
3, 702870, Note_on_c, 0, 52, 100
3, 702900, Note_on_c, 0, 52, 0
3, 702900, Note_on_c, 0, 50, 100
3, 702930, Note_on_c, 0, 50, 0
3, 702930, Note_on_c, 0, 52, 100
3, 703050, Note_on_c, 0, 52, 0
3, 703050, Note_on_c, 0, 50, 100
3, 703080, Note_on_c, 0, 50, 0
3, 703080, Note_on_c, 0, 49, 100
3, 703110, Note_on_c, 0, 49, 0
3, 703110, Note_on_c, 0, 50, 100
3, 703140, Note_on_c, 0, 50, 0
3, 703140, Note_on_c, 0, 49, 100
3, 703170, Note_on_c, 0, 49, 0
3, 703170, Note_on_c, 0, 47, 100
3, 703200, Note_on_c, 0, 47, 0
3, 703200, Note_on_c, 0, 49, 100
3, 703230, Note_on_c, 0, 49, 0
3, 703230, Note_on_c, 0, 50, 100
3, 703260, Note_on_c, 0, 50, 0
3, 703260, Note_on_c, 0, 52, 100
3, 703290, Note_on_c, 0, 52, 0
3, 703290, Note_on_c, 0, 50, 100
3, 703410, Note_on_c, 0, 50, 0
3, 703410, Note_on_c, 0, 52, 100
3, 703440, Note_on_c, 0, 52, 0
3, 703440, Note_on_c, 0, 53, 100
3, 703470, Note_on_c, 0, 53, 0
3, 703470, Note_on_c, 0, 52, 100
3, 703500, Note_on_c, 0, 52, 0
3, 703500, Note_on_c, 0, 53, 100
3, 703530, Note_on_c, 0, 53, 0
3, 703530, Note_on_c, 0, 55, 100
3, 703560, Note_on_c, 0, 55, 0
3, 703560, Note_on_c, 0, 53, 100
3, 703620, Note_on_c, 0, 53, 0
3, 703620, Note_on_c, 0, 50, 100
3, 703650, Note_on_c, 0, 50, 0
3, 703650, Note_on_c, 0, 45, 100
3, 703710, Note_on_c, 0, 45, 0
3, 703710, Note_on_c, 0, 50, 100
3, 703740, Note_on_c, 0, 50, 0
3, 703740, Note_on_c, 0, 53, 100
3, 703800, Note_on_c, 0, 53, 0
3, 703800, Note_on_c, 0, 55, 100
3, 703830, Note_on_c, 0, 55, 0
3, 703830, Note_on_c, 0, 53, 100
3, 703890, Note_on_c, 0, 53, 0
3, 703890, Note_on_c, 0, 52, 100
3, 703920, Note_on_c, 0, 52, 0
3, 703920, Note_on_c, 0, 50, 100
3, 703950, Note_on_c, 0, 50, 0
3, 703950, Note_on_c, 0, 49, 100
3, 703980, Note_on_c, 0, 49, 0
3, 703980, Note_on_c, 0, 47, 100
3, 704010, Note_on_c, 0, 47, 0
3, 704010, Note_on_c, 0, 49, 100
3, 704040, Note_on_c, 0, 49, 0
3, 704040, Note_on_c, 0, 50, 100
3, 704070, Note_on_c, 0, 50, 0
3, 704070, Note_on_c, 0, 52, 100
3, 704100, Note_on_c, 0, 52, 0
3, 704100, Note_on_c, 0, 53, 100
3, 704190, Note_on_c, 0, 53, 0
3, 704190, Note_on_c, 0, 44, 100
3, 704280, Note_on_c, 0, 44, 0
3, 704280, Note_on_c, 0, 45, 100
3, 704370, Note_on_c, 0, 45, 0
3, 704370, Note_on_c, 0, 65, 100
3, 704400, Note_on_c, 0, 65, 0
3, 704400, Note_on_c, 0, 64, 100
3, 704430, Note_on_c, 0, 64, 0
3, 704430, Note_on_c, 0, 67, 100
3, 704460, Note_on_c, 0, 67, 0
3, 704460, Note_on_c, 0, 65, 100
3, 704490, Note_on_c, 0, 65, 0
3, 704490, Note_on_c, 0, 64, 100
3, 704520, Note_on_c, 0, 64, 0
3, 704520, Note_on_c, 0, 62, 100
3, 704550, Note_on_c, 0, 62, 0
3, 704550, Note_on_c, 0, 57, 100
3, 704550, Note_on_c, 0, 61, 100
3, 704580, Note_on_c, 0, 61, 0
3, 704580, Note_on_c, 0, 62, 100
3, 704610, Note_on_c, 0, 62, 0
3, 704610, Note_on_c, 0, 64, 100
3, 704640, Note_on_c, 0, 64, 0
3, 704640, Note_on_c, 0, 62, 100
3, 704730, Note_on_c, 0, 62, 0
3, 704730, Note_on_c, 0, 57, 0
3, 704730, Note_on_c, 0, 56, 100
3, 704760, Note_on_c, 0, 56, 0
3, 704760, Note_on_c, 0, 57, 100
3, 704790, Note_on_c, 0, 57, 0
3, 704790, Note_on_c, 0, 54, 100
3, 704820, Note_on_c, 0, 54, 0
3, 704820, Note_on_c, 0, 57, 100
3, 704835, Note_on_c, 0, 57, 0
3, 704835, Note_on_c, 0, 55, 100
3, 704850, Note_on_c, 0, 55, 0
3, 704850, Note_on_c, 0, 57, 100
3, 704865, Note_on_c, 0, 57, 0
3, 704865, Note_on_c, 0, 55, 100
3, 704880, Note_on_c, 0, 55, 0
3, 704880, Note_on_c, 0, 57, 100
3, 704895, Note_on_c, 0, 57, 0
3, 704895, Note_on_c, 0, 55, 100
3, 704910, Note_on_c, 0, 55, 0
3, 704910, Note_on_c, 0, 57, 100
3, 704910, Note_on_c, 0, 65, 100
3, 704925, Note_on_c, 0, 57, 0
3, 704925, Note_on_c, 0, 55, 100
3, 704940, Note_on_c, 0, 55, 0
3, 704940, Note_on_c, 0, 57, 100
3, 704955, Note_on_c, 0, 57, 0
3, 704955, Note_on_c, 0, 55, 100
3, 704970, Note_on_c, 0, 55, 0
3, 704970, Note_on_c, 0, 53, 100
3, 704985, Note_on_c, 0, 53, 0
3, 704985, Note_on_c, 0, 55, 100
3, 705000, Note_on_c, 0, 55, 0
3, 705000, Note_on_c, 0, 65, 0
3, 705000, Note_on_c, 0, 57, 100
3, 705000, Note_on_c, 0, 64, 100
3, 705090, Note_on_c, 0, 64, 0
3, 705090, Note_on_c, 0, 60, 100
3, 705180, Note_on_c, 0, 60, 0
3, 705180, Note_on_c, 0, 64, 100
3, 705270, Note_on_c, 0, 64, 0
3, 705420, Note_on_c, 0, 57, 0
3, 705420, Note_on_c, 0, 52, 100
3, 705450, Note_on_c, 0, 52, 0
3, 705450, Note_on_c, 0, 48, 100
3, 705510, Note_on_c, 0, 48, 0
3, 705510, Note_on_c, 0, 52, 100
3, 705540, Note_on_c, 0, 52, 0
3, 705540, Note_on_c, 0, 57, 100
3, 705600, Note_on_c, 0, 57, 0
3, 705600, Note_on_c, 0, 58, 100
3, 705630, Note_on_c, 0, 58, 0
3, 705630, Note_on_c, 0, 57, 100
3, 705690, Note_on_c, 0, 57, 0
3, 705690, Note_on_c, 0, 55, 100
3, 705720, Note_on_c, 0, 55, 0
3, 705720, Note_on_c, 0, 53, 100
3, 705780, Note_on_c, 0, 53, 0
3, 705780, Note_on_c, 0, 57, 100
3, 705810, Note_on_c, 0, 57, 0
3, 705810, Note_on_c, 0, 62, 100
3, 705870, Note_on_c, 0, 62, 0
3, 705870, Note_on_c, 0, 57, 100
3, 705900, Note_on_c, 0, 57, 0
3, 705900, Note_on_c, 0, 53, 100
3, 705960, Note_on_c, 0, 53, 0
3, 705960, Note_on_c, 0, 50, 100
3, 705990, Note_on_c, 0, 50, 0
3, 705990, Note_on_c, 0, 52, 100
3, 706050, Note_on_c, 0, 52, 0
3, 706050, Note_on_c, 0, 54, 100
3, 706080, Note_on_c, 0, 54, 0
3, 706080, Note_on_c, 0, 55, 100
3, 706140, Note_on_c, 0, 55, 0
3, 706140, Note_on_c, 0, 50, 100
3, 706170, Note_on_c, 0, 50, 0
3, 706170, Note_on_c, 0, 46, 100
3, 706230, Note_on_c, 0, 46, 0
3, 706230, Note_on_c, 0, 50, 100
3, 706260, Note_on_c, 0, 50, 0
3, 706260, Note_on_c, 0, 55, 100
3, 706320, Note_on_c, 0, 55, 0
3, 706320, Note_on_c, 0, 57, 100
3, 706350, Note_on_c, 0, 57, 0
3, 706350, Note_on_c, 0, 55, 100
3, 706410, Note_on_c, 0, 55, 0
3, 706410, Note_on_c, 0, 53, 100
3, 706440, Note_on_c, 0, 53, 0
3, 706440, Note_on_c, 0, 52, 100
3, 706500, Note_on_c, 0, 52, 0
3, 706500, Note_on_c, 0, 55, 100
3, 706530, Note_on_c, 0, 55, 0
3, 706530, Note_on_c, 0, 60, 100
3, 706590, Note_on_c, 0, 60, 0
3, 706590, Note_on_c, 0, 55, 100
3, 706620, Note_on_c, 0, 55, 0
3, 706620, Note_on_c, 0, 52, 100
3, 706680, Note_on_c, 0, 52, 0
3, 706680, Note_on_c, 0, 48, 100
3, 706710, Note_on_c, 0, 48, 0
3, 706710, Note_on_c, 0, 50, 100
3, 706770, Note_on_c, 0, 50, 0
3, 706770, Note_on_c, 0, 52, 100
3, 706800, Note_on_c, 0, 52, 0
3, 706800, Note_on_c, 0, 53, 100
3, 706860, Note_on_c, 0, 53, 0
3, 706860, Note_on_c, 0, 55, 100
3, 706890, Note_on_c, 0, 55, 0
3, 706890, Note_on_c, 0, 53, 100
3, 706950, Note_on_c, 0, 53, 0
3, 706950, Note_on_c, 0, 52, 100
3, 706980, Note_on_c, 0, 52, 0
3, 706980, Note_on_c, 0, 50, 100
3, 707040, Note_on_c, 0, 50, 0
3, 707040, Note_on_c, 0, 52, 100
3, 707070, Note_on_c, 0, 52, 0
3, 707070, Note_on_c, 0, 53, 100
3, 707130, Note_on_c, 0, 53, 0
3, 707130, Note_on_c, 0, 50, 100
3, 707160, Note_on_c, 0, 50, 0
3, 707160, Note_on_c, 0, 55, 100
3, 707220, Note_on_c, 0, 55, 0
3, 707220, Note_on_c, 0, 57, 100
3, 707250, Note_on_c, 0, 57, 0
3, 707250, Note_on_c, 0, 55, 100
3, 707310, Note_on_c, 0, 55, 0
3, 707310, Note_on_c, 0, 53, 100
3, 707340, Note_on_c, 0, 53, 0
3, 707340, Note_on_c, 0, 52, 100
3, 707400, Note_on_c, 0, 52, 0
3, 707400, Note_on_c, 0, 53, 100
3, 707430, Note_on_c, 0, 53, 0
3, 707430, Note_on_c, 0, 55, 100
3, 707490, Note_on_c, 0, 55, 0
3, 707490, Note_on_c, 0, 52, 100
3, 707520, Note_on_c, 0, 52, 0
3, 707520, Note_on_c, 0, 57, 100
3, 707580, Note_on_c, 0, 57, 0
3, 707580, Note_on_c, 0, 58, 100
3, 707610, Note_on_c, 0, 58, 0
3, 707610, Note_on_c, 0, 57, 100
3, 707670, Note_on_c, 0, 57, 0
3, 707670, Note_on_c, 0, 55, 100
3, 707700, Note_on_c, 0, 55, 0
3, 707700, Note_on_c, 0, 53, 100
3, 707760, Note_on_c, 0, 53, 0
3, 707760, Note_on_c, 0, 52, 100
3, 707790, Note_on_c, 0, 52, 0
3, 707790, Note_on_c, 0, 50, 100
3, 707790, Note_on_c, 0, 62, 100
3, 707850, Note_on_c, 0, 50, 0
3, 707850, Note_on_c, 0, 52, 100
3, 707880, Note_on_c, 0, 52, 0
3, 707880, Note_on_c, 0, 62, 0
3, 707880, Note_on_c, 0, 53, 100
3, 707880, Note_on_c, 0, 57, 100
3, 707940, Note_on_c, 0, 53, 0
3, 707940, Note_on_c, 0, 52, 100
3, 707970, Note_on_c, 0, 52, 0
3, 707970, Note_on_c, 0, 57, 0
3, 707970, Note_on_c, 0, 53, 100
3, 708030, Note_on_c, 0, 53, 0
3, 708030, Note_on_c, 0, 55, 100
3, 708060, Note_on_c, 0, 55, 0
3, 708060, Note_on_c, 0, 57, 100
3, 708150, Note_on_c, 0, 57, 0
3, 708150, Note_on_c, 0, 49, 100
3, 708240, Note_on_c, 0, 49, 0
3, 708240, Note_on_c, 0, 65, 100
3, 708240, Note_on_c, 0, 50, 100
3, 708270, Note_on_c, 0, 65, 0
3, 708270, Note_on_c, 0, 64, 100
3, 708300, Note_on_c, 0, 64, 0
3, 708300, Note_on_c, 0, 62, 100
3, 708330, Note_on_c, 0, 62, 0
3, 708330, Note_on_c, 0, 50, 0
3, 708330, Note_on_c, 0, 64, 100
3, 708330, Note_on_c, 0, 58, 100
3, 708420, Note_on_c, 0, 58, 0
3, 708450, Note_on_c, 0, 64, 0
3, 708450, Note_on_c, 0, 62, 100
3, 708480, Note_on_c, 0, 62, 0
3, 708480, Note_on_c, 0, 61, 100
3, 708510, Note_on_c, 0, 61, 0
3, 708510, Note_on_c, 0, 62, 100
3, 708510, Note_on_c, 0, 56, 100
3, 708540, Note_on_c, 0, 62, 0
3, 708540, Note_on_c, 0, 60, 100
3, 708570, Note_on_c, 0, 60, 0
3, 708570, Note_on_c, 0, 59, 100
3, 708600, Note_on_c, 0, 59, 0
3, 708600, Note_on_c, 0, 56, 0
3, 708600, Note_on_c, 0, 61, 100
3, 708600, Note_on_c, 0, 57, 100
3, 708630, Note_on_c, 0, 61, 0
3, 708630, Note_on_c, 0, 62, 100
3, 708660, Note_on_c, 0, 62, 0
3, 708660, Note_on_c, 0, 64, 100
3, 708690, Note_on_c, 0, 64, 0
3, 708690, Note_on_c, 0, 57, 0
3, 708690, Note_on_c, 0, 62, 100
3, 708810, Note_on_c, 0, 62, 0
3, 708810, Note_on_c, 0, 64, 100
3, 708840, Note_on_c, 0, 64, 0
3, 708840, Note_on_c, 0, 65, 100
3, 708870, Note_on_c, 0, 65, 0
3, 708870, Note_on_c, 0, 64, 100
3, 708870, Note_on_c, 0, 57, 100
3, 708900, Note_on_c, 0, 64, 0
3, 708900, Note_on_c, 0, 65, 100
3, 708930, Note_on_c, 0, 65, 0
3, 708960, Note_on_c, 0, 57, 0
3, 708960, Note_on_c, 0, 65, 100
3, 708960, Note_on_c, 0, 50, 100
3, 709020, Note_on_c, 0, 65, 0
3, 709020, Note_on_c, 0, 62, 100
3, 709050, Note_on_c, 0, 62, 0
3, 709050, Note_on_c, 0, 50, 0
3, 709050, Note_on_c, 0, 57, 100
3, 709110, Note_on_c, 0, 57, 0
3, 709110, Note_on_c, 0, 62, 100
3, 709140, Note_on_c, 0, 62, 0
3, 709230, Note_on_c, 0, 50, 100
3, 709320, Note_on_c, 0, 50, 0
3, 709320, Note_on_c, 0, 55, 100
3, 709320, Note_on_c, 0, 62, 100
3, 709410, Note_on_c, 0, 62, 0
3, 709410, Note_on_c, 0, 55, 0
3, 709410, Note_on_c, 0, 64, 100
3, 709470, Note_on_c, 0, 64, 0
3, 709470, Note_on_c, 0, 66, 100
3, 709500, Note_on_c, 0, 66, 0
3, 709500, Note_on_c, 0, 67, 100
3, 709590, Note_on_c, 0, 67, 0
3, 709590, Note_on_c, 0, 50, 100
3, 709680, Note_on_c, 0, 50, 0
3, 709680, Note_on_c, 0, 63, 100
3, 709680, Note_on_c, 0, 48, 100
3, 709740, Note_on_c, 0, 63, 0
3, 709740, Note_on_c, 0, 60, 100
3, 709770, Note_on_c, 0, 60, 0
3, 709770, Note_on_c, 0, 48, 0
3, 709770, Note_on_c, 0, 55, 100
3, 709830, Note_on_c, 0, 55, 0
3, 709830, Note_on_c, 0, 60, 100
3, 709860, Note_on_c, 0, 60, 0
3, 709950, Note_on_c, 0, 48, 100
3, 710040, Note_on_c, 0, 48, 0
3, 710040, Note_on_c, 0, 60, 100
3, 710040, Note_on_c, 0, 53, 100
3, 710130, Note_on_c, 0, 53, 0
3, 710130, Note_on_c, 0, 60, 0
3, 710130, Note_on_c, 0, 62, 100
3, 710190, Note_on_c, 0, 62, 0
3, 710190, Note_on_c, 0, 63, 100
3, 710220, Note_on_c, 0, 63, 0
3, 710220, Note_on_c, 0, 65, 100
3, 710310, Note_on_c, 0, 65, 0
3, 710310, Note_on_c, 0, 48, 100
3, 710400, Note_on_c, 0, 48, 0
3, 710400, Note_on_c, 0, 62, 100
3, 710400, Note_on_c, 0, 55, 100
3, 710460, Note_on_c, 0, 62, 0
3, 710460, Note_on_c, 0, 60, 100
3, 710490, Note_on_c, 0, 60, 0
3, 710490, Note_on_c, 0, 55, 0
3, 710490, Note_on_c, 0, 58, 100
3, 710550, Note_on_c, 0, 58, 0
3, 710550, Note_on_c, 0, 60, 100
3, 710580, Note_on_c, 0, 60, 0
3, 710580, Note_on_c, 0, 62, 100
3, 710640, Note_on_c, 0, 62, 0
3, 710640, Note_on_c, 0, 63, 100
3, 710670, Note_on_c, 0, 63, 0
3, 710670, Note_on_c, 0, 65, 100
3, 710730, Note_on_c, 0, 65, 0
3, 710730, Note_on_c, 0, 62, 100
3, 710760, Note_on_c, 0, 62, 0
3, 710760, Note_on_c, 0, 63, 100
3, 710880, Note_on_c, 0, 63, 0
3, 710880, Note_on_c, 0, 62, 100
3, 710910, Note_on_c, 0, 62, 0
3, 710910, Note_on_c, 0, 60, 100
3, 710940, Note_on_c, 0, 60, 0
3, 710940, Note_on_c, 0, 62, 100
3, 710970, Note_on_c, 0, 62, 0
3, 710970, Note_on_c, 0, 60, 100
3, 711000, Note_on_c, 0, 60, 0
3, 711000, Note_on_c, 0, 58, 100
3, 711030, Note_on_c, 0, 58, 0
3, 711030, Note_on_c, 0, 60, 100
3, 711030, Note_on_c, 0, 53, 100
3, 711060, Note_on_c, 0, 60, 0
3, 711060, Note_on_c, 0, 58, 100
3, 711090, Note_on_c, 0, 58, 0
3, 711090, Note_on_c, 0, 57, 100
3, 711120, Note_on_c, 0, 57, 0
3, 711120, Note_on_c, 0, 53, 0
3, 711120, Note_on_c, 0, 58, 100
3, 711120, Note_on_c, 0, 58, 100
3, 711150, Note_on_c, 0, 58, 0
3, 711210, Note_on_c, 0, 58, 0
3, 711210, Note_on_c, 0, 46, 100
3, 711330, Note_on_c, 0, 46, 0
3, 711330, Note_on_c, 0, 48, 100
3, 711360, Note_on_c, 0, 48, 0
3, 711360, Note_on_c, 0, 50, 100
3, 711390, Note_on_c, 0, 50, 0
3, 711390, Note_on_c, 0, 48, 100
3, 711420, Note_on_c, 0, 48, 0
3, 711420, Note_on_c, 0, 50, 100
3, 711450, Note_on_c, 0, 50, 0
3, 711450, Note_on_c, 0, 51, 100
3, 711480, Note_on_c, 0, 51, 0
3, 711480, Note_on_c, 0, 50, 100
3, 711510, Note_on_c, 0, 50, 0
3, 711510, Note_on_c, 0, 51, 100
3, 711540, Note_on_c, 0, 51, 0
3, 711540, Note_on_c, 0, 53, 100
3, 711570, Note_on_c, 0, 53, 0
3, 711570, Note_on_c, 0, 51, 100
3, 711690, Note_on_c, 0, 51, 0
3, 711690, Note_on_c, 0, 53, 100
3, 711720, Note_on_c, 0, 53, 0
3, 711720, Note_on_c, 0, 55, 100
3, 711750, Note_on_c, 0, 55, 0
3, 711750, Note_on_c, 0, 53, 100
3, 711780, Note_on_c, 0, 53, 0
3, 711780, Note_on_c, 0, 55, 100
3, 711810, Note_on_c, 0, 55, 0
3, 711810, Note_on_c, 0, 56, 100
3, 711840, Note_on_c, 0, 56, 0
3, 711840, Note_on_c, 0, 55, 100
3, 711870, Note_on_c, 0, 55, 0
3, 711870, Note_on_c, 0, 53, 100
3, 711900, Note_on_c, 0, 53, 0
3, 711900, Note_on_c, 0, 51, 100
3, 711930, Note_on_c, 0, 51, 0
3, 711930, Note_on_c, 0, 53, 100
3, 712050, Note_on_c, 0, 53, 0
3, 712050, Note_on_c, 0, 51, 100
3, 712080, Note_on_c, 0, 51, 0
3, 712080, Note_on_c, 0, 50, 100
3, 712110, Note_on_c, 0, 50, 0
3, 712110, Note_on_c, 0, 51, 100
3, 712140, Note_on_c, 0, 51, 0
3, 712140, Note_on_c, 0, 50, 100
3, 712170, Note_on_c, 0, 50, 0
3, 712170, Note_on_c, 0, 48, 100
3, 712200, Note_on_c, 0, 48, 0
3, 712200, Note_on_c, 0, 50, 100
3, 712260, Note_on_c, 0, 50, 0
3, 712260, Note_on_c, 0, 53, 100
3, 712290, Note_on_c, 0, 53, 0
3, 712290, Note_on_c, 0, 58, 100
3, 712350, Note_on_c, 0, 58, 0
3, 712350, Note_on_c, 0, 53, 100
3, 712380, Note_on_c, 0, 53, 0
3, 712380, Note_on_c, 0, 50, 100
3, 712440, Note_on_c, 0, 50, 0
3, 712440, Note_on_c, 0, 48, 100
3, 712470, Note_on_c, 0, 48, 0
3, 712470, Note_on_c, 0, 50, 100
3, 712530, Note_on_c, 0, 50, 0
3, 712530, Note_on_c, 0, 52, 100
3, 712560, Note_on_c, 0, 52, 0
3, 712560, Note_on_c, 0, 53, 100
3, 712650, Note_on_c, 0, 53, 0
3, 712650, Note_on_c, 0, 50, 100
3, 712740, Note_on_c, 0, 50, 0
3, 712740, Note_on_c, 0, 45, 100
3, 712800, Note_on_c, 0, 45, 0
3, 712800, Note_on_c, 0, 46, 100
3, 712830, Note_on_c, 0, 46, 0
3, 712830, Note_on_c, 0, 48, 100
3, 712890, Note_on_c, 0, 48, 0
3, 712890, Note_on_c, 0, 45, 100
3, 712920, Note_on_c, 0, 45, 0
3, 712920, Note_on_c, 0, 46, 100
3, 713040, Note_on_c, 0, 46, 0
3, 713040, Note_on_c, 0, 45, 100
3, 713070, Note_on_c, 0, 45, 0
3, 713070, Note_on_c, 0, 43, 100
3, 713100, Note_on_c, 0, 43, 0
3, 713100, Note_on_c, 0, 45, 100
3, 713130, Note_on_c, 0, 45, 0
3, 713130, Note_on_c, 0, 46, 100
3, 713160, Note_on_c, 0, 46, 0
3, 713160, Note_on_c, 0, 48, 100
3, 713190, Note_on_c, 0, 48, 0
3, 713190, Note_on_c, 0, 50, 100
3, 713220, Note_on_c, 0, 50, 0
3, 713220, Note_on_c, 0, 48, 100
3, 713250, Note_on_c, 0, 48, 0
3, 713250, Note_on_c, 0, 46, 100
3, 713280, Note_on_c, 0, 46, 0
3, 713280, Note_on_c, 0, 48, 100
3, 713310, Note_on_c, 0, 48, 0
3, 713310, Note_on_c, 0, 50, 100
3, 713340, Note_on_c, 0, 50, 0
3, 713340, Note_on_c, 0, 51, 100
3, 713370, Note_on_c, 0, 51, 0
3, 713370, Note_on_c, 0, 50, 100
3, 713400, Note_on_c, 0, 50, 0
3, 713400, Note_on_c, 0, 51, 100
3, 713430, Note_on_c, 0, 51, 0
3, 713430, Note_on_c, 0, 48, 100
3, 713460, Note_on_c, 0, 48, 0
3, 713460, Note_on_c, 0, 50, 100
3, 713490, Note_on_c, 0, 50, 0
3, 713490, Note_on_c, 0, 48, 100
3, 713520, Note_on_c, 0, 48, 0
3, 713520, Note_on_c, 0, 46, 100
3, 713550, Note_on_c, 0, 46, 0
3, 713550, Note_on_c, 0, 45, 100
3, 713580, Note_on_c, 0, 45, 0
3, 713580, Note_on_c, 0, 46, 100
3, 713610, Note_on_c, 0, 46, 0
3, 713610, Note_on_c, 0, 48, 100
3, 713640, Note_on_c, 0, 48, 0
3, 713640, Note_on_c, 0, 46, 100
3, 713730, Note_on_c, 0, 46, 0
3, 713730, Note_on_c, 0, 50, 100
3, 713820, Note_on_c, 0, 50, 0
3, 713820, Note_on_c, 0, 53, 100
3, 713910, Note_on_c, 0, 53, 0
3, 713910, Note_on_c, 0, 46, 100
3, 714000, Note_on_c, 0, 46, 0
3, 714000, Note_on_c, 0, 51, 100
3, 714090, Note_on_c, 0, 51, 0
3, 714090, Note_on_c, 0, 55, 100
3, 714180, Note_on_c, 0, 48, 100
3, 714210, Note_on_c, 0, 55, 0
3, 714210, Note_on_c, 0, 57, 100
3, 714240, Note_on_c, 0, 57, 0
3, 714240, Note_on_c, 0, 58, 100
3, 714270, Note_on_c, 0, 58, 0
3, 714270, Note_on_c, 0, 48, 0
3, 714270, Note_on_c, 0, 57, 100
3, 714300, Note_on_c, 0, 57, 0
3, 714300, Note_on_c, 0, 58, 100
3, 714330, Note_on_c, 0, 58, 0
3, 714330, Note_on_c, 0, 60, 100
3, 714360, Note_on_c, 0, 60, 0
3, 714360, Note_on_c, 0, 55, 100
3, 714360, Note_on_c, 0, 58, 100
3, 714390, Note_on_c, 0, 58, 0
3, 714390, Note_on_c, 0, 60, 100
3, 714420, Note_on_c, 0, 60, 0
3, 714420, Note_on_c, 0, 62, 100
3, 714450, Note_on_c, 0, 62, 0
3, 714450, Note_on_c, 0, 60, 100
3, 714570, Note_on_c, 0, 60, 0
3, 714570, Note_on_c, 0, 62, 100
3, 714600, Note_on_c, 0, 62, 0
3, 714600, Note_on_c, 0, 63, 100
3, 714630, Note_on_c, 0, 63, 0
3, 714630, Note_on_c, 0, 62, 100
3, 714660, Note_on_c, 0, 62, 0
3, 714660, Note_on_c, 0, 63, 100
3, 714690, Note_on_c, 0, 63, 0
3, 714690, Note_on_c, 0, 65, 100
3, 714720, Note_on_c, 0, 65, 0
3, 714720, Note_on_c, 0, 63, 100
3, 714750, Note_on_c, 0, 63, 0
3, 714750, Note_on_c, 0, 62, 100
3, 714780, Note_on_c, 0, 62, 0
3, 714780, Note_on_c, 0, 60, 100
3, 714810, Note_on_c, 0, 60, 0
3, 714810, Note_on_c, 0, 62, 100
3, 714930, Note_on_c, 0, 62, 0
3, 714930, Note_on_c, 0, 60, 100
3, 714960, Note_on_c, 0, 60, 0
3, 714960, Note_on_c, 0, 58, 100
3, 714990, Note_on_c, 0, 58, 0
3, 714990, Note_on_c, 0, 60, 100
3, 715020, Note_on_c, 0, 60, 0
3, 715020, Note_on_c, 0, 58, 100
3, 715050, Note_on_c, 0, 58, 0
3, 715050, Note_on_c, 0, 57, 100
3, 715080, Note_on_c, 0, 57, 0
3, 715080, Note_on_c, 0, 58, 100
3, 715140, Note_on_c, 0, 58, 0
3, 715140, Note_on_c, 0, 62, 100
3, 715170, Note_on_c, 0, 62, 0
3, 715170, Note_on_c, 0, 67, 100
3, 715230, Note_on_c, 0, 67, 0
3, 715230, Note_on_c, 0, 62, 100
3, 715260, Note_on_c, 0, 62, 0
3, 715260, Note_on_c, 0, 58, 100
3, 715320, Note_on_c, 0, 58, 0
3, 715320, Note_on_c, 0, 57, 100
3, 715350, Note_on_c, 0, 57, 0
3, 715350, Note_on_c, 0, 58, 100
3, 715410, Note_on_c, 0, 58, 0
3, 715410, Note_on_c, 0, 60, 100
3, 715440, Note_on_c, 0, 60, 0
3, 715440, Note_on_c, 0, 62, 100
3, 715530, Note_on_c, 0, 62, 0
3, 715530, Note_on_c, 0, 58, 100
3, 715620, Note_on_c, 0, 58, 0
3, 715620, Note_on_c, 0, 55, 0
3, 715620, Note_on_c, 0, 62, 100
3, 715710, Note_on_c, 0, 62, 0
3, 715710, Note_on_c, 0, 67, 100
3, 715710, Note_on_c, 0, 55, 100
3, 715770, Note_on_c, 0, 67, 0
3, 715770, Note_on_c, 0, 65, 100
3, 715800, Note_on_c, 0, 65, 0
3, 715800, Note_on_c, 0, 55, 0
3, 715800, Note_on_c, 0, 64, 100
3, 715800, Note_on_c, 0, 60, 100
3, 715860, Note_on_c, 0, 64, 0
3, 715980, Note_on_c, 0, 60, 0
3, 715980, Note_on_c, 0, 64, 100
3, 716040, Note_on_c, 0, 64, 0
3, 716040, Note_on_c, 0, 60, 100
3, 716070, Note_on_c, 0, 60, 0
3, 716070, Note_on_c, 0, 62, 100
3, 716070, Note_on_c, 0, 55, 100
3, 716130, Note_on_c, 0, 62, 0
3, 716130, Note_on_c, 0, 64, 100
3, 716160, Note_on_c, 0, 64, 0
3, 716160, Note_on_c, 0, 55, 0
3, 716160, Note_on_c, 0, 53, 100
3, 716160, Note_on_c, 0, 65, 100
3, 716250, Note_on_c, 0, 65, 0
3, 716250, Note_on_c, 0, 57, 100
3, 716340, Note_on_c, 0, 57, 0
3, 716340, Note_on_c, 0, 53, 0
3, 716340, Note_on_c, 0, 60, 100
3, 716430, Note_on_c, 0, 60, 0
3, 716430, Note_on_c, 0, 65, 100
3, 716430, Note_on_c, 0, 53, 100
3, 716490, Note_on_c, 0, 65, 0
3, 716490, Note_on_c, 0, 64, 100
3, 716520, Note_on_c, 0, 64, 0
3, 716520, Note_on_c, 0, 53, 0
3, 716520, Note_on_c, 0, 58, 100
3, 716520, Note_on_c, 0, 62, 100
3, 716580, Note_on_c, 0, 62, 0
3, 716700, Note_on_c, 0, 58, 0
3, 716700, Note_on_c, 0, 62, 100
3, 716760, Note_on_c, 0, 62, 0
3, 716760, Note_on_c, 0, 64, 100
3, 716790, Note_on_c, 0, 64, 0
3, 716790, Note_on_c, 0, 61, 100
3, 716790, Note_on_c, 0, 53, 100
3, 716850, Note_on_c, 0, 61, 0
3, 716850, Note_on_c, 0, 62, 100
3, 716880, Note_on_c, 0, 62, 0
3, 716880, Note_on_c, 0, 53, 0
3, 716880, Note_on_c, 0, 64, 100
3, 716880, Note_on_c, 0, 52, 100
3, 716940, Note_on_c, 0, 52, 0
3, 716940, Note_on_c, 0, 55, 100
3, 716970, Note_on_c, 0, 55, 0
3, 716970, Note_on_c, 0, 58, 100
3, 717030, Note_on_c, 0, 58, 0
3, 717030, Note_on_c, 0, 55, 100
3, 717060, Note_on_c, 0, 55, 0
3, 717060, Note_on_c, 0, 64, 0
3, 717060, Note_on_c, 0, 52, 100
3, 717120, Note_on_c, 0, 52, 0
3, 717120, Note_on_c, 0, 53, 100
3, 717150, Note_on_c, 0, 53, 0
3, 717150, Note_on_c, 0, 52, 100
3, 717210, Note_on_c, 0, 52, 0
3, 717210, Note_on_c, 0, 50, 100
3, 717240, Note_on_c, 0, 50, 0
3, 717240, Note_on_c, 0, 49, 100
3, 717300, Note_on_c, 0, 49, 0
3, 717300, Note_on_c, 0, 52, 100
3, 717330, Note_on_c, 0, 52, 0
3, 717330, Note_on_c, 0, 55, 100
3, 717390, Note_on_c, 0, 55, 0
3, 717390, Note_on_c, 0, 52, 100
3, 717420, Note_on_c, 0, 52, 0
3, 717420, Note_on_c, 0, 49, 100
3, 717480, Note_on_c, 0, 49, 0
3, 717480, Note_on_c, 0, 50, 100
3, 717510, Note_on_c, 0, 50, 0
3, 717510, Note_on_c, 0, 49, 100
3, 717570, Note_on_c, 0, 49, 0
3, 717570, Note_on_c, 0, 47, 100
3, 717600, Note_on_c, 0, 47, 0
3, 717600, Note_on_c, 0, 45, 100
3, 717660, Note_on_c, 0, 45, 0
3, 717660, Note_on_c, 0, 49, 100
3, 717690, Note_on_c, 0, 49, 0
3, 717690, Note_on_c, 0, 52, 100
3, 717750, Note_on_c, 0, 52, 0
3, 717750, Note_on_c, 0, 49, 100
3, 717780, Note_on_c, 0, 49, 0
3, 717780, Note_on_c, 0, 45, 100
3, 717840, Note_on_c, 0, 45, 0
3, 717840, Note_on_c, 0, 46, 100
3, 717870, Note_on_c, 0, 46, 0
3, 717870, Note_on_c, 0, 45, 100
3, 717930, Note_on_c, 0, 45, 0
3, 717930, Note_on_c, 0, 43, 100
3, 717960, Note_on_c, 0, 43, 0
3, 717960, Note_on_c, 0, 41, 100
3, 717960, Note_on_c, 0, 57, 100
3, 717990, Note_on_c, 0, 41, 0
3, 717990, Note_on_c, 0, 45, 100
3, 718020, Note_on_c, 0, 45, 0
3, 718020, Note_on_c, 0, 50, 100
3, 718050, Note_on_c, 0, 50, 0
3, 718050, Note_on_c, 0, 57, 0
3, 718050, Note_on_c, 0, 53, 100
3, 718080, Note_on_c, 0, 53, 0
3, 718080, Note_on_c, 0, 52, 100
3, 718110, Note_on_c, 0, 52, 0
3, 718110, Note_on_c, 0, 50, 100
3, 718140, Note_on_c, 0, 50, 0
3, 718140, Note_on_c, 0, 50, 100
3, 718155, Note_on_c, 0, 50, 0
3, 718155, Note_on_c, 0, 49, 100
3, 718170, Note_on_c, 0, 49, 0
3, 718170, Note_on_c, 0, 50, 100
3, 718185, Note_on_c, 0, 50, 0
3, 718185, Note_on_c, 0, 49, 100
3, 718200, Note_on_c, 0, 49, 0
3, 718200, Note_on_c, 0, 50, 100
3, 718215, Note_on_c, 0, 50, 0
3, 718215, Note_on_c, 0, 48, 100
3, 718230, Note_on_c, 0, 48, 0
3, 718230, Note_on_c, 0, 50, 100
3, 718245, Note_on_c, 0, 50, 0
3, 718245, Note_on_c, 0, 49, 100
3, 718290, Note_on_c, 0, 49, 0
3, 718290, Note_on_c, 0, 46, 100
3, 718305, Note_on_c, 0, 46, 0
3, 718305, Note_on_c, 0, 49, 100
3, 718320, Note_on_c, 0, 49, 0
3, 718320, Note_on_c, 0, 50, 100
3, 718410, Note_on_c, 0, 50, 0
3, 718410, Note_on_c, 0, 64, 100
3, 718410, Note_on_c, 0, 58, 100
3, 718500, Note_on_c, 0, 58, 0
3, 718530, Note_on_c, 0, 64, 0
3, 718530, Note_on_c, 0, 62, 100
3, 718560, Note_on_c, 0, 62, 0
3, 718560, Note_on_c, 0, 61, 100
3, 718590, Note_on_c, 0, 61, 0
3, 718590, Note_on_c, 0, 62, 100
3, 718590, Note_on_c, 0, 56, 100
3, 718620, Note_on_c, 0, 62, 0
3, 718620, Note_on_c, 0, 61, 100
3, 718650, Note_on_c, 0, 61, 0
3, 718650, Note_on_c, 0, 59, 100
3, 718680, Note_on_c, 0, 59, 0
3, 718680, Note_on_c, 0, 56, 0
3, 718680, Note_on_c, 0, 57, 100
3, 718740, Note_on_c, 0, 57, 0
3, 718740, Note_on_c, 0, 55, 100
3, 718770, Note_on_c, 0, 55, 0
3, 718770, Note_on_c, 0, 53, 100
3, 718800, Note_on_c, 0, 53, 0
3, 718800, Note_on_c, 0, 55, 100
3, 718830, Note_on_c, 0, 55, 0
3, 718830, Note_on_c, 0, 57, 100
3, 718860, Note_on_c, 0, 57, 0
3, 718860, Note_on_c, 0, 58, 100
3, 718920, Note_on_c, 0, 58, 0
3, 718920, Note_on_c, 0, 50, 100
3, 718950, Note_on_c, 0, 50, 0
3, 718950, Note_on_c, 0, 49, 100
3, 718980, Note_on_c, 0, 49, 0
3, 718980, Note_on_c, 0, 50, 100
3, 719010, Note_on_c, 0, 50, 0
3, 719010, Note_on_c, 0, 52, 100
3, 719040, Note_on_c, 0, 52, 0
3, 719040, Note_on_c, 0, 50, 100
3, 719100, Note_on_c, 0, 62, 100
3, 719130, Note_on_c, 0, 62, 0
3, 719130, Note_on_c, 0, 50, 0
3, 719130, Note_on_c, 0, 57, 100
3, 719130, Note_on_c, 0, 53, 100
3, 719190, Note_on_c, 0, 57, 0
3, 719190, Note_on_c, 0, 62, 100
3, 719220, Note_on_c, 0, 62, 0
3, 719220, Note_on_c, 0, 53, 0
3, 719220, Note_on_c, 0, 57, 100
3, 719310, Note_on_c, 0, 57, 0
3, 719310, Note_on_c, 0, 50, 100
3, 719400, Note_on_c, 0, 50, 0
3, 719400, Note_on_c, 0, 55, 100
3, 719490, Note_on_c, 0, 55, 0
3, 719670, Note_on_c, 0, 55, 100
3, 719760, Note_on_c, 0, 55, 0
3, 719760, Note_on_c, 0, 43, 100
3, 719850, Note_on_c, 0, 43, 0
3, 719850, Note_on_c, 0, 55, 100
3, 719940, Note_on_c, 0, 55, 0
3, 719940, Note_on_c, 0, 59, 100
3, 720030, Note_on_c, 0, 59, 0
3, 720030, Note_on_c, 0, 52, 100
3, 720120, Note_on_c, 0, 52, 0
3, 720120, Note_on_c, 0, 57, 100
3, 720210, Note_on_c, 0, 57, 0
3, 720390, Note_on_c, 0, 57, 100
3, 720480, Note_on_c, 0, 57, 0
3, 720480, Note_on_c, 0, 45, 100
3, 720570, Note_on_c, 0, 45, 0
3, 720570, Note_on_c, 0, 57, 100
3, 720660, Note_on_c, 0, 57, 0
3, 720660, Note_on_c, 0, 60, 100
3, 720750, Note_on_c, 0, 60, 0
3, 720750, Note_on_c, 0, 53, 100
3, 720840, Note_on_c, 0, 53, 0
3, 720840, Note_on_c, 0, 58, 100
3, 720930, Note_on_c, 0, 58, 0
3, 720930, Note_on_c, 0, 62, 100
3, 721020, Note_on_c, 0, 62, 0
3, 721020, Note_on_c, 0, 58, 100
3, 721110, Note_on_c, 0, 58, 0
3, 721110, Note_on_c, 0, 54, 100
3, 721200, Note_on_c, 0, 54, 0
3, 721200, Note_on_c, 0, 55, 100
3, 721290, Note_on_c, 0, 55, 0
3, 721290, Note_on_c, 0, 58, 100
3, 721380, Note_on_c, 0, 58, 0
3, 721380, Note_on_c, 0, 55, 100
3, 721470, Note_on_c, 0, 55, 0
3, 721470, Note_on_c, 0, 50, 100
3, 721560, Note_on_c, 0, 50, 0
3, 721560, Note_on_c, 0, 52, 100
3, 721620, Note_on_c, 0, 52, 0
3, 721620, Note_on_c, 0, 55, 100
3, 721650, Note_on_c, 0, 55, 0
3, 721650, Note_on_c, 0, 58, 100
3, 721710, Note_on_c, 0, 58, 0
3, 721710, Note_on_c, 0, 55, 100
3, 721740, Note_on_c, 0, 55, 0
3, 721740, Note_on_c, 0, 52, 100
3, 721800, Note_on_c, 0, 52, 0
3, 721800, Note_on_c, 0, 49, 100
3, 721830, Note_on_c, 0, 49, 0
3, 721830, Note_on_c, 0, 50, 100
3, 721890, Note_on_c, 0, 50, 0
3, 721890, Note_on_c, 0, 52, 100
3, 721920, Note_on_c, 0, 52, 0
3, 721920, Note_on_c, 0, 43, 100
3, 721920, Note_on_c, 0, 61, 100
3, 722160, Note_on_c, 0, 61, 0
3, 722160, Note_on_c, 0, 43, 0
3, 722190, Note_on_c, 0, 55, 100
3, 722190, Note_on_c, 0, 64, 100
3, 722280, Note_on_c, 0, 64, 0
3, 722280, Note_on_c, 0, 55, 0
3, 722280, Note_on_c, 0, 53, 100
3, 722310, Note_on_c, 0, 53, 0
3, 722310, Note_on_c, 0, 52, 100
3, 722340, Note_on_c, 0, 52, 0
3, 722340, Note_on_c, 0, 50, 100
3, 722370, Note_on_c, 0, 50, 0
3, 722370, Note_on_c, 0, 55, 100
3, 722490, Note_on_c, 0, 55, 0
3, 722490, Note_on_c, 0, 53, 100
3, 722520, Note_on_c, 0, 53, 0
3, 722520, Note_on_c, 0, 52, 100
3, 722550, Note_on_c, 0, 52, 0
3, 722550, Note_on_c, 0, 57, 100
3, 722640, Note_on_c, 0, 57, 0
3, 722640, Note_on_c, 0, 50, 100
3, 722730, Note_on_c, 0, 50, 0
3, 722910, Note_on_c, 0, 55, 100
3, 723000, Note_on_c, 0, 55, 0
3, 723000, Note_on_c, 0, 62, 100
3, 723090, Note_on_c, 0, 62, 0
3, 723090, Note_on_c, 0, 50, 100
3, 723210, Note_on_c, 0, 50, 0
3, 723210, Note_on_c, 0, 52, 100
3, 723240, Note_on_c, 0, 52, 0
3, 723240, Note_on_c, 0, 53, 100
3, 723270, Note_on_c, 0, 53, 0
3, 723270, Note_on_c, 0, 52, 100
3, 723300, Note_on_c, 0, 52, 0
3, 723300, Note_on_c, 0, 53, 100
3, 723330, Note_on_c, 0, 53, 0
3, 723330, Note_on_c, 0, 55, 100
3, 723360, Note_on_c, 0, 55, 0
3, 723360, Note_on_c, 0, 53, 100
3, 723390, Note_on_c, 0, 53, 0
3, 723390, Note_on_c, 0, 55, 100
3, 723420, Note_on_c, 0, 55, 0
3, 723420, Note_on_c, 0, 57, 100
3, 723450, Note_on_c, 0, 57, 0
3, 723450, Note_on_c, 0, 55, 100
3, 723570, Note_on_c, 0, 55, 0
3, 723570, Note_on_c, 0, 57, 100
3, 723600, Note_on_c, 0, 57, 0
3, 723600, Note_on_c, 0, 58, 100
3, 723630, Note_on_c, 0, 58, 0
3, 723630, Note_on_c, 0, 57, 100
3, 723660, Note_on_c, 0, 57, 0
3, 723660, Note_on_c, 0, 58, 100
3, 723690, Note_on_c, 0, 58, 0
3, 723690, Note_on_c, 0, 60, 100
3, 723720, Note_on_c, 0, 60, 0
3, 723720, Note_on_c, 0, 58, 100
3, 723750, Note_on_c, 0, 58, 0
3, 723750, Note_on_c, 0, 57, 100
3, 723780, Note_on_c, 0, 57, 0
3, 723780, Note_on_c, 0, 55, 100
3, 723810, Note_on_c, 0, 55, 0
3, 723810, Note_on_c, 0, 57, 100
3, 723930, Note_on_c, 0, 57, 0
3, 723930, Note_on_c, 0, 55, 100
3, 723960, Note_on_c, 0, 55, 0
3, 723960, Note_on_c, 0, 53, 100
3, 723990, Note_on_c, 0, 53, 0
3, 723990, Note_on_c, 0, 55, 100
3, 724020, Note_on_c, 0, 55, 0
3, 724020, Note_on_c, 0, 53, 100
3, 724050, Note_on_c, 0, 53, 0
3, 724050, Note_on_c, 0, 52, 100
3, 724080, Note_on_c, 0, 52, 0
3, 724080, Note_on_c, 0, 53, 100
3, 724140, Note_on_c, 0, 53, 0
3, 724140, Note_on_c, 0, 57, 100
3, 724170, Note_on_c, 0, 57, 0
3, 724170, Note_on_c, 0, 62, 100
3, 724230, Note_on_c, 0, 62, 0
3, 724230, Note_on_c, 0, 57, 100
3, 724260, Note_on_c, 0, 57, 0
3, 724260, Note_on_c, 0, 53, 100
3, 724320, Note_on_c, 0, 53, 0
3, 724320, Note_on_c, 0, 52, 100
3, 724350, Note_on_c, 0, 52, 0
3, 724350, Note_on_c, 0, 53, 100
3, 724410, Note_on_c, 0, 53, 0
3, 724410, Note_on_c, 0, 55, 100
3, 724440, Note_on_c, 0, 55, 0
3, 724440, Note_on_c, 0, 57, 100
3, 725250, Note_on_c, 0, 57, 0
3, 725250, Note_on_c, 0, 58, 100
3, 725340, Note_on_c, 0, 58, 0
3, 725340, Note_on_c, 0, 57, 100
3, 725355, Note_on_c, 0, 57, 0
3, 725355, Note_on_c, 0, 55, 100
3, 725370, Note_on_c, 0, 55, 0
3, 725370, Note_on_c, 0, 57, 100
3, 725385, Note_on_c, 0, 57, 0
3, 725385, Note_on_c, 0, 55, 100
3, 725400, Note_on_c, 0, 55, 0
3, 725400, Note_on_c, 0, 57, 100
3, 725415, Note_on_c, 0, 57, 0
3, 725415, Note_on_c, 0, 55, 100
3, 725430, Note_on_c, 0, 55, 0
3, 725430, Note_on_c, 0, 49, 100
3, 725520, Note_on_c, 0, 49, 0
3, 725520, Note_on_c, 0, 50, 100
3, 725550, Note_on_c, 0, 50, 0
3, 725550, Note_on_c, 0, 45, 100
3, 725580, Note_on_c, 0, 45, 0
3, 725580, Note_on_c, 0, 50, 100
3, 725610, Note_on_c, 0, 50, 0
3, 725610, Note_on_c, 0, 53, 100
3, 725640, Note_on_c, 0, 53, 0
3, 725640, Note_on_c, 0, 50, 100
3, 725670, Note_on_c, 0, 50, 0
3, 725670, Note_on_c, 0, 53, 100
3, 725700, Note_on_c, 0, 53, 0
3, 725700, Note_on_c, 0, 57, 100
3, 725790, Note_on_c, 0, 57, 0
3, 725790, Note_on_c, 0, 45, 100
3, 725880, Note_on_c, 0, 45, 0
3, 725880, Note_on_c, 0, 50, 100
3, 726000, Note_on_c, 0, 50, 0
3, 726000, Note_on_c, 0, 54, 100
3, 726030, Note_on_c, 0, 54, 0
3, 726030, Note_on_c, 0, 55, 100
3, 726060, Note_on_c, 0, 55, 0
3, 726060, Note_on_c, 0, 57, 100
3, 726090, Note_on_c, 0, 57, 0
3, 726090, Note_on_c, 0, 58, 100
3, 726120, Note_on_c, 0, 58, 0
3, 726120, Note_on_c, 0, 60, 100
3, 726150, Note_on_c, 0, 60, 0
3, 726150, Note_on_c, 0, 62, 100
3, 726210, Note_on_c, 0, 62, 0
3, 726210, Note_on_c, 0, 50, 100
3, 726240, Note_on_c, 0, 50, 0
3, 726240, Note_on_c, 0, 50, 100
3, 726600, Note_on_c, 0, 50, 0
3, 727320, Control_c, 0, 91, 64
3, 727320, Control_c, 0, 93, 10
3, 727320, Control_c, 0, 74, 64
3, 727320, Control_c, 0, 91, 64
3, 727320, Control_c, 0, 93, 10
3, 727320, Control_c, 0, 74, 64
3, 727680, Note_on_c, 0, 50, 100
3, 727920, Note_on_c, 0, 50, 0
3, 727920, Note_on_c, 0, 57, 100
3, 728280, Note_on_c, 0, 57, 0
3, 728280, Note_on_c, 0, 55, 100
3, 728400, Note_on_c, 0, 55, 0
3, 728400, Note_on_c, 0, 53, 100
3, 728880, Note_on_c, 0, 53, 0
3, 728880, Note_on_c, 0, 55, 100
3, 729360, Note_on_c, 0, 55, 0
3, 729360, Note_on_c, 0, 57, 100
3, 729840, Note_on_c, 0, 57, 0
3, 729840, Note_on_c, 0, 50, 100
3, 730080, Note_on_c, 0, 50, 0
3, 730080, Note_on_c, 0, 57, 100
3, 730080, Note_on_c, 0, 53, 100
3, 730320, Note_on_c, 0, 57, 0
3, 730320, Note_on_c, 0, 62, 100
3, 730440, Note_on_c, 0, 53, 0
3, 730440, Note_on_c, 0, 47, 100
3, 730560, Note_on_c, 0, 47, 0
3, 730560, Note_on_c, 0, 52, 100
3, 730680, Note_on_c, 0, 62, 0
3, 730680, Note_on_c, 0, 62, 100
3, 730800, Note_on_c, 0, 62, 0
3, 730800, Note_on_c, 0, 52, 0
3, 730800, Note_on_c, 0, 60, 100
3, 730800, Note_on_c, 0, 45, 100
3, 730920, Note_on_c, 0, 45, 0
3, 730920, Note_on_c, 0, 52, 100
3, 731040, Note_on_c, 0, 52, 0
3, 731040, Note_on_c, 0, 57, 100
3, 731160, Note_on_c, 0, 57, 0
3, 731160, Note_on_c, 0, 55, 100
3, 731280, Note_on_c, 0, 55, 0
3, 731280, Note_on_c, 0, 60, 0
3, 731280, Note_on_c, 0, 62, 100
3, 731280, Note_on_c, 0, 53, 100
3, 731400, Note_on_c, 0, 53, 0
3, 731400, Note_on_c, 0, 50, 100
3, 731520, Note_on_c, 0, 50, 0
3, 731520, Note_on_c, 0, 58, 100
3, 731640, Note_on_c, 0, 58, 0
3, 731640, Note_on_c, 0, 57, 100
3, 731760, Note_on_c, 0, 57, 0
3, 731760, Note_on_c, 0, 62, 0
3, 731760, Note_on_c, 0, 64, 100
3, 731760, Note_on_c, 0, 55, 100
3, 731880, Note_on_c, 0, 55, 0
3, 731880, Note_on_c, 0, 52, 100
3, 732000, Note_on_c, 0, 52, 0
3, 732000, Note_on_c, 0, 49, 100
3, 732120, Note_on_c, 0, 49, 0
3, 732120, Note_on_c, 0, 50, 100
3, 732180, Note_on_c, 0, 50, 0
3, 732180, Note_on_c, 0, 52, 100
3, 732240, Note_on_c, 0, 52, 0
3, 732240, Note_on_c, 0, 64, 0
3, 732240, Note_on_c, 0, 57, 100
3, 732240, Note_on_c, 0, 53, 100
3, 732360, Note_on_c, 0, 53, 0
3, 732360, Note_on_c, 0, 50, 100
3, 732480, Note_on_c, 0, 50, 0
3, 732480, Note_on_c, 0, 57, 0
3, 732480, Note_on_c, 0, 62, 100
3, 732480, Note_on_c, 0, 48, 100
3, 732600, Note_on_c, 0, 48, 0
3, 732600, Note_on_c, 0, 46, 100
3, 732720, Note_on_c, 0, 46, 0
3, 732720, Note_on_c, 0, 45, 100
3, 732840, Note_on_c, 0, 45, 0
3, 732840, Note_on_c, 0, 43, 100
3, 732960, Note_on_c, 0, 43, 0
3, 732960, Note_on_c, 0, 62, 0
3, 732960, Note_on_c, 0, 61, 100
3, 732960, Note_on_c, 0, 45, 100
3, 733200, Note_on_c, 0, 45, 0
3, 733200, Note_on_c, 0, 61, 0
3, 733200, Note_on_c, 0, 62, 100
3, 733200, Note_on_c, 0, 38, 100
3, 733320, Note_on_c, 0, 62, 0
3, 733320, Note_on_c, 0, 57, 100
3, 733440, Note_on_c, 0, 57, 0
3, 733440, Note_on_c, 0, 58, 100
3, 733560, Note_on_c, 0, 38, 0
3, 733560, Note_on_c, 0, 50, 100
3, 733680, Note_on_c, 0, 50, 0
3, 733680, Note_on_c, 0, 52, 100
3, 733800, Note_on_c, 0, 58, 0
3, 733800, Note_on_c, 0, 55, 100
3, 733920, Note_on_c, 0, 55, 0
3, 733920, Note_on_c, 0, 60, 100
3, 734040, Note_on_c, 0, 52, 0
3, 734040, Note_on_c, 0, 50, 100
3, 734100, Note_on_c, 0, 50, 0
3, 734100, Note_on_c, 0, 52, 100
3, 734160, Note_on_c, 0, 52, 0
3, 734160, Note_on_c, 0, 53, 100
3, 734280, Note_on_c, 0, 60, 0
3, 734280, Note_on_c, 0, 57, 100
3, 734400, Note_on_c, 0, 57, 0
3, 734400, Note_on_c, 0, 53, 0
3, 734400, Note_on_c, 0, 62, 100
3, 734400, Note_on_c, 0, 54, 100
3, 734520, Note_on_c, 0, 62, 0
3, 734520, Note_on_c, 0, 60, 100
3, 734640, Note_on_c, 0, 54, 0
3, 734640, Note_on_c, 0, 55, 100
3, 734760, Note_on_c, 0, 60, 0
3, 734760, Note_on_c, 0, 58, 100
3, 734880, Note_on_c, 0, 58, 0
3, 734880, Note_on_c, 0, 57, 100
3, 735000, Note_on_c, 0, 55, 0
3, 735000, Note_on_c, 0, 54, 100
3, 735060, Note_on_c, 0, 54, 0
3, 735060, Note_on_c, 0, 52, 100
3, 735120, Note_on_c, 0, 52, 0
3, 735120, Note_on_c, 0, 54, 100
3, 735240, Note_on_c, 0, 57, 0
3, 735240, Note_on_c, 0, 59, 100
3, 735300, Note_on_c, 0, 59, 0
3, 735300, Note_on_c, 0, 60, 100
3, 735360, Note_on_c, 0, 60, 0
3, 735360, Note_on_c, 0, 54, 0
3, 735360, Note_on_c, 0, 59, 100
3, 735360, Note_on_c, 0, 56, 100
3, 735600, Note_on_c, 0, 56, 0
3, 735600, Note_on_c, 0, 59, 0
3, 735600, Note_on_c, 0, 57, 100
3, 735600, Note_on_c, 0, 57, 100
3, 735840, Note_on_c, 0, 57, 0
3, 735960, Note_on_c, 0, 57, 0
3, 735960, Note_on_c, 0, 57, 100
3, 736080, Note_on_c, 0, 57, 0
3, 736080, Note_on_c, 0, 58, 100
3, 736440, Note_on_c, 0, 58, 0
3, 736440, Note_on_c, 0, 59, 100
3, 736560, Note_on_c, 0, 59, 0
3, 736560, Note_on_c, 0, 60, 100
3, 736800, Note_on_c, 0, 60, 0
3, 736800, Note_on_c, 0, 61, 100
3, 737040, Note_on_c, 0, 61, 0
3, 737040, Note_on_c, 0, 62, 100
3, 737160, Note_on_c, 0, 62, 0
3, 737160, Note_on_c, 0, 57, 100
3, 737280, Note_on_c, 0, 57, 0
3, 737280, Note_on_c, 0, 62, 100
3, 737280, Note_on_c, 0, 50, 100
3, 737520, Note_on_c, 0, 50, 0
3, 737520, Note_on_c, 0, 62, 0
3, 737520, Note_on_c, 0, 60, 100
3, 737520, Note_on_c, 0, 45, 100
3, 737760, Note_on_c, 0, 60, 0
3, 737880, Note_on_c, 0, 45, 0
3, 737880, Note_on_c, 0, 47, 100
3, 738000, Note_on_c, 0, 47, 0
3, 738000, Note_on_c, 0, 48, 100
3, 738480, Note_on_c, 0, 48, 0
3, 738480, Note_on_c, 0, 46, 100
3, 738720, Note_on_c, 0, 50, 100
3, 738960, Note_on_c, 0, 50, 0
3, 738960, Note_on_c, 0, 46, 0
3, 738960, Note_on_c, 0, 57, 100
3, 738960, Note_on_c, 0, 45, 100
3, 739320, Note_on_c, 0, 57, 0
3, 739320, Note_on_c, 0, 55, 100
3, 739440, Note_on_c, 0, 55, 0
3, 739440, Note_on_c, 0, 45, 0
3, 739440, Note_on_c, 0, 53, 100
3, 739440, Note_on_c, 0, 50, 100
3, 739920, Note_on_c, 0, 50, 0
3, 739920, Note_on_c, 0, 53, 0
3, 739920, Note_on_c, 0, 55, 100
3, 739920, Note_on_c, 0, 48, 100
3, 740040, Note_on_c, 0, 48, 0
3, 740040, Note_on_c, 0, 50, 100
3, 740160, Note_on_c, 0, 50, 0
3, 740160, Note_on_c, 0, 52, 100
3, 740400, Note_on_c, 0, 55, 0
3, 740400, Note_on_c, 0, 57, 100
3, 740520, Note_on_c, 0, 52, 0
3, 740520, Note_on_c, 0, 45, 100
3, 740640, Note_on_c, 0, 45, 0
3, 740640, Note_on_c, 0, 50, 100
3, 740760, Note_on_c, 0, 50, 0
3, 740760, Note_on_c, 0, 48, 100
3, 740880, Note_on_c, 0, 48, 0
3, 740880, Note_on_c, 0, 57, 0
3, 740880, Note_on_c, 0, 50, 100
3, 740880, Note_on_c, 0, 47, 100
3, 741120, Note_on_c, 0, 47, 0
3, 741120, Note_on_c, 0, 46, 100
3, 741240, Note_on_c, 0, 50, 0
3, 741240, Note_on_c, 0, 48, 100
3, 741300, Note_on_c, 0, 48, 0
3, 741300, Note_on_c, 0, 50, 100
3, 741360, Note_on_c, 0, 50, 0
3, 741360, Note_on_c, 0, 52, 100
3, 741480, Note_on_c, 0, 52, 0
3, 741480, Note_on_c, 0, 50, 100
3, 741540, Note_on_c, 0, 50, 0
3, 741540, Note_on_c, 0, 52, 100
3, 741600, Note_on_c, 0, 52, 0
3, 741600, Note_on_c, 0, 46, 0
3, 741600, Note_on_c, 0, 54, 100
3, 741600, Note_on_c, 0, 45, 100
3, 741720, Note_on_c, 0, 54, 0
3, 741720, Note_on_c, 0, 52, 100
3, 741780, Note_on_c, 0, 52, 0
3, 741780, Note_on_c, 0, 54, 100
3, 741840, Note_on_c, 0, 54, 0
3, 741840, Note_on_c, 0, 45, 0
3, 741840, Note_on_c, 0, 55, 100
3, 741840, Note_on_c, 0, 43, 100
3, 741960, Note_on_c, 0, 55, 0
3, 741960, Note_on_c, 0, 50, 100
3, 742080, Note_on_c, 0, 50, 0
3, 742080, Note_on_c, 0, 43, 0
3, 742080, Note_on_c, 0, 55, 100
3, 742200, Note_on_c, 0, 43, 100
3, 742320, Note_on_c, 0, 43, 0
3, 742320, Note_on_c, 0, 55, 0
3, 742320, Note_on_c, 0, 53, 100
3, 742320, Note_on_c, 0, 50, 100
3, 742440, Note_on_c, 0, 53, 0
3, 742440, Note_on_c, 0, 55, 100
3, 742500, Note_on_c, 0, 55, 0
3, 742500, Note_on_c, 0, 57, 100
3, 742560, Note_on_c, 0, 57, 0
3, 742560, Note_on_c, 0, 58, 100
3, 742680, Note_on_c, 0, 50, 0
3, 742680, Note_on_c, 0, 48, 100
3, 742740, Note_on_c, 0, 48, 0
3, 742740, Note_on_c, 0, 50, 100
3, 742800, Note_on_c, 0, 50, 0
3, 742800, Note_on_c, 0, 52, 100
3, 743040, Note_on_c, 0, 58, 0
3, 743040, Note_on_c, 0, 57, 100
3, 743160, Note_on_c, 0, 52, 0
3, 743160, Note_on_c, 0, 54, 100
3, 743220, Note_on_c, 0, 54, 0
3, 743220, Note_on_c, 0, 52, 100
3, 743280, Note_on_c, 0, 52, 0
3, 743280, Note_on_c, 0, 54, 100
3, 743400, Note_on_c, 0, 54, 0
3, 743400, Note_on_c, 0, 50, 100
3, 743520, Note_on_c, 0, 50, 0
3, 743520, Note_on_c, 0, 57, 0
3, 743520, Note_on_c, 0, 55, 100
3, 743520, Note_on_c, 0, 55, 100
3, 743640, Note_on_c, 0, 55, 0
3, 743640, Note_on_c, 0, 67, 100
3, 743700, Note_on_c, 0, 67, 0
3, 743700, Note_on_c, 0, 65, 100
3, 743760, Note_on_c, 0, 65, 0
3, 743760, Note_on_c, 0, 64, 100
3, 743880, Note_on_c, 0, 64, 0
3, 743880, Note_on_c, 0, 62, 100
3, 743940, Note_on_c, 0, 62, 0
3, 743940, Note_on_c, 0, 64, 100
3, 744000, Note_on_c, 0, 64, 0
3, 744000, Note_on_c, 0, 55, 0
3, 744000, Note_on_c, 0, 65, 100
3, 744000, Note_on_c, 0, 53, 100
3, 744120, Note_on_c, 0, 53, 0
3, 744120, Note_on_c, 0, 55, 100
3, 744240, Note_on_c, 0, 55, 0
3, 744240, Note_on_c, 0, 65, 0
3, 744240, Note_on_c, 0, 64, 100
3, 744240, Note_on_c, 0, 57, 100
3, 744360, Note_on_c, 0, 64, 0
3, 744360, Note_on_c, 0, 62, 100
3, 744480, Note_on_c, 0, 62, 0
3, 744480, Note_on_c, 0, 57, 0
3, 744480, Note_on_c, 0, 64, 100
3, 744480, Note_on_c, 0, 45, 100
3, 744720, Note_on_c, 0, 45, 0
3, 744720, Note_on_c, 0, 64, 0
3, 744720, Note_on_c, 0, 62, 100
3, 744720, Note_on_c, 0, 50, 100
3, 744840, Note_on_c, 0, 62, 0
3, 744840, Note_on_c, 0, 57, 100
3, 744900, Note_on_c, 0, 57, 0
3, 744900, Note_on_c, 0, 55, 100
3, 744960, Note_on_c, 0, 55, 0
3, 744960, Note_on_c, 0, 57, 100
3, 745080, Note_on_c, 0, 50, 0
3, 745080, Note_on_c, 0, 48, 100
3, 745200, Note_on_c, 0, 48, 0
3, 745200, Note_on_c, 0, 46, 100
3, 745320, Note_on_c, 0, 46, 0
3, 745320, Note_on_c, 0, 57, 0
3, 745320, Note_on_c, 0, 55, 100
3, 745320, Note_on_c, 0, 45, 100
3, 745380, Note_on_c, 0, 55, 0
3, 745380, Note_on_c, 0, 53, 100
3, 745440, Note_on_c, 0, 53, 0
3, 745440, Note_on_c, 0, 45, 0
3, 745440, Note_on_c, 0, 55, 100
3, 745440, Note_on_c, 0, 46, 100
3, 745680, Note_on_c, 0, 46, 0
3, 745680, Note_on_c, 0, 45, 100
3, 745800, Note_on_c, 0, 55, 0
3, 745800, Note_on_c, 0, 48, 100
3, 745920, Note_on_c, 0, 48, 0
3, 745920, Note_on_c, 0, 53, 100
3, 746040, Note_on_c, 0, 53, 0
3, 746040, Note_on_c, 0, 52, 100
3, 746160, Note_on_c, 0, 52, 0
3, 746160, Note_on_c, 0, 45, 0
3, 746160, Note_on_c, 0, 50, 100
3, 746160, Note_on_c, 0, 46, 100
3, 746280, Note_on_c, 0, 46, 0
3, 746280, Note_on_c, 0, 50, 0
3, 746280, Note_on_c, 0, 57, 100
3, 746280, Note_on_c, 0, 53, 100
3, 746400, Note_on_c, 0, 53, 0
3, 746400, Note_on_c, 0, 57, 0
3, 746400, Note_on_c, 0, 62, 100
3, 746400, Note_on_c, 0, 58, 100
3, 746520, Note_on_c, 0, 58, 0
3, 746520, Note_on_c, 0, 62, 0
3, 746520, Note_on_c, 0, 60, 100
3, 746520, Note_on_c, 0, 57, 100
3, 746640, Note_on_c, 0, 57, 0
3, 746640, Note_on_c, 0, 60, 0
3, 746640, Note_on_c, 0, 58, 100
3, 746640, Note_on_c, 0, 55, 100
3, 746760, Note_on_c, 0, 55, 0
3, 746760, Note_on_c, 0, 58, 0
3, 746760, Note_on_c, 0, 57, 100
3, 746760, Note_on_c, 0, 53, 100
3, 746820, Note_on_c, 0, 57, 0
3, 746820, Note_on_c, 0, 55, 100
3, 746880, Note_on_c, 0, 55, 0
3, 746880, Note_on_c, 0, 53, 0
3, 746880, Note_on_c, 0, 60, 100
3, 746880, Note_on_c, 0, 52, 100
3, 747000, Note_on_c, 0, 52, 0
3, 747000, Note_on_c, 0, 50, 100
3, 747060, Note_on_c, 0, 50, 0
3, 747060, Note_on_c, 0, 48, 100
3, 747120, Note_on_c, 0, 48, 0
3, 747120, Note_on_c, 0, 53, 100
3, 747240, Note_on_c, 0, 60, 0
3, 747240, Note_on_c, 0, 62, 100
3, 747360, Note_on_c, 0, 62, 0
3, 747360, Note_on_c, 0, 53, 0
3, 747360, Note_on_c, 0, 63, 100
3, 747360, Note_on_c, 0, 54, 100
3, 747420, Note_on_c, 0, 63, 0
3, 747420, Note_on_c, 0, 60, 100
3, 747480, Note_on_c, 0, 60, 0
3, 747480, Note_on_c, 0, 59, 100
3, 747540, Note_on_c, 0, 59, 0
3, 747540, Note_on_c, 0, 57, 100
3, 747600, Note_on_c, 0, 57, 0
3, 747600, Note_on_c, 0, 54, 0
3, 747600, Note_on_c, 0, 55, 100
3, 747600, Note_on_c, 0, 55, 100
3, 747840, Note_on_c, 0, 55, 0
3, 747840, Note_on_c, 0, 43, 100
3, 748080, Note_on_c, 0, 43, 0
3, 748080, Note_on_c, 0, 48, 100
3, 748440, Note_on_c, 0, 48, 0
3, 748440, Note_on_c, 0, 46, 100
3, 748560, Note_on_c, 0, 46, 0
3, 748560, Note_on_c, 0, 45, 100
3, 748680, Note_on_c, 0, 55, 0
3, 748680, Note_on_c, 0, 53, 100
3, 748740, Note_on_c, 0, 53, 0
3, 748740, Note_on_c, 0, 55, 100
3, 748800, Note_on_c, 0, 55, 0
3, 748800, Note_on_c, 0, 57, 100
3, 749040, Note_on_c, 0, 45, 0
3, 749040, Note_on_c, 0, 46, 100
3, 749160, Note_on_c, 0, 57, 0
3, 749160, Note_on_c, 0, 55, 100
3, 749220, Note_on_c, 0, 55, 0
3, 749220, Note_on_c, 0, 57, 100
3, 749280, Note_on_c, 0, 57, 0
3, 749280, Note_on_c, 0, 58, 100
3, 749520, Note_on_c, 0, 46, 0
3, 749520, Note_on_c, 0, 48, 100
3, 749760, Note_on_c, 0, 58, 0
3, 749760, Note_on_c, 0, 57, 100
3, 749880, Note_on_c, 0, 57, 0
3, 749880, Note_on_c, 0, 55, 100
3, 750000, Note_on_c, 0, 55, 0
3, 750000, Note_on_c, 0, 48, 0
3, 750000, Note_on_c, 0, 53, 100
3, 750000, Note_on_c, 0, 41, 100
3, 750240, Note_on_c, 0, 41, 0
3, 750240, Note_on_c, 0, 53, 0
3, 750240, Note_on_c, 0, 42, 100
3, 750480, Note_on_c, 0, 42, 0
3, 750480, Note_on_c, 0, 43, 100
3, 750600, Note_on_c, 0, 43, 0
3, 750600, Note_on_c, 0, 41, 100
3, 750720, Note_on_c, 0, 41, 0
3, 750720, Note_on_c, 0, 40, 100
3, 750840, Note_on_c, 0, 40, 0
3, 750840, Note_on_c, 0, 38, 100
3, 750960, Note_on_c, 0, 38, 0
3, 750960, Note_on_c, 0, 36, 100
3, 751080, Note_on_c, 0, 36, 0
3, 751080, Note_on_c, 0, 43, 100
3, 751200, Note_on_c, 0, 43, 0
3, 751200, Note_on_c, 0, 48, 100
3, 751320, Note_on_c, 0, 48, 0
3, 751320, Note_on_c, 0, 46, 100
3, 751440, Note_on_c, 0, 46, 0
3, 751440, Note_on_c, 0, 45, 100
3, 751560, Note_on_c, 0, 45, 0
3, 751560, Note_on_c, 0, 43, 100
3, 751680, Note_on_c, 0, 43, 0
3, 751680, Note_on_c, 0, 42, 100
3, 751800, Note_on_c, 0, 42, 0
3, 751800, Note_on_c, 0, 38, 100
3, 751920, Note_on_c, 0, 38, 0
3, 751920, Note_on_c, 0, 43, 100
3, 752040, Note_on_c, 0, 43, 0
3, 752040, Note_on_c, 0, 50, 100
3, 752160, Note_on_c, 0, 50, 0
3, 752160, Note_on_c, 0, 55, 100
3, 752280, Note_on_c, 0, 55, 0
3, 752280, Note_on_c, 0, 53, 100
3, 752400, Note_on_c, 0, 53, 0
3, 752400, Note_on_c, 0, 52, 100
3, 752520, Note_on_c, 0, 52, 0
3, 752520, Note_on_c, 0, 50, 100
3, 752640, Note_on_c, 0, 50, 0
3, 752640, Note_on_c, 0, 48, 100
3, 752760, Note_on_c, 0, 48, 0
3, 752760, Note_on_c, 0, 46, 100
3, 752880, Note_on_c, 0, 46, 0
3, 752880, Note_on_c, 0, 45, 100
3, 753000, Note_on_c, 0, 45, 0
3, 753000, Note_on_c, 0, 48, 100
3, 753120, Note_on_c, 0, 48, 0
3, 753120, Note_on_c, 0, 53, 100
3, 753240, Note_on_c, 0, 53, 0
3, 753240, Note_on_c, 0, 52, 100
3, 753360, Note_on_c, 0, 52, 0
3, 753360, Note_on_c, 0, 50, 100
3, 753480, Note_on_c, 0, 50, 0
3, 753480, Note_on_c, 0, 52, 100
3, 753600, Note_on_c, 0, 52, 0
3, 753600, Note_on_c, 0, 62, 100
3, 753600, Note_on_c, 0, 53, 100
3, 753840, Note_on_c, 0, 62, 0
3, 753840, Note_on_c, 0, 55, 100
3, 753960, Note_on_c, 0, 53, 0
3, 753960, Note_on_c, 0, 52, 100
3, 754200, Note_on_c, 0, 52, 0
3, 754200, Note_on_c, 0, 55, 0
3, 754200, Note_on_c, 0, 57, 100
3, 754200, Note_on_c, 0, 51, 100
3, 754320, Note_on_c, 0, 51, 0
3, 754320, Note_on_c, 0, 57, 0
3, 754320, Note_on_c, 0, 58, 100
3, 754320, Note_on_c, 0, 50, 100
3, 754440, Note_on_c, 0, 50, 0
3, 754440, Note_on_c, 0, 52, 100
3, 754500, Note_on_c, 0, 52, 0
3, 754500, Note_on_c, 0, 54, 100
3, 754560, Note_on_c, 0, 54, 0
3, 754560, Note_on_c, 0, 55, 100
3, 754800, Note_on_c, 0, 58, 0
3, 754800, Note_on_c, 0, 57, 100
3, 754920, Note_on_c, 0, 55, 0
3, 754920, Note_on_c, 0, 48, 100
3, 755040, Note_on_c, 0, 48, 0
3, 755040, Note_on_c, 0, 53, 100
3, 755280, Note_on_c, 0, 57, 0
3, 755280, Note_on_c, 0, 55, 100
3, 755400, Note_on_c, 0, 53, 0
3, 755400, Note_on_c, 0, 51, 100
3, 755460, Note_on_c, 0, 51, 0
3, 755460, Note_on_c, 0, 50, 100
3, 755520, Note_on_c, 0, 50, 0
3, 755520, Note_on_c, 0, 51, 100
3, 755760, Note_on_c, 0, 51, 0
3, 755760, Note_on_c, 0, 55, 0
3, 755760, Note_on_c, 0, 62, 100
3, 755760, Note_on_c, 0, 50, 100
3, 756000, Note_on_c, 0, 50, 0
3, 756120, Note_on_c, 0, 62, 0
3, 756120, Note_on_c, 0, 64, 100
3, 756180, Note_on_c, 0, 64, 0
3, 756180, Note_on_c, 0, 62, 100
3, 756240, Note_on_c, 0, 62, 0
3, 756240, Note_on_c, 0, 61, 100
3, 756360, Note_on_c, 0, 61, 0
3, 756360, Note_on_c, 0, 57, 100
3, 756480, Note_on_c, 0, 57, 0
3, 756480, Note_on_c, 0, 62, 100
3, 756480, Note_on_c, 0, 50, 100
3, 756720, Note_on_c, 0, 50, 0
3, 756720, Note_on_c, 0, 57, 100
3, 756840, Note_on_c, 0, 62, 0
3, 756840, Note_on_c, 0, 61, 100
3, 756900, Note_on_c, 0, 61, 0
3, 756900, Note_on_c, 0, 59, 100
3, 756960, Note_on_c, 0, 59, 0
3, 756960, Note_on_c, 0, 61, 100
3, 757080, Note_on_c, 0, 61, 0
3, 757080, Note_on_c, 0, 57, 0
3, 757080, Note_on_c, 0, 62, 100
3, 757080, Note_on_c, 0, 55, 100
3, 757140, Note_on_c, 0, 62, 0
3, 757140, Note_on_c, 0, 64, 100
3, 757200, Note_on_c, 0, 64, 0
3, 757200, Note_on_c, 0, 55, 0
3, 757200, Note_on_c, 0, 62, 100
3, 757200, Note_on_c, 0, 53, 100
3, 757440, Note_on_c, 0, 62, 0
3, 757440, Note_on_c, 0, 57, 100
3, 757680, Note_on_c, 0, 57, 0
3, 757680, Note_on_c, 0, 53, 0
3, 757680, Note_on_c, 0, 55, 100
3, 757800, Note_on_c, 0, 58, 100
3, 757920, Note_on_c, 0, 58, 0
3, 757920, Note_on_c, 0, 63, 100
3, 758040, Note_on_c, 0, 63, 0
3, 758040, Note_on_c, 0, 62, 100
3, 758160, Note_on_c, 0, 62, 0
3, 758160, Note_on_c, 0, 55, 0
3, 758160, Note_on_c, 0, 60, 100
3, 758160, Note_on_c, 0, 57, 100
3, 758280, Note_on_c, 0, 60, 0
3, 758280, Note_on_c, 0, 62, 100
3, 758340, Note_on_c, 0, 62, 0
3, 758340, Note_on_c, 0, 63, 100
3, 758400, Note_on_c, 0, 63, 0
3, 758400, Note_on_c, 0, 62, 100
3, 758520, Note_on_c, 0, 62, 0
3, 758520, Note_on_c, 0, 60, 100
3, 758640, Note_on_c, 0, 60, 0
3, 758640, Note_on_c, 0, 57, 0
3, 758640, Note_on_c, 0, 59, 100
3, 758640, Note_on_c, 0, 50, 100
3, 758760, Note_on_c, 0, 59, 0
3, 758760, Note_on_c, 0, 57, 100
3, 758880, Note_on_c, 0, 57, 0
3, 758880, Note_on_c, 0, 58, 100
3, 759120, Note_on_c, 0, 50, 0
3, 759120, Note_on_c, 0, 48, 100
3, 759360, Note_on_c, 0, 58, 0
3, 759360, Note_on_c, 0, 57, 100
3, 759600, Note_on_c, 0, 57, 0
3, 759600, Note_on_c, 0, 55, 100
3, 759720, Note_on_c, 0, 55, 0
3, 759720, Note_on_c, 0, 58, 100
3, 759840, Note_on_c, 0, 58, 0
3, 759840, Note_on_c, 0, 57, 100
3, 759960, Note_on_c, 0, 57, 0
3, 759960, Note_on_c, 0, 55, 100
3, 760080, Note_on_c, 0, 55, 0
3, 760080, Note_on_c, 0, 48, 0
3, 760080, Note_on_c, 0, 53, 100
3, 760080, Note_on_c, 0, 50, 100
3, 760320, Note_on_c, 0, 53, 0
3, 760440, Note_on_c, 0, 50, 0
3, 760440, Note_on_c, 0, 51, 100
3, 760560, Note_on_c, 0, 51, 0
3, 760560, Note_on_c, 0, 53, 100
3, 760680, Note_on_c, 0, 53, 0
3, 760680, Note_on_c, 0, 48, 100
3, 760800, Note_on_c, 0, 48, 0
3, 760800, Note_on_c, 0, 53, 100
3, 760920, Note_on_c, 0, 53, 0
3, 760920, Note_on_c, 0, 51, 100
3, 761040, Note_on_c, 0, 51, 0
3, 761040, Note_on_c, 0, 50, 100
3, 761160, Note_on_c, 0, 50, 0
3, 761160, Note_on_c, 0, 48, 100
3, 761220, Note_on_c, 0, 48, 0
3, 761220, Note_on_c, 0, 46, 100
3, 761280, Note_on_c, 0, 46, 0
3, 761280, Note_on_c, 0, 48, 100
3, 761400, Note_on_c, 0, 48, 0
3, 761400, Note_on_c, 0, 50, 100
3, 761520, Note_on_c, 0, 50, 0
3, 761520, Note_on_c, 0, 51, 100
3, 761640, Note_on_c, 0, 51, 0
3, 761640, Note_on_c, 0, 46, 100
3, 761760, Note_on_c, 0, 46, 0
3, 761760, Note_on_c, 0, 58, 100
3, 761760, Note_on_c, 0, 51, 100
3, 762000, Note_on_c, 0, 58, 0
3, 762000, Note_on_c, 0, 53, 100
3, 762120, Note_on_c, 0, 51, 0
3, 762120, Note_on_c, 0, 50, 100
3, 762180, Note_on_c, 0, 50, 0
3, 762180, Note_on_c, 0, 48, 100
3, 762240, Note_on_c, 0, 48, 0
3, 762240, Note_on_c, 0, 50, 100
3, 762360, Note_on_c, 0, 50, 0
3, 762360, Note_on_c, 0, 53, 0
3, 762360, Note_on_c, 0, 55, 100
3, 762360, Note_on_c, 0, 52, 100
3, 762480, Note_on_c, 0, 52, 0
3, 762480, Note_on_c, 0, 55, 0
3, 762480, Note_on_c, 0, 57, 100
3, 762480, Note_on_c, 0, 53, 100
3, 762720, Note_on_c, 0, 53, 0
3, 762720, Note_on_c, 0, 48, 100
3, 762840, Note_on_c, 0, 48, 0
3, 762840, Note_on_c, 0, 50, 100
3, 762960, Note_on_c, 0, 50, 0
3, 762960, Note_on_c, 0, 57, 0
3, 762960, Note_on_c, 0, 55, 100
3, 762960, Note_on_c, 0, 51, 100
3, 763080, Note_on_c, 0, 51, 0
3, 763080, Note_on_c, 0, 46, 100
3, 763200, Note_on_c, 0, 46, 0
3, 763200, Note_on_c, 0, 51, 100
3, 763440, Note_on_c, 0, 55, 0
3, 763440, Note_on_c, 0, 53, 100
3, 763560, Note_on_c, 0, 51, 0
3, 763560, Note_on_c, 0, 50, 100
3, 763800, Note_on_c, 0, 50, 0
3, 763800, Note_on_c, 0, 48, 100
3, 763860, Note_on_c, 0, 48, 0
3, 763860, Note_on_c, 0, 50, 100
3, 763920, Note_on_c, 0, 50, 0
3, 763920, Note_on_c, 0, 53, 0
3, 763920, Note_on_c, 0, 60, 100
3, 763920, Note_on_c, 0, 52, 100
3, 764040, Note_on_c, 0, 52, 0
3, 764040, Note_on_c, 0, 54, 100
3, 764100, Note_on_c, 0, 54, 0
3, 764100, Note_on_c, 0, 55, 100
3, 764160, Note_on_c, 0, 55, 0
3, 764160, Note_on_c, 0, 57, 100
3, 764280, Note_on_c, 0, 57, 0
3, 764280, Note_on_c, 0, 60, 0
3, 764280, Note_on_c, 0, 62, 100
3, 764280, Note_on_c, 0, 55, 100
3, 764340, Note_on_c, 0, 62, 0
3, 764340, Note_on_c, 0, 63, 100
3, 764400, Note_on_c, 0, 63, 0
3, 764400, Note_on_c, 0, 55, 0
3, 764400, Note_on_c, 0, 62, 100
3, 764400, Note_on_c, 0, 54, 100
3, 764520, Note_on_c, 0, 54, 0
3, 764520, Note_on_c, 0, 50, 100
3, 764640, Note_on_c, 0, 50, 0
3, 764640, Note_on_c, 0, 55, 100
3, 764760, Note_on_c, 0, 62, 0
3, 764760, Note_on_c, 0, 63, 100
3, 764820, Note_on_c, 0, 63, 0
3, 764820, Note_on_c, 0, 62, 100
3, 764880, Note_on_c, 0, 62, 0
3, 764880, Note_on_c, 0, 60, 100
3, 765000, Note_on_c, 0, 60, 0
3, 765000, Note_on_c, 0, 57, 100
3, 765120, Note_on_c, 0, 57, 0
3, 765120, Note_on_c, 0, 55, 0
3, 765120, Note_on_c, 0, 62, 100
3, 765120, Note_on_c, 0, 54, 100
3, 765240, Note_on_c, 0, 62, 0
3, 765240, Note_on_c, 0, 60, 100
3, 765360, Note_on_c, 0, 54, 0
3, 765360, Note_on_c, 0, 55, 100
3, 765480, Note_on_c, 0, 60, 0
3, 765480, Note_on_c, 0, 58, 100
3, 765540, Note_on_c, 0, 58, 0
3, 765540, Note_on_c, 0, 57, 100
3, 765600, Note_on_c, 0, 57, 0
3, 765600, Note_on_c, 0, 58, 100
3, 765720, Note_on_c, 0, 55, 0
3, 765720, Note_on_c, 0, 49, 100
3, 765840, Note_on_c, 0, 49, 0
3, 765840, Note_on_c, 0, 58, 0
3, 765840, Note_on_c, 0, 57, 100
3, 765840, Note_on_c, 0, 50, 100
3, 765960, Note_on_c, 0, 50, 0
3, 765960, Note_on_c, 0, 52, 100
3, 766080, Note_on_c, 0, 52, 0
3, 766080, Note_on_c, 0, 57, 0
3, 766080, Note_on_c, 0, 62, 100
3, 766080, Note_on_c, 0, 53, 100
3, 766200, Note_on_c, 0, 53, 0
3, 766200, Note_on_c, 0, 55, 100
3, 766320, Note_on_c, 0, 55, 0
3, 766320, Note_on_c, 0, 57, 100
3, 766440, Note_on_c, 0, 62, 0
3, 766440, Note_on_c, 0, 61, 100
3, 766500, Note_on_c, 0, 61, 0
3, 766500, Note_on_c, 0, 59, 100
3, 766560, Note_on_c, 0, 59, 0
3, 766560, Note_on_c, 0, 61, 100
3, 766680, Note_on_c, 0, 57, 0
3, 766680, Note_on_c, 0, 58, 100
3, 766740, Note_on_c, 0, 58, 0
3, 766740, Note_on_c, 0, 57, 100
3, 766800, Note_on_c, 0, 57, 0
3, 766800, Note_on_c, 0, 61, 0
3, 766800, Note_on_c, 0, 62, 100
3, 766800, Note_on_c, 0, 58, 100
3, 766920, Note_on_c, 0, 58, 0
3, 766920, Note_on_c, 0, 53, 100
3, 767040, Note_on_c, 0, 53, 0
3, 767040, Note_on_c, 0, 58, 100
3, 767160, Note_on_c, 0, 62, 0
3, 767160, Note_on_c, 0, 61, 100
3, 767220, Note_on_c, 0, 61, 0
3, 767220, Note_on_c, 0, 62, 100
3, 767280, Note_on_c, 0, 62, 0
3, 767280, Note_on_c, 0, 63, 100
3, 767400, Note_on_c, 0, 58, 0
3, 767400, Note_on_c, 0, 55, 100
3, 767520, Note_on_c, 0, 55, 0
3, 767520, Note_on_c, 0, 60, 100
3, 767640, Note_on_c, 0, 60, 0
3, 767640, Note_on_c, 0, 63, 0
3, 767640, Note_on_c, 0, 62, 100
3, 767640, Note_on_c, 0, 58, 100
3, 767760, Note_on_c, 0, 58, 0
3, 767760, Note_on_c, 0, 62, 0
3, 767760, Note_on_c, 0, 60, 100
3, 767760, Note_on_c, 0, 57, 100
3, 767880, Note_on_c, 0, 57, 0
3, 767880, Note_on_c, 0, 60, 0
3, 767880, Note_on_c, 0, 62, 100
3, 767880, Note_on_c, 0, 55, 100
3, 767940, Note_on_c, 0, 62, 0
3, 767940, Note_on_c, 0, 63, 100
3, 768000, Note_on_c, 0, 63, 0
3, 768000, Note_on_c, 0, 55, 0
3, 768000, Note_on_c, 0, 62, 100
3, 768000, Note_on_c, 0, 57, 100
3, 768120, Note_on_c, 0, 62, 0
3, 768120, Note_on_c, 0, 60, 100
3, 768240, Note_on_c, 0, 60, 0
3, 768240, Note_on_c, 0, 57, 0
3, 768240, Note_on_c, 0, 58, 100
3, 768240, Note_on_c, 0, 55, 100
3, 768360, Note_on_c, 0, 58, 0
3, 768360, Note_on_c, 0, 57, 100
3, 768480, Note_on_c, 0, 57, 0
3, 768480, Note_on_c, 0, 55, 0
3, 768480, Note_on_c, 0, 58, 100
3, 768600, Note_on_c, 0, 58, 0
3, 768600, Note_on_c, 0, 60, 100
3, 768720, Note_on_c, 0, 60, 0
3, 768720, Note_on_c, 0, 62, 100
3, 768840, Note_on_c, 0, 62, 0
3, 768840, Note_on_c, 0, 60, 100
3, 768960, Note_on_c, 0, 60, 0
3, 768960, Note_on_c, 0, 62, 100
3, 769080, Note_on_c, 0, 62, 0
3, 769080, Note_on_c, 0, 63, 100
3, 769200, Note_on_c, 0, 63, 0
3, 769200, Note_on_c, 0, 65, 100
3, 769320, Note_on_c, 0, 65, 0
3, 769320, Note_on_c, 0, 63, 100
3, 769380, Note_on_c, 0, 63, 0
3, 769380, Note_on_c, 0, 62, 100
3, 769440, Note_on_c, 0, 62, 0
3, 769440, Note_on_c, 0, 60, 100
3, 769560, Note_on_c, 0, 60, 0
3, 769560, Note_on_c, 0, 62, 100
3, 769680, Note_on_c, 0, 62, 0
3, 769680, Note_on_c, 0, 63, 100
3, 769800, Note_on_c, 0, 63, 0
3, 769800, Note_on_c, 0, 62, 100
3, 769860, Note_on_c, 0, 62, 0
3, 769860, Note_on_c, 0, 60, 100
3, 769920, Note_on_c, 0, 60, 0
3, 769920, Note_on_c, 0, 58, 100
3, 769920, Note_on_c, 0, 46, 100
3, 770040, Note_on_c, 0, 58, 0
3, 770040, Note_on_c, 0, 53, 100
3, 770160, Note_on_c, 0, 46, 0
3, 770160, Note_on_c, 0, 53, 100
3, 770220, Note_on_c, 0, 53, 0
3, 770220, Note_on_c, 0, 55, 100
3, 770280, Note_on_c, 0, 55, 0
3, 770280, Note_on_c, 0, 57, 100
3, 770340, Note_on_c, 0, 57, 0
3, 770340, Note_on_c, 0, 58, 100
3, 770400, Note_on_c, 0, 58, 0
3, 770400, Note_on_c, 0, 60, 100
3, 770520, Note_on_c, 0, 53, 0
3, 770520, Note_on_c, 0, 51, 100
3, 770640, Note_on_c, 0, 51, 0
3, 770640, Note_on_c, 0, 60, 0
3, 770640, Note_on_c, 0, 53, 100
3, 770640, Note_on_c, 0, 50, 100
3, 770999, Note_on_c, 0, 53, 0
3, 771000, Note_on_c, 0, 53, 100
3, 771120, Note_on_c, 0, 53, 0
3, 771120, Note_on_c, 0, 50, 0
3, 771120, Note_on_c, 0, 55, 100
3, 771120, Note_on_c, 0, 51, 100
3, 771600, Note_on_c, 0, 51, 0
3, 771600, Note_on_c, 0, 55, 0
3, 771600, Note_on_c, 0, 57, 100
3, 771600, Note_on_c, 0, 53, 100
3, 772080, Note_on_c, 0, 53, 0
3, 772080, Note_on_c, 0, 57, 0
3, 772080, Note_on_c, 0, 58, 100
3, 772080, Note_on_c, 0, 46, 100
3, 772200, Note_on_c, 0, 46, 0
3, 772200, Note_on_c, 0, 48, 100
3, 772260, Note_on_c, 0, 48, 0
3, 772260, Note_on_c, 0, 50, 100
3, 772320, Note_on_c, 0, 50, 0
3, 772320, Note_on_c, 0, 51, 100
3, 772560, Note_on_c, 0, 58, 0
3, 772560, Note_on_c, 0, 53, 100
3, 772680, Note_on_c, 0, 53, 0
3, 772680, Note_on_c, 0, 51, 0
3, 772680, Note_on_c, 0, 60, 100
3, 772680, Note_on_c, 0, 53, 100
3, 772740, Note_on_c, 0, 53, 0
3, 772740, Note_on_c, 0, 55, 100
3, 772800, Note_on_c, 0, 55, 0
3, 772800, Note_on_c, 0, 60, 0
3, 772800, Note_on_c, 0, 65, 100
3, 772800, Note_on_c, 0, 53, 100
3, 772920, Note_on_c, 0, 53, 0
3, 772920, Note_on_c, 0, 51, 100
3, 773040, Note_on_c, 0, 51, 0
3, 773040, Note_on_c, 0, 50, 100
3, 773160, Note_on_c, 0, 50, 0
3, 773160, Note_on_c, 0, 65, 0
3, 773160, Note_on_c, 0, 63, 100
3, 773160, Note_on_c, 0, 51, 100
3, 773220, Note_on_c, 0, 51, 0
3, 773220, Note_on_c, 0, 53, 100
3, 773280, Note_on_c, 0, 53, 0
3, 773280, Note_on_c, 0, 63, 0
3, 773280, Note_on_c, 0, 62, 100
3, 773280, Note_on_c, 0, 55, 100
3, 773400, Note_on_c, 0, 55, 0
3, 773400, Note_on_c, 0, 53, 100
3, 773520, Note_on_c, 0, 53, 0
3, 773520, Note_on_c, 0, 62, 0
3, 773520, Note_on_c, 0, 52, 100
3, 773640, Note_on_c, 0, 52, 0
3, 773640, Note_on_c, 0, 54, 100
3, 773700, Note_on_c, 0, 54, 0
3, 773700, Note_on_c, 0, 55, 100
3, 773760, Note_on_c, 0, 55, 0
3, 773760, Note_on_c, 0, 57, 100
3, 773760, Note_on_c, 0, 57, 100
3, 773880, Note_on_c, 0, 57, 0
3, 773880, Note_on_c, 0, 55, 100
3, 774000, Note_on_c, 0, 55, 0
3, 774000, Note_on_c, 0, 57, 0
3, 774000, Note_on_c, 0, 62, 100
3, 774000, Note_on_c, 0, 54, 100
3, 774120, Note_on_c, 0, 54, 0
3, 774120, Note_on_c, 0, 52, 100
3, 774240, Note_on_c, 0, 52, 0
3, 774240, Note_on_c, 0, 54, 100
3, 774360, Note_on_c, 0, 62, 0
3, 774360, Note_on_c, 0, 60, 100
3, 774480, Note_on_c, 0, 60, 0
3, 774480, Note_on_c, 0, 54, 0
3, 774480, Note_on_c, 0, 59, 100
3, 774480, Note_on_c, 0, 55, 100
3, 774840, Note_on_c, 0, 55, 0
3, 774840, Note_on_c, 0, 56, 100
3, 774960, Note_on_c, 0, 56, 0
3, 774960, Note_on_c, 0, 59, 0
3, 774960, Note_on_c, 0, 61, 100
3, 774960, Note_on_c, 0, 57, 100
3, 775080, Note_on_c, 0, 57, 0
3, 775080, Note_on_c, 0, 58, 100
3, 775140, Note_on_c, 0, 58, 0
3, 775140, Note_on_c, 0, 57, 100
3, 775200, Note_on_c, 0, 57, 0
3, 775200, Note_on_c, 0, 55, 100
3, 775320, Note_on_c, 0, 55, 0
3, 775320, Note_on_c, 0, 57, 100
3, 775440, Note_on_c, 0, 57, 0
3, 775440, Note_on_c, 0, 61, 0
3, 775440, Note_on_c, 0, 62, 100
3, 775440, Note_on_c, 0, 58, 100
3, 775560, Note_on_c, 0, 58, 0
3, 775560, Note_on_c, 0, 53, 100
3, 775680, Note_on_c, 0, 53, 0
3, 775680, Note_on_c, 0, 58, 100
3, 775800, Note_on_c, 0, 58, 0
3, 775800, Note_on_c, 0, 46, 100
3, 775920, Note_on_c, 0, 46, 0
3, 775920, Note_on_c, 0, 62, 0
3, 775920, Note_on_c, 0, 55, 100
3, 775920, Note_on_c, 0, 51, 100
3, 776040, Note_on_c, 0, 55, 0
3, 776040, Note_on_c, 0, 57, 100
3, 776160, Note_on_c, 0, 57, 0
3, 776160, Note_on_c, 0, 51, 0
3, 776160, Note_on_c, 0, 58, 100
3, 776160, Note_on_c, 0, 52, 100
3, 776280, Note_on_c, 0, 58, 0
3, 776280, Note_on_c, 0, 60, 100
3, 776340, Note_on_c, 0, 60, 0
3, 776340, Note_on_c, 0, 58, 100
3, 776400, Note_on_c, 0, 58, 0
3, 776400, Note_on_c, 0, 52, 0
3, 776400, Note_on_c, 0, 57, 100
3, 776400, Note_on_c, 0, 53, 100
3, 776520, Note_on_c, 0, 57, 0
3, 776520, Note_on_c, 0, 59, 100
3, 776580, Note_on_c, 0, 59, 0
3, 776580, Note_on_c, 0, 61, 100
3, 776640, Note_on_c, 0, 61, 0
3, 776640, Note_on_c, 0, 62, 100
3, 776760, Note_on_c, 0, 62, 0
3, 776760, Note_on_c, 0, 53, 0
3, 776760, Note_on_c, 0, 60, 100
3, 776760, Note_on_c, 0, 52, 100
3, 776820, Note_on_c, 0, 52, 0
3, 776820, Note_on_c, 0, 53, 100
3, 776880, Note_on_c, 0, 53, 0
3, 776880, Note_on_c, 0, 60, 0
3, 776880, Note_on_c, 0, 58, 100
3, 776880, Note_on_c, 0, 55, 100
3, 777360, Note_on_c, 0, 58, 0
3, 777360, Note_on_c, 0, 57, 100
3, 777480, Note_on_c, 0, 55, 0
3, 777480, Note_on_c, 0, 53, 100
3, 777540, Note_on_c, 0, 53, 0
3, 777540, Note_on_c, 0, 52, 100
3, 777600, Note_on_c, 0, 52, 0
3, 777600, Note_on_c, 0, 53, 100
3, 777720, Note_on_c, 0, 53, 0
3, 777720, Note_on_c, 0, 50, 100
3, 777840, Note_on_c, 0, 50, 0
3, 777840, Note_on_c, 0, 57, 100
3, 778200, Note_on_c, 0, 57, 0
3, 778200, Note_on_c, 0, 55, 100
3, 778320, Note_on_c, 0, 55, 0
3, 778320, Note_on_c, 0, 53, 100
3, 778440, Note_on_c, 0, 57, 0
3, 778440, Note_on_c, 0, 62, 100
3, 778500, Note_on_c, 0, 62, 0
3, 778500, Note_on_c, 0, 61, 100
3, 778560, Note_on_c, 0, 61, 0
3, 778560, Note_on_c, 0, 62, 100
3, 778800, Note_on_c, 0, 53, 0
3, 778800, Note_on_c, 0, 55, 100
3, 778920, Note_on_c, 0, 62, 0
3, 778920, Note_on_c, 0, 58, 100
3, 779040, Note_on_c, 0, 58, 0
3, 779040, Note_on_c, 0, 63, 100
3, 779160, Note_on_c, 0, 63, 0
3, 779160, Note_on_c, 0, 62, 100
3, 779280, Note_on_c, 0, 55, 0
3, 779280, Note_on_c, 0, 57, 100
3, 779400, Note_on_c, 0, 62, 0
3, 779400, Note_on_c, 0, 61, 100
3, 779460, Note_on_c, 0, 61, 0
3, 779460, Note_on_c, 0, 59, 100
3, 779520, Note_on_c, 0, 59, 0
3, 779520, Note_on_c, 0, 61, 100
3, 779760, Note_on_c, 0, 61, 0
3, 779760, Note_on_c, 0, 57, 0
3, 779760, Note_on_c, 0, 62, 100
3, 779760, Note_on_c, 0, 50, 100
3, 780000, Note_on_c, 0, 62, 0
3, 780000, Note_on_c, 0, 57, 100
3, 780060, Note_on_c, 0, 50, 0
3, 780060, Note_on_c, 0, 48, 100
3, 780120, Note_on_c, 0, 48, 0
3, 780120, Note_on_c, 0, 46, 100
3, 780180, Note_on_c, 0, 46, 0
3, 780180, Note_on_c, 0, 45, 100
3, 780240, Note_on_c, 0, 45, 0
3, 780240, Note_on_c, 0, 43, 100
3, 780360, Note_on_c, 0, 57, 0
3, 780360, Note_on_c, 0, 50, 100
3, 780480, Note_on_c, 0, 50, 0
3, 780480, Note_on_c, 0, 55, 100
3, 780540, Note_on_c, 0, 43, 0
3, 780540, Note_on_c, 0, 45, 100
3, 780600, Note_on_c, 0, 45, 0
3, 780600, Note_on_c, 0, 46, 100
3, 780660, Note_on_c, 0, 46, 0
3, 780660, Note_on_c, 0, 43, 100
3, 780720, Note_on_c, 0, 43, 0
3, 780720, Note_on_c, 0, 45, 100
3, 780840, Note_on_c, 0, 55, 0
3, 780840, Note_on_c, 0, 53, 100
3, 780900, Note_on_c, 0, 53, 0
3, 780900, Note_on_c, 0, 52, 100
3, 780960, Note_on_c, 0, 52, 0
3, 780960, Note_on_c, 0, 53, 100
3, 781080, Note_on_c, 0, 53, 0
3, 781080, Note_on_c, 0, 50, 100
3, 781200, Note_on_c, 0, 50, 0
3, 781200, Note_on_c, 0, 52, 100
3, 781320, Note_on_c, 0, 52, 0
3, 781320, Note_on_c, 0, 53, 100
3, 781380, Note_on_c, 0, 53, 0
3, 781380, Note_on_c, 0, 55, 100
3, 781440, Note_on_c, 0, 55, 0
3, 781440, Note_on_c, 0, 57, 100
3, 781680, Note_on_c, 0, 45, 0
3, 781680, Note_on_c, 0, 50, 100
3, 781800, Note_on_c, 0, 57, 0
3, 781800, Note_on_c, 0, 62, 100
3, 781920, Note_on_c, 0, 62, 0
3, 781920, Note_on_c, 0, 58, 100
3, 782160, Note_on_c, 0, 58, 0
3, 782160, Note_on_c, 0, 57, 100
3, 782280, Note_on_c, 0, 57, 0
3, 782280, Note_on_c, 0, 50, 0
3, 788520, Note_on_c, 0, 53, 100
3, 788580, Note_on_c, 0, 53, 0
3, 788580, Note_on_c, 0, 55, 100
3, 788640, Note_on_c, 0, 55, 0
3, 788640, Note_on_c, 0, 53, 100
3, 788700, Note_on_c, 0, 53, 0
3, 788700, Note_on_c, 0, 52, 100
3, 788760, Note_on_c, 0, 52, 0
3, 788760, Note_on_c, 0, 50, 100
3, 788820, Note_on_c, 0, 50, 0
3, 788820, Note_on_c, 0, 49, 100
3, 788880, Note_on_c, 0, 49, 0
3, 788880, Note_on_c, 0, 50, 100
3, 788940, Note_on_c, 0, 50, 0
3, 788940, Note_on_c, 0, 45, 100
3, 789000, Note_on_c, 0, 45, 0
3, 789000, Note_on_c, 0, 50, 100
3, 789060, Note_on_c, 0, 50, 0
3, 789060, Note_on_c, 0, 52, 100
3, 789120, Note_on_c, 0, 52, 0
3, 789120, Note_on_c, 0, 53, 100
3, 789180, Note_on_c, 0, 53, 0
3, 789180, Note_on_c, 0, 52, 100
3, 789240, Note_on_c, 0, 52, 0
3, 789240, Note_on_c, 0, 50, 100
3, 789300, Note_on_c, 0, 50, 0
3, 789300, Note_on_c, 0, 53, 100
3, 789360, Note_on_c, 0, 53, 0
3, 789360, Note_on_c, 0, 52, 100
3, 789420, Note_on_c, 0, 52, 0
3, 789420, Note_on_c, 0, 45, 100
3, 789480, Note_on_c, 0, 45, 0
3, 789480, Note_on_c, 0, 52, 100
3, 789540, Note_on_c, 0, 52, 0
3, 789540, Note_on_c, 0, 53, 100
3, 789600, Note_on_c, 0, 53, 0
3, 789600, Note_on_c, 0, 55, 100
3, 789660, Note_on_c, 0, 55, 0
3, 789660, Note_on_c, 0, 53, 100
3, 789690, Note_on_c, 0, 53, 0
3, 789690, Note_on_c, 0, 52, 100
3, 789720, Note_on_c, 0, 52, 0
3, 789720, Note_on_c, 0, 53, 100
3, 789780, Note_on_c, 0, 53, 0
3, 789780, Note_on_c, 0, 55, 100
3, 789840, Note_on_c, 0, 55, 0
3, 789840, Note_on_c, 0, 57, 100
3, 789900, Note_on_c, 0, 57, 0
3, 789900, Note_on_c, 0, 55, 100
3, 789960, Note_on_c, 0, 55, 0
3, 789960, Note_on_c, 0, 53, 100
3, 790020, Note_on_c, 0, 53, 0
3, 790020, Note_on_c, 0, 55, 100
3, 790080, Note_on_c, 0, 55, 0
3, 790080, Note_on_c, 0, 57, 100
3, 790380, Note_on_c, 0, 57, 0
3, 790380, Note_on_c, 0, 55, 100
3, 790410, Note_on_c, 0, 55, 0
3, 790410, Note_on_c, 0, 54, 100
3, 790440, Note_on_c, 0, 54, 0
3, 790440, Note_on_c, 0, 55, 100
3, 790500, Note_on_c, 0, 55, 0
3, 790500, Note_on_c, 0, 57, 100
3, 790560, Note_on_c, 0, 57, 0
3, 790560, Note_on_c, 0, 58, 100
3, 790860, Note_on_c, 0, 58, 0
3, 790860, Note_on_c, 0, 57, 100
3, 790920, Note_on_c, 0, 57, 0
3, 790920, Note_on_c, 0, 55, 100
3, 790980, Note_on_c, 0, 55, 0
3, 790980, Note_on_c, 0, 53, 100
3, 791040, Note_on_c, 0, 53, 0
3, 791040, Note_on_c, 0, 52, 100
3, 791100, Note_on_c, 0, 52, 0
3, 791100, Note_on_c, 0, 50, 100
3, 791160, Note_on_c, 0, 50, 0
3, 791160, Note_on_c, 0, 52, 100
3, 791220, Note_on_c, 0, 52, 0
3, 791220, Note_on_c, 0, 55, 100
3, 791280, Note_on_c, 0, 55, 0
3, 791280, Note_on_c, 0, 53, 100
3, 791340, Note_on_c, 0, 53, 0
3, 791340, Note_on_c, 0, 52, 100
3, 791400, Note_on_c, 0, 52, 0
3, 791400, Note_on_c, 0, 50, 100
3, 791460, Note_on_c, 0, 50, 0
3, 791460, Note_on_c, 0, 48, 100
3, 791520, Note_on_c, 0, 48, 0
3, 791520, Note_on_c, 0, 47, 100
3, 791580, Note_on_c, 0, 47, 0
3, 791580, Note_on_c, 0, 45, 100
3, 791640, Note_on_c, 0, 45, 0
3, 791640, Note_on_c, 0, 47, 100
3, 791700, Note_on_c, 0, 47, 0
3, 791700, Note_on_c, 0, 50, 100
3, 791760, Note_on_c, 0, 50, 0
3, 791760, Note_on_c, 0, 48, 100
3, 791880, Note_on_c, 0, 60, 100
3, 791940, Note_on_c, 0, 60, 0
3, 791940, Note_on_c, 0, 62, 100
3, 792000, Note_on_c, 0, 62, 0
3, 792000, Note_on_c, 0, 48, 0
3, 792000, Note_on_c, 0, 60, 100
3, 792060, Note_on_c, 0, 60, 0
3, 792060, Note_on_c, 0, 59, 100
3, 792120, Note_on_c, 0, 59, 0
3, 792120, Note_on_c, 0, 57, 100
3, 792120, Note_on_c, 0, 52, 100
3, 792180, Note_on_c, 0, 57, 0
3, 792180, Note_on_c, 0, 56, 100
3, 792240, Note_on_c, 0, 56, 0
3, 792240, Note_on_c, 0, 52, 0
3, 792240, Note_on_c, 0, 57, 100
3, 792240, Note_on_c, 0, 45, 100
3, 792300, Note_on_c, 0, 57, 0
3, 792300, Note_on_c, 0, 52, 100
3, 792360, Note_on_c, 0, 52, 0
3, 792360, Note_on_c, 0, 57, 100
3, 792420, Note_on_c, 0, 57, 0
3, 792420, Note_on_c, 0, 59, 100
3, 792480, Note_on_c, 0, 59, 0
3, 792480, Note_on_c, 0, 45, 0
3, 792480, Note_on_c, 0, 60, 100
3, 792540, Note_on_c, 0, 60, 0
3, 792540, Note_on_c, 0, 59, 100
3, 792600, Note_on_c, 0, 59, 0
3, 792600, Note_on_c, 0, 57, 100
3, 792600, Note_on_c, 0, 57, 100
3, 792660, Note_on_c, 0, 57, 0
3, 792660, Note_on_c, 0, 60, 100
3, 792720, Note_on_c, 0, 60, 0
3, 792720, Note_on_c, 0, 59, 100
3, 792780, Note_on_c, 0, 59, 0
3, 792780, Note_on_c, 0, 52, 100
3, 792840, Note_on_c, 0, 52, 0
3, 792840, Note_on_c, 0, 57, 0
3, 792840, Note_on_c, 0, 59, 100
3, 792840, Note_on_c, 0, 56, 100
3, 792900, Note_on_c, 0, 59, 0
3, 792900, Note_on_c, 0, 60, 100
3, 792960, Note_on_c, 0, 60, 0
3, 792960, Note_on_c, 0, 62, 100
3, 793020, Note_on_c, 0, 62, 0
3, 793020, Note_on_c, 0, 60, 100
3, 793050, Note_on_c, 0, 60, 0
3, 793050, Note_on_c, 0, 59, 100
3, 793080, Note_on_c, 0, 59, 0
3, 793080, Note_on_c, 0, 56, 0
3, 793080, Note_on_c, 0, 60, 100
3, 793080, Note_on_c, 0, 57, 100
3, 793140, Note_on_c, 0, 60, 0
3, 793140, Note_on_c, 0, 62, 100
3, 793200, Note_on_c, 0, 62, 0
3, 793200, Note_on_c, 0, 64, 100
3, 793260, Note_on_c, 0, 64, 0
3, 793260, Note_on_c, 0, 57, 0
3, 793260, Note_on_c, 0, 62, 100
3, 793260, Note_on_c, 0, 53, 100
3, 793320, Note_on_c, 0, 53, 0
3, 793320, Note_on_c, 0, 62, 0
3, 793320, Note_on_c, 0, 60, 100
3, 793320, Note_on_c, 0, 52, 100
3, 793380, Note_on_c, 0, 52, 0
3, 793380, Note_on_c, 0, 60, 0
3, 793380, Note_on_c, 0, 62, 100
3, 793380, Note_on_c, 0, 50, 100
3, 793440, Note_on_c, 0, 50, 0
3, 793440, Note_on_c, 0, 62, 0
3, 793440, Note_on_c, 0, 64, 100
3, 793440, Note_on_c, 0, 48, 100
3, 793500, Note_on_c, 0, 48, 0
3, 793500, Note_on_c, 0, 47, 100
3, 793560, Note_on_c, 0, 47, 0
3, 793560, Note_on_c, 0, 45, 100
3, 793620, Note_on_c, 0, 45, 0
3, 793620, Note_on_c, 0, 43, 100
3, 793680, Note_on_c, 0, 43, 0
3, 793680, Note_on_c, 0, 41, 100
3, 793740, Note_on_c, 0, 41, 0
3, 793740, Note_on_c, 0, 64, 0
3, 793740, Note_on_c, 0, 62, 100
3, 793740, Note_on_c, 0, 55, 100
3, 793770, Note_on_c, 0, 62, 0
3, 793770, Note_on_c, 0, 61, 100
3, 793800, Note_on_c, 0, 61, 0
3, 793800, Note_on_c, 0, 55, 0
3, 793800, Note_on_c, 0, 62, 100
3, 793800, Note_on_c, 0, 53, 100
3, 793860, Note_on_c, 0, 53, 0
3, 793860, Note_on_c, 0, 62, 0
3, 793860, Note_on_c, 0, 64, 100
3, 793860, Note_on_c, 0, 52, 100
3, 793920, Note_on_c, 0, 52, 0
3, 793920, Note_on_c, 0, 64, 0
3, 793920, Note_on_c, 0, 65, 100
3, 793920, Note_on_c, 0, 50, 100
3, 793980, Note_on_c, 0, 50, 0
3, 793980, Note_on_c, 0, 48, 100
3, 794040, Note_on_c, 0, 48, 0
3, 794040, Note_on_c, 0, 47, 100
3, 794100, Note_on_c, 0, 47, 0
3, 794100, Note_on_c, 0, 45, 100
3, 794160, Note_on_c, 0, 45, 0
3, 794160, Note_on_c, 0, 44, 100
3, 794220, Note_on_c, 0, 65, 0
3, 794220, Note_on_c, 0, 64, 100
3, 794280, Note_on_c, 0, 64, 0
3, 794280, Note_on_c, 0, 44, 0
3, 794280, Note_on_c, 0, 62, 100
3, 794280, Note_on_c, 0, 45, 100
3, 794340, Note_on_c, 0, 62, 0
3, 794340, Note_on_c, 0, 60, 100
3, 794400, Note_on_c, 0, 60, 0
3, 794400, Note_on_c, 0, 45, 0
3, 794400, Note_on_c, 0, 59, 100
3, 794400, Note_on_c, 0, 52, 100
3, 794460, Note_on_c, 0, 59, 0
3, 794460, Note_on_c, 0, 57, 100
3, 794520, Note_on_c, 0, 57, 0
3, 794520, Note_on_c, 0, 52, 0
3, 794520, Note_on_c, 0, 59, 100
3, 794520, Note_on_c, 0, 40, 100
3, 794580, Note_on_c, 0, 59, 0
3, 794580, Note_on_c, 0, 62, 100
3, 794640, Note_on_c, 0, 62, 0
3, 794640, Note_on_c, 0, 40, 0
3, 794640, Note_on_c, 0, 60, 100
3, 794640, Note_on_c, 0, 45, 100
3, 794700, Note_on_c, 0, 45, 0
3, 794700, Note_on_c, 0, 57, 100
3, 794760, Note_on_c, 0, 57, 0
3, 794760, Note_on_c, 0, 55, 100
3, 794820, Note_on_c, 0, 55, 0
3, 794820, Note_on_c, 0, 53, 100
3, 794880, Note_on_c, 0, 53, 0
3, 794880, Note_on_c, 0, 60, 0
3, 794880, Note_on_c, 0, 61, 100
3, 794880, Note_on_c, 0, 52, 100
3, 794940, Note_on_c, 0, 52, 0
3, 794940, Note_on_c, 0, 50, 100
3, 795000, Note_on_c, 0, 50, 0
3, 795000, Note_on_c, 0, 52, 100
3, 795060, Note_on_c, 0, 52, 0
3, 795060, Note_on_c, 0, 55, 100
3, 795120, Note_on_c, 0, 55, 0
3, 795120, Note_on_c, 0, 61, 0
3, 795120, Note_on_c, 0, 62, 100
3, 795120, Note_on_c, 0, 53, 100
3, 795240, Note_on_c, 0, 53, 0
3, 795240, Note_on_c, 0, 55, 100
3, 795360, Note_on_c, 0, 55, 0
3, 795360, Note_on_c, 0, 57, 100
3, 795480, Note_on_c, 0, 62, 0
3, 795480, Note_on_c, 0, 60, 100
3, 795600, Note_on_c, 0, 57, 0
3, 795600, Note_on_c, 0, 50, 100
3, 795660, Note_on_c, 0, 60, 0
3, 795660, Note_on_c, 0, 58, 100
3, 795720, Note_on_c, 0, 58, 0
3, 795720, Note_on_c, 0, 57, 100
3, 795780, Note_on_c, 0, 57, 0
3, 795780, Note_on_c, 0, 55, 100
3, 795840, Note_on_c, 0, 55, 0
3, 795840, Note_on_c, 0, 50, 0
3, 795840, Note_on_c, 0, 62, 100
3, 795960, Note_on_c, 0, 50, 100
3, 796080, Note_on_c, 0, 50, 0
3, 796080, Note_on_c, 0, 55, 100
3, 796140, Note_on_c, 0, 62, 0
3, 796140, Note_on_c, 0, 64, 100
3, 796200, Note_on_c, 0, 64, 0
3, 796200, Note_on_c, 0, 62, 100
3, 796260, Note_on_c, 0, 62, 0
3, 796260, Note_on_c, 0, 60, 100
3, 796320, Note_on_c, 0, 60, 0
3, 796320, Note_on_c, 0, 55, 0
3, 796320, Note_on_c, 0, 67, 100
3, 796440, Note_on_c, 0, 67, 0
3, 796440, Note_on_c, 0, 55, 100
3, 796560, Note_on_c, 0, 55, 0
3, 796560, Note_on_c, 0, 48, 100
3, 796620, Note_on_c, 0, 60, 100
3, 796680, Note_on_c, 0, 60, 0
3, 796680, Note_on_c, 0, 58, 100
3, 796740, Note_on_c, 0, 58, 0
3, 796740, Note_on_c, 0, 57, 100
3, 796800, Note_on_c, 0, 57, 0
3, 796800, Note_on_c, 0, 48, 0
3, 796800, Note_on_c, 0, 55, 100
3, 796860, Note_on_c, 0, 55, 0
3, 796860, Note_on_c, 0, 53, 100
3, 796920, Note_on_c, 0, 53, 0
3, 796920, Note_on_c, 0, 55, 100
3, 796920, Note_on_c, 0, 48, 100
3, 796980, Note_on_c, 0, 55, 0
3, 796980, Note_on_c, 0, 58, 100
3, 797040, Note_on_c, 0, 58, 0
3, 797040, Note_on_c, 0, 48, 0
3, 797040, Note_on_c, 0, 57, 100
3, 797040, Note_on_c, 0, 49, 100
3, 797160, Note_on_c, 0, 49, 0
3, 797160, Note_on_c, 0, 50, 100
3, 797219, Note_on_c, 0, 57, 0
3, 797220, Note_on_c, 0, 57, 100
3, 797280, Note_on_c, 0, 57, 0
3, 797280, Note_on_c, 0, 55, 100
3, 797340, Note_on_c, 0, 55, 0
3, 797340, Note_on_c, 0, 53, 100
3, 797400, Note_on_c, 0, 53, 0
3, 797400, Note_on_c, 0, 50, 0
3, 797400, Note_on_c, 0, 52, 100
3, 797400, Note_on_c, 0, 49, 100
3, 797520, Note_on_c, 0, 49, 0
3, 797520, Note_on_c, 0, 52, 0
3, 797520, Note_on_c, 0, 50, 100
3, 797520, Note_on_c, 0, 50, 100
3, 797640, Note_on_c, 0, 50, 0
3, 797640, Note_on_c, 0, 57, 100
3, 797760, Note_on_c, 0, 57, 0
3, 797760, Note_on_c, 0, 58, 100
3, 797880, Note_on_c, 0, 50, 0
3, 797880, Note_on_c, 0, 52, 100
3, 798000, Note_on_c, 0, 52, 0
3, 798000, Note_on_c, 0, 58, 0
3, 798000, Note_on_c, 0, 57, 100
3, 798000, Note_on_c, 0, 53, 100
3, 798120, Note_on_c, 0, 57, 0
3, 798120, Note_on_c, 0, 59, 100
3, 798180, Note_on_c, 0, 59, 0
3, 798180, Note_on_c, 0, 61, 100
3, 798240, Note_on_c, 0, 61, 0
3, 798240, Note_on_c, 0, 53, 0
3, 798240, Note_on_c, 0, 62, 100
3, 798240, Note_on_c, 0, 50, 100
3, 798480, Note_on_c, 0, 50, 0
3, 798480, Note_on_c, 0, 57, 100
3, 798600, Note_on_c, 0, 62, 0
3, 798600, Note_on_c, 0, 61, 100
3, 798660, Note_on_c, 0, 61, 0
3, 798660, Note_on_c, 0, 62, 100
3, 798720, Note_on_c, 0, 62, 0
3, 798720, Note_on_c, 0, 64, 100
3, 798840, Note_on_c, 0, 57, 0
3, 798840, Note_on_c, 0, 55, 100
3, 798960, Note_on_c, 0, 55, 0
3, 798960, Note_on_c, 0, 53, 100
3, 799020, Note_on_c, 0, 64, 0
3, 799020, Note_on_c, 0, 57, 100
3, 799080, Note_on_c, 0, 57, 0
3, 799080, Note_on_c, 0, 62, 100
3, 799260, Note_on_c, 0, 62, 0
3, 799260, Note_on_c, 0, 60, 100
3, 799320, Note_on_c, 0, 60, 0
3, 799320, Note_on_c, 0, 58, 100
3, 799380, Note_on_c, 0, 58, 0
3, 799380, Note_on_c, 0, 57, 100
3, 799440, Note_on_c, 0, 57, 0
3, 799440, Note_on_c, 0, 53, 0
3, 799440, Note_on_c, 0, 58, 100
3, 799440, Note_on_c, 0, 55, 100
3, 799500, Note_on_c, 0, 58, 0
3, 799500, Note_on_c, 0, 62, 100
3, 799560, Note_on_c, 0, 62, 0
3, 799560, Note_on_c, 0, 63, 100
3, 799740, Note_on_c, 0, 63, 0
3, 799740, Note_on_c, 0, 62, 100
3, 799800, Note_on_c, 0, 62, 0
3, 799800, Note_on_c, 0, 61, 100
3, 799860, Note_on_c, 0, 61, 0
3, 799860, Note_on_c, 0, 62, 100
3, 799920, Note_on_c, 0, 62, 0
3, 799920, Note_on_c, 0, 55, 0
3, 799920, Note_on_c, 0, 61, 100
3, 799920, Note_on_c, 0, 57, 100
3, 800040, Note_on_c, 0, 61, 0
3, 800040, Note_on_c, 0, 62, 100
3, 800280, Note_on_c, 0, 62, 0
3, 800280, Note_on_c, 0, 60, 100
3, 800400, Note_on_c, 0, 57, 0
3, 800400, Note_on_c, 0, 50, 100
3, 800520, Note_on_c, 0, 60, 0
3, 800520, Note_on_c, 0, 59, 100
3, 800580, Note_on_c, 0, 59, 0
3, 800580, Note_on_c, 0, 57, 100
3, 800640, Note_on_c, 0, 57, 0
3, 800640, Note_on_c, 0, 50, 0
3, 800640, Note_on_c, 0, 56, 100
3, 800640, Note_on_c, 0, 52, 100
3, 800700, Note_on_c, 0, 56, 0
3, 800700, Note_on_c, 0, 54, 100
3, 800760, Note_on_c, 0, 54, 0
3, 800760, Note_on_c, 0, 56, 100
3, 800820, Note_on_c, 0, 56, 0
3, 800820, Note_on_c, 0, 59, 100
3, 800880, Note_on_c, 0, 59, 0
3, 800880, Note_on_c, 0, 52, 0
3, 800880, Note_on_c, 0, 57, 100
3, 800880, Note_on_c, 0, 45, 100
3, 800940, Note_on_c, 0, 57, 0
3, 800940, Note_on_c, 0, 64, 100
3, 801000, Note_on_c, 0, 64, 0
3, 801000, Note_on_c, 0, 45, 0
3, 801000, Note_on_c, 0, 62, 100
3, 801060, Note_on_c, 0, 62, 0
3, 801060, Note_on_c, 0, 60, 100
3, 801120, Note_on_c, 0, 60, 0
3, 801120, Note_on_c, 0, 59, 100
3, 801180, Note_on_c, 0, 59, 0
3, 801180, Note_on_c, 0, 57, 100
3, 801240, Note_on_c, 0, 57, 0
3, 801240, Note_on_c, 0, 59, 100
3, 801300, Note_on_c, 0, 59, 0
3, 801300, Note_on_c, 0, 62, 100
3, 801360, Note_on_c, 0, 62, 0
3, 801360, Note_on_c, 0, 60, 100
3, 801420, Note_on_c, 0, 52, 100
3, 801480, Note_on_c, 0, 52, 0
3, 801480, Note_on_c, 0, 60, 0
3, 801480, Note_on_c, 0, 64, 100
3, 801480, Note_on_c, 0, 50, 100
3, 801540, Note_on_c, 0, 50, 0
3, 801540, Note_on_c, 0, 48, 100
3, 801600, Note_on_c, 0, 48, 0
3, 801600, Note_on_c, 0, 64, 0
3, 801600, Note_on_c, 0, 62, 100
3, 801600, Note_on_c, 0, 47, 100
3, 801660, Note_on_c, 0, 47, 0
3, 801660, Note_on_c, 0, 45, 100
3, 801720, Note_on_c, 0, 45, 0
3, 801720, Note_on_c, 0, 62, 0
3, 801720, Note_on_c, 0, 65, 100
3, 801720, Note_on_c, 0, 47, 100
3, 801780, Note_on_c, 0, 47, 0
3, 801780, Note_on_c, 0, 50, 100
3, 801840, Note_on_c, 0, 50, 0
3, 801840, Note_on_c, 0, 65, 0
3, 801840, Note_on_c, 0, 64, 100
3, 801840, Note_on_c, 0, 48, 100
3, 801900, Note_on_c, 0, 48, 0
3, 801900, Note_on_c, 0, 47, 100
3, 801960, Note_on_c, 0, 47, 0
3, 801960, Note_on_c, 0, 64, 0
3, 801960, Note_on_c, 0, 45, 100
3, 802020, Note_on_c, 0, 45, 0
3, 802020, Note_on_c, 0, 44, 100
3, 802080, Note_on_c, 0, 44, 0
3, 802080, Note_on_c, 0, 45, 100
3, 802200, Note_on_c, 0, 45, 0
3, 802200, Note_on_c, 0, 47, 100
3, 802320, Note_on_c, 0, 47, 0
3, 802320, Note_on_c, 0, 48, 100
3, 802440, Note_on_c, 0, 48, 0
3, 802440, Note_on_c, 0, 53, 100
3, 802560, Note_on_c, 0, 57, 100
3, 802680, Note_on_c, 0, 53, 0
3, 802680, Note_on_c, 0, 54, 100
3, 802800, Note_on_c, 0, 54, 0
3, 802800, Note_on_c, 0, 57, 0
3, 802800, Note_on_c, 0, 64, 100
3, 802800, Note_on_c, 0, 55, 100
3, 802920, Note_on_c, 0, 55, 0
3, 802920, Note_on_c, 0, 56, 100
3, 803160, Note_on_c, 0, 56, 0
3, 803160, Note_on_c, 0, 57, 100
3, 803220, Note_on_c, 0, 64, 0
3, 803220, Note_on_c, 0, 62, 100
3, 803280, Note_on_c, 0, 62, 0
3, 803280, Note_on_c, 0, 60, 100
3, 803340, Note_on_c, 0, 57, 0
3, 803340, Note_on_c, 0, 52, 100
3, 803400, Note_on_c, 0, 52, 0
3, 803400, Note_on_c, 0, 57, 100
3, 803460, Note_on_c, 0, 57, 0
3, 803460, Note_on_c, 0, 59, 100
3, 803520, Note_on_c, 0, 59, 0
3, 803520, Note_on_c, 0, 60, 100
3, 803580, Note_on_c, 0, 60, 0
3, 803580, Note_on_c, 0, 59, 100
3, 803640, Note_on_c, 0, 59, 0
3, 803640, Note_on_c, 0, 57, 100
3, 803700, Note_on_c, 0, 57, 0
3, 803700, Note_on_c, 0, 55, 100
3, 803760, Note_on_c, 0, 55, 0
3, 803760, Note_on_c, 0, 60, 0
3, 803760, Note_on_c, 0, 62, 100
3, 803760, Note_on_c, 0, 54, 100
3, 803820, Note_on_c, 0, 54, 0
3, 803820, Note_on_c, 0, 57, 100
3, 803880, Note_on_c, 0, 57, 0
3, 803880, Note_on_c, 0, 59, 100
3, 803940, Note_on_c, 0, 59, 0
3, 803940, Note_on_c, 0, 61, 100
3, 804000, Note_on_c, 0, 61, 0
3, 804000, Note_on_c, 0, 62, 100
3, 804060, Note_on_c, 0, 62, 0
3, 804060, Note_on_c, 0, 60, 100
3, 804120, Note_on_c, 0, 60, 0
3, 804120, Note_on_c, 0, 59, 100
3, 804180, Note_on_c, 0, 59, 0
3, 804180, Note_on_c, 0, 57, 100
3, 804240, Note_on_c, 0, 57, 0
3, 804240, Note_on_c, 0, 62, 0
3, 804240, Note_on_c, 0, 64, 100
3, 804240, Note_on_c, 0, 56, 100
3, 804360, Note_on_c, 0, 56, 0
3, 804360, Note_on_c, 0, 57, 100
3, 804600, Note_on_c, 0, 57, 0
3, 804600, Note_on_c, 0, 56, 100
3, 804720, Note_on_c, 0, 56, 0
3, 804720, Note_on_c, 0, 64, 0
3, 804720, Note_on_c, 0, 57, 100
3, 804720, Note_on_c, 0, 57, 100
3, 804780, Note_on_c, 0, 57, 0
3, 804780, Note_on_c, 0, 69, 100
3, 804840, Note_on_c, 0, 69, 0
3, 804840, Note_on_c, 0, 57, 0
3, 804840, Note_on_c, 0, 67, 100
3, 804840, Note_on_c, 0, 59, 100
3, 804900, Note_on_c, 0, 67, 0
3, 804900, Note_on_c, 0, 65, 100
3, 804960, Note_on_c, 0, 65, 0
3, 804960, Note_on_c, 0, 59, 0
3, 804960, Note_on_c, 0, 64, 100
3, 804960, Note_on_c, 0, 60, 100
3, 805020, Note_on_c, 0, 64, 0
3, 805020, Note_on_c, 0, 62, 100
3, 805080, Note_on_c, 0, 62, 0
3, 805080, Note_on_c, 0, 60, 0
3, 805080, Note_on_c, 0, 64, 100
3, 805080, Note_on_c, 0, 57, 100
3, 805140, Note_on_c, 0, 64, 0
3, 805140, Note_on_c, 0, 67, 100
3, 805200, Note_on_c, 0, 67, 0
3, 805200, Note_on_c, 0, 57, 0
3, 805200, Note_on_c, 0, 65, 100
3, 805200, Note_on_c, 0, 50, 100
3, 805320, Note_on_c, 0, 50, 0
3, 805320, Note_on_c, 0, 52, 100
3, 805440, Note_on_c, 0, 52, 0
3, 805440, Note_on_c, 0, 53, 100
3, 805560, Note_on_c, 0, 53, 0
3, 805560, Note_on_c, 0, 50, 100
3, 805680, Note_on_c, 0, 50, 0
3, 805680, Note_on_c, 0, 55, 100
3, 805740, Note_on_c, 0, 65, 0
3, 805740, Note_on_c, 0, 67, 100
3, 805800, Note_on_c, 0, 67, 0
3, 805800, Note_on_c, 0, 55, 0
3, 805800, Note_on_c, 0, 65, 100
3, 805800, Note_on_c, 0, 57, 100
3, 805860, Note_on_c, 0, 65, 0
3, 805860, Note_on_c, 0, 64, 100
3, 805920, Note_on_c, 0, 64, 0
3, 805920, Note_on_c, 0, 57, 0
3, 805920, Note_on_c, 0, 62, 100
3, 805920, Note_on_c, 0, 58, 100
3, 805980, Note_on_c, 0, 62, 0
3, 805980, Note_on_c, 0, 60, 100
3, 806040, Note_on_c, 0, 60, 0
3, 806040, Note_on_c, 0, 58, 0
3, 806040, Note_on_c, 0, 62, 100
3, 806040, Note_on_c, 0, 55, 100
3, 806100, Note_on_c, 0, 62, 0
3, 806100, Note_on_c, 0, 65, 100
3, 806160, Note_on_c, 0, 65, 0
3, 806160, Note_on_c, 0, 55, 0
3, 806160, Note_on_c, 0, 64, 100
3, 806160, Note_on_c, 0, 48, 100
3, 806280, Note_on_c, 0, 48, 0
3, 806280, Note_on_c, 0, 64, 0
3, 806280, Note_on_c, 0, 50, 100
3, 806400, Note_on_c, 0, 50, 0
3, 806400, Note_on_c, 0, 52, 100
3, 806520, Note_on_c, 0, 52, 0
3, 806520, Note_on_c, 0, 48, 100
3, 806640, Note_on_c, 0, 48, 0
3, 806640, Note_on_c, 0, 53, 100
3, 806760, Note_on_c, 0, 53, 0
3, 806760, Note_on_c, 0, 55, 100
3, 806880, Note_on_c, 0, 55, 0
3, 806880, Note_on_c, 0, 57, 100
3, 807000, Note_on_c, 0, 57, 0
3, 807000, Note_on_c, 0, 53, 100
3, 807120, Note_on_c, 0, 53, 0
3, 807120, Note_on_c, 0, 46, 100
3, 807240, Note_on_c, 0, 57, 100
3, 807300, Note_on_c, 0, 57, 0
3, 807300, Note_on_c, 0, 58, 100
3, 807360, Note_on_c, 0, 58, 0
3, 807360, Note_on_c, 0, 46, 0
3, 807360, Note_on_c, 0, 57, 100
3, 807360, Note_on_c, 0, 48, 100
3, 807420, Note_on_c, 0, 57, 0
3, 807420, Note_on_c, 0, 55, 100
3, 807480, Note_on_c, 0, 55, 0
3, 807480, Note_on_c, 0, 53, 100
3, 807540, Note_on_c, 0, 53, 0
3, 807540, Note_on_c, 0, 52, 100
3, 807600, Note_on_c, 0, 52, 0
3, 807600, Note_on_c, 0, 48, 0
3, 807600, Note_on_c, 0, 53, 100
3, 807600, Note_on_c, 0, 41, 100
3, 807660, Note_on_c, 0, 53, 0
3, 807660, Note_on_c, 0, 48, 100
3, 807720, Note_on_c, 0, 48, 0
3, 807720, Note_on_c, 0, 53, 100
3, 807780, Note_on_c, 0, 53, 0
3, 807780, Note_on_c, 0, 55, 100
3, 807840, Note_on_c, 0, 55, 0
3, 807840, Note_on_c, 0, 41, 0
3, 807840, Note_on_c, 0, 57, 100
3, 807900, Note_on_c, 0, 57, 0
3, 807900, Note_on_c, 0, 55, 100
3, 807960, Note_on_c, 0, 55, 0
3, 807960, Note_on_c, 0, 53, 100
3, 807960, Note_on_c, 0, 53, 100
3, 808020, Note_on_c, 0, 53, 0
3, 808020, Note_on_c, 0, 57, 100
3, 808080, Note_on_c, 0, 57, 0
3, 808080, Note_on_c, 0, 53, 0
3, 808080, Note_on_c, 0, 55, 100
3, 808080, Note_on_c, 0, 52, 100
3, 808140, Note_on_c, 0, 55, 0
3, 808140, Note_on_c, 0, 48, 100
3, 808200, Note_on_c, 0, 48, 0
3, 808200, Note_on_c, 0, 52, 0
3, 808200, Note_on_c, 0, 55, 100
3, 808200, Note_on_c, 0, 51, 100
3, 808260, Note_on_c, 0, 55, 0
3, 808260, Note_on_c, 0, 57, 100
3, 808320, Note_on_c, 0, 57, 0
3, 808320, Note_on_c, 0, 51, 0
3, 808320, Note_on_c, 0, 58, 100
3, 808320, Note_on_c, 0, 50, 100
3, 808380, Note_on_c, 0, 58, 0
3, 808380, Note_on_c, 0, 57, 100
3, 808410, Note_on_c, 0, 57, 0
3, 808410, Note_on_c, 0, 55, 100
3, 808440, Note_on_c, 0, 55, 0
3, 808440, Note_on_c, 0, 57, 100
3, 808500, Note_on_c, 0, 57, 0
3, 808500, Note_on_c, 0, 58, 100
3, 808560, Note_on_c, 0, 58, 0
3, 808560, Note_on_c, 0, 50, 0
3, 808560, Note_on_c, 0, 60, 100
3, 808560, Note_on_c, 0, 57, 100
3, 808620, Note_on_c, 0, 60, 0
3, 808620, Note_on_c, 0, 58, 100
3, 808680, Note_on_c, 0, 58, 0
3, 808680, Note_on_c, 0, 57, 100
3, 808740, Note_on_c, 0, 57, 0
3, 808740, Note_on_c, 0, 58, 100
3, 808800, Note_on_c, 0, 58, 0
3, 808800, Note_on_c, 0, 60, 100
3, 808860, Note_on_c, 0, 57, 0
3, 808860, Note_on_c, 0, 55, 100
3, 808920, Note_on_c, 0, 55, 0
3, 808920, Note_on_c, 0, 53, 100
3, 808980, Note_on_c, 0, 53, 0
3, 808980, Note_on_c, 0, 52, 100
3, 809040, Note_on_c, 0, 52, 0
3, 809040, Note_on_c, 0, 53, 100
3, 809100, Note_on_c, 0, 60, 0
3, 809100, Note_on_c, 0, 58, 100
3, 809130, Note_on_c, 0, 58, 0
3, 809130, Note_on_c, 0, 57, 100
3, 809160, Note_on_c, 0, 57, 0
3, 809160, Note_on_c, 0, 58, 100
3, 809220, Note_on_c, 0, 58, 0
3, 809220, Note_on_c, 0, 60, 100
3, 809280, Note_on_c, 0, 60, 0
3, 809280, Note_on_c, 0, 62, 100
3, 809340, Note_on_c, 0, 53, 0
3, 809340, Note_on_c, 0, 50, 100
3, 809400, Note_on_c, 0, 50, 0
3, 809400, Note_on_c, 0, 52, 100
3, 809460, Note_on_c, 0, 52, 0
3, 809460, Note_on_c, 0, 53, 100
3, 809520, Note_on_c, 0, 53, 0
3, 809520, Note_on_c, 0, 55, 100
3, 809580, Note_on_c, 0, 62, 0
3, 809580, Note_on_c, 0, 60, 100
3, 809640, Note_on_c, 0, 60, 0
3, 809640, Note_on_c, 0, 55, 0
3, 809640, Note_on_c, 0, 58, 100
3, 809640, Note_on_c, 0, 50, 100
3, 809700, Note_on_c, 0, 58, 0
3, 809700, Note_on_c, 0, 57, 100
3, 809760, Note_on_c, 0, 57, 0
3, 809760, Note_on_c, 0, 50, 0
3, 809760, Note_on_c, 0, 55, 100
3, 809760, Note_on_c, 0, 51, 100
3, 809820, Note_on_c, 0, 55, 0
3, 809820, Note_on_c, 0, 53, 100
3, 809880, Note_on_c, 0, 53, 0
3, 809880, Note_on_c, 0, 55, 100
3, 809940, Note_on_c, 0, 55, 0
3, 809940, Note_on_c, 0, 58, 100
3, 810000, Note_on_c, 0, 58, 0
3, 810000, Note_on_c, 0, 57, 100
3, 810060, Note_on_c, 0, 51, 0
3, 810060, Note_on_c, 0, 53, 100
3, 810120, Note_on_c, 0, 53, 0
3, 810120, Note_on_c, 0, 51, 100
3, 810180, Note_on_c, 0, 51, 0
3, 810180, Note_on_c, 0, 50, 100
3, 810240, Note_on_c, 0, 50, 0
3, 810240, Note_on_c, 0, 48, 100
3, 810300, Note_on_c, 0, 48, 0
3, 810300, Note_on_c, 0, 46, 100
3, 810360, Note_on_c, 0, 46, 0
3, 810360, Note_on_c, 0, 48, 100
3, 810420, Note_on_c, 0, 48, 0
3, 810420, Note_on_c, 0, 51, 100
3, 810480, Note_on_c, 0, 51, 0
3, 810480, Note_on_c, 0, 50, 100
3, 810540, Note_on_c, 0, 57, 0
3, 810540, Note_on_c, 0, 53, 100
3, 810600, Note_on_c, 0, 53, 0
3, 810600, Note_on_c, 0, 55, 100
3, 810660, Note_on_c, 0, 55, 0
3, 810660, Note_on_c, 0, 57, 100
3, 810720, Note_on_c, 0, 57, 0
3, 810720, Note_on_c, 0, 58, 100
3, 810780, Note_on_c, 0, 50, 0
3, 810780, Note_on_c, 0, 50, 100
3, 810840, Note_on_c, 0, 50, 0
3, 810840, Note_on_c, 0, 52, 100
3, 810900, Note_on_c, 0, 52, 0
3, 810900, Note_on_c, 0, 54, 100
3, 810960, Note_on_c, 0, 54, 0
3, 810960, Note_on_c, 0, 55, 100
3, 811020, Note_on_c, 0, 58, 0
3, 811020, Note_on_c, 0, 60, 100
3, 811080, Note_on_c, 0, 60, 0
3, 811080, Note_on_c, 0, 58, 100
3, 811140, Note_on_c, 0, 58, 0
3, 811140, Note_on_c, 0, 57, 100
3, 811200, Note_on_c, 0, 57, 0
3, 811200, Note_on_c, 0, 55, 100
3, 811260, Note_on_c, 0, 55, 0
3, 811260, Note_on_c, 0, 53, 100
3, 811320, Note_on_c, 0, 53, 0
3, 811320, Note_on_c, 0, 51, 100
3, 811380, Note_on_c, 0, 51, 0
3, 811380, Note_on_c, 0, 50, 100
3, 811440, Note_on_c, 0, 50, 0
3, 811440, Note_on_c, 0, 48, 100
3, 811560, Note_on_c, 0, 55, 0
3, 811560, Note_on_c, 0, 55, 100
3, 811680, Note_on_c, 0, 55, 0
3, 811680, Note_on_c, 0, 48, 0
3, 811680, Note_on_c, 0, 60, 100
3, 811800, Note_on_c, 0, 48, 100
3, 811920, Note_on_c, 0, 48, 0
3, 811920, Note_on_c, 0, 50, 100
3, 811980, Note_on_c, 0, 60, 0
3, 811980, Note_on_c, 0, 63, 100
3, 812040, Note_on_c, 0, 63, 0
3, 812040, Note_on_c, 0, 62, 100
3, 812100, Note_on_c, 0, 62, 0
3, 812100, Note_on_c, 0, 60, 100
3, 812160, Note_on_c, 0, 60, 0
3, 812160, Note_on_c, 0, 50, 0
3, 812160, Note_on_c, 0, 58, 100
3, 812220, Note_on_c, 0, 58, 0
3, 812220, Note_on_c, 0, 57, 100
3, 812280, Note_on_c, 0, 57, 0
3, 812280, Note_on_c, 0, 58, 100
3, 812280, Note_on_c, 0, 50, 100
3, 812340, Note_on_c, 0, 58, 0
3, 812340, Note_on_c, 0, 62, 100
3, 812400, Note_on_c, 0, 62, 0
3, 812400, Note_on_c, 0, 50, 0
3, 812400, Note_on_c, 0, 55, 100
3, 812400, Note_on_c, 0, 51, 100
3, 812520, Note_on_c, 0, 51, 0
3, 812520, Note_on_c, 0, 55, 0
3, 812520, Note_on_c, 0, 58, 100
3, 812520, Note_on_c, 0, 52, 100
3, 812580, Note_on_c, 0, 58, 0
3, 812580, Note_on_c, 0, 57, 100
3, 812640, Note_on_c, 0, 57, 0
3, 812640, Note_on_c, 0, 55, 100
3, 812700, Note_on_c, 0, 55, 0
3, 812700, Note_on_c, 0, 53, 100
3, 812760, Note_on_c, 0, 53, 0
3, 812760, Note_on_c, 0, 52, 0
3, 812760, Note_on_c, 0, 52, 100
3, 812760, Note_on_c, 0, 45, 100
3, 812880, Note_on_c, 0, 45, 0
3, 812880, Note_on_c, 0, 52, 0
3, 812880, Note_on_c, 0, 50, 100
3, 812880, Note_on_c, 0, 50, 100
3, 812940, Note_on_c, 0, 50, 0
3, 812940, Note_on_c, 0, 62, 100
3, 813000, Note_on_c, 0, 62, 0
3, 813000, Note_on_c, 0, 50, 0
3, 813000, Note_on_c, 0, 60, 100
3, 813060, Note_on_c, 0, 60, 0
3, 813060, Note_on_c, 0, 58, 100
3, 813120, Note_on_c, 0, 58, 0
3, 813120, Note_on_c, 0, 57, 100
3, 813180, Note_on_c, 0, 57, 0
3, 813180, Note_on_c, 0, 55, 100
3, 813240, Note_on_c, 0, 55, 0
3, 813240, Note_on_c, 0, 57, 100
3, 813300, Note_on_c, 0, 57, 0
3, 813300, Note_on_c, 0, 60, 100
3, 813360, Note_on_c, 0, 60, 0
3, 813360, Note_on_c, 0, 58, 100
3, 813420, Note_on_c, 0, 58, 0
3, 813420, Note_on_c, 0, 63, 100
3, 813480, Note_on_c, 0, 63, 0
3, 813480, Note_on_c, 0, 62, 100
3, 813480, Note_on_c, 0, 46, 100
3, 813540, Note_on_c, 0, 46, 0
3, 813540, Note_on_c, 0, 48, 100
3, 813600, Note_on_c, 0, 48, 0
3, 813600, Note_on_c, 0, 46, 100
3, 813660, Note_on_c, 0, 46, 0
3, 813660, Note_on_c, 0, 45, 100
3, 813720, Note_on_c, 0, 45, 0
3, 813720, Note_on_c, 0, 62, 0
3, 813720, Note_on_c, 0, 43, 100
3, 813780, Note_on_c, 0, 43, 0
3, 813780, Note_on_c, 0, 42, 100
3, 813840, Note_on_c, 0, 42, 0
3, 813840, Note_on_c, 0, 43, 100
3, 813900, Note_on_c, 0, 43, 0
3, 813900, Note_on_c, 0, 38, 100
3, 813960, Note_on_c, 0, 38, 0
3, 813960, Note_on_c, 0, 43, 100
3, 814020, Note_on_c, 0, 43, 0
3, 814020, Note_on_c, 0, 45, 100
3, 814080, Note_on_c, 0, 45, 0
3, 814080, Note_on_c, 0, 46, 100
3, 814140, Note_on_c, 0, 46, 0
3, 814140, Note_on_c, 0, 45, 100
3, 814200, Note_on_c, 0, 45, 0
3, 814200, Note_on_c, 0, 43, 100
3, 814260, Note_on_c, 0, 43, 0
3, 814260, Note_on_c, 0, 46, 100
3, 814320, Note_on_c, 0, 46, 0
3, 814320, Note_on_c, 0, 45, 100
3, 814380, Note_on_c, 0, 45, 0
3, 814380, Note_on_c, 0, 38, 100
3, 814440, Note_on_c, 0, 38, 0
3, 814440, Note_on_c, 0, 45, 100
3, 814500, Note_on_c, 0, 45, 0
3, 814500, Note_on_c, 0, 47, 100
3, 814560, Note_on_c, 0, 47, 0
3, 814560, Note_on_c, 0, 48, 100
3, 814620, Note_on_c, 0, 48, 0
3, 814620, Note_on_c, 0, 47, 100
3, 814650, Note_on_c, 0, 47, 0
3, 814650, Note_on_c, 0, 45, 100
3, 814680, Note_on_c, 0, 45, 0
3, 814680, Note_on_c, 0, 53, 100
3, 814680, Note_on_c, 0, 47, 100
3, 814740, Note_on_c, 0, 47, 0
3, 814740, Note_on_c, 0, 48, 100
3, 814800, Note_on_c, 0, 48, 0
3, 814800, Note_on_c, 0, 50, 100
3, 814860, Note_on_c, 0, 50, 0
3, 814860, Note_on_c, 0, 53, 0
3, 814860, Note_on_c, 0, 51, 100
3, 814860, Note_on_c, 0, 48, 100
3, 814920, Note_on_c, 0, 48, 0
3, 814920, Note_on_c, 0, 51, 0
3, 814920, Note_on_c, 0, 50, 100
3, 814920, Note_on_c, 0, 47, 100
3, 814980, Note_on_c, 0, 47, 0
3, 814980, Note_on_c, 0, 50, 0
3, 814980, Note_on_c, 0, 51, 100
3, 814980, Note_on_c, 0, 48, 100
3, 815040, Note_on_c, 0, 48, 0
3, 815040, Note_on_c, 0, 51, 0
3, 815040, Note_on_c, 0, 53, 100
3, 815040, Note_on_c, 0, 50, 100
3, 815100, Note_on_c, 0, 53, 0
3, 815100, Note_on_c, 0, 55, 100
3, 815160, Note_on_c, 0, 55, 0
3, 815160, Note_on_c, 0, 56, 100
3, 815220, Note_on_c, 0, 56, 0
3, 815220, Note_on_c, 0, 53, 100
3, 815280, Note_on_c, 0, 53, 0
3, 815280, Note_on_c, 0, 55, 100
3, 815340, Note_on_c, 0, 50, 0
3, 815340, Note_on_c, 0, 48, 100
3, 815370, Note_on_c, 0, 48, 0
3, 815370, Note_on_c, 0, 47, 100
3, 815400, Note_on_c, 0, 47, 0
3, 815400, Note_on_c, 0, 48, 100
3, 815460, Note_on_c, 0, 48, 0
3, 815460, Note_on_c, 0, 50, 100
3, 815520, Note_on_c, 0, 50, 0
3, 815520, Note_on_c, 0, 51, 100
3, 815578, Note_on_c, 0, 55, 0
3, 815580, Note_on_c, 0, 55, 100
3, 815640, Note_on_c, 0, 55, 0
3, 815640, Note_on_c, 0, 59, 100
3, 815700, Note_on_c, 0, 59, 0
3, 815700, Note_on_c, 0, 62, 100
3, 815760, Note_on_c, 0, 62, 0
3, 815760, Note_on_c, 0, 67, 100
3, 815820, Note_on_c, 0, 67, 0
3, 815820, Note_on_c, 0, 51, 0
3, 815820, Note_on_c, 0, 70, 100
3, 815820, Note_on_c, 0, 50, 100
3, 815880, Note_on_c, 0, 50, 0
3, 815880, Note_on_c, 0, 70, 0
3, 815880, Note_on_c, 0, 68, 100
3, 815880, Note_on_c, 0, 48, 100
3, 815940, Note_on_c, 0, 48, 0
3, 815940, Note_on_c, 0, 68, 0
3, 815940, Note_on_c, 0, 67, 100
3, 815940, Note_on_c, 0, 46, 100
3, 816000, Note_on_c, 0, 46, 0
3, 816000, Note_on_c, 0, 67, 0
3, 816000, Note_on_c, 0, 66, 100
3, 816000, Note_on_c, 0, 45, 100
3, 816060, Note_on_c, 0, 45, 0
3, 816060, Note_on_c, 0, 43, 100
3, 816120, Note_on_c, 0, 43, 0
3, 816120, Note_on_c, 0, 45, 100
3, 816180, Note_on_c, 0, 45, 0
3, 816180, Note_on_c, 0, 66, 0
3, 816180, Note_on_c, 0, 67, 100
3, 816180, Note_on_c, 0, 48, 100
3, 816240, Note_on_c, 0, 48, 0
3, 816240, Note_on_c, 0, 67, 0
3, 816240, Note_on_c, 0, 68, 100
3, 816240, Note_on_c, 0, 47, 100
3, 816300, Note_on_c, 0, 68, 0
3, 816300, Note_on_c, 0, 55, 100
3, 816360, Note_on_c, 0, 55, 0
3, 816360, Note_on_c, 0, 47, 0
3, 816360, Note_on_c, 0, 53, 100
3, 816360, Note_on_c, 0, 48, 100
3, 816420, Note_on_c, 0, 53, 0
3, 816420, Note_on_c, 0, 51, 100
3, 816480, Note_on_c, 0, 51, 0
3, 816480, Note_on_c, 0, 50, 100
3, 816540, Note_on_c, 0, 50, 0
3, 816540, Note_on_c, 0, 48, 100
3, 816600, Note_on_c, 0, 48, 0
3, 816600, Note_on_c, 0, 48, 0
3, 816600, Note_on_c, 0, 50, 100
3, 816600, Note_on_c, 0, 46, 100
3, 816660, Note_on_c, 0, 50, 0
3, 816660, Note_on_c, 0, 53, 100
3, 816720, Note_on_c, 0, 53, 0
3, 816720, Note_on_c, 0, 52, 100
3, 816780, Note_on_c, 0, 46, 0
3, 816780, Note_on_c, 0, 48, 100
3, 816840, Note_on_c, 0, 48, 0
3, 816840, Note_on_c, 0, 46, 100
3, 816900, Note_on_c, 0, 46, 0
3, 816900, Note_on_c, 0, 45, 100
3, 816960, Note_on_c, 0, 45, 0
3, 816960, Note_on_c, 0, 43, 100
3, 817020, Note_on_c, 0, 43, 0
3, 817020, Note_on_c, 0, 42, 100
3, 817080, Note_on_c, 0, 42, 0
3, 817080, Note_on_c, 0, 43, 100
3, 817140, Note_on_c, 0, 43, 0
3, 817140, Note_on_c, 0, 46, 100
3, 817200, Note_on_c, 0, 46, 0
3, 817200, Note_on_c, 0, 52, 0
3, 817200, Note_on_c, 0, 54, 100
3, 817200, Note_on_c, 0, 45, 100
3, 817260, Note_on_c, 0, 45, 0
3, 817260, Note_on_c, 0, 50, 100
3, 817320, Note_on_c, 0, 50, 0
3, 817320, Note_on_c, 0, 54, 0
3, 817320, Note_on_c, 0, 48, 100
3, 817380, Note_on_c, 0, 48, 0
3, 817380, Note_on_c, 0, 46, 100
3, 817440, Note_on_c, 0, 46, 0
3, 817440, Note_on_c, 0, 45, 100
3, 817500, Note_on_c, 0, 45, 0
3, 817500, Note_on_c, 0, 43, 100
3, 817560, Note_on_c, 0, 43, 0
3, 817560, Note_on_c, 0, 45, 100
3, 817620, Note_on_c, 0, 45, 0
3, 817620, Note_on_c, 0, 48, 100
3, 817680, Note_on_c, 0, 48, 0
3, 817680, Note_on_c, 0, 46, 100
3, 817740, Note_on_c, 0, 50, 100
3, 817800, Note_on_c, 0, 50, 0
3, 817800, Note_on_c, 0, 52, 100
3, 817860, Note_on_c, 0, 52, 0
3, 817860, Note_on_c, 0, 54, 100
3, 817920, Note_on_c, 0, 54, 0
3, 817920, Note_on_c, 0, 46, 0
3, 817920, Note_on_c, 0, 55, 100
3, 818040, Note_on_c, 0, 43, 100
3, 818160, Note_on_c, 0, 43, 0
3, 818160, Note_on_c, 0, 48, 100
3, 818219, Note_on_c, 0, 55, 0
3, 818220, Note_on_c, 0, 55, 100
3, 818280, Note_on_c, 0, 55, 0
3, 818280, Note_on_c, 0, 57, 100
3, 818340, Note_on_c, 0, 57, 0
3, 818340, Note_on_c, 0, 58, 100
3, 818400, Note_on_c, 0, 58, 0
3, 818400, Note_on_c, 0, 48, 0
3, 818400, Note_on_c, 0, 60, 100
3, 818460, Note_on_c, 0, 60, 0
3, 818460, Note_on_c, 0, 62, 100
3, 818520, Note_on_c, 0, 62, 0
3, 818520, Note_on_c, 0, 60, 100
3, 818520, Note_on_c, 0, 48, 100
3, 818580, Note_on_c, 0, 60, 0
3, 818580, Note_on_c, 0, 58, 100
3, 818640, Note_on_c, 0, 58, 0
3, 818640, Note_on_c, 0, 57, 100
3, 818700, Note_on_c, 0, 48, 0
3, 818700, Note_on_c, 0, 45, 100
3, 818760, Note_on_c, 0, 45, 0
3, 818760, Note_on_c, 0, 57, 0
3, 818760, Note_on_c, 0, 46, 100
3, 818820, Note_on_c, 0, 46, 0
3, 818820, Note_on_c, 0, 48, 100
3, 818880, Note_on_c, 0, 48, 0
3, 818880, Note_on_c, 0, 50, 100
3, 818940, Note_on_c, 0, 50, 0
3, 818940, Note_on_c, 0, 51, 100
3, 819000, Note_on_c, 0, 51, 0
3, 819000, Note_on_c, 0, 50, 100
3, 819060, Note_on_c, 0, 50, 0
3, 819060, Note_on_c, 0, 46, 100
3, 819120, Note_on_c, 0, 46, 0
3, 819120, Note_on_c, 0, 51, 100
3, 819240, Note_on_c, 0, 51, 0
3, 819240, Note_on_c, 0, 58, 100
3, 819240, Note_on_c, 0, 48, 100
3, 819360, Note_on_c, 0, 48, 0
3, 819360, Note_on_c, 0, 58, 0
3, 819360, Note_on_c, 0, 57, 100
3, 819360, Note_on_c, 0, 50, 100
3, 819420, Note_on_c, 0, 57, 0
3, 819420, Note_on_c, 0, 55, 100
3, 819480, Note_on_c, 0, 55, 0
3, 819480, Note_on_c, 0, 57, 100
3, 819600, Note_on_c, 0, 57, 0
3, 819600, Note_on_c, 0, 50, 0
3, 819600, Note_on_c, 0, 55, 100
3, 819600, Note_on_c, 0, 43, 100
3, 819840, Note_on_c, 0, 43, 0
3, 819840, Note_on_c, 0, 55, 0
3, 819840, Note_on_c, 0, 58, 100
3, 820080, Note_on_c, 0, 58, 0
3, 820080, Note_on_c, 0, 57, 100
3, 820320, Note_on_c, 0, 57, 0
3, 820320, Note_on_c, 0, 60, 100
3, 820560, Note_on_c, 0, 60, 0
3, 820560, Note_on_c, 0, 59, 100
3, 820740, Note_on_c, 0, 59, 0
3, 820740, Note_on_c, 0, 61, 100
3, 820800, Note_on_c, 0, 61, 0
3, 820800, Note_on_c, 0, 62, 100
3, 821220, Note_on_c, 0, 62, 0
3, 821220, Note_on_c, 0, 61, 100
3, 821250, Note_on_c, 0, 61, 0
3, 821250, Note_on_c, 0, 59, 100
3, 821280, Note_on_c, 0, 59, 0
3, 821280, Note_on_c, 0, 62, 100
3, 821310, Note_on_c, 0, 62, 0
3, 821310, Note_on_c, 0, 61, 100
3, 821340, Note_on_c, 0, 61, 0
3, 821340, Note_on_c, 0, 62, 100
3, 821370, Note_on_c, 0, 62, 0
3, 821370, Note_on_c, 0, 61, 100
3, 821520, Note_on_c, 0, 61, 0
3, 821520, Note_on_c, 0, 62, 100
3, 821760, Note_on_c, 0, 62, 0
3, 821880, Note_on_c, 0, 63, 100
3, 822000, Note_on_c, 0, 63, 0
3, 822000, Note_on_c, 0, 64, 100
3, 822120, Note_on_c, 0, 64, 0
3, 822120, Note_on_c, 0, 59, 100
3, 822240, Note_on_c, 0, 59, 0
3, 822240, Note_on_c, 0, 64, 100
3, 822360, Note_on_c, 0, 64, 0
3, 822360, Note_on_c, 0, 62, 100
3, 822480, Note_on_c, 0, 62, 0
3, 822480, Note_on_c, 0, 60, 100
3, 822720, Note_on_c, 0, 60, 0
3, 822840, Note_on_c, 0, 61, 100
3, 822960, Note_on_c, 0, 61, 0
3, 822960, Note_on_c, 0, 62, 100
3, 823080, Note_on_c, 0, 62, 0
3, 823080, Note_on_c, 0, 57, 100
3, 823200, Note_on_c, 0, 57, 0
3, 823200, Note_on_c, 0, 62, 100
3, 823320, Note_on_c, 0, 62, 0
3, 823320, Note_on_c, 0, 60, 100
3, 823440, Note_on_c, 0, 60, 0
3, 823440, Note_on_c, 0, 58, 100
3, 823620, Note_on_c, 0, 58, 0
3, 823620, Note_on_c, 0, 57, 100
3, 823680, Note_on_c, 0, 57, 0
3, 823680, Note_on_c, 0, 55, 100
3, 823740, Note_on_c, 0, 55, 0
3, 823740, Note_on_c, 0, 57, 100
3, 823800, Note_on_c, 0, 57, 0
3, 823800, Note_on_c, 0, 58, 100
3, 823860, Note_on_c, 0, 58, 0
3, 823860, Note_on_c, 0, 55, 100
3, 823920, Note_on_c, 0, 55, 0
3, 823920, Note_on_c, 0, 60, 100
3, 823980, Note_on_c, 0, 60, 0
3, 823980, Note_on_c, 0, 58, 100
3, 824040, Note_on_c, 0, 58, 0
3, 824040, Note_on_c, 0, 57, 100
3, 824100, Note_on_c, 0, 57, 0
3, 824100, Note_on_c, 0, 55, 100
3, 824160, Note_on_c, 0, 55, 0
3, 824160, Note_on_c, 0, 54, 100
3, 824220, Note_on_c, 0, 54, 0
3, 824220, Note_on_c, 0, 52, 100
3, 824280, Note_on_c, 0, 52, 0
3, 824280, Note_on_c, 0, 54, 100
3, 824340, Note_on_c, 0, 54, 0
3, 824340, Note_on_c, 0, 50, 100
3, 824400, Note_on_c, 0, 50, 0
3, 824400, Note_on_c, 0, 55, 100
3, 824520, Note_on_c, 0, 55, 0
3, 824520, Note_on_c, 0, 52, 100
3, 824640, Note_on_c, 0, 52, 0
3, 824640, Note_on_c, 0, 53, 100
3, 824640, Note_on_c, 0, 53, 100
3, 824760, Note_on_c, 0, 53, 0
3, 824760, Note_on_c, 0, 55, 100
3, 824820, Note_on_c, 0, 55, 0
3, 824820, Note_on_c, 0, 57, 100
3, 824880, Note_on_c, 0, 57, 0
3, 824880, Note_on_c, 0, 53, 0
3, 824880, Note_on_c, 0, 58, 100
3, 824880, Note_on_c, 0, 52, 100
3, 824940, Note_on_c, 0, 58, 0
3, 824940, Note_on_c, 0, 57, 100
3, 825000, Note_on_c, 0, 57, 0
3, 825000, Note_on_c, 0, 55, 100
3, 825060, Note_on_c, 0, 55, 0
3, 825060, Note_on_c, 0, 57, 100
3, 825120, Note_on_c, 0, 57, 0
3, 825120, Note_on_c, 0, 52, 0
3, 825120, Note_on_c, 0, 58, 100
3, 825120, Note_on_c, 0, 55, 100
3, 825180, Note_on_c, 0, 58, 0
3, 825180, Note_on_c, 0, 52, 100
3, 825240, Note_on_c, 0, 52, 0
3, 825240, Note_on_c, 0, 57, 100
3, 825360, Note_on_c, 0, 55, 0
3, 825360, Note_on_c, 0, 54, 100
3, 825480, Note_on_c, 0, 57, 0
3, 825480, Note_on_c, 0, 62, 100
3, 825540, Note_on_c, 0, 54, 0
3, 825540, Note_on_c, 0, 56, 100
3, 825600, Note_on_c, 0, 56, 0
3, 825600, Note_on_c, 0, 57, 100
3, 825720, Note_on_c, 0, 62, 0
3, 825720, Note_on_c, 0, 60, 100
3, 825840, Note_on_c, 0, 60, 0
3, 825840, Note_on_c, 0, 59, 100
3, 825960, Note_on_c, 0, 59, 0
3, 825960, Note_on_c, 0, 64, 100
3, 826020, Note_on_c, 0, 57, 0
3, 826020, Note_on_c, 0, 56, 100
3, 826050, Note_on_c, 0, 56, 0
3, 826050, Note_on_c, 0, 54, 100
3, 826080, Note_on_c, 0, 54, 0
3, 826080, Note_on_c, 0, 56, 100
3, 826320, Note_on_c, 0, 56, 0
3, 826440, Note_on_c, 0, 64, 0
3, 826680, Note_on_c, 0, 57, 100
3, 826800, Note_on_c, 0, 57, 0
3, 826800, Note_on_c, 0, 58, 100
3, 826920, Note_on_c, 0, 58, 0
3, 826920, Note_on_c, 0, 53, 100
3, 827040, Note_on_c, 0, 53, 0
3, 827040, Note_on_c, 0, 58, 100
3, 827160, Note_on_c, 0, 58, 0
3, 827160, Note_on_c, 0, 57, 100
3, 827280, Note_on_c, 0, 57, 0
3, 827280, Note_on_c, 0, 56, 100
3, 827400, Note_on_c, 0, 56, 0
3, 827400, Note_on_c, 0, 52, 100
3, 827520, Note_on_c, 0, 52, 0
3, 827520, Note_on_c, 0, 57, 100
3, 827640, Note_on_c, 0, 57, 0
3, 827640, Note_on_c, 0, 55, 100
3, 827760, Note_on_c, 0, 55, 0
3, 827760, Note_on_c, 0, 54, 100
3, 827880, Note_on_c, 0, 54, 0
3, 827880, Note_on_c, 0, 50, 100
3, 828000, Note_on_c, 0, 50, 0
3, 828000, Note_on_c, 0, 58, 100
3, 828000, Note_on_c, 0, 55, 100
3, 828240, Note_on_c, 0, 58, 0
3, 828240, Note_on_c, 0, 57, 100
3, 828480, Note_on_c, 0, 57, 0
3, 828480, Note_on_c, 0, 55, 0
3, 828480, Note_on_c, 0, 60, 100
3, 828480, Note_on_c, 0, 54, 100
3, 828720, Note_on_c, 0, 54, 0
3, 828720, Note_on_c, 0, 60, 0
3, 828720, Note_on_c, 0, 59, 100
3, 828720, Note_on_c, 0, 55, 100
3, 828900, Note_on_c, 0, 59, 0
3, 828900, Note_on_c, 0, 61, 100
3, 828960, Note_on_c, 0, 61, 0
3, 828960, Note_on_c, 0, 55, 0
3, 828960, Note_on_c, 0, 62, 100
3, 829080, Note_on_c, 0, 56, 100
3, 829200, Note_on_c, 0, 56, 0
3, 829200, Note_on_c, 0, 57, 100
3, 829320, Note_on_c, 0, 57, 0
3, 829320, Note_on_c, 0, 52, 100
3, 829380, Note_on_c, 0, 62, 0
3, 829380, Note_on_c, 0, 61, 100
3, 829410, Note_on_c, 0, 61, 0
3, 829410, Note_on_c, 0, 59, 100
3, 829440, Note_on_c, 0, 59, 0
3, 829440, Note_on_c, 0, 52, 0
3, 829440, Note_on_c, 0, 61, 100
3, 829440, Note_on_c, 0, 57, 100
3, 829560, Note_on_c, 0, 57, 0
3, 829560, Note_on_c, 0, 55, 100
3, 829680, Note_on_c, 0, 55, 0
3, 829680, Note_on_c, 0, 61, 0
3, 829680, Note_on_c, 0, 62, 100
3, 829680, Note_on_c, 0, 53, 100
3, 829800, Note_on_c, 0, 53, 0
3, 829800, Note_on_c, 0, 50, 100
3, 829860, Note_on_c, 0, 62, 0
3, 829860, Note_on_c, 0, 60, 100
3, 829920, Note_on_c, 0, 60, 0
3, 829920, Note_on_c, 0, 50, 0
3, 829920, Note_on_c, 0, 59, 100
3, 829920, Note_on_c, 0, 55, 100
3, 830040, Note_on_c, 0, 59, 0
3, 830040, Note_on_c, 0, 57, 100
3, 830160, Note_on_c, 0, 57, 0
3, 830160, Note_on_c, 0, 58, 100
3, 830220, Note_on_c, 0, 55, 0
3, 830220, Note_on_c, 0, 57, 100
3, 830280, Note_on_c, 0, 57, 0
3, 830280, Note_on_c, 0, 55, 100
3, 830340, Note_on_c, 0, 55, 0
3, 830340, Note_on_c, 0, 53, 100
3, 830400, Note_on_c, 0, 53, 0
3, 830400, Note_on_c, 0, 52, 100
3, 830460, Note_on_c, 0, 58, 0
3, 830460, Note_on_c, 0, 57, 100
3, 830520, Note_on_c, 0, 57, 0
3, 830520, Note_on_c, 0, 58, 100
3, 830580, Note_on_c, 0, 58, 0
3, 830580, Note_on_c, 0, 55, 100
3, 830640, Note_on_c, 0, 55, 0
3, 830640, Note_on_c, 0, 52, 0
3, 830640, Note_on_c, 0, 57, 100
3, 830640, Note_on_c, 0, 53, 100
3, 830700, Note_on_c, 0, 53, 0
3, 830700, Note_on_c, 0, 55, 100
3, 830760, Note_on_c, 0, 55, 0
3, 830760, Note_on_c, 0, 53, 100
3, 830820, Note_on_c, 0, 53, 0
3, 830820, Note_on_c, 0, 52, 100
3, 830880, Note_on_c, 0, 52, 0
3, 830880, Note_on_c, 0, 50, 100
3, 830940, Note_on_c, 0, 57, 0
3, 830940, Note_on_c, 0, 58, 100
3, 831000, Note_on_c, 0, 58, 0
3, 831000, Note_on_c, 0, 57, 100
3, 831060, Note_on_c, 0, 57, 0
3, 831060, Note_on_c, 0, 56, 100
3, 831120, Note_on_c, 0, 56, 0
3, 831120, Note_on_c, 0, 50, 0
3, 831120, Note_on_c, 0, 57, 100
3, 831120, Note_on_c, 0, 45, 100
3, 831240, Note_on_c, 0, 45, 0
3, 831240, Note_on_c, 0, 57, 0
3, 831240, Note_on_c, 0, 57, 100
3, 831480, Note_on_c, 0, 57, 0
3, 831480, Note_on_c, 0, 58, 100
3, 831480, Note_on_c, 0, 55, 100
3, 831600, Note_on_c, 0, 55, 0
3, 831600, Note_on_c, 0, 58, 0
3, 831600, Note_on_c, 0, 60, 100
3, 831600, Note_on_c, 0, 53, 100
3, 831720, Note_on_c, 0, 60, 0
3, 831720, Note_on_c, 0, 62, 100
3, 831840, Note_on_c, 0, 62, 0
3, 831840, Note_on_c, 0, 53, 0
3, 831840, Note_on_c, 0, 64, 100
3, 831840, Note_on_c, 0, 52, 100
3, 831960, Note_on_c, 0, 64, 0
3, 831960, Note_on_c, 0, 65, 100
3, 832020, Note_on_c, 0, 65, 0
3, 832020, Note_on_c, 0, 64, 100
3, 832080, Note_on_c, 0, 64, 0
3, 832080, Note_on_c, 0, 52, 0
3, 832080, Note_on_c, 0, 62, 100
3, 832080, Note_on_c, 0, 55, 100
3, 832320, Note_on_c, 0, 55, 0
3, 832320, Note_on_c, 0, 54, 100
3, 832380, Note_on_c, 0, 62, 0
3, 832380, Note_on_c, 0, 61, 100
3, 832440, Note_on_c, 0, 61, 0
3, 832440, Note_on_c, 0, 62, 100
3, 832500, Note_on_c, 0, 62, 0
3, 832500, Note_on_c, 0, 54, 0
3, 832500, Note_on_c, 0, 65, 100
3, 832500, Note_on_c, 0, 56, 100
3, 832560, Note_on_c, 0, 56, 0
3, 832560, Note_on_c, 0, 65, 0
3, 832560, Note_on_c, 0, 64, 100
3, 832560, Note_on_c, 0, 57, 100
3, 832620, Note_on_c, 0, 64, 0
3, 832620, Note_on_c, 0, 62, 100
3, 832680, Note_on_c, 0, 62, 0
3, 832680, Note_on_c, 0, 64, 100
3, 832920, Note_on_c, 0, 64, 0
3, 832920, Note_on_c, 0, 59, 100
3, 833040, Note_on_c, 0, 59, 0
3, 833040, Note_on_c, 0, 59, 100
3, 833220, Note_on_c, 0, 57, 0
3, 833220, Note_on_c, 0, 56, 100
3, 833250, Note_on_c, 0, 56, 0
3, 833250, Note_on_c, 0, 54, 100
3, 833280, Note_on_c, 0, 54, 0
3, 833280, Note_on_c, 0, 56, 100
3, 833520, Note_on_c, 0, 56, 0
3, 833520, Note_on_c, 0, 59, 0
3, 833520, Note_on_c, 0, 57, 100
3, 833520, Note_on_c, 0, 57, 100
3, 833640, Note_on_c, 0, 57, 0
3, 833700, Note_on_c, 0, 57, 0
3, 833700, Note_on_c, 0, 55, 100
3, 833730, Note_on_c, 0, 55, 0
3, 833730, Note_on_c, 0, 53, 100
3, 833760, Note_on_c, 0, 53, 0
3, 833760, Note_on_c, 0, 52, 100
3, 833760, Note_on_c, 0, 45, 100
3, 833940, Note_on_c, 0, 52, 0
3, 833940, Note_on_c, 0, 50, 100
3, 833970, Note_on_c, 0, 50, 0
3, 833970, Note_on_c, 0, 52, 100
3, 834000, Note_on_c, 0, 52, 0
3, 834000, Note_on_c, 0, 45, 0
3, 834000, Note_on_c, 0, 50, 100
3, 834000, Note_on_c, 0, 46, 100
3, 834120, Note_on_c, 0, 50, 0
3, 834120, Note_on_c, 0, 52, 100
3, 834180, Note_on_c, 0, 52, 0
3, 834180, Note_on_c, 0, 54, 100
3, 834240, Note_on_c, 0, 54, 0
3, 834240, Note_on_c, 0, 46, 0
3, 834240, Note_on_c, 0, 55, 100
3, 834240, Note_on_c, 0, 43, 100
3, 834360, Note_on_c, 0, 55, 0
3, 834360, Note_on_c, 0, 53, 100
3, 834480, Note_on_c, 0, 53, 0
3, 834480, Note_on_c, 0, 43, 0
3, 834480, Note_on_c, 0, 51, 100
3, 834480, Note_on_c, 0, 44, 100
3, 834540, Note_on_c, 0, 51, 0
3, 834540, Note_on_c, 0, 50, 100
3, 834600, Note_on_c, 0, 50, 0
3, 834600, Note_on_c, 0, 48, 100
3, 834660, Note_on_c, 0, 44, 0
3, 834660, Note_on_c, 0, 43, 100
3, 834720, Note_on_c, 0, 43, 0
3, 834720, Note_on_c, 0, 48, 0
3, 834720, Note_on_c, 0, 50, 100
3, 834720, Note_on_c, 0, 42, 100
3, 834840, Note_on_c, 0, 50, 0
3, 834840, Note_on_c, 0, 51, 100
3, 835020, Note_on_c, 0, 51, 0
3, 835020, Note_on_c, 0, 50, 100
3, 835080, Note_on_c, 0, 50, 0
3, 835080, Note_on_c, 0, 51, 100
3, 835200, Note_on_c, 0, 42, 0
3, 835200, Note_on_c, 0, 43, 100
3, 835260, Note_on_c, 0, 51, 0
3, 835260, Note_on_c, 0, 50, 100
3, 835320, Note_on_c, 0, 50, 0
3, 835320, Note_on_c, 0, 53, 100
3, 835440, Note_on_c, 0, 43, 0
3, 835440, Note_on_c, 0, 48, 100
3, 835560, Note_on_c, 0, 53, 0
3, 835560, Note_on_c, 0, 52, 100
3, 835680, Note_on_c, 0, 48, 0
3, 835800, Note_on_c, 0, 52, 0
3, 835800, Note_on_c, 0, 55, 100
3, 835800, Note_on_c, 0, 49, 100
3, 835920, Note_on_c, 0, 49, 0
3, 835920, Note_on_c, 0, 50, 100
3, 836040, Note_on_c, 0, 55, 0
3, 836040, Note_on_c, 0, 54, 100
3, 836160, Note_on_c, 0, 50, 0
3, 836220, Note_on_c, 0, 54, 0
3, 836220, Note_on_c, 0, 56, 100
3, 836280, Note_on_c, 0, 56, 0
3, 836280, Note_on_c, 0, 57, 100
3, 836280, Note_on_c, 0, 51, 100
3, 836400, Note_on_c, 0, 51, 0
3, 836400, Note_on_c, 0, 52, 100
3, 836460, Note_on_c, 0, 52, 0
3, 836460, Note_on_c, 0, 50, 100
3, 836490, Note_on_c, 0, 50, 0
3, 836490, Note_on_c, 0, 52, 100
3, 836520, Note_on_c, 0, 52, 0
3, 836520, Note_on_c, 0, 53, 100
3, 836700, Note_on_c, 0, 53, 0
3, 836700, Note_on_c, 0, 57, 0
3, 836700, Note_on_c, 0, 56, 100
3, 836700, Note_on_c, 0, 47, 100
3, 836730, Note_on_c, 0, 56, 0
3, 836730, Note_on_c, 0, 54, 100
3, 836760, Note_on_c, 0, 54, 0
3, 836760, Note_on_c, 0, 47, 0
3, 836760, Note_on_c, 0, 56, 100
3, 836760, Note_on_c, 0, 52, 100
3, 836820, Note_on_c, 0, 52, 0
3, 836820, Note_on_c, 0, 50, 100
3, 836880, Note_on_c, 0, 50, 0
3, 836880, Note_on_c, 0, 49, 100
3, 836940, Note_on_c, 0, 49, 0
3, 836940, Note_on_c, 0, 47, 100
3, 837000, Note_on_c, 0, 47, 0
3, 837000, Note_on_c, 0, 56, 0
3, 837000, Note_on_c, 0, 57, 100
3, 837000, Note_on_c, 0, 45, 100
3, 837060, Note_on_c, 0, 57, 0
3, 837060, Note_on_c, 0, 52, 100
3, 837120, Note_on_c, 0, 52, 0
3, 837120, Note_on_c, 0, 45, 0
3, 837120, Note_on_c, 0, 57, 100
3, 837180, Note_on_c, 0, 57, 0
3, 837180, Note_on_c, 0, 58, 100
3, 837210, Note_on_c, 0, 58, 0
3, 837210, Note_on_c, 0, 57, 100
3, 837240, Note_on_c, 0, 57, 0
3, 837240, Note_on_c, 0, 55, 100
3, 837240, Note_on_c, 0, 45, 100
3, 837300, Note_on_c, 0, 55, 0
3, 837300, Note_on_c, 0, 57, 100
3, 837360, Note_on_c, 0, 57, 0
3, 837360, Note_on_c, 0, 45, 0
3, 837360, Note_on_c, 0, 58, 100
3, 837360, Note_on_c, 0, 50, 100
3, 837420, Note_on_c, 0, 58, 0
3, 837420, Note_on_c, 0, 62, 100
3, 837480, Note_on_c, 0, 62, 0
3, 837480, Note_on_c, 0, 55, 100
3, 837540, Note_on_c, 0, 55, 0
3, 837540, Note_on_c, 0, 57, 100
3, 837600, Note_on_c, 0, 57, 0
3, 837600, Note_on_c, 0, 58, 100
3, 837660, Note_on_c, 0, 58, 0
3, 837660, Note_on_c, 0, 55, 100
3, 837720, Note_on_c, 0, 55, 0
3, 837720, Note_on_c, 0, 52, 100
3, 837780, Note_on_c, 0, 52, 0
3, 837780, Note_on_c, 0, 53, 100
3, 837810, Note_on_c, 0, 53, 0
3, 837810, Note_on_c, 0, 55, 100
3, 837840, Note_on_c, 0, 55, 0
3, 837840, Note_on_c, 0, 57, 100
3, 837900, Note_on_c, 0, 50, 0
3, 837900, Note_on_c, 0, 52, 100
3, 837930, Note_on_c, 0, 52, 0
3, 837930, Note_on_c, 0, 53, 100
3, 837960, Note_on_c, 0, 53, 0
3, 837960, Note_on_c, 0, 57, 0
3, 837960, Note_on_c, 0, 55, 100
3, 837960, Note_on_c, 0, 52, 100
3, 838020, Note_on_c, 0, 52, 0
3, 838020, Note_on_c, 0, 50, 100
3, 838080, Note_on_c, 0, 50, 0
3, 838080, Note_on_c, 0, 49, 100
3, 838140, Note_on_c, 0, 49, 0
3, 838140, Note_on_c, 0, 45, 100
3, 838200, Note_on_c, 0, 45, 0
3, 838200, Note_on_c, 0, 55, 0
3, 838200, Note_on_c, 0, 53, 100
3, 838200, Note_on_c, 0, 50, 100
3, 838260, Note_on_c, 0, 50, 0
3, 838260, Note_on_c, 0, 48, 100
3, 838320, Note_on_c, 0, 48, 0
3, 838320, Note_on_c, 0, 46, 100
3, 838380, Note_on_c, 0, 53, 0
3, 838380, Note_on_c, 0, 52, 100
3, 838410, Note_on_c, 0, 52, 0
3, 838410, Note_on_c, 0, 50, 100
3, 838440, Note_on_c, 0, 50, 0
3, 838440, Note_on_c, 0, 46, 0
3, 838440, Note_on_c, 0, 57, 100
3, 838440, Note_on_c, 0, 45, 100
3, 838560, Note_on_c, 0, 45, 0
3, 838560, Note_on_c, 0, 46, 100
3, 838680, Note_on_c, 0, 57, 0
3, 838680, Note_on_c, 0, 55, 100
3, 838800, Note_on_c, 0, 55, 0
3, 838800, Note_on_c, 0, 46, 0
3, 838800, Note_on_c, 0, 57, 100
3, 838800, Note_on_c, 0, 45, 100
3, 838920, Note_on_c, 0, 45, 0
3, 838920, Note_on_c, 0, 57, 0
3, 839520, Note_on_c, 0, 50, 100
3, 839760, Note_on_c, 0, 50, 0
3, 839760, Note_on_c, 0, 57, 100
3, 840000, Note_on_c, 0, 58, 100
3, 840120, Note_on_c, 0, 57, 0
3, 840120, Note_on_c, 0, 55, 100
3, 840240, Note_on_c, 0, 55, 0
3, 840240, Note_on_c, 0, 58, 0
3, 840240, Note_on_c, 0, 57, 100
3, 840240, Note_on_c, 0, 53, 100
3, 840480, Note_on_c, 0, 57, 0
3, 840480, Note_on_c, 0, 60, 100
3, 840720, Note_on_c, 0, 60, 0
3, 840720, Note_on_c, 0, 53, 0
3, 840720, Note_on_c, 0, 59, 100
3, 840720, Note_on_c, 0, 55, 100
3, 840900, Note_on_c, 0, 59, 0
3, 840900, Note_on_c, 0, 61, 100
3, 840960, Note_on_c, 0, 61, 0
3, 840960, Note_on_c, 0, 62, 100
3, 841200, Note_on_c, 0, 55, 0
3, 841200, Note_on_c, 0, 57, 100
3, 841380, Note_on_c, 0, 62, 0
3, 841380, Note_on_c, 0, 61, 100
3, 841410, Note_on_c, 0, 61, 0
3, 841410, Note_on_c, 0, 59, 100
3, 841440, Note_on_c, 0, 59, 0
3, 841440, Note_on_c, 0, 61, 100
3, 841680, Note_on_c, 0, 61, 0
3, 841680, Note_on_c, 0, 57, 0
3, 841680, Note_on_c, 0, 62, 100
3, 841680, Note_on_c, 0, 50, 100
3, 841740, Note_on_c, 0, 62, 0
3, 841740, Note_on_c, 0, 64, 100
3, 841800, Note_on_c, 0, 64, 0
3, 841800, Note_on_c, 0, 50, 0
3, 841800, Note_on_c, 0, 62, 100
3, 841860, Note_on_c, 0, 62, 0
3, 841860, Note_on_c, 0, 60, 100
3, 841920, Note_on_c, 0, 60, 0
3, 841920, Note_on_c, 0, 59, 100
3, 841980, Note_on_c, 0, 59, 0
3, 841980, Note_on_c, 0, 57, 100
3, 842040, Note_on_c, 0, 57, 0
3, 842040, Note_on_c, 0, 59, 100
3, 842100, Note_on_c, 0, 59, 0
3, 842100, Note_on_c, 0, 62, 100
3, 842160, Note_on_c, 0, 62, 0
3, 844440, Note_on_c, 0, 57, 100
3, 844530, Note_on_c, 0, 57, 0
3, 844530, Note_on_c, 0, 50, 100
3, 844560, Note_on_c, 0, 50, 0
3, 844560, Note_on_c, 0, 49, 100
3, 844590, Note_on_c, 0, 49, 0
3, 844590, Note_on_c, 0, 50, 100
3, 844620, Note_on_c, 0, 50, 0
3, 844620, Note_on_c, 0, 52, 100
3, 844650, Note_on_c, 0, 52, 0
3, 844650, Note_on_c, 0, 50, 100
3, 844680, Note_on_c, 0, 50, 0
3, 844680, Note_on_c, 0, 52, 100
3, 844710, Note_on_c, 0, 52, 0
3, 844710, Note_on_c, 0, 53, 100
3, 844740, Note_on_c, 0, 53, 0
3, 844740, Note_on_c, 0, 52, 100
3, 844770, Note_on_c, 0, 52, 0
3, 844770, Note_on_c, 0, 53, 100
3, 844800, Note_on_c, 0, 53, 0
3, 844800, Note_on_c, 0, 55, 100
3, 844830, Note_on_c, 0, 55, 0
3, 844830, Note_on_c, 0, 53, 100
3, 844860, Note_on_c, 0, 53, 0
3, 844860, Note_on_c, 0, 55, 100
3, 844890, Note_on_c, 0, 55, 0
3, 844890, Note_on_c, 0, 57, 100
3, 844920, Note_on_c, 0, 57, 0
3, 844920, Note_on_c, 0, 55, 100
3, 844950, Note_on_c, 0, 55, 0
3, 844950, Note_on_c, 0, 57, 100
3, 844980, Note_on_c, 0, 57, 0
3, 844980, Note_on_c, 0, 58, 100
3, 845040, Note_on_c, 0, 58, 0
3, 845070, Note_on_c, 0, 57, 100
3, 845130, Note_on_c, 0, 57, 0
3, 845160, Note_on_c, 0, 55, 100
3, 845220, Note_on_c, 0, 55, 0
3, 845250, Note_on_c, 0, 55, 100
3, 845280, Note_on_c, 0, 55, 0
3, 845280, Note_on_c, 0, 53, 100
3, 845400, Note_on_c, 0, 53, 0
3, 845400, Note_on_c, 0, 52, 100
3, 845430, Note_on_c, 0, 52, 0
3, 845430, Note_on_c, 0, 53, 100
3, 845490, Note_on_c, 0, 53, 0
3, 845490, Note_on_c, 0, 55, 100
3, 845520, Note_on_c, 0, 55, 0
3, 845520, Note_on_c, 0, 57, 100
3, 845580, Note_on_c, 0, 57, 0
3, 845580, Note_on_c, 0, 67, 100
3, 845610, Note_on_c, 0, 67, 0
3, 845610, Note_on_c, 0, 65, 100
3, 845670, Note_on_c, 0, 65, 0
3, 845670, Note_on_c, 0, 57, 100
3, 845700, Note_on_c, 0, 57, 0
3, 845700, Note_on_c, 0, 55, 100
3, 845760, Note_on_c, 0, 55, 0
3, 845760, Note_on_c, 0, 64, 100
3, 845790, Note_on_c, 0, 64, 0
3, 845790, Note_on_c, 0, 62, 100
3, 845850, Note_on_c, 0, 62, 0
3, 845850, Note_on_c, 0, 53, 100
3, 845880, Note_on_c, 0, 53, 0
3, 845880, Note_on_c, 0, 52, 100
3, 845940, Note_on_c, 0, 52, 0
3, 845940, Note_on_c, 0, 62, 100
3, 845970, Note_on_c, 0, 62, 0
3, 845970, Note_on_c, 0, 61, 100
3, 846030, Note_on_c, 0, 61, 0
3, 846030, Note_on_c, 0, 52, 100
3, 846060, Note_on_c, 0, 52, 0
3, 846060, Note_on_c, 0, 52, 100
3, 846090, Note_on_c, 0, 52, 0
3, 846090, Note_on_c, 0, 50, 100
3, 846120, Note_on_c, 0, 50, 0
3, 846120, Note_on_c, 0, 49, 100
3, 846150, Note_on_c, 0, 49, 0
3, 846150, Note_on_c, 0, 50, 100
3, 846180, Note_on_c, 0, 50, 0
3, 846180, Note_on_c, 0, 52, 100
3, 846210, Note_on_c, 0, 52, 0
3, 846210, Note_on_c, 0, 53, 100
3, 846240, Note_on_c, 0, 53, 0
3, 846240, Note_on_c, 0, 55, 100
3, 846270, Note_on_c, 0, 55, 0
3, 846270, Note_on_c, 0, 57, 100
3, 846300, Note_on_c, 0, 57, 0
3, 846300, Note_on_c, 0, 58, 100
3, 846330, Note_on_c, 0, 58, 0
3, 846330, Note_on_c, 0, 58, 100
3, 846360, Note_on_c, 0, 58, 0
3, 846360, Note_on_c, 0, 57, 100
3, 846390, Note_on_c, 0, 57, 0
3, 846390, Note_on_c, 0, 55, 100
3, 846420, Note_on_c, 0, 55, 0
3, 846420, Note_on_c, 0, 57, 100
3, 846450, Note_on_c, 0, 57, 0
3, 846450, Note_on_c, 0, 59, 100
3, 846480, Note_on_c, 0, 59, 0
3, 846480, Note_on_c, 0, 61, 100
3, 846510, Note_on_c, 0, 61, 0
3, 846510, Note_on_c, 0, 62, 100
3, 846540, Note_on_c, 0, 62, 0
3, 846540, Note_on_c, 0, 64, 100
3, 846570, Note_on_c, 0, 64, 0
3, 846570, Note_on_c, 0, 65, 100
3, 846600, Note_on_c, 0, 65, 0
3, 846600, Note_on_c, 0, 65, 100
3, 846630, Note_on_c, 0, 65, 0
3, 846630, Note_on_c, 0, 62, 100
3, 846660, Note_on_c, 0, 62, 0
3, 846660, Note_on_c, 0, 64, 100
3, 846690, Note_on_c, 0, 64, 0
3, 846690, Note_on_c, 0, 64, 100
3, 846720, Note_on_c, 0, 64, 0
3, 846720, Note_on_c, 0, 61, 100
3, 846750, Note_on_c, 0, 61, 0
3, 846750, Note_on_c, 0, 62, 100
3, 846780, Note_on_c, 0, 62, 0
3, 846780, Note_on_c, 0, 62, 100
3, 846810, Note_on_c, 0, 62, 0
3, 846810, Note_on_c, 0, 59, 100
3, 846840, Note_on_c, 0, 59, 0
3, 846840, Note_on_c, 0, 60, 100
3, 846870, Note_on_c, 0, 60, 0
3, 846870, Note_on_c, 0, 60, 100
3, 846900, Note_on_c, 0, 60, 0
3, 846900, Note_on_c, 0, 57, 100
3, 846930, Note_on_c, 0, 57, 0
3, 846930, Note_on_c, 0, 58, 100
3, 846960, Note_on_c, 0, 58, 0
3, 846960, Note_on_c, 0, 58, 100
3, 846990, Note_on_c, 0, 58, 0
3, 846990, Note_on_c, 0, 55, 100
3, 847020, Note_on_c, 0, 55, 0
3, 847020, Note_on_c, 0, 57, 100
3, 847050, Note_on_c, 0, 57, 0
3, 847050, Note_on_c, 0, 57, 100
3, 847080, Note_on_c, 0, 57, 0
3, 847080, Note_on_c, 0, 53, 100
3, 847110, Note_on_c, 0, 53, 0
3, 847110, Note_on_c, 0, 55, 100
3, 847140, Note_on_c, 0, 55, 0
3, 847140, Note_on_c, 0, 55, 100
3, 847170, Note_on_c, 0, 55, 0
3, 847170, Note_on_c, 0, 53, 100
3, 847260, Note_on_c, 0, 53, 0
3, 847260, Note_on_c, 0, 55, 100
3, 847290, Note_on_c, 0, 55, 0
3, 847290, Note_on_c, 0, 57, 100
3, 847320, Note_on_c, 0, 57, 0
3, 847320, Note_on_c, 0, 58, 100
3, 847350, Note_on_c, 0, 58, 0
3, 847350, Note_on_c, 0, 57, 100
3, 847380, Note_on_c, 0, 57, 0
3, 847380, Note_on_c, 0, 55, 100
3, 847410, Note_on_c, 0, 55, 0
3, 847410, Note_on_c, 0, 62, 100
3, 847440, Note_on_c, 0, 62, 0
3, 847440, Note_on_c, 0, 61, 100
3, 847530, Note_on_c, 0, 61, 0
3, 847530, Note_on_c, 0, 62, 100
3, 847560, Note_on_c, 0, 62, 0
3, 847560, Note_on_c, 0, 64, 100
3, 847590, Note_on_c, 0, 64, 0
3, 847590, Note_on_c, 0, 65, 100
3, 847620, Note_on_c, 0, 65, 0
3, 847620, Note_on_c, 0, 64, 100
3, 847650, Note_on_c, 0, 64, 0
3, 847650, Note_on_c, 0, 62, 100
3, 847680, Note_on_c, 0, 62, 0
3, 847680, Note_on_c, 0, 69, 100
3, 847695, Note_on_c, 0, 69, 0
3, 847695, Note_on_c, 0, 68, 100
3, 847710, Note_on_c, 0, 68, 0
3, 847710, Note_on_c, 0, 66, 100
3, 847725, Note_on_c, 0, 66, 0
3, 847725, Note_on_c, 0, 68, 100
3, 847740, Note_on_c, 0, 68, 0
3, 847740, Note_on_c, 0, 69, 100
3, 847755, Note_on_c, 0, 69, 0
3, 847755, Note_on_c, 0, 68, 100
3, 847770, Note_on_c, 0, 68, 0
3, 847770, Note_on_c, 0, 69, 100
3, 847785, Note_on_c, 0, 69, 0
3, 847785, Note_on_c, 0, 68, 100
3, 847800, Note_on_c, 0, 68, 0
3, 847800, Note_on_c, 0, 69, 100
3, 847815, Note_on_c, 0, 69, 0
3, 847815, Note_on_c, 0, 68, 100
3, 847830, Note_on_c, 0, 68, 0
3, 847830, Note_on_c, 0, 69, 100
3, 847845, Note_on_c, 0, 69, 0
3, 847845, Note_on_c, 0, 68, 100
3, 847860, Note_on_c, 0, 68, 0
3, 847860, Note_on_c, 0, 69, 100
3, 847875, Note_on_c, 0, 69, 0
3, 847875, Note_on_c, 0, 68, 100
3, 847890, Note_on_c, 0, 68, 0
3, 847890, Note_on_c, 0, 69, 100
3, 847905, Note_on_c, 0, 69, 0
3, 847905, Note_on_c, 0, 68, 100
3, 847920, Note_on_c, 0, 68, 0
3, 847920, Note_on_c, 0, 66, 100
3, 847935, Note_on_c, 0, 66, 0
3, 847935, Note_on_c, 0, 68, 100
3, 847950, Note_on_c, 0, 68, 0
3, 847950, Note_on_c, 0, 69, 100
3, 848010, Note_on_c, 0, 69, 0
3, 848100, Note_on_c, 0, 61, 100
3, 848130, Note_on_c, 0, 61, 0
3, 848130, Note_on_c, 0, 62, 100
3, 848190, Note_on_c, 0, 62, 0
3, 848190, Note_on_c, 0, 64, 100
3, 848220, Note_on_c, 0, 64, 0
3, 848220, Note_on_c, 0, 57, 100
3, 848250, Note_on_c, 0, 57, 0
3, 848250, Note_on_c, 0, 59, 100
3, 848280, Note_on_c, 0, 59, 0
3, 848280, Note_on_c, 0, 61, 100
3, 848310, Note_on_c, 0, 61, 0
3, 848310, Note_on_c, 0, 62, 100
3, 848340, Note_on_c, 0, 62, 0
3, 848340, Note_on_c, 0, 64, 100
3, 848370, Note_on_c, 0, 64, 0
3, 848370, Note_on_c, 0, 65, 100
3, 848400, Note_on_c, 0, 65, 0
3, 848400, Note_on_c, 0, 55, 100
3, 848520, Note_on_c, 0, 55, 0
3, 848520, Note_on_c, 0, 67, 100
3, 848550, Note_on_c, 0, 67, 0
3, 848550, Note_on_c, 0, 65, 100
3, 848580, Note_on_c, 0, 65, 0
3, 848580, Note_on_c, 0, 64, 100
3, 848610, Note_on_c, 0, 64, 0
3, 848610, Note_on_c, 0, 62, 100
3, 848640, Note_on_c, 0, 62, 0
3, 848640, Note_on_c, 0, 61, 100
3, 848670, Note_on_c, 0, 61, 0
3, 848670, Note_on_c, 0, 62, 100
3, 848790, Note_on_c, 0, 62, 0
3, 848790, Note_on_c, 0, 59, 100
3, 848820, Note_on_c, 0, 59, 0
3, 848820, Note_on_c, 0, 61, 100
3, 848850, Note_on_c, 0, 61, 0
3, 848850, Note_on_c, 0, 62, 100
3, 848880, Note_on_c, 0, 62, 0
3, 848880, Note_on_c, 0, 64, 100
3, 848910, Note_on_c, 0, 64, 0
3, 848910, Note_on_c, 0, 65, 100
3, 848940, Note_on_c, 0, 65, 0
3, 848940, Note_on_c, 0, 64, 100
3, 848970, Note_on_c, 0, 64, 0
3, 848970, Note_on_c, 0, 65, 100
3, 849000, Note_on_c, 0, 65, 0
3, 849000, Note_on_c, 0, 62, 100
3, 849030, Note_on_c, 0, 62, 0
3, 849030, Note_on_c, 0, 61, 100
3, 849060, Note_on_c, 0, 61, 0
3, 849060, Note_on_c, 0, 62, 100
3, 849090, Note_on_c, 0, 62, 0
3, 849090, Note_on_c, 0, 64, 100
3, 849120, Note_on_c, 0, 64, 0
3, 849120, Note_on_c, 0, 57, 100
3, 849240, Note_on_c, 0, 57, 0
3, 849240, Note_on_c, 0, 58, 100
3, 849270, Note_on_c, 0, 58, 0
3, 849270, Note_on_c, 0, 55, 100
3, 849300, Note_on_c, 0, 55, 0
3, 849300, Note_on_c, 0, 53, 100
3, 849330, Note_on_c, 0, 53, 0
3, 849330, Note_on_c, 0, 55, 100
3, 849360, Note_on_c, 0, 55, 0
3, 849360, Note_on_c, 0, 52, 100
3, 849390, Note_on_c, 0, 52, 0
3, 849390, Note_on_c, 0, 53, 100
3, 849420, Note_on_c, 0, 53, 0
3, 849420, Note_on_c, 0, 57, 100
3, 849450, Note_on_c, 0, 57, 0
3, 849450, Note_on_c, 0, 62, 100
3, 849480, Note_on_c, 0, 62, 0
3, 849480, Note_on_c, 0, 60, 100
3, 849510, Note_on_c, 0, 60, 0
3, 849510, Note_on_c, 0, 58, 100
3, 849540, Note_on_c, 0, 58, 0
3, 849540, Note_on_c, 0, 57, 100
3, 849570, Note_on_c, 0, 57, 0
3, 849570, Note_on_c, 0, 58, 100
3, 849600, Note_on_c, 0, 58, 0
3, 849600, Note_on_c, 0, 62, 100
3, 849630, Note_on_c, 0, 62, 0
3, 849630, Note_on_c, 0, 67, 100
3, 849660, Note_on_c, 0, 67, 0
3, 849660, Note_on_c, 0, 61, 100
3, 849690, Note_on_c, 0, 61, 0
3, 849690, Note_on_c, 0, 64, 100
3, 849720, Note_on_c, 0, 64, 0
3, 849720, Note_on_c, 0, 57, 100
3, 849750, Note_on_c, 0, 57, 0
3, 849750, Note_on_c, 0, 58, 100
3, 849780, Note_on_c, 0, 58, 0
3, 849780, Note_on_c, 0, 57, 100
3, 849810, Note_on_c, 0, 57, 0
3, 849810, Note_on_c, 0, 55, 100
3, 849840, Note_on_c, 0, 55, 0
3, 849840, Note_on_c, 0, 53, 100
3, 849870, Note_on_c, 0, 53, 0
3, 849870, Note_on_c, 0, 55, 100
3, 849900, Note_on_c, 0, 55, 0
3, 849900, Note_on_c, 0, 52, 100
3, 849930, Note_on_c, 0, 52, 0
3, 849930, Note_on_c, 0, 53, 100
3, 849990, Note_on_c, 0, 53, 0
3, 849990, Note_on_c, 0, 62, 100
3, 850020, Note_on_c, 0, 62, 0
3, 850020, Note_on_c, 0, 55, 100
3, 850080, Note_on_c, 0, 55, 0
3, 850080, Note_on_c, 0, 53, 100
3, 850110, Note_on_c, 0, 53, 0
3, 850110, Note_on_c, 0, 52, 100
3, 850140, Note_on_c, 0, 52, 0
3, 850140, Note_on_c, 0, 57, 100
3, 850170, Note_on_c, 0, 57, 0
3, 850170, Note_on_c, 0, 55, 100
3, 850200, Note_on_c, 0, 55, 0
3, 850200, Note_on_c, 0, 53, 100
3, 850230, Note_on_c, 0, 53, 0
3, 850230, Note_on_c, 0, 52, 100
3, 850260, Note_on_c, 0, 52, 0
3, 850260, Note_on_c, 0, 50, 100
3, 850290, Note_on_c, 0, 50, 0
3, 850290, Note_on_c, 0, 50, 100
3, 850305, Note_on_c, 0, 50, 0
3, 850305, Note_on_c, 0, 49, 100
3, 850320, Note_on_c, 0, 49, 0
3, 850320, Note_on_c, 0, 50, 100
3, 850335, Note_on_c, 0, 50, 0
3, 850335, Note_on_c, 0, 49, 100
3, 850350, Note_on_c, 0, 49, 0
3, 850350, Note_on_c, 0, 50, 100
3, 850365, Note_on_c, 0, 50, 0
3, 850365, Note_on_c, 0, 49, 100
3, 850380, Note_on_c, 0, 49, 0
3, 850380, Note_on_c, 0, 50, 100
3, 850440, Note_on_c, 0, 50, 0
3, 850920, Note_on_c, 0, 62, 100
3, 851010, Note_on_c, 0, 62, 0
3, 851010, Note_on_c, 0, 57, 100
3, 851040, Note_on_c, 0, 57, 0
3, 851040, Note_on_c, 0, 56, 100
3, 851070, Note_on_c, 0, 56, 0
3, 851070, Note_on_c, 0, 57, 100
3, 851100, Note_on_c, 0, 57, 0
3, 851100, Note_on_c, 0, 59, 100
3, 851130, Note_on_c, 0, 59, 0
3, 851130, Note_on_c, 0, 57, 100
3, 851160, Note_on_c, 0, 57, 0
3, 851160, Note_on_c, 0, 59, 100
3, 851190, Note_on_c, 0, 59, 0
3, 851190, Note_on_c, 0, 60, 100
3, 851220, Note_on_c, 0, 60, 0
3, 851220, Note_on_c, 0, 59, 100
3, 851250, Note_on_c, 0, 59, 0
3, 851250, Note_on_c, 0, 61, 100
3, 851280, Note_on_c, 0, 61, 0
3, 851280, Note_on_c, 0, 62, 100
3, 851310, Note_on_c, 0, 62, 0
3, 851310, Note_on_c, 0, 61, 100
3, 851340, Note_on_c, 0, 61, 0
3, 851340, Note_on_c, 0, 62, 100
3, 851370, Note_on_c, 0, 62, 0
3, 851370, Note_on_c, 0, 64, 100
3, 851400, Note_on_c, 0, 64, 0
3, 851400, Note_on_c, 0, 62, 100
3, 851430, Note_on_c, 0, 62, 0
3, 851430, Note_on_c, 0, 64, 100
3, 851460, Note_on_c, 0, 64, 0
3, 851460, Note_on_c, 0, 65, 100
3, 851520, Note_on_c, 0, 65, 0
3, 851550, Note_on_c, 0, 64, 100
3, 851610, Note_on_c, 0, 64, 0
3, 851640, Note_on_c, 0, 62, 100
3, 851700, Note_on_c, 0, 62, 0
3, 851730, Note_on_c, 0, 62, 100
3, 851760, Note_on_c, 0, 62, 0
3, 851760, Note_on_c, 0, 61, 100
3, 851880, Note_on_c, 0, 61, 0
3, 851880, Note_on_c, 0, 57, 100
3, 851910, Note_on_c, 0, 57, 0
3, 851910, Note_on_c, 0, 59, 100
3, 851970, Note_on_c, 0, 59, 0
3, 851970, Note_on_c, 0, 61, 100
3, 852000, Note_on_c, 0, 61, 0
3, 852000, Note_on_c, 0, 62, 100
3, 852030, Note_on_c, 0, 62, 0
3, 852030, Note_on_c, 0, 60, 100
3, 852060, Note_on_c, 0, 60, 0
3, 852060, Note_on_c, 0, 59, 100
3, 852090, Note_on_c, 0, 59, 0
3, 852090, Note_on_c, 0, 60, 100
3, 852150, Note_on_c, 0, 60, 0
3, 852150, Note_on_c, 0, 69, 100
3, 852180, Note_on_c, 0, 69, 0
3, 852180, Note_on_c, 0, 68, 100
3, 852240, Note_on_c, 0, 68, 0
3, 852240, Note_on_c, 0, 62, 100
3, 852270, Note_on_c, 0, 62, 0
3, 852270, Note_on_c, 0, 64, 100
3, 852330, Note_on_c, 0, 64, 0
3, 852330, Note_on_c, 0, 67, 100
3, 852360, Note_on_c, 0, 67, 0
3, 852360, Note_on_c, 0, 65, 100
3, 852390, Note_on_c, 0, 65, 0
3, 852390, Note_on_c, 0, 64, 100
3, 852420, Note_on_c, 0, 64, 0
3, 852420, Note_on_c, 0, 62, 100
3, 852450, Note_on_c, 0, 62, 0
3, 852450, Note_on_c, 0, 61, 100
3, 852510, Note_on_c, 0, 61, 0
3, 852510, Note_on_c, 0, 70, 100
3, 852540, Note_on_c, 0, 70, 0
3, 852540, Note_on_c, 0, 69, 100
3, 852570, Note_on_c, 0, 69, 0
3, 852570, Note_on_c, 0, 65, 100
3, 852600, Note_on_c, 0, 65, 0
3, 852600, Note_on_c, 0, 62, 100
3, 852630, Note_on_c, 0, 62, 0
3, 852630, Note_on_c, 0, 62, 100
3, 852660, Note_on_c, 0, 62, 0
3, 852660, Note_on_c, 0, 67, 100
3, 852690, Note_on_c, 0, 67, 0
3, 852690, Note_on_c, 0, 60, 100
3, 852720, Note_on_c, 0, 60, 0
3, 852720, Note_on_c, 0, 60, 100
3, 852750, Note_on_c, 0, 60, 0
3, 852750, Note_on_c, 0, 65, 100
3, 852780, Note_on_c, 0, 65, 0
3, 852780, Note_on_c, 0, 58, 100
3, 852810, Note_on_c, 0, 58, 0
3, 852810, Note_on_c, 0, 58, 100
3, 852840, Note_on_c, 0, 58, 0
3, 852840, Note_on_c, 0, 57, 100
3, 852870, Note_on_c, 0, 57, 0
3, 852870, Note_on_c, 0, 55, 100
3, 852900, Note_on_c, 0, 55, 0
3, 852900, Note_on_c, 0, 57, 100
3, 852930, Note_on_c, 0, 57, 0
3, 852930, Note_on_c, 0, 61, 100
3, 852960, Note_on_c, 0, 61, 0
3, 852960, Note_on_c, 0, 64, 100
3, 852990, Note_on_c, 0, 64, 0
3, 852990, Note_on_c, 0, 67, 100
3, 853020, Note_on_c, 0, 67, 0
3, 853020, Note_on_c, 0, 65, 100
3, 853050, Note_on_c, 0, 65, 0
3, 853050, Note_on_c, 0, 64, 100
3, 853080, Note_on_c, 0, 64, 0
3, 853080, Note_on_c, 0, 65, 100
3, 853110, Note_on_c, 0, 65, 0
3, 853110, Note_on_c, 0, 64, 100
3, 853140, Note_on_c, 0, 64, 0
3, 853140, Note_on_c, 0, 62, 100
3, 853170, Note_on_c, 0, 62, 0
3, 853170, Note_on_c, 0, 64, 100
3, 853200, Note_on_c, 0, 64, 0
3, 853200, Note_on_c, 0, 62, 100
3, 853230, Note_on_c, 0, 62, 0
3, 853230, Note_on_c, 0, 60, 100
3, 853260, Note_on_c, 0, 60, 0
3, 853260, Note_on_c, 0, 62, 100
3, 853290, Note_on_c, 0, 62, 0
3, 853290, Note_on_c, 0, 60, 100
3, 853320, Note_on_c, 0, 60, 0
3, 853320, Note_on_c, 0, 59, 100
3, 853350, Note_on_c, 0, 59, 0
3, 853350, Note_on_c, 0, 60, 100
3, 853380, Note_on_c, 0, 60, 0
3, 853380, Note_on_c, 0, 62, 100
3, 853410, Note_on_c, 0, 62, 0
3, 853410, Note_on_c, 0, 64, 100
3, 853440, Note_on_c, 0, 64, 0
3, 853440, Note_on_c, 0, 62, 100
3, 853470, Note_on_c, 0, 62, 0
3, 853470, Note_on_c, 0, 64, 100
3, 853500, Note_on_c, 0, 64, 0
3, 853500, Note_on_c, 0, 65, 100
3, 853530, Note_on_c, 0, 65, 0
3, 853530, Note_on_c, 0, 64, 100
3, 853560, Note_on_c, 0, 64, 0
3, 853560, Note_on_c, 0, 65, 100
3, 853590, Note_on_c, 0, 65, 0
3, 853590, Note_on_c, 0, 67, 100
3, 853620, Note_on_c, 0, 67, 0
3, 853620, Note_on_c, 0, 65, 100
3, 853650, Note_on_c, 0, 65, 0
3, 853650, Note_on_c, 0, 62, 100
3, 853680, Note_on_c, 0, 62, 0
3, 853680, Note_on_c, 0, 69, 100
3, 853710, Note_on_c, 0, 69, 0
3, 853710, Note_on_c, 0, 58, 100
3, 853740, Note_on_c, 0, 58, 0
3, 853740, Note_on_c, 0, 64, 100
3, 853770, Note_on_c, 0, 64, 0
3, 853770, Note_on_c, 0, 67, 100
3, 853800, Note_on_c, 0, 67, 0
3, 853800, Note_on_c, 0, 57, 100
3, 853830, Note_on_c, 0, 57, 0
3, 853830, Note_on_c, 0, 62, 100
3, 853860, Note_on_c, 0, 62, 0
3, 853860, Note_on_c, 0, 65, 100
3, 853890, Note_on_c, 0, 65, 0
3, 853890, Note_on_c, 0, 55, 100
3, 853920, Note_on_c, 0, 55, 0
3, 853920, Note_on_c, 0, 61, 100
3, 853950, Note_on_c, 0, 61, 0
3, 853950, Note_on_c, 0, 64, 100
3, 853980, Note_on_c, 0, 64, 0
3, 853980, Note_on_c, 0, 53, 100
3, 854010, Note_on_c, 0, 53, 0
3, 854010, Note_on_c, 0, 57, 100
3, 854040, Note_on_c, 0, 57, 0
3, 854040, Note_on_c, 0, 55, 100
3, 854070, Note_on_c, 0, 55, 0
3, 854070, Note_on_c, 0, 58, 100
3, 854100, Note_on_c, 0, 58, 0
3, 854100, Note_on_c, 0, 57, 100
3, 854130, Note_on_c, 0, 57, 0
3, 854130, Note_on_c, 0, 61, 100
3, 854160, Note_on_c, 0, 61, 0
3, 854160, Note_on_c, 0, 62, 100
3, 854190, Note_on_c, 0, 62, 0
3, 854190, Note_on_c, 0, 64, 100
3, 854220, Note_on_c, 0, 64, 0
3, 854220, Note_on_c, 0, 65, 100
3, 854250, Note_on_c, 0, 65, 0
3, 854250, Note_on_c, 0, 57, 100
3, 854310, Note_on_c, 0, 57, 0
3, 854310, Note_on_c, 0, 56, 100
3, 854325, Note_on_c, 0, 56, 0
3, 854325, Note_on_c, 0, 57, 100
3, 854340, Note_on_c, 0, 57, 0
3, 854340, Note_on_c, 0, 56, 100
3, 854355, Note_on_c, 0, 56, 0
3, 854355, Note_on_c, 0, 57, 100
3, 854370, Note_on_c, 0, 57, 0
3, 854370, Note_on_c, 0, 56, 100
3, 854385, Note_on_c, 0, 56, 0
3, 854385, Note_on_c, 0, 57, 100
3, 854400, Note_on_c, 0, 57, 0
3, 854400, Note_on_c, 0, 56, 100
3, 854430, Note_on_c, 0, 56, 0
3, 854430, Note_on_c, 0, 57, 100
3, 854490, Note_on_c, 0, 57, 0
3, 854580, Note_on_c, 0, 59, 100
3, 854610, Note_on_c, 0, 59, 0
3, 854610, Note_on_c, 0, 60, 100
3, 854670, Note_on_c, 0, 60, 0
3, 854670, Note_on_c, 0, 57, 100
3, 854700, Note_on_c, 0, 57, 0
3, 854700, Note_on_c, 0, 62, 100
3, 854760, Note_on_c, 0, 62, 0
3, 854760, Note_on_c, 0, 65, 100
3, 854790, Note_on_c, 0, 65, 0
3, 854790, Note_on_c, 0, 65, 100
3, 854820, Note_on_c, 0, 65, 0
3, 854820, Note_on_c, 0, 64, 100
3, 854850, Note_on_c, 0, 64, 0
3, 854850, Note_on_c, 0, 62, 100
3, 854880, Note_on_c, 0, 62, 0
3, 854880, Note_on_c, 0, 60, 100
3, 854910, Note_on_c, 0, 60, 0
3, 854910, Note_on_c, 0, 62, 100
3, 854940, Note_on_c, 0, 62, 0
3, 854940, Note_on_c, 0, 59, 100
3, 854970, Note_on_c, 0, 59, 0
3, 854970, Note_on_c, 0, 64, 100
3, 855060, Note_on_c, 0, 64, 0
3, 855060, Note_on_c, 0, 57, 100
3, 855150, Note_on_c, 0, 57, 0
3, 855240, Note_on_c, 0, 57, 100
3, 855330, Note_on_c, 0, 57, 0
3, 855330, Note_on_c, 0, 64, 100
3, 855360, Note_on_c, 0, 64, 0
3, 855360, Note_on_c, 0, 65, 100
3, 855390, Note_on_c, 0, 65, 0
3, 855390, Note_on_c, 0, 64, 100
3, 855420, Note_on_c, 0, 64, 0
3, 855420, Note_on_c, 0, 62, 100
3, 855450, Note_on_c, 0, 62, 0
3, 855450, Note_on_c, 0, 64, 100
3, 855480, Note_on_c, 0, 64, 0
3, 855480, Note_on_c, 0, 62, 100
3, 855510, Note_on_c, 0, 62, 0
3, 855510, Note_on_c, 0, 60, 100
3, 855540, Note_on_c, 0, 60, 0
3, 855540, Note_on_c, 0, 62, 100
3, 855570, Note_on_c, 0, 62, 0
3, 855570, Note_on_c, 0, 60, 100
3, 855600, Note_on_c, 0, 60, 0
3, 855600, Note_on_c, 0, 59, 100
3, 855630, Note_on_c, 0, 59, 0
3, 855630, Note_on_c, 0, 60, 100
3, 855660, Note_on_c, 0, 60, 0
3, 855660, Note_on_c, 0, 59, 100
3, 855690, Note_on_c, 0, 59, 0
3, 855690, Note_on_c, 0, 57, 100
3, 855720, Note_on_c, 0, 57, 0
3, 855720, Note_on_c, 0, 59, 100
3, 855750, Note_on_c, 0, 59, 0
3, 855750, Note_on_c, 0, 57, 100
3, 855780, Note_on_c, 0, 57, 0
3, 855780, Note_on_c, 0, 56, 100
3, 855840, Note_on_c, 0, 56, 0
3, 855870, Note_on_c, 0, 57, 100
3, 855930, Note_on_c, 0, 57, 0
3, 855960, Note_on_c, 0, 59, 100
3, 856020, Note_on_c, 0, 59, 0
3, 856050, Note_on_c, 0, 59, 100
3, 856080, Note_on_c, 0, 59, 0
3, 856080, Note_on_c, 0, 60, 100
3, 856200, Note_on_c, 0, 60, 0
3, 856200, Note_on_c, 0, 62, 100
3, 856230, Note_on_c, 0, 62, 0
3, 856230, Note_on_c, 0, 60, 100
3, 856290, Note_on_c, 0, 60, 0
3, 856290, Note_on_c, 0, 59, 100
3, 856320, Note_on_c, 0, 59, 0
3, 856320, Note_on_c, 0, 57, 100
3, 856350, Note_on_c, 0, 57, 0
3, 856350, Note_on_c, 0, 52, 100
3, 856380, Note_on_c, 0, 52, 0
3, 856380, Note_on_c, 0, 57, 100
3, 856410, Note_on_c, 0, 57, 0
3, 856410, Note_on_c, 0, 60, 100
3, 856440, Note_on_c, 0, 60, 0
3, 856440, Note_on_c, 0, 57, 100
3, 856470, Note_on_c, 0, 57, 0
3, 856470, Note_on_c, 0, 60, 100
3, 856500, Note_on_c, 0, 60, 0
3, 856500, Note_on_c, 0, 64, 100
3, 856560, Note_on_c, 0, 64, 0
3, 856560, Note_on_c, 0, 56, 100
3, 856590, Note_on_c, 0, 56, 0
3, 856590, Note_on_c, 0, 57, 100
3, 856650, Note_on_c, 0, 57, 0
3, 856650, Note_on_c, 0, 65, 100
3, 856680, Note_on_c, 0, 65, 0
3, 856680, Note_on_c, 0, 55, 100
3, 856740, Note_on_c, 0, 55, 0
3, 856740, Note_on_c, 0, 64, 100
3, 856770, Note_on_c, 0, 64, 0
3, 856770, Note_on_c, 0, 53, 100
3, 856830, Note_on_c, 0, 53, 0
3, 856830, Note_on_c, 0, 62, 100
3, 856860, Note_on_c, 0, 62, 0
3, 856860, Note_on_c, 0, 52, 100
3, 856890, Note_on_c, 0, 52, 0
3, 856890, Note_on_c, 0, 59, 100
3, 856920, Note_on_c, 0, 59, 0
3, 856920, Note_on_c, 0, 62, 100
3, 856950, Note_on_c, 0, 62, 0
3, 856950, Note_on_c, 0, 60, 100
3, 856980, Note_on_c, 0, 60, 0
3, 856980, Note_on_c, 0, 59, 100
3, 857010, Note_on_c, 0, 59, 0
3, 857010, Note_on_c, 0, 57, 100
3, 857040, Note_on_c, 0, 57, 0
3, 857040, Note_on_c, 0, 56, 100
3, 857070, Note_on_c, 0, 56, 0
3, 857070, Note_on_c, 0, 62, 100
3, 857100, Note_on_c, 0, 62, 0
3, 857100, Note_on_c, 0, 65, 100
3, 857130, Note_on_c, 0, 65, 0
3, 857130, Note_on_c, 0, 64, 100
3, 857160, Note_on_c, 0, 64, 0
3, 857160, Note_on_c, 0, 62, 100
3, 857190, Note_on_c, 0, 62, 0
3, 857190, Note_on_c, 0, 60, 100
3, 857220, Note_on_c, 0, 60, 0
3, 857220, Note_on_c, 0, 59, 100
3, 857250, Note_on_c, 0, 59, 0
3, 857250, Note_on_c, 0, 57, 100
3, 857280, Note_on_c, 0, 57, 0
3, 857280, Note_on_c, 0, 56, 100
3, 857310, Note_on_c, 0, 56, 0
3, 857310, Note_on_c, 0, 57, 100
3, 857340, Note_on_c, 0, 57, 0
3, 857340, Note_on_c, 0, 52, 100
3, 857370, Note_on_c, 0, 52, 0
3, 857370, Note_on_c, 0, 59, 100
3, 857400, Note_on_c, 0, 59, 0
3, 857400, Note_on_c, 0, 60, 100
3, 857430, Note_on_c, 0, 60, 0
3, 857430, Note_on_c, 0, 59, 100
3, 857460, Note_on_c, 0, 59, 0
3, 857460, Note_on_c, 0, 57, 100
3, 857490, Note_on_c, 0, 57, 0
3, 857490, Note_on_c, 0, 64, 100
3, 857610, Note_on_c, 0, 64, 0
3, 857610, Note_on_c, 0, 59, 100
3, 857640, Note_on_c, 0, 59, 0
3, 857640, Note_on_c, 0, 62, 100
3, 857670, Note_on_c, 0, 62, 0
3, 857670, Note_on_c, 0, 62, 100
3, 857700, Note_on_c, 0, 62, 0
3, 857700, Note_on_c, 0, 60, 100
3, 857730, Note_on_c, 0, 60, 0
3, 857730, Note_on_c, 0, 69, 100
3, 857753, Note_on_c, 0, 69, 0
3, 857760, Note_on_c, 0, 60, 100
3, 857790, Note_on_c, 0, 60, 0
3, 857790, Note_on_c, 0, 59, 100
3, 857820, Note_on_c, 0, 59, 0
3, 857820, Note_on_c, 0, 67, 100
3, 857843, Note_on_c, 0, 67, 0
3, 857850, Note_on_c, 0, 59, 100
3, 857880, Note_on_c, 0, 59, 0
3, 857880, Note_on_c, 0, 57, 100
3, 857910, Note_on_c, 0, 57, 0
3, 857910, Note_on_c, 0, 65, 100
3, 857933, Note_on_c, 0, 65, 0
3, 857940, Note_on_c, 0, 57, 100
3, 857970, Note_on_c, 0, 57, 0
3, 857970, Note_on_c, 0, 56, 100
3, 858000, Note_on_c, 0, 56, 0
3, 858000, Note_on_c, 0, 59, 100
3, 858023, Note_on_c, 0, 59, 0
3, 858030, Note_on_c, 0, 52, 100
3, 858090, Note_on_c, 0, 52, 0
3, 858300, Note_on_c, 0, 62, 100
3, 858420, Note_on_c, 0, 62, 0
3, 858420, Note_on_c, 0, 60, 100
3, 858450, Note_on_c, 0, 60, 0
3, 858450, Note_on_c, 0, 62, 100
3, 858480, Note_on_c, 0, 62, 0
3, 858480, Note_on_c, 0, 64, 100
3, 858510, Note_on_c, 0, 64, 0
3, 858510, Note_on_c, 0, 62, 100
3, 858540, Note_on_c, 0, 62, 0
3, 858540, Note_on_c, 0, 60, 100
3, 858570, Note_on_c, 0, 60, 0
3, 858570, Note_on_c, 0, 59, 100
3, 858600, Note_on_c, 0, 59, 0
3, 858600, Note_on_c, 0, 60, 100
3, 858630, Note_on_c, 0, 60, 0
3, 858630, Note_on_c, 0, 62, 100
3, 858660, Note_on_c, 0, 62, 0
3, 858660, Note_on_c, 0, 64, 100
3, 858690, Note_on_c, 0, 64, 0
3, 858690, Note_on_c, 0, 66, 100
3, 858720, Note_on_c, 0, 66, 0
3, 858720, Note_on_c, 0, 68, 100
3, 858750, Note_on_c, 0, 68, 0
3, 858750, Note_on_c, 0, 69, 100
3, 858780, Note_on_c, 0, 69, 0
3, 858780, Note_on_c, 0, 64, 100
3, 858810, Note_on_c, 0, 64, 0
3, 858810, Note_on_c, 0, 60, 100
3, 858840, Note_on_c, 0, 60, 0
3, 858840, Note_on_c, 0, 62, 100
3, 858870, Note_on_c, 0, 62, 0
3, 858870, Note_on_c, 0, 67, 100
3, 858900, Note_on_c, 0, 67, 0
3, 858900, Note_on_c, 0, 59, 100
3, 858930, Note_on_c, 0, 59, 0
3, 858930, Note_on_c, 0, 60, 100
3, 858960, Note_on_c, 0, 60, 0
3, 858960, Note_on_c, 0, 65, 100
3, 858990, Note_on_c, 0, 65, 0
3, 858990, Note_on_c, 0, 57, 100
3, 859020, Note_on_c, 0, 57, 0
3, 859020, Note_on_c, 0, 59, 100
3, 859050, Note_on_c, 0, 59, 0
3, 859050, Note_on_c, 0, 64, 100
3, 859080, Note_on_c, 0, 64, 0
3, 859080, Note_on_c, 0, 62, 100
3, 859110, Note_on_c, 0, 62, 0
3, 859110, Note_on_c, 0, 60, 100
3, 859140, Note_on_c, 0, 60, 0
3, 859140, Note_on_c, 0, 59, 100
3, 859170, Note_on_c, 0, 59, 0
3, 859170, Note_on_c, 0, 57, 100
3, 859200, Note_on_c, 0, 57, 0
3, 859200, Note_on_c, 0, 59, 100
3, 859230, Note_on_c, 0, 59, 0
3, 859230, Note_on_c, 0, 57, 100
3, 859260, Note_on_c, 0, 57, 0
3, 859260, Note_on_c, 0, 56, 100
3, 859290, Note_on_c, 0, 56, 0
3, 859290, Note_on_c, 0, 57, 100
3, 859320, Note_on_c, 0, 57, 0
3, 859320, Note_on_c, 0, 56, 100
3, 859350, Note_on_c, 0, 56, 0
3, 859350, Note_on_c, 0, 54, 100
3, 859380, Note_on_c, 0, 54, 0
3, 859380, Note_on_c, 0, 56, 100
3, 859410, Note_on_c, 0, 56, 0
3, 859410, Note_on_c, 0, 52, 100
3, 859440, Note_on_c, 0, 52, 0
3, 859440, Note_on_c, 0, 56, 100
3, 859470, Note_on_c, 0, 56, 0
3, 859470, Note_on_c, 0, 59, 100
3, 859500, Note_on_c, 0, 59, 0
3, 859500, Note_on_c, 0, 64, 100
3, 859530, Note_on_c, 0, 64, 0
3, 859530, Note_on_c, 0, 62, 100
3, 859560, Note_on_c, 0, 62, 0
3, 859560, Note_on_c, 0, 60, 100
3, 859590, Note_on_c, 0, 60, 0
3, 859590, Note_on_c, 0, 59, 100
3, 859620, Note_on_c, 0, 59, 0
3, 859620, Note_on_c, 0, 57, 100
3, 859650, Note_on_c, 0, 57, 0
3, 859650, Note_on_c, 0, 62, 100
3, 859770, Note_on_c, 0, 62, 0
3, 859770, Note_on_c, 0, 60, 100
3, 859800, Note_on_c, 0, 60, 0
3, 859800, Note_on_c, 0, 59, 100
3, 859830, Note_on_c, 0, 59, 0
3, 859830, Note_on_c, 0, 60, 100
3, 859890, Note_on_c, 0, 60, 0
3, 859920, Note_on_c, 0, 65, 100
3, 859980, Note_on_c, 0, 65, 0
3, 860010, Note_on_c, 0, 64, 100
3, 860070, Note_on_c, 0, 64, 0
3, 860100, Note_on_c, 0, 62, 100
3, 860160, Note_on_c, 0, 62, 0
3, 860160, Note_on_c, 0, 56, 100
3, 860190, Note_on_c, 0, 56, 0
3, 860190, Note_on_c, 0, 57, 100
3, 860250, Note_on_c, 0, 57, 0
3, 860250, Note_on_c, 0, 60, 100
3, 860280, Note_on_c, 0, 60, 0
3, 860280, Note_on_c, 0, 55, 100
3, 860295, Note_on_c, 0, 55, 0
3, 860295, Note_on_c, 0, 53, 100
3, 860310, Note_on_c, 0, 53, 0
3, 860310, Note_on_c, 0, 55, 100
3, 860325, Note_on_c, 0, 55, 0
3, 860325, Note_on_c, 0, 53, 100
3, 860340, Note_on_c, 0, 53, 0
3, 860340, Note_on_c, 0, 52, 100
3, 860355, Note_on_c, 0, 52, 0
3, 860355, Note_on_c, 0, 53, 100
3, 860370, Note_on_c, 0, 53, 0
3, 860370, Note_on_c, 0, 52, 100
3, 860430, Note_on_c, 0, 52, 0
3, 860670, Note_on_c, 0, 50, 100
3, 860700, Note_on_c, 0, 50, 0
3, 860700, Note_on_c, 0, 52, 100
3, 860730, Note_on_c, 0, 52, 0
3, 860730, Note_on_c, 0, 53, 100
3, 860760, Note_on_c, 0, 53, 0
3, 860760, Note_on_c, 0, 55, 100
3, 860790, Note_on_c, 0, 55, 0
3, 860790, Note_on_c, 0, 53, 100
3, 860820, Note_on_c, 0, 53, 0
3, 860820, Note_on_c, 0, 52, 100
3, 860940, Note_on_c, 0, 52, 0
3, 860940, Note_on_c, 0, 53, 100
3, 860970, Note_on_c, 0, 53, 0
3, 860970, Note_on_c, 0, 55, 100
3, 861000, Note_on_c, 0, 55, 0
3, 861000, Note_on_c, 0, 57, 100
3, 861030, Note_on_c, 0, 57, 0
3, 861030, Note_on_c, 0, 58, 100
3, 861060, Note_on_c, 0, 58, 0
3, 861060, Note_on_c, 0, 57, 100
3, 861090, Note_on_c, 0, 57, 0
3, 861090, Note_on_c, 0, 55, 100
3, 861120, Note_on_c, 0, 55, 0
3, 861120, Note_on_c, 0, 57, 100
3, 861150, Note_on_c, 0, 57, 0
3, 861150, Note_on_c, 0, 55, 100
3, 861180, Note_on_c, 0, 55, 0
3, 861180, Note_on_c, 0, 53, 100
3, 861210, Note_on_c, 0, 53, 0
3, 861210, Note_on_c, 0, 55, 100
3, 861240, Note_on_c, 0, 55, 0
3, 861240, Note_on_c, 0, 53, 100
3, 861270, Note_on_c, 0, 53, 0
3, 861270, Note_on_c, 0, 52, 100
3, 861300, Note_on_c, 0, 52, 0
3, 861300, Note_on_c, 0, 53, 100
3, 861330, Note_on_c, 0, 53, 0
3, 861330, Note_on_c, 0, 52, 100
3, 861360, Note_on_c, 0, 52, 0
3, 861360, Note_on_c, 0, 50, 100
3, 861390, Note_on_c, 0, 50, 0
3, 861390, Note_on_c, 0, 52, 100
3, 861420, Note_on_c, 0, 52, 0
3, 861420, Note_on_c, 0, 50, 100
3, 861450, Note_on_c, 0, 50, 0
3, 861450, Note_on_c, 0, 49, 100
3, 861510, Note_on_c, 0, 49, 0
3, 861540, Note_on_c, 0, 50, 100
3, 861600, Note_on_c, 0, 50, 0
3, 861630, Note_on_c, 0, 52, 100
3, 861690, Note_on_c, 0, 52, 0
3, 861720, Note_on_c, 0, 53, 100
3, 861870, Note_on_c, 0, 53, 0
3, 861870, Note_on_c, 0, 57, 100
3, 861900, Note_on_c, 0, 57, 0
3, 861900, Note_on_c, 0, 57, 100
3, 861915, Note_on_c, 0, 57, 0
3, 861915, Note_on_c, 0, 55, 100
3, 861930, Note_on_c, 0, 55, 0
3, 861930, Note_on_c, 0, 57, 100
3, 861945, Note_on_c, 0, 57, 0
3, 861945, Note_on_c, 0, 55, 100
3, 861960, Note_on_c, 0, 55, 0
3, 861960, Note_on_c, 0, 53, 100
3, 861990, Note_on_c, 0, 53, 0
3, 861990, Note_on_c, 0, 55, 100
3, 862020, Note_on_c, 0, 55, 0
3, 862020, Note_on_c, 0, 53, 100
3, 862050, Note_on_c, 0, 53, 0
3, 862050, Note_on_c, 0, 52, 100
3, 862080, Note_on_c, 0, 52, 0
3, 862080, Note_on_c, 0, 62, 100
3, 862095, Note_on_c, 0, 62, 0
3, 862095, Note_on_c, 0, 61, 100
3, 862110, Note_on_c, 0, 61, 0
3, 862110, Note_on_c, 0, 58, 100
3, 862125, Note_on_c, 0, 58, 0
3, 862125, Note_on_c, 0, 61, 100
3, 862140, Note_on_c, 0, 61, 0
3, 862140, Note_on_c, 0, 62, 100
3, 862155, Note_on_c, 0, 62, 0
3, 862155, Note_on_c, 0, 61, 100
3, 862170, Note_on_c, 0, 61, 0
3, 862170, Note_on_c, 0, 62, 100
3, 862185, Note_on_c, 0, 62, 0
3, 862185, Note_on_c, 0, 61, 100
3, 862200, Note_on_c, 0, 61, 0
3, 862200, Note_on_c, 0, 62, 100
3, 862215, Note_on_c, 0, 62, 0
3, 862215, Note_on_c, 0, 61, 100
3, 862230, Note_on_c, 0, 61, 0
3, 862230, Note_on_c, 0, 58, 100
3, 862245, Note_on_c, 0, 58, 0
3, 862245, Note_on_c, 0, 61, 100
3, 862260, Note_on_c, 0, 61, 0
3, 862260, Note_on_c, 0, 62, 100
3, 862290, Note_on_c, 0, 62, 0
3, 862290, Note_on_c, 0, 58, 100
3, 862320, Note_on_c, 0, 58, 0
3, 862320, Note_on_c, 0, 67, 100
3, 862350, Note_on_c, 0, 67, 0
3, 862350, Note_on_c, 0, 60, 100
3, 862380, Note_on_c, 0, 60, 0
3, 862380, Note_on_c, 0, 57, 100
3, 862410, Note_on_c, 0, 57, 0
3, 862410, Note_on_c, 0, 65, 100
3, 862440, Note_on_c, 0, 65, 0
3, 862440, Note_on_c, 0, 58, 100
3, 862470, Note_on_c, 0, 58, 0
3, 862470, Note_on_c, 0, 55, 100
3, 862500, Note_on_c, 0, 55, 0
3, 862500, Note_on_c, 0, 64, 100
3, 862530, Note_on_c, 0, 64, 0
3, 862530, Note_on_c, 0, 57, 100
3, 862560, Note_on_c, 0, 57, 0
3, 862560, Note_on_c, 0, 55, 100
3, 862590, Note_on_c, 0, 55, 0
3, 862590, Note_on_c, 0, 64, 100
3, 862620, Note_on_c, 0, 64, 0
3, 862620, Note_on_c, 0, 57, 100
3, 862650, Note_on_c, 0, 57, 0
3, 862650, Note_on_c, 0, 53, 100
3, 862680, Note_on_c, 0, 53, 0
3, 862680, Note_on_c, 0, 62, 100
3, 862710, Note_on_c, 0, 62, 0
3, 862710, Note_on_c, 0, 55, 100
3, 862740, Note_on_c, 0, 55, 0
3, 862740, Note_on_c, 0, 52, 100
3, 862770, Note_on_c, 0, 52, 0
3, 862770, Note_on_c, 0, 61, 100
3, 862800, Note_on_c, 0, 61, 0
3, 862800, Note_on_c, 0, 62, 100
3, 862830, Note_on_c, 0, 62, 0
3, 862830, Note_on_c, 0, 57, 100
3, 862860, Note_on_c, 0, 57, 0
3, 862860, Note_on_c, 0, 53, 100
3, 862890, Note_on_c, 0, 53, 0
3, 862890, Note_on_c, 0, 50, 100
3, 862920, Note_on_c, 0, 50, 0
3, 862920, Note_on_c, 0, 52, 100
3, 862950, Note_on_c, 0, 52, 0
3, 862950, Note_on_c, 0, 53, 100
3, 862980, Note_on_c, 0, 53, 0
3, 862980, Note_on_c, 0, 52, 100
3, 863010, Note_on_c, 0, 52, 0
3, 863010, Note_on_c, 0, 53, 100
3, 863040, Note_on_c, 0, 53, 0
3, 863040, Note_on_c, 0, 50, 100
3, 863070, Note_on_c, 0, 50, 0
3, 863070, Note_on_c, 0, 52, 100
3, 863190, Note_on_c, 0, 52, 0
3, 863190, Note_on_c, 0, 53, 100
3, 863220, Note_on_c, 0, 53, 0
3, 863220, Note_on_c, 0, 55, 100
3, 863250, Note_on_c, 0, 55, 0
3, 863250, Note_on_c, 0, 53, 100
3, 863280, Note_on_c, 0, 53, 0
3, 863280, Note_on_c, 0, 55, 100
3, 863310, Note_on_c, 0, 55, 0
3, 863310, Note_on_c, 0, 52, 100
3, 863340, Note_on_c, 0, 52, 0
3, 863340, Note_on_c, 0, 53, 100
3, 863400, Note_on_c, 0, 53, 0
3, 863430, Note_on_c, 0, 52, 100
3, 863490, Note_on_c, 0, 52, 0
3, 863520, Note_on_c, 0, 50, 100
3, 863580, Note_on_c, 0, 50, 0
3, 863610, Note_on_c, 0, 49, 100
3, 863670, Note_on_c, 0, 49, 0
3, 863700, Note_on_c, 0, 50, 100
3, 863760, Note_on_c, 0, 50, 0
3, 863790, Note_on_c, 0, 52, 100
3, 863850, Note_on_c, 0, 52, 0
3, 863880, Note_on_c, 0, 53, 100
3, 863910, Note_on_c, 0, 53, 0
3, 863910, Note_on_c, 0, 52, 100
3, 863940, Note_on_c, 0, 52, 0
3, 863940, Note_on_c, 0, 50, 100
3, 863970, Note_on_c, 0, 50, 0
3, 863970, Note_on_c, 0, 58, 100
3, 864000, Note_on_c, 0, 58, 0
3, 864000, Note_on_c, 0, 57, 100
3, 864030, Note_on_c, 0, 57, 0
3, 864030, Note_on_c, 0, 55, 100
3, 864060, Note_on_c, 0, 55, 0
3, 864060, Note_on_c, 0, 61, 100
3, 864120, Note_on_c, 0, 61, 0
3, 864180, Note_on_c, 0, 55, 100
3, 864210, Note_on_c, 0, 55, 0
3, 864210, Note_on_c, 0, 50, 100
3, 864240, Note_on_c, 0, 50, 0
3, 864240, Note_on_c, 0, 49, 100
3, 864270, Note_on_c, 0, 49, 0
3, 864270, Note_on_c, 0, 50, 100
3, 864300, Note_on_c, 0, 50, 0
3, 864300, Note_on_c, 0, 52, 100
3, 864330, Note_on_c, 0, 52, 0
3, 864330, Note_on_c, 0, 45, 100
3, 864360, Note_on_c, 0, 45, 0
3, 864360, Note_on_c, 0, 47, 100
3, 864390, Note_on_c, 0, 47, 0
3, 864390, Note_on_c, 0, 49, 100
3, 864420, Note_on_c, 0, 49, 0
3, 864420, Note_on_c, 0, 50, 100
3, 864450, Note_on_c, 0, 50, 0
3, 864450, Note_on_c, 0, 43, 100
3, 864480, Note_on_c, 0, 43, 0
3, 864480, Note_on_c, 0, 46, 100
3, 864510, Note_on_c, 0, 46, 0
3, 864510, Note_on_c, 0, 48, 100
3, 864540, Note_on_c, 0, 48, 0
3, 864540, Note_on_c, 0, 41, 100
3, 864570, Note_on_c, 0, 41, 0
3, 864570, Note_on_c, 0, 45, 100
3, 864600, Note_on_c, 0, 45, 0
3, 864600, Note_on_c, 0, 46, 100
3, 864630, Note_on_c, 0, 46, 0
3, 864630, Note_on_c, 0, 40, 100
3, 864660, Note_on_c, 0, 40, 0
3, 864660, Note_on_c, 0, 43, 100
3, 864690, Note_on_c, 0, 43, 0
3, 864690, Note_on_c, 0, 45, 100
3, 864720, Note_on_c, 0, 45, 0
3, 864720, Note_on_c, 0, 57, 100
3, 864750, Note_on_c, 0, 57, 0
3, 864750, Note_on_c, 0, 55, 100
3, 864780, Note_on_c, 0, 55, 0
3, 864780, Note_on_c, 0, 53, 100
3, 864810, Note_on_c, 0, 53, 0
3, 864810, Note_on_c, 0, 62, 100
3, 864840, Note_on_c, 0, 62, 0
3, 864840, Note_on_c, 0, 60, 100
3, 864870, Note_on_c, 0, 60, 0
3, 864870, Note_on_c, 0, 58, 100
3, 864900, Note_on_c, 0, 58, 0
3, 864900, Note_on_c, 0, 57, 100
3, 864930, Note_on_c, 0, 57, 0
3, 864930, Note_on_c, 0, 58, 100
3, 864960, Note_on_c, 0, 58, 0
3, 864960, Note_on_c, 0, 57, 100
3, 865050, Note_on_c, 0, 57, 0
3, 865050, Note_on_c, 0, 50, 100
3, 865080, Note_on_c, 0, 50, 0
3, 865080, Note_on_c, 0, 49, 100
3, 865110, Note_on_c, 0, 49, 0
3, 865110, Note_on_c, 0, 50, 100
3, 865140, Note_on_c, 0, 50, 0
3, 865140, Note_on_c, 0, 52, 100
3, 865170, Note_on_c, 0, 52, 0
3, 865170, Note_on_c, 0, 50, 100
3, 865200, Note_on_c, 0, 50, 0
3, 865200, Note_on_c, 0, 52, 100
3, 865230, Note_on_c, 0, 52, 0
3, 865230, Note_on_c, 0, 53, 100
3, 865260, Note_on_c, 0, 53, 0
3, 865260, Note_on_c, 0, 52, 100
3, 865290, Note_on_c, 0, 52, 0
3, 865290, Note_on_c, 0, 53, 100
3, 865320, Note_on_c, 0, 53, 0
3, 865320, Note_on_c, 0, 55, 100
3, 865350, Note_on_c, 0, 55, 0
3, 865350, Note_on_c, 0, 53, 100
3, 865380, Note_on_c, 0, 53, 0
3, 865380, Note_on_c, 0, 55, 100
3, 865410, Note_on_c, 0, 55, 0
3, 865410, Note_on_c, 0, 57, 100
3, 865440, Note_on_c, 0, 57, 0
3, 865440, Note_on_c, 0, 55, 100
3, 865470, Note_on_c, 0, 55, 0
3, 865470, Note_on_c, 0, 57, 100
3, 865500, Note_on_c, 0, 57, 0
3, 865500, Note_on_c, 0, 58, 100
3, 865560, Note_on_c, 0, 58, 0
3, 865590, Note_on_c, 0, 57, 100
3, 865650, Note_on_c, 0, 57, 0
3, 865680, Note_on_c, 0, 55, 100
3, 865740, Note_on_c, 0, 55, 0
3, 865770, Note_on_c, 0, 55, 100
3, 865800, Note_on_c, 0, 55, 0
3, 865800, Note_on_c, 0, 53, 100
3, 865920, Note_on_c, 0, 53, 0
3, 865920, Note_on_c, 0, 52, 100
3, 865950, Note_on_c, 0, 52, 0
3, 865950, Note_on_c, 0, 53, 100
3, 866010, Note_on_c, 0, 53, 0
3, 866010, Note_on_c, 0, 55, 100
3, 866040, Note_on_c, 0, 55, 0
3, 866040, Note_on_c, 0, 57, 100
3, 866100, Note_on_c, 0, 57, 0
3, 866100, Note_on_c, 0, 67, 100
3, 866130, Note_on_c, 0, 67, 0
3, 866130, Note_on_c, 0, 65, 100
3, 866190, Note_on_c, 0, 65, 0
3, 866190, Note_on_c, 0, 57, 100
3, 866220, Note_on_c, 0, 57, 0
3, 866220, Note_on_c, 0, 55, 100
3, 866280, Note_on_c, 0, 55, 0
3, 866280, Note_on_c, 0, 64, 100
3, 866310, Note_on_c, 0, 64, 0
3, 866310, Note_on_c, 0, 62, 100
3, 866370, Note_on_c, 0, 62, 0
3, 866370, Note_on_c, 0, 53, 100
3, 866400, Note_on_c, 0, 53, 0
3, 866400, Note_on_c, 0, 52, 100
3, 866460, Note_on_c, 0, 52, 0
3, 866460, Note_on_c, 0, 62, 100
3, 866490, Note_on_c, 0, 62, 0
3, 866490, Note_on_c, 0, 61, 100
3, 866550, Note_on_c, 0, 61, 0
3, 866550, Note_on_c, 0, 52, 100
3, 866580, Note_on_c, 0, 52, 0
3, 866580, Note_on_c, 0, 52, 100
3, 866610, Note_on_c, 0, 52, 0
3, 866610, Note_on_c, 0, 50, 100
3, 866640, Note_on_c, 0, 50, 0
3, 866640, Note_on_c, 0, 49, 100
3, 866670, Note_on_c, 0, 49, 0
3, 866670, Note_on_c, 0, 50, 100
3, 866700, Note_on_c, 0, 50, 0
3, 866700, Note_on_c, 0, 52, 100
3, 866730, Note_on_c, 0, 52, 0
3, 866730, Note_on_c, 0, 53, 100
3, 866760, Note_on_c, 0, 53, 0
3, 866760, Note_on_c, 0, 55, 100
3, 866790, Note_on_c, 0, 55, 0
3, 866790, Note_on_c, 0, 57, 100
3, 866820, Note_on_c, 0, 57, 0
3, 866820, Note_on_c, 0, 58, 100
3, 866850, Note_on_c, 0, 58, 0
3, 866850, Note_on_c, 0, 58, 100
3, 866880, Note_on_c, 0, 58, 0
3, 866880, Note_on_c, 0, 57, 100
3, 866910, Note_on_c, 0, 57, 0
3, 866910, Note_on_c, 0, 55, 100
3, 866940, Note_on_c, 0, 55, 0
3, 866940, Note_on_c, 0, 57, 100
3, 866970, Note_on_c, 0, 57, 0
3, 866970, Note_on_c, 0, 59, 100
3, 867000, Note_on_c, 0, 59, 0
3, 867000, Note_on_c, 0, 61, 100
3, 867030, Note_on_c, 0, 61, 0
3, 867030, Note_on_c, 0, 62, 100
3, 867060, Note_on_c, 0, 62, 0
3, 867060, Note_on_c, 0, 64, 100
3, 867090, Note_on_c, 0, 64, 0
3, 867090, Note_on_c, 0, 65, 100
3, 867120, Note_on_c, 0, 65, 0
3, 867120, Note_on_c, 0, 65, 100
3, 867150, Note_on_c, 0, 65, 0
3, 867150, Note_on_c, 0, 62, 100
3, 867180, Note_on_c, 0, 62, 0
3, 867180, Note_on_c, 0, 64, 100
3, 867210, Note_on_c, 0, 64, 0
3, 867210, Note_on_c, 0, 64, 100
3, 867240, Note_on_c, 0, 64, 0
3, 867240, Note_on_c, 0, 61, 100
3, 867270, Note_on_c, 0, 61, 0
3, 867270, Note_on_c, 0, 62, 100
3, 867300, Note_on_c, 0, 62, 0
3, 867300, Note_on_c, 0, 62, 100
3, 867330, Note_on_c, 0, 62, 0
3, 867330, Note_on_c, 0, 59, 100
3, 867360, Note_on_c, 0, 59, 0
3, 867360, Note_on_c, 0, 60, 100
3, 867390, Note_on_c, 0, 60, 0
3, 867390, Note_on_c, 0, 60, 100
3, 867420, Note_on_c, 0, 60, 0
3, 867420, Note_on_c, 0, 57, 100
3, 867450, Note_on_c, 0, 57, 0
3, 867450, Note_on_c, 0, 58, 100
3, 867480, Note_on_c, 0, 58, 0
3, 867480, Note_on_c, 0, 58, 100
3, 867510, Note_on_c, 0, 58, 0
3, 867510, Note_on_c, 0, 55, 100
3, 867540, Note_on_c, 0, 55, 0
3, 867540, Note_on_c, 0, 57, 100
3, 867570, Note_on_c, 0, 57, 0
3, 867570, Note_on_c, 0, 57, 100
3, 867600, Note_on_c, 0, 57, 0
3, 867600, Note_on_c, 0, 53, 100
3, 867630, Note_on_c, 0, 53, 0
3, 867630, Note_on_c, 0, 55, 100
3, 867660, Note_on_c, 0, 55, 0
3, 867660, Note_on_c, 0, 55, 100
3, 867690, Note_on_c, 0, 55, 0
3, 867690, Note_on_c, 0, 53, 100
3, 867780, Note_on_c, 0, 53, 0
3, 867780, Note_on_c, 0, 55, 100
3, 867810, Note_on_c, 0, 55, 0
3, 867810, Note_on_c, 0, 57, 100
3, 867840, Note_on_c, 0, 57, 0
3, 867840, Note_on_c, 0, 58, 100
3, 867870, Note_on_c, 0, 58, 0
3, 867870, Note_on_c, 0, 57, 100
3, 867900, Note_on_c, 0, 57, 0
3, 867900, Note_on_c, 0, 55, 100
3, 867930, Note_on_c, 0, 55, 0
3, 867930, Note_on_c, 0, 62, 100
3, 867960, Note_on_c, 0, 62, 0
3, 867960, Note_on_c, 0, 61, 100
3, 868050, Note_on_c, 0, 61, 0
3, 868050, Note_on_c, 0, 62, 100
3, 868080, Note_on_c, 0, 62, 0
3, 868080, Note_on_c, 0, 64, 100
3, 868110, Note_on_c, 0, 64, 0
3, 868110, Note_on_c, 0, 65, 100
3, 868140, Note_on_c, 0, 65, 0
3, 868140, Note_on_c, 0, 64, 100
3, 868170, Note_on_c, 0, 64, 0
3, 868170, Note_on_c, 0, 62, 100
3, 868200, Note_on_c, 0, 62, 0
3, 868200, Note_on_c, 0, 69, 100
3, 868215, Note_on_c, 0, 69, 0
3, 868215, Note_on_c, 0, 68, 100
3, 868230, Note_on_c, 0, 68, 0
3, 868230, Note_on_c, 0, 66, 100
3, 868245, Note_on_c, 0, 66, 0
3, 868245, Note_on_c, 0, 68, 100
3, 868260, Note_on_c, 0, 68, 0
3, 868260, Note_on_c, 0, 69, 100
3, 868275, Note_on_c, 0, 69, 0
3, 868275, Note_on_c, 0, 68, 100
3, 868290, Note_on_c, 0, 68, 0
3, 868290, Note_on_c, 0, 69, 100
3, 868305, Note_on_c, 0, 69, 0
3, 868305, Note_on_c, 0, 68, 100
3, 868320, Note_on_c, 0, 68, 0
3, 868320, Note_on_c, 0, 69, 100
3, 868335, Note_on_c, 0, 69, 0
3, 868335, Note_on_c, 0, 68, 100
3, 868350, Note_on_c, 0, 68, 0
3, 868350, Note_on_c, 0, 69, 100
3, 868365, Note_on_c, 0, 69, 0
3, 868365, Note_on_c, 0, 68, 100
3, 868380, Note_on_c, 0, 68, 0
3, 868380, Note_on_c, 0, 69, 100
3, 868395, Note_on_c, 0, 69, 0
3, 868395, Note_on_c, 0, 68, 100
3, 868410, Note_on_c, 0, 68, 0
3, 868410, Note_on_c, 0, 69, 100
3, 868425, Note_on_c, 0, 69, 0
3, 868425, Note_on_c, 0, 68, 100
3, 868440, Note_on_c, 0, 68, 0
3, 868440, Note_on_c, 0, 66, 100
3, 868455, Note_on_c, 0, 66, 0
3, 868455, Note_on_c, 0, 68, 100
3, 868470, Note_on_c, 0, 68, 0
3, 868470, Note_on_c, 0, 69, 100
3, 868530, Note_on_c, 0, 69, 0
3, 868620, Note_on_c, 0, 61, 100
3, 868650, Note_on_c, 0, 61, 0
3, 868650, Note_on_c, 0, 62, 100
3, 868710, Note_on_c, 0, 62, 0
3, 868710, Note_on_c, 0, 64, 100
3, 868740, Note_on_c, 0, 64, 0
3, 868740, Note_on_c, 0, 57, 100
3, 868770, Note_on_c, 0, 57, 0
3, 868770, Note_on_c, 0, 59, 100
3, 868800, Note_on_c, 0, 59, 0
3, 868800, Note_on_c, 0, 61, 100
3, 868830, Note_on_c, 0, 61, 0
3, 868830, Note_on_c, 0, 62, 100
3, 868860, Note_on_c, 0, 62, 0
3, 868860, Note_on_c, 0, 64, 100
3, 868890, Note_on_c, 0, 64, 0
3, 868890, Note_on_c, 0, 65, 100
3, 868920, Note_on_c, 0, 65, 0
3, 868920, Note_on_c, 0, 55, 100
3, 869040, Note_on_c, 0, 55, 0
3, 869040, Note_on_c, 0, 67, 100
3, 869070, Note_on_c, 0, 67, 0
3, 869070, Note_on_c, 0, 65, 100
3, 869100, Note_on_c, 0, 65, 0
3, 869100, Note_on_c, 0, 64, 100
3, 869130, Note_on_c, 0, 64, 0
3, 869130, Note_on_c, 0, 62, 100
3, 869160, Note_on_c, 0, 62, 0
3, 869160, Note_on_c, 0, 61, 100
3, 869190, Note_on_c, 0, 61, 0
3, 869190, Note_on_c, 0, 62, 100
3, 869310, Note_on_c, 0, 62, 0
3, 869310, Note_on_c, 0, 59, 100
3, 869340, Note_on_c, 0, 59, 0
3, 869340, Note_on_c, 0, 61, 100
3, 869370, Note_on_c, 0, 61, 0
3, 869370, Note_on_c, 0, 62, 100
3, 869400, Note_on_c, 0, 62, 0
3, 869400, Note_on_c, 0, 64, 100
3, 869430, Note_on_c, 0, 64, 0
3, 869430, Note_on_c, 0, 65, 100
3, 869460, Note_on_c, 0, 65, 0
3, 869460, Note_on_c, 0, 64, 100
3, 869490, Note_on_c, 0, 64, 0
3, 869490, Note_on_c, 0, 65, 100
3, 869520, Note_on_c, 0, 65, 0
3, 869520, Note_on_c, 0, 62, 100
3, 869550, Note_on_c, 0, 62, 0
3, 869550, Note_on_c, 0, 61, 100
3, 869580, Note_on_c, 0, 61, 0
3, 869580, Note_on_c, 0, 62, 100
3, 869610, Note_on_c, 0, 62, 0
3, 869610, Note_on_c, 0, 64, 100
3, 869640, Note_on_c, 0, 64, 0
3, 869640, Note_on_c, 0, 57, 100
3, 869760, Note_on_c, 0, 57, 0
3, 869760, Note_on_c, 0, 58, 100
3, 869790, Note_on_c, 0, 58, 0
3, 869790, Note_on_c, 0, 55, 100
3, 869820, Note_on_c, 0, 55, 0
3, 869820, Note_on_c, 0, 53, 100
3, 869850, Note_on_c, 0, 53, 0
3, 869850, Note_on_c, 0, 55, 100
3, 869880, Note_on_c, 0, 55, 0
3, 869880, Note_on_c, 0, 52, 100
3, 869910, Note_on_c, 0, 52, 0
3, 869910, Note_on_c, 0, 53, 100
3, 869940, Note_on_c, 0, 53, 0
3, 869940, Note_on_c, 0, 57, 100
3, 869970, Note_on_c, 0, 57, 0
3, 869970, Note_on_c, 0, 62, 100
3, 870000, Note_on_c, 0, 62, 0
3, 870000, Note_on_c, 0, 60, 100
3, 870030, Note_on_c, 0, 60, 0
3, 870030, Note_on_c, 0, 58, 100
3, 870060, Note_on_c, 0, 58, 0
3, 870060, Note_on_c, 0, 57, 100
3, 870090, Note_on_c, 0, 57, 0
3, 870090, Note_on_c, 0, 58, 100
3, 870120, Note_on_c, 0, 58, 0
3, 870120, Note_on_c, 0, 62, 100
3, 870150, Note_on_c, 0, 62, 0
3, 870150, Note_on_c, 0, 67, 100
3, 870180, Note_on_c, 0, 67, 0
3, 870180, Note_on_c, 0, 61, 100
3, 870210, Note_on_c, 0, 61, 0
3, 870210, Note_on_c, 0, 64, 100
3, 870240, Note_on_c, 0, 64, 0
3, 870240, Note_on_c, 0, 57, 100
3, 870270, Note_on_c, 0, 57, 0
3, 870270, Note_on_c, 0, 58, 100
3, 870300, Note_on_c, 0, 58, 0
3, 870300, Note_on_c, 0, 57, 100
3, 870330, Note_on_c, 0, 57, 0
3, 870330, Note_on_c, 0, 55, 100
3, 870360, Note_on_c, 0, 55, 0
3, 870360, Note_on_c, 0, 53, 100
3, 870390, Note_on_c, 0, 53, 0
3, 870390, Note_on_c, 0, 55, 100
3, 870420, Note_on_c, 0, 55, 0
3, 870420, Note_on_c, 0, 52, 100
3, 870450, Note_on_c, 0, 52, 0
3, 870450, Note_on_c, 0, 53, 100
3, 870510, Note_on_c, 0, 53, 0
3, 870510, Note_on_c, 0, 62, 100
3, 870540, Note_on_c, 0, 62, 0
3, 870540, Note_on_c, 0, 55, 100
3, 870600, Note_on_c, 0, 55, 0
3, 870600, Note_on_c, 0, 53, 100
3, 870630, Note_on_c, 0, 53, 0
3, 870630, Note_on_c, 0, 52, 100
3, 870660, Note_on_c, 0, 52, 0
3, 870660, Note_on_c, 0, 57, 100
3, 870690, Note_on_c, 0, 57, 0
3, 870690, Note_on_c, 0, 55, 100
3, 870720, Note_on_c, 0, 55, 0
3, 870720, Note_on_c, 0, 53, 100
3, 870750, Note_on_c, 0, 53, 0
3, 870750, Note_on_c, 0, 52, 100
3, 870780, Note_on_c, 0, 52, 0
3, 870780, Note_on_c, 0, 50, 100
3, 870810, Note_on_c, 0, 50, 0
3, 870810, Note_on_c, 0, 50, 100
3, 870825, Note_on_c, 0, 50, 0
3, 870825, Note_on_c, 0, 49, 100
3, 870840, Note_on_c, 0, 49, 0
3, 870840, Note_on_c, 0, 50, 100
3, 870855, Note_on_c, 0, 50, 0
3, 870855, Note_on_c, 0, 49, 100
3, 870870, Note_on_c, 0, 49, 0
3, 870870, Note_on_c, 0, 50, 100
3, 870885, Note_on_c, 0, 50, 0
3, 870885, Note_on_c, 0, 49, 100
3, 870900, Note_on_c, 0, 49, 0
3, 870900, Note_on_c, 0, 50, 100
3, 870960, Note_on_c, 0, 50, 0
3, 871440, Note_on_c, 0, 62, 100
3, 871530, Note_on_c, 0, 62, 0
3, 871530, Note_on_c, 0, 57, 100
3, 871560, Note_on_c, 0, 57, 0
3, 871560, Note_on_c, 0, 56, 100
3, 871590, Note_on_c, 0, 56, 0
3, 871590, Note_on_c, 0, 57, 100
3, 871620, Note_on_c, 0, 57, 0
3, 871620, Note_on_c, 0, 59, 100
3, 871650, Note_on_c, 0, 59, 0
3, 871650, Note_on_c, 0, 57, 100
3, 871680, Note_on_c, 0, 57, 0
3, 871680, Note_on_c, 0, 59, 100
3, 871710, Note_on_c, 0, 59, 0
3, 871710, Note_on_c, 0, 60, 100
3, 871740, Note_on_c, 0, 60, 0
3, 871740, Note_on_c, 0, 59, 100
3, 871770, Note_on_c, 0, 59, 0
3, 871770, Note_on_c, 0, 61, 100
3, 871800, Note_on_c, 0, 61, 0
3, 871800, Note_on_c, 0, 62, 100
3, 871830, Note_on_c, 0, 62, 0
3, 871830, Note_on_c, 0, 61, 100
3, 871860, Note_on_c, 0, 61, 0
3, 871860, Note_on_c, 0, 62, 100
3, 871890, Note_on_c, 0, 62, 0
3, 871890, Note_on_c, 0, 64, 100
3, 871920, Note_on_c, 0, 64, 0
3, 871920, Note_on_c, 0, 62, 100
3, 871950, Note_on_c, 0, 62, 0
3, 871950, Note_on_c, 0, 64, 100
3, 871980, Note_on_c, 0, 64, 0
3, 871980, Note_on_c, 0, 65, 100
3, 872040, Note_on_c, 0, 65, 0
3, 872070, Note_on_c, 0, 64, 100
3, 872130, Note_on_c, 0, 64, 0
3, 872160, Note_on_c, 0, 62, 100
3, 872220, Note_on_c, 0, 62, 0
3, 872250, Note_on_c, 0, 62, 100
3, 872280, Note_on_c, 0, 62, 0
3, 872280, Note_on_c, 0, 61, 100
3, 872400, Note_on_c, 0, 61, 0
3, 872400, Note_on_c, 0, 57, 100
3, 872430, Note_on_c, 0, 57, 0
3, 872430, Note_on_c, 0, 59, 100
3, 872490, Note_on_c, 0, 59, 0
3, 872490, Note_on_c, 0, 61, 100
3, 872520, Note_on_c, 0, 61, 0
3, 872520, Note_on_c, 0, 62, 100
3, 872550, Note_on_c, 0, 62, 0
3, 872550, Note_on_c, 0, 60, 100
3, 872580, Note_on_c, 0, 60, 0
3, 872580, Note_on_c, 0, 59, 100
3, 872610, Note_on_c, 0, 59, 0
3, 872610, Note_on_c, 0, 60, 100
3, 872670, Note_on_c, 0, 60, 0
3, 872670, Note_on_c, 0, 69, 100
3, 872700, Note_on_c, 0, 69, 0
3, 872700, Note_on_c, 0, 68, 100
3, 872760, Note_on_c, 0, 68, 0
3, 872760, Note_on_c, 0, 62, 100
3, 872790, Note_on_c, 0, 62, 0
3, 872790, Note_on_c, 0, 64, 100
3, 872850, Note_on_c, 0, 64, 0
3, 872850, Note_on_c, 0, 67, 100
3, 872880, Note_on_c, 0, 67, 0
3, 872880, Note_on_c, 0, 65, 100
3, 872910, Note_on_c, 0, 65, 0
3, 872910, Note_on_c, 0, 64, 100
3, 872940, Note_on_c, 0, 64, 0
3, 872940, Note_on_c, 0, 62, 100
3, 872970, Note_on_c, 0, 62, 0
3, 872970, Note_on_c, 0, 61, 100
3, 873030, Note_on_c, 0, 61, 0
3, 873030, Note_on_c, 0, 70, 100
3, 873060, Note_on_c, 0, 70, 0
3, 873060, Note_on_c, 0, 69, 100
3, 873090, Note_on_c, 0, 69, 0
3, 873090, Note_on_c, 0, 65, 100
3, 873120, Note_on_c, 0, 65, 0
3, 873120, Note_on_c, 0, 62, 100
3, 873150, Note_on_c, 0, 62, 0
3, 873150, Note_on_c, 0, 62, 100
3, 873180, Note_on_c, 0, 62, 0
3, 873180, Note_on_c, 0, 67, 100
3, 873210, Note_on_c, 0, 67, 0
3, 873210, Note_on_c, 0, 60, 100
3, 873240, Note_on_c, 0, 60, 0
3, 873240, Note_on_c, 0, 60, 100
3, 873270, Note_on_c, 0, 60, 0
3, 873270, Note_on_c, 0, 65, 100
3, 873300, Note_on_c, 0, 65, 0
3, 873300, Note_on_c, 0, 58, 100
3, 873330, Note_on_c, 0, 58, 0
3, 873330, Note_on_c, 0, 58, 100
3, 873360, Note_on_c, 0, 58, 0
3, 873360, Note_on_c, 0, 57, 100
3, 873390, Note_on_c, 0, 57, 0
3, 873390, Note_on_c, 0, 55, 100
3, 873420, Note_on_c, 0, 55, 0
3, 873420, Note_on_c, 0, 57, 100
3, 873450, Note_on_c, 0, 57, 0
3, 873450, Note_on_c, 0, 61, 100
3, 873480, Note_on_c, 0, 61, 0
3, 873480, Note_on_c, 0, 64, 100
3, 873510, Note_on_c, 0, 64, 0
3, 873510, Note_on_c, 0, 67, 100
3, 873540, Note_on_c, 0, 67, 0
3, 873540, Note_on_c, 0, 65, 100
3, 873570, Note_on_c, 0, 65, 0
3, 873570, Note_on_c, 0, 64, 100
3, 873600, Note_on_c, 0, 64, 0
3, 873600, Note_on_c, 0, 65, 100
3, 873630, Note_on_c, 0, 65, 0
3, 873630, Note_on_c, 0, 64, 100
3, 873660, Note_on_c, 0, 64, 0
3, 873660, Note_on_c, 0, 62, 100
3, 873690, Note_on_c, 0, 62, 0
3, 873690, Note_on_c, 0, 64, 100
3, 873720, Note_on_c, 0, 64, 0
3, 873720, Note_on_c, 0, 62, 100
3, 873750, Note_on_c, 0, 62, 0
3, 873750, Note_on_c, 0, 60, 100
3, 873780, Note_on_c, 0, 60, 0
3, 873780, Note_on_c, 0, 62, 100
3, 873810, Note_on_c, 0, 62, 0
3, 873810, Note_on_c, 0, 60, 100
3, 873840, Note_on_c, 0, 60, 0
3, 873840, Note_on_c, 0, 59, 100
3, 873870, Note_on_c, 0, 59, 0
3, 873870, Note_on_c, 0, 60, 100
3, 873900, Note_on_c, 0, 60, 0
3, 873900, Note_on_c, 0, 62, 100
3, 873930, Note_on_c, 0, 62, 0
3, 873930, Note_on_c, 0, 64, 100
3, 873960, Note_on_c, 0, 64, 0
3, 873960, Note_on_c, 0, 62, 100
3, 873990, Note_on_c, 0, 62, 0
3, 873990, Note_on_c, 0, 64, 100
3, 874020, Note_on_c, 0, 64, 0
3, 874020, Note_on_c, 0, 65, 100
3, 874050, Note_on_c, 0, 65, 0
3, 874050, Note_on_c, 0, 64, 100
3, 874080, Note_on_c, 0, 64, 0
3, 874080, Note_on_c, 0, 65, 100
3, 874110, Note_on_c, 0, 65, 0
3, 874110, Note_on_c, 0, 67, 100
3, 874140, Note_on_c, 0, 67, 0
3, 874140, Note_on_c, 0, 65, 100
3, 874170, Note_on_c, 0, 65, 0
3, 874170, Note_on_c, 0, 62, 100
3, 874200, Note_on_c, 0, 62, 0
3, 874200, Note_on_c, 0, 69, 100
3, 874230, Note_on_c, 0, 69, 0
3, 874230, Note_on_c, 0, 58, 100
3, 874260, Note_on_c, 0, 58, 0
3, 874260, Note_on_c, 0, 64, 100
3, 874290, Note_on_c, 0, 64, 0
3, 874290, Note_on_c, 0, 67, 100
3, 874320, Note_on_c, 0, 67, 0
3, 874320, Note_on_c, 0, 57, 100
3, 874350, Note_on_c, 0, 57, 0
3, 874350, Note_on_c, 0, 62, 100
3, 874380, Note_on_c, 0, 62, 0
3, 874380, Note_on_c, 0, 65, 100
3, 874410, Note_on_c, 0, 65, 0
3, 874410, Note_on_c, 0, 55, 100
3, 874440, Note_on_c, 0, 55, 0
3, 874440, Note_on_c, 0, 61, 100
3, 874470, Note_on_c, 0, 61, 0
3, 874470, Note_on_c, 0, 64, 100
3, 874500, Note_on_c, 0, 64, 0
3, 874500, Note_on_c, 0, 53, 100
3, 874530, Note_on_c, 0, 53, 0
3, 874530, Note_on_c, 0, 57, 100
3, 874560, Note_on_c, 0, 57, 0
3, 874560, Note_on_c, 0, 55, 100
3, 874590, Note_on_c, 0, 55, 0
3, 874590, Note_on_c, 0, 58, 100
3, 874620, Note_on_c, 0, 58, 0
3, 874620, Note_on_c, 0, 57, 100
3, 874650, Note_on_c, 0, 57, 0
3, 874650, Note_on_c, 0, 61, 100
3, 874680, Note_on_c, 0, 61, 0
3, 874680, Note_on_c, 0, 62, 100
3, 874710, Note_on_c, 0, 62, 0
3, 874710, Note_on_c, 0, 64, 100
3, 874740, Note_on_c, 0, 64, 0
3, 874740, Note_on_c, 0, 65, 100
3, 874770, Note_on_c, 0, 65, 0
3, 874770, Note_on_c, 0, 57, 100
3, 874785, Note_on_c, 0, 57, 0
3, 874785, Note_on_c, 0, 56, 100
3, 874800, Note_on_c, 0, 56, 0
3, 874800, Note_on_c, 0, 54, 100
3, 874815, Note_on_c, 0, 54, 0
3, 874815, Note_on_c, 0, 56, 100
3, 874830, Note_on_c, 0, 56, 0
3, 874830, Note_on_c, 0, 57, 100
3, 874845, Note_on_c, 0, 57, 0
3, 874845, Note_on_c, 0, 56, 100
3, 874860, Note_on_c, 0, 56, 0
3, 874860, Note_on_c, 0, 57, 100
3, 874875, Note_on_c, 0, 57, 0
3, 874875, Note_on_c, 0, 56, 100
3, 874890, Note_on_c, 0, 56, 0
3, 874890, Note_on_c, 0, 57, 100
3, 874905, Note_on_c, 0, 57, 0
3, 874905, Note_on_c, 0, 56, 100
3, 874920, Note_on_c, 0, 56, 0
3, 874920, Note_on_c, 0, 54, 100
3, 874935, Note_on_c, 0, 54, 0
3, 874935, Note_on_c, 0, 56, 100
3, 874950, Note_on_c, 0, 56, 0
3, 874950, Note_on_c, 0, 57, 100
3, 875010, Note_on_c, 0, 57, 0
3, 875100, Note_on_c, 0, 59, 100
3, 875130, Note_on_c, 0, 59, 0
3, 875130, Note_on_c, 0, 60, 100
3, 875190, Note_on_c, 0, 60, 0
3, 875190, Note_on_c, 0, 57, 100
3, 875220, Note_on_c, 0, 57, 0
3, 875220, Note_on_c, 0, 62, 100
3, 875280, Note_on_c, 0, 62, 0
3, 875280, Note_on_c, 0, 65, 100
3, 875310, Note_on_c, 0, 65, 0
3, 875310, Note_on_c, 0, 65, 100
3, 875340, Note_on_c, 0, 65, 0
3, 875340, Note_on_c, 0, 64, 100
3, 875370, Note_on_c, 0, 64, 0
3, 875370, Note_on_c, 0, 62, 100
3, 875400, Note_on_c, 0, 62, 0
3, 875400, Note_on_c, 0, 60, 100
3, 875430, Note_on_c, 0, 60, 0
3, 875430, Note_on_c, 0, 62, 100
3, 875460, Note_on_c, 0, 62, 0
3, 875460, Note_on_c, 0, 59, 100
3, 875490, Note_on_c, 0, 59, 0
3, 875490, Note_on_c, 0, 64, 100
3, 875580, Note_on_c, 0, 64, 0
3, 875580, Note_on_c, 0, 57, 100
3, 875670, Note_on_c, 0, 57, 0
3, 875760, Note_on_c, 0, 57, 100
3, 875850, Note_on_c, 0, 57, 0
3, 875850, Note_on_c, 0, 64, 100
3, 875880, Note_on_c, 0, 64, 0
3, 875880, Note_on_c, 0, 65, 100
3, 875910, Note_on_c, 0, 65, 0
3, 875910, Note_on_c, 0, 64, 100
3, 875940, Note_on_c, 0, 64, 0
3, 875940, Note_on_c, 0, 62, 100
3, 875970, Note_on_c, 0, 62, 0
3, 875970, Note_on_c, 0, 64, 100
3, 876000, Note_on_c, 0, 64, 0
3, 876000, Note_on_c, 0, 62, 100
3, 876030, Note_on_c, 0, 62, 0
3, 876030, Note_on_c, 0, 60, 100
3, 876060, Note_on_c, 0, 60, 0
3, 876060, Note_on_c, 0, 62, 100
3, 876090, Note_on_c, 0, 62, 0
3, 876090, Note_on_c, 0, 60, 100
3, 876120, Note_on_c, 0, 60, 0
3, 876120, Note_on_c, 0, 59, 100
3, 876150, Note_on_c, 0, 59, 0
3, 876150, Note_on_c, 0, 60, 100
3, 876180, Note_on_c, 0, 60, 0
3, 876180, Note_on_c, 0, 59, 100
3, 876210, Note_on_c, 0, 59, 0
3, 876210, Note_on_c, 0, 57, 100
3, 876240, Note_on_c, 0, 57, 0
3, 876240, Note_on_c, 0, 59, 100
3, 876270, Note_on_c, 0, 59, 0
3, 876270, Note_on_c, 0, 57, 100
3, 876300, Note_on_c, 0, 57, 0
3, 876300, Note_on_c, 0, 56, 100
3, 876360, Note_on_c, 0, 56, 0
3, 876390, Note_on_c, 0, 57, 100
3, 876450, Note_on_c, 0, 57, 0
3, 876480, Note_on_c, 0, 59, 100
3, 876540, Note_on_c, 0, 59, 0
3, 876570, Note_on_c, 0, 59, 100
3, 876600, Note_on_c, 0, 59, 0
3, 876600, Note_on_c, 0, 60, 100
3, 876720, Note_on_c, 0, 60, 0
3, 876720, Note_on_c, 0, 62, 100
3, 876750, Note_on_c, 0, 62, 0
3, 876750, Note_on_c, 0, 60, 100
3, 876810, Note_on_c, 0, 60, 0
3, 876810, Note_on_c, 0, 59, 100
3, 876840, Note_on_c, 0, 59, 0
3, 876840, Note_on_c, 0, 57, 100
3, 876870, Note_on_c, 0, 57, 0
3, 876870, Note_on_c, 0, 52, 100
3, 876900, Note_on_c, 0, 52, 0
3, 876900, Note_on_c, 0, 57, 100
3, 876930, Note_on_c, 0, 57, 0
3, 876930, Note_on_c, 0, 60, 100
3, 876960, Note_on_c, 0, 60, 0
3, 876960, Note_on_c, 0, 57, 100
3, 876990, Note_on_c, 0, 57, 0
3, 876990, Note_on_c, 0, 60, 100
3, 877020, Note_on_c, 0, 60, 0
3, 877020, Note_on_c, 0, 64, 100
3, 877080, Note_on_c, 0, 64, 0
3, 877080, Note_on_c, 0, 56, 100
3, 877110, Note_on_c, 0, 56, 0
3, 877110, Note_on_c, 0, 57, 100
3, 877170, Note_on_c, 0, 57, 0
3, 877170, Note_on_c, 0, 65, 100
3, 877200, Note_on_c, 0, 65, 0
3, 877200, Note_on_c, 0, 55, 100
3, 877260, Note_on_c, 0, 55, 0
3, 877260, Note_on_c, 0, 64, 100
3, 877290, Note_on_c, 0, 64, 0
3, 877290, Note_on_c, 0, 53, 100
3, 877350, Note_on_c, 0, 53, 0
3, 877350, Note_on_c, 0, 62, 100
3, 877380, Note_on_c, 0, 62, 0
3, 877380, Note_on_c, 0, 52, 100
3, 877410, Note_on_c, 0, 52, 0
3, 877410, Note_on_c, 0, 59, 100
3, 877440, Note_on_c, 0, 59, 0
3, 877440, Note_on_c, 0, 62, 100
3, 877470, Note_on_c, 0, 62, 0
3, 877470, Note_on_c, 0, 60, 100
3, 877500, Note_on_c, 0, 60, 0
3, 877500, Note_on_c, 0, 59, 100
3, 877530, Note_on_c, 0, 59, 0
3, 877530, Note_on_c, 0, 57, 100
3, 877560, Note_on_c, 0, 57, 0
3, 877560, Note_on_c, 0, 56, 100
3, 877590, Note_on_c, 0, 56, 0
3, 877590, Note_on_c, 0, 62, 100
3, 877620, Note_on_c, 0, 62, 0
3, 877620, Note_on_c, 0, 65, 100
3, 877650, Note_on_c, 0, 65, 0
3, 877650, Note_on_c, 0, 64, 100
3, 877680, Note_on_c, 0, 64, 0
3, 877680, Note_on_c, 0, 62, 100
3, 877710, Note_on_c, 0, 62, 0
3, 877710, Note_on_c, 0, 60, 100
3, 877740, Note_on_c, 0, 60, 0
3, 877740, Note_on_c, 0, 59, 100
3, 877770, Note_on_c, 0, 59, 0
3, 877770, Note_on_c, 0, 57, 100
3, 877800, Note_on_c, 0, 57, 0
3, 877800, Note_on_c, 0, 56, 100
3, 877830, Note_on_c, 0, 56, 0
3, 877830, Note_on_c, 0, 57, 100
3, 877860, Note_on_c, 0, 57, 0
3, 877860, Note_on_c, 0, 52, 100
3, 877890, Note_on_c, 0, 52, 0
3, 877890, Note_on_c, 0, 59, 100
3, 877920, Note_on_c, 0, 59, 0
3, 877920, Note_on_c, 0, 60, 100
3, 877950, Note_on_c, 0, 60, 0
3, 877950, Note_on_c, 0, 59, 100
3, 877980, Note_on_c, 0, 59, 0
3, 877980, Note_on_c, 0, 57, 100
3, 878010, Note_on_c, 0, 57, 0
3, 878010, Note_on_c, 0, 64, 100
3, 878130, Note_on_c, 0, 64, 0
3, 878130, Note_on_c, 0, 59, 100
3, 878160, Note_on_c, 0, 59, 0
3, 878160, Note_on_c, 0, 62, 100
3, 878190, Note_on_c, 0, 62, 0
3, 878190, Note_on_c, 0, 62, 100
3, 878220, Note_on_c, 0, 62, 0
3, 878220, Note_on_c, 0, 60, 100
3, 878250, Note_on_c, 0, 60, 0
3, 878250, Note_on_c, 0, 69, 100
3, 878273, Note_on_c, 0, 69, 0
3, 878280, Note_on_c, 0, 60, 100
3, 878310, Note_on_c, 0, 60, 0
3, 878310, Note_on_c, 0, 59, 100
3, 878340, Note_on_c, 0, 59, 0
3, 878340, Note_on_c, 0, 67, 100
3, 878363, Note_on_c, 0, 67, 0
3, 878370, Note_on_c, 0, 59, 100
3, 878400, Note_on_c, 0, 59, 0
3, 878400, Note_on_c, 0, 57, 100
3, 878430, Note_on_c, 0, 57, 0
3, 878430, Note_on_c, 0, 65, 100
3, 878453, Note_on_c, 0, 65, 0
3, 878460, Note_on_c, 0, 57, 100
3, 878490, Note_on_c, 0, 57, 0
3, 878490, Note_on_c, 0, 56, 100
3, 878520, Note_on_c, 0, 56, 0
3, 878520, Note_on_c, 0, 59, 100
3, 878543, Note_on_c, 0, 59, 0
3, 878550, Note_on_c, 0, 52, 100
3, 878610, Note_on_c, 0, 52, 0
3, 878820, Note_on_c, 0, 62, 100
3, 878940, Note_on_c, 0, 62, 0
3, 878940, Note_on_c, 0, 60, 100
3, 878970, Note_on_c, 0, 60, 0
3, 878970, Note_on_c, 0, 62, 100
3, 879000, Note_on_c, 0, 62, 0
3, 879000, Note_on_c, 0, 64, 100
3, 879030, Note_on_c, 0, 64, 0
3, 879030, Note_on_c, 0, 62, 100
3, 879060, Note_on_c, 0, 62, 0
3, 879060, Note_on_c, 0, 60, 100
3, 879090, Note_on_c, 0, 60, 0
3, 879090, Note_on_c, 0, 59, 100
3, 879120, Note_on_c, 0, 59, 0
3, 879120, Note_on_c, 0, 60, 100
3, 879150, Note_on_c, 0, 60, 0
3, 879150, Note_on_c, 0, 62, 100
3, 879180, Note_on_c, 0, 62, 0
3, 879180, Note_on_c, 0, 64, 100
3, 879210, Note_on_c, 0, 64, 0
3, 879210, Note_on_c, 0, 66, 100
3, 879240, Note_on_c, 0, 66, 0
3, 879240, Note_on_c, 0, 68, 100
3, 879270, Note_on_c, 0, 68, 0
3, 879270, Note_on_c, 0, 69, 100
3, 879300, Note_on_c, 0, 69, 0
3, 879300, Note_on_c, 0, 64, 100
3, 879330, Note_on_c, 0, 64, 0
3, 879330, Note_on_c, 0, 60, 100
3, 879360, Note_on_c, 0, 60, 0
3, 879360, Note_on_c, 0, 62, 100
3, 879390, Note_on_c, 0, 62, 0
3, 879390, Note_on_c, 0, 67, 100
3, 879420, Note_on_c, 0, 67, 0
3, 879420, Note_on_c, 0, 59, 100
3, 879450, Note_on_c, 0, 59, 0
3, 879450, Note_on_c, 0, 60, 100
3, 879480, Note_on_c, 0, 60, 0
3, 879480, Note_on_c, 0, 65, 100
3, 879510, Note_on_c, 0, 65, 0
3, 879510, Note_on_c, 0, 57, 100
3, 879540, Note_on_c, 0, 57, 0
3, 879540, Note_on_c, 0, 59, 100
3, 879570, Note_on_c, 0, 59, 0
3, 879570, Note_on_c, 0, 64, 100
3, 879600, Note_on_c, 0, 64, 0
3, 879600, Note_on_c, 0, 62, 100
3, 879630, Note_on_c, 0, 62, 0
3, 879630, Note_on_c, 0, 60, 100
3, 879660, Note_on_c, 0, 60, 0
3, 879660, Note_on_c, 0, 59, 100
3, 879690, Note_on_c, 0, 59, 0
3, 879690, Note_on_c, 0, 57, 100
3, 879720, Note_on_c, 0, 57, 0
3, 879720, Note_on_c, 0, 59, 100
3, 879750, Note_on_c, 0, 59, 0
3, 879750, Note_on_c, 0, 57, 100
3, 879780, Note_on_c, 0, 57, 0
3, 879780, Note_on_c, 0, 56, 100
3, 879810, Note_on_c, 0, 56, 0
3, 879810, Note_on_c, 0, 57, 100
3, 879840, Note_on_c, 0, 57, 0
3, 879840, Note_on_c, 0, 56, 100
3, 879870, Note_on_c, 0, 56, 0
3, 879870, Note_on_c, 0, 54, 100
3, 879900, Note_on_c, 0, 54, 0
3, 879900, Note_on_c, 0, 56, 100
3, 879930, Note_on_c, 0, 56, 0
3, 879930, Note_on_c, 0, 52, 100
3, 879960, Note_on_c, 0, 52, 0
3, 879960, Note_on_c, 0, 56, 100
3, 879990, Note_on_c, 0, 56, 0
3, 879990, Note_on_c, 0, 59, 100
3, 880020, Note_on_c, 0, 59, 0
3, 880020, Note_on_c, 0, 64, 100
3, 880050, Note_on_c, 0, 64, 0
3, 880050, Note_on_c, 0, 62, 100
3, 880080, Note_on_c, 0, 62, 0
3, 880080, Note_on_c, 0, 60, 100
3, 880110, Note_on_c, 0, 60, 0
3, 880110, Note_on_c, 0, 59, 100
3, 880140, Note_on_c, 0, 59, 0
3, 880140, Note_on_c, 0, 57, 100
3, 880170, Note_on_c, 0, 57, 0
3, 880170, Note_on_c, 0, 62, 100
3, 880290, Note_on_c, 0, 62, 0
3, 880290, Note_on_c, 0, 60, 100
3, 880320, Note_on_c, 0, 60, 0
3, 880320, Note_on_c, 0, 59, 100
3, 880350, Note_on_c, 0, 59, 0
3, 880350, Note_on_c, 0, 60, 100
3, 880410, Note_on_c, 0, 60, 0
3, 880440, Note_on_c, 0, 65, 100
3, 880500, Note_on_c, 0, 65, 0
3, 880530, Note_on_c, 0, 64, 100
3, 880590, Note_on_c, 0, 64, 0
3, 880620, Note_on_c, 0, 62, 100
3, 880680, Note_on_c, 0, 62, 0
3, 880680, Note_on_c, 0, 56, 100
3, 880710, Note_on_c, 0, 56, 0
3, 880710, Note_on_c, 0, 57, 100
3, 880770, Note_on_c, 0, 57, 0
3, 880770, Note_on_c, 0, 60, 100
3, 880800, Note_on_c, 0, 60, 0
3, 880800, Note_on_c, 0, 55, 100
3, 880815, Note_on_c, 0, 55, 0
3, 880815, Note_on_c, 0, 53, 100
3, 880830, Note_on_c, 0, 53, 0
3, 880830, Note_on_c, 0, 55, 100
3, 880845, Note_on_c, 0, 55, 0
3, 880845, Note_on_c, 0, 53, 100
3, 880860, Note_on_c, 0, 53, 0
3, 880860, Note_on_c, 0, 52, 100
3, 880875, Note_on_c, 0, 52, 0
3, 880875, Note_on_c, 0, 53, 100
3, 880890, Note_on_c, 0, 53, 0
3, 880890, Note_on_c, 0, 52, 100
3, 880950, Note_on_c, 0, 52, 0
3, 881190, Note_on_c, 0, 50, 100
3, 881220, Note_on_c, 0, 50, 0
3, 881220, Note_on_c, 0, 52, 100
3, 881250, Note_on_c, 0, 52, 0
3, 881250, Note_on_c, 0, 53, 100
3, 881280, Note_on_c, 0, 53, 0
3, 881280, Note_on_c, 0, 55, 100
3, 881310, Note_on_c, 0, 55, 0
3, 881310, Note_on_c, 0, 53, 100
3, 881340, Note_on_c, 0, 53, 0
3, 881340, Note_on_c, 0, 52, 100
3, 881460, Note_on_c, 0, 52, 0
3, 881460, Note_on_c, 0, 53, 100
3, 881490, Note_on_c, 0, 53, 0
3, 881490, Note_on_c, 0, 55, 100
3, 881520, Note_on_c, 0, 55, 0
3, 881520, Note_on_c, 0, 57, 100
3, 881550, Note_on_c, 0, 57, 0
3, 881550, Note_on_c, 0, 58, 100
3, 881580, Note_on_c, 0, 58, 0
3, 881580, Note_on_c, 0, 57, 100
3, 881610, Note_on_c, 0, 57, 0
3, 881610, Note_on_c, 0, 55, 100
3, 881640, Note_on_c, 0, 55, 0
3, 881640, Note_on_c, 0, 57, 100
3, 881670, Note_on_c, 0, 57, 0
3, 881670, Note_on_c, 0, 55, 100
3, 881700, Note_on_c, 0, 55, 0
3, 881700, Note_on_c, 0, 53, 100
3, 881730, Note_on_c, 0, 53, 0
3, 881730, Note_on_c, 0, 55, 100
3, 881760, Note_on_c, 0, 55, 0
3, 881760, Note_on_c, 0, 53, 100
3, 881790, Note_on_c, 0, 53, 0
3, 881790, Note_on_c, 0, 52, 100
3, 881820, Note_on_c, 0, 52, 0
3, 881820, Note_on_c, 0, 53, 100
3, 881850, Note_on_c, 0, 53, 0
3, 881850, Note_on_c, 0, 52, 100
3, 881880, Note_on_c, 0, 52, 0
3, 881880, Note_on_c, 0, 50, 100
3, 881910, Note_on_c, 0, 50, 0
3, 881910, Note_on_c, 0, 52, 100
3, 881940, Note_on_c, 0, 52, 0
3, 881940, Note_on_c, 0, 50, 100
3, 881970, Note_on_c, 0, 50, 0
3, 881970, Note_on_c, 0, 49, 100
3, 882030, Note_on_c, 0, 49, 0
3, 882060, Note_on_c, 0, 50, 100
3, 882120, Note_on_c, 0, 50, 0
3, 882150, Note_on_c, 0, 52, 100
3, 882210, Note_on_c, 0, 52, 0
3, 882240, Note_on_c, 0, 53, 100
3, 882390, Note_on_c, 0, 53, 0
3, 882390, Note_on_c, 0, 57, 100
3, 882420, Note_on_c, 0, 57, 0
3, 882420, Note_on_c, 0, 57, 100
3, 882435, Note_on_c, 0, 57, 0
3, 882435, Note_on_c, 0, 55, 100
3, 882450, Note_on_c, 0, 55, 0
3, 882450, Note_on_c, 0, 57, 100
3, 882465, Note_on_c, 0, 57, 0
3, 882465, Note_on_c, 0, 55, 100
3, 882480, Note_on_c, 0, 55, 0
3, 882480, Note_on_c, 0, 53, 100
3, 882510, Note_on_c, 0, 53, 0
3, 882510, Note_on_c, 0, 55, 100
3, 882540, Note_on_c, 0, 55, 0
3, 882540, Note_on_c, 0, 53, 100
3, 882570, Note_on_c, 0, 53, 0
3, 882570, Note_on_c, 0, 52, 100
3, 882600, Note_on_c, 0, 52, 0
3, 882600, Note_on_c, 0, 62, 100
3, 882615, Note_on_c, 0, 62, 0
3, 882615, Note_on_c, 0, 61, 100
3, 882630, Note_on_c, 0, 61, 0
3, 882630, Note_on_c, 0, 58, 100
3, 882645, Note_on_c, 0, 58, 0
3, 882645, Note_on_c, 0, 61, 100
3, 882660, Note_on_c, 0, 61, 0
3, 882660, Note_on_c, 0, 62, 100
3, 882675, Note_on_c, 0, 62, 0
3, 882675, Note_on_c, 0, 61, 100
3, 882690, Note_on_c, 0, 61, 0
3, 882690, Note_on_c, 0, 62, 100
3, 882705, Note_on_c, 0, 62, 0
3, 882705, Note_on_c, 0, 61, 100
3, 882720, Note_on_c, 0, 61, 0
3, 882720, Note_on_c, 0, 62, 100
3, 882735, Note_on_c, 0, 62, 0
3, 882735, Note_on_c, 0, 61, 100
3, 882750, Note_on_c, 0, 61, 0
3, 882750, Note_on_c, 0, 58, 100
3, 882765, Note_on_c, 0, 58, 0
3, 882765, Note_on_c, 0, 61, 100
3, 882780, Note_on_c, 0, 61, 0
3, 882780, Note_on_c, 0, 62, 100
3, 882810, Note_on_c, 0, 62, 0
3, 882810, Note_on_c, 0, 58, 100
3, 882840, Note_on_c, 0, 58, 0
3, 882840, Note_on_c, 0, 67, 100
3, 882870, Note_on_c, 0, 67, 0
3, 882870, Note_on_c, 0, 60, 100
3, 882900, Note_on_c, 0, 60, 0
3, 882900, Note_on_c, 0, 57, 100
3, 882930, Note_on_c, 0, 57, 0
3, 882930, Note_on_c, 0, 65, 100
3, 882960, Note_on_c, 0, 65, 0
3, 882960, Note_on_c, 0, 58, 100
3, 882990, Note_on_c, 0, 58, 0
3, 882990, Note_on_c, 0, 55, 100
3, 883020, Note_on_c, 0, 55, 0
3, 883020, Note_on_c, 0, 64, 100
3, 883050, Note_on_c, 0, 64, 0
3, 883050, Note_on_c, 0, 57, 100
3, 883080, Note_on_c, 0, 57, 0
3, 883080, Note_on_c, 0, 55, 100
3, 883110, Note_on_c, 0, 55, 0
3, 883110, Note_on_c, 0, 64, 100
3, 883140, Note_on_c, 0, 64, 0
3, 883140, Note_on_c, 0, 57, 100
3, 883170, Note_on_c, 0, 57, 0
3, 883170, Note_on_c, 0, 53, 100
3, 883200, Note_on_c, 0, 53, 0
3, 883200, Note_on_c, 0, 62, 100
3, 883230, Note_on_c, 0, 62, 0
3, 883230, Note_on_c, 0, 55, 100
3, 883260, Note_on_c, 0, 55, 0
3, 883260, Note_on_c, 0, 52, 100
3, 883290, Note_on_c, 0, 52, 0
3, 883290, Note_on_c, 0, 61, 100
3, 883320, Note_on_c, 0, 61, 0
3, 883320, Note_on_c, 0, 62, 100
3, 883350, Note_on_c, 0, 62, 0
3, 883350, Note_on_c, 0, 57, 100
3, 883380, Note_on_c, 0, 57, 0
3, 883380, Note_on_c, 0, 53, 100
3, 883410, Note_on_c, 0, 53, 0
3, 883410, Note_on_c, 0, 50, 100
3, 883440, Note_on_c, 0, 50, 0
3, 883440, Note_on_c, 0, 52, 100
3, 883470, Note_on_c, 0, 52, 0
3, 883470, Note_on_c, 0, 53, 100
3, 883500, Note_on_c, 0, 53, 0
3, 883500, Note_on_c, 0, 52, 100
3, 883530, Note_on_c, 0, 52, 0
3, 883530, Note_on_c, 0, 53, 100
3, 883560, Note_on_c, 0, 53, 0
3, 883560, Note_on_c, 0, 50, 100
3, 883590, Note_on_c, 0, 50, 0
3, 883590, Note_on_c, 0, 52, 100
3, 883710, Note_on_c, 0, 52, 0
3, 883710, Note_on_c, 0, 53, 100
3, 883740, Note_on_c, 0, 53, 0
3, 883740, Note_on_c, 0, 55, 100
3, 883770, Note_on_c, 0, 55, 0
3, 883770, Note_on_c, 0, 53, 100
3, 883800, Note_on_c, 0, 53, 0
3, 883800, Note_on_c, 0, 55, 100
3, 883830, Note_on_c, 0, 55, 0
3, 883830, Note_on_c, 0, 52, 100
3, 883860, Note_on_c, 0, 52, 0
3, 883860, Note_on_c, 0, 53, 100
3, 883920, Note_on_c, 0, 53, 0
3, 883950, Note_on_c, 0, 52, 100
3, 884010, Note_on_c, 0, 52, 0
3, 884040, Note_on_c, 0, 50, 100
3, 884100, Note_on_c, 0, 50, 0
3, 884130, Note_on_c, 0, 49, 100
3, 884190, Note_on_c, 0, 49, 0
3, 884220, Note_on_c, 0, 50, 100
3, 884280, Note_on_c, 0, 50, 0
3, 884310, Note_on_c, 0, 52, 100
3, 884370, Note_on_c, 0, 52, 0
3, 884400, Note_on_c, 0, 53, 100
3, 884430, Note_on_c, 0, 53, 0
3, 884430, Note_on_c, 0, 52, 100
3, 884460, Note_on_c, 0, 52, 0
3, 884460, Note_on_c, 0, 50, 100
3, 884490, Note_on_c, 0, 50, 0
3, 884490, Note_on_c, 0, 58, 100
3, 884520, Note_on_c, 0, 58, 0
3, 884520, Note_on_c, 0, 57, 100
3, 884550, Note_on_c, 0, 57, 0
3, 884550, Note_on_c, 0, 55, 100
3, 884580, Note_on_c, 0, 55, 0
3, 884580, Note_on_c, 0, 61, 100
3, 884640, Note_on_c, 0, 61, 0
3, 884700, Note_on_c, 0, 55, 100
3, 884730, Note_on_c, 0, 55, 0
3, 884730, Note_on_c, 0, 50, 100
3, 884760, Note_on_c, 0, 50, 0
3, 884760, Note_on_c, 0, 49, 100
3, 884790, Note_on_c, 0, 49, 0
3, 884790, Note_on_c, 0, 50, 100
3, 884820, Note_on_c, 0, 50, 0
3, 884820, Note_on_c, 0, 52, 100
3, 884850, Note_on_c, 0, 52, 0
3, 884850, Note_on_c, 0, 45, 100
3, 884880, Note_on_c, 0, 45, 0
3, 884880, Note_on_c, 0, 47, 100
3, 884910, Note_on_c, 0, 47, 0
3, 884910, Note_on_c, 0, 49, 100
3, 884940, Note_on_c, 0, 49, 0
3, 884940, Note_on_c, 0, 50, 100
3, 884970, Note_on_c, 0, 50, 0
3, 884970, Note_on_c, 0, 43, 100
3, 885000, Note_on_c, 0, 43, 0
3, 885000, Note_on_c, 0, 46, 100
3, 885030, Note_on_c, 0, 46, 0
3, 885030, Note_on_c, 0, 48, 100
3, 885060, Note_on_c, 0, 48, 0
3, 885060, Note_on_c, 0, 41, 100
3, 885090, Note_on_c, 0, 41, 0
3, 885090, Note_on_c, 0, 45, 100
3, 885120, Note_on_c, 0, 45, 0
3, 885120, Note_on_c, 0, 46, 100
3, 885150, Note_on_c, 0, 46, 0
3, 885150, Note_on_c, 0, 40, 100
3, 885180, Note_on_c, 0, 40, 0
3, 885180, Note_on_c, 0, 43, 100
3, 885210, Note_on_c, 0, 43, 0
3, 885210, Note_on_c, 0, 45, 100
3, 885240, Note_on_c, 0, 45, 0
3, 885240, Note_on_c, 0, 57, 100
3, 885270, Note_on_c, 0, 57, 0
3, 885270, Note_on_c, 0, 55, 100
3, 885300, Note_on_c, 0, 55, 0
3, 885300, Note_on_c, 0, 53, 100
3, 885330, Note_on_c, 0, 53, 0
3, 885330, Note_on_c, 0, 62, 100
3, 885360, Note_on_c, 0, 62, 0
3, 885360, Note_on_c, 0, 60, 100
3, 885390, Note_on_c, 0, 60, 0
3, 885390, Note_on_c, 0, 58, 100
3, 885420, Note_on_c, 0, 58, 0
3, 885420, Note_on_c, 0, 57, 100
3, 885450, Note_on_c, 0, 57, 0
3, 885450, Note_on_c, 0, 58, 100
3, 885480, Note_on_c, 0, 58, 0
3, 885480, Note_on_c, 0, 57, 100
3, 885570, Note_on_c, 0, 57, 0
3, 885570, Note_on_c, 0, 50, 100
3, 885600, Note_on_c, 0, 50, 0
3, 885600, Note_on_c, 0, 49, 100
3, 885630, Note_on_c, 0, 49, 0
3, 885630, Note_on_c, 0, 50, 100
3, 885660, Note_on_c, 0, 50, 0
3, 885660, Note_on_c, 0, 52, 100
3, 885690, Note_on_c, 0, 52, 0
3, 885690, Note_on_c, 0, 50, 100
3, 885720, Note_on_c, 0, 50, 0
3, 885720, Note_on_c, 0, 52, 100
3, 885750, Note_on_c, 0, 52, 0
3, 885750, Note_on_c, 0, 53, 100
3, 885780, Note_on_c, 0, 53, 0
3, 885780, Note_on_c, 0, 52, 100
3, 885810, Note_on_c, 0, 52, 0
3, 885810, Note_on_c, 0, 53, 100
3, 885840, Note_on_c, 0, 53, 0
3, 885840, Note_on_c, 0, 55, 100
3, 885870, Note_on_c, 0, 55, 0
3, 885870, Note_on_c, 0, 53, 100
3, 885900, Note_on_c, 0, 53, 0
3, 885900, Note_on_c, 0, 55, 100
3, 885930, Note_on_c, 0, 55, 0
3, 885930, Note_on_c, 0, 57, 100
3, 885960, Note_on_c, 0, 57, 0
3, 885960, Note_on_c, 0, 55, 100
3, 885990, Note_on_c, 0, 55, 0
3, 885990, Note_on_c, 0, 57, 100
3, 886020, Note_on_c, 0, 57, 0
3, 886020, Note_on_c, 0, 58, 100
3, 886080, Note_on_c, 0, 58, 0
3, 886110, Note_on_c, 0, 57, 100
3, 886170, Note_on_c, 0, 57, 0
3, 886200, Note_on_c, 0, 55, 100
3, 886260, Note_on_c, 0, 55, 0
3, 886290, Note_on_c, 0, 55, 100
3, 886320, Note_on_c, 0, 55, 0
3, 886320, Note_on_c, 0, 53, 100
3, 886440, Note_on_c, 0, 53, 0
3, 886440, Note_on_c, 0, 52, 100
3, 886470, Note_on_c, 0, 52, 0
3, 886470, Note_on_c, 0, 53, 100
3, 886530, Note_on_c, 0, 53, 0
3, 886530, Note_on_c, 0, 55, 100
3, 886560, Note_on_c, 0, 55, 0
3, 886560, Note_on_c, 0, 57, 100
3, 886620, Note_on_c, 0, 57, 0
3, 886620, Note_on_c, 0, 67, 100
3, 886650, Note_on_c, 0, 67, 0
3, 886650, Note_on_c, 0, 65, 100
3, 886710, Note_on_c, 0, 65, 0
3, 886710, Note_on_c, 0, 57, 100
3, 886740, Note_on_c, 0, 57, 0
3, 886740, Note_on_c, 0, 55, 100
3, 886800, Note_on_c, 0, 55, 0
3, 886800, Note_on_c, 0, 64, 100
3, 886830, Note_on_c, 0, 64, 0
3, 886830, Note_on_c, 0, 62, 100
3, 886890, Note_on_c, 0, 62, 0
3, 886890, Note_on_c, 0, 53, 100
3, 886920, Note_on_c, 0, 53, 0
3, 886920, Note_on_c, 0, 52, 100
3, 886980, Note_on_c, 0, 52, 0
3, 886980, Note_on_c, 0, 62, 100
3, 887010, Note_on_c, 0, 62, 0
3, 887010, Note_on_c, 0, 61, 100
3, 887070, Note_on_c, 0, 61, 0
3, 887070, Note_on_c, 0, 52, 100
3, 887100, Note_on_c, 0, 52, 0
3, 887100, Note_on_c, 0, 52, 100
3, 887130, Note_on_c, 0, 52, 0
3, 887130, Note_on_c, 0, 50, 100
3, 887160, Note_on_c, 0, 50, 0
3, 887160, Note_on_c, 0, 49, 100
3, 887190, Note_on_c, 0, 49, 0
3, 887190, Note_on_c, 0, 50, 100
3, 887220, Note_on_c, 0, 50, 0
3, 887220, Note_on_c, 0, 52, 100
3, 887250, Note_on_c, 0, 52, 0
3, 887250, Note_on_c, 0, 53, 100
3, 887280, Note_on_c, 0, 53, 0
3, 887280, Note_on_c, 0, 55, 100
3, 887310, Note_on_c, 0, 55, 0
3, 887310, Note_on_c, 0, 57, 100
3, 887340, Note_on_c, 0, 57, 0
3, 887340, Note_on_c, 0, 58, 100
3, 887370, Note_on_c, 0, 58, 0
3, 887370, Note_on_c, 0, 58, 100
3, 887400, Note_on_c, 0, 58, 0
3, 887400, Note_on_c, 0, 57, 100
3, 887430, Note_on_c, 0, 57, 0
3, 887430, Note_on_c, 0, 55, 100
3, 887460, Note_on_c, 0, 55, 0
3, 887460, Note_on_c, 0, 57, 100
3, 887490, Note_on_c, 0, 57, 0
3, 887490, Note_on_c, 0, 59, 100
3, 887520, Note_on_c, 0, 59, 0
3, 887520, Note_on_c, 0, 61, 100
3, 887550, Note_on_c, 0, 61, 0
3, 887550, Note_on_c, 0, 62, 100
3, 887580, Note_on_c, 0, 62, 0
3, 887580, Note_on_c, 0, 64, 100
3, 887610, Note_on_c, 0, 64, 0
3, 887610, Note_on_c, 0, 65, 100
3, 887640, Note_on_c, 0, 65, 0
3, 887640, Note_on_c, 0, 65, 100
3, 887670, Note_on_c, 0, 65, 0
3, 887670, Note_on_c, 0, 62, 100
3, 887700, Note_on_c, 0, 62, 0
3, 887700, Note_on_c, 0, 64, 100
3, 887730, Note_on_c, 0, 64, 0
3, 887730, Note_on_c, 0, 64, 100
3, 887760, Note_on_c, 0, 64, 0
3, 887760, Note_on_c, 0, 61, 100
3, 887790, Note_on_c, 0, 61, 0
3, 887790, Note_on_c, 0, 62, 100
3, 887820, Note_on_c, 0, 62, 0
3, 887820, Note_on_c, 0, 62, 100
3, 887850, Note_on_c, 0, 62, 0
3, 887850, Note_on_c, 0, 59, 100
3, 887880, Note_on_c, 0, 59, 0
3, 887880, Note_on_c, 0, 60, 100
3, 887910, Note_on_c, 0, 60, 0
3, 887910, Note_on_c, 0, 60, 100
3, 887940, Note_on_c, 0, 60, 0
3, 887940, Note_on_c, 0, 57, 100
3, 887970, Note_on_c, 0, 57, 0
3, 887970, Note_on_c, 0, 58, 100
3, 888000, Note_on_c, 0, 58, 0
3, 888000, Note_on_c, 0, 58, 100
3, 888030, Note_on_c, 0, 58, 0
3, 888030, Note_on_c, 0, 55, 100
3, 888060, Note_on_c, 0, 55, 0
3, 888060, Note_on_c, 0, 57, 100
3, 888090, Note_on_c, 0, 57, 0
3, 888090, Note_on_c, 0, 57, 100
3, 888120, Note_on_c, 0, 57, 0
3, 888120, Note_on_c, 0, 53, 100
3, 888150, Note_on_c, 0, 53, 0
3, 888150, Note_on_c, 0, 55, 100
3, 888180, Note_on_c, 0, 55, 0
3, 888180, Note_on_c, 0, 55, 100
3, 888210, Note_on_c, 0, 55, 0
3, 888210, Note_on_c, 0, 53, 100
3, 888300, Note_on_c, 0, 53, 0
3, 888300, Note_on_c, 0, 55, 100
3, 888330, Note_on_c, 0, 55, 0
3, 888330, Note_on_c, 0, 57, 100
3, 888360, Note_on_c, 0, 57, 0
3, 888360, Note_on_c, 0, 58, 100
3, 888390, Note_on_c, 0, 58, 0
3, 888390, Note_on_c, 0, 57, 100
3, 888420, Note_on_c, 0, 57, 0
3, 888420, Note_on_c, 0, 55, 100
3, 888450, Note_on_c, 0, 55, 0
3, 888450, Note_on_c, 0, 62, 100
3, 888480, Note_on_c, 0, 62, 0
3, 888480, Note_on_c, 0, 61, 100
3, 888570, Note_on_c, 0, 61, 0
3, 888570, Note_on_c, 0, 62, 100
3, 888600, Note_on_c, 0, 62, 0
3, 888600, Note_on_c, 0, 64, 100
3, 888630, Note_on_c, 0, 64, 0
3, 888630, Note_on_c, 0, 65, 100
3, 888660, Note_on_c, 0, 65, 0
3, 888660, Note_on_c, 0, 64, 100
3, 888690, Note_on_c, 0, 64, 0
3, 888690, Note_on_c, 0, 62, 100
3, 888720, Note_on_c, 0, 62, 0
3, 888720, Note_on_c, 0, 69, 100
3, 888735, Note_on_c, 0, 69, 0
3, 888735, Note_on_c, 0, 68, 100
3, 888750, Note_on_c, 0, 68, 0
3, 888750, Note_on_c, 0, 66, 100
3, 888765, Note_on_c, 0, 66, 0
3, 888765, Note_on_c, 0, 68, 100
3, 888780, Note_on_c, 0, 68, 0
3, 888780, Note_on_c, 0, 69, 100
3, 888795, Note_on_c, 0, 69, 0
3, 888795, Note_on_c, 0, 68, 100
3, 888810, Note_on_c, 0, 68, 0
3, 888810, Note_on_c, 0, 69, 100
3, 888825, Note_on_c, 0, 69, 0
3, 888825, Note_on_c, 0, 68, 100
3, 888840, Note_on_c, 0, 68, 0
3, 888840, Note_on_c, 0, 69, 100
3, 888855, Note_on_c, 0, 69, 0
3, 888855, Note_on_c, 0, 68, 100
3, 888870, Note_on_c, 0, 68, 0
3, 888870, Note_on_c, 0, 69, 100
3, 888885, Note_on_c, 0, 69, 0
3, 888885, Note_on_c, 0, 68, 100
3, 888900, Note_on_c, 0, 68, 0
3, 888900, Note_on_c, 0, 69, 100
3, 888915, Note_on_c, 0, 69, 0
3, 888915, Note_on_c, 0, 68, 100
3, 888930, Note_on_c, 0, 68, 0
3, 888930, Note_on_c, 0, 69, 100
3, 888945, Note_on_c, 0, 69, 0
3, 888945, Note_on_c, 0, 68, 100
3, 888960, Note_on_c, 0, 68, 0
3, 888960, Note_on_c, 0, 66, 100
3, 888975, Note_on_c, 0, 66, 0
3, 888975, Note_on_c, 0, 68, 100
3, 888990, Note_on_c, 0, 68, 0
3, 888990, Note_on_c, 0, 69, 100
3, 889050, Note_on_c, 0, 69, 0
3, 889140, Note_on_c, 0, 61, 100
3, 889170, Note_on_c, 0, 61, 0
3, 889170, Note_on_c, 0, 62, 100
3, 889230, Note_on_c, 0, 62, 0
3, 889230, Note_on_c, 0, 64, 100
3, 889260, Note_on_c, 0, 64, 0
3, 889260, Note_on_c, 0, 57, 100
3, 889290, Note_on_c, 0, 57, 0
3, 889290, Note_on_c, 0, 59, 100
3, 889320, Note_on_c, 0, 59, 0
3, 889320, Note_on_c, 0, 61, 100
3, 889350, Note_on_c, 0, 61, 0
3, 889350, Note_on_c, 0, 62, 100
3, 889380, Note_on_c, 0, 62, 0
3, 889380, Note_on_c, 0, 64, 100
3, 889410, Note_on_c, 0, 64, 0
3, 889410, Note_on_c, 0, 65, 100
3, 889440, Note_on_c, 0, 65, 0
3, 889440, Note_on_c, 0, 55, 100
3, 889560, Note_on_c, 0, 55, 0
3, 889560, Note_on_c, 0, 67, 100
3, 889590, Note_on_c, 0, 67, 0
3, 889590, Note_on_c, 0, 65, 100
3, 889620, Note_on_c, 0, 65, 0
3, 889620, Note_on_c, 0, 64, 100
3, 889650, Note_on_c, 0, 64, 0
3, 889650, Note_on_c, 0, 62, 100
3, 889680, Note_on_c, 0, 62, 0
3, 889680, Note_on_c, 0, 61, 100
3, 889710, Note_on_c, 0, 61, 0
3, 889710, Note_on_c, 0, 62, 100
3, 889830, Note_on_c, 0, 62, 0
3, 889830, Note_on_c, 0, 59, 100
3, 889860, Note_on_c, 0, 59, 0
3, 889860, Note_on_c, 0, 61, 100
3, 889890, Note_on_c, 0, 61, 0
3, 889890, Note_on_c, 0, 62, 100
3, 889920, Note_on_c, 0, 62, 0
3, 889920, Note_on_c, 0, 64, 100
3, 889950, Note_on_c, 0, 64, 0
3, 889950, Note_on_c, 0, 65, 100
3, 889980, Note_on_c, 0, 65, 0
3, 889980, Note_on_c, 0, 64, 100
3, 890010, Note_on_c, 0, 64, 0
3, 890010, Note_on_c, 0, 65, 100
3, 890040, Note_on_c, 0, 65, 0
3, 890040, Note_on_c, 0, 62, 100
3, 890070, Note_on_c, 0, 62, 0
3, 890070, Note_on_c, 0, 61, 100
3, 890100, Note_on_c, 0, 61, 0
3, 890100, Note_on_c, 0, 62, 100
3, 890130, Note_on_c, 0, 62, 0
3, 890130, Note_on_c, 0, 64, 100
3, 890160, Note_on_c, 0, 64, 0
3, 890160, Note_on_c, 0, 57, 100
3, 890280, Note_on_c, 0, 57, 0
3, 890280, Note_on_c, 0, 58, 100
3, 890310, Note_on_c, 0, 58, 0
3, 890310, Note_on_c, 0, 55, 100
3, 890340, Note_on_c, 0, 55, 0
3, 890340, Note_on_c, 0, 53, 100
3, 890370, Note_on_c, 0, 53, 0
3, 890370, Note_on_c, 0, 55, 100
3, 890400, Note_on_c, 0, 55, 0
3, 890400, Note_on_c, 0, 52, 100
3, 890430, Note_on_c, 0, 52, 0
3, 890430, Note_on_c, 0, 53, 100
3, 890460, Note_on_c, 0, 53, 0
3, 890460, Note_on_c, 0, 57, 100
3, 890490, Note_on_c, 0, 57, 0
3, 890490, Note_on_c, 0, 62, 100
3, 890520, Note_on_c, 0, 62, 0
3, 890520, Note_on_c, 0, 60, 100
3, 890550, Note_on_c, 0, 60, 0
3, 890550, Note_on_c, 0, 58, 100
3, 890580, Note_on_c, 0, 58, 0
3, 890580, Note_on_c, 0, 57, 100
3, 890610, Note_on_c, 0, 57, 0
3, 890610, Note_on_c, 0, 58, 100
3, 890640, Note_on_c, 0, 58, 0
3, 890640, Note_on_c, 0, 62, 100
3, 890670, Note_on_c, 0, 62, 0
3, 890670, Note_on_c, 0, 67, 100
3, 890700, Note_on_c, 0, 67, 0
3, 890700, Note_on_c, 0, 61, 100
3, 890730, Note_on_c, 0, 61, 0
3, 890730, Note_on_c, 0, 64, 100
3, 890760, Note_on_c, 0, 64, 0
3, 890760, Note_on_c, 0, 57, 100
3, 890790, Note_on_c, 0, 57, 0
3, 890790, Note_on_c, 0, 58, 100
3, 890820, Note_on_c, 0, 58, 0
3, 890820, Note_on_c, 0, 57, 100
3, 890850, Note_on_c, 0, 57, 0
3, 890850, Note_on_c, 0, 55, 100
3, 890880, Note_on_c, 0, 55, 0
3, 890880, Note_on_c, 0, 53, 100
3, 890910, Note_on_c, 0, 53, 0
3, 890910, Note_on_c, 0, 55, 100
3, 890940, Note_on_c, 0, 55, 0
3, 890940, Note_on_c, 0, 52, 100
3, 890970, Note_on_c, 0, 52, 0
3, 890970, Note_on_c, 0, 53, 100
3, 891030, Note_on_c, 0, 53, 0
3, 891030, Note_on_c, 0, 62, 100
3, 891060, Note_on_c, 0, 62, 0
3, 891060, Note_on_c, 0, 55, 100
3, 891120, Note_on_c, 0, 55, 0
3, 891120, Note_on_c, 0, 53, 100
3, 891150, Note_on_c, 0, 53, 0
3, 891150, Note_on_c, 0, 52, 100
3, 891180, Note_on_c, 0, 52, 0
3, 891180, Note_on_c, 0, 57, 100
3, 891210, Note_on_c, 0, 57, 0
3, 891210, Note_on_c, 0, 55, 100
3, 891240, Note_on_c, 0, 55, 0
3, 891240, Note_on_c, 0, 53, 100
3, 891270, Note_on_c, 0, 53, 0
3, 891270, Note_on_c, 0, 52, 100
3, 891300, Note_on_c, 0, 52, 0
3, 891300, Note_on_c, 0, 50, 100
3, 891330, Note_on_c, 0, 50, 0
3, 891330, Note_on_c, 0, 50, 100
3, 891345, Note_on_c, 0, 50, 0
3, 891345, Note_on_c, 0, 49, 100
3, 891360, Note_on_c, 0, 49, 0
3, 891360, Note_on_c, 0, 50, 100
3, 891375, Note_on_c, 0, 50, 0
3, 891375, Note_on_c, 0, 49, 100
3, 891390, Note_on_c, 0, 49, 0
3, 891390, Note_on_c, 0, 50, 100
3, 891405, Note_on_c, 0, 50, 0
3, 891405, Note_on_c, 0, 49, 100
3, 891420, Note_on_c, 0, 49, 0
3, 891420, Note_on_c, 0, 50, 100
3, 891600, Note_on_c, 0, 50, 0
3, 891690, Note_on_c, 0, 57, 100
3, 891870, Note_on_c, 0, 57, 0
3, 891870, Note_on_c, 0, 50, 100
3, 892230, Note_on_c, 0, 50, 0
3, 892230, Note_on_c, 0, 53, 100
3, 892590, Note_on_c, 0, 53, 0
3, 892590, Note_on_c, 0, 57, 100
3, 892950, Note_on_c, 0, 57, 0
3, 892950, Note_on_c, 0, 58, 100
3, 893310, Note_on_c, 0, 58, 0
3, 893310, Note_on_c, 0, 57, 100
3, 893670, Note_on_c, 0, 57, 0
3, 893670, Note_on_c, 0, 55, 100
3, 894030, Note_on_c, 0, 55, 0
3, 894030, Note_on_c, 0, 53, 100
3, 894330, Note_on_c, 0, 53, 0
3, 894330, Note_on_c, 0, 52, 100
3, 894390, Note_on_c, 0, 52, 0
3, 894390, Note_on_c, 0, 53, 100
3, 894510, Note_on_c, 0, 53, 0
3, 894510, Note_on_c, 0, 55, 100
3, 894570, Note_on_c, 0, 55, 0
3, 894570, Note_on_c, 0, 57, 100
3, 894630, Note_on_c, 0, 57, 0
3, 894630, Note_on_c, 0, 55, 100
3, 894690, Note_on_c, 0, 55, 0
3, 894690, Note_on_c, 0, 57, 100
3, 894750, Note_on_c, 0, 57, 0
3, 894750, Note_on_c, 0, 58, 100
3, 894810, Note_on_c, 0, 58, 0
3, 894810, Note_on_c, 0, 57, 100
3, 894870, Note_on_c, 0, 57, 0
3, 894870, Note_on_c, 0, 55, 100
3, 894930, Note_on_c, 0, 55, 0
3, 894930, Note_on_c, 0, 53, 100
3, 894990, Note_on_c, 0, 53, 0
3, 894990, Note_on_c, 0, 55, 100
3, 895050, Note_on_c, 0, 55, 0
3, 895050, Note_on_c, 0, 52, 100
3, 895110, Note_on_c, 0, 52, 0
3, 895110, Note_on_c, 0, 50, 100
3, 895170, Note_on_c, 0, 50, 0
3, 895170, Note_on_c, 0, 52, 100
3, 895230, Note_on_c, 0, 52, 0
3, 895230, Note_on_c, 0, 49, 100
3, 895290, Note_on_c, 0, 49, 0
3, 895290, Note_on_c, 0, 50, 100
3, 895350, Note_on_c, 0, 50, 0
3, 895350, Note_on_c, 0, 57, 100
3, 895410, Note_on_c, 0, 57, 0
3, 895410, Note_on_c, 0, 62, 100
3, 895470, Note_on_c, 0, 62, 0
3, 895470, Note_on_c, 0, 60, 100
3, 895530, Note_on_c, 0, 60, 0
3, 895530, Note_on_c, 0, 62, 100
3, 895590, Note_on_c, 0, 62, 0
3, 895590, Note_on_c, 0, 58, 100
3, 895650, Note_on_c, 0, 58, 0
3, 895650, Note_on_c, 0, 57, 100
3, 895710, Note_on_c, 0, 57, 0
3, 895710, Note_on_c, 0, 58, 100
3, 895770, Note_on_c, 0, 58, 0
3, 895770, Note_on_c, 0, 55, 100
3, 895830, Note_on_c, 0, 55, 0
3, 895830, Note_on_c, 0, 53, 100
3, 895890, Note_on_c, 0, 53, 0
3, 895890, Note_on_c, 0, 55, 100
3, 895950, Note_on_c, 0, 55, 0
3, 895950, Note_on_c, 0, 52, 100
3, 896010, Note_on_c, 0, 52, 0
3, 896010, Note_on_c, 0, 53, 100
3, 896070, Note_on_c, 0, 53, 0
3, 896070, Note_on_c, 0, 50, 100
3, 896130, Note_on_c, 0, 50, 0
3, 896130, Note_on_c, 0, 52, 100
3, 896190, Note_on_c, 0, 52, 0
3, 896190, Note_on_c, 0, 53, 100
3, 896250, Note_on_c, 0, 53, 0
3, 896250, Note_on_c, 0, 57, 100
3, 896310, Note_on_c, 0, 57, 0
3, 896310, Note_on_c, 0, 55, 100
3, 896370, Note_on_c, 0, 55, 0
3, 896370, Note_on_c, 0, 57, 100
3, 896430, Note_on_c, 0, 57, 0
3, 896430, Note_on_c, 0, 58, 100
3, 896490, Note_on_c, 0, 58, 0
3, 896490, Note_on_c, 0, 60, 100
3, 896550, Note_on_c, 0, 60, 0
3, 896550, Note_on_c, 0, 62, 100
3, 896610, Note_on_c, 0, 62, 0
3, 896610, Note_on_c, 0, 64, 100
3, 896670, Note_on_c, 0, 64, 0
3, 896670, Note_on_c, 0, 61, 100
3, 896730, Note_on_c, 0, 61, 0
3, 896730, Note_on_c, 0, 62, 100
3, 896790, Note_on_c, 0, 62, 0
3, 896790, Note_on_c, 0, 50, 100
3, 896850, Note_on_c, 0, 50, 0
3, 896850, Note_on_c, 0, 62, 100
3, 896970, Note_on_c, 0, 62, 0
3, 896970, Note_on_c, 0, 61, 100
3, 897030, Note_on_c, 0, 61, 0
3, 897030, Note_on_c, 0, 64, 100
3, 897090, Note_on_c, 0, 64, 0
3, 897090, Note_on_c, 0, 62, 100
3, 897150, Note_on_c, 0, 62, 0
3, 897150, Note_on_c, 0, 64, 100
3, 897210, Note_on_c, 0, 64, 0
3, 897210, Note_on_c, 0, 65, 100
3, 897270, Note_on_c, 0, 65, 0
3, 897270, Note_on_c, 0, 64, 100
3, 897330, Note_on_c, 0, 64, 0
3, 897330, Note_on_c, 0, 65, 100
3, 897390, Note_on_c, 0, 65, 0
3, 897390, Note_on_c, 0, 62, 100
3, 897450, Note_on_c, 0, 62, 0
3, 897450, Note_on_c, 0, 60, 100
3, 897630, Note_on_c, 0, 60, 0
3, 897630, Note_on_c, 0, 53, 100
3, 897990, Note_on_c, 0, 53, 0
3, 897990, Note_on_c, 0, 57, 100
3, 898350, Note_on_c, 0, 57, 0
3, 898350, Note_on_c, 0, 60, 100
3, 898710, Note_on_c, 0, 60, 0
3, 898710, Note_on_c, 0, 62, 100
3, 899070, Note_on_c, 0, 62, 0
3, 899070, Note_on_c, 0, 60, 100
3, 899430, Note_on_c, 0, 60, 0
3, 899430, Note_on_c, 0, 58, 100
3, 899790, Note_on_c, 0, 58, 0
3, 899790, Note_on_c, 0, 57, 100
3, 900090, Note_on_c, 0, 57, 0
3, 900090, Note_on_c, 0, 55, 100
3, 900150, Note_on_c, 0, 55, 0
3, 900150, Note_on_c, 0, 57, 100
3, 900270, Note_on_c, 0, 57, 0
3, 900270, Note_on_c, 0, 59, 100
3, 900330, Note_on_c, 0, 59, 0
3, 900330, Note_on_c, 0, 60, 100
3, 900390, Note_on_c, 0, 60, 0
3, 900390, Note_on_c, 0, 59, 100
3, 900450, Note_on_c, 0, 59, 0
3, 900450, Note_on_c, 0, 60, 100
3, 900570, Note_on_c, 0, 60, 0
3, 900570, Note_on_c, 0, 62, 100
3, 900630, Note_on_c, 0, 62, 0
3, 900630, Note_on_c, 0, 64, 100
3, 900690, Note_on_c, 0, 64, 0
3, 900690, Note_on_c, 0, 62, 100
3, 900750, Note_on_c, 0, 62, 0
3, 900750, Note_on_c, 0, 64, 100
3, 900810, Note_on_c, 0, 64, 0
3, 900810, Note_on_c, 0, 65, 100
3, 900870, Note_on_c, 0, 65, 0
3, 900870, Note_on_c, 0, 64, 100
3, 900930, Note_on_c, 0, 64, 0
3, 900930, Note_on_c, 0, 65, 100
3, 900990, Note_on_c, 0, 65, 0
3, 900990, Note_on_c, 0, 67, 100
3, 901050, Note_on_c, 0, 67, 0
3, 901050, Note_on_c, 0, 65, 100
3, 901110, Note_on_c, 0, 65, 0
3, 901110, Note_on_c, 0, 67, 100
3, 901170, Note_on_c, 0, 67, 0
3, 901170, Note_on_c, 0, 69, 100
3, 901230, Note_on_c, 0, 69, 0
3, 901230, Note_on_c, 0, 67, 100
3, 901290, Note_on_c, 0, 67, 0
3, 901290, Note_on_c, 0, 69, 100
3, 901350, Note_on_c, 0, 69, 0
3, 901350, Note_on_c, 0, 70, 100
3, 901410, Note_on_c, 0, 70, 0
3, 901410, Note_on_c, 0, 69, 100
3, 901470, Note_on_c, 0, 69, 0
3, 901470, Note_on_c, 0, 67, 100
3, 901530, Note_on_c, 0, 67, 0
3, 901530, Note_on_c, 0, 69, 100
3, 901650, Note_on_c, 0, 69, 0
3, 901650, Note_on_c, 0, 65, 100
3, 901710, Note_on_c, 0, 65, 0
3, 901710, Note_on_c, 0, 62, 100
3, 901770, Note_on_c, 0, 62, 0
3, 901770, Note_on_c, 0, 58, 100
3, 901830, Note_on_c, 0, 58, 0
3, 901830, Note_on_c, 0, 57, 100
3, 901890, Note_on_c, 0, 57, 0
3, 901890, Note_on_c, 0, 58, 100
3, 902010, Note_on_c, 0, 58, 0
3, 902010, Note_on_c, 0, 67, 100
3, 902070, Note_on_c, 0, 67, 0
3, 902070, Note_on_c, 0, 58, 100
3, 902130, Note_on_c, 0, 58, 0
3, 902130, Note_on_c, 0, 57, 100
3, 902190, Note_on_c, 0, 57, 0
3, 902190, Note_on_c, 0, 55, 100
3, 902250, Note_on_c, 0, 55, 0
3, 902250, Note_on_c, 0, 57, 100
3, 902370, Note_on_c, 0, 57, 0
3, 902370, Note_on_c, 0, 65, 100
3, 902430, Note_on_c, 0, 65, 0
3, 902430, Note_on_c, 0, 57, 100
3, 902490, Note_on_c, 0, 57, 0
3, 902490, Note_on_c, 0, 55, 100
3, 902550, Note_on_c, 0, 55, 0
3, 902550, Note_on_c, 0, 53, 100
3, 902610, Note_on_c, 0, 53, 0
3, 902610, Note_on_c, 0, 55, 100
3, 902730, Note_on_c, 0, 55, 0
3, 902730, Note_on_c, 0, 64, 100
3, 902790, Note_on_c, 0, 64, 0
3, 902790, Note_on_c, 0, 55, 100
3, 902850, Note_on_c, 0, 55, 0
3, 902850, Note_on_c, 0, 53, 100
3, 902910, Note_on_c, 0, 53, 0
3, 902910, Note_on_c, 0, 52, 100
3, 902970, Note_on_c, 0, 52, 0
3, 902970, Note_on_c, 0, 53, 100
3, 903090, Note_on_c, 0, 53, 0
3, 903090, Note_on_c, 0, 52, 100
3, 903150, Note_on_c, 0, 52, 0
3, 903150, Note_on_c, 0, 50, 100
3, 903210, Note_on_c, 0, 50, 0
3, 903210, Note_on_c, 0, 55, 100
3, 903330, Note_on_c, 0, 55, 0
3, 903330, Note_on_c, 0, 52, 100
3, 903390, Note_on_c, 0, 52, 0
3, 903390, Note_on_c, 0, 48, 100
3, 903570, Note_on_c, 0, 48, 0
3, 903750, Note_on_c, 0, 60, 100
3, 903990, Note_on_c, 0, 60, 0
3, 903990, Note_on_c, 0, 58, 100
3, 904020, Note_on_c, 0, 58, 0
3, 904020, Note_on_c, 0, 57, 100
3, 904050, Note_on_c, 0, 57, 0
3, 904050, Note_on_c, 0, 55, 100
3, 904080, Note_on_c, 0, 55, 0
3, 904080, Note_on_c, 0, 53, 100
3, 904110, Note_on_c, 0, 53, 0
3, 904110, Note_on_c, 0, 64, 100
3, 904410, Note_on_c, 0, 64, 0
3, 904410, Note_on_c, 0, 60, 100
3, 904470, Note_on_c, 0, 60, 0
3, 904470, Note_on_c, 0, 65, 100
3, 904830, Note_on_c, 0, 65, 0
3, 904830, Note_on_c, 0, 64, 100
3, 905010, Note_on_c, 0, 64, 0
3, 905010, Note_on_c, 0, 63, 100
3, 905190, Note_on_c, 0, 63, 0
3, 905190, Note_on_c, 0, 62, 100
3, 905370, Note_on_c, 0, 62, 0
3, 905370, Note_on_c, 0, 61, 100
3, 905550, Note_on_c, 0, 61, 0
3, 905550, Note_on_c, 0, 60, 100
3, 905850, Note_on_c, 0, 60, 0
3, 905850, Note_on_c, 0, 65, 100
3, 905910, Note_on_c, 0, 65, 0
3, 905910, Note_on_c, 0, 59, 100
3, 905970, Note_on_c, 0, 59, 0
3, 905970, Note_on_c, 0, 61, 100
3, 906030, Note_on_c, 0, 61, 0
3, 906030, Note_on_c, 0, 62, 100
3, 906150, Note_on_c, 0, 62, 0
3, 906150, Note_on_c, 0, 61, 100
3, 906180, Note_on_c, 0, 61, 0
3, 906180, Note_on_c, 0, 59, 100
3, 906210, Note_on_c, 0, 59, 0
3, 906210, Note_on_c, 0, 61, 100
3, 906270, Note_on_c, 0, 61, 0
3, 906330, Note_on_c, 0, 70, 100
3, 906360, Note_on_c, 0, 70, 0
3, 906360, Note_on_c, 0, 69, 100
3, 906390, Note_on_c, 0, 69, 0
3, 906390, Note_on_c, 0, 67, 100
3, 906420, Note_on_c, 0, 67, 0
3, 906420, Note_on_c, 0, 65, 100
3, 906450, Note_on_c, 0, 65, 0
3, 906450, Note_on_c, 0, 64, 100
3, 906480, Note_on_c, 0, 64, 0
3, 906480, Note_on_c, 0, 65, 100
3, 906510, Note_on_c, 0, 65, 0
3, 906510, Note_on_c, 0, 67, 100
3, 906540, Note_on_c, 0, 67, 0
3, 906540, Note_on_c, 0, 65, 100
3, 906570, Note_on_c, 0, 65, 0
3, 906570, Note_on_c, 0, 64, 100
3, 906600, Note_on_c, 0, 64, 0
3, 906600, Note_on_c, 0, 62, 100
3, 906630, Note_on_c, 0, 62, 0
3, 906630, Note_on_c, 0, 61, 100
3, 906690, Note_on_c, 0, 61, 0
3, 906690, Note_on_c, 0, 64, 100
3, 906750, Note_on_c, 0, 64, 0
3, 906750, Note_on_c, 0, 67, 100
3, 906810, Note_on_c, 0, 67, 0
3, 906810, Note_on_c, 0, 57, 100
3, 906870, Note_on_c, 0, 57, 0
3, 906870, Note_on_c, 0, 61, 100
3, 906930, Note_on_c, 0, 61, 0
3, 906930, Note_on_c, 0, 64, 100
3, 906990, Note_on_c, 0, 64, 0
3, 907050, Note_on_c, 0, 61, 100
3, 907110, Note_on_c, 0, 61, 0
3, 907110, Note_on_c, 0, 62, 100
3, 907170, Note_on_c, 0, 62, 0
3, 907170, Note_on_c, 0, 64, 100
3, 907230, Note_on_c, 0, 64, 0
3, 907230, Note_on_c, 0, 65, 100
3, 907290, Note_on_c, 0, 65, 0
3, 907290, Note_on_c, 0, 67, 100
3, 907380, Note_on_c, 0, 67, 0
3, 907380, Note_on_c, 0, 65, 100
3, 907410, Note_on_c, 0, 65, 0
3, 907410, Note_on_c, 0, 64, 100
3, 907440, Note_on_c, 0, 64, 0
3, 907440, Note_on_c, 0, 65, 100
3, 907470, Note_on_c, 0, 65, 0
3, 907470, Note_on_c, 0, 67, 100
3, 907500, Note_on_c, 0, 67, 0
3, 907500, Note_on_c, 0, 64, 100
3, 907530, Note_on_c, 0, 64, 0
3, 907530, Note_on_c, 0, 65, 100
3, 907560, Note_on_c, 0, 65, 0
3, 907560, Note_on_c, 0, 64, 100
3, 907590, Note_on_c, 0, 64, 0
3, 907590, Note_on_c, 0, 62, 100
3, 907620, Note_on_c, 0, 62, 0
3, 907620, Note_on_c, 0, 61, 100
3, 907650, Note_on_c, 0, 61, 0
3, 907650, Note_on_c, 0, 62, 100
3, 907770, Note_on_c, 0, 62, 0
3, 907770, Note_on_c, 0, 61, 100
3, 907830, Note_on_c, 0, 61, 0
3, 907830, Note_on_c, 0, 59, 100
3, 907890, Note_on_c, 0, 59, 0
3, 907890, Note_on_c, 0, 61, 100
3, 907920, Note_on_c, 0, 61, 0
3, 907920, Note_on_c, 0, 59, 100
3, 907950, Note_on_c, 0, 59, 0
3, 907950, Note_on_c, 0, 57, 100
3, 907980, Note_on_c, 0, 57, 0
3, 907980, Note_on_c, 0, 59, 100
3, 908010, Note_on_c, 0, 59, 0
3, 908010, Note_on_c, 0, 60, 100
3, 908130, Note_on_c, 0, 60, 0
3, 908130, Note_on_c, 0, 59, 100
3, 908190, Note_on_c, 0, 59, 0
3, 908190, Note_on_c, 0, 57, 100
3, 908250, Note_on_c, 0, 57, 0
3, 908250, Note_on_c, 0, 59, 100
3, 908280, Note_on_c, 0, 59, 0
3, 908280, Note_on_c, 0, 57, 100
3, 908310, Note_on_c, 0, 57, 0
3, 908310, Note_on_c, 0, 55, 100
3, 908340, Note_on_c, 0, 55, 0
3, 908340, Note_on_c, 0, 57, 100
3, 908370, Note_on_c, 0, 57, 0
3, 908370, Note_on_c, 0, 58, 100
3, 908490, Note_on_c, 0, 58, 0
3, 908490, Note_on_c, 0, 57, 100
3, 908550, Note_on_c, 0, 57, 0
3, 908550, Note_on_c, 0, 56, 100
3, 908610, Note_on_c, 0, 56, 0
3, 908610, Note_on_c, 0, 57, 100
3, 908940, Note_on_c, 0, 57, 0
3, 908940, Note_on_c, 0, 68, 100
3, 908970, Note_on_c, 0, 68, 0
3, 908970, Note_on_c, 0, 69, 100
3, 909090, Note_on_c, 0, 69, 0
3, 909090, Note_on_c, 0, 57, 100
3, 909150, Note_on_c, 0, 57, 0
3, 909150, Note_on_c, 0, 62, 100
3, 909390, Note_on_c, 0, 62, 0
3, 909390, Note_on_c, 0, 61, 100
3, 909450, Note_on_c, 0, 61, 0
3, 909450, Note_on_c, 0, 62, 100
3, 909510, Note_on_c, 0, 62, 0
3, 909510, Note_on_c, 0, 67, 100
3, 909750, Note_on_c, 0, 67, 0
3, 909750, Note_on_c, 0, 65, 100
3, 909780, Note_on_c, 0, 65, 0
3, 909780, Note_on_c, 0, 64, 100
3, 909810, Note_on_c, 0, 64, 0
3, 909810, Note_on_c, 0, 62, 100
3, 909840, Note_on_c, 0, 62, 0
3, 909840, Note_on_c, 0, 61, 100
3, 909870, Note_on_c, 0, 61, 0
3, 909870, Note_on_c, 0, 70, 100
3, 910170, Note_on_c, 0, 70, 0
3, 910170, Note_on_c, 0, 62, 100
3, 910230, Note_on_c, 0, 62, 0
3, 910230, Note_on_c, 0, 61, 100
3, 910290, Note_on_c, 0, 61, 0
3, 910290, Note_on_c, 0, 62, 100
3, 910350, Note_on_c, 0, 62, 0
3, 910350, Note_on_c, 0, 64, 100
3, 910470, Note_on_c, 0, 64, 0
3, 910470, Note_on_c, 0, 69, 100
3, 910530, Note_on_c, 0, 69, 0
3, 910530, Note_on_c, 0, 62, 100
3, 910590, Note_on_c, 0, 62, 0
3, 910590, Note_on_c, 0, 67, 100
3, 910890, Note_on_c, 0, 67, 0
3, 910890, Note_on_c, 0, 60, 100
3, 910950, Note_on_c, 0, 60, 0
3, 910950, Note_on_c, 0, 65, 100
3, 911250, Note_on_c, 0, 65, 0
3, 911250, Note_on_c, 0, 55, 100
3, 911310, Note_on_c, 0, 55, 0
3, 911310, Note_on_c, 0, 64, 100
3, 911550, Note_on_c, 0, 64, 0
3, 911550, Note_on_c, 0, 62, 100
3, 911610, Note_on_c, 0, 62, 0
3, 911610, Note_on_c, 0, 60, 100
3, 911670, Note_on_c, 0, 60, 0
3, 911670, Note_on_c, 0, 62, 100
3, 911730, Note_on_c, 0, 62, 0
3, 911730, Note_on_c, 0, 64, 100
3, 911790, Note_on_c, 0, 64, 0
3, 911790, Note_on_c, 0, 65, 100
3, 911850, Note_on_c, 0, 65, 0
3, 911850, Note_on_c, 0, 64, 100
3, 911910, Note_on_c, 0, 64, 0
3, 911910, Note_on_c, 0, 57, 100
3, 911970, Note_on_c, 0, 57, 0
3, 912060, Note_on_c, 0, 70, 100
3, 912090, Note_on_c, 0, 70, 0
3, 912090, Note_on_c, 0, 69, 100
3, 912120, Note_on_c, 0, 69, 0
3, 912120, Note_on_c, 0, 67, 100
3, 912150, Note_on_c, 0, 67, 0
3, 912150, Note_on_c, 0, 65, 100
3, 912180, Note_on_c, 0, 65, 0
3, 912180, Note_on_c, 0, 64, 100
3, 912210, Note_on_c, 0, 64, 0
3, 912210, Note_on_c, 0, 62, 100
3, 912420, Note_on_c, 0, 62, 0
3, 912420, Note_on_c, 0, 65, 100
3, 912450, Note_on_c, 0, 65, 0
3, 912450, Note_on_c, 0, 67, 100
3, 912480, Note_on_c, 0, 67, 0
3, 912480, Note_on_c, 0, 65, 100
3, 912510, Note_on_c, 0, 65, 0
3, 912510, Note_on_c, 0, 64, 100
3, 912540, Note_on_c, 0, 64, 0
3, 912540, Note_on_c, 0, 62, 100
3, 912570, Note_on_c, 0, 62, 0
3, 912570, Note_on_c, 0, 61, 100
3, 912630, Note_on_c, 0, 61, 0
3, 912630, Note_on_c, 0, 62, 100
3, 912690, Note_on_c, 0, 62, 0
3, 912690, Note_on_c, 0, 64, 100
3, 912750, Note_on_c, 0, 64, 0
3, 912750, Note_on_c, 0, 65, 100
3, 912780, Note_on_c, 0, 65, 0
3, 912780, Note_on_c, 0, 64, 100
3, 912810, Note_on_c, 0, 64, 0
3, 912810, Note_on_c, 0, 62, 100
3, 912840, Note_on_c, 0, 62, 0
3, 912840, Note_on_c, 0, 64, 100
3, 912870, Note_on_c, 0, 64, 0
3, 912870, Note_on_c, 0, 65, 100
3, 912930, Note_on_c, 0, 65, 0
3, 912930, Note_on_c, 0, 67, 100
3, 912990, Note_on_c, 0, 67, 0
3, 912990, Note_on_c, 0, 69, 100
3, 913050, Note_on_c, 0, 69, 0
3, 913050, Note_on_c, 0, 70, 100
3, 913170, Note_on_c, 0, 70, 0
3, 913170, Note_on_c, 0, 69, 100
3, 913230, Note_on_c, 0, 69, 0
3, 913230, Note_on_c, 0, 67, 100
3, 913290, Note_on_c, 0, 67, 0
3, 913290, Note_on_c, 0, 69, 100
3, 913320, Note_on_c, 0, 69, 0
3, 913320, Note_on_c, 0, 67, 100
3, 913350, Note_on_c, 0, 67, 0
3, 913350, Note_on_c, 0, 65, 100
3, 913380, Note_on_c, 0, 65, 0
3, 913380, Note_on_c, 0, 64, 100
3, 913410, Note_on_c, 0, 64, 0
3, 913410, Note_on_c, 0, 65, 100
3, 913530, Note_on_c, 0, 65, 0
3, 913530, Note_on_c, 0, 67, 100
3, 913590, Note_on_c, 0, 67, 0
3, 913590, Note_on_c, 0, 65, 100
3, 913650, Note_on_c, 0, 65, 0
3, 913650, Note_on_c, 0, 64, 100
3, 913710, Note_on_c, 0, 64, 0
3, 913710, Note_on_c, 0, 62, 100
3, 913770, Note_on_c, 0, 62, 0
3, 913770, Note_on_c, 0, 64, 100
3, 913890, Note_on_c, 0, 64, 0
3, 913890, Note_on_c, 0, 62, 100
3, 913920, Note_on_c, 0, 62, 0
3, 913920, Note_on_c, 0, 60, 100
3, 913950, Note_on_c, 0, 60, 0
3, 913950, Note_on_c, 0, 58, 100
3, 913980, Note_on_c, 0, 58, 0
3, 913980, Note_on_c, 0, 57, 100
3, 914010, Note_on_c, 0, 57, 0
3, 914010, Note_on_c, 0, 62, 100
3, 914070, Note_on_c, 0, 62, 0
3, 914070, Note_on_c, 0, 61, 100
3, 914130, Note_on_c, 0, 61, 0
3, 914130, Note_on_c, 0, 62, 100
3, 914250, Note_on_c, 0, 62, 0
3, 914250, Note_on_c, 0, 64, 100
3, 914310, Note_on_c, 0, 64, 0
3, 914310, Note_on_c, 0, 62, 100
3, 914370, Note_on_c, 0, 62, 0
3, 914370, Note_on_c, 0, 61, 100
3, 914430, Note_on_c, 0, 61, 0
3, 914430, Note_on_c, 0, 62, 100
3, 914490, Note_on_c, 0, 62, 0
3, 914490, Note_on_c, 0, 64, 100
3, 914550, Note_on_c, 0, 64, 0
3, 914550, Note_on_c, 0, 57, 100
3, 914610, Note_on_c, 0, 57, 0
3, 914610, Note_on_c, 0, 61, 100
3, 914670, Note_on_c, 0, 61, 0
3, 914670, Note_on_c, 0, 59, 100
3, 914730, Note_on_c, 0, 59, 0
3, 914730, Note_on_c, 0, 61, 100
3, 914760, Note_on_c, 0, 61, 0
3, 914760, Note_on_c, 0, 62, 100
3, 914790, Note_on_c, 0, 62, 0
3, 914790, Note_on_c, 0, 64, 100
3, 914820, Note_on_c, 0, 64, 0
3, 914820, Note_on_c, 0, 65, 100
3, 914850, Note_on_c, 0, 65, 0
3, 914850, Note_on_c, 0, 67, 100
3, 914880, Note_on_c, 0, 67, 0
3, 914880, Note_on_c, 0, 64, 100
3, 914910, Note_on_c, 0, 64, 0
3, 914910, Note_on_c, 0, 65, 100
3, 914940, Note_on_c, 0, 65, 0
3, 914940, Note_on_c, 0, 67, 100
3, 914970, Note_on_c, 0, 67, 0
3, 914970, Note_on_c, 0, 69, 100
3, 915030, Note_on_c, 0, 69, 0
3, 915030, Note_on_c, 0, 61, 100
3, 915090, Note_on_c, 0, 61, 0
3, 915090, Note_on_c, 0, 62, 100
3, 915120, Note_on_c, 0, 62, 0
3, 915120, Note_on_c, 0, 65, 100
3, 915150, Note_on_c, 0, 65, 0
3, 915150, Note_on_c, 0, 64, 100
3, 915180, Note_on_c, 0, 64, 0
3, 915180, Note_on_c, 0, 62, 100
3, 915210, Note_on_c, 0, 62, 0
3, 915210, Note_on_c, 0, 61, 100
3, 915240, Note_on_c, 0, 61, 0
3, 915240, Note_on_c, 0, 59, 100
3, 915270, Note_on_c, 0, 59, 0
3, 915270, Note_on_c, 0, 57, 100
3, 915330, Note_on_c, 0, 57, 0
3, 915330, Note_on_c, 0, 61, 100
3, 915390, Note_on_c, 0, 61, 0
3, 915390, Note_on_c, 0, 64, 100
3, 915450, Note_on_c, 0, 64, 0
3, 915450, Note_on_c, 0, 69, 100
3, 915870, Note_on_c, 0, 69, 0
3, 915870, Note_on_c, 0, 67, 100
3, 915930, Note_on_c, 0, 67, 0
3, 915930, Note_on_c, 0, 65, 100
3, 915990, Note_on_c, 0, 65, 0
3, 915990, Note_on_c, 0, 64, 100
3, 916290, Note_on_c, 0, 64, 0
3, 916290, Note_on_c, 0, 69, 100
3, 916350, Note_on_c, 0, 69, 0
3, 916350, Note_on_c, 0, 62, 100
3, 916650, Note_on_c, 0, 62, 0
3, 916650, Note_on_c, 0, 70, 100
3, 916710, Note_on_c, 0, 70, 0
3, 916710, Note_on_c, 0, 61, 100
3, 916770, Note_on_c, 0, 61, 0
3, 916770, Note_on_c, 0, 64, 100
3, 916830, Note_on_c, 0, 64, 0
3, 916830, Note_on_c, 0, 69, 100
3, 916890, Note_on_c, 0, 69, 0
3, 916890, Note_on_c, 0, 57, 100
3, 917010, Note_on_c, 0, 57, 0
3, 917010, Note_on_c, 0, 62, 100
3, 917070, Note_on_c, 0, 62, 0
3, 917070, Note_on_c, 0, 58, 100
3, 917310, Note_on_c, 0, 58, 0
3, 917310, Note_on_c, 0, 57, 100
3, 917370, Note_on_c, 0, 57, 0
3, 917370, Note_on_c, 0, 55, 100
3, 917430, Note_on_c, 0, 55, 0
3, 917430, Note_on_c, 0, 57, 100
3, 917670, Note_on_c, 0, 57, 0
3, 917670, Note_on_c, 0, 64, 100
3, 917730, Note_on_c, 0, 64, 0
3, 917730, Note_on_c, 0, 60, 100
3, 917790, Note_on_c, 0, 60, 0
3, 917850, Note_on_c, 0, 69, 100
3, 917880, Note_on_c, 0, 69, 0
3, 917880, Note_on_c, 0, 67, 100
3, 917910, Note_on_c, 0, 67, 0
3, 917910, Note_on_c, 0, 65, 100
3, 917940, Note_on_c, 0, 65, 0
3, 917940, Note_on_c, 0, 67, 100
3, 917970, Note_on_c, 0, 67, 0
3, 917970, Note_on_c, 0, 65, 100
3, 918180, Note_on_c, 0, 65, 0
3, 918180, Note_on_c, 0, 69, 100
3, 918210, Note_on_c, 0, 69, 0
3, 918210, Note_on_c, 0, 67, 100
3, 918240, Note_on_c, 0, 67, 0
3, 918240, Note_on_c, 0, 65, 100
3, 918270, Note_on_c, 0, 65, 0
3, 918270, Note_on_c, 0, 64, 100
3, 918300, Note_on_c, 0, 64, 0
3, 918300, Note_on_c, 0, 62, 100
3, 918330, Note_on_c, 0, 62, 0
3, 918330, Note_on_c, 0, 60, 100
3, 918360, Note_on_c, 0, 60, 0
3, 918360, Note_on_c, 0, 58, 100
3, 918390, Note_on_c, 0, 58, 0
3, 918390, Note_on_c, 0, 57, 100
3, 918420, Note_on_c, 0, 57, 0
3, 918420, Note_on_c, 0, 58, 100
3, 918450, Note_on_c, 0, 58, 0
3, 918450, Note_on_c, 0, 60, 100
3, 918480, Note_on_c, 0, 60, 0
3, 918480, Note_on_c, 0, 62, 100
3, 918510, Note_on_c, 0, 62, 0
3, 918510, Note_on_c, 0, 64, 100
3, 918540, Note_on_c, 0, 64, 0
3, 918540, Note_on_c, 0, 62, 100
3, 918570, Note_on_c, 0, 62, 0
3, 918570, Note_on_c, 0, 64, 100
3, 918600, Note_on_c, 0, 64, 0
3, 918600, Note_on_c, 0, 66, 100
3, 918630, Note_on_c, 0, 66, 0
3, 918630, Note_on_c, 0, 67, 100
3, 918660, Note_on_c, 0, 67, 0
3, 918660, Note_on_c, 0, 64, 100
3, 918690, Note_on_c, 0, 64, 0
3, 918690, Note_on_c, 0, 65, 100
3, 918720, Note_on_c, 0, 65, 0
3, 918720, Note_on_c, 0, 62, 100
3, 918750, Note_on_c, 0, 62, 0
3, 918750, Note_on_c, 0, 64, 100
3, 918780, Note_on_c, 0, 64, 0
3, 918780, Note_on_c, 0, 65, 100
3, 918810, Note_on_c, 0, 65, 0
3, 918810, Note_on_c, 0, 67, 100
3, 918840, Note_on_c, 0, 67, 0
3, 918840, Note_on_c, 0, 69, 100
3, 918870, Note_on_c, 0, 69, 0
3, 918870, Note_on_c, 0, 70, 100
3, 918900, Note_on_c, 0, 70, 0
3, 918900, Note_on_c, 0, 69, 100
3, 918930, Note_on_c, 0, 69, 0
3, 918930, Note_on_c, 0, 67, 100
3, 918960, Note_on_c, 0, 67, 0
3, 918960, Note_on_c, 0, 65, 100
3, 918990, Note_on_c, 0, 65, 0
3, 918990, Note_on_c, 0, 64, 100
3, 919020, Note_on_c, 0, 64, 0
3, 919020, Note_on_c, 0, 62, 100
3, 919050, Note_on_c, 0, 62, 0
3, 919050, Note_on_c, 0, 60, 100
3, 919080, Note_on_c, 0, 60, 0
3, 919080, Note_on_c, 0, 64, 100
3, 919110, Note_on_c, 0, 64, 0
3, 919110, Note_on_c, 0, 67, 100
3, 919140, Note_on_c, 0, 67, 0
3, 919140, Note_on_c, 0, 70, 100
3, 919170, Note_on_c, 0, 70, 0
3, 919170, Note_on_c, 0, 69, 100
3, 919200, Note_on_c, 0, 69, 0
3, 919200, Note_on_c, 0, 67, 100
3, 919230, Note_on_c, 0, 67, 0
3, 919230, Note_on_c, 0, 69, 100
3, 919260, Note_on_c, 0, 69, 0
3, 919260, Note_on_c, 0, 67, 100
3, 919290, Note_on_c, 0, 67, 0
3, 919290, Note_on_c, 0, 65, 100
3, 919320, Note_on_c, 0, 65, 0
3, 919320, Note_on_c, 0, 64, 100
3, 919350, Note_on_c, 0, 64, 0
3, 919350, Note_on_c, 0, 62, 100
3, 919380, Note_on_c, 0, 62, 0
3, 919380, Note_on_c, 0, 60, 100
3, 919410, Note_on_c, 0, 60, 0
3, 919410, Note_on_c, 0, 58, 100
3, 919440, Note_on_c, 0, 58, 0
3, 919440, Note_on_c, 0, 60, 100
3, 919470, Note_on_c, 0, 60, 0
3, 919470, Note_on_c, 0, 58, 100
3, 919500, Note_on_c, 0, 58, 0
3, 919500, Note_on_c, 0, 57, 100
3, 919530, Note_on_c, 0, 57, 0
3, 919530, Note_on_c, 0, 55, 100
3, 919560, Note_on_c, 0, 55, 0
3, 919560, Note_on_c, 0, 53, 100
3, 919590, Note_on_c, 0, 53, 0
3, 919590, Note_on_c, 0, 55, 100
3, 919620, Note_on_c, 0, 55, 0
3, 919620, Note_on_c, 0, 58, 100
3, 919650, Note_on_c, 0, 58, 0
3, 919650, Note_on_c, 0, 57, 100
3, 919680, Note_on_c, 0, 57, 0
3, 919680, Note_on_c, 0, 55, 100
3, 919710, Note_on_c, 0, 55, 0
3, 919710, Note_on_c, 0, 53, 100
3, 919740, Note_on_c, 0, 53, 0
3, 919740, Note_on_c, 0, 52, 100
3, 919770, Note_on_c, 0, 52, 0
3, 919770, Note_on_c, 0, 53, 100
3, 919800, Note_on_c, 0, 53, 0
3, 919800, Note_on_c, 0, 50, 100
3, 919830, Note_on_c, 0, 50, 0
3, 919830, Note_on_c, 0, 52, 100
3, 919860, Note_on_c, 0, 52, 0
3, 919860, Note_on_c, 0, 53, 100
3, 919890, Note_on_c, 0, 53, 0
3, 919890, Note_on_c, 0, 55, 100
3, 919920, Note_on_c, 0, 55, 0
3, 919920, Note_on_c, 0, 57, 100
3, 919950, Note_on_c, 0, 57, 0
3, 919950, Note_on_c, 0, 58, 100
3, 920010, Note_on_c, 0, 58, 0
3, 920010, Note_on_c, 0, 57, 100
3, 920070, Note_on_c, 0, 57, 0
3, 920070, Note_on_c, 0, 55, 100
3, 920130, Note_on_c, 0, 55, 0
3, 920130, Note_on_c, 0, 53, 100
3, 920190, Note_on_c, 0, 53, 0
3, 920190, Note_on_c, 0, 55, 100
3, 920250, Note_on_c, 0, 55, 0
3, 920250, Note_on_c, 0, 52, 100
3, 920310, Note_on_c, 0, 52, 0
3, 920310, Note_on_c, 0, 50, 100
3, 920370, Note_on_c, 0, 50, 0
3, 920370, Note_on_c, 0, 52, 100
3, 920430, Note_on_c, 0, 52, 0
3, 920430, Note_on_c, 0, 49, 100
3, 920490, Note_on_c, 0, 49, 0
3, 920490, Note_on_c, 0, 50, 100
3, 920520, Note_on_c, 0, 50, 0
3, 920520, Note_on_c, 0, 52, 100
3, 920550, Note_on_c, 0, 52, 0
3, 920550, Note_on_c, 0, 53, 100
3, 920580, Note_on_c, 0, 53, 0
3, 920580, Note_on_c, 0, 55, 100
3, 920610, Note_on_c, 0, 55, 0
3, 920610, Note_on_c, 0, 57, 100
3, 920640, Note_on_c, 0, 57, 0
3, 920640, Note_on_c, 0, 58, 100
3, 920670, Note_on_c, 0, 58, 0
3, 920670, Note_on_c, 0, 60, 100
3, 920730, Note_on_c, 0, 60, 0
3, 920730, Note_on_c, 0, 62, 100
3, 920790, Note_on_c, 0, 62, 0
3, 920790, Note_on_c, 0, 58, 100
3, 920850, Note_on_c, 0, 58, 0
3, 920850, Note_on_c, 0, 57, 100
3, 920910, Note_on_c, 0, 57, 0
3, 920910, Note_on_c, 0, 58, 100
3, 920970, Note_on_c, 0, 58, 0
3, 920970, Note_on_c, 0, 55, 100
3, 921030, Note_on_c, 0, 55, 0
3, 921030, Note_on_c, 0, 53, 100
3, 921090, Note_on_c, 0, 53, 0
3, 921090, Note_on_c, 0, 55, 100
3, 921150, Note_on_c, 0, 55, 0
3, 921150, Note_on_c, 0, 52, 100
3, 921210, Note_on_c, 0, 52, 0
3, 921210, Note_on_c, 0, 53, 100
3, 921240, Note_on_c, 0, 53, 0
3, 921240, Note_on_c, 0, 57, 100
3, 921270, Note_on_c, 0, 57, 0
3, 921270, Note_on_c, 0, 58, 100
3, 921300, Note_on_c, 0, 58, 0
3, 921300, Note_on_c, 0, 60, 100
3, 921330, Note_on_c, 0, 60, 0
3, 921330, Note_on_c, 0, 62, 100
3, 921360, Note_on_c, 0, 62, 0
3, 921360, Note_on_c, 0, 64, 100
3, 921390, Note_on_c, 0, 64, 0
3, 921390, Note_on_c, 0, 65, 100
3, 921450, Note_on_c, 0, 65, 0
3, 921450, Note_on_c, 0, 67, 100
3, 921510, Note_on_c, 0, 67, 0
3, 921510, Note_on_c, 0, 64, 100
3, 921570, Note_on_c, 0, 64, 0
3, 921570, Note_on_c, 0, 62, 100
3, 921630, Note_on_c, 0, 62, 0
3, 921630, Note_on_c, 0, 61, 100
3, 921690, Note_on_c, 0, 61, 0
3, 921690, Note_on_c, 0, 62, 100
3, 921750, Note_on_c, 0, 62, 0
3, 921750, Note_on_c, 0, 64, 100
3, 921810, Note_on_c, 0, 64, 0
3, 921810, Note_on_c, 0, 65, 100
3, 921870, Note_on_c, 0, 65, 0
3, 921870, Note_on_c, 0, 62, 100
3, 921930, Note_on_c, 0, 62, 0
3, 921930, Note_on_c, 0, 61, 100
3, 921990, Note_on_c, 0, 61, 0
3, 921990, Note_on_c, 0, 59, 100
3, 922050, Note_on_c, 0, 59, 0
3, 922050, Note_on_c, 0, 61, 100
3, 922110, Note_on_c, 0, 61, 0
3, 922110, Note_on_c, 0, 62, 100
3, 922170, Note_on_c, 0, 62, 0
3, 922170, Note_on_c, 0, 64, 100
3, 922230, Note_on_c, 0, 64, 0
3, 922230, Note_on_c, 0, 60, 100
3, 922290, Note_on_c, 0, 60, 0
3, 922290, Note_on_c, 0, 60, 100
3, 922310, Note_on_c, 0, 60, 0
3, 922310, Note_on_c, 0, 58, 100
3, 922330, Note_on_c, 0, 58, 0
3, 922330, Note_on_c, 0, 60, 100
3, 922350, Note_on_c, 0, 60, 0
3, 922350, Note_on_c, 0, 58, 100
3, 922370, Note_on_c, 0, 58, 0
3, 922370, Note_on_c, 0, 60, 100
3, 922390, Note_on_c, 0, 60, 0
3, 922390, Note_on_c, 0, 58, 100
3, 922410, Note_on_c, 0, 58, 0
3, 922410, Note_on_c, 0, 60, 100
3, 922430, Note_on_c, 0, 60, 0
3, 922430, Note_on_c, 0, 58, 100
3, 922450, Note_on_c, 0, 58, 0
3, 922450, Note_on_c, 0, 60, 100
3, 922470, Note_on_c, 0, 60, 0
3, 922470, Note_on_c, 0, 58, 100
3, 922590, Note_on_c, 0, 58, 0
3, 922590, Note_on_c, 0, 58, 100
3, 922650, Note_on_c, 0, 58, 0
3, 922650, Note_on_c, 0, 57, 100
3, 922830, Note_on_c, 0, 57, 0
3, 922830, Note_on_c, 0, 50, 100
3, 923190, Note_on_c, 0, 50, 0
3, 923190, Note_on_c, 0, 53, 100
3, 923550, Note_on_c, 0, 53, 0
3, 923550, Note_on_c, 0, 57, 100
3, 923910, Note_on_c, 0, 57, 0
3, 923910, Note_on_c, 0, 58, 100
3, 924270, Note_on_c, 0, 58, 0
3, 924270, Note_on_c, 0, 57, 100
3, 924630, Note_on_c, 0, 57, 0
3, 924630, Note_on_c, 0, 55, 100
3, 924990, Note_on_c, 0, 55, 0
3, 924990, Note_on_c, 0, 53, 100
3, 925290, Note_on_c, 0, 53, 0
3, 925290, Note_on_c, 0, 52, 100
3, 925350, Note_on_c, 0, 52, 0
3, 925350, Note_on_c, 0, 53, 100
3, 925470, Note_on_c, 0, 53, 0
3, 925470, Note_on_c, 0, 55, 100
3, 925530, Note_on_c, 0, 55, 0
3, 925530, Note_on_c, 0, 57, 100
3, 925590, Note_on_c, 0, 57, 0
3, 925590, Note_on_c, 0, 55, 100
3, 925650, Note_on_c, 0, 55, 0
3, 925650, Note_on_c, 0, 57, 100
3, 925710, Note_on_c, 0, 57, 0
3, 925710, Note_on_c, 0, 58, 100
3, 925770, Note_on_c, 0, 58, 0
3, 925770, Note_on_c, 0, 57, 100
3, 925830, Note_on_c, 0, 57, 0
3, 925830, Note_on_c, 0, 55, 100
3, 925890, Note_on_c, 0, 55, 0
3, 925890, Note_on_c, 0, 53, 100
3, 925950, Note_on_c, 0, 53, 0
3, 925950, Note_on_c, 0, 55, 100
3, 926010, Note_on_c, 0, 55, 0
3, 926010, Note_on_c, 0, 52, 100
3, 926070, Note_on_c, 0, 52, 0
3, 926070, Note_on_c, 0, 50, 100
3, 926130, Note_on_c, 0, 50, 0
3, 926130, Note_on_c, 0, 53, 100
3, 926190, Note_on_c, 0, 53, 0
3, 926190, Note_on_c, 0, 49, 100
3, 926250, Note_on_c, 0, 49, 0
3, 926250, Note_on_c, 0, 50, 100
3, 926310, Note_on_c, 0, 50, 0
3, 926310, Note_on_c, 0, 57, 100
3, 926370, Note_on_c, 0, 57, 0
3, 926370, Note_on_c, 0, 62, 100
3, 926430, Note_on_c, 0, 62, 0
3, 926430, Note_on_c, 0, 60, 100
3, 926490, Note_on_c, 0, 60, 0
3, 926490, Note_on_c, 0, 62, 100
3, 926550, Note_on_c, 0, 62, 0
3, 926550, Note_on_c, 0, 58, 100
3, 926610, Note_on_c, 0, 58, 0
3, 926610, Note_on_c, 0, 57, 100
3, 926670, Note_on_c, 0, 57, 0
3, 926670, Note_on_c, 0, 58, 100
3, 926730, Note_on_c, 0, 58, 0
3, 926730, Note_on_c, 0, 55, 100
3, 926790, Note_on_c, 0, 55, 0
3, 926790, Note_on_c, 0, 53, 100
3, 926850, Note_on_c, 0, 53, 0
3, 926850, Note_on_c, 0, 55, 100
3, 926910, Note_on_c, 0, 55, 0
3, 926910, Note_on_c, 0, 52, 100
3, 926970, Note_on_c, 0, 52, 0
3, 926970, Note_on_c, 0, 53, 100
3, 927030, Note_on_c, 0, 53, 0
3, 927030, Note_on_c, 0, 50, 100
3, 927090, Note_on_c, 0, 50, 0
3, 927090, Note_on_c, 0, 52, 100
3, 927150, Note_on_c, 0, 52, 0
3, 927150, Note_on_c, 0, 53, 100
3, 927210, Note_on_c, 0, 53, 0
3, 927210, Note_on_c, 0, 57, 100
3, 927270, Note_on_c, 0, 57, 0
3, 927270, Note_on_c, 0, 55, 100
3, 927330, Note_on_c, 0, 55, 0
3, 927330, Note_on_c, 0, 57, 100
3, 927390, Note_on_c, 0, 57, 0
3, 927390, Note_on_c, 0, 58, 100
3, 927450, Note_on_c, 0, 58, 0
3, 927450, Note_on_c, 0, 60, 100
3, 927510, Note_on_c, 0, 60, 0
3, 927510, Note_on_c, 0, 62, 100
3, 927570, Note_on_c, 0, 62, 0
3, 927570, Note_on_c, 0, 64, 100
3, 927630, Note_on_c, 0, 64, 0
3, 927630, Note_on_c, 0, 61, 100
3, 927690, Note_on_c, 0, 61, 0
3, 927690, Note_on_c, 0, 62, 100
3, 927750, Note_on_c, 0, 62, 0
3, 927750, Note_on_c, 0, 50, 100
3, 927810, Note_on_c, 0, 50, 0
3, 927810, Note_on_c, 0, 62, 100
3, 927930, Note_on_c, 0, 62, 0
3, 927930, Note_on_c, 0, 61, 100
3, 927990, Note_on_c, 0, 61, 0
3, 927990, Note_on_c, 0, 64, 100
3, 928050, Note_on_c, 0, 64, 0
3, 928050, Note_on_c, 0, 62, 100
3, 928110, Note_on_c, 0, 62, 0
3, 928110, Note_on_c, 0, 64, 100
3, 928170, Note_on_c, 0, 64, 0
3, 928170, Note_on_c, 0, 65, 100
3, 928230, Note_on_c, 0, 65, 0
3, 928230, Note_on_c, 0, 64, 100
3, 928290, Note_on_c, 0, 64, 0
3, 928290, Note_on_c, 0, 65, 100
3, 928350, Note_on_c, 0, 65, 0
3, 928350, Note_on_c, 0, 62, 100
3, 928410, Note_on_c, 0, 62, 0
3, 928410, Note_on_c, 0, 60, 100
3, 928590, Note_on_c, 0, 60, 0
3, 928590, Note_on_c, 0, 53, 100
3, 928950, Note_on_c, 0, 53, 0
3, 928950, Note_on_c, 0, 57, 100
3, 929310, Note_on_c, 0, 57, 0
3, 929310, Note_on_c, 0, 60, 100
3, 929670, Note_on_c, 0, 60, 0
3, 929670, Note_on_c, 0, 62, 100
3, 930030, Note_on_c, 0, 62, 0
3, 930030, Note_on_c, 0, 60, 100
3, 930390, Note_on_c, 0, 60, 0
3, 930390, Note_on_c, 0, 58, 100
3, 930750, Note_on_c, 0, 58, 0
3, 930750, Note_on_c, 0, 57, 100
3, 931050, Note_on_c, 0, 57, 0
3, 931050, Note_on_c, 0, 55, 100
3, 931110, Note_on_c, 0, 55, 0
3, 931110, Note_on_c, 0, 57, 100
3, 931230, Note_on_c, 0, 57, 0
3, 931230, Note_on_c, 0, 59, 100
3, 931290, Note_on_c, 0, 59, 0
3, 931290, Note_on_c, 0, 60, 100
3, 931350, Note_on_c, 0, 60, 0
3, 931350, Note_on_c, 0, 59, 100
3, 931410, Note_on_c, 0, 59, 0
3, 931410, Note_on_c, 0, 60, 100
3, 931530, Note_on_c, 0, 60, 0
3, 931530, Note_on_c, 0, 62, 100
3, 931590, Note_on_c, 0, 62, 0
3, 931590, Note_on_c, 0, 64, 100
3, 931650, Note_on_c, 0, 64, 0
3, 931650, Note_on_c, 0, 62, 100
3, 931710, Note_on_c, 0, 62, 0
3, 931710, Note_on_c, 0, 64, 100
3, 931770, Note_on_c, 0, 64, 0
3, 931770, Note_on_c, 0, 65, 100
3, 931830, Note_on_c, 0, 65, 0
3, 931830, Note_on_c, 0, 64, 100
3, 931890, Note_on_c, 0, 64, 0
3, 931890, Note_on_c, 0, 65, 100
3, 931950, Note_on_c, 0, 65, 0
3, 931950, Note_on_c, 0, 67, 100
3, 932010, Note_on_c, 0, 67, 0
3, 932010, Note_on_c, 0, 65, 100
3, 932070, Note_on_c, 0, 65, 0
3, 932070, Note_on_c, 0, 67, 100
3, 932130, Note_on_c, 0, 67, 0
3, 932130, Note_on_c, 0, 69, 100
3, 932190, Note_on_c, 0, 69, 0
3, 932190, Note_on_c, 0, 67, 100
3, 932250, Note_on_c, 0, 67, 0
3, 932250, Note_on_c, 0, 69, 100
3, 932310, Note_on_c, 0, 69, 0
3, 932310, Note_on_c, 0, 70, 100
3, 932370, Note_on_c, 0, 70, 0
3, 932370, Note_on_c, 0, 69, 100
3, 932430, Note_on_c, 0, 69, 0
3, 932430, Note_on_c, 0, 67, 100
3, 932490, Note_on_c, 0, 67, 0
3, 932490, Note_on_c, 0, 69, 100
3, 932610, Note_on_c, 0, 69, 0
3, 932610, Note_on_c, 0, 65, 100
3, 932670, Note_on_c, 0, 65, 0
3, 932670, Note_on_c, 0, 62, 100
3, 932730, Note_on_c, 0, 62, 0
3, 932730, Note_on_c, 0, 58, 100
3, 932790, Note_on_c, 0, 58, 0
3, 932790, Note_on_c, 0, 57, 100
3, 932850, Note_on_c, 0, 57, 0
3, 932850, Note_on_c, 0, 58, 100
3, 932970, Note_on_c, 0, 58, 0
3, 932970, Note_on_c, 0, 67, 100
3, 933030, Note_on_c, 0, 67, 0
3, 933030, Note_on_c, 0, 58, 100
3, 933090, Note_on_c, 0, 58, 0
3, 933090, Note_on_c, 0, 57, 100
3, 933150, Note_on_c, 0, 57, 0
3, 933150, Note_on_c, 0, 55, 100
3, 933210, Note_on_c, 0, 55, 0
3, 933210, Note_on_c, 0, 57, 100
3, 933330, Note_on_c, 0, 57, 0
3, 933330, Note_on_c, 0, 65, 100
3, 933390, Note_on_c, 0, 65, 0
3, 933390, Note_on_c, 0, 57, 100
3, 933450, Note_on_c, 0, 57, 0
3, 933450, Note_on_c, 0, 55, 100
3, 933510, Note_on_c, 0, 55, 0
3, 933510, Note_on_c, 0, 53, 100
3, 933570, Note_on_c, 0, 53, 0
3, 933570, Note_on_c, 0, 55, 100
3, 933690, Note_on_c, 0, 55, 0
3, 933690, Note_on_c, 0, 64, 100
3, 933750, Note_on_c, 0, 64, 0
3, 933750, Note_on_c, 0, 55, 100
3, 933810, Note_on_c, 0, 55, 0
3, 933810, Note_on_c, 0, 53, 100
3, 933870, Note_on_c, 0, 53, 0
3, 933870, Note_on_c, 0, 52, 100
3, 933930, Note_on_c, 0, 52, 0
3, 933930, Note_on_c, 0, 53, 100
3, 934050, Note_on_c, 0, 53, 0
3, 934050, Note_on_c, 0, 52, 100
3, 934110, Note_on_c, 0, 52, 0
3, 934110, Note_on_c, 0, 50, 100
3, 934170, Note_on_c, 0, 50, 0
3, 934170, Note_on_c, 0, 55, 100
3, 934290, Note_on_c, 0, 55, 0
3, 934290, Note_on_c, 0, 52, 100
3, 934350, Note_on_c, 0, 52, 0
3, 934350, Note_on_c, 0, 48, 100
3, 934530, Note_on_c, 0, 48, 0
3, 934710, Note_on_c, 0, 60, 100
3, 934950, Note_on_c, 0, 60, 0
3, 934950, Note_on_c, 0, 58, 100
3, 934980, Note_on_c, 0, 58, 0
3, 934980, Note_on_c, 0, 57, 100
3, 935010, Note_on_c, 0, 57, 0
3, 935010, Note_on_c, 0, 55, 100
3, 935040, Note_on_c, 0, 55, 0
3, 935040, Note_on_c, 0, 53, 100
3, 935070, Note_on_c, 0, 53, 0
3, 935070, Note_on_c, 0, 64, 100
3, 935370, Note_on_c, 0, 64, 0
3, 935370, Note_on_c, 0, 60, 100
3, 935430, Note_on_c, 0, 60, 0
3, 935430, Note_on_c, 0, 65, 100
3, 935790, Note_on_c, 0, 65, 0
3, 935790, Note_on_c, 0, 64, 100
3, 935970, Note_on_c, 0, 64, 0
3, 935970, Note_on_c, 0, 63, 100
3, 936150, Note_on_c, 0, 63, 0
3, 936150, Note_on_c, 0, 62, 100
3, 936330, Note_on_c, 0, 62, 0
3, 936330, Note_on_c, 0, 61, 100
3, 936510, Note_on_c, 0, 61, 0
3, 936510, Note_on_c, 0, 60, 100
3, 936810, Note_on_c, 0, 60, 0
3, 936810, Note_on_c, 0, 65, 100
3, 936870, Note_on_c, 0, 65, 0
3, 936870, Note_on_c, 0, 59, 100
3, 936930, Note_on_c, 0, 59, 0
3, 936930, Note_on_c, 0, 60, 100
3, 936990, Note_on_c, 0, 60, 0
3, 936990, Note_on_c, 0, 62, 100
3, 937110, Note_on_c, 0, 62, 0
3, 937110, Note_on_c, 0, 60, 100
3, 937140, Note_on_c, 0, 60, 0
3, 937140, Note_on_c, 0, 59, 100
3, 937170, Note_on_c, 0, 59, 0
3, 937170, Note_on_c, 0, 60, 100
3, 937230, Note_on_c, 0, 60, 0
3, 937290, Note_on_c, 0, 70, 100
3, 937320, Note_on_c, 0, 70, 0
3, 937320, Note_on_c, 0, 69, 100
3, 937350, Note_on_c, 0, 69, 0
3, 937350, Note_on_c, 0, 67, 100
3, 937380, Note_on_c, 0, 67, 0
3, 937380, Note_on_c, 0, 65, 100
3, 937410, Note_on_c, 0, 65, 0
3, 937410, Note_on_c, 0, 64, 100
3, 937440, Note_on_c, 0, 64, 0
3, 937440, Note_on_c, 0, 65, 100
3, 937470, Note_on_c, 0, 65, 0
3, 937470, Note_on_c, 0, 67, 100
3, 937500, Note_on_c, 0, 67, 0
3, 937500, Note_on_c, 0, 65, 100
3, 937530, Note_on_c, 0, 65, 0
3, 937530, Note_on_c, 0, 64, 100
3, 937560, Note_on_c, 0, 64, 0
3, 937560, Note_on_c, 0, 62, 100
3, 937590, Note_on_c, 0, 62, 0
3, 937590, Note_on_c, 0, 61, 100
3, 937650, Note_on_c, 0, 61, 0
3, 937650, Note_on_c, 0, 64, 100
3, 937710, Note_on_c, 0, 64, 0
3, 937710, Note_on_c, 0, 67, 100
3, 937770, Note_on_c, 0, 67, 0
3, 937770, Note_on_c, 0, 57, 100
3, 937830, Note_on_c, 0, 57, 0
3, 937830, Note_on_c, 0, 61, 100
3, 937890, Note_on_c, 0, 61, 0
3, 937890, Note_on_c, 0, 64, 100
3, 937950, Note_on_c, 0, 64, 0
3, 938010, Note_on_c, 0, 61, 100
3, 938070, Note_on_c, 0, 61, 0
3, 938070, Note_on_c, 0, 62, 100
3, 938130, Note_on_c, 0, 62, 0
3, 938130, Note_on_c, 0, 64, 100
3, 938190, Note_on_c, 0, 64, 0
3, 938190, Note_on_c, 0, 65, 100
3, 938250, Note_on_c, 0, 65, 0
3, 938250, Note_on_c, 0, 67, 100
3, 938340, Note_on_c, 0, 67, 0
3, 938340, Note_on_c, 0, 65, 100
3, 938370, Note_on_c, 0, 65, 0
3, 938370, Note_on_c, 0, 64, 100
3, 938400, Note_on_c, 0, 64, 0
3, 938400, Note_on_c, 0, 65, 100
3, 938430, Note_on_c, 0, 65, 0
3, 938430, Note_on_c, 0, 67, 100
3, 938460, Note_on_c, 0, 67, 0
3, 938460, Note_on_c, 0, 64, 100
3, 938490, Note_on_c, 0, 64, 0
3, 938490, Note_on_c, 0, 65, 100
3, 938520, Note_on_c, 0, 65, 0
3, 938520, Note_on_c, 0, 64, 100
3, 938550, Note_on_c, 0, 64, 0
3, 938550, Note_on_c, 0, 62, 100
3, 938580, Note_on_c, 0, 62, 0
3, 938580, Note_on_c, 0, 61, 100
3, 938610, Note_on_c, 0, 61, 0
3, 938610, Note_on_c, 0, 62, 100
3, 938730, Note_on_c, 0, 62, 0
3, 938730, Note_on_c, 0, 61, 100
3, 938790, Note_on_c, 0, 61, 0
3, 938790, Note_on_c, 0, 59, 100
3, 938850, Note_on_c, 0, 59, 0
3, 938850, Note_on_c, 0, 61, 100
3, 938880, Note_on_c, 0, 61, 0
3, 938880, Note_on_c, 0, 59, 100
3, 938910, Note_on_c, 0, 59, 0
3, 938910, Note_on_c, 0, 57, 100
3, 938940, Note_on_c, 0, 57, 0
3, 938940, Note_on_c, 0, 59, 100
3, 938970, Note_on_c, 0, 59, 0
3, 938970, Note_on_c, 0, 60, 100
3, 939090, Note_on_c, 0, 60, 0
3, 939090, Note_on_c, 0, 59, 100
3, 939150, Note_on_c, 0, 59, 0
3, 939150, Note_on_c, 0, 57, 100
3, 939210, Note_on_c, 0, 57, 0
3, 939210, Note_on_c, 0, 59, 100
3, 939240, Note_on_c, 0, 59, 0
3, 939240, Note_on_c, 0, 57, 100
3, 939270, Note_on_c, 0, 57, 0
3, 939270, Note_on_c, 0, 55, 100
3, 939300, Note_on_c, 0, 55, 0
3, 939300, Note_on_c, 0, 57, 100
3, 939330, Note_on_c, 0, 57, 0
3, 939330, Note_on_c, 0, 58, 100
3, 939450, Note_on_c, 0, 58, 0
3, 939450, Note_on_c, 0, 57, 100
3, 939510, Note_on_c, 0, 57, 0
3, 939510, Note_on_c, 0, 56, 100
3, 939570, Note_on_c, 0, 56, 0
3, 939570, Note_on_c, 0, 57, 100
3, 939810, Note_on_c, 0, 57, 0
3, 939870, Note_on_c, 0, 68, 100
3, 939930, Note_on_c, 0, 68, 0
3, 939930, Note_on_c, 0, 69, 100
3, 940050, Note_on_c, 0, 69, 0
3, 940050, Note_on_c, 0, 57, 100
3, 940110, Note_on_c, 0, 57, 0
3, 940110, Note_on_c, 0, 62, 100
3, 940350, Note_on_c, 0, 62, 0
3, 940350, Note_on_c, 0, 61, 100
3, 940410, Note_on_c, 0, 61, 0
3, 940410, Note_on_c, 0, 62, 100
3, 940470, Note_on_c, 0, 62, 0
3, 940470, Note_on_c, 0, 67, 100
3, 940710, Note_on_c, 0, 67, 0
3, 940710, Note_on_c, 0, 65, 100
3, 940740, Note_on_c, 0, 65, 0
3, 940740, Note_on_c, 0, 64, 100
3, 940770, Note_on_c, 0, 64, 0
3, 940770, Note_on_c, 0, 62, 100
3, 940800, Note_on_c, 0, 62, 0
3, 940800, Note_on_c, 0, 61, 100
3, 940830, Note_on_c, 0, 61, 0
3, 940830, Note_on_c, 0, 70, 100
3, 941130, Note_on_c, 0, 70, 0
3, 941130, Note_on_c, 0, 62, 100
3, 941190, Note_on_c, 0, 62, 0
3, 941190, Note_on_c, 0, 61, 100
3, 941250, Note_on_c, 0, 61, 0
3, 941250, Note_on_c, 0, 62, 100
3, 941310, Note_on_c, 0, 62, 0
3, 941310, Note_on_c, 0, 64, 100
3, 941430, Note_on_c, 0, 64, 0
3, 941430, Note_on_c, 0, 69, 100
3, 941490, Note_on_c, 0, 69, 0
3, 941490, Note_on_c, 0, 62, 100
3, 941550, Note_on_c, 0, 62, 0
3, 941550, Note_on_c, 0, 67, 100
3, 941850, Note_on_c, 0, 67, 0
3, 941850, Note_on_c, 0, 57, 100
3, 941910, Note_on_c, 0, 57, 0
3, 941910, Note_on_c, 0, 65, 100
3, 942210, Note_on_c, 0, 65, 0
3, 942210, Note_on_c, 0, 55, 100
3, 942270, Note_on_c, 0, 55, 0
3, 942270, Note_on_c, 0, 64, 100
3, 942510, Note_on_c, 0, 64, 0
3, 942510, Note_on_c, 0, 62, 100
3, 942570, Note_on_c, 0, 62, 0
3, 942570, Note_on_c, 0, 61, 100
3, 942630, Note_on_c, 0, 61, 0
3, 942630, Note_on_c, 0, 62, 100
3, 942690, Note_on_c, 0, 62, 0
3, 942690, Note_on_c, 0, 64, 100
3, 942750, Note_on_c, 0, 64, 0
3, 942750, Note_on_c, 0, 65, 100
3, 942810, Note_on_c, 0, 65, 0
3, 942810, Note_on_c, 0, 64, 100
3, 942870, Note_on_c, 0, 64, 0
3, 942870, Note_on_c, 0, 57, 100
3, 942930, Note_on_c, 0, 57, 0
3, 943050, Note_on_c, 0, 69, 100
3, 943080, Note_on_c, 0, 69, 0
3, 943080, Note_on_c, 0, 67, 100
3, 943110, Note_on_c, 0, 67, 0
3, 943110, Note_on_c, 0, 65, 100
3, 943140, Note_on_c, 0, 65, 0
3, 943140, Note_on_c, 0, 64, 100
3, 943170, Note_on_c, 0, 64, 0
3, 943170, Note_on_c, 0, 62, 100
3, 943380, Note_on_c, 0, 62, 0
3, 943380, Note_on_c, 0, 65, 100
3, 943410, Note_on_c, 0, 65, 0
3, 943410, Note_on_c, 0, 67, 100
3, 943440, Note_on_c, 0, 67, 0
3, 943440, Note_on_c, 0, 65, 100
3, 943470, Note_on_c, 0, 65, 0
3, 943470, Note_on_c, 0, 64, 100
3, 943500, Note_on_c, 0, 64, 0
3, 943500, Note_on_c, 0, 62, 100
3, 943530, Note_on_c, 0, 62, 0
3, 943530, Note_on_c, 0, 61, 100
3, 943590, Note_on_c, 0, 61, 0
3, 943590, Note_on_c, 0, 62, 100
3, 943650, Note_on_c, 0, 62, 0
3, 943650, Note_on_c, 0, 64, 100
3, 943710, Note_on_c, 0, 64, 0
3, 943710, Note_on_c, 0, 65, 100
3, 943740, Note_on_c, 0, 65, 0
3, 943740, Note_on_c, 0, 64, 100
3, 943770, Note_on_c, 0, 64, 0
3, 943770, Note_on_c, 0, 62, 100
3, 943800, Note_on_c, 0, 62, 0
3, 943800, Note_on_c, 0, 64, 100
3, 943830, Note_on_c, 0, 64, 0
3, 943830, Note_on_c, 0, 65, 100
3, 943890, Note_on_c, 0, 65, 0
3, 943890, Note_on_c, 0, 67, 100
3, 943950, Note_on_c, 0, 67, 0
3, 943950, Note_on_c, 0, 69, 100
3, 944010, Note_on_c, 0, 69, 0
3, 944010, Note_on_c, 0, 70, 100
3, 944130, Note_on_c, 0, 70, 0
3, 944130, Note_on_c, 0, 69, 100
3, 944190, Note_on_c, 0, 69, 0
3, 944190, Note_on_c, 0, 67, 100
3, 944250, Note_on_c, 0, 67, 0
3, 944250, Note_on_c, 0, 69, 100
3, 944280, Note_on_c, 0, 69, 0
3, 944280, Note_on_c, 0, 67, 100
3, 944310, Note_on_c, 0, 67, 0
3, 944310, Note_on_c, 0, 65, 100
3, 944340, Note_on_c, 0, 65, 0
3, 944340, Note_on_c, 0, 64, 100
3, 944370, Note_on_c, 0, 64, 0
3, 944370, Note_on_c, 0, 65, 100
3, 944490, Note_on_c, 0, 65, 0
3, 944490, Note_on_c, 0, 67, 100
3, 944550, Note_on_c, 0, 67, 0
3, 944550, Note_on_c, 0, 65, 100
3, 944610, Note_on_c, 0, 65, 0
3, 944610, Note_on_c, 0, 64, 100
3, 944670, Note_on_c, 0, 64, 0
3, 944670, Note_on_c, 0, 62, 100
3, 944730, Note_on_c, 0, 62, 0
3, 944730, Note_on_c, 0, 64, 100
3, 944850, Note_on_c, 0, 64, 0
3, 944850, Note_on_c, 0, 62, 100
3, 944880, Note_on_c, 0, 62, 0
3, 944880, Note_on_c, 0, 61, 100
3, 944910, Note_on_c, 0, 61, 0
3, 944910, Note_on_c, 0, 59, 100
3, 944940, Note_on_c, 0, 59, 0
3, 944940, Note_on_c, 0, 57, 100
3, 944970, Note_on_c, 0, 57, 0
3, 944970, Note_on_c, 0, 62, 100
3, 945030, Note_on_c, 0, 62, 0
3, 945030, Note_on_c, 0, 61, 100
3, 945090, Note_on_c, 0, 61, 0
3, 945090, Note_on_c, 0, 62, 100
3, 945210, Note_on_c, 0, 62, 0
3, 945210, Note_on_c, 0, 64, 100
3, 945270, Note_on_c, 0, 64, 0
3, 945270, Note_on_c, 0, 62, 100
3, 945330, Note_on_c, 0, 62, 0
3, 945330, Note_on_c, 0, 61, 100
3, 945390, Note_on_c, 0, 61, 0
3, 945390, Note_on_c, 0, 62, 100
3, 945450, Note_on_c, 0, 62, 0
3, 945450, Note_on_c, 0, 64, 100
3, 945510, Note_on_c, 0, 64, 0
3, 945510, Note_on_c, 0, 57, 100
3, 945570, Note_on_c, 0, 57, 0
3, 945570, Note_on_c, 0, 61, 100
3, 945630, Note_on_c, 0, 61, 0
3, 945630, Note_on_c, 0, 59, 100
3, 945690, Note_on_c, 0, 59, 0
3, 945690, Note_on_c, 0, 61, 100
3, 945720, Note_on_c, 0, 61, 0
3, 945720, Note_on_c, 0, 62, 100
3, 945750, Note_on_c, 0, 62, 0
3, 945750, Note_on_c, 0, 64, 100
3, 945780, Note_on_c, 0, 64, 0
3, 945780, Note_on_c, 0, 65, 100
3, 945810, Note_on_c, 0, 65, 0
3, 945810, Note_on_c, 0, 67, 100
3, 945840, Note_on_c, 0, 67, 0
3, 945840, Note_on_c, 0, 64, 100
3, 945870, Note_on_c, 0, 64, 0
3, 945870, Note_on_c, 0, 65, 100
3, 945900, Note_on_c, 0, 65, 0
3, 945900, Note_on_c, 0, 67, 100
3, 945930, Note_on_c, 0, 67, 0
3, 945930, Note_on_c, 0, 69, 100
3, 945990, Note_on_c, 0, 69, 0
3, 945990, Note_on_c, 0, 61, 100
3, 946050, Note_on_c, 0, 61, 0
3, 946050, Note_on_c, 0, 62, 100
3, 946080, Note_on_c, 0, 62, 0
3, 946080, Note_on_c, 0, 65, 100
3, 946110, Note_on_c, 0, 65, 0
3, 946110, Note_on_c, 0, 64, 100
3, 946140, Note_on_c, 0, 64, 0
3, 946140, Note_on_c, 0, 62, 100
3, 946170, Note_on_c, 0, 62, 0
3, 946170, Note_on_c, 0, 61, 100
3, 946200, Note_on_c, 0, 61, 0
3, 946200, Note_on_c, 0, 59, 100
3, 946230, Note_on_c, 0, 59, 0
3, 946230, Note_on_c, 0, 57, 100
3, 946290, Note_on_c, 0, 57, 0
3, 946290, Note_on_c, 0, 61, 100
3, 946350, Note_on_c, 0, 61, 0
3, 946350, Note_on_c, 0, 64, 100
3, 946410, Note_on_c, 0, 64, 0
3, 946410, Note_on_c, 0, 69, 100
3, 946830, Note_on_c, 0, 69, 0
3, 946830, Note_on_c, 0, 67, 100
3, 946890, Note_on_c, 0, 67, 0
3, 946890, Note_on_c, 0, 65, 100
3, 946950, Note_on_c, 0, 65, 0
3, 946950, Note_on_c, 0, 64, 100
3, 947250, Note_on_c, 0, 64, 0
3, 947250, Note_on_c, 0, 69, 100
3, 947310, Note_on_c, 0, 69, 0
3, 947310, Note_on_c, 0, 62, 100
3, 947610, Note_on_c, 0, 62, 0
3, 947610, Note_on_c, 0, 70, 100
3, 947670, Note_on_c, 0, 70, 0
3, 947670, Note_on_c, 0, 61, 100
3, 947730, Note_on_c, 0, 61, 0
3, 947730, Note_on_c, 0, 64, 100
3, 947790, Note_on_c, 0, 64, 0
3, 947790, Note_on_c, 0, 69, 100
3, 947850, Note_on_c, 0, 69, 0
3, 947850, Note_on_c, 0, 57, 100
3, 947910, Note_on_c, 0, 57, 0
3, 947910, Note_on_c, 0, 52, 100
3, 948030, Note_on_c, 0, 52, 0
3, 948030, Note_on_c, 0, 53, 100
3, 948150, Note_on_c, 0, 53, 0
3, 948150, Note_on_c, 0, 57, 100
3, 948270, Note_on_c, 0, 57, 0
3, 948270, Note_on_c, 0, 58, 100
3, 948390, Note_on_c, 0, 58, 0
3, 948390, Note_on_c, 0, 57, 100
3, 948510, Note_on_c, 0, 57, 0
3, 948510, Note_on_c, 0, 55, 100
3, 948630, Note_on_c, 0, 55, 0
3, 948630, Note_on_c, 0, 53, 100
3, 948720, Note_on_c, 0, 53, 0
3, 948720, Note_on_c, 0, 52, 100
3, 948750, Note_on_c, 0, 52, 0
3, 948750, Note_on_c, 0, 53, 100
3, 948780, Note_on_c, 0, 53, 0
3, 948780, Note_on_c, 0, 55, 100
3, 948810, Note_on_c, 0, 55, 0
3, 948810, Note_on_c, 0, 57, 100
3, 949050, Note_on_c, 0, 57, 0
3, 949050, Note_on_c, 0, 45, 100
3, 949290, Note_on_c, 0, 45, 0
3, 949290, Note_on_c, 0, 38, 100
3, 949770, Note_on_c, 0, 38, 0
3, 953610, Control_c, 0, 121, 0
3, 953610, Control_c, 0, 91, 92
3, 953610, Control_c, 0, 0, 8
3, 953610, Note_on_c, 0, 50, 90
3, 953650, Note_on_c, 0, 50, 0
3, 953650, Note_on_c, 0, 52, 90
3, 953690, Note_on_c, 0, 52, 0
3, 953690, Note_on_c, 0, 50, 90
3, 953730, Note_on_c, 0, 50, 0
3, 953730, Note_on_c, 0, 49, 90
3, 953770, Note_on_c, 0, 49, 0
3, 953770, Note_on_c, 0, 50, 90
3, 953810, Note_on_c, 0, 50, 0
3, 953810, Note_on_c, 0, 52, 90
3, 953850, Note_on_c, 0, 52, 0
3, 953850, Note_on_c, 0, 53, 90
3, 953890, Note_on_c, 0, 53, 0
3, 953890, Note_on_c, 0, 55, 90
3, 953930, Note_on_c, 0, 55, 0
3, 953930, Note_on_c, 0, 53, 90
3, 953970, Note_on_c, 0, 53, 0
3, 953970, Note_on_c, 0, 52, 90
3, 954010, Note_on_c, 0, 52, 0
3, 954010, Note_on_c, 0, 53, 90
3, 954050, Note_on_c, 0, 53, 0
3, 954050, Note_on_c, 0, 55, 90
3, 954090, Note_on_c, 0, 55, 0
3, 954090, Note_on_c, 0, 57, 90
3, 954390, Note_on_c, 0, 57, 0
3, 954390, Note_on_c, 0, 55, 90
3, 954450, Note_on_c, 0, 55, 0
3, 954450, Note_on_c, 0, 53, 90
3, 954510, Note_on_c, 0, 53, 0
3, 954510, Note_on_c, 0, 52, 90
3, 954570, Note_on_c, 0, 52, 0
3, 954570, Note_on_c, 0, 53, 90
3, 954870, Note_on_c, 0, 53, 0
3, 954870, Note_on_c, 0, 52, 90
3, 954930, Note_on_c, 0, 52, 0
3, 954930, Note_on_c, 0, 50, 90
3, 954990, Note_on_c, 0, 50, 0
3, 954990, Note_on_c, 0, 49, 90
3, 955050, Note_on_c, 0, 49, 0
3, 955050, Note_on_c, 0, 50, 90
3, 955170, Note_on_c, 0, 50, 0
3, 955170, Note_on_c, 0, 52, 90
3, 955230, Note_on_c, 0, 52, 0
3, 955230, Note_on_c, 0, 53, 90
3, 955290, Note_on_c, 0, 53, 0
3, 955290, Note_on_c, 0, 55, 90
3, 955350, Note_on_c, 0, 55, 0
3, 955350, Note_on_c, 0, 57, 90
3, 955410, Note_on_c, 0, 57, 0
3, 955410, Note_on_c, 0, 58, 90
3, 955530, Note_on_c, 0, 58, 0
3, 955530, Note_on_c, 0, 58, 90
3, 955650, Note_on_c, 0, 58, 0
3, 955650, Note_on_c, 0, 49, 90
3, 955770, Note_on_c, 0, 49, 0
3, 955830, Note_on_c, 0, 45, 90
3, 955890, Note_on_c, 0, 45, 0
3, 955890, Note_on_c, 0, 47, 90
3, 955950, Note_on_c, 0, 47, 0
3, 955950, Note_on_c, 0, 49, 90
3, 956010, Note_on_c, 0, 49, 0
3, 956010, Note_on_c, 0, 50, 90
3, 956070, Note_on_c, 0, 50, 0
3, 956070, Note_on_c, 0, 49, 90
3, 956130, Note_on_c, 0, 49, 0
3, 956130, Note_on_c, 0, 47, 90
3, 956190, Note_on_c, 0, 47, 0
3, 956190, Note_on_c, 0, 45, 90
3, 956250, Note_on_c, 0, 45, 0
3, 956250, Note_on_c, 0, 52, 90
3, 956310, Note_on_c, 0, 52, 0
3, 956310, Note_on_c, 0, 49, 90
3, 956370, Note_on_c, 0, 49, 0
3, 956370, Note_on_c, 0, 47, 90
3, 956430, Note_on_c, 0, 47, 0
3, 956430, Note_on_c, 0, 45, 90
3, 956490, Note_on_c, 0, 45, 0
3, 956490, Note_on_c, 0, 53, 90
3, 956550, Note_on_c, 0, 53, 0
3, 956550, Note_on_c, 0, 52, 90
3, 956610, Note_on_c, 0, 52, 0
3, 956610, Note_on_c, 0, 50, 90
3, 956730, Note_on_c, 0, 50, 0
3, 956790, Note_on_c, 0, 58, 90
3, 956850, Note_on_c, 0, 58, 0
3, 956850, Note_on_c, 0, 57, 90
3, 956910, Note_on_c, 0, 57, 0
3, 956910, Note_on_c, 0, 56, 90
3, 956970, Note_on_c, 0, 56, 0
3, 956970, Note_on_c, 0, 57, 90
3, 957030, Note_on_c, 0, 57, 0
3, 957030, Note_on_c, 0, 53, 90
3, 957090, Note_on_c, 0, 53, 0
3, 957090, Note_on_c, 0, 52, 90
3, 957150, Note_on_c, 0, 52, 0
3, 957150, Note_on_c, 0, 50, 90
3, 957210, Note_on_c, 0, 50, 0
3, 957210, Note_on_c, 0, 53, 90
3, 957270, Note_on_c, 0, 53, 0
3, 957270, Note_on_c, 0, 52, 90
3, 957330, Note_on_c, 0, 52, 0
3, 957330, Note_on_c, 0, 50, 90
3, 957390, Note_on_c, 0, 50, 0
3, 957390, Note_on_c, 0, 49, 90
3, 957450, Note_on_c, 0, 49, 0
3, 957450, Note_on_c, 0, 50, 90
3, 957570, Note_on_c, 0, 50, 0
3, 957690, Note_on_c, 0, 45, 90
3, 957730, Note_on_c, 0, 45, 0
3, 957730, Note_on_c, 0, 47, 90
3, 957770, Note_on_c, 0, 47, 0
3, 957770, Note_on_c, 0, 45, 90
3, 957810, Note_on_c, 0, 45, 0
3, 957810, Note_on_c, 0, 44, 90
3, 957850, Note_on_c, 0, 44, 0
3, 957850, Note_on_c, 0, 45, 90
3, 957890, Note_on_c, 0, 45, 0
3, 957890, Note_on_c, 0, 47, 90
3, 957930, Note_on_c, 0, 47, 0
3, 957930, Note_on_c, 0, 48, 90
3, 957990, Note_on_c, 0, 48, 0
3, 957990, Note_on_c, 0, 45, 90
3, 958050, Note_on_c, 0, 45, 0
3, 958050, Note_on_c, 0, 47, 90
3, 958110, Note_on_c, 0, 47, 0
3, 958110, Note_on_c, 0, 48, 90
3, 958170, Note_on_c, 0, 48, 0
3, 958170, Note_on_c, 0, 50, 90
3, 958230, Note_on_c, 0, 50, 0
3, 958230, Note_on_c, 0, 52, 90
3, 958290, Note_on_c, 0, 52, 0
3, 958290, Note_on_c, 0, 54, 90
3, 958350, Note_on_c, 0, 54, 0
3, 958350, Note_on_c, 0, 56, 90
3, 958410, Note_on_c, 0, 56, 0
3, 958410, Note_on_c, 0, 57, 90
3, 958470, Note_on_c, 0, 57, 0
3, 958470, Note_on_c, 0, 55, 90
3, 958530, Note_on_c, 0, 55, 0
3, 958530, Note_on_c, 0, 53, 90
3, 958590, Note_on_c, 0, 53, 0
3, 958590, Note_on_c, 0, 52, 90
3, 958650, Note_on_c, 0, 52, 0
3, 958650, Note_on_c, 0, 50, 90
3, 958830, Note_on_c, 0, 50, 0
3, 958830, Note_on_c, 0, 52, 90
3, 958890, Note_on_c, 0, 52, 0
3, 958890, Note_on_c, 0, 53, 90
3, 958950, Note_on_c, 0, 53, 0
3, 958950, Note_on_c, 0, 52, 90
3, 959010, Note_on_c, 0, 52, 0
3, 959010, Note_on_c, 0, 50, 90
3, 959070, Note_on_c, 0, 50, 0
3, 959070, Note_on_c, 0, 48, 90
3, 959130, Note_on_c, 0, 48, 0
3, 959130, Note_on_c, 0, 47, 90
3, 959190, Note_on_c, 0, 47, 0
3, 959190, Note_on_c, 0, 48, 90
3, 959250, Note_on_c, 0, 48, 0
3, 959250, Note_on_c, 0, 50, 90
3, 959310, Note_on_c, 0, 50, 0
3, 959310, Note_on_c, 0, 47, 90
3, 959370, Note_on_c, 0, 47, 0
3, 959370, Note_on_c, 0, 44, 90
3, 959430, Note_on_c, 0, 44, 0
3, 959430, Note_on_c, 0, 45, 90
3, 959490, Note_on_c, 0, 45, 0
3, 959490, Note_on_c, 0, 47, 90
3, 959550, Note_on_c, 0, 47, 0
3, 959550, Note_on_c, 0, 40, 90
3, 959610, Note_on_c, 0, 40, 0
3, 959610, Note_on_c, 0, 52, 90
3, 959670, Note_on_c, 0, 52, 0
3, 959670, Note_on_c, 0, 48, 90
3, 959730, Note_on_c, 0, 48, 0
3, 959730, Note_on_c, 0, 50, 90
3, 959790, Note_on_c, 0, 50, 0
3, 959790, Note_on_c, 0, 52, 90
3, 959850, Note_on_c, 0, 52, 0
3, 959850, Note_on_c, 0, 42, 90
3, 959910, Note_on_c, 0, 42, 0
3, 959910, Note_on_c, 0, 45, 90
3, 959970, Note_on_c, 0, 45, 0
3, 959970, Note_on_c, 0, 50, 90
3, 960090, Note_on_c, 0, 50, 0
3, 960090, Note_on_c, 0, 44, 90
3, 960150, Note_on_c, 0, 44, 0
3, 960150, Note_on_c, 0, 47, 90
3, 960210, Note_on_c, 0, 47, 0
3, 960210, Note_on_c, 0, 52, 90
3, 960330, Note_on_c, 0, 52, 0
3, 960330, Note_on_c, 0, 45, 90
3, 960390, Note_on_c, 0, 45, 0
3, 960390, Note_on_c, 0, 48, 90
3, 960450, Note_on_c, 0, 48, 0
3, 960450, Note_on_c, 0, 50, 90
3, 960510, Note_on_c, 0, 50, 0
3, 960510, Note_on_c, 0, 52, 90
3, 960570, Note_on_c, 0, 52, 0
3, 960570, Note_on_c, 0, 53, 90
3, 960630, Note_on_c, 0, 53, 0
3, 960630, Note_on_c, 0, 50, 90
3, 960690, Note_on_c, 0, 50, 0
3, 960690, Note_on_c, 0, 48, 90
3, 960750, Note_on_c, 0, 48, 0
3, 960750, Note_on_c, 0, 47, 90
3, 960810, Note_on_c, 0, 47, 0
3, 960810, Note_on_c, 0, 48, 90
3, 960930, Note_on_c, 0, 48, 0
3, 960930, Note_on_c, 0, 53, 90
3, 961050, Note_on_c, 0, 53, 0
3, 961050, Note_on_c, 0, 50, 90
3, 961170, Note_on_c, 0, 50, 0
3, 961170, Note_on_c, 0, 52, 90
3, 961290, Note_on_c, 0, 52, 0
3, 961290, Note_on_c, 0, 53, 90
3, 961330, Note_on_c, 0, 53, 0
3, 961330, Note_on_c, 0, 55, 90
3, 961370, Note_on_c, 0, 55, 0
3, 961370, Note_on_c, 0, 53, 90
3, 961410, Note_on_c, 0, 53, 0
3, 961410, Note_on_c, 0, 52, 90
3, 961450, Note_on_c, 0, 52, 0
3, 961450, Note_on_c, 0, 53, 90
3, 961490, Note_on_c, 0, 53, 0
3, 961490, Note_on_c, 0, 55, 90
3, 961530, Note_on_c, 0, 55, 0
3, 961530, Note_on_c, 0, 57, 90
3, 961710, Note_on_c, 0, 57, 0
3, 961710, Note_on_c, 0, 55, 90
3, 961740, Note_on_c, 0, 55, 0
3, 961740, Note_on_c, 0, 53, 90
3, 961770, Note_on_c, 0, 53, 0
3, 961770, Note_on_c, 0, 52, 90
3, 961830, Note_on_c, 0, 52, 0
3, 961830, Note_on_c, 0, 48, 90
3, 961890, Note_on_c, 0, 48, 0
3, 961890, Note_on_c, 0, 50, 90
3, 961950, Note_on_c, 0, 50, 0
3, 961950, Note_on_c, 0, 52, 90
3, 962010, Note_on_c, 0, 52, 0
3, 962010, Note_on_c, 0, 53, 90
3, 962190, Note_on_c, 0, 53, 0
3, 962190, Note_on_c, 0, 52, 90
3, 962220, Note_on_c, 0, 52, 0
3, 962220, Note_on_c, 0, 50, 90
3, 962250, Note_on_c, 0, 50, 0
3, 962250, Note_on_c, 0, 49, 90
3, 962370, Note_on_c, 0, 49, 0
3, 962370, Note_on_c, 0, 45, 90
3, 962490, Note_on_c, 0, 45, 0
3, 962550, Note_on_c, 0, 50, 90
3, 962610, Note_on_c, 0, 50, 0
3, 962610, Note_on_c, 0, 48, 90
3, 962670, Note_on_c, 0, 48, 0
3, 962670, Note_on_c, 0, 46, 90
3, 962730, Note_on_c, 0, 46, 0
3, 962730, Note_on_c, 0, 45, 90
3, 962850, Note_on_c, 0, 45, 0
3, 962850, Note_on_c, 0, 41, 90
3, 962910, Note_on_c, 0, 41, 0
3, 962910, Note_on_c, 0, 45, 90
3, 962970, Note_on_c, 0, 45, 0
3, 962970, Note_on_c, 0, 50, 90
3, 963090, Note_on_c, 0, 50, 0
3, 963090, Note_on_c, 0, 41, 90
3, 963210, Note_on_c, 0, 41, 0
3, 963210, Note_on_c, 0, 43, 90
3, 963330, Note_on_c, 0, 43, 0
3, 963330, Note_on_c, 0, 38, 90
3, 963450, Note_on_c, 0, 38, 0
3, 963510, Note_on_c, 0, 40, 90
3, 963570, Note_on_c, 0, 40, 0
3, 963570, Note_on_c, 0, 41, 90
3, 963630, Note_on_c, 0, 41, 0
3, 963630, Note_on_c, 0, 43, 90
3, 963690, Note_on_c, 0, 43, 0
3, 963690, Note_on_c, 0, 45, 90
3, 963750, Note_on_c, 0, 45, 0
3, 963750, Note_on_c, 0, 43, 90
3, 963810, Note_on_c, 0, 43, 0
3, 963810, Note_on_c, 0, 41, 90
3, 963870, Note_on_c, 0, 41, 0
3, 963870, Note_on_c, 0, 45, 90
3, 963930, Note_on_c, 0, 45, 0
3, 963930, Note_on_c, 0, 46, 90
3, 963990, Note_on_c, 0, 46, 0
3, 963990, Note_on_c, 0, 45, 90
3, 964050, Note_on_c, 0, 45, 0
3, 964050, Note_on_c, 0, 43, 90
3, 964110, Note_on_c, 0, 43, 0
3, 964110, Note_on_c, 0, 46, 90
3, 964170, Note_on_c, 0, 46, 0
3, 964170, Note_on_c, 0, 48, 90
3, 964230, Note_on_c, 0, 48, 0
3, 964230, Note_on_c, 0, 46, 90
3, 964290, Note_on_c, 0, 46, 0
3, 964290, Note_on_c, 0, 45, 90
3, 964350, Note_on_c, 0, 45, 0
3, 964350, Note_on_c, 0, 43, 90
3, 964410, Note_on_c, 0, 43, 0
3, 964410, Note_on_c, 0, 45, 90
3, 964470, Note_on_c, 0, 45, 0
3, 964470, Note_on_c, 0, 53, 90
3, 964530, Note_on_c, 0, 53, 0
3, 964530, Note_on_c, 0, 52, 90
3, 964590, Note_on_c, 0, 52, 0
3, 964590, Note_on_c, 0, 50, 90
3, 964650, Note_on_c, 0, 50, 0
3, 964650, Note_on_c, 0, 52, 90
3, 964710, Note_on_c, 0, 52, 0
3, 964710, Note_on_c, 0, 48, 90
3, 964770, Note_on_c, 0, 48, 0
3, 964770, Note_on_c, 0, 45, 90
3, 964830, Note_on_c, 0, 45, 0
3, 964830, Note_on_c, 0, 48, 90
3, 964890, Note_on_c, 0, 48, 0
3, 964890, Note_on_c, 0, 42, 90
3, 964950, Note_on_c, 0, 42, 0
3, 964950, Note_on_c, 0, 45, 90
3, 965010, Note_on_c, 0, 45, 0
3, 965010, Note_on_c, 0, 44, 90
3, 965070, Note_on_c, 0, 44, 0
3, 965070, Note_on_c, 0, 47, 90
3, 965130, Note_on_c, 0, 47, 0
3, 965130, Note_on_c, 0, 45, 90
3, 965250, Note_on_c, 0, 45, 0
3, 965370, Note_on_c, 0, 52, 90
3, 965410, Note_on_c, 0, 52, 0
3, 965410, Note_on_c, 0, 53, 90
3, 965450, Note_on_c, 0, 53, 0
3, 965450, Note_on_c, 0, 52, 90
3, 965490, Note_on_c, 0, 52, 0
3, 965490, Note_on_c, 0, 50, 90
3, 965530, Note_on_c, 0, 50, 0
3, 965530, Note_on_c, 0, 52, 90
3, 965570, Note_on_c, 0, 52, 0
3, 965570, Note_on_c, 0, 54, 90
3, 965610, Note_on_c, 0, 54, 0
3, 965610, Note_on_c, 0, 55, 90
3, 965760, Note_on_c, 0, 55, 0
3, 965760, Note_on_c, 0, 53, 90
3, 965790, Note_on_c, 0, 53, 0
3, 965790, Note_on_c, 0, 52, 90
3, 965820, Note_on_c, 0, 52, 0
3, 965820, Note_on_c, 0, 50, 90
3, 965850, Note_on_c, 0, 50, 0
3, 965850, Note_on_c, 0, 48, 90
3, 965890, Note_on_c, 0, 48, 0
3, 965890, Note_on_c, 0, 50, 90
3, 965930, Note_on_c, 0, 50, 0
3, 965930, Note_on_c, 0, 48, 90
3, 965970, Note_on_c, 0, 48, 0
3, 965970, Note_on_c, 0, 47, 90
3, 966010, Note_on_c, 0, 47, 0
3, 966010, Note_on_c, 0, 48, 90
3, 966050, Note_on_c, 0, 48, 0
3, 966050, Note_on_c, 0, 50, 90
3, 966090, Note_on_c, 0, 50, 0
3, 966090, Note_on_c, 0, 52, 90
3, 966150, Note_on_c, 0, 52, 0
3, 966150, Note_on_c, 0, 50, 90
3, 966210, Note_on_c, 0, 50, 0
3, 966210, Note_on_c, 0, 48, 90
3, 966270, Note_on_c, 0, 48, 0
3, 966270, Note_on_c, 0, 47, 90
3, 966330, Note_on_c, 0, 47, 0
3, 966330, Note_on_c, 0, 45, 90
3, 966510, Note_on_c, 0, 45, 0
3, 966510, Note_on_c, 0, 47, 90
3, 966570, Note_on_c, 0, 47, 0
3, 966570, Note_on_c, 0, 48, 90
3, 966630, Note_on_c, 0, 48, 0
3, 966630, Note_on_c, 0, 46, 90
3, 966690, Note_on_c, 0, 46, 0
3, 966690, Note_on_c, 0, 45, 90
3, 966750, Note_on_c, 0, 45, 0
3, 966750, Note_on_c, 0, 43, 90
3, 966810, Note_on_c, 0, 43, 0
3, 966810, Note_on_c, 0, 41, 90
3, 966870, Note_on_c, 0, 41, 0
3, 966870, Note_on_c, 0, 43, 90
3, 966930, Note_on_c, 0, 43, 0
3, 966930, Note_on_c, 0, 45, 90
3, 966990, Note_on_c, 0, 45, 0
3, 966990, Note_on_c, 0, 41, 90
3, 967050, Note_on_c, 0, 41, 0
3, 967050, Note_on_c, 0, 46, 90
3, 967110, Note_on_c, 0, 46, 0
3, 967110, Note_on_c, 0, 43, 90
3, 967170, Note_on_c, 0, 43, 0
3, 967170, Note_on_c, 0, 41, 90
3, 967230, Note_on_c, 0, 41, 0
3, 967230, Note_on_c, 0, 40, 90
3, 967290, Note_on_c, 0, 40, 0
3, 967290, Note_on_c, 0, 38, 90
3, 967410, Note_on_c, 0, 38, 0
3, 967650, Note_on_c, 0, 45, 90
3, 967770, Note_on_c, 0, 45, 0
3, 967770, Note_on_c, 0, 38, 90
3, 967830, Note_on_c, 0, 38, 0
3, 967830, Note_on_c, 0, 41, 90
3, 967890, Note_on_c, 0, 41, 0
3, 967890, Note_on_c, 0, 46, 90
3, 968010, Note_on_c, 0, 46, 0
3, 968010, Note_on_c, 0, 40, 90
3, 968070, Note_on_c, 0, 40, 0
3, 968070, Note_on_c, 0, 43, 90
3, 968130, Note_on_c, 0, 43, 0
3, 968130, Note_on_c, 0, 48, 90
3, 968250, Note_on_c, 0, 48, 0
3, 968310, Note_on_c, 0, 45, 90
3, 968370, Note_on_c, 0, 45, 0
3, 968370, Note_on_c, 0, 43, 90
3, 968430, Note_on_c, 0, 43, 0
3, 968430, Note_on_c, 0, 42, 90
3, 968490, Note_on_c, 0, 42, 0
3, 968490, Note_on_c, 0, 43, 90
3, 968610, Note_on_c, 0, 43, 0
3, 968610, Note_on_c, 0, 45, 90
3, 968850, Note_on_c, 0, 45, 0
3, 968850, Note_on_c, 0, 46, 90
3, 968970, Note_on_c, 0, 46, 0
3, 968970, Note_on_c, 0, 37, 90
3, 969030, Note_on_c, 0, 37, 0
3, 969030, Note_on_c, 0, 38, 90
3, 969090, Note_on_c, 0, 38, 0
3, 969090, Note_on_c, 0, 40, 90
3, 969150, Note_on_c, 0, 40, 0
3, 969150, Note_on_c, 0, 41, 90
3, 969210, Note_on_c, 0, 41, 0
3, 969210, Note_on_c, 0, 43, 90
3, 969250, Note_on_c, 0, 43, 0
3, 969250, Note_on_c, 0, 45, 90
3, 969290, Note_on_c, 0, 45, 0
3, 969290, Note_on_c, 0, 43, 90
3, 969330, Note_on_c, 0, 43, 0
3, 969330, Note_on_c, 0, 41, 90
3, 969370, Note_on_c, 0, 41, 0
3, 969370, Note_on_c, 0, 43, 90
3, 969410, Note_on_c, 0, 43, 0
3, 969410, Note_on_c, 0, 45, 90
3, 969450, Note_on_c, 0, 45, 0
3, 969450, Note_on_c, 0, 46, 90
3, 969570, Note_on_c, 0, 46, 0
3, 969570, Note_on_c, 0, 43, 90
3, 969690, Note_on_c, 0, 43, 0
3, 969690, Note_on_c, 0, 50, 90
3, 969730, Note_on_c, 0, 50, 0
3, 969730, Note_on_c, 0, 52, 90
3, 969770, Note_on_c, 0, 52, 0
3, 969770, Note_on_c, 0, 50, 90
3, 969810, Note_on_c, 0, 50, 0
3, 969810, Note_on_c, 0, 49, 90
3, 969850, Note_on_c, 0, 49, 0
3, 969850, Note_on_c, 0, 50, 90
3, 969890, Note_on_c, 0, 50, 0
3, 969890, Note_on_c, 0, 52, 90
3, 969930, Note_on_c, 0, 52, 0
3, 969930, Note_on_c, 0, 53, 90
3, 969970, Note_on_c, 0, 53, 0
3, 969970, Note_on_c, 0, 55, 90
3, 970010, Note_on_c, 0, 55, 0
3, 970010, Note_on_c, 0, 53, 90
3, 970050, Note_on_c, 0, 53, 0
3, 970050, Note_on_c, 0, 52, 90
3, 970090, Note_on_c, 0, 52, 0
3, 970090, Note_on_c, 0, 53, 90
3, 970130, Note_on_c, 0, 53, 0
3, 970130, Note_on_c, 0, 55, 90
3, 970170, Note_on_c, 0, 55, 0
3, 970170, Note_on_c, 0, 57, 90
3, 970230, Note_on_c, 0, 57, 0
3, 970230, Note_on_c, 0, 50, 90
3, 970290, Note_on_c, 0, 50, 0
3, 970290, Note_on_c, 0, 62, 90
3, 970470, Note_on_c, 0, 62, 0
3, 970470, Note_on_c, 0, 60, 90
3, 970530, Note_on_c, 0, 60, 0
3, 970530, Note_on_c, 0, 58, 90
3, 970590, Note_on_c, 0, 58, 0
3, 970590, Note_on_c, 0, 57, 90
3, 970650, Note_on_c, 0, 57, 0
3, 970650, Note_on_c, 0, 58, 90
3, 970950, Note_on_c, 0, 58, 0
3, 970950, Note_on_c, 0, 57, 90
3, 971010, Note_on_c, 0, 57, 0
3, 971010, Note_on_c, 0, 55, 90
3, 971070, Note_on_c, 0, 55, 0
3, 971070, Note_on_c, 0, 53, 90
3, 971130, Note_on_c, 0, 53, 0
3, 971130, Note_on_c, 0, 52, 90
3, 971190, Note_on_c, 0, 52, 0
3, 971190, Note_on_c, 0, 53, 90
3, 971250, Note_on_c, 0, 53, 0
3, 971250, Note_on_c, 0, 55, 90
3, 971310, Note_on_c, 0, 55, 0
3, 971310, Note_on_c, 0, 52, 90
3, 971370, Note_on_c, 0, 52, 0
3, 971370, Note_on_c, 0, 49, 90
3, 971430, Note_on_c, 0, 49, 0
3, 971430, Note_on_c, 0, 50, 90
3, 971490, Note_on_c, 0, 50, 0
3, 971490, Note_on_c, 0, 52, 90
3, 971550, Note_on_c, 0, 52, 0
3, 971550, Note_on_c, 0, 45, 90
3, 971610, Note_on_c, 0, 45, 0
3, 971610, Note_on_c, 0, 57, 90
3, 971670, Note_on_c, 0, 57, 0
3, 971670, Note_on_c, 0, 53, 90
3, 971730, Note_on_c, 0, 53, 0
3, 971730, Note_on_c, 0, 55, 90
3, 971790, Note_on_c, 0, 55, 0
3, 971790, Note_on_c, 0, 57, 90
3, 971850, Note_on_c, 0, 57, 0
3, 971850, Note_on_c, 0, 47, 90
3, 971910, Note_on_c, 0, 47, 0
3, 971910, Note_on_c, 0, 50, 90
3, 971970, Note_on_c, 0, 50, 0
3, 971970, Note_on_c, 0, 55, 90
3, 972090, Note_on_c, 0, 55, 0
3, 972090, Note_on_c, 0, 49, 90
3, 972150, Note_on_c, 0, 49, 0
3, 972150, Note_on_c, 0, 52, 90
3, 972210, Note_on_c, 0, 52, 0
3, 972210, Note_on_c, 0, 57, 90
3, 972330, Note_on_c, 0, 57, 0
3, 972330, Note_on_c, 0, 50, 90
3, 972390, Note_on_c, 0, 50, 0
3, 972390, Note_on_c, 0, 53, 90
3, 972450, Note_on_c, 0, 53, 0
3, 972450, Note_on_c, 0, 55, 90
3, 972510, Note_on_c, 0, 55, 0
3, 972510, Note_on_c, 0, 57, 90
3, 972570, Note_on_c, 0, 57, 0
3, 972570, Note_on_c, 0, 58, 90
3, 972630, Note_on_c, 0, 58, 0
3, 972630, Note_on_c, 0, 55, 90
3, 972690, Note_on_c, 0, 55, 0
3, 972690, Note_on_c, 0, 53, 90
3, 972750, Note_on_c, 0, 53, 0
3, 972750, Note_on_c, 0, 52, 90
3, 972810, Note_on_c, 0, 52, 0
3, 972810, Note_on_c, 0, 53, 90
3, 972930, Note_on_c, 0, 53, 0
3, 972930, Note_on_c, 0, 58, 90
3, 973050, Note_on_c, 0, 58, 0
3, 973050, Note_on_c, 0, 55, 90
3, 973170, Note_on_c, 0, 55, 0
3, 973170, Note_on_c, 0, 57, 90
3, 973290, Note_on_c, 0, 57, 0
3, 973290, Note_on_c, 0, 50, 90
3, 973330, Note_on_c, 0, 50, 0
3, 973330, Note_on_c, 0, 52, 90
3, 973370, Note_on_c, 0, 52, 0
3, 973370, Note_on_c, 0, 50, 90
3, 973410, Note_on_c, 0, 50, 0
3, 973410, Note_on_c, 0, 49, 90
3, 973450, Note_on_c, 0, 49, 0
3, 973450, Note_on_c, 0, 50, 90
3, 973490, Note_on_c, 0, 50, 0
3, 973490, Note_on_c, 0, 52, 90
3, 973530, Note_on_c, 0, 52, 0
3, 973530, Note_on_c, 0, 53, 90
3, 973570, Note_on_c, 0, 53, 0
3, 973570, Note_on_c, 0, 55, 90
3, 973610, Note_on_c, 0, 55, 0
3, 973610, Note_on_c, 0, 53, 90
3, 973650, Note_on_c, 0, 53, 0
3, 973650, Note_on_c, 0, 52, 90
3, 973690, Note_on_c, 0, 52, 0
3, 973690, Note_on_c, 0, 53, 90
3, 973730, Note_on_c, 0, 53, 0
3, 973730, Note_on_c, 0, 55, 90
3, 973770, Note_on_c, 0, 55, 0
3, 973770, Note_on_c, 0, 57, 90
3, 974070, Note_on_c, 0, 57, 0
3, 974070, Note_on_c, 0, 55, 90
3, 974130, Note_on_c, 0, 55, 0
3, 974130, Note_on_c, 0, 53, 90
3, 974190, Note_on_c, 0, 53, 0
3, 974190, Note_on_c, 0, 52, 90
3, 974250, Note_on_c, 0, 52, 0
3, 974250, Note_on_c, 0, 53, 90
3, 974550, Note_on_c, 0, 53, 0
3, 974550, Note_on_c, 0, 52, 90
3, 974610, Note_on_c, 0, 52, 0
3, 974610, Note_on_c, 0, 50, 90
3, 974670, Note_on_c, 0, 50, 0
3, 974670, Note_on_c, 0, 49, 90
3, 974730, Note_on_c, 0, 49, 0
3, 974730, Note_on_c, 0, 50, 90
3, 974850, Note_on_c, 0, 50, 0
3, 974850, Note_on_c, 0, 52, 90
3, 974910, Note_on_c, 0, 52, 0
3, 974910, Note_on_c, 0, 53, 90
3, 974970, Note_on_c, 0, 53, 0
3, 974970, Note_on_c, 0, 55, 90
3, 975030, Note_on_c, 0, 55, 0
3, 975030, Note_on_c, 0, 57, 90
3, 975090, Note_on_c, 0, 57, 0
3, 975090, Note_on_c, 0, 58, 90
3, 975210, Note_on_c, 0, 58, 0
3, 975210, Note_on_c, 0, 58, 90
3, 975330, Note_on_c, 0, 58, 0
3, 975330, Note_on_c, 0, 49, 90
3, 975450, Note_on_c, 0, 49, 0
3, 975510, Note_on_c, 0, 45, 90
3, 975570, Note_on_c, 0, 45, 0
3, 975570, Note_on_c, 0, 47, 90
3, 975630, Note_on_c, 0, 47, 0
3, 975630, Note_on_c, 0, 49, 90
3, 975690, Note_on_c, 0, 49, 0
3, 975690, Note_on_c, 0, 50, 90
3, 975750, Note_on_c, 0, 50, 0
3, 975750, Note_on_c, 0, 49, 90
3, 975810, Note_on_c, 0, 49, 0
3, 975810, Note_on_c, 0, 47, 90
3, 975870, Note_on_c, 0, 47, 0
3, 975870, Note_on_c, 0, 45, 90
3, 975930, Note_on_c, 0, 45, 0
3, 975930, Note_on_c, 0, 52, 90
3, 975990, Note_on_c, 0, 52, 0
3, 975990, Note_on_c, 0, 49, 90
3, 976050, Note_on_c, 0, 49, 0
3, 976050, Note_on_c, 0, 47, 90
3, 976110, Note_on_c, 0, 47, 0
3, 976110, Note_on_c, 0, 45, 90
3, 976170, Note_on_c, 0, 45, 0
3, 976170, Note_on_c, 0, 53, 90
3, 976230, Note_on_c, 0, 53, 0
3, 976230, Note_on_c, 0, 52, 90
3, 976290, Note_on_c, 0, 52, 0
3, 976290, Note_on_c, 0, 50, 90
3, 976410, Note_on_c, 0, 50, 0
3, 976470, Note_on_c, 0, 58, 90
3, 976530, Note_on_c, 0, 58, 0
3, 976530, Note_on_c, 0, 57, 90
3, 976590, Note_on_c, 0, 57, 0
3, 976590, Note_on_c, 0, 56, 90
3, 976650, Note_on_c, 0, 56, 0
3, 976650, Note_on_c, 0, 57, 90
3, 976710, Note_on_c, 0, 57, 0
3, 976710, Note_on_c, 0, 53, 90
3, 976770, Note_on_c, 0, 53, 0
3, 976770, Note_on_c, 0, 52, 90
3, 976830, Note_on_c, 0, 52, 0
3, 976830, Note_on_c, 0, 50, 90
3, 976890, Note_on_c, 0, 50, 0
3, 976890, Note_on_c, 0, 53, 90
3, 976950, Note_on_c, 0, 53, 0
3, 976950, Note_on_c, 0, 52, 90
3, 977010, Note_on_c, 0, 52, 0
3, 977010, Note_on_c, 0, 50, 90
3, 977070, Note_on_c, 0, 50, 0
3, 977070, Note_on_c, 0, 49, 90
3, 977130, Note_on_c, 0, 49, 0
3, 977130, Note_on_c, 0, 50, 90
3, 977250, Note_on_c, 0, 50, 0
3, 977370, Note_on_c, 0, 45, 90
3, 977410, Note_on_c, 0, 45, 0
3, 977410, Note_on_c, 0, 46, 90
3, 977450, Note_on_c, 0, 46, 0
3, 977450, Note_on_c, 0, 45, 90
3, 977490, Note_on_c, 0, 45, 0
3, 977490, Note_on_c, 0, 43, 90
3, 977530, Note_on_c, 0, 43, 0
3, 977530, Note_on_c, 0, 45, 90
3, 977570, Note_on_c, 0, 45, 0
3, 977570, Note_on_c, 0, 47, 90
3, 977610, Note_on_c, 0, 47, 0
3, 977610, Note_on_c, 0, 49, 90
3, 977670, Note_on_c, 0, 49, 0
3, 977670, Note_on_c, 0, 45, 90
3, 977730, Note_on_c, 0, 45, 0
3, 977730, Note_on_c, 0, 47, 90
3, 977790, Note_on_c, 0, 47, 0
3, 977790, Note_on_c, 0, 49, 90
3, 977850, Note_on_c, 0, 49, 0
3, 977850, Note_on_c, 0, 50, 90
3, 977910, Note_on_c, 0, 50, 0
3, 977910, Note_on_c, 0, 52, 90
3, 977970, Note_on_c, 0, 52, 0
3, 977970, Note_on_c, 0, 53, 90
3, 978030, Note_on_c, 0, 53, 0
3, 978030, Note_on_c, 0, 55, 90
3, 978090, Note_on_c, 0, 55, 0
3, 978090, Note_on_c, 0, 57, 90
3, 978150, Note_on_c, 0, 57, 0
3, 978150, Note_on_c, 0, 55, 90
3, 978210, Note_on_c, 0, 55, 0
3, 978210, Note_on_c, 0, 53, 90
3, 978270, Note_on_c, 0, 53, 0
3, 978270, Note_on_c, 0, 52, 90
3, 978330, Note_on_c, 0, 52, 0
3, 978330, Note_on_c, 0, 50, 90
3, 978510, Note_on_c, 0, 50, 0
3, 978510, Note_on_c, 0, 52, 90
3, 978570, Note_on_c, 0, 52, 0
3, 978570, Note_on_c, 0, 53, 90
3, 978630, Note_on_c, 0, 53, 0
3, 978630, Note_on_c, 0, 52, 90
3, 978690, Note_on_c, 0, 52, 0
3, 978690, Note_on_c, 0, 50, 90
3, 978750, Note_on_c, 0, 50, 0
3, 978750, Note_on_c, 0, 48, 90
3, 978810, Note_on_c, 0, 48, 0
3, 978810, Note_on_c, 0, 46, 90
3, 978870, Note_on_c, 0, 46, 0
3, 978870, Note_on_c, 0, 48, 90
3, 978930, Note_on_c, 0, 48, 0
3, 978930, Note_on_c, 0, 50, 90
3, 978990, Note_on_c, 0, 50, 0
3, 978990, Note_on_c, 0, 46, 90
3, 979050, Note_on_c, 0, 46, 0
3, 979050, Note_on_c, 0, 43, 90
3, 979110, Note_on_c, 0, 43, 0
3, 979110, Note_on_c, 0, 45, 90
3, 979170, Note_on_c, 0, 45, 0
3, 979170, Note_on_c, 0, 46, 90
3, 979230, Note_on_c, 0, 46, 0
3, 979230, Note_on_c, 0, 40, 90
3, 979290, Note_on_c, 0, 40, 0
3, 979290, Note_on_c, 0, 52, 90
3, 979350, Note_on_c, 0, 52, 0
3, 979350, Note_on_c, 0, 49, 90
3, 979410, Note_on_c, 0, 49, 0
3, 979410, Note_on_c, 0, 50, 90
3, 979470, Note_on_c, 0, 50, 0
3, 979470, Note_on_c, 0, 52, 90
3, 979530, Note_on_c, 0, 52, 0
3, 979530, Note_on_c, 0, 41, 90
3, 979590, Note_on_c, 0, 41, 0
3, 979590, Note_on_c, 0, 45, 90
3, 979650, Note_on_c, 0, 45, 0
3, 979650, Note_on_c, 0, 50, 90
3, 979770, Note_on_c, 0, 50, 0
3, 979770, Note_on_c, 0, 43, 90
3, 979830, Note_on_c, 0, 43, 0
3, 979830, Note_on_c, 0, 46, 90
3, 979890, Note_on_c, 0, 46, 0
3, 979890, Note_on_c, 0, 52, 90
3, 980010, Note_on_c, 0, 52, 0
3, 980010, Note_on_c, 0, 45, 90
3, 980070, Note_on_c, 0, 45, 0
3, 980070, Note_on_c, 0, 48, 90
3, 980130, Note_on_c, 0, 48, 0
3, 980130, Note_on_c, 0, 50, 90
3, 980190, Note_on_c, 0, 50, 0
3, 980190, Note_on_c, 0, 52, 90
3, 980250, Note_on_c, 0, 52, 0
3, 980250, Note_on_c, 0, 53, 90
3, 980310, Note_on_c, 0, 53, 0
3, 980310, Note_on_c, 0, 50, 90
3, 980370, Note_on_c, 0, 50, 0
3, 980370, Note_on_c, 0, 48, 90
3, 980430, Note_on_c, 0, 48, 0
3, 980430, Note_on_c, 0, 47, 90
3, 980490, Note_on_c, 0, 47, 0
3, 980490, Note_on_c, 0, 48, 90
3, 980610, Note_on_c, 0, 48, 0
3, 980610, Note_on_c, 0, 53, 90
3, 980730, Note_on_c, 0, 53, 0
3, 980730, Note_on_c, 0, 50, 90
3, 980850, Note_on_c, 0, 50, 0
3, 980850, Note_on_c, 0, 52, 90
3, 980970, Note_on_c, 0, 52, 0
3, 980970, Note_on_c, 0, 53, 90
3, 981010, Note_on_c, 0, 53, 0
3, 981010, Note_on_c, 0, 55, 90
3, 981050, Note_on_c, 0, 55, 0
3, 981050, Note_on_c, 0, 53, 90
3, 981090, Note_on_c, 0, 53, 0
3, 981090, Note_on_c, 0, 52, 90
3, 981130, Note_on_c, 0, 52, 0
3, 981130, Note_on_c, 0, 53, 90
3, 981170, Note_on_c, 0, 53, 0
3, 981170, Note_on_c, 0, 55, 90
3, 981210, Note_on_c, 0, 55, 0
3, 981210, Note_on_c, 0, 57, 90
3, 981390, Note_on_c, 0, 57, 0
3, 981390, Note_on_c, 0, 55, 90
3, 981420, Note_on_c, 0, 55, 0
3, 981420, Note_on_c, 0, 53, 90
3, 981450, Note_on_c, 0, 53, 0
3, 981450, Note_on_c, 0, 52, 90
3, 981510, Note_on_c, 0, 52, 0
3, 981510, Note_on_c, 0, 48, 90
3, 981570, Note_on_c, 0, 48, 0
3, 981570, Note_on_c, 0, 50, 90
3, 981630, Note_on_c, 0, 50, 0
3, 981630, Note_on_c, 0, 52, 90
3, 981690, Note_on_c, 0, 52, 0
3, 981690, Note_on_c, 0, 53, 90
3, 981870, Note_on_c, 0, 53, 0
3, 981870, Note_on_c, 0, 52, 90
3, 981900, Note_on_c, 0, 52, 0
3, 981900, Note_on_c, 0, 50, 90
3, 981930, Note_on_c, 0, 50, 0
3, 981930, Note_on_c, 0, 49, 90
3, 982050, Note_on_c, 0, 49, 0
3, 982050, Note_on_c, 0, 45, 90
3, 982170, Note_on_c, 0, 45, 0
3, 982230, Note_on_c, 0, 50, 90
3, 982290, Note_on_c, 0, 50, 0
3, 982290, Note_on_c, 0, 48, 90
3, 982350, Note_on_c, 0, 48, 0
3, 982350, Note_on_c, 0, 46, 90
3, 982410, Note_on_c, 0, 46, 0
3, 982410, Note_on_c, 0, 45, 90
3, 982530, Note_on_c, 0, 45, 0
3, 982530, Note_on_c, 0, 41, 90
3, 982590, Note_on_c, 0, 41, 0
3, 982590, Note_on_c, 0, 45, 90
3, 982650, Note_on_c, 0, 45, 0
3, 982650, Note_on_c, 0, 50, 90
3, 982770, Note_on_c, 0, 50, 0
3, 982770, Note_on_c, 0, 42, 90
3, 982890, Note_on_c, 0, 42, 0
3, 982890, Note_on_c, 0, 43, 90
3, 983010, Note_on_c, 0, 43, 0
3, 983010, Note_on_c, 0, 38, 90
3, 983130, Note_on_c, 0, 38, 0
3, 983190, Note_on_c, 0, 40, 90
3, 983250, Note_on_c, 0, 40, 0
3, 983250, Note_on_c, 0, 42, 90
3, 983310, Note_on_c, 0, 42, 0
3, 983310, Note_on_c, 0, 43, 90
3, 983370, Note_on_c, 0, 43, 0
3, 983370, Note_on_c, 0, 45, 90
3, 983430, Note_on_c, 0, 45, 0
3, 983430, Note_on_c, 0, 43, 90
3, 983490, Note_on_c, 0, 43, 0
3, 983490, Note_on_c, 0, 41, 90
3, 983550, Note_on_c, 0, 41, 0
3, 983550, Note_on_c, 0, 45, 90
3, 983610, Note_on_c, 0, 45, 0
3, 983610, Note_on_c, 0, 46, 90
3, 983670, Note_on_c, 0, 46, 0
3, 983670, Note_on_c, 0, 45, 90
3, 983730, Note_on_c, 0, 45, 0
3, 983730, Note_on_c, 0, 43, 90
3, 983790, Note_on_c, 0, 43, 0
3, 983790, Note_on_c, 0, 46, 90
3, 983850, Note_on_c, 0, 46, 0
3, 983850, Note_on_c, 0, 48, 90
3, 983910, Note_on_c, 0, 48, 0
3, 983910, Note_on_c, 0, 46, 90
3, 983970, Note_on_c, 0, 46, 0
3, 983970, Note_on_c, 0, 45, 90
3, 984030, Note_on_c, 0, 45, 0
3, 984030, Note_on_c, 0, 43, 90
3, 984090, Note_on_c, 0, 43, 0
3, 984090, Note_on_c, 0, 45, 90
3, 984150, Note_on_c, 0, 45, 0
3, 984150, Note_on_c, 0, 53, 90
3, 984210, Note_on_c, 0, 53, 0
3, 984210, Note_on_c, 0, 51, 90
3, 984270, Note_on_c, 0, 51, 0
3, 984270, Note_on_c, 0, 50, 90
3, 984330, Note_on_c, 0, 50, 0
3, 984330, Note_on_c, 0, 51, 90
3, 984390, Note_on_c, 0, 51, 0
3, 984390, Note_on_c, 0, 48, 90
3, 984450, Note_on_c, 0, 48, 0
3, 984450, Note_on_c, 0, 45, 90
3, 984510, Note_on_c, 0, 45, 0
3, 984510, Note_on_c, 0, 48, 90
3, 984570, Note_on_c, 0, 48, 0
3, 984570, Note_on_c, 0, 42, 90
3, 984630, Note_on_c, 0, 42, 0
3, 984630, Note_on_c, 0, 45, 90
3, 984690, Note_on_c, 0, 45, 0
3, 984690, Note_on_c, 0, 43, 90
3, 984750, Note_on_c, 0, 43, 0
3, 984750, Note_on_c, 0, 46, 90
3, 984810, Note_on_c, 0, 46, 0
3, 984810, Note_on_c, 0, 45, 90
3, 984930, Note_on_c, 0, 45, 0
3, 985050, Note_on_c, 0, 52, 90
3, 985090, Note_on_c, 0, 52, 0
3, 985090, Note_on_c, 0, 53, 90
3, 985130, Note_on_c, 0, 53, 0
3, 985130, Note_on_c, 0, 52, 90
3, 985170, Note_on_c, 0, 52, 0
3, 985170, Note_on_c, 0, 50, 90
3, 985210, Note_on_c, 0, 50, 0
3, 985210, Note_on_c, 0, 52, 90
3, 985250, Note_on_c, 0, 52, 0
3, 985250, Note_on_c, 0, 53, 90
3, 985290, Note_on_c, 0, 53, 0
3, 985290, Note_on_c, 0, 55, 90
3, 985330, Note_on_c, 0, 55, 0
3, 985330, Note_on_c, 0, 57, 90
3, 985370, Note_on_c, 0, 57, 0
3, 985370, Note_on_c, 0, 55, 90
3, 985410, Note_on_c, 0, 55, 0
3, 985410, Note_on_c, 0, 53, 90
3, 985450, Note_on_c, 0, 53, 0
3, 985450, Note_on_c, 0, 55, 90
3, 985490, Note_on_c, 0, 55, 0
3, 985490, Note_on_c, 0, 57, 90
3, 985530, Note_on_c, 0, 57, 0
3, 985530, Note_on_c, 0, 58, 90
3, 985650, Note_on_c, 0, 58, 0
3, 985650, Note_on_c, 0, 55, 90
3, 985770, Note_on_c, 0, 55, 0
3, 985770, Note_on_c, 0, 50, 90
3, 985810, Note_on_c, 0, 50, 0
3, 985810, Note_on_c, 0, 52, 90
3, 985850, Note_on_c, 0, 52, 0
3, 985850, Note_on_c, 0, 50, 90
3, 985890, Note_on_c, 0, 50, 0
3, 985890, Note_on_c, 0, 49, 90
3, 985930, Note_on_c, 0, 49, 0
3, 985930, Note_on_c, 0, 50, 90
3, 985970, Note_on_c, 0, 50, 0
3, 985970, Note_on_c, 0, 52, 90
3, 986010, Note_on_c, 0, 52, 0
3, 986010, Note_on_c, 0, 53, 90
3, 986050, Note_on_c, 0, 53, 0
3, 986050, Note_on_c, 0, 55, 90
3, 986090, Note_on_c, 0, 55, 0
3, 986090, Note_on_c, 0, 53, 90
3, 986130, Note_on_c, 0, 53, 0
3, 986130, Note_on_c, 0, 52, 90
3, 986170, Note_on_c, 0, 52, 0
3, 986170, Note_on_c, 0, 53, 90
3, 986210, Note_on_c, 0, 53, 0
3, 986210, Note_on_c, 0, 55, 90
3, 986250, Note_on_c, 0, 55, 0
3, 986250, Note_on_c, 0, 57, 90
3, 986550, Note_on_c, 0, 57, 0
3, 986550, Note_on_c, 0, 55, 90
3, 986610, Note_on_c, 0, 55, 0
3, 986610, Note_on_c, 0, 53, 90
3, 986670, Note_on_c, 0, 53, 0
3, 986670, Note_on_c, 0, 52, 90
3, 986730, Note_on_c, 0, 52, 0
3, 986730, Note_on_c, 0, 53, 90
3, 987030, Note_on_c, 0, 53, 0
3, 987030, Note_on_c, 0, 52, 90
3, 987090, Note_on_c, 0, 52, 0
3, 987090, Note_on_c, 0, 50, 90
3, 987150, Note_on_c, 0, 50, 0
3, 987150, Note_on_c, 0, 49, 90
3, 987210, Note_on_c, 0, 49, 0
3, 987210, Note_on_c, 0, 50, 90
3, 987330, Note_on_c, 0, 50, 0
3, 987330, Note_on_c, 0, 52, 90
3, 987390, Note_on_c, 0, 52, 0
3, 987390, Note_on_c, 0, 53, 90
3, 987450, Note_on_c, 0, 53, 0
3, 987450, Note_on_c, 0, 55, 90
3, 987510, Note_on_c, 0, 55, 0
3, 987510, Note_on_c, 0, 57, 90
3, 987570, Note_on_c, 0, 57, 0
3, 987570, Note_on_c, 0, 58, 90
3, 987690, Note_on_c, 0, 58, 0
3, 987690, Note_on_c, 0, 58, 90
3, 987810, Note_on_c, 0, 58, 0
3, 987810, Note_on_c, 0, 49, 90
3, 987930, Note_on_c, 0, 49, 0
3, 987990, Note_on_c, 0, 45, 90
3, 988050, Note_on_c, 0, 45, 0
3, 988050, Note_on_c, 0, 47, 90
3, 988110, Note_on_c, 0, 47, 0
3, 988110, Note_on_c, 0, 49, 90
3, 988170, Note_on_c, 0, 49, 0
3, 988170, Note_on_c, 0, 50, 90
3, 988230, Note_on_c, 0, 50, 0
3, 988230, Note_on_c, 0, 49, 90
3, 988290, Note_on_c, 0, 49, 0
3, 988290, Note_on_c, 0, 47, 90
3, 988350, Note_on_c, 0, 47, 0
3, 988350, Note_on_c, 0, 45, 90
3, 988410, Note_on_c, 0, 45, 0
3, 988410, Note_on_c, 0, 52, 90
3, 988470, Note_on_c, 0, 52, 0
3, 988470, Note_on_c, 0, 49, 90
3, 988530, Note_on_c, 0, 49, 0
3, 988530, Note_on_c, 0, 47, 90
3, 988590, Note_on_c, 0, 47, 0
3, 988590, Note_on_c, 0, 45, 90
3, 988650, Note_on_c, 0, 45, 0
3, 988650, Note_on_c, 0, 53, 90
3, 988710, Note_on_c, 0, 53, 0
3, 988710, Note_on_c, 0, 52, 90
3, 988770, Note_on_c, 0, 52, 0
3, 988770, Note_on_c, 0, 50, 90
3, 988890, Note_on_c, 0, 50, 0
3, 988950, Note_on_c, 0, 58, 90
3, 989010, Note_on_c, 0, 58, 0
3, 989010, Note_on_c, 0, 57, 90
3, 989070, Note_on_c, 0, 57, 0
3, 989070, Note_on_c, 0, 56, 90
3, 989130, Note_on_c, 0, 56, 0
3, 989130, Note_on_c, 0, 57, 90
3, 989190, Note_on_c, 0, 57, 0
3, 989190, Note_on_c, 0, 53, 90
3, 989250, Note_on_c, 0, 53, 0
3, 989250, Note_on_c, 0, 52, 90
3, 989310, Note_on_c, 0, 52, 0
3, 989310, Note_on_c, 0, 50, 90
3, 989370, Note_on_c, 0, 50, 0
3, 989370, Note_on_c, 0, 53, 90
3, 989430, Note_on_c, 0, 53, 0
3, 989430, Note_on_c, 0, 52, 90
3, 989490, Note_on_c, 0, 52, 0
3, 989490, Note_on_c, 0, 50, 90
3, 989550, Note_on_c, 0, 50, 0
3, 989550, Note_on_c, 0, 49, 90
3, 989610, Note_on_c, 0, 49, 0
3, 989610, Note_on_c, 0, 50, 90
3, 989730, Note_on_c, 0, 50, 0
3, 989850, Note_on_c, 0, 45, 90
3, 989890, Note_on_c, 0, 45, 0
3, 989890, Note_on_c, 0, 47, 90
3, 989930, Note_on_c, 0, 47, 0
3, 989930, Note_on_c, 0, 45, 90
3, 989970, Note_on_c, 0, 45, 0
3, 989970, Note_on_c, 0, 44, 90
3, 990010, Note_on_c, 0, 44, 0
3, 990010, Note_on_c, 0, 45, 90
3, 990050, Note_on_c, 0, 45, 0
3, 990050, Note_on_c, 0, 47, 90
3, 990090, Note_on_c, 0, 47, 0
3, 990090, Note_on_c, 0, 48, 90
3, 990150, Note_on_c, 0, 48, 0
3, 990150, Note_on_c, 0, 45, 90
3, 990210, Note_on_c, 0, 45, 0
3, 990210, Note_on_c, 0, 47, 90
3, 990270, Note_on_c, 0, 47, 0
3, 990270, Note_on_c, 0, 48, 90
3, 990330, Note_on_c, 0, 48, 0
3, 990330, Note_on_c, 0, 50, 90
3, 990390, Note_on_c, 0, 50, 0
3, 990390, Note_on_c, 0, 52, 90
3, 990450, Note_on_c, 0, 52, 0
3, 990450, Note_on_c, 0, 54, 90
3, 990510, Note_on_c, 0, 54, 0
3, 990510, Note_on_c, 0, 56, 90
3, 990570, Note_on_c, 0, 56, 0
3, 990570, Note_on_c, 0, 57, 90
3, 990630, Note_on_c, 0, 57, 0
3, 990630, Note_on_c, 0, 55, 90
3, 990690, Note_on_c, 0, 55, 0
3, 990690, Note_on_c, 0, 53, 90
3, 990750, Note_on_c, 0, 53, 0
3, 990750, Note_on_c, 0, 52, 90
3, 990810, Note_on_c, 0, 52, 0
3, 990810, Note_on_c, 0, 50, 90
3, 990990, Note_on_c, 0, 50, 0
3, 990990, Note_on_c, 0, 52, 90
3, 991050, Note_on_c, 0, 52, 0
3, 991050, Note_on_c, 0, 53, 90
3, 991110, Note_on_c, 0, 53, 0
3, 991110, Note_on_c, 0, 52, 90
3, 991170, Note_on_c, 0, 52, 0
3, 991170, Note_on_c, 0, 50, 90
3, 991230, Note_on_c, 0, 50, 0
3, 991230, Note_on_c, 0, 48, 90
3, 991290, Note_on_c, 0, 48, 0
3, 991290, Note_on_c, 0, 47, 90
3, 991350, Note_on_c, 0, 47, 0
3, 991350, Note_on_c, 0, 48, 90
3, 991410, Note_on_c, 0, 48, 0
3, 991410, Note_on_c, 0, 50, 90
3, 991470, Note_on_c, 0, 50, 0
3, 991470, Note_on_c, 0, 47, 90
3, 991530, Note_on_c, 0, 47, 0
3, 991530, Note_on_c, 0, 44, 90
3, 991590, Note_on_c, 0, 44, 0
3, 991590, Note_on_c, 0, 45, 90
3, 991650, Note_on_c, 0, 45, 0
3, 991650, Note_on_c, 0, 47, 90
3, 991710, Note_on_c, 0, 47, 0
3, 991710, Note_on_c, 0, 40, 90
3, 991770, Note_on_c, 0, 40, 0
3, 991770, Note_on_c, 0, 52, 90
3, 991830, Note_on_c, 0, 52, 0
3, 991830, Note_on_c, 0, 48, 90
3, 991890, Note_on_c, 0, 48, 0
3, 991890, Note_on_c, 0, 50, 90
3, 991950, Note_on_c, 0, 50, 0
3, 991950, Note_on_c, 0, 52, 90
3, 992010, Note_on_c, 0, 52, 0
3, 992010, Note_on_c, 0, 42, 90
3, 992070, Note_on_c, 0, 42, 0
3, 992070, Note_on_c, 0, 45, 90
3, 992130, Note_on_c, 0, 45, 0
3, 992130, Note_on_c, 0, 50, 90
3, 992250, Note_on_c, 0, 50, 0
3, 992250, Note_on_c, 0, 44, 90
3, 992310, Note_on_c, 0, 44, 0
3, 992310, Note_on_c, 0, 47, 90
3, 992370, Note_on_c, 0, 47, 0
3, 992370, Note_on_c, 0, 52, 90
3, 992490, Note_on_c, 0, 52, 0
3, 992490, Note_on_c, 0, 45, 90
3, 992550, Note_on_c, 0, 45, 0
3, 992550, Note_on_c, 0, 48, 90
3, 992610, Note_on_c, 0, 48, 0
3, 992610, Note_on_c, 0, 50, 90
3, 992670, Note_on_c, 0, 50, 0
3, 992670, Note_on_c, 0, 52, 90
3, 992730, Note_on_c, 0, 52, 0
3, 992730, Note_on_c, 0, 53, 90
3, 992790, Note_on_c, 0, 53, 0
3, 992790, Note_on_c, 0, 50, 90
3, 992850, Note_on_c, 0, 50, 0
3, 992850, Note_on_c, 0, 48, 90
3, 992910, Note_on_c, 0, 48, 0
3, 992910, Note_on_c, 0, 47, 90
3, 992970, Note_on_c, 0, 47, 0
3, 992970, Note_on_c, 0, 48, 90
3, 993090, Note_on_c, 0, 48, 0
3, 993090, Note_on_c, 0, 53, 90
3, 993210, Note_on_c, 0, 53, 0
3, 993210, Note_on_c, 0, 50, 90
3, 993330, Note_on_c, 0, 50, 0
3, 993330, Note_on_c, 0, 52, 90
3, 993450, Note_on_c, 0, 52, 0
3, 993450, Note_on_c, 0, 53, 90
3, 993490, Note_on_c, 0, 53, 0
3, 993490, Note_on_c, 0, 55, 90
3, 993530, Note_on_c, 0, 55, 0
3, 993530, Note_on_c, 0, 53, 90
3, 993570, Note_on_c, 0, 53, 0
3, 993570, Note_on_c, 0, 52, 90
3, 993610, Note_on_c, 0, 52, 0
3, 993610, Note_on_c, 0, 53, 90
3, 993650, Note_on_c, 0, 53, 0
3, 993650, Note_on_c, 0, 55, 90
3, 993690, Note_on_c, 0, 55, 0
3, 993690, Note_on_c, 0, 57, 90
3, 993870, Note_on_c, 0, 57, 0
3, 993870, Note_on_c, 0, 55, 90
3, 993900, Note_on_c, 0, 55, 0
3, 993900, Note_on_c, 0, 53, 90
3, 993930, Note_on_c, 0, 53, 0
3, 993930, Note_on_c, 0, 52, 90
3, 993990, Note_on_c, 0, 52, 0
3, 993990, Note_on_c, 0, 48, 90
3, 994050, Note_on_c, 0, 48, 0
3, 994050, Note_on_c, 0, 50, 90
3, 994110, Note_on_c, 0, 50, 0
3, 994110, Note_on_c, 0, 52, 90
3, 994170, Note_on_c, 0, 52, 0
3, 994170, Note_on_c, 0, 53, 90
3, 994350, Note_on_c, 0, 53, 0
3, 994350, Note_on_c, 0, 52, 90
3, 994380, Note_on_c, 0, 52, 0
3, 994380, Note_on_c, 0, 50, 90
3, 994410, Note_on_c, 0, 50, 0
3, 994410, Note_on_c, 0, 49, 90
3, 994530, Note_on_c, 0, 49, 0
3, 994530, Note_on_c, 0, 45, 90
3, 994650, Note_on_c, 0, 45, 0
3, 994710, Note_on_c, 0, 50, 90
3, 994770, Note_on_c, 0, 50, 0
3, 994770, Note_on_c, 0, 48, 90
3, 994830, Note_on_c, 0, 48, 0
3, 994830, Note_on_c, 0, 46, 90
3, 994890, Note_on_c, 0, 46, 0
3, 994890, Note_on_c, 0, 45, 90
3, 995010, Note_on_c, 0, 45, 0
3, 995010, Note_on_c, 0, 41, 90
3, 995070, Note_on_c, 0, 41, 0
3, 995070, Note_on_c, 0, 45, 90
3, 995130, Note_on_c, 0, 45, 0
3, 995130, Note_on_c, 0, 50, 90
3, 995250, Note_on_c, 0, 50, 0
3, 995250, Note_on_c, 0, 41, 90
3, 995370, Note_on_c, 0, 41, 0
3, 995370, Note_on_c, 0, 43, 90
3, 995490, Note_on_c, 0, 43, 0
3, 995490, Note_on_c, 0, 38, 90
3, 995610, Note_on_c, 0, 38, 0
3, 995670, Note_on_c, 0, 40, 90
3, 995730, Note_on_c, 0, 40, 0
3, 995730, Note_on_c, 0, 41, 90
3, 995790, Note_on_c, 0, 41, 0
3, 995790, Note_on_c, 0, 43, 90
3, 995850, Note_on_c, 0, 43, 0
3, 995850, Note_on_c, 0, 45, 90
3, 995910, Note_on_c, 0, 45, 0
3, 995910, Note_on_c, 0, 43, 90
3, 995970, Note_on_c, 0, 43, 0
3, 995970, Note_on_c, 0, 41, 90
3, 996030, Note_on_c, 0, 41, 0
3, 996030, Note_on_c, 0, 45, 90
3, 996090, Note_on_c, 0, 45, 0
3, 996090, Note_on_c, 0, 46, 90
3, 996150, Note_on_c, 0, 46, 0
3, 996150, Note_on_c, 0, 45, 90
3, 996210, Note_on_c, 0, 45, 0
3, 996210, Note_on_c, 0, 43, 90
3, 996270, Note_on_c, 0, 43, 0
3, 996270, Note_on_c, 0, 46, 90
3, 996330, Note_on_c, 0, 46, 0
3, 996330, Note_on_c, 0, 48, 90
3, 996390, Note_on_c, 0, 48, 0
3, 996390, Note_on_c, 0, 46, 90
3, 996450, Note_on_c, 0, 46, 0
3, 996450, Note_on_c, 0, 45, 90
3, 996510, Note_on_c, 0, 45, 0
3, 996510, Note_on_c, 0, 43, 90
3, 996570, Note_on_c, 0, 43, 0
3, 996570, Note_on_c, 0, 45, 90
3, 996630, Note_on_c, 0, 45, 0
3, 996630, Note_on_c, 0, 53, 90
3, 996690, Note_on_c, 0, 53, 0
3, 996690, Note_on_c, 0, 52, 90
3, 996750, Note_on_c, 0, 52, 0
3, 996750, Note_on_c, 0, 50, 90
3, 996810, Note_on_c, 0, 50, 0
3, 996810, Note_on_c, 0, 52, 90
3, 996870, Note_on_c, 0, 52, 0
3, 996870, Note_on_c, 0, 48, 90
3, 996930, Note_on_c, 0, 48, 0
3, 996930, Note_on_c, 0, 45, 90
3, 996990, Note_on_c, 0, 45, 0
3, 996990, Note_on_c, 0, 48, 90
3, 997050, Note_on_c, 0, 48, 0
3, 997050, Note_on_c, 0, 42, 90
3, 997110, Note_on_c, 0, 42, 0
3, 997110, Note_on_c, 0, 45, 90
3, 997170, Note_on_c, 0, 45, 0
3, 997170, Note_on_c, 0, 44, 90
3, 997230, Note_on_c, 0, 44, 0
3, 997230, Note_on_c, 0, 47, 90
3, 997290, Note_on_c, 0, 47, 0
3, 997290, Note_on_c, 0, 45, 90
3, 997410, Note_on_c, 0, 45, 0
3, 997530, Note_on_c, 0, 52, 90
3, 997570, Note_on_c, 0, 52, 0
3, 997570, Note_on_c, 0, 53, 90
3, 997610, Note_on_c, 0, 53, 0
3, 997610, Note_on_c, 0, 52, 90
3, 997650, Note_on_c, 0, 52, 0
3, 997650, Note_on_c, 0, 50, 90
3, 997690, Note_on_c, 0, 50, 0
3, 997690, Note_on_c, 0, 52, 90
3, 997730, Note_on_c, 0, 52, 0
3, 997730, Note_on_c, 0, 54, 90
3, 997770, Note_on_c, 0, 54, 0
3, 997770, Note_on_c, 0, 55, 90
3, 997920, Note_on_c, 0, 55, 0
3, 997920, Note_on_c, 0, 53, 90
3, 997950, Note_on_c, 0, 53, 0
3, 997950, Note_on_c, 0, 52, 90
3, 997980, Note_on_c, 0, 52, 0
3, 997980, Note_on_c, 0, 50, 90
3, 998010, Note_on_c, 0, 50, 0
3, 998010, Note_on_c, 0, 48, 90
3, 998050, Note_on_c, 0, 48, 0
3, 998050, Note_on_c, 0, 50, 90
3, 998090, Note_on_c, 0, 50, 0
3, 998090, Note_on_c, 0, 48, 90
3, 998130, Note_on_c, 0, 48, 0
3, 998130, Note_on_c, 0, 47, 90
3, 998170, Note_on_c, 0, 47, 0
3, 998170, Note_on_c, 0, 48, 90
3, 998210, Note_on_c, 0, 48, 0
3, 998210, Note_on_c, 0, 50, 90
3, 998250, Note_on_c, 0, 50, 0
3, 998250, Note_on_c, 0, 52, 90
3, 998310, Note_on_c, 0, 52, 0
3, 998310, Note_on_c, 0, 50, 90
3, 998370, Note_on_c, 0, 50, 0
3, 998370, Note_on_c, 0, 48, 90
3, 998430, Note_on_c, 0, 48, 0
3, 998430, Note_on_c, 0, 47, 90
3, 998490, Note_on_c, 0, 47, 0
3, 998490, Note_on_c, 0, 45, 90
3, 998670, Note_on_c, 0, 45, 0
3, 998670, Note_on_c, 0, 47, 90
3, 998730, Note_on_c, 0, 47, 0
3, 998730, Note_on_c, 0, 48, 90
3, 998790, Note_on_c, 0, 48, 0
3, 998790, Note_on_c, 0, 46, 90
3, 998850, Note_on_c, 0, 46, 0
3, 998850, Note_on_c, 0, 45, 90
3, 998910, Note_on_c, 0, 45, 0
3, 998910, Note_on_c, 0, 43, 90
3, 998970, Note_on_c, 0, 43, 0
3, 998970, Note_on_c, 0, 41, 90
3, 999030, Note_on_c, 0, 41, 0
3, 999030, Note_on_c, 0, 43, 90
3, 999090, Note_on_c, 0, 43, 0
3, 999090, Note_on_c, 0, 45, 90
3, 999150, Note_on_c, 0, 45, 0
3, 999150, Note_on_c, 0, 41, 90
3, 999210, Note_on_c, 0, 41, 0
3, 999210, Note_on_c, 0, 46, 90
3, 999270, Note_on_c, 0, 46, 0
3, 999270, Note_on_c, 0, 43, 90
3, 999330, Note_on_c, 0, 43, 0
3, 999330, Note_on_c, 0, 41, 90
3, 999390, Note_on_c, 0, 41, 0
3, 999390, Note_on_c, 0, 40, 90
3, 999450, Note_on_c, 0, 40, 0
3, 999450, Note_on_c, 0, 38, 90
3, 999570, Note_on_c, 0, 38, 0
3, 999810, Note_on_c, 0, 45, 90
3, 999930, Note_on_c, 0, 45, 0
3, 999930, Note_on_c, 0, 38, 90
3, 999990, Note_on_c, 0, 38, 0
3, 999990, Note_on_c, 0, 41, 90
3, 1000050, Note_on_c, 0, 41, 0
3, 1000050, Note_on_c, 0, 46, 90
3, 1000170, Note_on_c, 0, 46, 0
3, 1000170, Note_on_c, 0, 40, 90
3, 1000230, Note_on_c, 0, 40, 0
3, 1000230, Note_on_c, 0, 43, 90
3, 1000290, Note_on_c, 0, 43, 0
3, 1000290, Note_on_c, 0, 48, 90
3, 1000410, Note_on_c, 0, 48, 0
3, 1000470, Note_on_c, 0, 45, 90
3, 1000530, Note_on_c, 0, 45, 0
3, 1000530, Note_on_c, 0, 43, 90
3, 1000590, Note_on_c, 0, 43, 0
3, 1000590, Note_on_c, 0, 42, 90
3, 1000650, Note_on_c, 0, 42, 0
3, 1000650, Note_on_c, 0, 43, 90
3, 1000770, Note_on_c, 0, 43, 0
3, 1000770, Note_on_c, 0, 45, 90
3, 1001010, Note_on_c, 0, 45, 0
3, 1001010, Note_on_c, 0, 46, 90
3, 1001130, Note_on_c, 0, 46, 0
3, 1001130, Note_on_c, 0, 37, 90
3, 1001190, Note_on_c, 0, 37, 0
3, 1001190, Note_on_c, 0, 38, 90
3, 1001250, Note_on_c, 0, 38, 0
3, 1001250, Note_on_c, 0, 40, 90
3, 1001310, Note_on_c, 0, 40, 0
3, 1001310, Note_on_c, 0, 41, 90
3, 1001370, Note_on_c, 0, 41, 0
3, 1001370, Note_on_c, 0, 43, 90
3, 1001410, Note_on_c, 0, 43, 0
3, 1001410, Note_on_c, 0, 45, 90
3, 1001450, Note_on_c, 0, 45, 0
3, 1001450, Note_on_c, 0, 43, 90
3, 1001490, Note_on_c, 0, 43, 0
3, 1001490, Note_on_c, 0, 41, 90
3, 1001530, Note_on_c, 0, 41, 0
3, 1001530, Note_on_c, 0, 43, 90
3, 1001570, Note_on_c, 0, 43, 0
3, 1001570, Note_on_c, 0, 45, 90
3, 1001610, Note_on_c, 0, 45, 0
3, 1001610, Note_on_c, 0, 46, 90
3, 1001730, Note_on_c, 0, 46, 0
3, 1001730, Note_on_c, 0, 43, 90
3, 1001850, Note_on_c, 0, 43, 0
3, 1001850, Note_on_c, 0, 50, 90
3, 1001890, Note_on_c, 0, 50, 0
3, 1001890, Note_on_c, 0, 52, 90
3, 1001930, Note_on_c, 0, 52, 0
3, 1001930, Note_on_c, 0, 50, 90
3, 1001970, Note_on_c, 0, 50, 0
3, 1001970, Note_on_c, 0, 49, 90
3, 1002010, Note_on_c, 0, 49, 0
3, 1002010, Note_on_c, 0, 50, 90
3, 1002050, Note_on_c, 0, 50, 0
3, 1002050, Note_on_c, 0, 52, 90
3, 1002090, Note_on_c, 0, 52, 0
3, 1002090, Note_on_c, 0, 53, 90
3, 1002130, Note_on_c, 0, 53, 0
3, 1002130, Note_on_c, 0, 55, 90
3, 1002170, Note_on_c, 0, 55, 0
3, 1002170, Note_on_c, 0, 53, 90
3, 1002210, Note_on_c, 0, 53, 0
3, 1002210, Note_on_c, 0, 52, 90
3, 1002250, Note_on_c, 0, 52, 0
3, 1002250, Note_on_c, 0, 53, 90
3, 1002290, Note_on_c, 0, 53, 0
3, 1002290, Note_on_c, 0, 55, 90
3, 1002330, Note_on_c, 0, 55, 0
3, 1002330, Note_on_c, 0, 57, 90
3, 1002390, Note_on_c, 0, 57, 0
3, 1002390, Note_on_c, 0, 50, 90
3, 1002450, Note_on_c, 0, 50, 0
3, 1002450, Note_on_c, 0, 62, 90
3, 1002630, Note_on_c, 0, 62, 0
3, 1002630, Note_on_c, 0, 60, 90
3, 1002690, Note_on_c, 0, 60, 0
3, 1002690, Note_on_c, 0, 58, 90
3, 1002750, Note_on_c, 0, 58, 0
3, 1002750, Note_on_c, 0, 57, 90
3, 1002810, Note_on_c, 0, 57, 0
3, 1002810, Note_on_c, 0, 58, 90
3, 1003110, Note_on_c, 0, 58, 0
3, 1003110, Note_on_c, 0, 57, 90
3, 1003170, Note_on_c, 0, 57, 0
3, 1003170, Note_on_c, 0, 55, 90
3, 1003230, Note_on_c, 0, 55, 0
3, 1003230, Note_on_c, 0, 53, 90
3, 1003290, Note_on_c, 0, 53, 0
3, 1003290, Note_on_c, 0, 52, 90
3, 1003350, Note_on_c, 0, 52, 0
3, 1003350, Note_on_c, 0, 53, 90
3, 1003410, Note_on_c, 0, 53, 0
3, 1003410, Note_on_c, 0, 55, 90
3, 1003470, Note_on_c, 0, 55, 0
3, 1003470, Note_on_c, 0, 52, 90
3, 1003530, Note_on_c, 0, 52, 0
3, 1003530, Note_on_c, 0, 49, 90
3, 1003590, Note_on_c, 0, 49, 0
3, 1003590, Note_on_c, 0, 50, 90
3, 1003650, Note_on_c, 0, 50, 0
3, 1003650, Note_on_c, 0, 52, 90
3, 1003710, Note_on_c, 0, 52, 0
3, 1003710, Note_on_c, 0, 45, 90
3, 1003770, Note_on_c, 0, 45, 0
3, 1003770, Note_on_c, 0, 57, 90
3, 1003830, Note_on_c, 0, 57, 0
3, 1003830, Note_on_c, 0, 53, 90
3, 1003890, Note_on_c, 0, 53, 0
3, 1003890, Note_on_c, 0, 55, 90
3, 1003950, Note_on_c, 0, 55, 0
3, 1003950, Note_on_c, 0, 57, 90
3, 1004010, Note_on_c, 0, 57, 0
3, 1004010, Note_on_c, 0, 47, 90
3, 1004070, Note_on_c, 0, 47, 0
3, 1004070, Note_on_c, 0, 50, 90
3, 1004130, Note_on_c, 0, 50, 0
3, 1004130, Note_on_c, 0, 55, 90
3, 1004250, Note_on_c, 0, 55, 0
3, 1004250, Note_on_c, 0, 49, 90
3, 1004310, Note_on_c, 0, 49, 0
3, 1004310, Note_on_c, 0, 52, 90
3, 1004370, Note_on_c, 0, 52, 0
3, 1004370, Note_on_c, 0, 57, 90
3, 1004490, Note_on_c, 0, 57, 0
3, 1004490, Note_on_c, 0, 50, 90
3, 1004550, Note_on_c, 0, 50, 0
3, 1004550, Note_on_c, 0, 53, 90
3, 1004610, Note_on_c, 0, 53, 0
3, 1004610, Note_on_c, 0, 55, 90
3, 1004670, Note_on_c, 0, 55, 0
3, 1004670, Note_on_c, 0, 57, 90
3, 1004730, Note_on_c, 0, 57, 0
3, 1004730, Note_on_c, 0, 58, 90
3, 1004790, Note_on_c, 0, 58, 0
3, 1004790, Note_on_c, 0, 55, 90
3, 1004850, Note_on_c, 0, 55, 0
3, 1004850, Note_on_c, 0, 53, 90
3, 1004910, Note_on_c, 0, 53, 0
3, 1004910, Note_on_c, 0, 52, 90
3, 1004970, Note_on_c, 0, 52, 0
3, 1004970, Note_on_c, 0, 53, 90
3, 1005090, Note_on_c, 0, 53, 0
3, 1005090, Note_on_c, 0, 58, 90
3, 1005210, Note_on_c, 0, 58, 0
3, 1005210, Note_on_c, 0, 55, 90
3, 1005330, Note_on_c, 0, 55, 0
3, 1005330, Note_on_c, 0, 57, 90
3, 1005450, Note_on_c, 0, 57, 0
3, 1005450, Note_on_c, 0, 50, 90
3, 1005490, Note_on_c, 0, 50, 0
3, 1005490, Note_on_c, 0, 52, 90
3, 1005530, Note_on_c, 0, 52, 0
3, 1005530, Note_on_c, 0, 50, 90
3, 1005570, Note_on_c, 0, 50, 0
3, 1005570, Note_on_c, 0, 49, 90
3, 1005610, Note_on_c, 0, 49, 0
3, 1005610, Note_on_c, 0, 50, 90
3, 1005650, Note_on_c, 0, 50, 0
3, 1005650, Note_on_c, 0, 52, 90
3, 1005690, Note_on_c, 0, 52, 0
3, 1005690, Note_on_c, 0, 53, 90
3, 1005730, Note_on_c, 0, 53, 0
3, 1005730, Note_on_c, 0, 55, 90
3, 1005770, Note_on_c, 0, 55, 0
3, 1005770, Note_on_c, 0, 53, 90
3, 1005810, Note_on_c, 0, 53, 0
3, 1005810, Note_on_c, 0, 52, 90
3, 1005850, Note_on_c, 0, 52, 0
3, 1005850, Note_on_c, 0, 53, 90
3, 1005890, Note_on_c, 0, 53, 0
3, 1005890, Note_on_c, 0, 55, 90
3, 1005930, Note_on_c, 0, 55, 0
3, 1005930, Note_on_c, 0, 57, 90
3, 1006230, Note_on_c, 0, 57, 0
3, 1006230, Note_on_c, 0, 55, 90
3, 1006290, Note_on_c, 0, 55, 0
3, 1006290, Note_on_c, 0, 53, 90
3, 1006350, Note_on_c, 0, 53, 0
3, 1006350, Note_on_c, 0, 52, 90
3, 1006410, Note_on_c, 0, 52, 0
3, 1006410, Note_on_c, 0, 53, 90
3, 1006710, Note_on_c, 0, 53, 0
3, 1006710, Note_on_c, 0, 52, 90
3, 1006770, Note_on_c, 0, 52, 0
3, 1006770, Note_on_c, 0, 50, 90
3, 1006830, Note_on_c, 0, 50, 0
3, 1006830, Note_on_c, 0, 49, 90
3, 1006890, Note_on_c, 0, 49, 0
3, 1006890, Note_on_c, 0, 50, 90
3, 1007010, Note_on_c, 0, 50, 0
3, 1007010, Note_on_c, 0, 52, 90
3, 1007070, Note_on_c, 0, 52, 0
3, 1007070, Note_on_c, 0, 53, 90
3, 1007130, Note_on_c, 0, 53, 0
3, 1007130, Note_on_c, 0, 55, 90
3, 1007190, Note_on_c, 0, 55, 0
3, 1007190, Note_on_c, 0, 57, 90
3, 1007250, Note_on_c, 0, 57, 0
3, 1007250, Note_on_c, 0, 58, 90
3, 1007370, Note_on_c, 0, 58, 0
3, 1007370, Note_on_c, 0, 58, 90
3, 1007490, Note_on_c, 0, 58, 0
3, 1007490, Note_on_c, 0, 49, 90
3, 1007610, Note_on_c, 0, 49, 0
3, 1007670, Note_on_c, 0, 45, 90
3, 1007730, Note_on_c, 0, 45, 0
3, 1007730, Note_on_c, 0, 47, 90
3, 1007790, Note_on_c, 0, 47, 0
3, 1007790, Note_on_c, 0, 49, 90
3, 1007850, Note_on_c, 0, 49, 0
3, 1007850, Note_on_c, 0, 50, 90
3, 1007910, Note_on_c, 0, 50, 0
3, 1007910, Note_on_c, 0, 49, 90
3, 1007970, Note_on_c, 0, 49, 0
3, 1007970, Note_on_c, 0, 47, 90
3, 1008030, Note_on_c, 0, 47, 0
3, 1008030, Note_on_c, 0, 45, 90
3, 1008090, Note_on_c, 0, 45, 0
3, 1008090, Note_on_c, 0, 52, 90
3, 1008150, Note_on_c, 0, 52, 0
3, 1008150, Note_on_c, 0, 49, 90
3, 1008210, Note_on_c, 0, 49, 0
3, 1008210, Note_on_c, 0, 47, 90
3, 1008270, Note_on_c, 0, 47, 0
3, 1008270, Note_on_c, 0, 45, 90
3, 1008330, Note_on_c, 0, 45, 0
3, 1008330, Note_on_c, 0, 53, 90
3, 1008390, Note_on_c, 0, 53, 0
3, 1008390, Note_on_c, 0, 52, 90
3, 1008450, Note_on_c, 0, 52, 0
3, 1008450, Note_on_c, 0, 50, 90
3, 1008570, Note_on_c, 0, 50, 0
3, 1008630, Note_on_c, 0, 58, 90
3, 1008690, Note_on_c, 0, 58, 0
3, 1008690, Note_on_c, 0, 57, 90
3, 1008750, Note_on_c, 0, 57, 0
3, 1008750, Note_on_c, 0, 56, 90
3, 1008810, Note_on_c, 0, 56, 0
3, 1008810, Note_on_c, 0, 57, 90
3, 1008870, Note_on_c, 0, 57, 0
3, 1008870, Note_on_c, 0, 53, 90
3, 1008930, Note_on_c, 0, 53, 0
3, 1008930, Note_on_c, 0, 52, 90
3, 1008990, Note_on_c, 0, 52, 0
3, 1008990, Note_on_c, 0, 50, 90
3, 1009050, Note_on_c, 0, 50, 0
3, 1009050, Note_on_c, 0, 53, 90
3, 1009110, Note_on_c, 0, 53, 0
3, 1009110, Note_on_c, 0, 52, 90
3, 1009170, Note_on_c, 0, 52, 0
3, 1009170, Note_on_c, 0, 50, 90
3, 1009230, Note_on_c, 0, 50, 0
3, 1009230, Note_on_c, 0, 49, 90
3, 1009290, Note_on_c, 0, 49, 0
3, 1009290, Note_on_c, 0, 50, 90
3, 1009410, Note_on_c, 0, 50, 0
3, 1009530, Note_on_c, 0, 45, 90
3, 1009570, Note_on_c, 0, 45, 0
3, 1009570, Note_on_c, 0, 46, 90
3, 1009610, Note_on_c, 0, 46, 0
3, 1009610, Note_on_c, 0, 45, 90
3, 1009650, Note_on_c, 0, 45, 0
3, 1009650, Note_on_c, 0, 43, 90
3, 1009690, Note_on_c, 0, 43, 0
3, 1009690, Note_on_c, 0, 45, 90
3, 1009730, Note_on_c, 0, 45, 0
3, 1009730, Note_on_c, 0, 47, 90
3, 1009770, Note_on_c, 0, 47, 0
3, 1009770, Note_on_c, 0, 49, 90
3, 1009830, Note_on_c, 0, 49, 0
3, 1009830, Note_on_c, 0, 45, 90
3, 1009890, Note_on_c, 0, 45, 0
3, 1009890, Note_on_c, 0, 47, 90
3, 1009950, Note_on_c, 0, 47, 0
3, 1009950, Note_on_c, 0, 49, 90
3, 1010010, Note_on_c, 0, 49, 0
3, 1010010, Note_on_c, 0, 50, 90
3, 1010070, Note_on_c, 0, 50, 0
3, 1010070, Note_on_c, 0, 52, 90
3, 1010130, Note_on_c, 0, 52, 0
3, 1010130, Note_on_c, 0, 53, 90
3, 1010190, Note_on_c, 0, 53, 0
3, 1010190, Note_on_c, 0, 55, 90
3, 1010250, Note_on_c, 0, 55, 0
3, 1010250, Note_on_c, 0, 57, 90
3, 1010310, Note_on_c, 0, 57, 0
3, 1010310, Note_on_c, 0, 55, 90
3, 1010370, Note_on_c, 0, 55, 0
3, 1010370, Note_on_c, 0, 53, 90
3, 1010430, Note_on_c, 0, 53, 0
3, 1010430, Note_on_c, 0, 52, 90
3, 1010490, Note_on_c, 0, 52, 0
3, 1010490, Note_on_c, 0, 50, 90
3, 1010670, Note_on_c, 0, 50, 0
3, 1010670, Note_on_c, 0, 52, 90
3, 1010730, Note_on_c, 0, 52, 0
3, 1010730, Note_on_c, 0, 53, 90
3, 1010790, Note_on_c, 0, 53, 0
3, 1010790, Note_on_c, 0, 52, 90
3, 1010850, Note_on_c, 0, 52, 0
3, 1010850, Note_on_c, 0, 50, 90
3, 1010910, Note_on_c, 0, 50, 0
3, 1010910, Note_on_c, 0, 48, 90
3, 1010970, Note_on_c, 0, 48, 0
3, 1010970, Note_on_c, 0, 46, 90
3, 1011030, Note_on_c, 0, 46, 0
3, 1011030, Note_on_c, 0, 48, 90
3, 1011090, Note_on_c, 0, 48, 0
3, 1011090, Note_on_c, 0, 50, 90
3, 1011150, Note_on_c, 0, 50, 0
3, 1011150, Note_on_c, 0, 46, 90
3, 1011210, Note_on_c, 0, 46, 0
3, 1011210, Note_on_c, 0, 43, 90
3, 1011270, Note_on_c, 0, 43, 0
3, 1011270, Note_on_c, 0, 45, 90
3, 1011330, Note_on_c, 0, 45, 0
3, 1011330, Note_on_c, 0, 46, 90
3, 1011390, Note_on_c, 0, 46, 0
3, 1011390, Note_on_c, 0, 40, 90
3, 1011450, Note_on_c, 0, 40, 0
3, 1011450, Note_on_c, 0, 52, 90
3, 1011510, Note_on_c, 0, 52, 0
3, 1011510, Note_on_c, 0, 49, 90
3, 1011570, Note_on_c, 0, 49, 0
3, 1011570, Note_on_c, 0, 50, 90
3, 1011630, Note_on_c, 0, 50, 0
3, 1011630, Note_on_c, 0, 52, 90
3, 1011690, Note_on_c, 0, 52, 0
3, 1011690, Note_on_c, 0, 41, 90
3, 1011750, Note_on_c, 0, 41, 0
3, 1011750, Note_on_c, 0, 45, 90
3, 1011810, Note_on_c, 0, 45, 0
3, 1011810, Note_on_c, 0, 50, 90
3, 1011930, Note_on_c, 0, 50, 0
3, 1011930, Note_on_c, 0, 43, 90
3, 1011990, Note_on_c, 0, 43, 0
3, 1011990, Note_on_c, 0, 46, 90
3, 1012050, Note_on_c, 0, 46, 0
3, 1012050, Note_on_c, 0, 52, 90
3, 1012170, Note_on_c, 0, 52, 0
3, 1012170, Note_on_c, 0, 45, 90
3, 1012230, Note_on_c, 0, 45, 0
3, 1012230, Note_on_c, 0, 48, 90
3, 1012290, Note_on_c, 0, 48, 0
3, 1012290, Note_on_c, 0, 50, 90
3, 1012350, Note_on_c, 0, 50, 0
3, 1012350, Note_on_c, 0, 52, 90
3, 1012410, Note_on_c, 0, 52, 0
3, 1012410, Note_on_c, 0, 53, 90
3, 1012470, Note_on_c, 0, 53, 0
3, 1012470, Note_on_c, 0, 50, 90
3, 1012530, Note_on_c, 0, 50, 0
3, 1012530, Note_on_c, 0, 48, 90
3, 1012590, Note_on_c, 0, 48, 0
3, 1012590, Note_on_c, 0, 47, 90
3, 1012650, Note_on_c, 0, 47, 0
3, 1012650, Note_on_c, 0, 48, 90
3, 1012770, Note_on_c, 0, 48, 0
3, 1012770, Note_on_c, 0, 53, 90
3, 1012890, Note_on_c, 0, 53, 0
3, 1012890, Note_on_c, 0, 50, 90
3, 1013010, Note_on_c, 0, 50, 0
3, 1013010, Note_on_c, 0, 52, 90
3, 1013130, Note_on_c, 0, 52, 0
3, 1013130, Note_on_c, 0, 53, 90
3, 1013170, Note_on_c, 0, 53, 0
3, 1013170, Note_on_c, 0, 55, 90
3, 1013210, Note_on_c, 0, 55, 0
3, 1013210, Note_on_c, 0, 53, 90
3, 1013250, Note_on_c, 0, 53, 0
3, 1013250, Note_on_c, 0, 52, 90
3, 1013290, Note_on_c, 0, 52, 0
3, 1013290, Note_on_c, 0, 53, 90
3, 1013330, Note_on_c, 0, 53, 0
3, 1013330, Note_on_c, 0, 55, 90
3, 1013370, Note_on_c, 0, 55, 0
3, 1013370, Note_on_c, 0, 57, 90
3, 1013550, Note_on_c, 0, 57, 0
3, 1013550, Note_on_c, 0, 55, 90
3, 1013580, Note_on_c, 0, 55, 0
3, 1013580, Note_on_c, 0, 53, 90
3, 1013610, Note_on_c, 0, 53, 0
3, 1013610, Note_on_c, 0, 52, 90
3, 1013670, Note_on_c, 0, 52, 0
3, 1013670, Note_on_c, 0, 48, 90
3, 1013730, Note_on_c, 0, 48, 0
3, 1013730, Note_on_c, 0, 50, 90
3, 1013790, Note_on_c, 0, 50, 0
3, 1013790, Note_on_c, 0, 52, 90
3, 1013850, Note_on_c, 0, 52, 0
3, 1013850, Note_on_c, 0, 53, 90
3, 1014030, Note_on_c, 0, 53, 0
3, 1014030, Note_on_c, 0, 52, 90
3, 1014060, Note_on_c, 0, 52, 0
3, 1014060, Note_on_c, 0, 50, 90
3, 1014090, Note_on_c, 0, 50, 0
3, 1014090, Note_on_c, 0, 49, 90
3, 1014210, Note_on_c, 0, 49, 0
3, 1014210, Note_on_c, 0, 45, 90
3, 1014330, Note_on_c, 0, 45, 0
3, 1014390, Note_on_c, 0, 50, 90
3, 1014450, Note_on_c, 0, 50, 0
3, 1014450, Note_on_c, 0, 48, 90
3, 1014510, Note_on_c, 0, 48, 0
3, 1014510, Note_on_c, 0, 46, 90
3, 1014570, Note_on_c, 0, 46, 0
3, 1014570, Note_on_c, 0, 45, 90
3, 1014690, Note_on_c, 0, 45, 0
3, 1014690, Note_on_c, 0, 41, 90
3, 1014750, Note_on_c, 0, 41, 0
3, 1014750, Note_on_c, 0, 45, 90
3, 1014810, Note_on_c, 0, 45, 0
3, 1014810, Note_on_c, 0, 50, 90
3, 1014930, Note_on_c, 0, 50, 0
3, 1014930, Note_on_c, 0, 42, 90
3, 1015050, Note_on_c, 0, 42, 0
3, 1015050, Note_on_c, 0, 43, 90
3, 1015170, Note_on_c, 0, 43, 0
3, 1015170, Note_on_c, 0, 38, 90
3, 1015290, Note_on_c, 0, 38, 0
3, 1015350, Note_on_c, 0, 40, 90
3, 1015410, Note_on_c, 0, 40, 0
3, 1015410, Note_on_c, 0, 42, 90
3, 1015470, Note_on_c, 0, 42, 0
3, 1015470, Note_on_c, 0, 43, 90
3, 1015530, Note_on_c, 0, 43, 0
3, 1015530, Note_on_c, 0, 45, 90
3, 1015590, Note_on_c, 0, 45, 0
3, 1015590, Note_on_c, 0, 43, 90
3, 1015650, Note_on_c, 0, 43, 0
3, 1015650, Note_on_c, 0, 41, 90
3, 1015710, Note_on_c, 0, 41, 0
3, 1015710, Note_on_c, 0, 45, 90
3, 1015770, Note_on_c, 0, 45, 0
3, 1015770, Note_on_c, 0, 46, 90
3, 1015830, Note_on_c, 0, 46, 0
3, 1015830, Note_on_c, 0, 45, 90
3, 1015890, Note_on_c, 0, 45, 0
3, 1015890, Note_on_c, 0, 43, 90
3, 1015950, Note_on_c, 0, 43, 0
3, 1015950, Note_on_c, 0, 46, 90
3, 1016010, Note_on_c, 0, 46, 0
3, 1016010, Note_on_c, 0, 48, 90
3, 1016070, Note_on_c, 0, 48, 0
3, 1016070, Note_on_c, 0, 46, 90
3, 1016130, Note_on_c, 0, 46, 0
3, 1016130, Note_on_c, 0, 45, 90
3, 1016190, Note_on_c, 0, 45, 0
3, 1016190, Note_on_c, 0, 43, 90
3, 1016250, Note_on_c, 0, 43, 0
3, 1016250, Note_on_c, 0, 45, 90
3, 1016310, Note_on_c, 0, 45, 0
3, 1016310, Note_on_c, 0, 53, 90
3, 1016370, Note_on_c, 0, 53, 0
3, 1016370, Note_on_c, 0, 51, 90
3, 1016430, Note_on_c, 0, 51, 0
3, 1016430, Note_on_c, 0, 50, 90
3, 1016490, Note_on_c, 0, 50, 0
3, 1016490, Note_on_c, 0, 51, 90
3, 1016550, Note_on_c, 0, 51, 0
3, 1016550, Note_on_c, 0, 48, 90
3, 1016610, Note_on_c, 0, 48, 0
3, 1016610, Note_on_c, 0, 45, 90
3, 1016670, Note_on_c, 0, 45, 0
3, 1016670, Note_on_c, 0, 48, 90
3, 1016730, Note_on_c, 0, 48, 0
3, 1016730, Note_on_c, 0, 42, 90
3, 1016790, Note_on_c, 0, 42, 0
3, 1016790, Note_on_c, 0, 45, 90
3, 1016850, Note_on_c, 0, 45, 0
3, 1016850, Note_on_c, 0, 43, 90
3, 1016910, Note_on_c, 0, 43, 0
3, 1016910, Note_on_c, 0, 46, 90
3, 1016970, Note_on_c, 0, 46, 0
3, 1016970, Note_on_c, 0, 45, 90
3, 1017090, Note_on_c, 0, 45, 0
3, 1017210, Note_on_c, 0, 52, 90
3, 1017250, Note_on_c, 0, 52, 0
3, 1017250, Note_on_c, 0, 53, 90
3, 1017290, Note_on_c, 0, 53, 0
3, 1017290, Note_on_c, 0, 52, 90
3, 1017330, Note_on_c, 0, 52, 0
3, 1017330, Note_on_c, 0, 50, 90
3, 1017370, Note_on_c, 0, 50, 0
3, 1017370, Note_on_c, 0, 52, 90
3, 1017410, Note_on_c, 0, 52, 0
3, 1017410, Note_on_c, 0, 53, 90
3, 1017450, Note_on_c, 0, 53, 0
3, 1017450, Note_on_c, 0, 55, 90
3, 1017490, Note_on_c, 0, 55, 0
3, 1017490, Note_on_c, 0, 57, 90
3, 1017530, Note_on_c, 0, 57, 0
3, 1017530, Note_on_c, 0, 55, 90
3, 1017570, Note_on_c, 0, 55, 0
3, 1017570, Note_on_c, 0, 53, 90
3, 1017610, Note_on_c, 0, 53, 0
3, 1017610, Note_on_c, 0, 55, 90
3, 1017650, Note_on_c, 0, 55, 0
3, 1017650, Note_on_c, 0, 57, 90
3, 1017690, Note_on_c, 0, 57, 0
3, 1017690, Note_on_c, 0, 58, 90
3, 1017810, Note_on_c, 0, 58, 0
3, 1017810, Note_on_c, 0, 55, 90
3, 1017930, Note_on_c, 0, 55, 0
3, 1017930, Note_on_c, 0, 50, 90
3, 1017970, Note_on_c, 0, 50, 0
3, 1017970, Note_on_c, 0, 52, 90
3, 1018010, Note_on_c, 0, 52, 0
3, 1018010, Note_on_c, 0, 50, 90
3, 1018050, Note_on_c, 0, 50, 0
3, 1018050, Note_on_c, 0, 49, 90
3, 1018090, Note_on_c, 0, 49, 0
3, 1018090, Note_on_c, 0, 50, 90
3, 1018130, Note_on_c, 0, 50, 0
3, 1018130, Note_on_c, 0, 52, 90
3, 1018170, Note_on_c, 0, 52, 0
3, 1018170, Note_on_c, 0, 53, 90
3, 1018210, Note_on_c, 0, 53, 0
3, 1018210, Note_on_c, 0, 55, 90
3, 1018250, Note_on_c, 0, 55, 0
3, 1018250, Note_on_c, 0, 53, 90
3, 1018290, Note_on_c, 0, 53, 0
3, 1018290, Note_on_c, 0, 52, 90
3, 1018330, Note_on_c, 0, 52, 0
3, 1018330, Note_on_c, 0, 53, 90
3, 1018370, Note_on_c, 0, 53, 0
3, 1018370, Note_on_c, 0, 55, 90
3, 1018410, Note_on_c, 0, 55, 0
3, 1018410, Note_on_c, 0, 57, 90
3, 1018710, Note_on_c, 0, 57, 0
3, 1018710, Note_on_c, 0, 55, 90
3, 1018770, Note_on_c, 0, 55, 0
3, 1018770, Note_on_c, 0, 53, 90
3, 1018830, Note_on_c, 0, 53, 0
3, 1018830, Note_on_c, 0, 52, 90
3, 1018890, Note_on_c, 0, 52, 0
3, 1018890, Note_on_c, 0, 53, 90
3, 1019190, Note_on_c, 0, 53, 0
3, 1019190, Note_on_c, 0, 52, 90
3, 1019250, Note_on_c, 0, 52, 0
3, 1019250, Note_on_c, 0, 50, 90
3, 1019310, Note_on_c, 0, 50, 0
3, 1019310, Note_on_c, 0, 49, 90
3, 1019370, Note_on_c, 0, 49, 0
3, 1019370, Note_on_c, 0, 50, 90
3, 1019490, Note_on_c, 0, 50, 0
3, 1019490, Note_on_c, 0, 52, 90
3, 1019550, Note_on_c, 0, 52, 0
3, 1019550, Note_on_c, 0, 53, 90
3, 1019610, Note_on_c, 0, 53, 0
3, 1019610, Note_on_c, 0, 55, 90
3, 1019670, Note_on_c, 0, 55, 0
3, 1019670, Note_on_c, 0, 57, 90
3, 1019730, Note_on_c, 0, 57, 0
3, 1019730, Note_on_c, 0, 58, 90
3, 1019850, Note_on_c, 0, 58, 0
3, 1019850, Note_on_c, 0, 58, 90
3, 1019970, Note_on_c, 0, 58, 0
3, 1019970, Note_on_c, 0, 49, 90
3, 1020090, Note_on_c, 0, 49, 0
3, 1020150, Note_on_c, 0, 45, 90
3, 1020210, Note_on_c, 0, 45, 0
3, 1020210, Note_on_c, 0, 47, 90
3, 1020270, Note_on_c, 0, 47, 0
3, 1020270, Note_on_c, 0, 49, 90
3, 1020330, Note_on_c, 0, 49, 0
3, 1020330, Note_on_c, 0, 50, 90
3, 1020390, Note_on_c, 0, 50, 0
3, 1020390, Note_on_c, 0, 49, 90
3, 1020450, Note_on_c, 0, 49, 0
3, 1020450, Note_on_c, 0, 47, 90
3, 1020510, Note_on_c, 0, 47, 0
3, 1020510, Note_on_c, 0, 45, 90
3, 1020570, Note_on_c, 0, 45, 0
3, 1020570, Note_on_c, 0, 52, 90
3, 1020630, Note_on_c, 0, 52, 0
3, 1020630, Note_on_c, 0, 49, 90
3, 1020690, Note_on_c, 0, 49, 0
3, 1020690, Note_on_c, 0, 47, 90
3, 1020750, Note_on_c, 0, 47, 0
3, 1020750, Note_on_c, 0, 45, 90
3, 1020810, Note_on_c, 0, 45, 0
3, 1020810, Note_on_c, 0, 53, 90
3, 1020870, Note_on_c, 0, 53, 0
3, 1020870, Note_on_c, 0, 52, 90
3, 1020930, Note_on_c, 0, 52, 0
3, 1020930, Note_on_c, 0, 50, 90
3, 1021050, Note_on_c, 0, 50, 0
3, 1021110, Note_on_c, 0, 58, 90
3, 1021170, Note_on_c, 0, 58, 0
3, 1021170, Note_on_c, 0, 57, 90
3, 1021230, Note_on_c, 0, 57, 0
3, 1021230, Note_on_c, 0, 56, 90
3, 1021290, Note_on_c, 0, 56, 0
3, 1021290, Note_on_c, 0, 57, 90
3, 1021350, Note_on_c, 0, 57, 0
3, 1021350, Note_on_c, 0, 53, 90
3, 1021410, Note_on_c, 0, 53, 0
3, 1021410, Note_on_c, 0, 52, 90
3, 1021470, Note_on_c, 0, 52, 0
3, 1021470, Note_on_c, 0, 50, 90
3, 1021530, Note_on_c, 0, 50, 0
3, 1021530, Note_on_c, 0, 53, 90
3, 1021590, Note_on_c, 0, 53, 0
3, 1021590, Note_on_c, 0, 52, 90
3, 1021650, Note_on_c, 0, 52, 0
3, 1021650, Note_on_c, 0, 50, 90
3, 1021710, Note_on_c, 0, 50, 0
3, 1021710, Note_on_c, 0, 49, 90
3, 1021770, Note_on_c, 0, 49, 0
3, 1021770, Note_on_c, 0, 50, 90
3, 1021830, Note_on_c, 0, 50, 0
3, 1021830, Note_on_c, 0, 41, 90
3, 1021890, Note_on_c, 0, 41, 0
3, 1021890, Note_on_c, 0, 43, 90
3, 1021950, Note_on_c, 0, 43, 0
3, 1021950, Note_on_c, 0, 45, 90
3, 1022010, Note_on_c, 0, 45, 0
3, 1022010, Note_on_c, 0, 46, 90
3, 1022070, Note_on_c, 0, 46, 0
3, 1022070, Note_on_c, 0, 43, 90
3, 1022130, Note_on_c, 0, 43, 0
3, 1022130, Note_on_c, 0, 41, 90
3, 1022190, Note_on_c, 0, 41, 0
3, 1022190, Note_on_c, 0, 40, 90
3, 1022250, Note_on_c, 0, 40, 0
3, 1022250, Note_on_c, 0, 41, 90
3, 1022370, Note_on_c, 0, 41, 0
3, 1022370, Note_on_c, 0, 46, 90
3, 1022490, Note_on_c, 0, 46, 0
3, 1022490, Note_on_c, 0, 43, 90
3, 1022610, Note_on_c, 0, 43, 0
3, 1022610, Note_on_c, 0, 45, 90
3, 1022730, Note_on_c, 0, 45, 0
3, 1022730, Note_on_c, 0, 38, 90
3, 1023210, Note_on_c, 0, 38, 0
3, 1025130, Note_on_c, 0, 57, 64
3, 1025250, Note_on_c, 0, 57, 0
3, 1025250, Note_on_c, 0, 49, 64
3, 1025370, Note_on_c, 0, 49, 0
3, 1025370, Note_on_c, 0, 50, 64
3, 1025850, Note_on_c, 0, 50, 0
3, 1025850, Note_on_c, 0, 52, 64
3, 1026090, Note_on_c, 0, 52, 0
3, 1026090, Note_on_c, 0, 54, 64
3, 1026210, Note_on_c, 0, 54, 0
3, 1026210, Note_on_c, 0, 55, 64
3, 1026270, Note_on_c, 0, 55, 0
3, 1026270, Note_on_c, 0, 57, 64
3, 1026330, Note_on_c, 0, 57, 0
3, 1026330, Note_on_c, 0, 55, 64
3, 1026810, Note_on_c, 0, 55, 0
3, 1026810, Note_on_c, 0, 57, 64
3, 1027050, Note_on_c, 0, 57, 0
3, 1027050, Note_on_c, 0, 58, 64
3, 1027170, Note_on_c, 0, 58, 0
3, 1027170, Note_on_c, 0, 57, 64
3, 1027230, Note_on_c, 0, 57, 0
3, 1027230, Note_on_c, 0, 55, 64
3, 1027290, Note_on_c, 0, 55, 0
3, 1027290, Note_on_c, 0, 57, 64
3, 1027770, Note_on_c, 0, 57, 0
3, 1027770, Note_on_c, 0, 55, 64
3, 1028010, Note_on_c, 0, 55, 0
3, 1028010, Note_on_c, 0, 53, 64
3, 1028130, Note_on_c, 0, 53, 0
3, 1028130, Note_on_c, 0, 62, 64
3, 1028250, Note_on_c, 0, 62, 0
3, 1028250, Note_on_c, 0, 52, 64
3, 1028730, Note_on_c, 0, 52, 0
3, 1028730, Note_on_c, 0, 53, 64
3, 1028850, Note_on_c, 0, 53, 0
3, 1028850, Note_on_c, 0, 55, 64
3, 1028970, Note_on_c, 0, 55, 0
3, 1028970, Note_on_c, 0, 53, 64
3, 1029030, Note_on_c, 0, 53, 0
3, 1029030, Note_on_c, 0, 52, 64
3, 1029090, Note_on_c, 0, 52, 0
3, 1029090, Note_on_c, 0, 50, 64
3, 1029330, Note_on_c, 0, 50, 0
3, 1029330, Note_on_c, 0, 52, 64
3, 1029450, Note_on_c, 0, 52, 0
3, 1029450, Note_on_c, 0, 53, 64
3, 1029570, Note_on_c, 0, 53, 0
3, 1029570, Note_on_c, 0, 45, 64
3, 1029690, Note_on_c, 0, 45, 0
3, 1029690, Note_on_c, 0, 52, 64
3, 1029810, Note_on_c, 0, 52, 0
3, 1029810, Note_on_c, 0, 43, 64
3, 1029930, Note_on_c, 0, 43, 0
3, 1029930, Note_on_c, 0, 50, 64
3, 1030050, Note_on_c, 0, 50, 0
3, 1030050, Note_on_c, 0, 41, 64
3, 1030170, Note_on_c, 0, 41, 0
3, 1030170, Note_on_c, 0, 48, 64
3, 1030290, Note_on_c, 0, 48, 0
3, 1030290, Note_on_c, 0, 45, 64
3, 1030410, Note_on_c, 0, 45, 0
3, 1030410, Note_on_c, 0, 47, 64
3, 1030530, Note_on_c, 0, 47, 0
3, 1030530, Note_on_c, 0, 48, 64
3, 1030650, Note_on_c, 0, 48, 0
3, 1030650, Note_on_c, 0, 40, 64
3, 1030770, Note_on_c, 0, 40, 0
3, 1030770, Note_on_c, 0, 49, 64
3, 1030890, Note_on_c, 0, 49, 0
3, 1030890, Note_on_c, 0, 50, 64
3, 1030950, Note_on_c, 0, 50, 0
3, 1030950, Note_on_c, 0, 44, 64
3, 1031010, Note_on_c, 0, 44, 0
3, 1031010, Note_on_c, 0, 45, 64
3, 1031250, Note_on_c, 0, 45, 0
3, 1031250, Note_on_c, 0, 47, 64
3, 1031370, Note_on_c, 0, 47, 0
3, 1031370, Note_on_c, 0, 48, 64
3, 1031490, Note_on_c, 0, 48, 0
3, 1031490, Note_on_c, 0, 40, 64
3, 1031610, Note_on_c, 0, 40, 0
3, 1031610, Note_on_c, 0, 47, 64
3, 1031730, Note_on_c, 0, 47, 0
3, 1031730, Note_on_c, 0, 38, 64
3, 1031850, Note_on_c, 0, 38, 0
3, 1031850, Note_on_c, 0, 45, 64
3, 1031970, Note_on_c, 0, 45, 0
3, 1031970, Note_on_c, 0, 36, 64
3, 1032090, Note_on_c, 0, 36, 0
3, 1032090, Note_on_c, 0, 43, 64
3, 1032210, Note_on_c, 0, 43, 0
3, 1032210, Note_on_c, 0, 40, 64
3, 1032330, Note_on_c, 0, 40, 0
3, 1032330, Note_on_c, 0, 42, 64
3, 1032450, Note_on_c, 0, 42, 0
3, 1032450, Note_on_c, 0, 43, 64
3, 1032570, Note_on_c, 0, 43, 0
3, 1032570, Note_on_c, 0, 35, 64
3, 1032690, Note_on_c, 0, 35, 0
3, 1032690, Note_on_c, 0, 44, 64
3, 1032810, Note_on_c, 0, 44, 0
3, 1032810, Note_on_c, 0, 45, 64
3, 1032930, Note_on_c, 0, 45, 0
3, 1032930, Note_on_c, 0, 57, 64
3, 1033170, Note_on_c, 0, 57, 0
3, 1033170, Note_on_c, 0, 55, 64
3, 1033290, Note_on_c, 0, 55, 0
3, 1033290, Note_on_c, 0, 53, 64
3, 1033410, Note_on_c, 0, 53, 0
3, 1033410, Note_on_c, 0, 50, 64
3, 1033530, Note_on_c, 0, 50, 0
3, 1033530, Note_on_c, 0, 45, 64
3, 1033650, Note_on_c, 0, 45, 0
3, 1033650, Note_on_c, 0, 41, 64
3, 1033770, Note_on_c, 0, 41, 0
3, 1033770, Note_on_c, 0, 52, 64
3, 1033890, Note_on_c, 0, 52, 0
3, 1033890, Note_on_c, 0, 43, 64
3, 1034010, Note_on_c, 0, 43, 0
3, 1034010, Note_on_c, 0, 53, 64
3, 1034130, Note_on_c, 0, 53, 0
3, 1034130, Note_on_c, 0, 45, 64
3, 1034250, Note_on_c, 0, 45, 0
3, 1034250, Note_on_c, 0, 55, 64
3, 1034370, Note_on_c, 0, 55, 0
3, 1034370, Note_on_c, 0, 46, 64
3, 1034490, Note_on_c, 0, 46, 0
3, 1034490, Note_on_c, 0, 45, 64
3, 1034610, Note_on_c, 0, 45, 0
3, 1034610, Note_on_c, 0, 43, 64
3, 1034730, Note_on_c, 0, 43, 0
3, 1034730, Note_on_c, 0, 50, 64
3, 1034850, Note_on_c, 0, 50, 0
3, 1034850, Note_on_c, 0, 45, 64
3, 1034910, Note_on_c, 0, 45, 0
3, 1034910, Note_on_c, 0, 47, 64
3, 1034970, Note_on_c, 0, 47, 0
3, 1034970, Note_on_c, 0, 48, 64
3, 1035090, Note_on_c, 0, 48, 0
3, 1035090, Note_on_c, 0, 50, 64
3, 1035210, Note_on_c, 0, 50, 0
3, 1035210, Note_on_c, 0, 52, 64
3, 1035330, Note_on_c, 0, 52, 0
3, 1035330, Note_on_c, 0, 40, 64
3, 1035390, Note_on_c, 0, 40, 0
3, 1035390, Note_on_c, 0, 42, 64
3, 1035450, Note_on_c, 0, 42, 0
3, 1035450, Note_on_c, 0, 43, 64
3, 1035570, Note_on_c, 0, 43, 0
3, 1035570, Note_on_c, 0, 45, 64
3, 1035690, Note_on_c, 0, 45, 0
3, 1035690, Note_on_c, 0, 46, 64
3, 1035810, Note_on_c, 0, 46, 0
3, 1035810, Note_on_c, 0, 43, 64
3, 1035870, Note_on_c, 0, 43, 0
3, 1035870, Note_on_c, 0, 45, 64
3, 1035930, Note_on_c, 0, 45, 0
3, 1035930, Note_on_c, 0, 47, 64
3, 1036050, Note_on_c, 0, 47, 0
3, 1036050, Note_on_c, 0, 49, 64
3, 1036170, Note_on_c, 0, 49, 0
3, 1036170, Note_on_c, 0, 50, 64
3, 1036290, Note_on_c, 0, 50, 0
3, 1036290, Note_on_c, 0, 38, 64
3, 1036350, Note_on_c, 0, 38, 0
3, 1036350, Note_on_c, 0, 40, 64
3, 1036410, Note_on_c, 0, 40, 0
3, 1036410, Note_on_c, 0, 41, 64
3, 1036470, Note_on_c, 0, 41, 0
3, 1036470, Note_on_c, 0, 43, 64
3, 1036530, Note_on_c, 0, 43, 0
3, 1036530, Note_on_c, 0, 45, 64
3, 1036590, Note_on_c, 0, 45, 0
3, 1036590, Note_on_c, 0, 46, 64
3, 1036650, Note_on_c, 0, 46, 0
3, 1036650, Note_on_c, 0, 45, 64
3, 1036890, Note_on_c, 0, 45, 0
3, 1037130, Note_on_c, 0, 57, 64
3, 1037250, Note_on_c, 0, 57, 0
3, 1037250, Note_on_c, 0, 49, 64
3, 1037490, Note_on_c, 0, 49, 0
3, 1037490, Note_on_c, 0, 50, 64
3, 1037550, Note_on_c, 0, 50, 0
3, 1037550, Note_on_c, 0, 52, 64
3, 1037610, Note_on_c, 0, 52, 0
3, 1037610, Note_on_c, 0, 50, 64
3, 1037670, Note_on_c, 0, 50, 0
3, 1037670, Note_on_c, 0, 53, 64
3, 1037730, Note_on_c, 0, 53, 0
3, 1037730, Note_on_c, 0, 57, 64
3, 1037970, Note_on_c, 0, 57, 0
3, 1037970, Note_on_c, 0, 55, 64
3, 1038030, Note_on_c, 0, 55, 0
3, 1038030, Note_on_c, 0, 53, 64
3, 1038090, Note_on_c, 0, 53, 0
3, 1038090, Note_on_c, 0, 52, 64
3, 1038150, Note_on_c, 0, 52, 0
3, 1038150, Note_on_c, 0, 55, 64
3, 1038210, Note_on_c, 0, 55, 0
3, 1038210, Note_on_c, 0, 58, 64
3, 1038450, Note_on_c, 0, 58, 0
3, 1038450, Note_on_c, 0, 57, 64
3, 1038510, Note_on_c, 0, 57, 0
3, 1038510, Note_on_c, 0, 55, 64
3, 1038570, Note_on_c, 0, 55, 0
3, 1038570, Note_on_c, 0, 54, 64
3, 1038630, Note_on_c, 0, 54, 0
3, 1038630, Note_on_c, 0, 56, 64
3, 1038690, Note_on_c, 0, 56, 0
3, 1038690, Note_on_c, 0, 57, 64
3, 1038930, Note_on_c, 0, 57, 0
3, 1038930, Note_on_c, 0, 45, 64
3, 1039050, Note_on_c, 0, 45, 0
3, 1039050, Note_on_c, 0, 44, 64
3, 1039170, Note_on_c, 0, 44, 0
3, 1039170, Note_on_c, 0, 43, 64
3, 1039290, Note_on_c, 0, 43, 0
3, 1039290, Note_on_c, 0, 42, 64
3, 1039410, Note_on_c, 0, 42, 0
3, 1039410, Note_on_c, 0, 41, 64
3, 1039530, Note_on_c, 0, 41, 0
3, 1039530, Note_on_c, 0, 40, 64
3, 1039650, Note_on_c, 0, 40, 0
3, 1039650, Note_on_c, 0, 39, 64
3, 1039770, Note_on_c, 0, 39, 0
3, 1039770, Note_on_c, 0, 38, 64
3, 1039890, Note_on_c, 0, 38, 0
3, 1039890, Note_on_c, 0, 37, 64
3, 1040130, Note_on_c, 0, 37, 0
3, 1040130, Note_on_c, 0, 38, 64
3, 1040190, Note_on_c, 0, 38, 0
3, 1040190, Note_on_c, 0, 40, 64
3, 1040250, Note_on_c, 0, 40, 0
3, 1040250, Note_on_c, 0, 38, 64
3, 1040370, Note_on_c, 0, 38, 0
3, 1040370, Note_on_c, 0, 43, 64
3, 1040490, Note_on_c, 0, 43, 0
3, 1040490, Note_on_c, 0, 42, 64
3, 1040550, Note_on_c, 0, 42, 0
3, 1040550, Note_on_c, 0, 44, 64
3, 1040610, Note_on_c, 0, 44, 0
3, 1040610, Note_on_c, 0, 45, 64
3, 1040850, Note_on_c, 0, 45, 0
3, 1040850, Note_on_c, 0, 46, 64
3, 1040910, Note_on_c, 0, 46, 0
3, 1040910, Note_on_c, 0, 48, 64
3, 1040970, Note_on_c, 0, 48, 0
3, 1040970, Note_on_c, 0, 46, 64
3, 1041090, Note_on_c, 0, 46, 0
3, 1041090, Note_on_c, 0, 42, 64
3, 1041330, Note_on_c, 0, 42, 0
3, 1041330, Note_on_c, 0, 44, 64
3, 1041390, Note_on_c, 0, 44, 0
3, 1041390, Note_on_c, 0, 45, 64
3, 1041450, Note_on_c, 0, 45, 0
3, 1041450, Note_on_c, 0, 43, 64
3, 1041510, Note_on_c, 0, 43, 0
3, 1041510, Note_on_c, 0, 46, 64
3, 1041570, Note_on_c, 0, 46, 0
3, 1041570, Note_on_c, 0, 50, 64
3, 1041810, Note_on_c, 0, 50, 0
3, 1041810, Note_on_c, 0, 48, 64
3, 1041870, Note_on_c, 0, 48, 0
3, 1041870, Note_on_c, 0, 46, 64
3, 1041930, Note_on_c, 0, 46, 0
3, 1041930, Note_on_c, 0, 45, 64
3, 1041990, Note_on_c, 0, 45, 0
3, 1041990, Note_on_c, 0, 48, 64
3, 1042050, Note_on_c, 0, 48, 0
3, 1042050, Note_on_c, 0, 51, 64
3, 1042290, Note_on_c, 0, 51, 0
3, 1042290, Note_on_c, 0, 50, 64
3, 1042350, Note_on_c, 0, 50, 0
3, 1042350, Note_on_c, 0, 48, 64
3, 1042410, Note_on_c, 0, 48, 0
3, 1042410, Note_on_c, 0, 47, 64
3, 1042470, Note_on_c, 0, 47, 0
3, 1042470, Note_on_c, 0, 49, 64
3, 1042530, Note_on_c, 0, 49, 0
3, 1042530, Note_on_c, 0, 50, 64
3, 1042770, Note_on_c, 0, 50, 0
3, 1042770, Note_on_c, 0, 62, 64
3, 1042890, Note_on_c, 0, 62, 0
3, 1042890, Note_on_c, 0, 61, 64
3, 1043010, Note_on_c, 0, 61, 0
3, 1043010, Note_on_c, 0, 60, 64
3, 1043130, Note_on_c, 0, 60, 0
3, 1043130, Note_on_c, 0, 59, 64
3, 1043250, Note_on_c, 0, 59, 0
3, 1043250, Note_on_c, 0, 58, 64
3, 1043370, Note_on_c, 0, 58, 0
3, 1043370, Note_on_c, 0, 57, 64
3, 1043490, Note_on_c, 0, 57, 0
3, 1043490, Note_on_c, 0, 56, 64
3, 1043610, Note_on_c, 0, 56, 0
3, 1043610, Note_on_c, 0, 55, 64
3, 1043730, Note_on_c, 0, 55, 0
3, 1043730, Note_on_c, 0, 54, 64
3, 1043970, Note_on_c, 0, 54, 0
3, 1043970, Note_on_c, 0, 55, 64
3, 1044030, Note_on_c, 0, 55, 0
3, 1044030, Note_on_c, 0, 57, 64
3, 1044090, Note_on_c, 0, 57, 0
3, 1044090, Note_on_c, 0, 55, 64
3, 1044210, Note_on_c, 0, 55, 0
3, 1044210, Note_on_c, 0, 60, 64
3, 1044330, Note_on_c, 0, 60, 0
3, 1044330, Note_on_c, 0, 59, 64
3, 1044390, Note_on_c, 0, 59, 0
3, 1044390, Note_on_c, 0, 61, 64
3, 1044450, Note_on_c, 0, 61, 0
3, 1044450, Note_on_c, 0, 62, 64
3, 1044570, Note_on_c, 0, 62, 0
3, 1044690, Note_on_c, 0, 46, 64
3, 1044810, Note_on_c, 0, 46, 0
3, 1044810, Note_on_c, 0, 57, 64
3, 1044930, Note_on_c, 0, 57, 0
3, 1044930, Note_on_c, 0, 49, 64
3, 1045050, Note_on_c, 0, 49, 0
3, 1045050, Note_on_c, 0, 55, 64
3, 1045170, Note_on_c, 0, 55, 0
3, 1045170, Note_on_c, 0, 49, 64
3, 1045290, Note_on_c, 0, 49, 0
3, 1045290, Note_on_c, 0, 49, 64
3, 1045350, Note_on_c, 0, 49, 0
3, 1045350, Note_on_c, 0, 50, 64
3, 1045410, Note_on_c, 0, 50, 0
3, 1045410, Note_on_c, 0, 52, 64
3, 1045470, Note_on_c, 0, 52, 0
3, 1045470, Note_on_c, 0, 50, 64
3, 1045530, Note_on_c, 0, 50, 0
3, 1045530, Note_on_c, 0, 49, 64
3, 1045590, Note_on_c, 0, 49, 0
3, 1045590, Note_on_c, 0, 50, 64
3, 1045650, Note_on_c, 0, 50, 0
3, 1045650, Note_on_c, 0, 49, 64
3, 1045710, Note_on_c, 0, 49, 0
3, 1045710, Note_on_c, 0, 48, 64
3, 1045770, Note_on_c, 0, 48, 0
3, 1045770, Note_on_c, 0, 47, 64
3, 1045830, Note_on_c, 0, 47, 0
3, 1045830, Note_on_c, 0, 48, 64
3, 1045890, Note_on_c, 0, 48, 0
3, 1045890, Note_on_c, 0, 47, 64
3, 1045950, Note_on_c, 0, 47, 0
3, 1045950, Note_on_c, 0, 46, 64
3, 1046010, Note_on_c, 0, 46, 0
3, 1046010, Note_on_c, 0, 45, 64
3, 1046130, Note_on_c, 0, 45, 0
3, 1046130, Note_on_c, 0, 57, 64
3, 1046250, Note_on_c, 0, 57, 0
3, 1046250, Note_on_c, 0, 57, 64
3, 1046370, Note_on_c, 0, 57, 0
3, 1046370, Note_on_c, 0, 58, 64
3, 1046490, Note_on_c, 0, 58, 0
3, 1046610, Note_on_c, 0, 55, 64
3, 1046730, Note_on_c, 0, 55, 0
3, 1046730, Note_on_c, 0, 56, 64
3, 1046850, Note_on_c, 0, 56, 0
3, 1046850, Note_on_c, 0, 57, 64
3, 1046970, Note_on_c, 0, 57, 0
3, 1047090, Note_on_c, 0, 53, 64
3, 1047210, Note_on_c, 0, 53, 0
3, 1047210, Note_on_c, 0, 54, 64
3, 1047330, Note_on_c, 0, 54, 0
3, 1047330, Note_on_c, 0, 55, 64
3, 1047570, Note_on_c, 0, 55, 0
3, 1047570, Note_on_c, 0, 45, 64
3, 1047810, Note_on_c, 0, 45, 0
3, 1047810, Note_on_c, 0, 46, 64
3, 1047870, Note_on_c, 0, 46, 0
3, 1047870, Note_on_c, 0, 45, 64
3, 1047930, Note_on_c, 0, 45, 0
3, 1047930, Note_on_c, 0, 43, 64
3, 1048050, Note_on_c, 0, 43, 0
3, 1048050, Note_on_c, 0, 52, 64
3, 1048170, Note_on_c, 0, 52, 0
3, 1048170, Program_c, 0, 0
3, 1048170, Note_on_c, 0, 50, 64
3, 1048230, Note_on_c, 0, 50, 0
3, 1048230, Note_on_c, 0, 58, 64
3, 1048290, Note_on_c, 0, 58, 0
3, 1048290, Note_on_c, 0, 57, 64
3, 1048530, Note_on_c, 0, 57, 0
3, 1048530, Note_on_c, 0, 55, 64
3, 1048650, Note_on_c, 0, 55, 0
3, 1048650, Note_on_c, 0, 53, 64
3, 1048710, Note_on_c, 0, 53, 0
3, 1048710, Note_on_c, 0, 52, 64
3, 1048740, Note_on_c, 0, 52, 0
3, 1048740, Note_on_c, 0, 50, 64
3, 1048770, Note_on_c, 0, 50, 0
3, 1048770, Note_on_c, 0, 51, 64
3, 1049010, Note_on_c, 0, 51, 0
3, 1049010, Note_on_c, 0, 50, 64
3, 1049130, Note_on_c, 0, 50, 0
3, 1049130, Note_on_c, 0, 49, 64
3, 1049190, Note_on_c, 0, 49, 0
3, 1049190, Note_on_c, 0, 50, 64
3, 1049220, Note_on_c, 0, 50, 0
3, 1049220, Note_on_c, 0, 52, 64
3, 1049250, Note_on_c, 0, 52, 0
3, 1049250, Note_on_c, 0, 50, 64
3, 1049490, Note_on_c, 0, 50, 0
3, 1049490, Note_on_c, 0, 52, 64
3, 1049610, Note_on_c, 0, 52, 0
3, 1049610, Note_on_c, 0, 53, 64
3, 1049670, Note_on_c, 0, 53, 0
3, 1049670, Note_on_c, 0, 45, 64
3, 1049730, Note_on_c, 0, 45, 0
3, 1049730, Note_on_c, 0, 55, 64
3, 1049970, Note_on_c, 0, 55, 0
3, 1049970, Note_on_c, 0, 53, 64
3, 1050030, Note_on_c, 0, 53, 0
3, 1050030, Note_on_c, 0, 52, 64
3, 1050090, Note_on_c, 0, 52, 0
3, 1050270, Note_on_c, 0, 55, 64
3, 1050330, Note_on_c, 0, 55, 0
3, 1050330, Note_on_c, 0, 53, 64
3, 1050390, Note_on_c, 0, 53, 0
3, 1050390, Note_on_c, 0, 62, 64
3, 1050450, Note_on_c, 0, 62, 0
3, 1050450, Note_on_c, 0, 55, 64
3, 1050510, Note_on_c, 0, 55, 0
3, 1050510, Note_on_c, 0, 64, 64
3, 1050570, Note_on_c, 0, 64, 0
3, 1050570, Note_on_c, 0, 57, 64
3, 1050630, Note_on_c, 0, 57, 0
3, 1050630, Note_on_c, 0, 65, 64
3, 1050690, Note_on_c, 0, 65, 0
3, 1050690, Note_on_c, 0, 59, 64
3, 1050750, Note_on_c, 0, 59, 0
3, 1050750, Note_on_c, 0, 62, 64
3, 1050810, Note_on_c, 0, 62, 0
3, 1050810, Note_on_c, 0, 60, 64
3, 1050870, Note_on_c, 0, 60, 0
3, 1050870, Note_on_c, 0, 58, 64
3, 1050930, Note_on_c, 0, 58, 0
3, 1050930, Note_on_c, 0, 67, 64
3, 1050990, Note_on_c, 0, 67, 0
3, 1050990, Note_on_c, 0, 58, 64
3, 1051050, Note_on_c, 0, 58, 0
3, 1051050, Note_on_c, 0, 57, 64
3, 1051080, Note_on_c, 0, 57, 0
3, 1051080, Note_on_c, 0, 63, 64
3, 1051110, Note_on_c, 0, 63, 0
3, 1051110, Note_on_c, 0, 62, 64
3, 1051230, Note_on_c, 0, 62, 0
3, 1051230, Note_on_c, 0, 60, 64
3, 1051290, Note_on_c, 0, 60, 0
3, 1051290, Note_on_c, 0, 58, 64
3, 1051350, Note_on_c, 0, 58, 0
3, 1051350, Note_on_c, 0, 67, 64
3, 1051410, Note_on_c, 0, 67, 0
3, 1051410, Note_on_c, 0, 60, 64
3, 1051470, Note_on_c, 0, 60, 0
3, 1051470, Note_on_c, 0, 69, 64
3, 1051530, Note_on_c, 0, 69, 0
3, 1051530, Note_on_c, 0, 62, 64
3, 1051590, Note_on_c, 0, 62, 0
3, 1051590, Note_on_c, 0, 70, 64
3, 1051650, Note_on_c, 0, 70, 0
3, 1051650, Note_on_c, 0, 64, 64
3, 1051710, Note_on_c, 0, 64, 0
3, 1051710, Note_on_c, 0, 67, 64
3, 1051770, Note_on_c, 0, 67, 0
3, 1051770, Note_on_c, 0, 65, 64
3, 1051830, Note_on_c, 0, 65, 0
3, 1051830, Note_on_c, 0, 63, 64
3, 1051890, Note_on_c, 0, 63, 0
3, 1051890, Note_on_c, 0, 72, 64
3, 1051950, Note_on_c, 0, 72, 0
3, 1051950, Note_on_c, 0, 63, 64
3, 1052010, Note_on_c, 0, 63, 0
3, 1052010, Note_on_c, 0, 62, 64
3, 1052070, Note_on_c, 0, 62, 0
3, 1052070, Note_on_c, 0, 50, 64
3, 1052190, Note_on_c, 0, 50, 0
3, 1052190, Note_on_c, 0, 52, 64
3, 1052250, Note_on_c, 0, 52, 0
3, 1052250, Note_on_c, 0, 53, 64
3, 1052310, Note_on_c, 0, 53, 0
3, 1052310, Note_on_c, 0, 57, 64
3, 1052370, Note_on_c, 0, 57, 0
3, 1052370, Note_on_c, 0, 62, 64
3, 1052430, Note_on_c, 0, 62, 0
3, 1052430, Note_on_c, 0, 65, 64
3, 1052490, Note_on_c, 0, 65, 0
3, 1052490, Note_on_c, 0, 55, 64
3, 1052550, Note_on_c, 0, 55, 0
3, 1052550, Note_on_c, 0, 64, 64
3, 1052610, Note_on_c, 0, 64, 0
3, 1052610, Note_on_c, 0, 53, 64
3, 1052670, Note_on_c, 0, 53, 0
3, 1052670, Note_on_c, 0, 62, 64
3, 1052730, Note_on_c, 0, 62, 0
3, 1052730, Note_on_c, 0, 52, 64
3, 1052790, Note_on_c, 0, 52, 0
3, 1052790, Note_on_c, 0, 61, 64
3, 1052850, Note_on_c, 0, 61, 0
3, 1052850, Note_on_c, 0, 62, 64
3, 1052910, Note_on_c, 0, 62, 0
3, 1052910, Note_on_c, 0, 64, 64
3, 1052970, Note_on_c, 0, 64, 0
3, 1052970, Note_on_c, 0, 57, 64
3, 1053030, Note_on_c, 0, 57, 0
3, 1053030, Note_on_c, 0, 62, 64
3, 1053060, Note_on_c, 0, 62, 0
3, 1053060, Note_on_c, 0, 60, 64
3, 1053090, Note_on_c, 0, 60, 0
3, 1053090, Note_on_c, 0, 58, 64
3, 1053150, Note_on_c, 0, 58, 0
3, 1053150, Note_on_c, 0, 57, 64
3, 1053210, Note_on_c, 0, 57, 0
3, 1053210, Note_on_c, 0, 55, 64
3, 1053270, Note_on_c, 0, 55, 0
3, 1053270, Note_on_c, 0, 67, 64
3, 1053300, Note_on_c, 0, 67, 0
3, 1053300, Note_on_c, 0, 65, 64
3, 1053330, Note_on_c, 0, 65, 0
3, 1053330, Note_on_c, 0, 64, 64
3, 1053390, Note_on_c, 0, 64, 0
3, 1053390, Note_on_c, 0, 62, 64
3, 1053450, Note_on_c, 0, 62, 0
3, 1053450, Note_on_c, 0, 61, 64
3, 1053510, Note_on_c, 0, 61, 0
3, 1053510, Note_on_c, 0, 64, 64
3, 1053540, Note_on_c, 0, 64, 0
3, 1053540, Note_on_c, 0, 62, 64
3, 1053570, Note_on_c, 0, 62, 0
3, 1053570, Note_on_c, 0, 60, 64
3, 1053630, Note_on_c, 0, 60, 0
3, 1053630, Note_on_c, 0, 59, 64
3, 1053690, Note_on_c, 0, 59, 0
3, 1053690, Note_on_c, 0, 57, 64
3, 1053750, Note_on_c, 0, 57, 0
3, 1053750, Note_on_c, 0, 69, 64
3, 1053780, Note_on_c, 0, 69, 0
3, 1053780, Note_on_c, 0, 67, 64
3, 1053810, Note_on_c, 0, 67, 0
3, 1053810, Note_on_c, 0, 65, 64
3, 1053840, Note_on_c, 0, 65, 0
3, 1053840, Note_on_c, 0, 64, 64
3, 1053870, Note_on_c, 0, 64, 0
3, 1053870, Note_on_c, 0, 62, 64
3, 1053900, Note_on_c, 0, 62, 0
3, 1053900, Note_on_c, 0, 61, 64
3, 1053930, Note_on_c, 0, 61, 0
3, 1053930, Note_on_c, 0, 62, 64
3, 1054050, Note_on_c, 0, 62, 0
3, 1054170, Note_on_c, 0, 50, 64
3, 1054230, Note_on_c, 0, 50, 0
3, 1054230, Note_on_c, 0, 58, 64
3, 1054350, Note_on_c, 0, 58, 0
3, 1054350, Note_on_c, 0, 57, 64
3, 1054380, Note_on_c, 0, 57, 0
3, 1054380, Note_on_c, 0, 55, 64
3, 1054410, Note_on_c, 0, 55, 0
3, 1054410, Note_on_c, 0, 57, 64
3, 1054440, Note_on_c, 0, 57, 0
3, 1054440, Note_on_c, 0, 53, 64
3, 1054470, Note_on_c, 0, 53, 0
3, 1054470, Note_on_c, 0, 50, 64
3, 1054590, Note_on_c, 0, 50, 0
3, 1054590, Note_on_c, 0, 52, 64
3, 1054620, Note_on_c, 0, 52, 0
3, 1054620, Note_on_c, 0, 53, 64
3, 1054650, Note_on_c, 0, 53, 0
3, 1054650, Note_on_c, 0, 55, 64
3, 1054680, Note_on_c, 0, 55, 0
3, 1054680, Note_on_c, 0, 52, 64
3, 1054710, Note_on_c, 0, 52, 0
3, 1054710, Note_on_c, 0, 49, 64
3, 1054830, Note_on_c, 0, 49, 0
3, 1054830, Note_on_c, 0, 50, 64
3, 1054860, Note_on_c, 0, 50, 0
3, 1054860, Note_on_c, 0, 52, 64
3, 1054890, Note_on_c, 0, 52, 0
3, 1054890, Note_on_c, 0, 53, 64
3, 1054920, Note_on_c, 0, 53, 0
3, 1054920, Note_on_c, 0, 52, 64
3, 1054950, Note_on_c, 0, 52, 0
3, 1054950, Note_on_c, 0, 50, 64
3, 1055070, Note_on_c, 0, 50, 0
3, 1055070, Note_on_c, 0, 62, 64
3, 1055130, Note_on_c, 0, 62, 0
3, 1055130, Note_on_c, 0, 63, 64
3, 1055190, Note_on_c, 0, 63, 0
3, 1055190, Note_on_c, 0, 64, 64
3, 1055250, Note_on_c, 0, 64, 0
3, 1055250, Note_on_c, 0, 65, 64
3, 1055310, Note_on_c, 0, 65, 0
3, 1055310, Note_on_c, 0, 66, 64
3, 1055370, Note_on_c, 0, 66, 0
3, 1055370, Note_on_c, 0, 67, 64
3, 1055430, Note_on_c, 0, 67, 0
3, 1055430, Note_on_c, 0, 68, 64
3, 1055490, Note_on_c, 0, 68, 0
3, 1055490, Note_on_c, 0, 69, 64
3, 1055550, Note_on_c, 0, 69, 0
3, 1055550, Note_on_c, 0, 70, 64
3, 1055670, Note_on_c, 0, 70, 0
3, 1055670, Note_on_c, 0, 69, 64
3, 1055700, Note_on_c, 0, 69, 0
3, 1055700, Note_on_c, 0, 67, 64
3, 1055730, Note_on_c, 0, 67, 0
3, 1055730, Note_on_c, 0, 69, 64
3, 1055790, Note_on_c, 0, 69, 0
3, 1055790, Note_on_c, 0, 64, 64
3, 1055850, Note_on_c, 0, 64, 0
3, 1055850, Note_on_c, 0, 65, 64
3, 1055880, Note_on_c, 0, 65, 0
3, 1055880, Note_on_c, 0, 64, 64
3, 1055910, Note_on_c, 0, 64, 0
3, 1055910, Note_on_c, 0, 62, 64
3, 1056030, Note_on_c, 0, 62, 0
3, 1056030, Note_on_c, 0, 60, 64
3, 1056060, Note_on_c, 0, 60, 0
3, 1056060, Note_on_c, 0, 59, 64
3, 1056090, Note_on_c, 0, 59, 0
3, 1056090, Note_on_c, 0, 60, 64
3, 1056150, Note_on_c, 0, 60, 0
3, 1056150, Note_on_c, 0, 65, 64
3, 1056270, Note_on_c, 0, 65, 0
3, 1056270, Note_on_c, 0, 64, 64
3, 1056300, Note_on_c, 0, 64, 0
3, 1056300, Note_on_c, 0, 62, 64
3, 1056330, Note_on_c, 0, 62, 0
3, 1056330, Note_on_c, 0, 64, 64
3, 1056360, Note_on_c, 0, 64, 0
3, 1056360, Note_on_c, 0, 60, 64
3, 1056390, Note_on_c, 0, 60, 0
3, 1056390, Note_on_c, 0, 57, 64
3, 1056510, Note_on_c, 0, 57, 0
3, 1056510, Note_on_c, 0, 59, 64
3, 1056540, Note_on_c, 0, 59, 0
3, 1056540, Note_on_c, 0, 60, 64
3, 1056570, Note_on_c, 0, 60, 0
3, 1056570, Note_on_c, 0, 62, 64
3, 1056600, Note_on_c, 0, 62, 0
3, 1056600, Note_on_c, 0, 59, 64
3, 1056630, Note_on_c, 0, 59, 0
3, 1056630, Note_on_c, 0, 56, 64
3, 1056750, Note_on_c, 0, 56, 0
3, 1056750, Note_on_c, 0, 57, 64
3, 1056780, Note_on_c, 0, 57, 0
3, 1056780, Note_on_c, 0, 59, 64
3, 1056810, Note_on_c, 0, 59, 0
3, 1056810, Note_on_c, 0, 60, 64
3, 1056840, Note_on_c, 0, 60, 0
3, 1056840, Note_on_c, 0, 59, 64
3, 1056870, Note_on_c, 0, 59, 0
3, 1056870, Note_on_c, 0, 57, 64
3, 1056990, Note_on_c, 0, 57, 0
3, 1056990, Note_on_c, 0, 45, 64
3, 1057050, Note_on_c, 0, 45, 0
3, 1057050, Note_on_c, 0, 46, 64
3, 1057110, Note_on_c, 0, 46, 0
3, 1057110, Note_on_c, 0, 47, 64
3, 1057170, Note_on_c, 0, 47, 0
3, 1057170, Note_on_c, 0, 48, 64
3, 1057230, Note_on_c, 0, 48, 0
3, 1057230, Note_on_c, 0, 49, 64
3, 1057290, Note_on_c, 0, 49, 0
3, 1057290, Note_on_c, 0, 50, 64
3, 1057350, Note_on_c, 0, 50, 0
3, 1057350, Note_on_c, 0, 51, 64
3, 1057410, Note_on_c, 0, 51, 0
3, 1057410, Note_on_c, 0, 52, 64
3, 1057470, Note_on_c, 0, 52, 0
3, 1057470, Note_on_c, 0, 53, 64
3, 1057590, Note_on_c, 0, 53, 0
3, 1057590, Note_on_c, 0, 52, 64
3, 1057620, Note_on_c, 0, 52, 0
3, 1057620, Note_on_c, 0, 50, 64
3, 1057650, Note_on_c, 0, 50, 0
3, 1057650, Note_on_c, 0, 52, 64
3, 1057710, Note_on_c, 0, 52, 0
3, 1057710, Note_on_c, 0, 47, 64
3, 1057770, Note_on_c, 0, 47, 0
3, 1057770, Note_on_c, 0, 48, 64
3, 1057800, Note_on_c, 0, 48, 0
3, 1057800, Note_on_c, 0, 47, 64
3, 1057830, Note_on_c, 0, 47, 0
3, 1057830, Note_on_c, 0, 45, 64
3, 1057890, Note_on_c, 0, 45, 0
3, 1057950, Note_on_c, 0, 60, 64
3, 1058010, Note_on_c, 0, 60, 0
3, 1058010, Note_on_c, 0, 50, 64
3, 1058070, Note_on_c, 0, 50, 0
3, 1058070, Note_on_c, 0, 58, 64
3, 1058130, Note_on_c, 0, 58, 0
3, 1058130, Note_on_c, 0, 52, 64
3, 1058190, Note_on_c, 0, 52, 0
3, 1058190, Note_on_c, 0, 58, 64
3, 1058280, Note_on_c, 0, 58, 0
3, 1058280, Note_on_c, 0, 57, 64
3, 1058310, Note_on_c, 0, 57, 0
3, 1058310, Note_on_c, 0, 55, 64
3, 1058340, Note_on_c, 0, 55, 0
3, 1058340, Note_on_c, 0, 57, 64
3, 1058370, Note_on_c, 0, 57, 0
3, 1058370, Note_on_c, 0, 58, 64
3, 1058400, Note_on_c, 0, 58, 0
3, 1058400, Note_on_c, 0, 57, 64
3, 1058430, Note_on_c, 0, 57, 0
3, 1058430, Note_on_c, 0, 58, 64
3, 1058460, Note_on_c, 0, 58, 0
3, 1058460, Note_on_c, 0, 59, 64
3, 1058490, Note_on_c, 0, 59, 0
3, 1058490, Note_on_c, 0, 60, 64
3, 1058520, Note_on_c, 0, 60, 0
3, 1058520, Note_on_c, 0, 59, 64
3, 1058550, Note_on_c, 0, 59, 0
3, 1058550, Note_on_c, 0, 60, 64
3, 1058580, Note_on_c, 0, 60, 0
3, 1058580, Note_on_c, 0, 61, 64
3, 1058610, Note_on_c, 0, 61, 0
3, 1058610, Note_on_c, 0, 62, 64
3, 1058670, Note_on_c, 0, 62, 0
3, 1058670, Note_on_c, 0, 50, 64
3, 1058730, Note_on_c, 0, 50, 0
3, 1058730, Note_on_c, 0, 52, 64
3, 1058760, Note_on_c, 0, 52, 0
3, 1058760, Note_on_c, 0, 50, 64
3, 1058790, Note_on_c, 0, 50, 0
3, 1058790, Note_on_c, 0, 49, 64
3, 1058850, Note_on_c, 0, 49, 0
3, 1058910, Note_on_c, 0, 52, 64
3, 1058970, Note_on_c, 0, 52, 0
3, 1058970, Note_on_c, 0, 53, 64
3, 1059000, Note_on_c, 0, 53, 0
3, 1059000, Note_on_c, 0, 52, 64
3, 1059030, Note_on_c, 0, 52, 0
3, 1059030, Note_on_c, 0, 50, 64
3, 1059090, Note_on_c, 0, 50, 0
3, 1059150, Note_on_c, 0, 53, 64
3, 1059210, Note_on_c, 0, 53, 0
3, 1059210, Note_on_c, 0, 55, 64
3, 1059240, Note_on_c, 0, 55, 0
3, 1059240, Note_on_c, 0, 53, 64
3, 1059270, Note_on_c, 0, 53, 0
3, 1059270, Note_on_c, 0, 52, 64
3, 1059390, Note_on_c, 0, 52, 0
3, 1059390, Note_on_c, 0, 62, 64
3, 1059510, Note_on_c, 0, 62, 0
3, 1059510, Note_on_c, 0, 61, 64
3, 1059540, Note_on_c, 0, 61, 0
3, 1059540, Note_on_c, 0, 62, 64
3, 1059570, Note_on_c, 0, 62, 0
3, 1059570, Note_on_c, 0, 64, 64
3, 1059630, Note_on_c, 0, 64, 0
3, 1059630, Note_on_c, 0, 55, 64
3, 1059690, Note_on_c, 0, 55, 0
3, 1059690, Note_on_c, 0, 55, 64
3, 1059750, Note_on_c, 0, 55, 0
3, 1059750, Note_on_c, 0, 53, 64
3, 1059780, Note_on_c, 0, 53, 0
3, 1059780, Note_on_c, 0, 52, 64
3, 1059810, Note_on_c, 0, 52, 0
3, 1059810, Note_on_c, 0, 53, 64
3, 1059990, Note_on_c, 0, 53, 0
3, 1059990, Note_on_c, 0, 52, 64
3, 1060020, Note_on_c, 0, 52, 0
3, 1060020, Note_on_c, 0, 50, 64
3, 1060050, Note_on_c, 0, 50, 0
3, 1060050, Note_on_c, 0, 48, 64
3, 1060110, Note_on_c, 0, 48, 0
3, 1060110, Note_on_c, 0, 47, 64
3, 1060170, Note_on_c, 0, 47, 0
3, 1060170, Note_on_c, 0, 48, 64
3, 1060230, Note_on_c, 0, 48, 0
3, 1060230, Note_on_c, 0, 60, 64
3, 1060260, Note_on_c, 0, 60, 0
3, 1060260, Note_on_c, 0, 59, 64
3, 1060290, Note_on_c, 0, 59, 0
3, 1060290, Note_on_c, 0, 60, 64
3, 1060470, Note_on_c, 0, 60, 0
3, 1060470, Note_on_c, 0, 58, 64
3, 1060500, Note_on_c, 0, 58, 0
3, 1060500, Note_on_c, 0, 57, 64
3, 1060530, Note_on_c, 0, 57, 0
3, 1060530, Note_on_c, 0, 55, 64
3, 1060590, Note_on_c, 0, 55, 0
3, 1060590, Note_on_c, 0, 54, 64
3, 1060650, Note_on_c, 0, 54, 0
3, 1060650, Note_on_c, 0, 55, 64
3, 1060710, Note_on_c, 0, 55, 0
3, 1060710, Note_on_c, 0, 67, 64
3, 1060740, Note_on_c, 0, 67, 0
3, 1060740, Note_on_c, 0, 66, 64
3, 1060770, Note_on_c, 0, 66, 0
3, 1060770, Note_on_c, 0, 67, 64
3, 1060950, Note_on_c, 0, 67, 0
3, 1060950, Note_on_c, 0, 65, 64
3, 1061070, Note_on_c, 0, 65, 0
3, 1061070, Note_on_c, 0, 64, 64
3, 1061130, Note_on_c, 0, 64, 0
3, 1061130, Note_on_c, 0, 65, 64
3, 1061190, Note_on_c, 0, 65, 0
3, 1061190, Note_on_c, 0, 70, 64
3, 1061220, Note_on_c, 0, 70, 0
3, 1061220, Note_on_c, 0, 69, 64
3, 1061250, Note_on_c, 0, 69, 0
3, 1061250, Note_on_c, 0, 70, 64
3, 1061370, Note_on_c, 0, 70, 0
3, 1061370, Note_on_c, 0, 70, 64
3, 1061400, Note_on_c, 0, 70, 0
3, 1061400, Note_on_c, 0, 69, 64
3, 1061430, Note_on_c, 0, 69, 0
3, 1061430, Note_on_c, 0, 67, 64
3, 1061460, Note_on_c, 0, 67, 0
3, 1061460, Note_on_c, 0, 65, 64
3, 1061490, Note_on_c, 0, 65, 0
3, 1061490, Note_on_c, 0, 64, 64
3, 1061520, Note_on_c, 0, 64, 0
3, 1061520, Note_on_c, 0, 62, 64
3, 1061550, Note_on_c, 0, 62, 0
3, 1061550, Note_on_c, 0, 61, 64
3, 1061580, Note_on_c, 0, 61, 0
3, 1061580, Note_on_c, 0, 62, 64
3, 1061610, Note_on_c, 0, 62, 0
3, 1061610, Note_on_c, 0, 61, 64
3, 1061640, Note_on_c, 0, 61, 0
3, 1061640, Note_on_c, 0, 65, 64
3, 1061670, Note_on_c, 0, 65, 0
3, 1061670, Note_on_c, 0, 64, 64
3, 1061700, Note_on_c, 0, 64, 0
3, 1061700, Note_on_c, 0, 63, 64
3, 1061730, Note_on_c, 0, 63, 0
3, 1061730, Note_on_c, 0, 64, 64
3, 1061760, Note_on_c, 0, 64, 0
3, 1061760, Note_on_c, 0, 62, 64
3, 1061790, Note_on_c, 0, 62, 0
3, 1061790, Note_on_c, 0, 61, 64
3, 1061820, Note_on_c, 0, 61, 0
3, 1061820, Note_on_c, 0, 62, 64
3, 1061850, Note_on_c, 0, 62, 0
3, 1061850, Note_on_c, 0, 60, 64
3, 1061880, Note_on_c, 0, 60, 0
3, 1061880, Note_on_c, 0, 59, 64
3, 1061910, Note_on_c, 0, 59, 0
3, 1061910, Note_on_c, 0, 60, 64
3, 1061940, Note_on_c, 0, 60, 0
3, 1061940, Note_on_c, 0, 58, 64
3, 1061970, Note_on_c, 0, 58, 0
3, 1061970, Note_on_c, 0, 57, 64
3, 1062000, Note_on_c, 0, 57, 0
3, 1062000, Note_on_c, 0, 58, 64
3, 1062030, Note_on_c, 0, 58, 0
3, 1062030, Note_on_c, 0, 57, 64
3, 1062060, Note_on_c, 0, 57, 0
3, 1062060, Note_on_c, 0, 56, 64
3, 1062090, Note_on_c, 0, 56, 0
3, 1062090, Note_on_c, 0, 57, 64
3, 1062150, Note_on_c, 0, 57, 0
3, 1062150, Note_on_c, 0, 49, 64
3, 1062180, Note_on_c, 0, 49, 0
3, 1062180, Note_on_c, 0, 50, 64
3, 1062210, Note_on_c, 0, 50, 0
3, 1062210, Note_on_c, 0, 52, 64
3, 1062270, Note_on_c, 0, 52, 0
3, 1062270, Note_on_c, 0, 52, 64
3, 1062300, Note_on_c, 0, 52, 0
3, 1062300, Note_on_c, 0, 53, 64
3, 1062330, Note_on_c, 0, 53, 0
3, 1062330, Note_on_c, 0, 55, 64
3, 1062360, Note_on_c, 0, 55, 0
3, 1062360, Note_on_c, 0, 57, 64
3, 1062390, Note_on_c, 0, 57, 0
3, 1062390, Note_on_c, 0, 58, 64
3, 1062510, Note_on_c, 0, 58, 0
3, 1062510, Note_on_c, 0, 57, 64
3, 1062540, Note_on_c, 0, 57, 0
3, 1062540, Note_on_c, 0, 55, 64
3, 1062570, Note_on_c, 0, 55, 0
3, 1062570, Note_on_c, 0, 53, 64
3, 1062600, Note_on_c, 0, 53, 0
3, 1062600, Note_on_c, 0, 52, 64
3, 1062630, Note_on_c, 0, 52, 0
3, 1062630, Note_on_c, 0, 50, 64
3, 1062660, Note_on_c, 0, 50, 0
3, 1062660, Note_on_c, 0, 52, 64
3, 1062690, Note_on_c, 0, 52, 0
3, 1062690, Note_on_c, 0, 53, 64
3, 1062720, Note_on_c, 0, 53, 0
3, 1062720, Note_on_c, 0, 55, 64
3, 1062750, Note_on_c, 0, 55, 0
3, 1062750, Note_on_c, 0, 57, 64
3, 1062780, Note_on_c, 0, 57, 0
3, 1062780, Note_on_c, 0, 59, 64
3, 1062810, Note_on_c, 0, 59, 0
3, 1062810, Note_on_c, 0, 61, 64
3, 1062840, Note_on_c, 0, 61, 0
3, 1062840, Note_on_c, 0, 59, 64
3, 1062870, Note_on_c, 0, 59, 0
3, 1062870, Note_on_c, 0, 57, 64
3, 1062900, Note_on_c, 0, 57, 0
3, 1062900, Note_on_c, 0, 59, 64
3, 1062930, Note_on_c, 0, 59, 0
3, 1062930, Note_on_c, 0, 61, 64
3, 1062960, Note_on_c, 0, 61, 0
3, 1062960, Note_on_c, 0, 62, 64
3, 1062990, Note_on_c, 0, 62, 0
3, 1062990, Note_on_c, 0, 64, 64
3, 1063020, Note_on_c, 0, 64, 0
3, 1063020, Note_on_c, 0, 65, 64
3, 1063050, Note_on_c, 0, 65, 0
3, 1063050, Note_on_c, 0, 67, 64
3, 1063080, Note_on_c, 0, 67, 0
3, 1063080, Note_on_c, 0, 65, 64
3, 1063110, Note_on_c, 0, 65, 0
3, 1063110, Note_on_c, 0, 64, 64
3, 1063140, Note_on_c, 0, 64, 0
3, 1063140, Note_on_c, 0, 65, 64
3, 1063170, Note_on_c, 0, 65, 0
3, 1063170, Note_on_c, 0, 67, 64
3, 1063200, Note_on_c, 0, 67, 0
3, 1063200, Note_on_c, 0, 69, 64
3, 1063230, Note_on_c, 0, 69, 0
3, 1063230, Note_on_c, 0, 70, 64
3, 1063260, Note_on_c, 0, 70, 0
3, 1063260, Note_on_c, 0, 69, 64
3, 1063290, Note_on_c, 0, 69, 0
3, 1063290, Note_on_c, 0, 67, 64
3, 1063320, Note_on_c, 0, 67, 0
3, 1063320, Note_on_c, 0, 65, 64
3, 1063350, Note_on_c, 0, 65, 0
3, 1063350, Note_on_c, 0, 64, 64
3, 1063380, Note_on_c, 0, 64, 0
3, 1063380, Note_on_c, 0, 62, 64
3, 1063410, Note_on_c, 0, 62, 0
3, 1063410, Note_on_c, 0, 61, 64
3, 1063440, Note_on_c, 0, 61, 0
3, 1063440, Note_on_c, 0, 62, 64
3, 1063470, Note_on_c, 0, 62, 0
3, 1063470, Note_on_c, 0, 64, 64
3, 1063530, Note_on_c, 0, 64, 0
3, 1063530, Note_on_c, 0, 64, 64
3, 1063590, Note_on_c, 0, 64, 0
3, 1063590, Note_on_c, 0, 62, 64
3, 1063710, Note_on_c, 0, 62, 0
3, 1063710, Note_on_c, 0, 60, 64
3, 1063740, Note_on_c, 0, 60, 0
3, 1063740, Note_on_c, 0, 59, 64
3, 1063770, Note_on_c, 0, 59, 0
3, 1063770, Note_on_c, 0, 60, 64
3, 1063830, Note_on_c, 0, 60, 0
3, 1063830, Note_on_c, 0, 65, 64
3, 1063950, Note_on_c, 0, 65, 0
3, 1063950, Note_on_c, 0, 64, 64
3, 1063980, Note_on_c, 0, 64, 0
3, 1063980, Note_on_c, 0, 63, 64
3, 1064010, Note_on_c, 0, 63, 0
3, 1064010, Note_on_c, 0, 64, 64
3, 1064070, Note_on_c, 0, 64, 0
3, 1064070, Note_on_c, 0, 59, 64
3, 1064190, Note_on_c, 0, 59, 0
3, 1064190, Note_on_c, 0, 61, 64
3, 1064250, Note_on_c, 0, 61, 0
3, 1064250, Note_on_c, 0, 62, 64
3, 1064310, Note_on_c, 0, 62, 0
3, 1064310, Note_on_c, 0, 57, 64
3, 1064430, Note_on_c, 0, 57, 0
3, 1064430, Note_on_c, 0, 59, 64
3, 1064490, Note_on_c, 0, 59, 0
3, 1064490, Note_on_c, 0, 60, 64
3, 1064550, Note_on_c, 0, 60, 0
3, 1064550, Note_on_c, 0, 55, 64
3, 1064670, Note_on_c, 0, 55, 0
3, 1064670, Note_on_c, 0, 57, 64
3, 1064730, Note_on_c, 0, 57, 0
3, 1064730, Note_on_c, 0, 58, 64
3, 1064760, Note_on_c, 0, 58, 0
3, 1064760, Note_on_c, 0, 57, 64
3, 1064790, Note_on_c, 0, 57, 0
3, 1064790, Note_on_c, 0, 55, 64
3, 1064880, Note_on_c, 0, 55, 0
3, 1064880, Note_on_c, 0, 57, 64
3, 1064910, Note_on_c, 0, 57, 0
3, 1064910, Note_on_c, 0, 55, 64
3, 1064940, Note_on_c, 0, 55, 0
3, 1064940, Note_on_c, 0, 54, 64
3, 1064970, Note_on_c, 0, 54, 0
3, 1064970, Note_on_c, 0, 55, 64
3, 1065030, Note_on_c, 0, 55, 0
3, 1065030, Note_on_c, 0, 45, 64
3, 1065090, Note_on_c, 0, 45, 0
3, 1065150, Note_on_c, 0, 55, 64
3, 1065270, Note_on_c, 0, 55, 0
3, 1065270, Note_on_c, 0, 53, 64
3, 1065300, Note_on_c, 0, 53, 0
3, 1065300, Note_on_c, 0, 52, 64
3, 1065330, Note_on_c, 0, 52, 0
3, 1065330, Note_on_c, 0, 50, 64
3, 1065360, Note_on_c, 0, 50, 0
3, 1065360, Note_on_c, 0, 49, 64
3, 1065390, Note_on_c, 0, 49, 0
3, 1065390, Note_on_c, 0, 52, 64
3, 1065450, Note_on_c, 0, 52, 0
3, 1065450, Note_on_c, 0, 52, 64
3, 1065480, Note_on_c, 0, 52, 0
3, 1065480, Note_on_c, 0, 50, 64
3, 1065510, Note_on_c, 0, 50, 0
3, 1065510, Note_on_c, 0, 62, 64
3, 1065630, Note_on_c, 0, 62, 0
3, 1065630, Note_on_c, 0, 60, 64
3, 1065660, Note_on_c, 0, 60, 0
3, 1065660, Note_on_c, 0, 59, 64
3, 1065690, Note_on_c, 0, 59, 0
3, 1065690, Note_on_c, 0, 60, 64
3, 1065750, Note_on_c, 0, 60, 0
3, 1065750, Note_on_c, 0, 58, 64
3, 1065780, Note_on_c, 0, 58, 0
3, 1065780, Note_on_c, 0, 57, 64
3, 1065810, Note_on_c, 0, 57, 0
3, 1065810, Note_on_c, 0, 55, 64
3, 1065840, Note_on_c, 0, 55, 0
3, 1065840, Note_on_c, 0, 54, 64
3, 1065870, Note_on_c, 0, 54, 0
3, 1065870, Note_on_c, 0, 57, 64
3, 1065960, Note_on_c, 0, 57, 0
3, 1065960, Note_on_c, 0, 55, 64
3, 1065990, Note_on_c, 0, 55, 0
3, 1065990, Note_on_c, 0, 57, 64
3, 1066020, Note_on_c, 0, 57, 0
3, 1066020, Note_on_c, 0, 58, 64
3, 1066050, Note_on_c, 0, 58, 0
3, 1066050, Note_on_c, 0, 60, 64
3, 1066080, Note_on_c, 0, 60, 0
3, 1066080, Note_on_c, 0, 58, 64
3, 1066110, Note_on_c, 0, 58, 0
3, 1066110, Note_on_c, 0, 57, 64
3, 1066170, Note_on_c, 0, 57, 0
3, 1066170, Note_on_c, 0, 63, 64
3, 1066230, Note_on_c, 0, 63, 0
3, 1066230, Note_on_c, 0, 62, 64
3, 1066350, Note_on_c, 0, 62, 0
3, 1066350, Note_on_c, 0, 60, 64
3, 1066410, Note_on_c, 0, 60, 0
3, 1066410, Note_on_c, 0, 58, 64
3, 1066440, Note_on_c, 0, 58, 0
3, 1066440, Note_on_c, 0, 60, 64
3, 1066470, Note_on_c, 0, 60, 0
3, 1066470, Note_on_c, 0, 62, 64
3, 1066500, Note_on_c, 0, 62, 0
3, 1066500, Note_on_c, 0, 64, 64
3, 1066530, Note_on_c, 0, 64, 0
3, 1066530, Note_on_c, 0, 66, 64
3, 1066560, Note_on_c, 0, 66, 0
3, 1066560, Note_on_c, 0, 64, 64
3, 1066590, Note_on_c, 0, 64, 0
3, 1066590, Note_on_c, 0, 62, 64
3, 1066650, Note_on_c, 0, 62, 0
3, 1066650, Note_on_c, 0, 70, 64
3, 1066710, Note_on_c, 0, 70, 0
3, 1066710, Note_on_c, 0, 69, 64
3, 1066830, Note_on_c, 0, 69, 0
3, 1066830, Note_on_c, 0, 67, 64
3, 1066890, Note_on_c, 0, 67, 0
3, 1066890, Note_on_c, 0, 66, 64
3, 1066920, Note_on_c, 0, 66, 0
3, 1066920, Note_on_c, 0, 67, 64
3, 1066950, Note_on_c, 0, 67, 0
3, 1066950, Note_on_c, 0, 69, 64
3, 1066980, Note_on_c, 0, 69, 0
3, 1066980, Note_on_c, 0, 70, 64
3, 1067010, Note_on_c, 0, 70, 0
3, 1067010, Note_on_c, 0, 72, 64
3, 1067040, Note_on_c, 0, 72, 0
3, 1067040, Note_on_c, 0, 63, 64
3, 1067070, Note_on_c, 0, 63, 0
3, 1067070, Note_on_c, 0, 62, 64
3, 1067100, Note_on_c, 0, 62, 0
3, 1067100, Note_on_c, 0, 60, 64
3, 1067130, Note_on_c, 0, 60, 0
3, 1067130, Note_on_c, 0, 67, 64
3, 1067140, Note_on_c, 0, 67, 0
3, 1067140, Note_on_c, 0, 66, 64
3, 1067160, Note_on_c, 0, 66, 0
3, 1067160, Note_on_c, 0, 67, 64
3, 1067180, Note_on_c, 0, 67, 0
3, 1067180, Note_on_c, 0, 66, 64
3, 1067200, Note_on_c, 0, 66, 0
3, 1067200, Note_on_c, 0, 67, 64
3, 1067220, Note_on_c, 0, 67, 0
3, 1067220, Note_on_c, 0, 66, 64
3, 1067230, Note_on_c, 0, 66, 0
3, 1067230, Note_on_c, 0, 67, 64
3, 1067250, Note_on_c, 0, 67, 0
3, 1067250, Note_on_c, 0, 66, 64
3, 1067270, Note_on_c, 0, 66, 0
3, 1067270, Note_on_c, 0, 67, 64
3, 1067290, Note_on_c, 0, 67, 0
3, 1067290, Note_on_c, 0, 66, 64
3, 1067310, Note_on_c, 0, 66, 0
3, 1067310, Note_on_c, 0, 64, 64
3, 1067340, Note_on_c, 0, 64, 0
3, 1067340, Note_on_c, 0, 66, 64
3, 1067370, Note_on_c, 0, 66, 0
3, 1067370, Note_on_c, 0, 67, 64
3, 1067490, Note_on_c, 0, 67, 0
3, 1067490, Note_on_c, 0, 67, 64
3, 1067520, Note_on_c, 0, 67, 0
3, 1067520, Note_on_c, 0, 65, 64
3, 1067550, Note_on_c, 0, 65, 0
3, 1067550, Note_on_c, 0, 64, 64
3, 1067580, Note_on_c, 0, 64, 0
3, 1067580, Note_on_c, 0, 67, 64
3, 1067610, Note_on_c, 0, 67, 0
3, 1067610, Note_on_c, 0, 65, 64
3, 1067640, Note_on_c, 0, 65, 0
3, 1067640, Note_on_c, 0, 64, 64
3, 1067670, Note_on_c, 0, 64, 0
3, 1067670, Note_on_c, 0, 62, 64
3, 1067700, Note_on_c, 0, 62, 0
3, 1067700, Note_on_c, 0, 61, 64
3, 1067730, Note_on_c, 0, 61, 0
3, 1067730, Note_on_c, 0, 60, 64
3, 1067760, Note_on_c, 0, 60, 0
3, 1067760, Note_on_c, 0, 58, 64
3, 1067790, Note_on_c, 0, 58, 0
3, 1067790, Note_on_c, 0, 57, 64
3, 1067820, Note_on_c, 0, 57, 0
3, 1067820, Note_on_c, 0, 56, 64
3, 1067850, Note_on_c, 0, 56, 0
3, 1067850, Note_on_c, 0, 57, 64
3, 1067910, Note_on_c, 0, 57, 0
3, 1067910, Note_on_c, 0, 69, 64
3, 1067970, Note_on_c, 0, 69, 0
3, 1067970, Note_on_c, 0, 62, 64
3, 1068030, Note_on_c, 0, 62, 0
3, 1068030, Note_on_c, 0, 66, 64
3, 1068090, Note_on_c, 0, 66, 0
3, 1068090, Note_on_c, 0, 55, 64
3, 1068150, Note_on_c, 0, 55, 0
3, 1068150, Note_on_c, 0, 67, 64
3, 1068210, Note_on_c, 0, 67, 0
3, 1068210, Note_on_c, 0, 60, 64
3, 1068270, Note_on_c, 0, 60, 0
3, 1068270, Note_on_c, 0, 64, 64
3, 1068330, Note_on_c, 0, 64, 0
3, 1068330, Note_on_c, 0, 53, 64
3, 1068390, Note_on_c, 0, 53, 0
3, 1068390, Note_on_c, 0, 65, 64
3, 1068450, Note_on_c, 0, 65, 0
3, 1068450, Note_on_c, 0, 59, 64
3, 1068510, Note_on_c, 0, 59, 0
3, 1068510, Note_on_c, 0, 62, 64
3, 1068570, Note_on_c, 0, 62, 0
3, 1068570, Note_on_c, 0, 52, 64
3, 1068630, Note_on_c, 0, 52, 0
3, 1068630, Note_on_c, 0, 64, 64
3, 1068690, Note_on_c, 0, 64, 0
3, 1068690, Note_on_c, 0, 57, 64
3, 1068720, Note_on_c, 0, 57, 0
3, 1068720, Note_on_c, 0, 61, 64
3, 1068750, Note_on_c, 0, 61, 0
3, 1068750, Note_on_c, 0, 62, 64
3, 1068780, Note_on_c, 0, 62, 0
3, 1068780, Note_on_c, 0, 63, 64
3, 1068810, Note_on_c, 0, 63, 0
3, 1068810, Note_on_c, 0, 62, 64
3, 1068840, Note_on_c, 0, 62, 0
3, 1068840, Note_on_c, 0, 59, 64
3, 1068870, Note_on_c, 0, 59, 0
3, 1068870, Note_on_c, 0, 60, 64
3, 1068990, Note_on_c, 0, 60, 0
3, 1068990, Note_on_c, 0, 60, 64
3, 1069110, Note_on_c, 0, 60, 0
3, 1069110, Note_on_c, 0, 58, 64
3, 1069230, Note_on_c, 0, 58, 0
3, 1069230, Note_on_c, 0, 57, 64
3, 1069290, Note_on_c, 0, 57, 0
3, 1069290, Note_on_c, 0, 57, 64
3, 1069350, Note_on_c, 0, 57, 0
3, 1069350, Note_on_c, 0, 55, 64
3, 1069470, Note_on_c, 0, 55, 0
3, 1069470, Note_on_c, 0, 53, 64
3, 1069500, Note_on_c, 0, 53, 0
3, 1069500, Note_on_c, 0, 52, 64
3, 1069530, Note_on_c, 0, 52, 0
3, 1069530, Note_on_c, 0, 53, 64
3, 1069590, Note_on_c, 0, 53, 0
3, 1069590, Note_on_c, 0, 58, 64
3, 1069620, Note_on_c, 0, 58, 0
3, 1069620, Note_on_c, 0, 57, 64
3, 1069650, Note_on_c, 0, 57, 0
3, 1069650, Note_on_c, 0, 55, 64
3, 1069680, Note_on_c, 0, 55, 0
3, 1069680, Note_on_c, 0, 53, 64
3, 1069710, Note_on_c, 0, 53, 0
3, 1069710, Note_on_c, 0, 52, 64
3, 1069740, Note_on_c, 0, 52, 0
3, 1069740, Note_on_c, 0, 50, 64
3, 1069770, Note_on_c, 0, 50, 0
3, 1069770, Note_on_c, 0, 49, 64
3, 1069800, Note_on_c, 0, 49, 0
3, 1069800, Note_on_c, 0, 50, 64
3, 1069830, Note_on_c, 0, 50, 0
3, 1069830, Note_on_c, 0, 52, 64
3, 1069890, Note_on_c, 0, 52, 0
3, 1069950, Note_on_c, 0, 52, 64
3, 1070040, Note_on_c, 0, 52, 0
3, 1070040, Note_on_c, 0, 53, 64
3, 1070070, Note_on_c, 0, 53, 0
3, 1070070, Note_on_c, 0, 52, 64
3, 1070100, Note_on_c, 0, 52, 0
3, 1070100, Note_on_c, 0, 50, 64
3, 1070130, Note_on_c, 0, 50, 0
3, 1070130, Note_on_c, 0, 52, 64
3, 1070160, Note_on_c, 0, 52, 0
3, 1070160, Note_on_c, 0, 53, 64
3, 1070190, Note_on_c, 0, 53, 0
3, 1070190, Note_on_c, 0, 55, 64
3, 1070220, Note_on_c, 0, 55, 0
3, 1070220, Note_on_c, 0, 57, 64
3, 1070250, Note_on_c, 0, 57, 0
3, 1070250, Note_on_c, 0, 58, 64
3, 1070280, Note_on_c, 0, 58, 0
3, 1070280, Note_on_c, 0, 57, 64
3, 1070310, Note_on_c, 0, 57, 0
3, 1070310, Note_on_c, 0, 55, 64
3, 1070340, Note_on_c, 0, 55, 0
3, 1070340, Note_on_c, 0, 54, 64
3, 1070370, Note_on_c, 0, 54, 0
3, 1070370, Note_on_c, 0, 55, 64
3, 1070490, Note_on_c, 0, 55, 0
3, 1070490, Note_on_c, 0, 55, 64
3, 1070520, Note_on_c, 0, 55, 0
3, 1070520, Note_on_c, 0, 57, 64
3, 1070550, Note_on_c, 0, 57, 0
3, 1070550, Note_on_c, 0, 55, 64
3, 1070580, Note_on_c, 0, 55, 0
3, 1070580, Note_on_c, 0, 54, 64
3, 1070610, Note_on_c, 0, 54, 0
3, 1070610, Note_on_c, 0, 55, 64
3, 1070730, Note_on_c, 0, 55, 0
3, 1070730, Note_on_c, 0, 55, 64
3, 1070760, Note_on_c, 0, 55, 0
3, 1070760, Note_on_c, 0, 57, 64
3, 1070790, Note_on_c, 0, 57, 0
3, 1070790, Note_on_c, 0, 55, 64
3, 1070820, Note_on_c, 0, 55, 0
3, 1070820, Note_on_c, 0, 54, 64
3, 1070850, Note_on_c, 0, 54, 0
3, 1070850, Note_on_c, 0, 55, 64
3, 1070910, Note_on_c, 0, 55, 0
3, 1070910, Note_on_c, 0, 67, 64
3, 1071000, Note_on_c, 0, 67, 0
3, 1071000, Note_on_c, 0, 62, 64
3, 1071030, Note_on_c, 0, 62, 0
3, 1071030, Note_on_c, 0, 61, 64
3, 1071060, Note_on_c, 0, 61, 0
3, 1071060, Note_on_c, 0, 59, 64
3, 1071090, Note_on_c, 0, 59, 0
3, 1071090, Note_on_c, 0, 57, 64
3, 1071120, Note_on_c, 0, 57, 0
3, 1071120, Note_on_c, 0, 61, 64
3, 1071150, Note_on_c, 0, 61, 0
3, 1071150, Note_on_c, 0, 64, 64
3, 1071180, Note_on_c, 0, 64, 0
3, 1071180, Note_on_c, 0, 67, 64
3, 1071210, Note_on_c, 0, 67, 0
3, 1071210, Note_on_c, 0, 65, 64
3, 1071240, Note_on_c, 0, 65, 0
3, 1071240, Note_on_c, 0, 64, 64
3, 1071270, Note_on_c, 0, 64, 0
3, 1071270, Note_on_c, 0, 62, 64
3, 1071300, Note_on_c, 0, 62, 0
3, 1071300, Note_on_c, 0, 61, 64
3, 1071330, Note_on_c, 0, 61, 0
3, 1071330, Note_on_c, 0, 62, 64
3, 1071390, Note_on_c, 0, 62, 0
3, 1071390, Note_on_c, 0, 58, 64
3, 1071450, Note_on_c, 0, 58, 0
3, 1071450, Note_on_c, 0, 57, 64
3, 1071480, Note_on_c, 0, 57, 0
3, 1071480, Note_on_c, 0, 55, 64
3, 1071510, Note_on_c, 0, 55, 0
3, 1071510, Note_on_c, 0, 63, 64
3, 1071630, Note_on_c, 0, 63, 0
3, 1071630, Note_on_c, 0, 62, 64
3, 1071750, Note_on_c, 0, 62, 0
3, 1071750, Note_on_c, 0, 61, 64
3, 1071780, Note_on_c, 0, 61, 0
3, 1071780, Note_on_c, 0, 59, 64
3, 1071810, Note_on_c, 0, 59, 0
3, 1071810, Note_on_c, 0, 61, 64
3, 1071870, Note_on_c, 0, 61, 0
3, 1071870, Note_on_c, 0, 57, 64
3, 1071930, Note_on_c, 0, 57, 0
3, 1071930, Note_on_c, 0, 55, 64
3, 1071960, Note_on_c, 0, 55, 0
3, 1071960, Note_on_c, 0, 53, 64
3, 1071990, Note_on_c, 0, 53, 0
3, 1071990, Note_on_c, 0, 62, 64
3, 1072110, Note_on_c, 0, 62, 0
3, 1072110, Note_on_c, 0, 60, 64
3, 1072170, Note_on_c, 0, 60, 0
3, 1072170, Note_on_c, 0, 60, 64
3, 1072230, Note_on_c, 0, 60, 0
3, 1072230, Note_on_c, 0, 59, 64
3, 1072260, Note_on_c, 0, 59, 0
3, 1072260, Note_on_c, 0, 57, 64
3, 1072290, Note_on_c, 0, 57, 0
3, 1072290, Note_on_c, 0, 59, 64
3, 1072350, Note_on_c, 0, 59, 0
3, 1072350, Note_on_c, 0, 55, 64
3, 1072410, Note_on_c, 0, 55, 0
3, 1072410, Note_on_c, 0, 53, 64
3, 1072440, Note_on_c, 0, 53, 0
3, 1072440, Note_on_c, 0, 52, 64
3, 1072470, Note_on_c, 0, 52, 0
3, 1072470, Note_on_c, 0, 55, 64
3, 1072500, Note_on_c, 0, 55, 0
3, 1072500, Note_on_c, 0, 58, 64
3, 1072530, Note_on_c, 0, 58, 0
3, 1072530, Note_on_c, 0, 61, 64
3, 1072560, Note_on_c, 0, 61, 0
3, 1072560, Note_on_c, 0, 55, 64
3, 1072590, Note_on_c, 0, 55, 0
3, 1072590, Note_on_c, 0, 53, 64
3, 1072620, Note_on_c, 0, 53, 0
3, 1072620, Note_on_c, 0, 52, 64
3, 1072650, Note_on_c, 0, 52, 0
3, 1072650, Note_on_c, 0, 50, 64
3, 1072680, Note_on_c, 0, 50, 0
3, 1072680, Note_on_c, 0, 47, 64
3, 1072710, Note_on_c, 0, 47, 0
3, 1072710, Note_on_c, 0, 49, 64
3, 1072800, Note_on_c, 0, 49, 0
3, 1072800, Note_on_c, 0, 50, 64
3, 1072830, Note_on_c, 0, 50, 0
3, 1072830, Note_on_c, 0, 52, 64
3, 1072860, Note_on_c, 0, 52, 0
3, 1072860, Note_on_c, 0, 53, 64
3, 1072890, Note_on_c, 0, 53, 0
3, 1072890, Note_on_c, 0, 52, 64
3, 1072920, Note_on_c, 0, 52, 0
3, 1072920, Note_on_c, 0, 49, 64
3, 1072950, Note_on_c, 0, 49, 0
3, 1072950, Note_on_c, 0, 58, 64
3, 1073070, Note_on_c, 0, 58, 0
3, 1073070, Note_on_c, 0, 57, 64
3, 1073100, Note_on_c, 0, 57, 0
3, 1073100, Note_on_c, 0, 55, 64
3, 1073130, Note_on_c, 0, 55, 0
3, 1073130, Note_on_c, 0, 53, 64
3, 1073190, Note_on_c, 0, 53, 0
3, 1073190, Note_on_c, 0, 52, 64
3, 1073250, Note_on_c, 0, 52, 0
3, 1073250, Note_on_c, 0, 53, 64
3, 1073310, Note_on_c, 0, 53, 0
3, 1073310, Note_on_c, 0, 50, 64
3, 1073390, Note_on_c, 0, 50, 0
3, 1073390, Note_on_c, 0, 49, 64
3, 1073410, Note_on_c, 0, 49, 0
3, 1073410, Note_on_c, 0, 50, 64
3, 1073430, Note_on_c, 0, 50, 0
3, 1073430, Note_on_c, 0, 49, 64
3, 1073450, Note_on_c, 0, 49, 0
3, 1073450, Note_on_c, 0, 50, 64
3, 1073470, Note_on_c, 0, 50, 0
3, 1073470, Note_on_c, 0, 49, 64
3, 1073490, Note_on_c, 0, 49, 0
3, 1073490, Note_on_c, 0, 50, 64
3, 1073510, Note_on_c, 0, 50, 0
3, 1073510, Note_on_c, 0, 49, 64
3, 1073530, Note_on_c, 0, 49, 0
3, 1073530, Note_on_c, 0, 47, 64
3, 1073550, Note_on_c, 0, 47, 0
3, 1073550, Note_on_c, 0, 49, 64
3, 1073570, Note_on_c, 0, 49, 0
3, 1073570, Note_on_c, 0, 50, 64
3, 1073750, Note_on_c, 0, 50, 0
3, 1073750, Note_on_c, 0, 50, 64
3, 1073790, Note_on_c, 0, 50, 0
3, 1073790, Note_on_c, 0, 48, 64
3, 1073820, Note_on_c, 0, 48, 0
3, 1073820, Note_on_c, 0, 47, 64
3, 1073850, Note_on_c, 0, 47, 0
3, 1073850, Note_on_c, 0, 48, 64
3, 1073910, Note_on_c, 0, 48, 0
3, 1073910, Note_on_c, 0, 46, 64
3, 1073940, Note_on_c, 0, 46, 0
3, 1073940, Note_on_c, 0, 45, 64
3, 1073970, Note_on_c, 0, 45, 0
3, 1073970, Note_on_c, 0, 46, 64
3, 1074030, Note_on_c, 0, 46, 0
3, 1074030, Note_on_c, 0, 55, 64
3, 1074060, Note_on_c, 0, 55, 0
3, 1074060, Note_on_c, 0, 54, 64
3, 1074090, Note_on_c, 0, 54, 0
3, 1074090, Note_on_c, 0, 55, 64
3, 1074270, Note_on_c, 0, 55, 0
3, 1074270, Note_on_c, 0, 53, 64
3, 1074300, Note_on_c, 0, 53, 0
3, 1074300, Note_on_c, 0, 52, 64
3, 1074330, Note_on_c, 0, 52, 0
3, 1074330, Note_on_c, 0, 53, 64
3, 1074390, Note_on_c, 0, 53, 0
3, 1074390, Note_on_c, 0, 52, 64
3, 1074420, Note_on_c, 0, 52, 0
3, 1074420, Note_on_c, 0, 50, 64
3, 1074450, Note_on_c, 0, 50, 0
3, 1074450, Note_on_c, 0, 49, 64
3, 1074510, Note_on_c, 0, 49, 0
3, 1074510, Note_on_c, 0, 57, 64
3, 1074540, Note_on_c, 0, 57, 0
3, 1074540, Note_on_c, 0, 56, 64
3, 1074570, Note_on_c, 0, 56, 0
3, 1074570, Note_on_c, 0, 57, 64
3, 1074630, Note_on_c, 0, 57, 0
3, 1074630, Note_on_c, 0, 62, 64
3, 1074660, Note_on_c, 0, 62, 0
3, 1074660, Note_on_c, 0, 60, 64
3, 1074690, Note_on_c, 0, 60, 0
3, 1074690, Note_on_c, 0, 58, 64
3, 1074750, Note_on_c, 0, 58, 0
3, 1074750, Note_on_c, 0, 57, 64
3, 1074780, Note_on_c, 0, 57, 0
3, 1074780, Note_on_c, 0, 55, 64
3, 1074810, Note_on_c, 0, 55, 0
3, 1074810, Note_on_c, 0, 57, 64
3, 1074930, Note_on_c, 0, 57, 0
3, 1074930, Note_on_c, 0, 45, 64
3, 1075050, Note_on_c, 0, 45, 0
3, 1075050, Note_on_c, 0, 50, 64
3, 1075770, Note_on_c, 0, 50, 0
3, 1075770, End_track
4, 0, Start_track
4, 0, MIDI_port, 0
4, 0, Title_t, "Transcription  und Zusamensetzung nach der ersten Ausgabe 1751, wie in der Ausgabe von Davitt Moroney (G. Henle Verlag)  "
4, 0, End_track
5, 0, Start_track
5, 0, MIDI_port, 0
5, 0, Title_t, " von Matjaz Kozelj  "
5, 0, End_track
6, 0, Start_track
6, 0, MIDI_port, 0
6, 0, Title_t, " DEO SOLI GLORIA PER SÆCULA SÆCULORUM!!!"
6, 0, End_track
7, 0, Start_track
7, 0, MIDI_port, 0
7, 0, Title_t, "Ps:nur einigen Teilen sind von mir , Andere habe ich durch Internet bekommen)"
7, 0, End_track
8, 0, Start_track
8, 0, MIDI_port, 0
8, 0, Title_t, ""
8, 0, End_track
9, 0, Start_track
9, 0, MIDI_port, 0
9, 0, Title_t, ""
9, 0, End_track
10, 0, Start_track
10, 0, MIDI_port, 0
10, 0, Title_t, ""
10, 0, End_track
11, 0, Start_track
11, 0, MIDI_port, 0
11, 0, Title_t, ""
11, 0, End_track
12, 0, Start_track
12, 0, MIDI_port, 0
12, 0, Title_t, ""
12, 0, End_track
13, 0, Start_track
13, 0, MIDI_port, 0
13, 0, Title_t, ""
13, 0, End_track
14, 0, Start_track
14, 0, MIDI_port, 0
14, 0, Title_t, ""
14, 0, End_track
15, 0, Start_track
15, 0, MIDI_port, 0
15, 0, Title_t, ""
15, 0, End_track
16, 0, Start_track
16, 0, MIDI_port, 0
16, 0, Title_t, ""
16, 0, End_track
17, 0, Start_track
17, 0, MIDI_port, 0
17, 0, Title_t, ""
17, 0, End_track
0, 0, End_of_file
