0, 0, Header, 1, 8, 1024
1, 0, Start_track
1, 0, Time_signature, 3, 2, 24, 8
1, 0, Key_signature, 1, "major"
1, 0, Tempo, 468750
1, 52225, End_track
2, 0, Start_track
2, 0, Title_t, "Instrument 1"
2, 2048, Note_on_c, 0, 67, 96
2, 3072, Note_off_c, 0, 67, 0
2, 3072, Note_on_c, 0, 67, 96
2, 5120, Note_off_c, 0, 67, 0
2, 5120, Note_on_c, 0, 66, 96
2, 6144, Note_off_c, 0, 66, 0
2, 6144, Note_on_c, 0, 64, 96
2, 7168, Note_off_c, 0, 64, 0
2, 7168, Note_on_c, 0, 66, 96
2, 8192, Note_off_c, 0, 66, 0
2, 8192, Note_on_c, 0, 67, 96
2, 9216, Note_off_c, 0, 67, 0
2, 9216, Note_on_c, 0, 69, 96
2, 12288, Note_off_c, 0, 69, 0
2, 12288, Note_on_c, 0, 67, 96
2, 14336, Note_off_c, 0, 67, 0
2, 14336, Note_on_c, 0, 67, 96
2, 15360, Note_off_c, 0, 67, 0
2, 15360, Note_on_c, 0, 67, 96
2, 17408, Note_off_c, 0, 67, 0
2, 17408, Note_on_c, 0, 69, 96
2, 18432, Note_off_c, 0, 69, 0
2, 18432, Note_on_c, 0, 66, 96
2, 19456, Note_off_c, 0, 66, 0
2, 19456, Note_on_c, 0, 67, 96
2, 20480, Note_off_c, 0, 67, 0
2, 20480, Note_on_c, 0, 69, 96
2, 21504, Note_off_c, 0, 69, 0
2, 21504, Note_on_c, 0, 67, 96
2, 24576, Note_off_c, 0, 67, 0
2, 24576, Note_on_c, 0, 66, 96
2, 26624, Note_off_c, 0, 66, 0
2, 26624, Note_on_c, 0, 66, 96
2, 27648, Note_off_c, 0, 66, 0
2, 27648, Note_on_c, 0, 67, 96
2, 29696, Note_off_c, 0, 67, 0
2, 29696, Note_on_c, 0, 67, 96
2, 30720, Note_off_c, 0, 67, 0
2, 30720, Note_on_c, 0, 69, 96
2, 32768, Note_off_c, 0, 69, 0
2, 32768, Note_on_c, 0, 71, 96
2, 33792, Note_off_c, 0, 71, 0
2, 33792, Note_on_c, 0, 69, 96
2, 36864, Note_off_c, 0, 69, 0
2, 36864, Note_on_c, 0, 69, 96
2, 38912, Note_off_c, 0, 69, 0
2, 38912, Note_on_c, 0, 71, 96
2, 39936, Note_off_c, 0, 71, 0
2, 39936, Note_on_c, 0, 72, 96
2, 41984, Note_off_c, 0, 72, 0
2, 41984, Note_on_c, 0, 71, 96
2, 43008, Note_off_c, 0, 71, 0
2, 43008, Note_on_c, 0, 69, 96
2, 45056, Note_off_c, 0, 69, 0
2, 45056, Note_on_c, 0, 71, 96
2, 46080, Note_off_c, 0, 71, 0
2, 46080, Note_on_c, 0, 69, 96
2, 49152, Note_off_c, 0, 69, 0
2, 49152, Note_on_c, 0, 67, 96
2, 52224, Note_off_c, 0, 67, 0
2, 52225, End_track
3, 0, Start_track
3, 0, Title_t, "Instrument 2"
3, 2048, Note_on_c, 1, 62, 96
3, 3072, Note_off_c, 1, 62, 0
3, 3072, Note_on_c, 1, 67, 96
3, 4096, Note_off_c, 1, 67, 0
3, 4096, Note_on_c, 1, 69, 96
3, 5120, Note_off_c, 1, 69, 0
3, 5120, Note_on_c, 1, 71, 96
3, 6144, Note_off_c, 1, 71, 0
3, 6144, Note_on_c, 1, 64, 96
3, 7168, Note_off_c, 1, 64, 0
3, 7168, Note_on_c, 1, 60, 96
3, 8192, Note_off_c, 1, 60, 0
3, 8192, Note_on_c, 1, 67, 96
3, 9216, Note_off_c, 1, 67, 0
3, 9216, Note_on_c, 1, 67, 96
3, 10240, Note_off_c, 1, 67, 0
3, 10240, Note_on_c, 1, 66, 96
3, 10752, Note_off_c, 1, 66, 0
3, 10752, Note_on_c, 1, 64, 96
3, 11264, Note_off_c, 1, 64, 0
3, 11264, Note_on_c, 1, 66, 96
3, 12288, Note_off_c, 1, 66, 0
3, 12288, Note_on_c, 1, 62, 96
3, 14336, Note_off_c, 1, 62, 0
3, 14336, Note_on_c, 1, 62, 96
3, 15360, Note_off_c, 1, 62, 0
3, 15360, Note_on_c, 1, 67, 96
3, 16384, Note_off_c, 1, 67, 0
3, 16384, Note_on_c, 1, 66, 96
3, 17408, Note_off_c, 1, 66, 0
3, 17408, Note_on_c, 1, 64, 96
3, 18432, Note_off_c, 1, 64, 0
3, 18432, Note_on_c, 1, 66, 96
3, 19456, Note_off_c, 1, 66, 0
3, 19456, Note_on_c, 1, 64, 96
3, 20480, Note_off_c, 1, 64, 0
3, 20480, Note_on_c, 1, 62, 96
3, 21504, Note_off_c, 1, 62, 0
3, 21504, Note_on_c, 1, 64, 96
3, 24576, Note_off_c, 1, 64, 0
3, 24576, Note_on_c, 1, 57, 96
3, 26624, Note_off_c, 1, 57, 0
3, 26624, Note_on_c, 1, 62, 96
3, 27648, Note_off_c, 1, 62, 0
3, 27648, Note_on_c, 1, 64, 96
3, 29696, Note_off_c, 1, 64, 0
3, 29696, Note_on_c, 1, 64, 96
3, 30720, Note_off_c, 1, 64, 0
3, 30720, Note_on_c, 1, 57, 96
3, 31744, Note_off_c, 1, 57, 0
3, 31744, Note_on_c, 1, 62, 96
3, 33792, Note_off_c, 1, 62, 0
3, 33792, Note_on_c, 1, 62, 96
3, 35840, Note_off_c, 1, 62, 0
3, 35840, Note_on_c, 1, 64, 96
3, 36864, Note_off_c, 1, 64, 0
3, 36864, Note_on_c, 1, 66, 96
3, 38912, Note_off_c, 1, 66, 0
3, 38912, Note_on_c, 1, 66, 96
3, 39936, Note_off_c, 1, 66, 0
3, 39936, Note_on_c, 1, 67, 96
3, 40960, Note_off_c, 1, 67, 0
3, 40960, Note_on_c, 1, 62, 96
3, 43008, Note_off_c, 1, 62, 0
3, 43008, Note_on_c, 1, 62, 96
3, 45056, Note_off_c, 1, 62, 0
3, 45056, Note_on_c, 1, 62, 96
3, 46080, Note_off_c, 1, 62, 0
3, 46080, Note_on_c, 1, 62, 96
3, 49152, Note_off_c, 1, 62, 0
3, 49152, Note_on_c, 1, 62, 96
3, 52224, Note_off_c, 1, 62, 0
3, 52225, End_track
4, 0, Start_track
4, 0, Title_t, "Instrument 3"
4, 2048, Note_on_c, 2, 59, 96
4, 3072, Note_off_c, 2, 59, 0
4, 3072, Note_on_c, 2, 59, 96
4, 4096, Note_off_c, 2, 59, 0
4, 4096, Note_on_c, 2, 60, 96
4, 5120, Note_off_c, 2, 60, 0
4, 5120, Note_on_c, 2, 62, 96
4, 6144, Note_off_c, 2, 62, 0
4, 6144, Note_on_c, 2, 55, 96
4, 7168, Note_off_c, 2, 55, 0
4, 7168, Note_on_c, 2, 60, 96
4, 8192, Note_off_c, 2, 60, 0
4, 8192, Note_on_c, 2, 62, 96
4, 9216, Note_off_c, 2, 62, 0
4, 9216, Note_on_c, 2, 62, 96
4, 11264, Note_off_c, 2, 62, 0
4, 11264, Note_on_c, 2, 57, 96
4, 12288, Note_off_c, 2, 57, 0
4, 12288, Note_on_c, 2, 59, 96
4, 14336, Note_off_c, 2, 59, 0
4, 14336, Note_on_c, 2, 59, 96
4, 15360, Note_off_c, 2, 59, 0
4, 15360, Note_on_c, 2, 59, 96
4, 17408, Note_off_c, 2, 59, 0
4, 17408, Note_on_c, 2, 64, 96
4, 18432, Note_off_c, 2, 64, 0
4, 18432, Note_on_c, 2, 57, 96
4, 20480, Note_off_c, 2, 57, 0
4, 20480, Note_on_c, 2, 62, 96
4, 21504, Note_off_c, 2, 62, 0
4, 21504, Note_on_c, 2, 59, 96
4, 22528, Note_off_c, 2, 59, 0
4, 22528, Note_on_c, 2, 52, 96
4, 23552, Note_off_c, 2, 52, 0
4, 23552, Note_on_c, 2, 55, 96
4, 24576, Note_off_c, 2, 55, 0
4, 24576, Note_on_c, 2, 62, 96
4, 26624, Note_off_c, 2, 62, 0
4, 26624, Note_on_c, 2, 62, 96
4, 27648, Note_off_c, 2, 62, 0
4, 27648, Note_on_c, 2, 62, 96
4, 29696, Note_off_c, 2, 62, 0
4, 29696, Note_on_c, 2, 60, 96
4, 30720, Note_off_c, 2, 60, 0
4, 30720, Note_on_c, 2, 60, 96
4, 32768, Note_off_c, 2, 60, 0
4, 32768, Note_on_c, 2, 59, 96
4, 33792, Note_off_c, 2, 59, 0
4, 33792, Note_on_c, 2, 54, 96
4, 35840, Note_off_c, 2, 54, 0
4, 35840, Note_on_c, 2, 55, 96
4, 36864, Note_off_c, 2, 55, 0
4, 36864, Note_on_c, 2, 57, 96
4, 38912, Note_off_c, 2, 57, 0
4, 38912, Note_on_c, 2, 62, 96
4, 39936, Note_off_c, 2, 62, 0
4, 39936, Note_on_c, 2, 60, 96
4, 40960, Note_off_c, 2, 60, 0
4, 40960, Note_on_c, 2, 57, 96
4, 41984, Note_off_c, 2, 57, 0
4, 41984, Note_on_c, 2, 55, 96
4, 43008, Note_off_c, 2, 55, 0
4, 43008, Note_on_c, 2, 57, 96
4, 45056, Note_off_c, 2, 57, 0
4, 45056, Note_on_c, 2, 55, 96
4, 46080, Note_off_c, 2, 55, 0
4, 46080, Note_on_c, 2, 57, 96
4, 46592, Note_off_c, 2, 57, 0
4, 46592, Note_on_c, 2, 59, 96
4, 47104, Note_off_c, 2, 59, 0
4, 47104, Note_on_c, 2, 60, 96
4, 49152, Note_off_c, 2, 60, 0
4, 49152, Note_on_c, 2, 59, 96
4, 52224, Note_off_c, 2, 59, 0
4, 52225, End_track
5, 0, Start_track
5, 0, Title_t, "Instrument 4"
5, 2048, Note_on_c, 3, 55, 96
5, 3072, Note_off_c, 3, 55, 0
5, 3072, Note_on_c, 3, 52, 96
5, 5120, Note_off_c, 3, 52, 0
5, 5120, Note_on_c, 3, 47, 96
5, 6144, Note_off_c, 3, 47, 0
5, 6144, Note_on_c, 3, 48, 96
5, 7168, Note_off_c, 3, 48, 0
5, 7168, Note_on_c, 3, 45, 96
5, 8192, Note_off_c, 3, 45, 0
5, 8192, Note_on_c, 3, 43, 96
5, 9216, Note_off_c, 3, 43, 0
5, 9216, Note_on_c, 3, 50, 96
5, 12288, Note_off_c, 3, 50, 0
5, 12288, Note_on_c, 3, 43, 96
5, 14336, Note_off_c, 3, 43, 0
5, 14336, Note_on_c, 3, 55, 96
5, 15360, Note_off_c, 3, 55, 0
5, 15360, Note_on_c, 3, 52, 96
5, 16384, Note_off_c, 3, 52, 0
5, 16384, Note_on_c, 3, 50, 96
5, 17408, Note_off_c, 3, 50, 0
5, 17408, Note_on_c, 3, 49, 96
5, 18432, Note_off_c, 3, 49, 0
5, 18432, Note_on_c, 3, 50, 96
5, 20480, Note_off_c, 3, 50, 0
5, 20480, Note_on_c, 3, 47, 96
5, 21504, Note_off_c, 3, 47, 0
5, 21504, Note_on_c, 3, 52, 96
5, 24576, Note_off_c, 3, 52, 0
5, 24576, Note_on_c, 3, 50, 96
5, 26624, Note_off_c, 3, 50, 0
5, 26624, Note_on_c, 3, 47, 96
5, 27648, Note_off_c, 3, 47, 0
5, 27648, Note_on_c, 3, 52, 96
5, 28672, Note_off_c, 3, 52, 0
5, 28672, Note_on_c, 3, 54, 96
5, 29696, Note_off_c, 3, 54, 0
5, 29696, Note_on_c, 3, 55, 96
5, 30720, Note_off_c, 3, 55, 0
5, 30720, Note_on_c, 3, 54, 96
5, 31744, Note_off_c, 3, 54, 0
5, 31744, Note_on_c, 3, 50, 96
5, 32768, Note_off_c, 3, 50, 0
5, 32768, Note_on_c, 3, 55, 96
5, 33792, Note_off_c, 3, 55, 0
5, 33792, Note_on_c, 3, 50, 96
5, 36864, Note_off_c, 3, 50, 0
5, 36864, Note_on_c, 3, 50, 96
5, 38912, Note_off_c, 3, 50, 0
5, 38912, Note_on_c, 3, 47, 96
5, 39936, Note_off_c, 3, 47, 0
5, 39936, Note_on_c, 3, 52, 96
5, 40960, Note_off_c, 3, 52, 0
5, 40960, Note_on_c, 3, 54, 96
5, 41984, Note_off_c, 3, 54, 0
5, 41984, Note_on_c, 3, 55, 96
5, 43008, Note_off_c, 3, 55, 0
5, 43008, Note_on_c, 3, 54, 96
5, 44032, Note_off_c, 3, 54, 0
5, 44032, Note_on_c, 3, 50, 96
5, 45056, Note_off_c, 3, 50, 0
5, 45056, Note_on_c, 3, 55, 96
5, 46080, Note_off_c, 3, 55, 0
5, 46080, Note_on_c, 3, 50, 96
5, 49152, Note_off_c, 3, 50, 0
5, 49152, Note_on_c, 3, 43, 96
5, 52224, Note_off_c, 3, 43, 0
5, 52225, End_track
6, 0, Start_track
6, 0, Title_t, "Instrument 5"
6, 2048, Note_on_c, 4, 74, 96
6, 3072, Note_off_c, 4, 74, 0
6, 3072, Note_on_c, 4, 74, 96
6, 5120, Note_off_c, 4, 74, 0
6, 5120, Note_on_c, 4, 74, 96
6, 6144, Note_off_c, 4, 74, 0
6, 6144, Note_on_c, 4, 72, 96
6, 8192, Note_off_c, 4, 72, 0
6, 8192, Note_on_c, 4, 71, 96
6, 9216, Note_off_c, 4, 71, 0
6, 9216, Note_on_c, 4, 69, 96
6, 10240, Note_off_c, 4, 69, 0
6, 10240, Note_on_c, 4, 71, 96
6, 11264, Note_off_c, 4, 71, 0
6, 11264, Note_on_c, 4, 72, 96
6, 12288, Note_off_c, 4, 72, 0
6, 12288, Note_on_c, 4, 71, 96
6, 14336, Note_off_c, 4, 71, 0
6, 14336, Note_on_c, 4, 74, 96
6, 15360, Note_off_c, 4, 74, 0
6, 15360, Note_on_c, 4, 76, 96
6, 17408, Note_off_c, 4, 76, 0
6, 17408, Note_on_c, 4, 76, 96
6, 18432, Note_off_c, 4, 76, 0
6, 18432, Note_on_c, 4, 76, 96
6, 19456, Note_off_c, 4, 76, 0
6, 19456, Note_on_c, 4, 74, 96
6, 19968, Note_off_c, 4, 74, 0
6, 19968, Note_on_c, 4, 73, 96
6, 20480, Note_off_c, 4, 73, 0
6, 20480, Note_on_c, 4, 74, 96
6, 22528, Note_off_c, 4, 74, 0
6, 22528, Note_on_c, 4, 73, 96
6, 23040, Note_off_c, 4, 73, 0
6, 23040, Note_on_c, 4, 71, 96
6, 23552, Note_off_c, 4, 71, 0
6, 23552, Note_on_c, 4, 73, 96
6, 24576, Note_off_c, 4, 73, 0
6, 24576, Note_on_c, 4, 74, 96
6, 26624, Note_off_c, 4, 74, 0
6, 26624, Note_on_c, 4, 74, 96
6, 27648, Note_off_c, 4, 74, 0
6, 27648, Note_on_c, 4, 71, 96
6, 29696, Note_off_c, 4, 71, 0
6, 29696, Note_on_c, 4, 76, 96
6, 30720, Note_off_c, 4, 76, 0
6, 30720, Note_on_c, 4, 74, 96
6, 34816, Note_off_c, 4, 74, 0
6, 34816, Note_on_c, 4, 78, 96
6, 35840, Note_off_c, 4, 78, 0
6, 35840, Note_on_c, 4, 76, 96
6, 36864, Note_off_c, 4, 76, 0
6, 36864, Note_on_c, 4, 74, 96
6, 38912, Note_off_c, 4, 74, 0
6, 38912, Note_on_c, 4, 78, 96
6, 39936, Note_off_c, 4, 78, 0
6, 39936, Note_on_c, 4, 76, 96
6, 40960, Note_off_c, 4, 76, 0
6, 40960, Note_on_c, 4, 74, 96
6, 44032, Note_off_c, 4, 74, 0
6, 44032, Note_on_c, 4, 76, 96
6, 44544, Note_off_c, 4, 76, 0
6, 44544, Note_on_c, 4, 78, 96
6, 45056, Note_off_c, 4, 78, 0
6, 45056, Note_on_c, 4, 79, 96
6, 47104, Note_off_c, 4, 79, 0
6, 47104, Note_on_c, 4, 78, 96
6, 47616, Note_off_c, 4, 78, 0
6, 47616, Note_on_c, 4, 76, 96
6, 48128, Note_off_c, 4, 76, 0
6, 48128, Note_on_c, 4, 78, 96
6, 49152, Note_off_c, 4, 78, 0
6, 49152, Note_on_c, 4, 79, 96
6, 52224, Note_off_c, 4, 79, 0
6, 52225, End_track
7, 0, Start_track
7, 0, Title_t, "Instrument 6"
7, 2048, Note_on_c, 5, 71, 96
7, 3072, Note_off_c, 5, 71, 0
7, 3072, Note_on_c, 5, 71, 96
7, 5120, Note_off_c, 5, 71, 0
7, 5120, Note_on_c, 5, 71, 96
7, 6144, Note_off_c, 5, 71, 0
7, 6144, Note_on_c, 5, 67, 96
7, 7168, Note_off_c, 5, 67, 0
7, 7168, Note_on_c, 5, 69, 96
7, 8192, Note_off_c, 5, 69, 0
7, 8192, Note_on_c, 5, 62, 96
7, 9216, Note_off_c, 5, 62, 0
7, 9216, Note_on_c, 5, 62, 96
7, 12288, Note_off_c, 5, 62, 0
7, 12288, Note_on_c, 5, 62, 96
7, 14336, Note_off_c, 5, 62, 0
7, 14336, Note_on_c, 5, 71, 96
7, 15360, Note_off_c, 5, 71, 0
7, 15360, Note_on_c, 5, 71, 96
7, 17408, Note_off_c, 5, 71, 0
7, 17408, Note_on_c, 5, 69, 96
7, 18432, Note_off_c, 5, 69, 0
7, 18432, Note_on_c, 5, 69, 96
7, 20480, Note_off_c, 5, 69, 0
7, 20480, Note_on_c, 5, 71, 96
7, 22528, Note_off_c, 5, 71, 0
7, 22528, Note_on_c, 5, 69, 96
7, 23552, Note_off_c, 5, 69, 0
7, 23552, Note_on_c, 5, 67, 96
7, 24576, Note_off_c, 5, 67, 0
7, 24576, Note_on_c, 5, 69, 96
7, 26624, Note_off_c, 5, 69, 0
7, 26624, Note_on_c, 5, 71, 96
7, 27648, Note_off_c, 5, 71, 0
7, 27648, Note_on_c, 5, 67, 96
7, 29696, Note_off_c, 5, 67, 0
7, 29696, Note_on_c, 5, 72, 96
7, 30720, Note_off_c, 5, 72, 0
7, 30720, Note_on_c, 5, 69, 96
7, 32768, Note_off_c, 5, 69, 0
7, 32768, Note_on_c, 5, 67, 96
7, 33792, Note_off_c, 5, 67, 0
7, 33792, Note_on_c, 5, 69, 96
7, 34816, Note_off_c, 5, 69, 0
7, 34816, Note_on_c, 5, 74, 96
7, 35840, Note_off_c, 5, 74, 0
7, 35840, Note_on_c, 5, 73, 96
7, 36864, Note_off_c, 5, 73, 0
7, 36864, Note_on_c, 5, 74, 96
7, 38912, Note_off_c, 5, 74, 0
7, 38912, Note_on_c, 5, 71, 96
7, 39936, Note_off_c, 5, 71, 0
7, 39936, Note_on_c, 5, 67, 96
7, 40960, Note_off_c, 5, 67, 0
7, 40960, Note_on_c, 5, 69, 96
7, 41984, Note_off_c, 5, 69, 0
7, 41984, Note_on_c, 5, 71, 96
7, 43008, Note_off_c, 5, 71, 0
7, 43008, Note_on_c, 5, 72, 96
7, 45056, Note_off_c, 5, 72, 0
7, 45056, Note_on_c, 5, 71, 96
7, 45568, Note_off_c, 5, 71, 0
7, 45568, Note_on_c, 5, 72, 96
7, 46080, Note_off_c, 5, 72, 0
7, 46080, Note_on_c, 5, 74, 96
7, 47104, Note_off_c, 5, 74, 0
7, 47104, Note_on_c, 5, 69, 96
7, 47616, Note_off_c, 5, 69, 0
7, 47616, Note_on_c, 5, 67, 96
7, 48128, Note_off_c, 5, 67, 0
7, 48128, Note_on_c, 5, 69, 96
7, 49152, Note_off_c, 5, 69, 0
7, 49152, Note_on_c, 5, 71, 96
7, 52224, Note_off_c, 5, 71, 0
7, 52225, End_track
8, 0, Start_track
8, 0, Title_t, "Instrument 7"
8, 8192, Note_on_c, 6, 43, 96
8, 9216, Note_off_c, 6, 43, 0
8, 9216, Note_on_c, 6, 50, 96
8, 10240, Note_off_c, 6, 50, 0
8, 10240, Note_on_c, 6, 50, 96
8, 11264, Note_off_c, 6, 50, 0
8, 11264, Note_on_c, 6, 50, 96
8, 12288, Note_off_c, 6, 50, 0
8, 12288, Note_on_c, 6, 43, 96
8, 14336, Note_off_c, 6, 43, 0
8, 20480, Note_on_c, 6, 50, 96
8, 21504, Note_off_c, 6, 50, 0
8, 21504, Note_on_c, 6, 43, 96
8, 22528, Note_off_c, 6, 43, 0
8, 22528, Note_on_c, 6, 43, 96
8, 23552, Note_off_c, 6, 43, 0
8, 23552, Note_on_c, 6, 43, 96
8, 24576, Note_off_c, 6, 43, 0
8, 24576, Note_on_c, 6, 50, 96
8, 26624, Note_off_c, 6, 50, 0
8, 32768, Note_on_c, 6, 43, 96
8, 33792, Note_off_c, 6, 43, 0
8, 33792, Note_on_c, 6, 50, 96
8, 34816, Note_off_c, 6, 50, 0
8, 34816, Note_on_c, 6, 50, 96
8, 35840, Note_off_c, 6, 50, 0
8, 35840, Note_on_c, 6, 50, 96
8, 36864, Note_off_c, 6, 50, 0
8, 36864, Note_on_c, 6, 50, 96
8, 38912, Note_off_c, 6, 50, 0
8, 45056, Note_on_c, 6, 43, 96
8, 46080, Note_off_c, 6, 43, 0
8, 46080, Note_on_c, 6, 50, 96
8, 47104, Note_off_c, 6, 50, 0
8, 47104, Note_on_c, 6, 50, 96
8, 48128, Note_off_c, 6, 50, 0
8, 48128, Note_on_c, 6, 50, 96
8, 49152, Note_off_c, 6, 50, 0
8, 49152, Note_on_c, 6, 43, 96
8, 52224, Note_off_c, 6, 43, 0
8, 52225, End_track
0, 0, End_of_file
