0, 0, Header, 1, 7, 1024
1, 0, Start_track
1, 0, Time_signature, 3, 1, 48, 8
1, 0, Key_signature, 3, "major"
1, 0, Tempo, 652173
1, 934912, End_track
2, 0, Start_track
2, 0, Title_t, "Instrument 1"
2, 59392, Note_on_c, 0, 69, 96
2, 61440, Note_off_c, 0, 69, 0
2, 61440, Note_on_c, 0, 73, 96
2, 65536, Note_off_c, 0, 73, 0
2, 65536, Note_on_c, 0, 74, 96
2, 67072, Note_off_c, 0, 74, 0
2, 67072, Note_on_c, 0, 73, 96
2, 67328, Note_off_c, 0, 73, 0
2, 67328, Note_on_c, 0, 74, 96
2, 67584, Note_off_c, 0, 74, 0
2, 67584, Note_on_c, 0, 76, 96
2, 71680, Note_off_c, 0, 76, 0
2, 71680, Note_on_c, 0, 76, 96
2, 73728, Note_off_c, 0, 76, 0
2, 73728, Note_on_c, 0, 78, 96
2, 77312, Note_off_c, 0, 78, 0
2, 77312, Note_on_c, 0, 76, 96
2, 77824, Note_off_c, 0, 76, 0
2, 77824, Note_on_c, 0, 78, 96
2, 79360, Note_off_c, 0, 78, 0
2, 79360, Note_on_c, 0, 79, 96
2, 79872, Note_off_c, 0, 79, 0
2, 79872, Note_on_c, 0, 76, 96
2, 83968, Note_off_c, 0, 76, 0
2, 83968, Note_on_c, 0, 76, 96
2, 86016, Note_off_c, 0, 76, 0
2, 86016, Note_on_c, 0, 69, 96
2, 90112, Note_off_c, 0, 69, 0
2, 90112, Note_on_c, 0, 71, 96
2, 92160, Note_off_c, 0, 71, 0
2, 92160, Note_on_c, 0, 73, 96
2, 96256, Note_off_c, 0, 73, 0
2, 96256, Note_on_c, 0, 74, 96
2, 98816, Note_off_c, 0, 74, 0
2, 98816, Note_on_c, 0, 74, 96
2, 99328, Note_off_c, 0, 74, 0
2, 99328, Note_on_c, 0, 73, 96
2, 99840, Note_off_c, 0, 73, 0
2, 99840, Note_on_c, 0, 71, 96
2, 100352, Note_off_c, 0, 71, 0
2, 100352, Note_on_c, 0, 76, 96
2, 101888, Note_off_c, 0, 76, 0
2, 101888, Note_on_c, 0, 78, 96
2, 102400, Note_off_c, 0, 78, 0
2, 102400, Note_on_c, 0, 76, 96
2, 102912, Note_off_c, 0, 76, 0
2, 102912, Note_on_c, 0, 73, 96
2, 103424, Note_off_c, 0, 73, 0
2, 103424, Note_on_c, 0, 74, 96
2, 103936, Note_off_c, 0, 74, 0
2, 103936, Note_on_c, 0, 71, 96
2, 104448, Note_off_c, 0, 71, 0
2, 104448, Note_on_c, 0, 69, 96
2, 116736, Note_off_c, 0, 69, 0
2, 176128, Note_on_c, 0, 69, 96
2, 178176, Note_off_c, 0, 69, 0
2, 178176, Note_on_c, 0, 73, 96
2, 182272, Note_off_c, 0, 73, 0
2, 182272, Note_on_c, 0, 74, 96
2, 183808, Note_off_c, 0, 74, 0
2, 183808, Note_on_c, 0, 73, 96
2, 184064, Note_off_c, 0, 73, 0
2, 184064, Note_on_c, 0, 74, 96
2, 184320, Note_off_c, 0, 74, 0
2, 184320, Note_on_c, 0, 76, 96
2, 188416, Note_off_c, 0, 76, 0
2, 188416, Note_on_c, 0, 76, 96
2, 190464, Note_off_c, 0, 76, 0
2, 190464, Note_on_c, 0, 78, 96
2, 194048, Note_off_c, 0, 78, 0
2, 194048, Note_on_c, 0, 76, 96
2, 194560, Note_off_c, 0, 76, 0
2, 194560, Note_on_c, 0, 78, 96
2, 196096, Note_off_c, 0, 78, 0
2, 196096, Note_on_c, 0, 79, 96
2, 196608, Note_off_c, 0, 79, 0
2, 196608, Note_on_c, 0, 76, 96
2, 200704, Note_off_c, 0, 76, 0
2, 200704, Note_on_c, 0, 76, 96
2, 202752, Note_off_c, 0, 76, 0
2, 202752, Note_on_c, 0, 69, 96
2, 206848, Note_off_c, 0, 69, 0
2, 206848, Note_on_c, 0, 71, 96
2, 208896, Note_off_c, 0, 71, 0
2, 208896, Note_on_c, 0, 73, 96
2, 212992, Note_off_c, 0, 73, 0
2, 212992, Note_on_c, 0, 74, 96
2, 215552, Note_off_c, 0, 74, 0
2, 215552, Note_on_c, 0, 74, 96
2, 216064, Note_off_c, 0, 74, 0
2, 216064, Note_on_c, 0, 73, 96
2, 216576, Note_off_c, 0, 73, 0
2, 216576, Note_on_c, 0, 71, 96
2, 217088, Note_off_c, 0, 71, 0
2, 217088, Note_on_c, 0, 76, 96
2, 218624, Note_off_c, 0, 76, 0
2, 218624, Note_on_c, 0, 78, 96
2, 219136, Note_off_c, 0, 78, 0
2, 219136, Note_on_c, 0, 76, 96
2, 219648, Note_off_c, 0, 76, 0
2, 219648, Note_on_c, 0, 73, 96
2, 220160, Note_off_c, 0, 73, 0
2, 220160, Note_on_c, 0, 74, 96
2, 220672, Note_off_c, 0, 74, 0
2, 220672, Note_on_c, 0, 71, 96
2, 221184, Note_off_c, 0, 71, 0
2, 221184, Note_on_c, 0, 69, 96
2, 233472, Note_off_c, 0, 69, 0
2, 233984, Note_on_c, 0, 64, 96
2, 234496, Note_off_c, 0, 64, 0
2, 234496, Note_on_c, 0, 66, 96
2, 235008, Note_off_c, 0, 66, 0
2, 235008, Note_on_c, 0, 68, 96
2, 235520, Note_off_c, 0, 68, 0
2, 235520, Note_on_c, 0, 69, 96
2, 236032, Note_off_c, 0, 69, 0
2, 236032, Note_on_c, 0, 68, 96
2, 236544, Note_off_c, 0, 68, 0
2, 236544, Note_on_c, 0, 69, 96
2, 237056, Note_off_c, 0, 69, 0
2, 237056, Note_on_c, 0, 71, 96
2, 237568, Note_off_c, 0, 71, 0
2, 237568, Note_on_c, 0, 73, 96
2, 238080, Note_off_c, 0, 73, 0
2, 238080, Note_on_c, 0, 71, 96
2, 238592, Note_off_c, 0, 71, 0
2, 238592, Note_on_c, 0, 74, 96
2, 239104, Note_off_c, 0, 74, 0
2, 239104, Note_on_c, 0, 73, 96
2, 239616, Note_off_c, 0, 73, 0
2, 239616, Note_on_c, 0, 73, 96
2, 243712, Note_off_c, 0, 73, 0
2, 243712, Note_on_c, 0, 73, 96
2, 245760, Note_off_c, 0, 73, 0
2, 245760, Note_on_c, 0, 71, 96
2, 249856, Note_off_c, 0, 71, 0
2, 249856, Note_on_c, 0, 68, 96
2, 251904, Note_off_c, 0, 68, 0
2, 251904, Note_on_c, 0, 69, 96
2, 254464, Note_off_c, 0, 69, 0
2, 254464, Note_on_c, 0, 69, 96
2, 254976, Note_off_c, 0, 69, 0
2, 254976, Note_on_c, 0, 68, 96
2, 255488, Note_off_c, 0, 68, 0
2, 255488, Note_on_c, 0, 66, 96
2, 256000, Note_off_c, 0, 66, 0
2, 256000, Note_on_c, 0, 66, 96
2, 257536, Note_off_c, 0, 66, 0
2, 257536, Note_on_c, 0, 64, 96
2, 258048, Note_off_c, 0, 64, 0
2, 258048, Note_on_c, 0, 64, 96
2, 262144, Note_off_c, 0, 64, 0
2, 262144, Note_on_c, 0, 76, 96
2, 264192, Note_off_c, 0, 76, 0
2, 264192, Note_on_c, 0, 76, 96
2, 268288, Note_off_c, 0, 76, 0
2, 268288, Note_on_c, 0, 74, 96
2, 270336, Note_off_c, 0, 74, 0
2, 270336, Note_on_c, 0, 73, 96
2, 272896, Note_off_c, 0, 73, 0
2, 272896, Note_on_c, 0, 73, 96
2, 273408, Note_off_c, 0, 73, 0
2, 273408, Note_on_c, 0, 74, 96
2, 273920, Note_off_c, 0, 74, 0
2, 273920, Note_on_c, 0, 76, 96
2, 274432, Note_off_c, 0, 76, 0
2, 274432, Note_on_c, 0, 78, 96
2, 276480, Note_off_c, 0, 78, 0
2, 276480, Note_on_c, 0, 76, 96
2, 279040, Note_off_c, 0, 76, 0
2, 279040, Note_on_c, 0, 79, 96
2, 279552, Note_off_c, 0, 79, 0
2, 279552, Note_on_c, 0, 78, 96
2, 280064, Note_off_c, 0, 78, 0
2, 280064, Note_on_c, 0, 76, 96
2, 280576, Note_off_c, 0, 76, 0
2, 280576, Note_on_c, 0, 74, 96
2, 282624, Note_off_c, 0, 74, 0
2, 282624, Note_on_c, 0, 73, 96
2, 286720, Note_off_c, 0, 73, 0
2, 286720, Note_on_c, 0, 78, 96
2, 288768, Note_off_c, 0, 78, 0
2, 288768, Note_on_c, 0, 76, 96
2, 291840, Note_off_c, 0, 76, 0
2, 291840, Note_on_c, 0, 74, 96
2, 292864, Note_off_c, 0, 74, 0
2, 292864, Note_on_c, 0, 73, 96
2, 294912, Note_off_c, 0, 73, 0
2, 294912, Note_on_c, 0, 71, 96
2, 297984, Note_off_c, 0, 71, 0
2, 297984, Note_on_c, 0, 73, 96
2, 299008, Note_off_c, 0, 73, 0
2, 299008, Note_on_c, 0, 74, 96
2, 300544, Note_off_c, 0, 74, 0
2, 300544, Note_on_c, 0, 76, 96
2, 300800, Note_off_c, 0, 76, 0
2, 300800, Note_on_c, 0, 78, 96
2, 301056, Note_off_c, 0, 78, 0
2, 301056, Note_on_c, 0, 76, 96
2, 304128, Note_off_c, 0, 76, 0
2, 304128, Note_on_c, 0, 74, 96
2, 305152, Note_off_c, 0, 74, 0
2, 305152, Note_on_c, 0, 73, 96
2, 307200, Note_off_c, 0, 73, 0
2, 307200, Note_on_c, 0, 74, 96
2, 307712, Note_off_c, 0, 74, 0
2, 307712, Note_on_c, 0, 76, 96
2, 307968, Note_off_c, 0, 76, 0
2, 307968, Note_on_c, 0, 78, 96
2, 308224, Note_off_c, 0, 78, 0
2, 308224, Note_on_c, 0, 76, 96
2, 308480, Note_off_c, 0, 76, 0
2, 308480, Note_on_c, 0, 74, 96
2, 308736, Note_off_c, 0, 74, 0
2, 308736, Note_on_c, 0, 73, 96
2, 309248, Note_off_c, 0, 73, 0
2, 309248, Note_on_c, 0, 71, 96
2, 313344, Note_off_c, 0, 71, 0
2, 313344, Note_on_c, 0, 69, 96
2, 330240, Note_off_c, 0, 69, 0
2, 330240, Note_on_c, 0, 76, 96
2, 330752, Note_off_c, 0, 76, 0
2, 330752, Note_on_c, 0, 68, 96
2, 331264, Note_off_c, 0, 68, 0
2, 331264, Note_on_c, 0, 74, 96
2, 331776, Note_off_c, 0, 74, 0
2, 331776, Note_on_c, 0, 73, 96
2, 335872, Note_off_c, 0, 73, 0
2, 338432, Note_on_c, 0, 64, 96
2, 338944, Note_off_c, 0, 64, 0
2, 338944, Note_on_c, 0, 69, 96
2, 339456, Note_off_c, 0, 69, 0
2, 339456, Note_on_c, 0, 68, 96
2, 339968, Note_off_c, 0, 68, 0
2, 339968, Note_on_c, 0, 69, 96
2, 342528, Note_off_c, 0, 69, 0
2, 342528, Note_on_c, 0, 66, 96
2, 343040, Note_off_c, 0, 66, 0
2, 343040, Note_on_c, 0, 71, 96
2, 343552, Note_off_c, 0, 71, 0
2, 343552, Note_on_c, 0, 69, 96
2, 344064, Note_off_c, 0, 69, 0
2, 344064, Note_on_c, 0, 68, 96
2, 344576, Note_off_c, 0, 68, 0
2, 344576, Note_on_c, 0, 71, 96
2, 345088, Note_off_c, 0, 71, 0
2, 345088, Note_on_c, 0, 76, 96
2, 345600, Note_off_c, 0, 76, 0
2, 345600, Note_on_c, 0, 75, 96
2, 346112, Note_off_c, 0, 75, 0
2, 346112, Note_on_c, 0, 76, 96
2, 348672, Note_off_c, 0, 76, 0
2, 348672, Note_on_c, 0, 73, 96
2, 349184, Note_off_c, 0, 73, 0
2, 349184, Note_on_c, 0, 81, 96
2, 349696, Note_off_c, 0, 81, 0
2, 349696, Note_on_c, 0, 80, 96
2, 350208, Note_off_c, 0, 80, 0
2, 350208, Note_on_c, 0, 78, 96
2, 351232, Note_off_c, 0, 78, 0
2, 351232, Note_on_c, 0, 75, 96
2, 352768, Note_off_c, 0, 75, 0
2, 352768, Note_on_c, 0, 68, 96
2, 353280, Note_off_c, 0, 68, 0
2, 353280, Note_on_c, 0, 75, 96
2, 353792, Note_off_c, 0, 75, 0
2, 353792, Note_on_c, 0, 73, 96
2, 354304, Note_off_c, 0, 73, 0
2, 354304, Note_on_c, 0, 75, 96
2, 356864, Note_off_c, 0, 75, 0
2, 356864, Note_on_c, 0, 68, 96
2, 357376, Note_off_c, 0, 68, 0
2, 357376, Note_on_c, 0, 73, 96
2, 357888, Note_off_c, 0, 73, 0
2, 357888, Note_on_c, 0, 72, 96
2, 358400, Note_off_c, 0, 72, 0
2, 358400, Note_on_c, 0, 73, 96
2, 360960, Note_off_c, 0, 73, 0
2, 360960, Note_on_c, 0, 69, 96
2, 361472, Note_off_c, 0, 69, 0
2, 361472, Note_on_c, 0, 73, 96
2, 361984, Note_off_c, 0, 73, 0
2, 361984, Note_on_c, 0, 71, 96
2, 362496, Note_off_c, 0, 71, 0
2, 362496, Note_on_c, 0, 73, 96
2, 363008, Note_off_c, 0, 73, 0
2, 363008, Note_on_c, 0, 61, 96
2, 363520, Note_off_c, 0, 61, 0
2, 363520, Note_on_c, 0, 66, 96
2, 364032, Note_off_c, 0, 66, 0
2, 364032, Note_on_c, 0, 64, 96
2, 364544, Note_off_c, 0, 64, 0
2, 364544, Note_on_c, 0, 66, 96
2, 365056, Note_off_c, 0, 66, 0
2, 365056, Note_on_c, 0, 62, 96
2, 365568, Note_off_c, 0, 62, 0
2, 365568, Note_on_c, 0, 68, 96
2, 366080, Note_off_c, 0, 68, 0
2, 366080, Note_on_c, 0, 66, 96
2, 366592, Note_off_c, 0, 66, 0
2, 366592, Note_on_c, 0, 68, 96
2, 367104, Note_off_c, 0, 68, 0
2, 367104, Note_on_c, 0, 62, 96
2, 367616, Note_off_c, 0, 62, 0
2, 367616, Note_on_c, 0, 69, 96
2, 368128, Note_off_c, 0, 69, 0
2, 368128, Note_on_c, 0, 68, 96
2, 368640, Note_off_c, 0, 68, 0
2, 368640, Note_on_c, 0, 69, 96
2, 369664, Note_off_c, 0, 69, 0
2, 369664, Note_on_c, 0, 73, 96
2, 370176, Note_off_c, 0, 73, 0
2, 370176, Note_on_c, 0, 71, 96
2, 370688, Note_off_c, 0, 71, 0
2, 370688, Note_on_c, 0, 73, 96
2, 373248, Note_off_c, 0, 73, 0
2, 373248, Note_on_c, 0, 66, 96
2, 373760, Note_off_c, 0, 66, 0
2, 373760, Note_on_c, 0, 71, 96
2, 374272, Note_off_c, 0, 71, 0
2, 374272, Note_on_c, 0, 69, 96
2, 374784, Note_off_c, 0, 69, 0
2, 374784, Note_on_c, 0, 71, 96
2, 375296, Note_off_c, 0, 71, 0
2, 375296, Note_on_c, 0, 64, 96
2, 375808, Note_off_c, 0, 64, 0
2, 375808, Note_on_c, 0, 69, 96
2, 376320, Note_off_c, 0, 69, 0
2, 376320, Note_on_c, 0, 68, 96
2, 376832, Note_off_c, 0, 68, 0
2, 376832, Note_on_c, 0, 69, 96
2, 377344, Note_off_c, 0, 69, 0
2, 377344, Note_on_c, 0, 66, 96
2, 377856, Note_off_c, 0, 66, 0
2, 377856, Note_on_c, 0, 74, 96
2, 378368, Note_off_c, 0, 74, 0
2, 378368, Note_on_c, 0, 73, 96
2, 378880, Note_off_c, 0, 73, 0
2, 378880, Note_on_c, 0, 74, 96
2, 379392, Note_off_c, 0, 74, 0
2, 379392, Note_on_c, 0, 71, 96
2, 379904, Note_off_c, 0, 71, 0
2, 379904, Note_on_c, 0, 81, 96
2, 380416, Note_off_c, 0, 81, 0
2, 380416, Note_on_c, 0, 80, 96
2, 380928, Note_off_c, 0, 80, 0
2, 380928, Note_on_c, 0, 81, 96
2, 382976, Note_off_c, 0, 81, 0
2, 383488, Note_on_c, 0, 69, 96
2, 384000, Note_off_c, 0, 69, 0
2, 384000, Note_on_c, 0, 74, 96
2, 384512, Note_off_c, 0, 74, 0
2, 384512, Note_on_c, 0, 73, 96
2, 385024, Note_off_c, 0, 73, 0
2, 385024, Note_on_c, 0, 74, 96
2, 387584, Note_off_c, 0, 74, 0
2, 387584, Note_on_c, 0, 64, 96
2, 388096, Note_off_c, 0, 64, 0
2, 388096, Note_on_c, 0, 73, 96
2, 388608, Note_off_c, 0, 73, 0
2, 388608, Note_on_c, 0, 71, 96
2, 389120, Note_off_c, 0, 71, 0
2, 389120, Note_on_c, 0, 73, 96
2, 389632, Note_off_c, 0, 73, 0
2, 389632, Note_on_c, 0, 62, 96
2, 390144, Note_off_c, 0, 62, 0
2, 390144, Note_on_c, 0, 71, 96
2, 390656, Note_off_c, 0, 71, 0
2, 390656, Note_on_c, 0, 69, 96
2, 391168, Note_off_c, 0, 69, 0
2, 391168, Note_on_c, 0, 71, 96
2, 391680, Note_off_c, 0, 71, 0
2, 391680, Note_on_c, 0, 61, 96
2, 392192, Note_off_c, 0, 61, 0
2, 392192, Note_on_c, 0, 69, 96
2, 392704, Note_off_c, 0, 69, 0
2, 392704, Note_on_c, 0, 68, 96
2, 393216, Note_off_c, 0, 68, 0
2, 393216, Note_on_c, 0, 69, 96
2, 393728, Note_off_c, 0, 69, 0
2, 393728, Note_on_c, 0, 59, 96
2, 394240, Note_off_c, 0, 59, 0
2, 394240, Note_on_c, 0, 68, 96
2, 394752, Note_off_c, 0, 68, 0
2, 394752, Note_on_c, 0, 66, 96
2, 395264, Note_off_c, 0, 66, 0
2, 395264, Note_on_c, 0, 68, 96
2, 395776, Note_off_c, 0, 68, 0
2, 395776, Note_on_c, 0, 64, 96
2, 396288, Note_off_c, 0, 64, 0
2, 396288, Note_on_c, 0, 68, 96
2, 396800, Note_off_c, 0, 68, 0
2, 396800, Note_on_c, 0, 71, 96
2, 397312, Note_off_c, 0, 71, 0
2, 397312, Note_on_c, 0, 76, 96
2, 398336, Note_off_c, 0, 76, 0
2, 398336, Note_on_c, 0, 64, 96
2, 399360, Note_off_c, 0, 64, 0
2, 399360, Note_on_c, 0, 66, 96
2, 399872, Note_off_c, 0, 66, 0
2, 399872, Note_on_c, 0, 69, 96
2, 400384, Note_off_c, 0, 69, 0
2, 400384, Note_on_c, 0, 74, 96
2, 401408, Note_off_c, 0, 74, 0
2, 401408, Note_on_c, 0, 64, 96
2, 401920, Note_off_c, 0, 64, 0
2, 401920, Note_on_c, 0, 68, 96
2, 402432, Note_off_c, 0, 68, 0
2, 402432, Note_on_c, 0, 73, 96
2, 403456, Note_off_c, 0, 73, 0
2, 403456, Note_on_c, 0, 62, 96
2, 403968, Note_off_c, 0, 62, 0
2, 403968, Note_on_c, 0, 66, 96
2, 404480, Note_off_c, 0, 66, 0
2, 404480, Note_on_c, 0, 71, 96
2, 405504, Note_off_c, 0, 71, 0
2, 405504, Note_on_c, 0, 61, 96
2, 406016, Note_off_c, 0, 61, 0
2, 406016, Note_on_c, 0, 64, 96
2, 406528, Note_off_c, 0, 64, 0
2, 406528, Note_on_c, 0, 69, 96
2, 407040, Note_off_c, 0, 69, 0
2, 407040, Note_on_c, 0, 61, 96
2, 407552, Note_off_c, 0, 61, 0
2, 407552, Note_on_c, 0, 62, 96
2, 408064, Note_off_c, 0, 62, 0
2, 408064, Note_on_c, 0, 59, 96
2, 408576, Note_off_c, 0, 59, 0
2, 408576, Note_on_c, 0, 68, 96
2, 409088, Note_off_c, 0, 68, 0
2, 409088, Note_on_c, 0, 59, 96
2, 409600, Note_off_c, 0, 59, 0
2, 409600, Note_on_c, 0, 61, 96
2, 410112, Note_off_c, 0, 61, 0
2, 410112, Note_on_c, 0, 57, 96
2, 410624, Note_off_c, 0, 57, 0
2, 410624, Note_on_c, 0, 66, 96
2, 411136, Note_off_c, 0, 66, 0
2, 411136, Note_on_c, 0, 57, 96
2, 411648, Note_off_c, 0, 57, 0
2, 411648, Note_on_c, 0, 59, 96
2, 412160, Note_off_c, 0, 59, 0
2, 412160, Note_on_c, 0, 56, 96
2, 412672, Note_off_c, 0, 56, 0
2, 412672, Note_on_c, 0, 64, 96
2, 414208, Note_off_c, 0, 64, 0
2, 414208, Note_on_c, 0, 61, 96
2, 414720, Note_off_c, 0, 61, 0
2, 414720, Note_on_c, 0, 66, 96
2, 415232, Note_off_c, 0, 66, 0
2, 415232, Note_on_c, 0, 64, 96
2, 415744, Note_off_c, 0, 64, 0
2, 415744, Note_on_c, 0, 66, 96
2, 416256, Note_off_c, 0, 66, 0
2, 416256, Note_on_c, 0, 62, 96
2, 416768, Note_off_c, 0, 62, 0
2, 416768, Note_on_c, 0, 59, 96
2, 417280, Note_off_c, 0, 59, 0
2, 417280, Note_on_c, 0, 68, 96
2, 417792, Note_off_c, 0, 68, 0
2, 417792, Note_on_c, 0, 69, 96
2, 418304, Note_off_c, 0, 69, 0
2, 418304, Note_on_c, 0, 64, 96
2, 418816, Note_off_c, 0, 64, 0
2, 418816, Note_on_c, 0, 69, 96
2, 419328, Note_off_c, 0, 69, 0
2, 419328, Note_on_c, 0, 71, 96
2, 419840, Note_off_c, 0, 71, 0
2, 419840, Note_on_c, 0, 73, 96
2, 420352, Note_off_c, 0, 73, 0
2, 420352, Note_on_c, 0, 69, 96
2, 420864, Note_off_c, 0, 69, 0
2, 420864, Note_on_c, 0, 74, 96
2, 421376, Note_off_c, 0, 74, 0
2, 421376, Note_on_c, 0, 73, 96
2, 421888, Note_off_c, 0, 73, 0
2, 421888, Note_on_c, 0, 74, 96
2, 422400, Note_off_c, 0, 74, 0
2, 422400, Note_on_c, 0, 71, 96
2, 422912, Note_off_c, 0, 71, 0
2, 422912, Note_on_c, 0, 76, 96
2, 423424, Note_off_c, 0, 76, 0
2, 423424, Note_on_c, 0, 71, 96
2, 423936, Note_off_c, 0, 71, 0
2, 423936, Note_on_c, 0, 73, 96
2, 428032, Note_off_c, 0, 73, 0
2, 430592, Note_on_c, 0, 64, 96
2, 431104, Note_off_c, 0, 64, 0
2, 431104, Note_on_c, 0, 69, 96
2, 431616, Note_off_c, 0, 69, 0
2, 431616, Note_on_c, 0, 68, 96
2, 432128, Note_off_c, 0, 68, 0
2, 432128, Note_on_c, 0, 69, 96
2, 434688, Note_off_c, 0, 69, 0
2, 434688, Note_on_c, 0, 66, 96
2, 435200, Note_off_c, 0, 66, 0
2, 435200, Note_on_c, 0, 71, 96
2, 435712, Note_off_c, 0, 71, 0
2, 435712, Note_on_c, 0, 69, 96
2, 436224, Note_off_c, 0, 69, 0
2, 436224, Note_on_c, 0, 68, 96
2, 436736, Note_off_c, 0, 68, 0
2, 436736, Note_on_c, 0, 71, 96
2, 437248, Note_off_c, 0, 71, 0
2, 437248, Note_on_c, 0, 76, 96
2, 437760, Note_off_c, 0, 76, 0
2, 437760, Note_on_c, 0, 75, 96
2, 438272, Note_off_c, 0, 75, 0
2, 438272, Note_on_c, 0, 76, 96
2, 440832, Note_off_c, 0, 76, 0
2, 440832, Note_on_c, 0, 73, 96
2, 441344, Note_off_c, 0, 73, 0
2, 441344, Note_on_c, 0, 81, 96
2, 441856, Note_off_c, 0, 81, 0
2, 441856, Note_on_c, 0, 80, 96
2, 442368, Note_off_c, 0, 80, 0
2, 442368, Note_on_c, 0, 78, 96
2, 443392, Note_off_c, 0, 78, 0
2, 443392, Note_on_c, 0, 75, 96
2, 444928, Note_off_c, 0, 75, 0
2, 444928, Note_on_c, 0, 68, 96
2, 445440, Note_off_c, 0, 68, 0
2, 445440, Note_on_c, 0, 75, 96
2, 445952, Note_off_c, 0, 75, 0
2, 445952, Note_on_c, 0, 73, 96
2, 446464, Note_off_c, 0, 73, 0
2, 446464, Note_on_c, 0, 75, 96
2, 449024, Note_off_c, 0, 75, 0
2, 449024, Note_on_c, 0, 68, 96
2, 449536, Note_off_c, 0, 68, 0
2, 449536, Note_on_c, 0, 73, 96
2, 450048, Note_off_c, 0, 73, 0
2, 450048, Note_on_c, 0, 72, 96
2, 450560, Note_off_c, 0, 72, 0
2, 450560, Note_on_c, 0, 73, 96
2, 453120, Note_off_c, 0, 73, 0
2, 453120, Note_on_c, 0, 69, 96
2, 453632, Note_off_c, 0, 69, 0
2, 453632, Note_on_c, 0, 73, 96
2, 454144, Note_off_c, 0, 73, 0
2, 454144, Note_on_c, 0, 71, 96
2, 454656, Note_off_c, 0, 71, 0
2, 454656, Note_on_c, 0, 73, 96
2, 455168, Note_off_c, 0, 73, 0
2, 455168, Note_on_c, 0, 61, 96
2, 455680, Note_off_c, 0, 61, 0
2, 455680, Note_on_c, 0, 66, 96
2, 456192, Note_off_c, 0, 66, 0
2, 456192, Note_on_c, 0, 64, 96
2, 456704, Note_off_c, 0, 64, 0
2, 456704, Note_on_c, 0, 66, 96
2, 457216, Note_off_c, 0, 66, 0
2, 457216, Note_on_c, 0, 62, 96
2, 457728, Note_off_c, 0, 62, 0
2, 457728, Note_on_c, 0, 68, 96
2, 458240, Note_off_c, 0, 68, 0
2, 458240, Note_on_c, 0, 66, 96
2, 458752, Note_off_c, 0, 66, 0
2, 458752, Note_on_c, 0, 68, 96
2, 459264, Note_off_c, 0, 68, 0
2, 459264, Note_on_c, 0, 62, 96
2, 459776, Note_off_c, 0, 62, 0
2, 459776, Note_on_c, 0, 69, 96
2, 460288, Note_off_c, 0, 69, 0
2, 460288, Note_on_c, 0, 68, 96
2, 460800, Note_off_c, 0, 68, 0
2, 460800, Note_on_c, 0, 69, 96
2, 461824, Note_off_c, 0, 69, 0
2, 461824, Note_on_c, 0, 73, 96
2, 462336, Note_off_c, 0, 73, 0
2, 462336, Note_on_c, 0, 71, 96
2, 462848, Note_off_c, 0, 71, 0
2, 462848, Note_on_c, 0, 73, 96
2, 465408, Note_off_c, 0, 73, 0
2, 465408, Note_on_c, 0, 66, 96
2, 465920, Note_off_c, 0, 66, 0
2, 465920, Note_on_c, 0, 71, 96
2, 466432, Note_off_c, 0, 71, 0
2, 466432, Note_on_c, 0, 69, 96
2, 466944, Note_off_c, 0, 69, 0
2, 466944, Note_on_c, 0, 71, 96
2, 467456, Note_off_c, 0, 71, 0
2, 467456, Note_on_c, 0, 64, 96
2, 467968, Note_off_c, 0, 64, 0
2, 467968, Note_on_c, 0, 69, 96
2, 468480, Note_off_c, 0, 69, 0
2, 468480, Note_on_c, 0, 68, 96
2, 468992, Note_off_c, 0, 68, 0
2, 468992, Note_on_c, 0, 69, 96
2, 469504, Note_off_c, 0, 69, 0
2, 469504, Note_on_c, 0, 66, 96
2, 470016, Note_off_c, 0, 66, 0
2, 470016, Note_on_c, 0, 74, 96
2, 470528, Note_off_c, 0, 74, 0
2, 470528, Note_on_c, 0, 73, 96
2, 471040, Note_off_c, 0, 73, 0
2, 471040, Note_on_c, 0, 74, 96
2, 471552, Note_off_c, 0, 74, 0
2, 471552, Note_on_c, 0, 71, 96
2, 472064, Note_off_c, 0, 71, 0
2, 472064, Note_on_c, 0, 81, 96
2, 472576, Note_off_c, 0, 81, 0
2, 472576, Note_on_c, 0, 80, 96
2, 473088, Note_off_c, 0, 80, 0
2, 473088, Note_on_c, 0, 81, 96
2, 475136, Note_off_c, 0, 81, 0
2, 475648, Note_on_c, 0, 69, 96
2, 476160, Note_off_c, 0, 69, 0
2, 476160, Note_on_c, 0, 74, 96
2, 476672, Note_off_c, 0, 74, 0
2, 476672, Note_on_c, 0, 73, 96
2, 477184, Note_off_c, 0, 73, 0
2, 477184, Note_on_c, 0, 74, 96
2, 479744, Note_off_c, 0, 74, 0
2, 479744, Note_on_c, 0, 64, 96
2, 480256, Note_off_c, 0, 64, 0
2, 480256, Note_on_c, 0, 73, 96
2, 480768, Note_off_c, 0, 73, 0
2, 480768, Note_on_c, 0, 71, 96
2, 481280, Note_off_c, 0, 71, 0
2, 481280, Note_on_c, 0, 73, 96
2, 481792, Note_off_c, 0, 73, 0
2, 481792, Note_on_c, 0, 62, 96
2, 482304, Note_off_c, 0, 62, 0
2, 482304, Note_on_c, 0, 71, 96
2, 482816, Note_off_c, 0, 71, 0
2, 482816, Note_on_c, 0, 69, 96
2, 483328, Note_off_c, 0, 69, 0
2, 483328, Note_on_c, 0, 71, 96
2, 483840, Note_off_c, 0, 71, 0
2, 483840, Note_on_c, 0, 61, 96
2, 484352, Note_off_c, 0, 61, 0
2, 484352, Note_on_c, 0, 69, 96
2, 484864, Note_off_c, 0, 69, 0
2, 484864, Note_on_c, 0, 68, 96
2, 485376, Note_off_c, 0, 68, 0
2, 485376, Note_on_c, 0, 69, 96
2, 485888, Note_off_c, 0, 69, 0
2, 485888, Note_on_c, 0, 59, 96
2, 486400, Note_off_c, 0, 59, 0
2, 486400, Note_on_c, 0, 68, 96
2, 486912, Note_off_c, 0, 68, 0
2, 486912, Note_on_c, 0, 66, 96
2, 487424, Note_off_c, 0, 66, 0
2, 487424, Note_on_c, 0, 68, 96
2, 487936, Note_off_c, 0, 68, 0
2, 487936, Note_on_c, 0, 64, 96
2, 488448, Note_off_c, 0, 64, 0
2, 488448, Note_on_c, 0, 68, 96
2, 488960, Note_off_c, 0, 68, 0
2, 488960, Note_on_c, 0, 71, 96
2, 489472, Note_off_c, 0, 71, 0
2, 489472, Note_on_c, 0, 76, 96
2, 490496, Note_off_c, 0, 76, 0
2, 490496, Note_on_c, 0, 64, 96
2, 491520, Note_off_c, 0, 64, 0
2, 491520, Note_on_c, 0, 66, 96
2, 492032, Note_off_c, 0, 66, 0
2, 492032, Note_on_c, 0, 69, 96
2, 492544, Note_off_c, 0, 69, 0
2, 492544, Note_on_c, 0, 74, 96
2, 493568, Note_off_c, 0, 74, 0
2, 493568, Note_on_c, 0, 64, 96
2, 494080, Note_off_c, 0, 64, 0
2, 494080, Note_on_c, 0, 68, 96
2, 494592, Note_off_c, 0, 68, 0
2, 494592, Note_on_c, 0, 73, 96
2, 495616, Note_off_c, 0, 73, 0
2, 495616, Note_on_c, 0, 62, 96
2, 496128, Note_off_c, 0, 62, 0
2, 496128, Note_on_c, 0, 66, 96
2, 496640, Note_off_c, 0, 66, 0
2, 496640, Note_on_c, 0, 71, 96
2, 497664, Note_off_c, 0, 71, 0
2, 497664, Note_on_c, 0, 61, 96
2, 498176, Note_off_c, 0, 61, 0
2, 498176, Note_on_c, 0, 64, 96
2, 498688, Note_off_c, 0, 64, 0
2, 498688, Note_on_c, 0, 69, 96
2, 499200, Note_off_c, 0, 69, 0
2, 499200, Note_on_c, 0, 61, 96
2, 499712, Note_off_c, 0, 61, 0
2, 499712, Note_on_c, 0, 62, 96
2, 500224, Note_off_c, 0, 62, 0
2, 500224, Note_on_c, 0, 59, 96
2, 500736, Note_off_c, 0, 59, 0
2, 500736, Note_on_c, 0, 68, 96
2, 501248, Note_off_c, 0, 68, 0
2, 501248, Note_on_c, 0, 59, 96
2, 501760, Note_off_c, 0, 59, 0
2, 501760, Note_on_c, 0, 61, 96
2, 502272, Note_off_c, 0, 61, 0
2, 502272, Note_on_c, 0, 57, 96
2, 502784, Note_off_c, 0, 57, 0
2, 502784, Note_on_c, 0, 66, 96
2, 503296, Note_off_c, 0, 66, 0
2, 503296, Note_on_c, 0, 57, 96
2, 503808, Note_off_c, 0, 57, 0
2, 503808, Note_on_c, 0, 59, 96
2, 504320, Note_off_c, 0, 59, 0
2, 504320, Note_on_c, 0, 56, 96
2, 504832, Note_off_c, 0, 56, 0
2, 504832, Note_on_c, 0, 64, 96
2, 506368, Note_off_c, 0, 64, 0
2, 506368, Note_on_c, 0, 61, 96
2, 506880, Note_off_c, 0, 61, 0
2, 506880, Note_on_c, 0, 66, 96
2, 507392, Note_off_c, 0, 66, 0
2, 507392, Note_on_c, 0, 64, 96
2, 507904, Note_off_c, 0, 64, 0
2, 507904, Note_on_c, 0, 66, 96
2, 508416, Note_off_c, 0, 66, 0
2, 508416, Note_on_c, 0, 62, 96
2, 508928, Note_off_c, 0, 62, 0
2, 508928, Note_on_c, 0, 59, 96
2, 509440, Note_off_c, 0, 59, 0
2, 509440, Note_on_c, 0, 68, 96
2, 509952, Note_off_c, 0, 68, 0
2, 509952, Note_on_c, 0, 69, 96
2, 510464, Note_off_c, 0, 69, 0
2, 510464, Note_on_c, 0, 64, 96
2, 510976, Note_off_c, 0, 64, 0
2, 510976, Note_on_c, 0, 69, 96
2, 511488, Note_off_c, 0, 69, 0
2, 511488, Note_on_c, 0, 71, 96
2, 512000, Note_off_c, 0, 71, 0
2, 512000, Note_on_c, 0, 73, 96
2, 512512, Note_off_c, 0, 73, 0
2, 512512, Note_on_c, 0, 69, 96
2, 513024, Note_off_c, 0, 69, 0
2, 513024, Note_on_c, 0, 74, 96
2, 513536, Note_off_c, 0, 74, 0
2, 513536, Note_on_c, 0, 73, 96
2, 514048, Note_off_c, 0, 73, 0
2, 514048, Note_on_c, 0, 74, 96
2, 516608, Note_off_c, 0, 74, 0
2, 516608, Note_on_c, 0, 73, 96
2, 517120, Note_off_c, 0, 73, 0
2, 517120, Note_on_c, 0, 78, 96
2, 517632, Note_off_c, 0, 78, 0
2, 517632, Note_on_c, 0, 77, 96
2, 518144, Note_off_c, 0, 77, 0
2, 518144, Note_on_c, 0, 78, 96
2, 520704, Note_off_c, 0, 78, 0
2, 520704, Note_on_c, 0, 68, 96
2, 521216, Note_off_c, 0, 68, 0
2, 521216, Note_on_c, 0, 78, 96
2, 521728, Note_off_c, 0, 78, 0
2, 521728, Note_on_c, 0, 77, 96
2, 522240, Note_off_c, 0, 77, 0
2, 522240, Note_on_c, 0, 78, 96
2, 522752, Note_off_c, 0, 78, 0
2, 522752, Note_on_c, 0, 73, 96
2, 523264, Note_off_c, 0, 73, 0
2, 523264, Note_on_c, 0, 81, 96
2, 523776, Note_off_c, 0, 81, 0
2, 523776, Note_on_c, 0, 80, 96
2, 524288, Note_off_c, 0, 80, 0
2, 524288, Note_on_c, 0, 81, 96
2, 525312, Note_off_c, 0, 81, 0
2, 525312, Note_on_c, 0, 77, 96
2, 526336, Note_off_c, 0, 77, 0
2, 526336, Note_on_c, 0, 78, 96
2, 526848, Note_off_c, 0, 78, 0
2, 526848, Note_on_c, 0, 73, 96
2, 527360, Note_off_c, 0, 73, 0
2, 527360, Note_on_c, 0, 78, 96
2, 527872, Note_off_c, 0, 78, 0
2, 527872, Note_on_c, 0, 80, 96
2, 528384, Note_off_c, 0, 80, 0
2, 528384, Note_on_c, 0, 81, 96
2, 528896, Note_off_c, 0, 81, 0
2, 528896, Note_on_c, 0, 71, 96
2, 529408, Note_off_c, 0, 71, 0
2, 529408, Note_on_c, 0, 80, 96
2, 529920, Note_off_c, 0, 80, 0
2, 529920, Note_on_c, 0, 78, 96
2, 530432, Note_off_c, 0, 78, 0
2, 530432, Note_on_c, 0, 80, 96
2, 531456, Note_off_c, 0, 80, 0
2, 531456, Note_on_c, 0, 75, 96
2, 532480, Note_off_c, 0, 75, 0
2, 532480, Note_on_c, 0, 76, 96
2, 532992, Note_off_c, 0, 76, 0
2, 532992, Note_on_c, 0, 71, 96
2, 533504, Note_off_c, 0, 71, 0
2, 533504, Note_on_c, 0, 76, 96
2, 534016, Note_off_c, 0, 76, 0
2, 534016, Note_on_c, 0, 74, 96
2, 534528, Note_off_c, 0, 74, 0
2, 534528, Note_on_c, 0, 73, 96
2, 535040, Note_off_c, 0, 73, 0
2, 535040, Note_on_c, 0, 61, 96
2, 535552, Note_off_c, 0, 61, 0
2, 535552, Note_on_c, 0, 64, 96
2, 536064, Note_off_c, 0, 64, 0
2, 536064, Note_on_c, 0, 63, 96
2, 536576, Note_off_c, 0, 63, 0
2, 536576, Note_on_c, 0, 64, 96
2, 537088, Note_off_c, 0, 64, 0
2, 537088, Note_on_c, 0, 59, 96
2, 537600, Note_off_c, 0, 59, 0
2, 537600, Note_on_c, 0, 64, 96
2, 539648, Note_off_c, 0, 64, 0
2, 539648, Note_on_c, 0, 63, 96
2, 540672, Note_off_c, 0, 63, 0
2, 540672, Note_on_c, 0, 64, 96
2, 543232, Note_off_c, 0, 64, 0
2, 543232, Note_on_c, 0, 61, 96
2, 543744, Note_off_c, 0, 61, 0
2, 543744, Note_on_c, 0, 69, 96
2, 544256, Note_off_c, 0, 69, 0
2, 544256, Note_on_c, 0, 68, 96
2, 544768, Note_off_c, 0, 68, 0
2, 544768, Note_on_c, 0, 69, 96
2, 547328, Note_off_c, 0, 69, 0
2, 547328, Note_on_c, 0, 66, 96
2, 547840, Note_off_c, 0, 66, 0
2, 547840, Note_on_c, 0, 73, 96
2, 548352, Note_off_c, 0, 73, 0
2, 548352, Note_on_c, 0, 71, 96
2, 548864, Note_off_c, 0, 71, 0
2, 548864, Note_on_c, 0, 73, 96
2, 551424, Note_off_c, 0, 73, 0
2, 551424, Note_on_c, 0, 66, 96
2, 551936, Note_off_c, 0, 66, 0
2, 551936, Note_on_c, 0, 71, 96
2, 553472, Note_off_c, 0, 71, 0
2, 553472, Note_on_c, 0, 64, 96
2, 553984, Note_off_c, 0, 64, 0
2, 553984, Note_on_c, 0, 69, 96
2, 554496, Note_off_c, 0, 69, 0
2, 554496, Note_on_c, 0, 68, 96
2, 555008, Note_off_c, 0, 68, 0
2, 555008, Note_on_c, 0, 69, 96
2, 557568, Note_off_c, 0, 69, 0
2, 557568, Note_on_c, 0, 69, 96
2, 558080, Note_off_c, 0, 69, 0
2, 558080, Note_on_c, 0, 74, 96
2, 558592, Note_off_c, 0, 74, 0
2, 558592, Note_on_c, 0, 73, 96
2, 559104, Note_off_c, 0, 73, 0
2, 559104, Note_on_c, 0, 74, 96
2, 559616, Note_off_c, 0, 74, 0
2, 559616, Note_on_c, 0, 68, 96
2, 560128, Note_off_c, 0, 68, 0
2, 560128, Note_on_c, 0, 73, 96
2, 560640, Note_off_c, 0, 73, 0
2, 560640, Note_on_c, 0, 71, 96
2, 561152, Note_off_c, 0, 71, 0
2, 561152, Note_on_c, 0, 73, 96
2, 563712, Note_off_c, 0, 73, 0
2, 563712, Note_on_c, 0, 66, 96
2, 564224, Note_off_c, 0, 66, 0
2, 564224, Note_on_c, 0, 71, 96
2, 564736, Note_off_c, 0, 71, 0
2, 564736, Note_on_c, 0, 69, 96
2, 565248, Note_off_c, 0, 69, 0
2, 565248, Note_on_c, 0, 71, 96
2, 565760, Note_off_c, 0, 71, 0
2, 565760, Note_on_c, 0, 65, 96
2, 566272, Note_off_c, 0, 65, 0
2, 566272, Note_on_c, 0, 69, 96
2, 566784, Note_off_c, 0, 69, 0
2, 566784, Note_on_c, 0, 68, 96
2, 567296, Note_off_c, 0, 68, 0
2, 567296, Note_on_c, 0, 69, 96
2, 568320, Note_off_c, 0, 69, 0
2, 571904, Note_on_c, 0, 71, 96
2, 572416, Note_off_c, 0, 71, 0
2, 572416, Note_on_c, 0, 76, 96
2, 572928, Note_off_c, 0, 76, 0
2, 572928, Note_on_c, 0, 78, 96
2, 573440, Note_off_c, 0, 78, 0
2, 573440, Note_on_c, 0, 80, 96
2, 573952, Note_off_c, 0, 80, 0
2, 573952, Note_on_c, 0, 76, 96
2, 574464, Note_off_c, 0, 76, 0
2, 574464, Note_on_c, 0, 83, 96
2, 576000, Note_off_c, 0, 83, 0
2, 576000, Note_on_c, 0, 81, 96
2, 576512, Note_off_c, 0, 81, 0
2, 576512, Note_on_c, 0, 80, 96
2, 577024, Note_off_c, 0, 80, 0
2, 577024, Note_on_c, 0, 78, 96
2, 577536, Note_off_c, 0, 78, 0
2, 577536, Note_on_c, 0, 80, 96
2, 578048, Note_off_c, 0, 80, 0
2, 578048, Note_on_c, 0, 71, 96
2, 578560, Note_off_c, 0, 71, 0
2, 578560, Note_on_c, 0, 76, 96
2, 579072, Note_off_c, 0, 76, 0
2, 579072, Note_on_c, 0, 75, 96
2, 579584, Note_off_c, 0, 75, 0
2, 579584, Note_on_c, 0, 76, 96
2, 580096, Note_off_c, 0, 76, 0
2, 580096, Note_on_c, 0, 64, 96
2, 580608, Note_off_c, 0, 64, 0
2, 580608, Note_on_c, 0, 71, 96
2, 581120, Note_off_c, 0, 71, 0
2, 581120, Note_on_c, 0, 70, 96
2, 581632, Note_off_c, 0, 70, 0
2, 581632, Note_on_c, 0, 71, 96
2, 584704, Note_off_c, 0, 71, 0
2, 584704, Note_on_c, 0, 69, 96
2, 585216, Note_off_c, 0, 69, 0
2, 585216, Note_on_c, 0, 68, 96
2, 585728, Note_off_c, 0, 68, 0
2, 585728, Note_on_c, 0, 76, 96
2, 586752, Note_off_c, 0, 76, 0
2, 586752, Note_on_c, 0, 68, 96
2, 587776, Note_off_c, 0, 68, 0
2, 587776, Note_on_c, 0, 69, 96
2, 594944, Note_off_c, 0, 69, 0
2, 594944, Note_on_c, 0, 68, 96
2, 595968, Note_off_c, 0, 68, 0
2, 595968, Note_on_c, 0, 69, 96
2, 598016, Note_off_c, 0, 69, 0
2, 598528, Note_on_c, 0, 69, 96
2, 599040, Note_off_c, 0, 69, 0
2, 599040, Note_on_c, 0, 74, 96
2, 599552, Note_off_c, 0, 74, 0
2, 599552, Note_on_c, 0, 73, 96
2, 600064, Note_off_c, 0, 73, 0
2, 600064, Note_on_c, 0, 74, 96
2, 602624, Note_off_c, 0, 74, 0
2, 602624, Note_on_c, 0, 73, 96
2, 603136, Note_off_c, 0, 73, 0
2, 603136, Note_on_c, 0, 78, 96
2, 603648, Note_off_c, 0, 78, 0
2, 603648, Note_on_c, 0, 76, 96
2, 604160, Note_off_c, 0, 76, 0
2, 604160, Note_on_c, 0, 78, 96
2, 609280, Note_off_c, 0, 78, 0
2, 614912, Note_on_c, 0, 76, 96
2, 615424, Note_off_c, 0, 76, 0
2, 615424, Note_on_c, 0, 78, 96
2, 615936, Note_off_c, 0, 78, 0
2, 615936, Note_on_c, 0, 73, 96
2, 616448, Note_off_c, 0, 73, 0
2, 616448, Note_on_c, 0, 74, 96
2, 620544, Note_off_c, 0, 74, 0
2, 621056, Note_on_c, 0, 67, 96
2, 621568, Note_off_c, 0, 67, 0
2, 621568, Note_on_c, 0, 69, 96
2, 622080, Note_off_c, 0, 69, 0
2, 622080, Note_on_c, 0, 64, 96
2, 622592, Note_off_c, 0, 64, 0
2, 622592, Note_on_c, 0, 66, 96
2, 626688, Note_off_c, 0, 66, 0
2, 629248, Note_on_c, 0, 62, 96
2, 629760, Note_on_c, 0, 64, 96
2, 630272, Note_on_c, 0, 68, 96
2, 630784, Note_off_c, 0, 62, 0
2, 630784, Note_off_c, 0, 64, 0
2, 630784, Note_off_c, 0, 68, 0
2, 630784, Note_on_c, 0, 64, 96
2, 630784, Note_on_c, 0, 69, 96
2, 632832, Note_off_c, 0, 64, 0
2, 632832, Note_off_c, 0, 69, 0
2, 694955, Note_on_c, 0, 80, 96
2, 695637, Note_on_c, 0, 81, 96
2, 695638, Note_off_c, 0, 80, 0
2, 696320, Note_off_c, 0, 81, 0
2, 696320, Note_on_c, 0, 83, 96
2, 697003, Note_off_c, 0, 83, 0
2, 697003, Note_on_c, 0, 76, 96
2, 697685, Note_on_c, 0, 74, 96
2, 697686, Note_off_c, 0, 76, 0
2, 698368, Note_off_c, 0, 74, 0
2, 698368, Note_on_c, 0, 73, 96
2, 699051, Note_off_c, 0, 73, 0
2, 699051, Note_on_c, 0, 75, 96
2, 699733, Note_on_c, 0, 76, 96
2, 699734, Note_off_c, 0, 75, 0
2, 700416, Note_off_c, 0, 76, 0
2, 700416, Note_on_c, 0, 75, 96
2, 701099, Note_off_c, 0, 75, 0
2, 701099, Note_on_c, 0, 78, 96
2, 701781, Note_on_c, 0, 76, 96
2, 701782, Note_off_c, 0, 78, 0
2, 702464, Note_off_c, 0, 76, 0
2, 702464, Note_on_c, 0, 75, 96
2, 703829, Note_off_c, 0, 75, 0
2, 703829, Note_on_c, 0, 76, 96
2, 704512, Note_off_c, 0, 76, 0
2, 704512, Note_on_c, 0, 76, 96
2, 705877, Note_off_c, 0, 76, 0
2, 705877, Note_on_c, 0, 75, 96
2, 706560, Note_off_c, 0, 75, 0
2, 707243, Note_on_c, 0, 76, 96
2, 707925, Note_on_c, 0, 78, 96
2, 707926, Note_off_c, 0, 76, 0
2, 708608, Note_off_c, 0, 78, 0
2, 708608, Note_on_c, 0, 80, 96
2, 709973, Note_off_c, 0, 80, 0
2, 709973, Note_on_c, 0, 81, 96
2, 710656, Note_off_c, 0, 81, 0
2, 710656, Note_on_c, 0, 81, 96
2, 712021, Note_off_c, 0, 81, 0
2, 712021, Note_on_c, 0, 80, 96
2, 712704, Note_off_c, 0, 80, 0
2, 712704, Note_on_c, 0, 81, 96
2, 713387, Note_off_c, 0, 81, 0
2, 715435, Note_on_c, 0, 78, 96
2, 716117, Note_on_c, 0, 80, 96
2, 716118, Note_off_c, 0, 78, 0
2, 716800, Note_off_c, 0, 80, 0
2, 716800, Note_on_c, 0, 81, 96
2, 717483, Note_off_c, 0, 81, 0
2, 717483, Note_on_c, 0, 80, 96
2, 718165, Note_on_c, 0, 78, 96
2, 718166, Note_off_c, 0, 80, 0
2, 718848, Note_off_c, 0, 78, 0
2, 718848, Note_on_c, 0, 76, 96
2, 720213, Note_off_c, 0, 76, 0
2, 720213, Note_on_c, 0, 74, 96
2, 720896, Note_off_c, 0, 74, 0
2, 720896, Note_on_c, 0, 73, 96
2, 721579, Note_off_c, 0, 73, 0
2, 721579, Note_on_c, 0, 74, 96
2, 722261, Note_on_c, 0, 76, 96
2, 722262, Note_off_c, 0, 74, 0
2, 725675, Note_off_c, 0, 76, 0
2, 725675, Note_on_c, 0, 74, 96
2, 726357, Note_on_c, 0, 76, 96
2, 726358, Note_off_c, 0, 74, 0
2, 727040, Note_off_c, 0, 76, 0
2, 727040, Note_on_c, 0, 78, 96
2, 727723, Note_off_c, 0, 78, 0
2, 727723, Note_on_c, 0, 71, 96
2, 728405, Note_on_c, 0, 69, 96
2, 728406, Note_off_c, 0, 71, 0
2, 729088, Note_off_c, 0, 69, 0
2, 729088, Note_on_c, 0, 68, 96
2, 729771, Note_off_c, 0, 68, 0
2, 729771, Note_on_c, 0, 69, 96
2, 730453, Note_on_c, 0, 71, 96
2, 730454, Note_off_c, 0, 69, 0
2, 731136, Note_off_c, 0, 71, 0
2, 731136, Note_on_c, 0, 73, 96
2, 733184, Note_off_c, 0, 73, 0
2, 733867, Note_on_c, 0, 81, 96
2, 734549, Note_on_c, 0, 79, 96
2, 734550, Note_off_c, 0, 81, 0
2, 735232, Note_off_c, 0, 79, 0
2, 735232, Note_on_c, 0, 78, 96
2, 735915, Note_off_c, 0, 78, 0
2, 735915, Note_on_c, 0, 76, 96
2, 736597, Note_on_c, 0, 74, 96
2, 736598, Note_off_c, 0, 76, 0
2, 737280, Note_off_c, 0, 74, 0
2, 737280, Note_on_c, 0, 73, 96
2, 737963, Note_off_c, 0, 73, 0
2, 737963, Note_on_c, 0, 74, 96
2, 738645, Note_on_c, 0, 76, 96
2, 738646, Note_off_c, 0, 74, 0
2, 740011, Note_off_c, 0, 76, 0
2, 740011, Note_on_c, 0, 74, 96
2, 740693, Note_on_c, 0, 76, 96
2, 740694, Note_off_c, 0, 74, 0
2, 741376, Note_off_c, 0, 76, 0
2, 741376, Note_on_c, 0, 78, 96
2, 742741, Note_off_c, 0, 78, 0
2, 742741, Note_on_c, 0, 80, 96
2, 743424, Note_off_c, 0, 80, 0
2, 743424, Note_on_c, 0, 81, 96
2, 744789, Note_off_c, 0, 81, 0
2, 757077, Note_on_c, 0, 71, 96
2, 757760, Note_off_c, 0, 71, 0
2, 757760, Note_on_c, 0, 71, 96
2, 758443, Note_off_c, 0, 71, 0
2, 758443, Note_on_c, 0, 68, 96
2, 759125, Note_on_c, 0, 71, 96
2, 759126, Note_off_c, 0, 68, 0
2, 759808, Note_off_c, 0, 71, 0
2, 759808, Note_on_c, 0, 71, 96
2, 760491, Note_off_c, 0, 71, 0
2, 760491, Note_on_c, 0, 66, 96
2, 761173, Note_on_c, 0, 71, 96
2, 761174, Note_off_c, 0, 66, 0
2, 761856, Note_off_c, 0, 71, 0
2, 761856, Note_on_c, 0, 68, 96
2, 762539, Note_off_c, 0, 68, 0
2, 762539, Note_on_c, 0, 64, 96
2, 763221, Note_on_c, 0, 68, 96
2, 763222, Note_off_c, 0, 64, 0
2, 763904, Note_off_c, 0, 68, 0
2, 763904, Note_on_c, 0, 69, 96
2, 765269, Note_off_c, 0, 69, 0
2, 765952, Note_on_c, 0, 68, 96
2, 767317, Note_off_c, 0, 68, 0
2, 768000, Note_on_c, 0, 69, 96
2, 769365, Note_off_c, 0, 69, 0
2, 769365, Note_on_c, 0, 76, 96
2, 770048, Note_off_c, 0, 76, 0
2, 770048, Note_on_c, 0, 76, 96
2, 770731, Note_off_c, 0, 76, 0
2, 770731, Note_on_c, 0, 73, 96
2, 771413, Note_on_c, 0, 76, 96
2, 771414, Note_off_c, 0, 73, 0
2, 772096, Note_off_c, 0, 76, 0
2, 772096, Note_on_c, 0, 76, 96
2, 772779, Note_off_c, 0, 76, 0
2, 772779, Note_on_c, 0, 71, 96
2, 773461, Note_on_c, 0, 76, 96
2, 773462, Note_off_c, 0, 71, 0
2, 774144, Note_off_c, 0, 76, 0
2, 774144, Note_on_c, 0, 73, 96
2, 774827, Note_off_c, 0, 73, 0
2, 774827, Note_on_c, 0, 69, 96
2, 775509, Note_on_c, 0, 73, 96
2, 775510, Note_off_c, 0, 69, 0
2, 776192, Note_off_c, 0, 73, 0
2, 776192, Note_on_c, 0, 73, 96
2, 776875, Note_off_c, 0, 73, 0
2, 776875, Note_on_c, 0, 69, 96
2, 777557, Note_on_c, 0, 73, 96
2, 777558, Note_off_c, 0, 69, 0
2, 778240, Note_off_c, 0, 73, 0
2, 778240, Note_on_c, 0, 73, 96
2, 778923, Note_off_c, 0, 73, 0
2, 778923, Note_on_c, 0, 68, 96
2, 779605, Note_on_c, 0, 73, 96
2, 779606, Note_off_c, 0, 68, 0
2, 780288, Note_off_c, 0, 73, 0
2, 780288, Note_on_c, 0, 69, 96
2, 780971, Note_off_c, 0, 69, 0
2, 780971, Note_on_c, 0, 66, 96
2, 781653, Note_on_c, 0, 69, 96
2, 781654, Note_off_c, 0, 66, 0
2, 782336, Note_off_c, 0, 69, 0
2, 782336, Note_on_c, 0, 73, 96
2, 783019, Note_off_c, 0, 73, 0
2, 783019, Note_on_c, 0, 69, 96
2, 783701, Note_on_c, 0, 73, 96
2, 783702, Note_off_c, 0, 69, 0
2, 784384, Note_off_c, 0, 73, 0
2, 784384, Note_on_c, 0, 76, 96
2, 785067, Note_off_c, 0, 76, 0
2, 785067, Note_on_c, 0, 73, 96
2, 785749, Note_on_c, 0, 76, 96
2, 785750, Note_off_c, 0, 73, 0
2, 786432, Note_off_c, 0, 76, 0
2, 786432, Note_on_c, 0, 75, 96
2, 787115, Note_off_c, 0, 75, 0
2, 787115, Note_on_c, 0, 71, 96
2, 787797, Note_on_c, 0, 75, 96
2, 787798, Note_off_c, 0, 71, 0
2, 788480, Note_off_c, 0, 75, 0
2, 788480, Note_on_c, 0, 78, 96
2, 789163, Note_off_c, 0, 78, 0
2, 789163, Note_on_c, 0, 75, 96
2, 789845, Note_on_c, 0, 78, 96
2, 789846, Note_off_c, 0, 75, 0
2, 790528, Note_off_c, 0, 78, 0
2, 790528, Note_on_c, 0, 83, 96
2, 791211, Note_off_c, 0, 83, 0
2, 791211, Note_on_c, 0, 71, 96
2, 791893, Note_on_c, 0, 74, 96
2, 791894, Note_off_c, 0, 71, 0
2, 792576, Note_off_c, 0, 74, 0
2, 792576, Note_on_c, 0, 73, 96
2, 793259, Note_off_c, 0, 73, 0
2, 800085, Note_on_c, 0, 83, 96
2, 800768, Note_off_c, 0, 83, 0
2, 800768, Note_on_c, 0, 83, 96
2, 801451, Note_off_c, 0, 83, 0
2, 801451, Note_on_c, 0, 80, 96
2, 802133, Note_on_c, 0, 83, 96
2, 802134, Note_off_c, 0, 80, 0
2, 802816, Note_off_c, 0, 83, 0
2, 802816, Note_on_c, 0, 83, 96
2, 803499, Note_off_c, 0, 83, 0
2, 803499, Note_on_c, 0, 78, 96
2, 804181, Note_on_c, 0, 83, 96
2, 804182, Note_off_c, 0, 78, 0
2, 804864, Note_off_c, 0, 83, 0
2, 804864, Note_on_c, 0, 80, 96
2, 805547, Note_off_c, 0, 80, 0
2, 805547, Note_on_c, 0, 76, 96
2, 806229, Note_on_c, 0, 80, 96
2, 806230, Note_off_c, 0, 76, 0
2, 806912, Note_off_c, 0, 80, 0
2, 806912, Note_on_c, 0, 81, 96
2, 808277, Note_off_c, 0, 81, 0
2, 808960, Note_on_c, 0, 80, 96
2, 810325, Note_off_c, 0, 80, 0
2, 811008, Note_on_c, 0, 81, 96
2, 812373, Note_off_c, 0, 81, 0
2, 812373, Note_on_c, 0, 71, 96
2, 813056, Note_off_c, 0, 71, 0
2, 813056, Note_on_c, 0, 73, 96
2, 813739, Note_off_c, 0, 73, 0
2, 813739, Note_on_c, 0, 76, 96
2, 814421, Note_on_c, 0, 73, 96
2, 814422, Note_off_c, 0, 76, 0
2, 815104, Note_off_c, 0, 73, 0
2, 815104, Note_on_c, 0, 71, 96
2, 815787, Note_off_c, 0, 71, 0
2, 815787, Note_on_c, 0, 74, 96
2, 816469, Note_on_c, 0, 71, 96
2, 816470, Note_off_c, 0, 74, 0
2, 817152, Note_off_c, 0, 71, 0
2, 817152, Note_on_c, 0, 73, 96
2, 817835, Note_off_c, 0, 73, 0
2, 817835, Note_on_c, 0, 76, 96
2, 818517, Note_on_c, 0, 68, 96
2, 818518, Note_off_c, 0, 76, 0
2, 819200, Note_off_c, 0, 68, 0
2, 819200, Note_on_c, 0, 69, 96
2, 820565, Note_off_c, 0, 69, 0
2, 821248, Note_on_c, 0, 68, 96
2, 822613, Note_off_c, 0, 68, 0
2, 823296, Note_on_c, 0, 69, 96
2, 824320, Note_off_c, 0, 69, 0
2, 824320, Note_on_c, 0, 73, 96
2, 825344, Note_off_c, 0, 73, 0
2, 825344, Note_on_c, 0, 72, 96
2, 826368, Note_off_c, 0, 72, 0
2, 826368, Note_on_c, 0, 71, 96
2, 827392, Note_off_c, 0, 71, 0
2, 827392, Note_on_c, 0, 70, 96
2, 828416, Note_off_c, 0, 70, 0
2, 828416, Note_on_c, 0, 78, 96
2, 829440, Note_off_c, 0, 78, 0
2, 829440, Note_on_c, 0, 80, 96
2, 830464, Note_off_c, 0, 80, 0
2, 830464, Note_on_c, 0, 82, 96
2, 831488, Note_off_c, 0, 82, 0
2, 831488, Note_on_c, 0, 83, 96
2, 832512, Note_off_c, 0, 83, 0
2, 832512, Note_on_c, 0, 81, 96
2, 833536, Note_off_c, 0, 81, 0
2, 833536, Note_on_c, 0, 79, 96
2, 834560, Note_off_c, 0, 79, 0
2, 834560, Note_on_c, 0, 78, 96
2, 835584, Note_off_c, 0, 78, 0
2, 835584, Note_on_c, 0, 77, 96
2, 836608, Note_off_c, 0, 77, 0
2, 836608, Note_on_c, 0, 78, 96
2, 838656, Note_off_c, 0, 78, 0
2, 838656, Note_on_c, 0, 76, 96
2, 840704, Note_off_c, 0, 76, 0
2, 840704, Note_on_c, 0, 74, 96
2, 842752, Note_off_c, 0, 74, 0
2, 842752, Note_on_c, 0, 73, 96
2, 843776, Note_off_c, 0, 73, 0
2, 843776, Note_on_c, 0, 72, 96
2, 844800, Note_off_c, 0, 72, 0
2, 844800, Note_on_c, 0, 71, 96
2, 845824, Note_off_c, 0, 71, 0
2, 845824, Note_on_c, 0, 70, 96
2, 846848, Note_off_c, 0, 70, 0
2, 846848, Note_on_c, 0, 69, 96
2, 847872, Note_off_c, 0, 69, 0
2, 847872, Note_on_c, 0, 68, 96
2, 849920, Note_off_c, 0, 68, 0
2, 854528, Note_on_c, 0, 64, 96
2, 855040, Note_off_c, 0, 64, 0
2, 855040, Note_on_c, 0, 66, 96
2, 855552, Note_off_c, 0, 66, 0
2, 855552, Note_on_c, 0, 68, 96
2, 856064, Note_off_c, 0, 68, 0
2, 856064, Note_on_c, 0, 69, 96
2, 856576, Note_off_c, 0, 69, 0
2, 856576, Note_on_c, 0, 71, 96
2, 857088, Note_off_c, 0, 71, 0
2, 857088, Note_on_c, 0, 73, 96
2, 857600, Note_off_c, 0, 73, 0
2, 857600, Note_on_c, 0, 74, 96
2, 858112, Note_off_c, 0, 74, 0
2, 858112, Note_on_c, 0, 76, 96
2, 858624, Note_off_c, 0, 76, 0
2, 858624, Note_on_c, 0, 73, 96
2, 859136, Note_off_c, 0, 73, 0
2, 859136, Note_on_c, 0, 71, 96
2, 859648, Note_off_c, 0, 71, 0
2, 859648, Note_on_c, 0, 69, 96
2, 860160, Note_off_c, 0, 69, 0
2, 860160, Note_on_c, 0, 74, 96
2, 862720, Note_off_c, 0, 74, 0
2, 862720, Note_on_c, 0, 73, 96
2, 863232, Note_off_c, 0, 73, 0
2, 863232, Note_on_c, 0, 74, 96
2, 863744, Note_off_c, 0, 74, 0
2, 863744, Note_on_c, 0, 76, 96
2, 864256, Note_off_c, 0, 76, 0
2, 864256, Note_on_c, 0, 78, 96
2, 864768, Note_off_c, 0, 78, 0
2, 864768, Note_on_c, 0, 74, 96
2, 865280, Note_off_c, 0, 74, 0
2, 865280, Note_on_c, 0, 76, 96
2, 865792, Note_off_c, 0, 76, 0
2, 865792, Note_on_c, 0, 78, 96
2, 866304, Note_off_c, 0, 78, 0
2, 866304, Note_on_c, 0, 71, 96
2, 868352, Note_off_c, 0, 71, 0
2, 868352, Note_on_c, 0, 73, 96
2, 868864, Note_off_c, 0, 73, 0
2, 868864, Note_on_c, 0, 74, 96
2, 869376, Note_off_c, 0, 74, 0
2, 869376, Note_on_c, 0, 76, 96
2, 871424, Note_off_c, 0, 76, 0
2, 871424, Note_on_c, 0, 76, 96
2, 872960, Note_off_c, 0, 76, 0
2, 872960, Note_on_c, 0, 76, 96
2, 873472, Note_off_c, 0, 76, 0
2, 873472, Note_on_c, 0, 74, 96
2, 873984, Note_off_c, 0, 74, 0
2, 873984, Note_on_c, 0, 73, 96
2, 874496, Note_off_c, 0, 73, 0
2, 874496, Note_on_c, 0, 74, 96
2, 878592, Note_off_c, 0, 74, 0
2, 878592, Note_on_c, 0, 73, 96
2, 880640, Note_off_c, 0, 73, 0
2, 891392, Note_on_c, 0, 69, 96
2, 891904, Note_off_c, 0, 69, 0
2, 891904, Note_on_c, 0, 71, 96
2, 892416, Note_off_c, 0, 71, 0
2, 892416, Note_on_c, 0, 73, 96
2, 892928, Note_off_c, 0, 73, 0
2, 892928, Note_on_c, 0, 74, 96
2, 893440, Note_off_c, 0, 74, 0
2, 893440, Note_on_c, 0, 76, 96
2, 893952, Note_off_c, 0, 76, 0
2, 893952, Note_on_c, 0, 78, 96
2, 894464, Note_off_c, 0, 78, 0
2, 894464, Note_on_c, 0, 79, 96
2, 894976, Note_off_c, 0, 79, 0
2, 894976, Note_on_c, 0, 81, 96
2, 895488, Note_off_c, 0, 81, 0
2, 895488, Note_on_c, 0, 79, 96
2, 896000, Note_off_c, 0, 79, 0
2, 896000, Note_on_c, 0, 78, 96
2, 896512, Note_off_c, 0, 78, 0
2, 896512, Note_on_c, 0, 76, 96
2, 897024, Note_off_c, 0, 76, 0
2, 897024, Note_on_c, 0, 78, 96
2, 899584, Note_off_c, 0, 78, 0
2, 899584, Note_on_c, 0, 76, 96
2, 900096, Note_off_c, 0, 76, 0
2, 900096, Note_on_c, 0, 74, 96
2, 900608, Note_off_c, 0, 74, 0
2, 900608, Note_on_c, 0, 76, 96
2, 901120, Note_off_c, 0, 76, 0
2, 901120, Note_on_c, 0, 78, 96
2, 901632, Note_off_c, 0, 78, 0
2, 901632, Note_on_c, 0, 81, 96
2, 902144, Note_off_c, 0, 81, 0
2, 902144, Note_on_c, 0, 79, 96
2, 902656, Note_off_c, 0, 79, 0
2, 902656, Note_on_c, 0, 78, 96
2, 903168, Note_off_c, 0, 78, 0
2, 903168, Note_on_c, 0, 76, 96
2, 903680, Note_off_c, 0, 76, 0
2, 903680, Note_on_c, 0, 81, 96
2, 904192, Note_off_c, 0, 81, 0
2, 904192, Note_on_c, 0, 80, 96
2, 904704, Note_off_c, 0, 80, 0
2, 904704, Note_on_c, 0, 78, 96
2, 905216, Note_off_c, 0, 78, 0
2, 905216, Note_on_c, 0, 76, 96
2, 905728, Note_off_c, 0, 76, 0
2, 905728, Note_on_c, 0, 74, 96
2, 906240, Note_off_c, 0, 74, 0
2, 906240, Note_on_c, 0, 73, 96
2, 906752, Note_off_c, 0, 73, 0
2, 906752, Note_on_c, 0, 71, 96
2, 907264, Note_off_c, 0, 71, 0
2, 907264, Note_on_c, 0, 69, 96
2, 907776, Note_off_c, 0, 69, 0
2, 907776, Note_on_c, 0, 73, 96
2, 908288, Note_off_c, 0, 73, 0
2, 908288, Note_on_c, 0, 71, 96
2, 908800, Note_off_c, 0, 71, 0
2, 908800, Note_on_c, 0, 69, 96
2, 909312, Note_off_c, 0, 69, 0
2, 909312, Note_on_c, 0, 74, 96
2, 922112, Note_off_c, 0, 74, 0
2, 922112, Note_on_c, 0, 71, 96
2, 922624, Note_off_c, 0, 71, 0
2, 922624, Note_on_c, 0, 73, 96
2, 923136, Note_off_c, 0, 73, 0
2, 923136, Note_on_c, 0, 74, 96
2, 923648, Note_off_c, 0, 74, 0
2, 924160, Note_on_c, 0, 69, 96
2, 924672, Note_off_c, 0, 69, 0
2, 924672, Note_on_c, 0, 71, 96
2, 925184, Note_off_c, 0, 71, 0
2, 925184, Note_on_c, 0, 73, 96
2, 925696, Note_off_c, 0, 73, 0
2, 925696, Note_on_c, 0, 74, 96
2, 926208, Note_off_c, 0, 74, 0
2, 926208, Note_on_c, 0, 76, 96
2, 926720, Note_off_c, 0, 76, 0
2, 926720, Note_on_c, 0, 78, 96
2, 927232, Note_off_c, 0, 78, 0
2, 927232, Note_on_c, 0, 80, 96
2, 927744, Note_off_c, 0, 80, 0
2, 927744, Note_on_c, 0, 81, 96
2, 933888, Note_off_c, 0, 81, 0
2, 934912, End_track
3, 0, Start_track
3, 0, Title_t, "Instrument 2"
3, 10240, Note_on_c, 1, 64, 96
3, 12288, Note_off_c, 1, 64, 0
3, 12288, Note_on_c, 1, 66, 96
3, 18432, Note_off_c, 1, 66, 0
3, 18432, Note_on_c, 1, 64, 96
3, 24576, Note_off_c, 1, 64, 0
3, 24576, Note_on_c, 1, 62, 96
3, 29184, Note_off_c, 1, 62, 0
3, 29184, Note_on_c, 1, 66, 96
3, 29696, Note_off_c, 1, 66, 0
3, 29696, Note_on_c, 1, 64, 96
3, 30208, Note_off_c, 1, 64, 0
3, 30208, Note_on_c, 1, 62, 96
3, 30720, Note_off_c, 1, 62, 0
3, 30720, Note_on_c, 1, 61, 96
3, 33280, Note_off_c, 1, 61, 0
3, 33280, Note_on_c, 1, 64, 96
3, 33792, Note_off_c, 1, 64, 0
3, 33792, Note_on_c, 1, 62, 96
3, 34304, Note_off_c, 1, 62, 0
3, 34304, Note_on_c, 1, 61, 96
3, 34816, Note_off_c, 1, 61, 0
3, 34816, Note_on_c, 1, 59, 96
3, 37376, Note_off_c, 1, 59, 0
3, 37376, Note_on_c, 1, 64, 96
3, 37888, Note_off_c, 1, 64, 0
3, 37888, Note_on_c, 1, 63, 96
3, 38400, Note_off_c, 1, 63, 0
3, 38400, Note_on_c, 1, 64, 96
3, 38912, Note_off_c, 1, 64, 0
3, 38912, Note_on_c, 1, 66, 96
3, 39424, Note_off_c, 1, 66, 0
3, 39424, Note_on_c, 1, 68, 96
3, 39936, Note_off_c, 1, 68, 0
3, 39936, Note_on_c, 1, 66, 96
3, 40448, Note_off_c, 1, 66, 0
3, 40448, Note_on_c, 1, 68, 96
3, 40960, Note_off_c, 1, 68, 0
3, 40960, Note_on_c, 1, 68, 96
3, 42496, Note_off_c, 1, 68, 0
3, 42496, Note_on_c, 1, 66, 96
3, 42752, Note_off_c, 1, 66, 0
3, 42752, Note_on_c, 1, 68, 96
3, 43008, Note_off_c, 1, 68, 0
3, 43008, Note_on_c, 1, 69, 96
3, 45568, Note_off_c, 1, 69, 0
3, 45568, Note_on_c, 1, 71, 96
3, 46080, Note_off_c, 1, 71, 0
3, 46080, Note_on_c, 1, 69, 96
3, 46592, Note_off_c, 1, 69, 0
3, 46592, Note_on_c, 1, 67, 96
3, 47104, Note_off_c, 1, 67, 0
3, 47104, Note_on_c, 1, 66, 96
3, 47616, Note_off_c, 1, 66, 0
3, 47616, Note_on_c, 1, 64, 96
3, 48128, Note_off_c, 1, 64, 0
3, 48128, Note_on_c, 1, 66, 96
3, 48640, Note_off_c, 1, 66, 0
3, 48640, Note_on_c, 1, 62, 96
3, 49152, Note_off_c, 1, 62, 0
3, 49152, Note_on_c, 1, 68, 96
3, 51712, Note_off_c, 1, 68, 0
3, 51712, Note_on_c, 1, 64, 96
3, 52224, Note_off_c, 1, 64, 0
3, 52224, Note_on_c, 1, 69, 96
3, 53760, Note_off_c, 1, 69, 0
3, 53760, Note_on_c, 1, 71, 96
3, 54272, Note_off_c, 1, 71, 0
3, 54272, Note_on_c, 1, 69, 96
3, 54784, Note_off_c, 1, 69, 0
3, 54784, Note_on_c, 1, 68, 96
3, 55296, Note_off_c, 1, 68, 0
3, 55296, Note_on_c, 1, 69, 96
3, 57856, Note_off_c, 1, 69, 0
3, 57856, Note_on_c, 1, 71, 96
3, 58368, Note_off_c, 1, 71, 0
3, 58368, Note_on_c, 1, 69, 96
3, 58880, Note_off_c, 1, 69, 0
3, 58880, Note_on_c, 1, 67, 96
3, 59392, Note_off_c, 1, 67, 0
3, 59392, Note_on_c, 1, 66, 96
3, 59904, Note_off_c, 1, 66, 0
3, 59904, Note_on_c, 1, 64, 96
3, 60416, Note_off_c, 1, 64, 0
3, 60416, Note_on_c, 1, 66, 96
3, 60928, Note_off_c, 1, 66, 0
3, 60928, Note_on_c, 1, 62, 96
3, 61440, Note_off_c, 1, 62, 0
3, 61440, Note_on_c, 1, 57, 96
3, 63488, Note_off_c, 1, 57, 0
3, 65536, Note_on_c, 1, 69, 96
3, 67584, Note_off_c, 1, 69, 0
3, 68096, Note_on_c, 1, 74, 96
3, 68608, Note_off_c, 1, 74, 0
3, 68608, Note_on_c, 1, 73, 96
3, 69120, Note_off_c, 1, 73, 0
3, 69120, Note_on_c, 1, 71, 96
3, 69632, Note_off_c, 1, 71, 0
3, 69632, Note_on_c, 1, 73, 96
3, 70656, Note_off_c, 1, 73, 0
3, 70656, Note_on_c, 1, 68, 96
3, 71680, Note_off_c, 1, 68, 0
3, 71680, Note_on_c, 1, 69, 96
3, 74240, Note_off_c, 1, 69, 0
3, 74240, Note_on_c, 1, 69, 96
3, 74752, Note_off_c, 1, 69, 0
3, 74752, Note_on_c, 1, 71, 96
3, 75264, Note_off_c, 1, 71, 0
3, 75264, Note_on_c, 1, 73, 96
3, 75776, Note_off_c, 1, 73, 0
3, 75776, Note_on_c, 1, 74, 96
3, 76288, Note_off_c, 1, 74, 0
3, 76288, Note_on_c, 1, 73, 96
3, 76800, Note_off_c, 1, 73, 0
3, 76800, Note_on_c, 1, 74, 96
3, 80384, Note_off_c, 1, 74, 0
3, 80384, Note_on_c, 1, 74, 96
3, 80896, Note_off_c, 1, 74, 0
3, 80896, Note_on_c, 1, 73, 96
3, 81408, Note_off_c, 1, 73, 0
3, 81408, Note_on_c, 1, 71, 96
3, 81920, Note_off_c, 1, 71, 0
3, 81920, Note_on_c, 1, 73, 96
3, 82944, Note_off_c, 1, 73, 0
3, 82944, Note_on_c, 1, 71, 96
3, 83456, Note_off_c, 1, 71, 0
3, 83456, Note_on_c, 1, 69, 96
3, 83968, Note_off_c, 1, 69, 0
3, 83968, Note_on_c, 1, 68, 96
3, 86528, Note_off_c, 1, 68, 0
3, 86528, Note_on_c, 1, 68, 96
3, 87040, Note_off_c, 1, 68, 0
3, 87040, Note_on_c, 1, 66, 96
3, 87552, Note_off_c, 1, 66, 0
3, 87552, Note_on_c, 1, 65, 96
3, 88064, Note_off_c, 1, 65, 0
3, 88064, Note_on_c, 1, 66, 96
3, 89088, Note_off_c, 1, 66, 0
3, 89088, Note_on_c, 1, 62, 96
3, 91136, Note_off_c, 1, 62, 0
3, 91136, Note_on_c, 1, 64, 96
3, 92672, Note_off_c, 1, 64, 0
3, 92672, Note_on_c, 1, 64, 96
3, 93184, Note_off_c, 1, 64, 0
3, 93184, Note_on_c, 1, 66, 96
3, 93696, Note_off_c, 1, 66, 0
3, 93696, Note_on_c, 1, 68, 96
3, 94208, Note_off_c, 1, 68, 0
3, 94208, Note_on_c, 1, 69, 96
3, 95232, Note_off_c, 1, 69, 0
3, 95232, Note_on_c, 1, 64, 96
3, 96256, Note_off_c, 1, 64, 0
3, 96256, Note_on_c, 1, 69, 96
3, 96768, Note_off_c, 1, 69, 0
3, 96768, Note_on_c, 1, 73, 96
3, 97280, Note_off_c, 1, 73, 0
3, 97280, Note_on_c, 1, 71, 96
3, 97792, Note_off_c, 1, 71, 0
3, 97792, Note_on_c, 1, 69, 96
3, 98304, Note_off_c, 1, 69, 0
3, 98304, Note_on_c, 1, 68, 96
3, 100864, Note_off_c, 1, 68, 0
3, 100864, Note_on_c, 1, 68, 96
3, 101376, Note_off_c, 1, 68, 0
3, 101376, Note_on_c, 1, 69, 96
3, 103424, Note_off_c, 1, 69, 0
3, 103424, Note_on_c, 1, 68, 96
3, 104448, Note_off_c, 1, 68, 0
3, 104960, Note_on_c, 1, 66, 96
3, 105472, Note_off_c, 1, 66, 0
3, 105472, Note_on_c, 1, 64, 96
3, 105984, Note_off_c, 1, 64, 0
3, 105984, Note_on_c, 1, 62, 96
3, 106496, Note_off_c, 1, 62, 0
3, 106496, Note_on_c, 1, 61, 96
3, 107520, Note_off_c, 1, 61, 0
3, 107520, Note_on_c, 1, 64, 96
3, 108544, Note_off_c, 1, 64, 0
3, 108544, Note_on_c, 1, 57, 96
3, 109568, Note_off_c, 1, 57, 0
3, 109568, Note_on_c, 1, 66, 96
3, 111104, Note_off_c, 1, 66, 0
3, 111104, Note_on_c, 1, 66, 96
3, 111616, Note_off_c, 1, 66, 0
3, 111616, Note_on_c, 1, 64, 96
3, 112128, Note_off_c, 1, 64, 0
3, 112128, Note_on_c, 1, 62, 96
3, 112640, Note_off_c, 1, 62, 0
3, 112640, Note_on_c, 1, 64, 96
3, 116736, Note_off_c, 1, 64, 0
3, 117248, Note_on_c, 1, 56, 96
3, 117760, Note_off_c, 1, 56, 0
3, 117760, Note_on_c, 1, 57, 96
3, 118272, Note_off_c, 1, 57, 0
3, 118272, Note_on_c, 1, 59, 96
3, 118784, Note_off_c, 1, 59, 0
3, 118784, Note_on_c, 1, 61, 96
3, 119296, Note_off_c, 1, 61, 0
3, 119296, Note_on_c, 1, 62, 96
3, 119808, Note_off_c, 1, 62, 0
3, 119808, Note_on_c, 1, 61, 96
3, 120320, Note_off_c, 1, 61, 0
3, 120320, Note_on_c, 1, 62, 96
3, 120832, Note_off_c, 1, 62, 0
3, 120832, Note_on_c, 1, 62, 96
3, 122368, Note_off_c, 1, 62, 0
3, 122368, Note_on_c, 1, 61, 96
3, 122624, Note_off_c, 1, 61, 0
3, 122624, Note_on_c, 1, 62, 96
3, 122880, Note_off_c, 1, 62, 0
3, 122880, Note_on_c, 1, 64, 96
3, 124928, Note_off_c, 1, 64, 0
3, 126976, Note_on_c, 1, 64, 96
3, 129024, Note_off_c, 1, 64, 0
3, 129024, Note_on_c, 1, 66, 96
3, 135168, Note_off_c, 1, 66, 0
3, 135168, Note_on_c, 1, 64, 96
3, 141312, Note_off_c, 1, 64, 0
3, 141312, Note_on_c, 1, 62, 96
3, 145920, Note_off_c, 1, 62, 0
3, 145920, Note_on_c, 1, 66, 96
3, 146432, Note_off_c, 1, 66, 0
3, 146432, Note_on_c, 1, 64, 96
3, 146944, Note_off_c, 1, 64, 0
3, 146944, Note_on_c, 1, 62, 96
3, 147456, Note_off_c, 1, 62, 0
3, 147456, Note_on_c, 1, 61, 96
3, 150016, Note_off_c, 1, 61, 0
3, 150016, Note_on_c, 1, 64, 96
3, 150528, Note_off_c, 1, 64, 0
3, 150528, Note_on_c, 1, 62, 96
3, 151040, Note_off_c, 1, 62, 0
3, 151040, Note_on_c, 1, 61, 96
3, 151552, Note_off_c, 1, 61, 0
3, 151552, Note_on_c, 1, 59, 96
3, 154112, Note_off_c, 1, 59, 0
3, 154112, Note_on_c, 1, 64, 96
3, 154624, Note_off_c, 1, 64, 0
3, 154624, Note_on_c, 1, 63, 96
3, 155136, Note_off_c, 1, 63, 0
3, 155136, Note_on_c, 1, 64, 96
3, 155648, Note_off_c, 1, 64, 0
3, 155648, Note_on_c, 1, 66, 96
3, 156160, Note_off_c, 1, 66, 0
3, 156160, Note_on_c, 1, 68, 96
3, 156672, Note_off_c, 1, 68, 0
3, 156672, Note_on_c, 1, 66, 96
3, 157184, Note_off_c, 1, 66, 0
3, 157184, Note_on_c, 1, 68, 96
3, 157696, Note_off_c, 1, 68, 0
3, 157696, Note_on_c, 1, 68, 96
3, 159232, Note_off_c, 1, 68, 0
3, 159232, Note_on_c, 1, 66, 96
3, 159488, Note_off_c, 1, 66, 0
3, 159488, Note_on_c, 1, 68, 96
3, 159744, Note_off_c, 1, 68, 0
3, 159744, Note_on_c, 1, 69, 96
3, 162304, Note_off_c, 1, 69, 0
3, 162304, Note_on_c, 1, 71, 96
3, 162816, Note_off_c, 1, 71, 0
3, 162816, Note_on_c, 1, 69, 96
3, 163328, Note_off_c, 1, 69, 0
3, 163328, Note_on_c, 1, 67, 96
3, 163840, Note_off_c, 1, 67, 0
3, 163840, Note_on_c, 1, 66, 96
3, 164352, Note_off_c, 1, 66, 0
3, 164352, Note_on_c, 1, 64, 96
3, 164864, Note_off_c, 1, 64, 0
3, 164864, Note_on_c, 1, 66, 96
3, 165376, Note_off_c, 1, 66, 0
3, 165376, Note_on_c, 1, 62, 96
3, 165888, Note_off_c, 1, 62, 0
3, 165888, Note_on_c, 1, 68, 96
3, 168448, Note_off_c, 1, 68, 0
3, 168448, Note_on_c, 1, 64, 96
3, 168960, Note_off_c, 1, 64, 0
3, 168960, Note_on_c, 1, 69, 96
3, 170496, Note_off_c, 1, 69, 0
3, 170496, Note_on_c, 1, 71, 96
3, 171008, Note_off_c, 1, 71, 0
3, 171008, Note_on_c, 1, 69, 96
3, 171520, Note_off_c, 1, 69, 0
3, 171520, Note_on_c, 1, 68, 96
3, 172032, Note_off_c, 1, 68, 0
3, 172032, Note_on_c, 1, 69, 96
3, 174592, Note_off_c, 1, 69, 0
3, 174592, Note_on_c, 1, 71, 96
3, 175104, Note_off_c, 1, 71, 0
3, 175104, Note_on_c, 1, 69, 96
3, 175616, Note_off_c, 1, 69, 0
3, 175616, Note_on_c, 1, 67, 96
3, 176128, Note_off_c, 1, 67, 0
3, 176128, Note_on_c, 1, 66, 96
3, 176640, Note_off_c, 1, 66, 0
3, 176640, Note_on_c, 1, 64, 96
3, 177152, Note_off_c, 1, 64, 0
3, 177152, Note_on_c, 1, 66, 96
3, 177664, Note_off_c, 1, 66, 0
3, 177664, Note_on_c, 1, 62, 96
3, 178176, Note_off_c, 1, 62, 0
3, 178176, Note_on_c, 1, 57, 96
3, 180224, Note_off_c, 1, 57, 0
3, 182272, Note_on_c, 1, 69, 96
3, 184320, Note_off_c, 1, 69, 0
3, 184832, Note_on_c, 1, 74, 96
3, 185344, Note_off_c, 1, 74, 0
3, 185344, Note_on_c, 1, 73, 96
3, 185856, Note_off_c, 1, 73, 0
3, 185856, Note_on_c, 1, 71, 96
3, 186368, Note_off_c, 1, 71, 0
3, 186368, Note_on_c, 1, 73, 96
3, 187392, Note_off_c, 1, 73, 0
3, 187392, Note_on_c, 1, 68, 96
3, 188416, Note_off_c, 1, 68, 0
3, 188416, Note_on_c, 1, 69, 96
3, 190976, Note_off_c, 1, 69, 0
3, 190976, Note_on_c, 1, 69, 96
3, 191488, Note_off_c, 1, 69, 0
3, 191488, Note_on_c, 1, 71, 96
3, 192000, Note_off_c, 1, 71, 0
3, 192000, Note_on_c, 1, 73, 96
3, 192512, Note_off_c, 1, 73, 0
3, 192512, Note_on_c, 1, 74, 96
3, 193024, Note_off_c, 1, 74, 0
3, 193024, Note_on_c, 1, 73, 96
3, 193536, Note_off_c, 1, 73, 0
3, 193536, Note_on_c, 1, 74, 96
3, 197120, Note_off_c, 1, 74, 0
3, 197120, Note_on_c, 1, 74, 96
3, 197632, Note_off_c, 1, 74, 0
3, 197632, Note_on_c, 1, 73, 96
3, 198144, Note_off_c, 1, 73, 0
3, 198144, Note_on_c, 1, 71, 96
3, 198656, Note_off_c, 1, 71, 0
3, 198656, Note_on_c, 1, 73, 96
3, 199680, Note_off_c, 1, 73, 0
3, 199680, Note_on_c, 1, 71, 96
3, 200192, Note_off_c, 1, 71, 0
3, 200192, Note_on_c, 1, 69, 96
3, 200704, Note_off_c, 1, 69, 0
3, 200704, Note_on_c, 1, 68, 96
3, 203264, Note_off_c, 1, 68, 0
3, 203264, Note_on_c, 1, 68, 96
3, 203776, Note_off_c, 1, 68, 0
3, 203776, Note_on_c, 1, 66, 96
3, 204288, Note_off_c, 1, 66, 0
3, 204288, Note_on_c, 1, 65, 96
3, 204800, Note_off_c, 1, 65, 0
3, 204800, Note_on_c, 1, 66, 96
3, 205824, Note_off_c, 1, 66, 0
3, 205824, Note_on_c, 1, 62, 96
3, 207872, Note_off_c, 1, 62, 0
3, 207872, Note_on_c, 1, 64, 96
3, 209408, Note_off_c, 1, 64, 0
3, 209408, Note_on_c, 1, 64, 96
3, 209920, Note_off_c, 1, 64, 0
3, 209920, Note_on_c, 1, 66, 96
3, 210432, Note_off_c, 1, 66, 0
3, 210432, Note_on_c, 1, 68, 96
3, 210944, Note_off_c, 1, 68, 0
3, 210944, Note_on_c, 1, 69, 96
3, 211968, Note_off_c, 1, 69, 0
3, 211968, Note_on_c, 1, 64, 96
3, 212992, Note_off_c, 1, 64, 0
3, 212992, Note_on_c, 1, 69, 96
3, 213504, Note_off_c, 1, 69, 0
3, 213504, Note_on_c, 1, 73, 96
3, 214016, Note_off_c, 1, 73, 0
3, 214016, Note_on_c, 1, 71, 96
3, 214528, Note_off_c, 1, 71, 0
3, 214528, Note_on_c, 1, 69, 96
3, 215040, Note_off_c, 1, 69, 0
3, 215040, Note_on_c, 1, 68, 96
3, 217600, Note_off_c, 1, 68, 0
3, 217600, Note_on_c, 1, 68, 96
3, 218112, Note_off_c, 1, 68, 0
3, 218112, Note_on_c, 1, 69, 96
3, 220160, Note_off_c, 1, 69, 0
3, 220160, Note_on_c, 1, 68, 96
3, 221184, Note_off_c, 1, 68, 0
3, 221696, Note_on_c, 1, 66, 96
3, 222208, Note_off_c, 1, 66, 0
3, 222208, Note_on_c, 1, 64, 96
3, 222720, Note_off_c, 1, 64, 0
3, 222720, Note_on_c, 1, 62, 96
3, 223232, Note_off_c, 1, 62, 0
3, 223232, Note_on_c, 1, 61, 96
3, 224256, Note_off_c, 1, 61, 0
3, 224256, Note_on_c, 1, 64, 96
3, 225280, Note_off_c, 1, 64, 0
3, 225280, Note_on_c, 1, 57, 96
3, 226304, Note_off_c, 1, 57, 0
3, 226304, Note_on_c, 1, 66, 96
3, 227840, Note_off_c, 1, 66, 0
3, 227840, Note_on_c, 1, 66, 96
3, 228352, Note_off_c, 1, 66, 0
3, 228352, Note_on_c, 1, 64, 96
3, 228864, Note_off_c, 1, 64, 0
3, 228864, Note_on_c, 1, 62, 96
3, 229376, Note_off_c, 1, 62, 0
3, 229376, Note_on_c, 1, 64, 96
3, 233472, Note_off_c, 1, 64, 0
3, 242176, Note_on_c, 1, 61, 96
3, 242688, Note_off_c, 1, 61, 0
3, 242688, Note_on_c, 1, 63, 96
3, 243200, Note_off_c, 1, 63, 0
3, 243200, Note_on_c, 1, 64, 96
3, 243712, Note_off_c, 1, 64, 0
3, 243712, Note_on_c, 1, 66, 96
3, 244224, Note_off_c, 1, 66, 0
3, 244224, Note_on_c, 1, 68, 96
3, 244736, Note_off_c, 1, 68, 0
3, 244736, Note_on_c, 1, 66, 96
3, 245248, Note_off_c, 1, 66, 0
3, 245248, Note_on_c, 1, 69, 96
3, 245760, Note_off_c, 1, 69, 0
3, 245760, Note_on_c, 1, 63, 96
3, 246272, Note_off_c, 1, 63, 0
3, 246272, Note_on_c, 1, 59, 96
3, 246784, Note_off_c, 1, 59, 0
3, 246784, Note_on_c, 1, 61, 96
3, 247296, Note_off_c, 1, 61, 0
3, 247296, Note_on_c, 1, 63, 96
3, 247808, Note_off_c, 1, 63, 0
3, 247808, Note_on_c, 1, 64, 96
3, 252416, Note_off_c, 1, 64, 0
3, 252416, Note_on_c, 1, 63, 96
3, 252928, Note_off_c, 1, 63, 0
3, 252928, Note_on_c, 1, 64, 96
3, 253440, Note_off_c, 1, 64, 0
3, 253440, Note_on_c, 1, 66, 96
3, 253952, Note_off_c, 1, 66, 0
3, 253952, Note_on_c, 1, 59, 96
3, 254976, Note_off_c, 1, 59, 0
3, 254976, Note_on_c, 1, 64, 96
3, 256512, Note_off_c, 1, 64, 0
3, 256512, Note_on_c, 1, 64, 96
3, 257024, Note_off_c, 1, 64, 0
3, 257024, Note_on_c, 1, 63, 96
3, 258048, Note_off_c, 1, 63, 0
3, 258048, Note_on_c, 1, 64, 96
3, 258560, Note_off_c, 1, 64, 0
3, 258560, Note_on_c, 1, 62, 96
3, 259072, Note_off_c, 1, 62, 0
3, 259072, Note_on_c, 1, 61, 96
3, 259584, Note_off_c, 1, 61, 0
3, 259584, Note_on_c, 1, 59, 96
3, 260096, Note_off_c, 1, 59, 0
3, 260096, Note_on_c, 1, 61, 96
3, 261120, Note_off_c, 1, 61, 0
3, 261120, Note_on_c, 1, 59, 96
3, 261632, Note_off_c, 1, 59, 0
3, 261632, Note_on_c, 1, 57, 96
3, 262144, Note_off_c, 1, 57, 0
3, 262144, Note_on_c, 1, 56, 96
3, 263168, Note_off_c, 1, 56, 0
3, 263168, Note_on_c, 1, 68, 96
3, 264192, Note_off_c, 1, 68, 0
3, 264192, Note_on_c, 1, 69, 96
3, 264704, Note_off_c, 1, 69, 0
3, 264704, Note_on_c, 1, 74, 96
3, 265216, Note_off_c, 1, 74, 0
3, 265216, Note_on_c, 1, 73, 96
3, 265728, Note_off_c, 1, 73, 0
3, 265728, Note_on_c, 1, 71, 96
3, 266240, Note_off_c, 1, 71, 0
3, 266240, Note_on_c, 1, 73, 96
3, 269312, Note_off_c, 1, 73, 0
3, 269312, Note_on_c, 1, 71, 96
3, 270848, Note_off_c, 1, 71, 0
3, 270848, Note_on_c, 1, 64, 96
3, 271360, Note_off_c, 1, 64, 0
3, 271360, Note_on_c, 1, 66, 96
3, 271872, Note_off_c, 1, 66, 0
3, 271872, Note_on_c, 1, 68, 96
3, 272384, Note_off_c, 1, 68, 0
3, 272384, Note_on_c, 1, 69, 96
3, 275456, Note_off_c, 1, 69, 0
3, 275456, Note_on_c, 1, 74, 96
3, 276992, Note_off_c, 1, 74, 0
3, 276992, Note_on_c, 1, 74, 96
3, 277504, Note_off_c, 1, 74, 0
3, 277504, Note_on_c, 1, 73, 96
3, 278016, Note_off_c, 1, 73, 0
3, 278016, Note_on_c, 1, 71, 96
3, 278528, Note_off_c, 1, 71, 0
3, 278528, Note_on_c, 1, 73, 96
3, 281600, Note_off_c, 1, 73, 0
3, 281600, Note_on_c, 1, 71, 96
3, 283136, Note_off_c, 1, 71, 0
3, 283136, Note_on_c, 1, 69, 96
3, 283648, Note_off_c, 1, 69, 0
3, 283648, Note_on_c, 1, 68, 96
3, 284160, Note_off_c, 1, 68, 0
3, 284160, Note_on_c, 1, 66, 96
3, 284672, Note_off_c, 1, 66, 0
3, 284672, Note_on_c, 1, 65, 96
3, 286720, Note_off_c, 1, 65, 0
3, 289280, Note_on_c, 1, 59, 96
3, 289792, Note_off_c, 1, 59, 0
3, 289792, Note_on_c, 1, 61, 96
3, 290304, Note_off_c, 1, 61, 0
3, 290304, Note_on_c, 1, 62, 96
3, 290816, Note_off_c, 1, 62, 0
3, 290816, Note_on_c, 1, 64, 96
3, 293888, Note_off_c, 1, 64, 0
3, 293888, Note_on_c, 1, 69, 96
3, 295424, Note_off_c, 1, 69, 0
3, 295424, Note_on_c, 1, 69, 96
3, 295936, Note_off_c, 1, 69, 0
3, 295936, Note_on_c, 1, 68, 96
3, 296448, Note_off_c, 1, 68, 0
3, 296448, Note_on_c, 1, 66, 96
3, 296960, Note_off_c, 1, 66, 0
3, 296960, Note_on_c, 1, 68, 96
3, 297984, Note_off_c, 1, 68, 0
3, 297984, Note_on_c, 1, 70, 96
3, 299008, Note_off_c, 1, 70, 0
3, 299008, Note_on_c, 1, 71, 96
3, 301568, Note_off_c, 1, 71, 0
3, 301568, Note_on_c, 1, 73, 96
3, 302080, Note_off_c, 1, 73, 0
3, 302080, Note_on_c, 1, 71, 96
3, 302592, Note_off_c, 1, 71, 0
3, 302592, Note_on_c, 1, 69, 96
3, 303104, Note_off_c, 1, 69, 0
3, 303104, Note_on_c, 1, 68, 96
3, 304128, Note_off_c, 1, 68, 0
3, 304128, Note_on_c, 1, 71, 96
3, 306176, Note_off_c, 1, 71, 0
3, 306176, Note_on_c, 1, 64, 96
3, 307200, Note_off_c, 1, 64, 0
3, 307200, Note_on_c, 1, 69, 96
3, 311296, Note_off_c, 1, 69, 0
3, 311296, Note_on_c, 1, 68, 96
3, 313344, Note_off_c, 1, 68, 0
3, 313856, Note_on_c, 1, 52, 96
3, 314368, Note_off_c, 1, 52, 0
3, 314368, Note_on_c, 1, 54, 96
3, 314880, Note_off_c, 1, 54, 0
3, 314880, Note_on_c, 1, 56, 96
3, 315392, Note_off_c, 1, 56, 0
3, 315392, Note_on_c, 1, 57, 96
3, 315904, Note_off_c, 1, 57, 0
3, 315904, Note_on_c, 1, 59, 96
3, 316416, Note_off_c, 1, 59, 0
3, 316416, Note_on_c, 1, 61, 96
3, 316928, Note_off_c, 1, 61, 0
3, 316928, Note_on_c, 1, 62, 96
3, 317440, Note_off_c, 1, 62, 0
3, 317440, Note_on_c, 1, 64, 96
3, 320000, Note_off_c, 1, 64, 0
3, 320000, Note_on_c, 1, 57, 96
3, 320512, Note_off_c, 1, 57, 0
3, 320512, Note_on_c, 1, 59, 96
3, 321024, Note_off_c, 1, 59, 0
3, 321024, Note_on_c, 1, 61, 96
3, 321536, Note_off_c, 1, 61, 0
3, 321536, Note_on_c, 1, 62, 96
3, 322048, Note_off_c, 1, 62, 0
3, 322048, Note_on_c, 1, 64, 96
3, 322560, Note_off_c, 1, 64, 0
3, 322560, Note_on_c, 1, 66, 96
3, 323072, Note_off_c, 1, 66, 0
3, 323072, Note_on_c, 1, 61, 96
3, 323584, Note_off_c, 1, 61, 0
3, 323584, Note_on_c, 1, 62, 96
3, 324608, Note_off_c, 1, 62, 0
3, 324608, Note_on_c, 1, 66, 96
3, 326144, Note_off_c, 1, 66, 0
3, 326144, Note_on_c, 1, 66, 96
3, 326656, Note_off_c, 1, 66, 0
3, 326656, Note_on_c, 1, 64, 96
3, 327168, Note_off_c, 1, 64, 0
3, 327680, Note_on_c, 1, 64, 96
3, 332288, Note_on_c, 1, 68, 96
3, 332800, Note_off_c, 1, 68, 0
3, 332800, Note_on_c, 1, 69, 96
3, 333312, Note_off_c, 1, 64, 0
3, 333312, Note_on_c, 1, 64, 96
3, 334848, Note_off_c, 1, 64, 0
3, 334848, Note_off_c, 1, 69, 0
3, 337920, Note_on_c, 1, 61, 96
3, 342016, Note_off_c, 1, 61, 0
3, 342016, Note_on_c, 1, 63, 96
3, 344064, Note_off_c, 1, 63, 0
3, 344064, Note_on_c, 1, 64, 96
3, 348160, Note_off_c, 1, 64, 0
3, 348160, Note_on_c, 1, 64, 96
3, 350208, Note_off_c, 1, 64, 0
3, 350208, Note_on_c, 1, 62, 96
3, 356352, Note_off_c, 1, 62, 0
3, 356352, Note_on_c, 1, 64, 96
3, 360448, Note_off_c, 1, 64, 0
3, 360448, Note_on_c, 1, 64, 96
3, 362496, Note_off_c, 1, 64, 0
3, 362496, Note_on_c, 1, 57, 96
3, 366592, Note_off_c, 1, 57, 0
3, 366592, Note_on_c, 1, 59, 96
3, 368640, Note_off_c, 1, 59, 0
3, 368640, Note_on_c, 1, 61, 96
3, 371712, Note_off_c, 1, 61, 0
3, 371712, Note_on_c, 1, 62, 96
3, 372224, Note_off_c, 1, 62, 0
3, 372224, Note_on_c, 1, 61, 96
3, 372736, Note_off_c, 1, 61, 0
3, 372736, Note_on_c, 1, 62, 96
3, 374784, Note_off_c, 1, 62, 0
3, 374784, Note_on_c, 1, 61, 96
3, 376832, Note_off_c, 1, 61, 0
3, 376832, Note_on_c, 1, 59, 96
3, 380928, Note_off_c, 1, 59, 0
3, 380928, Note_on_c, 1, 57, 96
3, 385024, Note_off_c, 1, 57, 0
3, 424448, Note_on_c, 1, 68, 96
3, 424960, Note_off_c, 1, 68, 0
3, 424960, Note_on_c, 1, 69, 96
3, 425472, Note_on_c, 1, 64, 96
3, 427008, Note_off_c, 1, 64, 0
3, 427008, Note_off_c, 1, 69, 0
3, 430080, Note_on_c, 1, 61, 96
3, 434176, Note_off_c, 1, 61, 0
3, 434176, Note_on_c, 1, 63, 96
3, 436224, Note_off_c, 1, 63, 0
3, 436224, Note_on_c, 1, 64, 96
3, 440320, Note_off_c, 1, 64, 0
3, 440320, Note_on_c, 1, 64, 96
3, 442368, Note_off_c, 1, 64, 0
3, 442368, Note_on_c, 1, 62, 96
3, 448512, Note_off_c, 1, 62, 0
3, 448512, Note_on_c, 1, 64, 96
3, 452608, Note_off_c, 1, 64, 0
3, 452608, Note_on_c, 1, 64, 96
3, 454656, Note_off_c, 1, 64, 0
3, 454656, Note_on_c, 1, 57, 96
3, 458752, Note_off_c, 1, 57, 0
3, 458752, Note_on_c, 1, 59, 96
3, 460800, Note_off_c, 1, 59, 0
3, 460800, Note_on_c, 1, 61, 96
3, 463872, Note_off_c, 1, 61, 0
3, 463872, Note_on_c, 1, 62, 96
3, 464384, Note_off_c, 1, 62, 0
3, 464384, Note_on_c, 1, 61, 96
3, 464896, Note_off_c, 1, 61, 0
3, 464896, Note_on_c, 1, 62, 96
3, 466944, Note_off_c, 1, 62, 0
3, 466944, Note_on_c, 1, 61, 96
3, 468992, Note_off_c, 1, 61, 0
3, 468992, Note_on_c, 1, 59, 96
3, 473088, Note_off_c, 1, 59, 0
3, 473088, Note_on_c, 1, 57, 96
3, 477184, Note_off_c, 1, 57, 0
3, 520192, Note_on_c, 1, 61, 96
3, 522240, Note_off_c, 1, 61, 0
3, 522240, Note_on_c, 1, 61, 96
3, 526336, Note_off_c, 1, 61, 0
3, 526336, Note_on_c, 1, 61, 96
3, 528384, Note_off_c, 1, 61, 0
3, 528384, Note_on_c, 1, 59, 96
3, 532480, Note_off_c, 1, 59, 0
3, 532480, Note_on_c, 1, 56, 96
3, 534528, Note_off_c, 1, 56, 0
3, 534528, Note_on_c, 1, 57, 96
3, 536576, Note_off_c, 1, 57, 0
3, 536576, Note_on_c, 1, 56, 96
3, 538624, Note_off_c, 1, 56, 0
3, 538624, Note_on_c, 1, 54, 96
3, 540672, Note_off_c, 1, 54, 0
3, 540672, Note_on_c, 1, 52, 96
3, 544768, Note_off_c, 1, 52, 0
3, 544768, Note_on_c, 1, 64, 96
3, 546816, Note_off_c, 1, 64, 0
3, 546816, Note_on_c, 1, 64, 96
3, 550912, Note_off_c, 1, 64, 0
3, 550912, Note_on_c, 1, 62, 96
3, 552960, Note_off_c, 1, 62, 0
3, 552960, Note_on_c, 1, 61, 96
3, 555520, Note_off_c, 1, 61, 0
3, 555520, Note_on_c, 1, 61, 96
3, 556032, Note_off_c, 1, 61, 0
3, 556032, Note_on_c, 1, 66, 96
3, 556544, Note_off_c, 1, 66, 0
3, 556544, Note_on_c, 1, 64, 96
3, 557056, Note_off_c, 1, 64, 0
3, 557056, Note_on_c, 1, 66, 96
3, 559104, Note_off_c, 1, 66, 0
3, 559104, Note_on_c, 1, 64, 96
3, 562176, Note_off_c, 1, 64, 0
3, 562176, Note_on_c, 1, 62, 96
3, 562688, Note_off_c, 1, 62, 0
3, 562688, Note_on_c, 1, 61, 96
3, 563200, Note_off_c, 1, 61, 0
3, 563200, Note_on_c, 1, 62, 96
3, 565248, Note_off_c, 1, 62, 0
3, 565248, Note_on_c, 1, 61, 96
3, 567808, Note_off_c, 1, 61, 0
3, 567808, Note_on_c, 1, 57, 96
3, 568320, Note_off_c, 1, 57, 0
3, 568320, Note_on_c, 1, 62, 96
3, 568832, Note_off_c, 1, 62, 0
3, 568832, Note_on_c, 1, 61, 96
3, 569344, Note_off_c, 1, 61, 0
3, 569344, Note_on_c, 1, 66, 96
3, 569856, Note_off_c, 1, 66, 0
3, 569856, Note_on_c, 1, 62, 96
3, 570368, Note_off_c, 1, 62, 0
3, 570368, Note_on_c, 1, 68, 96
3, 570880, Note_off_c, 1, 68, 0
3, 570880, Note_on_c, 1, 69, 96
3, 571136, Note_off_c, 1, 69, 0
3, 571136, Note_on_c, 1, 71, 96
3, 571392, Note_off_c, 1, 71, 0
3, 571392, Note_on_c, 1, 64, 96
3, 574976, Note_off_c, 1, 64, 0
3, 574976, Note_on_c, 1, 62, 96
3, 575488, Note_off_c, 1, 62, 0
3, 575488, Note_on_c, 1, 61, 96
3, 577536, Note_off_c, 1, 61, 0
3, 577536, Note_on_c, 1, 59, 96
3, 581120, Note_off_c, 1, 59, 0
3, 581120, Note_on_c, 1, 61, 96
3, 581632, Note_off_c, 1, 61, 0
3, 581632, Note_on_c, 1, 62, 96
3, 582144, Note_off_c, 1, 62, 0
3, 582144, Note_on_c, 1, 61, 96
3, 582656, Note_off_c, 1, 61, 0
3, 582656, Note_on_c, 1, 64, 96
3, 583168, Note_off_c, 1, 64, 0
3, 583168, Note_on_c, 1, 63, 96
3, 583680, Note_off_c, 1, 63, 0
3, 583680, Note_on_c, 1, 64, 96
3, 587264, Note_off_c, 1, 64, 0
3, 587264, Note_on_c, 1, 62, 96
3, 587776, Note_off_c, 1, 62, 0
3, 587776, Note_on_c, 1, 61, 96
3, 588288, Note_off_c, 1, 61, 0
3, 588288, Note_on_c, 1, 57, 96
3, 588800, Note_off_c, 1, 57, 0
3, 588800, Note_on_c, 1, 62, 96
3, 589312, Note_off_c, 1, 62, 0
3, 589312, Note_on_c, 1, 61, 96
3, 589824, Note_off_c, 1, 61, 0
3, 589824, Note_on_c, 1, 64, 96
3, 590336, Note_off_c, 1, 64, 0
3, 590336, Note_on_c, 1, 62, 96
3, 590848, Note_off_c, 1, 62, 0
3, 590848, Note_on_c, 1, 66, 96
3, 591360, Note_off_c, 1, 66, 0
3, 591360, Note_on_c, 1, 64, 96
3, 591872, Note_off_c, 1, 64, 0
3, 591872, Note_on_c, 1, 62, 96
3, 592896, Note_off_c, 1, 62, 0
3, 592896, Note_on_c, 1, 61, 96
3, 593920, Note_off_c, 1, 61, 0
3, 593920, Note_on_c, 1, 59, 96
3, 595968, Note_off_c, 1, 59, 0
3, 595968, Note_on_c, 1, 57, 96
3, 600064, Note_off_c, 1, 57, 0
3, 604672, Note_on_c, 1, 69, 96
3, 605184, Note_off_c, 1, 69, 0
3, 605184, Note_on_c, 1, 74, 96
3, 605696, Note_off_c, 1, 74, 0
3, 605696, Note_on_c, 1, 73, 96
3, 606208, Note_off_c, 1, 73, 0
3, 606208, Note_on_c, 1, 74, 96
3, 608768, Note_off_c, 1, 74, 0
3, 608768, Note_on_c, 1, 73, 96
3, 609280, Note_off_c, 1, 73, 0
3, 609280, Note_on_c, 1, 71, 96
3, 609792, Note_off_c, 1, 71, 0
3, 609792, Note_on_c, 1, 69, 96
3, 610304, Note_off_c, 1, 69, 0
3, 610304, Note_on_c, 1, 68, 96
3, 610816, Note_off_c, 1, 68, 0
3, 610816, Note_on_c, 1, 71, 96
3, 611328, Note_off_c, 1, 71, 0
3, 611328, Note_on_c, 1, 74, 96
3, 611840, Note_off_c, 1, 74, 0
3, 611840, Note_on_c, 1, 78, 96
3, 612352, Note_off_c, 1, 78, 0
3, 612352, Note_on_c, 1, 76, 96
3, 612864, Note_off_c, 1, 76, 0
3, 612864, Note_on_c, 1, 74, 96
3, 613376, Note_off_c, 1, 74, 0
3, 613376, Note_on_c, 1, 83, 96
3, 613888, Note_off_c, 1, 83, 0
3, 613888, Note_on_c, 1, 80, 96
3, 614400, Note_off_c, 1, 80, 0
3, 614400, Note_on_c, 1, 81, 96
3, 620544, Note_off_c, 1, 81, 0
3, 623104, Note_on_c, 1, 61, 96
3, 623616, Note_off_c, 1, 61, 0
3, 623616, Note_on_c, 1, 62, 96
3, 626688, Note_off_c, 1, 62, 0
3, 628736, Note_on_c, 1, 59, 96
3, 630784, Note_off_c, 1, 59, 0
3, 630784, Note_on_c, 1, 61, 96
3, 632832, Note_off_c, 1, 61, 0
3, 645803, Note_on_c, 1, 75, 96
3, 646485, Note_on_c, 1, 76, 96
3, 646486, Note_off_c, 1, 75, 0
3, 647168, Note_off_c, 1, 76, 0
3, 647168, Note_on_c, 1, 78, 96
3, 647851, Note_off_c, 1, 78, 0
3, 647851, Note_on_c, 1, 69, 96
3, 648533, Note_on_c, 1, 68, 96
3, 648534, Note_off_c, 1, 69, 0
3, 649216, Note_off_c, 1, 68, 0
3, 649216, Note_on_c, 1, 66, 96
3, 649899, Note_off_c, 1, 66, 0
3, 649899, Note_on_c, 1, 68, 96
3, 650581, Note_on_c, 1, 69, 96
3, 650582, Note_off_c, 1, 68, 0
3, 651264, Note_off_c, 1, 69, 0
3, 651264, Note_on_c, 1, 68, 96
3, 651947, Note_off_c, 1, 68, 0
3, 651947, Note_on_c, 1, 80, 96
3, 652629, Note_on_c, 1, 81, 96
3, 652630, Note_off_c, 1, 80, 0
3, 653312, Note_off_c, 1, 81, 0
3, 653312, Note_on_c, 1, 83, 96
3, 653995, Note_off_c, 1, 83, 0
3, 653995, Note_on_c, 1, 74, 96
3, 654677, Note_on_c, 1, 73, 96
3, 654678, Note_off_c, 1, 74, 0
3, 655360, Note_off_c, 1, 73, 0
3, 655360, Note_on_c, 1, 71, 96
3, 656043, Note_off_c, 1, 71, 0
3, 656043, Note_on_c, 1, 73, 96
3, 656725, Note_on_c, 1, 74, 96
3, 656726, Note_off_c, 1, 73, 0
3, 657408, Note_off_c, 1, 74, 0
3, 657408, Note_on_c, 1, 73, 96
3, 658091, Note_off_c, 1, 73, 0
3, 658091, Note_on_c, 1, 69, 96
3, 658773, Note_on_c, 1, 71, 96
3, 658774, Note_off_c, 1, 69, 0
3, 659456, Note_off_c, 1, 71, 0
3, 659456, Note_on_c, 1, 73, 96
3, 660139, Note_off_c, 1, 73, 0
3, 660139, Note_on_c, 1, 74, 96
3, 660821, Note_on_c, 1, 76, 96
3, 660822, Note_off_c, 1, 74, 0
3, 661504, Note_off_c, 1, 76, 0
3, 661504, Note_on_c, 1, 74, 96
3, 664235, Note_off_c, 1, 74, 0
3, 664235, Note_on_c, 1, 73, 96
3, 664917, Note_on_c, 1, 74, 96
3, 664918, Note_off_c, 1, 73, 0
3, 665600, Note_off_c, 1, 74, 0
3, 665600, Note_on_c, 1, 76, 96
3, 666283, Note_off_c, 1, 76, 0
3, 666283, Note_on_c, 1, 71, 96
3, 666965, Note_on_c, 1, 69, 96
3, 666966, Note_off_c, 1, 71, 0
3, 667648, Note_off_c, 1, 69, 0
3, 667648, Note_on_c, 1, 68, 96
3, 668331, Note_off_c, 1, 68, 0
3, 668331, Note_on_c, 1, 69, 96
3, 669013, Note_on_c, 1, 71, 96
3, 669014, Note_off_c, 1, 69, 0
3, 669696, Note_off_c, 1, 71, 0
3, 669696, Note_on_c, 1, 69, 96
3, 670379, Note_off_c, 1, 69, 0
3, 670379, Note_on_c, 1, 71, 96
3, 671061, Note_on_c, 1, 73, 96
3, 671062, Note_off_c, 1, 71, 0
3, 671744, Note_off_c, 1, 73, 0
3, 671744, Note_on_c, 1, 74, 96
3, 672427, Note_off_c, 1, 74, 0
3, 672427, Note_on_c, 1, 76, 96
3, 673109, Note_on_c, 1, 78, 96
3, 673110, Note_off_c, 1, 76, 0
3, 673792, Note_off_c, 1, 78, 0
3, 673792, Note_on_c, 1, 76, 96
3, 674475, Note_off_c, 1, 76, 0
3, 674475, Note_on_c, 1, 78, 96
3, 675157, Note_on_c, 1, 74, 96
3, 675158, Note_off_c, 1, 78, 0
3, 675840, Note_off_c, 1, 74, 0
3, 675840, Note_on_c, 1, 73, 96
3, 677888, Note_off_c, 1, 73, 0
3, 678571, Note_on_c, 1, 74, 96
3, 679253, Note_on_c, 1, 76, 96
3, 679254, Note_off_c, 1, 74, 0
3, 679936, Note_off_c, 1, 76, 0
3, 679936, Note_on_c, 1, 78, 96
3, 680619, Note_off_c, 1, 78, 0
3, 680619, Note_on_c, 1, 81, 96
3, 681301, Note_on_c, 1, 80, 96
3, 681302, Note_off_c, 1, 81, 0
3, 681984, Note_off_c, 1, 80, 0
3, 681984, Note_on_c, 1, 81, 96
3, 682667, Note_off_c, 1, 81, 0
3, 682667, Note_on_c, 1, 76, 96
3, 683349, Note_on_c, 1, 73, 96
3, 683350, Note_off_c, 1, 76, 0
3, 684032, Note_off_c, 1, 73, 0
3, 684032, Note_on_c, 1, 69, 96
3, 686080, Note_off_c, 1, 69, 0
3, 823296, Note_on_c, 1, 64, 96
3, 824320, Note_off_c, 1, 64, 0
3, 824320, Note_on_c, 1, 61, 96
3, 825344, Note_off_c, 1, 61, 0
3, 825344, Note_on_c, 1, 63, 96
3, 826368, Note_off_c, 1, 63, 0
3, 826368, Note_on_c, 1, 65, 96
3, 827392, Note_off_c, 1, 65, 0
3, 827392, Note_on_c, 1, 66, 96
3, 828416, Note_off_c, 1, 66, 0
3, 828416, Note_on_c, 1, 69, 96
3, 829440, Note_off_c, 1, 69, 0
3, 829440, Note_on_c, 1, 68, 96
3, 830464, Note_off_c, 1, 68, 0
3, 830464, Note_on_c, 1, 67, 96
3, 831488, Note_off_c, 1, 67, 0
3, 831488, Note_on_c, 1, 66, 96
3, 832000, Note_off_c, 1, 66, 0
3, 832000, Note_on_c, 1, 68, 96
3, 832512, Note_off_c, 1, 68, 0
3, 832512, Note_on_c, 1, 69, 96
3, 833536, Note_off_c, 1, 69, 0
3, 833536, Note_on_c, 1, 71, 96
3, 834560, Note_off_c, 1, 71, 0
3, 834560, Note_on_c, 1, 72, 96
3, 835584, Note_off_c, 1, 72, 0
3, 835584, Note_on_c, 1, 73, 96
3, 837632, Note_off_c, 1, 73, 0
3, 837632, Note_on_c, 1, 75, 96
3, 838656, Note_off_c, 1, 75, 0
3, 838656, Note_on_c, 1, 73, 96
3, 840704, Note_off_c, 1, 73, 0
3, 840704, Note_on_c, 1, 71, 96
3, 842752, Note_off_c, 1, 71, 0
3, 842752, Note_on_c, 1, 69, 96
3, 843776, Note_off_c, 1, 69, 0
3, 843776, Note_on_c, 1, 66, 96
3, 844800, Note_off_c, 1, 66, 0
3, 844800, Note_on_c, 1, 68, 96
3, 845824, Note_off_c, 1, 68, 0
3, 845824, Note_on_c, 1, 61, 96
3, 846848, Note_off_c, 1, 61, 0
3, 846848, Note_on_c, 1, 63, 96
3, 847872, Note_off_c, 1, 63, 0
3, 847872, Note_on_c, 1, 65, 96
3, 849920, Note_off_c, 1, 65, 0
3, 860672, Note_on_c, 1, 71, 96
3, 861184, Note_off_c, 1, 71, 0
3, 861184, Note_on_c, 1, 69, 96
3, 861696, Note_off_c, 1, 69, 0
3, 861696, Note_on_c, 1, 68, 96
3, 862208, Note_off_c, 1, 68, 0
3, 862208, Note_on_c, 1, 66, 96
3, 862720, Note_off_c, 1, 66, 0
3, 862720, Note_on_c, 1, 64, 96
3, 863232, Note_off_c, 1, 64, 0
3, 863232, Note_on_c, 1, 62, 96
3, 863744, Note_off_c, 1, 62, 0
3, 863744, Note_on_c, 1, 61, 96
3, 864256, Note_off_c, 1, 61, 0
3, 864256, Note_on_c, 1, 59, 96
3, 864768, Note_off_c, 1, 59, 0
3, 864768, Note_on_c, 1, 66, 96
3, 865280, Note_off_c, 1, 66, 0
3, 865280, Note_on_c, 1, 68, 96
3, 865792, Note_off_c, 1, 68, 0
3, 865792, Note_on_c, 1, 69, 96
3, 866304, Note_off_c, 1, 69, 0
3, 866304, Note_on_c, 1, 68, 96
3, 867328, Note_off_c, 1, 68, 0
3, 867328, Note_on_c, 1, 69, 96
3, 867840, Note_off_c, 1, 69, 0
3, 867840, Note_on_c, 1, 71, 96
3, 868352, Note_off_c, 1, 71, 0
3, 868352, Note_on_c, 1, 69, 96
3, 869888, Note_off_c, 1, 69, 0
3, 869888, Note_on_c, 1, 68, 96
3, 870400, Note_off_c, 1, 68, 0
3, 870400, Note_on_c, 1, 69, 96
3, 875008, Note_off_c, 1, 69, 0
3, 875008, Note_on_c, 1, 69, 96
3, 875520, Note_off_c, 1, 69, 0
3, 875520, Note_on_c, 1, 68, 96
3, 876032, Note_off_c, 1, 68, 0
3, 876032, Note_on_c, 1, 69, 96
3, 876544, Note_off_c, 1, 69, 0
3, 876544, Note_on_c, 1, 71, 96
3, 877056, Note_off_c, 1, 71, 0
3, 877056, Note_on_c, 1, 68, 96
3, 877568, Note_off_c, 1, 68, 0
3, 877568, Note_on_c, 1, 69, 96
3, 878080, Note_off_c, 1, 69, 0
3, 878080, Note_on_c, 1, 71, 96
3, 878592, Note_off_c, 1, 71, 0
3, 878592, Note_on_c, 1, 64, 96
3, 880640, Note_off_c, 1, 64, 0
3, 885248, Note_on_c, 1, 74, 96
3, 885760, Note_off_c, 1, 74, 0
3, 885760, Note_on_c, 1, 73, 96
3, 886272, Note_off_c, 1, 73, 0
3, 886272, Note_on_c, 1, 71, 96
3, 886784, Note_off_c, 1, 71, 0
3, 886784, Note_on_c, 1, 69, 96
3, 887296, Note_off_c, 1, 69, 0
3, 887296, Note_on_c, 1, 67, 96
3, 887808, Note_off_c, 1, 67, 0
3, 887808, Note_on_c, 1, 66, 96
3, 888320, Note_off_c, 1, 66, 0
3, 888320, Note_on_c, 1, 64, 96
3, 888832, Note_off_c, 1, 64, 0
3, 888832, Note_on_c, 1, 62, 96
3, 889344, Note_off_c, 1, 62, 0
3, 889344, Note_on_c, 1, 66, 96
3, 889856, Note_off_c, 1, 66, 0
3, 889856, Note_on_c, 1, 64, 96
3, 890368, Note_off_c, 1, 64, 0
3, 890368, Note_on_c, 1, 62, 96
3, 890880, Note_off_c, 1, 62, 0
3, 890880, Note_on_c, 1, 61, 96
3, 892928, Note_off_c, 1, 61, 0
3, 893440, Note_on_c, 1, 71, 96
3, 893952, Note_off_c, 1, 71, 0
3, 893952, Note_on_c, 1, 69, 96
3, 894464, Note_off_c, 1, 69, 0
3, 894464, Note_on_c, 1, 67, 96
3, 894976, Note_off_c, 1, 67, 0
3, 894976, Note_on_c, 1, 66, 96
3, 895488, Note_off_c, 1, 66, 0
3, 895488, Note_on_c, 1, 69, 96
3, 896000, Note_off_c, 1, 69, 0
3, 896000, Note_on_c, 1, 71, 96
3, 896512, Note_off_c, 1, 71, 0
3, 896512, Note_on_c, 1, 73, 96
3, 897024, Note_off_c, 1, 73, 0
3, 897024, Note_on_c, 1, 74, 96
3, 899072, Note_off_c, 1, 74, 0
3, 909824, Note_on_c, 1, 59, 96
3, 910336, Note_off_c, 1, 59, 0
3, 910336, Note_on_c, 1, 61, 96
3, 910848, Note_off_c, 1, 61, 0
3, 910848, Note_on_c, 1, 62, 96
3, 911360, Note_off_c, 1, 62, 0
3, 911360, Note_on_c, 1, 64, 96
3, 911872, Note_off_c, 1, 64, 0
3, 911872, Note_on_c, 1, 66, 96
3, 912384, Note_off_c, 1, 66, 0
3, 912384, Note_on_c, 1, 68, 96
3, 912896, Note_off_c, 1, 68, 0
3, 912896, Note_on_c, 1, 69, 96
3, 913408, Note_off_c, 1, 69, 0
3, 913408, Note_on_c, 1, 68, 96
3, 913920, Note_off_c, 1, 68, 0
3, 913920, Note_on_c, 1, 71, 96
3, 914432, Note_off_c, 1, 71, 0
3, 914432, Note_on_c, 1, 69, 96
3, 914944, Note_off_c, 1, 69, 0
3, 914944, Note_on_c, 1, 68, 96
3, 915456, Note_off_c, 1, 68, 0
3, 915456, Note_on_c, 1, 69, 96
3, 919552, Note_off_c, 1, 69, 0
3, 919552, Note_on_c, 1, 71, 96
3, 921600, Note_off_c, 1, 71, 0
3, 921600, Note_on_c, 1, 69, 96
3, 923648, Note_off_c, 1, 69, 0
3, 923648, Note_on_c, 1, 68, 96
3, 925696, Note_off_c, 1, 68, 0
3, 925696, Note_on_c, 1, 71, 96
3, 927744, Note_off_c, 1, 71, 0
3, 927744, Note_on_c, 1, 73, 96
3, 934912, Note_off_c, 1, 73, 0
3, 934912, End_track
4, 0, Start_track
4, 0, Title_t, "Instrument 3"
4, 0, Note_on_c, 2, 57, 96
4, 2048, Note_off_c, 2, 57, 0
4, 2048, Note_on_c, 2, 61, 96
4, 3584, Note_off_c, 2, 61, 0
4, 3584, Note_on_c, 2, 62, 96
4, 4096, Note_off_c, 2, 62, 0
4, 4096, Note_on_c, 2, 62, 96
4, 5632, Note_off_c, 2, 62, 0
4, 5632, Note_on_c, 2, 61, 96
4, 5888, Note_off_c, 2, 61, 0
4, 5888, Note_on_c, 2, 62, 96
4, 6144, Note_off_c, 2, 62, 0
4, 6144, Note_on_c, 2, 64, 96
4, 8192, Note_off_c, 2, 64, 0
4, 10240, Note_on_c, 2, 64, 96
4, 12800, Note_off_c, 2, 64, 0
4, 12800, Note_on_c, 2, 64, 96
4, 13312, Note_off_c, 2, 64, 0
4, 13312, Note_on_c, 2, 62, 96
4, 13824, Note_off_c, 2, 62, 0
4, 13824, Note_on_c, 2, 61, 96
4, 14336, Note_off_c, 2, 61, 0
4, 14336, Note_on_c, 2, 62, 96
4, 18944, Note_off_c, 2, 62, 0
4, 18944, Note_on_c, 2, 62, 96
4, 19456, Note_off_c, 2, 62, 0
4, 19456, Note_on_c, 2, 61, 96
4, 19968, Note_off_c, 2, 61, 0
4, 19968, Note_on_c, 2, 59, 96
4, 20480, Note_off_c, 2, 59, 0
4, 20480, Note_on_c, 2, 61, 96
4, 25088, Note_off_c, 2, 61, 0
4, 25088, Note_on_c, 2, 61, 96
4, 25600, Note_off_c, 2, 61, 0
4, 25600, Note_on_c, 2, 59, 96
4, 26112, Note_off_c, 2, 59, 0
4, 26112, Note_on_c, 2, 57, 96
4, 26624, Note_off_c, 2, 57, 0
4, 26624, Note_on_c, 2, 59, 96
4, 31232, Note_off_c, 2, 59, 0
4, 31232, Note_on_c, 2, 59, 96
4, 31744, Note_off_c, 2, 59, 0
4, 31744, Note_on_c, 2, 57, 96
4, 32256, Note_off_c, 2, 57, 0
4, 32256, Note_on_c, 2, 56, 96
4, 32768, Note_off_c, 2, 56, 0
4, 32768, Note_on_c, 2, 57, 96
4, 35328, Note_off_c, 2, 57, 0
4, 35328, Note_on_c, 2, 57, 96
4, 35840, Note_off_c, 2, 57, 0
4, 35840, Note_on_c, 2, 56, 96
4, 36352, Note_off_c, 2, 56, 0
4, 36352, Note_on_c, 2, 54, 96
4, 36864, Note_off_c, 2, 54, 0
4, 36864, Note_on_c, 2, 56, 96
4, 38400, Note_off_c, 2, 56, 0
4, 38400, Note_on_c, 2, 56, 96
4, 38912, Note_off_c, 2, 56, 0
4, 38912, Note_on_c, 2, 57, 96
4, 39424, Note_off_c, 2, 57, 0
4, 39424, Note_on_c, 2, 59, 96
4, 39936, Note_off_c, 2, 59, 0
4, 39936, Note_on_c, 2, 57, 96
4, 40448, Note_off_c, 2, 57, 0
4, 40448, Note_on_c, 2, 59, 96
4, 40960, Note_off_c, 2, 59, 0
4, 40960, Note_on_c, 2, 52, 96
4, 41472, Note_off_c, 2, 52, 0
4, 41472, Note_on_c, 2, 59, 96
4, 41984, Note_off_c, 2, 59, 0
4, 41984, Note_on_c, 2, 64, 96
4, 43520, Note_off_c, 2, 64, 0
4, 43520, Note_on_c, 2, 64, 96
4, 44032, Note_off_c, 2, 64, 0
4, 44032, Note_on_c, 2, 62, 96
4, 44544, Note_off_c, 2, 62, 0
4, 44544, Note_on_c, 2, 61, 96
4, 45056, Note_off_c, 2, 61, 0
4, 45056, Note_on_c, 2, 62, 96
4, 49664, Note_off_c, 2, 62, 0
4, 49664, Note_on_c, 2, 66, 96
4, 50176, Note_off_c, 2, 66, 0
4, 50176, Note_on_c, 2, 64, 96
4, 50688, Note_off_c, 2, 64, 0
4, 50688, Note_on_c, 2, 62, 96
4, 51200, Note_off_c, 2, 62, 0
4, 51200, Note_on_c, 2, 61, 96
4, 51712, Note_off_c, 2, 61, 0
4, 51712, Note_on_c, 2, 59, 96
4, 52224, Note_off_c, 2, 59, 0
4, 52224, Note_on_c, 2, 61, 96
4, 52736, Note_off_c, 2, 61, 0
4, 52736, Note_on_c, 2, 57, 96
4, 53248, Note_off_c, 2, 57, 0
4, 53248, Note_on_c, 2, 59, 96
4, 54272, Note_off_c, 2, 59, 0
4, 54272, Note_on_c, 2, 62, 96
4, 55808, Note_off_c, 2, 62, 0
4, 55808, Note_on_c, 2, 62, 96
4, 56320, Note_off_c, 2, 62, 0
4, 56320, Note_on_c, 2, 61, 96
4, 56832, Note_off_c, 2, 61, 0
4, 56832, Note_on_c, 2, 59, 96
4, 57344, Note_off_c, 2, 59, 0
4, 57344, Note_on_c, 2, 61, 96
4, 59392, Note_off_c, 2, 61, 0
4, 59392, Note_on_c, 2, 62, 96
4, 61440, Note_off_c, 2, 62, 0
4, 61440, Note_on_c, 2, 64, 96
4, 61952, Note_off_c, 2, 64, 0
4, 61952, Note_on_c, 2, 62, 96
4, 62464, Note_off_c, 2, 62, 0
4, 62464, Note_on_c, 2, 61, 96
4, 62976, Note_off_c, 2, 61, 0
4, 62976, Note_on_c, 2, 59, 96
4, 63488, Note_off_c, 2, 59, 0
4, 63488, Note_on_c, 2, 57, 96
4, 64512, Note_off_c, 2, 57, 0
4, 64512, Note_on_c, 2, 64, 96
4, 65536, Note_off_c, 2, 64, 0
4, 109568, Note_on_c, 2, 62, 96
4, 113152, Note_off_c, 2, 62, 0
4, 113152, Note_on_c, 2, 62, 96
4, 113664, Note_off_c, 2, 62, 0
4, 113664, Note_on_c, 2, 61, 96
4, 114176, Note_off_c, 2, 61, 0
4, 114176, Note_on_c, 2, 59, 96
4, 114688, Note_off_c, 2, 59, 0
4, 114688, Note_on_c, 2, 61, 96
4, 116736, Note_off_c, 2, 61, 0
4, 117248, Note_on_c, 2, 50, 96
4, 117760, Note_off_c, 2, 50, 0
4, 117760, Note_on_c, 2, 49, 96
4, 118272, Note_off_c, 2, 49, 0
4, 118272, Note_on_c, 2, 47, 96
4, 118784, Note_off_c, 2, 47, 0
4, 118784, Note_on_c, 2, 45, 96
4, 120832, Note_off_c, 2, 45, 0
4, 126976, Note_on_c, 2, 64, 96
4, 129536, Note_off_c, 2, 64, 0
4, 129536, Note_on_c, 2, 64, 96
4, 130048, Note_off_c, 2, 64, 0
4, 130048, Note_on_c, 2, 62, 96
4, 130560, Note_off_c, 2, 62, 0
4, 130560, Note_on_c, 2, 61, 96
4, 131072, Note_off_c, 2, 61, 0
4, 131072, Note_on_c, 2, 62, 96
4, 135680, Note_off_c, 2, 62, 0
4, 135680, Note_on_c, 2, 62, 96
4, 136192, Note_off_c, 2, 62, 0
4, 136192, Note_on_c, 2, 61, 96
4, 136704, Note_off_c, 2, 61, 0
4, 136704, Note_on_c, 2, 59, 96
4, 137216, Note_off_c, 2, 59, 0
4, 137216, Note_on_c, 2, 61, 96
4, 141824, Note_off_c, 2, 61, 0
4, 141824, Note_on_c, 2, 61, 96
4, 142336, Note_off_c, 2, 61, 0
4, 142336, Note_on_c, 2, 59, 96
4, 142848, Note_off_c, 2, 59, 0
4, 142848, Note_on_c, 2, 57, 96
4, 143360, Note_off_c, 2, 57, 0
4, 143360, Note_on_c, 2, 59, 96
4, 147968, Note_off_c, 2, 59, 0
4, 147968, Note_on_c, 2, 59, 96
4, 148480, Note_off_c, 2, 59, 0
4, 148480, Note_on_c, 2, 57, 96
4, 148992, Note_off_c, 2, 57, 0
4, 148992, Note_on_c, 2, 56, 96
4, 149504, Note_off_c, 2, 56, 0
4, 149504, Note_on_c, 2, 57, 96
4, 152064, Note_off_c, 2, 57, 0
4, 152064, Note_on_c, 2, 57, 96
4, 152576, Note_off_c, 2, 57, 0
4, 152576, Note_on_c, 2, 56, 96
4, 153088, Note_off_c, 2, 56, 0
4, 153088, Note_on_c, 2, 54, 96
4, 153600, Note_off_c, 2, 54, 0
4, 153600, Note_on_c, 2, 56, 96
4, 155136, Note_off_c, 2, 56, 0
4, 155136, Note_on_c, 2, 56, 96
4, 155648, Note_off_c, 2, 56, 0
4, 155648, Note_on_c, 2, 57, 96
4, 156160, Note_off_c, 2, 57, 0
4, 156160, Note_on_c, 2, 59, 96
4, 156672, Note_off_c, 2, 59, 0
4, 156672, Note_on_c, 2, 57, 96
4, 157184, Note_off_c, 2, 57, 0
4, 157184, Note_on_c, 2, 59, 96
4, 157696, Note_off_c, 2, 59, 0
4, 157696, Note_on_c, 2, 52, 96
4, 158208, Note_off_c, 2, 52, 0
4, 158208, Note_on_c, 2, 59, 96
4, 158720, Note_off_c, 2, 59, 0
4, 158720, Note_on_c, 2, 64, 96
4, 160256, Note_off_c, 2, 64, 0
4, 160256, Note_on_c, 2, 64, 96
4, 160768, Note_off_c, 2, 64, 0
4, 160768, Note_on_c, 2, 62, 96
4, 161280, Note_off_c, 2, 62, 0
4, 161280, Note_on_c, 2, 61, 96
4, 161792, Note_off_c, 2, 61, 0
4, 161792, Note_on_c, 2, 62, 96
4, 166400, Note_off_c, 2, 62, 0
4, 166400, Note_on_c, 2, 66, 96
4, 166912, Note_off_c, 2, 66, 0
4, 166912, Note_on_c, 2, 64, 96
4, 167424, Note_off_c, 2, 64, 0
4, 167424, Note_on_c, 2, 62, 96
4, 167936, Note_off_c, 2, 62, 0
4, 167936, Note_on_c, 2, 61, 96
4, 168448, Note_off_c, 2, 61, 0
4, 168448, Note_on_c, 2, 59, 96
4, 168960, Note_off_c, 2, 59, 0
4, 168960, Note_on_c, 2, 61, 96
4, 169472, Note_off_c, 2, 61, 0
4, 169472, Note_on_c, 2, 57, 96
4, 169984, Note_off_c, 2, 57, 0
4, 169984, Note_on_c, 2, 59, 96
4, 171008, Note_off_c, 2, 59, 0
4, 171008, Note_on_c, 2, 62, 96
4, 172544, Note_off_c, 2, 62, 0
4, 172544, Note_on_c, 2, 62, 96
4, 173056, Note_off_c, 2, 62, 0
4, 173056, Note_on_c, 2, 61, 96
4, 173568, Note_off_c, 2, 61, 0
4, 173568, Note_on_c, 2, 59, 96
4, 174080, Note_off_c, 2, 59, 0
4, 174080, Note_on_c, 2, 61, 96
4, 176128, Note_off_c, 2, 61, 0
4, 176128, Note_on_c, 2, 62, 96
4, 178176, Note_off_c, 2, 62, 0
4, 178176, Note_on_c, 2, 64, 96
4, 178688, Note_off_c, 2, 64, 0
4, 178688, Note_on_c, 2, 62, 96
4, 179200, Note_off_c, 2, 62, 0
4, 179200, Note_on_c, 2, 61, 96
4, 179712, Note_off_c, 2, 61, 0
4, 179712, Note_on_c, 2, 59, 96
4, 180224, Note_off_c, 2, 59, 0
4, 180224, Note_on_c, 2, 57, 96
4, 181248, Note_off_c, 2, 57, 0
4, 181248, Note_on_c, 2, 64, 96
4, 182272, Note_off_c, 2, 64, 0
4, 226304, Note_on_c, 2, 62, 96
4, 229888, Note_off_c, 2, 62, 0
4, 229888, Note_on_c, 2, 62, 96
4, 230400, Note_off_c, 2, 62, 0
4, 230400, Note_on_c, 2, 61, 96
4, 230912, Note_off_c, 2, 61, 0
4, 230912, Note_on_c, 2, 59, 96
4, 231424, Note_off_c, 2, 59, 0
4, 231424, Note_on_c, 2, 61, 96
4, 233472, Note_off_c, 2, 61, 0
4, 323584, Note_on_c, 2, 62, 96
4, 328192, Note_off_c, 2, 62, 0
4, 328192, Note_on_c, 2, 62, 96
4, 328704, Note_off_c, 2, 62, 0
4, 328704, Note_on_c, 2, 61, 96
4, 329216, Note_off_c, 2, 61, 0
4, 329216, Note_on_c, 2, 59, 96
4, 329728, Note_off_c, 2, 59, 0
4, 329728, Note_on_c, 2, 61, 96
4, 330752, Note_off_c, 2, 61, 0
4, 330752, Note_on_c, 2, 59, 96
4, 331776, Note_off_c, 2, 59, 0
4, 331776, Note_on_c, 2, 57, 96
4, 333824, Note_off_c, 2, 57, 0
4, 333824, Note_on_c, 2, 61, 96
4, 334336, Note_off_c, 2, 61, 0
4, 334336, Note_on_c, 2, 57, 96
4, 334848, Note_off_c, 2, 57, 0
4, 334848, Note_on_c, 2, 64, 96
4, 335360, Note_off_c, 2, 64, 0
4, 335360, Note_on_c, 2, 56, 96
4, 335872, Note_off_c, 2, 56, 0
4, 335872, Note_on_c, 2, 57, 96
4, 337920, Note_off_c, 2, 57, 0
4, 425984, Note_on_c, 2, 61, 96
4, 426496, Note_off_c, 2, 61, 0
4, 426496, Note_on_c, 2, 57, 96
4, 427008, Note_off_c, 2, 57, 0
4, 427008, Note_on_c, 2, 64, 96
4, 427520, Note_off_c, 2, 64, 0
4, 427520, Note_on_c, 2, 56, 96
4, 428032, Note_off_c, 2, 56, 0
4, 428032, Note_on_c, 2, 57, 96
4, 430080, Note_off_c, 2, 57, 0
4, 602624, Note_on_c, 2, 64, 96
4, 603136, Note_off_c, 2, 64, 0
4, 603136, Note_on_c, 2, 62, 96
4, 603648, Note_off_c, 2, 62, 0
4, 603648, Note_on_c, 2, 61, 96
4, 604160, Note_off_c, 2, 61, 0
4, 604160, Note_on_c, 2, 62, 96
4, 604672, Note_off_c, 2, 62, 0
4, 604672, Note_on_c, 2, 67, 96
4, 605184, Note_off_c, 2, 67, 0
4, 605184, Note_on_c, 2, 66, 96
4, 605696, Note_off_c, 2, 66, 0
4, 605696, Note_on_c, 2, 64, 96
4, 606208, Note_off_c, 2, 64, 0
4, 606208, Note_on_c, 2, 66, 96
4, 606720, Note_off_c, 2, 66, 0
4, 606720, Note_on_c, 2, 62, 96
4, 607232, Note_off_c, 2, 62, 0
4, 607232, Note_on_c, 2, 69, 96
4, 607744, Note_off_c, 2, 69, 0
4, 607744, Note_on_c, 2, 68, 96
4, 608256, Note_off_c, 2, 68, 0
4, 608256, Note_on_c, 2, 69, 96
4, 609280, Note_off_c, 2, 69, 0
4, 616960, Note_on_c, 2, 67, 96
4, 617472, Note_off_c, 2, 67, 0
4, 617472, Note_on_c, 2, 69, 96
4, 617984, Note_off_c, 2, 69, 0
4, 617984, Note_on_c, 2, 64, 96
4, 618496, Note_off_c, 2, 64, 0
4, 618496, Note_on_c, 2, 66, 96
4, 620544, Note_off_c, 2, 66, 0
4, 625152, Note_on_c, 2, 52, 96
4, 625664, Note_off_c, 2, 52, 0
4, 625664, Note_on_c, 2, 54, 96
4, 626176, Note_off_c, 2, 54, 0
4, 626176, Note_on_c, 2, 50, 96
4, 626688, Note_off_c, 2, 50, 0
4, 627200, Note_on_c, 2, 50, 96
4, 627712, Note_off_c, 2, 50, 0
4, 627712, Note_on_c, 2, 54, 96
4, 628224, Note_off_c, 2, 54, 0
4, 628224, Note_on_c, 2, 57, 96
4, 632832, Note_off_c, 2, 57, 0
4, 639659, Note_on_c, 2, 68, 96
4, 640341, Note_on_c, 2, 69, 96
4, 640342, Note_off_c, 2, 68, 0
4, 641024, Note_off_c, 2, 69, 0
4, 641024, Note_on_c, 2, 71, 96
4, 641707, Note_off_c, 2, 71, 0
4, 641707, Note_on_c, 2, 64, 96
4, 642389, Note_on_c, 2, 62, 96
4, 642390, Note_off_c, 2, 64, 0
4, 643072, Note_off_c, 2, 62, 0
4, 643072, Note_on_c, 2, 61, 96
4, 643755, Note_off_c, 2, 61, 0
4, 643755, Note_on_c, 2, 63, 96
4, 644437, Note_on_c, 2, 64, 96
4, 644438, Note_off_c, 2, 63, 0
4, 645120, Note_off_c, 2, 64, 0
4, 645120, Note_on_c, 2, 63, 96
4, 645803, Note_off_c, 2, 63, 0
4, 645803, Note_on_c, 2, 66, 96
4, 646485, Note_on_c, 2, 64, 96
4, 646486, Note_off_c, 2, 66, 0
4, 647168, Note_off_c, 2, 64, 0
4, 647168, Note_on_c, 2, 63, 96
4, 648533, Note_off_c, 2, 63, 0
4, 648533, Note_on_c, 2, 64, 96
4, 649216, Note_off_c, 2, 64, 0
4, 649216, Note_on_c, 2, 64, 96
4, 650581, Note_off_c, 2, 64, 0
4, 650581, Note_on_c, 2, 63, 96
4, 651264, Note_off_c, 2, 63, 0
4, 651947, Note_on_c, 2, 64, 96
4, 652629, Note_on_c, 2, 66, 96
4, 652630, Note_off_c, 2, 64, 0
4, 653312, Note_off_c, 2, 66, 0
4, 653312, Note_on_c, 2, 68, 96
4, 654677, Note_off_c, 2, 68, 0
4, 654677, Note_on_c, 2, 69, 96
4, 655360, Note_off_c, 2, 69, 0
4, 655360, Note_on_c, 2, 69, 96
4, 656725, Note_off_c, 2, 69, 0
4, 656725, Note_on_c, 2, 68, 96
4, 657408, Note_off_c, 2, 68, 0
4, 657408, Note_on_c, 2, 69, 96
4, 658091, Note_off_c, 2, 69, 0
4, 660139, Note_on_c, 2, 66, 96
4, 660821, Note_on_c, 2, 68, 96
4, 660822, Note_off_c, 2, 66, 0
4, 661504, Note_off_c, 2, 68, 0
4, 661504, Note_on_c, 2, 69, 96
4, 662187, Note_off_c, 2, 69, 0
4, 662187, Note_on_c, 2, 68, 96
4, 662869, Note_on_c, 2, 66, 96
4, 662870, Note_off_c, 2, 68, 0
4, 663552, Note_off_c, 2, 66, 0
4, 663552, Note_on_c, 2, 64, 96
4, 664917, Note_off_c, 2, 64, 0
4, 664917, Note_on_c, 2, 62, 96
4, 665600, Note_off_c, 2, 62, 0
4, 665600, Note_on_c, 2, 61, 96
4, 666283, Note_off_c, 2, 61, 0
4, 666283, Note_on_c, 2, 62, 96
4, 666965, Note_on_c, 2, 64, 96
4, 666966, Note_off_c, 2, 62, 0
4, 670379, Note_off_c, 2, 64, 0
4, 670379, Note_on_c, 2, 62, 96
4, 671061, Note_on_c, 2, 64, 96
4, 671062, Note_off_c, 2, 62, 0
4, 671744, Note_off_c, 2, 64, 0
4, 671744, Note_on_c, 2, 66, 96
4, 672427, Note_off_c, 2, 66, 0
4, 672427, Note_on_c, 2, 59, 96
4, 673109, Note_on_c, 2, 57, 96
4, 673110, Note_off_c, 2, 59, 0
4, 673792, Note_off_c, 2, 57, 0
4, 673792, Note_on_c, 2, 56, 96
4, 674475, Note_off_c, 2, 56, 0
4, 674475, Note_on_c, 2, 57, 96
4, 675157, Note_on_c, 2, 59, 96
4, 675158, Note_off_c, 2, 57, 0
4, 675840, Note_off_c, 2, 59, 0
4, 675840, Note_on_c, 2, 52, 96
4, 677205, Note_off_c, 2, 52, 0
4, 677205, Note_on_c, 2, 64, 96
4, 677888, Note_off_c, 2, 64, 0
4, 677888, Note_on_c, 2, 69, 96
4, 679253, Note_off_c, 2, 69, 0
4, 679253, Note_on_c, 2, 67, 96
4, 679936, Note_off_c, 2, 67, 0
4, 679936, Note_on_c, 2, 66, 96
4, 680619, Note_off_c, 2, 66, 0
4, 680619, Note_on_c, 2, 64, 96
4, 681301, Note_on_c, 2, 62, 96
4, 681302, Note_off_c, 2, 64, 0
4, 681984, Note_off_c, 2, 62, 0
4, 681984, Note_on_c, 2, 64, 96
4, 684032, Note_off_c, 2, 64, 0
4, 684715, Note_on_c, 2, 64, 96
4, 685397, Note_on_c, 2, 61, 96
4, 685398, Note_off_c, 2, 64, 0
4, 686080, Note_off_c, 2, 61, 0
4, 686080, Note_on_c, 2, 57, 96
4, 688128, Note_off_c, 2, 57, 0
4, 688811, Note_on_c, 2, 73, 96
4, 689493, Note_on_c, 2, 74, 96
4, 689494, Note_off_c, 2, 73, 0
4, 690176, Note_off_c, 2, 74, 0
4, 690176, Note_on_c, 2, 76, 96
4, 690859, Note_off_c, 2, 76, 0
4, 690859, Note_on_c, 2, 69, 96
4, 691541, Note_on_c, 2, 68, 96
4, 691542, Note_off_c, 2, 69, 0
4, 692224, Note_off_c, 2, 68, 0
4, 692224, Note_on_c, 2, 66, 96
4, 692907, Note_off_c, 2, 66, 0
4, 692907, Note_on_c, 2, 68, 96
4, 693589, Note_on_c, 2, 69, 96
4, 693590, Note_off_c, 2, 68, 0
4, 694272, Note_off_c, 2, 69, 0
4, 694272, Note_on_c, 2, 68, 96
4, 694955, Note_off_c, 2, 68, 0
4, 694955, Note_on_c, 2, 71, 96
4, 695637, Note_on_c, 2, 69, 96
4, 695638, Note_off_c, 2, 71, 0
4, 696320, Note_off_c, 2, 69, 0
4, 696320, Note_on_c, 2, 68, 96
4, 697003, Note_off_c, 2, 68, 0
4, 697003, Note_on_c, 2, 69, 96
4, 697685, Note_on_c, 2, 71, 96
4, 697686, Note_off_c, 2, 69, 0
4, 698368, Note_off_c, 2, 71, 0
4, 698368, Note_on_c, 2, 69, 96
4, 699051, Note_off_c, 2, 69, 0
4, 699051, Note_on_c, 2, 71, 96
4, 699733, Note_on_c, 2, 68, 96
4, 699734, Note_off_c, 2, 71, 0
4, 700416, Note_off_c, 2, 68, 0
4, 700416, Note_on_c, 2, 69, 96
4, 703147, Note_off_c, 2, 69, 0
4, 703147, Note_on_c, 2, 66, 96
4, 703829, Note_on_c, 2, 68, 96
4, 703830, Note_off_c, 2, 66, 0
4, 704512, Note_off_c, 2, 68, 0
4, 704512, Note_on_c, 2, 69, 96
4, 705195, Note_off_c, 2, 69, 0
4, 705195, Note_on_c, 2, 68, 96
4, 705877, Note_on_c, 2, 66, 96
4, 705878, Note_off_c, 2, 68, 0
4, 706560, Note_off_c, 2, 66, 0
4, 706560, Note_on_c, 2, 71, 96
4, 708608, Note_off_c, 2, 71, 0
4, 709291, Note_on_c, 2, 71, 96
4, 709973, Note_on_c, 2, 73, 96
4, 709974, Note_off_c, 2, 71, 0
4, 710656, Note_off_c, 2, 73, 0
4, 710656, Note_on_c, 2, 74, 96
4, 711339, Note_off_c, 2, 74, 0
4, 711339, Note_on_c, 2, 73, 96
4, 712021, Note_on_c, 2, 71, 96
4, 712022, Note_off_c, 2, 73, 0
4, 712704, Note_off_c, 2, 71, 0
4, 712704, Note_on_c, 2, 69, 96
4, 713387, Note_off_c, 2, 69, 0
4, 713387, Note_on_c, 2, 71, 96
4, 714069, Note_on_c, 2, 73, 96
4, 714070, Note_off_c, 2, 71, 0
4, 714752, Note_off_c, 2, 73, 0
4, 714752, Note_on_c, 2, 74, 96
4, 715435, Note_off_c, 2, 74, 0
4, 715435, Note_on_c, 2, 69, 96
4, 716117, Note_on_c, 2, 68, 96
4, 716118, Note_off_c, 2, 69, 0
4, 716800, Note_off_c, 2, 68, 0
4, 716800, Note_on_c, 2, 66, 96
4, 717483, Note_off_c, 2, 66, 0
4, 717483, Note_on_c, 2, 68, 96
4, 718165, Note_on_c, 2, 69, 96
4, 718166, Note_off_c, 2, 68, 0
4, 718848, Note_off_c, 2, 69, 0
4, 718848, Note_on_c, 2, 68, 96
4, 719531, Note_off_c, 2, 68, 0
4, 719531, Note_on_c, 2, 69, 96
4, 720213, Note_on_c, 2, 71, 96
4, 720214, Note_off_c, 2, 69, 0
4, 720896, Note_off_c, 2, 71, 0
4, 720896, Note_on_c, 2, 69, 96
4, 721579, Note_off_c, 2, 69, 0
4, 721579, Note_on_c, 2, 71, 96
4, 722261, Note_on_c, 2, 73, 96
4, 722262, Note_off_c, 2, 71, 0
4, 722944, Note_off_c, 2, 73, 0
4, 722944, Note_on_c, 2, 71, 96
4, 723627, Note_off_c, 2, 71, 0
4, 723627, Note_on_c, 2, 69, 96
4, 724309, Note_on_c, 2, 68, 96
4, 724310, Note_off_c, 2, 69, 0
4, 724992, Note_off_c, 2, 68, 0
4, 724992, Note_on_c, 2, 69, 96
4, 727723, Note_off_c, 2, 69, 0
4, 727723, Note_on_c, 2, 68, 96
4, 728405, Note_on_c, 2, 66, 96
4, 728406, Note_off_c, 2, 68, 0
4, 729088, Note_off_c, 2, 66, 0
4, 729088, Note_on_c, 2, 68, 96
4, 729771, Note_off_c, 2, 68, 0
4, 731819, Note_on_c, 2, 69, 96
4, 732501, Note_on_c, 2, 67, 96
4, 732502, Note_off_c, 2, 69, 0
4, 733184, Note_off_c, 2, 67, 0
4, 733184, Note_on_c, 2, 66, 96
4, 733867, Note_off_c, 2, 66, 0
4, 733867, Note_on_c, 2, 71, 96
4, 734549, Note_on_c, 2, 73, 96
4, 734550, Note_off_c, 2, 71, 0
4, 735232, Note_off_c, 2, 73, 0
4, 735232, Note_on_c, 2, 74, 96
4, 735915, Note_off_c, 2, 74, 0
4, 735915, Note_on_c, 2, 73, 96
4, 736597, Note_on_c, 2, 71, 96
4, 736598, Note_off_c, 2, 73, 0
4, 737280, Note_off_c, 2, 71, 0
4, 737280, Note_on_c, 2, 69, 96
4, 742741, Note_off_c, 2, 69, 0
4, 742741, Note_on_c, 2, 71, 96
4, 743424, Note_off_c, 2, 71, 0
4, 743424, Note_on_c, 2, 73, 96
4, 744789, Note_off_c, 2, 73, 0
4, 750933, Note_on_c, 2, 66, 96
4, 751616, Note_off_c, 2, 66, 0
4, 751616, Note_on_c, 2, 66, 96
4, 752299, Note_off_c, 2, 66, 0
4, 752299, Note_on_c, 2, 63, 96
4, 752981, Note_on_c, 2, 66, 96
4, 752982, Note_off_c, 2, 63, 0
4, 753664, Note_off_c, 2, 66, 0
4, 753664, Note_on_c, 2, 66, 96
4, 754347, Note_off_c, 2, 66, 0
4, 754347, Note_on_c, 2, 61, 96
4, 755029, Note_on_c, 2, 66, 96
4, 755030, Note_off_c, 2, 61, 0
4, 755712, Note_off_c, 2, 66, 0
4, 755712, Note_on_c, 2, 63, 96
4, 756395, Note_off_c, 2, 63, 0
4, 756395, Note_on_c, 2, 59, 96
4, 757077, Note_on_c, 2, 63, 96
4, 757078, Note_off_c, 2, 59, 0
4, 757760, Note_off_c, 2, 63, 0
4, 757760, Note_on_c, 2, 64, 96
4, 759125, Note_off_c, 2, 64, 0
4, 759808, Note_on_c, 2, 63, 96
4, 761173, Note_off_c, 2, 63, 0
4, 761856, Note_on_c, 2, 64, 96
4, 763221, Note_off_c, 2, 64, 0
4, 763221, Note_on_c, 2, 62, 96
4, 763904, Note_off_c, 2, 62, 0
4, 763904, Note_on_c, 2, 61, 96
4, 765269, Note_off_c, 2, 61, 0
4, 765952, Note_on_c, 2, 62, 96
4, 767317, Note_off_c, 2, 62, 0
4, 768000, Note_on_c, 2, 64, 96
4, 769365, Note_off_c, 2, 64, 0
4, 769365, Note_on_c, 2, 56, 96
4, 770048, Note_off_c, 2, 56, 0
4, 770048, Note_on_c, 2, 57, 96
4, 773461, Note_off_c, 2, 57, 0
4, 773461, Note_on_c, 2, 56, 96
4, 774144, Note_off_c, 2, 56, 0
4, 774144, Note_on_c, 2, 57, 96
4, 774827, Note_off_c, 2, 57, 0
4, 774827, Note_on_c, 2, 61, 96
4, 775509, Note_on_c, 2, 64, 96
4, 775510, Note_off_c, 2, 61, 0
4, 776875, Note_off_c, 2, 64, 0
4, 776875, Note_on_c, 2, 61, 96
4, 777557, Note_on_c, 2, 66, 96
4, 777558, Note_off_c, 2, 61, 0
4, 779605, Note_off_c, 2, 66, 0
4, 779605, Note_on_c, 2, 65, 96
4, 780288, Note_off_c, 2, 65, 0
4, 780971, Note_on_c, 2, 61, 96
4, 781653, Note_on_c, 2, 66, 96
4, 781654, Note_off_c, 2, 61, 0
4, 782336, Note_off_c, 2, 66, 0
4, 783019, Note_on_c, 2, 61, 96
4, 783701, Note_on_c, 2, 66, 96
4, 783702, Note_off_c, 2, 61, 0
4, 784384, Note_off_c, 2, 66, 0
4, 785067, Note_on_c, 2, 61, 96
4, 785749, Note_on_c, 2, 66, 96
4, 785750, Note_off_c, 2, 61, 0
4, 786432, Note_off_c, 2, 66, 0
4, 787115, Note_on_c, 2, 63, 96
4, 787797, Note_on_c, 2, 66, 96
4, 787798, Note_off_c, 2, 63, 0
4, 788480, Note_off_c, 2, 66, 0
4, 788480, Note_on_c, 2, 63, 96
4, 789163, Note_off_c, 2, 63, 0
4, 789163, Note_on_c, 2, 66, 96
4, 789845, Note_on_c, 2, 69, 96
4, 789846, Note_off_c, 2, 66, 0
4, 790528, Note_off_c, 2, 69, 0
4, 790528, Note_on_c, 2, 64, 96
4, 791211, Note_off_c, 2, 64, 0
4, 791211, Note_on_c, 2, 68, 96
4, 791893, Note_on_c, 2, 71, 96
4, 791894, Note_off_c, 2, 68, 0
4, 792576, Note_off_c, 2, 71, 0
4, 792576, Note_on_c, 2, 69, 96
4, 793259, Note_off_c, 2, 69, 0
4, 793259, Note_on_c, 2, 76, 96
4, 793941, Note_on_c, 2, 69, 96
4, 793942, Note_off_c, 2, 76, 0
4, 794624, Note_off_c, 2, 69, 0
4, 794624, Note_on_c, 2, 71, 96
4, 795307, Note_off_c, 2, 71, 0
4, 795307, Note_on_c, 2, 76, 96
4, 795989, Note_on_c, 2, 68, 96
4, 795990, Note_off_c, 2, 76, 0
4, 796672, Note_off_c, 2, 68, 0
4, 796672, Note_on_c, 2, 69, 96
4, 797355, Note_off_c, 2, 69, 0
4, 797355, Note_on_c, 2, 75, 96
4, 798037, Note_on_c, 2, 66, 96
4, 798038, Note_off_c, 2, 75, 0
4, 798720, Note_off_c, 2, 66, 0
4, 798720, Note_on_c, 2, 68, 96
4, 800085, Note_off_c, 2, 68, 0
4, 800085, Note_on_c, 2, 63, 96
4, 800768, Note_off_c, 2, 63, 0
4, 800768, Note_on_c, 2, 64, 96
4, 802133, Note_off_c, 2, 64, 0
4, 802816, Note_on_c, 2, 63, 96
4, 804181, Note_off_c, 2, 63, 0
4, 804864, Note_on_c, 2, 64, 96
4, 806229, Note_off_c, 2, 64, 0
4, 806229, Note_on_c, 2, 76, 96
4, 806912, Note_off_c, 2, 76, 0
4, 806912, Note_on_c, 2, 76, 96
4, 807595, Note_off_c, 2, 76, 0
4, 807595, Note_on_c, 2, 73, 96
4, 808277, Note_on_c, 2, 76, 96
4, 808278, Note_off_c, 2, 73, 0
4, 808960, Note_off_c, 2, 76, 0
4, 808960, Note_on_c, 2, 76, 96
4, 809643, Note_off_c, 2, 76, 0
4, 809643, Note_on_c, 2, 71, 96
4, 810325, Note_on_c, 2, 76, 96
4, 810326, Note_off_c, 2, 71, 0
4, 811008, Note_off_c, 2, 76, 0
4, 811008, Note_on_c, 2, 73, 96
4, 811691, Note_off_c, 2, 73, 0
4, 811691, Note_on_c, 2, 69, 96
4, 812373, Note_on_c, 2, 68, 96
4, 812374, Note_off_c, 2, 69, 0
4, 813056, Note_off_c, 2, 68, 0
4, 813056, Note_on_c, 2, 69, 96
4, 814421, Note_off_c, 2, 69, 0
4, 814421, Note_on_c, 2, 69, 96
4, 815104, Note_off_c, 2, 69, 0
4, 815104, Note_on_c, 2, 68, 96
4, 816469, Note_off_c, 2, 68, 0
4, 816469, Note_on_c, 2, 68, 96
4, 817152, Note_off_c, 2, 68, 0
4, 817152, Note_on_c, 2, 69, 96
4, 818517, Note_off_c, 2, 69, 0
4, 818517, Note_on_c, 2, 64, 96
4, 819200, Note_off_c, 2, 64, 0
4, 819200, Note_on_c, 2, 64, 96
4, 819883, Note_off_c, 2, 64, 0
4, 819883, Note_on_c, 2, 61, 96
4, 820565, Note_on_c, 2, 64, 96
4, 820566, Note_off_c, 2, 61, 0
4, 821248, Note_off_c, 2, 64, 0
4, 821248, Note_on_c, 2, 64, 96
4, 821931, Note_off_c, 2, 64, 0
4, 821931, Note_on_c, 2, 59, 96
4, 822613, Note_on_c, 2, 64, 96
4, 822614, Note_off_c, 2, 59, 0
4, 823296, Note_off_c, 2, 64, 0
4, 835584, Note_on_c, 2, 69, 96
4, 837632, Note_off_c, 2, 69, 0
4, 837632, Note_on_c, 2, 68, 96
4, 839680, Note_off_c, 2, 68, 0
4, 839680, Note_on_c, 2, 66, 96
4, 841728, Note_off_c, 2, 66, 0
4, 841728, Note_on_c, 2, 65, 96
4, 842752, Note_off_c, 2, 65, 0
4, 842752, Note_on_c, 2, 66, 96
4, 843776, Note_off_c, 2, 66, 0
4, 843776, Note_on_c, 2, 63, 96
4, 844800, Note_off_c, 2, 63, 0
4, 844800, Note_on_c, 2, 65, 96
4, 845824, Note_off_c, 2, 65, 0
4, 845824, Note_on_c, 2, 66, 96
4, 846848, Note_off_c, 2, 66, 0
4, 846848, Note_on_c, 2, 60, 96
4, 847872, Note_off_c, 2, 60, 0
4, 847872, Note_on_c, 2, 61, 96
4, 851968, Note_off_c, 2, 61, 0
4, 917504, Note_on_c, 2, 66, 96
4, 919552, Note_off_c, 2, 66, 0
4, 919552, Note_on_c, 2, 64, 96
4, 921600, Note_off_c, 2, 64, 0
4, 921600, Note_on_c, 2, 66, 96
4, 923648, Note_off_c, 2, 66, 0
4, 923648, Note_on_c, 2, 62, 96
4, 927744, Note_off_c, 2, 62, 0
4, 927744, Note_on_c, 2, 64, 96
4, 934912, Note_off_c, 2, 64, 0
4, 934912, End_track
5, 0, Start_track
5, 0, Title_t, "Instrument 4"
5, 7168, Note_on_c, 3, 52, 96
5, 8192, Note_off_c, 3, 52, 0
5, 8192, Note_on_c, 3, 54, 96
5, 8704, Note_off_c, 3, 54, 0
5, 8704, Note_on_c, 3, 56, 96
5, 9216, Note_off_c, 3, 56, 0
5, 9216, Note_on_c, 3, 54, 96
5, 9728, Note_off_c, 3, 54, 0
5, 9728, Note_on_c, 3, 56, 96
5, 10240, Note_off_c, 3, 56, 0
5, 10240, Note_on_c, 3, 56, 96
5, 11776, Note_off_c, 3, 56, 0
5, 11776, Note_on_c, 3, 54, 96
5, 12032, Note_off_c, 3, 54, 0
5, 12032, Note_on_c, 3, 56, 96
5, 12288, Note_off_c, 3, 56, 0
5, 12288, Note_on_c, 3, 57, 96
5, 14848, Note_off_c, 3, 57, 0
5, 14848, Note_on_c, 3, 59, 96
5, 15360, Note_off_c, 3, 59, 0
5, 15360, Note_on_c, 3, 57, 96
5, 15872, Note_off_c, 3, 57, 0
5, 15872, Note_on_c, 3, 55, 96
5, 16384, Note_off_c, 3, 55, 0
5, 16384, Note_on_c, 3, 54, 96
5, 16896, Note_off_c, 3, 54, 0
5, 16896, Note_on_c, 3, 52, 96
5, 17408, Note_off_c, 3, 52, 0
5, 17408, Note_on_c, 3, 54, 96
5, 17920, Note_off_c, 3, 54, 0
5, 17920, Note_on_c, 3, 50, 96
5, 18432, Note_off_c, 3, 50, 0
5, 18432, Note_on_c, 3, 57, 96
5, 20992, Note_off_c, 3, 57, 0
5, 20992, Note_on_c, 3, 54, 96
5, 21504, Note_off_c, 3, 54, 0
5, 21504, Note_on_c, 3, 52, 96
5, 22016, Note_off_c, 3, 52, 0
5, 22016, Note_on_c, 3, 50, 96
5, 22528, Note_off_c, 3, 50, 0
5, 22528, Note_on_c, 3, 49, 96
5, 23040, Note_off_c, 3, 49, 0
5, 23040, Note_on_c, 3, 47, 96
5, 23552, Note_off_c, 3, 47, 0
5, 23552, Note_on_c, 3, 49, 96
5, 24064, Note_off_c, 3, 49, 0
5, 24064, Note_on_c, 3, 45, 96
5, 24576, Note_off_c, 3, 45, 0
5, 24576, Note_on_c, 3, 54, 96
5, 27136, Note_off_c, 3, 54, 0
5, 27136, Note_on_c, 3, 57, 96
5, 27648, Note_off_c, 3, 57, 0
5, 27648, Note_on_c, 3, 56, 96
5, 28160, Note_off_c, 3, 56, 0
5, 28160, Note_on_c, 3, 54, 96
5, 28672, Note_off_c, 3, 54, 0
5, 28672, Note_on_c, 3, 56, 96
5, 30720, Note_off_c, 3, 56, 0
5, 30720, Note_on_c, 3, 57, 96
5, 31744, Note_off_c, 3, 57, 0
5, 31744, Note_on_c, 3, 45, 96
5, 32768, Note_off_c, 3, 45, 0
5, 32768, Note_on_c, 3, 49, 96
5, 34304, Note_off_c, 3, 49, 0
5, 34304, Note_on_c, 3, 50, 96
5, 34816, Note_off_c, 3, 50, 0
5, 34816, Note_on_c, 3, 50, 96
5, 36352, Note_off_c, 3, 50, 0
5, 36352, Note_on_c, 3, 49, 96
5, 36608, Note_off_c, 3, 49, 0
5, 36608, Note_on_c, 3, 50, 96
5, 36864, Note_off_c, 3, 50, 0
5, 36864, Note_on_c, 3, 52, 96
5, 38912, Note_off_c, 3, 52, 0
5, 40960, Note_on_c, 3, 52, 96
5, 43008, Note_off_c, 3, 52, 0
5, 43008, Note_on_c, 3, 54, 96
5, 49152, Note_off_c, 3, 54, 0
5, 49152, Note_on_c, 3, 52, 96
5, 55296, Note_off_c, 3, 52, 0
5, 55296, Note_on_c, 3, 57, 96
5, 64000, Note_off_c, 3, 57, 0
5, 64000, Note_on_c, 3, 59, 96
5, 64512, Note_off_c, 3, 59, 0
5, 64512, Note_on_c, 3, 57, 96
5, 65024, Note_off_c, 3, 57, 0
5, 65024, Note_on_c, 3, 55, 96
5, 65536, Note_off_c, 3, 55, 0
5, 65536, Note_on_c, 3, 54, 96
5, 66048, Note_off_c, 3, 54, 0
5, 66048, Note_on_c, 3, 52, 96
5, 66560, Note_off_c, 3, 52, 0
5, 66560, Note_on_c, 3, 54, 96
5, 67072, Note_off_c, 3, 54, 0
5, 67072, Note_on_c, 3, 50, 96
5, 67584, Note_off_c, 3, 50, 0
5, 67584, Note_on_c, 3, 57, 96
5, 70144, Note_off_c, 3, 57, 0
5, 70144, Note_on_c, 3, 54, 96
5, 70656, Note_off_c, 3, 54, 0
5, 70656, Note_on_c, 3, 52, 96
5, 71168, Note_off_c, 3, 52, 0
5, 71168, Note_on_c, 3, 50, 96
5, 71680, Note_off_c, 3, 50, 0
5, 71680, Note_on_c, 3, 49, 96
5, 72192, Note_off_c, 3, 49, 0
5, 72192, Note_on_c, 3, 47, 96
5, 72704, Note_off_c, 3, 47, 0
5, 72704, Note_on_c, 3, 49, 96
5, 73216, Note_off_c, 3, 49, 0
5, 73216, Note_on_c, 3, 45, 96
5, 73728, Note_off_c, 3, 45, 0
5, 73728, Note_on_c, 3, 50, 96
5, 76288, Note_off_c, 3, 50, 0
5, 76288, Note_on_c, 3, 47, 96
5, 76800, Note_off_c, 3, 47, 0
5, 76800, Note_on_c, 3, 45, 96
5, 77312, Note_off_c, 3, 45, 0
5, 77312, Note_on_c, 3, 43, 96
5, 77824, Note_off_c, 3, 43, 0
5, 77824, Note_on_c, 3, 42, 96
5, 78336, Note_off_c, 3, 42, 0
5, 78336, Note_on_c, 3, 40, 96
5, 78848, Note_off_c, 3, 40, 0
5, 78848, Note_on_c, 3, 42, 96
5, 79360, Note_off_c, 3, 42, 0
5, 79360, Note_on_c, 3, 38, 96
5, 79872, Note_off_c, 3, 38, 0
5, 79872, Note_on_c, 3, 45, 96
5, 82432, Note_off_c, 3, 45, 0
5, 82432, Note_on_c, 3, 44, 96
5, 82944, Note_off_c, 3, 44, 0
5, 82944, Note_on_c, 3, 45, 96
5, 83456, Note_off_c, 3, 45, 0
5, 83456, Note_on_c, 3, 47, 96
5, 83968, Note_off_c, 3, 47, 0
5, 83968, Note_on_c, 3, 49, 96
5, 84480, Note_off_c, 3, 49, 0
5, 84480, Note_on_c, 3, 50, 96
5, 84992, Note_off_c, 3, 50, 0
5, 84992, Note_on_c, 3, 49, 96
5, 85504, Note_off_c, 3, 49, 0
5, 85504, Note_on_c, 3, 52, 96
5, 86016, Note_off_c, 3, 52, 0
5, 86016, Note_on_c, 3, 42, 96
5, 88576, Note_off_c, 3, 42, 0
5, 88576, Note_on_c, 3, 61, 96
5, 89088, Note_off_c, 3, 61, 0
5, 89088, Note_on_c, 3, 59, 96
5, 89600, Note_off_c, 3, 59, 0
5, 89600, Note_on_c, 3, 57, 96
5, 90112, Note_off_c, 3, 57, 0
5, 90112, Note_on_c, 3, 56, 96
5, 90624, Note_off_c, 3, 56, 0
5, 90624, Note_on_c, 3, 54, 96
5, 91136, Note_off_c, 3, 54, 0
5, 91136, Note_on_c, 3, 56, 96
5, 91648, Note_off_c, 3, 56, 0
5, 91648, Note_on_c, 3, 52, 96
5, 92160, Note_off_c, 3, 52, 0
5, 92160, Note_on_c, 3, 57, 96
5, 94720, Note_off_c, 3, 57, 0
5, 94720, Note_on_c, 3, 59, 96
5, 95232, Note_off_c, 3, 59, 0
5, 95232, Note_on_c, 3, 57, 96
5, 95744, Note_off_c, 3, 57, 0
5, 95744, Note_on_c, 3, 56, 96
5, 96256, Note_off_c, 3, 56, 0
5, 96256, Note_on_c, 3, 54, 96
5, 96768, Note_off_c, 3, 54, 0
5, 96768, Note_on_c, 3, 52, 96
5, 97280, Note_off_c, 3, 52, 0
5, 97280, Note_on_c, 3, 54, 96
5, 97792, Note_off_c, 3, 54, 0
5, 97792, Note_on_c, 3, 50, 96
5, 98304, Note_off_c, 3, 50, 0
5, 98304, Note_on_c, 3, 52, 96
5, 98816, Note_off_c, 3, 52, 0
5, 98816, Note_on_c, 3, 54, 96
5, 99328, Note_off_c, 3, 54, 0
5, 99328, Note_on_c, 3, 52, 96
5, 99840, Note_off_c, 3, 52, 0
5, 99840, Note_on_c, 3, 50, 96
5, 100352, Note_off_c, 3, 50, 0
5, 100352, Note_on_c, 3, 49, 96
5, 100864, Note_off_c, 3, 49, 0
5, 100864, Note_on_c, 3, 47, 96
5, 101376, Note_off_c, 3, 47, 0
5, 101376, Note_on_c, 3, 49, 96
5, 101888, Note_off_c, 3, 49, 0
5, 101888, Note_on_c, 3, 45, 96
5, 102400, Note_off_c, 3, 45, 0
5, 102400, Note_on_c, 3, 52, 96
5, 103424, Note_off_c, 3, 52, 0
5, 103424, Note_on_c, 3, 40, 96
5, 104448, Note_off_c, 3, 40, 0
5, 104448, Note_on_c, 3, 45, 96
5, 107008, Note_off_c, 3, 45, 0
5, 107008, Note_on_c, 3, 47, 96
5, 107520, Note_off_c, 3, 47, 0
5, 107520, Note_on_c, 3, 45, 96
5, 108032, Note_off_c, 3, 45, 0
5, 108032, Note_on_c, 3, 43, 96
5, 108544, Note_off_c, 3, 43, 0
5, 108544, Note_on_c, 3, 42, 96
5, 109056, Note_off_c, 3, 42, 0
5, 109056, Note_on_c, 3, 40, 96
5, 109568, Note_off_c, 3, 40, 0
5, 109568, Note_on_c, 3, 42, 96
5, 110080, Note_off_c, 3, 42, 0
5, 110080, Note_on_c, 3, 38, 96
5, 110592, Note_off_c, 3, 38, 0
5, 110592, Note_on_c, 3, 45, 96
5, 114688, Note_off_c, 3, 45, 0
5, 115200, Note_on_c, 3, 59, 96
5, 115712, Note_off_c, 3, 59, 0
5, 115712, Note_on_c, 3, 57, 96
5, 116224, Note_off_c, 3, 57, 0
5, 116224, Note_on_c, 3, 56, 96
5, 116736, Note_off_c, 3, 56, 0
5, 116736, Note_on_c, 3, 57, 96
5, 117248, Note_off_c, 3, 57, 0
5, 123904, Note_on_c, 3, 52, 96
5, 124928, Note_off_c, 3, 52, 0
5, 124928, Note_on_c, 3, 54, 96
5, 125440, Note_off_c, 3, 54, 0
5, 125440, Note_on_c, 3, 56, 96
5, 125952, Note_off_c, 3, 56, 0
5, 125952, Note_on_c, 3, 54, 96
5, 126464, Note_off_c, 3, 54, 0
5, 126464, Note_on_c, 3, 56, 96
5, 126976, Note_off_c, 3, 56, 0
5, 126976, Note_on_c, 3, 56, 96
5, 128512, Note_off_c, 3, 56, 0
5, 128512, Note_on_c, 3, 54, 96
5, 128768, Note_off_c, 3, 54, 0
5, 128768, Note_on_c, 3, 56, 96
5, 129024, Note_off_c, 3, 56, 0
5, 129024, Note_on_c, 3, 57, 96
5, 131584, Note_off_c, 3, 57, 0
5, 131584, Note_on_c, 3, 59, 96
5, 132096, Note_off_c, 3, 59, 0
5, 132096, Note_on_c, 3, 57, 96
5, 132608, Note_off_c, 3, 57, 0
5, 132608, Note_on_c, 3, 55, 96
5, 133120, Note_off_c, 3, 55, 0
5, 133120, Note_on_c, 3, 54, 96
5, 133632, Note_off_c, 3, 54, 0
5, 133632, Note_on_c, 3, 52, 96
5, 134144, Note_off_c, 3, 52, 0
5, 134144, Note_on_c, 3, 54, 96
5, 134656, Note_off_c, 3, 54, 0
5, 134656, Note_on_c, 3, 50, 96
5, 135168, Note_off_c, 3, 50, 0
5, 135168, Note_on_c, 3, 57, 96
5, 137728, Note_off_c, 3, 57, 0
5, 137728, Note_on_c, 3, 54, 96
5, 138240, Note_off_c, 3, 54, 0
5, 138240, Note_on_c, 3, 52, 96
5, 138752, Note_off_c, 3, 52, 0
5, 138752, Note_on_c, 3, 50, 96
5, 139264, Note_off_c, 3, 50, 0
5, 139264, Note_on_c, 3, 49, 96
5, 139776, Note_off_c, 3, 49, 0
5, 139776, Note_on_c, 3, 47, 96
5, 140288, Note_off_c, 3, 47, 0
5, 140288, Note_on_c, 3, 49, 96
5, 140800, Note_off_c, 3, 49, 0
5, 140800, Note_on_c, 3, 45, 96
5, 141312, Note_off_c, 3, 45, 0
5, 141312, Note_on_c, 3, 54, 96
5, 143872, Note_off_c, 3, 54, 0
5, 143872, Note_on_c, 3, 57, 96
5, 144384, Note_off_c, 3, 57, 0
5, 144384, Note_on_c, 3, 56, 96
5, 144896, Note_off_c, 3, 56, 0
5, 144896, Note_on_c, 3, 54, 96
5, 145408, Note_off_c, 3, 54, 0
5, 145408, Note_on_c, 3, 56, 96
5, 147456, Note_off_c, 3, 56, 0
5, 147456, Note_on_c, 3, 57, 96
5, 148480, Note_off_c, 3, 57, 0
5, 148480, Note_on_c, 3, 45, 96
5, 149504, Note_off_c, 3, 45, 0
5, 149504, Note_on_c, 3, 49, 96
5, 151040, Note_off_c, 3, 49, 0
5, 151040, Note_on_c, 3, 50, 96
5, 151552, Note_off_c, 3, 50, 0
5, 151552, Note_on_c, 3, 50, 96
5, 153088, Note_off_c, 3, 50, 0
5, 153088, Note_on_c, 3, 49, 96
5, 153344, Note_off_c, 3, 49, 0
5, 153344, Note_on_c, 3, 50, 96
5, 153600, Note_off_c, 3, 50, 0
5, 153600, Note_on_c, 3, 52, 96
5, 155648, Note_off_c, 3, 52, 0
5, 157696, Note_on_c, 3, 52, 96
5, 159744, Note_off_c, 3, 52, 0
5, 159744, Note_on_c, 3, 54, 96
5, 165888, Note_off_c, 3, 54, 0
5, 165888, Note_on_c, 3, 52, 96
5, 172032, Note_off_c, 3, 52, 0
5, 172032, Note_on_c, 3, 57, 96
5, 180736, Note_off_c, 3, 57, 0
5, 180736, Note_on_c, 3, 59, 96
5, 181248, Note_off_c, 3, 59, 0
5, 181248, Note_on_c, 3, 57, 96
5, 181760, Note_off_c, 3, 57, 0
5, 181760, Note_on_c, 3, 55, 96
5, 182272, Note_off_c, 3, 55, 0
5, 182272, Note_on_c, 3, 54, 96
5, 182784, Note_off_c, 3, 54, 0
5, 182784, Note_on_c, 3, 52, 96
5, 183296, Note_off_c, 3, 52, 0
5, 183296, Note_on_c, 3, 54, 96
5, 183808, Note_off_c, 3, 54, 0
5, 183808, Note_on_c, 3, 50, 96
5, 184320, Note_off_c, 3, 50, 0
5, 184320, Note_on_c, 3, 57, 96
5, 186880, Note_off_c, 3, 57, 0
5, 186880, Note_on_c, 3, 54, 96
5, 187392, Note_off_c, 3, 54, 0
5, 187392, Note_on_c, 3, 52, 96
5, 187904, Note_off_c, 3, 52, 0
5, 187904, Note_on_c, 3, 50, 96
5, 188416, Note_off_c, 3, 50, 0
5, 188416, Note_on_c, 3, 49, 96
5, 188928, Note_off_c, 3, 49, 0
5, 188928, Note_on_c, 3, 47, 96
5, 189440, Note_off_c, 3, 47, 0
5, 189440, Note_on_c, 3, 49, 96
5, 189952, Note_off_c, 3, 49, 0
5, 189952, Note_on_c, 3, 45, 96
5, 190464, Note_off_c, 3, 45, 0
5, 190464, Note_on_c, 3, 50, 96
5, 193024, Note_off_c, 3, 50, 0
5, 193024, Note_on_c, 3, 47, 96
5, 193536, Note_off_c, 3, 47, 0
5, 193536, Note_on_c, 3, 45, 96
5, 194048, Note_off_c, 3, 45, 0
5, 194048, Note_on_c, 3, 43, 96
5, 194560, Note_off_c, 3, 43, 0
5, 194560, Note_on_c, 3, 42, 96
5, 195072, Note_off_c, 3, 42, 0
5, 195072, Note_on_c, 3, 40, 96
5, 195584, Note_off_c, 3, 40, 0
5, 195584, Note_on_c, 3, 42, 96
5, 196096, Note_off_c, 3, 42, 0
5, 196096, Note_on_c, 3, 38, 96
5, 196608, Note_off_c, 3, 38, 0
5, 196608, Note_on_c, 3, 45, 96
5, 199168, Note_off_c, 3, 45, 0
5, 199168, Note_on_c, 3, 44, 96
5, 199680, Note_off_c, 3, 44, 0
5, 199680, Note_on_c, 3, 45, 96
5, 200192, Note_off_c, 3, 45, 0
5, 200192, Note_on_c, 3, 47, 96
5, 200704, Note_off_c, 3, 47, 0
5, 200704, Note_on_c, 3, 49, 96
5, 201216, Note_off_c, 3, 49, 0
5, 201216, Note_on_c, 3, 50, 96
5, 201728, Note_off_c, 3, 50, 0
5, 201728, Note_on_c, 3, 49, 96
5, 202240, Note_off_c, 3, 49, 0
5, 202240, Note_on_c, 3, 52, 96
5, 202752, Note_off_c, 3, 52, 0
5, 202752, Note_on_c, 3, 42, 96
5, 205312, Note_off_c, 3, 42, 0
5, 205312, Note_on_c, 3, 61, 96
5, 205824, Note_off_c, 3, 61, 0
5, 205824, Note_on_c, 3, 59, 96
5, 206336, Note_off_c, 3, 59, 0
5, 206336, Note_on_c, 3, 57, 96
5, 206848, Note_off_c, 3, 57, 0
5, 206848, Note_on_c, 3, 56, 96
5, 207360, Note_off_c, 3, 56, 0
5, 207360, Note_on_c, 3, 54, 96
5, 207872, Note_off_c, 3, 54, 0
5, 207872, Note_on_c, 3, 56, 96
5, 208384, Note_off_c, 3, 56, 0
5, 208384, Note_on_c, 3, 52, 96
5, 208896, Note_off_c, 3, 52, 0
5, 208896, Note_on_c, 3, 57, 96
5, 211456, Note_off_c, 3, 57, 0
5, 211456, Note_on_c, 3, 59, 96
5, 211968, Note_off_c, 3, 59, 0
5, 211968, Note_on_c, 3, 57, 96
5, 212480, Note_off_c, 3, 57, 0
5, 212480, Note_on_c, 3, 56, 96
5, 212992, Note_off_c, 3, 56, 0
5, 212992, Note_on_c, 3, 54, 96
5, 213504, Note_off_c, 3, 54, 0
5, 213504, Note_on_c, 3, 52, 96
5, 214016, Note_off_c, 3, 52, 0
5, 214016, Note_on_c, 3, 54, 96
5, 214528, Note_off_c, 3, 54, 0
5, 214528, Note_on_c, 3, 50, 96
5, 215040, Note_off_c, 3, 50, 0
5, 215040, Note_on_c, 3, 52, 96
5, 215552, Note_off_c, 3, 52, 0
5, 215552, Note_on_c, 3, 54, 96
5, 216064, Note_off_c, 3, 54, 0
5, 216064, Note_on_c, 3, 52, 96
5, 216576, Note_off_c, 3, 52, 0
5, 216576, Note_on_c, 3, 50, 96
5, 217088, Note_off_c, 3, 50, 0
5, 217088, Note_on_c, 3, 49, 96
5, 217600, Note_off_c, 3, 49, 0
5, 217600, Note_on_c, 3, 47, 96
5, 218112, Note_off_c, 3, 47, 0
5, 218112, Note_on_c, 3, 49, 96
5, 218624, Note_off_c, 3, 49, 0
5, 218624, Note_on_c, 3, 45, 96
5, 219136, Note_off_c, 3, 45, 0
5, 219136, Note_on_c, 3, 52, 96
5, 220160, Note_off_c, 3, 52, 0
5, 220160, Note_on_c, 3, 40, 96
5, 221184, Note_off_c, 3, 40, 0
5, 221184, Note_on_c, 3, 45, 96
5, 223744, Note_off_c, 3, 45, 0
5, 223744, Note_on_c, 3, 47, 96
5, 224256, Note_off_c, 3, 47, 0
5, 224256, Note_on_c, 3, 45, 96
5, 224768, Note_off_c, 3, 45, 0
5, 224768, Note_on_c, 3, 43, 96
5, 225280, Note_off_c, 3, 43, 0
5, 225280, Note_on_c, 3, 42, 96
5, 225792, Note_off_c, 3, 42, 0
5, 225792, Note_on_c, 3, 40, 96
5, 226304, Note_off_c, 3, 40, 0
5, 226304, Note_on_c, 3, 42, 96
5, 226816, Note_off_c, 3, 42, 0
5, 226816, Note_on_c, 3, 38, 96
5, 227328, Note_off_c, 3, 38, 0
5, 227328, Note_on_c, 3, 45, 96
5, 231424, Note_off_c, 3, 45, 0
5, 231936, Note_on_c, 3, 59, 96
5, 232448, Note_off_c, 3, 59, 0
5, 232448, Note_on_c, 3, 57, 96
5, 232960, Note_off_c, 3, 57, 0
5, 232960, Note_on_c, 3, 56, 96
5, 233472, Note_off_c, 3, 56, 0
5, 233472, Note_on_c, 3, 57, 96
5, 234496, Note_off_c, 3, 57, 0
5, 234496, Note_on_c, 3, 45, 96
5, 235520, Note_off_c, 3, 45, 0
5, 240128, Note_on_c, 3, 52, 96
5, 240640, Note_off_c, 3, 52, 0
5, 240640, Note_on_c, 3, 54, 96
5, 241152, Note_off_c, 3, 54, 0
5, 241152, Note_on_c, 3, 56, 96
5, 241664, Note_off_c, 3, 56, 0
5, 241664, Note_on_c, 3, 57, 96
5, 247808, Note_off_c, 3, 57, 0
5, 247808, Note_on_c, 3, 56, 96
5, 248320, Note_off_c, 3, 56, 0
5, 248320, Note_on_c, 3, 44, 96
5, 248832, Note_off_c, 3, 44, 0
5, 248832, Note_on_c, 3, 45, 96
5, 249344, Note_off_c, 3, 45, 0
5, 249344, Note_on_c, 3, 47, 96
5, 249856, Note_off_c, 3, 47, 0
5, 249856, Note_on_c, 3, 49, 96
5, 250368, Note_off_c, 3, 49, 0
5, 250368, Note_on_c, 3, 51, 96
5, 250880, Note_off_c, 3, 51, 0
5, 250880, Note_on_c, 3, 49, 96
5, 251392, Note_off_c, 3, 49, 0
5, 251392, Note_on_c, 3, 52, 96
5, 251904, Note_off_c, 3, 52, 0
5, 251904, Note_on_c, 3, 42, 96
5, 252928, Note_off_c, 3, 42, 0
5, 252928, Note_on_c, 3, 54, 96
5, 253952, Note_off_c, 3, 54, 0
5, 253952, Note_on_c, 3, 56, 96
5, 255488, Note_off_c, 3, 56, 0
5, 255488, Note_on_c, 3, 57, 96
5, 256000, Note_off_c, 3, 57, 0
5, 256000, Note_on_c, 3, 59, 96
5, 257024, Note_off_c, 3, 59, 0
5, 257024, Note_on_c, 3, 47, 96
5, 258048, Note_off_c, 3, 47, 0
5, 258048, Note_on_c, 3, 52, 96
5, 260608, Note_off_c, 3, 52, 0
5, 260608, Note_on_c, 3, 57, 96
5, 261120, Note_off_c, 3, 57, 0
5, 261120, Note_on_c, 3, 56, 96
5, 261632, Note_off_c, 3, 56, 0
5, 261632, Note_on_c, 3, 54, 96
5, 262144, Note_off_c, 3, 54, 0
5, 262144, Note_on_c, 3, 52, 96
5, 262656, Note_off_c, 3, 52, 0
5, 262656, Note_on_c, 3, 50, 96
5, 263168, Note_off_c, 3, 50, 0
5, 263168, Note_on_c, 3, 52, 96
5, 263680, Note_off_c, 3, 52, 0
5, 263680, Note_on_c, 3, 49, 96
5, 264192, Note_off_c, 3, 49, 0
5, 264192, Note_on_c, 3, 54, 96
5, 266752, Note_off_c, 3, 54, 0
5, 266752, Note_on_c, 3, 61, 96
5, 267264, Note_off_c, 3, 61, 0
5, 267264, Note_on_c, 3, 59, 96
5, 267776, Note_off_c, 3, 59, 0
5, 267776, Note_on_c, 3, 57, 96
5, 268288, Note_off_c, 3, 57, 0
5, 268288, Note_on_c, 3, 56, 96
5, 268800, Note_off_c, 3, 56, 0
5, 268800, Note_on_c, 3, 54, 96
5, 269312, Note_off_c, 3, 54, 0
5, 269312, Note_on_c, 3, 56, 96
5, 269824, Note_off_c, 3, 56, 0
5, 269824, Note_on_c, 3, 52, 96
5, 270336, Note_off_c, 3, 52, 0
5, 270336, Note_on_c, 3, 57, 96
5, 272896, Note_off_c, 3, 57, 0
5, 272896, Note_on_c, 3, 45, 96
5, 273408, Note_off_c, 3, 45, 0
5, 273408, Note_on_c, 3, 47, 96
5, 273920, Note_off_c, 3, 47, 0
5, 273920, Note_on_c, 3, 49, 96
5, 274432, Note_off_c, 3, 49, 0
5, 274432, Note_on_c, 3, 50, 96
5, 274944, Note_off_c, 3, 50, 0
5, 274944, Note_on_c, 3, 52, 96
5, 275456, Note_off_c, 3, 52, 0
5, 275456, Note_on_c, 3, 50, 96
5, 275968, Note_off_c, 3, 50, 0
5, 275968, Note_on_c, 3, 54, 96
5, 276480, Note_off_c, 3, 54, 0
5, 276480, Note_on_c, 3, 43, 96
5, 279040, Note_off_c, 3, 43, 0
5, 279040, Note_on_c, 3, 50, 96
5, 279552, Note_off_c, 3, 50, 0
5, 279552, Note_on_c, 3, 52, 96
5, 280064, Note_off_c, 3, 52, 0
5, 280064, Note_on_c, 3, 54, 96
5, 280576, Note_off_c, 3, 54, 0
5, 280576, Note_on_c, 3, 55, 96
5, 281088, Note_off_c, 3, 55, 0
5, 281088, Note_on_c, 3, 57, 96
5, 281600, Note_off_c, 3, 57, 0
5, 281600, Note_on_c, 3, 55, 96
5, 282112, Note_off_c, 3, 55, 0
5, 282112, Note_on_c, 3, 59, 96
5, 282624, Note_off_c, 3, 59, 0
5, 282624, Note_on_c, 3, 53, 96
5, 283648, Note_off_c, 3, 53, 0
5, 283648, Note_on_c, 3, 59, 96
5, 285184, Note_off_c, 3, 59, 0
5, 285184, Note_on_c, 3, 62, 96
5, 285696, Note_off_c, 3, 62, 0
5, 285696, Note_on_c, 3, 61, 96
5, 286208, Note_off_c, 3, 61, 0
5, 286208, Note_on_c, 3, 59, 96
5, 286720, Note_off_c, 3, 59, 0
5, 286720, Note_on_c, 3, 57, 96
5, 287232, Note_off_c, 3, 57, 0
5, 287232, Note_on_c, 3, 56, 96
5, 287744, Note_off_c, 3, 56, 0
5, 287744, Note_on_c, 3, 57, 96
5, 288256, Note_off_c, 3, 57, 0
5, 288256, Note_on_c, 3, 54, 96
5, 288768, Note_off_c, 3, 54, 0
5, 288768, Note_on_c, 3, 56, 96
5, 290816, Note_off_c, 3, 56, 0
5, 291328, Note_on_c, 3, 52, 96
5, 291840, Note_off_c, 3, 52, 0
5, 291840, Note_on_c, 3, 54, 96
5, 292352, Note_off_c, 3, 54, 0
5, 292352, Note_on_c, 3, 56, 96
5, 292864, Note_off_c, 3, 56, 0
5, 292864, Note_on_c, 3, 57, 96
5, 293376, Note_off_c, 3, 57, 0
5, 293376, Note_on_c, 3, 59, 96
5, 293888, Note_off_c, 3, 59, 0
5, 293888, Note_on_c, 3, 57, 96
5, 294400, Note_off_c, 3, 57, 0
5, 294400, Note_on_c, 3, 61, 96
5, 294912, Note_off_c, 3, 61, 0
5, 294912, Note_on_c, 3, 51, 96
5, 295936, Note_off_c, 3, 51, 0
5, 295936, Note_on_c, 3, 47, 96
5, 296960, Note_off_c, 3, 47, 0
5, 296960, Note_on_c, 3, 40, 96
5, 297472, Note_off_c, 3, 40, 0
5, 297472, Note_on_c, 3, 52, 96
5, 297984, Note_off_c, 3, 52, 0
5, 297984, Note_on_c, 3, 50, 96
5, 298496, Note_off_c, 3, 50, 0
5, 298496, Note_on_c, 3, 49, 96
5, 299008, Note_off_c, 3, 49, 0
5, 299008, Note_on_c, 3, 47, 96
5, 299520, Note_off_c, 3, 47, 0
5, 299520, Note_on_c, 3, 45, 96
5, 300032, Note_off_c, 3, 45, 0
5, 300032, Note_on_c, 3, 47, 96
5, 300544, Note_off_c, 3, 47, 0
5, 300544, Note_on_c, 3, 44, 96
5, 301056, Note_off_c, 3, 44, 0
5, 301056, Note_on_c, 3, 49, 96
5, 303616, Note_off_c, 3, 49, 0
5, 303616, Note_on_c, 3, 52, 96
5, 304128, Note_off_c, 3, 52, 0
5, 304128, Note_on_c, 3, 54, 96
5, 304640, Note_off_c, 3, 54, 0
5, 304640, Note_on_c, 3, 56, 96
5, 305152, Note_off_c, 3, 56, 0
5, 305152, Note_on_c, 3, 57, 96
5, 305664, Note_off_c, 3, 57, 0
5, 305664, Note_on_c, 3, 59, 96
5, 306176, Note_off_c, 3, 59, 0
5, 306176, Note_on_c, 3, 57, 96
5, 306688, Note_off_c, 3, 57, 0
5, 306688, Note_on_c, 3, 61, 96
5, 307200, Note_off_c, 3, 61, 0
5, 307200, Note_on_c, 3, 54, 96
5, 307712, Note_off_c, 3, 54, 0
5, 307712, Note_on_c, 3, 56, 96
5, 308224, Note_off_c, 3, 56, 0
5, 308224, Note_on_c, 3, 54, 96
5, 308736, Note_off_c, 3, 54, 0
5, 308736, Note_on_c, 3, 57, 96
5, 309248, Note_off_c, 3, 57, 0
5, 309248, Note_on_c, 3, 50, 96
5, 309760, Note_off_c, 3, 50, 0
5, 309760, Note_on_c, 3, 52, 96
5, 310272, Note_off_c, 3, 52, 0
5, 310272, Note_on_c, 3, 50, 96
5, 310784, Note_off_c, 3, 50, 0
5, 310784, Note_on_c, 3, 54, 96
5, 311296, Note_off_c, 3, 54, 0
5, 311296, Note_on_c, 3, 47, 96
5, 311808, Note_off_c, 3, 47, 0
5, 311808, Note_on_c, 3, 52, 96
5, 312320, Note_off_c, 3, 52, 0
5, 312320, Note_on_c, 3, 50, 96
5, 312832, Note_off_c, 3, 50, 0
5, 312832, Note_on_c, 3, 52, 96
5, 313344, Note_off_c, 3, 52, 0
5, 313344, Note_on_c, 3, 49, 96
5, 315904, Note_off_c, 3, 49, 0
5, 315904, Note_on_c, 3, 54, 96
5, 316416, Note_off_c, 3, 54, 0
5, 316416, Note_on_c, 3, 52, 96
5, 316928, Note_off_c, 3, 52, 0
5, 316928, Note_on_c, 3, 50, 96
5, 317440, Note_off_c, 3, 50, 0
5, 317440, Note_on_c, 3, 49, 96
5, 317952, Note_off_c, 3, 49, 0
5, 317952, Note_on_c, 3, 47, 96
5, 318464, Note_off_c, 3, 47, 0
5, 318464, Note_on_c, 3, 49, 96
5, 318976, Note_off_c, 3, 49, 0
5, 318976, Note_on_c, 3, 45, 96
5, 319488, Note_off_c, 3, 45, 0
5, 319488, Note_on_c, 3, 54, 96
5, 322048, Note_off_c, 3, 54, 0
5, 322048, Note_on_c, 3, 59, 96
5, 322560, Note_off_c, 3, 59, 0
5, 322560, Note_on_c, 3, 57, 96
5, 323072, Note_off_c, 3, 57, 0
5, 323072, Note_on_c, 3, 55, 96
5, 323584, Note_off_c, 3, 55, 0
5, 323584, Note_on_c, 3, 54, 96
5, 324096, Note_off_c, 3, 54, 0
5, 324096, Note_on_c, 3, 52, 96
5, 324608, Note_off_c, 3, 52, 0
5, 324608, Note_on_c, 3, 54, 96
5, 325120, Note_off_c, 3, 54, 0
5, 325120, Note_on_c, 3, 50, 96
5, 325632, Note_off_c, 3, 50, 0
5, 325632, Note_on_c, 3, 57, 96
5, 331776, Note_off_c, 3, 57, 0
5, 331776, Note_on_c, 3, 57, 96
5, 333824, Note_off_c, 3, 57, 0
5, 336384, Note_on_c, 3, 52, 96
5, 336896, Note_off_c, 3, 52, 0
5, 336896, Note_on_c, 3, 49, 96
5, 337408, Note_off_c, 3, 49, 0
5, 337408, Note_on_c, 3, 52, 96
5, 337920, Note_off_c, 3, 52, 0
5, 337920, Note_on_c, 3, 45, 96
5, 339968, Note_off_c, 3, 45, 0
5, 340480, Note_on_c, 3, 54, 96
5, 340992, Note_off_c, 3, 54, 0
5, 340992, Note_on_c, 3, 59, 96
5, 341504, Note_off_c, 3, 59, 0
5, 341504, Note_on_c, 3, 57, 96
5, 342016, Note_off_c, 3, 57, 0
5, 342016, Note_on_c, 3, 59, 96
5, 343040, Note_off_c, 3, 59, 0
5, 343040, Note_on_c, 3, 47, 96
5, 344064, Note_off_c, 3, 47, 0
5, 344064, Note_on_c, 3, 52, 96
5, 345088, Note_off_c, 3, 52, 0
5, 345088, Note_on_c, 3, 40, 96
5, 346112, Note_off_c, 3, 40, 0
5, 346624, Note_on_c, 3, 56, 96
5, 347136, Note_off_c, 3, 56, 0
5, 347136, Note_on_c, 3, 61, 96
5, 347648, Note_off_c, 3, 61, 0
5, 347648, Note_on_c, 3, 60, 96
5, 348160, Note_off_c, 3, 60, 0
5, 348160, Note_on_c, 3, 61, 96
5, 350720, Note_off_c, 3, 61, 0
5, 350720, Note_on_c, 3, 61, 96
5, 351232, Note_off_c, 3, 61, 0
5, 351232, Note_on_c, 3, 60, 96
5, 351744, Note_off_c, 3, 60, 0
5, 351744, Note_on_c, 3, 58, 96
5, 352256, Note_off_c, 3, 58, 0
5, 352256, Note_on_c, 3, 60, 96
5, 354816, Note_off_c, 3, 60, 0
5, 354816, Note_on_c, 3, 56, 96
5, 355328, Note_off_c, 3, 56, 0
5, 355328, Note_on_c, 3, 61, 96
5, 355840, Note_off_c, 3, 61, 0
5, 355840, Note_on_c, 3, 60, 96
5, 356352, Note_off_c, 3, 60, 0
5, 356352, Note_on_c, 3, 61, 96
5, 358912, Note_off_c, 3, 61, 0
5, 358912, Note_on_c, 3, 52, 96
5, 359424, Note_off_c, 3, 52, 0
5, 359424, Note_on_c, 3, 57, 96
5, 359936, Note_off_c, 3, 57, 0
5, 359936, Note_on_c, 3, 56, 96
5, 360448, Note_off_c, 3, 56, 0
5, 360448, Note_on_c, 3, 57, 96
5, 361472, Note_off_c, 3, 57, 0
5, 361472, Note_on_c, 3, 56, 96
5, 362496, Note_off_c, 3, 56, 0
5, 362496, Note_on_c, 3, 54, 96
5, 363520, Note_off_c, 3, 54, 0
5, 363520, Note_on_c, 3, 52, 96
5, 364544, Note_off_c, 3, 52, 0
5, 364544, Note_on_c, 3, 50, 96
5, 365568, Note_off_c, 3, 50, 0
5, 365568, Note_on_c, 3, 49, 96
5, 366592, Note_off_c, 3, 49, 0
5, 366592, Note_on_c, 3, 47, 96
5, 367616, Note_off_c, 3, 47, 0
5, 367616, Note_on_c, 3, 52, 96
5, 368640, Note_off_c, 3, 52, 0
5, 368640, Note_on_c, 3, 45, 96
5, 369152, Note_off_c, 3, 45, 0
5, 369152, Note_on_c, 3, 52, 96
5, 369664, Note_off_c, 3, 52, 0
5, 369664, Note_on_c, 3, 57, 96
5, 370176, Note_off_c, 3, 57, 0
5, 370176, Note_on_c, 3, 56, 96
5, 370688, Note_off_c, 3, 56, 0
5, 370688, Note_on_c, 3, 57, 96
5, 371200, Note_off_c, 3, 57, 0
5, 371200, Note_on_c, 3, 49, 96
5, 371712, Note_off_c, 3, 49, 0
5, 371712, Note_on_c, 3, 54, 96
5, 372224, Note_off_c, 3, 54, 0
5, 372224, Note_on_c, 3, 52, 96
5, 372736, Note_off_c, 3, 52, 0
5, 372736, Note_on_c, 3, 54, 96
5, 373760, Note_off_c, 3, 54, 0
5, 373760, Note_on_c, 3, 56, 96
5, 374784, Note_off_c, 3, 56, 0
5, 374784, Note_on_c, 3, 57, 96
5, 375808, Note_off_c, 3, 57, 0
5, 375808, Note_on_c, 3, 54, 96
5, 376832, Note_off_c, 3, 54, 0
5, 376832, Note_on_c, 3, 50, 96
5, 377856, Note_off_c, 3, 50, 0
5, 377856, Note_on_c, 3, 47, 96
5, 378880, Note_off_c, 3, 47, 0
5, 378880, Note_on_c, 3, 52, 96
5, 379904, Note_off_c, 3, 52, 0
5, 379904, Note_on_c, 3, 50, 96
5, 380928, Note_off_c, 3, 50, 0
5, 380928, Note_on_c, 3, 49, 96
5, 381440, Note_off_c, 3, 49, 0
5, 381440, Note_on_c, 3, 45, 96
5, 381952, Note_off_c, 3, 45, 0
5, 381952, Note_on_c, 3, 54, 96
5, 382464, Note_off_c, 3, 54, 0
5, 382464, Note_on_c, 3, 52, 96
5, 382976, Note_off_c, 3, 52, 0
5, 382976, Note_on_c, 3, 54, 96
5, 385536, Note_off_c, 3, 54, 0
5, 385536, Note_on_c, 3, 50, 96
5, 386048, Note_off_c, 3, 50, 0
5, 386048, Note_on_c, 3, 57, 96
5, 386560, Note_off_c, 3, 57, 0
5, 386560, Note_on_c, 3, 56, 96
5, 387072, Note_off_c, 3, 56, 0
5, 387072, Note_on_c, 3, 57, 96
5, 387584, Note_off_c, 3, 57, 0
5, 387584, Note_on_c, 3, 59, 96
5, 388096, Note_off_c, 3, 59, 0
5, 388096, Note_on_c, 3, 57, 96
5, 388608, Note_off_c, 3, 57, 0
5, 388608, Note_on_c, 3, 56, 96
5, 389120, Note_off_c, 3, 56, 0
5, 389120, Note_on_c, 3, 54, 96
5, 389632, Note_off_c, 3, 54, 0
5, 389632, Note_on_c, 3, 57, 96
5, 390144, Note_off_c, 3, 57, 0
5, 390144, Note_on_c, 3, 56, 96
5, 390656, Note_off_c, 3, 56, 0
5, 390656, Note_on_c, 3, 54, 96
5, 391168, Note_off_c, 3, 54, 0
5, 391168, Note_on_c, 3, 52, 96
5, 391680, Note_off_c, 3, 52, 0
5, 391680, Note_on_c, 3, 56, 96
5, 392192, Note_off_c, 3, 56, 0
5, 392192, Note_on_c, 3, 54, 96
5, 392704, Note_off_c, 3, 54, 0
5, 392704, Note_on_c, 3, 52, 96
5, 393216, Note_off_c, 3, 52, 0
5, 393216, Note_on_c, 3, 51, 96
5, 394240, Note_off_c, 3, 51, 0
5, 394240, Note_on_c, 3, 47, 96
5, 395264, Note_off_c, 3, 47, 0
5, 395264, Note_on_c, 3, 52, 96
5, 397824, Note_off_c, 3, 52, 0
5, 397824, Note_on_c, 3, 56, 96
5, 398336, Note_off_c, 3, 56, 0
5, 398336, Note_on_c, 3, 61, 96
5, 398848, Note_off_c, 3, 61, 0
5, 398848, Note_on_c, 3, 59, 96
5, 399360, Note_off_c, 3, 59, 0
5, 399360, Note_on_c, 3, 61, 96
5, 399872, Note_off_c, 3, 61, 0
5, 399872, Note_on_c, 3, 50, 96
5, 400384, Note_off_c, 3, 50, 0
5, 400384, Note_on_c, 3, 59, 96
5, 400896, Note_off_c, 3, 59, 0
5, 400896, Note_on_c, 3, 57, 96
5, 401408, Note_off_c, 3, 57, 0
5, 401408, Note_on_c, 3, 59, 96
5, 401920, Note_off_c, 3, 59, 0
5, 401920, Note_on_c, 3, 49, 96
5, 402432, Note_off_c, 3, 49, 0
5, 402432, Note_on_c, 3, 57, 96
5, 402944, Note_off_c, 3, 57, 0
5, 402944, Note_on_c, 3, 56, 96
5, 403456, Note_off_c, 3, 56, 0
5, 403456, Note_on_c, 3, 57, 96
5, 403968, Note_off_c, 3, 57, 0
5, 403968, Note_on_c, 3, 47, 96
5, 404480, Note_off_c, 3, 47, 0
5, 404480, Note_on_c, 3, 56, 96
5, 404992, Note_off_c, 3, 56, 0
5, 404992, Note_on_c, 3, 54, 96
5, 405504, Note_off_c, 3, 54, 0
5, 405504, Note_on_c, 3, 56, 96
5, 406016, Note_off_c, 3, 56, 0
5, 406016, Note_on_c, 3, 45, 96
5, 406528, Note_off_c, 3, 45, 0
5, 406528, Note_on_c, 3, 54, 96
5, 407040, Note_off_c, 3, 54, 0
5, 407040, Note_on_c, 3, 52, 96
5, 407552, Note_off_c, 3, 52, 0
5, 407552, Note_on_c, 3, 54, 96
5, 408064, Note_off_c, 3, 54, 0
5, 408064, Note_on_c, 3, 44, 96
5, 408576, Note_off_c, 3, 44, 0
5, 408576, Note_on_c, 3, 52, 96
5, 409088, Note_off_c, 3, 52, 0
5, 409088, Note_on_c, 3, 50, 96
5, 409600, Note_off_c, 3, 50, 0
5, 409600, Note_on_c, 3, 52, 96
5, 410112, Note_off_c, 3, 52, 0
5, 410112, Note_on_c, 3, 42, 96
5, 410624, Note_off_c, 3, 42, 0
5, 410624, Note_on_c, 3, 50, 96
5, 411136, Note_off_c, 3, 50, 0
5, 411136, Note_on_c, 3, 49, 96
5, 411648, Note_off_c, 3, 49, 0
5, 411648, Note_on_c, 3, 50, 96
5, 412160, Note_off_c, 3, 50, 0
5, 412160, Note_on_c, 3, 40, 96
5, 412672, Note_off_c, 3, 40, 0
5, 412672, Note_on_c, 3, 49, 96
5, 413184, Note_off_c, 3, 49, 0
5, 413184, Note_on_c, 3, 47, 96
5, 413696, Note_off_c, 3, 47, 0
5, 413696, Note_on_c, 3, 49, 96
5, 414208, Note_off_c, 3, 49, 0
5, 414208, Note_on_c, 3, 45, 96
5, 414720, Note_off_c, 3, 45, 0
5, 414720, Note_on_c, 3, 50, 96
5, 415232, Note_off_c, 3, 50, 0
5, 415232, Note_on_c, 3, 49, 96
5, 415744, Note_off_c, 3, 49, 0
5, 415744, Note_on_c, 3, 50, 96
5, 416256, Note_off_c, 3, 50, 0
5, 416256, Note_on_c, 3, 47, 96
5, 416768, Note_off_c, 3, 47, 0
5, 416768, Note_on_c, 3, 52, 96
5, 417280, Note_off_c, 3, 52, 0
5, 417280, Note_on_c, 3, 47, 96
5, 417792, Note_off_c, 3, 47, 0
5, 417792, Note_on_c, 3, 49, 96
5, 418304, Note_off_c, 3, 49, 0
5, 418304, Note_on_c, 3, 45, 96
5, 418816, Note_off_c, 3, 45, 0
5, 418816, Note_on_c, 3, 49, 96
5, 419328, Note_off_c, 3, 49, 0
5, 419328, Note_on_c, 3, 52, 96
5, 419840, Note_off_c, 3, 52, 0
5, 419840, Note_on_c, 3, 57, 96
5, 420352, Note_off_c, 3, 57, 0
5, 420352, Note_on_c, 3, 54, 96
5, 420864, Note_off_c, 3, 54, 0
5, 420864, Note_on_c, 3, 59, 96
5, 421376, Note_off_c, 3, 59, 0
5, 421376, Note_on_c, 3, 57, 96
5, 421888, Note_off_c, 3, 57, 0
5, 421888, Note_on_c, 3, 59, 96
5, 422400, Note_off_c, 3, 59, 0
5, 422400, Note_on_c, 3, 56, 96
5, 422912, Note_off_c, 3, 56, 0
5, 422912, Note_on_c, 3, 52, 96
5, 423424, Note_off_c, 3, 52, 0
5, 423424, Note_on_c, 3, 56, 96
5, 423936, Note_off_c, 3, 56, 0
5, 423936, Note_on_c, 3, 57, 96
5, 425984, Note_off_c, 3, 57, 0
5, 428544, Note_on_c, 3, 52, 96
5, 429056, Note_off_c, 3, 52, 0
5, 429056, Note_on_c, 3, 49, 96
5, 429568, Note_off_c, 3, 49, 0
5, 429568, Note_on_c, 3, 52, 96
5, 430080, Note_off_c, 3, 52, 0
5, 430080, Note_on_c, 3, 45, 96
5, 432128, Note_off_c, 3, 45, 0
5, 432640, Note_on_c, 3, 54, 96
5, 433152, Note_off_c, 3, 54, 0
5, 433152, Note_on_c, 3, 59, 96
5, 433664, Note_off_c, 3, 59, 0
5, 433664, Note_on_c, 3, 57, 96
5, 434176, Note_off_c, 3, 57, 0
5, 434176, Note_on_c, 3, 59, 96
5, 435200, Note_off_c, 3, 59, 0
5, 435200, Note_on_c, 3, 47, 96
5, 436224, Note_off_c, 3, 47, 0
5, 436224, Note_on_c, 3, 52, 96
5, 437248, Note_off_c, 3, 52, 0
5, 437248, Note_on_c, 3, 40, 96
5, 438272, Note_off_c, 3, 40, 0
5, 438784, Note_on_c, 3, 56, 96
5, 439296, Note_off_c, 3, 56, 0
5, 439296, Note_on_c, 3, 61, 96
5, 439808, Note_off_c, 3, 61, 0
5, 439808, Note_on_c, 3, 60, 96
5, 440320, Note_off_c, 3, 60, 0
5, 440320, Note_on_c, 3, 61, 96
5, 442880, Note_off_c, 3, 61, 0
5, 442880, Note_on_c, 3, 61, 96
5, 443392, Note_off_c, 3, 61, 0
5, 443392, Note_on_c, 3, 60, 96
5, 443904, Note_off_c, 3, 60, 0
5, 443904, Note_on_c, 3, 58, 96
5, 444416, Note_off_c, 3, 58, 0
5, 444416, Note_on_c, 3, 60, 96
5, 446976, Note_off_c, 3, 60, 0
5, 446976, Note_on_c, 3, 56, 96
5, 447488, Note_off_c, 3, 56, 0
5, 447488, Note_on_c, 3, 61, 96
5, 448000, Note_off_c, 3, 61, 0
5, 448000, Note_on_c, 3, 60, 96
5, 448512, Note_off_c, 3, 60, 0
5, 448512, Note_on_c, 3, 61, 96
5, 451072, Note_off_c, 3, 61, 0
5, 451072, Note_on_c, 3, 52, 96
5, 451584, Note_off_c, 3, 52, 0
5, 451584, Note_on_c, 3, 57, 96
5, 452096, Note_off_c, 3, 57, 0
5, 452096, Note_on_c, 3, 56, 96
5, 452608, Note_off_c, 3, 56, 0
5, 452608, Note_on_c, 3, 57, 96
5, 453632, Note_off_c, 3, 57, 0
5, 453632, Note_on_c, 3, 56, 96
5, 454656, Note_off_c, 3, 56, 0
5, 454656, Note_on_c, 3, 54, 96
5, 455680, Note_off_c, 3, 54, 0
5, 455680, Note_on_c, 3, 52, 96
5, 456704, Note_off_c, 3, 52, 0
5, 456704, Note_on_c, 3, 50, 96
5, 457728, Note_off_c, 3, 50, 0
5, 457728, Note_on_c, 3, 49, 96
5, 458752, Note_off_c, 3, 49, 0
5, 458752, Note_on_c, 3, 47, 96
5, 459776, Note_off_c, 3, 47, 0
5, 459776, Note_on_c, 3, 52, 96
5, 460800, Note_off_c, 3, 52, 0
5, 460800, Note_on_c, 3, 45, 96
5, 461312, Note_off_c, 3, 45, 0
5, 461312, Note_on_c, 3, 52, 96
5, 461824, Note_off_c, 3, 52, 0
5, 461824, Note_on_c, 3, 57, 96
5, 462336, Note_off_c, 3, 57, 0
5, 462336, Note_on_c, 3, 56, 96
5, 462848, Note_off_c, 3, 56, 0
5, 462848, Note_on_c, 3, 57, 96
5, 463360, Note_off_c, 3, 57, 0
5, 463360, Note_on_c, 3, 49, 96
5, 463872, Note_off_c, 3, 49, 0
5, 463872, Note_on_c, 3, 54, 96
5, 464384, Note_off_c, 3, 54, 0
5, 464384, Note_on_c, 3, 52, 96
5, 464896, Note_off_c, 3, 52, 0
5, 464896, Note_on_c, 3, 54, 96
5, 465920, Note_off_c, 3, 54, 0
5, 465920, Note_on_c, 3, 56, 96
5, 466944, Note_off_c, 3, 56, 0
5, 466944, Note_on_c, 3, 57, 96
5, 467968, Note_off_c, 3, 57, 0
5, 467968, Note_on_c, 3, 54, 96
5, 468992, Note_off_c, 3, 54, 0
5, 468992, Note_on_c, 3, 50, 96
5, 470016, Note_off_c, 3, 50, 0
5, 470016, Note_on_c, 3, 47, 96
5, 471040, Note_off_c, 3, 47, 0
5, 471040, Note_on_c, 3, 52, 96
5, 472064, Note_off_c, 3, 52, 0
5, 472064, Note_on_c, 3, 50, 96
5, 473088, Note_off_c, 3, 50, 0
5, 473088, Note_on_c, 3, 49, 96
5, 473600, Note_off_c, 3, 49, 0
5, 473600, Note_on_c, 3, 45, 96
5, 474112, Note_off_c, 3, 45, 0
5, 474112, Note_on_c, 3, 54, 96
5, 474624, Note_off_c, 3, 54, 0
5, 474624, Note_on_c, 3, 52, 96
5, 475136, Note_off_c, 3, 52, 0
5, 475136, Note_on_c, 3, 54, 96
5, 477696, Note_off_c, 3, 54, 0
5, 477696, Note_on_c, 3, 50, 96
5, 478208, Note_off_c, 3, 50, 0
5, 478208, Note_on_c, 3, 57, 96
5, 478720, Note_off_c, 3, 57, 0
5, 478720, Note_on_c, 3, 56, 96
5, 479232, Note_off_c, 3, 56, 0
5, 479232, Note_on_c, 3, 57, 96
5, 479744, Note_off_c, 3, 57, 0
5, 479744, Note_on_c, 3, 59, 96
5, 480256, Note_off_c, 3, 59, 0
5, 480256, Note_on_c, 3, 57, 96
5, 480768, Note_off_c, 3, 57, 0
5, 480768, Note_on_c, 3, 56, 96
5, 481280, Note_off_c, 3, 56, 0
5, 481280, Note_on_c, 3, 54, 96
5, 481792, Note_off_c, 3, 54, 0
5, 481792, Note_on_c, 3, 57, 96
5, 482304, Note_off_c, 3, 57, 0
5, 482304, Note_on_c, 3, 56, 96
5, 482816, Note_off_c, 3, 56, 0
5, 482816, Note_on_c, 3, 54, 96
5, 483328, Note_off_c, 3, 54, 0
5, 483328, Note_on_c, 3, 52, 96
5, 483840, Note_off_c, 3, 52, 0
5, 483840, Note_on_c, 3, 56, 96
5, 484352, Note_off_c, 3, 56, 0
5, 484352, Note_on_c, 3, 54, 96
5, 484864, Note_off_c, 3, 54, 0
5, 484864, Note_on_c, 3, 52, 96
5, 485376, Note_off_c, 3, 52, 0
5, 485376, Note_on_c, 3, 51, 96
5, 486400, Note_off_c, 3, 51, 0
5, 486400, Note_on_c, 3, 47, 96
5, 487424, Note_off_c, 3, 47, 0
5, 487424, Note_on_c, 3, 52, 96
5, 489984, Note_off_c, 3, 52, 0
5, 489984, Note_on_c, 3, 56, 96
5, 490496, Note_off_c, 3, 56, 0
5, 490496, Note_on_c, 3, 61, 96
5, 491008, Note_off_c, 3, 61, 0
5, 491008, Note_on_c, 3, 59, 96
5, 491520, Note_off_c, 3, 59, 0
5, 491520, Note_on_c, 3, 61, 96
5, 492032, Note_off_c, 3, 61, 0
5, 492032, Note_on_c, 3, 50, 96
5, 492544, Note_off_c, 3, 50, 0
5, 492544, Note_on_c, 3, 59, 96
5, 493056, Note_off_c, 3, 59, 0
5, 493056, Note_on_c, 3, 57, 96
5, 493568, Note_off_c, 3, 57, 0
5, 493568, Note_on_c, 3, 59, 96
5, 494080, Note_off_c, 3, 59, 0
5, 494080, Note_on_c, 3, 49, 96
5, 494592, Note_off_c, 3, 49, 0
5, 494592, Note_on_c, 3, 57, 96
5, 495104, Note_off_c, 3, 57, 0
5, 495104, Note_on_c, 3, 56, 96
5, 495616, Note_off_c, 3, 56, 0
5, 495616, Note_on_c, 3, 57, 96
5, 496128, Note_off_c, 3, 57, 0
5, 496128, Note_on_c, 3, 47, 96
5, 496640, Note_off_c, 3, 47, 0
5, 496640, Note_on_c, 3, 56, 96
5, 497152, Note_off_c, 3, 56, 0
5, 497152, Note_on_c, 3, 54, 96
5, 497664, Note_off_c, 3, 54, 0
5, 497664, Note_on_c, 3, 56, 96
5, 498176, Note_off_c, 3, 56, 0
5, 498176, Note_on_c, 3, 45, 96
5, 498688, Note_off_c, 3, 45, 0
5, 498688, Note_on_c, 3, 54, 96
5, 499200, Note_off_c, 3, 54, 0
5, 499200, Note_on_c, 3, 52, 96
5, 499712, Note_off_c, 3, 52, 0
5, 499712, Note_on_c, 3, 54, 96
5, 500224, Note_off_c, 3, 54, 0
5, 500224, Note_on_c, 3, 44, 96
5, 500736, Note_off_c, 3, 44, 0
5, 500736, Note_on_c, 3, 52, 96
5, 501248, Note_off_c, 3, 52, 0
5, 501248, Note_on_c, 3, 50, 96
5, 501760, Note_off_c, 3, 50, 0
5, 501760, Note_on_c, 3, 52, 96
5, 502272, Note_off_c, 3, 52, 0
5, 502272, Note_on_c, 3, 42, 96
5, 502784, Note_off_c, 3, 42, 0
5, 502784, Note_on_c, 3, 50, 96
5, 503296, Note_off_c, 3, 50, 0
5, 503296, Note_on_c, 3, 49, 96
5, 503808, Note_off_c, 3, 49, 0
5, 503808, Note_on_c, 3, 50, 96
5, 504320, Note_off_c, 3, 50, 0
5, 504320, Note_on_c, 3, 40, 96
5, 504832, Note_off_c, 3, 40, 0
5, 504832, Note_on_c, 3, 49, 96
5, 505344, Note_off_c, 3, 49, 0
5, 505344, Note_on_c, 3, 47, 96
5, 505856, Note_off_c, 3, 47, 0
5, 505856, Note_on_c, 3, 49, 96
5, 506368, Note_off_c, 3, 49, 0
5, 506368, Note_on_c, 3, 45, 96
5, 506880, Note_off_c, 3, 45, 0
5, 506880, Note_on_c, 3, 50, 96
5, 507392, Note_off_c, 3, 50, 0
5, 507392, Note_on_c, 3, 49, 96
5, 507904, Note_off_c, 3, 49, 0
5, 507904, Note_on_c, 3, 50, 96
5, 508416, Note_off_c, 3, 50, 0
5, 508416, Note_on_c, 3, 47, 96
5, 508928, Note_off_c, 3, 47, 0
5, 508928, Note_on_c, 3, 52, 96
5, 509440, Note_off_c, 3, 52, 0
5, 509440, Note_on_c, 3, 47, 96
5, 509952, Note_off_c, 3, 47, 0
5, 509952, Note_on_c, 3, 49, 96
5, 510464, Note_off_c, 3, 49, 0
5, 510464, Note_on_c, 3, 45, 96
5, 510976, Note_off_c, 3, 45, 0
5, 510976, Note_on_c, 3, 49, 96
5, 511488, Note_off_c, 3, 49, 0
5, 511488, Note_on_c, 3, 52, 96
5, 512000, Note_off_c, 3, 52, 0
5, 512000, Note_on_c, 3, 57, 96
5, 512512, Note_off_c, 3, 57, 0
5, 512512, Note_on_c, 3, 54, 96
5, 513024, Note_off_c, 3, 54, 0
5, 513024, Note_on_c, 3, 59, 96
5, 513536, Note_off_c, 3, 59, 0
5, 513536, Note_on_c, 3, 57, 96
5, 514048, Note_off_c, 3, 57, 0
5, 514048, Note_on_c, 3, 59, 96
5, 514560, Note_off_c, 3, 59, 0
5, 514560, Note_on_c, 3, 56, 96
5, 515072, Note_off_c, 3, 56, 0
5, 515072, Note_on_c, 3, 52, 96
5, 515584, Note_off_c, 3, 52, 0
5, 515584, Note_on_c, 3, 56, 96
5, 516096, Note_off_c, 3, 56, 0
5, 516096, Note_on_c, 3, 57, 96
5, 518656, Note_off_c, 3, 57, 0
5, 518656, Note_on_c, 3, 54, 96
5, 519168, Note_off_c, 3, 54, 0
5, 519168, Note_on_c, 3, 61, 96
5, 519680, Note_off_c, 3, 61, 0
5, 519680, Note_on_c, 3, 60, 96
5, 520192, Note_off_c, 3, 60, 0
5, 520192, Note_on_c, 3, 61, 96
5, 521216, Note_off_c, 3, 61, 0
5, 521216, Note_on_c, 3, 59, 96
5, 522240, Note_off_c, 3, 59, 0
5, 522240, Note_on_c, 3, 57, 96
5, 523264, Note_off_c, 3, 57, 0
5, 523264, Note_on_c, 3, 53, 96
5, 524288, Note_off_c, 3, 53, 0
5, 524288, Note_on_c, 3, 54, 96
5, 524800, Note_off_c, 3, 54, 0
5, 524800, Note_on_c, 3, 49, 96
5, 525312, Note_off_c, 3, 49, 0
5, 525312, Note_on_c, 3, 57, 96
5, 525824, Note_off_c, 3, 57, 0
5, 525824, Note_on_c, 3, 56, 96
5, 526336, Note_off_c, 3, 56, 0
5, 526336, Note_on_c, 3, 57, 96
5, 527360, Note_off_c, 3, 57, 0
5, 527360, Note_on_c, 3, 54, 96
5, 528384, Note_off_c, 3, 54, 0
5, 528384, Note_on_c, 3, 51, 96
5, 529408, Note_off_c, 3, 51, 0
5, 529408, Note_on_c, 3, 47, 96
5, 530432, Note_off_c, 3, 47, 0
5, 530432, Note_on_c, 3, 52, 96
5, 530944, Note_off_c, 3, 52, 0
5, 530944, Note_on_c, 3, 47, 96
5, 531456, Note_off_c, 3, 47, 0
5, 531456, Note_on_c, 3, 56, 96
5, 531968, Note_off_c, 3, 56, 0
5, 531968, Note_on_c, 3, 54, 96
5, 532480, Note_off_c, 3, 54, 0
5, 532480, Note_on_c, 3, 56, 96
5, 533504, Note_off_c, 3, 56, 0
5, 533504, Note_on_c, 3, 52, 96
5, 534528, Note_off_c, 3, 52, 0
5, 534528, Note_on_c, 3, 45, 96
5, 535552, Note_off_c, 3, 45, 0
5, 535552, Note_on_c, 3, 47, 96
5, 536576, Note_off_c, 3, 47, 0
5, 536576, Note_on_c, 3, 49, 96
5, 537088, Note_off_c, 3, 49, 0
5, 537088, Note_on_c, 3, 44, 96
5, 537600, Note_off_c, 3, 44, 0
5, 537600, Note_on_c, 3, 49, 96
5, 538112, Note_off_c, 3, 49, 0
5, 538112, Note_on_c, 3, 47, 96
5, 538624, Note_off_c, 3, 47, 0
5, 538624, Note_on_c, 3, 45, 96
5, 539136, Note_off_c, 3, 45, 0
5, 539136, Note_on_c, 3, 42, 96
5, 539648, Note_off_c, 3, 42, 0
5, 539648, Note_on_c, 3, 47, 96
5, 540160, Note_off_c, 3, 47, 0
5, 540160, Note_on_c, 3, 45, 96
5, 540672, Note_off_c, 3, 45, 0
5, 540672, Note_on_c, 3, 44, 96
5, 541184, Note_off_c, 3, 44, 0
5, 541184, Note_on_c, 3, 40, 96
5, 541696, Note_off_c, 3, 40, 0
5, 541696, Note_on_c, 3, 49, 96
5, 542208, Note_off_c, 3, 49, 0
5, 542208, Note_on_c, 3, 47, 96
5, 542720, Note_off_c, 3, 47, 0
5, 542720, Note_on_c, 3, 49, 96
5, 545280, Note_off_c, 3, 49, 0
5, 545280, Note_on_c, 3, 45, 96
5, 545792, Note_off_c, 3, 45, 0
5, 545792, Note_on_c, 3, 54, 96
5, 546304, Note_off_c, 3, 54, 0
5, 546304, Note_on_c, 3, 52, 96
5, 546816, Note_off_c, 3, 52, 0
5, 546816, Note_on_c, 3, 54, 96
5, 549376, Note_off_c, 3, 54, 0
5, 549376, Note_on_c, 3, 47, 96
5, 549888, Note_off_c, 3, 47, 0
5, 549888, Note_on_c, 3, 59, 96
5, 550400, Note_off_c, 3, 59, 0
5, 550400, Note_on_c, 3, 57, 96
5, 550912, Note_off_c, 3, 57, 0
5, 550912, Note_on_c, 3, 59, 96
5, 551936, Note_off_c, 3, 59, 0
5, 551936, Note_on_c, 3, 56, 96
5, 552448, Note_off_c, 3, 56, 0
5, 552448, Note_on_c, 3, 52, 96
5, 552960, Note_off_c, 3, 52, 0
5, 552960, Note_on_c, 3, 57, 96
5, 553984, Note_off_c, 3, 57, 0
5, 553984, Note_on_c, 3, 56, 96
5, 555008, Note_off_c, 3, 56, 0
5, 555008, Note_on_c, 3, 54, 96
5, 556032, Note_off_c, 3, 54, 0
5, 556032, Note_on_c, 3, 52, 96
5, 557056, Note_off_c, 3, 52, 0
5, 557056, Note_on_c, 3, 50, 96
5, 557568, Note_off_c, 3, 50, 0
5, 557568, Note_on_c, 3, 54, 96
5, 558080, Note_off_c, 3, 54, 0
5, 558080, Note_on_c, 3, 59, 96
5, 558592, Note_off_c, 3, 59, 0
5, 558592, Note_on_c, 3, 57, 96
5, 559104, Note_off_c, 3, 57, 0
5, 559104, Note_on_c, 3, 56, 96
5, 559616, Note_off_c, 3, 56, 0
5, 559616, Note_on_c, 3, 59, 96
5, 560128, Note_off_c, 3, 59, 0
5, 560128, Note_on_c, 3, 58, 96
5, 560640, Note_off_c, 3, 58, 0
5, 560640, Note_on_c, 3, 56, 96
5, 561152, Note_off_c, 3, 56, 0
5, 561152, Note_on_c, 3, 58, 96
5, 561664, Note_off_c, 3, 58, 0
5, 561664, Note_on_c, 3, 54, 96
5, 562176, Note_off_c, 3, 54, 0
5, 562176, Note_on_c, 3, 59, 96
5, 562688, Note_off_c, 3, 59, 0
5, 562688, Note_on_c, 3, 58, 96
5, 563200, Note_off_c, 3, 58, 0
5, 563200, Note_on_c, 3, 59, 96
5, 563712, Note_off_c, 3, 59, 0
5, 563712, Note_on_c, 3, 57, 96
5, 564224, Note_off_c, 3, 57, 0
5, 564224, Note_on_c, 3, 56, 96
5, 564736, Note_off_c, 3, 56, 0
5, 564736, Note_on_c, 3, 54, 96
5, 565248, Note_off_c, 3, 54, 0
5, 565248, Note_on_c, 3, 53, 96
5, 565760, Note_off_c, 3, 53, 0
5, 565760, Note_on_c, 3, 49, 96
5, 566272, Note_off_c, 3, 49, 0
5, 566272, Note_on_c, 3, 54, 96
5, 566784, Note_off_c, 3, 54, 0
5, 566784, Note_on_c, 3, 53, 96
5, 567296, Note_off_c, 3, 53, 0
5, 567296, Note_on_c, 3, 54, 96
5, 567808, Note_off_c, 3, 54, 0
5, 567808, Note_on_c, 3, 42, 96
5, 568320, Note_off_c, 3, 42, 0
5, 568320, Note_on_c, 3, 54, 96
5, 568832, Note_off_c, 3, 54, 0
5, 568832, Note_on_c, 3, 52, 96
5, 569344, Note_off_c, 3, 52, 0
5, 569344, Note_on_c, 3, 50, 96
5, 569856, Note_off_c, 3, 50, 0
5, 569856, Note_on_c, 3, 54, 96
5, 570368, Note_off_c, 3, 54, 0
5, 570368, Note_on_c, 3, 59, 96
5, 570880, Note_off_c, 3, 59, 0
5, 570880, Note_on_c, 3, 57, 96
5, 571392, Note_off_c, 3, 57, 0
5, 571392, Note_on_c, 3, 56, 96
5, 571904, Note_off_c, 3, 56, 0
5, 571904, Note_on_c, 3, 57, 96
5, 572416, Note_off_c, 3, 57, 0
5, 572416, Note_on_c, 3, 56, 96
5, 572928, Note_off_c, 3, 56, 0
5, 572928, Note_on_c, 3, 54, 96
5, 573440, Note_off_c, 3, 54, 0
5, 573440, Note_on_c, 3, 52, 96
5, 574464, Note_off_c, 3, 52, 0
5, 574464, Note_on_c, 3, 56, 96
5, 575488, Note_off_c, 3, 56, 0
5, 575488, Note_on_c, 3, 57, 96
5, 576512, Note_off_c, 3, 57, 0
5, 576512, Note_on_c, 3, 51, 96
5, 577536, Note_off_c, 3, 51, 0
5, 577536, Note_on_c, 3, 52, 96
5, 578560, Note_off_c, 3, 52, 0
5, 578560, Note_on_c, 3, 54, 96
5, 579584, Note_off_c, 3, 54, 0
5, 579584, Note_on_c, 3, 56, 96
5, 580608, Note_off_c, 3, 56, 0
5, 580608, Note_on_c, 3, 52, 96
5, 581632, Note_off_c, 3, 52, 0
5, 581632, Note_on_c, 3, 59, 96
5, 582656, Note_off_c, 3, 59, 0
5, 582656, Note_on_c, 3, 57, 96
5, 583680, Note_off_c, 3, 57, 0
5, 583680, Note_on_c, 3, 56, 96
5, 584192, Note_off_c, 3, 56, 0
5, 584192, Note_on_c, 3, 40, 96
5, 584704, Note_off_c, 3, 40, 0
5, 584704, Note_on_c, 3, 49, 96
5, 585216, Note_off_c, 3, 49, 0
5, 585216, Note_on_c, 3, 47, 96
5, 585728, Note_off_c, 3, 47, 0
5, 585728, Note_on_c, 3, 49, 96
5, 586240, Note_off_c, 3, 49, 0
5, 586240, Note_on_c, 3, 45, 96
5, 586752, Note_off_c, 3, 45, 0
5, 586752, Note_on_c, 3, 52, 96
5, 587776, Note_off_c, 3, 52, 0
5, 587776, Note_on_c, 3, 54, 96
5, 588800, Note_off_c, 3, 54, 0
5, 588800, Note_on_c, 3, 52, 96
5, 589824, Note_off_c, 3, 52, 0
5, 589824, Note_on_c, 3, 50, 96
5, 590848, Note_off_c, 3, 50, 0
5, 590848, Note_on_c, 3, 49, 96
5, 591872, Note_off_c, 3, 49, 0
5, 591872, Note_on_c, 3, 47, 96
5, 592384, Note_off_c, 3, 47, 0
5, 592384, Note_on_c, 3, 45, 96
5, 592896, Note_off_c, 3, 45, 0
5, 592896, Note_on_c, 3, 49, 96
5, 593408, Note_off_c, 3, 49, 0
5, 593408, Note_on_c, 3, 47, 96
5, 593920, Note_off_c, 3, 47, 0
5, 593920, Note_on_c, 3, 50, 96
5, 594432, Note_off_c, 3, 50, 0
5, 594432, Note_on_c, 3, 49, 96
5, 594944, Note_off_c, 3, 49, 0
5, 594944, Note_on_c, 3, 52, 96
5, 595456, Note_off_c, 3, 52, 0
5, 595456, Note_on_c, 3, 50, 96
5, 595968, Note_off_c, 3, 50, 0
5, 595968, Note_on_c, 3, 49, 96
5, 596480, Note_off_c, 3, 49, 0
5, 596480, Note_on_c, 3, 45, 96
5, 596992, Note_off_c, 3, 45, 0
5, 596992, Note_on_c, 3, 54, 96
5, 597504, Note_off_c, 3, 54, 0
5, 597504, Note_on_c, 3, 52, 96
5, 598016, Note_off_c, 3, 52, 0
5, 598016, Note_on_c, 3, 54, 96
5, 600576, Note_off_c, 3, 54, 0
5, 600576, Note_on_c, 3, 50, 96
5, 601088, Note_off_c, 3, 50, 0
5, 601088, Note_on_c, 3, 57, 96
5, 601600, Note_off_c, 3, 57, 0
5, 601600, Note_on_c, 3, 56, 96
5, 602112, Note_off_c, 3, 56, 0
5, 602112, Note_on_c, 3, 57, 96
5, 619008, Note_off_c, 3, 57, 0
5, 619008, Note_on_c, 3, 61, 96
5, 619520, Note_off_c, 3, 61, 0
5, 619520, Note_on_c, 3, 62, 96
5, 620032, Note_off_c, 3, 62, 0
5, 620032, Note_on_c, 3, 56, 96
5, 620544, Note_off_c, 3, 56, 0
5, 620544, Note_on_c, 3, 57, 96
5, 624128, Note_off_c, 3, 57, 0
5, 624128, Note_on_c, 3, 56, 96
5, 624640, Note_off_c, 3, 56, 0
5, 624640, Note_on_c, 3, 57, 96
5, 626688, Note_off_c, 3, 57, 0
5, 626688, Note_on_c, 3, 45, 96
5, 632832, Note_off_c, 3, 45, 0
5, 633515, Note_on_c, 3, 61, 96
5, 634197, Note_on_c, 3, 62, 96
5, 634198, Note_off_c, 3, 61, 0
5, 634880, Note_off_c, 3, 62, 0
5, 634880, Note_on_c, 3, 64, 96
5, 635563, Note_off_c, 3, 64, 0
5, 635563, Note_on_c, 3, 57, 96
5, 636245, Note_on_c, 3, 56, 96
5, 636246, Note_off_c, 3, 57, 0
5, 636928, Note_off_c, 3, 56, 0
5, 636928, Note_on_c, 3, 54, 96
5, 637611, Note_off_c, 3, 54, 0
5, 637611, Note_on_c, 3, 56, 96
5, 638293, Note_on_c, 3, 57, 96
5, 638294, Note_off_c, 3, 56, 0
5, 638976, Note_off_c, 3, 57, 0
5, 638976, Note_on_c, 3, 56, 96
5, 639659, Note_off_c, 3, 56, 0
5, 639659, Note_on_c, 3, 59, 96
5, 640341, Note_on_c, 3, 57, 96
5, 640342, Note_off_c, 3, 59, 0
5, 641024, Note_off_c, 3, 57, 0
5, 641024, Note_on_c, 3, 56, 96
5, 641707, Note_off_c, 3, 56, 0
5, 641707, Note_on_c, 3, 57, 96
5, 642389, Note_on_c, 3, 59, 96
5, 642390, Note_off_c, 3, 57, 0
5, 643072, Note_off_c, 3, 59, 0
5, 643072, Note_on_c, 3, 57, 96
5, 643755, Note_off_c, 3, 57, 0
5, 643755, Note_on_c, 3, 59, 96
5, 644437, Note_on_c, 3, 56, 96
5, 644438, Note_off_c, 3, 59, 0
5, 645120, Note_off_c, 3, 56, 0
5, 645120, Note_on_c, 3, 57, 96
5, 647851, Note_off_c, 3, 57, 0
5, 647851, Note_on_c, 3, 54, 96
5, 648533, Note_on_c, 3, 56, 96
5, 648534, Note_off_c, 3, 54, 0
5, 649216, Note_off_c, 3, 56, 0
5, 649216, Note_on_c, 3, 57, 96
5, 649899, Note_off_c, 3, 57, 0
5, 649899, Note_on_c, 3, 56, 96
5, 650581, Note_on_c, 3, 54, 96
5, 650582, Note_off_c, 3, 56, 0
5, 651264, Note_off_c, 3, 54, 0
5, 651264, Note_on_c, 3, 59, 96
5, 653312, Note_off_c, 3, 59, 0
5, 653995, Note_on_c, 3, 59, 96
5, 654677, Note_on_c, 3, 61, 96
5, 654678, Note_off_c, 3, 59, 0
5, 655360, Note_off_c, 3, 61, 0
5, 655360, Note_on_c, 3, 62, 96
5, 656043, Note_off_c, 3, 62, 0
5, 656043, Note_on_c, 3, 61, 96
5, 656725, Note_on_c, 3, 59, 96
5, 656726, Note_off_c, 3, 61, 0
5, 657408, Note_off_c, 3, 59, 0
5, 657408, Note_on_c, 3, 57, 96
5, 658091, Note_off_c, 3, 57, 0
5, 658091, Note_on_c, 3, 61, 96
5, 658773, Note_on_c, 3, 62, 96
5, 658774, Note_off_c, 3, 61, 0
5, 659456, Note_off_c, 3, 62, 0
5, 659456, Note_on_c, 3, 64, 96
5, 660139, Note_off_c, 3, 64, 0
5, 660139, Note_on_c, 3, 57, 96
5, 660821, Note_on_c, 3, 56, 96
5, 660822, Note_off_c, 3, 57, 0
5, 661504, Note_off_c, 3, 56, 0
5, 661504, Note_on_c, 3, 54, 96
5, 662187, Note_off_c, 3, 54, 0
5, 662187, Note_on_c, 3, 56, 96
5, 662869, Note_on_c, 3, 57, 96
5, 662870, Note_off_c, 3, 56, 0
5, 663552, Note_off_c, 3, 57, 0
5, 663552, Note_on_c, 3, 56, 96
5, 664235, Note_off_c, 3, 56, 0
5, 664235, Note_on_c, 3, 57, 96
5, 664917, Note_on_c, 3, 59, 96
5, 664918, Note_off_c, 3, 57, 0
5, 665600, Note_off_c, 3, 59, 0
5, 665600, Note_on_c, 3, 57, 96
5, 666283, Note_off_c, 3, 57, 0
5, 666283, Note_on_c, 3, 59, 96
5, 666965, Note_on_c, 3, 61, 96
5, 666966, Note_off_c, 3, 59, 0
5, 667648, Note_off_c, 3, 61, 0
5, 667648, Note_on_c, 3, 59, 96
5, 668331, Note_off_c, 3, 59, 0
5, 668331, Note_on_c, 3, 57, 96
5, 669013, Note_on_c, 3, 56, 96
5, 669014, Note_off_c, 3, 57, 0
5, 669696, Note_off_c, 3, 56, 0
5, 669696, Note_on_c, 3, 57, 96
5, 672427, Note_off_c, 3, 57, 0
5, 672427, Note_on_c, 3, 56, 96
5, 673109, Note_on_c, 3, 54, 96
5, 673110, Note_off_c, 3, 56, 0
5, 673792, Note_off_c, 3, 54, 0
5, 673792, Note_on_c, 3, 56, 96
5, 675840, Note_off_c, 3, 56, 0
5, 676523, Note_on_c, 3, 57, 96
5, 677205, Note_on_c, 3, 55, 96
5, 677206, Note_off_c, 3, 57, 0
5, 677888, Note_off_c, 3, 55, 0
5, 677888, Note_on_c, 3, 54, 96
5, 678571, Note_off_c, 3, 54, 0
5, 678571, Note_on_c, 3, 59, 96
5, 679253, Note_on_c, 3, 61, 96
5, 679254, Note_off_c, 3, 59, 0
5, 679936, Note_off_c, 3, 61, 0
5, 679936, Note_on_c, 3, 62, 96
5, 680619, Note_off_c, 3, 62, 0
5, 680619, Note_on_c, 3, 61, 96
5, 681301, Note_on_c, 3, 59, 96
5, 681302, Note_off_c, 3, 61, 0
5, 681984, Note_off_c, 3, 59, 0
5, 681984, Note_on_c, 3, 61, 96
5, 684032, Note_off_c, 3, 61, 0
5, 701099, Note_on_c, 3, 63, 96
5, 701781, Note_on_c, 3, 64, 96
5, 701782, Note_off_c, 3, 63, 0
5, 702464, Note_off_c, 3, 64, 0
5, 702464, Note_on_c, 3, 66, 96
5, 703147, Note_off_c, 3, 66, 0
5, 703147, Note_on_c, 3, 57, 96
5, 703829, Note_on_c, 3, 56, 96
5, 703830, Note_off_c, 3, 57, 0
5, 704512, Note_off_c, 3, 56, 0
5, 704512, Note_on_c, 3, 54, 96
5, 705195, Note_off_c, 3, 54, 0
5, 705195, Note_on_c, 3, 56, 96
5, 705877, Note_on_c, 3, 57, 96
5, 705878, Note_off_c, 3, 56, 0
5, 706560, Note_off_c, 3, 57, 0
5, 706560, Note_on_c, 3, 56, 96
5, 707243, Note_off_c, 3, 56, 0
5, 707243, Note_on_c, 3, 68, 96
5, 707925, Note_on_c, 3, 69, 96
5, 707926, Note_off_c, 3, 68, 0
5, 708608, Note_off_c, 3, 69, 0
5, 708608, Note_on_c, 3, 71, 96
5, 709291, Note_off_c, 3, 71, 0
5, 709291, Note_on_c, 3, 62, 96
5, 709973, Note_on_c, 3, 61, 96
5, 709974, Note_off_c, 3, 62, 0
5, 710656, Note_off_c, 3, 61, 0
5, 710656, Note_on_c, 3, 59, 96
5, 711339, Note_off_c, 3, 59, 0
5, 711339, Note_on_c, 3, 61, 96
5, 712021, Note_on_c, 3, 62, 96
5, 712022, Note_off_c, 3, 61, 0
5, 712704, Note_off_c, 3, 62, 0
5, 712704, Note_on_c, 3, 61, 96
5, 713387, Note_off_c, 3, 61, 0
5, 713387, Note_on_c, 3, 57, 96
5, 714069, Note_on_c, 3, 59, 96
5, 714070, Note_off_c, 3, 57, 0
5, 714752, Note_off_c, 3, 59, 0
5, 714752, Note_on_c, 3, 61, 96
5, 715435, Note_off_c, 3, 61, 0
5, 715435, Note_on_c, 3, 62, 96
5, 716117, Note_on_c, 3, 64, 96
5, 716118, Note_off_c, 3, 62, 0
5, 716800, Note_off_c, 3, 64, 0
5, 716800, Note_on_c, 3, 62, 96
5, 719531, Note_off_c, 3, 62, 0
5, 719531, Note_on_c, 3, 61, 96
5, 720213, Note_on_c, 3, 62, 96
5, 720214, Note_off_c, 3, 61, 0
5, 720896, Note_off_c, 3, 62, 0
5, 720896, Note_on_c, 3, 64, 96
5, 721579, Note_off_c, 3, 64, 0
5, 721579, Note_on_c, 3, 59, 96
5, 722261, Note_on_c, 3, 57, 96
5, 722262, Note_off_c, 3, 59, 0
5, 722944, Note_off_c, 3, 57, 0
5, 722944, Note_on_c, 3, 56, 96
5, 723627, Note_off_c, 3, 56, 0
5, 723627, Note_on_c, 3, 57, 96
5, 724309, Note_on_c, 3, 59, 96
5, 724310, Note_off_c, 3, 57, 0
5, 724992, Note_off_c, 3, 59, 0
5, 724992, Note_on_c, 3, 57, 96
5, 725675, Note_off_c, 3, 57, 0
5, 725675, Note_on_c, 3, 59, 96
5, 726357, Note_on_c, 3, 61, 96
5, 726358, Note_off_c, 3, 59, 0
5, 727040, Note_off_c, 3, 61, 0
5, 727040, Note_on_c, 3, 62, 96
5, 727723, Note_off_c, 3, 62, 0
5, 727723, Note_on_c, 3, 64, 96
5, 728405, Note_on_c, 3, 66, 96
5, 728406, Note_off_c, 3, 64, 0
5, 729088, Note_off_c, 3, 66, 0
5, 729088, Note_on_c, 3, 64, 96
5, 729771, Note_off_c, 3, 64, 0
5, 729771, Note_on_c, 3, 66, 96
5, 730453, Note_on_c, 3, 62, 96
5, 730454, Note_off_c, 3, 66, 0
5, 731136, Note_off_c, 3, 62, 0
5, 731136, Note_on_c, 3, 64, 96
5, 733184, Note_off_c, 3, 64, 0
5, 737963, Note_on_c, 3, 57, 96
5, 738645, Note_on_c, 3, 55, 96
5, 738646, Note_off_c, 3, 57, 0
5, 739328, Note_off_c, 3, 55, 0
5, 739328, Note_on_c, 3, 54, 96
5, 740011, Note_off_c, 3, 54, 0
5, 740011, Note_on_c, 3, 59, 96
5, 740011, Note_on_c, 3, 66, 96
5, 740693, Note_on_c, 3, 61, 96
5, 740693, Note_on_c, 3, 64, 96
5, 740694, Note_off_c, 3, 59, 0
5, 740694, Note_off_c, 3, 66, 0
5, 741376, Note_off_c, 3, 61, 0
5, 741376, Note_off_c, 3, 64, 0
5, 741376, Note_on_c, 3, 62, 96
5, 742059, Note_on_c, 3, 61, 96
5, 742741, Note_on_c, 3, 59, 96
5, 742742, Note_off_c, 3, 61, 0
5, 743424, Note_off_c, 3, 59, 0
5, 743424, Note_off_c, 3, 62, 0
5, 743424, Note_on_c, 3, 57, 96
5, 743424, Note_on_c, 3, 64, 96
5, 744789, Note_off_c, 3, 57, 0
5, 744789, Note_off_c, 3, 64, 0
5, 744789, Note_on_c, 3, 61, 96
5, 745472, Note_off_c, 3, 61, 0
5, 745472, Note_on_c, 3, 61, 96
5, 746155, Note_off_c, 3, 61, 0
5, 746155, Note_on_c, 3, 57, 96
5, 746837, Note_on_c, 3, 61, 96
5, 746838, Note_off_c, 3, 57, 0
5, 747520, Note_off_c, 3, 61, 0
5, 747520, Note_on_c, 3, 61, 96
5, 748203, Note_off_c, 3, 61, 0
5, 748203, Note_on_c, 3, 56, 96
5, 748885, Note_on_c, 3, 61, 96
5, 748886, Note_off_c, 3, 56, 0
5, 749568, Note_off_c, 3, 61, 0
5, 749568, Note_on_c, 3, 57, 96
5, 750251, Note_off_c, 3, 57, 0
5, 750251, Note_on_c, 3, 54, 96
5, 750933, Note_on_c, 3, 58, 96
5, 750934, Note_off_c, 3, 54, 0
5, 751616, Note_off_c, 3, 58, 0
5, 751616, Note_on_c, 3, 59, 96
5, 752981, Note_off_c, 3, 59, 0
5, 753664, Note_on_c, 3, 58, 96
5, 755029, Note_off_c, 3, 58, 0
5, 755712, Note_on_c, 3, 59, 96
5, 757077, Note_off_c, 3, 59, 0
5, 757077, Note_on_c, 3, 57, 96
5, 757760, Note_off_c, 3, 57, 0
5, 757760, Note_on_c, 3, 56, 96
5, 759125, Note_off_c, 3, 56, 0
5, 759808, Note_on_c, 3, 59, 96
5, 761173, Note_off_c, 3, 59, 0
5, 761856, Note_on_c, 3, 52, 96
5, 763221, Note_off_c, 3, 52, 0
5, 763221, Note_on_c, 3, 52, 96
5, 763904, Note_off_c, 3, 52, 0
5, 763904, Note_on_c, 3, 52, 96
5, 764587, Note_off_c, 3, 52, 0
5, 764587, Note_on_c, 3, 49, 96
5, 765269, Note_on_c, 3, 52, 96
5, 765270, Note_off_c, 3, 49, 0
5, 765952, Note_off_c, 3, 52, 0
5, 765952, Note_on_c, 3, 52, 96
5, 766635, Note_off_c, 3, 52, 0
5, 766635, Note_on_c, 3, 47, 96
5, 767317, Note_on_c, 3, 52, 96
5, 767318, Note_off_c, 3, 47, 0
5, 768000, Note_off_c, 3, 52, 0
5, 768000, Note_on_c, 3, 49, 96
5, 768683, Note_off_c, 3, 49, 0
5, 768683, Note_on_c, 3, 45, 96
5, 769365, Note_on_c, 3, 47, 96
5, 769366, Note_off_c, 3, 45, 0
5, 770048, Note_off_c, 3, 47, 0
5, 770048, Note_on_c, 3, 49, 96
5, 770731, Note_off_c, 3, 49, 0
5, 770731, Note_on_c, 3, 52, 96
5, 771413, Note_on_c, 3, 50, 96
5, 771414, Note_off_c, 3, 52, 0
5, 772096, Note_off_c, 3, 50, 0
5, 772096, Note_on_c, 3, 52, 96
5, 774144, Note_off_c, 3, 52, 0
5, 774144, Note_on_c, 3, 57, 96
5, 776192, Note_off_c, 3, 57, 0
5, 776192, Note_on_c, 3, 57, 96
5, 778240, Note_off_c, 3, 57, 0
5, 778240, Note_on_c, 3, 56, 96
5, 778923, Note_off_c, 3, 56, 0
5, 778923, Note_on_c, 3, 61, 96
5, 780288, Note_off_c, 3, 61, 0
5, 780288, Note_on_c, 3, 54, 96
5, 782336, Note_off_c, 3, 54, 0
5, 782336, Note_on_c, 3, 57, 96
5, 784384, Note_off_c, 3, 57, 0
5, 784384, Note_on_c, 3, 58, 96
5, 786432, Note_off_c, 3, 58, 0
5, 786432, Note_on_c, 3, 59, 96
5, 788480, Note_off_c, 3, 59, 0
5, 791893, Note_on_c, 3, 64, 96
5, 792576, Note_off_c, 3, 64, 0
5, 792576, Note_on_c, 3, 64, 96
5, 793259, Note_off_c, 3, 64, 0
5, 793259, Note_on_c, 3, 61, 96
5, 793941, Note_on_c, 3, 64, 96
5, 793942, Note_off_c, 3, 61, 0
5, 794624, Note_off_c, 3, 64, 0
5, 794624, Note_on_c, 3, 64, 96
5, 795307, Note_off_c, 3, 64, 0
5, 795307, Note_on_c, 3, 59, 96
5, 795989, Note_on_c, 3, 64, 96
5, 795990, Note_off_c, 3, 59, 0
5, 796672, Note_off_c, 3, 64, 0
5, 796672, Note_on_c, 3, 64, 96
5, 797355, Note_off_c, 3, 64, 0
5, 797355, Note_on_c, 3, 57, 96
5, 798037, Note_on_c, 3, 63, 96
5, 798038, Note_off_c, 3, 57, 0
5, 798720, Note_off_c, 3, 63, 0
5, 798720, Note_on_c, 3, 64, 96
5, 799403, Note_off_c, 3, 64, 0
5, 799403, Note_on_c, 3, 59, 96
5, 800085, Note_on_c, 3, 57, 96
5, 800086, Note_off_c, 3, 59, 0
5, 800768, Note_off_c, 3, 57, 0
5, 800768, Note_on_c, 3, 56, 96
5, 800768, Note_on_c, 3, 59, 96
5, 802133, Note_off_c, 3, 56, 0
5, 802133, Note_off_c, 3, 59, 0
5, 802816, Note_on_c, 3, 54, 96
5, 802816, Note_on_c, 3, 57, 96
5, 804181, Note_off_c, 3, 54, 0
5, 804181, Note_off_c, 3, 57, 0
5, 804864, Note_on_c, 3, 52, 96
5, 804864, Note_on_c, 3, 59, 96
5, 805547, Note_off_c, 3, 59, 0
5, 805547, Note_on_c, 3, 61, 96
5, 806229, Note_on_c, 3, 62, 96
5, 806230, Note_off_c, 3, 52, 0
5, 806230, Note_off_c, 3, 61, 0
5, 806912, Note_off_c, 3, 62, 0
5, 806912, Note_on_c, 3, 61, 96
5, 807595, Note_off_c, 3, 61, 0
5, 807595, Note_on_c, 3, 57, 96
5, 808277, Note_on_c, 3, 61, 96
5, 808278, Note_off_c, 3, 57, 0
5, 808960, Note_off_c, 3, 61, 0
5, 808960, Note_on_c, 3, 64, 96
5, 809643, Note_off_c, 3, 64, 0
5, 809643, Note_on_c, 3, 62, 96
5, 810325, Note_on_c, 3, 64, 96
5, 810326, Note_off_c, 3, 62, 0
5, 811008, Note_off_c, 3, 64, 0
5, 811008, Note_on_c, 3, 57, 96
5, 812373, Note_off_c, 3, 57, 0
5, 812373, Note_on_c, 3, 52, 96
5, 813056, Note_off_c, 3, 52, 0
5, 813056, Note_on_c, 3, 52, 96
5, 813739, Note_off_c, 3, 52, 0
5, 813739, Note_on_c, 3, 49, 96
5, 814421, Note_on_c, 3, 52, 96
5, 814422, Note_off_c, 3, 49, 0
5, 815104, Note_off_c, 3, 52, 0
5, 815104, Note_on_c, 3, 52, 96
5, 815787, Note_off_c, 3, 52, 0
5, 815787, Note_on_c, 3, 47, 96
5, 816469, Note_on_c, 3, 52, 96
5, 816470, Note_off_c, 3, 47, 0
5, 817152, Note_off_c, 3, 52, 0
5, 817152, Note_on_c, 3, 49, 96
5, 817835, Note_off_c, 3, 49, 0
5, 817835, Note_on_c, 3, 45, 96
5, 818517, Note_on_c, 3, 47, 96
5, 818518, Note_off_c, 3, 45, 0
5, 819200, Note_off_c, 3, 47, 0
5, 819200, Note_on_c, 3, 49, 96
5, 819883, Note_off_c, 3, 49, 0
5, 819883, Note_on_c, 3, 52, 96
5, 820565, Note_on_c, 3, 57, 96
5, 820566, Note_off_c, 3, 52, 0
5, 821248, Note_off_c, 3, 57, 0
5, 821248, Note_on_c, 3, 52, 96
5, 821931, Note_off_c, 3, 52, 0
5, 821931, Note_on_c, 3, 56, 96
5, 822613, Note_on_c, 3, 59, 96
5, 822614, Note_off_c, 3, 56, 0
5, 823296, Note_off_c, 3, 59, 0
5, 823296, Note_on_c, 3, 57, 96
5, 826368, Note_off_c, 3, 57, 0
5, 826368, Note_on_c, 3, 56, 96
5, 827392, Note_off_c, 3, 56, 0
5, 827392, Note_on_c, 3, 54, 96
5, 828416, Note_off_c, 3, 54, 0
5, 828416, Note_on_c, 3, 62, 96
5, 830464, Note_off_c, 3, 62, 0
5, 830464, Note_on_c, 3, 61, 96
5, 831488, Note_off_c, 3, 61, 0
5, 831488, Note_on_c, 3, 63, 96
5, 832000, Note_off_c, 3, 63, 0
5, 832000, Note_on_c, 3, 65, 96
5, 832512, Note_off_c, 3, 65, 0
5, 832512, Note_on_c, 3, 66, 96
5, 834560, Note_off_c, 3, 66, 0
5, 834560, Note_on_c, 3, 69, 96
5, 835072, Note_off_c, 3, 69, 0
5, 835072, Note_on_c, 3, 68, 96
5, 835584, Note_off_c, 3, 68, 0
5, 836608, Note_on_c, 3, 61, 96
5, 837632, Note_off_c, 3, 61, 0
5, 837632, Note_on_c, 3, 60, 96
5, 838656, Note_off_c, 3, 60, 0
5, 838656, Note_on_c, 3, 59, 96
5, 839680, Note_off_c, 3, 59, 0
5, 839680, Note_on_c, 3, 58, 96
5, 840704, Note_off_c, 3, 58, 0
5, 840704, Note_on_c, 3, 57, 96
5, 841728, Note_off_c, 3, 57, 0
5, 841728, Note_on_c, 3, 56, 96
5, 842752, Note_off_c, 3, 56, 0
5, 842752, Note_on_c, 3, 57, 96
5, 844800, Note_off_c, 3, 57, 0
5, 844800, Note_on_c, 3, 56, 96
5, 845824, Note_off_c, 3, 56, 0
5, 845824, Note_on_c, 3, 54, 96
5, 847872, Note_off_c, 3, 54, 0
5, 847872, Note_on_c, 3, 56, 96
5, 851968, Note_off_c, 3, 56, 0
5, 866816, Note_on_c, 3, 52, 96
5, 867328, Note_off_c, 3, 52, 0
5, 867328, Note_on_c, 3, 54, 96
5, 867840, Note_off_c, 3, 54, 0
5, 867840, Note_on_c, 3, 56, 96
5, 868352, Note_off_c, 3, 56, 0
5, 868352, Note_on_c, 3, 57, 96
5, 868864, Note_off_c, 3, 57, 0
5, 868864, Note_on_c, 3, 59, 96
5, 869376, Note_off_c, 3, 59, 0
5, 869376, Note_on_c, 3, 61, 96
5, 869888, Note_off_c, 3, 61, 0
5, 869888, Note_on_c, 3, 62, 96
5, 870400, Note_off_c, 3, 62, 0
5, 870400, Note_on_c, 3, 64, 96
5, 870912, Note_off_c, 3, 64, 0
5, 870912, Note_on_c, 3, 61, 96
5, 871424, Note_off_c, 3, 61, 0
5, 871424, Note_on_c, 3, 59, 96
5, 871936, Note_off_c, 3, 59, 0
5, 871936, Note_on_c, 3, 57, 96
5, 872448, Note_off_c, 3, 57, 0
5, 872448, Note_on_c, 3, 66, 96
5, 872960, Note_off_c, 3, 66, 0
5, 872960, Note_on_c, 3, 67, 96
5, 873472, Note_off_c, 3, 67, 0
5, 873472, Note_on_c, 3, 66, 96
5, 873984, Note_off_c, 3, 66, 0
5, 873984, Note_on_c, 3, 64, 96
5, 874496, Note_off_c, 3, 64, 0
5, 874496, Note_on_c, 3, 62, 96
5, 875008, Note_off_c, 3, 62, 0
5, 875008, Note_on_c, 3, 61, 96
5, 875520, Note_off_c, 3, 61, 0
5, 875520, Note_on_c, 3, 59, 96
5, 876032, Note_off_c, 3, 59, 0
5, 876032, Note_on_c, 3, 57, 96
5, 876544, Note_off_c, 3, 57, 0
5, 876544, Note_on_c, 3, 56, 96
5, 877056, Note_off_c, 3, 56, 0
5, 877056, Note_on_c, 3, 59, 96
5, 877568, Note_off_c, 3, 59, 0
5, 877568, Note_on_c, 3, 57, 96
5, 878080, Note_off_c, 3, 57, 0
5, 878080, Note_on_c, 3, 56, 96
5, 878592, Note_off_c, 3, 56, 0
5, 878592, Note_on_c, 3, 57, 96
5, 879104, Note_off_c, 3, 57, 0
5, 879104, Note_on_c, 3, 45, 96
5, 879616, Note_off_c, 3, 45, 0
5, 879616, Note_on_c, 3, 47, 96
5, 880128, Note_off_c, 3, 47, 0
5, 880128, Note_on_c, 3, 49, 96
5, 880640, Note_off_c, 3, 49, 0
5, 880640, Note_on_c, 3, 50, 96
5, 881152, Note_off_c, 3, 50, 0
5, 881152, Note_on_c, 3, 52, 96
5, 881664, Note_off_c, 3, 52, 0
5, 881664, Note_on_c, 3, 54, 96
5, 882176, Note_off_c, 3, 54, 0
5, 882176, Note_on_c, 3, 55, 96
5, 882688, Note_off_c, 3, 55, 0
5, 882688, Note_on_c, 3, 57, 96
5, 883200, Note_off_c, 3, 57, 0
5, 883200, Note_on_c, 3, 55, 96
5, 883712, Note_off_c, 3, 55, 0
5, 883712, Note_on_c, 3, 54, 96
5, 884224, Note_off_c, 3, 54, 0
5, 884224, Note_on_c, 3, 52, 96
5, 884736, Note_off_c, 3, 52, 0
5, 884736, Note_on_c, 3, 54, 96
5, 887296, Note_off_c, 3, 54, 0
5, 887296, Note_on_c, 3, 52, 96
5, 887808, Note_off_c, 3, 52, 0
5, 887808, Note_on_c, 3, 50, 96
5, 888320, Note_off_c, 3, 50, 0
5, 888320, Note_on_c, 3, 52, 96
5, 888832, Note_off_c, 3, 52, 0
5, 888832, Note_on_c, 3, 54, 96
5, 889344, Note_off_c, 3, 54, 0
5, 889344, Note_on_c, 3, 57, 96
5, 889856, Note_off_c, 3, 57, 0
5, 889856, Note_on_c, 3, 55, 96
5, 890368, Note_off_c, 3, 55, 0
5, 890368, Note_on_c, 3, 54, 96
5, 890880, Note_off_c, 3, 54, 0
5, 890880, Note_on_c, 3, 52, 96
5, 892928, Note_off_c, 3, 52, 0
5, 897536, Note_on_c, 3, 62, 96
5, 898048, Note_off_c, 3, 62, 0
5, 898048, Note_on_c, 3, 61, 96
5, 898560, Note_off_c, 3, 61, 0
5, 898560, Note_on_c, 3, 59, 96
5, 899072, Note_off_c, 3, 59, 0
5, 899072, Note_on_c, 3, 57, 96
5, 899584, Note_off_c, 3, 57, 0
5, 899584, Note_on_c, 3, 55, 96
5, 900096, Note_off_c, 3, 55, 0
5, 900096, Note_on_c, 3, 54, 96
5, 900608, Note_off_c, 3, 54, 0
5, 900608, Note_on_c, 3, 52, 96
5, 901120, Note_off_c, 3, 52, 0
5, 901120, Note_on_c, 3, 50, 96
5, 901632, Note_off_c, 3, 50, 0
5, 901632, Note_on_c, 3, 54, 96
5, 902144, Note_off_c, 3, 54, 0
5, 902144, Note_on_c, 3, 52, 96
5, 902656, Note_off_c, 3, 52, 0
5, 902656, Note_on_c, 3, 50, 96
5, 903168, Note_off_c, 3, 50, 0
5, 903168, Note_on_c, 3, 49, 96
5, 904192, Note_off_c, 3, 49, 0
5, 904192, Note_on_c, 3, 45, 96
5, 905216, Note_off_c, 3, 45, 0
5, 915968, Note_on_c, 3, 67, 96
5, 916480, Note_off_c, 3, 67, 0
5, 916480, Note_on_c, 3, 66, 96
5, 916992, Note_off_c, 3, 66, 0
5, 916992, Note_on_c, 3, 64, 96
5, 917504, Note_off_c, 3, 64, 0
5, 917504, Note_on_c, 3, 62, 96
5, 918016, Note_off_c, 3, 62, 0
5, 918016, Note_on_c, 3, 61, 96
5, 918528, Note_off_c, 3, 61, 0
5, 918528, Note_on_c, 3, 59, 96
5, 919040, Note_off_c, 3, 59, 0
5, 919040, Note_on_c, 3, 57, 96
5, 919552, Note_off_c, 3, 57, 0
5, 919552, Note_on_c, 3, 56, 96
5, 920064, Note_off_c, 3, 56, 0
5, 920064, Note_on_c, 3, 59, 96
5, 920576, Note_off_c, 3, 59, 0
5, 920576, Note_on_c, 3, 57, 96
5, 921088, Note_off_c, 3, 57, 0
5, 921088, Note_on_c, 3, 56, 96
5, 921600, Note_off_c, 3, 56, 0
5, 921600, Note_on_c, 3, 57, 96
5, 934912, Note_off_c, 3, 57, 0
5, 934912, End_track
6, 0, Start_track
6, 0, Title_t, "Instrument 5"
6, 632832, Note_on_c, 4, 49, 96
6, 636928, Note_off_c, 4, 49, 0
6, 636928, Note_on_c, 4, 51, 96
6, 638976, Note_off_c, 4, 51, 0
6, 638976, Note_on_c, 4, 52, 96
6, 643072, Note_off_c, 4, 52, 0
6, 643072, Note_on_c, 4, 52, 96
6, 645120, Note_off_c, 4, 52, 0
6, 645120, Note_on_c, 4, 54, 96
6, 651264, Note_off_c, 4, 54, 0
6, 651264, Note_on_c, 4, 52, 96
6, 655360, Note_off_c, 4, 52, 0
6, 655360, Note_on_c, 4, 52, 96
6, 657408, Note_off_c, 4, 52, 0
6, 657408, Note_on_c, 4, 45, 96
6, 661504, Note_off_c, 4, 45, 0
6, 661504, Note_on_c, 4, 47, 96
6, 663552, Note_off_c, 4, 47, 0
6, 663552, Note_on_c, 4, 49, 96
6, 667648, Note_off_c, 4, 49, 0
6, 667648, Note_on_c, 4, 50, 96
6, 669696, Note_off_c, 4, 50, 0
6, 669696, Note_on_c, 4, 49, 96
6, 671744, Note_off_c, 4, 49, 0
6, 671744, Note_on_c, 4, 47, 96
6, 675840, Note_off_c, 4, 47, 0
6, 675840, Note_on_c, 4, 45, 96
6, 686080, Note_off_c, 4, 45, 0
6, 686080, Note_on_c, 4, 45, 96
6, 688128, Note_off_c, 4, 45, 0
6, 688128, Note_on_c, 4, 49, 96
6, 692224, Note_off_c, 4, 49, 0
6, 692224, Note_on_c, 4, 51, 96
6, 694272, Note_off_c, 4, 51, 0
6, 694272, Note_on_c, 4, 52, 96
6, 698368, Note_off_c, 4, 52, 0
6, 698368, Note_on_c, 4, 52, 96
6, 700416, Note_off_c, 4, 52, 0
6, 700416, Note_on_c, 4, 54, 96
6, 706560, Note_off_c, 4, 54, 0
6, 706560, Note_on_c, 4, 52, 96
6, 710656, Note_off_c, 4, 52, 0
6, 710656, Note_on_c, 4, 52, 96
6, 712704, Note_off_c, 4, 52, 0
6, 712704, Note_on_c, 4, 45, 96
6, 716800, Note_off_c, 4, 45, 0
6, 716800, Note_on_c, 4, 47, 96
6, 718848, Note_off_c, 4, 47, 0
6, 718848, Note_on_c, 4, 49, 96
6, 722944, Note_off_c, 4, 49, 0
6, 722944, Note_on_c, 4, 50, 96
6, 724992, Note_off_c, 4, 50, 0
6, 724992, Note_on_c, 4, 49, 96
6, 727040, Note_off_c, 4, 49, 0
6, 727040, Note_on_c, 4, 47, 96
6, 731136, Note_off_c, 4, 47, 0
6, 731136, Note_on_c, 4, 45, 96
6, 745472, Note_off_c, 4, 45, 0
6, 778240, Note_on_c, 4, 49, 96
6, 780288, Note_off_c, 4, 49, 0
6, 780288, Note_on_c, 4, 49, 96
6, 784384, Note_off_c, 4, 49, 0
6, 784384, Note_on_c, 4, 49, 96
6, 786432, Note_off_c, 4, 49, 0
6, 786432, Note_on_c, 4, 47, 96
6, 790528, Note_off_c, 4, 47, 0
6, 790528, Note_on_c, 4, 44, 96
6, 792576, Note_off_c, 4, 44, 0
6, 792576, Note_on_c, 4, 45, 96
6, 794624, Note_off_c, 4, 45, 0
6, 794624, Note_on_c, 4, 44, 96
6, 796672, Note_off_c, 4, 44, 0
6, 796672, Note_on_c, 4, 42, 96
6, 798720, Note_off_c, 4, 42, 0
6, 798720, Note_on_c, 4, 40, 96
6, 811008, Note_off_c, 4, 40, 0
6, 815104, Note_on_c, 4, 52, 96
6, 817152, Note_off_c, 4, 52, 0
6, 817152, Note_on_c, 4, 52, 96
6, 821248, Note_off_c, 4, 52, 0
6, 821248, Note_on_c, 4, 50, 96
6, 823296, Note_off_c, 4, 50, 0
6, 823296, Note_on_c, 4, 49, 96
6, 827392, Note_off_c, 4, 49, 0
6, 827392, Note_on_c, 4, 54, 96
6, 829440, Note_off_c, 4, 54, 0
6, 829440, Note_on_c, 4, 53, 96
6, 830464, Note_off_c, 4, 53, 0
6, 830464, Note_on_c, 4, 52, 96
6, 831488, Note_off_c, 4, 52, 0
6, 831488, Note_on_c, 4, 51, 96
6, 832512, Note_off_c, 4, 51, 0
6, 832512, Note_on_c, 4, 49, 96
6, 833536, Note_off_c, 4, 49, 0
6, 833536, Note_on_c, 4, 50, 96
6, 835584, Note_off_c, 4, 50, 0
6, 835584, Note_on_c, 4, 49, 96
6, 851968, Note_off_c, 4, 49, 0
6, 851968, Note_on_c, 4, 54, 96
6, 854016, Note_off_c, 4, 54, 0
6, 854016, Note_on_c, 4, 52, 96
6, 857088, Note_off_c, 4, 52, 0
6, 857088, Note_on_c, 4, 50, 96
6, 858112, Note_off_c, 4, 50, 0
6, 858112, Note_on_c, 4, 49, 96
6, 860160, Note_off_c, 4, 49, 0
6, 860160, Note_on_c, 4, 47, 96
6, 863232, Note_off_c, 4, 47, 0
6, 863232, Note_on_c, 4, 49, 96
6, 864256, Note_off_c, 4, 49, 0
6, 864256, Note_on_c, 4, 50, 96
6, 866304, Note_off_c, 4, 50, 0
6, 866304, Note_on_c, 4, 52, 96
6, 869376, Note_off_c, 4, 52, 0
6, 869376, Note_on_c, 4, 50, 96
6, 870400, Note_off_c, 4, 50, 0
6, 870400, Note_on_c, 4, 49, 96
6, 872448, Note_off_c, 4, 49, 0
6, 872448, Note_on_c, 4, 50, 96
6, 874496, Note_off_c, 4, 50, 0
6, 874496, Note_on_c, 4, 47, 96
6, 878592, Note_off_c, 4, 47, 0
6, 878592, Note_on_c, 4, 45, 96
6, 934912, Note_off_c, 4, 45, 0
6, 934912, End_track
7, 0, Start_track
7, 0, Title_t, "Instrument 6"
7, 632832, Note_on_c, 5, 37, 96
7, 636928, Note_off_c, 5, 37, 0
7, 636928, Note_on_c, 5, 39, 96
7, 638976, Note_off_c, 5, 39, 0
7, 638976, Note_on_c, 5, 40, 96
7, 643072, Note_off_c, 5, 40, 0
7, 643072, Note_on_c, 5, 40, 96
7, 645120, Note_off_c, 5, 40, 0
7, 645120, Note_on_c, 5, 42, 96
7, 651264, Note_off_c, 5, 42, 0
7, 651264, Note_on_c, 5, 40, 96
7, 655360, Note_off_c, 5, 40, 0
7, 655360, Note_on_c, 5, 40, 96
7, 657408, Note_off_c, 5, 40, 0
7, 657408, Note_on_c, 5, 33, 96
7, 661504, Note_off_c, 5, 33, 0
7, 661504, Note_on_c, 5, 35, 96
7, 663552, Note_off_c, 5, 35, 0
7, 663552, Note_on_c, 5, 37, 96
7, 667648, Note_off_c, 5, 37, 0
7, 667648, Note_on_c, 5, 38, 96
7, 669696, Note_off_c, 5, 38, 0
7, 669696, Note_on_c, 5, 37, 96
7, 671744, Note_off_c, 5, 37, 0
7, 671744, Note_on_c, 5, 35, 96
7, 675840, Note_off_c, 5, 35, 0
7, 675840, Note_on_c, 5, 33, 96
7, 686080, Note_off_c, 5, 33, 0
7, 686080, Note_on_c, 5, 33, 96
7, 688128, Note_off_c, 5, 33, 0
7, 688128, Note_on_c, 5, 37, 96
7, 692224, Note_off_c, 5, 37, 0
7, 692224, Note_on_c, 5, 39, 96
7, 694272, Note_off_c, 5, 39, 0
7, 694272, Note_on_c, 5, 40, 96
7, 698368, Note_off_c, 5, 40, 0
7, 698368, Note_on_c, 5, 40, 96
7, 700416, Note_off_c, 5, 40, 0
7, 700416, Note_on_c, 5, 42, 96
7, 706560, Note_off_c, 5, 42, 0
7, 706560, Note_on_c, 5, 40, 96
7, 710656, Note_off_c, 5, 40, 0
7, 710656, Note_on_c, 5, 40, 96
7, 712704, Note_off_c, 5, 40, 0
7, 712704, Note_on_c, 5, 33, 96
7, 716800, Note_off_c, 5, 33, 0
7, 716800, Note_on_c, 5, 35, 96
7, 718848, Note_off_c, 5, 35, 0
7, 718848, Note_on_c, 5, 37, 96
7, 722944, Note_off_c, 5, 37, 0
7, 722944, Note_on_c, 5, 38, 96
7, 724992, Note_off_c, 5, 38, 0
7, 724992, Note_on_c, 5, 37, 96
7, 727040, Note_off_c, 5, 37, 0
7, 727040, Note_on_c, 5, 35, 96
7, 731136, Note_off_c, 5, 35, 0
7, 731136, Note_on_c, 5, 33, 96
7, 745472, Note_off_c, 5, 33, 0
7, 778240, Note_on_c, 5, 37, 96
7, 780288, Note_off_c, 5, 37, 0
7, 780288, Note_on_c, 5, 37, 96
7, 784384, Note_off_c, 5, 37, 0
7, 784384, Note_on_c, 5, 37, 96
7, 786432, Note_off_c, 5, 37, 0
7, 786432, Note_on_c, 5, 35, 96
7, 790528, Note_off_c, 5, 35, 0
7, 790528, Note_on_c, 5, 32, 96
7, 792576, Note_off_c, 5, 32, 0
7, 792576, Note_on_c, 5, 33, 96
7, 794624, Note_off_c, 5, 33, 0
7, 794624, Note_on_c, 5, 32, 96
7, 796672, Note_off_c, 5, 32, 0
7, 796672, Note_on_c, 5, 30, 96
7, 798720, Note_off_c, 5, 30, 0
7, 798720, Note_on_c, 5, 28, 96
7, 811008, Note_off_c, 5, 28, 0
7, 815104, Note_on_c, 5, 40, 96
7, 817152, Note_off_c, 5, 40, 0
7, 817152, Note_on_c, 5, 40, 96
7, 821248, Note_off_c, 5, 40, 0
7, 821248, Note_on_c, 5, 38, 96
7, 823296, Note_off_c, 5, 38, 0
7, 823296, Note_on_c, 5, 37, 96
7, 827392, Note_off_c, 5, 37, 0
7, 827392, Note_on_c, 5, 42, 96
7, 829440, Note_off_c, 5, 42, 0
7, 829440, Note_on_c, 5, 41, 96
7, 830464, Note_off_c, 5, 41, 0
7, 830464, Note_on_c, 5, 40, 96
7, 831488, Note_off_c, 5, 40, 0
7, 831488, Note_on_c, 5, 39, 96
7, 832512, Note_off_c, 5, 39, 0
7, 832512, Note_on_c, 5, 37, 96
7, 833536, Note_off_c, 5, 37, 0
7, 833536, Note_on_c, 5, 38, 96
7, 835584, Note_off_c, 5, 38, 0
7, 835584, Note_on_c, 5, 37, 96
7, 851968, Note_off_c, 5, 37, 0
7, 851968, Note_on_c, 5, 42, 96
7, 854016, Note_off_c, 5, 42, 0
7, 854016, Note_on_c, 5, 40, 96
7, 857088, Note_off_c, 5, 40, 0
7, 857088, Note_on_c, 5, 38, 96
7, 858112, Note_off_c, 5, 38, 0
7, 858112, Note_on_c, 5, 37, 96
7, 860160, Note_off_c, 5, 37, 0
7, 860160, Note_on_c, 5, 35, 96
7, 863232, Note_off_c, 5, 35, 0
7, 863232, Note_on_c, 5, 37, 96
7, 864256, Note_off_c, 5, 37, 0
7, 864256, Note_on_c, 5, 38, 96
7, 866304, Note_off_c, 5, 38, 0
7, 866304, Note_on_c, 5, 40, 96
7, 869376, Note_off_c, 5, 40, 0
7, 869376, Note_on_c, 5, 38, 96
7, 870400, Note_off_c, 5, 38, 0
7, 870400, Note_on_c, 5, 37, 96
7, 872448, Note_off_c, 5, 37, 0
7, 872448, Note_on_c, 5, 38, 96
7, 874496, Note_off_c, 5, 38, 0
7, 874496, Note_on_c, 5, 35, 96
7, 878592, Note_off_c, 5, 35, 0
7, 878592, Note_on_c, 5, 33, 96
7, 934912, Note_off_c, 5, 33, 0
7, 934912, End_track
0, 0, End_of_file
