0, 0, Header, 1, 6, 1024
1, 0, Start_track
1, 0, Time_signature, 4, 2, 24, 8
1, 0, Key_signature, 2, "major"
1, 0, Tempo, 1090909
1, 65536, End_track
2, 0, Start_track
2, 0, Title_t, "Instrument 1"
2, 0, Note_on_c, 0, 74, 96
2, 2048, Note_off_c, 0, 74, 0
2, 2048, Note_on_c, 0, 73, 96
2, 3072, Note_off_c, 0, 73, 0
2, 3072, Note_on_c, 0, 71, 96
2, 4096, Note_off_c, 0, 71, 0
2, 4096, Note_on_c, 0, 73, 96
2, 5120, Note_off_c, 0, 73, 0
2, 5291, Note_on_c, 0, 69, 96
2, 5461, Note_off_c, 0, 69, 0
2, 5461, Note_on_c, 0, 74, 96
2, 5632, Note_off_c, 0, 74, 0
2, 5632, Note_on_c, 0, 73, 96
2, 5803, Note_off_c, 0, 73, 0
2, 5803, Note_on_c, 0, 71, 96
2, 5973, Note_off_c, 0, 71, 0
2, 5973, Note_on_c, 0, 69, 96
2, 6144, Note_off_c, 0, 69, 0
2, 6144, Note_on_c, 0, 71, 96
2, 6315, Note_off_c, 0, 71, 0
2, 6315, Note_on_c, 0, 74, 96
2, 6485, Note_off_c, 0, 74, 0
2, 6485, Note_on_c, 0, 79, 96
2, 6656, Note_off_c, 0, 79, 0
2, 6656, Note_on_c, 0, 78, 96
2, 6827, Note_off_c, 0, 78, 0
2, 6827, Note_on_c, 0, 76, 96
2, 6997, Note_off_c, 0, 76, 0
2, 6997, Note_on_c, 0, 74, 96
2, 7168, Note_off_c, 0, 74, 0
2, 7168, Note_on_c, 0, 73, 96
2, 8192, Note_off_c, 0, 73, 0
2, 8192, Note_on_c, 0, 74, 96
2, 10240, Note_off_c, 0, 74, 0
2, 14336, Note_on_c, 0, 74, 96
2, 16384, Note_off_c, 0, 74, 0
2, 16384, Note_on_c, 0, 74, 96
2, 17408, Note_off_c, 0, 74, 0
2, 17408, Note_on_c, 0, 69, 96
2, 18432, Note_off_c, 0, 69, 0
2, 18432, Note_on_c, 0, 69, 96
2, 18603, Note_off_c, 0, 69, 0
2, 18603, Note_on_c, 0, 71, 96
2, 18773, Note_off_c, 0, 71, 0
2, 18773, Note_on_c, 0, 69, 96
2, 18944, Note_off_c, 0, 69, 0
2, 18944, Note_on_c, 0, 67, 96
2, 19115, Note_off_c, 0, 67, 0
2, 19115, Note_on_c, 0, 66, 96
2, 19285, Note_off_c, 0, 66, 0
2, 19285, Note_on_c, 0, 64, 96
2, 19456, Note_off_c, 0, 64, 0
2, 19456, Note_on_c, 0, 66, 96
2, 20224, Note_off_c, 0, 66, 0
2, 20224, Note_on_c, 0, 67, 96
2, 20480, Note_off_c, 0, 67, 0
2, 20480, Note_on_c, 0, 69, 96
2, 20651, Note_off_c, 0, 69, 0
2, 20651, Note_on_c, 0, 72, 96
2, 20821, Note_off_c, 0, 72, 0
2, 20821, Note_on_c, 0, 71, 96
2, 20992, Note_off_c, 0, 71, 0
2, 20992, Note_on_c, 0, 69, 96
2, 21163, Note_off_c, 0, 69, 0
2, 21163, Note_on_c, 0, 67, 96
2, 21333, Note_off_c, 0, 67, 0
2, 21333, Note_on_c, 0, 66, 96
2, 21504, Note_off_c, 0, 66, 0
2, 21504, Note_on_c, 0, 67, 96
2, 22528, Note_off_c, 0, 67, 0
2, 22528, Note_on_c, 0, 66, 96
2, 25600, Note_off_c, 0, 66, 0
2, 31744, Note_on_c, 0, 66, 96
2, 32768, Note_off_c, 0, 66, 0
2, 32768, Note_on_c, 0, 71, 96
2, 33792, Note_off_c, 0, 71, 0
2, 33792, Note_on_c, 0, 71, 96
2, 34816, Note_off_c, 0, 71, 0
2, 34816, Note_on_c, 0, 69, 96
2, 35840, Note_off_c, 0, 69, 0
2, 35840, Note_on_c, 0, 73, 96
2, 36864, Note_off_c, 0, 73, 0
2, 36864, Note_on_c, 0, 74, 96
2, 37888, Note_off_c, 0, 74, 0
2, 37888, Note_on_c, 0, 65, 96
2, 38912, Note_off_c, 0, 65, 0
2, 38912, Note_on_c, 0, 61, 96
2, 38912, Note_on_c, 0, 69, 96
2, 39936, Note_off_c, 0, 61, 0
2, 39936, Note_off_c, 0, 69, 0
2, 44032, Note_on_c, 0, 74, 96
2, 45056, Note_off_c, 0, 74, 0
2, 45056, Note_on_c, 0, 73, 96
2, 46080, Note_off_c, 0, 73, 0
2, 46080, Note_on_c, 0, 71, 96
2, 47104, Note_off_c, 0, 71, 0
2, 47104, Note_on_c, 0, 69, 96
2, 48128, Note_off_c, 0, 69, 0
2, 48128, Note_on_c, 0, 71, 96
2, 48640, Note_off_c, 0, 71, 0
2, 48640, Note_on_c, 0, 69, 96
2, 49152, Note_off_c, 0, 69, 0
2, 49152, Note_on_c, 0, 67, 96
2, 50176, Note_off_c, 0, 67, 0
2, 50176, Note_on_c, 0, 66, 96
2, 51200, Note_off_c, 0, 66, 0
2, 51200, Note_on_c, 0, 64, 96
2, 51371, Note_off_c, 0, 64, 0
2, 51371, Note_on_c, 0, 66, 96
2, 51541, Note_off_c, 0, 66, 0
2, 51541, Note_on_c, 0, 67, 96
2, 51712, Note_off_c, 0, 67, 0
2, 51712, Note_on_c, 0, 69, 96
2, 51883, Note_off_c, 0, 69, 0
2, 51883, Note_on_c, 0, 71, 96
2, 52053, Note_off_c, 0, 71, 0
2, 52053, Note_on_c, 0, 73, 96
2, 52139, Note_off_c, 0, 73, 0
2, 52139, Note_on_c, 0, 74, 96
2, 52224, Note_off_c, 0, 74, 0
2, 52224, Note_on_c, 0, 66, 96
2, 52736, Note_off_c, 0, 66, 0
2, 52736, Note_on_c, 0, 64, 96
2, 52992, Note_off_c, 0, 64, 0
2, 52992, Note_on_c, 0, 62, 96
2, 53248, Note_off_c, 0, 62, 0
2, 53248, Note_on_c, 0, 62, 96
2, 65536, Note_off_c, 0, 62, 0
2, 65536, End_track
3, 0, Start_track
3, 0, Title_t, "Instrument 2"
3, 0, Note_on_c, 1, 69, 96
3, 512, Note_off_c, 1, 69, 0
3, 512, Note_on_c, 1, 71, 96
3, 2048, Note_off_c, 1, 71, 0
3, 4267, Note_on_c, 1, 64, 96
3, 4437, Note_off_c, 1, 64, 0
3, 4437, Note_on_c, 1, 69, 96
3, 4608, Note_off_c, 1, 69, 0
3, 4608, Note_on_c, 1, 67, 96
3, 4779, Note_off_c, 1, 67, 0
3, 4779, Note_on_c, 1, 66, 96
3, 4949, Note_off_c, 1, 66, 0
3, 4949, Note_on_c, 1, 64, 96
3, 5120, Note_off_c, 1, 64, 0
3, 5120, Note_on_c, 1, 62, 96
3, 6912, Note_off_c, 1, 62, 0
3, 6912, Note_on_c, 1, 67, 96
3, 7339, Note_off_c, 1, 67, 0
3, 7339, Note_on_c, 1, 71, 96
3, 7509, Note_off_c, 1, 71, 0
3, 7509, Note_on_c, 1, 69, 96
3, 7680, Note_off_c, 1, 69, 0
3, 7680, Note_on_c, 1, 67, 96
3, 7851, Note_off_c, 1, 67, 0
3, 7851, Note_on_c, 1, 66, 96
3, 8021, Note_off_c, 1, 66, 0
3, 8021, Note_on_c, 1, 64, 96
3, 8192, Note_off_c, 1, 64, 0
3, 8192, Note_on_c, 1, 66, 96
3, 10240, Note_off_c, 1, 66, 0
3, 12288, Note_on_c, 1, 62, 96
3, 12459, Note_off_c, 1, 62, 0
3, 12459, Note_on_c, 1, 66, 96
3, 12629, Note_off_c, 1, 66, 0
3, 12629, Note_on_c, 1, 69, 96
3, 12800, Note_off_c, 1, 69, 0
3, 12800, Note_on_c, 1, 74, 96
3, 12971, Note_off_c, 1, 74, 0
3, 12971, Note_on_c, 1, 73, 96
3, 13141, Note_off_c, 1, 73, 0
3, 13141, Note_on_c, 1, 71, 96
3, 13312, Note_off_c, 1, 71, 0
3, 13312, Note_on_c, 1, 69, 96
3, 13483, Note_off_c, 1, 69, 0
3, 13483, Note_on_c, 1, 73, 96
3, 13653, Note_off_c, 1, 73, 0
3, 13653, Note_on_c, 1, 76, 96
3, 13824, Note_off_c, 1, 76, 0
3, 13824, Note_on_c, 1, 79, 96
3, 13995, Note_off_c, 1, 79, 0
3, 13995, Note_on_c, 1, 78, 96
3, 14165, Note_off_c, 1, 78, 0
3, 14165, Note_on_c, 1, 76, 96
3, 14336, Note_off_c, 1, 76, 0
3, 14507, Note_on_c, 1, 69, 96
3, 14677, Note_off_c, 1, 69, 0
3, 14677, Note_on_c, 1, 71, 96
3, 14848, Note_off_c, 1, 71, 0
3, 14848, Note_on_c, 1, 67, 96
3, 15019, Note_off_c, 1, 67, 0
3, 15019, Note_on_c, 1, 64, 96
3, 15189, Note_off_c, 1, 64, 0
3, 15189, Note_on_c, 1, 69, 96
3, 15360, Note_on_c, 1, 66, 96
3, 16384, Note_off_c, 1, 66, 0
3, 16384, Note_off_c, 1, 69, 0
3, 16384, Note_on_c, 1, 66, 96
3, 16384, Note_on_c, 1, 71, 96
3, 17408, Note_off_c, 1, 66, 0
3, 17408, Note_off_c, 1, 71, 0
3, 17408, Note_on_c, 1, 62, 96
3, 18432, Note_off_c, 1, 62, 0
3, 19627, Note_on_c, 1, 62, 96
3, 19797, Note_off_c, 1, 62, 0
3, 19797, Note_on_c, 1, 61, 96
3, 19968, Note_off_c, 1, 61, 0
3, 19968, Note_on_c, 1, 59, 96
3, 20139, Note_off_c, 1, 59, 0
3, 20139, Note_on_c, 1, 57, 96
3, 20309, Note_off_c, 1, 57, 0
3, 20309, Note_on_c, 1, 55, 96
3, 20480, Note_off_c, 1, 55, 0
3, 21675, Note_on_c, 1, 66, 96
3, 21845, Note_off_c, 1, 66, 0
3, 21845, Note_on_c, 1, 64, 96
3, 22016, Note_off_c, 1, 64, 0
3, 22016, Note_on_c, 1, 62, 96
3, 22187, Note_off_c, 1, 62, 0
3, 22187, Note_on_c, 1, 61, 96
3, 22357, Note_off_c, 1, 61, 0
3, 22357, Note_on_c, 1, 59, 96
3, 22528, Note_off_c, 1, 59, 0
3, 22528, Note_on_c, 1, 58, 96
3, 23552, Note_off_c, 1, 58, 0
3, 23552, Note_on_c, 1, 59, 96
3, 24064, Note_off_c, 1, 59, 0
3, 24064, Note_on_c, 1, 62, 96
3, 24235, Note_off_c, 1, 62, 0
3, 24235, Note_on_c, 1, 61, 96
3, 24405, Note_off_c, 1, 61, 0
3, 24405, Note_on_c, 1, 62, 96
3, 24576, Note_off_c, 1, 62, 0
3, 24576, Note_on_c, 1, 61, 96
3, 25259, Note_off_c, 1, 61, 0
3, 25259, Note_on_c, 1, 61, 96
3, 25429, Note_off_c, 1, 61, 0
3, 25429, Note_on_c, 1, 66, 96
3, 25771, Note_off_c, 1, 66, 0
3, 25771, Note_on_c, 1, 66, 96
3, 25941, Note_off_c, 1, 66, 0
3, 25941, Note_on_c, 1, 64, 96
3, 26453, Note_off_c, 1, 64, 0
3, 26453, Note_on_c, 1, 64, 96
3, 26795, Note_off_c, 1, 64, 0
3, 26795, Note_on_c, 1, 62, 96
3, 26965, Note_off_c, 1, 62, 0
3, 26965, Note_on_c, 1, 67, 96
3, 27477, Note_off_c, 1, 67, 0
3, 27477, Note_on_c, 1, 67, 96
3, 27819, Note_off_c, 1, 67, 0
3, 27819, Note_on_c, 1, 66, 96
3, 27989, Note_off_c, 1, 66, 0
3, 27989, Note_on_c, 1, 71, 96
3, 28501, Note_off_c, 1, 71, 0
3, 28501, Note_on_c, 1, 71, 96
3, 28843, Note_off_c, 1, 71, 0
3, 28843, Note_on_c, 1, 70, 96
3, 29013, Note_off_c, 1, 70, 0
3, 29013, Note_on_c, 1, 73, 96
3, 29525, Note_off_c, 1, 73, 0
3, 29525, Note_on_c, 1, 71, 96
3, 29696, Note_off_c, 1, 71, 0
3, 29696, Note_on_c, 1, 64, 96
3, 29867, Note_off_c, 1, 64, 0
3, 29867, Note_on_c, 1, 66, 96
3, 30037, Note_off_c, 1, 66, 0
3, 30037, Note_on_c, 1, 67, 96
3, 30891, Note_off_c, 1, 67, 0
3, 30891, Note_on_c, 1, 67, 96
3, 31061, Note_off_c, 1, 67, 0
3, 31061, Note_on_c, 1, 66, 96
3, 31232, Note_off_c, 1, 66, 0
3, 31232, Note_on_c, 1, 64, 96
3, 31403, Note_off_c, 1, 64, 0
3, 31403, Note_on_c, 1, 62, 96
3, 31573, Note_off_c, 1, 62, 0
3, 31573, Note_on_c, 1, 61, 96
3, 31744, Note_off_c, 1, 61, 0
3, 31744, Note_on_c, 1, 62, 96
3, 32768, Note_off_c, 1, 62, 0
3, 32768, Note_on_c, 1, 62, 96
3, 32768, Note_on_c, 1, 67, 96
3, 33280, Note_off_c, 1, 62, 0
3, 33280, Note_off_c, 1, 67, 0
3, 33792, Note_on_c, 1, 62, 96
3, 33792, Note_on_c, 1, 67, 96
3, 34304, Note_off_c, 1, 62, 0
3, 34304, Note_off_c, 1, 67, 0
3, 34816, Note_on_c, 1, 62, 96
3, 35157, Note_off_c, 1, 62, 0
3, 35328, Note_on_c, 1, 66, 96
3, 36011, Note_off_c, 1, 66, 0
3, 36011, Note_on_c, 1, 67, 96
3, 36181, Note_off_c, 1, 67, 0
3, 36181, Note_on_c, 1, 66, 96
3, 36352, Note_off_c, 1, 66, 0
3, 36352, Note_on_c, 1, 64, 96
3, 36523, Note_off_c, 1, 64, 0
3, 36523, Note_on_c, 1, 62, 96
3, 36693, Note_off_c, 1, 62, 0
3, 36693, Note_on_c, 1, 61, 96
3, 36864, Note_off_c, 1, 61, 0
3, 37035, Note_on_c, 1, 62, 96
3, 37205, Note_off_c, 1, 62, 0
3, 37205, Note_on_c, 1, 66, 96
3, 37376, Note_off_c, 1, 66, 0
3, 37376, Note_on_c, 1, 69, 96
3, 37547, Note_off_c, 1, 69, 0
3, 37547, Note_on_c, 1, 68, 96
3, 37717, Note_off_c, 1, 68, 0
3, 37717, Note_on_c, 1, 66, 96
3, 37888, Note_off_c, 1, 66, 0
3, 38059, Note_on_c, 1, 68, 96
3, 38229, Note_off_c, 1, 68, 0
3, 38229, Note_on_c, 1, 71, 96
3, 38400, Note_off_c, 1, 71, 0
3, 38400, Note_on_c, 1, 74, 96
3, 38571, Note_off_c, 1, 74, 0
3, 38571, Note_on_c, 1, 73, 96
3, 38741, Note_off_c, 1, 73, 0
3, 38741, Note_on_c, 1, 71, 96
3, 38912, Note_off_c, 1, 71, 0
3, 39083, Note_on_c, 1, 68, 96
3, 39253, Note_off_c, 1, 68, 0
3, 39253, Note_on_c, 1, 66, 96
3, 39424, Note_off_c, 1, 66, 0
3, 39424, Note_on_c, 1, 65, 96
3, 39595, Note_off_c, 1, 65, 0
3, 39595, Note_on_c, 1, 66, 96
3, 39765, Note_off_c, 1, 66, 0
3, 39765, Note_on_c, 1, 66, 96
3, 39936, Note_off_c, 1, 66, 0
3, 39936, Note_on_c, 1, 61, 96
3, 40107, Note_off_c, 1, 61, 0
3, 44032, Note_on_c, 1, 66, 96
3, 44032, Note_on_c, 1, 71, 96
3, 45056, Note_off_c, 1, 66, 0
3, 45056, Note_off_c, 1, 71, 0
3, 45056, Note_on_c, 1, 68, 96
3, 45397, Note_off_c, 1, 68, 0
3, 45397, Note_on_c, 1, 69, 96
3, 45739, Note_off_c, 1, 69, 0
3, 45739, Note_on_c, 1, 66, 96
3, 46421, Note_off_c, 1, 66, 0
3, 46421, Note_on_c, 1, 67, 96
3, 46763, Note_off_c, 1, 67, 0
3, 46763, Note_on_c, 1, 64, 96
3, 47445, Note_off_c, 1, 64, 0
3, 47445, Note_on_c, 1, 66, 96
3, 47787, Note_off_c, 1, 66, 0
3, 47787, Note_on_c, 1, 62, 96
3, 48640, Note_off_c, 1, 62, 0
3, 48640, Note_on_c, 1, 63, 96
3, 49152, Note_off_c, 1, 63, 0
3, 49152, Note_on_c, 1, 64, 96
3, 50176, Note_off_c, 1, 64, 0
3, 50176, Note_on_c, 1, 62, 96
3, 52736, Note_off_c, 1, 62, 0
3, 52736, Note_on_c, 1, 61, 96
3, 53248, Note_off_c, 1, 61, 0
3, 53419, Note_on_c, 1, 60, 96
3, 53589, Note_off_c, 1, 60, 0
3, 53589, Note_on_c, 1, 59, 96
3, 53760, Note_off_c, 1, 59, 0
3, 53760, Note_on_c, 1, 57, 96
3, 53931, Note_off_c, 1, 57, 0
3, 53931, Note_on_c, 1, 55, 96
3, 54101, Note_off_c, 1, 55, 0
3, 54101, Note_on_c, 1, 54, 96
3, 54272, Note_off_c, 1, 54, 0
3, 54272, Note_on_c, 1, 59, 96
3, 56491, Note_off_c, 1, 59, 0
3, 56491, Note_on_c, 1, 57, 96
3, 56661, Note_off_c, 1, 57, 0
3, 56661, Note_on_c, 1, 59, 96
3, 56832, Note_off_c, 1, 59, 0
3, 56832, Note_on_c, 1, 61, 96
3, 57003, Note_off_c, 1, 61, 0
3, 57003, Note_on_c, 1, 59, 96
3, 57173, Note_off_c, 1, 59, 0
3, 57173, Note_on_c, 1, 61, 96
3, 57344, Note_off_c, 1, 61, 0
3, 57344, Note_on_c, 1, 62, 96
3, 57515, Note_off_c, 1, 62, 0
3, 57515, Note_on_c, 1, 57, 96
3, 57685, Note_off_c, 1, 57, 0
3, 57685, Note_on_c, 1, 59, 96
3, 58197, Note_off_c, 1, 59, 0
3, 58197, Note_on_c, 1, 59, 96
3, 58368, Note_off_c, 1, 59, 0
3, 58368, Note_on_c, 1, 57, 96
3, 65536, Note_off_c, 1, 57, 0
3, 65536, End_track
4, 0, Start_track
4, 0, Title_t, "Instrument 3"
4, 0, Note_on_c, 2, 66, 96
4, 1024, Note_off_c, 2, 66, 0
4, 1024, Note_on_c, 2, 64, 96
4, 1536, Note_off_c, 2, 64, 0
4, 1536, Note_on_c, 2, 68, 96
4, 2048, Note_off_c, 2, 68, 0
4, 2219, Note_on_c, 2, 64, 96
4, 2389, Note_off_c, 2, 64, 0
4, 2389, Note_on_c, 2, 69, 96
4, 2560, Note_off_c, 2, 69, 0
4, 2560, Note_on_c, 2, 67, 96
4, 2731, Note_off_c, 2, 67, 0
4, 2731, Note_on_c, 2, 66, 96
4, 2901, Note_off_c, 2, 66, 0
4, 2901, Note_on_c, 2, 64, 96
4, 3072, Note_off_c, 2, 64, 0
4, 3072, Note_on_c, 2, 62, 96
4, 4096, Note_off_c, 2, 62, 0
4, 15360, Note_on_c, 2, 62, 96
4, 15531, Note_off_c, 2, 62, 0
4, 15531, Note_on_c, 2, 57, 96
4, 15701, Note_off_c, 2, 57, 0
4, 15701, Note_on_c, 2, 54, 96
4, 15872, Note_off_c, 2, 54, 0
4, 15872, Note_on_c, 2, 57, 96
4, 16043, Note_off_c, 2, 57, 0
4, 16043, Note_on_c, 2, 50, 96
4, 16213, Note_off_c, 2, 50, 0
4, 16213, Note_on_c, 2, 54, 96
4, 16384, Note_off_c, 2, 54, 0
4, 16384, Note_on_c, 2, 47, 96
4, 16555, Note_off_c, 2, 47, 0
4, 16555, Note_on_c, 2, 49, 96
4, 16725, Note_off_c, 2, 49, 0
4, 16725, Note_on_c, 2, 50, 96
4, 16896, Note_off_c, 2, 50, 0
4, 16896, Note_on_c, 2, 52, 96
4, 17067, Note_off_c, 2, 52, 0
4, 17067, Note_on_c, 2, 54, 96
4, 17237, Note_off_c, 2, 54, 0
4, 17237, Note_on_c, 2, 55, 96
4, 17408, Note_off_c, 2, 55, 0
4, 17408, Note_on_c, 2, 57, 96
4, 17579, Note_off_c, 2, 57, 0
4, 17579, Note_on_c, 2, 59, 96
4, 17749, Note_off_c, 2, 59, 0
4, 17749, Note_on_c, 2, 61, 96
4, 17920, Note_off_c, 2, 61, 0
4, 17920, Note_on_c, 2, 62, 96
4, 18091, Note_off_c, 2, 62, 0
4, 18091, Note_on_c, 2, 64, 96
4, 18261, Note_off_c, 2, 64, 0
4, 18261, Note_on_c, 2, 66, 96
4, 18432, Note_off_c, 2, 66, 0
4, 18432, Note_on_c, 2, 64, 96
4, 19456, Note_off_c, 2, 64, 0
4, 30720, Note_on_c, 2, 58, 96
4, 31232, Note_off_c, 2, 58, 0
4, 31232, Note_on_c, 2, 54, 96
4, 31403, Note_off_c, 2, 54, 0
4, 31403, Note_on_c, 2, 56, 96
4, 31573, Note_off_c, 2, 56, 0
4, 31573, Note_on_c, 2, 58, 96
4, 31744, Note_off_c, 2, 58, 0
4, 31744, Note_on_c, 2, 59, 96
4, 32768, Note_off_c, 2, 59, 0
4, 39936, Note_on_c, 2, 57, 96
4, 40107, Note_off_c, 2, 57, 0
4, 40107, Note_on_c, 2, 59, 96
4, 40277, Note_off_c, 2, 59, 0
4, 40277, Note_on_c, 2, 61, 96
4, 40448, Note_off_c, 2, 61, 0
4, 40448, Note_on_c, 2, 57, 96
4, 40619, Note_off_c, 2, 57, 0
4, 40619, Note_on_c, 2, 54, 96
4, 40789, Note_off_c, 2, 54, 0
4, 40789, Note_on_c, 2, 57, 96
4, 40960, Note_off_c, 2, 57, 0
4, 40960, Note_on_c, 2, 49, 96
4, 41131, Note_off_c, 2, 49, 0
4, 41131, Note_on_c, 2, 54, 96
4, 41301, Note_off_c, 2, 54, 0
4, 41301, Note_on_c, 2, 53, 96
4, 41472, Note_off_c, 2, 53, 0
4, 41472, Note_on_c, 2, 54, 96
4, 41643, Note_off_c, 2, 54, 0
4, 41643, Note_on_c, 2, 56, 96
4, 41813, Note_off_c, 2, 56, 0
4, 41813, Note_on_c, 2, 53, 96
4, 41984, Note_off_c, 2, 53, 0
4, 41984, Note_on_c, 2, 54, 96
4, 42155, Note_off_c, 2, 54, 0
4, 42155, Note_on_c, 2, 49, 96
4, 42325, Note_off_c, 2, 49, 0
4, 42325, Note_on_c, 2, 45, 96
4, 42496, Note_off_c, 2, 45, 0
4, 42496, Note_on_c, 2, 47, 96
4, 42667, Note_off_c, 2, 47, 0
4, 42667, Note_on_c, 2, 49, 96
4, 42837, Note_off_c, 2, 49, 0
4, 42837, Note_on_c, 2, 45, 96
4, 43008, Note_off_c, 2, 45, 0
4, 43008, Note_on_c, 2, 42, 96
4, 43179, Note_off_c, 2, 42, 0
4, 43179, Note_on_c, 2, 45, 96
4, 43349, Note_off_c, 2, 45, 0
4, 43349, Note_on_c, 2, 49, 96
4, 43520, Note_off_c, 2, 49, 0
4, 43520, Note_on_c, 2, 54, 96
4, 43691, Note_off_c, 2, 54, 0
4, 43691, Note_on_c, 2, 53, 96
4, 43861, Note_off_c, 2, 53, 0
4, 43861, Note_on_c, 2, 54, 96
4, 44032, Note_off_c, 2, 54, 0
4, 44032, Note_on_c, 2, 47, 96
4, 44203, Note_off_c, 2, 47, 0
4, 44203, Note_on_c, 2, 50, 96
4, 44373, Note_off_c, 2, 50, 0
4, 44373, Note_on_c, 2, 54, 96
4, 44544, Note_off_c, 2, 54, 0
4, 44544, Note_on_c, 2, 59, 96
4, 44715, Note_off_c, 2, 59, 0
4, 44715, Note_on_c, 2, 58, 96
4, 44885, Note_off_c, 2, 58, 0
4, 44885, Note_on_c, 2, 59, 96
4, 45056, Note_off_c, 2, 59, 0
4, 45056, Note_on_c, 2, 53, 96
4, 45227, Note_off_c, 2, 53, 0
4, 45227, Note_on_c, 2, 49, 96
4, 45397, Note_off_c, 2, 49, 0
4, 45397, Note_on_c, 2, 54, 96
4, 45568, Note_off_c, 2, 54, 0
4, 45568, Note_on_c, 2, 56, 96
4, 45739, Note_off_c, 2, 56, 0
4, 45739, Note_on_c, 2, 57, 96
4, 45909, Note_off_c, 2, 57, 0
4, 45909, Note_on_c, 2, 54, 96
4, 46080, Note_off_c, 2, 54, 0
4, 46080, Note_on_c, 2, 51, 96
4, 46251, Note_off_c, 2, 51, 0
4, 46251, Note_on_c, 2, 47, 96
4, 46421, Note_off_c, 2, 47, 0
4, 46421, Note_on_c, 2, 52, 96
4, 46592, Note_off_c, 2, 52, 0
4, 46592, Note_on_c, 2, 54, 96
4, 46763, Note_off_c, 2, 54, 0
4, 46763, Note_on_c, 2, 55, 96
4, 46933, Note_off_c, 2, 55, 0
4, 46933, Note_on_c, 2, 52, 96
4, 47104, Note_off_c, 2, 52, 0
4, 47104, Note_on_c, 2, 49, 96
4, 47275, Note_off_c, 2, 49, 0
4, 47275, Note_on_c, 2, 45, 96
4, 47445, Note_off_c, 2, 45, 0
4, 47445, Note_on_c, 2, 50, 96
4, 47616, Note_off_c, 2, 50, 0
4, 47616, Note_on_c, 2, 48, 96
4, 47787, Note_off_c, 2, 48, 0
4, 47787, Note_on_c, 2, 47, 96
4, 47957, Note_off_c, 2, 47, 0
4, 47957, Note_on_c, 2, 45, 96
4, 48128, Note_off_c, 2, 45, 0
4, 48128, Note_on_c, 2, 43, 96
4, 48299, Note_off_c, 2, 43, 0
4, 48299, Note_on_c, 2, 47, 96
4, 48469, Note_off_c, 2, 47, 0
4, 48469, Note_on_c, 2, 49, 96
4, 48640, Note_off_c, 2, 49, 0
4, 48640, Note_on_c, 2, 51, 96
4, 48811, Note_off_c, 2, 51, 0
4, 48811, Note_on_c, 2, 52, 96
4, 48981, Note_off_c, 2, 52, 0
4, 48981, Note_on_c, 2, 54, 96
4, 49152, Note_off_c, 2, 54, 0
4, 49152, Note_on_c, 2, 55, 96
4, 49323, Note_off_c, 2, 55, 0
4, 49323, Note_on_c, 2, 57, 96
4, 49493, Note_off_c, 2, 57, 0
4, 49493, Note_on_c, 2, 59, 96
4, 49664, Note_off_c, 2, 59, 0
4, 49664, Note_on_c, 2, 61, 96
4, 49835, Note_off_c, 2, 61, 0
4, 49835, Note_on_c, 2, 62, 96
4, 50005, Note_off_c, 2, 62, 0
4, 50005, Note_on_c, 2, 64, 96
4, 50176, Note_off_c, 2, 64, 0
4, 50347, Note_on_c, 2, 61, 96
4, 50517, Note_off_c, 2, 61, 0
4, 50517, Note_on_c, 2, 62, 96
4, 50688, Note_off_c, 2, 62, 0
4, 50688, Note_on_c, 2, 58, 96
4, 50859, Note_off_c, 2, 58, 0
4, 50859, Note_on_c, 2, 59, 96
4, 52224, Note_off_c, 2, 59, 0
4, 53248, Note_on_c, 2, 54, 96
4, 53760, Note_off_c, 2, 54, 0
4, 53760, Note_on_c, 2, 50, 96
4, 54272, Note_off_c, 2, 50, 0
4, 54272, Note_on_c, 2, 55, 96
4, 55467, Note_off_c, 2, 55, 0
4, 55467, Note_on_c, 2, 55, 96
4, 55637, Note_off_c, 2, 55, 0
4, 55637, Note_on_c, 2, 54, 96
4, 55808, Note_off_c, 2, 54, 0
4, 55808, Note_on_c, 2, 55, 96
4, 55979, Note_off_c, 2, 55, 0
4, 55979, Note_on_c, 2, 57, 96
4, 56149, Note_off_c, 2, 57, 0
4, 56149, Note_on_c, 2, 54, 96
4, 56320, Note_off_c, 2, 54, 0
4, 56320, Note_on_c, 2, 55, 96
4, 57856, Note_off_c, 2, 55, 0
4, 57856, Note_on_c, 2, 54, 96
4, 58027, Note_off_c, 2, 54, 0
4, 58027, Note_on_c, 2, 55, 96
4, 58880, Note_off_c, 2, 55, 0
4, 58880, Note_on_c, 2, 55, 96
4, 59392, Note_off_c, 2, 55, 0
4, 59392, Note_on_c, 2, 54, 96
4, 59904, Note_off_c, 2, 54, 0
4, 59904, Note_on_c, 2, 52, 96
4, 60672, Note_off_c, 2, 52, 0
4, 60672, Note_on_c, 2, 54, 96
4, 65536, Note_off_c, 2, 54, 0
4, 65536, End_track
5, 0, Start_track
5, 0, Title_t, "Instrument 4"
5, 341, Note_on_c, 3, 62, 96
5, 512, Note_off_c, 3, 62, 0
5, 512, Note_on_c, 3, 61, 96
5, 683, Note_off_c, 3, 61, 0
5, 683, Note_on_c, 3, 59, 96
5, 853, Note_off_c, 3, 59, 0
5, 853, Note_on_c, 3, 57, 96
5, 1024, Note_off_c, 3, 57, 0
5, 1024, Note_on_c, 3, 56, 96
5, 1195, Note_off_c, 3, 56, 0
5, 1195, Note_on_c, 3, 59, 96
5, 1365, Note_off_c, 3, 59, 0
5, 1365, Note_on_c, 3, 64, 96
5, 1536, Note_off_c, 3, 64, 0
5, 1536, Note_on_c, 3, 62, 96
5, 1707, Note_off_c, 3, 62, 0
5, 1707, Note_on_c, 3, 61, 96
5, 1877, Note_off_c, 3, 61, 0
5, 1877, Note_on_c, 3, 59, 96
5, 2048, Note_off_c, 3, 59, 0
5, 2048, Note_on_c, 3, 57, 96
5, 3072, Note_off_c, 3, 57, 0
5, 3243, Note_on_c, 3, 54, 96
5, 3413, Note_off_c, 3, 54, 0
5, 3413, Note_on_c, 3, 59, 96
5, 3584, Note_off_c, 3, 59, 0
5, 3584, Note_on_c, 3, 57, 96
5, 3755, Note_off_c, 3, 57, 0
5, 3755, Note_on_c, 3, 55, 96
5, 3925, Note_off_c, 3, 55, 0
5, 3925, Note_on_c, 3, 54, 96
5, 4096, Note_off_c, 3, 54, 0
5, 4096, Note_on_c, 3, 52, 96
5, 5120, Note_off_c, 3, 52, 0
5, 5120, Note_on_c, 3, 57, 96
5, 6144, Note_off_c, 3, 57, 0
5, 6144, Note_on_c, 3, 55, 96
5, 6656, Note_off_c, 3, 55, 0
5, 6656, Note_on_c, 3, 59, 96
5, 7168, Note_off_c, 3, 59, 0
5, 7168, Note_on_c, 3, 57, 96
5, 8192, Note_off_c, 3, 57, 0
5, 8363, Note_on_c, 3, 62, 96
5, 8533, Note_off_c, 3, 62, 0
5, 8533, Note_on_c, 3, 61, 96
5, 8704, Note_off_c, 3, 61, 0
5, 8704, Note_on_c, 3, 59, 96
5, 8875, Note_off_c, 3, 59, 0
5, 8875, Note_on_c, 3, 57, 96
5, 9045, Note_off_c, 3, 57, 0
5, 9045, Note_on_c, 3, 55, 96
5, 9216, Note_off_c, 3, 55, 0
5, 9216, Note_on_c, 3, 54, 96
5, 9387, Note_off_c, 3, 54, 0
5, 9387, Note_on_c, 3, 59, 96
5, 9557, Note_off_c, 3, 59, 0
5, 9557, Note_on_c, 3, 57, 96
5, 9728, Note_off_c, 3, 57, 0
5, 9728, Note_on_c, 3, 55, 96
5, 9899, Note_off_c, 3, 55, 0
5, 9899, Note_on_c, 3, 54, 96
5, 10069, Note_off_c, 3, 54, 0
5, 10069, Note_on_c, 3, 52, 96
5, 10240, Note_off_c, 3, 52, 0
5, 10240, Note_on_c, 3, 50, 96
5, 10411, Note_off_c, 3, 50, 0
5, 10411, Note_on_c, 3, 54, 96
5, 10581, Note_off_c, 3, 54, 0
5, 10581, Note_on_c, 3, 57, 96
5, 10752, Note_off_c, 3, 57, 0
5, 10752, Note_on_c, 3, 62, 96
5, 10923, Note_off_c, 3, 62, 0
5, 10923, Note_on_c, 3, 61, 96
5, 11093, Note_off_c, 3, 61, 0
5, 11093, Note_on_c, 3, 59, 96
5, 11264, Note_off_c, 3, 59, 0
5, 11264, Note_on_c, 3, 57, 96
5, 11435, Note_off_c, 3, 57, 0
5, 11435, Note_on_c, 3, 61, 96
5, 11605, Note_off_c, 3, 61, 0
5, 11605, Note_on_c, 3, 64, 96
5, 11776, Note_off_c, 3, 64, 0
5, 11776, Note_on_c, 3, 67, 96
5, 11947, Note_off_c, 3, 67, 0
5, 11947, Note_on_c, 3, 66, 96
5, 12117, Note_off_c, 3, 66, 0
5, 12117, Note_on_c, 3, 64, 96
5, 12288, Note_off_c, 3, 64, 0
5, 18432, Note_on_c, 3, 57, 96
5, 19968, Note_off_c, 3, 57, 0
5, 20480, Note_on_c, 3, 54, 96
5, 20992, Note_off_c, 3, 54, 0
5, 20992, Note_on_c, 3, 59, 96
5, 21504, Note_off_c, 3, 59, 0
5, 21504, Note_on_c, 3, 59, 96
5, 22528, Note_off_c, 3, 59, 0
5, 22699, Note_on_c, 3, 55, 96
5, 22869, Note_off_c, 3, 55, 0
5, 22869, Note_on_c, 3, 54, 96
5, 23040, Note_off_c, 3, 54, 0
5, 23040, Note_on_c, 3, 52, 96
5, 23211, Note_off_c, 3, 52, 0
5, 23211, Note_on_c, 3, 50, 96
5, 23381, Note_off_c, 3, 50, 0
5, 23381, Note_on_c, 3, 49, 96
5, 23552, Note_off_c, 3, 49, 0
5, 23552, Note_on_c, 3, 47, 96
5, 23723, Note_off_c, 3, 47, 0
5, 23723, Note_on_c, 3, 50, 96
5, 23893, Note_off_c, 3, 50, 0
5, 23893, Note_on_c, 3, 54, 96
5, 24064, Note_off_c, 3, 54, 0
5, 24064, Note_on_c, 3, 59, 96
5, 24235, Note_off_c, 3, 59, 0
5, 24235, Note_on_c, 3, 58, 96
5, 24405, Note_off_c, 3, 58, 0
5, 24405, Note_on_c, 3, 59, 96
5, 24747, Note_off_c, 3, 59, 0
5, 24747, Note_on_c, 3, 59, 96
5, 24917, Note_off_c, 3, 59, 0
5, 24917, Note_on_c, 3, 58, 96
5, 25088, Note_off_c, 3, 58, 0
5, 25088, Note_on_c, 3, 56, 96
5, 25259, Note_off_c, 3, 56, 0
5, 25259, Note_on_c, 3, 58, 96
5, 25600, Note_off_c, 3, 58, 0
5, 25600, Note_on_c, 3, 56, 96
5, 26112, Note_off_c, 3, 56, 0
5, 26112, Note_on_c, 3, 56, 96
5, 26283, Note_off_c, 3, 56, 0
5, 26283, Note_on_c, 3, 58, 96
5, 26624, Note_off_c, 3, 58, 0
5, 26624, Note_on_c, 3, 59, 96
5, 27136, Note_off_c, 3, 59, 0
5, 27136, Note_on_c, 3, 59, 96
5, 27307, Note_off_c, 3, 59, 0
5, 27307, Note_on_c, 3, 61, 96
5, 27648, Note_off_c, 3, 61, 0
5, 27648, Note_on_c, 3, 62, 96
5, 28160, Note_off_c, 3, 62, 0
5, 28160, Note_on_c, 3, 62, 96
5, 28331, Note_off_c, 3, 62, 0
5, 28331, Note_on_c, 3, 64, 96
5, 28672, Note_off_c, 3, 64, 0
5, 28672, Note_on_c, 3, 66, 96
5, 29184, Note_off_c, 3, 66, 0
5, 29184, Note_on_c, 3, 64, 96
5, 29355, Note_off_c, 3, 64, 0
5, 29355, Note_on_c, 3, 62, 96
5, 30208, Note_off_c, 3, 62, 0
5, 30208, Note_on_c, 3, 62, 96
5, 30379, Note_off_c, 3, 62, 0
5, 30379, Note_on_c, 3, 61, 96
5, 30549, Note_off_c, 3, 61, 0
5, 30549, Note_on_c, 3, 59, 96
5, 30720, Note_off_c, 3, 59, 0
5, 31915, Note_on_c, 3, 47, 96
5, 32085, Note_off_c, 3, 47, 0
5, 32085, Note_on_c, 3, 49, 96
5, 32256, Note_off_c, 3, 49, 0
5, 32256, Note_on_c, 3, 50, 96
5, 32427, Note_off_c, 3, 50, 0
5, 32427, Note_on_c, 3, 52, 96
5, 32597, Note_off_c, 3, 52, 0
5, 32597, Note_on_c, 3, 54, 96
5, 32768, Note_off_c, 3, 54, 0
5, 32768, Note_on_c, 3, 55, 96
5, 32939, Note_off_c, 3, 55, 0
5, 32939, Note_on_c, 3, 59, 96
5, 33109, Note_off_c, 3, 59, 0
5, 33109, Note_on_c, 3, 62, 96
5, 33280, Note_off_c, 3, 62, 0
5, 33280, Note_on_c, 3, 67, 96
5, 33451, Note_off_c, 3, 67, 0
5, 33451, Note_on_c, 3, 66, 96
5, 33621, Note_off_c, 3, 66, 0
5, 33621, Note_on_c, 3, 67, 96
5, 33792, Note_off_c, 3, 67, 0
5, 33792, Note_on_c, 3, 55, 96
5, 33963, Note_off_c, 3, 55, 0
5, 33963, Note_on_c, 3, 59, 96
5, 34133, Note_off_c, 3, 59, 0
5, 34133, Note_on_c, 3, 62, 96
5, 34304, Note_off_c, 3, 62, 0
5, 34304, Note_on_c, 3, 67, 96
5, 34475, Note_off_c, 3, 67, 0
5, 34475, Note_on_c, 3, 66, 96
5, 34645, Note_off_c, 3, 66, 0
5, 34645, Note_on_c, 3, 67, 96
5, 34816, Note_off_c, 3, 67, 0
5, 34816, Note_on_c, 3, 54, 96
5, 34987, Note_off_c, 3, 54, 0
5, 34987, Note_on_c, 3, 57, 96
5, 35157, Note_off_c, 3, 57, 0
5, 35157, Note_on_c, 3, 62, 96
5, 35328, Note_off_c, 3, 62, 0
5, 35328, Note_on_c, 3, 66, 96
5, 35499, Note_off_c, 3, 66, 0
5, 35499, Note_on_c, 3, 64, 96
5, 35669, Note_off_c, 3, 64, 0
5, 35669, Note_on_c, 3, 62, 96
5, 35840, Note_off_c, 3, 62, 0
5, 35840, Note_on_c, 3, 61, 96
5, 36864, Note_off_c, 3, 61, 0
5, 36864, Note_on_c, 3, 59, 96
5, 37376, Note_off_c, 3, 59, 0
5, 37376, Note_on_c, 3, 57, 96
5, 37888, Note_off_c, 3, 57, 0
5, 37888, Note_on_c, 3, 56, 96
5, 38912, Note_off_c, 3, 56, 0
5, 38912, Note_on_c, 3, 54, 96
5, 39936, Note_off_c, 3, 54, 0
5, 50944, Note_on_c, 3, 54, 96
5, 51200, Note_off_c, 3, 54, 0
5, 51200, Note_on_c, 3, 55, 96
5, 52224, Note_off_c, 3, 55, 0
5, 52224, Note_on_c, 3, 57, 96
5, 52736, Note_off_c, 3, 57, 0
5, 52736, Note_on_c, 3, 55, 96
5, 53248, Note_off_c, 3, 55, 0
5, 54443, Note_on_c, 3, 50, 96
5, 54613, Note_off_c, 3, 50, 0
5, 54613, Note_on_c, 3, 48, 96
5, 54784, Note_off_c, 3, 48, 0
5, 54784, Note_on_c, 3, 47, 96
5, 54955, Note_off_c, 3, 47, 0
5, 54955, Note_on_c, 3, 45, 96
5, 55125, Note_off_c, 3, 45, 0
5, 55125, Note_on_c, 3, 43, 96
5, 55296, Note_off_c, 3, 43, 0
5, 55296, Note_on_c, 3, 50, 96
5, 57344, Note_off_c, 3, 50, 0
5, 58027, Note_on_c, 3, 55, 96
5, 58197, Note_off_c, 3, 55, 0
5, 58197, Note_on_c, 3, 49, 96
5, 58368, Note_off_c, 3, 49, 0
5, 58368, Note_on_c, 3, 50, 96
5, 65536, Note_off_c, 3, 50, 0
5, 65536, End_track
6, 0, Start_track
6, 0, Title_t, "Instrument 5"
6, 0, Note_on_c, 4, 50, 96
6, 1024, Note_off_c, 4, 50, 0
6, 1024, Note_on_c, 4, 52, 96
6, 2048, Note_off_c, 4, 52, 0
6, 2048, Note_on_c, 4, 45, 96
6, 3584, Note_off_c, 4, 45, 0
6, 3584, Note_on_c, 4, 43, 96
6, 5120, Note_off_c, 4, 43, 0
6, 5120, Note_on_c, 4, 42, 96
6, 6144, Note_off_c, 4, 42, 0
6, 6144, Note_on_c, 4, 43, 96
6, 7168, Note_off_c, 4, 43, 0
6, 7168, Note_on_c, 4, 45, 96
6, 8192, Note_off_c, 4, 45, 0
6, 8192, Note_on_c, 4, 38, 96
6, 10240, Note_off_c, 4, 38, 0
6, 15872, Note_on_c, 4, 50, 96
6, 16384, Note_off_c, 4, 50, 0
6, 16384, Note_on_c, 4, 47, 96
6, 17408, Note_off_c, 4, 47, 0
6, 17408, Note_on_c, 4, 42, 96
6, 18432, Note_off_c, 4, 42, 0
6, 18432, Note_on_c, 4, 49, 96
6, 19456, Note_off_c, 4, 49, 0
6, 19456, Note_on_c, 4, 50, 96
6, 20480, Note_off_c, 4, 50, 0
6, 20480, Note_on_c, 4, 51, 96
6, 21504, Note_off_c, 4, 51, 0
6, 21504, Note_on_c, 4, 52, 96
6, 23552, Note_off_c, 4, 52, 0
6, 23552, Note_on_c, 4, 50, 96
6, 24064, Note_off_c, 4, 50, 0
6, 24064, Note_on_c, 4, 47, 96
6, 24576, Note_off_c, 4, 47, 0
6, 24576, Note_on_c, 4, 42, 96
6, 25600, Note_off_c, 4, 42, 0
6, 31744, Note_on_c, 4, 47, 96
6, 32256, Note_off_c, 4, 47, 0
6, 32256, Note_on_c, 4, 45, 96
6, 32768, Note_off_c, 4, 45, 0
6, 32768, Note_on_c, 4, 43, 96
6, 33280, Note_off_c, 4, 43, 0
6, 33280, Note_on_c, 4, 45, 96
6, 33792, Note_off_c, 4, 45, 0
6, 33792, Note_on_c, 4, 47, 96
6, 34304, Note_off_c, 4, 47, 0
6, 34304, Note_on_c, 4, 49, 96
6, 34816, Note_off_c, 4, 49, 0
6, 34816, Note_on_c, 4, 50, 96
6, 35840, Note_off_c, 4, 50, 0
6, 35840, Note_on_c, 4, 46, 96
6, 36864, Note_off_c, 4, 46, 0
6, 36864, Note_on_c, 4, 47, 96
6, 37888, Note_off_c, 4, 47, 0
6, 37888, Note_on_c, 4, 49, 96
6, 38912, Note_off_c, 4, 49, 0
6, 38912, Note_on_c, 4, 42, 96
6, 39936, Note_off_c, 4, 42, 0
6, 44032, Note_on_c, 4, 47, 96
6, 45568, Note_off_c, 4, 47, 0
6, 45568, Note_on_c, 4, 45, 96
6, 46592, Note_off_c, 4, 45, 0
6, 46592, Note_on_c, 4, 43, 96
6, 47616, Note_off_c, 4, 43, 0
6, 47616, Note_on_c, 4, 42, 96
6, 48128, Note_off_c, 4, 42, 0
6, 48128, Note_on_c, 4, 43, 96
6, 48640, Note_off_c, 4, 43, 0
6, 48640, Note_on_c, 4, 42, 96
6, 49152, Note_off_c, 4, 42, 0
6, 49152, Note_on_c, 4, 40, 96
6, 50176, Note_off_c, 4, 40, 0
6, 50176, Note_on_c, 4, 47, 96
6, 51200, Note_off_c, 4, 47, 0
6, 51200, Note_on_c, 4, 43, 96
6, 52224, Note_off_c, 4, 43, 0
6, 52224, Note_on_c, 4, 45, 96
6, 53248, Note_off_c, 4, 45, 0
6, 53248, Note_on_c, 4, 47, 96
6, 54784, Note_off_c, 4, 47, 0
6, 54784, Note_on_c, 4, 43, 96
6, 55296, Note_off_c, 4, 43, 0
6, 55296, Note_on_c, 4, 38, 96
6, 65536, Note_off_c, 4, 38, 0
6, 65536, End_track
0, 0, End_of_file
