0, 0, Header, 1, 4, 384
1, 0, Start_track
1, 0, Tempo, 1304340
1, 0, Time_signature, 4, 2, 24, 8
1, 26112, Tempo, 1500000
1, 26112, Time_signature, 6, 3, 24, 8
1, 27072, Tempo, 909090
1, 86016, Tempo, 1000000
1, 87168, End_track
2, 0, Start_track
2, 0, Title_t, "Track 1"
2, 0, Program_c, 0, 19
2, 0, Note_on_c, 0, 64, 92
2, 0, Note_on_c, 0, 69, 92
2, 0, Note_on_c, 0, 72, 92
2, 384, Note_off_c, 0, 72, 64
2, 384, Note_off_c, 0, 69, 64
2, 384, Note_off_c, 0, 64, 64
2, 864, Note_on_c, 0, 60, 92
2, 960, Note_off_c, 0, 60, 64
2, 960, Note_on_c, 0, 62, 92
2, 1056, Note_off_c, 0, 62, 64
2, 1056, Note_on_c, 0, 64, 92
2, 1152, Note_off_c, 0, 64, 64
2, 1152, Note_on_c, 0, 65, 92
2, 1248, Note_off_c, 0, 65, 64
2, 1248, Note_on_c, 0, 62, 92
2, 1344, Note_off_c, 0, 62, 64
2, 1344, Note_on_c, 0, 60, 92
2, 1440, Note_off_c, 0, 60, 64
2, 1440, Note_on_c, 0, 59, 92
2, 1536, Note_off_c, 0, 59, 64
2, 1536, Note_on_c, 0, 60, 92
2, 1728, Note_off_c, 0, 60, 64
2, 1728, Note_on_c, 0, 62, 92
2, 1920, Note_off_c, 0, 62, 64
2, 1920, Note_on_c, 0, 64, 92
2, 2112, Note_off_c, 0, 64, 64
2, 2112, Note_on_c, 0, 62, 92
2, 2304, Note_off_c, 0, 62, 64
2, 2352, Note_on_c, 0, 60, 92
2, 2400, Note_off_c, 0, 60, 64
2, 2400, Note_on_c, 0, 69, 92
2, 2448, Note_off_c, 0, 69, 64
2, 2448, Note_on_c, 0, 60, 92
2, 2496, Note_off_c, 0, 60, 64
2, 2544, Note_on_c, 0, 60, 92
2, 2592, Note_off_c, 0, 60, 64
2, 2592, Note_on_c, 0, 69, 92
2, 2640, Note_off_c, 0, 69, 64
2, 2640, Note_on_c, 0, 60, 92
2, 2688, Note_off_c, 0, 60, 64
2, 2736, Note_on_c, 0, 60, 92
2, 2784, Note_off_c, 0, 60, 64
2, 2784, Note_on_c, 0, 69, 92
2, 2832, Note_off_c, 0, 69, 64
2, 2832, Note_on_c, 0, 60, 92
2, 2880, Note_off_c, 0, 60, 64
2, 2928, Note_on_c, 0, 60, 92
2, 2976, Note_off_c, 0, 60, 64
2, 2976, Note_on_c, 0, 69, 92
2, 3024, Note_off_c, 0, 69, 64
2, 3024, Note_on_c, 0, 60, 92
2, 3072, Note_off_c, 0, 60, 64
2, 3120, Note_on_c, 0, 59, 92
2, 3168, Note_off_c, 0, 59, 64
2, 3168, Note_on_c, 0, 69, 92
2, 3216, Note_off_c, 0, 69, 64
2, 3216, Note_on_c, 0, 59, 92
2, 3264, Note_off_c, 0, 59, 64
2, 3312, Note_on_c, 0, 59, 92
2, 3360, Note_off_c, 0, 59, 64
2, 3360, Note_on_c, 0, 69, 92
2, 3408, Note_off_c, 0, 69, 64
2, 3408, Note_on_c, 0, 59, 92
2, 3456, Note_off_c, 0, 59, 64
2, 3504, Note_on_c, 0, 59, 92
2, 3552, Note_off_c, 0, 59, 64
2, 3552, Note_on_c, 0, 68, 92
2, 3600, Note_off_c, 0, 68, 64
2, 3600, Note_on_c, 0, 59, 92
2, 3648, Note_off_c, 0, 59, 64
2, 3696, Note_on_c, 0, 59, 92
2, 3744, Note_off_c, 0, 59, 64
2, 3744, Note_on_c, 0, 68, 92
2, 3792, Note_off_c, 0, 68, 64
2, 3792, Note_on_c, 0, 59, 92
2, 3840, Note_off_c, 0, 59, 64
2, 3888, Note_on_c, 0, 61, 92
2, 3936, Note_off_c, 0, 61, 64
2, 3984, Note_on_c, 0, 62, 92
2, 4032, Note_off_c, 0, 62, 64
2, 4032, Note_on_c, 0, 61, 92
2, 4080, Note_off_c, 0, 61, 64
2, 4080, Note_on_c, 0, 64, 92
2, 4128, Note_off_c, 0, 64, 64
2, 4128, Note_on_c, 0, 62, 92
2, 4176, Note_off_c, 0, 62, 64
2, 4176, Note_on_c, 0, 65, 92
2, 4224, Note_off_c, 0, 65, 64
2, 4224, Note_on_c, 0, 64, 92
2, 4272, Note_off_c, 0, 64, 64
2, 4272, Note_on_c, 0, 67, 92
2, 4320, Note_off_c, 0, 67, 64
2, 4320, Note_on_c, 0, 62, 92
2, 4368, Note_off_c, 0, 62, 64
2, 4368, Note_on_c, 0, 65, 92
2, 4416, Note_off_c, 0, 65, 64
2, 4416, Note_on_c, 0, 61, 92
2, 4464, Note_off_c, 0, 61, 64
2, 4464, Note_on_c, 0, 64, 92
2, 4512, Note_off_c, 0, 64, 64
2, 4560, Note_on_c, 0, 62, 92
2, 4608, Note_off_c, 0, 62, 64
2, 4608, Note_on_c, 0, 61, 92
2, 4656, Note_off_c, 0, 61, 64
2, 4656, Note_on_c, 0, 69, 92
2, 4704, Note_off_c, 0, 69, 64
2, 4704, Note_on_c, 0, 64, 92
2, 4752, Note_off_c, 0, 64, 64
2, 4752, Note_on_c, 0, 69, 92
2, 4800, Note_off_c, 0, 69, 64
2, 4800, Note_on_c, 0, 61, 92
2, 4848, Note_off_c, 0, 61, 64
2, 4848, Note_on_c, 0, 69, 92
2, 4896, Note_off_c, 0, 69, 64
2, 4896, Note_on_c, 0, 64, 92
2, 4944, Note_off_c, 0, 64, 64
2, 4944, Note_on_c, 0, 69, 92
2, 4992, Note_off_c, 0, 69, 64
2, 4992, Note_on_c, 0, 61, 92
2, 5040, Note_off_c, 0, 61, 64
2, 5040, Note_on_c, 0, 69, 92
2, 5088, Note_off_c, 0, 69, 64
2, 5088, Note_on_c, 0, 64, 92
2, 5136, Note_off_c, 0, 64, 64
2, 5136, Note_on_c, 0, 69, 92
2, 5184, Note_off_c, 0, 69, 64
2, 5184, Note_on_c, 0, 61, 92
2, 5232, Note_off_c, 0, 61, 64
2, 5232, Note_on_c, 0, 69, 92
2, 5280, Note_off_c, 0, 69, 64
2, 5280, Note_on_c, 0, 64, 92
2, 5328, Note_off_c, 0, 64, 64
2, 5328, Note_on_c, 0, 69, 92
2, 5376, Note_off_c, 0, 69, 64
2, 5376, Note_on_c, 0, 65, 92
2, 5376, Note_on_c, 0, 62, 92
2, 5568, Note_off_c, 0, 62, 64
2, 5568, Note_on_c, 0, 62, 92
2, 5664, Note_off_c, 0, 62, 64
2, 5664, Note_on_c, 0, 60, 92
2, 5760, Note_off_c, 0, 60, 64
2, 5760, Note_off_c, 0, 65, 64
2, 6288, Note_on_c, 0, 60, 92
2, 6336, Note_off_c, 0, 60, 64
2, 6384, Note_on_c, 0, 62, 92
2, 6432, Note_off_c, 0, 62, 64
2, 6432, Note_on_c, 0, 60, 92
2, 6480, Note_off_c, 0, 60, 64
2, 6480, Note_on_c, 0, 64, 92
2, 6528, Note_off_c, 0, 64, 64
2, 6528, Note_on_c, 0, 62, 92
2, 6576, Note_off_c, 0, 62, 64
2, 6576, Note_on_c, 0, 65, 92
2, 6624, Note_off_c, 0, 65, 64
2, 6624, Note_on_c, 0, 60, 92
2, 6672, Note_off_c, 0, 60, 64
2, 6672, Note_on_c, 0, 64, 92
2, 6720, Note_off_c, 0, 64, 64
2, 6768, Note_on_c, 0, 62, 92
2, 6816, Note_off_c, 0, 62, 64
2, 6864, Note_on_c, 0, 60, 92
2, 6912, Note_off_c, 0, 60, 64
2, 6912, Note_on_c, 0, 59, 92
2, 6960, Note_off_c, 0, 59, 64
2, 6960, Note_on_c, 0, 67, 92
2, 7008, Note_off_c, 0, 67, 64
2, 7008, Note_on_c, 0, 62, 92
2, 7056, Note_off_c, 0, 62, 64
2, 7056, Note_on_c, 0, 67, 92
2, 7104, Note_off_c, 0, 67, 64
2, 7104, Note_on_c, 0, 59, 92
2, 7152, Note_off_c, 0, 59, 64
2, 7152, Note_on_c, 0, 67, 92
2, 7200, Note_off_c, 0, 67, 64
2, 7200, Note_on_c, 0, 62, 92
2, 7248, Note_off_c, 0, 62, 64
2, 7248, Note_on_c, 0, 67, 92
2, 7296, Note_off_c, 0, 67, 64
2, 7296, Note_on_c, 0, 59, 92
2, 7344, Note_off_c, 0, 59, 64
2, 7344, Note_on_c, 0, 67, 92
2, 7392, Note_off_c, 0, 67, 64
2, 7392, Note_on_c, 0, 62, 92
2, 7440, Note_off_c, 0, 62, 64
2, 7440, Note_on_c, 0, 67, 92
2, 7488, Note_off_c, 0, 67, 64
2, 7488, Note_on_c, 0, 59, 92
2, 7536, Note_off_c, 0, 59, 64
2, 7536, Note_on_c, 0, 67, 92
2, 7584, Note_off_c, 0, 67, 64
2, 7584, Note_on_c, 0, 62, 92
2, 7632, Note_off_c, 0, 62, 64
2, 7632, Note_on_c, 0, 67, 92
2, 7680, Note_off_c, 0, 67, 64
2, 7680, Note_on_c, 0, 64, 92
2, 7776, Note_off_c, 0, 64, 64
2, 7776, Note_on_c, 0, 60, 92
2, 7872, Note_off_c, 0, 60, 64
2, 7872, Note_on_c, 0, 64, 92
2, 7968, Note_off_c, 0, 64, 64
2, 7968, Note_on_c, 0, 67, 92
2, 8064, Note_off_c, 0, 67, 64
2, 8064, Note_on_c, 0, 72, 92
2, 8160, Note_on_c, 0, 64, 92
2, 8256, Note_off_c, 0, 64, 64
2, 8256, Note_on_c, 0, 67, 92
2, 8352, Note_off_c, 0, 67, 64
2, 8352, Note_on_c, 0, 64, 92
2, 8448, Note_off_c, 0, 64, 64
2, 8448, Note_off_c, 0, 72, 64
2, 8448, Note_on_c, 0, 69, 92
2, 8544, Note_off_c, 0, 69, 64
2, 8544, Note_on_c, 0, 69, 92
2, 8640, Note_on_c, 0, 72, 92
2, 8736, Note_off_c, 0, 72, 64
2, 8736, Note_off_c, 0, 69, 64
2, 8736, Note_on_c, 0, 69, 92
2, 8832, Note_off_c, 0, 69, 64
2, 8832, Note_on_c, 0, 74, 92
2, 8928, Note_on_c, 0, 66, 92
2, 9024, Note_off_c, 0, 66, 64
2, 9024, Note_on_c, 0, 69, 92
2, 9120, Note_off_c, 0, 69, 64
2, 9120, Note_on_c, 0, 66, 92
2, 9216, Note_off_c, 0, 66, 64
2, 9216, Note_off_c, 0, 74, 64
2, 9216, Note_on_c, 0, 71, 92
2, 9312, Note_off_c, 0, 71, 64
2, 9312, Note_on_c, 0, 71, 92
2, 9408, Note_on_c, 0, 74, 92
2, 9504, Note_off_c, 0, 74, 64
2, 9504, Note_off_c, 0, 71, 64
2, 9504, Note_on_c, 0, 71, 92
2, 9600, Note_off_c, 0, 71, 64
2, 9600, Note_on_c, 0, 76, 92
2, 9696, Note_on_c, 0, 68, 92
2, 9792, Note_off_c, 0, 68, 64
2, 9792, Note_on_c, 0, 71, 92
2, 9888, Note_off_c, 0, 71, 64
2, 9888, Note_on_c, 0, 68, 92
2, 9984, Note_off_c, 0, 68, 64
2, 9984, Note_off_c, 0, 76, 64
2, 9984, Note_on_c, 0, 72, 92
2, 10176, Note_off_c, 0, 72, 64
2, 10176, Note_on_c, 0, 76, 92
2, 10176, Note_on_c, 0, 71, 92
2, 10368, Note_off_c, 0, 71, 64
2, 10368, Note_on_c, 0, 69, 92
2, 10560, Note_off_c, 0, 76, 64
2, 10560, Note_on_c, 0, 74, 92
2, 10752, Note_off_c, 0, 74, 64
2, 10752, Note_on_c, 0, 76, 92
2, 10848, Note_off_c, 0, 69, 64
2, 10848, Note_on_c, 0, 69, 92
2, 10944, Note_off_c, 0, 69, 64
2, 10944, Note_on_c, 0, 68, 92
2, 11040, Note_off_c, 0, 68, 64
2, 11040, Note_on_c, 0, 66, 92
2, 11136, Note_off_c, 0, 66, 64
2, 11136, Note_on_c, 0, 67, 92
2, 11232, Note_off_c, 0, 76, 64
2, 11232, Note_on_c, 0, 74, 92
2, 11328, Note_off_c, 0, 74, 64
2, 11328, Note_on_c, 0, 72, 92
2, 11424, Note_off_c, 0, 72, 64
2, 11424, Note_on_c, 0, 71, 92
2, 11520, Note_off_c, 0, 71, 64
2, 11520, Note_off_c, 0, 67, 64
2, 11520, Note_on_c, 0, 72, 92
2, 11616, Note_on_c, 0, 64, 92
2, 11712, Note_off_c, 0, 64, 64
2, 11712, Note_on_c, 0, 69, 92
2, 11808, Note_off_c, 0, 69, 64
2, 11808, Note_on_c, 0, 67, 92
2, 11904, Note_off_c, 0, 67, 64
2, 11904, Note_off_c, 0, 72, 64
2, 11904, Note_on_c, 0, 66, 92
2, 12000, Note_off_c, 0, 66, 64
2, 12000, Note_on_c, 0, 67, 92
2, 12096, Note_off_c, 0, 67, 64
2, 12096, Note_on_c, 0, 66, 92
2, 12192, Note_off_c, 0, 66, 64
2, 12192, Note_on_c, 0, 64, 92
2, 12288, Note_off_c, 0, 64, 64
2, 12288, Note_on_c, 0, 63, 92
2, 12336, Note_off_c, 0, 63, 64
2, 12336, Note_on_c, 0, 71, 92
2, 12384, Note_off_c, 0, 71, 64
2, 12384, Note_on_c, 0, 66, 92
2, 12432, Note_off_c, 0, 66, 64
2, 12432, Note_on_c, 0, 71, 92
2, 12480, Note_off_c, 0, 71, 64
2, 12480, Note_on_c, 0, 63, 92
2, 12528, Note_off_c, 0, 63, 64
2, 12528, Note_on_c, 0, 71, 92
2, 12576, Note_off_c, 0, 71, 64
2, 12576, Note_on_c, 0, 66, 92
2, 12624, Note_off_c, 0, 66, 64
2, 12624, Note_on_c, 0, 71, 92
2, 12672, Note_off_c, 0, 71, 64
2, 12672, Note_on_c, 0, 64, 92
2, 12720, Note_off_c, 0, 64, 64
2, 12720, Note_on_c, 0, 71, 92
2, 12768, Note_off_c, 0, 71, 64
2, 12768, Note_on_c, 0, 67, 92
2, 12816, Note_off_c, 0, 67, 64
2, 12816, Note_on_c, 0, 71, 92
2, 12864, Note_off_c, 0, 71, 64
2, 12864, Note_on_c, 0, 64, 92
2, 12912, Note_off_c, 0, 64, 64
2, 12912, Note_on_c, 0, 71, 92
2, 12960, Note_off_c, 0, 71, 64
2, 12960, Note_on_c, 0, 67, 92
2, 13008, Note_off_c, 0, 67, 64
2, 13008, Note_on_c, 0, 71, 92
2, 13056, Note_off_c, 0, 71, 64
2, 13056, Note_on_c, 0, 63, 92
2, 13104, Note_off_c, 0, 63, 64
2, 13104, Note_on_c, 0, 69, 92
2, 13152, Note_off_c, 0, 69, 64
2, 13152, Note_on_c, 0, 66, 92
2, 13200, Note_off_c, 0, 66, 64
2, 13200, Note_on_c, 0, 69, 92
2, 13248, Note_off_c, 0, 69, 64
2, 13248, Note_on_c, 0, 63, 92
2, 13296, Note_off_c, 0, 63, 64
2, 13296, Note_on_c, 0, 69, 92
2, 13344, Note_off_c, 0, 69, 64
2, 13344, Note_on_c, 0, 66, 92
2, 13392, Note_off_c, 0, 66, 64
2, 13392, Note_on_c, 0, 69, 92
2, 13440, Note_off_c, 0, 69, 64
2, 13440, Note_on_c, 0, 59, 92
2, 13488, Note_off_c, 0, 59, 64
2, 13488, Note_on_c, 0, 67, 92
2, 13536, Note_off_c, 0, 67, 64
2, 13536, Note_on_c, 0, 64, 92
2, 13584, Note_off_c, 0, 64, 64
2, 13584, Note_on_c, 0, 67, 92
2, 13632, Note_off_c, 0, 67, 64
2, 13632, Note_on_c, 0, 59, 92
2, 13680, Note_off_c, 0, 59, 64
2, 13680, Note_on_c, 0, 67, 92
2, 13728, Note_off_c, 0, 67, 64
2, 13728, Note_on_c, 0, 64, 92
2, 13776, Note_off_c, 0, 64, 64
2, 13776, Note_on_c, 0, 67, 92
2, 13824, Note_off_c, 0, 67, 64
2, 13824, Note_on_c, 0, 66, 92
2, 14016, Note_on_c, 0, 71, 92
2, 14208, Note_off_c, 0, 71, 64
2, 14208, Note_off_c, 0, 66, 64
2, 14208, Note_on_c, 0, 64, 92
2, 14208, Note_on_c, 0, 67, 92
2, 14400, Note_off_c, 0, 67, 64
2, 14400, Note_on_c, 0, 71, 92
2, 14592, Note_off_c, 0, 71, 64
2, 14592, Note_off_c, 0, 64, 64
2, 14592, Note_on_c, 0, 66, 92
2, 14592, Note_on_c, 0, 69, 92
2, 14688, Note_off_c, 0, 69, 64
2, 14688, Note_on_c, 0, 71, 92
2, 14784, Note_off_c, 0, 71, 64
2, 14784, Note_off_c, 0, 66, 64
2, 14784, Note_on_c, 0, 64, 92
2, 14784, Note_on_c, 0, 67, 92
2, 14880, Note_off_c, 0, 67, 64
2, 14880, Note_on_c, 0, 69, 92
2, 14976, Note_off_c, 0, 69, 64
2, 14976, Note_off_c, 0, 64, 64
2, 14976, Note_on_c, 0, 67, 92
2, 14976, Note_on_c, 0, 63, 92
2, 15024, Note_off_c, 0, 67, 64
2, 15024, Note_on_c, 0, 66, 92
2, 15072, Note_off_c, 0, 66, 64
2, 15072, Note_on_c, 0, 67, 92
2, 15120, Note_off_c, 0, 67, 64
2, 15120, Note_on_c, 0, 66, 92
2, 15168, Note_off_c, 0, 66, 64
2, 15168, Note_on_c, 0, 67, 92
2, 15216, Note_off_c, 0, 67, 64
2, 15216, Note_on_c, 0, 66, 92
2, 15264, Note_off_c, 0, 66, 64
2, 15264, Note_on_c, 0, 64, 92
2, 15360, Note_off_c, 0, 64, 64
2, 15360, Note_off_c, 0, 63, 64
2, 15360, Note_on_c, 0, 64, 92
2, 15744, Note_off_c, 0, 64, 64
2, 15936, Note_on_c, 0, 67, 92
2, 16128, Note_off_c, 0, 67, 64
2, 16128, Note_on_c, 0, 64, 92
2, 16128, Note_on_c, 0, 67, 92
2, 16176, Note_off_c, 0, 67, 64
2, 16176, Note_off_c, 0, 64, 64
2, 16176, Note_on_c, 0, 62, 92
2, 16176, Note_on_c, 0, 65, 92
2, 16224, Note_off_c, 0, 65, 64
2, 16224, Note_off_c, 0, 62, 64
2, 16224, Note_on_c, 0, 60, 92
2, 16224, Note_on_c, 0, 64, 92
2, 16272, Note_off_c, 0, 64, 64
2, 16272, Note_off_c, 0, 60, 64
2, 16272, Note_on_c, 0, 62, 92
2, 16272, Note_on_c, 0, 65, 92
2, 16320, Note_off_c, 0, 65, 64
2, 16320, Note_off_c, 0, 62, 64
2, 16320, Note_on_c, 0, 64, 92
2, 16320, Note_on_c, 0, 67, 92
2, 16416, Note_off_c, 0, 67, 64
2, 16416, Note_off_c, 0, 64, 64
2, 16416, Note_on_c, 0, 60, 92
2, 16416, Note_on_c, 0, 72, 92
2, 16512, Note_off_c, 0, 72, 64
2, 16512, Note_off_c, 0, 60, 64
2, 16512, Note_on_c, 0, 64, 92
2, 16512, Note_on_c, 0, 67, 92
2, 16608, Note_off_c, 0, 67, 64
2, 16608, Note_off_c, 0, 64, 64
2, 16608, Note_on_c, 0, 64, 92
2, 16608, Note_on_c, 0, 67, 92
2, 16704, Note_off_c, 0, 67, 64
2, 16704, Note_off_c, 0, 64, 64
2, 16704, Note_on_c, 0, 67, 92
2, 16704, Note_on_c, 0, 64, 92
2, 16752, Note_off_c, 0, 67, 64
2, 16752, Note_on_c, 0, 69, 92
2, 16800, Note_off_c, 0, 69, 64
2, 16800, Note_on_c, 0, 67, 92
2, 16848, Note_off_c, 0, 67, 64
2, 16848, Note_off_c, 0, 64, 64
2, 16848, Note_on_c, 0, 62, 92
2, 16848, Note_on_c, 0, 65, 92
2, 16872, Note_off_c, 0, 65, 64
2, 16872, Note_off_c, 0, 62, 64
2, 16872, Note_on_c, 0, 64, 92
2, 16872, Note_on_c, 0, 67, 92
2, 16896, Note_off_c, 0, 67, 64
2, 16896, Note_off_c, 0, 64, 64
2, 16896, Note_on_c, 0, 65, 92
2, 16896, Note_on_c, 0, 69, 92
2, 17280, Note_off_c, 0, 69, 64
2, 17280, Note_off_c, 0, 65, 64
2, 17472, Note_on_c, 0, 69, 92
2, 17664, Note_off_c, 0, 69, 64
2, 17664, Note_on_c, 0, 66, 92
2, 17664, Note_on_c, 0, 69, 92
2, 17712, Note_off_c, 0, 69, 64
2, 17712, Note_off_c, 0, 66, 64
2, 17712, Note_on_c, 0, 64, 92
2, 17712, Note_on_c, 0, 67, 92
2, 17760, Note_off_c, 0, 67, 64
2, 17760, Note_off_c, 0, 64, 64
2, 17760, Note_on_c, 0, 62, 92
2, 17760, Note_on_c, 0, 66, 92
2, 17808, Note_off_c, 0, 66, 64
2, 17808, Note_off_c, 0, 62, 64
2, 17808, Note_on_c, 0, 64, 92
2, 17808, Note_on_c, 0, 67, 92
2, 17856, Note_off_c, 0, 67, 64
2, 17856, Note_off_c, 0, 64, 64
2, 17856, Note_on_c, 0, 66, 92
2, 17856, Note_on_c, 0, 69, 92
2, 17952, Note_off_c, 0, 69, 64
2, 17952, Note_off_c, 0, 66, 64
2, 17952, Note_on_c, 0, 62, 92
2, 17952, Note_on_c, 0, 74, 92
2, 18048, Note_off_c, 0, 74, 64
2, 18048, Note_off_c, 0, 62, 64
2, 18048, Note_on_c, 0, 66, 92
2, 18048, Note_on_c, 0, 69, 92
2, 18144, Note_off_c, 0, 69, 64
2, 18144, Note_off_c, 0, 66, 64
2, 18144, Note_on_c, 0, 66, 92
2, 18144, Note_on_c, 0, 69, 92
2, 18240, Note_off_c, 0, 69, 64
2, 18240, Note_off_c, 0, 66, 64
2, 18240, Note_on_c, 0, 69, 92
2, 18240, Note_on_c, 0, 66, 92
2, 18288, Note_off_c, 0, 69, 64
2, 18288, Note_on_c, 0, 71, 92
2, 18336, Note_off_c, 0, 71, 64
2, 18336, Note_on_c, 0, 69, 92
2, 18384, Note_off_c, 0, 69, 64
2, 18384, Note_off_c, 0, 66, 64
2, 18384, Note_on_c, 0, 64, 92
2, 18384, Note_on_c, 0, 67, 92
2, 18408, Note_off_c, 0, 67, 64
2, 18408, Note_off_c, 0, 64, 64
2, 18408, Note_on_c, 0, 66, 92
2, 18408, Note_on_c, 0, 69, 92
2, 18432, Note_off_c, 0, 69, 64
2, 18432, Note_off_c, 0, 66, 64
2, 18432, Note_on_c, 0, 67, 92
2, 18432, Note_on_c, 0, 71, 92
2, 18816, Note_off_c, 0, 71, 64
2, 18816, Note_off_c, 0, 67, 64
2, 19008, Note_on_c, 0, 71, 92
2, 19200, Note_off_c, 0, 71, 64
2, 19200, Note_on_c, 0, 68, 92
2, 19200, Note_on_c, 0, 71, 92
2, 19248, Note_off_c, 0, 71, 64
2, 19248, Note_off_c, 0, 68, 64
2, 19248, Note_on_c, 0, 66, 92
2, 19248, Note_on_c, 0, 69, 92
2, 19296, Note_off_c, 0, 69, 64
2, 19296, Note_off_c, 0, 66, 64
2, 19296, Note_on_c, 0, 64, 92
2, 19296, Note_on_c, 0, 68, 92
2, 19344, Note_off_c, 0, 68, 64
2, 19344, Note_off_c, 0, 64, 64
2, 19344, Note_on_c, 0, 66, 92
2, 19344, Note_on_c, 0, 69, 92
2, 19392, Note_off_c, 0, 69, 64
2, 19392, Note_off_c, 0, 66, 64
2, 19392, Note_on_c, 0, 68, 92
2, 19392, Note_on_c, 0, 71, 92
2, 19488, Note_off_c, 0, 71, 64
2, 19488, Note_off_c, 0, 68, 64
2, 19488, Note_on_c, 0, 64, 92
2, 19488, Note_on_c, 0, 76, 92
2, 19584, Note_off_c, 0, 76, 64
2, 19584, Note_off_c, 0, 64, 64
2, 19584, Note_on_c, 0, 68, 92
2, 19584, Note_on_c, 0, 71, 92
2, 19680, Note_off_c, 0, 71, 64
2, 19680, Note_off_c, 0, 68, 64
2, 19680, Note_on_c, 0, 68, 92
2, 19680, Note_on_c, 0, 71, 92
2, 19776, Note_off_c, 0, 71, 64
2, 19776, Note_off_c, 0, 68, 64
2, 19776, Note_on_c, 0, 71, 92
2, 19776, Note_on_c, 0, 68, 92
2, 19824, Note_off_c, 0, 71, 64
2, 19824, Note_on_c, 0, 72, 92
2, 19872, Note_off_c, 0, 72, 64
2, 19872, Note_on_c, 0, 71, 92
2, 19920, Note_off_c, 0, 71, 64
2, 19920, Note_off_c, 0, 68, 64
2, 19920, Note_on_c, 0, 66, 92
2, 19920, Note_on_c, 0, 69, 92
2, 19944, Note_off_c, 0, 69, 64
2, 19944, Note_off_c, 0, 66, 64
2, 19944, Note_on_c, 0, 68, 92
2, 19944, Note_on_c, 0, 71, 92
2, 19968, Note_off_c, 0, 71, 64
2, 19968, Note_off_c, 0, 68, 64
2, 19968, Note_on_c, 0, 69, 92
2, 19968, Note_on_c, 0, 72, 92
2, 20352, Note_off_c, 0, 72, 64
2, 20352, Note_off_c, 0, 69, 64
2, 20544, Note_on_c, 0, 77, 92
2, 20544, Note_on_c, 0, 69, 92
2, 20544, Note_on_c, 0, 72, 92
2, 20736, Note_off_c, 0, 72, 64
2, 20736, Note_off_c, 0, 69, 64
2, 20736, Note_on_c, 0, 67, 92
2, 20736, Note_on_c, 0, 71, 92
2, 20832, Note_off_c, 0, 77, 64
2, 20832, Note_on_c, 0, 76, 92
2, 20928, Note_off_c, 0, 71, 64
2, 20928, Note_off_c, 0, 67, 64
2, 20928, Note_on_c, 0, 65, 92
2, 20928, Note_on_c, 0, 69, 92
2, 21024, Note_off_c, 0, 76, 64
2, 21024, Note_on_c, 0, 74, 92
2, 21120, Note_off_c, 0, 69, 64
2, 21120, Note_off_c, 0, 65, 64
2, 21120, Note_on_c, 0, 64, 92
2, 21120, Note_on_c, 0, 67, 92
2, 21216, Note_off_c, 0, 74, 64
2, 21216, Note_on_c, 0, 72, 92
2, 21312, Note_off_c, 0, 67, 64
2, 21312, Note_off_c, 0, 64, 64
2, 21312, Note_on_c, 0, 62, 92
2, 21312, Note_on_c, 0, 65, 92
2, 21408, Note_off_c, 0, 72, 64
2, 21408, Note_on_c, 0, 71, 92
2, 21504, Note_off_c, 0, 65, 64
2, 21504, Note_off_c, 0, 62, 64
2, 21504, Note_on_c, 0, 60, 92
2, 21504, Note_on_c, 0, 64, 92
2, 21600, Note_off_c, 0, 71, 64
2, 21600, Note_on_c, 0, 69, 92
2, 21696, Note_off_c, 0, 64, 64
2, 21696, Note_off_c, 0, 60, 64
2, 21696, Note_on_c, 0, 59, 92
2, 21696, Note_on_c, 0, 62, 92
2, 21792, Note_off_c, 0, 69, 64
2, 21792, Note_on_c, 0, 68, 92
2, 21888, Note_off_c, 0, 68, 64
2, 21888, Note_off_c, 0, 62, 64
2, 21888, Note_off_c, 0, 59, 64
2, 21888, Note_on_c, 0, 69, 92
2, 21888, Note_on_c, 0, 60, 92
2, 21984, Note_off_c, 0, 69, 64
2, 21984, Note_on_c, 0, 71, 92
2, 22080, Note_off_c, 0, 60, 64
2, 22080, Note_on_c, 0, 64, 92
2, 22176, Note_off_c, 0, 71, 64
2, 22176, Note_on_c, 0, 72, 92
2, 22272, Note_off_c, 0, 64, 64
2, 22272, Note_on_c, 0, 64, 92
2, 22272, Note_on_c, 0, 69, 92
2, 22656, Note_off_c, 0, 69, 64
2, 22656, Note_off_c, 0, 64, 64
2, 22656, Note_off_c, 0, 72, 64
2, 23136, Note_on_c, 0, 69, 92
2, 23232, Note_off_c, 0, 69, 64
2, 23232, Note_on_c, 0, 72, 92
2, 23328, Note_off_c, 0, 72, 64
2, 23328, Note_on_c, 0, 69, 92
2, 23424, Note_off_c, 0, 69, 64
2, 23424, Note_on_c, 0, 76, 92
2, 23520, Note_off_c, 0, 76, 64
2, 23520, Note_on_c, 0, 72, 92
2, 23616, Note_off_c, 0, 72, 64
2, 23616, Note_on_c, 0, 76, 92
2, 23712, Note_off_c, 0, 76, 64
2, 23712, Note_on_c, 0, 72, 92
2, 23808, Note_off_c, 0, 72, 64
2, 23808, Note_on_c, 0, 69, 92
2, 23808, Note_on_c, 0, 77, 92
2, 23904, Note_off_c, 0, 77, 64
2, 23904, Note_on_c, 0, 76, 92
2, 24000, Note_off_c, 0, 76, 64
2, 24000, Note_on_c, 0, 74, 92
2, 24096, Note_off_c, 0, 74, 64
2, 24096, Note_on_c, 0, 72, 92
2, 24192, Note_off_c, 0, 72, 64
2, 24192, Note_off_c, 0, 69, 64
2, 24192, Note_on_c, 0, 69, 92
2, 24192, Note_on_c, 0, 74, 92
2, 24288, Note_off_c, 0, 74, 64
2, 24288, Note_on_c, 0, 72, 92
2, 24384, Note_off_c, 0, 72, 64
2, 24384, Note_on_c, 0, 71, 92
2, 24480, Note_off_c, 0, 71, 64
2, 24480, Note_off_c, 0, 69, 64
2, 24480, Note_on_c, 0, 69, 92
2, 24576, Note_off_c, 0, 69, 64
2, 24576, Note_on_c, 0, 64, 92
2, 24576, Note_on_c, 0, 68, 92
2, 24960, Note_off_c, 0, 68, 64
2, 24960, Note_on_c, 0, 69, 92
2, 25728, Note_off_c, 0, 69, 64
2, 25728, Note_on_c, 0, 68, 92
2, 25920, Note_off_c, 0, 64, 64
2, 25920, Note_on_c, 0, 62, 92
2, 26112, Note_off_c, 0, 62, 64
2, 26112, Note_off_c, 0, 68, 64
2, 26112, Note_on_c, 0, 69, 92
2, 26112, Note_on_c, 0, 64, 92
2, 26112, Note_on_c, 0, 60, 92
2, 26688, Note_off_c, 0, 60, 64
2, 26688, Note_off_c, 0, 64, 64
2, 26688, Note_off_c, 0, 69, 64
2, 27072, Note_on_c, 0, 69, 92
2, 27264, Note_off_c, 0, 69, 64
2, 27264, Note_on_c, 0, 71, 92
2, 27456, Note_off_c, 0, 71, 64
2, 27456, Note_on_c, 0, 72, 92
2, 27648, Note_off_c, 0, 72, 64
2, 27648, Note_on_c, 0, 74, 92
2, 27840, Note_off_c, 0, 74, 64
2, 27840, Note_on_c, 0, 76, 92
2, 28032, Note_off_c, 0, 76, 64
2, 28032, Note_on_c, 0, 74, 92
2, 28224, Note_off_c, 0, 74, 64
2, 28224, Note_on_c, 0, 76, 92
2, 28416, Note_off_c, 0, 76, 64
2, 28416, Note_on_c, 0, 72, 92
2, 28608, Note_off_c, 0, 72, 64
2, 28608, Note_on_c, 0, 71, 92
2, 28800, Note_off_c, 0, 71, 64
2, 28800, Note_on_c, 0, 69, 92
2, 28992, Note_off_c, 0, 69, 64
2, 28992, Note_on_c, 0, 77, 92
2, 29760, Note_off_c, 0, 77, 64
2, 29760, Note_on_c, 0, 76, 92
2, 29952, Note_off_c, 0, 76, 64
2, 29952, Note_on_c, 0, 74, 92
2, 30144, Note_off_c, 0, 74, 64
2, 30144, Note_on_c, 0, 76, 92
2, 30912, Note_off_c, 0, 76, 64
2, 30912, Note_on_c, 0, 74, 92
2, 31104, Note_off_c, 0, 74, 64
2, 31104, Note_on_c, 0, 72, 92
2, 31296, Note_off_c, 0, 72, 64
2, 31296, Note_on_c, 0, 74, 92
2, 31680, Note_off_c, 0, 74, 64
2, 31680, Note_on_c, 0, 72, 92
2, 31872, Note_off_c, 0, 72, 64
2, 31872, Note_on_c, 0, 72, 92
2, 31920, Note_off_c, 0, 72, 64
2, 31920, Note_on_c, 0, 71, 92
2, 31968, Note_off_c, 0, 71, 64
2, 31968, Note_on_c, 0, 72, 92
2, 32016, Note_off_c, 0, 72, 64
2, 32016, Note_on_c, 0, 71, 92
2, 32064, Note_off_c, 0, 71, 64
2, 32064, Note_on_c, 0, 72, 92
2, 32112, Note_off_c, 0, 72, 64
2, 32112, Note_on_c, 0, 71, 92
2, 32160, Note_off_c, 0, 71, 64
2, 32160, Note_on_c, 0, 72, 92
2, 32208, Note_off_c, 0, 72, 64
2, 32208, Note_on_c, 0, 71, 92
2, 32256, Note_off_c, 0, 71, 64
2, 32256, Note_on_c, 0, 72, 92
2, 32304, Note_off_c, 0, 72, 64
2, 32304, Note_on_c, 0, 71, 92
2, 32352, Note_off_c, 0, 71, 64
2, 32352, Note_on_c, 0, 72, 92
2, 32400, Note_off_c, 0, 72, 64
2, 32400, Note_on_c, 0, 71, 92
2, 32448, Note_off_c, 0, 71, 64
2, 32448, Note_on_c, 0, 69, 92
2, 32832, Note_off_c, 0, 69, 64
2, 32832, Note_on_c, 0, 71, 92
2, 33024, Note_off_c, 0, 71, 64
2, 33024, Note_on_c, 0, 67, 92
2, 33216, Note_off_c, 0, 67, 64
2, 33216, Note_on_c, 0, 71, 92
2, 33408, Note_off_c, 0, 71, 64
2, 33408, Note_on_c, 0, 76, 92
2, 33408, Note_on_c, 0, 64, 92
2, 33600, Note_off_c, 0, 64, 64
2, 33600, Note_on_c, 0, 66, 92
2, 33792, Note_off_c, 0, 66, 64
2, 33792, Note_on_c, 0, 67, 92
2, 33984, Note_off_c, 0, 67, 64
2, 33984, Note_on_c, 0, 69, 92
2, 34176, Note_off_c, 0, 69, 64
2, 34176, Note_off_c, 0, 76, 64
2, 34176, Note_on_c, 0, 75, 92
2, 34176, Note_on_c, 0, 71, 92
2, 34368, Note_off_c, 0, 71, 64
2, 34368, Note_on_c, 0, 69, 92
2, 34560, Note_off_c, 0, 69, 64
2, 34560, Note_on_c, 0, 71, 92
2, 34752, Note_off_c, 0, 71, 64
2, 34752, Note_off_c, 0, 75, 64
2, 34752, Note_on_c, 0, 76, 92
2, 34752, Note_on_c, 0, 67, 92
2, 34944, Note_off_c, 0, 67, 64
2, 34944, Note_on_c, 0, 66, 92
2, 35136, Note_off_c, 0, 66, 64
2, 35136, Note_on_c, 0, 64, 92
2, 35328, Note_off_c, 0, 64, 64
2, 35328, Note_on_c, 0, 72, 92
2, 35520, Note_off_c, 0, 76, 64
2, 35520, Note_on_c, 0, 78, 92
2, 35712, Note_off_c, 0, 78, 64
2, 35712, Note_on_c, 0, 80, 92
2, 35904, Note_off_c, 0, 80, 64
2, 35904, Note_on_c, 0, 81, 92
2, 36096, Note_off_c, 0, 72, 64
2, 36096, Note_on_c, 0, 71, 92
2, 36288, Note_off_c, 0, 71, 64
2, 36288, Note_on_c, 0, 69, 92
2, 36480, Note_off_c, 0, 69, 64
2, 36480, Note_on_c, 0, 71, 92
2, 36672, Note_off_c, 0, 81, 64
2, 36672, Note_on_c, 0, 79, 92
2, 36864, Note_off_c, 0, 79, 64
2, 36864, Note_on_c, 0, 78, 92
2, 37056, Note_off_c, 0, 78, 64
2, 37056, Note_on_c, 0, 79, 92
2, 37248, Note_off_c, 0, 71, 64
2, 37248, Note_on_c, 0, 69, 92
2, 37440, Note_off_c, 0, 69, 64
2, 37440, Note_on_c, 0, 67, 92
2, 37632, Note_off_c, 0, 67, 64
2, 37632, Note_on_c, 0, 69, 92
2, 37824, Note_off_c, 0, 79, 64
2, 37824, Note_on_c, 0, 78, 92
2, 38016, Note_off_c, 0, 78, 64
2, 38016, Note_off_c, 0, 69, 64
2, 38016, Note_on_c, 0, 76, 92
2, 38016, Note_on_c, 0, 67, 92
2, 38208, Note_off_c, 0, 67, 64
2, 38208, Note_on_c, 0, 66, 92
2, 38400, Note_off_c, 0, 76, 64
2, 38400, Note_on_c, 0, 78, 92
2, 38592, Note_off_c, 0, 78, 64
2, 38592, Note_on_c, 0, 75, 92
2, 38784, Note_off_c, 0, 75, 64
2, 38784, Note_off_c, 0, 66, 64
2, 38784, Note_on_c, 0, 67, 92
2, 38784, Note_on_c, 0, 76, 92
2, 38976, Note_off_c, 0, 76, 64
2, 38976, Note_on_c, 0, 74, 92
2, 39168, Note_off_c, 0, 74, 64
2, 39168, Note_on_c, 0, 72, 92
2, 39360, Note_off_c, 0, 72, 64
2, 39360, Note_off_c, 0, 67, 64
2, 39360, Note_on_c, 0, 68, 92
2, 39360, Note_on_c, 0, 71, 92
2, 39552, Note_off_c, 0, 71, 64
2, 39552, Note_on_c, 0, 72, 92
2, 39744, Note_off_c, 0, 72, 64
2, 39744, Note_on_c, 0, 74, 92
2, 39936, Note_off_c, 0, 74, 64
2, 39936, Note_off_c, 0, 68, 64
2, 39936, Note_on_c, 0, 69, 92
2, 39936, Note_on_c, 0, 72, 92
2, 40128, Note_off_c, 0, 72, 64
2, 40128, Note_on_c, 0, 74, 92
2, 40320, Note_off_c, 0, 74, 64
2, 40320, Note_off_c, 0, 69, 64
2, 40320, Note_on_c, 0, 76, 92
2, 40512, Note_off_c, 0, 76, 64
2, 40512, Note_on_c, 0, 74, 92
2, 40704, Note_off_c, 0, 74, 64
2, 40704, Note_on_c, 0, 76, 92
2, 40896, Note_off_c, 0, 76, 64
2, 40896, Note_on_c, 0, 69, 92
2, 40896, Note_on_c, 0, 72, 92
2, 41088, Note_off_c, 0, 72, 64
2, 41088, Note_on_c, 0, 71, 92
2, 41664, Note_off_c, 0, 69, 64
2, 41664, Note_on_c, 0, 68, 92
2, 42240, Note_off_c, 0, 68, 64
2, 42240, Note_off_c, 0, 71, 64
2, 42240, Note_on_c, 0, 69, 92
2, 42240, Note_on_c, 0, 72, 92
2, 42624, Note_off_c, 0, 69, 64
2, 42624, Note_on_c, 0, 76, 92
2, 42816, Note_off_c, 0, 72, 64
2, 42816, Note_on_c, 0, 69, 92
2, 43008, Note_off_c, 0, 76, 64
2, 43008, Note_on_c, 0, 74, 92
2, 43200, Note_off_c, 0, 74, 64
2, 43200, Note_on_c, 0, 72, 92
2, 43392, Note_off_c, 0, 72, 64
2, 43392, Note_on_c, 0, 74, 92
2, 43584, Note_off_c, 0, 69, 64
2, 43584, Note_on_c, 0, 67, 92
2, 43776, Note_off_c, 0, 67, 64
2, 43776, Note_on_c, 0, 65, 92
2, 43968, Note_off_c, 0, 65, 64
2, 43968, Note_on_c, 0, 67, 92
2, 44160, Note_off_c, 0, 74, 64
2, 44160, Note_on_c, 0, 72, 92
2, 44352, Note_off_c, 0, 72, 64
2, 44352, Note_on_c, 0, 71, 92
2, 44544, Note_off_c, 0, 71, 64
2, 44544, Note_on_c, 0, 72, 92
2, 44736, Note_off_c, 0, 67, 64
2, 44736, Note_on_c, 0, 65, 92
2, 44928, Note_off_c, 0, 65, 64
2, 44928, Note_on_c, 0, 64, 92
2, 45120, Note_off_c, 0, 64, 64
2, 45120, Note_on_c, 0, 65, 92
2, 45312, Note_off_c, 0, 72, 64
2, 45312, Note_on_c, 0, 71, 92
2, 45504, Note_off_c, 0, 71, 64
2, 45504, Note_off_c, 0, 65, 64
2, 45504, Note_on_c, 0, 69, 92
2, 45504, Note_on_c, 0, 64, 92
2, 45696, Note_off_c, 0, 64, 64
2, 45696, Note_on_c, 0, 63, 92
2, 45888, Note_off_c, 0, 69, 64
2, 45888, Note_on_c, 0, 71, 92
2, 46080, Note_off_c, 0, 71, 64
2, 46080, Note_on_c, 0, 69, 92
2, 46272, Note_off_c, 0, 69, 64
2, 46272, Note_off_c, 0, 63, 64
2, 46272, Note_on_c, 0, 64, 92
2, 46272, Note_on_c, 0, 67, 92
2, 46464, Note_off_c, 0, 67, 64
2, 46464, Note_on_c, 0, 69, 92
2, 46656, Note_off_c, 0, 69, 64
2, 46656, Note_off_c, 0, 64, 64
2, 46656, Note_on_c, 0, 64, 92
2, 46656, Note_on_c, 0, 67, 92
2, 46848, Note_off_c, 0, 67, 64
2, 46848, Note_on_c, 0, 66, 92
2, 47424, Note_off_c, 0, 64, 64
2, 47424, Note_on_c, 0, 63, 92
2, 48000, Note_off_c, 0, 63, 64
2, 48000, Note_off_c, 0, 66, 64
2, 48000, Note_on_c, 0, 64, 92
2, 48000, Note_on_c, 0, 67, 92
2, 48384, Note_off_c, 0, 67, 64
2, 48384, Note_off_c, 0, 64, 64
2, 48384, Note_on_c, 0, 79, 92
2, 48384, Note_on_c, 0, 71, 92
2, 48576, Note_off_c, 0, 79, 64
2, 48576, Note_on_c, 0, 76, 92
2, 48768, Note_off_c, 0, 71, 64
2, 48768, Note_on_c, 0, 69, 92
2, 48960, Note_off_c, 0, 69, 64
2, 48960, Note_on_c, 0, 67, 92
2, 49152, Note_off_c, 0, 67, 64
2, 49152, Note_on_c, 0, 69, 92
2, 49344, Note_off_c, 0, 76, 64
2, 49344, Note_on_c, 0, 74, 92
2, 49536, Note_off_c, 0, 74, 64
2, 49536, Note_on_c, 0, 72, 92
2, 49728, Note_off_c, 0, 72, 64
2, 49728, Note_on_c, 0, 74, 92
2, 49920, Note_off_c, 0, 69, 64
2, 49920, Note_on_c, 0, 68, 92
2, 50112, Note_off_c, 0, 68, 64
2, 50112, Note_on_c, 0, 66, 92
2, 50304, Note_off_c, 0, 66, 64
2, 50304, Note_on_c, 0, 68, 92
2, 50496, Note_off_c, 0, 74, 64
2, 50496, Note_on_c, 0, 72, 92
2, 50688, Note_off_c, 0, 72, 64
2, 50688, Note_on_c, 0, 71, 92
2, 50880, Note_off_c, 0, 71, 64
2, 50880, Note_on_c, 0, 72, 92
2, 51072, Note_off_c, 0, 68, 64
2, 51072, Note_on_c, 0, 66, 92
2, 51264, Note_off_c, 0, 66, 64
2, 51264, Note_on_c, 0, 64, 92
2, 51456, Note_off_c, 0, 64, 64
2, 51456, Note_off_c, 0, 72, 64
2, 51456, Note_on_c, 0, 71, 92
2, 51456, Note_on_c, 0, 63, 92
2, 51456, Note_on_c, 0, 66, 92
2, 52032, Note_off_c, 0, 66, 64
2, 52032, Note_off_c, 0, 63, 64
2, 52032, Note_on_c, 0, 64, 92
2, 52224, Note_off_c, 0, 71, 64
2, 52224, Note_on_c, 0, 69, 92
2, 52416, Note_off_c, 0, 69, 64
2, 52416, Note_on_c, 0, 67, 92
2, 52608, Note_off_c, 0, 67, 64
2, 52608, Note_on_c, 0, 69, 92
2, 52800, Note_off_c, 0, 64, 64
2, 52800, Note_on_c, 0, 66, 92
2, 52992, Note_off_c, 0, 66, 64
2, 52992, Note_on_c, 0, 64, 92
2, 53184, Note_off_c, 0, 64, 64
2, 53184, Note_on_c, 0, 63, 92
2, 53376, Note_off_c, 0, 69, 64
2, 53376, Note_on_c, 0, 67, 92
2, 53568, Note_off_c, 0, 67, 64
2, 53568, Note_on_c, 0, 66, 92
2, 53760, Note_off_c, 0, 66, 64
2, 53760, Note_off_c, 0, 63, 64
2, 53760, Note_on_c, 0, 64, 92
2, 53760, Note_on_c, 0, 67, 92
2, 54336, Note_off_c, 0, 67, 64
2, 54336, Note_off_c, 0, 64, 64
2, 54720, Note_on_c, 0, 61, 92
2, 54720, Note_on_c, 0, 64, 92
2, 54912, Note_off_c, 0, 64, 64
2, 54912, Note_off_c, 0, 61, 64
2, 54912, Note_on_c, 0, 62, 92
2, 54912, Note_on_c, 0, 65, 92
2, 55488, Note_off_c, 0, 65, 64
2, 55488, Note_off_c, 0, 62, 64
2, 55872, Note_on_c, 0, 59, 92
2, 55872, Note_on_c, 0, 62, 92
2, 56064, Note_off_c, 0, 62, 64
2, 56064, Note_off_c, 0, 59, 64
2, 56064, Note_on_c, 0, 60, 92
2, 56064, Note_on_c, 0, 64, 92
2, 56640, Note_off_c, 0, 64, 64
2, 56640, Note_off_c, 0, 60, 64
2, 57024, Note_on_c, 0, 57, 92
2, 57024, Note_on_c, 0, 60, 92
2, 57216, Note_off_c, 0, 60, 64
2, 57216, Note_off_c, 0, 57, 64
2, 57216, Note_on_c, 0, 59, 92
2, 57216, Note_on_c, 0, 62, 92
2, 57792, Note_off_c, 0, 62, 64
2, 57792, Note_off_c, 0, 59, 64
2, 58176, Note_on_c, 0, 59, 92
2, 58368, Note_off_c, 0, 59, 64
2, 58368, Note_on_c, 0, 60, 92
2, 58560, Note_off_c, 0, 60, 64
2, 58560, Note_on_c, 0, 62, 92
2, 58752, Note_off_c, 0, 62, 64
2, 58752, Note_on_c, 0, 64, 92
2, 58944, Note_off_c, 0, 64, 64
2, 58944, Note_on_c, 0, 62, 92
2, 59136, Note_off_c, 0, 62, 64
2, 59136, Note_on_c, 0, 64, 92
2, 59328, Note_off_c, 0, 64, 64
2, 59328, Note_on_c, 0, 69, 92
2, 59328, Note_on_c, 0, 60, 92
2, 59520, Note_off_c, 0, 60, 64
2, 59520, Note_off_c, 0, 69, 64
2, 59520, Note_on_c, 0, 71, 92
2, 59712, Note_off_c, 0, 71, 64
2, 59712, Note_on_c, 0, 72, 92
2, 59904, Note_off_c, 0, 72, 64
2, 59904, Note_on_c, 0, 74, 92
2, 60096, Note_off_c, 0, 74, 64
2, 60096, Note_on_c, 0, 76, 92
2, 60288, Note_off_c, 0, 76, 64
2, 60288, Note_on_c, 0, 74, 92
2, 60480, Note_off_c, 0, 74, 64
2, 60480, Note_on_c, 0, 76, 92
2, 60672, Note_off_c, 0, 76, 64
2, 60672, Note_on_c, 0, 72, 92
2, 60864, Note_off_c, 0, 72, 64
2, 60864, Note_on_c, 0, 71, 92
2, 61056, Note_off_c, 0, 71, 64
2, 61056, Note_on_c, 0, 69, 92
2, 61248, Note_off_c, 0, 69, 64
2, 61248, Note_on_c, 0, 77, 92
2, 61440, Note_on_c, 0, 69, 92
2, 61632, Note_off_c, 0, 69, 64
2, 61632, Note_on_c, 0, 74, 92
2, 61824, Note_off_c, 0, 77, 64
2, 61824, Note_on_c, 0, 76, 92
2, 62400, Note_off_c, 0, 74, 64
2, 62400, Note_on_c, 0, 73, 92
2, 62976, Note_off_c, 0, 73, 64
2, 62976, Note_off_c, 0, 76, 64
2, 62976, Note_on_c, 0, 74, 92
2, 62976, Note_on_c, 0, 77, 92
2, 63360, Note_off_c, 0, 77, 64
2, 63360, Note_off_c, 0, 74, 64
2, 63552, Note_on_c, 0, 74, 92
2, 63744, Note_off_c, 0, 74, 64
2, 63744, Note_on_c, 0, 76, 92
2, 63936, Note_off_c, 0, 76, 64
2, 63936, Note_on_c, 0, 77, 92
2, 64128, Note_off_c, 0, 77, 64
2, 64128, Note_on_c, 0, 79, 92
2, 64896, Note_off_c, 0, 79, 64
2, 64896, Note_on_c, 0, 77, 92
2, 65088, Note_off_c, 0, 77, 64
2, 65088, Note_on_c, 0, 76, 92
2, 65280, Note_off_c, 0, 76, 64
2, 65280, Note_on_c, 0, 77, 92
2, 65472, Note_off_c, 0, 77, 64
2, 65472, Note_on_c, 0, 79, 92
2, 65664, Note_off_c, 0, 79, 64
2, 65664, Note_on_c, 0, 77, 92
2, 65856, Note_off_c, 0, 77, 64
2, 65856, Note_on_c, 0, 76, 92
2, 66432, Note_off_c, 0, 76, 64
2, 66432, Note_on_c, 0, 74, 92
2, 67008, Note_off_c, 0, 74, 64
2, 67008, Note_on_c, 0, 68, 92
2, 67008, Note_on_c, 0, 71, 92
2, 67584, Note_off_c, 0, 71, 64
2, 67584, Note_off_c, 0, 68, 64
2, 67584, Note_on_c, 0, 72, 92
2, 67584, Note_on_c, 0, 69, 92
2, 68160, Note_off_c, 0, 69, 64
2, 68160, Note_on_c, 0, 69, 92
2, 68352, Note_off_c, 0, 72, 64
2, 68352, Note_on_c, 0, 71, 92
2, 68544, Note_off_c, 0, 71, 64
2, 68544, Note_on_c, 0, 72, 92
2, 68736, Note_off_c, 0, 72, 64
2, 68736, Note_on_c, 0, 74, 92
2, 69312, Note_off_c, 0, 69, 64
2, 69312, Note_on_c, 0, 67, 92
2, 69504, Note_off_c, 0, 74, 64
2, 69504, Note_on_c, 0, 72, 92
2, 69696, Note_off_c, 0, 72, 64
2, 69696, Note_on_c, 0, 71, 92
2, 69888, Note_off_c, 0, 71, 64
2, 69888, Note_on_c, 0, 72, 92
2, 70464, Note_off_c, 0, 67, 64
2, 70464, Note_on_c, 0, 65, 92
2, 70656, Note_off_c, 0, 72, 64
2, 70656, Note_on_c, 0, 71, 92
2, 70848, Note_off_c, 0, 71, 64
2, 70848, Note_on_c, 0, 69, 92
2, 71040, Note_off_c, 0, 69, 64
2, 71040, Note_on_c, 0, 71, 92
2, 71616, Note_off_c, 0, 65, 64
2, 71616, Note_on_c, 0, 64, 92
2, 71808, Note_off_c, 0, 71, 64
2, 71808, Note_on_c, 0, 69, 92
2, 72000, Note_off_c, 0, 69, 64
2, 72000, Note_on_c, 0, 68, 92
2, 72192, Note_off_c, 0, 68, 64
2, 72192, Note_on_c, 0, 69, 92
2, 72768, Note_off_c, 0, 64, 64
2, 72960, Note_off_c, 0, 69, 64
2, 72960, Note_on_c, 0, 71, 92
2, 73152, Note_off_c, 0, 71, 64
2, 73152, Note_on_c, 0, 69, 92
2, 73344, Note_off_c, 0, 69, 64
2, 73344, Note_on_c, 0, 64, 92
2, 73344, Note_on_c, 0, 67, 92
2, 73536, Note_off_c, 0, 67, 64
2, 73536, Note_on_c, 0, 69, 92
2, 73728, Note_off_c, 0, 69, 64
2, 73728, Note_on_c, 0, 67, 92
2, 73920, Note_off_c, 0, 67, 64
2, 73920, Note_on_c, 0, 66, 92
2, 74496, Note_off_c, 0, 64, 64
2, 74496, Note_on_c, 0, 63, 92
2, 75072, Note_off_c, 0, 63, 64
2, 75072, Note_off_c, 0, 66, 64
2, 75072, Note_on_c, 0, 59, 92
2, 75072, Note_on_c, 0, 64, 92
2, 75648, Note_off_c, 0, 64, 64
2, 75648, Note_off_c, 0, 59, 64
2, 76032, Note_on_c, 0, 69, 92
2, 76224, Note_off_c, 0, 69, 64
2, 76224, Note_on_c, 0, 71, 92
2, 76416, Note_off_c, 0, 71, 64
2, 76416, Note_on_c, 0, 72, 92
2, 76608, Note_off_c, 0, 72, 64
2, 76608, Note_on_c, 0, 74, 92
2, 76800, Note_off_c, 0, 74, 64
2, 76800, Note_on_c, 0, 76, 92
2, 76992, Note_off_c, 0, 76, 64
2, 76992, Note_on_c, 0, 74, 92
2, 77184, Note_off_c, 0, 74, 64
2, 77184, Note_on_c, 0, 76, 92
2, 77376, Note_off_c, 0, 76, 64
2, 77376, Note_on_c, 0, 72, 92
2, 77568, Note_off_c, 0, 72, 64
2, 77568, Note_on_c, 0, 71, 92
2, 77760, Note_off_c, 0, 71, 64
2, 77760, Note_on_c, 0, 69, 92
2, 77952, Note_on_c, 0, 77, 92
2, 78144, Note_off_c, 0, 69, 64
2, 78144, Note_on_c, 0, 67, 92
2, 78336, Note_off_c, 0, 67, 64
2, 78336, Note_on_c, 0, 65, 92
2, 78528, Note_off_c, 0, 65, 64
2, 78528, Note_on_c, 0, 67, 92
2, 78720, Note_off_c, 0, 77, 64
2, 78720, Note_on_c, 0, 76, 92
2, 78912, Note_off_c, 0, 76, 64
2, 78912, Note_on_c, 0, 74, 92
2, 79104, Note_off_c, 0, 74, 64
2, 79104, Note_on_c, 0, 76, 92
2, 79296, Note_off_c, 0, 67, 64
2, 79296, Note_on_c, 0, 65, 92
2, 79488, Note_off_c, 0, 65, 64
2, 79488, Note_on_c, 0, 64, 92
2, 79680, Note_off_c, 0, 64, 64
2, 79680, Note_on_c, 0, 65, 92
2, 79872, Note_off_c, 0, 76, 64
2, 79872, Note_on_c, 0, 74, 92
2, 80064, Note_off_c, 0, 74, 64
2, 80064, Note_on_c, 0, 72, 92
2, 80256, Note_off_c, 0, 72, 64
2, 80256, Note_on_c, 0, 74, 92
2, 80448, Note_off_c, 0, 65, 64
2, 80448, Note_on_c, 0, 64, 92
2, 80640, Note_off_c, 0, 64, 64
2, 80640, Note_on_c, 0, 62, 92
2, 80832, Note_off_c, 0, 62, 64
2, 80832, Note_on_c, 0, 64, 92
2, 81024, Note_off_c, 0, 74, 64
2, 81024, Note_on_c, 0, 72, 92
2, 81216, Note_off_c, 0, 72, 64
2, 81216, Note_on_c, 0, 71, 92
2, 81408, Note_off_c, 0, 71, 64
2, 81408, Note_on_c, 0, 72, 92
2, 81792, Note_off_c, 0, 64, 64
2, 81792, Note_on_c, 0, 69, 92
2, 81984, Note_off_c, 0, 72, 64
2, 81984, Note_on_c, 0, 71, 92
2, 82560, Note_off_c, 0, 69, 64
2, 82560, Note_on_c, 0, 68, 92
2, 83136, Note_off_c, 0, 68, 64
2, 83136, Note_off_c, 0, 71, 64
2, 83136, Note_on_c, 0, 76, 92
2, 83136, Note_on_c, 0, 69, 92
2, 83328, Note_off_c, 0, 76, 64
2, 83328, Note_on_c, 0, 74, 92
2, 83520, Note_off_c, 0, 74, 64
2, 83520, Note_on_c, 0, 72, 92
2, 83712, Note_off_c, 0, 72, 64
2, 83712, Note_on_c, 0, 71, 92
2, 84288, Note_off_c, 0, 69, 64
2, 84288, Note_on_c, 0, 69, 92
2, 84336, Note_off_c, 0, 69, 64
2, 84336, Note_on_c, 0, 68, 92
2, 84384, Note_off_c, 0, 68, 64
2, 84384, Note_on_c, 0, 69, 92
2, 84432, Note_off_c, 0, 69, 64
2, 84432, Note_on_c, 0, 68, 92
2, 84480, Note_off_c, 0, 68, 64
2, 84480, Note_on_c, 0, 69, 92
2, 84528, Note_off_c, 0, 69, 64
2, 84528, Note_on_c, 0, 68, 92
2, 84576, Note_off_c, 0, 68, 64
2, 84576, Note_on_c, 0, 69, 92
2, 84624, Note_off_c, 0, 69, 64
2, 84624, Note_on_c, 0, 68, 92
2, 84672, Note_off_c, 0, 68, 64
2, 84672, Note_on_c, 0, 69, 92
2, 84720, Note_off_c, 0, 69, 64
2, 84720, Note_on_c, 0, 68, 92
2, 84768, Note_off_c, 0, 68, 64
2, 84768, Note_on_c, 0, 69, 92
2, 84816, Note_off_c, 0, 69, 64
2, 84816, Note_on_c, 0, 68, 92
2, 84864, Note_off_c, 0, 68, 64
2, 84864, Note_off_c, 0, 71, 64
2, 84864, Note_on_c, 0, 69, 92
2, 84864, Note_on_c, 0, 64, 92
2, 87168, Note_off_c, 0, 64, 64
2, 87168, Note_off_c, 0, 69, 64
2, 87168, End_track
3, 0, Start_track
3, 0, Title_t, "Track 2"
3, 0, Note_on_c, 0, 57, 92
3, 384, Note_off_c, 0, 57, 64
3, 480, Note_on_c, 0, 52, 92
3, 576, Note_off_c, 0, 52, 64
3, 576, Note_on_c, 0, 54, 92
3, 672, Note_off_c, 0, 54, 64
3, 672, Note_on_c, 0, 56, 92
3, 768, Note_off_c, 0, 56, 64
3, 768, Note_on_c, 0, 57, 92
3, 864, Note_off_c, 0, 57, 64
3, 1584, Note_on_c, 0, 57, 92
3, 1632, Note_off_c, 0, 57, 64
3, 1632, Note_on_c, 0, 56, 92
3, 1680, Note_off_c, 0, 56, 64
3, 1680, Note_on_c, 0, 57, 92
3, 1728, Note_off_c, 0, 57, 64
3, 1776, Note_on_c, 0, 59, 92
3, 1824, Note_off_c, 0, 59, 64
3, 1824, Note_on_c, 0, 57, 92
3, 1872, Note_off_c, 0, 57, 64
3, 1872, Note_on_c, 0, 59, 92
3, 1920, Note_off_c, 0, 59, 64
3, 1968, Note_on_c, 0, 60, 92
3, 2016, Note_off_c, 0, 60, 64
3, 2016, Note_on_c, 0, 59, 92
3, 2064, Note_off_c, 0, 59, 64
3, 2064, Note_on_c, 0, 60, 92
3, 2112, Note_off_c, 0, 60, 64
3, 2160, Note_on_c, 0, 59, 92
3, 2208, Note_off_c, 0, 59, 64
3, 2208, Note_on_c, 0, 57, 92
3, 2256, Note_off_c, 0, 57, 64
3, 2256, Note_on_c, 0, 59, 92
3, 2304, Note_off_c, 0, 59, 64
3, 2304, Note_on_c, 0, 57, 92
3, 2496, Note_off_c, 0, 57, 64
3, 2496, Note_on_c, 0, 55, 92
3, 2688, Note_off_c, 0, 55, 64
3, 2688, Note_on_c, 0, 53, 92
3, 2880, Note_off_c, 0, 53, 64
3, 2880, Note_on_c, 0, 52, 92
3, 3072, Note_off_c, 0, 52, 64
3, 3072, Note_on_c, 0, 50, 92
3, 3264, Note_off_c, 0, 50, 64
3, 3264, Note_on_c, 0, 47, 92
3, 3456, Note_off_c, 0, 47, 64
3, 3456, Note_on_c, 0, 52, 92
3, 3648, Note_off_c, 0, 52, 64
3, 3648, Note_on_c, 0, 40, 92
3, 3840, Note_off_c, 0, 40, 64
3, 3840, Note_on_c, 0, 57, 92
3, 3888, Note_off_c, 0, 57, 64
3, 3936, Note_on_c, 0, 59, 92
3, 3984, Note_off_c, 0, 59, 64
3, 4512, Note_on_c, 0, 59, 92
3, 4560, Note_off_c, 0, 59, 64
3, 4608, Note_on_c, 0, 52, 92
3, 4608, Note_on_c, 0, 57, 92
3, 4800, Note_off_c, 0, 57, 64
3, 4800, Note_off_c, 0, 52, 64
3, 4800, Note_on_c, 0, 52, 92
3, 4800, Note_on_c, 0, 57, 92
3, 4992, Note_off_c, 0, 57, 64
3, 4992, Note_off_c, 0, 52, 64
3, 4992, Note_on_c, 0, 52, 92
3, 4992, Note_on_c, 0, 57, 92
3, 5184, Note_off_c, 0, 57, 64
3, 5184, Note_off_c, 0, 52, 64
3, 5184, Note_on_c, 0, 52, 92
3, 5184, Note_on_c, 0, 57, 92
3, 5376, Note_off_c, 0, 57, 64
3, 5376, Note_off_c, 0, 52, 64
3, 5376, Note_on_c, 0, 50, 92
3, 5376, Note_on_c, 0, 57, 92
3, 5760, Note_off_c, 0, 57, 64
3, 5760, Note_off_c, 0, 50, 64
3, 5760, Note_on_c, 0, 59, 92
3, 5856, Note_off_c, 0, 59, 64
3, 5856, Note_on_c, 0, 60, 92
3, 5952, Note_off_c, 0, 60, 64
3, 5952, Note_on_c, 0, 59, 92
3, 6048, Note_off_c, 0, 59, 64
3, 6048, Note_on_c, 0, 57, 92
3, 6144, Note_off_c, 0, 57, 64
3, 6144, Note_on_c, 0, 55, 92
3, 6192, Note_off_c, 0, 55, 64
3, 6192, Note_on_c, 0, 59, 92
3, 6240, Note_off_c, 0, 59, 64
3, 6240, Note_on_c, 0, 57, 92
3, 6288, Note_off_c, 0, 57, 64
3, 6336, Note_on_c, 0, 59, 92
3, 6384, Note_off_c, 0, 59, 64
3, 6720, Note_on_c, 0, 59, 92
3, 6768, Note_off_c, 0, 59, 64
3, 6816, Note_on_c, 0, 57, 92
3, 6864, Note_off_c, 0, 57, 64
3, 6912, Note_on_c, 0, 50, 92
3, 6912, Note_on_c, 0, 55, 92
3, 7104, Note_off_c, 0, 55, 64
3, 7104, Note_off_c, 0, 50, 64
3, 7104, Note_on_c, 0, 50, 92
3, 7104, Note_on_c, 0, 55, 92
3, 7296, Note_off_c, 0, 55, 64
3, 7296, Note_off_c, 0, 50, 64
3, 7296, Note_on_c, 0, 50, 92
3, 7296, Note_on_c, 0, 55, 92
3, 7488, Note_off_c, 0, 55, 64
3, 7488, Note_off_c, 0, 50, 64
3, 7488, Note_on_c, 0, 50, 92
3, 7488, Note_on_c, 0, 55, 92
3, 7680, Note_off_c, 0, 55, 64
3, 7680, Note_off_c, 0, 50, 64
3, 7680, Note_on_c, 0, 55, 92
3, 7680, Note_on_c, 0, 48, 92
3, 8064, Note_off_c, 0, 48, 64
3, 8064, Note_off_c, 0, 55, 64
3, 8160, Note_on_c, 0, 60, 92
3, 8832, Note_off_c, 0, 60, 64
3, 8928, Note_on_c, 0, 62, 92
3, 9600, Note_off_c, 0, 62, 64
3, 9696, Note_on_c, 0, 64, 92
3, 10368, Note_off_c, 0, 64, 64
3, 10368, Note_on_c, 0, 57, 92
3, 10656, Note_off_c, 0, 57, 64
3, 10656, Note_on_c, 0, 59, 92
3, 10752, Note_off_c, 0, 59, 64
3, 10848, Note_on_c, 0, 60, 92
3, 10944, Note_off_c, 0, 60, 64
3, 10944, Note_on_c, 0, 59, 92
3, 11040, Note_off_c, 0, 59, 64
3, 11040, Note_on_c, 0, 57, 92
3, 11136, Note_off_c, 0, 57, 64
3, 11136, Note_on_c, 0, 59, 92
3, 11520, Note_off_c, 0, 59, 64
3, 11520, Note_on_c, 0, 57, 92
3, 12288, Note_off_c, 0, 57, 64
3, 12288, Note_on_c, 0, 57, 92
3, 12672, Note_off_c, 0, 57, 64
3, 12672, Note_on_c, 0, 55, 92
3, 13056, Note_off_c, 0, 55, 64
3, 13056, Note_on_c, 0, 54, 92
3, 13440, Note_off_c, 0, 54, 64
3, 13440, Note_on_c, 0, 52, 92
3, 13824, Note_off_c, 0, 52, 64
3, 13824, Note_on_c, 0, 51, 92
3, 13872, Note_off_c, 0, 51, 64
3, 13872, Note_on_c, 0, 59, 92
3, 13920, Note_off_c, 0, 59, 64
3, 13920, Note_on_c, 0, 54, 92
3, 13968, Note_off_c, 0, 54, 64
3, 13968, Note_on_c, 0, 59, 92
3, 14016, Note_off_c, 0, 59, 64
3, 14016, Note_on_c, 0, 51, 92
3, 14064, Note_off_c, 0, 51, 64
3, 14064, Note_on_c, 0, 59, 92
3, 14112, Note_off_c, 0, 59, 64
3, 14112, Note_on_c, 0, 54, 92
3, 14160, Note_off_c, 0, 54, 64
3, 14160, Note_on_c, 0, 59, 92
3, 14208, Note_off_c, 0, 59, 64
3, 14208, Note_on_c, 0, 52, 92
3, 14256, Note_off_c, 0, 52, 64
3, 14256, Note_on_c, 0, 59, 92
3, 14304, Note_off_c, 0, 59, 64
3, 14304, Note_on_c, 0, 55, 92
3, 14352, Note_off_c, 0, 55, 64
3, 14352, Note_on_c, 0, 59, 92
3, 14400, Note_off_c, 0, 59, 64
3, 14400, Note_on_c, 0, 52, 92
3, 14448, Note_off_c, 0, 52, 64
3, 14448, Note_on_c, 0, 59, 92
3, 14496, Note_off_c, 0, 59, 64
3, 14496, Note_on_c, 0, 55, 92
3, 14544, Note_off_c, 0, 55, 64
3, 14544, Note_on_c, 0, 59, 92
3, 14592, Note_off_c, 0, 59, 64
3, 14592, Note_on_c, 0, 51, 92
3, 14784, Note_off_c, 0, 51, 64
3, 14784, Note_on_c, 0, 52, 92
3, 14976, Note_off_c, 0, 52, 64
3, 14976, Note_on_c, 0, 59, 92
3, 15168, Note_off_c, 0, 59, 64
3, 15168, Note_on_c, 0, 47, 92
3, 15360, Note_off_c, 0, 47, 64
3, 15360, Note_on_c, 0, 52, 92
3, 15360, Note_on_c, 0, 55, 92
3, 15360, Note_on_c, 0, 59, 92
3, 15744, Note_off_c, 0, 59, 64
3, 15744, Note_off_c, 0, 55, 64
3, 15744, Note_off_c, 0, 52, 64
3, 21888, Note_on_c, 0, 57, 92
3, 22080, Note_off_c, 0, 57, 64
3, 22080, Note_on_c, 0, 56, 92
3, 22272, Note_off_c, 0, 56, 64
3, 22272, Note_on_c, 0, 57, 92
3, 22656, Note_off_c, 0, 57, 64
3, 23520, Note_on_c, 0, 57, 92
3, 23616, Note_off_c, 0, 57, 64
3, 23616, Note_on_c, 0, 60, 92
3, 23712, Note_off_c, 0, 60, 64
3, 23712, Note_on_c, 0, 57, 92
3, 23808, Note_off_c, 0, 57, 64
3, 23808, Note_on_c, 0, 62, 92
3, 24096, Note_off_c, 0, 62, 64
3, 24096, Note_on_c, 0, 64, 92
3, 24192, Note_off_c, 0, 64, 64
3, 24192, Note_on_c, 0, 65, 92
3, 24288, Note_off_c, 0, 65, 64
3, 24288, Note_on_c, 0, 64, 92
3, 24384, Note_off_c, 0, 64, 64
3, 24384, Note_on_c, 0, 62, 92
3, 24480, Note_off_c, 0, 62, 64
3, 24480, Note_on_c, 0, 60, 92
3, 24576, Note_off_c, 0, 60, 64
3, 24576, Note_on_c, 0, 59, 92
3, 24960, Note_off_c, 0, 59, 64
3, 24960, Note_on_c, 0, 60, 92
3, 25152, Note_off_c, 0, 60, 64
3, 25152, Note_on_c, 0, 59, 92
3, 25248, Note_off_c, 0, 59, 64
3, 25248, Note_on_c, 0, 57, 92
3, 25344, Note_off_c, 0, 57, 64
3, 25344, Note_on_c, 0, 59, 92
3, 26112, Note_off_c, 0, 59, 64
3, 26112, Note_on_c, 0, 57, 92
3, 26688, Note_off_c, 0, 57, 64
3, 40896, Note_on_c, 0, 57, 92
3, 41088, Note_off_c, 0, 57, 64
3, 41088, Note_on_c, 0, 59, 92
3, 41280, Note_off_c, 0, 59, 64
3, 41280, Note_on_c, 0, 60, 92
3, 41472, Note_off_c, 0, 60, 64
3, 41472, Note_on_c, 0, 62, 92
3, 41664, Note_off_c, 0, 62, 64
3, 41664, Note_on_c, 0, 64, 92
3, 41856, Note_off_c, 0, 64, 64
3, 41856, Note_on_c, 0, 62, 92
3, 42048, Note_off_c, 0, 62, 64
3, 42048, Note_on_c, 0, 64, 92
3, 42240, Note_off_c, 0, 64, 64
3, 42240, Note_on_c, 0, 60, 92
3, 42432, Note_off_c, 0, 60, 64
3, 42432, Note_on_c, 0, 59, 92
3, 42624, Note_off_c, 0, 59, 64
3, 42624, Note_on_c, 0, 57, 92
3, 42816, Note_off_c, 0, 57, 64
3, 42816, Note_on_c, 0, 65, 92
3, 43584, Note_off_c, 0, 65, 64
3, 43584, Note_on_c, 0, 64, 92
3, 43776, Note_off_c, 0, 64, 64
3, 43776, Note_on_c, 0, 62, 92
3, 43968, Note_off_c, 0, 62, 64
3, 43968, Note_on_c, 0, 64, 92
3, 44736, Note_off_c, 0, 64, 64
3, 44736, Note_on_c, 0, 62, 92
3, 44928, Note_off_c, 0, 62, 64
3, 44928, Note_on_c, 0, 60, 92
3, 45120, Note_off_c, 0, 60, 64
3, 45120, Note_on_c, 0, 62, 92
3, 45504, Note_off_c, 0, 62, 64
3, 45504, Note_on_c, 0, 60, 92
3, 45696, Note_off_c, 0, 60, 64
3, 45696, Note_on_c, 0, 59, 92
3, 46272, Note_off_c, 0, 59, 64
3, 46656, Note_on_c, 0, 52, 92
3, 46848, Note_off_c, 0, 52, 64
3, 46848, Note_on_c, 0, 54, 92
3, 47040, Note_off_c, 0, 54, 64
3, 47040, Note_on_c, 0, 55, 92
3, 47232, Note_off_c, 0, 55, 64
3, 47232, Note_on_c, 0, 57, 92
3, 47424, Note_off_c, 0, 57, 64
3, 47424, Note_on_c, 0, 59, 92
3, 47616, Note_off_c, 0, 59, 64
3, 47616, Note_on_c, 0, 57, 92
3, 47808, Note_off_c, 0, 57, 64
3, 47808, Note_on_c, 0, 59, 92
3, 48000, Note_off_c, 0, 59, 64
3, 48000, Note_on_c, 0, 55, 92
3, 48192, Note_off_c, 0, 55, 64
3, 48192, Note_on_c, 0, 54, 92
3, 48384, Note_off_c, 0, 54, 64
3, 48384, Note_on_c, 0, 52, 92
3, 48576, Note_off_c, 0, 52, 64
3, 48576, Note_on_c, 0, 60, 92
3, 49344, Note_off_c, 0, 60, 64
3, 49344, Note_on_c, 0, 59, 92
3, 49536, Note_off_c, 0, 59, 64
3, 49536, Note_on_c, 0, 57, 92
3, 49728, Note_off_c, 0, 57, 64
3, 49728, Note_on_c, 0, 59, 92
3, 50496, Note_off_c, 0, 59, 64
3, 50496, Note_on_c, 0, 57, 92
3, 50688, Note_off_c, 0, 57, 64
3, 50688, Note_on_c, 0, 56, 92
3, 50880, Note_off_c, 0, 56, 64
3, 50880, Note_on_c, 0, 57, 92
3, 51648, Note_off_c, 0, 57, 64
3, 51648, Note_on_c, 0, 59, 92
3, 51840, Note_off_c, 0, 59, 64
3, 51840, Note_on_c, 0, 57, 92
3, 52032, Note_off_c, 0, 57, 64
3, 52032, Note_on_c, 0, 55, 92
3, 52224, Note_off_c, 0, 55, 64
3, 52224, Note_on_c, 0, 54, 92
3, 52416, Note_off_c, 0, 54, 64
3, 52416, Note_on_c, 0, 52, 92
3, 52608, Note_off_c, 0, 52, 64
3, 52608, Note_on_c, 0, 54, 92
3, 53184, Note_off_c, 0, 54, 64
3, 53184, Note_on_c, 0, 59, 92
3, 53760, Note_off_c, 0, 59, 64
3, 53760, Note_on_c, 0, 52, 92
3, 53952, Note_off_c, 0, 52, 64
3, 53952, Note_on_c, 0, 54, 92
3, 54144, Note_off_c, 0, 54, 64
3, 54144, Note_on_c, 0, 55, 92
3, 54336, Note_off_c, 0, 55, 64
3, 54336, Note_on_c, 0, 57, 92
3, 54528, Note_off_c, 0, 57, 64
3, 54528, Note_on_c, 0, 55, 92
3, 54720, Note_off_c, 0, 55, 64
3, 54720, Note_on_c, 0, 57, 92
3, 54912, Note_off_c, 0, 57, 64
3, 54912, Note_on_c, 0, 50, 92
3, 55104, Note_off_c, 0, 50, 64
3, 55104, Note_on_c, 0, 52, 92
3, 55296, Note_off_c, 0, 52, 64
3, 55296, Note_on_c, 0, 53, 92
3, 55488, Note_off_c, 0, 53, 64
3, 55488, Note_on_c, 0, 55, 92
3, 55680, Note_off_c, 0, 55, 64
3, 55680, Note_on_c, 0, 53, 92
3, 55872, Note_off_c, 0, 53, 64
3, 55872, Note_on_c, 0, 55, 92
3, 56064, Note_off_c, 0, 55, 64
3, 56064, Note_on_c, 0, 48, 92
3, 56256, Note_off_c, 0, 48, 64
3, 56256, Note_on_c, 0, 50, 92
3, 56448, Note_off_c, 0, 50, 64
3, 56448, Note_on_c, 0, 52, 92
3, 56640, Note_off_c, 0, 52, 64
3, 56640, Note_on_c, 0, 53, 92
3, 56832, Note_off_c, 0, 53, 64
3, 56832, Note_on_c, 0, 52, 92
3, 57024, Note_off_c, 0, 52, 64
3, 57024, Note_on_c, 0, 53, 92
3, 57216, Note_off_c, 0, 53, 64
3, 57216, Note_on_c, 0, 47, 92
3, 57408, Note_off_c, 0, 47, 64
3, 57408, Note_on_c, 0, 48, 92
3, 57600, Note_off_c, 0, 48, 64
3, 57600, Note_on_c, 0, 50, 92
3, 57792, Note_off_c, 0, 50, 64
3, 57792, Note_on_c, 0, 52, 92
3, 57984, Note_off_c, 0, 52, 64
3, 57984, Note_on_c, 0, 50, 92
3, 58176, Note_off_c, 0, 50, 64
3, 58176, Note_on_c, 0, 56, 92
3, 58176, Note_on_c, 0, 52, 92
3, 58368, Note_off_c, 0, 52, 64
3, 58368, Note_off_c, 0, 56, 64
3, 58368, Note_on_c, 0, 55, 92
3, 58560, Note_on_c, 0, 59, 92
3, 58752, Note_off_c, 0, 59, 64
3, 58752, Note_on_c, 0, 60, 92
3, 58944, Note_off_c, 0, 60, 64
3, 58944, Note_off_c, 0, 55, 64
3, 58944, Note_on_c, 0, 59, 92
3, 59136, Note_off_c, 0, 59, 64
3, 59136, Note_on_c, 0, 60, 92
3, 59328, Note_off_c, 0, 60, 64
3, 59328, Note_on_c, 0, 57, 92
3, 59520, Note_on_c, 0, 59, 92
3, 60096, Note_off_c, 0, 57, 64
3, 60096, Note_on_c, 0, 56, 92
3, 60672, Note_off_c, 0, 56, 64
3, 60672, Note_off_c, 0, 59, 64
3, 60672, Note_on_c, 0, 57, 92
3, 61248, Note_off_c, 0, 57, 64
3, 61632, Note_on_c, 0, 62, 92
3, 61824, Note_off_c, 0, 62, 64
3, 61824, Note_on_c, 0, 64, 92
3, 62016, Note_off_c, 0, 64, 64
3, 62016, Note_on_c, 0, 65, 92
3, 62208, Note_off_c, 0, 65, 64
3, 62208, Note_on_c, 0, 67, 92
3, 62400, Note_off_c, 0, 67, 64
3, 62400, Note_on_c, 0, 69, 92
3, 62592, Note_off_c, 0, 69, 64
3, 62592, Note_on_c, 0, 67, 92
3, 62784, Note_off_c, 0, 67, 64
3, 62784, Note_on_c, 0, 69, 92
3, 62976, Note_off_c, 0, 69, 64
3, 62976, Note_on_c, 0, 65, 92
3, 63168, Note_off_c, 0, 65, 64
3, 63168, Note_on_c, 0, 64, 92
3, 63360, Note_off_c, 0, 64, 64
3, 63360, Note_on_c, 0, 62, 92
3, 63552, Note_off_c, 0, 62, 64
3, 63552, Note_on_c, 0, 70, 92
3, 64320, Note_off_c, 0, 70, 64
3, 64320, Note_on_c, 0, 69, 92
3, 64512, Note_off_c, 0, 69, 64
3, 64512, Note_on_c, 0, 67, 92
3, 64704, Note_off_c, 0, 67, 64
3, 64704, Note_on_c, 0, 69, 92
3, 65280, Note_off_c, 0, 69, 64
3, 65280, Note_on_c, 0, 74, 92
3, 66240, Note_off_c, 0, 74, 64
3, 66240, Note_on_c, 0, 72, 92
3, 66240, Note_on_c, 0, 69, 92
3, 66432, Note_off_c, 0, 69, 64
3, 66432, Note_off_c, 0, 72, 64
3, 66432, Note_on_c, 0, 69, 92
3, 67008, Note_off_c, 0, 69, 64
3, 67008, Note_on_c, 0, 64, 92
3, 68160, Note_off_c, 0, 64, 64
3, 68160, Note_on_c, 0, 65, 92
3, 68736, Note_off_c, 0, 65, 64
3, 68736, Note_on_c, 0, 69, 92
3, 68928, Note_off_c, 0, 69, 64
3, 68928, Note_on_c, 0, 67, 92
3, 69120, Note_off_c, 0, 67, 64
3, 69120, Note_on_c, 0, 65, 92
3, 69312, Note_off_c, 0, 65, 64
3, 69312, Note_on_c, 0, 67, 92
3, 70080, Note_off_c, 0, 67, 64
3, 70080, Note_on_c, 0, 65, 92
3, 70272, Note_off_c, 0, 65, 64
3, 70272, Note_on_c, 0, 64, 92
3, 70464, Note_off_c, 0, 64, 64
3, 70464, Note_on_c, 0, 65, 92
3, 71232, Note_off_c, 0, 65, 64
3, 71232, Note_on_c, 0, 64, 92
3, 71424, Note_off_c, 0, 64, 64
3, 71424, Note_on_c, 0, 62, 92
3, 71616, Note_off_c, 0, 62, 64
3, 71616, Note_on_c, 0, 64, 92
3, 72384, Note_off_c, 0, 64, 64
3, 72384, Note_on_c, 0, 62, 92
3, 72576, Note_off_c, 0, 62, 64
3, 72576, Note_on_c, 0, 60, 92
3, 72768, Note_off_c, 0, 60, 64
3, 72768, Note_on_c, 0, 59, 92
3, 72768, Note_on_c, 0, 64, 92
3, 73344, Note_off_c, 0, 64, 64
3, 73344, Note_off_c, 0, 59, 64
3, 73344, Note_on_c, 0, 59, 92
3, 73728, Note_off_c, 0, 59, 64
3, 73728, Note_on_c, 0, 52, 92
3, 73920, Note_off_c, 0, 52, 64
3, 73920, Note_on_c, 0, 54, 92
3, 74112, Note_off_c, 0, 54, 64
3, 74112, Note_on_c, 0, 55, 92
3, 74304, Note_off_c, 0, 55, 64
3, 74304, Note_on_c, 0, 57, 92
3, 74496, Note_off_c, 0, 57, 64
3, 74496, Note_on_c, 0, 59, 92
3, 74688, Note_off_c, 0, 59, 64
3, 74688, Note_on_c, 0, 57, 92
3, 74880, Note_off_c, 0, 57, 64
3, 74880, Note_on_c, 0, 59, 92
3, 75072, Note_off_c, 0, 59, 64
3, 75072, Note_on_c, 0, 56, 92
3, 75264, Note_off_c, 0, 56, 64
3, 75264, Note_on_c, 0, 54, 92
3, 75456, Note_off_c, 0, 54, 64
3, 75456, Note_on_c, 0, 52, 92
3, 75648, Note_off_c, 0, 52, 64
3, 75648, Note_on_c, 0, 57, 92
3, 75648, Note_on_c, 0, 60, 92
3, 76224, Note_off_c, 0, 60, 64
3, 76224, Note_off_c, 0, 57, 64
3, 76224, Note_on_c, 0, 59, 92
3, 76224, Note_on_c, 0, 57, 92
3, 76800, Note_off_c, 0, 57, 64
3, 76800, Note_on_c, 0, 56, 92
3, 77376, Note_off_c, 0, 56, 64
3, 77376, Note_off_c, 0, 59, 64
3, 77376, Note_on_c, 0, 57, 92
3, 77376, Note_on_c, 0, 64, 92
3, 77760, Note_off_c, 0, 64, 64
3, 77760, Note_off_c, 0, 57, 64
3, 77952, Note_on_c, 0, 60, 92
3, 78144, Note_off_c, 0, 60, 64
3, 78144, Note_on_c, 0, 59, 92
3, 78336, Note_off_c, 0, 59, 64
3, 78336, Note_on_c, 0, 57, 92
3, 78528, Note_off_c, 0, 57, 64
3, 78528, Note_on_c, 0, 59, 92
3, 79296, Note_off_c, 0, 59, 64
3, 79296, Note_on_c, 0, 57, 92
3, 79488, Note_off_c, 0, 57, 64
3, 79488, Note_on_c, 0, 55, 92
3, 79680, Note_off_c, 0, 55, 64
3, 79680, Note_on_c, 0, 57, 92
3, 80448, Note_off_c, 0, 57, 64
3, 80448, Note_on_c, 0, 56, 92
3, 80640, Note_off_c, 0, 56, 64
3, 80640, Note_on_c, 0, 54, 92
3, 80832, Note_off_c, 0, 54, 64
3, 80832, Note_on_c, 0, 56, 92
3, 81408, Note_off_c, 0, 56, 64
3, 81408, Note_on_c, 0, 57, 92
3, 81792, Note_off_c, 0, 57, 64
3, 81792, Note_on_c, 0, 57, 92
3, 81984, Note_off_c, 0, 57, 64
3, 81984, Note_on_c, 0, 59, 92
3, 82176, Note_off_c, 0, 59, 64
3, 82176, Note_on_c, 0, 60, 92
3, 82368, Note_off_c, 0, 60, 64
3, 82368, Note_on_c, 0, 62, 92
3, 82560, Note_off_c, 0, 62, 64
3, 82560, Note_on_c, 0, 64, 92
3, 82752, Note_off_c, 0, 64, 64
3, 82752, Note_on_c, 0, 62, 92
3, 82944, Note_off_c, 0, 62, 64
3, 82944, Note_on_c, 0, 64, 92
3, 83136, Note_off_c, 0, 64, 64
3, 83136, Note_on_c, 0, 60, 92
3, 83328, Note_off_c, 0, 60, 64
3, 83328, Note_on_c, 0, 59, 92
3, 83520, Note_off_c, 0, 59, 64
3, 83520, Note_on_c, 0, 57, 92
3, 83712, Note_off_c, 0, 57, 64
3, 83712, Note_on_c, 0, 59, 92
3, 84672, Note_off_c, 0, 59, 64
3, 84672, Note_on_c, 0, 62, 92
3, 85248, Note_off_c, 0, 62, 64
3, 85248, Note_on_c, 0, 62, 102
3, 85440, Note_off_c, 0, 62, 64
3, 85440, Note_on_c, 0, 61, 102
3, 85824, Note_off_c, 0, 61, 64
3, 85824, Note_on_c, 0, 59, 102
3, 86016, Note_off_c, 0, 59, 64
3, 86016, Note_on_c, 0, 61, 92
3, 86016, Note_on_c, 0, 57, 92
3, 87168, Note_off_c, 0, 57, 64
3, 87168, Note_off_c, 0, 61, 64
3, 87168, End_track
4, 0, Start_track
4, 0, Title_t, "Track 3"
4, 0, Note_on_c, 0, 45, 102
4, 384, Note_off_c, 0, 45, 64
4, 4608, Note_on_c, 0, 45, 102
4, 4800, Note_off_c, 0, 45, 64
4, 4800, Note_on_c, 0, 45, 102
4, 4992, Note_off_c, 0, 45, 64
4, 4992, Note_on_c, 0, 45, 102
4, 5184, Note_off_c, 0, 45, 64
4, 5184, Note_on_c, 0, 45, 102
4, 5376, Note_off_c, 0, 45, 64
4, 5376, Note_on_c, 0, 50, 102
4, 5760, Note_off_c, 0, 50, 64
4, 6912, Note_on_c, 0, 43, 102
4, 7104, Note_off_c, 0, 43, 64
4, 7104, Note_on_c, 0, 43, 102
4, 7296, Note_off_c, 0, 43, 64
4, 7296, Note_on_c, 0, 43, 102
4, 7488, Note_off_c, 0, 43, 64
4, 7488, Note_on_c, 0, 43, 102
4, 7680, Note_off_c, 0, 43, 64
4, 7680, Note_on_c, 0, 48, 102
4, 8064, Note_off_c, 0, 48, 64
4, 8160, Note_on_c, 0, 48, 102
4, 8256, Note_off_c, 0, 48, 64
4, 8256, Note_on_c, 0, 52, 102
4, 8352, Note_off_c, 0, 52, 64
4, 8352, Note_on_c, 0, 48, 102
4, 8448, Note_off_c, 0, 48, 64
4, 8448, Note_on_c, 0, 53, 102
4, 8832, Note_off_c, 0, 53, 64
4, 8928, Note_on_c, 0, 50, 102
4, 9024, Note_off_c, 0, 50, 64
4, 9024, Note_on_c, 0, 54, 102
4, 9120, Note_off_c, 0, 54, 64
4, 9120, Note_on_c, 0, 50, 102
4, 9216, Note_off_c, 0, 50, 64
4, 9216, Note_on_c, 0, 55, 102
4, 9600, Note_off_c, 0, 55, 64
4, 9696, Note_on_c, 0, 52, 102
4, 9792, Note_off_c, 0, 52, 64
4, 9792, Note_on_c, 0, 56, 102
4, 9888, Note_off_c, 0, 56, 64
4, 9888, Note_on_c, 0, 52, 102
4, 9984, Note_off_c, 0, 52, 64
4, 9984, Note_on_c, 0, 57, 102
4, 10176, Note_off_c, 0, 57, 64
4, 10176, Note_on_c, 0, 55, 102
4, 10368, Note_off_c, 0, 55, 64
4, 10368, Note_on_c, 0, 53, 102
4, 10752, Note_off_c, 0, 53, 64
4, 10752, Note_on_c, 0, 52, 102
4, 11520, Note_off_c, 0, 52, 64
4, 11520, Note_on_c, 0, 45, 102
4, 12288, Note_off_c, 0, 45, 64
4, 12288, Note_on_c, 0, 47, 102
4, 15360, Note_off_c, 0, 47, 64
4, 15360, Note_on_c, 0, 52, 102
4, 15744, Note_off_c, 0, 52, 64
4, 16128, Note_on_c, 0, 48, 102
4, 16512, Note_off_c, 0, 48, 64
4, 16992, Note_on_c, 0, 48, 102
4, 17088, Note_off_c, 0, 48, 64
4, 17088, Note_on_c, 0, 45, 102
4, 17184, Note_off_c, 0, 45, 64
4, 17184, Note_on_c, 0, 48, 102
4, 17280, Note_off_c, 0, 48, 64
4, 17280, Note_on_c, 0, 41, 102
4, 17664, Note_off_c, 0, 41, 64
4, 17664, Note_on_c, 0, 50, 102
4, 18048, Note_off_c, 0, 50, 64
4, 18528, Note_on_c, 0, 50, 102
4, 18624, Note_off_c, 0, 50, 64
4, 18624, Note_on_c, 0, 47, 102
4, 18720, Note_off_c, 0, 47, 64
4, 18720, Note_on_c, 0, 50, 102
4, 18816, Note_off_c, 0, 50, 64
4, 18816, Note_on_c, 0, 43, 102
4, 19200, Note_off_c, 0, 43, 64
4, 19200, Note_on_c, 0, 52, 102
4, 19584, Note_off_c, 0, 52, 64
4, 20064, Note_on_c, 0, 52, 102
4, 20160, Note_off_c, 0, 52, 64
4, 20160, Note_on_c, 0, 48, 102
4, 20256, Note_off_c, 0, 48, 64
4, 20256, Note_on_c, 0, 52, 102
4, 20352, Note_off_c, 0, 52, 64
4, 20352, Note_on_c, 0, 45, 102
4, 20736, Note_off_c, 0, 45, 64
4, 22368, Note_on_c, 0, 45, 102
4, 22464, Note_off_c, 0, 45, 64
4, 22464, Note_on_c, 0, 48, 102
4, 22560, Note_off_c, 0, 48, 64
4, 22560, Note_on_c, 0, 45, 102
4, 22656, Note_off_c, 0, 45, 64
4, 22656, Note_on_c, 0, 52, 102
4, 22752, Note_off_c, 0, 52, 64
4, 22752, Note_on_c, 0, 45, 102
4, 22848, Note_off_c, 0, 45, 64
4, 22848, Note_on_c, 0, 48, 102
4, 22944, Note_off_c, 0, 48, 64
4, 22944, Note_on_c, 0, 45, 102
4, 23040, Note_off_c, 0, 45, 64
4, 23040, Note_on_c, 0, 57, 102
4, 23424, Note_off_c, 0, 57, 64
4, 23808, Note_on_c, 0, 50, 102
4, 24576, Note_off_c, 0, 50, 64
4, 24576, Note_on_c, 0, 52, 102
4, 26112, Note_off_c, 0, 52, 64
4, 26112, Note_on_c, 0, 45, 102
4, 26688, Note_off_c, 0, 45, 64
4, 66240, Note_on_c, 0, 45, 102
4, 66432, Note_off_c, 0, 45, 64
4, 66432, Note_on_c, 0, 47, 102
4, 66624, Note_off_c, 0, 47, 64
4, 66624, Note_on_c, 0, 48, 102
4, 66816, Note_off_c, 0, 48, 64
4, 66816, Note_on_c, 0, 50, 102
4, 67008, Note_off_c, 0, 50, 64
4, 67008, Note_on_c, 0, 52, 102
4, 67200, Note_off_c, 0, 52, 64
4, 67200, Note_on_c, 0, 50, 102
4, 67392, Note_off_c, 0, 50, 64
4, 67392, Note_on_c, 0, 52, 102
4, 67584, Note_off_c, 0, 52, 64
4, 67584, Note_on_c, 0, 48, 102
4, 67776, Note_off_c, 0, 48, 64
4, 67776, Note_on_c, 0, 47, 102
4, 67968, Note_off_c, 0, 47, 64
4, 67968, Note_on_c, 0, 45, 102
4, 68160, Note_off_c, 0, 45, 64
4, 68160, Note_on_c, 0, 53, 102
4, 68928, Note_off_c, 0, 53, 64
4, 68928, Note_on_c, 0, 52, 102
4, 69120, Note_off_c, 0, 52, 64
4, 69120, Note_on_c, 0, 50, 102
4, 69312, Note_off_c, 0, 50, 64
4, 69312, Note_on_c, 0, 52, 102
4, 70080, Note_off_c, 0, 52, 64
4, 70080, Note_on_c, 0, 50, 102
4, 70272, Note_off_c, 0, 50, 64
4, 70272, Note_on_c, 0, 48, 102
4, 70464, Note_off_c, 0, 48, 64
4, 70464, Note_on_c, 0, 50, 102
4, 71232, Note_off_c, 0, 50, 64
4, 71232, Note_on_c, 0, 48, 102
4, 71424, Note_off_c, 0, 48, 64
4, 71424, Note_on_c, 0, 47, 102
4, 71616, Note_off_c, 0, 47, 64
4, 71616, Note_on_c, 0, 48, 102
4, 72384, Note_off_c, 0, 48, 64
4, 72384, Note_on_c, 0, 47, 102
4, 72576, Note_off_c, 0, 47, 64
4, 72576, Note_on_c, 0, 45, 102
4, 72768, Note_off_c, 0, 45, 64
4, 72768, Note_on_c, 0, 52, 102
4, 73920, Note_off_c, 0, 52, 64
4, 73920, Note_on_c, 0, 47, 102
4, 75072, Note_off_c, 0, 47, 64
4, 75072, Note_on_c, 0, 52, 102
4, 84864, Note_off_c, 0, 52, 64
4, 84864, Note_on_c, 0, 45, 102
4, 87168, Note_off_c, 0, 45, 64
4, 87168, End_track
0, 0, End_of_file
