0, 0, Header, 1, 4, 120
1, 0, Start_track
1, 0, Title_t, "untitled"
1, 0, Time_signature, 4, 2, 24, 8
1, 0, Key_signature, 0, "major"
1, 0, Tempo, 666667
1, 0, Marker_t, "tpnvnt13.pc"
1, 0, Marker_t, "Staff:0 "
1, 10926, Tempo, 670391
1, 10930, Tempo, 666667
1, 10943, Tempo, 670391
1, 10966, Tempo, 670391
1, 10983, Tempo, 674157
1, 11013, Tempo, 677966
1, 11016, Tempo, 681818
1, 11020, Tempo, 685714
1, 11023, Tempo, 677966
1, 11033, Tempo, 685714
1, 11040, Tempo, 674157
1, 11055, Tempo, 677966
1, 11060, Tempo, 681818
1, 11065, Tempo, 685714
1, 11080, Tempo, 689655
1, 11090, Tempo, 693642
1, 11100, Tempo, 697674
1, 11105, Tempo, 701754
1, 11110, Tempo, 705882
1, 11130, Tempo, 714286
1, 11145, Tempo, 718563
1, 11155, Tempo, 727273
1, 11170, Tempo, 736196
1, 11175, Tempo, 740741
1, 11180, Tempo, 745342
1, 11205, Tempo, 750000
1, 11220, Tempo, 759494
1, 11230, Tempo, 764331
1, 11245, Tempo, 769231
1, 11255, Tempo, 774194
1, 11265, Tempo, 784314
1, 11280, Tempo, 794702
1, 11305, Tempo, 810811
1, 11320, Tempo, 821918
1, 11335, Tempo, 833333
1, 11385, Tempo, 845070
1, 11400, Tempo, 863309
1, 11415, Tempo, 869565
1, 11425, Tempo, 882353
1, 11440, Tempo, 888889
1, 11450, Tempo, 895522
1, 11455, Tempo, 909091
1, 11470, Tempo, 916031
1, 11475, Tempo, 923077
1, 11485, Tempo, 937500
1, 11495, Tempo, 944882
1, 11520, Tempo, 960000
1, 11535, Tempo, 975610
1, 11540, Tempo, 983607
1, 11550, Tempo, 991736
1, 11570, Tempo, 1000000
1, 11575, Tempo, 1008403
1, 11590, Tempo, 1025641
1, 11600, Tempo, 1034483
1, 11625, Tempo, 1052632
1, 11640, Tempo, 1061947
1, 11650, Tempo, 1071429
1, 11665, Tempo, 1081081
1, 11680, Tempo, 1090909
1, 11690, Tempo, 1100917
1, 11700, Tempo, 1111111
1, 11725, Tempo, 1121495
1, 11735, Tempo, 1132075
1, 11765, Tempo, 1142857
1, 11775, Tempo, 1153846
1, 11790, Tempo, 1165049
1, 11815, Tempo, 1176471
1, 11825, Tempo, 1188119
1, 11835, Tempo, 1200000
1, 11855, Tempo, 1212121
1, 11870, Tempo, 1224490
1, 11885, Tempo, 1237113
1, 11905, Tempo, 1250000
1, 11915, Tempo, 1263158
1, 11930, Tempo, 1276596
1, 11940, Tempo, 1290323
1, 11965, Tempo, 1304348
1, 11980, Tempo, 1318681
1, 12050, Tempo, 1304348
1, 12055, Tempo, 1318681
1, 12080, Tempo, 1333333
1, 12155, Tempo, 1348315
1, 12230, Tempo, 1363636
1, 12325, Tempo, 1348315
1, 12380, Tempo, 1333333
1, 12425, Tempo, 1318681
1, 12470, Tempo, 1304348
1, 12510, Tempo, 1318681
1, 12545, Tempo, 1333333
1, 12545, End_track
2, 0, Start_track
2, 0, Title_t, "FLUTE"
2, 0, Program_c, 0, 0
2, 0, Control_c, 0, 7, 107
2, 0, Control_c, 0, 10, 41
2, 10, Control_c, 0, 7, 96
2, 30, Note_on_c, 0, 64, 127
2, 40, Control_c, 0, 7, 95
2, 60, Note_on_c, 0, 64, 0
2, 60, Note_on_c, 0, 69, 127
2, 90, Note_on_c, 0, 69, 0
2, 90, Note_on_c, 0, 72, 127
2, 120, Note_on_c, 0, 72, 0
2, 120, Note_on_c, 0, 71, 127
2, 150, Note_on_c, 0, 71, 0
2, 150, Note_on_c, 0, 64, 127
2, 180, Note_on_c, 0, 64, 0
2, 180, Note_on_c, 0, 71, 127
2, 210, Note_on_c, 0, 71, 0
2, 210, Note_on_c, 0, 74, 127
2, 240, Note_on_c, 0, 74, 0
2, 240, Note_on_c, 0, 72, 127
2, 270, Note_on_c, 0, 72, 0
2, 300, Note_on_c, 0, 76, 127
2, 330, Note_on_c, 0, 76, 0
2, 360, Note_on_c, 0, 68, 127
2, 390, Note_on_c, 0, 68, 0
2, 420, Note_on_c, 0, 76, 127
2, 450, Note_on_c, 0, 76, 0
2, 480, Note_on_c, 0, 69, 127
2, 510, Note_on_c, 0, 69, 0
2, 510, Note_on_c, 0, 64, 127
2, 540, Note_on_c, 0, 64, 0
2, 540, Note_on_c, 0, 69, 127
2, 570, Note_on_c, 0, 69, 0
2, 570, Note_on_c, 0, 72, 127
2, 600, Note_on_c, 0, 72, 0
2, 600, Note_on_c, 0, 71, 127
2, 630, Note_on_c, 0, 71, 0
2, 630, Note_on_c, 0, 64, 127
2, 660, Note_on_c, 0, 64, 0
2, 660, Note_on_c, 0, 71, 127
2, 690, Note_on_c, 0, 71, 0
2, 690, Note_on_c, 0, 74, 127
2, 720, Note_on_c, 0, 74, 0
2, 720, Note_on_c, 0, 72, 127
2, 750, Note_on_c, 0, 72, 0
2, 780, Note_on_c, 0, 69, 127
2, 810, Note_on_c, 0, 69, 0
2, 820, Control_c, 0, 7, 96
2, 860, Control_c, 0, 7, 97
2, 970, Control_c, 0, 7, 98
2, 990, Note_on_c, 0, 76, 127
2, 1020, Note_on_c, 0, 76, 0
2, 1020, Note_on_c, 0, 72, 127
2, 1030, Control_c, 0, 7, 99
2, 1040, Control_c, 0, 7, 100
2, 1050, Note_on_c, 0, 72, 0
2, 1050, Note_on_c, 0, 76, 127
2, 1080, Note_on_c, 0, 76, 0
2, 1080, Note_on_c, 0, 69, 127
2, 1080, Control_c, 0, 7, 101
2, 1100, Control_c, 0, 7, 102
2, 1110, Note_on_c, 0, 69, 0
2, 1110, Note_on_c, 0, 72, 127
2, 1140, Note_on_c, 0, 72, 0
2, 1140, Note_on_c, 0, 64, 127
2, 1140, Control_c, 0, 7, 103
2, 1150, Control_c, 0, 7, 104
2, 1170, Note_on_c, 0, 64, 0
2, 1170, Note_on_c, 0, 67, 127
2, 1200, Note_on_c, 0, 67, 0
2, 1200, Note_on_c, 0, 65, 127
2, 1230, Note_on_c, 0, 65, 0
2, 1240, Control_c, 0, 7, 105
2, 1260, Note_on_c, 0, 69, 127
2, 1270, Control_c, 0, 7, 106
2, 1290, Note_on_c, 0, 69, 0
2, 1310, Control_c, 0, 7, 107
2, 1320, Note_on_c, 0, 74, 127
2, 1320, Control_c, 0, 7, 108
2, 1330, Control_c, 0, 7, 109
2, 1350, Note_on_c, 0, 74, 0
2, 1360, Control_c, 0, 7, 110
2, 1370, Control_c, 0, 7, 111
2, 1380, Note_on_c, 0, 77, 127
2, 1400, Control_c, 0, 7, 113
2, 1410, Control_c, 0, 7, 114
2, 1440, Control_c, 0, 7, 115
2, 1470, Note_on_c, 0, 77, 0
2, 1470, Note_on_c, 0, 74, 127
2, 1500, Note_on_c, 0, 74, 0
2, 1500, Note_on_c, 0, 71, 127
2, 1530, Note_on_c, 0, 71, 0
2, 1530, Note_on_c, 0, 74, 127
2, 1560, Note_on_c, 0, 74, 0
2, 1560, Note_on_c, 0, 67, 127
2, 1590, Note_on_c, 0, 67, 0
2, 1590, Note_on_c, 0, 71, 127
2, 1620, Note_on_c, 0, 71, 0
2, 1620, Note_on_c, 0, 62, 127
2, 1650, Note_on_c, 0, 62, 0
2, 1650, Note_on_c, 0, 65, 127
2, 1680, Note_on_c, 0, 65, 0
2, 1680, Note_on_c, 0, 64, 127
2, 1710, Note_on_c, 0, 64, 0
2, 1740, Note_on_c, 0, 67, 127
2, 1770, Note_on_c, 0, 67, 0
2, 1800, Note_on_c, 0, 72, 127
2, 1830, Note_on_c, 0, 72, 0
2, 1860, Note_on_c, 0, 76, 127
2, 1950, Note_on_c, 0, 76, 0
2, 1950, Note_on_c, 0, 72, 127
2, 1980, Note_on_c, 0, 72, 0
2, 1980, Note_on_c, 0, 69, 127
2, 2010, Note_on_c, 0, 69, 0
2, 2010, Note_on_c, 0, 72, 127
2, 2040, Note_on_c, 0, 72, 0
2, 2040, Note_on_c, 0, 65, 127
2, 2070, Note_on_c, 0, 65, 0
2, 2100, Note_on_c, 0, 74, 127
2, 2190, Note_on_c, 0, 74, 0
2, 2190, Note_on_c, 0, 71, 127
2, 2220, Note_on_c, 0, 71, 0
2, 2220, Note_on_c, 0, 67, 127
2, 2250, Note_on_c, 0, 67, 0
2, 2250, Note_on_c, 0, 71, 127
2, 2280, Note_on_c, 0, 71, 0
2, 2280, Note_on_c, 0, 64, 127
2, 2280, Control_c, 0, 7, 110
2, 2300, Control_c, 0, 7, 109
2, 2310, Note_on_c, 0, 64, 0
2, 2310, Control_c, 0, 7, 108
2, 2330, Control_c, 0, 7, 107
2, 2340, Note_on_c, 0, 72, 127
2, 2350, Control_c, 0, 7, 106
2, 2360, Control_c, 0, 7, 105
2, 2390, Control_c, 0, 7, 104
2, 2410, Control_c, 0, 7, 103
2, 2430, Note_on_c, 0, 72, 0
2, 2430, Note_on_c, 0, 69, 127
2, 2430, Control_c, 0, 7, 102
2, 2440, Control_c, 0, 7, 101
2, 2460, Note_on_c, 0, 69, 0
2, 2460, Note_on_c, 0, 65, 127
2, 2470, Control_c, 0, 7, 100
2, 2490, Note_on_c, 0, 65, 0
2, 2490, Note_on_c, 0, 69, 127
2, 2490, Control_c, 0, 7, 99
2, 2520, Note_on_c, 0, 69, 0
2, 2520, Note_on_c, 0, 62, 127
2, 2520, Control_c, 0, 7, 97
2, 2540, Control_c, 0, 7, 96
2, 2550, Note_on_c, 0, 62, 0
2, 2570, Control_c, 0, 7, 95
2, 2580, Note_on_c, 0, 71, 127
2, 2580, Control_c, 0, 7, 94
2, 2600, Control_c, 0, 7, 93
2, 2610, Note_on_c, 0, 71, 0
2, 2610, Control_c, 0, 7, 92
2, 2620, Control_c, 0, 7, 91
2, 2630, Control_c, 0, 7, 90
2, 2640, Note_on_c, 0, 72, 127
2, 2640, Control_c, 0, 7, 89
2, 2670, Control_c, 0, 7, 87
2, 2680, Control_c, 0, 7, 85
2, 2690, Control_c, 0, 7, 82
2, 2700, Note_on_c, 0, 72, 0
2, 2700, Control_c, 0, 7, 81
2, 2710, Control_c, 0, 7, 80
2, 2720, Control_c, 0, 7, 78
2, 2730, Control_c, 0, 7, 77
2, 2740, Control_c, 0, 7, 75
2, 2750, Control_c, 0, 7, 74
2, 2830, Control_c, 0, 7, 73
2, 2840, Control_c, 0, 7, 72
2, 2880, Control_c, 0, 7, 71
2, 2910, Note_on_c, 0, 67, 127
2, 2940, Note_on_c, 0, 67, 0
2, 2940, Note_on_c, 0, 72, 127
2, 2970, Note_on_c, 0, 72, 0
2, 2970, Note_on_c, 0, 76, 127
2, 3000, Note_on_c, 0, 76, 0
2, 3000, Note_on_c, 0, 74, 127
2, 3030, Note_on_c, 0, 74, 0
2, 3030, Note_on_c, 0, 67, 127
2, 3060, Note_on_c, 0, 67, 0
2, 3060, Note_on_c, 0, 74, 127
2, 3090, Note_on_c, 0, 74, 0
2, 3090, Note_on_c, 0, 77, 127
2, 3120, Note_on_c, 0, 77, 0
2, 3120, Note_on_c, 0, 76, 127
2, 3150, Note_on_c, 0, 76, 0
2, 3180, Note_on_c, 0, 79, 127
2, 3210, Note_on_c, 0, 79, 0
2, 3240, Note_on_c, 0, 71, 127
2, 3270, Note_on_c, 0, 71, 0
2, 3300, Note_on_c, 0, 79, 127
2, 3330, Note_on_c, 0, 79, 0
2, 3360, Note_on_c, 0, 72, 127
2, 3370, Control_c, 0, 7, 65
2, 3380, Control_c, 0, 7, 66
2, 3390, Note_on_c, 0, 72, 0
2, 3390, Note_on_c, 0, 67, 127
2, 3400, Control_c, 0, 7, 67
2, 3420, Note_on_c, 0, 67, 0
2, 3420, Note_on_c, 0, 72, 127
2, 3420, Control_c, 0, 7, 68
2, 3430, Control_c, 0, 7, 69
2, 3450, Note_on_c, 0, 72, 0
2, 3450, Note_on_c, 0, 76, 127
2, 3450, Control_c, 0, 7, 70
2, 3470, Control_c, 0, 7, 71
2, 3480, Note_on_c, 0, 76, 0
2, 3480, Note_on_c, 0, 74, 127
2, 3480, Control_c, 0, 7, 72
2, 3510, Note_on_c, 0, 74, 0
2, 3510, Note_on_c, 0, 67, 127
2, 3510, Control_c, 0, 7, 73
2, 3520, Control_c, 0, 7, 74
2, 3540, Note_on_c, 0, 67, 0
2, 3540, Note_on_c, 0, 74, 127
2, 3550, Control_c, 0, 7, 75
2, 3570, Note_on_c, 0, 74, 0
2, 3570, Note_on_c, 0, 77, 127
2, 3570, Control_c, 0, 7, 78
2, 3590, Control_c, 0, 7, 80
2, 3600, Note_on_c, 0, 77, 0
2, 3600, Note_on_c, 0, 76, 127
2, 3620, Control_c, 0, 7, 81
2, 3630, Note_on_c, 0, 76, 0
2, 3650, Control_c, 0, 7, 83
2, 3660, Note_on_c, 0, 72, 127
2, 3670, Control_c, 0, 7, 84
2, 3690, Note_on_c, 0, 72, 0
2, 3690, Control_c, 0, 7, 85
2, 3710, Control_c, 0, 7, 86
2, 3720, Note_on_c, 0, 79, 127
2, 3740, Control_c, 0, 7, 87
2, 3750, Note_on_c, 0, 79, 0
2, 3780, Note_on_c, 0, 76, 127
2, 3780, Control_c, 0, 7, 89
2, 3810, Note_on_c, 0, 76, 0
2, 3810, Control_c, 0, 7, 90
2, 3840, Note_on_c, 0, 84, 127
2, 3840, Control_c, 0, 7, 92
2, 3850, Control_c, 0, 7, 93
2, 3860, Control_c, 0, 7, 94
2, 3870, Note_on_c, 0, 84, 0
2, 3870, Note_on_c, 0, 81, 127
2, 3880, Control_c, 0, 7, 95
2, 3890, Control_c, 0, 7, 96
2, 3900, Note_on_c, 0, 81, 0
2, 3900, Note_on_c, 0, 76, 127
2, 3910, Control_c, 0, 7, 98
2, 3930, Note_on_c, 0, 76, 0
2, 3930, Note_on_c, 0, 81, 127
2, 3930, Control_c, 0, 7, 100
2, 3940, Control_c, 0, 7, 101
2, 3950, Control_c, 0, 7, 102
2, 3960, Note_on_c, 0, 81, 0
2, 3960, Note_on_c, 0, 72, 127
2, 3970, Control_c, 0, 7, 103
2, 3990, Note_on_c, 0, 72, 0
2, 3990, Note_on_c, 0, 76, 127
2, 4000, Control_c, 0, 7, 104
2, 4020, Note_on_c, 0, 76, 0
2, 4020, Note_on_c, 0, 69, 127
2, 4020, Control_c, 0, 7, 105
2, 4050, Note_on_c, 0, 69, 0
2, 4050, Note_on_c, 0, 72, 127
2, 4070, Control_c, 0, 7, 106
2, 4080, Note_on_c, 0, 72, 0
2, 4080, Note_on_c, 0, 74, 127
2, 4080, Control_c, 0, 7, 107
2, 4110, Note_on_c, 0, 74, 0
2, 4120, Control_c, 0, 7, 109
2, 4140, Note_on_c, 0, 78, 127
2, 4170, Note_on_c, 0, 78, 0
2, 4200, Note_on_c, 0, 81, 127
2, 4200, Control_c, 0, 7, 110
2, 4230, Note_on_c, 0, 81, 0
2, 4230, Control_c, 0, 7, 111
2, 4260, Note_on_c, 0, 84, 127
2, 4280, Control_c, 0, 7, 112
2, 4290, Note_on_c, 0, 84, 0
2, 4290, Control_c, 0, 7, 114
2, 4310, Control_c, 0, 7, 115
2, 4320, Note_on_c, 0, 83, 127
2, 4340, Control_c, 0, 7, 116
2, 4350, Note_on_c, 0, 83, 0
2, 4350, Note_on_c, 0, 79, 127
2, 4380, Note_on_c, 0, 79, 0
2, 4380, Note_on_c, 0, 74, 127
2, 4410, Note_on_c, 0, 74, 0
2, 4410, Note_on_c, 0, 79, 127
2, 4440, Note_on_c, 0, 79, 0
2, 4440, Note_on_c, 0, 71, 127
2, 4470, Note_on_c, 0, 71, 0
2, 4470, Note_on_c, 0, 74, 127
2, 4500, Note_on_c, 0, 74, 0
2, 4500, Note_on_c, 0, 67, 127
2, 4530, Note_on_c, 0, 67, 0
2, 4530, Note_on_c, 0, 71, 127
2, 4560, Note_on_c, 0, 71, 0
2, 4560, Note_on_c, 0, 72, 127
2, 4590, Note_on_c, 0, 72, 0
2, 4620, Note_on_c, 0, 76, 127
2, 4650, Note_on_c, 0, 76, 0
2, 4680, Note_on_c, 0, 79, 127
2, 4710, Note_on_c, 0, 79, 0
2, 4740, Note_on_c, 0, 83, 127
2, 4770, Note_on_c, 0, 83, 0
2, 4800, Note_on_c, 0, 81, 127
2, 4830, Note_on_c, 0, 81, 0
2, 4830, Note_on_c, 0, 78, 127
2, 4860, Note_on_c, 0, 78, 0
2, 4860, Note_on_c, 0, 75, 127
2, 4890, Note_on_c, 0, 75, 0
2, 4890, Note_on_c, 0, 78, 127
2, 4920, Note_on_c, 0, 78, 0
2, 4920, Note_on_c, 0, 71, 127
2, 4950, Note_on_c, 0, 71, 0
2, 4950, Note_on_c, 0, 75, 127
2, 4980, Note_on_c, 0, 75, 0
2, 4980, Note_on_c, 0, 66, 127
2, 5010, Note_on_c, 0, 66, 0
2, 5010, Note_on_c, 0, 69, 127
2, 5040, Note_on_c, 0, 69, 0
2, 5040, Note_on_c, 0, 67, 127
2, 5070, Note_on_c, 0, 67, 0
2, 5070, Control_c, 0, 7, 108
2, 5080, Control_c, 0, 7, 107
2, 5090, Control_c, 0, 7, 106
2, 5100, Note_on_c, 0, 79, 127
2, 5100, Control_c, 0, 7, 105
2, 5120, Control_c, 0, 7, 104
2, 5140, Control_c, 0, 7, 103
2, 5150, Control_c, 0, 7, 102
2, 5190, Note_on_c, 0, 79, 0
2, 5190, Note_on_c, 0, 76, 127
2, 5200, Control_c, 0, 7, 101
2, 5210, Control_c, 0, 7, 100
2, 5220, Note_on_c, 0, 76, 0
2, 5220, Note_on_c, 0, 72, 127
2, 5220, Control_c, 0, 7, 99
2, 5230, Control_c, 0, 7, 98
2, 5240, Control_c, 0, 7, 96
2, 5250, Note_on_c, 0, 72, 0
2, 5250, Note_on_c, 0, 76, 127
2, 5280, Note_on_c, 0, 76, 0
2, 5280, Note_on_c, 0, 69, 127
2, 5280, Control_c, 0, 7, 95
2, 5290, Control_c, 0, 7, 94
2, 5300, Control_c, 0, 7, 93
2, 5310, Control_c, 0, 7, 92
2, 5330, Control_c, 0, 7, 91
2, 5340, Note_on_c, 0, 69, 0
2, 5340, Note_on_c, 0, 78, 127
2, 5350, Control_c, 0, 7, 90
2, 5380, Control_c, 0, 7, 89
2, 5390, Control_c, 0, 7, 90
2, 5420, Control_c, 0, 7, 89
2, 5430, Note_on_c, 0, 78, 0
2, 5430, Note_on_c, 0, 74, 127
2, 5440, Control_c, 0, 7, 88
2, 5460, Note_on_c, 0, 74, 0
2, 5460, Note_on_c, 0, 71, 127
2, 5490, Note_on_c, 0, 71, 0
2, 5490, Note_on_c, 0, 74, 127
2, 5500, Control_c, 0, 7, 87
2, 5520, Note_on_c, 0, 74, 0
2, 5520, Note_on_c, 0, 67, 127
2, 5540, Control_c, 0, 7, 86
2, 5550, Note_on_c, 0, 67, 0
2, 5580, Note_on_c, 0, 76, 127
2, 5600, Control_c, 0, 7, 85
2, 5630, Control_c, 0, 7, 84
2, 5670, Note_on_c, 0, 76, 0
2, 5670, Note_on_c, 0, 72, 127
2, 5680, Control_c, 0, 7, 82
2, 5700, Note_on_c, 0, 72, 0
2, 5700, Note_on_c, 0, 69, 127
2, 5710, Control_c, 0, 7, 81
2, 5720, Control_c, 0, 7, 80
2, 5730, Note_on_c, 0, 69, 0
2, 5730, Note_on_c, 0, 72, 127
2, 5740, Control_c, 0, 7, 79
2, 5760, Note_on_c, 0, 72, 0
2, 5760, Note_on_c, 0, 66, 127
2, 5760, Control_c, 0, 7, 78
2, 5770, Control_c, 0, 7, 77
2, 5790, Note_on_c, 0, 66, 0
2, 5790, Note_on_c, 0, 79, 127
2, 5800, Control_c, 0, 7, 76
2, 5810, Control_c, 0, 7, 75
2, 5820, Note_on_c, 0, 79, 0
2, 5820, Note_on_c, 0, 78, 127
2, 5830, Control_c, 0, 7, 74
2, 5850, Note_on_c, 0, 78, 0
2, 5850, Note_on_c, 0, 76, 127
2, 5880, Note_on_c, 0, 76, 0
2, 5880, Note_on_c, 0, 75, 127
2, 5880, Control_c, 0, 7, 73
2, 5890, Control_c, 0, 7, 72
2, 5910, Note_on_c, 0, 75, 0
2, 5910, Note_on_c, 0, 78, 127
2, 5930, Control_c, 0, 7, 71
2, 5940, Note_on_c, 0, 78, 0
2, 5940, Note_on_c, 0, 71, 127
2, 5970, Note_on_c, 0, 71, 0
2, 5970, Note_on_c, 0, 75, 127
2, 6000, Note_on_c, 0, 75, 0
2, 6000, Note_on_c, 0, 76, 127
2, 6000, Control_c, 0, 7, 69
2, 6010, Control_c, 0, 7, 68
2, 6030, Control_c, 0, 7, 67
2, 6060, Note_on_c, 0, 76, 0
2, 6240, Control_c, 0, 7, 110
2, 6270, Note_on_c, 0, 79, 127
2, 6300, Note_on_c, 0, 79, 0
2, 6300, Note_on_c, 0, 82, 127
2, 6330, Note_on_c, 0, 82, 0
2, 6330, Note_on_c, 0, 79, 127
2, 6360, Note_on_c, 0, 79, 0
2, 6360, Note_on_c, 0, 76, 127
2, 6390, Note_on_c, 0, 76, 0
2, 6390, Note_on_c, 0, 79, 127
2, 6420, Note_on_c, 0, 79, 0
2, 6420, Note_on_c, 0, 73, 127
2, 6450, Note_on_c, 0, 73, 0
2, 6450, Note_on_c, 0, 76, 127
2, 6480, Note_on_c, 0, 76, 0
2, 6480, Note_on_c, 0, 79, 127
2, 6510, Note_on_c, 0, 79, 0
2, 6510, Note_on_c, 0, 76, 127
2, 6540, Note_on_c, 0, 76, 0
2, 6540, Note_on_c, 0, 73, 127
2, 6570, Note_on_c, 0, 73, 0
2, 6570, Note_on_c, 0, 76, 127
2, 6600, Note_on_c, 0, 76, 0
2, 6600, Note_on_c, 0, 69, 127
2, 6630, Note_on_c, 0, 69, 0
2, 6750, Note_on_c, 0, 77, 127
2, 6780, Note_on_c, 0, 77, 0
2, 6780, Note_on_c, 0, 81, 127
2, 6810, Note_on_c, 0, 81, 0
2, 6810, Note_on_c, 0, 77, 127
2, 6840, Note_on_c, 0, 77, 0
2, 6840, Note_on_c, 0, 74, 127
2, 6870, Note_on_c, 0, 74, 0
2, 6870, Note_on_c, 0, 77, 127
2, 6900, Note_on_c, 0, 77, 0
2, 6900, Note_on_c, 0, 71, 127
2, 6920, Control_c, 0, 7, 110
2, 6930, Note_on_c, 0, 71, 0
2, 6930, Note_on_c, 0, 74, 127
2, 6960, Note_on_c, 0, 74, 0
2, 6960, Note_on_c, 0, 77, 127
2, 6990, Note_on_c, 0, 77, 0
2, 6990, Note_on_c, 0, 74, 127
2, 7000, Control_c, 0, 7, 109
2, 7020, Note_on_c, 0, 74, 0
2, 7020, Note_on_c, 0, 71, 127
2, 7030, Control_c, 0, 7, 108
2, 7050, Note_on_c, 0, 71, 0
2, 7050, Note_on_c, 0, 74, 127
2, 7060, Control_c, 0, 7, 107
2, 7080, Note_on_c, 0, 74, 0
2, 7080, Note_on_c, 0, 67, 127
2, 7100, Control_c, 0, 7, 106
2, 7110, Note_on_c, 0, 67, 0
2, 7120, Control_c, 0, 7, 105
2, 7130, Control_c, 0, 7, 104
2, 7150, Control_c, 0, 7, 103
2, 7180, Control_c, 0, 7, 102
2, 7190, Control_c, 0, 7, 101
2, 7210, Control_c, 0, 7, 100
2, 7220, Control_c, 0, 7, 99
2, 7230, Note_on_c, 0, 76, 127
2, 7230, Control_c, 0, 7, 98
2, 7250, Control_c, 0, 7, 97
2, 7260, Note_on_c, 0, 76, 0
2, 7260, Note_on_c, 0, 79, 127
2, 7260, Control_c, 0, 7, 96
2, 7290, Note_on_c, 0, 79, 0
2, 7290, Note_on_c, 0, 76, 127
2, 7300, Control_c, 0, 7, 94
2, 7310, Control_c, 0, 7, 93
2, 7320, Note_on_c, 0, 76, 0
2, 7320, Note_on_c, 0, 72, 127
2, 7340, Control_c, 0, 7, 92
2, 7350, Note_on_c, 0, 72, 0
2, 7350, Note_on_c, 0, 76, 127
2, 7370, Control_c, 0, 7, 91
2, 7380, Note_on_c, 0, 76, 0
2, 7380, Note_on_c, 0, 69, 127
2, 7390, Control_c, 0, 7, 90
2, 7410, Note_on_c, 0, 69, 0
2, 7410, Note_on_c, 0, 72, 127
2, 7420, Control_c, 0, 7, 89
2, 7440, Note_on_c, 0, 72, 0
2, 7440, Note_on_c, 0, 75, 127
2, 7440, Control_c, 0, 7, 88
2, 7470, Note_on_c, 0, 75, 0
2, 7470, Note_on_c, 0, 72, 127
2, 7470, Control_c, 0, 7, 87
2, 7490, Control_c, 0, 7, 86
2, 7500, Note_on_c, 0, 72, 0
2, 7500, Note_on_c, 0, 69, 127
2, 7510, Control_c, 0, 7, 85
2, 7530, Note_on_c, 0, 69, 0
2, 7530, Note_on_c, 0, 72, 127
2, 7530, Control_c, 0, 7, 84
2, 7560, Note_on_c, 0, 72, 0
2, 7560, Note_on_c, 0, 66, 127
2, 7560, Control_c, 0, 7, 83
2, 7590, Note_on_c, 0, 66, 0
2, 7600, Control_c, 0, 7, 82
2, 7640, Control_c, 0, 7, 81
2, 7700, Control_c, 0, 7, 80
2, 7710, Note_on_c, 0, 74, 127
2, 7730, Control_c, 0, 7, 79
2, 7740, Note_on_c, 0, 74, 0
2, 7740, Note_on_c, 0, 77, 127
2, 7770, Note_on_c, 0, 77, 0
2, 7770, Note_on_c, 0, 74, 127
2, 7800, Note_on_c, 0, 74, 0
2, 7800, Note_on_c, 0, 71, 127
2, 7800, Control_c, 0, 7, 78
2, 7810, Control_c, 0, 7, 77
2, 7830, Note_on_c, 0, 71, 0
2, 7830, Note_on_c, 0, 74, 127
2, 7850, Control_c, 0, 7, 76
2, 7860, Note_on_c, 0, 74, 0
2, 7860, Note_on_c, 0, 68, 127
2, 7890, Note_on_c, 0, 68, 0
2, 7890, Note_on_c, 0, 71, 127
2, 7910, Control_c, 0, 7, 75
2, 7920, Note_on_c, 0, 71, 0
2, 7920, Note_on_c, 0, 74, 127
2, 7940, Control_c, 0, 7, 74
2, 7950, Note_on_c, 0, 74, 0
2, 7950, Note_on_c, 0, 71, 127
2, 7980, Note_on_c, 0, 71, 0
2, 7980, Note_on_c, 0, 68, 127
2, 7990, Control_c, 0, 7, 73
2, 8010, Note_on_c, 0, 68, 0
2, 8010, Note_on_c, 0, 71, 127
2, 8010, Control_c, 0, 7, 72
2, 8040, Note_on_c, 0, 71, 0
2, 8040, Note_on_c, 0, 64, 127
2, 8060, Control_c, 0, 7, 71
2, 8070, Note_on_c, 0, 64, 0
2, 8090, Control_c, 0, 7, 70
2, 8100, Control_c, 0, 7, 69
2, 8160, Control_c, 0, 7, 68
2, 8190, Note_on_c, 0, 64, 127
2, 8190, Control_c, 0, 7, 67
2, 8220, Note_on_c, 0, 64, 0
2, 8220, Note_on_c, 0, 69, 127
2, 8250, Note_on_c, 0, 69, 0
2, 8250, Note_on_c, 0, 72, 127
2, 8280, Note_on_c, 0, 72, 0
2, 8280, Note_on_c, 0, 71, 127
2, 8310, Note_on_c, 0, 71, 0
2, 8310, Note_on_c, 0, 64, 127
2, 8340, Note_on_c, 0, 64, 0
2, 8340, Note_on_c, 0, 71, 127
2, 8370, Note_on_c, 0, 71, 0
2, 8370, Note_on_c, 0, 74, 127
2, 8400, Note_on_c, 0, 74, 0
2, 8400, Note_on_c, 0, 72, 127
2, 8460, Note_on_c, 0, 72, 0
2, 8460, Note_on_c, 0, 69, 127
2, 8520, Note_on_c, 0, 69, 0
2, 8520, Note_on_c, 0, 68, 127
2, 8580, Note_on_c, 0, 68, 0
2, 8580, Note_on_c, 0, 64, 127
2, 8640, Note_on_c, 0, 64, 0
2, 8640, Note_on_c, 0, 69, 127
2, 8670, Note_on_c, 0, 69, 0
2, 8670, Note_on_c, 0, 72, 127
2, 8700, Note_on_c, 0, 72, 0
2, 8700, Note_on_c, 0, 76, 127
2, 8730, Note_on_c, 0, 76, 0
2, 8730, Note_on_c, 0, 72, 127
2, 8760, Note_on_c, 0, 72, 0
2, 8760, Note_on_c, 0, 69, 127
2, 8790, Note_on_c, 0, 69, 0
2, 8790, Note_on_c, 0, 72, 127
2, 8820, Note_on_c, 0, 72, 0
2, 8820, Note_on_c, 0, 66, 127
2, 8850, Note_on_c, 0, 66, 0
2, 8850, Note_on_c, 0, 69, 127
2, 8880, Note_on_c, 0, 69, 0
2, 8880, Note_on_c, 0, 72, 127
2, 8910, Note_on_c, 0, 72, 0
2, 8910, Note_on_c, 0, 69, 127
2, 8940, Note_on_c, 0, 69, 0
2, 8940, Note_on_c, 0, 66, 127
2, 8970, Note_on_c, 0, 66, 0
2, 8970, Note_on_c, 0, 69, 127
2, 9000, Note_on_c, 0, 69, 0
2, 9000, Note_on_c, 0, 63, 127
2, 9030, Note_on_c, 0, 63, 0
2, 9030, Note_on_c, 0, 72, 127
2, 9060, Note_on_c, 0, 72, 0
2, 9060, Note_on_c, 0, 71, 127
2, 9090, Note_on_c, 0, 71, 0
2, 9090, Note_on_c, 0, 69, 127
2, 9120, Note_on_c, 0, 69, 0
2, 9120, Note_on_c, 0, 68, 127
2, 9150, Note_on_c, 0, 68, 0
2, 9150, Note_on_c, 0, 71, 127
2, 9180, Note_on_c, 0, 71, 0
2, 9180, Note_on_c, 0, 74, 127
2, 9210, Note_on_c, 0, 74, 0
2, 9210, Note_on_c, 0, 71, 127
2, 9240, Note_on_c, 0, 71, 0
2, 9240, Note_on_c, 0, 68, 127
2, 9270, Note_on_c, 0, 68, 0
2, 9270, Note_on_c, 0, 71, 127
2, 9300, Note_on_c, 0, 71, 0
2, 9300, Note_on_c, 0, 62, 127
2, 9330, Note_on_c, 0, 62, 0
2, 9330, Note_on_c, 0, 65, 127
2, 9360, Note_on_c, 0, 65, 0
2, 9360, Note_on_c, 0, 68, 127
2, 9390, Note_on_c, 0, 68, 0
2, 9390, Note_on_c, 0, 65, 127
2, 9420, Note_on_c, 0, 65, 0
2, 9420, Note_on_c, 0, 62, 127
2, 9450, Note_on_c, 0, 62, 0
2, 9450, Note_on_c, 0, 65, 127
2, 9480, Note_on_c, 0, 65, 0
2, 9480, Note_on_c, 0, 59, 127
2, 9510, Note_on_c, 0, 59, 0
2, 9510, Note_on_c, 0, 65, 127
2, 9540, Note_on_c, 0, 65, 0
2, 9540, Note_on_c, 0, 64, 127
2, 9570, Note_on_c, 0, 64, 0
2, 9570, Note_on_c, 0, 62, 127
2, 9600, Note_on_c, 0, 62, 0
2, 9600, Note_on_c, 0, 60, 127
2, 9630, Note_on_c, 0, 60, 0
2, 9630, Note_on_c, 0, 64, 127
2, 9660, Note_on_c, 0, 64, 0
2, 9660, Note_on_c, 0, 69, 127
2, 9690, Note_on_c, 0, 69, 0
2, 9690, Note_on_c, 0, 64, 127
2, 9720, Note_on_c, 0, 64, 0
2, 9720, Note_on_c, 0, 60, 127
2, 9750, Note_on_c, 0, 60, 0
2, 9750, Note_on_c, 0, 64, 127
2, 9780, Note_on_c, 0, 64, 0
2, 9780, Note_on_c, 0, 57, 127
2, 9810, Note_on_c, 0, 57, 0
2, 9810, Note_on_c, 0, 60, 127
2, 9840, Note_on_c, 0, 60, 0
2, 9840, Note_on_c, 0, 63, 127
2, 9870, Note_on_c, 0, 63, 0
2, 9870, Note_on_c, 0, 60, 127
2, 9900, Note_on_c, 0, 60, 0
2, 9900, Note_on_c, 0, 57, 127
2, 9930, Note_on_c, 0, 57, 0
2, 9930, Note_on_c, 0, 60, 127
2, 9960, Note_on_c, 0, 60, 0
2, 9960, Note_on_c, 0, 54, 127
2, 9990, Note_on_c, 0, 54, 0
2, 9990, Note_on_c, 0, 60, 127
2, 10020, Note_on_c, 0, 60, 0
2, 10020, Note_on_c, 0, 59, 127
2, 10050, Note_on_c, 0, 59, 0
2, 10050, Note_on_c, 0, 57, 127
2, 10080, Note_on_c, 0, 57, 0
2, 10080, Note_on_c, 0, 56, 127
2, 10110, Note_on_c, 0, 56, 0
2, 10140, Note_on_c, 0, 71, 127
2, 10170, Note_on_c, 0, 71, 0
2, 10200, Note_on_c, 0, 68, 127
2, 10230, Note_on_c, 0, 68, 0
2, 10260, Note_on_c, 0, 64, 127
2, 10290, Note_on_c, 0, 64, 0
2, 10350, Note_on_c, 0, 64, 127
2, 10380, Note_on_c, 0, 64, 0
2, 10380, Note_on_c, 0, 69, 127
2, 10410, Note_on_c, 0, 69, 0
2, 10410, Note_on_c, 0, 72, 127
2, 10440, Note_on_c, 0, 72, 0
2, 10440, Note_on_c, 0, 71, 127
2, 10470, Note_on_c, 0, 71, 0
2, 10470, Note_on_c, 0, 64, 127
2, 10500, Note_on_c, 0, 64, 0
2, 10500, Note_on_c, 0, 71, 127
2, 10530, Note_on_c, 0, 71, 0
2, 10530, Note_on_c, 0, 74, 127
2, 10560, Note_on_c, 0, 74, 0
2, 10560, Note_on_c, 0, 72, 127
2, 10560, Control_c, 0, 7, 67
2, 10580, Control_c, 0, 7, 68
2, 10590, Note_on_c, 0, 72, 0
2, 10590, Note_on_c, 0, 69, 127
2, 10590, Control_c, 0, 7, 69
2, 10600, Control_c, 0, 7, 70
2, 10610, Control_c, 0, 7, 71
2, 10620, Note_on_c, 0, 69, 0
2, 10620, Note_on_c, 0, 72, 127
2, 10620, Control_c, 0, 7, 72
2, 10640, Control_c, 0, 7, 73
2, 10650, Note_on_c, 0, 72, 0
2, 10650, Note_on_c, 0, 76, 127
2, 10650, Control_c, 0, 7, 74
2, 10670, Control_c, 0, 7, 76
2, 10680, Note_on_c, 0, 76, 0
2, 10680, Note_on_c, 0, 74, 127
2, 10700, Control_c, 0, 7, 78
2, 10710, Note_on_c, 0, 74, 0
2, 10710, Note_on_c, 0, 71, 127
2, 10720, Control_c, 0, 7, 80
2, 10730, Control_c, 0, 7, 81
2, 10740, Note_on_c, 0, 71, 0
2, 10740, Note_on_c, 0, 74, 127
2, 10750, Control_c, 0, 7, 82
2, 10760, Control_c, 0, 7, 83
2, 10770, Note_on_c, 0, 74, 0
2, 10770, Note_on_c, 0, 77, 127
2, 10770, Control_c, 0, 7, 84
2, 10790, Control_c, 0, 7, 88
2, 10800, Note_on_c, 0, 77, 0
2, 10800, Note_on_c, 0, 76, 127
2, 10800, Control_c, 0, 7, 89
2, 10820, Control_c, 0, 7, 90
2, 10830, Note_on_c, 0, 76, 0
2, 10830, Note_on_c, 0, 72, 127
2, 10830, Control_c, 0, 7, 91
2, 10840, Control_c, 0, 7, 92
2, 10850, Control_c, 0, 7, 93
2, 10860, Note_on_c, 0, 72, 0
2, 10860, Note_on_c, 0, 76, 127
2, 10880, Control_c, 0, 7, 94
2, 10890, Note_on_c, 0, 76, 0
2, 10890, Note_on_c, 0, 79, 127
2, 10890, Control_c, 0, 7, 95
2, 10920, Note_on_c, 0, 79, 0
2, 10920, Note_on_c, 0, 77, 127
2, 10930, Control_c, 0, 7, 96
2, 10950, Note_on_c, 0, 77, 0
2, 10950, Note_on_c, 0, 76, 127
2, 10960, Control_c, 0, 7, 98
2, 10980, Note_on_c, 0, 76, 0
2, 10980, Note_on_c, 0, 74, 127
2, 11010, Note_on_c, 0, 74, 0
2, 11010, Note_on_c, 0, 72, 127
2, 11020, Control_c, 0, 7, 99
2, 11040, Note_on_c, 0, 72, 0
2, 11040, Note_on_c, 0, 71, 127
2, 11040, Control_c, 0, 7, 100
2, 11060, Control_c, 0, 7, 101
2, 11070, Note_on_c, 0, 71, 0
2, 11070, Note_on_c, 0, 72, 127
2, 11070, Control_c, 0, 7, 102
2, 11100, Note_on_c, 0, 72, 0
2, 11100, Note_on_c, 0, 74, 127
2, 11120, Control_c, 0, 7, 103
2, 11130, Note_on_c, 0, 74, 0
2, 11130, Note_on_c, 0, 76, 127
2, 11150, Control_c, 0, 7, 105
2, 11160, Note_on_c, 0, 76, 0
2, 11160, Note_on_c, 0, 77, 127
2, 11180, Control_c, 0, 7, 106
2, 11190, Note_on_c, 0, 77, 0
2, 11190, Note_on_c, 0, 74, 127
2, 11200, Control_c, 0, 7, 107
2, 11210, Control_c, 0, 7, 108
2, 11220, Note_on_c, 0, 74, 0
2, 11220, Note_on_c, 0, 80, 127
2, 11220, Control_c, 0, 7, 109
2, 11240, Control_c, 0, 7, 111
2, 11250, Note_on_c, 0, 80, 0
2, 11250, Note_on_c, 0, 74, 127
2, 11260, Control_c, 0, 7, 112
2, 11280, Note_on_c, 0, 74, 0
2, 11280, Note_on_c, 0, 83, 127
2, 11280, Control_c, 0, 7, 113
2, 11310, Note_on_c, 0, 83, 0
2, 11310, Note_on_c, 0, 74, 127
2, 11340, Note_on_c, 0, 74, 0
2, 11340, Note_on_c, 0, 72, 127
2, 11370, Note_on_c, 0, 72, 0
2, 11370, Note_on_c, 0, 81, 127
2, 11400, Note_on_c, 0, 81, 0
2, 11400, Note_on_c, 0, 77, 127
2, 11430, Note_on_c, 0, 77, 0
2, 11430, Note_on_c, 0, 74, 127
2, 11460, Note_on_c, 0, 74, 0
2, 11460, Note_on_c, 0, 71, 127
2, 11490, Note_on_c, 0, 71, 0
2, 11490, Note_on_c, 0, 74, 127
2, 11520, Note_on_c, 0, 74, 0
2, 11520, Note_on_c, 0, 68, 127
2, 11530, Control_c, 0, 7, 108
2, 11550, Note_on_c, 0, 68, 0
2, 11550, Note_on_c, 0, 71, 127
2, 11580, Note_on_c, 0, 71, 0
2, 11580, Note_on_c, 0, 72, 127
2, 11580, Control_c, 0, 7, 107
2, 11590, Control_c, 0, 7, 106
2, 11610, Note_on_c, 0, 72, 0
2, 11610, Note_on_c, 0, 69, 127
2, 11620, Control_c, 0, 7, 105
2, 11630, Control_c, 0, 7, 104
2, 11640, Note_on_c, 0, 69, 0
2, 11640, Note_on_c, 0, 64, 127
2, 11640, Control_c, 0, 7, 103
2, 11650, Control_c, 0, 7, 102
2, 11660, Control_c, 0, 7, 100
2, 11670, Note_on_c, 0, 64, 0
2, 11670, Note_on_c, 0, 69, 127
2, 11670, Control_c, 0, 7, 99
2, 11680, Control_c, 0, 7, 95
2, 11700, Note_on_c, 0, 69, 0
2, 11700, Note_on_c, 0, 71, 127
2, 11700, Control_c, 0, 7, 93
2, 11710, Control_c, 0, 7, 92
2, 11720, Control_c, 0, 7, 91
2, 11730, Note_on_c, 0, 71, 0
2, 11730, Note_on_c, 0, 68, 127
2, 11730, Control_c, 0, 7, 90
2, 11740, Control_c, 0, 7, 89
2, 11750, Control_c, 0, 7, 88
2, 11760, Note_on_c, 0, 68, 0
2, 11760, Note_on_c, 0, 69, 127
2, 11770, Control_c, 0, 7, 87
2, 11780, Control_c, 0, 7, 86
2, 11790, Note_on_c, 0, 69, 0
2, 11790, Note_on_c, 0, 64, 127
2, 11790, Control_c, 0, 7, 85
2, 11820, Note_on_c, 0, 64, 0
2, 11820, Note_on_c, 0, 60, 127
2, 11820, Control_c, 0, 7, 84
2, 11830, Control_c, 0, 7, 83
2, 11840, Control_c, 0, 7, 82
2, 11850, Note_on_c, 0, 60, 0
2, 11850, Note_on_c, 0, 64, 127
2, 11860, Control_c, 0, 7, 81
2, 11880, Note_on_c, 0, 64, 0
2, 11880, Note_on_c, 0, 57, 127
2, 12000, Note_on_c, 0, 57, 0
2, 12000, End_track
3, 0, Start_track
3, 0, Title_t, "BASSOON"
3, 0, Program_c, 2, 0
3, 0, Control_c, 2, 7, 104
3, 0, Control_c, 2, 10, 88
3, 0, Note_on_c, 2, 45, 127
3, 0, Control_c, 2, 7, 97
3, 30, Note_on_c, 2, 45, 0
3, 40, Control_c, 2, 7, 96
3, 60, Note_on_c, 2, 57, 127
3, 80, Control_c, 2, 7, 95
3, 180, Note_on_c, 2, 57, 0
3, 180, Note_on_c, 2, 56, 127
3, 240, Note_on_c, 2, 56, 0
3, 240, Note_on_c, 2, 57, 127
3, 270, Note_on_c, 2, 57, 0
3, 270, Note_on_c, 2, 52, 127
3, 300, Note_on_c, 2, 52, 0
3, 300, Note_on_c, 2, 57, 127
3, 330, Note_on_c, 2, 57, 0
3, 330, Note_on_c, 2, 60, 127
3, 360, Note_on_c, 2, 60, 0
3, 360, Note_on_c, 2, 59, 127
3, 390, Note_on_c, 2, 59, 0
3, 390, Note_on_c, 2, 52, 127
3, 420, Note_on_c, 2, 52, 0
3, 420, Note_on_c, 2, 59, 127
3, 450, Note_on_c, 2, 59, 0
3, 450, Note_on_c, 2, 62, 127
3, 480, Note_on_c, 2, 62, 0
3, 480, Note_on_c, 2, 60, 127
3, 540, Note_on_c, 2, 60, 0
3, 540, Note_on_c, 2, 57, 127
3, 570, Note_on_c, 2, 57, 0
3, 600, Note_on_c, 2, 56, 127
3, 630, Note_on_c, 2, 56, 0
3, 660, Note_on_c, 2, 52, 127
3, 690, Note_on_c, 2, 52, 0
3, 720, Note_on_c, 2, 57, 127
3, 720, Control_c, 2, 7, 96
3, 750, Note_on_c, 2, 57, 0
3, 750, Note_on_c, 2, 52, 127
3, 780, Note_on_c, 2, 52, 0
3, 780, Note_on_c, 2, 57, 127
3, 810, Note_on_c, 2, 57, 0
3, 810, Note_on_c, 2, 60, 127
3, 840, Note_on_c, 2, 60, 0
3, 840, Note_on_c, 2, 59, 127
3, 870, Note_on_c, 2, 59, 0
3, 870, Note_on_c, 2, 52, 127
3, 870, Control_c, 2, 7, 97
3, 900, Note_on_c, 2, 52, 0
3, 900, Note_on_c, 2, 59, 127
3, 930, Note_on_c, 2, 59, 0
3, 930, Note_on_c, 2, 62, 127
3, 960, Note_on_c, 2, 62, 0
3, 960, Note_on_c, 2, 60, 127
3, 960, Control_c, 2, 7, 98
3, 990, Note_on_c, 2, 60, 0
3, 1020, Note_on_c, 2, 57, 127
3, 1040, Control_c, 2, 7, 99
3, 1050, Note_on_c, 2, 57, 0
3, 1050, Control_c, 2, 7, 100
3, 1060, Control_c, 2, 7, 101
3, 1080, Note_on_c, 2, 60, 127
3, 1110, Note_on_c, 2, 60, 0
3, 1140, Note_on_c, 2, 57, 127
3, 1140, Control_c, 2, 7, 102
3, 1170, Note_on_c, 2, 57, 0
3, 1200, Note_on_c, 2, 62, 127
3, 1230, Note_on_c, 2, 62, 0
3, 1230, Note_on_c, 2, 57, 127
3, 1240, Control_c, 2, 7, 103
3, 1260, Note_on_c, 2, 57, 0
3, 1260, Note_on_c, 2, 53, 127
3, 1290, Note_on_c, 2, 53, 0
3, 1290, Note_on_c, 2, 57, 127
3, 1300, Control_c, 2, 7, 104
3, 1320, Note_on_c, 2, 57, 0
3, 1320, Note_on_c, 2, 50, 127
3, 1330, Control_c, 2, 7, 105
3, 1350, Note_on_c, 2, 50, 0
3, 1350, Note_on_c, 2, 53, 127
3, 1350, Control_c, 2, 7, 106
3, 1380, Note_on_c, 2, 53, 0
3, 1380, Note_on_c, 2, 45, 127
3, 1410, Note_on_c, 2, 45, 0
3, 1410, Note_on_c, 2, 48, 127
3, 1410, Control_c, 2, 7, 107
3, 1430, Control_c, 2, 7, 108
3, 1440, Note_on_c, 2, 48, 0
3, 1440, Note_on_c, 2, 47, 127
3, 1470, Note_on_c, 2, 47, 0
3, 1470, Control_c, 2, 7, 109
3, 1530, Note_on_c, 2, 50, 127
3, 1560, Note_on_c, 2, 50, 0
3, 1590, Note_on_c, 2, 55, 127
3, 1620, Note_on_c, 2, 55, 0
3, 1650, Note_on_c, 2, 59, 127
3, 1740, Note_on_c, 2, 59, 0
3, 1740, Note_on_c, 2, 55, 127
3, 1770, Note_on_c, 2, 55, 0
3, 1770, Note_on_c, 2, 52, 127
3, 1800, Note_on_c, 2, 52, 0
3, 1800, Note_on_c, 2, 55, 127
3, 1830, Note_on_c, 2, 55, 0
3, 1830, Note_on_c, 2, 48, 127
3, 1860, Note_on_c, 2, 48, 0
3, 1860, Note_on_c, 2, 52, 127
3, 1890, Note_on_c, 2, 52, 0
3, 1890, Note_on_c, 2, 43, 127
3, 1920, Note_on_c, 2, 43, 0
3, 1920, Note_on_c, 2, 45, 127
3, 1950, Note_on_c, 2, 45, 0
3, 1980, Note_on_c, 2, 48, 127
3, 2010, Note_on_c, 2, 48, 0
3, 2040, Note_on_c, 2, 50, 127
3, 2070, Note_on_c, 2, 50, 0
3, 2070, Note_on_c, 2, 53, 127
3, 2100, Note_on_c, 2, 53, 0
3, 2100, Note_on_c, 2, 47, 127
3, 2130, Note_on_c, 2, 47, 0
3, 2130, Note_on_c, 2, 50, 127
3, 2160, Note_on_c, 2, 50, 0
3, 2160, Note_on_c, 2, 43, 127
3, 2190, Note_on_c, 2, 43, 0
3, 2200, Control_c, 2, 7, 107
3, 2220, Note_on_c, 2, 47, 127
3, 2230, Control_c, 2, 7, 106
3, 2250, Note_on_c, 2, 47, 0
3, 2260, Control_c, 2, 7, 105
3, 2270, Control_c, 2, 7, 104
3, 2280, Note_on_c, 2, 48, 127
3, 2290, Control_c, 2, 7, 103
3, 2300, Control_c, 2, 7, 102
3, 2310, Note_on_c, 2, 48, 0
3, 2310, Note_on_c, 2, 52, 127
3, 2310, Control_c, 2, 7, 100
3, 2340, Note_on_c, 2, 52, 0
3, 2340, Note_on_c, 2, 45, 127
3, 2350, Control_c, 2, 7, 99
3, 2360, Control_c, 2, 7, 98
3, 2370, Note_on_c, 2, 45, 0
3, 2370, Note_on_c, 2, 48, 127
3, 2370, Control_c, 2, 7, 97
3, 2390, Control_c, 2, 7, 96
3, 2400, Note_on_c, 2, 48, 0
3, 2400, Note_on_c, 2, 41, 127
3, 2400, Control_c, 2, 7, 95
3, 2410, Control_c, 2, 7, 94
3, 2420, Control_c, 2, 7, 93
3, 2430, Note_on_c, 2, 41, 0
3, 2440, Control_c, 2, 7, 92
3, 2450, Control_c, 2, 7, 91
3, 2460, Note_on_c, 2, 38, 127
3, 2480, Control_c, 2, 7, 90
3, 2490, Note_on_c, 2, 38, 0
3, 2490, Control_c, 2, 7, 89
3, 2510, Control_c, 2, 7, 88
3, 2520, Note_on_c, 2, 43, 127
3, 2520, Control_c, 2, 7, 87
3, 2550, Note_on_c, 2, 43, 0
3, 2550, Note_on_c, 2, 55, 127
3, 2550, Control_c, 2, 7, 86
3, 2560, Control_c, 2, 7, 85
3, 2570, Control_c, 2, 7, 84
3, 2580, Note_on_c, 2, 55, 0
3, 2580, Note_on_c, 2, 53, 127
3, 2590, Control_c, 2, 7, 83
3, 2610, Note_on_c, 2, 53, 0
3, 2610, Note_on_c, 2, 55, 127
3, 2610, Control_c, 2, 7, 82
3, 2630, Control_c, 2, 7, 81
3, 2640, Note_on_c, 2, 55, 0
3, 2640, Note_on_c, 2, 36, 127
3, 2650, Control_c, 2, 7, 80
3, 2660, Control_c, 2, 7, 79
3, 2670, Note_on_c, 2, 36, 0
3, 2670, Note_on_c, 2, 43, 127
3, 2680, Control_c, 2, 7, 77
3, 2700, Note_on_c, 2, 43, 0
3, 2700, Note_on_c, 2, 48, 127
3, 2700, Control_c, 2, 7, 76
3, 2720, Control_c, 2, 7, 75
3, 2730, Note_on_c, 2, 48, 0
3, 2730, Note_on_c, 2, 52, 127
3, 2760, Note_on_c, 2, 52, 0
3, 2760, Note_on_c, 2, 50, 127
3, 2760, Control_c, 2, 7, 74
3, 2780, Control_c, 2, 7, 73
3, 2790, Note_on_c, 2, 50, 0
3, 2790, Note_on_c, 2, 43, 127
3, 2810, Control_c, 2, 7, 72
3, 2820, Note_on_c, 2, 43, 0
3, 2820, Note_on_c, 2, 50, 127
3, 2840, Control_c, 2, 7, 71
3, 2850, Note_on_c, 2, 50, 0
3, 2850, Note_on_c, 2, 53, 127
3, 2860, Control_c, 2, 7, 70
3, 2880, Note_on_c, 2, 53, 0
3, 2880, Note_on_c, 2, 52, 127
3, 2880, Control_c, 2, 7, 69
3, 2910, Note_on_c, 2, 52, 0
3, 2940, Note_on_c, 2, 48, 127
3, 2970, Note_on_c, 2, 48, 0
3, 3000, Note_on_c, 2, 47, 127
3, 3030, Note_on_c, 2, 47, 0
3, 3060, Note_on_c, 2, 43, 127
3, 3090, Note_on_c, 2, 43, 0
3, 3120, Note_on_c, 2, 48, 127
3, 3150, Note_on_c, 2, 48, 0
3, 3150, Note_on_c, 2, 43, 127
3, 3180, Note_on_c, 2, 43, 0
3, 3180, Note_on_c, 2, 48, 127
3, 3210, Note_on_c, 2, 48, 0
3, 3210, Note_on_c, 2, 52, 127
3, 3240, Note_on_c, 2, 52, 0
3, 3240, Note_on_c, 2, 50, 127
3, 3270, Note_on_c, 2, 50, 0
3, 3270, Note_on_c, 2, 43, 127
3, 3300, Note_on_c, 2, 43, 0
3, 3300, Note_on_c, 2, 50, 127
3, 3330, Note_on_c, 2, 50, 0
3, 3330, Note_on_c, 2, 53, 127
3, 3360, Note_on_c, 2, 53, 0
3, 3360, Note_on_c, 2, 52, 127
3, 3360, Control_c, 2, 7, 65
3, 3390, Note_on_c, 2, 52, 0
3, 3410, Control_c, 2, 7, 66
3, 3420, Note_on_c, 2, 48, 127
3, 3430, Control_c, 2, 7, 68
3, 3450, Note_on_c, 2, 48, 0
3, 3460, Control_c, 2, 7, 69
3, 3480, Control_c, 2, 7, 70
3, 3500, Control_c, 2, 7, 71
3, 3510, Control_c, 2, 7, 73
3, 3540, Control_c, 2, 7, 74
3, 3560, Control_c, 2, 7, 76
3, 3580, Control_c, 2, 7, 77
3, 3590, Control_c, 2, 7, 78
3, 3600, Control_c, 2, 7, 80
3, 3620, Control_c, 2, 7, 81
3, 3630, Note_on_c, 2, 55, 127
3, 3660, Note_on_c, 2, 55, 0
3, 3660, Note_on_c, 2, 52, 127
3, 3660, Control_c, 2, 7, 82
3, 3690, Note_on_c, 2, 52, 0
3, 3690, Note_on_c, 2, 55, 127
3, 3690, Control_c, 2, 7, 83
3, 3720, Note_on_c, 2, 55, 0
3, 3720, Note_on_c, 2, 48, 127
3, 3750, Note_on_c, 2, 48, 0
3, 3750, Note_on_c, 2, 52, 127
3, 3770, Control_c, 2, 7, 84
3, 3780, Note_on_c, 2, 52, 0
3, 3780, Note_on_c, 2, 43, 127
3, 3790, Control_c, 2, 7, 86
3, 3810, Note_on_c, 2, 43, 0
3, 3810, Note_on_c, 2, 47, 127
3, 3810, Control_c, 2, 7, 87
3, 3820, Control_c, 2, 7, 88
3, 3830, Control_c, 2, 7, 90
3, 3840, Note_on_c, 2, 47, 0
3, 3840, Note_on_c, 2, 45, 127
3, 3840, Control_c, 2, 7, 91
3, 3860, Control_c, 2, 7, 92
3, 3870, Note_on_c, 2, 45, 0
3, 3880, Control_c, 2, 7, 94
3, 3900, Note_on_c, 2, 48, 127
3, 3910, Control_c, 2, 7, 95
3, 3930, Note_on_c, 2, 48, 0
3, 3930, Control_c, 2, 7, 96
3, 3960, Note_on_c, 2, 52, 127
3, 3970, Control_c, 2, 7, 98
3, 3990, Note_on_c, 2, 52, 0
3, 4020, Note_on_c, 2, 55, 127
3, 4030, Control_c, 2, 7, 99
3, 4050, Note_on_c, 2, 55, 0
3, 4070, Control_c, 2, 7, 102
3, 4080, Note_on_c, 2, 54, 127
3, 4110, Note_on_c, 2, 54, 0
3, 4110, Note_on_c, 2, 57, 127
3, 4140, Note_on_c, 2, 57, 0
3, 4140, Note_on_c, 2, 50, 127
3, 4170, Note_on_c, 2, 50, 0
3, 4170, Note_on_c, 2, 54, 127
3, 4170, Control_c, 2, 7, 103
3, 4180, Control_c, 2, 7, 104
3, 4200, Note_on_c, 2, 54, 0
3, 4200, Note_on_c, 2, 45, 127
3, 4200, Control_c, 2, 7, 106
3, 4210, Control_c, 2, 7, 107
3, 4230, Note_on_c, 2, 45, 0
3, 4230, Note_on_c, 2, 50, 127
3, 4230, Control_c, 2, 7, 108
3, 4260, Note_on_c, 2, 50, 0
3, 4260, Note_on_c, 2, 42, 127
3, 4260, Control_c, 2, 7, 110
3, 4280, Control_c, 2, 7, 111
3, 4290, Note_on_c, 2, 42, 0
3, 4290, Note_on_c, 2, 45, 127
3, 4290, Control_c, 2, 7, 112
3, 4300, Control_c, 2, 7, 114
3, 4310, Control_c, 2, 7, 112
3, 4320, Note_on_c, 2, 45, 0
3, 4320, Note_on_c, 2, 43, 127
3, 4320, Control_c, 2, 7, 114
3, 4350, Note_on_c, 2, 43, 0
3, 4380, Note_on_c, 2, 47, 127
3, 4410, Note_on_c, 2, 47, 0
3, 4440, Note_on_c, 2, 50, 127
3, 4470, Note_on_c, 2, 50, 0
3, 4500, Note_on_c, 2, 54, 127
3, 4530, Note_on_c, 2, 54, 0
3, 4560, Note_on_c, 2, 52, 127
3, 4590, Note_on_c, 2, 52, 0
3, 4590, Note_on_c, 2, 55, 127
3, 4620, Note_on_c, 2, 55, 0
3, 4620, Note_on_c, 2, 48, 127
3, 4650, Note_on_c, 2, 48, 0
3, 4650, Note_on_c, 2, 52, 127
3, 4680, Note_on_c, 2, 52, 0
3, 4680, Note_on_c, 2, 43, 127
3, 4710, Note_on_c, 2, 43, 0
3, 4710, Note_on_c, 2, 48, 127
3, 4740, Note_on_c, 2, 48, 0
3, 4740, Note_on_c, 2, 40, 127
3, 4770, Note_on_c, 2, 40, 0
3, 4770, Note_on_c, 2, 43, 127
3, 4800, Note_on_c, 2, 43, 0
3, 4800, Note_on_c, 2, 42, 127
3, 4830, Note_on_c, 2, 42, 0
3, 4860, Note_on_c, 2, 45, 127
3, 4890, Note_on_c, 2, 45, 0
3, 4920, Note_on_c, 2, 47, 127
3, 4950, Note_on_c, 2, 47, 0
3, 4980, Note_on_c, 2, 51, 127
3, 5010, Note_on_c, 2, 51, 0
3, 5040, Control_c, 2, 7, 110
3, 5060, Control_c, 2, 7, 109
3, 5070, Note_on_c, 2, 52, 127
3, 5070, Control_c, 2, 7, 108
3, 5080, Control_c, 2, 7, 107
3, 5090, Control_c, 2, 7, 106
3, 5096, Note_on_c, 2, 48, 127
3, 5100, Note_on_c, 2, 52, 0
3, 5110, Control_c, 2, 7, 105
3, 5120, Control_c, 2, 7, 104
3, 5126, Note_on_c, 2, 48, 0
3, 5130, Note_on_c, 2, 52, 127
3, 5140, Control_c, 2, 7, 103
3, 5150, Control_c, 2, 7, 102
3, 5160, Note_on_c, 2, 52, 0
3, 5160, Note_on_c, 2, 45, 127
3, 5170, Control_c, 2, 7, 101
3, 5180, Control_c, 2, 7, 100
3, 5190, Note_on_c, 2, 45, 0
3, 5190, Note_on_c, 2, 48, 127
3, 5190, Control_c, 2, 7, 99
3, 5200, Control_c, 2, 7, 98
3, 5210, Control_c, 2, 7, 97
3, 5220, Note_on_c, 2, 48, 0
3, 5220, Note_on_c, 2, 52, 127
3, 5250, Note_on_c, 2, 52, 0
3, 5250, Note_on_c, 2, 55, 127
3, 5250, Control_c, 2, 7, 95
3, 5270, Control_c, 2, 7, 94
3, 5280, Note_on_c, 2, 55, 0
3, 5280, Note_on_c, 2, 54, 127
3, 5280, Control_c, 2, 7, 92
3, 5290, Control_c, 2, 7, 91
3, 5310, Note_on_c, 2, 54, 0
3, 5310, Note_on_c, 2, 50, 127
3, 5310, Control_c, 2, 7, 90
3, 5340, Note_on_c, 2, 50, 0
3, 5340, Note_on_c, 2, 47, 127
3, 5340, Control_c, 2, 7, 89
3, 5360, Control_c, 2, 7, 88
3, 5370, Note_on_c, 2, 47, 0
3, 5370, Note_on_c, 2, 50, 127
3, 5380, Control_c, 2, 7, 87
3, 5400, Note_on_c, 2, 50, 0
3, 5400, Note_on_c, 2, 43, 127
3, 5400, Control_c, 2, 7, 86
3, 5410, Control_c, 2, 7, 85
3, 5430, Note_on_c, 2, 43, 0
3, 5430, Note_on_c, 2, 47, 127
3, 5440, Control_c, 2, 7, 84
3, 5460, Note_on_c, 2, 47, 0
3, 5460, Note_on_c, 2, 50, 127
3, 5460, Control_c, 2, 7, 82
3, 5480, Control_c, 2, 7, 81
3, 5490, Note_on_c, 2, 50, 0
3, 5490, Note_on_c, 2, 54, 127
3, 5510, Control_c, 2, 7, 80
3, 5520, Note_on_c, 2, 54, 0
3, 5520, Note_on_c, 2, 52, 127
3, 5540, Control_c, 2, 7, 79
3, 5550, Note_on_c, 2, 52, 0
3, 5550, Note_on_c, 2, 48, 127
3, 5560, Control_c, 2, 7, 77
3, 5570, Control_c, 2, 7, 76
3, 5580, Note_on_c, 2, 48, 0
3, 5580, Note_on_c, 2, 45, 127
3, 5580, Control_c, 2, 7, 75
3, 5600, Control_c, 2, 7, 74
3, 5610, Note_on_c, 2, 45, 0
3, 5610, Note_on_c, 2, 48, 127
3, 5630, Control_c, 2, 7, 73
3, 5640, Note_on_c, 2, 48, 0
3, 5640, Note_on_c, 2, 42, 127
3, 5650, Control_c, 2, 7, 72
3, 5660, Control_c, 2, 7, 71
3, 5670, Note_on_c, 2, 42, 0
3, 5670, Note_on_c, 2, 45, 127
3, 5670, Control_c, 2, 7, 70
3, 5700, Note_on_c, 2, 45, 0
3, 5700, Note_on_c, 2, 48, 127
3, 5700, Control_c, 2, 7, 69
3, 5710, Control_c, 2, 7, 68
3, 5750, Control_c, 2, 7, 67
3, 5780, Control_c, 2, 7, 66
3, 5790, Note_on_c, 2, 48, 0
3, 5790, Note_on_c, 2, 47, 127
3, 5790, Control_c, 2, 7, 65
3, 5820, Note_on_c, 2, 47, 0
3, 5820, Note_on_c, 2, 48, 127
3, 5850, Note_on_c, 2, 48, 0
3, 5850, Note_on_c, 2, 45, 127
3, 5880, Note_on_c, 2, 45, 0
3, 5880, Note_on_c, 2, 47, 127
3, 5940, Note_on_c, 2, 47, 0
3, 5940, Note_on_c, 2, 59, 127
3, 6000, Note_on_c, 2, 59, 0
3, 6000, Note_on_c, 2, 40, 127
3, 6030, Note_on_c, 2, 40, 0
3, 6030, Note_on_c, 2, 52, 127
3, 6060, Note_on_c, 2, 52, 0
3, 6060, Note_on_c, 2, 47, 127
3, 6090, Note_on_c, 2, 47, 0
3, 6090, Note_on_c, 2, 43, 127
3, 6120, Note_on_c, 2, 43, 0
3, 6120, Note_on_c, 2, 40, 127
3, 6150, Note_on_c, 2, 40, 0
3, 6150, Note_on_c, 2, 47, 127
3, 6180, Note_on_c, 2, 47, 0
3, 6180, Note_on_c, 2, 43, 127
3, 6210, Note_on_c, 2, 43, 0
3, 6210, Note_on_c, 2, 47, 127
3, 6240, Note_on_c, 2, 47, 0
3, 6240, Note_on_c, 2, 40, 127
3, 6250, Control_c, 2, 7, 111
3, 6300, Note_on_c, 2, 40, 0
3, 6300, Note_on_c, 2, 52, 127
3, 6310, Control_c, 2, 7, 112
3, 6330, Note_on_c, 2, 52, 0
3, 6360, Note_on_c, 2, 55, 127
3, 6390, Note_on_c, 2, 55, 0
3, 6420, Note_on_c, 2, 58, 127
3, 6450, Note_on_c, 2, 58, 0
3, 6480, Note_on_c, 2, 49, 127
3, 6510, Note_on_c, 2, 49, 0
3, 6630, Note_on_c, 2, 55, 127
3, 6660, Note_on_c, 2, 55, 0
3, 6660, Note_on_c, 2, 53, 127
3, 6690, Note_on_c, 2, 53, 0
3, 6690, Note_on_c, 2, 52, 127
3, 6720, Note_on_c, 2, 52, 0
3, 6720, Note_on_c, 2, 50, 127
3, 6750, Note_on_c, 2, 50, 0
3, 6780, Note_on_c, 2, 50, 127
3, 6810, Note_on_c, 2, 50, 0
3, 6840, Note_on_c, 2, 53, 127
3, 6870, Note_on_c, 2, 53, 0
3, 6900, Note_on_c, 2, 56, 127
3, 6930, Note_on_c, 2, 56, 0
3, 6960, Note_on_c, 2, 47, 127
3, 6970, Control_c, 2, 7, 109
3, 6980, Control_c, 2, 7, 108
3, 7020, Note_on_c, 2, 47, 0
3, 7030, Control_c, 2, 7, 107
3, 7050, Control_c, 2, 7, 106
3, 7070, Control_c, 2, 7, 105
3, 7110, Note_on_c, 2, 53, 127
3, 7140, Note_on_c, 2, 53, 0
3, 7140, Note_on_c, 2, 52, 127
3, 7150, Control_c, 2, 7, 103
3, 7170, Note_on_c, 2, 52, 0
3, 7170, Note_on_c, 2, 50, 127
3, 7180, Control_c, 2, 7, 102
3, 7200, Note_on_c, 2, 50, 0
3, 7200, Note_on_c, 2, 48, 127
3, 7220, Control_c, 2, 7, 101
3, 7230, Note_on_c, 2, 48, 0
3, 7240, Control_c, 2, 7, 100
3, 7260, Note_on_c, 2, 48, 127
3, 7270, Control_c, 2, 7, 99
3, 7290, Note_on_c, 2, 48, 0
3, 7310, Control_c, 2, 7, 98
3, 7320, Note_on_c, 2, 52, 127
3, 7320, Control_c, 2, 7, 97
3, 7350, Note_on_c, 2, 52, 0
3, 7350, Control_c, 2, 7, 95
3, 7370, Control_c, 2, 7, 94
3, 7380, Note_on_c, 2, 54, 127
3, 7380, Control_c, 2, 7, 93
3, 7410, Note_on_c, 2, 54, 0
3, 7420, Control_c, 2, 7, 92
3, 7440, Note_on_c, 2, 45, 127
3, 7440, Control_c, 2, 7, 90
3, 7450, Control_c, 2, 7, 89
3, 7470, Control_c, 2, 7, 88
3, 7500, Note_on_c, 2, 45, 0
3, 7520, Control_c, 2, 7, 87
3, 7540, Control_c, 2, 7, 86
3, 7550, Control_c, 2, 7, 85
3, 7570, Control_c, 2, 7, 84
3, 7590, Note_on_c, 2, 52, 127
3, 7600, Control_c, 2, 7, 83
3, 7610, Control_c, 2, 7, 82
3, 7620, Note_on_c, 2, 52, 0
3, 7620, Note_on_c, 2, 51, 127
3, 7630, Control_c, 2, 7, 81
3, 7650, Note_on_c, 2, 51, 0
3, 7650, Note_on_c, 2, 49, 127
3, 7650, Control_c, 2, 7, 80
3, 7680, Note_on_c, 2, 49, 0
3, 7680, Note_on_c, 2, 47, 127
3, 7700, Control_c, 2, 7, 79
3, 7710, Note_on_c, 2, 47, 0
3, 7720, Control_c, 2, 7, 78
3, 7740, Note_on_c, 2, 47, 127
3, 7740, Control_c, 2, 7, 77
3, 7760, Control_c, 2, 7, 76
3, 7770, Note_on_c, 2, 47, 0
3, 7800, Note_on_c, 2, 50, 127
3, 7800, Control_c, 2, 7, 75
3, 7830, Note_on_c, 2, 50, 0
3, 7830, Control_c, 2, 7, 74
3, 7840, Control_c, 2, 7, 73
3, 7860, Note_on_c, 2, 53, 127
3, 7890, Note_on_c, 2, 53, 0
3, 7910, Control_c, 2, 7, 72
3, 7920, Note_on_c, 2, 44, 127
3, 7920, Control_c, 2, 7, 71
3, 7940, Control_c, 2, 7, 70
3, 7950, Note_on_c, 2, 44, 0
3, 7960, Control_c, 2, 7, 69
3, 8000, Control_c, 2, 7, 68
3, 8030, Control_c, 2, 7, 67
3, 8050, Control_c, 2, 7, 66
3, 8070, Note_on_c, 2, 50, 127
3, 8100, Note_on_c, 2, 50, 0
3, 8100, Note_on_c, 2, 48, 127
3, 8120, Control_c, 2, 7, 65
3, 8130, Note_on_c, 2, 48, 0
3, 8130, Note_on_c, 2, 47, 127
3, 8160, Note_on_c, 2, 47, 0
3, 8160, Note_on_c, 2, 48, 127
3, 8190, Note_on_c, 2, 48, 0
3, 8220, Note_on_c, 2, 45, 127
3, 8250, Note_on_c, 2, 45, 0
3, 8280, Note_on_c, 2, 44, 127
3, 8310, Note_on_c, 2, 44, 0
3, 8340, Note_on_c, 2, 40, 127
3, 8370, Note_on_c, 2, 40, 0
3, 8400, Note_on_c, 2, 45, 127
3, 8430, Note_on_c, 2, 45, 0
3, 8430, Note_on_c, 2, 40, 127
3, 8460, Note_on_c, 2, 40, 0
3, 8460, Note_on_c, 2, 45, 127
3, 8490, Note_on_c, 2, 45, 0
3, 8490, Note_on_c, 2, 48, 127
3, 8520, Note_on_c, 2, 48, 0
3, 8520, Note_on_c, 2, 47, 127
3, 8550, Note_on_c, 2, 47, 0
3, 8550, Note_on_c, 2, 40, 127
3, 8580, Note_on_c, 2, 40, 0
3, 8580, Note_on_c, 2, 47, 127
3, 8610, Note_on_c, 2, 47, 0
3, 8610, Note_on_c, 2, 50, 127
3, 8640, Note_on_c, 2, 50, 0
3, 8640, Note_on_c, 2, 48, 127
3, 8670, Note_on_c, 2, 48, 0
3, 8670, Note_on_c, 2, 52, 127
3, 8700, Note_on_c, 2, 52, 0
3, 8700, Note_on_c, 2, 57, 127
3, 8730, Note_on_c, 2, 57, 0
3, 8730, Note_on_c, 2, 52, 127
3, 8760, Note_on_c, 2, 52, 0
3, 8760, Note_on_c, 2, 48, 127
3, 8790, Note_on_c, 2, 48, 0
3, 8790, Note_on_c, 2, 52, 127
3, 8820, Note_on_c, 2, 52, 0
3, 8820, Note_on_c, 2, 45, 127
3, 8850, Note_on_c, 2, 45, 0
3, 8850, Note_on_c, 2, 48, 127
3, 8880, Note_on_c, 2, 48, 0
3, 8880, Note_on_c, 2, 42, 127
3, 8910, Note_on_c, 2, 42, 0
3, 8910, Note_on_c, 2, 45, 127
3, 8940, Note_on_c, 2, 45, 0
3, 8940, Note_on_c, 2, 48, 127
3, 8970, Note_on_c, 2, 48, 0
3, 8970, Note_on_c, 2, 45, 127
3, 9000, Note_on_c, 2, 45, 0
3, 9000, Note_on_c, 2, 42, 127
3, 9030, Note_on_c, 2, 42, 0
3, 9030, Note_on_c, 2, 45, 127
3, 9060, Note_on_c, 2, 45, 0
3, 9060, Note_on_c, 2, 39, 127
3, 9090, Note_on_c, 2, 39, 0
3, 9090, Note_on_c, 2, 42, 127
3, 9120, Note_on_c, 2, 42, 0
3, 9120, Note_on_c, 2, 40, 127
3, 9150, Note_on_c, 2, 40, 0
3, 9180, Note_on_c, 2, 56, 127
3, 9210, Note_on_c, 2, 56, 0
3, 9240, Note_on_c, 2, 59, 127
3, 9270, Note_on_c, 2, 59, 0
3, 9300, Note_on_c, 2, 56, 127
3, 9330, Note_on_c, 2, 56, 0
3, 9360, Note_on_c, 2, 52, 127
3, 9390, Note_on_c, 2, 52, 0
3, 9420, Note_on_c, 2, 47, 127
3, 9450, Note_on_c, 2, 47, 0
3, 9480, Note_on_c, 2, 44, 127
3, 9510, Note_on_c, 2, 44, 0
3, 9540, Note_on_c, 2, 40, 127
3, 9570, Note_on_c, 2, 40, 0
3, 9600, Note_on_c, 2, 45, 127
3, 9630, Note_on_c, 2, 45, 0
3, 9660, Note_on_c, 2, 48, 127
3, 9690, Note_on_c, 2, 48, 0
3, 9720, Note_on_c, 2, 52, 127
3, 9750, Note_on_c, 2, 52, 0
3, 9780, Note_on_c, 2, 48, 127
3, 9810, Note_on_c, 2, 48, 0
3, 9840, Note_on_c, 2, 45, 127
3, 9870, Note_on_c, 2, 45, 0
3, 9900, Note_on_c, 2, 48, 127
3, 9930, Note_on_c, 2, 48, 0
3, 9960, Note_on_c, 2, 39, 127
3, 9990, Note_on_c, 2, 39, 0
3, 10110, Note_on_c, 2, 59, 127
3, 10140, Note_on_c, 2, 59, 0
3, 10140, Note_on_c, 2, 56, 127
3, 10170, Note_on_c, 2, 56, 0
3, 10170, Note_on_c, 2, 52, 127
3, 10200, Note_on_c, 2, 52, 0
3, 10200, Note_on_c, 2, 50, 127
3, 10230, Note_on_c, 2, 50, 0
3, 10230, Note_on_c, 2, 59, 127
3, 10260, Note_on_c, 2, 59, 0
3, 10260, Note_on_c, 2, 56, 127
3, 10290, Note_on_c, 2, 56, 0
3, 10290, Note_on_c, 2, 50, 127
3, 10320, Note_on_c, 2, 50, 0
3, 10320, Note_on_c, 2, 48, 127
3, 10350, Note_on_c, 2, 48, 0
3, 10380, Note_on_c, 2, 52, 127
3, 10410, Note_on_c, 2, 52, 0
3, 10440, Note_on_c, 2, 44, 127
3, 10470, Note_on_c, 2, 44, 0
3, 10500, Note_on_c, 2, 52, 127
3, 10530, Note_on_c, 2, 52, 0
3, 10550, Control_c, 2, 7, 66
3, 10560, Note_on_c, 2, 45, 127
3, 10560, Control_c, 2, 7, 68
3, 10570, Control_c, 2, 7, 69
3, 10580, Control_c, 2, 7, 70
3, 10590, Note_on_c, 2, 45, 0
3, 10590, Control_c, 2, 7, 72
3, 10620, Note_on_c, 2, 54, 127
3, 10630, Control_c, 2, 7, 73
3, 10650, Note_on_c, 2, 54, 0
3, 10670, Control_c, 2, 7, 74
3, 10680, Note_on_c, 2, 47, 127
3, 10680, Control_c, 2, 7, 75
3, 10690, Control_c, 2, 7, 76
3, 10700, Control_c, 2, 7, 77
3, 10710, Note_on_c, 2, 47, 0
3, 10720, Control_c, 2, 7, 78
3, 10730, Control_c, 2, 7, 79
3, 10740, Note_on_c, 2, 56, 127
3, 10740, Control_c, 2, 7, 80
3, 10750, Control_c, 2, 7, 81
3, 10760, Control_c, 2, 7, 82
3, 10770, Note_on_c, 2, 56, 0
3, 10770, Control_c, 2, 7, 83
3, 10790, Control_c, 2, 7, 84
3, 10800, Note_on_c, 2, 48, 127
3, 10820, Control_c, 2, 7, 86
3, 10830, Note_on_c, 2, 48, 0
3, 10840, Control_c, 2, 7, 87
3, 10860, Note_on_c, 2, 57, 127
3, 10860, Control_c, 2, 7, 88
3, 10870, Control_c, 2, 7, 90
3, 10880, Control_c, 2, 7, 91
3, 10890, Note_on_c, 2, 57, 0
3, 10900, Control_c, 2, 7, 92
3, 10910, Control_c, 2, 7, 93
3, 10920, Note_on_c, 2, 50, 127
3, 10920, Control_c, 2, 7, 94
3, 10940, Control_c, 2, 7, 95
3, 10950, Note_on_c, 2, 50, 0
3, 10950, Control_c, 2, 7, 97
3, 10970, Control_c, 2, 7, 100
3, 10980, Note_on_c, 2, 58, 127
3, 10980, Control_c, 2, 7, 101
3, 10990, Control_c, 2, 7, 102
3, 11010, Note_on_c, 2, 58, 0
3, 11010, Control_c, 2, 7, 104
3, 11030, Control_c, 2, 7, 105
3, 11040, Note_on_c, 2, 56, 127
3, 11040, Control_c, 2, 7, 107
3, 11050, Control_c, 2, 7, 108
3, 11060, Control_c, 2, 7, 110
3, 11070, Note_on_c, 2, 56, 0
3, 11100, Note_on_c, 2, 53, 127
3, 11130, Note_on_c, 2, 53, 0
3, 11160, Note_on_c, 2, 50, 127
3, 11190, Note_on_c, 2, 50, 0
3, 11220, Note_on_c, 2, 47, 127
3, 11250, Note_on_c, 2, 47, 0
3, 11280, Note_on_c, 2, 44, 127
3, 11300, Control_c, 2, 7, 105
3, 11310, Note_on_c, 2, 44, 0
3, 11310, Control_c, 2, 7, 104
3, 11320, Control_c, 2, 7, 103
3, 11340, Note_on_c, 2, 45, 127
3, 11350, Control_c, 2, 7, 102
3, 11360, Control_c, 2, 7, 101
3, 11370, Note_on_c, 2, 45, 0
3, 11400, Note_on_c, 2, 38, 127
3, 11400, Control_c, 2, 7, 100
3, 11410, Control_c, 2, 7, 99
3, 11430, Note_on_c, 2, 38, 0
3, 11430, Control_c, 2, 7, 98
3, 11450, Control_c, 2, 7, 97
3, 11460, Note_on_c, 2, 40, 127
3, 11460, Control_c, 2, 7, 96
3, 11490, Note_on_c, 2, 40, 0
3, 11500, Control_c, 2, 7, 95
3, 11520, Note_on_c, 2, 41, 127
3, 11530, Control_c, 2, 7, 94
3, 11540, Control_c, 2, 7, 93
3, 11550, Note_on_c, 2, 41, 0
3, 11560, Control_c, 2, 7, 92
3, 11570, Control_c, 2, 7, 91
3, 11580, Note_on_c, 2, 39, 127
3, 11610, Control_c, 2, 7, 90
3, 11640, Note_on_c, 2, 39, 0
3, 11640, Note_on_c, 2, 40, 127
3, 11640, Control_c, 2, 7, 89
3, 11650, Control_c, 2, 7, 88
3, 11660, Control_c, 2, 7, 87
3, 11700, Note_on_c, 2, 40, 0
3, 11700, Note_on_c, 2, 52, 127
3, 11700, Control_c, 2, 7, 86
3, 11730, Control_c, 2, 7, 84
3, 11750, Control_c, 2, 7, 83
3, 11760, Note_on_c, 2, 52, 0
3, 11760, Note_on_c, 2, 45, 127
3, 12000, Note_on_c, 2, 45, 0
3, 12000, End_track
4, 0, Start_track
4, 0, End_track
0, 0, End_of_file
