0, 0, Header, 1, 9, 1024
1, 0, Start_track
1, 0, Time_signature, 4, 2, 24, 8
1, 0, Key_signature, 1, "major"
1, 0, Tempo, 600000
1, 253953, End_track
2, 0, Start_track
2, 0, Title_t, "Instrument 1"
2, 2048, Note_on_c, 0, 74, 96
2, 4096, Note_off_c, 0, 74, 0
2, 4096, Note_on_c, 0, 74, 96
2, 6144, Note_off_c, 0, 74, 0
2, 6144, Note_on_c, 0, 74, 96
2, 8192, Note_off_c, 0, 74, 0
2, 8192, Note_on_c, 0, 76, 96
2, 10240, Note_off_c, 0, 76, 0
2, 10240, Note_on_c, 0, 76, 96
2, 12288, Note_off_c, 0, 76, 0
2, 12288, Note_on_c, 0, 74, 96
2, 16384, Note_off_c, 0, 74, 0
2, 26624, Note_on_c, 0, 71, 96
2, 28672, Note_off_c, 0, 71, 0
2, 28672, Note_on_c, 0, 72, 96
2, 30720, Note_off_c, 0, 72, 0
2, 30720, Note_on_c, 0, 71, 96
2, 32768, Note_off_c, 0, 71, 0
2, 32768, Note_on_c, 0, 69, 96
2, 34816, Note_off_c, 0, 69, 0
2, 34816, Note_on_c, 0, 71, 96
2, 36864, Note_off_c, 0, 71, 0
2, 36864, Note_on_c, 0, 69, 96
2, 40960, Note_off_c, 0, 69, 0
2, 40960, Note_on_c, 0, 67, 96
2, 45056, Note_off_c, 0, 67, 0
2, 59392, Note_on_c, 0, 74, 96
2, 61440, Note_off_c, 0, 74, 0
2, 61440, Note_on_c, 0, 74, 96
2, 63488, Note_off_c, 0, 74, 0
2, 63488, Note_on_c, 0, 74, 96
2, 65536, Note_off_c, 0, 74, 0
2, 65536, Note_on_c, 0, 76, 96
2, 67584, Note_off_c, 0, 76, 0
2, 67584, Note_on_c, 0, 76, 96
2, 69632, Note_off_c, 0, 76, 0
2, 69632, Note_on_c, 0, 74, 96
2, 73728, Note_off_c, 0, 74, 0
2, 83968, Note_on_c, 0, 71, 96
2, 86016, Note_off_c, 0, 71, 0
2, 86016, Note_on_c, 0, 72, 96
2, 88064, Note_off_c, 0, 72, 0
2, 88064, Note_on_c, 0, 71, 96
2, 90112, Note_off_c, 0, 71, 0
2, 90112, Note_on_c, 0, 69, 96
2, 92160, Note_off_c, 0, 69, 0
2, 92160, Note_on_c, 0, 71, 96
2, 94208, Note_off_c, 0, 71, 0
2, 94208, Note_on_c, 0, 69, 96
2, 98304, Note_off_c, 0, 69, 0
2, 98304, Note_on_c, 0, 67, 96
2, 102400, Note_off_c, 0, 67, 0
2, 120832, Note_on_c, 0, 69, 96
2, 122880, Note_off_c, 0, 69, 0
2, 122880, Note_on_c, 0, 69, 96
2, 124928, Note_off_c, 0, 69, 0
2, 124928, Note_on_c, 0, 69, 96
2, 126976, Note_off_c, 0, 69, 0
2, 126976, Note_on_c, 0, 71, 96
2, 129024, Note_off_c, 0, 71, 0
2, 129024, Note_on_c, 0, 71, 96
2, 131072, Note_off_c, 0, 71, 0
2, 131072, Note_on_c, 0, 69, 96
2, 133120, Note_off_c, 0, 69, 0
2, 149504, Note_on_c, 0, 69, 96
2, 151552, Note_off_c, 0, 69, 0
2, 151552, Note_on_c, 0, 71, 96
2, 152576, Note_off_c, 0, 71, 0
2, 152576, Note_on_c, 0, 73, 96
2, 153600, Note_off_c, 0, 73, 0
2, 153600, Note_on_c, 0, 74, 96
2, 155648, Note_off_c, 0, 74, 0
2, 155648, Note_on_c, 0, 74, 96
2, 157696, Note_off_c, 0, 74, 0
2, 157696, Note_on_c, 0, 73, 96
2, 159744, Note_off_c, 0, 73, 0
2, 159744, Note_on_c, 0, 74, 96
2, 163840, Note_off_c, 0, 74, 0
2, 182272, Note_on_c, 0, 74, 96
2, 184320, Note_off_c, 0, 74, 0
2, 184320, Note_on_c, 0, 76, 96
2, 186368, Note_off_c, 0, 76, 0
2, 186368, Note_on_c, 0, 74, 96
2, 188416, Note_off_c, 0, 74, 0
2, 188416, Note_on_c, 0, 72, 96
2, 190464, Note_off_c, 0, 72, 0
2, 190464, Note_on_c, 0, 71, 96
2, 192512, Note_off_c, 0, 71, 0
2, 192512, Note_on_c, 0, 72, 96
2, 196608, Note_off_c, 0, 72, 0
2, 210944, Note_on_c, 0, 71, 96
2, 212992, Note_off_c, 0, 71, 0
2, 212992, Note_on_c, 0, 69, 96
2, 215040, Note_off_c, 0, 69, 0
2, 215040, Note_on_c, 0, 71, 96
2, 217088, Note_off_c, 0, 71, 0
2, 217088, Note_on_c, 0, 69, 96
2, 219136, Note_off_c, 0, 69, 0
2, 219136, Note_on_c, 0, 69, 96
2, 221184, Note_off_c, 0, 69, 0
2, 221184, Note_on_c, 0, 67, 96
2, 225280, Note_off_c, 0, 67, 0
2, 253953, End_track
3, 0, Start_track
3, 0, Title_t, "Instrument 2"
3, 2048, Note_on_c, 1, 67, 96
3, 4096, Note_off_c, 1, 67, 0
3, 4096, Note_on_c, 1, 67, 96
3, 6144, Note_off_c, 1, 67, 0
3, 6144, Note_on_c, 1, 71, 96
3, 8192, Note_off_c, 1, 71, 0
3, 8192, Note_on_c, 1, 72, 96
3, 10240, Note_off_c, 1, 72, 0
3, 10240, Note_on_c, 1, 72, 96
3, 12288, Note_off_c, 1, 72, 0
3, 12288, Note_on_c, 1, 71, 96
3, 16384, Note_off_c, 1, 71, 0
3, 26624, Note_on_c, 1, 67, 96
3, 28672, Note_off_c, 1, 67, 0
3, 28672, Note_on_c, 1, 69, 96
3, 30720, Note_off_c, 1, 69, 0
3, 30720, Note_on_c, 1, 67, 96
3, 32768, Note_off_c, 1, 67, 0
3, 32768, Note_on_c, 1, 66, 96
3, 34816, Note_off_c, 1, 66, 0
3, 34816, Note_on_c, 1, 67, 96
3, 36864, Note_off_c, 1, 67, 0
3, 36864, Note_on_c, 1, 67, 96
3, 38912, Note_off_c, 1, 67, 0
3, 38912, Note_on_c, 1, 66, 96
3, 40960, Note_off_c, 1, 66, 0
3, 40960, Note_on_c, 1, 62, 96
3, 45056, Note_off_c, 1, 62, 0
3, 59392, Note_on_c, 1, 67, 96
3, 61440, Note_off_c, 1, 67, 0
3, 61440, Note_on_c, 1, 67, 96
3, 63488, Note_off_c, 1, 67, 0
3, 63488, Note_on_c, 1, 71, 96
3, 65536, Note_off_c, 1, 71, 0
3, 65536, Note_on_c, 1, 72, 96
3, 67584, Note_off_c, 1, 72, 0
3, 67584, Note_on_c, 1, 72, 96
3, 69632, Note_off_c, 1, 72, 0
3, 69632, Note_on_c, 1, 71, 96
3, 73728, Note_off_c, 1, 71, 0
3, 83968, Note_on_c, 1, 67, 96
3, 86016, Note_off_c, 1, 67, 0
3, 86016, Note_on_c, 1, 69, 96
3, 88064, Note_off_c, 1, 69, 0
3, 88064, Note_on_c, 1, 67, 96
3, 90112, Note_off_c, 1, 67, 0
3, 90112, Note_on_c, 1, 66, 96
3, 92160, Note_off_c, 1, 66, 0
3, 92160, Note_on_c, 1, 67, 96
3, 94208, Note_off_c, 1, 67, 0
3, 94208, Note_on_c, 1, 67, 96
3, 96256, Note_off_c, 1, 67, 0
3, 96256, Note_on_c, 1, 66, 96
3, 98304, Note_off_c, 1, 66, 0
3, 98304, Note_on_c, 1, 62, 96
3, 102400, Note_off_c, 1, 62, 0
3, 120832, Note_on_c, 1, 66, 96
3, 122880, Note_off_c, 1, 66, 0
3, 122880, Note_on_c, 1, 66, 96
3, 124928, Note_off_c, 1, 66, 0
3, 124928, Note_on_c, 1, 66, 96
3, 126976, Note_off_c, 1, 66, 0
3, 126976, Note_on_c, 1, 67, 96
3, 129024, Note_off_c, 1, 67, 0
3, 129024, Note_on_c, 1, 67, 96
3, 131072, Note_off_c, 1, 67, 0
3, 131072, Note_on_c, 1, 69, 96
3, 133120, Note_off_c, 1, 69, 0
3, 149504, Note_on_c, 1, 69, 96
3, 151552, Note_off_c, 1, 69, 0
3, 151552, Note_on_c, 1, 67, 96
3, 153600, Note_off_c, 1, 67, 0
3, 153600, Note_on_c, 1, 69, 96
3, 155648, Note_off_c, 1, 69, 0
3, 155648, Note_on_c, 1, 69, 96
3, 157696, Note_off_c, 1, 69, 0
3, 157696, Note_on_c, 1, 69, 96
3, 159744, Note_off_c, 1, 69, 0
3, 159744, Note_on_c, 1, 69, 96
3, 163840, Note_off_c, 1, 69, 0
3, 182272, Note_on_c, 1, 71, 96
3, 184320, Note_off_c, 1, 71, 0
3, 184320, Note_on_c, 1, 72, 96
3, 186368, Note_off_c, 1, 72, 0
3, 186368, Note_on_c, 1, 71, 96
3, 188416, Note_off_c, 1, 71, 0
3, 188416, Note_on_c, 1, 67, 96
3, 190464, Note_off_c, 1, 67, 0
3, 190464, Note_on_c, 1, 67, 96
3, 192512, Note_off_c, 1, 67, 0
3, 192512, Note_on_c, 1, 67, 96
3, 196608, Note_off_c, 1, 67, 0
3, 210944, Note_on_c, 1, 67, 96
3, 212992, Note_off_c, 1, 67, 0
3, 212992, Note_on_c, 1, 66, 96
3, 215040, Note_off_c, 1, 66, 0
3, 215040, Note_on_c, 1, 67, 96
3, 217088, Note_off_c, 1, 67, 0
3, 217088, Note_on_c, 1, 67, 96
3, 219136, Note_off_c, 1, 67, 0
3, 219136, Note_on_c, 1, 66, 96
3, 221184, Note_off_c, 1, 66, 0
3, 221184, Note_on_c, 1, 62, 96
3, 225280, Note_off_c, 1, 62, 0
3, 253953, End_track
4, 0, Start_track
4, 0, Title_t, "Instrument 3"
4, 2048, Note_on_c, 2, 59, 96
4, 4096, Note_off_c, 2, 59, 0
4, 4096, Note_on_c, 2, 59, 96
4, 5120, Note_off_c, 2, 59, 0
4, 5120, Note_on_c, 2, 62, 96
4, 6144, Note_off_c, 2, 62, 0
4, 6144, Note_on_c, 2, 67, 96
4, 8192, Note_off_c, 2, 67, 0
4, 8192, Note_on_c, 2, 67, 96
4, 10240, Note_off_c, 2, 67, 0
4, 10240, Note_on_c, 2, 67, 96
4, 12288, Note_off_c, 2, 67, 0
4, 12288, Note_on_c, 2, 67, 96
4, 16384, Note_off_c, 2, 67, 0
4, 26624, Note_on_c, 2, 62, 96
4, 28672, Note_off_c, 2, 62, 0
4, 28672, Note_on_c, 2, 62, 96
4, 30720, Note_off_c, 2, 62, 0
4, 30720, Note_on_c, 2, 62, 96
4, 32768, Note_off_c, 2, 62, 0
4, 32768, Note_on_c, 2, 62, 96
4, 34816, Note_off_c, 2, 62, 0
4, 34816, Note_on_c, 2, 62, 96
4, 36864, Note_off_c, 2, 62, 0
4, 36864, Note_on_c, 2, 62, 96
4, 39936, Note_off_c, 2, 62, 0
4, 39936, Note_on_c, 2, 57, 96
4, 40960, Note_off_c, 2, 57, 0
4, 40960, Note_on_c, 2, 59, 96
4, 45056, Note_off_c, 2, 59, 0
4, 59392, Note_on_c, 2, 59, 96
4, 61440, Note_off_c, 2, 59, 0
4, 61440, Note_on_c, 2, 59, 96
4, 62464, Note_off_c, 2, 59, 0
4, 62464, Note_on_c, 2, 62, 96
4, 63488, Note_off_c, 2, 62, 0
4, 63488, Note_on_c, 2, 67, 96
4, 65536, Note_off_c, 2, 67, 0
4, 65536, Note_on_c, 2, 67, 96
4, 67584, Note_off_c, 2, 67, 0
4, 67584, Note_on_c, 2, 67, 96
4, 69632, Note_off_c, 2, 67, 0
4, 69632, Note_on_c, 2, 67, 96
4, 73728, Note_off_c, 2, 67, 0
4, 83968, Note_on_c, 2, 62, 96
4, 86016, Note_off_c, 2, 62, 0
4, 86016, Note_on_c, 2, 62, 96
4, 88064, Note_off_c, 2, 62, 0
4, 88064, Note_on_c, 2, 62, 96
4, 90112, Note_off_c, 2, 62, 0
4, 90112, Note_on_c, 2, 62, 96
4, 92160, Note_off_c, 2, 62, 0
4, 92160, Note_on_c, 2, 62, 96
4, 94208, Note_off_c, 2, 62, 0
4, 94208, Note_on_c, 2, 62, 96
4, 97280, Note_off_c, 2, 62, 0
4, 97280, Note_on_c, 2, 57, 96
4, 98304, Note_off_c, 2, 57, 0
4, 98304, Note_on_c, 2, 59, 96
4, 102400, Note_off_c, 2, 59, 0
4, 120832, Note_on_c, 2, 62, 96
4, 122880, Note_off_c, 2, 62, 0
4, 122880, Note_on_c, 2, 62, 96
4, 124928, Note_off_c, 2, 62, 0
4, 124928, Note_on_c, 2, 62, 96
4, 126976, Note_off_c, 2, 62, 0
4, 126976, Note_on_c, 2, 62, 96
4, 129024, Note_off_c, 2, 62, 0
4, 129024, Note_on_c, 2, 62, 96
4, 130048, Note_off_c, 2, 62, 0
4, 130048, Note_on_c, 2, 64, 96
4, 131072, Note_off_c, 2, 64, 0
4, 131072, Note_on_c, 2, 66, 96
4, 133120, Note_off_c, 2, 66, 0
4, 149504, Note_on_c, 2, 62, 96
4, 151552, Note_off_c, 2, 62, 0
4, 151552, Note_on_c, 2, 62, 96
4, 152576, Note_off_c, 2, 62, 0
4, 152576, Note_on_c, 2, 64, 96
4, 153600, Note_off_c, 2, 64, 0
4, 153600, Note_on_c, 2, 66, 96
4, 155648, Note_off_c, 2, 66, 0
4, 155648, Note_on_c, 2, 64, 96
4, 157696, Note_off_c, 2, 64, 0
4, 157696, Note_on_c, 2, 64, 96
4, 159744, Note_off_c, 2, 64, 0
4, 159744, Note_on_c, 2, 66, 96
4, 163840, Note_off_c, 2, 66, 0
4, 182272, Note_on_c, 2, 67, 96
4, 184320, Note_off_c, 2, 67, 0
4, 184320, Note_on_c, 2, 67, 96
4, 186368, Note_off_c, 2, 67, 0
4, 186368, Note_on_c, 2, 65, 96
4, 188416, Note_off_c, 2, 65, 0
4, 188416, Note_on_c, 2, 64, 96
4, 190464, Note_off_c, 2, 64, 0
4, 190464, Note_on_c, 2, 62, 96
4, 192512, Note_off_c, 2, 62, 0
4, 192512, Note_on_c, 2, 64, 96
4, 196608, Note_off_c, 2, 64, 0
4, 210944, Note_on_c, 2, 62, 96
4, 212992, Note_off_c, 2, 62, 0
4, 212992, Note_on_c, 2, 62, 96
4, 215040, Note_off_c, 2, 62, 0
4, 215040, Note_on_c, 2, 62, 96
4, 217088, Note_off_c, 2, 62, 0
4, 217088, Note_on_c, 2, 62, 96
4, 219136, Note_off_c, 2, 62, 0
4, 219136, Note_on_c, 2, 62, 96
4, 221184, Note_off_c, 2, 62, 0
4, 221184, Note_on_c, 2, 59, 96
4, 225280, Note_off_c, 2, 59, 0
4, 253953, End_track
5, 0, Start_track
5, 0, Title_t, "Instrument 4"
5, 2048, Note_on_c, 3, 55, 96
5, 4096, Note_off_c, 3, 55, 0
5, 4096, Note_on_c, 3, 55, 96
5, 6144, Note_off_c, 3, 55, 0
5, 6144, Note_on_c, 3, 55, 96
5, 8192, Note_off_c, 3, 55, 0
5, 8192, Note_on_c, 3, 60, 96
5, 10240, Note_off_c, 3, 60, 0
5, 10240, Note_on_c, 3, 48, 96
5, 12288, Note_off_c, 3, 48, 0
5, 12288, Note_on_c, 3, 55, 96
5, 16384, Note_off_c, 3, 55, 0
5, 26624, Note_on_c, 3, 55, 96
5, 28672, Note_off_c, 3, 55, 0
5, 28672, Note_on_c, 3, 54, 96
5, 30720, Note_off_c, 3, 54, 0
5, 30720, Note_on_c, 3, 55, 96
5, 32768, Note_off_c, 3, 55, 0
5, 32768, Note_on_c, 3, 50, 96
5, 33792, Note_off_c, 3, 50, 0
5, 33792, Note_on_c, 3, 48, 96
5, 34816, Note_off_c, 3, 48, 0
5, 34816, Note_on_c, 3, 47, 96
5, 35840, Note_off_c, 3, 47, 0
5, 35840, Note_on_c, 3, 43, 96
5, 36864, Note_off_c, 3, 43, 0
5, 36864, Note_on_c, 3, 50, 96
5, 40960, Note_off_c, 3, 50, 0
5, 40960, Note_on_c, 3, 43, 96
5, 45056, Note_off_c, 3, 43, 0
5, 59392, Note_on_c, 3, 55, 96
5, 61440, Note_off_c, 3, 55, 0
5, 61440, Note_on_c, 3, 55, 96
5, 63488, Note_off_c, 3, 55, 0
5, 63488, Note_on_c, 3, 55, 96
5, 65536, Note_off_c, 3, 55, 0
5, 65536, Note_on_c, 3, 60, 96
5, 67584, Note_off_c, 3, 60, 0
5, 67584, Note_on_c, 3, 48, 96
5, 69632, Note_off_c, 3, 48, 0
5, 69632, Note_on_c, 3, 55, 96
5, 73728, Note_off_c, 3, 55, 0
5, 83968, Note_on_c, 3, 55, 96
5, 86016, Note_off_c, 3, 55, 0
5, 86016, Note_on_c, 3, 54, 96
5, 88064, Note_off_c, 3, 54, 0
5, 88064, Note_on_c, 3, 55, 96
5, 90112, Note_off_c, 3, 55, 0
5, 90112, Note_on_c, 3, 50, 96
5, 91136, Note_off_c, 3, 50, 0
5, 91136, Note_on_c, 3, 48, 96
5, 92160, Note_off_c, 3, 48, 0
5, 92160, Note_on_c, 3, 47, 96
5, 93184, Note_off_c, 3, 47, 0
5, 93184, Note_on_c, 3, 43, 96
5, 94208, Note_off_c, 3, 43, 0
5, 94208, Note_on_c, 3, 50, 96
5, 98304, Note_off_c, 3, 50, 0
5, 98304, Note_on_c, 3, 43, 96
5, 102400, Note_off_c, 3, 43, 0
5, 120832, Note_on_c, 3, 50, 96
5, 122880, Note_off_c, 3, 50, 0
5, 122880, Note_on_c, 3, 50, 96
5, 124928, Note_off_c, 3, 50, 0
5, 124928, Note_on_c, 3, 50, 96
5, 126976, Note_off_c, 3, 50, 0
5, 126976, Note_on_c, 3, 55, 96
5, 129024, Note_off_c, 3, 55, 0
5, 129024, Note_on_c, 3, 43, 96
5, 131072, Note_off_c, 3, 43, 0
5, 131072, Note_on_c, 3, 50, 96
5, 133120, Note_off_c, 3, 50, 0
5, 149504, Note_on_c, 3, 54, 96
5, 151552, Note_off_c, 3, 54, 0
5, 151552, Note_on_c, 3, 55, 96
5, 153600, Note_off_c, 3, 55, 0
5, 153600, Note_on_c, 3, 54, 96
5, 154624, Note_off_c, 3, 54, 0
5, 154624, Note_on_c, 3, 55, 96
5, 155648, Note_off_c, 3, 55, 0
5, 155648, Note_on_c, 3, 57, 96
5, 157696, Note_off_c, 3, 57, 0
5, 157696, Note_on_c, 3, 45, 96
5, 159744, Note_off_c, 3, 45, 0
5, 159744, Note_on_c, 3, 50, 96
5, 163840, Note_off_c, 3, 50, 0
5, 182272, Note_on_c, 3, 55, 96
5, 184320, Note_off_c, 3, 55, 0
5, 184320, Note_on_c, 3, 48, 96
5, 186368, Note_off_c, 3, 48, 0
5, 186368, Note_on_c, 3, 50, 96
5, 188416, Note_off_c, 3, 50, 0
5, 188416, Note_on_c, 3, 52, 96
5, 189440, Note_off_c, 3, 52, 0
5, 189440, Note_on_c, 3, 53, 96
5, 190464, Note_off_c, 3, 53, 0
5, 190464, Note_on_c, 3, 55, 96
5, 192512, Note_off_c, 3, 55, 0
5, 192512, Note_on_c, 3, 48, 96
5, 196608, Note_off_c, 3, 48, 0
5, 210944, Note_on_c, 3, 55, 96
5, 212992, Note_off_c, 3, 55, 0
5, 212992, Note_on_c, 3, 62, 96
5, 215040, Note_off_c, 3, 62, 0
5, 215040, Note_on_c, 3, 55, 96
5, 217088, Note_off_c, 3, 55, 0
5, 217088, Note_on_c, 3, 50, 96
5, 219136, Note_off_c, 3, 50, 0
5, 219136, Note_on_c, 3, 50, 96
5, 221184, Note_off_c, 3, 50, 0
5, 221184, Note_on_c, 3, 55, 96
5, 225280, Note_off_c, 3, 55, 0
5, 253953, End_track
6, 0, Start_track
6, 0, Title_t, "Instrument 5"
6, 0, Note_on_c, 4, 55, 96
6, 1024, Note_off_c, 4, 55, 0
6, 2048, Note_on_c, 4, 43, 96
6, 3072, Note_off_c, 4, 43, 0
6, 4096, Note_on_c, 4, 55, 96
6, 5120, Note_off_c, 4, 55, 0
6, 6144, Note_on_c, 4, 43, 96
6, 7168, Note_off_c, 4, 43, 0
6, 8192, Note_on_c, 4, 48, 96
6, 9216, Note_off_c, 4, 48, 0
6, 10240, Note_on_c, 4, 52, 96
6, 11264, Note_off_c, 4, 52, 0
6, 12288, Note_on_c, 4, 55, 96
6, 13312, Note_off_c, 4, 55, 0
6, 14336, Note_on_c, 4, 59, 96
6, 15360, Note_off_c, 4, 59, 0
6, 16384, Note_on_c, 4, 56, 96
6, 17408, Note_off_c, 4, 56, 0
6, 18432, Note_on_c, 4, 52, 96
6, 19456, Note_off_c, 4, 52, 0
6, 20480, Note_on_c, 4, 57, 96
6, 21504, Note_off_c, 4, 57, 0
6, 22528, Note_on_c, 4, 54, 96
6, 23552, Note_off_c, 4, 54, 0
6, 24576, Note_on_c, 4, 55, 96
6, 25600, Note_off_c, 4, 55, 0
6, 26624, Note_on_c, 4, 43, 96
6, 27648, Note_off_c, 4, 43, 0
6, 28672, Note_on_c, 4, 42, 96
6, 29696, Note_off_c, 4, 42, 0
6, 30720, Note_on_c, 4, 43, 96
6, 31744, Note_off_c, 4, 43, 0
6, 32768, Note_on_c, 4, 50, 96
6, 33792, Note_off_c, 4, 50, 0
6, 34816, Note_on_c, 4, 55, 96
6, 35840, Note_off_c, 4, 55, 0
6, 36864, Note_on_c, 4, 50, 96
6, 37888, Note_off_c, 4, 50, 0
6, 38912, Note_on_c, 4, 38, 96
6, 39936, Note_off_c, 4, 38, 0
6, 40960, Note_on_c, 4, 43, 96
6, 41984, Note_off_c, 4, 43, 0
6, 43008, Note_on_c, 4, 47, 96
6, 44032, Note_off_c, 4, 47, 0
6, 45056, Note_on_c, 4, 48, 96
6, 46080, Note_off_c, 4, 48, 0
6, 47104, Note_on_c, 4, 45, 96
6, 48128, Note_off_c, 4, 45, 0
6, 49152, Note_on_c, 4, 50, 96
6, 50176, Note_off_c, 4, 50, 0
6, 51200, Note_on_c, 4, 47, 96
6, 52224, Note_off_c, 4, 47, 0
6, 53248, Note_on_c, 4, 52, 96
6, 54272, Note_off_c, 4, 52, 0
6, 54272, Note_on_c, 4, 48, 96
6, 55296, Note_off_c, 4, 48, 0
6, 55296, Note_on_c, 4, 50, 96
6, 56320, Note_off_c, 4, 50, 0
6, 56320, Note_on_c, 4, 38, 96
6, 57344, Note_off_c, 4, 38, 0
6, 57344, Note_on_c, 4, 43, 96
6, 58368, Note_off_c, 4, 43, 0
6, 59392, Note_on_c, 4, 55, 96
6, 60416, Note_off_c, 4, 55, 0
6, 61440, Note_on_c, 4, 55, 96
6, 62464, Note_off_c, 4, 55, 0
6, 63488, Note_on_c, 4, 43, 96
6, 64512, Note_off_c, 4, 43, 0
6, 65536, Note_on_c, 4, 48, 96
6, 66560, Note_off_c, 4, 48, 0
6, 67584, Note_on_c, 4, 52, 96
6, 68608, Note_off_c, 4, 52, 0
6, 69632, Note_on_c, 4, 55, 96
6, 70656, Note_off_c, 4, 55, 0
6, 71680, Note_on_c, 4, 59, 96
6, 72704, Note_off_c, 4, 59, 0
6, 73728, Note_on_c, 4, 56, 96
6, 74752, Note_off_c, 4, 56, 0
6, 75776, Note_on_c, 4, 52, 96
6, 76800, Note_off_c, 4, 52, 0
6, 77824, Note_on_c, 4, 57, 96
6, 78848, Note_off_c, 4, 57, 0
6, 79872, Note_on_c, 4, 54, 96
6, 80896, Note_off_c, 4, 54, 0
6, 81920, Note_on_c, 4, 55, 96
6, 82944, Note_off_c, 4, 55, 0
6, 83968, Note_on_c, 4, 43, 96
6, 84992, Note_off_c, 4, 43, 0
6, 86016, Note_on_c, 4, 42, 96
6, 87040, Note_off_c, 4, 42, 0
6, 88064, Note_on_c, 4, 43, 96
6, 89088, Note_off_c, 4, 43, 0
6, 90112, Note_on_c, 4, 50, 96
6, 91136, Note_off_c, 4, 50, 0
6, 92160, Note_on_c, 4, 55, 96
6, 93184, Note_off_c, 4, 55, 0
6, 94208, Note_on_c, 4, 50, 96
6, 95232, Note_off_c, 4, 50, 0
6, 96256, Note_on_c, 4, 38, 96
6, 97280, Note_off_c, 4, 38, 0
6, 98304, Note_on_c, 4, 43, 96
6, 99328, Note_off_c, 4, 43, 0
6, 100352, Note_on_c, 4, 47, 96
6, 101376, Note_off_c, 4, 47, 0
6, 102400, Note_on_c, 4, 48, 96
6, 103424, Note_off_c, 4, 48, 0
6, 104448, Note_on_c, 4, 45, 96
6, 105472, Note_off_c, 4, 45, 0
6, 106496, Note_on_c, 4, 50, 96
6, 107520, Note_off_c, 4, 50, 0
6, 108544, Note_on_c, 4, 47, 96
6, 109568, Note_off_c, 4, 47, 0
6, 110592, Note_on_c, 4, 52, 96
6, 111616, Note_off_c, 4, 52, 0
6, 111616, Note_on_c, 4, 48, 96
6, 112640, Note_off_c, 4, 48, 0
6, 112640, Note_on_c, 4, 50, 96
6, 113664, Note_off_c, 4, 50, 0
6, 113664, Note_on_c, 4, 38, 96
6, 114688, Note_off_c, 4, 38, 0
6, 114688, Note_on_c, 4, 43, 96
6, 115712, Note_off_c, 4, 43, 0
6, 116736, Note_on_c, 4, 40, 96
6, 117760, Note_off_c, 4, 40, 0
6, 118784, Note_on_c, 4, 38, 96
6, 119808, Note_off_c, 4, 38, 0
6, 120832, Note_on_c, 4, 50, 96
6, 121856, Note_off_c, 4, 50, 0
6, 122880, Note_on_c, 4, 38, 96
6, 123904, Note_off_c, 4, 38, 0
6, 124928, Note_on_c, 4, 50, 96
6, 125952, Note_off_c, 4, 50, 0
6, 126976, Note_on_c, 4, 43, 96
6, 128000, Note_off_c, 4, 43, 0
6, 129024, Note_on_c, 4, 47, 96
6, 130048, Note_off_c, 4, 47, 0
6, 131072, Note_on_c, 4, 50, 96
6, 132096, Note_off_c, 4, 50, 0
6, 133120, Note_on_c, 4, 54, 96
6, 134144, Note_off_c, 4, 54, 0
6, 135168, Note_on_c, 4, 51, 96
6, 136192, Note_off_c, 4, 51, 0
6, 137216, Note_on_c, 4, 47, 96
6, 138240, Note_off_c, 4, 47, 0
6, 139264, Note_on_c, 4, 52, 96
6, 140288, Note_off_c, 4, 52, 0
6, 141312, Note_on_c, 4, 49, 96
6, 142336, Note_off_c, 4, 49, 0
6, 143360, Note_on_c, 4, 54, 96
6, 144384, Note_off_c, 4, 54, 0
6, 145408, Note_on_c, 4, 50, 96
6, 146432, Note_off_c, 4, 50, 0
6, 147456, Note_on_c, 4, 57, 96
6, 148480, Note_off_c, 4, 57, 0
6, 149504, Note_on_c, 4, 54, 96
6, 150528, Note_off_c, 4, 54, 0
6, 151552, Note_on_c, 4, 55, 96
6, 152576, Note_off_c, 4, 55, 0
6, 153600, Note_on_c, 4, 50, 96
6, 154624, Note_off_c, 4, 50, 0
6, 155648, Note_on_c, 4, 57, 96
6, 156672, Note_off_c, 4, 57, 0
6, 157696, Note_on_c, 4, 45, 96
6, 158720, Note_off_c, 4, 45, 0
6, 159744, Note_on_c, 4, 50, 96
6, 160768, Note_off_c, 4, 50, 0
6, 161792, Note_on_c, 4, 54, 96
6, 162816, Note_off_c, 4, 54, 0
6, 163840, Note_on_c, 4, 57, 96
6, 164864, Note_off_c, 4, 57, 0
6, 165888, Note_on_c, 4, 54, 96
6, 166912, Note_off_c, 4, 54, 0
6, 167936, Note_on_c, 4, 55, 96
6, 168960, Note_off_c, 4, 55, 0
6, 169984, Note_on_c, 4, 43, 96
6, 171008, Note_off_c, 4, 43, 0
6, 172032, Note_on_c, 4, 50, 96
6, 173056, Note_off_c, 4, 50, 0
6, 174080, Note_on_c, 4, 38, 96
6, 175104, Note_off_c, 4, 38, 0
6, 176128, Note_on_c, 4, 50, 96
6, 177152, Note_off_c, 4, 50, 0
6, 178176, Note_on_c, 4, 48, 96
6, 179200, Note_off_c, 4, 48, 0
6, 180224, Note_on_c, 4, 47, 96
6, 181248, Note_off_c, 4, 47, 0
6, 182272, Note_on_c, 4, 43, 96
6, 183296, Note_off_c, 4, 43, 0
6, 184320, Note_on_c, 4, 48, 96
6, 185344, Note_off_c, 4, 48, 0
6, 186368, Note_on_c, 4, 50, 96
6, 187392, Note_off_c, 4, 50, 0
6, 188416, Note_on_c, 4, 52, 96
6, 189440, Note_off_c, 4, 52, 0
6, 190464, Note_on_c, 4, 55, 96
6, 191488, Note_off_c, 4, 55, 0
6, 192512, Note_on_c, 4, 60, 96
6, 193536, Note_off_c, 4, 60, 0
6, 194560, Note_on_c, 4, 52, 96
6, 195584, Note_off_c, 4, 52, 0
6, 196608, Note_on_c, 4, 53, 96
6, 197632, Note_off_c, 4, 53, 0
6, 198656, Note_on_c, 4, 50, 96
6, 199680, Note_off_c, 4, 50, 0
6, 200704, Note_on_c, 4, 55, 96
6, 201728, Note_off_c, 4, 55, 0
6, 202752, Note_on_c, 4, 52, 96
6, 203776, Note_off_c, 4, 52, 0
6, 204800, Note_on_c, 4, 57, 96
6, 205824, Note_off_c, 4, 57, 0
6, 205824, Note_on_c, 4, 53, 96
6, 206848, Note_off_c, 4, 53, 0
6, 206848, Note_on_c, 4, 55, 96
6, 207872, Note_off_c, 4, 55, 0
6, 207872, Note_on_c, 4, 43, 96
6, 208896, Note_off_c, 4, 43, 0
6, 208896, Note_on_c, 4, 48, 96
6, 209920, Note_off_c, 4, 48, 0
6, 210944, Note_on_c, 4, 43, 96
6, 211968, Note_off_c, 4, 43, 0
6, 212992, Note_on_c, 4, 50, 96
6, 214016, Note_off_c, 4, 50, 0
6, 215040, Note_on_c, 4, 55, 96
6, 216064, Note_off_c, 4, 55, 0
6, 217088, Note_on_c, 4, 50, 96
6, 218112, Note_off_c, 4, 50, 0
6, 219136, Note_on_c, 4, 38, 96
6, 220160, Note_off_c, 4, 38, 0
6, 221184, Note_on_c, 4, 43, 96
6, 222208, Note_off_c, 4, 43, 0
6, 223232, Note_on_c, 4, 55, 96
6, 224256, Note_off_c, 4, 55, 0
6, 225280, Note_on_c, 4, 43, 96
6, 226304, Note_off_c, 4, 43, 0
6, 227328, Note_on_c, 4, 55, 96
6, 228352, Note_off_c, 4, 55, 0
6, 229376, Note_on_c, 4, 48, 96
6, 230400, Note_off_c, 4, 48, 0
6, 231424, Note_on_c, 4, 52, 96
6, 232448, Note_off_c, 4, 52, 0
6, 233472, Note_on_c, 4, 55, 96
6, 234496, Note_off_c, 4, 55, 0
6, 235520, Note_on_c, 4, 47, 96
6, 236544, Note_off_c, 4, 47, 0
6, 237568, Note_on_c, 4, 48, 96
6, 238592, Note_off_c, 4, 48, 0
6, 239616, Note_on_c, 4, 45, 96
6, 240640, Note_off_c, 4, 45, 0
6, 241664, Note_on_c, 4, 50, 96
6, 242688, Note_off_c, 4, 50, 0
6, 243712, Note_on_c, 4, 47, 96
6, 244736, Note_off_c, 4, 47, 0
6, 245760, Note_on_c, 4, 52, 96
6, 246784, Note_off_c, 4, 52, 0
6, 246784, Note_on_c, 4, 48, 96
6, 247808, Note_off_c, 4, 48, 0
6, 247808, Note_on_c, 4, 50, 96
6, 248832, Note_off_c, 4, 50, 0
6, 248832, Note_on_c, 4, 38, 96
6, 249856, Note_off_c, 4, 38, 0
6, 249856, Note_on_c, 4, 43, 96
6, 253952, Note_off_c, 4, 43, 0
6, 253953, End_track
7, 0, Start_track
7, 0, Title_t, "Instrument 6"
7, 0, Note_on_c, 5, 71, 96
7, 1536, Note_off_c, 5, 71, 0
7, 1536, Note_on_c, 5, 72, 96
7, 2048, Note_off_c, 5, 72, 0
7, 2048, Note_on_c, 5, 71, 96
7, 2560, Note_off_c, 5, 71, 0
7, 2560, Note_on_c, 5, 69, 96
7, 3072, Note_off_c, 5, 69, 0
7, 3072, Note_on_c, 5, 71, 96
7, 3584, Note_off_c, 5, 71, 0
7, 3584, Note_on_c, 5, 72, 96
7, 4096, Note_off_c, 5, 72, 0
7, 4096, Note_on_c, 5, 74, 96
7, 4608, Note_off_c, 5, 74, 0
7, 4608, Note_on_c, 5, 72, 96
7, 5120, Note_off_c, 5, 72, 0
7, 5120, Note_on_c, 5, 71, 96
7, 7168, Note_off_c, 5, 71, 0
7, 7168, Note_on_c, 5, 74, 96
7, 8192, Note_off_c, 5, 74, 0
7, 8192, Note_on_c, 5, 76, 96
7, 8704, Note_off_c, 5, 76, 0
7, 8704, Note_on_c, 5, 74, 96
7, 9216, Note_off_c, 5, 74, 0
7, 9216, Note_on_c, 5, 72, 96
7, 11264, Note_off_c, 5, 72, 0
7, 11264, Note_on_c, 5, 76, 96
7, 12288, Note_off_c, 5, 76, 0
7, 12288, Note_on_c, 5, 74, 96
7, 12800, Note_off_c, 5, 74, 0
7, 12800, Note_on_c, 5, 72, 96
7, 13312, Note_off_c, 5, 72, 0
7, 13312, Note_on_c, 5, 71, 96
7, 15360, Note_off_c, 5, 71, 0
7, 15360, Note_on_c, 5, 71, 96
7, 15872, Note_off_c, 5, 71, 0
7, 15872, Note_on_c, 5, 72, 96
7, 16384, Note_off_c, 5, 72, 0
7, 16384, Note_on_c, 5, 74, 96
7, 16896, Note_off_c, 5, 74, 0
7, 16896, Note_on_c, 5, 76, 96
7, 17408, Note_off_c, 5, 76, 0
7, 17408, Note_on_c, 5, 77, 96
7, 19456, Note_off_c, 5, 77, 0
7, 19456, Note_on_c, 5, 76, 96
7, 19968, Note_off_c, 5, 76, 0
7, 19968, Note_on_c, 5, 74, 96
7, 20480, Note_off_c, 5, 74, 0
7, 20480, Note_on_c, 5, 72, 96
7, 21504, Note_off_c, 5, 72, 0
7, 21504, Note_on_c, 5, 72, 96
7, 22016, Note_off_c, 5, 72, 0
7, 22016, Note_on_c, 5, 71, 96
7, 22528, Note_off_c, 5, 71, 0
7, 22528, Note_on_c, 5, 72, 96
7, 23552, Note_off_c, 5, 72, 0
7, 23552, Note_on_c, 5, 74, 96
7, 24064, Note_off_c, 5, 74, 0
7, 24064, Note_on_c, 5, 72, 96
7, 24576, Note_off_c, 5, 72, 0
7, 24576, Note_on_c, 5, 71, 96
7, 25088, Note_off_c, 5, 71, 0
7, 25088, Note_on_c, 5, 72, 96
7, 25600, Note_off_c, 5, 72, 0
7, 25600, Note_on_c, 5, 74, 96
7, 27648, Note_off_c, 5, 74, 0
7, 27648, Note_on_c, 5, 72, 96
7, 28160, Note_off_c, 5, 72, 0
7, 28160, Note_on_c, 5, 71, 96
7, 28672, Note_off_c, 5, 71, 0
7, 28672, Note_on_c, 5, 69, 96
7, 29696, Note_off_c, 5, 69, 0
7, 29696, Note_on_c, 5, 72, 96
7, 30208, Note_off_c, 5, 72, 0
7, 30208, Note_on_c, 5, 69, 96
7, 30720, Note_off_c, 5, 69, 0
7, 30720, Note_on_c, 5, 71, 96
7, 31744, Note_off_c, 5, 71, 0
7, 31744, Note_on_c, 5, 74, 96
7, 32256, Note_off_c, 5, 74, 0
7, 32256, Note_on_c, 5, 71, 96
7, 32768, Note_off_c, 5, 71, 0
7, 32768, Note_on_c, 5, 72, 96
7, 33792, Note_off_c, 5, 72, 0
7, 33792, Note_on_c, 5, 69, 96
7, 34816, Note_off_c, 5, 69, 0
7, 35840, Note_on_c, 5, 71, 96
7, 36352, Note_off_c, 5, 71, 0
7, 36352, Note_on_c, 5, 72, 96
7, 36864, Note_off_c, 5, 72, 0
7, 36864, Note_on_c, 5, 74, 96
7, 37376, Note_off_c, 5, 74, 0
7, 37376, Note_on_c, 5, 72, 96
7, 37888, Note_off_c, 5, 72, 0
7, 37888, Note_on_c, 5, 74, 96
7, 38400, Note_off_c, 5, 74, 0
7, 38400, Note_on_c, 5, 76, 96
7, 38912, Note_off_c, 5, 76, 0
7, 38912, Note_on_c, 5, 74, 96
7, 39424, Note_off_c, 5, 74, 0
7, 39424, Note_on_c, 5, 76, 96
7, 39936, Note_off_c, 5, 76, 0
7, 39936, Note_on_c, 5, 74, 96
7, 40448, Note_off_c, 5, 74, 0
7, 40448, Note_on_c, 5, 72, 96
7, 40960, Note_off_c, 5, 72, 0
7, 40960, Note_on_c, 5, 71, 96
7, 41984, Note_off_c, 5, 71, 0
7, 41984, Note_on_c, 5, 74, 96
7, 42496, Note_off_c, 5, 74, 0
7, 42496, Note_on_c, 5, 72, 96
7, 43008, Note_off_c, 5, 72, 0
7, 43008, Note_on_c, 5, 71, 96
7, 44032, Note_off_c, 5, 71, 0
7, 44032, Note_on_c, 5, 79, 96
7, 45056, Note_off_c, 5, 79, 0
7, 45056, Note_on_c, 5, 69, 96
7, 46080, Note_off_c, 5, 69, 0
7, 46080, Note_on_c, 5, 69, 96
7, 46592, Note_off_c, 5, 69, 0
7, 46592, Note_on_c, 5, 67, 96
7, 47104, Note_off_c, 5, 67, 0
7, 47104, Note_on_c, 5, 69, 96
7, 48128, Note_off_c, 5, 69, 0
7, 48128, Note_on_c, 5, 72, 96
7, 48640, Note_off_c, 5, 72, 0
7, 48640, Note_on_c, 5, 69, 96
7, 49152, Note_off_c, 5, 69, 0
7, 49152, Note_on_c, 5, 71, 96
7, 49664, Note_off_c, 5, 71, 0
7, 49664, Note_on_c, 5, 74, 96
7, 50176, Note_off_c, 5, 74, 0
7, 50176, Note_on_c, 5, 72, 96
7, 50688, Note_off_c, 5, 72, 0
7, 50688, Note_on_c, 5, 69, 96
7, 51200, Note_off_c, 5, 69, 0
7, 51200, Note_on_c, 5, 71, 96
7, 51712, Note_off_c, 5, 71, 0
7, 51712, Note_on_c, 5, 74, 96
7, 52224, Note_off_c, 5, 74, 0
7, 52224, Note_on_c, 5, 72, 96
7, 52736, Note_off_c, 5, 72, 0
7, 52736, Note_on_c, 5, 69, 96
7, 53248, Note_off_c, 5, 69, 0
7, 53248, Note_on_c, 5, 71, 96
7, 54272, Note_off_c, 5, 71, 0
7, 54272, Note_on_c, 5, 71, 96
7, 54784, Note_off_c, 5, 71, 0
7, 54784, Note_on_c, 5, 72, 96
7, 55040, Note_off_c, 5, 72, 0
7, 55040, Note_on_c, 5, 74, 96
7, 55296, Note_off_c, 5, 74, 0
7, 55296, Note_on_c, 5, 72, 96
7, 55808, Note_off_c, 5, 72, 0
7, 55808, Note_on_c, 5, 71, 96
7, 56320, Note_off_c, 5, 71, 0
7, 56320, Note_on_c, 5, 69, 96
7, 56832, Note_off_c, 5, 69, 0
7, 56832, Note_on_c, 5, 67, 96
7, 57344, Note_off_c, 5, 67, 0
7, 57344, Note_on_c, 5, 67, 96
7, 57856, Note_off_c, 5, 67, 0
7, 57856, Note_on_c, 5, 62, 96
7, 58368, Note_off_c, 5, 62, 0
7, 58368, Note_on_c, 5, 67, 96
7, 58880, Note_off_c, 5, 67, 0
7, 58880, Note_on_c, 5, 69, 96
7, 59392, Note_off_c, 5, 69, 0
7, 59392, Note_on_c, 5, 71, 96
7, 59904, Note_off_c, 5, 71, 0
7, 59904, Note_on_c, 5, 69, 96
7, 60416, Note_off_c, 5, 69, 0
7, 60416, Note_on_c, 5, 71, 96
7, 60928, Note_off_c, 5, 71, 0
7, 60928, Note_on_c, 5, 72, 96
7, 61440, Note_off_c, 5, 72, 0
7, 61440, Note_on_c, 5, 74, 96
7, 61952, Note_off_c, 5, 74, 0
7, 61952, Note_on_c, 5, 72, 96
7, 62464, Note_off_c, 5, 72, 0
7, 62464, Note_on_c, 5, 71, 96
7, 64512, Note_off_c, 5, 71, 0
7, 64512, Note_on_c, 5, 74, 96
7, 65536, Note_off_c, 5, 74, 0
7, 65536, Note_on_c, 5, 76, 96
7, 66048, Note_off_c, 5, 76, 0
7, 66048, Note_on_c, 5, 74, 96
7, 66560, Note_off_c, 5, 74, 0
7, 66560, Note_on_c, 5, 72, 96
7, 68608, Note_off_c, 5, 72, 0
7, 68608, Note_on_c, 5, 76, 96
7, 69632, Note_off_c, 5, 76, 0
7, 69632, Note_on_c, 5, 74, 96
7, 70144, Note_off_c, 5, 74, 0
7, 70144, Note_on_c, 5, 72, 96
7, 70656, Note_off_c, 5, 72, 0
7, 70656, Note_on_c, 5, 71, 96
7, 72704, Note_off_c, 5, 71, 0
7, 72704, Note_on_c, 5, 71, 96
7, 73216, Note_off_c, 5, 71, 0
7, 73216, Note_on_c, 5, 72, 96
7, 73728, Note_off_c, 5, 72, 0
7, 73728, Note_on_c, 5, 74, 96
7, 74240, Note_off_c, 5, 74, 0
7, 74240, Note_on_c, 5, 76, 96
7, 74752, Note_off_c, 5, 76, 0
7, 74752, Note_on_c, 5, 77, 96
7, 76800, Note_off_c, 5, 77, 0
7, 76800, Note_on_c, 5, 76, 96
7, 77312, Note_off_c, 5, 76, 0
7, 77312, Note_on_c, 5, 74, 96
7, 77824, Note_off_c, 5, 74, 0
7, 77824, Note_on_c, 5, 72, 96
7, 78848, Note_off_c, 5, 72, 0
7, 78848, Note_on_c, 5, 72, 96
7, 79360, Note_off_c, 5, 72, 0
7, 79360, Note_on_c, 5, 71, 96
7, 79872, Note_off_c, 5, 71, 0
7, 79872, Note_on_c, 5, 72, 96
7, 80896, Note_off_c, 5, 72, 0
7, 80896, Note_on_c, 5, 74, 96
7, 81408, Note_off_c, 5, 74, 0
7, 81408, Note_on_c, 5, 72, 96
7, 81920, Note_off_c, 5, 72, 0
7, 81920, Note_on_c, 5, 71, 96
7, 82432, Note_off_c, 5, 71, 0
7, 82432, Note_on_c, 5, 72, 96
7, 82944, Note_off_c, 5, 72, 0
7, 82944, Note_on_c, 5, 74, 96
7, 84992, Note_off_c, 5, 74, 0
7, 84992, Note_on_c, 5, 72, 96
7, 85504, Note_off_c, 5, 72, 0
7, 85504, Note_on_c, 5, 71, 96
7, 86016, Note_off_c, 5, 71, 0
7, 86016, Note_on_c, 5, 69, 96
7, 87040, Note_off_c, 5, 69, 0
7, 87040, Note_on_c, 5, 72, 96
7, 87552, Note_off_c, 5, 72, 0
7, 87552, Note_on_c, 5, 69, 96
7, 88064, Note_off_c, 5, 69, 0
7, 88064, Note_on_c, 5, 71, 96
7, 89088, Note_off_c, 5, 71, 0
7, 89088, Note_on_c, 5, 74, 96
7, 89600, Note_off_c, 5, 74, 0
7, 89600, Note_on_c, 5, 71, 96
7, 90112, Note_off_c, 5, 71, 0
7, 90112, Note_on_c, 5, 72, 96
7, 91136, Note_off_c, 5, 72, 0
7, 91136, Note_on_c, 5, 69, 96
7, 92160, Note_off_c, 5, 69, 0
7, 93184, Note_on_c, 5, 71, 96
7, 93696, Note_off_c, 5, 71, 0
7, 93696, Note_on_c, 5, 72, 96
7, 94208, Note_off_c, 5, 72, 0
7, 94208, Note_on_c, 5, 74, 96
7, 94720, Note_off_c, 5, 74, 0
7, 94720, Note_on_c, 5, 72, 96
7, 95232, Note_off_c, 5, 72, 0
7, 95232, Note_on_c, 5, 74, 96
7, 95744, Note_off_c, 5, 74, 0
7, 95744, Note_on_c, 5, 76, 96
7, 96256, Note_off_c, 5, 76, 0
7, 96256, Note_on_c, 5, 74, 96
7, 96768, Note_off_c, 5, 74, 0
7, 96768, Note_on_c, 5, 76, 96
7, 97280, Note_off_c, 5, 76, 0
7, 97280, Note_on_c, 5, 74, 96
7, 97792, Note_off_c, 5, 74, 0
7, 97792, Note_on_c, 5, 72, 96
7, 98304, Note_off_c, 5, 72, 0
7, 98304, Note_on_c, 5, 71, 96
7, 99328, Note_off_c, 5, 71, 0
7, 99328, Note_on_c, 5, 74, 96
7, 99840, Note_off_c, 5, 74, 0
7, 99840, Note_on_c, 5, 72, 96
7, 100352, Note_off_c, 5, 72, 0
7, 100352, Note_on_c, 5, 71, 96
7, 101376, Note_off_c, 5, 71, 0
7, 101376, Note_on_c, 5, 79, 96
7, 102400, Note_off_c, 5, 79, 0
7, 102400, Note_on_c, 5, 69, 96
7, 103424, Note_off_c, 5, 69, 0
7, 103424, Note_on_c, 5, 69, 96
7, 103936, Note_off_c, 5, 69, 0
7, 103936, Note_on_c, 5, 67, 96
7, 104448, Note_off_c, 5, 67, 0
7, 104448, Note_on_c, 5, 69, 96
7, 105472, Note_off_c, 5, 69, 0
7, 105472, Note_on_c, 5, 72, 96
7, 105984, Note_off_c, 5, 72, 0
7, 105984, Note_on_c, 5, 69, 96
7, 106496, Note_off_c, 5, 69, 0
7, 106496, Note_on_c, 5, 71, 96
7, 107008, Note_off_c, 5, 71, 0
7, 107008, Note_on_c, 5, 74, 96
7, 107520, Note_off_c, 5, 74, 0
7, 107520, Note_on_c, 5, 72, 96
7, 108032, Note_off_c, 5, 72, 0
7, 108032, Note_on_c, 5, 69, 96
7, 108544, Note_off_c, 5, 69, 0
7, 108544, Note_on_c, 5, 71, 96
7, 109056, Note_off_c, 5, 71, 0
7, 109056, Note_on_c, 5, 74, 96
7, 109568, Note_off_c, 5, 74, 0
7, 109568, Note_on_c, 5, 72, 96
7, 110080, Note_off_c, 5, 72, 0
7, 110080, Note_on_c, 5, 69, 96
7, 110592, Note_off_c, 5, 69, 0
7, 110592, Note_on_c, 5, 71, 96
7, 111616, Note_off_c, 5, 71, 0
7, 111616, Note_on_c, 5, 71, 96
7, 112128, Note_off_c, 5, 71, 0
7, 112128, Note_on_c, 5, 72, 96
7, 112384, Note_off_c, 5, 72, 0
7, 112384, Note_on_c, 5, 74, 96
7, 112640, Note_off_c, 5, 74, 0
7, 112640, Note_on_c, 5, 72, 96
7, 113152, Note_off_c, 5, 72, 0
7, 113152, Note_on_c, 5, 71, 96
7, 113664, Note_off_c, 5, 71, 0
7, 113664, Note_on_c, 5, 69, 96
7, 114176, Note_off_c, 5, 69, 0
7, 114176, Note_on_c, 5, 67, 96
7, 114688, Note_off_c, 5, 67, 0
7, 114688, Note_on_c, 5, 67, 96
7, 115200, Note_off_c, 5, 67, 0
7, 115200, Note_on_c, 5, 62, 96
7, 115712, Note_off_c, 5, 62, 0
7, 115712, Note_on_c, 5, 67, 96
7, 116224, Note_off_c, 5, 67, 0
7, 116224, Note_on_c, 5, 69, 96
7, 116736, Note_off_c, 5, 69, 0
7, 116736, Note_on_c, 5, 71, 96
7, 117248, Note_off_c, 5, 71, 0
7, 117248, Note_on_c, 5, 73, 96
7, 117760, Note_off_c, 5, 73, 0
7, 117760, Note_on_c, 5, 74, 96
7, 118272, Note_off_c, 5, 74, 0
7, 118272, Note_on_c, 5, 76, 96
7, 118784, Note_off_c, 5, 76, 0
7, 118784, Note_on_c, 5, 78, 96
7, 120320, Note_off_c, 5, 78, 0
7, 120320, Note_on_c, 5, 79, 96
7, 120832, Note_off_c, 5, 79, 0
7, 120832, Note_on_c, 5, 78, 96
7, 121344, Note_off_c, 5, 78, 0
7, 121344, Note_on_c, 5, 76, 96
7, 121856, Note_off_c, 5, 76, 0
7, 121856, Note_on_c, 5, 78, 96
7, 122368, Note_off_c, 5, 78, 0
7, 122368, Note_on_c, 5, 76, 96
7, 122880, Note_off_c, 5, 76, 0
7, 122880, Note_on_c, 5, 78, 96
7, 123392, Note_off_c, 5, 78, 0
7, 123392, Note_on_c, 5, 76, 96
7, 123904, Note_off_c, 5, 76, 0
7, 123904, Note_on_c, 5, 74, 96
7, 125952, Note_off_c, 5, 74, 0
7, 125952, Note_on_c, 5, 78, 96
7, 126976, Note_off_c, 5, 78, 0
7, 126976, Note_on_c, 5, 79, 96
7, 128000, Note_off_c, 5, 79, 0
7, 128000, Note_on_c, 5, 74, 96
7, 130048, Note_off_c, 5, 74, 0
7, 130048, Note_on_c, 5, 79, 96
7, 131072, Note_off_c, 5, 79, 0
7, 131072, Note_on_c, 5, 78, 96
7, 131584, Note_off_c, 5, 78, 0
7, 131584, Note_on_c, 5, 76, 96
7, 132096, Note_off_c, 5, 76, 0
7, 132096, Note_on_c, 5, 74, 96
7, 134144, Note_off_c, 5, 74, 0
7, 134144, Note_on_c, 5, 74, 96
7, 134656, Note_off_c, 5, 74, 0
7, 134656, Note_on_c, 5, 76, 96
7, 135168, Note_off_c, 5, 76, 0
7, 135168, Note_on_c, 5, 78, 96
7, 135680, Note_off_c, 5, 78, 0
7, 135680, Note_on_c, 5, 76, 96
7, 136192, Note_off_c, 5, 76, 0
7, 136192, Note_on_c, 5, 78, 96
7, 136704, Note_off_c, 5, 78, 0
7, 136704, Note_on_c, 5, 79, 96
7, 137216, Note_off_c, 5, 79, 0
7, 137216, Note_on_c, 5, 78, 96
7, 137728, Note_off_c, 5, 78, 0
7, 137728, Note_on_c, 5, 79, 96
7, 138240, Note_off_c, 5, 79, 0
7, 138240, Note_on_c, 5, 78, 96
7, 138752, Note_off_c, 5, 78, 0
7, 138752, Note_on_c, 5, 79, 96
7, 139264, Note_off_c, 5, 79, 0
7, 139264, Note_on_c, 5, 76, 96
7, 140288, Note_off_c, 5, 76, 0
7, 140288, Note_on_c, 5, 76, 96
7, 140800, Note_off_c, 5, 76, 0
7, 140800, Note_on_c, 5, 75, 96
7, 141312, Note_off_c, 5, 75, 0
7, 141312, Note_on_c, 5, 76, 96
7, 142336, Note_off_c, 5, 76, 0
7, 142336, Note_on_c, 5, 78, 96
7, 142848, Note_off_c, 5, 78, 0
7, 142848, Note_on_c, 5, 76, 96
7, 143360, Note_off_c, 5, 76, 0
7, 143360, Note_on_c, 5, 74, 96
7, 143872, Note_off_c, 5, 74, 0
7, 143872, Note_on_c, 5, 76, 96
7, 144384, Note_off_c, 5, 76, 0
7, 144384, Note_on_c, 5, 78, 96
7, 146432, Note_off_c, 5, 78, 0
7, 146432, Note_on_c, 5, 76, 96
7, 146944, Note_off_c, 5, 76, 0
7, 146944, Note_on_c, 5, 74, 96
7, 147456, Note_off_c, 5, 74, 0
7, 147456, Note_on_c, 5, 73, 96
7, 147968, Note_off_c, 5, 73, 0
7, 147968, Note_on_c, 5, 71, 96
7, 148480, Note_off_c, 5, 71, 0
7, 148480, Note_on_c, 5, 73, 96
7, 149504, Note_off_c, 5, 73, 0
7, 150528, Note_on_c, 5, 74, 96
7, 151040, Note_off_c, 5, 74, 0
7, 151040, Note_on_c, 5, 73, 96
7, 151552, Note_off_c, 5, 73, 0
7, 151552, Note_on_c, 5, 71, 96
7, 152064, Note_off_c, 5, 71, 0
7, 152064, Note_on_c, 5, 74, 96
7, 152576, Note_off_c, 5, 74, 0
7, 152576, Note_on_c, 5, 73, 96
7, 153088, Note_off_c, 5, 73, 0
7, 153088, Note_on_c, 5, 76, 96
7, 153600, Note_off_c, 5, 76, 0
7, 153600, Note_on_c, 5, 74, 96
7, 154112, Note_off_c, 5, 74, 0
7, 154112, Note_on_c, 5, 78, 96
7, 154624, Note_off_c, 5, 78, 0
7, 154624, Note_on_c, 5, 76, 96
7, 155136, Note_off_c, 5, 76, 0
7, 155136, Note_on_c, 5, 79, 96
7, 155648, Note_off_c, 5, 79, 0
7, 155648, Note_on_c, 5, 78, 96
7, 156672, Note_off_c, 5, 78, 0
7, 156672, Note_on_c, 5, 78, 96
7, 157184, Note_off_c, 5, 78, 0
7, 157184, Note_on_c, 5, 76, 96
7, 157696, Note_off_c, 5, 76, 0
7, 157696, Note_on_c, 5, 79, 96
7, 158720, Note_off_c, 5, 79, 0
7, 158720, Note_on_c, 5, 78, 96
7, 159232, Note_off_c, 5, 78, 0
7, 159232, Note_on_c, 5, 76, 96
7, 159744, Note_off_c, 5, 76, 0
7, 159744, Note_on_c, 5, 78, 96
7, 160256, Note_off_c, 5, 78, 0
7, 160256, Note_on_c, 5, 76, 96
7, 160768, Note_off_c, 5, 76, 0
7, 160768, Note_on_c, 5, 74, 96
7, 162816, Note_off_c, 5, 74, 0
7, 162816, Note_on_c, 5, 69, 96
7, 163328, Note_off_c, 5, 69, 0
7, 163328, Note_on_c, 5, 71, 96
7, 163840, Note_off_c, 5, 71, 0
7, 163840, Note_on_c, 5, 72, 96
7, 164864, Note_off_c, 5, 72, 0
7, 164864, Note_on_c, 5, 72, 96
7, 165376, Note_off_c, 5, 72, 0
7, 165376, Note_on_c, 5, 71, 96
7, 165888, Note_off_c, 5, 71, 0
7, 165888, Note_on_c, 5, 72, 96
7, 166912, Note_off_c, 5, 72, 0
7, 166912, Note_on_c, 5, 74, 96
7, 167424, Note_off_c, 5, 74, 0
7, 167424, Note_on_c, 5, 72, 96
7, 167936, Note_off_c, 5, 72, 0
7, 167936, Note_on_c, 5, 71, 96
7, 168448, Note_off_c, 5, 71, 0
7, 168448, Note_on_c, 5, 72, 96
7, 168960, Note_off_c, 5, 72, 0
7, 168960, Note_on_c, 5, 74, 96
7, 171008, Note_off_c, 5, 74, 0
7, 171008, Note_on_c, 5, 72, 96
7, 171520, Note_off_c, 5, 72, 0
7, 171520, Note_on_c, 5, 71, 96
7, 172032, Note_off_c, 5, 71, 0
7, 172032, Note_on_c, 5, 69, 96
7, 172544, Note_off_c, 5, 69, 0
7, 172544, Note_on_c, 5, 72, 96
7, 173056, Note_off_c, 5, 72, 0
7, 173056, Note_on_c, 5, 71, 96
7, 173568, Note_off_c, 5, 71, 0
7, 173568, Note_on_c, 5, 67, 96
7, 174080, Note_off_c, 5, 67, 0
7, 174080, Note_on_c, 5, 69, 96
7, 174592, Note_off_c, 5, 69, 0
7, 174592, Note_on_c, 5, 72, 96
7, 175104, Note_off_c, 5, 72, 0
7, 175104, Note_on_c, 5, 71, 96
7, 175616, Note_off_c, 5, 71, 0
7, 175616, Note_on_c, 5, 67, 96
7, 176128, Note_off_c, 5, 67, 0
7, 176128, Note_on_c, 5, 69, 96
7, 177664, Note_off_c, 5, 69, 0
7, 177664, Note_on_c, 5, 72, 96
7, 178176, Note_off_c, 5, 72, 0
7, 178176, Note_on_c, 5, 71, 96
7, 178688, Note_off_c, 5, 71, 0
7, 178688, Note_on_c, 5, 69, 96
7, 179200, Note_off_c, 5, 69, 0
7, 179200, Note_on_c, 5, 71, 96
7, 179712, Note_off_c, 5, 71, 0
7, 179712, Note_on_c, 5, 72, 96
7, 180224, Note_off_c, 5, 72, 0
7, 180224, Note_on_c, 5, 74, 96
7, 180736, Note_off_c, 5, 74, 0
7, 180736, Note_on_c, 5, 72, 96
7, 181248, Note_off_c, 5, 72, 0
7, 181248, Note_on_c, 5, 71, 96
7, 183296, Note_off_c, 5, 71, 0
7, 183296, Note_on_c, 5, 74, 96
7, 184320, Note_off_c, 5, 74, 0
7, 184320, Note_on_c, 5, 76, 96
7, 184832, Note_off_c, 5, 76, 0
7, 184832, Note_on_c, 5, 74, 96
7, 185344, Note_off_c, 5, 74, 0
7, 185344, Note_on_c, 5, 72, 96
7, 186368, Note_off_c, 5, 72, 0
7, 187392, Note_on_c, 5, 71, 96
7, 187904, Note_off_c, 5, 71, 0
7, 187904, Note_on_c, 5, 67, 96
7, 188416, Note_off_c, 5, 67, 0
7, 188416, Note_on_c, 5, 72, 96
7, 189440, Note_off_c, 5, 72, 0
7, 189440, Note_on_c, 5, 72, 96
7, 189952, Note_off_c, 5, 72, 0
7, 189952, Note_on_c, 5, 67, 96
7, 190464, Note_off_c, 5, 67, 0
7, 190464, Note_on_c, 5, 74, 96
7, 191488, Note_off_c, 5, 74, 0
7, 191488, Note_on_c, 5, 74, 96
7, 192000, Note_off_c, 5, 74, 0
7, 192000, Note_on_c, 5, 67, 96
7, 192512, Note_off_c, 5, 67, 0
7, 192512, Note_on_c, 5, 76, 96
7, 193024, Note_off_c, 5, 76, 0
7, 193024, Note_on_c, 5, 77, 96
7, 193536, Note_off_c, 5, 77, 0
7, 193536, Note_on_c, 5, 79, 96
7, 195584, Note_off_c, 5, 79, 0
7, 195584, Note_on_c, 5, 77, 96
7, 196096, Note_off_c, 5, 77, 0
7, 196096, Note_on_c, 5, 76, 96
7, 196608, Note_off_c, 5, 76, 0
7, 196608, Note_on_c, 5, 74, 96
7, 197632, Note_off_c, 5, 74, 0
7, 197632, Note_on_c, 5, 74, 96
7, 198144, Note_off_c, 5, 74, 0
7, 198144, Note_on_c, 5, 72, 96
7, 198656, Note_off_c, 5, 72, 0
7, 198656, Note_on_c, 5, 74, 96
7, 199680, Note_off_c, 5, 74, 0
7, 199680, Note_on_c, 5, 77, 96
7, 200192, Note_off_c, 5, 77, 0
7, 200192, Note_on_c, 5, 74, 96
7, 200704, Note_off_c, 5, 74, 0
7, 200704, Note_on_c, 5, 76, 96
7, 201216, Note_off_c, 5, 76, 0
7, 201216, Note_on_c, 5, 79, 96
7, 201728, Note_off_c, 5, 79, 0
7, 201728, Note_on_c, 5, 77, 96
7, 202240, Note_off_c, 5, 77, 0
7, 202240, Note_on_c, 5, 74, 96
7, 202752, Note_off_c, 5, 74, 0
7, 202752, Note_on_c, 5, 76, 96
7, 203264, Note_off_c, 5, 76, 0
7, 203264, Note_on_c, 5, 79, 96
7, 203776, Note_off_c, 5, 79, 0
7, 203776, Note_on_c, 5, 77, 96
7, 204288, Note_off_c, 5, 77, 0
7, 204288, Note_on_c, 5, 74, 96
7, 204800, Note_off_c, 5, 74, 0
7, 204800, Note_on_c, 5, 76, 96
7, 205824, Note_off_c, 5, 76, 0
7, 205824, Note_on_c, 5, 76, 96
7, 206336, Note_off_c, 5, 76, 0
7, 206336, Note_on_c, 5, 77, 96
7, 206592, Note_off_c, 5, 77, 0
7, 206592, Note_on_c, 5, 79, 96
7, 206848, Note_off_c, 5, 79, 0
7, 206848, Note_on_c, 5, 76, 96
7, 207872, Note_off_c, 5, 76, 0
7, 207872, Note_on_c, 5, 74, 96
7, 208384, Note_off_c, 5, 74, 0
7, 208384, Note_on_c, 5, 72, 96
7, 208896, Note_off_c, 5, 72, 0
7, 208896, Note_on_c, 5, 72, 96
7, 209408, Note_off_c, 5, 72, 0
7, 209408, Note_on_c, 5, 76, 96
7, 209920, Note_off_c, 5, 76, 0
7, 209920, Note_on_c, 5, 74, 96
7, 210432, Note_off_c, 5, 74, 0
7, 210432, Note_on_c, 5, 72, 96
7, 210944, Note_off_c, 5, 72, 0
7, 210944, Note_on_c, 5, 71, 96
7, 211456, Note_off_c, 5, 71, 0
7, 211456, Note_on_c, 5, 74, 96
7, 211968, Note_off_c, 5, 74, 0
7, 211968, Note_on_c, 5, 72, 96
7, 212480, Note_off_c, 5, 72, 0
7, 212480, Note_on_c, 5, 71, 96
7, 212992, Note_off_c, 5, 71, 0
7, 212992, Note_on_c, 5, 69, 96
7, 214016, Note_off_c, 5, 69, 0
7, 214016, Note_on_c, 5, 69, 96
7, 214528, Note_off_c, 5, 69, 0
7, 214528, Note_on_c, 5, 72, 96
7, 215040, Note_off_c, 5, 72, 0
7, 215040, Note_on_c, 5, 71, 96
7, 216064, Note_off_c, 5, 71, 0
7, 216064, Note_on_c, 5, 71, 96
7, 216576, Note_off_c, 5, 71, 0
7, 216576, Note_on_c, 5, 74, 96
7, 217088, Note_off_c, 5, 74, 0
7, 217088, Note_on_c, 5, 72, 96
7, 217600, Note_off_c, 5, 72, 0
7, 217600, Note_on_c, 5, 71, 96
7, 218112, Note_off_c, 5, 71, 0
7, 218112, Note_on_c, 5, 72, 96
7, 220160, Note_off_c, 5, 72, 0
7, 220160, Note_on_c, 5, 74, 96
7, 220672, Note_off_c, 5, 74, 0
7, 220672, Note_on_c, 5, 72, 96
7, 221184, Note_off_c, 5, 72, 0
7, 221184, Note_on_c, 5, 71, 96
7, 221696, Note_off_c, 5, 71, 0
7, 221696, Note_on_c, 5, 69, 96
7, 222208, Note_off_c, 5, 69, 0
7, 222208, Note_on_c, 5, 67, 96
7, 222720, Note_off_c, 5, 67, 0
7, 222720, Note_on_c, 5, 69, 96
7, 223232, Note_off_c, 5, 69, 0
7, 223232, Note_on_c, 5, 71, 96
7, 223744, Note_off_c, 5, 71, 0
7, 223744, Note_on_c, 5, 69, 96
7, 224256, Note_off_c, 5, 69, 0
7, 224256, Note_on_c, 5, 71, 96
7, 224768, Note_off_c, 5, 71, 0
7, 224768, Note_on_c, 5, 72, 96
7, 225280, Note_off_c, 5, 72, 0
7, 225280, Note_on_c, 5, 74, 96
7, 225792, Note_off_c, 5, 74, 0
7, 225792, Note_on_c, 5, 72, 96
7, 226304, Note_off_c, 5, 72, 0
7, 226304, Note_on_c, 5, 71, 96
7, 228352, Note_off_c, 5, 71, 0
7, 228352, Note_on_c, 5, 74, 96
7, 229376, Note_off_c, 5, 74, 0
7, 229376, Note_on_c, 5, 76, 96
7, 229888, Note_off_c, 5, 76, 0
7, 229888, Note_on_c, 5, 74, 96
7, 230400, Note_off_c, 5, 74, 0
7, 230400, Note_on_c, 5, 72, 96
7, 232448, Note_off_c, 5, 72, 0
7, 232448, Note_on_c, 5, 76, 96
7, 233472, Note_off_c, 5, 76, 0
7, 233472, Note_on_c, 5, 74, 96
7, 233984, Note_off_c, 5, 74, 0
7, 233984, Note_on_c, 5, 72, 96
7, 234496, Note_off_c, 5, 72, 0
7, 234496, Note_on_c, 5, 71, 96
7, 236544, Note_off_c, 5, 71, 0
7, 236544, Note_on_c, 5, 79, 96
7, 237568, Note_off_c, 5, 79, 0
7, 237568, Note_on_c, 5, 69, 96
7, 238592, Note_off_c, 5, 69, 0
7, 238592, Note_on_c, 5, 69, 96
7, 239104, Note_off_c, 5, 69, 0
7, 239104, Note_on_c, 5, 67, 96
7, 239616, Note_off_c, 5, 67, 0
7, 239616, Note_on_c, 5, 69, 96
7, 240640, Note_off_c, 5, 69, 0
7, 240640, Note_on_c, 5, 72, 96
7, 241152, Note_off_c, 5, 72, 0
7, 241152, Note_on_c, 5, 69, 96
7, 241664, Note_off_c, 5, 69, 0
7, 241664, Note_on_c, 5, 71, 96
7, 242176, Note_off_c, 5, 71, 0
7, 242176, Note_on_c, 5, 74, 96
7, 242688, Note_off_c, 5, 74, 0
7, 242688, Note_on_c, 5, 72, 96
7, 243200, Note_off_c, 5, 72, 0
7, 243200, Note_on_c, 5, 69, 96
7, 243712, Note_off_c, 5, 69, 0
7, 243712, Note_on_c, 5, 71, 96
7, 244224, Note_off_c, 5, 71, 0
7, 244224, Note_on_c, 5, 74, 96
7, 244736, Note_off_c, 5, 74, 0
7, 244736, Note_on_c, 5, 72, 96
7, 245248, Note_off_c, 5, 72, 0
7, 245248, Note_on_c, 5, 69, 96
7, 245760, Note_off_c, 5, 69, 0
7, 245760, Note_on_c, 5, 71, 96
7, 246784, Note_off_c, 5, 71, 0
7, 246784, Note_on_c, 5, 71, 96
7, 247296, Note_off_c, 5, 71, 0
7, 247296, Note_on_c, 5, 72, 96
7, 247552, Note_off_c, 5, 72, 0
7, 247552, Note_on_c, 5, 74, 96
7, 247808, Note_off_c, 5, 74, 0
7, 247808, Note_on_c, 5, 71, 96
7, 248832, Note_off_c, 5, 71, 0
7, 248832, Note_on_c, 5, 69, 96
7, 249344, Note_off_c, 5, 69, 0
7, 249344, Note_on_c, 5, 67, 96
7, 249856, Note_off_c, 5, 67, 0
7, 249856, Note_on_c, 5, 67, 96
7, 253952, Note_off_c, 5, 67, 0
7, 253953, End_track
8, 0, Start_track
8, 0, Title_t, "Instrument 7"
8, 0, Note_on_c, 6, 67, 96
8, 1536, Note_off_c, 6, 67, 0
8, 1536, Note_on_c, 6, 69, 96
8, 2048, Note_off_c, 6, 69, 0
8, 2048, Note_on_c, 6, 67, 96
8, 2560, Note_off_c, 6, 67, 0
8, 2560, Note_on_c, 6, 62, 96
8, 3072, Note_off_c, 6, 62, 0
8, 3072, Note_on_c, 6, 67, 96
8, 3584, Note_off_c, 6, 67, 0
8, 3584, Note_on_c, 6, 69, 96
8, 4096, Note_off_c, 6, 69, 0
8, 4096, Note_on_c, 6, 71, 96
8, 4608, Note_off_c, 6, 71, 0
8, 4608, Note_on_c, 6, 69, 96
8, 5120, Note_off_c, 6, 69, 0
8, 5120, Note_on_c, 6, 67, 96
8, 7168, Note_off_c, 6, 67, 0
8, 7168, Note_on_c, 6, 71, 96
8, 8192, Note_off_c, 6, 71, 0
8, 8192, Note_on_c, 6, 72, 96
8, 9216, Note_off_c, 6, 72, 0
8, 9216, Note_on_c, 6, 67, 96
8, 11264, Note_off_c, 6, 67, 0
8, 11264, Note_on_c, 6, 72, 96
8, 12288, Note_off_c, 6, 72, 0
8, 12288, Note_on_c, 6, 71, 96
8, 12800, Note_off_c, 6, 71, 0
8, 12800, Note_on_c, 6, 69, 96
8, 13312, Note_off_c, 6, 69, 0
8, 13312, Note_on_c, 6, 67, 96
8, 15360, Note_off_c, 6, 67, 0
8, 15360, Note_on_c, 6, 67, 96
8, 15872, Note_off_c, 6, 67, 0
8, 15872, Note_on_c, 6, 69, 96
8, 16384, Note_off_c, 6, 69, 0
8, 16384, Note_on_c, 6, 71, 96
8, 16896, Note_off_c, 6, 71, 0
8, 16896, Note_on_c, 6, 72, 96
8, 17408, Note_off_c, 6, 72, 0
8, 17408, Note_on_c, 6, 74, 96
8, 19456, Note_off_c, 6, 74, 0
8, 19456, Note_on_c, 6, 72, 96
8, 19968, Note_off_c, 6, 72, 0
8, 19968, Note_on_c, 6, 71, 96
8, 20480, Note_off_c, 6, 71, 0
8, 20480, Note_on_c, 6, 69, 96
8, 21504, Note_off_c, 6, 69, 0
8, 21504, Note_on_c, 6, 69, 96
8, 22016, Note_off_c, 6, 69, 0
8, 22016, Note_on_c, 6, 68, 96
8, 22528, Note_off_c, 6, 68, 0
8, 22528, Note_on_c, 6, 69, 96
8, 23552, Note_off_c, 6, 69, 0
8, 23552, Note_on_c, 6, 71, 96
8, 24064, Note_off_c, 6, 71, 0
8, 24064, Note_on_c, 6, 69, 96
8, 24576, Note_off_c, 6, 69, 0
8, 24576, Note_on_c, 6, 67, 96
8, 25088, Note_off_c, 6, 67, 0
8, 25088, Note_on_c, 6, 69, 96
8, 25600, Note_off_c, 6, 69, 0
8, 25600, Note_on_c, 6, 71, 96
8, 27648, Note_off_c, 6, 71, 0
8, 27648, Note_on_c, 6, 69, 96
8, 28160, Note_off_c, 6, 69, 0
8, 28160, Note_on_c, 6, 67, 96
8, 28672, Note_off_c, 6, 67, 0
8, 28672, Note_on_c, 6, 62, 96
8, 29696, Note_off_c, 6, 62, 0
8, 29696, Note_on_c, 6, 69, 96
8, 30208, Note_off_c, 6, 69, 0
8, 30208, Note_on_c, 6, 62, 96
8, 30720, Note_off_c, 6, 62, 0
8, 30720, Note_on_c, 6, 67, 96
8, 31744, Note_off_c, 6, 67, 0
8, 31744, Note_on_c, 6, 71, 96
8, 32256, Note_off_c, 6, 71, 0
8, 32256, Note_on_c, 6, 67, 96
8, 32768, Note_off_c, 6, 67, 0
8, 32768, Note_on_c, 6, 69, 96
8, 33792, Note_off_c, 6, 69, 0
8, 33792, Note_on_c, 6, 62, 96
8, 34816, Note_off_c, 6, 62, 0
8, 35840, Note_on_c, 6, 67, 96
8, 36864, Note_off_c, 6, 67, 0
8, 36864, Note_on_c, 6, 69, 96
8, 37888, Note_off_c, 6, 69, 0
8, 37888, Note_on_c, 6, 71, 96
8, 38400, Note_off_c, 6, 71, 0
8, 38400, Note_on_c, 6, 72, 96
8, 38912, Note_off_c, 6, 72, 0
8, 38912, Note_on_c, 6, 69, 96
8, 40960, Note_off_c, 6, 69, 0
8, 40960, Note_on_c, 6, 67, 96
8, 41984, Note_off_c, 6, 67, 0
8, 41984, Note_on_c, 6, 71, 96
8, 42496, Note_off_c, 6, 71, 0
8, 42496, Note_on_c, 6, 69, 96
8, 43008, Note_off_c, 6, 69, 0
8, 43008, Note_on_c, 6, 67, 96
8, 53248, Note_off_c, 6, 67, 0
8, 53248, Note_on_c, 6, 67, 96
8, 54272, Note_off_c, 6, 67, 0
8, 54272, Note_on_c, 6, 67, 96
8, 54784, Note_off_c, 6, 67, 0
8, 54784, Note_on_c, 6, 69, 96
8, 55040, Note_off_c, 6, 69, 0
8, 55040, Note_on_c, 6, 71, 96
8, 55296, Note_off_c, 6, 71, 0
8, 55296, Note_on_c, 6, 69, 96
8, 55808, Note_off_c, 6, 69, 0
8, 55808, Note_on_c, 6, 67, 96
8, 56320, Note_off_c, 6, 67, 0
8, 56320, Note_on_c, 6, 62, 96
8, 56832, Note_off_c, 6, 62, 0
8, 56832, Note_on_c, 6, 59, 96
8, 57344, Note_off_c, 6, 59, 0
8, 57344, Note_on_c, 6, 59, 96
8, 57856, Note_off_c, 6, 59, 0
8, 57856, Note_on_c, 6, 55, 96
8, 58368, Note_off_c, 6, 55, 0
8, 58368, Note_on_c, 6, 59, 96
8, 58880, Note_off_c, 6, 59, 0
8, 58880, Note_on_c, 6, 62, 96
8, 59392, Note_off_c, 6, 62, 0
8, 59392, Note_on_c, 6, 67, 96
8, 59904, Note_off_c, 6, 67, 0
8, 59904, Note_on_c, 6, 62, 96
8, 60416, Note_off_c, 6, 62, 0
8, 60416, Note_on_c, 6, 67, 96
8, 60928, Note_off_c, 6, 67, 0
8, 60928, Note_on_c, 6, 69, 96
8, 61440, Note_off_c, 6, 69, 0
8, 61440, Note_on_c, 6, 71, 96
8, 61952, Note_off_c, 6, 71, 0
8, 61952, Note_on_c, 6, 69, 96
8, 62464, Note_off_c, 6, 69, 0
8, 62464, Note_on_c, 6, 67, 96
8, 64512, Note_off_c, 6, 67, 0
8, 64512, Note_on_c, 6, 71, 96
8, 65536, Note_off_c, 6, 71, 0
8, 65536, Note_on_c, 6, 72, 96
8, 66560, Note_off_c, 6, 72, 0
8, 66560, Note_on_c, 6, 67, 96
8, 68608, Note_off_c, 6, 67, 0
8, 68608, Note_on_c, 6, 72, 96
8, 69632, Note_off_c, 6, 72, 0
8, 69632, Note_on_c, 6, 71, 96
8, 70144, Note_off_c, 6, 71, 0
8, 70144, Note_on_c, 6, 69, 96
8, 70656, Note_off_c, 6, 69, 0
8, 70656, Note_on_c, 6, 67, 96
8, 72704, Note_off_c, 6, 67, 0
8, 72704, Note_on_c, 6, 67, 96
8, 73216, Note_off_c, 6, 67, 0
8, 73216, Note_on_c, 6, 69, 96
8, 73728, Note_off_c, 6, 69, 0
8, 73728, Note_on_c, 6, 71, 96
8, 74240, Note_off_c, 6, 71, 0
8, 74240, Note_on_c, 6, 72, 96
8, 74752, Note_off_c, 6, 72, 0
8, 74752, Note_on_c, 6, 74, 96
8, 76800, Note_off_c, 6, 74, 0
8, 76800, Note_on_c, 6, 72, 96
8, 77312, Note_off_c, 6, 72, 0
8, 77312, Note_on_c, 6, 71, 96
8, 77824, Note_off_c, 6, 71, 0
8, 77824, Note_on_c, 6, 69, 96
8, 78848, Note_off_c, 6, 69, 0
8, 78848, Note_on_c, 6, 69, 96
8, 79360, Note_off_c, 6, 69, 0
8, 79360, Note_on_c, 6, 68, 96
8, 79872, Note_off_c, 6, 68, 0
8, 79872, Note_on_c, 6, 69, 96
8, 80896, Note_off_c, 6, 69, 0
8, 80896, Note_on_c, 6, 71, 96
8, 81408, Note_off_c, 6, 71, 0
8, 81408, Note_on_c, 6, 69, 96
8, 81920, Note_off_c, 6, 69, 0
8, 81920, Note_on_c, 6, 67, 96
8, 82432, Note_off_c, 6, 67, 0
8, 82432, Note_on_c, 6, 69, 96
8, 82944, Note_off_c, 6, 69, 0
8, 82944, Note_on_c, 6, 71, 96
8, 84992, Note_off_c, 6, 71, 0
8, 84992, Note_on_c, 6, 69, 96
8, 85504, Note_off_c, 6, 69, 0
8, 85504, Note_on_c, 6, 67, 96
8, 86016, Note_off_c, 6, 67, 0
8, 86016, Note_on_c, 6, 62, 96
8, 87040, Note_off_c, 6, 62, 0
8, 87040, Note_on_c, 6, 69, 96
8, 87552, Note_off_c, 6, 69, 0
8, 87552, Note_on_c, 6, 62, 96
8, 88064, Note_off_c, 6, 62, 0
8, 88064, Note_on_c, 6, 67, 96
8, 89088, Note_off_c, 6, 67, 0
8, 89088, Note_on_c, 6, 71, 96
8, 89600, Note_off_c, 6, 71, 0
8, 89600, Note_on_c, 6, 67, 96
8, 90112, Note_off_c, 6, 67, 0
8, 90112, Note_on_c, 6, 69, 96
8, 91136, Note_off_c, 6, 69, 0
8, 91136, Note_on_c, 6, 62, 96
8, 92160, Note_off_c, 6, 62, 0
8, 93184, Note_on_c, 6, 67, 96
8, 94208, Note_off_c, 6, 67, 0
8, 94208, Note_on_c, 6, 69, 96
8, 95232, Note_off_c, 6, 69, 0
8, 95232, Note_on_c, 6, 71, 96
8, 95744, Note_off_c, 6, 71, 0
8, 95744, Note_on_c, 6, 72, 96
8, 96256, Note_off_c, 6, 72, 0
8, 96256, Note_on_c, 6, 69, 96
8, 98304, Note_off_c, 6, 69, 0
8, 98304, Note_on_c, 6, 67, 96
8, 99328, Note_off_c, 6, 67, 0
8, 99328, Note_on_c, 6, 71, 96
8, 99840, Note_off_c, 6, 71, 0
8, 99840, Note_on_c, 6, 69, 96
8, 100352, Note_off_c, 6, 69, 0
8, 100352, Note_on_c, 6, 67, 96
8, 110592, Note_off_c, 6, 67, 0
8, 110592, Note_on_c, 6, 67, 96
8, 111616, Note_off_c, 6, 67, 0
8, 111616, Note_on_c, 6, 67, 96
8, 112128, Note_off_c, 6, 67, 0
8, 112128, Note_on_c, 6, 69, 96
8, 112384, Note_off_c, 6, 69, 0
8, 112384, Note_on_c, 6, 71, 96
8, 112640, Note_off_c, 6, 71, 0
8, 112640, Note_on_c, 6, 69, 96
8, 113152, Note_off_c, 6, 69, 0
8, 113152, Note_on_c, 6, 67, 96
8, 113664, Note_off_c, 6, 67, 0
8, 113664, Note_on_c, 6, 62, 96
8, 114176, Note_off_c, 6, 62, 0
8, 114176, Note_on_c, 6, 59, 96
8, 114688, Note_off_c, 6, 59, 0
8, 114688, Note_on_c, 6, 59, 96
8, 115200, Note_off_c, 6, 59, 0
8, 115200, Note_on_c, 6, 55, 96
8, 115712, Note_off_c, 6, 55, 0
8, 115712, Note_on_c, 6, 59, 96
8, 116224, Note_off_c, 6, 59, 0
8, 116224, Note_on_c, 6, 62, 96
8, 116736, Note_off_c, 6, 62, 0
8, 116736, Note_on_c, 6, 67, 96
8, 117248, Note_off_c, 6, 67, 0
8, 117248, Note_on_c, 6, 69, 96
8, 117760, Note_off_c, 6, 69, 0
8, 117760, Note_on_c, 6, 71, 96
8, 118272, Note_off_c, 6, 71, 0
8, 118272, Note_on_c, 6, 67, 96
8, 118784, Note_off_c, 6, 67, 0
8, 118784, Note_on_c, 6, 69, 96
8, 120320, Note_off_c, 6, 69, 0
8, 120320, Note_on_c, 6, 71, 96
8, 120832, Note_off_c, 6, 71, 0
8, 120832, Note_on_c, 6, 69, 96
8, 121344, Note_off_c, 6, 69, 0
8, 121344, Note_on_c, 6, 67, 96
8, 121856, Note_off_c, 6, 67, 0
8, 121856, Note_on_c, 6, 66, 96
8, 122368, Note_off_c, 6, 66, 0
8, 122368, Note_on_c, 6, 67, 96
8, 122880, Note_off_c, 6, 67, 0
8, 122880, Note_on_c, 6, 69, 96
8, 123392, Note_off_c, 6, 69, 0
8, 123392, Note_on_c, 6, 67, 96
8, 123904, Note_off_c, 6, 67, 0
8, 123904, Note_on_c, 6, 69, 96
8, 125952, Note_off_c, 6, 69, 0
8, 125952, Note_on_c, 6, 69, 96
8, 126976, Note_off_c, 6, 69, 0
8, 126976, Note_on_c, 6, 71, 96
8, 127488, Note_off_c, 6, 71, 0
8, 127488, Note_on_c, 6, 69, 96
8, 128000, Note_off_c, 6, 69, 0
8, 128000, Note_on_c, 6, 67, 96
8, 130048, Note_off_c, 6, 67, 0
8, 130048, Note_on_c, 6, 71, 96
8, 131072, Note_off_c, 6, 71, 0
8, 131072, Note_on_c, 6, 69, 96
8, 131584, Note_off_c, 6, 69, 0
8, 131584, Note_on_c, 6, 67, 96
8, 132096, Note_off_c, 6, 67, 0
8, 132096, Note_on_c, 6, 69, 96
8, 134144, Note_off_c, 6, 69, 0
8, 134144, Note_on_c, 6, 69, 96
8, 134656, Note_off_c, 6, 69, 0
8, 134656, Note_on_c, 6, 67, 96
8, 135168, Note_off_c, 6, 67, 0
8, 135168, Note_on_c, 6, 69, 96
8, 135680, Note_off_c, 6, 69, 0
8, 135680, Note_on_c, 6, 67, 96
8, 136192, Note_off_c, 6, 67, 0
8, 136192, Note_on_c, 6, 69, 96
8, 136704, Note_off_c, 6, 69, 0
8, 136704, Note_on_c, 6, 71, 96
8, 137216, Note_off_c, 6, 71, 0
8, 137216, Note_on_c, 6, 69, 96
8, 137728, Note_off_c, 6, 69, 0
8, 137728, Note_on_c, 6, 71, 96
8, 138240, Note_off_c, 6, 71, 0
8, 138240, Note_on_c, 6, 69, 96
8, 138752, Note_off_c, 6, 69, 0
8, 138752, Note_on_c, 6, 71, 96
8, 139264, Note_off_c, 6, 71, 0
8, 139264, Note_on_c, 6, 67, 96
8, 140288, Note_off_c, 6, 67, 0
8, 140288, Note_on_c, 6, 67, 96
8, 140800, Note_off_c, 6, 67, 0
8, 140800, Note_on_c, 6, 66, 96
8, 141312, Note_off_c, 6, 66, 0
8, 141312, Note_on_c, 6, 67, 96
8, 142336, Note_off_c, 6, 67, 0
8, 142336, Note_on_c, 6, 69, 96
8, 143360, Note_off_c, 6, 69, 0
8, 143360, Note_on_c, 6, 69, 96
8, 149504, Note_off_c, 6, 69, 0
8, 150528, Note_on_c, 6, 69, 96
8, 151552, Note_off_c, 6, 69, 0
8, 151552, Note_on_c, 6, 67, 96
8, 152576, Note_off_c, 6, 67, 0
8, 156672, Note_on_c, 6, 74, 96
8, 157184, Note_off_c, 6, 74, 0
8, 157184, Note_on_c, 6, 73, 96
8, 157696, Note_off_c, 6, 73, 0
8, 157696, Note_on_c, 6, 76, 96
8, 158720, Note_off_c, 6, 76, 0
8, 158720, Note_on_c, 6, 74, 96
8, 159232, Note_off_c, 6, 74, 0
8, 159232, Note_on_c, 6, 73, 96
8, 159744, Note_off_c, 6, 73, 0
8, 159744, Note_on_c, 6, 74, 96
8, 160768, Note_off_c, 6, 74, 0
8, 160768, Note_on_c, 6, 69, 96
8, 162816, Note_off_c, 6, 69, 0
8, 162816, Note_on_c, 6, 62, 96
8, 163840, Note_off_c, 6, 62, 0
8, 163840, Note_on_c, 6, 69, 96
8, 164864, Note_off_c, 6, 69, 0
8, 164864, Note_on_c, 6, 69, 96
8, 165376, Note_off_c, 6, 69, 0
8, 165376, Note_on_c, 6, 68, 96
8, 165888, Note_off_c, 6, 68, 0
8, 165888, Note_on_c, 6, 69, 96
8, 166912, Note_off_c, 6, 69, 0
8, 166912, Note_on_c, 6, 71, 96
8, 167424, Note_off_c, 6, 71, 0
8, 167424, Note_on_c, 6, 69, 96
8, 167936, Note_off_c, 6, 69, 0
8, 167936, Note_on_c, 6, 67, 96
8, 168448, Note_off_c, 6, 67, 0
8, 168448, Note_on_c, 6, 69, 96
8, 168960, Note_off_c, 6, 69, 0
8, 168960, Note_on_c, 6, 71, 96
8, 171008, Note_off_c, 6, 71, 0
8, 171008, Note_on_c, 6, 69, 96
8, 171520, Note_off_c, 6, 69, 0
8, 171520, Note_on_c, 6, 67, 96
8, 172032, Note_off_c, 6, 67, 0
8, 172032, Note_on_c, 6, 62, 96
8, 173056, Note_off_c, 6, 62, 0
8, 173056, Note_on_c, 6, 55, 96
8, 173568, Note_off_c, 6, 55, 0
8, 173568, Note_on_c, 6, 59, 96
8, 174080, Note_off_c, 6, 59, 0
8, 174080, Note_on_c, 6, 62, 96
8, 175104, Note_off_c, 6, 62, 0
8, 175104, Note_on_c, 6, 55, 96
8, 175616, Note_off_c, 6, 55, 0
8, 175616, Note_on_c, 6, 59, 96
8, 176128, Note_off_c, 6, 59, 0
8, 176128, Note_on_c, 6, 62, 96
8, 177664, Note_off_c, 6, 62, 0
8, 177664, Note_on_c, 6, 62, 96
8, 178176, Note_off_c, 6, 62, 0
8, 178176, Note_on_c, 6, 67, 96
8, 178688, Note_off_c, 6, 67, 0
8, 178688, Note_on_c, 6, 62, 96
8, 179200, Note_off_c, 6, 62, 0
8, 179200, Note_on_c, 6, 67, 96
8, 179712, Note_off_c, 6, 67, 0
8, 179712, Note_on_c, 6, 69, 96
8, 180224, Note_off_c, 6, 69, 0
8, 180224, Note_on_c, 6, 71, 96
8, 180736, Note_off_c, 6, 71, 0
8, 180736, Note_on_c, 6, 69, 96
8, 181248, Note_off_c, 6, 69, 0
8, 181248, Note_on_c, 6, 67, 96
8, 183296, Note_off_c, 6, 67, 0
8, 183296, Note_on_c, 6, 71, 96
8, 184320, Note_off_c, 6, 71, 0
8, 184320, Note_on_c, 6, 72, 96
8, 185344, Note_off_c, 6, 72, 0
8, 185344, Note_on_c, 6, 67, 96
8, 186368, Note_off_c, 6, 67, 0
8, 187392, Note_on_c, 6, 67, 96
8, 187904, Note_off_c, 6, 67, 0
8, 187904, Note_on_c, 6, 62, 96
8, 188416, Note_off_c, 6, 62, 0
8, 188416, Note_on_c, 6, 67, 96
8, 189440, Note_off_c, 6, 67, 0
8, 190464, Note_on_c, 6, 67, 96
8, 191488, Note_off_c, 6, 67, 0
8, 192512, Note_on_c, 6, 67, 96
8, 193536, Note_off_c, 6, 67, 0
8, 194560, Note_on_c, 6, 72, 96
8, 205824, Note_off_c, 6, 72, 0
8, 205824, Note_on_c, 6, 72, 96
8, 206848, Note_off_c, 6, 72, 0
8, 206848, Note_on_c, 6, 67, 96
8, 207872, Note_off_c, 6, 67, 0
8, 207872, Note_on_c, 6, 67, 96
8, 208896, Note_off_c, 6, 67, 0
8, 208896, Note_on_c, 6, 67, 96
8, 211456, Note_off_c, 6, 67, 0
8, 211456, Note_on_c, 6, 71, 96
8, 211968, Note_off_c, 6, 71, 0
8, 211968, Note_on_c, 6, 69, 96
8, 212480, Note_off_c, 6, 69, 0
8, 212480, Note_on_c, 6, 67, 96
8, 212992, Note_off_c, 6, 67, 0
8, 212992, Note_on_c, 6, 62, 96
8, 214016, Note_off_c, 6, 62, 0
8, 214016, Note_on_c, 6, 62, 96
8, 214528, Note_off_c, 6, 62, 0
8, 214528, Note_on_c, 6, 69, 96
8, 215040, Note_off_c, 6, 69, 0
8, 215040, Note_on_c, 6, 67, 96
8, 216064, Note_off_c, 6, 67, 0
8, 216064, Note_on_c, 6, 67, 96
8, 216576, Note_off_c, 6, 67, 0
8, 216576, Note_on_c, 6, 71, 96
8, 217088, Note_off_c, 6, 71, 0
8, 217088, Note_on_c, 6, 69, 96
8, 217600, Note_off_c, 6, 69, 0
8, 217600, Note_on_c, 6, 67, 96
8, 218112, Note_off_c, 6, 67, 0
8, 218112, Note_on_c, 6, 69, 96
8, 220160, Note_off_c, 6, 69, 0
8, 220160, Note_on_c, 6, 71, 96
8, 220672, Note_off_c, 6, 71, 0
8, 220672, Note_on_c, 6, 69, 96
8, 221184, Note_off_c, 6, 69, 0
8, 221184, Note_on_c, 6, 67, 96
8, 221696, Note_off_c, 6, 67, 0
8, 221696, Note_on_c, 6, 62, 96
8, 222208, Note_off_c, 6, 62, 0
8, 222208, Note_on_c, 6, 59, 96
8, 222720, Note_off_c, 6, 59, 0
8, 222720, Note_on_c, 6, 62, 96
8, 223232, Note_off_c, 6, 62, 0
8, 223232, Note_on_c, 6, 67, 96
8, 223744, Note_off_c, 6, 67, 0
8, 223744, Note_on_c, 6, 62, 96
8, 224256, Note_off_c, 6, 62, 0
8, 224256, Note_on_c, 6, 67, 96
8, 224768, Note_off_c, 6, 67, 0
8, 224768, Note_on_c, 6, 69, 96
8, 225280, Note_off_c, 6, 69, 0
8, 225280, Note_on_c, 6, 71, 96
8, 225792, Note_off_c, 6, 71, 0
8, 225792, Note_on_c, 6, 69, 96
8, 226304, Note_off_c, 6, 69, 0
8, 226304, Note_on_c, 6, 67, 96
8, 228352, Note_off_c, 6, 67, 0
8, 228352, Note_on_c, 6, 71, 96
8, 229376, Note_off_c, 6, 71, 0
8, 229376, Note_on_c, 6, 72, 96
8, 230400, Note_off_c, 6, 72, 0
8, 230400, Note_on_c, 6, 67, 96
8, 232448, Note_off_c, 6, 67, 0
8, 232448, Note_on_c, 6, 72, 96
8, 233472, Note_off_c, 6, 72, 0
8, 233472, Note_on_c, 6, 71, 96
8, 233984, Note_off_c, 6, 71, 0
8, 233984, Note_on_c, 6, 69, 96
8, 234496, Note_off_c, 6, 69, 0
8, 234496, Note_on_c, 6, 67, 96
8, 246784, Note_off_c, 6, 67, 0
8, 246784, Note_on_c, 6, 67, 96
8, 247808, Note_off_c, 6, 67, 0
8, 247808, Note_on_c, 6, 62, 96
8, 248320, Note_off_c, 6, 62, 0
8, 248320, Note_on_c, 6, 59, 96
8, 248832, Note_off_c, 6, 59, 0
8, 248832, Note_on_c, 6, 62, 96
8, 249856, Note_off_c, 6, 62, 0
8, 249856, Note_on_c, 6, 59, 96
8, 253952, Note_off_c, 6, 59, 0
8, 253953, End_track
9, 0, Start_track
9, 0, Title_t, "Instrument 8"
9, 512, Note_on_c, 7, 43, 96
9, 1024, Note_off_c, 7, 43, 0
9, 1024, Note_on_c, 7, 43, 96
9, 1536, Note_off_c, 7, 43, 0
9, 1536, Note_on_c, 7, 43, 96
9, 2048, Note_off_c, 7, 43, 0
9, 2048, Note_on_c, 7, 43, 96
9, 2560, Note_off_c, 7, 43, 0
9, 2560, Note_on_c, 7, 43, 96
9, 3072, Note_off_c, 7, 43, 0
9, 3072, Note_on_c, 7, 43, 96
9, 3584, Note_off_c, 7, 43, 0
9, 3584, Note_on_c, 7, 43, 96
9, 4096, Note_off_c, 7, 43, 0
9, 4096, Note_on_c, 7, 43, 96
9, 4608, Note_off_c, 7, 43, 0
9, 4608, Note_on_c, 7, 43, 96
9, 5120, Note_off_c, 7, 43, 0
9, 5120, Note_on_c, 7, 43, 96
9, 5632, Note_off_c, 7, 43, 0
9, 5632, Note_on_c, 7, 43, 96
9, 6144, Note_off_c, 7, 43, 0
9, 6144, Note_on_c, 7, 43, 96
9, 6656, Note_off_c, 7, 43, 0
9, 6656, Note_on_c, 7, 43, 96
9, 7168, Note_off_c, 7, 43, 0
9, 7168, Note_on_c, 7, 43, 96
9, 7680, Note_off_c, 7, 43, 0
9, 7680, Note_on_c, 7, 43, 96
9, 8192, Note_off_c, 7, 43, 0
9, 8192, Note_on_c, 7, 43, 96
9, 8704, Note_off_c, 7, 43, 0
9, 8704, Note_on_c, 7, 43, 96
9, 9216, Note_off_c, 7, 43, 0
9, 9216, Note_on_c, 7, 43, 96
9, 9728, Note_off_c, 7, 43, 0
9, 9728, Note_on_c, 7, 43, 96
9, 10240, Note_off_c, 7, 43, 0
9, 10240, Note_on_c, 7, 43, 96
9, 10752, Note_off_c, 7, 43, 0
9, 10752, Note_on_c, 7, 43, 96
9, 11264, Note_off_c, 7, 43, 0
9, 11264, Note_on_c, 7, 43, 96
9, 11776, Note_off_c, 7, 43, 0
9, 11776, Note_on_c, 7, 43, 96
9, 12288, Note_off_c, 7, 43, 0
9, 12288, Note_on_c, 7, 43, 96
9, 12800, Note_off_c, 7, 43, 0
9, 12800, Note_on_c, 7, 43, 96
9, 13312, Note_off_c, 7, 43, 0
9, 13312, Note_on_c, 7, 43, 96
9, 13824, Note_off_c, 7, 43, 0
9, 13824, Note_on_c, 7, 43, 96
9, 14336, Note_off_c, 7, 43, 0
9, 14336, Note_on_c, 7, 43, 96
9, 15360, Note_off_c, 7, 43, 0
9, 25088, Note_on_c, 7, 50, 96
9, 25600, Note_off_c, 7, 50, 0
9, 25600, Note_on_c, 7, 50, 96
9, 26112, Note_off_c, 7, 50, 0
9, 26112, Note_on_c, 7, 50, 96
9, 26624, Note_off_c, 7, 50, 0
9, 26624, Note_on_c, 7, 50, 96
9, 27136, Note_off_c, 7, 50, 0
9, 27136, Note_on_c, 7, 50, 96
9, 27648, Note_off_c, 7, 50, 0
9, 27648, Note_on_c, 7, 50, 96
9, 28160, Note_off_c, 7, 50, 0
9, 28160, Note_on_c, 7, 50, 96
9, 28672, Note_off_c, 7, 50, 0
9, 28672, Note_on_c, 7, 50, 96
9, 29184, Note_off_c, 7, 50, 0
9, 29184, Note_on_c, 7, 50, 96
9, 29696, Note_off_c, 7, 50, 0
9, 29696, Note_on_c, 7, 50, 96
9, 30208, Note_off_c, 7, 50, 0
9, 30208, Note_on_c, 7, 50, 96
9, 30720, Note_off_c, 7, 50, 0
9, 30720, Note_on_c, 7, 50, 96
9, 31232, Note_off_c, 7, 50, 0
9, 31232, Note_on_c, 7, 50, 96
9, 31744, Note_off_c, 7, 50, 0
9, 31744, Note_on_c, 7, 50, 96
9, 32256, Note_off_c, 7, 50, 0
9, 32256, Note_on_c, 7, 50, 96
9, 32768, Note_off_c, 7, 50, 0
9, 32768, Note_on_c, 7, 50, 96
9, 33280, Note_off_c, 7, 50, 0
9, 33280, Note_on_c, 7, 50, 96
9, 33792, Note_off_c, 7, 50, 0
9, 33792, Note_on_c, 7, 50, 96
9, 34304, Note_off_c, 7, 50, 0
9, 34304, Note_on_c, 7, 50, 96
9, 34816, Note_off_c, 7, 50, 0
9, 34816, Note_on_c, 7, 50, 96
9, 35328, Note_off_c, 7, 50, 0
9, 35328, Note_on_c, 7, 50, 96
9, 35840, Note_off_c, 7, 50, 0
9, 35840, Note_on_c, 7, 50, 96
9, 36352, Note_off_c, 7, 50, 0
9, 36352, Note_on_c, 7, 50, 96
9, 36864, Note_off_c, 7, 50, 0
9, 36864, Note_on_c, 7, 50, 96
9, 37376, Note_off_c, 7, 50, 0
9, 37376, Note_on_c, 7, 50, 96
9, 37888, Note_off_c, 7, 50, 0
9, 37888, Note_on_c, 7, 50, 96
9, 38400, Note_off_c, 7, 50, 0
9, 38400, Note_on_c, 7, 50, 96
9, 38912, Note_off_c, 7, 50, 0
9, 38912, Note_on_c, 7, 50, 96
9, 39424, Note_off_c, 7, 50, 0
9, 39424, Note_on_c, 7, 50, 96
9, 39936, Note_off_c, 7, 50, 0
9, 39936, Note_on_c, 7, 50, 96
9, 40448, Note_off_c, 7, 50, 0
9, 40448, Note_on_c, 7, 50, 96
9, 40960, Note_off_c, 7, 50, 0
9, 40960, Note_on_c, 7, 43, 96
9, 41984, Note_off_c, 7, 43, 0
9, 49664, Note_on_c, 7, 50, 96
9, 50176, Note_off_c, 7, 50, 0
9, 50176, Note_on_c, 7, 50, 96
9, 50688, Note_off_c, 7, 50, 0
9, 50688, Note_on_c, 7, 50, 96
9, 51200, Note_off_c, 7, 50, 0
9, 51200, Note_on_c, 7, 50, 96
9, 51712, Note_off_c, 7, 50, 0
9, 51712, Note_on_c, 7, 50, 96
9, 52224, Note_off_c, 7, 50, 0
9, 52224, Note_on_c, 7, 50, 96
9, 52736, Note_off_c, 7, 50, 0
9, 52736, Note_on_c, 7, 50, 96
9, 53248, Note_off_c, 7, 50, 0
9, 53248, Note_on_c, 7, 43, 96
9, 54272, Note_off_c, 7, 43, 0
9, 54272, Note_on_c, 7, 43, 96
9, 55296, Note_off_c, 7, 43, 0
9, 55296, Note_on_c, 7, 50, 96
9, 56320, Note_off_c, 7, 50, 0
9, 56320, Note_on_c, 7, 50, 96
9, 57344, Note_off_c, 7, 50, 0
9, 57344, Note_on_c, 7, 43, 96
9, 57856, Note_off_c, 7, 43, 0
9, 57856, Note_on_c, 7, 43, 96
9, 58368, Note_off_c, 7, 43, 0
9, 58368, Note_on_c, 7, 43, 96
9, 58880, Note_off_c, 7, 43, 0
9, 58880, Note_on_c, 7, 43, 96
9, 59392, Note_off_c, 7, 43, 0
9, 59392, Note_on_c, 7, 43, 96
9, 59904, Note_off_c, 7, 43, 0
9, 59904, Note_on_c, 7, 43, 96
9, 60416, Note_off_c, 7, 43, 0
9, 60416, Note_on_c, 7, 43, 96
9, 60928, Note_off_c, 7, 43, 0
9, 60928, Note_on_c, 7, 43, 96
9, 61440, Note_off_c, 7, 43, 0
9, 61440, Note_on_c, 7, 43, 96
9, 61952, Note_off_c, 7, 43, 0
9, 61952, Note_on_c, 7, 43, 96
9, 62464, Note_off_c, 7, 43, 0
9, 62464, Note_on_c, 7, 43, 96
9, 62976, Note_off_c, 7, 43, 0
9, 62976, Note_on_c, 7, 43, 96
9, 63488, Note_off_c, 7, 43, 0
9, 63488, Note_on_c, 7, 43, 96
9, 64000, Note_off_c, 7, 43, 0
9, 64000, Note_on_c, 7, 43, 96
9, 64512, Note_off_c, 7, 43, 0
9, 64512, Note_on_c, 7, 43, 96
9, 65024, Note_off_c, 7, 43, 0
9, 65024, Note_on_c, 7, 43, 96
9, 65536, Note_off_c, 7, 43, 0
9, 65536, Note_on_c, 7, 43, 96
9, 66048, Note_off_c, 7, 43, 0
9, 66048, Note_on_c, 7, 43, 96
9, 66560, Note_off_c, 7, 43, 0
9, 66560, Note_on_c, 7, 43, 96
9, 67072, Note_off_c, 7, 43, 0
9, 67072, Note_on_c, 7, 43, 96
9, 67584, Note_off_c, 7, 43, 0
9, 67584, Note_on_c, 7, 43, 96
9, 68096, Note_off_c, 7, 43, 0
9, 68096, Note_on_c, 7, 43, 96
9, 68608, Note_off_c, 7, 43, 0
9, 68608, Note_on_c, 7, 43, 96
9, 69120, Note_off_c, 7, 43, 0
9, 69120, Note_on_c, 7, 43, 96
9, 69632, Note_off_c, 7, 43, 0
9, 69632, Note_on_c, 7, 43, 96
9, 70144, Note_off_c, 7, 43, 0
9, 70144, Note_on_c, 7, 43, 96
9, 70656, Note_off_c, 7, 43, 0
9, 70656, Note_on_c, 7, 43, 96
9, 71168, Note_off_c, 7, 43, 0
9, 71168, Note_on_c, 7, 43, 96
9, 71680, Note_off_c, 7, 43, 0
9, 71680, Note_on_c, 7, 43, 96
9, 72704, Note_off_c, 7, 43, 0
9, 82432, Note_on_c, 7, 50, 96
9, 82944, Note_off_c, 7, 50, 0
9, 82944, Note_on_c, 7, 50, 96
9, 83456, Note_off_c, 7, 50, 0
9, 83456, Note_on_c, 7, 50, 96
9, 83968, Note_off_c, 7, 50, 0
9, 83968, Note_on_c, 7, 50, 96
9, 84480, Note_off_c, 7, 50, 0
9, 84480, Note_on_c, 7, 50, 96
9, 84992, Note_off_c, 7, 50, 0
9, 84992, Note_on_c, 7, 50, 96
9, 85504, Note_off_c, 7, 50, 0
9, 85504, Note_on_c, 7, 50, 96
9, 86016, Note_off_c, 7, 50, 0
9, 86016, Note_on_c, 7, 50, 96
9, 86528, Note_off_c, 7, 50, 0
9, 86528, Note_on_c, 7, 50, 96
9, 87040, Note_off_c, 7, 50, 0
9, 87040, Note_on_c, 7, 50, 96
9, 87552, Note_off_c, 7, 50, 0
9, 87552, Note_on_c, 7, 50, 96
9, 88064, Note_off_c, 7, 50, 0
9, 88064, Note_on_c, 7, 50, 96
9, 88576, Note_off_c, 7, 50, 0
9, 88576, Note_on_c, 7, 50, 96
9, 89088, Note_off_c, 7, 50, 0
9, 89088, Note_on_c, 7, 50, 96
9, 89600, Note_off_c, 7, 50, 0
9, 89600, Note_on_c, 7, 50, 96
9, 90112, Note_off_c, 7, 50, 0
9, 90112, Note_on_c, 7, 50, 96
9, 90624, Note_off_c, 7, 50, 0
9, 90624, Note_on_c, 7, 50, 96
9, 91136, Note_off_c, 7, 50, 0
9, 91136, Note_on_c, 7, 50, 96
9, 91648, Note_off_c, 7, 50, 0
9, 91648, Note_on_c, 7, 50, 96
9, 92160, Note_off_c, 7, 50, 0
9, 92160, Note_on_c, 7, 50, 96
9, 92672, Note_off_c, 7, 50, 0
9, 92672, Note_on_c, 7, 50, 96
9, 93184, Note_off_c, 7, 50, 0
9, 93184, Note_on_c, 7, 50, 96
9, 93696, Note_off_c, 7, 50, 0
9, 93696, Note_on_c, 7, 50, 96
9, 94208, Note_off_c, 7, 50, 0
9, 94208, Note_on_c, 7, 50, 96
9, 94720, Note_off_c, 7, 50, 0
9, 94720, Note_on_c, 7, 50, 96
9, 95232, Note_off_c, 7, 50, 0
9, 95232, Note_on_c, 7, 50, 96
9, 95744, Note_off_c, 7, 50, 0
9, 95744, Note_on_c, 7, 50, 96
9, 96256, Note_off_c, 7, 50, 0
9, 96256, Note_on_c, 7, 50, 96
9, 96768, Note_off_c, 7, 50, 0
9, 96768, Note_on_c, 7, 50, 96
9, 97280, Note_off_c, 7, 50, 0
9, 97280, Note_on_c, 7, 50, 96
9, 97792, Note_off_c, 7, 50, 0
9, 97792, Note_on_c, 7, 50, 96
9, 98304, Note_off_c, 7, 50, 0
9, 98304, Note_on_c, 7, 43, 96
9, 99328, Note_off_c, 7, 43, 0
9, 107008, Note_on_c, 7, 50, 96
9, 107520, Note_off_c, 7, 50, 0
9, 107520, Note_on_c, 7, 50, 96
9, 108032, Note_off_c, 7, 50, 0
9, 108032, Note_on_c, 7, 50, 96
9, 108544, Note_off_c, 7, 50, 0
9, 108544, Note_on_c, 7, 50, 96
9, 109056, Note_off_c, 7, 50, 0
9, 109056, Note_on_c, 7, 50, 96
9, 109568, Note_off_c, 7, 50, 0
9, 109568, Note_on_c, 7, 50, 96
9, 110080, Note_off_c, 7, 50, 0
9, 110080, Note_on_c, 7, 50, 96
9, 110592, Note_off_c, 7, 50, 0
9, 110592, Note_on_c, 7, 43, 96
9, 111616, Note_off_c, 7, 43, 0
9, 111616, Note_on_c, 7, 43, 96
9, 112640, Note_off_c, 7, 43, 0
9, 112640, Note_on_c, 7, 50, 96
9, 113664, Note_off_c, 7, 50, 0
9, 113664, Note_on_c, 7, 50, 96
9, 114688, Note_off_c, 7, 50, 0
9, 114688, Note_on_c, 7, 43, 96
9, 115712, Note_off_c, 7, 43, 0
9, 119296, Note_on_c, 7, 50, 96
9, 119808, Note_off_c, 7, 50, 0
9, 119808, Note_on_c, 7, 50, 96
9, 120320, Note_off_c, 7, 50, 0
9, 120320, Note_on_c, 7, 50, 96
9, 120832, Note_off_c, 7, 50, 0
9, 120832, Note_on_c, 7, 50, 96
9, 121344, Note_off_c, 7, 50, 0
9, 121344, Note_on_c, 7, 50, 96
9, 121856, Note_off_c, 7, 50, 0
9, 121856, Note_on_c, 7, 50, 96
9, 122368, Note_off_c, 7, 50, 0
9, 122368, Note_on_c, 7, 50, 96
9, 122880, Note_off_c, 7, 50, 0
9, 122880, Note_on_c, 7, 50, 96
9, 123392, Note_off_c, 7, 50, 0
9, 123392, Note_on_c, 7, 50, 96
9, 123904, Note_off_c, 7, 50, 0
9, 123904, Note_on_c, 7, 50, 96
9, 124416, Note_off_c, 7, 50, 0
9, 124416, Note_on_c, 7, 50, 96
9, 124928, Note_off_c, 7, 50, 0
9, 124928, Note_on_c, 7, 50, 96
9, 125440, Note_off_c, 7, 50, 0
9, 125440, Note_on_c, 7, 50, 96
9, 125952, Note_off_c, 7, 50, 0
9, 125952, Note_on_c, 7, 50, 96
9, 126464, Note_off_c, 7, 50, 0
9, 126464, Note_on_c, 7, 50, 96
9, 126976, Note_off_c, 7, 50, 0
9, 126976, Note_on_c, 7, 50, 96
9, 127488, Note_off_c, 7, 50, 0
9, 127488, Note_on_c, 7, 50, 96
9, 128000, Note_off_c, 7, 50, 0
9, 128000, Note_on_c, 7, 50, 96
9, 128512, Note_off_c, 7, 50, 0
9, 128512, Note_on_c, 7, 50, 96
9, 129024, Note_off_c, 7, 50, 0
9, 129024, Note_on_c, 7, 50, 96
9, 129536, Note_off_c, 7, 50, 0
9, 129536, Note_on_c, 7, 50, 96
9, 130048, Note_off_c, 7, 50, 0
9, 130048, Note_on_c, 7, 50, 96
9, 130560, Note_off_c, 7, 50, 0
9, 130560, Note_on_c, 7, 50, 96
9, 131072, Note_off_c, 7, 50, 0
9, 131072, Note_on_c, 7, 50, 96
9, 131584, Note_off_c, 7, 50, 0
9, 131584, Note_on_c, 7, 50, 96
9, 132096, Note_off_c, 7, 50, 0
9, 132096, Note_on_c, 7, 50, 96
9, 132608, Note_off_c, 7, 50, 0
9, 132608, Note_on_c, 7, 50, 96
9, 133120, Note_off_c, 7, 50, 0
9, 133120, Note_on_c, 7, 50, 96
9, 134144, Note_off_c, 7, 50, 0
9, 150016, Note_on_c, 7, 50, 96
9, 150528, Note_off_c, 7, 50, 0
9, 150528, Note_on_c, 7, 50, 96
9, 151040, Note_off_c, 7, 50, 0
9, 151040, Note_on_c, 7, 50, 96
9, 151552, Note_off_c, 7, 50, 0
9, 151552, Note_on_c, 7, 50, 96
9, 152064, Note_off_c, 7, 50, 0
9, 152064, Note_on_c, 7, 50, 96
9, 152576, Note_off_c, 7, 50, 0
9, 152576, Note_on_c, 7, 50, 96
9, 153088, Note_off_c, 7, 50, 0
9, 153088, Note_on_c, 7, 50, 96
9, 153600, Note_off_c, 7, 50, 0
9, 153600, Note_on_c, 7, 50, 96
9, 154624, Note_off_c, 7, 50, 0
9, 160256, Note_on_c, 7, 50, 96
9, 160768, Note_off_c, 7, 50, 0
9, 160768, Note_on_c, 7, 50, 96
9, 161280, Note_off_c, 7, 50, 0
9, 161280, Note_on_c, 7, 50, 96
9, 161792, Note_off_c, 7, 50, 0
9, 161792, Note_on_c, 7, 50, 96
9, 162304, Note_off_c, 7, 50, 0
9, 162304, Note_on_c, 7, 50, 96
9, 162816, Note_off_c, 7, 50, 0
9, 162816, Note_on_c, 7, 50, 96
9, 163328, Note_off_c, 7, 50, 0
9, 163328, Note_on_c, 7, 50, 96
9, 163840, Note_off_c, 7, 50, 0
9, 163840, Note_on_c, 7, 50, 96
9, 164352, Note_off_c, 7, 50, 0
9, 164352, Note_on_c, 7, 50, 96
9, 164864, Note_off_c, 7, 50, 0
9, 164864, Note_on_c, 7, 50, 96
9, 165376, Note_off_c, 7, 50, 0
9, 165376, Note_on_c, 7, 50, 96
9, 165888, Note_off_c, 7, 50, 0
9, 165888, Note_on_c, 7, 50, 96
9, 166400, Note_off_c, 7, 50, 0
9, 166400, Note_on_c, 7, 50, 96
9, 166912, Note_off_c, 7, 50, 0
9, 166912, Note_on_c, 7, 50, 96
9, 167424, Note_off_c, 7, 50, 0
9, 167424, Note_on_c, 7, 50, 96
9, 167936, Note_off_c, 7, 50, 0
9, 167936, Note_on_c, 7, 50, 96
9, 168448, Note_off_c, 7, 50, 0
9, 168448, Note_on_c, 7, 50, 96
9, 168960, Note_off_c, 7, 50, 0
9, 168960, Note_on_c, 7, 50, 96
9, 169472, Note_off_c, 7, 50, 0
9, 169472, Note_on_c, 7, 50, 96
9, 169984, Note_off_c, 7, 50, 0
9, 169984, Note_on_c, 7, 50, 96
9, 170496, Note_off_c, 7, 50, 0
9, 170496, Note_on_c, 7, 50, 96
9, 171008, Note_off_c, 7, 50, 0
9, 171008, Note_on_c, 7, 50, 96
9, 171520, Note_off_c, 7, 50, 0
9, 171520, Note_on_c, 7, 50, 96
9, 172032, Note_off_c, 7, 50, 0
9, 172032, Note_on_c, 7, 50, 96
9, 173056, Note_off_c, 7, 50, 0
9, 174080, Note_on_c, 7, 50, 96
9, 175104, Note_off_c, 7, 50, 0
9, 176128, Note_on_c, 7, 50, 96
9, 177152, Note_off_c, 7, 50, 0
9, 180736, Note_on_c, 7, 43, 96
9, 181248, Note_off_c, 7, 43, 0
9, 181248, Note_on_c, 7, 43, 96
9, 181760, Note_off_c, 7, 43, 0
9, 181760, Note_on_c, 7, 43, 96
9, 182272, Note_off_c, 7, 43, 0
9, 182272, Note_on_c, 7, 43, 96
9, 182784, Note_off_c, 7, 43, 0
9, 182784, Note_on_c, 7, 43, 96
9, 183296, Note_off_c, 7, 43, 0
9, 183296, Note_on_c, 7, 43, 96
9, 183808, Note_off_c, 7, 43, 0
9, 183808, Note_on_c, 7, 43, 96
9, 184320, Note_off_c, 7, 43, 0
9, 184320, Note_on_c, 7, 43, 96
9, 184832, Note_off_c, 7, 43, 0
9, 184832, Note_on_c, 7, 43, 96
9, 185344, Note_off_c, 7, 43, 0
9, 185344, Note_on_c, 7, 43, 96
9, 185856, Note_off_c, 7, 43, 0
9, 185856, Note_on_c, 7, 43, 96
9, 186368, Note_off_c, 7, 43, 0
9, 186368, Note_on_c, 7, 43, 96
9, 186880, Note_off_c, 7, 43, 0
9, 186880, Note_on_c, 7, 43, 96
9, 187392, Note_off_c, 7, 43, 0
9, 187392, Note_on_c, 7, 43, 96
9, 187904, Note_off_c, 7, 43, 0
9, 187904, Note_on_c, 7, 43, 96
9, 188416, Note_off_c, 7, 43, 0
9, 188416, Note_on_c, 7, 43, 96
9, 188928, Note_off_c, 7, 43, 0
9, 188928, Note_on_c, 7, 43, 96
9, 189440, Note_off_c, 7, 43, 0
9, 189440, Note_on_c, 7, 43, 96
9, 189952, Note_off_c, 7, 43, 0
9, 189952, Note_on_c, 7, 43, 96
9, 190464, Note_off_c, 7, 43, 0
9, 190464, Note_on_c, 7, 43, 96
9, 191488, Note_off_c, 7, 43, 0
9, 211456, Note_on_c, 7, 50, 96
9, 211968, Note_off_c, 7, 50, 0
9, 211968, Note_on_c, 7, 50, 96
9, 212480, Note_off_c, 7, 50, 0
9, 212480, Note_on_c, 7, 50, 96
9, 212992, Note_off_c, 7, 50, 0
9, 212992, Note_on_c, 7, 50, 96
9, 213504, Note_off_c, 7, 50, 0
9, 213504, Note_on_c, 7, 50, 96
9, 214016, Note_off_c, 7, 50, 0
9, 214016, Note_on_c, 7, 50, 96
9, 214528, Note_off_c, 7, 50, 0
9, 214528, Note_on_c, 7, 50, 96
9, 215040, Note_off_c, 7, 50, 0
9, 215040, Note_on_c, 7, 50, 96
9, 215552, Note_off_c, 7, 50, 0
9, 215552, Note_on_c, 7, 50, 96
9, 216064, Note_off_c, 7, 50, 0
9, 216064, Note_on_c, 7, 50, 96
9, 216576, Note_off_c, 7, 50, 0
9, 216576, Note_on_c, 7, 50, 96
9, 217088, Note_off_c, 7, 50, 0
9, 217088, Note_on_c, 7, 50, 96
9, 218112, Note_off_c, 7, 50, 0
9, 219136, Note_on_c, 7, 50, 96
9, 220160, Note_off_c, 7, 50, 0
9, 221696, Note_on_c, 7, 43, 96
9, 222208, Note_off_c, 7, 43, 0
9, 222208, Note_on_c, 7, 43, 96
9, 222720, Note_off_c, 7, 43, 0
9, 222720, Note_on_c, 7, 43, 96
9, 223232, Note_off_c, 7, 43, 0
9, 223232, Note_on_c, 7, 43, 96
9, 223744, Note_off_c, 7, 43, 0
9, 223744, Note_on_c, 7, 43, 96
9, 224256, Note_off_c, 7, 43, 0
9, 224256, Note_on_c, 7, 43, 96
9, 224768, Note_off_c, 7, 43, 0
9, 224768, Note_on_c, 7, 43, 96
9, 225280, Note_off_c, 7, 43, 0
9, 225280, Note_on_c, 7, 43, 96
9, 225792, Note_off_c, 7, 43, 0
9, 225792, Note_on_c, 7, 43, 96
9, 226304, Note_off_c, 7, 43, 0
9, 226304, Note_on_c, 7, 43, 96
9, 226816, Note_off_c, 7, 43, 0
9, 226816, Note_on_c, 7, 43, 96
9, 227328, Note_off_c, 7, 43, 0
9, 227328, Note_on_c, 7, 43, 96
9, 227840, Note_off_c, 7, 43, 0
9, 227840, Note_on_c, 7, 43, 96
9, 228352, Note_off_c, 7, 43, 0
9, 228352, Note_on_c, 7, 43, 96
9, 228864, Note_off_c, 7, 43, 0
9, 228864, Note_on_c, 7, 43, 96
9, 229376, Note_off_c, 7, 43, 0
9, 229376, Note_on_c, 7, 43, 96
9, 229888, Note_off_c, 7, 43, 0
9, 229888, Note_on_c, 7, 43, 96
9, 230400, Note_off_c, 7, 43, 0
9, 230400, Note_on_c, 7, 43, 96
9, 230912, Note_off_c, 7, 43, 0
9, 230912, Note_on_c, 7, 43, 96
9, 231424, Note_off_c, 7, 43, 0
9, 231424, Note_on_c, 7, 43, 96
9, 231936, Note_off_c, 7, 43, 0
9, 231936, Note_on_c, 7, 43, 96
9, 232448, Note_off_c, 7, 43, 0
9, 232448, Note_on_c, 7, 43, 96
9, 232960, Note_off_c, 7, 43, 0
9, 232960, Note_on_c, 7, 43, 96
9, 233472, Note_off_c, 7, 43, 0
9, 233472, Note_on_c, 7, 43, 96
9, 233984, Note_off_c, 7, 43, 0
9, 233984, Note_on_c, 7, 43, 96
9, 234496, Note_off_c, 7, 43, 0
9, 234496, Note_on_c, 7, 43, 96
9, 235008, Note_off_c, 7, 43, 0
9, 235008, Note_on_c, 7, 43, 96
9, 235520, Note_off_c, 7, 43, 0
9, 235520, Note_on_c, 7, 43, 96
9, 236544, Note_off_c, 7, 43, 0
9, 242176, Note_on_c, 7, 50, 96
9, 242688, Note_off_c, 7, 50, 0
9, 242688, Note_on_c, 7, 50, 96
9, 243200, Note_off_c, 7, 50, 0
9, 243200, Note_on_c, 7, 50, 96
9, 243712, Note_off_c, 7, 50, 0
9, 243712, Note_on_c, 7, 50, 96
9, 244224, Note_off_c, 7, 50, 0
9, 244224, Note_on_c, 7, 50, 96
9, 244736, Note_off_c, 7, 50, 0
9, 244736, Note_on_c, 7, 50, 96
9, 245248, Note_off_c, 7, 50, 0
9, 245248, Note_on_c, 7, 50, 96
9, 245760, Note_off_c, 7, 50, 0
9, 245760, Note_on_c, 7, 43, 96
9, 246784, Note_off_c, 7, 43, 0
9, 246784, Note_on_c, 7, 43, 96
9, 247808, Note_off_c, 7, 43, 0
9, 247808, Note_on_c, 7, 50, 96
9, 248832, Note_off_c, 7, 50, 0
9, 248832, Note_on_c, 7, 50, 96
9, 249856, Note_off_c, 7, 50, 0
9, 249856, Note_on_c, 7, 43, 96
9, 253952, Note_off_c, 7, 43, 0
9, 253953, End_track
0, 0, End_of_file
