0, 0, Header, 1, 4, 1024
1, 0, Start_track
1, 0, Time_signature, 4, 2, 24, 8
1, 0, Key_signature, 0, "minor"
1, 0, Tempo, 2000000
1, 54272, End_track
2, 0, Start_track
2, 0, Title_t, "Instrument 1"
2, 3072, Note_on_c, 0, 64, 96
2, 4096, Note_off_c, 0, 64, 0
2, 4096, Note_on_c, 0, 69, 96
2, 4352, Note_off_c, 0, 69, 0
2, 4352, Note_on_c, 0, 71, 96
2, 4608, Note_off_c, 0, 71, 0
2, 4608, Note_on_c, 0, 69, 96
2, 4864, Note_off_c, 0, 69, 0
2, 4864, Note_on_c, 0, 71, 96
2, 5120, Note_off_c, 0, 71, 0
2, 5120, Note_on_c, 0, 71, 96
2, 5888, Note_off_c, 0, 71, 0
2, 5888, Note_on_c, 0, 69, 96
2, 6016, Note_off_c, 0, 69, 0
2, 6016, Note_on_c, 0, 71, 96
2, 6144, Note_off_c, 0, 71, 0
2, 6144, Note_on_c, 0, 72, 96
2, 7168, Note_off_c, 0, 72, 0
2, 7168, Note_on_c, 0, 71, 96
2, 7424, Note_off_c, 0, 71, 0
2, 7424, Note_on_c, 0, 72, 96
2, 7552, Note_off_c, 0, 72, 0
2, 7552, Note_on_c, 0, 74, 96
2, 7680, Note_off_c, 0, 74, 0
2, 7680, Note_on_c, 0, 72, 96
2, 7936, Note_off_c, 0, 72, 0
2, 7936, Note_on_c, 0, 71, 96
2, 8192, Note_off_c, 0, 71, 0
2, 8192, Note_on_c, 0, 69, 96
2, 8448, Note_off_c, 0, 69, 0
2, 8448, Note_on_c, 0, 69, 96
2, 8704, Note_off_c, 0, 69, 0
2, 8704, Note_on_c, 0, 71, 96
2, 8960, Note_off_c, 0, 71, 0
2, 8960, Note_on_c, 0, 72, 96
2, 9216, Note_off_c, 0, 72, 0
2, 9216, Note_on_c, 0, 71, 96
2, 9984, Note_off_c, 0, 71, 0
2, 9984, Note_on_c, 0, 69, 96
2, 10240, Note_off_c, 0, 69, 0
2, 10240, Note_on_c, 0, 68, 96
2, 11008, Note_off_c, 0, 68, 0
2, 11008, Note_on_c, 0, 66, 96
2, 11264, Note_off_c, 0, 66, 0
2, 11264, Note_on_c, 0, 64, 96
2, 11776, Note_off_c, 0, 64, 0
2, 11776, Note_on_c, 0, 67, 96
2, 12288, Note_off_c, 0, 67, 0
2, 12288, Note_on_c, 0, 67, 96
2, 12544, Note_off_c, 0, 67, 0
2, 12544, Note_on_c, 0, 65, 96
2, 12800, Note_off_c, 0, 65, 0
2, 12800, Note_on_c, 0, 64, 96
2, 13056, Note_off_c, 0, 64, 0
2, 13056, Note_on_c, 0, 65, 96
2, 13312, Note_off_c, 0, 65, 0
2, 13312, Note_on_c, 0, 65, 96
2, 14080, Note_off_c, 0, 65, 0
2, 14080, Note_on_c, 0, 64, 96
2, 14336, Note_off_c, 0, 64, 0
2, 14336, Note_on_c, 0, 64, 96
2, 15360, Note_off_c, 0, 64, 0
2, 15616, Note_on_c, 0, 69, 96
2, 15872, Note_off_c, 0, 69, 0
2, 15872, Note_on_c, 0, 71, 96
2, 16128, Note_off_c, 0, 71, 0
2, 16128, Note_on_c, 0, 72, 96
2, 16384, Note_off_c, 0, 72, 0
2, 16384, Note_on_c, 0, 72, 96
2, 16640, Note_off_c, 0, 72, 0
2, 16640, Note_on_c, 0, 71, 96
2, 16896, Note_off_c, 0, 71, 0
2, 16896, Note_on_c, 0, 72, 96
2, 17152, Note_off_c, 0, 72, 0
2, 17152, Note_on_c, 0, 74, 96
2, 17408, Note_off_c, 0, 74, 0
2, 17408, Note_on_c, 0, 68, 96
2, 18176, Note_off_c, 0, 68, 0
2, 18176, Note_on_c, 0, 69, 96
2, 18432, Note_off_c, 0, 69, 0
2, 18432, Note_on_c, 0, 69, 96
2, 19456, Note_off_c, 0, 69, 0
2, 19456, Note_on_c, 0, 64, 96
2, 20480, Note_off_c, 0, 64, 0
2, 20480, Note_on_c, 0, 69, 96
2, 20736, Note_off_c, 0, 69, 0
2, 20736, Note_on_c, 0, 71, 96
2, 20992, Note_off_c, 0, 71, 0
2, 20992, Note_on_c, 0, 69, 96
2, 21248, Note_off_c, 0, 69, 0
2, 21248, Note_on_c, 0, 71, 96
2, 21504, Note_off_c, 0, 71, 0
2, 21504, Note_on_c, 0, 71, 96
2, 22272, Note_off_c, 0, 71, 0
2, 22272, Note_on_c, 0, 69, 96
2, 22400, Note_off_c, 0, 69, 0
2, 22400, Note_on_c, 0, 71, 96
2, 22528, Note_off_c, 0, 71, 0
2, 22528, Note_on_c, 0, 72, 96
2, 23552, Note_off_c, 0, 72, 0
2, 23552, Note_on_c, 0, 71, 96
2, 23808, Note_off_c, 0, 71, 0
2, 23808, Note_on_c, 0, 72, 96
2, 23936, Note_off_c, 0, 72, 0
2, 23936, Note_on_c, 0, 74, 96
2, 24064, Note_off_c, 0, 74, 0
2, 24064, Note_on_c, 0, 72, 96
2, 24320, Note_off_c, 0, 72, 0
2, 24320, Note_on_c, 0, 71, 96
2, 24576, Note_off_c, 0, 71, 0
2, 24576, Note_on_c, 0, 69, 96
2, 24832, Note_off_c, 0, 69, 0
2, 24832, Note_on_c, 0, 69, 96
2, 25088, Note_off_c, 0, 69, 0
2, 25088, Note_on_c, 0, 71, 96
2, 25344, Note_off_c, 0, 71, 0
2, 25344, Note_on_c, 0, 72, 96
2, 25600, Note_off_c, 0, 72, 0
2, 25600, Note_on_c, 0, 71, 96
2, 26368, Note_off_c, 0, 71, 0
2, 26368, Note_on_c, 0, 69, 96
2, 26624, Note_off_c, 0, 69, 0
2, 26624, Note_on_c, 0, 68, 96
2, 27392, Note_off_c, 0, 68, 0
2, 27392, Note_on_c, 0, 66, 96
2, 27648, Note_off_c, 0, 66, 0
2, 27648, Note_on_c, 0, 64, 96
2, 28160, Note_off_c, 0, 64, 0
2, 28160, Note_on_c, 0, 67, 96
2, 28672, Note_off_c, 0, 67, 0
2, 28672, Note_on_c, 0, 67, 96
2, 28928, Note_off_c, 0, 67, 0
2, 28928, Note_on_c, 0, 65, 96
2, 29184, Note_off_c, 0, 65, 0
2, 29184, Note_on_c, 0, 64, 96
2, 29440, Note_off_c, 0, 64, 0
2, 29440, Note_on_c, 0, 65, 96
2, 29696, Note_off_c, 0, 65, 0
2, 29696, Note_on_c, 0, 65, 96
2, 30464, Note_off_c, 0, 65, 0
2, 30464, Note_on_c, 0, 64, 96
2, 30720, Note_off_c, 0, 64, 0
2, 30720, Note_on_c, 0, 64, 96
2, 31744, Note_off_c, 0, 64, 0
2, 32000, Note_on_c, 0, 69, 96
2, 32256, Note_off_c, 0, 69, 0
2, 32256, Note_on_c, 0, 71, 96
2, 32512, Note_off_c, 0, 71, 0
2, 32512, Note_on_c, 0, 72, 96
2, 32768, Note_off_c, 0, 72, 0
2, 32768, Note_on_c, 0, 72, 96
2, 33024, Note_off_c, 0, 72, 0
2, 33024, Note_on_c, 0, 71, 96
2, 33280, Note_off_c, 0, 71, 0
2, 33280, Note_on_c, 0, 72, 96
2, 33536, Note_off_c, 0, 72, 0
2, 33536, Note_on_c, 0, 74, 96
2, 33792, Note_off_c, 0, 74, 0
2, 33792, Note_on_c, 0, 68, 96
2, 34560, Note_off_c, 0, 68, 0
2, 34560, Note_on_c, 0, 69, 96
2, 34816, Note_off_c, 0, 69, 0
2, 34816, Note_on_c, 0, 69, 96
2, 35840, Note_off_c, 0, 69, 0
2, 35840, Note_on_c, 0, 71, 96
2, 36480, Note_off_c, 0, 71, 0
2, 36480, Note_on_c, 0, 72, 96
2, 36544, Note_off_c, 0, 72, 0
2, 36544, Note_on_c, 0, 71, 96
2, 36608, Note_off_c, 0, 71, 0
2, 36608, Note_on_c, 0, 69, 96
2, 36736, Note_off_c, 0, 69, 0
2, 36736, Note_on_c, 0, 71, 96
2, 36864, Note_off_c, 0, 71, 0
2, 36864, Note_on_c, 0, 72, 96
2, 37120, Note_off_c, 0, 72, 0
2, 37120, Note_on_c, 0, 74, 96
2, 37376, Note_off_c, 0, 74, 0
2, 37376, Note_on_c, 0, 72, 96
2, 37632, Note_off_c, 0, 72, 0
2, 37632, Note_on_c, 0, 74, 96
2, 37888, Note_off_c, 0, 74, 0
2, 37888, Note_on_c, 0, 74, 96
2, 38656, Note_off_c, 0, 74, 0
2, 38656, Note_on_c, 0, 72, 96
2, 38784, Note_off_c, 0, 72, 0
2, 38784, Note_on_c, 0, 74, 96
2, 38912, Note_off_c, 0, 74, 0
2, 38912, Note_on_c, 0, 76, 96
2, 39936, Note_off_c, 0, 76, 0
2, 39936, Note_on_c, 0, 76, 96
2, 40192, Note_off_c, 0, 76, 0
2, 40192, Note_on_c, 0, 77, 96
2, 40320, Note_off_c, 0, 77, 0
2, 40320, Note_on_c, 0, 79, 96
2, 40448, Note_off_c, 0, 79, 0
2, 40448, Note_on_c, 0, 77, 96
2, 40704, Note_off_c, 0, 77, 0
2, 40704, Note_on_c, 0, 76, 96
2, 40960, Note_off_c, 0, 76, 0
2, 40960, Note_on_c, 0, 81, 96
2, 41216, Note_off_c, 0, 81, 0
2, 41216, Note_on_c, 0, 71, 96
2, 41472, Note_off_c, 0, 71, 0
2, 41472, Note_on_c, 0, 72, 96
2, 41728, Note_off_c, 0, 72, 0
2, 41728, Note_on_c, 0, 74, 96
2, 41984, Note_off_c, 0, 74, 0
2, 41984, Note_on_c, 0, 67, 96
2, 42368, Note_off_c, 0, 67, 0
2, 42368, Note_on_c, 0, 77, 96
2, 42496, Note_off_c, 0, 77, 0
2, 42496, Note_on_c, 0, 76, 96
2, 42752, Note_off_c, 0, 76, 0
2, 42752, Note_on_c, 0, 74, 96
2, 42880, Note_off_c, 0, 74, 0
2, 42880, Note_on_c, 0, 72, 96
2, 43008, Note_off_c, 0, 72, 0
2, 43008, Note_on_c, 0, 72, 96
2, 44032, Note_off_c, 0, 72, 0
2, 44032, Note_on_c, 0, 76, 96
2, 44288, Note_off_c, 0, 76, 0
2, 44288, Note_on_c, 0, 79, 96
2, 44544, Note_off_c, 0, 79, 0
2, 44544, Note_on_c, 0, 77, 96
2, 44800, Note_off_c, 0, 77, 0
2, 44800, Note_on_c, 0, 76, 96
2, 45056, Note_off_c, 0, 76, 0
2, 45056, Note_on_c, 0, 74, 96
2, 45312, Note_off_c, 0, 74, 0
2, 45312, Note_on_c, 0, 72, 96
2, 45568, Note_off_c, 0, 72, 0
2, 45568, Note_on_c, 0, 71, 96
2, 45824, Note_off_c, 0, 71, 0
2, 45824, Note_on_c, 0, 72, 96
2, 46080, Note_off_c, 0, 72, 0
2, 46080, Note_on_c, 0, 72, 96
2, 46848, Note_off_c, 0, 72, 0
2, 46848, Note_on_c, 0, 71, 96
2, 47104, Note_off_c, 0, 71, 0
2, 47104, Note_on_c, 0, 72, 96
2, 47360, Note_off_c, 0, 72, 0
2, 47360, Note_on_c, 0, 71, 96
2, 47616, Note_off_c, 0, 71, 0
2, 47616, Note_on_c, 0, 69, 96
2, 47872, Note_off_c, 0, 69, 0
2, 47872, Note_on_c, 0, 68, 96
2, 48128, Note_off_c, 0, 68, 0
2, 48128, Note_on_c, 0, 69, 96
2, 48640, Note_off_c, 0, 69, 0
2, 48640, Note_on_c, 0, 72, 96
2, 48896, Note_off_c, 0, 72, 0
2, 48896, Note_on_c, 0, 71, 96
2, 49152, Note_off_c, 0, 71, 0
2, 49152, Note_on_c, 0, 72, 96
2, 49664, Note_off_c, 0, 72, 0
2, 49664, Note_on_c, 0, 74, 96
2, 49920, Note_off_c, 0, 74, 0
2, 49920, Note_on_c, 0, 76, 96
2, 50176, Note_off_c, 0, 76, 0
2, 50176, Note_on_c, 0, 72, 96
2, 50688, Note_off_c, 0, 72, 0
2, 50688, Note_on_c, 0, 71, 96
2, 50944, Note_off_c, 0, 71, 0
2, 50944, Note_on_c, 0, 69, 96
2, 51200, Note_off_c, 0, 69, 0
2, 51200, Note_on_c, 0, 69, 96
2, 51200, Note_on_c, 0, 69, 96
2, 51456, Note_off_c, 0, 69, 0
2, 51456, Note_on_c, 0, 64, 96
2, 51712, Note_on_c, 0, 60, 96
2, 54272, Note_off_c, 0, 69, 0
2, 54272, Note_off_c, 0, 60, 0
2, 54272, Note_off_c, 0, 64, 0
2, 54272, End_track
3, 0, Start_track
3, 0, Title_t, "Instrument 2"
3, 3072, Note_on_c, 1, 48, 96
3, 3584, Note_off_c, 1, 48, 0
3, 3584, Note_on_c, 1, 50, 96
3, 4096, Note_off_c, 1, 50, 0
3, 4096, Note_on_c, 1, 52, 96
3, 4608, Note_off_c, 1, 52, 0
3, 4608, Note_on_c, 1, 57, 96
3, 5632, Note_off_c, 1, 57, 0
3, 5632, Note_on_c, 1, 56, 96
3, 6144, Note_off_c, 1, 56, 0
3, 6144, Note_on_c, 1, 57, 96
3, 6656, Note_off_c, 1, 57, 0
3, 6656, Note_on_c, 1, 60, 96
3, 7168, Note_off_c, 1, 60, 0
3, 7168, Note_on_c, 1, 62, 96
3, 7680, Note_off_c, 1, 62, 0
3, 7680, Note_on_c, 1, 64, 96
3, 8704, Note_off_c, 1, 64, 0
3, 8704, Note_on_c, 1, 62, 96
3, 9728, Note_off_c, 1, 62, 0
3, 9728, Note_on_c, 1, 60, 96
3, 10240, Note_off_c, 1, 60, 0
3, 10240, Note_on_c, 1, 59, 96
3, 10752, Note_off_c, 1, 59, 0
3, 10752, Note_on_c, 1, 57, 96
3, 11264, Note_off_c, 1, 57, 0
3, 11264, Note_on_c, 1, 56, 96
3, 11776, Note_off_c, 1, 56, 0
3, 11776, Note_on_c, 1, 59, 96
3, 12288, Note_off_c, 1, 59, 0
3, 12288, Note_on_c, 1, 60, 96
3, 13824, Note_off_c, 1, 60, 0
3, 13824, Note_on_c, 1, 59, 96
3, 14848, Note_off_c, 1, 59, 0
3, 14848, Note_on_c, 1, 57, 96
3, 15104, Note_off_c, 1, 57, 0
3, 15104, Note_on_c, 1, 56, 96
3, 15360, Note_off_c, 1, 56, 0
3, 15360, Note_on_c, 1, 57, 96
3, 16384, Note_off_c, 1, 57, 0
3, 16384, Note_on_c, 1, 62, 96
3, 16896, Note_off_c, 1, 62, 0
3, 16896, Note_on_c, 1, 60, 96
3, 17408, Note_off_c, 1, 60, 0
3, 17408, Note_on_c, 1, 59, 96
3, 18432, Note_off_c, 1, 59, 0
3, 18432, Note_on_c, 1, 57, 96
3, 19456, Note_off_c, 1, 57, 0
3, 19456, Note_on_c, 1, 48, 96
3, 19968, Note_off_c, 1, 48, 0
3, 19968, Note_on_c, 1, 50, 96
3, 20480, Note_off_c, 1, 50, 0
3, 20480, Note_on_c, 1, 52, 96
3, 20992, Note_off_c, 1, 52, 0
3, 20992, Note_on_c, 1, 57, 96
3, 22016, Note_off_c, 1, 57, 0
3, 22016, Note_on_c, 1, 56, 96
3, 22528, Note_off_c, 1, 56, 0
3, 22528, Note_on_c, 1, 57, 96
3, 23040, Note_off_c, 1, 57, 0
3, 23040, Note_on_c, 1, 60, 96
3, 23552, Note_off_c, 1, 60, 0
3, 23552, Note_on_c, 1, 62, 96
3, 24064, Note_off_c, 1, 62, 0
3, 24064, Note_on_c, 1, 64, 96
3, 25088, Note_off_c, 1, 64, 0
3, 25088, Note_on_c, 1, 62, 96
3, 26112, Note_off_c, 1, 62, 0
3, 26112, Note_on_c, 1, 60, 96
3, 26624, Note_off_c, 1, 60, 0
3, 26624, Note_on_c, 1, 59, 96
3, 27136, Note_off_c, 1, 59, 0
3, 27136, Note_on_c, 1, 57, 96
3, 27648, Note_off_c, 1, 57, 0
3, 27648, Note_on_c, 1, 56, 96
3, 28160, Note_off_c, 1, 56, 0
3, 28160, Note_on_c, 1, 59, 96
3, 28672, Note_off_c, 1, 59, 0
3, 28672, Note_on_c, 1, 60, 96
3, 30208, Note_off_c, 1, 60, 0
3, 30208, Note_on_c, 1, 59, 96
3, 31232, Note_off_c, 1, 59, 0
3, 31232, Note_on_c, 1, 57, 96
3, 31488, Note_off_c, 1, 57, 0
3, 31488, Note_on_c, 1, 56, 96
3, 31744, Note_off_c, 1, 56, 0
3, 31744, Note_on_c, 1, 57, 96
3, 32768, Note_off_c, 1, 57, 0
3, 32768, Note_on_c, 1, 62, 96
3, 33280, Note_off_c, 1, 62, 0
3, 33280, Note_on_c, 1, 60, 96
3, 33792, Note_off_c, 1, 60, 0
3, 33792, Note_on_c, 1, 59, 96
3, 34816, Note_off_c, 1, 59, 0
3, 34816, Note_on_c, 1, 57, 96
3, 35840, Note_off_c, 1, 57, 0
3, 36352, Note_on_c, 1, 52, 96
3, 37376, Note_off_c, 1, 52, 0
3, 37376, Note_on_c, 1, 53, 96
3, 38400, Note_off_c, 1, 53, 0
3, 38400, Note_on_c, 1, 55, 96
3, 39424, Note_off_c, 1, 55, 0
3, 39424, Note_on_c, 1, 55, 96
3, 39936, Note_off_c, 1, 55, 0
3, 39936, Note_on_c, 1, 60, 96
3, 42496, Note_off_c, 1, 60, 0
3, 42496, Note_on_c, 1, 59, 96
3, 43008, Note_off_c, 1, 59, 0
3, 43264, Note_on_c, 1, 55, 96
3, 43520, Note_off_c, 1, 55, 0
3, 43520, Note_on_c, 1, 57, 96
3, 43776, Note_off_c, 1, 57, 0
3, 43776, Note_on_c, 1, 59, 96
3, 44032, Note_off_c, 1, 59, 0
3, 44032, Note_on_c, 1, 60, 96
3, 45056, Note_off_c, 1, 60, 0
3, 45056, Note_on_c, 1, 59, 96
3, 46080, Note_off_c, 1, 59, 0
3, 46080, Note_on_c, 1, 57, 96
3, 47616, Note_off_c, 1, 57, 0
3, 47616, Note_on_c, 1, 62, 96
3, 48128, Note_off_c, 1, 62, 0
3, 48128, Note_on_c, 1, 60, 96
3, 48640, Note_off_c, 1, 60, 0
3, 48640, Note_on_c, 1, 59, 96
3, 49152, Note_off_c, 1, 59, 0
3, 49152, Note_on_c, 1, 57, 96
3, 50688, Note_off_c, 1, 57, 0
3, 50688, Note_on_c, 1, 56, 96
3, 51200, Note_off_c, 1, 56, 0
3, 51968, Note_on_c, 1, 52, 96
3, 52224, Note_off_c, 1, 52, 0
3, 52224, Note_on_c, 1, 57, 96
3, 54272, Note_off_c, 1, 57, 0
3, 54272, End_track
4, 0, Start_track
4, 0, Title_t, "Instrument 3"
4, 3072, Note_on_c, 2, 45, 96
4, 3584, Note_off_c, 2, 45, 0
4, 3584, Note_on_c, 2, 47, 96
4, 4096, Note_off_c, 2, 47, 0
4, 4096, Note_on_c, 2, 48, 96
4, 4608, Note_off_c, 2, 48, 0
4, 4608, Note_on_c, 2, 53, 96
4, 5120, Note_off_c, 2, 53, 0
4, 5120, Note_on_c, 2, 50, 96
4, 5632, Note_off_c, 2, 50, 0
4, 5632, Note_on_c, 2, 52, 96
4, 6144, Note_off_c, 2, 52, 0
4, 6144, Note_on_c, 2, 57, 96
4, 7680, Note_off_c, 2, 57, 0
4, 7680, Note_on_c, 2, 55, 96
4, 8192, Note_off_c, 2, 55, 0
4, 8192, Note_on_c, 2, 53, 96
4, 8960, Note_off_c, 2, 53, 0
4, 8960, Note_on_c, 2, 52, 96
4, 9216, Note_off_c, 2, 52, 0
4, 9216, Note_on_c, 2, 50, 96
4, 10240, Note_off_c, 2, 50, 0
4, 10240, Note_on_c, 2, 52, 96
4, 11776, Note_off_c, 2, 52, 0
4, 11776, Note_on_c, 2, 52, 96
4, 12288, Note_off_c, 2, 52, 0
4, 12288, Note_on_c, 2, 57, 96
4, 13312, Note_off_c, 2, 57, 0
4, 13312, Note_on_c, 2, 50, 96
4, 13824, Note_off_c, 2, 50, 0
4, 13824, Note_on_c, 2, 55, 96
4, 14336, Note_off_c, 2, 55, 0
4, 14336, Note_on_c, 2, 48, 96
4, 15360, Note_off_c, 2, 48, 0
4, 15360, Note_on_c, 2, 53, 96
4, 15872, Note_off_c, 2, 53, 0
4, 15872, Note_on_c, 2, 52, 96
4, 16384, Note_off_c, 2, 52, 0
4, 16384, Note_on_c, 2, 50, 96
4, 17408, Note_off_c, 2, 50, 0
4, 17408, Note_on_c, 2, 52, 96
4, 18432, Note_off_c, 2, 52, 0
4, 18944, Note_on_c, 2, 45, 96
4, 19456, Note_off_c, 2, 45, 0
4, 19456, Note_on_c, 2, 45, 96
4, 19968, Note_off_c, 2, 45, 0
4, 19968, Note_on_c, 2, 47, 96
4, 20480, Note_off_c, 2, 47, 0
4, 20480, Note_on_c, 2, 48, 96
4, 20992, Note_off_c, 2, 48, 0
4, 20992, Note_on_c, 2, 53, 96
4, 21504, Note_off_c, 2, 53, 0
4, 21504, Note_on_c, 2, 50, 96
4, 22016, Note_off_c, 2, 50, 0
4, 22016, Note_on_c, 2, 52, 96
4, 22528, Note_off_c, 2, 52, 0
4, 22528, Note_on_c, 2, 57, 96
4, 24064, Note_off_c, 2, 57, 0
4, 24064, Note_on_c, 2, 55, 96
4, 24576, Note_off_c, 2, 55, 0
4, 24576, Note_on_c, 2, 53, 96
4, 25344, Note_off_c, 2, 53, 0
4, 25344, Note_on_c, 2, 52, 96
4, 25600, Note_off_c, 2, 52, 0
4, 25600, Note_on_c, 2, 50, 96
4, 26624, Note_off_c, 2, 50, 0
4, 26624, Note_on_c, 2, 52, 96
4, 28160, Note_off_c, 2, 52, 0
4, 28160, Note_on_c, 2, 52, 96
4, 28672, Note_off_c, 2, 52, 0
4, 28672, Note_on_c, 2, 57, 96
4, 29696, Note_off_c, 2, 57, 0
4, 29696, Note_on_c, 2, 50, 96
4, 30208, Note_off_c, 2, 50, 0
4, 30208, Note_on_c, 2, 55, 96
4, 30720, Note_off_c, 2, 55, 0
4, 30720, Note_on_c, 2, 48, 96
4, 31744, Note_off_c, 2, 48, 0
4, 31744, Note_on_c, 2, 53, 96
4, 32256, Note_off_c, 2, 53, 0
4, 32256, Note_on_c, 2, 52, 96
4, 32768, Note_off_c, 2, 52, 0
4, 32768, Note_on_c, 2, 50, 96
4, 33792, Note_off_c, 2, 50, 0
4, 33792, Note_on_c, 2, 52, 96
4, 34816, Note_off_c, 2, 52, 0
4, 35328, Note_on_c, 2, 45, 96
4, 35840, Note_off_c, 2, 45, 0
4, 35840, Note_on_c, 2, 44, 96
4, 36864, Note_off_c, 2, 44, 0
4, 36864, Note_on_c, 2, 45, 96
4, 37888, Note_off_c, 2, 45, 0
4, 37888, Note_on_c, 2, 47, 96
4, 38912, Note_off_c, 2, 47, 0
4, 38912, Note_on_c, 2, 48, 96
4, 40448, Note_off_c, 2, 48, 0
4, 40448, Note_on_c, 2, 57, 96
4, 40960, Note_off_c, 2, 57, 0
4, 40960, Note_on_c, 2, 53, 96
4, 41472, Note_off_c, 2, 53, 0
4, 41472, Note_on_c, 2, 54, 96
4, 41984, Note_off_c, 2, 54, 0
4, 41984, Note_on_c, 2, 55, 96
4, 43008, Note_off_c, 2, 55, 0
4, 43008, Note_on_c, 2, 48, 96
4, 44032, Note_off_c, 2, 48, 0
4, 44544, Note_on_c, 2, 57, 96
4, 45568, Note_off_c, 2, 57, 0
4, 45568, Note_on_c, 2, 56, 96
4, 46080, Note_off_c, 2, 56, 0
4, 46080, Note_on_c, 2, 57, 96
4, 46592, Note_off_c, 2, 57, 0
4, 46592, Note_on_c, 2, 48, 96
4, 47104, Note_off_c, 2, 48, 0
4, 47104, Note_on_c, 2, 50, 96
4, 47616, Note_off_c, 2, 50, 0
4, 47616, Note_on_c, 2, 52, 96
4, 48128, Note_off_c, 2, 52, 0
4, 48128, Note_on_c, 2, 54, 96
4, 48640, Note_off_c, 2, 54, 0
4, 48640, Note_on_c, 2, 55, 96
4, 49152, Note_off_c, 2, 55, 0
4, 49152, Note_on_c, 2, 57, 96
4, 49664, Note_off_c, 2, 57, 0
4, 49664, Note_on_c, 2, 50, 96
4, 50176, Note_off_c, 2, 50, 0
4, 50176, Note_on_c, 2, 52, 96
4, 51200, Note_off_c, 2, 52, 0
4, 51200, Note_on_c, 2, 45, 96
4, 54272, Note_off_c, 2, 45, 0
4, 54272, End_track
0, 0, End_of_file
