0, 0, Header, 1, 21, 240
1, 0, Start_track
1, 0, Time_signature, 4, 2, 12, 8
1, 0, Tempo, 833333
1, 0, Marker_t, "Section A"
1, 45672, Tempo, 869565
1, 45840, Tempo, 937500
1, 46008, Tempo, 1000000
1, 46080, Time_signature, 4, 2, 24, 8
1, 46080, Tempo, 535714
1, 46080, Marker_t, "Section B"
1, 46128, Tempo, 769231
1, 46164, Tempo, 535714
1, 125256, Tempo, 566038
1, 125460, Tempo, 588235
1, 125604, Tempo, 631579
1, 125712, Tempo, 714286
1, 125760, Time_signature, 4, 2, 12, 8
1, 125760, Tempo, 833333
1, 125760, Marker_t, "Section C (Closing)"
1, 139548, Tempo, 895522
1, 139812, Tempo, 937500
1, 139980, Tempo, 1016949
1, 140100, Tempo, 1111111
1, 140160, Time_signature, 4, 2, 24, 8
1, 140160, Tempo, 535714
1, 140160, Marker_t, "Section B Repeat"
1, 140196, Tempo, 967742
1, 140280, Tempo, 535714
1, 219120, Tempo, 560748
1, 219420, Tempo, 582524
1, 219636, Tempo, 612245
1, 219756, Tempo, 674157
1, 219840, Time_signature, 4, 2, 12, 8
1, 219840, Tempo, 833333
1, 219840, Marker_t, "Section C Repeat"
1, 233400, Tempo, 882353
1, 233616, Tempo, 952381
1, 233832, Tempo, 1000000
1, 234072, Tempo, 1034483
1, 234168, Tempo, 1621622
1, 234240, Tempo, 833333
1, 234240, End_track
2, 0, Start_track
2, 0, Title_t, "Trumpet"
2, 0, Program_c, 0, 56
2, 0, Control_c, 0, 7, 127
2, 957, Note_on_c, 0, 81, 110
2, 1065, Note_off_c, 0, 81, 64
2, 1437, Note_on_c, 0, 81, 122
2, 1553, Note_off_c, 0, 81, 64
2, 1930, Note_on_c, 0, 83, 116
2, 2035, Note_off_c, 0, 83, 64
2, 2393, Note_on_c, 0, 79, 116
2, 2510, Note_off_c, 0, 79, 64
2, 3058, Note_on_c, 0, 79, 107
2, 3091, Note_off_c, 0, 79, 64
2, 3116, Note_on_c, 0, 79, 105
2, 3183, Note_off_c, 0, 79, 64
2, 3288, Note_on_c, 0, 76, 98
2, 3326, Note_off_c, 0, 76, 64
2, 3353, Note_on_c, 0, 76, 107
2, 3432, Note_off_c, 0, 76, 64
2, 3531, Note_on_c, 0, 81, 100
2, 3564, Note_off_c, 0, 81, 64
2, 3596, Note_on_c, 0, 81, 100
2, 3670, Note_off_c, 0, 81, 64
2, 3776, Note_on_c, 0, 76, 91
2, 3820, Note_off_c, 0, 76, 64
2, 3840, Note_on_c, 0, 78, 100
2, 3931, Note_off_c, 0, 78, 64
2, 4012, Note_on_c, 0, 81, 100
2, 4047, Note_off_c, 0, 81, 64
2, 4073, Note_on_c, 0, 81, 102
2, 4146, Note_off_c, 0, 81, 64
2, 4247, Note_on_c, 0, 78, 91
2, 4279, Note_off_c, 0, 78, 64
2, 4308, Note_on_c, 0, 78, 98
2, 4384, Note_off_c, 0, 78, 64
2, 4490, Note_on_c, 0, 74, 87
2, 4524, Note_off_c, 0, 74, 64
2, 4553, Note_on_c, 0, 74, 98
2, 4624, Note_off_c, 0, 74, 64
2, 4732, Note_on_c, 0, 69, 100
2, 4767, Note_off_c, 0, 69, 64
2, 4792, Note_on_c, 0, 69, 100
2, 4871, Note_off_c, 0, 69, 64
2, 4966, Note_on_c, 0, 69, 100
2, 4999, Note_off_c, 0, 69, 64
2, 5028, Note_on_c, 0, 69, 100
2, 5100, Note_off_c, 0, 69, 64
2, 5200, Note_on_c, 0, 66, 91
2, 5233, Note_off_c, 0, 66, 64
2, 5266, Note_on_c, 0, 62, 107
2, 5378, Note_off_c, 0, 62, 64
2, 23997, Note_on_c, 0, 81, 110
2, 24105, Note_off_c, 0, 81, 64
2, 24477, Note_on_c, 0, 81, 122
2, 24593, Note_off_c, 0, 81, 64
2, 24970, Note_on_c, 0, 83, 116
2, 25075, Note_off_c, 0, 83, 64
2, 25433, Note_on_c, 0, 79, 116
2, 25550, Note_off_c, 0, 79, 64
2, 26098, Note_on_c, 0, 79, 107
2, 26131, Note_off_c, 0, 79, 64
2, 26156, Note_on_c, 0, 79, 105
2, 26223, Note_off_c, 0, 79, 64
2, 26328, Note_on_c, 0, 76, 98
2, 26366, Note_off_c, 0, 76, 64
2, 26393, Note_on_c, 0, 76, 107
2, 26472, Note_off_c, 0, 76, 64
2, 26571, Note_on_c, 0, 81, 100
2, 26604, Note_off_c, 0, 81, 64
2, 26636, Note_on_c, 0, 81, 100
2, 26710, Note_off_c, 0, 81, 64
2, 26816, Note_on_c, 0, 76, 91
2, 26860, Note_off_c, 0, 76, 64
2, 26880, Note_on_c, 0, 78, 100
2, 26971, Note_off_c, 0, 78, 64
2, 27052, Note_on_c, 0, 81, 100
2, 27087, Note_off_c, 0, 81, 64
2, 27113, Note_on_c, 0, 81, 102
2, 27186, Note_off_c, 0, 81, 64
2, 27287, Note_on_c, 0, 78, 91
2, 27319, Note_off_c, 0, 78, 64
2, 27348, Note_on_c, 0, 78, 98
2, 27424, Note_off_c, 0, 78, 64
2, 27530, Note_on_c, 0, 74, 87
2, 27564, Note_off_c, 0, 74, 64
2, 27593, Note_on_c, 0, 74, 98
2, 27664, Note_off_c, 0, 74, 64
2, 27772, Note_on_c, 0, 69, 100
2, 27807, Note_off_c, 0, 69, 64
2, 27832, Note_on_c, 0, 69, 100
2, 27911, Note_off_c, 0, 69, 64
2, 28006, Note_on_c, 0, 69, 100
2, 28039, Note_off_c, 0, 69, 64
2, 28068, Note_on_c, 0, 69, 100
2, 28140, Note_off_c, 0, 69, 64
2, 28240, Note_on_c, 0, 66, 91
2, 28273, Note_off_c, 0, 66, 64
2, 28306, Note_on_c, 0, 62, 107
2, 28418, Note_off_c, 0, 62, 64
2, 51948, Note_on_c, 0, 74, 82
2, 52040, Note_off_c, 0, 74, 64
2, 52064, Note_on_c, 0, 74, 82
2, 52164, Note_off_c, 0, 74, 64
2, 52187, Note_on_c, 0, 74, 87
2, 52281, Note_off_c, 0, 74, 64
2, 52313, Note_on_c, 0, 74, 93
2, 52409, Note_off_c, 0, 74, 64
2, 52432, Note_on_c, 0, 78, 87
2, 52533, Note_off_c, 0, 78, 64
2, 52552, Note_on_c, 0, 78, 89
2, 52650, Note_off_c, 0, 78, 64
2, 52680, Note_on_c, 0, 81, 102
2, 52755, Note_off_c, 0, 81, 64
2, 52808, Note_on_c, 0, 79, 95
2, 52915, Note_off_c, 0, 79, 64
2, 53388, Note_on_c, 0, 76, 72
2, 53484, Note_off_c, 0, 76, 64
2, 53506, Note_on_c, 0, 76, 85
2, 53605, Note_off_c, 0, 76, 64
2, 53635, Note_on_c, 0, 76, 91
2, 53713, Note_off_c, 0, 76, 64
2, 53745, Note_on_c, 0, 76, 98
2, 53850, Note_off_c, 0, 76, 64
2, 53870, Note_on_c, 0, 80, 91
2, 53967, Note_off_c, 0, 80, 64
2, 53989, Note_on_c, 0, 80, 89
2, 54085, Note_off_c, 0, 80, 64
2, 54110, Note_on_c, 0, 83, 89
2, 54192, Note_off_c, 0, 83, 64
2, 54233, Note_on_c, 0, 81, 102
2, 54350, Note_off_c, 0, 81, 64
2, 56757, Note_on_c, 0, 74, 87
2, 56792, Note_off_c, 0, 74, 64
2, 56807, Note_on_c, 0, 76, 91
2, 56854, Note_off_c, 0, 76, 64
2, 56869, Note_on_c, 0, 78, 93
2, 56941, Note_off_c, 0, 78, 64
2, 56999, Note_on_c, 0, 78, 82
2, 57042, Note_off_c, 0, 78, 64
2, 57050, Note_on_c, 0, 79, 85
2, 57092, Note_off_c, 0, 79, 64
2, 57109, Note_on_c, 0, 81, 91
2, 57195, Note_off_c, 0, 81, 64
2, 57234, Note_on_c, 0, 78, 85
2, 57275, Note_off_c, 0, 78, 64
2, 57286, Note_on_c, 0, 79, 89
2, 57329, Note_off_c, 0, 79, 64
2, 57347, Note_on_c, 0, 81, 85
2, 57421, Note_off_c, 0, 81, 64
2, 57471, Note_on_c, 0, 81, 70
2, 57510, Note_off_c, 0, 81, 64
2, 57528, Note_on_c, 0, 83, 87
2, 57563, Note_off_c, 0, 83, 64
2, 57591, Note_on_c, 0, 84, 102
2, 57676, Note_off_c, 0, 84, 64
2, 57710, Note_on_c, 0, 84, 98
2, 57742, Note_off_c, 0, 84, 64
2, 57765, Note_on_c, 0, 83, 93
2, 57800, Note_off_c, 0, 83, 64
2, 57827, Note_on_c, 0, 84, 100
2, 57912, Note_off_c, 0, 84, 64
2, 57947, Note_on_c, 0, 86, 89
2, 57978, Note_off_c, 0, 86, 64
2, 58000, Note_on_c, 0, 84, 107
2, 58029, Note_off_c, 0, 84, 64
2, 58067, Note_on_c, 0, 83, 107
2, 58204, Note_off_c, 0, 83, 64
2, 58436, Note_on_c, 0, 83, 95
2, 58484, Note_off_c, 0, 83, 64
2, 58558, Note_on_c, 0, 81, 87
2, 58695, Note_off_c, 0, 81, 64
2, 58908, Note_on_c, 0, 81, 87
2, 58963, Note_off_c, 0, 81, 64
2, 59033, Note_on_c, 0, 79, 85
2, 59072, Note_off_c, 0, 79, 64
2, 59084, Note_on_c, 0, 78, 85
2, 59120, Note_off_c, 0, 78, 64
2, 59143, Note_on_c, 0, 76, 80
2, 59191, Note_off_c, 0, 76, 64
2, 59203, Note_on_c, 0, 79, 82
2, 59237, Note_off_c, 0, 79, 64
2, 59262, Note_on_c, 0, 78, 87
2, 59303, Note_off_c, 0, 78, 64
2, 59318, Note_on_c, 0, 76, 82
2, 59352, Note_off_c, 0, 76, 64
2, 59378, Note_on_c, 0, 74, 91
2, 59414, Note_off_c, 0, 74, 64
2, 59441, Note_on_c, 0, 78, 87
2, 59472, Note_off_c, 0, 78, 64
2, 59507, Note_on_c, 0, 76, 113
2, 59638, Note_off_c, 0, 76, 64
2, 60105, Note_on_c, 0, 69, 70
2, 60200, Note_off_c, 0, 69, 64
2, 60228, Note_on_c, 0, 69, 78
2, 60316, Note_off_c, 0, 69, 64
2, 60345, Note_on_c, 0, 69, 60
2, 60426, Note_off_c, 0, 69, 64
2, 60464, Note_on_c, 0, 69, 80
2, 60565, Note_off_c, 0, 69, 64
2, 60587, Note_on_c, 0, 76, 89
2, 60670, Note_off_c, 0, 76, 64
2, 60700, Note_on_c, 0, 76, 89
2, 60791, Note_off_c, 0, 76, 64
2, 60828, Note_on_c, 0, 81, 91
2, 60893, Note_off_c, 0, 81, 64
2, 60939, Note_on_c, 0, 81, 98
2, 61083, Note_off_c, 0, 81, 64
2, 61312, Note_on_c, 0, 83, 91
2, 61343, Note_off_c, 0, 83, 64
2, 61361, Note_on_c, 0, 81, 89
2, 61400, Note_off_c, 0, 81, 64
2, 61428, Note_on_c, 0, 79, 98
2, 61566, Note_off_c, 0, 79, 64
2, 61784, Note_on_c, 0, 81, 85
2, 61818, Note_off_c, 0, 81, 64
2, 61834, Note_on_c, 0, 79, 89
2, 61876, Note_off_c, 0, 79, 64
2, 61898, Note_on_c, 0, 78, 95
2, 61957, Note_off_c, 0, 78, 64
2, 62024, Note_on_c, 0, 81, 85
2, 62072, Note_off_c, 0, 81, 64
2, 62144, Note_on_c, 0, 83, 87
2, 62192, Note_off_c, 0, 83, 64
2, 62271, Note_on_c, 0, 79, 87
2, 62319, Note_off_c, 0, 79, 64
2, 62396, Note_on_c, 0, 85, 85
2, 62440, Note_off_c, 0, 85, 64
2, 62516, Note_on_c, 0, 81, 80
2, 62562, Note_off_c, 0, 81, 64
2, 62637, Note_on_c, 0, 86, 89
2, 62683, Note_off_c, 0, 86, 64
2, 62754, Note_on_c, 0, 79, 87
2, 62802, Note_off_c, 0, 79, 64
2, 62878, Note_on_c, 0, 78, 93
2, 63005, Note_off_c, 0, 78, 64
2, 63119, Note_on_c, 0, 76, 102
2, 63247, Note_off_c, 0, 76, 64
2, 63358, Note_on_c, 0, 74, 100
2, 63497, Note_off_c, 0, 74, 64
2, 78840, Note_on_c, 0, 76, 82
2, 78937, Note_off_c, 0, 76, 64
2, 78952, Note_on_c, 0, 81, 85
2, 79059, Note_off_c, 0, 81, 64
2, 79076, Note_on_c, 0, 76, 76
2, 79184, Note_off_c, 0, 76, 64
2, 79318, Note_on_c, 0, 76, 85
2, 79404, Note_off_c, 0, 76, 64
2, 79432, Note_on_c, 0, 79, 87
2, 79531, Note_off_c, 0, 79, 64
2, 79548, Note_on_c, 0, 76, 72
2, 79679, Note_off_c, 0, 76, 64
2, 79784, Note_on_c, 0, 76, 98
2, 79826, Note_off_c, 0, 76, 64
2, 79834, Note_on_c, 0, 74, 87
2, 79876, Note_off_c, 0, 74, 64
2, 79899, Note_on_c, 0, 76, 87
2, 79974, Note_off_c, 0, 76, 64
2, 80021, Note_on_c, 0, 78, 80
2, 80058, Note_off_c, 0, 78, 64
2, 80072, Note_on_c, 0, 76, 98
2, 80116, Note_off_c, 0, 76, 64
2, 80134, Note_on_c, 0, 74, 85
2, 80208, Note_off_c, 0, 74, 64
2, 80265, Note_on_c, 0, 78, 87
2, 80366, Note_off_c, 0, 78, 64
2, 80387, Note_on_c, 0, 83, 91
2, 80489, Note_off_c, 0, 83, 64
2, 80505, Note_on_c, 0, 78, 78
2, 80624, Note_off_c, 0, 78, 64
2, 80759, Note_on_c, 0, 78, 82
2, 80847, Note_off_c, 0, 78, 64
2, 80874, Note_on_c, 0, 81, 89
2, 80965, Note_off_c, 0, 81, 64
2, 80989, Note_on_c, 0, 78, 76
2, 81128, Note_off_c, 0, 78, 64
2, 81234, Note_on_c, 0, 78, 82
2, 81277, Note_off_c, 0, 78, 64
2, 81286, Note_on_c, 0, 76, 85
2, 81334, Note_off_c, 0, 76, 64
2, 81347, Note_on_c, 0, 78, 85
2, 81431, Note_off_c, 0, 78, 64
2, 81472, Note_on_c, 0, 80, 76
2, 81517, Note_off_c, 0, 80, 64
2, 81527, Note_on_c, 0, 78, 87
2, 81574, Note_off_c, 0, 78, 64
2, 81591, Note_on_c, 0, 76, 66
2, 81697, Note_off_c, 0, 76, 64
2, 81718, Note_on_c, 0, 76, 62
2, 81807, Note_off_c, 0, 76, 64
2, 81836, Note_on_c, 0, 76, 64
2, 81938, Note_off_c, 0, 76, 64
2, 81961, Note_on_c, 0, 76, 68
2, 82059, Note_off_c, 0, 76, 64
2, 82082, Note_on_c, 0, 76, 80
2, 82176, Note_off_c, 0, 76, 64
2, 82201, Note_on_c, 0, 76, 80
2, 82299, Note_off_c, 0, 76, 64
2, 82321, Note_on_c, 0, 76, 85
2, 82406, Note_off_c, 0, 76, 64
2, 82441, Note_on_c, 0, 76, 89
2, 82520, Note_off_c, 0, 76, 64
2, 82552, Note_on_c, 0, 76, 78
2, 82644, Note_off_c, 0, 76, 64
2, 82670, Note_on_c, 0, 83, 87
2, 82764, Note_off_c, 0, 83, 64
2, 82786, Note_on_c, 0, 80, 82
2, 82881, Note_off_c, 0, 80, 64
2, 82902, Note_on_c, 0, 83, 85
2, 82993, Note_off_c, 0, 83, 64
2, 83026, Note_on_c, 0, 85, 89
2, 83154, Note_off_c, 0, 85, 64
2, 87001, Note_on_c, 0, 78, 64
2, 87094, Note_off_c, 0, 78, 64
2, 87115, Note_on_c, 0, 78, 76
2, 87218, Note_off_c, 0, 78, 64
2, 87240, Note_on_c, 0, 78, 76
2, 87332, Note_off_c, 0, 78, 64
2, 87358, Note_on_c, 0, 78, 82
2, 87454, Note_off_c, 0, 78, 64
2, 87477, Note_on_c, 0, 78, 82
2, 87569, Note_off_c, 0, 78, 64
2, 87594, Note_on_c, 0, 78, 87
2, 87687, Note_off_c, 0, 78, 64
2, 87709, Note_on_c, 0, 78, 82
2, 87801, Note_off_c, 0, 78, 64
2, 87832, Note_on_c, 0, 78, 85
2, 87931, Note_off_c, 0, 78, 64
2, 87954, Note_on_c, 0, 78, 85
2, 88048, Note_off_c, 0, 78, 64
2, 88075, Note_on_c, 0, 78, 87
2, 88163, Note_off_c, 0, 78, 64
2, 88192, Note_on_c, 0, 78, 87
2, 88268, Note_off_c, 0, 78, 64
2, 88307, Note_on_c, 0, 83, 85
2, 88445, Note_off_c, 0, 83, 64
2, 108707, Note_on_c, 0, 81, 105
2, 108797, Note_off_c, 0, 81, 64
2, 108945, Note_on_c, 0, 81, 95
2, 109009, Note_off_c, 0, 81, 64
2, 109183, Note_on_c, 0, 76, 100
2, 109263, Note_off_c, 0, 76, 64
2, 109424, Note_on_c, 0, 76, 95
2, 109511, Note_off_c, 0, 76, 64
2, 109662, Note_on_c, 0, 79, 93
2, 109750, Note_off_c, 0, 79, 64
2, 109905, Note_on_c, 0, 78, 100
2, 110000, Note_off_c, 0, 78, 64
2, 110510, Note_on_c, 0, 62, 87
2, 110606, Note_off_c, 0, 62, 64
2, 110630, Note_on_c, 0, 62, 85
2, 110731, Note_off_c, 0, 62, 64
2, 110750, Note_on_c, 0, 62, 85
2, 110843, Note_off_c, 0, 62, 64
2, 110872, Note_on_c, 0, 62, 82
2, 110958, Note_off_c, 0, 62, 64
2, 110991, Note_on_c, 0, 81, 100
2, 111063, Note_off_c, 0, 81, 64
2, 111104, Note_on_c, 0, 86, 98
2, 111175, Note_off_c, 0, 86, 64
2, 111229, Note_on_c, 0, 81, 87
2, 111297, Note_off_c, 0, 81, 64
2, 111353, Note_on_c, 0, 83, 113
2, 111467, Note_off_c, 0, 83, 64
2, 114342, Note_on_c, 0, 74, 85
2, 114432, Note_off_c, 0, 74, 64
2, 114457, Note_on_c, 0, 74, 87
2, 114550, Note_off_c, 0, 74, 64
2, 114583, Note_on_c, 0, 74, 87
2, 114665, Note_off_c, 0, 74, 64
2, 114704, Note_on_c, 0, 74, 95
2, 114802, Note_off_c, 0, 74, 64
2, 114824, Note_on_c, 0, 78, 93
2, 114904, Note_off_c, 0, 78, 64
2, 114940, Note_on_c, 0, 78, 85
2, 115025, Note_off_c, 0, 78, 64
2, 115065, Note_on_c, 0, 81, 91
2, 115145, Note_off_c, 0, 81, 64
2, 115192, Note_on_c, 0, 79, 113
2, 115317, Note_off_c, 0, 79, 64
2, 115789, Note_on_c, 0, 76, 87
2, 115877, Note_off_c, 0, 76, 64
2, 115909, Note_on_c, 0, 76, 95
2, 116000, Note_off_c, 0, 76, 64
2, 116034, Note_on_c, 0, 76, 87
2, 116114, Note_off_c, 0, 76, 64
2, 116152, Note_on_c, 0, 76, 93
2, 116247, Note_off_c, 0, 76, 64
2, 116268, Note_on_c, 0, 80, 82
2, 116356, Note_off_c, 0, 80, 64
2, 116391, Note_on_c, 0, 80, 93
2, 116476, Note_off_c, 0, 80, 64
2, 116508, Note_on_c, 0, 83, 89
2, 116588, Note_off_c, 0, 83, 64
2, 116627, Note_on_c, 0, 81, 107
2, 116753, Note_off_c, 0, 81, 64
2, 119154, Note_on_c, 0, 74, 89
2, 119194, Note_off_c, 0, 74, 64
2, 119205, Note_on_c, 0, 76, 87
2, 119247, Note_off_c, 0, 76, 64
2, 119267, Note_on_c, 0, 78, 87
2, 119317, Note_off_c, 0, 78, 64
2, 119390, Note_on_c, 0, 78, 80
2, 119439, Note_on_c, 0, 79, 78
2, 119444, Note_off_c, 0, 78, 64
2, 119484, Note_off_c, 0, 79, 64
2, 119511, Note_on_c, 0, 81, 89
2, 119576, Note_off_c, 0, 81, 64
2, 119637, Note_on_c, 0, 78, 87
2, 119680, Note_off_c, 0, 78, 64
2, 119686, Note_on_c, 0, 79, 80
2, 119730, Note_off_c, 0, 79, 64
2, 119752, Note_on_c, 0, 81, 89
2, 119806, Note_off_c, 0, 81, 64
2, 119869, Note_on_c, 0, 81, 87
2, 119915, Note_off_c, 0, 81, 64
2, 119926, Note_on_c, 0, 83, 82
2, 119959, Note_off_c, 0, 83, 64
2, 119990, Note_on_c, 0, 84, 89
2, 120050, Note_off_c, 0, 84, 64
2, 120107, Note_on_c, 0, 84, 70
2, 120147, Note_off_c, 0, 84, 64
2, 120161, Note_on_c, 0, 83, 82
2, 120199, Note_off_c, 0, 83, 64
2, 120228, Note_on_c, 0, 84, 98
2, 120293, Note_off_c, 0, 84, 64
2, 120358, Note_on_c, 0, 86, 89
2, 120393, Note_off_c, 0, 86, 64
2, 120412, Note_on_c, 0, 84, 93
2, 120440, Note_off_c, 0, 84, 64
2, 120473, Note_on_c, 0, 83, 95
2, 120600, Note_off_c, 0, 83, 64
2, 120825, Note_on_c, 0, 83, 89
2, 120878, Note_off_c, 0, 83, 64
2, 120944, Note_on_c, 0, 81, 102
2, 121073, Note_off_c, 0, 81, 64
2, 121302, Note_on_c, 0, 81, 89
2, 121359, Note_off_c, 0, 81, 64
2, 121427, Note_on_c, 0, 79, 100
2, 121462, Note_off_c, 0, 79, 64
2, 121482, Note_on_c, 0, 78, 93
2, 121518, Note_off_c, 0, 78, 64
2, 121537, Note_on_c, 0, 76, 85
2, 121574, Note_off_c, 0, 76, 64
2, 121600, Note_on_c, 0, 79, 82
2, 121632, Note_off_c, 0, 79, 64
2, 121665, Note_on_c, 0, 78, 87
2, 121712, Note_off_c, 0, 78, 64
2, 121722, Note_on_c, 0, 76, 91
2, 121757, Note_off_c, 0, 76, 64
2, 121786, Note_on_c, 0, 74, 89
2, 121819, Note_off_c, 0, 74, 64
2, 121845, Note_on_c, 0, 78, 89
2, 121877, Note_off_c, 0, 78, 64
2, 121910, Note_on_c, 0, 76, 110
2, 122036, Note_off_c, 0, 76, 64
2, 122510, Note_on_c, 0, 69, 85
2, 122600, Note_off_c, 0, 69, 64
2, 122626, Note_on_c, 0, 69, 91
2, 122720, Note_off_c, 0, 69, 64
2, 122749, Note_on_c, 0, 69, 93
2, 122838, Note_off_c, 0, 69, 64
2, 122870, Note_on_c, 0, 69, 98
2, 122962, Note_off_c, 0, 69, 64
2, 122988, Note_on_c, 0, 76, 87
2, 123077, Note_off_c, 0, 76, 64
2, 123106, Note_on_c, 0, 76, 87
2, 123182, Note_off_c, 0, 76, 64
2, 123224, Note_on_c, 0, 81, 87
2, 123279, Note_off_c, 0, 81, 64
2, 123345, Note_on_c, 0, 81, 113
2, 123471, Note_off_c, 0, 81, 64
2, 123706, Note_on_c, 0, 83, 100
2, 123734, Note_off_c, 0, 83, 64
2, 123756, Note_on_c, 0, 81, 98
2, 123794, Note_off_c, 0, 81, 64
2, 123823, Note_on_c, 0, 79, 95
2, 123944, Note_off_c, 0, 79, 64
2, 124185, Note_on_c, 0, 81, 98
2, 124218, Note_off_c, 0, 81, 64
2, 124234, Note_on_c, 0, 79, 89
2, 124269, Note_off_c, 0, 79, 64
2, 124299, Note_on_c, 0, 78, 98
2, 124352, Note_off_c, 0, 78, 64
2, 124423, Note_on_c, 0, 81, 89
2, 124470, Note_off_c, 0, 81, 64
2, 124544, Note_on_c, 0, 83, 85
2, 124600, Note_off_c, 0, 83, 64
2, 124665, Note_on_c, 0, 79, 80
2, 124712, Note_off_c, 0, 79, 64
2, 124789, Note_on_c, 0, 85, 82
2, 124835, Note_off_c, 0, 85, 64
2, 124912, Note_on_c, 0, 81, 85
2, 124952, Note_off_c, 0, 81, 64
2, 125035, Note_on_c, 0, 86, 89
2, 125079, Note_off_c, 0, 86, 64
2, 125153, Note_on_c, 0, 79, 89
2, 125204, Note_off_c, 0, 79, 64
2, 125279, Note_on_c, 0, 78, 107
2, 125393, Note_off_c, 0, 78, 64
2, 125513, Note_on_c, 0, 76, 107
2, 125642, Note_off_c, 0, 76, 64
2, 138421, Note_on_c, 0, 76, 95
2, 138455, Note_off_c, 0, 76, 64
2, 138481, Note_on_c, 0, 76, 102
2, 138548, Note_off_c, 0, 76, 64
2, 138657, Note_on_c, 0, 81, 93
2, 138690, Note_off_c, 0, 81, 64
2, 138721, Note_on_c, 0, 81, 100
2, 138788, Note_off_c, 0, 81, 64
2, 138893, Note_on_c, 0, 83, 85
2, 138927, Note_off_c, 0, 83, 64
2, 138954, Note_on_c, 0, 79, 100
2, 139022, Note_off_c, 0, 79, 64
2, 139119, Note_on_c, 0, 81, 87
2, 139151, Note_off_c, 0, 81, 64
2, 139182, Note_on_c, 0, 78, 95
2, 139260, Note_off_c, 0, 78, 64
2, 139357, Note_on_c, 0, 79, 80
2, 139392, Note_off_c, 0, 79, 64
2, 139423, Note_on_c, 0, 78, 91
2, 139513, Note_off_c, 0, 78, 64
2, 139603, Note_on_c, 0, 76, 91
2, 139638, Note_off_c, 0, 76, 64
2, 139669, Note_on_c, 0, 78, 95
2, 139730, Note_on_c, 0, 76, 82
2, 139736, Note_off_c, 0, 78, 64
2, 139755, Note_off_c, 0, 76, 64
2, 139757, Note_on_c, 0, 78, 78
2, 139783, Note_off_c, 0, 78, 64
2, 139785, Note_on_c, 0, 76, 68
2, 139802, Note_off_c, 0, 76, 64
2, 139805, Note_on_c, 0, 78, 82
2, 139825, Note_off_c, 0, 78, 64
2, 139825, Note_on_c, 0, 76, 78
2, 139845, Note_on_c, 0, 78, 91
2, 139848, Note_off_c, 0, 76, 64
2, 139864, Note_on_c, 0, 76, 76
2, 139867, Note_off_c, 0, 78, 64
2, 139887, Note_off_c, 0, 76, 64
2, 139887, Note_on_c, 0, 78, 95
2, 139905, Note_on_c, 0, 76, 100
2, 139909, Note_off_c, 0, 78, 64
2, 140000, Note_off_c, 0, 76, 64
2, 140076, Note_on_c, 0, 74, 102
2, 140103, Note_off_c, 0, 74, 64
2, 140153, Note_on_c, 0, 74, 113
2, 140256, Note_off_c, 0, 74, 64
2, 165227, Note_on_c, 0, 66, 48
2, 165325, Note_off_c, 0, 66, 64
2, 165350, Note_on_c, 0, 66, 59
2, 165446, Note_off_c, 0, 66, 64
2, 165473, Note_on_c, 0, 66, 59
2, 165567, Note_off_c, 0, 66, 64
2, 165596, Note_on_c, 0, 66, 56
2, 165688, Note_off_c, 0, 66, 64
2, 165719, Note_on_c, 0, 66, 51
2, 165804, Note_off_c, 0, 66, 64
2, 165836, Note_on_c, 0, 66, 55
2, 165929, Note_off_c, 0, 66, 64
2, 165958, Note_on_c, 0, 66, 52
2, 166043, Note_off_c, 0, 66, 64
2, 166078, Note_on_c, 0, 66, 49
2, 166162, Note_off_c, 0, 66, 64
2, 166197, Note_on_c, 0, 66, 52
2, 166285, Note_off_c, 0, 66, 64
2, 166314, Note_on_c, 0, 66, 53
2, 166407, Note_off_c, 0, 66, 64
2, 166433, Note_on_c, 0, 66, 47
2, 166523, Note_off_c, 0, 66, 64
2, 166558, Note_on_c, 0, 66, 55
2, 166693, Note_off_c, 0, 66, 64
2, 169555, Note_on_c, 0, 69, 61
2, 169645, Note_off_c, 0, 69, 64
2, 169669, Note_on_c, 0, 69, 59
2, 169765, Note_off_c, 0, 69, 64
2, 169798, Note_on_c, 0, 69, 63
2, 169888, Note_off_c, 0, 69, 64
2, 169915, Note_on_c, 0, 69, 60
2, 170011, Note_off_c, 0, 69, 64
2, 170040, Note_on_c, 0, 69, 59
2, 170130, Note_off_c, 0, 69, 64
2, 170160, Note_on_c, 0, 69, 60
2, 170249, Note_off_c, 0, 69, 64
2, 170276, Note_on_c, 0, 69, 58
2, 170350, Note_off_c, 0, 69, 64
2, 170389, Note_on_c, 0, 69, 59
2, 170490, Note_off_c, 0, 69, 64
2, 170513, Note_on_c, 0, 76, 74
2, 170605, Note_off_c, 0, 76, 64
2, 170633, Note_on_c, 0, 81, 76
2, 170725, Note_off_c, 0, 81, 64
2, 170751, Note_on_c, 0, 76, 66
2, 170840, Note_off_c, 0, 76, 64
2, 170872, Note_on_c, 0, 78, 70
2, 171003, Note_off_c, 0, 78, 64
2, 192471, Note_on_c, 0, 76, 98
2, 192546, Note_off_c, 0, 76, 64
2, 192714, Note_on_c, 0, 78, 89
2, 192786, Note_off_c, 0, 78, 64
2, 192950, Note_on_c, 0, 79, 98
2, 193026, Note_off_c, 0, 79, 64
2, 193202, Note_on_c, 0, 78, 100
2, 193267, Note_off_c, 0, 78, 64
2, 193438, Note_on_c, 0, 76, 91
2, 193507, Note_off_c, 0, 76, 64
2, 193678, Note_on_c, 0, 81, 89
2, 193747, Note_off_c, 0, 81, 64
2, 193919, Note_on_c, 0, 78, 93
2, 193984, Note_off_c, 0, 78, 64
2, 194158, Note_on_c, 0, 80, 93
2, 194224, Note_off_c, 0, 80, 64
2, 194377, Note_on_c, 0, 81, 87
2, 194456, Note_off_c, 0, 81, 64
2, 194509, Note_on_c, 0, 69, 82
2, 194538, Note_off_c, 0, 69, 64
2, 194561, Note_on_c, 0, 69, 87
2, 194592, Note_off_c, 0, 69, 64
2, 194622, Note_on_c, 0, 69, 98
2, 194661, Note_off_c, 0, 69, 64
2, 194744, Note_on_c, 0, 69, 85
2, 194785, Note_off_c, 0, 69, 64
2, 194874, Note_on_c, 0, 69, 78
2, 195025, Note_off_c, 0, 69, 64
2, 197876, Note_on_c, 0, 69, 58
2, 197970, Note_off_c, 0, 69, 64
2, 197996, Note_on_c, 0, 69, 68
2, 198091, Note_off_c, 0, 69, 64
2, 198112, Note_on_c, 0, 69, 74
2, 198207, Note_off_c, 0, 69, 64
2, 198234, Note_on_c, 0, 69, 76
2, 198326, Note_off_c, 0, 69, 64
2, 198350, Note_on_c, 0, 69, 66
2, 198446, Note_off_c, 0, 69, 64
2, 198470, Note_on_c, 0, 69, 70
2, 198558, Note_off_c, 0, 69, 64
2, 198583, Note_on_c, 0, 69, 68
2, 198666, Note_off_c, 0, 69, 64
2, 198706, Note_on_c, 0, 69, 78
2, 198804, Note_off_c, 0, 69, 64
2, 198826, Note_on_c, 0, 76, 85
2, 198911, Note_off_c, 0, 76, 64
2, 198944, Note_on_c, 0, 76, 85
2, 199029, Note_off_c, 0, 76, 64
2, 199065, Note_on_c, 0, 81, 76
2, 199147, Note_off_c, 0, 81, 64
2, 199192, Note_on_c, 0, 78, 89
2, 199287, Note_off_c, 0, 78, 64
2, 199314, Note_on_c, 0, 66, 82
2, 199400, Note_off_c, 0, 66, 64
2, 199432, Note_on_c, 0, 66, 93
2, 199520, Note_off_c, 0, 66, 64
2, 199544, Note_on_c, 0, 69, 82
2, 199625, Note_off_c, 0, 69, 64
2, 199665, Note_on_c, 0, 69, 80
2, 199754, Note_off_c, 0, 69, 64
2, 199784, Note_on_c, 0, 74, 85
2, 199867, Note_off_c, 0, 74, 64
2, 199909, Note_on_c, 0, 74, 87
2, 200000, Note_off_c, 0, 74, 64
2, 200028, Note_on_c, 0, 78, 89
2, 200106, Note_off_c, 0, 78, 64
2, 200144, Note_on_c, 0, 78, 85
2, 200229, Note_off_c, 0, 78, 64
2, 200268, Note_on_c, 0, 81, 85
2, 200342, Note_off_c, 0, 81, 64
2, 200385, Note_on_c, 0, 81, 80
2, 200450, Note_off_c, 0, 81, 64
2, 200504, Note_on_c, 0, 86, 85
2, 200571, Note_off_c, 0, 86, 64
2, 200625, Note_on_c, 0, 86, 89
2, 200747, Note_off_c, 0, 86, 64
2, 219848, Note_on_c, 0, 74, 105
2, 219972, Note_off_c, 0, 74, 64
2, 220308, Note_on_c, 0, 78, 107
2, 220428, Note_off_c, 0, 78, 64
2, 220783, Note_on_c, 0, 81, 105
2, 220913, Note_off_c, 0, 81, 64
2, 221282, Note_on_c, 0, 86, 100
2, 221408, Note_off_c, 0, 86, 64
2, 221939, Note_on_c, 0, 81, 100
2, 221974, Note_off_c, 0, 81, 64
2, 221997, Note_on_c, 0, 81, 98
2, 222068, Note_off_c, 0, 81, 64
2, 222169, Note_on_c, 0, 81, 87
2, 222211, Note_off_c, 0, 81, 64
2, 222237, Note_on_c, 0, 86, 95
2, 222309, Note_off_c, 0, 86, 64
2, 222413, Note_on_c, 0, 81, 85
2, 222451, Note_off_c, 0, 81, 64
2, 222477, Note_on_c, 0, 83, 89
2, 222567, Note_off_c, 0, 83, 64
2, 222658, Note_on_c, 0, 84, 91
2, 222690, Note_off_c, 0, 84, 64
2, 222728, Note_on_c, 0, 83, 105
2, 222967, Note_off_c, 0, 83, 64
2, 230577, Note_on_c, 0, 74, 87
2, 230615, Note_off_c, 0, 74, 64
2, 230644, Note_on_c, 0, 74, 91
2, 230708, Note_off_c, 0, 74, 64
2, 230816, Note_on_c, 0, 78, 85
2, 230850, Note_off_c, 0, 78, 64
2, 230879, Note_on_c, 0, 78, 89
2, 230949, Note_off_c, 0, 78, 64
2, 231058, Note_on_c, 0, 81, 87
2, 231093, Note_off_c, 0, 81, 64
2, 231117, Note_on_c, 0, 81, 89
2, 231186, Note_off_c, 0, 81, 64
2, 231292, Note_on_c, 0, 83, 82
2, 231319, Note_off_c, 0, 83, 64
2, 231361, Note_on_c, 0, 83, 107
2, 231456, Note_off_c, 0, 83, 64
2, 231842, Note_on_c, 0, 79, 110
2, 231929, Note_off_c, 0, 79, 64
2, 231929, End_track
3, 0, Start_track
3, 0, Title_t, "Trumpet"
3, 0, Program_c, 1, 56
3, 0, Control_c, 1, 7, 127
3, 957, Note_on_c, 1, 90, 116
3, 1083, Note_off_c, 1, 90, 64
3, 1432, Note_on_c, 1, 90, 113
3, 1558, Note_off_c, 1, 90, 64
3, 1918, Note_on_c, 1, 91, 113
3, 2044, Note_off_c, 1, 91, 64
3, 2392, Note_on_c, 1, 88, 105
3, 2519, Note_off_c, 1, 88, 64
3, 3055, Note_on_c, 1, 88, 105
3, 3090, Note_off_c, 1, 88, 64
3, 3111, Note_on_c, 1, 88, 105
3, 3187, Note_off_c, 1, 88, 64
3, 3292, Note_on_c, 1, 93, 100
3, 3330, Note_off_c, 1, 93, 64
3, 3349, Note_on_c, 1, 93, 95
3, 3434, Note_off_c, 1, 93, 64
3, 3539, Note_on_c, 1, 88, 100
3, 3574, Note_off_c, 1, 88, 64
3, 3592, Note_on_c, 1, 88, 100
3, 3672, Note_off_c, 1, 88, 64
3, 3770, Note_on_c, 1, 88, 85
3, 3807, Note_off_c, 1, 88, 64
3, 3832, Note_on_c, 1, 86, 95
3, 3916, Note_off_c, 1, 86, 64
3, 4014, Note_on_c, 1, 90, 95
3, 4049, Note_off_c, 1, 90, 64
3, 4070, Note_on_c, 1, 90, 98
3, 4152, Note_off_c, 1, 90, 64
3, 4254, Note_on_c, 1, 86, 95
3, 4287, Note_off_c, 1, 86, 64
3, 4314, Note_on_c, 1, 86, 100
3, 4396, Note_off_c, 1, 86, 64
3, 4491, Note_on_c, 1, 81, 100
3, 4525, Note_off_c, 1, 81, 64
3, 4548, Note_on_c, 1, 81, 98
3, 4630, Note_off_c, 1, 81, 64
3, 4737, Note_on_c, 1, 78, 98
3, 4773, Note_off_c, 1, 78, 64
3, 4796, Note_on_c, 1, 78, 105
3, 4895, Note_off_c, 1, 78, 64
3, 4971, Note_on_c, 1, 81, 95
3, 5004, Note_off_c, 1, 81, 64
3, 5030, Note_on_c, 1, 81, 87
3, 5105, Note_off_c, 1, 81, 64
3, 5204, Note_on_c, 1, 78, 98
3, 5230, Note_off_c, 1, 78, 64
3, 5265, Note_on_c, 1, 74, 105
3, 5394, Note_off_c, 1, 74, 64
3, 23997, Note_on_c, 1, 90, 116
3, 24123, Note_off_c, 1, 90, 64
3, 24472, Note_on_c, 1, 90, 113
3, 24598, Note_off_c, 1, 90, 64
3, 24958, Note_on_c, 1, 91, 113
3, 25084, Note_off_c, 1, 91, 64
3, 25432, Note_on_c, 1, 88, 105
3, 25559, Note_off_c, 1, 88, 64
3, 26095, Note_on_c, 1, 88, 105
3, 26130, Note_off_c, 1, 88, 64
3, 26151, Note_on_c, 1, 88, 105
3, 26227, Note_off_c, 1, 88, 64
3, 26332, Note_on_c, 1, 93, 100
3, 26370, Note_off_c, 1, 93, 64
3, 26389, Note_on_c, 1, 93, 95
3, 26474, Note_off_c, 1, 93, 64
3, 26579, Note_on_c, 1, 88, 100
3, 26614, Note_off_c, 1, 88, 64
3, 26632, Note_on_c, 1, 88, 100
3, 26712, Note_off_c, 1, 88, 64
3, 26810, Note_on_c, 1, 88, 85
3, 26847, Note_off_c, 1, 88, 64
3, 26872, Note_on_c, 1, 86, 95
3, 26956, Note_off_c, 1, 86, 64
3, 27054, Note_on_c, 1, 90, 95
3, 27089, Note_off_c, 1, 90, 64
3, 27110, Note_on_c, 1, 90, 98
3, 27192, Note_off_c, 1, 90, 64
3, 27294, Note_on_c, 1, 86, 95
3, 27327, Note_off_c, 1, 86, 64
3, 27354, Note_on_c, 1, 86, 100
3, 27436, Note_off_c, 1, 86, 64
3, 27531, Note_on_c, 1, 81, 100
3, 27565, Note_off_c, 1, 81, 64
3, 27588, Note_on_c, 1, 81, 98
3, 27670, Note_off_c, 1, 81, 64
3, 27777, Note_on_c, 1, 78, 98
3, 27813, Note_off_c, 1, 78, 64
3, 27836, Note_on_c, 1, 78, 105
3, 27935, Note_off_c, 1, 78, 64
3, 28011, Note_on_c, 1, 81, 95
3, 28044, Note_off_c, 1, 81, 64
3, 28070, Note_on_c, 1, 81, 87
3, 28145, Note_off_c, 1, 81, 64
3, 28244, Note_on_c, 1, 78, 98
3, 28270, Note_off_c, 1, 78, 64
3, 28305, Note_on_c, 1, 74, 105
3, 28434, Note_off_c, 1, 74, 64
3, 52429, Note_on_c, 1, 86, 85
3, 52520, Note_off_c, 1, 86, 64
3, 52549, Note_on_c, 1, 86, 85
3, 52638, Note_off_c, 1, 86, 64
3, 52674, Note_on_c, 1, 86, 102
3, 52752, Note_off_c, 1, 86, 64
3, 52801, Note_on_c, 1, 86, 107
3, 52937, Note_off_c, 1, 86, 64
3, 53876, Note_on_c, 1, 88, 95
3, 53967, Note_off_c, 1, 88, 64
3, 53996, Note_on_c, 1, 88, 100
3, 54081, Note_off_c, 1, 88, 64
3, 54120, Note_on_c, 1, 88, 91
3, 54193, Note_off_c, 1, 88, 64
3, 54236, Note_on_c, 1, 88, 105
3, 54370, Note_off_c, 1, 88, 64
3, 56763, Note_on_c, 1, 74, 87
3, 56859, Note_off_c, 1, 74, 64
3, 56881, Note_on_c, 1, 74, 93
3, 56972, Note_off_c, 1, 74, 64
3, 57000, Note_on_c, 1, 74, 91
3, 57088, Note_off_c, 1, 74, 64
3, 57119, Note_on_c, 1, 74, 102
3, 57209, Note_off_c, 1, 74, 64
3, 57232, Note_on_c, 1, 74, 85
3, 57320, Note_off_c, 1, 74, 64
3, 57353, Note_on_c, 1, 74, 91
3, 57440, Note_off_c, 1, 74, 64
3, 57471, Note_on_c, 1, 74, 93
3, 57557, Note_off_c, 1, 74, 64
3, 57596, Note_on_c, 1, 74, 102
3, 57678, Note_off_c, 1, 74, 64
3, 57708, Note_on_c, 1, 90, 89
3, 57744, Note_off_c, 1, 90, 64
3, 57756, Note_on_c, 1, 91, 91
3, 57797, Note_off_c, 1, 91, 64
3, 57823, Note_on_c, 1, 93, 91
3, 57910, Note_off_c, 1, 93, 64
3, 57946, Note_on_c, 1, 95, 91
3, 57978, Note_off_c, 1, 95, 64
3, 58002, Note_on_c, 1, 93, 98
3, 58031, Note_off_c, 1, 93, 64
3, 58065, Note_on_c, 1, 91, 100
3, 58204, Note_off_c, 1, 91, 64
3, 58435, Note_on_c, 1, 91, 95
3, 58480, Note_off_c, 1, 91, 64
3, 58554, Note_on_c, 1, 90, 85
3, 58728, Note_off_c, 1, 90, 64
3, 58912, Note_on_c, 1, 90, 80
3, 58958, Note_off_c, 1, 90, 64
3, 59030, Note_on_c, 1, 88, 85
3, 59125, Note_off_c, 1, 88, 64
3, 59154, Note_on_c, 1, 93, 85
3, 59212, Note_off_c, 1, 93, 64
3, 59267, Note_on_c, 1, 93, 87
3, 59332, Note_off_c, 1, 93, 64
3, 59384, Note_on_c, 1, 93, 91
3, 59439, Note_off_c, 1, 93, 64
3, 59503, Note_on_c, 1, 93, 100
3, 59650, Note_off_c, 1, 93, 64
3, 60594, Note_on_c, 1, 81, 85
3, 60671, Note_off_c, 1, 81, 64
3, 60708, Note_on_c, 1, 81, 70
3, 60791, Note_off_c, 1, 81, 64
3, 60825, Note_on_c, 1, 88, 85
3, 60901, Note_off_c, 1, 88, 64
3, 60948, Note_on_c, 1, 90, 87
3, 61040, Note_off_c, 1, 90, 64
3, 61070, Note_on_c, 1, 93, 91
3, 61106, Note_off_c, 1, 93, 64
3, 61121, Note_on_c, 1, 91, 87
3, 61157, Note_off_c, 1, 91, 64
3, 61180, Note_on_c, 1, 90, 89
3, 61251, Note_off_c, 1, 90, 64
3, 61303, Note_on_c, 1, 86, 91
3, 61359, Note_off_c, 1, 86, 64
3, 61424, Note_on_c, 1, 88, 98
3, 61515, Note_off_c, 1, 88, 64
3, 61543, Note_on_c, 1, 91, 89
3, 61578, Note_off_c, 1, 91, 64
3, 61599, Note_on_c, 1, 90, 100
3, 61631, Note_off_c, 1, 90, 64
3, 61665, Note_on_c, 1, 88, 100
3, 61716, Note_off_c, 1, 88, 64
3, 61784, Note_on_c, 1, 81, 89
3, 61839, Note_off_c, 1, 81, 64
3, 61905, Note_on_c, 1, 81, 100
3, 61997, Note_off_c, 1, 81, 64
3, 62025, Note_on_c, 1, 86, 93
3, 62077, Note_off_c, 1, 86, 64
3, 62144, Note_on_c, 1, 86, 87
3, 62198, Note_off_c, 1, 86, 64
3, 62265, Note_on_c, 1, 88, 91
3, 62319, Note_off_c, 1, 88, 64
3, 62392, Note_on_c, 1, 81, 87
3, 62455, Note_off_c, 1, 81, 64
3, 62512, Note_on_c, 1, 88, 87
3, 62571, Note_off_c, 1, 88, 64
3, 62634, Note_on_c, 1, 90, 87
3, 62669, Note_off_c, 1, 90, 64
3, 62684, Note_on_c, 1, 88, 87
3, 62724, Note_off_c, 1, 88, 64
3, 62745, Note_on_c, 1, 90, 98
3, 62784, Note_off_c, 1, 90, 64
3, 62801, Note_on_c, 1, 91, 95
3, 62837, Note_off_c, 1, 91, 64
3, 62871, Note_on_c, 1, 93, 98
3, 63013, Note_off_c, 1, 93, 64
3, 63122, Note_on_c, 1, 91, 95
3, 63249, Note_off_c, 1, 91, 64
3, 63368, Note_on_c, 1, 90, 100
3, 63511, Note_off_c, 1, 90, 64
3, 79073, Note_on_c, 1, 88, 98
3, 79162, Note_off_c, 1, 88, 64
3, 79188, Note_on_c, 1, 91, 85
3, 79285, Note_off_c, 1, 91, 64
3, 79311, Note_on_c, 1, 88, 80
3, 79428, Note_off_c, 1, 88, 64
3, 79547, Note_on_c, 1, 88, 87
3, 79627, Note_off_c, 1, 88, 64
3, 79665, Note_on_c, 1, 93, 87
3, 79769, Note_off_c, 1, 93, 64
3, 79785, Note_on_c, 1, 81, 60
3, 79885, Note_off_c, 1, 81, 64
3, 79906, Note_on_c, 1, 81, 85
3, 79995, Note_off_c, 1, 81, 64
3, 80026, Note_on_c, 1, 81, 80
3, 80101, Note_off_c, 1, 81, 64
3, 80152, Note_on_c, 1, 81, 95
3, 80284, Note_off_c, 1, 81, 64
3, 80511, Note_on_c, 1, 90, 82
3, 80600, Note_off_c, 1, 90, 64
3, 80629, Note_on_c, 1, 93, 85
3, 80729, Note_off_c, 1, 93, 64
3, 80748, Note_on_c, 1, 90, 76
3, 80857, Note_off_c, 1, 90, 64
3, 80988, Note_on_c, 1, 90, 82
3, 81090, Note_off_c, 1, 90, 64
3, 81108, Note_on_c, 1, 95, 93
3, 81204, Note_off_c, 1, 95, 64
3, 81227, Note_on_c, 1, 90, 87
3, 81356, Note_off_c, 1, 90, 64
3, 82186, Note_on_c, 1, 88, 87
3, 82287, Note_off_c, 1, 88, 64
3, 82312, Note_on_c, 1, 88, 85
3, 82402, Note_off_c, 1, 88, 64
3, 82435, Note_on_c, 1, 88, 85
3, 82523, Note_off_c, 1, 88, 64
3, 82557, Note_on_c, 1, 88, 91
3, 82644, Note_off_c, 1, 88, 64
3, 82667, Note_on_c, 1, 92, 87
3, 82768, Note_off_c, 1, 92, 64
3, 82788, Note_on_c, 1, 95, 98
3, 82883, Note_off_c, 1, 95, 64
3, 82903, Note_on_c, 1, 92, 91
3, 82991, Note_off_c, 1, 92, 64
3, 83025, Note_on_c, 1, 88, 100
3, 83156, Note_off_c, 1, 88, 64
3, 87480, Note_on_c, 1, 90, 93
3, 87575, Note_off_c, 1, 90, 64
3, 87600, Note_on_c, 1, 90, 70
3, 87698, Note_off_c, 1, 90, 64
3, 87724, Note_on_c, 1, 90, 68
3, 87818, Note_off_c, 1, 90, 64
3, 87840, Note_on_c, 1, 90, 68
3, 87931, Note_off_c, 1, 90, 64
3, 87954, Note_on_c, 1, 90, 63
3, 88048, Note_off_c, 1, 90, 64
3, 88075, Note_on_c, 1, 90, 78
3, 88164, Note_off_c, 1, 90, 64
3, 88194, Note_on_c, 1, 90, 70
3, 88277, Note_off_c, 1, 90, 64
3, 88319, Note_on_c, 1, 90, 102
3, 88443, Note_off_c, 1, 90, 64
3, 108706, Note_on_c, 1, 88, 98
3, 108806, Note_off_c, 1, 88, 64
3, 108952, Note_on_c, 1, 88, 95
3, 109031, Note_off_c, 1, 88, 64
3, 109178, Note_on_c, 1, 93, 89
3, 109265, Note_off_c, 1, 93, 64
3, 109428, Note_on_c, 1, 93, 95
3, 109505, Note_off_c, 1, 93, 64
3, 109670, Note_on_c, 1, 88, 93
3, 109752, Note_off_c, 1, 88, 64
3, 109909, Note_on_c, 1, 86, 105
3, 110002, Note_off_c, 1, 86, 64
3, 110270, Note_on_c, 1, 74, 80
3, 110362, Note_off_c, 1, 74, 64
3, 110385, Note_on_c, 1, 74, 80
3, 110480, Note_off_c, 1, 74, 64
3, 110506, Note_on_c, 1, 74, 80
3, 110596, Note_off_c, 1, 74, 64
3, 110627, Note_on_c, 1, 74, 93
3, 110717, Note_off_c, 1, 74, 64
3, 110749, Note_on_c, 1, 74, 89
3, 110834, Note_off_c, 1, 74, 64
3, 110872, Note_on_c, 1, 74, 91
3, 110957, Note_off_c, 1, 74, 64
3, 110988, Note_on_c, 1, 90, 91
3, 111080, Note_off_c, 1, 90, 64
3, 111103, Note_on_c, 1, 86, 89
3, 111196, Note_off_c, 1, 86, 64
3, 111222, Note_on_c, 1, 90, 93
3, 111300, Note_off_c, 1, 90, 64
3, 111339, Note_on_c, 1, 91, 93
3, 111458, Note_off_c, 1, 91, 64
3, 114824, Note_on_c, 1, 86, 93
3, 114917, Note_off_c, 1, 86, 64
3, 114944, Note_on_c, 1, 86, 87
3, 115033, Note_off_c, 1, 86, 64
3, 115063, Note_on_c, 1, 86, 98
3, 115147, Note_off_c, 1, 86, 64
3, 115191, Note_on_c, 1, 86, 107
3, 115319, Note_off_c, 1, 86, 64
3, 116272, Note_on_c, 1, 88, 102
3, 116360, Note_off_c, 1, 88, 64
3, 116387, Note_on_c, 1, 88, 93
3, 116470, Note_off_c, 1, 88, 64
3, 116511, Note_on_c, 1, 88, 105
3, 116583, Note_off_c, 1, 88, 64
3, 116628, Note_on_c, 1, 88, 107
3, 116754, Note_off_c, 1, 88, 64
3, 119152, Note_on_c, 1, 74, 82
3, 119253, Note_off_c, 1, 74, 64
3, 119271, Note_on_c, 1, 74, 76
3, 119367, Note_off_c, 1, 74, 64
3, 119388, Note_on_c, 1, 74, 82
3, 119486, Note_off_c, 1, 74, 64
3, 119512, Note_on_c, 1, 74, 85
3, 119609, Note_off_c, 1, 74, 64
3, 119636, Note_on_c, 1, 74, 80
3, 119723, Note_off_c, 1, 74, 64
3, 119752, Note_on_c, 1, 74, 78
3, 119843, Note_off_c, 1, 74, 64
3, 119871, Note_on_c, 1, 74, 78
3, 119954, Note_off_c, 1, 74, 64
3, 119993, Note_on_c, 1, 74, 89
3, 120077, Note_off_c, 1, 74, 64
3, 120107, Note_on_c, 1, 90, 85
3, 120146, Note_off_c, 1, 90, 64
3, 120158, Note_on_c, 1, 91, 89
3, 120198, Note_off_c, 1, 91, 64
3, 120217, Note_on_c, 1, 93, 95
3, 120294, Note_off_c, 1, 93, 64
3, 120342, Note_on_c, 1, 95, 95
3, 120373, Note_off_c, 1, 95, 64
3, 120395, Note_on_c, 1, 93, 95
3, 120426, Note_off_c, 1, 93, 64
3, 120459, Note_on_c, 1, 91, 100
3, 120585, Note_off_c, 1, 91, 64
3, 120828, Note_on_c, 1, 91, 107
3, 120881, Note_off_c, 1, 91, 64
3, 120950, Note_on_c, 1, 90, 100
3, 121098, Note_off_c, 1, 90, 64
3, 121314, Note_on_c, 1, 90, 100
3, 121366, Note_off_c, 1, 90, 64
3, 121430, Note_on_c, 1, 88, 89
3, 121496, Note_off_c, 1, 88, 64
3, 121549, Note_on_c, 1, 93, 91
3, 121604, Note_off_c, 1, 93, 64
3, 121669, Note_on_c, 1, 93, 93
3, 121712, Note_off_c, 1, 93, 64
3, 121789, Note_on_c, 1, 93, 98
3, 121828, Note_off_c, 1, 93, 64
3, 121906, Note_on_c, 1, 93, 100
3, 122038, Note_off_c, 1, 93, 64
3, 123004, Note_on_c, 1, 81, 100
3, 123077, Note_off_c, 1, 81, 64
3, 123115, Note_on_c, 1, 81, 100
3, 123197, Note_off_c, 1, 81, 64
3, 123233, Note_on_c, 1, 88, 89
3, 123285, Note_off_c, 1, 88, 64
3, 123354, Note_on_c, 1, 90, 95
3, 123445, Note_off_c, 1, 90, 64
3, 123476, Note_on_c, 1, 93, 82
3, 123510, Note_off_c, 1, 93, 64
3, 123530, Note_on_c, 1, 91, 93
3, 123563, Note_off_c, 1, 91, 64
3, 123590, Note_on_c, 1, 90, 89
3, 123645, Note_off_c, 1, 90, 64
3, 123706, Note_on_c, 1, 86, 91
3, 123753, Note_off_c, 1, 86, 64
3, 123824, Note_on_c, 1, 88, 93
3, 123918, Note_off_c, 1, 88, 64
3, 123944, Note_on_c, 1, 91, 87
3, 123975, Note_off_c, 1, 91, 64
3, 123997, Note_on_c, 1, 90, 98
3, 124027, Note_off_c, 1, 90, 64
3, 124059, Note_on_c, 1, 88, 95
3, 124110, Note_off_c, 1, 88, 64
3, 124184, Note_on_c, 1, 81, 91
3, 124236, Note_off_c, 1, 81, 64
3, 124308, Note_on_c, 1, 81, 102
3, 124381, Note_off_c, 1, 81, 64
3, 124421, Note_on_c, 1, 86, 89
3, 124475, Note_off_c, 1, 86, 64
3, 124544, Note_on_c, 1, 86, 91
3, 124603, Note_off_c, 1, 86, 64
3, 124659, Note_on_c, 1, 88, 87
3, 124710, Note_off_c, 1, 88, 64
3, 124782, Note_on_c, 1, 81, 85
3, 124838, Note_off_c, 1, 81, 64
3, 124906, Note_on_c, 1, 88, 87
3, 124959, Note_off_c, 1, 88, 64
3, 125026, Note_on_c, 1, 90, 95
3, 125068, Note_off_c, 1, 90, 64
3, 125079, Note_on_c, 1, 88, 98
3, 125118, Note_off_c, 1, 88, 64
3, 125135, Note_on_c, 1, 90, 89
3, 125173, Note_off_c, 1, 90, 64
3, 125194, Note_on_c, 1, 91, 98
3, 125234, Note_off_c, 1, 91, 64
3, 125268, Note_on_c, 1, 93, 102
3, 125396, Note_off_c, 1, 93, 64
3, 125513, Note_on_c, 1, 91, 87
3, 125635, Note_off_c, 1, 91, 64
3, 138424, Note_on_c, 1, 81, 98
3, 138460, Note_off_c, 1, 81, 64
3, 138486, Note_on_c, 1, 81, 100
3, 138548, Note_off_c, 1, 81, 64
3, 138662, Note_on_c, 1, 88, 89
3, 138697, Note_off_c, 1, 88, 64
3, 138722, Note_on_c, 1, 88, 102
3, 138786, Note_off_c, 1, 88, 64
3, 138892, Note_on_c, 1, 90, 98
3, 138923, Note_off_c, 1, 90, 64
3, 138951, Note_on_c, 1, 90, 102
3, 139011, Note_off_c, 1, 90, 64
3, 139119, Note_on_c, 1, 88, 85
3, 139151, Note_off_c, 1, 88, 64
3, 139187, Note_on_c, 1, 86, 100
3, 139258, Note_off_c, 1, 86, 64
3, 139351, Note_on_c, 1, 81, 78
3, 139388, Note_off_c, 1, 81, 64
3, 139419, Note_on_c, 1, 86, 98
3, 139487, Note_off_c, 1, 86, 64
3, 139600, Note_on_c, 1, 81, 89
3, 139631, Note_off_c, 1, 81, 64
3, 139664, Note_on_c, 1, 81, 91
3, 139753, Note_off_c, 1, 81, 64
3, 139841, Note_on_c, 1, 78, 85
3, 139880, Note_off_c, 1, 78, 64
3, 139914, Note_on_c, 1, 81, 100
3, 139985, Note_off_c, 1, 81, 64
3, 140092, Note_on_c, 1, 81, 95
3, 140129, Note_off_c, 1, 81, 64
3, 140155, Note_on_c, 1, 78, 98
3, 140244, Note_off_c, 1, 78, 64
3, 165711, Note_on_c, 1, 78, 57
3, 165802, Note_off_c, 1, 78, 64
3, 165829, Note_on_c, 1, 78, 60
3, 165926, Note_off_c, 1, 78, 64
3, 165958, Note_on_c, 1, 78, 59
3, 166049, Note_off_c, 1, 78, 64
3, 166077, Note_on_c, 1, 78, 62
3, 166162, Note_off_c, 1, 78, 64
3, 166188, Note_on_c, 1, 78, 60
3, 166285, Note_off_c, 1, 78, 64
3, 166310, Note_on_c, 1, 78, 59
3, 166395, Note_off_c, 1, 78, 64
3, 166424, Note_on_c, 1, 78, 60
3, 166521, Note_off_c, 1, 78, 64
3, 166550, Note_on_c, 1, 78, 59
3, 166692, Note_off_c, 1, 78, 64
3, 170037, Note_on_c, 1, 81, 61
3, 170123, Note_off_c, 1, 81, 64
3, 170152, Note_on_c, 1, 81, 64
3, 170251, Note_off_c, 1, 81, 64
3, 170280, Note_on_c, 1, 81, 72
3, 170370, Note_off_c, 1, 81, 64
3, 170400, Note_on_c, 1, 81, 70
3, 170490, Note_off_c, 1, 81, 64
3, 170514, Note_on_c, 1, 81, 82
3, 170597, Note_off_c, 1, 81, 64
3, 170627, Note_on_c, 1, 88, 85
3, 170719, Note_off_c, 1, 88, 64
3, 170747, Note_on_c, 1, 81, 76
3, 170830, Note_off_c, 1, 81, 64
3, 170877, Note_on_c, 1, 81, 82
3, 171008, Note_off_c, 1, 81, 64
3, 192475, Note_on_c, 1, 93, 85
3, 192542, Note_off_c, 1, 93, 64
3, 192715, Note_on_c, 1, 86, 91
3, 192783, Note_off_c, 1, 86, 64
3, 192954, Note_on_c, 1, 88, 89
3, 193024, Note_off_c, 1, 88, 64
3, 193192, Note_on_c, 1, 86, 87
3, 193269, Note_off_c, 1, 86, 64
3, 193445, Note_on_c, 1, 93, 98
3, 193512, Note_off_c, 1, 93, 64
3, 193678, Note_on_c, 1, 88, 87
3, 193746, Note_off_c, 1, 88, 64
3, 193913, Note_on_c, 1, 86, 80
3, 193993, Note_off_c, 1, 86, 64
3, 194153, Note_on_c, 1, 86, 89
3, 194222, Note_off_c, 1, 86, 64
3, 194396, Note_on_c, 1, 88, 89
3, 194452, Note_off_c, 1, 88, 64
3, 194512, Note_on_c, 1, 81, 85
3, 194533, Note_off_c, 1, 81, 64
3, 194555, Note_on_c, 1, 81, 85
3, 194582, Note_off_c, 1, 81, 64
3, 194613, Note_on_c, 1, 81, 89
3, 194655, Note_off_c, 1, 81, 64
3, 194740, Note_on_c, 1, 81, 76
3, 194780, Note_off_c, 1, 81, 64
3, 194866, Note_on_c, 1, 81, 87
3, 195000, Note_off_c, 1, 81, 64
3, 198361, Note_on_c, 1, 81, 82
3, 198450, Note_off_c, 1, 81, 64
3, 198476, Note_on_c, 1, 81, 76
3, 198567, Note_off_c, 1, 81, 64
3, 198594, Note_on_c, 1, 81, 80
3, 198688, Note_off_c, 1, 81, 64
3, 198715, Note_on_c, 1, 81, 74
3, 198807, Note_off_c, 1, 81, 64
3, 198837, Note_on_c, 1, 81, 70
3, 198912, Note_off_c, 1, 81, 64
3, 198945, Note_on_c, 1, 81, 82
3, 199020, Note_off_c, 1, 81, 64
3, 199061, Note_on_c, 1, 88, 87
3, 199134, Note_off_c, 1, 88, 64
3, 199187, Note_on_c, 1, 86, 87
3, 199280, Note_off_c, 1, 86, 64
3, 199316, Note_on_c, 1, 74, 82
3, 199396, Note_off_c, 1, 74, 64
3, 199436, Note_on_c, 1, 74, 98
3, 199521, Note_off_c, 1, 74, 64
3, 199551, Note_on_c, 1, 78, 85
3, 199631, Note_off_c, 1, 78, 64
3, 199668, Note_on_c, 1, 78, 82
3, 199759, Note_off_c, 1, 78, 64
3, 199787, Note_on_c, 1, 81, 85
3, 199863, Note_off_c, 1, 81, 64
3, 199914, Note_on_c, 1, 81, 82
3, 200000, Note_off_c, 1, 81, 64
3, 200035, Note_on_c, 1, 86, 93
3, 200105, Note_off_c, 1, 86, 64
3, 200151, Note_on_c, 1, 86, 93
3, 200219, Note_off_c, 1, 86, 64
3, 200260, Note_on_c, 1, 90, 70
3, 200324, Note_off_c, 1, 90, 64
3, 200383, Note_on_c, 1, 90, 95
3, 200459, Note_off_c, 1, 90, 64
3, 200505, Note_on_c, 1, 93, 85
3, 200575, Note_off_c, 1, 93, 64
3, 200621, Note_on_c, 1, 95, 91
3, 200743, Note_off_c, 1, 95, 64
3, 219856, Note_on_c, 1, 90, 102
3, 219977, Note_off_c, 1, 90, 64
3, 220309, Note_on_c, 1, 86, 102
3, 220433, Note_off_c, 1, 86, 64
3, 220796, Note_on_c, 1, 90, 102
3, 220910, Note_off_c, 1, 90, 64
3, 221278, Note_on_c, 1, 93, 102
3, 221399, Note_off_c, 1, 93, 64
3, 221939, Note_on_c, 1, 90, 98
3, 221970, Note_off_c, 1, 90, 64
3, 221996, Note_on_c, 1, 90, 98
3, 222065, Note_off_c, 1, 90, 64
3, 222184, Note_on_c, 1, 93, 87
3, 222218, Note_off_c, 1, 93, 64
3, 222240, Note_on_c, 1, 91, 98
3, 222316, Note_off_c, 1, 91, 64
3, 222419, Note_on_c, 1, 91, 98
3, 222448, Note_off_c, 1, 91, 64
3, 222476, Note_on_c, 1, 91, 100
3, 222556, Note_off_c, 1, 91, 64
3, 222663, Note_on_c, 1, 91, 105
3, 222693, Note_off_c, 1, 91, 64
3, 222725, Note_on_c, 1, 91, 107
3, 222960, Note_off_c, 1, 91, 64
3, 230580, Note_on_c, 1, 81, 87
3, 230620, Note_off_c, 1, 81, 64
3, 230644, Note_on_c, 1, 81, 102
3, 230710, Note_off_c, 1, 81, 64
3, 230816, Note_on_c, 1, 86, 91
3, 230853, Note_off_c, 1, 86, 64
3, 230878, Note_on_c, 1, 86, 93
3, 230947, Note_off_c, 1, 86, 64
3, 231060, Note_on_c, 1, 90, 87
3, 231094, Note_off_c, 1, 90, 64
3, 231120, Note_on_c, 1, 90, 95
3, 231189, Note_off_c, 1, 90, 64
3, 231292, Note_on_c, 1, 91, 91
3, 231321, Note_off_c, 1, 91, 64
3, 231364, Note_on_c, 1, 91, 113
3, 231464, Note_off_c, 1, 91, 64
3, 231837, Note_on_c, 1, 95, 102
3, 231921, Note_off_c, 1, 95, 64
3, 231921, End_track
4, 0, Start_track
4, 0, Title_t, "Trumpet"
4, 0, Program_c, 2, 56
4, 0, Control_c, 2, 7, 100
4, 962, Note_on_c, 2, 86, 119
4, 1061, Note_off_c, 2, 86, 64
4, 1433, Note_on_c, 2, 86, 105
4, 1537, Note_off_c, 2, 86, 64
4, 1917, Note_on_c, 2, 86, 116
4, 2016, Note_off_c, 2, 86, 64
4, 2396, Note_on_c, 2, 81, 113
4, 2511, Note_off_c, 2, 81, 64
4, 3052, Note_on_c, 2, 81, 100
4, 3090, Note_off_c, 2, 81, 64
4, 3114, Note_on_c, 2, 81, 102
4, 3183, Note_off_c, 2, 81, 64
4, 3290, Note_on_c, 2, 81, 105
4, 3325, Note_off_c, 2, 81, 64
4, 3349, Note_on_c, 2, 81, 100
4, 3430, Note_off_c, 2, 81, 64
4, 3539, Note_on_c, 2, 81, 102
4, 3577, Note_off_c, 2, 81, 64
4, 3599, Note_on_c, 2, 81, 100
4, 3675, Note_off_c, 2, 81, 64
4, 3769, Note_on_c, 2, 81, 105
4, 3802, Note_off_c, 2, 81, 64
4, 3830, Note_on_c, 2, 81, 100
4, 3911, Note_off_c, 2, 81, 64
4, 4007, Note_on_c, 2, 86, 82
4, 4041, Note_off_c, 2, 86, 64
4, 4066, Note_on_c, 2, 86, 98
4, 4135, Note_off_c, 2, 86, 64
4, 4248, Note_on_c, 2, 81, 98
4, 4283, Note_off_c, 2, 81, 64
4, 4307, Note_on_c, 2, 81, 95
4, 4380, Note_off_c, 2, 81, 64
4, 4487, Note_on_c, 2, 78, 95
4, 4525, Note_off_c, 2, 78, 64
4, 4548, Note_on_c, 2, 78, 95
4, 4619, Note_off_c, 2, 78, 64
4, 4732, Note_on_c, 2, 74, 100
4, 4768, Note_off_c, 2, 74, 64
4, 4792, Note_on_c, 2, 74, 100
4, 4868, Note_off_c, 2, 74, 64
4, 4971, Note_on_c, 2, 81, 82
4, 5003, Note_off_c, 2, 81, 64
4, 5028, Note_on_c, 2, 81, 93
4, 5096, Note_off_c, 2, 81, 64
4, 5202, Note_on_c, 2, 78, 87
4, 5231, Note_off_c, 2, 78, 64
4, 5264, Note_on_c, 2, 74, 102
4, 5365, Note_off_c, 2, 74, 64
4, 24002, Note_on_c, 2, 86, 119
4, 24101, Note_off_c, 2, 86, 64
4, 24473, Note_on_c, 2, 86, 105
4, 24577, Note_off_c, 2, 86, 64
4, 24957, Note_on_c, 2, 86, 116
4, 25056, Note_off_c, 2, 86, 64
4, 25436, Note_on_c, 2, 81, 113
4, 25551, Note_off_c, 2, 81, 64
4, 26092, Note_on_c, 2, 81, 100
4, 26130, Note_off_c, 2, 81, 64
4, 26154, Note_on_c, 2, 81, 102
4, 26223, Note_off_c, 2, 81, 64
4, 26330, Note_on_c, 2, 81, 105
4, 26365, Note_off_c, 2, 81, 64
4, 26389, Note_on_c, 2, 81, 100
4, 26470, Note_off_c, 2, 81, 64
4, 26579, Note_on_c, 2, 81, 102
4, 26617, Note_off_c, 2, 81, 64
4, 26639, Note_on_c, 2, 81, 100
4, 26715, Note_off_c, 2, 81, 64
4, 26809, Note_on_c, 2, 81, 105
4, 26842, Note_off_c, 2, 81, 64
4, 26870, Note_on_c, 2, 81, 100
4, 26951, Note_off_c, 2, 81, 64
4, 27047, Note_on_c, 2, 86, 82
4, 27081, Note_off_c, 2, 86, 64
4, 27106, Note_on_c, 2, 86, 98
4, 27175, Note_off_c, 2, 86, 64
4, 27288, Note_on_c, 2, 81, 98
4, 27323, Note_off_c, 2, 81, 64
4, 27347, Note_on_c, 2, 81, 95
4, 27420, Note_off_c, 2, 81, 64
4, 27527, Note_on_c, 2, 78, 95
4, 27565, Note_off_c, 2, 78, 64
4, 27588, Note_on_c, 2, 78, 95
4, 27659, Note_off_c, 2, 78, 64
4, 27772, Note_on_c, 2, 74, 100
4, 27808, Note_off_c, 2, 74, 64
4, 27832, Note_on_c, 2, 74, 100
4, 27908, Note_off_c, 2, 74, 64
4, 28011, Note_on_c, 2, 81, 82
4, 28043, Note_off_c, 2, 81, 64
4, 28068, Note_on_c, 2, 81, 93
4, 28136, Note_off_c, 2, 81, 64
4, 28242, Note_on_c, 2, 78, 87
4, 28271, Note_off_c, 2, 78, 64
4, 28304, Note_on_c, 2, 74, 102
4, 28405, Note_off_c, 2, 74, 64
4, 52436, Note_on_c, 2, 81, 98
4, 52519, Note_off_c, 2, 81, 64
4, 52550, Note_on_c, 2, 81, 91
4, 52625, Note_off_c, 2, 81, 64
4, 52671, Note_on_c, 2, 78, 89
4, 52759, Note_off_c, 2, 78, 64
4, 52797, Note_on_c, 2, 74, 110
4, 52937, Note_off_c, 2, 74, 64
4, 53870, Note_on_c, 2, 74, 105
4, 53952, Note_off_c, 2, 74, 64
4, 53991, Note_on_c, 2, 74, 105
4, 54071, Note_off_c, 2, 74, 64
4, 54116, Note_on_c, 2, 74, 105
4, 54194, Note_off_c, 2, 74, 64
4, 54231, Note_on_c, 2, 81, 107
4, 54369, Note_off_c, 2, 81, 64
4, 57236, Note_on_c, 2, 74, 105
4, 57324, Note_off_c, 2, 74, 64
4, 57355, Note_on_c, 2, 74, 102
4, 57432, Note_off_c, 2, 74, 64
4, 57474, Note_on_c, 2, 74, 100
4, 57543, Note_off_c, 2, 74, 64
4, 57599, Note_on_c, 2, 74, 107
4, 57673, Note_off_c, 2, 74, 64
4, 57714, Note_on_c, 2, 74, 107
4, 57798, Note_off_c, 2, 74, 64
4, 57829, Note_on_c, 2, 78, 89
4, 57919, Note_off_c, 2, 78, 64
4, 57950, Note_on_c, 2, 74, 93
4, 58031, Note_off_c, 2, 74, 64
4, 58071, Note_on_c, 2, 86, 105
4, 58201, Note_off_c, 2, 86, 64
4, 58440, Note_on_c, 2, 88, 102
4, 58493, Note_off_c, 2, 88, 64
4, 58561, Note_on_c, 2, 88, 102
4, 58697, Note_off_c, 2, 88, 64
4, 58927, Note_on_c, 2, 86, 95
4, 58969, Note_off_c, 2, 86, 64
4, 59038, Note_on_c, 2, 86, 91
4, 59098, Note_off_c, 2, 86, 64
4, 59152, Note_on_c, 2, 81, 85
4, 59209, Note_off_c, 2, 81, 64
4, 59276, Note_on_c, 2, 81, 100
4, 59339, Note_off_c, 2, 81, 64
4, 59399, Note_on_c, 2, 81, 100
4, 59453, Note_off_c, 2, 81, 64
4, 59518, Note_on_c, 2, 81, 110
4, 59654, Note_off_c, 2, 81, 64
4, 60583, Note_on_c, 2, 81, 102
4, 60667, Note_off_c, 2, 81, 64
4, 60710, Note_on_c, 2, 81, 105
4, 60782, Note_off_c, 2, 81, 64
4, 60834, Note_on_c, 2, 81, 113
4, 60910, Note_off_c, 2, 81, 64
4, 60957, Note_on_c, 2, 74, 107
4, 61073, Note_off_c, 2, 74, 64
4, 61783, Note_on_c, 2, 88, 98
4, 61840, Note_off_c, 2, 88, 64
4, 61908, Note_on_c, 2, 90, 95
4, 61984, Note_off_c, 2, 90, 64
4, 62150, Note_on_c, 2, 91, 102
4, 62225, Note_off_c, 2, 91, 64
4, 62393, Note_on_c, 2, 88, 105
4, 62494, Note_off_c, 2, 88, 64
4, 62634, Note_on_c, 2, 81, 100
4, 62695, Note_off_c, 2, 81, 64
4, 62755, Note_on_c, 2, 81, 105
4, 62808, Note_off_c, 2, 81, 64
4, 62875, Note_on_c, 2, 81, 116
4, 62998, Note_off_c, 2, 81, 64
4, 63113, Note_on_c, 2, 81, 116
4, 63238, Note_off_c, 2, 81, 64
4, 63358, Note_on_c, 2, 81, 119
4, 63499, Note_off_c, 2, 81, 64
4, 79789, Note_on_c, 2, 81, 98
4, 79885, Note_off_c, 2, 81, 64
4, 79906, Note_on_c, 2, 81, 91
4, 79994, Note_off_c, 2, 81, 64
4, 80020, Note_on_c, 2, 81, 87
4, 80121, Note_off_c, 2, 81, 64
4, 80145, Note_on_c, 2, 74, 102
4, 80280, Note_off_c, 2, 74, 64
4, 82674, Note_on_c, 2, 88, 87
4, 82764, Note_off_c, 2, 88, 64
4, 82787, Note_on_c, 2, 88, 87
4, 82878, Note_off_c, 2, 88, 64
4, 82905, Note_on_c, 2, 88, 82
4, 82993, Note_off_c, 2, 88, 64
4, 83022, Note_on_c, 2, 88, 102
4, 83150, Note_off_c, 2, 88, 64
4, 87954, Note_on_c, 2, 90, 85
4, 88047, Note_off_c, 2, 90, 64
4, 88072, Note_on_c, 2, 90, 82
4, 88160, Note_off_c, 2, 90, 64
4, 88195, Note_on_c, 2, 90, 82
4, 88288, Note_off_c, 2, 90, 64
4, 88316, Note_on_c, 2, 78, 100
4, 88449, Note_off_c, 2, 78, 64
4, 108706, Note_on_c, 2, 81, 95
4, 108830, Note_off_c, 2, 81, 64
4, 108948, Note_on_c, 2, 81, 105
4, 109034, Note_off_c, 2, 81, 64
4, 109189, Note_on_c, 2, 81, 105
4, 109274, Note_off_c, 2, 81, 64
4, 109422, Note_on_c, 2, 81, 102
4, 109515, Note_off_c, 2, 81, 64
4, 109667, Note_on_c, 2, 81, 100
4, 109752, Note_off_c, 2, 81, 64
4, 109908, Note_on_c, 2, 81, 85
4, 109992, Note_off_c, 2, 81, 64
4, 110025, Note_on_c, 2, 74, 82
4, 110128, Note_off_c, 2, 74, 64
4, 110146, Note_on_c, 2, 74, 68
4, 110238, Note_off_c, 2, 74, 64
4, 110268, Note_on_c, 2, 74, 85
4, 110358, Note_off_c, 2, 74, 64
4, 110394, Note_on_c, 2, 74, 87
4, 110482, Note_off_c, 2, 74, 64
4, 110511, Note_on_c, 2, 74, 82
4, 110598, Note_off_c, 2, 74, 64
4, 110636, Note_on_c, 2, 74, 89
4, 110724, Note_off_c, 2, 74, 64
4, 110753, Note_on_c, 2, 74, 74
4, 110835, Note_off_c, 2, 74, 64
4, 110869, Note_on_c, 2, 74, 87
4, 110954, Note_off_c, 2, 74, 64
4, 110988, Note_on_c, 2, 86, 93
4, 111067, Note_off_c, 2, 86, 64
4, 111104, Note_on_c, 2, 81, 89
4, 111187, Note_off_c, 2, 81, 64
4, 111226, Note_on_c, 2, 86, 91
4, 111300, Note_off_c, 2, 86, 64
4, 111349, Note_on_c, 2, 86, 102
4, 111463, Note_off_c, 2, 86, 64
4, 114824, Note_on_c, 2, 81, 89
4, 114916, Note_off_c, 2, 81, 64
4, 114938, Note_on_c, 2, 81, 82
4, 115028, Note_off_c, 2, 81, 64
4, 115060, Note_on_c, 2, 78, 85
4, 115154, Note_off_c, 2, 78, 64
4, 115187, Note_on_c, 2, 74, 105
4, 115322, Note_off_c, 2, 74, 64
4, 116273, Note_on_c, 2, 74, 98
4, 116361, Note_off_c, 2, 74, 64
4, 116389, Note_on_c, 2, 74, 95
4, 116474, Note_off_c, 2, 74, 64
4, 116504, Note_on_c, 2, 74, 100
4, 116599, Note_off_c, 2, 74, 64
4, 116624, Note_on_c, 2, 81, 110
4, 116744, Note_off_c, 2, 81, 64
4, 119640, Note_on_c, 2, 74, 80
4, 119723, Note_off_c, 2, 74, 64
4, 119755, Note_on_c, 2, 74, 93
4, 119838, Note_off_c, 2, 74, 64
4, 119874, Note_on_c, 2, 74, 85
4, 119954, Note_off_c, 2, 74, 64
4, 119994, Note_on_c, 2, 74, 89
4, 120071, Note_off_c, 2, 74, 64
4, 120114, Note_on_c, 2, 74, 102
4, 120195, Note_off_c, 2, 74, 64
4, 120224, Note_on_c, 2, 78, 89
4, 120297, Note_off_c, 2, 78, 64
4, 120347, Note_on_c, 2, 74, 85
4, 120402, Note_off_c, 2, 74, 64
4, 120468, Note_on_c, 2, 86, 87
4, 120583, Note_off_c, 2, 86, 64
4, 120826, Note_on_c, 2, 88, 95
4, 120880, Note_off_c, 2, 88, 64
4, 120968, Note_on_c, 2, 88, 89
4, 121080, Note_off_c, 2, 88, 64
4, 121304, Note_on_c, 2, 86, 87
4, 121355, Note_off_c, 2, 86, 64
4, 121429, Note_on_c, 2, 86, 91
4, 121505, Note_off_c, 2, 86, 64
4, 121547, Note_on_c, 2, 81, 74
4, 121601, Note_off_c, 2, 81, 64
4, 121665, Note_on_c, 2, 81, 100
4, 121717, Note_off_c, 2, 81, 64
4, 121791, Note_on_c, 2, 81, 102
4, 121836, Note_off_c, 2, 81, 64
4, 121913, Note_on_c, 2, 81, 110
4, 122035, Note_off_c, 2, 81, 64
4, 122986, Note_on_c, 2, 81, 89
4, 123090, Note_off_c, 2, 81, 64
4, 123109, Note_on_c, 2, 81, 80
4, 123204, Note_off_c, 2, 81, 64
4, 123236, Note_on_c, 2, 81, 102
4, 123311, Note_off_c, 2, 81, 64
4, 123349, Note_on_c, 2, 74, 105
4, 123482, Note_off_c, 2, 74, 64
4, 124179, Note_on_c, 2, 88, 87
4, 124230, Note_off_c, 2, 88, 64
4, 124303, Note_on_c, 2, 90, 100
4, 124399, Note_off_c, 2, 90, 64
4, 124539, Note_on_c, 2, 91, 95
4, 124633, Note_off_c, 2, 91, 64
4, 124782, Note_on_c, 2, 88, 105
4, 124903, Note_off_c, 2, 88, 64
4, 125027, Note_on_c, 2, 81, 100
4, 125083, Note_off_c, 2, 81, 64
4, 125149, Note_on_c, 2, 81, 95
4, 125205, Note_off_c, 2, 81, 64
4, 125268, Note_on_c, 2, 81, 113
4, 125396, Note_off_c, 2, 81, 64
4, 125517, Note_on_c, 2, 81, 110
4, 125640, Note_off_c, 2, 81, 64
4, 138413, Note_on_c, 2, 81, 98
4, 138447, Note_off_c, 2, 81, 64
4, 138478, Note_on_c, 2, 81, 98
4, 138531, Note_off_c, 2, 81, 64
4, 138654, Note_on_c, 2, 81, 91
4, 138688, Note_off_c, 2, 81, 64
4, 138721, Note_on_c, 2, 81, 102
4, 138777, Note_off_c, 2, 81, 64
4, 138887, Note_on_c, 2, 78, 95
4, 138923, Note_off_c, 2, 78, 64
4, 138954, Note_on_c, 2, 74, 105
4, 139007, Note_off_c, 2, 74, 64
4, 139125, Note_on_c, 2, 81, 98
4, 139157, Note_off_c, 2, 81, 64
4, 139188, Note_on_c, 2, 81, 102
4, 139254, Note_off_c, 2, 81, 64
4, 139357, Note_on_c, 2, 81, 95
4, 139390, Note_off_c, 2, 81, 64
4, 139421, Note_on_c, 2, 81, 102
4, 139480, Note_off_c, 2, 81, 64
4, 139599, Note_on_c, 2, 81, 95
4, 139628, Note_off_c, 2, 81, 64
4, 139670, Note_on_c, 2, 81, 110
4, 139993, Note_off_c, 2, 81, 64
4, 140092, Note_on_c, 2, 81, 100
4, 140122, Note_off_c, 2, 81, 64
4, 140154, Note_on_c, 2, 81, 100
4, 140233, Note_off_c, 2, 81, 64
4, 166194, Note_on_c, 2, 78, 64
4, 166280, Note_off_c, 2, 78, 64
4, 166308, Note_on_c, 2, 78, 66
4, 166403, Note_off_c, 2, 78, 64
4, 166434, Note_on_c, 2, 78, 60
4, 166520, Note_off_c, 2, 78, 64
4, 166553, Note_on_c, 2, 78, 59
4, 166696, Note_off_c, 2, 78, 64
4, 170514, Note_on_c, 2, 81, 68
4, 170601, Note_off_c, 2, 81, 64
4, 170631, Note_on_c, 2, 81, 61
4, 170726, Note_off_c, 2, 81, 64
4, 170752, Note_on_c, 2, 81, 66
4, 170854, Note_off_c, 2, 81, 64
4, 170876, Note_on_c, 2, 74, 85
4, 171017, Note_off_c, 2, 74, 64
4, 192474, Note_on_c, 2, 81, 102
4, 192545, Note_off_c, 2, 81, 64
4, 192720, Note_on_c, 2, 81, 110
4, 192786, Note_off_c, 2, 81, 64
4, 192960, Note_on_c, 2, 81, 102
4, 193029, Note_off_c, 2, 81, 64
4, 193199, Note_on_c, 2, 81, 105
4, 193272, Note_off_c, 2, 81, 64
4, 193452, Note_on_c, 2, 81, 100
4, 193520, Note_off_c, 2, 81, 64
4, 193682, Note_on_c, 2, 81, 100
4, 193743, Note_off_c, 2, 81, 64
4, 193922, Note_on_c, 2, 81, 93
4, 193980, Note_off_c, 2, 81, 64
4, 194158, Note_on_c, 2, 74, 98
4, 194233, Note_off_c, 2, 74, 64
4, 194391, Note_on_c, 2, 81, 100
4, 194449, Note_off_c, 2, 81, 64
4, 194509, Note_on_c, 2, 81, 100
4, 194538, Note_off_c, 2, 81, 64
4, 194559, Note_on_c, 2, 81, 87
4, 194588, Note_off_c, 2, 81, 64
4, 194615, Note_on_c, 2, 81, 98
4, 194655, Note_off_c, 2, 81, 64
4, 194742, Note_on_c, 2, 81, 95
4, 194785, Note_off_c, 2, 81, 64
4, 194863, Note_on_c, 2, 81, 100
4, 194994, Note_off_c, 2, 81, 64
4, 198829, Note_on_c, 2, 81, 80
4, 198917, Note_off_c, 2, 81, 64
4, 198950, Note_on_c, 2, 81, 80
4, 199042, Note_off_c, 2, 81, 64
4, 199075, Note_on_c, 2, 81, 87
4, 199156, Note_off_c, 2, 81, 64
4, 199191, Note_on_c, 2, 81, 82
4, 199296, Note_off_c, 2, 81, 64
4, 199314, Note_on_c, 2, 69, 82
4, 199390, Note_off_c, 2, 69, 64
4, 199424, Note_on_c, 2, 69, 85
4, 199519, Note_off_c, 2, 69, 64
4, 199544, Note_on_c, 2, 74, 87
4, 199630, Note_off_c, 2, 74, 64
4, 199666, Note_on_c, 2, 74, 89
4, 199761, Note_off_c, 2, 74, 64
4, 199784, Note_on_c, 2, 78, 89
4, 199866, Note_off_c, 2, 78, 64
4, 199905, Note_on_c, 2, 78, 85
4, 199994, Note_off_c, 2, 78, 64
4, 200026, Note_on_c, 2, 81, 85
4, 200109, Note_off_c, 2, 81, 64
4, 200142, Note_on_c, 2, 81, 80
4, 200236, Note_off_c, 2, 81, 64
4, 200264, Note_on_c, 2, 86, 89
4, 200340, Note_off_c, 2, 86, 64
4, 200383, Note_on_c, 2, 86, 80
4, 200475, Note_off_c, 2, 86, 64
4, 200500, Note_on_c, 2, 90, 82
4, 200586, Note_off_c, 2, 90, 64
4, 200623, Note_on_c, 2, 91, 87
4, 200747, Note_off_c, 2, 91, 64
4, 219856, Note_on_c, 2, 81, 113
4, 219986, Note_off_c, 2, 81, 64
4, 220310, Note_on_c, 2, 81, 113
4, 220454, Note_off_c, 2, 81, 64
4, 220791, Note_on_c, 2, 86, 105
4, 220908, Note_off_c, 2, 86, 64
4, 221277, Note_on_c, 2, 90, 102
4, 221407, Note_off_c, 2, 90, 64
4, 221932, Note_on_c, 2, 86, 100
4, 221959, Note_off_c, 2, 86, 64
4, 221984, Note_on_c, 2, 86, 100
4, 222056, Note_off_c, 2, 86, 64
4, 222172, Note_on_c, 2, 90, 87
4, 222203, Note_off_c, 2, 90, 64
4, 222230, Note_on_c, 2, 86, 100
4, 222310, Note_off_c, 2, 86, 64
4, 222410, Note_on_c, 2, 86, 107
4, 222446, Note_off_c, 2, 86, 64
4, 222474, Note_on_c, 2, 86, 105
4, 222549, Note_off_c, 2, 86, 64
4, 222663, Note_on_c, 2, 86, 107
4, 222691, Note_off_c, 2, 86, 64
4, 222728, Note_on_c, 2, 86, 107
4, 222971, Note_off_c, 2, 86, 64
4, 230581, Note_on_c, 2, 78, 89
4, 230619, Note_off_c, 2, 78, 64
4, 230644, Note_on_c, 2, 78, 100
4, 230710, Note_off_c, 2, 78, 64
4, 230820, Note_on_c, 2, 81, 82
4, 230854, Note_off_c, 2, 81, 64
4, 230881, Note_on_c, 2, 81, 91
4, 230941, Note_off_c, 2, 81, 64
4, 231056, Note_on_c, 2, 86, 91
4, 231090, Note_off_c, 2, 86, 64
4, 231121, Note_on_c, 2, 86, 100
4, 231189, Note_off_c, 2, 86, 64
4, 231300, Note_on_c, 2, 86, 89
4, 231329, Note_off_c, 2, 86, 64
4, 231364, Note_on_c, 2, 86, 102
4, 231457, Note_off_c, 2, 86, 64
4, 231844, Note_on_c, 2, 88, 105
4, 231917, Note_off_c, 2, 88, 64
4, 231917, End_track
5, 0, Start_track
5, 0, Title_t, "Timpani"
5, 0, Program_c, 3, 47
5, 0, Control_c, 3, 7, 100
5, 954, Note_on_c, 3, 50, 102
5, 974, Note_off_c, 3, 50, 64
5, 980, Note_on_c, 3, 50, 105
5, 997, Note_off_c, 3, 50, 64
5, 1003, Note_on_c, 3, 50, 93
5, 1024, Note_off_c, 3, 50, 64
5, 1031, Note_on_c, 3, 50, 68
5, 1048, Note_off_c, 3, 50, 64
5, 1053, Note_on_c, 3, 50, 72
5, 1070, Note_off_c, 3, 50, 64
5, 1085, Note_on_c, 3, 50, 80
5, 1102, Note_off_c, 3, 50, 64
5, 1109, Note_on_c, 3, 50, 68
5, 1122, Note_off_c, 3, 50, 64
5, 1140, Note_on_c, 3, 50, 95
5, 1155, Note_off_c, 3, 50, 64
5, 1162, Note_on_c, 3, 50, 87
5, 1177, Note_off_c, 3, 50, 64
5, 1190, Note_on_c, 3, 50, 98
5, 1209, Note_off_c, 3, 50, 64
5, 1218, Note_on_c, 3, 50, 63
5, 1229, Note_off_c, 3, 50, 64
5, 1244, Note_on_c, 3, 50, 85
5, 1259, Note_off_c, 3, 50, 64
5, 1266, Note_on_c, 3, 50, 95
5, 1283, Note_off_c, 3, 50, 64
5, 1296, Note_on_c, 3, 50, 76
5, 1311, Note_off_c, 3, 50, 64
5, 1324, Note_on_c, 3, 50, 89
5, 1340, Note_off_c, 3, 50, 64
5, 1349, Note_on_c, 3, 50, 98
5, 1367, Note_off_c, 3, 50, 64
5, 1383, Note_on_c, 3, 50, 80
5, 1395, Note_off_c, 3, 50, 64
5, 1403, Note_on_c, 3, 50, 102
5, 1415, Note_off_c, 3, 50, 64
5, 1437, Note_on_c, 3, 50, 80
5, 1446, Note_off_c, 3, 50, 64
5, 1452, Note_on_c, 3, 50, 105
5, 1468, Note_off_c, 3, 50, 64
5, 1486, Note_on_c, 3, 50, 85
5, 1498, Note_off_c, 3, 50, 64
5, 1509, Note_on_c, 3, 50, 85
5, 1522, Note_off_c, 3, 50, 64
5, 1535, Note_on_c, 3, 50, 68
5, 1547, Note_off_c, 3, 50, 64
5, 1563, Note_on_c, 3, 50, 87
5, 1574, Note_off_c, 3, 50, 64
5, 1586, Note_on_c, 3, 50, 76
5, 1597, Note_off_c, 3, 50, 64
5, 1611, Note_on_c, 3, 50, 93
5, 1623, Note_off_c, 3, 50, 64
5, 1637, Note_on_c, 3, 50, 64
5, 1648, Note_off_c, 3, 50, 64
5, 1662, Note_on_c, 3, 50, 66
5, 1673, Note_off_c, 3, 50, 64
5, 1686, Note_on_c, 3, 50, 80
5, 1699, Note_off_c, 3, 50, 64
5, 1711, Note_on_c, 3, 50, 85
5, 1725, Note_off_c, 3, 50, 64
5, 1739, Note_on_c, 3, 50, 64
5, 1750, Note_off_c, 3, 50, 64
5, 1764, Note_on_c, 3, 50, 98
5, 1778, Note_off_c, 3, 50, 64
5, 1791, Note_on_c, 3, 50, 87
5, 1807, Note_off_c, 3, 50, 64
5, 1813, Note_on_c, 3, 50, 100
5, 1828, Note_off_c, 3, 50, 64
5, 1847, Note_on_c, 3, 50, 78
5, 1860, Note_off_c, 3, 50, 64
5, 1869, Note_on_c, 3, 50, 41
5, 1878, Note_off_c, 3, 50, 64
5, 1898, Note_on_c, 3, 50, 63
5, 1910, Note_off_c, 3, 50, 64
5, 1916, Note_on_c, 3, 50, 100
5, 1933, Note_off_c, 3, 50, 64
5, 1947, Note_on_c, 3, 50, 80
5, 1959, Note_off_c, 3, 50, 64
5, 1973, Note_on_c, 3, 50, 100
5, 1987, Note_off_c, 3, 50, 64
5, 1998, Note_on_c, 3, 50, 64
5, 2009, Note_off_c, 3, 50, 64
5, 2024, Note_on_c, 3, 50, 82
5, 2039, Note_off_c, 3, 50, 64
5, 2044, Note_on_c, 3, 50, 89
5, 2059, Note_off_c, 3, 50, 64
5, 2073, Note_on_c, 3, 50, 85
5, 2085, Note_off_c, 3, 50, 64
5, 2096, Note_on_c, 3, 50, 63
5, 2108, Note_off_c, 3, 50, 64
5, 2123, Note_on_c, 3, 50, 89
5, 2135, Note_off_c, 3, 50, 64
5, 2149, Note_on_c, 3, 50, 80
5, 2162, Note_off_c, 3, 50, 64
5, 2172, Note_on_c, 3, 50, 82
5, 2184, Note_off_c, 3, 50, 64
5, 2203, Note_on_c, 3, 50, 68
5, 2214, Note_off_c, 3, 50, 64
5, 2223, Note_on_c, 3, 50, 91
5, 2239, Note_off_c, 3, 50, 64
5, 2252, Note_on_c, 3, 50, 78
5, 2265, Note_off_c, 3, 50, 64
5, 2275, Note_on_c, 3, 50, 80
5, 2288, Note_off_c, 3, 50, 64
5, 2304, Note_on_c, 3, 50, 66
5, 2315, Note_off_c, 3, 50, 64
5, 2324, Note_on_c, 3, 50, 93
5, 2337, Note_off_c, 3, 50, 64
5, 2355, Note_on_c, 3, 50, 63
5, 2367, Note_off_c, 3, 50, 64
5, 2372, Note_on_c, 3, 50, 70
5, 2384, Note_off_c, 3, 50, 64
5, 2409, Note_on_c, 3, 50, 80
5, 2435, Note_off_c, 3, 50, 64
5, 2465, Note_on_c, 3, 50, 80
5, 2493, Note_off_c, 3, 50, 64
5, 2515, Note_on_c, 3, 50, 78
5, 2531, Note_off_c, 3, 50, 64
5, 2538, Note_on_c, 3, 50, 102
5, 2554, Note_off_c, 3, 50, 64
5, 2568, Note_on_c, 3, 50, 78
5, 2583, Note_off_c, 3, 50, 64
5, 2595, Note_on_c, 3, 50, 78
5, 2608, Note_off_c, 3, 50, 64
5, 2620, Note_on_c, 3, 50, 66
5, 2633, Note_off_c, 3, 50, 64
5, 2646, Note_on_c, 3, 50, 89
5, 2660, Note_off_c, 3, 50, 64
5, 2673, Note_on_c, 3, 50, 64
5, 2687, Note_off_c, 3, 50, 64
5, 2697, Note_on_c, 3, 50, 80
5, 2711, Note_off_c, 3, 50, 64
5, 2728, Note_on_c, 3, 50, 85
5, 2746, Note_off_c, 3, 50, 64
5, 2751, Note_on_c, 3, 50, 87
5, 2770, Note_off_c, 3, 50, 64
5, 2785, Note_on_c, 3, 50, 68
5, 2801, Note_off_c, 3, 50, 64
5, 2820, Note_on_c, 3, 50, 91
5, 2852, Note_off_c, 3, 50, 64
5, 2876, Note_on_c, 3, 50, 89
5, 2912, Note_off_c, 3, 50, 64
5, 3037, Note_on_c, 3, 50, 98
5, 3059, Note_off_c, 3, 50, 64
5, 3098, Note_on_c, 3, 50, 98
5, 3118, Note_off_c, 3, 50, 64
5, 3166, Note_on_c, 3, 50, 98
5, 3186, Note_off_c, 3, 50, 64
5, 3232, Note_on_c, 3, 50, 100
5, 3254, Note_off_c, 3, 50, 64
5, 3295, Note_on_c, 3, 50, 105
5, 3317, Note_off_c, 3, 50, 64
5, 3364, Note_on_c, 3, 45, 105
5, 3409, Note_off_c, 3, 45, 64
5, 3535, Note_on_c, 3, 45, 98
5, 3553, Note_off_c, 3, 45, 64
5, 3598, Note_on_c, 3, 45, 110
5, 3657, Note_off_c, 3, 45, 64
5, 3781, Note_on_c, 3, 45, 100
5, 3806, Note_off_c, 3, 45, 64
5, 3839, Note_on_c, 3, 50, 105
5, 3859, Note_off_c, 3, 50, 64
5, 3871, Note_on_c, 3, 50, 116
5, 3886, Note_off_c, 3, 50, 64
5, 3892, Note_on_c, 3, 50, 102
5, 3909, Note_off_c, 3, 50, 64
5, 3925, Note_on_c, 3, 50, 102
5, 3937, Note_off_c, 3, 50, 64
5, 3947, Note_on_c, 3, 50, 85
5, 3962, Note_off_c, 3, 50, 64
5, 3980, Note_on_c, 3, 50, 91
5, 3991, Note_off_c, 3, 50, 64
5, 3998, Note_on_c, 3, 50, 100
5, 4015, Note_off_c, 3, 50, 64
5, 4032, Note_on_c, 3, 50, 89
5, 4046, Note_off_c, 3, 50, 64
5, 4053, Note_on_c, 3, 50, 100
5, 4069, Note_off_c, 3, 50, 64
5, 4085, Note_on_c, 3, 50, 91
5, 4103, Note_off_c, 3, 50, 64
5, 4109, Note_on_c, 3, 50, 98
5, 4125, Note_off_c, 3, 50, 64
5, 4138, Note_on_c, 3, 50, 91
5, 4154, Note_off_c, 3, 50, 64
5, 4164, Note_on_c, 3, 50, 80
5, 4179, Note_off_c, 3, 50, 64
5, 4190, Note_on_c, 3, 50, 85
5, 4202, Note_off_c, 3, 50, 64
5, 4214, Note_on_c, 3, 50, 87
5, 4229, Note_off_c, 3, 50, 64
5, 4242, Note_on_c, 3, 50, 80
5, 4255, Note_off_c, 3, 50, 64
5, 4263, Note_on_c, 3, 50, 78
5, 4278, Note_off_c, 3, 50, 64
5, 4296, Note_on_c, 3, 50, 87
5, 4310, Note_off_c, 3, 50, 64
5, 4317, Note_on_c, 3, 50, 64
5, 4330, Note_off_c, 3, 50, 64
5, 4346, Note_on_c, 3, 50, 91
5, 4362, Note_off_c, 3, 50, 64
5, 4369, Note_on_c, 3, 50, 63
5, 4382, Note_off_c, 3, 50, 64
5, 4394, Note_on_c, 3, 50, 78
5, 4411, Note_off_c, 3, 50, 64
5, 4419, Note_on_c, 3, 50, 80
5, 4436, Note_off_c, 3, 50, 64
5, 4449, Note_on_c, 3, 50, 70
5, 4464, Note_off_c, 3, 50, 64
5, 4476, Note_on_c, 3, 50, 66
5, 4491, Note_off_c, 3, 50, 64
5, 4504, Note_on_c, 3, 50, 87
5, 4522, Note_off_c, 3, 50, 64
5, 4529, Note_on_c, 3, 50, 78
5, 4547, Note_off_c, 3, 50, 64
5, 4559, Note_on_c, 3, 50, 82
5, 4575, Note_off_c, 3, 50, 64
5, 4590, Note_on_c, 3, 50, 52
5, 4603, Note_off_c, 3, 50, 64
5, 4613, Note_on_c, 3, 50, 82
5, 4631, Note_off_c, 3, 50, 64
5, 4648, Note_on_c, 3, 50, 62
5, 4663, Note_off_c, 3, 50, 64
5, 4669, Note_on_c, 3, 50, 100
5, 4689, Note_off_c, 3, 50, 64
5, 4704, Note_on_c, 3, 50, 80
5, 4737, Note_off_c, 3, 50, 64
5, 4758, Note_on_c, 3, 50, 66
5, 4779, Note_off_c, 3, 50, 64
5, 4804, Note_on_c, 3, 50, 102
5, 4833, Note_off_c, 3, 50, 64
5, 4909, Note_on_c, 3, 50, 102
5, 4926, Note_off_c, 3, 50, 64
5, 4944, Note_on_c, 3, 50, 100
5, 4966, Note_off_c, 3, 50, 64
5, 4972, Note_on_c, 3, 50, 89
5, 4992, Note_off_c, 3, 50, 64
5, 5027, Note_on_c, 3, 50, 107
5, 5059, Note_off_c, 3, 50, 64
5, 5214, Note_on_c, 3, 50, 105
5, 5237, Note_off_c, 3, 50, 64
5, 5277, Note_on_c, 3, 50, 107
5, 5318, Note_off_c, 3, 50, 64
5, 23994, Note_on_c, 3, 50, 102
5, 24014, Note_off_c, 3, 50, 64
5, 24020, Note_on_c, 3, 50, 105
5, 24037, Note_off_c, 3, 50, 64
5, 24043, Note_on_c, 3, 50, 93
5, 24064, Note_off_c, 3, 50, 64
5, 24071, Note_on_c, 3, 50, 68
5, 24088, Note_off_c, 3, 50, 64
5, 24093, Note_on_c, 3, 50, 72
5, 24110, Note_off_c, 3, 50, 64
5, 24125, Note_on_c, 3, 50, 80
5, 24142, Note_off_c, 3, 50, 64
5, 24149, Note_on_c, 3, 50, 68
5, 24162, Note_off_c, 3, 50, 64
5, 24180, Note_on_c, 3, 50, 95
5, 24195, Note_off_c, 3, 50, 64
5, 24202, Note_on_c, 3, 50, 87
5, 24217, Note_off_c, 3, 50, 64
5, 24230, Note_on_c, 3, 50, 98
5, 24249, Note_off_c, 3, 50, 64
5, 24258, Note_on_c, 3, 50, 63
5, 24269, Note_off_c, 3, 50, 64
5, 24284, Note_on_c, 3, 50, 85
5, 24299, Note_off_c, 3, 50, 64
5, 24306, Note_on_c, 3, 50, 95
5, 24323, Note_off_c, 3, 50, 64
5, 24336, Note_on_c, 3, 50, 76
5, 24351, Note_off_c, 3, 50, 64
5, 24364, Note_on_c, 3, 50, 89
5, 24380, Note_off_c, 3, 50, 64
5, 24389, Note_on_c, 3, 50, 98
5, 24407, Note_off_c, 3, 50, 64
5, 24423, Note_on_c, 3, 50, 80
5, 24435, Note_off_c, 3, 50, 64
5, 24443, Note_on_c, 3, 50, 102
5, 24455, Note_off_c, 3, 50, 64
5, 24477, Note_on_c, 3, 50, 80
5, 24486, Note_off_c, 3, 50, 64
5, 24492, Note_on_c, 3, 50, 105
5, 24508, Note_off_c, 3, 50, 64
5, 24526, Note_on_c, 3, 50, 85
5, 24538, Note_off_c, 3, 50, 64
5, 24549, Note_on_c, 3, 50, 85
5, 24562, Note_off_c, 3, 50, 64
5, 24575, Note_on_c, 3, 50, 68
5, 24587, Note_off_c, 3, 50, 64
5, 24603, Note_on_c, 3, 50, 87
5, 24614, Note_off_c, 3, 50, 64
5, 24626, Note_on_c, 3, 50, 76
5, 24637, Note_off_c, 3, 50, 64
5, 24651, Note_on_c, 3, 50, 93
5, 24663, Note_off_c, 3, 50, 64
5, 24677, Note_on_c, 3, 50, 64
5, 24688, Note_off_c, 3, 50, 64
5, 24702, Note_on_c, 3, 50, 66
5, 24713, Note_off_c, 3, 50, 64
5, 24726, Note_on_c, 3, 50, 80
5, 24739, Note_off_c, 3, 50, 64
5, 24751, Note_on_c, 3, 50, 85
5, 24765, Note_off_c, 3, 50, 64
5, 24779, Note_on_c, 3, 50, 64
5, 24790, Note_off_c, 3, 50, 64
5, 24804, Note_on_c, 3, 50, 98
5, 24818, Note_off_c, 3, 50, 64
5, 24831, Note_on_c, 3, 50, 87
5, 24847, Note_off_c, 3, 50, 64
5, 24853, Note_on_c, 3, 50, 100
5, 24868, Note_off_c, 3, 50, 64
5, 24887, Note_on_c, 3, 50, 78
5, 24900, Note_off_c, 3, 50, 64
5, 24909, Note_on_c, 3, 50, 41
5, 24918, Note_off_c, 3, 50, 64
5, 24938, Note_on_c, 3, 50, 63
5, 24950, Note_off_c, 3, 50, 64
5, 24956, Note_on_c, 3, 50, 100
5, 24973, Note_off_c, 3, 50, 64
5, 24987, Note_on_c, 3, 50, 80
5, 24999, Note_off_c, 3, 50, 64
5, 25013, Note_on_c, 3, 50, 100
5, 25027, Note_off_c, 3, 50, 64
5, 25038, Note_on_c, 3, 50, 64
5, 25049, Note_off_c, 3, 50, 64
5, 25064, Note_on_c, 3, 50, 82
5, 25079, Note_off_c, 3, 50, 64
5, 25084, Note_on_c, 3, 50, 89
5, 25099, Note_off_c, 3, 50, 64
5, 25113, Note_on_c, 3, 50, 85
5, 25125, Note_off_c, 3, 50, 64
5, 25136, Note_on_c, 3, 50, 63
5, 25148, Note_off_c, 3, 50, 64
5, 25163, Note_on_c, 3, 50, 89
5, 25175, Note_off_c, 3, 50, 64
5, 25189, Note_on_c, 3, 50, 80
5, 25202, Note_off_c, 3, 50, 64
5, 25212, Note_on_c, 3, 50, 82
5, 25224, Note_off_c, 3, 50, 64
5, 25243, Note_on_c, 3, 50, 68
5, 25254, Note_off_c, 3, 50, 64
5, 25263, Note_on_c, 3, 50, 91
5, 25279, Note_off_c, 3, 50, 64
5, 25292, Note_on_c, 3, 50, 78
5, 25305, Note_off_c, 3, 50, 64
5, 25315, Note_on_c, 3, 50, 80
5, 25328, Note_off_c, 3, 50, 64
5, 25344, Note_on_c, 3, 50, 66
5, 25355, Note_off_c, 3, 50, 64
5, 25364, Note_on_c, 3, 50, 93
5, 25377, Note_off_c, 3, 50, 64
5, 25395, Note_on_c, 3, 50, 63
5, 25407, Note_off_c, 3, 50, 64
5, 25412, Note_on_c, 3, 50, 70
5, 25424, Note_off_c, 3, 50, 64
5, 25449, Note_on_c, 3, 50, 80
5, 25475, Note_off_c, 3, 50, 64
5, 25505, Note_on_c, 3, 50, 80
5, 25533, Note_off_c, 3, 50, 64
5, 25555, Note_on_c, 3, 50, 78
5, 25571, Note_off_c, 3, 50, 64
5, 25578, Note_on_c, 3, 50, 102
5, 25594, Note_off_c, 3, 50, 64
5, 25608, Note_on_c, 3, 50, 78
5, 25623, Note_off_c, 3, 50, 64
5, 25635, Note_on_c, 3, 50, 78
5, 25648, Note_off_c, 3, 50, 64
5, 25660, Note_on_c, 3, 50, 66
5, 25673, Note_off_c, 3, 50, 64
5, 25686, Note_on_c, 3, 50, 89
5, 25700, Note_off_c, 3, 50, 64
5, 25713, Note_on_c, 3, 50, 64
5, 25727, Note_off_c, 3, 50, 64
5, 25737, Note_on_c, 3, 50, 80
5, 25751, Note_off_c, 3, 50, 64
5, 25768, Note_on_c, 3, 50, 85
5, 25786, Note_off_c, 3, 50, 64
5, 25791, Note_on_c, 3, 50, 87
5, 25810, Note_off_c, 3, 50, 64
5, 25825, Note_on_c, 3, 50, 68
5, 25841, Note_off_c, 3, 50, 64
5, 25860, Note_on_c, 3, 50, 91
5, 25892, Note_off_c, 3, 50, 64
5, 25916, Note_on_c, 3, 50, 89
5, 25952, Note_off_c, 3, 50, 64
5, 26077, Note_on_c, 3, 50, 98
5, 26099, Note_off_c, 3, 50, 64
5, 26138, Note_on_c, 3, 50, 98
5, 26158, Note_off_c, 3, 50, 64
5, 26206, Note_on_c, 3, 50, 98
5, 26226, Note_off_c, 3, 50, 64
5, 26272, Note_on_c, 3, 50, 100
5, 26294, Note_off_c, 3, 50, 64
5, 26335, Note_on_c, 3, 50, 105
5, 26357, Note_off_c, 3, 50, 64
5, 26404, Note_on_c, 3, 45, 105
5, 26449, Note_off_c, 3, 45, 64
5, 26575, Note_on_c, 3, 45, 98
5, 26593, Note_off_c, 3, 45, 64
5, 26638, Note_on_c, 3, 45, 110
5, 26697, Note_off_c, 3, 45, 64
5, 26821, Note_on_c, 3, 45, 100
5, 26846, Note_off_c, 3, 45, 64
5, 26879, Note_on_c, 3, 50, 105
5, 26899, Note_off_c, 3, 50, 64
5, 26911, Note_on_c, 3, 50, 116
5, 26926, Note_off_c, 3, 50, 64
5, 26932, Note_on_c, 3, 50, 102
5, 26949, Note_off_c, 3, 50, 64
5, 26965, Note_on_c, 3, 50, 102
5, 26977, Note_off_c, 3, 50, 64
5, 26987, Note_on_c, 3, 50, 85
5, 27002, Note_off_c, 3, 50, 64
5, 27020, Note_on_c, 3, 50, 91
5, 27031, Note_off_c, 3, 50, 64
5, 27038, Note_on_c, 3, 50, 100
5, 27055, Note_off_c, 3, 50, 64
5, 27072, Note_on_c, 3, 50, 89
5, 27086, Note_off_c, 3, 50, 64
5, 27093, Note_on_c, 3, 50, 100
5, 27109, Note_off_c, 3, 50, 64
5, 27125, Note_on_c, 3, 50, 91
5, 27143, Note_off_c, 3, 50, 64
5, 27149, Note_on_c, 3, 50, 98
5, 27165, Note_off_c, 3, 50, 64
5, 27178, Note_on_c, 3, 50, 91
5, 27194, Note_off_c, 3, 50, 64
5, 27204, Note_on_c, 3, 50, 80
5, 27219, Note_off_c, 3, 50, 64
5, 27230, Note_on_c, 3, 50, 85
5, 27242, Note_off_c, 3, 50, 64
5, 27254, Note_on_c, 3, 50, 87
5, 27269, Note_off_c, 3, 50, 64
5, 27282, Note_on_c, 3, 50, 80
5, 27295, Note_off_c, 3, 50, 64
5, 27303, Note_on_c, 3, 50, 78
5, 27318, Note_off_c, 3, 50, 64
5, 27336, Note_on_c, 3, 50, 87
5, 27350, Note_off_c, 3, 50, 64
5, 27357, Note_on_c, 3, 50, 64
5, 27370, Note_off_c, 3, 50, 64
5, 27386, Note_on_c, 3, 50, 91
5, 27402, Note_off_c, 3, 50, 64
5, 27409, Note_on_c, 3, 50, 63
5, 27422, Note_off_c, 3, 50, 64
5, 27434, Note_on_c, 3, 50, 78
5, 27451, Note_off_c, 3, 50, 64
5, 27459, Note_on_c, 3, 50, 80
5, 27476, Note_off_c, 3, 50, 64
5, 27489, Note_on_c, 3, 50, 70
5, 27504, Note_off_c, 3, 50, 64
5, 27516, Note_on_c, 3, 50, 66
5, 27531, Note_off_c, 3, 50, 64
5, 27544, Note_on_c, 3, 50, 87
5, 27562, Note_off_c, 3, 50, 64
5, 27569, Note_on_c, 3, 50, 78
5, 27587, Note_off_c, 3, 50, 64
5, 27599, Note_on_c, 3, 50, 82
5, 27615, Note_off_c, 3, 50, 64
5, 27630, Note_on_c, 3, 50, 52
5, 27643, Note_off_c, 3, 50, 64
5, 27653, Note_on_c, 3, 50, 82
5, 27671, Note_off_c, 3, 50, 64
5, 27688, Note_on_c, 3, 50, 62
5, 27703, Note_off_c, 3, 50, 64
5, 27709, Note_on_c, 3, 50, 100
5, 27729, Note_off_c, 3, 50, 64
5, 27744, Note_on_c, 3, 50, 80
5, 27777, Note_off_c, 3, 50, 64
5, 27798, Note_on_c, 3, 50, 66
5, 27819, Note_off_c, 3, 50, 64
5, 27844, Note_on_c, 3, 50, 102
5, 27873, Note_off_c, 3, 50, 64
5, 27949, Note_on_c, 3, 50, 102
5, 27966, Note_off_c, 3, 50, 64
5, 27984, Note_on_c, 3, 50, 100
5, 28006, Note_off_c, 3, 50, 64
5, 28012, Note_on_c, 3, 50, 89
5, 28032, Note_off_c, 3, 50, 64
5, 28067, Note_on_c, 3, 50, 107
5, 28099, Note_off_c, 3, 50, 64
5, 28254, Note_on_c, 3, 50, 105
5, 28277, Note_off_c, 3, 50, 64
5, 28317, Note_on_c, 3, 50, 107
5, 28358, Note_off_c, 3, 50, 64
5, 52436, Note_on_c, 3, 50, 113
5, 52472, Note_off_c, 3, 50, 64
5, 52556, Note_on_c, 3, 50, 107
5, 52592, Note_off_c, 3, 50, 64
5, 52677, Note_on_c, 3, 50, 110
5, 52713, Note_off_c, 3, 50, 64
5, 52805, Note_on_c, 3, 50, 127
5, 52854, Note_off_c, 3, 50, 64
5, 53874, Note_on_c, 3, 50, 107
5, 53916, Note_off_c, 3, 50, 64
5, 53992, Note_on_c, 3, 50, 107
5, 54033, Note_off_c, 3, 50, 64
5, 54117, Note_on_c, 3, 50, 110
5, 54154, Note_off_c, 3, 50, 64
5, 54242, Note_on_c, 3, 45, 122
5, 54306, Note_off_c, 3, 45, 64
5, 57722, Note_on_c, 3, 50, 110
5, 57765, Note_off_c, 3, 50, 64
5, 57842, Note_on_c, 3, 50, 110
5, 57892, Note_off_c, 3, 50, 64
5, 57957, Note_on_c, 3, 50, 113
5, 57989, Note_off_c, 3, 50, 64
5, 58079, Note_on_c, 3, 50, 119
5, 58134, Note_off_c, 3, 50, 64
5, 58565, Note_on_c, 3, 45, 119
5, 58632, Note_off_c, 3, 45, 64
5, 59160, Note_on_c, 3, 45, 110
5, 59202, Note_off_c, 3, 45, 64
5, 59270, Note_on_c, 3, 50, 116
5, 59315, Note_off_c, 3, 50, 64
5, 59395, Note_on_c, 3, 50, 113
5, 59439, Note_off_c, 3, 50, 64
5, 59515, Note_on_c, 3, 45, 122
5, 59574, Note_off_c, 3, 45, 64
5, 60594, Note_on_c, 3, 45, 113
5, 60633, Note_off_c, 3, 45, 64
5, 60711, Note_on_c, 3, 45, 113
5, 60749, Note_off_c, 3, 45, 64
5, 60827, Note_on_c, 3, 45, 116
5, 60867, Note_off_c, 3, 45, 64
5, 60952, Note_on_c, 3, 50, 122
5, 61012, Note_off_c, 3, 50, 64
5, 61790, Note_on_c, 3, 45, 105
5, 61836, Note_off_c, 3, 45, 64
5, 61904, Note_on_c, 3, 50, 107
5, 61957, Note_off_c, 3, 50, 64
5, 62150, Note_on_c, 3, 50, 110
5, 62194, Note_off_c, 3, 50, 64
5, 62395, Note_on_c, 3, 45, 113
5, 62452, Note_off_c, 3, 45, 64
5, 62636, Note_on_c, 3, 45, 110
5, 62675, Note_off_c, 3, 45, 64
5, 62760, Note_on_c, 3, 45, 105
5, 62802, Note_off_c, 3, 45, 64
5, 62877, Note_on_c, 3, 50, 119
5, 62929, Note_off_c, 3, 50, 64
5, 63121, Note_on_c, 3, 45, 110
5, 63170, Note_off_c, 3, 45, 64
5, 63375, Note_on_c, 3, 50, 127
5, 63446, Note_off_c, 3, 50, 64
5, 79793, Note_on_c, 3, 45, 102
5, 79832, Note_off_c, 3, 45, 64
5, 79914, Note_on_c, 3, 45, 102
5, 79954, Note_off_c, 3, 45, 64
5, 80030, Note_on_c, 3, 45, 102
5, 80068, Note_off_c, 3, 45, 64
5, 80144, Note_on_c, 3, 50, 110
5, 80195, Note_off_c, 3, 50, 64
5, 83024, Note_on_c, 3, 45, 116
5, 83086, Note_off_c, 3, 45, 64
5, 88313, Note_on_c, 3, 50, 119
5, 88368, Note_off_c, 3, 50, 64
5, 108587, Note_on_c, 3, 45, 85
5, 108633, Note_off_c, 3, 45, 64
5, 108710, Note_on_c, 3, 45, 100
5, 108760, Note_off_c, 3, 45, 64
5, 108827, Note_on_c, 3, 45, 102
5, 108872, Note_off_c, 3, 45, 64
5, 108946, Note_on_c, 3, 45, 107
5, 108989, Note_off_c, 3, 45, 64
5, 109075, Note_on_c, 3, 45, 105
5, 109112, Note_off_c, 3, 45, 64
5, 109194, Note_on_c, 3, 45, 107
5, 109233, Note_off_c, 3, 45, 64
5, 109310, Note_on_c, 3, 45, 102
5, 109348, Note_off_c, 3, 45, 64
5, 109431, Note_on_c, 3, 45, 107
5, 109470, Note_off_c, 3, 45, 64
5, 109547, Note_on_c, 3, 45, 105
5, 109589, Note_off_c, 3, 45, 64
5, 109669, Note_on_c, 3, 45, 107
5, 109707, Note_off_c, 3, 45, 64
5, 109788, Note_on_c, 3, 45, 113
5, 109829, Note_off_c, 3, 45, 64
5, 109911, Note_on_c, 3, 50, 116
5, 109956, Note_off_c, 3, 50, 64
5, 110284, Note_on_c, 3, 50, 113
5, 110307, Note_off_c, 3, 50, 64
5, 110334, Note_on_c, 3, 50, 100
5, 110358, Note_off_c, 3, 50, 64
5, 110391, Note_on_c, 3, 50, 105
5, 110425, Note_off_c, 3, 50, 64
5, 110762, Note_on_c, 3, 50, 119
5, 110790, Note_off_c, 3, 50, 64
5, 110814, Note_on_c, 3, 50, 95
5, 110840, Note_off_c, 3, 50, 64
5, 110868, Note_on_c, 3, 50, 107
5, 110899, Note_off_c, 3, 50, 64
5, 110992, Note_on_c, 3, 50, 107
5, 111028, Note_off_c, 3, 50, 64
5, 111111, Note_on_c, 3, 50, 110
5, 111151, Note_off_c, 3, 50, 64
5, 111232, Note_on_c, 3, 50, 113
5, 111269, Note_off_c, 3, 50, 64
5, 111353, Note_on_c, 3, 50, 122
5, 111393, Note_off_c, 3, 50, 64
5, 114834, Note_on_c, 3, 50, 119
5, 114879, Note_off_c, 3, 50, 64
5, 114957, Note_on_c, 3, 50, 110
5, 114997, Note_off_c, 3, 50, 64
5, 115071, Note_on_c, 3, 50, 105
5, 115111, Note_off_c, 3, 50, 64
5, 115191, Note_on_c, 3, 50, 122
5, 115247, Note_off_c, 3, 50, 64
5, 116272, Note_on_c, 3, 50, 110
5, 116315, Note_off_c, 3, 50, 64
5, 116388, Note_on_c, 3, 50, 107
5, 116433, Note_off_c, 3, 50, 64
5, 116512, Note_on_c, 3, 50, 110
5, 116551, Note_off_c, 3, 50, 64
5, 116639, Note_on_c, 3, 45, 122
5, 116697, Note_off_c, 3, 45, 64
5, 120114, Note_on_c, 3, 50, 110
5, 120152, Note_off_c, 3, 50, 64
5, 120224, Note_on_c, 3, 50, 110
5, 120263, Note_off_c, 3, 50, 64
5, 120344, Note_on_c, 3, 50, 113
5, 120380, Note_off_c, 3, 50, 64
5, 120464, Note_on_c, 3, 50, 116
5, 120535, Note_off_c, 3, 50, 64
5, 120950, Note_on_c, 3, 45, 122
5, 121023, Note_off_c, 3, 45, 64
5, 121552, Note_on_c, 3, 45, 119
5, 121599, Note_off_c, 3, 45, 64
5, 121669, Note_on_c, 3, 50, 113
5, 121710, Note_off_c, 3, 50, 64
5, 121793, Note_on_c, 3, 50, 110
5, 121832, Note_off_c, 3, 50, 64
5, 121918, Note_on_c, 3, 45, 127
5, 121979, Note_off_c, 3, 45, 64
5, 122998, Note_on_c, 3, 45, 116
5, 123037, Note_off_c, 3, 45, 64
5, 123115, Note_on_c, 3, 45, 110
5, 123155, Note_off_c, 3, 45, 64
5, 123237, Note_on_c, 3, 45, 119
5, 123276, Note_off_c, 3, 45, 64
5, 123354, Note_on_c, 3, 50, 122
5, 123406, Note_off_c, 3, 50, 64
5, 124188, Note_on_c, 3, 45, 113
5, 124233, Note_off_c, 3, 45, 64
5, 124307, Note_on_c, 3, 50, 113
5, 124357, Note_off_c, 3, 50, 64
5, 124552, Note_on_c, 3, 50, 113
5, 124602, Note_off_c, 3, 50, 64
5, 124787, Note_on_c, 3, 45, 119
5, 124845, Note_off_c, 3, 45, 64
5, 125034, Note_on_c, 3, 45, 116
5, 125072, Note_off_c, 3, 45, 64
5, 125158, Note_on_c, 3, 45, 116
5, 125192, Note_off_c, 3, 45, 64
5, 125275, Note_on_c, 3, 50, 116
5, 125325, Note_off_c, 3, 50, 64
5, 125518, Note_on_c, 3, 45, 119
5, 125577, Note_off_c, 3, 45, 64
5, 138246, Note_on_c, 3, 45, 107
5, 138268, Note_off_c, 3, 45, 64
5, 138272, Note_on_c, 3, 45, 100
5, 138288, Note_off_c, 3, 45, 64
5, 138297, Note_on_c, 3, 45, 78
5, 138316, Note_off_c, 3, 45, 64
5, 138322, Note_on_c, 3, 45, 105
5, 138338, Note_off_c, 3, 45, 64
5, 138352, Note_on_c, 3, 45, 72
5, 138369, Note_off_c, 3, 45, 64
5, 138375, Note_on_c, 3, 45, 105
5, 138395, Note_off_c, 3, 45, 64
5, 138403, Note_on_c, 3, 45, 68
5, 138424, Note_off_c, 3, 45, 64
5, 138433, Note_on_c, 3, 45, 91
5, 138451, Note_off_c, 3, 45, 64
5, 138461, Note_on_c, 3, 45, 63
5, 138481, Note_off_c, 3, 45, 64
5, 138485, Note_on_c, 3, 45, 102
5, 138504, Note_off_c, 3, 45, 64
5, 138521, Note_on_c, 3, 45, 80
5, 138561, Note_off_c, 3, 45, 64
5, 138570, Note_on_c, 3, 45, 66
5, 138590, Note_off_c, 3, 45, 64
5, 138595, Note_on_c, 3, 45, 105
5, 138634, Note_off_c, 3, 45, 64
5, 138642, Note_on_c, 3, 45, 76
5, 138677, Note_off_c, 3, 45, 64
5, 138691, Note_on_c, 3, 45, 102
5, 138721, Note_off_c, 3, 45, 64
5, 138734, Note_on_c, 3, 45, 105
5, 138759, Note_off_c, 3, 45, 64
5, 138888, Note_on_c, 3, 45, 102
5, 138919, Note_off_c, 3, 45, 64
5, 138935, Note_on_c, 3, 45, 100
5, 138955, Note_off_c, 3, 45, 64
5, 138972, Note_on_c, 3, 50, 105
5, 139007, Note_off_c, 3, 50, 64
5, 139134, Note_on_c, 3, 45, 102
5, 139161, Note_off_c, 3, 45, 64
5, 139190, Note_on_c, 3, 50, 107
5, 139227, Note_off_c, 3, 50, 64
5, 139361, Note_on_c, 3, 45, 107
5, 139388, Note_off_c, 3, 45, 64
5, 139419, Note_on_c, 3, 50, 113
5, 139454, Note_off_c, 3, 50, 64
5, 139602, Note_on_c, 3, 50, 102
5, 139627, Note_off_c, 3, 50, 64
5, 139669, Note_on_c, 3, 45, 122
5, 139699, Note_off_c, 3, 45, 64
5, 139791, Note_on_c, 3, 45, 105
5, 139811, Note_off_c, 3, 45, 64
5, 139845, Note_on_c, 3, 45, 107
5, 139871, Note_off_c, 3, 45, 64
5, 139913, Note_on_c, 3, 45, 127
5, 139946, Note_off_c, 3, 45, 64
5, 140086, Note_on_c, 3, 45, 122
5, 140115, Note_off_c, 3, 45, 64
5, 140153, Note_on_c, 3, 50, 127
5, 140196, Note_off_c, 3, 50, 64
5, 170511, Note_on_c, 3, 45, 59
5, 170546, Note_off_c, 3, 45, 64
5, 170634, Note_on_c, 3, 45, 62
5, 170671, Note_off_c, 3, 45, 64
5, 170752, Note_on_c, 3, 45, 66
5, 170784, Note_off_c, 3, 45, 64
5, 170872, Note_on_c, 3, 50, 80
5, 170915, Note_off_c, 3, 50, 64
5, 192478, Note_on_c, 3, 45, 105
5, 192496, Note_off_c, 3, 45, 64
5, 192504, Note_on_c, 3, 45, 105
5, 192523, Note_off_c, 3, 45, 64
5, 192534, Note_on_c, 3, 45, 80
5, 192554, Note_off_c, 3, 45, 64
5, 192561, Note_on_c, 3, 45, 98
5, 192579, Note_off_c, 3, 45, 64
5, 192593, Note_on_c, 3, 45, 80
5, 192612, Note_off_c, 3, 45, 64
5, 192616, Note_on_c, 3, 45, 70
5, 192632, Note_off_c, 3, 45, 64
5, 192652, Note_on_c, 3, 45, 76
5, 192670, Note_off_c, 3, 45, 64
5, 192673, Note_on_c, 3, 45, 64
5, 192689, Note_off_c, 3, 45, 64
5, 192710, Note_on_c, 3, 45, 66
5, 192728, Note_off_c, 3, 45, 64
5, 192734, Note_on_c, 3, 45, 60
5, 192749, Note_off_c, 3, 45, 64
5, 192767, Note_on_c, 3, 45, 66
5, 192803, Note_off_c, 3, 45, 64
5, 192826, Note_on_c, 3, 45, 66
5, 192861, Note_off_c, 3, 45, 64
5, 192889, Note_on_c, 3, 45, 74
5, 192922, Note_off_c, 3, 45, 64
5, 192948, Note_on_c, 3, 45, 76
5, 192980, Note_off_c, 3, 45, 64
5, 193006, Note_on_c, 3, 45, 80
5, 193049, Note_off_c, 3, 45, 64
5, 193064, Note_on_c, 3, 45, 78
5, 193082, Note_off_c, 3, 45, 64
5, 193094, Note_on_c, 3, 45, 80
5, 193116, Note_off_c, 3, 45, 64
5, 193124, Note_on_c, 3, 45, 62
5, 193139, Note_off_c, 3, 45, 64
5, 193156, Note_on_c, 3, 45, 93
5, 193177, Note_off_c, 3, 45, 64
5, 193184, Note_on_c, 3, 45, 60
5, 193198, Note_off_c, 3, 45, 64
5, 193215, Note_on_c, 3, 45, 91
5, 193257, Note_off_c, 3, 45, 64
5, 193279, Note_on_c, 3, 45, 87
5, 193321, Note_off_c, 3, 45, 64
5, 193340, Note_on_c, 3, 45, 82
5, 193381, Note_off_c, 3, 45, 64
5, 193402, Note_on_c, 3, 45, 87
5, 193424, Note_off_c, 3, 45, 64
5, 193428, Note_on_c, 3, 45, 51
5, 193445, Note_off_c, 3, 45, 64
5, 193460, Note_on_c, 3, 45, 78
5, 193480, Note_off_c, 3, 45, 64
5, 193495, Note_on_c, 3, 45, 68
5, 193514, Note_off_c, 3, 45, 64
5, 193520, Note_on_c, 3, 45, 91
5, 193545, Note_off_c, 3, 45, 64
5, 193552, Note_on_c, 3, 45, 80
5, 193572, Note_off_c, 3, 45, 64
5, 193587, Note_on_c, 3, 45, 64
5, 193605, Note_off_c, 3, 45, 64
5, 193616, Note_on_c, 3, 45, 72
5, 193635, Note_off_c, 3, 45, 64
5, 193649, Note_on_c, 3, 45, 74
5, 193667, Note_off_c, 3, 45, 64
5, 193679, Note_on_c, 3, 45, 70
5, 193696, Note_off_c, 3, 45, 64
5, 193710, Note_on_c, 3, 45, 80
5, 193728, Note_off_c, 3, 45, 64
5, 193739, Note_on_c, 3, 45, 72
5, 193758, Note_off_c, 3, 45, 64
5, 193773, Note_on_c, 3, 45, 80
5, 193792, Note_off_c, 3, 45, 64
5, 193802, Note_on_c, 3, 45, 68
5, 193819, Note_off_c, 3, 45, 64
5, 193835, Note_on_c, 3, 45, 91
5, 193857, Note_off_c, 3, 45, 64
5, 193866, Note_on_c, 3, 45, 62
5, 193882, Note_off_c, 3, 45, 64
5, 193901, Note_on_c, 3, 45, 85
5, 193943, Note_off_c, 3, 45, 64
5, 193967, Note_on_c, 3, 45, 85
5, 194006, Note_off_c, 3, 45, 64
5, 194029, Note_on_c, 3, 45, 85
5, 194052, Note_off_c, 3, 45, 64
5, 194061, Note_on_c, 3, 45, 70
5, 194077, Note_off_c, 3, 45, 64
5, 194094, Note_on_c, 3, 45, 85
5, 194118, Note_off_c, 3, 45, 64
5, 194129, Note_on_c, 3, 45, 57
5, 194144, Note_off_c, 3, 45, 64
5, 194162, Note_on_c, 3, 45, 80
5, 194182, Note_off_c, 3, 45, 64
5, 194192, Note_on_c, 3, 45, 64
5, 194212, Note_off_c, 3, 45, 64
5, 194224, Note_on_c, 3, 45, 66
5, 194248, Note_off_c, 3, 45, 64
5, 194257, Note_on_c, 3, 45, 48
5, 194269, Note_off_c, 3, 45, 64
5, 194288, Note_on_c, 3, 45, 82
5, 194326, Note_off_c, 3, 45, 64
5, 194342, Note_on_c, 3, 45, 87
5, 194370, Note_off_c, 3, 45, 64
5, 194395, Note_on_c, 3, 45, 102
5, 194417, Note_off_c, 3, 45, 64
5, 198836, Note_on_c, 3, 45, 95
5, 198879, Note_off_c, 3, 45, 64
5, 198948, Note_on_c, 3, 45, 98
5, 198992, Note_off_c, 3, 45, 64
5, 199064, Note_on_c, 3, 45, 91
5, 199100, Note_off_c, 3, 45, 64
5, 199191, Note_on_c, 3, 50, 102
5, 199218, Note_off_c, 3, 50, 64
5, 199223, Note_on_c, 3, 50, 85
5, 199243, Note_off_c, 3, 50, 64
5, 199256, Note_on_c, 3, 50, 80
5, 199280, Note_off_c, 3, 50, 64
5, 199290, Note_on_c, 3, 50, 98
5, 199306, Note_off_c, 3, 50, 64
5, 199319, Note_on_c, 3, 50, 63
5, 199338, Note_off_c, 3, 50, 64
5, 199353, Note_on_c, 3, 50, 105
5, 199375, Note_off_c, 3, 50, 64
5, 199389, Note_on_c, 3, 50, 58
5, 199403, Note_off_c, 3, 50, 64
5, 199419, Note_on_c, 3, 50, 85
5, 199462, Note_off_c, 3, 50, 64
5, 199479, Note_on_c, 3, 50, 89
5, 199499, Note_off_c, 3, 50, 64
5, 199509, Note_on_c, 3, 50, 55
5, 199526, Note_off_c, 3, 50, 64
5, 199543, Note_on_c, 3, 50, 80
5, 199560, Note_off_c, 3, 50, 64
5, 199569, Note_on_c, 3, 50, 66
5, 199591, Note_off_c, 3, 50, 64
5, 199603, Note_on_c, 3, 50, 82
5, 199624, Note_off_c, 3, 50, 64
5, 199637, Note_on_c, 3, 50, 57
5, 199655, Note_off_c, 3, 50, 64
5, 199664, Note_on_c, 3, 50, 91
5, 199688, Note_off_c, 3, 50, 64
5, 199698, Note_on_c, 3, 50, 72
5, 199721, Note_off_c, 3, 50, 64
5, 199730, Note_on_c, 3, 50, 98
5, 199753, Note_off_c, 3, 50, 64
5, 199761, Note_on_c, 3, 50, 91
5, 199783, Note_off_c, 3, 50, 64
5, 199793, Note_on_c, 3, 50, 95
5, 199814, Note_off_c, 3, 50, 64
5, 199822, Note_on_c, 3, 50, 85
5, 199843, Note_off_c, 3, 50, 64
5, 199856, Note_on_c, 3, 50, 78
5, 199874, Note_off_c, 3, 50, 64
5, 199888, Note_on_c, 3, 50, 74
5, 199910, Note_off_c, 3, 50, 64
5, 199918, Note_on_c, 3, 50, 91
5, 199941, Note_off_c, 3, 50, 64
5, 199952, Note_on_c, 3, 50, 72
5, 199970, Note_off_c, 3, 50, 64
5, 199980, Note_on_c, 3, 50, 93
5, 200001, Note_off_c, 3, 50, 64
5, 200012, Note_on_c, 3, 50, 78
5, 200030, Note_off_c, 3, 50, 64
5, 200041, Note_on_c, 3, 50, 93
5, 200060, Note_off_c, 3, 50, 64
5, 200075, Note_on_c, 3, 50, 80
5, 200096, Note_off_c, 3, 50, 64
5, 200102, Note_on_c, 3, 50, 59
5, 200120, Note_off_c, 3, 50, 64
5, 200140, Note_on_c, 3, 50, 82
5, 200157, Note_off_c, 3, 50, 64
5, 200165, Note_on_c, 3, 50, 98
5, 200187, Note_off_c, 3, 50, 64
5, 200201, Note_on_c, 3, 50, 76
5, 200220, Note_off_c, 3, 50, 64
5, 200230, Note_on_c, 3, 50, 100
5, 200253, Note_off_c, 3, 50, 64
5, 200268, Note_on_c, 3, 50, 72
5, 200285, Note_off_c, 3, 50, 64
5, 200295, Note_on_c, 3, 50, 93
5, 200317, Note_off_c, 3, 50, 64
5, 200327, Note_on_c, 3, 50, 80
5, 200350, Note_off_c, 3, 50, 64
5, 200363, Note_on_c, 3, 50, 82
5, 200413, Note_off_c, 3, 50, 64
5, 200429, Note_on_c, 3, 50, 95
5, 200469, Note_off_c, 3, 50, 64
5, 200489, Note_on_c, 3, 50, 85
5, 200528, Note_off_c, 3, 50, 64
5, 200549, Note_on_c, 3, 50, 102
5, 200576, Note_off_c, 3, 50, 64
5, 200611, Note_on_c, 3, 50, 102
5, 200639, Note_off_c, 3, 50, 64
5, 219859, Note_on_c, 3, 50, 113
5, 219879, Note_off_c, 3, 50, 64
5, 219880, Note_on_c, 3, 50, 102
5, 219897, Note_off_c, 3, 50, 64
5, 219903, Note_on_c, 3, 50, 95
5, 219926, Note_off_c, 3, 50, 64
5, 219928, Note_on_c, 3, 50, 93
5, 219944, Note_off_c, 3, 50, 64
5, 219952, Note_on_c, 3, 50, 85
5, 219989, Note_off_c, 3, 50, 64
5, 220002, Note_on_c, 3, 50, 72
5, 220017, Note_off_c, 3, 50, 64
5, 220022, Note_on_c, 3, 50, 66
5, 220034, Note_off_c, 3, 50, 64
5, 220054, Note_on_c, 3, 50, 58
5, 220068, Note_off_c, 3, 50, 64
5, 220071, Note_on_c, 3, 50, 78
5, 220085, Note_off_c, 3, 50, 64
5, 220104, Note_on_c, 3, 50, 66
5, 220138, Note_off_c, 3, 50, 64
5, 220151, Note_on_c, 3, 50, 66
5, 220169, Note_off_c, 3, 50, 64
5, 220175, Note_on_c, 3, 50, 59
5, 220184, Note_off_c, 3, 50, 64
5, 220200, Note_on_c, 3, 50, 76
5, 220231, Note_off_c, 3, 50, 64
5, 220248, Note_on_c, 3, 50, 76
5, 220280, Note_off_c, 3, 50, 64
5, 220299, Note_on_c, 3, 50, 80
5, 220333, Note_off_c, 3, 50, 64
5, 220348, Note_on_c, 3, 50, 82
5, 220366, Note_off_c, 3, 50, 64
5, 220372, Note_on_c, 3, 50, 98
5, 220386, Note_off_c, 3, 50, 64
5, 220399, Note_on_c, 3, 50, 78
5, 220416, Note_off_c, 3, 50, 64
5, 220422, Note_on_c, 3, 50, 93
5, 220436, Note_off_c, 3, 50, 64
5, 220451, Note_on_c, 3, 50, 82
5, 220466, Note_off_c, 3, 50, 64
5, 220475, Note_on_c, 3, 50, 87
5, 220488, Note_off_c, 3, 50, 64
5, 220500, Note_on_c, 3, 50, 80
5, 220516, Note_off_c, 3, 50, 64
5, 220523, Note_on_c, 3, 50, 95
5, 220539, Note_off_c, 3, 50, 64
5, 220546, Note_on_c, 3, 50, 85
5, 220563, Note_off_c, 3, 50, 64
5, 220573, Note_on_c, 3, 50, 91
5, 220586, Note_off_c, 3, 50, 64
5, 220599, Note_on_c, 3, 50, 82
5, 220615, Note_off_c, 3, 50, 64
5, 220622, Note_on_c, 3, 50, 70
5, 220633, Note_off_c, 3, 50, 64
5, 220649, Note_on_c, 3, 50, 78
5, 220682, Note_off_c, 3, 50, 64
5, 220701, Note_on_c, 3, 50, 68
5, 220718, Note_off_c, 3, 50, 64
5, 220725, Note_on_c, 3, 50, 72
5, 220739, Note_off_c, 3, 50, 64
5, 220755, Note_on_c, 3, 50, 78
5, 220772, Note_off_c, 3, 50, 64
5, 220778, Note_on_c, 3, 50, 100
5, 220790, Note_off_c, 3, 50, 64
5, 220804, Note_on_c, 3, 50, 87
5, 220822, Note_off_c, 3, 50, 64
5, 220828, Note_on_c, 3, 50, 100
5, 220841, Note_off_c, 3, 50, 64
5, 220855, Note_on_c, 3, 50, 82
5, 220874, Note_off_c, 3, 50, 64
5, 220875, Note_on_c, 3, 50, 78
5, 220889, Note_off_c, 3, 50, 64
5, 220910, Note_on_c, 3, 50, 80
5, 220942, Note_off_c, 3, 50, 64
5, 220961, Note_on_c, 3, 50, 78
5, 220995, Note_off_c, 3, 50, 64
5, 221013, Note_on_c, 3, 50, 72
5, 221030, Note_off_c, 3, 50, 64
5, 221034, Note_on_c, 3, 50, 100
5, 221050, Note_off_c, 3, 50, 64
5, 221065, Note_on_c, 3, 50, 74
5, 221082, Note_off_c, 3, 50, 64
5, 221089, Note_on_c, 3, 50, 102
5, 221107, Note_off_c, 3, 50, 64
5, 221118, Note_on_c, 3, 50, 63
5, 221135, Note_off_c, 3, 50, 64
5, 221143, Note_on_c, 3, 50, 95
5, 221159, Note_off_c, 3, 50, 64
5, 221174, Note_on_c, 3, 50, 63
5, 221190, Note_off_c, 3, 50, 64
5, 221195, Note_on_c, 3, 50, 64
5, 221208, Note_off_c, 3, 50, 64
5, 221228, Note_on_c, 3, 50, 70
5, 221258, Note_off_c, 3, 50, 64
5, 221281, Note_on_c, 3, 50, 72
5, 221313, Note_off_c, 3, 50, 64
5, 221333, Note_on_c, 3, 50, 68
5, 221350, Note_off_c, 3, 50, 64
5, 221357, Note_on_c, 3, 50, 66
5, 221371, Note_off_c, 3, 50, 64
5, 221385, Note_on_c, 3, 50, 82
5, 221403, Note_off_c, 3, 50, 64
5, 221414, Note_on_c, 3, 50, 85
5, 221433, Note_off_c, 3, 50, 64
5, 221443, Note_on_c, 3, 50, 64
5, 221460, Note_off_c, 3, 50, 64
5, 221471, Note_on_c, 3, 50, 102
5, 221492, Note_off_c, 3, 50, 64
5, 221500, Note_on_c, 3, 50, 61
5, 221516, Note_off_c, 3, 50, 64
5, 221528, Note_on_c, 3, 50, 95
5, 221569, Note_off_c, 3, 50, 64
5, 221582, Note_on_c, 3, 50, 93
5, 221602, Note_off_c, 3, 50, 64
5, 221609, Note_on_c, 3, 50, 49
5, 221624, Note_off_c, 3, 50, 64
5, 221635, Note_on_c, 3, 50, 85
5, 221654, Note_off_c, 3, 50, 64
5, 221662, Note_on_c, 3, 50, 70
5, 221680, Note_off_c, 3, 50, 64
5, 221685, Note_on_c, 3, 50, 74
5, 221704, Note_off_c, 3, 50, 64
5, 221712, Note_on_c, 3, 50, 57
5, 221746, Note_off_c, 3, 50, 64
5, 221765, Note_on_c, 3, 50, 82
5, 221790, Note_off_c, 3, 50, 64
5, 221993, Note_on_c, 3, 50, 105
5, 222020, Note_off_c, 3, 50, 64
5, 222051, Note_on_c, 3, 50, 102
5, 222079, Note_off_c, 3, 50, 64
5, 222112, Note_on_c, 3, 50, 105
5, 222138, Note_off_c, 3, 50, 64
5, 222174, Note_on_c, 3, 50, 102
5, 222199, Note_off_c, 3, 50, 64
5, 222242, Note_on_c, 3, 50, 110
5, 222278, Note_off_c, 3, 50, 64
5, 222411, Note_on_c, 3, 50, 102
5, 222437, Note_off_c, 3, 50, 64
5, 222480, Note_on_c, 3, 50, 107
5, 222515, Note_off_c, 3, 50, 64
5, 222656, Note_on_c, 3, 50, 105
5, 222682, Note_off_c, 3, 50, 64
5, 222727, Note_on_c, 3, 50, 119
5, 222774, Note_off_c, 3, 50, 64
5, 230399, Note_on_c, 3, 50, 105
5, 230415, Note_off_c, 3, 50, 64
5, 230427, Note_on_c, 3, 50, 107
5, 230443, Note_off_c, 3, 50, 64
5, 230450, Note_on_c, 3, 50, 87
5, 230466, Note_off_c, 3, 50, 64
5, 230474, Note_on_c, 3, 50, 98
5, 230488, Note_off_c, 3, 50, 64
5, 230497, Note_on_c, 3, 50, 87
5, 230515, Note_off_c, 3, 50, 64
5, 230519, Note_on_c, 3, 50, 66
5, 230532, Note_off_c, 3, 50, 64
5, 230547, Note_on_c, 3, 50, 85
5, 230581, Note_off_c, 3, 50, 64
5, 230595, Note_on_c, 3, 50, 85
5, 230630, Note_off_c, 3, 50, 64
5, 230649, Note_on_c, 3, 50, 87
5, 230674, Note_off_c, 3, 50, 64
5, 230700, Note_on_c, 3, 50, 89
5, 230723, Note_off_c, 3, 50, 64
5, 230750, Note_on_c, 3, 50, 87
5, 230782, Note_off_c, 3, 50, 64
5, 230799, Note_on_c, 3, 50, 85
5, 230816, Note_off_c, 3, 50, 64
5, 230822, Note_on_c, 3, 50, 107
5, 230835, Note_off_c, 3, 50, 64
5, 230851, Note_on_c, 3, 50, 82
5, 230867, Note_off_c, 3, 50, 64
5, 230872, Note_on_c, 3, 50, 105
5, 230887, Note_off_c, 3, 50, 64
5, 230905, Note_on_c, 3, 50, 78
5, 230920, Note_off_c, 3, 50, 64
5, 230926, Note_on_c, 3, 50, 105
5, 230942, Note_off_c, 3, 50, 64
5, 230961, Note_on_c, 3, 50, 82
5, 230994, Note_off_c, 3, 50, 64
5, 231010, Note_on_c, 3, 50, 80
5, 231027, Note_off_c, 3, 50, 64
5, 231029, Note_on_c, 3, 50, 70
5, 231044, Note_off_c, 3, 50, 64
5, 231061, Note_on_c, 3, 50, 80
5, 231077, Note_off_c, 3, 50, 64
5, 231082, Note_on_c, 3, 50, 102
5, 231100, Note_off_c, 3, 50, 64
5, 231115, Note_on_c, 3, 50, 78
5, 231130, Note_off_c, 3, 50, 64
5, 231138, Note_on_c, 3, 50, 102
5, 231154, Note_off_c, 3, 50, 64
5, 231171, Note_on_c, 3, 50, 80
5, 231187, Note_off_c, 3, 50, 64
5, 231193, Note_on_c, 3, 50, 72
5, 231208, Note_off_c, 3, 50, 64
5, 231224, Note_on_c, 3, 50, 76
5, 231239, Note_off_c, 3, 50, 64
5, 231244, Note_on_c, 3, 50, 63
5, 231257, Note_off_c, 3, 50, 64
5, 231273, Note_on_c, 3, 50, 78
5, 231300, Note_off_c, 3, 50, 64
5, 231334, Note_on_c, 3, 50, 100
5, 231356, Note_off_c, 3, 50, 64
5, 231373, Note_on_c, 3, 50, 98
5, 231392, Note_off_c, 3, 50, 64
5, 231541, Note_on_c, 3, 50, 98
5, 231554, Note_off_c, 3, 50, 64
5, 231558, Note_on_c, 3, 50, 51
5, 231568, Note_off_c, 3, 50, 64
5, 231583, Note_on_c, 3, 50, 110
5, 231602, Note_off_c, 3, 50, 64
5, 231612, Note_on_c, 3, 50, 110
5, 231631, Note_off_c, 3, 50, 64
5, 231774, Note_on_c, 3, 50, 105
5, 231796, Note_off_c, 3, 50, 64
5, 231836, Note_on_c, 3, 50, 107
5, 231870, Note_off_c, 3, 50, 64
5, 231870, End_track
6, 0, Start_track
6, 0, Title_t, "Oboe"
6, 0, Program_c, 4, 68
6, 0, Control_c, 4, 7, 100
6, 947, Note_on_c, 4, 62, 82
6, 1220, Note_off_c, 4, 62, 64
6, 1243, Note_on_c, 4, 66, 74
6, 1281, Note_off_c, 4, 66, 64
6, 1304, Note_on_c, 4, 64, 72
6, 1340, Note_off_c, 4, 64, 64
6, 1364, Note_on_c, 4, 62, 82
6, 1399, Note_off_c, 4, 62, 64
6, 1433, Note_on_c, 4, 71, 85
6, 1704, Note_off_c, 4, 71, 64
6, 1739, Note_on_c, 4, 74, 89
6, 1769, Note_off_c, 4, 74, 64
6, 1796, Note_on_c, 4, 73, 82
6, 1833, Note_off_c, 4, 73, 64
6, 1848, Note_on_c, 4, 71, 82
6, 1902, Note_off_c, 4, 71, 64
6, 1919, Note_on_c, 4, 79, 85
6, 2176, Note_off_c, 4, 79, 64
6, 2217, Note_on_c, 4, 76, 87
6, 2252, Note_off_c, 4, 76, 64
6, 2272, Note_on_c, 4, 78, 93
6, 2305, Note_off_c, 4, 78, 64
6, 2329, Note_on_c, 4, 79, 87
6, 2369, Note_off_c, 4, 79, 64
6, 2393, Note_on_c, 4, 73, 72
6, 2662, Note_off_c, 4, 73, 64
6, 2693, Note_on_c, 4, 69, 82
6, 2730, Note_off_c, 4, 69, 64
6, 2747, Note_on_c, 4, 71, 87
6, 2782, Note_off_c, 4, 71, 64
6, 2806, Note_on_c, 4, 73, 87
6, 2843, Note_off_c, 4, 73, 64
6, 2873, Note_on_c, 4, 64, 87
6, 3238, Note_off_c, 4, 64, 64
6, 3300, Note_on_c, 4, 64, 89
6, 3343, Note_off_c, 4, 64, 64
6, 3357, Note_on_c, 4, 76, 93
6, 3450, Note_off_c, 4, 76, 64
6, 3524, Note_on_c, 4, 73, 72
6, 3564, Note_off_c, 4, 73, 64
6, 3587, Note_on_c, 4, 69, 87
6, 3678, Note_off_c, 4, 69, 64
6, 3770, Note_on_c, 4, 67, 80
6, 3812, Note_off_c, 4, 67, 64
6, 3830, Note_on_c, 4, 66, 91
6, 3921, Note_off_c, 4, 66, 64
6, 4007, Note_on_c, 4, 62, 85
6, 4056, Note_off_c, 4, 62, 64
6, 4069, Note_on_c, 4, 66, 80
6, 4156, Note_off_c, 4, 66, 64
6, 4247, Note_on_c, 4, 69, 80
6, 4285, Note_off_c, 4, 69, 64
6, 4307, Note_on_c, 4, 74, 91
6, 4398, Note_off_c, 4, 74, 64
6, 4487, Note_on_c, 4, 69, 85
6, 4529, Note_off_c, 4, 69, 64
6, 4548, Note_on_c, 4, 74, 89
6, 4634, Note_off_c, 4, 74, 64
6, 4725, Note_on_c, 4, 76, 85
6, 4765, Note_off_c, 4, 76, 64
6, 4787, Note_on_c, 4, 78, 98
6, 5048, Note_off_c, 4, 78, 64
6, 5076, Note_on_c, 4, 79, 82
6, 5114, Note_off_c, 4, 79, 64
6, 5138, Note_on_c, 4, 81, 82
6, 5173, Note_off_c, 4, 81, 64
6, 5196, Note_on_c, 4, 78, 93
6, 5240, Note_off_c, 4, 78, 64
6, 5261, Note_on_c, 4, 83, 87
6, 5543, Note_off_c, 4, 83, 64
6, 5572, Note_on_c, 4, 80, 82
6, 5605, Note_off_c, 4, 80, 64
6, 5632, Note_on_c, 4, 81, 78
6, 5665, Note_off_c, 4, 81, 64
6, 5685, Note_on_c, 4, 83, 87
6, 5718, Note_off_c, 4, 83, 64
6, 5746, Note_on_c, 4, 76, 82
6, 6021, Note_off_c, 4, 76, 64
6, 6052, Note_on_c, 4, 76, 80
6, 6092, Note_off_c, 4, 76, 64
6, 6115, Note_on_c, 4, 78, 70
6, 6151, Note_off_c, 4, 78, 64
6, 6170, Note_on_c, 4, 80, 87
6, 6203, Note_off_c, 4, 80, 64
6, 6230, Note_on_c, 4, 81, 80
6, 6326, Note_off_c, 4, 81, 64
6, 6410, Note_on_c, 4, 76, 82
6, 6448, Note_off_c, 4, 76, 64
6, 6470, Note_on_c, 4, 73, 66
6, 6568, Note_off_c, 4, 73, 64
6, 6654, Note_on_c, 4, 69, 80
6, 6692, Note_off_c, 4, 69, 64
6, 6716, Note_on_c, 4, 74, 87
6, 7069, Note_off_c, 4, 74, 64
6, 7131, Note_on_c, 4, 74, 95
6, 7160, Note_off_c, 4, 74, 64
6, 7189, Note_on_c, 4, 74, 87
6, 7330, Note_off_c, 4, 74, 64
6, 7366, Note_on_c, 4, 76, 64
6, 7391, Note_on_c, 4, 78, 82
6, 7396, Note_off_c, 4, 76, 64
6, 7418, Note_off_c, 4, 78, 64
6, 7430, Note_on_c, 4, 76, 85
6, 7533, Note_off_c, 4, 76, 64
6, 7611, Note_on_c, 4, 74, 82
6, 7651, Note_off_c, 4, 74, 64
6, 7668, Note_on_c, 4, 73, 85
6, 7775, Note_off_c, 4, 73, 64
6, 7848, Note_on_c, 4, 69, 80
6, 7890, Note_off_c, 4, 69, 64
6, 7908, Note_on_c, 4, 73, 68
6, 8010, Note_off_c, 4, 73, 64
6, 8088, Note_on_c, 4, 76, 85
6, 8127, Note_off_c, 4, 76, 64
6, 8150, Note_on_c, 4, 81, 95
6, 8299, Note_off_c, 4, 81, 64
6, 8330, Note_on_c, 4, 79, 68
6, 8358, Note_on_c, 4, 78, 89
6, 8368, Note_off_c, 4, 79, 64
6, 8385, Note_off_c, 4, 78, 64
6, 8398, Note_on_c, 4, 79, 98
6, 8492, Note_off_c, 4, 79, 64
6, 8572, Note_on_c, 4, 76, 85
6, 8614, Note_off_c, 4, 76, 64
6, 8634, Note_on_c, 4, 83, 80
6, 8980, Note_off_c, 4, 83, 64
6, 9041, Note_on_c, 4, 75, 80
6, 9079, Note_off_c, 4, 75, 64
6, 9103, Note_on_c, 4, 76, 89
6, 9228, Note_off_c, 4, 76, 64
6, 9285, Note_on_c, 4, 78, 82
6, 9323, Note_off_c, 4, 78, 64
6, 9345, Note_on_c, 4, 79, 76
6, 9388, Note_on_c, 4, 78, 60
6, 9395, Note_off_c, 4, 79, 64
6, 9413, Note_off_c, 4, 78, 64
6, 9414, Note_on_c, 4, 79, 72
6, 9438, Note_on_c, 4, 78, 82
6, 9441, Note_off_c, 4, 79, 64
6, 9461, Note_off_c, 4, 78, 64
6, 9461, Note_on_c, 4, 79, 66
6, 9479, Note_on_c, 4, 78, 74
6, 9494, Note_off_c, 4, 79, 64
6, 9508, Note_on_c, 4, 76, 85
6, 9516, Note_off_c, 4, 78, 64
6, 9541, Note_on_c, 4, 78, 85
6, 9556, Note_off_c, 4, 76, 64
6, 9575, Note_off_c, 4, 78, 64
6, 9588, Note_on_c, 4, 79, 82
6, 9840, Note_off_c, 4, 79, 64
6, 9873, Note_on_c, 4, 78, 63
6, 9914, Note_off_c, 4, 78, 64
6, 9937, Note_on_c, 4, 76, 74
6, 9987, Note_off_c, 4, 76, 64
6, 9999, Note_on_c, 4, 74, 82
6, 10037, Note_off_c, 4, 74, 64
6, 10060, Note_on_c, 4, 72, 85
6, 10155, Note_off_c, 4, 72, 64
6, 10249, Note_on_c, 4, 72, 85
6, 10289, Note_off_c, 4, 72, 64
6, 10310, Note_on_c, 4, 74, 85
6, 10393, Note_off_c, 4, 74, 64
6, 10490, Note_on_c, 4, 76, 87
6, 10526, Note_off_c, 4, 76, 64
6, 10553, Note_on_c, 4, 71, 91
6, 10671, Note_on_c, 4, 70, 68
6, 10680, Note_off_c, 4, 71, 64
6, 10881, Note_off_c, 4, 70, 64
6, 10975, Note_on_c, 4, 79, 89
6, 11009, Note_off_c, 4, 79, 64
6, 11030, Note_on_c, 4, 78, 102
6, 11127, Note_off_c, 4, 78, 64
6, 11207, Note_on_c, 4, 76, 82
6, 11251, Note_off_c, 4, 76, 64
6, 11269, Note_on_c, 4, 74, 80
6, 11357, Note_off_c, 4, 74, 64
6, 11455, Note_on_c, 4, 73, 63
6, 11496, Note_off_c, 4, 73, 64
6, 11512, Note_on_c, 4, 74, 82
6, 11613, Note_off_c, 4, 74, 64
6, 11691, Note_on_c, 4, 73, 63
6, 11735, Note_off_c, 4, 73, 64
6, 11751, Note_on_c, 4, 71, 78
6, 11852, Note_off_c, 4, 71, 64
6, 11926, Note_on_c, 4, 73, 66
6, 11970, Note_off_c, 4, 73, 64
6, 11992, Note_on_c, 4, 74, 85
6, 12056, Note_on_c, 4, 73, 63
6, 12063, Note_off_c, 4, 74, 64
6, 12088, Note_on_c, 4, 74, 70
6, 12092, Note_off_c, 4, 73, 64
6, 12120, Note_on_c, 4, 73, 54
6, 12122, Note_off_c, 4, 74, 64
6, 12141, Note_on_c, 4, 74, 70
6, 12142, Note_off_c, 4, 73, 64
6, 12164, Note_on_c, 4, 73, 56
6, 12165, Note_off_c, 4, 74, 64
6, 12182, Note_on_c, 4, 74, 78
6, 12183, Note_off_c, 4, 73, 64
6, 12201, Note_on_c, 4, 73, 70
6, 12205, Note_off_c, 4, 74, 64
6, 12224, Note_on_c, 4, 74, 85
6, 12227, Note_off_c, 4, 73, 64
6, 12242, Note_on_c, 4, 73, 74
6, 12251, Note_off_c, 4, 74, 64
6, 12356, Note_off_c, 4, 73, 64
6, 12406, Note_on_c, 4, 71, 85
6, 12438, Note_off_c, 4, 71, 64
6, 12469, Note_on_c, 4, 71, 87
6, 12726, Note_off_c, 4, 71, 64
6, 12775, Note_on_c, 4, 71, 87
6, 12805, Note_off_c, 4, 71, 64
6, 12829, Note_on_c, 4, 69, 80
6, 12870, Note_off_c, 4, 69, 64
6, 12883, Note_on_c, 4, 68, 85
6, 12925, Note_off_c, 4, 68, 64
6, 12947, Note_on_c, 4, 69, 87
6, 13040, Note_off_c, 4, 69, 64
6, 13125, Note_on_c, 4, 78, 78
6, 13165, Note_off_c, 4, 78, 64
6, 13189, Note_on_c, 4, 71, 85
6, 13279, Note_off_c, 4, 71, 64
6, 13370, Note_on_c, 4, 69, 82
6, 13410, Note_off_c, 4, 69, 64
6, 13431, Note_on_c, 4, 68, 87
6, 13528, Note_off_c, 4, 68, 64
6, 13608, Note_on_c, 4, 64, 85
6, 13652, Note_off_c, 4, 64, 64
6, 13675, Note_on_c, 4, 68, 87
6, 13766, Note_off_c, 4, 68, 64
6, 13852, Note_on_c, 4, 71, 72
6, 13893, Note_off_c, 4, 71, 64
6, 13918, Note_on_c, 4, 76, 85
6, 14262, Note_off_c, 4, 76, 64
6, 14328, Note_on_c, 4, 76, 85
6, 14362, Note_off_c, 4, 76, 64
6, 14391, Note_on_c, 4, 76, 89
6, 14637, Note_off_c, 4, 76, 64
6, 14691, Note_on_c, 4, 69, 85
6, 14737, Note_off_c, 4, 69, 64
6, 14752, Note_on_c, 4, 71, 85
6, 14791, Note_off_c, 4, 71, 64
6, 14812, Note_on_c, 4, 73, 85
6, 14848, Note_off_c, 4, 73, 64
6, 14867, Note_on_c, 4, 74, 78
6, 14909, Note_off_c, 4, 74, 64
6, 14926, Note_on_c, 4, 73, 91
6, 14966, Note_off_c, 4, 73, 64
6, 14985, Note_on_c, 4, 74, 80
6, 15033, Note_off_c, 4, 74, 64
6, 15046, Note_on_c, 4, 76, 89
6, 15090, Note_off_c, 4, 76, 64
6, 15106, Note_on_c, 4, 78, 98
6, 15160, Note_off_c, 4, 78, 64
6, 15168, Note_on_c, 4, 76, 87
6, 15215, Note_off_c, 4, 76, 64
6, 15229, Note_on_c, 4, 78, 87
6, 15273, Note_off_c, 4, 78, 64
6, 15290, Note_on_c, 4, 80, 102
6, 15331, Note_off_c, 4, 80, 64
6, 15348, Note_on_c, 4, 81, 89
6, 15409, Note_on_c, 4, 80, 59
6, 15416, Note_off_c, 4, 81, 64
6, 15504, Note_off_c, 4, 80, 64
6, 15583, Note_on_c, 4, 78, 91
6, 15653, Note_on_c, 4, 76, 63
6, 15657, Note_off_c, 4, 78, 64
6, 15753, Note_off_c, 4, 76, 64
6, 15838, Note_on_c, 4, 83, 89
6, 16152, Note_off_c, 4, 83, 64
6, 16253, Note_on_c, 4, 74, 82
6, 16289, Note_off_c, 4, 74, 64
6, 16318, Note_on_c, 4, 73, 82
6, 16668, Note_off_c, 4, 73, 64
6, 16732, Note_on_c, 4, 71, 85
6, 16768, Note_off_c, 4, 71, 64
6, 16791, Note_on_c, 4, 73, 80
6, 16846, Note_on_c, 4, 71, 53
6, 16854, Note_off_c, 4, 73, 64
6, 16880, Note_off_c, 4, 71, 64
6, 16881, Note_on_c, 4, 73, 53
6, 16907, Note_off_c, 4, 73, 64
6, 16907, Note_on_c, 4, 71, 59
6, 16932, Note_off_c, 4, 71, 64
6, 16932, Note_on_c, 4, 73, 62
6, 16953, Note_on_c, 4, 71, 60
6, 16954, Note_off_c, 4, 73, 64
6, 16973, Note_off_c, 4, 71, 64
6, 16973, Note_on_c, 4, 73, 66
6, 16992, Note_on_c, 4, 71, 74
6, 16993, Note_off_c, 4, 73, 64
6, 17014, Note_on_c, 4, 73, 89
6, 17015, Note_off_c, 4, 71, 64
6, 17033, Note_on_c, 4, 71, 89
6, 17044, Note_off_c, 4, 73, 64
6, 17170, Note_off_c, 4, 71, 64
6, 17213, Note_on_c, 4, 69, 87
6, 17247, Note_off_c, 4, 69, 64
6, 17274, Note_on_c, 4, 69, 89
6, 17526, Note_off_c, 4, 69, 64
6, 23987, Note_on_c, 4, 62, 82
6, 24260, Note_off_c, 4, 62, 64
6, 24283, Note_on_c, 4, 66, 74
6, 24321, Note_off_c, 4, 66, 64
6, 24344, Note_on_c, 4, 64, 72
6, 24380, Note_off_c, 4, 64, 64
6, 24404, Note_on_c, 4, 62, 82
6, 24439, Note_off_c, 4, 62, 64
6, 24473, Note_on_c, 4, 71, 85
6, 24744, Note_off_c, 4, 71, 64
6, 24779, Note_on_c, 4, 74, 89
6, 24809, Note_off_c, 4, 74, 64
6, 24836, Note_on_c, 4, 73, 82
6, 24873, Note_off_c, 4, 73, 64
6, 24888, Note_on_c, 4, 71, 82
6, 24942, Note_off_c, 4, 71, 64
6, 24959, Note_on_c, 4, 79, 85
6, 25216, Note_off_c, 4, 79, 64
6, 25257, Note_on_c, 4, 76, 87
6, 25292, Note_off_c, 4, 76, 64
6, 25312, Note_on_c, 4, 78, 93
6, 25345, Note_off_c, 4, 78, 64
6, 25369, Note_on_c, 4, 79, 87
6, 25409, Note_off_c, 4, 79, 64
6, 25433, Note_on_c, 4, 73, 72
6, 25702, Note_off_c, 4, 73, 64
6, 25733, Note_on_c, 4, 69, 82
6, 25770, Note_off_c, 4, 69, 64
6, 25787, Note_on_c, 4, 71, 87
6, 25822, Note_off_c, 4, 71, 64
6, 25846, Note_on_c, 4, 73, 87
6, 25883, Note_off_c, 4, 73, 64
6, 25913, Note_on_c, 4, 64, 87
6, 26278, Note_off_c, 4, 64, 64
6, 26340, Note_on_c, 4, 64, 89
6, 26383, Note_off_c, 4, 64, 64
6, 26397, Note_on_c, 4, 76, 93
6, 26490, Note_off_c, 4, 76, 64
6, 26564, Note_on_c, 4, 73, 72
6, 26604, Note_off_c, 4, 73, 64
6, 26627, Note_on_c, 4, 69, 87
6, 26718, Note_off_c, 4, 69, 64
6, 26810, Note_on_c, 4, 67, 80
6, 26852, Note_off_c, 4, 67, 64
6, 26870, Note_on_c, 4, 66, 91
6, 26961, Note_off_c, 4, 66, 64
6, 27047, Note_on_c, 4, 62, 85
6, 27096, Note_off_c, 4, 62, 64
6, 27109, Note_on_c, 4, 66, 80
6, 27196, Note_off_c, 4, 66, 64
6, 27287, Note_on_c, 4, 69, 80
6, 27325, Note_off_c, 4, 69, 64
6, 27347, Note_on_c, 4, 74, 91
6, 27438, Note_off_c, 4, 74, 64
6, 27527, Note_on_c, 4, 69, 85
6, 27569, Note_off_c, 4, 69, 64
6, 27588, Note_on_c, 4, 74, 89
6, 27674, Note_off_c, 4, 74, 64
6, 27765, Note_on_c, 4, 76, 85
6, 27805, Note_off_c, 4, 76, 64
6, 27827, Note_on_c, 4, 78, 98
6, 28088, Note_off_c, 4, 78, 64
6, 28116, Note_on_c, 4, 79, 82
6, 28154, Note_off_c, 4, 79, 64
6, 28178, Note_on_c, 4, 81, 82
6, 28213, Note_off_c, 4, 81, 64
6, 28236, Note_on_c, 4, 78, 93
6, 28280, Note_off_c, 4, 78, 64
6, 28301, Note_on_c, 4, 83, 87
6, 28583, Note_off_c, 4, 83, 64
6, 28612, Note_on_c, 4, 80, 82
6, 28645, Note_off_c, 4, 80, 64
6, 28672, Note_on_c, 4, 81, 78
6, 28705, Note_off_c, 4, 81, 64
6, 28725, Note_on_c, 4, 83, 87
6, 28758, Note_off_c, 4, 83, 64
6, 28786, Note_on_c, 4, 76, 82
6, 29061, Note_off_c, 4, 76, 64
6, 29092, Note_on_c, 4, 76, 80
6, 29132, Note_off_c, 4, 76, 64
6, 29155, Note_on_c, 4, 78, 70
6, 29191, Note_off_c, 4, 78, 64
6, 29210, Note_on_c, 4, 80, 87
6, 29243, Note_off_c, 4, 80, 64
6, 29270, Note_on_c, 4, 81, 80
6, 29366, Note_off_c, 4, 81, 64
6, 29450, Note_on_c, 4, 76, 82
6, 29488, Note_off_c, 4, 76, 64
6, 29510, Note_on_c, 4, 73, 66
6, 29608, Note_off_c, 4, 73, 64
6, 29694, Note_on_c, 4, 69, 80
6, 29732, Note_off_c, 4, 69, 64
6, 29756, Note_on_c, 4, 74, 87
6, 30109, Note_off_c, 4, 74, 64
6, 30171, Note_on_c, 4, 74, 95
6, 30200, Note_off_c, 4, 74, 64
6, 30229, Note_on_c, 4, 74, 87
6, 30370, Note_off_c, 4, 74, 64
6, 30406, Note_on_c, 4, 76, 64
6, 30431, Note_on_c, 4, 78, 82
6, 30436, Note_off_c, 4, 76, 64
6, 30458, Note_off_c, 4, 78, 64
6, 30470, Note_on_c, 4, 76, 85
6, 30573, Note_off_c, 4, 76, 64
6, 30651, Note_on_c, 4, 74, 82
6, 30691, Note_off_c, 4, 74, 64
6, 30708, Note_on_c, 4, 73, 85
6, 30815, Note_off_c, 4, 73, 64
6, 30888, Note_on_c, 4, 69, 80
6, 30930, Note_off_c, 4, 69, 64
6, 30948, Note_on_c, 4, 73, 68
6, 31050, Note_off_c, 4, 73, 64
6, 31128, Note_on_c, 4, 76, 85
6, 31167, Note_off_c, 4, 76, 64
6, 31190, Note_on_c, 4, 81, 95
6, 31339, Note_off_c, 4, 81, 64
6, 31370, Note_on_c, 4, 79, 68
6, 31398, Note_on_c, 4, 78, 89
6, 31408, Note_off_c, 4, 79, 64
6, 31425, Note_off_c, 4, 78, 64
6, 31438, Note_on_c, 4, 79, 98
6, 31532, Note_off_c, 4, 79, 64
6, 31612, Note_on_c, 4, 76, 85
6, 31654, Note_off_c, 4, 76, 64
6, 31674, Note_on_c, 4, 83, 80
6, 32020, Note_off_c, 4, 83, 64
6, 32081, Note_on_c, 4, 75, 80
6, 32119, Note_off_c, 4, 75, 64
6, 32143, Note_on_c, 4, 76, 89
6, 32268, Note_off_c, 4, 76, 64
6, 32325, Note_on_c, 4, 78, 82
6, 32363, Note_off_c, 4, 78, 64
6, 32385, Note_on_c, 4, 79, 76
6, 32428, Note_on_c, 4, 78, 60
6, 32435, Note_off_c, 4, 79, 64
6, 32453, Note_off_c, 4, 78, 64
6, 32454, Note_on_c, 4, 79, 72
6, 32478, Note_on_c, 4, 78, 82
6, 32481, Note_off_c, 4, 79, 64
6, 32501, Note_off_c, 4, 78, 64
6, 32501, Note_on_c, 4, 79, 66
6, 32519, Note_on_c, 4, 78, 74
6, 32534, Note_off_c, 4, 79, 64
6, 32548, Note_on_c, 4, 76, 85
6, 32556, Note_off_c, 4, 78, 64
6, 32581, Note_on_c, 4, 78, 85
6, 32596, Note_off_c, 4, 76, 64
6, 32615, Note_off_c, 4, 78, 64
6, 32628, Note_on_c, 4, 79, 82
6, 32880, Note_off_c, 4, 79, 64
6, 32913, Note_on_c, 4, 78, 63
6, 32954, Note_off_c, 4, 78, 64
6, 32977, Note_on_c, 4, 76, 74
6, 33027, Note_off_c, 4, 76, 64
6, 33039, Note_on_c, 4, 74, 82
6, 33077, Note_off_c, 4, 74, 64
6, 33100, Note_on_c, 4, 72, 85
6, 33195, Note_off_c, 4, 72, 64
6, 33289, Note_on_c, 4, 72, 85
6, 33329, Note_off_c, 4, 72, 64
6, 33350, Note_on_c, 4, 74, 85
6, 33433, Note_off_c, 4, 74, 64
6, 33530, Note_on_c, 4, 76, 87
6, 33566, Note_off_c, 4, 76, 64
6, 33593, Note_on_c, 4, 71, 91
6, 33711, Note_on_c, 4, 70, 68
6, 33720, Note_off_c, 4, 71, 64
6, 33921, Note_off_c, 4, 70, 64
6, 34015, Note_on_c, 4, 79, 89
6, 34049, Note_off_c, 4, 79, 64
6, 34070, Note_on_c, 4, 78, 102
6, 34167, Note_off_c, 4, 78, 64
6, 34247, Note_on_c, 4, 76, 82
6, 34291, Note_off_c, 4, 76, 64
6, 34309, Note_on_c, 4, 74, 80
6, 34397, Note_off_c, 4, 74, 64
6, 34495, Note_on_c, 4, 73, 63
6, 34536, Note_off_c, 4, 73, 64
6, 34552, Note_on_c, 4, 74, 82
6, 34653, Note_off_c, 4, 74, 64
6, 34731, Note_on_c, 4, 73, 63
6, 34775, Note_off_c, 4, 73, 64
6, 34791, Note_on_c, 4, 71, 78
6, 34892, Note_off_c, 4, 71, 64
6, 34966, Note_on_c, 4, 73, 66
6, 35010, Note_off_c, 4, 73, 64
6, 35032, Note_on_c, 4, 74, 85
6, 35096, Note_on_c, 4, 73, 63
6, 35103, Note_off_c, 4, 74, 64
6, 35128, Note_on_c, 4, 74, 70
6, 35132, Note_off_c, 4, 73, 64
6, 35160, Note_on_c, 4, 73, 54
6, 35162, Note_off_c, 4, 74, 64
6, 35181, Note_on_c, 4, 74, 70
6, 35182, Note_off_c, 4, 73, 64
6, 35204, Note_on_c, 4, 73, 56
6, 35205, Note_off_c, 4, 74, 64
6, 35222, Note_on_c, 4, 74, 78
6, 35223, Note_off_c, 4, 73, 64
6, 35241, Note_on_c, 4, 73, 70
6, 35245, Note_off_c, 4, 74, 64
6, 35264, Note_on_c, 4, 74, 85
6, 35267, Note_off_c, 4, 73, 64
6, 35282, Note_on_c, 4, 73, 74
6, 35291, Note_off_c, 4, 74, 64
6, 35396, Note_off_c, 4, 73, 64
6, 35446, Note_on_c, 4, 71, 85
6, 35478, Note_off_c, 4, 71, 64
6, 35509, Note_on_c, 4, 71, 87
6, 35766, Note_off_c, 4, 71, 64
6, 35815, Note_on_c, 4, 71, 87
6, 35845, Note_off_c, 4, 71, 64
6, 35869, Note_on_c, 4, 69, 80
6, 35910, Note_off_c, 4, 69, 64
6, 35923, Note_on_c, 4, 68, 85
6, 35965, Note_off_c, 4, 68, 64
6, 35987, Note_on_c, 4, 69, 87
6, 36080, Note_off_c, 4, 69, 64
6, 36165, Note_on_c, 4, 78, 78
6, 36205, Note_off_c, 4, 78, 64
6, 36229, Note_on_c, 4, 71, 85
6, 36319, Note_off_c, 4, 71, 64
6, 36410, Note_on_c, 4, 69, 82
6, 36450, Note_off_c, 4, 69, 64
6, 36471, Note_on_c, 4, 68, 87
6, 36568, Note_off_c, 4, 68, 64
6, 36648, Note_on_c, 4, 64, 85
6, 36692, Note_off_c, 4, 64, 64
6, 36715, Note_on_c, 4, 68, 87
6, 36806, Note_off_c, 4, 68, 64
6, 36892, Note_on_c, 4, 71, 72
6, 36933, Note_off_c, 4, 71, 64
6, 36958, Note_on_c, 4, 76, 85
6, 37302, Note_off_c, 4, 76, 64
6, 37368, Note_on_c, 4, 76, 85
6, 37402, Note_off_c, 4, 76, 64
6, 37431, Note_on_c, 4, 76, 89
6, 37677, Note_off_c, 4, 76, 64
6, 37731, Note_on_c, 4, 69, 85
6, 37777, Note_off_c, 4, 69, 64
6, 37792, Note_on_c, 4, 71, 85
6, 37831, Note_off_c, 4, 71, 64
6, 37852, Note_on_c, 4, 73, 85
6, 37888, Note_off_c, 4, 73, 64
6, 37907, Note_on_c, 4, 74, 78
6, 37949, Note_off_c, 4, 74, 64
6, 37966, Note_on_c, 4, 73, 91
6, 38006, Note_off_c, 4, 73, 64
6, 38025, Note_on_c, 4, 74, 80
6, 38073, Note_off_c, 4, 74, 64
6, 38086, Note_on_c, 4, 76, 89
6, 38130, Note_off_c, 4, 76, 64
6, 38146, Note_on_c, 4, 78, 98
6, 38200, Note_off_c, 4, 78, 64
6, 38208, Note_on_c, 4, 76, 87
6, 38255, Note_off_c, 4, 76, 64
6, 38269, Note_on_c, 4, 78, 87
6, 38313, Note_off_c, 4, 78, 64
6, 38330, Note_on_c, 4, 80, 102
6, 38371, Note_off_c, 4, 80, 64
6, 38388, Note_on_c, 4, 81, 89
6, 38449, Note_on_c, 4, 80, 59
6, 38456, Note_off_c, 4, 81, 64
6, 38544, Note_off_c, 4, 80, 64
6, 38623, Note_on_c, 4, 78, 91
6, 38693, Note_on_c, 4, 76, 63
6, 38697, Note_off_c, 4, 78, 64
6, 38793, Note_off_c, 4, 76, 64
6, 38878, Note_on_c, 4, 83, 89
6, 39192, Note_off_c, 4, 83, 64
6, 39293, Note_on_c, 4, 74, 82
6, 39329, Note_off_c, 4, 74, 64
6, 39358, Note_on_c, 4, 73, 82
6, 39708, Note_off_c, 4, 73, 64
6, 39772, Note_on_c, 4, 71, 85
6, 39808, Note_off_c, 4, 71, 64
6, 39831, Note_on_c, 4, 73, 80
6, 39886, Note_on_c, 4, 71, 53
6, 39894, Note_off_c, 4, 73, 64
6, 39920, Note_off_c, 4, 71, 64
6, 39921, Note_on_c, 4, 73, 53
6, 39947, Note_off_c, 4, 73, 64
6, 39947, Note_on_c, 4, 71, 59
6, 39972, Note_off_c, 4, 71, 64
6, 39972, Note_on_c, 4, 73, 62
6, 39993, Note_on_c, 4, 71, 60
6, 39994, Note_off_c, 4, 73, 64
6, 40013, Note_off_c, 4, 71, 64
6, 40013, Note_on_c, 4, 73, 66
6, 40032, Note_on_c, 4, 71, 74
6, 40033, Note_off_c, 4, 73, 64
6, 40054, Note_on_c, 4, 73, 89
6, 40055, Note_off_c, 4, 71, 64
6, 40073, Note_on_c, 4, 71, 89
6, 40084, Note_off_c, 4, 73, 64
6, 40210, Note_off_c, 4, 71, 64
6, 40253, Note_on_c, 4, 69, 87
6, 40287, Note_off_c, 4, 69, 64
6, 40314, Note_on_c, 4, 69, 89
6, 40566, Note_off_c, 4, 69, 64
6, 46208, Note_on_c, 4, 69, 78
6, 46256, Note_off_c, 4, 69, 64
6, 46260, Note_on_c, 4, 71, 82
6, 46309, Note_off_c, 4, 71, 64
6, 46320, Note_on_c, 4, 73, 80
6, 46371, Note_off_c, 4, 73, 64
6, 46439, Note_on_c, 4, 73, 58
6, 46488, Note_off_c, 4, 73, 64
6, 46492, Note_on_c, 4, 74, 80
6, 46531, Note_off_c, 4, 74, 64
6, 46553, Note_on_c, 4, 76, 78
6, 46616, Note_off_c, 4, 76, 64
6, 46676, Note_on_c, 4, 73, 59
6, 46725, Note_off_c, 4, 73, 64
6, 46730, Note_on_c, 4, 74, 76
6, 46777, Note_off_c, 4, 74, 64
6, 46794, Note_on_c, 4, 76, 85
6, 46847, Note_off_c, 4, 76, 64
6, 46915, Note_on_c, 4, 76, 72
6, 46963, Note_on_c, 4, 78, 66
6, 46969, Note_off_c, 4, 76, 64
6, 47003, Note_off_c, 4, 78, 64
6, 47026, Note_on_c, 4, 79, 87
6, 47084, Note_off_c, 4, 79, 64
6, 47153, Note_on_c, 4, 79, 80
6, 47201, Note_on_c, 4, 78, 60
6, 47205, Note_off_c, 4, 79, 64
6, 47245, Note_off_c, 4, 78, 64
6, 47265, Note_on_c, 4, 79, 80
6, 47323, Note_off_c, 4, 79, 64
6, 47393, Note_on_c, 4, 81, 78
6, 47442, Note_on_c, 4, 79, 70
6, 47447, Note_off_c, 4, 81, 64
6, 47485, Note_off_c, 4, 79, 64
6, 47510, Note_on_c, 4, 78, 93
6, 47556, Note_off_c, 4, 78, 64
6, 47633, Note_on_c, 4, 81, 85
6, 47673, Note_off_c, 4, 81, 64
6, 47753, Note_on_c, 4, 74, 76
6, 47800, Note_off_c, 4, 74, 64
6, 47875, Note_on_c, 4, 78, 68
6, 48035, Note_off_c, 4, 78, 64
6, 48112, Note_on_c, 4, 81, 85
6, 48159, Note_off_c, 4, 81, 64
6, 48237, Note_on_c, 4, 72, 80
6, 48293, Note_off_c, 4, 72, 64
6, 48362, Note_on_c, 4, 78, 66
6, 48517, Note_off_c, 4, 78, 64
6, 48599, Note_on_c, 4, 81, 85
6, 48644, Note_off_c, 4, 81, 64
6, 48714, Note_on_c, 4, 74, 78
6, 48767, Note_off_c, 4, 74, 64
6, 48835, Note_on_c, 4, 78, 63
6, 48894, Note_off_c, 4, 78, 64
6, 48954, Note_on_c, 4, 79, 82
6, 49002, Note_off_c, 4, 79, 64
6, 49074, Note_on_c, 4, 83, 80
6, 49122, Note_off_c, 4, 83, 64
6, 49197, Note_on_c, 4, 74, 82
6, 49244, Note_off_c, 4, 74, 64
6, 49318, Note_on_c, 4, 80, 72
6, 49486, Note_off_c, 4, 80, 64
6, 49564, Note_on_c, 4, 83, 85
6, 49611, Note_off_c, 4, 83, 64
6, 49674, Note_on_c, 4, 76, 70
6, 49727, Note_off_c, 4, 76, 64
6, 49794, Note_on_c, 4, 80, 70
6, 49836, Note_off_c, 4, 80, 64
6, 49914, Note_on_c, 4, 81, 82
6, 49969, Note_on_c, 4, 76, 76
6, 49977, Note_off_c, 4, 81, 64
6, 50015, Note_off_c, 4, 76, 64
6, 50029, Note_on_c, 4, 73, 63
6, 50077, Note_off_c, 4, 73, 64
6, 50079, Note_on_c, 4, 74, 72
6, 50135, Note_off_c, 4, 74, 64
6, 50144, Note_on_c, 4, 76, 58
6, 50196, Note_on_c, 4, 78, 57
6, 50197, Note_off_c, 4, 76, 64
6, 50257, Note_off_c, 4, 78, 64
6, 50264, Note_on_c, 4, 76, 56
6, 50318, Note_on_c, 4, 78, 59
6, 50337, Note_off_c, 4, 76, 64
6, 50370, Note_off_c, 4, 78, 64
6, 50387, Note_on_c, 4, 79, 85
6, 50442, Note_on_c, 4, 76, 66
6, 50453, Note_off_c, 4, 79, 64
6, 50495, Note_off_c, 4, 76, 64
6, 50507, Note_on_c, 4, 69, 59
6, 50566, Note_on_c, 4, 71, 57
6, 50577, Note_off_c, 4, 69, 64
6, 50615, Note_off_c, 4, 71, 64
6, 50625, Note_on_c, 4, 73, 60
6, 50681, Note_on_c, 4, 74, 68
6, 50688, Note_off_c, 4, 73, 64
6, 50728, Note_off_c, 4, 74, 64
6, 50747, Note_on_c, 4, 73, 49
6, 50794, Note_on_c, 4, 74, 70
6, 50798, Note_off_c, 4, 73, 64
6, 50842, Note_off_c, 4, 74, 64
6, 50861, Note_on_c, 4, 76, 80
6, 50909, Note_on_c, 4, 74, 64
6, 50921, Note_off_c, 4, 76, 64
6, 50976, Note_on_c, 4, 73, 43
6, 50978, Note_off_c, 4, 74, 64
6, 51035, Note_on_c, 4, 74, 64
6, 51038, Note_off_c, 4, 73, 64
6, 51085, Note_off_c, 4, 74, 64
6, 51106, Note_on_c, 4, 76, 87
6, 51153, Note_on_c, 4, 74, 68
6, 51160, Note_off_c, 4, 76, 64
6, 51216, Note_on_c, 4, 73, 52
6, 51221, Note_off_c, 4, 74, 64
6, 51273, Note_on_c, 4, 71, 53
6, 51280, Note_off_c, 4, 73, 64
6, 51342, Note_on_c, 4, 69, 70
6, 51343, Note_off_c, 4, 71, 64
6, 51402, Note_on_c, 4, 74, 78
6, 51405, Note_off_c, 4, 69, 64
6, 51457, Note_on_c, 4, 73, 64
6, 51479, Note_off_c, 4, 74, 64
6, 51516, Note_on_c, 4, 71, 66
6, 51533, Note_off_c, 4, 73, 64
6, 51574, Note_off_c, 4, 71, 64
6, 51577, Note_on_c, 4, 69, 76
6, 51635, Note_on_c, 4, 67, 52
6, 51639, Note_off_c, 4, 69, 64
6, 51702, Note_off_c, 4, 67, 64
6, 51704, Note_on_c, 4, 66, 49
6, 51750, Note_on_c, 4, 64, 63
6, 51754, Note_off_c, 4, 66, 64
6, 51794, Note_off_c, 4, 64, 64
6, 51822, Note_on_c, 4, 62, 70
6, 51894, Note_off_c, 4, 62, 64
6, 51957, Note_on_c, 4, 74, 62
6, 52054, Note_off_c, 4, 74, 64
6, 52078, Note_on_c, 4, 74, 60
6, 52171, Note_off_c, 4, 74, 64
6, 52194, Note_on_c, 4, 74, 60
6, 52295, Note_off_c, 4, 74, 64
6, 52318, Note_on_c, 4, 74, 63
6, 52406, Note_off_c, 4, 74, 64
6, 52436, Note_on_c, 4, 74, 61
6, 52529, Note_off_c, 4, 74, 64
6, 52552, Note_on_c, 4, 74, 66
6, 52639, Note_off_c, 4, 74, 64
6, 52668, Note_on_c, 4, 74, 60
6, 52759, Note_off_c, 4, 74, 64
6, 52784, Note_on_c, 4, 74, 66
6, 52862, Note_off_c, 4, 74, 64
6, 52908, Note_on_c, 4, 76, 72
6, 53003, Note_off_c, 4, 76, 64
6, 53028, Note_on_c, 4, 76, 66
6, 53127, Note_off_c, 4, 76, 64
6, 53155, Note_on_c, 4, 76, 68
6, 53240, Note_off_c, 4, 76, 64
6, 53265, Note_on_c, 4, 76, 68
6, 53360, Note_off_c, 4, 76, 64
6, 53384, Note_on_c, 4, 76, 63
6, 53482, Note_off_c, 4, 76, 64
6, 53512, Note_on_c, 4, 76, 66
6, 53600, Note_off_c, 4, 76, 64
6, 53624, Note_on_c, 4, 76, 60
6, 53716, Note_off_c, 4, 76, 64
6, 53753, Note_on_c, 4, 76, 60
6, 53837, Note_off_c, 4, 76, 64
6, 53873, Note_on_c, 4, 76, 78
6, 53958, Note_off_c, 4, 76, 64
6, 53984, Note_on_c, 4, 76, 68
6, 54070, Note_off_c, 4, 76, 64
6, 54104, Note_on_c, 4, 76, 76
6, 54183, Note_off_c, 4, 76, 64
6, 54226, Note_on_c, 4, 76, 80
6, 54294, Note_off_c, 4, 76, 64
6, 54346, Note_on_c, 4, 69, 76
6, 54395, Note_on_c, 4, 71, 78
6, 54400, Note_off_c, 4, 69, 64
6, 54435, Note_off_c, 4, 71, 64
6, 54457, Note_on_c, 4, 73, 64
6, 54527, Note_off_c, 4, 73, 64
6, 54585, Note_on_c, 4, 73, 61
6, 54639, Note_off_c, 4, 73, 64
6, 54642, Note_on_c, 4, 74, 80
6, 54687, Note_off_c, 4, 74, 64
6, 54704, Note_on_c, 4, 76, 87
6, 54769, Note_off_c, 4, 76, 64
6, 54825, Note_on_c, 4, 73, 59
6, 54872, Note_off_c, 4, 73, 64
6, 54880, Note_on_c, 4, 74, 80
6, 54933, Note_off_c, 4, 74, 64
6, 54944, Note_on_c, 4, 76, 80
6, 54995, Note_off_c, 4, 76, 64
6, 55065, Note_on_c, 4, 76, 70
6, 55112, Note_on_c, 4, 78, 66
6, 55119, Note_off_c, 4, 76, 64
6, 55159, Note_off_c, 4, 78, 64
6, 55180, Note_on_c, 4, 79, 87
6, 55235, Note_off_c, 4, 79, 64
6, 55304, Note_on_c, 4, 79, 76
6, 55350, Note_on_c, 4, 78, 63
6, 55359, Note_off_c, 4, 79, 64
6, 55400, Note_off_c, 4, 78, 64
6, 55420, Note_on_c, 4, 79, 78
6, 55499, Note_off_c, 4, 79, 64
6, 55552, Note_on_c, 4, 81, 80
6, 55605, Note_on_c, 4, 79, 66
6, 55606, Note_off_c, 4, 81, 64
6, 55654, Note_off_c, 4, 79, 64
6, 55671, Note_on_c, 4, 78, 63
6, 55745, Note_off_c, 4, 78, 64
6, 55797, Note_on_c, 4, 78, 68
6, 55833, Note_off_c, 4, 78, 64
6, 55848, Note_on_c, 4, 76, 78
6, 55890, Note_off_c, 4, 76, 64
6, 55912, Note_on_c, 4, 78, 80
6, 56001, Note_off_c, 4, 78, 64
6, 56044, Note_on_c, 4, 79, 72
6, 56081, Note_off_c, 4, 79, 64
6, 56094, Note_on_c, 4, 78, 82
6, 56135, Note_off_c, 4, 78, 64
6, 56155, Note_on_c, 4, 76, 66
6, 56238, Note_off_c, 4, 76, 64
6, 56281, Note_on_c, 4, 76, 66
6, 56322, Note_off_c, 4, 76, 64
6, 56326, Note_on_c, 4, 74, 76
6, 56368, Note_off_c, 4, 74, 64
6, 56393, Note_on_c, 4, 76, 85
6, 56487, Note_off_c, 4, 76, 64
6, 56512, Note_on_c, 4, 78, 64
6, 56554, Note_off_c, 4, 78, 64
6, 56563, Note_on_c, 4, 76, 59
6, 56601, Note_off_c, 4, 76, 64
6, 56626, Note_on_c, 4, 74, 80
6, 56705, Note_off_c, 4, 74, 64
6, 56757, Note_on_c, 4, 74, 82
6, 56806, Note_on_c, 4, 76, 78
6, 56811, Note_off_c, 4, 74, 64
6, 56849, Note_off_c, 4, 76, 64
6, 56868, Note_on_c, 4, 78, 93
6, 56936, Note_off_c, 4, 78, 64
6, 56997, Note_on_c, 4, 78, 66
6, 57046, Note_off_c, 4, 78, 64
6, 57050, Note_on_c, 4, 79, 70
6, 57092, Note_off_c, 4, 79, 64
6, 57112, Note_on_c, 4, 81, 87
6, 57179, Note_off_c, 4, 81, 64
6, 57234, Note_on_c, 4, 78, 64
6, 57283, Note_off_c, 4, 78, 64
6, 57291, Note_on_c, 4, 79, 72
6, 57338, Note_off_c, 4, 79, 64
6, 57355, Note_on_c, 4, 81, 85
6, 57417, Note_off_c, 4, 81, 64
6, 57471, Note_on_c, 4, 81, 76
6, 57525, Note_on_c, 4, 83, 89
6, 57529, Note_off_c, 4, 81, 64
6, 57570, Note_off_c, 4, 83, 64
6, 57591, Note_on_c, 4, 84, 100
6, 57656, Note_off_c, 4, 84, 64
6, 57713, Note_on_c, 4, 84, 82
6, 57759, Note_on_c, 4, 83, 80
6, 57763, Note_off_c, 4, 84, 64
6, 57812, Note_off_c, 4, 83, 64
6, 57825, Note_on_c, 4, 84, 89
6, 57894, Note_off_c, 4, 84, 64
6, 57954, Note_on_c, 4, 86, 80
6, 58010, Note_on_c, 4, 84, 66
6, 58022, Note_off_c, 4, 86, 64
6, 58049, Note_off_c, 4, 84, 64
6, 58076, Note_on_c, 4, 83, 89
6, 58126, Note_off_c, 4, 83, 64
6, 58129, Note_on_c, 4, 79, 61
6, 58175, Note_off_c, 4, 79, 64
6, 58193, Note_on_c, 4, 76, 60
6, 58248, Note_on_c, 4, 78, 64
6, 58254, Note_off_c, 4, 76, 64
6, 58292, Note_off_c, 4, 78, 64
6, 58310, Note_on_c, 4, 79, 85
6, 58364, Note_off_c, 4, 79, 64
6, 58370, Note_on_c, 4, 81, 70
6, 58404, Note_off_c, 4, 81, 64
6, 58422, Note_on_c, 4, 78, 62
6, 58470, Note_off_c, 4, 78, 64
6, 58477, Note_on_c, 4, 79, 74
6, 58521, Note_off_c, 4, 79, 64
6, 58545, Note_on_c, 4, 81, 85
6, 58585, Note_off_c, 4, 81, 64
6, 58602, Note_on_c, 4, 78, 66
6, 58642, Note_off_c, 4, 78, 64
6, 58662, Note_on_c, 4, 74, 70
6, 58713, Note_off_c, 4, 74, 64
6, 58719, Note_on_c, 4, 76, 63
6, 58763, Note_off_c, 4, 76, 64
6, 58786, Note_on_c, 4, 78, 80
6, 58842, Note_on_c, 4, 79, 74
6, 58849, Note_off_c, 4, 78, 64
6, 58879, Note_off_c, 4, 79, 64
6, 58902, Note_on_c, 4, 76, 63
6, 58952, Note_off_c, 4, 76, 64
6, 58960, Note_on_c, 4, 78, 78
6, 59006, Note_off_c, 4, 78, 64
6, 59024, Note_on_c, 4, 79, 100
6, 59074, Note_off_c, 4, 79, 64
6, 59082, Note_on_c, 4, 78, 58
6, 59133, Note_off_c, 4, 78, 64
6, 59139, Note_on_c, 4, 76, 63
6, 59184, Note_off_c, 4, 76, 64
6, 59194, Note_on_c, 4, 79, 76
6, 59237, Note_off_c, 4, 79, 64
6, 59254, Note_on_c, 4, 78, 91
6, 59308, Note_on_c, 4, 76, 68
6, 59309, Note_off_c, 4, 78, 64
6, 59354, Note_off_c, 4, 76, 64
6, 59367, Note_on_c, 4, 74, 63
6, 59423, Note_on_c, 4, 78, 64
6, 59426, Note_off_c, 4, 74, 64
6, 59460, Note_off_c, 4, 78, 64
6, 59491, Note_on_c, 4, 76, 82
6, 59552, Note_off_c, 4, 76, 64
6, 59552, Note_on_c, 4, 81, 80
6, 59599, Note_off_c, 4, 81, 64
6, 59624, Note_on_c, 4, 73, 63
6, 59668, Note_off_c, 4, 73, 64
6, 59679, Note_on_c, 4, 74, 66
6, 59735, Note_off_c, 4, 74, 64
6, 59743, Note_on_c, 4, 76, 66
6, 59793, Note_on_c, 4, 78, 50
6, 59795, Note_off_c, 4, 76, 64
6, 59833, Note_off_c, 4, 78, 64
6, 59849, Note_on_c, 4, 76, 76
6, 59912, Note_on_c, 4, 78, 62
6, 59914, Note_off_c, 4, 76, 64
6, 59961, Note_off_c, 4, 78, 64
6, 59984, Note_on_c, 4, 79, 87
6, 60039, Note_on_c, 4, 76, 70
6, 60045, Note_off_c, 4, 79, 64
6, 60086, Note_off_c, 4, 76, 64
6, 60106, Note_on_c, 4, 69, 52
6, 60160, Note_on_c, 4, 71, 57
6, 60163, Note_off_c, 4, 69, 64
6, 60210, Note_off_c, 4, 71, 64
6, 60224, Note_on_c, 4, 73, 70
6, 60278, Note_off_c, 4, 73, 64
6, 60282, Note_on_c, 4, 74, 66
6, 60322, Note_off_c, 4, 74, 64
6, 60344, Note_on_c, 4, 73, 56
6, 60396, Note_off_c, 4, 73, 64
6, 60398, Note_on_c, 4, 74, 68
6, 60450, Note_off_c, 4, 74, 64
6, 60468, Note_on_c, 4, 76, 85
6, 60525, Note_on_c, 4, 74, 72
6, 60530, Note_off_c, 4, 76, 64
6, 60574, Note_off_c, 4, 74, 64
6, 60579, Note_on_c, 4, 73, 60
6, 60632, Note_off_c, 4, 73, 64
6, 60639, Note_on_c, 4, 74, 66
6, 60686, Note_off_c, 4, 74, 64
6, 60706, Note_on_c, 4, 76, 80
6, 60765, Note_on_c, 4, 79, 80
6, 60768, Note_off_c, 4, 76, 64
6, 60825, Note_on_c, 4, 78, 82
6, 60829, Note_off_c, 4, 79, 64
6, 60881, Note_off_c, 4, 78, 64
6, 60884, Note_on_c, 4, 76, 78
6, 60944, Note_off_c, 4, 76, 64
6, 60951, Note_on_c, 4, 81, 82
6, 61006, Note_on_c, 4, 79, 68
6, 61009, Note_off_c, 4, 81, 64
6, 61062, Note_off_c, 4, 79, 64
6, 61068, Note_on_c, 4, 78, 80
6, 61112, Note_off_c, 4, 78, 64
6, 61127, Note_on_c, 4, 79, 80
6, 61178, Note_off_c, 4, 79, 64
6, 61191, Note_on_c, 4, 81, 85
6, 61236, Note_off_c, 4, 81, 64
6, 61244, Note_on_c, 4, 78, 66
6, 61304, Note_off_c, 4, 78, 64
6, 61309, Note_on_c, 4, 74, 74
6, 61361, Note_on_c, 4, 78, 64
6, 61381, Note_off_c, 4, 74, 64
6, 61405, Note_off_c, 4, 78, 64
6, 61424, Note_on_c, 4, 79, 87
6, 61481, Note_on_c, 4, 78, 64
6, 61491, Note_off_c, 4, 79, 64
6, 61535, Note_off_c, 4, 78, 64
6, 61547, Note_on_c, 4, 76, 72
6, 61602, Note_on_c, 4, 78, 64
6, 61616, Note_off_c, 4, 76, 64
6, 61643, Note_off_c, 4, 78, 64
6, 61664, Note_on_c, 4, 79, 85
6, 61714, Note_off_c, 4, 79, 64
6, 61724, Note_on_c, 4, 83, 78
6, 61765, Note_off_c, 4, 83, 64
6, 61784, Note_on_c, 4, 81, 76
6, 61833, Note_off_c, 4, 81, 64
6, 61850, Note_on_c, 4, 79, 85
6, 61880, Note_off_c, 4, 79, 64
6, 61908, Note_on_c, 4, 78, 68
6, 61959, Note_off_c, 4, 78, 64
6, 62033, Note_on_c, 4, 74, 80
6, 62088, Note_off_c, 4, 74, 64
6, 62155, Note_on_c, 4, 71, 78
6, 62212, Note_off_c, 4, 71, 64
6, 62280, Note_on_c, 4, 76, 80
6, 62327, Note_off_c, 4, 76, 64
6, 62399, Note_on_c, 4, 73, 74
6, 62455, Note_off_c, 4, 73, 64
6, 62455, Note_on_c, 4, 69, 74
6, 62514, Note_on_c, 4, 71, 72
6, 62519, Note_off_c, 4, 69, 64
6, 62573, Note_on_c, 4, 73, 58
6, 62578, Note_off_c, 4, 71, 64
6, 62614, Note_off_c, 4, 73, 64
6, 62633, Note_on_c, 4, 74, 76
6, 62690, Note_on_c, 4, 76, 78
6, 62691, Note_off_c, 4, 74, 64
6, 62744, Note_off_c, 4, 76, 64
6, 62749, Note_on_c, 4, 78, 58
6, 62807, Note_off_c, 4, 78, 64
6, 62807, Note_on_c, 4, 79, 68
6, 62852, Note_off_c, 4, 79, 64
6, 62867, Note_on_c, 4, 78, 82
6, 62928, Note_off_c, 4, 78, 64
6, 62928, Note_on_c, 4, 76, 76
6, 62981, Note_off_c, 4, 76, 64
6, 62986, Note_on_c, 4, 74, 57
6, 63039, Note_off_c, 4, 74, 64
6, 63048, Note_on_c, 4, 76, 70
6, 63080, Note_off_c, 4, 76, 64
6, 63116, Note_on_c, 4, 69, 72
6, 63170, Note_off_c, 4, 69, 64
6, 63244, Note_on_c, 4, 73, 64
6, 63296, Note_off_c, 4, 73, 64
6, 63362, Note_on_c, 4, 74, 82
6, 63427, Note_off_c, 4, 74, 64
6, 78840, Note_on_c, 4, 73, 74
6, 78888, Note_off_c, 4, 73, 64
6, 78891, Note_on_c, 4, 74, 76
6, 78942, Note_off_c, 4, 74, 64
6, 78948, Note_on_c, 4, 76, 74
6, 79004, Note_off_c, 4, 76, 64
6, 79010, Note_on_c, 4, 78, 68
6, 79064, Note_off_c, 4, 78, 64
6, 79070, Note_on_c, 4, 76, 57
6, 79119, Note_off_c, 4, 76, 64
6, 79126, Note_on_c, 4, 78, 62
6, 79172, Note_off_c, 4, 78, 64
6, 79192, Note_on_c, 4, 79, 87
6, 79246, Note_on_c, 4, 76, 66
6, 79256, Note_off_c, 4, 79, 64
6, 79293, Note_off_c, 4, 76, 64
6, 79306, Note_on_c, 4, 69, 68
6, 79366, Note_on_c, 4, 71, 63
6, 79373, Note_off_c, 4, 69, 64
6, 79423, Note_off_c, 4, 71, 64
6, 79431, Note_on_c, 4, 73, 56
6, 79480, Note_off_c, 4, 73, 64
6, 79483, Note_on_c, 4, 74, 64
6, 79532, Note_off_c, 4, 74, 64
6, 79541, Note_on_c, 4, 73, 57
6, 79592, Note_on_c, 4, 74, 72
6, 79594, Note_off_c, 4, 73, 64
6, 79641, Note_off_c, 4, 74, 64
6, 79660, Note_on_c, 4, 76, 98
6, 79718, Note_on_c, 4, 74, 70
6, 79726, Note_off_c, 4, 76, 64
6, 79774, Note_off_c, 4, 74, 64
6, 79785, Note_on_c, 4, 73, 57
6, 79839, Note_on_c, 4, 74, 68
6, 79846, Note_off_c, 4, 73, 64
6, 79891, Note_off_c, 4, 74, 64
6, 79907, Note_on_c, 4, 76, 85
6, 79961, Note_on_c, 4, 74, 70
6, 79971, Note_off_c, 4, 76, 64
6, 80021, Note_off_c, 4, 74, 64
6, 80021, Note_on_c, 4, 73, 68
6, 80076, Note_on_c, 4, 71, 72
6, 80079, Note_off_c, 4, 73, 64
6, 80121, Note_off_c, 4, 71, 64
6, 80144, Note_on_c, 4, 69, 63
6, 80203, Note_off_c, 4, 69, 64
6, 80271, Note_on_c, 4, 78, 85
6, 80311, Note_off_c, 4, 78, 64
6, 80395, Note_on_c, 4, 71, 76
6, 80434, Note_off_c, 4, 71, 64
6, 80518, Note_on_c, 4, 75, 93
6, 80688, Note_off_c, 4, 75, 64
6, 80749, Note_on_c, 4, 78, 74
6, 80797, Note_off_c, 4, 78, 64
6, 80878, Note_on_c, 4, 69, 85
6, 80924, Note_off_c, 4, 69, 64
6, 81006, Note_on_c, 4, 75, 93
6, 81176, Note_off_c, 4, 75, 64
6, 81232, Note_on_c, 4, 78, 78
6, 81282, Note_off_c, 4, 78, 64
6, 81355, Note_on_c, 4, 71, 85
6, 81403, Note_off_c, 4, 71, 64
6, 81480, Note_on_c, 4, 75, 80
6, 81529, Note_off_c, 4, 75, 64
6, 81602, Note_on_c, 4, 76, 89
6, 81683, Note_off_c, 4, 76, 64
6, 81725, Note_on_c, 4, 64, 64
6, 81775, Note_on_c, 4, 66, 64
6, 81779, Note_off_c, 4, 64, 64
6, 81823, Note_off_c, 4, 66, 64
6, 81843, Note_on_c, 4, 68, 91
6, 81895, Note_off_c, 4, 68, 64
6, 81957, Note_on_c, 4, 68, 64
6, 82002, Note_on_c, 4, 69, 72
6, 82004, Note_off_c, 4, 68, 64
6, 82054, Note_off_c, 4, 69, 64
6, 82070, Note_on_c, 4, 71, 85
6, 82136, Note_off_c, 4, 71, 64
6, 82189, Note_on_c, 4, 68, 66
6, 82236, Note_off_c, 4, 68, 64
6, 82240, Note_on_c, 4, 69, 76
6, 82288, Note_off_c, 4, 69, 64
6, 82308, Note_on_c, 4, 71, 82
6, 82372, Note_off_c, 4, 71, 64
6, 82435, Note_on_c, 4, 71, 66
6, 82488, Note_on_c, 4, 73, 78
6, 82493, Note_off_c, 4, 71, 64
6, 82536, Note_off_c, 4, 73, 64
6, 82549, Note_on_c, 4, 74, 89
6, 82605, Note_off_c, 4, 74, 64
6, 82664, Note_on_c, 4, 74, 87
6, 82709, Note_off_c, 4, 74, 64
6, 82715, Note_on_c, 4, 73, 85
6, 82761, Note_off_c, 4, 73, 64
6, 82781, Note_on_c, 4, 74, 85
6, 82854, Note_off_c, 4, 74, 64
6, 82908, Note_on_c, 4, 76, 82
6, 82960, Note_on_c, 4, 74, 82
6, 82970, Note_off_c, 4, 76, 64
6, 83000, Note_off_c, 4, 74, 64
6, 83022, Note_on_c, 4, 73, 76
6, 83093, Note_off_c, 4, 73, 64
6, 83144, Note_on_c, 4, 73, 70
6, 83185, Note_off_c, 4, 73, 64
6, 83195, Note_on_c, 4, 71, 72
6, 83237, Note_off_c, 4, 71, 64
6, 83262, Note_on_c, 4, 73, 89
6, 83365, Note_off_c, 4, 73, 64
6, 83392, Note_on_c, 4, 74, 80
6, 83425, Note_off_c, 4, 74, 64
6, 83446, Note_on_c, 4, 73, 93
6, 83489, Note_off_c, 4, 73, 64
6, 83509, Note_on_c, 4, 71, 82
6, 83576, Note_off_c, 4, 71, 64
6, 83629, Note_on_c, 4, 71, 76
6, 83679, Note_off_c, 4, 71, 64
6, 83681, Note_on_c, 4, 69, 72
6, 83722, Note_off_c, 4, 69, 64
6, 83749, Note_on_c, 4, 71, 89
6, 83846, Note_off_c, 4, 71, 64
6, 83874, Note_on_c, 4, 73, 68
6, 83917, Note_off_c, 4, 73, 64
6, 83926, Note_on_c, 4, 71, 82
6, 83973, Note_off_c, 4, 71, 64
6, 83991, Note_on_c, 4, 69, 87
6, 84057, Note_off_c, 4, 69, 64
6, 84116, Note_on_c, 4, 69, 85
6, 84165, Note_off_c, 4, 69, 64
6, 84165, Note_on_c, 4, 71, 87
6, 84211, Note_off_c, 4, 71, 64
6, 84228, Note_on_c, 4, 73, 100
6, 84285, Note_off_c, 4, 73, 64
6, 84353, Note_on_c, 4, 73, 64
6, 84400, Note_on_c, 4, 74, 82
6, 84402, Note_off_c, 4, 73, 64
6, 84444, Note_off_c, 4, 74, 64
6, 84464, Note_on_c, 4, 76, 93
6, 84533, Note_off_c, 4, 76, 64
6, 84593, Note_on_c, 4, 73, 66
6, 84647, Note_off_c, 4, 73, 64
6, 84656, Note_on_c, 4, 74, 78
6, 84701, Note_off_c, 4, 74, 64
6, 84712, Note_on_c, 4, 76, 93
6, 84766, Note_off_c, 4, 76, 64
6, 84836, Note_on_c, 4, 76, 80
6, 84886, Note_on_c, 4, 78, 85
6, 84894, Note_off_c, 4, 76, 64
6, 84928, Note_off_c, 4, 78, 64
6, 84945, Note_on_c, 4, 79, 102
6, 85010, Note_off_c, 4, 79, 64
6, 85067, Note_on_c, 4, 79, 91
6, 85113, Note_off_c, 4, 79, 64
6, 85123, Note_on_c, 4, 78, 95
6, 85169, Note_off_c, 4, 78, 64
6, 85189, Note_on_c, 4, 79, 91
6, 85255, Note_off_c, 4, 79, 64
6, 85322, Note_on_c, 4, 81, 89
6, 85377, Note_on_c, 4, 79, 80
6, 85392, Note_off_c, 4, 81, 64
6, 85416, Note_off_c, 4, 79, 64
6, 85442, Note_on_c, 4, 78, 100
6, 85492, Note_on_c, 4, 74, 70
6, 85499, Note_off_c, 4, 78, 64
6, 85539, Note_off_c, 4, 74, 64
6, 85560, Note_on_c, 4, 71, 60
6, 85613, Note_off_c, 4, 71, 64
6, 85618, Note_on_c, 4, 73, 57
6, 85662, Note_off_c, 4, 73, 64
6, 85676, Note_on_c, 4, 74, 78
6, 85734, Note_on_c, 4, 76, 70
6, 85735, Note_off_c, 4, 74, 64
6, 85776, Note_off_c, 4, 76, 64
6, 85793, Note_on_c, 4, 73, 53
6, 85836, Note_off_c, 4, 73, 64
6, 85848, Note_on_c, 4, 74, 64
6, 85892, Note_off_c, 4, 74, 64
6, 85920, Note_on_c, 4, 76, 102
6, 85977, Note_on_c, 4, 73, 62
6, 85978, Note_off_c, 4, 76, 64
6, 86021, Note_off_c, 4, 73, 64
6, 86035, Note_on_c, 4, 70, 82
6, 86079, Note_off_c, 4, 70, 64
6, 86091, Note_on_c, 4, 71, 70
6, 86134, Note_off_c, 4, 71, 64
6, 86153, Note_on_c, 4, 73, 82
6, 86208, Note_on_c, 4, 74, 72
6, 86217, Note_off_c, 4, 73, 64
6, 86246, Note_off_c, 4, 74, 64
6, 86265, Note_on_c, 4, 71, 80
6, 86315, Note_off_c, 4, 71, 64
6, 86323, Note_on_c, 4, 73, 64
6, 86362, Note_off_c, 4, 73, 64
6, 86384, Note_on_c, 4, 74, 93
6, 86444, Note_on_c, 4, 76, 82
6, 86456, Note_off_c, 4, 74, 64
6, 86487, Note_off_c, 4, 76, 64
6, 86506, Note_on_c, 4, 73, 63
6, 86560, Note_on_c, 4, 74, 80
6, 86564, Note_off_c, 4, 73, 64
6, 86604, Note_off_c, 4, 74, 64
6, 86630, Note_on_c, 4, 76, 105
6, 86687, Note_on_c, 4, 74, 82
6, 86701, Note_off_c, 4, 76, 64
6, 86747, Note_off_c, 4, 74, 64
6, 86747, Note_on_c, 4, 73, 62
6, 86794, Note_off_c, 4, 73, 64
6, 86800, Note_on_c, 4, 71, 82
6, 86848, Note_off_c, 4, 71, 64
6, 86868, Note_on_c, 4, 78, 64
6, 86980, Note_off_c, 4, 78, 64
6, 86997, Note_on_c, 4, 78, 64
6, 87098, Note_off_c, 4, 78, 64
6, 87120, Note_on_c, 4, 78, 78
6, 87214, Note_off_c, 4, 78, 64
6, 87234, Note_on_c, 4, 78, 66
6, 87323, Note_off_c, 4, 78, 64
6, 87353, Note_on_c, 4, 78, 82
6, 87452, Note_off_c, 4, 78, 64
6, 87477, Note_on_c, 4, 78, 70
6, 87569, Note_off_c, 4, 78, 64
6, 87593, Note_on_c, 4, 78, 78
6, 87691, Note_off_c, 4, 78, 64
6, 87715, Note_on_c, 4, 78, 82
6, 87809, Note_off_c, 4, 78, 64
6, 87836, Note_on_c, 4, 78, 80
6, 87935, Note_off_c, 4, 78, 64
6, 87956, Note_on_c, 4, 78, 70
6, 88049, Note_off_c, 4, 78, 64
6, 88080, Note_on_c, 4, 78, 66
6, 88159, Note_off_c, 4, 78, 64
6, 88199, Note_on_c, 4, 78, 85
6, 88271, Note_off_c, 4, 78, 64
6, 88313, Note_on_c, 4, 78, 85
6, 88368, Note_on_c, 4, 76, 70
6, 88380, Note_off_c, 4, 78, 64
6, 88414, Note_off_c, 4, 76, 64
6, 88425, Note_on_c, 4, 78, 68
6, 88482, Note_on_c, 4, 79, 80
6, 88489, Note_off_c, 4, 78, 64
6, 88530, Note_off_c, 4, 79, 64
6, 88544, Note_on_c, 4, 78, 76
6, 88586, Note_off_c, 4, 78, 64
6, 88603, Note_on_c, 4, 83, 85
6, 88651, Note_off_c, 4, 83, 64
6, 88660, Note_on_c, 4, 82, 91
6, 88705, Note_off_c, 4, 82, 64
6, 88720, Note_on_c, 4, 83, 82
6, 88766, Note_off_c, 4, 83, 64
6, 88786, Note_on_c, 4, 76, 80
6, 88841, Note_off_c, 4, 76, 64
6, 88845, Note_on_c, 4, 74, 68
6, 88894, Note_off_c, 4, 74, 64
6, 88908, Note_on_c, 4, 76, 61
6, 88961, Note_on_c, 4, 78, 62
6, 88964, Note_off_c, 4, 76, 64
6, 89002, Note_off_c, 4, 78, 64
6, 89027, Note_on_c, 4, 76, 82
6, 89070, Note_off_c, 4, 76, 64
6, 89083, Note_on_c, 4, 79, 85
6, 89125, Note_off_c, 4, 79, 64
6, 89141, Note_on_c, 4, 78, 87
6, 89184, Note_off_c, 4, 78, 64
6, 89200, Note_on_c, 4, 76, 85
6, 89240, Note_off_c, 4, 76, 64
6, 89261, Note_on_c, 4, 74, 87
6, 89312, Note_off_c, 4, 74, 64
6, 89380, Note_on_c, 4, 78, 89
6, 89424, Note_off_c, 4, 78, 64
6, 89507, Note_on_c, 4, 79, 87
6, 89549, Note_off_c, 4, 79, 64
6, 89624, Note_on_c, 4, 71, 80
6, 89678, Note_off_c, 4, 71, 64
6, 89740, Note_on_c, 4, 70, 70
6, 89799, Note_on_c, 4, 66, 68
6, 89807, Note_off_c, 4, 70, 64
6, 89855, Note_on_c, 4, 68, 63
6, 89866, Note_off_c, 4, 66, 64
6, 89913, Note_on_c, 4, 70, 72
6, 89923, Note_off_c, 4, 68, 64
6, 89958, Note_off_c, 4, 70, 64
6, 89981, Note_on_c, 4, 71, 72
6, 90040, Note_off_c, 4, 71, 64
6, 90042, Note_on_c, 4, 73, 60
6, 90094, Note_off_c, 4, 73, 64
6, 90098, Note_on_c, 4, 74, 68
6, 90152, Note_off_c, 4, 74, 64
6, 90155, Note_on_c, 4, 76, 85
6, 90200, Note_off_c, 4, 76, 64
6, 90223, Note_on_c, 4, 78, 100
6, 90285, Note_on_c, 4, 79, 82
6, 90293, Note_off_c, 4, 78, 64
6, 90339, Note_off_c, 4, 79, 64
6, 90342, Note_on_c, 4, 78, 58
6, 90399, Note_on_c, 4, 76, 80
6, 90401, Note_off_c, 4, 78, 64
6, 90463, Note_on_c, 4, 74, 80
6, 90465, Note_off_c, 4, 76, 64
6, 90502, Note_off_c, 4, 74, 64
6, 90515, Note_on_c, 4, 73, 80
6, 90575, Note_off_c, 4, 73, 64
6, 90576, Note_on_c, 4, 71, 64
6, 90635, Note_on_c, 4, 70, 63
6, 90645, Note_off_c, 4, 71, 64
6, 90688, Note_off_c, 4, 70, 64
6, 90703, Note_on_c, 4, 71, 87
6, 90753, Note_off_c, 4, 71, 64
6, 90838, Note_on_c, 4, 73, 80
6, 90884, Note_off_c, 4, 73, 64
6, 90963, Note_on_c, 4, 66, 78
6, 91006, Note_off_c, 4, 66, 64
6, 91084, Note_on_c, 4, 70, 80
6, 91130, Note_off_c, 4, 70, 64
6, 91208, Note_on_c, 4, 71, 80
6, 91313, Note_off_c, 4, 71, 64
6, 108589, Note_on_c, 4, 69, 82
6, 108640, Note_off_c, 4, 69, 64
6, 108640, Note_on_c, 4, 71, 82
6, 108701, Note_off_c, 4, 71, 64
6, 108704, Note_on_c, 4, 73, 102
6, 108761, Note_off_c, 4, 73, 64
6, 108832, Note_on_c, 4, 73, 60
6, 108881, Note_on_c, 4, 74, 85
6, 108883, Note_off_c, 4, 73, 64
6, 108930, Note_off_c, 4, 74, 64
6, 108947, Note_on_c, 4, 76, 89
6, 109017, Note_off_c, 4, 76, 64
6, 109076, Note_on_c, 4, 73, 68
6, 109132, Note_on_c, 4, 74, 87
6, 109133, Note_off_c, 4, 73, 64
6, 109184, Note_off_c, 4, 74, 64
6, 109193, Note_on_c, 4, 76, 82
6, 109250, Note_off_c, 4, 76, 64
6, 109307, Note_on_c, 4, 76, 74
6, 109352, Note_off_c, 4, 76, 64
6, 109356, Note_on_c, 4, 78, 82
6, 109400, Note_off_c, 4, 78, 64
6, 109420, Note_on_c, 4, 79, 95
6, 109483, Note_off_c, 4, 79, 64
6, 109539, Note_on_c, 4, 79, 80
6, 109580, Note_off_c, 4, 79, 64
6, 109593, Note_on_c, 4, 78, 102
6, 109640, Note_off_c, 4, 78, 64
6, 109657, Note_on_c, 4, 79, 89
6, 109734, Note_off_c, 4, 79, 64
6, 109797, Note_on_c, 4, 81, 85
6, 109849, Note_on_c, 4, 79, 89
6, 109858, Note_off_c, 4, 81, 64
6, 109894, Note_off_c, 4, 79, 64
6, 109905, Note_on_c, 4, 78, 100
6, 109968, Note_off_c, 4, 78, 64
6, 110038, Note_on_c, 4, 81, 87
6, 110085, Note_off_c, 4, 81, 64
6, 110155, Note_on_c, 4, 74, 85
6, 110203, Note_off_c, 4, 74, 64
6, 110278, Note_on_c, 4, 78, 93
6, 110446, Note_off_c, 4, 78, 64
6, 110509, Note_on_c, 4, 81, 87
6, 110558, Note_off_c, 4, 81, 64
6, 110626, Note_on_c, 4, 72, 82
6, 110670, Note_off_c, 4, 72, 64
6, 110753, Note_on_c, 4, 78, 93
6, 110916, Note_off_c, 4, 78, 64
6, 110994, Note_on_c, 4, 81, 87
6, 111032, Note_off_c, 4, 81, 64
6, 111112, Note_on_c, 4, 74, 85
6, 111158, Note_off_c, 4, 74, 64
6, 111226, Note_on_c, 4, 78, 66
6, 111284, Note_off_c, 4, 78, 64
6, 111344, Note_on_c, 4, 79, 85
6, 111394, Note_off_c, 4, 79, 64
6, 111467, Note_on_c, 4, 83, 87
6, 111513, Note_off_c, 4, 83, 64
6, 111588, Note_on_c, 4, 74, 85
6, 111632, Note_off_c, 4, 74, 64
6, 111714, Note_on_c, 4, 80, 95
6, 111872, Note_off_c, 4, 80, 64
6, 111948, Note_on_c, 4, 83, 89
6, 111998, Note_off_c, 4, 83, 64
6, 112072, Note_on_c, 4, 76, 82
6, 112125, Note_off_c, 4, 76, 64
6, 112188, Note_on_c, 4, 80, 87
6, 112227, Note_off_c, 4, 80, 64
6, 112306, Note_on_c, 4, 81, 82
6, 112358, Note_on_c, 4, 76, 72
6, 112365, Note_off_c, 4, 81, 64
6, 112402, Note_off_c, 4, 76, 64
6, 112419, Note_on_c, 4, 73, 85
6, 112472, Note_off_c, 4, 73, 64
6, 112472, Note_on_c, 4, 74, 70
6, 112527, Note_off_c, 4, 74, 64
6, 112543, Note_on_c, 4, 76, 76
6, 112598, Note_off_c, 4, 76, 64
6, 112598, Note_on_c, 4, 78, 68
6, 112652, Note_off_c, 4, 78, 64
6, 112661, Note_on_c, 4, 76, 63
6, 112717, Note_on_c, 4, 78, 74
6, 112736, Note_off_c, 4, 76, 64
6, 112769, Note_off_c, 4, 78, 64
6, 112788, Note_on_c, 4, 79, 87
6, 112845, Note_on_c, 4, 76, 72
6, 112850, Note_off_c, 4, 79, 64
6, 112889, Note_off_c, 4, 76, 64
6, 112905, Note_on_c, 4, 69, 72
6, 112961, Note_on_c, 4, 71, 66
6, 112969, Note_off_c, 4, 69, 64
6, 113008, Note_off_c, 4, 71, 64
6, 113022, Note_on_c, 4, 73, 80
6, 113072, Note_off_c, 4, 73, 64
6, 113073, Note_on_c, 4, 74, 70
6, 113117, Note_off_c, 4, 74, 64
6, 113140, Note_on_c, 4, 73, 85
6, 113193, Note_off_c, 4, 73, 64
6, 113193, Note_on_c, 4, 74, 72
6, 113243, Note_off_c, 4, 74, 64
6, 113265, Note_on_c, 4, 76, 91
6, 113318, Note_on_c, 4, 74, 70
6, 113325, Note_off_c, 4, 76, 64
6, 113368, Note_off_c, 4, 74, 64
6, 113381, Note_on_c, 4, 73, 56
6, 113436, Note_off_c, 4, 73, 64
6, 113439, Note_on_c, 4, 74, 72
6, 113483, Note_off_c, 4, 74, 64
6, 113506, Note_on_c, 4, 76, 93
6, 113560, Note_on_c, 4, 74, 74
6, 113565, Note_off_c, 4, 76, 64
6, 113615, Note_off_c, 4, 74, 64
6, 113616, Note_on_c, 4, 73, 62
6, 113673, Note_on_c, 4, 71, 61
6, 113675, Note_off_c, 4, 73, 64
6, 113732, Note_off_c, 4, 71, 64
6, 113736, Note_on_c, 4, 69, 72
6, 113791, Note_off_c, 4, 69, 64
6, 113794, Note_on_c, 4, 74, 85
6, 113846, Note_on_c, 4, 73, 85
6, 113864, Note_off_c, 4, 74, 64
6, 113907, Note_on_c, 4, 71, 80
6, 113916, Note_off_c, 4, 73, 64
6, 113966, Note_off_c, 4, 71, 64
6, 113967, Note_on_c, 4, 69, 72
6, 114024, Note_on_c, 4, 67, 63
6, 114030, Note_off_c, 4, 69, 64
6, 114084, Note_off_c, 4, 67, 64
6, 114087, Note_on_c, 4, 66, 64
6, 114141, Note_off_c, 4, 66, 64
6, 114144, Note_on_c, 4, 64, 80
6, 114189, Note_off_c, 4, 64, 64
6, 114210, Note_on_c, 4, 62, 68
6, 114283, Note_off_c, 4, 62, 64
6, 114344, Note_on_c, 4, 74, 62
6, 114436, Note_off_c, 4, 74, 64
6, 114461, Note_on_c, 4, 74, 78
6, 114561, Note_off_c, 4, 74, 64
6, 114587, Note_on_c, 4, 74, 78
6, 114687, Note_off_c, 4, 74, 64
6, 114709, Note_on_c, 4, 74, 76
6, 114800, Note_off_c, 4, 74, 64
6, 114824, Note_on_c, 4, 74, 82
6, 114923, Note_off_c, 4, 74, 64
6, 114950, Note_on_c, 4, 74, 78
6, 115047, Note_off_c, 4, 74, 64
6, 115069, Note_on_c, 4, 74, 78
6, 115169, Note_off_c, 4, 74, 64
6, 115192, Note_on_c, 4, 74, 82
6, 115278, Note_off_c, 4, 74, 64
6, 115310, Note_on_c, 4, 76, 85
6, 115408, Note_off_c, 4, 76, 64
6, 115431, Note_on_c, 4, 76, 85
6, 115536, Note_off_c, 4, 76, 64
6, 115562, Note_on_c, 4, 76, 85
6, 115655, Note_off_c, 4, 76, 64
6, 115678, Note_on_c, 4, 76, 85
6, 115778, Note_off_c, 4, 76, 64
6, 115799, Note_on_c, 4, 76, 78
6, 115899, Note_off_c, 4, 76, 64
6, 115917, Note_on_c, 4, 76, 82
6, 116012, Note_off_c, 4, 76, 64
6, 116033, Note_on_c, 4, 76, 82
6, 116120, Note_off_c, 4, 76, 64
6, 116153, Note_on_c, 4, 76, 82
6, 116241, Note_off_c, 4, 76, 64
6, 116273, Note_on_c, 4, 76, 89
6, 116359, Note_off_c, 4, 76, 64
6, 116381, Note_on_c, 4, 76, 82
6, 116474, Note_off_c, 4, 76, 64
6, 116502, Note_on_c, 4, 76, 89
6, 116586, Note_off_c, 4, 76, 64
6, 116626, Note_on_c, 4, 76, 95
6, 116710, Note_off_c, 4, 76, 64
6, 116747, Note_on_c, 4, 69, 78
6, 116795, Note_on_c, 4, 71, 80
6, 116800, Note_off_c, 4, 69, 64
6, 116840, Note_off_c, 4, 71, 64
6, 116860, Note_on_c, 4, 73, 95
6, 116928, Note_off_c, 4, 73, 64
6, 116986, Note_on_c, 4, 73, 58
6, 117036, Note_off_c, 4, 73, 64
6, 117038, Note_on_c, 4, 74, 80
6, 117081, Note_off_c, 4, 74, 64
6, 117101, Note_on_c, 4, 76, 89
6, 117166, Note_off_c, 4, 76, 64
6, 117218, Note_on_c, 4, 73, 60
6, 117270, Note_off_c, 4, 73, 64
6, 117274, Note_on_c, 4, 74, 70
6, 117320, Note_off_c, 4, 74, 64
6, 117337, Note_on_c, 4, 76, 80
6, 117384, Note_off_c, 4, 76, 64
6, 117459, Note_on_c, 4, 76, 66
6, 117510, Note_on_c, 4, 78, 60
6, 117515, Note_off_c, 4, 76, 64
6, 117551, Note_off_c, 4, 78, 64
6, 117570, Note_on_c, 4, 79, 89
6, 117631, Note_off_c, 4, 79, 64
6, 117691, Note_on_c, 4, 79, 85
6, 117732, Note_off_c, 4, 79, 64
6, 117744, Note_on_c, 4, 78, 82
6, 117783, Note_off_c, 4, 78, 64
6, 117809, Note_on_c, 4, 79, 82
6, 117876, Note_off_c, 4, 79, 64
6, 117955, Note_on_c, 4, 81, 89
6, 118007, Note_off_c, 4, 81, 64
6, 118009, Note_on_c, 4, 79, 82
6, 118044, Note_off_c, 4, 79, 64
6, 118062, Note_on_c, 4, 78, 85
6, 118153, Note_off_c, 4, 78, 64
6, 118195, Note_on_c, 4, 78, 78
6, 118220, Note_off_c, 4, 78, 64
6, 118243, Note_on_c, 4, 76, 80
6, 118280, Note_off_c, 4, 76, 64
6, 118307, Note_on_c, 4, 78, 98
6, 118406, Note_off_c, 4, 78, 64
6, 118423, Note_on_c, 4, 79, 70
6, 118454, Note_off_c, 4, 79, 64
6, 118472, Note_on_c, 4, 78, 68
6, 118515, Note_off_c, 4, 78, 64
6, 118537, Note_on_c, 4, 76, 74
6, 118631, Note_off_c, 4, 76, 64
6, 118664, Note_on_c, 4, 76, 70
6, 118711, Note_off_c, 4, 76, 64
6, 118723, Note_on_c, 4, 74, 80
6, 118765, Note_off_c, 4, 74, 64
6, 118790, Note_on_c, 4, 76, 89
6, 118895, Note_off_c, 4, 76, 64
6, 118917, Note_on_c, 4, 78, 68
6, 118957, Note_off_c, 4, 78, 64
6, 118968, Note_on_c, 4, 76, 60
6, 119015, Note_off_c, 4, 76, 64
6, 119029, Note_on_c, 4, 74, 82
6, 119114, Note_off_c, 4, 74, 64
6, 119162, Note_on_c, 4, 74, 82
6, 119208, Note_on_c, 4, 76, 87
6, 119212, Note_off_c, 4, 74, 64
6, 119254, Note_off_c, 4, 76, 64
6, 119268, Note_on_c, 4, 78, 100
6, 119338, Note_off_c, 4, 78, 64
6, 119402, Note_on_c, 4, 78, 68
6, 119449, Note_on_c, 4, 79, 78
6, 119453, Note_off_c, 4, 78, 64
6, 119492, Note_off_c, 4, 79, 64
6, 119515, Note_on_c, 4, 81, 95
6, 119579, Note_off_c, 4, 81, 64
6, 119635, Note_on_c, 4, 78, 82
6, 119675, Note_off_c, 4, 78, 64
6, 119683, Note_on_c, 4, 79, 78
6, 119729, Note_off_c, 4, 79, 64
6, 119752, Note_on_c, 4, 81, 89
6, 119834, Note_off_c, 4, 81, 64
6, 119872, Note_on_c, 4, 81, 80
6, 119918, Note_off_c, 4, 81, 64
6, 119923, Note_on_c, 4, 83, 85
6, 119964, Note_off_c, 4, 83, 64
6, 119985, Note_on_c, 4, 84, 93
6, 120056, Note_off_c, 4, 84, 64
6, 120111, Note_on_c, 4, 84, 89
6, 120161, Note_off_c, 4, 84, 64
6, 120162, Note_on_c, 4, 83, 87
6, 120213, Note_off_c, 4, 83, 64
6, 120226, Note_on_c, 4, 84, 87
6, 120285, Note_off_c, 4, 84, 64
6, 120350, Note_on_c, 4, 86, 85
6, 120406, Note_on_c, 4, 84, 80
6, 120417, Note_off_c, 4, 86, 64
6, 120442, Note_off_c, 4, 84, 64
6, 120469, Note_on_c, 4, 83, 87
6, 120524, Note_off_c, 4, 83, 64
6, 120529, Note_on_c, 4, 79, 70
6, 120570, Note_off_c, 4, 79, 64
6, 120593, Note_on_c, 4, 76, 64
6, 120646, Note_on_c, 4, 78, 63
6, 120652, Note_off_c, 4, 76, 64
6, 120692, Note_off_c, 4, 78, 64
6, 120706, Note_on_c, 4, 79, 87
6, 120760, Note_off_c, 4, 79, 64
6, 120765, Note_on_c, 4, 81, 66
6, 120808, Note_off_c, 4, 81, 64
6, 120821, Note_on_c, 4, 78, 56
6, 120866, Note_off_c, 4, 78, 64
6, 120880, Note_on_c, 4, 79, 80
6, 120920, Note_off_c, 4, 79, 64
6, 120947, Note_on_c, 4, 81, 89
6, 120992, Note_off_c, 4, 81, 64
6, 121000, Note_on_c, 4, 78, 66
6, 121042, Note_off_c, 4, 78, 64
6, 121059, Note_on_c, 4, 74, 74
6, 121105, Note_off_c, 4, 74, 64
6, 121115, Note_on_c, 4, 76, 74
6, 121158, Note_off_c, 4, 76, 64
6, 121182, Note_on_c, 4, 78, 95
6, 121237, Note_off_c, 4, 78, 64
6, 121238, Note_on_c, 4, 79, 70
6, 121277, Note_off_c, 4, 79, 64
6, 121304, Note_on_c, 4, 76, 63
6, 121339, Note_off_c, 4, 76, 64
6, 121365, Note_on_c, 4, 78, 70
6, 121402, Note_off_c, 4, 78, 64
6, 121429, Note_on_c, 4, 79, 89
6, 121480, Note_off_c, 4, 79, 64
6, 121485, Note_on_c, 4, 78, 66
6, 121528, Note_off_c, 4, 78, 64
6, 121551, Note_on_c, 4, 76, 68
6, 121586, Note_off_c, 4, 76, 64
6, 121608, Note_on_c, 4, 79, 72
6, 121640, Note_off_c, 4, 79, 64
6, 121673, Note_on_c, 4, 78, 100
6, 121728, Note_off_c, 4, 78, 64
6, 121728, Note_on_c, 4, 76, 76
6, 121770, Note_off_c, 4, 76, 64
6, 121786, Note_on_c, 4, 74, 70
6, 121828, Note_off_c, 4, 74, 64
6, 121845, Note_on_c, 4, 78, 82
6, 121885, Note_off_c, 4, 78, 64
6, 121908, Note_on_c, 4, 76, 89
6, 121957, Note_off_c, 4, 76, 64
6, 121963, Note_on_c, 4, 81, 76
6, 122007, Note_off_c, 4, 81, 64
6, 122024, Note_on_c, 4, 73, 72
6, 122070, Note_off_c, 4, 73, 64
6, 122073, Note_on_c, 4, 74, 72
6, 122112, Note_off_c, 4, 74, 64
6, 122136, Note_on_c, 4, 76, 87
6, 122186, Note_off_c, 4, 76, 64
6, 122193, Note_on_c, 4, 78, 76
6, 122246, Note_off_c, 4, 78, 64
6, 122261, Note_on_c, 4, 76, 53
6, 122321, Note_on_c, 4, 78, 64
6, 122333, Note_off_c, 4, 76, 64
6, 122365, Note_off_c, 4, 78, 64
6, 122386, Note_on_c, 4, 79, 82
6, 122439, Note_on_c, 4, 76, 68
6, 122452, Note_off_c, 4, 79, 64
6, 122478, Note_off_c, 4, 76, 64
6, 122505, Note_on_c, 4, 69, 60
6, 122558, Note_off_c, 4, 69, 64
6, 122562, Note_on_c, 4, 71, 66
6, 122611, Note_off_c, 4, 71, 64
6, 122624, Note_on_c, 4, 73, 66
6, 122681, Note_on_c, 4, 74, 62
6, 122682, Note_off_c, 4, 73, 64
6, 122725, Note_off_c, 4, 74, 64
6, 122744, Note_on_c, 4, 73, 80
6, 122792, Note_off_c, 4, 73, 64
6, 122799, Note_on_c, 4, 74, 78
6, 122841, Note_off_c, 4, 74, 64
6, 122868, Note_on_c, 4, 76, 95
6, 122920, Note_on_c, 4, 74, 76
6, 122929, Note_off_c, 4, 76, 64
6, 122973, Note_off_c, 4, 74, 64
6, 122980, Note_on_c, 4, 73, 78
6, 123021, Note_off_c, 4, 73, 64
6, 123036, Note_on_c, 4, 74, 68
6, 123081, Note_off_c, 4, 74, 64
6, 123101, Note_on_c, 4, 76, 78
6, 123159, Note_off_c, 4, 76, 64
6, 123163, Note_on_c, 4, 79, 82
6, 123216, Note_off_c, 4, 79, 64
6, 123224, Note_on_c, 4, 78, 82
6, 123271, Note_off_c, 4, 78, 64
6, 123282, Note_on_c, 4, 76, 68
6, 123326, Note_off_c, 4, 76, 64
6, 123347, Note_on_c, 4, 81, 89
6, 123399, Note_on_c, 4, 79, 72
6, 123413, Note_off_c, 4, 81, 64
6, 123454, Note_off_c, 4, 79, 64
6, 123466, Note_on_c, 4, 78, 91
6, 123514, Note_off_c, 4, 78, 64
6, 123521, Note_on_c, 4, 79, 72
6, 123564, Note_off_c, 4, 79, 64
6, 123583, Note_on_c, 4, 81, 87
6, 123628, Note_off_c, 4, 81, 64
6, 123633, Note_on_c, 4, 78, 66
6, 123685, Note_off_c, 4, 78, 64
6, 123698, Note_on_c, 4, 74, 78
6, 123751, Note_off_c, 4, 74, 64
6, 123753, Note_on_c, 4, 78, 87
6, 123799, Note_off_c, 4, 78, 64
6, 123819, Note_on_c, 4, 79, 85
6, 123874, Note_off_c, 4, 79, 64
6, 123877, Note_on_c, 4, 78, 91
6, 123938, Note_on_c, 4, 76, 58
6, 123944, Note_off_c, 4, 78, 64
6, 123987, Note_off_c, 4, 76, 64
6, 123995, Note_on_c, 4, 78, 66
6, 124030, Note_off_c, 4, 78, 64
6, 124064, Note_on_c, 4, 79, 82
6, 124119, Note_off_c, 4, 79, 64
6, 124119, Note_on_c, 4, 83, 82
6, 124171, Note_off_c, 4, 83, 64
6, 124178, Note_on_c, 4, 81, 70
6, 124223, Note_off_c, 4, 81, 64
6, 124243, Note_on_c, 4, 79, 89
6, 124278, Note_off_c, 4, 79, 64
6, 124306, Note_on_c, 4, 78, 87
6, 124367, Note_off_c, 4, 78, 64
6, 124428, Note_on_c, 4, 74, 85
6, 124480, Note_off_c, 4, 74, 64
6, 124545, Note_on_c, 4, 71, 82
6, 124594, Note_off_c, 4, 71, 64
6, 124672, Note_on_c, 4, 76, 87
6, 124718, Note_off_c, 4, 76, 64
6, 124788, Note_on_c, 4, 73, 98
6, 124839, Note_off_c, 4, 73, 64
6, 124848, Note_on_c, 4, 69, 82
6, 124899, Note_off_c, 4, 69, 64
6, 124903, Note_on_c, 4, 71, 80
6, 124967, Note_on_c, 4, 73, 80
6, 124971, Note_off_c, 4, 71, 64
6, 125008, Note_off_c, 4, 73, 64
6, 125025, Note_on_c, 4, 74, 74
6, 125078, Note_off_c, 4, 74, 64
6, 125087, Note_on_c, 4, 76, 80
6, 125127, Note_off_c, 4, 76, 64
6, 125145, Note_on_c, 4, 78, 93
6, 125190, Note_off_c, 4, 78, 64
6, 125202, Note_on_c, 4, 79, 87
6, 125239, Note_off_c, 4, 79, 64
6, 125267, Note_on_c, 4, 78, 102
6, 125312, Note_off_c, 4, 78, 64
6, 125326, Note_on_c, 4, 76, 93
6, 125373, Note_off_c, 4, 76, 64
6, 125384, Note_on_c, 4, 74, 78
6, 125430, Note_off_c, 4, 74, 64
6, 125446, Note_on_c, 4, 76, 82
6, 125484, Note_off_c, 4, 76, 64
6, 125515, Note_on_c, 4, 69, 91
6, 125568, Note_off_c, 4, 69, 64
6, 125632, Note_on_c, 4, 73, 82
6, 125696, Note_off_c, 4, 73, 64
6, 138237, Note_on_c, 4, 73, 100
6, 138281, Note_off_c, 4, 73, 64
6, 138288, Note_on_c, 4, 74, 80
6, 138331, Note_off_c, 4, 74, 64
6, 138349, Note_on_c, 4, 73, 80
6, 138395, Note_off_c, 4, 73, 64
6, 138409, Note_on_c, 4, 71, 85
6, 138450, Note_off_c, 4, 71, 64
6, 138470, Note_on_c, 4, 69, 85
6, 138523, Note_off_c, 4, 69, 64
6, 138534, Note_on_c, 4, 71, 85
6, 138582, Note_off_c, 4, 71, 64
6, 138598, Note_on_c, 4, 73, 78
6, 138642, Note_off_c, 4, 73, 64
6, 138654, Note_on_c, 4, 74, 85
6, 138703, Note_off_c, 4, 74, 64
6, 138717, Note_on_c, 4, 76, 89
6, 138766, Note_off_c, 4, 76, 64
6, 138775, Note_on_c, 4, 78, 72
6, 138819, Note_off_c, 4, 78, 64
6, 138831, Note_on_c, 4, 79, 82
6, 138877, Note_off_c, 4, 79, 64
6, 138889, Note_on_c, 4, 81, 87
6, 138924, Note_off_c, 4, 81, 64
6, 138949, Note_on_c, 4, 79, 93
6, 138989, Note_off_c, 4, 79, 64
6, 139004, Note_on_c, 4, 78, 98
6, 139041, Note_off_c, 4, 78, 64
6, 139060, Note_on_c, 4, 79, 82
6, 139098, Note_off_c, 4, 79, 64
6, 139121, Note_on_c, 4, 76, 85
6, 139151, Note_off_c, 4, 76, 64
6, 139188, Note_on_c, 4, 78, 93
6, 139307, Note_off_c, 4, 78, 64
6, 139349, Note_on_c, 4, 76, 66
6, 139370, Note_on_c, 4, 74, 66
6, 139374, Note_off_c, 4, 76, 64
6, 139395, Note_on_c, 4, 73, 70
6, 139403, Note_off_c, 4, 74, 64
6, 139419, Note_off_c, 4, 73, 64
6, 139429, Note_on_c, 4, 74, 82
6, 139530, Note_off_c, 4, 74, 64
6, 139598, Note_on_c, 4, 71, 85
6, 139630, Note_off_c, 4, 71, 64
6, 139661, Note_on_c, 4, 74, 91
6, 139738, Note_on_c, 4, 73, 56
6, 139743, Note_off_c, 4, 74, 64
6, 139772, Note_on_c, 4, 74, 66
6, 139773, Note_off_c, 4, 73, 64
6, 139803, Note_on_c, 4, 73, 64
6, 139805, Note_off_c, 4, 74, 64
6, 139824, Note_off_c, 4, 73, 64
6, 139826, Note_on_c, 4, 74, 64
6, 139845, Note_off_c, 4, 74, 64
6, 139847, Note_on_c, 4, 73, 57
6, 139866, Note_off_c, 4, 73, 64
6, 139866, Note_on_c, 4, 74, 80
6, 139885, Note_on_c, 4, 73, 62
6, 139886, Note_off_c, 4, 74, 64
6, 139906, Note_off_c, 4, 73, 64
6, 139906, Note_on_c, 4, 74, 85
6, 139922, Note_on_c, 4, 73, 89
6, 139927, Note_off_c, 4, 74, 64
6, 140030, Note_off_c, 4, 73, 64
6, 140083, Note_on_c, 4, 74, 85
6, 140122, Note_off_c, 4, 74, 64
6, 140164, Note_on_c, 4, 74, 102
6, 140212, Note_off_c, 4, 74, 64
6, 165110, Note_on_c, 4, 76, 58
6, 166312, Note_off_c, 4, 76, 64
6, 166316, Note_on_c, 4, 73, 59
6, 166537, Note_off_c, 4, 73, 64
6, 166552, Note_on_c, 4, 75, 62
6, 167968, Note_off_c, 4, 75, 64
6, 167982, Note_on_c, 4, 74, 63
6, 169410, Note_off_c, 4, 74, 64
6, 169430, Note_on_c, 4, 73, 58
6, 170831, Note_off_c, 4, 73, 64
6, 170865, Note_on_c, 4, 74, 70
6, 171020, Note_off_c, 4, 74, 64
6, 190904, Note_on_c, 4, 79, 68
6, 190961, Note_off_c, 4, 79, 64
6, 191028, Note_on_c, 4, 78, 60
6, 191136, Note_off_c, 4, 78, 64
6, 191395, Note_on_c, 4, 78, 62
6, 191452, Note_off_c, 4, 78, 64
6, 191517, Note_on_c, 4, 76, 66
6, 191623, Note_off_c, 4, 76, 64
6, 191864, Note_on_c, 4, 76, 74
6, 191917, Note_off_c, 4, 76, 64
6, 191990, Note_on_c, 4, 74, 66
6, 192122, Note_off_c, 4, 74, 64
6, 192350, Note_on_c, 4, 74, 80
6, 192409, Note_off_c, 4, 74, 64
6, 192473, Note_on_c, 4, 73, 68
6, 192536, Note_off_c, 4, 73, 64
6, 192593, Note_on_c, 4, 76, 72
6, 192643, Note_off_c, 4, 76, 64
6, 192707, Note_on_c, 4, 74, 80
6, 192761, Note_off_c, 4, 74, 64
6, 192826, Note_on_c, 4, 78, 70
6, 192882, Note_off_c, 4, 78, 64
6, 192949, Note_on_c, 4, 76, 76
6, 193005, Note_off_c, 4, 76, 64
6, 193074, Note_on_c, 4, 79, 82
6, 193138, Note_off_c, 4, 79, 64
6, 193197, Note_on_c, 4, 78, 82
6, 193245, Note_off_c, 4, 78, 64
6, 193318, Note_on_c, 4, 81, 80
6, 193373, Note_off_c, 4, 81, 64
6, 193434, Note_on_c, 4, 73, 70
6, 193494, Note_off_c, 4, 73, 64
6, 193553, Note_on_c, 4, 76, 74
6, 193607, Note_off_c, 4, 76, 64
6, 193674, Note_on_c, 4, 69, 70
6, 193741, Note_off_c, 4, 69, 64
6, 193796, Note_on_c, 4, 73, 70
6, 193853, Note_off_c, 4, 73, 64
6, 193918, Note_on_c, 4, 74, 82
6, 193979, Note_off_c, 4, 74, 64
6, 194036, Note_on_c, 4, 71, 76
6, 194090, Note_off_c, 4, 71, 64
6, 194153, Note_on_c, 4, 68, 66
6, 194214, Note_off_c, 4, 68, 64
6, 194271, Note_on_c, 4, 71, 80
6, 194324, Note_off_c, 4, 71, 64
6, 194392, Note_on_c, 4, 73, 82
6, 194534, Note_off_c, 4, 73, 64
6, 196319, Note_on_c, 4, 74, 70
6, 197500, Note_off_c, 4, 74, 64
6, 197504, Note_on_c, 4, 71, 60
6, 197729, Note_off_c, 4, 71, 64
6, 197749, Note_on_c, 4, 73, 58
6, 199194, Note_off_c, 4, 73, 64
6, 199206, Note_on_c, 4, 72, 59
6, 200251, Note_off_c, 4, 72, 64
6, 200264, Note_on_c, 4, 69, 58
6, 200374, Note_off_c, 4, 69, 64
6, 200388, Note_on_c, 4, 66, 68
6, 200489, Note_off_c, 4, 66, 64
6, 200509, Note_on_c, 4, 62, 66
6, 200604, Note_off_c, 4, 62, 64
6, 200630, Note_on_c, 4, 71, 66
6, 200770, Note_off_c, 4, 71, 64
6, 219866, Note_on_c, 4, 74, 100
6, 220116, Note_off_c, 4, 74, 64
6, 220125, Note_on_c, 4, 76, 72
6, 220163, Note_off_c, 4, 76, 64
6, 220181, Note_on_c, 4, 78, 85
6, 220220, Note_off_c, 4, 78, 64
6, 220231, Note_on_c, 4, 74, 85
6, 220269, Note_off_c, 4, 74, 64
6, 220295, Note_on_c, 4, 69, 91
6, 220592, Note_off_c, 4, 69, 64
6, 220604, Note_on_c, 4, 71, 85
6, 220641, Note_off_c, 4, 71, 64
6, 220664, Note_on_c, 4, 72, 85
6, 220703, Note_off_c, 4, 72, 64
6, 220724, Note_on_c, 4, 69, 95
6, 220765, Note_off_c, 4, 69, 64
6, 220790, Note_on_c, 4, 66, 87
6, 221068, Note_off_c, 4, 66, 64
6, 221087, Note_on_c, 4, 67, 80
6, 221129, Note_off_c, 4, 67, 64
6, 221149, Note_on_c, 4, 69, 82
6, 221183, Note_off_c, 4, 69, 64
6, 221203, Note_on_c, 4, 66, 91
6, 221238, Note_off_c, 4, 66, 64
6, 221266, Note_on_c, 4, 62, 102
6, 221570, Note_off_c, 4, 62, 64
6, 221631, Note_on_c, 4, 64, 66
6, 221661, Note_on_c, 4, 66, 80
6, 221673, Note_off_c, 4, 64, 64
6, 221694, Note_off_c, 4, 66, 64
6, 221697, Note_on_c, 4, 67, 89
6, 221718, Note_on_c, 4, 69, 87
6, 221738, Note_off_c, 4, 67, 64
6, 221738, Note_on_c, 4, 71, 82
6, 221757, Note_off_c, 4, 69, 64
6, 221761, Note_on_c, 4, 72, 87
6, 221772, Note_off_c, 4, 71, 64
6, 221852, Note_off_c, 4, 72, 64
6, 221934, Note_on_c, 4, 72, 85
6, 221974, Note_off_c, 4, 72, 64
6, 221989, Note_on_c, 4, 74, 93
6, 222073, Note_off_c, 4, 74, 64
6, 222172, Note_on_c, 4, 76, 85
6, 222211, Note_off_c, 4, 76, 64
6, 222231, Note_on_c, 4, 74, 95
6, 222314, Note_off_c, 4, 74, 64
6, 222413, Note_on_c, 4, 72, 80
6, 222452, Note_off_c, 4, 72, 64
6, 222472, Note_on_c, 4, 71, 85
6, 222562, Note_off_c, 4, 71, 64
6, 222656, Note_on_c, 4, 69, 85
6, 222690, Note_off_c, 4, 69, 64
6, 222713, Note_on_c, 4, 71, 85
6, 222891, Note_off_c, 4, 71, 64
6, 222960, Note_on_c, 4, 67, 66
6, 223124, Note_off_c, 4, 67, 64
6, 223188, Note_on_c, 4, 71, 66
6, 223573, Note_off_c, 4, 71, 64
6, 223616, Note_on_c, 4, 73, 78
6, 223656, Note_off_c, 4, 73, 64
6, 223675, Note_on_c, 4, 74, 82
6, 223931, Note_off_c, 4, 74, 64
6, 223962, Note_on_c, 4, 73, 72
6, 224008, Note_off_c, 4, 73, 64
6, 224019, Note_on_c, 4, 74, 76
6, 224063, Note_off_c, 4, 74, 64
6, 224078, Note_on_c, 4, 76, 85
6, 224113, Note_off_c, 4, 76, 64
6, 224141, Note_on_c, 4, 76, 87
6, 224202, Note_on_c, 4, 75, 80
6, 224204, Note_off_c, 4, 76, 64
6, 224228, Note_off_c, 4, 75, 64
6, 224231, Note_on_c, 4, 76, 68
6, 224258, Note_on_c, 4, 75, 58
6, 224260, Note_off_c, 4, 76, 64
6, 224276, Note_off_c, 4, 75, 64
6, 224278, Note_on_c, 4, 76, 63
6, 224301, Note_off_c, 4, 76, 64
6, 224301, Note_on_c, 4, 75, 58
6, 224316, Note_off_c, 4, 75, 64
6, 224317, Note_on_c, 4, 76, 68
6, 224339, Note_on_c, 4, 75, 66
6, 224342, Note_off_c, 4, 76, 64
6, 224358, Note_on_c, 4, 76, 78
6, 224360, Note_off_c, 4, 75, 64
6, 224381, Note_on_c, 4, 75, 87
6, 224386, Note_off_c, 4, 76, 64
6, 224510, Note_off_c, 4, 75, 64
6, 224567, Note_on_c, 4, 76, 82
6, 224603, Note_off_c, 4, 76, 64
6, 224628, Note_on_c, 4, 78, 95
6, 224884, Note_off_c, 4, 78, 64
6, 224930, Note_on_c, 4, 81, 82
6, 224967, Note_off_c, 4, 81, 64
6, 224990, Note_on_c, 4, 79, 85
6, 225025, Note_off_c, 4, 79, 64
6, 225047, Note_on_c, 4, 78, 72
6, 225093, Note_off_c, 4, 78, 64
6, 225115, Note_on_c, 4, 83, 91
6, 225213, Note_off_c, 4, 83, 64
6, 225302, Note_on_c, 4, 81, 78
6, 225338, Note_off_c, 4, 81, 64
6, 225358, Note_on_c, 4, 79, 82
6, 225446, Note_off_c, 4, 79, 64
6, 225539, Note_on_c, 4, 78, 63
6, 225579, Note_off_c, 4, 78, 64
6, 225598, Note_on_c, 4, 79, 82
6, 225689, Note_off_c, 4, 79, 64
6, 225778, Note_on_c, 4, 78, 70
6, 225819, Note_off_c, 4, 78, 64
6, 225836, Note_on_c, 4, 76, 82
6, 225923, Note_off_c, 4, 76, 64
6, 226022, Note_on_c, 4, 78, 76
6, 226055, Note_off_c, 4, 78, 64
6, 226081, Note_on_c, 4, 79, 82
6, 226147, Note_on_c, 4, 78, 72
6, 226153, Note_off_c, 4, 79, 64
6, 226177, Note_off_c, 4, 78, 64
6, 226177, Note_on_c, 4, 79, 74
6, 226202, Note_on_c, 4, 78, 63
6, 226206, Note_off_c, 4, 79, 64
6, 226225, Note_off_c, 4, 78, 64
6, 226227, Note_on_c, 4, 79, 64
6, 226243, Note_off_c, 4, 79, 64
6, 226244, Note_on_c, 4, 78, 53
6, 226260, Note_off_c, 4, 78, 64
6, 226263, Note_on_c, 4, 79, 72
6, 226281, Note_on_c, 4, 78, 59
6, 226287, Note_off_c, 4, 79, 64
6, 226299, Note_on_c, 4, 79, 72
6, 226300, Note_off_c, 4, 78, 64
6, 226319, Note_on_c, 4, 78, 87
6, 226323, Note_off_c, 4, 79, 64
6, 226429, Note_off_c, 4, 78, 64
6, 226494, Note_on_c, 4, 76, 85
6, 226523, Note_off_c, 4, 76, 64
6, 226558, Note_on_c, 4, 76, 85
6, 226809, Note_off_c, 4, 76, 64
6, 226848, Note_on_c, 4, 76, 85
6, 226885, Note_off_c, 4, 76, 64
6, 226907, Note_on_c, 4, 74, 87
6, 226939, Note_off_c, 4, 74, 64
6, 226962, Note_on_c, 4, 73, 80
6, 226998, Note_off_c, 4, 73, 64
6, 227027, Note_on_c, 4, 74, 91
6, 227115, Note_off_c, 4, 74, 64
6, 227216, Note_on_c, 4, 83, 91
6, 227255, Note_off_c, 4, 83, 64
6, 227273, Note_on_c, 4, 76, 87
6, 227355, Note_off_c, 4, 76, 64
6, 227451, Note_on_c, 4, 74, 85
6, 227493, Note_off_c, 4, 74, 64
6, 227515, Note_on_c, 4, 73, 82
6, 227620, Note_off_c, 4, 73, 64
6, 227692, Note_on_c, 4, 69, 85
6, 227742, Note_off_c, 4, 69, 64
6, 227755, Note_on_c, 4, 73, 80
6, 227830, Note_off_c, 4, 73, 64
6, 227923, Note_on_c, 4, 76, 80
6, 227968, Note_off_c, 4, 76, 64
6, 227991, Note_on_c, 4, 81, 91
6, 228363, Note_off_c, 4, 81, 64
6, 228417, Note_on_c, 4, 81, 91
6, 228447, Note_off_c, 4, 81, 64
6, 228474, Note_on_c, 4, 81, 98
6, 228797, Note_off_c, 4, 81, 64
6, 228830, Note_on_c, 4, 71, 82
6, 228856, Note_on_c, 4, 73, 78
6, 228874, Note_off_c, 4, 71, 64
6, 228881, Note_on_c, 4, 74, 80
6, 228889, Note_off_c, 4, 73, 64
6, 228900, Note_on_c, 4, 76, 85
6, 228921, Note_off_c, 4, 74, 64
6, 228922, Note_on_c, 4, 78, 85
6, 228938, Note_off_c, 4, 76, 64
6, 228949, Note_on_c, 4, 79, 89
6, 228957, Note_off_c, 4, 78, 64
6, 229314, Note_off_c, 4, 79, 64
6, 229375, Note_on_c, 4, 79, 85
6, 229407, Note_off_c, 4, 79, 64
6, 229435, Note_on_c, 4, 79, 89
6, 229783, Note_off_c, 4, 79, 64
6, 229813, Note_on_c, 4, 78, 66
6, 229830, Note_on_c, 4, 76, 82
6, 229849, Note_off_c, 4, 78, 64
6, 229856, Note_on_c, 4, 74, 72
6, 229860, Note_on_c, 4, 73, 60
6, 229871, Note_off_c, 4, 76, 64
6, 229883, Note_on_c, 4, 71, 91
6, 229899, Note_off_c, 4, 73, 64
6, 229903, Note_off_c, 4, 74, 64
6, 229915, Note_off_c, 4, 71, 64
6, 229916, Note_on_c, 4, 69, 57
6, 230057, Note_off_c, 4, 69, 64
6, 230096, Note_on_c, 4, 67, 70
6, 230124, Note_on_c, 4, 66, 78
6, 230130, Note_off_c, 4, 67, 64
6, 230152, Note_off_c, 4, 66, 64
6, 230161, Note_on_c, 4, 67, 85
6, 230255, Note_off_c, 4, 67, 64
6, 230331, Note_on_c, 4, 76, 87
6, 230363, Note_off_c, 4, 76, 64
6, 230396, Note_on_c, 4, 66, 78
6, 230654, Note_off_c, 4, 66, 64
6, 230692, Note_on_c, 4, 67, 82
6, 230727, Note_off_c, 4, 67, 64
6, 230753, Note_on_c, 4, 69, 80
6, 230794, Note_off_c, 4, 69, 64
6, 230810, Note_on_c, 4, 71, 85
6, 230843, Note_off_c, 4, 71, 64
6, 230875, Note_on_c, 4, 72, 80
6, 231238, Note_off_c, 4, 72, 64
6, 231288, Note_on_c, 4, 74, 87
6, 231322, Note_off_c, 4, 74, 64
6, 231351, Note_on_c, 4, 71, 87
6, 231626, Note_off_c, 4, 71, 64
6, 231653, Note_on_c, 4, 69, 80
6, 231696, Note_off_c, 4, 69, 64
6, 231712, Note_on_c, 4, 67, 82
6, 231745, Note_off_c, 4, 67, 64
6, 231768, Note_on_c, 4, 66, 93
6, 231807, Note_off_c, 4, 66, 64
6, 231829, Note_on_c, 4, 64, 85
6, 231875, Note_off_c, 4, 64, 64
6, 231887, Note_on_c, 4, 66, 85
6, 231929, Note_off_c, 4, 66, 64
6, 231949, Note_on_c, 4, 67, 85
6, 231994, Note_off_c, 4, 67, 64
6, 232009, Note_on_c, 4, 69, 82
6, 232053, Note_off_c, 4, 69, 64
6, 232072, Note_on_c, 4, 71, 87
6, 232124, Note_off_c, 4, 71, 64
6, 232133, Note_on_c, 4, 73, 70
6, 232182, Note_off_c, 4, 73, 64
6, 232193, Note_on_c, 4, 74, 95
6, 232235, Note_off_c, 4, 74, 64
6, 232251, Note_on_c, 4, 71, 74
6, 232303, Note_off_c, 4, 71, 64
6, 232303, End_track
7, 0, Start_track
7, 0, Title_t, "Oboe"
7, 0, Program_c, 5, 68
7, 0, Control_c, 5, 7, 100
7, 954, Note_on_c, 5, 62, 85
7, 1213, Note_off_c, 5, 62, 64
7, 1254, Note_on_c, 5, 66, 89
7, 1287, Note_off_c, 5, 66, 64
7, 1315, Note_on_c, 5, 64, 85
7, 1348, Note_off_c, 5, 64, 64
7, 1374, Note_on_c, 5, 62, 87
7, 1403, Note_off_c, 5, 62, 64
7, 1437, Note_on_c, 5, 71, 89
7, 1709, Note_off_c, 5, 71, 64
7, 1743, Note_on_c, 5, 74, 87
7, 1781, Note_off_c, 5, 74, 64
7, 1799, Note_on_c, 5, 73, 80
7, 1835, Note_off_c, 5, 73, 64
7, 1852, Note_on_c, 5, 71, 89
7, 1901, Note_off_c, 5, 71, 64
7, 1917, Note_on_c, 5, 79, 91
7, 2183, Note_off_c, 5, 79, 64
7, 2216, Note_on_c, 5, 76, 87
7, 2252, Note_off_c, 5, 76, 64
7, 2270, Note_on_c, 5, 78, 98
7, 2304, Note_off_c, 5, 78, 64
7, 2323, Note_on_c, 5, 79, 89
7, 2359, Note_off_c, 5, 79, 64
7, 2387, Note_on_c, 5, 73, 80
7, 2660, Note_off_c, 5, 73, 64
7, 2685, Note_on_c, 5, 69, 85
7, 2726, Note_off_c, 5, 69, 64
7, 2739, Note_on_c, 5, 71, 80
7, 2782, Note_off_c, 5, 71, 64
7, 2797, Note_on_c, 5, 73, 87
7, 2841, Note_off_c, 5, 73, 64
7, 2865, Note_on_c, 5, 64, 91
7, 3234, Note_off_c, 5, 64, 64
7, 3298, Note_on_c, 5, 64, 95
7, 3346, Note_off_c, 5, 64, 64
7, 3360, Note_on_c, 5, 76, 95
7, 3460, Note_off_c, 5, 76, 64
7, 3531, Note_on_c, 5, 73, 63
7, 3572, Note_off_c, 5, 73, 64
7, 3592, Note_on_c, 5, 69, 85
7, 3689, Note_off_c, 5, 69, 64
7, 3774, Note_on_c, 5, 67, 82
7, 3813, Note_off_c, 5, 67, 64
7, 3833, Note_on_c, 5, 66, 80
7, 3937, Note_off_c, 5, 66, 64
7, 4015, Note_on_c, 5, 62, 82
7, 4058, Note_off_c, 5, 62, 64
7, 4078, Note_on_c, 5, 66, 80
7, 4179, Note_off_c, 5, 66, 64
7, 4251, Note_on_c, 5, 69, 82
7, 4293, Note_off_c, 5, 69, 64
7, 4315, Note_on_c, 5, 74, 91
7, 4407, Note_off_c, 5, 74, 64
7, 4484, Note_on_c, 5, 69, 80
7, 4525, Note_off_c, 5, 69, 64
7, 4548, Note_on_c, 5, 74, 87
7, 4644, Note_off_c, 5, 74, 64
7, 4730, Note_on_c, 5, 76, 87
7, 4757, Note_off_c, 5, 76, 64
7, 4792, Note_on_c, 5, 78, 95
7, 5076, Note_off_c, 5, 78, 64
7, 5096, Note_on_c, 5, 79, 87
7, 5133, Note_off_c, 5, 79, 64
7, 5149, Note_on_c, 5, 81, 85
7, 5188, Note_off_c, 5, 81, 64
7, 5197, Note_on_c, 5, 78, 78
7, 5237, Note_off_c, 5, 78, 64
7, 5261, Note_on_c, 5, 83, 89
7, 5530, Note_off_c, 5, 83, 64
7, 5565, Note_on_c, 5, 80, 87
7, 5604, Note_off_c, 5, 80, 64
7, 5625, Note_on_c, 5, 81, 82
7, 5668, Note_off_c, 5, 81, 64
7, 5681, Note_on_c, 5, 83, 89
7, 5717, Note_off_c, 5, 83, 64
7, 5744, Note_on_c, 5, 76, 82
7, 6009, Note_off_c, 5, 76, 64
7, 6047, Note_on_c, 5, 76, 95
7, 6090, Note_off_c, 5, 76, 64
7, 6108, Note_on_c, 5, 78, 85
7, 6150, Note_off_c, 5, 78, 64
7, 6163, Note_on_c, 5, 80, 93
7, 6201, Note_off_c, 5, 80, 64
7, 6227, Note_on_c, 5, 81, 85
7, 6321, Note_off_c, 5, 81, 64
7, 6404, Note_on_c, 5, 76, 85
7, 6445, Note_off_c, 5, 76, 64
7, 6464, Note_on_c, 5, 73, 87
7, 6563, Note_off_c, 5, 73, 64
7, 6650, Note_on_c, 5, 69, 87
7, 6683, Note_off_c, 5, 69, 64
7, 6715, Note_on_c, 5, 74, 93
7, 7080, Note_off_c, 5, 74, 64
7, 7133, Note_on_c, 5, 74, 95
7, 7167, Note_off_c, 5, 74, 64
7, 7198, Note_on_c, 5, 74, 95
7, 7335, Note_off_c, 5, 74, 64
7, 7373, Note_on_c, 5, 76, 66
7, 7392, Note_on_c, 5, 78, 74
7, 7398, Note_off_c, 5, 76, 64
7, 7417, Note_off_c, 5, 78, 64
7, 7430, Note_on_c, 5, 76, 91
7, 7543, Note_off_c, 5, 76, 64
7, 7606, Note_on_c, 5, 74, 85
7, 7645, Note_off_c, 5, 74, 64
7, 7668, Note_on_c, 5, 73, 80
7, 7776, Note_off_c, 5, 73, 64
7, 7844, Note_on_c, 5, 69, 85
7, 7887, Note_off_c, 5, 69, 64
7, 7906, Note_on_c, 5, 73, 87
7, 8003, Note_off_c, 5, 73, 64
7, 8090, Note_on_c, 5, 76, 66
7, 8129, Note_off_c, 5, 76, 64
7, 8157, Note_on_c, 5, 81, 95
7, 8295, Note_off_c, 5, 81, 64
7, 8329, Note_on_c, 5, 79, 74
7, 8352, Note_on_c, 5, 78, 89
7, 8361, Note_off_c, 5, 79, 64
7, 8380, Note_off_c, 5, 78, 64
7, 8390, Note_on_c, 5, 79, 91
7, 8487, Note_off_c, 5, 79, 64
7, 8577, Note_on_c, 5, 76, 82
7, 8617, Note_off_c, 5, 76, 64
7, 8637, Note_on_c, 5, 83, 87
7, 8992, Note_off_c, 5, 83, 64
7, 9052, Note_on_c, 5, 75, 85
7, 9091, Note_off_c, 5, 75, 64
7, 9110, Note_on_c, 5, 76, 95
7, 9228, Note_off_c, 5, 76, 64
7, 9281, Note_on_c, 5, 78, 80
7, 9314, Note_off_c, 5, 78, 64
7, 9342, Note_on_c, 5, 79, 85
7, 9383, Note_on_c, 5, 78, 80
7, 9387, Note_off_c, 5, 79, 64
7, 9406, Note_off_c, 5, 78, 64
7, 9408, Note_on_c, 5, 79, 66
7, 9430, Note_on_c, 5, 78, 72
7, 9433, Note_off_c, 5, 79, 64
7, 9450, Note_off_c, 5, 78, 64
7, 9451, Note_on_c, 5, 79, 74
7, 9471, Note_on_c, 5, 78, 72
7, 9493, Note_off_c, 5, 79, 64
7, 9505, Note_on_c, 5, 76, 57
7, 9516, Note_off_c, 5, 78, 64
7, 9539, Note_on_c, 5, 78, 87
7, 9553, Note_off_c, 5, 76, 64
7, 9567, Note_off_c, 5, 78, 64
7, 9580, Note_on_c, 5, 79, 85
7, 9844, Note_off_c, 5, 79, 64
7, 9878, Note_on_c, 5, 78, 87
7, 9907, Note_off_c, 5, 78, 64
7, 9932, Note_on_c, 5, 76, 82
7, 9972, Note_off_c, 5, 76, 64
7, 9992, Note_on_c, 5, 74, 85
7, 10027, Note_off_c, 5, 74, 64
7, 10054, Note_on_c, 5, 72, 85
7, 10162, Note_off_c, 5, 72, 64
7, 10241, Note_on_c, 5, 72, 80
7, 10284, Note_off_c, 5, 72, 64
7, 10302, Note_on_c, 5, 74, 87
7, 10394, Note_off_c, 5, 74, 64
7, 10486, Note_on_c, 5, 76, 82
7, 10524, Note_off_c, 5, 76, 64
7, 10550, Note_on_c, 5, 71, 93
7, 10665, Note_on_c, 5, 70, 63
7, 10677, Note_off_c, 5, 71, 64
7, 10885, Note_off_c, 5, 70, 64
7, 10981, Note_on_c, 5, 79, 87
7, 11021, Note_off_c, 5, 79, 64
7, 11034, Note_on_c, 5, 78, 91
7, 11128, Note_off_c, 5, 78, 64
7, 11211, Note_on_c, 5, 76, 76
7, 11254, Note_off_c, 5, 76, 64
7, 11269, Note_on_c, 5, 74, 82
7, 11369, Note_off_c, 5, 74, 64
7, 11449, Note_on_c, 5, 73, 76
7, 11502, Note_off_c, 5, 73, 64
7, 11510, Note_on_c, 5, 74, 89
7, 11615, Note_off_c, 5, 74, 64
7, 11686, Note_on_c, 5, 73, 76
7, 11737, Note_off_c, 5, 73, 64
7, 11749, Note_on_c, 5, 71, 80
7, 11864, Note_off_c, 5, 71, 64
7, 11924, Note_on_c, 5, 73, 72
7, 11974, Note_off_c, 5, 73, 64
7, 11989, Note_on_c, 5, 74, 85
7, 12057, Note_on_c, 5, 73, 64
7, 12061, Note_off_c, 5, 74, 64
7, 12089, Note_on_c, 5, 74, 68
7, 12091, Note_off_c, 5, 73, 64
7, 12123, Note_on_c, 5, 73, 62
7, 12125, Note_off_c, 5, 74, 64
7, 12144, Note_off_c, 5, 73, 64
7, 12144, Note_on_c, 5, 74, 68
7, 12168, Note_off_c, 5, 74, 64
7, 12168, Note_on_c, 5, 73, 57
7, 12188, Note_off_c, 5, 73, 64
7, 12188, Note_on_c, 5, 74, 78
7, 12207, Note_on_c, 5, 73, 66
7, 12212, Note_off_c, 5, 74, 64
7, 12226, Note_on_c, 5, 74, 85
7, 12231, Note_off_c, 5, 73, 64
7, 12244, Note_on_c, 5, 73, 74
7, 12254, Note_off_c, 5, 74, 64
7, 12365, Note_off_c, 5, 73, 64
7, 12415, Note_on_c, 5, 71, 78
7, 12445, Note_off_c, 5, 71, 64
7, 12474, Note_on_c, 5, 71, 78
7, 12730, Note_off_c, 5, 71, 64
7, 12769, Note_on_c, 5, 71, 85
7, 12803, Note_off_c, 5, 71, 64
7, 12825, Note_on_c, 5, 69, 85
7, 12872, Note_off_c, 5, 69, 64
7, 12879, Note_on_c, 5, 68, 76
7, 12918, Note_off_c, 5, 68, 64
7, 12946, Note_on_c, 5, 69, 89
7, 13046, Note_off_c, 5, 69, 64
7, 13125, Note_on_c, 5, 78, 68
7, 13169, Note_off_c, 5, 78, 64
7, 13191, Note_on_c, 5, 71, 87
7, 13284, Note_off_c, 5, 71, 64
7, 13368, Note_on_c, 5, 69, 80
7, 13410, Note_off_c, 5, 69, 64
7, 13431, Note_on_c, 5, 68, 70
7, 13528, Note_off_c, 5, 68, 64
7, 13607, Note_on_c, 5, 64, 70
7, 13657, Note_off_c, 5, 64, 64
7, 13675, Note_on_c, 5, 68, 76
7, 13761, Note_off_c, 5, 68, 64
7, 13856, Note_on_c, 5, 71, 78
7, 13897, Note_off_c, 5, 71, 64
7, 13921, Note_on_c, 5, 76, 76
7, 14273, Note_off_c, 5, 76, 64
7, 14336, Note_on_c, 5, 76, 89
7, 14367, Note_off_c, 5, 76, 64
7, 14399, Note_on_c, 5, 76, 85
7, 14658, Note_off_c, 5, 76, 64
7, 14688, Note_on_c, 5, 69, 80
7, 14733, Note_off_c, 5, 69, 64
7, 14745, Note_on_c, 5, 71, 78
7, 14787, Note_off_c, 5, 71, 64
7, 14806, Note_on_c, 5, 73, 72
7, 14848, Note_off_c, 5, 73, 64
7, 14865, Note_on_c, 5, 74, 78
7, 14907, Note_off_c, 5, 74, 64
7, 14924, Note_on_c, 5, 73, 78
7, 14965, Note_off_c, 5, 73, 64
7, 14985, Note_on_c, 5, 74, 58
7, 15033, Note_off_c, 5, 74, 64
7, 15041, Note_on_c, 5, 76, 70
7, 15084, Note_off_c, 5, 76, 64
7, 15102, Note_on_c, 5, 78, 80
7, 15149, Note_off_c, 5, 78, 64
7, 15157, Note_on_c, 5, 76, 80
7, 15203, Note_off_c, 5, 76, 64
7, 15227, Note_on_c, 5, 78, 66
7, 15267, Note_off_c, 5, 78, 64
7, 15286, Note_on_c, 5, 80, 87
7, 15324, Note_off_c, 5, 80, 64
7, 15351, Note_on_c, 5, 81, 87
7, 15406, Note_off_c, 5, 81, 64
7, 15409, Note_on_c, 5, 80, 66
7, 15494, Note_off_c, 5, 80, 64
7, 15583, Note_on_c, 5, 78, 89
7, 15640, Note_off_c, 5, 78, 64
7, 15651, Note_on_c, 5, 76, 82
7, 15733, Note_off_c, 5, 76, 64
7, 15826, Note_on_c, 5, 83, 82
7, 16181, Note_off_c, 5, 83, 64
7, 16245, Note_on_c, 5, 74, 72
7, 16284, Note_off_c, 5, 74, 64
7, 16309, Note_on_c, 5, 73, 72
7, 16646, Note_off_c, 5, 73, 64
7, 16724, Note_on_c, 5, 71, 80
7, 16760, Note_off_c, 5, 71, 64
7, 16786, Note_on_c, 5, 73, 87
7, 16842, Note_on_c, 5, 71, 58
7, 16849, Note_off_c, 5, 73, 64
7, 16872, Note_off_c, 5, 71, 64
7, 16874, Note_on_c, 5, 73, 56
7, 16900, Note_off_c, 5, 73, 64
7, 16900, Note_on_c, 5, 71, 57
7, 16923, Note_off_c, 5, 71, 64
7, 16923, Note_on_c, 5, 73, 64
7, 16946, Note_on_c, 5, 71, 60
7, 16947, Note_off_c, 5, 73, 64
7, 16969, Note_on_c, 5, 73, 72
7, 16971, Note_off_c, 5, 71, 64
7, 16988, Note_on_c, 5, 71, 68
7, 16992, Note_off_c, 5, 73, 64
7, 17010, Note_on_c, 5, 73, 76
7, 17013, Note_off_c, 5, 71, 64
7, 17029, Note_on_c, 5, 71, 87
7, 17037, Note_off_c, 5, 73, 64
7, 17163, Note_off_c, 5, 71, 64
7, 17208, Note_on_c, 5, 69, 85
7, 17243, Note_off_c, 5, 69, 64
7, 17277, Note_on_c, 5, 69, 78
7, 17541, Note_off_c, 5, 69, 64
7, 23994, Note_on_c, 5, 62, 85
7, 24253, Note_off_c, 5, 62, 64
7, 24294, Note_on_c, 5, 66, 89
7, 24327, Note_off_c, 5, 66, 64
7, 24355, Note_on_c, 5, 64, 85
7, 24388, Note_off_c, 5, 64, 64
7, 24414, Note_on_c, 5, 62, 87
7, 24443, Note_off_c, 5, 62, 64
7, 24477, Note_on_c, 5, 71, 89
7, 24749, Note_off_c, 5, 71, 64
7, 24783, Note_on_c, 5, 74, 87
7, 24821, Note_off_c, 5, 74, 64
7, 24839, Note_on_c, 5, 73, 80
7, 24875, Note_off_c, 5, 73, 64
7, 24892, Note_on_c, 5, 71, 89
7, 24941, Note_off_c, 5, 71, 64
7, 24957, Note_on_c, 5, 79, 91
7, 25223, Note_off_c, 5, 79, 64
7, 25256, Note_on_c, 5, 76, 87
7, 25292, Note_off_c, 5, 76, 64
7, 25310, Note_on_c, 5, 78, 98
7, 25344, Note_off_c, 5, 78, 64
7, 25363, Note_on_c, 5, 79, 89
7, 25399, Note_off_c, 5, 79, 64
7, 25427, Note_on_c, 5, 73, 80
7, 25700, Note_off_c, 5, 73, 64
7, 25725, Note_on_c, 5, 69, 85
7, 25766, Note_off_c, 5, 69, 64
7, 25779, Note_on_c, 5, 71, 80
7, 25822, Note_off_c, 5, 71, 64
7, 25837, Note_on_c, 5, 73, 87
7, 25881, Note_off_c, 5, 73, 64
7, 25905, Note_on_c, 5, 64, 91
7, 26274, Note_off_c, 5, 64, 64
7, 26338, Note_on_c, 5, 64, 95
7, 26386, Note_off_c, 5, 64, 64
7, 26400, Note_on_c, 5, 76, 95
7, 26500, Note_off_c, 5, 76, 64
7, 26571, Note_on_c, 5, 73, 63
7, 26612, Note_off_c, 5, 73, 64
7, 26632, Note_on_c, 5, 69, 85
7, 26729, Note_off_c, 5, 69, 64
7, 26814, Note_on_c, 5, 67, 82
7, 26853, Note_off_c, 5, 67, 64
7, 26873, Note_on_c, 5, 66, 80
7, 26977, Note_off_c, 5, 66, 64
7, 27055, Note_on_c, 5, 62, 82
7, 27098, Note_off_c, 5, 62, 64
7, 27118, Note_on_c, 5, 66, 80
7, 27219, Note_off_c, 5, 66, 64
7, 27291, Note_on_c, 5, 69, 82
7, 27333, Note_off_c, 5, 69, 64
7, 27355, Note_on_c, 5, 74, 91
7, 27447, Note_off_c, 5, 74, 64
7, 27524, Note_on_c, 5, 69, 80
7, 27565, Note_off_c, 5, 69, 64
7, 27588, Note_on_c, 5, 74, 87
7, 27684, Note_off_c, 5, 74, 64
7, 27770, Note_on_c, 5, 76, 87
7, 27797, Note_off_c, 5, 76, 64
7, 27832, Note_on_c, 5, 78, 95
7, 28116, Note_off_c, 5, 78, 64
7, 28136, Note_on_c, 5, 79, 87
7, 28173, Note_off_c, 5, 79, 64
7, 28189, Note_on_c, 5, 81, 85
7, 28228, Note_off_c, 5, 81, 64
7, 28237, Note_on_c, 5, 78, 78
7, 28277, Note_off_c, 5, 78, 64
7, 28301, Note_on_c, 5, 83, 89
7, 28570, Note_off_c, 5, 83, 64
7, 28605, Note_on_c, 5, 80, 87
7, 28644, Note_off_c, 5, 80, 64
7, 28665, Note_on_c, 5, 81, 82
7, 28708, Note_off_c, 5, 81, 64
7, 28721, Note_on_c, 5, 83, 89
7, 28757, Note_off_c, 5, 83, 64
7, 28784, Note_on_c, 5, 76, 82
7, 29049, Note_off_c, 5, 76, 64
7, 29087, Note_on_c, 5, 76, 95
7, 29130, Note_off_c, 5, 76, 64
7, 29148, Note_on_c, 5, 78, 85
7, 29190, Note_off_c, 5, 78, 64
7, 29203, Note_on_c, 5, 80, 93
7, 29241, Note_off_c, 5, 80, 64
7, 29267, Note_on_c, 5, 81, 85
7, 29361, Note_off_c, 5, 81, 64
7, 29444, Note_on_c, 5, 76, 85
7, 29485, Note_off_c, 5, 76, 64
7, 29504, Note_on_c, 5, 73, 87
7, 29603, Note_off_c, 5, 73, 64
7, 29690, Note_on_c, 5, 69, 87
7, 29723, Note_off_c, 5, 69, 64
7, 29755, Note_on_c, 5, 74, 93
7, 30120, Note_off_c, 5, 74, 64
7, 30173, Note_on_c, 5, 74, 95
7, 30207, Note_off_c, 5, 74, 64
7, 30238, Note_on_c, 5, 74, 95
7, 30375, Note_off_c, 5, 74, 64
7, 30413, Note_on_c, 5, 76, 66
7, 30432, Note_on_c, 5, 78, 74
7, 30438, Note_off_c, 5, 76, 64
7, 30457, Note_off_c, 5, 78, 64
7, 30470, Note_on_c, 5, 76, 91
7, 30583, Note_off_c, 5, 76, 64
7, 30646, Note_on_c, 5, 74, 85
7, 30685, Note_off_c, 5, 74, 64
7, 30708, Note_on_c, 5, 73, 80
7, 30816, Note_off_c, 5, 73, 64
7, 30884, Note_on_c, 5, 69, 85
7, 30927, Note_off_c, 5, 69, 64
7, 30946, Note_on_c, 5, 73, 87
7, 31043, Note_off_c, 5, 73, 64
7, 31130, Note_on_c, 5, 76, 66
7, 31169, Note_off_c, 5, 76, 64
7, 31197, Note_on_c, 5, 81, 95
7, 31335, Note_off_c, 5, 81, 64
7, 31369, Note_on_c, 5, 79, 74
7, 31392, Note_on_c, 5, 78, 89
7, 31401, Note_off_c, 5, 79, 64
7, 31420, Note_off_c, 5, 78, 64
7, 31430, Note_on_c, 5, 79, 91
7, 31527, Note_off_c, 5, 79, 64
7, 31617, Note_on_c, 5, 76, 82
7, 31657, Note_off_c, 5, 76, 64
7, 31677, Note_on_c, 5, 83, 87
7, 32032, Note_off_c, 5, 83, 64
7, 32092, Note_on_c, 5, 75, 85
7, 32131, Note_off_c, 5, 75, 64
7, 32150, Note_on_c, 5, 76, 95
7, 32268, Note_off_c, 5, 76, 64
7, 32321, Note_on_c, 5, 78, 80
7, 32354, Note_off_c, 5, 78, 64
7, 32382, Note_on_c, 5, 79, 85
7, 32423, Note_on_c, 5, 78, 80
7, 32427, Note_off_c, 5, 79, 64
7, 32446, Note_off_c, 5, 78, 64
7, 32448, Note_on_c, 5, 79, 66
7, 32470, Note_on_c, 5, 78, 72
7, 32473, Note_off_c, 5, 79, 64
7, 32490, Note_off_c, 5, 78, 64
7, 32491, Note_on_c, 5, 79, 74
7, 32511, Note_on_c, 5, 78, 72
7, 32533, Note_off_c, 5, 79, 64
7, 32545, Note_on_c, 5, 76, 57
7, 32556, Note_off_c, 5, 78, 64
7, 32579, Note_on_c, 5, 78, 87
7, 32593, Note_off_c, 5, 76, 64
7, 32607, Note_off_c, 5, 78, 64
7, 32620, Note_on_c, 5, 79, 85
7, 32884, Note_off_c, 5, 79, 64
7, 32918, Note_on_c, 5, 78, 87
7, 32947, Note_off_c, 5, 78, 64
7, 32972, Note_on_c, 5, 76, 82
7, 33012, Note_off_c, 5, 76, 64
7, 33032, Note_on_c, 5, 74, 85
7, 33067, Note_off_c, 5, 74, 64
7, 33094, Note_on_c, 5, 72, 85
7, 33202, Note_off_c, 5, 72, 64
7, 33281, Note_on_c, 5, 72, 80
7, 33324, Note_off_c, 5, 72, 64
7, 33342, Note_on_c, 5, 74, 87
7, 33434, Note_off_c, 5, 74, 64
7, 33526, Note_on_c, 5, 76, 82
7, 33564, Note_off_c, 5, 76, 64
7, 33590, Note_on_c, 5, 71, 93
7, 33705, Note_on_c, 5, 70, 63
7, 33717, Note_off_c, 5, 71, 64
7, 33925, Note_off_c, 5, 70, 64
7, 34021, Note_on_c, 5, 79, 87
7, 34061, Note_off_c, 5, 79, 64
7, 34074, Note_on_c, 5, 78, 91
7, 34168, Note_off_c, 5, 78, 64
7, 34251, Note_on_c, 5, 76, 76
7, 34294, Note_off_c, 5, 76, 64
7, 34309, Note_on_c, 5, 74, 82
7, 34409, Note_off_c, 5, 74, 64
7, 34489, Note_on_c, 5, 73, 76
7, 34542, Note_off_c, 5, 73, 64
7, 34550, Note_on_c, 5, 74, 89
7, 34655, Note_off_c, 5, 74, 64
7, 34726, Note_on_c, 5, 73, 76
7, 34777, Note_off_c, 5, 73, 64
7, 34789, Note_on_c, 5, 71, 80
7, 34904, Note_off_c, 5, 71, 64
7, 34964, Note_on_c, 5, 73, 72
7, 35014, Note_off_c, 5, 73, 64
7, 35029, Note_on_c, 5, 74, 85
7, 35097, Note_on_c, 5, 73, 64
7, 35101, Note_off_c, 5, 74, 64
7, 35129, Note_on_c, 5, 74, 68
7, 35131, Note_off_c, 5, 73, 64
7, 35163, Note_on_c, 5, 73, 62
7, 35165, Note_off_c, 5, 74, 64
7, 35184, Note_off_c, 5, 73, 64
7, 35184, Note_on_c, 5, 74, 68
7, 35208, Note_off_c, 5, 74, 64
7, 35208, Note_on_c, 5, 73, 57
7, 35228, Note_off_c, 5, 73, 64
7, 35228, Note_on_c, 5, 74, 78
7, 35247, Note_on_c, 5, 73, 66
7, 35252, Note_off_c, 5, 74, 64
7, 35266, Note_on_c, 5, 74, 85
7, 35271, Note_off_c, 5, 73, 64
7, 35284, Note_on_c, 5, 73, 74
7, 35294, Note_off_c, 5, 74, 64
7, 35405, Note_off_c, 5, 73, 64
7, 35455, Note_on_c, 5, 71, 78
7, 35485, Note_off_c, 5, 71, 64
7, 35514, Note_on_c, 5, 71, 78
7, 35770, Note_off_c, 5, 71, 64
7, 35809, Note_on_c, 5, 71, 85
7, 35843, Note_off_c, 5, 71, 64
7, 35865, Note_on_c, 5, 69, 85
7, 35912, Note_off_c, 5, 69, 64
7, 35919, Note_on_c, 5, 68, 76
7, 35958, Note_off_c, 5, 68, 64
7, 35986, Note_on_c, 5, 69, 89
7, 36086, Note_off_c, 5, 69, 64
7, 36165, Note_on_c, 5, 78, 68
7, 36209, Note_off_c, 5, 78, 64
7, 36231, Note_on_c, 5, 71, 87
7, 36324, Note_off_c, 5, 71, 64
7, 36408, Note_on_c, 5, 69, 80
7, 36450, Note_off_c, 5, 69, 64
7, 36471, Note_on_c, 5, 68, 70
7, 36568, Note_off_c, 5, 68, 64
7, 36647, Note_on_c, 5, 64, 70
7, 36697, Note_off_c, 5, 64, 64
7, 36715, Note_on_c, 5, 68, 76
7, 36801, Note_off_c, 5, 68, 64
7, 36896, Note_on_c, 5, 71, 78
7, 36937, Note_off_c, 5, 71, 64
7, 36961, Note_on_c, 5, 76, 76
7, 37313, Note_off_c, 5, 76, 64
7, 37376, Note_on_c, 5, 76, 89
7, 37407, Note_off_c, 5, 76, 64
7, 37439, Note_on_c, 5, 76, 85
7, 37698, Note_off_c, 5, 76, 64
7, 37728, Note_on_c, 5, 69, 80
7, 37773, Note_off_c, 5, 69, 64
7, 37785, Note_on_c, 5, 71, 78
7, 37827, Note_off_c, 5, 71, 64
7, 37846, Note_on_c, 5, 73, 72
7, 37888, Note_off_c, 5, 73, 64
7, 37905, Note_on_c, 5, 74, 78
7, 37947, Note_off_c, 5, 74, 64
7, 37964, Note_on_c, 5, 73, 78
7, 38005, Note_off_c, 5, 73, 64
7, 38025, Note_on_c, 5, 74, 58
7, 38073, Note_off_c, 5, 74, 64
7, 38081, Note_on_c, 5, 76, 70
7, 38124, Note_off_c, 5, 76, 64
7, 38142, Note_on_c, 5, 78, 80
7, 38189, Note_off_c, 5, 78, 64
7, 38197, Note_on_c, 5, 76, 80
7, 38243, Note_off_c, 5, 76, 64
7, 38267, Note_on_c, 5, 78, 66
7, 38307, Note_off_c, 5, 78, 64
7, 38326, Note_on_c, 5, 80, 87
7, 38364, Note_off_c, 5, 80, 64
7, 38391, Note_on_c, 5, 81, 87
7, 38446, Note_off_c, 5, 81, 64
7, 38449, Note_on_c, 5, 80, 66
7, 38534, Note_off_c, 5, 80, 64
7, 38623, Note_on_c, 5, 78, 89
7, 38680, Note_off_c, 5, 78, 64
7, 38691, Note_on_c, 5, 76, 82
7, 38773, Note_off_c, 5, 76, 64
7, 38866, Note_on_c, 5, 83, 82
7, 39221, Note_off_c, 5, 83, 64
7, 39285, Note_on_c, 5, 74, 72
7, 39324, Note_off_c, 5, 74, 64
7, 39349, Note_on_c, 5, 73, 72
7, 39686, Note_off_c, 5, 73, 64
7, 39764, Note_on_c, 5, 71, 80
7, 39800, Note_off_c, 5, 71, 64
7, 39826, Note_on_c, 5, 73, 87
7, 39882, Note_on_c, 5, 71, 58
7, 39889, Note_off_c, 5, 73, 64
7, 39912, Note_off_c, 5, 71, 64
7, 39914, Note_on_c, 5, 73, 56
7, 39940, Note_off_c, 5, 73, 64
7, 39940, Note_on_c, 5, 71, 57
7, 39963, Note_off_c, 5, 71, 64
7, 39963, Note_on_c, 5, 73, 64
7, 39986, Note_on_c, 5, 71, 60
7, 39987, Note_off_c, 5, 73, 64
7, 40009, Note_on_c, 5, 73, 72
7, 40011, Note_off_c, 5, 71, 64
7, 40028, Note_on_c, 5, 71, 68
7, 40032, Note_off_c, 5, 73, 64
7, 40050, Note_on_c, 5, 73, 76
7, 40053, Note_off_c, 5, 71, 64
7, 40069, Note_on_c, 5, 71, 87
7, 40077, Note_off_c, 5, 73, 64
7, 40203, Note_off_c, 5, 71, 64
7, 40248, Note_on_c, 5, 69, 85
7, 40283, Note_off_c, 5, 69, 64
7, 40317, Note_on_c, 5, 69, 78
7, 40581, Note_off_c, 5, 69, 64
7, 47627, Note_on_c, 5, 62, 76
7, 47678, Note_on_c, 5, 64, 70
7, 47681, Note_off_c, 5, 62, 64
7, 47728, Note_off_c, 5, 64, 64
7, 47740, Note_on_c, 5, 66, 80
7, 47808, Note_off_c, 5, 66, 64
7, 47878, Note_on_c, 5, 66, 58
7, 47928, Note_off_c, 5, 66, 64
7, 47930, Note_on_c, 5, 67, 60
7, 47975, Note_off_c, 5, 67, 64
7, 47992, Note_on_c, 5, 69, 89
7, 48058, Note_off_c, 5, 69, 64
7, 48112, Note_on_c, 5, 66, 64
7, 48159, Note_off_c, 5, 66, 64
7, 48166, Note_on_c, 5, 67, 66
7, 48213, Note_off_c, 5, 67, 64
7, 48235, Note_on_c, 5, 69, 87
7, 48300, Note_off_c, 5, 69, 64
7, 48358, Note_on_c, 5, 69, 63
7, 48409, Note_on_c, 5, 71, 78
7, 48413, Note_off_c, 5, 69, 64
7, 48458, Note_off_c, 5, 71, 64
7, 48475, Note_on_c, 5, 72, 87
7, 48537, Note_off_c, 5, 72, 64
7, 48603, Note_on_c, 5, 72, 80
7, 48648, Note_on_c, 5, 71, 60
7, 48656, Note_off_c, 5, 72, 64
7, 48688, Note_off_c, 5, 71, 64
7, 48710, Note_on_c, 5, 72, 80
7, 48773, Note_off_c, 5, 72, 64
7, 48836, Note_on_c, 5, 74, 76
7, 48886, Note_off_c, 5, 74, 64
7, 48890, Note_on_c, 5, 72, 66
7, 48934, Note_off_c, 5, 72, 64
7, 48954, Note_on_c, 5, 71, 66
7, 49015, Note_off_c, 5, 71, 64
7, 49081, Note_on_c, 5, 67, 70
7, 49133, Note_on_c, 5, 69, 68
7, 49135, Note_off_c, 5, 67, 64
7, 49186, Note_off_c, 5, 69, 64
7, 49194, Note_on_c, 5, 71, 82
7, 49262, Note_off_c, 5, 71, 64
7, 49313, Note_on_c, 5, 71, 72
7, 49366, Note_on_c, 5, 73, 60
7, 49378, Note_off_c, 5, 71, 64
7, 49417, Note_off_c, 5, 73, 64
7, 49434, Note_on_c, 5, 74, 89
7, 49508, Note_off_c, 5, 74, 64
7, 49557, Note_on_c, 5, 74, 70
7, 49605, Note_on_c, 5, 73, 60
7, 49612, Note_off_c, 5, 74, 64
7, 49650, Note_off_c, 5, 73, 64
7, 49671, Note_on_c, 5, 74, 82
7, 49737, Note_off_c, 5, 74, 64
7, 49793, Note_on_c, 5, 76, 68
7, 49846, Note_on_c, 5, 74, 70
7, 49854, Note_off_c, 5, 76, 64
7, 49893, Note_off_c, 5, 74, 64
7, 49917, Note_on_c, 5, 73, 80
7, 49972, Note_off_c, 5, 73, 64
7, 50034, Note_on_c, 5, 76, 87
7, 50077, Note_off_c, 5, 76, 64
7, 50147, Note_on_c, 5, 69, 72
7, 50189, Note_off_c, 5, 69, 64
7, 50273, Note_on_c, 5, 73, 78
7, 50448, Note_off_c, 5, 73, 64
7, 50512, Note_on_c, 5, 76, 85
7, 50559, Note_off_c, 5, 76, 64
7, 50629, Note_on_c, 5, 67, 68
7, 50673, Note_off_c, 5, 67, 64
7, 50748, Note_on_c, 5, 73, 80
7, 50940, Note_off_c, 5, 73, 64
7, 50981, Note_on_c, 5, 76, 82
7, 51035, Note_off_c, 5, 76, 64
7, 51097, Note_on_c, 5, 69, 80
7, 51159, Note_off_c, 5, 69, 64
7, 51221, Note_on_c, 5, 73, 70
7, 51262, Note_off_c, 5, 73, 64
7, 51344, Note_on_c, 5, 74, 76
7, 51398, Note_off_c, 5, 74, 64
7, 51400, Note_on_c, 5, 69, 80
7, 51442, Note_off_c, 5, 69, 64
7, 51455, Note_on_c, 5, 66, 68
7, 51512, Note_off_c, 5, 66, 64
7, 51512, Note_on_c, 5, 67, 76
7, 51557, Note_off_c, 5, 67, 64
7, 51576, Note_on_c, 5, 69, 80
7, 51627, Note_off_c, 5, 69, 64
7, 51629, Note_on_c, 5, 71, 72
7, 51672, Note_off_c, 5, 71, 64
7, 51692, Note_on_c, 5, 69, 64
7, 51746, Note_on_c, 5, 71, 68
7, 51748, Note_off_c, 5, 69, 64
7, 51791, Note_off_c, 5, 71, 64
7, 51812, Note_on_c, 5, 72, 85
7, 51868, Note_on_c, 5, 69, 80
7, 51873, Note_off_c, 5, 72, 64
7, 51908, Note_off_c, 5, 69, 64
7, 51930, Note_on_c, 5, 62, 59
7, 51995, Note_off_c, 5, 62, 64
7, 51995, Note_on_c, 5, 64, 70
7, 52043, Note_off_c, 5, 64, 64
7, 52060, Note_on_c, 5, 66, 62
7, 52115, Note_on_c, 5, 67, 61
7, 52118, Note_off_c, 5, 66, 64
7, 52170, Note_off_c, 5, 67, 64
7, 52177, Note_on_c, 5, 66, 70
7, 52228, Note_off_c, 5, 66, 64
7, 52237, Note_on_c, 5, 67, 74
7, 52281, Note_off_c, 5, 67, 64
7, 52305, Note_on_c, 5, 69, 89
7, 52360, Note_on_c, 5, 67, 66
7, 52367, Note_off_c, 5, 69, 64
7, 52416, Note_off_c, 5, 67, 64
7, 52424, Note_on_c, 5, 66, 48
7, 52484, Note_off_c, 5, 66, 64
7, 52485, Note_on_c, 5, 67, 63
7, 52533, Note_off_c, 5, 67, 64
7, 52553, Note_on_c, 5, 69, 82
7, 52605, Note_on_c, 5, 67, 68
7, 52609, Note_off_c, 5, 69, 64
7, 52664, Note_on_c, 5, 66, 57
7, 52667, Note_off_c, 5, 67, 64
7, 52720, Note_off_c, 5, 66, 64
7, 52725, Note_on_c, 5, 64, 56
7, 52773, Note_off_c, 5, 64, 64
7, 52790, Note_on_c, 5, 62, 60
7, 52849, Note_off_c, 5, 62, 64
7, 52909, Note_on_c, 5, 71, 85
7, 52956, Note_off_c, 5, 71, 64
7, 53033, Note_on_c, 5, 64, 80
7, 53072, Note_off_c, 5, 64, 64
7, 53154, Note_on_c, 5, 68, 74
7, 53328, Note_off_c, 5, 68, 64
7, 53393, Note_on_c, 5, 71, 85
7, 53447, Note_off_c, 5, 71, 64
7, 53519, Note_on_c, 5, 62, 76
7, 53561, Note_off_c, 5, 62, 64
7, 53638, Note_on_c, 5, 68, 80
7, 53809, Note_off_c, 5, 68, 64
7, 53867, Note_on_c, 5, 71, 82
7, 53915, Note_off_c, 5, 71, 64
7, 53986, Note_on_c, 5, 64, 70
7, 54040, Note_off_c, 5, 64, 64
7, 54104, Note_on_c, 5, 68, 78
7, 54139, Note_off_c, 5, 68, 64
7, 54227, Note_on_c, 5, 69, 78
7, 54280, Note_on_c, 5, 81, 85
7, 54282, Note_off_c, 5, 69, 64
7, 54323, Note_off_c, 5, 81, 64
7, 54345, Note_on_c, 5, 73, 64
7, 54398, Note_on_c, 5, 74, 74
7, 54408, Note_off_c, 5, 73, 64
7, 54442, Note_off_c, 5, 74, 64
7, 54465, Note_on_c, 5, 76, 80
7, 54519, Note_on_c, 5, 78, 62
7, 54530, Note_off_c, 5, 76, 64
7, 54563, Note_off_c, 5, 78, 64
7, 54576, Note_on_c, 5, 76, 66
7, 54631, Note_on_c, 5, 78, 60
7, 54650, Note_off_c, 5, 76, 64
7, 54677, Note_off_c, 5, 78, 64
7, 54699, Note_on_c, 5, 79, 85
7, 54757, Note_off_c, 5, 79, 64
7, 54757, Note_on_c, 5, 76, 70
7, 54812, Note_off_c, 5, 76, 64
7, 54821, Note_on_c, 5, 69, 57
7, 54880, Note_on_c, 5, 71, 68
7, 54883, Note_off_c, 5, 69, 64
7, 54933, Note_off_c, 5, 71, 64
7, 54942, Note_on_c, 5, 73, 64
7, 54997, Note_on_c, 5, 74, 66
7, 55004, Note_off_c, 5, 73, 64
7, 55051, Note_off_c, 5, 74, 64
7, 55059, Note_on_c, 5, 73, 64
7, 55116, Note_off_c, 5, 73, 64
7, 55116, Note_on_c, 5, 74, 70
7, 55163, Note_off_c, 5, 74, 64
7, 55183, Note_on_c, 5, 76, 91
7, 55241, Note_on_c, 5, 74, 68
7, 55243, Note_off_c, 5, 76, 64
7, 55297, Note_off_c, 5, 74, 64
7, 55304, Note_on_c, 5, 73, 60
7, 55360, Note_on_c, 5, 74, 66
7, 55366, Note_off_c, 5, 73, 64
7, 55404, Note_off_c, 5, 74, 64
7, 55420, Note_on_c, 5, 76, 85
7, 55478, Note_on_c, 5, 74, 70
7, 55487, Note_off_c, 5, 76, 64
7, 55536, Note_off_c, 5, 74, 64
7, 55540, Note_on_c, 5, 73, 56
7, 55595, Note_off_c, 5, 73, 64
7, 55598, Note_on_c, 5, 71, 68
7, 55651, Note_off_c, 5, 71, 64
7, 55667, Note_on_c, 5, 69, 80
7, 55725, Note_off_c, 5, 69, 64
7, 55794, Note_on_c, 5, 66, 68
7, 55851, Note_off_c, 5, 66, 64
7, 55918, Note_on_c, 5, 71, 78
7, 56195, Note_off_c, 5, 71, 64
7, 56278, Note_on_c, 5, 70, 63
7, 56329, Note_on_c, 5, 71, 78
7, 56334, Note_off_c, 5, 70, 64
7, 56385, Note_off_c, 5, 71, 64
7, 56396, Note_on_c, 5, 73, 62
7, 56451, Note_off_c, 5, 73, 64
7, 56452, Note_on_c, 5, 71, 68
7, 56505, Note_on_c, 5, 70, 59
7, 56511, Note_off_c, 5, 71, 64
7, 56567, Note_on_c, 5, 68, 63
7, 56570, Note_off_c, 5, 70, 64
7, 56606, Note_off_c, 5, 68, 64
7, 56628, Note_on_c, 5, 66, 61
7, 56687, Note_on_c, 5, 78, 76
7, 56694, Note_off_c, 5, 66, 64
7, 56730, Note_off_c, 5, 78, 64
7, 56756, Note_on_c, 5, 71, 74
7, 56814, Note_off_c, 5, 71, 64
7, 56816, Note_on_c, 5, 73, 66
7, 56872, Note_off_c, 5, 73, 64
7, 56878, Note_on_c, 5, 74, 72
7, 56940, Note_off_c, 5, 74, 64
7, 56940, Note_on_c, 5, 76, 66
7, 56985, Note_off_c, 5, 76, 64
7, 56999, Note_on_c, 5, 74, 74
7, 57050, Note_on_c, 5, 76, 68
7, 57054, Note_off_c, 5, 74, 64
7, 57098, Note_off_c, 5, 76, 64
7, 57112, Note_on_c, 5, 78, 68
7, 57167, Note_off_c, 5, 78, 64
7, 57170, Note_on_c, 5, 81, 78
7, 57215, Note_off_c, 5, 81, 64
7, 57227, Note_on_c, 5, 74, 78
7, 57280, Note_on_c, 5, 76, 64
7, 57283, Note_off_c, 5, 74, 64
7, 57326, Note_off_c, 5, 76, 64
7, 57344, Note_on_c, 5, 78, 87
7, 57397, Note_on_c, 5, 79, 72
7, 57400, Note_off_c, 5, 78, 64
7, 57454, Note_off_c, 5, 79, 64
7, 57464, Note_on_c, 5, 78, 89
7, 57513, Note_off_c, 5, 78, 64
7, 57517, Note_on_c, 5, 79, 82
7, 57563, Note_off_c, 5, 79, 64
7, 57581, Note_on_c, 5, 81, 85
7, 57636, Note_on_c, 5, 79, 72
7, 57642, Note_off_c, 5, 81, 64
7, 57696, Note_off_c, 5, 79, 64
7, 57702, Note_on_c, 5, 78, 82
7, 57757, Note_off_c, 5, 78, 64
7, 57757, Note_on_c, 5, 79, 72
7, 57805, Note_off_c, 5, 79, 64
7, 57824, Note_on_c, 5, 81, 89
7, 57878, Note_on_c, 5, 79, 76
7, 57888, Note_off_c, 5, 81, 64
7, 57928, Note_off_c, 5, 79, 64
7, 57936, Note_on_c, 5, 78, 74
7, 57984, Note_off_c, 5, 78, 64
7, 57992, Note_on_c, 5, 76, 76
7, 58054, Note_off_c, 5, 76, 64
7, 58061, Note_on_c, 5, 74, 72
7, 58125, Note_off_c, 5, 74, 64
7, 58184, Note_on_c, 5, 71, 76
7, 58232, Note_off_c, 5, 71, 64
7, 58310, Note_on_c, 5, 76, 87
7, 58601, Note_off_c, 5, 76, 64
7, 58664, Note_on_c, 5, 69, 80
7, 58705, Note_off_c, 5, 69, 64
7, 58790, Note_on_c, 5, 74, 87
7, 59081, Note_off_c, 5, 74, 64
7, 59153, Note_on_c, 5, 73, 64
7, 59214, Note_off_c, 5, 73, 64
7, 59267, Note_on_c, 5, 74, 89
7, 59317, Note_on_c, 5, 73, 63
7, 59325, Note_off_c, 5, 74, 64
7, 59365, Note_off_c, 5, 73, 64
7, 59378, Note_on_c, 5, 71, 85
7, 59437, Note_off_c, 5, 71, 64
7, 59438, Note_on_c, 5, 74, 82
7, 59491, Note_off_c, 5, 74, 64
7, 59503, Note_on_c, 5, 73, 74
7, 59554, Note_off_c, 5, 73, 64
7, 59624, Note_on_c, 5, 76, 85
7, 59664, Note_off_c, 5, 76, 64
7, 59743, Note_on_c, 5, 69, 80
7, 59784, Note_off_c, 5, 69, 64
7, 59868, Note_on_c, 5, 73, 74
7, 60045, Note_off_c, 5, 73, 64
7, 60109, Note_on_c, 5, 76, 85
7, 60157, Note_off_c, 5, 76, 64
7, 60227, Note_on_c, 5, 67, 80
7, 60272, Note_off_c, 5, 67, 64
7, 60355, Note_on_c, 5, 73, 80
7, 60529, Note_off_c, 5, 73, 64
7, 60590, Note_on_c, 5, 76, 95
7, 60630, Note_off_c, 5, 76, 64
7, 60702, Note_on_c, 5, 69, 80
7, 60760, Note_off_c, 5, 69, 64
7, 60824, Note_on_c, 5, 73, 78
7, 60876, Note_off_c, 5, 73, 64
7, 60940, Note_on_c, 5, 74, 89
7, 60982, Note_off_c, 5, 74, 64
7, 61066, Note_on_c, 5, 69, 82
7, 61109, Note_off_c, 5, 69, 64
7, 61189, Note_on_c, 5, 74, 87
7, 61488, Note_off_c, 5, 74, 64
7, 61545, Note_on_c, 5, 73, 68
7, 61601, Note_off_c, 5, 73, 64
7, 61661, Note_on_c, 5, 76, 87
7, 61710, Note_off_c, 5, 76, 64
7, 61784, Note_on_c, 5, 73, 63
7, 61831, Note_off_c, 5, 73, 64
7, 61904, Note_on_c, 5, 74, 89
7, 61963, Note_off_c, 5, 74, 64
7, 62024, Note_on_c, 5, 69, 80
7, 62078, Note_off_c, 5, 69, 64
7, 62147, Note_on_c, 5, 62, 78
7, 62196, Note_off_c, 5, 62, 64
7, 62272, Note_on_c, 5, 67, 78
7, 62327, Note_off_c, 5, 67, 64
7, 62403, Note_on_c, 5, 64, 91
7, 62647, Note_off_c, 5, 64, 64
7, 62759, Note_on_c, 5, 73, 78
7, 62818, Note_off_c, 5, 73, 64
7, 62881, Note_on_c, 5, 74, 87
7, 62935, Note_off_c, 5, 74, 64
7, 62996, Note_on_c, 5, 71, 80
7, 63056, Note_off_c, 5, 71, 64
7, 63116, Note_on_c, 5, 69, 82
7, 63166, Note_off_c, 5, 69, 64
7, 63242, Note_on_c, 5, 69, 85
7, 63294, Note_off_c, 5, 69, 64
7, 63362, Note_on_c, 5, 69, 80
7, 63488, Note_off_c, 5, 69, 64
7, 78829, Note_on_c, 5, 76, 82
7, 78877, Note_off_c, 5, 76, 64
7, 78952, Note_on_c, 5, 69, 76
7, 79004, Note_off_c, 5, 69, 64
7, 79085, Note_on_c, 5, 73, 80
7, 79253, Note_off_c, 5, 73, 64
7, 79315, Note_on_c, 5, 76, 85
7, 79368, Note_off_c, 5, 76, 64
7, 79434, Note_on_c, 5, 67, 80
7, 79482, Note_off_c, 5, 67, 64
7, 79560, Note_on_c, 5, 73, 85
7, 79738, Note_off_c, 5, 73, 64
7, 79794, Note_on_c, 5, 76, 82
7, 79838, Note_off_c, 5, 76, 64
7, 79911, Note_on_c, 5, 69, 85
7, 79971, Note_off_c, 5, 69, 64
7, 80027, Note_on_c, 5, 73, 66
7, 80071, Note_off_c, 5, 73, 64
7, 80155, Note_on_c, 5, 74, 80
7, 80213, Note_on_c, 5, 73, 63
7, 80216, Note_off_c, 5, 74, 64
7, 80267, Note_off_c, 5, 73, 64
7, 80269, Note_on_c, 5, 74, 68
7, 80330, Note_on_c, 5, 76, 80
7, 80333, Note_off_c, 5, 74, 64
7, 80369, Note_off_c, 5, 76, 64
7, 80394, Note_on_c, 5, 78, 89
7, 80452, Note_on_c, 5, 79, 76
7, 80455, Note_off_c, 5, 78, 64
7, 80496, Note_off_c, 5, 79, 64
7, 80510, Note_on_c, 5, 78, 80
7, 80568, Note_on_c, 5, 79, 70
7, 80569, Note_off_c, 5, 78, 64
7, 80617, Note_off_c, 5, 79, 64
7, 80633, Note_on_c, 5, 81, 82
7, 80683, Note_on_c, 5, 78, 57
7, 80687, Note_off_c, 5, 81, 64
7, 80738, Note_off_c, 5, 78, 64
7, 80750, Note_on_c, 5, 71, 64
7, 80814, Note_off_c, 5, 71, 64
7, 80816, Note_on_c, 5, 73, 62
7, 80868, Note_off_c, 5, 73, 64
7, 80880, Note_on_c, 5, 75, 72
7, 80936, Note_off_c, 5, 75, 64
7, 80936, Note_on_c, 5, 76, 66
7, 80981, Note_off_c, 5, 76, 64
7, 80998, Note_on_c, 5, 75, 93
7, 81053, Note_on_c, 5, 76, 68
7, 81063, Note_off_c, 5, 75, 64
7, 81090, Note_off_c, 5, 76, 64
7, 81113, Note_on_c, 5, 78, 100
7, 81164, Note_off_c, 5, 78, 64
7, 81167, Note_on_c, 5, 76, 62
7, 81228, Note_on_c, 5, 75, 61
7, 81239, Note_off_c, 5, 76, 64
7, 81283, Note_off_c, 5, 75, 64
7, 81290, Note_on_c, 5, 76, 74
7, 81344, Note_off_c, 5, 76, 64
7, 81355, Note_on_c, 5, 78, 80
7, 81412, Note_on_c, 5, 76, 64
7, 81413, Note_off_c, 5, 78, 64
7, 81473, Note_off_c, 5, 76, 64
7, 81474, Note_on_c, 5, 75, 70
7, 81533, Note_on_c, 5, 73, 61
7, 81535, Note_off_c, 5, 75, 64
7, 81585, Note_off_c, 5, 73, 64
7, 81601, Note_on_c, 5, 71, 70
7, 81712, Note_off_c, 5, 71, 64
7, 81723, Note_on_c, 5, 76, 70
7, 81822, Note_off_c, 5, 76, 64
7, 81843, Note_on_c, 5, 76, 68
7, 81934, Note_off_c, 5, 76, 64
7, 81957, Note_on_c, 5, 76, 62
7, 82048, Note_off_c, 5, 76, 64
7, 82074, Note_on_c, 5, 76, 70
7, 82168, Note_off_c, 5, 76, 64
7, 82192, Note_on_c, 5, 76, 66
7, 82282, Note_off_c, 5, 76, 64
7, 82323, Note_on_c, 5, 76, 78
7, 82421, Note_off_c, 5, 76, 64
7, 82436, Note_on_c, 5, 76, 78
7, 82523, Note_off_c, 5, 76, 64
7, 82549, Note_on_c, 5, 76, 78
7, 82639, Note_off_c, 5, 76, 64
7, 82664, Note_on_c, 5, 76, 68
7, 82744, Note_off_c, 5, 76, 64
7, 82784, Note_on_c, 5, 76, 78
7, 82866, Note_off_c, 5, 76, 64
7, 82905, Note_on_c, 5, 71, 76
7, 82979, Note_off_c, 5, 71, 64
7, 83022, Note_on_c, 5, 69, 74
7, 83078, Note_on_c, 5, 68, 58
7, 83083, Note_off_c, 5, 69, 64
7, 83139, Note_off_c, 5, 68, 64
7, 83140, Note_on_c, 5, 69, 72
7, 83201, Note_on_c, 5, 71, 78
7, 83209, Note_off_c, 5, 69, 64
7, 83241, Note_off_c, 5, 71, 64
7, 83263, Note_on_c, 5, 69, 72
7, 83325, Note_on_c, 5, 68, 64
7, 83332, Note_off_c, 5, 69, 64
7, 83387, Note_on_c, 5, 66, 60
7, 83390, Note_off_c, 5, 68, 64
7, 83427, Note_off_c, 5, 66, 64
7, 83447, Note_on_c, 5, 69, 76
7, 83480, Note_off_c, 5, 69, 64
7, 83510, Note_on_c, 5, 68, 91
7, 83564, Note_on_c, 5, 69, 68
7, 83565, Note_off_c, 5, 68, 64
7, 83628, Note_on_c, 5, 68, 78
7, 83631, Note_off_c, 5, 69, 64
7, 83684, Note_off_c, 5, 68, 64
7, 83684, Note_on_c, 5, 66, 74
7, 83733, Note_off_c, 5, 66, 64
7, 83746, Note_on_c, 5, 65, 80
7, 83816, Note_off_c, 5, 65, 64
7, 83865, Note_on_c, 5, 68, 74
7, 83932, Note_off_c, 5, 68, 64
7, 83989, Note_on_c, 5, 69, 82
7, 84041, Note_on_c, 5, 73, 60
7, 84049, Note_off_c, 5, 69, 64
7, 84098, Note_off_c, 5, 73, 64
7, 84108, Note_on_c, 5, 66, 85
7, 84169, Note_on_c, 5, 68, 64
7, 84173, Note_off_c, 5, 66, 64
7, 84223, Note_off_c, 5, 68, 64
7, 84229, Note_on_c, 5, 69, 74
7, 84291, Note_on_c, 5, 71, 68
7, 84295, Note_off_c, 5, 69, 64
7, 84352, Note_off_c, 5, 71, 64
7, 84354, Note_on_c, 5, 69, 82
7, 84412, Note_on_c, 5, 71, 78
7, 84423, Note_off_c, 5, 69, 64
7, 84457, Note_off_c, 5, 71, 64
7, 84473, Note_on_c, 5, 73, 89
7, 84531, Note_on_c, 5, 76, 82
7, 84545, Note_off_c, 5, 73, 64
7, 84581, Note_off_c, 5, 76, 64
7, 84590, Note_on_c, 5, 69, 78
7, 84646, Note_on_c, 5, 71, 80
7, 84651, Note_off_c, 5, 69, 64
7, 84694, Note_off_c, 5, 71, 64
7, 84708, Note_on_c, 5, 73, 87
7, 84760, Note_on_c, 5, 74, 72
7, 84763, Note_off_c, 5, 73, 64
7, 84812, Note_off_c, 5, 74, 64
7, 84824, Note_on_c, 5, 73, 98
7, 84877, Note_off_c, 5, 73, 64
7, 84878, Note_on_c, 5, 74, 82
7, 84926, Note_off_c, 5, 74, 64
7, 84946, Note_on_c, 5, 76, 98
7, 85004, Note_on_c, 5, 74, 80
7, 85013, Note_off_c, 5, 76, 64
7, 85061, Note_off_c, 5, 74, 64
7, 85065, Note_on_c, 5, 73, 63
7, 85123, Note_on_c, 5, 74, 78
7, 85138, Note_off_c, 5, 73, 64
7, 85171, Note_off_c, 5, 74, 64
7, 85190, Note_on_c, 5, 76, 95
7, 85246, Note_on_c, 5, 74, 74
7, 85258, Note_off_c, 5, 76, 64
7, 85307, Note_on_c, 5, 73, 82
7, 85314, Note_off_c, 5, 74, 64
7, 85368, Note_on_c, 5, 71, 87
7, 85374, Note_off_c, 5, 73, 64
7, 85427, Note_off_c, 5, 71, 64
7, 85433, Note_on_c, 5, 69, 82
7, 85504, Note_off_c, 5, 69, 64
7, 85558, Note_on_c, 5, 66, 76
7, 85607, Note_off_c, 5, 66, 64
7, 85680, Note_on_c, 5, 71, 85
7, 85950, Note_off_c, 5, 71, 64
7, 86026, Note_on_c, 5, 76, 91
7, 86088, Note_off_c, 5, 76, 64
7, 86151, Note_on_c, 5, 70, 76
7, 86216, Note_off_c, 5, 70, 64
7, 86275, Note_on_c, 5, 66, 76
7, 86430, Note_off_c, 5, 66, 64
7, 86447, Note_on_c, 5, 67, 72
7, 86494, Note_off_c, 5, 67, 64
7, 86508, Note_on_c, 5, 64, 78
7, 86563, Note_on_c, 5, 66, 78
7, 86572, Note_off_c, 5, 64, 64
7, 86609, Note_off_c, 5, 66, 64
7, 86630, Note_on_c, 5, 67, 82
7, 86696, Note_off_c, 5, 67, 64
7, 86752, Note_on_c, 5, 64, 87
7, 86798, Note_off_c, 5, 64, 64
7, 86878, Note_on_c, 5, 73, 87
7, 86915, Note_off_c, 5, 73, 64
7, 86936, Note_on_c, 5, 78, 87
7, 86980, Note_off_c, 5, 78, 64
7, 86992, Note_on_c, 5, 70, 68
7, 87046, Note_off_c, 5, 70, 64
7, 87054, Note_on_c, 5, 71, 78
7, 87107, Note_off_c, 5, 71, 64
7, 87118, Note_on_c, 5, 73, 76
7, 87168, Note_on_c, 5, 74, 82
7, 87180, Note_off_c, 5, 73, 64
7, 87216, Note_off_c, 5, 74, 64
7, 87231, Note_on_c, 5, 73, 64
7, 87277, Note_on_c, 5, 74, 76
7, 87292, Note_off_c, 5, 73, 64
7, 87329, Note_off_c, 5, 74, 64
7, 87346, Note_on_c, 5, 76, 87
7, 87408, Note_on_c, 5, 73, 80
7, 87412, Note_off_c, 5, 76, 64
7, 87460, Note_off_c, 5, 73, 64
7, 87471, Note_on_c, 5, 66, 68
7, 87529, Note_on_c, 5, 68, 74
7, 87540, Note_off_c, 5, 66, 64
7, 87590, Note_on_c, 5, 70, 68
7, 87596, Note_off_c, 5, 68, 64
7, 87645, Note_on_c, 5, 71, 66
7, 87655, Note_off_c, 5, 70, 64
7, 87703, Note_off_c, 5, 71, 64
7, 87706, Note_on_c, 5, 70, 70
7, 87757, Note_off_c, 5, 70, 64
7, 87762, Note_on_c, 5, 71, 82
7, 87812, Note_off_c, 5, 71, 64
7, 87829, Note_on_c, 5, 73, 91
7, 87891, Note_on_c, 5, 71, 72
7, 87895, Note_off_c, 5, 73, 64
7, 87956, Note_on_c, 5, 70, 70
7, 87962, Note_off_c, 5, 71, 64
7, 88014, Note_on_c, 5, 71, 82
7, 88021, Note_off_c, 5, 70, 64
7, 88066, Note_off_c, 5, 71, 64
7, 88079, Note_on_c, 5, 73, 82
7, 88136, Note_on_c, 5, 76, 80
7, 88148, Note_off_c, 5, 73, 64
7, 88194, Note_on_c, 5, 74, 70
7, 88213, Note_off_c, 5, 76, 64
7, 88249, Note_on_c, 5, 73, 76
7, 88258, Note_off_c, 5, 74, 64
7, 88305, Note_off_c, 5, 73, 64
7, 88314, Note_on_c, 5, 71, 85
7, 88370, Note_off_c, 5, 71, 64
7, 88437, Note_on_c, 5, 66, 68
7, 88486, Note_off_c, 5, 66, 64
7, 88546, Note_on_c, 5, 71, 74
7, 88844, Note_off_c, 5, 71, 64
7, 88905, Note_on_c, 5, 64, 72
7, 88969, Note_off_c, 5, 64, 64
7, 89026, Note_on_c, 5, 61, 78
7, 89091, Note_off_c, 5, 61, 64
7, 89138, Note_on_c, 5, 70, 76
7, 89186, Note_off_c, 5, 70, 64
7, 89265, Note_on_c, 5, 71, 85
7, 89313, Note_off_c, 5, 71, 64
7, 89380, Note_on_c, 5, 71, 82
7, 89435, Note_off_c, 5, 71, 64
7, 89498, Note_on_c, 5, 71, 82
7, 89554, Note_off_c, 5, 71, 64
7, 89611, Note_on_c, 5, 67, 80
7, 89659, Note_off_c, 5, 67, 64
7, 89743, Note_on_c, 5, 66, 78
7, 89997, Note_off_c, 5, 66, 64
7, 90104, Note_on_c, 5, 73, 72
7, 90161, Note_off_c, 5, 73, 64
7, 90223, Note_on_c, 5, 71, 82
7, 90280, Note_off_c, 5, 71, 64
7, 90338, Note_on_c, 5, 70, 70
7, 90386, Note_off_c, 5, 70, 64
7, 90457, Note_on_c, 5, 66, 78
7, 90509, Note_off_c, 5, 66, 64
7, 90583, Note_on_c, 5, 66, 78
7, 90643, Note_off_c, 5, 66, 64
7, 90709, Note_on_c, 5, 62, 82
7, 90767, Note_off_c, 5, 62, 64
7, 90828, Note_on_c, 5, 67, 85
7, 90886, Note_off_c, 5, 67, 64
7, 90953, Note_on_c, 5, 66, 74
7, 91010, Note_off_c, 5, 66, 64
7, 91075, Note_on_c, 5, 66, 68
7, 91127, Note_off_c, 5, 66, 64
7, 91198, Note_on_c, 5, 66, 91
7, 91345, Note_off_c, 5, 66, 64
7, 108582, Note_on_c, 5, 76, 89
7, 108635, Note_off_c, 5, 76, 64
7, 108709, Note_on_c, 5, 69, 82
7, 108762, Note_off_c, 5, 69, 64
7, 108832, Note_on_c, 5, 73, 89
7, 109002, Note_off_c, 5, 73, 64
7, 109066, Note_on_c, 5, 76, 87
7, 109118, Note_off_c, 5, 76, 64
7, 109189, Note_on_c, 5, 67, 82
7, 109241, Note_off_c, 5, 67, 64
7, 109314, Note_on_c, 5, 73, 82
7, 109496, Note_off_c, 5, 73, 64
7, 109540, Note_on_c, 5, 76, 82
7, 109590, Note_off_c, 5, 76, 64
7, 109664, Note_on_c, 5, 69, 82
7, 109723, Note_off_c, 5, 69, 64
7, 109786, Note_on_c, 5, 73, 78
7, 109844, Note_off_c, 5, 73, 64
7, 109912, Note_on_c, 5, 74, 91
7, 109987, Note_off_c, 5, 74, 64
7, 110032, Note_on_c, 5, 62, 70
7, 110074, Note_off_c, 5, 62, 64
7, 110089, Note_on_c, 5, 64, 66
7, 110131, Note_off_c, 5, 64, 64
7, 110150, Note_on_c, 5, 66, 93
7, 110205, Note_off_c, 5, 66, 64
7, 110270, Note_on_c, 5, 66, 63
7, 110312, Note_on_c, 5, 67, 74
7, 110319, Note_off_c, 5, 66, 64
7, 110359, Note_off_c, 5, 67, 64
7, 110386, Note_on_c, 5, 69, 91
7, 110457, Note_off_c, 5, 69, 64
7, 110516, Note_on_c, 5, 66, 80
7, 110570, Note_off_c, 5, 66, 64
7, 110573, Note_on_c, 5, 67, 70
7, 110630, Note_off_c, 5, 67, 64
7, 110633, Note_on_c, 5, 69, 85
7, 110686, Note_off_c, 5, 69, 64
7, 110753, Note_on_c, 5, 69, 82
7, 110803, Note_off_c, 5, 69, 64
7, 110807, Note_on_c, 5, 71, 80
7, 110864, Note_off_c, 5, 71, 64
7, 110871, Note_on_c, 5, 72, 87
7, 110927, Note_off_c, 5, 72, 64
7, 110984, Note_on_c, 5, 72, 82
7, 111029, Note_off_c, 5, 72, 64
7, 111037, Note_on_c, 5, 71, 76
7, 111085, Note_off_c, 5, 71, 64
7, 111104, Note_on_c, 5, 72, 80
7, 111175, Note_off_c, 5, 72, 64
7, 111225, Note_on_c, 5, 74, 78
7, 111269, Note_off_c, 5, 74, 64
7, 111283, Note_on_c, 5, 72, 80
7, 111332, Note_off_c, 5, 72, 64
7, 111347, Note_on_c, 5, 71, 87
7, 111409, Note_off_c, 5, 71, 64
7, 111471, Note_on_c, 5, 67, 80
7, 111519, Note_off_c, 5, 67, 64
7, 111537, Note_on_c, 5, 69, 68
7, 111592, Note_off_c, 5, 69, 64
7, 111593, Note_on_c, 5, 71, 85
7, 111653, Note_off_c, 5, 71, 64
7, 111711, Note_on_c, 5, 71, 78
7, 111763, Note_on_c, 5, 73, 82
7, 111775, Note_off_c, 5, 71, 64
7, 111810, Note_off_c, 5, 73, 64
7, 111829, Note_on_c, 5, 74, 93
7, 111890, Note_off_c, 5, 74, 64
7, 111945, Note_on_c, 5, 74, 80
7, 111993, Note_off_c, 5, 74, 64
7, 112000, Note_on_c, 5, 73, 87
7, 112050, Note_off_c, 5, 73, 64
7, 112064, Note_on_c, 5, 74, 87
7, 112126, Note_off_c, 5, 74, 64
7, 112181, Note_on_c, 5, 76, 87
7, 112238, Note_on_c, 5, 74, 82
7, 112248, Note_off_c, 5, 76, 64
7, 112281, Note_off_c, 5, 74, 64
7, 112300, Note_on_c, 5, 73, 87
7, 112354, Note_off_c, 5, 73, 64
7, 112430, Note_on_c, 5, 76, 85
7, 112472, Note_off_c, 5, 76, 64
7, 112546, Note_on_c, 5, 69, 78
7, 112592, Note_off_c, 5, 69, 64
7, 112671, Note_on_c, 5, 73, 82
7, 112845, Note_off_c, 5, 73, 64
7, 112900, Note_on_c, 5, 76, 82
7, 112952, Note_off_c, 5, 76, 64
7, 113023, Note_on_c, 5, 67, 78
7, 113070, Note_off_c, 5, 67, 64
7, 113148, Note_on_c, 5, 73, 85
7, 113340, Note_off_c, 5, 73, 64
7, 113392, Note_on_c, 5, 76, 87
7, 113435, Note_off_c, 5, 76, 64
7, 113504, Note_on_c, 5, 69, 74
7, 113561, Note_off_c, 5, 69, 64
7, 113621, Note_on_c, 5, 73, 78
7, 113660, Note_off_c, 5, 73, 64
7, 113739, Note_on_c, 5, 74, 76
7, 113790, Note_off_c, 5, 74, 64
7, 113795, Note_on_c, 5, 69, 87
7, 113837, Note_off_c, 5, 69, 64
7, 113850, Note_on_c, 5, 66, 80
7, 113904, Note_off_c, 5, 66, 64
7, 113907, Note_on_c, 5, 67, 66
7, 113950, Note_off_c, 5, 67, 64
7, 113967, Note_on_c, 5, 69, 76
7, 114024, Note_off_c, 5, 69, 64
7, 114031, Note_on_c, 5, 71, 87
7, 114081, Note_off_c, 5, 71, 64
7, 114093, Note_on_c, 5, 69, 64
7, 114141, Note_off_c, 5, 69, 64
7, 114151, Note_on_c, 5, 71, 64
7, 114189, Note_off_c, 5, 71, 64
7, 114216, Note_on_c, 5, 72, 85
7, 114267, Note_on_c, 5, 69, 70
7, 114272, Note_off_c, 5, 72, 64
7, 114302, Note_off_c, 5, 69, 64
7, 114329, Note_on_c, 5, 62, 82
7, 114386, Note_off_c, 5, 62, 64
7, 114389, Note_on_c, 5, 64, 64
7, 114431, Note_off_c, 5, 64, 64
7, 114451, Note_on_c, 5, 66, 85
7, 114503, Note_off_c, 5, 66, 64
7, 114507, Note_on_c, 5, 67, 72
7, 114551, Note_off_c, 5, 67, 64
7, 114570, Note_on_c, 5, 66, 89
7, 114617, Note_off_c, 5, 66, 64
7, 114630, Note_on_c, 5, 67, 72
7, 114675, Note_off_c, 5, 67, 64
7, 114700, Note_on_c, 5, 69, 95
7, 114755, Note_on_c, 5, 67, 72
7, 114758, Note_off_c, 5, 69, 64
7, 114808, Note_off_c, 5, 67, 64
7, 114820, Note_on_c, 5, 66, 70
7, 114876, Note_on_c, 5, 67, 68
7, 114878, Note_off_c, 5, 66, 64
7, 114927, Note_off_c, 5, 67, 64
7, 114951, Note_on_c, 5, 69, 98
7, 115001, Note_on_c, 5, 67, 70
7, 115012, Note_off_c, 5, 69, 64
7, 115061, Note_off_c, 5, 67, 64
7, 115066, Note_on_c, 5, 66, 85
7, 115120, Note_off_c, 5, 66, 64
7, 115123, Note_on_c, 5, 64, 80
7, 115174, Note_off_c, 5, 64, 64
7, 115186, Note_on_c, 5, 62, 78
7, 115254, Note_off_c, 5, 62, 64
7, 115316, Note_on_c, 5, 71, 87
7, 115361, Note_off_c, 5, 71, 64
7, 115435, Note_on_c, 5, 64, 87
7, 115484, Note_off_c, 5, 64, 64
7, 115551, Note_on_c, 5, 68, 87
7, 115726, Note_off_c, 5, 68, 64
7, 115793, Note_on_c, 5, 71, 85
7, 115856, Note_off_c, 5, 71, 64
7, 115911, Note_on_c, 5, 62, 82
7, 115960, Note_off_c, 5, 62, 64
7, 116027, Note_on_c, 5, 68, 91
7, 116203, Note_off_c, 5, 68, 64
7, 116273, Note_on_c, 5, 71, 82
7, 116319, Note_off_c, 5, 71, 64
7, 116383, Note_on_c, 5, 64, 80
7, 116444, Note_off_c, 5, 64, 64
7, 116500, Note_on_c, 5, 68, 78
7, 116534, Note_off_c, 5, 68, 64
7, 116628, Note_on_c, 5, 69, 76
7, 116682, Note_on_c, 5, 81, 85
7, 116687, Note_off_c, 5, 69, 64
7, 116725, Note_off_c, 5, 81, 64
7, 116748, Note_on_c, 5, 73, 74
7, 116807, Note_on_c, 5, 74, 80
7, 116816, Note_off_c, 5, 73, 64
7, 116849, Note_off_c, 5, 74, 64
7, 116869, Note_on_c, 5, 76, 82
7, 116927, Note_on_c, 5, 78, 82
7, 116938, Note_off_c, 5, 76, 64
7, 116973, Note_off_c, 5, 78, 64
7, 116986, Note_on_c, 5, 76, 78
7, 117038, Note_on_c, 5, 78, 70
7, 117058, Note_off_c, 5, 76, 64
7, 117082, Note_off_c, 5, 78, 64
7, 117102, Note_on_c, 5, 79, 91
7, 117158, Note_on_c, 5, 76, 78
7, 117164, Note_off_c, 5, 79, 64
7, 117204, Note_off_c, 5, 76, 64
7, 117222, Note_on_c, 5, 69, 59
7, 117277, Note_on_c, 5, 71, 78
7, 117285, Note_off_c, 5, 69, 64
7, 117328, Note_off_c, 5, 71, 64
7, 117341, Note_on_c, 5, 73, 82
7, 117392, Note_on_c, 5, 74, 78
7, 117400, Note_off_c, 5, 73, 64
7, 117450, Note_off_c, 5, 74, 64
7, 117452, Note_on_c, 5, 73, 87
7, 117510, Note_on_c, 5, 74, 78
7, 117515, Note_off_c, 5, 73, 64
7, 117552, Note_off_c, 5, 74, 64
7, 117573, Note_on_c, 5, 76, 100
7, 117630, Note_on_c, 5, 74, 74
7, 117635, Note_off_c, 5, 76, 64
7, 117685, Note_off_c, 5, 74, 64
7, 117700, Note_on_c, 5, 73, 70
7, 117754, Note_on_c, 5, 74, 76
7, 117761, Note_off_c, 5, 73, 64
7, 117805, Note_off_c, 5, 74, 64
7, 117823, Note_on_c, 5, 76, 93
7, 117878, Note_on_c, 5, 74, 78
7, 117885, Note_off_c, 5, 76, 64
7, 117941, Note_on_c, 5, 73, 82
7, 117944, Note_off_c, 5, 74, 64
7, 117994, Note_on_c, 5, 71, 82
7, 117997, Note_off_c, 5, 73, 64
7, 118051, Note_off_c, 5, 71, 64
7, 118063, Note_on_c, 5, 69, 78
7, 118124, Note_off_c, 5, 69, 64
7, 118184, Note_on_c, 5, 66, 76
7, 118223, Note_off_c, 5, 66, 64
7, 118307, Note_on_c, 5, 71, 85
7, 118586, Note_off_c, 5, 71, 64
7, 118667, Note_on_c, 5, 70, 64
7, 118716, Note_off_c, 5, 70, 64
7, 118722, Note_on_c, 5, 71, 80
7, 118769, Note_off_c, 5, 71, 64
7, 118788, Note_on_c, 5, 73, 76
7, 118838, Note_on_c, 5, 71, 63
7, 118840, Note_off_c, 5, 73, 64
7, 118899, Note_on_c, 5, 70, 64
7, 118901, Note_off_c, 5, 71, 64
7, 118954, Note_off_c, 5, 70, 64
7, 118961, Note_on_c, 5, 68, 78
7, 118993, Note_off_c, 5, 68, 64
7, 119023, Note_on_c, 5, 66, 68
7, 119081, Note_on_c, 5, 78, 76
7, 119083, Note_off_c, 5, 66, 64
7, 119129, Note_off_c, 5, 78, 64
7, 119152, Note_on_c, 5, 71, 78
7, 119208, Note_off_c, 5, 71, 64
7, 119211, Note_on_c, 5, 73, 66
7, 119264, Note_off_c, 5, 73, 64
7, 119270, Note_on_c, 5, 74, 80
7, 119324, Note_off_c, 5, 74, 64
7, 119327, Note_on_c, 5, 76, 64
7, 119370, Note_off_c, 5, 76, 64
7, 119391, Note_on_c, 5, 74, 82
7, 119450, Note_off_c, 5, 74, 64
7, 119450, Note_on_c, 5, 76, 68
7, 119496, Note_off_c, 5, 76, 64
7, 119516, Note_on_c, 5, 78, 98
7, 119576, Note_on_c, 5, 81, 87
7, 119577, Note_off_c, 5, 78, 64
7, 119619, Note_off_c, 5, 81, 64
7, 119629, Note_on_c, 5, 74, 85
7, 119680, Note_off_c, 5, 74, 64
7, 119683, Note_on_c, 5, 76, 76
7, 119727, Note_off_c, 5, 76, 64
7, 119744, Note_on_c, 5, 78, 85
7, 119795, Note_on_c, 5, 79, 80
7, 119803, Note_off_c, 5, 78, 64
7, 119840, Note_off_c, 5, 79, 64
7, 119853, Note_on_c, 5, 78, 60
7, 119905, Note_off_c, 5, 78, 64
7, 119911, Note_on_c, 5, 79, 82
7, 119960, Note_off_c, 5, 79, 64
7, 119982, Note_on_c, 5, 81, 95
7, 120079, Note_off_c, 5, 81, 64
7, 120108, Note_on_c, 5, 79, 82
7, 120194, Note_off_c, 5, 79, 64
7, 120224, Note_on_c, 5, 78, 80
7, 120311, Note_off_c, 5, 78, 64
7, 120338, Note_on_c, 5, 76, 80
7, 120418, Note_off_c, 5, 76, 64
7, 120467, Note_on_c, 5, 74, 87
7, 120520, Note_off_c, 5, 74, 64
7, 120585, Note_on_c, 5, 71, 76
7, 120635, Note_off_c, 5, 71, 64
7, 120704, Note_on_c, 5, 76, 85
7, 120979, Note_off_c, 5, 76, 64
7, 121058, Note_on_c, 5, 69, 82
7, 121102, Note_off_c, 5, 69, 64
7, 121182, Note_on_c, 5, 74, 87
7, 121475, Note_off_c, 5, 74, 64
7, 121550, Note_on_c, 5, 73, 82
7, 121606, Note_off_c, 5, 73, 64
7, 121664, Note_on_c, 5, 74, 89
7, 121712, Note_off_c, 5, 74, 64
7, 121721, Note_on_c, 5, 73, 82
7, 121767, Note_off_c, 5, 73, 64
7, 121780, Note_on_c, 5, 71, 85
7, 121825, Note_off_c, 5, 71, 64
7, 121833, Note_on_c, 5, 74, 87
7, 121880, Note_off_c, 5, 74, 64
7, 121900, Note_on_c, 5, 73, 98
7, 121952, Note_off_c, 5, 73, 64
7, 122017, Note_on_c, 5, 76, 89
7, 122054, Note_off_c, 5, 76, 64
7, 122139, Note_on_c, 5, 69, 85
7, 122189, Note_off_c, 5, 69, 64
7, 122262, Note_on_c, 5, 73, 85
7, 122426, Note_off_c, 5, 73, 64
7, 122505, Note_on_c, 5, 76, 87
7, 122547, Note_off_c, 5, 76, 64
7, 122625, Note_on_c, 5, 67, 80
7, 122672, Note_off_c, 5, 67, 64
7, 122749, Note_on_c, 5, 73, 98
7, 122930, Note_off_c, 5, 73, 64
7, 122996, Note_on_c, 5, 76, 93
7, 123038, Note_off_c, 5, 76, 64
7, 123111, Note_on_c, 5, 69, 85
7, 123167, Note_off_c, 5, 69, 64
7, 123228, Note_on_c, 5, 73, 78
7, 123284, Note_off_c, 5, 73, 64
7, 123346, Note_on_c, 5, 74, 87
7, 123392, Note_off_c, 5, 74, 64
7, 123469, Note_on_c, 5, 69, 85
7, 123512, Note_off_c, 5, 69, 64
7, 123593, Note_on_c, 5, 74, 87
7, 123868, Note_off_c, 5, 74, 64
7, 123948, Note_on_c, 5, 73, 85
7, 123999, Note_off_c, 5, 73, 64
7, 124062, Note_on_c, 5, 76, 89
7, 124118, Note_off_c, 5, 76, 64
7, 124184, Note_on_c, 5, 73, 66
7, 124246, Note_off_c, 5, 73, 64
7, 124302, Note_on_c, 5, 74, 89
7, 124368, Note_off_c, 5, 74, 64
7, 124420, Note_on_c, 5, 69, 80
7, 124479, Note_off_c, 5, 69, 64
7, 124540, Note_on_c, 5, 62, 70
7, 124600, Note_off_c, 5, 62, 64
7, 124664, Note_on_c, 5, 74, 91
7, 124710, Note_off_c, 5, 74, 64
7, 124788, Note_on_c, 5, 64, 85
7, 125050, Note_off_c, 5, 64, 64
7, 125145, Note_on_c, 5, 73, 80
7, 125193, Note_off_c, 5, 73, 64
7, 125262, Note_on_c, 5, 74, 85
7, 125317, Note_off_c, 5, 74, 64
7, 125380, Note_on_c, 5, 71, 82
7, 125434, Note_off_c, 5, 71, 64
7, 125503, Note_on_c, 5, 69, 82
7, 125557, Note_off_c, 5, 69, 64
7, 125628, Note_on_c, 5, 69, 95
7, 125699, Note_off_c, 5, 69, 64
7, 138240, Note_on_c, 5, 73, 102
7, 138283, Note_off_c, 5, 73, 64
7, 138295, Note_on_c, 5, 74, 82
7, 138337, Note_off_c, 5, 74, 64
7, 138356, Note_on_c, 5, 73, 85
7, 138398, Note_off_c, 5, 73, 64
7, 138416, Note_on_c, 5, 71, 89
7, 138452, Note_off_c, 5, 71, 64
7, 138477, Note_on_c, 5, 69, 95
7, 138527, Note_off_c, 5, 69, 64
7, 138537, Note_on_c, 5, 71, 85
7, 138589, Note_off_c, 5, 71, 64
7, 138603, Note_on_c, 5, 73, 85
7, 138645, Note_off_c, 5, 73, 64
7, 138658, Note_on_c, 5, 74, 87
7, 138702, Note_off_c, 5, 74, 64
7, 138722, Note_on_c, 5, 76, 93
7, 138768, Note_off_c, 5, 76, 64
7, 138778, Note_on_c, 5, 78, 80
7, 138817, Note_off_c, 5, 78, 64
7, 138836, Note_on_c, 5, 79, 82
7, 138875, Note_off_c, 5, 79, 64
7, 138894, Note_on_c, 5, 81, 89
7, 138927, Note_off_c, 5, 81, 64
7, 138952, Note_on_c, 5, 79, 102
7, 138999, Note_off_c, 5, 79, 64
7, 139014, Note_on_c, 5, 78, 102
7, 139045, Note_off_c, 5, 78, 64
7, 139070, Note_on_c, 5, 79, 85
7, 139101, Note_off_c, 5, 79, 64
7, 139129, Note_on_c, 5, 76, 93
7, 139156, Note_off_c, 5, 76, 64
7, 139190, Note_on_c, 5, 78, 105
7, 139309, Note_off_c, 5, 78, 64
7, 139353, Note_on_c, 5, 76, 64
7, 139372, Note_on_c, 5, 74, 82
7, 139376, Note_off_c, 5, 76, 64
7, 139399, Note_on_c, 5, 73, 64
7, 139403, Note_off_c, 5, 74, 64
7, 139418, Note_off_c, 5, 73, 64
7, 139429, Note_on_c, 5, 74, 93
7, 139529, Note_off_c, 5, 74, 64
7, 139602, Note_on_c, 5, 71, 85
7, 139635, Note_off_c, 5, 71, 64
7, 139670, Note_on_c, 5, 74, 93
7, 139742, Note_on_c, 5, 73, 62
7, 139745, Note_off_c, 5, 74, 64
7, 139770, Note_off_c, 5, 73, 64
7, 139771, Note_on_c, 5, 74, 70
7, 139799, Note_off_c, 5, 74, 64
7, 139801, Note_on_c, 5, 73, 62
7, 139820, Note_off_c, 5, 73, 64
7, 139821, Note_on_c, 5, 74, 70
7, 139841, Note_off_c, 5, 74, 64
7, 139842, Note_on_c, 5, 73, 57
7, 139860, Note_on_c, 5, 74, 80
7, 139863, Note_off_c, 5, 73, 64
7, 139880, Note_off_c, 5, 74, 64
7, 139883, Note_on_c, 5, 73, 59
7, 139899, Note_on_c, 5, 74, 87
7, 139901, Note_off_c, 5, 73, 64
7, 139918, Note_on_c, 5, 73, 85
7, 139921, Note_off_c, 5, 74, 64
7, 140020, Note_off_c, 5, 73, 64
7, 140096, Note_on_c, 5, 74, 87
7, 140120, Note_off_c, 5, 74, 64
7, 140162, Note_on_c, 5, 74, 95
7, 140271, Note_off_c, 5, 74, 64
7, 166556, Note_on_c, 5, 69, 59
7, 167744, Note_off_c, 5, 69, 64
7, 167760, Note_on_c, 5, 66, 59
7, 167975, Note_off_c, 5, 66, 64
7, 167992, Note_on_c, 5, 68, 62
7, 169430, Note_off_c, 5, 68, 64
7, 169435, Note_on_c, 5, 67, 66
7, 170830, Note_off_c, 5, 67, 64
7, 170852, Note_on_c, 5, 66, 61
7, 171018, Note_off_c, 5, 66, 64
7, 190902, Note_on_c, 5, 76, 72
7, 190953, Note_off_c, 5, 76, 64
7, 191033, Note_on_c, 5, 74, 66
7, 191080, Note_off_c, 5, 74, 64
7, 191152, Note_on_c, 5, 69, 63
7, 191206, Note_off_c, 5, 69, 64
7, 191280, Note_on_c, 5, 71, 66
7, 191356, Note_off_c, 5, 71, 64
7, 191637, Note_on_c, 5, 71, 68
7, 191682, Note_off_c, 5, 71, 64
7, 191755, Note_on_c, 5, 69, 64
7, 191833, Note_off_c, 5, 69, 64
7, 192107, Note_on_c, 5, 69, 70
7, 192159, Note_off_c, 5, 69, 64
7, 192225, Note_on_c, 5, 67, 70
7, 192284, Note_off_c, 5, 67, 64
7, 192348, Note_on_c, 5, 71, 70
7, 192409, Note_off_c, 5, 71, 64
7, 192468, Note_on_c, 5, 69, 76
7, 192529, Note_off_c, 5, 69, 64
7, 192592, Note_on_c, 5, 73, 66
7, 192648, Note_off_c, 5, 73, 64
7, 192713, Note_on_c, 5, 69, 80
7, 192772, Note_off_c, 5, 69, 64
7, 192833, Note_on_c, 5, 74, 74
7, 192891, Note_off_c, 5, 74, 64
7, 192950, Note_on_c, 5, 73, 62
7, 193009, Note_off_c, 5, 73, 64
7, 193067, Note_on_c, 5, 76, 78
7, 193124, Note_off_c, 5, 76, 64
7, 193191, Note_on_c, 5, 74, 72
7, 193247, Note_off_c, 5, 74, 64
7, 193308, Note_on_c, 5, 66, 63
7, 193358, Note_off_c, 5, 66, 64
7, 193428, Note_on_c, 5, 69, 70
7, 193493, Note_off_c, 5, 69, 64
7, 193544, Note_on_c, 5, 73, 61
7, 193616, Note_off_c, 5, 73, 64
7, 193671, Note_on_c, 5, 76, 70
7, 193729, Note_off_c, 5, 76, 64
7, 193789, Note_on_c, 5, 81, 78
7, 193853, Note_off_c, 5, 81, 64
7, 193907, Note_on_c, 5, 78, 70
7, 193971, Note_off_c, 5, 78, 64
7, 194027, Note_on_c, 5, 74, 80
7, 194081, Note_off_c, 5, 74, 64
7, 194144, Note_on_c, 5, 71, 74
7, 194200, Note_off_c, 5, 71, 64
7, 194263, Note_on_c, 5, 80, 78
7, 194312, Note_off_c, 5, 80, 64
7, 194384, Note_on_c, 5, 81, 80
7, 194528, Note_off_c, 5, 81, 64
7, 194864, Note_on_c, 5, 69, 48
7, 196064, Note_off_c, 5, 69, 64
7, 196074, Note_on_c, 5, 66, 54
7, 196286, Note_off_c, 5, 66, 64
7, 196308, Note_on_c, 5, 68, 57
7, 197728, Note_off_c, 5, 68, 64
7, 197761, Note_on_c, 5, 67, 59
7, 198939, Note_off_c, 5, 67, 64
7, 198962, Note_on_c, 5, 64, 64
7, 199183, Note_off_c, 5, 64, 64
7, 199194, Note_on_c, 5, 66, 56
7, 200592, Note_off_c, 5, 66, 64
7, 200627, Note_on_c, 5, 62, 60
7, 200786, Note_off_c, 5, 62, 64
7, 219848, Note_on_c, 5, 69, 93
7, 220105, Note_off_c, 5, 69, 64
7, 220134, Note_on_c, 5, 76, 80
7, 220172, Note_off_c, 5, 76, 64
7, 220186, Note_on_c, 5, 78, 93
7, 220220, Note_off_c, 5, 78, 64
7, 220238, Note_on_c, 5, 74, 87
7, 220280, Note_off_c, 5, 74, 64
7, 220301, Note_on_c, 5, 69, 89
7, 220569, Note_off_c, 5, 69, 64
7, 220594, Note_on_c, 5, 71, 91
7, 220626, Note_off_c, 5, 71, 64
7, 220655, Note_on_c, 5, 72, 78
7, 220689, Note_off_c, 5, 72, 64
7, 220713, Note_on_c, 5, 69, 87
7, 220752, Note_off_c, 5, 69, 64
7, 220790, Note_on_c, 5, 66, 91
7, 221060, Note_off_c, 5, 66, 64
7, 221079, Note_on_c, 5, 67, 72
7, 221122, Note_off_c, 5, 67, 64
7, 221152, Note_on_c, 5, 69, 80
7, 221196, Note_off_c, 5, 69, 64
7, 221212, Note_on_c, 5, 66, 87
7, 221247, Note_off_c, 5, 66, 64
7, 221273, Note_on_c, 5, 62, 89
7, 221570, Note_off_c, 5, 62, 64
7, 221632, Note_on_c, 5, 64, 78
7, 221665, Note_on_c, 5, 66, 87
7, 221675, Note_off_c, 5, 64, 64
7, 221692, Note_on_c, 5, 67, 74
7, 221693, Note_off_c, 5, 66, 64
7, 221713, Note_on_c, 5, 69, 82
7, 221734, Note_off_c, 5, 67, 64
7, 221734, Note_on_c, 5, 71, 82
7, 221752, Note_off_c, 5, 69, 64
7, 221756, Note_on_c, 5, 72, 87
7, 221768, Note_off_c, 5, 71, 64
7, 221849, Note_off_c, 5, 72, 64
7, 221928, Note_on_c, 5, 72, 82
7, 221971, Note_off_c, 5, 72, 64
7, 221984, Note_on_c, 5, 74, 93
7, 222065, Note_off_c, 5, 74, 64
7, 222173, Note_on_c, 5, 76, 82
7, 222213, Note_off_c, 5, 76, 64
7, 222234, Note_on_c, 5, 74, 89
7, 222316, Note_off_c, 5, 74, 64
7, 222418, Note_on_c, 5, 72, 74
7, 222459, Note_off_c, 5, 72, 64
7, 222477, Note_on_c, 5, 71, 82
7, 222560, Note_off_c, 5, 71, 64
7, 222659, Note_on_c, 5, 69, 85
7, 222698, Note_off_c, 5, 69, 64
7, 222716, Note_on_c, 5, 71, 80
7, 222894, Note_off_c, 5, 71, 64
7, 222956, Note_on_c, 5, 67, 76
7, 223105, Note_off_c, 5, 67, 64
7, 223189, Note_on_c, 5, 71, 76
7, 223540, Note_off_c, 5, 71, 64
7, 223604, Note_on_c, 5, 73, 64
7, 223645, Note_off_c, 5, 73, 64
7, 223667, Note_on_c, 5, 74, 78
7, 223934, Note_off_c, 5, 74, 64
7, 223962, Note_on_c, 5, 73, 70
7, 224006, Note_off_c, 5, 73, 64
7, 224019, Note_on_c, 5, 74, 78
7, 224061, Note_off_c, 5, 74, 64
7, 224076, Note_on_c, 5, 76, 82
7, 224108, Note_off_c, 5, 76, 64
7, 224144, Note_on_c, 5, 76, 82
7, 224195, Note_on_c, 5, 75, 80
7, 224197, Note_off_c, 5, 76, 64
7, 224221, Note_off_c, 5, 75, 64
7, 224224, Note_on_c, 5, 76, 63
7, 224248, Note_off_c, 5, 76, 64
7, 224249, Note_on_c, 5, 75, 64
7, 224268, Note_off_c, 5, 75, 64
7, 224268, Note_on_c, 5, 76, 70
7, 224291, Note_off_c, 5, 76, 64
7, 224291, Note_on_c, 5, 75, 63
7, 224309, Note_off_c, 5, 75, 64
7, 224309, Note_on_c, 5, 76, 70
7, 224330, Note_off_c, 5, 76, 64
7, 224330, Note_on_c, 5, 75, 76
7, 224350, Note_off_c, 5, 75, 64
7, 224350, Note_on_c, 5, 76, 82
7, 224373, Note_on_c, 5, 75, 80
7, 224381, Note_off_c, 5, 76, 64
7, 224510, Note_off_c, 5, 75, 64
7, 224568, Note_on_c, 5, 76, 80
7, 224600, Note_off_c, 5, 76, 64
7, 224628, Note_on_c, 5, 78, 80
7, 224880, Note_off_c, 5, 78, 64
7, 224931, Note_on_c, 5, 81, 85
7, 224966, Note_off_c, 5, 81, 64
7, 224990, Note_on_c, 5, 79, 87
7, 225029, Note_off_c, 5, 79, 64
7, 225052, Note_on_c, 5, 78, 80
7, 225095, Note_off_c, 5, 78, 64
7, 225119, Note_on_c, 5, 83, 89
7, 225211, Note_off_c, 5, 83, 64
7, 225301, Note_on_c, 5, 81, 82
7, 225340, Note_off_c, 5, 81, 64
7, 225362, Note_on_c, 5, 79, 85
7, 225447, Note_off_c, 5, 79, 64
7, 225540, Note_on_c, 5, 78, 60
7, 225582, Note_off_c, 5, 78, 64
7, 225601, Note_on_c, 5, 79, 78
7, 225687, Note_off_c, 5, 79, 64
7, 225782, Note_on_c, 5, 78, 68
7, 225829, Note_off_c, 5, 78, 64
7, 225842, Note_on_c, 5, 76, 87
7, 225933, Note_off_c, 5, 76, 64
7, 226022, Note_on_c, 5, 78, 68
7, 226056, Note_off_c, 5, 78, 64
7, 226083, Note_on_c, 5, 79, 82
7, 226141, Note_on_c, 5, 78, 68
7, 226144, Note_off_c, 5, 79, 64
7, 226167, Note_off_c, 5, 78, 64
7, 226170, Note_on_c, 5, 79, 78
7, 226198, Note_off_c, 5, 79, 64
7, 226198, Note_on_c, 5, 78, 57
7, 226213, Note_off_c, 5, 78, 64
7, 226218, Note_on_c, 5, 79, 63
7, 226237, Note_on_c, 5, 78, 57
7, 226239, Note_off_c, 5, 79, 64
7, 226255, Note_off_c, 5, 78, 64
7, 226257, Note_on_c, 5, 79, 68
7, 226275, Note_on_c, 5, 78, 58
7, 226277, Note_off_c, 5, 79, 64
7, 226293, Note_on_c, 5, 79, 80
7, 226295, Note_off_c, 5, 78, 64
7, 226314, Note_on_c, 5, 78, 87
7, 226319, Note_off_c, 5, 79, 64
7, 226425, Note_off_c, 5, 78, 64
7, 226496, Note_on_c, 5, 76, 80
7, 226528, Note_off_c, 5, 76, 64
7, 226564, Note_on_c, 5, 76, 85
7, 226817, Note_off_c, 5, 76, 64
7, 226856, Note_on_c, 5, 76, 72
7, 226895, Note_off_c, 5, 76, 64
7, 226916, Note_on_c, 5, 74, 76
7, 226949, Note_off_c, 5, 74, 64
7, 226970, Note_on_c, 5, 73, 82
7, 227008, Note_off_c, 5, 73, 64
7, 227030, Note_on_c, 5, 74, 89
7, 227123, Note_off_c, 5, 74, 64
7, 227207, Note_on_c, 5, 83, 85
7, 227244, Note_off_c, 5, 83, 64
7, 227270, Note_on_c, 5, 76, 89
7, 227351, Note_off_c, 5, 76, 64
7, 227457, Note_on_c, 5, 74, 82
7, 227496, Note_off_c, 5, 74, 64
7, 227520, Note_on_c, 5, 73, 87
7, 227612, Note_off_c, 5, 73, 64
7, 227695, Note_on_c, 5, 69, 82
7, 227736, Note_off_c, 5, 69, 64
7, 227760, Note_on_c, 5, 73, 80
7, 227837, Note_off_c, 5, 73, 64
7, 227933, Note_on_c, 5, 76, 82
7, 227967, Note_off_c, 5, 76, 64
7, 228001, Note_on_c, 5, 81, 82
7, 228341, Note_off_c, 5, 81, 64
7, 228417, Note_on_c, 5, 81, 87
7, 228448, Note_off_c, 5, 81, 64
7, 228478, Note_on_c, 5, 81, 89
7, 228763, Note_off_c, 5, 81, 64
7, 228837, Note_on_c, 5, 71, 70
7, 228870, Note_on_c, 5, 73, 58
7, 228880, Note_off_c, 5, 71, 64
7, 228893, Note_on_c, 5, 74, 78
7, 228908, Note_off_c, 5, 73, 64
7, 228912, Note_on_c, 5, 76, 85
7, 228935, Note_on_c, 5, 78, 80
7, 228938, Note_off_c, 5, 74, 64
7, 228951, Note_off_c, 5, 76, 64
7, 228961, Note_on_c, 5, 79, 89
7, 228970, Note_off_c, 5, 78, 64
7, 229306, Note_off_c, 5, 79, 64
7, 229372, Note_on_c, 5, 79, 85
7, 229403, Note_off_c, 5, 79, 64
7, 229432, Note_on_c, 5, 79, 85
7, 229729, Note_off_c, 5, 79, 64
7, 229789, Note_on_c, 5, 78, 62
7, 229808, Note_on_c, 5, 76, 82
7, 229827, Note_off_c, 5, 78, 64
7, 229836, Note_on_c, 5, 74, 72
7, 229849, Note_off_c, 5, 76, 64
7, 229851, Note_on_c, 5, 73, 53
7, 229874, Note_on_c, 5, 71, 89
7, 229887, Note_off_c, 5, 73, 64
7, 229890, Note_off_c, 5, 74, 64
7, 229905, Note_off_c, 5, 71, 64
7, 229917, Note_on_c, 5, 69, 85
7, 230048, Note_off_c, 5, 69, 64
7, 230093, Note_on_c, 5, 67, 74
7, 230119, Note_on_c, 5, 66, 80
7, 230127, Note_off_c, 5, 67, 64
7, 230152, Note_off_c, 5, 66, 64
7, 230160, Note_on_c, 5, 67, 89
7, 230250, Note_off_c, 5, 67, 64
7, 230325, Note_on_c, 5, 76, 89
7, 230361, Note_off_c, 5, 76, 64
7, 230390, Note_on_c, 5, 66, 82
7, 230654, Note_off_c, 5, 66, 64
7, 230697, Note_on_c, 5, 67, 78
7, 230738, Note_off_c, 5, 67, 64
7, 230762, Note_on_c, 5, 69, 85
7, 230803, Note_off_c, 5, 69, 64
7, 230818, Note_on_c, 5, 71, 89
7, 230854, Note_off_c, 5, 71, 64
7, 230878, Note_on_c, 5, 72, 85
7, 231229, Note_off_c, 5, 72, 64
7, 231288, Note_on_c, 5, 74, 87
7, 231321, Note_off_c, 5, 74, 64
7, 231353, Note_on_c, 5, 71, 87
7, 231623, Note_off_c, 5, 71, 64
7, 231653, Note_on_c, 5, 69, 78
7, 231695, Note_off_c, 5, 69, 64
7, 231712, Note_on_c, 5, 67, 87
7, 231749, Note_off_c, 5, 67, 64
7, 231766, Note_on_c, 5, 66, 80
7, 231808, Note_off_c, 5, 66, 64
7, 231827, Note_on_c, 5, 64, 82
7, 231880, Note_off_c, 5, 64, 64
7, 231889, Note_on_c, 5, 66, 82
7, 231936, Note_off_c, 5, 66, 64
7, 231951, Note_on_c, 5, 67, 68
7, 232004, Note_off_c, 5, 67, 64
7, 232013, Note_on_c, 5, 69, 87
7, 232058, Note_off_c, 5, 69, 64
7, 232077, Note_on_c, 5, 71, 87
7, 232125, Note_off_c, 5, 71, 64
7, 232136, Note_on_c, 5, 73, 66
7, 232182, Note_off_c, 5, 73, 64
7, 232198, Note_on_c, 5, 74, 93
7, 232240, Note_off_c, 5, 74, 64
7, 232252, Note_on_c, 5, 71, 87
7, 232304, Note_off_c, 5, 71, 64
7, 232304, End_track
8, 0, Start_track
8, 0, Title_t, "Violin"
8, 0, Program_c, 6, 40
8, 0, Control_c, 6, 7, 100
8, 957, Note_on_c, 6, 62, 102
8, 1211, Note_off_c, 6, 62, 64
8, 1247, Note_on_c, 6, 66, 102
8, 1284, Note_off_c, 6, 66, 64
8, 1306, Note_on_c, 6, 64, 93
8, 1342, Note_off_c, 6, 64, 64
8, 1361, Note_on_c, 6, 62, 95
8, 1396, Note_off_c, 6, 62, 64
8, 1433, Note_on_c, 6, 71, 98
8, 1701, Note_off_c, 6, 71, 64
8, 1736, Note_on_c, 6, 74, 95
8, 1769, Note_off_c, 6, 74, 64
8, 1793, Note_on_c, 6, 73, 87
8, 1826, Note_off_c, 6, 73, 64
8, 1848, Note_on_c, 6, 71, 100
8, 1886, Note_off_c, 6, 71, 64
8, 1918, Note_on_c, 6, 79, 102
8, 2184, Note_off_c, 6, 79, 64
8, 2206, Note_on_c, 6, 76, 85
8, 2238, Note_off_c, 6, 76, 64
8, 2263, Note_on_c, 6, 78, 102
8, 2299, Note_off_c, 6, 78, 64
8, 2319, Note_on_c, 6, 79, 93
8, 2359, Note_off_c, 6, 79, 64
8, 2387, Note_on_c, 6, 73, 95
8, 2654, Note_off_c, 6, 73, 64
8, 2684, Note_on_c, 6, 69, 93
8, 2718, Note_off_c, 6, 69, 64
8, 2739, Note_on_c, 6, 71, 82
8, 2777, Note_off_c, 6, 71, 64
8, 2799, Note_on_c, 6, 73, 98
8, 2840, Note_off_c, 6, 73, 64
8, 2873, Note_on_c, 6, 64, 98
8, 3189, Note_off_c, 6, 64, 64
8, 3293, Note_on_c, 6, 64, 89
8, 3345, Note_off_c, 6, 64, 64
8, 3356, Note_on_c, 6, 76, 91
8, 3446, Note_off_c, 6, 76, 64
8, 3528, Note_on_c, 6, 73, 78
8, 3572, Note_off_c, 6, 73, 64
8, 3593, Note_on_c, 6, 69, 89
8, 3684, Note_off_c, 6, 69, 64
8, 3784, Note_on_c, 6, 67, 78
8, 3826, Note_off_c, 6, 67, 64
8, 3848, Note_on_c, 6, 66, 91
8, 3939, Note_off_c, 6, 66, 64
8, 4007, Note_on_c, 6, 62, 89
8, 4054, Note_off_c, 6, 62, 64
8, 4075, Note_on_c, 6, 66, 89
8, 4160, Note_off_c, 6, 66, 64
8, 4251, Note_on_c, 6, 69, 80
8, 4293, Note_off_c, 6, 69, 64
8, 4315, Note_on_c, 6, 74, 91
8, 4400, Note_off_c, 6, 74, 64
8, 4495, Note_on_c, 6, 69, 87
8, 4533, Note_off_c, 6, 69, 64
8, 4558, Note_on_c, 6, 74, 87
8, 4637, Note_off_c, 6, 74, 64
8, 4729, Note_on_c, 6, 76, 89
8, 4769, Note_off_c, 6, 76, 64
8, 4796, Note_on_c, 6, 78, 91
8, 5052, Note_off_c, 6, 78, 64
8, 5087, Note_on_c, 6, 79, 82
8, 5124, Note_off_c, 6, 79, 64
8, 5150, Note_on_c, 6, 81, 87
8, 5187, Note_off_c, 6, 81, 64
8, 5207, Note_on_c, 6, 78, 91
8, 5253, Note_off_c, 6, 78, 64
8, 5274, Note_on_c, 6, 83, 95
8, 5535, Note_off_c, 6, 83, 64
8, 5572, Note_on_c, 6, 80, 102
8, 5606, Note_off_c, 6, 80, 64
8, 5633, Note_on_c, 6, 81, 89
8, 5669, Note_off_c, 6, 81, 64
8, 5691, Note_on_c, 6, 83, 91
8, 5728, Note_off_c, 6, 83, 64
8, 5753, Note_on_c, 6, 76, 87
8, 6009, Note_off_c, 6, 76, 64
8, 6057, Note_on_c, 6, 76, 91
8, 6095, Note_off_c, 6, 76, 64
8, 6116, Note_on_c, 6, 78, 98
8, 6154, Note_off_c, 6, 78, 64
8, 6171, Note_on_c, 6, 80, 102
8, 6207, Note_off_c, 6, 80, 64
8, 6232, Note_on_c, 6, 81, 91
8, 6330, Note_off_c, 6, 81, 64
8, 6410, Note_on_c, 6, 76, 85
8, 6456, Note_off_c, 6, 76, 64
8, 6475, Note_on_c, 6, 73, 85
8, 6574, Note_off_c, 6, 73, 64
8, 6654, Note_on_c, 6, 69, 89
8, 6695, Note_off_c, 6, 69, 64
8, 6722, Note_on_c, 6, 74, 93
8, 7050, Note_off_c, 6, 74, 64
8, 7133, Note_on_c, 6, 74, 87
8, 7168, Note_off_c, 6, 74, 64
8, 7194, Note_on_c, 6, 74, 89
8, 7323, Note_off_c, 6, 74, 64
8, 7362, Note_on_c, 6, 76, 82
8, 7386, Note_on_c, 6, 78, 91
8, 7394, Note_off_c, 6, 76, 64
8, 7415, Note_off_c, 6, 78, 64
8, 7426, Note_on_c, 6, 76, 89
8, 7527, Note_off_c, 6, 76, 64
8, 7614, Note_on_c, 6, 74, 85
8, 7651, Note_off_c, 6, 74, 64
8, 7675, Note_on_c, 6, 73, 85
8, 7771, Note_off_c, 6, 73, 64
8, 7847, Note_on_c, 6, 69, 85
8, 7893, Note_off_c, 6, 69, 64
8, 7915, Note_on_c, 6, 73, 82
8, 7998, Note_off_c, 6, 73, 64
8, 8097, Note_on_c, 6, 76, 87
8, 8133, Note_off_c, 6, 76, 64
8, 8162, Note_on_c, 6, 81, 102
8, 8305, Note_off_c, 6, 81, 64
8, 8330, Note_on_c, 6, 79, 82
8, 8354, Note_on_c, 6, 78, 95
8, 8363, Note_off_c, 6, 79, 64
8, 8385, Note_off_c, 6, 78, 64
8, 8398, Note_on_c, 6, 79, 91
8, 8500, Note_off_c, 6, 79, 64
8, 8580, Note_on_c, 6, 76, 89
8, 8627, Note_off_c, 6, 76, 64
8, 8643, Note_on_c, 6, 83, 95
8, 8946, Note_off_c, 6, 83, 64
8, 9046, Note_on_c, 6, 75, 82
8, 9089, Note_off_c, 6, 75, 64
8, 9109, Note_on_c, 6, 76, 85
8, 9232, Note_off_c, 6, 76, 64
8, 9285, Note_on_c, 6, 78, 85
8, 9326, Note_off_c, 6, 78, 64
8, 9350, Note_on_c, 6, 79, 87
8, 9397, Note_on_c, 6, 78, 85
8, 9402, Note_off_c, 6, 79, 64
8, 9422, Note_off_c, 6, 78, 64
8, 9424, Note_on_c, 6, 79, 76
8, 9445, Note_on_c, 6, 78, 80
8, 9450, Note_off_c, 6, 79, 64
8, 9465, Note_on_c, 6, 79, 74
8, 9468, Note_off_c, 6, 78, 64
8, 9488, Note_on_c, 6, 78, 76
8, 9500, Note_off_c, 6, 79, 64
8, 9514, Note_on_c, 6, 76, 68
8, 9521, Note_off_c, 6, 78, 64
8, 9545, Note_on_c, 6, 78, 76
8, 9558, Note_off_c, 6, 76, 64
8, 9574, Note_off_c, 6, 78, 64
8, 9583, Note_on_c, 6, 79, 98
8, 9847, Note_off_c, 6, 79, 64
8, 9875, Note_on_c, 6, 78, 89
8, 9909, Note_off_c, 6, 78, 64
8, 9934, Note_on_c, 6, 76, 85
8, 9974, Note_off_c, 6, 76, 64
8, 9994, Note_on_c, 6, 74, 82
8, 10033, Note_off_c, 6, 74, 64
8, 10064, Note_on_c, 6, 72, 95
8, 10154, Note_off_c, 6, 72, 64
8, 10248, Note_on_c, 6, 72, 82
8, 10292, Note_off_c, 6, 72, 64
8, 10312, Note_on_c, 6, 74, 89
8, 10399, Note_off_c, 6, 74, 64
8, 10488, Note_on_c, 6, 76, 87
8, 10530, Note_off_c, 6, 76, 64
8, 10553, Note_on_c, 6, 71, 100
8, 10672, Note_on_c, 6, 70, 68
8, 10682, Note_off_c, 6, 71, 64
8, 10877, Note_off_c, 6, 70, 64
8, 10980, Note_on_c, 6, 79, 100
8, 11016, Note_off_c, 6, 79, 64
8, 11040, Note_on_c, 6, 78, 105
8, 11135, Note_off_c, 6, 78, 64
8, 11214, Note_on_c, 6, 76, 87
8, 11261, Note_off_c, 6, 76, 64
8, 11276, Note_on_c, 6, 74, 100
8, 11357, Note_off_c, 6, 74, 64
8, 11453, Note_on_c, 6, 73, 80
8, 11499, Note_off_c, 6, 73, 64
8, 11515, Note_on_c, 6, 74, 91
8, 11605, Note_off_c, 6, 74, 64
8, 11691, Note_on_c, 6, 73, 87
8, 11736, Note_off_c, 6, 73, 64
8, 11753, Note_on_c, 6, 71, 85
8, 11844, Note_off_c, 6, 71, 64
8, 11926, Note_on_c, 6, 73, 76
8, 11974, Note_off_c, 6, 73, 64
8, 11996, Note_on_c, 6, 74, 95
8, 12057, Note_on_c, 6, 73, 80
8, 12063, Note_off_c, 6, 74, 64
8, 12090, Note_on_c, 6, 74, 80
8, 12091, Note_off_c, 6, 73, 64
8, 12118, Note_on_c, 6, 73, 63
8, 12120, Note_off_c, 6, 74, 64
8, 12142, Note_off_c, 6, 73, 64
8, 12144, Note_on_c, 6, 74, 80
8, 12164, Note_on_c, 6, 73, 63
8, 12166, Note_off_c, 6, 74, 64
8, 12185, Note_off_c, 6, 73, 64
8, 12187, Note_on_c, 6, 74, 76
8, 12205, Note_on_c, 6, 73, 62
8, 12209, Note_off_c, 6, 74, 64
8, 12222, Note_on_c, 6, 74, 87
8, 12226, Note_off_c, 6, 73, 64
8, 12241, Note_on_c, 6, 73, 80
8, 12251, Note_off_c, 6, 74, 64
8, 12357, Note_off_c, 6, 73, 64
8, 12407, Note_on_c, 6, 71, 85
8, 12439, Note_off_c, 6, 71, 64
8, 12468, Note_on_c, 6, 71, 95
8, 12721, Note_off_c, 6, 71, 64
8, 12768, Note_on_c, 6, 71, 82
8, 12801, Note_off_c, 6, 71, 64
8, 12822, Note_on_c, 6, 69, 80
8, 12866, Note_off_c, 6, 69, 64
8, 12883, Note_on_c, 6, 68, 91
8, 12925, Note_off_c, 6, 68, 64
8, 12948, Note_on_c, 6, 69, 93
8, 13038, Note_off_c, 6, 69, 64
8, 13124, Note_on_c, 6, 78, 89
8, 13171, Note_off_c, 6, 78, 64
8, 13188, Note_on_c, 6, 71, 95
8, 13275, Note_off_c, 6, 71, 64
8, 13371, Note_on_c, 6, 69, 87
8, 13416, Note_off_c, 6, 69, 64
8, 13439, Note_on_c, 6, 68, 89
8, 13529, Note_off_c, 6, 68, 64
8, 13610, Note_on_c, 6, 64, 85
8, 13654, Note_off_c, 6, 64, 64
8, 13676, Note_on_c, 6, 68, 93
8, 13757, Note_off_c, 6, 68, 64
8, 13855, Note_on_c, 6, 71, 85
8, 13898, Note_off_c, 6, 71, 64
8, 13923, Note_on_c, 6, 76, 89
8, 14266, Note_off_c, 6, 76, 64
8, 14330, Note_on_c, 6, 76, 89
8, 14367, Note_off_c, 6, 76, 64
8, 14391, Note_on_c, 6, 76, 98
8, 14645, Note_off_c, 6, 76, 64
8, 14683, Note_on_c, 6, 69, 80
8, 14726, Note_off_c, 6, 69, 64
8, 14745, Note_on_c, 6, 71, 82
8, 14785, Note_off_c, 6, 71, 64
8, 14806, Note_on_c, 6, 73, 82
8, 14843, Note_off_c, 6, 73, 64
8, 14863, Note_on_c, 6, 74, 87
8, 14907, Note_off_c, 6, 74, 64
8, 14926, Note_on_c, 6, 73, 91
8, 14966, Note_off_c, 6, 73, 64
8, 14985, Note_on_c, 6, 74, 85
8, 15030, Note_off_c, 6, 74, 64
8, 15043, Note_on_c, 6, 76, 82
8, 15090, Note_off_c, 6, 76, 64
8, 15107, Note_on_c, 6, 78, 102
8, 15155, Note_off_c, 6, 78, 64
8, 15163, Note_on_c, 6, 76, 85
8, 15207, Note_off_c, 6, 76, 64
8, 15225, Note_on_c, 6, 78, 89
8, 15268, Note_off_c, 6, 78, 64
8, 15282, Note_on_c, 6, 80, 107
8, 15320, Note_off_c, 6, 80, 64
8, 15341, Note_on_c, 6, 81, 87
8, 15417, Note_on_c, 6, 80, 82
8, 15423, Note_off_c, 6, 81, 64
8, 15502, Note_off_c, 6, 80, 64
8, 15584, Note_on_c, 6, 78, 102
8, 15659, Note_on_c, 6, 76, 72
8, 15660, Note_off_c, 6, 78, 64
8, 15756, Note_off_c, 6, 76, 64
8, 15832, Note_on_c, 6, 83, 91
8, 16152, Note_off_c, 6, 83, 64
8, 16242, Note_on_c, 6, 74, 87
8, 16281, Note_off_c, 6, 74, 64
8, 16309, Note_on_c, 6, 73, 89
8, 16672, Note_off_c, 6, 73, 64
8, 16722, Note_on_c, 6, 71, 85
8, 16773, Note_off_c, 6, 71, 64
8, 16791, Note_on_c, 6, 73, 87
8, 16851, Note_on_c, 6, 71, 72
8, 16858, Note_off_c, 6, 73, 64
8, 16881, Note_off_c, 6, 71, 64
8, 16885, Note_on_c, 6, 73, 62
8, 16908, Note_off_c, 6, 73, 64
8, 16908, Note_on_c, 6, 71, 66
8, 16930, Note_off_c, 6, 71, 64
8, 16931, Note_on_c, 6, 73, 80
8, 16949, Note_on_c, 6, 71, 70
8, 16950, Note_off_c, 6, 73, 64
8, 16971, Note_on_c, 6, 73, 98
8, 16972, Note_off_c, 6, 71, 64
8, 16992, Note_on_c, 6, 71, 76
8, 16997, Note_off_c, 6, 73, 64
8, 17011, Note_on_c, 6, 73, 82
8, 17015, Note_off_c, 6, 71, 64
8, 17031, Note_on_c, 6, 71, 89
8, 17040, Note_off_c, 6, 73, 64
8, 17171, Note_off_c, 6, 71, 64
8, 17204, Note_on_c, 6, 69, 100
8, 17239, Note_off_c, 6, 69, 64
8, 17269, Note_on_c, 6, 69, 100
8, 17519, Note_off_c, 6, 69, 64
8, 23997, Note_on_c, 6, 62, 102
8, 24251, Note_off_c, 6, 62, 64
8, 24287, Note_on_c, 6, 66, 102
8, 24324, Note_off_c, 6, 66, 64
8, 24346, Note_on_c, 6, 64, 93
8, 24382, Note_off_c, 6, 64, 64
8, 24401, Note_on_c, 6, 62, 95
8, 24436, Note_off_c, 6, 62, 64
8, 24473, Note_on_c, 6, 71, 98
8, 24741, Note_off_c, 6, 71, 64
8, 24776, Note_on_c, 6, 74, 95
8, 24809, Note_off_c, 6, 74, 64
8, 24833, Note_on_c, 6, 73, 87
8, 24866, Note_off_c, 6, 73, 64
8, 24888, Note_on_c, 6, 71, 100
8, 24926, Note_off_c, 6, 71, 64
8, 24958, Note_on_c, 6, 79, 102
8, 25224, Note_off_c, 6, 79, 64
8, 25246, Note_on_c, 6, 76, 85
8, 25278, Note_off_c, 6, 76, 64
8, 25303, Note_on_c, 6, 78, 102
8, 25339, Note_off_c, 6, 78, 64
8, 25359, Note_on_c, 6, 79, 93
8, 25399, Note_off_c, 6, 79, 64
8, 25427, Note_on_c, 6, 73, 95
8, 25694, Note_off_c, 6, 73, 64
8, 25724, Note_on_c, 6, 69, 93
8, 25758, Note_off_c, 6, 69, 64
8, 25779, Note_on_c, 6, 71, 82
8, 25817, Note_off_c, 6, 71, 64
8, 25839, Note_on_c, 6, 73, 98
8, 25880, Note_off_c, 6, 73, 64
8, 25913, Note_on_c, 6, 64, 98
8, 26229, Note_off_c, 6, 64, 64
8, 26333, Note_on_c, 6, 64, 89
8, 26385, Note_off_c, 6, 64, 64
8, 26396, Note_on_c, 6, 76, 91
8, 26486, Note_off_c, 6, 76, 64
8, 26568, Note_on_c, 6, 73, 78
8, 26612, Note_off_c, 6, 73, 64
8, 26633, Note_on_c, 6, 69, 89
8, 26724, Note_off_c, 6, 69, 64
8, 26824, Note_on_c, 6, 67, 78
8, 26866, Note_off_c, 6, 67, 64
8, 26888, Note_on_c, 6, 66, 91
8, 26979, Note_off_c, 6, 66, 64
8, 27047, Note_on_c, 6, 62, 89
8, 27094, Note_off_c, 6, 62, 64
8, 27115, Note_on_c, 6, 66, 89
8, 27200, Note_off_c, 6, 66, 64
8, 27291, Note_on_c, 6, 69, 80
8, 27333, Note_off_c, 6, 69, 64
8, 27355, Note_on_c, 6, 74, 91
8, 27440, Note_off_c, 6, 74, 64
8, 27535, Note_on_c, 6, 69, 87
8, 27573, Note_off_c, 6, 69, 64
8, 27598, Note_on_c, 6, 74, 87
8, 27677, Note_off_c, 6, 74, 64
8, 27769, Note_on_c, 6, 76, 89
8, 27809, Note_off_c, 6, 76, 64
8, 27836, Note_on_c, 6, 78, 91
8, 28092, Note_off_c, 6, 78, 64
8, 28127, Note_on_c, 6, 79, 82
8, 28164, Note_off_c, 6, 79, 64
8, 28190, Note_on_c, 6, 81, 87
8, 28227, Note_off_c, 6, 81, 64
8, 28247, Note_on_c, 6, 78, 91
8, 28293, Note_off_c, 6, 78, 64
8, 28314, Note_on_c, 6, 83, 95
8, 28575, Note_off_c, 6, 83, 64
8, 28612, Note_on_c, 6, 80, 102
8, 28646, Note_off_c, 6, 80, 64
8, 28673, Note_on_c, 6, 81, 89
8, 28709, Note_off_c, 6, 81, 64
8, 28731, Note_on_c, 6, 83, 91
8, 28768, Note_off_c, 6, 83, 64
8, 28793, Note_on_c, 6, 76, 87
8, 29049, Note_off_c, 6, 76, 64
8, 29097, Note_on_c, 6, 76, 91
8, 29135, Note_off_c, 6, 76, 64
8, 29156, Note_on_c, 6, 78, 98
8, 29194, Note_off_c, 6, 78, 64
8, 29211, Note_on_c, 6, 80, 102
8, 29247, Note_off_c, 6, 80, 64
8, 29272, Note_on_c, 6, 81, 91
8, 29370, Note_off_c, 6, 81, 64
8, 29450, Note_on_c, 6, 76, 85
8, 29496, Note_off_c, 6, 76, 64
8, 29515, Note_on_c, 6, 73, 85
8, 29614, Note_off_c, 6, 73, 64
8, 29694, Note_on_c, 6, 69, 89
8, 29735, Note_off_c, 6, 69, 64
8, 29762, Note_on_c, 6, 74, 93
8, 30090, Note_off_c, 6, 74, 64
8, 30173, Note_on_c, 6, 74, 87
8, 30208, Note_off_c, 6, 74, 64
8, 30234, Note_on_c, 6, 74, 89
8, 30363, Note_off_c, 6, 74, 64
8, 30402, Note_on_c, 6, 76, 82
8, 30426, Note_on_c, 6, 78, 91
8, 30434, Note_off_c, 6, 76, 64
8, 30455, Note_off_c, 6, 78, 64
8, 30466, Note_on_c, 6, 76, 89
8, 30567, Note_off_c, 6, 76, 64
8, 30654, Note_on_c, 6, 74, 85
8, 30691, Note_off_c, 6, 74, 64
8, 30715, Note_on_c, 6, 73, 85
8, 30811, Note_off_c, 6, 73, 64
8, 30887, Note_on_c, 6, 69, 85
8, 30933, Note_off_c, 6, 69, 64
8, 30955, Note_on_c, 6, 73, 82
8, 31038, Note_off_c, 6, 73, 64
8, 31137, Note_on_c, 6, 76, 87
8, 31173, Note_off_c, 6, 76, 64
8, 31202, Note_on_c, 6, 81, 102
8, 31345, Note_off_c, 6, 81, 64
8, 31370, Note_on_c, 6, 79, 82
8, 31394, Note_on_c, 6, 78, 95
8, 31403, Note_off_c, 6, 79, 64
8, 31425, Note_off_c, 6, 78, 64
8, 31438, Note_on_c, 6, 79, 91
8, 31540, Note_off_c, 6, 79, 64
8, 31620, Note_on_c, 6, 76, 89
8, 31667, Note_off_c, 6, 76, 64
8, 31683, Note_on_c, 6, 83, 95
8, 31986, Note_off_c, 6, 83, 64
8, 32086, Note_on_c, 6, 75, 82
8, 32129, Note_off_c, 6, 75, 64
8, 32149, Note_on_c, 6, 76, 85
8, 32272, Note_off_c, 6, 76, 64
8, 32325, Note_on_c, 6, 78, 85
8, 32366, Note_off_c, 6, 78, 64
8, 32390, Note_on_c, 6, 79, 87
8, 32437, Note_on_c, 6, 78, 85
8, 32442, Note_off_c, 6, 79, 64
8, 32462, Note_off_c, 6, 78, 64
8, 32464, Note_on_c, 6, 79, 76
8, 32485, Note_on_c, 6, 78, 80
8, 32490, Note_off_c, 6, 79, 64
8, 32505, Note_on_c, 6, 79, 74
8, 32508, Note_off_c, 6, 78, 64
8, 32528, Note_on_c, 6, 78, 76
8, 32540, Note_off_c, 6, 79, 64
8, 32554, Note_on_c, 6, 76, 68
8, 32561, Note_off_c, 6, 78, 64
8, 32585, Note_on_c, 6, 78, 76
8, 32598, Note_off_c, 6, 76, 64
8, 32614, Note_off_c, 6, 78, 64
8, 32623, Note_on_c, 6, 79, 98
8, 32887, Note_off_c, 6, 79, 64
8, 32915, Note_on_c, 6, 78, 89
8, 32949, Note_off_c, 6, 78, 64
8, 32974, Note_on_c, 6, 76, 85
8, 33014, Note_off_c, 6, 76, 64
8, 33034, Note_on_c, 6, 74, 82
8, 33073, Note_off_c, 6, 74, 64
8, 33104, Note_on_c, 6, 72, 95
8, 33194, Note_off_c, 6, 72, 64
8, 33288, Note_on_c, 6, 72, 82
8, 33332, Note_off_c, 6, 72, 64
8, 33352, Note_on_c, 6, 74, 89
8, 33439, Note_off_c, 6, 74, 64
8, 33528, Note_on_c, 6, 76, 87
8, 33570, Note_off_c, 6, 76, 64
8, 33593, Note_on_c, 6, 71, 100
8, 33712, Note_on_c, 6, 70, 68
8, 33722, Note_off_c, 6, 71, 64
8, 33917, Note_off_c, 6, 70, 64
8, 34020, Note_on_c, 6, 79, 100
8, 34056, Note_off_c, 6, 79, 64
8, 34080, Note_on_c, 6, 78, 105
8, 34175, Note_off_c, 6, 78, 64
8, 34254, Note_on_c, 6, 76, 87
8, 34301, Note_off_c, 6, 76, 64
8, 34316, Note_on_c, 6, 74, 100
8, 34397, Note_off_c, 6, 74, 64
8, 34493, Note_on_c, 6, 73, 80
8, 34539, Note_off_c, 6, 73, 64
8, 34555, Note_on_c, 6, 74, 91
8, 34645, Note_off_c, 6, 74, 64
8, 34731, Note_on_c, 6, 73, 87
8, 34776, Note_off_c, 6, 73, 64
8, 34793, Note_on_c, 6, 71, 85
8, 34884, Note_off_c, 6, 71, 64
8, 34966, Note_on_c, 6, 73, 76
8, 35014, Note_off_c, 6, 73, 64
8, 35036, Note_on_c, 6, 74, 95
8, 35097, Note_on_c, 6, 73, 80
8, 35103, Note_off_c, 6, 74, 64
8, 35130, Note_on_c, 6, 74, 80
8, 35131, Note_off_c, 6, 73, 64
8, 35158, Note_on_c, 6, 73, 63
8, 35160, Note_off_c, 6, 74, 64
8, 35182, Note_off_c, 6, 73, 64
8, 35184, Note_on_c, 6, 74, 80
8, 35204, Note_on_c, 6, 73, 63
8, 35206, Note_off_c, 6, 74, 64
8, 35225, Note_off_c, 6, 73, 64
8, 35227, Note_on_c, 6, 74, 76
8, 35245, Note_on_c, 6, 73, 62
8, 35249, Note_off_c, 6, 74, 64
8, 35262, Note_on_c, 6, 74, 87
8, 35266, Note_off_c, 6, 73, 64
8, 35281, Note_on_c, 6, 73, 80
8, 35291, Note_off_c, 6, 74, 64
8, 35397, Note_off_c, 6, 73, 64
8, 35447, Note_on_c, 6, 71, 85
8, 35479, Note_off_c, 6, 71, 64
8, 35508, Note_on_c, 6, 71, 95
8, 35761, Note_off_c, 6, 71, 64
8, 35808, Note_on_c, 6, 71, 82
8, 35841, Note_off_c, 6, 71, 64
8, 35862, Note_on_c, 6, 69, 80
8, 35906, Note_off_c, 6, 69, 64
8, 35923, Note_on_c, 6, 68, 91
8, 35965, Note_off_c, 6, 68, 64
8, 35988, Note_on_c, 6, 69, 93
8, 36078, Note_off_c, 6, 69, 64
8, 36164, Note_on_c, 6, 78, 89
8, 36211, Note_off_c, 6, 78, 64
8, 36228, Note_on_c, 6, 71, 95
8, 36315, Note_off_c, 6, 71, 64
8, 36411, Note_on_c, 6, 69, 87
8, 36456, Note_off_c, 6, 69, 64
8, 36479, Note_on_c, 6, 68, 89
8, 36569, Note_off_c, 6, 68, 64
8, 36650, Note_on_c, 6, 64, 85
8, 36694, Note_off_c, 6, 64, 64
8, 36716, Note_on_c, 6, 68, 93
8, 36797, Note_off_c, 6, 68, 64
8, 36895, Note_on_c, 6, 71, 85
8, 36938, Note_off_c, 6, 71, 64
8, 36963, Note_on_c, 6, 76, 89
8, 37306, Note_off_c, 6, 76, 64
8, 37370, Note_on_c, 6, 76, 89
8, 37407, Note_off_c, 6, 76, 64
8, 37431, Note_on_c, 6, 76, 98
8, 37685, Note_off_c, 6, 76, 64
8, 37723, Note_on_c, 6, 69, 80
8, 37766, Note_off_c, 6, 69, 64
8, 37785, Note_on_c, 6, 71, 82
8, 37825, Note_off_c, 6, 71, 64
8, 37846, Note_on_c, 6, 73, 82
8, 37883, Note_off_c, 6, 73, 64
8, 37903, Note_on_c, 6, 74, 87
8, 37947, Note_off_c, 6, 74, 64
8, 37966, Note_on_c, 6, 73, 91
8, 38006, Note_off_c, 6, 73, 64
8, 38025, Note_on_c, 6, 74, 85
8, 38070, Note_off_c, 6, 74, 64
8, 38083, Note_on_c, 6, 76, 82
8, 38130, Note_off_c, 6, 76, 64
8, 38147, Note_on_c, 6, 78, 102
8, 38195, Note_off_c, 6, 78, 64
8, 38203, Note_on_c, 6, 76, 85
8, 38247, Note_off_c, 6, 76, 64
8, 38265, Note_on_c, 6, 78, 89
8, 38308, Note_off_c, 6, 78, 64
8, 38322, Note_on_c, 6, 80, 107
8, 38360, Note_off_c, 6, 80, 64
8, 38381, Note_on_c, 6, 81, 87
8, 38457, Note_on_c, 6, 80, 82
8, 38463, Note_off_c, 6, 81, 64
8, 38542, Note_off_c, 6, 80, 64
8, 38624, Note_on_c, 6, 78, 102
8, 38699, Note_on_c, 6, 76, 72
8, 38700, Note_off_c, 6, 78, 64
8, 38796, Note_off_c, 6, 76, 64
8, 38872, Note_on_c, 6, 83, 91
8, 39192, Note_off_c, 6, 83, 64
8, 39282, Note_on_c, 6, 74, 87
8, 39321, Note_off_c, 6, 74, 64
8, 39349, Note_on_c, 6, 73, 89
8, 39712, Note_off_c, 6, 73, 64
8, 39762, Note_on_c, 6, 71, 85
8, 39813, Note_off_c, 6, 71, 64
8, 39831, Note_on_c, 6, 73, 87
8, 39891, Note_on_c, 6, 71, 72
8, 39898, Note_off_c, 6, 73, 64
8, 39921, Note_off_c, 6, 71, 64
8, 39925, Note_on_c, 6, 73, 62
8, 39948, Note_off_c, 6, 73, 64
8, 39948, Note_on_c, 6, 71, 66
8, 39970, Note_off_c, 6, 71, 64
8, 39971, Note_on_c, 6, 73, 80
8, 39989, Note_on_c, 6, 71, 70
8, 39990, Note_off_c, 6, 73, 64
8, 40011, Note_on_c, 6, 73, 98
8, 40012, Note_off_c, 6, 71, 64
8, 40032, Note_on_c, 6, 71, 76
8, 40037, Note_off_c, 6, 73, 64
8, 40051, Note_on_c, 6, 73, 82
8, 40055, Note_off_c, 6, 71, 64
8, 40071, Note_on_c, 6, 71, 89
8, 40080, Note_off_c, 6, 73, 64
8, 40211, Note_off_c, 6, 71, 64
8, 40244, Note_on_c, 6, 69, 100
8, 40279, Note_off_c, 6, 69, 64
8, 40309, Note_on_c, 6, 69, 100
8, 40559, Note_off_c, 6, 69, 64
8, 46207, Note_on_c, 6, 69, 87
8, 46256, Note_on_c, 6, 71, 82
8, 46258, Note_off_c, 6, 69, 64
8, 46308, Note_off_c, 6, 71, 64
8, 46319, Note_on_c, 6, 73, 74
8, 46375, Note_off_c, 6, 73, 64
8, 46440, Note_on_c, 6, 73, 57
8, 46490, Note_off_c, 6, 73, 64
8, 46490, Note_on_c, 6, 74, 64
8, 46533, Note_off_c, 6, 74, 64
8, 46549, Note_on_c, 6, 76, 85
8, 46616, Note_off_c, 6, 76, 64
8, 46677, Note_on_c, 6, 73, 56
8, 46726, Note_off_c, 6, 73, 64
8, 46732, Note_on_c, 6, 74, 66
8, 46780, Note_off_c, 6, 74, 64
8, 46793, Note_on_c, 6, 76, 78
8, 46856, Note_off_c, 6, 76, 64
8, 46915, Note_on_c, 6, 76, 63
8, 46963, Note_off_c, 6, 76, 64
8, 46963, Note_on_c, 6, 78, 59
8, 47007, Note_off_c, 6, 78, 64
8, 47024, Note_on_c, 6, 79, 80
8, 47093, Note_off_c, 6, 79, 64
8, 47149, Note_on_c, 6, 79, 70
8, 47195, Note_on_c, 6, 78, 60
8, 47198, Note_off_c, 6, 79, 64
8, 47240, Note_off_c, 6, 78, 64
8, 47262, Note_on_c, 6, 79, 72
8, 47329, Note_off_c, 6, 79, 64
8, 47385, Note_on_c, 6, 81, 70
8, 47433, Note_off_c, 6, 81, 64
8, 47443, Note_on_c, 6, 79, 70
8, 47481, Note_off_c, 6, 79, 64
8, 47506, Note_on_c, 6, 78, 68
8, 47559, Note_off_c, 6, 78, 64
8, 47631, Note_on_c, 6, 81, 82
8, 47672, Note_off_c, 6, 81, 64
8, 47748, Note_on_c, 6, 74, 72
8, 47795, Note_off_c, 6, 74, 64
8, 47874, Note_on_c, 6, 78, 63
8, 48054, Note_off_c, 6, 78, 64
8, 48114, Note_on_c, 6, 81, 76
8, 48158, Note_off_c, 6, 81, 64
8, 48238, Note_on_c, 6, 72, 78
8, 48283, Note_off_c, 6, 72, 64
8, 48360, Note_on_c, 6, 78, 66
8, 48528, Note_off_c, 6, 78, 64
8, 48595, Note_on_c, 6, 81, 82
8, 48653, Note_off_c, 6, 81, 64
8, 48720, Note_on_c, 6, 74, 74
8, 48773, Note_off_c, 6, 74, 64
8, 48836, Note_on_c, 6, 78, 57
8, 48894, Note_off_c, 6, 78, 64
8, 48958, Note_on_c, 6, 79, 82
8, 49004, Note_off_c, 6, 79, 64
8, 49080, Note_on_c, 6, 83, 82
8, 49125, Note_off_c, 6, 83, 64
8, 49199, Note_on_c, 6, 74, 80
8, 49248, Note_off_c, 6, 74, 64
8, 49320, Note_on_c, 6, 80, 80
8, 49486, Note_off_c, 6, 80, 64
8, 49554, Note_on_c, 6, 83, 80
8, 49603, Note_off_c, 6, 83, 64
8, 49671, Note_on_c, 6, 76, 74
8, 49723, Note_off_c, 6, 76, 64
8, 49794, Note_on_c, 6, 80, 72
8, 49844, Note_off_c, 6, 80, 64
8, 49917, Note_on_c, 6, 81, 78
8, 49976, Note_on_c, 6, 76, 70
8, 49979, Note_off_c, 6, 81, 64
8, 50016, Note_off_c, 6, 76, 64
8, 50034, Note_on_c, 6, 73, 68
8, 50082, Note_off_c, 6, 73, 64
8, 50086, Note_on_c, 6, 74, 68
8, 50136, Note_off_c, 6, 74, 64
8, 50148, Note_on_c, 6, 76, 63
8, 50202, Note_off_c, 6, 76, 64
8, 50206, Note_on_c, 6, 78, 58
8, 50260, Note_off_c, 6, 78, 64
8, 50267, Note_on_c, 6, 76, 53
8, 50325, Note_on_c, 6, 78, 66
8, 50330, Note_off_c, 6, 76, 64
8, 50373, Note_off_c, 6, 78, 64
8, 50387, Note_on_c, 6, 79, 85
8, 50445, Note_on_c, 6, 76, 68
8, 50451, Note_off_c, 6, 79, 64
8, 50490, Note_off_c, 6, 76, 64
8, 50504, Note_on_c, 6, 69, 57
8, 50564, Note_on_c, 6, 71, 61
8, 50568, Note_off_c, 6, 69, 64
8, 50613, Note_off_c, 6, 71, 64
8, 50622, Note_on_c, 6, 73, 52
8, 50673, Note_on_c, 6, 74, 61
8, 50689, Note_off_c, 6, 73, 64
8, 50729, Note_off_c, 6, 74, 64
8, 50741, Note_on_c, 6, 73, 52
8, 50793, Note_off_c, 6, 73, 64
8, 50793, Note_on_c, 6, 74, 62
8, 50854, Note_off_c, 6, 74, 64
8, 50861, Note_on_c, 6, 76, 82
8, 50919, Note_on_c, 6, 74, 68
8, 50929, Note_off_c, 6, 76, 64
8, 50978, Note_on_c, 6, 73, 47
8, 50979, Note_off_c, 6, 74, 64
8, 51034, Note_on_c, 6, 74, 63
8, 51041, Note_off_c, 6, 73, 64
8, 51082, Note_off_c, 6, 74, 64
8, 51099, Note_on_c, 6, 76, 82
8, 51152, Note_on_c, 6, 74, 68
8, 51165, Note_off_c, 6, 76, 64
8, 51214, Note_on_c, 6, 73, 53
8, 51224, Note_off_c, 6, 74, 64
8, 51268, Note_on_c, 6, 71, 55
8, 51271, Note_off_c, 6, 73, 64
8, 51337, Note_off_c, 6, 71, 64
8, 51337, Note_on_c, 6, 69, 63
8, 51402, Note_on_c, 6, 74, 72
8, 51405, Note_off_c, 6, 69, 64
8, 51457, Note_on_c, 6, 73, 63
8, 51477, Note_off_c, 6, 74, 64
8, 51513, Note_on_c, 6, 71, 63
8, 51526, Note_off_c, 6, 73, 64
8, 51567, Note_off_c, 6, 71, 64
8, 51572, Note_on_c, 6, 69, 76
8, 51629, Note_on_c, 6, 67, 53
8, 51636, Note_off_c, 6, 69, 64
8, 51689, Note_off_c, 6, 67, 64
8, 51692, Note_on_c, 6, 66, 57
8, 51740, Note_off_c, 6, 66, 64
8, 51742, Note_on_c, 6, 64, 59
8, 51784, Note_off_c, 6, 64, 64
8, 51815, Note_on_c, 6, 62, 55
8, 51893, Note_off_c, 6, 62, 64
8, 51954, Note_on_c, 6, 74, 62
8, 52054, Note_off_c, 6, 74, 64
8, 52077, Note_on_c, 6, 74, 64
8, 52170, Note_off_c, 6, 74, 64
8, 52191, Note_on_c, 6, 74, 63
8, 52288, Note_off_c, 6, 74, 64
8, 52313, Note_on_c, 6, 74, 66
8, 52407, Note_off_c, 6, 74, 64
8, 52432, Note_on_c, 6, 74, 61
8, 52523, Note_off_c, 6, 74, 64
8, 52546, Note_on_c, 6, 74, 60
8, 52643, Note_off_c, 6, 74, 64
8, 52670, Note_on_c, 6, 74, 64
8, 52761, Note_off_c, 6, 74, 64
8, 52783, Note_on_c, 6, 74, 66
8, 52883, Note_off_c, 6, 74, 64
8, 52904, Note_on_c, 6, 76, 70
8, 53002, Note_off_c, 6, 76, 64
8, 53024, Note_on_c, 6, 76, 66
8, 53124, Note_off_c, 6, 76, 64
8, 53147, Note_on_c, 6, 76, 72
8, 53237, Note_off_c, 6, 76, 64
8, 53259, Note_on_c, 6, 76, 76
8, 53360, Note_off_c, 6, 76, 64
8, 53385, Note_on_c, 6, 76, 68
8, 53482, Note_off_c, 6, 76, 64
8, 53507, Note_on_c, 6, 76, 68
8, 53595, Note_off_c, 6, 76, 64
8, 53624, Note_on_c, 6, 76, 61
8, 53709, Note_off_c, 6, 76, 64
8, 53745, Note_on_c, 6, 76, 68
8, 53834, Note_off_c, 6, 76, 64
8, 53864, Note_on_c, 6, 76, 70
8, 53950, Note_off_c, 6, 76, 64
8, 53983, Note_on_c, 6, 76, 76
8, 54067, Note_off_c, 6, 76, 64
8, 54102, Note_on_c, 6, 76, 78
8, 54179, Note_off_c, 6, 76, 64
8, 54219, Note_on_c, 6, 76, 87
8, 54294, Note_off_c, 6, 76, 64
8, 54341, Note_on_c, 6, 69, 57
8, 54391, Note_on_c, 6, 71, 58
8, 54392, Note_off_c, 6, 69, 64
8, 54433, Note_off_c, 6, 71, 64
8, 54455, Note_on_c, 6, 73, 87
8, 54522, Note_off_c, 6, 73, 64
8, 54584, Note_on_c, 6, 73, 57
8, 54639, Note_off_c, 6, 73, 64
8, 54642, Note_on_c, 6, 74, 72
8, 54680, Note_off_c, 6, 74, 64
8, 54704, Note_on_c, 6, 76, 82
8, 54773, Note_off_c, 6, 76, 64
8, 54823, Note_on_c, 6, 73, 53
8, 54878, Note_off_c, 6, 73, 64
8, 54883, Note_on_c, 6, 74, 68
8, 54924, Note_off_c, 6, 74, 64
8, 54944, Note_on_c, 6, 76, 80
8, 55000, Note_off_c, 6, 76, 64
8, 55065, Note_on_c, 6, 76, 64
8, 55115, Note_on_c, 6, 78, 64
8, 55120, Note_off_c, 6, 76, 64
8, 55165, Note_off_c, 6, 78, 64
8, 55183, Note_on_c, 6, 79, 85
8, 55245, Note_off_c, 6, 79, 64
8, 55303, Note_on_c, 6, 79, 76
8, 55352, Note_on_c, 6, 78, 60
8, 55361, Note_off_c, 6, 79, 64
8, 55404, Note_off_c, 6, 78, 64
8, 55420, Note_on_c, 6, 79, 82
8, 55499, Note_off_c, 6, 79, 64
8, 55540, Note_on_c, 6, 81, 66
8, 55590, Note_off_c, 6, 81, 64
8, 55595, Note_on_c, 6, 79, 78
8, 55643, Note_off_c, 6, 79, 64
8, 55664, Note_on_c, 6, 78, 82
8, 55739, Note_off_c, 6, 78, 64
8, 55791, Note_on_c, 6, 78, 60
8, 55838, Note_off_c, 6, 78, 64
8, 55838, Note_on_c, 6, 76, 63
8, 55881, Note_off_c, 6, 76, 64
8, 55902, Note_on_c, 6, 78, 80
8, 55985, Note_off_c, 6, 78, 64
8, 56033, Note_on_c, 6, 79, 72
8, 56071, Note_off_c, 6, 79, 64
8, 56083, Note_on_c, 6, 78, 68
8, 56123, Note_off_c, 6, 78, 64
8, 56145, Note_on_c, 6, 76, 66
8, 56227, Note_off_c, 6, 76, 64
8, 56273, Note_on_c, 6, 76, 62
8, 56321, Note_off_c, 6, 76, 64
8, 56322, Note_on_c, 6, 74, 70
8, 56366, Note_off_c, 6, 74, 64
8, 56387, Note_on_c, 6, 76, 80
8, 56466, Note_off_c, 6, 76, 64
8, 56508, Note_on_c, 6, 78, 66
8, 56559, Note_off_c, 6, 78, 64
8, 56561, Note_on_c, 6, 76, 68
8, 56604, Note_off_c, 6, 76, 64
8, 56628, Note_on_c, 6, 74, 85
8, 56697, Note_off_c, 6, 74, 64
8, 56754, Note_on_c, 6, 74, 91
8, 56801, Note_on_c, 6, 76, 85
8, 56810, Note_off_c, 6, 74, 64
8, 56846, Note_off_c, 6, 76, 64
8, 56866, Note_on_c, 6, 78, 100
8, 56937, Note_off_c, 6, 78, 64
8, 56990, Note_on_c, 6, 78, 70
8, 57037, Note_off_c, 6, 78, 64
8, 57042, Note_on_c, 6, 79, 82
8, 57082, Note_off_c, 6, 79, 64
8, 57103, Note_on_c, 6, 81, 100
8, 57180, Note_off_c, 6, 81, 64
8, 57224, Note_on_c, 6, 78, 66
8, 57273, Note_off_c, 6, 78, 64
8, 57283, Note_on_c, 6, 79, 85
8, 57326, Note_off_c, 6, 79, 64
8, 57346, Note_on_c, 6, 81, 91
8, 57422, Note_off_c, 6, 81, 64
8, 57474, Note_on_c, 6, 81, 76
8, 57523, Note_on_c, 6, 83, 82
8, 57528, Note_off_c, 6, 81, 64
8, 57568, Note_off_c, 6, 83, 64
8, 57587, Note_on_c, 6, 84, 89
8, 57650, Note_off_c, 6, 84, 64
8, 57714, Note_on_c, 6, 84, 78
8, 57763, Note_on_c, 6, 83, 64
8, 57769, Note_off_c, 6, 84, 64
8, 57805, Note_off_c, 6, 83, 64
8, 57825, Note_on_c, 6, 84, 95
8, 57886, Note_off_c, 6, 84, 64
8, 57955, Note_on_c, 6, 86, 85
8, 58009, Note_on_c, 6, 84, 76
8, 58020, Note_off_c, 6, 86, 64
8, 58046, Note_off_c, 6, 84, 64
8, 58071, Note_on_c, 6, 83, 91
8, 58122, Note_off_c, 6, 83, 64
8, 58122, Note_on_c, 6, 79, 66
8, 58162, Note_off_c, 6, 79, 64
8, 58185, Note_on_c, 6, 76, 59
8, 58239, Note_on_c, 6, 78, 53
8, 58254, Note_off_c, 6, 76, 64
8, 58291, Note_off_c, 6, 78, 64
8, 58299, Note_on_c, 6, 79, 59
8, 58359, Note_off_c, 6, 79, 64
8, 58362, Note_on_c, 6, 81, 62
8, 58408, Note_off_c, 6, 81, 64
8, 58418, Note_on_c, 6, 78, 54
8, 58461, Note_off_c, 6, 78, 64
8, 58475, Note_on_c, 6, 79, 70
8, 58520, Note_off_c, 6, 79, 64
8, 58538, Note_on_c, 6, 81, 80
8, 58590, Note_on_c, 6, 78, 53
8, 58591, Note_off_c, 6, 81, 64
8, 58633, Note_off_c, 6, 78, 64
8, 58655, Note_on_c, 6, 74, 70
8, 58706, Note_off_c, 6, 74, 64
8, 58715, Note_on_c, 6, 76, 66
8, 58761, Note_off_c, 6, 76, 64
8, 58782, Note_on_c, 6, 78, 82
8, 58838, Note_on_c, 6, 79, 70
8, 58845, Note_off_c, 6, 78, 64
8, 58878, Note_off_c, 6, 79, 64
8, 58898, Note_on_c, 6, 76, 64
8, 58952, Note_off_c, 6, 76, 64
8, 58953, Note_on_c, 6, 78, 62
8, 58998, Note_off_c, 6, 78, 64
8, 59024, Note_on_c, 6, 79, 87
8, 59073, Note_on_c, 6, 78, 66
8, 59081, Note_off_c, 6, 79, 64
8, 59126, Note_off_c, 6, 78, 64
8, 59137, Note_on_c, 6, 76, 60
8, 59174, Note_off_c, 6, 76, 64
8, 59195, Note_on_c, 6, 79, 72
8, 59240, Note_off_c, 6, 79, 64
8, 59264, Note_on_c, 6, 78, 89
8, 59316, Note_on_c, 6, 76, 62
8, 59334, Note_off_c, 6, 78, 64
8, 59367, Note_off_c, 6, 76, 64
8, 59379, Note_on_c, 6, 74, 57
8, 59428, Note_off_c, 6, 74, 64
8, 59435, Note_on_c, 6, 78, 58
8, 59477, Note_off_c, 6, 78, 64
8, 59506, Note_on_c, 6, 76, 87
8, 59564, Note_off_c, 6, 76, 64
8, 59564, Note_on_c, 6, 81, 85
8, 59612, Note_off_c, 6, 81, 64
8, 59624, Note_on_c, 6, 73, 57
8, 59672, Note_off_c, 6, 73, 64
8, 59682, Note_on_c, 6, 74, 66
8, 59731, Note_off_c, 6, 74, 64
8, 59743, Note_on_c, 6, 76, 76
8, 59799, Note_on_c, 6, 78, 63
8, 59807, Note_off_c, 6, 76, 64
8, 59843, Note_off_c, 6, 78, 64
8, 59856, Note_on_c, 6, 76, 66
8, 59913, Note_on_c, 6, 78, 58
8, 59924, Note_off_c, 6, 76, 64
8, 59960, Note_off_c, 6, 78, 64
8, 59984, Note_on_c, 6, 79, 87
8, 60035, Note_on_c, 6, 76, 63
8, 60044, Note_off_c, 6, 79, 64
8, 60082, Note_off_c, 6, 76, 64
8, 60097, Note_on_c, 6, 69, 60
8, 60153, Note_on_c, 6, 71, 64
8, 60166, Note_off_c, 6, 69, 64
8, 60201, Note_off_c, 6, 71, 64
8, 60218, Note_on_c, 6, 73, 61
8, 60272, Note_on_c, 6, 74, 68
8, 60282, Note_off_c, 6, 73, 64
8, 60316, Note_off_c, 6, 74, 64
8, 60336, Note_on_c, 6, 73, 82
8, 60392, Note_on_c, 6, 74, 68
8, 60393, Note_off_c, 6, 73, 64
8, 60440, Note_off_c, 6, 74, 64
8, 60461, Note_on_c, 6, 76, 85
8, 60512, Note_on_c, 6, 74, 68
8, 60525, Note_off_c, 6, 76, 64
8, 60565, Note_off_c, 6, 74, 64
8, 60567, Note_on_c, 6, 73, 64
8, 60615, Note_off_c, 6, 73, 64
8, 60626, Note_on_c, 6, 74, 70
8, 60673, Note_off_c, 6, 74, 64
8, 60696, Note_on_c, 6, 76, 70
8, 60753, Note_off_c, 6, 76, 64
8, 60754, Note_on_c, 6, 79, 87
8, 60808, Note_off_c, 6, 79, 64
8, 60813, Note_on_c, 6, 78, 74
8, 60867, Note_off_c, 6, 78, 64
8, 60872, Note_on_c, 6, 76, 62
8, 60925, Note_off_c, 6, 76, 64
8, 60943, Note_on_c, 6, 81, 89
8, 60995, Note_on_c, 6, 79, 70
8, 61009, Note_off_c, 6, 81, 64
8, 61058, Note_off_c, 6, 79, 64
8, 61067, Note_on_c, 6, 78, 93
8, 61115, Note_off_c, 6, 78, 64
8, 61125, Note_on_c, 6, 79, 70
8, 61166, Note_off_c, 6, 79, 64
8, 61184, Note_on_c, 6, 81, 87
8, 61230, Note_off_c, 6, 81, 64
8, 61236, Note_on_c, 6, 78, 66
8, 61292, Note_off_c, 6, 78, 64
8, 61300, Note_on_c, 6, 74, 72
8, 61356, Note_on_c, 6, 78, 63
8, 61367, Note_off_c, 6, 74, 64
8, 61400, Note_off_c, 6, 78, 64
8, 61422, Note_on_c, 6, 79, 82
8, 61475, Note_on_c, 6, 78, 80
8, 61477, Note_off_c, 6, 79, 64
8, 61520, Note_off_c, 6, 78, 64
8, 61534, Note_on_c, 6, 76, 63
8, 61589, Note_on_c, 6, 78, 60
8, 61600, Note_off_c, 6, 76, 64
8, 61640, Note_off_c, 6, 78, 64
8, 61661, Note_on_c, 6, 79, 74
8, 61705, Note_off_c, 6, 79, 64
8, 61719, Note_on_c, 6, 83, 85
8, 61775, Note_off_c, 6, 83, 64
8, 61776, Note_on_c, 6, 81, 63
8, 61827, Note_off_c, 6, 81, 64
8, 61839, Note_on_c, 6, 79, 66
8, 61871, Note_off_c, 6, 79, 64
8, 61904, Note_on_c, 6, 78, 78
8, 61958, Note_off_c, 6, 78, 64
8, 62028, Note_on_c, 6, 74, 85
8, 62081, Note_off_c, 6, 74, 64
8, 62152, Note_on_c, 6, 71, 85
8, 62207, Note_off_c, 6, 71, 64
8, 62272, Note_on_c, 6, 76, 80
8, 62336, Note_off_c, 6, 76, 64
8, 62398, Note_on_c, 6, 73, 100
8, 62451, Note_on_c, 6, 69, 82
8, 62452, Note_off_c, 6, 73, 64
8, 62506, Note_on_c, 6, 71, 66
8, 62509, Note_off_c, 6, 69, 64
8, 62571, Note_on_c, 6, 73, 64
8, 62574, Note_off_c, 6, 71, 64
8, 62618, Note_off_c, 6, 73, 64
8, 62631, Note_on_c, 6, 74, 82
8, 62690, Note_off_c, 6, 74, 64
8, 62691, Note_on_c, 6, 76, 80
8, 62741, Note_off_c, 6, 76, 64
8, 62752, Note_on_c, 6, 78, 85
8, 62792, Note_off_c, 6, 78, 64
8, 62807, Note_on_c, 6, 79, 80
8, 62850, Note_off_c, 6, 79, 64
8, 62870, Note_on_c, 6, 78, 93
8, 62924, Note_off_c, 6, 78, 64
8, 62926, Note_on_c, 6, 76, 82
8, 62976, Note_off_c, 6, 76, 64
8, 62986, Note_on_c, 6, 74, 72
8, 63044, Note_off_c, 6, 74, 64
8, 63047, Note_on_c, 6, 76, 70
8, 63079, Note_off_c, 6, 76, 64
8, 63113, Note_on_c, 6, 69, 80
8, 63168, Note_off_c, 6, 69, 64
8, 63230, Note_on_c, 6, 73, 80
8, 63283, Note_off_c, 6, 73, 64
8, 63352, Note_on_c, 6, 74, 85
8, 63409, Note_off_c, 6, 74, 64
8, 78219, Note_on_c, 6, 76, 85
8, 78369, Note_off_c, 6, 76, 64
8, 78402, Note_on_c, 6, 78, 64
8, 78427, Note_off_c, 6, 78, 64
8, 78464, Note_on_c, 6, 73, 102
8, 78494, Note_off_c, 6, 73, 64
8, 78498, Note_on_c, 6, 71, 78
8, 78523, Note_on_c, 6, 73, 63
8, 78533, Note_off_c, 6, 71, 64
8, 78550, Note_on_c, 6, 71, 82
8, 78571, Note_off_c, 6, 73, 64
8, 78616, Note_off_c, 6, 71, 64
8, 78632, Note_on_c, 6, 69, 72
8, 78670, Note_off_c, 6, 69, 64
8, 78715, Note_on_c, 6, 69, 98
8, 78770, Note_on_c, 6, 71, 82
8, 78783, Note_off_c, 6, 69, 64
8, 78832, Note_on_c, 6, 73, 57
8, 78837, Note_off_c, 6, 71, 64
8, 78876, Note_off_c, 6, 73, 64
8, 78886, Note_on_c, 6, 74, 68
8, 78945, Note_off_c, 6, 74, 64
8, 78946, Note_on_c, 6, 76, 68
8, 79007, Note_on_c, 6, 78, 76
8, 79012, Note_off_c, 6, 76, 64
8, 79043, Note_off_c, 6, 78, 64
8, 79060, Note_on_c, 6, 76, 87
8, 79115, Note_on_c, 6, 78, 89
8, 79127, Note_off_c, 6, 76, 64
8, 79162, Note_off_c, 6, 78, 64
8, 79184, Note_on_c, 6, 79, 100
8, 79240, Note_on_c, 6, 76, 70
8, 79250, Note_off_c, 6, 79, 64
8, 79283, Note_off_c, 6, 76, 64
8, 79303, Note_on_c, 6, 69, 52
8, 79359, Note_on_c, 6, 71, 56
8, 79371, Note_off_c, 6, 69, 64
8, 79410, Note_off_c, 6, 71, 64
8, 79420, Note_on_c, 6, 73, 66
8, 79475, Note_on_c, 6, 74, 82
8, 79487, Note_off_c, 6, 73, 64
8, 79520, Note_off_c, 6, 74, 64
8, 79532, Note_on_c, 6, 73, 80
8, 79576, Note_off_c, 6, 73, 64
8, 79589, Note_on_c, 6, 74, 91
8, 79636, Note_off_c, 6, 74, 64
8, 79655, Note_on_c, 6, 76, 102
8, 79711, Note_on_c, 6, 74, 78
8, 79716, Note_off_c, 6, 76, 64
8, 79765, Note_off_c, 6, 74, 64
8, 79769, Note_on_c, 6, 73, 48
8, 79829, Note_on_c, 6, 74, 74
8, 79833, Note_off_c, 6, 73, 64
8, 79880, Note_off_c, 6, 74, 64
8, 79899, Note_on_c, 6, 76, 100
8, 79953, Note_on_c, 6, 74, 76
8, 79968, Note_off_c, 6, 76, 64
8, 80018, Note_on_c, 6, 73, 55
8, 80024, Note_off_c, 6, 74, 64
8, 80075, Note_on_c, 6, 71, 74
8, 80079, Note_off_c, 6, 73, 64
8, 80125, Note_off_c, 6, 71, 64
8, 80143, Note_on_c, 6, 69, 91
8, 80201, Note_off_c, 6, 69, 64
8, 80268, Note_on_c, 6, 78, 95
8, 80310, Note_off_c, 6, 78, 64
8, 80393, Note_on_c, 6, 71, 85
8, 80442, Note_off_c, 6, 71, 64
8, 80510, Note_on_c, 6, 75, 82
8, 80679, Note_off_c, 6, 75, 64
8, 80750, Note_on_c, 6, 78, 80
8, 80794, Note_off_c, 6, 78, 64
8, 80870, Note_on_c, 6, 69, 82
8, 80913, Note_off_c, 6, 69, 64
8, 80992, Note_on_c, 6, 75, 85
8, 81152, Note_off_c, 6, 75, 64
8, 81222, Note_on_c, 6, 78, 68
8, 81268, Note_off_c, 6, 78, 64
8, 81344, Note_on_c, 6, 71, 80
8, 81394, Note_off_c, 6, 71, 64
8, 81464, Note_on_c, 6, 75, 82
8, 81514, Note_off_c, 6, 75, 64
8, 81584, Note_on_c, 6, 76, 89
8, 81669, Note_off_c, 6, 76, 64
8, 81706, Note_on_c, 6, 64, 62
8, 81756, Note_on_c, 6, 66, 70
8, 81760, Note_off_c, 6, 64, 64
8, 81803, Note_off_c, 6, 66, 64
8, 81820, Note_on_c, 6, 68, 72
8, 81878, Note_off_c, 6, 68, 64
8, 81940, Note_on_c, 6, 68, 78
8, 81990, Note_on_c, 6, 69, 80
8, 81992, Note_off_c, 6, 68, 64
8, 82039, Note_off_c, 6, 69, 64
8, 82054, Note_on_c, 6, 71, 95
8, 82127, Note_off_c, 6, 71, 64
8, 82184, Note_on_c, 6, 68, 70
8, 82237, Note_off_c, 6, 68, 64
8, 82241, Note_on_c, 6, 69, 80
8, 82285, Note_off_c, 6, 69, 64
8, 82304, Note_on_c, 6, 71, 89
8, 82373, Note_off_c, 6, 71, 64
8, 82424, Note_on_c, 6, 71, 85
8, 82477, Note_on_c, 6, 73, 87
8, 82487, Note_off_c, 6, 71, 64
8, 82523, Note_off_c, 6, 73, 64
8, 82536, Note_on_c, 6, 74, 89
8, 82599, Note_off_c, 6, 74, 64
8, 82663, Note_on_c, 6, 74, 85
8, 82712, Note_off_c, 6, 74, 64
8, 82715, Note_on_c, 6, 73, 80
8, 82763, Note_off_c, 6, 73, 64
8, 82776, Note_on_c, 6, 74, 89
8, 82855, Note_off_c, 6, 74, 64
8, 82902, Note_on_c, 6, 76, 78
8, 82949, Note_off_c, 6, 76, 64
8, 82954, Note_on_c, 6, 74, 82
8, 83006, Note_off_c, 6, 74, 64
8, 83018, Note_on_c, 6, 73, 80
8, 83084, Note_off_c, 6, 73, 64
8, 83144, Note_on_c, 6, 73, 78
8, 83182, Note_off_c, 6, 73, 64
8, 83192, Note_on_c, 6, 71, 78
8, 83232, Note_off_c, 6, 71, 64
8, 83258, Note_on_c, 6, 73, 80
8, 83360, Note_off_c, 6, 73, 64
8, 83384, Note_on_c, 6, 74, 70
8, 83420, Note_off_c, 6, 74, 64
8, 83432, Note_on_c, 6, 73, 72
8, 83477, Note_off_c, 6, 73, 64
8, 83495, Note_on_c, 6, 71, 82
8, 83564, Note_off_c, 6, 71, 64
8, 83624, Note_on_c, 6, 71, 72
8, 83672, Note_off_c, 6, 71, 64
8, 83676, Note_on_c, 6, 69, 82
8, 83720, Note_off_c, 6, 69, 64
8, 83739, Note_on_c, 6, 71, 91
8, 83842, Note_off_c, 6, 71, 64
8, 83864, Note_on_c, 6, 73, 58
8, 83916, Note_off_c, 6, 73, 64
8, 83917, Note_on_c, 6, 71, 62
8, 83965, Note_off_c, 6, 71, 64
8, 83982, Note_on_c, 6, 69, 80
8, 84049, Note_off_c, 6, 69, 64
8, 84108, Note_on_c, 6, 69, 82
8, 84156, Note_on_c, 6, 71, 78
8, 84163, Note_off_c, 6, 69, 64
8, 84206, Note_off_c, 6, 71, 64
8, 84220, Note_on_c, 6, 73, 87
8, 84274, Note_off_c, 6, 73, 64
8, 84339, Note_on_c, 6, 73, 68
8, 84387, Note_on_c, 6, 74, 80
8, 84390, Note_off_c, 6, 73, 64
8, 84431, Note_off_c, 6, 74, 64
8, 84449, Note_on_c, 6, 76, 98
8, 84523, Note_off_c, 6, 76, 64
8, 84576, Note_on_c, 6, 73, 70
8, 84628, Note_on_c, 6, 74, 80
8, 84629, Note_off_c, 6, 73, 64
8, 84677, Note_off_c, 6, 74, 64
8, 84696, Note_on_c, 6, 76, 93
8, 84764, Note_off_c, 6, 76, 64
8, 84832, Note_on_c, 6, 76, 82
8, 84881, Note_on_c, 6, 78, 68
8, 84886, Note_off_c, 6, 76, 64
8, 84928, Note_off_c, 6, 78, 64
8, 84945, Note_on_c, 6, 79, 100
8, 85007, Note_off_c, 6, 79, 64
8, 85073, Note_on_c, 6, 79, 80
8, 85118, Note_off_c, 6, 79, 64
8, 85120, Note_on_c, 6, 78, 74
8, 85171, Note_off_c, 6, 78, 64
8, 85187, Note_on_c, 6, 79, 93
8, 85260, Note_off_c, 6, 79, 64
8, 85310, Note_on_c, 6, 81, 85
8, 85362, Note_on_c, 6, 79, 78
8, 85376, Note_off_c, 6, 81, 64
8, 85401, Note_off_c, 6, 79, 64
8, 85425, Note_on_c, 6, 78, 93
8, 85478, Note_on_c, 6, 74, 80
8, 85488, Note_off_c, 6, 78, 64
8, 85528, Note_off_c, 6, 74, 64
8, 85542, Note_on_c, 6, 71, 57
8, 85601, Note_on_c, 6, 73, 62
8, 85613, Note_off_c, 6, 71, 64
8, 85653, Note_off_c, 6, 73, 64
8, 85654, Note_on_c, 6, 74, 72
8, 85707, Note_on_c, 6, 76, 80
8, 85719, Note_off_c, 6, 74, 64
8, 85760, Note_off_c, 6, 76, 64
8, 85771, Note_on_c, 6, 73, 54
8, 85821, Note_off_c, 6, 73, 64
8, 85832, Note_on_c, 6, 74, 74
8, 85878, Note_off_c, 6, 74, 64
8, 85902, Note_on_c, 6, 76, 95
8, 85953, Note_on_c, 6, 73, 61
8, 85964, Note_off_c, 6, 76, 64
8, 86005, Note_off_c, 6, 73, 64
8, 86015, Note_on_c, 6, 70, 70
8, 86068, Note_off_c, 6, 70, 64
8, 86072, Note_on_c, 6, 71, 68
8, 86125, Note_off_c, 6, 71, 64
8, 86139, Note_on_c, 6, 73, 66
8, 86195, Note_on_c, 6, 74, 72
8, 86209, Note_off_c, 6, 73, 64
8, 86242, Note_off_c, 6, 74, 64
8, 86257, Note_on_c, 6, 71, 64
8, 86305, Note_off_c, 6, 71, 64
8, 86317, Note_on_c, 6, 73, 64
8, 86362, Note_off_c, 6, 73, 64
8, 86381, Note_on_c, 6, 74, 91
8, 86437, Note_on_c, 6, 76, 80
8, 86448, Note_off_c, 6, 74, 64
8, 86489, Note_off_c, 6, 76, 64
8, 86501, Note_on_c, 6, 73, 53
8, 86556, Note_on_c, 6, 74, 72
8, 86562, Note_off_c, 6, 73, 64
8, 86606, Note_off_c, 6, 74, 64
8, 86625, Note_on_c, 6, 76, 87
8, 86679, Note_on_c, 6, 74, 72
8, 86695, Note_off_c, 6, 76, 64
8, 86740, Note_on_c, 6, 73, 58
8, 86750, Note_off_c, 6, 74, 64
8, 86791, Note_off_c, 6, 73, 64
8, 86797, Note_on_c, 6, 71, 66
8, 86846, Note_off_c, 6, 71, 64
8, 86858, Note_on_c, 6, 78, 52
8, 86972, Note_off_c, 6, 78, 64
8, 86991, Note_on_c, 6, 78, 62
8, 87082, Note_off_c, 6, 78, 64
8, 87107, Note_on_c, 6, 78, 61
8, 87211, Note_off_c, 6, 78, 64
8, 87231, Note_on_c, 6, 78, 59
8, 87329, Note_off_c, 6, 78, 64
8, 87351, Note_on_c, 6, 78, 64
8, 87456, Note_off_c, 6, 78, 64
8, 87477, Note_on_c, 6, 78, 64
8, 87565, Note_off_c, 6, 78, 64
8, 87590, Note_on_c, 6, 78, 64
8, 87687, Note_off_c, 6, 78, 64
8, 87705, Note_on_c, 6, 78, 63
8, 87800, Note_off_c, 6, 78, 64
8, 87824, Note_on_c, 6, 78, 66
8, 87926, Note_off_c, 6, 78, 64
8, 87944, Note_on_c, 6, 78, 64
8, 88047, Note_off_c, 6, 78, 64
8, 88072, Note_on_c, 6, 78, 82
8, 88160, Note_off_c, 6, 78, 64
8, 88188, Note_on_c, 6, 78, 82
8, 88263, Note_off_c, 6, 78, 64
8, 88306, Note_on_c, 6, 78, 93
8, 88356, Note_on_c, 6, 76, 80
8, 88370, Note_off_c, 6, 78, 64
8, 88411, Note_on_c, 6, 78, 82
8, 88424, Note_off_c, 6, 76, 64
8, 88472, Note_on_c, 6, 79, 82
8, 88480, Note_off_c, 6, 78, 64
8, 88528, Note_off_c, 6, 79, 64
8, 88541, Note_on_c, 6, 78, 95
8, 88589, Note_off_c, 6, 78, 64
8, 88599, Note_on_c, 6, 83, 89
8, 88655, Note_on_c, 6, 82, 80
8, 88660, Note_off_c, 6, 83, 64
8, 88712, Note_on_c, 6, 83, 80
8, 88720, Note_off_c, 6, 82, 64
8, 88762, Note_off_c, 6, 83, 64
8, 88778, Note_on_c, 6, 76, 85
8, 88831, Note_on_c, 6, 74, 68
8, 88842, Note_off_c, 6, 76, 64
8, 88881, Note_off_c, 6, 74, 64
8, 88893, Note_on_c, 6, 76, 64
8, 88945, Note_off_c, 6, 76, 64
8, 88947, Note_on_c, 6, 78, 61
8, 88996, Note_off_c, 6, 78, 64
8, 89016, Note_on_c, 6, 76, 85
8, 89064, Note_off_c, 6, 76, 64
8, 89074, Note_on_c, 6, 79, 89
8, 89130, Note_on_c, 6, 78, 87
8, 89140, Note_off_c, 6, 79, 64
8, 89182, Note_off_c, 6, 78, 64
8, 89187, Note_on_c, 6, 76, 82
8, 89232, Note_off_c, 6, 76, 64
8, 89253, Note_on_c, 6, 74, 89
8, 89315, Note_off_c, 6, 74, 64
8, 89384, Note_on_c, 6, 78, 85
8, 89440, Note_off_c, 6, 78, 64
8, 89504, Note_on_c, 6, 79, 91
8, 89552, Note_off_c, 6, 79, 64
8, 89629, Note_on_c, 6, 71, 85
8, 89688, Note_off_c, 6, 71, 64
8, 89746, Note_on_c, 6, 70, 72
8, 89804, Note_on_c, 6, 66, 78
8, 89813, Note_off_c, 6, 70, 64
8, 89856, Note_on_c, 6, 68, 61
8, 89869, Note_off_c, 6, 66, 64
8, 89913, Note_on_c, 6, 70, 70
8, 89931, Note_off_c, 6, 68, 64
8, 89962, Note_off_c, 6, 70, 64
8, 89977, Note_on_c, 6, 71, 80
8, 90039, Note_on_c, 6, 73, 61
8, 90048, Note_off_c, 6, 71, 64
8, 90096, Note_on_c, 6, 74, 78
8, 90100, Note_off_c, 6, 73, 64
8, 90151, Note_off_c, 6, 74, 64
8, 90155, Note_on_c, 6, 76, 78
8, 90212, Note_off_c, 6, 76, 64
8, 90218, Note_on_c, 6, 78, 68
8, 90280, Note_on_c, 6, 79, 72
8, 90290, Note_off_c, 6, 78, 64
8, 90343, Note_on_c, 6, 78, 62
8, 90353, Note_off_c, 6, 79, 64
8, 90400, Note_on_c, 6, 76, 68
8, 90413, Note_off_c, 6, 78, 64
8, 90464, Note_off_c, 6, 76, 64
8, 90464, Note_on_c, 6, 74, 62
8, 90521, Note_on_c, 6, 73, 68
8, 90522, Note_off_c, 6, 74, 64
8, 90584, Note_off_c, 6, 73, 64
8, 90584, Note_on_c, 6, 71, 70
8, 90643, Note_on_c, 6, 70, 68
8, 90652, Note_off_c, 6, 71, 64
8, 90688, Note_off_c, 6, 70, 64
8, 90711, Note_on_c, 6, 71, 93
8, 90760, Note_off_c, 6, 71, 64
8, 90835, Note_on_c, 6, 73, 80
8, 90887, Note_off_c, 6, 73, 64
8, 90957, Note_on_c, 6, 66, 82
8, 91002, Note_off_c, 6, 66, 64
8, 91071, Note_on_c, 6, 70, 82
8, 91151, Note_off_c, 6, 70, 64
8, 108222, Note_on_c, 6, 74, 89
8, 108280, Note_on_c, 6, 78, 68
8, 108283, Note_off_c, 6, 74, 64
8, 108341, Note_off_c, 6, 78, 64
8, 108342, Note_on_c, 6, 76, 63
8, 108397, Note_off_c, 6, 76, 64
8, 108399, Note_on_c, 6, 74, 62
8, 108437, Note_off_c, 6, 74, 64
8, 108457, Note_on_c, 6, 73, 100
8, 108532, Note_off_c, 6, 73, 64
8, 108584, Note_on_c, 6, 69, 61
8, 108636, Note_on_c, 6, 71, 68
8, 108637, Note_off_c, 6, 69, 64
8, 108684, Note_off_c, 6, 71, 64
8, 108698, Note_on_c, 6, 73, 91
8, 108755, Note_off_c, 6, 73, 64
8, 108813, Note_on_c, 6, 73, 55
8, 108861, Note_off_c, 6, 73, 64
8, 108864, Note_on_c, 6, 74, 76
8, 108908, Note_off_c, 6, 74, 64
8, 108929, Note_on_c, 6, 76, 98
8, 108990, Note_off_c, 6, 76, 64
8, 109052, Note_on_c, 6, 73, 57
8, 109101, Note_off_c, 6, 73, 64
8, 109109, Note_on_c, 6, 74, 72
8, 109163, Note_off_c, 6, 74, 64
8, 109173, Note_on_c, 6, 76, 91
8, 109223, Note_off_c, 6, 76, 64
8, 109304, Note_on_c, 6, 76, 68
8, 109353, Note_on_c, 6, 78, 59
8, 109357, Note_off_c, 6, 76, 64
8, 109402, Note_off_c, 6, 78, 64
8, 109418, Note_on_c, 6, 79, 93
8, 109475, Note_off_c, 6, 79, 64
8, 109544, Note_on_c, 6, 79, 85
8, 109593, Note_on_c, 6, 78, 62
8, 109600, Note_off_c, 6, 79, 64
8, 109635, Note_off_c, 6, 78, 64
8, 109661, Note_on_c, 6, 79, 85
8, 109721, Note_off_c, 6, 79, 64
8, 109784, Note_on_c, 6, 81, 78
8, 109829, Note_off_c, 6, 81, 64
8, 109832, Note_on_c, 6, 79, 74
8, 109879, Note_off_c, 6, 79, 64
8, 109900, Note_on_c, 6, 78, 87
8, 109953, Note_off_c, 6, 78, 64
8, 110022, Note_on_c, 6, 81, 85
8, 110062, Note_off_c, 6, 81, 64
8, 110142, Note_on_c, 6, 74, 82
8, 110183, Note_off_c, 6, 74, 64
8, 110264, Note_on_c, 6, 78, 91
8, 110427, Note_off_c, 6, 78, 64
8, 110499, Note_on_c, 6, 81, 85
8, 110541, Note_off_c, 6, 81, 64
8, 110622, Note_on_c, 6, 72, 82
8, 110660, Note_off_c, 6, 72, 64
8, 110742, Note_on_c, 6, 78, 82
8, 110895, Note_off_c, 6, 78, 64
8, 110984, Note_on_c, 6, 81, 85
8, 111019, Note_off_c, 6, 81, 64
8, 111104, Note_on_c, 6, 74, 80
8, 111147, Note_off_c, 6, 74, 64
8, 111222, Note_on_c, 6, 78, 72
8, 111272, Note_off_c, 6, 78, 64
8, 111341, Note_on_c, 6, 79, 82
8, 111388, Note_off_c, 6, 79, 64
8, 111464, Note_on_c, 6, 83, 82
8, 111504, Note_off_c, 6, 83, 64
8, 111583, Note_on_c, 6, 74, 85
8, 111624, Note_off_c, 6, 74, 64
8, 111706, Note_on_c, 6, 80, 87
8, 111861, Note_off_c, 6, 80, 64
8, 111944, Note_on_c, 6, 83, 82
8, 111984, Note_off_c, 6, 83, 64
8, 112065, Note_on_c, 6, 76, 78
8, 112115, Note_off_c, 6, 76, 64
8, 112187, Note_on_c, 6, 80, 85
8, 112232, Note_off_c, 6, 80, 64
8, 112309, Note_on_c, 6, 81, 82
8, 112365, Note_on_c, 6, 76, 80
8, 112371, Note_off_c, 6, 81, 64
8, 112409, Note_off_c, 6, 76, 64
8, 112426, Note_on_c, 6, 73, 62
8, 112475, Note_on_c, 6, 74, 66
8, 112478, Note_off_c, 6, 73, 64
8, 112522, Note_off_c, 6, 74, 64
8, 112535, Note_on_c, 6, 76, 62
8, 112590, Note_on_c, 6, 78, 63
8, 112592, Note_off_c, 6, 76, 64
8, 112647, Note_off_c, 6, 78, 64
8, 112655, Note_on_c, 6, 76, 54
8, 112713, Note_on_c, 6, 78, 58
8, 112725, Note_off_c, 6, 76, 64
8, 112761, Note_off_c, 6, 78, 64
8, 112782, Note_on_c, 6, 79, 91
8, 112832, Note_on_c, 6, 76, 68
8, 112844, Note_off_c, 6, 79, 64
8, 112878, Note_off_c, 6, 76, 64
8, 112894, Note_on_c, 6, 69, 53
8, 112948, Note_on_c, 6, 71, 57
8, 112961, Note_off_c, 6, 69, 64
8, 113000, Note_off_c, 6, 71, 64
8, 113016, Note_on_c, 6, 73, 64
8, 113065, Note_on_c, 6, 74, 70
8, 113076, Note_off_c, 6, 73, 64
8, 113113, Note_off_c, 6, 74, 64
8, 113123, Note_on_c, 6, 73, 53
8, 113180, Note_off_c, 6, 73, 64
8, 113184, Note_on_c, 6, 74, 66
8, 113228, Note_off_c, 6, 74, 64
8, 113249, Note_on_c, 6, 76, 93
8, 113300, Note_on_c, 6, 74, 70
8, 113313, Note_off_c, 6, 76, 64
8, 113360, Note_off_c, 6, 74, 64
8, 113365, Note_on_c, 6, 73, 49
8, 113423, Note_on_c, 6, 74, 63
8, 113426, Note_off_c, 6, 73, 64
8, 113465, Note_off_c, 6, 74, 64
8, 113489, Note_on_c, 6, 76, 93
8, 113541, Note_on_c, 6, 74, 66
8, 113555, Note_off_c, 6, 76, 64
8, 113608, Note_on_c, 6, 73, 51
8, 113615, Note_off_c, 6, 74, 64
8, 113672, Note_on_c, 6, 71, 60
8, 113675, Note_off_c, 6, 73, 64
8, 113737, Note_off_c, 6, 71, 64
8, 113739, Note_on_c, 6, 69, 70
8, 113792, Note_off_c, 6, 69, 64
8, 113799, Note_on_c, 6, 74, 85
8, 113850, Note_on_c, 6, 73, 70
8, 113870, Note_off_c, 6, 74, 64
8, 113909, Note_on_c, 6, 71, 76
8, 113928, Note_off_c, 6, 73, 64
8, 113962, Note_off_c, 6, 71, 64
8, 113962, Note_on_c, 6, 69, 66
8, 114024, Note_on_c, 6, 67, 64
8, 114029, Note_off_c, 6, 69, 64
8, 114081, Note_off_c, 6, 67, 64
8, 114083, Note_on_c, 6, 66, 55
8, 114135, Note_off_c, 6, 66, 64
8, 114139, Note_on_c, 6, 64, 64
8, 114181, Note_off_c, 6, 64, 64
8, 114205, Note_on_c, 6, 62, 68
8, 114285, Note_off_c, 6, 62, 64
8, 114344, Note_on_c, 6, 74, 60
8, 114438, Note_off_c, 6, 74, 64
8, 114466, Note_on_c, 6, 74, 60
8, 114557, Note_off_c, 6, 74, 64
8, 114584, Note_on_c, 6, 74, 66
8, 114682, Note_off_c, 6, 74, 64
8, 114704, Note_on_c, 6, 74, 64
8, 114804, Note_off_c, 6, 74, 64
8, 114828, Note_on_c, 6, 74, 60
8, 114925, Note_off_c, 6, 74, 64
8, 114950, Note_on_c, 6, 74, 60
8, 115045, Note_off_c, 6, 74, 64
8, 115070, Note_on_c, 6, 74, 64
8, 115154, Note_off_c, 6, 74, 64
8, 115183, Note_on_c, 6, 74, 68
8, 115277, Note_off_c, 6, 74, 64
8, 115297, Note_on_c, 6, 76, 62
8, 115400, Note_off_c, 6, 76, 64
8, 115424, Note_on_c, 6, 76, 70
8, 115524, Note_off_c, 6, 76, 64
8, 115550, Note_on_c, 6, 76, 68
8, 115639, Note_off_c, 6, 76, 64
8, 115665, Note_on_c, 6, 76, 66
8, 115761, Note_off_c, 6, 76, 64
8, 115783, Note_on_c, 6, 76, 64
8, 115880, Note_off_c, 6, 76, 64
8, 115904, Note_on_c, 6, 76, 68
8, 115996, Note_off_c, 6, 76, 64
8, 116021, Note_on_c, 6, 76, 66
8, 116119, Note_off_c, 6, 76, 64
8, 116141, Note_on_c, 6, 76, 74
8, 116236, Note_off_c, 6, 76, 64
8, 116258, Note_on_c, 6, 76, 76
8, 116350, Note_off_c, 6, 76, 64
8, 116385, Note_on_c, 6, 76, 66
8, 116477, Note_off_c, 6, 76, 64
8, 116502, Note_on_c, 6, 76, 76
8, 116586, Note_off_c, 6, 76, 64
8, 116618, Note_on_c, 6, 76, 89
8, 116692, Note_off_c, 6, 76, 64
8, 116747, Note_on_c, 6, 69, 70
8, 116792, Note_on_c, 6, 71, 68
8, 116804, Note_off_c, 6, 69, 64
8, 116837, Note_off_c, 6, 71, 64
8, 116853, Note_on_c, 6, 73, 82
8, 116909, Note_off_c, 6, 73, 64
8, 116971, Note_on_c, 6, 73, 56
8, 117025, Note_on_c, 6, 74, 74
8, 117031, Note_off_c, 6, 73, 64
8, 117070, Note_off_c, 6, 74, 64
8, 117090, Note_on_c, 6, 76, 87
8, 117155, Note_off_c, 6, 76, 64
8, 117215, Note_on_c, 6, 73, 57
8, 117265, Note_off_c, 6, 73, 64
8, 117267, Note_on_c, 6, 74, 76
8, 117315, Note_off_c, 6, 74, 64
8, 117331, Note_on_c, 6, 76, 80
8, 117383, Note_off_c, 6, 76, 64
8, 117462, Note_on_c, 6, 76, 74
8, 117514, Note_on_c, 6, 78, 60
8, 117522, Note_off_c, 6, 76, 64
8, 117557, Note_off_c, 6, 78, 64
8, 117580, Note_on_c, 6, 79, 89
8, 117639, Note_off_c, 6, 79, 64
8, 117702, Note_on_c, 6, 79, 74
8, 117742, Note_off_c, 6, 79, 64
8, 117743, Note_on_c, 6, 78, 60
8, 117793, Note_off_c, 6, 78, 64
8, 117818, Note_on_c, 6, 79, 87
8, 117889, Note_off_c, 6, 79, 64
8, 117940, Note_on_c, 6, 81, 82
8, 117991, Note_on_c, 6, 79, 76
8, 117993, Note_off_c, 6, 81, 64
8, 118030, Note_off_c, 6, 79, 64
8, 118054, Note_on_c, 6, 78, 89
8, 118145, Note_off_c, 6, 78, 64
8, 118178, Note_on_c, 6, 78, 68
8, 118212, Note_off_c, 6, 78, 64
8, 118228, Note_on_c, 6, 76, 76
8, 118267, Note_off_c, 6, 76, 64
8, 118295, Note_on_c, 6, 78, 91
8, 118376, Note_off_c, 6, 78, 64
8, 118422, Note_on_c, 6, 79, 80
8, 118460, Note_off_c, 6, 79, 64
8, 118472, Note_on_c, 6, 78, 87
8, 118513, Note_off_c, 6, 78, 64
8, 118534, Note_on_c, 6, 76, 87
8, 118641, Note_off_c, 6, 76, 64
8, 118665, Note_on_c, 6, 76, 70
8, 118717, Note_off_c, 6, 76, 64
8, 118718, Note_on_c, 6, 74, 70
8, 118765, Note_off_c, 6, 74, 64
8, 118786, Note_on_c, 6, 76, 78
8, 118876, Note_off_c, 6, 76, 64
8, 118909, Note_on_c, 6, 78, 74
8, 118954, Note_off_c, 6, 78, 64
8, 118960, Note_on_c, 6, 76, 74
8, 119001, Note_off_c, 6, 76, 64
8, 119020, Note_on_c, 6, 74, 85
8, 119096, Note_off_c, 6, 74, 64
8, 119147, Note_on_c, 6, 74, 87
8, 119194, Note_on_c, 6, 76, 80
8, 119200, Note_off_c, 6, 74, 64
8, 119238, Note_off_c, 6, 76, 64
8, 119258, Note_on_c, 6, 78, 102
8, 119319, Note_off_c, 6, 78, 64
8, 119392, Note_on_c, 6, 78, 74
8, 119442, Note_on_c, 6, 79, 85
8, 119445, Note_off_c, 6, 78, 64
8, 119482, Note_off_c, 6, 79, 64
8, 119503, Note_on_c, 6, 81, 102
8, 119563, Note_off_c, 6, 81, 64
8, 119626, Note_on_c, 6, 78, 93
8, 119671, Note_off_c, 6, 78, 64
8, 119676, Note_on_c, 6, 79, 87
8, 119719, Note_off_c, 6, 79, 64
8, 119741, Note_on_c, 6, 81, 93
8, 119814, Note_off_c, 6, 81, 64
8, 119863, Note_on_c, 6, 81, 85
8, 119910, Note_on_c, 6, 83, 91
8, 119912, Note_off_c, 6, 81, 64
8, 119952, Note_off_c, 6, 83, 64
8, 119973, Note_on_c, 6, 84, 102
8, 120034, Note_off_c, 6, 84, 64
8, 120103, Note_on_c, 6, 84, 89
8, 120149, Note_on_c, 6, 83, 82
8, 120152, Note_off_c, 6, 84, 64
8, 120198, Note_off_c, 6, 83, 64
8, 120219, Note_on_c, 6, 84, 98
8, 120282, Note_off_c, 6, 84, 64
8, 120347, Note_on_c, 6, 86, 98
8, 120397, Note_on_c, 6, 84, 80
8, 120409, Note_off_c, 6, 86, 64
8, 120438, Note_off_c, 6, 84, 64
8, 120459, Note_on_c, 6, 83, 87
8, 120513, Note_on_c, 6, 79, 72
8, 120517, Note_off_c, 6, 83, 64
8, 120559, Note_off_c, 6, 79, 64
8, 120578, Note_on_c, 6, 76, 60
8, 120630, Note_on_c, 6, 78, 66
8, 120642, Note_off_c, 6, 76, 64
8, 120677, Note_off_c, 6, 78, 64
8, 120692, Note_on_c, 6, 79, 85
8, 120746, Note_on_c, 6, 81, 76
8, 120753, Note_off_c, 6, 79, 64
8, 120790, Note_off_c, 6, 81, 64
8, 120809, Note_on_c, 6, 78, 60
8, 120852, Note_off_c, 6, 78, 64
8, 120865, Note_on_c, 6, 79, 70
8, 120907, Note_off_c, 6, 79, 64
8, 120934, Note_on_c, 6, 81, 102
8, 120985, Note_on_c, 6, 78, 66
8, 120989, Note_off_c, 6, 81, 64
8, 121038, Note_off_c, 6, 78, 64
8, 121055, Note_on_c, 6, 74, 68
8, 121104, Note_off_c, 6, 74, 64
8, 121112, Note_on_c, 6, 76, 63
8, 121158, Note_off_c, 6, 76, 64
8, 121181, Note_on_c, 6, 78, 89
8, 121236, Note_on_c, 6, 79, 78
8, 121247, Note_off_c, 6, 78, 64
8, 121279, Note_off_c, 6, 79, 64
8, 121302, Note_on_c, 6, 76, 72
8, 121338, Note_off_c, 6, 76, 64
8, 121355, Note_on_c, 6, 78, 78
8, 121397, Note_off_c, 6, 78, 64
8, 121422, Note_on_c, 6, 79, 100
8, 121474, Note_on_c, 6, 78, 85
8, 121477, Note_off_c, 6, 79, 64
8, 121520, Note_off_c, 6, 78, 64
8, 121536, Note_on_c, 6, 76, 64
8, 121570, Note_off_c, 6, 76, 64
8, 121592, Note_on_c, 6, 79, 72
8, 121625, Note_off_c, 6, 79, 64
8, 121662, Note_on_c, 6, 78, 100
8, 121715, Note_on_c, 6, 76, 64
8, 121725, Note_off_c, 6, 78, 64
8, 121760, Note_off_c, 6, 76, 64
8, 121774, Note_on_c, 6, 74, 68
8, 121814, Note_off_c, 6, 74, 64
8, 121832, Note_on_c, 6, 78, 89
8, 121870, Note_off_c, 6, 78, 64
8, 121901, Note_on_c, 6, 76, 105
8, 121957, Note_on_c, 6, 81, 87
8, 121958, Note_off_c, 6, 76, 64
8, 122003, Note_off_c, 6, 81, 64
8, 122018, Note_on_c, 6, 73, 57
8, 122072, Note_off_c, 6, 73, 64
8, 122073, Note_on_c, 6, 74, 68
8, 122120, Note_off_c, 6, 74, 64
8, 122142, Note_on_c, 6, 76, 80
8, 122191, Note_on_c, 6, 78, 64
8, 122199, Note_off_c, 6, 76, 64
8, 122237, Note_off_c, 6, 78, 64
8, 122254, Note_on_c, 6, 76, 80
8, 122312, Note_on_c, 6, 78, 72
8, 122318, Note_off_c, 6, 76, 64
8, 122359, Note_off_c, 6, 78, 64
8, 122380, Note_on_c, 6, 79, 95
8, 122428, Note_on_c, 6, 76, 66
8, 122441, Note_off_c, 6, 79, 64
8, 122485, Note_off_c, 6, 76, 64
8, 122503, Note_on_c, 6, 69, 49
8, 122557, Note_on_c, 6, 71, 66
8, 122559, Note_off_c, 6, 69, 64
8, 122609, Note_off_c, 6, 71, 64
8, 122622, Note_on_c, 6, 73, 56
8, 122671, Note_on_c, 6, 74, 68
8, 122678, Note_off_c, 6, 73, 64
8, 122713, Note_off_c, 6, 74, 64
8, 122739, Note_on_c, 6, 73, 66
8, 122799, Note_on_c, 6, 74, 68
8, 122804, Note_off_c, 6, 73, 64
8, 122839, Note_off_c, 6, 74, 64
8, 122860, Note_on_c, 6, 76, 98
8, 122912, Note_on_c, 6, 74, 72
8, 122920, Note_off_c, 6, 76, 64
8, 122960, Note_off_c, 6, 74, 64
8, 122976, Note_on_c, 6, 73, 38
8, 123032, Note_off_c, 6, 73, 64
8, 123039, Note_on_c, 6, 74, 68
8, 123085, Note_off_c, 6, 74, 64
8, 123104, Note_on_c, 6, 76, 72
8, 123162, Note_on_c, 6, 79, 74
8, 123165, Note_off_c, 6, 76, 64
8, 123212, Note_off_c, 6, 79, 64
8, 123219, Note_on_c, 6, 78, 66
8, 123278, Note_on_c, 6, 76, 78
8, 123280, Note_off_c, 6, 78, 64
8, 123321, Note_off_c, 6, 76, 64
8, 123343, Note_on_c, 6, 81, 98
8, 123394, Note_on_c, 6, 79, 72
8, 123409, Note_off_c, 6, 81, 64
8, 123456, Note_off_c, 6, 79, 64
8, 123463, Note_on_c, 6, 78, 82
8, 123506, Note_off_c, 6, 78, 64
8, 123519, Note_on_c, 6, 79, 68
8, 123561, Note_off_c, 6, 79, 64
8, 123580, Note_on_c, 6, 81, 91
8, 123629, Note_off_c, 6, 81, 64
8, 123633, Note_on_c, 6, 78, 68
8, 123688, Note_off_c, 6, 78, 64
8, 123696, Note_on_c, 6, 74, 66
8, 123753, Note_on_c, 6, 78, 80
8, 123773, Note_off_c, 6, 74, 64
8, 123795, Note_off_c, 6, 78, 64
8, 123816, Note_on_c, 6, 79, 91
8, 123869, Note_on_c, 6, 78, 91
8, 123873, Note_off_c, 6, 79, 64
8, 123924, Note_off_c, 6, 78, 64
8, 123931, Note_on_c, 6, 76, 63
8, 123991, Note_on_c, 6, 78, 82
8, 124004, Note_off_c, 6, 76, 64
8, 124035, Note_off_c, 6, 78, 64
8, 124058, Note_on_c, 6, 79, 87
8, 124107, Note_off_c, 6, 79, 64
8, 124114, Note_on_c, 6, 83, 89
8, 124151, Note_off_c, 6, 83, 64
8, 124175, Note_on_c, 6, 81, 80
8, 124221, Note_off_c, 6, 81, 64
8, 124227, Note_on_c, 6, 79, 66
8, 124275, Note_off_c, 6, 79, 64
8, 124295, Note_on_c, 6, 78, 82
8, 124343, Note_off_c, 6, 78, 64
8, 124416, Note_on_c, 6, 74, 87
8, 124466, Note_off_c, 6, 74, 64
8, 124537, Note_on_c, 6, 71, 82
8, 124591, Note_off_c, 6, 71, 64
8, 124665, Note_on_c, 6, 76, 87
8, 124712, Note_off_c, 6, 76, 64
8, 124794, Note_on_c, 6, 73, 87
8, 124854, Note_on_c, 6, 69, 82
8, 124855, Note_off_c, 6, 73, 64
8, 124905, Note_off_c, 6, 69, 64
8, 124908, Note_on_c, 6, 71, 80
8, 124967, Note_on_c, 6, 73, 78
8, 124974, Note_off_c, 6, 71, 64
8, 125010, Note_off_c, 6, 73, 64
8, 125023, Note_on_c, 6, 74, 68
8, 125082, Note_on_c, 6, 76, 78
8, 125089, Note_off_c, 6, 74, 64
8, 125129, Note_off_c, 6, 76, 64
8, 125138, Note_on_c, 6, 78, 82
8, 125187, Note_off_c, 6, 78, 64
8, 125197, Note_on_c, 6, 79, 70
8, 125234, Note_off_c, 6, 79, 64
8, 125258, Note_on_c, 6, 78, 102
8, 125307, Note_off_c, 6, 78, 64
8, 125314, Note_on_c, 6, 76, 87
8, 125361, Note_off_c, 6, 76, 64
8, 125377, Note_on_c, 6, 74, 82
8, 125419, Note_off_c, 6, 74, 64
8, 125437, Note_on_c, 6, 76, 89
8, 125475, Note_off_c, 6, 76, 64
8, 125504, Note_on_c, 6, 69, 85
8, 125555, Note_off_c, 6, 69, 64
8, 125629, Note_on_c, 6, 73, 91
8, 125687, Note_off_c, 6, 73, 64
8, 138239, Note_on_c, 6, 73, 100
8, 138282, Note_off_c, 6, 73, 64
8, 138294, Note_on_c, 6, 74, 85
8, 138344, Note_off_c, 6, 74, 64
8, 138356, Note_on_c, 6, 73, 95
8, 138403, Note_off_c, 6, 73, 64
8, 138414, Note_on_c, 6, 71, 82
8, 138459, Note_off_c, 6, 71, 64
8, 138475, Note_on_c, 6, 69, 87
8, 138524, Note_off_c, 6, 69, 64
8, 138534, Note_on_c, 6, 71, 91
8, 138580, Note_off_c, 6, 71, 64
8, 138593, Note_on_c, 6, 73, 95
8, 138633, Note_off_c, 6, 73, 64
8, 138645, Note_on_c, 6, 74, 85
8, 138696, Note_off_c, 6, 74, 64
8, 138709, Note_on_c, 6, 76, 82
8, 138753, Note_off_c, 6, 76, 64
8, 138764, Note_on_c, 6, 78, 89
8, 138804, Note_off_c, 6, 78, 64
8, 138818, Note_on_c, 6, 79, 89
8, 138861, Note_off_c, 6, 79, 64
8, 138877, Note_on_c, 6, 81, 98
8, 138915, Note_off_c, 6, 81, 64
8, 138938, Note_on_c, 6, 79, 100
8, 138983, Note_off_c, 6, 79, 64
8, 138995, Note_on_c, 6, 78, 102
8, 139030, Note_off_c, 6, 78, 64
8, 139052, Note_on_c, 6, 79, 91
8, 139091, Note_off_c, 6, 79, 64
8, 139111, Note_on_c, 6, 76, 89
8, 139145, Note_off_c, 6, 76, 64
8, 139176, Note_on_c, 6, 78, 105
8, 139312, Note_off_c, 6, 78, 64
8, 139347, Note_on_c, 6, 76, 62
8, 139370, Note_on_c, 6, 74, 89
8, 139372, Note_off_c, 6, 76, 64
8, 139400, Note_off_c, 6, 74, 64
8, 139400, Note_on_c, 6, 73, 89
8, 139428, Note_off_c, 6, 73, 64
8, 139429, Note_on_c, 6, 74, 100
8, 139513, Note_off_c, 6, 74, 64
8, 139608, Note_on_c, 6, 71, 100
8, 139641, Note_off_c, 6, 71, 64
8, 139670, Note_on_c, 6, 74, 95
8, 139741, Note_on_c, 6, 73, 60
8, 139749, Note_off_c, 6, 74, 64
8, 139770, Note_on_c, 6, 74, 82
8, 139774, Note_off_c, 6, 73, 64
8, 139797, Note_on_c, 6, 73, 63
8, 139801, Note_off_c, 6, 74, 64
8, 139819, Note_on_c, 6, 74, 70
8, 139821, Note_off_c, 6, 73, 64
8, 139838, Note_off_c, 6, 74, 64
8, 139839, Note_on_c, 6, 73, 57
8, 139858, Note_on_c, 6, 74, 82
8, 139860, Note_off_c, 6, 73, 64
8, 139877, Note_on_c, 6, 73, 63
8, 139878, Note_off_c, 6, 74, 64
8, 139897, Note_on_c, 6, 74, 87
8, 139900, Note_off_c, 6, 73, 64
8, 139913, Note_on_c, 6, 73, 85
8, 139921, Note_off_c, 6, 74, 64
8, 140028, Note_off_c, 6, 73, 64
8, 140080, Note_on_c, 6, 74, 87
8, 140116, Note_off_c, 6, 74, 64
8, 140156, Note_on_c, 6, 74, 102
8, 140199, Note_off_c, 6, 74, 64
8, 157493, Note_on_c, 6, 69, 72
8, 157545, Note_on_c, 6, 66, 63
8, 157558, Note_off_c, 6, 69, 64
8, 157610, Note_off_c, 6, 66, 64
8, 157610, Note_on_c, 6, 69, 68
8, 157652, Note_off_c, 6, 69, 64
8, 157675, Note_on_c, 6, 62, 82
8, 157726, Note_on_c, 6, 66, 62
8, 157739, Note_off_c, 6, 62, 64
8, 157773, Note_off_c, 6, 66, 64
8, 157784, Note_on_c, 6, 64, 80
8, 157838, Note_on_c, 6, 67, 70
8, 157855, Note_off_c, 6, 64, 64
8, 157876, Note_off_c, 6, 67, 64
8, 157904, Note_on_c, 6, 66, 91
8, 157956, Note_on_c, 6, 69, 66
8, 157971, Note_off_c, 6, 66, 64
8, 158015, Note_off_c, 6, 69, 64
8, 158024, Note_on_c, 6, 74, 68
8, 158076, Note_on_c, 6, 66, 61
8, 158079, Note_off_c, 6, 74, 64
8, 158115, Note_off_c, 6, 66, 64
8, 158130, Note_on_c, 6, 64, 82
8, 158191, Note_on_c, 6, 74, 80
8, 158198, Note_off_c, 6, 64, 64
8, 158235, Note_off_c, 6, 74, 64
8, 158255, Note_on_c, 6, 64, 80
8, 158312, Note_on_c, 6, 73, 68
8, 158313, Note_off_c, 6, 64, 64
8, 158363, Note_off_c, 6, 73, 64
8, 158379, Note_on_c, 6, 74, 95
8, 158431, Note_off_c, 6, 74, 64
8, 158433, Note_on_c, 6, 69, 82
8, 158496, Note_on_c, 6, 74, 72
8, 158500, Note_off_c, 6, 69, 64
8, 158550, Note_off_c, 6, 74, 64
8, 158557, Note_on_c, 6, 76, 66
8, 158590, Note_off_c, 6, 76, 64
8, 158623, Note_on_c, 6, 78, 100
8, 158679, Note_on_c, 6, 81, 80
8, 158681, Note_off_c, 6, 78, 64
8, 158716, Note_off_c, 6, 81, 64
8, 158736, Note_on_c, 6, 80, 91
8, 158791, Note_on_c, 6, 83, 80
8, 158799, Note_off_c, 6, 80, 64
8, 158822, Note_off_c, 6, 83, 64
8, 158861, Note_on_c, 6, 81, 98
8, 158912, Note_on_c, 6, 76, 74
8, 158923, Note_off_c, 6, 81, 64
8, 158971, Note_on_c, 6, 73, 74
8, 158976, Note_off_c, 6, 76, 64
8, 159030, Note_off_c, 6, 73, 64
8, 159032, Note_on_c, 6, 81, 80
8, 159070, Note_off_c, 6, 81, 64
8, 159088, Note_on_c, 6, 71, 82
8, 159142, Note_on_c, 6, 81, 80
8, 159146, Note_off_c, 6, 71, 64
8, 159185, Note_off_c, 6, 81, 64
8, 159205, Note_on_c, 6, 71, 78
8, 159259, Note_on_c, 6, 80, 76
8, 159262, Note_off_c, 6, 71, 64
8, 159302, Note_off_c, 6, 80, 64
8, 159326, Note_on_c, 6, 81, 87
8, 159380, Note_on_c, 6, 76, 64
8, 159383, Note_off_c, 6, 81, 64
8, 159426, Note_off_c, 6, 76, 64
8, 159441, Note_on_c, 6, 73, 64
8, 159506, Note_on_c, 6, 74, 78
8, 159511, Note_off_c, 6, 73, 64
8, 159558, Note_off_c, 6, 74, 64
8, 159571, Note_on_c, 6, 76, 82
8, 159627, Note_on_c, 6, 78, 62
8, 159637, Note_off_c, 6, 76, 64
8, 159686, Note_off_c, 6, 78, 64
8, 159686, Note_on_c, 6, 76, 68
8, 159750, Note_on_c, 6, 78, 60
8, 159760, Note_off_c, 6, 76, 64
8, 159790, Note_off_c, 6, 78, 64
8, 159813, Note_on_c, 6, 79, 93
8, 159865, Note_on_c, 6, 76, 78
8, 159872, Note_off_c, 6, 79, 64
8, 159910, Note_off_c, 6, 76, 64
8, 159924, Note_on_c, 6, 69, 60
8, 159982, Note_on_c, 6, 71, 63
8, 159996, Note_off_c, 6, 69, 64
8, 160041, Note_off_c, 6, 71, 64
8, 160046, Note_on_c, 6, 73, 57
8, 160103, Note_on_c, 6, 74, 70
8, 160109, Note_off_c, 6, 73, 64
8, 160155, Note_off_c, 6, 74, 64
8, 160165, Note_on_c, 6, 73, 60
8, 160221, Note_on_c, 6, 74, 68
8, 160235, Note_off_c, 6, 73, 64
8, 160267, Note_off_c, 6, 74, 64
8, 160292, Note_on_c, 6, 76, 100
8, 160348, Note_on_c, 6, 74, 76
8, 160362, Note_off_c, 6, 76, 64
8, 160412, Note_off_c, 6, 74, 64
8, 160412, Note_on_c, 6, 73, 49
8, 160469, Note_on_c, 6, 74, 64
8, 160483, Note_off_c, 6, 73, 64
8, 160517, Note_off_c, 6, 74, 64
8, 160531, Note_on_c, 6, 76, 87
8, 160587, Note_on_c, 6, 74, 66
8, 160606, Note_off_c, 6, 76, 64
8, 160643, Note_on_c, 6, 73, 52
8, 160659, Note_off_c, 6, 74, 64
8, 160706, Note_on_c, 6, 71, 62
8, 160708, Note_off_c, 6, 73, 64
8, 160760, Note_off_c, 6, 71, 64
8, 160771, Note_on_c, 6, 70, 64
8, 160817, Note_off_c, 6, 70, 64
8, 160833, Note_on_c, 6, 76, 62
8, 160883, Note_on_c, 6, 78, 64
8, 160902, Note_off_c, 6, 76, 64
8, 160946, Note_on_c, 6, 79, 85
8, 160965, Note_off_c, 6, 78, 64
8, 160995, Note_off_c, 6, 79, 64
8, 161009, Note_on_c, 6, 78, 78
8, 161066, Note_on_c, 6, 76, 66
8, 161085, Note_off_c, 6, 78, 64
8, 161124, Note_off_c, 6, 76, 64
8, 161127, Note_on_c, 6, 74, 55
8, 161190, Note_on_c, 6, 73, 47
8, 161192, Note_off_c, 6, 74, 64
8, 161236, Note_off_c, 6, 73, 64
8, 161253, Note_on_c, 6, 74, 91
8, 161311, Note_on_c, 6, 78, 54
8, 161320, Note_off_c, 6, 74, 64
8, 161367, Note_off_c, 6, 78, 64
8, 161373, Note_on_c, 6, 71, 68
8, 161432, Note_on_c, 6, 73, 62
8, 161449, Note_off_c, 6, 71, 64
8, 161492, Note_on_c, 6, 74, 68
8, 161497, Note_off_c, 6, 73, 64
8, 161549, Note_on_c, 6, 76, 70
8, 161555, Note_off_c, 6, 74, 64
8, 161588, Note_off_c, 6, 76, 64
8, 161607, Note_on_c, 6, 74, 80
8, 161662, Note_on_c, 6, 76, 68
8, 161676, Note_off_c, 6, 74, 64
8, 161711, Note_off_c, 6, 76, 64
8, 161730, Note_on_c, 6, 78, 102
8, 161787, Note_on_c, 6, 81, 80
8, 161799, Note_off_c, 6, 78, 64
8, 161854, Note_on_c, 6, 75, 62
8, 161858, Note_off_c, 6, 81, 64
8, 161911, Note_on_c, 6, 76, 66
8, 161914, Note_off_c, 6, 75, 64
8, 161958, Note_off_c, 6, 76, 64
8, 161974, Note_on_c, 6, 78, 91
8, 162032, Note_on_c, 6, 79, 78
8, 162040, Note_off_c, 6, 78, 64
8, 162090, Note_off_c, 6, 79, 64
8, 162093, Note_on_c, 6, 78, 55
8, 162147, Note_on_c, 6, 79, 63
8, 162149, Note_off_c, 6, 78, 64
8, 162194, Note_off_c, 6, 79, 64
8, 162213, Note_on_c, 6, 81, 95
8, 162272, Note_on_c, 6, 72, 60
8, 162284, Note_off_c, 6, 81, 64
8, 162319, Note_on_c, 6, 71, 55
8, 162322, Note_off_c, 6, 72, 64
8, 162389, Note_on_c, 6, 72, 63
8, 162394, Note_off_c, 6, 71, 64
8, 162428, Note_off_c, 6, 72, 64
8, 162451, Note_on_c, 6, 81, 100
8, 162504, Note_on_c, 6, 72, 80
8, 162521, Note_off_c, 6, 81, 64
8, 162565, Note_off_c, 6, 72, 64
8, 162566, Note_on_c, 6, 71, 64
8, 162623, Note_on_c, 6, 69, 56
8, 162632, Note_off_c, 6, 71, 64
8, 162668, Note_off_c, 6, 69, 64
8, 162692, Note_on_c, 6, 71, 87
8, 162748, Note_on_c, 6, 73, 57
8, 162756, Note_off_c, 6, 71, 64
8, 162814, Note_on_c, 6, 75, 63
8, 162824, Note_off_c, 6, 73, 64
8, 162860, Note_off_c, 6, 75, 64
8, 162869, Note_on_c, 6, 76, 78
8, 162928, Note_off_c, 6, 76, 64
8, 162936, Note_on_c, 6, 78, 60
8, 162992, Note_on_c, 6, 79, 82
8, 163006, Note_off_c, 6, 78, 64
8, 163043, Note_off_c, 6, 79, 64
8, 163056, Note_on_c, 6, 81, 85
8, 163111, Note_on_c, 6, 78, 60
8, 163113, Note_off_c, 6, 81, 64
8, 163155, Note_off_c, 6, 78, 64
8, 163177, Note_on_c, 6, 79, 95
8, 163227, Note_on_c, 6, 76, 66
8, 163240, Note_off_c, 6, 79, 64
8, 163280, Note_off_c, 6, 76, 64
8, 163285, Note_on_c, 6, 71, 64
8, 163347, Note_on_c, 6, 74, 60
8, 163351, Note_off_c, 6, 71, 64
8, 163398, Note_off_c, 6, 74, 64
8, 163410, Note_on_c, 6, 73, 70
8, 163460, Note_on_c, 6, 76, 64
8, 163466, Note_off_c, 6, 73, 64
8, 163507, Note_off_c, 6, 76, 64
8, 163520, Note_on_c, 6, 69, 60
8, 163577, Note_off_c, 6, 69, 64
8, 163580, Note_on_c, 6, 79, 85
8, 163616, Note_off_c, 6, 79, 64
8, 163647, Note_on_c, 6, 78, 105
8, 163704, Note_on_c, 6, 74, 82
8, 163720, Note_off_c, 6, 78, 64
8, 163753, Note_off_c, 6, 74, 64
8, 163757, Note_on_c, 6, 69, 56
8, 163818, Note_on_c, 6, 72, 64
8, 163825, Note_off_c, 6, 69, 64
8, 163866, Note_off_c, 6, 72, 64
8, 163891, Note_on_c, 6, 71, 89
8, 163944, Note_off_c, 6, 71, 64
8, 163948, Note_on_c, 6, 74, 70
8, 164009, Note_on_c, 6, 67, 49
8, 164013, Note_off_c, 6, 74, 64
8, 164063, Note_off_c, 6, 67, 64
8, 164065, Note_on_c, 6, 78, 72
8, 164101, Note_off_c, 6, 78, 64
8, 164145, Note_on_c, 6, 76, 102
8, 164199, Note_on_c, 6, 73, 61
8, 164215, Note_off_c, 6, 76, 64
8, 164259, Note_on_c, 6, 68, 57
8, 164264, Note_off_c, 6, 73, 64
8, 164311, Note_on_c, 6, 71, 80
8, 164315, Note_off_c, 6, 68, 64
8, 164366, Note_off_c, 6, 71, 64
8, 164382, Note_on_c, 6, 70, 87
8, 164437, Note_on_c, 6, 73, 60
8, 164438, Note_off_c, 6, 70, 64
8, 164496, Note_on_c, 6, 66, 80
8, 164515, Note_off_c, 6, 73, 64
8, 164547, Note_off_c, 6, 66, 64
8, 164551, Note_on_c, 6, 76, 82
8, 164591, Note_off_c, 6, 76, 64
8, 164622, Note_on_c, 6, 74, 91
8, 164676, Note_on_c, 6, 71, 70
8, 164698, Note_off_c, 6, 74, 64
8, 164737, Note_on_c, 6, 73, 60
8, 164745, Note_off_c, 6, 71, 64
8, 164787, Note_off_c, 6, 73, 64
8, 164796, Note_on_c, 6, 74, 82
8, 164841, Note_off_c, 6, 74, 64
8, 164858, Note_on_c, 6, 76, 89
8, 164912, Note_on_c, 6, 78, 74
8, 164932, Note_off_c, 6, 76, 64
8, 164974, Note_off_c, 6, 78, 64
8, 164980, Note_on_c, 6, 79, 66
8, 165032, Note_on_c, 6, 76, 61
8, 165034, Note_off_c, 6, 79, 64
8, 165080, Note_off_c, 6, 76, 64
8, 165103, Note_on_c, 6, 70, 70
8, 165156, Note_on_c, 6, 76, 64
8, 165168, Note_off_c, 6, 70, 64
8, 165219, Note_on_c, 6, 78, 57
8, 165222, Note_off_c, 6, 76, 64
8, 165279, Note_on_c, 6, 76, 66
8, 165287, Note_off_c, 6, 78, 64
8, 165343, Note_on_c, 6, 78, 59
8, 165352, Note_off_c, 6, 76, 64
8, 165399, Note_on_c, 6, 76, 63
8, 165408, Note_off_c, 6, 78, 64
8, 165462, Note_on_c, 6, 78, 56
8, 165465, Note_off_c, 6, 76, 64
8, 165522, Note_on_c, 6, 76, 70
8, 165531, Note_off_c, 6, 78, 64
8, 165572, Note_off_c, 6, 76, 64
8, 165588, Note_on_c, 6, 70, 74
8, 165650, Note_on_c, 6, 76, 60
8, 165659, Note_off_c, 6, 70, 64
8, 165700, Note_on_c, 6, 78, 57
8, 165703, Note_off_c, 6, 76, 64
8, 165768, Note_on_c, 6, 76, 66
8, 165776, Note_off_c, 6, 78, 64
8, 165821, Note_on_c, 6, 78, 56
8, 165824, Note_off_c, 6, 76, 64
8, 165878, Note_on_c, 6, 76, 63
8, 165889, Note_off_c, 6, 78, 64
8, 165944, Note_on_c, 6, 78, 58
8, 165952, Note_off_c, 6, 76, 64
8, 165993, Note_on_c, 6, 76, 61
8, 166003, Note_off_c, 6, 78, 64
8, 166039, Note_off_c, 6, 76, 64
8, 166058, Note_on_c, 6, 70, 82
8, 166112, Note_on_c, 6, 76, 82
8, 166123, Note_off_c, 6, 70, 64
8, 166181, Note_on_c, 6, 78, 59
8, 166200, Note_off_c, 6, 76, 64
8, 166237, Note_on_c, 6, 79, 78
8, 166255, Note_off_c, 6, 78, 64
8, 166300, Note_on_c, 6, 78, 95
8, 166318, Note_off_c, 6, 79, 64
8, 166361, Note_on_c, 6, 76, 60
8, 166370, Note_off_c, 6, 78, 64
8, 166420, Note_on_c, 6, 75, 76
8, 166428, Note_off_c, 6, 76, 64
8, 166476, Note_off_c, 6, 75, 64
8, 166479, Note_on_c, 6, 73, 30
8, 166518, Note_off_c, 6, 73, 64
8, 166544, Note_on_c, 6, 69, 70
8, 166606, Note_on_c, 6, 75, 61
8, 166623, Note_off_c, 6, 69, 64
8, 166671, Note_on_c, 6, 78, 55
8, 166677, Note_off_c, 6, 75, 64
8, 166730, Note_on_c, 6, 75, 59
8, 166744, Note_off_c, 6, 78, 64
8, 166789, Note_off_c, 6, 75, 64
8, 166789, Note_on_c, 6, 78, 60
8, 166841, Note_on_c, 6, 75, 47
8, 166860, Note_off_c, 6, 78, 64
8, 166911, Note_on_c, 6, 78, 61
8, 166917, Note_off_c, 6, 75, 64
8, 166963, Note_on_c, 6, 75, 64
8, 166980, Note_off_c, 6, 78, 64
8, 167012, Note_off_c, 6, 75, 64
8, 167027, Note_on_c, 6, 69, 82
8, 167081, Note_on_c, 6, 75, 68
8, 167099, Note_off_c, 6, 69, 64
8, 167140, Note_on_c, 6, 78, 58
8, 167142, Note_off_c, 6, 75, 64
8, 167200, Note_on_c, 6, 75, 64
8, 167216, Note_off_c, 6, 78, 64
8, 167264, Note_on_c, 6, 78, 56
8, 167265, Note_off_c, 6, 75, 64
8, 167320, Note_on_c, 6, 75, 59
8, 167337, Note_off_c, 6, 78, 64
8, 167384, Note_on_c, 6, 78, 58
8, 167388, Note_off_c, 6, 75, 64
8, 167440, Note_on_c, 6, 75, 60
8, 167457, Note_off_c, 6, 78, 64
8, 167484, Note_off_c, 6, 75, 64
8, 167503, Note_on_c, 6, 69, 87
8, 167558, Note_on_c, 6, 75, 63
8, 167575, Note_off_c, 6, 69, 64
8, 167622, Note_off_c, 6, 75, 64
8, 167622, Note_on_c, 6, 78, 58
8, 167679, Note_on_c, 6, 76, 68
8, 167682, Note_off_c, 6, 78, 64
8, 167732, Note_on_c, 6, 75, 64
8, 167741, Note_off_c, 6, 76, 64
8, 167793, Note_on_c, 6, 73, 60
8, 167805, Note_off_c, 6, 75, 64
8, 167843, Note_on_c, 6, 71, 63
8, 167844, Note_off_c, 6, 73, 64
8, 167900, Note_on_c, 6, 69, 60
8, 167910, Note_off_c, 6, 71, 64
8, 167944, Note_off_c, 6, 69, 64
8, 167973, Note_on_c, 6, 68, 66
8, 168037, Note_on_c, 6, 74, 70
8, 168039, Note_off_c, 6, 68, 64
8, 168106, Note_on_c, 6, 76, 66
8, 168116, Note_off_c, 6, 74, 64
8, 168167, Note_on_c, 6, 74, 68
8, 168189, Note_off_c, 6, 76, 64
8, 168230, Note_on_c, 6, 76, 64
8, 168235, Note_off_c, 6, 74, 64
8, 168290, Note_on_c, 6, 74, 66
8, 168304, Note_off_c, 6, 76, 64
8, 168347, Note_off_c, 6, 74, 64
8, 168350, Note_on_c, 6, 76, 51
8, 168397, Note_on_c, 6, 74, 66
8, 168407, Note_off_c, 6, 76, 64
8, 168443, Note_off_c, 6, 74, 64
8, 168466, Note_on_c, 6, 68, 87
8, 168525, Note_on_c, 6, 74, 70
8, 168526, Note_off_c, 6, 68, 64
8, 168588, Note_on_c, 6, 76, 64
8, 168596, Note_off_c, 6, 74, 64
8, 168647, Note_on_c, 6, 74, 72
8, 168661, Note_off_c, 6, 76, 64
8, 168715, Note_on_c, 6, 76, 70
8, 168725, Note_off_c, 6, 74, 64
8, 168775, Note_on_c, 6, 74, 70
8, 168789, Note_off_c, 6, 76, 64
8, 168838, Note_on_c, 6, 76, 66
8, 168841, Note_off_c, 6, 74, 64
8, 168886, Note_on_c, 6, 74, 66
8, 168894, Note_off_c, 6, 76, 64
8, 168920, Note_off_c, 6, 74, 64
8, 168948, Note_on_c, 6, 68, 74
8, 169006, Note_on_c, 6, 74, 82
8, 169016, Note_off_c, 6, 68, 64
8, 169067, Note_on_c, 6, 76, 61
8, 169077, Note_off_c, 6, 74, 64
8, 169131, Note_on_c, 6, 78, 58
8, 169145, Note_off_c, 6, 76, 64
8, 169188, Note_on_c, 6, 76, 60
8, 169190, Note_off_c, 6, 78, 64
8, 169190, Note_on_c, 6, 77, 52
8, 169200, Note_off_c, 6, 77, 64
8, 169239, Note_on_c, 6, 74, 70
8, 169241, Note_off_c, 6, 76, 64
8, 169297, Note_off_c, 6, 74, 64
8, 169301, Note_on_c, 6, 73, 57
8, 169361, Note_on_c, 6, 71, 62
8, 169376, Note_off_c, 6, 73, 64
8, 169407, Note_off_c, 6, 71, 64
8, 169431, Note_on_c, 6, 67, 70
8, 169489, Note_on_c, 6, 73, 58
8, 169505, Note_off_c, 6, 67, 64
8, 169552, Note_on_c, 6, 76, 62
8, 169570, Note_off_c, 6, 73, 64
8, 169604, Note_on_c, 6, 73, 53
8, 169621, Note_off_c, 6, 76, 64
8, 169664, Note_on_c, 6, 76, 58
8, 169670, Note_off_c, 6, 73, 64
8, 169725, Note_on_c, 6, 73, 52
8, 169738, Note_off_c, 6, 76, 64
8, 169785, Note_on_c, 6, 76, 63
8, 169795, Note_off_c, 6, 73, 64
8, 169838, Note_on_c, 6, 73, 51
8, 169856, Note_off_c, 6, 76, 64
8, 169888, Note_off_c, 6, 73, 64
8, 169907, Note_on_c, 6, 67, 85
8, 169966, Note_on_c, 6, 73, 57
8, 169984, Note_off_c, 6, 67, 64
8, 170028, Note_on_c, 6, 76, 64
8, 170050, Note_off_c, 6, 73, 64
8, 170085, Note_on_c, 6, 73, 58
8, 170103, Note_off_c, 6, 76, 64
8, 170143, Note_on_c, 6, 76, 63
8, 170156, Note_off_c, 6, 73, 64
8, 170206, Note_on_c, 6, 73, 60
8, 170218, Note_off_c, 6, 76, 64
8, 170264, Note_on_c, 6, 76, 60
8, 170274, Note_off_c, 6, 73, 64
8, 170321, Note_on_c, 6, 73, 57
8, 170329, Note_off_c, 6, 76, 64
8, 170365, Note_off_c, 6, 73, 64
8, 170383, Note_on_c, 6, 67, 87
8, 170436, Note_on_c, 6, 73, 60
8, 170457, Note_off_c, 6, 67, 64
8, 170503, Note_on_c, 6, 76, 93
8, 170521, Note_off_c, 6, 73, 64
8, 170553, Note_on_c, 6, 74, 80
8, 170574, Note_off_c, 6, 76, 64
8, 170607, Note_on_c, 6, 73, 78
8, 170629, Note_off_c, 6, 74, 64
8, 170668, Note_on_c, 6, 71, 78
8, 170692, Note_off_c, 6, 73, 64
8, 170726, Note_on_c, 6, 69, 68
8, 170729, Note_off_c, 6, 71, 64
8, 170785, Note_on_c, 6, 67, 70
8, 170800, Note_off_c, 6, 69, 64
8, 170822, Note_off_c, 6, 67, 64
8, 170851, Note_on_c, 6, 66, 89
8, 170905, Note_on_c, 6, 62, 74
8, 170923, Note_off_c, 6, 66, 64
8, 170967, Note_on_c, 6, 64, 76
8, 170978, Note_off_c, 6, 62, 64
8, 171025, Note_on_c, 6, 67, 68
8, 171027, Note_off_c, 6, 64, 64
8, 171065, Note_off_c, 6, 67, 64
8, 171091, Note_on_c, 6, 66, 82
8, 171142, Note_on_c, 6, 69, 68
8, 171148, Note_off_c, 6, 66, 64
8, 171178, Note_off_c, 6, 69, 64
8, 171206, Note_on_c, 6, 68, 98
8, 171260, Note_on_c, 6, 71, 80
8, 171270, Note_off_c, 6, 68, 64
8, 171296, Note_off_c, 6, 71, 64
8, 171329, Note_on_c, 6, 69, 102
8, 171386, Note_on_c, 6, 66, 89
8, 171390, Note_off_c, 6, 69, 64
8, 171450, Note_on_c, 6, 68, 70
8, 171461, Note_off_c, 6, 66, 64
8, 171512, Note_on_c, 6, 71, 78
8, 171523, Note_off_c, 6, 68, 64
8, 171552, Note_off_c, 6, 71, 64
8, 171575, Note_on_c, 6, 69, 100
8, 171632, Note_on_c, 6, 73, 61
8, 171644, Note_off_c, 6, 69, 64
8, 171679, Note_off_c, 6, 73, 64
8, 171700, Note_on_c, 6, 71, 98
8, 171754, Note_on_c, 6, 74, 80
8, 171761, Note_off_c, 6, 71, 64
8, 171789, Note_off_c, 6, 74, 64
8, 171821, Note_on_c, 6, 73, 102
8, 171879, Note_on_c, 6, 69, 85
8, 171894, Note_off_c, 6, 73, 64
8, 171937, Note_on_c, 6, 71, 82
8, 171951, Note_off_c, 6, 69, 64
8, 171993, Note_on_c, 6, 74, 82
8, 172003, Note_off_c, 6, 71, 64
8, 172037, Note_off_c, 6, 74, 64
8, 172056, Note_on_c, 6, 73, 113
8, 172110, Note_on_c, 6, 76, 98
8, 172118, Note_off_c, 6, 73, 64
8, 172145, Note_off_c, 6, 76, 64
8, 172172, Note_on_c, 6, 74, 100
8, 172222, Note_on_c, 6, 78, 87
8, 172235, Note_off_c, 6, 74, 64
8, 172275, Note_off_c, 6, 78, 64
8, 185294, Note_on_c, 6, 71, 89
8, 185348, Note_on_c, 6, 66, 64
8, 185367, Note_off_c, 6, 71, 64
8, 185402, Note_on_c, 6, 62, 64
8, 185410, Note_off_c, 6, 66, 64
8, 185458, Note_on_c, 6, 66, 78
8, 185466, Note_off_c, 6, 62, 64
8, 185521, Note_off_c, 6, 66, 64
8, 185521, Note_on_c, 6, 71, 70
8, 185584, Note_on_c, 6, 74, 78
8, 185589, Note_off_c, 6, 71, 64
8, 185644, Note_off_c, 6, 74, 64
8, 185648, Note_on_c, 6, 73, 68
8, 185692, Note_on_c, 6, 76, 78
8, 185700, Note_off_c, 6, 73, 64
8, 185743, Note_off_c, 6, 76, 64
8, 185757, Note_on_c, 6, 74, 93
8, 185818, Note_on_c, 6, 78, 64
8, 185830, Note_off_c, 6, 74, 64
8, 185876, Note_on_c, 6, 83, 72
8, 185879, Note_off_c, 6, 78, 64
8, 185931, Note_on_c, 6, 74, 57
8, 185937, Note_off_c, 6, 83, 64
8, 185968, Note_off_c, 6, 74, 64
8, 185991, Note_on_c, 6, 73, 66
8, 186055, Note_on_c, 6, 83, 66
8, 186056, Note_off_c, 6, 73, 64
8, 186110, Note_off_c, 6, 83, 64
8, 186112, Note_on_c, 6, 73, 59
8, 186163, Note_off_c, 6, 73, 64
8, 186167, Note_on_c, 6, 82, 59
8, 186213, Note_off_c, 6, 82, 64
8, 186231, Note_on_c, 6, 83, 98
8, 186283, Note_on_c, 6, 78, 59
8, 186292, Note_off_c, 6, 83, 64
8, 186344, Note_on_c, 6, 74, 68
8, 186349, Note_off_c, 6, 78, 64
8, 186401, Note_on_c, 6, 78, 60
8, 186403, Note_off_c, 6, 74, 64
8, 186461, Note_off_c, 6, 78, 64
8, 186461, Note_on_c, 6, 71, 74
8, 186512, Note_on_c, 6, 74, 70
8, 186516, Note_off_c, 6, 71, 64
8, 186560, Note_off_c, 6, 74, 64
8, 186579, Note_on_c, 6, 68, 66
8, 186632, Note_on_c, 6, 77, 78
8, 186639, Note_off_c, 6, 68, 64
8, 186680, Note_off_c, 6, 77, 64
8, 186703, Note_on_c, 6, 78, 85
8, 186764, Note_on_c, 6, 73, 61
8, 186773, Note_off_c, 6, 78, 64
8, 186822, Note_on_c, 6, 69, 57
8, 186827, Note_off_c, 6, 73, 64
8, 186878, Note_on_c, 6, 73, 52
8, 186885, Note_off_c, 6, 69, 64
8, 186933, Note_off_c, 6, 73, 64
8, 186939, Note_on_c, 6, 68, 68
8, 186988, Note_on_c, 6, 78, 60
8, 186996, Note_off_c, 6, 68, 64
8, 187047, Note_off_c, 6, 78, 64
8, 187050, Note_on_c, 6, 68, 82
8, 187106, Note_off_c, 6, 68, 64
8, 187112, Note_on_c, 6, 77, 72
8, 187157, Note_off_c, 6, 77, 64
8, 187179, Note_on_c, 6, 78, 85
8, 187236, Note_on_c, 6, 73, 58
8, 187247, Note_off_c, 6, 78, 64
8, 187294, Note_on_c, 6, 69, 59
8, 187295, Note_off_c, 6, 73, 64
8, 187353, Note_on_c, 6, 73, 58
8, 187358, Note_off_c, 6, 69, 64
8, 187402, Note_off_c, 6, 73, 64
8, 187422, Note_on_c, 6, 78, 80
8, 187475, Note_on_c, 6, 79, 80
8, 187499, Note_off_c, 6, 78, 64
8, 187537, Note_off_c, 6, 79, 64
8, 187543, Note_on_c, 6, 81, 85
8, 187590, Note_off_c, 6, 81, 64
8, 187600, Note_on_c, 6, 78, 53
8, 187640, Note_off_c, 6, 78, 64
8, 187663, Note_on_c, 6, 72, 70
8, 187719, Note_on_c, 6, 71, 62
8, 187729, Note_off_c, 6, 72, 64
8, 187785, Note_off_c, 6, 71, 64
8, 187785, Note_on_c, 6, 72, 58
8, 187828, Note_off_c, 6, 72, 64
8, 187843, Note_on_c, 6, 81, 57
8, 187871, Note_off_c, 6, 81, 64
8, 187905, Note_on_c, 6, 72, 70
8, 187958, Note_on_c, 6, 71, 66
8, 187977, Note_off_c, 6, 72, 64
8, 188022, Note_on_c, 6, 72, 64
8, 188026, Note_off_c, 6, 71, 64
8, 188079, Note_off_c, 6, 72, 64
8, 188083, Note_on_c, 6, 81, 62
8, 188110, Note_off_c, 6, 81, 64
8, 188145, Note_on_c, 6, 71, 82
8, 188203, Note_on_c, 6, 69, 59
8, 188220, Note_off_c, 6, 71, 64
8, 188261, Note_on_c, 6, 71, 61
8, 188276, Note_off_c, 6, 69, 64
8, 188325, Note_on_c, 6, 73, 59
8, 188336, Note_off_c, 6, 71, 64
8, 188383, Note_on_c, 6, 75, 60
8, 188405, Note_off_c, 6, 73, 64
8, 188432, Note_off_c, 6, 75, 64
8, 188435, Note_on_c, 6, 76, 76
8, 188494, Note_on_c, 6, 78, 52
8, 188508, Note_off_c, 6, 76, 64
8, 188555, Note_on_c, 6, 79, 72
8, 188560, Note_off_c, 6, 78, 64
8, 188608, Note_off_c, 6, 79, 64
8, 188627, Note_on_c, 6, 81, 98
8, 188679, Note_on_c, 6, 78, 64
8, 188690, Note_off_c, 6, 81, 64
8, 188742, Note_on_c, 6, 75, 76
8, 188751, Note_off_c, 6, 78, 64
8, 188799, Note_off_c, 6, 75, 64
8, 188800, Note_on_c, 6, 78, 80
8, 188859, Note_on_c, 6, 71, 66
8, 188869, Note_off_c, 6, 78, 64
8, 188907, Note_off_c, 6, 71, 64
8, 188913, Note_on_c, 6, 81, 87
8, 188973, Note_on_c, 6, 79, 68
8, 188991, Note_off_c, 6, 81, 64
8, 189032, Note_off_c, 6, 79, 64
8, 189033, Note_on_c, 6, 78, 66
8, 189078, Note_off_c, 6, 78, 64
8, 189093, Note_on_c, 6, 79, 85
8, 189149, Note_on_c, 6, 76, 62
8, 189175, Note_off_c, 6, 79, 64
8, 189212, Note_on_c, 6, 71, 68
8, 189234, Note_off_c, 6, 76, 64
8, 189272, Note_on_c, 6, 67, 64
8, 189282, Note_off_c, 6, 71, 64
8, 189324, Note_off_c, 6, 67, 64
8, 189338, Note_on_c, 6, 71, 64
8, 189397, Note_on_c, 6, 76, 70
8, 189399, Note_off_c, 6, 71, 64
8, 189460, Note_off_c, 6, 76, 64
8, 189463, Note_on_c, 6, 79, 72
8, 189519, Note_off_c, 6, 79, 64
8, 189519, Note_on_c, 6, 81, 72
8, 189556, Note_off_c, 6, 81, 64
8, 189580, Note_on_c, 6, 80, 100
8, 189636, Note_on_c, 6, 78, 58
8, 189655, Note_off_c, 6, 80, 64
8, 189700, Note_on_c, 6, 80, 56
8, 189702, Note_off_c, 6, 78, 64
8, 189759, Note_off_c, 6, 80, 64
8, 189762, Note_on_c, 6, 83, 60
8, 189802, Note_off_c, 6, 83, 64
8, 189821, Note_on_c, 6, 80, 87
8, 189877, Note_on_c, 6, 78, 55
8, 189898, Note_off_c, 6, 80, 64
8, 189949, Note_on_c, 6, 80, 68
8, 189969, Note_off_c, 6, 78, 64
8, 190000, Note_on_c, 6, 83, 70
8, 190001, Note_off_c, 6, 80, 64
8, 190039, Note_off_c, 6, 83, 64
8, 190065, Note_on_c, 6, 81, 78
8, 190118, Note_on_c, 6, 76, 64
8, 190130, Note_off_c, 6, 81, 64
8, 190179, Note_on_c, 6, 73, 60
8, 190193, Note_off_c, 6, 76, 64
8, 190235, Note_off_c, 6, 73, 64
8, 190236, Note_on_c, 6, 76, 63
8, 190280, Note_off_c, 6, 76, 64
8, 190298, Note_on_c, 6, 69, 78
8, 190358, Note_on_c, 6, 71, 64
8, 190374, Note_off_c, 6, 69, 64
8, 190422, Note_on_c, 6, 73, 58
8, 190425, Note_off_c, 6, 71, 64
8, 190476, Note_off_c, 6, 73, 64
8, 190476, Note_on_c, 6, 74, 66
8, 190537, Note_on_c, 6, 76, 68
8, 190540, Note_off_c, 6, 74, 64
8, 190598, Note_on_c, 6, 78, 60
8, 190611, Note_off_c, 6, 76, 64
8, 190656, Note_on_c, 6, 79, 66
8, 190660, Note_off_c, 6, 78, 64
8, 190716, Note_on_c, 6, 81, 68
8, 190718, Note_off_c, 6, 79, 64
8, 190760, Note_off_c, 6, 81, 64
8, 190779, Note_on_c, 6, 79, 93
8, 190835, Note_on_c, 6, 78, 80
8, 190844, Note_off_c, 6, 79, 64
8, 190890, Note_off_c, 6, 78, 64
8, 190900, Note_on_c, 6, 79, 72
8, 190952, Note_off_c, 6, 79, 64
8, 190960, Note_on_c, 6, 76, 58
8, 191004, Note_off_c, 6, 76, 64
8, 191028, Note_on_c, 6, 78, 95
8, 191089, Note_on_c, 6, 74, 70
8, 191106, Note_off_c, 6, 78, 64
8, 191142, Note_off_c, 6, 74, 64
8, 191144, Note_on_c, 6, 69, 66
8, 191201, Note_on_c, 6, 72, 60
8, 191207, Note_off_c, 6, 69, 64
8, 191247, Note_off_c, 6, 72, 64
8, 191263, Note_on_c, 6, 71, 89
8, 191321, Note_off_c, 6, 71, 64
8, 191324, Note_on_c, 6, 74, 63
8, 191371, Note_on_c, 6, 67, 55
8, 191377, Note_off_c, 6, 74, 64
8, 191434, Note_on_c, 6, 78, 74
8, 191435, Note_off_c, 6, 67, 64
8, 191468, Note_off_c, 6, 78, 64
8, 191503, Note_on_c, 6, 76, 85
8, 191561, Note_on_c, 6, 73, 59
8, 191578, Note_off_c, 6, 76, 64
8, 191618, Note_on_c, 6, 67, 60
8, 191636, Note_off_c, 6, 73, 64
8, 191680, Note_on_c, 6, 71, 70
8, 191683, Note_off_c, 6, 67, 64
8, 191727, Note_off_c, 6, 71, 64
8, 191737, Note_on_c, 6, 69, 80
8, 191793, Note_off_c, 6, 69, 64
8, 191795, Note_on_c, 6, 73, 50
8, 191853, Note_on_c, 6, 66, 58
8, 191870, Note_off_c, 6, 73, 64
8, 191900, Note_off_c, 6, 66, 64
8, 191913, Note_on_c, 6, 76, 82
8, 191960, Note_off_c, 6, 76, 64
8, 191978, Note_on_c, 6, 74, 82
8, 192041, Note_on_c, 6, 71, 68
8, 192054, Note_off_c, 6, 74, 64
8, 192088, Note_off_c, 6, 71, 64
8, 192098, Note_on_c, 6, 66, 68
8, 192155, Note_on_c, 6, 69, 70
8, 192161, Note_off_c, 6, 66, 64
8, 192209, Note_off_c, 6, 69, 64
8, 192219, Note_on_c, 6, 67, 74
8, 192275, Note_on_c, 6, 71, 70
8, 192280, Note_off_c, 6, 67, 64
8, 192333, Note_off_c, 6, 71, 64
8, 192337, Note_on_c, 6, 64, 63
8, 192391, Note_off_c, 6, 64, 64
8, 192398, Note_on_c, 6, 74, 82
8, 192432, Note_off_c, 6, 74, 64
8, 192464, Note_on_c, 6, 73, 93
8, 192523, Note_on_c, 6, 76, 70
8, 192541, Note_off_c, 6, 73, 64
8, 192576, Note_off_c, 6, 76, 64
8, 192580, Note_on_c, 6, 69, 56
8, 192624, Note_off_c, 6, 69, 64
8, 192646, Note_on_c, 6, 73, 59
8, 192685, Note_off_c, 6, 73, 64
8, 192704, Note_on_c, 6, 74, 85
8, 192766, Note_on_c, 6, 78, 66
8, 192777, Note_off_c, 6, 74, 64
8, 192821, Note_off_c, 6, 78, 64
8, 192824, Note_on_c, 6, 69, 63
8, 192872, Note_off_c, 6, 69, 64
8, 192886, Note_on_c, 6, 74, 66
8, 192918, Note_off_c, 6, 74, 64
8, 192950, Note_on_c, 6, 76, 89
8, 193011, Note_on_c, 6, 79, 85
8, 193022, Note_off_c, 6, 76, 64
8, 193063, Note_off_c, 6, 79, 64
8, 193064, Note_on_c, 6, 69, 60
8, 193119, Note_off_c, 6, 69, 64
8, 193125, Note_on_c, 6, 76, 70
8, 193156, Note_off_c, 6, 76, 64
8, 193189, Note_on_c, 6, 78, 102
8, 193247, Note_on_c, 6, 81, 76
8, 193261, Note_off_c, 6, 78, 64
8, 193297, Note_off_c, 6, 81, 64
8, 193297, Note_on_c, 6, 74, 68
8, 193355, Note_on_c, 6, 78, 62
8, 193369, Note_off_c, 6, 74, 64
8, 193392, Note_off_c, 6, 78, 64
8, 193424, Note_on_c, 6, 73, 82
8, 193481, Note_on_c, 6, 76, 66
8, 193493, Note_off_c, 6, 73, 64
8, 193536, Note_off_c, 6, 76, 64
8, 193543, Note_on_c, 6, 69, 63
8, 193599, Note_on_c, 6, 73, 59
8, 193614, Note_off_c, 6, 69, 64
8, 193651, Note_off_c, 6, 73, 64
8, 193663, Note_on_c, 6, 76, 78
8, 193720, Note_on_c, 6, 79, 80
8, 193723, Note_off_c, 6, 76, 64
8, 193771, Note_on_c, 6, 78, 70
8, 193786, Note_off_c, 6, 79, 64
8, 193832, Note_on_c, 6, 76, 78
8, 193847, Note_off_c, 6, 78, 64
8, 193888, Note_off_c, 6, 76, 64
8, 193901, Note_on_c, 6, 78, 93
8, 193954, Note_on_c, 6, 74, 70
8, 193967, Note_off_c, 6, 78, 64
8, 194018, Note_off_c, 6, 74, 64
8, 194019, Note_on_c, 6, 71, 80
8, 194075, Note_on_c, 6, 74, 80
8, 194080, Note_off_c, 6, 71, 64
8, 194136, Note_on_c, 6, 68, 98
8, 194151, Note_off_c, 6, 74, 64
8, 194189, Note_on_c, 6, 78, 64
8, 194199, Note_off_c, 6, 68, 64
8, 194249, Note_on_c, 6, 76, 63
8, 194255, Note_off_c, 6, 78, 64
8, 194309, Note_on_c, 6, 74, 64
8, 194312, Note_off_c, 6, 76, 64
8, 194350, Note_off_c, 6, 74, 64
8, 194372, Note_on_c, 6, 73, 87
8, 194427, Note_on_c, 6, 74, 78
8, 194442, Note_off_c, 6, 73, 64
8, 194490, Note_on_c, 6, 73, 63
8, 194507, Note_off_c, 6, 74, 64
8, 194547, Note_on_c, 6, 71, 68
8, 194564, Note_off_c, 6, 73, 64
8, 194607, Note_on_c, 6, 69, 70
8, 194610, Note_off_c, 6, 71, 64
8, 194665, Note_on_c, 6, 67, 63
8, 194676, Note_off_c, 6, 69, 64
8, 194728, Note_off_c, 6, 67, 64
8, 194731, Note_on_c, 6, 66, 54
8, 194788, Note_off_c, 6, 66, 64
8, 194792, Note_on_c, 6, 64, 74
8, 194822, Note_off_c, 6, 64, 64
8, 194869, Note_on_c, 6, 63, 60
8, 194917, Note_on_c, 6, 69, 66
8, 194920, Note_off_c, 6, 63, 64
8, 194989, Note_off_c, 6, 69, 64
8, 194989, Note_on_c, 6, 71, 66
8, 195040, Note_on_c, 6, 69, 64
8, 195055, Note_off_c, 6, 71, 64
8, 195095, Note_on_c, 6, 71, 54
8, 195098, Note_off_c, 6, 69, 64
8, 195156, Note_on_c, 6, 69, 57
8, 195171, Note_off_c, 6, 71, 64
8, 195226, Note_on_c, 6, 71, 62
8, 195238, Note_off_c, 6, 69, 64
8, 195275, Note_on_c, 6, 69, 60
8, 195285, Note_off_c, 6, 71, 64
8, 195335, Note_off_c, 6, 69, 64
8, 195344, Note_on_c, 6, 63, 60
8, 195401, Note_on_c, 6, 69, 64
8, 195422, Note_off_c, 6, 63, 64
8, 195459, Note_on_c, 6, 71, 59
8, 195470, Note_off_c, 6, 69, 64
8, 195529, Note_on_c, 6, 69, 61
8, 195544, Note_off_c, 6, 71, 64
8, 195590, Note_on_c, 6, 71, 66
8, 195598, Note_off_c, 6, 69, 64
8, 195647, Note_on_c, 6, 69, 60
8, 195662, Note_off_c, 6, 71, 64
8, 195712, Note_on_c, 6, 71, 63
8, 195720, Note_off_c, 6, 69, 64
8, 195766, Note_on_c, 6, 69, 60
8, 195776, Note_off_c, 6, 71, 64
8, 195812, Note_off_c, 6, 69, 64
8, 195835, Note_on_c, 6, 63, 76
8, 195888, Note_on_c, 6, 69, 78
8, 195903, Note_off_c, 6, 63, 64
8, 195960, Note_on_c, 6, 71, 66
8, 195967, Note_off_c, 6, 69, 64
8, 196016, Note_on_c, 6, 72, 64
8, 196030, Note_off_c, 6, 71, 64
8, 196074, Note_on_c, 6, 71, 62
8, 196097, Note_off_c, 6, 72, 64
8, 196131, Note_off_c, 6, 71, 64
8, 196131, Note_on_c, 6, 69, 59
8, 196188, Note_on_c, 6, 68, 59
8, 196197, Note_off_c, 6, 69, 64
8, 196246, Note_on_c, 6, 66, 47
8, 196260, Note_off_c, 6, 68, 64
8, 196291, Note_off_c, 6, 66, 64
8, 196317, Note_on_c, 6, 62, 82
8, 196367, Note_on_c, 6, 68, 59
8, 196385, Note_off_c, 6, 62, 64
8, 196427, Note_on_c, 6, 71, 54
8, 196436, Note_off_c, 6, 68, 64
8, 196487, Note_on_c, 6, 68, 62
8, 196502, Note_off_c, 6, 71, 64
8, 196548, Note_on_c, 6, 71, 63
8, 196555, Note_off_c, 6, 68, 64
8, 196602, Note_on_c, 6, 68, 56
8, 196616, Note_off_c, 6, 71, 64
8, 196669, Note_on_c, 6, 71, 72
8, 196672, Note_off_c, 6, 68, 64
8, 196722, Note_on_c, 6, 68, 63
8, 196736, Note_off_c, 6, 71, 64
8, 196758, Note_off_c, 6, 68, 64
8, 196788, Note_on_c, 6, 62, 64
8, 196843, Note_on_c, 6, 68, 59
8, 196860, Note_off_c, 6, 62, 64
8, 196900, Note_on_c, 6, 71, 68
8, 196901, Note_off_c, 6, 68, 64
8, 196956, Note_on_c, 6, 68, 56
8, 196971, Note_off_c, 6, 71, 64
8, 197018, Note_on_c, 6, 71, 68
8, 197032, Note_off_c, 6, 68, 64
8, 197076, Note_on_c, 6, 68, 59
8, 197096, Note_off_c, 6, 71, 64
8, 197135, Note_on_c, 6, 71, 58
8, 197147, Note_off_c, 6, 68, 64
8, 197192, Note_on_c, 6, 68, 58
8, 197213, Note_off_c, 6, 71, 64
8, 197238, Note_off_c, 6, 68, 64
8, 197260, Note_on_c, 6, 62, 68
8, 197312, Note_on_c, 6, 68, 58
8, 197332, Note_off_c, 6, 62, 64
8, 197376, Note_on_c, 6, 71, 82
8, 197392, Note_off_c, 6, 68, 64
8, 197431, Note_on_c, 6, 69, 74
8, 197457, Note_off_c, 6, 71, 64
8, 197489, Note_on_c, 6, 68, 64
8, 197508, Note_off_c, 6, 69, 64
8, 197543, Note_on_c, 6, 66, 57
8, 197565, Note_off_c, 6, 68, 64
8, 197607, Note_off_c, 6, 66, 64
8, 197610, Note_on_c, 6, 64, 63
8, 197663, Note_on_c, 6, 62, 68
8, 197674, Note_off_c, 6, 64, 64
8, 197701, Note_off_c, 6, 62, 64
8, 197737, Note_on_c, 6, 61, 87
8, 197790, Note_on_c, 6, 67, 68
8, 197801, Note_off_c, 6, 61, 64
8, 197857, Note_on_c, 6, 69, 62
8, 197869, Note_off_c, 6, 67, 64
8, 197909, Note_on_c, 6, 67, 61
8, 197927, Note_off_c, 6, 69, 64
8, 197977, Note_on_c, 6, 69, 63
8, 197982, Note_off_c, 6, 67, 64
8, 198036, Note_on_c, 6, 67, 60
8, 198050, Note_off_c, 6, 69, 64
8, 198101, Note_on_c, 6, 69, 60
8, 198109, Note_off_c, 6, 67, 64
8, 198154, Note_on_c, 6, 67, 66
8, 198168, Note_off_c, 6, 69, 64
8, 198208, Note_off_c, 6, 67, 64
8, 198224, Note_on_c, 6, 61, 87
8, 198279, Note_on_c, 6, 67, 74
8, 198285, Note_off_c, 6, 61, 64
8, 198347, Note_on_c, 6, 69, 60
8, 198356, Note_off_c, 6, 67, 64
8, 198403, Note_on_c, 6, 67, 68
8, 198418, Note_off_c, 6, 69, 64
8, 198459, Note_on_c, 6, 69, 59
8, 198465, Note_off_c, 6, 67, 64
8, 198514, Note_on_c, 6, 67, 66
8, 198530, Note_off_c, 6, 69, 64
8, 198578, Note_on_c, 6, 69, 55
8, 198589, Note_off_c, 6, 67, 64
8, 198632, Note_on_c, 6, 67, 66
8, 198638, Note_off_c, 6, 69, 64
8, 198682, Note_off_c, 6, 67, 64
8, 198702, Note_on_c, 6, 61, 87
8, 198753, Note_on_c, 6, 67, 74
8, 198763, Note_off_c, 6, 61, 64
8, 198824, Note_on_c, 6, 69, 70
8, 198844, Note_off_c, 6, 67, 64
8, 198891, Note_on_c, 6, 71, 68
8, 198905, Note_off_c, 6, 69, 64
8, 198947, Note_on_c, 6, 69, 70
8, 198970, Note_off_c, 6, 71, 64
8, 199009, Note_on_c, 6, 67, 70
8, 199030, Note_off_c, 6, 69, 64
8, 199063, Note_on_c, 6, 66, 55
8, 199074, Note_off_c, 6, 67, 64
8, 199123, Note_off_c, 6, 66, 64
8, 199124, Note_on_c, 6, 64, 68
8, 199154, Note_off_c, 6, 64, 64
8, 199187, Note_on_c, 6, 60, 85
8, 199243, Note_on_c, 6, 66, 53
8, 199256, Note_off_c, 6, 60, 64
8, 199304, Note_on_c, 6, 69, 58
8, 199308, Note_off_c, 6, 66, 64
8, 199358, Note_on_c, 6, 66, 57
8, 199372, Note_off_c, 6, 69, 64
8, 199421, Note_on_c, 6, 69, 64
8, 199423, Note_off_c, 6, 66, 64
8, 199474, Note_on_c, 6, 66, 59
8, 199485, Note_off_c, 6, 69, 64
8, 199540, Note_on_c, 6, 69, 64
8, 199545, Note_off_c, 6, 66, 64
8, 199593, Note_on_c, 6, 66, 59
8, 199607, Note_off_c, 6, 69, 64
8, 199644, Note_off_c, 6, 66, 64
8, 199660, Note_on_c, 6, 60, 78
8, 199720, Note_on_c, 6, 66, 60
8, 199736, Note_off_c, 6, 60, 64
8, 199776, Note_off_c, 6, 66, 64
8, 199781, Note_on_c, 6, 69, 63
8, 199833, Note_on_c, 6, 66, 53
8, 199848, Note_off_c, 6, 69, 64
8, 199898, Note_off_c, 6, 66, 64
8, 199898, Note_on_c, 6, 69, 66
8, 199949, Note_on_c, 6, 66, 63
8, 199964, Note_off_c, 6, 69, 64
8, 200017, Note_on_c, 6, 69, 60
8, 200028, Note_off_c, 6, 66, 64
8, 200071, Note_on_c, 6, 66, 56
8, 200092, Note_off_c, 6, 69, 64
8, 200124, Note_off_c, 6, 66, 64
8, 200143, Note_on_c, 6, 60, 87
8, 200195, Note_on_c, 6, 66, 64
8, 200214, Note_off_c, 6, 60, 64
8, 200264, Note_on_c, 6, 69, 76
8, 200281, Note_off_c, 6, 66, 64
8, 200318, Note_on_c, 6, 67, 76
8, 200341, Note_off_c, 6, 69, 64
8, 200377, Note_on_c, 6, 66, 59
8, 200398, Note_off_c, 6, 67, 64
8, 200438, Note_on_c, 6, 64, 66
8, 200461, Note_off_c, 6, 66, 64
8, 200495, Note_on_c, 6, 62, 72
8, 200504, Note_off_c, 6, 64, 64
8, 200556, Note_on_c, 6, 60, 62
8, 200561, Note_off_c, 6, 62, 64
8, 200590, Note_off_c, 6, 60, 64
8, 200621, Note_on_c, 6, 59, 82
8, 200673, Note_on_c, 6, 55, 76
8, 200693, Note_off_c, 6, 59, 64
8, 200739, Note_on_c, 6, 57, 74
8, 200753, Note_off_c, 6, 55, 64
8, 200799, Note_on_c, 6, 60, 74
8, 200805, Note_off_c, 6, 57, 64
8, 200839, Note_off_c, 6, 60, 64
8, 200858, Note_on_c, 6, 59, 85
8, 200914, Note_on_c, 6, 62, 66
8, 200921, Note_off_c, 6, 59, 64
8, 200951, Note_off_c, 6, 62, 64
8, 200977, Note_on_c, 6, 61, 82
8, 201032, Note_off_c, 6, 61, 64
8, 201032, Note_on_c, 6, 64, 66
8, 201068, Note_off_c, 6, 64, 64
8, 201100, Note_on_c, 6, 62, 98
8, 201156, Note_on_c, 6, 59, 87
8, 201169, Note_off_c, 6, 62, 64
8, 201213, Note_on_c, 6, 61, 68
8, 201233, Note_off_c, 6, 59, 64
8, 201274, Note_on_c, 6, 64, 72
8, 201289, Note_off_c, 6, 61, 64
8, 201320, Note_off_c, 6, 64, 64
8, 201338, Note_on_c, 6, 62, 85
8, 201389, Note_on_c, 6, 66, 68
8, 201407, Note_off_c, 6, 62, 64
8, 201444, Note_off_c, 6, 66, 64
8, 201457, Note_on_c, 6, 64, 95
8, 201512, Note_on_c, 6, 67, 72
8, 201525, Note_off_c, 6, 64, 64
8, 201550, Note_off_c, 6, 67, 64
8, 201578, Note_on_c, 6, 66, 100
8, 201636, Note_on_c, 6, 62, 82
8, 201655, Note_off_c, 6, 66, 64
8, 201694, Note_on_c, 6, 64, 78
8, 201707, Note_off_c, 6, 62, 64
8, 201751, Note_on_c, 6, 67, 70
8, 201753, Note_off_c, 6, 64, 64
8, 201793, Note_off_c, 6, 67, 64
8, 201813, Note_on_c, 6, 66, 82
8, 201868, Note_on_c, 6, 69, 72
8, 201881, Note_off_c, 6, 66, 64
8, 201908, Note_off_c, 6, 69, 64
8, 201929, Note_on_c, 6, 67, 80
8, 201989, Note_on_c, 6, 71, 85
8, 202007, Note_off_c, 6, 67, 64
8, 202024, Note_off_c, 6, 71, 64
8, 202054, Note_on_c, 6, 69, 98
8, 202111, Note_on_c, 6, 62, 76
8, 202129, Note_off_c, 6, 69, 64
8, 202170, Note_on_c, 6, 66, 66
8, 202180, Note_off_c, 6, 62, 64
8, 202225, Note_on_c, 6, 69, 70
8, 202235, Note_off_c, 6, 66, 64
8, 202278, Note_off_c, 6, 69, 64
8, 219853, Note_on_c, 6, 74, 116
8, 220099, Note_off_c, 6, 74, 64
8, 220115, Note_on_c, 6, 76, 78
8, 220165, Note_off_c, 6, 76, 64
8, 220180, Note_on_c, 6, 78, 89
8, 220225, Note_off_c, 6, 78, 64
8, 220240, Note_on_c, 6, 74, 87
8, 220283, Note_off_c, 6, 74, 64
8, 220303, Note_on_c, 6, 69, 91
8, 220594, Note_off_c, 6, 69, 64
8, 220613, Note_on_c, 6, 71, 98
8, 220647, Note_off_c, 6, 71, 64
8, 220671, Note_on_c, 6, 72, 89
8, 220716, Note_off_c, 6, 72, 64
8, 220731, Note_on_c, 6, 69, 100
8, 220776, Note_off_c, 6, 69, 64
8, 220801, Note_on_c, 6, 66, 100
8, 221061, Note_off_c, 6, 66, 64
8, 221086, Note_on_c, 6, 67, 70
8, 221128, Note_off_c, 6, 67, 64
8, 221148, Note_on_c, 6, 69, 82
8, 221188, Note_off_c, 6, 69, 64
8, 221203, Note_on_c, 6, 66, 100
8, 221240, Note_off_c, 6, 66, 64
8, 221270, Note_on_c, 6, 62, 100
8, 221549, Note_off_c, 6, 62, 64
8, 221621, Note_on_c, 6, 64, 72
8, 221649, Note_on_c, 6, 66, 87
8, 221663, Note_off_c, 6, 64, 64
8, 221677, Note_off_c, 6, 66, 64
8, 221677, Note_on_c, 6, 67, 85
8, 221695, Note_on_c, 6, 69, 91
8, 221714, Note_on_c, 6, 71, 85
8, 221715, Note_off_c, 6, 67, 64
8, 221732, Note_off_c, 6, 69, 64
8, 221735, Note_on_c, 6, 72, 100
8, 221745, Note_off_c, 6, 71, 64
8, 221833, Note_off_c, 6, 72, 64
8, 221934, Note_on_c, 6, 72, 78
8, 221977, Note_off_c, 6, 72, 64
8, 221988, Note_on_c, 6, 74, 93
8, 222073, Note_off_c, 6, 74, 64
8, 222185, Note_on_c, 6, 76, 91
8, 222223, Note_off_c, 6, 76, 64
8, 222235, Note_on_c, 6, 74, 93
8, 222320, Note_off_c, 6, 74, 64
8, 222422, Note_on_c, 6, 72, 87
8, 222459, Note_off_c, 6, 72, 64
8, 222472, Note_on_c, 6, 71, 89
8, 222562, Note_off_c, 6, 71, 64
8, 222660, Note_on_c, 6, 69, 80
8, 222694, Note_off_c, 6, 69, 64
8, 222711, Note_on_c, 6, 71, 87
8, 222887, Note_off_c, 6, 71, 64
8, 222951, Note_on_c, 6, 67, 78
8, 223127, Note_off_c, 6, 67, 64
8, 223190, Note_on_c, 6, 71, 82
8, 223538, Note_off_c, 6, 71, 64
8, 223606, Note_on_c, 6, 73, 80
8, 223646, Note_off_c, 6, 73, 64
8, 223667, Note_on_c, 6, 74, 74
8, 223935, Note_off_c, 6, 74, 64
8, 223969, Note_on_c, 6, 73, 68
8, 224010, Note_off_c, 6, 73, 64
8, 224025, Note_on_c, 6, 74, 80
8, 224065, Note_off_c, 6, 74, 64
8, 224080, Note_on_c, 6, 76, 80
8, 224120, Note_off_c, 6, 76, 64
8, 224146, Note_on_c, 6, 76, 85
8, 224204, Note_on_c, 6, 75, 85
8, 224208, Note_off_c, 6, 76, 64
8, 224235, Note_off_c, 6, 75, 64
8, 224235, Note_on_c, 6, 76, 68
8, 224263, Note_on_c, 6, 75, 70
8, 224267, Note_off_c, 6, 76, 64
8, 224285, Note_off_c, 6, 75, 64
8, 224285, Note_on_c, 6, 76, 60
8, 224304, Note_off_c, 6, 76, 64
8, 224304, Note_on_c, 6, 75, 62
8, 224322, Note_on_c, 6, 76, 76
8, 224323, Note_off_c, 6, 75, 64
8, 224342, Note_on_c, 6, 75, 80
8, 224343, Note_off_c, 6, 76, 64
8, 224364, Note_on_c, 6, 76, 87
8, 224367, Note_off_c, 6, 75, 64
8, 224385, Note_on_c, 6, 75, 87
8, 224392, Note_off_c, 6, 76, 64
8, 224520, Note_off_c, 6, 75, 64
8, 224564, Note_on_c, 6, 76, 85
8, 224603, Note_off_c, 6, 76, 64
8, 224626, Note_on_c, 6, 78, 85
8, 224893, Note_off_c, 6, 78, 64
8, 224933, Note_on_c, 6, 81, 87
8, 224968, Note_off_c, 6, 81, 64
8, 224988, Note_on_c, 6, 79, 91
8, 225027, Note_off_c, 6, 79, 64
8, 225044, Note_on_c, 6, 78, 85
8, 225099, Note_off_c, 6, 78, 64
8, 225117, Note_on_c, 6, 83, 91
8, 225211, Note_off_c, 6, 83, 64
8, 225297, Note_on_c, 6, 81, 80
8, 225339, Note_off_c, 6, 81, 64
8, 225354, Note_on_c, 6, 79, 87
8, 225442, Note_off_c, 6, 79, 64
8, 225533, Note_on_c, 6, 78, 66
8, 225572, Note_off_c, 6, 78, 64
8, 225588, Note_on_c, 6, 79, 85
8, 225679, Note_off_c, 6, 79, 64
8, 225777, Note_on_c, 6, 78, 70
8, 225818, Note_off_c, 6, 78, 64
8, 225832, Note_on_c, 6, 76, 87
8, 225935, Note_off_c, 6, 76, 64
8, 226014, Note_on_c, 6, 78, 82
8, 226059, Note_off_c, 6, 78, 64
8, 226079, Note_on_c, 6, 79, 87
8, 226137, Note_on_c, 6, 78, 82
8, 226142, Note_off_c, 6, 79, 64
8, 226166, Note_on_c, 6, 79, 76
8, 226170, Note_off_c, 6, 78, 64
8, 226196, Note_on_c, 6, 78, 66
8, 226200, Note_off_c, 6, 79, 64
8, 226219, Note_off_c, 6, 78, 64
8, 226220, Note_on_c, 6, 79, 70
8, 226240, Note_on_c, 6, 78, 61
8, 226245, Note_off_c, 6, 79, 64
8, 226261, Note_on_c, 6, 79, 59
8, 226262, Note_off_c, 6, 78, 64
8, 226279, Note_on_c, 6, 78, 57
8, 226288, Note_off_c, 6, 79, 64
8, 226298, Note_on_c, 6, 79, 78
8, 226300, Note_off_c, 6, 78, 64
8, 226318, Note_on_c, 6, 78, 91
8, 226327, Note_off_c, 6, 79, 64
8, 226434, Note_off_c, 6, 78, 64
8, 226495, Note_on_c, 6, 76, 89
8, 226526, Note_off_c, 6, 76, 64
8, 226557, Note_on_c, 6, 76, 95
8, 226797, Note_off_c, 6, 76, 64
8, 226841, Note_on_c, 6, 76, 74
8, 226885, Note_off_c, 6, 76, 64
8, 226904, Note_on_c, 6, 74, 82
8, 226941, Note_off_c, 6, 74, 64
8, 226962, Note_on_c, 6, 73, 68
8, 226999, Note_off_c, 6, 73, 64
8, 227029, Note_on_c, 6, 74, 87
8, 227125, Note_off_c, 6, 74, 64
8, 227210, Note_on_c, 6, 83, 87
8, 227258, Note_off_c, 6, 83, 64
8, 227274, Note_on_c, 6, 76, 98
8, 227352, Note_off_c, 6, 76, 64
8, 227450, Note_on_c, 6, 74, 87
8, 227497, Note_off_c, 6, 74, 64
8, 227513, Note_on_c, 6, 73, 85
8, 227604, Note_off_c, 6, 73, 64
8, 227688, Note_on_c, 6, 69, 74
8, 227734, Note_off_c, 6, 69, 64
8, 227751, Note_on_c, 6, 73, 72
8, 227844, Note_off_c, 6, 73, 64
8, 227932, Note_on_c, 6, 76, 82
8, 227977, Note_off_c, 6, 76, 64
8, 227997, Note_on_c, 6, 81, 89
8, 228309, Note_off_c, 6, 81, 64
8, 228406, Note_on_c, 6, 81, 98
8, 228446, Note_off_c, 6, 81, 64
8, 228470, Note_on_c, 6, 81, 98
8, 228759, Note_off_c, 6, 81, 64
8, 228830, Note_on_c, 6, 71, 82
8, 228856, Note_on_c, 6, 73, 66
8, 228873, Note_off_c, 6, 71, 64
8, 228885, Note_on_c, 6, 74, 78
8, 228890, Note_off_c, 6, 73, 64
8, 228903, Note_on_c, 6, 76, 85
8, 228925, Note_on_c, 6, 78, 85
8, 228927, Note_off_c, 6, 74, 64
8, 228941, Note_off_c, 6, 76, 64
8, 228948, Note_on_c, 6, 79, 89
8, 228960, Note_off_c, 6, 78, 64
8, 229276, Note_off_c, 6, 79, 64
8, 229369, Note_on_c, 6, 79, 91
8, 229402, Note_off_c, 6, 79, 64
8, 229423, Note_on_c, 6, 79, 93
8, 229759, Note_off_c, 6, 79, 64
8, 229822, Note_on_c, 6, 78, 64
8, 229846, Note_on_c, 6, 76, 66
8, 229859, Note_off_c, 6, 78, 64
8, 229861, Note_on_c, 6, 74, 85
8, 229871, Note_off_c, 6, 76, 64
8, 229891, Note_on_c, 6, 73, 105
8, 229897, Note_off_c, 6, 74, 64
8, 229911, Note_on_c, 6, 71, 78
8, 229928, Note_off_c, 6, 73, 64
8, 229933, Note_on_c, 6, 69, 95
8, 229946, Note_off_c, 6, 71, 64
8, 230068, Note_off_c, 6, 69, 64
8, 230104, Note_on_c, 6, 67, 70
8, 230132, Note_on_c, 6, 66, 85
8, 230141, Note_off_c, 6, 67, 64
8, 230156, Note_off_c, 6, 66, 64
8, 230167, Note_on_c, 6, 67, 82
8, 230269, Note_off_c, 6, 67, 64
8, 230332, Note_on_c, 6, 76, 95
8, 230364, Note_off_c, 6, 76, 64
8, 230393, Note_on_c, 6, 66, 93
8, 230642, Note_off_c, 6, 66, 64
8, 230685, Note_on_c, 6, 67, 80
8, 230718, Note_off_c, 6, 67, 64
8, 230743, Note_on_c, 6, 69, 80
8, 230784, Note_off_c, 6, 69, 64
8, 230800, Note_on_c, 6, 71, 93
8, 230838, Note_off_c, 6, 71, 64
8, 230864, Note_on_c, 6, 72, 85
8, 231237, Note_off_c, 6, 72, 64
8, 231290, Note_on_c, 6, 74, 87
8, 231327, Note_off_c, 6, 74, 64
8, 231358, Note_on_c, 6, 71, 89
8, 231623, Note_off_c, 6, 71, 64
8, 231650, Note_on_c, 6, 69, 78
8, 231688, Note_off_c, 6, 69, 64
8, 231708, Note_on_c, 6, 67, 85
8, 231742, Note_off_c, 6, 67, 64
8, 231762, Note_on_c, 6, 66, 87
8, 231807, Note_off_c, 6, 66, 64
8, 231824, Note_on_c, 6, 64, 91
8, 231880, Note_off_c, 6, 64, 64
8, 231890, Note_on_c, 6, 66, 89
8, 231932, Note_off_c, 6, 66, 64
8, 231948, Note_on_c, 6, 67, 85
8, 231996, Note_off_c, 6, 67, 64
8, 232010, Note_on_c, 6, 69, 80
8, 232054, Note_off_c, 6, 69, 64
8, 232071, Note_on_c, 6, 71, 87
8, 232116, Note_off_c, 6, 71, 64
8, 232134, Note_on_c, 6, 73, 82
8, 232180, Note_off_c, 6, 73, 64
8, 232191, Note_on_c, 6, 74, 95
8, 232234, Note_off_c, 6, 74, 64
8, 232247, Note_on_c, 6, 71, 85
8, 232300, Note_off_c, 6, 71, 64
8, 232300, End_track
9, 0, Start_track
9, 0, Title_t, "Violin"
9, 0, Program_c, 7, 40
9, 0, Control_c, 7, 7, 100
9, 1144, Note_on_c, 7, 69, 100
9, 1174, Note_off_c, 7, 69, 64
9, 1204, Note_on_c, 7, 69, 100
9, 1264, Note_off_c, 7, 69, 64
9, 1369, Note_on_c, 7, 66, 98
9, 1403, Note_off_c, 7, 66, 64
9, 1436, Note_on_c, 7, 66, 105
9, 1502, Note_off_c, 7, 66, 64
9, 1603, Note_on_c, 7, 62, 100
9, 1640, Note_off_c, 7, 62, 64
9, 1665, Note_on_c, 7, 62, 107
9, 1732, Note_off_c, 7, 62, 64
9, 1845, Note_on_c, 7, 71, 100
9, 1876, Note_off_c, 7, 71, 64
9, 1911, Note_on_c, 7, 71, 107
9, 1980, Note_off_c, 7, 71, 64
9, 2098, Note_on_c, 7, 67, 89
9, 2132, Note_off_c, 7, 67, 64
9, 2160, Note_on_c, 7, 67, 100
9, 2216, Note_off_c, 7, 67, 64
9, 2328, Note_on_c, 7, 64, 95
9, 2361, Note_off_c, 7, 64, 64
9, 2393, Note_on_c, 7, 64, 102
9, 2468, Note_off_c, 7, 64, 64
9, 2574, Note_on_c, 7, 76, 100
9, 2610, Note_off_c, 7, 76, 64
9, 2637, Note_on_c, 7, 76, 107
9, 2701, Note_off_c, 7, 76, 64
9, 2805, Note_on_c, 7, 73, 102
9, 2839, Note_off_c, 7, 73, 64
9, 2868, Note_on_c, 7, 73, 102
9, 2929, Note_off_c, 7, 73, 64
9, 3047, Note_on_c, 7, 67, 95
9, 3085, Note_off_c, 7, 67, 64
9, 3110, Note_on_c, 7, 67, 93
9, 3179, Note_off_c, 7, 67, 64
9, 3286, Note_on_c, 7, 79, 95
9, 3325, Note_off_c, 7, 79, 64
9, 3349, Note_on_c, 7, 79, 102
9, 3419, Note_off_c, 7, 79, 64
9, 3519, Note_on_c, 7, 76, 91
9, 3555, Note_off_c, 7, 76, 64
9, 3581, Note_on_c, 7, 76, 91
9, 3655, Note_off_c, 7, 76, 64
9, 3772, Note_on_c, 7, 73, 98
9, 3809, Note_off_c, 7, 73, 64
9, 3837, Note_on_c, 7, 74, 98
9, 4400, Note_off_c, 7, 74, 64
9, 4487, Note_on_c, 7, 66, 85
9, 4527, Note_off_c, 7, 66, 64
9, 4545, Note_on_c, 7, 69, 91
9, 4627, Note_off_c, 7, 69, 64
9, 4729, Note_on_c, 7, 73, 98
9, 4765, Note_off_c, 7, 73, 64
9, 4792, Note_on_c, 7, 74, 98
9, 4894, Note_off_c, 7, 74, 64
9, 4973, Note_on_c, 7, 78, 102
9, 5009, Note_off_c, 7, 78, 64
9, 5034, Note_on_c, 7, 78, 100
9, 5093, Note_off_c, 7, 78, 64
9, 5207, Note_on_c, 7, 74, 82
9, 5241, Note_off_c, 7, 74, 64
9, 5268, Note_on_c, 7, 74, 100
9, 5335, Note_off_c, 7, 74, 64
9, 5452, Note_on_c, 7, 71, 85
9, 5485, Note_off_c, 7, 71, 64
9, 5509, Note_on_c, 7, 71, 93
9, 5576, Note_off_c, 7, 71, 64
9, 5685, Note_on_c, 7, 68, 68
9, 5724, Note_off_c, 7, 68, 64
9, 5745, Note_on_c, 7, 68, 87
9, 5823, Note_off_c, 7, 68, 64
9, 5928, Note_on_c, 7, 71, 87
9, 5962, Note_off_c, 7, 71, 64
9, 5986, Note_on_c, 7, 71, 95
9, 6057, Note_off_c, 7, 71, 64
9, 6162, Note_on_c, 7, 68, 82
9, 6195, Note_off_c, 7, 68, 64
9, 6230, Note_on_c, 7, 64, 82
9, 6368, Note_off_c, 7, 64, 64
9, 6468, Note_on_c, 7, 69, 89
9, 6826, Note_off_c, 7, 69, 64
9, 6898, Note_on_c, 7, 68, 78
9, 6938, Note_off_c, 7, 68, 64
9, 6952, Note_on_c, 7, 69, 95
9, 7033, Note_off_c, 7, 69, 64
9, 7118, Note_on_c, 7, 71, 95
9, 7156, Note_off_c, 7, 71, 64
9, 7183, Note_on_c, 7, 64, 100
9, 7332, Note_off_c, 7, 64, 64
9, 7425, Note_on_c, 7, 71, 93
9, 7584, Note_off_c, 7, 71, 64
9, 7672, Note_on_c, 7, 69, 91
9, 7771, Note_off_c, 7, 69, 64
9, 7856, Note_on_c, 7, 64, 85
9, 7891, Note_off_c, 7, 64, 64
9, 7913, Note_on_c, 7, 69, 91
9, 8004, Note_off_c, 7, 69, 64
9, 8092, Note_on_c, 7, 71, 87
9, 8131, Note_off_c, 7, 71, 64
9, 8154, Note_on_c, 7, 72, 89
9, 8489, Note_off_c, 7, 72, 64
9, 8573, Note_on_c, 7, 72, 89
9, 8609, Note_off_c, 7, 72, 64
9, 8634, Note_on_c, 7, 63, 82
9, 8791, Note_off_c, 7, 63, 64
9, 8877, Note_on_c, 7, 66, 87
9, 9054, Note_off_c, 7, 66, 64
9, 9121, Note_on_c, 7, 71, 82
9, 9213, Note_off_c, 7, 71, 64
9, 9291, Note_on_c, 7, 71, 87
9, 9329, Note_off_c, 7, 71, 64
9, 9349, Note_on_c, 7, 72, 87
9, 9421, Note_off_c, 7, 72, 64
9, 9523, Note_on_c, 7, 71, 80
9, 9561, Note_off_c, 7, 71, 64
9, 9590, Note_on_c, 7, 71, 85
9, 9674, Note_off_c, 7, 71, 64
9, 9780, Note_on_c, 7, 76, 91
9, 9815, Note_off_c, 7, 76, 64
9, 9835, Note_on_c, 7, 76, 85
9, 9918, Note_off_c, 7, 76, 64
9, 10008, Note_on_c, 7, 71, 85
9, 10040, Note_off_c, 7, 71, 64
9, 10064, Note_on_c, 7, 67, 91
9, 10392, Note_off_c, 7, 67, 64
9, 10481, Note_on_c, 7, 67, 93
9, 10516, Note_off_c, 7, 67, 64
9, 10542, Note_on_c, 7, 66, 85
9, 10865, Note_off_c, 7, 66, 64
9, 10957, Note_on_c, 7, 70, 74
9, 10998, Note_off_c, 7, 70, 64
9, 11026, Note_on_c, 7, 71, 87
9, 11357, Note_off_c, 7, 71, 64
9, 11459, Note_on_c, 7, 73, 76
9, 11496, Note_off_c, 7, 73, 64
9, 11513, Note_on_c, 7, 71, 89
9, 11606, Note_off_c, 7, 71, 64
9, 11689, Note_on_c, 7, 70, 82
9, 11732, Note_off_c, 7, 70, 64
9, 11751, Note_on_c, 7, 71, 87
9, 11854, Note_off_c, 7, 71, 64
9, 11929, Note_on_c, 7, 71, 89
9, 11960, Note_off_c, 7, 71, 64
9, 11992, Note_on_c, 7, 71, 98
9, 12055, Note_on_c, 7, 70, 80
9, 12060, Note_off_c, 7, 71, 64
9, 12083, Note_on_c, 7, 71, 70
9, 12085, Note_off_c, 7, 70, 64
9, 12111, Note_on_c, 7, 70, 68
9, 12112, Note_off_c, 7, 71, 64
9, 12131, Note_on_c, 7, 71, 74
9, 12132, Note_off_c, 7, 70, 64
9, 12152, Note_on_c, 7, 70, 63
9, 12154, Note_off_c, 7, 71, 64
9, 12171, Note_on_c, 7, 71, 87
9, 12175, Note_off_c, 7, 70, 64
9, 12191, Note_on_c, 7, 70, 59
9, 12198, Note_off_c, 7, 71, 64
9, 12211, Note_on_c, 7, 71, 87
9, 12213, Note_off_c, 7, 70, 64
9, 12230, Note_on_c, 7, 70, 91
9, 12237, Note_off_c, 7, 71, 64
9, 12343, Note_off_c, 7, 70, 64
9, 12412, Note_on_c, 7, 71, 89
9, 12447, Note_off_c, 7, 71, 64
9, 12476, Note_on_c, 7, 71, 105
9, 12563, Note_off_c, 7, 71, 64
9, 12639, Note_on_c, 7, 59, 89
9, 12681, Note_off_c, 7, 59, 64
9, 12700, Note_on_c, 7, 59, 95
9, 12784, Note_off_c, 7, 59, 64
9, 12880, Note_on_c, 7, 63, 82
9, 12916, Note_off_c, 7, 63, 64
9, 12945, Note_on_c, 7, 66, 98
9, 13262, Note_off_c, 7, 66, 64
9, 13371, Note_on_c, 7, 66, 80
9, 13408, Note_off_c, 7, 66, 64
9, 13431, Note_on_c, 7, 64, 98
9, 13534, Note_off_c, 7, 64, 64
9, 13614, Note_on_c, 7, 76, 91
9, 13649, Note_off_c, 7, 76, 64
9, 13675, Note_on_c, 7, 76, 102
9, 13759, Note_off_c, 7, 76, 64
9, 13846, Note_on_c, 7, 74, 80
9, 13887, Note_off_c, 7, 74, 64
9, 13910, Note_on_c, 7, 73, 80
9, 14011, Note_off_c, 7, 73, 64
9, 14097, Note_on_c, 7, 73, 78
9, 14130, Note_off_c, 7, 73, 64
9, 14162, Note_on_c, 7, 73, 98
9, 14232, Note_off_c, 7, 73, 64
9, 14340, Note_on_c, 7, 71, 82
9, 14370, Note_off_c, 7, 71, 64
9, 14402, Note_on_c, 7, 69, 98
9, 14715, Note_off_c, 7, 69, 64
9, 14813, Note_on_c, 7, 69, 102
9, 14843, Note_off_c, 7, 69, 64
9, 14872, Note_on_c, 7, 69, 102
9, 15217, Note_off_c, 7, 69, 64
9, 15284, Note_on_c, 7, 69, 85
9, 15318, Note_off_c, 7, 69, 64
9, 15347, Note_on_c, 7, 71, 85
9, 15425, Note_off_c, 7, 71, 64
9, 15528, Note_on_c, 7, 69, 80
9, 15565, Note_off_c, 7, 69, 64
9, 15591, Note_on_c, 7, 68, 91
9, 15676, Note_off_c, 7, 68, 64
9, 15764, Note_on_c, 7, 66, 74
9, 15809, Note_off_c, 7, 66, 64
9, 15826, Note_on_c, 7, 64, 87
9, 15926, Note_off_c, 7, 64, 64
9, 16007, Note_on_c, 7, 68, 72
9, 16053, Note_off_c, 7, 68, 64
9, 16065, Note_on_c, 7, 69, 89
9, 16151, Note_off_c, 7, 69, 64
9, 16243, Note_on_c, 7, 71, 80
9, 16278, Note_off_c, 7, 71, 64
9, 16308, Note_on_c, 7, 69, 91
9, 16638, Note_off_c, 7, 69, 64
9, 16721, Note_on_c, 7, 69, 87
9, 16750, Note_off_c, 7, 69, 64
9, 16784, Note_on_c, 7, 69, 89
9, 16854, Note_on_c, 7, 68, 78
9, 16858, Note_off_c, 7, 69, 64
9, 16877, Note_off_c, 7, 68, 64
9, 16880, Note_on_c, 7, 69, 70
9, 16905, Note_on_c, 7, 68, 70
9, 16908, Note_off_c, 7, 69, 64
9, 16923, Note_off_c, 7, 68, 64
9, 16924, Note_on_c, 7, 69, 68
9, 16942, Note_on_c, 7, 68, 63
9, 16946, Note_off_c, 7, 69, 64
9, 16961, Note_on_c, 7, 69, 76
9, 16964, Note_off_c, 7, 68, 64
9, 16982, Note_on_c, 7, 68, 68
9, 16988, Note_off_c, 7, 69, 64
9, 17000, Note_on_c, 7, 69, 78
9, 17002, Note_off_c, 7, 68, 64
9, 17019, Note_on_c, 7, 68, 89
9, 17026, Note_off_c, 7, 69, 64
9, 17148, Note_off_c, 7, 68, 64
9, 17209, Note_on_c, 7, 64, 76
9, 17243, Note_off_c, 7, 64, 64
9, 17273, Note_on_c, 7, 64, 95
9, 17403, Note_off_c, 7, 64, 64
9, 24184, Note_on_c, 7, 69, 100
9, 24214, Note_off_c, 7, 69, 64
9, 24244, Note_on_c, 7, 69, 100
9, 24304, Note_off_c, 7, 69, 64
9, 24409, Note_on_c, 7, 66, 98
9, 24443, Note_off_c, 7, 66, 64
9, 24476, Note_on_c, 7, 66, 105
9, 24542, Note_off_c, 7, 66, 64
9, 24643, Note_on_c, 7, 62, 100
9, 24680, Note_off_c, 7, 62, 64
9, 24705, Note_on_c, 7, 62, 107
9, 24772, Note_off_c, 7, 62, 64
9, 24885, Note_on_c, 7, 71, 100
9, 24916, Note_off_c, 7, 71, 64
9, 24951, Note_on_c, 7, 71, 107
9, 25020, Note_off_c, 7, 71, 64
9, 25138, Note_on_c, 7, 67, 89
9, 25172, Note_off_c, 7, 67, 64
9, 25200, Note_on_c, 7, 67, 100
9, 25256, Note_off_c, 7, 67, 64
9, 25368, Note_on_c, 7, 64, 95
9, 25401, Note_off_c, 7, 64, 64
9, 25433, Note_on_c, 7, 64, 102
9, 25508, Note_off_c, 7, 64, 64
9, 25614, Note_on_c, 7, 76, 100
9, 25650, Note_off_c, 7, 76, 64
9, 25677, Note_on_c, 7, 76, 107
9, 25741, Note_off_c, 7, 76, 64
9, 25845, Note_on_c, 7, 73, 102
9, 25879, Note_off_c, 7, 73, 64
9, 25908, Note_on_c, 7, 73, 102
9, 25969, Note_off_c, 7, 73, 64
9, 26087, Note_on_c, 7, 67, 95
9, 26125, Note_off_c, 7, 67, 64
9, 26150, Note_on_c, 7, 67, 93
9, 26219, Note_off_c, 7, 67, 64
9, 26326, Note_on_c, 7, 79, 95
9, 26365, Note_off_c, 7, 79, 64
9, 26389, Note_on_c, 7, 79, 102
9, 26459, Note_off_c, 7, 79, 64
9, 26559, Note_on_c, 7, 76, 91
9, 26595, Note_off_c, 7, 76, 64
9, 26621, Note_on_c, 7, 76, 91
9, 26695, Note_off_c, 7, 76, 64
9, 26812, Note_on_c, 7, 73, 98
9, 26849, Note_off_c, 7, 73, 64
9, 26877, Note_on_c, 7, 74, 98
9, 27440, Note_off_c, 7, 74, 64
9, 27527, Note_on_c, 7, 66, 85
9, 27567, Note_off_c, 7, 66, 64
9, 27585, Note_on_c, 7, 69, 91
9, 27667, Note_off_c, 7, 69, 64
9, 27769, Note_on_c, 7, 73, 98
9, 27805, Note_off_c, 7, 73, 64
9, 27832, Note_on_c, 7, 74, 98
9, 27934, Note_off_c, 7, 74, 64
9, 28013, Note_on_c, 7, 78, 102
9, 28049, Note_off_c, 7, 78, 64
9, 28074, Note_on_c, 7, 78, 100
9, 28133, Note_off_c, 7, 78, 64
9, 28247, Note_on_c, 7, 74, 82
9, 28281, Note_off_c, 7, 74, 64
9, 28308, Note_on_c, 7, 74, 100
9, 28375, Note_off_c, 7, 74, 64
9, 28492, Note_on_c, 7, 71, 85
9, 28525, Note_off_c, 7, 71, 64
9, 28549, Note_on_c, 7, 71, 93
9, 28616, Note_off_c, 7, 71, 64
9, 28725, Note_on_c, 7, 68, 68
9, 28764, Note_off_c, 7, 68, 64
9, 28785, Note_on_c, 7, 68, 87
9, 28863, Note_off_c, 7, 68, 64
9, 28968, Note_on_c, 7, 71, 87
9, 29002, Note_off_c, 7, 71, 64
9, 29026, Note_on_c, 7, 71, 95
9, 29097, Note_off_c, 7, 71, 64
9, 29202, Note_on_c, 7, 68, 82
9, 29235, Note_off_c, 7, 68, 64
9, 29270, Note_on_c, 7, 64, 82
9, 29408, Note_off_c, 7, 64, 64
9, 29508, Note_on_c, 7, 69, 89
9, 29866, Note_off_c, 7, 69, 64
9, 29938, Note_on_c, 7, 68, 78
9, 29978, Note_off_c, 7, 68, 64
9, 29992, Note_on_c, 7, 69, 95
9, 30073, Note_off_c, 7, 69, 64
9, 30158, Note_on_c, 7, 71, 95
9, 30196, Note_off_c, 7, 71, 64
9, 30223, Note_on_c, 7, 64, 100
9, 30372, Note_off_c, 7, 64, 64
9, 30465, Note_on_c, 7, 71, 93
9, 30624, Note_off_c, 7, 71, 64
9, 30712, Note_on_c, 7, 69, 91
9, 30811, Note_off_c, 7, 69, 64
9, 30896, Note_on_c, 7, 64, 85
9, 30931, Note_off_c, 7, 64, 64
9, 30953, Note_on_c, 7, 69, 91
9, 31044, Note_off_c, 7, 69, 64
9, 31132, Note_on_c, 7, 71, 87
9, 31171, Note_off_c, 7, 71, 64
9, 31194, Note_on_c, 7, 72, 89
9, 31529, Note_off_c, 7, 72, 64
9, 31613, Note_on_c, 7, 72, 89
9, 31649, Note_off_c, 7, 72, 64
9, 31674, Note_on_c, 7, 63, 82
9, 31831, Note_off_c, 7, 63, 64
9, 31917, Note_on_c, 7, 66, 87
9, 32094, Note_off_c, 7, 66, 64
9, 32161, Note_on_c, 7, 71, 82
9, 32253, Note_off_c, 7, 71, 64
9, 32331, Note_on_c, 7, 71, 87
9, 32369, Note_off_c, 7, 71, 64
9, 32389, Note_on_c, 7, 72, 87
9, 32461, Note_off_c, 7, 72, 64
9, 32563, Note_on_c, 7, 71, 80
9, 32601, Note_off_c, 7, 71, 64
9, 32630, Note_on_c, 7, 71, 85
9, 32714, Note_off_c, 7, 71, 64
9, 32820, Note_on_c, 7, 76, 91
9, 32855, Note_off_c, 7, 76, 64
9, 32875, Note_on_c, 7, 76, 85
9, 32958, Note_off_c, 7, 76, 64
9, 33048, Note_on_c, 7, 71, 85
9, 33080, Note_off_c, 7, 71, 64
9, 33104, Note_on_c, 7, 67, 91
9, 33432, Note_off_c, 7, 67, 64
9, 33521, Note_on_c, 7, 67, 93
9, 33556, Note_off_c, 7, 67, 64
9, 33582, Note_on_c, 7, 66, 85
9, 33905, Note_off_c, 7, 66, 64
9, 33997, Note_on_c, 7, 70, 74
9, 34038, Note_off_c, 7, 70, 64
9, 34066, Note_on_c, 7, 71, 87
9, 34397, Note_off_c, 7, 71, 64
9, 34499, Note_on_c, 7, 73, 76
9, 34536, Note_off_c, 7, 73, 64
9, 34553, Note_on_c, 7, 71, 89
9, 34646, Note_off_c, 7, 71, 64
9, 34729, Note_on_c, 7, 70, 82
9, 34772, Note_off_c, 7, 70, 64
9, 34791, Note_on_c, 7, 71, 87
9, 34894, Note_off_c, 7, 71, 64
9, 34969, Note_on_c, 7, 71, 89
9, 35000, Note_off_c, 7, 71, 64
9, 35032, Note_on_c, 7, 71, 98
9, 35095, Note_on_c, 7, 70, 80
9, 35100, Note_off_c, 7, 71, 64
9, 35123, Note_on_c, 7, 71, 70
9, 35125, Note_off_c, 7, 70, 64
9, 35151, Note_on_c, 7, 70, 68
9, 35152, Note_off_c, 7, 71, 64
9, 35171, Note_on_c, 7, 71, 74
9, 35172, Note_off_c, 7, 70, 64
9, 35192, Note_on_c, 7, 70, 63
9, 35194, Note_off_c, 7, 71, 64
9, 35211, Note_on_c, 7, 71, 87
9, 35215, Note_off_c, 7, 70, 64
9, 35231, Note_on_c, 7, 70, 59
9, 35238, Note_off_c, 7, 71, 64
9, 35251, Note_on_c, 7, 71, 87
9, 35253, Note_off_c, 7, 70, 64
9, 35270, Note_on_c, 7, 70, 91
9, 35277, Note_off_c, 7, 71, 64
9, 35383, Note_off_c, 7, 70, 64
9, 35452, Note_on_c, 7, 71, 89
9, 35487, Note_off_c, 7, 71, 64
9, 35516, Note_on_c, 7, 71, 105
9, 35603, Note_off_c, 7, 71, 64
9, 35679, Note_on_c, 7, 59, 89
9, 35721, Note_off_c, 7, 59, 64
9, 35740, Note_on_c, 7, 59, 95
9, 35824, Note_off_c, 7, 59, 64
9, 35920, Note_on_c, 7, 63, 82
9, 35956, Note_off_c, 7, 63, 64
9, 35985, Note_on_c, 7, 66, 98
9, 36302, Note_off_c, 7, 66, 64
9, 36411, Note_on_c, 7, 66, 80
9, 36448, Note_off_c, 7, 66, 64
9, 36471, Note_on_c, 7, 64, 98
9, 36574, Note_off_c, 7, 64, 64
9, 36654, Note_on_c, 7, 76, 91
9, 36689, Note_off_c, 7, 76, 64
9, 36715, Note_on_c, 7, 76, 102
9, 36799, Note_off_c, 7, 76, 64
9, 36886, Note_on_c, 7, 74, 80
9, 36927, Note_off_c, 7, 74, 64
9, 36950, Note_on_c, 7, 73, 80
9, 37051, Note_off_c, 7, 73, 64
9, 37137, Note_on_c, 7, 73, 78
9, 37170, Note_off_c, 7, 73, 64
9, 37202, Note_on_c, 7, 73, 98
9, 37272, Note_off_c, 7, 73, 64
9, 37380, Note_on_c, 7, 71, 82
9, 37410, Note_off_c, 7, 71, 64
9, 37442, Note_on_c, 7, 69, 98
9, 37755, Note_off_c, 7, 69, 64
9, 37853, Note_on_c, 7, 69, 102
9, 37883, Note_off_c, 7, 69, 64
9, 37912, Note_on_c, 7, 69, 102
9, 38257, Note_off_c, 7, 69, 64
9, 38324, Note_on_c, 7, 69, 85
9, 38358, Note_off_c, 7, 69, 64
9, 38387, Note_on_c, 7, 71, 85
9, 38465, Note_off_c, 7, 71, 64
9, 38568, Note_on_c, 7, 69, 80
9, 38605, Note_off_c, 7, 69, 64
9, 38631, Note_on_c, 7, 68, 91
9, 38716, Note_off_c, 7, 68, 64
9, 38804, Note_on_c, 7, 66, 74
9, 38849, Note_off_c, 7, 66, 64
9, 38866, Note_on_c, 7, 64, 87
9, 38966, Note_off_c, 7, 64, 64
9, 39047, Note_on_c, 7, 68, 72
9, 39093, Note_off_c, 7, 68, 64
9, 39105, Note_on_c, 7, 69, 89
9, 39191, Note_off_c, 7, 69, 64
9, 39283, Note_on_c, 7, 71, 80
9, 39318, Note_off_c, 7, 71, 64
9, 39348, Note_on_c, 7, 69, 91
9, 39678, Note_off_c, 7, 69, 64
9, 39761, Note_on_c, 7, 69, 87
9, 39790, Note_off_c, 7, 69, 64
9, 39824, Note_on_c, 7, 69, 89
9, 39894, Note_on_c, 7, 68, 78
9, 39898, Note_off_c, 7, 69, 64
9, 39917, Note_off_c, 7, 68, 64
9, 39920, Note_on_c, 7, 69, 70
9, 39945, Note_on_c, 7, 68, 70
9, 39948, Note_off_c, 7, 69, 64
9, 39963, Note_off_c, 7, 68, 64
9, 39964, Note_on_c, 7, 69, 68
9, 39982, Note_on_c, 7, 68, 63
9, 39986, Note_off_c, 7, 69, 64
9, 40001, Note_on_c, 7, 69, 76
9, 40004, Note_off_c, 7, 68, 64
9, 40022, Note_on_c, 7, 68, 68
9, 40028, Note_off_c, 7, 69, 64
9, 40040, Note_on_c, 7, 69, 78
9, 40042, Note_off_c, 7, 68, 64
9, 40059, Note_on_c, 7, 68, 89
9, 40066, Note_off_c, 7, 69, 64
9, 40188, Note_off_c, 7, 68, 64
9, 40249, Note_on_c, 7, 64, 76
9, 40283, Note_off_c, 7, 64, 64
9, 40313, Note_on_c, 7, 64, 95
9, 40443, Note_off_c, 7, 64, 64
9, 47632, Note_on_c, 7, 62, 74
9, 47681, Note_on_c, 7, 64, 78
9, 47684, Note_off_c, 7, 62, 64
9, 47733, Note_off_c, 7, 64, 64
9, 47741, Note_on_c, 7, 66, 78
9, 47801, Note_off_c, 7, 66, 64
9, 47874, Note_on_c, 7, 66, 59
9, 47920, Note_on_c, 7, 67, 68
9, 47922, Note_off_c, 7, 66, 64
9, 47963, Note_off_c, 7, 67, 64
9, 47985, Note_on_c, 7, 69, 82
9, 48058, Note_off_c, 7, 69, 64
9, 48111, Note_on_c, 7, 66, 61
9, 48165, Note_off_c, 7, 66, 64
9, 48173, Note_on_c, 7, 67, 57
9, 48226, Note_off_c, 7, 67, 64
9, 48236, Note_on_c, 7, 69, 76
9, 48300, Note_off_c, 7, 69, 64
9, 48361, Note_on_c, 7, 69, 78
9, 48407, Note_on_c, 7, 71, 78
9, 48410, Note_off_c, 7, 69, 64
9, 48454, Note_off_c, 7, 71, 64
9, 48470, Note_on_c, 7, 72, 91
9, 48537, Note_off_c, 7, 72, 64
9, 48596, Note_on_c, 7, 72, 66
9, 48640, Note_on_c, 7, 71, 60
9, 48641, Note_off_c, 7, 72, 64
9, 48694, Note_off_c, 7, 71, 64
9, 48708, Note_on_c, 7, 72, 87
9, 48775, Note_off_c, 7, 72, 64
9, 48831, Note_on_c, 7, 74, 76
9, 48883, Note_off_c, 7, 74, 64
9, 48887, Note_on_c, 7, 72, 66
9, 48934, Note_off_c, 7, 72, 64
9, 48953, Note_on_c, 7, 71, 82
9, 49017, Note_off_c, 7, 71, 64
9, 49077, Note_on_c, 7, 67, 70
9, 49131, Note_off_c, 7, 67, 64
9, 49132, Note_on_c, 7, 69, 74
9, 49182, Note_off_c, 7, 69, 64
9, 49193, Note_on_c, 7, 71, 82
9, 49252, Note_off_c, 7, 71, 64
9, 49314, Note_on_c, 7, 71, 68
9, 49366, Note_on_c, 7, 73, 64
9, 49377, Note_off_c, 7, 71, 64
9, 49417, Note_off_c, 7, 73, 64
9, 49431, Note_on_c, 7, 74, 95
9, 49493, Note_off_c, 7, 74, 64
9, 49550, Note_on_c, 7, 74, 80
9, 49601, Note_off_c, 7, 74, 64
9, 49601, Note_on_c, 7, 73, 70
9, 49647, Note_off_c, 7, 73, 64
9, 49664, Note_on_c, 7, 74, 85
9, 49728, Note_off_c, 7, 74, 64
9, 49787, Note_on_c, 7, 76, 80
9, 49841, Note_on_c, 7, 74, 82
9, 49851, Note_off_c, 7, 76, 64
9, 49890, Note_off_c, 7, 74, 64
9, 49907, Note_on_c, 7, 73, 85
9, 49961, Note_off_c, 7, 73, 64
9, 50030, Note_on_c, 7, 76, 87
9, 50080, Note_off_c, 7, 76, 64
9, 50151, Note_on_c, 7, 69, 78
9, 50196, Note_off_c, 7, 69, 64
9, 50272, Note_on_c, 7, 73, 80
9, 50438, Note_off_c, 7, 73, 64
9, 50512, Note_on_c, 7, 76, 82
9, 50552, Note_off_c, 7, 76, 64
9, 50632, Note_on_c, 7, 67, 74
9, 50681, Note_off_c, 7, 67, 64
9, 50758, Note_on_c, 7, 73, 80
9, 50946, Note_off_c, 7, 73, 64
9, 50987, Note_on_c, 7, 76, 87
9, 51035, Note_off_c, 7, 76, 64
9, 51107, Note_on_c, 7, 69, 82
9, 51167, Note_off_c, 7, 69, 64
9, 51226, Note_on_c, 7, 73, 78
9, 51271, Note_off_c, 7, 73, 64
9, 51346, Note_on_c, 7, 74, 66
9, 51403, Note_off_c, 7, 74, 64
9, 51403, Note_on_c, 7, 69, 80
9, 51444, Note_off_c, 7, 69, 64
9, 51461, Note_on_c, 7, 66, 74
9, 51512, Note_off_c, 7, 66, 64
9, 51516, Note_on_c, 7, 67, 70
9, 51559, Note_off_c, 7, 67, 64
9, 51576, Note_on_c, 7, 69, 63
9, 51633, Note_off_c, 7, 69, 64
9, 51639, Note_on_c, 7, 71, 76
9, 51680, Note_off_c, 7, 71, 64
9, 51700, Note_on_c, 7, 69, 57
9, 51749, Note_on_c, 7, 71, 64
9, 51752, Note_off_c, 7, 69, 64
9, 51792, Note_off_c, 7, 71, 64
9, 51820, Note_on_c, 7, 72, 87
9, 51875, Note_on_c, 7, 69, 74
9, 51879, Note_off_c, 7, 72, 64
9, 51912, Note_off_c, 7, 69, 64
9, 51929, Note_on_c, 7, 62, 68
9, 51990, Note_on_c, 7, 64, 72
9, 51995, Note_off_c, 7, 62, 64
9, 52034, Note_off_c, 7, 64, 64
9, 52050, Note_on_c, 7, 66, 78
9, 52107, Note_on_c, 7, 67, 68
9, 52113, Note_off_c, 7, 66, 64
9, 52154, Note_off_c, 7, 67, 64
9, 52169, Note_on_c, 7, 66, 56
9, 52226, Note_off_c, 7, 66, 64
9, 52231, Note_on_c, 7, 67, 63
9, 52285, Note_off_c, 7, 67, 64
9, 52303, Note_on_c, 7, 69, 80
9, 52368, Note_on_c, 7, 67, 72
9, 52384, Note_off_c, 7, 69, 64
9, 52427, Note_on_c, 7, 66, 55
9, 52433, Note_off_c, 7, 67, 64
9, 52488, Note_on_c, 7, 67, 68
9, 52490, Note_off_c, 7, 66, 64
9, 52542, Note_off_c, 7, 67, 64
9, 52556, Note_on_c, 7, 69, 93
9, 52609, Note_on_c, 7, 67, 70
9, 52621, Note_off_c, 7, 69, 64
9, 52664, Note_on_c, 7, 66, 57
9, 52686, Note_off_c, 7, 67, 64
9, 52728, Note_on_c, 7, 64, 64
9, 52730, Note_off_c, 7, 66, 64
9, 52771, Note_off_c, 7, 64, 64
9, 52788, Note_on_c, 7, 62, 68
9, 52860, Note_off_c, 7, 62, 64
9, 52912, Note_on_c, 7, 71, 87
9, 52957, Note_off_c, 7, 71, 64
9, 53036, Note_on_c, 7, 64, 78
9, 53082, Note_off_c, 7, 64, 64
9, 53159, Note_on_c, 7, 68, 78
9, 53333, Note_off_c, 7, 68, 64
9, 53388, Note_on_c, 7, 71, 85
9, 53438, Note_off_c, 7, 71, 64
9, 53516, Note_on_c, 7, 62, 78
9, 53561, Note_off_c, 7, 62, 64
9, 53632, Note_on_c, 7, 68, 74
9, 53819, Note_off_c, 7, 68, 64
9, 53864, Note_on_c, 7, 71, 82
9, 53919, Note_off_c, 7, 71, 64
9, 53986, Note_on_c, 7, 64, 74
9, 54035, Note_off_c, 7, 64, 64
9, 54104, Note_on_c, 7, 68, 78
9, 54139, Note_off_c, 7, 68, 64
9, 54225, Note_on_c, 7, 69, 80
9, 54277, Note_on_c, 7, 81, 78
9, 54280, Note_off_c, 7, 69, 64
9, 54317, Note_off_c, 7, 81, 64
9, 54343, Note_on_c, 7, 73, 60
9, 54399, Note_on_c, 7, 74, 74
9, 54405, Note_off_c, 7, 73, 64
9, 54446, Note_off_c, 7, 74, 64
9, 54460, Note_on_c, 7, 76, 80
9, 54514, Note_on_c, 7, 78, 63
9, 54521, Note_off_c, 7, 76, 64
9, 54560, Note_off_c, 7, 78, 64
9, 54572, Note_on_c, 7, 76, 76
9, 54631, Note_on_c, 7, 78, 60
9, 54634, Note_off_c, 7, 76, 64
9, 54679, Note_off_c, 7, 78, 64
9, 54698, Note_on_c, 7, 79, 85
9, 54756, Note_on_c, 7, 76, 63
9, 54760, Note_off_c, 7, 79, 64
9, 54800, Note_off_c, 7, 76, 64
9, 54814, Note_on_c, 7, 69, 62
9, 54874, Note_on_c, 7, 71, 70
9, 54880, Note_off_c, 7, 69, 64
9, 54932, Note_off_c, 7, 71, 64
9, 54936, Note_on_c, 7, 73, 64
9, 54992, Note_on_c, 7, 74, 68
9, 54999, Note_off_c, 7, 73, 64
9, 55051, Note_off_c, 7, 74, 64
9, 55057, Note_on_c, 7, 73, 64
9, 55115, Note_on_c, 7, 74, 72
9, 55120, Note_off_c, 7, 73, 64
9, 55166, Note_off_c, 7, 74, 64
9, 55181, Note_on_c, 7, 76, 87
9, 55235, Note_on_c, 7, 74, 70
9, 55243, Note_off_c, 7, 76, 64
9, 55299, Note_off_c, 7, 74, 64
9, 55300, Note_on_c, 7, 73, 56
9, 55357, Note_on_c, 7, 74, 72
9, 55366, Note_off_c, 7, 73, 64
9, 55403, Note_off_c, 7, 74, 64
9, 55421, Note_on_c, 7, 76, 85
9, 55473, Note_on_c, 7, 74, 78
9, 55488, Note_off_c, 7, 76, 64
9, 55528, Note_off_c, 7, 74, 64
9, 55536, Note_on_c, 7, 73, 78
9, 55587, Note_off_c, 7, 73, 64
9, 55589, Note_on_c, 7, 71, 78
9, 55645, Note_off_c, 7, 71, 64
9, 55661, Note_on_c, 7, 69, 76
9, 55725, Note_off_c, 7, 69, 64
9, 55792, Note_on_c, 7, 66, 76
9, 55841, Note_off_c, 7, 66, 64
9, 55916, Note_on_c, 7, 71, 87
9, 56191, Note_off_c, 7, 71, 64
9, 56282, Note_on_c, 7, 70, 74
9, 56331, Note_on_c, 7, 71, 72
9, 56336, Note_off_c, 7, 70, 64
9, 56384, Note_off_c, 7, 71, 64
9, 56395, Note_on_c, 7, 73, 66
9, 56449, Note_on_c, 7, 71, 72
9, 56451, Note_off_c, 7, 73, 64
9, 56505, Note_on_c, 7, 70, 66
9, 56511, Note_off_c, 7, 71, 64
9, 56561, Note_off_c, 7, 70, 64
9, 56563, Note_on_c, 7, 68, 61
9, 56601, Note_off_c, 7, 68, 64
9, 56627, Note_on_c, 7, 66, 60
9, 56686, Note_on_c, 7, 78, 70
9, 56694, Note_off_c, 7, 66, 64
9, 56744, Note_off_c, 7, 78, 64
9, 56754, Note_on_c, 7, 71, 78
9, 56816, Note_on_c, 7, 73, 58
9, 56827, Note_off_c, 7, 71, 64
9, 56858, Note_off_c, 7, 73, 64
9, 56874, Note_on_c, 7, 74, 80
9, 56924, Note_off_c, 7, 74, 64
9, 56925, Note_on_c, 7, 76, 62
9, 56972, Note_off_c, 7, 76, 64
9, 56986, Note_on_c, 7, 74, 63
9, 57044, Note_on_c, 7, 76, 68
9, 57045, Note_off_c, 7, 74, 64
9, 57102, Note_off_c, 7, 76, 64
9, 57111, Note_on_c, 7, 78, 63
9, 57173, Note_off_c, 7, 78, 64
9, 57173, Note_on_c, 7, 81, 82
9, 57221, Note_off_c, 7, 81, 64
9, 57230, Note_on_c, 7, 74, 70
9, 57286, Note_off_c, 7, 74, 64
9, 57286, Note_on_c, 7, 76, 64
9, 57333, Note_off_c, 7, 76, 64
9, 57349, Note_on_c, 7, 78, 82
9, 57401, Note_off_c, 7, 78, 64
9, 57402, Note_on_c, 7, 79, 72
9, 57449, Note_off_c, 7, 79, 64
9, 57462, Note_on_c, 7, 78, 87
9, 57505, Note_off_c, 7, 78, 64
9, 57518, Note_on_c, 7, 79, 80
9, 57564, Note_off_c, 7, 79, 64
9, 57585, Note_on_c, 7, 81, 98
9, 57639, Note_on_c, 7, 79, 76
9, 57649, Note_off_c, 7, 81, 64
9, 57694, Note_off_c, 7, 79, 64
9, 57702, Note_on_c, 7, 78, 51
9, 57759, Note_on_c, 7, 79, 70
9, 57760, Note_off_c, 7, 78, 64
9, 57807, Note_off_c, 7, 79, 64
9, 57829, Note_on_c, 7, 81, 98
9, 57882, Note_on_c, 7, 79, 76
9, 57894, Note_off_c, 7, 81, 64
9, 57942, Note_off_c, 7, 79, 64
9, 57943, Note_on_c, 7, 78, 78
9, 58000, Note_on_c, 7, 76, 66
9, 58002, Note_off_c, 7, 78, 64
9, 58064, Note_off_c, 7, 76, 64
9, 58070, Note_on_c, 7, 74, 82
9, 58126, Note_off_c, 7, 74, 64
9, 58195, Note_on_c, 7, 71, 82
9, 58237, Note_off_c, 7, 71, 64
9, 58316, Note_on_c, 7, 76, 87
9, 58595, Note_off_c, 7, 76, 64
9, 58657, Note_on_c, 7, 69, 78
9, 58701, Note_off_c, 7, 69, 64
9, 58784, Note_on_c, 7, 74, 87
9, 59064, Note_off_c, 7, 74, 64
9, 59143, Note_on_c, 7, 73, 68
9, 59206, Note_off_c, 7, 73, 64
9, 59268, Note_on_c, 7, 74, 87
9, 59317, Note_off_c, 7, 74, 64
9, 59319, Note_on_c, 7, 73, 89
9, 59362, Note_off_c, 7, 73, 64
9, 59371, Note_on_c, 7, 71, 78
9, 59421, Note_off_c, 7, 71, 64
9, 59431, Note_on_c, 7, 74, 80
9, 59477, Note_off_c, 7, 74, 64
9, 59496, Note_on_c, 7, 73, 82
9, 59548, Note_off_c, 7, 73, 64
9, 59615, Note_on_c, 7, 76, 87
9, 59653, Note_off_c, 7, 76, 64
9, 59739, Note_on_c, 7, 69, 80
9, 59785, Note_off_c, 7, 69, 64
9, 59863, Note_on_c, 7, 73, 80
9, 60061, Note_off_c, 7, 73, 64
9, 60110, Note_on_c, 7, 76, 82
9, 60156, Note_off_c, 7, 76, 64
9, 60227, Note_on_c, 7, 67, 76
9, 60274, Note_off_c, 7, 67, 64
9, 60352, Note_on_c, 7, 73, 82
9, 60560, Note_off_c, 7, 73, 64
9, 60590, Note_on_c, 7, 76, 85
9, 60634, Note_off_c, 7, 76, 64
9, 60704, Note_on_c, 7, 69, 80
9, 60762, Note_off_c, 7, 69, 64
9, 60826, Note_on_c, 7, 73, 80
9, 60881, Note_off_c, 7, 73, 64
9, 60944, Note_on_c, 7, 74, 89
9, 60990, Note_off_c, 7, 74, 64
9, 61064, Note_on_c, 7, 69, 70
9, 61106, Note_off_c, 7, 69, 64
9, 61191, Note_on_c, 7, 74, 89
9, 61473, Note_off_c, 7, 74, 64
9, 61540, Note_on_c, 7, 67, 82
9, 61595, Note_off_c, 7, 67, 64
9, 61658, Note_on_c, 7, 64, 72
9, 61715, Note_off_c, 7, 64, 64
9, 61779, Note_on_c, 7, 73, 66
9, 61832, Note_off_c, 7, 73, 64
9, 61904, Note_on_c, 7, 74, 85
9, 61965, Note_off_c, 7, 74, 64
9, 62019, Note_on_c, 7, 69, 85
9, 62069, Note_off_c, 7, 69, 64
9, 62141, Note_on_c, 7, 62, 70
9, 62190, Note_off_c, 7, 62, 64
9, 62267, Note_on_c, 7, 67, 82
9, 62311, Note_off_c, 7, 67, 64
9, 62384, Note_on_c, 7, 64, 78
9, 62431, Note_off_c, 7, 64, 64
9, 62449, Note_on_c, 7, 61, 89
9, 62497, Note_off_c, 7, 61, 64
9, 62515, Note_on_c, 7, 62, 63
9, 62565, Note_off_c, 7, 62, 64
9, 62568, Note_on_c, 7, 64, 76
9, 62608, Note_off_c, 7, 64, 64
9, 62640, Note_on_c, 7, 57, 89
9, 62677, Note_off_c, 7, 57, 64
9, 62746, Note_on_c, 7, 73, 62
9, 62791, Note_off_c, 7, 73, 64
9, 62865, Note_on_c, 7, 74, 78
9, 62931, Note_off_c, 7, 74, 64
9, 62986, Note_on_c, 7, 71, 78
9, 63038, Note_off_c, 7, 71, 64
9, 63106, Note_on_c, 7, 69, 80
9, 63152, Note_off_c, 7, 69, 64
9, 63232, Note_on_c, 7, 69, 80
9, 63276, Note_off_c, 7, 69, 64
9, 63365, Note_on_c, 7, 69, 85
9, 63585, Note_off_c, 7, 69, 64
9, 78830, Note_on_c, 7, 76, 85
9, 78888, Note_off_c, 7, 76, 64
9, 78956, Note_on_c, 7, 69, 80
9, 79008, Note_off_c, 7, 69, 64
9, 79078, Note_on_c, 7, 73, 85
9, 79242, Note_off_c, 7, 73, 64
9, 79306, Note_on_c, 7, 76, 91
9, 79356, Note_off_c, 7, 76, 64
9, 79427, Note_on_c, 7, 67, 87
9, 79472, Note_off_c, 7, 67, 64
9, 79552, Note_on_c, 7, 73, 85
9, 79723, Note_off_c, 7, 73, 64
9, 79782, Note_on_c, 7, 76, 91
9, 79825, Note_off_c, 7, 76, 64
9, 79904, Note_on_c, 7, 69, 87
9, 79956, Note_off_c, 7, 69, 64
9, 80020, Note_on_c, 7, 73, 74
9, 80072, Note_off_c, 7, 73, 64
9, 80146, Note_on_c, 7, 74, 95
9, 80193, Note_off_c, 7, 74, 64
9, 80199, Note_on_c, 7, 73, 70
9, 80256, Note_off_c, 7, 73, 64
9, 80263, Note_on_c, 7, 74, 66
9, 80316, Note_on_c, 7, 76, 80
9, 80328, Note_off_c, 7, 74, 64
9, 80374, Note_off_c, 7, 76, 64
9, 80380, Note_on_c, 7, 78, 93
9, 80434, Note_on_c, 7, 79, 80
9, 80441, Note_off_c, 7, 78, 64
9, 80486, Note_off_c, 7, 79, 64
9, 80500, Note_on_c, 7, 78, 93
9, 80555, Note_off_c, 7, 78, 64
9, 80556, Note_on_c, 7, 79, 74
9, 80605, Note_off_c, 7, 79, 64
9, 80627, Note_on_c, 7, 81, 95
9, 80678, Note_on_c, 7, 78, 72
9, 80686, Note_off_c, 7, 81, 64
9, 80725, Note_off_c, 7, 78, 64
9, 80739, Note_on_c, 7, 71, 53
9, 80800, Note_on_c, 7, 73, 59
9, 80808, Note_off_c, 7, 71, 64
9, 80863, Note_off_c, 7, 73, 64
9, 80865, Note_on_c, 7, 75, 74
9, 80920, Note_on_c, 7, 76, 68
9, 80927, Note_off_c, 7, 75, 64
9, 80973, Note_off_c, 7, 76, 64
9, 80983, Note_on_c, 7, 75, 85
9, 81031, Note_on_c, 7, 76, 66
9, 81038, Note_off_c, 7, 75, 64
9, 81080, Note_off_c, 7, 76, 64
9, 81111, Note_on_c, 7, 78, 100
9, 81166, Note_on_c, 7, 76, 60
9, 81170, Note_off_c, 7, 78, 64
9, 81226, Note_on_c, 7, 75, 58
9, 81236, Note_off_c, 7, 76, 64
9, 81286, Note_on_c, 7, 76, 66
9, 81291, Note_off_c, 7, 75, 64
9, 81347, Note_off_c, 7, 76, 64
9, 81356, Note_on_c, 7, 78, 80
9, 81412, Note_on_c, 7, 76, 72
9, 81414, Note_off_c, 7, 78, 64
9, 81468, Note_on_c, 7, 75, 74
9, 81474, Note_off_c, 7, 76, 64
9, 81523, Note_on_c, 7, 73, 53
9, 81530, Note_off_c, 7, 75, 64
9, 81580, Note_off_c, 7, 73, 64
9, 81587, Note_on_c, 7, 71, 66
9, 81694, Note_off_c, 7, 71, 64
9, 81710, Note_on_c, 7, 76, 63
9, 81815, Note_off_c, 7, 76, 64
9, 81836, Note_on_c, 7, 76, 68
9, 81935, Note_off_c, 7, 76, 64
9, 81956, Note_on_c, 7, 76, 68
9, 82060, Note_off_c, 7, 76, 64
9, 82080, Note_on_c, 7, 76, 66
9, 82169, Note_off_c, 7, 76, 64
9, 82191, Note_on_c, 7, 76, 78
9, 82283, Note_off_c, 7, 76, 64
9, 82306, Note_on_c, 7, 76, 78
9, 82404, Note_off_c, 7, 76, 64
9, 82424, Note_on_c, 7, 76, 70
9, 82521, Note_off_c, 7, 76, 64
9, 82547, Note_on_c, 7, 76, 85
9, 82640, Note_off_c, 7, 76, 64
9, 82670, Note_on_c, 7, 76, 80
9, 82750, Note_off_c, 7, 76, 64
9, 82785, Note_on_c, 7, 76, 89
9, 82867, Note_off_c, 7, 76, 64
9, 82902, Note_on_c, 7, 71, 85
9, 82981, Note_off_c, 7, 71, 64
9, 83025, Note_on_c, 7, 69, 80
9, 83079, Note_on_c, 7, 68, 68
9, 83084, Note_off_c, 7, 69, 64
9, 83141, Note_off_c, 7, 68, 64
9, 83143, Note_on_c, 7, 69, 70
9, 83204, Note_on_c, 7, 71, 72
9, 83237, Note_off_c, 7, 71, 64
9, 83238, Note_off_c, 7, 69, 64
9, 83262, Note_on_c, 7, 69, 74
9, 83325, Note_on_c, 7, 68, 55
9, 83329, Note_off_c, 7, 69, 64
9, 83379, Note_off_c, 7, 68, 64
9, 83383, Note_on_c, 7, 66, 64
9, 83421, Note_off_c, 7, 66, 64
9, 83440, Note_on_c, 7, 69, 59
9, 83494, Note_off_c, 7, 69, 64
9, 83511, Note_on_c, 7, 68, 95
9, 83569, Note_on_c, 7, 69, 70
9, 83571, Note_off_c, 7, 68, 64
9, 83622, Note_on_c, 7, 68, 51
9, 83636, Note_off_c, 7, 69, 64
9, 83678, Note_on_c, 7, 66, 62
9, 83686, Note_off_c, 7, 68, 64
9, 83742, Note_off_c, 7, 66, 64
9, 83747, Note_on_c, 7, 65, 87
9, 83816, Note_off_c, 7, 65, 64
9, 83864, Note_on_c, 7, 68, 66
9, 83943, Note_off_c, 7, 68, 64
9, 83990, Note_on_c, 7, 69, 87
9, 84044, Note_on_c, 7, 73, 62
9, 84046, Note_off_c, 7, 69, 64
9, 84093, Note_off_c, 7, 73, 64
9, 84102, Note_on_c, 7, 66, 80
9, 84161, Note_on_c, 7, 68, 63
9, 84168, Note_off_c, 7, 66, 64
9, 84213, Note_off_c, 7, 68, 64
9, 84225, Note_on_c, 7, 69, 82
9, 84284, Note_on_c, 7, 71, 87
9, 84288, Note_off_c, 7, 69, 64
9, 84344, Note_off_c, 7, 71, 64
9, 84347, Note_on_c, 7, 69, 87
9, 84407, Note_on_c, 7, 71, 80
9, 84418, Note_off_c, 7, 69, 64
9, 84454, Note_off_c, 7, 71, 64
9, 84469, Note_on_c, 7, 73, 100
9, 84522, Note_on_c, 7, 76, 82
9, 84537, Note_off_c, 7, 73, 64
9, 84568, Note_off_c, 7, 76, 64
9, 84580, Note_on_c, 7, 69, 82
9, 84636, Note_on_c, 7, 71, 76
9, 84639, Note_off_c, 7, 69, 64
9, 84687, Note_off_c, 7, 71, 64
9, 84700, Note_on_c, 7, 73, 82
9, 84749, Note_on_c, 7, 74, 82
9, 84758, Note_off_c, 7, 73, 64
9, 84799, Note_off_c, 7, 74, 64
9, 84814, Note_on_c, 7, 73, 87
9, 84860, Note_off_c, 7, 73, 64
9, 84869, Note_on_c, 7, 74, 80
9, 84914, Note_off_c, 7, 74, 64
9, 84933, Note_on_c, 7, 76, 102
9, 84993, Note_on_c, 7, 74, 80
9, 85003, Note_off_c, 7, 76, 64
9, 85060, Note_off_c, 7, 74, 64
9, 85062, Note_on_c, 7, 73, 49
9, 85119, Note_on_c, 7, 74, 68
9, 85127, Note_off_c, 7, 73, 64
9, 85167, Note_off_c, 7, 74, 64
9, 85186, Note_on_c, 7, 76, 105
9, 85243, Note_on_c, 7, 74, 78
9, 85256, Note_off_c, 7, 76, 64
9, 85308, Note_on_c, 7, 73, 64
9, 85316, Note_off_c, 7, 74, 64
9, 85367, Note_on_c, 7, 71, 78
9, 85370, Note_off_c, 7, 73, 64
9, 85425, Note_off_c, 7, 71, 64
9, 85437, Note_on_c, 7, 69, 85
9, 85504, Note_off_c, 7, 69, 64
9, 85559, Note_on_c, 7, 66, 85
9, 85606, Note_off_c, 7, 66, 64
9, 85683, Note_on_c, 7, 71, 87
9, 85938, Note_off_c, 7, 71, 64
9, 86020, Note_on_c, 7, 76, 89
9, 86074, Note_off_c, 7, 76, 64
9, 86146, Note_on_c, 7, 70, 80
9, 86189, Note_off_c, 7, 70, 64
9, 86265, Note_on_c, 7, 66, 82
9, 86423, Note_off_c, 7, 66, 64
9, 86442, Note_on_c, 7, 67, 76
9, 86489, Note_off_c, 7, 67, 64
9, 86504, Note_on_c, 7, 64, 72
9, 86559, Note_on_c, 7, 66, 78
9, 86574, Note_off_c, 7, 64, 64
9, 86606, Note_off_c, 7, 66, 64
9, 86625, Note_on_c, 7, 67, 93
9, 86675, Note_off_c, 7, 67, 64
9, 86747, Note_on_c, 7, 64, 85
9, 86800, Note_off_c, 7, 64, 64
9, 86870, Note_on_c, 7, 73, 80
9, 86916, Note_off_c, 7, 73, 64
9, 86926, Note_on_c, 7, 78, 68
9, 86979, Note_off_c, 7, 78, 64
9, 86980, Note_on_c, 7, 70, 74
9, 87038, Note_on_c, 7, 71, 78
9, 87041, Note_off_c, 7, 70, 64
9, 87083, Note_off_c, 7, 71, 64
9, 87102, Note_on_c, 7, 73, 85
9, 87151, Note_on_c, 7, 74, 82
9, 87158, Note_off_c, 7, 73, 64
9, 87193, Note_off_c, 7, 74, 64
9, 87208, Note_on_c, 7, 73, 64
9, 87264, Note_on_c, 7, 74, 82
9, 87273, Note_off_c, 7, 73, 64
9, 87315, Note_off_c, 7, 74, 64
9, 87335, Note_on_c, 7, 76, 100
9, 87391, Note_on_c, 7, 73, 62
9, 87398, Note_off_c, 7, 76, 64
9, 87445, Note_off_c, 7, 73, 64
9, 87457, Note_on_c, 7, 66, 57
9, 87510, Note_on_c, 7, 68, 72
9, 87524, Note_off_c, 7, 66, 64
9, 87570, Note_off_c, 7, 68, 64
9, 87578, Note_on_c, 7, 70, 70
9, 87634, Note_off_c, 7, 70, 64
9, 87634, Note_on_c, 7, 71, 70
9, 87691, Note_off_c, 7, 71, 64
9, 87698, Note_on_c, 7, 70, 58
9, 87765, Note_off_c, 7, 70, 64
9, 87765, Note_on_c, 7, 71, 74
9, 87818, Note_off_c, 7, 71, 64
9, 87824, Note_on_c, 7, 73, 66
9, 87883, Note_on_c, 7, 71, 66
9, 87900, Note_off_c, 7, 73, 64
9, 87935, Note_off_c, 7, 71, 64
9, 87936, Note_on_c, 7, 70, 59
9, 87998, Note_on_c, 7, 71, 72
9, 88003, Note_off_c, 7, 70, 64
9, 88051, Note_off_c, 7, 71, 64
9, 88064, Note_on_c, 7, 73, 91
9, 88121, Note_on_c, 7, 76, 93
9, 88137, Note_off_c, 7, 73, 64
9, 88177, Note_on_c, 7, 74, 80
9, 88187, Note_off_c, 7, 76, 64
9, 88234, Note_off_c, 7, 74, 64
9, 88237, Note_on_c, 7, 73, 66
9, 88292, Note_off_c, 7, 73, 64
9, 88302, Note_on_c, 7, 71, 82
9, 88354, Note_off_c, 7, 71, 64
9, 88429, Note_on_c, 7, 66, 76
9, 88476, Note_off_c, 7, 66, 64
9, 88542, Note_on_c, 7, 71, 87
9, 88810, Note_off_c, 7, 71, 64
9, 88904, Note_on_c, 7, 64, 76
9, 88952, Note_off_c, 7, 64, 64
9, 89021, Note_on_c, 7, 61, 68
9, 89074, Note_off_c, 7, 61, 64
9, 89134, Note_on_c, 7, 70, 80
9, 89188, Note_off_c, 7, 70, 64
9, 89257, Note_on_c, 7, 71, 89
9, 89307, Note_off_c, 7, 71, 64
9, 89377, Note_on_c, 7, 71, 87
9, 89434, Note_off_c, 7, 71, 64
9, 89498, Note_on_c, 7, 71, 82
9, 89564, Note_off_c, 7, 71, 64
9, 89619, Note_on_c, 7, 64, 76
9, 89671, Note_off_c, 7, 64, 64
9, 89748, Note_on_c, 7, 61, 85
9, 89985, Note_off_c, 7, 61, 64
9, 90098, Note_on_c, 7, 73, 78
9, 90155, Note_off_c, 7, 73, 64
9, 90218, Note_on_c, 7, 71, 82
9, 90279, Note_off_c, 7, 71, 64
9, 90339, Note_on_c, 7, 70, 74
9, 90383, Note_off_c, 7, 70, 64
9, 90455, Note_on_c, 7, 66, 82
9, 90509, Note_off_c, 7, 66, 64
9, 90582, Note_on_c, 7, 66, 82
9, 90640, Note_off_c, 7, 66, 64
9, 90705, Note_on_c, 7, 62, 85
9, 90764, Note_off_c, 7, 62, 64
9, 90825, Note_on_c, 7, 67, 82
9, 90885, Note_off_c, 7, 67, 64
9, 90953, Note_on_c, 7, 66, 70
9, 91011, Note_off_c, 7, 66, 64
9, 91075, Note_on_c, 7, 66, 82
9, 91127, Note_off_c, 7, 66, 64
9, 91198, Note_on_c, 7, 66, 95
9, 91446, Note_off_c, 7, 66, 64
9, 108588, Note_on_c, 7, 76, 85
9, 108642, Note_off_c, 7, 76, 64
9, 108714, Note_on_c, 7, 69, 78
9, 108755, Note_off_c, 7, 69, 64
9, 108830, Note_on_c, 7, 73, 78
9, 108989, Note_off_c, 7, 73, 64
9, 109056, Note_on_c, 7, 76, 85
9, 109094, Note_off_c, 7, 76, 64
9, 109178, Note_on_c, 7, 67, 70
9, 109222, Note_off_c, 7, 67, 64
9, 109297, Note_on_c, 7, 73, 80
9, 109473, Note_off_c, 7, 73, 64
9, 109541, Note_on_c, 7, 76, 78
9, 109581, Note_off_c, 7, 76, 64
9, 109662, Note_on_c, 7, 69, 74
9, 109716, Note_off_c, 7, 69, 64
9, 109787, Note_on_c, 7, 73, 76
9, 109845, Note_off_c, 7, 73, 64
9, 109908, Note_on_c, 7, 74, 89
9, 109995, Note_off_c, 7, 74, 64
9, 110020, Note_on_c, 7, 62, 72
9, 110079, Note_off_c, 7, 62, 64
9, 110080, Note_on_c, 7, 64, 72
9, 110125, Note_off_c, 7, 64, 64
9, 110142, Note_on_c, 7, 66, 82
9, 110201, Note_off_c, 7, 66, 64
9, 110262, Note_on_c, 7, 66, 57
9, 110303, Note_on_c, 7, 67, 70
9, 110304, Note_off_c, 7, 66, 64
9, 110356, Note_off_c, 7, 67, 64
9, 110375, Note_on_c, 7, 69, 89
9, 110442, Note_off_c, 7, 69, 64
9, 110499, Note_on_c, 7, 66, 56
9, 110549, Note_on_c, 7, 67, 74
9, 110550, Note_off_c, 7, 66, 64
9, 110604, Note_off_c, 7, 67, 64
9, 110612, Note_on_c, 7, 69, 87
9, 110666, Note_off_c, 7, 69, 64
9, 110746, Note_on_c, 7, 69, 80
9, 110796, Note_off_c, 7, 69, 64
9, 110800, Note_on_c, 7, 71, 80
9, 110842, Note_off_c, 7, 71, 64
9, 110861, Note_on_c, 7, 72, 95
9, 110922, Note_off_c, 7, 72, 64
9, 110980, Note_on_c, 7, 72, 78
9, 111030, Note_off_c, 7, 72, 64
9, 111034, Note_on_c, 7, 71, 61
9, 111082, Note_off_c, 7, 71, 64
9, 111102, Note_on_c, 7, 72, 78
9, 111164, Note_off_c, 7, 72, 64
9, 111223, Note_on_c, 7, 74, 70
9, 111268, Note_off_c, 7, 74, 64
9, 111275, Note_on_c, 7, 72, 64
9, 111320, Note_off_c, 7, 72, 64
9, 111342, Note_on_c, 7, 71, 87
9, 111407, Note_off_c, 7, 71, 64
9, 111470, Note_on_c, 7, 67, 70
9, 111522, Note_off_c, 7, 67, 64
9, 111522, Note_on_c, 7, 69, 64
9, 111570, Note_off_c, 7, 69, 64
9, 111585, Note_on_c, 7, 71, 85
9, 111637, Note_off_c, 7, 71, 64
9, 111706, Note_on_c, 7, 71, 74
9, 111756, Note_on_c, 7, 73, 72
9, 111772, Note_off_c, 7, 71, 64
9, 111802, Note_off_c, 7, 73, 64
9, 111820, Note_on_c, 7, 74, 89
9, 111884, Note_off_c, 7, 74, 64
9, 111942, Note_on_c, 7, 74, 80
9, 111995, Note_off_c, 7, 74, 64
9, 111995, Note_on_c, 7, 73, 63
9, 112043, Note_off_c, 7, 73, 64
9, 112063, Note_on_c, 7, 74, 87
9, 112134, Note_off_c, 7, 74, 64
9, 112178, Note_on_c, 7, 76, 82
9, 112232, Note_off_c, 7, 76, 64
9, 112233, Note_on_c, 7, 74, 78
9, 112267, Note_off_c, 7, 74, 64
9, 112305, Note_on_c, 7, 73, 98
9, 112367, Note_off_c, 7, 73, 64
9, 112429, Note_on_c, 7, 76, 89
9, 112472, Note_off_c, 7, 76, 64
9, 112550, Note_on_c, 7, 69, 76
9, 112594, Note_off_c, 7, 69, 64
9, 112668, Note_on_c, 7, 73, 85
9, 112824, Note_off_c, 7, 73, 64
9, 112901, Note_on_c, 7, 76, 82
9, 112939, Note_off_c, 7, 76, 64
9, 113024, Note_on_c, 7, 67, 68
9, 113068, Note_off_c, 7, 67, 64
9, 113144, Note_on_c, 7, 73, 85
9, 113301, Note_off_c, 7, 73, 64
9, 113377, Note_on_c, 7, 76, 85
9, 113418, Note_off_c, 7, 76, 64
9, 113489, Note_on_c, 7, 69, 74
9, 113546, Note_off_c, 7, 69, 64
9, 113610, Note_on_c, 7, 73, 80
9, 113651, Note_off_c, 7, 73, 64
9, 113737, Note_on_c, 7, 74, 82
9, 113791, Note_on_c, 7, 69, 85
9, 113794, Note_off_c, 7, 74, 64
9, 113839, Note_off_c, 7, 69, 64
9, 113845, Note_on_c, 7, 66, 64
9, 113901, Note_on_c, 7, 67, 70
9, 113907, Note_off_c, 7, 66, 64
9, 113945, Note_off_c, 7, 67, 64
9, 113967, Note_on_c, 7, 69, 87
9, 114018, Note_on_c, 7, 71, 74
9, 114027, Note_off_c, 7, 69, 64
9, 114067, Note_off_c, 7, 71, 64
9, 114082, Note_on_c, 7, 69, 82
9, 114137, Note_off_c, 7, 69, 64
9, 114140, Note_on_c, 7, 71, 57
9, 114188, Note_off_c, 7, 71, 64
9, 114212, Note_on_c, 7, 72, 98
9, 114262, Note_on_c, 7, 69, 74
9, 114268, Note_off_c, 7, 72, 64
9, 114310, Note_off_c, 7, 69, 64
9, 114328, Note_on_c, 7, 62, 64
9, 114382, Note_on_c, 7, 64, 61
9, 114389, Note_off_c, 7, 62, 64
9, 114437, Note_off_c, 7, 64, 64
9, 114447, Note_on_c, 7, 66, 68
9, 114503, Note_on_c, 7, 67, 64
9, 114511, Note_off_c, 7, 66, 64
9, 114564, Note_off_c, 7, 67, 64
9, 114567, Note_on_c, 7, 66, 82
9, 114632, Note_on_c, 7, 67, 85
9, 114633, Note_off_c, 7, 66, 64
9, 114675, Note_off_c, 7, 67, 64
9, 114700, Note_on_c, 7, 69, 100
9, 114751, Note_on_c, 7, 67, 85
9, 114764, Note_off_c, 7, 69, 64
9, 114807, Note_off_c, 7, 67, 64
9, 114811, Note_on_c, 7, 66, 78
9, 114863, Note_off_c, 7, 66, 64
9, 114872, Note_on_c, 7, 67, 63
9, 114925, Note_off_c, 7, 67, 64
9, 114940, Note_on_c, 7, 69, 80
9, 114995, Note_on_c, 7, 67, 72
9, 115007, Note_off_c, 7, 69, 64
9, 115054, Note_on_c, 7, 66, 57
9, 115056, Note_off_c, 7, 67, 64
9, 115120, Note_off_c, 7, 66, 64
9, 115120, Note_on_c, 7, 64, 66
9, 115170, Note_off_c, 7, 64, 64
9, 115188, Note_on_c, 7, 62, 68
9, 115255, Note_off_c, 7, 62, 64
9, 115314, Note_on_c, 7, 71, 89
9, 115355, Note_off_c, 7, 71, 64
9, 115434, Note_on_c, 7, 64, 85
9, 115474, Note_off_c, 7, 64, 64
9, 115554, Note_on_c, 7, 68, 91
9, 115717, Note_off_c, 7, 68, 64
9, 115785, Note_on_c, 7, 71, 87
9, 115832, Note_off_c, 7, 71, 64
9, 115908, Note_on_c, 7, 62, 80
9, 115960, Note_off_c, 7, 62, 64
9, 116027, Note_on_c, 7, 68, 87
9, 116204, Note_off_c, 7, 68, 64
9, 116260, Note_on_c, 7, 71, 87
9, 116301, Note_off_c, 7, 71, 64
9, 116378, Note_on_c, 7, 64, 78
9, 116438, Note_off_c, 7, 64, 64
9, 116504, Note_on_c, 7, 68, 85
9, 116542, Note_off_c, 7, 68, 64
9, 116633, Note_on_c, 7, 69, 80
9, 116684, Note_on_c, 7, 81, 91
9, 116686, Note_off_c, 7, 69, 64
9, 116725, Note_off_c, 7, 81, 64
9, 116744, Note_on_c, 7, 73, 63
9, 116795, Note_on_c, 7, 74, 70
9, 116807, Note_off_c, 7, 73, 64
9, 116840, Note_off_c, 7, 74, 64
9, 116861, Note_on_c, 7, 76, 82
9, 116911, Note_on_c, 7, 78, 61
9, 116918, Note_off_c, 7, 76, 64
9, 116946, Note_off_c, 7, 78, 64
9, 116969, Note_on_c, 7, 76, 85
9, 117025, Note_on_c, 7, 78, 85
9, 117040, Note_off_c, 7, 76, 64
9, 117069, Note_off_c, 7, 78, 64
9, 117090, Note_on_c, 7, 79, 93
9, 117142, Note_on_c, 7, 76, 78
9, 117150, Note_off_c, 7, 79, 64
9, 117188, Note_off_c, 7, 76, 64
9, 117201, Note_on_c, 7, 69, 63
9, 117262, Note_on_c, 7, 71, 58
9, 117272, Note_off_c, 7, 69, 64
9, 117318, Note_on_c, 7, 73, 52
9, 117328, Note_off_c, 7, 71, 64
9, 117368, Note_on_c, 7, 74, 85
9, 117381, Note_off_c, 7, 73, 64
9, 117428, Note_off_c, 7, 74, 64
9, 117433, Note_on_c, 7, 73, 74
9, 117495, Note_on_c, 7, 74, 72
9, 117497, Note_off_c, 7, 73, 64
9, 117537, Note_off_c, 7, 74, 64
9, 117560, Note_on_c, 7, 76, 102
9, 117617, Note_on_c, 7, 74, 72
9, 117627, Note_off_c, 7, 76, 64
9, 117680, Note_off_c, 7, 74, 64
9, 117688, Note_on_c, 7, 73, 49
9, 117755, Note_on_c, 7, 74, 68
9, 117762, Note_off_c, 7, 73, 64
9, 117796, Note_off_c, 7, 74, 64
9, 117820, Note_on_c, 7, 76, 105
9, 117875, Note_on_c, 7, 74, 82
9, 117889, Note_off_c, 7, 76, 64
9, 117933, Note_on_c, 7, 73, 64
9, 117937, Note_off_c, 7, 74, 64
9, 117990, Note_on_c, 7, 71, 68
9, 117991, Note_off_c, 7, 73, 64
9, 118051, Note_off_c, 7, 71, 64
9, 118058, Note_on_c, 7, 69, 85
9, 118126, Note_off_c, 7, 69, 64
9, 118181, Note_on_c, 7, 66, 72
9, 118229, Note_off_c, 7, 66, 64
9, 118304, Note_on_c, 7, 71, 85
9, 118575, Note_off_c, 7, 71, 64
9, 118672, Note_on_c, 7, 70, 60
9, 118728, Note_on_c, 7, 71, 78
9, 118731, Note_off_c, 7, 70, 64
9, 118775, Note_off_c, 7, 71, 64
9, 118790, Note_on_c, 7, 73, 80
9, 118842, Note_on_c, 7, 71, 76
9, 118862, Note_off_c, 7, 73, 64
9, 118895, Note_off_c, 7, 71, 64
9, 118904, Note_on_c, 7, 70, 68
9, 118963, Note_on_c, 7, 68, 76
9, 118965, Note_off_c, 7, 70, 64
9, 119002, Note_off_c, 7, 68, 64
9, 119029, Note_on_c, 7, 66, 78
9, 119083, Note_off_c, 7, 66, 64
9, 119086, Note_on_c, 7, 78, 72
9, 119133, Note_off_c, 7, 78, 64
9, 119152, Note_on_c, 7, 71, 70
9, 119216, Note_off_c, 7, 71, 64
9, 119216, Note_on_c, 7, 73, 60
9, 119259, Note_off_c, 7, 73, 64
9, 119268, Note_on_c, 7, 74, 85
9, 119327, Note_on_c, 7, 76, 78
9, 119340, Note_off_c, 7, 74, 64
9, 119363, Note_off_c, 7, 76, 64
9, 119384, Note_on_c, 7, 74, 68
9, 119438, Note_off_c, 7, 74, 64
9, 119441, Note_on_c, 7, 76, 74
9, 119500, Note_off_c, 7, 76, 64
9, 119506, Note_on_c, 7, 78, 87
9, 119566, Note_off_c, 7, 78, 64
9, 119570, Note_on_c, 7, 81, 64
9, 119613, Note_off_c, 7, 81, 64
9, 119624, Note_on_c, 7, 74, 68
9, 119678, Note_on_c, 7, 76, 70
9, 119682, Note_off_c, 7, 74, 64
9, 119730, Note_off_c, 7, 76, 64
9, 119745, Note_on_c, 7, 78, 93
9, 119797, Note_on_c, 7, 79, 80
9, 119806, Note_off_c, 7, 78, 64
9, 119840, Note_off_c, 7, 79, 64
9, 119855, Note_on_c, 7, 78, 85
9, 119909, Note_off_c, 7, 78, 64
9, 119912, Note_on_c, 7, 79, 89
9, 119960, Note_off_c, 7, 79, 64
9, 119980, Note_on_c, 7, 81, 100
9, 120035, Note_on_c, 7, 79, 85
9, 120048, Note_off_c, 7, 81, 64
9, 120087, Note_off_c, 7, 79, 64
9, 120095, Note_on_c, 7, 78, 85
9, 120148, Note_off_c, 7, 78, 64
9, 120152, Note_on_c, 7, 79, 82
9, 120198, Note_off_c, 7, 79, 64
9, 120220, Note_on_c, 7, 81, 105
9, 120275, Note_on_c, 7, 79, 82
9, 120290, Note_off_c, 7, 81, 64
9, 120332, Note_on_c, 7, 78, 85
9, 120341, Note_off_c, 7, 79, 64
9, 120389, Note_on_c, 7, 76, 76
9, 120397, Note_off_c, 7, 78, 64
9, 120450, Note_off_c, 7, 76, 64
9, 120456, Note_on_c, 7, 74, 82
9, 120514, Note_off_c, 7, 74, 64
9, 120574, Note_on_c, 7, 71, 82
9, 120624, Note_off_c, 7, 71, 64
9, 120701, Note_on_c, 7, 76, 89
9, 120977, Note_off_c, 7, 76, 64
9, 121062, Note_on_c, 7, 69, 85
9, 121106, Note_off_c, 7, 69, 64
9, 121190, Note_on_c, 7, 74, 85
9, 121473, Note_off_c, 7, 74, 64
9, 121544, Note_on_c, 7, 73, 85
9, 121602, Note_off_c, 7, 73, 64
9, 121661, Note_on_c, 7, 74, 93
9, 121705, Note_off_c, 7, 74, 64
9, 121712, Note_on_c, 7, 73, 85
9, 121758, Note_off_c, 7, 73, 64
9, 121764, Note_on_c, 7, 71, 87
9, 121813, Note_off_c, 7, 71, 64
9, 121823, Note_on_c, 7, 74, 85
9, 121864, Note_off_c, 7, 74, 64
9, 121884, Note_on_c, 7, 73, 82
9, 121937, Note_off_c, 7, 73, 64
9, 122016, Note_on_c, 7, 76, 89
9, 122056, Note_off_c, 7, 76, 64
9, 122138, Note_on_c, 7, 69, 85
9, 122178, Note_off_c, 7, 69, 64
9, 122260, Note_on_c, 7, 73, 87
9, 122422, Note_off_c, 7, 73, 64
9, 122500, Note_on_c, 7, 76, 87
9, 122538, Note_off_c, 7, 76, 64
9, 122621, Note_on_c, 7, 67, 72
9, 122668, Note_off_c, 7, 67, 64
9, 122749, Note_on_c, 7, 73, 98
9, 122927, Note_off_c, 7, 73, 64
9, 122986, Note_on_c, 7, 76, 82
9, 123029, Note_off_c, 7, 76, 64
9, 123109, Note_on_c, 7, 69, 80
9, 123161, Note_off_c, 7, 69, 64
9, 123229, Note_on_c, 7, 73, 80
9, 123279, Note_off_c, 7, 73, 64
9, 123346, Note_on_c, 7, 74, 82
9, 123391, Note_off_c, 7, 74, 64
9, 123465, Note_on_c, 7, 69, 80
9, 123512, Note_off_c, 7, 69, 64
9, 123595, Note_on_c, 7, 74, 91
9, 123860, Note_off_c, 7, 74, 64
9, 123942, Note_on_c, 7, 67, 82
9, 123992, Note_off_c, 7, 67, 64
9, 124061, Note_on_c, 7, 64, 78
9, 124124, Note_off_c, 7, 64, 64
9, 124182, Note_on_c, 7, 73, 72
9, 124228, Note_off_c, 7, 73, 64
9, 124302, Note_on_c, 7, 74, 87
9, 124369, Note_off_c, 7, 74, 64
9, 124424, Note_on_c, 7, 69, 85
9, 124474, Note_off_c, 7, 69, 64
9, 124535, Note_on_c, 7, 62, 74
9, 124589, Note_off_c, 7, 62, 64
9, 124660, Note_on_c, 7, 67, 82
9, 124702, Note_off_c, 7, 67, 64
9, 124784, Note_on_c, 7, 64, 72
9, 124838, Note_on_c, 7, 61, 80
9, 124842, Note_off_c, 7, 64, 64
9, 124893, Note_off_c, 7, 61, 64
9, 124899, Note_on_c, 7, 62, 78
9, 124948, Note_off_c, 7, 62, 64
9, 124964, Note_on_c, 7, 64, 87
9, 125002, Note_off_c, 7, 64, 64
9, 125030, Note_on_c, 7, 57, 93
9, 125084, Note_off_c, 7, 57, 64
9, 125144, Note_on_c, 7, 73, 82
9, 125191, Note_off_c, 7, 73, 64
9, 125262, Note_on_c, 7, 74, 87
9, 125314, Note_off_c, 7, 74, 64
9, 125382, Note_on_c, 7, 71, 85
9, 125434, Note_off_c, 7, 71, 64
9, 125498, Note_on_c, 7, 69, 85
9, 125550, Note_off_c, 7, 69, 64
9, 125624, Note_on_c, 7, 69, 95
9, 125687, Note_off_c, 7, 69, 64
9, 138241, Note_on_c, 7, 69, 89
9, 138321, Note_off_c, 7, 69, 64
9, 138420, Note_on_c, 7, 64, 87
9, 138456, Note_off_c, 7, 64, 64
9, 138478, Note_on_c, 7, 61, 87
9, 138548, Note_off_c, 7, 61, 64
9, 138660, Note_on_c, 7, 57, 91
9, 138697, Note_off_c, 7, 57, 64
9, 138718, Note_on_c, 7, 69, 102
9, 138784, Note_off_c, 7, 69, 64
9, 138887, Note_on_c, 7, 66, 98
9, 138924, Note_off_c, 7, 66, 64
9, 138945, Note_on_c, 7, 62, 89
9, 139010, Note_off_c, 7, 62, 64
9, 139112, Note_on_c, 7, 69, 85
9, 139146, Note_off_c, 7, 69, 64
9, 139174, Note_on_c, 7, 69, 98
9, 139263, Note_off_c, 7, 69, 64
9, 139353, Note_on_c, 7, 67, 78
9, 139398, Note_off_c, 7, 67, 64
9, 139418, Note_on_c, 7, 69, 93
9, 139506, Note_off_c, 7, 69, 64
9, 139605, Note_on_c, 7, 71, 82
9, 139639, Note_off_c, 7, 71, 64
9, 139674, Note_on_c, 7, 69, 95
9, 139830, Note_off_c, 7, 69, 64
9, 139912, Note_on_c, 7, 69, 91
9, 140052, Note_off_c, 7, 69, 64
9, 140151, Note_on_c, 7, 69, 100
9, 140257, Note_off_c, 7, 69, 64
9, 157803, Note_on_c, 7, 69, 60
9, 157856, Note_off_c, 7, 69, 64
9, 157917, Note_on_c, 7, 69, 66
9, 157994, Note_off_c, 7, 69, 64
9, 158024, Note_on_c, 7, 71, 68
9, 158096, Note_off_c, 7, 71, 64
9, 158142, Note_on_c, 7, 71, 64
9, 158214, Note_off_c, 7, 71, 64
9, 158270, Note_on_c, 7, 69, 80
9, 158324, Note_off_c, 7, 69, 64
9, 158398, Note_on_c, 7, 69, 78
9, 158627, Note_off_c, 7, 69, 64
9, 158741, Note_on_c, 7, 71, 74
9, 158797, Note_off_c, 7, 71, 64
9, 158861, Note_on_c, 7, 73, 76
9, 158925, Note_off_c, 7, 73, 64
9, 158984, Note_on_c, 7, 69, 74
9, 159047, Note_off_c, 7, 69, 64
9, 159099, Note_on_c, 7, 78, 70
9, 159159, Note_off_c, 7, 78, 64
9, 159218, Note_on_c, 7, 76, 78
9, 159272, Note_off_c, 7, 76, 64
9, 159342, Note_on_c, 7, 76, 82
9, 159587, Note_off_c, 7, 76, 64
9, 159695, Note_on_c, 7, 76, 68
9, 159759, Note_off_c, 7, 76, 64
9, 159813, Note_on_c, 7, 76, 70
9, 159865, Note_off_c, 7, 76, 64
9, 159931, Note_on_c, 7, 76, 64
9, 159985, Note_off_c, 7, 76, 64
9, 160169, Note_on_c, 7, 76, 82
9, 160226, Note_off_c, 7, 76, 64
9, 160289, Note_on_c, 7, 73, 60
9, 160342, Note_off_c, 7, 73, 64
9, 160411, Note_on_c, 7, 73, 59
9, 160467, Note_off_c, 7, 73, 64
9, 160646, Note_on_c, 7, 73, 76
9, 160706, Note_off_c, 7, 73, 64
9, 160769, Note_on_c, 7, 73, 91
9, 160829, Note_off_c, 7, 73, 64
9, 160881, Note_on_c, 7, 70, 68
9, 160943, Note_off_c, 7, 70, 64
9, 161131, Note_on_c, 7, 70, 70
9, 161179, Note_off_c, 7, 70, 64
9, 161259, Note_on_c, 7, 71, 82
9, 161319, Note_off_c, 7, 71, 64
9, 161374, Note_on_c, 7, 66, 58
9, 161435, Note_off_c, 7, 66, 64
9, 161617, Note_on_c, 7, 71, 66
9, 161678, Note_off_c, 7, 71, 64
9, 161734, Note_on_c, 7, 72, 78
9, 161791, Note_off_c, 7, 72, 64
9, 161860, Note_on_c, 7, 72, 58
9, 161908, Note_off_c, 7, 72, 64
9, 162100, Note_on_c, 7, 72, 87
9, 162154, Note_off_c, 7, 72, 64
9, 162218, Note_on_c, 7, 66, 74
9, 162281, Note_off_c, 7, 66, 64
9, 162338, Note_on_c, 7, 69, 64
9, 162389, Note_off_c, 7, 69, 64
9, 162578, Note_on_c, 7, 69, 93
9, 162632, Note_off_c, 7, 69, 64
9, 162702, Note_on_c, 7, 63, 82
9, 162760, Note_off_c, 7, 63, 64
9, 162817, Note_on_c, 7, 71, 80
9, 162872, Note_off_c, 7, 71, 64
9, 163053, Note_on_c, 7, 75, 72
9, 163097, Note_off_c, 7, 75, 64
9, 163181, Note_on_c, 7, 76, 78
9, 163423, Note_off_c, 7, 76, 64
9, 165227, Note_on_c, 7, 66, 68
9, 165273, Note_on_c, 7, 68, 80
9, 165284, Note_off_c, 7, 66, 64
9, 165329, Note_off_c, 7, 68, 64
9, 165340, Note_on_c, 7, 70, 78
9, 165393, Note_off_c, 7, 70, 64
9, 165471, Note_on_c, 7, 70, 53
9, 165512, Note_on_c, 7, 71, 60
9, 165527, Note_off_c, 7, 70, 64
9, 165571, Note_off_c, 7, 71, 64
9, 165582, Note_on_c, 7, 73, 82
9, 165644, Note_off_c, 7, 73, 64
9, 165703, Note_on_c, 7, 70, 56
9, 165758, Note_off_c, 7, 70, 64
9, 165759, Note_on_c, 7, 71, 68
9, 165816, Note_off_c, 7, 71, 64
9, 165824, Note_on_c, 7, 73, 80
9, 165884, Note_off_c, 7, 73, 64
9, 165951, Note_on_c, 7, 73, 59
9, 166000, Note_on_c, 7, 74, 72
9, 166009, Note_off_c, 7, 73, 64
9, 166051, Note_off_c, 7, 74, 64
9, 166065, Note_on_c, 7, 76, 95
9, 166117, Note_off_c, 7, 76, 64
9, 166193, Note_on_c, 7, 76, 76
9, 166240, Note_on_c, 7, 74, 60
9, 166246, Note_off_c, 7, 76, 64
9, 166291, Note_off_c, 7, 74, 64
9, 166305, Note_on_c, 7, 76, 87
9, 166372, Note_off_c, 7, 76, 64
9, 166427, Note_on_c, 7, 78, 60
9, 166473, Note_on_c, 7, 76, 78
9, 166482, Note_off_c, 7, 78, 64
9, 166506, Note_off_c, 7, 76, 64
9, 166543, Note_on_c, 7, 75, 87
9, 166721, Note_off_c, 7, 75, 64
9, 166792, Note_on_c, 7, 71, 60
9, 167026, Note_off_c, 7, 71, 64
9, 167270, Note_on_c, 7, 75, 63
9, 167518, Note_off_c, 7, 75, 64
9, 167744, Note_on_c, 7, 78, 60
9, 167935, Note_off_c, 7, 78, 64
9, 168101, Note_on_c, 7, 64, 68
9, 168146, Note_on_c, 7, 66, 62
9, 168157, Note_off_c, 7, 64, 64
9, 168212, Note_off_c, 7, 66, 64
9, 168212, Note_on_c, 7, 68, 82
9, 168269, Note_off_c, 7, 68, 64
9, 168341, Note_on_c, 7, 68, 57
9, 168383, Note_on_c, 7, 69, 68
9, 168392, Note_off_c, 7, 68, 64
9, 168434, Note_off_c, 7, 69, 64
9, 168455, Note_on_c, 7, 71, 80
9, 168525, Note_off_c, 7, 71, 64
9, 168584, Note_on_c, 7, 68, 62
9, 168632, Note_off_c, 7, 68, 64
9, 168639, Note_on_c, 7, 69, 70
9, 168695, Note_off_c, 7, 69, 64
9, 168699, Note_on_c, 7, 71, 82
9, 168754, Note_off_c, 7, 71, 64
9, 168827, Note_on_c, 7, 71, 80
9, 168881, Note_on_c, 7, 73, 80
9, 168894, Note_off_c, 7, 71, 64
9, 168927, Note_off_c, 7, 73, 64
9, 168943, Note_on_c, 7, 74, 87
9, 169006, Note_off_c, 7, 74, 64
9, 169070, Note_on_c, 7, 74, 78
9, 169121, Note_on_c, 7, 73, 80
9, 169126, Note_off_c, 7, 74, 64
9, 169165, Note_off_c, 7, 73, 64
9, 169184, Note_on_c, 7, 74, 87
9, 169247, Note_off_c, 7, 74, 64
9, 169314, Note_on_c, 7, 76, 78
9, 169367, Note_on_c, 7, 74, 85
9, 169379, Note_off_c, 7, 76, 64
9, 169401, Note_off_c, 7, 74, 64
9, 169426, Note_on_c, 7, 73, 62
9, 169627, Note_off_c, 7, 73, 64
9, 169686, Note_on_c, 7, 69, 66
9, 169929, Note_off_c, 7, 69, 64
9, 170143, Note_on_c, 7, 73, 55
9, 170400, Note_off_c, 7, 73, 64
9, 170629, Note_on_c, 7, 76, 74
9, 170779, Note_off_c, 7, 76, 64
9, 170856, Note_on_c, 7, 74, 66
9, 171093, Note_off_c, 7, 74, 64
9, 185635, Note_on_c, 7, 66, 53
9, 185688, Note_off_c, 7, 66, 64
9, 185758, Note_on_c, 7, 66, 58
9, 185817, Note_off_c, 7, 66, 64
9, 185875, Note_on_c, 7, 67, 74
9, 185923, Note_off_c, 7, 67, 64
9, 185994, Note_on_c, 7, 67, 70
9, 186049, Note_off_c, 7, 67, 64
9, 186110, Note_on_c, 7, 66, 63
9, 186161, Note_off_c, 7, 66, 64
9, 186239, Note_on_c, 7, 66, 74
9, 186488, Note_off_c, 7, 66, 64
9, 186589, Note_on_c, 7, 73, 57
9, 186640, Note_off_c, 7, 73, 64
9, 186705, Note_on_c, 7, 73, 57
9, 186768, Note_off_c, 7, 73, 64
9, 186832, Note_on_c, 7, 74, 76
9, 186883, Note_off_c, 7, 74, 64
9, 186950, Note_on_c, 7, 74, 68
9, 187000, Note_off_c, 7, 74, 64
9, 187066, Note_on_c, 7, 73, 64
9, 187119, Note_off_c, 7, 73, 64
9, 187188, Note_on_c, 7, 73, 63
9, 187448, Note_off_c, 7, 73, 64
9, 187542, Note_on_c, 7, 73, 63
9, 187592, Note_off_c, 7, 73, 64
9, 187660, Note_on_c, 7, 69, 60
9, 187717, Note_off_c, 7, 69, 64
9, 187784, Note_on_c, 7, 69, 46
9, 187828, Note_off_c, 7, 69, 64
9, 188020, Note_on_c, 7, 69, 66
9, 188067, Note_off_c, 7, 69, 64
9, 188144, Note_on_c, 7, 63, 78
9, 188218, Note_off_c, 7, 63, 64
9, 188277, Note_on_c, 7, 69, 49
9, 188327, Note_off_c, 7, 69, 64
9, 188510, Note_on_c, 7, 71, 64
9, 188566, Note_off_c, 7, 71, 64
9, 188626, Note_on_c, 7, 71, 85
9, 188694, Note_off_c, 7, 71, 64
9, 188746, Note_on_c, 7, 71, 64
9, 188800, Note_off_c, 7, 71, 64
9, 188991, Note_on_c, 7, 71, 63
9, 189042, Note_off_c, 7, 71, 64
9, 189106, Note_on_c, 7, 71, 80
9, 189164, Note_off_c, 7, 71, 64
9, 189220, Note_on_c, 7, 76, 59
9, 189273, Note_off_c, 7, 76, 64
9, 189464, Note_on_c, 7, 76, 78
9, 189519, Note_off_c, 7, 76, 64
9, 189586, Note_on_c, 7, 71, 76
9, 189644, Note_off_c, 7, 71, 64
9, 189696, Note_on_c, 7, 71, 42
9, 189761, Note_off_c, 7, 71, 64
9, 189948, Note_on_c, 7, 71, 82
9, 190006, Note_off_c, 7, 71, 64
9, 190070, Note_on_c, 7, 73, 70
9, 190132, Note_off_c, 7, 73, 64
9, 190184, Note_on_c, 7, 76, 58
9, 190246, Note_off_c, 7, 76, 64
9, 190422, Note_on_c, 7, 76, 68
9, 190472, Note_off_c, 7, 76, 64
9, 190544, Note_on_c, 7, 73, 72
9, 190607, Note_off_c, 7, 73, 64
9, 190663, Note_on_c, 7, 73, 49
9, 190730, Note_off_c, 7, 73, 64
9, 190904, Note_on_c, 7, 73, 61
9, 190957, Note_off_c, 7, 73, 64
9, 191028, Note_on_c, 7, 74, 68
9, 191079, Note_off_c, 7, 74, 64
9, 191147, Note_on_c, 7, 78, 62
9, 191191, Note_off_c, 7, 78, 64
9, 191272, Note_on_c, 7, 78, 82
9, 191359, Note_off_c, 7, 78, 64
9, 191619, Note_on_c, 7, 76, 72
9, 191664, Note_off_c, 7, 76, 64
9, 191745, Note_on_c, 7, 76, 78
9, 191840, Note_off_c, 7, 76, 64
9, 192099, Note_on_c, 7, 74, 68
9, 192144, Note_off_c, 7, 74, 64
9, 192226, Note_on_c, 7, 74, 85
9, 192327, Note_off_c, 7, 74, 64
9, 192580, Note_on_c, 7, 76, 85
9, 192633, Note_off_c, 7, 76, 64
9, 192704, Note_on_c, 7, 69, 85
9, 192770, Note_off_c, 7, 69, 64
9, 192820, Note_on_c, 7, 78, 80
9, 192876, Note_off_c, 7, 78, 64
9, 192949, Note_on_c, 7, 73, 85
9, 193009, Note_off_c, 7, 73, 64
9, 193070, Note_on_c, 7, 76, 85
9, 193123, Note_off_c, 7, 76, 64
9, 193189, Note_on_c, 7, 69, 78
9, 193233, Note_off_c, 7, 69, 64
9, 193313, Note_on_c, 7, 69, 80
9, 193362, Note_off_c, 7, 69, 64
9, 193438, Note_on_c, 7, 69, 87
9, 193964, Note_off_c, 7, 69, 64
9, 194022, Note_on_c, 7, 78, 74
9, 194073, Note_off_c, 7, 78, 64
9, 194141, Note_on_c, 7, 71, 72
9, 194197, Note_off_c, 7, 71, 64
9, 194265, Note_on_c, 7, 80, 87
9, 194302, Note_off_c, 7, 80, 64
9, 194396, Note_on_c, 7, 81, 80
9, 194639, Note_off_c, 7, 81, 64
9, 194859, Note_on_c, 7, 69, 57
9, 195037, Note_off_c, 7, 69, 64
9, 195106, Note_on_c, 7, 78, 57
9, 195358, Note_off_c, 7, 78, 64
9, 195590, Note_on_c, 7, 75, 61
9, 195835, Note_off_c, 7, 75, 64
9, 196071, Note_on_c, 7, 71, 66
9, 196313, Note_off_c, 7, 71, 64
9, 196441, Note_on_c, 7, 64, 68
9, 196482, Note_on_c, 7, 66, 62
9, 196495, Note_off_c, 7, 64, 64
9, 196535, Note_off_c, 7, 66, 64
9, 196544, Note_on_c, 7, 68, 80
9, 196606, Note_off_c, 7, 68, 64
9, 196670, Note_on_c, 7, 68, 57
9, 196721, Note_off_c, 7, 68, 64
9, 196722, Note_on_c, 7, 69, 70
9, 196774, Note_off_c, 7, 69, 64
9, 196785, Note_on_c, 7, 71, 80
9, 196856, Note_off_c, 7, 71, 64
9, 196911, Note_on_c, 7, 68, 63
9, 196967, Note_off_c, 7, 68, 64
9, 196968, Note_on_c, 7, 69, 68
9, 197027, Note_off_c, 7, 69, 64
9, 197033, Note_on_c, 7, 71, 82
9, 197086, Note_off_c, 7, 71, 64
9, 197156, Note_on_c, 7, 71, 68
9, 197202, Note_on_c, 7, 73, 63
9, 197211, Note_off_c, 7, 71, 64
9, 197247, Note_off_c, 7, 73, 64
9, 197264, Note_on_c, 7, 74, 85
9, 197324, Note_off_c, 7, 74, 64
9, 197384, Note_on_c, 7, 74, 68
9, 197433, Note_on_c, 7, 73, 78
9, 197440, Note_off_c, 7, 74, 64
9, 197471, Note_off_c, 7, 73, 64
9, 197501, Note_on_c, 7, 74, 85
9, 197572, Note_off_c, 7, 74, 64
9, 197624, Note_on_c, 7, 73, 59
9, 197672, Note_on_c, 7, 71, 70
9, 197683, Note_off_c, 7, 73, 64
9, 197717, Note_off_c, 7, 71, 64
9, 197743, Note_on_c, 7, 73, 57
9, 197923, Note_off_c, 7, 73, 64
9, 197993, Note_on_c, 7, 76, 70
9, 198248, Note_off_c, 7, 76, 64
9, 198477, Note_on_c, 7, 73, 52
9, 198719, Note_off_c, 7, 73, 64
9, 198950, Note_on_c, 7, 69, 66
9, 199184, Note_off_c, 7, 69, 64
9, 199308, Note_on_c, 7, 62, 68
9, 199362, Note_on_c, 7, 64, 62
9, 199367, Note_off_c, 7, 62, 64
9, 199416, Note_off_c, 7, 64, 64
9, 199421, Note_on_c, 7, 66, 80
9, 199477, Note_off_c, 7, 66, 64
9, 199545, Note_on_c, 7, 66, 57
9, 199592, Note_on_c, 7, 67, 80
9, 199598, Note_off_c, 7, 66, 64
9, 199645, Note_off_c, 7, 67, 64
9, 199661, Note_on_c, 7, 69, 87
9, 199728, Note_off_c, 7, 69, 64
9, 199785, Note_on_c, 7, 66, 61
9, 199839, Note_off_c, 7, 66, 64
9, 199840, Note_on_c, 7, 67, 66
9, 199893, Note_off_c, 7, 67, 64
9, 199905, Note_on_c, 7, 69, 85
9, 199957, Note_off_c, 7, 69, 64
9, 200036, Note_on_c, 7, 69, 82
9, 200084, Note_on_c, 7, 71, 80
9, 200090, Note_off_c, 7, 69, 64
9, 200128, Note_off_c, 7, 71, 64
9, 200147, Note_on_c, 7, 72, 80
9, 200201, Note_off_c, 7, 72, 64
9, 200271, Note_on_c, 7, 72, 68
9, 200313, Note_on_c, 7, 71, 66
9, 200321, Note_off_c, 7, 72, 64
9, 200364, Note_off_c, 7, 71, 64
9, 200383, Note_on_c, 7, 72, 78
9, 200450, Note_off_c, 7, 72, 64
9, 200513, Note_on_c, 7, 71, 60
9, 200559, Note_on_c, 7, 69, 74
9, 200560, Note_off_c, 7, 71, 64
9, 200598, Note_off_c, 7, 69, 64
9, 200627, Note_on_c, 7, 71, 64
9, 200876, Note_off_c, 7, 71, 64
9, 219853, Note_on_c, 7, 69, 80
9, 219975, Note_off_c, 7, 69, 64
9, 220017, Note_on_c, 7, 62, 68
9, 220056, Note_off_c, 7, 62, 64
9, 220080, Note_on_c, 7, 62, 87
9, 220167, Note_off_c, 7, 62, 64
9, 220241, Note_on_c, 7, 66, 70
9, 220275, Note_off_c, 7, 66, 64
9, 220299, Note_on_c, 7, 66, 80
9, 220399, Note_off_c, 7, 66, 64
9, 220483, Note_on_c, 7, 69, 85
9, 220516, Note_off_c, 7, 69, 64
9, 220540, Note_on_c, 7, 69, 91
9, 220612, Note_off_c, 7, 69, 64
9, 220714, Note_on_c, 7, 66, 74
9, 220752, Note_off_c, 7, 66, 64
9, 220776, Note_on_c, 7, 62, 89
9, 220912, Note_off_c, 7, 62, 64
9, 220980, Note_on_c, 7, 66, 70
9, 221017, Note_off_c, 7, 66, 64
9, 221036, Note_on_c, 7, 66, 87
9, 221113, Note_off_c, 7, 66, 64
9, 221209, Note_on_c, 7, 69, 80
9, 221243, Note_off_c, 7, 69, 64
9, 221266, Note_on_c, 7, 69, 87
9, 221373, Note_off_c, 7, 69, 64
9, 221454, Note_on_c, 7, 72, 82
9, 221491, Note_off_c, 7, 72, 64
9, 221512, Note_on_c, 7, 72, 100
9, 221574, Note_off_c, 7, 72, 64
9, 221687, Note_on_c, 7, 69, 85
9, 221718, Note_off_c, 7, 69, 64
9, 221749, Note_on_c, 7, 66, 95
9, 222065, Note_off_c, 7, 66, 64
9, 222168, Note_on_c, 7, 66, 68
9, 222209, Note_off_c, 7, 66, 64
9, 222225, Note_on_c, 7, 67, 78
9, 222325, Note_off_c, 7, 67, 64
9, 222413, Note_on_c, 7, 69, 72
9, 222450, Note_off_c, 7, 69, 64
9, 222474, Note_on_c, 7, 67, 91
9, 222560, Note_off_c, 7, 67, 64
9, 222656, Note_on_c, 7, 66, 63
9, 222699, Note_off_c, 7, 66, 64
9, 222717, Note_on_c, 7, 67, 82
9, 222802, Note_off_c, 7, 67, 64
9, 222893, Note_on_c, 7, 71, 82
9, 222929, Note_off_c, 7, 71, 64
9, 222950, Note_on_c, 7, 71, 87
9, 223025, Note_off_c, 7, 71, 64
9, 223135, Note_on_c, 7, 67, 80
9, 223171, Note_off_c, 7, 67, 64
9, 223196, Note_on_c, 7, 62, 95
9, 223510, Note_off_c, 7, 62, 64
9, 223593, Note_on_c, 7, 64, 82
9, 223633, Note_off_c, 7, 64, 64
9, 223662, Note_on_c, 7, 57, 87
9, 223759, Note_off_c, 7, 57, 64
9, 223837, Note_on_c, 7, 62, 82
9, 223887, Note_off_c, 7, 62, 64
9, 223903, Note_on_c, 7, 66, 89
9, 223978, Note_off_c, 7, 66, 64
9, 224080, Note_on_c, 7, 67, 82
9, 224123, Note_off_c, 7, 67, 64
9, 224145, Note_on_c, 7, 69, 87
9, 224250, Note_off_c, 7, 69, 64
9, 224326, Note_on_c, 7, 72, 78
9, 224360, Note_off_c, 7, 72, 64
9, 224384, Note_on_c, 7, 72, 85
9, 224457, Note_off_c, 7, 72, 64
9, 224564, Note_on_c, 7, 71, 89
9, 224599, Note_off_c, 7, 71, 64
9, 224625, Note_on_c, 7, 71, 91
9, 224712, Note_off_c, 7, 71, 64
9, 224798, Note_on_c, 7, 66, 63
9, 224847, Note_off_c, 7, 66, 64
9, 224865, Note_on_c, 7, 63, 95
9, 224938, Note_off_c, 7, 63, 64
9, 225044, Note_on_c, 7, 69, 89
9, 225091, Note_off_c, 7, 69, 64
9, 225108, Note_on_c, 7, 59, 95
9, 225194, Note_off_c, 7, 59, 64
9, 225297, Note_on_c, 7, 75, 76
9, 225344, Note_off_c, 7, 75, 64
9, 225355, Note_on_c, 7, 76, 87
9, 225443, Note_off_c, 7, 76, 64
9, 225534, Note_on_c, 7, 78, 80
9, 225580, Note_off_c, 7, 78, 64
9, 225595, Note_on_c, 7, 76, 87
9, 225682, Note_off_c, 7, 76, 64
9, 225773, Note_on_c, 7, 75, 78
9, 225820, Note_off_c, 7, 75, 64
9, 225833, Note_on_c, 7, 76, 80
9, 225929, Note_off_c, 7, 76, 64
9, 226006, Note_on_c, 7, 78, 85
9, 226046, Note_off_c, 7, 78, 64
9, 226072, Note_on_c, 7, 76, 89
9, 226148, Note_on_c, 7, 75, 61
9, 226153, Note_off_c, 7, 76, 64
9, 226178, Note_off_c, 7, 75, 64
9, 226178, Note_on_c, 7, 76, 72
9, 226205, Note_on_c, 7, 75, 70
9, 226208, Note_off_c, 7, 76, 64
9, 226225, Note_off_c, 7, 75, 64
9, 226227, Note_on_c, 7, 76, 70
9, 226244, Note_on_c, 7, 75, 72
9, 226246, Note_off_c, 7, 76, 64
9, 226265, Note_on_c, 7, 76, 82
9, 226269, Note_off_c, 7, 75, 64
9, 226284, Note_on_c, 7, 75, 72
9, 226290, Note_off_c, 7, 76, 64
9, 226305, Note_on_c, 7, 76, 80
9, 226307, Note_off_c, 7, 75, 64
9, 226322, Note_on_c, 7, 75, 82
9, 226327, Note_off_c, 7, 76, 64
9, 226429, Note_off_c, 7, 75, 64
9, 226498, Note_on_c, 7, 76, 89
9, 226534, Note_off_c, 7, 76, 64
9, 226562, Note_on_c, 7, 76, 93
9, 226677, Note_off_c, 7, 76, 64
9, 226729, Note_on_c, 7, 64, 80
9, 226766, Note_off_c, 7, 64, 64
9, 226790, Note_on_c, 7, 64, 89
9, 226870, Note_off_c, 7, 64, 64
9, 226963, Note_on_c, 7, 68, 76
9, 227000, Note_off_c, 7, 68, 64
9, 227027, Note_on_c, 7, 71, 80
9, 227377, Note_off_c, 7, 71, 64
9, 227462, Note_on_c, 7, 71, 82
9, 227495, Note_off_c, 7, 71, 64
9, 227518, Note_on_c, 7, 69, 89
9, 227596, Note_off_c, 7, 69, 64
9, 227693, Note_on_c, 7, 61, 82
9, 227735, Note_off_c, 7, 61, 64
9, 227752, Note_on_c, 7, 64, 91
9, 227836, Note_off_c, 7, 64, 64
9, 227927, Note_on_c, 7, 69, 82
9, 227967, Note_off_c, 7, 69, 64
9, 227994, Note_on_c, 7, 74, 85
9, 228333, Note_off_c, 7, 74, 64
9, 228415, Note_on_c, 7, 69, 82
9, 228457, Note_off_c, 7, 69, 64
9, 228474, Note_on_c, 7, 66, 91
9, 228558, Note_off_c, 7, 66, 64
9, 228647, Note_on_c, 7, 74, 89
9, 228684, Note_off_c, 7, 74, 64
9, 228707, Note_on_c, 7, 74, 100
9, 228786, Note_off_c, 7, 74, 64
9, 228895, Note_on_c, 7, 73, 70
9, 228929, Note_off_c, 7, 73, 64
9, 228950, Note_on_c, 7, 71, 82
9, 229270, Note_off_c, 7, 71, 64
9, 229365, Note_on_c, 7, 71, 74
9, 229406, Note_off_c, 7, 71, 64
9, 229427, Note_on_c, 7, 69, 85
9, 229526, Note_off_c, 7, 69, 64
9, 229617, Note_on_c, 7, 73, 70
9, 229652, Note_off_c, 7, 73, 64
9, 229672, Note_on_c, 7, 73, 85
9, 229738, Note_off_c, 7, 73, 64
9, 229856, Note_on_c, 7, 76, 91
9, 229894, Note_off_c, 7, 76, 64
9, 229909, Note_on_c, 7, 76, 87
9, 230001, Note_off_c, 7, 76, 64
9, 230084, Note_on_c, 7, 74, 82
9, 230130, Note_off_c, 7, 74, 64
9, 230148, Note_on_c, 7, 76, 95
9, 230223, Note_off_c, 7, 76, 64
9, 230330, Note_on_c, 7, 73, 68
9, 230378, Note_off_c, 7, 73, 64
9, 230396, Note_on_c, 7, 74, 98
9, 230473, Note_off_c, 7, 74, 64
9, 230571, Note_on_c, 7, 69, 95
9, 230602, Note_off_c, 7, 69, 64
9, 230629, Note_on_c, 7, 69, 100
9, 230705, Note_off_c, 7, 69, 64
9, 230813, Note_on_c, 7, 66, 102
9, 230846, Note_off_c, 7, 66, 64
9, 230872, Note_on_c, 7, 66, 102
9, 230935, Note_off_c, 7, 66, 64
9, 231052, Note_on_c, 7, 62, 85
9, 231085, Note_off_c, 7, 62, 64
9, 231120, Note_on_c, 7, 62, 85
9, 231436, Note_off_c, 7, 62, 64
9, 231531, Note_on_c, 7, 66, 80
9, 231578, Note_off_c, 7, 66, 64
9, 231592, Note_on_c, 7, 67, 87
9, 231675, Note_off_c, 7, 67, 64
9, 231781, Note_on_c, 7, 69, 89
9, 231818, Note_off_c, 7, 69, 64
9, 231831, Note_on_c, 7, 71, 87
9, 231921, Note_off_c, 7, 71, 64
9, 232015, Note_on_c, 7, 73, 74
9, 232065, Note_off_c, 7, 73, 64
9, 232075, Note_on_c, 7, 74, 98
9, 232152, Note_off_c, 7, 74, 64
9, 232250, Note_on_c, 7, 76, 89
9, 232301, Note_off_c, 7, 76, 64
9, 232301, End_track
10, 0, Start_track
10, 0, Title_t, "Viola"
10, 0, Program_c, 8, 41
10, 0, Control_c, 8, 7, 100
10, 1384, Note_on_c, 8, 69, 93
10, 1416, Note_off_c, 8, 69, 64
10, 1432, Note_on_c, 8, 69, 100
10, 1498, Note_off_c, 8, 69, 64
10, 1627, Note_on_c, 8, 66, 82
10, 1659, Note_off_c, 8, 66, 64
10, 1677, Note_on_c, 8, 66, 91
10, 1748, Note_off_c, 8, 66, 64
10, 1851, Note_on_c, 8, 62, 95
10, 1886, Note_off_c, 8, 62, 64
10, 1909, Note_on_c, 8, 62, 102
10, 1986, Note_off_c, 8, 62, 64
10, 2113, Note_on_c, 8, 71, 91
10, 2143, Note_off_c, 8, 71, 64
10, 2157, Note_on_c, 8, 71, 93
10, 2228, Note_off_c, 8, 71, 64
10, 2340, Note_on_c, 8, 67, 85
10, 2371, Note_off_c, 8, 67, 64
10, 2389, Note_on_c, 8, 67, 98
10, 2456, Note_off_c, 8, 67, 64
10, 2578, Note_on_c, 8, 67, 82
10, 2614, Note_off_c, 8, 67, 64
10, 2630, Note_on_c, 8, 67, 95
10, 2696, Note_off_c, 8, 67, 64
10, 2805, Note_on_c, 8, 64, 82
10, 2845, Note_off_c, 8, 64, 64
10, 2859, Note_on_c, 8, 67, 91
10, 2930, Note_off_c, 8, 67, 64
10, 3044, Note_on_c, 8, 61, 87
10, 3078, Note_off_c, 8, 61, 64
10, 3098, Note_on_c, 8, 61, 93
10, 3175, Note_off_c, 8, 61, 64
10, 3295, Note_on_c, 8, 64, 87
10, 3333, Note_off_c, 8, 64, 64
10, 3346, Note_on_c, 8, 57, 100
10, 3421, Note_off_c, 8, 57, 64
10, 3531, Note_on_c, 8, 69, 91
10, 3562, Note_off_c, 8, 69, 64
10, 3583, Note_on_c, 8, 69, 95
10, 3657, Note_off_c, 8, 69, 64
10, 3773, Note_on_c, 8, 69, 89
10, 3800, Note_off_c, 8, 69, 64
10, 3828, Note_on_c, 8, 69, 100
10, 4424, Note_off_c, 8, 69, 64
10, 4483, Note_on_c, 8, 62, 87
10, 4518, Note_off_c, 8, 62, 64
10, 4541, Note_on_c, 8, 66, 87
10, 4624, Note_off_c, 8, 66, 64
10, 4720, Note_on_c, 8, 67, 78
10, 4761, Note_off_c, 8, 67, 64
10, 4785, Note_on_c, 8, 69, 87
10, 4871, Note_off_c, 8, 69, 64
10, 4982, Note_on_c, 8, 74, 91
10, 5017, Note_off_c, 8, 74, 64
10, 5034, Note_on_c, 8, 74, 95
10, 5100, Note_off_c, 8, 74, 64
10, 5204, Note_on_c, 8, 69, 85
10, 5239, Note_off_c, 8, 69, 64
10, 5272, Note_on_c, 8, 66, 85
10, 5330, Note_off_c, 8, 66, 64
10, 5462, Note_on_c, 8, 62, 85
10, 5499, Note_off_c, 8, 62, 64
10, 5515, Note_on_c, 8, 62, 91
10, 5580, Note_off_c, 8, 62, 64
10, 5692, Note_on_c, 8, 59, 82
10, 5729, Note_off_c, 8, 59, 64
10, 5746, Note_on_c, 8, 59, 91
10, 5825, Note_off_c, 8, 59, 64
10, 5930, Note_on_c, 8, 56, 82
10, 5962, Note_off_c, 8, 56, 64
10, 5984, Note_on_c, 8, 56, 85
10, 6060, Note_off_c, 8, 56, 64
10, 6166, Note_on_c, 8, 59, 63
10, 6201, Note_off_c, 8, 59, 64
10, 6223, Note_on_c, 8, 64, 85
10, 6389, Note_off_c, 8, 64, 64
10, 6463, Note_on_c, 8, 66, 72
10, 6628, Note_off_c, 8, 66, 64
10, 6708, Note_on_c, 8, 66, 85
10, 6823, Note_off_c, 8, 66, 64
10, 6893, Note_on_c, 8, 64, 82
10, 6933, Note_off_c, 8, 64, 64
10, 6949, Note_on_c, 8, 62, 93
10, 7050, Note_off_c, 8, 62, 64
10, 7136, Note_on_c, 8, 61, 74
10, 7175, Note_off_c, 8, 61, 64
10, 7184, Note_on_c, 8, 59, 91
10, 7332, Note_off_c, 8, 59, 64
10, 7425, Note_on_c, 8, 64, 80
10, 7624, Note_off_c, 8, 64, 64
10, 7670, Note_on_c, 8, 64, 82
10, 7785, Note_off_c, 8, 64, 64
10, 7864, Note_on_c, 8, 61, 95
10, 7903, Note_off_c, 8, 61, 64
10, 7918, Note_on_c, 8, 64, 98
10, 8006, Note_off_c, 8, 64, 64
10, 8096, Note_on_c, 8, 67, 76
10, 8142, Note_off_c, 8, 67, 64
10, 8150, Note_on_c, 8, 66, 85
10, 8246, Note_off_c, 8, 66, 64
10, 8335, Note_on_c, 8, 63, 63
10, 8382, Note_off_c, 8, 63, 64
10, 8393, Note_on_c, 8, 64, 87
10, 8478, Note_off_c, 8, 64, 64
10, 8577, Note_on_c, 8, 67, 80
10, 8617, Note_off_c, 8, 67, 64
10, 8640, Note_on_c, 8, 66, 87
10, 8778, Note_off_c, 8, 66, 64
10, 8884, Note_on_c, 8, 71, 87
10, 9204, Note_off_c, 8, 71, 64
10, 9287, Note_on_c, 8, 64, 82
10, 9318, Note_off_c, 8, 64, 64
10, 9338, Note_on_c, 8, 64, 87
10, 9450, Note_off_c, 8, 64, 64
10, 9529, Note_on_c, 8, 63, 63
10, 9567, Note_off_c, 8, 63, 64
10, 9584, Note_on_c, 8, 64, 89
10, 9689, Note_off_c, 8, 64, 64
10, 9770, Note_on_c, 8, 71, 82
10, 9809, Note_off_c, 8, 71, 64
10, 9824, Note_on_c, 8, 71, 85
10, 9919, Note_off_c, 8, 71, 64
10, 10013, Note_on_c, 8, 67, 74
10, 10044, Note_off_c, 8, 67, 64
10, 10064, Note_on_c, 8, 64, 82
10, 10400, Note_off_c, 8, 64, 64
10, 10484, Note_on_c, 8, 62, 82
10, 10528, Note_off_c, 8, 62, 64
10, 10542, Note_on_c, 8, 61, 85
10, 10890, Note_off_c, 8, 61, 64
10, 10975, Note_on_c, 8, 61, 85
10, 11016, Note_off_c, 8, 61, 64
10, 11032, Note_on_c, 8, 62, 91
10, 11142, Note_off_c, 8, 62, 64
10, 11210, Note_on_c, 8, 64, 82
10, 11246, Note_off_c, 8, 64, 64
10, 11269, Note_on_c, 8, 66, 82
10, 11626, Note_off_c, 8, 66, 64
10, 11691, Note_on_c, 8, 64, 80
10, 11734, Note_off_c, 8, 64, 64
10, 11748, Note_on_c, 8, 66, 85
10, 11857, Note_off_c, 8, 66, 64
10, 11931, Note_on_c, 8, 67, 82
10, 11969, Note_off_c, 8, 67, 64
10, 11988, Note_on_c, 8, 66, 89
10, 12183, Note_off_c, 8, 66, 64
10, 12236, Note_on_c, 8, 66, 91
10, 12426, Note_off_c, 8, 66, 64
10, 12486, Note_on_c, 8, 66, 87
10, 12960, Note_off_c, 8, 66, 64
10, 13155, Note_on_c, 8, 59, 78
10, 13185, Note_off_c, 8, 59, 64
10, 13203, Note_on_c, 8, 59, 85
10, 13279, Note_off_c, 8, 59, 64
10, 13378, Note_on_c, 8, 63, 68
10, 13416, Note_off_c, 8, 63, 64
10, 13435, Note_on_c, 8, 59, 91
10, 13517, Note_off_c, 8, 59, 64
10, 13627, Note_on_c, 8, 56, 87
10, 13671, Note_off_c, 8, 56, 64
10, 13682, Note_on_c, 8, 59, 100
10, 13769, Note_off_c, 8, 59, 64
10, 13860, Note_on_c, 8, 64, 82
10, 13894, Note_off_c, 8, 64, 64
10, 13914, Note_on_c, 8, 68, 93
10, 14262, Note_off_c, 8, 68, 64
10, 14341, Note_on_c, 8, 64, 85
10, 14376, Note_off_c, 8, 64, 64
10, 14396, Note_on_c, 8, 61, 85
10, 14486, Note_off_c, 8, 61, 64
10, 14573, Note_on_c, 8, 69, 85
10, 14606, Note_off_c, 8, 69, 64
10, 14627, Note_on_c, 8, 69, 87
10, 14711, Note_off_c, 8, 69, 64
10, 14808, Note_on_c, 8, 67, 85
10, 14848, Note_off_c, 8, 67, 64
10, 14864, Note_on_c, 8, 66, 87
10, 14955, Note_off_c, 8, 66, 64
10, 15038, Note_on_c, 8, 66, 80
10, 15075, Note_off_c, 8, 66, 64
10, 15096, Note_on_c, 8, 66, 82
10, 15169, Note_off_c, 8, 66, 64
10, 15285, Note_on_c, 8, 64, 82
10, 15315, Note_off_c, 8, 64, 64
10, 15339, Note_on_c, 8, 62, 85
10, 15931, Note_off_c, 8, 62, 64
10, 16013, Note_on_c, 8, 62, 82
10, 16044, Note_off_c, 8, 62, 64
10, 16065, Note_on_c, 8, 61, 72
10, 16149, Note_off_c, 8, 61, 64
10, 16247, Note_on_c, 8, 59, 82
10, 16289, Note_off_c, 8, 59, 64
10, 16311, Note_on_c, 8, 64, 89
10, 16408, Note_off_c, 8, 64, 64
10, 16487, Note_on_c, 8, 62, 74
10, 16531, Note_off_c, 8, 62, 64
10, 16546, Note_on_c, 8, 64, 87
10, 16638, Note_off_c, 8, 64, 64
10, 16733, Note_on_c, 8, 66, 80
10, 16770, Note_off_c, 8, 66, 64
10, 16789, Note_on_c, 8, 64, 85
10, 16974, Note_off_c, 8, 64, 64
10, 17034, Note_on_c, 8, 62, 85
10, 17200, Note_off_c, 8, 62, 64
10, 17273, Note_on_c, 8, 61, 85
10, 17803, Note_off_c, 8, 61, 64
10, 24424, Note_on_c, 8, 69, 93
10, 24456, Note_off_c, 8, 69, 64
10, 24472, Note_on_c, 8, 69, 100
10, 24538, Note_off_c, 8, 69, 64
10, 24667, Note_on_c, 8, 66, 82
10, 24699, Note_off_c, 8, 66, 64
10, 24717, Note_on_c, 8, 66, 91
10, 24788, Note_off_c, 8, 66, 64
10, 24891, Note_on_c, 8, 62, 95
10, 24926, Note_off_c, 8, 62, 64
10, 24949, Note_on_c, 8, 62, 102
10, 25026, Note_off_c, 8, 62, 64
10, 25153, Note_on_c, 8, 71, 91
10, 25183, Note_off_c, 8, 71, 64
10, 25197, Note_on_c, 8, 71, 93
10, 25268, Note_off_c, 8, 71, 64
10, 25380, Note_on_c, 8, 67, 85
10, 25411, Note_off_c, 8, 67, 64
10, 25429, Note_on_c, 8, 67, 98
10, 25496, Note_off_c, 8, 67, 64
10, 25618, Note_on_c, 8, 67, 82
10, 25654, Note_off_c, 8, 67, 64
10, 25670, Note_on_c, 8, 67, 95
10, 25736, Note_off_c, 8, 67, 64
10, 25845, Note_on_c, 8, 64, 82
10, 25885, Note_off_c, 8, 64, 64
10, 25899, Note_on_c, 8, 67, 91
10, 25970, Note_off_c, 8, 67, 64
10, 26084, Note_on_c, 8, 61, 87
10, 26118, Note_off_c, 8, 61, 64
10, 26138, Note_on_c, 8, 61, 93
10, 26215, Note_off_c, 8, 61, 64
10, 26335, Note_on_c, 8, 64, 87
10, 26373, Note_off_c, 8, 64, 64
10, 26386, Note_on_c, 8, 57, 100
10, 26461, Note_off_c, 8, 57, 64
10, 26571, Note_on_c, 8, 69, 91
10, 26602, Note_off_c, 8, 69, 64
10, 26623, Note_on_c, 8, 69, 95
10, 26697, Note_off_c, 8, 69, 64
10, 26813, Note_on_c, 8, 69, 89
10, 26840, Note_off_c, 8, 69, 64
10, 26868, Note_on_c, 8, 69, 100
10, 27464, Note_off_c, 8, 69, 64
10, 27523, Note_on_c, 8, 62, 87
10, 27558, Note_off_c, 8, 62, 64
10, 27581, Note_on_c, 8, 66, 87
10, 27664, Note_off_c, 8, 66, 64
10, 27760, Note_on_c, 8, 67, 78
10, 27801, Note_off_c, 8, 67, 64
10, 27825, Note_on_c, 8, 69, 87
10, 27911, Note_off_c, 8, 69, 64
10, 28022, Note_on_c, 8, 74, 91
10, 28057, Note_off_c, 8, 74, 64
10, 28074, Note_on_c, 8, 74, 95
10, 28140, Note_off_c, 8, 74, 64
10, 28244, Note_on_c, 8, 69, 85
10, 28279, Note_off_c, 8, 69, 64
10, 28312, Note_on_c, 8, 66, 85
10, 28370, Note_off_c, 8, 66, 64
10, 28502, Note_on_c, 8, 62, 85
10, 28539, Note_off_c, 8, 62, 64
10, 28555, Note_on_c, 8, 62, 91
10, 28620, Note_off_c, 8, 62, 64
10, 28732, Note_on_c, 8, 59, 82
10, 28769, Note_off_c, 8, 59, 64
10, 28786, Note_on_c, 8, 59, 91
10, 28865, Note_off_c, 8, 59, 64
10, 28970, Note_on_c, 8, 56, 82
10, 29002, Note_off_c, 8, 56, 64
10, 29024, Note_on_c, 8, 56, 85
10, 29100, Note_off_c, 8, 56, 64
10, 29206, Note_on_c, 8, 59, 63
10, 29241, Note_off_c, 8, 59, 64
10, 29263, Note_on_c, 8, 64, 85
10, 29429, Note_off_c, 8, 64, 64
10, 29503, Note_on_c, 8, 66, 72
10, 29668, Note_off_c, 8, 66, 64
10, 29748, Note_on_c, 8, 66, 85
10, 29863, Note_off_c, 8, 66, 64
10, 29933, Note_on_c, 8, 64, 82
10, 29973, Note_off_c, 8, 64, 64
10, 29989, Note_on_c, 8, 62, 93
10, 30090, Note_off_c, 8, 62, 64
10, 30176, Note_on_c, 8, 61, 74
10, 30215, Note_off_c, 8, 61, 64
10, 30224, Note_on_c, 8, 59, 91
10, 30372, Note_off_c, 8, 59, 64
10, 30465, Note_on_c, 8, 64, 80
10, 30664, Note_off_c, 8, 64, 64
10, 30710, Note_on_c, 8, 64, 82
10, 30825, Note_off_c, 8, 64, 64
10, 30904, Note_on_c, 8, 61, 95
10, 30943, Note_off_c, 8, 61, 64
10, 30958, Note_on_c, 8, 64, 98
10, 31046, Note_off_c, 8, 64, 64
10, 31136, Note_on_c, 8, 67, 76
10, 31182, Note_off_c, 8, 67, 64
10, 31190, Note_on_c, 8, 66, 85
10, 31286, Note_off_c, 8, 66, 64
10, 31375, Note_on_c, 8, 63, 63
10, 31422, Note_off_c, 8, 63, 64
10, 31433, Note_on_c, 8, 64, 87
10, 31518, Note_off_c, 8, 64, 64
10, 31617, Note_on_c, 8, 67, 80
10, 31657, Note_off_c, 8, 67, 64
10, 31680, Note_on_c, 8, 66, 87
10, 31818, Note_off_c, 8, 66, 64
10, 31924, Note_on_c, 8, 71, 87
10, 32244, Note_off_c, 8, 71, 64
10, 32327, Note_on_c, 8, 64, 82
10, 32358, Note_off_c, 8, 64, 64
10, 32378, Note_on_c, 8, 64, 87
10, 32490, Note_off_c, 8, 64, 64
10, 32569, Note_on_c, 8, 63, 63
10, 32607, Note_off_c, 8, 63, 64
10, 32624, Note_on_c, 8, 64, 89
10, 32729, Note_off_c, 8, 64, 64
10, 32810, Note_on_c, 8, 71, 82
10, 32849, Note_off_c, 8, 71, 64
10, 32864, Note_on_c, 8, 71, 85
10, 32959, Note_off_c, 8, 71, 64
10, 33053, Note_on_c, 8, 67, 74
10, 33084, Note_off_c, 8, 67, 64
10, 33104, Note_on_c, 8, 64, 82
10, 33440, Note_off_c, 8, 64, 64
10, 33524, Note_on_c, 8, 62, 82
10, 33568, Note_off_c, 8, 62, 64
10, 33582, Note_on_c, 8, 61, 85
10, 33930, Note_off_c, 8, 61, 64
10, 34015, Note_on_c, 8, 61, 85
10, 34056, Note_off_c, 8, 61, 64
10, 34072, Note_on_c, 8, 62, 91
10, 34182, Note_off_c, 8, 62, 64
10, 34250, Note_on_c, 8, 64, 82
10, 34286, Note_off_c, 8, 64, 64
10, 34309, Note_on_c, 8, 66, 82
10, 34666, Note_off_c, 8, 66, 64
10, 34731, Note_on_c, 8, 64, 80
10, 34774, Note_off_c, 8, 64, 64
10, 34788, Note_on_c, 8, 66, 85
10, 34897, Note_off_c, 8, 66, 64
10, 34971, Note_on_c, 8, 67, 82
10, 35009, Note_off_c, 8, 67, 64
10, 35028, Note_on_c, 8, 66, 89
10, 35223, Note_off_c, 8, 66, 64
10, 35276, Note_on_c, 8, 66, 91
10, 35466, Note_off_c, 8, 66, 64
10, 35526, Note_on_c, 8, 66, 87
10, 36000, Note_off_c, 8, 66, 64
10, 36195, Note_on_c, 8, 59, 78
10, 36225, Note_off_c, 8, 59, 64
10, 36243, Note_on_c, 8, 59, 85
10, 36319, Note_off_c, 8, 59, 64
10, 36418, Note_on_c, 8, 63, 68
10, 36456, Note_off_c, 8, 63, 64
10, 36475, Note_on_c, 8, 59, 91
10, 36557, Note_off_c, 8, 59, 64
10, 36667, Note_on_c, 8, 56, 87
10, 36711, Note_off_c, 8, 56, 64
10, 36722, Note_on_c, 8, 59, 100
10, 36809, Note_off_c, 8, 59, 64
10, 36900, Note_on_c, 8, 64, 82
10, 36934, Note_off_c, 8, 64, 64
10, 36954, Note_on_c, 8, 68, 93
10, 37302, Note_off_c, 8, 68, 64
10, 37381, Note_on_c, 8, 64, 85
10, 37416, Note_off_c, 8, 64, 64
10, 37436, Note_on_c, 8, 61, 85
10, 37526, Note_off_c, 8, 61, 64
10, 37613, Note_on_c, 8, 69, 85
10, 37646, Note_off_c, 8, 69, 64
10, 37667, Note_on_c, 8, 69, 87
10, 37751, Note_off_c, 8, 69, 64
10, 37848, Note_on_c, 8, 67, 85
10, 37888, Note_off_c, 8, 67, 64
10, 37904, Note_on_c, 8, 66, 87
10, 37995, Note_off_c, 8, 66, 64
10, 38078, Note_on_c, 8, 66, 80
10, 38115, Note_off_c, 8, 66, 64
10, 38136, Note_on_c, 8, 66, 82
10, 38209, Note_off_c, 8, 66, 64
10, 38325, Note_on_c, 8, 64, 82
10, 38355, Note_off_c, 8, 64, 64
10, 38379, Note_on_c, 8, 62, 85
10, 38971, Note_off_c, 8, 62, 64
10, 39053, Note_on_c, 8, 62, 82
10, 39084, Note_off_c, 8, 62, 64
10, 39105, Note_on_c, 8, 61, 72
10, 39189, Note_off_c, 8, 61, 64
10, 39287, Note_on_c, 8, 59, 82
10, 39329, Note_off_c, 8, 59, 64
10, 39351, Note_on_c, 8, 64, 89
10, 39448, Note_off_c, 8, 64, 64
10, 39527, Note_on_c, 8, 62, 74
10, 39571, Note_off_c, 8, 62, 64
10, 39586, Note_on_c, 8, 64, 87
10, 39678, Note_off_c, 8, 64, 64
10, 39773, Note_on_c, 8, 66, 80
10, 39810, Note_off_c, 8, 66, 64
10, 39829, Note_on_c, 8, 64, 85
10, 40014, Note_off_c, 8, 64, 64
10, 40074, Note_on_c, 8, 62, 85
10, 40240, Note_off_c, 8, 62, 64
10, 40313, Note_on_c, 8, 61, 85
10, 40843, Note_off_c, 8, 61, 64
10, 50039, Note_on_c, 8, 57, 85
10, 50085, Note_on_c, 8, 59, 66
10, 50088, Note_off_c, 8, 57, 64
10, 50135, Note_off_c, 8, 59, 64
10, 50145, Note_on_c, 8, 61, 87
10, 50212, Note_off_c, 8, 61, 64
10, 50271, Note_on_c, 8, 61, 68
10, 50314, Note_on_c, 8, 62, 74
10, 50326, Note_off_c, 8, 61, 64
10, 50362, Note_off_c, 8, 62, 64
10, 50380, Note_on_c, 8, 64, 91
10, 50454, Note_off_c, 8, 64, 64
10, 50513, Note_on_c, 8, 61, 76
10, 50560, Note_on_c, 8, 62, 72
10, 50565, Note_off_c, 8, 61, 64
10, 50606, Note_off_c, 8, 62, 64
10, 50621, Note_on_c, 8, 64, 87
10, 50682, Note_off_c, 8, 64, 64
10, 50757, Note_on_c, 8, 64, 85
10, 50802, Note_on_c, 8, 66, 80
10, 50812, Note_off_c, 8, 64, 64
10, 50851, Note_off_c, 8, 66, 64
10, 50864, Note_on_c, 8, 67, 91
10, 50924, Note_off_c, 8, 67, 64
10, 50990, Note_on_c, 8, 67, 82
10, 51033, Note_on_c, 8, 66, 66
10, 51047, Note_off_c, 8, 67, 64
10, 51086, Note_off_c, 8, 66, 64
10, 51100, Note_on_c, 8, 67, 85
10, 51161, Note_off_c, 8, 67, 64
10, 51224, Note_on_c, 8, 69, 78
10, 51274, Note_on_c, 8, 67, 85
10, 51292, Note_off_c, 8, 69, 64
10, 51329, Note_off_c, 8, 67, 64
10, 51340, Note_on_c, 8, 66, 82
10, 51388, Note_off_c, 8, 66, 64
10, 51467, Note_on_c, 8, 69, 87
10, 51510, Note_off_c, 8, 69, 64
10, 51590, Note_on_c, 8, 62, 82
10, 51633, Note_off_c, 8, 62, 64
10, 51708, Note_on_c, 8, 66, 89
10, 51879, Note_off_c, 8, 66, 64
10, 51948, Note_on_c, 8, 69, 85
10, 52004, Note_off_c, 8, 69, 64
10, 52072, Note_on_c, 8, 60, 82
10, 52120, Note_off_c, 8, 60, 64
10, 52199, Note_on_c, 8, 66, 85
10, 52358, Note_off_c, 8, 66, 64
10, 52426, Note_on_c, 8, 69, 82
10, 52468, Note_off_c, 8, 69, 64
10, 52549, Note_on_c, 8, 62, 76
10, 52607, Note_off_c, 8, 62, 64
10, 52667, Note_on_c, 8, 66, 80
10, 52717, Note_off_c, 8, 66, 64
10, 52787, Note_on_c, 8, 67, 80
10, 52840, Note_off_c, 8, 67, 64
10, 52843, Note_on_c, 8, 71, 80
10, 52894, Note_off_c, 8, 71, 64
10, 52905, Note_on_c, 8, 68, 82
10, 52951, Note_off_c, 8, 68, 64
10, 52968, Note_on_c, 8, 69, 74
10, 53021, Note_off_c, 8, 69, 64
10, 53033, Note_on_c, 8, 71, 82
10, 53089, Note_on_c, 8, 73, 66
10, 53093, Note_off_c, 8, 71, 64
10, 53131, Note_off_c, 8, 73, 64
10, 53145, Note_on_c, 8, 71, 80
10, 53200, Note_off_c, 8, 71, 64
10, 53203, Note_on_c, 8, 73, 80
10, 53247, Note_off_c, 8, 73, 64
10, 53264, Note_on_c, 8, 74, 89
10, 53316, Note_on_c, 8, 71, 70
10, 53318, Note_off_c, 8, 74, 64
10, 53357, Note_off_c, 8, 71, 64
10, 53372, Note_on_c, 8, 64, 74
10, 53433, Note_on_c, 8, 66, 80
10, 53435, Note_off_c, 8, 64, 64
10, 53483, Note_off_c, 8, 66, 64
10, 53498, Note_on_c, 8, 68, 80
10, 53550, Note_off_c, 8, 68, 64
10, 53550, Note_on_c, 8, 69, 74
10, 53600, Note_off_c, 8, 69, 64
10, 53613, Note_on_c, 8, 68, 82
10, 53662, Note_off_c, 8, 68, 64
10, 53675, Note_on_c, 8, 69, 70
10, 53723, Note_off_c, 8, 69, 64
10, 53742, Note_on_c, 8, 71, 100
10, 53799, Note_on_c, 8, 69, 78
10, 53806, Note_off_c, 8, 71, 64
10, 53848, Note_off_c, 8, 69, 64
10, 53858, Note_on_c, 8, 68, 70
10, 53912, Note_off_c, 8, 68, 64
10, 53917, Note_on_c, 8, 69, 72
10, 53968, Note_off_c, 8, 69, 64
10, 53984, Note_on_c, 8, 71, 91
10, 54038, Note_on_c, 8, 69, 76
10, 54048, Note_off_c, 8, 71, 64
10, 54092, Note_off_c, 8, 69, 64
10, 54100, Note_on_c, 8, 68, 76
10, 54160, Note_on_c, 8, 66, 70
10, 54162, Note_off_c, 8, 68, 64
10, 54211, Note_off_c, 8, 66, 64
10, 54231, Note_on_c, 8, 64, 70
10, 54476, Note_off_c, 8, 64, 64
10, 54573, Note_on_c, 8, 69, 61
10, 54674, Note_off_c, 8, 69, 64
10, 54695, Note_on_c, 8, 69, 68
10, 54800, Note_off_c, 8, 69, 64
10, 54824, Note_on_c, 8, 69, 70
10, 54915, Note_off_c, 8, 69, 64
10, 54941, Note_on_c, 8, 69, 66
10, 55041, Note_off_c, 8, 69, 64
10, 55062, Note_on_c, 8, 69, 68
10, 55152, Note_off_c, 8, 69, 64
10, 55178, Note_on_c, 8, 69, 76
10, 55267, Note_off_c, 8, 69, 64
10, 55297, Note_on_c, 8, 69, 85
10, 55379, Note_off_c, 8, 69, 64
10, 55411, Note_on_c, 8, 69, 74
10, 55494, Note_off_c, 8, 69, 64
10, 55532, Note_on_c, 8, 69, 82
10, 55616, Note_off_c, 8, 69, 64
10, 55658, Note_on_c, 8, 69, 91
10, 55742, Note_off_c, 8, 69, 64
10, 55786, Note_on_c, 8, 62, 76
10, 55842, Note_off_c, 8, 62, 64
10, 55842, Note_on_c, 8, 64, 80
10, 55890, Note_off_c, 8, 64, 64
10, 55904, Note_on_c, 8, 62, 91
10, 55956, Note_off_c, 8, 62, 64
10, 55959, Note_on_c, 8, 61, 72
10, 56002, Note_off_c, 8, 61, 64
10, 56022, Note_on_c, 8, 59, 63
10, 56071, Note_off_c, 8, 59, 64
10, 56078, Note_on_c, 8, 62, 72
10, 56120, Note_off_c, 8, 62, 64
10, 56145, Note_on_c, 8, 61, 89
10, 56203, Note_on_c, 8, 62, 72
10, 56212, Note_off_c, 8, 61, 64
10, 56253, Note_off_c, 8, 62, 64
10, 56263, Note_on_c, 8, 61, 82
10, 56314, Note_off_c, 8, 61, 64
10, 56319, Note_on_c, 8, 59, 72
10, 56377, Note_off_c, 8, 59, 64
10, 56383, Note_on_c, 8, 58, 76
10, 56438, Note_off_c, 8, 58, 64
10, 56504, Note_on_c, 8, 61, 80
10, 56554, Note_off_c, 8, 61, 64
10, 56629, Note_on_c, 8, 62, 82
10, 56686, Note_off_c, 8, 62, 64
10, 56744, Note_on_c, 8, 66, 85
10, 56793, Note_off_c, 8, 66, 64
10, 56877, Note_on_c, 8, 59, 89
10, 56921, Note_off_c, 8, 59, 64
10, 56991, Note_on_c, 8, 62, 89
10, 57178, Note_off_c, 8, 62, 64
10, 57226, Note_on_c, 8, 74, 80
10, 57309, Note_off_c, 8, 74, 64
10, 57341, Note_on_c, 8, 74, 78
10, 57447, Note_off_c, 8, 74, 64
10, 57468, Note_on_c, 8, 74, 76
10, 57565, Note_off_c, 8, 74, 64
10, 57591, Note_on_c, 8, 74, 85
10, 57676, Note_off_c, 8, 74, 64
10, 57705, Note_on_c, 8, 74, 85
10, 57784, Note_off_c, 8, 74, 64
10, 57819, Note_on_c, 8, 74, 78
10, 57907, Note_off_c, 8, 74, 64
10, 57941, Note_on_c, 8, 69, 68
10, 58037, Note_off_c, 8, 69, 64
10, 58067, Note_on_c, 8, 71, 80
10, 58180, Note_off_c, 8, 71, 64
10, 58196, Note_on_c, 8, 71, 80
10, 58304, Note_off_c, 8, 71, 64
10, 58322, Note_on_c, 8, 71, 70
10, 58414, Note_off_c, 8, 71, 64
10, 58429, Note_on_c, 8, 71, 66
10, 58522, Note_off_c, 8, 71, 64
10, 58547, Note_on_c, 8, 69, 72
10, 58630, Note_off_c, 8, 69, 64
10, 58657, Note_on_c, 8, 69, 70
10, 58756, Note_off_c, 8, 69, 64
10, 58777, Note_on_c, 8, 69, 70
10, 58862, Note_off_c, 8, 69, 64
10, 58895, Note_on_c, 8, 69, 66
10, 58995, Note_off_c, 8, 69, 64
10, 59017, Note_on_c, 8, 67, 70
10, 59116, Note_off_c, 8, 67, 64
10, 59137, Note_on_c, 8, 69, 74
10, 59230, Note_off_c, 8, 69, 64
10, 59255, Note_on_c, 8, 69, 70
10, 59338, Note_off_c, 8, 69, 64
10, 59369, Note_on_c, 8, 69, 60
10, 59475, Note_off_c, 8, 69, 64
10, 59498, Note_on_c, 8, 69, 74
10, 59601, Note_off_c, 8, 69, 64
10, 59623, Note_on_c, 8, 69, 66
10, 59711, Note_off_c, 8, 69, 64
10, 59737, Note_on_c, 8, 69, 66
10, 59829, Note_off_c, 8, 69, 64
10, 59862, Note_on_c, 8, 69, 64
10, 59948, Note_off_c, 8, 69, 64
10, 59970, Note_on_c, 8, 69, 70
10, 60080, Note_off_c, 8, 69, 64
10, 60095, Note_on_c, 8, 69, 57
10, 60187, Note_off_c, 8, 69, 64
10, 60214, Note_on_c, 8, 69, 61
10, 60312, Note_off_c, 8, 69, 64
10, 60342, Note_on_c, 8, 69, 68
10, 60431, Note_off_c, 8, 69, 64
10, 60456, Note_on_c, 8, 69, 76
10, 60554, Note_off_c, 8, 69, 64
10, 60577, Note_on_c, 8, 69, 72
10, 60666, Note_off_c, 8, 69, 64
10, 60700, Note_on_c, 8, 69, 80
10, 60790, Note_off_c, 8, 69, 64
10, 60823, Note_on_c, 8, 69, 72
10, 60907, Note_off_c, 8, 69, 64
10, 60933, Note_on_c, 8, 69, 82
10, 61010, Note_off_c, 8, 69, 64
10, 61055, Note_on_c, 8, 62, 78
10, 61136, Note_off_c, 8, 62, 64
10, 61182, Note_on_c, 8, 66, 78
10, 61242, Note_off_c, 8, 66, 64
10, 61307, Note_on_c, 8, 71, 85
10, 61371, Note_off_c, 8, 71, 64
10, 61424, Note_on_c, 8, 71, 85
10, 61527, Note_off_c, 8, 71, 64
10, 61551, Note_on_c, 8, 73, 82
10, 61596, Note_on_c, 8, 74, 70
10, 61597, Note_off_c, 8, 73, 64
10, 61640, Note_off_c, 8, 74, 64
10, 61659, Note_on_c, 8, 73, 89
10, 61727, Note_off_c, 8, 73, 64
10, 61780, Note_on_c, 8, 69, 82
10, 61849, Note_off_c, 8, 69, 64
10, 61900, Note_on_c, 8, 69, 82
10, 62004, Note_off_c, 8, 69, 64
10, 62023, Note_on_c, 8, 69, 74
10, 62099, Note_off_c, 8, 69, 64
10, 62144, Note_on_c, 8, 67, 66
10, 62215, Note_off_c, 8, 67, 64
10, 62266, Note_on_c, 8, 71, 78
10, 62330, Note_off_c, 8, 71, 64
10, 62396, Note_on_c, 8, 69, 85
10, 62492, Note_off_c, 8, 69, 64
10, 62512, Note_on_c, 8, 64, 76
10, 62594, Note_off_c, 8, 64, 64
10, 62636, Note_on_c, 8, 69, 85
10, 62707, Note_off_c, 8, 69, 64
10, 62754, Note_on_c, 8, 69, 85
10, 62825, Note_off_c, 8, 69, 64
10, 62875, Note_on_c, 8, 69, 91
10, 62927, Note_on_c, 8, 67, 80
10, 62941, Note_off_c, 8, 69, 64
10, 62989, Note_on_c, 8, 66, 82
10, 62993, Note_off_c, 8, 67, 64
10, 63046, Note_on_c, 8, 67, 76
10, 63056, Note_off_c, 8, 66, 64
10, 63100, Note_off_c, 8, 67, 64
10, 63111, Note_on_c, 8, 64, 80
10, 63165, Note_on_c, 8, 66, 80
10, 63176, Note_off_c, 8, 64, 64
10, 63214, Note_off_c, 8, 66, 64
10, 63224, Note_on_c, 8, 67, 85
10, 63271, Note_off_c, 8, 67, 64
10, 63280, Note_on_c, 8, 64, 85
10, 63325, Note_off_c, 8, 64, 64
10, 63355, Note_on_c, 8, 66, 91
10, 63595, Note_off_c, 8, 66, 64
10, 78824, Note_on_c, 8, 69, 63
10, 78926, Note_off_c, 8, 69, 64
10, 78943, Note_on_c, 8, 69, 66
10, 79046, Note_off_c, 8, 69, 64
10, 79067, Note_on_c, 8, 69, 70
10, 79160, Note_off_c, 8, 69, 64
10, 79184, Note_on_c, 8, 69, 72
10, 79283, Note_off_c, 8, 69, 64
10, 79304, Note_on_c, 8, 69, 70
10, 79403, Note_off_c, 8, 69, 64
10, 79426, Note_on_c, 8, 69, 80
10, 79523, Note_off_c, 8, 69, 64
10, 79545, Note_on_c, 8, 69, 78
10, 79642, Note_off_c, 8, 69, 64
10, 79663, Note_on_c, 8, 69, 85
10, 79755, Note_off_c, 8, 69, 64
10, 79781, Note_on_c, 8, 69, 72
10, 79878, Note_off_c, 8, 69, 64
10, 79903, Note_on_c, 8, 69, 78
10, 79998, Note_off_c, 8, 69, 64
10, 80024, Note_on_c, 8, 69, 78
10, 80112, Note_off_c, 8, 69, 64
10, 80145, Note_on_c, 8, 69, 78
10, 80244, Note_off_c, 8, 69, 64
10, 80264, Note_on_c, 8, 71, 85
10, 80371, Note_off_c, 8, 71, 64
10, 80391, Note_on_c, 8, 71, 70
10, 80491, Note_off_c, 8, 71, 64
10, 80512, Note_on_c, 8, 71, 68
10, 80603, Note_off_c, 8, 71, 64
10, 80630, Note_on_c, 8, 71, 80
10, 80728, Note_off_c, 8, 71, 64
10, 80748, Note_on_c, 8, 71, 70
10, 80849, Note_off_c, 8, 71, 64
10, 80875, Note_on_c, 8, 71, 82
10, 80957, Note_off_c, 8, 71, 64
10, 80985, Note_on_c, 8, 71, 68
10, 81082, Note_off_c, 8, 71, 64
10, 81105, Note_on_c, 8, 71, 78
10, 81211, Note_off_c, 8, 71, 64
10, 81233, Note_on_c, 8, 71, 66
10, 81331, Note_off_c, 8, 71, 64
10, 81357, Note_on_c, 8, 71, 78
10, 81441, Note_off_c, 8, 71, 64
10, 81469, Note_on_c, 8, 71, 74
10, 81540, Note_off_c, 8, 71, 64
10, 81593, Note_on_c, 8, 71, 85
10, 81646, Note_on_c, 8, 76, 78
10, 81652, Note_off_c, 8, 71, 64
10, 81681, Note_off_c, 8, 76, 64
10, 81707, Note_on_c, 8, 68, 63
10, 81762, Note_on_c, 8, 69, 76
10, 81771, Note_off_c, 8, 68, 64
10, 81811, Note_off_c, 8, 69, 64
10, 81825, Note_on_c, 8, 71, 82
10, 81880, Note_on_c, 8, 73, 72
10, 81894, Note_off_c, 8, 71, 64
10, 81930, Note_off_c, 8, 73, 64
10, 81943, Note_on_c, 8, 71, 80
10, 81999, Note_on_c, 8, 73, 70
10, 82007, Note_off_c, 8, 71, 64
10, 82046, Note_off_c, 8, 73, 64
10, 82064, Note_on_c, 8, 74, 89
10, 82116, Note_on_c, 8, 71, 66
10, 82124, Note_off_c, 8, 74, 64
10, 82162, Note_off_c, 8, 71, 64
10, 82177, Note_on_c, 8, 64, 68
10, 82237, Note_on_c, 8, 66, 78
10, 82250, Note_off_c, 8, 64, 64
10, 82290, Note_off_c, 8, 66, 64
10, 82302, Note_on_c, 8, 68, 70
10, 82357, Note_on_c, 8, 69, 70
10, 82362, Note_off_c, 8, 68, 64
10, 82406, Note_off_c, 8, 69, 64
10, 82416, Note_on_c, 8, 68, 80
10, 82472, Note_off_c, 8, 68, 64
10, 82476, Note_on_c, 8, 69, 74
10, 82519, Note_off_c, 8, 69, 64
10, 82536, Note_on_c, 8, 71, 102
10, 82590, Note_on_c, 8, 69, 85
10, 82601, Note_off_c, 8, 71, 64
10, 82646, Note_off_c, 8, 69, 64
10, 82647, Note_on_c, 8, 68, 59
10, 82706, Note_on_c, 8, 69, 72
10, 82710, Note_off_c, 8, 68, 64
10, 82753, Note_off_c, 8, 69, 64
10, 82775, Note_on_c, 8, 71, 100
10, 82830, Note_on_c, 8, 69, 74
10, 82844, Note_off_c, 8, 71, 64
10, 82886, Note_off_c, 8, 69, 64
10, 82890, Note_on_c, 8, 68, 87
10, 82949, Note_off_c, 8, 68, 64
10, 82951, Note_on_c, 8, 66, 80
10, 83008, Note_off_c, 8, 66, 64
10, 83017, Note_on_c, 8, 64, 85
10, 83072, Note_off_c, 8, 64, 64
10, 83142, Note_on_c, 8, 61, 85
10, 83187, Note_off_c, 8, 61, 64
10, 83265, Note_on_c, 8, 66, 89
10, 83535, Note_off_c, 8, 66, 64
10, 83632, Note_on_c, 8, 65, 85
10, 83686, Note_off_c, 8, 65, 64
10, 83687, Note_on_c, 8, 66, 82
10, 83734, Note_off_c, 8, 66, 64
10, 83749, Note_on_c, 8, 68, 82
10, 83806, Note_on_c, 8, 66, 87
10, 83816, Note_off_c, 8, 68, 64
10, 83853, Note_off_c, 8, 66, 64
10, 83862, Note_on_c, 8, 65, 78
10, 83917, Note_off_c, 8, 65, 64
10, 83917, Note_on_c, 8, 63, 62
10, 83973, Note_off_c, 8, 63, 64
10, 83978, Note_on_c, 8, 61, 74
10, 84046, Note_off_c, 8, 61, 64
10, 84105, Note_on_c, 8, 61, 87
10, 84152, Note_off_c, 8, 61, 64
10, 84226, Note_on_c, 8, 54, 80
10, 84269, Note_off_c, 8, 54, 64
10, 84351, Note_on_c, 8, 57, 87
10, 84519, Note_off_c, 8, 57, 64
10, 84588, Note_on_c, 8, 69, 57
10, 84685, Note_off_c, 8, 69, 64
10, 84709, Note_on_c, 8, 69, 87
10, 84802, Note_off_c, 8, 69, 64
10, 84827, Note_on_c, 8, 69, 85
10, 84925, Note_off_c, 8, 69, 64
10, 84945, Note_on_c, 8, 69, 85
10, 85040, Note_off_c, 8, 69, 64
10, 85063, Note_on_c, 8, 69, 82
10, 85160, Note_off_c, 8, 69, 64
10, 85190, Note_on_c, 8, 69, 85
10, 85289, Note_off_c, 8, 69, 64
10, 85311, Note_on_c, 8, 64, 80
10, 85399, Note_off_c, 8, 64, 64
10, 85434, Note_on_c, 8, 66, 87
10, 85534, Note_off_c, 8, 66, 64
10, 85553, Note_on_c, 8, 66, 68
10, 85654, Note_off_c, 8, 66, 64
10, 85677, Note_on_c, 8, 66, 63
10, 85766, Note_off_c, 8, 66, 64
10, 85788, Note_on_c, 8, 66, 76
10, 85873, Note_off_c, 8, 66, 64
10, 85909, Note_on_c, 8, 64, 80
10, 86003, Note_off_c, 8, 64, 64
10, 86020, Note_on_c, 8, 67, 78
10, 86114, Note_off_c, 8, 67, 64
10, 86149, Note_on_c, 8, 66, 80
10, 86211, Note_off_c, 8, 66, 64
10, 86267, Note_on_c, 8, 66, 74
10, 86338, Note_off_c, 8, 66, 64
10, 86387, Note_on_c, 8, 71, 89
10, 86467, Note_off_c, 8, 71, 64
10, 86509, Note_on_c, 8, 66, 64
10, 86571, Note_off_c, 8, 66, 64
10, 86631, Note_on_c, 8, 71, 87
10, 86694, Note_off_c, 8, 71, 64
10, 86753, Note_on_c, 8, 71, 82
10, 86816, Note_off_c, 8, 71, 64
10, 86870, Note_on_c, 8, 70, 89
10, 86926, Note_off_c, 8, 70, 64
10, 86994, Note_on_c, 8, 73, 91
10, 87039, Note_off_c, 8, 73, 64
10, 87115, Note_on_c, 8, 66, 82
10, 87158, Note_off_c, 8, 66, 64
10, 87234, Note_on_c, 8, 70, 100
10, 87396, Note_off_c, 8, 70, 64
10, 87470, Note_on_c, 8, 73, 87
10, 87515, Note_off_c, 8, 73, 64
10, 87594, Note_on_c, 8, 64, 87
10, 87644, Note_off_c, 8, 64, 64
10, 87716, Note_on_c, 8, 70, 98
10, 87891, Note_off_c, 8, 70, 64
10, 87948, Note_on_c, 8, 73, 85
10, 87994, Note_off_c, 8, 73, 64
10, 88067, Note_on_c, 8, 66, 80
10, 88124, Note_off_c, 8, 66, 64
10, 88188, Note_on_c, 8, 70, 76
10, 88259, Note_off_c, 8, 70, 64
10, 88309, Note_on_c, 8, 71, 87
10, 88369, Note_off_c, 8, 71, 64
10, 88429, Note_on_c, 8, 59, 78
10, 88480, Note_off_c, 8, 59, 64
10, 88547, Note_on_c, 8, 62, 82
10, 88605, Note_off_c, 8, 62, 64
10, 88665, Note_on_c, 8, 66, 80
10, 88716, Note_off_c, 8, 66, 64
10, 88783, Note_on_c, 8, 67, 78
10, 88849, Note_off_c, 8, 67, 64
10, 88901, Note_on_c, 8, 71, 80
10, 88970, Note_off_c, 8, 71, 64
10, 89019, Note_on_c, 8, 70, 70
10, 89080, Note_off_c, 8, 70, 64
10, 89143, Note_on_c, 8, 66, 76
10, 89200, Note_off_c, 8, 66, 64
10, 89264, Note_on_c, 8, 66, 85
10, 89322, Note_off_c, 8, 66, 64
10, 89383, Note_on_c, 8, 62, 78
10, 89437, Note_off_c, 8, 62, 64
10, 89498, Note_on_c, 8, 59, 82
10, 89554, Note_off_c, 8, 59, 64
10, 89615, Note_on_c, 8, 59, 82
10, 89670, Note_off_c, 8, 59, 64
10, 89744, Note_on_c, 8, 66, 82
10, 90003, Note_off_c, 8, 66, 64
10, 90100, Note_on_c, 8, 70, 80
10, 90155, Note_off_c, 8, 70, 64
10, 90219, Note_on_c, 8, 66, 85
10, 90283, Note_off_c, 8, 66, 64
10, 90339, Note_on_c, 8, 61, 70
10, 90394, Note_off_c, 8, 61, 64
10, 90458, Note_on_c, 8, 59, 80
10, 90516, Note_off_c, 8, 59, 64
10, 90584, Note_on_c, 8, 62, 85
10, 90643, Note_off_c, 8, 62, 64
10, 90710, Note_on_c, 8, 59, 82
10, 90779, Note_off_c, 8, 59, 64
10, 90836, Note_on_c, 8, 64, 89
10, 90888, Note_off_c, 8, 64, 64
10, 90958, Note_on_c, 8, 62, 87
10, 91010, Note_off_c, 8, 62, 64
10, 91074, Note_on_c, 8, 61, 85
10, 91133, Note_off_c, 8, 61, 64
10, 91202, Note_on_c, 8, 62, 87
10, 91453, Note_off_c, 8, 62, 64
10, 108591, Note_on_c, 8, 61, 82
10, 108645, Note_on_c, 8, 62, 85
10, 108648, Note_off_c, 8, 61, 64
10, 108704, Note_off_c, 8, 62, 64
10, 108710, Note_on_c, 8, 64, 85
10, 108763, Note_on_c, 8, 66, 74
10, 108777, Note_off_c, 8, 64, 64
10, 108818, Note_off_c, 8, 66, 64
10, 108824, Note_on_c, 8, 64, 74
10, 108878, Note_on_c, 8, 66, 64
10, 108885, Note_off_c, 8, 64, 64
10, 108924, Note_off_c, 8, 66, 64
10, 108944, Note_on_c, 8, 67, 91
10, 108995, Note_on_c, 8, 64, 68
10, 109006, Note_off_c, 8, 67, 64
10, 109047, Note_off_c, 8, 64, 64
10, 109061, Note_on_c, 8, 57, 56
10, 109122, Note_on_c, 8, 59, 70
10, 109129, Note_off_c, 8, 57, 64
10, 109178, Note_off_c, 8, 59, 64
10, 109186, Note_on_c, 8, 61, 76
10, 109241, Note_on_c, 8, 62, 68
10, 109248, Note_off_c, 8, 61, 64
10, 109285, Note_off_c, 8, 62, 64
10, 109304, Note_on_c, 8, 61, 72
10, 109357, Note_on_c, 8, 62, 68
10, 109360, Note_off_c, 8, 61, 64
10, 109404, Note_off_c, 8, 62, 64
10, 109423, Note_on_c, 8, 64, 102
10, 109477, Note_on_c, 8, 62, 82
10, 109491, Note_off_c, 8, 64, 64
10, 109528, Note_off_c, 8, 62, 64
10, 109536, Note_on_c, 8, 61, 64
10, 109593, Note_on_c, 8, 62, 80
10, 109602, Note_off_c, 8, 61, 64
10, 109644, Note_off_c, 8, 62, 64
10, 109659, Note_on_c, 8, 64, 87
10, 109717, Note_on_c, 8, 62, 70
10, 109729, Note_off_c, 8, 64, 64
10, 109772, Note_on_c, 8, 61, 63
10, 109787, Note_off_c, 8, 62, 64
10, 109829, Note_off_c, 8, 61, 64
10, 109830, Note_on_c, 8, 59, 64
10, 109878, Note_off_c, 8, 59, 64
10, 109889, Note_on_c, 8, 57, 60
10, 109941, Note_off_c, 8, 57, 64
10, 109960, Note_on_c, 8, 69, 80
10, 110015, Note_on_c, 8, 66, 66
10, 110023, Note_off_c, 8, 69, 64
10, 110078, Note_off_c, 8, 66, 64
10, 110080, Note_on_c, 8, 67, 74
10, 110140, Note_off_c, 8, 67, 64
10, 110143, Note_on_c, 8, 69, 82
10, 110204, Note_on_c, 8, 71, 82
10, 110217, Note_off_c, 8, 69, 64
10, 110243, Note_off_c, 8, 71, 64
10, 110257, Note_on_c, 8, 69, 76
10, 110312, Note_on_c, 8, 71, 66
10, 110319, Note_off_c, 8, 69, 64
10, 110350, Note_off_c, 8, 71, 64
10, 110380, Note_on_c, 8, 72, 78
10, 110440, Note_on_c, 8, 69, 80
10, 110456, Note_off_c, 8, 72, 64
10, 110480, Note_off_c, 8, 69, 64
10, 110496, Note_on_c, 8, 62, 54
10, 110558, Note_on_c, 8, 64, 70
10, 110565, Note_off_c, 8, 62, 64
10, 110618, Note_off_c, 8, 64, 64
10, 110619, Note_on_c, 8, 66, 78
10, 110668, Note_on_c, 8, 67, 68
10, 110677, Note_off_c, 8, 66, 64
10, 110721, Note_off_c, 8, 67, 64
10, 110733, Note_on_c, 8, 66, 63
10, 110789, Note_on_c, 8, 67, 74
10, 110795, Note_off_c, 8, 66, 64
10, 110839, Note_off_c, 8, 67, 64
10, 110855, Note_on_c, 8, 69, 98
10, 110912, Note_on_c, 8, 67, 78
10, 110927, Note_off_c, 8, 69, 64
10, 110962, Note_off_c, 8, 67, 64
10, 110974, Note_on_c, 8, 66, 74
10, 111030, Note_on_c, 8, 67, 80
10, 111045, Note_off_c, 8, 66, 64
10, 111080, Note_off_c, 8, 67, 64
10, 111101, Note_on_c, 8, 69, 91
10, 111160, Note_on_c, 8, 67, 76
10, 111173, Note_off_c, 8, 69, 64
10, 111222, Note_on_c, 8, 66, 70
10, 111235, Note_off_c, 8, 67, 64
10, 111278, Note_on_c, 8, 64, 74
10, 111288, Note_off_c, 8, 66, 64
10, 111323, Note_off_c, 8, 64, 64
10, 111342, Note_on_c, 8, 62, 74
10, 111385, Note_off_c, 8, 62, 64
10, 111393, Note_on_c, 8, 59, 59
10, 111450, Note_off_c, 8, 59, 64
10, 111460, Note_on_c, 8, 64, 80
10, 111519, Note_on_c, 8, 66, 72
10, 111521, Note_off_c, 8, 64, 64
10, 111582, Note_off_c, 8, 66, 64
10, 111582, Note_on_c, 8, 68, 64
10, 111641, Note_on_c, 8, 69, 80
10, 111657, Note_off_c, 8, 68, 64
10, 111683, Note_off_c, 8, 69, 64
10, 111697, Note_on_c, 8, 68, 63
10, 111752, Note_off_c, 8, 68, 64
10, 111757, Note_on_c, 8, 69, 76
10, 111797, Note_off_c, 8, 69, 64
10, 111819, Note_on_c, 8, 71, 100
10, 111874, Note_on_c, 8, 69, 78
10, 111885, Note_off_c, 8, 71, 64
10, 111926, Note_off_c, 8, 69, 64
10, 111940, Note_on_c, 8, 68, 80
10, 111995, Note_off_c, 8, 68, 64
10, 111995, Note_on_c, 8, 69, 76
10, 112041, Note_off_c, 8, 69, 64
10, 112061, Note_on_c, 8, 71, 91
10, 112116, Note_on_c, 8, 69, 72
10, 112132, Note_off_c, 8, 71, 64
10, 112176, Note_on_c, 8, 68, 87
10, 112179, Note_off_c, 8, 69, 64
10, 112230, Note_off_c, 8, 68, 64
10, 112233, Note_on_c, 8, 66, 76
10, 112294, Note_off_c, 8, 66, 64
10, 112305, Note_on_c, 8, 64, 85
10, 112372, Note_off_c, 8, 64, 64
10, 112432, Note_on_c, 8, 57, 68
10, 112486, Note_on_c, 8, 59, 78
10, 112489, Note_off_c, 8, 57, 64
10, 112538, Note_off_c, 8, 59, 64
10, 112546, Note_on_c, 8, 61, 89
10, 112610, Note_off_c, 8, 61, 64
10, 112667, Note_on_c, 8, 61, 80
10, 112717, Note_on_c, 8, 62, 80
10, 112724, Note_off_c, 8, 61, 64
10, 112763, Note_off_c, 8, 62, 64
10, 112780, Note_on_c, 8, 64, 87
10, 112855, Note_off_c, 8, 64, 64
10, 112900, Note_on_c, 8, 61, 72
10, 112950, Note_on_c, 8, 62, 70
10, 112956, Note_off_c, 8, 61, 64
10, 112997, Note_off_c, 8, 62, 64
10, 113014, Note_on_c, 8, 64, 87
10, 113076, Note_off_c, 8, 64, 64
10, 113144, Note_on_c, 8, 64, 80
10, 113192, Note_on_c, 8, 66, 78
10, 113198, Note_off_c, 8, 64, 64
10, 113238, Note_off_c, 8, 66, 64
10, 113252, Note_on_c, 8, 67, 87
10, 113324, Note_off_c, 8, 67, 64
10, 113375, Note_on_c, 8, 67, 76
10, 113416, Note_off_c, 8, 67, 64
10, 113423, Note_on_c, 8, 66, 66
10, 113461, Note_off_c, 8, 66, 64
10, 113484, Note_on_c, 8, 67, 89
10, 113568, Note_off_c, 8, 67, 64
10, 113606, Note_on_c, 8, 69, 80
10, 113647, Note_off_c, 8, 69, 64
10, 113660, Note_on_c, 8, 67, 80
10, 113704, Note_off_c, 8, 67, 64
10, 113723, Note_on_c, 8, 66, 85
10, 113770, Note_off_c, 8, 66, 64
10, 113855, Note_on_c, 8, 69, 82
10, 113893, Note_off_c, 8, 69, 64
10, 113978, Note_on_c, 8, 62, 87
10, 114028, Note_off_c, 8, 62, 64
10, 114094, Note_on_c, 8, 66, 82
10, 114268, Note_off_c, 8, 66, 64
10, 114339, Note_on_c, 8, 69, 89
10, 114390, Note_off_c, 8, 69, 64
10, 114459, Note_on_c, 8, 60, 80
10, 114521, Note_off_c, 8, 60, 64
10, 114591, Note_on_c, 8, 66, 85
10, 114750, Note_off_c, 8, 66, 64
10, 114829, Note_on_c, 8, 69, 85
10, 114875, Note_off_c, 8, 69, 64
10, 114953, Note_on_c, 8, 62, 78
10, 115014, Note_off_c, 8, 62, 64
10, 115067, Note_on_c, 8, 66, 80
10, 115117, Note_off_c, 8, 66, 64
10, 115189, Note_on_c, 8, 67, 85
10, 115239, Note_off_c, 8, 67, 64
10, 115240, Note_on_c, 8, 71, 82
10, 115287, Note_off_c, 8, 71, 64
10, 115301, Note_on_c, 8, 68, 80
10, 115354, Note_off_c, 8, 68, 64
10, 115354, Note_on_c, 8, 69, 63
10, 115400, Note_off_c, 8, 69, 64
10, 115422, Note_on_c, 8, 71, 82
10, 115474, Note_on_c, 8, 73, 78
10, 115491, Note_off_c, 8, 71, 64
10, 115522, Note_off_c, 8, 73, 64
10, 115535, Note_on_c, 8, 71, 76
10, 115592, Note_on_c, 8, 73, 82
10, 115618, Note_off_c, 8, 71, 64
10, 115644, Note_off_c, 8, 73, 64
10, 115663, Note_on_c, 8, 74, 91
10, 115720, Note_on_c, 8, 71, 63
10, 115735, Note_off_c, 8, 74, 64
10, 115772, Note_off_c, 8, 71, 64
10, 115780, Note_on_c, 8, 64, 72
10, 115839, Note_on_c, 8, 66, 63
10, 115850, Note_off_c, 8, 64, 64
10, 115891, Note_off_c, 8, 66, 64
10, 115897, Note_on_c, 8, 68, 76
10, 115954, Note_on_c, 8, 69, 78
10, 115958, Note_off_c, 8, 68, 64
10, 116000, Note_off_c, 8, 69, 64
10, 116017, Note_on_c, 8, 68, 78
10, 116074, Note_off_c, 8, 68, 64
10, 116076, Note_on_c, 8, 69, 68
10, 116134, Note_off_c, 8, 69, 64
10, 116144, Note_on_c, 8, 71, 87
10, 116203, Note_on_c, 8, 69, 80
10, 116211, Note_off_c, 8, 71, 64
10, 116254, Note_off_c, 8, 69, 64
10, 116261, Note_on_c, 8, 68, 63
10, 116316, Note_off_c, 8, 68, 64
10, 116319, Note_on_c, 8, 69, 68
10, 116369, Note_off_c, 8, 69, 64
10, 116386, Note_on_c, 8, 71, 95
10, 116440, Note_on_c, 8, 69, 78
10, 116451, Note_off_c, 8, 71, 64
10, 116498, Note_off_c, 8, 69, 64
10, 116498, Note_on_c, 8, 68, 57
10, 116552, Note_off_c, 8, 68, 64
10, 116554, Note_on_c, 8, 66, 66
10, 116600, Note_off_c, 8, 66, 64
10, 116621, Note_on_c, 8, 64, 66
10, 116710, Note_off_c, 8, 64, 64
10, 116742, Note_on_c, 8, 69, 62
10, 116847, Note_off_c, 8, 69, 64
10, 116864, Note_on_c, 8, 69, 70
10, 116960, Note_off_c, 8, 69, 64
10, 116981, Note_on_c, 8, 69, 66
10, 117062, Note_off_c, 8, 69, 64
10, 117092, Note_on_c, 8, 69, 82
10, 117198, Note_off_c, 8, 69, 64
10, 117214, Note_on_c, 8, 69, 72
10, 117303, Note_off_c, 8, 69, 64
10, 117325, Note_on_c, 8, 69, 80
10, 117422, Note_off_c, 8, 69, 64
10, 117440, Note_on_c, 8, 69, 68
10, 117529, Note_off_c, 8, 69, 64
10, 117557, Note_on_c, 8, 69, 78
10, 117652, Note_off_c, 8, 69, 64
10, 117685, Note_on_c, 8, 69, 85
10, 117766, Note_off_c, 8, 69, 64
10, 117816, Note_on_c, 8, 69, 89
10, 117907, Note_off_c, 8, 69, 64
10, 117938, Note_on_c, 8, 69, 85
10, 118016, Note_off_c, 8, 69, 64
10, 118054, Note_on_c, 8, 69, 95
10, 118136, Note_off_c, 8, 69, 64
10, 118176, Note_on_c, 8, 62, 82
10, 118231, Note_on_c, 8, 64, 87
10, 118235, Note_off_c, 8, 62, 64
10, 118297, Note_off_c, 8, 64, 64
10, 118299, Note_on_c, 8, 62, 87
10, 118349, Note_off_c, 8, 62, 64
10, 118363, Note_on_c, 8, 61, 68
10, 118408, Note_off_c, 8, 61, 64
10, 118408, Note_on_c, 8, 59, 60
10, 118474, Note_on_c, 8, 62, 68
10, 118479, Note_off_c, 8, 59, 64
10, 118514, Note_off_c, 8, 62, 64
10, 118540, Note_on_c, 8, 61, 100
10, 118596, Note_on_c, 8, 62, 78
10, 118597, Note_off_c, 8, 61, 64
10, 118653, Note_off_c, 8, 62, 64
10, 118656, Note_on_c, 8, 61, 80
10, 118699, Note_off_c, 8, 61, 64
10, 118713, Note_on_c, 8, 59, 70
10, 118764, Note_off_c, 8, 59, 64
10, 118781, Note_on_c, 8, 58, 76
10, 118843, Note_off_c, 8, 58, 64
10, 118904, Note_on_c, 8, 61, 80
10, 118945, Note_off_c, 8, 61, 64
10, 119031, Note_on_c, 8, 62, 87
10, 119086, Note_off_c, 8, 62, 64
10, 119148, Note_on_c, 8, 66, 85
10, 119197, Note_off_c, 8, 66, 64
10, 119273, Note_on_c, 8, 59, 82
10, 119309, Note_off_c, 8, 59, 64
10, 119397, Note_on_c, 8, 62, 78
10, 119400, Note_on_c, 8, 64, 64
10, 119409, Note_off_c, 8, 64, 64
10, 119589, Note_off_c, 8, 62, 64
10, 119632, Note_on_c, 8, 74, 76
10, 119701, Note_off_c, 8, 74, 64
10, 119748, Note_on_c, 8, 74, 68
10, 119842, Note_off_c, 8, 74, 64
10, 119866, Note_on_c, 8, 74, 80
10, 119960, Note_off_c, 8, 74, 64
10, 119985, Note_on_c, 8, 74, 82
10, 120073, Note_off_c, 8, 74, 64
10, 120095, Note_on_c, 8, 74, 76
10, 120194, Note_off_c, 8, 74, 64
10, 120216, Note_on_c, 8, 74, 82
10, 120303, Note_off_c, 8, 74, 64
10, 120335, Note_on_c, 8, 69, 74
10, 120416, Note_off_c, 8, 69, 64
10, 120453, Note_on_c, 8, 71, 76
10, 120559, Note_off_c, 8, 71, 64
10, 120579, Note_on_c, 8, 71, 64
10, 120680, Note_off_c, 8, 71, 64
10, 120698, Note_on_c, 8, 71, 68
10, 120797, Note_off_c, 8, 71, 64
10, 120814, Note_on_c, 8, 71, 57
10, 120910, Note_off_c, 8, 71, 64
10, 120937, Note_on_c, 8, 69, 74
10, 121033, Note_off_c, 8, 69, 64
10, 121053, Note_on_c, 8, 69, 64
10, 121146, Note_off_c, 8, 69, 64
10, 121174, Note_on_c, 8, 69, 63
10, 121263, Note_off_c, 8, 69, 64
10, 121290, Note_on_c, 8, 69, 62
10, 121399, Note_off_c, 8, 69, 64
10, 121420, Note_on_c, 8, 67, 66
10, 121525, Note_off_c, 8, 67, 64
10, 121541, Note_on_c, 8, 69, 68
10, 121630, Note_off_c, 8, 69, 64
10, 121655, Note_on_c, 8, 69, 64
10, 121748, Note_off_c, 8, 69, 64
10, 121777, Note_on_c, 8, 69, 57
10, 121861, Note_off_c, 8, 69, 64
10, 121892, Note_on_c, 8, 69, 68
10, 121995, Note_off_c, 8, 69, 64
10, 122018, Note_on_c, 8, 69, 64
10, 122120, Note_off_c, 8, 69, 64
10, 122141, Note_on_c, 8, 69, 60
10, 122231, Note_off_c, 8, 69, 64
10, 122261, Note_on_c, 8, 69, 63
10, 122343, Note_off_c, 8, 69, 64
10, 122371, Note_on_c, 8, 69, 60
10, 122469, Note_off_c, 8, 69, 64
10, 122495, Note_on_c, 8, 69, 58
10, 122594, Note_off_c, 8, 69, 64
10, 122620, Note_on_c, 8, 69, 63
10, 122711, Note_off_c, 8, 69, 64
10, 122738, Note_on_c, 8, 69, 59
10, 122829, Note_off_c, 8, 69, 64
10, 122859, Note_on_c, 8, 69, 66
10, 122960, Note_off_c, 8, 69, 64
10, 122981, Note_on_c, 8, 69, 62
10, 123085, Note_off_c, 8, 69, 64
10, 123112, Note_on_c, 8, 69, 60
10, 123203, Note_off_c, 8, 69, 64
10, 123224, Note_on_c, 8, 69, 66
10, 123313, Note_off_c, 8, 69, 64
10, 123343, Note_on_c, 8, 69, 78
10, 123424, Note_off_c, 8, 69, 64
10, 123466, Note_on_c, 8, 62, 72
10, 123540, Note_off_c, 8, 62, 64
10, 123584, Note_on_c, 8, 66, 68
10, 123636, Note_off_c, 8, 66, 64
10, 123706, Note_on_c, 8, 71, 80
10, 123756, Note_off_c, 8, 71, 64
10, 123825, Note_on_c, 8, 71, 89
10, 123933, Note_off_c, 8, 71, 64
10, 123949, Note_on_c, 8, 73, 80
10, 123997, Note_off_c, 8, 73, 64
10, 123998, Note_on_c, 8, 74, 80
10, 124040, Note_off_c, 8, 74, 64
10, 124058, Note_on_c, 8, 73, 91
10, 124122, Note_off_c, 8, 73, 64
10, 124176, Note_on_c, 8, 69, 74
10, 124235, Note_off_c, 8, 69, 64
10, 124295, Note_on_c, 8, 69, 82
10, 124372, Note_off_c, 8, 69, 64
10, 124417, Note_on_c, 8, 69, 78
10, 124490, Note_off_c, 8, 69, 64
10, 124536, Note_on_c, 8, 67, 64
10, 124606, Note_off_c, 8, 67, 64
10, 124658, Note_on_c, 8, 71, 70
10, 124730, Note_off_c, 8, 71, 64
10, 124780, Note_on_c, 8, 69, 80
10, 124845, Note_off_c, 8, 69, 64
10, 124902, Note_on_c, 8, 64, 80
10, 124969, Note_off_c, 8, 64, 64
10, 125027, Note_on_c, 8, 69, 80
10, 125094, Note_off_c, 8, 69, 64
10, 125143, Note_on_c, 8, 69, 78
10, 125213, Note_off_c, 8, 69, 64
10, 125264, Note_on_c, 8, 69, 87
10, 125313, Note_off_c, 8, 69, 64
10, 125320, Note_on_c, 8, 67, 82
10, 125372, Note_off_c, 8, 67, 64
10, 125377, Note_on_c, 8, 66, 78
10, 125428, Note_off_c, 8, 66, 64
10, 125434, Note_on_c, 8, 67, 82
10, 125484, Note_off_c, 8, 67, 64
10, 125496, Note_on_c, 8, 64, 82
10, 125565, Note_off_c, 8, 64, 64
10, 125626, Note_on_c, 8, 64, 76
10, 125690, Note_off_c, 8, 64, 64
10, 138241, Note_on_c, 8, 64, 91
10, 138322, Note_off_c, 8, 64, 64
10, 138425, Note_on_c, 8, 69, 89
10, 138464, Note_off_c, 8, 69, 64
10, 138485, Note_on_c, 8, 69, 89
10, 138550, Note_off_c, 8, 69, 64
10, 138650, Note_on_c, 8, 64, 80
10, 138690, Note_off_c, 8, 64, 64
10, 138717, Note_on_c, 8, 64, 87
10, 138788, Note_off_c, 8, 64, 64
10, 138880, Note_on_c, 8, 61, 85
10, 138919, Note_off_c, 8, 61, 64
10, 138945, Note_on_c, 8, 62, 85
10, 139016, Note_off_c, 8, 62, 64
10, 139114, Note_on_c, 8, 64, 89
10, 139155, Note_off_c, 8, 64, 64
10, 139185, Note_on_c, 8, 57, 95
10, 139250, Note_off_c, 8, 57, 64
10, 139351, Note_on_c, 8, 64, 85
10, 139391, Note_off_c, 8, 64, 64
10, 139417, Note_on_c, 8, 62, 100
10, 139491, Note_off_c, 8, 62, 64
10, 139591, Note_on_c, 8, 67, 91
10, 139629, Note_off_c, 8, 67, 64
10, 139661, Note_on_c, 8, 66, 98
10, 139730, Note_on_c, 8, 64, 76
10, 139735, Note_off_c, 8, 66, 64
10, 139759, Note_off_c, 8, 64, 64
10, 139759, Note_on_c, 8, 66, 82
10, 139784, Note_on_c, 8, 64, 74
10, 139785, Note_off_c, 8, 66, 64
10, 139806, Note_off_c, 8, 64, 64
10, 139808, Note_on_c, 8, 66, 76
10, 139825, Note_on_c, 8, 64, 68
10, 139828, Note_off_c, 8, 66, 64
10, 139846, Note_on_c, 8, 66, 80
10, 139852, Note_off_c, 8, 64, 64
10, 139864, Note_on_c, 8, 64, 80
10, 139867, Note_off_c, 8, 66, 64
10, 139884, Note_on_c, 8, 66, 82
10, 139886, Note_off_c, 8, 64, 64
10, 139902, Note_on_c, 8, 64, 89
10, 139907, Note_off_c, 8, 66, 64
10, 140005, Note_off_c, 8, 64, 64
10, 140070, Note_on_c, 8, 66, 89
10, 140102, Note_off_c, 8, 66, 64
10, 140153, Note_on_c, 8, 66, 100
10, 140241, Note_off_c, 8, 66, 64
10, 157797, Note_on_c, 8, 64, 68
10, 157853, Note_off_c, 8, 64, 64
10, 157922, Note_on_c, 8, 62, 66
10, 157976, Note_off_c, 8, 62, 64
10, 158037, Note_on_c, 8, 66, 68
10, 158091, Note_off_c, 8, 66, 64
10, 158156, Note_on_c, 8, 67, 68
10, 158212, Note_off_c, 8, 67, 64
10, 158277, Note_on_c, 8, 67, 80
10, 158326, Note_off_c, 8, 67, 64
10, 158396, Note_on_c, 8, 66, 68
10, 158646, Note_off_c, 8, 66, 64
10, 158746, Note_on_c, 8, 64, 66
10, 158799, Note_off_c, 8, 64, 64
10, 158866, Note_on_c, 8, 64, 72
10, 158925, Note_off_c, 8, 64, 64
10, 158988, Note_on_c, 8, 66, 66
10, 159031, Note_off_c, 8, 66, 64
10, 159107, Note_on_c, 8, 66, 68
10, 159158, Note_off_c, 8, 66, 64
10, 159218, Note_on_c, 8, 71, 68
10, 159266, Note_off_c, 8, 71, 64
10, 159341, Note_on_c, 8, 73, 72
10, 159591, Note_off_c, 8, 73, 64
10, 159698, Note_on_c, 8, 73, 60
10, 159746, Note_off_c, 8, 73, 64
10, 159819, Note_on_c, 8, 73, 74
10, 159868, Note_off_c, 8, 73, 64
10, 159937, Note_on_c, 8, 73, 58
10, 159980, Note_off_c, 8, 73, 64
10, 160180, Note_on_c, 8, 71, 68
10, 160221, Note_off_c, 8, 71, 64
10, 160297, Note_on_c, 8, 70, 66
10, 160340, Note_off_c, 8, 70, 64
10, 160417, Note_on_c, 8, 70, 58
10, 160455, Note_off_c, 8, 70, 64
10, 160657, Note_on_c, 8, 70, 78
10, 160704, Note_off_c, 8, 70, 64
10, 160774, Note_on_c, 8, 66, 78
10, 160823, Note_off_c, 8, 66, 64
10, 160899, Note_on_c, 8, 66, 47
10, 160945, Note_off_c, 8, 66, 64
10, 161138, Note_on_c, 8, 66, 78
10, 161184, Note_off_c, 8, 66, 64
10, 161257, Note_on_c, 8, 66, 87
10, 161320, Note_off_c, 8, 66, 64
10, 161377, Note_on_c, 8, 62, 66
10, 161426, Note_off_c, 8, 62, 64
10, 161610, Note_on_c, 8, 66, 66
10, 161666, Note_off_c, 8, 66, 64
10, 161733, Note_on_c, 8, 63, 74
10, 161790, Note_off_c, 8, 63, 64
10, 161853, Note_on_c, 8, 69, 89
10, 161902, Note_off_c, 8, 69, 64
10, 162089, Note_on_c, 8, 63, 47
10, 162133, Note_off_c, 8, 63, 64
10, 162216, Note_on_c, 8, 63, 76
10, 162276, Note_off_c, 8, 63, 64
10, 162328, Note_on_c, 8, 66, 63
10, 162387, Note_off_c, 8, 66, 64
10, 162573, Note_on_c, 8, 66, 63
10, 162616, Note_off_c, 8, 66, 64
10, 162694, Note_on_c, 8, 66, 74
10, 162745, Note_off_c, 8, 66, 64
10, 162815, Note_on_c, 8, 66, 60
10, 162865, Note_off_c, 8, 66, 64
10, 163057, Note_on_c, 8, 71, 66
10, 163095, Note_off_c, 8, 71, 64
10, 163181, Note_on_c, 8, 71, 59
10, 163429, Note_off_c, 8, 71, 64
10, 165352, Note_on_c, 8, 73, 63
10, 165593, Note_off_c, 8, 73, 64
10, 165830, Note_on_c, 8, 70, 59
10, 166076, Note_off_c, 8, 70, 64
10, 166306, Note_on_c, 8, 66, 53
10, 166552, Note_off_c, 8, 66, 64
10, 166671, Note_on_c, 8, 59, 64
10, 166719, Note_on_c, 8, 61, 66
10, 166727, Note_off_c, 8, 59, 64
10, 166773, Note_off_c, 8, 61, 64
10, 166782, Note_on_c, 8, 63, 66
10, 166841, Note_off_c, 8, 63, 64
10, 166914, Note_on_c, 8, 63, 57
10, 166960, Note_on_c, 8, 64, 64
10, 166967, Note_off_c, 8, 63, 64
10, 167004, Note_off_c, 8, 64, 64
10, 167024, Note_on_c, 8, 66, 82
10, 167090, Note_off_c, 8, 66, 64
10, 167159, Note_on_c, 8, 63, 57
10, 167207, Note_on_c, 8, 64, 66
10, 167208, Note_off_c, 8, 63, 64
10, 167259, Note_off_c, 8, 64, 64
10, 167273, Note_on_c, 8, 66, 78
10, 167335, Note_off_c, 8, 66, 64
10, 167397, Note_on_c, 8, 66, 55
10, 167443, Note_on_c, 8, 68, 58
10, 167452, Note_off_c, 8, 66, 64
10, 167496, Note_off_c, 8, 68, 64
10, 167508, Note_on_c, 8, 69, 89
10, 167552, Note_off_c, 8, 69, 64
10, 167636, Note_on_c, 8, 69, 66
10, 167679, Note_on_c, 8, 68, 57
10, 167689, Note_off_c, 8, 69, 64
10, 167734, Note_off_c, 8, 68, 64
10, 167741, Note_on_c, 8, 69, 68
10, 167802, Note_off_c, 8, 69, 64
10, 167865, Note_on_c, 8, 71, 70
10, 167912, Note_on_c, 8, 69, 80
10, 167918, Note_off_c, 8, 71, 64
10, 167961, Note_off_c, 8, 69, 64
10, 167976, Note_on_c, 8, 68, 60
10, 168168, Note_off_c, 8, 68, 64
10, 168214, Note_on_c, 8, 71, 57
10, 168471, Note_off_c, 8, 71, 64
10, 168705, Note_on_c, 8, 68, 59
10, 168962, Note_off_c, 8, 68, 64
10, 169183, Note_on_c, 8, 64, 60
10, 169428, Note_off_c, 8, 64, 64
10, 169556, Note_on_c, 8, 57, 63
10, 169607, Note_on_c, 8, 59, 62
10, 169612, Note_off_c, 8, 57, 64
10, 169657, Note_off_c, 8, 59, 64
10, 169666, Note_on_c, 8, 61, 82
10, 169719, Note_off_c, 8, 61, 64
10, 169789, Note_on_c, 8, 61, 63
10, 169838, Note_on_c, 8, 62, 64
10, 169852, Note_off_c, 8, 61, 64
10, 169891, Note_off_c, 8, 62, 64
10, 169908, Note_on_c, 8, 64, 85
10, 169983, Note_off_c, 8, 64, 64
10, 170028, Note_on_c, 8, 61, 64
10, 170083, Note_on_c, 8, 62, 62
10, 170085, Note_off_c, 8, 61, 64
10, 170128, Note_off_c, 8, 62, 64
10, 170144, Note_on_c, 8, 64, 85
10, 170211, Note_off_c, 8, 64, 64
10, 170269, Note_on_c, 8, 64, 68
10, 170316, Note_on_c, 8, 66, 68
10, 170323, Note_off_c, 8, 64, 64
10, 170367, Note_off_c, 8, 66, 64
10, 170381, Note_on_c, 8, 67, 85
10, 170455, Note_off_c, 8, 67, 64
10, 170502, Note_on_c, 8, 67, 64
10, 170552, Note_on_c, 8, 66, 55
10, 170558, Note_off_c, 8, 67, 64
10, 170597, Note_off_c, 8, 66, 64
10, 170614, Note_on_c, 8, 67, 74
10, 170678, Note_off_c, 8, 67, 64
10, 170734, Note_on_c, 8, 69, 66
10, 170776, Note_on_c, 8, 67, 68
10, 170785, Note_off_c, 8, 69, 64
10, 170819, Note_off_c, 8, 67, 64
10, 170852, Note_on_c, 8, 66, 52
10, 171112, Note_off_c, 8, 66, 64
10, 185649, Note_on_c, 8, 61, 72
10, 185698, Note_off_c, 8, 61, 64
10, 185765, Note_on_c, 8, 59, 66
10, 185812, Note_off_c, 8, 59, 64
10, 185881, Note_on_c, 8, 62, 68
10, 185930, Note_off_c, 8, 62, 64
10, 185998, Note_on_c, 8, 61, 64
10, 186044, Note_off_c, 8, 61, 64
10, 186124, Note_on_c, 8, 61, 70
10, 186166, Note_off_c, 8, 61, 64
10, 186252, Note_on_c, 8, 62, 76
10, 186483, Note_off_c, 8, 62, 64
10, 186588, Note_on_c, 8, 68, 63
10, 186644, Note_off_c, 8, 68, 64
10, 186712, Note_on_c, 8, 69, 76
10, 186764, Note_off_c, 8, 69, 64
10, 186830, Note_on_c, 8, 66, 66
10, 186878, Note_off_c, 8, 66, 64
10, 186953, Note_on_c, 8, 71, 82
10, 187001, Note_off_c, 8, 71, 64
10, 187073, Note_on_c, 8, 71, 78
10, 187118, Note_off_c, 8, 71, 64
10, 187189, Note_on_c, 8, 69, 76
10, 187442, Note_off_c, 8, 69, 64
10, 187544, Note_on_c, 8, 66, 62
10, 187592, Note_off_c, 8, 66, 64
10, 187666, Note_on_c, 8, 66, 76
10, 187717, Note_off_c, 8, 66, 64
10, 187784, Note_on_c, 8, 66, 51
10, 187837, Note_off_c, 8, 66, 64
10, 188032, Note_on_c, 8, 66, 60
10, 188073, Note_off_c, 8, 66, 64
10, 188148, Note_on_c, 8, 66, 78
10, 188205, Note_off_c, 8, 66, 64
10, 188266, Note_on_c, 8, 66, 57
10, 188314, Note_off_c, 8, 66, 64
10, 188508, Note_on_c, 8, 66, 68
10, 188552, Note_off_c, 8, 66, 64
10, 188628, Note_on_c, 8, 63, 74
10, 188689, Note_off_c, 8, 63, 64
10, 188744, Note_on_c, 8, 66, 58
10, 188794, Note_off_c, 8, 66, 64
10, 188991, Note_on_c, 8, 63, 58
10, 189034, Note_off_c, 8, 63, 64
10, 189105, Note_on_c, 8, 64, 87
10, 189162, Note_off_c, 8, 64, 64
10, 189220, Note_on_c, 8, 67, 59
10, 189270, Note_off_c, 8, 67, 64
10, 189464, Note_on_c, 8, 71, 85
10, 189519, Note_off_c, 8, 71, 64
10, 189583, Note_on_c, 8, 64, 59
10, 189627, Note_off_c, 8, 64, 64
10, 189702, Note_on_c, 8, 64, 42
10, 189742, Note_off_c, 8, 64, 64
10, 189946, Note_on_c, 8, 64, 59
10, 189984, Note_off_c, 8, 64, 64
10, 190063, Note_on_c, 8, 64, 76
10, 190121, Note_off_c, 8, 64, 64
10, 190176, Note_on_c, 8, 69, 60
10, 190231, Note_off_c, 8, 69, 64
10, 190422, Note_on_c, 8, 69, 70
10, 190469, Note_off_c, 8, 69, 64
10, 190549, Note_on_c, 8, 69, 85
10, 190601, Note_off_c, 8, 69, 64
10, 190668, Note_on_c, 8, 64, 55
10, 190720, Note_off_c, 8, 64, 64
10, 190911, Note_on_c, 8, 69, 70
10, 190952, Note_off_c, 8, 69, 64
10, 191027, Note_on_c, 8, 69, 70
10, 191117, Note_off_c, 8, 69, 64
10, 191389, Note_on_c, 8, 67, 64
10, 191428, Note_off_c, 8, 67, 64
10, 191505, Note_on_c, 8, 67, 70
10, 191560, Note_off_c, 8, 67, 64
10, 191868, Note_on_c, 8, 66, 70
10, 191904, Note_off_c, 8, 66, 64
10, 191983, Note_on_c, 8, 66, 66
10, 192076, Note_off_c, 8, 66, 64
10, 192337, Note_on_c, 8, 64, 68
10, 192386, Note_off_c, 8, 64, 64
10, 192461, Note_on_c, 8, 64, 80
10, 192523, Note_off_c, 8, 64, 64
10, 192580, Note_on_c, 8, 67, 70
10, 192632, Note_off_c, 8, 67, 64
10, 192696, Note_on_c, 8, 66, 70
10, 192756, Note_off_c, 8, 66, 64
10, 192816, Note_on_c, 8, 62, 66
10, 192888, Note_off_c, 8, 62, 64
10, 192946, Note_on_c, 8, 69, 85
10, 193021, Note_off_c, 8, 69, 64
10, 193060, Note_on_c, 8, 61, 66
10, 193140, Note_off_c, 8, 61, 64
10, 193182, Note_on_c, 8, 62, 72
10, 193243, Note_off_c, 8, 62, 64
10, 193305, Note_on_c, 8, 66, 72
10, 193357, Note_off_c, 8, 66, 64
10, 193430, Note_on_c, 8, 64, 87
10, 193503, Note_off_c, 8, 64, 64
10, 193549, Note_on_c, 8, 67, 78
10, 193609, Note_off_c, 8, 67, 64
10, 193668, Note_on_c, 8, 61, 80
10, 193720, Note_off_c, 8, 61, 64
10, 193784, Note_on_c, 8, 57, 78
10, 193842, Note_off_c, 8, 57, 64
10, 193907, Note_on_c, 8, 62, 80
10, 194337, Note_off_c, 8, 62, 64
10, 194382, Note_on_c, 8, 64, 63
10, 194644, Note_off_c, 8, 64, 64
10, 194988, Note_on_c, 8, 59, 64
10, 195040, Note_on_c, 8, 61, 58
10, 195041, Note_off_c, 8, 59, 64
10, 195093, Note_off_c, 8, 61, 64
10, 195103, Note_on_c, 8, 63, 60
10, 195152, Note_off_c, 8, 63, 64
10, 195221, Note_on_c, 8, 63, 46
10, 195266, Note_on_c, 8, 64, 68
10, 195272, Note_off_c, 8, 63, 64
10, 195323, Note_off_c, 8, 64, 64
10, 195337, Note_on_c, 8, 66, 68
10, 195404, Note_off_c, 8, 66, 64
10, 195460, Note_on_c, 8, 63, 56
10, 195508, Note_on_c, 8, 64, 70
10, 195514, Note_off_c, 8, 63, 64
10, 195564, Note_off_c, 8, 64, 64
10, 195574, Note_on_c, 8, 66, 70
10, 195626, Note_off_c, 8, 66, 64
10, 195698, Note_on_c, 8, 66, 66
10, 195744, Note_on_c, 8, 67, 78
10, 195755, Note_off_c, 8, 66, 64
10, 195798, Note_off_c, 8, 67, 64
10, 195819, Note_on_c, 8, 69, 80
10, 195878, Note_off_c, 8, 69, 64
10, 195944, Note_on_c, 8, 69, 66
10, 195989, Note_on_c, 8, 68, 57
10, 195997, Note_off_c, 8, 69, 64
10, 196039, Note_off_c, 8, 68, 64
10, 196058, Note_on_c, 8, 69, 78
10, 196126, Note_off_c, 8, 69, 64
10, 196184, Note_on_c, 8, 71, 66
10, 196235, Note_on_c, 8, 69, 63
10, 196243, Note_off_c, 8, 71, 64
10, 196282, Note_off_c, 8, 69, 64
10, 196316, Note_on_c, 8, 68, 59
10, 196504, Note_off_c, 8, 68, 64
10, 196565, Note_on_c, 8, 64, 59
10, 196809, Note_off_c, 8, 64, 64
10, 197034, Note_on_c, 8, 68, 55
10, 197299, Note_off_c, 8, 68, 64
10, 197513, Note_on_c, 8, 71, 66
10, 197761, Note_off_c, 8, 71, 64
10, 197873, Note_on_c, 8, 57, 76
10, 197924, Note_on_c, 8, 59, 66
10, 197927, Note_off_c, 8, 57, 64
10, 197980, Note_off_c, 8, 59, 64
10, 197984, Note_on_c, 8, 61, 80
10, 198032, Note_off_c, 8, 61, 64
10, 198099, Note_on_c, 8, 61, 66
10, 198151, Note_on_c, 8, 62, 78
10, 198157, Note_off_c, 8, 61, 64
10, 198207, Note_off_c, 8, 62, 64
10, 198222, Note_on_c, 8, 64, 85
10, 198295, Note_off_c, 8, 64, 64
10, 198358, Note_on_c, 8, 61, 68
10, 198408, Note_on_c, 8, 62, 68
10, 198415, Note_off_c, 8, 61, 64
10, 198453, Note_off_c, 8, 62, 64
10, 198469, Note_on_c, 8, 64, 82
10, 198528, Note_off_c, 8, 64, 64
10, 198598, Note_on_c, 8, 64, 78
10, 198649, Note_on_c, 8, 66, 74
10, 198657, Note_off_c, 8, 64, 64
10, 198706, Note_off_c, 8, 66, 64
10, 198707, Note_on_c, 8, 67, 89
10, 198761, Note_off_c, 8, 67, 64
10, 198835, Note_on_c, 8, 67, 66
10, 198885, Note_on_c, 8, 66, 66
10, 198896, Note_off_c, 8, 67, 64
10, 198941, Note_off_c, 8, 66, 64
10, 198946, Note_on_c, 8, 67, 82
10, 199010, Note_off_c, 8, 67, 64
10, 199078, Note_on_c, 8, 69, 70
10, 199122, Note_on_c, 8, 67, 64
10, 199138, Note_off_c, 8, 69, 64
10, 199167, Note_off_c, 8, 67, 64
10, 199192, Note_on_c, 8, 66, 64
10, 199384, Note_off_c, 8, 66, 64
10, 199445, Note_on_c, 8, 62, 60
10, 199684, Note_off_c, 8, 62, 64
10, 199907, Note_on_c, 8, 66, 62
10, 200165, Note_off_c, 8, 66, 64
10, 200398, Note_on_c, 8, 69, 70
10, 200568, Note_off_c, 8, 69, 64
10, 200642, Note_on_c, 8, 62, 59
10, 200879, Note_off_c, 8, 62, 64
10, 219855, Note_on_c, 8, 66, 89
10, 220101, Note_off_c, 8, 66, 64
10, 220245, Note_on_c, 8, 62, 89
10, 220278, Note_off_c, 8, 62, 64
10, 220299, Note_on_c, 8, 62, 100
10, 220386, Note_off_c, 8, 62, 64
10, 220497, Note_on_c, 8, 66, 85
10, 220535, Note_off_c, 8, 66, 64
10, 220554, Note_on_c, 8, 66, 82
10, 220620, Note_off_c, 8, 66, 64
10, 220732, Note_on_c, 8, 69, 85
10, 220767, Note_off_c, 8, 69, 64
10, 220789, Note_on_c, 8, 69, 89
10, 220876, Note_off_c, 8, 69, 64
10, 220975, Note_on_c, 8, 57, 82
10, 221015, Note_off_c, 8, 57, 64
10, 221034, Note_on_c, 8, 57, 95
10, 221120, Note_off_c, 8, 57, 64
10, 221208, Note_on_c, 8, 62, 80
10, 221245, Note_off_c, 8, 62, 64
10, 221266, Note_on_c, 8, 66, 91
10, 221346, Note_off_c, 8, 66, 64
10, 221453, Note_on_c, 8, 69, 89
10, 221492, Note_off_c, 8, 69, 64
10, 221511, Note_on_c, 8, 69, 102
10, 221578, Note_off_c, 8, 69, 64
10, 221690, Note_on_c, 8, 66, 80
10, 221726, Note_off_c, 8, 66, 64
10, 221749, Note_on_c, 8, 62, 89
10, 221826, Note_off_c, 8, 62, 64
10, 221926, Note_on_c, 8, 57, 85
10, 221963, Note_off_c, 8, 57, 64
10, 221986, Note_on_c, 8, 57, 91
10, 222072, Note_off_c, 8, 57, 64
10, 222169, Note_on_c, 8, 60, 66
10, 222214, Note_off_c, 8, 60, 64
10, 222230, Note_on_c, 8, 62, 93
10, 222330, Note_off_c, 8, 62, 64
10, 222406, Note_on_c, 8, 64, 82
10, 222447, Note_off_c, 8, 64, 64
10, 222469, Note_on_c, 8, 62, 100
10, 222560, Note_off_c, 8, 62, 64
10, 222652, Note_on_c, 8, 62, 80
10, 222687, Note_off_c, 8, 62, 64
10, 222721, Note_on_c, 8, 62, 85
10, 223065, Note_off_c, 8, 62, 64
10, 223142, Note_on_c, 8, 62, 82
10, 223182, Note_off_c, 8, 62, 64
10, 223200, Note_on_c, 8, 67, 87
10, 223284, Note_off_c, 8, 67, 64
10, 223378, Note_on_c, 8, 71, 85
10, 223413, Note_off_c, 8, 71, 64
10, 223435, Note_on_c, 8, 71, 89
10, 223502, Note_off_c, 8, 71, 64
10, 223608, Note_on_c, 8, 67, 74
10, 223648, Note_off_c, 8, 67, 64
10, 223676, Note_on_c, 8, 69, 85
10, 223997, Note_off_c, 8, 69, 64
10, 224091, Note_on_c, 8, 67, 82
10, 224128, Note_off_c, 8, 67, 64
10, 224147, Note_on_c, 8, 66, 85
10, 224245, Note_off_c, 8, 66, 64
10, 224328, Note_on_c, 8, 64, 87
10, 224370, Note_off_c, 8, 64, 64
10, 224388, Note_on_c, 8, 66, 87
10, 224477, Note_off_c, 8, 66, 64
10, 224567, Note_on_c, 8, 67, 78
10, 224602, Note_off_c, 8, 67, 64
10, 224630, Note_on_c, 8, 66, 85
10, 224714, Note_off_c, 8, 66, 64
10, 224810, Note_on_c, 8, 69, 78
10, 224847, Note_off_c, 8, 69, 64
10, 224868, Note_on_c, 8, 69, 87
10, 224940, Note_off_c, 8, 69, 64
10, 225051, Note_on_c, 8, 72, 72
10, 225095, Note_off_c, 8, 72, 64
10, 225112, Note_on_c, 8, 66, 95
10, 225183, Note_off_c, 8, 66, 64
10, 225287, Note_on_c, 8, 59, 74
10, 225332, Note_off_c, 8, 59, 64
10, 225354, Note_on_c, 8, 64, 95
10, 225439, Note_off_c, 8, 64, 64
10, 225542, Note_on_c, 8, 71, 85
10, 225580, Note_off_c, 8, 71, 64
10, 225599, Note_on_c, 8, 71, 89
10, 225691, Note_off_c, 8, 71, 64
10, 225770, Note_on_c, 8, 69, 80
10, 225815, Note_off_c, 8, 69, 64
10, 225835, Note_on_c, 8, 71, 85
10, 225925, Note_off_c, 8, 71, 64
10, 226014, Note_on_c, 8, 72, 74
10, 226054, Note_off_c, 8, 72, 64
10, 226072, Note_on_c, 8, 71, 80
10, 226410, Note_off_c, 8, 71, 64
10, 226495, Note_on_c, 8, 71, 82
10, 226526, Note_off_c, 8, 71, 64
10, 226557, Note_on_c, 8, 71, 87
10, 227046, Note_off_c, 8, 71, 64
10, 227212, Note_on_c, 8, 64, 80
10, 227250, Note_off_c, 8, 64, 64
10, 227270, Note_on_c, 8, 64, 85
10, 227355, Note_off_c, 8, 64, 64
10, 227450, Note_on_c, 8, 68, 64
10, 227492, Note_off_c, 8, 68, 64
10, 227512, Note_on_c, 8, 64, 80
10, 227602, Note_off_c, 8, 64, 64
10, 227700, Note_on_c, 8, 69, 82
10, 227736, Note_off_c, 8, 69, 64
10, 227757, Note_on_c, 8, 69, 91
10, 227841, Note_off_c, 8, 69, 64
10, 227938, Note_on_c, 8, 67, 80
10, 227976, Note_off_c, 8, 67, 64
10, 227995, Note_on_c, 8, 66, 87
10, 228096, Note_off_c, 8, 66, 64
10, 228181, Note_on_c, 8, 66, 76
10, 228219, Note_off_c, 8, 66, 64
10, 228239, Note_on_c, 8, 66, 82
10, 228312, Note_off_c, 8, 66, 64
10, 228414, Note_on_c, 8, 64, 80
10, 228453, Note_off_c, 8, 64, 64
10, 228471, Note_on_c, 8, 62, 89
10, 228554, Note_off_c, 8, 62, 64
10, 228648, Note_on_c, 8, 59, 70
10, 228695, Note_off_c, 8, 59, 64
10, 228710, Note_on_c, 8, 66, 85
10, 228790, Note_off_c, 8, 66, 64
10, 228891, Note_on_c, 8, 62, 76
10, 228929, Note_off_c, 8, 62, 64
10, 228953, Note_on_c, 8, 62, 82
10, 229034, Note_off_c, 8, 62, 64
10, 229129, Note_on_c, 8, 59, 72
10, 229173, Note_off_c, 8, 59, 64
10, 229191, Note_on_c, 8, 64, 93
10, 229271, Note_off_c, 8, 64, 64
10, 229375, Note_on_c, 8, 64, 74
10, 229413, Note_off_c, 8, 64, 64
10, 229437, Note_on_c, 8, 64, 82
10, 229518, Note_off_c, 8, 64, 64
10, 229612, Note_on_c, 8, 69, 85
10, 229648, Note_off_c, 8, 69, 64
10, 229666, Note_on_c, 8, 69, 85
10, 229742, Note_off_c, 8, 69, 64
10, 229848, Note_on_c, 8, 64, 80
10, 229890, Note_off_c, 8, 64, 64
10, 229910, Note_on_c, 8, 69, 95
10, 230238, Note_off_c, 8, 69, 64
10, 230333, Note_on_c, 8, 69, 82
10, 230368, Note_off_c, 8, 69, 64
10, 230395, Note_on_c, 8, 69, 87
10, 230480, Note_off_c, 8, 69, 64
10, 230574, Note_on_c, 8, 66, 82
10, 230610, Note_off_c, 8, 66, 64
10, 230633, Note_on_c, 8, 66, 87
10, 230705, Note_off_c, 8, 66, 64
10, 230804, Note_on_c, 8, 62, 82
10, 230847, Note_off_c, 8, 62, 64
10, 230867, Note_on_c, 8, 57, 82
10, 230944, Note_off_c, 8, 57, 64
10, 231050, Note_on_c, 8, 62, 80
10, 231091, Note_off_c, 8, 62, 64
10, 231111, Note_on_c, 8, 66, 91
10, 231183, Note_off_c, 8, 66, 64
10, 231283, Note_on_c, 8, 69, 76
10, 231332, Note_off_c, 8, 69, 64
10, 231348, Note_on_c, 8, 67, 89
10, 231431, Note_off_c, 8, 67, 64
10, 231534, Note_on_c, 8, 62, 85
10, 231583, Note_off_c, 8, 62, 64
10, 231593, Note_on_c, 8, 64, 89
10, 231684, Note_off_c, 8, 64, 64
10, 231770, Note_on_c, 8, 66, 80
10, 231819, Note_off_c, 8, 66, 64
10, 231832, Note_on_c, 8, 67, 89
10, 231929, Note_off_c, 8, 67, 64
10, 232018, Note_on_c, 8, 64, 76
10, 232066, Note_off_c, 8, 64, 64
10, 232080, Note_on_c, 8, 66, 91
10, 232167, Note_off_c, 8, 66, 64
10, 232251, Note_on_c, 8, 67, 82
10, 232304, Note_off_c, 8, 67, 64
10, 232304, End_track
11, 0, Start_track
11, 0, Title_t, "Cello"
11, 0, Program_c, 10, 42
11, 0, Control_c, 10, 7, 100
11, 961, Note_on_c, 10, 50, 113
11, 3156, Note_off_c, 10, 50, 64
11, 3172, Note_on_c, 10, 54, 89
11, 3204, Note_off_c, 10, 54, 64
11, 3227, Note_on_c, 10, 52, 87
11, 3265, Note_off_c, 10, 52, 64
11, 3284, Note_on_c, 10, 50, 95
11, 3318, Note_off_c, 10, 50, 64
11, 3348, Note_on_c, 10, 49, 102
11, 3437, Note_off_c, 10, 49, 64
11, 3532, Note_on_c, 10, 52, 98
11, 3572, Note_off_c, 10, 52, 64
11, 3593, Note_on_c, 10, 49, 105
11, 3667, Note_off_c, 10, 49, 64
11, 3778, Note_on_c, 10, 45, 95
11, 3811, Note_off_c, 10, 45, 64
11, 3833, Note_on_c, 10, 50, 93
11, 4320, Note_off_c, 10, 50, 64
11, 4365, Note_on_c, 10, 50, 93
11, 4407, Note_off_c, 10, 50, 64
11, 4426, Note_on_c, 10, 49, 105
11, 4458, Note_off_c, 10, 49, 64
11, 4483, Note_on_c, 10, 47, 91
11, 4533, Note_off_c, 10, 47, 64
11, 4544, Note_on_c, 10, 45, 95
11, 4579, Note_off_c, 10, 45, 64
11, 4599, Note_on_c, 10, 43, 85
11, 4639, Note_off_c, 10, 43, 64
11, 4664, Note_on_c, 10, 42, 95
11, 4701, Note_off_c, 10, 42, 64
11, 4717, Note_on_c, 10, 40, 100
11, 4750, Note_off_c, 10, 40, 64
11, 4791, Note_on_c, 10, 38, 105
11, 5239, Note_off_c, 10, 38, 64
11, 5271, Note_on_c, 10, 50, 116
11, 5863, Note_off_c, 10, 50, 64
11, 5930, Note_on_c, 10, 50, 89
11, 5972, Note_off_c, 10, 50, 64
11, 5988, Note_on_c, 10, 49, 89
11, 6071, Note_off_c, 10, 49, 64
11, 6170, Note_on_c, 10, 47, 85
11, 6212, Note_off_c, 10, 47, 64
11, 6229, Note_on_c, 10, 49, 82
11, 6368, Note_off_c, 10, 49, 64
11, 6467, Note_on_c, 10, 54, 68
11, 6614, Note_off_c, 10, 54, 64
11, 6711, Note_on_c, 10, 47, 85
11, 6756, Note_off_c, 10, 47, 64
11, 6771, Note_on_c, 10, 49, 85
11, 6814, Note_off_c, 10, 49, 64
11, 6833, Note_on_c, 10, 50, 91
11, 6877, Note_off_c, 10, 50, 64
11, 6888, Note_on_c, 10, 52, 82
11, 6934, Note_off_c, 10, 52, 64
11, 6947, Note_on_c, 10, 54, 64
11, 6995, Note_off_c, 10, 54, 64
11, 7010, Note_on_c, 10, 56, 87
11, 7052, Note_off_c, 10, 56, 64
11, 7070, Note_on_c, 10, 57, 93
11, 7114, Note_off_c, 10, 57, 64
11, 7127, Note_on_c, 10, 54, 93
11, 7169, Note_off_c, 10, 54, 64
11, 7210, Note_on_c, 10, 57, 80
11, 7269, Note_on_c, 10, 56, 78
11, 7278, Note_off_c, 10, 57, 64
11, 7303, Note_on_c, 10, 57, 66
11, 7305, Note_off_c, 10, 56, 64
11, 7332, Note_on_c, 10, 56, 64
11, 7335, Note_off_c, 10, 57, 64
11, 7352, Note_off_c, 10, 56, 64
11, 7352, Note_on_c, 10, 57, 74
11, 7375, Note_on_c, 10, 56, 70
11, 7382, Note_off_c, 10, 57, 64
11, 7393, Note_off_c, 10, 56, 64
11, 7393, Note_on_c, 10, 57, 78
11, 7415, Note_on_c, 10, 56, 82
11, 7418, Note_off_c, 10, 57, 64
11, 7433, Note_on_c, 10, 57, 66
11, 7436, Note_off_c, 10, 56, 64
11, 7457, Note_on_c, 10, 56, 76
11, 7463, Note_off_c, 10, 57, 64
11, 7476, Note_on_c, 10, 57, 72
11, 7477, Note_off_c, 10, 56, 64
11, 7501, Note_on_c, 10, 56, 80
11, 7505, Note_off_c, 10, 57, 64
11, 7523, Note_on_c, 10, 57, 68
11, 7525, Note_off_c, 10, 56, 64
11, 7543, Note_on_c, 10, 56, 80
11, 7546, Note_off_c, 10, 57, 64
11, 7563, Note_on_c, 10, 57, 66
11, 7567, Note_off_c, 10, 56, 64
11, 7579, Note_on_c, 10, 56, 60
11, 7585, Note_off_c, 10, 57, 64
11, 7602, Note_on_c, 10, 54, 58
11, 7605, Note_off_c, 10, 56, 64
11, 7626, Note_on_c, 10, 56, 76
11, 7640, Note_off_c, 10, 54, 64
11, 7657, Note_off_c, 10, 56, 64
11, 7668, Note_on_c, 10, 57, 98
11, 8682, Note_off_c, 10, 57, 64
11, 8693, Note_on_c, 10, 55, 72
11, 8737, Note_off_c, 10, 55, 64
11, 8750, Note_on_c, 10, 54, 85
11, 8785, Note_off_c, 10, 54, 64
11, 8812, Note_on_c, 10, 52, 91
11, 8847, Note_off_c, 10, 52, 64
11, 8870, Note_on_c, 10, 51, 95
11, 8912, Note_off_c, 10, 51, 64
11, 8927, Note_on_c, 10, 49, 87
11, 8969, Note_off_c, 10, 49, 64
11, 8984, Note_on_c, 10, 47, 80
11, 9020, Note_off_c, 10, 47, 64
11, 9045, Note_on_c, 10, 45, 100
11, 9092, Note_off_c, 10, 45, 64
11, 9114, Note_on_c, 10, 43, 98
11, 9209, Note_off_c, 10, 43, 64
11, 9283, Note_on_c, 10, 43, 87
11, 9326, Note_off_c, 10, 43, 64
11, 9343, Note_on_c, 10, 45, 93
11, 9427, Note_off_c, 10, 45, 64
11, 9519, Note_on_c, 10, 47, 87
11, 9556, Note_off_c, 10, 47, 64
11, 9582, Note_on_c, 10, 40, 93
11, 10022, Note_off_c, 10, 40, 64
11, 10061, Note_on_c, 10, 52, 98
11, 10696, Note_off_c, 10, 52, 64
11, 10732, Note_on_c, 10, 55, 85
11, 10776, Note_off_c, 10, 55, 64
11, 10789, Note_on_c, 10, 54, 102
11, 10880, Note_off_c, 10, 54, 64
11, 10969, Note_on_c, 10, 52, 78
11, 11010, Note_off_c, 10, 52, 64
11, 11029, Note_on_c, 10, 50, 93
11, 11116, Note_off_c, 10, 50, 64
11, 11199, Note_on_c, 10, 49, 80
11, 11239, Note_off_c, 10, 49, 64
11, 11258, Note_on_c, 10, 47, 89
11, 11368, Note_off_c, 10, 47, 64
11, 11449, Note_on_c, 10, 46, 80
11, 11495, Note_off_c, 10, 46, 64
11, 11508, Note_on_c, 10, 47, 87
11, 11613, Note_off_c, 10, 47, 64
11, 11689, Note_on_c, 10, 49, 85
11, 11731, Note_off_c, 10, 49, 64
11, 11752, Note_on_c, 10, 50, 87
11, 11852, Note_off_c, 10, 50, 64
11, 11927, Note_on_c, 10, 52, 80
11, 11966, Note_off_c, 10, 52, 64
11, 11989, Note_on_c, 10, 54, 85
11, 12130, Note_off_c, 10, 54, 64
11, 12168, Note_on_c, 10, 52, 76
11, 12194, Note_on_c, 10, 50, 80
11, 12201, Note_off_c, 10, 52, 64
11, 12221, Note_off_c, 10, 50, 64
11, 12232, Note_on_c, 10, 52, 100
11, 12337, Note_off_c, 10, 52, 64
11, 12419, Note_on_c, 10, 54, 91
11, 12453, Note_off_c, 10, 54, 64
11, 12476, Note_on_c, 10, 51, 93
11, 12994, Note_off_c, 10, 51, 64
11, 13005, Note_on_c, 10, 49, 76
11, 13040, Note_off_c, 10, 49, 64
11, 13058, Note_on_c, 10, 47, 82
11, 13102, Note_off_c, 10, 47, 64
11, 13116, Note_on_c, 10, 49, 85
11, 13157, Note_off_c, 10, 49, 64
11, 13176, Note_on_c, 10, 51, 82
11, 13218, Note_off_c, 10, 51, 64
11, 13237, Note_on_c, 10, 49, 98
11, 13276, Note_off_c, 10, 49, 64
11, 13299, Note_on_c, 10, 51, 93
11, 13338, Note_off_c, 10, 51, 64
11, 13359, Note_on_c, 10, 47, 91
11, 13397, Note_off_c, 10, 47, 64
11, 13435, Note_on_c, 10, 52, 95
11, 13957, Note_off_c, 10, 52, 64
11, 13976, Note_on_c, 10, 50, 82
11, 14018, Note_off_c, 10, 50, 64
11, 14030, Note_on_c, 10, 49, 80
11, 14067, Note_off_c, 10, 49, 64
11, 14087, Note_on_c, 10, 50, 87
11, 14128, Note_off_c, 10, 50, 64
11, 14147, Note_on_c, 10, 52, 87
11, 14189, Note_off_c, 10, 52, 64
11, 14202, Note_on_c, 10, 50, 85
11, 14241, Note_off_c, 10, 50, 64
11, 14259, Note_on_c, 10, 52, 87
11, 14296, Note_off_c, 10, 52, 64
11, 14321, Note_on_c, 10, 49, 87
11, 14363, Note_off_c, 10, 49, 64
11, 14395, Note_on_c, 10, 54, 102
11, 14901, Note_off_c, 10, 54, 64
11, 14923, Note_on_c, 10, 55, 78
11, 14964, Note_off_c, 10, 55, 64
11, 14981, Note_on_c, 10, 54, 93
11, 15027, Note_off_c, 10, 54, 64
11, 15038, Note_on_c, 10, 52, 72
11, 15080, Note_off_c, 10, 52, 64
11, 15101, Note_on_c, 10, 50, 85
11, 15143, Note_off_c, 10, 50, 64
11, 15155, Note_on_c, 10, 52, 78
11, 15193, Note_off_c, 10, 52, 64
11, 15211, Note_on_c, 10, 50, 91
11, 15248, Note_off_c, 10, 50, 64
11, 15272, Note_on_c, 10, 49, 98
11, 15320, Note_off_c, 10, 49, 64
11, 15339, Note_on_c, 10, 47, 93
11, 15602, Note_off_c, 10, 47, 64
11, 15645, Note_on_c, 10, 47, 98
11, 15689, Note_off_c, 10, 47, 64
11, 15703, Note_on_c, 10, 49, 91
11, 15740, Note_off_c, 10, 49, 64
11, 15757, Note_on_c, 10, 50, 98
11, 15792, Note_off_c, 10, 50, 64
11, 15828, Note_on_c, 10, 44, 102
11, 15915, Note_off_c, 10, 44, 64
11, 16005, Note_on_c, 10, 40, 85
11, 16053, Note_off_c, 10, 40, 64
11, 16064, Note_on_c, 10, 42, 89
11, 16157, Note_off_c, 10, 42, 64
11, 16245, Note_on_c, 10, 44, 93
11, 16287, Note_off_c, 10, 44, 64
11, 16304, Note_on_c, 10, 45, 100
11, 16403, Note_off_c, 10, 45, 64
11, 16484, Note_on_c, 10, 47, 82
11, 16530, Note_off_c, 10, 47, 64
11, 16542, Note_on_c, 10, 49, 100
11, 16634, Note_off_c, 10, 49, 64
11, 16730, Note_on_c, 10, 50, 95
11, 16765, Note_off_c, 10, 50, 64
11, 16784, Note_on_c, 10, 52, 85
11, 16949, Note_off_c, 10, 52, 64
11, 17039, Note_on_c, 10, 40, 91
11, 17193, Note_off_c, 10, 40, 64
11, 17274, Note_on_c, 10, 45, 105
11, 17987, Note_off_c, 10, 45, 64
11, 24001, Note_on_c, 10, 50, 113
11, 26196, Note_off_c, 10, 50, 64
11, 26212, Note_on_c, 10, 54, 89
11, 26244, Note_off_c, 10, 54, 64
11, 26267, Note_on_c, 10, 52, 87
11, 26305, Note_off_c, 10, 52, 64
11, 26324, Note_on_c, 10, 50, 95
11, 26358, Note_off_c, 10, 50, 64
11, 26388, Note_on_c, 10, 49, 102
11, 26477, Note_off_c, 10, 49, 64
11, 26572, Note_on_c, 10, 52, 98
11, 26612, Note_off_c, 10, 52, 64
11, 26633, Note_on_c, 10, 49, 105
11, 26707, Note_off_c, 10, 49, 64
11, 26818, Note_on_c, 10, 45, 95
11, 26851, Note_off_c, 10, 45, 64
11, 26873, Note_on_c, 10, 50, 93
11, 27360, Note_off_c, 10, 50, 64
11, 27405, Note_on_c, 10, 50, 93
11, 27447, Note_off_c, 10, 50, 64
11, 27466, Note_on_c, 10, 49, 105
11, 27498, Note_off_c, 10, 49, 64
11, 27523, Note_on_c, 10, 47, 91
11, 27573, Note_off_c, 10, 47, 64
11, 27584, Note_on_c, 10, 45, 95
11, 27619, Note_off_c, 10, 45, 64
11, 27639, Note_on_c, 10, 43, 85
11, 27679, Note_off_c, 10, 43, 64
11, 27704, Note_on_c, 10, 42, 95
11, 27741, Note_off_c, 10, 42, 64
11, 27757, Note_on_c, 10, 40, 100
11, 27790, Note_off_c, 10, 40, 64
11, 27831, Note_on_c, 10, 38, 105
11, 28279, Note_off_c, 10, 38, 64
11, 28311, Note_on_c, 10, 50, 116
11, 28903, Note_off_c, 10, 50, 64
11, 28970, Note_on_c, 10, 50, 89
11, 29012, Note_off_c, 10, 50, 64
11, 29028, Note_on_c, 10, 49, 89
11, 29111, Note_off_c, 10, 49, 64
11, 29210, Note_on_c, 10, 47, 85
11, 29252, Note_off_c, 10, 47, 64
11, 29269, Note_on_c, 10, 49, 82
11, 29408, Note_off_c, 10, 49, 64
11, 29507, Note_on_c, 10, 54, 68
11, 29654, Note_off_c, 10, 54, 64
11, 29751, Note_on_c, 10, 47, 85
11, 29796, Note_off_c, 10, 47, 64
11, 29811, Note_on_c, 10, 49, 85
11, 29854, Note_off_c, 10, 49, 64
11, 29873, Note_on_c, 10, 50, 91
11, 29917, Note_off_c, 10, 50, 64
11, 29928, Note_on_c, 10, 52, 82
11, 29974, Note_off_c, 10, 52, 64
11, 29987, Note_on_c, 10, 54, 64
11, 30035, Note_off_c, 10, 54, 64
11, 30050, Note_on_c, 10, 56, 87
11, 30092, Note_off_c, 10, 56, 64
11, 30110, Note_on_c, 10, 57, 93
11, 30154, Note_off_c, 10, 57, 64
11, 30167, Note_on_c, 10, 54, 93
11, 30209, Note_off_c, 10, 54, 64
11, 30250, Note_on_c, 10, 57, 80
11, 30309, Note_on_c, 10, 56, 78
11, 30318, Note_off_c, 10, 57, 64
11, 30343, Note_on_c, 10, 57, 66
11, 30345, Note_off_c, 10, 56, 64
11, 30372, Note_on_c, 10, 56, 64
11, 30375, Note_off_c, 10, 57, 64
11, 30392, Note_off_c, 10, 56, 64
11, 30392, Note_on_c, 10, 57, 74
11, 30415, Note_on_c, 10, 56, 70
11, 30422, Note_off_c, 10, 57, 64
11, 30433, Note_off_c, 10, 56, 64
11, 30433, Note_on_c, 10, 57, 78
11, 30455, Note_on_c, 10, 56, 82
11, 30458, Note_off_c, 10, 57, 64
11, 30473, Note_on_c, 10, 57, 66
11, 30476, Note_off_c, 10, 56, 64
11, 30497, Note_on_c, 10, 56, 76
11, 30503, Note_off_c, 10, 57, 64
11, 30516, Note_on_c, 10, 57, 72
11, 30517, Note_off_c, 10, 56, 64
11, 30541, Note_on_c, 10, 56, 80
11, 30545, Note_off_c, 10, 57, 64
11, 30563, Note_on_c, 10, 57, 68
11, 30565, Note_off_c, 10, 56, 64
11, 30583, Note_on_c, 10, 56, 80
11, 30586, Note_off_c, 10, 57, 64
11, 30603, Note_on_c, 10, 57, 66
11, 30607, Note_off_c, 10, 56, 64
11, 30619, Note_on_c, 10, 56, 60
11, 30625, Note_off_c, 10, 57, 64
11, 30642, Note_on_c, 10, 54, 58
11, 30645, Note_off_c, 10, 56, 64
11, 30666, Note_on_c, 10, 56, 76
11, 30680, Note_off_c, 10, 54, 64
11, 30697, Note_off_c, 10, 56, 64
11, 30708, Note_on_c, 10, 57, 98
11, 31722, Note_off_c, 10, 57, 64
11, 31733, Note_on_c, 10, 55, 72
11, 31777, Note_off_c, 10, 55, 64
11, 31790, Note_on_c, 10, 54, 85
11, 31825, Note_off_c, 10, 54, 64
11, 31852, Note_on_c, 10, 52, 91
11, 31887, Note_off_c, 10, 52, 64
11, 31910, Note_on_c, 10, 51, 95
11, 31952, Note_off_c, 10, 51, 64
11, 31967, Note_on_c, 10, 49, 87
11, 32009, Note_off_c, 10, 49, 64
11, 32024, Note_on_c, 10, 47, 80
11, 32060, Note_off_c, 10, 47, 64
11, 32085, Note_on_c, 10, 45, 100
11, 32132, Note_off_c, 10, 45, 64
11, 32154, Note_on_c, 10, 43, 98
11, 32249, Note_off_c, 10, 43, 64
11, 32323, Note_on_c, 10, 43, 87
11, 32366, Note_off_c, 10, 43, 64
11, 32383, Note_on_c, 10, 45, 93
11, 32467, Note_off_c, 10, 45, 64
11, 32559, Note_on_c, 10, 47, 87
11, 32596, Note_off_c, 10, 47, 64
11, 32622, Note_on_c, 10, 40, 93
11, 33062, Note_off_c, 10, 40, 64
11, 33101, Note_on_c, 10, 52, 98
11, 33736, Note_off_c, 10, 52, 64
11, 33772, Note_on_c, 10, 55, 85
11, 33816, Note_off_c, 10, 55, 64
11, 33829, Note_on_c, 10, 54, 102
11, 33920, Note_off_c, 10, 54, 64
11, 34009, Note_on_c, 10, 52, 78
11, 34050, Note_off_c, 10, 52, 64
11, 34069, Note_on_c, 10, 50, 93
11, 34156, Note_off_c, 10, 50, 64
11, 34239, Note_on_c, 10, 49, 80
11, 34279, Note_off_c, 10, 49, 64
11, 34298, Note_on_c, 10, 47, 89
11, 34408, Note_off_c, 10, 47, 64
11, 34489, Note_on_c, 10, 46, 80
11, 34535, Note_off_c, 10, 46, 64
11, 34548, Note_on_c, 10, 47, 87
11, 34653, Note_off_c, 10, 47, 64
11, 34729, Note_on_c, 10, 49, 85
11, 34771, Note_off_c, 10, 49, 64
11, 34792, Note_on_c, 10, 50, 87
11, 34892, Note_off_c, 10, 50, 64
11, 34967, Note_on_c, 10, 52, 80
11, 35006, Note_off_c, 10, 52, 64
11, 35029, Note_on_c, 10, 54, 85
11, 35170, Note_off_c, 10, 54, 64
11, 35208, Note_on_c, 10, 52, 76
11, 35234, Note_on_c, 10, 50, 80
11, 35241, Note_off_c, 10, 52, 64
11, 35261, Note_off_c, 10, 50, 64
11, 35272, Note_on_c, 10, 52, 100
11, 35377, Note_off_c, 10, 52, 64
11, 35459, Note_on_c, 10, 54, 91
11, 35493, Note_off_c, 10, 54, 64
11, 35516, Note_on_c, 10, 51, 93
11, 36034, Note_off_c, 10, 51, 64
11, 36045, Note_on_c, 10, 49, 76
11, 36080, Note_off_c, 10, 49, 64
11, 36098, Note_on_c, 10, 47, 82
11, 36142, Note_off_c, 10, 47, 64
11, 36156, Note_on_c, 10, 49, 85
11, 36197, Note_off_c, 10, 49, 64
11, 36216, Note_on_c, 10, 51, 82
11, 36258, Note_off_c, 10, 51, 64
11, 36277, Note_on_c, 10, 49, 98
11, 36316, Note_off_c, 10, 49, 64
11, 36339, Note_on_c, 10, 51, 93
11, 36378, Note_off_c, 10, 51, 64
11, 36399, Note_on_c, 10, 47, 91
11, 36437, Note_off_c, 10, 47, 64
11, 36475, Note_on_c, 10, 52, 95
11, 36997, Note_off_c, 10, 52, 64
11, 37016, Note_on_c, 10, 50, 82
11, 37058, Note_off_c, 10, 50, 64
11, 37070, Note_on_c, 10, 49, 80
11, 37107, Note_off_c, 10, 49, 64
11, 37127, Note_on_c, 10, 50, 87
11, 37168, Note_off_c, 10, 50, 64
11, 37187, Note_on_c, 10, 52, 87
11, 37229, Note_off_c, 10, 52, 64
11, 37242, Note_on_c, 10, 50, 85
11, 37281, Note_off_c, 10, 50, 64
11, 37299, Note_on_c, 10, 52, 87
11, 37336, Note_off_c, 10, 52, 64
11, 37361, Note_on_c, 10, 49, 87
11, 37403, Note_off_c, 10, 49, 64
11, 37435, Note_on_c, 10, 54, 102
11, 37941, Note_off_c, 10, 54, 64
11, 37963, Note_on_c, 10, 55, 78
11, 38004, Note_off_c, 10, 55, 64
11, 38021, Note_on_c, 10, 54, 93
11, 38067, Note_off_c, 10, 54, 64
11, 38078, Note_on_c, 10, 52, 72
11, 38120, Note_off_c, 10, 52, 64
11, 38141, Note_on_c, 10, 50, 85
11, 38183, Note_off_c, 10, 50, 64
11, 38195, Note_on_c, 10, 52, 78
11, 38233, Note_off_c, 10, 52, 64
11, 38251, Note_on_c, 10, 50, 91
11, 38288, Note_off_c, 10, 50, 64
11, 38312, Note_on_c, 10, 49, 98
11, 38360, Note_off_c, 10, 49, 64
11, 38379, Note_on_c, 10, 47, 93
11, 38642, Note_off_c, 10, 47, 64
11, 38685, Note_on_c, 10, 47, 98
11, 38729, Note_off_c, 10, 47, 64
11, 38743, Note_on_c, 10, 49, 91
11, 38780, Note_off_c, 10, 49, 64
11, 38797, Note_on_c, 10, 50, 98
11, 38832, Note_off_c, 10, 50, 64
11, 38868, Note_on_c, 10, 44, 102
11, 38955, Note_off_c, 10, 44, 64
11, 39045, Note_on_c, 10, 40, 85
11, 39093, Note_off_c, 10, 40, 64
11, 39104, Note_on_c, 10, 42, 89
11, 39197, Note_off_c, 10, 42, 64
11, 39285, Note_on_c, 10, 44, 93
11, 39327, Note_off_c, 10, 44, 64
11, 39344, Note_on_c, 10, 45, 100
11, 39443, Note_off_c, 10, 45, 64
11, 39524, Note_on_c, 10, 47, 82
11, 39570, Note_off_c, 10, 47, 64
11, 39582, Note_on_c, 10, 49, 100
11, 39674, Note_off_c, 10, 49, 64
11, 39770, Note_on_c, 10, 50, 95
11, 39805, Note_off_c, 10, 50, 64
11, 39824, Note_on_c, 10, 52, 85
11, 39989, Note_off_c, 10, 52, 64
11, 40079, Note_on_c, 10, 40, 91
11, 40233, Note_off_c, 10, 40, 64
11, 40314, Note_on_c, 10, 45, 105
11, 41027, Note_off_c, 10, 45, 64
11, 51471, Note_on_c, 10, 50, 82
11, 51519, Note_on_c, 10, 52, 80
11, 51527, Note_off_c, 10, 50, 64
11, 51571, Note_off_c, 10, 52, 64
11, 51580, Note_on_c, 10, 54, 80
11, 51651, Note_off_c, 10, 54, 64
11, 51705, Note_on_c, 10, 54, 66
11, 51752, Note_on_c, 10, 55, 78
11, 51756, Note_off_c, 10, 54, 64
11, 51796, Note_off_c, 10, 55, 64
11, 51814, Note_on_c, 10, 57, 95
11, 51884, Note_off_c, 10, 57, 64
11, 51937, Note_on_c, 10, 54, 64
11, 51989, Note_off_c, 10, 54, 64
11, 51991, Note_on_c, 10, 55, 70
11, 52048, Note_off_c, 10, 55, 64
11, 52062, Note_on_c, 10, 57, 87
11, 52138, Note_off_c, 10, 57, 64
11, 52195, Note_on_c, 10, 57, 66
11, 52246, Note_on_c, 10, 59, 85
11, 52255, Note_off_c, 10, 57, 64
11, 52296, Note_off_c, 10, 59, 64
11, 52308, Note_on_c, 10, 60, 85
11, 52376, Note_off_c, 10, 60, 64
11, 52436, Note_on_c, 10, 60, 85
11, 52486, Note_on_c, 10, 59, 80
11, 52495, Note_off_c, 10, 60, 64
11, 52532, Note_off_c, 10, 59, 64
11, 52546, Note_on_c, 10, 60, 91
11, 52605, Note_off_c, 10, 60, 64
11, 52674, Note_on_c, 10, 62, 85
11, 52724, Note_on_c, 10, 60, 80
11, 52736, Note_off_c, 10, 62, 64
11, 52772, Note_off_c, 10, 60, 64
11, 52793, Note_on_c, 10, 59, 98
11, 52856, Note_off_c, 10, 59, 64
11, 52912, Note_on_c, 10, 52, 70
11, 52964, Note_on_c, 10, 54, 64
11, 52976, Note_off_c, 10, 52, 64
11, 53009, Note_off_c, 10, 54, 64
11, 53025, Note_on_c, 10, 56, 95
11, 53092, Note_off_c, 10, 56, 64
11, 53157, Note_on_c, 10, 56, 70
11, 53207, Note_on_c, 10, 57, 80
11, 53210, Note_off_c, 10, 56, 64
11, 53251, Note_off_c, 10, 57, 64
11, 53266, Note_on_c, 10, 59, 98
11, 53338, Note_off_c, 10, 59, 64
11, 53384, Note_on_c, 10, 56, 66
11, 53432, Note_off_c, 10, 56, 64
11, 53435, Note_on_c, 10, 57, 72
11, 53480, Note_off_c, 10, 57, 64
11, 53500, Note_on_c, 10, 59, 80
11, 53564, Note_off_c, 10, 59, 64
11, 53630, Note_on_c, 10, 59, 68
11, 53679, Note_on_c, 10, 61, 80
11, 53695, Note_off_c, 10, 59, 64
11, 53724, Note_off_c, 10, 61, 64
11, 53742, Note_on_c, 10, 62, 91
11, 53822, Note_off_c, 10, 62, 64
11, 53864, Note_on_c, 10, 62, 82
11, 53913, Note_on_c, 10, 61, 78
11, 53927, Note_off_c, 10, 62, 64
11, 53963, Note_off_c, 10, 61, 64
11, 53978, Note_on_c, 10, 62, 85
11, 54060, Note_off_c, 10, 62, 64
11, 54102, Note_on_c, 10, 64, 78
11, 54156, Note_on_c, 10, 62, 80
11, 54173, Note_off_c, 10, 64, 64
11, 54206, Note_off_c, 10, 62, 64
11, 54225, Note_on_c, 10, 61, 76
11, 54283, Note_off_c, 10, 61, 64
11, 54349, Note_on_c, 10, 64, 87
11, 54392, Note_off_c, 10, 64, 64
11, 54468, Note_on_c, 10, 57, 85
11, 54517, Note_off_c, 10, 57, 64
11, 54580, Note_on_c, 10, 61, 82
11, 54762, Note_off_c, 10, 61, 64
11, 54823, Note_on_c, 10, 64, 82
11, 54874, Note_off_c, 10, 64, 64
11, 54945, Note_on_c, 10, 55, 80
11, 54999, Note_off_c, 10, 55, 64
11, 55070, Note_on_c, 10, 61, 87
11, 55254, Note_off_c, 10, 61, 64
11, 55306, Note_on_c, 10, 64, 93
11, 55362, Note_off_c, 10, 64, 64
11, 55425, Note_on_c, 10, 57, 80
11, 55488, Note_off_c, 10, 57, 64
11, 55544, Note_on_c, 10, 61, 85
11, 55593, Note_off_c, 10, 61, 64
11, 55667, Note_on_c, 10, 50, 98
11, 55726, Note_off_c, 10, 50, 64
11, 55789, Note_on_c, 10, 62, 89
11, 55843, Note_off_c, 10, 62, 64
11, 55915, Note_on_c, 10, 55, 87
11, 55969, Note_off_c, 10, 55, 64
11, 56032, Note_on_c, 10, 59, 87
11, 56093, Note_off_c, 10, 59, 64
11, 56156, Note_on_c, 10, 49, 95
11, 56216, Note_off_c, 10, 49, 64
11, 56268, Note_on_c, 10, 61, 76
11, 56332, Note_off_c, 10, 61, 64
11, 56396, Note_on_c, 10, 54, 82
11, 56457, Note_off_c, 10, 54, 64
11, 56511, Note_on_c, 10, 58, 78
11, 56567, Note_off_c, 10, 58, 64
11, 56632, Note_on_c, 10, 47, 85
11, 56699, Note_off_c, 10, 47, 64
11, 56746, Note_on_c, 10, 59, 87
11, 56811, Note_off_c, 10, 59, 64
11, 56870, Note_on_c, 10, 57, 80
11, 56932, Note_off_c, 10, 57, 64
11, 56989, Note_on_c, 10, 55, 70
11, 57076, Note_off_c, 10, 55, 64
11, 57111, Note_on_c, 10, 54, 58
11, 57188, Note_off_c, 10, 54, 64
11, 57238, Note_on_c, 10, 59, 100
11, 57303, Note_off_c, 10, 59, 64
11, 57353, Note_on_c, 10, 57, 68
11, 57417, Note_off_c, 10, 57, 64
11, 57466, Note_on_c, 10, 55, 85
11, 57530, Note_off_c, 10, 55, 64
11, 57586, Note_on_c, 10, 54, 87
11, 57659, Note_off_c, 10, 54, 64
11, 57703, Note_on_c, 10, 57, 80
11, 57771, Note_off_c, 10, 57, 64
11, 57824, Note_on_c, 10, 50, 82
11, 57886, Note_off_c, 10, 50, 64
11, 57931, Note_on_c, 10, 54, 76
11, 57995, Note_off_c, 10, 54, 64
11, 58066, Note_on_c, 10, 43, 95
11, 58123, Note_off_c, 10, 43, 64
11, 58185, Note_on_c, 10, 55, 87
11, 58251, Note_off_c, 10, 55, 64
11, 58309, Note_on_c, 10, 49, 74
11, 58381, Note_off_c, 10, 49, 64
11, 58428, Note_on_c, 10, 52, 85
11, 58487, Note_off_c, 10, 52, 64
11, 58544, Note_on_c, 10, 42, 68
11, 58628, Note_off_c, 10, 42, 64
11, 58662, Note_on_c, 10, 54, 80
11, 58731, Note_off_c, 10, 54, 64
11, 58784, Note_on_c, 10, 47, 87
11, 58849, Note_off_c, 10, 47, 64
11, 58898, Note_on_c, 10, 50, 87
11, 58958, Note_off_c, 10, 50, 64
11, 59021, Note_on_c, 10, 40, 82
11, 59084, Note_off_c, 10, 40, 64
11, 59140, Note_on_c, 10, 45, 85
11, 59200, Note_off_c, 10, 45, 64
11, 59255, Note_on_c, 10, 50, 91
11, 59315, Note_off_c, 10, 50, 64
11, 59376, Note_on_c, 10, 38, 91
11, 59423, Note_off_c, 10, 38, 64
11, 59497, Note_on_c, 10, 45, 89
11, 59574, Note_off_c, 10, 45, 64
11, 59628, Note_on_c, 10, 45, 85
11, 59675, Note_on_c, 10, 47, 74
11, 59682, Note_off_c, 10, 45, 64
11, 59724, Note_off_c, 10, 47, 64
11, 59732, Note_on_c, 10, 49, 100
11, 59810, Note_off_c, 10, 49, 64
11, 59869, Note_on_c, 10, 49, 76
11, 59916, Note_on_c, 10, 50, 82
11, 59922, Note_off_c, 10, 49, 64
11, 59963, Note_off_c, 10, 50, 64
11, 59979, Note_on_c, 10, 52, 95
11, 60058, Note_off_c, 10, 52, 64
11, 60104, Note_on_c, 10, 49, 74
11, 60154, Note_off_c, 10, 49, 64
11, 60162, Note_on_c, 10, 50, 87
11, 60210, Note_off_c, 10, 50, 64
11, 60224, Note_on_c, 10, 52, 85
11, 60304, Note_off_c, 10, 52, 64
11, 60346, Note_on_c, 10, 52, 82
11, 60396, Note_on_c, 10, 54, 95
11, 60398, Note_off_c, 10, 52, 64
11, 60441, Note_off_c, 10, 54, 64
11, 60454, Note_on_c, 10, 55, 89
11, 60537, Note_off_c, 10, 55, 64
11, 60581, Note_on_c, 10, 55, 82
11, 60634, Note_on_c, 10, 54, 95
11, 60636, Note_off_c, 10, 55, 64
11, 60679, Note_off_c, 10, 54, 64
11, 60696, Note_on_c, 10, 55, 85
11, 60778, Note_off_c, 10, 55, 64
11, 60825, Note_on_c, 10, 57, 89
11, 60876, Note_on_c, 10, 55, 82
11, 60886, Note_off_c, 10, 57, 64
11, 60914, Note_off_c, 10, 55, 64
11, 60934, Note_on_c, 10, 54, 80
11, 61011, Note_off_c, 10, 54, 64
11, 61063, Note_on_c, 10, 54, 95
11, 61106, Note_off_c, 10, 54, 64
11, 61113, Note_on_c, 10, 52, 85
11, 61159, Note_off_c, 10, 52, 64
11, 61185, Note_on_c, 10, 54, 91
11, 61267, Note_off_c, 10, 54, 64
11, 61308, Note_on_c, 10, 55, 85
11, 61359, Note_on_c, 10, 54, 93
11, 61363, Note_off_c, 10, 55, 64
11, 61411, Note_off_c, 10, 54, 64
11, 61424, Note_on_c, 10, 52, 87
11, 61493, Note_off_c, 10, 52, 64
11, 61549, Note_on_c, 10, 52, 85
11, 61594, Note_on_c, 10, 50, 68
11, 61596, Note_off_c, 10, 52, 64
11, 61644, Note_off_c, 10, 50, 64
11, 61662, Note_on_c, 10, 52, 89
11, 61732, Note_off_c, 10, 52, 64
11, 61788, Note_on_c, 10, 54, 89
11, 61843, Note_on_c, 10, 52, 82
11, 61851, Note_off_c, 10, 54, 64
11, 61890, Note_off_c, 10, 52, 64
11, 61908, Note_on_c, 10, 50, 89
11, 61960, Note_on_c, 10, 52, 78
11, 61972, Note_off_c, 10, 50, 64
11, 62008, Note_off_c, 10, 52, 64
11, 62019, Note_on_c, 10, 54, 85
11, 62078, Note_on_c, 10, 50, 76
11, 62080, Note_off_c, 10, 54, 64
11, 62119, Note_off_c, 10, 50, 64
11, 62144, Note_on_c, 10, 55, 93
11, 62199, Note_off_c, 10, 55, 64
11, 62199, Note_on_c, 10, 57, 82
11, 62242, Note_off_c, 10, 57, 64
11, 62255, Note_on_c, 10, 54, 76
11, 62301, Note_off_c, 10, 54, 64
11, 62316, Note_on_c, 10, 55, 82
11, 62362, Note_off_c, 10, 55, 64
11, 62388, Note_on_c, 10, 57, 100
11, 62460, Note_off_c, 10, 57, 64
11, 62511, Note_on_c, 10, 55, 80
11, 62576, Note_off_c, 10, 55, 64
11, 62636, Note_on_c, 10, 54, 78
11, 62694, Note_off_c, 10, 54, 64
11, 62747, Note_on_c, 10, 52, 76
11, 62800, Note_off_c, 10, 52, 64
11, 62868, Note_on_c, 10, 50, 85
11, 62931, Note_off_c, 10, 50, 64
11, 62989, Note_on_c, 10, 55, 87
11, 63052, Note_off_c, 10, 55, 64
11, 63113, Note_on_c, 10, 57, 95
11, 63161, Note_off_c, 10, 57, 64
11, 63237, Note_on_c, 10, 45, 91
11, 63292, Note_off_c, 10, 45, 64
11, 63362, Note_on_c, 10, 50, 105
11, 63611, Note_off_c, 10, 50, 64
11, 78711, Note_on_c, 10, 45, 85
11, 78792, Note_off_c, 10, 45, 64
11, 78841, Note_on_c, 10, 45, 85
11, 78888, Note_on_c, 10, 47, 89
11, 78896, Note_off_c, 10, 45, 64
11, 78944, Note_off_c, 10, 47, 64
11, 78950, Note_on_c, 10, 49, 100
11, 79017, Note_off_c, 10, 49, 64
11, 79073, Note_on_c, 10, 49, 62
11, 79123, Note_on_c, 10, 50, 82
11, 79126, Note_off_c, 10, 49, 64
11, 79167, Note_off_c, 10, 50, 64
11, 79185, Note_on_c, 10, 52, 95
11, 79253, Note_off_c, 10, 52, 64
11, 79319, Note_on_c, 10, 49, 80
11, 79370, Note_off_c, 10, 49, 64
11, 79372, Note_on_c, 10, 50, 87
11, 79418, Note_off_c, 10, 50, 64
11, 79433, Note_on_c, 10, 52, 89
11, 79506, Note_off_c, 10, 52, 64
11, 79553, Note_on_c, 10, 52, 85
11, 79598, Note_on_c, 10, 54, 85
11, 79604, Note_off_c, 10, 52, 64
11, 79642, Note_off_c, 10, 54, 64
11, 79659, Note_on_c, 10, 55, 95
11, 79735, Note_off_c, 10, 55, 64
11, 79785, Note_on_c, 10, 55, 82
11, 79839, Note_off_c, 10, 55, 64
11, 79839, Note_on_c, 10, 54, 95
11, 79885, Note_off_c, 10, 54, 64
11, 79902, Note_on_c, 10, 55, 93
11, 79975, Note_off_c, 10, 55, 64
11, 80026, Note_on_c, 10, 57, 98
11, 80077, Note_on_c, 10, 55, 78
11, 80089, Note_off_c, 10, 57, 64
11, 80121, Note_off_c, 10, 55, 64
11, 80140, Note_on_c, 10, 54, 64
11, 80218, Note_off_c, 10, 54, 64
11, 80273, Note_on_c, 10, 47, 76
11, 80319, Note_on_c, 10, 49, 72
11, 80330, Note_off_c, 10, 47, 64
11, 80370, Note_off_c, 10, 49, 64
11, 80385, Note_on_c, 10, 51, 100
11, 80453, Note_off_c, 10, 51, 64
11, 80505, Note_on_c, 10, 51, 68
11, 80558, Note_on_c, 10, 52, 70
11, 80565, Note_off_c, 10, 51, 64
11, 80605, Note_off_c, 10, 52, 64
11, 80623, Note_on_c, 10, 54, 107
11, 80692, Note_off_c, 10, 54, 64
11, 80750, Note_on_c, 10, 51, 87
11, 80802, Note_on_c, 10, 52, 82
11, 80808, Note_off_c, 10, 51, 64
11, 80857, Note_off_c, 10, 52, 64
11, 80860, Note_on_c, 10, 54, 89
11, 80948, Note_off_c, 10, 54, 64
11, 80988, Note_on_c, 10, 54, 78
11, 81038, Note_on_c, 10, 56, 95
11, 81050, Note_off_c, 10, 54, 64
11, 81084, Note_off_c, 10, 56, 64
11, 81097, Note_on_c, 10, 57, 91
11, 81177, Note_off_c, 10, 57, 64
11, 81224, Note_on_c, 10, 57, 89
11, 81277, Note_on_c, 10, 56, 98
11, 81282, Note_off_c, 10, 57, 64
11, 81328, Note_off_c, 10, 56, 64
11, 81341, Note_on_c, 10, 57, 89
11, 81416, Note_off_c, 10, 57, 64
11, 81470, Note_on_c, 10, 59, 87
11, 81525, Note_on_c, 10, 57, 87
11, 81536, Note_off_c, 10, 59, 64
11, 81576, Note_off_c, 10, 57, 64
11, 81587, Note_on_c, 10, 56, 98
11, 81644, Note_off_c, 10, 56, 64
11, 81712, Note_on_c, 10, 59, 89
11, 81756, Note_off_c, 10, 59, 64
11, 81836, Note_on_c, 10, 52, 82
11, 81885, Note_off_c, 10, 52, 64
11, 81951, Note_on_c, 10, 56, 82
11, 82127, Note_off_c, 10, 56, 64
11, 82186, Note_on_c, 10, 59, 87
11, 82232, Note_off_c, 10, 59, 64
11, 82313, Note_on_c, 10, 50, 80
11, 82357, Note_off_c, 10, 50, 64
11, 82429, Note_on_c, 10, 56, 82
11, 82598, Note_off_c, 10, 56, 64
11, 82667, Note_on_c, 10, 59, 91
11, 82713, Note_off_c, 10, 59, 64
11, 82788, Note_on_c, 10, 52, 78
11, 82843, Note_off_c, 10, 52, 64
11, 82901, Note_on_c, 10, 56, 82
11, 82958, Note_off_c, 10, 56, 64
11, 83024, Note_on_c, 10, 45, 87
11, 83075, Note_off_c, 10, 45, 64
11, 83142, Note_on_c, 10, 57, 93
11, 83202, Note_off_c, 10, 57, 64
11, 83264, Note_on_c, 10, 50, 82
11, 83319, Note_off_c, 10, 50, 64
11, 83379, Note_on_c, 10, 54, 78
11, 83441, Note_off_c, 10, 54, 64
11, 83507, Note_on_c, 10, 44, 82
11, 83568, Note_off_c, 10, 44, 64
11, 83622, Note_on_c, 10, 56, 95
11, 83679, Note_off_c, 10, 56, 64
11, 83748, Note_on_c, 10, 49, 80
11, 83808, Note_off_c, 10, 49, 64
11, 83869, Note_on_c, 10, 53, 85
11, 83932, Note_off_c, 10, 53, 64
11, 83989, Note_on_c, 10, 42, 82
11, 84057, Note_off_c, 10, 42, 64
11, 84108, Note_on_c, 10, 54, 82
11, 84164, Note_off_c, 10, 54, 64
11, 84231, Note_on_c, 10, 52, 82
11, 84291, Note_off_c, 10, 52, 64
11, 84349, Note_on_c, 10, 50, 76
11, 84418, Note_off_c, 10, 50, 64
11, 84469, Note_on_c, 10, 49, 68
11, 84537, Note_off_c, 10, 49, 64
11, 84586, Note_on_c, 10, 54, 102
11, 84648, Note_off_c, 10, 54, 64
11, 84698, Note_on_c, 10, 52, 80
11, 84763, Note_off_c, 10, 52, 64
11, 84817, Note_on_c, 10, 50, 74
11, 84877, Note_off_c, 10, 50, 64
11, 84937, Note_on_c, 10, 49, 102
11, 85006, Note_off_c, 10, 49, 64
11, 85067, Note_on_c, 10, 52, 89
11, 85122, Note_off_c, 10, 52, 64
11, 85184, Note_on_c, 10, 45, 89
11, 85248, Note_off_c, 10, 45, 64
11, 85307, Note_on_c, 10, 49, 82
11, 85360, Note_off_c, 10, 49, 64
11, 85430, Note_on_c, 10, 50, 98
11, 85489, Note_off_c, 10, 50, 64
11, 85556, Note_on_c, 10, 62, 95
11, 85612, Note_off_c, 10, 62, 64
11, 85680, Note_on_c, 10, 55, 89
11, 85728, Note_off_c, 10, 55, 64
11, 85800, Note_on_c, 10, 59, 89
11, 85854, Note_off_c, 10, 59, 64
11, 85911, Note_on_c, 10, 49, 87
11, 85968, Note_off_c, 10, 49, 64
11, 86032, Note_on_c, 10, 61, 78
11, 86090, Note_off_c, 10, 61, 64
11, 86148, Note_on_c, 10, 54, 87
11, 86197, Note_off_c, 10, 54, 64
11, 86269, Note_on_c, 10, 58, 85
11, 86315, Note_off_c, 10, 58, 64
11, 86387, Note_on_c, 10, 47, 93
11, 86450, Note_off_c, 10, 47, 64
11, 86507, Note_on_c, 10, 59, 100
11, 86564, Note_off_c, 10, 59, 64
11, 86632, Note_on_c, 10, 52, 82
11, 86688, Note_off_c, 10, 52, 64
11, 86745, Note_on_c, 10, 55, 89
11, 86803, Note_off_c, 10, 55, 64
11, 86877, Note_on_c, 10, 54, 102
11, 86948, Note_off_c, 10, 54, 64
11, 86991, Note_on_c, 10, 42, 76
11, 87039, Note_on_c, 10, 44, 80
11, 87051, Note_off_c, 10, 42, 64
11, 87086, Note_off_c, 10, 44, 64
11, 87105, Note_on_c, 10, 46, 102
11, 87170, Note_off_c, 10, 46, 64
11, 87231, Note_on_c, 10, 46, 80
11, 87272, Note_on_c, 10, 47, 82
11, 87284, Note_off_c, 10, 46, 64
11, 87318, Note_off_c, 10, 47, 64
11, 87341, Note_on_c, 10, 49, 102
11, 87435, Note_off_c, 10, 49, 64
11, 87467, Note_on_c, 10, 46, 74
11, 87518, Note_on_c, 10, 47, 80
11, 87529, Note_off_c, 10, 46, 64
11, 87572, Note_off_c, 10, 47, 64
11, 87583, Note_on_c, 10, 49, 95
11, 87645, Note_off_c, 10, 49, 64
11, 87713, Note_on_c, 10, 49, 80
11, 87764, Note_off_c, 10, 49, 64
11, 87769, Note_on_c, 10, 50, 80
11, 87821, Note_off_c, 10, 50, 64
11, 87829, Note_on_c, 10, 52, 100
11, 87902, Note_off_c, 10, 52, 64
11, 87959, Note_on_c, 10, 52, 82
11, 88007, Note_on_c, 10, 50, 78
11, 88014, Note_off_c, 10, 52, 64
11, 88056, Note_off_c, 10, 50, 64
11, 88071, Note_on_c, 10, 52, 89
11, 88154, Note_off_c, 10, 52, 64
11, 88192, Note_on_c, 10, 54, 70
11, 88246, Note_on_c, 10, 52, 78
11, 88254, Note_off_c, 10, 54, 64
11, 88291, Note_off_c, 10, 52, 64
11, 88303, Note_on_c, 10, 50, 78
11, 88371, Note_off_c, 10, 50, 64
11, 88430, Note_on_c, 10, 50, 80
11, 88471, Note_off_c, 10, 50, 64
11, 88482, Note_on_c, 10, 49, 70
11, 88523, Note_off_c, 10, 49, 64
11, 88545, Note_on_c, 10, 50, 82
11, 88644, Note_off_c, 10, 50, 64
11, 88669, Note_on_c, 10, 52, 70
11, 88707, Note_off_c, 10, 52, 64
11, 88719, Note_on_c, 10, 50, 82
11, 88761, Note_off_c, 10, 50, 64
11, 88779, Note_on_c, 10, 49, 85
11, 88849, Note_off_c, 10, 49, 64
11, 88906, Note_on_c, 10, 49, 95
11, 88948, Note_off_c, 10, 49, 64
11, 88951, Note_on_c, 10, 47, 85
11, 88996, Note_off_c, 10, 47, 64
11, 89015, Note_on_c, 10, 49, 102
11, 89104, Note_off_c, 10, 49, 64
11, 89142, Note_on_c, 10, 50, 85
11, 89196, Note_off_c, 10, 50, 64
11, 89197, Note_on_c, 10, 49, 85
11, 89236, Note_off_c, 10, 49, 64
11, 89260, Note_on_c, 10, 47, 87
11, 89312, Note_on_c, 10, 49, 89
11, 89327, Note_off_c, 10, 47, 64
11, 89364, Note_off_c, 10, 49, 64
11, 89368, Note_on_c, 10, 50, 82
11, 89404, Note_off_c, 10, 50, 64
11, 89421, Note_on_c, 10, 47, 82
11, 89459, Note_off_c, 10, 47, 64
11, 89491, Note_on_c, 10, 52, 82
11, 89541, Note_off_c, 10, 52, 64
11, 89547, Note_on_c, 10, 54, 85
11, 89593, Note_off_c, 10, 54, 64
11, 89610, Note_on_c, 10, 55, 82
11, 89652, Note_off_c, 10, 55, 64
11, 89671, Note_on_c, 10, 52, 85
11, 89707, Note_off_c, 10, 52, 64
11, 89744, Note_on_c, 10, 54, 98
11, 89993, Note_off_c, 10, 54, 64
11, 90101, Note_on_c, 10, 52, 87
11, 90150, Note_off_c, 10, 52, 64
11, 90224, Note_on_c, 10, 50, 87
11, 90284, Note_off_c, 10, 50, 64
11, 90342, Note_on_c, 10, 54, 76
11, 90396, Note_off_c, 10, 54, 64
11, 90467, Note_on_c, 10, 59, 87
11, 90513, Note_off_c, 10, 59, 64
11, 90584, Note_on_c, 10, 54, 80
11, 90657, Note_off_c, 10, 54, 64
11, 90710, Note_on_c, 10, 55, 82
11, 90766, Note_off_c, 10, 55, 64
11, 90828, Note_on_c, 10, 52, 78
11, 90882, Note_off_c, 10, 52, 64
11, 90960, Note_on_c, 10, 54, 98
11, 91012, Note_off_c, 10, 54, 64
11, 91079, Note_on_c, 10, 42, 78
11, 91123, Note_off_c, 10, 42, 64
11, 91206, Note_on_c, 10, 47, 80
11, 91456, Note_off_c, 10, 47, 64
11, 106182, Note_on_c, 10, 50, 91
11, 106249, Note_off_c, 10, 50, 64
11, 106296, Note_on_c, 10, 38, 98
11, 106373, Note_off_c, 10, 38, 64
11, 106422, Note_on_c, 10, 42, 102
11, 106473, Note_off_c, 10, 42, 64
11, 106542, Note_on_c, 10, 43, 98
11, 106610, Note_off_c, 10, 43, 64
11, 106655, Note_on_c, 10, 42, 78
11, 106725, Note_off_c, 10, 42, 64
11, 106783, Note_on_c, 10, 43, 93
11, 106855, Note_off_c, 10, 43, 64
11, 106906, Note_on_c, 10, 45, 91
11, 106965, Note_off_c, 10, 45, 64
11, 107024, Note_on_c, 10, 47, 95
11, 107086, Note_off_c, 10, 47, 64
11, 107144, Note_on_c, 10, 45, 68
11, 107211, Note_off_c, 10, 45, 64
11, 107264, Note_on_c, 10, 47, 74
11, 107331, Note_off_c, 10, 47, 64
11, 107384, Note_on_c, 10, 49, 78
11, 107451, Note_off_c, 10, 49, 64
11, 107502, Note_on_c, 10, 50, 82
11, 107576, Note_off_c, 10, 50, 64
11, 107621, Note_on_c, 10, 49, 62
11, 107687, Note_off_c, 10, 49, 64
11, 107735, Note_on_c, 10, 50, 66
11, 107802, Note_off_c, 10, 50, 64
11, 107856, Note_on_c, 10, 52, 82
11, 107928, Note_off_c, 10, 52, 64
11, 107981, Note_on_c, 10, 54, 82
11, 108053, Note_off_c, 10, 54, 64
11, 108096, Note_on_c, 10, 52, 60
11, 108176, Note_off_c, 10, 52, 64
11, 108212, Note_on_c, 10, 54, 56
11, 108289, Note_off_c, 10, 54, 64
11, 108334, Note_on_c, 10, 55, 80
11, 108418, Note_off_c, 10, 55, 64
11, 108462, Note_on_c, 10, 57, 80
11, 108561, Note_off_c, 10, 57, 64
11, 108581, Note_on_c, 10, 57, 74
11, 108676, Note_off_c, 10, 57, 64
11, 108701, Note_on_c, 10, 57, 78
11, 108800, Note_off_c, 10, 57, 64
11, 108821, Note_on_c, 10, 57, 70
11, 108909, Note_off_c, 10, 57, 64
11, 108937, Note_on_c, 10, 57, 85
11, 109033, Note_off_c, 10, 57, 64
11, 109056, Note_on_c, 10, 57, 68
11, 109147, Note_off_c, 10, 57, 64
11, 109178, Note_on_c, 10, 57, 76
11, 109252, Note_off_c, 10, 57, 64
11, 109300, Note_on_c, 10, 57, 89
11, 109380, Note_off_c, 10, 57, 64
11, 109420, Note_on_c, 10, 57, 93
11, 109514, Note_off_c, 10, 57, 64
11, 109540, Note_on_c, 10, 52, 80
11, 109620, Note_off_c, 10, 52, 64
11, 109658, Note_on_c, 10, 49, 74
11, 109735, Note_off_c, 10, 49, 64
11, 109780, Note_on_c, 10, 45, 87
11, 109851, Note_off_c, 10, 45, 64
11, 109911, Note_on_c, 10, 50, 68
11, 110009, Note_off_c, 10, 50, 64
11, 110032, Note_on_c, 10, 62, 66
11, 110122, Note_off_c, 10, 62, 64
11, 110148, Note_on_c, 10, 62, 78
11, 110248, Note_off_c, 10, 62, 64
11, 110269, Note_on_c, 10, 62, 82
11, 110364, Note_off_c, 10, 62, 64
11, 110389, Note_on_c, 10, 62, 89
11, 110493, Note_off_c, 10, 62, 64
11, 110508, Note_on_c, 10, 62, 78
11, 110603, Note_off_c, 10, 62, 64
11, 110624, Note_on_c, 10, 62, 82
11, 110710, Note_off_c, 10, 62, 64
11, 110741, Note_on_c, 10, 62, 85
11, 110830, Note_off_c, 10, 62, 64
11, 110865, Note_on_c, 10, 62, 93
11, 110964, Note_off_c, 10, 62, 64
11, 110988, Note_on_c, 10, 57, 85
11, 111079, Note_off_c, 10, 57, 64
11, 111104, Note_on_c, 10, 54, 68
11, 111189, Note_off_c, 10, 54, 64
11, 111223, Note_on_c, 10, 50, 78
11, 111295, Note_off_c, 10, 50, 64
11, 111349, Note_on_c, 10, 55, 70
11, 111446, Note_off_c, 10, 55, 64
11, 111471, Note_on_c, 10, 64, 80
11, 111575, Note_off_c, 10, 64, 64
11, 111591, Note_on_c, 10, 64, 85
11, 111686, Note_off_c, 10, 64, 64
11, 111711, Note_on_c, 10, 64, 87
11, 111798, Note_off_c, 10, 64, 64
11, 111832, Note_on_c, 10, 64, 95
11, 111927, Note_off_c, 10, 64, 64
11, 111950, Note_on_c, 10, 59, 85
11, 112036, Note_off_c, 10, 59, 64
11, 112069, Note_on_c, 10, 56, 68
11, 112163, Note_off_c, 10, 56, 64
11, 112191, Note_on_c, 10, 52, 80
11, 112255, Note_off_c, 10, 52, 64
11, 112309, Note_on_c, 10, 57, 82
11, 112553, Note_off_c, 10, 57, 64
11, 112800, Note_on_c, 10, 45, 74
11, 113039, Note_off_c, 10, 45, 64
11, 113259, Note_on_c, 10, 57, 74
11, 113509, Note_off_c, 10, 57, 64
11, 113865, Note_on_c, 10, 50, 85
11, 113913, Note_on_c, 10, 52, 80
11, 113917, Note_off_c, 10, 50, 64
11, 113970, Note_on_c, 10, 54, 95
11, 113983, Note_off_c, 10, 52, 64
11, 114027, Note_off_c, 10, 54, 64
11, 114091, Note_on_c, 10, 54, 60
11, 114141, Note_off_c, 10, 54, 64
11, 114141, Note_on_c, 10, 55, 80
11, 114193, Note_off_c, 10, 55, 64
11, 114205, Note_on_c, 10, 57, 93
11, 114274, Note_off_c, 10, 57, 64
11, 114336, Note_on_c, 10, 54, 58
11, 114392, Note_off_c, 10, 54, 64
11, 114392, Note_on_c, 10, 55, 80
11, 114451, Note_on_c, 10, 57, 87
11, 114453, Note_off_c, 10, 55, 64
11, 114513, Note_off_c, 10, 57, 64
11, 114582, Note_on_c, 10, 57, 85
11, 114629, Note_on_c, 10, 59, 82
11, 114637, Note_off_c, 10, 57, 64
11, 114674, Note_off_c, 10, 59, 64
11, 114693, Note_on_c, 10, 60, 89
11, 114764, Note_off_c, 10, 60, 64
11, 114817, Note_on_c, 10, 60, 78
11, 114870, Note_on_c, 10, 59, 80
11, 114872, Note_off_c, 10, 60, 64
11, 114918, Note_off_c, 10, 59, 64
11, 114934, Note_on_c, 10, 60, 95
11, 114995, Note_off_c, 10, 60, 64
11, 115070, Note_on_c, 10, 62, 87
11, 115123, Note_on_c, 10, 60, 78
11, 115134, Note_off_c, 10, 62, 64
11, 115171, Note_off_c, 10, 60, 64
11, 115186, Note_on_c, 10, 59, 87
11, 115254, Note_off_c, 10, 59, 64
11, 115313, Note_on_c, 10, 52, 66
11, 115360, Note_on_c, 10, 54, 64
11, 115369, Note_off_c, 10, 52, 64
11, 115405, Note_off_c, 10, 54, 64
11, 115419, Note_on_c, 10, 56, 95
11, 115481, Note_off_c, 10, 56, 64
11, 115554, Note_on_c, 10, 56, 78
11, 115598, Note_on_c, 10, 57, 82
11, 115604, Note_off_c, 10, 56, 64
11, 115643, Note_off_c, 10, 57, 64
11, 115661, Note_on_c, 10, 59, 98
11, 115737, Note_off_c, 10, 59, 64
11, 115788, Note_on_c, 10, 56, 76
11, 115838, Note_on_c, 10, 57, 70
11, 115840, Note_off_c, 10, 56, 64
11, 115889, Note_off_c, 10, 57, 64
11, 115903, Note_on_c, 10, 59, 82
11, 115980, Note_off_c, 10, 59, 64
11, 116025, Note_on_c, 10, 59, 70
11, 116072, Note_on_c, 10, 61, 70
11, 116078, Note_off_c, 10, 59, 64
11, 116120, Note_off_c, 10, 61, 64
11, 116136, Note_on_c, 10, 62, 93
11, 116207, Note_off_c, 10, 62, 64
11, 116262, Note_on_c, 10, 62, 80
11, 116312, Note_on_c, 10, 61, 70
11, 116322, Note_off_c, 10, 62, 64
11, 116362, Note_off_c, 10, 61, 64
11, 116377, Note_on_c, 10, 62, 82
11, 116456, Note_off_c, 10, 62, 64
11, 116501, Note_on_c, 10, 64, 85
11, 116553, Note_on_c, 10, 62, 82
11, 116570, Note_off_c, 10, 64, 64
11, 116606, Note_off_c, 10, 62, 64
11, 116624, Note_on_c, 10, 61, 78
11, 116689, Note_off_c, 10, 61, 64
11, 116747, Note_on_c, 10, 64, 85
11, 116801, Note_off_c, 10, 64, 64
11, 116870, Note_on_c, 10, 57, 76
11, 116921, Note_off_c, 10, 57, 64
11, 116987, Note_on_c, 10, 61, 80
11, 117176, Note_off_c, 10, 61, 64
11, 117217, Note_on_c, 10, 64, 85
11, 117270, Note_off_c, 10, 64, 64
11, 117345, Note_on_c, 10, 55, 78
11, 117398, Note_off_c, 10, 55, 64
11, 117471, Note_on_c, 10, 61, 70
11, 117636, Note_off_c, 10, 61, 64
11, 117700, Note_on_c, 10, 64, 87
11, 117752, Note_off_c, 10, 64, 64
11, 117821, Note_on_c, 10, 57, 85
11, 117881, Note_off_c, 10, 57, 64
11, 117940, Note_on_c, 10, 61, 82
11, 117998, Note_off_c, 10, 61, 64
11, 118064, Note_on_c, 10, 50, 93
11, 118133, Note_off_c, 10, 50, 64
11, 118183, Note_on_c, 10, 62, 87
11, 118248, Note_off_c, 10, 62, 64
11, 118300, Note_on_c, 10, 55, 80
11, 118353, Note_off_c, 10, 55, 64
11, 118420, Note_on_c, 10, 59, 80
11, 118481, Note_off_c, 10, 59, 64
11, 118544, Note_on_c, 10, 49, 85
11, 118605, Note_off_c, 10, 49, 64
11, 118664, Note_on_c, 10, 61, 82
11, 118730, Note_off_c, 10, 61, 64
11, 118791, Note_on_c, 10, 54, 82
11, 118853, Note_off_c, 10, 54, 64
11, 118909, Note_on_c, 10, 58, 85
11, 118967, Note_off_c, 10, 58, 64
11, 119034, Note_on_c, 10, 47, 85
11, 119099, Note_off_c, 10, 47, 64
11, 119147, Note_on_c, 10, 59, 87
11, 119219, Note_off_c, 10, 59, 64
11, 119272, Note_on_c, 10, 57, 78
11, 119337, Note_off_c, 10, 57, 64
11, 119385, Note_on_c, 10, 55, 68
11, 119469, Note_off_c, 10, 55, 64
11, 119508, Note_on_c, 10, 54, 60
11, 119587, Note_off_c, 10, 54, 64
11, 119629, Note_on_c, 10, 59, 98
11, 119699, Note_off_c, 10, 59, 64
11, 119749, Note_on_c, 10, 57, 82
11, 119820, Note_off_c, 10, 57, 64
11, 119867, Note_on_c, 10, 55, 87
11, 119928, Note_off_c, 10, 55, 64
11, 119986, Note_on_c, 10, 54, 93
11, 120049, Note_off_c, 10, 54, 64
11, 120103, Note_on_c, 10, 57, 89
11, 120169, Note_off_c, 10, 57, 64
11, 120220, Note_on_c, 10, 50, 82
11, 120284, Note_off_c, 10, 50, 64
11, 120348, Note_on_c, 10, 54, 82
11, 120413, Note_off_c, 10, 54, 64
11, 120464, Note_on_c, 10, 43, 98
11, 120534, Note_off_c, 10, 43, 64
11, 120582, Note_on_c, 10, 55, 85
11, 120653, Note_off_c, 10, 55, 64
11, 120697, Note_on_c, 10, 49, 74
11, 120767, Note_off_c, 10, 49, 64
11, 120822, Note_on_c, 10, 52, 82
11, 120886, Note_off_c, 10, 52, 64
11, 120939, Note_on_c, 10, 42, 78
11, 121004, Note_off_c, 10, 42, 64
11, 121051, Note_on_c, 10, 54, 80
11, 121108, Note_off_c, 10, 54, 64
11, 121177, Note_on_c, 10, 47, 85
11, 121242, Note_off_c, 10, 47, 64
11, 121300, Note_on_c, 10, 50, 85
11, 121370, Note_off_c, 10, 50, 64
11, 121427, Note_on_c, 10, 40, 95
11, 121494, Note_off_c, 10, 40, 64
11, 121537, Note_on_c, 10, 45, 74
11, 121604, Note_off_c, 10, 45, 64
11, 121659, Note_on_c, 10, 50, 87
11, 121719, Note_off_c, 10, 50, 64
11, 121780, Note_on_c, 10, 38, 100
11, 121828, Note_off_c, 10, 38, 64
11, 121902, Note_on_c, 10, 45, 82
11, 121984, Note_off_c, 10, 45, 64
11, 122024, Note_on_c, 10, 45, 80
11, 122066, Note_on_c, 10, 47, 82
11, 122077, Note_off_c, 10, 45, 64
11, 122116, Note_off_c, 10, 47, 64
11, 122129, Note_on_c, 10, 49, 95
11, 122195, Note_off_c, 10, 49, 64
11, 122258, Note_on_c, 10, 49, 66
11, 122307, Note_off_c, 10, 49, 64
11, 122311, Note_on_c, 10, 50, 85
11, 122360, Note_off_c, 10, 50, 64
11, 122374, Note_on_c, 10, 52, 91
11, 122447, Note_off_c, 10, 52, 64
11, 122494, Note_on_c, 10, 49, 78
11, 122543, Note_off_c, 10, 49, 64
11, 122548, Note_on_c, 10, 50, 68
11, 122592, Note_off_c, 10, 50, 64
11, 122607, Note_on_c, 10, 52, 87
11, 122663, Note_off_c, 10, 52, 64
11, 122744, Note_on_c, 10, 52, 82
11, 122795, Note_on_c, 10, 54, 95
11, 122801, Note_off_c, 10, 52, 64
11, 122835, Note_off_c, 10, 54, 64
11, 122854, Note_on_c, 10, 55, 91
11, 122929, Note_off_c, 10, 55, 64
11, 122979, Note_on_c, 10, 55, 91
11, 123028, Note_on_c, 10, 54, 87
11, 123033, Note_off_c, 10, 55, 64
11, 123077, Note_off_c, 10, 54, 64
11, 123092, Note_on_c, 10, 55, 87
11, 123165, Note_off_c, 10, 55, 64
11, 123221, Note_on_c, 10, 57, 89
11, 123273, Note_on_c, 10, 55, 82
11, 123284, Note_off_c, 10, 57, 64
11, 123316, Note_off_c, 10, 55, 64
11, 123334, Note_on_c, 10, 54, 87
11, 123412, Note_off_c, 10, 54, 64
11, 123460, Note_on_c, 10, 54, 98
11, 123502, Note_off_c, 10, 54, 64
11, 123513, Note_on_c, 10, 52, 93
11, 123553, Note_off_c, 10, 52, 64
11, 123579, Note_on_c, 10, 54, 102
11, 123662, Note_off_c, 10, 54, 64
11, 123708, Note_on_c, 10, 55, 80
11, 123750, Note_off_c, 10, 55, 64
11, 123758, Note_on_c, 10, 54, 95
11, 123800, Note_off_c, 10, 54, 64
11, 123819, Note_on_c, 10, 52, 95
11, 123890, Note_off_c, 10, 52, 64
11, 123942, Note_on_c, 10, 52, 82
11, 123988, Note_on_c, 10, 50, 80
11, 123990, Note_off_c, 10, 52, 64
11, 124039, Note_off_c, 10, 50, 64
11, 124055, Note_on_c, 10, 52, 91
11, 124112, Note_off_c, 10, 52, 64
11, 124180, Note_on_c, 10, 54, 85
11, 124229, Note_on_c, 10, 52, 85
11, 124230, Note_off_c, 10, 54, 64
11, 124275, Note_off_c, 10, 52, 64
11, 124295, Note_on_c, 10, 50, 91
11, 124348, Note_on_c, 10, 52, 85
11, 124356, Note_off_c, 10, 50, 64
11, 124396, Note_off_c, 10, 52, 64
11, 124409, Note_on_c, 10, 54, 87
11, 124467, Note_on_c, 10, 50, 80
11, 124470, Note_off_c, 10, 54, 64
11, 124512, Note_off_c, 10, 50, 64
11, 124534, Note_on_c, 10, 55, 85
11, 124590, Note_on_c, 10, 57, 91
11, 124604, Note_off_c, 10, 55, 64
11, 124632, Note_off_c, 10, 57, 64
11, 124650, Note_on_c, 10, 54, 100
11, 124700, Note_off_c, 10, 54, 64
11, 124707, Note_on_c, 10, 55, 85
11, 124758, Note_off_c, 10, 55, 64
11, 124775, Note_on_c, 10, 57, 102
11, 124844, Note_off_c, 10, 57, 64
11, 124898, Note_on_c, 10, 55, 87
11, 124978, Note_off_c, 10, 55, 64
11, 125026, Note_on_c, 10, 54, 87
11, 125094, Note_off_c, 10, 54, 64
11, 125141, Note_on_c, 10, 52, 89
11, 125197, Note_off_c, 10, 52, 64
11, 125260, Note_on_c, 10, 50, 100
11, 125320, Note_off_c, 10, 50, 64
11, 125380, Note_on_c, 10, 55, 89
11, 125438, Note_off_c, 10, 55, 64
11, 125498, Note_on_c, 10, 57, 100
11, 125559, Note_off_c, 10, 57, 64
11, 125625, Note_on_c, 10, 45, 93
11, 125698, Note_off_c, 10, 45, 64
11, 138539, Note_on_c, 10, 42, 87
11, 138573, Note_off_c, 10, 42, 64
11, 138595, Note_on_c, 10, 40, 85
11, 138633, Note_off_c, 10, 40, 64
11, 138648, Note_on_c, 10, 38, 87
11, 138691, Note_off_c, 10, 38, 64
11, 138713, Note_on_c, 10, 37, 89
11, 138793, Note_off_c, 10, 37, 64
11, 138882, Note_on_c, 10, 45, 87
11, 138924, Note_off_c, 10, 45, 64
11, 138945, Note_on_c, 10, 47, 89
11, 139022, Note_off_c, 10, 47, 64
11, 139121, Note_on_c, 10, 49, 95
11, 139152, Note_off_c, 10, 49, 64
11, 139183, Note_on_c, 10, 50, 100
11, 139275, Note_off_c, 10, 50, 64
11, 139356, Note_on_c, 10, 52, 80
11, 139400, Note_off_c, 10, 52, 64
11, 139421, Note_on_c, 10, 54, 102
11, 139512, Note_off_c, 10, 54, 64
11, 139606, Note_on_c, 10, 55, 82
11, 139637, Note_off_c, 10, 55, 64
11, 139672, Note_on_c, 10, 57, 98
11, 139804, Note_off_c, 10, 57, 64
11, 139920, Note_on_c, 10, 45, 85
11, 140043, Note_off_c, 10, 45, 64
11, 140156, Note_on_c, 10, 38, 95
11, 140259, Note_off_c, 10, 38, 64
11, 157790, Note_on_c, 10, 49, 64
11, 157844, Note_off_c, 10, 49, 64
11, 157912, Note_on_c, 10, 50, 82
11, 157971, Note_off_c, 10, 50, 64
11, 158027, Note_on_c, 10, 47, 72
11, 158084, Note_off_c, 10, 47, 64
11, 158152, Note_on_c, 10, 43, 68
11, 158199, Note_off_c, 10, 43, 64
11, 158268, Note_on_c, 10, 45, 74
11, 158311, Note_off_c, 10, 45, 64
11, 158400, Note_on_c, 10, 38, 76
11, 158644, Note_off_c, 10, 38, 64
11, 158739, Note_on_c, 10, 50, 64
11, 158793, Note_off_c, 10, 50, 64
11, 158860, Note_on_c, 10, 49, 57
11, 158917, Note_off_c, 10, 49, 64
11, 158976, Note_on_c, 10, 54, 72
11, 159031, Note_off_c, 10, 54, 64
11, 159102, Note_on_c, 10, 50, 72
11, 159152, Note_off_c, 10, 50, 64
11, 159213, Note_on_c, 10, 52, 66
11, 159257, Note_off_c, 10, 52, 64
11, 159337, Note_on_c, 10, 45, 74
11, 159419, Note_off_c, 10, 45, 64
11, 159449, Note_on_c, 10, 57, 60
11, 159522, Note_off_c, 10, 57, 64
11, 159570, Note_on_c, 10, 57, 57
11, 159645, Note_off_c, 10, 57, 64
11, 159678, Note_on_c, 10, 57, 54
11, 159739, Note_off_c, 10, 57, 64
11, 159931, Note_on_c, 10, 55, 68
11, 160035, Note_off_c, 10, 55, 64
11, 160055, Note_on_c, 10, 55, 62
11, 160139, Note_off_c, 10, 55, 64
11, 160174, Note_on_c, 10, 55, 52
11, 160233, Note_off_c, 10, 55, 64
11, 160418, Note_on_c, 10, 54, 70
11, 160516, Note_off_c, 10, 54, 64
11, 160531, Note_on_c, 10, 54, 58
11, 160632, Note_off_c, 10, 54, 64
11, 160660, Note_on_c, 10, 54, 53
11, 160712, Note_off_c, 10, 54, 64
11, 160905, Note_on_c, 10, 42, 66
11, 160994, Note_off_c, 10, 42, 64
11, 161014, Note_on_c, 10, 42, 64
11, 161088, Note_off_c, 10, 42, 64
11, 161142, Note_on_c, 10, 42, 43
11, 161206, Note_off_c, 10, 42, 64
11, 161390, Note_on_c, 10, 47, 76
11, 161487, Note_off_c, 10, 47, 64
11, 161502, Note_on_c, 10, 47, 59
11, 161593, Note_off_c, 10, 47, 64
11, 161624, Note_on_c, 10, 47, 47
11, 161678, Note_off_c, 10, 47, 64
11, 161860, Note_on_c, 10, 54, 64
11, 162079, Note_off_c, 10, 54, 64
11, 162105, Note_on_c, 10, 54, 54
11, 162152, Note_off_c, 10, 54, 64
11, 162335, Note_on_c, 10, 51, 59
11, 162436, Note_off_c, 10, 51, 64
11, 162450, Note_on_c, 10, 51, 42
11, 162522, Note_off_c, 10, 51, 64
11, 162559, Note_on_c, 10, 51, 41
11, 162632, Note_off_c, 10, 51, 64
11, 162826, Note_on_c, 10, 47, 87
11, 162915, Note_off_c, 10, 47, 64
11, 162940, Note_on_c, 10, 47, 68
11, 163010, Note_off_c, 10, 47, 64
11, 163062, Note_on_c, 10, 47, 66
11, 163115, Note_off_c, 10, 47, 64
11, 163184, Note_on_c, 10, 52, 64
11, 163254, Note_off_c, 10, 52, 64
11, 163303, Note_on_c, 10, 64, 76
11, 163358, Note_off_c, 10, 64, 64
11, 163424, Note_on_c, 10, 57, 60
11, 163476, Note_off_c, 10, 57, 64
11, 163541, Note_on_c, 10, 61, 62
11, 163592, Note_off_c, 10, 61, 64
11, 163655, Note_on_c, 10, 50, 80
11, 163721, Note_off_c, 10, 50, 64
11, 163769, Note_on_c, 10, 62, 82
11, 163832, Note_off_c, 10, 62, 64
11, 163886, Note_on_c, 10, 55, 58
11, 163938, Note_off_c, 10, 55, 64
11, 164004, Note_on_c, 10, 59, 68
11, 164068, Note_off_c, 10, 59, 64
11, 164133, Note_on_c, 10, 49, 82
11, 164202, Note_off_c, 10, 49, 64
11, 164256, Note_on_c, 10, 61, 63
11, 164318, Note_off_c, 10, 61, 64
11, 164384, Note_on_c, 10, 54, 60
11, 164431, Note_off_c, 10, 54, 64
11, 164496, Note_on_c, 10, 58, 64
11, 164548, Note_off_c, 10, 58, 64
11, 164621, Note_on_c, 10, 47, 80
11, 164699, Note_off_c, 10, 47, 64
11, 164743, Note_on_c, 10, 59, 68
11, 164804, Note_off_c, 10, 59, 64
11, 164858, Note_on_c, 10, 55, 70
11, 164911, Note_off_c, 10, 55, 64
11, 164973, Note_on_c, 10, 52, 68
11, 165031, Note_off_c, 10, 52, 64
11, 165105, Note_on_c, 10, 54, 59
11, 165353, Note_off_c, 10, 54, 64
11, 165603, Note_on_c, 10, 42, 59
11, 165849, Note_off_c, 10, 42, 64
11, 166186, Note_on_c, 10, 54, 63
11, 166240, Note_off_c, 10, 54, 64
11, 166309, Note_on_c, 10, 58, 70
11, 166359, Note_off_c, 10, 58, 64
11, 166424, Note_on_c, 10, 54, 60
11, 166477, Note_off_c, 10, 54, 64
11, 166546, Note_on_c, 10, 59, 63
11, 166814, Note_off_c, 10, 59, 64
11, 167042, Note_on_c, 10, 47, 63
11, 167272, Note_off_c, 10, 47, 64
11, 167620, Note_on_c, 10, 59, 85
11, 167677, Note_off_c, 10, 59, 64
11, 167742, Note_on_c, 10, 47, 70
11, 167798, Note_off_c, 10, 47, 64
11, 167860, Note_on_c, 10, 51, 74
11, 167907, Note_off_c, 10, 51, 64
11, 167989, Note_on_c, 10, 52, 66
11, 168230, Note_off_c, 10, 52, 64
11, 168471, Note_on_c, 10, 40, 63
11, 168713, Note_off_c, 10, 40, 64
11, 169063, Note_on_c, 10, 52, 66
11, 169120, Note_off_c, 10, 52, 64
11, 169185, Note_on_c, 10, 56, 70
11, 169239, Note_off_c, 10, 56, 64
11, 169304, Note_on_c, 10, 52, 68
11, 169364, Note_off_c, 10, 52, 64
11, 169431, Note_on_c, 10, 57, 70
11, 169685, Note_off_c, 10, 57, 64
11, 169924, Note_on_c, 10, 45, 68
11, 170145, Note_off_c, 10, 45, 64
11, 170503, Note_on_c, 10, 57, 72
11, 170555, Note_off_c, 10, 57, 64
11, 170624, Note_on_c, 10, 45, 80
11, 170686, Note_off_c, 10, 45, 64
11, 170741, Note_on_c, 10, 49, 60
11, 170791, Note_off_c, 10, 49, 64
11, 170864, Note_on_c, 10, 50, 64
11, 170924, Note_off_c, 10, 50, 64
11, 170979, Note_on_c, 10, 49, 51
11, 171038, Note_off_c, 10, 49, 64
11, 171099, Note_on_c, 10, 50, 64
11, 171155, Note_off_c, 10, 50, 64
11, 171214, Note_on_c, 10, 52, 64
11, 171268, Note_off_c, 10, 52, 64
11, 171327, Note_on_c, 10, 54, 66
11, 171399, Note_off_c, 10, 54, 64
11, 171445, Note_on_c, 10, 52, 59
11, 171505, Note_off_c, 10, 52, 64
11, 171563, Note_on_c, 10, 54, 58
11, 171632, Note_off_c, 10, 54, 64
11, 171685, Note_on_c, 10, 56, 72
11, 171765, Note_off_c, 10, 56, 64
11, 171817, Note_on_c, 10, 57, 85
11, 171883, Note_off_c, 10, 57, 64
11, 171942, Note_on_c, 10, 56, 62
11, 172006, Note_off_c, 10, 56, 64
11, 172063, Note_on_c, 10, 57, 70
11, 172113, Note_off_c, 10, 57, 64
11, 172176, Note_on_c, 10, 54, 63
11, 172232, Note_off_c, 10, 54, 64
11, 172300, Note_on_c, 10, 49, 70
11, 172357, Note_off_c, 10, 49, 64
11, 172414, Note_on_c, 10, 50, 85
11, 172472, Note_off_c, 10, 50, 64
11, 172534, Note_on_c, 10, 52, 80
11, 172598, Note_off_c, 10, 52, 64
11, 172662, Note_on_c, 10, 40, 82
11, 172728, Note_off_c, 10, 40, 64
11, 185639, Note_on_c, 10, 58, 63
11, 185695, Note_off_c, 10, 58, 64
11, 185760, Note_on_c, 10, 59, 76
11, 185820, Note_off_c, 10, 59, 64
11, 185879, Note_on_c, 10, 55, 70
11, 185930, Note_off_c, 10, 55, 64
11, 185994, Note_on_c, 10, 52, 62
11, 186046, Note_off_c, 10, 52, 64
11, 186111, Note_on_c, 10, 54, 63
11, 186161, Note_off_c, 10, 54, 64
11, 186243, Note_on_c, 10, 47, 64
11, 186492, Note_off_c, 10, 47, 64
11, 186587, Note_on_c, 10, 59, 60
11, 186635, Note_off_c, 10, 59, 64
11, 186704, Note_on_c, 10, 57, 64
11, 186764, Note_off_c, 10, 57, 64
11, 186825, Note_on_c, 10, 62, 78
11, 186876, Note_off_c, 10, 62, 64
11, 186946, Note_on_c, 10, 59, 64
11, 187001, Note_off_c, 10, 59, 64
11, 187071, Note_on_c, 10, 61, 62
11, 187117, Note_off_c, 10, 61, 64
11, 187187, Note_on_c, 10, 54, 52
11, 187280, Note_off_c, 10, 54, 64
11, 187301, Note_on_c, 10, 54, 59
11, 187394, Note_off_c, 10, 54, 64
11, 187426, Note_on_c, 10, 54, 57
11, 187503, Note_off_c, 10, 54, 64
11, 187539, Note_on_c, 10, 54, 43
11, 187592, Note_off_c, 10, 54, 64
11, 187782, Note_on_c, 10, 52, 64
11, 187886, Note_off_c, 10, 52, 64
11, 187914, Note_on_c, 10, 52, 38
11, 187992, Note_off_c, 10, 52, 64
11, 188033, Note_on_c, 10, 52, 39
11, 188088, Note_off_c, 10, 52, 64
11, 188269, Note_on_c, 10, 51, 60
11, 188372, Note_off_c, 10, 51, 64
11, 188388, Note_on_c, 10, 51, 47
11, 188480, Note_off_c, 10, 51, 64
11, 188514, Note_on_c, 10, 51, 49
11, 188559, Note_off_c, 10, 51, 64
11, 188747, Note_on_c, 10, 47, 68
11, 188842, Note_off_c, 10, 47, 64
11, 188872, Note_on_c, 10, 47, 51
11, 188952, Note_off_c, 10, 47, 64
11, 188986, Note_on_c, 10, 47, 50
11, 189032, Note_off_c, 10, 47, 64
11, 189221, Note_on_c, 10, 52, 82
11, 189325, Note_off_c, 10, 52, 64
11, 189345, Note_on_c, 10, 52, 62
11, 189439, Note_off_c, 10, 52, 64
11, 189470, Note_on_c, 10, 52, 53
11, 189514, Note_off_c, 10, 52, 64
11, 189702, Note_on_c, 10, 50, 76
11, 189810, Note_off_c, 10, 50, 64
11, 189832, Note_on_c, 10, 50, 60
11, 189925, Note_off_c, 10, 50, 64
11, 189955, Note_on_c, 10, 50, 53
11, 190016, Note_off_c, 10, 50, 64
11, 190184, Note_on_c, 10, 49, 72
11, 190290, Note_off_c, 10, 49, 64
11, 190304, Note_on_c, 10, 49, 51
11, 190399, Note_off_c, 10, 49, 64
11, 190425, Note_on_c, 10, 49, 57
11, 190484, Note_off_c, 10, 49, 64
11, 190666, Note_on_c, 10, 45, 82
11, 190769, Note_off_c, 10, 45, 64
11, 190786, Note_on_c, 10, 45, 59
11, 190850, Note_off_c, 10, 45, 64
11, 190902, Note_on_c, 10, 45, 27
11, 190956, Note_off_c, 10, 45, 64
11, 191027, Note_on_c, 10, 50, 68
11, 191111, Note_off_c, 10, 50, 64
11, 191149, Note_on_c, 10, 62, 76
11, 191211, Note_off_c, 10, 62, 64
11, 191275, Note_on_c, 10, 55, 61
11, 191316, Note_off_c, 10, 55, 64
11, 191384, Note_on_c, 10, 59, 66
11, 191446, Note_off_c, 10, 59, 64
11, 191508, Note_on_c, 10, 49, 80
11, 191590, Note_off_c, 10, 49, 64
11, 191626, Note_on_c, 10, 61, 63
11, 191698, Note_off_c, 10, 61, 64
11, 191740, Note_on_c, 10, 54, 58
11, 191793, Note_off_c, 10, 54, 64
11, 191859, Note_on_c, 10, 57, 61
11, 191920, Note_off_c, 10, 57, 64
11, 191985, Note_on_c, 10, 47, 80
11, 192064, Note_off_c, 10, 47, 64
11, 192104, Note_on_c, 10, 59, 74
11, 192169, Note_off_c, 10, 59, 64
11, 192222, Note_on_c, 10, 52, 63
11, 192274, Note_off_c, 10, 52, 64
11, 192345, Note_on_c, 10, 55, 70
11, 192402, Note_off_c, 10, 55, 64
11, 192468, Note_on_c, 10, 45, 63
11, 194456, Note_off_c, 10, 45, 64
11, 194501, Note_on_c, 10, 47, 59
11, 194562, Note_off_c, 10, 47, 64
11, 194617, Note_on_c, 10, 49, 64
11, 194668, Note_off_c, 10, 49, 64
11, 194737, Note_on_c, 10, 45, 70
11, 194790, Note_off_c, 10, 45, 64
11, 194865, Note_on_c, 10, 42, 58
11, 195127, Note_off_c, 10, 42, 64
11, 195365, Note_on_c, 10, 47, 68
11, 195623, Note_off_c, 10, 47, 64
11, 195944, Note_on_c, 10, 47, 76
11, 196001, Note_off_c, 10, 47, 64
11, 196065, Note_on_c, 10, 51, 74
11, 196114, Note_off_c, 10, 51, 64
11, 196186, Note_on_c, 10, 47, 82
11, 196237, Note_off_c, 10, 47, 64
11, 196319, Note_on_c, 10, 52, 66
11, 196578, Note_off_c, 10, 52, 64
11, 196808, Note_on_c, 10, 40, 70
11, 197058, Note_off_c, 10, 40, 64
11, 197387, Note_on_c, 10, 40, 66
11, 197443, Note_off_c, 10, 40, 64
11, 197505, Note_on_c, 10, 52, 76
11, 197564, Note_off_c, 10, 52, 64
11, 197624, Note_on_c, 10, 44, 72
11, 197673, Note_off_c, 10, 44, 64
11, 197753, Note_on_c, 10, 45, 76
11, 197991, Note_off_c, 10, 45, 64
11, 198244, Note_on_c, 10, 57, 63
11, 198488, Note_off_c, 10, 57, 64
11, 198826, Note_on_c, 10, 45, 68
11, 198885, Note_off_c, 10, 45, 64
11, 198950, Note_on_c, 10, 49, 72
11, 198996, Note_off_c, 10, 49, 64
11, 199076, Note_on_c, 10, 45, 78
11, 199121, Note_off_c, 10, 45, 64
11, 199204, Note_on_c, 10, 50, 70
11, 199459, Note_off_c, 10, 50, 64
11, 199683, Note_on_c, 10, 38, 68
11, 199921, Note_off_c, 10, 38, 64
11, 219851, Note_on_c, 10, 50, 107
11, 222015, Note_off_c, 10, 50, 64
11, 222052, Note_on_c, 10, 48, 85
11, 222090, Note_off_c, 10, 48, 64
11, 222111, Note_on_c, 10, 47, 89
11, 222153, Note_off_c, 10, 47, 64
11, 222165, Note_on_c, 10, 45, 87
11, 222211, Note_off_c, 10, 45, 64
11, 222231, Note_on_c, 10, 47, 93
11, 222324, Note_off_c, 10, 47, 64
11, 222420, Note_on_c, 10, 48, 80
11, 222460, Note_off_c, 10, 48, 64
11, 222479, Note_on_c, 10, 50, 95
11, 222552, Note_off_c, 10, 50, 64
11, 222670, Note_on_c, 10, 38, 89
11, 222709, Note_off_c, 10, 38, 64
11, 222730, Note_on_c, 10, 43, 93
11, 223135, Note_off_c, 10, 43, 64
11, 223191, Note_on_c, 10, 55, 87
11, 223615, Note_off_c, 10, 55, 64
11, 223682, Note_on_c, 10, 54, 85
11, 224190, Note_off_c, 10, 54, 64
11, 224213, Note_on_c, 10, 55, 87
11, 224259, Note_off_c, 10, 55, 64
11, 224279, Note_on_c, 10, 57, 80
11, 224319, Note_off_c, 10, 57, 64
11, 224331, Note_on_c, 10, 59, 89
11, 224372, Note_off_c, 10, 59, 64
11, 224395, Note_on_c, 10, 57, 87
11, 224440, Note_off_c, 10, 57, 64
11, 224450, Note_on_c, 10, 55, 89
11, 224485, Note_off_c, 10, 55, 64
11, 224510, Note_on_c, 10, 54, 85
11, 224549, Note_off_c, 10, 54, 64
11, 224567, Note_on_c, 10, 52, 93
11, 224611, Note_off_c, 10, 52, 64
11, 224632, Note_on_c, 10, 51, 85
11, 225211, Note_off_c, 10, 51, 64
11, 225293, Note_on_c, 10, 47, 87
11, 225340, Note_off_c, 10, 47, 64
11, 225350, Note_on_c, 10, 49, 85
11, 225439, Note_off_c, 10, 49, 64
11, 225548, Note_on_c, 10, 51, 85
11, 225597, Note_off_c, 10, 51, 64
11, 225603, Note_on_c, 10, 52, 98
11, 225688, Note_off_c, 10, 52, 64
11, 225774, Note_on_c, 10, 54, 64
11, 225827, Note_off_c, 10, 54, 64
11, 225835, Note_on_c, 10, 55, 82
11, 225926, Note_off_c, 10, 55, 64
11, 226022, Note_on_c, 10, 57, 78
11, 226060, Note_off_c, 10, 57, 64
11, 226085, Note_on_c, 10, 59, 89
11, 226210, Note_off_c, 10, 59, 64
11, 226246, Note_on_c, 10, 57, 64
11, 226274, Note_on_c, 10, 56, 82
11, 226284, Note_off_c, 10, 57, 64
11, 226300, Note_off_c, 10, 56, 64
11, 226308, Note_on_c, 10, 57, 89
11, 226399, Note_off_c, 10, 57, 64
11, 226501, Note_on_c, 10, 59, 87
11, 226536, Note_off_c, 10, 59, 64
11, 226556, Note_on_c, 10, 56, 85
11, 227065, Note_off_c, 10, 56, 64
11, 227084, Note_on_c, 10, 54, 72
11, 227124, Note_off_c, 10, 54, 64
11, 227140, Note_on_c, 10, 52, 82
11, 227180, Note_off_c, 10, 52, 64
11, 227202, Note_on_c, 10, 54, 89
11, 227242, Note_off_c, 10, 54, 64
11, 227266, Note_on_c, 10, 56, 98
11, 227309, Note_off_c, 10, 56, 64
11, 227323, Note_on_c, 10, 54, 87
11, 227364, Note_off_c, 10, 54, 64
11, 227385, Note_on_c, 10, 56, 89
11, 227428, Note_off_c, 10, 56, 64
11, 227444, Note_on_c, 10, 52, 85
11, 227492, Note_off_c, 10, 52, 64
11, 227518, Note_on_c, 10, 57, 87
11, 228028, Note_off_c, 10, 57, 64
11, 228055, Note_on_c, 10, 55, 82
11, 228097, Note_off_c, 10, 55, 64
11, 228112, Note_on_c, 10, 54, 82
11, 228153, Note_off_c, 10, 54, 64
11, 228166, Note_on_c, 10, 55, 82
11, 228211, Note_off_c, 10, 55, 64
11, 228230, Note_on_c, 10, 57, 85
11, 228270, Note_off_c, 10, 57, 64
11, 228287, Note_on_c, 10, 55, 93
11, 228324, Note_off_c, 10, 55, 64
11, 228346, Note_on_c, 10, 57, 82
11, 228386, Note_off_c, 10, 57, 64
11, 228403, Note_on_c, 10, 54, 89
11, 228451, Note_off_c, 10, 54, 64
11, 228475, Note_on_c, 10, 59, 89
11, 228982, Note_off_c, 10, 59, 64
11, 229006, Note_on_c, 10, 60, 82
11, 229047, Note_off_c, 10, 60, 64
11, 229064, Note_on_c, 10, 59, 87
11, 229100, Note_off_c, 10, 59, 64
11, 229123, Note_on_c, 10, 57, 85
11, 229167, Note_off_c, 10, 57, 64
11, 229182, Note_on_c, 10, 55, 82
11, 229224, Note_off_c, 10, 55, 64
11, 229247, Note_on_c, 10, 54, 91
11, 229285, Note_off_c, 10, 54, 64
11, 229307, Note_on_c, 10, 52, 87
11, 229349, Note_off_c, 10, 52, 64
11, 229364, Note_on_c, 10, 50, 95
11, 229414, Note_off_c, 10, 50, 64
11, 229435, Note_on_c, 10, 49, 80
11, 229929, Note_off_c, 10, 49, 64
11, 229966, Note_on_c, 10, 50, 78
11, 230005, Note_off_c, 10, 50, 64
11, 230028, Note_on_c, 10, 49, 82
11, 230069, Note_off_c, 10, 49, 64
11, 230084, Note_on_c, 10, 47, 85
11, 230132, Note_off_c, 10, 47, 64
11, 230149, Note_on_c, 10, 45, 82
11, 230191, Note_off_c, 10, 45, 64
11, 230207, Note_on_c, 10, 47, 93
11, 230248, Note_off_c, 10, 47, 64
11, 230264, Note_on_c, 10, 49, 100
11, 230309, Note_off_c, 10, 49, 64
11, 230323, Note_on_c, 10, 45, 95
11, 230366, Note_off_c, 10, 45, 64
11, 230398, Note_on_c, 10, 50, 82
11, 230898, Note_off_c, 10, 50, 64
11, 230926, Note_on_c, 10, 52, 87
11, 230965, Note_off_c, 10, 52, 64
11, 230987, Note_on_c, 10, 50, 91
11, 231031, Note_off_c, 10, 50, 64
11, 231047, Note_on_c, 10, 48, 82
11, 231086, Note_off_c, 10, 48, 64
11, 231101, Note_on_c, 10, 47, 87
11, 231159, Note_off_c, 10, 47, 64
11, 231162, Note_on_c, 10, 45, 87
11, 231201, Note_off_c, 10, 45, 64
11, 231222, Note_on_c, 10, 43, 91
11, 231268, Note_off_c, 10, 43, 64
11, 231288, Note_on_c, 10, 42, 78
11, 231326, Note_off_c, 10, 42, 64
11, 231360, Note_on_c, 10, 43, 98
11, 232575, Note_off_c, 10, 43, 64
11, 232575, End_track
12, 0, Start_track
12, 0, Title_t, "Trumpet"
12, 0, Program_c, 0, 56
12, 0, Control_c, 0, 7, 127
12, 17462, Note_on_c, 0, 97, 107
12, 17495, Note_off_c, 0, 97, 64
12, 17522, Note_on_c, 0, 97, 100
12, 17596, Note_off_c, 0, 97, 64
12, 17706, Note_on_c, 0, 93, 100
12, 17741, Note_off_c, 0, 93, 64
12, 17770, Note_on_c, 0, 93, 105
12, 17875, Note_off_c, 0, 93, 64
12, 18415, Note_on_c, 0, 98, 102
12, 18450, Note_off_c, 0, 98, 64
12, 18477, Note_on_c, 0, 98, 100
12, 18541, Note_off_c, 0, 98, 64
12, 18660, Note_on_c, 0, 93, 102
12, 18700, Note_off_c, 0, 93, 64
12, 18728, Note_on_c, 0, 93, 105
12, 18808, Note_off_c, 0, 93, 64
12, 20320, Note_on_c, 0, 88, 91
12, 20365, Note_off_c, 0, 88, 64
12, 20386, Note_on_c, 0, 88, 98
12, 20455, Note_off_c, 0, 88, 64
12, 20555, Note_on_c, 0, 93, 95
12, 20594, Note_off_c, 0, 93, 64
12, 20623, Note_on_c, 0, 93, 87
12, 20693, Note_off_c, 0, 93, 64
12, 20793, Note_on_c, 0, 93, 93
12, 20834, Note_off_c, 0, 93, 64
12, 20855, Note_on_c, 0, 91, 98
12, 20928, Note_off_c, 0, 91, 64
12, 21031, Note_on_c, 0, 93, 89
12, 21074, Note_off_c, 0, 93, 64
12, 21095, Note_on_c, 0, 90, 89
12, 21174, Note_off_c, 0, 90, 64
12, 21274, Note_on_c, 0, 91, 87
12, 21321, Note_off_c, 0, 91, 64
12, 21340, Note_on_c, 0, 93, 91
12, 21434, Note_off_c, 0, 93, 64
12, 21521, Note_on_c, 0, 95, 91
12, 21563, Note_off_c, 0, 95, 64
12, 21585, Note_on_c, 0, 88, 102
12, 21679, Note_off_c, 0, 88, 64
12, 21760, Note_on_c, 0, 93, 89
12, 21802, Note_off_c, 0, 93, 64
12, 21824, Note_on_c, 0, 86, 93
12, 21908, Note_off_c, 0, 86, 64
12, 22005, Note_on_c, 0, 93, 82
12, 22050, Note_off_c, 0, 93, 64
12, 22078, Note_on_c, 0, 81, 85
12, 22164, Note_off_c, 0, 81, 64
12, 22254, Note_on_c, 0, 93, 85
12, 22294, Note_off_c, 0, 93, 64
12, 22320, Note_on_c, 0, 91, 91
12, 22396, Note_off_c, 0, 91, 64
12, 22479, Note_on_c, 0, 93, 80
12, 22520, Note_off_c, 0, 93, 64
12, 22547, Note_on_c, 0, 90, 91
12, 22649, Note_off_c, 0, 90, 64
12, 22733, Note_on_c, 0, 93, 80
12, 22781, Note_off_c, 0, 93, 64
12, 22803, Note_on_c, 0, 98, 93
12, 22877, Note_off_c, 0, 98, 64
12, 22974, Note_on_c, 0, 95, 85
12, 23013, Note_off_c, 0, 95, 64
12, 23046, Note_on_c, 0, 97, 98
12, 23541, Note_off_c, 0, 97, 64
12, 40503, Note_on_c, 0, 97, 113
12, 40531, Note_off_c, 0, 97, 64
12, 40566, Note_on_c, 0, 97, 105
12, 40635, Note_off_c, 0, 97, 64
12, 40745, Note_on_c, 0, 93, 100
12, 40781, Note_off_c, 0, 93, 64
12, 40809, Note_on_c, 0, 93, 100
12, 40901, Note_off_c, 0, 93, 64
12, 41468, Note_on_c, 0, 98, 102
12, 41503, Note_off_c, 0, 98, 64
12, 41528, Note_on_c, 0, 98, 100
12, 41592, Note_off_c, 0, 98, 64
12, 41696, Note_on_c, 0, 93, 105
12, 41733, Note_off_c, 0, 93, 64
12, 41761, Note_on_c, 0, 93, 102
12, 41848, Note_off_c, 0, 93, 64
12, 43356, Note_on_c, 0, 88, 93
12, 43396, Note_off_c, 0, 88, 64
12, 43421, Note_on_c, 0, 88, 100
12, 43493, Note_off_c, 0, 88, 64
12, 43603, Note_on_c, 0, 93, 100
12, 43638, Note_off_c, 0, 93, 64
12, 43668, Note_on_c, 0, 93, 100
12, 43739, Note_off_c, 0, 93, 64
12, 43837, Note_on_c, 0, 93, 87
12, 43874, Note_off_c, 0, 93, 64
12, 43897, Note_on_c, 0, 91, 91
12, 43972, Note_off_c, 0, 91, 64
12, 44078, Note_on_c, 0, 93, 87
12, 44118, Note_off_c, 0, 93, 64
12, 44138, Note_on_c, 0, 90, 100
12, 44236, Note_off_c, 0, 90, 64
12, 44312, Note_on_c, 0, 91, 87
12, 44357, Note_off_c, 0, 91, 64
12, 44376, Note_on_c, 0, 93, 89
12, 44465, Note_off_c, 0, 93, 64
12, 44553, Note_on_c, 0, 95, 89
12, 44597, Note_off_c, 0, 95, 64
12, 44620, Note_on_c, 0, 88, 100
12, 44714, Note_off_c, 0, 88, 64
12, 44796, Note_on_c, 0, 93, 89
12, 44834, Note_off_c, 0, 93, 64
12, 44860, Note_on_c, 0, 86, 95
12, 44941, Note_off_c, 0, 86, 64
12, 45039, Note_on_c, 0, 93, 87
12, 45089, Note_off_c, 0, 93, 64
12, 45110, Note_on_c, 0, 81, 85
12, 45195, Note_off_c, 0, 81, 64
12, 45286, Note_on_c, 0, 93, 100
12, 45322, Note_off_c, 0, 93, 64
12, 45349, Note_on_c, 0, 91, 98
12, 45438, Note_off_c, 0, 91, 64
12, 45533, Note_on_c, 0, 93, 85
12, 45572, Note_off_c, 0, 93, 64
12, 45595, Note_on_c, 0, 90, 89
12, 45689, Note_off_c, 0, 90, 64
12, 45771, Note_on_c, 0, 93, 80
12, 45813, Note_off_c, 0, 93, 64
12, 45842, Note_on_c, 0, 98, 89
12, 45915, Note_off_c, 0, 98, 64
12, 46018, Note_on_c, 0, 95, 82
12, 46051, Note_off_c, 0, 95, 64
12, 46088, Note_on_c, 0, 97, 102
12, 46225, Note_off_c, 0, 97, 64
12, 71147, Note_on_c, 0, 78, 48
12, 71245, Note_off_c, 0, 78, 64
12, 71270, Note_on_c, 0, 78, 59
12, 71366, Note_off_c, 0, 78, 64
12, 71393, Note_on_c, 0, 78, 59
12, 71487, Note_off_c, 0, 78, 64
12, 71516, Note_on_c, 0, 78, 56
12, 71608, Note_off_c, 0, 78, 64
12, 71639, Note_on_c, 0, 78, 51
12, 71724, Note_off_c, 0, 78, 64
12, 71756, Note_on_c, 0, 78, 55
12, 71849, Note_off_c, 0, 78, 64
12, 71878, Note_on_c, 0, 78, 52
12, 71963, Note_off_c, 0, 78, 64
12, 71998, Note_on_c, 0, 78, 49
12, 72082, Note_off_c, 0, 78, 64
12, 72117, Note_on_c, 0, 78, 52
12, 72205, Note_off_c, 0, 78, 64
12, 72234, Note_on_c, 0, 78, 53
12, 72327, Note_off_c, 0, 78, 64
12, 72353, Note_on_c, 0, 78, 47
12, 72443, Note_off_c, 0, 78, 64
12, 72478, Note_on_c, 0, 78, 55
12, 72613, Note_off_c, 0, 78, 64
12, 75475, Note_on_c, 0, 81, 61
12, 75565, Note_off_c, 0, 81, 64
12, 75589, Note_on_c, 0, 81, 59
12, 75685, Note_off_c, 0, 81, 64
12, 75718, Note_on_c, 0, 81, 63
12, 75808, Note_off_c, 0, 81, 64
12, 75835, Note_on_c, 0, 81, 60
12, 75931, Note_off_c, 0, 81, 64
12, 75960, Note_on_c, 0, 81, 59
12, 76050, Note_off_c, 0, 81, 64
12, 76080, Note_on_c, 0, 81, 60
12, 76169, Note_off_c, 0, 81, 64
12, 76196, Note_on_c, 0, 81, 58
12, 76270, Note_off_c, 0, 81, 64
12, 76309, Note_on_c, 0, 81, 59
12, 76410, Note_off_c, 0, 81, 64
12, 76433, Note_on_c, 0, 88, 74
12, 76525, Note_off_c, 0, 88, 64
12, 76553, Note_on_c, 0, 93, 76
12, 76645, Note_off_c, 0, 93, 64
12, 76671, Note_on_c, 0, 88, 66
12, 76760, Note_off_c, 0, 88, 64
12, 76792, Note_on_c, 0, 90, 70
12, 76923, Note_off_c, 0, 90, 64
12, 98391, Note_on_c, 0, 88, 98
12, 98466, Note_off_c, 0, 88, 64
12, 98634, Note_on_c, 0, 90, 89
12, 98706, Note_off_c, 0, 90, 64
12, 98870, Note_on_c, 0, 91, 98
12, 98946, Note_off_c, 0, 91, 64
12, 99122, Note_on_c, 0, 90, 100
12, 99187, Note_off_c, 0, 90, 64
12, 99358, Note_on_c, 0, 88, 91
12, 99427, Note_off_c, 0, 88, 64
12, 99598, Note_on_c, 0, 93, 89
12, 99667, Note_off_c, 0, 93, 64
12, 99839, Note_on_c, 0, 90, 93
12, 99904, Note_off_c, 0, 90, 64
12, 100078, Note_on_c, 0, 92, 93
12, 100144, Note_off_c, 0, 92, 64
12, 100297, Note_on_c, 0, 93, 87
12, 100376, Note_off_c, 0, 93, 64
12, 100429, Note_on_c, 0, 81, 82
12, 100458, Note_off_c, 0, 81, 64
12, 100481, Note_on_c, 0, 81, 87
12, 100512, Note_off_c, 0, 81, 64
12, 100542, Note_on_c, 0, 81, 98
12, 100581, Note_off_c, 0, 81, 64
12, 100664, Note_on_c, 0, 81, 85
12, 100705, Note_off_c, 0, 81, 64
12, 100794, Note_on_c, 0, 81, 78
12, 100945, Note_off_c, 0, 81, 64
12, 103796, Note_on_c, 0, 81, 58
12, 103890, Note_off_c, 0, 81, 64
12, 103916, Note_on_c, 0, 81, 68
12, 104011, Note_off_c, 0, 81, 64
12, 104032, Note_on_c, 0, 81, 74
12, 104127, Note_off_c, 0, 81, 64
12, 104154, Note_on_c, 0, 81, 76
12, 104246, Note_off_c, 0, 81, 64
12, 104270, Note_on_c, 0, 81, 66
12, 104366, Note_off_c, 0, 81, 64
12, 104390, Note_on_c, 0, 81, 70
12, 104478, Note_off_c, 0, 81, 64
12, 104503, Note_on_c, 0, 81, 68
12, 104586, Note_off_c, 0, 81, 64
12, 104626, Note_on_c, 0, 81, 78
12, 104724, Note_off_c, 0, 81, 64
12, 104746, Note_on_c, 0, 88, 85
12, 104831, Note_off_c, 0, 88, 64
12, 104864, Note_on_c, 0, 88, 85
12, 104949, Note_off_c, 0, 88, 64
12, 104985, Note_on_c, 0, 93, 76
12, 105067, Note_off_c, 0, 93, 64
12, 105112, Note_on_c, 0, 90, 89
12, 105207, Note_off_c, 0, 90, 64
12, 105234, Note_on_c, 0, 78, 82
12, 105320, Note_off_c, 0, 78, 64
12, 105352, Note_on_c, 0, 78, 93
12, 105440, Note_off_c, 0, 78, 64
12, 105464, Note_on_c, 0, 81, 82
12, 105545, Note_off_c, 0, 81, 64
12, 105585, Note_on_c, 0, 81, 80
12, 105674, Note_off_c, 0, 81, 64
12, 105704, Note_on_c, 0, 86, 85
12, 105787, Note_off_c, 0, 86, 64
12, 105829, Note_on_c, 0, 86, 87
12, 105920, Note_off_c, 0, 86, 64
12, 105948, Note_on_c, 0, 90, 89
12, 106026, Note_off_c, 0, 90, 64
12, 106064, Note_on_c, 0, 90, 85
12, 106149, Note_off_c, 0, 90, 64
12, 106188, Note_on_c, 0, 93, 85
12, 106262, Note_off_c, 0, 93, 64
12, 106305, Note_on_c, 0, 93, 80
12, 106370, Note_off_c, 0, 93, 64
12, 106424, Note_on_c, 0, 98, 85
12, 106491, Note_off_c, 0, 98, 64
12, 106545, Note_on_c, 0, 98, 89
12, 106667, Note_off_c, 0, 98, 64
12, 125768, Note_on_c, 0, 86, 105
12, 125892, Note_off_c, 0, 86, 64
12, 126228, Note_on_c, 0, 90, 107
12, 126348, Note_off_c, 0, 90, 64
12, 126703, Note_on_c, 0, 93, 105
12, 126833, Note_off_c, 0, 93, 64
12, 127202, Note_on_c, 0, 98, 100
12, 127328, Note_off_c, 0, 98, 64
12, 127859, Note_on_c, 0, 93, 100
12, 127894, Note_off_c, 0, 93, 64
12, 127917, Note_on_c, 0, 93, 98
12, 127988, Note_off_c, 0, 93, 64
12, 128089, Note_on_c, 0, 93, 87
12, 128131, Note_off_c, 0, 93, 64
12, 128157, Note_on_c, 0, 98, 95
12, 128229, Note_off_c, 0, 98, 64
12, 128333, Note_on_c, 0, 93, 85
12, 128371, Note_off_c, 0, 93, 64
12, 128397, Note_on_c, 0, 95, 89
12, 128487, Note_off_c, 0, 95, 64
12, 128578, Note_on_c, 0, 96, 91
12, 128610, Note_off_c, 0, 96, 64
12, 128648, Note_on_c, 0, 95, 105
12, 128887, Note_off_c, 0, 95, 64
12, 136497, Note_on_c, 0, 86, 87
12, 136535, Note_off_c, 0, 86, 64
12, 136564, Note_on_c, 0, 86, 91
12, 136628, Note_off_c, 0, 86, 64
12, 136736, Note_on_c, 0, 90, 85
12, 136770, Note_off_c, 0, 90, 64
12, 136799, Note_on_c, 0, 90, 89
12, 136869, Note_off_c, 0, 90, 64
12, 136978, Note_on_c, 0, 93, 87
12, 137013, Note_off_c, 0, 93, 64
12, 137037, Note_on_c, 0, 93, 89
12, 137106, Note_off_c, 0, 93, 64
12, 137212, Note_on_c, 0, 95, 82
12, 137239, Note_off_c, 0, 95, 64
12, 137281, Note_on_c, 0, 95, 107
12, 137376, Note_off_c, 0, 95, 64
12, 137762, Note_on_c, 0, 91, 110
12, 137849, Note_off_c, 0, 91, 64
12, 146028, Note_on_c, 0, 86, 82
12, 146120, Note_off_c, 0, 86, 64
12, 146144, Note_on_c, 0, 86, 82
12, 146244, Note_off_c, 0, 86, 64
12, 146267, Note_on_c, 0, 86, 87
12, 146361, Note_off_c, 0, 86, 64
12, 146393, Note_on_c, 0, 86, 93
12, 146489, Note_off_c, 0, 86, 64
12, 146512, Note_on_c, 0, 90, 87
12, 146613, Note_off_c, 0, 90, 64
12, 146632, Note_on_c, 0, 90, 89
12, 146730, Note_off_c, 0, 90, 64
12, 146760, Note_on_c, 0, 93, 102
12, 146835, Note_off_c, 0, 93, 64
12, 146888, Note_on_c, 0, 91, 95
12, 146995, Note_off_c, 0, 91, 64
12, 147468, Note_on_c, 0, 88, 72
12, 147564, Note_off_c, 0, 88, 64
12, 147586, Note_on_c, 0, 88, 85
12, 147685, Note_off_c, 0, 88, 64
12, 147715, Note_on_c, 0, 88, 91
12, 147793, Note_off_c, 0, 88, 64
12, 147825, Note_on_c, 0, 88, 98
12, 147930, Note_off_c, 0, 88, 64
12, 147950, Note_on_c, 0, 92, 91
12, 148047, Note_off_c, 0, 92, 64
12, 148069, Note_on_c, 0, 92, 89
12, 148165, Note_off_c, 0, 92, 64
12, 148190, Note_on_c, 0, 95, 89
12, 148272, Note_off_c, 0, 95, 64
12, 148313, Note_on_c, 0, 93, 102
12, 148430, Note_off_c, 0, 93, 64
12, 150837, Note_on_c, 0, 86, 87
12, 150872, Note_off_c, 0, 86, 64
12, 150887, Note_on_c, 0, 88, 91
12, 150934, Note_off_c, 0, 88, 64
12, 150949, Note_on_c, 0, 90, 93
12, 151021, Note_off_c, 0, 90, 64
12, 151079, Note_on_c, 0, 90, 82
12, 151122, Note_off_c, 0, 90, 64
12, 151130, Note_on_c, 0, 91, 85
12, 151172, Note_off_c, 0, 91, 64
12, 151189, Note_on_c, 0, 93, 91
12, 151275, Note_off_c, 0, 93, 64
12, 151314, Note_on_c, 0, 90, 85
12, 151355, Note_off_c, 0, 90, 64
12, 151366, Note_on_c, 0, 91, 89
12, 151409, Note_off_c, 0, 91, 64
12, 151427, Note_on_c, 0, 93, 85
12, 151501, Note_off_c, 0, 93, 64
12, 151551, Note_on_c, 0, 93, 70
12, 151590, Note_off_c, 0, 93, 64
12, 151608, Note_on_c, 0, 95, 87
12, 151643, Note_off_c, 0, 95, 64
12, 151671, Note_on_c, 0, 96, 102
12, 151756, Note_off_c, 0, 96, 64
12, 151790, Note_on_c, 0, 96, 98
12, 151822, Note_off_c, 0, 96, 64
12, 151845, Note_on_c, 0, 95, 93
12, 151880, Note_off_c, 0, 95, 64
12, 151907, Note_on_c, 0, 96, 100
12, 151992, Note_off_c, 0, 96, 64
12, 152027, Note_on_c, 0, 98, 89
12, 152058, Note_off_c, 0, 98, 64
12, 152080, Note_on_c, 0, 96, 107
12, 152109, Note_off_c, 0, 96, 64
12, 152147, Note_on_c, 0, 95, 107
12, 152284, Note_off_c, 0, 95, 64
12, 152516, Note_on_c, 0, 95, 95
12, 152564, Note_off_c, 0, 95, 64
12, 152638, Note_on_c, 0, 93, 87
12, 152775, Note_off_c, 0, 93, 64
12, 152988, Note_on_c, 0, 93, 87
12, 153043, Note_off_c, 0, 93, 64
12, 153113, Note_on_c, 0, 91, 85
12, 153152, Note_off_c, 0, 91, 64
12, 153164, Note_on_c, 0, 90, 85
12, 153200, Note_off_c, 0, 90, 64
12, 153223, Note_on_c, 0, 88, 80
12, 153271, Note_off_c, 0, 88, 64
12, 153283, Note_on_c, 0, 91, 82
12, 153317, Note_off_c, 0, 91, 64
12, 153342, Note_on_c, 0, 90, 87
12, 153383, Note_off_c, 0, 90, 64
12, 153398, Note_on_c, 0, 88, 82
12, 153432, Note_off_c, 0, 88, 64
12, 153458, Note_on_c, 0, 86, 91
12, 153494, Note_off_c, 0, 86, 64
12, 153521, Note_on_c, 0, 90, 87
12, 153552, Note_off_c, 0, 90, 64
12, 153587, Note_on_c, 0, 88, 113
12, 153718, Note_off_c, 0, 88, 64
12, 154185, Note_on_c, 0, 81, 70
12, 154280, Note_off_c, 0, 81, 64
12, 154308, Note_on_c, 0, 81, 78
12, 154396, Note_off_c, 0, 81, 64
12, 154425, Note_on_c, 0, 81, 60
12, 154506, Note_off_c, 0, 81, 64
12, 154544, Note_on_c, 0, 81, 80
12, 154645, Note_off_c, 0, 81, 64
12, 154667, Note_on_c, 0, 88, 89
12, 154750, Note_off_c, 0, 88, 64
12, 154780, Note_on_c, 0, 88, 89
12, 154871, Note_off_c, 0, 88, 64
12, 154908, Note_on_c, 0, 93, 91
12, 154973, Note_off_c, 0, 93, 64
12, 155019, Note_on_c, 0, 93, 98
12, 155163, Note_off_c, 0, 93, 64
12, 155392, Note_on_c, 0, 95, 91
12, 155423, Note_off_c, 0, 95, 64
12, 155441, Note_on_c, 0, 93, 89
12, 155480, Note_off_c, 0, 93, 64
12, 155508, Note_on_c, 0, 91, 98
12, 155646, Note_off_c, 0, 91, 64
12, 155864, Note_on_c, 0, 93, 85
12, 155898, Note_off_c, 0, 93, 64
12, 155914, Note_on_c, 0, 91, 89
12, 155956, Note_off_c, 0, 91, 64
12, 155978, Note_on_c, 0, 90, 95
12, 156037, Note_off_c, 0, 90, 64
12, 156104, Note_on_c, 0, 93, 85
12, 156152, Note_off_c, 0, 93, 64
12, 156224, Note_on_c, 0, 95, 87
12, 156272, Note_off_c, 0, 95, 64
12, 156351, Note_on_c, 0, 91, 87
12, 156399, Note_off_c, 0, 91, 64
12, 156476, Note_on_c, 0, 97, 85
12, 156520, Note_off_c, 0, 97, 64
12, 156596, Note_on_c, 0, 93, 80
12, 156642, Note_off_c, 0, 93, 64
12, 156717, Note_on_c, 0, 98, 89
12, 156763, Note_off_c, 0, 98, 64
12, 156834, Note_on_c, 0, 91, 87
12, 156882, Note_off_c, 0, 91, 64
12, 156958, Note_on_c, 0, 90, 93
12, 157085, Note_off_c, 0, 90, 64
12, 157199, Note_on_c, 0, 88, 102
12, 157327, Note_off_c, 0, 88, 64
12, 157438, Note_on_c, 0, 86, 100
12, 157577, Note_off_c, 0, 86, 64
12, 172920, Note_on_c, 0, 88, 82
12, 173017, Note_off_c, 0, 88, 64
12, 173032, Note_on_c, 0, 93, 85
12, 173139, Note_off_c, 0, 93, 64
12, 173156, Note_on_c, 0, 88, 76
12, 173264, Note_off_c, 0, 88, 64
12, 173398, Note_on_c, 0, 88, 85
12, 173484, Note_off_c, 0, 88, 64
12, 173512, Note_on_c, 0, 91, 87
12, 173611, Note_off_c, 0, 91, 64
12, 173628, Note_on_c, 0, 88, 72
12, 173759, Note_off_c, 0, 88, 64
12, 173864, Note_on_c, 0, 88, 98
12, 173906, Note_off_c, 0, 88, 64
12, 173914, Note_on_c, 0, 86, 87
12, 173956, Note_off_c, 0, 86, 64
12, 173979, Note_on_c, 0, 88, 87
12, 174054, Note_off_c, 0, 88, 64
12, 174101, Note_on_c, 0, 90, 80
12, 174138, Note_off_c, 0, 90, 64
12, 174152, Note_on_c, 0, 88, 98
12, 174196, Note_off_c, 0, 88, 64
12, 174214, Note_on_c, 0, 86, 85
12, 174288, Note_off_c, 0, 86, 64
12, 174345, Note_on_c, 0, 90, 87
12, 174446, Note_off_c, 0, 90, 64
12, 174467, Note_on_c, 0, 95, 91
12, 174569, Note_off_c, 0, 95, 64
12, 174585, Note_on_c, 0, 90, 78
12, 174704, Note_off_c, 0, 90, 64
12, 174839, Note_on_c, 0, 90, 82
12, 174927, Note_off_c, 0, 90, 64
12, 174954, Note_on_c, 0, 93, 89
12, 175045, Note_off_c, 0, 93, 64
12, 175069, Note_on_c, 0, 90, 76
12, 175208, Note_off_c, 0, 90, 64
12, 175314, Note_on_c, 0, 90, 82
12, 175357, Note_off_c, 0, 90, 64
12, 175366, Note_on_c, 0, 88, 85
12, 175414, Note_off_c, 0, 88, 64
12, 175427, Note_on_c, 0, 90, 85
12, 175511, Note_off_c, 0, 90, 64
12, 175552, Note_on_c, 0, 92, 76
12, 175597, Note_off_c, 0, 92, 64
12, 175607, Note_on_c, 0, 90, 87
12, 175654, Note_off_c, 0, 90, 64
12, 175671, Note_on_c, 0, 88, 66
12, 175777, Note_off_c, 0, 88, 64
12, 175798, Note_on_c, 0, 88, 62
12, 175887, Note_off_c, 0, 88, 64
12, 175916, Note_on_c, 0, 88, 64
12, 176018, Note_off_c, 0, 88, 64
12, 176041, Note_on_c, 0, 88, 68
12, 176139, Note_off_c, 0, 88, 64
12, 176162, Note_on_c, 0, 88, 80
12, 176256, Note_off_c, 0, 88, 64
12, 176281, Note_on_c, 0, 88, 80
12, 176379, Note_off_c, 0, 88, 64
12, 176401, Note_on_c, 0, 88, 85
12, 176486, Note_off_c, 0, 88, 64
12, 176521, Note_on_c, 0, 88, 89
12, 176600, Note_off_c, 0, 88, 64
12, 176632, Note_on_c, 0, 88, 78
12, 176724, Note_off_c, 0, 88, 64
12, 176750, Note_on_c, 0, 95, 87
12, 176844, Note_off_c, 0, 95, 64
12, 176866, Note_on_c, 0, 92, 82
12, 176961, Note_off_c, 0, 92, 64
12, 176982, Note_on_c, 0, 95, 85
12, 177073, Note_off_c, 0, 95, 64
12, 177106, Note_on_c, 0, 97, 89
12, 177234, Note_off_c, 0, 97, 64
12, 181081, Note_on_c, 0, 90, 64
12, 181174, Note_off_c, 0, 90, 64
12, 181195, Note_on_c, 0, 90, 76
12, 181298, Note_off_c, 0, 90, 64
12, 181320, Note_on_c, 0, 90, 76
12, 181412, Note_off_c, 0, 90, 64
12, 181438, Note_on_c, 0, 90, 82
12, 181534, Note_off_c, 0, 90, 64
12, 181557, Note_on_c, 0, 90, 82
12, 181649, Note_off_c, 0, 90, 64
12, 181674, Note_on_c, 0, 90, 87
12, 181767, Note_off_c, 0, 90, 64
12, 181789, Note_on_c, 0, 90, 82
12, 181881, Note_off_c, 0, 90, 64
12, 181912, Note_on_c, 0, 90, 85
12, 182011, Note_off_c, 0, 90, 64
12, 182034, Note_on_c, 0, 90, 85
12, 182128, Note_off_c, 0, 90, 64
12, 182155, Note_on_c, 0, 90, 87
12, 182243, Note_off_c, 0, 90, 64
12, 182272, Note_on_c, 0, 90, 87
12, 182348, Note_off_c, 0, 90, 64
12, 182387, Note_on_c, 0, 95, 85
12, 182525, Note_off_c, 0, 95, 64
12, 202787, Note_on_c, 0, 93, 105
12, 202877, Note_off_c, 0, 93, 64
12, 203025, Note_on_c, 0, 93, 95
12, 203089, Note_off_c, 0, 93, 64
12, 203263, Note_on_c, 0, 88, 100
12, 203343, Note_off_c, 0, 88, 64
12, 203504, Note_on_c, 0, 88, 95
12, 203591, Note_off_c, 0, 88, 64
12, 203742, Note_on_c, 0, 91, 93
12, 203830, Note_off_c, 0, 91, 64
12, 203985, Note_on_c, 0, 90, 100
12, 204080, Note_off_c, 0, 90, 64
12, 204590, Note_on_c, 0, 74, 87
12, 204686, Note_off_c, 0, 74, 64
12, 204710, Note_on_c, 0, 74, 85
12, 204811, Note_off_c, 0, 74, 64
12, 204830, Note_on_c, 0, 74, 85
12, 204923, Note_off_c, 0, 74, 64
12, 204952, Note_on_c, 0, 74, 82
12, 205038, Note_off_c, 0, 74, 64
12, 205071, Note_on_c, 0, 93, 100
12, 205143, Note_off_c, 0, 93, 64
12, 205184, Note_on_c, 0, 98, 98
12, 205255, Note_off_c, 0, 98, 64
12, 205309, Note_on_c, 0, 93, 87
12, 205377, Note_off_c, 0, 93, 64
12, 205433, Note_on_c, 0, 95, 113
12, 205547, Note_off_c, 0, 95, 64
12, 208422, Note_on_c, 0, 86, 85
12, 208512, Note_off_c, 0, 86, 64
12, 208537, Note_on_c, 0, 86, 87
12, 208630, Note_off_c, 0, 86, 64
12, 208663, Note_on_c, 0, 86, 87
12, 208745, Note_off_c, 0, 86, 64
12, 208784, Note_on_c, 0, 86, 95
12, 208882, Note_off_c, 0, 86, 64
12, 208904, Note_on_c, 0, 90, 93
12, 208984, Note_off_c, 0, 90, 64
12, 209020, Note_on_c, 0, 90, 85
12, 209105, Note_off_c, 0, 90, 64
12, 209145, Note_on_c, 0, 93, 91
12, 209225, Note_off_c, 0, 93, 64
12, 209272, Note_on_c, 0, 91, 113
12, 209397, Note_off_c, 0, 91, 64
12, 209869, Note_on_c, 0, 88, 87
12, 209957, Note_off_c, 0, 88, 64
12, 209989, Note_on_c, 0, 88, 95
12, 210080, Note_off_c, 0, 88, 64
12, 210114, Note_on_c, 0, 88, 87
12, 210194, Note_off_c, 0, 88, 64
12, 210232, Note_on_c, 0, 88, 93
12, 210327, Note_off_c, 0, 88, 64
12, 210348, Note_on_c, 0, 92, 82
12, 210436, Note_off_c, 0, 92, 64
12, 210471, Note_on_c, 0, 92, 93
12, 210556, Note_off_c, 0, 92, 64
12, 210588, Note_on_c, 0, 95, 89
12, 210668, Note_off_c, 0, 95, 64
12, 210707, Note_on_c, 0, 93, 107
12, 210833, Note_off_c, 0, 93, 64
12, 213234, Note_on_c, 0, 86, 89
12, 213274, Note_off_c, 0, 86, 64
12, 213285, Note_on_c, 0, 88, 87
12, 213327, Note_off_c, 0, 88, 64
12, 213347, Note_on_c, 0, 90, 87
12, 213397, Note_off_c, 0, 90, 64
12, 213470, Note_on_c, 0, 90, 80
12, 213519, Note_on_c, 0, 91, 78
12, 213524, Note_off_c, 0, 90, 64
12, 213564, Note_off_c, 0, 91, 64
12, 213591, Note_on_c, 0, 93, 89
12, 213656, Note_off_c, 0, 93, 64
12, 213717, Note_on_c, 0, 90, 87
12, 213760, Note_off_c, 0, 90, 64
12, 213766, Note_on_c, 0, 91, 80
12, 213810, Note_off_c, 0, 91, 64
12, 213832, Note_on_c, 0, 93, 89
12, 213886, Note_off_c, 0, 93, 64
12, 213949, Note_on_c, 0, 93, 87
12, 213995, Note_off_c, 0, 93, 64
12, 214006, Note_on_c, 0, 95, 82
12, 214039, Note_off_c, 0, 95, 64
12, 214070, Note_on_c, 0, 96, 89
12, 214130, Note_off_c, 0, 96, 64
12, 214187, Note_on_c, 0, 96, 70
12, 214227, Note_off_c, 0, 96, 64
12, 214241, Note_on_c, 0, 95, 82
12, 214279, Note_off_c, 0, 95, 64
12, 214308, Note_on_c, 0, 96, 98
12, 214373, Note_off_c, 0, 96, 64
12, 214438, Note_on_c, 0, 98, 89
12, 214473, Note_off_c, 0, 98, 64
12, 214492, Note_on_c, 0, 96, 93
12, 214520, Note_off_c, 0, 96, 64
12, 214553, Note_on_c, 0, 95, 95
12, 214680, Note_off_c, 0, 95, 64
12, 214905, Note_on_c, 0, 95, 89
12, 214958, Note_off_c, 0, 95, 64
12, 215024, Note_on_c, 0, 93, 102
12, 215153, Note_off_c, 0, 93, 64
12, 215382, Note_on_c, 0, 93, 89
12, 215439, Note_off_c, 0, 93, 64
12, 215507, Note_on_c, 0, 91, 100
12, 215542, Note_off_c, 0, 91, 64
12, 215562, Note_on_c, 0, 90, 93
12, 215598, Note_off_c, 0, 90, 64
12, 215617, Note_on_c, 0, 88, 85
12, 215654, Note_off_c, 0, 88, 64
12, 215680, Note_on_c, 0, 91, 82
12, 215712, Note_off_c, 0, 91, 64
12, 215745, Note_on_c, 0, 90, 87
12, 215792, Note_off_c, 0, 90, 64
12, 215802, Note_on_c, 0, 88, 91
12, 215837, Note_off_c, 0, 88, 64
12, 215866, Note_on_c, 0, 86, 89
12, 215899, Note_off_c, 0, 86, 64
12, 215925, Note_on_c, 0, 90, 89
12, 215957, Note_off_c, 0, 90, 64
12, 215990, Note_on_c, 0, 88, 110
12, 216116, Note_off_c, 0, 88, 64
12, 216590, Note_on_c, 0, 81, 85
12, 216680, Note_off_c, 0, 81, 64
12, 216706, Note_on_c, 0, 81, 91
12, 216800, Note_off_c, 0, 81, 64
12, 216829, Note_on_c, 0, 81, 93
12, 216918, Note_off_c, 0, 81, 64
12, 216950, Note_on_c, 0, 81, 98
12, 217042, Note_off_c, 0, 81, 64
12, 217068, Note_on_c, 0, 88, 87
12, 217157, Note_off_c, 0, 88, 64
12, 217186, Note_on_c, 0, 88, 87
12, 217262, Note_off_c, 0, 88, 64
12, 217304, Note_on_c, 0, 93, 87
12, 217359, Note_off_c, 0, 93, 64
12, 217425, Note_on_c, 0, 93, 113
12, 217551, Note_off_c, 0, 93, 64
12, 217786, Note_on_c, 0, 95, 100
12, 217814, Note_off_c, 0, 95, 64
12, 217836, Note_on_c, 0, 93, 98
12, 217874, Note_off_c, 0, 93, 64
12, 217903, Note_on_c, 0, 91, 95
12, 218024, Note_off_c, 0, 91, 64
12, 218265, Note_on_c, 0, 93, 98
12, 218298, Note_off_c, 0, 93, 64
12, 218314, Note_on_c, 0, 91, 89
12, 218349, Note_off_c, 0, 91, 64
12, 218379, Note_on_c, 0, 90, 98
12, 218432, Note_off_c, 0, 90, 64
12, 218503, Note_on_c, 0, 93, 89
12, 218550, Note_off_c, 0, 93, 64
12, 218624, Note_on_c, 0, 95, 85
12, 218680, Note_off_c, 0, 95, 64
12, 218745, Note_on_c, 0, 91, 80
12, 218792, Note_off_c, 0, 91, 64
12, 218869, Note_on_c, 0, 97, 82
12, 218915, Note_off_c, 0, 97, 64
12, 218992, Note_on_c, 0, 93, 85
12, 219032, Note_off_c, 0, 93, 64
12, 219115, Note_on_c, 0, 98, 89
12, 219159, Note_off_c, 0, 98, 64
12, 219233, Note_on_c, 0, 91, 89
12, 219284, Note_off_c, 0, 91, 64
12, 219359, Note_on_c, 0, 90, 107
12, 219473, Note_off_c, 0, 90, 64
12, 219593, Note_on_c, 0, 88, 107
12, 219722, Note_off_c, 0, 88, 64
12, 232502, Note_on_c, 0, 88, 93
12, 232532, Note_off_c, 0, 88, 64
12, 232561, Note_on_c, 0, 88, 98
12, 232622, Note_off_c, 0, 88, 64
12, 232744, Note_on_c, 0, 93, 85
12, 232779, Note_off_c, 0, 93, 64
12, 232802, Note_on_c, 0, 93, 91
12, 232869, Note_off_c, 0, 93, 64
12, 232971, Note_on_c, 0, 95, 82
12, 233003, Note_off_c, 0, 95, 64
12, 233034, Note_on_c, 0, 91, 98
12, 233099, Note_off_c, 0, 91, 64
12, 233205, Note_on_c, 0, 93, 85
12, 233238, Note_off_c, 0, 93, 64
12, 233270, Note_on_c, 0, 90, 98
12, 233343, Note_off_c, 0, 90, 64
12, 233445, Note_on_c, 0, 91, 85
12, 233479, Note_off_c, 0, 91, 64
12, 233505, Note_on_c, 0, 90, 89
12, 233586, Note_off_c, 0, 90, 64
12, 233677, Note_on_c, 0, 88, 85
12, 233712, Note_off_c, 0, 88, 64
12, 233738, Note_on_c, 0, 90, 91
12, 233810, Note_on_c, 0, 88, 70
12, 233815, Note_off_c, 0, 90, 64
12, 233836, Note_off_c, 0, 88, 64
12, 233838, Note_on_c, 0, 90, 66
12, 233863, Note_off_c, 0, 90, 64
12, 233863, Note_on_c, 0, 88, 68
12, 233882, Note_off_c, 0, 88, 64
12, 233887, Note_on_c, 0, 90, 64
12, 233901, Note_off_c, 0, 90, 64
12, 233903, Note_on_c, 0, 88, 72
12, 233924, Note_on_c, 0, 90, 87
12, 233925, Note_off_c, 0, 88, 64
12, 233944, Note_off_c, 0, 90, 64
12, 233945, Note_on_c, 0, 88, 72
12, 233963, Note_on_c, 0, 90, 82
12, 233967, Note_off_c, 0, 88, 64
12, 233981, Note_on_c, 0, 88, 87
12, 233987, Note_off_c, 0, 90, 64
12, 234083, Note_off_c, 0, 88, 64
12, 234158, Note_on_c, 0, 86, 93
12, 234195, Note_off_c, 0, 86, 64
12, 234257, Note_on_c, 0, 86, 100
12, 234739, Note_off_c, 0, 86, 64
12, 234739, End_track
13, 0, Start_track
13, 0, Title_t, "Trumpet"
13, 0, Program_c, 1, 56
13, 0, Control_c, 1, 7, 127
13, 17466, Note_on_c, 1, 93, 113
13, 17494, Note_off_c, 1, 93, 64
13, 17529, Note_on_c, 1, 93, 105
13, 17597, Note_off_c, 1, 93, 64
13, 17701, Note_on_c, 1, 88, 105
13, 17737, Note_off_c, 1, 88, 64
13, 17770, Note_on_c, 1, 88, 105
13, 17859, Note_off_c, 1, 88, 64
13, 18418, Note_on_c, 1, 90, 100
13, 18454, Note_off_c, 1, 90, 64
13, 18479, Note_on_c, 1, 90, 95
13, 18542, Note_off_c, 1, 90, 64
13, 18660, Note_on_c, 1, 86, 93
13, 18698, Note_off_c, 1, 86, 64
13, 18724, Note_on_c, 1, 86, 102
13, 18808, Note_off_c, 1, 86, 64
13, 20320, Note_on_c, 1, 81, 93
13, 20362, Note_off_c, 1, 81, 64
13, 20384, Note_on_c, 1, 81, 98
13, 20460, Note_off_c, 1, 81, 64
13, 20564, Note_on_c, 1, 88, 85
13, 20600, Note_off_c, 1, 88, 64
13, 20626, Note_on_c, 1, 88, 102
13, 20701, Note_off_c, 1, 88, 64
13, 20799, Note_on_c, 1, 90, 98
13, 20834, Note_off_c, 1, 90, 64
13, 20861, Note_on_c, 1, 90, 95
13, 20930, Note_off_c, 1, 90, 64
13, 21036, Note_on_c, 1, 88, 87
13, 21068, Note_off_c, 1, 88, 64
13, 21100, Note_on_c, 1, 81, 89
13, 21199, Note_off_c, 1, 81, 64
13, 21589, Note_on_c, 1, 81, 100
13, 21699, Note_off_c, 1, 81, 64
13, 22269, Note_on_c, 1, 88, 91
13, 22304, Note_off_c, 1, 88, 64
13, 22326, Note_on_c, 1, 88, 100
13, 22399, Note_off_c, 1, 88, 64
13, 22496, Note_on_c, 1, 88, 82
13, 22541, Note_off_c, 1, 88, 64
13, 22563, Note_on_c, 1, 86, 100
13, 22651, Note_off_c, 1, 86, 64
13, 22734, Note_on_c, 1, 90, 85
13, 22771, Note_off_c, 1, 90, 64
13, 22800, Note_on_c, 1, 93, 98
13, 22886, Note_off_c, 1, 93, 64
13, 22981, Note_on_c, 1, 92, 100
13, 23026, Note_off_c, 1, 92, 64
13, 23049, Note_on_c, 1, 93, 98
13, 23556, Note_off_c, 1, 93, 64
13, 40500, Note_on_c, 1, 93, 110
13, 40531, Note_off_c, 1, 93, 64
13, 40563, Note_on_c, 1, 93, 105
13, 40635, Note_off_c, 1, 93, 64
13, 40735, Note_on_c, 1, 88, 105
13, 40771, Note_off_c, 1, 88, 64
13, 40806, Note_on_c, 1, 88, 107
13, 40901, Note_off_c, 1, 88, 64
13, 41462, Note_on_c, 1, 90, 100
13, 41499, Note_off_c, 1, 90, 64
13, 41525, Note_on_c, 1, 90, 102
13, 41588, Note_off_c, 1, 90, 64
13, 41704, Note_on_c, 1, 86, 100
13, 41745, Note_off_c, 1, 86, 64
13, 41768, Note_on_c, 1, 86, 105
13, 41851, Note_off_c, 1, 86, 64
13, 43370, Note_on_c, 1, 81, 100
13, 43406, Note_off_c, 1, 81, 64
13, 43427, Note_on_c, 1, 81, 100
13, 43491, Note_off_c, 1, 81, 64
13, 43593, Note_on_c, 1, 88, 100
13, 43627, Note_off_c, 1, 88, 64
13, 43664, Note_on_c, 1, 88, 100
13, 43737, Note_off_c, 1, 88, 64
13, 43837, Note_on_c, 1, 90, 89
13, 43872, Note_off_c, 1, 90, 64
13, 43901, Note_on_c, 1, 90, 95
13, 43963, Note_off_c, 1, 90, 64
13, 44077, Note_on_c, 1, 88, 87
13, 44110, Note_off_c, 1, 88, 64
13, 44144, Note_on_c, 1, 81, 102
13, 44244, Note_off_c, 1, 81, 64
13, 44609, Note_on_c, 1, 81, 105
13, 44712, Note_off_c, 1, 81, 64
13, 45298, Note_on_c, 1, 88, 105
13, 45335, Note_off_c, 1, 88, 64
13, 45356, Note_on_c, 1, 88, 105
13, 45430, Note_off_c, 1, 88, 64
13, 45537, Note_on_c, 1, 88, 82
13, 45573, Note_off_c, 1, 88, 64
13, 45595, Note_on_c, 1, 86, 95
13, 45680, Note_off_c, 1, 86, 64
13, 45770, Note_on_c, 1, 90, 82
13, 45808, Note_off_c, 1, 90, 64
13, 45839, Note_on_c, 1, 93, 100
13, 45916, Note_off_c, 1, 93, 64
13, 46018, Note_on_c, 1, 92, 93
13, 46055, Note_off_c, 1, 92, 64
13, 46087, Note_on_c, 1, 93, 105
13, 46220, Note_off_c, 1, 93, 64
13, 71631, Note_on_c, 1, 78, 57
13, 71722, Note_off_c, 1, 78, 64
13, 71749, Note_on_c, 1, 78, 60
13, 71846, Note_off_c, 1, 78, 64
13, 71878, Note_on_c, 1, 78, 59
13, 71969, Note_off_c, 1, 78, 64
13, 71997, Note_on_c, 1, 78, 62
13, 72082, Note_off_c, 1, 78, 64
13, 72108, Note_on_c, 1, 78, 60
13, 72205, Note_off_c, 1, 78, 64
13, 72230, Note_on_c, 1, 78, 59
13, 72315, Note_off_c, 1, 78, 64
13, 72344, Note_on_c, 1, 78, 60
13, 72441, Note_off_c, 1, 78, 64
13, 72470, Note_on_c, 1, 78, 59
13, 72612, Note_off_c, 1, 78, 64
13, 75957, Note_on_c, 1, 81, 61
13, 76043, Note_off_c, 1, 81, 64
13, 76072, Note_on_c, 1, 81, 64
13, 76171, Note_off_c, 1, 81, 64
13, 76200, Note_on_c, 1, 81, 72
13, 76290, Note_off_c, 1, 81, 64
13, 76320, Note_on_c, 1, 81, 70
13, 76410, Note_off_c, 1, 81, 64
13, 76434, Note_on_c, 1, 81, 82
13, 76517, Note_off_c, 1, 81, 64
13, 76547, Note_on_c, 1, 88, 85
13, 76639, Note_off_c, 1, 88, 64
13, 76667, Note_on_c, 1, 81, 76
13, 76750, Note_off_c, 1, 81, 64
13, 76797, Note_on_c, 1, 81, 82
13, 76928, Note_off_c, 1, 81, 64
13, 98395, Note_on_c, 1, 93, 85
13, 98462, Note_off_c, 1, 93, 64
13, 98635, Note_on_c, 1, 86, 91
13, 98703, Note_off_c, 1, 86, 64
13, 98874, Note_on_c, 1, 88, 89
13, 98944, Note_off_c, 1, 88, 64
13, 99112, Note_on_c, 1, 86, 87
13, 99189, Note_off_c, 1, 86, 64
13, 99365, Note_on_c, 1, 93, 98
13, 99432, Note_off_c, 1, 93, 64
13, 99598, Note_on_c, 1, 88, 87
13, 99666, Note_off_c, 1, 88, 64
13, 99833, Note_on_c, 1, 86, 80
13, 99913, Note_off_c, 1, 86, 64
13, 100073, Note_on_c, 1, 86, 89
13, 100142, Note_off_c, 1, 86, 64
13, 100316, Note_on_c, 1, 88, 89
13, 100372, Note_off_c, 1, 88, 64
13, 100432, Note_on_c, 1, 81, 85
13, 100453, Note_off_c, 1, 81, 64
13, 100475, Note_on_c, 1, 81, 85
13, 100502, Note_off_c, 1, 81, 64
13, 100533, Note_on_c, 1, 81, 89
13, 100575, Note_off_c, 1, 81, 64
13, 100660, Note_on_c, 1, 81, 76
13, 100700, Note_off_c, 1, 81, 64
13, 100786, Note_on_c, 1, 81, 87
13, 100920, Note_off_c, 1, 81, 64
13, 104281, Note_on_c, 1, 81, 82
13, 104370, Note_off_c, 1, 81, 64
13, 104396, Note_on_c, 1, 81, 76
13, 104487, Note_off_c, 1, 81, 64
13, 104514, Note_on_c, 1, 81, 80
13, 104608, Note_off_c, 1, 81, 64
13, 104635, Note_on_c, 1, 81, 74
13, 104727, Note_off_c, 1, 81, 64
13, 104757, Note_on_c, 1, 81, 70
13, 104832, Note_off_c, 1, 81, 64
13, 104865, Note_on_c, 1, 81, 82
13, 104940, Note_off_c, 1, 81, 64
13, 104981, Note_on_c, 1, 88, 87
13, 105054, Note_off_c, 1, 88, 64
13, 105107, Note_on_c, 1, 86, 87
13, 105200, Note_off_c, 1, 86, 64
13, 105236, Note_on_c, 1, 74, 82
13, 105316, Note_off_c, 1, 74, 64
13, 105356, Note_on_c, 1, 74, 98
13, 105441, Note_off_c, 1, 74, 64
13, 105471, Note_on_c, 1, 78, 85
13, 105551, Note_off_c, 1, 78, 64
13, 105588, Note_on_c, 1, 78, 82
13, 105679, Note_off_c, 1, 78, 64
13, 105707, Note_on_c, 1, 81, 85
13, 105783, Note_off_c, 1, 81, 64
13, 105834, Note_on_c, 1, 81, 82
13, 105920, Note_off_c, 1, 81, 64
13, 105955, Note_on_c, 1, 86, 93
13, 106025, Note_off_c, 1, 86, 64
13, 106071, Note_on_c, 1, 86, 93
13, 106139, Note_off_c, 1, 86, 64
13, 106180, Note_on_c, 1, 90, 70
13, 106244, Note_off_c, 1, 90, 64
13, 106303, Note_on_c, 1, 90, 95
13, 106379, Note_off_c, 1, 90, 64
13, 106425, Note_on_c, 1, 93, 85
13, 106495, Note_off_c, 1, 93, 64
13, 106541, Note_on_c, 1, 95, 91
13, 106663, Note_off_c, 1, 95, 64
13, 125776, Note_on_c, 1, 90, 102
13, 125897, Note_off_c, 1, 90, 64
13, 126229, Note_on_c, 1, 86, 102
13, 126353, Note_off_c, 1, 86, 64
13, 126716, Note_on_c, 1, 90, 102
13, 126830, Note_off_c, 1, 90, 64
13, 127198, Note_on_c, 1, 93, 102
13, 127319, Note_off_c, 1, 93, 64
13, 127859, Note_on_c, 1, 90, 98
13, 127890, Note_off_c, 1, 90, 64
13, 127916, Note_on_c, 1, 90, 98
13, 127985, Note_off_c, 1, 90, 64
13, 128104, Note_on_c, 1, 93, 87
13, 128138, Note_off_c, 1, 93, 64
13, 128160, Note_on_c, 1, 91, 98
13, 128236, Note_off_c, 1, 91, 64
13, 128339, Note_on_c, 1, 91, 98
13, 128368, Note_off_c, 1, 91, 64
13, 128396, Note_on_c, 1, 91, 100
13, 128476, Note_off_c, 1, 91, 64
13, 128583, Note_on_c, 1, 91, 105
13, 128613, Note_off_c, 1, 91, 64
13, 128645, Note_on_c, 1, 91, 107
13, 128880, Note_off_c, 1, 91, 64
13, 136500, Note_on_c, 1, 81, 87
13, 136540, Note_off_c, 1, 81, 64
13, 136564, Note_on_c, 1, 81, 102
13, 136630, Note_off_c, 1, 81, 64
13, 136736, Note_on_c, 1, 86, 91
13, 136773, Note_off_c, 1, 86, 64
13, 136798, Note_on_c, 1, 86, 93
13, 136867, Note_off_c, 1, 86, 64
13, 136980, Note_on_c, 1, 90, 87
13, 137014, Note_off_c, 1, 90, 64
13, 137040, Note_on_c, 1, 90, 95
13, 137109, Note_off_c, 1, 90, 64
13, 137212, Note_on_c, 1, 91, 91
13, 137241, Note_off_c, 1, 91, 64
13, 137284, Note_on_c, 1, 91, 113
13, 137384, Note_off_c, 1, 91, 64
13, 137757, Note_on_c, 1, 95, 102
13, 137841, Note_off_c, 1, 95, 64
13, 146509, Note_on_c, 1, 86, 85
13, 146600, Note_off_c, 1, 86, 64
13, 146629, Note_on_c, 1, 86, 85
13, 146718, Note_off_c, 1, 86, 64
13, 146754, Note_on_c, 1, 86, 102
13, 146832, Note_off_c, 1, 86, 64
13, 146881, Note_on_c, 1, 86, 107
13, 147017, Note_off_c, 1, 86, 64
13, 147956, Note_on_c, 1, 88, 95
13, 148047, Note_off_c, 1, 88, 64
13, 148076, Note_on_c, 1, 88, 100
13, 148161, Note_off_c, 1, 88, 64
13, 148200, Note_on_c, 1, 88, 91
13, 148273, Note_off_c, 1, 88, 64
13, 148316, Note_on_c, 1, 88, 105
13, 148450, Note_off_c, 1, 88, 64
13, 150843, Note_on_c, 1, 74, 87
13, 150939, Note_off_c, 1, 74, 64
13, 150961, Note_on_c, 1, 74, 93
13, 151052, Note_off_c, 1, 74, 64
13, 151080, Note_on_c, 1, 74, 91
13, 151168, Note_off_c, 1, 74, 64
13, 151199, Note_on_c, 1, 74, 102
13, 151289, Note_off_c, 1, 74, 64
13, 151312, Note_on_c, 1, 74, 85
13, 151400, Note_off_c, 1, 74, 64
13, 151433, Note_on_c, 1, 74, 91
13, 151520, Note_off_c, 1, 74, 64
13, 151551, Note_on_c, 1, 74, 93
13, 151637, Note_off_c, 1, 74, 64
13, 151676, Note_on_c, 1, 74, 102
13, 151758, Note_off_c, 1, 74, 64
13, 151788, Note_on_c, 1, 90, 89
13, 151824, Note_off_c, 1, 90, 64
13, 151836, Note_on_c, 1, 91, 91
13, 151877, Note_off_c, 1, 91, 64
13, 151903, Note_on_c, 1, 93, 91
13, 151990, Note_off_c, 1, 93, 64
13, 152026, Note_on_c, 1, 95, 91
13, 152058, Note_off_c, 1, 95, 64
13, 152082, Note_on_c, 1, 93, 98
13, 152111, Note_off_c, 1, 93, 64
13, 152145, Note_on_c, 1, 91, 100
13, 152284, Note_off_c, 1, 91, 64
13, 152515, Note_on_c, 1, 91, 95
13, 152560, Note_off_c, 1, 91, 64
13, 152634, Note_on_c, 1, 90, 85
13, 152808, Note_off_c, 1, 90, 64
13, 152992, Note_on_c, 1, 90, 80
13, 153038, Note_off_c, 1, 90, 64
13, 153110, Note_on_c, 1, 88, 85
13, 153205, Note_off_c, 1, 88, 64
13, 153234, Note_on_c, 1, 93, 85
13, 153292, Note_off_c, 1, 93, 64
13, 153347, Note_on_c, 1, 93, 87
13, 153412, Note_off_c, 1, 93, 64
13, 153464, Note_on_c, 1, 93, 91
13, 153519, Note_off_c, 1, 93, 64
13, 153583, Note_on_c, 1, 93, 100
13, 153730, Note_off_c, 1, 93, 64
13, 154674, Note_on_c, 1, 81, 85
13, 154751, Note_off_c, 1, 81, 64
13, 154788, Note_on_c, 1, 81, 70
13, 154871, Note_off_c, 1, 81, 64
13, 154905, Note_on_c, 1, 88, 85
13, 154981, Note_off_c, 1, 88, 64
13, 155028, Note_on_c, 1, 90, 87
13, 155120, Note_off_c, 1, 90, 64
13, 155150, Note_on_c, 1, 93, 91
13, 155186, Note_off_c, 1, 93, 64
13, 155201, Note_on_c, 1, 91, 87
13, 155237, Note_off_c, 1, 91, 64
13, 155260, Note_on_c, 1, 90, 89
13, 155331, Note_off_c, 1, 90, 64
13, 155383, Note_on_c, 1, 86, 91
13, 155439, Note_off_c, 1, 86, 64
13, 155504, Note_on_c, 1, 88, 98
13, 155595, Note_off_c, 1, 88, 64
13, 155623, Note_on_c, 1, 91, 89
13, 155658, Note_off_c, 1, 91, 64
13, 155679, Note_on_c, 1, 90, 100
13, 155711, Note_off_c, 1, 90, 64
13, 155745, Note_on_c, 1, 88, 100
13, 155796, Note_off_c, 1, 88, 64
13, 155864, Note_on_c, 1, 81, 89
13, 155919, Note_off_c, 1, 81, 64
13, 155985, Note_on_c, 1, 81, 100
13, 156077, Note_off_c, 1, 81, 64
13, 156105, Note_on_c, 1, 86, 93
13, 156157, Note_off_c, 1, 86, 64
13, 156224, Note_on_c, 1, 86, 87
13, 156278, Note_off_c, 1, 86, 64
13, 156345, Note_on_c, 1, 88, 91
13, 156399, Note_off_c, 1, 88, 64
13, 156472, Note_on_c, 1, 81, 87
13, 156535, Note_off_c, 1, 81, 64
13, 156592, Note_on_c, 1, 88, 87
13, 156651, Note_off_c, 1, 88, 64
13, 156714, Note_on_c, 1, 90, 87
13, 156749, Note_off_c, 1, 90, 64
13, 156764, Note_on_c, 1, 88, 87
13, 156804, Note_off_c, 1, 88, 64
13, 156825, Note_on_c, 1, 90, 98
13, 156864, Note_off_c, 1, 90, 64
13, 156881, Note_on_c, 1, 91, 95
13, 156917, Note_off_c, 1, 91, 64
13, 156951, Note_on_c, 1, 93, 98
13, 157093, Note_off_c, 1, 93, 64
13, 157202, Note_on_c, 1, 91, 95
13, 157329, Note_off_c, 1, 91, 64
13, 157448, Note_on_c, 1, 90, 100
13, 157591, Note_off_c, 1, 90, 64
13, 173153, Note_on_c, 1, 88, 98
13, 173242, Note_off_c, 1, 88, 64
13, 173268, Note_on_c, 1, 91, 85
13, 173365, Note_off_c, 1, 91, 64
13, 173391, Note_on_c, 1, 88, 80
13, 173508, Note_off_c, 1, 88, 64
13, 173627, Note_on_c, 1, 88, 87
13, 173707, Note_off_c, 1, 88, 64
13, 173745, Note_on_c, 1, 93, 87
13, 173849, Note_off_c, 1, 93, 64
13, 173865, Note_on_c, 1, 81, 60
13, 173965, Note_off_c, 1, 81, 64
13, 173986, Note_on_c, 1, 81, 85
13, 174075, Note_off_c, 1, 81, 64
13, 174106, Note_on_c, 1, 81, 80
13, 174181, Note_off_c, 1, 81, 64
13, 174232, Note_on_c, 1, 81, 95
13, 174364, Note_off_c, 1, 81, 64
13, 174591, Note_on_c, 1, 90, 82
13, 174680, Note_off_c, 1, 90, 64
13, 174709, Note_on_c, 1, 93, 85
13, 174809, Note_off_c, 1, 93, 64
13, 174828, Note_on_c, 1, 90, 76
13, 174937, Note_off_c, 1, 90, 64
13, 175068, Note_on_c, 1, 90, 82
13, 175170, Note_off_c, 1, 90, 64
13, 175188, Note_on_c, 1, 95, 93
13, 175284, Note_off_c, 1, 95, 64
13, 175307, Note_on_c, 1, 90, 87
13, 175436, Note_off_c, 1, 90, 64
13, 176266, Note_on_c, 1, 88, 87
13, 176367, Note_off_c, 1, 88, 64
13, 176392, Note_on_c, 1, 88, 85
13, 176482, Note_off_c, 1, 88, 64
13, 176515, Note_on_c, 1, 88, 85
13, 176603, Note_off_c, 1, 88, 64
13, 176637, Note_on_c, 1, 88, 91
13, 176724, Note_off_c, 1, 88, 64
13, 176747, Note_on_c, 1, 92, 87
13, 176848, Note_off_c, 1, 92, 64
13, 176868, Note_on_c, 1, 95, 98
13, 176963, Note_off_c, 1, 95, 64
13, 176983, Note_on_c, 1, 92, 91
13, 177071, Note_off_c, 1, 92, 64
13, 177105, Note_on_c, 1, 88, 100
13, 177236, Note_off_c, 1, 88, 64
13, 181560, Note_on_c, 1, 90, 93
13, 181655, Note_off_c, 1, 90, 64
13, 181680, Note_on_c, 1, 90, 70
13, 181778, Note_off_c, 1, 90, 64
13, 181804, Note_on_c, 1, 90, 68
13, 181898, Note_off_c, 1, 90, 64
13, 181920, Note_on_c, 1, 90, 68
13, 182011, Note_off_c, 1, 90, 64
13, 182034, Note_on_c, 1, 90, 63
13, 182128, Note_off_c, 1, 90, 64
13, 182155, Note_on_c, 1, 90, 78
13, 182244, Note_off_c, 1, 90, 64
13, 182274, Note_on_c, 1, 90, 70
13, 182357, Note_off_c, 1, 90, 64
13, 182399, Note_on_c, 1, 90, 102
13, 182523, Note_off_c, 1, 90, 64
13, 202786, Note_on_c, 1, 88, 98
13, 202886, Note_off_c, 1, 88, 64
13, 203032, Note_on_c, 1, 88, 95
13, 203111, Note_off_c, 1, 88, 64
13, 203258, Note_on_c, 1, 93, 89
13, 203345, Note_off_c, 1, 93, 64
13, 203508, Note_on_c, 1, 93, 95
13, 203585, Note_off_c, 1, 93, 64
13, 203750, Note_on_c, 1, 88, 93
13, 203832, Note_off_c, 1, 88, 64
13, 203989, Note_on_c, 1, 86, 105
13, 204082, Note_off_c, 1, 86, 64
13, 204350, Note_on_c, 1, 74, 80
13, 204442, Note_off_c, 1, 74, 64
13, 204465, Note_on_c, 1, 74, 80
13, 204560, Note_off_c, 1, 74, 64
13, 204586, Note_on_c, 1, 74, 80
13, 204676, Note_off_c, 1, 74, 64
13, 204707, Note_on_c, 1, 74, 93
13, 204797, Note_off_c, 1, 74, 64
13, 204829, Note_on_c, 1, 74, 89
13, 204914, Note_off_c, 1, 74, 64
13, 204952, Note_on_c, 1, 74, 91
13, 205037, Note_off_c, 1, 74, 64
13, 205068, Note_on_c, 1, 90, 91
13, 205160, Note_off_c, 1, 90, 64
13, 205183, Note_on_c, 1, 86, 89
13, 205276, Note_off_c, 1, 86, 64
13, 205302, Note_on_c, 1, 90, 93
13, 205380, Note_off_c, 1, 90, 64
13, 205419, Note_on_c, 1, 91, 93
13, 205538, Note_off_c, 1, 91, 64
13, 208904, Note_on_c, 1, 86, 93
13, 208997, Note_off_c, 1, 86, 64
13, 209024, Note_on_c, 1, 86, 87
13, 209113, Note_off_c, 1, 86, 64
13, 209143, Note_on_c, 1, 86, 98
13, 209227, Note_off_c, 1, 86, 64
13, 209271, Note_on_c, 1, 86, 107
13, 209399, Note_off_c, 1, 86, 64
13, 210352, Note_on_c, 1, 88, 102
13, 210440, Note_off_c, 1, 88, 64
13, 210467, Note_on_c, 1, 88, 93
13, 210550, Note_off_c, 1, 88, 64
13, 210591, Note_on_c, 1, 88, 105
13, 210663, Note_off_c, 1, 88, 64
13, 210708, Note_on_c, 1, 88, 107
13, 210834, Note_off_c, 1, 88, 64
13, 213232, Note_on_c, 1, 74, 82
13, 213333, Note_off_c, 1, 74, 64
13, 213351, Note_on_c, 1, 74, 76
13, 213447, Note_off_c, 1, 74, 64
13, 213468, Note_on_c, 1, 74, 82
13, 213566, Note_off_c, 1, 74, 64
13, 213592, Note_on_c, 1, 74, 85
13, 213689, Note_off_c, 1, 74, 64
13, 213716, Note_on_c, 1, 74, 80
13, 213803, Note_off_c, 1, 74, 64
13, 213832, Note_on_c, 1, 74, 78
13, 213923, Note_off_c, 1, 74, 64
13, 213951, Note_on_c, 1, 74, 78
13, 214034, Note_off_c, 1, 74, 64
13, 214073, Note_on_c, 1, 74, 89
13, 214157, Note_off_c, 1, 74, 64
13, 214187, Note_on_c, 1, 90, 85
13, 214226, Note_off_c, 1, 90, 64
13, 214238, Note_on_c, 1, 91, 89
13, 214278, Note_off_c, 1, 91, 64
13, 214297, Note_on_c, 1, 93, 95
13, 214374, Note_off_c, 1, 93, 64
13, 214422, Note_on_c, 1, 95, 95
13, 214453, Note_off_c, 1, 95, 64
13, 214475, Note_on_c, 1, 93, 95
13, 214506, Note_off_c, 1, 93, 64
13, 214539, Note_on_c, 1, 91, 100
13, 214665, Note_off_c, 1, 91, 64
13, 214908, Note_on_c, 1, 91, 107
13, 214961, Note_off_c, 1, 91, 64
13, 215030, Note_on_c, 1, 90, 100
13, 215178, Note_off_c, 1, 90, 64
13, 215394, Note_on_c, 1, 90, 100
13, 215446, Note_off_c, 1, 90, 64
13, 215510, Note_on_c, 1, 88, 89
13, 215576, Note_off_c, 1, 88, 64
13, 215629, Note_on_c, 1, 93, 91
13, 215684, Note_off_c, 1, 93, 64
13, 215749, Note_on_c, 1, 93, 93
13, 215792, Note_off_c, 1, 93, 64
13, 215869, Note_on_c, 1, 93, 98
13, 215908, Note_off_c, 1, 93, 64
13, 215986, Note_on_c, 1, 93, 100
13, 216118, Note_off_c, 1, 93, 64
13, 217084, Note_on_c, 1, 81, 100
13, 217157, Note_off_c, 1, 81, 64
13, 217195, Note_on_c, 1, 81, 100
13, 217277, Note_off_c, 1, 81, 64
13, 217313, Note_on_c, 1, 88, 89
13, 217365, Note_off_c, 1, 88, 64
13, 217434, Note_on_c, 1, 90, 95
13, 217525, Note_off_c, 1, 90, 64
13, 217556, Note_on_c, 1, 93, 82
13, 217590, Note_off_c, 1, 93, 64
13, 217610, Note_on_c, 1, 91, 93
13, 217643, Note_off_c, 1, 91, 64
13, 217670, Note_on_c, 1, 90, 89
13, 217725, Note_off_c, 1, 90, 64
13, 217786, Note_on_c, 1, 86, 91
13, 217833, Note_off_c, 1, 86, 64
13, 217904, Note_on_c, 1, 88, 93
13, 217998, Note_off_c, 1, 88, 64
13, 218024, Note_on_c, 1, 91, 87
13, 218055, Note_off_c, 1, 91, 64
13, 218077, Note_on_c, 1, 90, 98
13, 218107, Note_off_c, 1, 90, 64
13, 218139, Note_on_c, 1, 88, 95
13, 218190, Note_off_c, 1, 88, 64
13, 218264, Note_on_c, 1, 81, 91
13, 218316, Note_off_c, 1, 81, 64
13, 218388, Note_on_c, 1, 81, 102
13, 218461, Note_off_c, 1, 81, 64
13, 218501, Note_on_c, 1, 86, 89
13, 218555, Note_off_c, 1, 86, 64
13, 218624, Note_on_c, 1, 86, 91
13, 218683, Note_off_c, 1, 86, 64
13, 218739, Note_on_c, 1, 88, 87
13, 218790, Note_off_c, 1, 88, 64
13, 218862, Note_on_c, 1, 81, 85
13, 218918, Note_off_c, 1, 81, 64
13, 218986, Note_on_c, 1, 88, 87
13, 219039, Note_off_c, 1, 88, 64
13, 219106, Note_on_c, 1, 90, 95
13, 219148, Note_off_c, 1, 90, 64
13, 219159, Note_on_c, 1, 88, 98
13, 219198, Note_off_c, 1, 88, 64
13, 219215, Note_on_c, 1, 90, 89
13, 219253, Note_off_c, 1, 90, 64
13, 219274, Note_on_c, 1, 91, 98
13, 219314, Note_off_c, 1, 91, 64
13, 219348, Note_on_c, 1, 93, 102
13, 219476, Note_off_c, 1, 93, 64
13, 219593, Note_on_c, 1, 91, 87
13, 219715, Note_off_c, 1, 91, 64
13, 232493, Note_on_c, 1, 81, 93
13, 232528, Note_off_c, 1, 81, 64
13, 232561, Note_on_c, 1, 81, 100
13, 232620, Note_off_c, 1, 81, 64
13, 232736, Note_on_c, 1, 88, 91
13, 232769, Note_off_c, 1, 88, 64
13, 232803, Note_on_c, 1, 88, 105
13, 232864, Note_off_c, 1, 88, 64
13, 232971, Note_on_c, 1, 90, 89
13, 233003, Note_off_c, 1, 90, 64
13, 233035, Note_on_c, 1, 90, 95
13, 233090, Note_off_c, 1, 90, 64
13, 233205, Note_on_c, 1, 88, 82
13, 233240, Note_off_c, 1, 88, 64
13, 233271, Note_on_c, 1, 86, 98
13, 233333, Note_off_c, 1, 86, 64
13, 233436, Note_on_c, 1, 81, 82
13, 233477, Note_off_c, 1, 81, 64
13, 233504, Note_on_c, 1, 86, 100
13, 233554, Note_off_c, 1, 86, 64
13, 233680, Note_on_c, 1, 81, 87
13, 233711, Note_off_c, 1, 81, 64
13, 233746, Note_on_c, 1, 81, 100
13, 233814, Note_off_c, 1, 81, 64
13, 233917, Note_on_c, 1, 78, 78
13, 233956, Note_off_c, 1, 78, 64
13, 233989, Note_on_c, 1, 81, 91
13, 234046, Note_off_c, 1, 81, 64
13, 234176, Note_on_c, 1, 81, 98
13, 234202, Note_off_c, 1, 81, 64
13, 234237, Note_on_c, 1, 78, 102
13, 234731, Note_off_c, 1, 78, 64
13, 234731, End_track
14, 0, Start_track
14, 0, Title_t, "TrumpetBass"
14, 0, Program_c, 2, 56
14, 0, Control_c, 2, 7, 100
14, 17459, Note_on_c, 2, 88, 116
14, 17498, Note_off_c, 2, 88, 64
14, 17524, Note_on_c, 2, 88, 107
14, 17598, Note_off_c, 2, 88, 64
14, 17711, Note_on_c, 2, 81, 100
14, 17742, Note_off_c, 2, 81, 64
14, 17770, Note_on_c, 2, 81, 102
14, 17864, Note_off_c, 2, 81, 64
14, 18412, Note_on_c, 2, 81, 113
14, 18450, Note_off_c, 2, 81, 64
14, 18477, Note_on_c, 2, 81, 105
14, 18544, Note_off_c, 2, 81, 64
14, 18650, Note_on_c, 2, 78, 98
14, 18689, Note_off_c, 2, 78, 64
14, 18716, Note_on_c, 2, 78, 105
14, 18805, Note_off_c, 2, 78, 64
14, 20794, Note_on_c, 2, 81, 110
14, 20834, Note_off_c, 2, 81, 64
14, 20861, Note_on_c, 2, 74, 102
14, 20932, Note_off_c, 2, 74, 64
14, 21034, Note_on_c, 2, 81, 89
14, 21075, Note_off_c, 2, 81, 64
14, 21106, Note_on_c, 2, 86, 98
14, 21205, Note_off_c, 2, 86, 64
14, 21582, Note_on_c, 2, 93, 102
14, 21684, Note_off_c, 2, 93, 64
14, 22254, Note_on_c, 2, 81, 95
14, 22292, Note_off_c, 2, 81, 64
14, 22320, Note_on_c, 2, 81, 100
14, 22388, Note_off_c, 2, 81, 64
14, 22490, Note_on_c, 2, 81, 89
14, 22528, Note_off_c, 2, 81, 64
14, 22557, Note_on_c, 2, 81, 100
14, 22645, Note_off_c, 2, 81, 64
14, 22727, Note_on_c, 2, 86, 82
14, 22763, Note_off_c, 2, 86, 64
14, 22799, Note_on_c, 2, 90, 98
14, 22871, Note_off_c, 2, 90, 64
14, 22977, Note_on_c, 2, 86, 95
14, 23011, Note_off_c, 2, 86, 64
14, 23047, Note_on_c, 2, 88, 102
14, 23540, Note_off_c, 2, 88, 64
14, 40502, Note_on_c, 2, 88, 119
14, 40538, Note_off_c, 2, 88, 64
14, 40566, Note_on_c, 2, 88, 107
14, 40644, Note_off_c, 2, 88, 64
14, 40744, Note_on_c, 2, 81, 98
14, 40780, Note_off_c, 2, 81, 64
14, 40806, Note_on_c, 2, 81, 105
14, 40898, Note_off_c, 2, 81, 64
14, 41464, Note_on_c, 2, 81, 100
14, 41502, Note_off_c, 2, 81, 64
14, 41532, Note_on_c, 2, 81, 102
14, 41608, Note_off_c, 2, 81, 64
14, 41709, Note_on_c, 2, 78, 107
14, 41745, Note_off_c, 2, 78, 64
14, 41771, Note_on_c, 2, 78, 105
14, 41859, Note_off_c, 2, 78, 64
14, 43840, Note_on_c, 2, 81, 102
14, 43884, Note_off_c, 2, 81, 64
14, 43906, Note_on_c, 2, 74, 100
14, 43970, Note_off_c, 2, 74, 64
14, 44076, Note_on_c, 2, 81, 85
14, 44116, Note_off_c, 2, 81, 64
14, 44148, Note_on_c, 2, 86, 100
14, 44238, Note_off_c, 2, 86, 64
14, 44625, Note_on_c, 2, 93, 119
14, 44711, Note_off_c, 2, 93, 64
14, 45297, Note_on_c, 2, 81, 100
14, 45332, Note_off_c, 2, 81, 64
14, 45355, Note_on_c, 2, 81, 100
14, 45421, Note_off_c, 2, 81, 64
14, 45533, Note_on_c, 2, 81, 98
14, 45566, Note_off_c, 2, 81, 64
14, 45592, Note_on_c, 2, 81, 98
14, 45683, Note_off_c, 2, 81, 64
14, 45768, Note_on_c, 2, 86, 82
14, 45804, Note_off_c, 2, 86, 64
14, 45835, Note_on_c, 2, 90, 98
14, 45906, Note_off_c, 2, 90, 64
14, 46021, Note_on_c, 2, 86, 82
14, 46053, Note_off_c, 2, 86, 64
14, 46087, Note_on_c, 2, 88, 102
14, 46208, Note_off_c, 2, 88, 64
14, 72114, Note_on_c, 2, 78, 64
14, 72200, Note_off_c, 2, 78, 64
14, 72228, Note_on_c, 2, 78, 66
14, 72323, Note_off_c, 2, 78, 64
14, 72354, Note_on_c, 2, 78, 60
14, 72440, Note_off_c, 2, 78, 64
14, 72473, Note_on_c, 2, 78, 59
14, 72616, Note_off_c, 2, 78, 64
14, 76434, Note_on_c, 2, 81, 68
14, 76521, Note_off_c, 2, 81, 64
14, 76551, Note_on_c, 2, 81, 61
14, 76646, Note_off_c, 2, 81, 64
14, 76672, Note_on_c, 2, 81, 66
14, 76774, Note_off_c, 2, 81, 64
14, 76796, Note_on_c, 2, 74, 85
14, 76937, Note_off_c, 2, 74, 64
14, 98394, Note_on_c, 2, 81, 102
14, 98465, Note_off_c, 2, 81, 64
14, 98640, Note_on_c, 2, 81, 110
14, 98706, Note_off_c, 2, 81, 64
14, 98880, Note_on_c, 2, 81, 102
14, 98949, Note_off_c, 2, 81, 64
14, 99119, Note_on_c, 2, 81, 105
14, 99192, Note_off_c, 2, 81, 64
14, 99372, Note_on_c, 2, 81, 100
14, 99440, Note_off_c, 2, 81, 64
14, 99602, Note_on_c, 2, 81, 100
14, 99663, Note_off_c, 2, 81, 64
14, 99842, Note_on_c, 2, 81, 93
14, 99900, Note_off_c, 2, 81, 64
14, 100078, Note_on_c, 2, 74, 98
14, 100153, Note_off_c, 2, 74, 64
14, 100311, Note_on_c, 2, 81, 100
14, 100369, Note_off_c, 2, 81, 64
14, 100429, Note_on_c, 2, 81, 100
14, 100458, Note_off_c, 2, 81, 64
14, 100479, Note_on_c, 2, 81, 87
14, 100508, Note_off_c, 2, 81, 64
14, 100535, Note_on_c, 2, 81, 98
14, 100575, Note_off_c, 2, 81, 64
14, 100662, Note_on_c, 2, 81, 95
14, 100705, Note_off_c, 2, 81, 64
14, 100783, Note_on_c, 2, 81, 100
14, 100914, Note_off_c, 2, 81, 64
14, 104749, Note_on_c, 2, 81, 80
14, 104837, Note_off_c, 2, 81, 64
14, 104870, Note_on_c, 2, 81, 80
14, 104962, Note_off_c, 2, 81, 64
14, 104995, Note_on_c, 2, 81, 87
14, 105076, Note_off_c, 2, 81, 64
14, 105111, Note_on_c, 2, 81, 82
14, 105216, Note_off_c, 2, 81, 64
14, 105234, Note_on_c, 2, 69, 82
14, 105310, Note_off_c, 2, 69, 64
14, 105344, Note_on_c, 2, 69, 85
14, 105439, Note_off_c, 2, 69, 64
14, 105464, Note_on_c, 2, 74, 87
14, 105550, Note_off_c, 2, 74, 64
14, 105586, Note_on_c, 2, 74, 89
14, 105681, Note_off_c, 2, 74, 64
14, 105704, Note_on_c, 2, 78, 89
14, 105786, Note_off_c, 2, 78, 64
14, 105825, Note_on_c, 2, 78, 85
14, 105914, Note_off_c, 2, 78, 64
14, 105946, Note_on_c, 2, 81, 85
14, 106029, Note_off_c, 2, 81, 64
14, 106062, Note_on_c, 2, 81, 80
14, 106156, Note_off_c, 2, 81, 64
14, 106184, Note_on_c, 2, 86, 89
14, 106260, Note_off_c, 2, 86, 64
14, 106303, Note_on_c, 2, 86, 80
14, 106395, Note_off_c, 2, 86, 64
14, 106420, Note_on_c, 2, 90, 82
14, 106506, Note_off_c, 2, 90, 64
14, 106543, Note_on_c, 2, 91, 87
14, 106667, Note_off_c, 2, 91, 64
14, 125776, Note_on_c, 2, 81, 113
14, 125906, Note_off_c, 2, 81, 64
14, 126230, Note_on_c, 2, 81, 113
14, 126374, Note_off_c, 2, 81, 64
14, 126711, Note_on_c, 2, 86, 105
14, 126828, Note_off_c, 2, 86, 64
14, 127197, Note_on_c, 2, 90, 102
14, 127327, Note_off_c, 2, 90, 64
14, 127852, Note_on_c, 2, 86, 100
14, 127879, Note_off_c, 2, 86, 64
14, 127904, Note_on_c, 2, 86, 100
14, 127976, Note_off_c, 2, 86, 64
14, 128092, Note_on_c, 2, 90, 87
14, 128123, Note_off_c, 2, 90, 64
14, 128150, Note_on_c, 2, 86, 100
14, 128230, Note_off_c, 2, 86, 64
14, 128330, Note_on_c, 2, 86, 107
14, 128366, Note_off_c, 2, 86, 64
14, 128394, Note_on_c, 2, 86, 105
14, 128469, Note_off_c, 2, 86, 64
14, 128583, Note_on_c, 2, 86, 107
14, 128611, Note_off_c, 2, 86, 64
14, 128648, Note_on_c, 2, 86, 107
14, 128891, Note_off_c, 2, 86, 64
14, 136501, Note_on_c, 2, 78, 89
14, 136539, Note_off_c, 2, 78, 64
14, 136564, Note_on_c, 2, 78, 100
14, 136630, Note_off_c, 2, 78, 64
14, 136740, Note_on_c, 2, 81, 82
14, 136774, Note_off_c, 2, 81, 64
14, 136801, Note_on_c, 2, 81, 91
14, 136861, Note_off_c, 2, 81, 64
14, 136976, Note_on_c, 2, 86, 91
14, 137010, Note_off_c, 2, 86, 64
14, 137041, Note_on_c, 2, 86, 100
14, 137109, Note_off_c, 2, 86, 64
14, 137220, Note_on_c, 2, 86, 89
14, 137249, Note_off_c, 2, 86, 64
14, 137284, Note_on_c, 2, 86, 102
14, 137377, Note_off_c, 2, 86, 64
14, 137764, Note_on_c, 2, 88, 105
14, 137837, Note_off_c, 2, 88, 64
14, 146516, Note_on_c, 2, 81, 98
14, 146599, Note_off_c, 2, 81, 64
14, 146630, Note_on_c, 2, 81, 91
14, 146705, Note_off_c, 2, 81, 64
14, 146751, Note_on_c, 2, 78, 89
14, 146839, Note_off_c, 2, 78, 64
14, 146877, Note_on_c, 2, 74, 110
14, 147017, Note_off_c, 2, 74, 64
14, 147950, Note_on_c, 2, 74, 105
14, 148032, Note_off_c, 2, 74, 64
14, 148071, Note_on_c, 2, 74, 105
14, 148151, Note_off_c, 2, 74, 64
14, 148196, Note_on_c, 2, 74, 105
14, 148274, Note_off_c, 2, 74, 64
14, 148311, Note_on_c, 2, 81, 107
14, 148449, Note_off_c, 2, 81, 64
14, 151316, Note_on_c, 2, 74, 105
14, 151404, Note_off_c, 2, 74, 64
14, 151435, Note_on_c, 2, 74, 102
14, 151512, Note_off_c, 2, 74, 64
14, 151554, Note_on_c, 2, 74, 100
14, 151623, Note_off_c, 2, 74, 64
14, 151679, Note_on_c, 2, 74, 107
14, 151753, Note_off_c, 2, 74, 64
14, 151794, Note_on_c, 2, 74, 107
14, 151878, Note_off_c, 2, 74, 64
14, 151909, Note_on_c, 2, 78, 89
14, 151999, Note_off_c, 2, 78, 64
14, 152030, Note_on_c, 2, 74, 93
14, 152111, Note_off_c, 2, 74, 64
14, 152151, Note_on_c, 2, 86, 105
14, 152281, Note_off_c, 2, 86, 64
14, 152520, Note_on_c, 2, 88, 102
14, 152573, Note_off_c, 2, 88, 64
14, 152641, Note_on_c, 2, 88, 102
14, 152777, Note_off_c, 2, 88, 64
14, 153007, Note_on_c, 2, 86, 95
14, 153049, Note_off_c, 2, 86, 64
14, 153118, Note_on_c, 2, 86, 91
14, 153178, Note_off_c, 2, 86, 64
14, 153232, Note_on_c, 2, 81, 85
14, 153289, Note_off_c, 2, 81, 64
14, 153356, Note_on_c, 2, 81, 100
14, 153419, Note_off_c, 2, 81, 64
14, 153479, Note_on_c, 2, 81, 100
14, 153533, Note_off_c, 2, 81, 64
14, 153598, Note_on_c, 2, 81, 110
14, 153734, Note_off_c, 2, 81, 64
14, 154663, Note_on_c, 2, 81, 102
14, 154747, Note_off_c, 2, 81, 64
14, 154790, Note_on_c, 2, 81, 105
14, 154862, Note_off_c, 2, 81, 64
14, 154914, Note_on_c, 2, 81, 113
14, 154990, Note_off_c, 2, 81, 64
14, 155037, Note_on_c, 2, 74, 107
14, 155153, Note_off_c, 2, 74, 64
14, 155863, Note_on_c, 2, 88, 98
14, 155920, Note_off_c, 2, 88, 64
14, 155988, Note_on_c, 2, 90, 95
14, 156064, Note_off_c, 2, 90, 64
14, 156230, Note_on_c, 2, 91, 102
14, 156305, Note_off_c, 2, 91, 64
14, 156473, Note_on_c, 2, 88, 105
14, 156574, Note_off_c, 2, 88, 64
14, 156714, Note_on_c, 2, 81, 100
14, 156775, Note_off_c, 2, 81, 64
14, 156835, Note_on_c, 2, 81, 105
14, 156888, Note_off_c, 2, 81, 64
14, 156955, Note_on_c, 2, 81, 116
14, 157078, Note_off_c, 2, 81, 64
14, 157193, Note_on_c, 2, 81, 116
14, 157318, Note_off_c, 2, 81, 64
14, 157438, Note_on_c, 2, 81, 119
14, 157579, Note_off_c, 2, 81, 64
14, 173869, Note_on_c, 2, 81, 98
14, 173965, Note_off_c, 2, 81, 64
14, 173986, Note_on_c, 2, 81, 91
14, 174074, Note_off_c, 2, 81, 64
14, 174100, Note_on_c, 2, 81, 87
14, 174201, Note_off_c, 2, 81, 64
14, 174225, Note_on_c, 2, 74, 102
14, 174360, Note_off_c, 2, 74, 64
14, 176754, Note_on_c, 2, 88, 87
14, 176844, Note_off_c, 2, 88, 64
14, 176867, Note_on_c, 2, 88, 87
14, 176958, Note_off_c, 2, 88, 64
14, 176985, Note_on_c, 2, 88, 82
14, 177073, Note_off_c, 2, 88, 64
14, 177102, Note_on_c, 2, 88, 102
14, 177230, Note_off_c, 2, 88, 64
14, 182034, Note_on_c, 2, 90, 85
14, 182127, Note_off_c, 2, 90, 64
14, 182152, Note_on_c, 2, 90, 82
14, 182240, Note_off_c, 2, 90, 64
14, 182275, Note_on_c, 2, 90, 82
14, 182368, Note_off_c, 2, 90, 64
14, 182396, Note_on_c, 2, 78, 100
14, 182529, Note_off_c, 2, 78, 64
14, 202786, Note_on_c, 2, 81, 95
14, 202910, Note_off_c, 2, 81, 64
14, 203028, Note_on_c, 2, 81, 105
14, 203114, Note_off_c, 2, 81, 64
14, 203269, Note_on_c, 2, 81, 105
14, 203354, Note_off_c, 2, 81, 64
14, 203502, Note_on_c, 2, 81, 102
14, 203595, Note_off_c, 2, 81, 64
14, 203747, Note_on_c, 2, 81, 100
14, 203832, Note_off_c, 2, 81, 64
14, 203988, Note_on_c, 2, 81, 85
14, 204072, Note_off_c, 2, 81, 64
14, 204105, Note_on_c, 2, 74, 82
14, 204208, Note_off_c, 2, 74, 64
14, 204226, Note_on_c, 2, 74, 68
14, 204318, Note_off_c, 2, 74, 64
14, 204348, Note_on_c, 2, 74, 85
14, 204438, Note_off_c, 2, 74, 64
14, 204474, Note_on_c, 2, 74, 87
14, 204562, Note_off_c, 2, 74, 64
14, 204591, Note_on_c, 2, 74, 82
14, 204678, Note_off_c, 2, 74, 64
14, 204716, Note_on_c, 2, 74, 89
14, 204804, Note_off_c, 2, 74, 64
14, 204833, Note_on_c, 2, 74, 74
14, 204915, Note_off_c, 2, 74, 64
14, 204949, Note_on_c, 2, 74, 87
14, 205034, Note_off_c, 2, 74, 64
14, 205068, Note_on_c, 2, 86, 93
14, 205147, Note_off_c, 2, 86, 64
14, 205184, Note_on_c, 2, 81, 89
14, 205267, Note_off_c, 2, 81, 64
14, 205306, Note_on_c, 2, 86, 91
14, 205380, Note_off_c, 2, 86, 64
14, 205429, Note_on_c, 2, 86, 102
14, 205543, Note_off_c, 2, 86, 64
14, 208904, Note_on_c, 2, 81, 89
14, 208996, Note_off_c, 2, 81, 64
14, 209018, Note_on_c, 2, 81, 82
14, 209108, Note_off_c, 2, 81, 64
14, 209140, Note_on_c, 2, 78, 85
14, 209234, Note_off_c, 2, 78, 64
14, 209267, Note_on_c, 2, 74, 105
14, 209402, Note_off_c, 2, 74, 64
14, 210353, Note_on_c, 2, 74, 98
14, 210441, Note_off_c, 2, 74, 64
14, 210469, Note_on_c, 2, 74, 95
14, 210554, Note_off_c, 2, 74, 64
14, 210584, Note_on_c, 2, 74, 100
14, 210679, Note_off_c, 2, 74, 64
14, 210704, Note_on_c, 2, 81, 110
14, 210824, Note_off_c, 2, 81, 64
14, 213720, Note_on_c, 2, 74, 80
14, 213803, Note_off_c, 2, 74, 64
14, 213835, Note_on_c, 2, 74, 93
14, 213918, Note_off_c, 2, 74, 64
14, 213954, Note_on_c, 2, 74, 85
14, 214034, Note_off_c, 2, 74, 64
14, 214074, Note_on_c, 2, 74, 89
14, 214151, Note_off_c, 2, 74, 64
14, 214194, Note_on_c, 2, 74, 102
14, 214275, Note_off_c, 2, 74, 64
14, 214304, Note_on_c, 2, 78, 89
14, 214377, Note_off_c, 2, 78, 64
14, 214427, Note_on_c, 2, 74, 85
14, 214482, Note_off_c, 2, 74, 64
14, 214548, Note_on_c, 2, 86, 87
14, 214663, Note_off_c, 2, 86, 64
14, 214906, Note_on_c, 2, 88, 95
14, 214960, Note_off_c, 2, 88, 64
14, 215048, Note_on_c, 2, 88, 89
14, 215160, Note_off_c, 2, 88, 64
14, 215384, Note_on_c, 2, 86, 87
14, 215435, Note_off_c, 2, 86, 64
14, 215509, Note_on_c, 2, 86, 91
14, 215585, Note_off_c, 2, 86, 64
14, 215627, Note_on_c, 2, 81, 74
14, 215681, Note_off_c, 2, 81, 64
14, 215745, Note_on_c, 2, 81, 100
14, 215797, Note_off_c, 2, 81, 64
14, 215871, Note_on_c, 2, 81, 102
14, 215916, Note_off_c, 2, 81, 64
14, 215993, Note_on_c, 2, 81, 110
14, 216115, Note_off_c, 2, 81, 64
14, 217066, Note_on_c, 2, 81, 89
14, 217170, Note_off_c, 2, 81, 64
14, 217189, Note_on_c, 2, 81, 80
14, 217284, Note_off_c, 2, 81, 64
14, 217316, Note_on_c, 2, 81, 102
14, 217391, Note_off_c, 2, 81, 64
14, 217429, Note_on_c, 2, 74, 105
14, 217562, Note_off_c, 2, 74, 64
14, 218259, Note_on_c, 2, 88, 87
14, 218310, Note_off_c, 2, 88, 64
14, 218383, Note_on_c, 2, 90, 100
14, 218479, Note_off_c, 2, 90, 64
14, 218619, Note_on_c, 2, 91, 95
14, 218713, Note_off_c, 2, 91, 64
14, 218862, Note_on_c, 2, 88, 105
14, 218983, Note_off_c, 2, 88, 64
14, 219107, Note_on_c, 2, 81, 100
14, 219163, Note_off_c, 2, 81, 64
14, 219229, Note_on_c, 2, 81, 95
14, 219285, Note_off_c, 2, 81, 64
14, 219348, Note_on_c, 2, 81, 113
14, 219476, Note_off_c, 2, 81, 64
14, 219597, Note_on_c, 2, 81, 110
14, 219720, Note_off_c, 2, 81, 64
14, 232502, Note_on_c, 2, 81, 107
14, 232530, Note_off_c, 2, 81, 64
14, 232566, Note_on_c, 2, 81, 110
14, 232618, Note_off_c, 2, 81, 64
14, 232735, Note_on_c, 2, 81, 110
14, 232768, Note_off_c, 2, 81, 64
14, 232800, Note_on_c, 2, 81, 105
14, 232860, Note_off_c, 2, 81, 64
14, 232967, Note_on_c, 2, 78, 98
14, 233002, Note_off_c, 2, 78, 64
14, 233037, Note_on_c, 2, 74, 107
14, 233091, Note_off_c, 2, 74, 64
14, 233203, Note_on_c, 2, 81, 110
14, 233238, Note_off_c, 2, 81, 64
14, 233269, Note_on_c, 2, 81, 110
14, 233338, Note_off_c, 2, 81, 64
14, 233439, Note_on_c, 2, 81, 107
14, 233474, Note_off_c, 2, 81, 64
14, 233504, Note_on_c, 2, 81, 107
14, 233577, Note_off_c, 2, 81, 64
14, 233679, Note_on_c, 2, 81, 107
14, 233706, Note_off_c, 2, 81, 64
14, 233745, Note_on_c, 2, 81, 113
14, 234075, Note_off_c, 2, 81, 64
14, 234168, Note_on_c, 2, 81, 110
14, 234198, Note_off_c, 2, 81, 64
14, 234233, Note_on_c, 2, 81, 107
14, 234727, Note_off_c, 2, 81, 64
14, 234727, End_track
15, 0, Start_track
15, 0, Title_t, "Timpani"
15, 0, Program_c, 3, 47
15, 0, Control_c, 3, 7, 100
15, 17288, Note_on_c, 3, 45, 100
15, 17309, Note_off_c, 3, 45, 64
15, 17312, Note_on_c, 3, 45, 102
15, 17330, Note_off_c, 3, 45, 64
15, 17335, Note_on_c, 3, 45, 102
15, 17355, Note_off_c, 3, 45, 64
15, 17361, Note_on_c, 3, 45, 102
15, 17374, Note_off_c, 3, 45, 64
15, 17384, Note_on_c, 3, 45, 89
15, 17401, Note_off_c, 3, 45, 64
15, 17407, Note_on_c, 3, 45, 102
15, 17418, Note_off_c, 3, 45, 64
15, 17437, Note_on_c, 3, 45, 68
15, 17450, Note_off_c, 3, 45, 64
15, 17456, Note_on_c, 3, 45, 105
15, 17468, Note_off_c, 3, 45, 64
15, 17488, Note_on_c, 3, 45, 70
15, 17502, Note_off_c, 3, 45, 64
15, 17514, Note_on_c, 3, 45, 95
15, 17525, Note_off_c, 3, 45, 64
15, 17542, Note_on_c, 3, 45, 74
15, 17555, Note_off_c, 3, 45, 64
15, 17567, Note_on_c, 3, 45, 82
15, 17580, Note_off_c, 3, 45, 64
15, 17596, Note_on_c, 3, 45, 64
15, 17610, Note_off_c, 3, 45, 64
15, 17618, Note_on_c, 3, 45, 87
15, 17635, Note_off_c, 3, 45, 64
15, 17649, Note_on_c, 3, 45, 68
15, 17662, Note_off_c, 3, 45, 64
15, 17670, Note_on_c, 3, 45, 98
15, 17685, Note_off_c, 3, 45, 64
15, 17692, Note_on_c, 3, 45, 78
15, 17709, Note_off_c, 3, 45, 64
15, 17718, Note_on_c, 3, 45, 98
15, 17742, Note_off_c, 3, 45, 64
15, 17769, Note_on_c, 3, 45, 95
15, 17792, Note_off_c, 3, 45, 64
15, 17961, Note_on_c, 3, 45, 110
15, 17983, Note_off_c, 3, 45, 64
15, 18022, Note_on_c, 3, 45, 116
15, 18065, Note_off_c, 3, 45, 64
15, 18176, Note_on_c, 3, 45, 102
15, 18203, Note_off_c, 3, 45, 64
15, 18237, Note_on_c, 3, 50, 116
15, 18258, Note_off_c, 3, 50, 64
15, 18267, Note_on_c, 3, 50, 102
15, 18283, Note_off_c, 3, 50, 64
15, 18294, Note_on_c, 3, 50, 89
15, 18309, Note_off_c, 3, 50, 64
15, 18319, Note_on_c, 3, 50, 102
15, 18333, Note_off_c, 3, 50, 64
15, 18344, Note_on_c, 3, 50, 91
15, 18359, Note_off_c, 3, 50, 64
15, 18367, Note_on_c, 3, 50, 100
15, 18382, Note_off_c, 3, 50, 64
15, 18397, Note_on_c, 3, 50, 89
15, 18412, Note_off_c, 3, 50, 64
15, 18420, Note_on_c, 3, 50, 100
15, 18435, Note_off_c, 3, 50, 64
15, 18451, Note_on_c, 3, 50, 87
15, 18468, Note_off_c, 3, 50, 64
15, 18473, Note_on_c, 3, 50, 105
15, 18490, Note_off_c, 3, 50, 64
15, 18505, Note_on_c, 3, 50, 91
15, 18522, Note_off_c, 3, 50, 64
15, 18527, Note_on_c, 3, 50, 85
15, 18543, Note_off_c, 3, 50, 64
15, 18561, Note_on_c, 3, 50, 82
15, 18576, Note_off_c, 3, 50, 64
15, 18580, Note_on_c, 3, 50, 80
15, 18595, Note_off_c, 3, 50, 64
15, 18613, Note_on_c, 3, 50, 70
15, 18644, Note_off_c, 3, 50, 64
15, 18656, Note_on_c, 3, 50, 82
15, 18673, Note_off_c, 3, 50, 64
15, 18677, Note_on_c, 3, 50, 66
15, 18701, Note_off_c, 3, 50, 64
15, 18724, Note_on_c, 3, 50, 110
15, 18748, Note_off_c, 3, 50, 64
15, 18899, Note_on_c, 3, 50, 102
15, 18926, Note_off_c, 3, 50, 64
15, 18964, Note_on_c, 3, 50, 105
15, 18998, Note_off_c, 3, 50, 64
15, 19130, Note_on_c, 3, 50, 105
15, 19158, Note_off_c, 3, 50, 64
15, 19205, Note_on_c, 3, 50, 110
15, 19257, Note_off_c, 3, 50, 64
15, 20155, Note_on_c, 3, 45, 113
15, 20177, Note_off_c, 3, 45, 64
15, 20180, Note_on_c, 3, 45, 113
15, 20197, Note_off_c, 3, 45, 64
15, 20206, Note_on_c, 3, 45, 100
15, 20226, Note_off_c, 3, 45, 64
15, 20231, Note_on_c, 3, 45, 95
15, 20246, Note_off_c, 3, 45, 64
15, 20256, Note_on_c, 3, 45, 98
15, 20273, Note_off_c, 3, 45, 64
15, 20281, Note_on_c, 3, 45, 105
15, 20294, Note_off_c, 3, 45, 64
15, 20312, Note_on_c, 3, 45, 68
15, 20324, Note_off_c, 3, 45, 64
15, 20331, Note_on_c, 3, 45, 105
15, 20349, Note_off_c, 3, 45, 64
15, 20368, Note_on_c, 3, 45, 80
15, 20401, Note_off_c, 3, 45, 64
15, 20419, Note_on_c, 3, 45, 82
15, 20434, Note_off_c, 3, 45, 64
15, 20449, Note_on_c, 3, 45, 102
15, 20463, Note_off_c, 3, 45, 64
15, 20470, Note_on_c, 3, 45, 52
15, 20482, Note_off_c, 3, 45, 64
15, 20499, Note_on_c, 3, 45, 95
15, 20514, Note_off_c, 3, 45, 64
15, 20528, Note_on_c, 3, 45, 74
15, 20545, Note_off_c, 3, 45, 64
15, 20552, Note_on_c, 3, 45, 100
15, 20571, Note_off_c, 3, 45, 64
15, 20583, Note_on_c, 3, 45, 68
15, 20600, Note_off_c, 3, 45, 64
15, 20605, Note_on_c, 3, 45, 105
15, 20628, Note_off_c, 3, 45, 64
15, 20637, Note_on_c, 3, 45, 102
15, 20665, Note_off_c, 3, 45, 64
15, 20799, Note_on_c, 3, 45, 98
15, 20827, Note_off_c, 3, 45, 64
15, 20857, Note_on_c, 3, 50, 107
15, 20893, Note_off_c, 3, 50, 64
15, 21043, Note_on_c, 3, 45, 110
15, 21067, Note_off_c, 3, 45, 64
15, 21102, Note_on_c, 3, 50, 122
15, 21149, Note_off_c, 3, 50, 64
15, 21595, Note_on_c, 3, 45, 119
15, 21645, Note_off_c, 3, 45, 64
15, 22265, Note_on_c, 3, 45, 110
15, 22291, Note_off_c, 3, 45, 64
15, 22326, Note_on_c, 3, 45, 113
15, 22377, Note_off_c, 3, 45, 64
15, 22498, Note_on_c, 3, 45, 100
15, 22532, Note_off_c, 3, 45, 64
15, 22560, Note_on_c, 3, 50, 110
15, 22608, Note_off_c, 3, 50, 64
15, 22743, Note_on_c, 3, 50, 105
15, 22771, Note_off_c, 3, 50, 64
15, 22803, Note_on_c, 3, 50, 113
15, 22843, Note_off_c, 3, 50, 64
15, 22988, Note_on_c, 3, 50, 105
15, 23013, Note_off_c, 3, 50, 64
15, 23057, Note_on_c, 3, 45, 95
15, 23079, Note_off_c, 3, 45, 64
15, 23080, Note_on_c, 3, 45, 107
15, 23097, Note_off_c, 3, 45, 64
15, 23109, Note_on_c, 3, 45, 82
15, 23142, Note_off_c, 3, 45, 64
15, 23153, Note_on_c, 3, 45, 85
15, 23188, Note_off_c, 3, 45, 64
15, 23201, Note_on_c, 3, 45, 66
15, 23218, Note_off_c, 3, 45, 64
15, 23221, Note_on_c, 3, 45, 87
15, 23239, Note_off_c, 3, 45, 64
15, 23254, Note_on_c, 3, 45, 64
15, 23271, Note_off_c, 3, 45, 64
15, 23273, Note_on_c, 3, 45, 87
15, 23291, Note_off_c, 3, 45, 64
15, 23307, Note_on_c, 3, 45, 55
15, 23321, Note_off_c, 3, 45, 64
15, 23327, Note_on_c, 3, 45, 82
15, 23342, Note_off_c, 3, 45, 64
15, 23355, Note_on_c, 3, 45, 60
15, 23393, Note_off_c, 3, 45, 64
15, 23400, Note_on_c, 3, 45, 70
15, 23438, Note_off_c, 3, 45, 64
15, 23442, Note_on_c, 3, 45, 53
15, 23461, Note_off_c, 3, 45, 64
15, 23463, Note_on_c, 3, 45, 66
15, 23499, Note_off_c, 3, 45, 64
15, 23520, Note_on_c, 3, 45, 89
15, 23537, Note_off_c, 3, 45, 64
15, 40330, Note_on_c, 3, 45, 107
15, 40349, Note_off_c, 3, 45, 64
15, 40356, Note_on_c, 3, 45, 119
15, 40374, Note_off_c, 3, 45, 64
15, 40382, Note_on_c, 3, 45, 85
15, 40400, Note_off_c, 3, 45, 64
15, 40410, Note_on_c, 3, 45, 102
15, 40424, Note_off_c, 3, 45, 64
15, 40430, Note_on_c, 3, 45, 95
15, 40449, Note_off_c, 3, 45, 64
15, 40462, Note_on_c, 3, 45, 107
15, 40477, Note_off_c, 3, 45, 64
15, 40484, Note_on_c, 3, 45, 93
15, 40500, Note_off_c, 3, 45, 64
15, 40515, Note_on_c, 3, 45, 107
15, 40531, Note_off_c, 3, 45, 64
15, 40539, Note_on_c, 3, 45, 82
15, 40556, Note_off_c, 3, 45, 64
15, 40568, Note_on_c, 3, 45, 107
15, 40584, Note_off_c, 3, 45, 64
15, 40592, Note_on_c, 3, 45, 82
15, 40607, Note_off_c, 3, 45, 64
15, 40623, Note_on_c, 3, 45, 93
15, 40637, Note_off_c, 3, 45, 64
15, 40652, Note_on_c, 3, 45, 80
15, 40664, Note_off_c, 3, 45, 64
15, 40673, Note_on_c, 3, 45, 100
15, 40691, Note_off_c, 3, 45, 64
15, 40698, Note_on_c, 3, 45, 80
15, 40714, Note_off_c, 3, 45, 64
15, 40723, Note_on_c, 3, 45, 82
15, 40735, Note_off_c, 3, 45, 64
15, 40744, Note_on_c, 3, 45, 82
15, 40760, Note_off_c, 3, 45, 64
15, 40772, Note_on_c, 3, 45, 102
15, 40792, Note_off_c, 3, 45, 64
15, 40809, Note_on_c, 3, 45, 100
15, 40828, Note_off_c, 3, 45, 64
15, 40995, Note_on_c, 3, 45, 102
15, 41017, Note_off_c, 3, 45, 64
15, 41057, Note_on_c, 3, 45, 119
15, 41102, Note_off_c, 3, 45, 64
15, 41217, Note_on_c, 3, 45, 93
15, 41245, Note_off_c, 3, 45, 64
15, 41285, Note_on_c, 3, 50, 102
15, 41303, Note_off_c, 3, 50, 64
15, 41317, Note_on_c, 3, 50, 116
15, 41334, Note_off_c, 3, 50, 64
15, 41338, Note_on_c, 3, 50, 105
15, 41357, Note_off_c, 3, 50, 64
15, 41370, Note_on_c, 3, 50, 105
15, 41383, Note_off_c, 3, 50, 64
15, 41391, Note_on_c, 3, 50, 98
15, 41408, Note_off_c, 3, 50, 64
15, 41420, Note_on_c, 3, 50, 100
15, 41437, Note_off_c, 3, 50, 64
15, 41441, Note_on_c, 3, 50, 80
15, 41458, Note_off_c, 3, 50, 64
15, 41472, Note_on_c, 3, 50, 105
15, 41488, Note_off_c, 3, 50, 64
15, 41493, Note_on_c, 3, 50, 100
15, 41509, Note_off_c, 3, 50, 64
15, 41521, Note_on_c, 3, 50, 110
15, 41538, Note_off_c, 3, 50, 64
15, 41547, Note_on_c, 3, 50, 89
15, 41563, Note_off_c, 3, 50, 64
15, 41574, Note_on_c, 3, 50, 102
15, 41591, Note_off_c, 3, 50, 64
15, 41600, Note_on_c, 3, 50, 82
15, 41614, Note_off_c, 3, 50, 64
15, 41623, Note_on_c, 3, 50, 102
15, 41640, Note_off_c, 3, 50, 64
15, 41646, Note_on_c, 3, 50, 98
15, 41664, Note_off_c, 3, 50, 64
15, 41671, Note_on_c, 3, 50, 105
15, 41687, Note_off_c, 3, 50, 64
15, 41691, Note_on_c, 3, 50, 57
15, 41709, Note_off_c, 3, 50, 64
15, 41715, Note_on_c, 3, 50, 102
15, 41738, Note_off_c, 3, 50, 64
15, 41751, Note_on_c, 3, 50, 95
15, 41771, Note_off_c, 3, 50, 64
15, 41951, Note_on_c, 3, 50, 87
15, 41970, Note_off_c, 3, 50, 64
15, 42009, Note_on_c, 3, 50, 110
15, 42043, Note_off_c, 3, 50, 64
15, 42172, Note_on_c, 3, 50, 100
15, 42194, Note_off_c, 3, 50, 64
15, 42237, Note_on_c, 3, 50, 119
15, 42285, Note_off_c, 3, 50, 64
15, 43189, Note_on_c, 3, 45, 102
15, 43209, Note_off_c, 3, 45, 64
15, 43215, Note_on_c, 3, 45, 122
15, 43230, Note_off_c, 3, 45, 64
15, 43241, Note_on_c, 3, 45, 95
15, 43257, Note_off_c, 3, 45, 64
15, 43263, Note_on_c, 3, 45, 107
15, 43279, Note_off_c, 3, 45, 64
15, 43289, Note_on_c, 3, 45, 93
15, 43306, Note_off_c, 3, 45, 64
15, 43310, Note_on_c, 3, 45, 107
15, 43327, Note_off_c, 3, 45, 64
15, 43337, Note_on_c, 3, 45, 80
15, 43353, Note_off_c, 3, 45, 64
15, 43360, Note_on_c, 3, 45, 105
15, 43376, Note_off_c, 3, 45, 64
15, 43390, Note_on_c, 3, 45, 68
15, 43402, Note_off_c, 3, 45, 64
15, 43409, Note_on_c, 3, 45, 105
15, 43425, Note_off_c, 3, 45, 64
15, 43441, Note_on_c, 3, 45, 72
15, 43455, Note_off_c, 3, 45, 64
15, 43459, Note_on_c, 3, 45, 110
15, 43474, Note_off_c, 3, 45, 64
15, 43495, Note_on_c, 3, 45, 85
15, 43508, Note_off_c, 3, 45, 64
15, 43514, Note_on_c, 3, 45, 80
15, 43528, Note_off_c, 3, 45, 64
15, 43547, Note_on_c, 3, 45, 64
15, 43559, Note_off_c, 3, 45, 64
15, 43565, Note_on_c, 3, 45, 105
15, 43583, Note_off_c, 3, 45, 64
15, 43595, Note_on_c, 3, 45, 70
15, 43608, Note_off_c, 3, 45, 64
15, 43614, Note_on_c, 3, 45, 102
15, 43631, Note_off_c, 3, 45, 64
15, 43642, Note_on_c, 3, 45, 89
15, 43662, Note_off_c, 3, 45, 64
15, 43681, Note_on_c, 3, 45, 107
15, 43701, Note_off_c, 3, 45, 64
15, 43841, Note_on_c, 3, 45, 102
15, 43865, Note_off_c, 3, 45, 64
15, 43901, Note_on_c, 3, 50, 110
15, 43935, Note_off_c, 3, 50, 64
15, 44082, Note_on_c, 3, 45, 116
15, 44110, Note_off_c, 3, 45, 64
15, 44144, Note_on_c, 3, 50, 122
15, 44182, Note_off_c, 3, 50, 64
15, 44635, Note_on_c, 3, 45, 119
15, 44673, Note_off_c, 3, 45, 64
15, 45300, Note_on_c, 3, 45, 113
15, 45323, Note_off_c, 3, 45, 64
15, 45363, Note_on_c, 3, 45, 113
15, 45405, Note_off_c, 3, 45, 64
15, 45541, Note_on_c, 3, 45, 107
15, 45568, Note_off_c, 3, 45, 64
15, 45599, Note_on_c, 3, 50, 105
15, 45641, Note_off_c, 3, 50, 64
15, 45777, Note_on_c, 3, 50, 107
15, 45803, Note_off_c, 3, 50, 64
15, 45844, Note_on_c, 3, 50, 110
15, 45881, Note_off_c, 3, 50, 64
15, 46020, Note_on_c, 3, 50, 107
15, 46048, Note_off_c, 3, 50, 64
15, 46088, Note_on_c, 3, 45, 113
15, 46132, Note_off_c, 3, 45, 64
15, 76431, Note_on_c, 3, 45, 59
15, 76466, Note_off_c, 3, 45, 64
15, 76554, Note_on_c, 3, 45, 62
15, 76591, Note_off_c, 3, 45, 64
15, 76672, Note_on_c, 3, 45, 66
15, 76704, Note_off_c, 3, 45, 64
15, 76792, Note_on_c, 3, 50, 80
15, 76835, Note_off_c, 3, 50, 64
15, 98398, Note_on_c, 3, 45, 105
15, 98416, Note_off_c, 3, 45, 64
15, 98424, Note_on_c, 3, 45, 105
15, 98443, Note_off_c, 3, 45, 64
15, 98454, Note_on_c, 3, 45, 80
15, 98474, Note_off_c, 3, 45, 64
15, 98481, Note_on_c, 3, 45, 98
15, 98499, Note_off_c, 3, 45, 64
15, 98513, Note_on_c, 3, 45, 80
15, 98532, Note_off_c, 3, 45, 64
15, 98536, Note_on_c, 3, 45, 70
15, 98552, Note_off_c, 3, 45, 64
15, 98572, Note_on_c, 3, 45, 76
15, 98590, Note_off_c, 3, 45, 64
15, 98593, Note_on_c, 3, 45, 64
15, 98609, Note_off_c, 3, 45, 64
15, 98630, Note_on_c, 3, 45, 66
15, 98648, Note_off_c, 3, 45, 64
15, 98654, Note_on_c, 3, 45, 60
15, 98669, Note_off_c, 3, 45, 64
15, 98687, Note_on_c, 3, 45, 66
15, 98723, Note_off_c, 3, 45, 64
15, 98746, Note_on_c, 3, 45, 66
15, 98781, Note_off_c, 3, 45, 64
15, 98809, Note_on_c, 3, 45, 74
15, 98842, Note_off_c, 3, 45, 64
15, 98868, Note_on_c, 3, 45, 76
15, 98900, Note_off_c, 3, 45, 64
15, 98926, Note_on_c, 3, 45, 80
15, 98969, Note_off_c, 3, 45, 64
15, 98984, Note_on_c, 3, 45, 78
15, 99002, Note_off_c, 3, 45, 64
15, 99014, Note_on_c, 3, 45, 80
15, 99036, Note_off_c, 3, 45, 64
15, 99044, Note_on_c, 3, 45, 62
15, 99059, Note_off_c, 3, 45, 64
15, 99076, Note_on_c, 3, 45, 93
15, 99097, Note_off_c, 3, 45, 64
15, 99104, Note_on_c, 3, 45, 60
15, 99118, Note_off_c, 3, 45, 64
15, 99135, Note_on_c, 3, 45, 91
15, 99177, Note_off_c, 3, 45, 64
15, 99199, Note_on_c, 3, 45, 87
15, 99241, Note_off_c, 3, 45, 64
15, 99260, Note_on_c, 3, 45, 82
15, 99301, Note_off_c, 3, 45, 64
15, 99322, Note_on_c, 3, 45, 87
15, 99344, Note_off_c, 3, 45, 64
15, 99348, Note_on_c, 3, 45, 51
15, 99365, Note_off_c, 3, 45, 64
15, 99380, Note_on_c, 3, 45, 78
15, 99400, Note_off_c, 3, 45, 64
15, 99415, Note_on_c, 3, 45, 68
15, 99434, Note_off_c, 3, 45, 64
15, 99440, Note_on_c, 3, 45, 91
15, 99465, Note_off_c, 3, 45, 64
15, 99472, Note_on_c, 3, 45, 80
15, 99492, Note_off_c, 3, 45, 64
15, 99507, Note_on_c, 3, 45, 64
15, 99525, Note_off_c, 3, 45, 64
15, 99536, Note_on_c, 3, 45, 72
15, 99555, Note_off_c, 3, 45, 64
15, 99569, Note_on_c, 3, 45, 74
15, 99587, Note_off_c, 3, 45, 64
15, 99599, Note_on_c, 3, 45, 70
15, 99616, Note_off_c, 3, 45, 64
15, 99630, Note_on_c, 3, 45, 80
15, 99648, Note_off_c, 3, 45, 64
15, 99659, Note_on_c, 3, 45, 72
15, 99678, Note_off_c, 3, 45, 64
15, 99693, Note_on_c, 3, 45, 80
15, 99712, Note_off_c, 3, 45, 64
15, 99722, Note_on_c, 3, 45, 68
15, 99739, Note_off_c, 3, 45, 64
15, 99755, Note_on_c, 3, 45, 91
15, 99777, Note_off_c, 3, 45, 64
15, 99786, Note_on_c, 3, 45, 62
15, 99802, Note_off_c, 3, 45, 64
15, 99821, Note_on_c, 3, 45, 85
15, 99863, Note_off_c, 3, 45, 64
15, 99887, Note_on_c, 3, 45, 85
15, 99926, Note_off_c, 3, 45, 64
15, 99949, Note_on_c, 3, 45, 85
15, 99972, Note_off_c, 3, 45, 64
15, 99981, Note_on_c, 3, 45, 70
15, 99997, Note_off_c, 3, 45, 64
15, 100014, Note_on_c, 3, 45, 85
15, 100038, Note_off_c, 3, 45, 64
15, 100049, Note_on_c, 3, 45, 57
15, 100064, Note_off_c, 3, 45, 64
15, 100082, Note_on_c, 3, 45, 80
15, 100102, Note_off_c, 3, 45, 64
15, 100112, Note_on_c, 3, 45, 64
15, 100132, Note_off_c, 3, 45, 64
15, 100144, Note_on_c, 3, 45, 66
15, 100168, Note_off_c, 3, 45, 64
15, 100177, Note_on_c, 3, 45, 48
15, 100189, Note_off_c, 3, 45, 64
15, 100208, Note_on_c, 3, 45, 82
15, 100246, Note_off_c, 3, 45, 64
15, 100262, Note_on_c, 3, 45, 87
15, 100290, Note_off_c, 3, 45, 64
15, 100315, Note_on_c, 3, 45, 102
15, 100337, Note_off_c, 3, 45, 64
15, 104756, Note_on_c, 3, 45, 95
15, 104799, Note_off_c, 3, 45, 64
15, 104868, Note_on_c, 3, 45, 98
15, 104912, Note_off_c, 3, 45, 64
15, 104984, Note_on_c, 3, 45, 91
15, 105020, Note_off_c, 3, 45, 64
15, 105111, Note_on_c, 3, 50, 102
15, 105138, Note_off_c, 3, 50, 64
15, 105143, Note_on_c, 3, 50, 85
15, 105163, Note_off_c, 3, 50, 64
15, 105176, Note_on_c, 3, 50, 80
15, 105200, Note_off_c, 3, 50, 64
15, 105210, Note_on_c, 3, 50, 98
15, 105226, Note_off_c, 3, 50, 64
15, 105239, Note_on_c, 3, 50, 63
15, 105258, Note_off_c, 3, 50, 64
15, 105273, Note_on_c, 3, 50, 105
15, 105295, Note_off_c, 3, 50, 64
15, 105309, Note_on_c, 3, 50, 58
15, 105323, Note_off_c, 3, 50, 64
15, 105339, Note_on_c, 3, 50, 85
15, 105382, Note_off_c, 3, 50, 64
15, 105399, Note_on_c, 3, 50, 89
15, 105419, Note_off_c, 3, 50, 64
15, 105429, Note_on_c, 3, 50, 55
15, 105446, Note_off_c, 3, 50, 64
15, 105463, Note_on_c, 3, 50, 80
15, 105480, Note_off_c, 3, 50, 64
15, 105489, Note_on_c, 3, 50, 66
15, 105511, Note_off_c, 3, 50, 64
15, 105523, Note_on_c, 3, 50, 82
15, 105544, Note_off_c, 3, 50, 64
15, 105557, Note_on_c, 3, 50, 57
15, 105575, Note_off_c, 3, 50, 64
15, 105584, Note_on_c, 3, 50, 91
15, 105608, Note_off_c, 3, 50, 64
15, 105618, Note_on_c, 3, 50, 72
15, 105641, Note_off_c, 3, 50, 64
15, 105650, Note_on_c, 3, 50, 98
15, 105673, Note_off_c, 3, 50, 64
15, 105681, Note_on_c, 3, 50, 91
15, 105703, Note_off_c, 3, 50, 64
15, 105713, Note_on_c, 3, 50, 95
15, 105734, Note_off_c, 3, 50, 64
15, 105742, Note_on_c, 3, 50, 85
15, 105763, Note_off_c, 3, 50, 64
15, 105776, Note_on_c, 3, 50, 78
15, 105794, Note_off_c, 3, 50, 64
15, 105808, Note_on_c, 3, 50, 74
15, 105830, Note_off_c, 3, 50, 64
15, 105838, Note_on_c, 3, 50, 91
15, 105861, Note_off_c, 3, 50, 64
15, 105872, Note_on_c, 3, 50, 72
15, 105890, Note_off_c, 3, 50, 64
15, 105900, Note_on_c, 3, 50, 93
15, 105921, Note_off_c, 3, 50, 64
15, 105932, Note_on_c, 3, 50, 78
15, 105950, Note_off_c, 3, 50, 64
15, 105961, Note_on_c, 3, 50, 93
15, 105980, Note_off_c, 3, 50, 64
15, 105995, Note_on_c, 3, 50, 80
15, 106016, Note_off_c, 3, 50, 64
15, 106022, Note_on_c, 3, 50, 59
15, 106040, Note_off_c, 3, 50, 64
15, 106060, Note_on_c, 3, 50, 82
15, 106077, Note_off_c, 3, 50, 64
15, 106085, Note_on_c, 3, 50, 98
15, 106107, Note_off_c, 3, 50, 64
15, 106121, Note_on_c, 3, 50, 76
15, 106140, Note_off_c, 3, 50, 64
15, 106150, Note_on_c, 3, 50, 100
15, 106173, Note_off_c, 3, 50, 64
15, 106188, Note_on_c, 3, 50, 72
15, 106205, Note_off_c, 3, 50, 64
15, 106215, Note_on_c, 3, 50, 93
15, 106237, Note_off_c, 3, 50, 64
15, 106247, Note_on_c, 3, 50, 80
15, 106270, Note_off_c, 3, 50, 64
15, 106283, Note_on_c, 3, 50, 82
15, 106333, Note_off_c, 3, 50, 64
15, 106349, Note_on_c, 3, 50, 95
15, 106389, Note_off_c, 3, 50, 64
15, 106409, Note_on_c, 3, 50, 85
15, 106448, Note_off_c, 3, 50, 64
15, 106469, Note_on_c, 3, 50, 102
15, 106496, Note_off_c, 3, 50, 64
15, 106531, Note_on_c, 3, 50, 102
15, 106559, Note_off_c, 3, 50, 64
15, 125779, Note_on_c, 3, 50, 113
15, 125799, Note_off_c, 3, 50, 64
15, 125800, Note_on_c, 3, 50, 102
15, 125817, Note_off_c, 3, 50, 64
15, 125823, Note_on_c, 3, 50, 95
15, 125846, Note_off_c, 3, 50, 64
15, 125848, Note_on_c, 3, 50, 93
15, 125864, Note_off_c, 3, 50, 64
15, 125872, Note_on_c, 3, 50, 85
15, 125909, Note_off_c, 3, 50, 64
15, 125922, Note_on_c, 3, 50, 72
15, 125937, Note_off_c, 3, 50, 64
15, 125942, Note_on_c, 3, 50, 66
15, 125954, Note_off_c, 3, 50, 64
15, 125974, Note_on_c, 3, 50, 58
15, 125988, Note_off_c, 3, 50, 64
15, 125991, Note_on_c, 3, 50, 78
15, 126005, Note_off_c, 3, 50, 64
15, 126024, Note_on_c, 3, 50, 66
15, 126058, Note_off_c, 3, 50, 64
15, 126071, Note_on_c, 3, 50, 66
15, 126089, Note_off_c, 3, 50, 64
15, 126095, Note_on_c, 3, 50, 59
15, 126104, Note_off_c, 3, 50, 64
15, 126120, Note_on_c, 3, 50, 76
15, 126151, Note_off_c, 3, 50, 64
15, 126168, Note_on_c, 3, 50, 76
15, 126200, Note_off_c, 3, 50, 64
15, 126219, Note_on_c, 3, 50, 80
15, 126253, Note_off_c, 3, 50, 64
15, 126268, Note_on_c, 3, 50, 82
15, 126286, Note_off_c, 3, 50, 64
15, 126292, Note_on_c, 3, 50, 98
15, 126306, Note_off_c, 3, 50, 64
15, 126319, Note_on_c, 3, 50, 78
15, 126336, Note_off_c, 3, 50, 64
15, 126342, Note_on_c, 3, 50, 93
15, 126356, Note_off_c, 3, 50, 64
15, 126371, Note_on_c, 3, 50, 82
15, 126386, Note_off_c, 3, 50, 64
15, 126395, Note_on_c, 3, 50, 87
15, 126408, Note_off_c, 3, 50, 64
15, 126420, Note_on_c, 3, 50, 80
15, 126436, Note_off_c, 3, 50, 64
15, 126443, Note_on_c, 3, 50, 95
15, 126459, Note_off_c, 3, 50, 64
15, 126466, Note_on_c, 3, 50, 85
15, 126483, Note_off_c, 3, 50, 64
15, 126493, Note_on_c, 3, 50, 91
15, 126506, Note_off_c, 3, 50, 64
15, 126519, Note_on_c, 3, 50, 82
15, 126535, Note_off_c, 3, 50, 64
15, 126542, Note_on_c, 3, 50, 70
15, 126553, Note_off_c, 3, 50, 64
15, 126569, Note_on_c, 3, 50, 78
15, 126602, Note_off_c, 3, 50, 64
15, 126621, Note_on_c, 3, 50, 68
15, 126638, Note_off_c, 3, 50, 64
15, 126645, Note_on_c, 3, 50, 72
15, 126659, Note_off_c, 3, 50, 64
15, 126675, Note_on_c, 3, 50, 78
15, 126692, Note_off_c, 3, 50, 64
15, 126698, Note_on_c, 3, 50, 100
15, 126710, Note_off_c, 3, 50, 64
15, 126724, Note_on_c, 3, 50, 87
15, 126742, Note_off_c, 3, 50, 64
15, 126748, Note_on_c, 3, 50, 100
15, 126761, Note_off_c, 3, 50, 64
15, 126775, Note_on_c, 3, 50, 82
15, 126794, Note_off_c, 3, 50, 64
15, 126795, Note_on_c, 3, 50, 78
15, 126809, Note_off_c, 3, 50, 64
15, 126830, Note_on_c, 3, 50, 80
15, 126862, Note_off_c, 3, 50, 64
15, 126881, Note_on_c, 3, 50, 78
15, 126915, Note_off_c, 3, 50, 64
15, 126933, Note_on_c, 3, 50, 72
15, 126950, Note_off_c, 3, 50, 64
15, 126954, Note_on_c, 3, 50, 100
15, 126970, Note_off_c, 3, 50, 64
15, 126985, Note_on_c, 3, 50, 74
15, 127002, Note_off_c, 3, 50, 64
15, 127009, Note_on_c, 3, 50, 102
15, 127027, Note_off_c, 3, 50, 64
15, 127038, Note_on_c, 3, 50, 63
15, 127055, Note_off_c, 3, 50, 64
15, 127063, Note_on_c, 3, 50, 95
15, 127079, Note_off_c, 3, 50, 64
15, 127094, Note_on_c, 3, 50, 63
15, 127110, Note_off_c, 3, 50, 64
15, 127115, Note_on_c, 3, 50, 64
15, 127128, Note_off_c, 3, 50, 64
15, 127148, Note_on_c, 3, 50, 70
15, 127178, Note_off_c, 3, 50, 64
15, 127201, Note_on_c, 3, 50, 72
15, 127233, Note_off_c, 3, 50, 64
15, 127253, Note_on_c, 3, 50, 68
15, 127270, Note_off_c, 3, 50, 64
15, 127277, Note_on_c, 3, 50, 66
15, 127291, Note_off_c, 3, 50, 64
15, 127305, Note_on_c, 3, 50, 82
15, 127323, Note_off_c, 3, 50, 64
15, 127334, Note_on_c, 3, 50, 85
15, 127353, Note_off_c, 3, 50, 64
15, 127363, Note_on_c, 3, 50, 64
15, 127380, Note_off_c, 3, 50, 64
15, 127391, Note_on_c, 3, 50, 102
15, 127412, Note_off_c, 3, 50, 64
15, 127420, Note_on_c, 3, 50, 61
15, 127436, Note_off_c, 3, 50, 64
15, 127448, Note_on_c, 3, 50, 95
15, 127489, Note_off_c, 3, 50, 64
15, 127502, Note_on_c, 3, 50, 93
15, 127522, Note_off_c, 3, 50, 64
15, 127529, Note_on_c, 3, 50, 49
15, 127544, Note_off_c, 3, 50, 64
15, 127555, Note_on_c, 3, 50, 85
15, 127574, Note_off_c, 3, 50, 64
15, 127582, Note_on_c, 3, 50, 70
15, 127600, Note_off_c, 3, 50, 64
15, 127605, Note_on_c, 3, 50, 74
15, 127624, Note_off_c, 3, 50, 64
15, 127632, Note_on_c, 3, 50, 57
15, 127666, Note_off_c, 3, 50, 64
15, 127685, Note_on_c, 3, 50, 82
15, 127710, Note_off_c, 3, 50, 64
15, 127913, Note_on_c, 3, 50, 105
15, 127940, Note_off_c, 3, 50, 64
15, 127971, Note_on_c, 3, 50, 102
15, 127999, Note_off_c, 3, 50, 64
15, 128032, Note_on_c, 3, 50, 105
15, 128058, Note_off_c, 3, 50, 64
15, 128094, Note_on_c, 3, 50, 102
15, 128119, Note_off_c, 3, 50, 64
15, 128162, Note_on_c, 3, 50, 110
15, 128198, Note_off_c, 3, 50, 64
15, 128331, Note_on_c, 3, 50, 102
15, 128357, Note_off_c, 3, 50, 64
15, 128400, Note_on_c, 3, 50, 107
15, 128435, Note_off_c, 3, 50, 64
15, 128576, Note_on_c, 3, 50, 105
15, 128602, Note_off_c, 3, 50, 64
15, 128647, Note_on_c, 3, 50, 119
15, 128694, Note_off_c, 3, 50, 64
15, 136319, Note_on_c, 3, 50, 105
15, 136335, Note_off_c, 3, 50, 64
15, 136347, Note_on_c, 3, 50, 107
15, 136363, Note_off_c, 3, 50, 64
15, 136370, Note_on_c, 3, 50, 87
15, 136386, Note_off_c, 3, 50, 64
15, 136394, Note_on_c, 3, 50, 98
15, 136408, Note_off_c, 3, 50, 64
15, 136417, Note_on_c, 3, 50, 87
15, 136435, Note_off_c, 3, 50, 64
15, 136439, Note_on_c, 3, 50, 66
15, 136452, Note_off_c, 3, 50, 64
15, 136467, Note_on_c, 3, 50, 85
15, 136501, Note_off_c, 3, 50, 64
15, 136515, Note_on_c, 3, 50, 85
15, 136550, Note_off_c, 3, 50, 64
15, 136569, Note_on_c, 3, 50, 87
15, 136594, Note_off_c, 3, 50, 64
15, 136620, Note_on_c, 3, 50, 89
15, 136643, Note_off_c, 3, 50, 64
15, 136670, Note_on_c, 3, 50, 87
15, 136702, Note_off_c, 3, 50, 64
15, 136719, Note_on_c, 3, 50, 85
15, 136736, Note_off_c, 3, 50, 64
15, 136742, Note_on_c, 3, 50, 107
15, 136755, Note_off_c, 3, 50, 64
15, 136771, Note_on_c, 3, 50, 82
15, 136787, Note_off_c, 3, 50, 64
15, 136792, Note_on_c, 3, 50, 105
15, 136807, Note_off_c, 3, 50, 64
15, 136825, Note_on_c, 3, 50, 78
15, 136840, Note_off_c, 3, 50, 64
15, 136846, Note_on_c, 3, 50, 105
15, 136862, Note_off_c, 3, 50, 64
15, 136881, Note_on_c, 3, 50, 82
15, 136914, Note_off_c, 3, 50, 64
15, 136930, Note_on_c, 3, 50, 80
15, 136947, Note_off_c, 3, 50, 64
15, 136949, Note_on_c, 3, 50, 70
15, 136964, Note_off_c, 3, 50, 64
15, 136981, Note_on_c, 3, 50, 80
15, 136997, Note_off_c, 3, 50, 64
15, 137002, Note_on_c, 3, 50, 102
15, 137020, Note_off_c, 3, 50, 64
15, 137035, Note_on_c, 3, 50, 78
15, 137050, Note_off_c, 3, 50, 64
15, 137058, Note_on_c, 3, 50, 102
15, 137074, Note_off_c, 3, 50, 64
15, 137091, Note_on_c, 3, 50, 80
15, 137107, Note_off_c, 3, 50, 64
15, 137113, Note_on_c, 3, 50, 72
15, 137128, Note_off_c, 3, 50, 64
15, 137144, Note_on_c, 3, 50, 76
15, 137159, Note_off_c, 3, 50, 64
15, 137164, Note_on_c, 3, 50, 63
15, 137177, Note_off_c, 3, 50, 64
15, 137193, Note_on_c, 3, 50, 78
15, 137220, Note_off_c, 3, 50, 64
15, 137254, Note_on_c, 3, 50, 100
15, 137276, Note_off_c, 3, 50, 64
15, 137293, Note_on_c, 3, 50, 98
15, 137312, Note_off_c, 3, 50, 64
15, 137461, Note_on_c, 3, 50, 98
15, 137474, Note_off_c, 3, 50, 64
15, 137478, Note_on_c, 3, 50, 51
15, 137488, Note_off_c, 3, 50, 64
15, 137503, Note_on_c, 3, 50, 110
15, 137522, Note_off_c, 3, 50, 64
15, 137532, Note_on_c, 3, 50, 110
15, 137551, Note_off_c, 3, 50, 64
15, 137694, Note_on_c, 3, 50, 105
15, 137716, Note_off_c, 3, 50, 64
15, 137756, Note_on_c, 3, 50, 107
15, 137790, Note_off_c, 3, 50, 64
15, 146516, Note_on_c, 3, 50, 113
15, 146552, Note_off_c, 3, 50, 64
15, 146636, Note_on_c, 3, 50, 107
15, 146672, Note_off_c, 3, 50, 64
15, 146757, Note_on_c, 3, 50, 110
15, 146793, Note_off_c, 3, 50, 64
15, 146885, Note_on_c, 3, 50, 127
15, 146934, Note_off_c, 3, 50, 64
15, 147954, Note_on_c, 3, 50, 107
15, 147996, Note_off_c, 3, 50, 64
15, 148072, Note_on_c, 3, 50, 107
15, 148113, Note_off_c, 3, 50, 64
15, 148197, Note_on_c, 3, 50, 110
15, 148234, Note_off_c, 3, 50, 64
15, 148322, Note_on_c, 3, 45, 122
15, 148386, Note_off_c, 3, 45, 64
15, 151802, Note_on_c, 3, 50, 110
15, 151845, Note_off_c, 3, 50, 64
15, 151922, Note_on_c, 3, 50, 110
15, 151972, Note_off_c, 3, 50, 64
15, 152037, Note_on_c, 3, 50, 113
15, 152069, Note_off_c, 3, 50, 64
15, 152159, Note_on_c, 3, 50, 119
15, 152214, Note_off_c, 3, 50, 64
15, 152645, Note_on_c, 3, 45, 119
15, 152712, Note_off_c, 3, 45, 64
15, 153240, Note_on_c, 3, 45, 110
15, 153282, Note_off_c, 3, 45, 64
15, 153350, Note_on_c, 3, 50, 116
15, 153395, Note_off_c, 3, 50, 64
15, 153475, Note_on_c, 3, 50, 113
15, 153519, Note_off_c, 3, 50, 64
15, 153595, Note_on_c, 3, 45, 122
15, 153654, Note_off_c, 3, 45, 64
15, 154674, Note_on_c, 3, 45, 113
15, 154713, Note_off_c, 3, 45, 64
15, 154791, Note_on_c, 3, 45, 113
15, 154829, Note_off_c, 3, 45, 64
15, 154907, Note_on_c, 3, 45, 116
15, 154947, Note_off_c, 3, 45, 64
15, 155032, Note_on_c, 3, 50, 122
15, 155092, Note_off_c, 3, 50, 64
15, 155870, Note_on_c, 3, 45, 105
15, 155916, Note_off_c, 3, 45, 64
15, 155984, Note_on_c, 3, 50, 107
15, 156037, Note_off_c, 3, 50, 64
15, 156230, Note_on_c, 3, 50, 110
15, 156274, Note_off_c, 3, 50, 64
15, 156475, Note_on_c, 3, 45, 113
15, 156532, Note_off_c, 3, 45, 64
15, 156716, Note_on_c, 3, 45, 110
15, 156755, Note_off_c, 3, 45, 64
15, 156840, Note_on_c, 3, 45, 105
15, 156882, Note_off_c, 3, 45, 64
15, 156957, Note_on_c, 3, 50, 119
15, 157009, Note_off_c, 3, 50, 64
15, 157201, Note_on_c, 3, 45, 110
15, 157250, Note_off_c, 3, 45, 64
15, 157455, Note_on_c, 3, 50, 127
15, 157526, Note_off_c, 3, 50, 64
15, 173873, Note_on_c, 3, 45, 102
15, 173912, Note_off_c, 3, 45, 64
15, 173994, Note_on_c, 3, 45, 102
15, 174034, Note_off_c, 3, 45, 64
15, 174110, Note_on_c, 3, 45, 102
15, 174148, Note_off_c, 3, 45, 64
15, 174224, Note_on_c, 3, 50, 110
15, 174275, Note_off_c, 3, 50, 64
15, 177104, Note_on_c, 3, 45, 116
15, 177166, Note_off_c, 3, 45, 64
15, 182393, Note_on_c, 3, 50, 119
15, 182448, Note_off_c, 3, 50, 64
15, 202667, Note_on_c, 3, 45, 85
15, 202713, Note_off_c, 3, 45, 64
15, 202790, Note_on_c, 3, 45, 100
15, 202840, Note_off_c, 3, 45, 64
15, 202907, Note_on_c, 3, 45, 102
15, 202952, Note_off_c, 3, 45, 64
15, 203026, Note_on_c, 3, 45, 107
15, 203069, Note_off_c, 3, 45, 64
15, 203155, Note_on_c, 3, 45, 105
15, 203192, Note_off_c, 3, 45, 64
15, 203274, Note_on_c, 3, 45, 107
15, 203313, Note_off_c, 3, 45, 64
15, 203390, Note_on_c, 3, 45, 102
15, 203428, Note_off_c, 3, 45, 64
15, 203511, Note_on_c, 3, 45, 107
15, 203550, Note_off_c, 3, 45, 64
15, 203627, Note_on_c, 3, 45, 105
15, 203669, Note_off_c, 3, 45, 64
15, 203749, Note_on_c, 3, 45, 107
15, 203787, Note_off_c, 3, 45, 64
15, 203868, Note_on_c, 3, 45, 113
15, 203909, Note_off_c, 3, 45, 64
15, 203991, Note_on_c, 3, 50, 116
15, 204036, Note_off_c, 3, 50, 64
15, 204364, Note_on_c, 3, 50, 113
15, 204387, Note_off_c, 3, 50, 64
15, 204414, Note_on_c, 3, 50, 100
15, 204438, Note_off_c, 3, 50, 64
15, 204471, Note_on_c, 3, 50, 105
15, 204505, Note_off_c, 3, 50, 64
15, 204842, Note_on_c, 3, 50, 119
15, 204870, Note_off_c, 3, 50, 64
15, 204894, Note_on_c, 3, 50, 95
15, 204920, Note_off_c, 3, 50, 64
15, 204948, Note_on_c, 3, 50, 107
15, 204979, Note_off_c, 3, 50, 64
15, 205072, Note_on_c, 3, 50, 107
15, 205108, Note_off_c, 3, 50, 64
15, 205191, Note_on_c, 3, 50, 110
15, 205231, Note_off_c, 3, 50, 64
15, 205312, Note_on_c, 3, 50, 113
15, 205349, Note_off_c, 3, 50, 64
15, 205433, Note_on_c, 3, 50, 122
15, 205473, Note_off_c, 3, 50, 64
15, 208914, Note_on_c, 3, 50, 119
15, 208959, Note_off_c, 3, 50, 64
15, 209037, Note_on_c, 3, 50, 110
15, 209077, Note_off_c, 3, 50, 64
15, 209151, Note_on_c, 3, 50, 105
15, 209191, Note_off_c, 3, 50, 64
15, 209271, Note_on_c, 3, 50, 122
15, 209327, Note_off_c, 3, 50, 64
15, 210352, Note_on_c, 3, 50, 110
15, 210395, Note_off_c, 3, 50, 64
15, 210468, Note_on_c, 3, 50, 107
15, 210513, Note_off_c, 3, 50, 64
15, 210592, Note_on_c, 3, 50, 110
15, 210631, Note_off_c, 3, 50, 64
15, 210719, Note_on_c, 3, 45, 122
15, 210777, Note_off_c, 3, 45, 64
15, 214194, Note_on_c, 3, 50, 110
15, 214232, Note_off_c, 3, 50, 64
15, 214304, Note_on_c, 3, 50, 110
15, 214343, Note_off_c, 3, 50, 64
15, 214424, Note_on_c, 3, 50, 113
15, 214460, Note_off_c, 3, 50, 64
15, 214544, Note_on_c, 3, 50, 116
15, 214615, Note_off_c, 3, 50, 64
15, 215030, Note_on_c, 3, 45, 122
15, 215103, Note_off_c, 3, 45, 64
15, 215632, Note_on_c, 3, 45, 119
15, 215679, Note_off_c, 3, 45, 64
15, 215749, Note_on_c, 3, 50, 113
15, 215790, Note_off_c, 3, 50, 64
15, 215873, Note_on_c, 3, 50, 110
15, 215912, Note_off_c, 3, 50, 64
15, 215998, Note_on_c, 3, 45, 127
15, 216059, Note_off_c, 3, 45, 64
15, 217078, Note_on_c, 3, 45, 116
15, 217117, Note_off_c, 3, 45, 64
15, 217195, Note_on_c, 3, 45, 110
15, 217235, Note_off_c, 3, 45, 64
15, 217317, Note_on_c, 3, 45, 119
15, 217356, Note_off_c, 3, 45, 64
15, 217434, Note_on_c, 3, 50, 122
15, 217486, Note_off_c, 3, 50, 64
15, 218268, Note_on_c, 3, 45, 113
15, 218313, Note_off_c, 3, 45, 64
15, 218387, Note_on_c, 3, 50, 113
15, 218437, Note_off_c, 3, 50, 64
15, 218632, Note_on_c, 3, 50, 113
15, 218682, Note_off_c, 3, 50, 64
15, 218867, Note_on_c, 3, 45, 119
15, 218925, Note_off_c, 3, 45, 64
15, 219114, Note_on_c, 3, 45, 116
15, 219152, Note_off_c, 3, 45, 64
15, 219238, Note_on_c, 3, 45, 116
15, 219272, Note_off_c, 3, 45, 64
15, 219355, Note_on_c, 3, 50, 116
15, 219405, Note_off_c, 3, 50, 64
15, 219598, Note_on_c, 3, 45, 119
15, 219657, Note_off_c, 3, 45, 64
15, 232331, Note_on_c, 3, 45, 113
15, 232352, Note_off_c, 3, 45, 64
15, 232357, Note_on_c, 3, 45, 122
15, 232374, Note_off_c, 3, 45, 64
15, 232381, Note_on_c, 3, 45, 95
15, 232401, Note_off_c, 3, 45, 64
15, 232408, Note_on_c, 3, 45, 107
15, 232424, Note_off_c, 3, 45, 64
15, 232432, Note_on_c, 3, 45, 74
15, 232451, Note_off_c, 3, 45, 64
15, 232457, Note_on_c, 3, 45, 80
15, 232470, Note_off_c, 3, 45, 64
15, 232485, Note_on_c, 3, 45, 80
15, 232502, Note_off_c, 3, 45, 64
15, 232508, Note_on_c, 3, 45, 66
15, 232522, Note_off_c, 3, 45, 64
15, 232535, Note_on_c, 3, 45, 89
15, 232552, Note_off_c, 3, 45, 64
15, 232557, Note_on_c, 3, 45, 105
15, 232574, Note_off_c, 3, 45, 64
15, 232593, Note_on_c, 3, 45, 82
15, 232628, Note_off_c, 3, 45, 64
15, 232647, Note_on_c, 3, 45, 80
15, 232681, Note_off_c, 3, 45, 64
15, 232702, Note_on_c, 3, 45, 70
15, 232729, Note_off_c, 3, 45, 64
15, 232748, Note_on_c, 3, 45, 70
15, 232767, Note_off_c, 3, 45, 64
15, 232789, Note_on_c, 3, 45, 98
15, 232810, Note_off_c, 3, 45, 64
15, 232814, Note_on_c, 3, 45, 100
15, 232839, Note_off_c, 3, 45, 64
15, 232919, Note_on_c, 3, 45, 102
15, 232934, Note_off_c, 3, 45, 64
15, 232953, Note_on_c, 3, 45, 102
15, 232974, Note_off_c, 3, 45, 64
15, 232989, Note_on_c, 3, 45, 100
15, 233010, Note_off_c, 3, 45, 64
15, 233022, Note_on_c, 3, 50, 122
15, 233048, Note_off_c, 3, 50, 64
15, 233217, Note_on_c, 3, 45, 110
15, 233243, Note_off_c, 3, 45, 64
15, 233274, Note_on_c, 3, 50, 119
15, 233310, Note_off_c, 3, 50, 64
15, 233444, Note_on_c, 3, 45, 116
15, 233469, Note_off_c, 3, 45, 64
15, 233503, Note_on_c, 3, 50, 119
15, 233538, Note_off_c, 3, 50, 64
15, 233682, Note_on_c, 3, 50, 105
15, 233708, Note_off_c, 3, 50, 64
15, 233746, Note_on_c, 3, 45, 122
15, 233782, Note_off_c, 3, 45, 64
15, 233867, Note_on_c, 3, 45, 107
15, 233891, Note_off_c, 3, 45, 64
15, 233918, Note_on_c, 3, 45, 102
15, 233948, Note_off_c, 3, 45, 64
15, 233987, Note_on_c, 3, 45, 122
15, 234018, Note_off_c, 3, 45, 64
15, 234174, Note_on_c, 3, 45, 113
15, 234198, Note_off_c, 3, 45, 64
15, 234244, Note_on_c, 3, 50, 119
15, 234263, Note_off_c, 3, 50, 64
15, 234268, Note_on_c, 3, 50, 100
15, 234283, Note_off_c, 3, 50, 64
15, 234292, Note_on_c, 3, 50, 102
15, 234309, Note_off_c, 3, 50, 64
15, 234313, Note_on_c, 3, 50, 98
15, 234327, Note_off_c, 3, 50, 64
15, 234339, Note_on_c, 3, 50, 95
15, 234371, Note_off_c, 3, 50, 64
15, 234385, Note_on_c, 3, 50, 87
15, 234421, Note_off_c, 3, 50, 64
15, 234432, Note_on_c, 3, 50, 78
15, 234448, Note_off_c, 3, 50, 64
15, 234454, Note_on_c, 3, 50, 107
15, 234473, Note_off_c, 3, 50, 64
15, 234477, Note_on_c, 3, 50, 95
15, 234495, Note_off_c, 3, 50, 64
15, 234503, Note_on_c, 3, 50, 102
15, 234521, Note_off_c, 3, 50, 64
15, 234526, Note_on_c, 3, 50, 87
15, 234542, Note_off_c, 3, 50, 64
15, 234549, Note_on_c, 3, 50, 102
15, 234566, Note_off_c, 3, 50, 64
15, 234572, Note_on_c, 3, 50, 59
15, 234586, Note_off_c, 3, 50, 64
15, 234591, Note_on_c, 3, 50, 72
15, 234606, Note_off_c, 3, 50, 64
15, 234614, Note_on_c, 3, 50, 68
15, 234663, Note_off_c, 3, 50, 64
15, 234667, Note_on_c, 3, 50, 102
15, 234688, Note_off_c, 3, 50, 64
15, 234697, Note_on_c, 3, 50, 110
15, 234713, Note_off_c, 3, 50, 64
15, 234713, End_track
16, 0, Start_track
16, 0, Title_t, "Oboe"
16, 0, Program_c, 4, 68
16, 0, Control_c, 4, 7, 100
16, 17643, Note_on_c, 4, 71, 72
16, 17672, Note_on_c, 4, 73, 85
16, 17688, Note_off_c, 4, 71, 64
16, 17696, Note_on_c, 4, 74, 78
16, 17706, Note_off_c, 4, 73, 64
16, 17712, Note_on_c, 4, 76, 80
16, 17734, Note_off_c, 4, 74, 64
16, 17737, Note_on_c, 4, 78, 89
16, 17750, Note_off_c, 4, 76, 64
16, 17757, Note_on_c, 4, 79, 87
16, 17769, Note_off_c, 4, 78, 64
16, 17854, Note_off_c, 4, 79, 64
16, 17941, Note_on_c, 4, 76, 85
16, 17984, Note_off_c, 4, 76, 64
16, 17997, Note_on_c, 4, 78, 100
16, 18070, Note_off_c, 4, 78, 64
16, 18173, Note_on_c, 4, 79, 82
16, 18208, Note_off_c, 4, 79, 64
16, 18237, Note_on_c, 4, 81, 102
16, 18584, Note_off_c, 4, 81, 64
16, 18652, Note_on_c, 4, 72, 85
16, 18683, Note_off_c, 4, 72, 64
16, 18711, Note_on_c, 4, 74, 85
16, 18747, Note_on_c, 4, 72, 76
16, 18752, Note_off_c, 4, 74, 64
16, 18766, Note_on_c, 4, 74, 70
16, 18768, Note_off_c, 4, 72, 64
16, 18791, Note_on_c, 4, 72, 70
16, 18794, Note_off_c, 4, 74, 64
16, 18812, Note_on_c, 4, 74, 66
16, 18818, Note_off_c, 4, 72, 64
16, 18825, Note_off_c, 4, 74, 64
16, 18825, Note_on_c, 4, 72, 30
16, 18840, Note_off_c, 4, 72, 64
16, 18842, Note_on_c, 4, 74, 68
16, 18858, Note_on_c, 4, 72, 82
16, 18873, Note_off_c, 4, 74, 64
16, 18889, Note_off_c, 4, 72, 64
16, 18889, Note_on_c, 4, 71, 80
16, 18918, Note_on_c, 4, 72, 64
16, 18927, Note_off_c, 4, 71, 64
16, 18950, Note_off_c, 4, 72, 64
16, 18950, Note_on_c, 4, 74, 100
16, 19031, Note_off_c, 4, 74, 64
16, 19132, Note_on_c, 4, 69, 80
16, 19166, Note_off_c, 4, 69, 64
16, 19193, Note_on_c, 4, 71, 100
16, 19467, Note_off_c, 4, 71, 64
16, 19497, Note_on_c, 4, 69, 82
16, 19535, Note_off_c, 4, 69, 64
16, 19554, Note_on_c, 4, 67, 82
16, 19585, Note_off_c, 4, 67, 64
16, 19608, Note_on_c, 4, 66, 89
16, 19646, Note_off_c, 4, 66, 64
16, 19669, Note_on_c, 4, 64, 87
16, 19714, Note_off_c, 4, 64, 64
16, 19729, Note_on_c, 4, 66, 87
16, 19768, Note_off_c, 4, 66, 64
16, 19789, Note_on_c, 4, 67, 76
16, 19839, Note_off_c, 4, 67, 64
16, 19850, Note_on_c, 4, 69, 87
16, 19890, Note_off_c, 4, 69, 64
16, 19906, Note_on_c, 4, 71, 93
16, 19956, Note_off_c, 4, 71, 64
16, 19962, Note_on_c, 4, 73, 80
16, 20010, Note_off_c, 4, 73, 64
16, 20022, Note_on_c, 4, 74, 93
16, 20065, Note_off_c, 4, 74, 64
16, 20080, Note_on_c, 4, 71, 78
16, 20122, Note_off_c, 4, 71, 64
16, 20143, Note_on_c, 4, 73, 98
16, 20191, Note_off_c, 4, 73, 64
16, 20200, Note_on_c, 4, 74, 89
16, 20250, Note_off_c, 4, 74, 64
16, 20259, Note_on_c, 4, 73, 78
16, 20307, Note_off_c, 4, 73, 64
16, 20316, Note_on_c, 4, 71, 91
16, 20362, Note_off_c, 4, 71, 64
16, 20372, Note_on_c, 4, 69, 95
16, 20434, Note_on_c, 4, 71, 93
16, 20440, Note_off_c, 4, 69, 64
16, 20491, Note_off_c, 4, 71, 64
16, 20491, Note_on_c, 4, 73, 87
16, 20540, Note_off_c, 4, 73, 64
16, 20552, Note_on_c, 4, 74, 95
16, 20602, Note_off_c, 4, 74, 64
16, 20611, Note_on_c, 4, 76, 89
16, 20674, Note_off_c, 4, 76, 64
16, 20674, Note_on_c, 4, 78, 72
16, 20721, Note_off_c, 4, 78, 64
16, 20731, Note_on_c, 4, 79, 89
16, 20786, Note_off_c, 4, 79, 64
16, 20794, Note_on_c, 4, 81, 87
16, 20843, Note_off_c, 4, 81, 64
16, 20854, Note_on_c, 4, 79, 93
16, 20912, Note_off_c, 4, 79, 64
16, 20913, Note_on_c, 4, 78, 100
16, 20954, Note_off_c, 4, 78, 64
16, 20971, Note_on_c, 4, 79, 87
16, 21018, Note_off_c, 4, 79, 64
16, 21030, Note_on_c, 4, 76, 87
16, 21085, Note_off_c, 4, 76, 64
16, 21096, Note_on_c, 4, 78, 82
16, 21210, Note_off_c, 4, 78, 64
16, 21281, Note_on_c, 4, 79, 82
16, 21327, Note_off_c, 4, 79, 64
16, 21340, Note_on_c, 4, 81, 98
16, 21438, Note_off_c, 4, 81, 64
16, 21527, Note_on_c, 4, 83, 91
16, 21565, Note_off_c, 4, 83, 64
16, 21593, Note_on_c, 4, 73, 82
16, 21703, Note_off_c, 4, 73, 64
16, 21768, Note_on_c, 4, 74, 85
16, 21811, Note_off_c, 4, 74, 64
16, 21830, Note_on_c, 4, 76, 80
16, 21878, Note_on_c, 4, 74, 70
16, 21886, Note_off_c, 4, 76, 64
16, 21900, Note_off_c, 4, 74, 64
16, 21904, Note_on_c, 4, 76, 68
16, 21925, Note_on_c, 4, 74, 63
16, 21926, Note_off_c, 4, 76, 64
16, 21947, Note_off_c, 4, 74, 64
16, 21947, Note_on_c, 4, 76, 89
16, 21965, Note_on_c, 4, 74, 66
16, 21970, Note_off_c, 4, 76, 64
16, 21979, Note_on_c, 4, 76, 78
16, 21981, Note_off_c, 4, 74, 64
16, 21999, Note_on_c, 4, 74, 58
16, 22004, Note_off_c, 4, 76, 64
16, 22013, Note_on_c, 4, 73, 85
16, 22018, Note_off_c, 4, 74, 64
16, 22044, Note_on_c, 4, 74, 66
16, 22046, Note_off_c, 4, 73, 64
16, 22067, Note_on_c, 4, 76, 98
16, 22069, Note_off_c, 4, 74, 64
16, 22170, Note_off_c, 4, 76, 64
16, 22241, Note_on_c, 4, 69, 78
16, 22282, Note_off_c, 4, 69, 64
16, 22306, Note_on_c, 4, 79, 98
16, 22393, Note_off_c, 4, 79, 64
16, 22462, Note_on_c, 4, 78, 66
16, 22490, Note_on_c, 4, 76, 72
16, 22496, Note_off_c, 4, 78, 64
16, 22518, Note_on_c, 4, 78, 74
16, 22532, Note_off_c, 4, 76, 64
16, 22547, Note_on_c, 4, 79, 74
16, 22549, Note_off_c, 4, 78, 64
16, 22606, Note_on_c, 4, 78, 66
16, 22612, Note_off_c, 4, 79, 64
16, 22629, Note_off_c, 4, 78, 64
16, 22633, Note_on_c, 4, 79, 76
16, 22655, Note_on_c, 4, 78, 72
16, 22656, Note_off_c, 4, 79, 64
16, 22673, Note_off_c, 4, 78, 64
16, 22678, Note_on_c, 4, 79, 76
16, 22697, Note_on_c, 4, 78, 62
16, 22700, Note_off_c, 4, 79, 64
16, 22714, Note_off_c, 4, 78, 64
16, 22714, Note_on_c, 4, 79, 70
16, 22733, Note_on_c, 4, 78, 70
16, 22738, Note_off_c, 4, 79, 64
16, 22753, Note_off_c, 4, 78, 64
16, 22753, Note_on_c, 4, 79, 82
16, 22773, Note_on_c, 4, 78, 91
16, 22782, Note_off_c, 4, 79, 64
16, 22886, Note_off_c, 4, 78, 64
16, 22963, Note_on_c, 4, 76, 89
16, 22993, Note_off_c, 4, 76, 64
16, 23032, Note_on_c, 4, 76, 102
16, 23529, Note_off_c, 4, 76, 64
16, 40684, Note_on_c, 4, 71, 72
16, 40711, Note_on_c, 4, 73, 91
16, 40725, Note_off_c, 4, 71, 64
16, 40739, Note_on_c, 4, 74, 85
16, 40748, Note_off_c, 4, 73, 64
16, 40755, Note_on_c, 4, 76, 76
16, 40765, Note_off_c, 4, 74, 64
16, 40777, Note_on_c, 4, 78, 64
16, 40794, Note_off_c, 4, 76, 64
16, 40805, Note_on_c, 4, 79, 85
16, 40808, Note_off_c, 4, 78, 64
16, 40889, Note_off_c, 4, 79, 64
16, 40984, Note_on_c, 4, 76, 85
16, 41031, Note_off_c, 4, 76, 64
16, 41045, Note_on_c, 4, 78, 80
16, 41114, Note_off_c, 4, 78, 64
16, 41217, Note_on_c, 4, 79, 87
16, 41248, Note_off_c, 4, 79, 64
16, 41280, Note_on_c, 4, 81, 87
16, 41620, Note_off_c, 4, 81, 64
16, 41692, Note_on_c, 4, 72, 80
16, 41719, Note_off_c, 4, 72, 64
16, 41754, Note_on_c, 4, 74, 89
16, 41796, Note_on_c, 4, 72, 57
16, 41798, Note_off_c, 4, 74, 64
16, 41814, Note_off_c, 4, 72, 64
16, 41814, Note_on_c, 4, 74, 68
16, 41837, Note_off_c, 4, 74, 64
16, 41837, Note_on_c, 4, 72, 66
16, 41859, Note_on_c, 4, 74, 80
16, 41871, Note_off_c, 4, 74, 64
16, 41889, Note_off_c, 4, 72, 64
16, 41892, Note_on_c, 4, 74, 68
16, 41909, Note_on_c, 4, 72, 85
16, 41919, Note_off_c, 4, 74, 64
16, 41936, Note_on_c, 4, 71, 78
16, 41937, Note_off_c, 4, 72, 64
16, 41966, Note_on_c, 4, 72, 68
16, 41971, Note_off_c, 4, 71, 64
16, 41995, Note_on_c, 4, 74, 89
16, 41999, Note_off_c, 4, 72, 64
16, 42069, Note_off_c, 4, 74, 64
16, 42173, Note_on_c, 4, 69, 78
16, 42202, Note_off_c, 4, 69, 64
16, 42237, Note_on_c, 4, 71, 89
16, 42513, Note_off_c, 4, 71, 64
16, 42541, Note_on_c, 4, 69, 82
16, 42576, Note_off_c, 4, 69, 64
16, 42591, Note_on_c, 4, 67, 74
16, 42623, Note_off_c, 4, 67, 64
16, 42646, Note_on_c, 4, 66, 76
16, 42682, Note_off_c, 4, 66, 64
16, 42707, Note_on_c, 4, 64, 87
16, 42751, Note_off_c, 4, 64, 64
16, 42766, Note_on_c, 4, 66, 80
16, 42801, Note_off_c, 4, 66, 64
16, 42824, Note_on_c, 4, 67, 68
16, 42865, Note_off_c, 4, 67, 64
16, 42886, Note_on_c, 4, 69, 70
16, 42927, Note_off_c, 4, 69, 64
16, 42944, Note_on_c, 4, 71, 85
16, 42990, Note_off_c, 4, 71, 64
16, 43003, Note_on_c, 4, 73, 70
16, 43049, Note_off_c, 4, 73, 64
16, 43060, Note_on_c, 4, 74, 91
16, 43109, Note_off_c, 4, 74, 64
16, 43119, Note_on_c, 4, 71, 85
16, 43163, Note_off_c, 4, 71, 64
16, 43183, Note_on_c, 4, 73, 87
16, 43234, Note_off_c, 4, 73, 64
16, 43240, Note_on_c, 4, 74, 82
16, 43282, Note_off_c, 4, 74, 64
16, 43300, Note_on_c, 4, 73, 80
16, 43341, Note_off_c, 4, 73, 64
16, 43359, Note_on_c, 4, 71, 100
16, 43399, Note_off_c, 4, 71, 64
16, 43417, Note_on_c, 4, 69, 95
16, 43473, Note_off_c, 4, 69, 64
16, 43480, Note_on_c, 4, 71, 89
16, 43524, Note_off_c, 4, 71, 64
16, 43540, Note_on_c, 4, 73, 98
16, 43581, Note_off_c, 4, 73, 64
16, 43600, Note_on_c, 4, 74, 85
16, 43645, Note_off_c, 4, 74, 64
16, 43659, Note_on_c, 4, 76, 95
16, 43706, Note_off_c, 4, 76, 64
16, 43718, Note_on_c, 4, 78, 93
16, 43757, Note_off_c, 4, 78, 64
16, 43772, Note_on_c, 4, 79, 85
16, 43816, Note_off_c, 4, 79, 64
16, 43837, Note_on_c, 4, 81, 98
16, 43877, Note_off_c, 4, 81, 64
16, 43897, Note_on_c, 4, 79, 100
16, 43948, Note_off_c, 4, 79, 64
16, 43960, Note_on_c, 4, 78, 102
16, 44000, Note_off_c, 4, 78, 64
16, 44016, Note_on_c, 4, 79, 91
16, 44057, Note_off_c, 4, 79, 64
16, 44075, Note_on_c, 4, 76, 93
16, 44117, Note_off_c, 4, 76, 64
16, 44144, Note_on_c, 4, 78, 100
16, 44239, Note_off_c, 4, 78, 64
16, 44316, Note_on_c, 4, 79, 82
16, 44357, Note_off_c, 4, 79, 64
16, 44375, Note_on_c, 4, 81, 100
16, 44466, Note_off_c, 4, 81, 64
16, 44563, Note_on_c, 4, 83, 87
16, 44600, Note_off_c, 4, 83, 64
16, 44629, Note_on_c, 4, 73, 82
16, 44730, Note_off_c, 4, 73, 64
16, 44801, Note_on_c, 4, 74, 85
16, 44842, Note_off_c, 4, 74, 64
16, 44866, Note_on_c, 4, 76, 89
16, 44914, Note_on_c, 4, 74, 62
16, 44918, Note_off_c, 4, 76, 64
16, 44933, Note_off_c, 4, 74, 64
16, 44937, Note_on_c, 4, 76, 72
16, 44959, Note_off_c, 4, 76, 64
16, 44960, Note_on_c, 4, 74, 63
16, 44979, Note_off_c, 4, 74, 64
16, 44979, Note_on_c, 4, 76, 76
16, 44995, Note_off_c, 4, 76, 64
16, 44996, Note_on_c, 4, 74, 68
16, 45016, Note_off_c, 4, 74, 64
16, 45017, Note_on_c, 4, 76, 68
16, 45031, Note_on_c, 4, 74, 78
16, 45040, Note_off_c, 4, 76, 64
16, 45054, Note_on_c, 4, 73, 72
16, 45056, Note_off_c, 4, 74, 64
16, 45080, Note_off_c, 4, 73, 64
16, 45086, Note_on_c, 4, 74, 53
16, 45114, Note_on_c, 4, 76, 100
16, 45118, Note_off_c, 4, 74, 64
16, 45211, Note_off_c, 4, 76, 64
16, 45287, Note_on_c, 4, 69, 82
16, 45325, Note_off_c, 4, 69, 64
16, 45351, Note_on_c, 4, 79, 98
16, 45431, Note_off_c, 4, 79, 64
16, 45508, Note_on_c, 4, 78, 63
16, 45533, Note_on_c, 4, 76, 76
16, 45540, Note_off_c, 4, 78, 64
16, 45563, Note_on_c, 4, 78, 70
16, 45577, Note_off_c, 4, 76, 64
16, 45595, Note_off_c, 4, 78, 64
16, 45598, Note_on_c, 4, 79, 87
16, 45653, Note_on_c, 4, 78, 74
16, 45656, Note_off_c, 4, 79, 64
16, 45676, Note_off_c, 4, 78, 64
16, 45682, Note_on_c, 4, 79, 70
16, 45702, Note_on_c, 4, 78, 63
16, 45703, Note_off_c, 4, 79, 64
16, 45717, Note_off_c, 4, 78, 64
16, 45723, Note_on_c, 4, 79, 64
16, 45741, Note_off_c, 4, 79, 64
16, 45741, Note_on_c, 4, 78, 70
16, 45760, Note_on_c, 4, 79, 72
16, 45761, Note_off_c, 4, 78, 64
16, 45779, Note_on_c, 4, 78, 68
16, 45784, Note_off_c, 4, 79, 64
16, 45798, Note_on_c, 4, 79, 72
16, 45802, Note_off_c, 4, 78, 64
16, 45818, Note_on_c, 4, 78, 93
16, 45825, Note_off_c, 4, 79, 64
16, 45930, Note_off_c, 4, 78, 64
16, 46008, Note_on_c, 4, 76, 87
16, 46044, Note_off_c, 4, 76, 64
16, 46096, Note_on_c, 4, 76, 105
16, 46150, Note_off_c, 4, 76, 64
16, 71030, Note_on_c, 4, 76, 58
16, 72232, Note_off_c, 4, 76, 64
16, 72236, Note_on_c, 4, 73, 59
16, 72457, Note_off_c, 4, 73, 64
16, 72472, Note_on_c, 4, 75, 62
16, 73888, Note_off_c, 4, 75, 64
16, 73902, Note_on_c, 4, 74, 63
16, 75330, Note_off_c, 4, 74, 64
16, 75350, Note_on_c, 4, 73, 58
16, 76751, Note_off_c, 4, 73, 64
16, 76785, Note_on_c, 4, 74, 70
16, 76940, Note_off_c, 4, 74, 64
16, 96824, Note_on_c, 4, 79, 68
16, 96881, Note_off_c, 4, 79, 64
16, 96948, Note_on_c, 4, 78, 60
16, 97056, Note_off_c, 4, 78, 64
16, 97315, Note_on_c, 4, 78, 62
16, 97372, Note_off_c, 4, 78, 64
16, 97437, Note_on_c, 4, 76, 66
16, 97543, Note_off_c, 4, 76, 64
16, 97784, Note_on_c, 4, 76, 74
16, 97837, Note_off_c, 4, 76, 64
16, 97910, Note_on_c, 4, 74, 66
16, 98042, Note_off_c, 4, 74, 64
16, 98270, Note_on_c, 4, 74, 80
16, 98329, Note_off_c, 4, 74, 64
16, 98393, Note_on_c, 4, 73, 68
16, 98456, Note_off_c, 4, 73, 64
16, 98513, Note_on_c, 4, 76, 72
16, 98563, Note_off_c, 4, 76, 64
16, 98627, Note_on_c, 4, 74, 80
16, 98681, Note_off_c, 4, 74, 64
16, 98746, Note_on_c, 4, 78, 70
16, 98802, Note_off_c, 4, 78, 64
16, 98869, Note_on_c, 4, 76, 76
16, 98925, Note_off_c, 4, 76, 64
16, 98994, Note_on_c, 4, 79, 82
16, 99058, Note_off_c, 4, 79, 64
16, 99117, Note_on_c, 4, 78, 82
16, 99165, Note_off_c, 4, 78, 64
16, 99238, Note_on_c, 4, 81, 80
16, 99293, Note_off_c, 4, 81, 64
16, 99354, Note_on_c, 4, 73, 70
16, 99414, Note_off_c, 4, 73, 64
16, 99473, Note_on_c, 4, 76, 74
16, 99527, Note_off_c, 4, 76, 64
16, 99594, Note_on_c, 4, 69, 70
16, 99661, Note_off_c, 4, 69, 64
16, 99716, Note_on_c, 4, 73, 70
16, 99773, Note_off_c, 4, 73, 64
16, 99838, Note_on_c, 4, 74, 82
16, 99899, Note_off_c, 4, 74, 64
16, 99956, Note_on_c, 4, 71, 76
16, 100010, Note_off_c, 4, 71, 64
16, 100073, Note_on_c, 4, 68, 66
16, 100134, Note_off_c, 4, 68, 64
16, 100191, Note_on_c, 4, 71, 80
16, 100244, Note_off_c, 4, 71, 64
16, 100312, Note_on_c, 4, 73, 82
16, 100454, Note_off_c, 4, 73, 64
16, 102239, Note_on_c, 4, 74, 70
16, 103420, Note_off_c, 4, 74, 64
16, 103424, Note_on_c, 4, 71, 60
16, 103649, Note_off_c, 4, 71, 64
16, 103669, Note_on_c, 4, 73, 58
16, 105114, Note_off_c, 4, 73, 64
16, 105126, Note_on_c, 4, 72, 59
16, 106171, Note_off_c, 4, 72, 64
16, 106184, Note_on_c, 4, 69, 58
16, 106294, Note_off_c, 4, 69, 64
16, 106308, Note_on_c, 4, 66, 68
16, 106409, Note_off_c, 4, 66, 64
16, 106429, Note_on_c, 4, 62, 66
16, 106524, Note_off_c, 4, 62, 64
16, 106550, Note_on_c, 4, 71, 66
16, 106690, Note_off_c, 4, 71, 64
16, 125786, Note_on_c, 4, 74, 100
16, 126036, Note_off_c, 4, 74, 64
16, 126045, Note_on_c, 4, 76, 72
16, 126083, Note_off_c, 4, 76, 64
16, 126101, Note_on_c, 4, 78, 85
16, 126140, Note_off_c, 4, 78, 64
16, 126151, Note_on_c, 4, 74, 85
16, 126189, Note_off_c, 4, 74, 64
16, 126215, Note_on_c, 4, 69, 91
16, 126512, Note_off_c, 4, 69, 64
16, 126524, Note_on_c, 4, 71, 85
16, 126561, Note_off_c, 4, 71, 64
16, 126584, Note_on_c, 4, 72, 85
16, 126623, Note_off_c, 4, 72, 64
16, 126644, Note_on_c, 4, 69, 95
16, 126685, Note_off_c, 4, 69, 64
16, 126710, Note_on_c, 4, 66, 87
16, 126988, Note_off_c, 4, 66, 64
16, 127007, Note_on_c, 4, 67, 80
16, 127049, Note_off_c, 4, 67, 64
16, 127069, Note_on_c, 4, 69, 82
16, 127103, Note_off_c, 4, 69, 64
16, 127123, Note_on_c, 4, 66, 91
16, 127158, Note_off_c, 4, 66, 64
16, 127186, Note_on_c, 4, 62, 102
16, 127490, Note_off_c, 4, 62, 64
16, 127551, Note_on_c, 4, 64, 66
16, 127581, Note_on_c, 4, 66, 80
16, 127593, Note_off_c, 4, 64, 64
16, 127614, Note_off_c, 4, 66, 64
16, 127617, Note_on_c, 4, 67, 89
16, 127638, Note_on_c, 4, 69, 87
16, 127658, Note_off_c, 4, 67, 64
16, 127658, Note_on_c, 4, 71, 82
16, 127677, Note_off_c, 4, 69, 64
16, 127681, Note_on_c, 4, 72, 87
16, 127692, Note_off_c, 4, 71, 64
16, 127772, Note_off_c, 4, 72, 64
16, 127854, Note_on_c, 4, 72, 85
16, 127894, Note_off_c, 4, 72, 64
16, 127909, Note_on_c, 4, 74, 93
16, 127993, Note_off_c, 4, 74, 64
16, 128092, Note_on_c, 4, 76, 85
16, 128131, Note_off_c, 4, 76, 64
16, 128151, Note_on_c, 4, 74, 95
16, 128234, Note_off_c, 4, 74, 64
16, 128333, Note_on_c, 4, 72, 80
16, 128372, Note_off_c, 4, 72, 64
16, 128392, Note_on_c, 4, 71, 85
16, 128482, Note_off_c, 4, 71, 64
16, 128576, Note_on_c, 4, 69, 85
16, 128610, Note_off_c, 4, 69, 64
16, 128633, Note_on_c, 4, 71, 85
16, 128811, Note_off_c, 4, 71, 64
16, 128880, Note_on_c, 4, 67, 66
16, 129044, Note_off_c, 4, 67, 64
16, 129108, Note_on_c, 4, 71, 66
16, 129493, Note_off_c, 4, 71, 64
16, 129536, Note_on_c, 4, 73, 78
16, 129576, Note_off_c, 4, 73, 64
16, 129595, Note_on_c, 4, 74, 82
16, 129851, Note_off_c, 4, 74, 64
16, 129882, Note_on_c, 4, 73, 72
16, 129928, Note_off_c, 4, 73, 64
16, 129939, Note_on_c, 4, 74, 76
16, 129983, Note_off_c, 4, 74, 64
16, 129998, Note_on_c, 4, 76, 85
16, 130033, Note_off_c, 4, 76, 64
16, 130061, Note_on_c, 4, 76, 87
16, 130122, Note_on_c, 4, 75, 80
16, 130124, Note_off_c, 4, 76, 64
16, 130148, Note_off_c, 4, 75, 64
16, 130151, Note_on_c, 4, 76, 68
16, 130178, Note_on_c, 4, 75, 58
16, 130180, Note_off_c, 4, 76, 64
16, 130196, Note_off_c, 4, 75, 64
16, 130198, Note_on_c, 4, 76, 63
16, 130221, Note_off_c, 4, 76, 64
16, 130221, Note_on_c, 4, 75, 58
16, 130236, Note_off_c, 4, 75, 64
16, 130237, Note_on_c, 4, 76, 68
16, 130259, Note_on_c, 4, 75, 66
16, 130262, Note_off_c, 4, 76, 64
16, 130278, Note_on_c, 4, 76, 78
16, 130280, Note_off_c, 4, 75, 64
16, 130301, Note_on_c, 4, 75, 87
16, 130306, Note_off_c, 4, 76, 64
16, 130430, Note_off_c, 4, 75, 64
16, 130487, Note_on_c, 4, 76, 82
16, 130523, Note_off_c, 4, 76, 64
16, 130548, Note_on_c, 4, 78, 95
16, 130804, Note_off_c, 4, 78, 64
16, 130850, Note_on_c, 4, 81, 82
16, 130887, Note_off_c, 4, 81, 64
16, 130910, Note_on_c, 4, 79, 85
16, 130945, Note_off_c, 4, 79, 64
16, 130967, Note_on_c, 4, 78, 72
16, 131013, Note_off_c, 4, 78, 64
16, 131035, Note_on_c, 4, 83, 91
16, 131133, Note_off_c, 4, 83, 64
16, 131222, Note_on_c, 4, 81, 78
16, 131258, Note_off_c, 4, 81, 64
16, 131278, Note_on_c, 4, 79, 82
16, 131366, Note_off_c, 4, 79, 64
16, 131459, Note_on_c, 4, 78, 63
16, 131499, Note_off_c, 4, 78, 64
16, 131518, Note_on_c, 4, 79, 82
16, 131609, Note_off_c, 4, 79, 64
16, 131698, Note_on_c, 4, 78, 70
16, 131739, Note_off_c, 4, 78, 64
16, 131756, Note_on_c, 4, 76, 82
16, 131843, Note_off_c, 4, 76, 64
16, 131942, Note_on_c, 4, 78, 76
16, 131975, Note_off_c, 4, 78, 64
16, 132001, Note_on_c, 4, 79, 82
16, 132067, Note_on_c, 4, 78, 72
16, 132073, Note_off_c, 4, 79, 64
16, 132097, Note_off_c, 4, 78, 64
16, 132097, Note_on_c, 4, 79, 74
16, 132122, Note_on_c, 4, 78, 63
16, 132126, Note_off_c, 4, 79, 64
16, 132145, Note_off_c, 4, 78, 64
16, 132147, Note_on_c, 4, 79, 64
16, 132163, Note_off_c, 4, 79, 64
16, 132164, Note_on_c, 4, 78, 53
16, 132180, Note_off_c, 4, 78, 64
16, 132183, Note_on_c, 4, 79, 72
16, 132201, Note_on_c, 4, 78, 59
16, 132207, Note_off_c, 4, 79, 64
16, 132219, Note_on_c, 4, 79, 72
16, 132220, Note_off_c, 4, 78, 64
16, 132239, Note_on_c, 4, 78, 87
16, 132243, Note_off_c, 4, 79, 64
16, 132349, Note_off_c, 4, 78, 64
16, 132414, Note_on_c, 4, 76, 85
16, 132443, Note_off_c, 4, 76, 64
16, 132478, Note_on_c, 4, 76, 85
16, 132729, Note_off_c, 4, 76, 64
16, 132768, Note_on_c, 4, 76, 85
16, 132805, Note_off_c, 4, 76, 64
16, 132827, Note_on_c, 4, 74, 87
16, 132859, Note_off_c, 4, 74, 64
16, 132882, Note_on_c, 4, 73, 80
16, 132918, Note_off_c, 4, 73, 64
16, 132947, Note_on_c, 4, 74, 91
16, 133035, Note_off_c, 4, 74, 64
16, 133136, Note_on_c, 4, 83, 91
16, 133175, Note_off_c, 4, 83, 64
16, 133193, Note_on_c, 4, 76, 87
16, 133275, Note_off_c, 4, 76, 64
16, 133371, Note_on_c, 4, 74, 85
16, 133413, Note_off_c, 4, 74, 64
16, 133435, Note_on_c, 4, 73, 82
16, 133540, Note_off_c, 4, 73, 64
16, 133612, Note_on_c, 4, 69, 85
16, 133662, Note_off_c, 4, 69, 64
16, 133675, Note_on_c, 4, 73, 80
16, 133750, Note_off_c, 4, 73, 64
16, 133843, Note_on_c, 4, 76, 80
16, 133888, Note_off_c, 4, 76, 64
16, 133911, Note_on_c, 4, 81, 91
16, 134283, Note_off_c, 4, 81, 64
16, 134337, Note_on_c, 4, 81, 91
16, 134367, Note_off_c, 4, 81, 64
16, 134394, Note_on_c, 4, 81, 98
16, 134717, Note_off_c, 4, 81, 64
16, 134750, Note_on_c, 4, 71, 82
16, 134776, Note_on_c, 4, 73, 78
16, 134794, Note_off_c, 4, 71, 64
16, 134801, Note_on_c, 4, 74, 80
16, 134809, Note_off_c, 4, 73, 64
16, 134820, Note_on_c, 4, 76, 85
16, 134841, Note_off_c, 4, 74, 64
16, 134842, Note_on_c, 4, 78, 85
16, 134858, Note_off_c, 4, 76, 64
16, 134869, Note_on_c, 4, 79, 89
16, 134877, Note_off_c, 4, 78, 64
16, 135234, Note_off_c, 4, 79, 64
16, 135295, Note_on_c, 4, 79, 85
16, 135327, Note_off_c, 4, 79, 64
16, 135355, Note_on_c, 4, 79, 89
16, 135703, Note_off_c, 4, 79, 64
16, 135733, Note_on_c, 4, 78, 66
16, 135750, Note_on_c, 4, 76, 82
16, 135769, Note_off_c, 4, 78, 64
16, 135776, Note_on_c, 4, 74, 72
16, 135780, Note_on_c, 4, 73, 60
16, 135791, Note_off_c, 4, 76, 64
16, 135803, Note_on_c, 4, 71, 91
16, 135819, Note_off_c, 4, 73, 64
16, 135823, Note_off_c, 4, 74, 64
16, 135835, Note_off_c, 4, 71, 64
16, 135836, Note_on_c, 4, 69, 57
16, 135977, Note_off_c, 4, 69, 64
16, 136016, Note_on_c, 4, 67, 70
16, 136044, Note_on_c, 4, 66, 78
16, 136050, Note_off_c, 4, 67, 64
16, 136072, Note_off_c, 4, 66, 64
16, 136081, Note_on_c, 4, 67, 85
16, 136175, Note_off_c, 4, 67, 64
16, 136251, Note_on_c, 4, 76, 87
16, 136283, Note_off_c, 4, 76, 64
16, 136316, Note_on_c, 4, 66, 78
16, 136574, Note_off_c, 4, 66, 64
16, 136612, Note_on_c, 4, 67, 82
16, 136647, Note_off_c, 4, 67, 64
16, 136673, Note_on_c, 4, 69, 80
16, 136714, Note_off_c, 4, 69, 64
16, 136730, Note_on_c, 4, 71, 85
16, 136763, Note_off_c, 4, 71, 64
16, 136795, Note_on_c, 4, 72, 80
16, 137158, Note_off_c, 4, 72, 64
16, 137208, Note_on_c, 4, 74, 87
16, 137242, Note_off_c, 4, 74, 64
16, 137271, Note_on_c, 4, 71, 87
16, 137546, Note_off_c, 4, 71, 64
16, 137573, Note_on_c, 4, 69, 80
16, 137616, Note_off_c, 4, 69, 64
16, 137632, Note_on_c, 4, 67, 82
16, 137665, Note_off_c, 4, 67, 64
16, 137688, Note_on_c, 4, 66, 93
16, 137727, Note_off_c, 4, 66, 64
16, 137749, Note_on_c, 4, 64, 85
16, 137795, Note_off_c, 4, 64, 64
16, 137807, Note_on_c, 4, 66, 85
16, 137849, Note_off_c, 4, 66, 64
16, 137869, Note_on_c, 4, 67, 85
16, 137914, Note_off_c, 4, 67, 64
16, 137929, Note_on_c, 4, 69, 82
16, 137973, Note_off_c, 4, 69, 64
16, 137992, Note_on_c, 4, 71, 87
16, 138044, Note_off_c, 4, 71, 64
16, 138053, Note_on_c, 4, 73, 70
16, 138102, Note_off_c, 4, 73, 64
16, 138113, Note_on_c, 4, 74, 95
16, 138155, Note_off_c, 4, 74, 64
16, 138171, Note_on_c, 4, 71, 74
16, 138223, Note_off_c, 4, 71, 64
16, 140288, Note_on_c, 4, 69, 78
16, 140336, Note_off_c, 4, 69, 64
16, 140340, Note_on_c, 4, 71, 82
16, 140389, Note_off_c, 4, 71, 64
16, 140400, Note_on_c, 4, 73, 80
16, 140451, Note_off_c, 4, 73, 64
16, 140519, Note_on_c, 4, 73, 58
16, 140568, Note_off_c, 4, 73, 64
16, 140572, Note_on_c, 4, 74, 80
16, 140611, Note_off_c, 4, 74, 64
16, 140633, Note_on_c, 4, 76, 78
16, 140696, Note_off_c, 4, 76, 64
16, 140756, Note_on_c, 4, 73, 59
16, 140805, Note_off_c, 4, 73, 64
16, 140810, Note_on_c, 4, 74, 76
16, 140857, Note_off_c, 4, 74, 64
16, 140874, Note_on_c, 4, 76, 85
16, 140927, Note_off_c, 4, 76, 64
16, 140995, Note_on_c, 4, 76, 72
16, 141043, Note_on_c, 4, 78, 66
16, 141049, Note_off_c, 4, 76, 64
16, 141083, Note_off_c, 4, 78, 64
16, 141106, Note_on_c, 4, 79, 87
16, 141164, Note_off_c, 4, 79, 64
16, 141233, Note_on_c, 4, 79, 80
16, 141281, Note_on_c, 4, 78, 60
16, 141285, Note_off_c, 4, 79, 64
16, 141325, Note_off_c, 4, 78, 64
16, 141345, Note_on_c, 4, 79, 80
16, 141403, Note_off_c, 4, 79, 64
16, 141473, Note_on_c, 4, 81, 78
16, 141522, Note_on_c, 4, 79, 70
16, 141527, Note_off_c, 4, 81, 64
16, 141565, Note_off_c, 4, 79, 64
16, 141590, Note_on_c, 4, 78, 93
16, 141636, Note_off_c, 4, 78, 64
16, 141713, Note_on_c, 4, 81, 85
16, 141753, Note_off_c, 4, 81, 64
16, 141833, Note_on_c, 4, 74, 76
16, 141880, Note_off_c, 4, 74, 64
16, 141955, Note_on_c, 4, 78, 68
16, 142115, Note_off_c, 4, 78, 64
16, 142192, Note_on_c, 4, 81, 85
16, 142239, Note_off_c, 4, 81, 64
16, 142317, Note_on_c, 4, 72, 80
16, 142373, Note_off_c, 4, 72, 64
16, 142442, Note_on_c, 4, 78, 66
16, 142597, Note_off_c, 4, 78, 64
16, 142679, Note_on_c, 4, 81, 85
16, 142724, Note_off_c, 4, 81, 64
16, 142794, Note_on_c, 4, 74, 78
16, 142847, Note_off_c, 4, 74, 64
16, 142915, Note_on_c, 4, 78, 63
16, 142974, Note_off_c, 4, 78, 64
16, 143034, Note_on_c, 4, 79, 82
16, 143082, Note_off_c, 4, 79, 64
16, 143154, Note_on_c, 4, 83, 80
16, 143202, Note_off_c, 4, 83, 64
16, 143277, Note_on_c, 4, 74, 82
16, 143324, Note_off_c, 4, 74, 64
16, 143398, Note_on_c, 4, 80, 72
16, 143566, Note_off_c, 4, 80, 64
16, 143644, Note_on_c, 4, 83, 85
16, 143691, Note_off_c, 4, 83, 64
16, 143754, Note_on_c, 4, 76, 70
16, 143807, Note_off_c, 4, 76, 64
16, 143874, Note_on_c, 4, 80, 70
16, 143916, Note_off_c, 4, 80, 64
16, 143994, Note_on_c, 4, 81, 82
16, 144049, Note_on_c, 4, 76, 76
16, 144057, Note_off_c, 4, 81, 64
16, 144095, Note_off_c, 4, 76, 64
16, 144109, Note_on_c, 4, 73, 63
16, 144157, Note_off_c, 4, 73, 64
16, 144159, Note_on_c, 4, 74, 72
16, 144215, Note_off_c, 4, 74, 64
16, 144224, Note_on_c, 4, 76, 58
16, 144276, Note_on_c, 4, 78, 57
16, 144277, Note_off_c, 4, 76, 64
16, 144337, Note_off_c, 4, 78, 64
16, 144344, Note_on_c, 4, 76, 56
16, 144398, Note_on_c, 4, 78, 59
16, 144417, Note_off_c, 4, 76, 64
16, 144450, Note_off_c, 4, 78, 64
16, 144467, Note_on_c, 4, 79, 85
16, 144522, Note_on_c, 4, 76, 66
16, 144533, Note_off_c, 4, 79, 64
16, 144575, Note_off_c, 4, 76, 64
16, 144587, Note_on_c, 4, 69, 59
16, 144646, Note_on_c, 4, 71, 57
16, 144657, Note_off_c, 4, 69, 64
16, 144695, Note_off_c, 4, 71, 64
16, 144705, Note_on_c, 4, 73, 60
16, 144761, Note_on_c, 4, 74, 68
16, 144768, Note_off_c, 4, 73, 64
16, 144808, Note_off_c, 4, 74, 64
16, 144827, Note_on_c, 4, 73, 49
16, 144874, Note_on_c, 4, 74, 70
16, 144878, Note_off_c, 4, 73, 64
16, 144922, Note_off_c, 4, 74, 64
16, 144941, Note_on_c, 4, 76, 80
16, 144989, Note_on_c, 4, 74, 64
16, 145001, Note_off_c, 4, 76, 64
16, 145056, Note_on_c, 4, 73, 43
16, 145058, Note_off_c, 4, 74, 64
16, 145115, Note_on_c, 4, 74, 64
16, 145118, Note_off_c, 4, 73, 64
16, 145165, Note_off_c, 4, 74, 64
16, 145186, Note_on_c, 4, 76, 87
16, 145233, Note_on_c, 4, 74, 68
16, 145240, Note_off_c, 4, 76, 64
16, 145296, Note_on_c, 4, 73, 52
16, 145301, Note_off_c, 4, 74, 64
16, 145353, Note_on_c, 4, 71, 53
16, 145360, Note_off_c, 4, 73, 64
16, 145422, Note_on_c, 4, 69, 70
16, 145423, Note_off_c, 4, 71, 64
16, 145482, Note_on_c, 4, 74, 78
16, 145485, Note_off_c, 4, 69, 64
16, 145537, Note_on_c, 4, 73, 64
16, 145559, Note_off_c, 4, 74, 64
16, 145596, Note_on_c, 4, 71, 66
16, 145613, Note_off_c, 4, 73, 64
16, 145654, Note_off_c, 4, 71, 64
16, 145657, Note_on_c, 4, 69, 76
16, 145715, Note_on_c, 4, 67, 52
16, 145719, Note_off_c, 4, 69, 64
16, 145782, Note_off_c, 4, 67, 64
16, 145784, Note_on_c, 4, 66, 49
16, 145830, Note_on_c, 4, 64, 63
16, 145834, Note_off_c, 4, 66, 64
16, 145874, Note_off_c, 4, 64, 64
16, 145902, Note_on_c, 4, 62, 70
16, 145974, Note_off_c, 4, 62, 64
16, 146037, Note_on_c, 4, 74, 62
16, 146134, Note_off_c, 4, 74, 64
16, 146158, Note_on_c, 4, 74, 60
16, 146251, Note_off_c, 4, 74, 64
16, 146274, Note_on_c, 4, 74, 60
16, 146375, Note_off_c, 4, 74, 64
16, 146398, Note_on_c, 4, 74, 63
16, 146486, Note_off_c, 4, 74, 64
16, 146516, Note_on_c, 4, 74, 61
16, 146609, Note_off_c, 4, 74, 64
16, 146632, Note_on_c, 4, 74, 66
16, 146719, Note_off_c, 4, 74, 64
16, 146748, Note_on_c, 4, 74, 60
16, 146839, Note_off_c, 4, 74, 64
16, 146864, Note_on_c, 4, 74, 66
16, 146942, Note_off_c, 4, 74, 64
16, 146988, Note_on_c, 4, 76, 72
16, 147083, Note_off_c, 4, 76, 64
16, 147108, Note_on_c, 4, 76, 66
16, 147207, Note_off_c, 4, 76, 64
16, 147235, Note_on_c, 4, 76, 68
16, 147320, Note_off_c, 4, 76, 64
16, 147345, Note_on_c, 4, 76, 68
16, 147440, Note_off_c, 4, 76, 64
16, 147464, Note_on_c, 4, 76, 63
16, 147562, Note_off_c, 4, 76, 64
16, 147592, Note_on_c, 4, 76, 66
16, 147680, Note_off_c, 4, 76, 64
16, 147704, Note_on_c, 4, 76, 60
16, 147796, Note_off_c, 4, 76, 64
16, 147833, Note_on_c, 4, 76, 60
16, 147917, Note_off_c, 4, 76, 64
16, 147953, Note_on_c, 4, 76, 78
16, 148038, Note_off_c, 4, 76, 64
16, 148064, Note_on_c, 4, 76, 68
16, 148150, Note_off_c, 4, 76, 64
16, 148184, Note_on_c, 4, 76, 76
16, 148263, Note_off_c, 4, 76, 64
16, 148306, Note_on_c, 4, 76, 80
16, 148374, Note_off_c, 4, 76, 64
16, 148426, Note_on_c, 4, 69, 76
16, 148475, Note_on_c, 4, 71, 78
16, 148480, Note_off_c, 4, 69, 64
16, 148515, Note_off_c, 4, 71, 64
16, 148537, Note_on_c, 4, 73, 64
16, 148607, Note_off_c, 4, 73, 64
16, 148665, Note_on_c, 4, 73, 61
16, 148719, Note_off_c, 4, 73, 64
16, 148722, Note_on_c, 4, 74, 80
16, 148767, Note_off_c, 4, 74, 64
16, 148784, Note_on_c, 4, 76, 87
16, 148849, Note_off_c, 4, 76, 64
16, 148905, Note_on_c, 4, 73, 59
16, 148952, Note_off_c, 4, 73, 64
16, 148960, Note_on_c, 4, 74, 80
16, 149013, Note_off_c, 4, 74, 64
16, 149024, Note_on_c, 4, 76, 80
16, 149075, Note_off_c, 4, 76, 64
16, 149145, Note_on_c, 4, 76, 70
16, 149192, Note_on_c, 4, 78, 66
16, 149199, Note_off_c, 4, 76, 64
16, 149239, Note_off_c, 4, 78, 64
16, 149260, Note_on_c, 4, 79, 87
16, 149315, Note_off_c, 4, 79, 64
16, 149384, Note_on_c, 4, 79, 76
16, 149430, Note_on_c, 4, 78, 63
16, 149439, Note_off_c, 4, 79, 64
16, 149480, Note_off_c, 4, 78, 64
16, 149500, Note_on_c, 4, 79, 78
16, 149579, Note_off_c, 4, 79, 64
16, 149632, Note_on_c, 4, 81, 80
16, 149685, Note_on_c, 4, 79, 66
16, 149686, Note_off_c, 4, 81, 64
16, 149734, Note_off_c, 4, 79, 64
16, 149751, Note_on_c, 4, 78, 63
16, 149825, Note_off_c, 4, 78, 64
16, 149877, Note_on_c, 4, 78, 68
16, 149913, Note_off_c, 4, 78, 64
16, 149928, Note_on_c, 4, 76, 78
16, 149970, Note_off_c, 4, 76, 64
16, 149992, Note_on_c, 4, 78, 80
16, 150081, Note_off_c, 4, 78, 64
16, 150124, Note_on_c, 4, 79, 72
16, 150161, Note_off_c, 4, 79, 64
16, 150174, Note_on_c, 4, 78, 82
16, 150215, Note_off_c, 4, 78, 64
16, 150235, Note_on_c, 4, 76, 66
16, 150318, Note_off_c, 4, 76, 64
16, 150361, Note_on_c, 4, 76, 66
16, 150402, Note_off_c, 4, 76, 64
16, 150406, Note_on_c, 4, 74, 76
16, 150448, Note_off_c, 4, 74, 64
16, 150473, Note_on_c, 4, 76, 85
16, 150567, Note_off_c, 4, 76, 64
16, 150592, Note_on_c, 4, 78, 64
16, 150634, Note_off_c, 4, 78, 64
16, 150643, Note_on_c, 4, 76, 59
16, 150681, Note_off_c, 4, 76, 64
16, 150706, Note_on_c, 4, 74, 80
16, 150785, Note_off_c, 4, 74, 64
16, 150837, Note_on_c, 4, 74, 82
16, 150886, Note_on_c, 4, 76, 78
16, 150891, Note_off_c, 4, 74, 64
16, 150929, Note_off_c, 4, 76, 64
16, 150948, Note_on_c, 4, 78, 93
16, 151016, Note_off_c, 4, 78, 64
16, 151077, Note_on_c, 4, 78, 66
16, 151126, Note_off_c, 4, 78, 64
16, 151130, Note_on_c, 4, 79, 70
16, 151172, Note_off_c, 4, 79, 64
16, 151192, Note_on_c, 4, 81, 87
16, 151259, Note_off_c, 4, 81, 64
16, 151314, Note_on_c, 4, 78, 64
16, 151363, Note_off_c, 4, 78, 64
16, 151371, Note_on_c, 4, 79, 72
16, 151418, Note_off_c, 4, 79, 64
16, 151435, Note_on_c, 4, 81, 85
16, 151497, Note_off_c, 4, 81, 64
16, 151551, Note_on_c, 4, 81, 76
16, 151605, Note_on_c, 4, 83, 89
16, 151609, Note_off_c, 4, 81, 64
16, 151650, Note_off_c, 4, 83, 64
16, 151671, Note_on_c, 4, 84, 100
16, 151736, Note_off_c, 4, 84, 64
16, 151793, Note_on_c, 4, 84, 82
16, 151839, Note_on_c, 4, 83, 80
16, 151843, Note_off_c, 4, 84, 64
16, 151892, Note_off_c, 4, 83, 64
16, 151905, Note_on_c, 4, 84, 89
16, 151974, Note_off_c, 4, 84, 64
16, 152034, Note_on_c, 4, 86, 80
16, 152090, Note_on_c, 4, 84, 66
16, 152102, Note_off_c, 4, 86, 64
16, 152129, Note_off_c, 4, 84, 64
16, 152156, Note_on_c, 4, 83, 89
16, 152206, Note_off_c, 4, 83, 64
16, 152209, Note_on_c, 4, 79, 61
16, 152255, Note_off_c, 4, 79, 64
16, 152273, Note_on_c, 4, 76, 60
16, 152328, Note_on_c, 4, 78, 64
16, 152334, Note_off_c, 4, 76, 64
16, 152372, Note_off_c, 4, 78, 64
16, 152390, Note_on_c, 4, 79, 85
16, 152444, Note_off_c, 4, 79, 64
16, 152450, Note_on_c, 4, 81, 70
16, 152484, Note_off_c, 4, 81, 64
16, 152502, Note_on_c, 4, 78, 62
16, 152550, Note_off_c, 4, 78, 64
16, 152557, Note_on_c, 4, 79, 74
16, 152601, Note_off_c, 4, 79, 64
16, 152625, Note_on_c, 4, 81, 85
16, 152665, Note_off_c, 4, 81, 64
16, 152682, Note_on_c, 4, 78, 66
16, 152722, Note_off_c, 4, 78, 64
16, 152742, Note_on_c, 4, 74, 70
16, 152793, Note_off_c, 4, 74, 64
16, 152799, Note_on_c, 4, 76, 63
16, 152843, Note_off_c, 4, 76, 64
16, 152866, Note_on_c, 4, 78, 80
16, 152922, Note_on_c, 4, 79, 74
16, 152929, Note_off_c, 4, 78, 64
16, 152959, Note_off_c, 4, 79, 64
16, 152982, Note_on_c, 4, 76, 63
16, 153032, Note_off_c, 4, 76, 64
16, 153040, Note_on_c, 4, 78, 78
16, 153086, Note_off_c, 4, 78, 64
16, 153104, Note_on_c, 4, 79, 100
16, 153154, Note_off_c, 4, 79, 64
16, 153162, Note_on_c, 4, 78, 58
16, 153213, Note_off_c, 4, 78, 64
16, 153219, Note_on_c, 4, 76, 63
16, 153264, Note_off_c, 4, 76, 64
16, 153274, Note_on_c, 4, 79, 76
16, 153317, Note_off_c, 4, 79, 64
16, 153334, Note_on_c, 4, 78, 91
16, 153388, Note_on_c, 4, 76, 68
16, 153389, Note_off_c, 4, 78, 64
16, 153434, Note_off_c, 4, 76, 64
16, 153447, Note_on_c, 4, 74, 63
16, 153503, Note_on_c, 4, 78, 64
16, 153506, Note_off_c, 4, 74, 64
16, 153540, Note_off_c, 4, 78, 64
16, 153571, Note_on_c, 4, 76, 82
16, 153632, Note_off_c, 4, 76, 64
16, 153632, Note_on_c, 4, 81, 80
16, 153679, Note_off_c, 4, 81, 64
16, 153704, Note_on_c, 4, 73, 63
16, 153748, Note_off_c, 4, 73, 64
16, 153759, Note_on_c, 4, 74, 66
16, 153815, Note_off_c, 4, 74, 64
16, 153823, Note_on_c, 4, 76, 66
16, 153873, Note_on_c, 4, 78, 50
16, 153875, Note_off_c, 4, 76, 64
16, 153913, Note_off_c, 4, 78, 64
16, 153929, Note_on_c, 4, 76, 76
16, 153992, Note_on_c, 4, 78, 62
16, 153994, Note_off_c, 4, 76, 64
16, 154041, Note_off_c, 4, 78, 64
16, 154064, Note_on_c, 4, 79, 87
16, 154119, Note_on_c, 4, 76, 70
16, 154125, Note_off_c, 4, 79, 64
16, 154166, Note_off_c, 4, 76, 64
16, 154186, Note_on_c, 4, 69, 52
16, 154240, Note_on_c, 4, 71, 57
16, 154243, Note_off_c, 4, 69, 64
16, 154290, Note_off_c, 4, 71, 64
16, 154304, Note_on_c, 4, 73, 70
16, 154358, Note_off_c, 4, 73, 64
16, 154362, Note_on_c, 4, 74, 66
16, 154402, Note_off_c, 4, 74, 64
16, 154424, Note_on_c, 4, 73, 56
16, 154476, Note_off_c, 4, 73, 64
16, 154478, Note_on_c, 4, 74, 68
16, 154530, Note_off_c, 4, 74, 64
16, 154548, Note_on_c, 4, 76, 85
16, 154605, Note_on_c, 4, 74, 72
16, 154610, Note_off_c, 4, 76, 64
16, 154654, Note_off_c, 4, 74, 64
16, 154659, Note_on_c, 4, 73, 60
16, 154712, Note_off_c, 4, 73, 64
16, 154719, Note_on_c, 4, 74, 66
16, 154766, Note_off_c, 4, 74, 64
16, 154786, Note_on_c, 4, 76, 80
16, 154845, Note_on_c, 4, 79, 80
16, 154848, Note_off_c, 4, 76, 64
16, 154905, Note_on_c, 4, 78, 82
16, 154909, Note_off_c, 4, 79, 64
16, 154961, Note_off_c, 4, 78, 64
16, 154964, Note_on_c, 4, 76, 78
16, 155024, Note_off_c, 4, 76, 64
16, 155031, Note_on_c, 4, 81, 82
16, 155086, Note_on_c, 4, 79, 68
16, 155089, Note_off_c, 4, 81, 64
16, 155142, Note_off_c, 4, 79, 64
16, 155148, Note_on_c, 4, 78, 80
16, 155192, Note_off_c, 4, 78, 64
16, 155207, Note_on_c, 4, 79, 80
16, 155258, Note_off_c, 4, 79, 64
16, 155271, Note_on_c, 4, 81, 85
16, 155316, Note_off_c, 4, 81, 64
16, 155324, Note_on_c, 4, 78, 66
16, 155384, Note_off_c, 4, 78, 64
16, 155389, Note_on_c, 4, 74, 74
16, 155441, Note_on_c, 4, 78, 64
16, 155461, Note_off_c, 4, 74, 64
16, 155485, Note_off_c, 4, 78, 64
16, 155504, Note_on_c, 4, 79, 87
16, 155561, Note_on_c, 4, 78, 64
16, 155571, Note_off_c, 4, 79, 64
16, 155615, Note_off_c, 4, 78, 64
16, 155627, Note_on_c, 4, 76, 72
16, 155682, Note_on_c, 4, 78, 64
16, 155696, Note_off_c, 4, 76, 64
16, 155723, Note_off_c, 4, 78, 64
16, 155744, Note_on_c, 4, 79, 85
16, 155794, Note_off_c, 4, 79, 64
16, 155804, Note_on_c, 4, 83, 78
16, 155845, Note_off_c, 4, 83, 64
16, 155864, Note_on_c, 4, 81, 76
16, 155913, Note_off_c, 4, 81, 64
16, 155930, Note_on_c, 4, 79, 85
16, 155960, Note_off_c, 4, 79, 64
16, 155988, Note_on_c, 4, 78, 68
16, 156039, Note_off_c, 4, 78, 64
16, 156113, Note_on_c, 4, 74, 80
16, 156168, Note_off_c, 4, 74, 64
16, 156235, Note_on_c, 4, 71, 78
16, 156292, Note_off_c, 4, 71, 64
16, 156360, Note_on_c, 4, 76, 80
16, 156407, Note_off_c, 4, 76, 64
16, 156479, Note_on_c, 4, 73, 74
16, 156535, Note_off_c, 4, 73, 64
16, 156535, Note_on_c, 4, 69, 74
16, 156594, Note_on_c, 4, 71, 72
16, 156599, Note_off_c, 4, 69, 64
16, 156653, Note_on_c, 4, 73, 58
16, 156658, Note_off_c, 4, 71, 64
16, 156694, Note_off_c, 4, 73, 64
16, 156713, Note_on_c, 4, 74, 76
16, 156770, Note_on_c, 4, 76, 78
16, 156771, Note_off_c, 4, 74, 64
16, 156824, Note_off_c, 4, 76, 64
16, 156829, Note_on_c, 4, 78, 58
16, 156887, Note_off_c, 4, 78, 64
16, 156887, Note_on_c, 4, 79, 68
16, 156932, Note_off_c, 4, 79, 64
16, 156947, Note_on_c, 4, 78, 82
16, 157008, Note_off_c, 4, 78, 64
16, 157008, Note_on_c, 4, 76, 76
16, 157061, Note_off_c, 4, 76, 64
16, 157066, Note_on_c, 4, 74, 57
16, 157119, Note_off_c, 4, 74, 64
16, 157128, Note_on_c, 4, 76, 70
16, 157160, Note_off_c, 4, 76, 64
16, 157196, Note_on_c, 4, 69, 72
16, 157250, Note_off_c, 4, 69, 64
16, 157324, Note_on_c, 4, 73, 64
16, 157376, Note_off_c, 4, 73, 64
16, 157442, Note_on_c, 4, 74, 82
16, 157507, Note_off_c, 4, 74, 64
16, 172920, Note_on_c, 4, 73, 74
16, 172968, Note_off_c, 4, 73, 64
16, 172971, Note_on_c, 4, 74, 76
16, 173022, Note_off_c, 4, 74, 64
16, 173028, Note_on_c, 4, 76, 74
16, 173084, Note_off_c, 4, 76, 64
16, 173090, Note_on_c, 4, 78, 68
16, 173144, Note_off_c, 4, 78, 64
16, 173150, Note_on_c, 4, 76, 57
16, 173199, Note_off_c, 4, 76, 64
16, 173206, Note_on_c, 4, 78, 62
16, 173252, Note_off_c, 4, 78, 64
16, 173272, Note_on_c, 4, 79, 87
16, 173326, Note_on_c, 4, 76, 66
16, 173336, Note_off_c, 4, 79, 64
16, 173373, Note_off_c, 4, 76, 64
16, 173386, Note_on_c, 4, 69, 68
16, 173446, Note_on_c, 4, 71, 63
16, 173453, Note_off_c, 4, 69, 64
16, 173503, Note_off_c, 4, 71, 64
16, 173511, Note_on_c, 4, 73, 56
16, 173560, Note_off_c, 4, 73, 64
16, 173563, Note_on_c, 4, 74, 64
16, 173612, Note_off_c, 4, 74, 64
16, 173621, Note_on_c, 4, 73, 57
16, 173672, Note_on_c, 4, 74, 72
16, 173674, Note_off_c, 4, 73, 64
16, 173721, Note_off_c, 4, 74, 64
16, 173740, Note_on_c, 4, 76, 98
16, 173798, Note_on_c, 4, 74, 70
16, 173806, Note_off_c, 4, 76, 64
16, 173854, Note_off_c, 4, 74, 64
16, 173865, Note_on_c, 4, 73, 57
16, 173919, Note_on_c, 4, 74, 68
16, 173926, Note_off_c, 4, 73, 64
16, 173971, Note_off_c, 4, 74, 64
16, 173987, Note_on_c, 4, 76, 85
16, 174041, Note_on_c, 4, 74, 70
16, 174051, Note_off_c, 4, 76, 64
16, 174101, Note_off_c, 4, 74, 64
16, 174101, Note_on_c, 4, 73, 68
16, 174156, Note_on_c, 4, 71, 72
16, 174159, Note_off_c, 4, 73, 64
16, 174201, Note_off_c, 4, 71, 64
16, 174224, Note_on_c, 4, 69, 63
16, 174283, Note_off_c, 4, 69, 64
16, 174351, Note_on_c, 4, 78, 85
16, 174391, Note_off_c, 4, 78, 64
16, 174475, Note_on_c, 4, 71, 76
16, 174514, Note_off_c, 4, 71, 64
16, 174598, Note_on_c, 4, 75, 93
16, 174768, Note_off_c, 4, 75, 64
16, 174829, Note_on_c, 4, 78, 74
16, 174877, Note_off_c, 4, 78, 64
16, 174958, Note_on_c, 4, 69, 85
16, 175004, Note_off_c, 4, 69, 64
16, 175086, Note_on_c, 4, 75, 93
16, 175256, Note_off_c, 4, 75, 64
16, 175312, Note_on_c, 4, 78, 78
16, 175362, Note_off_c, 4, 78, 64
16, 175435, Note_on_c, 4, 71, 85
16, 175483, Note_off_c, 4, 71, 64
16, 175560, Note_on_c, 4, 75, 80
16, 175609, Note_off_c, 4, 75, 64
16, 175682, Note_on_c, 4, 76, 89
16, 175763, Note_off_c, 4, 76, 64
16, 175805, Note_on_c, 4, 64, 64
16, 175855, Note_on_c, 4, 66, 64
16, 175859, Note_off_c, 4, 64, 64
16, 175903, Note_off_c, 4, 66, 64
16, 175923, Note_on_c, 4, 68, 91
16, 175975, Note_off_c, 4, 68, 64
16, 176037, Note_on_c, 4, 68, 64
16, 176082, Note_on_c, 4, 69, 72
16, 176084, Note_off_c, 4, 68, 64
16, 176134, Note_off_c, 4, 69, 64
16, 176150, Note_on_c, 4, 71, 85
16, 176216, Note_off_c, 4, 71, 64
16, 176269, Note_on_c, 4, 68, 66
16, 176316, Note_off_c, 4, 68, 64
16, 176320, Note_on_c, 4, 69, 76
16, 176368, Note_off_c, 4, 69, 64
16, 176388, Note_on_c, 4, 71, 82
16, 176452, Note_off_c, 4, 71, 64
16, 176515, Note_on_c, 4, 71, 66
16, 176568, Note_on_c, 4, 73, 78
16, 176573, Note_off_c, 4, 71, 64
16, 176616, Note_off_c, 4, 73, 64
16, 176629, Note_on_c, 4, 74, 89
16, 176685, Note_off_c, 4, 74, 64
16, 176744, Note_on_c, 4, 74, 87
16, 176789, Note_off_c, 4, 74, 64
16, 176795, Note_on_c, 4, 73, 85
16, 176841, Note_off_c, 4, 73, 64
16, 176861, Note_on_c, 4, 74, 85
16, 176934, Note_off_c, 4, 74, 64
16, 176988, Note_on_c, 4, 76, 82
16, 177040, Note_on_c, 4, 74, 82
16, 177050, Note_off_c, 4, 76, 64
16, 177080, Note_off_c, 4, 74, 64
16, 177102, Note_on_c, 4, 73, 76
16, 177173, Note_off_c, 4, 73, 64
16, 177224, Note_on_c, 4, 73, 70
16, 177265, Note_off_c, 4, 73, 64
16, 177275, Note_on_c, 4, 71, 72
16, 177317, Note_off_c, 4, 71, 64
16, 177342, Note_on_c, 4, 73, 89
16, 177445, Note_off_c, 4, 73, 64
16, 177472, Note_on_c, 4, 74, 80
16, 177505, Note_off_c, 4, 74, 64
16, 177526, Note_on_c, 4, 73, 93
16, 177569, Note_off_c, 4, 73, 64
16, 177589, Note_on_c, 4, 71, 82
16, 177656, Note_off_c, 4, 71, 64
16, 177709, Note_on_c, 4, 71, 76
16, 177759, Note_off_c, 4, 71, 64
16, 177761, Note_on_c, 4, 69, 72
16, 177802, Note_off_c, 4, 69, 64
16, 177829, Note_on_c, 4, 71, 89
16, 177926, Note_off_c, 4, 71, 64
16, 177954, Note_on_c, 4, 73, 68
16, 177997, Note_off_c, 4, 73, 64
16, 178006, Note_on_c, 4, 71, 82
16, 178053, Note_off_c, 4, 71, 64
16, 178071, Note_on_c, 4, 69, 87
16, 178137, Note_off_c, 4, 69, 64
16, 178196, Note_on_c, 4, 69, 85
16, 178245, Note_off_c, 4, 69, 64
16, 178245, Note_on_c, 4, 71, 87
16, 178291, Note_off_c, 4, 71, 64
16, 178308, Note_on_c, 4, 73, 100
16, 178365, Note_off_c, 4, 73, 64
16, 178433, Note_on_c, 4, 73, 64
16, 178480, Note_on_c, 4, 74, 82
16, 178482, Note_off_c, 4, 73, 64
16, 178524, Note_off_c, 4, 74, 64
16, 178544, Note_on_c, 4, 76, 93
16, 178613, Note_off_c, 4, 76, 64
16, 178673, Note_on_c, 4, 73, 66
16, 178727, Note_off_c, 4, 73, 64
16, 178736, Note_on_c, 4, 74, 78
16, 178781, Note_off_c, 4, 74, 64
16, 178792, Note_on_c, 4, 76, 93
16, 178846, Note_off_c, 4, 76, 64
16, 178916, Note_on_c, 4, 76, 80
16, 178966, Note_on_c, 4, 78, 85
16, 178974, Note_off_c, 4, 76, 64
16, 179008, Note_off_c, 4, 78, 64
16, 179025, Note_on_c, 4, 79, 102
16, 179090, Note_off_c, 4, 79, 64
16, 179147, Note_on_c, 4, 79, 91
16, 179193, Note_off_c, 4, 79, 64
16, 179203, Note_on_c, 4, 78, 95
16, 179249, Note_off_c, 4, 78, 64
16, 179269, Note_on_c, 4, 79, 91
16, 179335, Note_off_c, 4, 79, 64
16, 179402, Note_on_c, 4, 81, 89
16, 179457, Note_on_c, 4, 79, 80
16, 179472, Note_off_c, 4, 81, 64
16, 179496, Note_off_c, 4, 79, 64
16, 179522, Note_on_c, 4, 78, 100
16, 179572, Note_on_c, 4, 74, 70
16, 179579, Note_off_c, 4, 78, 64
16, 179619, Note_off_c, 4, 74, 64
16, 179640, Note_on_c, 4, 71, 60
16, 179693, Note_off_c, 4, 71, 64
16, 179698, Note_on_c, 4, 73, 57
16, 179742, Note_off_c, 4, 73, 64
16, 179756, Note_on_c, 4, 74, 78
16, 179814, Note_on_c, 4, 76, 70
16, 179815, Note_off_c, 4, 74, 64
16, 179856, Note_off_c, 4, 76, 64
16, 179873, Note_on_c, 4, 73, 53
16, 179916, Note_off_c, 4, 73, 64
16, 179928, Note_on_c, 4, 74, 64
16, 179972, Note_off_c, 4, 74, 64
16, 180000, Note_on_c, 4, 76, 102
16, 180057, Note_on_c, 4, 73, 62
16, 180058, Note_off_c, 4, 76, 64
16, 180101, Note_off_c, 4, 73, 64
16, 180115, Note_on_c, 4, 70, 82
16, 180159, Note_off_c, 4, 70, 64
16, 180171, Note_on_c, 4, 71, 70
16, 180214, Note_off_c, 4, 71, 64
16, 180233, Note_on_c, 4, 73, 82
16, 180288, Note_on_c, 4, 74, 72
16, 180297, Note_off_c, 4, 73, 64
16, 180326, Note_off_c, 4, 74, 64
16, 180345, Note_on_c, 4, 71, 80
16, 180395, Note_off_c, 4, 71, 64
16, 180403, Note_on_c, 4, 73, 64
16, 180442, Note_off_c, 4, 73, 64
16, 180464, Note_on_c, 4, 74, 93
16, 180524, Note_on_c, 4, 76, 82
16, 180536, Note_off_c, 4, 74, 64
16, 180567, Note_off_c, 4, 76, 64
16, 180586, Note_on_c, 4, 73, 63
16, 180640, Note_on_c, 4, 74, 80
16, 180644, Note_off_c, 4, 73, 64
16, 180684, Note_off_c, 4, 74, 64
16, 180710, Note_on_c, 4, 76, 105
16, 180767, Note_on_c, 4, 74, 82
16, 180781, Note_off_c, 4, 76, 64
16, 180827, Note_off_c, 4, 74, 64
16, 180827, Note_on_c, 4, 73, 62
16, 180874, Note_off_c, 4, 73, 64
16, 180880, Note_on_c, 4, 71, 82
16, 180928, Note_off_c, 4, 71, 64
16, 180948, Note_on_c, 4, 78, 64
16, 181060, Note_off_c, 4, 78, 64
16, 181077, Note_on_c, 4, 78, 64
16, 181178, Note_off_c, 4, 78, 64
16, 181200, Note_on_c, 4, 78, 78
16, 181294, Note_off_c, 4, 78, 64
16, 181314, Note_on_c, 4, 78, 66
16, 181403, Note_off_c, 4, 78, 64
16, 181433, Note_on_c, 4, 78, 82
16, 181532, Note_off_c, 4, 78, 64
16, 181557, Note_on_c, 4, 78, 70
16, 181649, Note_off_c, 4, 78, 64
16, 181673, Note_on_c, 4, 78, 78
16, 181771, Note_off_c, 4, 78, 64
16, 181795, Note_on_c, 4, 78, 82
16, 181889, Note_off_c, 4, 78, 64
16, 181916, Note_on_c, 4, 78, 80
16, 182015, Note_off_c, 4, 78, 64
16, 182036, Note_on_c, 4, 78, 70
16, 182129, Note_off_c, 4, 78, 64
16, 182160, Note_on_c, 4, 78, 66
16, 182239, Note_off_c, 4, 78, 64
16, 182279, Note_on_c, 4, 78, 85
16, 182351, Note_off_c, 4, 78, 64
16, 182393, Note_on_c, 4, 78, 85
16, 182448, Note_on_c, 4, 76, 70
16, 182460, Note_off_c, 4, 78, 64
16, 182494, Note_off_c, 4, 76, 64
16, 182505, Note_on_c, 4, 78, 68
16, 182562, Note_on_c, 4, 79, 80
16, 182569, Note_off_c, 4, 78, 64
16, 182610, Note_off_c, 4, 79, 64
16, 182624, Note_on_c, 4, 78, 76
16, 182666, Note_off_c, 4, 78, 64
16, 182683, Note_on_c, 4, 83, 85
16, 182731, Note_off_c, 4, 83, 64
16, 182740, Note_on_c, 4, 82, 91
16, 182785, Note_off_c, 4, 82, 64
16, 182800, Note_on_c, 4, 83, 82
16, 182846, Note_off_c, 4, 83, 64
16, 182866, Note_on_c, 4, 76, 80
16, 182921, Note_off_c, 4, 76, 64
16, 182925, Note_on_c, 4, 74, 68
16, 182974, Note_off_c, 4, 74, 64
16, 182988, Note_on_c, 4, 76, 61
16, 183041, Note_on_c, 4, 78, 62
16, 183044, Note_off_c, 4, 76, 64
16, 183082, Note_off_c, 4, 78, 64
16, 183107, Note_on_c, 4, 76, 82
16, 183150, Note_off_c, 4, 76, 64
16, 183163, Note_on_c, 4, 79, 85
16, 183205, Note_off_c, 4, 79, 64
16, 183221, Note_on_c, 4, 78, 87
16, 183264, Note_off_c, 4, 78, 64
16, 183280, Note_on_c, 4, 76, 85
16, 183320, Note_off_c, 4, 76, 64
16, 183341, Note_on_c, 4, 74, 87
16, 183392, Note_off_c, 4, 74, 64
16, 183460, Note_on_c, 4, 78, 89
16, 183504, Note_off_c, 4, 78, 64
16, 183587, Note_on_c, 4, 79, 87
16, 183629, Note_off_c, 4, 79, 64
16, 183704, Note_on_c, 4, 71, 80
16, 183758, Note_off_c, 4, 71, 64
16, 183820, Note_on_c, 4, 70, 70
16, 183879, Note_on_c, 4, 66, 68
16, 183887, Note_off_c, 4, 70, 64
16, 183935, Note_on_c, 4, 68, 63
16, 183946, Note_off_c, 4, 66, 64
16, 183993, Note_on_c, 4, 70, 72
16, 184003, Note_off_c, 4, 68, 64
16, 184038, Note_off_c, 4, 70, 64
16, 184061, Note_on_c, 4, 71, 72
16, 184120, Note_off_c, 4, 71, 64
16, 184122, Note_on_c, 4, 73, 60
16, 184174, Note_off_c, 4, 73, 64
16, 184178, Note_on_c, 4, 74, 68
16, 184232, Note_off_c, 4, 74, 64
16, 184235, Note_on_c, 4, 76, 85
16, 184280, Note_off_c, 4, 76, 64
16, 184303, Note_on_c, 4, 78, 100
16, 184365, Note_on_c, 4, 79, 82
16, 184373, Note_off_c, 4, 78, 64
16, 184419, Note_off_c, 4, 79, 64
16, 184422, Note_on_c, 4, 78, 58
16, 184479, Note_on_c, 4, 76, 80
16, 184481, Note_off_c, 4, 78, 64
16, 184543, Note_on_c, 4, 74, 80
16, 184545, Note_off_c, 4, 76, 64
16, 184582, Note_off_c, 4, 74, 64
16, 184595, Note_on_c, 4, 73, 80
16, 184655, Note_off_c, 4, 73, 64
16, 184656, Note_on_c, 4, 71, 64
16, 184715, Note_on_c, 4, 70, 63
16, 184725, Note_off_c, 4, 71, 64
16, 184768, Note_off_c, 4, 70, 64
16, 184783, Note_on_c, 4, 71, 87
16, 184833, Note_off_c, 4, 71, 64
16, 184918, Note_on_c, 4, 73, 80
16, 184964, Note_off_c, 4, 73, 64
16, 185043, Note_on_c, 4, 66, 78
16, 185086, Note_off_c, 4, 66, 64
16, 185164, Note_on_c, 4, 70, 80
16, 185210, Note_off_c, 4, 70, 64
16, 185288, Note_on_c, 4, 71, 80
16, 185393, Note_off_c, 4, 71, 64
16, 202669, Note_on_c, 4, 69, 82
16, 202720, Note_off_c, 4, 69, 64
16, 202720, Note_on_c, 4, 71, 82
16, 202781, Note_off_c, 4, 71, 64
16, 202784, Note_on_c, 4, 73, 102
16, 202841, Note_off_c, 4, 73, 64
16, 202912, Note_on_c, 4, 73, 60
16, 202961, Note_on_c, 4, 74, 85
16, 202963, Note_off_c, 4, 73, 64
16, 203010, Note_off_c, 4, 74, 64
16, 203027, Note_on_c, 4, 76, 89
16, 203097, Note_off_c, 4, 76, 64
16, 203156, Note_on_c, 4, 73, 68
16, 203212, Note_on_c, 4, 74, 87
16, 203213, Note_off_c, 4, 73, 64
16, 203264, Note_off_c, 4, 74, 64
16, 203273, Note_on_c, 4, 76, 82
16, 203330, Note_off_c, 4, 76, 64
16, 203387, Note_on_c, 4, 76, 74
16, 203432, Note_off_c, 4, 76, 64
16, 203436, Note_on_c, 4, 78, 82
16, 203480, Note_off_c, 4, 78, 64
16, 203500, Note_on_c, 4, 79, 95
16, 203563, Note_off_c, 4, 79, 64
16, 203619, Note_on_c, 4, 79, 80
16, 203660, Note_off_c, 4, 79, 64
16, 203673, Note_on_c, 4, 78, 102
16, 203720, Note_off_c, 4, 78, 64
16, 203737, Note_on_c, 4, 79, 89
16, 203814, Note_off_c, 4, 79, 64
16, 203877, Note_on_c, 4, 81, 85
16, 203929, Note_on_c, 4, 79, 89
16, 203938, Note_off_c, 4, 81, 64
16, 203974, Note_off_c, 4, 79, 64
16, 203985, Note_on_c, 4, 78, 100
16, 204048, Note_off_c, 4, 78, 64
16, 204118, Note_on_c, 4, 81, 87
16, 204165, Note_off_c, 4, 81, 64
16, 204235, Note_on_c, 4, 74, 85
16, 204283, Note_off_c, 4, 74, 64
16, 204358, Note_on_c, 4, 78, 93
16, 204526, Note_off_c, 4, 78, 64
16, 204589, Note_on_c, 4, 81, 87
16, 204638, Note_off_c, 4, 81, 64
16, 204706, Note_on_c, 4, 72, 82
16, 204750, Note_off_c, 4, 72, 64
16, 204833, Note_on_c, 4, 78, 93
16, 204996, Note_off_c, 4, 78, 64
16, 205074, Note_on_c, 4, 81, 87
16, 205112, Note_off_c, 4, 81, 64
16, 205192, Note_on_c, 4, 74, 85
16, 205238, Note_off_c, 4, 74, 64
16, 205306, Note_on_c, 4, 78, 66
16, 205364, Note_off_c, 4, 78, 64
16, 205424, Note_on_c, 4, 79, 85
16, 205474, Note_off_c, 4, 79, 64
16, 205547, Note_on_c, 4, 83, 87
16, 205593, Note_off_c, 4, 83, 64
16, 205668, Note_on_c, 4, 74, 85
16, 205712, Note_off_c, 4, 74, 64
16, 205794, Note_on_c, 4, 80, 95
16, 205952, Note_off_c, 4, 80, 64
16, 206028, Note_on_c, 4, 83, 89
16, 206078, Note_off_c, 4, 83, 64
16, 206152, Note_on_c, 4, 76, 82
16, 206205, Note_off_c, 4, 76, 64
16, 206268, Note_on_c, 4, 80, 87
16, 206307, Note_off_c, 4, 80, 64
16, 206386, Note_on_c, 4, 81, 82
16, 206438, Note_on_c, 4, 76, 72
16, 206445, Note_off_c, 4, 81, 64
16, 206482, Note_off_c, 4, 76, 64
16, 206499, Note_on_c, 4, 73, 85
16, 206552, Note_off_c, 4, 73, 64
16, 206552, Note_on_c, 4, 74, 70
16, 206607, Note_off_c, 4, 74, 64
16, 206623, Note_on_c, 4, 76, 76
16, 206678, Note_off_c, 4, 76, 64
16, 206678, Note_on_c, 4, 78, 68
16, 206732, Note_off_c, 4, 78, 64
16, 206741, Note_on_c, 4, 76, 63
16, 206797, Note_on_c, 4, 78, 74
16, 206816, Note_off_c, 4, 76, 64
16, 206849, Note_off_c, 4, 78, 64
16, 206868, Note_on_c, 4, 79, 87
16, 206925, Note_on_c, 4, 76, 72
16, 206930, Note_off_c, 4, 79, 64
16, 206969, Note_off_c, 4, 76, 64
16, 206985, Note_on_c, 4, 69, 72
16, 207041, Note_on_c, 4, 71, 66
16, 207049, Note_off_c, 4, 69, 64
16, 207088, Note_off_c, 4, 71, 64
16, 207102, Note_on_c, 4, 73, 80
16, 207152, Note_off_c, 4, 73, 64
16, 207153, Note_on_c, 4, 74, 70
16, 207197, Note_off_c, 4, 74, 64
16, 207220, Note_on_c, 4, 73, 85
16, 207273, Note_off_c, 4, 73, 64
16, 207273, Note_on_c, 4, 74, 72
16, 207323, Note_off_c, 4, 74, 64
16, 207345, Note_on_c, 4, 76, 91
16, 207398, Note_on_c, 4, 74, 70
16, 207405, Note_off_c, 4, 76, 64
16, 207448, Note_off_c, 4, 74, 64
16, 207461, Note_on_c, 4, 73, 56
16, 207516, Note_off_c, 4, 73, 64
16, 207519, Note_on_c, 4, 74, 72
16, 207563, Note_off_c, 4, 74, 64
16, 207586, Note_on_c, 4, 76, 93
16, 207640, Note_on_c, 4, 74, 74
16, 207645, Note_off_c, 4, 76, 64
16, 207695, Note_off_c, 4, 74, 64
16, 207696, Note_on_c, 4, 73, 62
16, 207753, Note_on_c, 4, 71, 61
16, 207755, Note_off_c, 4, 73, 64
16, 207812, Note_off_c, 4, 71, 64
16, 207816, Note_on_c, 4, 69, 72
16, 207871, Note_off_c, 4, 69, 64
16, 207874, Note_on_c, 4, 74, 85
16, 207926, Note_on_c, 4, 73, 85
16, 207944, Note_off_c, 4, 74, 64
16, 207987, Note_on_c, 4, 71, 80
16, 207996, Note_off_c, 4, 73, 64
16, 208046, Note_off_c, 4, 71, 64
16, 208047, Note_on_c, 4, 69, 72
16, 208104, Note_on_c, 4, 67, 63
16, 208110, Note_off_c, 4, 69, 64
16, 208164, Note_off_c, 4, 67, 64
16, 208167, Note_on_c, 4, 66, 64
16, 208221, Note_off_c, 4, 66, 64
16, 208224, Note_on_c, 4, 64, 80
16, 208269, Note_off_c, 4, 64, 64
16, 208290, Note_on_c, 4, 62, 68
16, 208363, Note_off_c, 4, 62, 64
16, 208424, Note_on_c, 4, 74, 62
16, 208516, Note_off_c, 4, 74, 64
16, 208541, Note_on_c, 4, 74, 78
16, 208641, Note_off_c, 4, 74, 64
16, 208667, Note_on_c, 4, 74, 78
16, 208767, Note_off_c, 4, 74, 64
16, 208789, Note_on_c, 4, 74, 76
16, 208880, Note_off_c, 4, 74, 64
16, 208904, Note_on_c, 4, 74, 82
16, 209003, Note_off_c, 4, 74, 64
16, 209030, Note_on_c, 4, 74, 78
16, 209127, Note_off_c, 4, 74, 64
16, 209149, Note_on_c, 4, 74, 78
16, 209249, Note_off_c, 4, 74, 64
16, 209272, Note_on_c, 4, 74, 82
16, 209358, Note_off_c, 4, 74, 64
16, 209390, Note_on_c, 4, 76, 85
16, 209488, Note_off_c, 4, 76, 64
16, 209511, Note_on_c, 4, 76, 85
16, 209616, Note_off_c, 4, 76, 64
16, 209642, Note_on_c, 4, 76, 85
16, 209735, Note_off_c, 4, 76, 64
16, 209758, Note_on_c, 4, 76, 85
16, 209858, Note_off_c, 4, 76, 64
16, 209879, Note_on_c, 4, 76, 78
16, 209979, Note_off_c, 4, 76, 64
16, 209997, Note_on_c, 4, 76, 82
16, 210092, Note_off_c, 4, 76, 64
16, 210113, Note_on_c, 4, 76, 82
16, 210200, Note_off_c, 4, 76, 64
16, 210233, Note_on_c, 4, 76, 82
16, 210321, Note_off_c, 4, 76, 64
16, 210353, Note_on_c, 4, 76, 89
16, 210439, Note_off_c, 4, 76, 64
16, 210461, Note_on_c, 4, 76, 82
16, 210554, Note_off_c, 4, 76, 64
16, 210582, Note_on_c, 4, 76, 89
16, 210666, Note_off_c, 4, 76, 64
16, 210706, Note_on_c, 4, 76, 95
16, 210790, Note_off_c, 4, 76, 64
16, 210827, Note_on_c, 4, 69, 78
16, 210875, Note_on_c, 4, 71, 80
16, 210880, Note_off_c, 4, 69, 64
16, 210920, Note_off_c, 4, 71, 64
16, 210940, Note_on_c, 4, 73, 95
16, 211008, Note_off_c, 4, 73, 64
16, 211066, Note_on_c, 4, 73, 58
16, 211116, Note_off_c, 4, 73, 64
16, 211118, Note_on_c, 4, 74, 80
16, 211161, Note_off_c, 4, 74, 64
16, 211181, Note_on_c, 4, 76, 89
16, 211246, Note_off_c, 4, 76, 64
16, 211298, Note_on_c, 4, 73, 60
16, 211350, Note_off_c, 4, 73, 64
16, 211354, Note_on_c, 4, 74, 70
16, 211400, Note_off_c, 4, 74, 64
16, 211417, Note_on_c, 4, 76, 80
16, 211464, Note_off_c, 4, 76, 64
16, 211539, Note_on_c, 4, 76, 66
16, 211590, Note_on_c, 4, 78, 60
16, 211595, Note_off_c, 4, 76, 64
16, 211631, Note_off_c, 4, 78, 64
16, 211650, Note_on_c, 4, 79, 89
16, 211711, Note_off_c, 4, 79, 64
16, 211771, Note_on_c, 4, 79, 85
16, 211812, Note_off_c, 4, 79, 64
16, 211824, Note_on_c, 4, 78, 82
16, 211863, Note_off_c, 4, 78, 64
16, 211889, Note_on_c, 4, 79, 82
16, 211956, Note_off_c, 4, 79, 64
16, 212035, Note_on_c, 4, 81, 89
16, 212087, Note_off_c, 4, 81, 64
16, 212089, Note_on_c, 4, 79, 82
16, 212124, Note_off_c, 4, 79, 64
16, 212142, Note_on_c, 4, 78, 85
16, 212233, Note_off_c, 4, 78, 64
16, 212275, Note_on_c, 4, 78, 78
16, 212300, Note_off_c, 4, 78, 64
16, 212323, Note_on_c, 4, 76, 80
16, 212360, Note_off_c, 4, 76, 64
16, 212387, Note_on_c, 4, 78, 98
16, 212486, Note_off_c, 4, 78, 64
16, 212503, Note_on_c, 4, 79, 70
16, 212534, Note_off_c, 4, 79, 64
16, 212552, Note_on_c, 4, 78, 68
16, 212595, Note_off_c, 4, 78, 64
16, 212617, Note_on_c, 4, 76, 74
16, 212711, Note_off_c, 4, 76, 64
16, 212744, Note_on_c, 4, 76, 70
16, 212791, Note_off_c, 4, 76, 64
16, 212803, Note_on_c, 4, 74, 80
16, 212845, Note_off_c, 4, 74, 64
16, 212870, Note_on_c, 4, 76, 89
16, 212975, Note_off_c, 4, 76, 64
16, 212997, Note_on_c, 4, 78, 68
16, 213037, Note_off_c, 4, 78, 64
16, 213048, Note_on_c, 4, 76, 60
16, 213095, Note_off_c, 4, 76, 64
16, 213109, Note_on_c, 4, 74, 82
16, 213194, Note_off_c, 4, 74, 64
16, 213242, Note_on_c, 4, 74, 82
16, 213288, Note_on_c, 4, 76, 87
16, 213292, Note_off_c, 4, 74, 64
16, 213334, Note_off_c, 4, 76, 64
16, 213348, Note_on_c, 4, 78, 100
16, 213418, Note_off_c, 4, 78, 64
16, 213482, Note_on_c, 4, 78, 68
16, 213529, Note_on_c, 4, 79, 78
16, 213533, Note_off_c, 4, 78, 64
16, 213572, Note_off_c, 4, 79, 64
16, 213595, Note_on_c, 4, 81, 95
16, 213659, Note_off_c, 4, 81, 64
16, 213715, Note_on_c, 4, 78, 82
16, 213755, Note_off_c, 4, 78, 64
16, 213763, Note_on_c, 4, 79, 78
16, 213809, Note_off_c, 4, 79, 64
16, 213832, Note_on_c, 4, 81, 89
16, 213914, Note_off_c, 4, 81, 64
16, 213952, Note_on_c, 4, 81, 80
16, 213998, Note_off_c, 4, 81, 64
16, 214003, Note_on_c, 4, 83, 85
16, 214044, Note_off_c, 4, 83, 64
16, 214065, Note_on_c, 4, 84, 93
16, 214136, Note_off_c, 4, 84, 64
16, 214191, Note_on_c, 4, 84, 89
16, 214241, Note_off_c, 4, 84, 64
16, 214242, Note_on_c, 4, 83, 87
16, 214293, Note_off_c, 4, 83, 64
16, 214306, Note_on_c, 4, 84, 87
16, 214365, Note_off_c, 4, 84, 64
16, 214430, Note_on_c, 4, 86, 85
16, 214486, Note_on_c, 4, 84, 80
16, 214497, Note_off_c, 4, 86, 64
16, 214522, Note_off_c, 4, 84, 64
16, 214549, Note_on_c, 4, 83, 87
16, 214604, Note_off_c, 4, 83, 64
16, 214609, Note_on_c, 4, 79, 70
16, 214650, Note_off_c, 4, 79, 64
16, 214673, Note_on_c, 4, 76, 64
16, 214726, Note_on_c, 4, 78, 63
16, 214732, Note_off_c, 4, 76, 64
16, 214772, Note_off_c, 4, 78, 64
16, 214786, Note_on_c, 4, 79, 87
16, 214840, Note_off_c, 4, 79, 64
16, 214845, Note_on_c, 4, 81, 66
16, 214888, Note_off_c, 4, 81, 64
16, 214901, Note_on_c, 4, 78, 56
16, 214946, Note_off_c, 4, 78, 64
16, 214960, Note_on_c, 4, 79, 80
16, 215000, Note_off_c, 4, 79, 64
16, 215027, Note_on_c, 4, 81, 89
16, 215072, Note_off_c, 4, 81, 64
16, 215080, Note_on_c, 4, 78, 66
16, 215122, Note_off_c, 4, 78, 64
16, 215139, Note_on_c, 4, 74, 74
16, 215185, Note_off_c, 4, 74, 64
16, 215195, Note_on_c, 4, 76, 74
16, 215238, Note_off_c, 4, 76, 64
16, 215262, Note_on_c, 4, 78, 95
16, 215317, Note_off_c, 4, 78, 64
16, 215318, Note_on_c, 4, 79, 70
16, 215357, Note_off_c, 4, 79, 64
16, 215384, Note_on_c, 4, 76, 63
16, 215419, Note_off_c, 4, 76, 64
16, 215445, Note_on_c, 4, 78, 70
16, 215482, Note_off_c, 4, 78, 64
16, 215509, Note_on_c, 4, 79, 89
16, 215560, Note_off_c, 4, 79, 64
16, 215565, Note_on_c, 4, 78, 66
16, 215608, Note_off_c, 4, 78, 64
16, 215631, Note_on_c, 4, 76, 68
16, 215666, Note_off_c, 4, 76, 64
16, 215688, Note_on_c, 4, 79, 72
16, 215720, Note_off_c, 4, 79, 64
16, 215753, Note_on_c, 4, 78, 100
16, 215808, Note_off_c, 4, 78, 64
16, 215808, Note_on_c, 4, 76, 76
16, 215850, Note_off_c, 4, 76, 64
16, 215866, Note_on_c, 4, 74, 70
16, 215908, Note_off_c, 4, 74, 64
16, 215925, Note_on_c, 4, 78, 82
16, 215965, Note_off_c, 4, 78, 64
16, 215988, Note_on_c, 4, 76, 89
16, 216037, Note_off_c, 4, 76, 64
16, 216043, Note_on_c, 4, 81, 76
16, 216087, Note_off_c, 4, 81, 64
16, 216104, Note_on_c, 4, 73, 72
16, 216150, Note_off_c, 4, 73, 64
16, 216153, Note_on_c, 4, 74, 72
16, 216192, Note_off_c, 4, 74, 64
16, 216216, Note_on_c, 4, 76, 87
16, 216266, Note_off_c, 4, 76, 64
16, 216273, Note_on_c, 4, 78, 76
16, 216326, Note_off_c, 4, 78, 64
16, 216341, Note_on_c, 4, 76, 53
16, 216401, Note_on_c, 4, 78, 64
16, 216413, Note_off_c, 4, 76, 64
16, 216445, Note_off_c, 4, 78, 64
16, 216466, Note_on_c, 4, 79, 82
16, 216519, Note_on_c, 4, 76, 68
16, 216532, Note_off_c, 4, 79, 64
16, 216558, Note_off_c, 4, 76, 64
16, 216585, Note_on_c, 4, 69, 60
16, 216638, Note_off_c, 4, 69, 64
16, 216642, Note_on_c, 4, 71, 66
16, 216691, Note_off_c, 4, 71, 64
16, 216704, Note_on_c, 4, 73, 66
16, 216761, Note_on_c, 4, 74, 62
16, 216762, Note_off_c, 4, 73, 64
16, 216805, Note_off_c, 4, 74, 64
16, 216824, Note_on_c, 4, 73, 80
16, 216872, Note_off_c, 4, 73, 64
16, 216879, Note_on_c, 4, 74, 78
16, 216921, Note_off_c, 4, 74, 64
16, 216948, Note_on_c, 4, 76, 95
16, 217000, Note_on_c, 4, 74, 76
16, 217009, Note_off_c, 4, 76, 64
16, 217053, Note_off_c, 4, 74, 64
16, 217060, Note_on_c, 4, 73, 78
16, 217101, Note_off_c, 4, 73, 64
16, 217116, Note_on_c, 4, 74, 68
16, 217161, Note_off_c, 4, 74, 64
16, 217181, Note_on_c, 4, 76, 78
16, 217239, Note_off_c, 4, 76, 64
16, 217243, Note_on_c, 4, 79, 82
16, 217296, Note_off_c, 4, 79, 64
16, 217304, Note_on_c, 4, 78, 82
16, 217351, Note_off_c, 4, 78, 64
16, 217362, Note_on_c, 4, 76, 68
16, 217406, Note_off_c, 4, 76, 64
16, 217427, Note_on_c, 4, 81, 89
16, 217479, Note_on_c, 4, 79, 72
16, 217493, Note_off_c, 4, 81, 64
16, 217534, Note_off_c, 4, 79, 64
16, 217546, Note_on_c, 4, 78, 91
16, 217594, Note_off_c, 4, 78, 64
16, 217601, Note_on_c, 4, 79, 72
16, 217644, Note_off_c, 4, 79, 64
16, 217663, Note_on_c, 4, 81, 87
16, 217708, Note_off_c, 4, 81, 64
16, 217713, Note_on_c, 4, 78, 66
16, 217765, Note_off_c, 4, 78, 64
16, 217778, Note_on_c, 4, 74, 78
16, 217831, Note_off_c, 4, 74, 64
16, 217833, Note_on_c, 4, 78, 87
16, 217879, Note_off_c, 4, 78, 64
16, 217899, Note_on_c, 4, 79, 85
16, 217954, Note_off_c, 4, 79, 64
16, 217957, Note_on_c, 4, 78, 91
16, 218018, Note_on_c, 4, 76, 58
16, 218024, Note_off_c, 4, 78, 64
16, 218067, Note_off_c, 4, 76, 64
16, 218075, Note_on_c, 4, 78, 66
16, 218110, Note_off_c, 4, 78, 64
16, 218144, Note_on_c, 4, 79, 82
16, 218199, Note_off_c, 4, 79, 64
16, 218199, Note_on_c, 4, 83, 82
16, 218251, Note_off_c, 4, 83, 64
16, 218258, Note_on_c, 4, 81, 70
16, 218303, Note_off_c, 4, 81, 64
16, 218323, Note_on_c, 4, 79, 89
16, 218358, Note_off_c, 4, 79, 64
16, 218386, Note_on_c, 4, 78, 87
16, 218447, Note_off_c, 4, 78, 64
16, 218508, Note_on_c, 4, 74, 85
16, 218560, Note_off_c, 4, 74, 64
16, 218625, Note_on_c, 4, 71, 82
16, 218674, Note_off_c, 4, 71, 64
16, 218752, Note_on_c, 4, 76, 87
16, 218798, Note_off_c, 4, 76, 64
16, 218868, Note_on_c, 4, 73, 98
16, 218919, Note_off_c, 4, 73, 64
16, 218928, Note_on_c, 4, 69, 82
16, 218979, Note_off_c, 4, 69, 64
16, 218983, Note_on_c, 4, 71, 80
16, 219047, Note_on_c, 4, 73, 80
16, 219051, Note_off_c, 4, 71, 64
16, 219088, Note_off_c, 4, 73, 64
16, 219105, Note_on_c, 4, 74, 74
16, 219158, Note_off_c, 4, 74, 64
16, 219167, Note_on_c, 4, 76, 80
16, 219207, Note_off_c, 4, 76, 64
16, 219225, Note_on_c, 4, 78, 93
16, 219270, Note_off_c, 4, 78, 64
16, 219282, Note_on_c, 4, 79, 87
16, 219319, Note_off_c, 4, 79, 64
16, 219347, Note_on_c, 4, 78, 102
16, 219392, Note_off_c, 4, 78, 64
16, 219406, Note_on_c, 4, 76, 93
16, 219453, Note_off_c, 4, 76, 64
16, 219464, Note_on_c, 4, 74, 78
16, 219510, Note_off_c, 4, 74, 64
16, 219526, Note_on_c, 4, 76, 82
16, 219564, Note_off_c, 4, 76, 64
16, 219595, Note_on_c, 4, 69, 91
16, 219648, Note_off_c, 4, 69, 64
16, 219712, Note_on_c, 4, 73, 82
16, 219776, Note_off_c, 4, 73, 64
16, 232321, Note_on_c, 4, 73, 100
16, 232368, Note_off_c, 4, 73, 64
16, 232371, Note_on_c, 4, 74, 78
16, 232415, Note_off_c, 4, 74, 64
16, 232435, Note_on_c, 4, 73, 68
16, 232478, Note_off_c, 4, 73, 64
16, 232495, Note_on_c, 4, 71, 85
16, 232535, Note_off_c, 4, 71, 64
16, 232561, Note_on_c, 4, 69, 93
16, 232614, Note_off_c, 4, 69, 64
16, 232617, Note_on_c, 4, 71, 85
16, 232667, Note_off_c, 4, 71, 64
16, 232683, Note_on_c, 4, 73, 82
16, 232724, Note_off_c, 4, 73, 64
16, 232738, Note_on_c, 4, 74, 85
16, 232786, Note_off_c, 4, 74, 64
16, 232800, Note_on_c, 4, 76, 89
16, 232849, Note_off_c, 4, 76, 64
16, 232860, Note_on_c, 4, 78, 82
16, 232900, Note_off_c, 4, 78, 64
16, 232915, Note_on_c, 4, 79, 80
16, 232957, Note_off_c, 4, 79, 64
16, 232975, Note_on_c, 4, 81, 91
16, 233009, Note_off_c, 4, 81, 64
16, 233033, Note_on_c, 4, 79, 100
16, 233075, Note_off_c, 4, 79, 64
16, 233092, Note_on_c, 4, 78, 107
16, 233124, Note_off_c, 4, 78, 64
16, 233150, Note_on_c, 4, 79, 82
16, 233189, Note_off_c, 4, 79, 64
16, 233208, Note_on_c, 4, 76, 87
16, 233239, Note_off_c, 4, 76, 64
16, 233271, Note_on_c, 4, 78, 105
16, 233391, Note_off_c, 4, 78, 64
16, 233430, Note_on_c, 4, 76, 68
16, 233456, Note_off_c, 4, 76, 64
16, 233456, Note_on_c, 4, 74, 80
16, 233483, Note_off_c, 4, 74, 64
16, 233487, Note_on_c, 4, 73, 66
16, 233514, Note_on_c, 4, 74, 102
16, 233519, Note_off_c, 4, 73, 64
16, 233595, Note_off_c, 4, 74, 64
16, 233680, Note_on_c, 4, 71, 95
16, 233711, Note_off_c, 4, 71, 64
16, 233749, Note_on_c, 4, 74, 100
16, 233818, Note_on_c, 4, 73, 63
16, 233820, Note_off_c, 4, 74, 64
16, 233841, Note_off_c, 4, 73, 64
16, 233845, Note_on_c, 4, 74, 74
16, 233870, Note_off_c, 4, 74, 64
16, 233871, Note_on_c, 4, 73, 51
16, 233886, Note_off_c, 4, 73, 64
16, 233890, Note_on_c, 4, 74, 70
16, 233909, Note_off_c, 4, 74, 64
16, 233909, Note_on_c, 4, 73, 60
16, 233929, Note_off_c, 4, 73, 64
16, 233929, Note_on_c, 4, 74, 78
16, 233944, Note_on_c, 4, 73, 63
16, 233948, Note_off_c, 4, 74, 64
16, 233965, Note_on_c, 4, 74, 70
16, 233966, Note_off_c, 4, 73, 64
16, 233982, Note_on_c, 4, 73, 87
16, 233985, Note_off_c, 4, 74, 64
16, 234096, Note_off_c, 4, 73, 64
16, 234159, Note_on_c, 4, 74, 100
16, 234187, Note_off_c, 4, 74, 64
16, 234229, Note_on_c, 4, 74, 105
16, 234782, Note_off_c, 4, 74, 64
16, 234782, End_track
17, 0, Start_track
17, 0, Title_t, "Oboe"
17, 0, Program_c, 5, 68
17, 0, Control_c, 5, 7, 100
17, 17650, Note_on_c, 5, 71, 70
17, 17681, Note_on_c, 5, 73, 63
17, 17700, Note_off_c, 5, 71, 64
17, 17708, Note_on_c, 5, 74, 82
17, 17715, Note_off_c, 5, 73, 64
17, 17725, Note_on_c, 5, 76, 78
17, 17743, Note_off_c, 5, 74, 64
17, 17744, Note_on_c, 5, 78, 82
17, 17758, Note_off_c, 5, 76, 64
17, 17765, Note_on_c, 5, 79, 89
17, 17773, Note_off_c, 5, 78, 64
17, 17863, Note_off_c, 5, 79, 64
17, 17940, Note_on_c, 5, 76, 82
17, 17982, Note_off_c, 5, 76, 64
17, 18001, Note_on_c, 5, 78, 100
17, 18081, Note_off_c, 5, 78, 64
17, 18178, Note_on_c, 5, 79, 87
17, 18210, Note_off_c, 5, 79, 64
17, 18241, Note_on_c, 5, 81, 87
17, 18598, Note_off_c, 5, 81, 64
17, 18660, Note_on_c, 5, 72, 82
17, 18690, Note_off_c, 5, 72, 64
17, 18718, Note_on_c, 5, 74, 85
17, 18759, Note_on_c, 5, 72, 63
17, 18766, Note_off_c, 5, 74, 64
17, 18780, Note_off_c, 5, 72, 64
17, 18784, Note_on_c, 5, 74, 68
17, 18804, Note_on_c, 5, 72, 72
17, 18807, Note_off_c, 5, 74, 64
17, 18823, Note_off_c, 5, 72, 64
17, 18827, Note_on_c, 5, 74, 63
17, 18842, Note_on_c, 5, 72, 70
17, 18850, Note_off_c, 5, 74, 64
17, 18859, Note_on_c, 5, 74, 52
17, 18861, Note_off_c, 5, 72, 64
17, 18873, Note_off_c, 5, 74, 64
17, 18873, Note_on_c, 5, 72, 53
17, 18891, Note_on_c, 5, 71, 68
17, 18894, Note_off_c, 5, 72, 64
17, 18919, Note_on_c, 5, 72, 66
17, 18931, Note_off_c, 5, 71, 64
17, 18949, Note_off_c, 5, 72, 64
17, 18953, Note_on_c, 5, 74, 93
17, 19042, Note_off_c, 5, 74, 64
17, 19132, Note_on_c, 5, 69, 80
17, 19167, Note_off_c, 5, 69, 64
17, 19193, Note_on_c, 5, 71, 89
17, 19467, Note_off_c, 5, 71, 64
17, 19491, Note_on_c, 5, 69, 82
17, 19529, Note_off_c, 5, 69, 64
17, 19547, Note_on_c, 5, 67, 74
17, 19584, Note_off_c, 5, 67, 64
17, 19601, Note_on_c, 5, 66, 76
17, 19649, Note_off_c, 5, 66, 64
17, 19668, Note_on_c, 5, 64, 85
17, 19716, Note_off_c, 5, 64, 64
17, 19731, Note_on_c, 5, 66, 85
17, 19773, Note_off_c, 5, 66, 64
17, 19791, Note_on_c, 5, 67, 80
17, 19844, Note_off_c, 5, 67, 64
17, 19853, Note_on_c, 5, 69, 82
17, 19894, Note_off_c, 5, 69, 64
17, 19909, Note_on_c, 5, 71, 85
17, 19957, Note_off_c, 5, 71, 64
17, 19967, Note_on_c, 5, 73, 78
17, 20011, Note_off_c, 5, 73, 64
17, 20027, Note_on_c, 5, 74, 87
17, 20080, Note_off_c, 5, 74, 64
17, 20084, Note_on_c, 5, 71, 68
17, 20129, Note_off_c, 5, 71, 64
17, 20148, Note_on_c, 5, 73, 100
17, 20194, Note_off_c, 5, 73, 64
17, 20204, Note_on_c, 5, 74, 87
17, 20246, Note_off_c, 5, 74, 64
17, 20263, Note_on_c, 5, 73, 91
17, 20314, Note_off_c, 5, 73, 64
17, 20322, Note_on_c, 5, 71, 78
17, 20364, Note_off_c, 5, 71, 64
17, 20384, Note_on_c, 5, 69, 89
17, 20433, Note_off_c, 5, 69, 64
17, 20442, Note_on_c, 5, 71, 85
17, 20486, Note_off_c, 5, 71, 64
17, 20505, Note_on_c, 5, 73, 89
17, 20550, Note_off_c, 5, 73, 64
17, 20564, Note_on_c, 5, 74, 91
17, 20606, Note_off_c, 5, 74, 64
17, 20623, Note_on_c, 5, 76, 82
17, 20670, Note_off_c, 5, 76, 64
17, 20681, Note_on_c, 5, 78, 85
17, 20722, Note_off_c, 5, 78, 64
17, 20742, Note_on_c, 5, 79, 89
17, 20785, Note_off_c, 5, 79, 64
17, 20804, Note_on_c, 5, 81, 89
17, 20844, Note_off_c, 5, 81, 64
17, 20866, Note_on_c, 5, 79, 85
17, 20916, Note_off_c, 5, 79, 64
17, 20928, Note_on_c, 5, 78, 93
17, 20964, Note_off_c, 5, 78, 64
17, 20986, Note_on_c, 5, 79, 82
17, 21024, Note_off_c, 5, 79, 64
17, 21039, Note_on_c, 5, 76, 82
17, 21078, Note_off_c, 5, 76, 64
17, 21108, Note_on_c, 5, 78, 98
17, 21217, Note_off_c, 5, 78, 64
17, 21292, Note_on_c, 5, 79, 87
17, 21331, Note_off_c, 5, 79, 64
17, 21351, Note_on_c, 5, 81, 85
17, 21436, Note_off_c, 5, 81, 64
17, 21523, Note_on_c, 5, 83, 82
17, 21564, Note_off_c, 5, 83, 64
17, 21591, Note_on_c, 5, 73, 64
17, 21698, Note_off_c, 5, 73, 64
17, 21769, Note_on_c, 5, 74, 82
17, 21806, Note_off_c, 5, 74, 64
17, 21830, Note_on_c, 5, 76, 78
17, 21874, Note_on_c, 5, 74, 64
17, 21880, Note_off_c, 5, 76, 64
17, 21895, Note_off_c, 5, 74, 64
17, 21900, Note_on_c, 5, 76, 70
17, 21921, Note_off_c, 5, 76, 64
17, 21922, Note_on_c, 5, 74, 70
17, 21941, Note_on_c, 5, 76, 70
17, 21942, Note_off_c, 5, 74, 64
17, 21955, Note_off_c, 5, 76, 64
17, 21957, Note_on_c, 5, 74, 70
17, 21971, Note_on_c, 5, 76, 72
17, 21973, Note_off_c, 5, 74, 64
17, 21988, Note_on_c, 5, 74, 72
17, 21996, Note_off_c, 5, 76, 64
17, 22012, Note_on_c, 5, 73, 72
17, 22013, Note_off_c, 5, 74, 64
17, 22037, Note_on_c, 5, 74, 68
17, 22041, Note_off_c, 5, 73, 64
17, 22069, Note_off_c, 5, 74, 64
17, 22070, Note_on_c, 5, 76, 89
17, 22167, Note_off_c, 5, 76, 64
17, 22247, Note_on_c, 5, 69, 68
17, 22294, Note_off_c, 5, 69, 64
17, 22319, Note_on_c, 5, 79, 89
17, 22399, Note_off_c, 5, 79, 64
17, 22461, Note_on_c, 5, 78, 66
17, 22487, Note_on_c, 5, 76, 76
17, 22494, Note_off_c, 5, 78, 64
17, 22516, Note_on_c, 5, 78, 64
17, 22533, Note_off_c, 5, 76, 64
17, 22547, Note_on_c, 5, 79, 85
17, 22551, Note_off_c, 5, 78, 64
17, 22608, Note_on_c, 5, 78, 72
17, 22613, Note_off_c, 5, 79, 64
17, 22633, Note_off_c, 5, 78, 64
17, 22637, Note_on_c, 5, 79, 78
17, 22658, Note_on_c, 5, 78, 64
17, 22660, Note_off_c, 5, 79, 64
17, 22676, Note_off_c, 5, 78, 64
17, 22680, Note_on_c, 5, 79, 72
17, 22700, Note_on_c, 5, 78, 64
17, 22701, Note_off_c, 5, 79, 64
17, 22717, Note_off_c, 5, 78, 64
17, 22717, Note_on_c, 5, 79, 72
17, 22736, Note_on_c, 5, 78, 80
17, 22739, Note_off_c, 5, 79, 64
17, 22758, Note_off_c, 5, 78, 64
17, 22759, Note_on_c, 5, 79, 80
17, 22777, Note_on_c, 5, 78, 89
17, 22785, Note_off_c, 5, 79, 64
17, 22898, Note_off_c, 5, 78, 64
17, 22962, Note_on_c, 5, 76, 87
17, 22992, Note_off_c, 5, 76, 64
17, 23031, Note_on_c, 5, 76, 102
17, 23537, Note_off_c, 5, 76, 64
17, 40680, Note_on_c, 5, 71, 68
17, 40717, Note_on_c, 5, 73, 76
17, 40731, Note_off_c, 5, 71, 64
17, 40736, Note_on_c, 5, 74, 82
17, 40748, Note_off_c, 5, 73, 64
17, 40754, Note_on_c, 5, 76, 85
17, 40775, Note_off_c, 5, 74, 64
17, 40777, Note_on_c, 5, 78, 85
17, 40791, Note_off_c, 5, 76, 64
17, 40800, Note_on_c, 5, 79, 89
17, 40809, Note_off_c, 5, 78, 64
17, 40893, Note_off_c, 5, 79, 64
17, 40987, Note_on_c, 5, 76, 87
17, 41033, Note_off_c, 5, 76, 64
17, 41049, Note_on_c, 5, 78, 95
17, 41122, Note_off_c, 5, 78, 64
17, 41227, Note_on_c, 5, 79, 82
17, 41266, Note_off_c, 5, 79, 64
17, 41285, Note_on_c, 5, 81, 93
17, 41616, Note_off_c, 5, 81, 64
17, 41696, Note_on_c, 5, 72, 82
17, 41722, Note_off_c, 5, 72, 64
17, 41755, Note_on_c, 5, 74, 85
17, 41793, Note_on_c, 5, 72, 78
17, 41797, Note_off_c, 5, 74, 64
17, 41813, Note_off_c, 5, 72, 64
17, 41817, Note_on_c, 5, 74, 68
17, 41834, Note_on_c, 5, 72, 78
17, 41837, Note_off_c, 5, 74, 64
17, 41854, Note_off_c, 5, 72, 64
17, 41856, Note_on_c, 5, 74, 70
17, 41872, Note_off_c, 5, 74, 64
17, 41872, Note_on_c, 5, 72, 80
17, 41889, Note_off_c, 5, 72, 64
17, 41891, Note_on_c, 5, 74, 70
17, 41911, Note_on_c, 5, 72, 70
17, 41922, Note_off_c, 5, 74, 64
17, 41934, Note_off_c, 5, 72, 64
17, 41934, Note_on_c, 5, 71, 76
17, 41963, Note_on_c, 5, 72, 58
17, 41968, Note_off_c, 5, 71, 64
17, 41991, Note_off_c, 5, 72, 64
17, 41991, Note_on_c, 5, 74, 102
17, 42078, Note_off_c, 5, 74, 64
17, 42172, Note_on_c, 5, 69, 85
17, 42205, Note_off_c, 5, 69, 64
17, 42237, Note_on_c, 5, 71, 100
17, 42499, Note_off_c, 5, 71, 64
17, 42531, Note_on_c, 5, 69, 89
17, 42572, Note_off_c, 5, 69, 64
17, 42589, Note_on_c, 5, 67, 80
17, 42625, Note_off_c, 5, 67, 64
17, 42647, Note_on_c, 5, 66, 102
17, 42694, Note_off_c, 5, 66, 64
17, 42709, Note_on_c, 5, 64, 98
17, 42761, Note_off_c, 5, 64, 64
17, 42768, Note_on_c, 5, 66, 85
17, 42812, Note_off_c, 5, 66, 64
17, 42831, Note_on_c, 5, 67, 72
17, 42879, Note_off_c, 5, 67, 64
17, 42891, Note_on_c, 5, 69, 82
17, 42939, Note_off_c, 5, 69, 64
17, 42953, Note_on_c, 5, 71, 87
17, 42999, Note_off_c, 5, 71, 64
17, 43010, Note_on_c, 5, 73, 82
17, 43055, Note_off_c, 5, 73, 64
17, 43070, Note_on_c, 5, 74, 91
17, 43117, Note_off_c, 5, 74, 64
17, 43125, Note_on_c, 5, 71, 82
17, 43166, Note_off_c, 5, 71, 64
17, 43186, Note_on_c, 5, 73, 100
17, 43236, Note_off_c, 5, 73, 64
17, 43245, Note_on_c, 5, 74, 89
17, 43287, Note_off_c, 5, 74, 64
17, 43303, Note_on_c, 5, 73, 85
17, 43345, Note_off_c, 5, 73, 64
17, 43359, Note_on_c, 5, 71, 95
17, 43399, Note_off_c, 5, 71, 64
17, 43420, Note_on_c, 5, 69, 95
17, 43468, Note_off_c, 5, 69, 64
17, 43478, Note_on_c, 5, 71, 85
17, 43528, Note_off_c, 5, 71, 64
17, 43543, Note_on_c, 5, 73, 89
17, 43584, Note_off_c, 5, 73, 64
17, 43599, Note_on_c, 5, 74, 89
17, 43649, Note_off_c, 5, 74, 64
17, 43660, Note_on_c, 5, 76, 89
17, 43706, Note_off_c, 5, 76, 64
17, 43717, Note_on_c, 5, 78, 98
17, 43759, Note_off_c, 5, 78, 64
17, 43776, Note_on_c, 5, 79, 91
17, 43821, Note_off_c, 5, 79, 64
17, 43836, Note_on_c, 5, 81, 95
17, 43878, Note_off_c, 5, 81, 64
17, 43897, Note_on_c, 5, 79, 95
17, 43946, Note_off_c, 5, 79, 64
17, 43956, Note_on_c, 5, 78, 105
17, 43993, Note_off_c, 5, 78, 64
17, 44014, Note_on_c, 5, 79, 91
17, 44054, Note_off_c, 5, 79, 64
17, 44077, Note_on_c, 5, 76, 93
17, 44120, Note_off_c, 5, 76, 64
17, 44140, Note_on_c, 5, 78, 98
17, 44247, Note_off_c, 5, 78, 64
17, 44319, Note_on_c, 5, 79, 87
17, 44360, Note_off_c, 5, 79, 64
17, 44378, Note_on_c, 5, 81, 93
17, 44473, Note_off_c, 5, 81, 64
17, 44556, Note_on_c, 5, 83, 87
17, 44592, Note_off_c, 5, 83, 64
17, 44623, Note_on_c, 5, 73, 82
17, 44732, Note_off_c, 5, 73, 64
17, 44800, Note_on_c, 5, 74, 85
17, 44837, Note_off_c, 5, 74, 64
17, 44860, Note_on_c, 5, 76, 85
17, 44916, Note_on_c, 5, 74, 76
17, 44919, Note_off_c, 5, 76, 64
17, 44936, Note_off_c, 5, 74, 64
17, 44940, Note_on_c, 5, 76, 64
17, 44963, Note_off_c, 5, 76, 64
17, 44964, Note_on_c, 5, 74, 66
17, 44978, Note_off_c, 5, 74, 64
17, 44983, Note_on_c, 5, 76, 68
17, 44998, Note_off_c, 5, 76, 64
17, 44998, Note_on_c, 5, 74, 68
17, 45015, Note_off_c, 5, 74, 64
17, 45020, Note_on_c, 5, 76, 59
17, 45032, Note_on_c, 5, 74, 53
17, 45036, Note_off_c, 5, 76, 64
17, 45050, Note_off_c, 5, 74, 64
17, 45050, Note_on_c, 5, 73, 78
17, 45074, Note_on_c, 5, 74, 80
17, 45084, Note_off_c, 5, 73, 64
17, 45106, Note_off_c, 5, 74, 64
17, 45115, Note_on_c, 5, 76, 100
17, 45210, Note_off_c, 5, 76, 64
17, 45283, Note_on_c, 5, 69, 82
17, 45332, Note_off_c, 5, 69, 64
17, 45356, Note_on_c, 5, 79, 98
17, 45434, Note_off_c, 5, 79, 64
17, 45503, Note_on_c, 5, 78, 76
17, 45532, Note_on_c, 5, 76, 78
17, 45538, Note_off_c, 5, 78, 64
17, 45563, Note_on_c, 5, 78, 80
17, 45575, Note_off_c, 5, 76, 64
17, 45594, Note_off_c, 5, 78, 64
17, 45599, Note_on_c, 5, 79, 89
17, 45646, Note_on_c, 5, 78, 80
17, 45648, Note_off_c, 5, 79, 64
17, 45667, Note_off_c, 5, 78, 64
17, 45672, Note_on_c, 5, 79, 68
17, 45694, Note_off_c, 5, 79, 64
17, 45694, Note_on_c, 5, 78, 68
17, 45709, Note_off_c, 5, 78, 64
17, 45713, Note_on_c, 5, 79, 66
17, 45728, Note_off_c, 5, 79, 64
17, 45728, Note_on_c, 5, 78, 63
17, 45747, Note_off_c, 5, 78, 64
17, 45748, Note_on_c, 5, 79, 74
17, 45766, Note_on_c, 5, 78, 66
17, 45770, Note_off_c, 5, 79, 64
17, 45785, Note_on_c, 5, 79, 68
17, 45789, Note_off_c, 5, 78, 64
17, 45805, Note_on_c, 5, 78, 63
17, 45812, Note_off_c, 5, 79, 64
17, 45919, Note_off_c, 5, 78, 64
17, 46002, Note_on_c, 5, 76, 82
17, 46040, Note_off_c, 5, 76, 64
17, 46087, Note_on_c, 5, 76, 100
17, 46233, Note_off_c, 5, 76, 64
17, 72476, Note_on_c, 5, 69, 59
17, 73664, Note_off_c, 5, 69, 64
17, 73680, Note_on_c, 5, 66, 59
17, 73895, Note_off_c, 5, 66, 64
17, 73912, Note_on_c, 5, 68, 62
17, 75350, Note_off_c, 5, 68, 64
17, 75355, Note_on_c, 5, 67, 66
17, 76750, Note_off_c, 5, 67, 64
17, 76772, Note_on_c, 5, 66, 61
17, 76938, Note_off_c, 5, 66, 64
17, 96822, Note_on_c, 5, 76, 72
17, 96873, Note_off_c, 5, 76, 64
17, 96953, Note_on_c, 5, 74, 66
17, 97000, Note_off_c, 5, 74, 64
17, 97072, Note_on_c, 5, 69, 63
17, 97126, Note_off_c, 5, 69, 64
17, 97200, Note_on_c, 5, 71, 66
17, 97276, Note_off_c, 5, 71, 64
17, 97557, Note_on_c, 5, 71, 68
17, 97602, Note_off_c, 5, 71, 64
17, 97675, Note_on_c, 5, 69, 64
17, 97753, Note_off_c, 5, 69, 64
17, 98027, Note_on_c, 5, 69, 70
17, 98079, Note_off_c, 5, 69, 64
17, 98145, Note_on_c, 5, 67, 70
17, 98204, Note_off_c, 5, 67, 64
17, 98268, Note_on_c, 5, 71, 70
17, 98329, Note_off_c, 5, 71, 64
17, 98388, Note_on_c, 5, 69, 76
17, 98449, Note_off_c, 5, 69, 64
17, 98512, Note_on_c, 5, 73, 66
17, 98568, Note_off_c, 5, 73, 64
17, 98633, Note_on_c, 5, 69, 80
17, 98692, Note_off_c, 5, 69, 64
17, 98753, Note_on_c, 5, 74, 74
17, 98811, Note_off_c, 5, 74, 64
17, 98870, Note_on_c, 5, 73, 62
17, 98929, Note_off_c, 5, 73, 64
17, 98987, Note_on_c, 5, 76, 78
17, 99044, Note_off_c, 5, 76, 64
17, 99111, Note_on_c, 5, 74, 72
17, 99167, Note_off_c, 5, 74, 64
17, 99228, Note_on_c, 5, 66, 63
17, 99278, Note_off_c, 5, 66, 64
17, 99348, Note_on_c, 5, 69, 70
17, 99413, Note_off_c, 5, 69, 64
17, 99464, Note_on_c, 5, 73, 61
17, 99536, Note_off_c, 5, 73, 64
17, 99591, Note_on_c, 5, 76, 70
17, 99649, Note_off_c, 5, 76, 64
17, 99709, Note_on_c, 5, 81, 78
17, 99773, Note_off_c, 5, 81, 64
17, 99827, Note_on_c, 5, 78, 70
17, 99891, Note_off_c, 5, 78, 64
17, 99947, Note_on_c, 5, 74, 80
17, 100001, Note_off_c, 5, 74, 64
17, 100064, Note_on_c, 5, 71, 74
17, 100120, Note_off_c, 5, 71, 64
17, 100183, Note_on_c, 5, 80, 78
17, 100232, Note_off_c, 5, 80, 64
17, 100304, Note_on_c, 5, 81, 80
17, 100448, Note_off_c, 5, 81, 64
17, 100784, Note_on_c, 5, 69, 48
17, 101984, Note_off_c, 5, 69, 64
17, 101994, Note_on_c, 5, 66, 54
17, 102206, Note_off_c, 5, 66, 64
17, 102228, Note_on_c, 5, 68, 57
17, 103648, Note_off_c, 5, 68, 64
17, 103681, Note_on_c, 5, 67, 59
17, 104859, Note_off_c, 5, 67, 64
17, 104882, Note_on_c, 5, 64, 64
17, 105103, Note_off_c, 5, 64, 64
17, 105114, Note_on_c, 5, 66, 56
17, 106512, Note_off_c, 5, 66, 64
17, 106547, Note_on_c, 5, 62, 60
17, 106706, Note_off_c, 5, 62, 64
17, 125768, Note_on_c, 5, 69, 93
17, 126025, Note_off_c, 5, 69, 64
17, 126054, Note_on_c, 5, 76, 80
17, 126092, Note_off_c, 5, 76, 64
17, 126106, Note_on_c, 5, 78, 93
17, 126140, Note_off_c, 5, 78, 64
17, 126158, Note_on_c, 5, 74, 87
17, 126200, Note_off_c, 5, 74, 64
17, 126221, Note_on_c, 5, 69, 89
17, 126489, Note_off_c, 5, 69, 64
17, 126514, Note_on_c, 5, 71, 91
17, 126546, Note_off_c, 5, 71, 64
17, 126575, Note_on_c, 5, 72, 78
17, 126609, Note_off_c, 5, 72, 64
17, 126633, Note_on_c, 5, 69, 87
17, 126672, Note_off_c, 5, 69, 64
17, 126710, Note_on_c, 5, 66, 91
17, 126980, Note_off_c, 5, 66, 64
17, 126999, Note_on_c, 5, 67, 72
17, 127042, Note_off_c, 5, 67, 64
17, 127072, Note_on_c, 5, 69, 80
17, 127116, Note_off_c, 5, 69, 64
17, 127132, Note_on_c, 5, 66, 87
17, 127167, Note_off_c, 5, 66, 64
17, 127193, Note_on_c, 5, 62, 89
17, 127490, Note_off_c, 5, 62, 64
17, 127552, Note_on_c, 5, 64, 78
17, 127585, Note_on_c, 5, 66, 87
17, 127595, Note_off_c, 5, 64, 64
17, 127612, Note_on_c, 5, 67, 74
17, 127613, Note_off_c, 5, 66, 64
17, 127633, Note_on_c, 5, 69, 82
17, 127654, Note_off_c, 5, 67, 64
17, 127654, Note_on_c, 5, 71, 82
17, 127672, Note_off_c, 5, 69, 64
17, 127676, Note_on_c, 5, 72, 87
17, 127688, Note_off_c, 5, 71, 64
17, 127769, Note_off_c, 5, 72, 64
17, 127848, Note_on_c, 5, 72, 82
17, 127891, Note_off_c, 5, 72, 64
17, 127904, Note_on_c, 5, 74, 93
17, 127985, Note_off_c, 5, 74, 64
17, 128093, Note_on_c, 5, 76, 82
17, 128133, Note_off_c, 5, 76, 64
17, 128154, Note_on_c, 5, 74, 89
17, 128236, Note_off_c, 5, 74, 64
17, 128338, Note_on_c, 5, 72, 74
17, 128379, Note_off_c, 5, 72, 64
17, 128397, Note_on_c, 5, 71, 82
17, 128480, Note_off_c, 5, 71, 64
17, 128579, Note_on_c, 5, 69, 85
17, 128618, Note_off_c, 5, 69, 64
17, 128636, Note_on_c, 5, 71, 80
17, 128814, Note_off_c, 5, 71, 64
17, 128876, Note_on_c, 5, 67, 76
17, 129025, Note_off_c, 5, 67, 64
17, 129109, Note_on_c, 5, 71, 76
17, 129460, Note_off_c, 5, 71, 64
17, 129524, Note_on_c, 5, 73, 64
17, 129565, Note_off_c, 5, 73, 64
17, 129587, Note_on_c, 5, 74, 78
17, 129854, Note_off_c, 5, 74, 64
17, 129882, Note_on_c, 5, 73, 70
17, 129926, Note_off_c, 5, 73, 64
17, 129939, Note_on_c, 5, 74, 78
17, 129981, Note_off_c, 5, 74, 64
17, 129996, Note_on_c, 5, 76, 82
17, 130028, Note_off_c, 5, 76, 64
17, 130064, Note_on_c, 5, 76, 82
17, 130115, Note_on_c, 5, 75, 80
17, 130117, Note_off_c, 5, 76, 64
17, 130141, Note_off_c, 5, 75, 64
17, 130144, Note_on_c, 5, 76, 63
17, 130168, Note_off_c, 5, 76, 64
17, 130169, Note_on_c, 5, 75, 64
17, 130188, Note_off_c, 5, 75, 64
17, 130188, Note_on_c, 5, 76, 70
17, 130211, Note_off_c, 5, 76, 64
17, 130211, Note_on_c, 5, 75, 63
17, 130229, Note_off_c, 5, 75, 64
17, 130229, Note_on_c, 5, 76, 70
17, 130250, Note_off_c, 5, 76, 64
17, 130250, Note_on_c, 5, 75, 76
17, 130270, Note_off_c, 5, 75, 64
17, 130270, Note_on_c, 5, 76, 82
17, 130293, Note_on_c, 5, 75, 80
17, 130301, Note_off_c, 5, 76, 64
17, 130430, Note_off_c, 5, 75, 64
17, 130488, Note_on_c, 5, 76, 80
17, 130520, Note_off_c, 5, 76, 64
17, 130548, Note_on_c, 5, 78, 80
17, 130800, Note_off_c, 5, 78, 64
17, 130851, Note_on_c, 5, 81, 85
17, 130886, Note_off_c, 5, 81, 64
17, 130910, Note_on_c, 5, 79, 87
17, 130949, Note_off_c, 5, 79, 64
17, 130972, Note_on_c, 5, 78, 80
17, 131015, Note_off_c, 5, 78, 64
17, 131039, Note_on_c, 5, 83, 89
17, 131131, Note_off_c, 5, 83, 64
17, 131221, Note_on_c, 5, 81, 82
17, 131260, Note_off_c, 5, 81, 64
17, 131282, Note_on_c, 5, 79, 85
17, 131367, Note_off_c, 5, 79, 64
17, 131460, Note_on_c, 5, 78, 60
17, 131502, Note_off_c, 5, 78, 64
17, 131521, Note_on_c, 5, 79, 78
17, 131607, Note_off_c, 5, 79, 64
17, 131702, Note_on_c, 5, 78, 68
17, 131749, Note_off_c, 5, 78, 64
17, 131762, Note_on_c, 5, 76, 87
17, 131853, Note_off_c, 5, 76, 64
17, 131942, Note_on_c, 5, 78, 68
17, 131976, Note_off_c, 5, 78, 64
17, 132003, Note_on_c, 5, 79, 82
17, 132061, Note_on_c, 5, 78, 68
17, 132064, Note_off_c, 5, 79, 64
17, 132087, Note_off_c, 5, 78, 64
17, 132090, Note_on_c, 5, 79, 78
17, 132118, Note_off_c, 5, 79, 64
17, 132118, Note_on_c, 5, 78, 57
17, 132133, Note_off_c, 5, 78, 64
17, 132138, Note_on_c, 5, 79, 63
17, 132157, Note_on_c, 5, 78, 57
17, 132159, Note_off_c, 5, 79, 64
17, 132175, Note_off_c, 5, 78, 64
17, 132177, Note_on_c, 5, 79, 68
17, 132195, Note_on_c, 5, 78, 58
17, 132197, Note_off_c, 5, 79, 64
17, 132213, Note_on_c, 5, 79, 80
17, 132215, Note_off_c, 5, 78, 64
17, 132234, Note_on_c, 5, 78, 87
17, 132239, Note_off_c, 5, 79, 64
17, 132345, Note_off_c, 5, 78, 64
17, 132416, Note_on_c, 5, 76, 80
17, 132448, Note_off_c, 5, 76, 64
17, 132484, Note_on_c, 5, 76, 85
17, 132737, Note_off_c, 5, 76, 64
17, 132776, Note_on_c, 5, 76, 72
17, 132815, Note_off_c, 5, 76, 64
17, 132836, Note_on_c, 5, 74, 76
17, 132869, Note_off_c, 5, 74, 64
17, 132890, Note_on_c, 5, 73, 82
17, 132928, Note_off_c, 5, 73, 64
17, 132950, Note_on_c, 5, 74, 89
17, 133043, Note_off_c, 5, 74, 64
17, 133127, Note_on_c, 5, 83, 85
17, 133164, Note_off_c, 5, 83, 64
17, 133190, Note_on_c, 5, 76, 89
17, 133271, Note_off_c, 5, 76, 64
17, 133377, Note_on_c, 5, 74, 82
17, 133416, Note_off_c, 5, 74, 64
17, 133440, Note_on_c, 5, 73, 87
17, 133532, Note_off_c, 5, 73, 64
17, 133615, Note_on_c, 5, 69, 82
17, 133656, Note_off_c, 5, 69, 64
17, 133680, Note_on_c, 5, 73, 80
17, 133757, Note_off_c, 5, 73, 64
17, 133853, Note_on_c, 5, 76, 82
17, 133887, Note_off_c, 5, 76, 64
17, 133921, Note_on_c, 5, 81, 82
17, 134261, Note_off_c, 5, 81, 64
17, 134337, Note_on_c, 5, 81, 87
17, 134368, Note_off_c, 5, 81, 64
17, 134398, Note_on_c, 5, 81, 89
17, 134683, Note_off_c, 5, 81, 64
17, 134757, Note_on_c, 5, 71, 70
17, 134790, Note_on_c, 5, 73, 58
17, 134800, Note_off_c, 5, 71, 64
17, 134813, Note_on_c, 5, 74, 78
17, 134828, Note_off_c, 5, 73, 64
17, 134832, Note_on_c, 5, 76, 85
17, 134855, Note_on_c, 5, 78, 80
17, 134858, Note_off_c, 5, 74, 64
17, 134871, Note_off_c, 5, 76, 64
17, 134881, Note_on_c, 5, 79, 89
17, 134890, Note_off_c, 5, 78, 64
17, 135226, Note_off_c, 5, 79, 64
17, 135292, Note_on_c, 5, 79, 85
17, 135323, Note_off_c, 5, 79, 64
17, 135352, Note_on_c, 5, 79, 85
17, 135649, Note_off_c, 5, 79, 64
17, 135709, Note_on_c, 5, 78, 62
17, 135728, Note_on_c, 5, 76, 82
17, 135747, Note_off_c, 5, 78, 64
17, 135756, Note_on_c, 5, 74, 72
17, 135769, Note_off_c, 5, 76, 64
17, 135771, Note_on_c, 5, 73, 53
17, 135794, Note_on_c, 5, 71, 89
17, 135807, Note_off_c, 5, 73, 64
17, 135810, Note_off_c, 5, 74, 64
17, 135825, Note_off_c, 5, 71, 64
17, 135837, Note_on_c, 5, 69, 85
17, 135968, Note_off_c, 5, 69, 64
17, 136013, Note_on_c, 5, 67, 74
17, 136039, Note_on_c, 5, 66, 80
17, 136047, Note_off_c, 5, 67, 64
17, 136072, Note_off_c, 5, 66, 64
17, 136080, Note_on_c, 5, 67, 89
17, 136170, Note_off_c, 5, 67, 64
17, 136245, Note_on_c, 5, 76, 89
17, 136281, Note_off_c, 5, 76, 64
17, 136310, Note_on_c, 5, 66, 82
17, 136574, Note_off_c, 5, 66, 64
17, 136617, Note_on_c, 5, 67, 78
17, 136658, Note_off_c, 5, 67, 64
17, 136682, Note_on_c, 5, 69, 85
17, 136723, Note_off_c, 5, 69, 64
17, 136738, Note_on_c, 5, 71, 89
17, 136774, Note_off_c, 5, 71, 64
17, 136798, Note_on_c, 5, 72, 85
17, 137149, Note_off_c, 5, 72, 64
17, 137208, Note_on_c, 5, 74, 87
17, 137241, Note_off_c, 5, 74, 64
17, 137273, Note_on_c, 5, 71, 87
17, 137543, Note_off_c, 5, 71, 64
17, 137573, Note_on_c, 5, 69, 78
17, 137615, Note_off_c, 5, 69, 64
17, 137632, Note_on_c, 5, 67, 87
17, 137669, Note_off_c, 5, 67, 64
17, 137686, Note_on_c, 5, 66, 80
17, 137728, Note_off_c, 5, 66, 64
17, 137747, Note_on_c, 5, 64, 82
17, 137800, Note_off_c, 5, 64, 64
17, 137809, Note_on_c, 5, 66, 82
17, 137856, Note_off_c, 5, 66, 64
17, 137871, Note_on_c, 5, 67, 68
17, 137924, Note_off_c, 5, 67, 64
17, 137933, Note_on_c, 5, 69, 87
17, 137978, Note_off_c, 5, 69, 64
17, 137997, Note_on_c, 5, 71, 87
17, 138045, Note_off_c, 5, 71, 64
17, 138056, Note_on_c, 5, 73, 66
17, 138102, Note_off_c, 5, 73, 64
17, 138118, Note_on_c, 5, 74, 93
17, 138160, Note_off_c, 5, 74, 64
17, 138172, Note_on_c, 5, 71, 87
17, 138224, Note_off_c, 5, 71, 64
17, 141707, Note_on_c, 5, 62, 76
17, 141758, Note_on_c, 5, 64, 70
17, 141761, Note_off_c, 5, 62, 64
17, 141808, Note_off_c, 5, 64, 64
17, 141820, Note_on_c, 5, 66, 80
17, 141888, Note_off_c, 5, 66, 64
17, 141958, Note_on_c, 5, 66, 58
17, 142008, Note_off_c, 5, 66, 64
17, 142010, Note_on_c, 5, 67, 60
17, 142055, Note_off_c, 5, 67, 64
17, 142072, Note_on_c, 5, 69, 89
17, 142138, Note_off_c, 5, 69, 64
17, 142192, Note_on_c, 5, 66, 64
17, 142239, Note_off_c, 5, 66, 64
17, 142246, Note_on_c, 5, 67, 66
17, 142293, Note_off_c, 5, 67, 64
17, 142315, Note_on_c, 5, 69, 87
17, 142380, Note_off_c, 5, 69, 64
17, 142438, Note_on_c, 5, 69, 63
17, 142489, Note_on_c, 5, 71, 78
17, 142493, Note_off_c, 5, 69, 64
17, 142538, Note_off_c, 5, 71, 64
17, 142555, Note_on_c, 5, 72, 87
17, 142617, Note_off_c, 5, 72, 64
17, 142683, Note_on_c, 5, 72, 80
17, 142728, Note_on_c, 5, 71, 60
17, 142736, Note_off_c, 5, 72, 64
17, 142768, Note_off_c, 5, 71, 64
17, 142790, Note_on_c, 5, 72, 80
17, 142853, Note_off_c, 5, 72, 64
17, 142916, Note_on_c, 5, 74, 76
17, 142966, Note_off_c, 5, 74, 64
17, 142970, Note_on_c, 5, 72, 66
17, 143014, Note_off_c, 5, 72, 64
17, 143034, Note_on_c, 5, 71, 66
17, 143095, Note_off_c, 5, 71, 64
17, 143161, Note_on_c, 5, 67, 70
17, 143213, Note_on_c, 5, 69, 68
17, 143215, Note_off_c, 5, 67, 64
17, 143266, Note_off_c, 5, 69, 64
17, 143274, Note_on_c, 5, 71, 82
17, 143342, Note_off_c, 5, 71, 64
17, 143393, Note_on_c, 5, 71, 72
17, 143446, Note_on_c, 5, 73, 60
17, 143458, Note_off_c, 5, 71, 64
17, 143497, Note_off_c, 5, 73, 64
17, 143514, Note_on_c, 5, 74, 89
17, 143588, Note_off_c, 5, 74, 64
17, 143637, Note_on_c, 5, 74, 70
17, 143685, Note_on_c, 5, 73, 60
17, 143692, Note_off_c, 5, 74, 64
17, 143730, Note_off_c, 5, 73, 64
17, 143751, Note_on_c, 5, 74, 82
17, 143817, Note_off_c, 5, 74, 64
17, 143873, Note_on_c, 5, 76, 68
17, 143926, Note_on_c, 5, 74, 70
17, 143934, Note_off_c, 5, 76, 64
17, 143973, Note_off_c, 5, 74, 64
17, 143997, Note_on_c, 5, 73, 80
17, 144052, Note_off_c, 5, 73, 64
17, 144114, Note_on_c, 5, 76, 87
17, 144157, Note_off_c, 5, 76, 64
17, 144227, Note_on_c, 5, 69, 72
17, 144269, Note_off_c, 5, 69, 64
17, 144353, Note_on_c, 5, 73, 78
17, 144528, Note_off_c, 5, 73, 64
17, 144592, Note_on_c, 5, 76, 85
17, 144639, Note_off_c, 5, 76, 64
17, 144709, Note_on_c, 5, 67, 68
17, 144753, Note_off_c, 5, 67, 64
17, 144828, Note_on_c, 5, 73, 80
17, 145020, Note_off_c, 5, 73, 64
17, 145061, Note_on_c, 5, 76, 82
17, 145115, Note_off_c, 5, 76, 64
17, 145177, Note_on_c, 5, 69, 80
17, 145239, Note_off_c, 5, 69, 64
17, 145301, Note_on_c, 5, 73, 70
17, 145342, Note_off_c, 5, 73, 64
17, 145424, Note_on_c, 5, 74, 76
17, 145478, Note_off_c, 5, 74, 64
17, 145480, Note_on_c, 5, 69, 80
17, 145522, Note_off_c, 5, 69, 64
17, 145535, Note_on_c, 5, 66, 68
17, 145592, Note_off_c, 5, 66, 64
17, 145592, Note_on_c, 5, 67, 76
17, 145637, Note_off_c, 5, 67, 64
17, 145656, Note_on_c, 5, 69, 80
17, 145707, Note_off_c, 5, 69, 64
17, 145709, Note_on_c, 5, 71, 72
17, 145752, Note_off_c, 5, 71, 64
17, 145772, Note_on_c, 5, 69, 64
17, 145826, Note_on_c, 5, 71, 68
17, 145828, Note_off_c, 5, 69, 64
17, 145871, Note_off_c, 5, 71, 64
17, 145892, Note_on_c, 5, 72, 85
17, 145948, Note_on_c, 5, 69, 80
17, 145953, Note_off_c, 5, 72, 64
17, 145988, Note_off_c, 5, 69, 64
17, 146010, Note_on_c, 5, 62, 59
17, 146075, Note_off_c, 5, 62, 64
17, 146075, Note_on_c, 5, 64, 70
17, 146123, Note_off_c, 5, 64, 64
17, 146140, Note_on_c, 5, 66, 62
17, 146195, Note_on_c, 5, 67, 61
17, 146198, Note_off_c, 5, 66, 64
17, 146250, Note_off_c, 5, 67, 64
17, 146257, Note_on_c, 5, 66, 70
17, 146308, Note_off_c, 5, 66, 64
17, 146317, Note_on_c, 5, 67, 74
17, 146361, Note_off_c, 5, 67, 64
17, 146385, Note_on_c, 5, 69, 89
17, 146440, Note_on_c, 5, 67, 66
17, 146447, Note_off_c, 5, 69, 64
17, 146496, Note_off_c, 5, 67, 64
17, 146504, Note_on_c, 5, 66, 48
17, 146564, Note_off_c, 5, 66, 64
17, 146565, Note_on_c, 5, 67, 63
17, 146613, Note_off_c, 5, 67, 64
17, 146633, Note_on_c, 5, 69, 82
17, 146685, Note_on_c, 5, 67, 68
17, 146689, Note_off_c, 5, 69, 64
17, 146744, Note_on_c, 5, 66, 57
17, 146747, Note_off_c, 5, 67, 64
17, 146800, Note_off_c, 5, 66, 64
17, 146805, Note_on_c, 5, 64, 56
17, 146853, Note_off_c, 5, 64, 64
17, 146870, Note_on_c, 5, 62, 60
17, 146929, Note_off_c, 5, 62, 64
17, 146989, Note_on_c, 5, 71, 85
17, 147036, Note_off_c, 5, 71, 64
17, 147113, Note_on_c, 5, 64, 80
17, 147152, Note_off_c, 5, 64, 64
17, 147234, Note_on_c, 5, 68, 74
17, 147408, Note_off_c, 5, 68, 64
17, 147473, Note_on_c, 5, 71, 85
17, 147527, Note_off_c, 5, 71, 64
17, 147599, Note_on_c, 5, 62, 76
17, 147641, Note_off_c, 5, 62, 64
17, 147718, Note_on_c, 5, 68, 80
17, 147889, Note_off_c, 5, 68, 64
17, 147947, Note_on_c, 5, 71, 82
17, 147995, Note_off_c, 5, 71, 64
17, 148066, Note_on_c, 5, 64, 70
17, 148120, Note_off_c, 5, 64, 64
17, 148184, Note_on_c, 5, 68, 78
17, 148219, Note_off_c, 5, 68, 64
17, 148307, Note_on_c, 5, 69, 78
17, 148360, Note_on_c, 5, 81, 85
17, 148362, Note_off_c, 5, 69, 64
17, 148403, Note_off_c, 5, 81, 64
17, 148425, Note_on_c, 5, 73, 64
17, 148478, Note_on_c, 5, 74, 74
17, 148488, Note_off_c, 5, 73, 64
17, 148522, Note_off_c, 5, 74, 64
17, 148545, Note_on_c, 5, 76, 80
17, 148599, Note_on_c, 5, 78, 62
17, 148610, Note_off_c, 5, 76, 64
17, 148643, Note_off_c, 5, 78, 64
17, 148656, Note_on_c, 5, 76, 66
17, 148711, Note_on_c, 5, 78, 60
17, 148730, Note_off_c, 5, 76, 64
17, 148757, Note_off_c, 5, 78, 64
17, 148779, Note_on_c, 5, 79, 85
17, 148837, Note_off_c, 5, 79, 64
17, 148837, Note_on_c, 5, 76, 70
17, 148892, Note_off_c, 5, 76, 64
17, 148901, Note_on_c, 5, 69, 57
17, 148960, Note_on_c, 5, 71, 68
17, 148963, Note_off_c, 5, 69, 64
17, 149013, Note_off_c, 5, 71, 64
17, 149022, Note_on_c, 5, 73, 64
17, 149077, Note_on_c, 5, 74, 66
17, 149084, Note_off_c, 5, 73, 64
17, 149131, Note_off_c, 5, 74, 64
17, 149139, Note_on_c, 5, 73, 64
17, 149196, Note_off_c, 5, 73, 64
17, 149196, Note_on_c, 5, 74, 70
17, 149243, Note_off_c, 5, 74, 64
17, 149263, Note_on_c, 5, 76, 91
17, 149321, Note_on_c, 5, 74, 68
17, 149323, Note_off_c, 5, 76, 64
17, 149377, Note_off_c, 5, 74, 64
17, 149384, Note_on_c, 5, 73, 60
17, 149440, Note_on_c, 5, 74, 66
17, 149446, Note_off_c, 5, 73, 64
17, 149484, Note_off_c, 5, 74, 64
17, 149500, Note_on_c, 5, 76, 85
17, 149558, Note_on_c, 5, 74, 70
17, 149567, Note_off_c, 5, 76, 64
17, 149616, Note_off_c, 5, 74, 64
17, 149620, Note_on_c, 5, 73, 56
17, 149675, Note_off_c, 5, 73, 64
17, 149678, Note_on_c, 5, 71, 68
17, 149731, Note_off_c, 5, 71, 64
17, 149747, Note_on_c, 5, 69, 80
17, 149805, Note_off_c, 5, 69, 64
17, 149874, Note_on_c, 5, 66, 68
17, 149931, Note_off_c, 5, 66, 64
17, 149998, Note_on_c, 5, 71, 78
17, 150275, Note_off_c, 5, 71, 64
17, 150358, Note_on_c, 5, 70, 63
17, 150409, Note_on_c, 5, 71, 78
17, 150414, Note_off_c, 5, 70, 64
17, 150465, Note_off_c, 5, 71, 64
17, 150476, Note_on_c, 5, 73, 62
17, 150531, Note_off_c, 5, 73, 64
17, 150532, Note_on_c, 5, 71, 68
17, 150585, Note_on_c, 5, 70, 59
17, 150591, Note_off_c, 5, 71, 64
17, 150647, Note_on_c, 5, 68, 63
17, 150650, Note_off_c, 5, 70, 64
17, 150686, Note_off_c, 5, 68, 64
17, 150708, Note_on_c, 5, 66, 61
17, 150767, Note_on_c, 5, 78, 76
17, 150774, Note_off_c, 5, 66, 64
17, 150810, Note_off_c, 5, 78, 64
17, 150836, Note_on_c, 5, 71, 74
17, 150894, Note_off_c, 5, 71, 64
17, 150896, Note_on_c, 5, 73, 66
17, 150952, Note_off_c, 5, 73, 64
17, 150958, Note_on_c, 5, 74, 72
17, 151020, Note_off_c, 5, 74, 64
17, 151020, Note_on_c, 5, 76, 66
17, 151065, Note_off_c, 5, 76, 64
17, 151079, Note_on_c, 5, 74, 74
17, 151130, Note_on_c, 5, 76, 68
17, 151134, Note_off_c, 5, 74, 64
17, 151178, Note_off_c, 5, 76, 64
17, 151192, Note_on_c, 5, 78, 68
17, 151247, Note_off_c, 5, 78, 64
17, 151250, Note_on_c, 5, 81, 78
17, 151295, Note_off_c, 5, 81, 64
17, 151307, Note_on_c, 5, 74, 78
17, 151360, Note_on_c, 5, 76, 64
17, 151363, Note_off_c, 5, 74, 64
17, 151406, Note_off_c, 5, 76, 64
17, 151424, Note_on_c, 5, 78, 87
17, 151477, Note_on_c, 5, 79, 72
17, 151480, Note_off_c, 5, 78, 64
17, 151534, Note_off_c, 5, 79, 64
17, 151544, Note_on_c, 5, 78, 89
17, 151593, Note_off_c, 5, 78, 64
17, 151597, Note_on_c, 5, 79, 82
17, 151643, Note_off_c, 5, 79, 64
17, 151661, Note_on_c, 5, 81, 85
17, 151716, Note_on_c, 5, 79, 72
17, 151722, Note_off_c, 5, 81, 64
17, 151776, Note_off_c, 5, 79, 64
17, 151782, Note_on_c, 5, 78, 82
17, 151837, Note_off_c, 5, 78, 64
17, 151837, Note_on_c, 5, 79, 72
17, 151885, Note_off_c, 5, 79, 64
17, 151904, Note_on_c, 5, 81, 89
17, 151958, Note_on_c, 5, 79, 76
17, 151968, Note_off_c, 5, 81, 64
17, 152008, Note_off_c, 5, 79, 64
17, 152016, Note_on_c, 5, 78, 74
17, 152064, Note_off_c, 5, 78, 64
17, 152072, Note_on_c, 5, 76, 76
17, 152134, Note_off_c, 5, 76, 64
17, 152141, Note_on_c, 5, 74, 72
17, 152205, Note_off_c, 5, 74, 64
17, 152264, Note_on_c, 5, 71, 76
17, 152312, Note_off_c, 5, 71, 64
17, 152390, Note_on_c, 5, 76, 87
17, 152681, Note_off_c, 5, 76, 64
17, 152744, Note_on_c, 5, 69, 80
17, 152785, Note_off_c, 5, 69, 64
17, 152870, Note_on_c, 5, 74, 87
17, 153161, Note_off_c, 5, 74, 64
17, 153233, Note_on_c, 5, 73, 64
17, 153294, Note_off_c, 5, 73, 64
17, 153347, Note_on_c, 5, 74, 89
17, 153397, Note_on_c, 5, 73, 63
17, 153405, Note_off_c, 5, 74, 64
17, 153445, Note_off_c, 5, 73, 64
17, 153458, Note_on_c, 5, 71, 85
17, 153517, Note_off_c, 5, 71, 64
17, 153518, Note_on_c, 5, 74, 82
17, 153571, Note_off_c, 5, 74, 64
17, 153583, Note_on_c, 5, 73, 74
17, 153634, Note_off_c, 5, 73, 64
17, 153704, Note_on_c, 5, 76, 85
17, 153744, Note_off_c, 5, 76, 64
17, 153823, Note_on_c, 5, 69, 80
17, 153864, Note_off_c, 5, 69, 64
17, 153948, Note_on_c, 5, 73, 74
17, 154125, Note_off_c, 5, 73, 64
17, 154189, Note_on_c, 5, 76, 85
17, 154237, Note_off_c, 5, 76, 64
17, 154307, Note_on_c, 5, 67, 80
17, 154352, Note_off_c, 5, 67, 64
17, 154435, Note_on_c, 5, 73, 80
17, 154609, Note_off_c, 5, 73, 64
17, 154670, Note_on_c, 5, 76, 95
17, 154710, Note_off_c, 5, 76, 64
17, 154782, Note_on_c, 5, 69, 80
17, 154840, Note_off_c, 5, 69, 64
17, 154904, Note_on_c, 5, 73, 78
17, 154956, Note_off_c, 5, 73, 64
17, 155020, Note_on_c, 5, 74, 89
17, 155062, Note_off_c, 5, 74, 64
17, 155146, Note_on_c, 5, 69, 82
17, 155189, Note_off_c, 5, 69, 64
17, 155269, Note_on_c, 5, 74, 87
17, 155568, Note_off_c, 5, 74, 64
17, 155625, Note_on_c, 5, 73, 68
17, 155681, Note_off_c, 5, 73, 64
17, 155741, Note_on_c, 5, 76, 87
17, 155790, Note_off_c, 5, 76, 64
17, 155864, Note_on_c, 5, 73, 63
17, 155911, Note_off_c, 5, 73, 64
17, 155984, Note_on_c, 5, 74, 89
17, 156043, Note_off_c, 5, 74, 64
17, 156104, Note_on_c, 5, 69, 80
17, 156158, Note_off_c, 5, 69, 64
17, 156227, Note_on_c, 5, 62, 78
17, 156276, Note_off_c, 5, 62, 64
17, 156352, Note_on_c, 5, 67, 78
17, 156407, Note_off_c, 5, 67, 64
17, 156483, Note_on_c, 5, 64, 91
17, 156727, Note_off_c, 5, 64, 64
17, 156839, Note_on_c, 5, 73, 78
17, 156898, Note_off_c, 5, 73, 64
17, 156961, Note_on_c, 5, 74, 87
17, 157015, Note_off_c, 5, 74, 64
17, 157076, Note_on_c, 5, 71, 80
17, 157136, Note_off_c, 5, 71, 64
17, 157196, Note_on_c, 5, 69, 82
17, 157246, Note_off_c, 5, 69, 64
17, 157322, Note_on_c, 5, 69, 85
17, 157374, Note_off_c, 5, 69, 64
17, 157442, Note_on_c, 5, 69, 80
17, 157568, Note_off_c, 5, 69, 64
17, 172909, Note_on_c, 5, 76, 82
17, 172957, Note_off_c, 5, 76, 64
17, 173032, Note_on_c, 5, 69, 76
17, 173084, Note_off_c, 5, 69, 64
17, 173165, Note_on_c, 5, 73, 80
17, 173333, Note_off_c, 5, 73, 64
17, 173395, Note_on_c, 5, 76, 85
17, 173448, Note_off_c, 5, 76, 64
17, 173514, Note_on_c, 5, 67, 80
17, 173562, Note_off_c, 5, 67, 64
17, 173640, Note_on_c, 5, 73, 85
17, 173818, Note_off_c, 5, 73, 64
17, 173874, Note_on_c, 5, 76, 82
17, 173918, Note_off_c, 5, 76, 64
17, 173991, Note_on_c, 5, 69, 85
17, 174051, Note_off_c, 5, 69, 64
17, 174107, Note_on_c, 5, 73, 66
17, 174151, Note_off_c, 5, 73, 64
17, 174235, Note_on_c, 5, 74, 80
17, 174293, Note_on_c, 5, 73, 63
17, 174296, Note_off_c, 5, 74, 64
17, 174347, Note_off_c, 5, 73, 64
17, 174349, Note_on_c, 5, 74, 68
17, 174410, Note_on_c, 5, 76, 80
17, 174413, Note_off_c, 5, 74, 64
17, 174449, Note_off_c, 5, 76, 64
17, 174474, Note_on_c, 5, 78, 89
17, 174532, Note_on_c, 5, 79, 76
17, 174535, Note_off_c, 5, 78, 64
17, 174576, Note_off_c, 5, 79, 64
17, 174590, Note_on_c, 5, 78, 80
17, 174648, Note_on_c, 5, 79, 70
17, 174649, Note_off_c, 5, 78, 64
17, 174697, Note_off_c, 5, 79, 64
17, 174713, Note_on_c, 5, 81, 82
17, 174763, Note_on_c, 5, 78, 57
17, 174767, Note_off_c, 5, 81, 64
17, 174818, Note_off_c, 5, 78, 64
17, 174830, Note_on_c, 5, 71, 64
17, 174894, Note_off_c, 5, 71, 64
17, 174896, Note_on_c, 5, 73, 62
17, 174948, Note_off_c, 5, 73, 64
17, 174960, Note_on_c, 5, 75, 72
17, 175016, Note_off_c, 5, 75, 64
17, 175016, Note_on_c, 5, 76, 66
17, 175061, Note_off_c, 5, 76, 64
17, 175078, Note_on_c, 5, 75, 93
17, 175133, Note_on_c, 5, 76, 68
17, 175143, Note_off_c, 5, 75, 64
17, 175170, Note_off_c, 5, 76, 64
17, 175193, Note_on_c, 5, 78, 100
17, 175244, Note_off_c, 5, 78, 64
17, 175247, Note_on_c, 5, 76, 62
17, 175308, Note_on_c, 5, 75, 61
17, 175319, Note_off_c, 5, 76, 64
17, 175363, Note_off_c, 5, 75, 64
17, 175370, Note_on_c, 5, 76, 74
17, 175424, Note_off_c, 5, 76, 64
17, 175435, Note_on_c, 5, 78, 80
17, 175492, Note_on_c, 5, 76, 64
17, 175493, Note_off_c, 5, 78, 64
17, 175553, Note_off_c, 5, 76, 64
17, 175554, Note_on_c, 5, 75, 70
17, 175613, Note_on_c, 5, 73, 61
17, 175615, Note_off_c, 5, 75, 64
17, 175665, Note_off_c, 5, 73, 64
17, 175681, Note_on_c, 5, 71, 70
17, 175792, Note_off_c, 5, 71, 64
17, 175803, Note_on_c, 5, 76, 70
17, 175902, Note_off_c, 5, 76, 64
17, 175923, Note_on_c, 5, 76, 68
17, 176014, Note_off_c, 5, 76, 64
17, 176037, Note_on_c, 5, 76, 62
17, 176128, Note_off_c, 5, 76, 64
17, 176154, Note_on_c, 5, 76, 70
17, 176248, Note_off_c, 5, 76, 64
17, 176272, Note_on_c, 5, 76, 66
17, 176362, Note_off_c, 5, 76, 64
17, 176403, Note_on_c, 5, 76, 78
17, 176501, Note_off_c, 5, 76, 64
17, 176516, Note_on_c, 5, 76, 78
17, 176603, Note_off_c, 5, 76, 64
17, 176629, Note_on_c, 5, 76, 78
17, 176719, Note_off_c, 5, 76, 64
17, 176744, Note_on_c, 5, 76, 68
17, 176824, Note_off_c, 5, 76, 64
17, 176864, Note_on_c, 5, 76, 78
17, 176946, Note_off_c, 5, 76, 64
17, 176985, Note_on_c, 5, 71, 76
17, 177059, Note_off_c, 5, 71, 64
17, 177102, Note_on_c, 5, 69, 74
17, 177158, Note_on_c, 5, 68, 58
17, 177163, Note_off_c, 5, 69, 64
17, 177219, Note_off_c, 5, 68, 64
17, 177220, Note_on_c, 5, 69, 72
17, 177281, Note_on_c, 5, 71, 78
17, 177289, Note_off_c, 5, 69, 64
17, 177321, Note_off_c, 5, 71, 64
17, 177343, Note_on_c, 5, 69, 72
17, 177405, Note_on_c, 5, 68, 64
17, 177412, Note_off_c, 5, 69, 64
17, 177467, Note_on_c, 5, 66, 60
17, 177470, Note_off_c, 5, 68, 64
17, 177507, Note_off_c, 5, 66, 64
17, 177527, Note_on_c, 5, 69, 76
17, 177560, Note_off_c, 5, 69, 64
17, 177590, Note_on_c, 5, 68, 91
17, 177644, Note_on_c, 5, 69, 68
17, 177645, Note_off_c, 5, 68, 64
17, 177708, Note_on_c, 5, 68, 78
17, 177711, Note_off_c, 5, 69, 64
17, 177764, Note_off_c, 5, 68, 64
17, 177764, Note_on_c, 5, 66, 74
17, 177813, Note_off_c, 5, 66, 64
17, 177826, Note_on_c, 5, 65, 80
17, 177896, Note_off_c, 5, 65, 64
17, 177945, Note_on_c, 5, 68, 74
17, 178012, Note_off_c, 5, 68, 64
17, 178069, Note_on_c, 5, 69, 82
17, 178121, Note_on_c, 5, 73, 60
17, 178129, Note_off_c, 5, 69, 64
17, 178178, Note_off_c, 5, 73, 64
17, 178188, Note_on_c, 5, 66, 85
17, 178249, Note_on_c, 5, 68, 64
17, 178253, Note_off_c, 5, 66, 64
17, 178303, Note_off_c, 5, 68, 64
17, 178309, Note_on_c, 5, 69, 74
17, 178371, Note_on_c, 5, 71, 68
17, 178375, Note_off_c, 5, 69, 64
17, 178432, Note_off_c, 5, 71, 64
17, 178434, Note_on_c, 5, 69, 82
17, 178492, Note_on_c, 5, 71, 78
17, 178503, Note_off_c, 5, 69, 64
17, 178537, Note_off_c, 5, 71, 64
17, 178553, Note_on_c, 5, 73, 89
17, 178611, Note_on_c, 5, 76, 82
17, 178625, Note_off_c, 5, 73, 64
17, 178661, Note_off_c, 5, 76, 64
17, 178670, Note_on_c, 5, 69, 78
17, 178726, Note_on_c, 5, 71, 80
17, 178731, Note_off_c, 5, 69, 64
17, 178774, Note_off_c, 5, 71, 64
17, 178788, Note_on_c, 5, 73, 87
17, 178840, Note_on_c, 5, 74, 72
17, 178843, Note_off_c, 5, 73, 64
17, 178892, Note_off_c, 5, 74, 64
17, 178904, Note_on_c, 5, 73, 98
17, 178957, Note_off_c, 5, 73, 64
17, 178958, Note_on_c, 5, 74, 82
17, 179006, Note_off_c, 5, 74, 64
17, 179026, Note_on_c, 5, 76, 98
17, 179084, Note_on_c, 5, 74, 80
17, 179093, Note_off_c, 5, 76, 64
17, 179141, Note_off_c, 5, 74, 64
17, 179145, Note_on_c, 5, 73, 63
17, 179203, Note_on_c, 5, 74, 78
17, 179218, Note_off_c, 5, 73, 64
17, 179251, Note_off_c, 5, 74, 64
17, 179270, Note_on_c, 5, 76, 95
17, 179326, Note_on_c, 5, 74, 74
17, 179338, Note_off_c, 5, 76, 64
17, 179387, Note_on_c, 5, 73, 82
17, 179394, Note_off_c, 5, 74, 64
17, 179448, Note_on_c, 5, 71, 87
17, 179454, Note_off_c, 5, 73, 64
17, 179507, Note_off_c, 5, 71, 64
17, 179513, Note_on_c, 5, 69, 82
17, 179584, Note_off_c, 5, 69, 64
17, 179638, Note_on_c, 5, 66, 76
17, 179687, Note_off_c, 5, 66, 64
17, 179760, Note_on_c, 5, 71, 85
17, 180030, Note_off_c, 5, 71, 64
17, 180106, Note_on_c, 5, 76, 91
17, 180168, Note_off_c, 5, 76, 64
17, 180231, Note_on_c, 5, 70, 76
17, 180296, Note_off_c, 5, 70, 64
17, 180355, Note_on_c, 5, 66, 76
17, 180510, Note_off_c, 5, 66, 64
17, 180527, Note_on_c, 5, 67, 72
17, 180574, Note_off_c, 5, 67, 64
17, 180588, Note_on_c, 5, 64, 78
17, 180643, Note_on_c, 5, 66, 78
17, 180652, Note_off_c, 5, 64, 64
17, 180689, Note_off_c, 5, 66, 64
17, 180710, Note_on_c, 5, 67, 82
17, 180776, Note_off_c, 5, 67, 64
17, 180832, Note_on_c, 5, 64, 87
17, 180878, Note_off_c, 5, 64, 64
17, 180958, Note_on_c, 5, 73, 87
17, 180995, Note_off_c, 5, 73, 64
17, 181016, Note_on_c, 5, 78, 87
17, 181060, Note_off_c, 5, 78, 64
17, 181072, Note_on_c, 5, 70, 68
17, 181126, Note_off_c, 5, 70, 64
17, 181134, Note_on_c, 5, 71, 78
17, 181187, Note_off_c, 5, 71, 64
17, 181198, Note_on_c, 5, 73, 76
17, 181248, Note_on_c, 5, 74, 82
17, 181260, Note_off_c, 5, 73, 64
17, 181296, Note_off_c, 5, 74, 64
17, 181311, Note_on_c, 5, 73, 64
17, 181357, Note_on_c, 5, 74, 76
17, 181372, Note_off_c, 5, 73, 64
17, 181409, Note_off_c, 5, 74, 64
17, 181426, Note_on_c, 5, 76, 87
17, 181488, Note_on_c, 5, 73, 80
17, 181492, Note_off_c, 5, 76, 64
17, 181540, Note_off_c, 5, 73, 64
17, 181551, Note_on_c, 5, 66, 68
17, 181609, Note_on_c, 5, 68, 74
17, 181620, Note_off_c, 5, 66, 64
17, 181670, Note_on_c, 5, 70, 68
17, 181676, Note_off_c, 5, 68, 64
17, 181725, Note_on_c, 5, 71, 66
17, 181735, Note_off_c, 5, 70, 64
17, 181783, Note_off_c, 5, 71, 64
17, 181786, Note_on_c, 5, 70, 70
17, 181837, Note_off_c, 5, 70, 64
17, 181842, Note_on_c, 5, 71, 82
17, 181892, Note_off_c, 5, 71, 64
17, 181909, Note_on_c, 5, 73, 91
17, 181971, Note_on_c, 5, 71, 72
17, 181975, Note_off_c, 5, 73, 64
17, 182036, Note_on_c, 5, 70, 70
17, 182042, Note_off_c, 5, 71, 64
17, 182094, Note_on_c, 5, 71, 82
17, 182101, Note_off_c, 5, 70, 64
17, 182146, Note_off_c, 5, 71, 64
17, 182159, Note_on_c, 5, 73, 82
17, 182216, Note_on_c, 5, 76, 80
17, 182228, Note_off_c, 5, 73, 64
17, 182274, Note_on_c, 5, 74, 70
17, 182293, Note_off_c, 5, 76, 64
17, 182329, Note_on_c, 5, 73, 76
17, 182338, Note_off_c, 5, 74, 64
17, 182385, Note_off_c, 5, 73, 64
17, 182394, Note_on_c, 5, 71, 85
17, 182450, Note_off_c, 5, 71, 64
17, 182517, Note_on_c, 5, 66, 68
17, 182566, Note_off_c, 5, 66, 64
17, 182626, Note_on_c, 5, 71, 74
17, 182924, Note_off_c, 5, 71, 64
17, 182985, Note_on_c, 5, 64, 72
17, 183049, Note_off_c, 5, 64, 64
17, 183106, Note_on_c, 5, 61, 78
17, 183171, Note_off_c, 5, 61, 64
17, 183218, Note_on_c, 5, 70, 76
17, 183266, Note_off_c, 5, 70, 64
17, 183345, Note_on_c, 5, 71, 85
17, 183393, Note_off_c, 5, 71, 64
17, 183460, Note_on_c, 5, 71, 82
17, 183515, Note_off_c, 5, 71, 64
17, 183578, Note_on_c, 5, 71, 82
17, 183634, Note_off_c, 5, 71, 64
17, 183691, Note_on_c, 5, 67, 80
17, 183739, Note_off_c, 5, 67, 64
17, 183823, Note_on_c, 5, 66, 78
17, 184077, Note_off_c, 5, 66, 64
17, 184184, Note_on_c, 5, 73, 72
17, 184241, Note_off_c, 5, 73, 64
17, 184303, Note_on_c, 5, 71, 82
17, 184360, Note_off_c, 5, 71, 64
17, 184418, Note_on_c, 5, 70, 70
17, 184466, Note_off_c, 5, 70, 64
17, 184537, Note_on_c, 5, 66, 78
17, 184589, Note_off_c, 5, 66, 64
17, 184663, Note_on_c, 5, 66, 78
17, 184723, Note_off_c, 5, 66, 64
17, 184789, Note_on_c, 5, 62, 82
17, 184847, Note_off_c, 5, 62, 64
17, 184908, Note_on_c, 5, 67, 85
17, 184966, Note_off_c, 5, 67, 64
17, 185033, Note_on_c, 5, 66, 74
17, 185090, Note_off_c, 5, 66, 64
17, 185155, Note_on_c, 5, 66, 68
17, 185207, Note_off_c, 5, 66, 64
17, 185278, Note_on_c, 5, 66, 91
17, 185425, Note_off_c, 5, 66, 64
17, 202662, Note_on_c, 5, 76, 89
17, 202715, Note_off_c, 5, 76, 64
17, 202789, Note_on_c, 5, 69, 82
17, 202842, Note_off_c, 5, 69, 64
17, 202912, Note_on_c, 5, 73, 89
17, 203082, Note_off_c, 5, 73, 64
17, 203146, Note_on_c, 5, 76, 87
17, 203198, Note_off_c, 5, 76, 64
17, 203269, Note_on_c, 5, 67, 82
17, 203321, Note_off_c, 5, 67, 64
17, 203394, Note_on_c, 5, 73, 82
17, 203576, Note_off_c, 5, 73, 64
17, 203620, Note_on_c, 5, 76, 82
17, 203670, Note_off_c, 5, 76, 64
17, 203744, Note_on_c, 5, 69, 82
17, 203803, Note_off_c, 5, 69, 64
17, 203866, Note_on_c, 5, 73, 78
17, 203924, Note_off_c, 5, 73, 64
17, 203992, Note_on_c, 5, 74, 91
17, 204067, Note_off_c, 5, 74, 64
17, 204112, Note_on_c, 5, 62, 70
17, 204154, Note_off_c, 5, 62, 64
17, 204169, Note_on_c, 5, 64, 66
17, 204211, Note_off_c, 5, 64, 64
17, 204230, Note_on_c, 5, 66, 93
17, 204285, Note_off_c, 5, 66, 64
17, 204350, Note_on_c, 5, 66, 63
17, 204392, Note_on_c, 5, 67, 74
17, 204399, Note_off_c, 5, 66, 64
17, 204439, Note_off_c, 5, 67, 64
17, 204466, Note_on_c, 5, 69, 91
17, 204537, Note_off_c, 5, 69, 64
17, 204596, Note_on_c, 5, 66, 80
17, 204650, Note_off_c, 5, 66, 64
17, 204653, Note_on_c, 5, 67, 70
17, 204710, Note_off_c, 5, 67, 64
17, 204713, Note_on_c, 5, 69, 85
17, 204766, Note_off_c, 5, 69, 64
17, 204833, Note_on_c, 5, 69, 82
17, 204883, Note_off_c, 5, 69, 64
17, 204887, Note_on_c, 5, 71, 80
17, 204944, Note_off_c, 5, 71, 64
17, 204951, Note_on_c, 5, 72, 87
17, 205007, Note_off_c, 5, 72, 64
17, 205064, Note_on_c, 5, 72, 82
17, 205109, Note_off_c, 5, 72, 64
17, 205117, Note_on_c, 5, 71, 76
17, 205165, Note_off_c, 5, 71, 64
17, 205184, Note_on_c, 5, 72, 80
17, 205255, Note_off_c, 5, 72, 64
17, 205305, Note_on_c, 5, 74, 78
17, 205349, Note_off_c, 5, 74, 64
17, 205363, Note_on_c, 5, 72, 80
17, 205412, Note_off_c, 5, 72, 64
17, 205427, Note_on_c, 5, 71, 87
17, 205489, Note_off_c, 5, 71, 64
17, 205551, Note_on_c, 5, 67, 80
17, 205599, Note_off_c, 5, 67, 64
17, 205617, Note_on_c, 5, 69, 68
17, 205672, Note_off_c, 5, 69, 64
17, 205673, Note_on_c, 5, 71, 85
17, 205733, Note_off_c, 5, 71, 64
17, 205791, Note_on_c, 5, 71, 78
17, 205843, Note_on_c, 5, 73, 82
17, 205855, Note_off_c, 5, 71, 64
17, 205890, Note_off_c, 5, 73, 64
17, 205909, Note_on_c, 5, 74, 93
17, 205970, Note_off_c, 5, 74, 64
17, 206025, Note_on_c, 5, 74, 80
17, 206073, Note_off_c, 5, 74, 64
17, 206080, Note_on_c, 5, 73, 87
17, 206130, Note_off_c, 5, 73, 64
17, 206144, Note_on_c, 5, 74, 87
17, 206206, Note_off_c, 5, 74, 64
17, 206261, Note_on_c, 5, 76, 87
17, 206318, Note_on_c, 5, 74, 82
17, 206328, Note_off_c, 5, 76, 64
17, 206361, Note_off_c, 5, 74, 64
17, 206380, Note_on_c, 5, 73, 87
17, 206434, Note_off_c, 5, 73, 64
17, 206510, Note_on_c, 5, 76, 85
17, 206552, Note_off_c, 5, 76, 64
17, 206626, Note_on_c, 5, 69, 78
17, 206672, Note_off_c, 5, 69, 64
17, 206751, Note_on_c, 5, 73, 82
17, 206925, Note_off_c, 5, 73, 64
17, 206980, Note_on_c, 5, 76, 82
17, 207032, Note_off_c, 5, 76, 64
17, 207103, Note_on_c, 5, 67, 78
17, 207150, Note_off_c, 5, 67, 64
17, 207228, Note_on_c, 5, 73, 85
17, 207420, Note_off_c, 5, 73, 64
17, 207472, Note_on_c, 5, 76, 87
17, 207515, Note_off_c, 5, 76, 64
17, 207584, Note_on_c, 5, 69, 74
17, 207641, Note_off_c, 5, 69, 64
17, 207701, Note_on_c, 5, 73, 78
17, 207740, Note_off_c, 5, 73, 64
17, 207819, Note_on_c, 5, 74, 76
17, 207870, Note_off_c, 5, 74, 64
17, 207875, Note_on_c, 5, 69, 87
17, 207917, Note_off_c, 5, 69, 64
17, 207930, Note_on_c, 5, 66, 80
17, 207984, Note_off_c, 5, 66, 64
17, 207987, Note_on_c, 5, 67, 66
17, 208030, Note_off_c, 5, 67, 64
17, 208047, Note_on_c, 5, 69, 76
17, 208104, Note_off_c, 5, 69, 64
17, 208111, Note_on_c, 5, 71, 87
17, 208161, Note_off_c, 5, 71, 64
17, 208173, Note_on_c, 5, 69, 64
17, 208221, Note_off_c, 5, 69, 64
17, 208231, Note_on_c, 5, 71, 64
17, 208269, Note_off_c, 5, 71, 64
17, 208296, Note_on_c, 5, 72, 85
17, 208347, Note_on_c, 5, 69, 70
17, 208352, Note_off_c, 5, 72, 64
17, 208382, Note_off_c, 5, 69, 64
17, 208409, Note_on_c, 5, 62, 82
17, 208466, Note_off_c, 5, 62, 64
17, 208469, Note_on_c, 5, 64, 64
17, 208511, Note_off_c, 5, 64, 64
17, 208531, Note_on_c, 5, 66, 85
17, 208583, Note_off_c, 5, 66, 64
17, 208587, Note_on_c, 5, 67, 72
17, 208631, Note_off_c, 5, 67, 64
17, 208650, Note_on_c, 5, 66, 89
17, 208697, Note_off_c, 5, 66, 64
17, 208710, Note_on_c, 5, 67, 72
17, 208755, Note_off_c, 5, 67, 64
17, 208780, Note_on_c, 5, 69, 95
17, 208835, Note_on_c, 5, 67, 72
17, 208838, Note_off_c, 5, 69, 64
17, 208888, Note_off_c, 5, 67, 64
17, 208900, Note_on_c, 5, 66, 70
17, 208956, Note_on_c, 5, 67, 68
17, 208958, Note_off_c, 5, 66, 64
17, 209007, Note_off_c, 5, 67, 64
17, 209031, Note_on_c, 5, 69, 98
17, 209081, Note_on_c, 5, 67, 70
17, 209092, Note_off_c, 5, 69, 64
17, 209141, Note_off_c, 5, 67, 64
17, 209146, Note_on_c, 5, 66, 85
17, 209200, Note_off_c, 5, 66, 64
17, 209203, Note_on_c, 5, 64, 80
17, 209254, Note_off_c, 5, 64, 64
17, 209266, Note_on_c, 5, 62, 78
17, 209334, Note_off_c, 5, 62, 64
17, 209396, Note_on_c, 5, 71, 87
17, 209441, Note_off_c, 5, 71, 64
17, 209515, Note_on_c, 5, 64, 87
17, 209564, Note_off_c, 5, 64, 64
17, 209631, Note_on_c, 5, 68, 87
17, 209806, Note_off_c, 5, 68, 64
17, 209873, Note_on_c, 5, 71, 85
17, 209936, Note_off_c, 5, 71, 64
17, 209991, Note_on_c, 5, 62, 82
17, 210040, Note_off_c, 5, 62, 64
17, 210107, Note_on_c, 5, 68, 91
17, 210283, Note_off_c, 5, 68, 64
17, 210353, Note_on_c, 5, 71, 82
17, 210399, Note_off_c, 5, 71, 64
17, 210463, Note_on_c, 5, 64, 80
17, 210524, Note_off_c, 5, 64, 64
17, 210580, Note_on_c, 5, 68, 78
17, 210614, Note_off_c, 5, 68, 64
17, 210708, Note_on_c, 5, 69, 76
17, 210762, Note_on_c, 5, 81, 85
17, 210767, Note_off_c, 5, 69, 64
17, 210805, Note_off_c, 5, 81, 64
17, 210828, Note_on_c, 5, 73, 74
17, 210887, Note_on_c, 5, 74, 80
17, 210896, Note_off_c, 5, 73, 64
17, 210929, Note_off_c, 5, 74, 64
17, 210949, Note_on_c, 5, 76, 82
17, 211007, Note_on_c, 5, 78, 82
17, 211018, Note_off_c, 5, 76, 64
17, 211053, Note_off_c, 5, 78, 64
17, 211066, Note_on_c, 5, 76, 78
17, 211118, Note_on_c, 5, 78, 70
17, 211138, Note_off_c, 5, 76, 64
17, 211162, Note_off_c, 5, 78, 64
17, 211182, Note_on_c, 5, 79, 91
17, 211238, Note_on_c, 5, 76, 78
17, 211244, Note_off_c, 5, 79, 64
17, 211284, Note_off_c, 5, 76, 64
17, 211302, Note_on_c, 5, 69, 59
17, 211357, Note_on_c, 5, 71, 78
17, 211365, Note_off_c, 5, 69, 64
17, 211408, Note_off_c, 5, 71, 64
17, 211421, Note_on_c, 5, 73, 82
17, 211472, Note_on_c, 5, 74, 78
17, 211480, Note_off_c, 5, 73, 64
17, 211530, Note_off_c, 5, 74, 64
17, 211532, Note_on_c, 5, 73, 87
17, 211590, Note_on_c, 5, 74, 78
17, 211595, Note_off_c, 5, 73, 64
17, 211632, Note_off_c, 5, 74, 64
17, 211653, Note_on_c, 5, 76, 100
17, 211710, Note_on_c, 5, 74, 74
17, 211715, Note_off_c, 5, 76, 64
17, 211765, Note_off_c, 5, 74, 64
17, 211780, Note_on_c, 5, 73, 70
17, 211834, Note_on_c, 5, 74, 76
17, 211841, Note_off_c, 5, 73, 64
17, 211885, Note_off_c, 5, 74, 64
17, 211903, Note_on_c, 5, 76, 93
17, 211958, Note_on_c, 5, 74, 78
17, 211965, Note_off_c, 5, 76, 64
17, 212021, Note_on_c, 5, 73, 82
17, 212024, Note_off_c, 5, 74, 64
17, 212074, Note_on_c, 5, 71, 82
17, 212077, Note_off_c, 5, 73, 64
17, 212131, Note_off_c, 5, 71, 64
17, 212143, Note_on_c, 5, 69, 78
17, 212204, Note_off_c, 5, 69, 64
17, 212264, Note_on_c, 5, 66, 76
17, 212303, Note_off_c, 5, 66, 64
17, 212387, Note_on_c, 5, 71, 85
17, 212666, Note_off_c, 5, 71, 64
17, 212747, Note_on_c, 5, 70, 64
17, 212796, Note_off_c, 5, 70, 64
17, 212802, Note_on_c, 5, 71, 80
17, 212849, Note_off_c, 5, 71, 64
17, 212868, Note_on_c, 5, 73, 76
17, 212918, Note_on_c, 5, 71, 63
17, 212920, Note_off_c, 5, 73, 64
17, 212979, Note_on_c, 5, 70, 64
17, 212981, Note_off_c, 5, 71, 64
17, 213034, Note_off_c, 5, 70, 64
17, 213041, Note_on_c, 5, 68, 78
17, 213073, Note_off_c, 5, 68, 64
17, 213103, Note_on_c, 5, 66, 68
17, 213161, Note_on_c, 5, 78, 76
17, 213163, Note_off_c, 5, 66, 64
17, 213209, Note_off_c, 5, 78, 64
17, 213232, Note_on_c, 5, 71, 78
17, 213288, Note_off_c, 5, 71, 64
17, 213291, Note_on_c, 5, 73, 66
17, 213344, Note_off_c, 5, 73, 64
17, 213350, Note_on_c, 5, 74, 80
17, 213404, Note_off_c, 5, 74, 64
17, 213407, Note_on_c, 5, 76, 64
17, 213450, Note_off_c, 5, 76, 64
17, 213471, Note_on_c, 5, 74, 82
17, 213530, Note_off_c, 5, 74, 64
17, 213530, Note_on_c, 5, 76, 68
17, 213576, Note_off_c, 5, 76, 64
17, 213596, Note_on_c, 5, 78, 98
17, 213656, Note_on_c, 5, 81, 87
17, 213657, Note_off_c, 5, 78, 64
17, 213699, Note_off_c, 5, 81, 64
17, 213709, Note_on_c, 5, 74, 85
17, 213760, Note_off_c, 5, 74, 64
17, 213763, Note_on_c, 5, 76, 76
17, 213807, Note_off_c, 5, 76, 64
17, 213824, Note_on_c, 5, 78, 85
17, 213875, Note_on_c, 5, 79, 80
17, 213883, Note_off_c, 5, 78, 64
17, 213920, Note_off_c, 5, 79, 64
17, 213933, Note_on_c, 5, 78, 60
17, 213985, Note_off_c, 5, 78, 64
17, 213991, Note_on_c, 5, 79, 82
17, 214040, Note_off_c, 5, 79, 64
17, 214062, Note_on_c, 5, 81, 95
17, 214159, Note_off_c, 5, 81, 64
17, 214188, Note_on_c, 5, 79, 82
17, 214274, Note_off_c, 5, 79, 64
17, 214304, Note_on_c, 5, 78, 80
17, 214391, Note_off_c, 5, 78, 64
17, 214418, Note_on_c, 5, 76, 80
17, 214498, Note_off_c, 5, 76, 64
17, 214547, Note_on_c, 5, 74, 87
17, 214600, Note_off_c, 5, 74, 64
17, 214665, Note_on_c, 5, 71, 76
17, 214715, Note_off_c, 5, 71, 64
17, 214784, Note_on_c, 5, 76, 85
17, 215059, Note_off_c, 5, 76, 64
17, 215138, Note_on_c, 5, 69, 82
17, 215182, Note_off_c, 5, 69, 64
17, 215262, Note_on_c, 5, 74, 87
17, 215555, Note_off_c, 5, 74, 64
17, 215630, Note_on_c, 5, 73, 82
17, 215686, Note_off_c, 5, 73, 64
17, 215744, Note_on_c, 5, 74, 89
17, 215792, Note_off_c, 5, 74, 64
17, 215801, Note_on_c, 5, 73, 82
17, 215847, Note_off_c, 5, 73, 64
17, 215860, Note_on_c, 5, 71, 85
17, 215905, Note_off_c, 5, 71, 64
17, 215913, Note_on_c, 5, 74, 87
17, 215960, Note_off_c, 5, 74, 64
17, 215980, Note_on_c, 5, 73, 98
17, 216032, Note_off_c, 5, 73, 64
17, 216097, Note_on_c, 5, 76, 89
17, 216134, Note_off_c, 5, 76, 64
17, 216219, Note_on_c, 5, 69, 85
17, 216269, Note_off_c, 5, 69, 64
17, 216342, Note_on_c, 5, 73, 85
17, 216506, Note_off_c, 5, 73, 64
17, 216585, Note_on_c, 5, 76, 87
17, 216627, Note_off_c, 5, 76, 64
17, 216705, Note_on_c, 5, 67, 80
17, 216752, Note_off_c, 5, 67, 64
17, 216829, Note_on_c, 5, 73, 98
17, 217010, Note_off_c, 5, 73, 64
17, 217076, Note_on_c, 5, 76, 93
17, 217118, Note_off_c, 5, 76, 64
17, 217191, Note_on_c, 5, 69, 85
17, 217247, Note_off_c, 5, 69, 64
17, 217308, Note_on_c, 5, 73, 78
17, 217364, Note_off_c, 5, 73, 64
17, 217426, Note_on_c, 5, 74, 87
17, 217472, Note_off_c, 5, 74, 64
17, 217549, Note_on_c, 5, 69, 85
17, 217592, Note_off_c, 5, 69, 64
17, 217673, Note_on_c, 5, 74, 87
17, 217948, Note_off_c, 5, 74, 64
17, 218028, Note_on_c, 5, 73, 85
17, 218079, Note_off_c, 5, 73, 64
17, 218142, Note_on_c, 5, 76, 89
17, 218198, Note_off_c, 5, 76, 64
17, 218264, Note_on_c, 5, 73, 66
17, 218326, Note_off_c, 5, 73, 64
17, 218382, Note_on_c, 5, 74, 89
17, 218448, Note_off_c, 5, 74, 64
17, 218500, Note_on_c, 5, 69, 80
17, 218559, Note_off_c, 5, 69, 64
17, 218620, Note_on_c, 5, 62, 70
17, 218680, Note_off_c, 5, 62, 64
17, 218744, Note_on_c, 5, 74, 91
17, 218790, Note_off_c, 5, 74, 64
17, 218868, Note_on_c, 5, 64, 85
17, 219130, Note_off_c, 5, 64, 64
17, 219225, Note_on_c, 5, 73, 80
17, 219273, Note_off_c, 5, 73, 64
17, 219342, Note_on_c, 5, 74, 85
17, 219397, Note_off_c, 5, 74, 64
17, 219460, Note_on_c, 5, 71, 82
17, 219514, Note_off_c, 5, 71, 64
17, 219583, Note_on_c, 5, 69, 82
17, 219637, Note_off_c, 5, 69, 64
17, 219708, Note_on_c, 5, 69, 95
17, 219779, Note_off_c, 5, 69, 64
17, 232322, Note_on_c, 5, 73, 102
17, 232364, Note_off_c, 5, 73, 64
17, 232373, Note_on_c, 5, 74, 78
17, 232418, Note_off_c, 5, 74, 64
17, 232439, Note_on_c, 5, 73, 82
17, 232482, Note_off_c, 5, 73, 64
17, 232494, Note_on_c, 5, 71, 82
17, 232538, Note_off_c, 5, 71, 64
17, 232557, Note_on_c, 5, 69, 98
17, 232605, Note_off_c, 5, 69, 64
17, 232617, Note_on_c, 5, 71, 87
17, 232663, Note_off_c, 5, 71, 64
17, 232679, Note_on_c, 5, 73, 93
17, 232719, Note_off_c, 5, 73, 64
17, 232733, Note_on_c, 5, 74, 85
17, 232781, Note_off_c, 5, 74, 64
17, 232797, Note_on_c, 5, 76, 85
17, 232845, Note_off_c, 5, 76, 64
17, 232856, Note_on_c, 5, 78, 80
17, 232895, Note_off_c, 5, 78, 64
17, 232912, Note_on_c, 5, 79, 89
17, 232952, Note_off_c, 5, 79, 64
17, 232970, Note_on_c, 5, 81, 93
17, 233005, Note_off_c, 5, 81, 64
17, 233030, Note_on_c, 5, 79, 95
17, 233071, Note_off_c, 5, 79, 64
17, 233087, Note_on_c, 5, 78, 102
17, 233121, Note_off_c, 5, 78, 64
17, 233145, Note_on_c, 5, 79, 87
17, 233181, Note_off_c, 5, 79, 64
17, 233203, Note_on_c, 5, 76, 91
17, 233234, Note_off_c, 5, 76, 64
17, 233266, Note_on_c, 5, 78, 102
17, 233395, Note_off_c, 5, 78, 64
17, 233423, Note_on_c, 5, 76, 68
17, 233450, Note_on_c, 5, 74, 78
17, 233451, Note_off_c, 5, 76, 64
17, 233479, Note_off_c, 5, 74, 64
17, 233482, Note_on_c, 5, 73, 85
17, 233501, Note_off_c, 5, 73, 64
17, 233512, Note_on_c, 5, 74, 102
17, 233592, Note_off_c, 5, 74, 64
17, 233680, Note_on_c, 5, 71, 98
17, 233711, Note_off_c, 5, 71, 64
17, 233745, Note_on_c, 5, 74, 102
17, 233816, Note_on_c, 5, 73, 80
17, 233818, Note_off_c, 5, 74, 64
17, 233843, Note_off_c, 5, 73, 64
17, 233845, Note_on_c, 5, 74, 85
17, 233870, Note_off_c, 5, 74, 64
17, 233871, Note_on_c, 5, 73, 72
17, 233892, Note_on_c, 5, 74, 82
17, 233894, Note_off_c, 5, 73, 64
17, 233910, Note_off_c, 5, 74, 64
17, 233910, Note_on_c, 5, 73, 66
17, 233930, Note_on_c, 5, 74, 87
17, 233934, Note_off_c, 5, 73, 64
17, 233956, Note_off_c, 5, 74, 64
17, 233956, Note_on_c, 5, 73, 87
17, 234088, Note_off_c, 5, 73, 64
17, 234160, Note_on_c, 5, 74, 98
17, 234187, Note_off_c, 5, 74, 64
17, 234230, Note_on_c, 5, 74, 110
17, 234740, Note_off_c, 5, 74, 64
17, 234740, End_track
18, 0, Start_track
18, 0, Title_t, "Violin"
18, 0, Program_c, 6, 40
18, 0, Control_c, 6, 7, 100
18, 17576, Note_on_c, 6, 73, 93
18, 17616, Note_off_c, 6, 73, 64
18, 17634, Note_on_c, 6, 71, 98
18, 17675, Note_off_c, 6, 71, 64
18, 17692, Note_on_c, 6, 69, 85
18, 17741, Note_off_c, 6, 69, 64
18, 17761, Note_on_c, 6, 79, 100
18, 17841, Note_off_c, 6, 79, 64
18, 17937, Note_on_c, 6, 76, 91
18, 17978, Note_off_c, 6, 76, 64
18, 17998, Note_on_c, 6, 78, 105
18, 18083, Note_off_c, 6, 78, 64
18, 18166, Note_on_c, 6, 79, 91
18, 18203, Note_off_c, 6, 79, 64
18, 18230, Note_on_c, 6, 81, 105
18, 18588, Note_off_c, 6, 81, 64
18, 18652, Note_on_c, 6, 72, 98
18, 18687, Note_off_c, 6, 72, 64
18, 18709, Note_on_c, 6, 74, 87
18, 18747, Note_on_c, 6, 72, 80
18, 18755, Note_off_c, 6, 74, 64
18, 18770, Note_off_c, 6, 72, 64
18, 18773, Note_on_c, 6, 74, 74
18, 18794, Note_on_c, 6, 72, 78
18, 18799, Note_off_c, 6, 74, 64
18, 18819, Note_on_c, 6, 74, 66
18, 18820, Note_off_c, 6, 72, 64
18, 18831, Note_off_c, 6, 74, 64
18, 18831, Note_on_c, 6, 72, 49
18, 18842, Note_on_c, 6, 74, 76
18, 18843, Note_off_c, 6, 72, 64
18, 18858, Note_on_c, 6, 72, 89
18, 18876, Note_off_c, 6, 74, 64
18, 18888, Note_on_c, 6, 71, 87
18, 18892, Note_off_c, 6, 72, 64
18, 18911, Note_on_c, 6, 72, 82
18, 18923, Note_off_c, 6, 71, 64
18, 18945, Note_on_c, 6, 74, 102
18, 18946, Note_off_c, 6, 72, 64
18, 19044, Note_off_c, 6, 74, 64
18, 19126, Note_on_c, 6, 69, 91
18, 19162, Note_off_c, 6, 69, 64
18, 19193, Note_on_c, 6, 71, 100
18, 19464, Note_off_c, 6, 71, 64
18, 19486, Note_on_c, 6, 69, 100
18, 19530, Note_off_c, 6, 69, 64
18, 19539, Note_on_c, 6, 67, 82
18, 19576, Note_off_c, 6, 67, 64
18, 19594, Note_on_c, 6, 66, 100
18, 19641, Note_off_c, 6, 66, 64
18, 19659, Note_on_c, 6, 64, 89
18, 19706, Note_off_c, 6, 64, 64
18, 19723, Note_on_c, 6, 66, 98
18, 19768, Note_off_c, 6, 66, 64
18, 19781, Note_on_c, 6, 67, 89
18, 19830, Note_off_c, 6, 67, 64
18, 19840, Note_on_c, 6, 69, 87
18, 19887, Note_off_c, 6, 69, 64
18, 19900, Note_on_c, 6, 71, 85
18, 19956, Note_off_c, 6, 71, 64
18, 19962, Note_on_c, 6, 73, 66
18, 20007, Note_off_c, 6, 73, 64
18, 20021, Note_on_c, 6, 74, 93
18, 20071, Note_off_c, 6, 74, 64
18, 20076, Note_on_c, 6, 71, 82
18, 20125, Note_off_c, 6, 71, 64
18, 20140, Note_on_c, 6, 73, 102
18, 20195, Note_off_c, 6, 73, 64
18, 20198, Note_on_c, 6, 74, 91
18, 20246, Note_off_c, 6, 74, 64
18, 20258, Note_on_c, 6, 73, 105
18, 20304, Note_off_c, 6, 73, 64
18, 20314, Note_on_c, 6, 71, 89
18, 20359, Note_off_c, 6, 71, 64
18, 20375, Note_on_c, 6, 69, 102
18, 20428, Note_off_c, 6, 69, 64
18, 20437, Note_on_c, 6, 71, 102
18, 20485, Note_off_c, 6, 71, 64
18, 20497, Note_on_c, 6, 73, 100
18, 20542, Note_off_c, 6, 73, 64
18, 20555, Note_on_c, 6, 74, 100
18, 20602, Note_off_c, 6, 74, 64
18, 20615, Note_on_c, 6, 76, 105
18, 20674, Note_off_c, 6, 76, 64
18, 20678, Note_on_c, 6, 78, 98
18, 20723, Note_off_c, 6, 78, 64
18, 20734, Note_on_c, 6, 79, 100
18, 20788, Note_off_c, 6, 79, 64
18, 20796, Note_on_c, 6, 81, 102
18, 20841, Note_off_c, 6, 81, 64
18, 20858, Note_on_c, 6, 79, 105
18, 20915, Note_off_c, 6, 79, 64
18, 20918, Note_on_c, 6, 78, 113
18, 20962, Note_off_c, 6, 78, 64
18, 20973, Note_on_c, 6, 79, 95
18, 21021, Note_off_c, 6, 79, 64
18, 21033, Note_on_c, 6, 76, 102
18, 21087, Note_off_c, 6, 76, 64
18, 21098, Note_on_c, 6, 78, 102
18, 21210, Note_off_c, 6, 78, 64
18, 21285, Note_on_c, 6, 79, 91
18, 21331, Note_off_c, 6, 79, 64
18, 21344, Note_on_c, 6, 81, 98
18, 21447, Note_off_c, 6, 81, 64
18, 21523, Note_on_c, 6, 83, 85
18, 21565, Note_off_c, 6, 83, 64
18, 21596, Note_on_c, 6, 73, 87
18, 21702, Note_off_c, 6, 73, 64
18, 21759, Note_on_c, 6, 74, 89
18, 21809, Note_off_c, 6, 74, 64
18, 21829, Note_on_c, 6, 76, 82
18, 21867, Note_on_c, 6, 74, 82
18, 21875, Note_off_c, 6, 76, 64
18, 21888, Note_off_c, 6, 74, 64
18, 21892, Note_on_c, 6, 76, 70
18, 21914, Note_on_c, 6, 74, 78
18, 21917, Note_off_c, 6, 76, 64
18, 21936, Note_on_c, 6, 76, 70
18, 21939, Note_off_c, 6, 74, 64
18, 21947, Note_on_c, 6, 74, 48
18, 21954, Note_off_c, 6, 76, 64
18, 21965, Note_on_c, 6, 76, 78
18, 21966, Note_off_c, 6, 74, 64
18, 21966, Note_on_c, 6, 77, 72
18, 21976, Note_off_c, 6, 77, 64
18, 21980, Note_on_c, 6, 74, 80
18, 21990, Note_off_c, 6, 76, 64
18, 22008, Note_off_c, 6, 74, 64
18, 22008, Note_on_c, 6, 73, 76
18, 22030, Note_on_c, 6, 74, 70
18, 22036, Note_off_c, 6, 73, 64
18, 22068, Note_on_c, 6, 76, 87
18, 22070, Note_off_c, 6, 74, 64
18, 22174, Note_off_c, 6, 76, 64
18, 22234, Note_on_c, 6, 69, 70
18, 22279, Note_off_c, 6, 69, 64
18, 22302, Note_on_c, 6, 79, 95
18, 22391, Note_off_c, 6, 79, 64
18, 22447, Note_on_c, 6, 78, 85
18, 22473, Note_on_c, 6, 76, 82
18, 22483, Note_off_c, 6, 78, 64
18, 22504, Note_on_c, 6, 78, 87
18, 22520, Note_off_c, 6, 76, 64
18, 22544, Note_off_c, 6, 78, 64
18, 22547, Note_on_c, 6, 79, 87
18, 22609, Note_on_c, 6, 78, 91
18, 22617, Note_off_c, 6, 79, 64
18, 22637, Note_off_c, 6, 78, 64
18, 22639, Note_on_c, 6, 79, 82
18, 22664, Note_on_c, 6, 78, 72
18, 22666, Note_off_c, 6, 79, 64
18, 22681, Note_off_c, 6, 78, 64
18, 22684, Note_on_c, 6, 79, 85
18, 22706, Note_on_c, 6, 78, 80
18, 22710, Note_off_c, 6, 79, 64
18, 22726, Note_on_c, 6, 79, 76
18, 22729, Note_off_c, 6, 78, 64
18, 22744, Note_on_c, 6, 78, 68
18, 22749, Note_off_c, 6, 79, 64
18, 22764, Note_on_c, 6, 79, 80
18, 22768, Note_off_c, 6, 78, 64
18, 22785, Note_on_c, 6, 78, 85
18, 22796, Note_off_c, 6, 79, 64
18, 22889, Note_off_c, 6, 78, 64
18, 22962, Note_on_c, 6, 76, 102
18, 22992, Note_off_c, 6, 76, 64
18, 23022, Note_on_c, 6, 76, 102
18, 23785, Note_off_c, 6, 76, 64
18, 40617, Note_on_c, 6, 73, 102
18, 40657, Note_off_c, 6, 73, 64
18, 40675, Note_on_c, 6, 71, 98
18, 40713, Note_off_c, 6, 71, 64
18, 40731, Note_on_c, 6, 69, 89
18, 40783, Note_off_c, 6, 69, 64
18, 40801, Note_on_c, 6, 79, 100
18, 40891, Note_off_c, 6, 79, 64
18, 40979, Note_on_c, 6, 76, 93
18, 41024, Note_off_c, 6, 76, 64
18, 41043, Note_on_c, 6, 78, 107
18, 41119, Note_off_c, 6, 78, 64
18, 41225, Note_on_c, 6, 79, 107
18, 41257, Note_off_c, 6, 79, 64
18, 41288, Note_on_c, 6, 81, 100
18, 41637, Note_off_c, 6, 81, 64
18, 41698, Note_on_c, 6, 72, 82
18, 41733, Note_off_c, 6, 72, 64
18, 41760, Note_on_c, 6, 74, 89
18, 41808, Note_on_c, 6, 72, 76
18, 41814, Note_off_c, 6, 74, 64
18, 41828, Note_off_c, 6, 72, 64
18, 41833, Note_on_c, 6, 74, 64
18, 41854, Note_off_c, 6, 74, 64
18, 41854, Note_on_c, 6, 72, 66
18, 41874, Note_off_c, 6, 72, 64
18, 41874, Note_on_c, 6, 74, 80
18, 41895, Note_on_c, 6, 72, 59
18, 41908, Note_off_c, 6, 74, 64
18, 41922, Note_on_c, 6, 71, 87
18, 41927, Note_off_c, 6, 72, 64
18, 41954, Note_on_c, 6, 72, 68
18, 41963, Note_off_c, 6, 71, 64
18, 41986, Note_off_c, 6, 72, 64
18, 41992, Note_on_c, 6, 74, 105
18, 42083, Note_off_c, 6, 74, 64
18, 42169, Note_on_c, 6, 69, 85
18, 42206, Note_off_c, 6, 69, 64
18, 42234, Note_on_c, 6, 71, 95
18, 42496, Note_off_c, 6, 71, 64
18, 42529, Note_on_c, 6, 69, 87
18, 42567, Note_off_c, 6, 69, 64
18, 42584, Note_on_c, 6, 67, 89
18, 42619, Note_off_c, 6, 67, 64
18, 42639, Note_on_c, 6, 66, 95
18, 42692, Note_off_c, 6, 66, 64
18, 42703, Note_on_c, 6, 64, 100
18, 42753, Note_off_c, 6, 64, 64
18, 42766, Note_on_c, 6, 66, 98
18, 42809, Note_off_c, 6, 66, 64
18, 42825, Note_on_c, 6, 67, 89
18, 42875, Note_off_c, 6, 67, 64
18, 42886, Note_on_c, 6, 69, 82
18, 42935, Note_off_c, 6, 69, 64
18, 42946, Note_on_c, 6, 71, 91
18, 43003, Note_off_c, 6, 71, 64
18, 43003, Note_on_c, 6, 73, 82
18, 43051, Note_off_c, 6, 73, 64
18, 43065, Note_on_c, 6, 74, 100
18, 43116, Note_off_c, 6, 74, 64
18, 43120, Note_on_c, 6, 71, 82
18, 43166, Note_off_c, 6, 71, 64
18, 43182, Note_on_c, 6, 73, 102
18, 43234, Note_off_c, 6, 73, 64
18, 43244, Note_on_c, 6, 74, 91
18, 43290, Note_off_c, 6, 74, 64
18, 43301, Note_on_c, 6, 73, 89
18, 43348, Note_off_c, 6, 73, 64
18, 43361, Note_on_c, 6, 71, 98
18, 43405, Note_off_c, 6, 71, 64
18, 43418, Note_on_c, 6, 69, 102
18, 43479, Note_on_c, 6, 71, 87
18, 43486, Note_off_c, 6, 69, 64
18, 43531, Note_off_c, 6, 71, 64
18, 43539, Note_on_c, 6, 73, 89
18, 43585, Note_off_c, 6, 73, 64
18, 43596, Note_on_c, 6, 74, 95
18, 43648, Note_off_c, 6, 74, 64
18, 43656, Note_on_c, 6, 76, 95
18, 43711, Note_off_c, 6, 76, 64
18, 43715, Note_on_c, 6, 78, 87
18, 43761, Note_off_c, 6, 78, 64
18, 43773, Note_on_c, 6, 79, 95
18, 43821, Note_off_c, 6, 79, 64
18, 43834, Note_on_c, 6, 81, 98
18, 43876, Note_off_c, 6, 81, 64
18, 43891, Note_on_c, 6, 79, 98
18, 43945, Note_off_c, 6, 79, 64
18, 43952, Note_on_c, 6, 78, 105
18, 43992, Note_off_c, 6, 78, 64
18, 44008, Note_on_c, 6, 79, 89
18, 44054, Note_off_c, 6, 79, 64
18, 44068, Note_on_c, 6, 76, 93
18, 44115, Note_off_c, 6, 76, 64
18, 44135, Note_on_c, 6, 78, 100
18, 44247, Note_off_c, 6, 78, 64
18, 44310, Note_on_c, 6, 79, 87
18, 44355, Note_off_c, 6, 79, 64
18, 44372, Note_on_c, 6, 81, 91
18, 44460, Note_off_c, 6, 81, 64
18, 44549, Note_on_c, 6, 83, 87
18, 44591, Note_off_c, 6, 83, 64
18, 44619, Note_on_c, 6, 73, 82
18, 44721, Note_off_c, 6, 73, 64
18, 44792, Note_on_c, 6, 74, 82
18, 44836, Note_off_c, 6, 74, 64
18, 44857, Note_on_c, 6, 76, 87
18, 44913, Note_on_c, 6, 74, 82
18, 44917, Note_off_c, 6, 76, 64
18, 44933, Note_off_c, 6, 74, 64
18, 44938, Note_on_c, 6, 76, 68
18, 44957, Note_on_c, 6, 74, 80
18, 44958, Note_off_c, 6, 76, 64
18, 44978, Note_off_c, 6, 74, 64
18, 44978, Note_on_c, 6, 76, 70
18, 45004, Note_on_c, 6, 74, 47
18, 45007, Note_off_c, 6, 76, 64
18, 45028, Note_off_c, 6, 74, 64
18, 45029, Note_on_c, 6, 73, 63
18, 45058, Note_on_c, 6, 74, 80
18, 45065, Note_off_c, 6, 73, 64
18, 45092, Note_off_c, 6, 74, 64
18, 45104, Note_on_c, 6, 76, 82
18, 45206, Note_off_c, 6, 76, 64
18, 45281, Note_on_c, 6, 69, 74
18, 45323, Note_off_c, 6, 69, 64
18, 45354, Note_on_c, 6, 79, 100
18, 45434, Note_off_c, 6, 79, 64
18, 45497, Note_on_c, 6, 78, 70
18, 45521, Note_on_c, 6, 76, 78
18, 45528, Note_off_c, 6, 78, 64
18, 45554, Note_on_c, 6, 78, 89
18, 45571, Note_off_c, 6, 76, 64
18, 45584, Note_off_c, 6, 78, 64
18, 45597, Note_on_c, 6, 79, 100
18, 45658, Note_on_c, 6, 78, 82
18, 45662, Note_off_c, 6, 79, 64
18, 45675, Note_off_c, 6, 78, 64
18, 45679, Note_on_c, 6, 79, 66
18, 45701, Note_off_c, 6, 79, 64
18, 45701, Note_on_c, 6, 78, 66
18, 45716, Note_off_c, 6, 78, 64
18, 45722, Note_on_c, 6, 79, 66
18, 45736, Note_off_c, 6, 79, 64
18, 45738, Note_on_c, 6, 78, 56
18, 45755, Note_off_c, 6, 78, 64
18, 45757, Note_on_c, 6, 79, 66
18, 45776, Note_off_c, 6, 79, 64
18, 45776, Note_on_c, 6, 78, 70
18, 45795, Note_on_c, 6, 79, 70
18, 45799, Note_off_c, 6, 78, 64
18, 45812, Note_on_c, 6, 78, 60
18, 45813, Note_off_c, 6, 79, 64
18, 45829, Note_off_c, 6, 78, 64
18, 45829, Note_on_c, 6, 79, 60
18, 45846, Note_on_c, 6, 78, 87
18, 45854, Note_off_c, 6, 79, 64
18, 45936, Note_off_c, 6, 78, 64
18, 46003, Note_on_c, 6, 76, 89
18, 46046, Note_off_c, 6, 76, 64
18, 46091, Note_on_c, 6, 76, 102
18, 46162, Note_off_c, 6, 76, 64
18, 63413, Note_on_c, 6, 69, 72
18, 63465, Note_on_c, 6, 66, 63
18, 63478, Note_off_c, 6, 69, 64
18, 63530, Note_off_c, 6, 66, 64
18, 63530, Note_on_c, 6, 69, 68
18, 63572, Note_off_c, 6, 69, 64
18, 63595, Note_on_c, 6, 62, 82
18, 63646, Note_on_c, 6, 66, 62
18, 63659, Note_off_c, 6, 62, 64
18, 63693, Note_off_c, 6, 66, 64
18, 63704, Note_on_c, 6, 64, 80
18, 63758, Note_on_c, 6, 67, 70
18, 63775, Note_off_c, 6, 64, 64
18, 63796, Note_off_c, 6, 67, 64
18, 63824, Note_on_c, 6, 66, 91
18, 63876, Note_on_c, 6, 69, 66
18, 63891, Note_off_c, 6, 66, 64
18, 63935, Note_off_c, 6, 69, 64
18, 63944, Note_on_c, 6, 74, 68
18, 63996, Note_on_c, 6, 66, 61
18, 63999, Note_off_c, 6, 74, 64
18, 64035, Note_off_c, 6, 66, 64
18, 64050, Note_on_c, 6, 64, 82
18, 64111, Note_on_c, 6, 74, 80
18, 64118, Note_off_c, 6, 64, 64
18, 64155, Note_off_c, 6, 74, 64
18, 64175, Note_on_c, 6, 64, 80
18, 64232, Note_on_c, 6, 73, 68
18, 64233, Note_off_c, 6, 64, 64
18, 64283, Note_off_c, 6, 73, 64
18, 64299, Note_on_c, 6, 74, 95
18, 64351, Note_off_c, 6, 74, 64
18, 64353, Note_on_c, 6, 69, 82
18, 64416, Note_on_c, 6, 74, 72
18, 64420, Note_off_c, 6, 69, 64
18, 64470, Note_off_c, 6, 74, 64
18, 64477, Note_on_c, 6, 76, 66
18, 64510, Note_off_c, 6, 76, 64
18, 64543, Note_on_c, 6, 78, 100
18, 64599, Note_on_c, 6, 81, 80
18, 64601, Note_off_c, 6, 78, 64
18, 64636, Note_off_c, 6, 81, 64
18, 64656, Note_on_c, 6, 80, 91
18, 64711, Note_on_c, 6, 83, 80
18, 64719, Note_off_c, 6, 80, 64
18, 64742, Note_off_c, 6, 83, 64
18, 64781, Note_on_c, 6, 81, 98
18, 64832, Note_on_c, 6, 76, 74
18, 64843, Note_off_c, 6, 81, 64
18, 64891, Note_on_c, 6, 73, 74
18, 64896, Note_off_c, 6, 76, 64
18, 64950, Note_off_c, 6, 73, 64
18, 64952, Note_on_c, 6, 81, 80
18, 64990, Note_off_c, 6, 81, 64
18, 65008, Note_on_c, 6, 71, 82
18, 65062, Note_on_c, 6, 81, 80
18, 65066, Note_off_c, 6, 71, 64
18, 65105, Note_off_c, 6, 81, 64
18, 65125, Note_on_c, 6, 71, 78
18, 65179, Note_on_c, 6, 80, 76
18, 65182, Note_off_c, 6, 71, 64
18, 65222, Note_off_c, 6, 80, 64
18, 65246, Note_on_c, 6, 81, 87
18, 65300, Note_on_c, 6, 76, 64
18, 65303, Note_off_c, 6, 81, 64
18, 65346, Note_off_c, 6, 76, 64
18, 65361, Note_on_c, 6, 73, 64
18, 65426, Note_on_c, 6, 74, 78
18, 65431, Note_off_c, 6, 73, 64
18, 65478, Note_off_c, 6, 74, 64
18, 65491, Note_on_c, 6, 76, 82
18, 65547, Note_on_c, 6, 78, 62
18, 65557, Note_off_c, 6, 76, 64
18, 65606, Note_off_c, 6, 78, 64
18, 65606, Note_on_c, 6, 76, 68
18, 65670, Note_on_c, 6, 78, 60
18, 65680, Note_off_c, 6, 76, 64
18, 65710, Note_off_c, 6, 78, 64
18, 65733, Note_on_c, 6, 79, 93
18, 65785, Note_on_c, 6, 76, 78
18, 65792, Note_off_c, 6, 79, 64
18, 65830, Note_off_c, 6, 76, 64
18, 65844, Note_on_c, 6, 69, 60
18, 65902, Note_on_c, 6, 71, 63
18, 65916, Note_off_c, 6, 69, 64
18, 65961, Note_off_c, 6, 71, 64
18, 65966, Note_on_c, 6, 73, 57
18, 66023, Note_on_c, 6, 74, 70
18, 66029, Note_off_c, 6, 73, 64
18, 66075, Note_off_c, 6, 74, 64
18, 66085, Note_on_c, 6, 73, 60
18, 66141, Note_on_c, 6, 74, 68
18, 66155, Note_off_c, 6, 73, 64
18, 66187, Note_off_c, 6, 74, 64
18, 66212, Note_on_c, 6, 76, 100
18, 66268, Note_on_c, 6, 74, 76
18, 66282, Note_off_c, 6, 76, 64
18, 66332, Note_off_c, 6, 74, 64
18, 66332, Note_on_c, 6, 73, 49
18, 66389, Note_on_c, 6, 74, 64
18, 66403, Note_off_c, 6, 73, 64
18, 66437, Note_off_c, 6, 74, 64
18, 66451, Note_on_c, 6, 76, 87
18, 66507, Note_on_c, 6, 74, 66
18, 66526, Note_off_c, 6, 76, 64
18, 66563, Note_on_c, 6, 73, 52
18, 66579, Note_off_c, 6, 74, 64
18, 66626, Note_on_c, 6, 71, 62
18, 66628, Note_off_c, 6, 73, 64
18, 66680, Note_off_c, 6, 71, 64
18, 66691, Note_on_c, 6, 70, 64
18, 66737, Note_off_c, 6, 70, 64
18, 66753, Note_on_c, 6, 76, 62
18, 66803, Note_on_c, 6, 78, 64
18, 66822, Note_off_c, 6, 76, 64
18, 66866, Note_on_c, 6, 79, 85
18, 66885, Note_off_c, 6, 78, 64
18, 66915, Note_off_c, 6, 79, 64
18, 66929, Note_on_c, 6, 78, 78
18, 66986, Note_on_c, 6, 76, 66
18, 67005, Note_off_c, 6, 78, 64
18, 67044, Note_off_c, 6, 76, 64
18, 67047, Note_on_c, 6, 74, 55
18, 67110, Note_on_c, 6, 73, 47
18, 67112, Note_off_c, 6, 74, 64
18, 67156, Note_off_c, 6, 73, 64
18, 67173, Note_on_c, 6, 74, 91
18, 67231, Note_on_c, 6, 78, 54
18, 67240, Note_off_c, 6, 74, 64
18, 67287, Note_off_c, 6, 78, 64
18, 67293, Note_on_c, 6, 71, 68
18, 67352, Note_on_c, 6, 73, 62
18, 67369, Note_off_c, 6, 71, 64
18, 67412, Note_on_c, 6, 74, 68
18, 67417, Note_off_c, 6, 73, 64
18, 67469, Note_on_c, 6, 76, 70
18, 67475, Note_off_c, 6, 74, 64
18, 67508, Note_off_c, 6, 76, 64
18, 67527, Note_on_c, 6, 74, 80
18, 67582, Note_on_c, 6, 76, 68
18, 67596, Note_off_c, 6, 74, 64
18, 67631, Note_off_c, 6, 76, 64
18, 67650, Note_on_c, 6, 78, 102
18, 67707, Note_on_c, 6, 81, 80
18, 67719, Note_off_c, 6, 78, 64
18, 67774, Note_on_c, 6, 75, 62
18, 67778, Note_off_c, 6, 81, 64
18, 67831, Note_on_c, 6, 76, 66
18, 67834, Note_off_c, 6, 75, 64
18, 67878, Note_off_c, 6, 76, 64
18, 67894, Note_on_c, 6, 78, 91
18, 67952, Note_on_c, 6, 79, 78
18, 67960, Note_off_c, 6, 78, 64
18, 68010, Note_off_c, 6, 79, 64
18, 68013, Note_on_c, 6, 78, 55
18, 68067, Note_on_c, 6, 79, 63
18, 68069, Note_off_c, 6, 78, 64
18, 68114, Note_off_c, 6, 79, 64
18, 68133, Note_on_c, 6, 81, 95
18, 68192, Note_on_c, 6, 72, 60
18, 68204, Note_off_c, 6, 81, 64
18, 68239, Note_on_c, 6, 71, 55
18, 68242, Note_off_c, 6, 72, 64
18, 68309, Note_on_c, 6, 72, 63
18, 68314, Note_off_c, 6, 71, 64
18, 68348, Note_off_c, 6, 72, 64
18, 68371, Note_on_c, 6, 81, 100
18, 68424, Note_on_c, 6, 72, 80
18, 68441, Note_off_c, 6, 81, 64
18, 68485, Note_off_c, 6, 72, 64
18, 68486, Note_on_c, 6, 71, 64
18, 68543, Note_on_c, 6, 69, 56
18, 68552, Note_off_c, 6, 71, 64
18, 68588, Note_off_c, 6, 69, 64
18, 68612, Note_on_c, 6, 71, 87
18, 68668, Note_on_c, 6, 73, 57
18, 68676, Note_off_c, 6, 71, 64
18, 68734, Note_on_c, 6, 75, 63
18, 68744, Note_off_c, 6, 73, 64
18, 68780, Note_off_c, 6, 75, 64
18, 68789, Note_on_c, 6, 76, 78
18, 68848, Note_off_c, 6, 76, 64
18, 68856, Note_on_c, 6, 78, 60
18, 68912, Note_on_c, 6, 79, 82
18, 68926, Note_off_c, 6, 78, 64
18, 68963, Note_off_c, 6, 79, 64
18, 68976, Note_on_c, 6, 81, 85
18, 69031, Note_on_c, 6, 78, 60
18, 69033, Note_off_c, 6, 81, 64
18, 69075, Note_off_c, 6, 78, 64
18, 69097, Note_on_c, 6, 79, 95
18, 69147, Note_on_c, 6, 76, 66
18, 69160, Note_off_c, 6, 79, 64
18, 69200, Note_off_c, 6, 76, 64
18, 69205, Note_on_c, 6, 71, 64
18, 69267, Note_on_c, 6, 74, 60
18, 69271, Note_off_c, 6, 71, 64
18, 69318, Note_off_c, 6, 74, 64
18, 69330, Note_on_c, 6, 73, 70
18, 69380, Note_on_c, 6, 76, 64
18, 69386, Note_off_c, 6, 73, 64
18, 69427, Note_off_c, 6, 76, 64
18, 69440, Note_on_c, 6, 69, 60
18, 69497, Note_off_c, 6, 69, 64
18, 69500, Note_on_c, 6, 79, 85
18, 69536, Note_off_c, 6, 79, 64
18, 69567, Note_on_c, 6, 78, 105
18, 69624, Note_on_c, 6, 74, 82
18, 69640, Note_off_c, 6, 78, 64
18, 69673, Note_off_c, 6, 74, 64
18, 69677, Note_on_c, 6, 69, 56
18, 69738, Note_on_c, 6, 72, 64
18, 69745, Note_off_c, 6, 69, 64
18, 69786, Note_off_c, 6, 72, 64
18, 69811, Note_on_c, 6, 71, 89
18, 69864, Note_off_c, 6, 71, 64
18, 69868, Note_on_c, 6, 74, 70
18, 69929, Note_on_c, 6, 67, 49
18, 69933, Note_off_c, 6, 74, 64
18, 69983, Note_off_c, 6, 67, 64
18, 69985, Note_on_c, 6, 78, 72
18, 70021, Note_off_c, 6, 78, 64
18, 70065, Note_on_c, 6, 76, 102
18, 70119, Note_on_c, 6, 73, 61
18, 70135, Note_off_c, 6, 76, 64
18, 70179, Note_on_c, 6, 68, 57
18, 70184, Note_off_c, 6, 73, 64
18, 70231, Note_on_c, 6, 71, 80
18, 70235, Note_off_c, 6, 68, 64
18, 70286, Note_off_c, 6, 71, 64
18, 70302, Note_on_c, 6, 70, 87
18, 70357, Note_on_c, 6, 73, 60
18, 70358, Note_off_c, 6, 70, 64
18, 70416, Note_on_c, 6, 66, 80
18, 70435, Note_off_c, 6, 73, 64
18, 70467, Note_off_c, 6, 66, 64
18, 70471, Note_on_c, 6, 76, 82
18, 70511, Note_off_c, 6, 76, 64
18, 70542, Note_on_c, 6, 74, 91
18, 70596, Note_on_c, 6, 71, 70
18, 70618, Note_off_c, 6, 74, 64
18, 70657, Note_on_c, 6, 73, 60
18, 70665, Note_off_c, 6, 71, 64
18, 70707, Note_off_c, 6, 73, 64
18, 70716, Note_on_c, 6, 74, 82
18, 70761, Note_off_c, 6, 74, 64
18, 70778, Note_on_c, 6, 76, 89
18, 70832, Note_on_c, 6, 78, 74
18, 70852, Note_off_c, 6, 76, 64
18, 70894, Note_off_c, 6, 78, 64
18, 70900, Note_on_c, 6, 79, 66
18, 70952, Note_on_c, 6, 76, 61
18, 70954, Note_off_c, 6, 79, 64
18, 71000, Note_off_c, 6, 76, 64
18, 71023, Note_on_c, 6, 70, 70
18, 71076, Note_on_c, 6, 76, 64
18, 71088, Note_off_c, 6, 70, 64
18, 71139, Note_on_c, 6, 78, 57
18, 71142, Note_off_c, 6, 76, 64
18, 71199, Note_on_c, 6, 76, 66
18, 71207, Note_off_c, 6, 78, 64
18, 71263, Note_on_c, 6, 78, 59
18, 71272, Note_off_c, 6, 76, 64
18, 71319, Note_on_c, 6, 76, 63
18, 71328, Note_off_c, 6, 78, 64
18, 71382, Note_on_c, 6, 78, 56
18, 71385, Note_off_c, 6, 76, 64
18, 71442, Note_on_c, 6, 76, 70
18, 71451, Note_off_c, 6, 78, 64
18, 71492, Note_off_c, 6, 76, 64
18, 71508, Note_on_c, 6, 70, 74
18, 71570, Note_on_c, 6, 76, 60
18, 71579, Note_off_c, 6, 70, 64
18, 71620, Note_on_c, 6, 78, 57
18, 71623, Note_off_c, 6, 76, 64
18, 71688, Note_on_c, 6, 76, 66
18, 71696, Note_off_c, 6, 78, 64
18, 71741, Note_on_c, 6, 78, 56
18, 71744, Note_off_c, 6, 76, 64
18, 71798, Note_on_c, 6, 76, 63
18, 71809, Note_off_c, 6, 78, 64
18, 71864, Note_on_c, 6, 78, 58
18, 71872, Note_off_c, 6, 76, 64
18, 71913, Note_on_c, 6, 76, 61
18, 71923, Note_off_c, 6, 78, 64
18, 71959, Note_off_c, 6, 76, 64
18, 71978, Note_on_c, 6, 70, 82
18, 72032, Note_on_c, 6, 76, 82
18, 72043, Note_off_c, 6, 70, 64
18, 72101, Note_on_c, 6, 78, 59
18, 72120, Note_off_c, 6, 76, 64
18, 72157, Note_on_c, 6, 79, 78
18, 72175, Note_off_c, 6, 78, 64
18, 72220, Note_on_c, 6, 78, 95
18, 72238, Note_off_c, 6, 79, 64
18, 72281, Note_on_c, 6, 76, 60
18, 72290, Note_off_c, 6, 78, 64
18, 72340, Note_on_c, 6, 75, 76
18, 72348, Note_off_c, 6, 76, 64
18, 72396, Note_off_c, 6, 75, 64
18, 72399, Note_on_c, 6, 73, 30
18, 72438, Note_off_c, 6, 73, 64
18, 72464, Note_on_c, 6, 69, 70
18, 72526, Note_on_c, 6, 75, 61
18, 72543, Note_off_c, 6, 69, 64
18, 72591, Note_on_c, 6, 78, 55
18, 72597, Note_off_c, 6, 75, 64
18, 72650, Note_on_c, 6, 75, 59
18, 72664, Note_off_c, 6, 78, 64
18, 72709, Note_off_c, 6, 75, 64
18, 72709, Note_on_c, 6, 78, 60
18, 72761, Note_on_c, 6, 75, 47
18, 72780, Note_off_c, 6, 78, 64
18, 72831, Note_on_c, 6, 78, 61
18, 72837, Note_off_c, 6, 75, 64
18, 72883, Note_on_c, 6, 75, 64
18, 72900, Note_off_c, 6, 78, 64
18, 72932, Note_off_c, 6, 75, 64
18, 72947, Note_on_c, 6, 69, 82
18, 73001, Note_on_c, 6, 75, 68
18, 73019, Note_off_c, 6, 69, 64
18, 73060, Note_on_c, 6, 78, 58
18, 73062, Note_off_c, 6, 75, 64
18, 73120, Note_on_c, 6, 75, 64
18, 73136, Note_off_c, 6, 78, 64
18, 73184, Note_on_c, 6, 78, 56
18, 73185, Note_off_c, 6, 75, 64
18, 73240, Note_on_c, 6, 75, 59
18, 73257, Note_off_c, 6, 78, 64
18, 73304, Note_on_c, 6, 78, 58
18, 73308, Note_off_c, 6, 75, 64
18, 73360, Note_on_c, 6, 75, 60
18, 73377, Note_off_c, 6, 78, 64
18, 73404, Note_off_c, 6, 75, 64
18, 73423, Note_on_c, 6, 69, 87
18, 73478, Note_on_c, 6, 75, 63
18, 73495, Note_off_c, 6, 69, 64
18, 73542, Note_off_c, 6, 75, 64
18, 73542, Note_on_c, 6, 78, 58
18, 73599, Note_on_c, 6, 76, 68
18, 73602, Note_off_c, 6, 78, 64
18, 73652, Note_on_c, 6, 75, 64
18, 73661, Note_off_c, 6, 76, 64
18, 73713, Note_on_c, 6, 73, 60
18, 73725, Note_off_c, 6, 75, 64
18, 73763, Note_on_c, 6, 71, 63
18, 73764, Note_off_c, 6, 73, 64
18, 73820, Note_on_c, 6, 69, 60
18, 73830, Note_off_c, 6, 71, 64
18, 73864, Note_off_c, 6, 69, 64
18, 73893, Note_on_c, 6, 68, 66
18, 73957, Note_on_c, 6, 74, 70
18, 73959, Note_off_c, 6, 68, 64
18, 74026, Note_on_c, 6, 76, 66
18, 74036, Note_off_c, 6, 74, 64
18, 74087, Note_on_c, 6, 74, 68
18, 74109, Note_off_c, 6, 76, 64
18, 74150, Note_on_c, 6, 76, 64
18, 74155, Note_off_c, 6, 74, 64
18, 74210, Note_on_c, 6, 74, 66
18, 74224, Note_off_c, 6, 76, 64
18, 74267, Note_off_c, 6, 74, 64
18, 74270, Note_on_c, 6, 76, 51
18, 74317, Note_on_c, 6, 74, 66
18, 74327, Note_off_c, 6, 76, 64
18, 74363, Note_off_c, 6, 74, 64
18, 74386, Note_on_c, 6, 68, 87
18, 74445, Note_on_c, 6, 74, 70
18, 74446, Note_off_c, 6, 68, 64
18, 74508, Note_on_c, 6, 76, 64
18, 74516, Note_off_c, 6, 74, 64
18, 74567, Note_on_c, 6, 74, 72
18, 74581, Note_off_c, 6, 76, 64
18, 74635, Note_on_c, 6, 76, 70
18, 74645, Note_off_c, 6, 74, 64
18, 74695, Note_on_c, 6, 74, 70
18, 74709, Note_off_c, 6, 76, 64
18, 74758, Note_on_c, 6, 76, 66
18, 74761, Note_off_c, 6, 74, 64
18, 74806, Note_on_c, 6, 74, 66
18, 74814, Note_off_c, 6, 76, 64
18, 74840, Note_off_c, 6, 74, 64
18, 74868, Note_on_c, 6, 68, 74
18, 74926, Note_on_c, 6, 74, 82
18, 74936, Note_off_c, 6, 68, 64
18, 74987, Note_on_c, 6, 76, 61
18, 74997, Note_off_c, 6, 74, 64
18, 75051, Note_on_c, 6, 78, 58
18, 75065, Note_off_c, 6, 76, 64
18, 75108, Note_on_c, 6, 76, 60
18, 75110, Note_off_c, 6, 78, 64
18, 75110, Note_on_c, 6, 77, 52
18, 75120, Note_off_c, 6, 77, 64
18, 75159, Note_on_c, 6, 74, 70
18, 75161, Note_off_c, 6, 76, 64
18, 75217, Note_off_c, 6, 74, 64
18, 75221, Note_on_c, 6, 73, 57
18, 75281, Note_on_c, 6, 71, 62
18, 75296, Note_off_c, 6, 73, 64
18, 75327, Note_off_c, 6, 71, 64
18, 75351, Note_on_c, 6, 67, 70
18, 75409, Note_on_c, 6, 73, 58
18, 75425, Note_off_c, 6, 67, 64
18, 75472, Note_on_c, 6, 76, 62
18, 75490, Note_off_c, 6, 73, 64
18, 75524, Note_on_c, 6, 73, 53
18, 75541, Note_off_c, 6, 76, 64
18, 75584, Note_on_c, 6, 76, 58
18, 75590, Note_off_c, 6, 73, 64
18, 75645, Note_on_c, 6, 73, 52
18, 75658, Note_off_c, 6, 76, 64
18, 75705, Note_on_c, 6, 76, 63
18, 75715, Note_off_c, 6, 73, 64
18, 75758, Note_on_c, 6, 73, 51
18, 75776, Note_off_c, 6, 76, 64
18, 75808, Note_off_c, 6, 73, 64
18, 75827, Note_on_c, 6, 67, 85
18, 75886, Note_on_c, 6, 73, 57
18, 75904, Note_off_c, 6, 67, 64
18, 75948, Note_on_c, 6, 76, 64
18, 75970, Note_off_c, 6, 73, 64
18, 76005, Note_on_c, 6, 73, 58
18, 76023, Note_off_c, 6, 76, 64
18, 76063, Note_on_c, 6, 76, 63
18, 76076, Note_off_c, 6, 73, 64
18, 76126, Note_on_c, 6, 73, 60
18, 76138, Note_off_c, 6, 76, 64
18, 76184, Note_on_c, 6, 76, 60
18, 76194, Note_off_c, 6, 73, 64
18, 76241, Note_on_c, 6, 73, 57
18, 76249, Note_off_c, 6, 76, 64
18, 76285, Note_off_c, 6, 73, 64
18, 76303, Note_on_c, 6, 67, 87
18, 76356, Note_on_c, 6, 73, 60
18, 76377, Note_off_c, 6, 67, 64
18, 76423, Note_on_c, 6, 76, 93
18, 76441, Note_off_c, 6, 73, 64
18, 76473, Note_on_c, 6, 74, 80
18, 76494, Note_off_c, 6, 76, 64
18, 76527, Note_on_c, 6, 73, 78
18, 76549, Note_off_c, 6, 74, 64
18, 76588, Note_on_c, 6, 71, 78
18, 76612, Note_off_c, 6, 73, 64
18, 76646, Note_on_c, 6, 69, 68
18, 76649, Note_off_c, 6, 71, 64
18, 76705, Note_on_c, 6, 67, 70
18, 76720, Note_off_c, 6, 69, 64
18, 76742, Note_off_c, 6, 67, 64
18, 76771, Note_on_c, 6, 66, 89
18, 76825, Note_on_c, 6, 62, 74
18, 76843, Note_off_c, 6, 66, 64
18, 76887, Note_on_c, 6, 64, 76
18, 76898, Note_off_c, 6, 62, 64
18, 76945, Note_on_c, 6, 67, 68
18, 76947, Note_off_c, 6, 64, 64
18, 76985, Note_off_c, 6, 67, 64
18, 77011, Note_on_c, 6, 66, 82
18, 77062, Note_on_c, 6, 69, 68
18, 77068, Note_off_c, 6, 66, 64
18, 77098, Note_off_c, 6, 69, 64
18, 77126, Note_on_c, 6, 68, 98
18, 77180, Note_on_c, 6, 71, 80
18, 77190, Note_off_c, 6, 68, 64
18, 77216, Note_off_c, 6, 71, 64
18, 77249, Note_on_c, 6, 69, 102
18, 77306, Note_on_c, 6, 66, 89
18, 77310, Note_off_c, 6, 69, 64
18, 77370, Note_on_c, 6, 68, 70
18, 77381, Note_off_c, 6, 66, 64
18, 77432, Note_on_c, 6, 71, 78
18, 77443, Note_off_c, 6, 68, 64
18, 77472, Note_off_c, 6, 71, 64
18, 77495, Note_on_c, 6, 69, 100
18, 77552, Note_on_c, 6, 73, 61
18, 77564, Note_off_c, 6, 69, 64
18, 77599, Note_off_c, 6, 73, 64
18, 77620, Note_on_c, 6, 71, 98
18, 77674, Note_on_c, 6, 74, 80
18, 77681, Note_off_c, 6, 71, 64
18, 77709, Note_off_c, 6, 74, 64
18, 77741, Note_on_c, 6, 73, 102
18, 77799, Note_on_c, 6, 69, 85
18, 77814, Note_off_c, 6, 73, 64
18, 77857, Note_on_c, 6, 71, 82
18, 77871, Note_off_c, 6, 69, 64
18, 77913, Note_on_c, 6, 74, 82
18, 77923, Note_off_c, 6, 71, 64
18, 77957, Note_off_c, 6, 74, 64
18, 77976, Note_on_c, 6, 73, 113
18, 78030, Note_on_c, 6, 76, 98
18, 78038, Note_off_c, 6, 73, 64
18, 78065, Note_off_c, 6, 76, 64
18, 78092, Note_on_c, 6, 74, 100
18, 78142, Note_on_c, 6, 78, 87
18, 78155, Note_off_c, 6, 74, 64
18, 78195, Note_off_c, 6, 78, 64
18, 91214, Note_on_c, 6, 71, 89
18, 91268, Note_on_c, 6, 66, 64
18, 91287, Note_off_c, 6, 71, 64
18, 91322, Note_on_c, 6, 62, 64
18, 91330, Note_off_c, 6, 66, 64
18, 91378, Note_on_c, 6, 66, 78
18, 91386, Note_off_c, 6, 62, 64
18, 91441, Note_off_c, 6, 66, 64
18, 91441, Note_on_c, 6, 71, 70
18, 91504, Note_on_c, 6, 74, 78
18, 91509, Note_off_c, 6, 71, 64
18, 91564, Note_off_c, 6, 74, 64
18, 91568, Note_on_c, 6, 73, 68
18, 91612, Note_on_c, 6, 76, 78
18, 91620, Note_off_c, 6, 73, 64
18, 91663, Note_off_c, 6, 76, 64
18, 91677, Note_on_c, 6, 74, 93
18, 91738, Note_on_c, 6, 78, 64
18, 91750, Note_off_c, 6, 74, 64
18, 91796, Note_on_c, 6, 83, 72
18, 91799, Note_off_c, 6, 78, 64
18, 91851, Note_on_c, 6, 74, 57
18, 91857, Note_off_c, 6, 83, 64
18, 91888, Note_off_c, 6, 74, 64
18, 91911, Note_on_c, 6, 73, 66
18, 91975, Note_on_c, 6, 83, 66
18, 91976, Note_off_c, 6, 73, 64
18, 92030, Note_off_c, 6, 83, 64
18, 92032, Note_on_c, 6, 73, 59
18, 92083, Note_off_c, 6, 73, 64
18, 92087, Note_on_c, 6, 82, 59
18, 92133, Note_off_c, 6, 82, 64
18, 92151, Note_on_c, 6, 83, 98
18, 92203, Note_on_c, 6, 78, 59
18, 92212, Note_off_c, 6, 83, 64
18, 92264, Note_on_c, 6, 74, 68
18, 92269, Note_off_c, 6, 78, 64
18, 92321, Note_on_c, 6, 78, 60
18, 92323, Note_off_c, 6, 74, 64
18, 92381, Note_off_c, 6, 78, 64
18, 92381, Note_on_c, 6, 71, 74
18, 92432, Note_on_c, 6, 74, 70
18, 92436, Note_off_c, 6, 71, 64
18, 92480, Note_off_c, 6, 74, 64
18, 92499, Note_on_c, 6, 68, 66
18, 92552, Note_on_c, 6, 77, 78
18, 92559, Note_off_c, 6, 68, 64
18, 92600, Note_off_c, 6, 77, 64
18, 92623, Note_on_c, 6, 78, 85
18, 92684, Note_on_c, 6, 73, 61
18, 92693, Note_off_c, 6, 78, 64
18, 92742, Note_on_c, 6, 69, 57
18, 92747, Note_off_c, 6, 73, 64
18, 92798, Note_on_c, 6, 73, 52
18, 92805, Note_off_c, 6, 69, 64
18, 92853, Note_off_c, 6, 73, 64
18, 92859, Note_on_c, 6, 68, 68
18, 92908, Note_on_c, 6, 78, 60
18, 92916, Note_off_c, 6, 68, 64
18, 92967, Note_off_c, 6, 78, 64
18, 92970, Note_on_c, 6, 68, 82
18, 93026, Note_off_c, 6, 68, 64
18, 93032, Note_on_c, 6, 77, 72
18, 93077, Note_off_c, 6, 77, 64
18, 93099, Note_on_c, 6, 78, 85
18, 93156, Note_on_c, 6, 73, 58
18, 93167, Note_off_c, 6, 78, 64
18, 93214, Note_on_c, 6, 69, 59
18, 93215, Note_off_c, 6, 73, 64
18, 93273, Note_on_c, 6, 73, 58
18, 93278, Note_off_c, 6, 69, 64
18, 93322, Note_off_c, 6, 73, 64
18, 93342, Note_on_c, 6, 78, 80
18, 93395, Note_on_c, 6, 79, 80
18, 93419, Note_off_c, 6, 78, 64
18, 93457, Note_off_c, 6, 79, 64
18, 93463, Note_on_c, 6, 81, 85
18, 93510, Note_off_c, 6, 81, 64
18, 93520, Note_on_c, 6, 78, 53
18, 93560, Note_off_c, 6, 78, 64
18, 93583, Note_on_c, 6, 72, 70
18, 93639, Note_on_c, 6, 71, 62
18, 93649, Note_off_c, 6, 72, 64
18, 93705, Note_off_c, 6, 71, 64
18, 93705, Note_on_c, 6, 72, 58
18, 93748, Note_off_c, 6, 72, 64
18, 93763, Note_on_c, 6, 81, 57
18, 93791, Note_off_c, 6, 81, 64
18, 93825, Note_on_c, 6, 72, 70
18, 93878, Note_on_c, 6, 71, 66
18, 93897, Note_off_c, 6, 72, 64
18, 93942, Note_on_c, 6, 72, 64
18, 93946, Note_off_c, 6, 71, 64
18, 93999, Note_off_c, 6, 72, 64
18, 94003, Note_on_c, 6, 81, 62
18, 94030, Note_off_c, 6, 81, 64
18, 94065, Note_on_c, 6, 71, 82
18, 94123, Note_on_c, 6, 69, 59
18, 94140, Note_off_c, 6, 71, 64
18, 94181, Note_on_c, 6, 71, 61
18, 94196, Note_off_c, 6, 69, 64
18, 94245, Note_on_c, 6, 73, 59
18, 94256, Note_off_c, 6, 71, 64
18, 94303, Note_on_c, 6, 75, 60
18, 94325, Note_off_c, 6, 73, 64
18, 94352, Note_off_c, 6, 75, 64
18, 94355, Note_on_c, 6, 76, 76
18, 94414, Note_on_c, 6, 78, 52
18, 94428, Note_off_c, 6, 76, 64
18, 94475, Note_on_c, 6, 79, 72
18, 94480, Note_off_c, 6, 78, 64
18, 94528, Note_off_c, 6, 79, 64
18, 94547, Note_on_c, 6, 81, 98
18, 94599, Note_on_c, 6, 78, 64
18, 94610, Note_off_c, 6, 81, 64
18, 94662, Note_on_c, 6, 75, 76
18, 94671, Note_off_c, 6, 78, 64
18, 94719, Note_off_c, 6, 75, 64
18, 94720, Note_on_c, 6, 78, 80
18, 94779, Note_on_c, 6, 71, 66
18, 94789, Note_off_c, 6, 78, 64
18, 94827, Note_off_c, 6, 71, 64
18, 94833, Note_on_c, 6, 81, 87
18, 94893, Note_on_c, 6, 79, 68
18, 94911, Note_off_c, 6, 81, 64
18, 94952, Note_off_c, 6, 79, 64
18, 94953, Note_on_c, 6, 78, 66
18, 94998, Note_off_c, 6, 78, 64
18, 95013, Note_on_c, 6, 79, 85
18, 95069, Note_on_c, 6, 76, 62
18, 95095, Note_off_c, 6, 79, 64
18, 95132, Note_on_c, 6, 71, 68
18, 95154, Note_off_c, 6, 76, 64
18, 95192, Note_on_c, 6, 67, 64
18, 95202, Note_off_c, 6, 71, 64
18, 95244, Note_off_c, 6, 67, 64
18, 95258, Note_on_c, 6, 71, 64
18, 95317, Note_on_c, 6, 76, 70
18, 95319, Note_off_c, 6, 71, 64
18, 95380, Note_off_c, 6, 76, 64
18, 95383, Note_on_c, 6, 79, 72
18, 95439, Note_off_c, 6, 79, 64
18, 95439, Note_on_c, 6, 81, 72
18, 95476, Note_off_c, 6, 81, 64
18, 95500, Note_on_c, 6, 80, 100
18, 95556, Note_on_c, 6, 78, 58
18, 95575, Note_off_c, 6, 80, 64
18, 95620, Note_on_c, 6, 80, 56
18, 95622, Note_off_c, 6, 78, 64
18, 95679, Note_off_c, 6, 80, 64
18, 95682, Note_on_c, 6, 83, 60
18, 95722, Note_off_c, 6, 83, 64
18, 95741, Note_on_c, 6, 80, 87
18, 95797, Note_on_c, 6, 78, 55
18, 95818, Note_off_c, 6, 80, 64
18, 95869, Note_on_c, 6, 80, 68
18, 95889, Note_off_c, 6, 78, 64
18, 95920, Note_on_c, 6, 83, 70
18, 95921, Note_off_c, 6, 80, 64
18, 95959, Note_off_c, 6, 83, 64
18, 95985, Note_on_c, 6, 81, 78
18, 96038, Note_on_c, 6, 76, 64
18, 96050, Note_off_c, 6, 81, 64
18, 96099, Note_on_c, 6, 73, 60
18, 96113, Note_off_c, 6, 76, 64
18, 96155, Note_off_c, 6, 73, 64
18, 96156, Note_on_c, 6, 76, 63
18, 96200, Note_off_c, 6, 76, 64
18, 96218, Note_on_c, 6, 69, 78
18, 96278, Note_on_c, 6, 71, 64
18, 96294, Note_off_c, 6, 69, 64
18, 96342, Note_on_c, 6, 73, 58
18, 96345, Note_off_c, 6, 71, 64
18, 96396, Note_off_c, 6, 73, 64
18, 96396, Note_on_c, 6, 74, 66
18, 96457, Note_on_c, 6, 76, 68
18, 96460, Note_off_c, 6, 74, 64
18, 96518, Note_on_c, 6, 78, 60
18, 96531, Note_off_c, 6, 76, 64
18, 96576, Note_on_c, 6, 79, 66
18, 96580, Note_off_c, 6, 78, 64
18, 96636, Note_on_c, 6, 81, 68
18, 96638, Note_off_c, 6, 79, 64
18, 96680, Note_off_c, 6, 81, 64
18, 96699, Note_on_c, 6, 79, 93
18, 96755, Note_on_c, 6, 78, 80
18, 96764, Note_off_c, 6, 79, 64
18, 96810, Note_off_c, 6, 78, 64
18, 96820, Note_on_c, 6, 79, 72
18, 96872, Note_off_c, 6, 79, 64
18, 96880, Note_on_c, 6, 76, 58
18, 96924, Note_off_c, 6, 76, 64
18, 96948, Note_on_c, 6, 78, 95
18, 97009, Note_on_c, 6, 74, 70
18, 97026, Note_off_c, 6, 78, 64
18, 97062, Note_off_c, 6, 74, 64
18, 97064, Note_on_c, 6, 69, 66
18, 97121, Note_on_c, 6, 72, 60
18, 97127, Note_off_c, 6, 69, 64
18, 97167, Note_off_c, 6, 72, 64
18, 97183, Note_on_c, 6, 71, 89
18, 97241, Note_off_c, 6, 71, 64
18, 97244, Note_on_c, 6, 74, 63
18, 97291, Note_on_c, 6, 67, 55
18, 97297, Note_off_c, 6, 74, 64
18, 97354, Note_on_c, 6, 78, 74
18, 97355, Note_off_c, 6, 67, 64
18, 97388, Note_off_c, 6, 78, 64
18, 97423, Note_on_c, 6, 76, 85
18, 97481, Note_on_c, 6, 73, 59
18, 97498, Note_off_c, 6, 76, 64
18, 97538, Note_on_c, 6, 67, 60
18, 97556, Note_off_c, 6, 73, 64
18, 97600, Note_on_c, 6, 71, 70
18, 97603, Note_off_c, 6, 67, 64
18, 97647, Note_off_c, 6, 71, 64
18, 97657, Note_on_c, 6, 69, 80
18, 97713, Note_off_c, 6, 69, 64
18, 97715, Note_on_c, 6, 73, 50
18, 97773, Note_on_c, 6, 66, 58
18, 97790, Note_off_c, 6, 73, 64
18, 97820, Note_off_c, 6, 66, 64
18, 97833, Note_on_c, 6, 76, 82
18, 97880, Note_off_c, 6, 76, 64
18, 97898, Note_on_c, 6, 74, 82
18, 97961, Note_on_c, 6, 71, 68
18, 97974, Note_off_c, 6, 74, 64
18, 98008, Note_off_c, 6, 71, 64
18, 98018, Note_on_c, 6, 66, 68
18, 98075, Note_on_c, 6, 69, 70
18, 98081, Note_off_c, 6, 66, 64
18, 98129, Note_off_c, 6, 69, 64
18, 98139, Note_on_c, 6, 67, 74
18, 98195, Note_on_c, 6, 71, 70
18, 98200, Note_off_c, 6, 67, 64
18, 98253, Note_off_c, 6, 71, 64
18, 98257, Note_on_c, 6, 64, 63
18, 98311, Note_off_c, 6, 64, 64
18, 98318, Note_on_c, 6, 74, 82
18, 98352, Note_off_c, 6, 74, 64
18, 98384, Note_on_c, 6, 73, 93
18, 98443, Note_on_c, 6, 76, 70
18, 98461, Note_off_c, 6, 73, 64
18, 98496, Note_off_c, 6, 76, 64
18, 98500, Note_on_c, 6, 69, 56
18, 98544, Note_off_c, 6, 69, 64
18, 98566, Note_on_c, 6, 73, 59
18, 98605, Note_off_c, 6, 73, 64
18, 98624, Note_on_c, 6, 74, 85
18, 98686, Note_on_c, 6, 78, 66
18, 98697, Note_off_c, 6, 74, 64
18, 98741, Note_off_c, 6, 78, 64
18, 98744, Note_on_c, 6, 69, 63
18, 98792, Note_off_c, 6, 69, 64
18, 98806, Note_on_c, 6, 74, 66
18, 98838, Note_off_c, 6, 74, 64
18, 98870, Note_on_c, 6, 76, 89
18, 98931, Note_on_c, 6, 79, 85
18, 98942, Note_off_c, 6, 76, 64
18, 98983, Note_off_c, 6, 79, 64
18, 98984, Note_on_c, 6, 69, 60
18, 99039, Note_off_c, 6, 69, 64
18, 99045, Note_on_c, 6, 76, 70
18, 99076, Note_off_c, 6, 76, 64
18, 99109, Note_on_c, 6, 78, 102
18, 99167, Note_on_c, 6, 81, 76
18, 99181, Note_off_c, 6, 78, 64
18, 99217, Note_off_c, 6, 81, 64
18, 99217, Note_on_c, 6, 74, 68
18, 99275, Note_on_c, 6, 78, 62
18, 99289, Note_off_c, 6, 74, 64
18, 99312, Note_off_c, 6, 78, 64
18, 99344, Note_on_c, 6, 73, 82
18, 99401, Note_on_c, 6, 76, 66
18, 99413, Note_off_c, 6, 73, 64
18, 99456, Note_off_c, 6, 76, 64
18, 99463, Note_on_c, 6, 69, 63
18, 99519, Note_on_c, 6, 73, 59
18, 99534, Note_off_c, 6, 69, 64
18, 99571, Note_off_c, 6, 73, 64
18, 99583, Note_on_c, 6, 76, 78
18, 99640, Note_on_c, 6, 79, 80
18, 99643, Note_off_c, 6, 76, 64
18, 99691, Note_on_c, 6, 78, 70
18, 99706, Note_off_c, 6, 79, 64
18, 99752, Note_on_c, 6, 76, 78
18, 99767, Note_off_c, 6, 78, 64
18, 99808, Note_off_c, 6, 76, 64
18, 99821, Note_on_c, 6, 78, 93
18, 99874, Note_on_c, 6, 74, 70
18, 99887, Note_off_c, 6, 78, 64
18, 99938, Note_off_c, 6, 74, 64
18, 99939, Note_on_c, 6, 71, 80
18, 99995, Note_on_c, 6, 74, 80
18, 100000, Note_off_c, 6, 71, 64
18, 100056, Note_on_c, 6, 68, 98
18, 100071, Note_off_c, 6, 74, 64
18, 100109, Note_on_c, 6, 78, 64
18, 100119, Note_off_c, 6, 68, 64
18, 100169, Note_on_c, 6, 76, 63
18, 100175, Note_off_c, 6, 78, 64
18, 100229, Note_on_c, 6, 74, 64
18, 100232, Note_off_c, 6, 76, 64
18, 100270, Note_off_c, 6, 74, 64
18, 100292, Note_on_c, 6, 73, 87
18, 100347, Note_on_c, 6, 74, 78
18, 100362, Note_off_c, 6, 73, 64
18, 100410, Note_on_c, 6, 73, 63
18, 100427, Note_off_c, 6, 74, 64
18, 100467, Note_on_c, 6, 71, 68
18, 100484, Note_off_c, 6, 73, 64
18, 100527, Note_on_c, 6, 69, 70
18, 100530, Note_off_c, 6, 71, 64
18, 100585, Note_on_c, 6, 67, 63
18, 100596, Note_off_c, 6, 69, 64
18, 100648, Note_off_c, 6, 67, 64
18, 100651, Note_on_c, 6, 66, 54
18, 100708, Note_off_c, 6, 66, 64
18, 100712, Note_on_c, 6, 64, 74
18, 100742, Note_off_c, 6, 64, 64
18, 100789, Note_on_c, 6, 63, 60
18, 100837, Note_on_c, 6, 69, 66
18, 100840, Note_off_c, 6, 63, 64
18, 100909, Note_off_c, 6, 69, 64
18, 100909, Note_on_c, 6, 71, 66
18, 100960, Note_on_c, 6, 69, 64
18, 100975, Note_off_c, 6, 71, 64
18, 101015, Note_on_c, 6, 71, 54
18, 101018, Note_off_c, 6, 69, 64
18, 101076, Note_on_c, 6, 69, 57
18, 101091, Note_off_c, 6, 71, 64
18, 101146, Note_on_c, 6, 71, 62
18, 101158, Note_off_c, 6, 69, 64
18, 101195, Note_on_c, 6, 69, 60
18, 101205, Note_off_c, 6, 71, 64
18, 101255, Note_off_c, 6, 69, 64
18, 101264, Note_on_c, 6, 63, 60
18, 101321, Note_on_c, 6, 69, 64
18, 101342, Note_off_c, 6, 63, 64
18, 101379, Note_on_c, 6, 71, 59
18, 101390, Note_off_c, 6, 69, 64
18, 101449, Note_on_c, 6, 69, 61
18, 101464, Note_off_c, 6, 71, 64
18, 101510, Note_on_c, 6, 71, 66
18, 101518, Note_off_c, 6, 69, 64
18, 101567, Note_on_c, 6, 69, 60
18, 101582, Note_off_c, 6, 71, 64
18, 101632, Note_on_c, 6, 71, 63
18, 101640, Note_off_c, 6, 69, 64
18, 101686, Note_on_c, 6, 69, 60
18, 101696, Note_off_c, 6, 71, 64
18, 101732, Note_off_c, 6, 69, 64
18, 101755, Note_on_c, 6, 63, 76
18, 101808, Note_on_c, 6, 69, 78
18, 101823, Note_off_c, 6, 63, 64
18, 101880, Note_on_c, 6, 71, 66
18, 101887, Note_off_c, 6, 69, 64
18, 101936, Note_on_c, 6, 72, 64
18, 101950, Note_off_c, 6, 71, 64
18, 101994, Note_on_c, 6, 71, 62
18, 102017, Note_off_c, 6, 72, 64
18, 102051, Note_off_c, 6, 71, 64
18, 102051, Note_on_c, 6, 69, 59
18, 102108, Note_on_c, 6, 68, 59
18, 102117, Note_off_c, 6, 69, 64
18, 102166, Note_on_c, 6, 66, 47
18, 102180, Note_off_c, 6, 68, 64
18, 102211, Note_off_c, 6, 66, 64
18, 102237, Note_on_c, 6, 62, 82
18, 102287, Note_on_c, 6, 68, 59
18, 102305, Note_off_c, 6, 62, 64
18, 102347, Note_on_c, 6, 71, 54
18, 102356, Note_off_c, 6, 68, 64
18, 102407, Note_on_c, 6, 68, 62
18, 102422, Note_off_c, 6, 71, 64
18, 102468, Note_on_c, 6, 71, 63
18, 102475, Note_off_c, 6, 68, 64
18, 102522, Note_on_c, 6, 68, 56
18, 102536, Note_off_c, 6, 71, 64
18, 102589, Note_on_c, 6, 71, 72
18, 102592, Note_off_c, 6, 68, 64
18, 102642, Note_on_c, 6, 68, 63
18, 102656, Note_off_c, 6, 71, 64
18, 102678, Note_off_c, 6, 68, 64
18, 102708, Note_on_c, 6, 62, 64
18, 102763, Note_on_c, 6, 68, 59
18, 102780, Note_off_c, 6, 62, 64
18, 102820, Note_on_c, 6, 71, 68
18, 102821, Note_off_c, 6, 68, 64
18, 102876, Note_on_c, 6, 68, 56
18, 102891, Note_off_c, 6, 71, 64
18, 102938, Note_on_c, 6, 71, 68
18, 102952, Note_off_c, 6, 68, 64
18, 102996, Note_on_c, 6, 68, 59
18, 103016, Note_off_c, 6, 71, 64
18, 103055, Note_on_c, 6, 71, 58
18, 103067, Note_off_c, 6, 68, 64
18, 103112, Note_on_c, 6, 68, 58
18, 103133, Note_off_c, 6, 71, 64
18, 103158, Note_off_c, 6, 68, 64
18, 103180, Note_on_c, 6, 62, 68
18, 103232, Note_on_c, 6, 68, 58
18, 103252, Note_off_c, 6, 62, 64
18, 103296, Note_on_c, 6, 71, 82
18, 103312, Note_off_c, 6, 68, 64
18, 103351, Note_on_c, 6, 69, 74
18, 103377, Note_off_c, 6, 71, 64
18, 103409, Note_on_c, 6, 68, 64
18, 103428, Note_off_c, 6, 69, 64
18, 103463, Note_on_c, 6, 66, 57
18, 103485, Note_off_c, 6, 68, 64
18, 103527, Note_off_c, 6, 66, 64
18, 103530, Note_on_c, 6, 64, 63
18, 103583, Note_on_c, 6, 62, 68
18, 103594, Note_off_c, 6, 64, 64
18, 103621, Note_off_c, 6, 62, 64
18, 103657, Note_on_c, 6, 61, 87
18, 103710, Note_on_c, 6, 67, 68
18, 103721, Note_off_c, 6, 61, 64
18, 103777, Note_on_c, 6, 69, 62
18, 103789, Note_off_c, 6, 67, 64
18, 103829, Note_on_c, 6, 67, 61
18, 103847, Note_off_c, 6, 69, 64
18, 103897, Note_on_c, 6, 69, 63
18, 103902, Note_off_c, 6, 67, 64
18, 103956, Note_on_c, 6, 67, 60
18, 103970, Note_off_c, 6, 69, 64
18, 104021, Note_on_c, 6, 69, 60
18, 104029, Note_off_c, 6, 67, 64
18, 104074, Note_on_c, 6, 67, 66
18, 104088, Note_off_c, 6, 69, 64
18, 104128, Note_off_c, 6, 67, 64
18, 104144, Note_on_c, 6, 61, 87
18, 104199, Note_on_c, 6, 67, 74
18, 104205, Note_off_c, 6, 61, 64
18, 104267, Note_on_c, 6, 69, 60
18, 104276, Note_off_c, 6, 67, 64
18, 104323, Note_on_c, 6, 67, 68
18, 104338, Note_off_c, 6, 69, 64
18, 104379, Note_on_c, 6, 69, 59
18, 104385, Note_off_c, 6, 67, 64
18, 104434, Note_on_c, 6, 67, 66
18, 104450, Note_off_c, 6, 69, 64
18, 104498, Note_on_c, 6, 69, 55
18, 104509, Note_off_c, 6, 67, 64
18, 104552, Note_on_c, 6, 67, 66
18, 104558, Note_off_c, 6, 69, 64
18, 104602, Note_off_c, 6, 67, 64
18, 104622, Note_on_c, 6, 61, 87
18, 104673, Note_on_c, 6, 67, 74
18, 104683, Note_off_c, 6, 61, 64
18, 104744, Note_on_c, 6, 69, 70
18, 104764, Note_off_c, 6, 67, 64
18, 104811, Note_on_c, 6, 71, 68
18, 104825, Note_off_c, 6, 69, 64
18, 104867, Note_on_c, 6, 69, 70
18, 104890, Note_off_c, 6, 71, 64
18, 104929, Note_on_c, 6, 67, 70
18, 104950, Note_off_c, 6, 69, 64
18, 104983, Note_on_c, 6, 66, 55
18, 104994, Note_off_c, 6, 67, 64
18, 105043, Note_off_c, 6, 66, 64
18, 105044, Note_on_c, 6, 64, 68
18, 105074, Note_off_c, 6, 64, 64
18, 105107, Note_on_c, 6, 60, 85
18, 105163, Note_on_c, 6, 66, 53
18, 105176, Note_off_c, 6, 60, 64
18, 105224, Note_on_c, 6, 69, 58
18, 105228, Note_off_c, 6, 66, 64
18, 105278, Note_on_c, 6, 66, 57
18, 105292, Note_off_c, 6, 69, 64
18, 105341, Note_on_c, 6, 69, 64
18, 105343, Note_off_c, 6, 66, 64
18, 105394, Note_on_c, 6, 66, 59
18, 105405, Note_off_c, 6, 69, 64
18, 105460, Note_on_c, 6, 69, 64
18, 105465, Note_off_c, 6, 66, 64
18, 105513, Note_on_c, 6, 66, 59
18, 105527, Note_off_c, 6, 69, 64
18, 105564, Note_off_c, 6, 66, 64
18, 105580, Note_on_c, 6, 60, 78
18, 105640, Note_on_c, 6, 66, 60
18, 105656, Note_off_c, 6, 60, 64
18, 105696, Note_off_c, 6, 66, 64
18, 105701, Note_on_c, 6, 69, 63
18, 105753, Note_on_c, 6, 66, 53
18, 105768, Note_off_c, 6, 69, 64
18, 105818, Note_off_c, 6, 66, 64
18, 105818, Note_on_c, 6, 69, 66
18, 105869, Note_on_c, 6, 66, 63
18, 105884, Note_off_c, 6, 69, 64
18, 105937, Note_on_c, 6, 69, 60
18, 105948, Note_off_c, 6, 66, 64
18, 105991, Note_on_c, 6, 66, 56
18, 106012, Note_off_c, 6, 69, 64
18, 106044, Note_off_c, 6, 66, 64
18, 106063, Note_on_c, 6, 60, 87
18, 106115, Note_on_c, 6, 66, 64
18, 106134, Note_off_c, 6, 60, 64
18, 106184, Note_on_c, 6, 69, 76
18, 106201, Note_off_c, 6, 66, 64
18, 106238, Note_on_c, 6, 67, 76
18, 106261, Note_off_c, 6, 69, 64
18, 106297, Note_on_c, 6, 66, 59
18, 106318, Note_off_c, 6, 67, 64
18, 106358, Note_on_c, 6, 64, 66
18, 106381, Note_off_c, 6, 66, 64
18, 106415, Note_on_c, 6, 62, 72
18, 106424, Note_off_c, 6, 64, 64
18, 106476, Note_on_c, 6, 60, 62
18, 106481, Note_off_c, 6, 62, 64
18, 106510, Note_off_c, 6, 60, 64
18, 106541, Note_on_c, 6, 59, 82
18, 106593, Note_on_c, 6, 55, 76
18, 106613, Note_off_c, 6, 59, 64
18, 106659, Note_on_c, 6, 57, 74
18, 106673, Note_off_c, 6, 55, 64
18, 106719, Note_on_c, 6, 60, 74
18, 106725, Note_off_c, 6, 57, 64
18, 106759, Note_off_c, 6, 60, 64
18, 106778, Note_on_c, 6, 59, 85
18, 106834, Note_on_c, 6, 62, 66
18, 106841, Note_off_c, 6, 59, 64
18, 106871, Note_off_c, 6, 62, 64
18, 106897, Note_on_c, 6, 61, 82
18, 106952, Note_off_c, 6, 61, 64
18, 106952, Note_on_c, 6, 64, 66
18, 106988, Note_off_c, 6, 64, 64
18, 107020, Note_on_c, 6, 62, 98
18, 107076, Note_on_c, 6, 59, 87
18, 107089, Note_off_c, 6, 62, 64
18, 107133, Note_on_c, 6, 61, 68
18, 107153, Note_off_c, 6, 59, 64
18, 107194, Note_on_c, 6, 64, 72
18, 107209, Note_off_c, 6, 61, 64
18, 107240, Note_off_c, 6, 64, 64
18, 107258, Note_on_c, 6, 62, 85
18, 107309, Note_on_c, 6, 66, 68
18, 107327, Note_off_c, 6, 62, 64
18, 107364, Note_off_c, 6, 66, 64
18, 107377, Note_on_c, 6, 64, 95
18, 107432, Note_on_c, 6, 67, 72
18, 107445, Note_off_c, 6, 64, 64
18, 107470, Note_off_c, 6, 67, 64
18, 107498, Note_on_c, 6, 66, 100
18, 107556, Note_on_c, 6, 62, 82
18, 107575, Note_off_c, 6, 66, 64
18, 107614, Note_on_c, 6, 64, 78
18, 107627, Note_off_c, 6, 62, 64
18, 107671, Note_on_c, 6, 67, 70
18, 107673, Note_off_c, 6, 64, 64
18, 107713, Note_off_c, 6, 67, 64
18, 107733, Note_on_c, 6, 66, 82
18, 107788, Note_on_c, 6, 69, 72
18, 107801, Note_off_c, 6, 66, 64
18, 107828, Note_off_c, 6, 69, 64
18, 107849, Note_on_c, 6, 67, 80
18, 107909, Note_on_c, 6, 71, 85
18, 107927, Note_off_c, 6, 67, 64
18, 107944, Note_off_c, 6, 71, 64
18, 107974, Note_on_c, 6, 69, 98
18, 108031, Note_on_c, 6, 62, 76
18, 108049, Note_off_c, 6, 69, 64
18, 108090, Note_on_c, 6, 66, 66
18, 108100, Note_off_c, 6, 62, 64
18, 108145, Note_on_c, 6, 69, 70
18, 108155, Note_off_c, 6, 66, 64
18, 108198, Note_off_c, 6, 69, 64
18, 125773, Note_on_c, 6, 74, 116
18, 126019, Note_off_c, 6, 74, 64
18, 126035, Note_on_c, 6, 76, 78
18, 126085, Note_off_c, 6, 76, 64
18, 126100, Note_on_c, 6, 78, 89
18, 126145, Note_off_c, 6, 78, 64
18, 126160, Note_on_c, 6, 74, 87
18, 126203, Note_off_c, 6, 74, 64
18, 126223, Note_on_c, 6, 69, 91
18, 126514, Note_off_c, 6, 69, 64
18, 126533, Note_on_c, 6, 71, 98
18, 126567, Note_off_c, 6, 71, 64
18, 126591, Note_on_c, 6, 72, 89
18, 126636, Note_off_c, 6, 72, 64
18, 126651, Note_on_c, 6, 69, 100
18, 126696, Note_off_c, 6, 69, 64
18, 126721, Note_on_c, 6, 66, 100
18, 126981, Note_off_c, 6, 66, 64
18, 127006, Note_on_c, 6, 67, 70
18, 127048, Note_off_c, 6, 67, 64
18, 127068, Note_on_c, 6, 69, 82
18, 127108, Note_off_c, 6, 69, 64
18, 127123, Note_on_c, 6, 66, 100
18, 127160, Note_off_c, 6, 66, 64
18, 127190, Note_on_c, 6, 62, 100
18, 127469, Note_off_c, 6, 62, 64
18, 127541, Note_on_c, 6, 64, 72
18, 127569, Note_on_c, 6, 66, 87
18, 127583, Note_off_c, 6, 64, 64
18, 127597, Note_off_c, 6, 66, 64
18, 127597, Note_on_c, 6, 67, 85
18, 127615, Note_on_c, 6, 69, 91
18, 127634, Note_on_c, 6, 71, 85
18, 127635, Note_off_c, 6, 67, 64
18, 127652, Note_off_c, 6, 69, 64
18, 127655, Note_on_c, 6, 72, 100
18, 127665, Note_off_c, 6, 71, 64
18, 127753, Note_off_c, 6, 72, 64
18, 127854, Note_on_c, 6, 72, 78
18, 127897, Note_off_c, 6, 72, 64
18, 127908, Note_on_c, 6, 74, 93
18, 127993, Note_off_c, 6, 74, 64
18, 128105, Note_on_c, 6, 76, 91
18, 128143, Note_off_c, 6, 76, 64
18, 128155, Note_on_c, 6, 74, 93
18, 128240, Note_off_c, 6, 74, 64
18, 128342, Note_on_c, 6, 72, 87
18, 128379, Note_off_c, 6, 72, 64
18, 128392, Note_on_c, 6, 71, 89
18, 128482, Note_off_c, 6, 71, 64
18, 128580, Note_on_c, 6, 69, 80
18, 128614, Note_off_c, 6, 69, 64
18, 128631, Note_on_c, 6, 71, 87
18, 128807, Note_off_c, 6, 71, 64
18, 128871, Note_on_c, 6, 67, 78
18, 129047, Note_off_c, 6, 67, 64
18, 129110, Note_on_c, 6, 71, 82
18, 129458, Note_off_c, 6, 71, 64
18, 129526, Note_on_c, 6, 73, 80
18, 129566, Note_off_c, 6, 73, 64
18, 129587, Note_on_c, 6, 74, 74
18, 129855, Note_off_c, 6, 74, 64
18, 129889, Note_on_c, 6, 73, 68
18, 129930, Note_off_c, 6, 73, 64
18, 129945, Note_on_c, 6, 74, 80
18, 129985, Note_off_c, 6, 74, 64
18, 130000, Note_on_c, 6, 76, 80
18, 130040, Note_off_c, 6, 76, 64
18, 130066, Note_on_c, 6, 76, 85
18, 130124, Note_on_c, 6, 75, 85
18, 130128, Note_off_c, 6, 76, 64
18, 130155, Note_off_c, 6, 75, 64
18, 130155, Note_on_c, 6, 76, 68
18, 130183, Note_on_c, 6, 75, 70
18, 130187, Note_off_c, 6, 76, 64
18, 130205, Note_off_c, 6, 75, 64
18, 130205, Note_on_c, 6, 76, 60
18, 130224, Note_off_c, 6, 76, 64
18, 130224, Note_on_c, 6, 75, 62
18, 130242, Note_on_c, 6, 76, 76
18, 130243, Note_off_c, 6, 75, 64
18, 130262, Note_on_c, 6, 75, 80
18, 130263, Note_off_c, 6, 76, 64
18, 130284, Note_on_c, 6, 76, 87
18, 130287, Note_off_c, 6, 75, 64
18, 130305, Note_on_c, 6, 75, 87
18, 130312, Note_off_c, 6, 76, 64
18, 130440, Note_off_c, 6, 75, 64
18, 130484, Note_on_c, 6, 76, 85
18, 130523, Note_off_c, 6, 76, 64
18, 130546, Note_on_c, 6, 78, 85
18, 130813, Note_off_c, 6, 78, 64
18, 130853, Note_on_c, 6, 81, 87
18, 130888, Note_off_c, 6, 81, 64
18, 130908, Note_on_c, 6, 79, 91
18, 130947, Note_off_c, 6, 79, 64
18, 130964, Note_on_c, 6, 78, 85
18, 131019, Note_off_c, 6, 78, 64
18, 131037, Note_on_c, 6, 83, 91
18, 131131, Note_off_c, 6, 83, 64
18, 131217, Note_on_c, 6, 81, 80
18, 131259, Note_off_c, 6, 81, 64
18, 131274, Note_on_c, 6, 79, 87
18, 131362, Note_off_c, 6, 79, 64
18, 131453, Note_on_c, 6, 78, 66
18, 131492, Note_off_c, 6, 78, 64
18, 131508, Note_on_c, 6, 79, 85
18, 131599, Note_off_c, 6, 79, 64
18, 131697, Note_on_c, 6, 78, 70
18, 131738, Note_off_c, 6, 78, 64
18, 131752, Note_on_c, 6, 76, 87
18, 131855, Note_off_c, 6, 76, 64
18, 131934, Note_on_c, 6, 78, 82
18, 131979, Note_off_c, 6, 78, 64
18, 131999, Note_on_c, 6, 79, 87
18, 132057, Note_on_c, 6, 78, 82
18, 132062, Note_off_c, 6, 79, 64
18, 132086, Note_on_c, 6, 79, 76
18, 132090, Note_off_c, 6, 78, 64
18, 132116, Note_on_c, 6, 78, 66
18, 132120, Note_off_c, 6, 79, 64
18, 132139, Note_off_c, 6, 78, 64
18, 132140, Note_on_c, 6, 79, 70
18, 132160, Note_on_c, 6, 78, 61
18, 132165, Note_off_c, 6, 79, 64
18, 132181, Note_on_c, 6, 79, 59
18, 132182, Note_off_c, 6, 78, 64
18, 132199, Note_on_c, 6, 78, 57
18, 132208, Note_off_c, 6, 79, 64
18, 132218, Note_on_c, 6, 79, 78
18, 132220, Note_off_c, 6, 78, 64
18, 132238, Note_on_c, 6, 78, 91
18, 132247, Note_off_c, 6, 79, 64
18, 132354, Note_off_c, 6, 78, 64
18, 132415, Note_on_c, 6, 76, 89
18, 132446, Note_off_c, 6, 76, 64
18, 132477, Note_on_c, 6, 76, 95
18, 132717, Note_off_c, 6, 76, 64
18, 132761, Note_on_c, 6, 76, 74
18, 132805, Note_off_c, 6, 76, 64
18, 132824, Note_on_c, 6, 74, 82
18, 132861, Note_off_c, 6, 74, 64
18, 132882, Note_on_c, 6, 73, 68
18, 132919, Note_off_c, 6, 73, 64
18, 132949, Note_on_c, 6, 74, 87
18, 133045, Note_off_c, 6, 74, 64
18, 133130, Note_on_c, 6, 83, 87
18, 133178, Note_off_c, 6, 83, 64
18, 133194, Note_on_c, 6, 76, 98
18, 133272, Note_off_c, 6, 76, 64
18, 133370, Note_on_c, 6, 74, 87
18, 133417, Note_off_c, 6, 74, 64
18, 133433, Note_on_c, 6, 73, 85
18, 133524, Note_off_c, 6, 73, 64
18, 133608, Note_on_c, 6, 69, 74
18, 133654, Note_off_c, 6, 69, 64
18, 133671, Note_on_c, 6, 73, 72
18, 133764, Note_off_c, 6, 73, 64
18, 133852, Note_on_c, 6, 76, 82
18, 133897, Note_off_c, 6, 76, 64
18, 133917, Note_on_c, 6, 81, 89
18, 134229, Note_off_c, 6, 81, 64
18, 134326, Note_on_c, 6, 81, 98
18, 134366, Note_off_c, 6, 81, 64
18, 134390, Note_on_c, 6, 81, 98
18, 134679, Note_off_c, 6, 81, 64
18, 134750, Note_on_c, 6, 71, 82
18, 134776, Note_on_c, 6, 73, 66
18, 134793, Note_off_c, 6, 71, 64
18, 134805, Note_on_c, 6, 74, 78
18, 134810, Note_off_c, 6, 73, 64
18, 134823, Note_on_c, 6, 76, 85
18, 134845, Note_on_c, 6, 78, 85
18, 134847, Note_off_c, 6, 74, 64
18, 134861, Note_off_c, 6, 76, 64
18, 134868, Note_on_c, 6, 79, 89
18, 134880, Note_off_c, 6, 78, 64
18, 135196, Note_off_c, 6, 79, 64
18, 135289, Note_on_c, 6, 79, 91
18, 135322, Note_off_c, 6, 79, 64
18, 135343, Note_on_c, 6, 79, 93
18, 135679, Note_off_c, 6, 79, 64
18, 135742, Note_on_c, 6, 78, 64
18, 135766, Note_on_c, 6, 76, 66
18, 135779, Note_off_c, 6, 78, 64
18, 135781, Note_on_c, 6, 74, 85
18, 135791, Note_off_c, 6, 76, 64
18, 135811, Note_on_c, 6, 73, 105
18, 135817, Note_off_c, 6, 74, 64
18, 135831, Note_on_c, 6, 71, 78
18, 135848, Note_off_c, 6, 73, 64
18, 135853, Note_on_c, 6, 69, 95
18, 135866, Note_off_c, 6, 71, 64
18, 135988, Note_off_c, 6, 69, 64
18, 136024, Note_on_c, 6, 67, 70
18, 136052, Note_on_c, 6, 66, 85
18, 136061, Note_off_c, 6, 67, 64
18, 136076, Note_off_c, 6, 66, 64
18, 136087, Note_on_c, 6, 67, 82
18, 136189, Note_off_c, 6, 67, 64
18, 136252, Note_on_c, 6, 76, 95
18, 136284, Note_off_c, 6, 76, 64
18, 136313, Note_on_c, 6, 66, 93
18, 136562, Note_off_c, 6, 66, 64
18, 136605, Note_on_c, 6, 67, 80
18, 136638, Note_off_c, 6, 67, 64
18, 136663, Note_on_c, 6, 69, 80
18, 136704, Note_off_c, 6, 69, 64
18, 136720, Note_on_c, 6, 71, 93
18, 136758, Note_off_c, 6, 71, 64
18, 136784, Note_on_c, 6, 72, 85
18, 137157, Note_off_c, 6, 72, 64
18, 137210, Note_on_c, 6, 74, 87
18, 137247, Note_off_c, 6, 74, 64
18, 137278, Note_on_c, 6, 71, 89
18, 137543, Note_off_c, 6, 71, 64
18, 137570, Note_on_c, 6, 69, 78
18, 137608, Note_off_c, 6, 69, 64
18, 137628, Note_on_c, 6, 67, 85
18, 137662, Note_off_c, 6, 67, 64
18, 137682, Note_on_c, 6, 66, 87
18, 137727, Note_off_c, 6, 66, 64
18, 137744, Note_on_c, 6, 64, 91
18, 137800, Note_off_c, 6, 64, 64
18, 137810, Note_on_c, 6, 66, 89
18, 137852, Note_off_c, 6, 66, 64
18, 137868, Note_on_c, 6, 67, 85
18, 137916, Note_off_c, 6, 67, 64
18, 137930, Note_on_c, 6, 69, 80
18, 137974, Note_off_c, 6, 69, 64
18, 137991, Note_on_c, 6, 71, 87
18, 138036, Note_off_c, 6, 71, 64
18, 138054, Note_on_c, 6, 73, 82
18, 138100, Note_off_c, 6, 73, 64
18, 138111, Note_on_c, 6, 74, 95
18, 138154, Note_off_c, 6, 74, 64
18, 138167, Note_on_c, 6, 71, 85
18, 138220, Note_off_c, 6, 71, 64
18, 140287, Note_on_c, 6, 69, 87
18, 140336, Note_on_c, 6, 71, 82
18, 140338, Note_off_c, 6, 69, 64
18, 140388, Note_off_c, 6, 71, 64
18, 140399, Note_on_c, 6, 73, 74
18, 140455, Note_off_c, 6, 73, 64
18, 140520, Note_on_c, 6, 73, 57
18, 140570, Note_off_c, 6, 73, 64
18, 140570, Note_on_c, 6, 74, 64
18, 140613, Note_off_c, 6, 74, 64
18, 140629, Note_on_c, 6, 76, 85
18, 140696, Note_off_c, 6, 76, 64
18, 140757, Note_on_c, 6, 73, 56
18, 140806, Note_off_c, 6, 73, 64
18, 140812, Note_on_c, 6, 74, 66
18, 140860, Note_off_c, 6, 74, 64
18, 140873, Note_on_c, 6, 76, 78
18, 140936, Note_off_c, 6, 76, 64
18, 140995, Note_on_c, 6, 76, 63
18, 141043, Note_off_c, 6, 76, 64
18, 141043, Note_on_c, 6, 78, 59
18, 141087, Note_off_c, 6, 78, 64
18, 141104, Note_on_c, 6, 79, 80
18, 141173, Note_off_c, 6, 79, 64
18, 141229, Note_on_c, 6, 79, 70
18, 141275, Note_on_c, 6, 78, 60
18, 141278, Note_off_c, 6, 79, 64
18, 141320, Note_off_c, 6, 78, 64
18, 141342, Note_on_c, 6, 79, 72
18, 141409, Note_off_c, 6, 79, 64
18, 141465, Note_on_c, 6, 81, 70
18, 141513, Note_off_c, 6, 81, 64
18, 141523, Note_on_c, 6, 79, 70
18, 141561, Note_off_c, 6, 79, 64
18, 141586, Note_on_c, 6, 78, 68
18, 141639, Note_off_c, 6, 78, 64
18, 141711, Note_on_c, 6, 81, 82
18, 141752, Note_off_c, 6, 81, 64
18, 141828, Note_on_c, 6, 74, 72
18, 141875, Note_off_c, 6, 74, 64
18, 141954, Note_on_c, 6, 78, 63
18, 142134, Note_off_c, 6, 78, 64
18, 142194, Note_on_c, 6, 81, 76
18, 142238, Note_off_c, 6, 81, 64
18, 142318, Note_on_c, 6, 72, 78
18, 142363, Note_off_c, 6, 72, 64
18, 142440, Note_on_c, 6, 78, 66
18, 142608, Note_off_c, 6, 78, 64
18, 142675, Note_on_c, 6, 81, 82
18, 142733, Note_off_c, 6, 81, 64
18, 142800, Note_on_c, 6, 74, 74
18, 142853, Note_off_c, 6, 74, 64
18, 142916, Note_on_c, 6, 78, 57
18, 142974, Note_off_c, 6, 78, 64
18, 143038, Note_on_c, 6, 79, 82
18, 143084, Note_off_c, 6, 79, 64
18, 143160, Note_on_c, 6, 83, 82
18, 143205, Note_off_c, 6, 83, 64
18, 143279, Note_on_c, 6, 74, 80
18, 143328, Note_off_c, 6, 74, 64
18, 143400, Note_on_c, 6, 80, 80
18, 143566, Note_off_c, 6, 80, 64
18, 143634, Note_on_c, 6, 83, 80
18, 143683, Note_off_c, 6, 83, 64
18, 143751, Note_on_c, 6, 76, 74
18, 143803, Note_off_c, 6, 76, 64
18, 143874, Note_on_c, 6, 80, 72
18, 143924, Note_off_c, 6, 80, 64
18, 143997, Note_on_c, 6, 81, 78
18, 144056, Note_on_c, 6, 76, 70
18, 144059, Note_off_c, 6, 81, 64
18, 144096, Note_off_c, 6, 76, 64
18, 144114, Note_on_c, 6, 73, 68
18, 144162, Note_off_c, 6, 73, 64
18, 144166, Note_on_c, 6, 74, 68
18, 144216, Note_off_c, 6, 74, 64
18, 144228, Note_on_c, 6, 76, 63
18, 144282, Note_off_c, 6, 76, 64
18, 144286, Note_on_c, 6, 78, 58
18, 144340, Note_off_c, 6, 78, 64
18, 144347, Note_on_c, 6, 76, 53
18, 144405, Note_on_c, 6, 78, 66
18, 144410, Note_off_c, 6, 76, 64
18, 144453, Note_off_c, 6, 78, 64
18, 144467, Note_on_c, 6, 79, 85
18, 144525, Note_on_c, 6, 76, 68
18, 144531, Note_off_c, 6, 79, 64
18, 144570, Note_off_c, 6, 76, 64
18, 144584, Note_on_c, 6, 69, 57
18, 144644, Note_on_c, 6, 71, 61
18, 144648, Note_off_c, 6, 69, 64
18, 144693, Note_off_c, 6, 71, 64
18, 144702, Note_on_c, 6, 73, 52
18, 144753, Note_on_c, 6, 74, 61
18, 144769, Note_off_c, 6, 73, 64
18, 144809, Note_off_c, 6, 74, 64
18, 144821, Note_on_c, 6, 73, 52
18, 144873, Note_off_c, 6, 73, 64
18, 144873, Note_on_c, 6, 74, 62
18, 144934, Note_off_c, 6, 74, 64
18, 144941, Note_on_c, 6, 76, 82
18, 144999, Note_on_c, 6, 74, 68
18, 145009, Note_off_c, 6, 76, 64
18, 145058, Note_on_c, 6, 73, 47
18, 145059, Note_off_c, 6, 74, 64
18, 145114, Note_on_c, 6, 74, 63
18, 145121, Note_off_c, 6, 73, 64
18, 145162, Note_off_c, 6, 74, 64
18, 145179, Note_on_c, 6, 76, 82
18, 145232, Note_on_c, 6, 74, 68
18, 145245, Note_off_c, 6, 76, 64
18, 145294, Note_on_c, 6, 73, 53
18, 145304, Note_off_c, 6, 74, 64
18, 145348, Note_on_c, 6, 71, 55
18, 145351, Note_off_c, 6, 73, 64
18, 145417, Note_off_c, 6, 71, 64
18, 145417, Note_on_c, 6, 69, 63
18, 145482, Note_on_c, 6, 74, 72
18, 145485, Note_off_c, 6, 69, 64
18, 145537, Note_on_c, 6, 73, 63
18, 145557, Note_off_c, 6, 74, 64
18, 145593, Note_on_c, 6, 71, 63
18, 145606, Note_off_c, 6, 73, 64
18, 145647, Note_off_c, 6, 71, 64
18, 145652, Note_on_c, 6, 69, 76
18, 145709, Note_on_c, 6, 67, 53
18, 145716, Note_off_c, 6, 69, 64
18, 145769, Note_off_c, 6, 67, 64
18, 145772, Note_on_c, 6, 66, 57
18, 145820, Note_off_c, 6, 66, 64
18, 145822, Note_on_c, 6, 64, 59
18, 145864, Note_off_c, 6, 64, 64
18, 145895, Note_on_c, 6, 62, 55
18, 145973, Note_off_c, 6, 62, 64
18, 146034, Note_on_c, 6, 74, 62
18, 146134, Note_off_c, 6, 74, 64
18, 146157, Note_on_c, 6, 74, 64
18, 146250, Note_off_c, 6, 74, 64
18, 146271, Note_on_c, 6, 74, 63
18, 146368, Note_off_c, 6, 74, 64
18, 146393, Note_on_c, 6, 74, 66
18, 146487, Note_off_c, 6, 74, 64
18, 146512, Note_on_c, 6, 74, 61
18, 146603, Note_off_c, 6, 74, 64
18, 146626, Note_on_c, 6, 74, 60
18, 146723, Note_off_c, 6, 74, 64
18, 146750, Note_on_c, 6, 74, 64
18, 146841, Note_off_c, 6, 74, 64
18, 146863, Note_on_c, 6, 74, 66
18, 146963, Note_off_c, 6, 74, 64
18, 146984, Note_on_c, 6, 76, 70
18, 147082, Note_off_c, 6, 76, 64
18, 147104, Note_on_c, 6, 76, 66
18, 147204, Note_off_c, 6, 76, 64
18, 147227, Note_on_c, 6, 76, 72
18, 147317, Note_off_c, 6, 76, 64
18, 147339, Note_on_c, 6, 76, 76
18, 147440, Note_off_c, 6, 76, 64
18, 147465, Note_on_c, 6, 76, 68
18, 147562, Note_off_c, 6, 76, 64
18, 147587, Note_on_c, 6, 76, 68
18, 147675, Note_off_c, 6, 76, 64
18, 147704, Note_on_c, 6, 76, 61
18, 147789, Note_off_c, 6, 76, 64
18, 147825, Note_on_c, 6, 76, 68
18, 147914, Note_off_c, 6, 76, 64
18, 147944, Note_on_c, 6, 76, 70
18, 148030, Note_off_c, 6, 76, 64
18, 148063, Note_on_c, 6, 76, 76
18, 148147, Note_off_c, 6, 76, 64
18, 148182, Note_on_c, 6, 76, 78
18, 148259, Note_off_c, 6, 76, 64
18, 148299, Note_on_c, 6, 76, 87
18, 148374, Note_off_c, 6, 76, 64
18, 148421, Note_on_c, 6, 69, 57
18, 148471, Note_on_c, 6, 71, 58
18, 148472, Note_off_c, 6, 69, 64
18, 148513, Note_off_c, 6, 71, 64
18, 148535, Note_on_c, 6, 73, 87
18, 148602, Note_off_c, 6, 73, 64
18, 148664, Note_on_c, 6, 73, 57
18, 148719, Note_off_c, 6, 73, 64
18, 148722, Note_on_c, 6, 74, 72
18, 148760, Note_off_c, 6, 74, 64
18, 148784, Note_on_c, 6, 76, 82
18, 148853, Note_off_c, 6, 76, 64
18, 148903, Note_on_c, 6, 73, 53
18, 148958, Note_off_c, 6, 73, 64
18, 148963, Note_on_c, 6, 74, 68
18, 149004, Note_off_c, 6, 74, 64
18, 149024, Note_on_c, 6, 76, 80
18, 149080, Note_off_c, 6, 76, 64
18, 149145, Note_on_c, 6, 76, 64
18, 149195, Note_on_c, 6, 78, 64
18, 149200, Note_off_c, 6, 76, 64
18, 149245, Note_off_c, 6, 78, 64
18, 149263, Note_on_c, 6, 79, 85
18, 149325, Note_off_c, 6, 79, 64
18, 149383, Note_on_c, 6, 79, 76
18, 149432, Note_on_c, 6, 78, 60
18, 149441, Note_off_c, 6, 79, 64
18, 149484, Note_off_c, 6, 78, 64
18, 149500, Note_on_c, 6, 79, 82
18, 149579, Note_off_c, 6, 79, 64
18, 149620, Note_on_c, 6, 81, 66
18, 149670, Note_off_c, 6, 81, 64
18, 149675, Note_on_c, 6, 79, 78
18, 149723, Note_off_c, 6, 79, 64
18, 149744, Note_on_c, 6, 78, 82
18, 149819, Note_off_c, 6, 78, 64
18, 149871, Note_on_c, 6, 78, 60
18, 149918, Note_off_c, 6, 78, 64
18, 149918, Note_on_c, 6, 76, 63
18, 149961, Note_off_c, 6, 76, 64
18, 149982, Note_on_c, 6, 78, 80
18, 150065, Note_off_c, 6, 78, 64
18, 150113, Note_on_c, 6, 79, 72
18, 150151, Note_off_c, 6, 79, 64
18, 150163, Note_on_c, 6, 78, 68
18, 150203, Note_off_c, 6, 78, 64
18, 150225, Note_on_c, 6, 76, 66
18, 150307, Note_off_c, 6, 76, 64
18, 150353, Note_on_c, 6, 76, 62
18, 150401, Note_off_c, 6, 76, 64
18, 150402, Note_on_c, 6, 74, 70
18, 150446, Note_off_c, 6, 74, 64
18, 150467, Note_on_c, 6, 76, 80
18, 150546, Note_off_c, 6, 76, 64
18, 150588, Note_on_c, 6, 78, 66
18, 150639, Note_off_c, 6, 78, 64
18, 150641, Note_on_c, 6, 76, 68
18, 150684, Note_off_c, 6, 76, 64
18, 150708, Note_on_c, 6, 74, 85
18, 150777, Note_off_c, 6, 74, 64
18, 150834, Note_on_c, 6, 74, 91
18, 150881, Note_on_c, 6, 76, 85
18, 150890, Note_off_c, 6, 74, 64
18, 150926, Note_off_c, 6, 76, 64
18, 150946, Note_on_c, 6, 78, 100
18, 151017, Note_off_c, 6, 78, 64
18, 151070, Note_on_c, 6, 78, 70
18, 151117, Note_off_c, 6, 78, 64
18, 151122, Note_on_c, 6, 79, 82
18, 151162, Note_off_c, 6, 79, 64
18, 151183, Note_on_c, 6, 81, 100
18, 151260, Note_off_c, 6, 81, 64
18, 151304, Note_on_c, 6, 78, 66
18, 151353, Note_off_c, 6, 78, 64
18, 151363, Note_on_c, 6, 79, 85
18, 151406, Note_off_c, 6, 79, 64
18, 151426, Note_on_c, 6, 81, 91
18, 151502, Note_off_c, 6, 81, 64
18, 151554, Note_on_c, 6, 81, 76
18, 151603, Note_on_c, 6, 83, 82
18, 151608, Note_off_c, 6, 81, 64
18, 151648, Note_off_c, 6, 83, 64
18, 151667, Note_on_c, 6, 84, 89
18, 151730, Note_off_c, 6, 84, 64
18, 151794, Note_on_c, 6, 84, 78
18, 151843, Note_on_c, 6, 83, 64
18, 151849, Note_off_c, 6, 84, 64
18, 151885, Note_off_c, 6, 83, 64
18, 151905, Note_on_c, 6, 84, 95
18, 151966, Note_off_c, 6, 84, 64
18, 152035, Note_on_c, 6, 86, 85
18, 152089, Note_on_c, 6, 84, 76
18, 152100, Note_off_c, 6, 86, 64
18, 152126, Note_off_c, 6, 84, 64
18, 152151, Note_on_c, 6, 83, 91
18, 152202, Note_off_c, 6, 83, 64
18, 152202, Note_on_c, 6, 79, 66
18, 152242, Note_off_c, 6, 79, 64
18, 152265, Note_on_c, 6, 76, 59
18, 152319, Note_on_c, 6, 78, 53
18, 152334, Note_off_c, 6, 76, 64
18, 152371, Note_off_c, 6, 78, 64
18, 152379, Note_on_c, 6, 79, 59
18, 152439, Note_off_c, 6, 79, 64
18, 152442, Note_on_c, 6, 81, 62
18, 152488, Note_off_c, 6, 81, 64
18, 152498, Note_on_c, 6, 78, 54
18, 152541, Note_off_c, 6, 78, 64
18, 152555, Note_on_c, 6, 79, 70
18, 152600, Note_off_c, 6, 79, 64
18, 152618, Note_on_c, 6, 81, 80
18, 152670, Note_on_c, 6, 78, 53
18, 152671, Note_off_c, 6, 81, 64
18, 152713, Note_off_c, 6, 78, 64
18, 152735, Note_on_c, 6, 74, 70
18, 152786, Note_off_c, 6, 74, 64
18, 152795, Note_on_c, 6, 76, 66
18, 152841, Note_off_c, 6, 76, 64
18, 152862, Note_on_c, 6, 78, 82
18, 152918, Note_on_c, 6, 79, 70
18, 152925, Note_off_c, 6, 78, 64
18, 152958, Note_off_c, 6, 79, 64
18, 152978, Note_on_c, 6, 76, 64
18, 153032, Note_off_c, 6, 76, 64
18, 153033, Note_on_c, 6, 78, 62
18, 153078, Note_off_c, 6, 78, 64
18, 153104, Note_on_c, 6, 79, 87
18, 153153, Note_on_c, 6, 78, 66
18, 153161, Note_off_c, 6, 79, 64
18, 153206, Note_off_c, 6, 78, 64
18, 153217, Note_on_c, 6, 76, 60
18, 153254, Note_off_c, 6, 76, 64
18, 153275, Note_on_c, 6, 79, 72
18, 153320, Note_off_c, 6, 79, 64
18, 153344, Note_on_c, 6, 78, 89
18, 153396, Note_on_c, 6, 76, 62
18, 153414, Note_off_c, 6, 78, 64
18, 153447, Note_off_c, 6, 76, 64
18, 153459, Note_on_c, 6, 74, 57
18, 153508, Note_off_c, 6, 74, 64
18, 153515, Note_on_c, 6, 78, 58
18, 153557, Note_off_c, 6, 78, 64
18, 153586, Note_on_c, 6, 76, 87
18, 153644, Note_off_c, 6, 76, 64
18, 153644, Note_on_c, 6, 81, 85
18, 153692, Note_off_c, 6, 81, 64
18, 153704, Note_on_c, 6, 73, 57
18, 153752, Note_off_c, 6, 73, 64
18, 153762, Note_on_c, 6, 74, 66
18, 153811, Note_off_c, 6, 74, 64
18, 153823, Note_on_c, 6, 76, 76
18, 153879, Note_on_c, 6, 78, 63
18, 153887, Note_off_c, 6, 76, 64
18, 153923, Note_off_c, 6, 78, 64
18, 153936, Note_on_c, 6, 76, 66
18, 153993, Note_on_c, 6, 78, 58
18, 154004, Note_off_c, 6, 76, 64
18, 154040, Note_off_c, 6, 78, 64
18, 154064, Note_on_c, 6, 79, 87
18, 154115, Note_on_c, 6, 76, 63
18, 154124, Note_off_c, 6, 79, 64
18, 154162, Note_off_c, 6, 76, 64
18, 154177, Note_on_c, 6, 69, 60
18, 154233, Note_on_c, 6, 71, 64
18, 154246, Note_off_c, 6, 69, 64
18, 154281, Note_off_c, 6, 71, 64
18, 154298, Note_on_c, 6, 73, 61
18, 154352, Note_on_c, 6, 74, 68
18, 154362, Note_off_c, 6, 73, 64
18, 154396, Note_off_c, 6, 74, 64
18, 154416, Note_on_c, 6, 73, 82
18, 154472, Note_on_c, 6, 74, 68
18, 154473, Note_off_c, 6, 73, 64
18, 154520, Note_off_c, 6, 74, 64
18, 154541, Note_on_c, 6, 76, 85
18, 154592, Note_on_c, 6, 74, 68
18, 154605, Note_off_c, 6, 76, 64
18, 154645, Note_off_c, 6, 74, 64
18, 154647, Note_on_c, 6, 73, 64
18, 154695, Note_off_c, 6, 73, 64
18, 154706, Note_on_c, 6, 74, 70
18, 154753, Note_off_c, 6, 74, 64
18, 154776, Note_on_c, 6, 76, 70
18, 154833, Note_off_c, 6, 76, 64
18, 154834, Note_on_c, 6, 79, 87
18, 154888, Note_off_c, 6, 79, 64
18, 154893, Note_on_c, 6, 78, 74
18, 154947, Note_off_c, 6, 78, 64
18, 154952, Note_on_c, 6, 76, 62
18, 155005, Note_off_c, 6, 76, 64
18, 155023, Note_on_c, 6, 81, 89
18, 155075, Note_on_c, 6, 79, 70
18, 155089, Note_off_c, 6, 81, 64
18, 155138, Note_off_c, 6, 79, 64
18, 155147, Note_on_c, 6, 78, 93
18, 155195, Note_off_c, 6, 78, 64
18, 155205, Note_on_c, 6, 79, 70
18, 155246, Note_off_c, 6, 79, 64
18, 155264, Note_on_c, 6, 81, 87
18, 155310, Note_off_c, 6, 81, 64
18, 155316, Note_on_c, 6, 78, 66
18, 155372, Note_off_c, 6, 78, 64
18, 155380, Note_on_c, 6, 74, 72
18, 155436, Note_on_c, 6, 78, 63
18, 155447, Note_off_c, 6, 74, 64
18, 155480, Note_off_c, 6, 78, 64
18, 155502, Note_on_c, 6, 79, 82
18, 155555, Note_on_c, 6, 78, 80
18, 155557, Note_off_c, 6, 79, 64
18, 155600, Note_off_c, 6, 78, 64
18, 155614, Note_on_c, 6, 76, 63
18, 155669, Note_on_c, 6, 78, 60
18, 155680, Note_off_c, 6, 76, 64
18, 155720, Note_off_c, 6, 78, 64
18, 155741, Note_on_c, 6, 79, 74
18, 155785, Note_off_c, 6, 79, 64
18, 155799, Note_on_c, 6, 83, 85
18, 155855, Note_off_c, 6, 83, 64
18, 155856, Note_on_c, 6, 81, 63
18, 155907, Note_off_c, 6, 81, 64
18, 155919, Note_on_c, 6, 79, 66
18, 155951, Note_off_c, 6, 79, 64
18, 155984, Note_on_c, 6, 78, 78
18, 156038, Note_off_c, 6, 78, 64
18, 156108, Note_on_c, 6, 74, 85
18, 156161, Note_off_c, 6, 74, 64
18, 156232, Note_on_c, 6, 71, 85
18, 156287, Note_off_c, 6, 71, 64
18, 156352, Note_on_c, 6, 76, 80
18, 156416, Note_off_c, 6, 76, 64
18, 156478, Note_on_c, 6, 73, 100
18, 156531, Note_on_c, 6, 69, 82
18, 156532, Note_off_c, 6, 73, 64
18, 156586, Note_on_c, 6, 71, 66
18, 156589, Note_off_c, 6, 69, 64
18, 156651, Note_on_c, 6, 73, 64
18, 156654, Note_off_c, 6, 71, 64
18, 156698, Note_off_c, 6, 73, 64
18, 156711, Note_on_c, 6, 74, 82
18, 156770, Note_off_c, 6, 74, 64
18, 156771, Note_on_c, 6, 76, 80
18, 156821, Note_off_c, 6, 76, 64
18, 156832, Note_on_c, 6, 78, 85
18, 156872, Note_off_c, 6, 78, 64
18, 156887, Note_on_c, 6, 79, 80
18, 156930, Note_off_c, 6, 79, 64
18, 156950, Note_on_c, 6, 78, 93
18, 157004, Note_off_c, 6, 78, 64
18, 157006, Note_on_c, 6, 76, 82
18, 157056, Note_off_c, 6, 76, 64
18, 157066, Note_on_c, 6, 74, 72
18, 157124, Note_off_c, 6, 74, 64
18, 157127, Note_on_c, 6, 76, 70
18, 157159, Note_off_c, 6, 76, 64
18, 157193, Note_on_c, 6, 69, 80
18, 157248, Note_off_c, 6, 69, 64
18, 157310, Note_on_c, 6, 73, 80
18, 157363, Note_off_c, 6, 73, 64
18, 157432, Note_on_c, 6, 74, 85
18, 157489, Note_off_c, 6, 74, 64
18, 172299, Note_on_c, 6, 76, 85
18, 172449, Note_off_c, 6, 76, 64
18, 172482, Note_on_c, 6, 78, 64
18, 172507, Note_off_c, 6, 78, 64
18, 172544, Note_on_c, 6, 73, 102
18, 172574, Note_off_c, 6, 73, 64
18, 172578, Note_on_c, 6, 71, 78
18, 172603, Note_on_c, 6, 73, 63
18, 172613, Note_off_c, 6, 71, 64
18, 172630, Note_on_c, 6, 71, 82
18, 172651, Note_off_c, 6, 73, 64
18, 172696, Note_off_c, 6, 71, 64
18, 172712, Note_on_c, 6, 69, 72
18, 172750, Note_off_c, 6, 69, 64
18, 172795, Note_on_c, 6, 69, 98
18, 172850, Note_on_c, 6, 71, 82
18, 172863, Note_off_c, 6, 69, 64
18, 172912, Note_on_c, 6, 73, 57
18, 172917, Note_off_c, 6, 71, 64
18, 172956, Note_off_c, 6, 73, 64
18, 172966, Note_on_c, 6, 74, 68
18, 173025, Note_off_c, 6, 74, 64
18, 173026, Note_on_c, 6, 76, 68
18, 173087, Note_on_c, 6, 78, 76
18, 173092, Note_off_c, 6, 76, 64
18, 173123, Note_off_c, 6, 78, 64
18, 173140, Note_on_c, 6, 76, 87
18, 173195, Note_on_c, 6, 78, 89
18, 173207, Note_off_c, 6, 76, 64
18, 173242, Note_off_c, 6, 78, 64
18, 173264, Note_on_c, 6, 79, 100
18, 173320, Note_on_c, 6, 76, 70
18, 173330, Note_off_c, 6, 79, 64
18, 173363, Note_off_c, 6, 76, 64
18, 173383, Note_on_c, 6, 69, 52
18, 173439, Note_on_c, 6, 71, 56
18, 173451, Note_off_c, 6, 69, 64
18, 173490, Note_off_c, 6, 71, 64
18, 173500, Note_on_c, 6, 73, 66
18, 173555, Note_on_c, 6, 74, 82
18, 173567, Note_off_c, 6, 73, 64
18, 173600, Note_off_c, 6, 74, 64
18, 173612, Note_on_c, 6, 73, 80
18, 173656, Note_off_c, 6, 73, 64
18, 173669, Note_on_c, 6, 74, 91
18, 173716, Note_off_c, 6, 74, 64
18, 173735, Note_on_c, 6, 76, 102
18, 173791, Note_on_c, 6, 74, 78
18, 173796, Note_off_c, 6, 76, 64
18, 173845, Note_off_c, 6, 74, 64
18, 173849, Note_on_c, 6, 73, 48
18, 173909, Note_on_c, 6, 74, 74
18, 173913, Note_off_c, 6, 73, 64
18, 173960, Note_off_c, 6, 74, 64
18, 173979, Note_on_c, 6, 76, 100
18, 174033, Note_on_c, 6, 74, 76
18, 174048, Note_off_c, 6, 76, 64
18, 174098, Note_on_c, 6, 73, 55
18, 174104, Note_off_c, 6, 74, 64
18, 174155, Note_on_c, 6, 71, 74
18, 174159, Note_off_c, 6, 73, 64
18, 174205, Note_off_c, 6, 71, 64
18, 174223, Note_on_c, 6, 69, 91
18, 174281, Note_off_c, 6, 69, 64
18, 174348, Note_on_c, 6, 78, 95
18, 174390, Note_off_c, 6, 78, 64
18, 174473, Note_on_c, 6, 71, 85
18, 174522, Note_off_c, 6, 71, 64
18, 174590, Note_on_c, 6, 75, 82
18, 174759, Note_off_c, 6, 75, 64
18, 174830, Note_on_c, 6, 78, 80
18, 174874, Note_off_c, 6, 78, 64
18, 174950, Note_on_c, 6, 69, 82
18, 174993, Note_off_c, 6, 69, 64
18, 175072, Note_on_c, 6, 75, 85
18, 175232, Note_off_c, 6, 75, 64
18, 175302, Note_on_c, 6, 78, 68
18, 175348, Note_off_c, 6, 78, 64
18, 175424, Note_on_c, 6, 71, 80
18, 175474, Note_off_c, 6, 71, 64
18, 175544, Note_on_c, 6, 75, 82
18, 175594, Note_off_c, 6, 75, 64
18, 175664, Note_on_c, 6, 76, 89
18, 175749, Note_off_c, 6, 76, 64
18, 175786, Note_on_c, 6, 64, 62
18, 175836, Note_on_c, 6, 66, 70
18, 175840, Note_off_c, 6, 64, 64
18, 175883, Note_off_c, 6, 66, 64
18, 175900, Note_on_c, 6, 68, 72
18, 175958, Note_off_c, 6, 68, 64
18, 176020, Note_on_c, 6, 68, 78
18, 176070, Note_on_c, 6, 69, 80
18, 176072, Note_off_c, 6, 68, 64
18, 176119, Note_off_c, 6, 69, 64
18, 176134, Note_on_c, 6, 71, 95
18, 176207, Note_off_c, 6, 71, 64
18, 176264, Note_on_c, 6, 68, 70
18, 176317, Note_off_c, 6, 68, 64
18, 176321, Note_on_c, 6, 69, 80
18, 176365, Note_off_c, 6, 69, 64
18, 176384, Note_on_c, 6, 71, 89
18, 176453, Note_off_c, 6, 71, 64
18, 176504, Note_on_c, 6, 71, 85
18, 176557, Note_on_c, 6, 73, 87
18, 176567, Note_off_c, 6, 71, 64
18, 176603, Note_off_c, 6, 73, 64
18, 176616, Note_on_c, 6, 74, 89
18, 176679, Note_off_c, 6, 74, 64
18, 176743, Note_on_c, 6, 74, 85
18, 176792, Note_off_c, 6, 74, 64
18, 176795, Note_on_c, 6, 73, 80
18, 176843, Note_off_c, 6, 73, 64
18, 176856, Note_on_c, 6, 74, 89
18, 176935, Note_off_c, 6, 74, 64
18, 176982, Note_on_c, 6, 76, 78
18, 177029, Note_off_c, 6, 76, 64
18, 177034, Note_on_c, 6, 74, 82
18, 177086, Note_off_c, 6, 74, 64
18, 177098, Note_on_c, 6, 73, 80
18, 177164, Note_off_c, 6, 73, 64
18, 177224, Note_on_c, 6, 73, 78
18, 177262, Note_off_c, 6, 73, 64
18, 177272, Note_on_c, 6, 71, 78
18, 177312, Note_off_c, 6, 71, 64
18, 177338, Note_on_c, 6, 73, 80
18, 177440, Note_off_c, 6, 73, 64
18, 177464, Note_on_c, 6, 74, 70
18, 177500, Note_off_c, 6, 74, 64
18, 177512, Note_on_c, 6, 73, 72
18, 177557, Note_off_c, 6, 73, 64
18, 177575, Note_on_c, 6, 71, 82
18, 177644, Note_off_c, 6, 71, 64
18, 177704, Note_on_c, 6, 71, 72
18, 177752, Note_off_c, 6, 71, 64
18, 177756, Note_on_c, 6, 69, 82
18, 177800, Note_off_c, 6, 69, 64
18, 177819, Note_on_c, 6, 71, 91
18, 177922, Note_off_c, 6, 71, 64
18, 177944, Note_on_c, 6, 73, 58
18, 177996, Note_off_c, 6, 73, 64
18, 177997, Note_on_c, 6, 71, 62
18, 178045, Note_off_c, 6, 71, 64
18, 178062, Note_on_c, 6, 69, 80
18, 178129, Note_off_c, 6, 69, 64
18, 178188, Note_on_c, 6, 69, 82
18, 178236, Note_on_c, 6, 71, 78
18, 178243, Note_off_c, 6, 69, 64
18, 178286, Note_off_c, 6, 71, 64
18, 178300, Note_on_c, 6, 73, 87
18, 178354, Note_off_c, 6, 73, 64
18, 178419, Note_on_c, 6, 73, 68
18, 178467, Note_on_c, 6, 74, 80
18, 178470, Note_off_c, 6, 73, 64
18, 178511, Note_off_c, 6, 74, 64
18, 178529, Note_on_c, 6, 76, 98
18, 178603, Note_off_c, 6, 76, 64
18, 178656, Note_on_c, 6, 73, 70
18, 178708, Note_on_c, 6, 74, 80
18, 178709, Note_off_c, 6, 73, 64
18, 178757, Note_off_c, 6, 74, 64
18, 178776, Note_on_c, 6, 76, 93
18, 178844, Note_off_c, 6, 76, 64
18, 178912, Note_on_c, 6, 76, 82
18, 178961, Note_on_c, 6, 78, 68
18, 178966, Note_off_c, 6, 76, 64
18, 179008, Note_off_c, 6, 78, 64
18, 179025, Note_on_c, 6, 79, 100
18, 179087, Note_off_c, 6, 79, 64
18, 179153, Note_on_c, 6, 79, 80
18, 179198, Note_off_c, 6, 79, 64
18, 179200, Note_on_c, 6, 78, 74
18, 179251, Note_off_c, 6, 78, 64
18, 179267, Note_on_c, 6, 79, 93
18, 179340, Note_off_c, 6, 79, 64
18, 179390, Note_on_c, 6, 81, 85
18, 179442, Note_on_c, 6, 79, 78
18, 179456, Note_off_c, 6, 81, 64
18, 179481, Note_off_c, 6, 79, 64
18, 179505, Note_on_c, 6, 78, 93
18, 179558, Note_on_c, 6, 74, 80
18, 179568, Note_off_c, 6, 78, 64
18, 179608, Note_off_c, 6, 74, 64
18, 179622, Note_on_c, 6, 71, 57
18, 179681, Note_on_c, 6, 73, 62
18, 179693, Note_off_c, 6, 71, 64
18, 179733, Note_off_c, 6, 73, 64
18, 179734, Note_on_c, 6, 74, 72
18, 179787, Note_on_c, 6, 76, 80
18, 179799, Note_off_c, 6, 74, 64
18, 179840, Note_off_c, 6, 76, 64
18, 179851, Note_on_c, 6, 73, 54
18, 179901, Note_off_c, 6, 73, 64
18, 179912, Note_on_c, 6, 74, 74
18, 179958, Note_off_c, 6, 74, 64
18, 179982, Note_on_c, 6, 76, 95
18, 180033, Note_on_c, 6, 73, 61
18, 180044, Note_off_c, 6, 76, 64
18, 180085, Note_off_c, 6, 73, 64
18, 180095, Note_on_c, 6, 70, 70
18, 180148, Note_off_c, 6, 70, 64
18, 180152, Note_on_c, 6, 71, 68
18, 180205, Note_off_c, 6, 71, 64
18, 180219, Note_on_c, 6, 73, 66
18, 180275, Note_on_c, 6, 74, 72
18, 180289, Note_off_c, 6, 73, 64
18, 180322, Note_off_c, 6, 74, 64
18, 180337, Note_on_c, 6, 71, 64
18, 180385, Note_off_c, 6, 71, 64
18, 180397, Note_on_c, 6, 73, 64
18, 180442, Note_off_c, 6, 73, 64
18, 180461, Note_on_c, 6, 74, 91
18, 180517, Note_on_c, 6, 76, 80
18, 180528, Note_off_c, 6, 74, 64
18, 180569, Note_off_c, 6, 76, 64
18, 180581, Note_on_c, 6, 73, 53
18, 180636, Note_on_c, 6, 74, 72
18, 180642, Note_off_c, 6, 73, 64
18, 180686, Note_off_c, 6, 74, 64
18, 180705, Note_on_c, 6, 76, 87
18, 180759, Note_on_c, 6, 74, 72
18, 180775, Note_off_c, 6, 76, 64
18, 180820, Note_on_c, 6, 73, 58
18, 180830, Note_off_c, 6, 74, 64
18, 180871, Note_off_c, 6, 73, 64
18, 180877, Note_on_c, 6, 71, 66
18, 180926, Note_off_c, 6, 71, 64
18, 180938, Note_on_c, 6, 78, 52
18, 181052, Note_off_c, 6, 78, 64
18, 181071, Note_on_c, 6, 78, 62
18, 181162, Note_off_c, 6, 78, 64
18, 181187, Note_on_c, 6, 78, 61
18, 181291, Note_off_c, 6, 78, 64
18, 181311, Note_on_c, 6, 78, 59
18, 181409, Note_off_c, 6, 78, 64
18, 181431, Note_on_c, 6, 78, 64
18, 181536, Note_off_c, 6, 78, 64
18, 181557, Note_on_c, 6, 78, 64
18, 181645, Note_off_c, 6, 78, 64
18, 181670, Note_on_c, 6, 78, 64
18, 181767, Note_off_c, 6, 78, 64
18, 181785, Note_on_c, 6, 78, 63
18, 181880, Note_off_c, 6, 78, 64
18, 181904, Note_on_c, 6, 78, 66
18, 182006, Note_off_c, 6, 78, 64
18, 182024, Note_on_c, 6, 78, 64
18, 182127, Note_off_c, 6, 78, 64
18, 182152, Note_on_c, 6, 78, 82
18, 182240, Note_off_c, 6, 78, 64
18, 182268, Note_on_c, 6, 78, 82
18, 182343, Note_off_c, 6, 78, 64
18, 182386, Note_on_c, 6, 78, 93
18, 182436, Note_on_c, 6, 76, 80
18, 182450, Note_off_c, 6, 78, 64
18, 182491, Note_on_c, 6, 78, 82
18, 182504, Note_off_c, 6, 76, 64
18, 182552, Note_on_c, 6, 79, 82
18, 182560, Note_off_c, 6, 78, 64
18, 182608, Note_off_c, 6, 79, 64
18, 182621, Note_on_c, 6, 78, 95
18, 182669, Note_off_c, 6, 78, 64
18, 182679, Note_on_c, 6, 83, 89
18, 182735, Note_on_c, 6, 82, 80
18, 182740, Note_off_c, 6, 83, 64
18, 182792, Note_on_c, 6, 83, 80
18, 182800, Note_off_c, 6, 82, 64
18, 182842, Note_off_c, 6, 83, 64
18, 182858, Note_on_c, 6, 76, 85
18, 182911, Note_on_c, 6, 74, 68
18, 182922, Note_off_c, 6, 76, 64
18, 182961, Note_off_c, 6, 74, 64
18, 182973, Note_on_c, 6, 76, 64
18, 183025, Note_off_c, 6, 76, 64
18, 183027, Note_on_c, 6, 78, 61
18, 183076, Note_off_c, 6, 78, 64
18, 183096, Note_on_c, 6, 76, 85
18, 183144, Note_off_c, 6, 76, 64
18, 183154, Note_on_c, 6, 79, 89
18, 183210, Note_on_c, 6, 78, 87
18, 183220, Note_off_c, 6, 79, 64
18, 183262, Note_off_c, 6, 78, 64
18, 183267, Note_on_c, 6, 76, 82
18, 183312, Note_off_c, 6, 76, 64
18, 183333, Note_on_c, 6, 74, 89
18, 183395, Note_off_c, 6, 74, 64
18, 183464, Note_on_c, 6, 78, 85
18, 183520, Note_off_c, 6, 78, 64
18, 183584, Note_on_c, 6, 79, 91
18, 183632, Note_off_c, 6, 79, 64
18, 183709, Note_on_c, 6, 71, 85
18, 183768, Note_off_c, 6, 71, 64
18, 183826, Note_on_c, 6, 70, 72
18, 183884, Note_on_c, 6, 66, 78
18, 183893, Note_off_c, 6, 70, 64
18, 183936, Note_on_c, 6, 68, 61
18, 183949, Note_off_c, 6, 66, 64
18, 183993, Note_on_c, 6, 70, 70
18, 184011, Note_off_c, 6, 68, 64
18, 184042, Note_off_c, 6, 70, 64
18, 184057, Note_on_c, 6, 71, 80
18, 184119, Note_on_c, 6, 73, 61
18, 184128, Note_off_c, 6, 71, 64
18, 184176, Note_on_c, 6, 74, 78
18, 184180, Note_off_c, 6, 73, 64
18, 184231, Note_off_c, 6, 74, 64
18, 184235, Note_on_c, 6, 76, 78
18, 184292, Note_off_c, 6, 76, 64
18, 184298, Note_on_c, 6, 78, 68
18, 184360, Note_on_c, 6, 79, 72
18, 184370, Note_off_c, 6, 78, 64
18, 184423, Note_on_c, 6, 78, 62
18, 184433, Note_off_c, 6, 79, 64
18, 184480, Note_on_c, 6, 76, 68
18, 184493, Note_off_c, 6, 78, 64
18, 184544, Note_off_c, 6, 76, 64
18, 184544, Note_on_c, 6, 74, 62
18, 184601, Note_on_c, 6, 73, 68
18, 184602, Note_off_c, 6, 74, 64
18, 184664, Note_off_c, 6, 73, 64
18, 184664, Note_on_c, 6, 71, 70
18, 184723, Note_on_c, 6, 70, 68
18, 184732, Note_off_c, 6, 71, 64
18, 184768, Note_off_c, 6, 70, 64
18, 184791, Note_on_c, 6, 71, 93
18, 184840, Note_off_c, 6, 71, 64
18, 184915, Note_on_c, 6, 73, 80
18, 184967, Note_off_c, 6, 73, 64
18, 185037, Note_on_c, 6, 66, 82
18, 185082, Note_off_c, 6, 66, 64
18, 185151, Note_on_c, 6, 70, 82
18, 185231, Note_off_c, 6, 70, 64
18, 202302, Note_on_c, 6, 74, 89
18, 202360, Note_on_c, 6, 78, 68
18, 202363, Note_off_c, 6, 74, 64
18, 202421, Note_off_c, 6, 78, 64
18, 202422, Note_on_c, 6, 76, 63
18, 202477, Note_off_c, 6, 76, 64
18, 202479, Note_on_c, 6, 74, 62
18, 202517, Note_off_c, 6, 74, 64
18, 202537, Note_on_c, 6, 73, 100
18, 202612, Note_off_c, 6, 73, 64
18, 202664, Note_on_c, 6, 69, 61
18, 202716, Note_on_c, 6, 71, 68
18, 202717, Note_off_c, 6, 69, 64
18, 202764, Note_off_c, 6, 71, 64
18, 202778, Note_on_c, 6, 73, 91
18, 202835, Note_off_c, 6, 73, 64
18, 202893, Note_on_c, 6, 73, 55
18, 202941, Note_off_c, 6, 73, 64
18, 202944, Note_on_c, 6, 74, 76
18, 202988, Note_off_c, 6, 74, 64
18, 203009, Note_on_c, 6, 76, 98
18, 203070, Note_off_c, 6, 76, 64
18, 203132, Note_on_c, 6, 73, 57
18, 203181, Note_off_c, 6, 73, 64
18, 203189, Note_on_c, 6, 74, 72
18, 203243, Note_off_c, 6, 74, 64
18, 203253, Note_on_c, 6, 76, 91
18, 203303, Note_off_c, 6, 76, 64
18, 203384, Note_on_c, 6, 76, 68
18, 203433, Note_on_c, 6, 78, 59
18, 203437, Note_off_c, 6, 76, 64
18, 203482, Note_off_c, 6, 78, 64
18, 203498, Note_on_c, 6, 79, 93
18, 203555, Note_off_c, 6, 79, 64
18, 203624, Note_on_c, 6, 79, 85
18, 203673, Note_on_c, 6, 78, 62
18, 203680, Note_off_c, 6, 79, 64
18, 203715, Note_off_c, 6, 78, 64
18, 203741, Note_on_c, 6, 79, 85
18, 203801, Note_off_c, 6, 79, 64
18, 203864, Note_on_c, 6, 81, 78
18, 203909, Note_off_c, 6, 81, 64
18, 203912, Note_on_c, 6, 79, 74
18, 203959, Note_off_c, 6, 79, 64
18, 203980, Note_on_c, 6, 78, 87
18, 204033, Note_off_c, 6, 78, 64
18, 204102, Note_on_c, 6, 81, 85
18, 204142, Note_off_c, 6, 81, 64
18, 204222, Note_on_c, 6, 74, 82
18, 204263, Note_off_c, 6, 74, 64
18, 204344, Note_on_c, 6, 78, 91
18, 204507, Note_off_c, 6, 78, 64
18, 204579, Note_on_c, 6, 81, 85
18, 204621, Note_off_c, 6, 81, 64
18, 204702, Note_on_c, 6, 72, 82
18, 204740, Note_off_c, 6, 72, 64
18, 204822, Note_on_c, 6, 78, 82
18, 204975, Note_off_c, 6, 78, 64
18, 205064, Note_on_c, 6, 81, 85
18, 205099, Note_off_c, 6, 81, 64
18, 205184, Note_on_c, 6, 74, 80
18, 205227, Note_off_c, 6, 74, 64
18, 205302, Note_on_c, 6, 78, 72
18, 205352, Note_off_c, 6, 78, 64
18, 205421, Note_on_c, 6, 79, 82
18, 205468, Note_off_c, 6, 79, 64
18, 205544, Note_on_c, 6, 83, 82
18, 205584, Note_off_c, 6, 83, 64
18, 205663, Note_on_c, 6, 74, 85
18, 205704, Note_off_c, 6, 74, 64
18, 205786, Note_on_c, 6, 80, 87
18, 205941, Note_off_c, 6, 80, 64
18, 206024, Note_on_c, 6, 83, 82
18, 206064, Note_off_c, 6, 83, 64
18, 206145, Note_on_c, 6, 76, 78
18, 206195, Note_off_c, 6, 76, 64
18, 206267, Note_on_c, 6, 80, 85
18, 206312, Note_off_c, 6, 80, 64
18, 206389, Note_on_c, 6, 81, 82
18, 206445, Note_on_c, 6, 76, 80
18, 206451, Note_off_c, 6, 81, 64
18, 206489, Note_off_c, 6, 76, 64
18, 206506, Note_on_c, 6, 73, 62
18, 206555, Note_on_c, 6, 74, 66
18, 206558, Note_off_c, 6, 73, 64
18, 206602, Note_off_c, 6, 74, 64
18, 206615, Note_on_c, 6, 76, 62
18, 206670, Note_on_c, 6, 78, 63
18, 206672, Note_off_c, 6, 76, 64
18, 206727, Note_off_c, 6, 78, 64
18, 206735, Note_on_c, 6, 76, 54
18, 206793, Note_on_c, 6, 78, 58
18, 206805, Note_off_c, 6, 76, 64
18, 206841, Note_off_c, 6, 78, 64
18, 206862, Note_on_c, 6, 79, 91
18, 206912, Note_on_c, 6, 76, 68
18, 206924, Note_off_c, 6, 79, 64
18, 206958, Note_off_c, 6, 76, 64
18, 206974, Note_on_c, 6, 69, 53
18, 207028, Note_on_c, 6, 71, 57
18, 207041, Note_off_c, 6, 69, 64
18, 207080, Note_off_c, 6, 71, 64
18, 207096, Note_on_c, 6, 73, 64
18, 207145, Note_on_c, 6, 74, 70
18, 207156, Note_off_c, 6, 73, 64
18, 207193, Note_off_c, 6, 74, 64
18, 207203, Note_on_c, 6, 73, 53
18, 207260, Note_off_c, 6, 73, 64
18, 207264, Note_on_c, 6, 74, 66
18, 207308, Note_off_c, 6, 74, 64
18, 207329, Note_on_c, 6, 76, 93
18, 207380, Note_on_c, 6, 74, 70
18, 207393, Note_off_c, 6, 76, 64
18, 207440, Note_off_c, 6, 74, 64
18, 207445, Note_on_c, 6, 73, 49
18, 207503, Note_on_c, 6, 74, 63
18, 207506, Note_off_c, 6, 73, 64
18, 207545, Note_off_c, 6, 74, 64
18, 207569, Note_on_c, 6, 76, 93
18, 207621, Note_on_c, 6, 74, 66
18, 207635, Note_off_c, 6, 76, 64
18, 207688, Note_on_c, 6, 73, 51
18, 207695, Note_off_c, 6, 74, 64
18, 207752, Note_on_c, 6, 71, 60
18, 207755, Note_off_c, 6, 73, 64
18, 207817, Note_off_c, 6, 71, 64
18, 207819, Note_on_c, 6, 69, 70
18, 207872, Note_off_c, 6, 69, 64
18, 207879, Note_on_c, 6, 74, 85
18, 207930, Note_on_c, 6, 73, 70
18, 207950, Note_off_c, 6, 74, 64
18, 207989, Note_on_c, 6, 71, 76
18, 208008, Note_off_c, 6, 73, 64
18, 208042, Note_off_c, 6, 71, 64
18, 208042, Note_on_c, 6, 69, 66
18, 208104, Note_on_c, 6, 67, 64
18, 208109, Note_off_c, 6, 69, 64
18, 208161, Note_off_c, 6, 67, 64
18, 208163, Note_on_c, 6, 66, 55
18, 208215, Note_off_c, 6, 66, 64
18, 208219, Note_on_c, 6, 64, 64
18, 208261, Note_off_c, 6, 64, 64
18, 208285, Note_on_c, 6, 62, 68
18, 208365, Note_off_c, 6, 62, 64
18, 208424, Note_on_c, 6, 74, 60
18, 208518, Note_off_c, 6, 74, 64
18, 208546, Note_on_c, 6, 74, 60
18, 208637, Note_off_c, 6, 74, 64
18, 208664, Note_on_c, 6, 74, 66
18, 208762, Note_off_c, 6, 74, 64
18, 208784, Note_on_c, 6, 74, 64
18, 208884, Note_off_c, 6, 74, 64
18, 208908, Note_on_c, 6, 74, 60
18, 209005, Note_off_c, 6, 74, 64
18, 209030, Note_on_c, 6, 74, 60
18, 209125, Note_off_c, 6, 74, 64
18, 209150, Note_on_c, 6, 74, 64
18, 209234, Note_off_c, 6, 74, 64
18, 209263, Note_on_c, 6, 74, 68
18, 209357, Note_off_c, 6, 74, 64
18, 209377, Note_on_c, 6, 76, 62
18, 209480, Note_off_c, 6, 76, 64
18, 209504, Note_on_c, 6, 76, 70
18, 209604, Note_off_c, 6, 76, 64
18, 209630, Note_on_c, 6, 76, 68
18, 209719, Note_off_c, 6, 76, 64
18, 209745, Note_on_c, 6, 76, 66
18, 209841, Note_off_c, 6, 76, 64
18, 209863, Note_on_c, 6, 76, 64
18, 209960, Note_off_c, 6, 76, 64
18, 209984, Note_on_c, 6, 76, 68
18, 210076, Note_off_c, 6, 76, 64
18, 210101, Note_on_c, 6, 76, 66
18, 210199, Note_off_c, 6, 76, 64
18, 210221, Note_on_c, 6, 76, 74
18, 210316, Note_off_c, 6, 76, 64
18, 210338, Note_on_c, 6, 76, 76
18, 210430, Note_off_c, 6, 76, 64
18, 210465, Note_on_c, 6, 76, 66
18, 210557, Note_off_c, 6, 76, 64
18, 210582, Note_on_c, 6, 76, 76
18, 210666, Note_off_c, 6, 76, 64
18, 210698, Note_on_c, 6, 76, 89
18, 210772, Note_off_c, 6, 76, 64
18, 210827, Note_on_c, 6, 69, 70
18, 210872, Note_on_c, 6, 71, 68
18, 210884, Note_off_c, 6, 69, 64
18, 210917, Note_off_c, 6, 71, 64
18, 210933, Note_on_c, 6, 73, 82
18, 210989, Note_off_c, 6, 73, 64
18, 211051, Note_on_c, 6, 73, 56
18, 211105, Note_on_c, 6, 74, 74
18, 211111, Note_off_c, 6, 73, 64
18, 211150, Note_off_c, 6, 74, 64
18, 211170, Note_on_c, 6, 76, 87
18, 211235, Note_off_c, 6, 76, 64
18, 211295, Note_on_c, 6, 73, 57
18, 211345, Note_off_c, 6, 73, 64
18, 211347, Note_on_c, 6, 74, 76
18, 211395, Note_off_c, 6, 74, 64
18, 211411, Note_on_c, 6, 76, 80
18, 211463, Note_off_c, 6, 76, 64
18, 211542, Note_on_c, 6, 76, 74
18, 211594, Note_on_c, 6, 78, 60
18, 211602, Note_off_c, 6, 76, 64
18, 211637, Note_off_c, 6, 78, 64
18, 211660, Note_on_c, 6, 79, 89
18, 211719, Note_off_c, 6, 79, 64
18, 211782, Note_on_c, 6, 79, 74
18, 211822, Note_off_c, 6, 79, 64
18, 211823, Note_on_c, 6, 78, 60
18, 211873, Note_off_c, 6, 78, 64
18, 211898, Note_on_c, 6, 79, 87
18, 211969, Note_off_c, 6, 79, 64
18, 212020, Note_on_c, 6, 81, 82
18, 212071, Note_on_c, 6, 79, 76
18, 212073, Note_off_c, 6, 81, 64
18, 212110, Note_off_c, 6, 79, 64
18, 212134, Note_on_c, 6, 78, 89
18, 212225, Note_off_c, 6, 78, 64
18, 212258, Note_on_c, 6, 78, 68
18, 212292, Note_off_c, 6, 78, 64
18, 212308, Note_on_c, 6, 76, 76
18, 212347, Note_off_c, 6, 76, 64
18, 212375, Note_on_c, 6, 78, 91
18, 212456, Note_off_c, 6, 78, 64
18, 212502, Note_on_c, 6, 79, 80
18, 212540, Note_off_c, 6, 79, 64
18, 212552, Note_on_c, 6, 78, 87
18, 212593, Note_off_c, 6, 78, 64
18, 212614, Note_on_c, 6, 76, 87
18, 212721, Note_off_c, 6, 76, 64
18, 212745, Note_on_c, 6, 76, 70
18, 212797, Note_off_c, 6, 76, 64
18, 212798, Note_on_c, 6, 74, 70
18, 212845, Note_off_c, 6, 74, 64
18, 212866, Note_on_c, 6, 76, 78
18, 212956, Note_off_c, 6, 76, 64
18, 212989, Note_on_c, 6, 78, 74
18, 213034, Note_off_c, 6, 78, 64
18, 213040, Note_on_c, 6, 76, 74
18, 213081, Note_off_c, 6, 76, 64
18, 213100, Note_on_c, 6, 74, 85
18, 213176, Note_off_c, 6, 74, 64
18, 213227, Note_on_c, 6, 74, 87
18, 213274, Note_on_c, 6, 76, 80
18, 213280, Note_off_c, 6, 74, 64
18, 213318, Note_off_c, 6, 76, 64
18, 213338, Note_on_c, 6, 78, 102
18, 213399, Note_off_c, 6, 78, 64
18, 213472, Note_on_c, 6, 78, 74
18, 213522, Note_on_c, 6, 79, 85
18, 213525, Note_off_c, 6, 78, 64
18, 213562, Note_off_c, 6, 79, 64
18, 213583, Note_on_c, 6, 81, 102
18, 213643, Note_off_c, 6, 81, 64
18, 213706, Note_on_c, 6, 78, 93
18, 213751, Note_off_c, 6, 78, 64
18, 213756, Note_on_c, 6, 79, 87
18, 213799, Note_off_c, 6, 79, 64
18, 213821, Note_on_c, 6, 81, 93
18, 213894, Note_off_c, 6, 81, 64
18, 213943, Note_on_c, 6, 81, 85
18, 213990, Note_on_c, 6, 83, 91
18, 213992, Note_off_c, 6, 81, 64
18, 214032, Note_off_c, 6, 83, 64
18, 214053, Note_on_c, 6, 84, 102
18, 214114, Note_off_c, 6, 84, 64
18, 214183, Note_on_c, 6, 84, 89
18, 214229, Note_on_c, 6, 83, 82
18, 214232, Note_off_c, 6, 84, 64
18, 214278, Note_off_c, 6, 83, 64
18, 214299, Note_on_c, 6, 84, 98
18, 214362, Note_off_c, 6, 84, 64
18, 214427, Note_on_c, 6, 86, 98
18, 214477, Note_on_c, 6, 84, 80
18, 214489, Note_off_c, 6, 86, 64
18, 214518, Note_off_c, 6, 84, 64
18, 214539, Note_on_c, 6, 83, 87
18, 214593, Note_on_c, 6, 79, 72
18, 214597, Note_off_c, 6, 83, 64
18, 214639, Note_off_c, 6, 79, 64
18, 214658, Note_on_c, 6, 76, 60
18, 214710, Note_on_c, 6, 78, 66
18, 214722, Note_off_c, 6, 76, 64
18, 214757, Note_off_c, 6, 78, 64
18, 214772, Note_on_c, 6, 79, 85
18, 214826, Note_on_c, 6, 81, 76
18, 214833, Note_off_c, 6, 79, 64
18, 214870, Note_off_c, 6, 81, 64
18, 214889, Note_on_c, 6, 78, 60
18, 214932, Note_off_c, 6, 78, 64
18, 214945, Note_on_c, 6, 79, 70
18, 214987, Note_off_c, 6, 79, 64
18, 215014, Note_on_c, 6, 81, 102
18, 215065, Note_on_c, 6, 78, 66
18, 215069, Note_off_c, 6, 81, 64
18, 215118, Note_off_c, 6, 78, 64
18, 215135, Note_on_c, 6, 74, 68
18, 215184, Note_off_c, 6, 74, 64
18, 215192, Note_on_c, 6, 76, 63
18, 215238, Note_off_c, 6, 76, 64
18, 215261, Note_on_c, 6, 78, 89
18, 215316, Note_on_c, 6, 79, 78
18, 215327, Note_off_c, 6, 78, 64
18, 215359, Note_off_c, 6, 79, 64
18, 215382, Note_on_c, 6, 76, 72
18, 215418, Note_off_c, 6, 76, 64
18, 215435, Note_on_c, 6, 78, 78
18, 215477, Note_off_c, 6, 78, 64
18, 215502, Note_on_c, 6, 79, 100
18, 215554, Note_on_c, 6, 78, 85
18, 215557, Note_off_c, 6, 79, 64
18, 215600, Note_off_c, 6, 78, 64
18, 215616, Note_on_c, 6, 76, 64
18, 215650, Note_off_c, 6, 76, 64
18, 215672, Note_on_c, 6, 79, 72
18, 215705, Note_off_c, 6, 79, 64
18, 215742, Note_on_c, 6, 78, 100
18, 215795, Note_on_c, 6, 76, 64
18, 215805, Note_off_c, 6, 78, 64
18, 215840, Note_off_c, 6, 76, 64
18, 215854, Note_on_c, 6, 74, 68
18, 215894, Note_off_c, 6, 74, 64
18, 215912, Note_on_c, 6, 78, 89
18, 215950, Note_off_c, 6, 78, 64
18, 215981, Note_on_c, 6, 76, 105
18, 216037, Note_on_c, 6, 81, 87
18, 216038, Note_off_c, 6, 76, 64
18, 216083, Note_off_c, 6, 81, 64
18, 216098, Note_on_c, 6, 73, 57
18, 216152, Note_off_c, 6, 73, 64
18, 216153, Note_on_c, 6, 74, 68
18, 216200, Note_off_c, 6, 74, 64
18, 216222, Note_on_c, 6, 76, 80
18, 216271, Note_on_c, 6, 78, 64
18, 216279, Note_off_c, 6, 76, 64
18, 216317, Note_off_c, 6, 78, 64
18, 216334, Note_on_c, 6, 76, 80
18, 216392, Note_on_c, 6, 78, 72
18, 216398, Note_off_c, 6, 76, 64
18, 216439, Note_off_c, 6, 78, 64
18, 216460, Note_on_c, 6, 79, 95
18, 216508, Note_on_c, 6, 76, 66
18, 216521, Note_off_c, 6, 79, 64
18, 216565, Note_off_c, 6, 76, 64
18, 216583, Note_on_c, 6, 69, 49
18, 216637, Note_on_c, 6, 71, 66
18, 216639, Note_off_c, 6, 69, 64
18, 216689, Note_off_c, 6, 71, 64
18, 216702, Note_on_c, 6, 73, 56
18, 216751, Note_on_c, 6, 74, 68
18, 216758, Note_off_c, 6, 73, 64
18, 216793, Note_off_c, 6, 74, 64
18, 216819, Note_on_c, 6, 73, 66
18, 216879, Note_on_c, 6, 74, 68
18, 216884, Note_off_c, 6, 73, 64
18, 216919, Note_off_c, 6, 74, 64
18, 216940, Note_on_c, 6, 76, 98
18, 216992, Note_on_c, 6, 74, 72
18, 217000, Note_off_c, 6, 76, 64
18, 217040, Note_off_c, 6, 74, 64
18, 217056, Note_on_c, 6, 73, 38
18, 217112, Note_off_c, 6, 73, 64
18, 217119, Note_on_c, 6, 74, 68
18, 217165, Note_off_c, 6, 74, 64
18, 217184, Note_on_c, 6, 76, 72
18, 217242, Note_on_c, 6, 79, 74
18, 217245, Note_off_c, 6, 76, 64
18, 217292, Note_off_c, 6, 79, 64
18, 217299, Note_on_c, 6, 78, 66
18, 217358, Note_on_c, 6, 76, 78
18, 217360, Note_off_c, 6, 78, 64
18, 217401, Note_off_c, 6, 76, 64
18, 217423, Note_on_c, 6, 81, 98
18, 217474, Note_on_c, 6, 79, 72
18, 217489, Note_off_c, 6, 81, 64
18, 217536, Note_off_c, 6, 79, 64
18, 217543, Note_on_c, 6, 78, 82
18, 217586, Note_off_c, 6, 78, 64
18, 217599, Note_on_c, 6, 79, 68
18, 217641, Note_off_c, 6, 79, 64
18, 217660, Note_on_c, 6, 81, 91
18, 217709, Note_off_c, 6, 81, 64
18, 217713, Note_on_c, 6, 78, 68
18, 217768, Note_off_c, 6, 78, 64
18, 217776, Note_on_c, 6, 74, 66
18, 217833, Note_on_c, 6, 78, 80
18, 217853, Note_off_c, 6, 74, 64
18, 217875, Note_off_c, 6, 78, 64
18, 217896, Note_on_c, 6, 79, 91
18, 217949, Note_on_c, 6, 78, 91
18, 217953, Note_off_c, 6, 79, 64
18, 218004, Note_off_c, 6, 78, 64
18, 218011, Note_on_c, 6, 76, 63
18, 218071, Note_on_c, 6, 78, 82
18, 218084, Note_off_c, 6, 76, 64
18, 218115, Note_off_c, 6, 78, 64
18, 218138, Note_on_c, 6, 79, 87
18, 218187, Note_off_c, 6, 79, 64
18, 218194, Note_on_c, 6, 83, 89
18, 218231, Note_off_c, 6, 83, 64
18, 218255, Note_on_c, 6, 81, 80
18, 218301, Note_off_c, 6, 81, 64
18, 218307, Note_on_c, 6, 79, 66
18, 218355, Note_off_c, 6, 79, 64
18, 218375, Note_on_c, 6, 78, 82
18, 218423, Note_off_c, 6, 78, 64
18, 218496, Note_on_c, 6, 74, 87
18, 218546, Note_off_c, 6, 74, 64
18, 218617, Note_on_c, 6, 71, 82
18, 218671, Note_off_c, 6, 71, 64
18, 218745, Note_on_c, 6, 76, 87
18, 218792, Note_off_c, 6, 76, 64
18, 218874, Note_on_c, 6, 73, 87
18, 218934, Note_on_c, 6, 69, 82
18, 218935, Note_off_c, 6, 73, 64
18, 218985, Note_off_c, 6, 69, 64
18, 218988, Note_on_c, 6, 71, 80
18, 219047, Note_on_c, 6, 73, 78
18, 219054, Note_off_c, 6, 71, 64
18, 219090, Note_off_c, 6, 73, 64
18, 219103, Note_on_c, 6, 74, 68
18, 219162, Note_on_c, 6, 76, 78
18, 219169, Note_off_c, 6, 74, 64
18, 219209, Note_off_c, 6, 76, 64
18, 219218, Note_on_c, 6, 78, 82
18, 219267, Note_off_c, 6, 78, 64
18, 219277, Note_on_c, 6, 79, 70
18, 219314, Note_off_c, 6, 79, 64
18, 219338, Note_on_c, 6, 78, 102
18, 219387, Note_off_c, 6, 78, 64
18, 219394, Note_on_c, 6, 76, 87
18, 219441, Note_off_c, 6, 76, 64
18, 219457, Note_on_c, 6, 74, 82
18, 219499, Note_off_c, 6, 74, 64
18, 219517, Note_on_c, 6, 76, 89
18, 219555, Note_off_c, 6, 76, 64
18, 219584, Note_on_c, 6, 69, 85
18, 219635, Note_off_c, 6, 69, 64
18, 219709, Note_on_c, 6, 73, 91
18, 219767, Note_off_c, 6, 73, 64
18, 232321, Note_on_c, 6, 73, 105
18, 232369, Note_off_c, 6, 73, 64
18, 232375, Note_on_c, 6, 74, 87
18, 232423, Note_off_c, 6, 74, 64
18, 232437, Note_on_c, 6, 73, 78
18, 232482, Note_off_c, 6, 73, 64
18, 232495, Note_on_c, 6, 71, 89
18, 232538, Note_off_c, 6, 71, 64
18, 232556, Note_on_c, 6, 69, 98
18, 232612, Note_off_c, 6, 69, 64
18, 232617, Note_on_c, 6, 71, 87
18, 232668, Note_off_c, 6, 71, 64
18, 232679, Note_on_c, 6, 73, 95
18, 232721, Note_off_c, 6, 73, 64
18, 232735, Note_on_c, 6, 74, 85
18, 232783, Note_off_c, 6, 74, 64
18, 232797, Note_on_c, 6, 76, 93
18, 232846, Note_off_c, 6, 76, 64
18, 232855, Note_on_c, 6, 78, 91
18, 232895, Note_off_c, 6, 78, 64
18, 232911, Note_on_c, 6, 79, 95
18, 232951, Note_off_c, 6, 79, 64
18, 232967, Note_on_c, 6, 81, 100
18, 233006, Note_off_c, 6, 81, 64
18, 233030, Note_on_c, 6, 79, 105
18, 233075, Note_off_c, 6, 79, 64
18, 233090, Note_on_c, 6, 78, 110
18, 233121, Note_off_c, 6, 78, 64
18, 233143, Note_on_c, 6, 79, 93
18, 233181, Note_off_c, 6, 79, 64
18, 233204, Note_on_c, 6, 76, 102
18, 233235, Note_off_c, 6, 76, 64
18, 233269, Note_on_c, 6, 78, 105
18, 233405, Note_off_c, 6, 78, 64
18, 233430, Note_on_c, 6, 76, 72
18, 233456, Note_off_c, 6, 76, 64
18, 233456, Note_on_c, 6, 74, 85
18, 233484, Note_off_c, 6, 74, 64
18, 233486, Note_on_c, 6, 73, 85
18, 233509, Note_off_c, 6, 73, 64
18, 233513, Note_on_c, 6, 74, 100
18, 233595, Note_off_c, 6, 74, 64
18, 233673, Note_on_c, 6, 71, 98
18, 233706, Note_off_c, 6, 71, 64
18, 233743, Note_on_c, 6, 74, 102
18, 233810, Note_on_c, 6, 73, 85
18, 233814, Note_off_c, 6, 74, 64
18, 233836, Note_off_c, 6, 73, 64
18, 233839, Note_on_c, 6, 74, 82
18, 233861, Note_on_c, 6, 73, 68
18, 233862, Note_off_c, 6, 74, 64
18, 233881, Note_on_c, 6, 74, 76
18, 233883, Note_off_c, 6, 73, 64
18, 233902, Note_off_c, 6, 74, 64
18, 233905, Note_on_c, 6, 73, 59
18, 233921, Note_on_c, 6, 74, 85
18, 233924, Note_off_c, 6, 73, 64
18, 233942, Note_on_c, 6, 73, 66
18, 233948, Note_off_c, 6, 74, 64
18, 233962, Note_on_c, 6, 74, 87
18, 233966, Note_off_c, 6, 73, 64
18, 233981, Note_on_c, 6, 73, 100
18, 233987, Note_off_c, 6, 74, 64
18, 234102, Note_off_c, 6, 73, 64
18, 234168, Note_on_c, 6, 74, 100
18, 234195, Note_off_c, 6, 74, 64
18, 234230, Note_on_c, 6, 74, 102
18, 234746, Note_off_c, 6, 74, 64
18, 234746, End_track
19, 0, Start_track
19, 0, Title_t, "Violin"
19, 0, Program_c, 7, 40
19, 0, Control_c, 7, 7, 100
19, 17464, Note_on_c, 7, 76, 89
19, 17502, Note_off_c, 7, 76, 64
19, 17524, Note_on_c, 7, 76, 95
19, 17602, Note_off_c, 7, 76, 64
19, 17702, Note_on_c, 7, 73, 85
19, 17734, Note_off_c, 7, 73, 64
19, 17761, Note_on_c, 7, 69, 85
19, 18036, Note_off_c, 7, 69, 64
19, 18056, Note_on_c, 7, 67, 80
19, 18092, Note_off_c, 7, 67, 64
19, 18114, Note_on_c, 7, 66, 89
19, 18150, Note_off_c, 7, 66, 64
19, 18170, Note_on_c, 7, 64, 102
19, 18206, Note_off_c, 7, 64, 64
19, 18240, Note_on_c, 7, 62, 93
19, 18585, Note_off_c, 7, 62, 64
19, 18657, Note_on_c, 7, 57, 85
19, 18709, Note_off_c, 7, 57, 64
19, 18722, Note_on_c, 7, 69, 95
19, 18808, Note_off_c, 7, 69, 64
19, 18887, Note_on_c, 7, 67, 85
19, 18930, Note_off_c, 7, 67, 64
19, 18946, Note_on_c, 7, 69, 91
19, 19033, Note_off_c, 7, 69, 64
19, 19127, Note_on_c, 7, 66, 70
19, 19167, Note_off_c, 7, 66, 64
19, 19187, Note_on_c, 7, 67, 85
19, 19294, Note_off_c, 7, 67, 64
19, 19360, Note_on_c, 7, 66, 82
19, 19405, Note_off_c, 7, 66, 64
19, 19425, Note_on_c, 7, 67, 93
19, 19527, Note_off_c, 7, 67, 64
19, 19602, Note_on_c, 7, 69, 89
19, 19646, Note_off_c, 7, 69, 64
19, 19665, Note_on_c, 7, 71, 87
19, 19776, Note_off_c, 7, 71, 64
19, 19839, Note_on_c, 7, 73, 78
19, 19887, Note_off_c, 7, 73, 64
19, 19902, Note_on_c, 7, 74, 95
19, 19986, Note_off_c, 7, 74, 64
19, 20071, Note_on_c, 7, 76, 78
19, 20112, Note_off_c, 7, 76, 64
19, 20142, Note_on_c, 7, 69, 98
19, 20241, Note_off_c, 7, 69, 64
19, 20316, Note_on_c, 7, 64, 91
19, 20357, Note_off_c, 7, 64, 64
19, 20381, Note_on_c, 7, 61, 98
19, 20468, Note_off_c, 7, 61, 64
19, 20562, Note_on_c, 7, 57, 91
19, 20607, Note_off_c, 7, 57, 64
19, 20623, Note_on_c, 7, 69, 98
19, 20716, Note_off_c, 7, 69, 64
19, 20796, Note_on_c, 7, 66, 87
19, 20846, Note_off_c, 7, 66, 64
19, 20863, Note_on_c, 7, 62, 100
19, 20937, Note_off_c, 7, 62, 64
19, 21028, Note_on_c, 7, 69, 89
19, 21063, Note_off_c, 7, 69, 64
19, 21099, Note_on_c, 7, 69, 102
19, 21435, Note_off_c, 7, 69, 64
19, 21523, Note_on_c, 7, 67, 82
19, 21558, Note_off_c, 7, 67, 64
19, 21584, Note_on_c, 7, 64, 85
19, 21713, Note_off_c, 7, 64, 64
19, 21775, Note_on_c, 7, 66, 87
19, 21812, Note_off_c, 7, 66, 64
19, 21832, Note_on_c, 7, 66, 93
19, 21928, Note_off_c, 7, 66, 64
19, 22018, Note_on_c, 7, 62, 68
19, 22060, Note_off_c, 7, 62, 64
19, 22090, Note_on_c, 7, 69, 98
19, 22420, Note_off_c, 7, 69, 64
19, 22491, Note_on_c, 7, 69, 98
19, 22526, Note_off_c, 7, 69, 64
19, 22548, Note_on_c, 7, 69, 98
19, 22687, Note_off_c, 7, 69, 64
19, 22729, Note_on_c, 7, 74, 74
19, 22750, Note_on_c, 7, 73, 80
19, 22760, Note_off_c, 7, 74, 64
19, 22782, Note_off_c, 7, 73, 64
19, 22790, Note_on_c, 7, 74, 89
19, 22894, Note_off_c, 7, 74, 64
19, 22969, Note_on_c, 7, 76, 89
19, 23007, Note_off_c, 7, 76, 64
19, 23035, Note_on_c, 7, 73, 95
19, 23758, Note_off_c, 7, 73, 64
19, 40495, Note_on_c, 7, 76, 98
19, 40538, Note_off_c, 7, 76, 64
19, 40556, Note_on_c, 7, 76, 98
19, 40630, Note_off_c, 7, 76, 64
19, 40722, Note_on_c, 7, 73, 89
19, 40757, Note_off_c, 7, 73, 64
19, 40793, Note_on_c, 7, 69, 95
19, 41089, Note_off_c, 7, 69, 64
19, 41102, Note_on_c, 7, 67, 89
19, 41135, Note_off_c, 7, 67, 64
19, 41157, Note_on_c, 7, 66, 102
19, 41197, Note_off_c, 7, 66, 64
19, 41212, Note_on_c, 7, 64, 100
19, 41247, Note_off_c, 7, 64, 64
19, 41279, Note_on_c, 7, 62, 105
19, 41623, Note_off_c, 7, 62, 64
19, 41704, Note_on_c, 7, 57, 100
19, 41746, Note_off_c, 7, 57, 64
19, 41764, Note_on_c, 7, 69, 95
19, 41855, Note_off_c, 7, 69, 64
19, 41939, Note_on_c, 7, 67, 85
19, 41982, Note_off_c, 7, 67, 64
19, 42000, Note_on_c, 7, 69, 98
19, 42073, Note_off_c, 7, 69, 64
19, 42166, Note_on_c, 7, 66, 80
19, 42211, Note_off_c, 7, 66, 64
19, 42233, Note_on_c, 7, 67, 95
19, 42336, Note_off_c, 7, 67, 64
19, 42402, Note_on_c, 7, 66, 72
19, 42452, Note_off_c, 7, 66, 64
19, 42471, Note_on_c, 7, 67, 91
19, 42564, Note_off_c, 7, 67, 64
19, 42638, Note_on_c, 7, 69, 85
19, 42684, Note_off_c, 7, 69, 64
19, 42702, Note_on_c, 7, 71, 93
19, 42800, Note_off_c, 7, 71, 64
19, 42872, Note_on_c, 7, 73, 78
19, 42926, Note_off_c, 7, 73, 64
19, 42943, Note_on_c, 7, 74, 95
19, 43029, Note_off_c, 7, 74, 64
19, 43121, Note_on_c, 7, 76, 89
19, 43155, Note_off_c, 7, 76, 64
19, 43192, Note_on_c, 7, 69, 95
19, 43281, Note_off_c, 7, 69, 64
19, 43353, Note_on_c, 7, 64, 87
19, 43398, Note_off_c, 7, 64, 64
19, 43420, Note_on_c, 7, 61, 105
19, 43500, Note_off_c, 7, 61, 64
19, 43600, Note_on_c, 7, 57, 93
19, 43645, Note_off_c, 7, 57, 64
19, 43657, Note_on_c, 7, 69, 93
19, 43748, Note_off_c, 7, 69, 64
19, 43832, Note_on_c, 7, 66, 85
19, 43880, Note_off_c, 7, 66, 64
19, 43902, Note_on_c, 7, 62, 105
19, 43972, Note_off_c, 7, 62, 64
19, 44062, Note_on_c, 7, 69, 89
19, 44099, Note_off_c, 7, 69, 64
19, 44138, Note_on_c, 7, 69, 102
19, 44453, Note_off_c, 7, 69, 64
19, 44548, Note_on_c, 7, 67, 85
19, 44590, Note_off_c, 7, 67, 64
19, 44614, Note_on_c, 7, 64, 87
19, 44738, Note_off_c, 7, 64, 64
19, 44803, Note_on_c, 7, 66, 87
19, 44842, Note_off_c, 7, 66, 64
19, 44869, Note_on_c, 7, 66, 100
19, 44953, Note_off_c, 7, 66, 64
19, 45042, Note_on_c, 7, 62, 89
19, 45091, Note_off_c, 7, 62, 64
19, 45114, Note_on_c, 7, 69, 95
19, 45401, Note_off_c, 7, 69, 64
19, 45534, Note_on_c, 7, 69, 91
19, 45573, Note_off_c, 7, 69, 64
19, 45598, Note_on_c, 7, 69, 93
19, 45747, Note_off_c, 7, 69, 64
19, 45775, Note_on_c, 7, 74, 82
19, 45801, Note_on_c, 7, 73, 82
19, 45812, Note_off_c, 7, 74, 64
19, 45833, Note_off_c, 7, 73, 64
19, 45843, Note_on_c, 7, 74, 91
19, 45925, Note_off_c, 7, 74, 64
19, 46020, Note_on_c, 7, 76, 98
19, 46056, Note_off_c, 7, 76, 64
19, 46088, Note_on_c, 7, 73, 102
19, 46242, Note_off_c, 7, 73, 64
19, 63723, Note_on_c, 7, 69, 60
19, 63776, Note_off_c, 7, 69, 64
19, 63837, Note_on_c, 7, 69, 66
19, 63914, Note_off_c, 7, 69, 64
19, 63944, Note_on_c, 7, 71, 68
19, 64016, Note_off_c, 7, 71, 64
19, 64062, Note_on_c, 7, 71, 64
19, 64134, Note_off_c, 7, 71, 64
19, 64190, Note_on_c, 7, 69, 80
19, 64244, Note_off_c, 7, 69, 64
19, 64318, Note_on_c, 7, 69, 78
19, 64547, Note_off_c, 7, 69, 64
19, 64661, Note_on_c, 7, 71, 74
19, 64717, Note_off_c, 7, 71, 64
19, 64781, Note_on_c, 7, 73, 76
19, 64845, Note_off_c, 7, 73, 64
19, 64904, Note_on_c, 7, 69, 74
19, 64967, Note_off_c, 7, 69, 64
19, 65019, Note_on_c, 7, 78, 70
19, 65079, Note_off_c, 7, 78, 64
19, 65138, Note_on_c, 7, 76, 78
19, 65192, Note_off_c, 7, 76, 64
19, 65262, Note_on_c, 7, 76, 82
19, 65507, Note_off_c, 7, 76, 64
19, 65615, Note_on_c, 7, 76, 68
19, 65679, Note_off_c, 7, 76, 64
19, 65733, Note_on_c, 7, 76, 70
19, 65785, Note_off_c, 7, 76, 64
19, 65851, Note_on_c, 7, 76, 64
19, 65905, Note_off_c, 7, 76, 64
19, 66089, Note_on_c, 7, 76, 82
19, 66146, Note_off_c, 7, 76, 64
19, 66209, Note_on_c, 7, 73, 60
19, 66262, Note_off_c, 7, 73, 64
19, 66331, Note_on_c, 7, 73, 59
19, 66387, Note_off_c, 7, 73, 64
19, 66566, Note_on_c, 7, 73, 76
19, 66626, Note_off_c, 7, 73, 64
19, 66689, Note_on_c, 7, 73, 91
19, 66749, Note_off_c, 7, 73, 64
19, 66801, Note_on_c, 7, 70, 68
19, 66863, Note_off_c, 7, 70, 64
19, 67051, Note_on_c, 7, 70, 70
19, 67099, Note_off_c, 7, 70, 64
19, 67179, Note_on_c, 7, 71, 82
19, 67239, Note_off_c, 7, 71, 64
19, 67294, Note_on_c, 7, 66, 58
19, 67355, Note_off_c, 7, 66, 64
19, 67537, Note_on_c, 7, 71, 66
19, 67598, Note_off_c, 7, 71, 64
19, 67654, Note_on_c, 7, 72, 78
19, 67711, Note_off_c, 7, 72, 64
19, 67780, Note_on_c, 7, 72, 58
19, 67828, Note_off_c, 7, 72, 64
19, 68020, Note_on_c, 7, 72, 87
19, 68074, Note_off_c, 7, 72, 64
19, 68138, Note_on_c, 7, 66, 74
19, 68201, Note_off_c, 7, 66, 64
19, 68258, Note_on_c, 7, 69, 64
19, 68309, Note_off_c, 7, 69, 64
19, 68498, Note_on_c, 7, 69, 93
19, 68552, Note_off_c, 7, 69, 64
19, 68622, Note_on_c, 7, 63, 82
19, 68680, Note_off_c, 7, 63, 64
19, 68737, Note_on_c, 7, 71, 80
19, 68792, Note_off_c, 7, 71, 64
19, 68973, Note_on_c, 7, 75, 72
19, 69017, Note_off_c, 7, 75, 64
19, 69101, Note_on_c, 7, 76, 78
19, 69343, Note_off_c, 7, 76, 64
19, 71147, Note_on_c, 7, 66, 68
19, 71193, Note_on_c, 7, 68, 80
19, 71204, Note_off_c, 7, 66, 64
19, 71249, Note_off_c, 7, 68, 64
19, 71260, Note_on_c, 7, 70, 78
19, 71313, Note_off_c, 7, 70, 64
19, 71391, Note_on_c, 7, 70, 53
19, 71432, Note_on_c, 7, 71, 60
19, 71447, Note_off_c, 7, 70, 64
19, 71491, Note_off_c, 7, 71, 64
19, 71502, Note_on_c, 7, 73, 82
19, 71564, Note_off_c, 7, 73, 64
19, 71623, Note_on_c, 7, 70, 56
19, 71678, Note_off_c, 7, 70, 64
19, 71679, Note_on_c, 7, 71, 68
19, 71736, Note_off_c, 7, 71, 64
19, 71744, Note_on_c, 7, 73, 80
19, 71804, Note_off_c, 7, 73, 64
19, 71871, Note_on_c, 7, 73, 59
19, 71920, Note_on_c, 7, 74, 72
19, 71929, Note_off_c, 7, 73, 64
19, 71971, Note_off_c, 7, 74, 64
19, 71985, Note_on_c, 7, 76, 95
19, 72037, Note_off_c, 7, 76, 64
19, 72113, Note_on_c, 7, 76, 76
19, 72160, Note_on_c, 7, 74, 60
19, 72166, Note_off_c, 7, 76, 64
19, 72211, Note_off_c, 7, 74, 64
19, 72225, Note_on_c, 7, 76, 87
19, 72292, Note_off_c, 7, 76, 64
19, 72347, Note_on_c, 7, 78, 60
19, 72393, Note_on_c, 7, 76, 78
19, 72402, Note_off_c, 7, 78, 64
19, 72426, Note_off_c, 7, 76, 64
19, 72463, Note_on_c, 7, 75, 87
19, 72641, Note_off_c, 7, 75, 64
19, 72712, Note_on_c, 7, 71, 60
19, 72946, Note_off_c, 7, 71, 64
19, 73190, Note_on_c, 7, 75, 63
19, 73438, Note_off_c, 7, 75, 64
19, 73664, Note_on_c, 7, 78, 60
19, 73855, Note_off_c, 7, 78, 64
19, 74021, Note_on_c, 7, 64, 68
19, 74066, Note_on_c, 7, 66, 62
19, 74077, Note_off_c, 7, 64, 64
19, 74132, Note_off_c, 7, 66, 64
19, 74132, Note_on_c, 7, 68, 82
19, 74189, Note_off_c, 7, 68, 64
19, 74261, Note_on_c, 7, 68, 57
19, 74303, Note_on_c, 7, 69, 68
19, 74312, Note_off_c, 7, 68, 64
19, 74354, Note_off_c, 7, 69, 64
19, 74375, Note_on_c, 7, 71, 80
19, 74445, Note_off_c, 7, 71, 64
19, 74504, Note_on_c, 7, 68, 62
19, 74552, Note_off_c, 7, 68, 64
19, 74559, Note_on_c, 7, 69, 70
19, 74615, Note_off_c, 7, 69, 64
19, 74619, Note_on_c, 7, 71, 82
19, 74674, Note_off_c, 7, 71, 64
19, 74747, Note_on_c, 7, 71, 80
19, 74801, Note_on_c, 7, 73, 80
19, 74814, Note_off_c, 7, 71, 64
19, 74847, Note_off_c, 7, 73, 64
19, 74863, Note_on_c, 7, 74, 87
19, 74926, Note_off_c, 7, 74, 64
19, 74990, Note_on_c, 7, 74, 78
19, 75041, Note_on_c, 7, 73, 80
19, 75046, Note_off_c, 7, 74, 64
19, 75085, Note_off_c, 7, 73, 64
19, 75104, Note_on_c, 7, 74, 87
19, 75167, Note_off_c, 7, 74, 64
19, 75234, Note_on_c, 7, 76, 78
19, 75287, Note_on_c, 7, 74, 85
19, 75299, Note_off_c, 7, 76, 64
19, 75321, Note_off_c, 7, 74, 64
19, 75346, Note_on_c, 7, 73, 62
19, 75547, Note_off_c, 7, 73, 64
19, 75606, Note_on_c, 7, 69, 66
19, 75849, Note_off_c, 7, 69, 64
19, 76063, Note_on_c, 7, 73, 55
19, 76320, Note_off_c, 7, 73, 64
19, 76549, Note_on_c, 7, 76, 74
19, 76699, Note_off_c, 7, 76, 64
19, 76776, Note_on_c, 7, 74, 66
19, 77013, Note_off_c, 7, 74, 64
19, 91555, Note_on_c, 7, 66, 53
19, 91608, Note_off_c, 7, 66, 64
19, 91678, Note_on_c, 7, 66, 58
19, 91737, Note_off_c, 7, 66, 64
19, 91795, Note_on_c, 7, 67, 74
19, 91843, Note_off_c, 7, 67, 64
19, 91914, Note_on_c, 7, 67, 70
19, 91969, Note_off_c, 7, 67, 64
19, 92030, Note_on_c, 7, 66, 63
19, 92081, Note_off_c, 7, 66, 64
19, 92159, Note_on_c, 7, 66, 74
19, 92408, Note_off_c, 7, 66, 64
19, 92509, Note_on_c, 7, 73, 57
19, 92560, Note_off_c, 7, 73, 64
19, 92625, Note_on_c, 7, 73, 57
19, 92688, Note_off_c, 7, 73, 64
19, 92752, Note_on_c, 7, 74, 76
19, 92803, Note_off_c, 7, 74, 64
19, 92870, Note_on_c, 7, 74, 68
19, 92920, Note_off_c, 7, 74, 64
19, 92986, Note_on_c, 7, 73, 64
19, 93039, Note_off_c, 7, 73, 64
19, 93108, Note_on_c, 7, 73, 63
19, 93368, Note_off_c, 7, 73, 64
19, 93462, Note_on_c, 7, 73, 63
19, 93512, Note_off_c, 7, 73, 64
19, 93580, Note_on_c, 7, 69, 60
19, 93637, Note_off_c, 7, 69, 64
19, 93704, Note_on_c, 7, 69, 46
19, 93748, Note_off_c, 7, 69, 64
19, 93940, Note_on_c, 7, 69, 66
19, 93987, Note_off_c, 7, 69, 64
19, 94064, Note_on_c, 7, 63, 78
19, 94138, Note_off_c, 7, 63, 64
19, 94197, Note_on_c, 7, 69, 49
19, 94247, Note_off_c, 7, 69, 64
19, 94430, Note_on_c, 7, 71, 64
19, 94486, Note_off_c, 7, 71, 64
19, 94546, Note_on_c, 7, 71, 85
19, 94614, Note_off_c, 7, 71, 64
19, 94666, Note_on_c, 7, 71, 64
19, 94720, Note_off_c, 7, 71, 64
19, 94911, Note_on_c, 7, 71, 63
19, 94962, Note_off_c, 7, 71, 64
19, 95026, Note_on_c, 7, 71, 80
19, 95084, Note_off_c, 7, 71, 64
19, 95140, Note_on_c, 7, 76, 59
19, 95193, Note_off_c, 7, 76, 64
19, 95384, Note_on_c, 7, 76, 78
19, 95439, Note_off_c, 7, 76, 64
19, 95506, Note_on_c, 7, 71, 76
19, 95564, Note_off_c, 7, 71, 64
19, 95616, Note_on_c, 7, 71, 42
19, 95681, Note_off_c, 7, 71, 64
19, 95868, Note_on_c, 7, 71, 82
19, 95926, Note_off_c, 7, 71, 64
19, 95990, Note_on_c, 7, 73, 70
19, 96052, Note_off_c, 7, 73, 64
19, 96104, Note_on_c, 7, 76, 58
19, 96166, Note_off_c, 7, 76, 64
19, 96342, Note_on_c, 7, 76, 68
19, 96392, Note_off_c, 7, 76, 64
19, 96464, Note_on_c, 7, 73, 72
19, 96527, Note_off_c, 7, 73, 64
19, 96583, Note_on_c, 7, 73, 49
19, 96650, Note_off_c, 7, 73, 64
19, 96824, Note_on_c, 7, 73, 61
19, 96877, Note_off_c, 7, 73, 64
19, 96948, Note_on_c, 7, 74, 68
19, 96999, Note_off_c, 7, 74, 64
19, 97067, Note_on_c, 7, 78, 62
19, 97111, Note_off_c, 7, 78, 64
19, 97192, Note_on_c, 7, 78, 82
19, 97279, Note_off_c, 7, 78, 64
19, 97539, Note_on_c, 7, 76, 72
19, 97584, Note_off_c, 7, 76, 64
19, 97665, Note_on_c, 7, 76, 78
19, 97760, Note_off_c, 7, 76, 64
19, 98019, Note_on_c, 7, 74, 68
19, 98064, Note_off_c, 7, 74, 64
19, 98146, Note_on_c, 7, 74, 85
19, 98247, Note_off_c, 7, 74, 64
19, 98500, Note_on_c, 7, 76, 85
19, 98553, Note_off_c, 7, 76, 64
19, 98624, Note_on_c, 7, 69, 85
19, 98690, Note_off_c, 7, 69, 64
19, 98740, Note_on_c, 7, 78, 80
19, 98796, Note_off_c, 7, 78, 64
19, 98869, Note_on_c, 7, 73, 85
19, 98929, Note_off_c, 7, 73, 64
19, 98990, Note_on_c, 7, 76, 85
19, 99043, Note_off_c, 7, 76, 64
19, 99109, Note_on_c, 7, 69, 78
19, 99153, Note_off_c, 7, 69, 64
19, 99233, Note_on_c, 7, 69, 80
19, 99282, Note_off_c, 7, 69, 64
19, 99358, Note_on_c, 7, 69, 87
19, 99884, Note_off_c, 7, 69, 64
19, 99942, Note_on_c, 7, 78, 74
19, 99993, Note_off_c, 7, 78, 64
19, 100061, Note_on_c, 7, 71, 72
19, 100117, Note_off_c, 7, 71, 64
19, 100185, Note_on_c, 7, 80, 87
19, 100222, Note_off_c, 7, 80, 64
19, 100316, Note_on_c, 7, 81, 80
19, 100559, Note_off_c, 7, 81, 64
19, 100779, Note_on_c, 7, 69, 57
19, 100957, Note_off_c, 7, 69, 64
19, 101026, Note_on_c, 7, 78, 57
19, 101278, Note_off_c, 7, 78, 64
19, 101510, Note_on_c, 7, 75, 61
19, 101755, Note_off_c, 7, 75, 64
19, 101991, Note_on_c, 7, 71, 66
19, 102233, Note_off_c, 7, 71, 64
19, 102361, Note_on_c, 7, 64, 68
19, 102402, Note_on_c, 7, 66, 62
19, 102415, Note_off_c, 7, 64, 64
19, 102455, Note_off_c, 7, 66, 64
19, 102464, Note_on_c, 7, 68, 80
19, 102526, Note_off_c, 7, 68, 64
19, 102590, Note_on_c, 7, 68, 57
19, 102641, Note_off_c, 7, 68, 64
19, 102642, Note_on_c, 7, 69, 70
19, 102694, Note_off_c, 7, 69, 64
19, 102705, Note_on_c, 7, 71, 80
19, 102776, Note_off_c, 7, 71, 64
19, 102831, Note_on_c, 7, 68, 63
19, 102887, Note_off_c, 7, 68, 64
19, 102888, Note_on_c, 7, 69, 68
19, 102947, Note_off_c, 7, 69, 64
19, 102953, Note_on_c, 7, 71, 82
19, 103006, Note_off_c, 7, 71, 64
19, 103076, Note_on_c, 7, 71, 68
19, 103122, Note_on_c, 7, 73, 63
19, 103131, Note_off_c, 7, 71, 64
19, 103167, Note_off_c, 7, 73, 64
19, 103184, Note_on_c, 7, 74, 85
19, 103244, Note_off_c, 7, 74, 64
19, 103304, Note_on_c, 7, 74, 68
19, 103353, Note_on_c, 7, 73, 78
19, 103360, Note_off_c, 7, 74, 64
19, 103391, Note_off_c, 7, 73, 64
19, 103421, Note_on_c, 7, 74, 85
19, 103492, Note_off_c, 7, 74, 64
19, 103544, Note_on_c, 7, 73, 59
19, 103592, Note_on_c, 7, 71, 70
19, 103603, Note_off_c, 7, 73, 64
19, 103637, Note_off_c, 7, 71, 64
19, 103663, Note_on_c, 7, 73, 57
19, 103843, Note_off_c, 7, 73, 64
19, 103913, Note_on_c, 7, 76, 70
19, 104168, Note_off_c, 7, 76, 64
19, 104397, Note_on_c, 7, 73, 52
19, 104639, Note_off_c, 7, 73, 64
19, 104870, Note_on_c, 7, 69, 66
19, 105104, Note_off_c, 7, 69, 64
19, 105228, Note_on_c, 7, 62, 68
19, 105282, Note_on_c, 7, 64, 62
19, 105287, Note_off_c, 7, 62, 64
19, 105336, Note_off_c, 7, 64, 64
19, 105341, Note_on_c, 7, 66, 80
19, 105397, Note_off_c, 7, 66, 64
19, 105465, Note_on_c, 7, 66, 57
19, 105512, Note_on_c, 7, 67, 80
19, 105518, Note_off_c, 7, 66, 64
19, 105565, Note_off_c, 7, 67, 64
19, 105581, Note_on_c, 7, 69, 87
19, 105648, Note_off_c, 7, 69, 64
19, 105705, Note_on_c, 7, 66, 61
19, 105759, Note_off_c, 7, 66, 64
19, 105760, Note_on_c, 7, 67, 66
19, 105813, Note_off_c, 7, 67, 64
19, 105825, Note_on_c, 7, 69, 85
19, 105877, Note_off_c, 7, 69, 64
19, 105956, Note_on_c, 7, 69, 82
19, 106004, Note_on_c, 7, 71, 80
19, 106010, Note_off_c, 7, 69, 64
19, 106048, Note_off_c, 7, 71, 64
19, 106067, Note_on_c, 7, 72, 80
19, 106121, Note_off_c, 7, 72, 64
19, 106191, Note_on_c, 7, 72, 68
19, 106233, Note_on_c, 7, 71, 66
19, 106241, Note_off_c, 7, 72, 64
19, 106284, Note_off_c, 7, 71, 64
19, 106303, Note_on_c, 7, 72, 78
19, 106370, Note_off_c, 7, 72, 64
19, 106433, Note_on_c, 7, 71, 60
19, 106479, Note_on_c, 7, 69, 74
19, 106480, Note_off_c, 7, 71, 64
19, 106518, Note_off_c, 7, 69, 64
19, 106547, Note_on_c, 7, 71, 64
19, 106796, Note_off_c, 7, 71, 64
19, 125773, Note_on_c, 7, 69, 80
19, 125895, Note_off_c, 7, 69, 64
19, 125937, Note_on_c, 7, 62, 68
19, 125976, Note_off_c, 7, 62, 64
19, 126000, Note_on_c, 7, 62, 87
19, 126087, Note_off_c, 7, 62, 64
19, 126161, Note_on_c, 7, 66, 70
19, 126195, Note_off_c, 7, 66, 64
19, 126219, Note_on_c, 7, 66, 80
19, 126319, Note_off_c, 7, 66, 64
19, 126403, Note_on_c, 7, 69, 85
19, 126436, Note_off_c, 7, 69, 64
19, 126460, Note_on_c, 7, 69, 91
19, 126532, Note_off_c, 7, 69, 64
19, 126634, Note_on_c, 7, 66, 74
19, 126672, Note_off_c, 7, 66, 64
19, 126696, Note_on_c, 7, 62, 89
19, 126832, Note_off_c, 7, 62, 64
19, 126900, Note_on_c, 7, 66, 70
19, 126937, Note_off_c, 7, 66, 64
19, 126956, Note_on_c, 7, 66, 87
19, 127033, Note_off_c, 7, 66, 64
19, 127129, Note_on_c, 7, 69, 80
19, 127163, Note_off_c, 7, 69, 64
19, 127186, Note_on_c, 7, 69, 87
19, 127293, Note_off_c, 7, 69, 64
19, 127374, Note_on_c, 7, 72, 82
19, 127411, Note_off_c, 7, 72, 64
19, 127432, Note_on_c, 7, 72, 100
19, 127494, Note_off_c, 7, 72, 64
19, 127607, Note_on_c, 7, 69, 85
19, 127638, Note_off_c, 7, 69, 64
19, 127669, Note_on_c, 7, 66, 95
19, 127985, Note_off_c, 7, 66, 64
19, 128088, Note_on_c, 7, 66, 68
19, 128129, Note_off_c, 7, 66, 64
19, 128145, Note_on_c, 7, 67, 78
19, 128245, Note_off_c, 7, 67, 64
19, 128333, Note_on_c, 7, 69, 72
19, 128370, Note_off_c, 7, 69, 64
19, 128394, Note_on_c, 7, 67, 91
19, 128480, Note_off_c, 7, 67, 64
19, 128576, Note_on_c, 7, 66, 63
19, 128619, Note_off_c, 7, 66, 64
19, 128637, Note_on_c, 7, 67, 82
19, 128722, Note_off_c, 7, 67, 64
19, 128813, Note_on_c, 7, 71, 82
19, 128849, Note_off_c, 7, 71, 64
19, 128870, Note_on_c, 7, 71, 87
19, 128945, Note_off_c, 7, 71, 64
19, 129055, Note_on_c, 7, 67, 80
19, 129091, Note_off_c, 7, 67, 64
19, 129116, Note_on_c, 7, 62, 95
19, 129430, Note_off_c, 7, 62, 64
19, 129513, Note_on_c, 7, 64, 82
19, 129553, Note_off_c, 7, 64, 64
19, 129582, Note_on_c, 7, 57, 87
19, 129679, Note_off_c, 7, 57, 64
19, 129757, Note_on_c, 7, 62, 82
19, 129807, Note_off_c, 7, 62, 64
19, 129823, Note_on_c, 7, 66, 89
19, 129898, Note_off_c, 7, 66, 64
19, 130000, Note_on_c, 7, 67, 82
19, 130043, Note_off_c, 7, 67, 64
19, 130065, Note_on_c, 7, 69, 87
19, 130170, Note_off_c, 7, 69, 64
19, 130246, Note_on_c, 7, 72, 78
19, 130280, Note_off_c, 7, 72, 64
19, 130304, Note_on_c, 7, 72, 85
19, 130377, Note_off_c, 7, 72, 64
19, 130484, Note_on_c, 7, 71, 89
19, 130519, Note_off_c, 7, 71, 64
19, 130545, Note_on_c, 7, 71, 91
19, 130632, Note_off_c, 7, 71, 64
19, 130718, Note_on_c, 7, 66, 63
19, 130767, Note_off_c, 7, 66, 64
19, 130785, Note_on_c, 7, 63, 95
19, 130858, Note_off_c, 7, 63, 64
19, 130964, Note_on_c, 7, 69, 89
19, 131011, Note_off_c, 7, 69, 64
19, 131028, Note_on_c, 7, 59, 95
19, 131114, Note_off_c, 7, 59, 64
19, 131217, Note_on_c, 7, 75, 76
19, 131264, Note_off_c, 7, 75, 64
19, 131275, Note_on_c, 7, 76, 87
19, 131363, Note_off_c, 7, 76, 64
19, 131454, Note_on_c, 7, 78, 80
19, 131500, Note_off_c, 7, 78, 64
19, 131515, Note_on_c, 7, 76, 87
19, 131602, Note_off_c, 7, 76, 64
19, 131693, Note_on_c, 7, 75, 78
19, 131740, Note_off_c, 7, 75, 64
19, 131753, Note_on_c, 7, 76, 80
19, 131849, Note_off_c, 7, 76, 64
19, 131926, Note_on_c, 7, 78, 85
19, 131966, Note_off_c, 7, 78, 64
19, 131992, Note_on_c, 7, 76, 89
19, 132068, Note_on_c, 7, 75, 61
19, 132073, Note_off_c, 7, 76, 64
19, 132098, Note_off_c, 7, 75, 64
19, 132098, Note_on_c, 7, 76, 72
19, 132125, Note_on_c, 7, 75, 70
19, 132128, Note_off_c, 7, 76, 64
19, 132145, Note_off_c, 7, 75, 64
19, 132147, Note_on_c, 7, 76, 70
19, 132164, Note_on_c, 7, 75, 72
19, 132166, Note_off_c, 7, 76, 64
19, 132185, Note_on_c, 7, 76, 82
19, 132189, Note_off_c, 7, 75, 64
19, 132204, Note_on_c, 7, 75, 72
19, 132210, Note_off_c, 7, 76, 64
19, 132225, Note_on_c, 7, 76, 80
19, 132227, Note_off_c, 7, 75, 64
19, 132242, Note_on_c, 7, 75, 82
19, 132247, Note_off_c, 7, 76, 64
19, 132349, Note_off_c, 7, 75, 64
19, 132418, Note_on_c, 7, 76, 89
19, 132454, Note_off_c, 7, 76, 64
19, 132482, Note_on_c, 7, 76, 93
19, 132597, Note_off_c, 7, 76, 64
19, 132649, Note_on_c, 7, 64, 80
19, 132686, Note_off_c, 7, 64, 64
19, 132710, Note_on_c, 7, 64, 89
19, 132790, Note_off_c, 7, 64, 64
19, 132883, Note_on_c, 7, 68, 76
19, 132920, Note_off_c, 7, 68, 64
19, 132947, Note_on_c, 7, 71, 80
19, 133297, Note_off_c, 7, 71, 64
19, 133382, Note_on_c, 7, 71, 82
19, 133415, Note_off_c, 7, 71, 64
19, 133438, Note_on_c, 7, 69, 89
19, 133516, Note_off_c, 7, 69, 64
19, 133613, Note_on_c, 7, 61, 82
19, 133655, Note_off_c, 7, 61, 64
19, 133672, Note_on_c, 7, 64, 91
19, 133756, Note_off_c, 7, 64, 64
19, 133847, Note_on_c, 7, 69, 82
19, 133887, Note_off_c, 7, 69, 64
19, 133914, Note_on_c, 7, 74, 85
19, 134253, Note_off_c, 7, 74, 64
19, 134335, Note_on_c, 7, 69, 82
19, 134377, Note_off_c, 7, 69, 64
19, 134394, Note_on_c, 7, 66, 91
19, 134478, Note_off_c, 7, 66, 64
19, 134567, Note_on_c, 7, 74, 89
19, 134604, Note_off_c, 7, 74, 64
19, 134627, Note_on_c, 7, 74, 100
19, 134706, Note_off_c, 7, 74, 64
19, 134815, Note_on_c, 7, 73, 70
19, 134849, Note_off_c, 7, 73, 64
19, 134870, Note_on_c, 7, 71, 82
19, 135190, Note_off_c, 7, 71, 64
19, 135285, Note_on_c, 7, 71, 74
19, 135326, Note_off_c, 7, 71, 64
19, 135347, Note_on_c, 7, 69, 85
19, 135446, Note_off_c, 7, 69, 64
19, 135537, Note_on_c, 7, 73, 70
19, 135572, Note_off_c, 7, 73, 64
19, 135592, Note_on_c, 7, 73, 85
19, 135658, Note_off_c, 7, 73, 64
19, 135776, Note_on_c, 7, 76, 91
19, 135814, Note_off_c, 7, 76, 64
19, 135829, Note_on_c, 7, 76, 87
19, 135921, Note_off_c, 7, 76, 64
19, 136004, Note_on_c, 7, 74, 82
19, 136050, Note_off_c, 7, 74, 64
19, 136068, Note_on_c, 7, 76, 95
19, 136143, Note_off_c, 7, 76, 64
19, 136250, Note_on_c, 7, 73, 68
19, 136298, Note_off_c, 7, 73, 64
19, 136316, Note_on_c, 7, 74, 98
19, 136393, Note_off_c, 7, 74, 64
19, 136491, Note_on_c, 7, 69, 95
19, 136522, Note_off_c, 7, 69, 64
19, 136549, Note_on_c, 7, 69, 100
19, 136625, Note_off_c, 7, 69, 64
19, 136733, Note_on_c, 7, 66, 102
19, 136766, Note_off_c, 7, 66, 64
19, 136792, Note_on_c, 7, 66, 102
19, 136855, Note_off_c, 7, 66, 64
19, 136972, Note_on_c, 7, 62, 85
19, 137005, Note_off_c, 7, 62, 64
19, 137040, Note_on_c, 7, 62, 85
19, 137356, Note_off_c, 7, 62, 64
19, 137451, Note_on_c, 7, 66, 80
19, 137498, Note_off_c, 7, 66, 64
19, 137512, Note_on_c, 7, 67, 87
19, 137595, Note_off_c, 7, 67, 64
19, 137701, Note_on_c, 7, 69, 89
19, 137738, Note_off_c, 7, 69, 64
19, 137751, Note_on_c, 7, 71, 87
19, 137841, Note_off_c, 7, 71, 64
19, 137935, Note_on_c, 7, 73, 74
19, 137985, Note_off_c, 7, 73, 64
19, 137995, Note_on_c, 7, 74, 98
19, 138072, Note_off_c, 7, 74, 64
19, 138170, Note_on_c, 7, 76, 89
19, 138221, Note_off_c, 7, 76, 64
19, 141712, Note_on_c, 7, 62, 74
19, 141761, Note_on_c, 7, 64, 78
19, 141764, Note_off_c, 7, 62, 64
19, 141813, Note_off_c, 7, 64, 64
19, 141821, Note_on_c, 7, 66, 78
19, 141881, Note_off_c, 7, 66, 64
19, 141954, Note_on_c, 7, 66, 59
19, 142000, Note_on_c, 7, 67, 68
19, 142002, Note_off_c, 7, 66, 64
19, 142043, Note_off_c, 7, 67, 64
19, 142065, Note_on_c, 7, 69, 82
19, 142138, Note_off_c, 7, 69, 64
19, 142191, Note_on_c, 7, 66, 61
19, 142245, Note_off_c, 7, 66, 64
19, 142253, Note_on_c, 7, 67, 57
19, 142306, Note_off_c, 7, 67, 64
19, 142316, Note_on_c, 7, 69, 76
19, 142380, Note_off_c, 7, 69, 64
19, 142441, Note_on_c, 7, 69, 78
19, 142487, Note_on_c, 7, 71, 78
19, 142490, Note_off_c, 7, 69, 64
19, 142534, Note_off_c, 7, 71, 64
19, 142550, Note_on_c, 7, 72, 91
19, 142617, Note_off_c, 7, 72, 64
19, 142676, Note_on_c, 7, 72, 66
19, 142720, Note_on_c, 7, 71, 60
19, 142721, Note_off_c, 7, 72, 64
19, 142774, Note_off_c, 7, 71, 64
19, 142788, Note_on_c, 7, 72, 87
19, 142855, Note_off_c, 7, 72, 64
19, 142911, Note_on_c, 7, 74, 76
19, 142963, Note_off_c, 7, 74, 64
19, 142967, Note_on_c, 7, 72, 66
19, 143014, Note_off_c, 7, 72, 64
19, 143033, Note_on_c, 7, 71, 82
19, 143097, Note_off_c, 7, 71, 64
19, 143157, Note_on_c, 7, 67, 70
19, 143211, Note_off_c, 7, 67, 64
19, 143212, Note_on_c, 7, 69, 74
19, 143262, Note_off_c, 7, 69, 64
19, 143273, Note_on_c, 7, 71, 82
19, 143332, Note_off_c, 7, 71, 64
19, 143394, Note_on_c, 7, 71, 68
19, 143446, Note_on_c, 7, 73, 64
19, 143457, Note_off_c, 7, 71, 64
19, 143497, Note_off_c, 7, 73, 64
19, 143511, Note_on_c, 7, 74, 95
19, 143573, Note_off_c, 7, 74, 64
19, 143630, Note_on_c, 7, 74, 80
19, 143681, Note_off_c, 7, 74, 64
19, 143681, Note_on_c, 7, 73, 70
19, 143727, Note_off_c, 7, 73, 64
19, 143744, Note_on_c, 7, 74, 85
19, 143808, Note_off_c, 7, 74, 64
19, 143867, Note_on_c, 7, 76, 80
19, 143921, Note_on_c, 7, 74, 82
19, 143931, Note_off_c, 7, 76, 64
19, 143970, Note_off_c, 7, 74, 64
19, 143987, Note_on_c, 7, 73, 85
19, 144041, Note_off_c, 7, 73, 64
19, 144110, Note_on_c, 7, 76, 87
19, 144160, Note_off_c, 7, 76, 64
19, 144231, Note_on_c, 7, 69, 78
19, 144276, Note_off_c, 7, 69, 64
19, 144352, Note_on_c, 7, 73, 80
19, 144518, Note_off_c, 7, 73, 64
19, 144592, Note_on_c, 7, 76, 82
19, 144632, Note_off_c, 7, 76, 64
19, 144712, Note_on_c, 7, 67, 74
19, 144761, Note_off_c, 7, 67, 64
19, 144838, Note_on_c, 7, 73, 80
19, 145026, Note_off_c, 7, 73, 64
19, 145067, Note_on_c, 7, 76, 87
19, 145115, Note_off_c, 7, 76, 64
19, 145187, Note_on_c, 7, 69, 82
19, 145247, Note_off_c, 7, 69, 64
19, 145306, Note_on_c, 7, 73, 78
19, 145351, Note_off_c, 7, 73, 64
19, 145426, Note_on_c, 7, 74, 66
19, 145483, Note_off_c, 7, 74, 64
19, 145483, Note_on_c, 7, 69, 80
19, 145524, Note_off_c, 7, 69, 64
19, 145541, Note_on_c, 7, 66, 74
19, 145592, Note_off_c, 7, 66, 64
19, 145596, Note_on_c, 7, 67, 70
19, 145639, Note_off_c, 7, 67, 64
19, 145656, Note_on_c, 7, 69, 63
19, 145713, Note_off_c, 7, 69, 64
19, 145719, Note_on_c, 7, 71, 76
19, 145760, Note_off_c, 7, 71, 64
19, 145780, Note_on_c, 7, 69, 57
19, 145829, Note_on_c, 7, 71, 64
19, 145832, Note_off_c, 7, 69, 64
19, 145872, Note_off_c, 7, 71, 64
19, 145900, Note_on_c, 7, 72, 87
19, 145955, Note_on_c, 7, 69, 74
19, 145959, Note_off_c, 7, 72, 64
19, 145992, Note_off_c, 7, 69, 64
19, 146009, Note_on_c, 7, 62, 68
19, 146070, Note_on_c, 7, 64, 72
19, 146075, Note_off_c, 7, 62, 64
19, 146114, Note_off_c, 7, 64, 64
19, 146130, Note_on_c, 7, 66, 78
19, 146187, Note_on_c, 7, 67, 68
19, 146193, Note_off_c, 7, 66, 64
19, 146234, Note_off_c, 7, 67, 64
19, 146249, Note_on_c, 7, 66, 56
19, 146306, Note_off_c, 7, 66, 64
19, 146311, Note_on_c, 7, 67, 63
19, 146365, Note_off_c, 7, 67, 64
19, 146383, Note_on_c, 7, 69, 80
19, 146448, Note_on_c, 7, 67, 72
19, 146464, Note_off_c, 7, 69, 64
19, 146507, Note_on_c, 7, 66, 55
19, 146513, Note_off_c, 7, 67, 64
19, 146568, Note_on_c, 7, 67, 68
19, 146570, Note_off_c, 7, 66, 64
19, 146622, Note_off_c, 7, 67, 64
19, 146636, Note_on_c, 7, 69, 93
19, 146689, Note_on_c, 7, 67, 70
19, 146701, Note_off_c, 7, 69, 64
19, 146744, Note_on_c, 7, 66, 57
19, 146766, Note_off_c, 7, 67, 64
19, 146808, Note_on_c, 7, 64, 64
19, 146810, Note_off_c, 7, 66, 64
19, 146851, Note_off_c, 7, 64, 64
19, 146868, Note_on_c, 7, 62, 68
19, 146940, Note_off_c, 7, 62, 64
19, 146992, Note_on_c, 7, 71, 87
19, 147037, Note_off_c, 7, 71, 64
19, 147116, Note_on_c, 7, 64, 78
19, 147162, Note_off_c, 7, 64, 64
19, 147239, Note_on_c, 7, 68, 78
19, 147413, Note_off_c, 7, 68, 64
19, 147468, Note_on_c, 7, 71, 85
19, 147518, Note_off_c, 7, 71, 64
19, 147596, Note_on_c, 7, 62, 78
19, 147641, Note_off_c, 7, 62, 64
19, 147712, Note_on_c, 7, 68, 74
19, 147899, Note_off_c, 7, 68, 64
19, 147944, Note_on_c, 7, 71, 82
19, 147999, Note_off_c, 7, 71, 64
19, 148066, Note_on_c, 7, 64, 74
19, 148115, Note_off_c, 7, 64, 64
19, 148184, Note_on_c, 7, 68, 78
19, 148219, Note_off_c, 7, 68, 64
19, 148305, Note_on_c, 7, 69, 80
19, 148357, Note_on_c, 7, 81, 78
19, 148360, Note_off_c, 7, 69, 64
19, 148397, Note_off_c, 7, 81, 64
19, 148423, Note_on_c, 7, 73, 60
19, 148479, Note_on_c, 7, 74, 74
19, 148485, Note_off_c, 7, 73, 64
19, 148526, Note_off_c, 7, 74, 64
19, 148540, Note_on_c, 7, 76, 80
19, 148594, Note_on_c, 7, 78, 63
19, 148601, Note_off_c, 7, 76, 64
19, 148640, Note_off_c, 7, 78, 64
19, 148652, Note_on_c, 7, 76, 76
19, 148711, Note_on_c, 7, 78, 60
19, 148714, Note_off_c, 7, 76, 64
19, 148759, Note_off_c, 7, 78, 64
19, 148778, Note_on_c, 7, 79, 85
19, 148836, Note_on_c, 7, 76, 63
19, 148840, Note_off_c, 7, 79, 64
19, 148880, Note_off_c, 7, 76, 64
19, 148894, Note_on_c, 7, 69, 62
19, 148954, Note_on_c, 7, 71, 70
19, 148960, Note_off_c, 7, 69, 64
19, 149012, Note_off_c, 7, 71, 64
19, 149016, Note_on_c, 7, 73, 64
19, 149072, Note_on_c, 7, 74, 68
19, 149079, Note_off_c, 7, 73, 64
19, 149131, Note_off_c, 7, 74, 64
19, 149137, Note_on_c, 7, 73, 64
19, 149195, Note_on_c, 7, 74, 72
19, 149200, Note_off_c, 7, 73, 64
19, 149246, Note_off_c, 7, 74, 64
19, 149261, Note_on_c, 7, 76, 87
19, 149315, Note_on_c, 7, 74, 70
19, 149323, Note_off_c, 7, 76, 64
19, 149379, Note_off_c, 7, 74, 64
19, 149380, Note_on_c, 7, 73, 56
19, 149437, Note_on_c, 7, 74, 72
19, 149446, Note_off_c, 7, 73, 64
19, 149483, Note_off_c, 7, 74, 64
19, 149501, Note_on_c, 7, 76, 85
19, 149553, Note_on_c, 7, 74, 78
19, 149568, Note_off_c, 7, 76, 64
19, 149608, Note_off_c, 7, 74, 64
19, 149616, Note_on_c, 7, 73, 78
19, 149667, Note_off_c, 7, 73, 64
19, 149669, Note_on_c, 7, 71, 78
19, 149725, Note_off_c, 7, 71, 64
19, 149741, Note_on_c, 7, 69, 76
19, 149805, Note_off_c, 7, 69, 64
19, 149872, Note_on_c, 7, 66, 76
19, 149921, Note_off_c, 7, 66, 64
19, 149996, Note_on_c, 7, 71, 87
19, 150271, Note_off_c, 7, 71, 64
19, 150362, Note_on_c, 7, 70, 74
19, 150411, Note_on_c, 7, 71, 72
19, 150416, Note_off_c, 7, 70, 64
19, 150464, Note_off_c, 7, 71, 64
19, 150475, Note_on_c, 7, 73, 66
19, 150529, Note_on_c, 7, 71, 72
19, 150531, Note_off_c, 7, 73, 64
19, 150585, Note_on_c, 7, 70, 66
19, 150591, Note_off_c, 7, 71, 64
19, 150641, Note_off_c, 7, 70, 64
19, 150643, Note_on_c, 7, 68, 61
19, 150681, Note_off_c, 7, 68, 64
19, 150707, Note_on_c, 7, 66, 60
19, 150766, Note_on_c, 7, 78, 70
19, 150774, Note_off_c, 7, 66, 64
19, 150824, Note_off_c, 7, 78, 64
19, 150834, Note_on_c, 7, 71, 78
19, 150896, Note_on_c, 7, 73, 58
19, 150907, Note_off_c, 7, 71, 64
19, 150938, Note_off_c, 7, 73, 64
19, 150954, Note_on_c, 7, 74, 80
19, 151004, Note_off_c, 7, 74, 64
19, 151005, Note_on_c, 7, 76, 62
19, 151052, Note_off_c, 7, 76, 64
19, 151066, Note_on_c, 7, 74, 63
19, 151124, Note_on_c, 7, 76, 68
19, 151125, Note_off_c, 7, 74, 64
19, 151182, Note_off_c, 7, 76, 64
19, 151191, Note_on_c, 7, 78, 63
19, 151253, Note_off_c, 7, 78, 64
19, 151253, Note_on_c, 7, 81, 82
19, 151301, Note_off_c, 7, 81, 64
19, 151310, Note_on_c, 7, 74, 70
19, 151366, Note_off_c, 7, 74, 64
19, 151366, Note_on_c, 7, 76, 64
19, 151413, Note_off_c, 7, 76, 64
19, 151429, Note_on_c, 7, 78, 82
19, 151481, Note_off_c, 7, 78, 64
19, 151482, Note_on_c, 7, 79, 72
19, 151529, Note_off_c, 7, 79, 64
19, 151542, Note_on_c, 7, 78, 87
19, 151585, Note_off_c, 7, 78, 64
19, 151598, Note_on_c, 7, 79, 80
19, 151644, Note_off_c, 7, 79, 64
19, 151665, Note_on_c, 7, 81, 98
19, 151719, Note_on_c, 7, 79, 76
19, 151729, Note_off_c, 7, 81, 64
19, 151774, Note_off_c, 7, 79, 64
19, 151782, Note_on_c, 7, 78, 51
19, 151839, Note_on_c, 7, 79, 70
19, 151840, Note_off_c, 7, 78, 64
19, 151887, Note_off_c, 7, 79, 64
19, 151909, Note_on_c, 7, 81, 98
19, 151962, Note_on_c, 7, 79, 76
19, 151974, Note_off_c, 7, 81, 64
19, 152022, Note_off_c, 7, 79, 64
19, 152023, Note_on_c, 7, 78, 78
19, 152080, Note_on_c, 7, 76, 66
19, 152082, Note_off_c, 7, 78, 64
19, 152144, Note_off_c, 7, 76, 64
19, 152150, Note_on_c, 7, 74, 82
19, 152206, Note_off_c, 7, 74, 64
19, 152275, Note_on_c, 7, 71, 82
19, 152317, Note_off_c, 7, 71, 64
19, 152396, Note_on_c, 7, 76, 87
19, 152675, Note_off_c, 7, 76, 64
19, 152737, Note_on_c, 7, 69, 78
19, 152781, Note_off_c, 7, 69, 64
19, 152864, Note_on_c, 7, 74, 87
19, 153144, Note_off_c, 7, 74, 64
19, 153223, Note_on_c, 7, 73, 68
19, 153286, Note_off_c, 7, 73, 64
19, 153348, Note_on_c, 7, 74, 87
19, 153397, Note_off_c, 7, 74, 64
19, 153399, Note_on_c, 7, 73, 89
19, 153442, Note_off_c, 7, 73, 64
19, 153451, Note_on_c, 7, 71, 78
19, 153501, Note_off_c, 7, 71, 64
19, 153511, Note_on_c, 7, 74, 80
19, 153557, Note_off_c, 7, 74, 64
19, 153576, Note_on_c, 7, 73, 82
19, 153628, Note_off_c, 7, 73, 64
19, 153695, Note_on_c, 7, 76, 87
19, 153733, Note_off_c, 7, 76, 64
19, 153819, Note_on_c, 7, 69, 80
19, 153865, Note_off_c, 7, 69, 64
19, 153943, Note_on_c, 7, 73, 80
19, 154141, Note_off_c, 7, 73, 64
19, 154190, Note_on_c, 7, 76, 82
19, 154236, Note_off_c, 7, 76, 64
19, 154307, Note_on_c, 7, 67, 76
19, 154354, Note_off_c, 7, 67, 64
19, 154432, Note_on_c, 7, 73, 82
19, 154640, Note_off_c, 7, 73, 64
19, 154670, Note_on_c, 7, 76, 85
19, 154714, Note_off_c, 7, 76, 64
19, 154784, Note_on_c, 7, 69, 80
19, 154842, Note_off_c, 7, 69, 64
19, 154906, Note_on_c, 7, 73, 80
19, 154961, Note_off_c, 7, 73, 64
19, 155024, Note_on_c, 7, 74, 89
19, 155070, Note_off_c, 7, 74, 64
19, 155144, Note_on_c, 7, 69, 70
19, 155186, Note_off_c, 7, 69, 64
19, 155271, Note_on_c, 7, 74, 89
19, 155553, Note_off_c, 7, 74, 64
19, 155620, Note_on_c, 7, 67, 82
19, 155675, Note_off_c, 7, 67, 64
19, 155738, Note_on_c, 7, 64, 72
19, 155795, Note_off_c, 7, 64, 64
19, 155859, Note_on_c, 7, 73, 66
19, 155912, Note_off_c, 7, 73, 64
19, 155984, Note_on_c, 7, 74, 85
19, 156045, Note_off_c, 7, 74, 64
19, 156099, Note_on_c, 7, 69, 85
19, 156149, Note_off_c, 7, 69, 64
19, 156221, Note_on_c, 7, 62, 70
19, 156270, Note_off_c, 7, 62, 64
19, 156347, Note_on_c, 7, 67, 82
19, 156391, Note_off_c, 7, 67, 64
19, 156464, Note_on_c, 7, 64, 78
19, 156511, Note_off_c, 7, 64, 64
19, 156529, Note_on_c, 7, 61, 89
19, 156577, Note_off_c, 7, 61, 64
19, 156595, Note_on_c, 7, 62, 63
19, 156645, Note_off_c, 7, 62, 64
19, 156648, Note_on_c, 7, 64, 76
19, 156688, Note_off_c, 7, 64, 64
19, 156720, Note_on_c, 7, 57, 89
19, 156757, Note_off_c, 7, 57, 64
19, 156826, Note_on_c, 7, 73, 62
19, 156871, Note_off_c, 7, 73, 64
19, 156945, Note_on_c, 7, 74, 78
19, 157011, Note_off_c, 7, 74, 64
19, 157066, Note_on_c, 7, 71, 78
19, 157118, Note_off_c, 7, 71, 64
19, 157186, Note_on_c, 7, 69, 80
19, 157232, Note_off_c, 7, 69, 64
19, 157312, Note_on_c, 7, 69, 80
19, 157356, Note_off_c, 7, 69, 64
19, 157445, Note_on_c, 7, 69, 85
19, 157665, Note_off_c, 7, 69, 64
19, 172910, Note_on_c, 7, 76, 85
19, 172968, Note_off_c, 7, 76, 64
19, 173036, Note_on_c, 7, 69, 80
19, 173088, Note_off_c, 7, 69, 64
19, 173158, Note_on_c, 7, 73, 85
19, 173322, Note_off_c, 7, 73, 64
19, 173386, Note_on_c, 7, 76, 91
19, 173436, Note_off_c, 7, 76, 64
19, 173507, Note_on_c, 7, 67, 87
19, 173552, Note_off_c, 7, 67, 64
19, 173632, Note_on_c, 7, 73, 85
19, 173803, Note_off_c, 7, 73, 64
19, 173862, Note_on_c, 7, 76, 91
19, 173905, Note_off_c, 7, 76, 64
19, 173984, Note_on_c, 7, 69, 87
19, 174036, Note_off_c, 7, 69, 64
19, 174100, Note_on_c, 7, 73, 74
19, 174152, Note_off_c, 7, 73, 64
19, 174226, Note_on_c, 7, 74, 95
19, 174273, Note_off_c, 7, 74, 64
19, 174279, Note_on_c, 7, 73, 70
19, 174336, Note_off_c, 7, 73, 64
19, 174343, Note_on_c, 7, 74, 66
19, 174396, Note_on_c, 7, 76, 80
19, 174408, Note_off_c, 7, 74, 64
19, 174454, Note_off_c, 7, 76, 64
19, 174460, Note_on_c, 7, 78, 93
19, 174514, Note_on_c, 7, 79, 80
19, 174521, Note_off_c, 7, 78, 64
19, 174566, Note_off_c, 7, 79, 64
19, 174580, Note_on_c, 7, 78, 93
19, 174635, Note_off_c, 7, 78, 64
19, 174636, Note_on_c, 7, 79, 74
19, 174685, Note_off_c, 7, 79, 64
19, 174707, Note_on_c, 7, 81, 95
19, 174758, Note_on_c, 7, 78, 72
19, 174766, Note_off_c, 7, 81, 64
19, 174805, Note_off_c, 7, 78, 64
19, 174819, Note_on_c, 7, 71, 53
19, 174880, Note_on_c, 7, 73, 59
19, 174888, Note_off_c, 7, 71, 64
19, 174943, Note_off_c, 7, 73, 64
19, 174945, Note_on_c, 7, 75, 74
19, 175000, Note_on_c, 7, 76, 68
19, 175007, Note_off_c, 7, 75, 64
19, 175053, Note_off_c, 7, 76, 64
19, 175063, Note_on_c, 7, 75, 85
19, 175111, Note_on_c, 7, 76, 66
19, 175118, Note_off_c, 7, 75, 64
19, 175160, Note_off_c, 7, 76, 64
19, 175191, Note_on_c, 7, 78, 100
19, 175246, Note_on_c, 7, 76, 60
19, 175250, Note_off_c, 7, 78, 64
19, 175306, Note_on_c, 7, 75, 58
19, 175316, Note_off_c, 7, 76, 64
19, 175366, Note_on_c, 7, 76, 66
19, 175371, Note_off_c, 7, 75, 64
19, 175427, Note_off_c, 7, 76, 64
19, 175436, Note_on_c, 7, 78, 80
19, 175492, Note_on_c, 7, 76, 72
19, 175494, Note_off_c, 7, 78, 64
19, 175548, Note_on_c, 7, 75, 74
19, 175554, Note_off_c, 7, 76, 64
19, 175603, Note_on_c, 7, 73, 53
19, 175610, Note_off_c, 7, 75, 64
19, 175660, Note_off_c, 7, 73, 64
19, 175667, Note_on_c, 7, 71, 66
19, 175774, Note_off_c, 7, 71, 64
19, 175790, Note_on_c, 7, 76, 63
19, 175895, Note_off_c, 7, 76, 64
19, 175916, Note_on_c, 7, 76, 68
19, 176015, Note_off_c, 7, 76, 64
19, 176036, Note_on_c, 7, 76, 68
19, 176140, Note_off_c, 7, 76, 64
19, 176160, Note_on_c, 7, 76, 66
19, 176249, Note_off_c, 7, 76, 64
19, 176271, Note_on_c, 7, 76, 78
19, 176363, Note_off_c, 7, 76, 64
19, 176386, Note_on_c, 7, 76, 78
19, 176484, Note_off_c, 7, 76, 64
19, 176504, Note_on_c, 7, 76, 70
19, 176601, Note_off_c, 7, 76, 64
19, 176627, Note_on_c, 7, 76, 85
19, 176720, Note_off_c, 7, 76, 64
19, 176750, Note_on_c, 7, 76, 80
19, 176830, Note_off_c, 7, 76, 64
19, 176865, Note_on_c, 7, 76, 89
19, 176947, Note_off_c, 7, 76, 64
19, 176982, Note_on_c, 7, 71, 85
19, 177061, Note_off_c, 7, 71, 64
19, 177105, Note_on_c, 7, 69, 80
19, 177159, Note_on_c, 7, 68, 68
19, 177164, Note_off_c, 7, 69, 64
19, 177221, Note_off_c, 7, 68, 64
19, 177223, Note_on_c, 7, 69, 70
19, 177284, Note_on_c, 7, 71, 72
19, 177317, Note_off_c, 7, 71, 64
19, 177318, Note_off_c, 7, 69, 64
19, 177342, Note_on_c, 7, 69, 74
19, 177405, Note_on_c, 7, 68, 55
19, 177409, Note_off_c, 7, 69, 64
19, 177459, Note_off_c, 7, 68, 64
19, 177463, Note_on_c, 7, 66, 64
19, 177501, Note_off_c, 7, 66, 64
19, 177520, Note_on_c, 7, 69, 59
19, 177574, Note_off_c, 7, 69, 64
19, 177591, Note_on_c, 7, 68, 95
19, 177649, Note_on_c, 7, 69, 70
19, 177651, Note_off_c, 7, 68, 64
19, 177702, Note_on_c, 7, 68, 51
19, 177716, Note_off_c, 7, 69, 64
19, 177758, Note_on_c, 7, 66, 62
19, 177766, Note_off_c, 7, 68, 64
19, 177822, Note_off_c, 7, 66, 64
19, 177827, Note_on_c, 7, 65, 87
19, 177896, Note_off_c, 7, 65, 64
19, 177944, Note_on_c, 7, 68, 66
19, 178023, Note_off_c, 7, 68, 64
19, 178070, Note_on_c, 7, 69, 87
19, 178124, Note_on_c, 7, 73, 62
19, 178126, Note_off_c, 7, 69, 64
19, 178173, Note_off_c, 7, 73, 64
19, 178182, Note_on_c, 7, 66, 80
19, 178241, Note_on_c, 7, 68, 63
19, 178248, Note_off_c, 7, 66, 64
19, 178293, Note_off_c, 7, 68, 64
19, 178305, Note_on_c, 7, 69, 82
19, 178364, Note_on_c, 7, 71, 87
19, 178368, Note_off_c, 7, 69, 64
19, 178424, Note_off_c, 7, 71, 64
19, 178427, Note_on_c, 7, 69, 87
19, 178487, Note_on_c, 7, 71, 80
19, 178498, Note_off_c, 7, 69, 64
19, 178534, Note_off_c, 7, 71, 64
19, 178549, Note_on_c, 7, 73, 100
19, 178602, Note_on_c, 7, 76, 82
19, 178617, Note_off_c, 7, 73, 64
19, 178648, Note_off_c, 7, 76, 64
19, 178660, Note_on_c, 7, 69, 82
19, 178716, Note_on_c, 7, 71, 76
19, 178719, Note_off_c, 7, 69, 64
19, 178767, Note_off_c, 7, 71, 64
19, 178780, Note_on_c, 7, 73, 82
19, 178829, Note_on_c, 7, 74, 82
19, 178838, Note_off_c, 7, 73, 64
19, 178879, Note_off_c, 7, 74, 64
19, 178894, Note_on_c, 7, 73, 87
19, 178940, Note_off_c, 7, 73, 64
19, 178949, Note_on_c, 7, 74, 80
19, 178994, Note_off_c, 7, 74, 64
19, 179013, Note_on_c, 7, 76, 102
19, 179073, Note_on_c, 7, 74, 80
19, 179083, Note_off_c, 7, 76, 64
19, 179140, Note_off_c, 7, 74, 64
19, 179142, Note_on_c, 7, 73, 49
19, 179199, Note_on_c, 7, 74, 68
19, 179207, Note_off_c, 7, 73, 64
19, 179247, Note_off_c, 7, 74, 64
19, 179266, Note_on_c, 7, 76, 105
19, 179323, Note_on_c, 7, 74, 78
19, 179336, Note_off_c, 7, 76, 64
19, 179388, Note_on_c, 7, 73, 64
19, 179396, Note_off_c, 7, 74, 64
19, 179447, Note_on_c, 7, 71, 78
19, 179450, Note_off_c, 7, 73, 64
19, 179505, Note_off_c, 7, 71, 64
19, 179517, Note_on_c, 7, 69, 85
19, 179584, Note_off_c, 7, 69, 64
19, 179639, Note_on_c, 7, 66, 85
19, 179686, Note_off_c, 7, 66, 64
19, 179763, Note_on_c, 7, 71, 87
19, 180018, Note_off_c, 7, 71, 64
19, 180100, Note_on_c, 7, 76, 89
19, 180154, Note_off_c, 7, 76, 64
19, 180226, Note_on_c, 7, 70, 80
19, 180269, Note_off_c, 7, 70, 64
19, 180345, Note_on_c, 7, 66, 82
19, 180503, Note_off_c, 7, 66, 64
19, 180522, Note_on_c, 7, 67, 76
19, 180569, Note_off_c, 7, 67, 64
19, 180584, Note_on_c, 7, 64, 72
19, 180639, Note_on_c, 7, 66, 78
19, 180654, Note_off_c, 7, 64, 64
19, 180686, Note_off_c, 7, 66, 64
19, 180705, Note_on_c, 7, 67, 93
19, 180755, Note_off_c, 7, 67, 64
19, 180827, Note_on_c, 7, 64, 85
19, 180880, Note_off_c, 7, 64, 64
19, 180950, Note_on_c, 7, 73, 80
19, 180996, Note_off_c, 7, 73, 64
19, 181006, Note_on_c, 7, 78, 68
19, 181059, Note_off_c, 7, 78, 64
19, 181060, Note_on_c, 7, 70, 74
19, 181118, Note_on_c, 7, 71, 78
19, 181121, Note_off_c, 7, 70, 64
19, 181163, Note_off_c, 7, 71, 64
19, 181182, Note_on_c, 7, 73, 85
19, 181231, Note_on_c, 7, 74, 82
19, 181238, Note_off_c, 7, 73, 64
19, 181273, Note_off_c, 7, 74, 64
19, 181288, Note_on_c, 7, 73, 64
19, 181344, Note_on_c, 7, 74, 82
19, 181353, Note_off_c, 7, 73, 64
19, 181395, Note_off_c, 7, 74, 64
19, 181415, Note_on_c, 7, 76, 100
19, 181471, Note_on_c, 7, 73, 62
19, 181478, Note_off_c, 7, 76, 64
19, 181525, Note_off_c, 7, 73, 64
19, 181537, Note_on_c, 7, 66, 57
19, 181590, Note_on_c, 7, 68, 72
19, 181604, Note_off_c, 7, 66, 64
19, 181650, Note_off_c, 7, 68, 64
19, 181658, Note_on_c, 7, 70, 70
19, 181714, Note_off_c, 7, 70, 64
19, 181714, Note_on_c, 7, 71, 70
19, 181771, Note_off_c, 7, 71, 64
19, 181778, Note_on_c, 7, 70, 58
19, 181845, Note_off_c, 7, 70, 64
19, 181845, Note_on_c, 7, 71, 74
19, 181898, Note_off_c, 7, 71, 64
19, 181904, Note_on_c, 7, 73, 66
19, 181963, Note_on_c, 7, 71, 66
19, 181980, Note_off_c, 7, 73, 64
19, 182015, Note_off_c, 7, 71, 64
19, 182016, Note_on_c, 7, 70, 59
19, 182078, Note_on_c, 7, 71, 72
19, 182083, Note_off_c, 7, 70, 64
19, 182131, Note_off_c, 7, 71, 64
19, 182144, Note_on_c, 7, 73, 91
19, 182201, Note_on_c, 7, 76, 93
19, 182217, Note_off_c, 7, 73, 64
19, 182257, Note_on_c, 7, 74, 80
19, 182267, Note_off_c, 7, 76, 64
19, 182314, Note_off_c, 7, 74, 64
19, 182317, Note_on_c, 7, 73, 66
19, 182372, Note_off_c, 7, 73, 64
19, 182382, Note_on_c, 7, 71, 82
19, 182434, Note_off_c, 7, 71, 64
19, 182509, Note_on_c, 7, 66, 76
19, 182556, Note_off_c, 7, 66, 64
19, 182622, Note_on_c, 7, 71, 87
19, 182890, Note_off_c, 7, 71, 64
19, 182984, Note_on_c, 7, 64, 76
19, 183032, Note_off_c, 7, 64, 64
19, 183101, Note_on_c, 7, 61, 68
19, 183154, Note_off_c, 7, 61, 64
19, 183214, Note_on_c, 7, 70, 80
19, 183268, Note_off_c, 7, 70, 64
19, 183337, Note_on_c, 7, 71, 89
19, 183387, Note_off_c, 7, 71, 64
19, 183457, Note_on_c, 7, 71, 87
19, 183514, Note_off_c, 7, 71, 64
19, 183578, Note_on_c, 7, 71, 82
19, 183644, Note_off_c, 7, 71, 64
19, 183699, Note_on_c, 7, 64, 76
19, 183751, Note_off_c, 7, 64, 64
19, 183828, Note_on_c, 7, 61, 85
19, 184065, Note_off_c, 7, 61, 64
19, 184178, Note_on_c, 7, 73, 78
19, 184235, Note_off_c, 7, 73, 64
19, 184298, Note_on_c, 7, 71, 82
19, 184359, Note_off_c, 7, 71, 64
19, 184419, Note_on_c, 7, 70, 74
19, 184463, Note_off_c, 7, 70, 64
19, 184535, Note_on_c, 7, 66, 82
19, 184589, Note_off_c, 7, 66, 64
19, 184662, Note_on_c, 7, 66, 82
19, 184720, Note_off_c, 7, 66, 64
19, 184785, Note_on_c, 7, 62, 85
19, 184844, Note_off_c, 7, 62, 64
19, 184905, Note_on_c, 7, 67, 82
19, 184965, Note_off_c, 7, 67, 64
19, 185033, Note_on_c, 7, 66, 70
19, 185091, Note_off_c, 7, 66, 64
19, 185155, Note_on_c, 7, 66, 82
19, 185207, Note_off_c, 7, 66, 64
19, 185278, Note_on_c, 7, 66, 95
19, 185526, Note_off_c, 7, 66, 64
19, 202668, Note_on_c, 7, 76, 85
19, 202722, Note_off_c, 7, 76, 64
19, 202794, Note_on_c, 7, 69, 78
19, 202835, Note_off_c, 7, 69, 64
19, 202910, Note_on_c, 7, 73, 78
19, 203069, Note_off_c, 7, 73, 64
19, 203136, Note_on_c, 7, 76, 85
19, 203174, Note_off_c, 7, 76, 64
19, 203258, Note_on_c, 7, 67, 70
19, 203302, Note_off_c, 7, 67, 64
19, 203377, Note_on_c, 7, 73, 80
19, 203553, Note_off_c, 7, 73, 64
19, 203621, Note_on_c, 7, 76, 78
19, 203661, Note_off_c, 7, 76, 64
19, 203742, Note_on_c, 7, 69, 74
19, 203796, Note_off_c, 7, 69, 64
19, 203867, Note_on_c, 7, 73, 76
19, 203925, Note_off_c, 7, 73, 64
19, 203988, Note_on_c, 7, 74, 89
19, 204075, Note_off_c, 7, 74, 64
19, 204100, Note_on_c, 7, 62, 72
19, 204159, Note_off_c, 7, 62, 64
19, 204160, Note_on_c, 7, 64, 72
19, 204205, Note_off_c, 7, 64, 64
19, 204222, Note_on_c, 7, 66, 82
19, 204281, Note_off_c, 7, 66, 64
19, 204342, Note_on_c, 7, 66, 57
19, 204383, Note_on_c, 7, 67, 70
19, 204384, Note_off_c, 7, 66, 64
19, 204436, Note_off_c, 7, 67, 64
19, 204455, Note_on_c, 7, 69, 89
19, 204522, Note_off_c, 7, 69, 64
19, 204579, Note_on_c, 7, 66, 56
19, 204629, Note_on_c, 7, 67, 74
19, 204630, Note_off_c, 7, 66, 64
19, 204684, Note_off_c, 7, 67, 64
19, 204692, Note_on_c, 7, 69, 87
19, 204746, Note_off_c, 7, 69, 64
19, 204826, Note_on_c, 7, 69, 80
19, 204876, Note_off_c, 7, 69, 64
19, 204880, Note_on_c, 7, 71, 80
19, 204922, Note_off_c, 7, 71, 64
19, 204941, Note_on_c, 7, 72, 95
19, 205002, Note_off_c, 7, 72, 64
19, 205060, Note_on_c, 7, 72, 78
19, 205110, Note_off_c, 7, 72, 64
19, 205114, Note_on_c, 7, 71, 61
19, 205162, Note_off_c, 7, 71, 64
19, 205182, Note_on_c, 7, 72, 78
19, 205244, Note_off_c, 7, 72, 64
19, 205303, Note_on_c, 7, 74, 70
19, 205348, Note_off_c, 7, 74, 64
19, 205355, Note_on_c, 7, 72, 64
19, 205400, Note_off_c, 7, 72, 64
19, 205422, Note_on_c, 7, 71, 87
19, 205487, Note_off_c, 7, 71, 64
19, 205550, Note_on_c, 7, 67, 70
19, 205602, Note_off_c, 7, 67, 64
19, 205602, Note_on_c, 7, 69, 64
19, 205650, Note_off_c, 7, 69, 64
19, 205665, Note_on_c, 7, 71, 85
19, 205717, Note_off_c, 7, 71, 64
19, 205786, Note_on_c, 7, 71, 74
19, 205836, Note_on_c, 7, 73, 72
19, 205852, Note_off_c, 7, 71, 64
19, 205882, Note_off_c, 7, 73, 64
19, 205900, Note_on_c, 7, 74, 89
19, 205964, Note_off_c, 7, 74, 64
19, 206022, Note_on_c, 7, 74, 80
19, 206075, Note_off_c, 7, 74, 64
19, 206075, Note_on_c, 7, 73, 63
19, 206123, Note_off_c, 7, 73, 64
19, 206143, Note_on_c, 7, 74, 87
19, 206214, Note_off_c, 7, 74, 64
19, 206258, Note_on_c, 7, 76, 82
19, 206312, Note_off_c, 7, 76, 64
19, 206313, Note_on_c, 7, 74, 78
19, 206347, Note_off_c, 7, 74, 64
19, 206385, Note_on_c, 7, 73, 98
19, 206447, Note_off_c, 7, 73, 64
19, 206509, Note_on_c, 7, 76, 89
19, 206552, Note_off_c, 7, 76, 64
19, 206630, Note_on_c, 7, 69, 76
19, 206674, Note_off_c, 7, 69, 64
19, 206748, Note_on_c, 7, 73, 85
19, 206904, Note_off_c, 7, 73, 64
19, 206981, Note_on_c, 7, 76, 82
19, 207019, Note_off_c, 7, 76, 64
19, 207104, Note_on_c, 7, 67, 68
19, 207148, Note_off_c, 7, 67, 64
19, 207224, Note_on_c, 7, 73, 85
19, 207381, Note_off_c, 7, 73, 64
19, 207457, Note_on_c, 7, 76, 85
19, 207498, Note_off_c, 7, 76, 64
19, 207569, Note_on_c, 7, 69, 74
19, 207626, Note_off_c, 7, 69, 64
19, 207690, Note_on_c, 7, 73, 80
19, 207731, Note_off_c, 7, 73, 64
19, 207817, Note_on_c, 7, 74, 82
19, 207871, Note_on_c, 7, 69, 85
19, 207874, Note_off_c, 7, 74, 64
19, 207919, Note_off_c, 7, 69, 64
19, 207925, Note_on_c, 7, 66, 64
19, 207981, Note_on_c, 7, 67, 70
19, 207987, Note_off_c, 7, 66, 64
19, 208025, Note_off_c, 7, 67, 64
19, 208047, Note_on_c, 7, 69, 87
19, 208098, Note_on_c, 7, 71, 74
19, 208107, Note_off_c, 7, 69, 64
19, 208147, Note_off_c, 7, 71, 64
19, 208162, Note_on_c, 7, 69, 82
19, 208217, Note_off_c, 7, 69, 64
19, 208220, Note_on_c, 7, 71, 57
19, 208268, Note_off_c, 7, 71, 64
19, 208292, Note_on_c, 7, 72, 98
19, 208342, Note_on_c, 7, 69, 74
19, 208348, Note_off_c, 7, 72, 64
19, 208390, Note_off_c, 7, 69, 64
19, 208408, Note_on_c, 7, 62, 64
19, 208462, Note_on_c, 7, 64, 61
19, 208469, Note_off_c, 7, 62, 64
19, 208517, Note_off_c, 7, 64, 64
19, 208527, Note_on_c, 7, 66, 68
19, 208583, Note_on_c, 7, 67, 64
19, 208591, Note_off_c, 7, 66, 64
19, 208644, Note_off_c, 7, 67, 64
19, 208647, Note_on_c, 7, 66, 82
19, 208712, Note_on_c, 7, 67, 85
19, 208713, Note_off_c, 7, 66, 64
19, 208755, Note_off_c, 7, 67, 64
19, 208780, Note_on_c, 7, 69, 100
19, 208831, Note_on_c, 7, 67, 85
19, 208844, Note_off_c, 7, 69, 64
19, 208887, Note_off_c, 7, 67, 64
19, 208891, Note_on_c, 7, 66, 78
19, 208943, Note_off_c, 7, 66, 64
19, 208952, Note_on_c, 7, 67, 63
19, 209005, Note_off_c, 7, 67, 64
19, 209020, Note_on_c, 7, 69, 80
19, 209075, Note_on_c, 7, 67, 72
19, 209087, Note_off_c, 7, 69, 64
19, 209134, Note_on_c, 7, 66, 57
19, 209136, Note_off_c, 7, 67, 64
19, 209200, Note_off_c, 7, 66, 64
19, 209200, Note_on_c, 7, 64, 66
19, 209250, Note_off_c, 7, 64, 64
19, 209268, Note_on_c, 7, 62, 68
19, 209335, Note_off_c, 7, 62, 64
19, 209394, Note_on_c, 7, 71, 89
19, 209435, Note_off_c, 7, 71, 64
19, 209514, Note_on_c, 7, 64, 85
19, 209554, Note_off_c, 7, 64, 64
19, 209634, Note_on_c, 7, 68, 91
19, 209797, Note_off_c, 7, 68, 64
19, 209865, Note_on_c, 7, 71, 87
19, 209912, Note_off_c, 7, 71, 64
19, 209988, Note_on_c, 7, 62, 80
19, 210040, Note_off_c, 7, 62, 64
19, 210107, Note_on_c, 7, 68, 87
19, 210284, Note_off_c, 7, 68, 64
19, 210340, Note_on_c, 7, 71, 87
19, 210381, Note_off_c, 7, 71, 64
19, 210458, Note_on_c, 7, 64, 78
19, 210518, Note_off_c, 7, 64, 64
19, 210584, Note_on_c, 7, 68, 85
19, 210622, Note_off_c, 7, 68, 64
19, 210713, Note_on_c, 7, 69, 80
19, 210764, Note_on_c, 7, 81, 91
19, 210766, Note_off_c, 7, 69, 64
19, 210805, Note_off_c, 7, 81, 64
19, 210824, Note_on_c, 7, 73, 63
19, 210875, Note_on_c, 7, 74, 70
19, 210887, Note_off_c, 7, 73, 64
19, 210920, Note_off_c, 7, 74, 64
19, 210941, Note_on_c, 7, 76, 82
19, 210991, Note_on_c, 7, 78, 61
19, 210998, Note_off_c, 7, 76, 64
19, 211026, Note_off_c, 7, 78, 64
19, 211049, Note_on_c, 7, 76, 85
19, 211105, Note_on_c, 7, 78, 85
19, 211120, Note_off_c, 7, 76, 64
19, 211149, Note_off_c, 7, 78, 64
19, 211170, Note_on_c, 7, 79, 93
19, 211222, Note_on_c, 7, 76, 78
19, 211230, Note_off_c, 7, 79, 64
19, 211268, Note_off_c, 7, 76, 64
19, 211281, Note_on_c, 7, 69, 63
19, 211342, Note_on_c, 7, 71, 58
19, 211352, Note_off_c, 7, 69, 64
19, 211398, Note_on_c, 7, 73, 52
19, 211408, Note_off_c, 7, 71, 64
19, 211448, Note_on_c, 7, 74, 85
19, 211461, Note_off_c, 7, 73, 64
19, 211508, Note_off_c, 7, 74, 64
19, 211513, Note_on_c, 7, 73, 74
19, 211575, Note_on_c, 7, 74, 72
19, 211577, Note_off_c, 7, 73, 64
19, 211617, Note_off_c, 7, 74, 64
19, 211640, Note_on_c, 7, 76, 102
19, 211697, Note_on_c, 7, 74, 72
19, 211707, Note_off_c, 7, 76, 64
19, 211760, Note_off_c, 7, 74, 64
19, 211768, Note_on_c, 7, 73, 49
19, 211835, Note_on_c, 7, 74, 68
19, 211842, Note_off_c, 7, 73, 64
19, 211876, Note_off_c, 7, 74, 64
19, 211900, Note_on_c, 7, 76, 105
19, 211955, Note_on_c, 7, 74, 82
19, 211969, Note_off_c, 7, 76, 64
19, 212013, Note_on_c, 7, 73, 64
19, 212017, Note_off_c, 7, 74, 64
19, 212070, Note_on_c, 7, 71, 68
19, 212071, Note_off_c, 7, 73, 64
19, 212131, Note_off_c, 7, 71, 64
19, 212138, Note_on_c, 7, 69, 85
19, 212206, Note_off_c, 7, 69, 64
19, 212261, Note_on_c, 7, 66, 72
19, 212309, Note_off_c, 7, 66, 64
19, 212384, Note_on_c, 7, 71, 85
19, 212655, Note_off_c, 7, 71, 64
19, 212752, Note_on_c, 7, 70, 60
19, 212808, Note_on_c, 7, 71, 78
19, 212811, Note_off_c, 7, 70, 64
19, 212855, Note_off_c, 7, 71, 64
19, 212870, Note_on_c, 7, 73, 80
19, 212922, Note_on_c, 7, 71, 76
19, 212942, Note_off_c, 7, 73, 64
19, 212975, Note_off_c, 7, 71, 64
19, 212984, Note_on_c, 7, 70, 68
19, 213043, Note_on_c, 7, 68, 76
19, 213045, Note_off_c, 7, 70, 64
19, 213082, Note_off_c, 7, 68, 64
19, 213109, Note_on_c, 7, 66, 78
19, 213163, Note_off_c, 7, 66, 64
19, 213166, Note_on_c, 7, 78, 72
19, 213213, Note_off_c, 7, 78, 64
19, 213232, Note_on_c, 7, 71, 70
19, 213296, Note_off_c, 7, 71, 64
19, 213296, Note_on_c, 7, 73, 60
19, 213339, Note_off_c, 7, 73, 64
19, 213348, Note_on_c, 7, 74, 85
19, 213407, Note_on_c, 7, 76, 78
19, 213420, Note_off_c, 7, 74, 64
19, 213443, Note_off_c, 7, 76, 64
19, 213464, Note_on_c, 7, 74, 68
19, 213518, Note_off_c, 7, 74, 64
19, 213521, Note_on_c, 7, 76, 74
19, 213580, Note_off_c, 7, 76, 64
19, 213586, Note_on_c, 7, 78, 87
19, 213646, Note_off_c, 7, 78, 64
19, 213650, Note_on_c, 7, 81, 64
19, 213693, Note_off_c, 7, 81, 64
19, 213704, Note_on_c, 7, 74, 68
19, 213758, Note_on_c, 7, 76, 70
19, 213762, Note_off_c, 7, 74, 64
19, 213810, Note_off_c, 7, 76, 64
19, 213825, Note_on_c, 7, 78, 93
19, 213877, Note_on_c, 7, 79, 80
19, 213886, Note_off_c, 7, 78, 64
19, 213920, Note_off_c, 7, 79, 64
19, 213935, Note_on_c, 7, 78, 85
19, 213989, Note_off_c, 7, 78, 64
19, 213992, Note_on_c, 7, 79, 89
19, 214040, Note_off_c, 7, 79, 64
19, 214060, Note_on_c, 7, 81, 100
19, 214115, Note_on_c, 7, 79, 85
19, 214128, Note_off_c, 7, 81, 64
19, 214167, Note_off_c, 7, 79, 64
19, 214175, Note_on_c, 7, 78, 85
19, 214228, Note_off_c, 7, 78, 64
19, 214232, Note_on_c, 7, 79, 82
19, 214278, Note_off_c, 7, 79, 64
19, 214300, Note_on_c, 7, 81, 105
19, 214355, Note_on_c, 7, 79, 82
19, 214370, Note_off_c, 7, 81, 64
19, 214412, Note_on_c, 7, 78, 85
19, 214421, Note_off_c, 7, 79, 64
19, 214469, Note_on_c, 7, 76, 76
19, 214477, Note_off_c, 7, 78, 64
19, 214530, Note_off_c, 7, 76, 64
19, 214536, Note_on_c, 7, 74, 82
19, 214594, Note_off_c, 7, 74, 64
19, 214654, Note_on_c, 7, 71, 82
19, 214704, Note_off_c, 7, 71, 64
19, 214781, Note_on_c, 7, 76, 89
19, 215057, Note_off_c, 7, 76, 64
19, 215142, Note_on_c, 7, 69, 85
19, 215186, Note_off_c, 7, 69, 64
19, 215270, Note_on_c, 7, 74, 85
19, 215553, Note_off_c, 7, 74, 64
19, 215624, Note_on_c, 7, 73, 85
19, 215682, Note_off_c, 7, 73, 64
19, 215741, Note_on_c, 7, 74, 93
19, 215785, Note_off_c, 7, 74, 64
19, 215792, Note_on_c, 7, 73, 85
19, 215838, Note_off_c, 7, 73, 64
19, 215844, Note_on_c, 7, 71, 87
19, 215893, Note_off_c, 7, 71, 64
19, 215903, Note_on_c, 7, 74, 85
19, 215944, Note_off_c, 7, 74, 64
19, 215964, Note_on_c, 7, 73, 82
19, 216017, Note_off_c, 7, 73, 64
19, 216096, Note_on_c, 7, 76, 89
19, 216136, Note_off_c, 7, 76, 64
19, 216218, Note_on_c, 7, 69, 85
19, 216258, Note_off_c, 7, 69, 64
19, 216340, Note_on_c, 7, 73, 87
19, 216502, Note_off_c, 7, 73, 64
19, 216580, Note_on_c, 7, 76, 87
19, 216618, Note_off_c, 7, 76, 64
19, 216701, Note_on_c, 7, 67, 72
19, 216748, Note_off_c, 7, 67, 64
19, 216829, Note_on_c, 7, 73, 98
19, 217007, Note_off_c, 7, 73, 64
19, 217066, Note_on_c, 7, 76, 82
19, 217109, Note_off_c, 7, 76, 64
19, 217189, Note_on_c, 7, 69, 80
19, 217241, Note_off_c, 7, 69, 64
19, 217309, Note_on_c, 7, 73, 80
19, 217359, Note_off_c, 7, 73, 64
19, 217426, Note_on_c, 7, 74, 82
19, 217471, Note_off_c, 7, 74, 64
19, 217545, Note_on_c, 7, 69, 80
19, 217592, Note_off_c, 7, 69, 64
19, 217675, Note_on_c, 7, 74, 91
19, 217940, Note_off_c, 7, 74, 64
19, 218022, Note_on_c, 7, 67, 82
19, 218072, Note_off_c, 7, 67, 64
19, 218141, Note_on_c, 7, 64, 78
19, 218204, Note_off_c, 7, 64, 64
19, 218262, Note_on_c, 7, 73, 72
19, 218308, Note_off_c, 7, 73, 64
19, 218382, Note_on_c, 7, 74, 87
19, 218449, Note_off_c, 7, 74, 64
19, 218504, Note_on_c, 7, 69, 85
19, 218554, Note_off_c, 7, 69, 64
19, 218615, Note_on_c, 7, 62, 74
19, 218669, Note_off_c, 7, 62, 64
19, 218740, Note_on_c, 7, 67, 82
19, 218782, Note_off_c, 7, 67, 64
19, 218864, Note_on_c, 7, 64, 72
19, 218918, Note_on_c, 7, 61, 80
19, 218922, Note_off_c, 7, 64, 64
19, 218973, Note_off_c, 7, 61, 64
19, 218979, Note_on_c, 7, 62, 78
19, 219028, Note_off_c, 7, 62, 64
19, 219044, Note_on_c, 7, 64, 87
19, 219082, Note_off_c, 7, 64, 64
19, 219110, Note_on_c, 7, 57, 93
19, 219164, Note_off_c, 7, 57, 64
19, 219224, Note_on_c, 7, 73, 82
19, 219271, Note_off_c, 7, 73, 64
19, 219342, Note_on_c, 7, 74, 87
19, 219394, Note_off_c, 7, 74, 64
19, 219462, Note_on_c, 7, 71, 85
19, 219514, Note_off_c, 7, 71, 64
19, 219578, Note_on_c, 7, 69, 85
19, 219630, Note_off_c, 7, 69, 64
19, 219704, Note_on_c, 7, 69, 95
19, 219767, Note_off_c, 7, 69, 64
19, 232325, Note_on_c, 7, 69, 100
19, 232402, Note_off_c, 7, 69, 64
19, 232500, Note_on_c, 7, 64, 87
19, 232542, Note_off_c, 7, 64, 64
19, 232563, Note_on_c, 7, 61, 100
19, 232633, Note_off_c, 7, 61, 64
19, 232734, Note_on_c, 7, 57, 87
19, 232783, Note_off_c, 7, 57, 64
19, 232801, Note_on_c, 7, 69, 102
19, 232871, Note_off_c, 7, 69, 64
19, 232966, Note_on_c, 7, 66, 93
19, 233008, Note_off_c, 7, 66, 64
19, 233030, Note_on_c, 7, 62, 100
19, 233106, Note_off_c, 7, 62, 64
19, 233208, Note_on_c, 7, 69, 87
19, 233240, Note_off_c, 7, 69, 64
19, 233274, Note_on_c, 7, 69, 102
19, 233361, Note_off_c, 7, 69, 64
19, 233444, Note_on_c, 7, 67, 89
19, 233484, Note_off_c, 7, 67, 64
19, 233506, Note_on_c, 7, 69, 100
19, 233599, Note_off_c, 7, 69, 64
19, 233674, Note_on_c, 7, 71, 87
19, 233708, Note_off_c, 7, 71, 64
19, 233743, Note_on_c, 7, 69, 100
19, 233923, Note_off_c, 7, 69, 64
19, 233985, Note_on_c, 7, 69, 107
19, 234150, Note_off_c, 7, 69, 64
19, 234238, Note_on_c, 7, 69, 107
19, 234739, Note_off_c, 7, 69, 64
19, 234739, End_track
20, 0, Start_track
20, 0, Title_t, "Viola"
20, 0, Program_c, 8, 41
20, 0, Control_c, 8, 7, 100
20, 17928, Note_on_c, 8, 61, 89
20, 17973, Note_off_c, 8, 61, 64
20, 17989, Note_on_c, 8, 62, 93
20, 18071, Note_off_c, 8, 62, 64
20, 18170, Note_on_c, 8, 64, 82
20, 18216, Note_off_c, 8, 64, 64
20, 18238, Note_on_c, 8, 66, 93
20, 18335, Note_off_c, 8, 66, 64
20, 18415, Note_on_c, 8, 69, 100
20, 18453, Note_off_c, 8, 69, 64
20, 18474, Note_on_c, 8, 69, 91
20, 18548, Note_off_c, 8, 69, 64
20, 18651, Note_on_c, 8, 66, 85
20, 18682, Note_off_c, 8, 66, 64
20, 18713, Note_on_c, 8, 66, 91
20, 18873, Note_off_c, 8, 66, 64
20, 18955, Note_on_c, 8, 62, 98
20, 19317, Note_off_c, 8, 62, 64
20, 19374, Note_on_c, 8, 62, 95
20, 19417, Note_off_c, 8, 62, 64
20, 19434, Note_on_c, 8, 64, 87
20, 19528, Note_off_c, 8, 64, 64
20, 19607, Note_on_c, 8, 66, 85
20, 19646, Note_off_c, 8, 66, 64
20, 19668, Note_on_c, 8, 67, 87
20, 19762, Note_off_c, 8, 67, 64
20, 19839, Note_on_c, 8, 64, 82
20, 19887, Note_off_c, 8, 64, 64
20, 19903, Note_on_c, 8, 66, 95
20, 19994, Note_off_c, 8, 66, 64
20, 20086, Note_on_c, 8, 67, 85
20, 20130, Note_off_c, 8, 67, 64
20, 20146, Note_on_c, 8, 64, 91
20, 20251, Note_off_c, 8, 64, 64
20, 20322, Note_on_c, 8, 69, 89
20, 20357, Note_off_c, 8, 69, 64
20, 20377, Note_on_c, 8, 69, 89
20, 20463, Note_off_c, 8, 69, 64
20, 20557, Note_on_c, 8, 64, 87
20, 20593, Note_off_c, 8, 64, 64
20, 20618, Note_on_c, 8, 64, 93
20, 20709, Note_off_c, 8, 64, 64
20, 20791, Note_on_c, 8, 61, 89
20, 20839, Note_off_c, 8, 61, 64
20, 20854, Note_on_c, 8, 62, 98
20, 20949, Note_off_c, 8, 62, 64
20, 21031, Note_on_c, 8, 64, 82
20, 21065, Note_off_c, 8, 64, 64
20, 21097, Note_on_c, 8, 62, 85
20, 21444, Note_off_c, 8, 62, 64
20, 21523, Note_on_c, 8, 62, 98
20, 21574, Note_off_c, 8, 62, 64
20, 21586, Note_on_c, 8, 69, 100
20, 21687, Note_off_c, 8, 69, 64
20, 21771, Note_on_c, 8, 69, 89
20, 21804, Note_off_c, 8, 69, 64
20, 21826, Note_on_c, 8, 69, 95
20, 21919, Note_off_c, 8, 69, 64
20, 22016, Note_on_c, 8, 66, 82
20, 22049, Note_off_c, 8, 66, 64
20, 22078, Note_on_c, 8, 64, 91
20, 22178, Note_off_c, 8, 64, 64
20, 22252, Note_on_c, 8, 62, 78
20, 22291, Note_off_c, 8, 62, 64
20, 22316, Note_on_c, 8, 64, 91
20, 22390, Note_off_c, 8, 64, 64
20, 22485, Note_on_c, 8, 57, 76
20, 22535, Note_off_c, 8, 57, 64
20, 22555, Note_on_c, 8, 69, 98
20, 22721, Note_off_c, 8, 69, 64
20, 22793, Note_on_c, 8, 69, 89
20, 22948, Note_off_c, 8, 69, 64
20, 23037, Note_on_c, 8, 69, 93
20, 23767, Note_off_c, 8, 69, 64
20, 40983, Note_on_c, 8, 61, 89
20, 41033, Note_off_c, 8, 61, 64
20, 41042, Note_on_c, 8, 62, 100
20, 41128, Note_off_c, 8, 62, 64
20, 41221, Note_on_c, 8, 64, 82
20, 41264, Note_off_c, 8, 64, 64
20, 41288, Note_on_c, 8, 66, 98
20, 41383, Note_off_c, 8, 66, 64
20, 41468, Note_on_c, 8, 69, 98
20, 41505, Note_off_c, 8, 69, 64
20, 41528, Note_on_c, 8, 69, 102
20, 41603, Note_off_c, 8, 69, 64
20, 41696, Note_on_c, 8, 66, 87
20, 41728, Note_off_c, 8, 66, 64
20, 41762, Note_on_c, 8, 66, 95
20, 41951, Note_off_c, 8, 66, 64
20, 42004, Note_on_c, 8, 62, 87
20, 42351, Note_off_c, 8, 62, 64
20, 42414, Note_on_c, 8, 62, 95
20, 42457, Note_off_c, 8, 62, 64
20, 42474, Note_on_c, 8, 64, 91
20, 42568, Note_off_c, 8, 64, 64
20, 42648, Note_on_c, 8, 66, 85
20, 42687, Note_off_c, 8, 66, 64
20, 42711, Note_on_c, 8, 67, 89
20, 42808, Note_off_c, 8, 67, 64
20, 42889, Note_on_c, 8, 64, 89
20, 42940, Note_off_c, 8, 64, 64
20, 42952, Note_on_c, 8, 66, 98
20, 43055, Note_off_c, 8, 66, 64
20, 43125, Note_on_c, 8, 67, 85
20, 43175, Note_off_c, 8, 67, 64
20, 43193, Note_on_c, 8, 64, 93
20, 43285, Note_off_c, 8, 64, 64
20, 43359, Note_on_c, 8, 69, 89
20, 43398, Note_off_c, 8, 69, 64
20, 43417, Note_on_c, 8, 69, 89
20, 43508, Note_off_c, 8, 69, 64
20, 43596, Note_on_c, 8, 64, 85
20, 43635, Note_off_c, 8, 64, 64
20, 43659, Note_on_c, 8, 64, 95
20, 43756, Note_off_c, 8, 64, 64
20, 43831, Note_on_c, 8, 61, 87
20, 43878, Note_off_c, 8, 61, 64
20, 43893, Note_on_c, 8, 62, 102
20, 43994, Note_off_c, 8, 62, 64
20, 44075, Note_on_c, 8, 64, 82
20, 44113, Note_off_c, 8, 64, 64
20, 44137, Note_on_c, 8, 62, 93
20, 44474, Note_off_c, 8, 62, 64
20, 44553, Note_on_c, 8, 62, 78
20, 44608, Note_off_c, 8, 62, 64
20, 44624, Note_on_c, 8, 69, 95
20, 44715, Note_off_c, 8, 69, 64
20, 44803, Note_on_c, 8, 69, 87
20, 44842, Note_off_c, 8, 69, 64
20, 44867, Note_on_c, 8, 69, 87
20, 44948, Note_off_c, 8, 69, 64
20, 45051, Note_on_c, 8, 66, 85
20, 45086, Note_off_c, 8, 66, 64
20, 45118, Note_on_c, 8, 64, 95
20, 45217, Note_off_c, 8, 64, 64
20, 45294, Note_on_c, 8, 62, 85
20, 45332, Note_off_c, 8, 62, 64
20, 45358, Note_on_c, 8, 64, 98
20, 45436, Note_off_c, 8, 64, 64
20, 45534, Note_on_c, 8, 57, 80
20, 45585, Note_off_c, 8, 57, 64
20, 45603, Note_on_c, 8, 69, 93
20, 45787, Note_off_c, 8, 69, 64
20, 45838, Note_on_c, 8, 69, 105
20, 46010, Note_off_c, 8, 69, 64
20, 46088, Note_on_c, 8, 69, 98
20, 46213, Note_off_c, 8, 69, 64
20, 63717, Note_on_c, 8, 64, 68
20, 63773, Note_off_c, 8, 64, 64
20, 63842, Note_on_c, 8, 62, 66
20, 63896, Note_off_c, 8, 62, 64
20, 63957, Note_on_c, 8, 66, 68
20, 64011, Note_off_c, 8, 66, 64
20, 64076, Note_on_c, 8, 67, 68
20, 64132, Note_off_c, 8, 67, 64
20, 64197, Note_on_c, 8, 67, 80
20, 64246, Note_off_c, 8, 67, 64
20, 64316, Note_on_c, 8, 66, 68
20, 64566, Note_off_c, 8, 66, 64
20, 64666, Note_on_c, 8, 64, 66
20, 64719, Note_off_c, 8, 64, 64
20, 64786, Note_on_c, 8, 64, 72
20, 64845, Note_off_c, 8, 64, 64
20, 64908, Note_on_c, 8, 66, 66
20, 64951, Note_off_c, 8, 66, 64
20, 65027, Note_on_c, 8, 66, 68
20, 65078, Note_off_c, 8, 66, 64
20, 65138, Note_on_c, 8, 71, 68
20, 65186, Note_off_c, 8, 71, 64
20, 65261, Note_on_c, 8, 73, 72
20, 65511, Note_off_c, 8, 73, 64
20, 65618, Note_on_c, 8, 73, 60
20, 65666, Note_off_c, 8, 73, 64
20, 65739, Note_on_c, 8, 73, 74
20, 65788, Note_off_c, 8, 73, 64
20, 65857, Note_on_c, 8, 73, 58
20, 65900, Note_off_c, 8, 73, 64
20, 66100, Note_on_c, 8, 71, 68
20, 66141, Note_off_c, 8, 71, 64
20, 66217, Note_on_c, 8, 70, 66
20, 66260, Note_off_c, 8, 70, 64
20, 66337, Note_on_c, 8, 70, 58
20, 66375, Note_off_c, 8, 70, 64
20, 66577, Note_on_c, 8, 70, 78
20, 66624, Note_off_c, 8, 70, 64
20, 66694, Note_on_c, 8, 66, 78
20, 66743, Note_off_c, 8, 66, 64
20, 66819, Note_on_c, 8, 66, 47
20, 66865, Note_off_c, 8, 66, 64
20, 67058, Note_on_c, 8, 66, 78
20, 67104, Note_off_c, 8, 66, 64
20, 67177, Note_on_c, 8, 66, 87
20, 67240, Note_off_c, 8, 66, 64
20, 67297, Note_on_c, 8, 62, 66
20, 67346, Note_off_c, 8, 62, 64
20, 67530, Note_on_c, 8, 66, 66
20, 67586, Note_off_c, 8, 66, 64
20, 67653, Note_on_c, 8, 63, 74
20, 67710, Note_off_c, 8, 63, 64
20, 67773, Note_on_c, 8, 69, 89
20, 67822, Note_off_c, 8, 69, 64
20, 68009, Note_on_c, 8, 63, 47
20, 68053, Note_off_c, 8, 63, 64
20, 68136, Note_on_c, 8, 63, 76
20, 68196, Note_off_c, 8, 63, 64
20, 68248, Note_on_c, 8, 66, 63
20, 68307, Note_off_c, 8, 66, 64
20, 68493, Note_on_c, 8, 66, 63
20, 68536, Note_off_c, 8, 66, 64
20, 68614, Note_on_c, 8, 66, 74
20, 68665, Note_off_c, 8, 66, 64
20, 68735, Note_on_c, 8, 66, 60
20, 68785, Note_off_c, 8, 66, 64
20, 68977, Note_on_c, 8, 71, 66
20, 69015, Note_off_c, 8, 71, 64
20, 69101, Note_on_c, 8, 71, 59
20, 69349, Note_off_c, 8, 71, 64
20, 71272, Note_on_c, 8, 73, 63
20, 71513, Note_off_c, 8, 73, 64
20, 71750, Note_on_c, 8, 70, 59
20, 71996, Note_off_c, 8, 70, 64
20, 72226, Note_on_c, 8, 66, 53
20, 72472, Note_off_c, 8, 66, 64
20, 72591, Note_on_c, 8, 59, 64
20, 72639, Note_on_c, 8, 61, 66
20, 72647, Note_off_c, 8, 59, 64
20, 72693, Note_off_c, 8, 61, 64
20, 72702, Note_on_c, 8, 63, 66
20, 72761, Note_off_c, 8, 63, 64
20, 72834, Note_on_c, 8, 63, 57
20, 72880, Note_on_c, 8, 64, 64
20, 72887, Note_off_c, 8, 63, 64
20, 72924, Note_off_c, 8, 64, 64
20, 72944, Note_on_c, 8, 66, 82
20, 73010, Note_off_c, 8, 66, 64
20, 73079, Note_on_c, 8, 63, 57
20, 73127, Note_on_c, 8, 64, 66
20, 73128, Note_off_c, 8, 63, 64
20, 73179, Note_off_c, 8, 64, 64
20, 73193, Note_on_c, 8, 66, 78
20, 73255, Note_off_c, 8, 66, 64
20, 73317, Note_on_c, 8, 66, 55
20, 73363, Note_on_c, 8, 68, 58
20, 73372, Note_off_c, 8, 66, 64
20, 73416, Note_off_c, 8, 68, 64
20, 73428, Note_on_c, 8, 69, 89
20, 73472, Note_off_c, 8, 69, 64
20, 73556, Note_on_c, 8, 69, 66
20, 73599, Note_on_c, 8, 68, 57
20, 73609, Note_off_c, 8, 69, 64
20, 73654, Note_off_c, 8, 68, 64
20, 73661, Note_on_c, 8, 69, 68
20, 73722, Note_off_c, 8, 69, 64
20, 73785, Note_on_c, 8, 71, 70
20, 73832, Note_on_c, 8, 69, 80
20, 73838, Note_off_c, 8, 71, 64
20, 73881, Note_off_c, 8, 69, 64
20, 73896, Note_on_c, 8, 68, 60
20, 74088, Note_off_c, 8, 68, 64
20, 74134, Note_on_c, 8, 71, 57
20, 74391, Note_off_c, 8, 71, 64
20, 74625, Note_on_c, 8, 68, 59
20, 74882, Note_off_c, 8, 68, 64
20, 75103, Note_on_c, 8, 64, 60
20, 75348, Note_off_c, 8, 64, 64
20, 75476, Note_on_c, 8, 57, 63
20, 75527, Note_on_c, 8, 59, 62
20, 75532, Note_off_c, 8, 57, 64
20, 75577, Note_off_c, 8, 59, 64
20, 75586, Note_on_c, 8, 61, 82
20, 75639, Note_off_c, 8, 61, 64
20, 75709, Note_on_c, 8, 61, 63
20, 75758, Note_on_c, 8, 62, 64
20, 75772, Note_off_c, 8, 61, 64
20, 75811, Note_off_c, 8, 62, 64
20, 75828, Note_on_c, 8, 64, 85
20, 75903, Note_off_c, 8, 64, 64
20, 75948, Note_on_c, 8, 61, 64
20, 76003, Note_on_c, 8, 62, 62
20, 76005, Note_off_c, 8, 61, 64
20, 76048, Note_off_c, 8, 62, 64
20, 76064, Note_on_c, 8, 64, 85
20, 76131, Note_off_c, 8, 64, 64
20, 76189, Note_on_c, 8, 64, 68
20, 76236, Note_on_c, 8, 66, 68
20, 76243, Note_off_c, 8, 64, 64
20, 76287, Note_off_c, 8, 66, 64
20, 76301, Note_on_c, 8, 67, 85
20, 76375, Note_off_c, 8, 67, 64
20, 76422, Note_on_c, 8, 67, 64
20, 76472, Note_on_c, 8, 66, 55
20, 76478, Note_off_c, 8, 67, 64
20, 76517, Note_off_c, 8, 66, 64
20, 76534, Note_on_c, 8, 67, 74
20, 76598, Note_off_c, 8, 67, 64
20, 76654, Note_on_c, 8, 69, 66
20, 76696, Note_on_c, 8, 67, 68
20, 76705, Note_off_c, 8, 69, 64
20, 76739, Note_off_c, 8, 67, 64
20, 76772, Note_on_c, 8, 66, 52
20, 77032, Note_off_c, 8, 66, 64
20, 91569, Note_on_c, 8, 61, 72
20, 91618, Note_off_c, 8, 61, 64
20, 91685, Note_on_c, 8, 59, 66
20, 91732, Note_off_c, 8, 59, 64
20, 91801, Note_on_c, 8, 62, 68
20, 91850, Note_off_c, 8, 62, 64
20, 91918, Note_on_c, 8, 61, 64
20, 91964, Note_off_c, 8, 61, 64
20, 92044, Note_on_c, 8, 61, 70
20, 92086, Note_off_c, 8, 61, 64
20, 92172, Note_on_c, 8, 62, 76
20, 92403, Note_off_c, 8, 62, 64
20, 92508, Note_on_c, 8, 68, 63
20, 92564, Note_off_c, 8, 68, 64
20, 92632, Note_on_c, 8, 69, 76
20, 92684, Note_off_c, 8, 69, 64
20, 92750, Note_on_c, 8, 66, 66
20, 92798, Note_off_c, 8, 66, 64
20, 92873, Note_on_c, 8, 71, 82
20, 92921, Note_off_c, 8, 71, 64
20, 92993, Note_on_c, 8, 71, 78
20, 93038, Note_off_c, 8, 71, 64
20, 93109, Note_on_c, 8, 69, 76
20, 93362, Note_off_c, 8, 69, 64
20, 93464, Note_on_c, 8, 66, 62
20, 93512, Note_off_c, 8, 66, 64
20, 93586, Note_on_c, 8, 66, 76
20, 93637, Note_off_c, 8, 66, 64
20, 93704, Note_on_c, 8, 66, 51
20, 93757, Note_off_c, 8, 66, 64
20, 93952, Note_on_c, 8, 66, 60
20, 93993, Note_off_c, 8, 66, 64
20, 94068, Note_on_c, 8, 66, 78
20, 94125, Note_off_c, 8, 66, 64
20, 94186, Note_on_c, 8, 66, 57
20, 94234, Note_off_c, 8, 66, 64
20, 94428, Note_on_c, 8, 66, 68
20, 94472, Note_off_c, 8, 66, 64
20, 94548, Note_on_c, 8, 63, 74
20, 94609, Note_off_c, 8, 63, 64
20, 94664, Note_on_c, 8, 66, 58
20, 94714, Note_off_c, 8, 66, 64
20, 94911, Note_on_c, 8, 63, 58
20, 94954, Note_off_c, 8, 63, 64
20, 95025, Note_on_c, 8, 64, 87
20, 95082, Note_off_c, 8, 64, 64
20, 95140, Note_on_c, 8, 67, 59
20, 95190, Note_off_c, 8, 67, 64
20, 95384, Note_on_c, 8, 71, 85
20, 95439, Note_off_c, 8, 71, 64
20, 95503, Note_on_c, 8, 64, 59
20, 95547, Note_off_c, 8, 64, 64
20, 95622, Note_on_c, 8, 64, 42
20, 95662, Note_off_c, 8, 64, 64
20, 95866, Note_on_c, 8, 64, 59
20, 95904, Note_off_c, 8, 64, 64
20, 95983, Note_on_c, 8, 64, 76
20, 96041, Note_off_c, 8, 64, 64
20, 96096, Note_on_c, 8, 69, 60
20, 96151, Note_off_c, 8, 69, 64
20, 96342, Note_on_c, 8, 69, 70
20, 96389, Note_off_c, 8, 69, 64
20, 96469, Note_on_c, 8, 69, 85
20, 96521, Note_off_c, 8, 69, 64
20, 96588, Note_on_c, 8, 64, 55
20, 96640, Note_off_c, 8, 64, 64
20, 96831, Note_on_c, 8, 69, 70
20, 96872, Note_off_c, 8, 69, 64
20, 96947, Note_on_c, 8, 69, 70
20, 97037, Note_off_c, 8, 69, 64
20, 97309, Note_on_c, 8, 67, 64
20, 97348, Note_off_c, 8, 67, 64
20, 97425, Note_on_c, 8, 67, 70
20, 97480, Note_off_c, 8, 67, 64
20, 97788, Note_on_c, 8, 66, 70
20, 97824, Note_off_c, 8, 66, 64
20, 97903, Note_on_c, 8, 66, 66
20, 97996, Note_off_c, 8, 66, 64
20, 98257, Note_on_c, 8, 64, 68
20, 98306, Note_off_c, 8, 64, 64
20, 98381, Note_on_c, 8, 64, 80
20, 98443, Note_off_c, 8, 64, 64
20, 98500, Note_on_c, 8, 67, 70
20, 98552, Note_off_c, 8, 67, 64
20, 98616, Note_on_c, 8, 66, 70
20, 98676, Note_off_c, 8, 66, 64
20, 98736, Note_on_c, 8, 62, 66
20, 98808, Note_off_c, 8, 62, 64
20, 98866, Note_on_c, 8, 69, 85
20, 98941, Note_off_c, 8, 69, 64
20, 98980, Note_on_c, 8, 61, 66
20, 99060, Note_off_c, 8, 61, 64
20, 99102, Note_on_c, 8, 62, 72
20, 99163, Note_off_c, 8, 62, 64
20, 99225, Note_on_c, 8, 66, 72
20, 99277, Note_off_c, 8, 66, 64
20, 99350, Note_on_c, 8, 64, 87
20, 99423, Note_off_c, 8, 64, 64
20, 99469, Note_on_c, 8, 67, 78
20, 99529, Note_off_c, 8, 67, 64
20, 99588, Note_on_c, 8, 61, 80
20, 99640, Note_off_c, 8, 61, 64
20, 99704, Note_on_c, 8, 57, 78
20, 99762, Note_off_c, 8, 57, 64
20, 99827, Note_on_c, 8, 62, 80
20, 100257, Note_off_c, 8, 62, 64
20, 100302, Note_on_c, 8, 64, 63
20, 100564, Note_off_c, 8, 64, 64
20, 100908, Note_on_c, 8, 59, 64
20, 100960, Note_on_c, 8, 61, 58
20, 100961, Note_off_c, 8, 59, 64
20, 101013, Note_off_c, 8, 61, 64
20, 101023, Note_on_c, 8, 63, 60
20, 101072, Note_off_c, 8, 63, 64
20, 101141, Note_on_c, 8, 63, 46
20, 101186, Note_on_c, 8, 64, 68
20, 101192, Note_off_c, 8, 63, 64
20, 101243, Note_off_c, 8, 64, 64
20, 101257, Note_on_c, 8, 66, 68
20, 101324, Note_off_c, 8, 66, 64
20, 101380, Note_on_c, 8, 63, 56
20, 101428, Note_on_c, 8, 64, 70
20, 101434, Note_off_c, 8, 63, 64
20, 101484, Note_off_c, 8, 64, 64
20, 101494, Note_on_c, 8, 66, 70
20, 101546, Note_off_c, 8, 66, 64
20, 101618, Note_on_c, 8, 66, 66
20, 101664, Note_on_c, 8, 67, 78
20, 101675, Note_off_c, 8, 66, 64
20, 101718, Note_off_c, 8, 67, 64
20, 101739, Note_on_c, 8, 69, 80
20, 101798, Note_off_c, 8, 69, 64
20, 101864, Note_on_c, 8, 69, 66
20, 101909, Note_on_c, 8, 68, 57
20, 101917, Note_off_c, 8, 69, 64
20, 101959, Note_off_c, 8, 68, 64
20, 101978, Note_on_c, 8, 69, 78
20, 102046, Note_off_c, 8, 69, 64
20, 102104, Note_on_c, 8, 71, 66
20, 102155, Note_on_c, 8, 69, 63
20, 102163, Note_off_c, 8, 71, 64
20, 102202, Note_off_c, 8, 69, 64
20, 102236, Note_on_c, 8, 68, 59
20, 102424, Note_off_c, 8, 68, 64
20, 102485, Note_on_c, 8, 64, 59
20, 102729, Note_off_c, 8, 64, 64
20, 102954, Note_on_c, 8, 68, 55
20, 103219, Note_off_c, 8, 68, 64
20, 103433, Note_on_c, 8, 71, 66
20, 103681, Note_off_c, 8, 71, 64
20, 103793, Note_on_c, 8, 57, 76
20, 103844, Note_on_c, 8, 59, 66
20, 103847, Note_off_c, 8, 57, 64
20, 103900, Note_off_c, 8, 59, 64
20, 103904, Note_on_c, 8, 61, 80
20, 103952, Note_off_c, 8, 61, 64
20, 104019, Note_on_c, 8, 61, 66
20, 104071, Note_on_c, 8, 62, 78
20, 104077, Note_off_c, 8, 61, 64
20, 104127, Note_off_c, 8, 62, 64
20, 104142, Note_on_c, 8, 64, 85
20, 104215, Note_off_c, 8, 64, 64
20, 104278, Note_on_c, 8, 61, 68
20, 104328, Note_on_c, 8, 62, 68
20, 104335, Note_off_c, 8, 61, 64
20, 104373, Note_off_c, 8, 62, 64
20, 104389, Note_on_c, 8, 64, 82
20, 104448, Note_off_c, 8, 64, 64
20, 104518, Note_on_c, 8, 64, 78
20, 104569, Note_on_c, 8, 66, 74
20, 104577, Note_off_c, 8, 64, 64
20, 104626, Note_off_c, 8, 66, 64
20, 104627, Note_on_c, 8, 67, 89
20, 104681, Note_off_c, 8, 67, 64
20, 104755, Note_on_c, 8, 67, 66
20, 104805, Note_on_c, 8, 66, 66
20, 104816, Note_off_c, 8, 67, 64
20, 104861, Note_off_c, 8, 66, 64
20, 104866, Note_on_c, 8, 67, 82
20, 104930, Note_off_c, 8, 67, 64
20, 104998, Note_on_c, 8, 69, 70
20, 105042, Note_on_c, 8, 67, 64
20, 105058, Note_off_c, 8, 69, 64
20, 105087, Note_off_c, 8, 67, 64
20, 105112, Note_on_c, 8, 66, 64
20, 105304, Note_off_c, 8, 66, 64
20, 105365, Note_on_c, 8, 62, 60
20, 105604, Note_off_c, 8, 62, 64
20, 105827, Note_on_c, 8, 66, 62
20, 106085, Note_off_c, 8, 66, 64
20, 106318, Note_on_c, 8, 69, 70
20, 106488, Note_off_c, 8, 69, 64
20, 106562, Note_on_c, 8, 62, 59
20, 106799, Note_off_c, 8, 62, 64
20, 125775, Note_on_c, 8, 66, 89
20, 126021, Note_off_c, 8, 66, 64
20, 126165, Note_on_c, 8, 62, 89
20, 126198, Note_off_c, 8, 62, 64
20, 126219, Note_on_c, 8, 62, 100
20, 126306, Note_off_c, 8, 62, 64
20, 126417, Note_on_c, 8, 66, 85
20, 126455, Note_off_c, 8, 66, 64
20, 126474, Note_on_c, 8, 66, 82
20, 126540, Note_off_c, 8, 66, 64
20, 126652, Note_on_c, 8, 69, 85
20, 126687, Note_off_c, 8, 69, 64
20, 126709, Note_on_c, 8, 69, 89
20, 126796, Note_off_c, 8, 69, 64
20, 126895, Note_on_c, 8, 57, 82
20, 126935, Note_off_c, 8, 57, 64
20, 126954, Note_on_c, 8, 57, 95
20, 127040, Note_off_c, 8, 57, 64
20, 127128, Note_on_c, 8, 62, 80
20, 127165, Note_off_c, 8, 62, 64
20, 127186, Note_on_c, 8, 66, 91
20, 127266, Note_off_c, 8, 66, 64
20, 127373, Note_on_c, 8, 69, 89
20, 127412, Note_off_c, 8, 69, 64
20, 127431, Note_on_c, 8, 69, 102
20, 127498, Note_off_c, 8, 69, 64
20, 127610, Note_on_c, 8, 66, 80
20, 127646, Note_off_c, 8, 66, 64
20, 127669, Note_on_c, 8, 62, 89
20, 127746, Note_off_c, 8, 62, 64
20, 127846, Note_on_c, 8, 57, 85
20, 127883, Note_off_c, 8, 57, 64
20, 127906, Note_on_c, 8, 57, 91
20, 127992, Note_off_c, 8, 57, 64
20, 128089, Note_on_c, 8, 60, 66
20, 128134, Note_off_c, 8, 60, 64
20, 128150, Note_on_c, 8, 62, 93
20, 128250, Note_off_c, 8, 62, 64
20, 128326, Note_on_c, 8, 64, 82
20, 128367, Note_off_c, 8, 64, 64
20, 128389, Note_on_c, 8, 62, 100
20, 128480, Note_off_c, 8, 62, 64
20, 128572, Note_on_c, 8, 62, 80
20, 128607, Note_off_c, 8, 62, 64
20, 128641, Note_on_c, 8, 62, 85
20, 128985, Note_off_c, 8, 62, 64
20, 129062, Note_on_c, 8, 62, 82
20, 129102, Note_off_c, 8, 62, 64
20, 129120, Note_on_c, 8, 67, 87
20, 129204, Note_off_c, 8, 67, 64
20, 129298, Note_on_c, 8, 71, 85
20, 129333, Note_off_c, 8, 71, 64
20, 129355, Note_on_c, 8, 71, 89
20, 129422, Note_off_c, 8, 71, 64
20, 129528, Note_on_c, 8, 67, 74
20, 129568, Note_off_c, 8, 67, 64
20, 129596, Note_on_c, 8, 69, 85
20, 129917, Note_off_c, 8, 69, 64
20, 130011, Note_on_c, 8, 67, 82
20, 130048, Note_off_c, 8, 67, 64
20, 130067, Note_on_c, 8, 66, 85
20, 130165, Note_off_c, 8, 66, 64
20, 130248, Note_on_c, 8, 64, 87
20, 130290, Note_off_c, 8, 64, 64
20, 130308, Note_on_c, 8, 66, 87
20, 130397, Note_off_c, 8, 66, 64
20, 130487, Note_on_c, 8, 67, 78
20, 130522, Note_off_c, 8, 67, 64
20, 130550, Note_on_c, 8, 66, 85
20, 130634, Note_off_c, 8, 66, 64
20, 130730, Note_on_c, 8, 69, 78
20, 130767, Note_off_c, 8, 69, 64
20, 130788, Note_on_c, 8, 69, 87
20, 130860, Note_off_c, 8, 69, 64
20, 130971, Note_on_c, 8, 72, 72
20, 131015, Note_off_c, 8, 72, 64
20, 131032, Note_on_c, 8, 66, 95
20, 131103, Note_off_c, 8, 66, 64
20, 131207, Note_on_c, 8, 59, 74
20, 131252, Note_off_c, 8, 59, 64
20, 131274, Note_on_c, 8, 64, 95
20, 131359, Note_off_c, 8, 64, 64
20, 131462, Note_on_c, 8, 71, 85
20, 131500, Note_off_c, 8, 71, 64
20, 131519, Note_on_c, 8, 71, 89
20, 131611, Note_off_c, 8, 71, 64
20, 131690, Note_on_c, 8, 69, 80
20, 131735, Note_off_c, 8, 69, 64
20, 131755, Note_on_c, 8, 71, 85
20, 131845, Note_off_c, 8, 71, 64
20, 131934, Note_on_c, 8, 72, 74
20, 131974, Note_off_c, 8, 72, 64
20, 131992, Note_on_c, 8, 71, 80
20, 132330, Note_off_c, 8, 71, 64
20, 132415, Note_on_c, 8, 71, 82
20, 132446, Note_off_c, 8, 71, 64
20, 132477, Note_on_c, 8, 71, 87
20, 132966, Note_off_c, 8, 71, 64
20, 133132, Note_on_c, 8, 64, 80
20, 133170, Note_off_c, 8, 64, 64
20, 133190, Note_on_c, 8, 64, 85
20, 133275, Note_off_c, 8, 64, 64
20, 133370, Note_on_c, 8, 68, 64
20, 133412, Note_off_c, 8, 68, 64
20, 133432, Note_on_c, 8, 64, 80
20, 133522, Note_off_c, 8, 64, 64
20, 133620, Note_on_c, 8, 69, 82
20, 133656, Note_off_c, 8, 69, 64
20, 133677, Note_on_c, 8, 69, 91
20, 133761, Note_off_c, 8, 69, 64
20, 133858, Note_on_c, 8, 67, 80
20, 133896, Note_off_c, 8, 67, 64
20, 133915, Note_on_c, 8, 66, 87
20, 134016, Note_off_c, 8, 66, 64
20, 134101, Note_on_c, 8, 66, 76
20, 134139, Note_off_c, 8, 66, 64
20, 134159, Note_on_c, 8, 66, 82
20, 134232, Note_off_c, 8, 66, 64
20, 134334, Note_on_c, 8, 64, 80
20, 134373, Note_off_c, 8, 64, 64
20, 134391, Note_on_c, 8, 62, 89
20, 134474, Note_off_c, 8, 62, 64
20, 134568, Note_on_c, 8, 59, 70
20, 134615, Note_off_c, 8, 59, 64
20, 134630, Note_on_c, 8, 66, 85
20, 134710, Note_off_c, 8, 66, 64
20, 134811, Note_on_c, 8, 62, 76
20, 134849, Note_off_c, 8, 62, 64
20, 134873, Note_on_c, 8, 62, 82
20, 134954, Note_off_c, 8, 62, 64
20, 135049, Note_on_c, 8, 59, 72
20, 135093, Note_off_c, 8, 59, 64
20, 135111, Note_on_c, 8, 64, 93
20, 135191, Note_off_c, 8, 64, 64
20, 135295, Note_on_c, 8, 64, 74
20, 135333, Note_off_c, 8, 64, 64
20, 135357, Note_on_c, 8, 64, 82
20, 135438, Note_off_c, 8, 64, 64
20, 135532, Note_on_c, 8, 69, 85
20, 135568, Note_off_c, 8, 69, 64
20, 135586, Note_on_c, 8, 69, 85
20, 135662, Note_off_c, 8, 69, 64
20, 135768, Note_on_c, 8, 64, 80
20, 135810, Note_off_c, 8, 64, 64
20, 135830, Note_on_c, 8, 69, 95
20, 136158, Note_off_c, 8, 69, 64
20, 136253, Note_on_c, 8, 69, 82
20, 136288, Note_off_c, 8, 69, 64
20, 136315, Note_on_c, 8, 69, 87
20, 136400, Note_off_c, 8, 69, 64
20, 136494, Note_on_c, 8, 66, 82
20, 136530, Note_off_c, 8, 66, 64
20, 136553, Note_on_c, 8, 66, 87
20, 136625, Note_off_c, 8, 66, 64
20, 136724, Note_on_c, 8, 62, 82
20, 136767, Note_off_c, 8, 62, 64
20, 136787, Note_on_c, 8, 57, 82
20, 136864, Note_off_c, 8, 57, 64
20, 136970, Note_on_c, 8, 62, 80
20, 137011, Note_off_c, 8, 62, 64
20, 137031, Note_on_c, 8, 66, 91
20, 137103, Note_off_c, 8, 66, 64
20, 137203, Note_on_c, 8, 69, 76
20, 137252, Note_off_c, 8, 69, 64
20, 137268, Note_on_c, 8, 67, 89
20, 137351, Note_off_c, 8, 67, 64
20, 137454, Note_on_c, 8, 62, 85
20, 137503, Note_off_c, 8, 62, 64
20, 137513, Note_on_c, 8, 64, 89
20, 137604, Note_off_c, 8, 64, 64
20, 137690, Note_on_c, 8, 66, 80
20, 137739, Note_off_c, 8, 66, 64
20, 137752, Note_on_c, 8, 67, 89
20, 137849, Note_off_c, 8, 67, 64
20, 137938, Note_on_c, 8, 64, 76
20, 137986, Note_off_c, 8, 64, 64
20, 138000, Note_on_c, 8, 66, 91
20, 138087, Note_off_c, 8, 66, 64
20, 138171, Note_on_c, 8, 67, 82
20, 138224, Note_off_c, 8, 67, 64
20, 144119, Note_on_c, 8, 57, 85
20, 144165, Note_on_c, 8, 59, 66
20, 144168, Note_off_c, 8, 57, 64
20, 144215, Note_off_c, 8, 59, 64
20, 144225, Note_on_c, 8, 61, 87
20, 144292, Note_off_c, 8, 61, 64
20, 144351, Note_on_c, 8, 61, 68
20, 144394, Note_on_c, 8, 62, 74
20, 144406, Note_off_c, 8, 61, 64
20, 144442, Note_off_c, 8, 62, 64
20, 144460, Note_on_c, 8, 64, 91
20, 144534, Note_off_c, 8, 64, 64
20, 144593, Note_on_c, 8, 61, 76
20, 144640, Note_on_c, 8, 62, 72
20, 144645, Note_off_c, 8, 61, 64
20, 144686, Note_off_c, 8, 62, 64
20, 144701, Note_on_c, 8, 64, 87
20, 144762, Note_off_c, 8, 64, 64
20, 144837, Note_on_c, 8, 64, 85
20, 144882, Note_on_c, 8, 66, 80
20, 144892, Note_off_c, 8, 64, 64
20, 144931, Note_off_c, 8, 66, 64
20, 144944, Note_on_c, 8, 67, 91
20, 145004, Note_off_c, 8, 67, 64
20, 145070, Note_on_c, 8, 67, 82
20, 145113, Note_on_c, 8, 66, 66
20, 145127, Note_off_c, 8, 67, 64
20, 145166, Note_off_c, 8, 66, 64
20, 145180, Note_on_c, 8, 67, 85
20, 145241, Note_off_c, 8, 67, 64
20, 145304, Note_on_c, 8, 69, 78
20, 145354, Note_on_c, 8, 67, 85
20, 145372, Note_off_c, 8, 69, 64
20, 145409, Note_off_c, 8, 67, 64
20, 145420, Note_on_c, 8, 66, 82
20, 145468, Note_off_c, 8, 66, 64
20, 145547, Note_on_c, 8, 69, 87
20, 145590, Note_off_c, 8, 69, 64
20, 145670, Note_on_c, 8, 62, 82
20, 145713, Note_off_c, 8, 62, 64
20, 145788, Note_on_c, 8, 66, 89
20, 145959, Note_off_c, 8, 66, 64
20, 146028, Note_on_c, 8, 69, 85
20, 146084, Note_off_c, 8, 69, 64
20, 146152, Note_on_c, 8, 60, 82
20, 146200, Note_off_c, 8, 60, 64
20, 146279, Note_on_c, 8, 66, 85
20, 146438, Note_off_c, 8, 66, 64
20, 146506, Note_on_c, 8, 69, 82
20, 146548, Note_off_c, 8, 69, 64
20, 146629, Note_on_c, 8, 62, 76
20, 146687, Note_off_c, 8, 62, 64
20, 146747, Note_on_c, 8, 66, 80
20, 146797, Note_off_c, 8, 66, 64
20, 146867, Note_on_c, 8, 67, 80
20, 146920, Note_off_c, 8, 67, 64
20, 146923, Note_on_c, 8, 71, 80
20, 146974, Note_off_c, 8, 71, 64
20, 146985, Note_on_c, 8, 68, 82
20, 147031, Note_off_c, 8, 68, 64
20, 147048, Note_on_c, 8, 69, 74
20, 147101, Note_off_c, 8, 69, 64
20, 147113, Note_on_c, 8, 71, 82
20, 147169, Note_on_c, 8, 73, 66
20, 147173, Note_off_c, 8, 71, 64
20, 147211, Note_off_c, 8, 73, 64
20, 147225, Note_on_c, 8, 71, 80
20, 147280, Note_off_c, 8, 71, 64
20, 147283, Note_on_c, 8, 73, 80
20, 147327, Note_off_c, 8, 73, 64
20, 147344, Note_on_c, 8, 74, 89
20, 147396, Note_on_c, 8, 71, 70
20, 147398, Note_off_c, 8, 74, 64
20, 147437, Note_off_c, 8, 71, 64
20, 147452, Note_on_c, 8, 64, 74
20, 147513, Note_on_c, 8, 66, 80
20, 147515, Note_off_c, 8, 64, 64
20, 147563, Note_off_c, 8, 66, 64
20, 147578, Note_on_c, 8, 68, 80
20, 147630, Note_off_c, 8, 68, 64
20, 147630, Note_on_c, 8, 69, 74
20, 147680, Note_off_c, 8, 69, 64
20, 147693, Note_on_c, 8, 68, 82
20, 147742, Note_off_c, 8, 68, 64
20, 147755, Note_on_c, 8, 69, 70
20, 147803, Note_off_c, 8, 69, 64
20, 147822, Note_on_c, 8, 71, 100
20, 147879, Note_on_c, 8, 69, 78
20, 147886, Note_off_c, 8, 71, 64
20, 147928, Note_off_c, 8, 69, 64
20, 147938, Note_on_c, 8, 68, 70
20, 147992, Note_off_c, 8, 68, 64
20, 147997, Note_on_c, 8, 69, 72
20, 148048, Note_off_c, 8, 69, 64
20, 148064, Note_on_c, 8, 71, 91
20, 148118, Note_on_c, 8, 69, 76
20, 148128, Note_off_c, 8, 71, 64
20, 148172, Note_off_c, 8, 69, 64
20, 148180, Note_on_c, 8, 68, 76
20, 148240, Note_on_c, 8, 66, 70
20, 148242, Note_off_c, 8, 68, 64
20, 148291, Note_off_c, 8, 66, 64
20, 148311, Note_on_c, 8, 64, 70
20, 148556, Note_off_c, 8, 64, 64
20, 148653, Note_on_c, 8, 69, 61
20, 148754, Note_off_c, 8, 69, 64
20, 148775, Note_on_c, 8, 69, 68
20, 148880, Note_off_c, 8, 69, 64
20, 148904, Note_on_c, 8, 69, 70
20, 148995, Note_off_c, 8, 69, 64
20, 149021, Note_on_c, 8, 69, 66
20, 149121, Note_off_c, 8, 69, 64
20, 149142, Note_on_c, 8, 69, 68
20, 149232, Note_off_c, 8, 69, 64
20, 149258, Note_on_c, 8, 69, 76
20, 149347, Note_off_c, 8, 69, 64
20, 149377, Note_on_c, 8, 69, 85
20, 149459, Note_off_c, 8, 69, 64
20, 149491, Note_on_c, 8, 69, 74
20, 149574, Note_off_c, 8, 69, 64
20, 149612, Note_on_c, 8, 69, 82
20, 149696, Note_off_c, 8, 69, 64
20, 149738, Note_on_c, 8, 69, 91
20, 149822, Note_off_c, 8, 69, 64
20, 149866, Note_on_c, 8, 62, 76
20, 149922, Note_off_c, 8, 62, 64
20, 149922, Note_on_c, 8, 64, 80
20, 149970, Note_off_c, 8, 64, 64
20, 149984, Note_on_c, 8, 62, 91
20, 150036, Note_off_c, 8, 62, 64
20, 150039, Note_on_c, 8, 61, 72
20, 150082, Note_off_c, 8, 61, 64
20, 150102, Note_on_c, 8, 59, 63
20, 150151, Note_off_c, 8, 59, 64
20, 150158, Note_on_c, 8, 62, 72
20, 150200, Note_off_c, 8, 62, 64
20, 150225, Note_on_c, 8, 61, 89
20, 150283, Note_on_c, 8, 62, 72
20, 150292, Note_off_c, 8, 61, 64
20, 150333, Note_off_c, 8, 62, 64
20, 150343, Note_on_c, 8, 61, 82
20, 150394, Note_off_c, 8, 61, 64
20, 150399, Note_on_c, 8, 59, 72
20, 150457, Note_off_c, 8, 59, 64
20, 150463, Note_on_c, 8, 58, 76
20, 150518, Note_off_c, 8, 58, 64
20, 150584, Note_on_c, 8, 61, 80
20, 150634, Note_off_c, 8, 61, 64
20, 150709, Note_on_c, 8, 62, 82
20, 150766, Note_off_c, 8, 62, 64
20, 150824, Note_on_c, 8, 66, 85
20, 150873, Note_off_c, 8, 66, 64
20, 150957, Note_on_c, 8, 59, 89
20, 151001, Note_off_c, 8, 59, 64
20, 151071, Note_on_c, 8, 62, 89
20, 151258, Note_off_c, 8, 62, 64
20, 151306, Note_on_c, 8, 74, 80
20, 151389, Note_off_c, 8, 74, 64
20, 151421, Note_on_c, 8, 74, 78
20, 151527, Note_off_c, 8, 74, 64
20, 151548, Note_on_c, 8, 74, 76
20, 151645, Note_off_c, 8, 74, 64
20, 151671, Note_on_c, 8, 74, 85
20, 151756, Note_off_c, 8, 74, 64
20, 151785, Note_on_c, 8, 74, 85
20, 151864, Note_off_c, 8, 74, 64
20, 151899, Note_on_c, 8, 74, 78
20, 151987, Note_off_c, 8, 74, 64
20, 152021, Note_on_c, 8, 69, 68
20, 152117, Note_off_c, 8, 69, 64
20, 152147, Note_on_c, 8, 71, 80
20, 152260, Note_off_c, 8, 71, 64
20, 152276, Note_on_c, 8, 71, 80
20, 152384, Note_off_c, 8, 71, 64
20, 152402, Note_on_c, 8, 71, 70
20, 152494, Note_off_c, 8, 71, 64
20, 152509, Note_on_c, 8, 71, 66
20, 152602, Note_off_c, 8, 71, 64
20, 152627, Note_on_c, 8, 69, 72
20, 152710, Note_off_c, 8, 69, 64
20, 152737, Note_on_c, 8, 69, 70
20, 152836, Note_off_c, 8, 69, 64
20, 152857, Note_on_c, 8, 69, 70
20, 152942, Note_off_c, 8, 69, 64
20, 152975, Note_on_c, 8, 69, 66
20, 153075, Note_off_c, 8, 69, 64
20, 153097, Note_on_c, 8, 67, 70
20, 153196, Note_off_c, 8, 67, 64
20, 153217, Note_on_c, 8, 69, 74
20, 153310, Note_off_c, 8, 69, 64
20, 153335, Note_on_c, 8, 69, 70
20, 153418, Note_off_c, 8, 69, 64
20, 153449, Note_on_c, 8, 69, 60
20, 153555, Note_off_c, 8, 69, 64
20, 153578, Note_on_c, 8, 69, 74
20, 153681, Note_off_c, 8, 69, 64
20, 153703, Note_on_c, 8, 69, 66
20, 153791, Note_off_c, 8, 69, 64
20, 153817, Note_on_c, 8, 69, 66
20, 153909, Note_off_c, 8, 69, 64
20, 153942, Note_on_c, 8, 69, 64
20, 154028, Note_off_c, 8, 69, 64
20, 154050, Note_on_c, 8, 69, 70
20, 154160, Note_off_c, 8, 69, 64
20, 154175, Note_on_c, 8, 69, 57
20, 154267, Note_off_c, 8, 69, 64
20, 154294, Note_on_c, 8, 69, 61
20, 154392, Note_off_c, 8, 69, 64
20, 154422, Note_on_c, 8, 69, 68
20, 154511, Note_off_c, 8, 69, 64
20, 154536, Note_on_c, 8, 69, 76
20, 154634, Note_off_c, 8, 69, 64
20, 154657, Note_on_c, 8, 69, 72
20, 154746, Note_off_c, 8, 69, 64
20, 154780, Note_on_c, 8, 69, 80
20, 154870, Note_off_c, 8, 69, 64
20, 154903, Note_on_c, 8, 69, 72
20, 154987, Note_off_c, 8, 69, 64
20, 155013, Note_on_c, 8, 69, 82
20, 155090, Note_off_c, 8, 69, 64
20, 155135, Note_on_c, 8, 62, 78
20, 155216, Note_off_c, 8, 62, 64
20, 155262, Note_on_c, 8, 66, 78
20, 155322, Note_off_c, 8, 66, 64
20, 155387, Note_on_c, 8, 71, 85
20, 155451, Note_off_c, 8, 71, 64
20, 155504, Note_on_c, 8, 71, 85
20, 155607, Note_off_c, 8, 71, 64
20, 155631, Note_on_c, 8, 73, 82
20, 155676, Note_on_c, 8, 74, 70
20, 155677, Note_off_c, 8, 73, 64
20, 155720, Note_off_c, 8, 74, 64
20, 155739, Note_on_c, 8, 73, 89
20, 155807, Note_off_c, 8, 73, 64
20, 155860, Note_on_c, 8, 69, 82
20, 155929, Note_off_c, 8, 69, 64
20, 155980, Note_on_c, 8, 69, 82
20, 156084, Note_off_c, 8, 69, 64
20, 156103, Note_on_c, 8, 69, 74
20, 156179, Note_off_c, 8, 69, 64
20, 156224, Note_on_c, 8, 67, 66
20, 156295, Note_off_c, 8, 67, 64
20, 156346, Note_on_c, 8, 71, 78
20, 156410, Note_off_c, 8, 71, 64
20, 156476, Note_on_c, 8, 69, 85
20, 156572, Note_off_c, 8, 69, 64
20, 156592, Note_on_c, 8, 64, 76
20, 156674, Note_off_c, 8, 64, 64
20, 156716, Note_on_c, 8, 69, 85
20, 156787, Note_off_c, 8, 69, 64
20, 156834, Note_on_c, 8, 69, 85
20, 156905, Note_off_c, 8, 69, 64
20, 156955, Note_on_c, 8, 69, 91
20, 157007, Note_on_c, 8, 67, 80
20, 157021, Note_off_c, 8, 69, 64
20, 157069, Note_on_c, 8, 66, 82
20, 157073, Note_off_c, 8, 67, 64
20, 157126, Note_on_c, 8, 67, 76
20, 157136, Note_off_c, 8, 66, 64
20, 157180, Note_off_c, 8, 67, 64
20, 157191, Note_on_c, 8, 64, 80
20, 157245, Note_on_c, 8, 66, 80
20, 157256, Note_off_c, 8, 64, 64
20, 157294, Note_off_c, 8, 66, 64
20, 157304, Note_on_c, 8, 67, 85
20, 157351, Note_off_c, 8, 67, 64
20, 157360, Note_on_c, 8, 64, 85
20, 157405, Note_off_c, 8, 64, 64
20, 157435, Note_on_c, 8, 66, 91
20, 157675, Note_off_c, 8, 66, 64
20, 172904, Note_on_c, 8, 69, 63
20, 173006, Note_off_c, 8, 69, 64
20, 173023, Note_on_c, 8, 69, 66
20, 173126, Note_off_c, 8, 69, 64
20, 173147, Note_on_c, 8, 69, 70
20, 173240, Note_off_c, 8, 69, 64
20, 173264, Note_on_c, 8, 69, 72
20, 173363, Note_off_c, 8, 69, 64
20, 173384, Note_on_c, 8, 69, 70
20, 173483, Note_off_c, 8, 69, 64
20, 173506, Note_on_c, 8, 69, 80
20, 173603, Note_off_c, 8, 69, 64
20, 173625, Note_on_c, 8, 69, 78
20, 173722, Note_off_c, 8, 69, 64
20, 173743, Note_on_c, 8, 69, 85
20, 173835, Note_off_c, 8, 69, 64
20, 173861, Note_on_c, 8, 69, 72
20, 173958, Note_off_c, 8, 69, 64
20, 173983, Note_on_c, 8, 69, 78
20, 174078, Note_off_c, 8, 69, 64
20, 174104, Note_on_c, 8, 69, 78
20, 174192, Note_off_c, 8, 69, 64
20, 174225, Note_on_c, 8, 69, 78
20, 174324, Note_off_c, 8, 69, 64
20, 174344, Note_on_c, 8, 71, 85
20, 174451, Note_off_c, 8, 71, 64
20, 174471, Note_on_c, 8, 71, 70
20, 174571, Note_off_c, 8, 71, 64
20, 174592, Note_on_c, 8, 71, 68
20, 174683, Note_off_c, 8, 71, 64
20, 174710, Note_on_c, 8, 71, 80
20, 174808, Note_off_c, 8, 71, 64
20, 174828, Note_on_c, 8, 71, 70
20, 174929, Note_off_c, 8, 71, 64
20, 174955, Note_on_c, 8, 71, 82
20, 175037, Note_off_c, 8, 71, 64
20, 175065, Note_on_c, 8, 71, 68
20, 175162, Note_off_c, 8, 71, 64
20, 175185, Note_on_c, 8, 71, 78
20, 175291, Note_off_c, 8, 71, 64
20, 175313, Note_on_c, 8, 71, 66
20, 175411, Note_off_c, 8, 71, 64
20, 175437, Note_on_c, 8, 71, 78
20, 175521, Note_off_c, 8, 71, 64
20, 175549, Note_on_c, 8, 71, 74
20, 175620, Note_off_c, 8, 71, 64
20, 175673, Note_on_c, 8, 71, 85
20, 175726, Note_on_c, 8, 76, 78
20, 175732, Note_off_c, 8, 71, 64
20, 175761, Note_off_c, 8, 76, 64
20, 175787, Note_on_c, 8, 68, 63
20, 175842, Note_on_c, 8, 69, 76
20, 175851, Note_off_c, 8, 68, 64
20, 175891, Note_off_c, 8, 69, 64
20, 175905, Note_on_c, 8, 71, 82
20, 175960, Note_on_c, 8, 73, 72
20, 175974, Note_off_c, 8, 71, 64
20, 176010, Note_off_c, 8, 73, 64
20, 176023, Note_on_c, 8, 71, 80
20, 176079, Note_on_c, 8, 73, 70
20, 176087, Note_off_c, 8, 71, 64
20, 176126, Note_off_c, 8, 73, 64
20, 176144, Note_on_c, 8, 74, 89
20, 176196, Note_on_c, 8, 71, 66
20, 176204, Note_off_c, 8, 74, 64
20, 176242, Note_off_c, 8, 71, 64
20, 176257, Note_on_c, 8, 64, 68
20, 176317, Note_on_c, 8, 66, 78
20, 176330, Note_off_c, 8, 64, 64
20, 176370, Note_off_c, 8, 66, 64
20, 176382, Note_on_c, 8, 68, 70
20, 176437, Note_on_c, 8, 69, 70
20, 176442, Note_off_c, 8, 68, 64
20, 176486, Note_off_c, 8, 69, 64
20, 176496, Note_on_c, 8, 68, 80
20, 176552, Note_off_c, 8, 68, 64
20, 176556, Note_on_c, 8, 69, 74
20, 176599, Note_off_c, 8, 69, 64
20, 176616, Note_on_c, 8, 71, 102
20, 176670, Note_on_c, 8, 69, 85
20, 176681, Note_off_c, 8, 71, 64
20, 176726, Note_off_c, 8, 69, 64
20, 176727, Note_on_c, 8, 68, 59
20, 176786, Note_on_c, 8, 69, 72
20, 176790, Note_off_c, 8, 68, 64
20, 176833, Note_off_c, 8, 69, 64
20, 176855, Note_on_c, 8, 71, 100
20, 176910, Note_on_c, 8, 69, 74
20, 176924, Note_off_c, 8, 71, 64
20, 176966, Note_off_c, 8, 69, 64
20, 176970, Note_on_c, 8, 68, 87
20, 177029, Note_off_c, 8, 68, 64
20, 177031, Note_on_c, 8, 66, 80
20, 177088, Note_off_c, 8, 66, 64
20, 177097, Note_on_c, 8, 64, 85
20, 177152, Note_off_c, 8, 64, 64
20, 177222, Note_on_c, 8, 61, 85
20, 177267, Note_off_c, 8, 61, 64
20, 177345, Note_on_c, 8, 66, 89
20, 177615, Note_off_c, 8, 66, 64
20, 177712, Note_on_c, 8, 65, 85
20, 177766, Note_off_c, 8, 65, 64
20, 177767, Note_on_c, 8, 66, 82
20, 177814, Note_off_c, 8, 66, 64
20, 177829, Note_on_c, 8, 68, 82
20, 177886, Note_on_c, 8, 66, 87
20, 177896, Note_off_c, 8, 68, 64
20, 177933, Note_off_c, 8, 66, 64
20, 177942, Note_on_c, 8, 65, 78
20, 177997, Note_off_c, 8, 65, 64
20, 177997, Note_on_c, 8, 63, 62
20, 178053, Note_off_c, 8, 63, 64
20, 178058, Note_on_c, 8, 61, 74
20, 178126, Note_off_c, 8, 61, 64
20, 178185, Note_on_c, 8, 61, 87
20, 178232, Note_off_c, 8, 61, 64
20, 178306, Note_on_c, 8, 54, 80
20, 178349, Note_off_c, 8, 54, 64
20, 178431, Note_on_c, 8, 57, 87
20, 178599, Note_off_c, 8, 57, 64
20, 178668, Note_on_c, 8, 69, 57
20, 178765, Note_off_c, 8, 69, 64
20, 178789, Note_on_c, 8, 69, 87
20, 178882, Note_off_c, 8, 69, 64
20, 178907, Note_on_c, 8, 69, 85
20, 179005, Note_off_c, 8, 69, 64
20, 179025, Note_on_c, 8, 69, 85
20, 179120, Note_off_c, 8, 69, 64
20, 179143, Note_on_c, 8, 69, 82
20, 179240, Note_off_c, 8, 69, 64
20, 179270, Note_on_c, 8, 69, 85
20, 179369, Note_off_c, 8, 69, 64
20, 179391, Note_on_c, 8, 64, 80
20, 179479, Note_off_c, 8, 64, 64
20, 179514, Note_on_c, 8, 66, 87
20, 179614, Note_off_c, 8, 66, 64
20, 179633, Note_on_c, 8, 66, 68
20, 179734, Note_off_c, 8, 66, 64
20, 179757, Note_on_c, 8, 66, 63
20, 179846, Note_off_c, 8, 66, 64
20, 179868, Note_on_c, 8, 66, 76
20, 179953, Note_off_c, 8, 66, 64
20, 179989, Note_on_c, 8, 64, 80
20, 180083, Note_off_c, 8, 64, 64
20, 180100, Note_on_c, 8, 67, 78
20, 180194, Note_off_c, 8, 67, 64
20, 180229, Note_on_c, 8, 66, 80
20, 180291, Note_off_c, 8, 66, 64
20, 180347, Note_on_c, 8, 66, 74
20, 180418, Note_off_c, 8, 66, 64
20, 180467, Note_on_c, 8, 71, 89
20, 180547, Note_off_c, 8, 71, 64
20, 180589, Note_on_c, 8, 66, 64
20, 180651, Note_off_c, 8, 66, 64
20, 180711, Note_on_c, 8, 71, 87
20, 180774, Note_off_c, 8, 71, 64
20, 180833, Note_on_c, 8, 71, 82
20, 180896, Note_off_c, 8, 71, 64
20, 180950, Note_on_c, 8, 70, 89
20, 181006, Note_off_c, 8, 70, 64
20, 181074, Note_on_c, 8, 73, 91
20, 181119, Note_off_c, 8, 73, 64
20, 181195, Note_on_c, 8, 66, 82
20, 181238, Note_off_c, 8, 66, 64
20, 181314, Note_on_c, 8, 70, 100
20, 181476, Note_off_c, 8, 70, 64
20, 181550, Note_on_c, 8, 73, 87
20, 181595, Note_off_c, 8, 73, 64
20, 181674, Note_on_c, 8, 64, 87
20, 181724, Note_off_c, 8, 64, 64
20, 181796, Note_on_c, 8, 70, 98
20, 181971, Note_off_c, 8, 70, 64
20, 182028, Note_on_c, 8, 73, 85
20, 182074, Note_off_c, 8, 73, 64
20, 182147, Note_on_c, 8, 66, 80
20, 182204, Note_off_c, 8, 66, 64
20, 182268, Note_on_c, 8, 70, 76
20, 182339, Note_off_c, 8, 70, 64
20, 182389, Note_on_c, 8, 71, 87
20, 182449, Note_off_c, 8, 71, 64
20, 182509, Note_on_c, 8, 59, 78
20, 182560, Note_off_c, 8, 59, 64
20, 182627, Note_on_c, 8, 62, 82
20, 182685, Note_off_c, 8, 62, 64
20, 182745, Note_on_c, 8, 66, 80
20, 182796, Note_off_c, 8, 66, 64
20, 182863, Note_on_c, 8, 67, 78
20, 182929, Note_off_c, 8, 67, 64
20, 182981, Note_on_c, 8, 71, 80
20, 183050, Note_off_c, 8, 71, 64
20, 183099, Note_on_c, 8, 70, 70
20, 183160, Note_off_c, 8, 70, 64
20, 183223, Note_on_c, 8, 66, 76
20, 183280, Note_off_c, 8, 66, 64
20, 183344, Note_on_c, 8, 66, 85
20, 183402, Note_off_c, 8, 66, 64
20, 183463, Note_on_c, 8, 62, 78
20, 183517, Note_off_c, 8, 62, 64
20, 183578, Note_on_c, 8, 59, 82
20, 183634, Note_off_c, 8, 59, 64
20, 183695, Note_on_c, 8, 59, 82
20, 183750, Note_off_c, 8, 59, 64
20, 183824, Note_on_c, 8, 66, 82
20, 184083, Note_off_c, 8, 66, 64
20, 184180, Note_on_c, 8, 70, 80
20, 184235, Note_off_c, 8, 70, 64
20, 184299, Note_on_c, 8, 66, 85
20, 184363, Note_off_c, 8, 66, 64
20, 184419, Note_on_c, 8, 61, 70
20, 184474, Note_off_c, 8, 61, 64
20, 184538, Note_on_c, 8, 59, 80
20, 184596, Note_off_c, 8, 59, 64
20, 184664, Note_on_c, 8, 62, 85
20, 184723, Note_off_c, 8, 62, 64
20, 184790, Note_on_c, 8, 59, 82
20, 184859, Note_off_c, 8, 59, 64
20, 184916, Note_on_c, 8, 64, 89
20, 184968, Note_off_c, 8, 64, 64
20, 185038, Note_on_c, 8, 62, 87
20, 185090, Note_off_c, 8, 62, 64
20, 185154, Note_on_c, 8, 61, 85
20, 185213, Note_off_c, 8, 61, 64
20, 185282, Note_on_c, 8, 62, 87
20, 185533, Note_off_c, 8, 62, 64
20, 202671, Note_on_c, 8, 61, 82
20, 202725, Note_on_c, 8, 62, 85
20, 202728, Note_off_c, 8, 61, 64
20, 202784, Note_off_c, 8, 62, 64
20, 202790, Note_on_c, 8, 64, 85
20, 202843, Note_on_c, 8, 66, 74
20, 202857, Note_off_c, 8, 64, 64
20, 202898, Note_off_c, 8, 66, 64
20, 202904, Note_on_c, 8, 64, 74
20, 202958, Note_on_c, 8, 66, 64
20, 202965, Note_off_c, 8, 64, 64
20, 203004, Note_off_c, 8, 66, 64
20, 203024, Note_on_c, 8, 67, 91
20, 203075, Note_on_c, 8, 64, 68
20, 203086, Note_off_c, 8, 67, 64
20, 203127, Note_off_c, 8, 64, 64
20, 203141, Note_on_c, 8, 57, 56
20, 203202, Note_on_c, 8, 59, 70
20, 203209, Note_off_c, 8, 57, 64
20, 203258, Note_off_c, 8, 59, 64
20, 203266, Note_on_c, 8, 61, 76
20, 203321, Note_on_c, 8, 62, 68
20, 203328, Note_off_c, 8, 61, 64
20, 203365, Note_off_c, 8, 62, 64
20, 203384, Note_on_c, 8, 61, 72
20, 203437, Note_on_c, 8, 62, 68
20, 203440, Note_off_c, 8, 61, 64
20, 203484, Note_off_c, 8, 62, 64
20, 203503, Note_on_c, 8, 64, 102
20, 203557, Note_on_c, 8, 62, 82
20, 203571, Note_off_c, 8, 64, 64
20, 203608, Note_off_c, 8, 62, 64
20, 203616, Note_on_c, 8, 61, 64
20, 203673, Note_on_c, 8, 62, 80
20, 203682, Note_off_c, 8, 61, 64
20, 203724, Note_off_c, 8, 62, 64
20, 203739, Note_on_c, 8, 64, 87
20, 203797, Note_on_c, 8, 62, 70
20, 203809, Note_off_c, 8, 64, 64
20, 203852, Note_on_c, 8, 61, 63
20, 203867, Note_off_c, 8, 62, 64
20, 203909, Note_off_c, 8, 61, 64
20, 203910, Note_on_c, 8, 59, 64
20, 203958, Note_off_c, 8, 59, 64
20, 203969, Note_on_c, 8, 57, 60
20, 204021, Note_off_c, 8, 57, 64
20, 204040, Note_on_c, 8, 69, 80
20, 204095, Note_on_c, 8, 66, 66
20, 204103, Note_off_c, 8, 69, 64
20, 204158, Note_off_c, 8, 66, 64
20, 204160, Note_on_c, 8, 67, 74
20, 204220, Note_off_c, 8, 67, 64
20, 204223, Note_on_c, 8, 69, 82
20, 204284, Note_on_c, 8, 71, 82
20, 204297, Note_off_c, 8, 69, 64
20, 204323, Note_off_c, 8, 71, 64
20, 204337, Note_on_c, 8, 69, 76
20, 204392, Note_on_c, 8, 71, 66
20, 204399, Note_off_c, 8, 69, 64
20, 204430, Note_off_c, 8, 71, 64
20, 204460, Note_on_c, 8, 72, 78
20, 204520, Note_on_c, 8, 69, 80
20, 204536, Note_off_c, 8, 72, 64
20, 204560, Note_off_c, 8, 69, 64
20, 204576, Note_on_c, 8, 62, 54
20, 204638, Note_on_c, 8, 64, 70
20, 204645, Note_off_c, 8, 62, 64
20, 204698, Note_off_c, 8, 64, 64
20, 204699, Note_on_c, 8, 66, 78
20, 204748, Note_on_c, 8, 67, 68
20, 204757, Note_off_c, 8, 66, 64
20, 204801, Note_off_c, 8, 67, 64
20, 204813, Note_on_c, 8, 66, 63
20, 204869, Note_on_c, 8, 67, 74
20, 204875, Note_off_c, 8, 66, 64
20, 204919, Note_off_c, 8, 67, 64
20, 204935, Note_on_c, 8, 69, 98
20, 204992, Note_on_c, 8, 67, 78
20, 205007, Note_off_c, 8, 69, 64
20, 205042, Note_off_c, 8, 67, 64
20, 205054, Note_on_c, 8, 66, 74
20, 205110, Note_on_c, 8, 67, 80
20, 205125, Note_off_c, 8, 66, 64
20, 205160, Note_off_c, 8, 67, 64
20, 205181, Note_on_c, 8, 69, 91
20, 205240, Note_on_c, 8, 67, 76
20, 205253, Note_off_c, 8, 69, 64
20, 205302, Note_on_c, 8, 66, 70
20, 205315, Note_off_c, 8, 67, 64
20, 205358, Note_on_c, 8, 64, 74
20, 205368, Note_off_c, 8, 66, 64
20, 205403, Note_off_c, 8, 64, 64
20, 205422, Note_on_c, 8, 62, 74
20, 205465, Note_off_c, 8, 62, 64
20, 205473, Note_on_c, 8, 59, 59
20, 205530, Note_off_c, 8, 59, 64
20, 205540, Note_on_c, 8, 64, 80
20, 205599, Note_on_c, 8, 66, 72
20, 205601, Note_off_c, 8, 64, 64
20, 205662, Note_off_c, 8, 66, 64
20, 205662, Note_on_c, 8, 68, 64
20, 205721, Note_on_c, 8, 69, 80
20, 205737, Note_off_c, 8, 68, 64
20, 205763, Note_off_c, 8, 69, 64
20, 205777, Note_on_c, 8, 68, 63
20, 205832, Note_off_c, 8, 68, 64
20, 205837, Note_on_c, 8, 69, 76
20, 205877, Note_off_c, 8, 69, 64
20, 205899, Note_on_c, 8, 71, 100
20, 205954, Note_on_c, 8, 69, 78
20, 205965, Note_off_c, 8, 71, 64
20, 206006, Note_off_c, 8, 69, 64
20, 206020, Note_on_c, 8, 68, 80
20, 206075, Note_off_c, 8, 68, 64
20, 206075, Note_on_c, 8, 69, 76
20, 206121, Note_off_c, 8, 69, 64
20, 206141, Note_on_c, 8, 71, 91
20, 206196, Note_on_c, 8, 69, 72
20, 206212, Note_off_c, 8, 71, 64
20, 206256, Note_on_c, 8, 68, 87
20, 206259, Note_off_c, 8, 69, 64
20, 206310, Note_off_c, 8, 68, 64
20, 206313, Note_on_c, 8, 66, 76
20, 206374, Note_off_c, 8, 66, 64
20, 206385, Note_on_c, 8, 64, 85
20, 206452, Note_off_c, 8, 64, 64
20, 206512, Note_on_c, 8, 57, 68
20, 206566, Note_on_c, 8, 59, 78
20, 206569, Note_off_c, 8, 57, 64
20, 206618, Note_off_c, 8, 59, 64
20, 206626, Note_on_c, 8, 61, 89
20, 206690, Note_off_c, 8, 61, 64
20, 206747, Note_on_c, 8, 61, 80
20, 206797, Note_on_c, 8, 62, 80
20, 206804, Note_off_c, 8, 61, 64
20, 206843, Note_off_c, 8, 62, 64
20, 206860, Note_on_c, 8, 64, 87
20, 206935, Note_off_c, 8, 64, 64
20, 206980, Note_on_c, 8, 61, 72
20, 207030, Note_on_c, 8, 62, 70
20, 207036, Note_off_c, 8, 61, 64
20, 207077, Note_off_c, 8, 62, 64
20, 207094, Note_on_c, 8, 64, 87
20, 207156, Note_off_c, 8, 64, 64
20, 207224, Note_on_c, 8, 64, 80
20, 207272, Note_on_c, 8, 66, 78
20, 207278, Note_off_c, 8, 64, 64
20, 207318, Note_off_c, 8, 66, 64
20, 207332, Note_on_c, 8, 67, 87
20, 207404, Note_off_c, 8, 67, 64
20, 207455, Note_on_c, 8, 67, 76
20, 207496, Note_off_c, 8, 67, 64
20, 207503, Note_on_c, 8, 66, 66
20, 207541, Note_off_c, 8, 66, 64
20, 207564, Note_on_c, 8, 67, 89
20, 207648, Note_off_c, 8, 67, 64
20, 207686, Note_on_c, 8, 69, 80
20, 207727, Note_off_c, 8, 69, 64
20, 207740, Note_on_c, 8, 67, 80
20, 207784, Note_off_c, 8, 67, 64
20, 207803, Note_on_c, 8, 66, 85
20, 207850, Note_off_c, 8, 66, 64
20, 207935, Note_on_c, 8, 69, 82
20, 207973, Note_off_c, 8, 69, 64
20, 208058, Note_on_c, 8, 62, 87
20, 208108, Note_off_c, 8, 62, 64
20, 208174, Note_on_c, 8, 66, 82
20, 208348, Note_off_c, 8, 66, 64
20, 208419, Note_on_c, 8, 69, 89
20, 208470, Note_off_c, 8, 69, 64
20, 208539, Note_on_c, 8, 60, 80
20, 208601, Note_off_c, 8, 60, 64
20, 208671, Note_on_c, 8, 66, 85
20, 208830, Note_off_c, 8, 66, 64
20, 208909, Note_on_c, 8, 69, 85
20, 208955, Note_off_c, 8, 69, 64
20, 209033, Note_on_c, 8, 62, 78
20, 209094, Note_off_c, 8, 62, 64
20, 209147, Note_on_c, 8, 66, 80
20, 209197, Note_off_c, 8, 66, 64
20, 209269, Note_on_c, 8, 67, 85
20, 209319, Note_off_c, 8, 67, 64
20, 209320, Note_on_c, 8, 71, 82
20, 209367, Note_off_c, 8, 71, 64
20, 209381, Note_on_c, 8, 68, 80
20, 209434, Note_off_c, 8, 68, 64
20, 209434, Note_on_c, 8, 69, 63
20, 209480, Note_off_c, 8, 69, 64
20, 209502, Note_on_c, 8, 71, 82
20, 209554, Note_on_c, 8, 73, 78
20, 209571, Note_off_c, 8, 71, 64
20, 209602, Note_off_c, 8, 73, 64
20, 209615, Note_on_c, 8, 71, 76
20, 209672, Note_on_c, 8, 73, 82
20, 209698, Note_off_c, 8, 71, 64
20, 209724, Note_off_c, 8, 73, 64
20, 209743, Note_on_c, 8, 74, 91
20, 209800, Note_on_c, 8, 71, 63
20, 209815, Note_off_c, 8, 74, 64
20, 209852, Note_off_c, 8, 71, 64
20, 209860, Note_on_c, 8, 64, 72
20, 209919, Note_on_c, 8, 66, 63
20, 209930, Note_off_c, 8, 64, 64
20, 209971, Note_off_c, 8, 66, 64
20, 209977, Note_on_c, 8, 68, 76
20, 210034, Note_on_c, 8, 69, 78
20, 210038, Note_off_c, 8, 68, 64
20, 210080, Note_off_c, 8, 69, 64
20, 210097, Note_on_c, 8, 68, 78
20, 210154, Note_off_c, 8, 68, 64
20, 210156, Note_on_c, 8, 69, 68
20, 210214, Note_off_c, 8, 69, 64
20, 210224, Note_on_c, 8, 71, 87
20, 210283, Note_on_c, 8, 69, 80
20, 210291, Note_off_c, 8, 71, 64
20, 210334, Note_off_c, 8, 69, 64
20, 210341, Note_on_c, 8, 68, 63
20, 210396, Note_off_c, 8, 68, 64
20, 210399, Note_on_c, 8, 69, 68
20, 210449, Note_off_c, 8, 69, 64
20, 210466, Note_on_c, 8, 71, 95
20, 210520, Note_on_c, 8, 69, 78
20, 210531, Note_off_c, 8, 71, 64
20, 210578, Note_off_c, 8, 69, 64
20, 210578, Note_on_c, 8, 68, 57
20, 210632, Note_off_c, 8, 68, 64
20, 210634, Note_on_c, 8, 66, 66
20, 210680, Note_off_c, 8, 66, 64
20, 210701, Note_on_c, 8, 64, 66
20, 210790, Note_off_c, 8, 64, 64
20, 210822, Note_on_c, 8, 69, 62
20, 210927, Note_off_c, 8, 69, 64
20, 210944, Note_on_c, 8, 69, 70
20, 211040, Note_off_c, 8, 69, 64
20, 211061, Note_on_c, 8, 69, 66
20, 211142, Note_off_c, 8, 69, 64
20, 211172, Note_on_c, 8, 69, 82
20, 211278, Note_off_c, 8, 69, 64
20, 211294, Note_on_c, 8, 69, 72
20, 211383, Note_off_c, 8, 69, 64
20, 211405, Note_on_c, 8, 69, 80
20, 211502, Note_off_c, 8, 69, 64
20, 211520, Note_on_c, 8, 69, 68
20, 211609, Note_off_c, 8, 69, 64
20, 211637, Note_on_c, 8, 69, 78
20, 211732, Note_off_c, 8, 69, 64
20, 211765, Note_on_c, 8, 69, 85
20, 211846, Note_off_c, 8, 69, 64
20, 211896, Note_on_c, 8, 69, 89
20, 211987, Note_off_c, 8, 69, 64
20, 212018, Note_on_c, 8, 69, 85
20, 212096, Note_off_c, 8, 69, 64
20, 212134, Note_on_c, 8, 69, 95
20, 212216, Note_off_c, 8, 69, 64
20, 212256, Note_on_c, 8, 62, 82
20, 212311, Note_on_c, 8, 64, 87
20, 212315, Note_off_c, 8, 62, 64
20, 212377, Note_off_c, 8, 64, 64
20, 212379, Note_on_c, 8, 62, 87
20, 212429, Note_off_c, 8, 62, 64
20, 212443, Note_on_c, 8, 61, 68
20, 212488, Note_off_c, 8, 61, 64
20, 212488, Note_on_c, 8, 59, 60
20, 212554, Note_on_c, 8, 62, 68
20, 212559, Note_off_c, 8, 59, 64
20, 212594, Note_off_c, 8, 62, 64
20, 212620, Note_on_c, 8, 61, 100
20, 212676, Note_on_c, 8, 62, 78
20, 212677, Note_off_c, 8, 61, 64
20, 212733, Note_off_c, 8, 62, 64
20, 212736, Note_on_c, 8, 61, 80
20, 212779, Note_off_c, 8, 61, 64
20, 212793, Note_on_c, 8, 59, 70
20, 212844, Note_off_c, 8, 59, 64
20, 212861, Note_on_c, 8, 58, 76
20, 212923, Note_off_c, 8, 58, 64
20, 212984, Note_on_c, 8, 61, 80
20, 213025, Note_off_c, 8, 61, 64
20, 213111, Note_on_c, 8, 62, 87
20, 213166, Note_off_c, 8, 62, 64
20, 213228, Note_on_c, 8, 66, 85
20, 213277, Note_off_c, 8, 66, 64
20, 213353, Note_on_c, 8, 59, 82
20, 213389, Note_off_c, 8, 59, 64
20, 213477, Note_on_c, 8, 62, 78
20, 213480, Note_on_c, 8, 64, 64
20, 213489, Note_off_c, 8, 64, 64
20, 213669, Note_off_c, 8, 62, 64
20, 213712, Note_on_c, 8, 74, 76
20, 213781, Note_off_c, 8, 74, 64
20, 213828, Note_on_c, 8, 74, 68
20, 213922, Note_off_c, 8, 74, 64
20, 213946, Note_on_c, 8, 74, 80
20, 214040, Note_off_c, 8, 74, 64
20, 214065, Note_on_c, 8, 74, 82
20, 214153, Note_off_c, 8, 74, 64
20, 214175, Note_on_c, 8, 74, 76
20, 214274, Note_off_c, 8, 74, 64
20, 214296, Note_on_c, 8, 74, 82
20, 214383, Note_off_c, 8, 74, 64
20, 214415, Note_on_c, 8, 69, 74
20, 214496, Note_off_c, 8, 69, 64
20, 214533, Note_on_c, 8, 71, 76
20, 214639, Note_off_c, 8, 71, 64
20, 214659, Note_on_c, 8, 71, 64
20, 214760, Note_off_c, 8, 71, 64
20, 214778, Note_on_c, 8, 71, 68
20, 214877, Note_off_c, 8, 71, 64
20, 214894, Note_on_c, 8, 71, 57
20, 214990, Note_off_c, 8, 71, 64
20, 215017, Note_on_c, 8, 69, 74
20, 215113, Note_off_c, 8, 69, 64
20, 215133, Note_on_c, 8, 69, 64
20, 215226, Note_off_c, 8, 69, 64
20, 215254, Note_on_c, 8, 69, 63
20, 215343, Note_off_c, 8, 69, 64
20, 215370, Note_on_c, 8, 69, 62
20, 215479, Note_off_c, 8, 69, 64
20, 215500, Note_on_c, 8, 67, 66
20, 215605, Note_off_c, 8, 67, 64
20, 215621, Note_on_c, 8, 69, 68
20, 215710, Note_off_c, 8, 69, 64
20, 215735, Note_on_c, 8, 69, 64
20, 215828, Note_off_c, 8, 69, 64
20, 215857, Note_on_c, 8, 69, 57
20, 215941, Note_off_c, 8, 69, 64
20, 215972, Note_on_c, 8, 69, 68
20, 216075, Note_off_c, 8, 69, 64
20, 216098, Note_on_c, 8, 69, 64
20, 216200, Note_off_c, 8, 69, 64
20, 216221, Note_on_c, 8, 69, 60
20, 216311, Note_off_c, 8, 69, 64
20, 216341, Note_on_c, 8, 69, 63
20, 216423, Note_off_c, 8, 69, 64
20, 216451, Note_on_c, 8, 69, 60
20, 216549, Note_off_c, 8, 69, 64
20, 216575, Note_on_c, 8, 69, 58
20, 216674, Note_off_c, 8, 69, 64
20, 216700, Note_on_c, 8, 69, 63
20, 216791, Note_off_c, 8, 69, 64
20, 216818, Note_on_c, 8, 69, 59
20, 216909, Note_off_c, 8, 69, 64
20, 216939, Note_on_c, 8, 69, 66
20, 217040, Note_off_c, 8, 69, 64
20, 217061, Note_on_c, 8, 69, 62
20, 217165, Note_off_c, 8, 69, 64
20, 217192, Note_on_c, 8, 69, 60
20, 217283, Note_off_c, 8, 69, 64
20, 217304, Note_on_c, 8, 69, 66
20, 217393, Note_off_c, 8, 69, 64
20, 217423, Note_on_c, 8, 69, 78
20, 217504, Note_off_c, 8, 69, 64
20, 217546, Note_on_c, 8, 62, 72
20, 217620, Note_off_c, 8, 62, 64
20, 217664, Note_on_c, 8, 66, 68
20, 217716, Note_off_c, 8, 66, 64
20, 217786, Note_on_c, 8, 71, 80
20, 217836, Note_off_c, 8, 71, 64
20, 217905, Note_on_c, 8, 71, 89
20, 218013, Note_off_c, 8, 71, 64
20, 218029, Note_on_c, 8, 73, 80
20, 218077, Note_off_c, 8, 73, 64
20, 218078, Note_on_c, 8, 74, 80
20, 218120, Note_off_c, 8, 74, 64
20, 218138, Note_on_c, 8, 73, 91
20, 218202, Note_off_c, 8, 73, 64
20, 218256, Note_on_c, 8, 69, 74
20, 218315, Note_off_c, 8, 69, 64
20, 218375, Note_on_c, 8, 69, 82
20, 218452, Note_off_c, 8, 69, 64
20, 218497, Note_on_c, 8, 69, 78
20, 218570, Note_off_c, 8, 69, 64
20, 218616, Note_on_c, 8, 67, 64
20, 218686, Note_off_c, 8, 67, 64
20, 218738, Note_on_c, 8, 71, 70
20, 218810, Note_off_c, 8, 71, 64
20, 218860, Note_on_c, 8, 69, 80
20, 218925, Note_off_c, 8, 69, 64
20, 218982, Note_on_c, 8, 64, 80
20, 219049, Note_off_c, 8, 64, 64
20, 219107, Note_on_c, 8, 69, 80
20, 219174, Note_off_c, 8, 69, 64
20, 219223, Note_on_c, 8, 69, 78
20, 219293, Note_off_c, 8, 69, 64
20, 219344, Note_on_c, 8, 69, 87
20, 219393, Note_off_c, 8, 69, 64
20, 219400, Note_on_c, 8, 67, 82
20, 219452, Note_off_c, 8, 67, 64
20, 219457, Note_on_c, 8, 66, 78
20, 219508, Note_off_c, 8, 66, 64
20, 219514, Note_on_c, 8, 67, 82
20, 219564, Note_off_c, 8, 67, 64
20, 219576, Note_on_c, 8, 64, 82
20, 219645, Note_off_c, 8, 64, 64
20, 219706, Note_on_c, 8, 64, 76
20, 219770, Note_off_c, 8, 64, 64
20, 232318, Note_on_c, 8, 64, 116
20, 232400, Note_off_c, 8, 64, 64
20, 232501, Note_on_c, 8, 69, 95
20, 232541, Note_off_c, 8, 69, 64
20, 232565, Note_on_c, 8, 69, 102
20, 232637, Note_off_c, 8, 69, 64
20, 232735, Note_on_c, 8, 64, 98
20, 232770, Note_off_c, 8, 64, 64
20, 232802, Note_on_c, 8, 64, 105
20, 232870, Note_off_c, 8, 64, 64
20, 232974, Note_on_c, 8, 61, 98
20, 233013, Note_off_c, 8, 61, 64
20, 233036, Note_on_c, 8, 62, 98
20, 233109, Note_off_c, 8, 62, 64
20, 233212, Note_on_c, 8, 64, 93
20, 233254, Note_off_c, 8, 64, 64
20, 233275, Note_on_c, 8, 57, 93
20, 233349, Note_off_c, 8, 57, 64
20, 233443, Note_on_c, 8, 64, 87
20, 233483, Note_off_c, 8, 64, 64
20, 233507, Note_on_c, 8, 62, 100
20, 233575, Note_off_c, 8, 62, 64
20, 233666, Note_on_c, 8, 67, 93
20, 233704, Note_off_c, 8, 67, 64
20, 233742, Note_on_c, 8, 66, 100
20, 233810, Note_on_c, 8, 64, 82
20, 233816, Note_off_c, 8, 66, 64
20, 233840, Note_off_c, 8, 64, 64
20, 233841, Note_on_c, 8, 66, 85
20, 233865, Note_off_c, 8, 66, 64
20, 233865, Note_on_c, 8, 64, 68
20, 233886, Note_off_c, 8, 64, 64
20, 233890, Note_on_c, 8, 66, 78
20, 233907, Note_on_c, 8, 64, 70
20, 233909, Note_off_c, 8, 66, 64
20, 233928, Note_on_c, 8, 66, 91
20, 233932, Note_off_c, 8, 64, 64
20, 233955, Note_off_c, 8, 66, 64
20, 233958, Note_on_c, 8, 64, 57
20, 234079, Note_off_c, 8, 64, 64
20, 234158, Note_on_c, 8, 66, 102
20, 234184, Note_off_c, 8, 66, 64
20, 234232, Note_on_c, 8, 66, 100
20, 234739, Note_off_c, 8, 66, 64
20, 234739, End_track
21, 0, Start_track
21, 0, Title_t, "Cello"
21, 0, Program_c, 10, 42
21, 0, Control_c, 10, 7, 100
21, 18054, Note_on_c, 10, 47, 91
21, 18093, Note_off_c, 10, 47, 64
21, 18111, Note_on_c, 10, 45, 87
21, 18148, Note_off_c, 10, 45, 64
21, 18165, Note_on_c, 10, 43, 100
21, 18211, Note_off_c, 10, 43, 64
21, 18232, Note_on_c, 10, 42, 100
21, 18510, Note_off_c, 10, 42, 64
21, 18531, Note_on_c, 10, 43, 85
21, 18569, Note_off_c, 10, 43, 64
21, 18592, Note_on_c, 10, 42, 100
21, 18632, Note_off_c, 10, 42, 64
21, 18652, Note_on_c, 10, 40, 100
21, 18689, Note_off_c, 10, 40, 64
21, 18712, Note_on_c, 10, 38, 100
21, 18810, Note_off_c, 10, 38, 64
21, 18891, Note_on_c, 10, 40, 95
21, 18931, Note_off_c, 10, 40, 64
21, 18952, Note_on_c, 10, 42, 110
21, 19035, Note_off_c, 10, 42, 64
21, 19144, Note_on_c, 10, 38, 95
21, 19174, Note_off_c, 10, 38, 64
21, 19205, Note_on_c, 10, 43, 102
21, 19627, Note_off_c, 10, 43, 64
21, 19672, Note_on_c, 10, 55, 110
21, 20404, Note_off_c, 10, 55, 64
21, 20439, Note_on_c, 10, 54, 100
21, 20475, Note_off_c, 10, 54, 64
21, 20496, Note_on_c, 10, 52, 95
21, 20536, Note_off_c, 10, 52, 64
21, 20555, Note_on_c, 10, 50, 98
21, 20593, Note_off_c, 10, 50, 64
21, 20620, Note_on_c, 10, 49, 105
21, 20724, Note_off_c, 10, 49, 64
21, 20789, Note_on_c, 10, 45, 85
21, 20832, Note_off_c, 10, 45, 64
21, 20850, Note_on_c, 10, 47, 100
21, 20943, Note_off_c, 10, 47, 64
21, 21037, Note_on_c, 10, 49, 89
21, 21075, Note_off_c, 10, 49, 64
21, 21103, Note_on_c, 10, 50, 107
21, 21200, Note_off_c, 10, 50, 64
21, 21273, Note_on_c, 10, 52, 91
21, 21314, Note_off_c, 10, 52, 64
21, 21335, Note_on_c, 10, 54, 100
21, 21427, Note_off_c, 10, 54, 64
21, 21520, Note_on_c, 10, 55, 78
21, 21567, Note_off_c, 10, 55, 64
21, 21589, Note_on_c, 10, 57, 89
21, 21640, Note_off_c, 10, 57, 64
21, 21646, Note_on_c, 10, 59, 89
21, 21688, Note_off_c, 10, 59, 64
21, 21705, Note_on_c, 10, 57, 98
21, 21753, Note_off_c, 10, 57, 64
21, 21761, Note_on_c, 10, 55, 89
21, 21811, Note_off_c, 10, 55, 64
21, 21824, Note_on_c, 10, 54, 95
21, 21875, Note_off_c, 10, 54, 64
21, 21882, Note_on_c, 10, 55, 91
21, 21932, Note_off_c, 10, 55, 64
21, 21944, Note_on_c, 10, 57, 85
21, 21990, Note_off_c, 10, 57, 64
21, 22005, Note_on_c, 10, 59, 89
21, 22053, Note_off_c, 10, 59, 64
21, 22071, Note_on_c, 10, 61, 80
21, 22131, Note_on_c, 10, 59, 85
21, 22145, Note_off_c, 10, 61, 64
21, 22172, Note_off_c, 10, 59, 64
21, 22191, Note_on_c, 10, 57, 93
21, 22240, Note_off_c, 10, 57, 64
21, 22251, Note_on_c, 10, 59, 91
21, 22295, Note_off_c, 10, 59, 64
21, 22313, Note_on_c, 10, 61, 95
21, 22358, Note_off_c, 10, 61, 64
21, 22369, Note_on_c, 10, 62, 100
21, 22410, Note_off_c, 10, 62, 64
21, 22425, Note_on_c, 10, 64, 93
21, 22462, Note_off_c, 10, 64, 64
21, 22481, Note_on_c, 10, 61, 100
21, 22516, Note_off_c, 10, 61, 64
21, 22543, Note_on_c, 10, 62, 93
21, 22707, Note_off_c, 10, 62, 64
21, 22793, Note_on_c, 10, 50, 98
21, 22934, Note_off_c, 10, 50, 64
21, 23041, Note_on_c, 10, 45, 95
21, 23174, Note_off_c, 10, 45, 64
21, 23212, Note_on_c, 10, 57, 100
21, 23252, Note_off_c, 10, 57, 64
21, 23273, Note_on_c, 10, 57, 107
21, 23355, Note_off_c, 10, 57, 64
21, 23457, Note_on_c, 10, 52, 93
21, 23491, Note_off_c, 10, 52, 64
21, 23517, Note_on_c, 10, 52, 105
21, 23600, Note_off_c, 10, 52, 64
21, 23689, Note_on_c, 10, 49, 102
21, 23726, Note_off_c, 10, 49, 64
21, 23753, Note_on_c, 10, 49, 113
21, 23837, Note_off_c, 10, 49, 64
21, 23929, Note_on_c, 10, 45, 87
21, 23983, Note_off_c, 10, 45, 64
21, 41093, Note_on_c, 10, 47, 89
21, 41131, Note_off_c, 10, 47, 64
21, 41159, Note_on_c, 10, 45, 89
21, 41201, Note_off_c, 10, 45, 64
21, 41222, Note_on_c, 10, 43, 100
21, 41257, Note_off_c, 10, 43, 64
21, 41288, Note_on_c, 10, 42, 102
21, 41556, Note_off_c, 10, 42, 64
21, 41578, Note_on_c, 10, 43, 91
21, 41615, Note_off_c, 10, 43, 64
21, 41636, Note_on_c, 10, 42, 105
21, 41677, Note_off_c, 10, 42, 64
21, 41696, Note_on_c, 10, 40, 100
21, 41733, Note_off_c, 10, 40, 64
21, 41754, Note_on_c, 10, 38, 98
21, 41859, Note_off_c, 10, 38, 64
21, 41940, Note_on_c, 10, 40, 93
21, 41980, Note_off_c, 10, 40, 64
21, 42004, Note_on_c, 10, 42, 110
21, 42086, Note_off_c, 10, 42, 64
21, 42173, Note_on_c, 10, 38, 91
21, 42208, Note_off_c, 10, 38, 64
21, 42241, Note_on_c, 10, 43, 100
21, 42664, Note_off_c, 10, 43, 64
21, 42713, Note_on_c, 10, 55, 110
21, 43447, Note_off_c, 10, 55, 64
21, 43476, Note_on_c, 10, 54, 98
21, 43512, Note_off_c, 10, 54, 64
21, 43533, Note_on_c, 10, 52, 100
21, 43574, Note_off_c, 10, 52, 64
21, 43587, Note_on_c, 10, 50, 95
21, 43625, Note_off_c, 10, 50, 64
21, 43655, Note_on_c, 10, 49, 102
21, 43760, Note_off_c, 10, 49, 64
21, 43828, Note_on_c, 10, 45, 87
21, 43871, Note_off_c, 10, 45, 64
21, 43893, Note_on_c, 10, 47, 98
21, 43986, Note_off_c, 10, 47, 64
21, 44074, Note_on_c, 10, 49, 98
21, 44111, Note_off_c, 10, 49, 64
21, 44139, Note_on_c, 10, 50, 102
21, 44240, Note_off_c, 10, 50, 64
21, 44311, Note_on_c, 10, 52, 89
21, 44351, Note_off_c, 10, 52, 64
21, 44374, Note_on_c, 10, 54, 102
21, 44452, Note_off_c, 10, 54, 64
21, 44547, Note_on_c, 10, 55, 85
21, 44592, Note_off_c, 10, 55, 64
21, 44614, Note_on_c, 10, 57, 98
21, 44662, Note_off_c, 10, 57, 64
21, 44673, Note_on_c, 10, 59, 89
21, 44715, Note_off_c, 10, 59, 64
21, 44733, Note_on_c, 10, 57, 89
21, 44774, Note_off_c, 10, 57, 64
21, 44790, Note_on_c, 10, 55, 87
21, 44838, Note_off_c, 10, 55, 64
21, 44853, Note_on_c, 10, 54, 91
21, 44905, Note_off_c, 10, 54, 64
21, 44912, Note_on_c, 10, 55, 89
21, 44963, Note_off_c, 10, 55, 64
21, 44977, Note_on_c, 10, 57, 85
21, 45024, Note_off_c, 10, 57, 64
21, 45036, Note_on_c, 10, 59, 89
21, 45077, Note_off_c, 10, 59, 64
21, 45104, Note_on_c, 10, 61, 89
21, 45156, Note_off_c, 10, 61, 64
21, 45166, Note_on_c, 10, 59, 91
21, 45209, Note_off_c, 10, 59, 64
21, 45224, Note_on_c, 10, 57, 87
21, 45270, Note_off_c, 10, 57, 64
21, 45282, Note_on_c, 10, 59, 87
21, 45324, Note_off_c, 10, 59, 64
21, 45344, Note_on_c, 10, 61, 93
21, 45389, Note_off_c, 10, 61, 64
21, 45403, Note_on_c, 10, 62, 98
21, 45450, Note_off_c, 10, 62, 64
21, 45468, Note_on_c, 10, 64, 93
21, 45514, Note_off_c, 10, 64, 64
21, 45529, Note_on_c, 10, 61, 91
21, 45573, Note_off_c, 10, 61, 64
21, 45594, Note_on_c, 10, 62, 100
21, 45767, Note_off_c, 10, 62, 64
21, 45837, Note_on_c, 10, 50, 100
21, 45976, Note_off_c, 10, 50, 64
21, 46084, Note_on_c, 10, 45, 107
21, 46224, Note_off_c, 10, 45, 64
21, 63710, Note_on_c, 10, 49, 64
21, 63764, Note_off_c, 10, 49, 64
21, 63832, Note_on_c, 10, 50, 82
21, 63891, Note_off_c, 10, 50, 64
21, 63947, Note_on_c, 10, 47, 72
21, 64004, Note_off_c, 10, 47, 64
21, 64072, Note_on_c, 10, 43, 68
21, 64119, Note_off_c, 10, 43, 64
21, 64188, Note_on_c, 10, 45, 74
21, 64231, Note_off_c, 10, 45, 64
21, 64320, Note_on_c, 10, 38, 76
21, 64564, Note_off_c, 10, 38, 64
21, 64659, Note_on_c, 10, 50, 64
21, 64713, Note_off_c, 10, 50, 64
21, 64780, Note_on_c, 10, 49, 57
21, 64837, Note_off_c, 10, 49, 64
21, 64896, Note_on_c, 10, 54, 72
21, 64951, Note_off_c, 10, 54, 64
21, 65022, Note_on_c, 10, 50, 72
21, 65072, Note_off_c, 10, 50, 64
21, 65133, Note_on_c, 10, 52, 66
21, 65177, Note_off_c, 10, 52, 64
21, 65257, Note_on_c, 10, 45, 74
21, 65339, Note_off_c, 10, 45, 64
21, 65369, Note_on_c, 10, 57, 60
21, 65442, Note_off_c, 10, 57, 64
21, 65490, Note_on_c, 10, 57, 57
21, 65565, Note_off_c, 10, 57, 64
21, 65598, Note_on_c, 10, 57, 54
21, 65659, Note_off_c, 10, 57, 64
21, 65851, Note_on_c, 10, 55, 68
21, 65955, Note_off_c, 10, 55, 64
21, 65975, Note_on_c, 10, 55, 62
21, 66059, Note_off_c, 10, 55, 64
21, 66094, Note_on_c, 10, 55, 52
21, 66153, Note_off_c, 10, 55, 64
21, 66338, Note_on_c, 10, 54, 70
21, 66436, Note_off_c, 10, 54, 64
21, 66451, Note_on_c, 10, 54, 58
21, 66552, Note_off_c, 10, 54, 64
21, 66580, Note_on_c, 10, 54, 53
21, 66632, Note_off_c, 10, 54, 64
21, 66825, Note_on_c, 10, 42, 66
21, 66914, Note_off_c, 10, 42, 64
21, 66934, Note_on_c, 10, 42, 64
21, 67008, Note_off_c, 10, 42, 64
21, 67062, Note_on_c, 10, 42, 43
21, 67126, Note_off_c, 10, 42, 64
21, 67310, Note_on_c, 10, 47, 76
21, 67407, Note_off_c, 10, 47, 64
21, 67422, Note_on_c, 10, 47, 59
21, 67513, Note_off_c, 10, 47, 64
21, 67544, Note_on_c, 10, 47, 47
21, 67598, Note_off_c, 10, 47, 64
21, 67780, Note_on_c, 10, 54, 64
21, 67999, Note_off_c, 10, 54, 64
21, 68025, Note_on_c, 10, 54, 54
21, 68072, Note_off_c, 10, 54, 64
21, 68255, Note_on_c, 10, 51, 59
21, 68356, Note_off_c, 10, 51, 64
21, 68370, Note_on_c, 10, 51, 42
21, 68442, Note_off_c, 10, 51, 64
21, 68479, Note_on_c, 10, 51, 41
21, 68552, Note_off_c, 10, 51, 64
21, 68746, Note_on_c, 10, 47, 87
21, 68835, Note_off_c, 10, 47, 64
21, 68860, Note_on_c, 10, 47, 68
21, 68930, Note_off_c, 10, 47, 64
21, 68982, Note_on_c, 10, 47, 66
21, 69035, Note_off_c, 10, 47, 64
21, 69104, Note_on_c, 10, 52, 64
21, 69174, Note_off_c, 10, 52, 64
21, 69223, Note_on_c, 10, 64, 76
21, 69278, Note_off_c, 10, 64, 64
21, 69344, Note_on_c, 10, 57, 60
21, 69396, Note_off_c, 10, 57, 64
21, 69461, Note_on_c, 10, 61, 62
21, 69512, Note_off_c, 10, 61, 64
21, 69575, Note_on_c, 10, 50, 80
21, 69641, Note_off_c, 10, 50, 64
21, 69689, Note_on_c, 10, 62, 82
21, 69752, Note_off_c, 10, 62, 64
21, 69806, Note_on_c, 10, 55, 58
21, 69858, Note_off_c, 10, 55, 64
21, 69924, Note_on_c, 10, 59, 68
21, 69988, Note_off_c, 10, 59, 64
21, 70053, Note_on_c, 10, 49, 82
21, 70122, Note_off_c, 10, 49, 64
21, 70176, Note_on_c, 10, 61, 63
21, 70238, Note_off_c, 10, 61, 64
21, 70304, Note_on_c, 10, 54, 60
21, 70351, Note_off_c, 10, 54, 64
21, 70416, Note_on_c, 10, 58, 64
21, 70468, Note_off_c, 10, 58, 64
21, 70541, Note_on_c, 10, 47, 80
21, 70619, Note_off_c, 10, 47, 64
21, 70663, Note_on_c, 10, 59, 68
21, 70724, Note_off_c, 10, 59, 64
21, 70778, Note_on_c, 10, 55, 70
21, 70831, Note_off_c, 10, 55, 64
21, 70893, Note_on_c, 10, 52, 68
21, 70951, Note_off_c, 10, 52, 64
21, 71025, Note_on_c, 10, 54, 59
21, 71273, Note_off_c, 10, 54, 64
21, 71523, Note_on_c, 10, 42, 59
21, 71769, Note_off_c, 10, 42, 64
21, 72106, Note_on_c, 10, 54, 63
21, 72160, Note_off_c, 10, 54, 64
21, 72229, Note_on_c, 10, 58, 70
21, 72279, Note_off_c, 10, 58, 64
21, 72344, Note_on_c, 10, 54, 60
21, 72397, Note_off_c, 10, 54, 64
21, 72466, Note_on_c, 10, 59, 63
21, 72734, Note_off_c, 10, 59, 64
21, 72962, Note_on_c, 10, 47, 63
21, 73192, Note_off_c, 10, 47, 64
21, 73540, Note_on_c, 10, 59, 85
21, 73597, Note_off_c, 10, 59, 64
21, 73662, Note_on_c, 10, 47, 70
21, 73718, Note_off_c, 10, 47, 64
21, 73780, Note_on_c, 10, 51, 74
21, 73827, Note_off_c, 10, 51, 64
21, 73909, Note_on_c, 10, 52, 66
21, 74150, Note_off_c, 10, 52, 64
21, 74391, Note_on_c, 10, 40, 63
21, 74633, Note_off_c, 10, 40, 64
21, 74983, Note_on_c, 10, 52, 66
21, 75040, Note_off_c, 10, 52, 64
21, 75105, Note_on_c, 10, 56, 70
21, 75159, Note_off_c, 10, 56, 64
21, 75224, Note_on_c, 10, 52, 68
21, 75284, Note_off_c, 10, 52, 64
21, 75351, Note_on_c, 10, 57, 70
21, 75605, Note_off_c, 10, 57, 64
21, 75844, Note_on_c, 10, 45, 68
21, 76065, Note_off_c, 10, 45, 64
21, 76423, Note_on_c, 10, 57, 72
21, 76475, Note_off_c, 10, 57, 64
21, 76544, Note_on_c, 10, 45, 80
21, 76606, Note_off_c, 10, 45, 64
21, 76661, Note_on_c, 10, 49, 60
21, 76711, Note_off_c, 10, 49, 64
21, 76784, Note_on_c, 10, 50, 64
21, 76844, Note_off_c, 10, 50, 64
21, 76899, Note_on_c, 10, 49, 51
21, 76958, Note_off_c, 10, 49, 64
21, 77019, Note_on_c, 10, 50, 64
21, 77075, Note_off_c, 10, 50, 64
21, 77134, Note_on_c, 10, 52, 64
21, 77188, Note_off_c, 10, 52, 64
21, 77247, Note_on_c, 10, 54, 66
21, 77319, Note_off_c, 10, 54, 64
21, 77365, Note_on_c, 10, 52, 59
21, 77425, Note_off_c, 10, 52, 64
21, 77483, Note_on_c, 10, 54, 58
21, 77552, Note_off_c, 10, 54, 64
21, 77605, Note_on_c, 10, 56, 72
21, 77685, Note_off_c, 10, 56, 64
21, 77737, Note_on_c, 10, 57, 85
21, 77803, Note_off_c, 10, 57, 64
21, 77862, Note_on_c, 10, 56, 62
21, 77926, Note_off_c, 10, 56, 64
21, 77983, Note_on_c, 10, 57, 70
21, 78033, Note_off_c, 10, 57, 64
21, 78096, Note_on_c, 10, 54, 63
21, 78152, Note_off_c, 10, 54, 64
21, 78220, Note_on_c, 10, 49, 70
21, 78277, Note_off_c, 10, 49, 64
21, 78334, Note_on_c, 10, 50, 85
21, 78392, Note_off_c, 10, 50, 64
21, 78454, Note_on_c, 10, 52, 80
21, 78518, Note_off_c, 10, 52, 64
21, 78582, Note_on_c, 10, 40, 82
21, 78648, Note_off_c, 10, 40, 64
21, 91559, Note_on_c, 10, 58, 63
21, 91615, Note_off_c, 10, 58, 64
21, 91680, Note_on_c, 10, 59, 76
21, 91740, Note_off_c, 10, 59, 64
21, 91799, Note_on_c, 10, 55, 70
21, 91850, Note_off_c, 10, 55, 64
21, 91914, Note_on_c, 10, 52, 62
21, 91966, Note_off_c, 10, 52, 64
21, 92031, Note_on_c, 10, 54, 63
21, 92081, Note_off_c, 10, 54, 64
21, 92163, Note_on_c, 10, 47, 64
21, 92412, Note_off_c, 10, 47, 64
21, 92507, Note_on_c, 10, 59, 60
21, 92555, Note_off_c, 10, 59, 64
21, 92624, Note_on_c, 10, 57, 64
21, 92684, Note_off_c, 10, 57, 64
21, 92745, Note_on_c, 10, 62, 78
21, 92796, Note_off_c, 10, 62, 64
21, 92866, Note_on_c, 10, 59, 64
21, 92921, Note_off_c, 10, 59, 64
21, 92991, Note_on_c, 10, 61, 62
21, 93037, Note_off_c, 10, 61, 64
21, 93107, Note_on_c, 10, 54, 52
21, 93200, Note_off_c, 10, 54, 64
21, 93221, Note_on_c, 10, 54, 59
21, 93314, Note_off_c, 10, 54, 64
21, 93346, Note_on_c, 10, 54, 57
21, 93423, Note_off_c, 10, 54, 64
21, 93459, Note_on_c, 10, 54, 43
21, 93512, Note_off_c, 10, 54, 64
21, 93702, Note_on_c, 10, 52, 64
21, 93806, Note_off_c, 10, 52, 64
21, 93834, Note_on_c, 10, 52, 38
21, 93912, Note_off_c, 10, 52, 64
21, 93953, Note_on_c, 10, 52, 39
21, 94008, Note_off_c, 10, 52, 64
21, 94189, Note_on_c, 10, 51, 60
21, 94292, Note_off_c, 10, 51, 64
21, 94308, Note_on_c, 10, 51, 47
21, 94400, Note_off_c, 10, 51, 64
21, 94434, Note_on_c, 10, 51, 49
21, 94479, Note_off_c, 10, 51, 64
21, 94667, Note_on_c, 10, 47, 68
21, 94762, Note_off_c, 10, 47, 64
21, 94792, Note_on_c, 10, 47, 51
21, 94872, Note_off_c, 10, 47, 64
21, 94906, Note_on_c, 10, 47, 50
21, 94952, Note_off_c, 10, 47, 64
21, 95141, Note_on_c, 10, 52, 82
21, 95245, Note_off_c, 10, 52, 64
21, 95265, Note_on_c, 10, 52, 62
21, 95359, Note_off_c, 10, 52, 64
21, 95390, Note_on_c, 10, 52, 53
21, 95434, Note_off_c, 10, 52, 64
21, 95622, Note_on_c, 10, 50, 76
21, 95730, Note_off_c, 10, 50, 64
21, 95752, Note_on_c, 10, 50, 60
21, 95845, Note_off_c, 10, 50, 64
21, 95875, Note_on_c, 10, 50, 53
21, 95936, Note_off_c, 10, 50, 64
21, 96104, Note_on_c, 10, 49, 72
21, 96210, Note_off_c, 10, 49, 64
21, 96224, Note_on_c, 10, 49, 51
21, 96319, Note_off_c, 10, 49, 64
21, 96345, Note_on_c, 10, 49, 57
21, 96404, Note_off_c, 10, 49, 64
21, 96586, Note_on_c, 10, 45, 82
21, 96689, Note_off_c, 10, 45, 64
21, 96706, Note_on_c, 10, 45, 59
21, 96770, Note_off_c, 10, 45, 64
21, 96822, Note_on_c, 10, 45, 27
21, 96876, Note_off_c, 10, 45, 64
21, 96947, Note_on_c, 10, 50, 68
21, 97031, Note_off_c, 10, 50, 64
21, 97069, Note_on_c, 10, 62, 76
21, 97131, Note_off_c, 10, 62, 64
21, 97195, Note_on_c, 10, 55, 61
21, 97236, Note_off_c, 10, 55, 64
21, 97304, Note_on_c, 10, 59, 66
21, 97366, Note_off_c, 10, 59, 64
21, 97428, Note_on_c, 10, 49, 80
21, 97510, Note_off_c, 10, 49, 64
21, 97546, Note_on_c, 10, 61, 63
21, 97618, Note_off_c, 10, 61, 64
21, 97660, Note_on_c, 10, 54, 58
21, 97713, Note_off_c, 10, 54, 64
21, 97779, Note_on_c, 10, 57, 61
21, 97840, Note_off_c, 10, 57, 64
21, 97905, Note_on_c, 10, 47, 80
21, 97984, Note_off_c, 10, 47, 64
21, 98024, Note_on_c, 10, 59, 74
21, 98089, Note_off_c, 10, 59, 64
21, 98142, Note_on_c, 10, 52, 63
21, 98194, Note_off_c, 10, 52, 64
21, 98265, Note_on_c, 10, 55, 70
21, 98322, Note_off_c, 10, 55, 64
21, 98388, Note_on_c, 10, 45, 63
21, 100376, Note_off_c, 10, 45, 64
21, 100421, Note_on_c, 10, 47, 59
21, 100482, Note_off_c, 10, 47, 64
21, 100537, Note_on_c, 10, 49, 64
21, 100588, Note_off_c, 10, 49, 64
21, 100657, Note_on_c, 10, 45, 70
21, 100710, Note_off_c, 10, 45, 64
21, 100785, Note_on_c, 10, 42, 58
21, 101047, Note_off_c, 10, 42, 64
21, 101285, Note_on_c, 10, 47, 68
21, 101543, Note_off_c, 10, 47, 64
21, 101864, Note_on_c, 10, 47, 76
21, 101921, Note_off_c, 10, 47, 64
21, 101985, Note_on_c, 10, 51, 74
21, 102034, Note_off_c, 10, 51, 64
21, 102106, Note_on_c, 10, 47, 82
21, 102157, Note_off_c, 10, 47, 64
21, 102239, Note_on_c, 10, 52, 66
21, 102498, Note_off_c, 10, 52, 64
21, 102728, Note_on_c, 10, 40, 70
21, 102978, Note_off_c, 10, 40, 64
21, 103307, Note_on_c, 10, 40, 66
21, 103363, Note_off_c, 10, 40, 64
21, 103425, Note_on_c, 10, 52, 76
21, 103484, Note_off_c, 10, 52, 64
21, 103544, Note_on_c, 10, 44, 72
21, 103593, Note_off_c, 10, 44, 64
21, 103673, Note_on_c, 10, 45, 76
21, 103911, Note_off_c, 10, 45, 64
21, 104164, Note_on_c, 10, 57, 63
21, 104408, Note_off_c, 10, 57, 64
21, 104746, Note_on_c, 10, 45, 68
21, 104805, Note_off_c, 10, 45, 64
21, 104870, Note_on_c, 10, 49, 72
21, 104916, Note_off_c, 10, 49, 64
21, 104996, Note_on_c, 10, 45, 78
21, 105041, Note_off_c, 10, 45, 64
21, 105124, Note_on_c, 10, 50, 70
21, 105379, Note_off_c, 10, 50, 64
21, 105603, Note_on_c, 10, 38, 68
21, 105841, Note_off_c, 10, 38, 64
21, 125771, Note_on_c, 10, 50, 107
21, 127935, Note_off_c, 10, 50, 64
21, 127972, Note_on_c, 10, 48, 85
21, 128010, Note_off_c, 10, 48, 64
21, 128031, Note_on_c, 10, 47, 89
21, 128073, Note_off_c, 10, 47, 64
21, 128085, Note_on_c, 10, 45, 87
21, 128131, Note_off_c, 10, 45, 64
21, 128151, Note_on_c, 10, 47, 93
21, 128244, Note_off_c, 10, 47, 64
21, 128340, Note_on_c, 10, 48, 80
21, 128380, Note_off_c, 10, 48, 64
21, 128399, Note_on_c, 10, 50, 95
21, 128472, Note_off_c, 10, 50, 64
21, 128590, Note_on_c, 10, 38, 89
21, 128629, Note_off_c, 10, 38, 64
21, 128650, Note_on_c, 10, 43, 93
21, 129055, Note_off_c, 10, 43, 64
21, 129111, Note_on_c, 10, 55, 87
21, 129535, Note_off_c, 10, 55, 64
21, 129602, Note_on_c, 10, 54, 85
21, 130110, Note_off_c, 10, 54, 64
21, 130133, Note_on_c, 10, 55, 87
21, 130179, Note_off_c, 10, 55, 64
21, 130199, Note_on_c, 10, 57, 80
21, 130239, Note_off_c, 10, 57, 64
21, 130251, Note_on_c, 10, 59, 89
21, 130292, Note_off_c, 10, 59, 64
21, 130315, Note_on_c, 10, 57, 87
21, 130360, Note_off_c, 10, 57, 64
21, 130370, Note_on_c, 10, 55, 89
21, 130405, Note_off_c, 10, 55, 64
21, 130430, Note_on_c, 10, 54, 85
21, 130469, Note_off_c, 10, 54, 64
21, 130487, Note_on_c, 10, 52, 93
21, 130531, Note_off_c, 10, 52, 64
21, 130552, Note_on_c, 10, 51, 85
21, 131131, Note_off_c, 10, 51, 64
21, 131213, Note_on_c, 10, 47, 87
21, 131260, Note_off_c, 10, 47, 64
21, 131270, Note_on_c, 10, 49, 85
21, 131359, Note_off_c, 10, 49, 64
21, 131468, Note_on_c, 10, 51, 85
21, 131517, Note_off_c, 10, 51, 64
21, 131523, Note_on_c, 10, 52, 98
21, 131608, Note_off_c, 10, 52, 64
21, 131694, Note_on_c, 10, 54, 64
21, 131747, Note_off_c, 10, 54, 64
21, 131755, Note_on_c, 10, 55, 82
21, 131846, Note_off_c, 10, 55, 64
21, 131942, Note_on_c, 10, 57, 78
21, 131980, Note_off_c, 10, 57, 64
21, 132005, Note_on_c, 10, 59, 89
21, 132130, Note_off_c, 10, 59, 64
21, 132166, Note_on_c, 10, 57, 64
21, 132194, Note_on_c, 10, 56, 82
21, 132204, Note_off_c, 10, 57, 64
21, 132220, Note_off_c, 10, 56, 64
21, 132228, Note_on_c, 10, 57, 89
21, 132319, Note_off_c, 10, 57, 64
21, 132421, Note_on_c, 10, 59, 87
21, 132456, Note_off_c, 10, 59, 64
21, 132476, Note_on_c, 10, 56, 85
21, 132985, Note_off_c, 10, 56, 64
21, 133004, Note_on_c, 10, 54, 72
21, 133044, Note_off_c, 10, 54, 64
21, 133060, Note_on_c, 10, 52, 82
21, 133100, Note_off_c, 10, 52, 64
21, 133122, Note_on_c, 10, 54, 89
21, 133162, Note_off_c, 10, 54, 64
21, 133186, Note_on_c, 10, 56, 98
21, 133229, Note_off_c, 10, 56, 64
21, 133243, Note_on_c, 10, 54, 87
21, 133284, Note_off_c, 10, 54, 64
21, 133305, Note_on_c, 10, 56, 89
21, 133348, Note_off_c, 10, 56, 64
21, 133364, Note_on_c, 10, 52, 85
21, 133412, Note_off_c, 10, 52, 64
21, 133438, Note_on_c, 10, 57, 87
21, 133948, Note_off_c, 10, 57, 64
21, 133975, Note_on_c, 10, 55, 82
21, 134017, Note_off_c, 10, 55, 64
21, 134032, Note_on_c, 10, 54, 82
21, 134073, Note_off_c, 10, 54, 64
21, 134086, Note_on_c, 10, 55, 82
21, 134131, Note_off_c, 10, 55, 64
21, 134150, Note_on_c, 10, 57, 85
21, 134190, Note_off_c, 10, 57, 64
21, 134207, Note_on_c, 10, 55, 93
21, 134244, Note_off_c, 10, 55, 64
21, 134266, Note_on_c, 10, 57, 82
21, 134306, Note_off_c, 10, 57, 64
21, 134323, Note_on_c, 10, 54, 89
21, 134371, Note_off_c, 10, 54, 64
21, 134395, Note_on_c, 10, 59, 89
21, 134902, Note_off_c, 10, 59, 64
21, 134926, Note_on_c, 10, 60, 82
21, 134967, Note_off_c, 10, 60, 64
21, 134984, Note_on_c, 10, 59, 87
21, 135020, Note_off_c, 10, 59, 64
21, 135043, Note_on_c, 10, 57, 85
21, 135087, Note_off_c, 10, 57, 64
21, 135102, Note_on_c, 10, 55, 82
21, 135144, Note_off_c, 10, 55, 64
21, 135167, Note_on_c, 10, 54, 91
21, 135205, Note_off_c, 10, 54, 64
21, 135227, Note_on_c, 10, 52, 87
21, 135269, Note_off_c, 10, 52, 64
21, 135284, Note_on_c, 10, 50, 95
21, 135334, Note_off_c, 10, 50, 64
21, 135355, Note_on_c, 10, 49, 80
21, 135849, Note_off_c, 10, 49, 64
21, 135886, Note_on_c, 10, 50, 78
21, 135925, Note_off_c, 10, 50, 64
21, 135948, Note_on_c, 10, 49, 82
21, 135989, Note_off_c, 10, 49, 64
21, 136004, Note_on_c, 10, 47, 85
21, 136052, Note_off_c, 10, 47, 64
21, 136069, Note_on_c, 10, 45, 82
21, 136111, Note_off_c, 10, 45, 64
21, 136127, Note_on_c, 10, 47, 93
21, 136168, Note_off_c, 10, 47, 64
21, 136184, Note_on_c, 10, 49, 100
21, 136229, Note_off_c, 10, 49, 64
21, 136243, Note_on_c, 10, 45, 95
21, 136286, Note_off_c, 10, 45, 64
21, 136318, Note_on_c, 10, 50, 82
21, 136818, Note_off_c, 10, 50, 64
21, 136846, Note_on_c, 10, 52, 87
21, 136885, Note_off_c, 10, 52, 64
21, 136907, Note_on_c, 10, 50, 91
21, 136951, Note_off_c, 10, 50, 64
21, 136967, Note_on_c, 10, 48, 82
21, 137006, Note_off_c, 10, 48, 64
21, 137021, Note_on_c, 10, 47, 87
21, 137079, Note_off_c, 10, 47, 64
21, 137082, Note_on_c, 10, 45, 87
21, 137121, Note_off_c, 10, 45, 64
21, 137142, Note_on_c, 10, 43, 91
21, 137188, Note_off_c, 10, 43, 64
21, 137208, Note_on_c, 10, 42, 78
21, 137246, Note_off_c, 10, 42, 64
21, 137280, Note_on_c, 10, 43, 98
21, 138495, Note_off_c, 10, 43, 64
21, 145551, Note_on_c, 10, 50, 82
21, 145599, Note_on_c, 10, 52, 80
21, 145607, Note_off_c, 10, 50, 64
21, 145651, Note_off_c, 10, 52, 64
21, 145660, Note_on_c, 10, 54, 80
21, 145731, Note_off_c, 10, 54, 64
21, 145785, Note_on_c, 10, 54, 66
21, 145832, Note_on_c, 10, 55, 78
21, 145836, Note_off_c, 10, 54, 64
21, 145876, Note_off_c, 10, 55, 64
21, 145894, Note_on_c, 10, 57, 95
21, 145964, Note_off_c, 10, 57, 64
21, 146017, Note_on_c, 10, 54, 64
21, 146069, Note_off_c, 10, 54, 64
21, 146071, Note_on_c, 10, 55, 70
21, 146128, Note_off_c, 10, 55, 64
21, 146142, Note_on_c, 10, 57, 87
21, 146218, Note_off_c, 10, 57, 64
21, 146275, Note_on_c, 10, 57, 66
21, 146326, Note_on_c, 10, 59, 85
21, 146335, Note_off_c, 10, 57, 64
21, 146376, Note_off_c, 10, 59, 64
21, 146388, Note_on_c, 10, 60, 85
21, 146456, Note_off_c, 10, 60, 64
21, 146516, Note_on_c, 10, 60, 85
21, 146566, Note_on_c, 10, 59, 80
21, 146575, Note_off_c, 10, 60, 64
21, 146612, Note_off_c, 10, 59, 64
21, 146626, Note_on_c, 10, 60, 91
21, 146685, Note_off_c, 10, 60, 64
21, 146754, Note_on_c, 10, 62, 85
21, 146804, Note_on_c, 10, 60, 80
21, 146816, Note_off_c, 10, 62, 64
21, 146852, Note_off_c, 10, 60, 64
21, 146873, Note_on_c, 10, 59, 98
21, 146936, Note_off_c, 10, 59, 64
21, 146992, Note_on_c, 10, 52, 70
21, 147044, Note_on_c, 10, 54, 64
21, 147056, Note_off_c, 10, 52, 64
21, 147089, Note_off_c, 10, 54, 64
21, 147105, Note_on_c, 10, 56, 95
21, 147172, Note_off_c, 10, 56, 64
21, 147237, Note_on_c, 10, 56, 70
21, 147287, Note_on_c, 10, 57, 80
21, 147290, Note_off_c, 10, 56, 64
21, 147331, Note_off_c, 10, 57, 64
21, 147346, Note_on_c, 10, 59, 98
21, 147418, Note_off_c, 10, 59, 64
21, 147464, Note_on_c, 10, 56, 66
21, 147512, Note_off_c, 10, 56, 64
21, 147515, Note_on_c, 10, 57, 72
21, 147560, Note_off_c, 10, 57, 64
21, 147580, Note_on_c, 10, 59, 80
21, 147644, Note_off_c, 10, 59, 64
21, 147710, Note_on_c, 10, 59, 68
21, 147759, Note_on_c, 10, 61, 80
21, 147775, Note_off_c, 10, 59, 64
21, 147804, Note_off_c, 10, 61, 64
21, 147822, Note_on_c, 10, 62, 91
21, 147902, Note_off_c, 10, 62, 64
21, 147944, Note_on_c, 10, 62, 82
21, 147993, Note_on_c, 10, 61, 78
21, 148007, Note_off_c, 10, 62, 64
21, 148043, Note_off_c, 10, 61, 64
21, 148058, Note_on_c, 10, 62, 85
21, 148140, Note_off_c, 10, 62, 64
21, 148182, Note_on_c, 10, 64, 78
21, 148236, Note_on_c, 10, 62, 80
21, 148253, Note_off_c, 10, 64, 64
21, 148286, Note_off_c, 10, 62, 64
21, 148305, Note_on_c, 10, 61, 76
21, 148363, Note_off_c, 10, 61, 64
21, 148429, Note_on_c, 10, 64, 87
21, 148472, Note_off_c, 10, 64, 64
21, 148548, Note_on_c, 10, 57, 85
21, 148597, Note_off_c, 10, 57, 64
21, 148660, Note_on_c, 10, 61, 82
21, 148842, Note_off_c, 10, 61, 64
21, 148903, Note_on_c, 10, 64, 82
21, 148954, Note_off_c, 10, 64, 64
21, 149025, Note_on_c, 10, 55, 80
21, 149079, Note_off_c, 10, 55, 64
21, 149150, Note_on_c, 10, 61, 87
21, 149334, Note_off_c, 10, 61, 64
21, 149386, Note_on_c, 10, 64, 93
21, 149442, Note_off_c, 10, 64, 64
21, 149505, Note_on_c, 10, 57, 80
21, 149568, Note_off_c, 10, 57, 64
21, 149624, Note_on_c, 10, 61, 85
21, 149673, Note_off_c, 10, 61, 64
21, 149747, Note_on_c, 10, 50, 98
21, 149806, Note_off_c, 10, 50, 64
21, 149869, Note_on_c, 10, 62, 89
21, 149923, Note_off_c, 10, 62, 64
21, 149995, Note_on_c, 10, 55, 87
21, 150049, Note_off_c, 10, 55, 64
21, 150112, Note_on_c, 10, 59, 87
21, 150173, Note_off_c, 10, 59, 64
21, 150236, Note_on_c, 10, 49, 95
21, 150296, Note_off_c, 10, 49, 64
21, 150348, Note_on_c, 10, 61, 76
21, 150412, Note_off_c, 10, 61, 64
21, 150476, Note_on_c, 10, 54, 82
21, 150537, Note_off_c, 10, 54, 64
21, 150591, Note_on_c, 10, 58, 78
21, 150647, Note_off_c, 10, 58, 64
21, 150712, Note_on_c, 10, 47, 85
21, 150779, Note_off_c, 10, 47, 64
21, 150826, Note_on_c, 10, 59, 87
21, 150891, Note_off_c, 10, 59, 64
21, 150950, Note_on_c, 10, 57, 80
21, 151012, Note_off_c, 10, 57, 64
21, 151069, Note_on_c, 10, 55, 70
21, 151156, Note_off_c, 10, 55, 64
21, 151191, Note_on_c, 10, 54, 58
21, 151268, Note_off_c, 10, 54, 64
21, 151318, Note_on_c, 10, 59, 100
21, 151383, Note_off_c, 10, 59, 64
21, 151433, Note_on_c, 10, 57, 68
21, 151497, Note_off_c, 10, 57, 64
21, 151546, Note_on_c, 10, 55, 85
21, 151610, Note_off_c, 10, 55, 64
21, 151666, Note_on_c, 10, 54, 87
21, 151739, Note_off_c, 10, 54, 64
21, 151783, Note_on_c, 10, 57, 80
21, 151851, Note_off_c, 10, 57, 64
21, 151904, Note_on_c, 10, 50, 82
21, 151966, Note_off_c, 10, 50, 64
21, 152011, Note_on_c, 10, 54, 76
21, 152075, Note_off_c, 10, 54, 64
21, 152146, Note_on_c, 10, 43, 95
21, 152203, Note_off_c, 10, 43, 64
21, 152265, Note_on_c, 10, 55, 87
21, 152331, Note_off_c, 10, 55, 64
21, 152389, Note_on_c, 10, 49, 74
21, 152461, Note_off_c, 10, 49, 64
21, 152508, Note_on_c, 10, 52, 85
21, 152567, Note_off_c, 10, 52, 64
21, 152624, Note_on_c, 10, 42, 68
21, 152708, Note_off_c, 10, 42, 64
21, 152742, Note_on_c, 10, 54, 80
21, 152811, Note_off_c, 10, 54, 64
21, 152864, Note_on_c, 10, 47, 87
21, 152929, Note_off_c, 10, 47, 64
21, 152978, Note_on_c, 10, 50, 87
21, 153038, Note_off_c, 10, 50, 64
21, 153101, Note_on_c, 10, 40, 82
21, 153164, Note_off_c, 10, 40, 64
21, 153220, Note_on_c, 10, 45, 85
21, 153280, Note_off_c, 10, 45, 64
21, 153335, Note_on_c, 10, 50, 91
21, 153395, Note_off_c, 10, 50, 64
21, 153456, Note_on_c, 10, 38, 91
21, 153503, Note_off_c, 10, 38, 64
21, 153577, Note_on_c, 10, 45, 89
21, 153654, Note_off_c, 10, 45, 64
21, 153708, Note_on_c, 10, 45, 85
21, 153755, Note_on_c, 10, 47, 74
21, 153762, Note_off_c, 10, 45, 64
21, 153804, Note_off_c, 10, 47, 64
21, 153812, Note_on_c, 10, 49, 100
21, 153890, Note_off_c, 10, 49, 64
21, 153949, Note_on_c, 10, 49, 76
21, 153996, Note_on_c, 10, 50, 82
21, 154002, Note_off_c, 10, 49, 64
21, 154043, Note_off_c, 10, 50, 64
21, 154059, Note_on_c, 10, 52, 95
21, 154138, Note_off_c, 10, 52, 64
21, 154184, Note_on_c, 10, 49, 74
21, 154234, Note_off_c, 10, 49, 64
21, 154242, Note_on_c, 10, 50, 87
21, 154290, Note_off_c, 10, 50, 64
21, 154304, Note_on_c, 10, 52, 85
21, 154384, Note_off_c, 10, 52, 64
21, 154426, Note_on_c, 10, 52, 82
21, 154476, Note_on_c, 10, 54, 95
21, 154478, Note_off_c, 10, 52, 64
21, 154521, Note_off_c, 10, 54, 64
21, 154534, Note_on_c, 10, 55, 89
21, 154617, Note_off_c, 10, 55, 64
21, 154661, Note_on_c, 10, 55, 82
21, 154714, Note_on_c, 10, 54, 95
21, 154716, Note_off_c, 10, 55, 64
21, 154759, Note_off_c, 10, 54, 64
21, 154776, Note_on_c, 10, 55, 85
21, 154858, Note_off_c, 10, 55, 64
21, 154905, Note_on_c, 10, 57, 89
21, 154956, Note_on_c, 10, 55, 82
21, 154966, Note_off_c, 10, 57, 64
21, 154994, Note_off_c, 10, 55, 64
21, 155014, Note_on_c, 10, 54, 80
21, 155091, Note_off_c, 10, 54, 64
21, 155143, Note_on_c, 10, 54, 95
21, 155186, Note_off_c, 10, 54, 64
21, 155193, Note_on_c, 10, 52, 85
21, 155239, Note_off_c, 10, 52, 64
21, 155265, Note_on_c, 10, 54, 91
21, 155347, Note_off_c, 10, 54, 64
21, 155388, Note_on_c, 10, 55, 85
21, 155439, Note_on_c, 10, 54, 93
21, 155443, Note_off_c, 10, 55, 64
21, 155491, Note_off_c, 10, 54, 64
21, 155504, Note_on_c, 10, 52, 87
21, 155573, Note_off_c, 10, 52, 64
21, 155629, Note_on_c, 10, 52, 85
21, 155674, Note_on_c, 10, 50, 68
21, 155676, Note_off_c, 10, 52, 64
21, 155724, Note_off_c, 10, 50, 64
21, 155742, Note_on_c, 10, 52, 89
21, 155812, Note_off_c, 10, 52, 64
21, 155868, Note_on_c, 10, 54, 89
21, 155923, Note_on_c, 10, 52, 82
21, 155931, Note_off_c, 10, 54, 64
21, 155970, Note_off_c, 10, 52, 64
21, 155988, Note_on_c, 10, 50, 89
21, 156040, Note_on_c, 10, 52, 78
21, 156052, Note_off_c, 10, 50, 64
21, 156088, Note_off_c, 10, 52, 64
21, 156099, Note_on_c, 10, 54, 85
21, 156158, Note_on_c, 10, 50, 76
21, 156160, Note_off_c, 10, 54, 64
21, 156199, Note_off_c, 10, 50, 64
21, 156224, Note_on_c, 10, 55, 93
21, 156279, Note_off_c, 10, 55, 64
21, 156279, Note_on_c, 10, 57, 82
21, 156322, Note_off_c, 10, 57, 64
21, 156335, Note_on_c, 10, 54, 76
21, 156381, Note_off_c, 10, 54, 64
21, 156396, Note_on_c, 10, 55, 82
21, 156442, Note_off_c, 10, 55, 64
21, 156468, Note_on_c, 10, 57, 100
21, 156540, Note_off_c, 10, 57, 64
21, 156591, Note_on_c, 10, 55, 80
21, 156656, Note_off_c, 10, 55, 64
21, 156716, Note_on_c, 10, 54, 78
21, 156774, Note_off_c, 10, 54, 64
21, 156827, Note_on_c, 10, 52, 76
21, 156880, Note_off_c, 10, 52, 64
21, 156948, Note_on_c, 10, 50, 85
21, 157011, Note_off_c, 10, 50, 64
21, 157069, Note_on_c, 10, 55, 87
21, 157132, Note_off_c, 10, 55, 64
21, 157193, Note_on_c, 10, 57, 95
21, 157241, Note_off_c, 10, 57, 64
21, 157317, Note_on_c, 10, 45, 91
21, 157372, Note_off_c, 10, 45, 64
21, 157442, Note_on_c, 10, 50, 105
21, 157691, Note_off_c, 10, 50, 64
21, 172791, Note_on_c, 10, 45, 85
21, 172872, Note_off_c, 10, 45, 64
21, 172921, Note_on_c, 10, 45, 85
21, 172968, Note_on_c, 10, 47, 89
21, 172976, Note_off_c, 10, 45, 64
21, 173024, Note_off_c, 10, 47, 64
21, 173030, Note_on_c, 10, 49, 100
21, 173097, Note_off_c, 10, 49, 64
21, 173153, Note_on_c, 10, 49, 62
21, 173203, Note_on_c, 10, 50, 82
21, 173206, Note_off_c, 10, 49, 64
21, 173247, Note_off_c, 10, 50, 64
21, 173265, Note_on_c, 10, 52, 95
21, 173333, Note_off_c, 10, 52, 64
21, 173399, Note_on_c, 10, 49, 80
21, 173450, Note_off_c, 10, 49, 64
21, 173452, Note_on_c, 10, 50, 87
21, 173498, Note_off_c, 10, 50, 64
21, 173513, Note_on_c, 10, 52, 89
21, 173586, Note_off_c, 10, 52, 64
21, 173633, Note_on_c, 10, 52, 85
21, 173678, Note_on_c, 10, 54, 85
21, 173684, Note_off_c, 10, 52, 64
21, 173722, Note_off_c, 10, 54, 64
21, 173739, Note_on_c, 10, 55, 95
21, 173815, Note_off_c, 10, 55, 64
21, 173865, Note_on_c, 10, 55, 82
21, 173919, Note_off_c, 10, 55, 64
21, 173919, Note_on_c, 10, 54, 95
21, 173965, Note_off_c, 10, 54, 64
21, 173982, Note_on_c, 10, 55, 93
21, 174055, Note_off_c, 10, 55, 64
21, 174106, Note_on_c, 10, 57, 98
21, 174157, Note_on_c, 10, 55, 78
21, 174169, Note_off_c, 10, 57, 64
21, 174201, Note_off_c, 10, 55, 64
21, 174220, Note_on_c, 10, 54, 64
21, 174298, Note_off_c, 10, 54, 64
21, 174353, Note_on_c, 10, 47, 76
21, 174399, Note_on_c, 10, 49, 72
21, 174410, Note_off_c, 10, 47, 64
21, 174450, Note_off_c, 10, 49, 64
21, 174465, Note_on_c, 10, 51, 100
21, 174533, Note_off_c, 10, 51, 64
21, 174585, Note_on_c, 10, 51, 68
21, 174638, Note_on_c, 10, 52, 70
21, 174645, Note_off_c, 10, 51, 64
21, 174685, Note_off_c, 10, 52, 64
21, 174703, Note_on_c, 10, 54, 107
21, 174772, Note_off_c, 10, 54, 64
21, 174830, Note_on_c, 10, 51, 87
21, 174882, Note_on_c, 10, 52, 82
21, 174888, Note_off_c, 10, 51, 64
21, 174937, Note_off_c, 10, 52, 64
21, 174940, Note_on_c, 10, 54, 89
21, 175028, Note_off_c, 10, 54, 64
21, 175068, Note_on_c, 10, 54, 78
21, 175118, Note_on_c, 10, 56, 95
21, 175130, Note_off_c, 10, 54, 64
21, 175164, Note_off_c, 10, 56, 64
21, 175177, Note_on_c, 10, 57, 91
21, 175257, Note_off_c, 10, 57, 64
21, 175304, Note_on_c, 10, 57, 89
21, 175357, Note_on_c, 10, 56, 98
21, 175362, Note_off_c, 10, 57, 64
21, 175408, Note_off_c, 10, 56, 64
21, 175421, Note_on_c, 10, 57, 89
21, 175496, Note_off_c, 10, 57, 64
21, 175550, Note_on_c, 10, 59, 87
21, 175605, Note_on_c, 10, 57, 87
21, 175616, Note_off_c, 10, 59, 64
21, 175656, Note_off_c, 10, 57, 64
21, 175667, Note_on_c, 10, 56, 98
21, 175724, Note_off_c, 10, 56, 64
21, 175792, Note_on_c, 10, 59, 89
21, 175836, Note_off_c, 10, 59, 64
21, 175916, Note_on_c, 10, 52, 82
21, 175965, Note_off_c, 10, 52, 64
21, 176031, Note_on_c, 10, 56, 82
21, 176207, Note_off_c, 10, 56, 64
21, 176266, Note_on_c, 10, 59, 87
21, 176312, Note_off_c, 10, 59, 64
21, 176393, Note_on_c, 10, 50, 80
21, 176437, Note_off_c, 10, 50, 64
21, 176509, Note_on_c, 10, 56, 82
21, 176678, Note_off_c, 10, 56, 64
21, 176747, Note_on_c, 10, 59, 91
21, 176793, Note_off_c, 10, 59, 64
21, 176868, Note_on_c, 10, 52, 78
21, 176923, Note_off_c, 10, 52, 64
21, 176981, Note_on_c, 10, 56, 82
21, 177038, Note_off_c, 10, 56, 64
21, 177104, Note_on_c, 10, 45, 87
21, 177155, Note_off_c, 10, 45, 64
21, 177222, Note_on_c, 10, 57, 93
21, 177282, Note_off_c, 10, 57, 64
21, 177344, Note_on_c, 10, 50, 82
21, 177399, Note_off_c, 10, 50, 64
21, 177459, Note_on_c, 10, 54, 78
21, 177521, Note_off_c, 10, 54, 64
21, 177587, Note_on_c, 10, 44, 82
21, 177648, Note_off_c, 10, 44, 64
21, 177702, Note_on_c, 10, 56, 95
21, 177759, Note_off_c, 10, 56, 64
21, 177828, Note_on_c, 10, 49, 80
21, 177888, Note_off_c, 10, 49, 64
21, 177949, Note_on_c, 10, 53, 85
21, 178012, Note_off_c, 10, 53, 64
21, 178069, Note_on_c, 10, 42, 82
21, 178137, Note_off_c, 10, 42, 64
21, 178188, Note_on_c, 10, 54, 82
21, 178244, Note_off_c, 10, 54, 64
21, 178311, Note_on_c, 10, 52, 82
21, 178371, Note_off_c, 10, 52, 64
21, 178429, Note_on_c, 10, 50, 76
21, 178498, Note_off_c, 10, 50, 64
21, 178549, Note_on_c, 10, 49, 68
21, 178617, Note_off_c, 10, 49, 64
21, 178666, Note_on_c, 10, 54, 102
21, 178728, Note_off_c, 10, 54, 64
21, 178778, Note_on_c, 10, 52, 80
21, 178843, Note_off_c, 10, 52, 64
21, 178897, Note_on_c, 10, 50, 74
21, 178957, Note_off_c, 10, 50, 64
21, 179017, Note_on_c, 10, 49, 102
21, 179086, Note_off_c, 10, 49, 64
21, 179147, Note_on_c, 10, 52, 89
21, 179202, Note_off_c, 10, 52, 64
21, 179264, Note_on_c, 10, 45, 89
21, 179328, Note_off_c, 10, 45, 64
21, 179387, Note_on_c, 10, 49, 82
21, 179440, Note_off_c, 10, 49, 64
21, 179510, Note_on_c, 10, 50, 98
21, 179569, Note_off_c, 10, 50, 64
21, 179636, Note_on_c, 10, 62, 95
21, 179692, Note_off_c, 10, 62, 64
21, 179760, Note_on_c, 10, 55, 89
21, 179808, Note_off_c, 10, 55, 64
21, 179880, Note_on_c, 10, 59, 89
21, 179934, Note_off_c, 10, 59, 64
21, 179991, Note_on_c, 10, 49, 87
21, 180048, Note_off_c, 10, 49, 64
21, 180112, Note_on_c, 10, 61, 78
21, 180170, Note_off_c, 10, 61, 64
21, 180228, Note_on_c, 10, 54, 87
21, 180277, Note_off_c, 10, 54, 64
21, 180349, Note_on_c, 10, 58, 85
21, 180395, Note_off_c, 10, 58, 64
21, 180467, Note_on_c, 10, 47, 93
21, 180530, Note_off_c, 10, 47, 64
21, 180587, Note_on_c, 10, 59, 100
21, 180644, Note_off_c, 10, 59, 64
21, 180712, Note_on_c, 10, 52, 82
21, 180768, Note_off_c, 10, 52, 64
21, 180825, Note_on_c, 10, 55, 89
21, 180883, Note_off_c, 10, 55, 64
21, 180957, Note_on_c, 10, 54, 102
21, 181028, Note_off_c, 10, 54, 64
21, 181071, Note_on_c, 10, 42, 76
21, 181119, Note_on_c, 10, 44, 80
21, 181131, Note_off_c, 10, 42, 64
21, 181166, Note_off_c, 10, 44, 64
21, 181185, Note_on_c, 10, 46, 102
21, 181250, Note_off_c, 10, 46, 64
21, 181311, Note_on_c, 10, 46, 80
21, 181352, Note_on_c, 10, 47, 82
21, 181364, Note_off_c, 10, 46, 64
21, 181398, Note_off_c, 10, 47, 64
21, 181421, Note_on_c, 10, 49, 102
21, 181515, Note_off_c, 10, 49, 64
21, 181547, Note_on_c, 10, 46, 74
21, 181598, Note_on_c, 10, 47, 80
21, 181609, Note_off_c, 10, 46, 64
21, 181652, Note_off_c, 10, 47, 64
21, 181663, Note_on_c, 10, 49, 95
21, 181725, Note_off_c, 10, 49, 64
21, 181793, Note_on_c, 10, 49, 80
21, 181844, Note_off_c, 10, 49, 64
21, 181849, Note_on_c, 10, 50, 80
21, 181901, Note_off_c, 10, 50, 64
21, 181909, Note_on_c, 10, 52, 100
21, 181982, Note_off_c, 10, 52, 64
21, 182039, Note_on_c, 10, 52, 82
21, 182087, Note_on_c, 10, 50, 78
21, 182094, Note_off_c, 10, 52, 64
21, 182136, Note_off_c, 10, 50, 64
21, 182151, Note_on_c, 10, 52, 89
21, 182234, Note_off_c, 10, 52, 64
21, 182272, Note_on_c, 10, 54, 70
21, 182326, Note_on_c, 10, 52, 78
21, 182334, Note_off_c, 10, 54, 64
21, 182371, Note_off_c, 10, 52, 64
21, 182383, Note_on_c, 10, 50, 78
21, 182451, Note_off_c, 10, 50, 64
21, 182510, Note_on_c, 10, 50, 80
21, 182551, Note_off_c, 10, 50, 64
21, 182562, Note_on_c, 10, 49, 70
21, 182603, Note_off_c, 10, 49, 64
21, 182625, Note_on_c, 10, 50, 82
21, 182724, Note_off_c, 10, 50, 64
21, 182749, Note_on_c, 10, 52, 70
21, 182787, Note_off_c, 10, 52, 64
21, 182799, Note_on_c, 10, 50, 82
21, 182841, Note_off_c, 10, 50, 64
21, 182859, Note_on_c, 10, 49, 85
21, 182929, Note_off_c, 10, 49, 64
21, 182986, Note_on_c, 10, 49, 95
21, 183028, Note_off_c, 10, 49, 64
21, 183031, Note_on_c, 10, 47, 85
21, 183076, Note_off_c, 10, 47, 64
21, 183095, Note_on_c, 10, 49, 102
21, 183184, Note_off_c, 10, 49, 64
21, 183222, Note_on_c, 10, 50, 85
21, 183276, Note_off_c, 10, 50, 64
21, 183277, Note_on_c, 10, 49, 85
21, 183316, Note_off_c, 10, 49, 64
21, 183340, Note_on_c, 10, 47, 87
21, 183392, Note_on_c, 10, 49, 89
21, 183407, Note_off_c, 10, 47, 64
21, 183444, Note_off_c, 10, 49, 64
21, 183448, Note_on_c, 10, 50, 82
21, 183484, Note_off_c, 10, 50, 64
21, 183501, Note_on_c, 10, 47, 82
21, 183539, Note_off_c, 10, 47, 64
21, 183571, Note_on_c, 10, 52, 82
21, 183621, Note_off_c, 10, 52, 64
21, 183627, Note_on_c, 10, 54, 85
21, 183673, Note_off_c, 10, 54, 64
21, 183690, Note_on_c, 10, 55, 82
21, 183732, Note_off_c, 10, 55, 64
21, 183751, Note_on_c, 10, 52, 85
21, 183787, Note_off_c, 10, 52, 64
21, 183824, Note_on_c, 10, 54, 98
21, 184073, Note_off_c, 10, 54, 64
21, 184181, Note_on_c, 10, 52, 87
21, 184230, Note_off_c, 10, 52, 64
21, 184304, Note_on_c, 10, 50, 87
21, 184364, Note_off_c, 10, 50, 64
21, 184422, Note_on_c, 10, 54, 76
21, 184476, Note_off_c, 10, 54, 64
21, 184547, Note_on_c, 10, 59, 87
21, 184593, Note_off_c, 10, 59, 64
21, 184664, Note_on_c, 10, 54, 80
21, 184737, Note_off_c, 10, 54, 64
21, 184790, Note_on_c, 10, 55, 82
21, 184846, Note_off_c, 10, 55, 64
21, 184908, Note_on_c, 10, 52, 78
21, 184962, Note_off_c, 10, 52, 64
21, 185040, Note_on_c, 10, 54, 98
21, 185092, Note_off_c, 10, 54, 64
21, 185159, Note_on_c, 10, 42, 78
21, 185203, Note_off_c, 10, 42, 64
21, 185286, Note_on_c, 10, 47, 80
21, 185536, Note_off_c, 10, 47, 64
21, 200262, Note_on_c, 10, 50, 91
21, 200329, Note_off_c, 10, 50, 64
21, 200376, Note_on_c, 10, 38, 98
21, 200453, Note_off_c, 10, 38, 64
21, 200502, Note_on_c, 10, 42, 102
21, 200553, Note_off_c, 10, 42, 64
21, 200622, Note_on_c, 10, 43, 98
21, 200690, Note_off_c, 10, 43, 64
21, 200735, Note_on_c, 10, 42, 78
21, 200805, Note_off_c, 10, 42, 64
21, 200863, Note_on_c, 10, 43, 93
21, 200935, Note_off_c, 10, 43, 64
21, 200986, Note_on_c, 10, 45, 91
21, 201045, Note_off_c, 10, 45, 64
21, 201104, Note_on_c, 10, 47, 95
21, 201166, Note_off_c, 10, 47, 64
21, 201224, Note_on_c, 10, 45, 68
21, 201291, Note_off_c, 10, 45, 64
21, 201344, Note_on_c, 10, 47, 74
21, 201411, Note_off_c, 10, 47, 64
21, 201464, Note_on_c, 10, 49, 78
21, 201531, Note_off_c, 10, 49, 64
21, 201582, Note_on_c, 10, 50, 82
21, 201656, Note_off_c, 10, 50, 64
21, 201701, Note_on_c, 10, 49, 62
21, 201767, Note_off_c, 10, 49, 64
21, 201815, Note_on_c, 10, 50, 66
21, 201882, Note_off_c, 10, 50, 64
21, 201936, Note_on_c, 10, 52, 82
21, 202008, Note_off_c, 10, 52, 64
21, 202061, Note_on_c, 10, 54, 82
21, 202133, Note_off_c, 10, 54, 64
21, 202176, Note_on_c, 10, 52, 60
21, 202256, Note_off_c, 10, 52, 64
21, 202292, Note_on_c, 10, 54, 56
21, 202369, Note_off_c, 10, 54, 64
21, 202414, Note_on_c, 10, 55, 80
21, 202498, Note_off_c, 10, 55, 64
21, 202542, Note_on_c, 10, 57, 80
21, 202641, Note_off_c, 10, 57, 64
21, 202661, Note_on_c, 10, 57, 74
21, 202756, Note_off_c, 10, 57, 64
21, 202781, Note_on_c, 10, 57, 78
21, 202880, Note_off_c, 10, 57, 64
21, 202901, Note_on_c, 10, 57, 70
21, 202989, Note_off_c, 10, 57, 64
21, 203017, Note_on_c, 10, 57, 85
21, 203113, Note_off_c, 10, 57, 64
21, 203136, Note_on_c, 10, 57, 68
21, 203227, Note_off_c, 10, 57, 64
21, 203258, Note_on_c, 10, 57, 76
21, 203332, Note_off_c, 10, 57, 64
21, 203380, Note_on_c, 10, 57, 89
21, 203460, Note_off_c, 10, 57, 64
21, 203500, Note_on_c, 10, 57, 93
21, 203594, Note_off_c, 10, 57, 64
21, 203620, Note_on_c, 10, 52, 80
21, 203700, Note_off_c, 10, 52, 64
21, 203738, Note_on_c, 10, 49, 74
21, 203815, Note_off_c, 10, 49, 64
21, 203860, Note_on_c, 10, 45, 87
21, 203931, Note_off_c, 10, 45, 64
21, 203991, Note_on_c, 10, 50, 68
21, 204089, Note_off_c, 10, 50, 64
21, 204112, Note_on_c, 10, 62, 66
21, 204202, Note_off_c, 10, 62, 64
21, 204228, Note_on_c, 10, 62, 78
21, 204328, Note_off_c, 10, 62, 64
21, 204349, Note_on_c, 10, 62, 82
21, 204444, Note_off_c, 10, 62, 64
21, 204469, Note_on_c, 10, 62, 89
21, 204573, Note_off_c, 10, 62, 64
21, 204588, Note_on_c, 10, 62, 78
21, 204683, Note_off_c, 10, 62, 64
21, 204704, Note_on_c, 10, 62, 82
21, 204790, Note_off_c, 10, 62, 64
21, 204821, Note_on_c, 10, 62, 85
21, 204910, Note_off_c, 10, 62, 64
21, 204945, Note_on_c, 10, 62, 93
21, 205044, Note_off_c, 10, 62, 64
21, 205068, Note_on_c, 10, 57, 85
21, 205159, Note_off_c, 10, 57, 64
21, 205184, Note_on_c, 10, 54, 68
21, 205269, Note_off_c, 10, 54, 64
21, 205303, Note_on_c, 10, 50, 78
21, 205375, Note_off_c, 10, 50, 64
21, 205429, Note_on_c, 10, 55, 70
21, 205526, Note_off_c, 10, 55, 64
21, 205551, Note_on_c, 10, 64, 80
21, 205655, Note_off_c, 10, 64, 64
21, 205671, Note_on_c, 10, 64, 85
21, 205766, Note_off_c, 10, 64, 64
21, 205791, Note_on_c, 10, 64, 87
21, 205878, Note_off_c, 10, 64, 64
21, 205912, Note_on_c, 10, 64, 95
21, 206007, Note_off_c, 10, 64, 64
21, 206030, Note_on_c, 10, 59, 85
21, 206116, Note_off_c, 10, 59, 64
21, 206149, Note_on_c, 10, 56, 68
21, 206243, Note_off_c, 10, 56, 64
21, 206271, Note_on_c, 10, 52, 80
21, 206335, Note_off_c, 10, 52, 64
21, 206389, Note_on_c, 10, 57, 82
21, 206633, Note_off_c, 10, 57, 64
21, 206880, Note_on_c, 10, 45, 74
21, 207119, Note_off_c, 10, 45, 64
21, 207339, Note_on_c, 10, 57, 74
21, 207589, Note_off_c, 10, 57, 64
21, 207945, Note_on_c, 10, 50, 85
21, 207993, Note_on_c, 10, 52, 80
21, 207997, Note_off_c, 10, 50, 64
21, 208050, Note_on_c, 10, 54, 95
21, 208063, Note_off_c, 10, 52, 64
21, 208107, Note_off_c, 10, 54, 64
21, 208171, Note_on_c, 10, 54, 60
21, 208221, Note_off_c, 10, 54, 64
21, 208221, Note_on_c, 10, 55, 80
21, 208273, Note_off_c, 10, 55, 64
21, 208285, Note_on_c, 10, 57, 93
21, 208354, Note_off_c, 10, 57, 64
21, 208416, Note_on_c, 10, 54, 58
21, 208472, Note_off_c, 10, 54, 64
21, 208472, Note_on_c, 10, 55, 80
21, 208531, Note_on_c, 10, 57, 87
21, 208533, Note_off_c, 10, 55, 64
21, 208593, Note_off_c, 10, 57, 64
21, 208662, Note_on_c, 10, 57, 85
21, 208709, Note_on_c, 10, 59, 82
21, 208717, Note_off_c, 10, 57, 64
21, 208754, Note_off_c, 10, 59, 64
21, 208773, Note_on_c, 10, 60, 89
21, 208844, Note_off_c, 10, 60, 64
21, 208897, Note_on_c, 10, 60, 78
21, 208950, Note_on_c, 10, 59, 80
21, 208952, Note_off_c, 10, 60, 64
21, 208998, Note_off_c, 10, 59, 64
21, 209014, Note_on_c, 10, 60, 95
21, 209075, Note_off_c, 10, 60, 64
21, 209150, Note_on_c, 10, 62, 87
21, 209203, Note_on_c, 10, 60, 78
21, 209214, Note_off_c, 10, 62, 64
21, 209251, Note_off_c, 10, 60, 64
21, 209266, Note_on_c, 10, 59, 87
21, 209334, Note_off_c, 10, 59, 64
21, 209393, Note_on_c, 10, 52, 66
21, 209440, Note_on_c, 10, 54, 64
21, 209449, Note_off_c, 10, 52, 64
21, 209485, Note_off_c, 10, 54, 64
21, 209499, Note_on_c, 10, 56, 95
21, 209561, Note_off_c, 10, 56, 64
21, 209634, Note_on_c, 10, 56, 78
21, 209678, Note_on_c, 10, 57, 82
21, 209684, Note_off_c, 10, 56, 64
21, 209723, Note_off_c, 10, 57, 64
21, 209741, Note_on_c, 10, 59, 98
21, 209817, Note_off_c, 10, 59, 64
21, 209868, Note_on_c, 10, 56, 76
21, 209918, Note_on_c, 10, 57, 70
21, 209920, Note_off_c, 10, 56, 64
21, 209969, Note_off_c, 10, 57, 64
21, 209983, Note_on_c, 10, 59, 82
21, 210060, Note_off_c, 10, 59, 64
21, 210105, Note_on_c, 10, 59, 70
21, 210152, Note_on_c, 10, 61, 70
21, 210158, Note_off_c, 10, 59, 64
21, 210200, Note_off_c, 10, 61, 64
21, 210216, Note_on_c, 10, 62, 93
21, 210287, Note_off_c, 10, 62, 64
21, 210342, Note_on_c, 10, 62, 80
21, 210392, Note_on_c, 10, 61, 70
21, 210402, Note_off_c, 10, 62, 64
21, 210442, Note_off_c, 10, 61, 64
21, 210457, Note_on_c, 10, 62, 82
21, 210536, Note_off_c, 10, 62, 64
21, 210581, Note_on_c, 10, 64, 85
21, 210633, Note_on_c, 10, 62, 82
21, 210650, Note_off_c, 10, 64, 64
21, 210686, Note_off_c, 10, 62, 64
21, 210704, Note_on_c, 10, 61, 78
21, 210769, Note_off_c, 10, 61, 64
21, 210827, Note_on_c, 10, 64, 85
21, 210881, Note_off_c, 10, 64, 64
21, 210950, Note_on_c, 10, 57, 76
21, 211001, Note_off_c, 10, 57, 64
21, 211067, Note_on_c, 10, 61, 80
21, 211256, Note_off_c, 10, 61, 64
21, 211297, Note_on_c, 10, 64, 85
21, 211350, Note_off_c, 10, 64, 64
21, 211425, Note_on_c, 10, 55, 78
21, 211478, Note_off_c, 10, 55, 64
21, 211551, Note_on_c, 10, 61, 70
21, 211716, Note_off_c, 10, 61, 64
21, 211780, Note_on_c, 10, 64, 87
21, 211832, Note_off_c, 10, 64, 64
21, 211901, Note_on_c, 10, 57, 85
21, 211961, Note_off_c, 10, 57, 64
21, 212020, Note_on_c, 10, 61, 82
21, 212078, Note_off_c, 10, 61, 64
21, 212144, Note_on_c, 10, 50, 93
21, 212213, Note_off_c, 10, 50, 64
21, 212263, Note_on_c, 10, 62, 87
21, 212328, Note_off_c, 10, 62, 64
21, 212380, Note_on_c, 10, 55, 80
21, 212433, Note_off_c, 10, 55, 64
21, 212500, Note_on_c, 10, 59, 80
21, 212561, Note_off_c, 10, 59, 64
21, 212624, Note_on_c, 10, 49, 85
21, 212685, Note_off_c, 10, 49, 64
21, 212744, Note_on_c, 10, 61, 82
21, 212810, Note_off_c, 10, 61, 64
21, 212871, Note_on_c, 10, 54, 82
21, 212933, Note_off_c, 10, 54, 64
21, 212989, Note_on_c, 10, 58, 85
21, 213047, Note_off_c, 10, 58, 64
21, 213114, Note_on_c, 10, 47, 85
21, 213179, Note_off_c, 10, 47, 64
21, 213227, Note_on_c, 10, 59, 87
21, 213299, Note_off_c, 10, 59, 64
21, 213352, Note_on_c, 10, 57, 78
21, 213417, Note_off_c, 10, 57, 64
21, 213465, Note_on_c, 10, 55, 68
21, 213549, Note_off_c, 10, 55, 64
21, 213588, Note_on_c, 10, 54, 60
21, 213667, Note_off_c, 10, 54, 64
21, 213709, Note_on_c, 10, 59, 98
21, 213779, Note_off_c, 10, 59, 64
21, 213829, Note_on_c, 10, 57, 82
21, 213900, Note_off_c, 10, 57, 64
21, 213947, Note_on_c, 10, 55, 87
21, 214008, Note_off_c, 10, 55, 64
21, 214066, Note_on_c, 10, 54, 93
21, 214129, Note_off_c, 10, 54, 64
21, 214183, Note_on_c, 10, 57, 89
21, 214249, Note_off_c, 10, 57, 64
21, 214300, Note_on_c, 10, 50, 82
21, 214364, Note_off_c, 10, 50, 64
21, 214428, Note_on_c, 10, 54, 82
21, 214493, Note_off_c, 10, 54, 64
21, 214544, Note_on_c, 10, 43, 98
21, 214614, Note_off_c, 10, 43, 64
21, 214662, Note_on_c, 10, 55, 85
21, 214733, Note_off_c, 10, 55, 64
21, 214777, Note_on_c, 10, 49, 74
21, 214847, Note_off_c, 10, 49, 64
21, 214902, Note_on_c, 10, 52, 82
21, 214966, Note_off_c, 10, 52, 64
21, 215019, Note_on_c, 10, 42, 78
21, 215084, Note_off_c, 10, 42, 64
21, 215131, Note_on_c, 10, 54, 80
21, 215188, Note_off_c, 10, 54, 64
21, 215257, Note_on_c, 10, 47, 85
21, 215322, Note_off_c, 10, 47, 64
21, 215380, Note_on_c, 10, 50, 85
21, 215450, Note_off_c, 10, 50, 64
21, 215507, Note_on_c, 10, 40, 95
21, 215574, Note_off_c, 10, 40, 64
21, 215617, Note_on_c, 10, 45, 74
21, 215684, Note_off_c, 10, 45, 64
21, 215739, Note_on_c, 10, 50, 87
21, 215799, Note_off_c, 10, 50, 64
21, 215860, Note_on_c, 10, 38, 100
21, 215908, Note_off_c, 10, 38, 64
21, 215982, Note_on_c, 10, 45, 82
21, 216064, Note_off_c, 10, 45, 64
21, 216104, Note_on_c, 10, 45, 80
21, 216146, Note_on_c, 10, 47, 82
21, 216157, Note_off_c, 10, 45, 64
21, 216196, Note_off_c, 10, 47, 64
21, 216209, Note_on_c, 10, 49, 95
21, 216275, Note_off_c, 10, 49, 64
21, 216338, Note_on_c, 10, 49, 66
21, 216387, Note_off_c, 10, 49, 64
21, 216391, Note_on_c, 10, 50, 85
21, 216440, Note_off_c, 10, 50, 64
21, 216454, Note_on_c, 10, 52, 91
21, 216527, Note_off_c, 10, 52, 64
21, 216574, Note_on_c, 10, 49, 78
21, 216623, Note_off_c, 10, 49, 64
21, 216628, Note_on_c, 10, 50, 68
21, 216672, Note_off_c, 10, 50, 64
21, 216687, Note_on_c, 10, 52, 87
21, 216743, Note_off_c, 10, 52, 64
21, 216824, Note_on_c, 10, 52, 82
21, 216875, Note_on_c, 10, 54, 95
21, 216881, Note_off_c, 10, 52, 64
21, 216915, Note_off_c, 10, 54, 64
21, 216934, Note_on_c, 10, 55, 91
21, 217009, Note_off_c, 10, 55, 64
21, 217059, Note_on_c, 10, 55, 91
21, 217108, Note_on_c, 10, 54, 87
21, 217113, Note_off_c, 10, 55, 64
21, 217157, Note_off_c, 10, 54, 64
21, 217172, Note_on_c, 10, 55, 87
21, 217245, Note_off_c, 10, 55, 64
21, 217301, Note_on_c, 10, 57, 89
21, 217353, Note_on_c, 10, 55, 82
21, 217364, Note_off_c, 10, 57, 64
21, 217396, Note_off_c, 10, 55, 64
21, 217414, Note_on_c, 10, 54, 87
21, 217492, Note_off_c, 10, 54, 64
21, 217540, Note_on_c, 10, 54, 98
21, 217582, Note_off_c, 10, 54, 64
21, 217593, Note_on_c, 10, 52, 93
21, 217633, Note_off_c, 10, 52, 64
21, 217659, Note_on_c, 10, 54, 102
21, 217742, Note_off_c, 10, 54, 64
21, 217788, Note_on_c, 10, 55, 80
21, 217830, Note_off_c, 10, 55, 64
21, 217838, Note_on_c, 10, 54, 95
21, 217880, Note_off_c, 10, 54, 64
21, 217899, Note_on_c, 10, 52, 95
21, 217970, Note_off_c, 10, 52, 64
21, 218022, Note_on_c, 10, 52, 82
21, 218068, Note_on_c, 10, 50, 80
21, 218070, Note_off_c, 10, 52, 64
21, 218119, Note_off_c, 10, 50, 64
21, 218135, Note_on_c, 10, 52, 91
21, 218192, Note_off_c, 10, 52, 64
21, 218260, Note_on_c, 10, 54, 85
21, 218309, Note_on_c, 10, 52, 85
21, 218310, Note_off_c, 10, 54, 64
21, 218355, Note_off_c, 10, 52, 64
21, 218375, Note_on_c, 10, 50, 91
21, 218428, Note_on_c, 10, 52, 85
21, 218436, Note_off_c, 10, 50, 64
21, 218476, Note_off_c, 10, 52, 64
21, 218489, Note_on_c, 10, 54, 87
21, 218547, Note_on_c, 10, 50, 80
21, 218550, Note_off_c, 10, 54, 64
21, 218592, Note_off_c, 10, 50, 64
21, 218614, Note_on_c, 10, 55, 85
21, 218670, Note_on_c, 10, 57, 91
21, 218684, Note_off_c, 10, 55, 64
21, 218712, Note_off_c, 10, 57, 64
21, 218730, Note_on_c, 10, 54, 100
21, 218780, Note_off_c, 10, 54, 64
21, 218787, Note_on_c, 10, 55, 85
21, 218838, Note_off_c, 10, 55, 64
21, 218855, Note_on_c, 10, 57, 102
21, 218924, Note_off_c, 10, 57, 64
21, 218978, Note_on_c, 10, 55, 87
21, 219058, Note_off_c, 10, 55, 64
21, 219106, Note_on_c, 10, 54, 87
21, 219174, Note_off_c, 10, 54, 64
21, 219221, Note_on_c, 10, 52, 89
21, 219277, Note_off_c, 10, 52, 64
21, 219340, Note_on_c, 10, 50, 100
21, 219400, Note_off_c, 10, 50, 64
21, 219460, Note_on_c, 10, 55, 89
21, 219518, Note_off_c, 10, 55, 64
21, 219578, Note_on_c, 10, 57, 100
21, 219639, Note_off_c, 10, 57, 64
21, 219705, Note_on_c, 10, 45, 93
21, 219778, Note_off_c, 10, 45, 64
21, 232612, Note_on_c, 10, 42, 89
21, 232648, Note_off_c, 10, 42, 64
21, 232672, Note_on_c, 10, 40, 95
21, 232711, Note_off_c, 10, 40, 64
21, 232730, Note_on_c, 10, 38, 100
21, 232777, Note_off_c, 10, 38, 64
21, 232801, Note_on_c, 10, 37, 105
21, 232882, Note_off_c, 10, 37, 64
21, 232976, Note_on_c, 10, 45, 102
21, 233014, Note_off_c, 10, 45, 64
21, 233037, Note_on_c, 10, 47, 102
21, 233112, Note_off_c, 10, 47, 64
21, 233211, Note_on_c, 10, 49, 100
21, 233249, Note_off_c, 10, 49, 64
21, 233278, Note_on_c, 10, 50, 107
21, 233360, Note_off_c, 10, 50, 64
21, 233443, Note_on_c, 10, 52, 89
21, 233483, Note_off_c, 10, 52, 64
21, 233509, Note_on_c, 10, 54, 105
21, 233589, Note_off_c, 10, 54, 64
21, 233682, Note_on_c, 10, 55, 82
21, 233714, Note_off_c, 10, 55, 64
21, 233750, Note_on_c, 10, 57, 107
21, 233877, Note_off_c, 10, 57, 64
21, 233992, Note_on_c, 10, 45, 113
21, 234114, Note_off_c, 10, 45, 64
21, 234243, Note_on_c, 10, 38, 113
21, 234755, Note_off_c, 10, 38, 64
21, 234755, End_track
0, 0, End_of_file
