0, 0, Header, 1, 5, 240
1, 0, Start_track
1, 0, Time_signature, 4, 2, 24, 8
1, 0, Key_signature, 0, "major"
1, 0, Tempo, 625000
1, 31680, Tempo, 659340
1, 31800, Tempo, 674157
1, 31920, Tempo, 697674
1, 32040, Tempo, 800000
1, 32096, Tempo, 937500
1, 32120, Tempo, 1200000
1, 32120, End_track
2, 0, Start_track
2, 0, MIDI_port, 0
2, 0, Title_t, "RH H"
2, 0, Program_c, 0, 6
2, 1560, Note_on_c, 0, 67, 64
2, 1680, Note_on_c, 0, 67, 0
2, 1680, Note_on_c, 0, 70, 64
2, 1800, Note_on_c, 0, 70, 0
2, 1800, Note_on_c, 0, 62, 64
2, 1920, Note_on_c, 0, 62, 0
2, 1920, Note_on_c, 0, 61, 64
2, 2160, Note_on_c, 0, 61, 0
2, 2160, Note_on_c, 0, 62, 64
2, 2400, Note_on_c, 0, 62, 0
2, 2520, Note_on_c, 0, 64, 64
2, 2580, Note_on_c, 0, 64, 0
2, 2580, Note_on_c, 0, 65, 64
2, 2640, Note_on_c, 0, 65, 0
2, 2640, Note_on_c, 0, 67, 64
2, 2760, Note_on_c, 0, 67, 0
2, 2760, Note_on_c, 0, 65, 64
2, 2820, Note_on_c, 0, 65, 0
2, 2820, Note_on_c, 0, 64, 64
2, 2880, Note_on_c, 0, 64, 0
2, 2880, Note_on_c, 0, 65, 64
2, 3000, Note_on_c, 0, 65, 0
2, 3000, Note_on_c, 0, 67, 64
2, 3060, Note_on_c, 0, 67, 0
2, 3060, Note_on_c, 0, 69, 64
2, 3120, Note_on_c, 0, 69, 0
2, 3120, Note_on_c, 0, 70, 64
2, 3240, Note_on_c, 0, 70, 0
2, 3240, Note_on_c, 0, 69, 64
2, 3300, Note_on_c, 0, 69, 0
2, 3300, Note_on_c, 0, 67, 64
2, 3360, Note_on_c, 0, 67, 0
2, 3360, Note_on_c, 0, 69, 64
2, 3480, Note_on_c, 0, 69, 0
2, 3480, Note_on_c, 0, 70, 64
2, 3540, Note_on_c, 0, 70, 0
2, 3540, Note_on_c, 0, 72, 64
2, 3600, Note_on_c, 0, 72, 0
2, 3600, Note_on_c, 0, 74, 64
2, 3720, Note_on_c, 0, 74, 0
2, 3720, Note_on_c, 0, 72, 64
2, 3780, Note_on_c, 0, 72, 0
2, 3780, Note_on_c, 0, 70, 64
2, 3840, Note_on_c, 0, 70, 0
2, 3840, Note_on_c, 0, 72, 64
2, 4080, Note_on_c, 0, 72, 0
2, 4080, Note_on_c, 0, 70, 64
2, 4320, Note_on_c, 0, 70, 0
2, 4320, Note_on_c, 0, 69, 64
2, 4440, Note_on_c, 0, 69, 0
2, 4440, Note_on_c, 0, 74, 64
2, 4500, Note_on_c, 0, 74, 0
2, 4500, Note_on_c, 0, 72, 64
2, 4560, Note_on_c, 0, 72, 0
2, 4560, Note_on_c, 0, 70, 64
2, 4680, Note_on_c, 0, 70, 0
2, 4680, Note_on_c, 0, 72, 64
2, 4740, Note_on_c, 0, 72, 0
2, 4740, Note_on_c, 0, 74, 64
2, 4800, Note_on_c, 0, 74, 0
2, 4800, Note_on_c, 0, 75, 64
2, 4920, Note_on_c, 0, 75, 0
2, 4920, Note_on_c, 0, 72, 64
2, 5040, Note_on_c, 0, 72, 0
2, 5040, Note_on_c, 0, 69, 64
2, 5160, Note_on_c, 0, 69, 0
2, 5160, Note_on_c, 0, 78, 64
2, 5280, Note_on_c, 0, 78, 0
2, 5280, Note_on_c, 0, 79, 64
2, 5520, Note_on_c, 0, 79, 0
2, 5880, Note_on_c, 0, 64, 64
2, 6000, Note_on_c, 0, 64, 0
2, 6000, Note_on_c, 0, 69, 64
2, 6120, Note_on_c, 0, 69, 0
2, 6120, Note_on_c, 0, 65, 64
2, 6240, Note_on_c, 0, 65, 0
2, 6240, Note_on_c, 0, 62, 64
2, 6480, Note_on_c, 0, 62, 0
2, 6480, Note_on_c, 0, 61, 64
2, 6600, Note_on_c, 0, 61, 0
2, 6600, Note_on_c, 0, 64, 64
2, 6840, Note_on_c, 0, 64, 0
2, 6840, Note_on_c, 0, 62, 64
2, 6960, Note_on_c, 0, 62, 0
2, 6960, Note_on_c, 0, 67, 64
2, 7260, Note_on_c, 0, 67, 0
2, 7260, Note_on_c, 0, 66, 64
2, 7320, Note_on_c, 0, 66, 0
2, 7320, Note_on_c, 0, 67, 64
2, 7380, Note_on_c, 0, 67, 0
2, 7380, Note_on_c, 0, 69, 64
2, 7440, Note_on_c, 0, 69, 0
2, 7440, Note_on_c, 0, 70, 64
2, 7920, Note_on_c, 0, 70, 0
2, 7920, Note_on_c, 0, 69, 64
2, 8220, Note_on_c, 0, 69, 0
2, 8220, Note_on_c, 0, 62, 64
2, 8280, Note_on_c, 0, 62, 0
2, 8280, Note_on_c, 0, 64, 64
2, 8340, Note_on_c, 0, 64, 0
2, 8340, Note_on_c, 0, 66, 64
2, 8400, Note_on_c, 0, 66, 0
2, 8400, Note_on_c, 0, 67, 64
2, 8760, Note_on_c, 0, 67, 0
2, 8760, Note_on_c, 0, 66, 64
2, 8820, Note_on_c, 0, 66, 0
2, 8820, Note_on_c, 0, 67, 64
2, 8880, Note_on_c, 0, 67, 0
2, 8880, Note_on_c, 0, 69, 64
2, 9000, Note_on_c, 0, 69, 0
2, 9000, Note_on_c, 0, 67, 64
2, 9060, Note_on_c, 0, 67, 0
2, 9060, Note_on_c, 0, 66, 64
2, 9120, Note_on_c, 0, 66, 0
2, 9120, Note_on_c, 0, 67, 64
2, 9480, Note_on_c, 0, 67, 0
2, 9480, Note_on_c, 0, 72, 64
2, 9600, Note_on_c, 0, 72, 0
2, 9600, Note_on_c, 0, 65, 64
2, 9720, Note_on_c, 0, 65, 0
2, 9720, Note_on_c, 0, 67, 64
2, 9780, Note_on_c, 0, 67, 0
2, 9780, Note_on_c, 0, 69, 64
2, 9840, Note_on_c, 0, 69, 0
2, 9840, Note_on_c, 0, 70, 64
2, 10320, Note_on_c, 0, 70, 0
2, 10320, Note_on_c, 0, 69, 64
2, 10560, Note_on_c, 0, 69, 0
2, 10560, Note_on_c, 0, 70, 64
2, 10800, Note_on_c, 0, 70, 0
2, 13560, Note_on_c, 0, 72, 64
2, 13680, Note_on_c, 0, 72, 0
2, 13680, Note_on_c, 0, 74, 64
2, 13800, Note_on_c, 0, 74, 0
2, 13800, Note_on_c, 0, 65, 64
2, 13920, Note_on_c, 0, 65, 0
2, 13920, Note_on_c, 0, 64, 64
2, 14160, Note_on_c, 0, 64, 0
2, 14160, Note_on_c, 0, 65, 64
2, 14400, Note_on_c, 0, 65, 0
2, 14520, Note_on_c, 0, 67, 64
2, 14580, Note_on_c, 0, 67, 0
2, 14580, Note_on_c, 0, 69, 64
2, 14640, Note_on_c, 0, 69, 0
2, 14640, Note_on_c, 0, 70, 64
2, 14760, Note_on_c, 0, 70, 0
2, 14760, Note_on_c, 0, 69, 64
2, 14820, Note_on_c, 0, 69, 0
2, 14820, Note_on_c, 0, 67, 64
2, 14880, Note_on_c, 0, 67, 0
2, 14880, Note_on_c, 0, 69, 64
2, 15000, Note_on_c, 0, 69, 0
2, 15000, Note_on_c, 0, 70, 64
2, 15060, Note_on_c, 0, 70, 0
2, 15060, Note_on_c, 0, 72, 64
2, 15120, Note_on_c, 0, 72, 0
2, 15120, Note_on_c, 0, 74, 64
2, 15240, Note_on_c, 0, 74, 0
2, 15240, Note_on_c, 0, 72, 64
2, 15300, Note_on_c, 0, 72, 0
2, 15300, Note_on_c, 0, 70, 64
2, 15360, Note_on_c, 0, 70, 0
2, 15360, Note_on_c, 0, 72, 64
2, 15480, Note_on_c, 0, 72, 0
2, 15480, Note_on_c, 0, 74, 64
2, 15540, Note_on_c, 0, 74, 0
2, 15540, Note_on_c, 0, 72, 64
2, 15600, Note_on_c, 0, 72, 0
2, 15600, Note_on_c, 0, 70, 64
2, 15720, Note_on_c, 0, 70, 0
2, 15720, Note_on_c, 0, 72, 64
2, 15780, Note_on_c, 0, 72, 0
2, 15780, Note_on_c, 0, 74, 64
2, 15840, Note_on_c, 0, 74, 0
2, 15840, Note_on_c, 0, 75, 64
2, 15960, Note_on_c, 0, 75, 0
2, 15960, Note_on_c, 0, 77, 64
2, 16020, Note_on_c, 0, 77, 0
2, 16020, Note_on_c, 0, 75, 64
2, 16080, Note_on_c, 0, 75, 0
2, 16200, Note_on_c, 0, 75, 64
2, 16260, Note_on_c, 0, 75, 0
2, 16260, Note_on_c, 0, 77, 64
2, 16320, Note_on_c, 0, 77, 0
2, 16320, Note_on_c, 0, 79, 64
2, 16440, Note_on_c, 0, 79, 0
2, 16440, Note_on_c, 0, 75, 64
2, 16560, Note_on_c, 0, 75, 0
2, 16560, Note_on_c, 0, 72, 64
2, 16680, Note_on_c, 0, 72, 0
2, 16680, Note_on_c, 0, 81, 64
2, 16800, Note_on_c, 0, 81, 0
2, 16800, Note_on_c, 0, 82, 64
2, 16920, Note_on_c, 0, 82, 0
2, 17400, Note_on_c, 0, 79, 64
2, 17460, Note_on_c, 0, 79, 0
2, 17460, Note_on_c, 0, 80, 64
2, 17520, Note_on_c, 0, 80, 0
2, 17520, Note_on_c, 0, 82, 64
2, 17640, Note_on_c, 0, 82, 0
2, 17640, Note_on_c, 0, 80, 64
2, 17700, Note_on_c, 0, 80, 0
2, 17700, Note_on_c, 0, 79, 64
2, 17760, Note_on_c, 0, 79, 0
2, 17760, Note_on_c, 0, 80, 64
2, 17880, Note_on_c, 0, 80, 0
2, 17880, Note_on_c, 0, 80, 64
2, 17940, Note_on_c, 0, 80, 0
2, 17940, Note_on_c, 0, 79, 64
2, 18000, Note_on_c, 0, 79, 0
2, 18000, Note_on_c, 0, 77, 64
2, 18120, Note_on_c, 0, 77, 0
2, 18120, Note_on_c, 0, 79, 64
2, 18180, Note_on_c, 0, 79, 0
2, 18180, Note_on_c, 0, 80, 64
2, 18240, Note_on_c, 0, 80, 0
2, 18240, Note_on_c, 0, 74, 64
2, 18360, Note_on_c, 0, 74, 0
2, 18360, Note_on_c, 0, 79, 64
2, 18600, Note_on_c, 0, 79, 0
2, 18600, Note_on_c, 0, 77, 64
2, 18660, Note_on_c, 0, 77, 0
2, 18720, Note_on_c, 0, 74, 64
2, 19080, Note_on_c, 0, 74, 0
2, 19080, Note_on_c, 0, 72, 64
2, 19140, Note_on_c, 0, 72, 0
2, 19140, Note_on_c, 0, 71, 64
2, 19200, Note_on_c, 0, 71, 0
2, 19200, Note_on_c, 0, 72, 64
2, 19440, Note_on_c, 0, 72, 0
2, 19440, Note_on_c, 0, 71, 64
2, 19560, Note_on_c, 0, 71, 0
2, 19560, Note_on_c, 0, 74, 64
2, 19680, Note_on_c, 0, 74, 0
2, 19680, Note_on_c, 0, 67, 64
2, 19800, Note_on_c, 0, 67, 0
2, 19800, Note_on_c, 0, 79, 64
2, 19920, Note_on_c, 0, 79, 0
2, 19920, Note_on_c, 0, 80, 64
2, 20040, Note_on_c, 0, 80, 0
2, 20040, Note_on_c, 0, 72, 64
2, 20160, Note_on_c, 0, 72, 0
2, 20160, Note_on_c, 0, 71, 64
2, 20400, Note_on_c, 0, 71, 0
2, 20400, Note_on_c, 0, 72, 64
2, 20640, Note_on_c, 0, 72, 0
2, 20760, Note_on_c, 0, 74, 64
2, 20820, Note_on_c, 0, 74, 0
2, 20820, Note_on_c, 0, 75, 64
2, 20880, Note_on_c, 0, 75, 0
2, 20880, Note_on_c, 0, 77, 64
2, 21000, Note_on_c, 0, 77, 0
2, 21000, Note_on_c, 0, 75, 64
2, 21060, Note_on_c, 0, 75, 0
2, 21060, Note_on_c, 0, 74, 64
2, 21120, Note_on_c, 0, 74, 0
2, 21120, Note_on_c, 0, 75, 64
2, 21180, Note_on_c, 0, 75, 0
2, 21180, Note_on_c, 0, 74, 64
2, 21240, Note_on_c, 0, 74, 0
2, 21240, Note_on_c, 0, 75, 64
2, 21300, Note_on_c, 0, 75, 0
2, 21300, Note_on_c, 0, 77, 64
2, 21360, Note_on_c, 0, 77, 0
2, 21360, Note_on_c, 0, 79, 64
2, 21480, Note_on_c, 0, 79, 0
2, 21720, Note_on_c, 0, 74, 64
2, 21780, Note_on_c, 0, 74, 0
2, 21780, Note_on_c, 0, 72, 64
2, 21840, Note_on_c, 0, 72, 0
2, 21840, Note_on_c, 0, 70, 64
2, 21960, Note_on_c, 0, 70, 0
2, 21960, Note_on_c, 0, 72, 64
2, 22020, Note_on_c, 0, 72, 0
2, 22020, Note_on_c, 0, 74, 64
2, 22080, Note_on_c, 0, 74, 0
2, 22080, Note_on_c, 0, 75, 64
2, 22140, Note_on_c, 0, 75, 0
2, 22140, Note_on_c, 0, 74, 64
2, 22200, Note_on_c, 0, 74, 0
2, 22200, Note_on_c, 0, 72, 64
2, 22260, Note_on_c, 0, 72, 0
2, 22320, Note_on_c, 0, 69, 64
2, 22440, Note_on_c, 0, 69, 0
2, 22440, Note_on_c, 0, 78, 64
2, 22560, Note_on_c, 0, 78, 0
2, 22560, Note_on_c, 0, 79, 64
2, 22680, Note_on_c, 0, 79, 0
2, 22860, Note_on_c, 0, 74, 64
2, 22920, Note_on_c, 0, 74, 0
2, 22920, Note_on_c, 0, 72, 64
2, 22980, Note_on_c, 0, 72, 0
2, 22980, Note_on_c, 0, 70, 64
2, 23040, Note_on_c, 0, 70, 0
2, 23040, Note_on_c, 0, 69, 64
2, 23340, Note_on_c, 0, 69, 0
2, 23340, Note_on_c, 0, 70, 64
2, 23400, Note_on_c, 0, 70, 0
2, 23400, Note_on_c, 0, 72, 64
2, 23460, Note_on_c, 0, 72, 0
2, 23460, Note_on_c, 0, 74, 64
2, 23520, Note_on_c, 0, 74, 0
2, 23520, Note_on_c, 0, 67, 64
2, 23820, Note_on_c, 0, 67, 0
2, 23820, Note_on_c, 0, 70, 64
2, 23880, Note_on_c, 0, 70, 0
2, 23880, Note_on_c, 0, 68, 64
2, 23940, Note_on_c, 0, 68, 0
2, 23940, Note_on_c, 0, 67, 64
2, 24000, Note_on_c, 0, 67, 0
2, 24000, Note_on_c, 0, 65, 64
2, 24300, Note_on_c, 0, 65, 0
2, 24300, Note_on_c, 0, 67, 64
2, 24360, Note_on_c, 0, 67, 0
2, 24360, Note_on_c, 0, 68, 64
2, 24420, Note_on_c, 0, 68, 0
2, 24420, Note_on_c, 0, 70, 64
2, 24480, Note_on_c, 0, 70, 0
2, 24480, Note_on_c, 0, 63, 64
2, 24780, Note_on_c, 0, 63, 0
2, 24780, Note_on_c, 0, 67, 64
2, 24840, Note_on_c, 0, 67, 0
2, 24840, Note_on_c, 0, 65, 64
2, 24900, Note_on_c, 0, 65, 0
2, 24900, Note_on_c, 0, 63, 64
2, 24960, Note_on_c, 0, 63, 0
2, 24960, Note_on_c, 0, 62, 64
2, 25250, Note_on_c, 0, 62, 0
2, 25260, Note_on_c, 0, 62, 64
2, 25320, Note_on_c, 0, 62, 0
2, 25320, Note_on_c, 0, 64, 64
2, 25380, Note_on_c, 0, 64, 0
2, 25380, Note_on_c, 0, 66, 64
2, 25440, Note_on_c, 0, 66, 0
2, 25440, Note_on_c, 0, 67, 64
2, 25740, Note_on_c, 0, 67, 0
2, 25740, Note_on_c, 0, 70, 64
2, 25800, Note_on_c, 0, 70, 0
2, 25800, Note_on_c, 0, 69, 64
2, 25860, Note_on_c, 0, 69, 0
2, 25860, Note_on_c, 0, 67, 64
2, 25920, Note_on_c, 0, 67, 0
2, 25920, Note_on_c, 0, 66, 64
2, 26040, Note_on_c, 0, 66, 0
2, 26040, Note_on_c, 0, 74, 64
2, 26160, Note_on_c, 0, 74, 0
2, 26160, Note_on_c, 0, 75, 64
2, 26280, Note_on_c, 0, 75, 0
2, 26280, Note_on_c, 0, 67, 64
2, 26400, Note_on_c, 0, 67, 0
2, 26400, Note_on_c, 0, 66, 64
2, 26640, Note_on_c, 0, 66, 0
2, 26640, Note_on_c, 0, 67, 64
2, 26880, Note_on_c, 0, 67, 0
2, 27000, Note_on_c, 0, 69, 64
2, 27060, Note_on_c, 0, 69, 0
2, 27060, Note_on_c, 0, 70, 64
2, 27120, Note_on_c, 0, 70, 0
2, 27240, Note_on_c, 0, 70, 64
2, 27300, Note_on_c, 0, 70, 0
2, 27300, Note_on_c, 0, 69, 64
2, 27360, Note_on_c, 0, 69, 0
2, 27360, Note_on_c, 0, 74, 64
2, 27480, Note_on_c, 0, 74, 0
2, 28440, Note_on_c, 0, 74, 64
2, 28500, Note_on_c, 0, 74, 0
2, 28500, Note_on_c, 0, 75, 64
2, 28560, Note_on_c, 0, 75, 0
2, 28560, Note_on_c, 0, 77, 64
2, 28680, Note_on_c, 0, 77, 0
2, 28680, Note_on_c, 0, 75, 64
2, 28740, Note_on_c, 0, 75, 0
2, 28740, Note_on_c, 0, 74, 64
2, 28800, Note_on_c, 0, 74, 0
2, 28800, Note_on_c, 0, 75, 64
2, 29100, Note_on_c, 0, 75, 0
2, 29100, Note_on_c, 0, 74, 64
2, 29160, Note_on_c, 0, 74, 0
2, 29160, Note_on_c, 0, 72, 64
2, 29220, Note_on_c, 0, 72, 0
2, 29220, Note_on_c, 0, 70, 64
2, 29280, Note_on_c, 0, 70, 0
2, 29280, Note_on_c, 0, 69, 64
2, 29520, Note_on_c, 0, 69, 0
2, 29640, Note_on_c, 0, 75, 64
2, 29700, Note_on_c, 0, 75, 0
2, 29700, Note_on_c, 0, 74, 64
2, 29760, Note_on_c, 0, 74, 0
2, 29760, Note_on_c, 0, 72, 64
2, 29880, Note_on_c, 0, 72, 0
2, 29880, Note_on_c, 0, 74, 64
2, 29940, Note_on_c, 0, 74, 0
2, 29940, Note_on_c, 0, 75, 64
2, 30000, Note_on_c, 0, 75, 0
2, 30000, Note_on_c, 0, 74, 64
2, 30120, Note_on_c, 0, 74, 0
2, 30120, Note_on_c, 0, 76, 64
2, 30180, Note_on_c, 0, 76, 0
2, 30180, Note_on_c, 0, 78, 64
2, 30240, Note_on_c, 0, 78, 0
2, 30240, Note_on_c, 0, 79, 64
2, 30360, Note_on_c, 0, 79, 0
2, 30360, Note_on_c, 0, 78, 64
2, 30420, Note_on_c, 0, 78, 0
2, 30420, Note_on_c, 0, 79, 64
2, 30480, Note_on_c, 0, 79, 0
2, 30480, Note_on_c, 0, 81, 64
2, 30840, Note_on_c, 0, 81, 0
2, 30840, Note_on_c, 0, 74, 64
2, 30960, Note_on_c, 0, 74, 0
2, 30960, Note_on_c, 0, 79, 64
2, 31080, Note_on_c, 0, 79, 0
2, 31080, Note_on_c, 0, 77, 64
2, 31200, Note_on_c, 0, 77, 0
2, 31200, Note_on_c, 0, 75, 64
2, 31320, Note_on_c, 0, 75, 0
2, 31320, Note_on_c, 0, 74, 64
2, 31440, Note_on_c, 0, 74, 0
2, 31440, Note_on_c, 0, 72, 64
2, 31560, Note_on_c, 0, 72, 0
2, 31560, Note_on_c, 0, 70, 64
2, 31680, Note_on_c, 0, 70, 0
2, 31680, Note_on_c, 0, 69, 64
2, 32150, Note_on_c, 0, 69, 0
2, 32160, Note_on_c, 0, 67, 64
2, 32640, Note_on_c, 0, 67, 0
2, 32640, End_track
3, 0, Start_track
3, 0, MIDI_port, 0
3, 0, Title_t, "RH L"
3, 0, Program_c, 1, 6
3, 120, Note_on_c, 1, 62, 64
3, 240, Note_on_c, 1, 62, 0
3, 240, Note_on_c, 1, 63, 64
3, 360, Note_on_c, 1, 63, 0
3, 360, Note_on_c, 1, 55, 64
3, 480, Note_on_c, 1, 55, 0
3, 480, Note_on_c, 1, 54, 64
3, 720, Note_on_c, 1, 54, 0
3, 720, Note_on_c, 1, 55, 64
3, 960, Note_on_c, 1, 55, 0
3, 1080, Note_on_c, 1, 57, 64
3, 1140, Note_on_c, 1, 57, 0
3, 1140, Note_on_c, 1, 58, 64
3, 1200, Note_on_c, 1, 58, 0
3, 1200, Note_on_c, 1, 60, 64
3, 1320, Note_on_c, 1, 60, 0
3, 1320, Note_on_c, 1, 58, 64
3, 1380, Note_on_c, 1, 58, 0
3, 1380, Note_on_c, 1, 57, 64
3, 1440, Note_on_c, 1, 57, 0
3, 1440, Note_on_c, 1, 58, 64
3, 1680, Note_on_c, 1, 58, 0
3, 1680, Note_on_c, 1, 55, 64
3, 1920, Note_on_c, 1, 55, 0
3, 2040, Note_on_c, 1, 57, 64
3, 2100, Note_on_c, 1, 57, 0
3, 2100, Note_on_c, 1, 55, 64
3, 2160, Note_on_c, 1, 55, 0
3, 2160, Note_on_c, 1, 53, 64
3, 2280, Note_on_c, 1, 53, 0
3, 2280, Note_on_c, 1, 55, 64
3, 2340, Note_on_c, 1, 55, 0
3, 2340, Note_on_c, 1, 57, 64
3, 2400, Note_on_c, 1, 57, 0
3, 2400, Note_on_c, 1, 58, 64
3, 2520, Note_on_c, 1, 58, 0
3, 2520, Note_on_c, 1, 55, 64
3, 2640, Note_on_c, 1, 55, 0
3, 2640, Note_on_c, 1, 52, 64
3, 2760, Note_on_c, 1, 52, 0
3, 2760, Note_on_c, 1, 61, 64
3, 2880, Note_on_c, 1, 61, 0
3, 2880, Note_on_c, 1, 62, 64
3, 3240, Note_on_c, 1, 62, 0
3, 3240, Note_on_c, 1, 64, 64
3, 3360, Note_on_c, 1, 64, 0
3, 3360, Note_on_c, 1, 65, 64
3, 3480, Note_on_c, 1, 65, 0
3, 3480, Note_on_c, 1, 64, 64
3, 3600, Note_on_c, 1, 64, 0
3, 3600, Note_on_c, 1, 65, 64
3, 3720, Note_on_c, 1, 65, 0
3, 3720, Note_on_c, 1, 67, 64
3, 3840, Note_on_c, 1, 67, 0
3, 3840, Note_on_c, 1, 69, 64
3, 3960, Note_on_c, 1, 69, 0
3, 3960, Note_on_c, 1, 67, 64
3, 4020, Note_on_c, 1, 67, 0
3, 4020, Note_on_c, 1, 66, 64
3, 4080, Note_on_c, 1, 66, 0
3, 4080, Note_on_c, 1, 67, 64
3, 4200, Note_on_c, 1, 67, 0
3, 4200, Note_on_c, 1, 61, 64
3, 4320, Note_on_c, 1, 61, 0
3, 4320, Note_on_c, 1, 62, 64
3, 4440, Note_on_c, 1, 62, 0
3, 4440, Note_on_c, 1, 69, 64
3, 4680, Note_on_c, 1, 69, 0
3, 4680, Note_on_c, 1, 67, 64
3, 4740, Note_on_c, 1, 67, 0
3, 4740, Note_on_c, 1, 66, 64
3, 4800, Note_on_c, 1, 66, 0
3, 4800, Note_on_c, 1, 67, 64
3, 5040, Note_on_c, 1, 67, 0
3, 5040, Note_on_c, 1, 66, 64
3, 5160, Note_on_c, 1, 66, 0
3, 5160, Note_on_c, 1, 69, 64
3, 5280, Note_on_c, 1, 69, 0
3, 5280, Note_on_c, 1, 74, 64
3, 5520, Note_on_c, 1, 74, 0
3, 10680, Note_on_c, 1, 65, 64
3, 10800, Note_on_c, 1, 65, 0
3, 10800, Note_on_c, 1, 67, 64
3, 10920, Note_on_c, 1, 67, 0
3, 10920, Note_on_c, 1, 58, 64
3, 11040, Note_on_c, 1, 58, 0
3, 11040, Note_on_c, 1, 57, 64
3, 11280, Note_on_c, 1, 57, 0
3, 11280, Note_on_c, 1, 58, 64
3, 11520, Note_on_c, 1, 58, 0
3, 11640, Note_on_c, 1, 60, 64
3, 11700, Note_on_c, 1, 60, 0
3, 11700, Note_on_c, 1, 62, 64
3, 11760, Note_on_c, 1, 62, 0
3, 11760, Note_on_c, 1, 63, 64
3, 11880, Note_on_c, 1, 63, 0
3, 11880, Note_on_c, 1, 62, 64
3, 11940, Note_on_c, 1, 62, 0
3, 11940, Note_on_c, 1, 60, 64
3, 12000, Note_on_c, 1, 60, 0
3, 12000, Note_on_c, 1, 62, 64
3, 12060, Note_on_c, 1, 62, 0
3, 12060, Note_on_c, 1, 64, 64
3, 12120, Note_on_c, 1, 64, 0
3, 12120, Note_on_c, 1, 62, 64
3, 12180, Note_on_c, 1, 62, 0
3, 12180, Note_on_c, 1, 64, 64
3, 12240, Note_on_c, 1, 64, 0
3, 12240, Note_on_c, 1, 65, 64
3, 12360, Note_on_c, 1, 65, 0
3, 12360, Note_on_c, 1, 64, 64
3, 12420, Note_on_c, 1, 64, 0
3, 12420, Note_on_c, 1, 62, 64
3, 12480, Note_on_c, 1, 62, 0
3, 12480, Note_on_c, 1, 67, 64
3, 12840, Note_on_c, 1, 67, 0
3, 12840, Note_on_c, 1, 65, 64
3, 12900, Note_on_c, 1, 65, 0
3, 12900, Note_on_c, 1, 64, 64
3, 12960, Note_on_c, 1, 64, 0
3, 12960, Note_on_c, 1, 65, 64
3, 13200, Note_on_c, 1, 65, 0
3, 13200, Note_on_c, 1, 64, 64
3, 13320, Note_on_c, 1, 64, 0
3, 13320, Note_on_c, 1, 70, 64
3, 13560, Note_on_c, 1, 70, 0
3, 13560, Note_on_c, 1, 69, 64
3, 13800, Note_on_c, 1, 69, 0
3, 13800, Note_on_c, 1, 67, 64
3, 13860, Note_on_c, 1, 67, 0
3, 13860, Note_on_c, 1, 69, 64
3, 13920, Note_on_c, 1, 69, 0
3, 13920, Note_on_c, 1, 70, 64
3, 14160, Note_on_c, 1, 70, 0
3, 14160, Note_on_c, 1, 69, 64
3, 14520, Note_on_c, 1, 69, 0
3, 14580, Note_on_c, 1, 65, 64
3, 14640, Note_on_c, 1, 65, 0
3, 14640, Note_on_c, 1, 64, 64
3, 14760, Note_on_c, 1, 64, 0
3, 14760, Note_on_c, 1, 60, 64
3, 15000, Note_on_c, 1, 60, 0
3, 15000, Note_on_c, 1, 62, 64
3, 15060, Note_on_c, 1, 62, 0
3, 15060, Note_on_c, 1, 63, 64
3, 15120, Note_on_c, 1, 63, 0
3, 15120, Note_on_c, 1, 65, 64
3, 15300, Note_on_c, 1, 65, 0
3, 15300, Note_on_c, 1, 67, 64
3, 15360, Note_on_c, 1, 67, 0
3, 15360, Note_on_c, 1, 69, 64
3, 15600, Note_on_c, 1, 69, 0
3, 15600, Note_on_c, 1, 67, 64
3, 15840, Note_on_c, 1, 67, 0
3, 15960, Note_on_c, 1, 72, 64
3, 16080, Note_on_c, 1, 72, 0
3, 16080, Note_on_c, 1, 74, 64
3, 16200, Note_on_c, 1, 74, 0
3, 16200, Note_on_c, 1, 65, 64
3, 16320, Note_on_c, 1, 65, 0
3, 16320, Note_on_c, 1, 63, 64
3, 16560, Note_on_c, 1, 63, 0
3, 16560, Note_on_c, 1, 65, 64
3, 16800, Note_on_c, 1, 65, 0
3, 16920, Note_on_c, 1, 65, 64
3, 16980, Note_on_c, 1, 65, 0
3, 16980, Note_on_c, 1, 67, 64
3, 17040, Note_on_c, 1, 67, 0
3, 17040, Note_on_c, 1, 68, 64
3, 17160, Note_on_c, 1, 68, 0
3, 17160, Note_on_c, 1, 67, 64
3, 17220, Note_on_c, 1, 67, 0
3, 17220, Note_on_c, 1, 65, 64
3, 17280, Note_on_c, 1, 65, 0
3, 17280, Note_on_c, 1, 67, 64
3, 17400, Note_on_c, 1, 67, 0
3, 17880, Note_on_c, 1, 77, 64
3, 17940, Note_on_c, 1, 77, 0
3, 17940, Note_on_c, 1, 75, 64
3, 18000, Note_on_c, 1, 75, 0
3, 18000, Note_on_c, 1, 74, 64
3, 18120, Note_on_c, 1, 74, 0
3, 18120, Note_on_c, 1, 75, 64
3, 18180, Note_on_c, 1, 75, 0
3, 18180, Note_on_c, 1, 77, 64
3, 18240, Note_on_c, 1, 77, 0
3, 18240, Note_on_c, 1, 71, 64
3, 18360, Note_on_c, 1, 71, 0
3, 18360, Note_on_c, 1, 75, 64
3, 18420, Note_on_c, 1, 75, 0
3, 18420, Note_on_c, 1, 74, 64
3, 18480, Note_on_c, 1, 74, 0
3, 18480, Note_on_c, 1, 72, 64
3, 18600, Note_on_c, 1, 72, 0
3, 18600, Note_on_c, 1, 74, 64
3, 18660, Note_on_c, 1, 74, 0
3, 18660, Note_on_c, 1, 75, 64
3, 18720, Note_on_c, 1, 75, 0
3, 18720, Note_on_c, 1, 65, 64
3, 18840, Note_on_c, 1, 65, 0
3, 18840, Note_on_c, 1, 67, 64
3, 18900, Note_on_c, 1, 67, 0
3, 18900, Note_on_c, 1, 65, 64
3, 18960, Note_on_c, 1, 65, 0
3, 18960, Note_on_c, 1, 63, 64
3, 19080, Note_on_c, 1, 63, 0
3, 19080, Note_on_c, 1, 65, 64
3, 19140, Note_on_c, 1, 65, 0
3, 19140, Note_on_c, 1, 67, 64
3, 19200, Note_on_c, 1, 67, 0
3, 19200, Note_on_c, 1, 68, 64
3, 19320, Note_on_c, 1, 68, 0
3, 19320, Note_on_c, 1, 65, 64
3, 19440, Note_on_c, 1, 65, 0
3, 19440, Note_on_c, 1, 62, 64
3, 19560, Note_on_c, 1, 62, 0
3, 19560, Note_on_c, 1, 71, 64
3, 19680, Note_on_c, 1, 71, 0
3, 19680, Note_on_c, 1, 72, 64
3, 19920, Note_on_c, 1, 72, 0
3, 20040, Note_on_c, 1, 63, 64
3, 20160, Note_on_c, 1, 63, 0
3, 20160, Note_on_c, 1, 62, 64
3, 20280, Note_on_c, 1, 62, 0
3, 20280, Note_on_c, 1, 63, 64
3, 20340, Note_on_c, 1, 63, 0
3, 20340, Note_on_c, 1, 65, 64
3, 20400, Note_on_c, 1, 65, 0
3, 20400, Note_on_c, 1, 67, 64
3, 20520, Note_on_c, 1, 67, 0
3, 20520, Note_on_c, 1, 69, 64
3, 20580, Note_on_c, 1, 69, 0
3, 20580, Note_on_c, 1, 71, 64
3, 20640, Note_on_c, 1, 71, 0
3, 20640, Note_on_c, 1, 72, 64
3, 20760, Note_on_c, 1, 72, 0
3, 20760, Note_on_c, 1, 71, 64
3, 20820, Note_on_c, 1, 71, 0
3, 20820, Note_on_c, 1, 72, 64
3, 20880, Note_on_c, 1, 72, 0
3, 20880, Note_on_c, 1, 74, 64
3, 21000, Note_on_c, 1, 74, 0
3, 21000, Note_on_c, 1, 67, 64
3, 21240, Note_on_c, 1, 67, 0
3, 21240, Note_on_c, 1, 72, 64
3, 21300, Note_on_c, 1, 72, 0
3, 21300, Note_on_c, 1, 74, 64
3, 21360, Note_on_c, 1, 74, 0
3, 21360, Note_on_c, 1, 75, 64
3, 21480, Note_on_c, 1, 75, 0
3, 21480, Note_on_c, 1, 67, 64
3, 21600, Note_on_c, 1, 67, 0
3, 21600, Note_on_c, 1, 66, 64
3, 21840, Note_on_c, 1, 66, 0
3, 21840, Note_on_c, 1, 67, 64
3, 22200, Note_on_c, 1, 67, 0
3, 22200, Note_on_c, 1, 69, 64
3, 22260, Note_on_c, 1, 69, 0
3, 22260, Note_on_c, 1, 70, 64
3, 22320, Note_on_c, 1, 70, 0
3, 22320, Note_on_c, 1, 72, 64
3, 22440, Note_on_c, 1, 72, 0
3, 22440, Note_on_c, 1, 70, 64
3, 22500, Note_on_c, 1, 70, 0
3, 22500, Note_on_c, 1, 69, 64
3, 22560, Note_on_c, 1, 69, 0
3, 22560, Note_on_c, 1, 70, 64
3, 22620, Note_on_c, 1, 70, 0
3, 22620, Note_on_c, 1, 62, 64
3, 22680, Note_on_c, 1, 62, 0
3, 22680, Note_on_c, 1, 64, 64
3, 22740, Note_on_c, 1, 64, 0
3, 22740, Note_on_c, 1, 66, 64
3, 22800, Note_on_c, 1, 66, 0
3, 22800, Note_on_c, 1, 67, 64
3, 23090, Note_on_c, 1, 67, 0
3, 23100, Note_on_c, 1, 67, 64
3, 23160, Note_on_c, 1, 67, 0
3, 23160, Note_on_c, 1, 65, 64
3, 23220, Note_on_c, 1, 65, 0
3, 23220, Note_on_c, 1, 63, 64
3, 23280, Note_on_c, 1, 63, 0
3, 23280, Note_on_c, 1, 62, 64
3, 23580, Note_on_c, 1, 62, 0
3, 23580, Note_on_c, 1, 58, 64
3, 23640, Note_on_c, 1, 58, 0
3, 23640, Note_on_c, 1, 60, 64
3, 23700, Note_on_c, 1, 60, 0
3, 23700, Note_on_c, 1, 62, 64
3, 23760, Note_on_c, 1, 62, 0
3, 23760, Note_on_c, 1, 63, 64
3, 24050, Note_on_c, 1, 63, 0
3, 24060, Note_on_c, 1, 63, 64
3, 24120, Note_on_c, 1, 63, 0
3, 24120, Note_on_c, 1, 62, 64
3, 24180, Note_on_c, 1, 62, 0
3, 24180, Note_on_c, 1, 60, 64
3, 24240, Note_on_c, 1, 60, 0
3, 24240, Note_on_c, 1, 58, 64
3, 24540, Note_on_c, 1, 58, 0
3, 24540, Note_on_c, 1, 55, 64
3, 24600, Note_on_c, 1, 55, 0
3, 24600, Note_on_c, 1, 57, 64
3, 24660, Note_on_c, 1, 57, 0
3, 24660, Note_on_c, 1, 59, 64
3, 24720, Note_on_c, 1, 59, 0
3, 24720, Note_on_c, 1, 60, 64
3, 25010, Note_on_c, 1, 60, 0
3, 25020, Note_on_c, 1, 60, 64
3, 25080, Note_on_c, 1, 60, 0
3, 25080, Note_on_c, 1, 58, 64
3, 25140, Note_on_c, 1, 58, 0
3, 25140, Note_on_c, 1, 57, 64
3, 25200, Note_on_c, 1, 57, 0
3, 25200, Note_on_c, 1, 55, 64
3, 25490, Note_on_c, 1, 55, 0
3, 25500, Note_on_c, 1, 55, 64
3, 25560, Note_on_c, 1, 55, 0
3, 25560, Note_on_c, 1, 57, 64
3, 25620, Note_on_c, 1, 57, 0
3, 25620, Note_on_c, 1, 58, 64
3, 25680, Note_on_c, 1, 58, 0
3, 25680, Note_on_c, 1, 60, 64
3, 25800, Note_on_c, 1, 60, 0
3, 25800, Note_on_c, 1, 61, 64
3, 25920, Note_on_c, 1, 61, 0
3, 25920, Note_on_c, 1, 62, 64
3, 26160, Note_on_c, 1, 62, 0
3, 26520, Note_on_c, 1, 74, 64
3, 26580, Note_on_c, 1, 74, 0
3, 26580, Note_on_c, 1, 72, 64
3, 26640, Note_on_c, 1, 72, 0
3, 26640, Note_on_c, 1, 70, 64
3, 26760, Note_on_c, 1, 70, 0
3, 26760, Note_on_c, 1, 72, 64
3, 26820, Note_on_c, 1, 72, 0
3, 26820, Note_on_c, 1, 74, 64
3, 26880, Note_on_c, 1, 74, 0
3, 26880, Note_on_c, 1, 75, 64
3, 27000, Note_on_c, 1, 75, 0
3, 27000, Note_on_c, 1, 74, 64
3, 27120, Note_on_c, 1, 74, 0
3, 27120, Note_on_c, 1, 72, 64
3, 27240, Note_on_c, 1, 72, 0
3, 27240, Note_on_c, 1, 75, 64
3, 27360, Note_on_c, 1, 75, 0
3, 27360, Note_on_c, 1, 69, 64
3, 27480, Note_on_c, 1, 69, 0
3, 27960, Note_on_c, 1, 66, 64
3, 28020, Note_on_c, 1, 66, 0
3, 28020, Note_on_c, 1, 67, 64
3, 28080, Note_on_c, 1, 67, 0
3, 28080, Note_on_c, 1, 69, 64
3, 28200, Note_on_c, 1, 69, 0
3, 28200, Note_on_c, 1, 67, 64
3, 28260, Note_on_c, 1, 67, 0
3, 28260, Note_on_c, 1, 66, 64
3, 28320, Note_on_c, 1, 66, 0
3, 28320, Note_on_c, 1, 67, 64
3, 29280, Note_on_c, 1, 67, 0
3, 29400, Note_on_c, 1, 74, 64
3, 29520, Note_on_c, 1, 74, 0
3, 29520, Note_on_c, 1, 75, 64
3, 29640, Note_on_c, 1, 75, 0
3, 29640, Note_on_c, 1, 67, 64
3, 29760, Note_on_c, 1, 67, 0
3, 29760, Note_on_c, 1, 66, 64
3, 30000, Note_on_c, 1, 66, 0
3, 30000, Note_on_c, 1, 67, 64
3, 30240, Note_on_c, 1, 67, 0
3, 30360, Note_on_c, 1, 69, 64
3, 30420, Note_on_c, 1, 69, 0
3, 30420, Note_on_c, 1, 70, 64
3, 30480, Note_on_c, 1, 70, 0
3, 30480, Note_on_c, 1, 72, 64
3, 30600, Note_on_c, 1, 72, 0
3, 30600, Note_on_c, 1, 70, 64
3, 30660, Note_on_c, 1, 70, 0
3, 30660, Note_on_c, 1, 69, 64
3, 30720, Note_on_c, 1, 69, 0
3, 30720, Note_on_c, 1, 70, 64
3, 31080, Note_on_c, 1, 70, 0
3, 31080, Note_on_c, 1, 71, 64
3, 31080, Note_on_c, 1, 67, 64
3, 31200, Note_on_c, 1, 67, 0
3, 31200, Note_on_c, 1, 71, 0
3, 31200, Note_on_c, 1, 72, 64
3, 31200, Note_on_c, 1, 69, 64
3, 31320, Note_on_c, 1, 69, 0
3, 31320, Note_on_c, 1, 72, 0
3, 31440, Note_on_c, 1, 67, 64
3, 31440, Note_on_c, 1, 62, 64
3, 31560, Note_on_c, 1, 62, 0
3, 31560, Note_on_c, 1, 67, 0
3, 31680, Note_on_c, 1, 63, 64
3, 31680, Note_on_c, 1, 67, 64
3, 31920, Note_on_c, 1, 67, 0
3, 31920, Note_on_c, 1, 63, 0
3, 31920, Note_on_c, 1, 66, 64
3, 31920, Note_on_c, 1, 62, 64
3, 32150, Note_on_c, 1, 62, 0
3, 32150, Note_on_c, 1, 66, 0
3, 32160, Note_on_c, 1, 62, 64
3, 32640, Note_on_c, 1, 62, 0
3, 32640, End_track
4, 0, Start_track
4, 0, MIDI_port, 0
4, 0, Title_t, "LH H"
4, 0, Program_c, 2, 6
4, 5400, Note_on_c, 2, 57, 64
4, 5520, Note_on_c, 2, 57, 0
4, 5520, Note_on_c, 2, 58, 64
4, 5640, Note_on_c, 2, 58, 0
4, 5640, Note_on_c, 2, 50, 64
4, 5760, Note_on_c, 2, 50, 0
4, 5760, Note_on_c, 2, 49, 64
4, 6000, Note_on_c, 2, 49, 0
4, 6000, Note_on_c, 2, 50, 64
4, 6240, Note_on_c, 2, 50, 0
4, 6360, Note_on_c, 2, 52, 64
4, 6420, Note_on_c, 2, 52, 0
4, 6420, Note_on_c, 2, 53, 64
4, 6480, Note_on_c, 2, 53, 0
4, 6480, Note_on_c, 2, 55, 64
4, 6600, Note_on_c, 2, 55, 0
4, 6600, Note_on_c, 2, 53, 64
4, 6660, Note_on_c, 2, 53, 0
4, 6660, Note_on_c, 2, 52, 64
4, 6720, Note_on_c, 2, 52, 0
4, 6720, Note_on_c, 2, 53, 64
4, 6840, Note_on_c, 2, 53, 0
4, 6840, Note_on_c, 2, 55, 64
4, 6900, Note_on_c, 2, 55, 0
4, 6900, Note_on_c, 2, 57, 64
4, 6960, Note_on_c, 2, 57, 0
4, 6960, Note_on_c, 2, 58, 64
4, 7080, Note_on_c, 2, 58, 0
4, 7080, Note_on_c, 2, 57, 64
4, 7140, Note_on_c, 2, 57, 0
4, 7140, Note_on_c, 2, 55, 64
4, 7200, Note_on_c, 2, 55, 0
4, 7200, Note_on_c, 2, 57, 64
4, 7320, Note_on_c, 2, 57, 0
4, 7320, Note_on_c, 2, 58, 64
4, 7380, Note_on_c, 2, 58, 0
4, 7380, Note_on_c, 2, 60, 64
4, 7440, Note_on_c, 2, 60, 0
4, 7440, Note_on_c, 2, 62, 64
4, 7560, Note_on_c, 2, 62, 0
4, 7560, Note_on_c, 2, 60, 64
4, 7620, Note_on_c, 2, 60, 0
4, 7620, Note_on_c, 2, 58, 64
4, 7680, Note_on_c, 2, 58, 0
4, 7680, Note_on_c, 2, 60, 64
4, 8400, Note_on_c, 2, 60, 0
4, 8400, Note_on_c, 2, 58, 64
4, 8520, Note_on_c, 2, 58, 0
4, 8520, Note_on_c, 2, 63, 64
4, 8640, Note_on_c, 2, 63, 0
4, 8640, Note_on_c, 2, 57, 64
4, 8700, Note_on_c, 2, 57, 0
4, 8700, Note_on_c, 2, 58, 64
4, 8760, Note_on_c, 2, 58, 0
4, 8760, Note_on_c, 2, 57, 64
4, 8820, Note_on_c, 2, 57, 0
4, 8820, Note_on_c, 2, 58, 64
4, 8880, Note_on_c, 2, 58, 0
4, 8880, Note_on_c, 2, 60, 64
4, 9000, Note_on_c, 2, 60, 0
4, 9000, Note_on_c, 2, 58, 64
4, 9060, Note_on_c, 2, 58, 0
4, 9060, Note_on_c, 2, 57, 64
4, 9120, Note_on_c, 2, 57, 0
4, 9120, Note_on_c, 2, 58, 64
4, 9240, Note_on_c, 2, 58, 0
4, 9240, Note_on_c, 2, 60, 64
4, 9300, Note_on_c, 2, 60, 0
4, 9300, Note_on_c, 2, 62, 64
4, 9360, Note_on_c, 2, 62, 0
4, 9360, Note_on_c, 2, 63, 64
4, 9840, Note_on_c, 2, 63, 0
4, 9840, Note_on_c, 2, 62, 64
4, 10080, Note_on_c, 2, 62, 0
4, 10080, Note_on_c, 2, 60, 64
4, 10560, Note_on_c, 2, 60, 0
4, 10560, Note_on_c, 2, 62, 64
4, 10800, Note_on_c, 2, 62, 0
4, 11160, Note_on_c, 2, 53, 64
4, 11220, Note_on_c, 2, 53, 0
4, 11220, Note_on_c, 2, 51, 64
4, 11280, Note_on_c, 2, 51, 0
4, 11280, Note_on_c, 2, 50, 64
4, 11400, Note_on_c, 2, 50, 0
4, 11400, Note_on_c, 2, 51, 64
4, 11460, Note_on_c, 2, 51, 0
4, 11460, Note_on_c, 2, 53, 64
4, 11520, Note_on_c, 2, 53, 0
4, 11520, Note_on_c, 2, 55, 64
4, 11640, Note_on_c, 2, 55, 0
4, 11640, Note_on_c, 2, 51, 64
4, 11760, Note_on_c, 2, 51, 0
4, 11760, Note_on_c, 2, 48, 64
4, 11880, Note_on_c, 2, 48, 0
4, 11880, Note_on_c, 2, 57, 64
4, 12000, Note_on_c, 2, 57, 0
4, 12000, Note_on_c, 2, 58, 64
4, 12600, Note_on_c, 2, 58, 0
4, 12600, Note_on_c, 2, 60, 64
4, 12660, Note_on_c, 2, 60, 0
4, 12660, Note_on_c, 2, 58, 64
4, 12720, Note_on_c, 2, 58, 0
4, 12720, Note_on_c, 2, 57, 64
4, 12840, Note_on_c, 2, 57, 0
4, 12840, Note_on_c, 2, 58, 64
4, 12900, Note_on_c, 2, 58, 0
4, 12900, Note_on_c, 2, 60, 64
4, 12960, Note_on_c, 2, 60, 0
4, 12960, Note_on_c, 2, 62, 64
4, 13080, Note_on_c, 2, 62, 0
4, 13080, Note_on_c, 2, 58, 64
4, 13200, Note_on_c, 2, 58, 0
4, 13200, Note_on_c, 2, 55, 64
4, 13320, Note_on_c, 2, 55, 0
4, 13320, Note_on_c, 2, 64, 64
4, 13440, Note_on_c, 2, 64, 0
4, 13440, Note_on_c, 2, 65, 64
4, 13620, Note_on_c, 2, 65, 0
4, 13620, Note_on_c, 2, 63, 64
4, 13680, Note_on_c, 2, 63, 0
4, 13680, Note_on_c, 2, 62, 64
4, 13920, Note_on_c, 2, 62, 0
4, 13920, Note_on_c, 2, 60, 64
4, 14280, Note_on_c, 2, 60, 0
4, 14280, Note_on_c, 2, 62, 64
4, 14340, Note_on_c, 2, 62, 0
4, 14340, Note_on_c, 2, 60, 64
4, 14400, Note_on_c, 2, 60, 0
4, 14400, Note_on_c, 2, 58, 64
4, 14880, Note_on_c, 2, 58, 0
4, 14880, Note_on_c, 2, 57, 64
4, 15120, Note_on_c, 2, 57, 0
4, 15180, Note_on_c, 2, 58, 64
4, 15240, Note_on_c, 2, 58, 0
4, 15240, Note_on_c, 2, 60, 64
4, 15300, Note_on_c, 2, 60, 0
4, 15300, Note_on_c, 2, 62, 64
4, 15360, Note_on_c, 2, 62, 0
4, 15360, Note_on_c, 2, 63, 64
4, 15480, Note_on_c, 2, 63, 0
4, 15480, Note_on_c, 2, 65, 64
4, 15540, Note_on_c, 2, 65, 0
4, 15540, Note_on_c, 2, 63, 64
4, 15600, Note_on_c, 2, 63, 0
4, 15600, Note_on_c, 2, 62, 64
4, 15720, Note_on_c, 2, 62, 0
4, 15720, Note_on_c, 2, 55, 64
4, 15960, Note_on_c, 2, 55, 0
4, 15960, Note_on_c, 2, 53, 64
4, 16080, Note_on_c, 2, 53, 0
4, 16080, Note_on_c, 2, 58, 64
4, 16200, Note_on_c, 2, 58, 0
4, 16200, Note_on_c, 2, 56, 64
4, 16320, Note_on_c, 2, 56, 0
4, 16320, Note_on_c, 2, 55, 64
4, 16560, Note_on_c, 2, 55, 0
4, 16560, Note_on_c, 2, 57, 64
4, 16680, Note_on_c, 2, 57, 0
4, 16680, Note_on_c, 2, 60, 64
4, 16800, Note_on_c, 2, 60, 0
4, 16800, Note_on_c, 2, 53, 64
4, 16920, Note_on_c, 2, 53, 0
4, 26520, Note_on_c, 2, 62, 64
4, 26640, Note_on_c, 2, 62, 0
4, 26640, Note_on_c, 2, 63, 64
4, 26760, Note_on_c, 2, 63, 0
4, 26760, Note_on_c, 2, 55, 64
4, 26880, Note_on_c, 2, 55, 0
4, 26880, Note_on_c, 2, 54, 64
4, 27120, Note_on_c, 2, 54, 0
4, 27120, Note_on_c, 2, 55, 64
4, 27360, Note_on_c, 2, 55, 0
4, 27480, Note_on_c, 2, 57, 64
4, 27540, Note_on_c, 2, 57, 0
4, 27540, Note_on_c, 2, 58, 64
4, 27600, Note_on_c, 2, 58, 0
4, 27600, Note_on_c, 2, 60, 64
4, 27720, Note_on_c, 2, 60, 0
4, 27720, Note_on_c, 2, 58, 64
4, 27780, Note_on_c, 2, 58, 0
4, 27780, Note_on_c, 2, 57, 64
4, 27840, Note_on_c, 2, 57, 0
4, 27840, Note_on_c, 2, 58, 64
4, 28440, Note_on_c, 2, 58, 0
4, 28440, Note_on_c, 2, 59, 64
4, 28500, Note_on_c, 2, 59, 0
4, 28500, Note_on_c, 2, 57, 64
4, 28560, Note_on_c, 2, 57, 0
4, 28560, Note_on_c, 2, 55, 64
4, 28680, Note_on_c, 2, 55, 0
4, 28680, Note_on_c, 2, 57, 64
4, 28740, Note_on_c, 2, 57, 0
4, 28740, Note_on_c, 2, 59, 64
4, 28800, Note_on_c, 2, 59, 0
4, 28800, Note_on_c, 2, 60, 64
4, 29040, Note_on_c, 2, 60, 0
4, 30840, Note_on_c, 2, 62, 64
4, 30960, Note_on_c, 2, 62, 0
4, 30960, Note_on_c, 2, 63, 64
4, 31080, Note_on_c, 2, 63, 0
4, 31080, Note_on_c, 2, 55, 64
4, 31200, Note_on_c, 2, 55, 0
4, 31200, Note_on_c, 2, 54, 64
4, 31440, Note_on_c, 2, 54, 0
4, 31440, Note_on_c, 2, 55, 64
4, 31680, Note_on_c, 2, 55, 0
4, 31800, Note_on_c, 2, 57, 64
4, 31860, Note_on_c, 2, 57, 0
4, 31860, Note_on_c, 2, 58, 64
4, 31920, Note_on_c, 2, 58, 0
4, 31920, Note_on_c, 2, 60, 64
4, 32040, Note_on_c, 2, 60, 0
4, 32040, Note_on_c, 2, 58, 64
4, 32100, Note_on_c, 2, 58, 0
4, 32100, Note_on_c, 2, 57, 64
4, 32160, Note_on_c, 2, 57, 0
4, 32160, Note_on_c, 2, 59, 64
4, 32640, Note_on_c, 2, 59, 0
4, 32640, End_track
5, 0, Start_track
5, 0, MIDI_port, 0
5, 0, Title_t, "LH L"
5, 0, Program_c, 0, 6
5, 3960, Note_on_c, 0, 50, 64
5, 4080, Note_on_c, 0, 50, 0
5, 4080, Note_on_c, 0, 51, 64
5, 4200, Note_on_c, 0, 51, 0
5, 4200, Note_on_c, 0, 43, 64
5, 4320, Note_on_c, 0, 43, 0
5, 4320, Note_on_c, 0, 42, 64
5, 4560, Note_on_c, 0, 42, 0
5, 4560, Note_on_c, 0, 43, 64
5, 4800, Note_on_c, 0, 43, 0
5, 4920, Note_on_c, 0, 45, 64
5, 4980, Note_on_c, 0, 45, 0
5, 4980, Note_on_c, 0, 46, 64
5, 5040, Note_on_c, 0, 46, 0
5, 5040, Note_on_c, 0, 48, 64
5, 5160, Note_on_c, 0, 48, 0
5, 5160, Note_on_c, 0, 46, 64
5, 5220, Note_on_c, 0, 46, 0
5, 5220, Note_on_c, 0, 45, 64
5, 5280, Note_on_c, 0, 45, 0
5, 5280, Note_on_c, 0, 46, 64
5, 5520, Note_on_c, 0, 46, 0
5, 5520, Note_on_c, 0, 43, 64
5, 5760, Note_on_c, 0, 43, 0
5, 5880, Note_on_c, 0, 45, 64
5, 5940, Note_on_c, 0, 45, 0
5, 5940, Note_on_c, 0, 43, 64
5, 6000, Note_on_c, 0, 43, 0
5, 6000, Note_on_c, 0, 41, 64
5, 6120, Note_on_c, 0, 41, 0
5, 6120, Note_on_c, 0, 43, 64
5, 6180, Note_on_c, 0, 43, 0
5, 6180, Note_on_c, 0, 45, 64
5, 6240, Note_on_c, 0, 45, 0
5, 6240, Note_on_c, 0, 46, 64
5, 6360, Note_on_c, 0, 46, 0
5, 6360, Note_on_c, 0, 43, 64
5, 6480, Note_on_c, 0, 43, 0
5, 6480, Note_on_c, 0, 40, 64
5, 6600, Note_on_c, 0, 40, 0
5, 6600, Note_on_c, 0, 49, 64
5, 6720, Note_on_c, 0, 49, 0
5, 6720, Note_on_c, 0, 50, 64
5, 7680, Note_on_c, 0, 50, 0
5, 7680, Note_on_c, 0, 52, 64
5, 7800, Note_on_c, 0, 52, 0
5, 7800, Note_on_c, 0, 57, 64
5, 7860, Note_on_c, 0, 57, 0
5, 7860, Note_on_c, 0, 55, 64
5, 7920, Note_on_c, 0, 55, 0
5, 7920, Note_on_c, 0, 54, 64
5, 8040, Note_on_c, 0, 54, 0
5, 8040, Note_on_c, 0, 55, 64
5, 8100, Note_on_c, 0, 55, 0
5, 8100, Note_on_c, 0, 57, 64
5, 8160, Note_on_c, 0, 57, 0
5, 8160, Note_on_c, 0, 46, 64
5, 8280, Note_on_c, 0, 46, 0
5, 8280, Note_on_c, 0, 48, 64
5, 8340, Note_on_c, 0, 48, 0
5, 8340, Note_on_c, 0, 50, 64
5, 8400, Note_on_c, 0, 50, 0
5, 8400, Note_on_c, 0, 51, 64
5, 8520, Note_on_c, 0, 51, 0
5, 8520, Note_on_c, 0, 50, 64
5, 8580, Note_on_c, 0, 50, 0
5, 8580, Note_on_c, 0, 48, 64
5, 8640, Note_on_c, 0, 48, 0
5, 8640, Note_on_c, 0, 50, 64
5, 9120, Note_on_c, 0, 50, 0
5, 9120, Note_on_c, 0, 43, 64
5, 9480, Note_on_c, 0, 43, 0
5, 9480, Note_on_c, 0, 45, 64
5, 9600, Note_on_c, 0, 45, 0
5, 9600, Note_on_c, 0, 46, 64
5, 9720, Note_on_c, 0, 46, 0
5, 9720, Note_on_c, 0, 53, 64
5, 9840, Note_on_c, 0, 53, 0
5, 9840, Note_on_c, 0, 55, 64
5, 9960, Note_on_c, 0, 55, 0
5, 9960, Note_on_c, 0, 50, 64
5, 10080, Note_on_c, 0, 50, 0
5, 10080, Note_on_c, 0, 51, 64
5, 10200, Note_on_c, 0, 51, 0
5, 10200, Note_on_c, 0, 50, 64
5, 10260, Note_on_c, 0, 50, 0
5, 10260, Note_on_c, 0, 51, 64
5, 10320, Note_on_c, 0, 51, 0
5, 10320, Note_on_c, 0, 53, 64
5, 10440, Note_on_c, 0, 53, 0
5, 10440, Note_on_c, 0, 41, 64
5, 10560, Note_on_c, 0, 41, 0
5, 10560, Note_on_c, 0, 46, 64
5, 10800, Note_on_c, 0, 46, 0
5, 12120, Note_on_c, 0, 46, 64
5, 12240, Note_on_c, 0, 46, 0
5, 12240, Note_on_c, 0, 50, 64
5, 12360, Note_on_c, 0, 50, 0
5, 12360, Note_on_c, 0, 41, 64
5, 12480, Note_on_c, 0, 41, 0
5, 12480, Note_on_c, 0, 40, 64
5, 12720, Note_on_c, 0, 40, 0
5, 12720, Note_on_c, 0, 41, 64
5, 12960, Note_on_c, 0, 41, 0
5, 13080, Note_on_c, 0, 43, 64
5, 13140, Note_on_c, 0, 43, 0
5, 13140, Note_on_c, 0, 45, 64
5, 13200, Note_on_c, 0, 45, 0
5, 13200, Note_on_c, 0, 46, 64
5, 13320, Note_on_c, 0, 46, 0
5, 13320, Note_on_c, 0, 45, 64
5, 13380, Note_on_c, 0, 45, 0
5, 13380, Note_on_c, 0, 43, 64
5, 13440, Note_on_c, 0, 43, 0
5, 13440, Note_on_c, 0, 45, 64
5, 13680, Note_on_c, 0, 45, 0
5, 13680, Note_on_c, 0, 46, 64
5, 13920, Note_on_c, 0, 46, 0
5, 14040, Note_on_c, 0, 48, 64
5, 14100, Note_on_c, 0, 48, 0
5, 14100, Note_on_c, 0, 46, 64
5, 14160, Note_on_c, 0, 46, 0
5, 14160, Note_on_c, 0, 45, 64
5, 14280, Note_on_c, 0, 45, 0
5, 14280, Note_on_c, 0, 46, 64
5, 14340, Note_on_c, 0, 46, 0
5, 14340, Note_on_c, 0, 48, 64
5, 14400, Note_on_c, 0, 48, 0
5, 14400, Note_on_c, 0, 50, 64
5, 14520, Note_on_c, 0, 50, 0
5, 14520, Note_on_c, 0, 46, 64
5, 14640, Note_on_c, 0, 46, 0
5, 14640, Note_on_c, 0, 43, 64
5, 14760, Note_on_c, 0, 43, 0
5, 14760, Note_on_c, 0, 52, 64
5, 14880, Note_on_c, 0, 52, 0
5, 14880, Note_on_c, 0, 53, 64
5, 15470, Note_on_c, 0, 53, 0
5, 15480, Note_on_c, 0, 53, 64
5, 15600, Note_on_c, 0, 53, 0
5, 15600, Note_on_c, 0, 55, 64
5, 15720, Note_on_c, 0, 55, 0
5, 15720, Note_on_c, 0, 46, 64
5, 15840, Note_on_c, 0, 46, 0
5, 15840, Note_on_c, 0, 45, 64
5, 16080, Note_on_c, 0, 45, 0
5, 16080, Note_on_c, 0, 46, 64
5, 16320, Note_on_c, 0, 46, 0
5, 16440, Note_on_c, 0, 48, 64
5, 16500, Note_on_c, 0, 48, 0
5, 16500, Note_on_c, 0, 50, 64
5, 16560, Note_on_c, 0, 50, 0
5, 16560, Note_on_c, 0, 51, 64
5, 16680, Note_on_c, 0, 51, 0
5, 16680, Note_on_c, 0, 50, 64
5, 16740, Note_on_c, 0, 50, 0
5, 16740, Note_on_c, 0, 48, 64
5, 16800, Note_on_c, 0, 48, 0
5, 16800, Note_on_c, 0, 50, 64
5, 16920, Note_on_c, 0, 50, 0
5, 16920, Note_on_c, 0, 48, 64
5, 16980, Note_on_c, 0, 48, 0
5, 16980, Note_on_c, 0, 46, 64
5, 17040, Note_on_c, 0, 46, 0
5, 17040, Note_on_c, 0, 48, 64
5, 17160, Note_on_c, 0, 48, 0
5, 17160, Note_on_c, 0, 50, 64
5, 17280, Note_on_c, 0, 50, 0
5, 17280, Note_on_c, 0, 51, 64
5, 17400, Note_on_c, 0, 51, 0
5, 17400, Note_on_c, 0, 50, 64
5, 17460, Note_on_c, 0, 50, 0
5, 17460, Note_on_c, 0, 48, 64
5, 17520, Note_on_c, 0, 48, 0
5, 17520, Note_on_c, 0, 50, 64
5, 17640, Note_on_c, 0, 50, 0
5, 17640, Note_on_c, 0, 52, 64
5, 17760, Note_on_c, 0, 52, 0
5, 17760, Note_on_c, 0, 53, 64
5, 17880, Note_on_c, 0, 53, 0
5, 17880, Note_on_c, 0, 41, 64
5, 17940, Note_on_c, 0, 41, 0
5, 17940, Note_on_c, 0, 43, 64
5, 18000, Note_on_c, 0, 43, 0
5, 18000, Note_on_c, 0, 44, 64
5, 18120, Note_on_c, 0, 44, 0
5, 18120, Note_on_c, 0, 43, 64
5, 18180, Note_on_c, 0, 43, 0
5, 18180, Note_on_c, 0, 41, 64
5, 18240, Note_on_c, 0, 41, 0
5, 18240, Note_on_c, 0, 43, 64
5, 18360, Note_on_c, 0, 43, 0
5, 18360, Note_on_c, 0, 55, 64
5, 18480, Note_on_c, 0, 55, 0
5, 18480, Note_on_c, 0, 56, 64
5, 18600, Note_on_c, 0, 56, 0
5, 18600, Note_on_c, 0, 48, 64
5, 18720, Note_on_c, 0, 48, 0
5, 18720, Note_on_c, 0, 47, 64
5, 18960, Note_on_c, 0, 47, 0
5, 18960, Note_on_c, 0, 48, 64
5, 19200, Note_on_c, 0, 48, 0
5, 19320, Note_on_c, 0, 50, 64
5, 19380, Note_on_c, 0, 50, 0
5, 19380, Note_on_c, 0, 51, 64
5, 19440, Note_on_c, 0, 51, 0
5, 19440, Note_on_c, 0, 53, 64
5, 19560, Note_on_c, 0, 53, 0
5, 19560, Note_on_c, 0, 51, 64
5, 19620, Note_on_c, 0, 51, 0
5, 19620, Note_on_c, 0, 50, 64
5, 19680, Note_on_c, 0, 50, 0
5, 19680, Note_on_c, 0, 51, 64
5, 19800, Note_on_c, 0, 51, 0
5, 19800, Note_on_c, 0, 52, 64
5, 19920, Note_on_c, 0, 52, 0
5, 19920, Note_on_c, 0, 53, 64
5, 20040, Note_on_c, 0, 53, 0
5, 20040, Note_on_c, 0, 54, 64
5, 20160, Note_on_c, 0, 54, 0
5, 20160, Note_on_c, 0, 55, 64
5, 20220, Note_on_c, 0, 55, 0
5, 20220, Note_on_c, 0, 56, 64
5, 20280, Note_on_c, 0, 56, 0
5, 20280, Note_on_c, 0, 55, 64
5, 20340, Note_on_c, 0, 55, 0
5, 20340, Note_on_c, 0, 53, 64
5, 20400, Note_on_c, 0, 53, 0
5, 20400, Note_on_c, 0, 51, 64
5, 20520, Note_on_c, 0, 51, 0
5, 20520, Note_on_c, 0, 53, 64
5, 20580, Note_on_c, 0, 53, 0
5, 20580, Note_on_c, 0, 55, 64
5, 20640, Note_on_c, 0, 55, 0
5, 20640, Note_on_c, 0, 56, 64
5, 20760, Note_on_c, 0, 56, 0
5, 20760, Note_on_c, 0, 53, 64
5, 20880, Note_on_c, 0, 53, 0
5, 20880, Note_on_c, 0, 50, 64
5, 21000, Note_on_c, 0, 50, 0
5, 21000, Note_on_c, 0, 59, 64
5, 21120, Note_on_c, 0, 59, 0
5, 21120, Note_on_c, 0, 60, 64
5, 21420, Note_on_c, 0, 60, 0
5, 21420, Note_on_c, 0, 62, 64
5, 21480, Note_on_c, 0, 62, 0
5, 21480, Note_on_c, 0, 60, 64
5, 21540, Note_on_c, 0, 60, 0
5, 21540, Note_on_c, 0, 58, 64
5, 21600, Note_on_c, 0, 58, 0
5, 21600, Note_on_c, 0, 57, 64
5, 21660, Note_on_c, 0, 57, 0
5, 21660, Note_on_c, 0, 50, 64
5, 21720, Note_on_c, 0, 50, 0
5, 21720, Note_on_c, 0, 48, 64
5, 21780, Note_on_c, 0, 48, 0
5, 21780, Note_on_c, 0, 50, 64
5, 21840, Note_on_c, 0, 50, 0
5, 21840, Note_on_c, 0, 51, 64
5, 21900, Note_on_c, 0, 51, 0
5, 21900, Note_on_c, 0, 50, 64
5, 21960, Note_on_c, 0, 50, 0
5, 21960, Note_on_c, 0, 48, 64
5, 22020, Note_on_c, 0, 48, 0
5, 22020, Note_on_c, 0, 46, 64
5, 22080, Note_on_c, 0, 46, 0
5, 22080, Note_on_c, 0, 45, 64
5, 22200, Note_on_c, 0, 45, 0
5, 22200, Note_on_c, 0, 48, 64
5, 22320, Note_on_c, 0, 48, 0
5, 22320, Note_on_c, 0, 50, 64
5, 22440, Note_on_c, 0, 50, 0
5, 22440, Note_on_c, 0, 38, 64
5, 22560, Note_on_c, 0, 38, 0
5, 22560, Note_on_c, 0, 43, 64
5, 22680, Note_on_c, 0, 43, 0
5, 22680, Note_on_c, 0, 55, 64
5, 22740, Note_on_c, 0, 55, 0
5, 22740, Note_on_c, 0, 57, 64
5, 22800, Note_on_c, 0, 57, 0
5, 22800, Note_on_c, 0, 58, 64
5, 22920, Note_on_c, 0, 58, 0
5, 22920, Note_on_c, 0, 57, 64
5, 22980, Note_on_c, 0, 57, 0
5, 22980, Note_on_c, 0, 55, 64
5, 23040, Note_on_c, 0, 55, 0
5, 23040, Note_on_c, 0, 62, 64
5, 23160, Note_on_c, 0, 62, 0
5, 23160, Note_on_c, 0, 50, 64
5, 23220, Note_on_c, 0, 50, 0
5, 23220, Note_on_c, 0, 51, 64
5, 23280, Note_on_c, 0, 51, 0
5, 23280, Note_on_c, 0, 53, 64
5, 23400, Note_on_c, 0, 53, 0
5, 23400, Note_on_c, 0, 51, 64
5, 23460, Note_on_c, 0, 51, 0
5, 23460, Note_on_c, 0, 50, 64
5, 23520, Note_on_c, 0, 50, 0
5, 23520, Note_on_c, 0, 39, 64
5, 23640, Note_on_c, 0, 39, 0
5, 23640, Note_on_c, 0, 51, 64
5, 23700, Note_on_c, 0, 51, 0
5, 23700, Note_on_c, 0, 53, 64
5, 23760, Note_on_c, 0, 53, 0
5, 23760, Note_on_c, 0, 55, 64
5, 23880, Note_on_c, 0, 55, 0
5, 23880, Note_on_c, 0, 53, 64
5, 23940, Note_on_c, 0, 53, 0
5, 23940, Note_on_c, 0, 51, 64
5, 24000, Note_on_c, 0, 51, 0
5, 24000, Note_on_c, 0, 58, 64
5, 24120, Note_on_c, 0, 58, 0
5, 24120, Note_on_c, 0, 46, 64
5, 24180, Note_on_c, 0, 46, 0
5, 24180, Note_on_c, 0, 48, 64
5, 24240, Note_on_c, 0, 48, 0
5, 24240, Note_on_c, 0, 50, 64
5, 24360, Note_on_c, 0, 50, 0
5, 24360, Note_on_c, 0, 48, 64
5, 24420, Note_on_c, 0, 48, 0
5, 24420, Note_on_c, 0, 46, 64
5, 24480, Note_on_c, 0, 46, 0
5, 24480, Note_on_c, 0, 36, 64
5, 24600, Note_on_c, 0, 36, 0
5, 24600, Note_on_c, 0, 48, 64
5, 24660, Note_on_c, 0, 48, 0
5, 24660, Note_on_c, 0, 50, 64
5, 24720, Note_on_c, 0, 50, 0
5, 24720, Note_on_c, 0, 51, 64
5, 24840, Note_on_c, 0, 51, 0
5, 24840, Note_on_c, 0, 50, 64
5, 24900, Note_on_c, 0, 50, 0
5, 24900, Note_on_c, 0, 48, 64
5, 24960, Note_on_c, 0, 48, 0
5, 24960, Note_on_c, 0, 55, 64
5, 25080, Note_on_c, 0, 55, 0
5, 25080, Note_on_c, 0, 43, 64
5, 25140, Note_on_c, 0, 43, 0
5, 25140, Note_on_c, 0, 45, 64
5, 25200, Note_on_c, 0, 45, 0
5, 25200, Note_on_c, 0, 46, 64
5, 25320, Note_on_c, 0, 46, 0
5, 25320, Note_on_c, 0, 45, 64
5, 25380, Note_on_c, 0, 45, 0
5, 25380, Note_on_c, 0, 43, 64
5, 25440, Note_on_c, 0, 43, 0
5, 25440, Note_on_c, 0, 51, 64
5, 25920, Note_on_c, 0, 51, 0
5, 25920, Note_on_c, 0, 50, 64
5, 26160, Note_on_c, 0, 50, 0
5, 27000, Note_on_c, 0, 50, 64
5, 27120, Note_on_c, 0, 50, 0
5, 27120, Note_on_c, 0, 51, 64
5, 27240, Note_on_c, 0, 51, 0
5, 27240, Note_on_c, 0, 43, 64
5, 27360, Note_on_c, 0, 43, 0
5, 27360, Note_on_c, 0, 42, 64
5, 27600, Note_on_c, 0, 42, 0
5, 27600, Note_on_c, 0, 43, 64
5, 27840, Note_on_c, 0, 43, 0
5, 27840, Note_on_c, 0, 38, 64
5, 27960, Note_on_c, 0, 38, 0
5, 27960, Note_on_c, 0, 50, 64
5, 28020, Note_on_c, 0, 50, 0
5, 28020, Note_on_c, 0, 48, 64
5, 28080, Note_on_c, 0, 48, 0
5, 28080, Note_on_c, 0, 46, 64
5, 28200, Note_on_c, 0, 46, 0
5, 28200, Note_on_c, 0, 48, 64
5, 28260, Note_on_c, 0, 48, 0
5, 28260, Note_on_c, 0, 50, 64
5, 28320, Note_on_c, 0, 50, 0
5, 28320, Note_on_c, 0, 51, 64
5, 28910, Note_on_c, 0, 51, 0
5, 28920, Note_on_c, 0, 51, 64
5, 28980, Note_on_c, 0, 51, 0
5, 28980, Note_on_c, 0, 50, 64
5, 29040, Note_on_c, 0, 50, 0
5, 29040, Note_on_c, 0, 48, 64
5, 29160, Note_on_c, 0, 48, 0
5, 29160, Note_on_c, 0, 50, 64
5, 29220, Note_on_c, 0, 50, 0
5, 29220, Note_on_c, 0, 51, 64
5, 29280, Note_on_c, 0, 51, 0
5, 29280, Note_on_c, 0, 42, 64
5, 29400, Note_on_c, 0, 42, 0
5, 29400, Note_on_c, 0, 45, 64
5, 29460, Note_on_c, 0, 45, 0
5, 29460, Note_on_c, 0, 43, 64
5, 29520, Note_on_c, 0, 43, 0
5, 29520, Note_on_c, 0, 42, 64
5, 29640, Note_on_c, 0, 42, 0
5, 29640, Note_on_c, 0, 43, 64
5, 29700, Note_on_c, 0, 43, 0
5, 29700, Note_on_c, 0, 45, 64
5, 29760, Note_on_c, 0, 45, 0
5, 29760, Note_on_c, 0, 38, 64
5, 29880, Note_on_c, 0, 38, 0
5, 29880, Note_on_c, 0, 50, 64
5, 29940, Note_on_c, 0, 50, 0
5, 29940, Note_on_c, 0, 48, 64
5, 30000, Note_on_c, 0, 48, 0
5, 30000, Note_on_c, 0, 46, 64
5, 30120, Note_on_c, 0, 46, 0
5, 30120, Note_on_c, 0, 48, 64
5, 30180, Note_on_c, 0, 48, 0
5, 30180, Note_on_c, 0, 50, 64
5, 30240, Note_on_c, 0, 50, 0
5, 30240, Note_on_c, 0, 51, 64
5, 30360, Note_on_c, 0, 51, 0
5, 30360, Note_on_c, 0, 48, 64
5, 30480, Note_on_c, 0, 48, 0
5, 30480, Note_on_c, 0, 45, 64
5, 30600, Note_on_c, 0, 45, 0
5, 30600, Note_on_c, 0, 54, 64
5, 30720, Note_on_c, 0, 54, 0
5, 30720, Note_on_c, 0, 55, 64
5, 30840, Note_on_c, 0, 55, 0
5, 30840, Note_on_c, 0, 53, 64
5, 30960, Note_on_c, 0, 53, 0
5, 30960, Note_on_c, 0, 51, 64
5, 31080, Note_on_c, 0, 51, 0
5, 31080, Note_on_c, 0, 50, 64
5, 31200, Note_on_c, 0, 50, 0
5, 31200, Note_on_c, 0, 48, 64
5, 31320, Note_on_c, 0, 48, 0
5, 31320, Note_on_c, 0, 46, 64
5, 31440, Note_on_c, 0, 46, 0
5, 31440, Note_on_c, 0, 45, 64
5, 31560, Note_on_c, 0, 45, 0
5, 31560, Note_on_c, 0, 43, 64
5, 31680, Note_on_c, 0, 43, 0
5, 31680, Note_on_c, 0, 48, 64
5, 31800, Note_on_c, 0, 48, 0
5, 31800, Note_on_c, 0, 45, 64
5, 31920, Note_on_c, 0, 45, 0
5, 31920, Note_on_c, 0, 50, 64
5, 32040, Note_on_c, 0, 50, 0
5, 32040, Note_on_c, 0, 38, 64
5, 32160, Note_on_c, 0, 38, 0
5, 32160, Note_on_c, 0, 43, 64
5, 32640, Note_on_c, 0, 43, 0
5, 32640, End_track
0, 0, End_of_file
