0, 0, Header, 1, 19, 240
1, 0, Start_track
1, 0, Sequencer_specific, 10, 0, 0, 91, 35, 1, 0, 5, 6, 42, 0
1, 0, Title_t, "J. S. Bach - Orchestral Suite No.4 in D Major BWV1069"
1, 0, Instrument_name_t, "Conductor Track"
1, 0, SMPTE_offset, 96, 0, 3, 0, 0
1, 0, MIDI_port, 0
1, 0, Marker_t, "Originally Sequenced 23 Dec 1999"
1, 0, Tempo, 357142
1, 0, Key_signature, 2, "major"
1, 0, Time_signature, 1, 2, 24, 8
1, 240, Time_signature, 4, 2, 24, 8
1, 44160, Tempo, 357142
1, 44213, Tempo, 359281
1, 44267, Tempo, 361445
1, 44320, Tempo, 363636
1, 44373, Tempo, 365853
1, 44427, Tempo, 368098
1, 44480, Tempo, 370370
1, 44533, Tempo, 372670
1, 44587, Tempo, 375000
1, 44640, Tempo, 377358
1, 44693, Tempo, 379746
1, 44747, Tempo, 382165
1, 44800, Tempo, 384615
1, 44853, Tempo, 387096
1, 44907, Tempo, 389610
1, 44960, Tempo, 392156
1, 45013, Tempo, 394736
1, 45067, Tempo, 397350
1, 45120, Tempo, 400000
1, 45173, Tempo, 402684
1, 45227, Tempo, 405405
1, 45280, Tempo, 408163
1, 45333, Tempo, 410958
1, 45360, Time_signature, 5, 2, 24, 8
1, 45387, Tempo, 413793
1, 45440, Tempo, 416666
1, 45493, Tempo, 419580
1, 45547, Tempo, 422535
1, 45600, Tempo, 425531
1, 45653, Tempo, 428571
1, 45707, Tempo, 431654
1, 45760, Tempo, 434782
1, 45813, Tempo, 437956
1, 45867, Tempo, 441176
1, 45920, Tempo, 444444
1, 45973, Tempo, 447761
1, 46027, Tempo, 451127
1, 46080, Tempo, 3000000
1, 46320, Tempo, 357142
1, 46560, Time_signature, 4, 2, 24, 8
1, 98400, Tempo, 357142
1, 98447, Tempo, 359281
1, 98493, Tempo, 361445
1, 98540, Tempo, 363636
1, 98587, Tempo, 365853
1, 98633, Tempo, 368098
1, 98680, Tempo, 370370
1, 98727, Tempo, 372670
1, 98773, Tempo, 375000
1, 98820, Tempo, 377358
1, 98867, Tempo, 379746
1, 98913, Tempo, 382165
1, 98960, Tempo, 384615
1, 99007, Tempo, 387096
1, 99053, Tempo, 389610
1, 99100, Tempo, 392156
1, 99147, Tempo, 394736
1, 99193, Tempo, 397350
1, 99240, Tempo, 400000
1, 99287, Tempo, 402684
1, 99333, Tempo, 405405
1, 99360, Time_signature, 5, 2, 24, 8
1, 99380, Tempo, 408163
1, 99427, Tempo, 410958
1, 99473, Tempo, 413793
1, 99520, Tempo, 416666
1, 99567, Tempo, 419580
1, 99613, Tempo, 422535
1, 99660, Tempo, 425531
1, 99707, Tempo, 428571
1, 99753, Tempo, 431654
1, 99800, Tempo, 434782
1, 99847, Tempo, 437956
1, 99893, Tempo, 441176
1, 99940, Tempo, 444444
1, 99987, Tempo, 447761
1, 100033, Tempo, 451127
1, 100080, Tempo, 3000000
1, 100320, Tempo, 357142
1, 100560, Time_signature, 4, 2, 24, 8
1, 144480, Tempo, 357142
1, 144533, Tempo, 359281
1, 144587, Tempo, 361445
1, 144640, Tempo, 363636
1, 144693, Tempo, 365853
1, 144747, Tempo, 368098
1, 144800, Tempo, 370370
1, 144853, Tempo, 372670
1, 144907, Tempo, 375000
1, 144960, Tempo, 377358
1, 145013, Tempo, 379746
1, 145067, Tempo, 382165
1, 145120, Tempo, 384615
1, 145173, Tempo, 387096
1, 145227, Tempo, 389610
1, 145280, Tempo, 392156
1, 145333, Tempo, 394736
1, 145387, Tempo, 397350
1, 145440, Tempo, 400000
1, 145493, Tempo, 402684
1, 145547, Tempo, 405405
1, 145600, Tempo, 408163
1, 145653, Tempo, 410958
1, 145707, Tempo, 413793
1, 145760, Tempo, 416666
1, 145813, Tempo, 419580
1, 145867, Tempo, 422535
1, 145920, Tempo, 425531
1, 145973, Tempo, 428571
1, 146027, Tempo, 431654
1, 146080, Tempo, 434782
1, 146133, Tempo, 437956
1, 146187, Tempo, 441176
1, 146240, Tempo, 444444
1, 146293, Tempo, 447761
1, 146347, Tempo, 451127
1, 146400, Tempo, 3000000
1, 146880, Tempo, 3000000
1, 146880, End_track
2, 0, Start_track
2, 0, Title_t, "2nd Movement - Bourrée I and II"
2, 0, MIDI_port, 0
2, 0, End_track
3, 0, Start_track
3, 0, Title_t, "Sequenced by D. L. Viens 31 Dec 1999"
3, 0, MIDI_port, 0
3, 0, End_track
4, 0, Start_track
4, 0, Title_t, "dlviens@empire.net"
4, 0, MIDI_port, 0
4, 0, End_track
5, 0, Start_track
5, 0, MIDI_port, 0
5, 0, End_track
6, 0, Start_track
6, 0, Title_t, "Trumpet I in D"
6, 0, MIDI_port, 0
6, 0, Program_c, 0, 56
6, 0, Control_c, 0, 10, 54
6, 0, Control_c, 0, 11, 127
6, 0, Control_c, 0, 7, 96
6, 0, Note_on_c, 0, 78, 76
6, 104, Note_on_c, 0, 78, 0
6, 120, Note_on_c, 0, 76, 76
6, 224, Note_on_c, 0, 76, 0
6, 240, Note_on_c, 0, 78, 76
6, 464, Note_on_c, 0, 78, 0
6, 480, Note_on_c, 0, 79, 76
6, 824, Note_on_c, 0, 79, 0
6, 840, Note_on_c, 0, 78, 76
6, 944, Note_on_c, 0, 78, 0
6, 960, Note_on_c, 0, 76, 76
6, 1064, Note_on_c, 0, 76, 0
6, 1080, Note_on_c, 0, 74, 76
6, 1184, Note_on_c, 0, 74, 0
6, 1200, Note_on_c, 0, 81, 76
6, 1424, Note_on_c, 0, 81, 0
6, 1440, Note_on_c, 0, 74, 76
6, 1919, Note_on_c, 0, 74, 0
6, 7680, Note_on_c, 0, 78, 76
6, 7784, Note_on_c, 0, 78, 0
6, 7800, Note_on_c, 0, 76, 76
6, 7904, Note_on_c, 0, 76, 0
6, 7920, Note_on_c, 0, 78, 76
6, 8144, Note_on_c, 0, 78, 0
6, 8160, Note_on_c, 0, 79, 76
6, 8504, Note_on_c, 0, 79, 0
6, 8520, Note_on_c, 0, 78, 76
6, 8624, Note_on_c, 0, 78, 0
6, 8640, Note_on_c, 0, 76, 76
6, 8744, Note_on_c, 0, 76, 0
6, 8760, Note_on_c, 0, 74, 76
6, 8864, Note_on_c, 0, 74, 0
6, 8880, Note_on_c, 0, 81, 76
6, 9104, Note_on_c, 0, 81, 0
6, 9120, Note_on_c, 0, 74, 76
6, 9599, Note_on_c, 0, 74, 0
6, 28800, Note_on_c, 0, 81, 76
6, 28904, Note_on_c, 0, 81, 0
6, 28920, Note_on_c, 0, 83, 76
6, 29024, Note_on_c, 0, 83, 0
6, 29040, Note_on_c, 0, 81, 76
6, 29264, Note_on_c, 0, 81, 0
6, 29280, Note_on_c, 0, 79, 76
6, 29504, Note_on_c, 0, 79, 0
6, 29520, Note_on_c, 0, 78, 76
6, 29744, Note_on_c, 0, 78, 0
6, 29760, Note_on_c, 0, 76, 76
6, 29984, Note_on_c, 0, 76, 0
6, 30000, Note_on_c, 0, 74, 76
6, 30719, Note_on_c, 0, 74, 0
6, 44160, Note_on_c, 0, 81, 76
6, 44264, Note_on_c, 0, 81, 0
6, 44280, Note_on_c, 0, 83, 76
6, 44384, Note_on_c, 0, 83, 0
6, 44400, Note_on_c, 0, 81, 76
6, 44624, Note_on_c, 0, 81, 0
6, 44640, Note_on_c, 0, 79, 76
6, 44864, Note_on_c, 0, 79, 0
6, 44880, Note_on_c, 0, 78, 76
6, 45104, Note_on_c, 0, 78, 0
6, 45120, Note_on_c, 0, 76, 76
6, 45344, Note_on_c, 0, 76, 0
6, 45360, Note_on_c, 0, 74, 76
6, 46079, Note_on_c, 0, 74, 0
6, 100320, Note_on_c, 0, 78, 76
6, 100424, Note_on_c, 0, 78, 0
6, 100440, Note_on_c, 0, 76, 76
6, 100544, Note_on_c, 0, 76, 0
6, 100560, Note_on_c, 0, 78, 76
6, 100784, Note_on_c, 0, 78, 0
6, 100800, Note_on_c, 0, 79, 76
6, 101144, Note_on_c, 0, 79, 0
6, 101160, Note_on_c, 0, 78, 76
6, 101264, Note_on_c, 0, 78, 0
6, 101280, Note_on_c, 0, 76, 76
6, 101384, Note_on_c, 0, 76, 0
6, 101400, Note_on_c, 0, 74, 76
6, 101504, Note_on_c, 0, 74, 0
6, 101520, Note_on_c, 0, 81, 76
6, 101744, Note_on_c, 0, 81, 0
6, 101760, Note_on_c, 0, 74, 76
6, 102239, Note_on_c, 0, 74, 0
6, 108000, Note_on_c, 0, 78, 76
6, 108104, Note_on_c, 0, 78, 0
6, 108120, Note_on_c, 0, 76, 76
6, 108224, Note_on_c, 0, 76, 0
6, 108240, Note_on_c, 0, 78, 76
6, 108464, Note_on_c, 0, 78, 0
6, 108480, Note_on_c, 0, 79, 76
6, 108824, Note_on_c, 0, 79, 0
6, 108840, Note_on_c, 0, 78, 76
6, 108944, Note_on_c, 0, 78, 0
6, 108960, Note_on_c, 0, 76, 76
6, 109064, Note_on_c, 0, 76, 0
6, 109080, Note_on_c, 0, 74, 76
6, 109184, Note_on_c, 0, 74, 0
6, 109200, Note_on_c, 0, 81, 76
6, 109424, Note_on_c, 0, 81, 0
6, 109440, Note_on_c, 0, 74, 76
6, 109919, Note_on_c, 0, 74, 0
6, 129120, Note_on_c, 0, 81, 76
6, 129224, Note_on_c, 0, 81, 0
6, 129240, Note_on_c, 0, 83, 76
6, 129344, Note_on_c, 0, 83, 0
6, 129360, Note_on_c, 0, 81, 76
6, 129584, Note_on_c, 0, 81, 0
6, 129600, Note_on_c, 0, 79, 76
6, 129824, Note_on_c, 0, 79, 0
6, 129840, Note_on_c, 0, 78, 76
6, 130064, Note_on_c, 0, 78, 0
6, 130080, Note_on_c, 0, 76, 76
6, 130304, Note_on_c, 0, 76, 0
6, 130320, Note_on_c, 0, 74, 76
6, 131039, Note_on_c, 0, 74, 0
6, 144480, Note_on_c, 0, 81, 76
6, 144584, Note_on_c, 0, 81, 0
6, 144600, Note_on_c, 0, 83, 76
6, 144704, Note_on_c, 0, 83, 0
6, 144720, Note_on_c, 0, 81, 76
6, 144944, Note_on_c, 0, 81, 0
6, 144960, Note_on_c, 0, 79, 76
6, 145184, Note_on_c, 0, 79, 0
6, 145200, Note_on_c, 0, 78, 76
6, 145424, Note_on_c, 0, 78, 0
6, 145440, Note_on_c, 0, 76, 76
6, 145664, Note_on_c, 0, 76, 0
6, 145680, Note_on_c, 0, 74, 76
6, 146399, Note_on_c, 0, 74, 0
6, 146399, End_track
7, 0, Start_track
7, 0, Title_t, "Trumpet II in D"
7, 0, MIDI_port, 0
7, 0, Program_c, 1, 56
7, 0, Control_c, 1, 10, 64
7, 0, Control_c, 1, 11, 127
7, 0, Control_c, 1, 7, 96
7, 0, Note_on_c, 1, 74, 76
7, 224, Note_on_c, 1, 74, 0
7, 240, Note_on_c, 1, 74, 76
7, 464, Note_on_c, 1, 74, 0
7, 720, Note_on_c, 1, 74, 76
7, 944, Note_on_c, 1, 74, 0
7, 1200, Note_on_c, 1, 74, 76
7, 1424, Note_on_c, 1, 74, 0
7, 1440, Note_on_c, 1, 69, 76
7, 1919, Note_on_c, 1, 69, 0
7, 7680, Note_on_c, 1, 74, 76
7, 7904, Note_on_c, 1, 74, 0
7, 7920, Note_on_c, 1, 74, 76
7, 8144, Note_on_c, 1, 74, 0
7, 8400, Note_on_c, 1, 74, 76
7, 8624, Note_on_c, 1, 74, 0
7, 8880, Note_on_c, 1, 74, 76
7, 9104, Note_on_c, 1, 74, 0
7, 9120, Note_on_c, 1, 69, 76
7, 9599, Note_on_c, 1, 69, 0
7, 28800, Note_on_c, 1, 78, 76
7, 28904, Note_on_c, 1, 78, 0
7, 28920, Note_on_c, 1, 79, 76
7, 29024, Note_on_c, 1, 79, 0
7, 29040, Note_on_c, 1, 78, 76
7, 29264, Note_on_c, 1, 78, 0
7, 29280, Note_on_c, 1, 76, 76
7, 29504, Note_on_c, 1, 76, 0
7, 29520, Note_on_c, 1, 74, 76
7, 29744, Note_on_c, 1, 74, 0
7, 29760, Note_on_c, 1, 69, 76
7, 29984, Note_on_c, 1, 69, 0
7, 30000, Note_on_c, 1, 69, 76
7, 30719, Note_on_c, 1, 69, 0
7, 44160, Note_on_c, 1, 78, 76
7, 44264, Note_on_c, 1, 78, 0
7, 44280, Note_on_c, 1, 79, 76
7, 44384, Note_on_c, 1, 79, 0
7, 44400, Note_on_c, 1, 78, 76
7, 44624, Note_on_c, 1, 78, 0
7, 44640, Note_on_c, 1, 76, 76
7, 44864, Note_on_c, 1, 76, 0
7, 44880, Note_on_c, 1, 74, 76
7, 45104, Note_on_c, 1, 74, 0
7, 45120, Note_on_c, 1, 69, 76
7, 45344, Note_on_c, 1, 69, 0
7, 45360, Note_on_c, 1, 69, 76
7, 46079, Note_on_c, 1, 69, 0
7, 100320, Note_on_c, 1, 74, 76
7, 100544, Note_on_c, 1, 74, 0
7, 100560, Note_on_c, 1, 74, 76
7, 100784, Note_on_c, 1, 74, 0
7, 101040, Note_on_c, 1, 74, 76
7, 101264, Note_on_c, 1, 74, 0
7, 101520, Note_on_c, 1, 74, 76
7, 101744, Note_on_c, 1, 74, 0
7, 101760, Note_on_c, 1, 69, 76
7, 102239, Note_on_c, 1, 69, 0
7, 108000, Note_on_c, 1, 74, 76
7, 108224, Note_on_c, 1, 74, 0
7, 108240, Note_on_c, 1, 74, 76
7, 108464, Note_on_c, 1, 74, 0
7, 108720, Note_on_c, 1, 74, 76
7, 108944, Note_on_c, 1, 74, 0
7, 109200, Note_on_c, 1, 74, 76
7, 109424, Note_on_c, 1, 74, 0
7, 109440, Note_on_c, 1, 69, 76
7, 109919, Note_on_c, 1, 69, 0
7, 129120, Note_on_c, 1, 78, 76
7, 129224, Note_on_c, 1, 78, 0
7, 129240, Note_on_c, 1, 79, 76
7, 129344, Note_on_c, 1, 79, 0
7, 129360, Note_on_c, 1, 78, 76
7, 129584, Note_on_c, 1, 78, 0
7, 129600, Note_on_c, 1, 76, 76
7, 129824, Note_on_c, 1, 76, 0
7, 129840, Note_on_c, 1, 74, 76
7, 130064, Note_on_c, 1, 74, 0
7, 130080, Note_on_c, 1, 69, 76
7, 130304, Note_on_c, 1, 69, 0
7, 130320, Note_on_c, 1, 69, 76
7, 131039, Note_on_c, 1, 69, 0
7, 144480, Note_on_c, 1, 78, 76
7, 144584, Note_on_c, 1, 78, 0
7, 144600, Note_on_c, 1, 79, 76
7, 144704, Note_on_c, 1, 79, 0
7, 144720, Note_on_c, 1, 78, 76
7, 144944, Note_on_c, 1, 78, 0
7, 144960, Note_on_c, 1, 76, 76
7, 145184, Note_on_c, 1, 76, 0
7, 145200, Note_on_c, 1, 74, 76
7, 145424, Note_on_c, 1, 74, 0
7, 145440, Note_on_c, 1, 69, 76
7, 145664, Note_on_c, 1, 69, 0
7, 145680, Note_on_c, 1, 69, 76
7, 146399, Note_on_c, 1, 69, 0
7, 146399, End_track
8, 0, Start_track
8, 0, Title_t, "Trumpet III in D"
8, 0, MIDI_port, 0
8, 0, Program_c, 2, 56
8, 0, Control_c, 2, 10, 74
8, 0, Control_c, 2, 11, 127
8, 0, Control_c, 2, 7, 96
8, 0, Note_on_c, 2, 69, 76
8, 224, Note_on_c, 2, 69, 0
8, 240, Note_on_c, 2, 62, 76
8, 464, Note_on_c, 2, 62, 0
8, 720, Note_on_c, 2, 62, 76
8, 944, Note_on_c, 2, 62, 0
8, 1200, Note_on_c, 2, 62, 76
8, 1424, Note_on_c, 2, 62, 0
8, 1440, Note_on_c, 2, 66, 76
8, 1919, Note_on_c, 2, 66, 0
8, 7680, Note_on_c, 2, 69, 76
8, 7904, Note_on_c, 2, 69, 0
8, 7920, Note_on_c, 2, 62, 76
8, 8144, Note_on_c, 2, 62, 0
8, 8400, Note_on_c, 2, 62, 76
8, 8624, Note_on_c, 2, 62, 0
8, 8880, Note_on_c, 2, 62, 76
8, 9104, Note_on_c, 2, 62, 0
8, 9120, Note_on_c, 2, 66, 76
8, 9599, Note_on_c, 2, 66, 0
8, 28800, Note_on_c, 2, 69, 76
8, 28904, Note_on_c, 2, 69, 0
8, 28920, Note_on_c, 2, 69, 76
8, 29024, Note_on_c, 2, 69, 0
8, 29040, Note_on_c, 2, 69, 76
8, 29264, Note_on_c, 2, 69, 0
8, 29760, Note_on_c, 2, 69, 76
8, 29864, Note_on_c, 2, 69, 0
8, 29880, Note_on_c, 2, 69, 76
8, 29984, Note_on_c, 2, 69, 0
8, 30000, Note_on_c, 2, 66, 76
8, 30719, Note_on_c, 2, 66, 0
8, 44160, Note_on_c, 2, 69, 76
8, 44264, Note_on_c, 2, 69, 0
8, 44280, Note_on_c, 2, 69, 76
8, 44384, Note_on_c, 2, 69, 0
8, 44400, Note_on_c, 2, 69, 76
8, 44624, Note_on_c, 2, 69, 0
8, 45120, Note_on_c, 2, 69, 76
8, 45224, Note_on_c, 2, 69, 0
8, 45240, Note_on_c, 2, 69, 76
8, 45344, Note_on_c, 2, 69, 0
8, 45360, Note_on_c, 2, 66, 76
8, 46079, Note_on_c, 2, 66, 0
8, 100320, Note_on_c, 2, 69, 76
8, 100544, Note_on_c, 2, 69, 0
8, 100560, Note_on_c, 2, 62, 76
8, 100784, Note_on_c, 2, 62, 0
8, 101040, Note_on_c, 2, 62, 76
8, 101264, Note_on_c, 2, 62, 0
8, 101520, Note_on_c, 2, 62, 76
8, 101744, Note_on_c, 2, 62, 0
8, 101760, Note_on_c, 2, 66, 76
8, 102239, Note_on_c, 2, 66, 0
8, 108000, Note_on_c, 2, 69, 76
8, 108224, Note_on_c, 2, 69, 0
8, 108240, Note_on_c, 2, 62, 76
8, 108464, Note_on_c, 2, 62, 0
8, 108720, Note_on_c, 2, 62, 76
8, 108944, Note_on_c, 2, 62, 0
8, 109200, Note_on_c, 2, 62, 76
8, 109424, Note_on_c, 2, 62, 0
8, 109440, Note_on_c, 2, 66, 76
8, 109919, Note_on_c, 2, 66, 0
8, 129120, Note_on_c, 2, 69, 76
8, 129224, Note_on_c, 2, 69, 0
8, 129240, Note_on_c, 2, 69, 76
8, 129344, Note_on_c, 2, 69, 0
8, 129360, Note_on_c, 2, 69, 76
8, 129584, Note_on_c, 2, 69, 0
8, 130080, Note_on_c, 2, 69, 76
8, 130184, Note_on_c, 2, 69, 0
8, 130200, Note_on_c, 2, 69, 76
8, 130304, Note_on_c, 2, 69, 0
8, 130320, Note_on_c, 2, 66, 76
8, 131039, Note_on_c, 2, 66, 0
8, 144480, Note_on_c, 2, 69, 76
8, 144584, Note_on_c, 2, 69, 0
8, 144600, Note_on_c, 2, 69, 76
8, 144704, Note_on_c, 2, 69, 0
8, 144720, Note_on_c, 2, 69, 76
8, 144944, Note_on_c, 2, 69, 0
8, 145440, Note_on_c, 2, 69, 76
8, 145544, Note_on_c, 2, 69, 0
8, 145560, Note_on_c, 2, 69, 76
8, 145664, Note_on_c, 2, 69, 0
8, 145680, Note_on_c, 2, 66, 76
8, 146399, Note_on_c, 2, 66, 0
8, 146399, End_track
9, 0, Start_track
9, 0, Title_t, "Timpani in D and A"
9, 0, MIDI_port, 0
9, 0, Program_c, 3, 47
9, 0, Control_c, 3, 10, 25
9, 0, Control_c, 3, 11, 127
9, 0, Control_c, 3, 7, 96
9, 0, Note_on_c, 3, 50, 76
9, 119, Note_on_c, 3, 50, 0
9, 120, Note_on_c, 3, 50, 76
9, 239, Note_on_c, 3, 50, 0
9, 240, Note_on_c, 3, 50, 76
9, 479, Note_on_c, 3, 50, 0
9, 720, Note_on_c, 3, 50, 76
9, 959, Note_on_c, 3, 50, 0
9, 1200, Note_on_c, 3, 50, 76
9, 1439, Note_on_c, 3, 50, 0
9, 1440, Note_on_c, 3, 50, 76
9, 1559, Note_on_c, 3, 50, 0
9, 1560, Note_on_c, 3, 50, 76
9, 1679, Note_on_c, 3, 50, 0
9, 1680, Note_on_c, 3, 50, 76
9, 1919, Note_on_c, 3, 50, 0
9, 7680, Note_on_c, 3, 50, 76
9, 7799, Note_on_c, 3, 50, 0
9, 7800, Note_on_c, 3, 50, 76
9, 7919, Note_on_c, 3, 50, 0
9, 7920, Note_on_c, 3, 50, 76
9, 8159, Note_on_c, 3, 50, 0
9, 8400, Note_on_c, 3, 50, 76
9, 8639, Note_on_c, 3, 50, 0
9, 8880, Note_on_c, 3, 50, 76
9, 9119, Note_on_c, 3, 50, 0
9, 9120, Note_on_c, 3, 50, 76
9, 9239, Note_on_c, 3, 50, 0
9, 9240, Note_on_c, 3, 50, 76
9, 9359, Note_on_c, 3, 50, 0
9, 9360, Note_on_c, 3, 50, 76
9, 9599, Note_on_c, 3, 50, 0
9, 28800, Note_on_c, 3, 45, 76
9, 28919, Note_on_c, 3, 45, 0
9, 28920, Note_on_c, 3, 45, 76
9, 29039, Note_on_c, 3, 45, 0
9, 29040, Note_on_c, 3, 50, 76
9, 29279, Note_on_c, 3, 50, 0
9, 29760, Note_on_c, 3, 45, 76
9, 29879, Note_on_c, 3, 45, 0
9, 29880, Note_on_c, 3, 45, 76
9, 29999, Note_on_c, 3, 45, 0
9, 30000, Note_on_c, 3, 50, 76
9, 30719, Note_on_c, 3, 50, 0
9, 44160, Note_on_c, 3, 45, 76
9, 44279, Note_on_c, 3, 45, 0
9, 44280, Note_on_c, 3, 45, 76
9, 44399, Note_on_c, 3, 45, 0
9, 44400, Note_on_c, 3, 50, 76
9, 44639, Note_on_c, 3, 50, 0
9, 45120, Note_on_c, 3, 45, 76
9, 45239, Note_on_c, 3, 45, 0
9, 45240, Note_on_c, 3, 45, 76
9, 45359, Note_on_c, 3, 45, 0
9, 45360, Note_on_c, 3, 50, 76
9, 46079, Note_on_c, 3, 50, 0
9, 100320, Note_on_c, 3, 50, 76
9, 100439, Note_on_c, 3, 50, 0
9, 100440, Note_on_c, 3, 50, 76
9, 100559, Note_on_c, 3, 50, 0
9, 100560, Note_on_c, 3, 50, 76
9, 100799, Note_on_c, 3, 50, 0
9, 101040, Note_on_c, 3, 50, 76
9, 101279, Note_on_c, 3, 50, 0
9, 101520, Note_on_c, 3, 50, 76
9, 101759, Note_on_c, 3, 50, 0
9, 101760, Note_on_c, 3, 50, 76
9, 101879, Note_on_c, 3, 50, 0
9, 101880, Note_on_c, 3, 50, 76
9, 101999, Note_on_c, 3, 50, 0
9, 102000, Note_on_c, 3, 50, 76
9, 102239, Note_on_c, 3, 50, 0
9, 108000, Note_on_c, 3, 50, 76
9, 108119, Note_on_c, 3, 50, 0
9, 108120, Note_on_c, 3, 50, 76
9, 108239, Note_on_c, 3, 50, 0
9, 108240, Note_on_c, 3, 50, 76
9, 108479, Note_on_c, 3, 50, 0
9, 108720, Note_on_c, 3, 50, 76
9, 108959, Note_on_c, 3, 50, 0
9, 109200, Note_on_c, 3, 50, 76
9, 109439, Note_on_c, 3, 50, 0
9, 109440, Note_on_c, 3, 50, 76
9, 109559, Note_on_c, 3, 50, 0
9, 109560, Note_on_c, 3, 50, 76
9, 109679, Note_on_c, 3, 50, 0
9, 109680, Note_on_c, 3, 50, 76
9, 109919, Note_on_c, 3, 50, 0
9, 129120, Note_on_c, 3, 45, 76
9, 129239, Note_on_c, 3, 45, 0
9, 129240, Note_on_c, 3, 45, 76
9, 129359, Note_on_c, 3, 45, 0
9, 129360, Note_on_c, 3, 50, 76
9, 129599, Note_on_c, 3, 50, 0
9, 130080, Note_on_c, 3, 45, 76
9, 130199, Note_on_c, 3, 45, 0
9, 130200, Note_on_c, 3, 45, 76
9, 130319, Note_on_c, 3, 45, 0
9, 130320, Note_on_c, 3, 50, 76
9, 131039, Note_on_c, 3, 50, 0
9, 144480, Note_on_c, 3, 45, 76
9, 144599, Note_on_c, 3, 45, 0
9, 144600, Note_on_c, 3, 45, 76
9, 144719, Note_on_c, 3, 45, 0
9, 144720, Note_on_c, 3, 50, 76
9, 144959, Note_on_c, 3, 50, 0
9, 145440, Note_on_c, 3, 45, 76
9, 145559, Note_on_c, 3, 45, 0
9, 145560, Note_on_c, 3, 45, 76
9, 145679, Note_on_c, 3, 45, 0
9, 145680, Note_on_c, 3, 50, 76
9, 146399, Note_on_c, 3, 50, 0
9, 146399, End_track
10, 0, Start_track
10, 0, Title_t, "Oboe I"
10, 0, MIDI_port, 0
10, 0, Program_c, 4, 68
10, 0, Control_c, 4, 10, 59
10, 0, Control_c, 4, 11, 127
10, 0, Control_c, 4, 7, 80
10, 0, Note_on_c, 4, 78, 76
10, 104, Note_on_c, 4, 78, 0
10, 120, Note_on_c, 4, 76, 76
10, 224, Note_on_c, 4, 76, 0
10, 240, Note_on_c, 4, 78, 76
10, 464, Note_on_c, 4, 78, 0
10, 480, Note_on_c, 4, 79, 76
10, 824, Note_on_c, 4, 79, 0
10, 840, Note_on_c, 4, 78, 76
10, 944, Note_on_c, 4, 78, 0
10, 960, Note_on_c, 4, 76, 76
10, 1064, Note_on_c, 4, 76, 0
10, 1080, Note_on_c, 4, 74, 76
10, 1184, Note_on_c, 4, 74, 0
10, 1200, Note_on_c, 4, 81, 76
10, 1424, Note_on_c, 4, 81, 0
10, 1440, Note_on_c, 4, 74, 76
10, 1904, Note_on_c, 4, 74, 0
10, 1920, Note_on_c, 4, 76, 76
10, 2024, Note_on_c, 4, 76, 0
10, 2040, Note_on_c, 4, 78, 76
10, 2144, Note_on_c, 4, 78, 0
10, 2160, Note_on_c, 4, 71, 76
10, 2399, Note_on_c, 4, 71, 0
10, 2400, Note_on_c, 4, 73, 76
10, 2624, Note_on_c, 4, 73, 0
10, 2640, Note_on_c, 4, 73, 76
10, 2759, Note_on_c, 4, 73, 0
10, 2760, Note_on_c, 4, 71, 76
10, 2864, Note_on_c, 4, 71, 0
10, 2880, Note_on_c, 4, 73, 76
10, 2999, Note_on_c, 4, 73, 0
10, 3000, Note_on_c, 4, 74, 76
10, 3104, Note_on_c, 4, 74, 0
10, 3120, Note_on_c, 4, 76, 76
10, 3344, Note_on_c, 4, 76, 0
10, 3360, Note_on_c, 4, 69, 76
10, 3824, Note_on_c, 4, 69, 0
10, 3840, Note_on_c, 4, 71, 76
10, 3944, Note_on_c, 4, 71, 0
10, 3960, Note_on_c, 4, 73, 76
10, 4064, Note_on_c, 4, 73, 0
10, 4080, Note_on_c, 4, 74, 76
10, 4199, Note_on_c, 4, 74, 0
10, 4200, Note_on_c, 4, 73, 76
10, 4319, Note_on_c, 4, 73, 0
10, 4320, Note_on_c, 4, 74, 76
10, 4424, Note_on_c, 4, 74, 0
10, 4440, Note_on_c, 4, 78, 76
10, 4544, Note_on_c, 4, 78, 0
10, 4560, Note_on_c, 4, 76, 76
10, 4679, Note_on_c, 4, 76, 0
10, 4680, Note_on_c, 4, 74, 76
10, 4799, Note_on_c, 4, 74, 0
10, 4800, Note_on_c, 4, 73, 76
10, 4904, Note_on_c, 4, 73, 0
10, 4920, Note_on_c, 4, 71, 76
10, 5024, Note_on_c, 4, 71, 0
10, 5040, Note_on_c, 4, 83, 76
10, 5264, Note_on_c, 4, 83, 0
10, 5280, Note_on_c, 4, 74, 76
10, 5744, Note_on_c, 4, 74, 0
10, 5760, Note_on_c, 4, 73, 76
10, 5879, Note_on_c, 4, 73, 0
10, 5880, Note_on_c, 4, 74, 76
10, 5984, Note_on_c, 4, 74, 0
10, 6000, Note_on_c, 4, 76, 76
10, 6104, Note_on_c, 4, 76, 0
10, 6120, Note_on_c, 4, 73, 76
10, 6224, Note_on_c, 4, 73, 0
10, 6240, Note_on_c, 4, 74, 76
10, 6464, Note_on_c, 4, 74, 0
10, 6480, Note_on_c, 4, 73, 76
10, 6584, Note_on_c, 4, 73, 0
10, 6600, Note_on_c, 4, 69, 76
10, 6704, Note_on_c, 4, 69, 0
10, 6720, Note_on_c, 4, 71, 76
10, 6944, Note_on_c, 4, 71, 0
10, 6960, Note_on_c, 4, 69, 76
10, 7664, Note_on_c, 4, 69, 0
10, 7680, Note_on_c, 4, 78, 76
10, 7784, Note_on_c, 4, 78, 0
10, 7800, Note_on_c, 4, 76, 76
10, 7904, Note_on_c, 4, 76, 0
10, 7920, Note_on_c, 4, 78, 76
10, 8144, Note_on_c, 4, 78, 0
10, 8160, Note_on_c, 4, 79, 76
10, 8504, Note_on_c, 4, 79, 0
10, 8520, Note_on_c, 4, 78, 76
10, 8624, Note_on_c, 4, 78, 0
10, 8640, Note_on_c, 4, 76, 76
10, 8744, Note_on_c, 4, 76, 0
10, 8760, Note_on_c, 4, 74, 76
10, 8864, Note_on_c, 4, 74, 0
10, 8880, Note_on_c, 4, 81, 76
10, 9104, Note_on_c, 4, 81, 0
10, 9120, Note_on_c, 4, 74, 76
10, 9584, Note_on_c, 4, 74, 0
10, 9600, Note_on_c, 4, 76, 76
10, 9704, Note_on_c, 4, 76, 0
10, 9720, Note_on_c, 4, 78, 76
10, 9824, Note_on_c, 4, 78, 0
10, 9840, Note_on_c, 4, 71, 76
10, 10079, Note_on_c, 4, 71, 0
10, 10080, Note_on_c, 4, 73, 76
10, 10304, Note_on_c, 4, 73, 0
10, 10320, Note_on_c, 4, 73, 76
10, 10439, Note_on_c, 4, 73, 0
10, 10440, Note_on_c, 4, 71, 76
10, 10544, Note_on_c, 4, 71, 0
10, 10560, Note_on_c, 4, 73, 76
10, 10679, Note_on_c, 4, 73, 0
10, 10680, Note_on_c, 4, 74, 76
10, 10784, Note_on_c, 4, 74, 0
10, 10800, Note_on_c, 4, 76, 76
10, 11024, Note_on_c, 4, 76, 0
10, 11040, Note_on_c, 4, 69, 76
10, 11504, Note_on_c, 4, 69, 0
10, 11520, Note_on_c, 4, 71, 76
10, 11624, Note_on_c, 4, 71, 0
10, 11640, Note_on_c, 4, 73, 76
10, 11744, Note_on_c, 4, 73, 0
10, 11760, Note_on_c, 4, 74, 76
10, 11879, Note_on_c, 4, 74, 0
10, 11880, Note_on_c, 4, 73, 76
10, 11999, Note_on_c, 4, 73, 0
10, 12000, Note_on_c, 4, 74, 76
10, 12104, Note_on_c, 4, 74, 0
10, 12120, Note_on_c, 4, 78, 76
10, 12224, Note_on_c, 4, 78, 0
10, 12240, Note_on_c, 4, 76, 76
10, 12359, Note_on_c, 4, 76, 0
10, 12360, Note_on_c, 4, 74, 76
10, 12479, Note_on_c, 4, 74, 0
10, 12480, Note_on_c, 4, 73, 76
10, 12584, Note_on_c, 4, 73, 0
10, 12600, Note_on_c, 4, 71, 76
10, 12704, Note_on_c, 4, 71, 0
10, 12720, Note_on_c, 4, 83, 76
10, 12944, Note_on_c, 4, 83, 0
10, 12960, Note_on_c, 4, 74, 76
10, 13424, Note_on_c, 4, 74, 0
10, 13440, Note_on_c, 4, 73, 76
10, 13559, Note_on_c, 4, 73, 0
10, 13560, Note_on_c, 4, 74, 76
10, 13664, Note_on_c, 4, 74, 0
10, 13680, Note_on_c, 4, 76, 76
10, 13784, Note_on_c, 4, 76, 0
10, 13800, Note_on_c, 4, 73, 76
10, 13904, Note_on_c, 4, 73, 0
10, 13920, Note_on_c, 4, 74, 76
10, 14144, Note_on_c, 4, 74, 0
10, 14160, Note_on_c, 4, 73, 76
10, 14264, Note_on_c, 4, 73, 0
10, 14280, Note_on_c, 4, 69, 76
10, 14384, Note_on_c, 4, 69, 0
10, 14400, Note_on_c, 4, 71, 76
10, 14624, Note_on_c, 4, 71, 0
10, 14640, Note_on_c, 4, 69, 76
10, 15344, Note_on_c, 4, 69, 0
10, 16800, Note_on_c, 4, 73, 76
10, 16904, Note_on_c, 4, 73, 0
10, 16920, Note_on_c, 4, 76, 76
10, 17024, Note_on_c, 4, 76, 0
10, 17040, Note_on_c, 4, 81, 76
10, 17279, Note_on_c, 4, 81, 0
10, 18720, Note_on_c, 4, 74, 76
10, 18824, Note_on_c, 4, 74, 0
10, 18840, Note_on_c, 4, 78, 76
10, 18944, Note_on_c, 4, 78, 0
10, 18960, Note_on_c, 4, 83, 76
10, 19199, Note_on_c, 4, 83, 0
10, 19680, Note_on_c, 4, 73, 76
10, 19784, Note_on_c, 4, 73, 0
10, 19800, Note_on_c, 4, 76, 76
10, 19904, Note_on_c, 4, 76, 0
10, 19920, Note_on_c, 4, 79, 76
10, 20159, Note_on_c, 4, 79, 0
10, 20640, Note_on_c, 4, 70, 76
10, 20744, Note_on_c, 4, 70, 0
10, 20760, Note_on_c, 4, 73, 76
10, 20864, Note_on_c, 4, 73, 0
10, 20880, Note_on_c, 4, 76, 76
10, 21119, Note_on_c, 4, 76, 0
10, 22560, Note_on_c, 4, 74, 76
10, 22664, Note_on_c, 4, 74, 0
10, 22680, Note_on_c, 4, 78, 76
10, 22784, Note_on_c, 4, 78, 0
10, 22800, Note_on_c, 4, 83, 76
10, 23039, Note_on_c, 4, 83, 0
10, 24480, Note_on_c, 4, 72, 76
10, 24584, Note_on_c, 4, 72, 0
10, 24600, Note_on_c, 4, 78, 76
10, 24704, Note_on_c, 4, 78, 0
10, 24720, Note_on_c, 4, 81, 76
10, 24944, Note_on_c, 4, 81, 0
10, 24960, Note_on_c, 4, 71, 76
10, 25064, Note_on_c, 4, 71, 0
10, 25080, Note_on_c, 4, 69, 76
10, 25184, Note_on_c, 4, 69, 0
10, 25200, Note_on_c, 4, 71, 76
10, 25439, Note_on_c, 4, 71, 0
10, 25440, Note_on_c, 4, 73, 76
10, 25664, Note_on_c, 4, 73, 0
10, 25680, Note_on_c, 4, 73, 76
10, 25799, Note_on_c, 4, 73, 0
10, 25800, Note_on_c, 4, 71, 76
10, 25904, Note_on_c, 4, 71, 0
10, 25920, Note_on_c, 4, 73, 76
10, 26039, Note_on_c, 4, 73, 0
10, 26040, Note_on_c, 4, 74, 76
10, 26144, Note_on_c, 4, 74, 0
10, 26160, Note_on_c, 4, 76, 76
10, 26384, Note_on_c, 4, 76, 0
10, 26400, Note_on_c, 4, 69, 76
10, 26879, Note_on_c, 4, 69, 0
10, 28320, Note_on_c, 4, 73, 76
10, 28424, Note_on_c, 4, 73, 0
10, 28440, Note_on_c, 4, 76, 76
10, 28544, Note_on_c, 4, 76, 0
10, 28560, Note_on_c, 4, 79, 76
10, 28784, Note_on_c, 4, 79, 0
10, 28800, Note_on_c, 4, 81, 76
10, 28904, Note_on_c, 4, 81, 0
10, 28920, Note_on_c, 4, 83, 76
10, 29024, Note_on_c, 4, 83, 0
10, 29040, Note_on_c, 4, 81, 76
10, 29144, Note_on_c, 4, 81, 0
10, 29160, Note_on_c, 4, 78, 76
10, 29264, Note_on_c, 4, 78, 0
10, 29280, Note_on_c, 4, 79, 76
10, 29459, Note_on_c, 4, 79, 0
10, 29520, Note_on_c, 4, 78, 76
10, 29624, Note_on_c, 4, 78, 0
10, 29640, Note_on_c, 4, 74, 76
10, 29744, Note_on_c, 4, 74, 0
10, 29760, Note_on_c, 4, 76, 76
10, 29939, Note_on_c, 4, 76, 0
10, 30000, Note_on_c, 4, 74, 76
10, 30719, Note_on_c, 4, 74, 0
10, 32160, Note_on_c, 4, 73, 76
10, 32264, Note_on_c, 4, 73, 0
10, 32280, Note_on_c, 4, 76, 76
10, 32384, Note_on_c, 4, 76, 0
10, 32400, Note_on_c, 4, 81, 76
10, 32639, Note_on_c, 4, 81, 0
10, 34080, Note_on_c, 4, 74, 76
10, 34184, Note_on_c, 4, 74, 0
10, 34200, Note_on_c, 4, 78, 76
10, 34304, Note_on_c, 4, 78, 0
10, 34320, Note_on_c, 4, 83, 76
10, 34559, Note_on_c, 4, 83, 0
10, 35040, Note_on_c, 4, 73, 76
10, 35144, Note_on_c, 4, 73, 0
10, 35160, Note_on_c, 4, 76, 76
10, 35264, Note_on_c, 4, 76, 0
10, 35280, Note_on_c, 4, 79, 76
10, 35519, Note_on_c, 4, 79, 0
10, 36000, Note_on_c, 4, 70, 76
10, 36104, Note_on_c, 4, 70, 0
10, 36120, Note_on_c, 4, 73, 76
10, 36224, Note_on_c, 4, 73, 0
10, 36240, Note_on_c, 4, 76, 76
10, 36479, Note_on_c, 4, 76, 0
10, 37920, Note_on_c, 4, 74, 76
10, 38024, Note_on_c, 4, 74, 0
10, 38040, Note_on_c, 4, 78, 76
10, 38144, Note_on_c, 4, 78, 0
10, 38160, Note_on_c, 4, 83, 76
10, 38399, Note_on_c, 4, 83, 0
10, 39840, Note_on_c, 4, 72, 76
10, 39944, Note_on_c, 4, 72, 0
10, 39960, Note_on_c, 4, 78, 76
10, 40064, Note_on_c, 4, 78, 0
10, 40080, Note_on_c, 4, 81, 76
10, 40304, Note_on_c, 4, 81, 0
10, 40320, Note_on_c, 4, 71, 76
10, 40424, Note_on_c, 4, 71, 0
10, 40440, Note_on_c, 4, 69, 76
10, 40544, Note_on_c, 4, 69, 0
10, 40560, Note_on_c, 4, 71, 76
10, 40799, Note_on_c, 4, 71, 0
10, 40800, Note_on_c, 4, 73, 76
10, 41024, Note_on_c, 4, 73, 0
10, 41040, Note_on_c, 4, 73, 76
10, 41159, Note_on_c, 4, 73, 0
10, 41160, Note_on_c, 4, 71, 76
10, 41264, Note_on_c, 4, 71, 0
10, 41280, Note_on_c, 4, 73, 76
10, 41399, Note_on_c, 4, 73, 0
10, 41400, Note_on_c, 4, 74, 76
10, 41504, Note_on_c, 4, 74, 0
10, 41520, Note_on_c, 4, 76, 76
10, 41744, Note_on_c, 4, 76, 0
10, 41760, Note_on_c, 4, 69, 76
10, 42239, Note_on_c, 4, 69, 0
10, 43680, Note_on_c, 4, 73, 76
10, 43784, Note_on_c, 4, 73, 0
10, 43800, Note_on_c, 4, 76, 76
10, 43904, Note_on_c, 4, 76, 0
10, 43920, Note_on_c, 4, 79, 76
10, 44144, Note_on_c, 4, 79, 0
10, 44160, Note_on_c, 4, 81, 76
10, 44264, Note_on_c, 4, 81, 0
10, 44280, Note_on_c, 4, 83, 76
10, 44384, Note_on_c, 4, 83, 0
10, 44400, Note_on_c, 4, 81, 76
10, 44504, Note_on_c, 4, 81, 0
10, 44520, Note_on_c, 4, 78, 76
10, 44624, Note_on_c, 4, 78, 0
10, 44640, Note_on_c, 4, 79, 76
10, 44819, Note_on_c, 4, 79, 0
10, 44880, Note_on_c, 4, 78, 76
10, 44984, Note_on_c, 4, 78, 0
10, 45000, Note_on_c, 4, 74, 76
10, 45104, Note_on_c, 4, 74, 0
10, 45120, Note_on_c, 4, 76, 76
10, 45299, Note_on_c, 4, 76, 0
10, 45360, Note_on_c, 4, 74, 76
10, 46079, Note_on_c, 4, 74, 0
10, 46320, Note_on_c, 4, 78, 76
10, 46499, Note_on_c, 4, 78, 0
10, 46520, Note_on_c, 4, 76, 76
10, 46559, Note_on_c, 4, 76, 0
10, 46560, Note_on_c, 4, 74, 76
10, 47039, Note_on_c, 4, 74, 0
10, 47280, Note_on_c, 4, 76, 76
10, 47459, Note_on_c, 4, 76, 0
10, 47480, Note_on_c, 4, 74, 76
10, 47519, Note_on_c, 4, 74, 0
10, 47520, Note_on_c, 4, 73, 76
10, 47999, Note_on_c, 4, 73, 0
10, 48240, Note_on_c, 4, 79, 76
10, 48464, Note_on_c, 4, 79, 0
10, 48480, Note_on_c, 4, 78, 76
10, 48704, Note_on_c, 4, 78, 0
10, 48720, Note_on_c, 4, 76, 76
10, 48944, Note_on_c, 4, 76, 0
10, 48960, Note_on_c, 4, 74, 76
10, 49184, Note_on_c, 4, 74, 0
10, 49200, Note_on_c, 4, 73, 76
10, 49424, Note_on_c, 4, 73, 0
10, 49440, Note_on_c, 4, 74, 76
10, 49664, Note_on_c, 4, 74, 0
10, 49680, Note_on_c, 4, 73, 76
10, 49784, Note_on_c, 4, 73, 0
10, 49800, Note_on_c, 4, 74, 76
10, 49904, Note_on_c, 4, 74, 0
10, 49920, Note_on_c, 4, 71, 76
10, 50144, Note_on_c, 4, 71, 0
10, 50160, Note_on_c, 4, 74, 76
10, 50339, Note_on_c, 4, 74, 0
10, 50360, Note_on_c, 4, 74, 76
10, 50399, Note_on_c, 4, 74, 0
10, 50400, Note_on_c, 4, 76, 76
10, 50879, Note_on_c, 4, 76, 0
10, 51120, Note_on_c, 4, 73, 76
10, 51299, Note_on_c, 4, 73, 0
10, 51320, Note_on_c, 4, 73, 76
10, 51359, Note_on_c, 4, 73, 0
10, 51360, Note_on_c, 4, 74, 76
10, 51839, Note_on_c, 4, 74, 0
10, 52080, Note_on_c, 4, 78, 76
10, 52259, Note_on_c, 4, 78, 0
10, 52280, Note_on_c, 4, 78, 76
10, 52319, Note_on_c, 4, 78, 0
10, 52320, Note_on_c, 4, 79, 76
10, 52799, Note_on_c, 4, 79, 0
10, 53040, Note_on_c, 4, 76, 76
10, 53219, Note_on_c, 4, 76, 0
10, 53240, Note_on_c, 4, 76, 76
10, 53279, Note_on_c, 4, 76, 0
10, 53280, Note_on_c, 4, 78, 76
10, 53759, Note_on_c, 4, 78, 0
10, 54000, Note_on_c, 4, 81, 76
10, 54179, Note_on_c, 4, 81, 0
10, 54200, Note_on_c, 4, 81, 76
10, 54239, Note_on_c, 4, 81, 0
10, 54240, Note_on_c, 4, 83, 76
10, 54719, Note_on_c, 4, 83, 0
10, 54960, Note_on_c, 4, 80, 76
10, 55139, Note_on_c, 4, 80, 0
10, 55160, Note_on_c, 4, 80, 76
10, 55199, Note_on_c, 4, 80, 0
10, 55200, Note_on_c, 4, 85, 76
10, 55679, Note_on_c, 4, 85, 0
10, 55920, Note_on_c, 4, 83, 76
10, 56144, Note_on_c, 4, 83, 0
10, 56160, Note_on_c, 4, 81, 76
10, 56384, Note_on_c, 4, 81, 0
10, 56400, Note_on_c, 4, 80, 76
10, 56504, Note_on_c, 4, 80, 0
10, 56520, Note_on_c, 4, 78, 76
10, 56624, Note_on_c, 4, 78, 0
10, 56640, Note_on_c, 4, 80, 76
10, 56864, Note_on_c, 4, 80, 0
10, 56880, Note_on_c, 4, 77, 76
10, 57104, Note_on_c, 4, 77, 0
10, 57120, Note_on_c, 4, 78, 76
10, 57824, Note_on_c, 4, 78, 0
10, 57840, Note_on_c, 4, 78, 76
10, 58019, Note_on_c, 4, 78, 0
10, 58040, Note_on_c, 4, 76, 76
10, 58079, Note_on_c, 4, 76, 0
10, 58080, Note_on_c, 4, 74, 76
10, 58559, Note_on_c, 4, 74, 0
10, 58800, Note_on_c, 4, 76, 76
10, 58979, Note_on_c, 4, 76, 0
10, 59000, Note_on_c, 4, 74, 76
10, 59039, Note_on_c, 4, 74, 0
10, 59040, Note_on_c, 4, 73, 76
10, 59519, Note_on_c, 4, 73, 0
10, 59760, Note_on_c, 4, 79, 76
10, 59984, Note_on_c, 4, 79, 0
10, 60000, Note_on_c, 4, 78, 76
10, 60224, Note_on_c, 4, 78, 0
10, 60240, Note_on_c, 4, 76, 76
10, 60464, Note_on_c, 4, 76, 0
10, 60480, Note_on_c, 4, 74, 76
10, 60704, Note_on_c, 4, 74, 0
10, 60720, Note_on_c, 4, 73, 76
10, 60944, Note_on_c, 4, 73, 0
10, 60960, Note_on_c, 4, 74, 76
10, 61184, Note_on_c, 4, 74, 0
10, 61200, Note_on_c, 4, 73, 76
10, 61304, Note_on_c, 4, 73, 0
10, 61320, Note_on_c, 4, 74, 76
10, 61424, Note_on_c, 4, 74, 0
10, 61440, Note_on_c, 4, 71, 76
10, 61664, Note_on_c, 4, 71, 0
10, 61680, Note_on_c, 4, 74, 76
10, 61859, Note_on_c, 4, 74, 0
10, 61880, Note_on_c, 4, 74, 76
10, 61919, Note_on_c, 4, 74, 0
10, 61920, Note_on_c, 4, 76, 76
10, 62399, Note_on_c, 4, 76, 0
10, 62640, Note_on_c, 4, 73, 76
10, 62819, Note_on_c, 4, 73, 0
10, 62840, Note_on_c, 4, 73, 76
10, 62879, Note_on_c, 4, 73, 0
10, 62880, Note_on_c, 4, 74, 76
10, 63359, Note_on_c, 4, 74, 0
10, 63600, Note_on_c, 4, 78, 76
10, 63779, Note_on_c, 4, 78, 0
10, 63800, Note_on_c, 4, 78, 76
10, 63839, Note_on_c, 4, 78, 0
10, 63840, Note_on_c, 4, 79, 76
10, 64319, Note_on_c, 4, 79, 0
10, 64560, Note_on_c, 4, 76, 76
10, 64739, Note_on_c, 4, 76, 0
10, 64760, Note_on_c, 4, 76, 76
10, 64799, Note_on_c, 4, 76, 0
10, 64800, Note_on_c, 4, 78, 76
10, 65279, Note_on_c, 4, 78, 0
10, 65520, Note_on_c, 4, 81, 76
10, 65699, Note_on_c, 4, 81, 0
10, 65720, Note_on_c, 4, 81, 76
10, 65759, Note_on_c, 4, 81, 0
10, 65760, Note_on_c, 4, 83, 76
10, 66239, Note_on_c, 4, 83, 0
10, 66480, Note_on_c, 4, 80, 76
10, 66659, Note_on_c, 4, 80, 0
10, 66680, Note_on_c, 4, 80, 76
10, 66719, Note_on_c, 4, 80, 0
10, 66720, Note_on_c, 4, 85, 76
10, 67199, Note_on_c, 4, 85, 0
10, 67440, Note_on_c, 4, 83, 76
10, 67664, Note_on_c, 4, 83, 0
10, 67680, Note_on_c, 4, 81, 76
10, 67904, Note_on_c, 4, 81, 0
10, 67920, Note_on_c, 4, 80, 76
10, 68024, Note_on_c, 4, 80, 0
10, 68040, Note_on_c, 4, 78, 76
10, 68144, Note_on_c, 4, 78, 0
10, 68160, Note_on_c, 4, 80, 76
10, 68384, Note_on_c, 4, 80, 0
10, 68400, Note_on_c, 4, 77, 76
10, 68624, Note_on_c, 4, 77, 0
10, 68640, Note_on_c, 4, 78, 76
10, 69344, Note_on_c, 4, 78, 0
10, 69360, Note_on_c, 4, 76, 76
10, 69539, Note_on_c, 4, 76, 0
10, 69560, Note_on_c, 4, 76, 76
10, 69599, Note_on_c, 4, 76, 0
10, 69600, Note_on_c, 4, 75, 76
10, 70079, Note_on_c, 4, 75, 0
10, 70320, Note_on_c, 4, 78, 76
10, 70499, Note_on_c, 4, 78, 0
10, 70520, Note_on_c, 4, 78, 76
10, 70559, Note_on_c, 4, 78, 0
10, 70560, Note_on_c, 4, 76, 76
10, 71039, Note_on_c, 4, 76, 0
10, 71280, Note_on_c, 4, 79, 76
10, 71504, Note_on_c, 4, 79, 0
10, 71520, Note_on_c, 4, 78, 76
10, 71549, Note_on_c, 4, 78, 0
10, 71550, Note_on_c, 4, 79, 76
10, 71579, Note_on_c, 4, 79, 0
10, 71580, Note_on_c, 4, 78, 76
10, 71609, Note_on_c, 4, 78, 0
10, 71610, Note_on_c, 4, 79, 76
10, 71639, Note_on_c, 4, 79, 0
10, 71640, Note_on_c, 4, 78, 76
10, 71669, Note_on_c, 4, 78, 0
10, 71670, Note_on_c, 4, 79, 76
10, 71699, Note_on_c, 4, 79, 0
10, 71700, Note_on_c, 4, 76, 76
10, 71729, Note_on_c, 4, 76, 0
10, 71730, Note_on_c, 4, 78, 76
10, 71759, Note_on_c, 4, 78, 0
10, 71760, Note_on_c, 4, 76, 76
10, 71864, Note_on_c, 4, 76, 0
10, 71880, Note_on_c, 4, 75, 76
10, 71984, Note_on_c, 4, 75, 0
10, 72000, Note_on_c, 4, 76, 76
10, 72224, Note_on_c, 4, 76, 0
10, 72240, Note_on_c, 4, 78, 76
10, 72464, Note_on_c, 4, 78, 0
10, 72480, Note_on_c, 4, 75, 76
10, 72704, Note_on_c, 4, 75, 0
10, 72720, Note_on_c, 4, 73, 76
10, 72824, Note_on_c, 4, 73, 0
10, 72840, Note_on_c, 4, 75, 76
10, 72944, Note_on_c, 4, 75, 0
10, 72960, Note_on_c, 4, 71, 76
10, 73184, Note_on_c, 4, 71, 0
10, 73200, Note_on_c, 4, 83, 76
10, 73379, Note_on_c, 4, 83, 0
10, 73400, Note_on_c, 4, 81, 76
10, 73439, Note_on_c, 4, 81, 0
10, 73440, Note_on_c, 4, 80, 76
10, 73919, Note_on_c, 4, 80, 0
10, 74160, Note_on_c, 4, 81, 76
10, 74279, Note_on_c, 4, 81, 0
10, 74280, Note_on_c, 4, 83, 76
10, 74339, Note_on_c, 4, 83, 0
10, 74340, Note_on_c, 4, 84, 76
10, 74371, Note_on_c, 4, 84, 0
10, 74380, Note_on_c, 4, 76, 76
10, 74399, Note_on_c, 4, 76, 0
10, 74400, Note_on_c, 4, 75, 76
10, 74879, Note_on_c, 4, 75, 0
10, 75120, Note_on_c, 4, 81, 76
10, 75299, Note_on_c, 4, 81, 0
10, 75320, Note_on_c, 4, 81, 76
10, 75359, Note_on_c, 4, 81, 0
10, 75360, Note_on_c, 4, 79, 76
10, 75584, Note_on_c, 4, 79, 0
10, 75600, Note_on_c, 4, 78, 76
10, 75704, Note_on_c, 4, 78, 0
10, 75720, Note_on_c, 4, 76, 76
10, 75824, Note_on_c, 4, 76, 0
10, 75840, Note_on_c, 4, 78, 76
10, 76064, Note_on_c, 4, 78, 0
10, 76080, Note_on_c, 4, 75, 76
10, 76259, Note_on_c, 4, 75, 0
10, 76280, Note_on_c, 4, 75, 76
10, 76319, Note_on_c, 4, 75, 0
10, 76320, Note_on_c, 4, 76, 76
10, 76799, Note_on_c, 4, 76, 0
10, 77040, Note_on_c, 4, 76, 76
10, 77219, Note_on_c, 4, 76, 0
10, 77240, Note_on_c, 4, 74, 76
10, 77279, Note_on_c, 4, 74, 0
10, 77280, Note_on_c, 4, 73, 76
10, 77759, Note_on_c, 4, 73, 0
10, 78000, Note_on_c, 4, 81, 76
10, 78179, Note_on_c, 4, 81, 0
10, 78200, Note_on_c, 4, 79, 76
10, 78239, Note_on_c, 4, 79, 0
10, 78240, Note_on_c, 4, 78, 76
10, 78719, Note_on_c, 4, 78, 0
10, 78960, Note_on_c, 4, 83, 76
10, 79184, Note_on_c, 4, 83, 0
10, 79200, Note_on_c, 4, 82, 76
10, 79229, Note_on_c, 4, 82, 0
10, 79230, Note_on_c, 4, 83, 76
10, 79259, Note_on_c, 4, 83, 0
10, 79260, Note_on_c, 4, 82, 76
10, 79289, Note_on_c, 4, 82, 0
10, 79290, Note_on_c, 4, 83, 76
10, 79319, Note_on_c, 4, 83, 0
10, 79320, Note_on_c, 4, 82, 76
10, 79349, Note_on_c, 4, 82, 0
10, 79350, Note_on_c, 4, 83, 76
10, 79379, Note_on_c, 4, 83, 0
10, 79380, Note_on_c, 4, 79, 76
10, 79409, Note_on_c, 4, 79, 0
10, 79410, Note_on_c, 4, 82, 76
10, 79439, Note_on_c, 4, 82, 0
10, 79440, Note_on_c, 4, 83, 76
10, 79664, Note_on_c, 4, 83, 0
10, 79680, Note_on_c, 4, 85, 76
10, 79904, Note_on_c, 4, 85, 0
10, 79920, Note_on_c, 4, 86, 76
10, 80144, Note_on_c, 4, 86, 0
10, 80160, Note_on_c, 4, 85, 76
10, 80279, Note_on_c, 4, 85, 0
10, 80280, Note_on_c, 4, 83, 76
10, 80399, Note_on_c, 4, 83, 0
10, 80400, Note_on_c, 4, 82, 76
10, 80519, Note_on_c, 4, 82, 0
10, 80520, Note_on_c, 4, 80, 76
10, 80624, Note_on_c, 4, 80, 0
10, 80640, Note_on_c, 4, 78, 76
10, 80864, Note_on_c, 4, 78, 0
10, 80880, Note_on_c, 4, 83, 76
10, 81059, Note_on_c, 4, 83, 0
10, 81080, Note_on_c, 4, 81, 76
10, 81119, Note_on_c, 4, 81, 0
10, 81120, Note_on_c, 4, 79, 76
10, 81599, Note_on_c, 4, 79, 0
10, 81840, Note_on_c, 4, 81, 76
10, 82019, Note_on_c, 4, 81, 0
10, 82040, Note_on_c, 4, 79, 76
10, 82079, Note_on_c, 4, 79, 0
10, 82080, Note_on_c, 4, 78, 76
10, 82559, Note_on_c, 4, 78, 0
10, 82800, Note_on_c, 4, 76, 76
10, 82979, Note_on_c, 4, 76, 0
10, 83000, Note_on_c, 4, 76, 76
10, 83039, Note_on_c, 4, 76, 0
10, 83040, Note_on_c, 4, 74, 76
10, 83264, Note_on_c, 4, 74, 0
10, 83280, Note_on_c, 4, 73, 76
10, 83384, Note_on_c, 4, 73, 0
10, 83400, Note_on_c, 4, 71, 76
10, 83504, Note_on_c, 4, 71, 0
10, 83520, Note_on_c, 4, 73, 76
10, 83744, Note_on_c, 4, 73, 0
10, 83760, Note_on_c, 4, 70, 76
10, 83984, Note_on_c, 4, 70, 0
10, 84000, Note_on_c, 4, 71, 76
10, 84704, Note_on_c, 4, 71, 0
10, 84720, Note_on_c, 4, 76, 76
10, 84899, Note_on_c, 4, 76, 0
10, 84920, Note_on_c, 4, 76, 76
10, 84959, Note_on_c, 4, 76, 0
10, 84960, Note_on_c, 4, 75, 76
10, 85439, Note_on_c, 4, 75, 0
10, 85680, Note_on_c, 4, 78, 76
10, 85859, Note_on_c, 4, 78, 0
10, 85880, Note_on_c, 4, 78, 76
10, 85919, Note_on_c, 4, 78, 0
10, 85920, Note_on_c, 4, 76, 76
10, 86399, Note_on_c, 4, 76, 0
10, 86640, Note_on_c, 4, 79, 76
10, 86864, Note_on_c, 4, 79, 0
10, 86880, Note_on_c, 4, 78, 76
10, 86909, Note_on_c, 4, 78, 0
10, 86910, Note_on_c, 4, 79, 76
10, 86939, Note_on_c, 4, 79, 0
10, 86940, Note_on_c, 4, 78, 76
10, 86969, Note_on_c, 4, 78, 0
10, 86970, Note_on_c, 4, 79, 76
10, 86999, Note_on_c, 4, 79, 0
10, 87000, Note_on_c, 4, 78, 76
10, 87029, Note_on_c, 4, 78, 0
10, 87030, Note_on_c, 4, 79, 76
10, 87059, Note_on_c, 4, 79, 0
10, 87060, Note_on_c, 4, 76, 76
10, 87089, Note_on_c, 4, 76, 0
10, 87090, Note_on_c, 4, 78, 76
10, 87119, Note_on_c, 4, 78, 0
10, 87120, Note_on_c, 4, 76, 76
10, 87224, Note_on_c, 4, 76, 0
10, 87240, Note_on_c, 4, 75, 76
10, 87344, Note_on_c, 4, 75, 0
10, 87360, Note_on_c, 4, 76, 76
10, 87584, Note_on_c, 4, 76, 0
10, 87600, Note_on_c, 4, 78, 76
10, 87824, Note_on_c, 4, 78, 0
10, 87840, Note_on_c, 4, 75, 76
10, 88064, Note_on_c, 4, 75, 0
10, 88080, Note_on_c, 4, 73, 76
10, 88184, Note_on_c, 4, 73, 0
10, 88200, Note_on_c, 4, 75, 76
10, 88304, Note_on_c, 4, 75, 0
10, 88320, Note_on_c, 4, 71, 76
10, 88544, Note_on_c, 4, 71, 0
10, 88560, Note_on_c, 4, 83, 76
10, 88739, Note_on_c, 4, 83, 0
10, 88760, Note_on_c, 4, 81, 76
10, 88799, Note_on_c, 4, 81, 0
10, 88800, Note_on_c, 4, 80, 76
10, 89279, Note_on_c, 4, 80, 0
10, 89520, Note_on_c, 4, 81, 76
10, 89639, Note_on_c, 4, 81, 0
10, 89640, Note_on_c, 4, 83, 76
10, 89699, Note_on_c, 4, 83, 0
10, 89700, Note_on_c, 4, 84, 76
10, 89731, Note_on_c, 4, 84, 0
10, 89740, Note_on_c, 4, 76, 76
10, 89759, Note_on_c, 4, 76, 0
10, 89760, Note_on_c, 4, 75, 76
10, 90239, Note_on_c, 4, 75, 0
10, 90480, Note_on_c, 4, 81, 76
10, 90659, Note_on_c, 4, 81, 0
10, 90680, Note_on_c, 4, 81, 76
10, 90719, Note_on_c, 4, 81, 0
10, 90720, Note_on_c, 4, 79, 76
10, 90944, Note_on_c, 4, 79, 0
10, 90960, Note_on_c, 4, 78, 76
10, 91064, Note_on_c, 4, 78, 0
10, 91080, Note_on_c, 4, 76, 76
10, 91184, Note_on_c, 4, 76, 0
10, 91200, Note_on_c, 4, 78, 76
10, 91424, Note_on_c, 4, 78, 0
10, 91440, Note_on_c, 4, 75, 76
10, 91619, Note_on_c, 4, 75, 0
10, 91640, Note_on_c, 4, 75, 76
10, 91679, Note_on_c, 4, 75, 0
10, 91680, Note_on_c, 4, 76, 76
10, 92159, Note_on_c, 4, 76, 0
10, 92400, Note_on_c, 4, 76, 76
10, 92579, Note_on_c, 4, 76, 0
10, 92600, Note_on_c, 4, 74, 76
10, 92639, Note_on_c, 4, 74, 0
10, 92640, Note_on_c, 4, 73, 76
10, 93119, Note_on_c, 4, 73, 0
10, 93360, Note_on_c, 4, 81, 76
10, 93539, Note_on_c, 4, 81, 0
10, 93560, Note_on_c, 4, 79, 76
10, 93599, Note_on_c, 4, 79, 0
10, 93600, Note_on_c, 4, 78, 76
10, 94079, Note_on_c, 4, 78, 0
10, 94320, Note_on_c, 4, 83, 76
10, 94544, Note_on_c, 4, 83, 0
10, 94560, Note_on_c, 4, 82, 76
10, 94589, Note_on_c, 4, 82, 0
10, 94590, Note_on_c, 4, 83, 76
10, 94619, Note_on_c, 4, 83, 0
10, 94620, Note_on_c, 4, 82, 76
10, 94649, Note_on_c, 4, 82, 0
10, 94650, Note_on_c, 4, 83, 76
10, 94679, Note_on_c, 4, 83, 0
10, 94680, Note_on_c, 4, 82, 76
10, 94709, Note_on_c, 4, 82, 0
10, 94710, Note_on_c, 4, 83, 76
10, 94739, Note_on_c, 4, 83, 0
10, 94740, Note_on_c, 4, 79, 76
10, 94769, Note_on_c, 4, 79, 0
10, 94770, Note_on_c, 4, 82, 76
10, 94799, Note_on_c, 4, 82, 0
10, 94800, Note_on_c, 4, 83, 76
10, 95024, Note_on_c, 4, 83, 0
10, 95040, Note_on_c, 4, 85, 76
10, 95264, Note_on_c, 4, 85, 0
10, 95280, Note_on_c, 4, 86, 76
10, 95504, Note_on_c, 4, 86, 0
10, 95520, Note_on_c, 4, 85, 76
10, 95639, Note_on_c, 4, 85, 0
10, 95640, Note_on_c, 4, 83, 76
10, 95759, Note_on_c, 4, 83, 0
10, 95760, Note_on_c, 4, 82, 76
10, 95879, Note_on_c, 4, 82, 0
10, 95880, Note_on_c, 4, 80, 76
10, 95984, Note_on_c, 4, 80, 0
10, 96000, Note_on_c, 4, 78, 76
10, 96224, Note_on_c, 4, 78, 0
10, 96240, Note_on_c, 4, 83, 76
10, 96419, Note_on_c, 4, 83, 0
10, 96440, Note_on_c, 4, 81, 76
10, 96479, Note_on_c, 4, 81, 0
10, 96480, Note_on_c, 4, 79, 76
10, 96959, Note_on_c, 4, 79, 0
10, 97200, Note_on_c, 4, 81, 76
10, 97379, Note_on_c, 4, 81, 0
10, 97400, Note_on_c, 4, 79, 76
10, 97439, Note_on_c, 4, 79, 0
10, 97440, Note_on_c, 4, 78, 76
10, 97919, Note_on_c, 4, 78, 0
10, 98160, Note_on_c, 4, 76, 76
10, 98339, Note_on_c, 4, 76, 0
10, 98360, Note_on_c, 4, 76, 76
10, 98399, Note_on_c, 4, 76, 0
10, 98400, Note_on_c, 4, 74, 76
10, 98624, Note_on_c, 4, 74, 0
10, 98640, Note_on_c, 4, 73, 76
10, 98744, Note_on_c, 4, 73, 0
10, 98760, Note_on_c, 4, 71, 76
10, 98864, Note_on_c, 4, 71, 0
10, 98880, Note_on_c, 4, 73, 76
10, 99104, Note_on_c, 4, 73, 0
10, 99120, Note_on_c, 4, 70, 76
10, 99344, Note_on_c, 4, 70, 0
10, 99360, Note_on_c, 4, 71, 76
10, 100064, Note_on_c, 4, 71, 0
10, 100320, Note_on_c, 4, 78, 76
10, 100424, Note_on_c, 4, 78, 0
10, 100440, Note_on_c, 4, 76, 76
10, 100544, Note_on_c, 4, 76, 0
10, 100560, Note_on_c, 4, 78, 76
10, 100784, Note_on_c, 4, 78, 0
10, 100800, Note_on_c, 4, 79, 76
10, 101144, Note_on_c, 4, 79, 0
10, 101160, Note_on_c, 4, 78, 76
10, 101264, Note_on_c, 4, 78, 0
10, 101280, Note_on_c, 4, 76, 76
10, 101384, Note_on_c, 4, 76, 0
10, 101400, Note_on_c, 4, 74, 76
10, 101504, Note_on_c, 4, 74, 0
10, 101520, Note_on_c, 4, 81, 76
10, 101744, Note_on_c, 4, 81, 0
10, 101760, Note_on_c, 4, 74, 76
10, 102224, Note_on_c, 4, 74, 0
10, 102240, Note_on_c, 4, 76, 76
10, 102344, Note_on_c, 4, 76, 0
10, 102360, Note_on_c, 4, 78, 76
10, 102464, Note_on_c, 4, 78, 0
10, 102480, Note_on_c, 4, 71, 76
10, 102719, Note_on_c, 4, 71, 0
10, 102720, Note_on_c, 4, 73, 76
10, 102944, Note_on_c, 4, 73, 0
10, 102960, Note_on_c, 4, 73, 76
10, 103079, Note_on_c, 4, 73, 0
10, 103080, Note_on_c, 4, 71, 76
10, 103184, Note_on_c, 4, 71, 0
10, 103200, Note_on_c, 4, 73, 76
10, 103319, Note_on_c, 4, 73, 0
10, 103320, Note_on_c, 4, 74, 76
10, 103424, Note_on_c, 4, 74, 0
10, 103440, Note_on_c, 4, 76, 76
10, 103664, Note_on_c, 4, 76, 0
10, 103680, Note_on_c, 4, 69, 76
10, 104144, Note_on_c, 4, 69, 0
10, 104160, Note_on_c, 4, 71, 76
10, 104264, Note_on_c, 4, 71, 0
10, 104280, Note_on_c, 4, 73, 76
10, 104384, Note_on_c, 4, 73, 0
10, 104400, Note_on_c, 4, 74, 76
10, 104519, Note_on_c, 4, 74, 0
10, 104520, Note_on_c, 4, 73, 76
10, 104639, Note_on_c, 4, 73, 0
10, 104640, Note_on_c, 4, 74, 76
10, 104744, Note_on_c, 4, 74, 0
10, 104760, Note_on_c, 4, 78, 76
10, 104864, Note_on_c, 4, 78, 0
10, 104880, Note_on_c, 4, 76, 76
10, 104999, Note_on_c, 4, 76, 0
10, 105000, Note_on_c, 4, 74, 76
10, 105119, Note_on_c, 4, 74, 0
10, 105120, Note_on_c, 4, 73, 76
10, 105224, Note_on_c, 4, 73, 0
10, 105240, Note_on_c, 4, 71, 76
10, 105344, Note_on_c, 4, 71, 0
10, 105360, Note_on_c, 4, 83, 76
10, 105584, Note_on_c, 4, 83, 0
10, 105600, Note_on_c, 4, 74, 76
10, 106064, Note_on_c, 4, 74, 0
10, 106080, Note_on_c, 4, 73, 76
10, 106199, Note_on_c, 4, 73, 0
10, 106200, Note_on_c, 4, 74, 76
10, 106304, Note_on_c, 4, 74, 0
10, 106320, Note_on_c, 4, 76, 76
10, 106424, Note_on_c, 4, 76, 0
10, 106440, Note_on_c, 4, 73, 76
10, 106544, Note_on_c, 4, 73, 0
10, 106560, Note_on_c, 4, 74, 76
10, 106784, Note_on_c, 4, 74, 0
10, 106800, Note_on_c, 4, 73, 76
10, 106904, Note_on_c, 4, 73, 0
10, 106920, Note_on_c, 4, 69, 76
10, 107024, Note_on_c, 4, 69, 0
10, 107040, Note_on_c, 4, 71, 76
10, 107264, Note_on_c, 4, 71, 0
10, 107280, Note_on_c, 4, 69, 76
10, 107984, Note_on_c, 4, 69, 0
10, 108000, Note_on_c, 4, 78, 76
10, 108104, Note_on_c, 4, 78, 0
10, 108120, Note_on_c, 4, 76, 76
10, 108224, Note_on_c, 4, 76, 0
10, 108240, Note_on_c, 4, 78, 76
10, 108464, Note_on_c, 4, 78, 0
10, 108480, Note_on_c, 4, 79, 76
10, 108824, Note_on_c, 4, 79, 0
10, 108840, Note_on_c, 4, 78, 76
10, 108944, Note_on_c, 4, 78, 0
10, 108960, Note_on_c, 4, 76, 76
10, 109064, Note_on_c, 4, 76, 0
10, 109080, Note_on_c, 4, 74, 76
10, 109184, Note_on_c, 4, 74, 0
10, 109200, Note_on_c, 4, 81, 76
10, 109424, Note_on_c, 4, 81, 0
10, 109440, Note_on_c, 4, 74, 76
10, 109904, Note_on_c, 4, 74, 0
10, 109920, Note_on_c, 4, 76, 76
10, 110024, Note_on_c, 4, 76, 0
10, 110040, Note_on_c, 4, 78, 76
10, 110144, Note_on_c, 4, 78, 0
10, 110160, Note_on_c, 4, 71, 76
10, 110399, Note_on_c, 4, 71, 0
10, 110400, Note_on_c, 4, 73, 76
10, 110624, Note_on_c, 4, 73, 0
10, 110640, Note_on_c, 4, 73, 76
10, 110759, Note_on_c, 4, 73, 0
10, 110760, Note_on_c, 4, 71, 76
10, 110864, Note_on_c, 4, 71, 0
10, 110880, Note_on_c, 4, 73, 76
10, 110999, Note_on_c, 4, 73, 0
10, 111000, Note_on_c, 4, 74, 76
10, 111104, Note_on_c, 4, 74, 0
10, 111120, Note_on_c, 4, 76, 76
10, 111344, Note_on_c, 4, 76, 0
10, 111360, Note_on_c, 4, 69, 76
10, 111824, Note_on_c, 4, 69, 0
10, 111840, Note_on_c, 4, 71, 76
10, 111944, Note_on_c, 4, 71, 0
10, 111960, Note_on_c, 4, 73, 76
10, 112064, Note_on_c, 4, 73, 0
10, 112080, Note_on_c, 4, 74, 76
10, 112199, Note_on_c, 4, 74, 0
10, 112200, Note_on_c, 4, 73, 76
10, 112319, Note_on_c, 4, 73, 0
10, 112320, Note_on_c, 4, 74, 76
10, 112424, Note_on_c, 4, 74, 0
10, 112440, Note_on_c, 4, 78, 76
10, 112544, Note_on_c, 4, 78, 0
10, 112560, Note_on_c, 4, 76, 76
10, 112679, Note_on_c, 4, 76, 0
10, 112680, Note_on_c, 4, 74, 76
10, 112799, Note_on_c, 4, 74, 0
10, 112800, Note_on_c, 4, 73, 76
10, 112904, Note_on_c, 4, 73, 0
10, 112920, Note_on_c, 4, 71, 76
10, 113024, Note_on_c, 4, 71, 0
10, 113040, Note_on_c, 4, 83, 76
10, 113264, Note_on_c, 4, 83, 0
10, 113280, Note_on_c, 4, 74, 76
10, 113744, Note_on_c, 4, 74, 0
10, 113760, Note_on_c, 4, 73, 76
10, 113879, Note_on_c, 4, 73, 0
10, 113880, Note_on_c, 4, 74, 76
10, 113984, Note_on_c, 4, 74, 0
10, 114000, Note_on_c, 4, 76, 76
10, 114104, Note_on_c, 4, 76, 0
10, 114120, Note_on_c, 4, 73, 76
10, 114224, Note_on_c, 4, 73, 0
10, 114240, Note_on_c, 4, 74, 76
10, 114464, Note_on_c, 4, 74, 0
10, 114480, Note_on_c, 4, 73, 76
10, 114584, Note_on_c, 4, 73, 0
10, 114600, Note_on_c, 4, 69, 76
10, 114704, Note_on_c, 4, 69, 0
10, 114720, Note_on_c, 4, 71, 76
10, 114944, Note_on_c, 4, 71, 0
10, 114960, Note_on_c, 4, 69, 76
10, 115664, Note_on_c, 4, 69, 0
10, 117120, Note_on_c, 4, 73, 76
10, 117224, Note_on_c, 4, 73, 0
10, 117240, Note_on_c, 4, 76, 76
10, 117344, Note_on_c, 4, 76, 0
10, 117360, Note_on_c, 4, 81, 76
10, 117599, Note_on_c, 4, 81, 0
10, 119040, Note_on_c, 4, 74, 76
10, 119144, Note_on_c, 4, 74, 0
10, 119160, Note_on_c, 4, 78, 76
10, 119264, Note_on_c, 4, 78, 0
10, 119280, Note_on_c, 4, 83, 76
10, 119519, Note_on_c, 4, 83, 0
10, 120000, Note_on_c, 4, 73, 76
10, 120104, Note_on_c, 4, 73, 0
10, 120120, Note_on_c, 4, 76, 76
10, 120224, Note_on_c, 4, 76, 0
10, 120240, Note_on_c, 4, 79, 76
10, 120479, Note_on_c, 4, 79, 0
10, 120960, Note_on_c, 4, 70, 76
10, 121064, Note_on_c, 4, 70, 0
10, 121080, Note_on_c, 4, 73, 76
10, 121184, Note_on_c, 4, 73, 0
10, 121200, Note_on_c, 4, 76, 76
10, 121439, Note_on_c, 4, 76, 0
10, 122880, Note_on_c, 4, 74, 76
10, 122984, Note_on_c, 4, 74, 0
10, 123000, Note_on_c, 4, 78, 76
10, 123104, Note_on_c, 4, 78, 0
10, 123120, Note_on_c, 4, 83, 76
10, 123359, Note_on_c, 4, 83, 0
10, 124800, Note_on_c, 4, 72, 76
10, 124904, Note_on_c, 4, 72, 0
10, 124920, Note_on_c, 4, 78, 76
10, 125024, Note_on_c, 4, 78, 0
10, 125040, Note_on_c, 4, 81, 76
10, 125264, Note_on_c, 4, 81, 0
10, 125280, Note_on_c, 4, 71, 76
10, 125384, Note_on_c, 4, 71, 0
10, 125400, Note_on_c, 4, 69, 76
10, 125504, Note_on_c, 4, 69, 0
10, 125520, Note_on_c, 4, 71, 76
10, 125759, Note_on_c, 4, 71, 0
10, 125760, Note_on_c, 4, 73, 76
10, 125984, Note_on_c, 4, 73, 0
10, 126000, Note_on_c, 4, 73, 76
10, 126119, Note_on_c, 4, 73, 0
10, 126120, Note_on_c, 4, 71, 76
10, 126224, Note_on_c, 4, 71, 0
10, 126240, Note_on_c, 4, 73, 76
10, 126359, Note_on_c, 4, 73, 0
10, 126360, Note_on_c, 4, 74, 76
10, 126464, Note_on_c, 4, 74, 0
10, 126480, Note_on_c, 4, 76, 76
10, 126704, Note_on_c, 4, 76, 0
10, 126720, Note_on_c, 4, 69, 76
10, 127199, Note_on_c, 4, 69, 0
10, 128640, Note_on_c, 4, 73, 76
10, 128744, Note_on_c, 4, 73, 0
10, 128760, Note_on_c, 4, 76, 76
10, 128864, Note_on_c, 4, 76, 0
10, 128880, Note_on_c, 4, 79, 76
10, 129104, Note_on_c, 4, 79, 0
10, 129120, Note_on_c, 4, 81, 76
10, 129224, Note_on_c, 4, 81, 0
10, 129240, Note_on_c, 4, 83, 76
10, 129344, Note_on_c, 4, 83, 0
10, 129360, Note_on_c, 4, 81, 76
10, 129464, Note_on_c, 4, 81, 0
10, 129480, Note_on_c, 4, 78, 76
10, 129584, Note_on_c, 4, 78, 0
10, 129600, Note_on_c, 4, 79, 76
10, 129779, Note_on_c, 4, 79, 0
10, 129840, Note_on_c, 4, 78, 76
10, 129944, Note_on_c, 4, 78, 0
10, 129960, Note_on_c, 4, 74, 76
10, 130064, Note_on_c, 4, 74, 0
10, 130080, Note_on_c, 4, 76, 76
10, 130259, Note_on_c, 4, 76, 0
10, 130320, Note_on_c, 4, 74, 76
10, 131039, Note_on_c, 4, 74, 0
10, 132480, Note_on_c, 4, 73, 76
10, 132584, Note_on_c, 4, 73, 0
10, 132600, Note_on_c, 4, 76, 76
10, 132704, Note_on_c, 4, 76, 0
10, 132720, Note_on_c, 4, 81, 76
10, 132959, Note_on_c, 4, 81, 0
10, 134400, Note_on_c, 4, 74, 76
10, 134504, Note_on_c, 4, 74, 0
10, 134520, Note_on_c, 4, 78, 76
10, 134624, Note_on_c, 4, 78, 0
10, 134640, Note_on_c, 4, 83, 76
10, 134879, Note_on_c, 4, 83, 0
10, 135360, Note_on_c, 4, 73, 76
10, 135464, Note_on_c, 4, 73, 0
10, 135480, Note_on_c, 4, 76, 76
10, 135584, Note_on_c, 4, 76, 0
10, 135600, Note_on_c, 4, 79, 76
10, 135839, Note_on_c, 4, 79, 0
10, 136320, Note_on_c, 4, 70, 76
10, 136424, Note_on_c, 4, 70, 0
10, 136440, Note_on_c, 4, 73, 76
10, 136544, Note_on_c, 4, 73, 0
10, 136560, Note_on_c, 4, 76, 76
10, 136799, Note_on_c, 4, 76, 0
10, 138240, Note_on_c, 4, 74, 76
10, 138344, Note_on_c, 4, 74, 0
10, 138360, Note_on_c, 4, 78, 76
10, 138464, Note_on_c, 4, 78, 0
10, 138480, Note_on_c, 4, 83, 76
10, 138719, Note_on_c, 4, 83, 0
10, 140160, Note_on_c, 4, 72, 76
10, 140264, Note_on_c, 4, 72, 0
10, 140280, Note_on_c, 4, 78, 76
10, 140384, Note_on_c, 4, 78, 0
10, 140400, Note_on_c, 4, 81, 76
10, 140624, Note_on_c, 4, 81, 0
10, 140640, Note_on_c, 4, 71, 76
10, 140744, Note_on_c, 4, 71, 0
10, 140760, Note_on_c, 4, 69, 76
10, 140864, Note_on_c, 4, 69, 0
10, 140880, Note_on_c, 4, 71, 76
10, 141119, Note_on_c, 4, 71, 0
10, 141120, Note_on_c, 4, 73, 76
10, 141344, Note_on_c, 4, 73, 0
10, 141360, Note_on_c, 4, 73, 76
10, 141479, Note_on_c, 4, 73, 0
10, 141480, Note_on_c, 4, 71, 76
10, 141584, Note_on_c, 4, 71, 0
10, 141600, Note_on_c, 4, 73, 76
10, 141719, Note_on_c, 4, 73, 0
10, 141720, Note_on_c, 4, 74, 76
10, 141824, Note_on_c, 4, 74, 0
10, 141840, Note_on_c, 4, 76, 76
10, 142064, Note_on_c, 4, 76, 0
10, 142080, Note_on_c, 4, 69, 76
10, 142559, Note_on_c, 4, 69, 0
10, 144000, Note_on_c, 4, 73, 76
10, 144104, Note_on_c, 4, 73, 0
10, 144120, Note_on_c, 4, 76, 76
10, 144224, Note_on_c, 4, 76, 0
10, 144240, Note_on_c, 4, 79, 76
10, 144464, Note_on_c, 4, 79, 0
10, 144480, Note_on_c, 4, 81, 76
10, 144584, Note_on_c, 4, 81, 0
10, 144600, Note_on_c, 4, 83, 76
10, 144704, Note_on_c, 4, 83, 0
10, 144720, Note_on_c, 4, 81, 76
10, 144824, Note_on_c, 4, 81, 0
10, 144840, Note_on_c, 4, 78, 76
10, 144944, Note_on_c, 4, 78, 0
10, 144960, Note_on_c, 4, 79, 76
10, 145139, Note_on_c, 4, 79, 0
10, 145200, Note_on_c, 4, 78, 76
10, 145304, Note_on_c, 4, 78, 0
10, 145320, Note_on_c, 4, 74, 76
10, 145424, Note_on_c, 4, 74, 0
10, 145440, Note_on_c, 4, 76, 76
10, 145619, Note_on_c, 4, 76, 0
10, 145680, Note_on_c, 4, 74, 76
10, 146399, Note_on_c, 4, 74, 0
10, 146399, End_track
11, 0, Start_track
11, 0, Title_t, "Oboe II"
11, 0, MIDI_port, 0
11, 0, Program_c, 5, 68
11, 0, Control_c, 5, 10, 64
11, 0, Control_c, 5, 11, 127
11, 0, Control_c, 5, 7, 80
11, 0, Note_on_c, 5, 74, 76
11, 224, Note_on_c, 5, 74, 0
11, 240, Note_on_c, 5, 74, 76
11, 704, Note_on_c, 5, 74, 0
11, 720, Note_on_c, 5, 74, 76
11, 1184, Note_on_c, 5, 74, 0
11, 1200, Note_on_c, 5, 74, 76
11, 1424, Note_on_c, 5, 74, 0
11, 1440, Note_on_c, 5, 69, 76
11, 1904, Note_on_c, 5, 69, 0
11, 1920, Note_on_c, 5, 69, 76
11, 2144, Note_on_c, 5, 69, 0
11, 2160, Note_on_c, 5, 67, 76
11, 2399, Note_on_c, 5, 67, 0
11, 2400, Note_on_c, 5, 69, 76
11, 2624, Note_on_c, 5, 69, 0
11, 2640, Note_on_c, 5, 69, 76
11, 2759, Note_on_c, 5, 69, 0
11, 2760, Note_on_c, 5, 67, 76
11, 2864, Note_on_c, 5, 67, 0
11, 2880, Note_on_c, 5, 69, 76
11, 2999, Note_on_c, 5, 69, 0
11, 3000, Note_on_c, 5, 71, 76
11, 3104, Note_on_c, 5, 71, 0
11, 3120, Note_on_c, 5, 73, 76
11, 3344, Note_on_c, 5, 73, 0
11, 3360, Note_on_c, 5, 69, 76
11, 3824, Note_on_c, 5, 69, 0
11, 3840, Note_on_c, 5, 64, 76
11, 4064, Note_on_c, 5, 64, 0
11, 4080, Note_on_c, 5, 69, 76
11, 4304, Note_on_c, 5, 69, 0
11, 4320, Note_on_c, 5, 68, 76
11, 4544, Note_on_c, 5, 68, 0
11, 4560, Note_on_c, 5, 69, 76
11, 4784, Note_on_c, 5, 69, 0
11, 4800, Note_on_c, 5, 78, 76
11, 5024, Note_on_c, 5, 78, 0
11, 5040, Note_on_c, 5, 78, 76
11, 5264, Note_on_c, 5, 78, 0
11, 5280, Note_on_c, 5, 76, 76
11, 5744, Note_on_c, 5, 76, 0
11, 5760, Note_on_c, 5, 68, 76
11, 5984, Note_on_c, 5, 68, 0
11, 6000, Note_on_c, 5, 73, 76
11, 6224, Note_on_c, 5, 73, 0
11, 6240, Note_on_c, 5, 69, 76
11, 6464, Note_on_c, 5, 69, 0
11, 6480, Note_on_c, 5, 69, 76
11, 6704, Note_on_c, 5, 69, 0
11, 6720, Note_on_c, 5, 68, 76
11, 6944, Note_on_c, 5, 68, 0
11, 6960, Note_on_c, 5, 69, 76
11, 7664, Note_on_c, 5, 69, 0
11, 7680, Note_on_c, 5, 74, 76
11, 7904, Note_on_c, 5, 74, 0
11, 7920, Note_on_c, 5, 74, 76
11, 8384, Note_on_c, 5, 74, 0
11, 8400, Note_on_c, 5, 74, 76
11, 8864, Note_on_c, 5, 74, 0
11, 8880, Note_on_c, 5, 74, 76
11, 9104, Note_on_c, 5, 74, 0
11, 9120, Note_on_c, 5, 69, 76
11, 9584, Note_on_c, 5, 69, 0
11, 9600, Note_on_c, 5, 69, 76
11, 9824, Note_on_c, 5, 69, 0
11, 9840, Note_on_c, 5, 67, 76
11, 10079, Note_on_c, 5, 67, 0
11, 10080, Note_on_c, 5, 69, 76
11, 10304, Note_on_c, 5, 69, 0
11, 10320, Note_on_c, 5, 69, 76
11, 10439, Note_on_c, 5, 69, 0
11, 10440, Note_on_c, 5, 67, 76
11, 10544, Note_on_c, 5, 67, 0
11, 10560, Note_on_c, 5, 69, 76
11, 10679, Note_on_c, 5, 69, 0
11, 10680, Note_on_c, 5, 71, 76
11, 10784, Note_on_c, 5, 71, 0
11, 10800, Note_on_c, 5, 73, 76
11, 11024, Note_on_c, 5, 73, 0
11, 11040, Note_on_c, 5, 69, 76
11, 11504, Note_on_c, 5, 69, 0
11, 11520, Note_on_c, 5, 64, 76
11, 11744, Note_on_c, 5, 64, 0
11, 11760, Note_on_c, 5, 69, 76
11, 11984, Note_on_c, 5, 69, 0
11, 12000, Note_on_c, 5, 68, 76
11, 12224, Note_on_c, 5, 68, 0
11, 12240, Note_on_c, 5, 69, 76
11, 12464, Note_on_c, 5, 69, 0
11, 12480, Note_on_c, 5, 78, 76
11, 12704, Note_on_c, 5, 78, 0
11, 12720, Note_on_c, 5, 78, 76
11, 12944, Note_on_c, 5, 78, 0
11, 12960, Note_on_c, 5, 76, 76
11, 13424, Note_on_c, 5, 76, 0
11, 13440, Note_on_c, 5, 68, 76
11, 13664, Note_on_c, 5, 68, 0
11, 13680, Note_on_c, 5, 73, 76
11, 13904, Note_on_c, 5, 73, 0
11, 13920, Note_on_c, 5, 69, 76
11, 14144, Note_on_c, 5, 69, 0
11, 14160, Note_on_c, 5, 69, 76
11, 14384, Note_on_c, 5, 69, 0
11, 14400, Note_on_c, 5, 68, 76
11, 14624, Note_on_c, 5, 68, 0
11, 14640, Note_on_c, 5, 69, 76
11, 15344, Note_on_c, 5, 69, 0
11, 16800, Note_on_c, 5, 69, 76
11, 16904, Note_on_c, 5, 69, 0
11, 16920, Note_on_c, 5, 73, 76
11, 17024, Note_on_c, 5, 73, 0
11, 17040, Note_on_c, 5, 76, 76
11, 17279, Note_on_c, 5, 76, 0
11, 18720, Note_on_c, 5, 71, 76
11, 18824, Note_on_c, 5, 71, 0
11, 18840, Note_on_c, 5, 74, 76
11, 18944, Note_on_c, 5, 74, 0
11, 18960, Note_on_c, 5, 78, 76
11, 19199, Note_on_c, 5, 78, 0
11, 19680, Note_on_c, 5, 67, 76
11, 19784, Note_on_c, 5, 67, 0
11, 19800, Note_on_c, 5, 73, 76
11, 19904, Note_on_c, 5, 73, 0
11, 19920, Note_on_c, 5, 76, 76
11, 20159, Note_on_c, 5, 76, 0
11, 20640, Note_on_c, 5, 66, 76
11, 20744, Note_on_c, 5, 66, 0
11, 20760, Note_on_c, 5, 70, 76
11, 20864, Note_on_c, 5, 70, 0
11, 20880, Note_on_c, 5, 73, 76
11, 21119, Note_on_c, 5, 73, 0
11, 22560, Note_on_c, 5, 71, 76
11, 22664, Note_on_c, 5, 71, 0
11, 22680, Note_on_c, 5, 74, 76
11, 22784, Note_on_c, 5, 74, 0
11, 22800, Note_on_c, 5, 78, 76
11, 23039, Note_on_c, 5, 78, 0
11, 24480, Note_on_c, 5, 69, 76
11, 24584, Note_on_c, 5, 69, 0
11, 24600, Note_on_c, 5, 72, 76
11, 24704, Note_on_c, 5, 72, 0
11, 24720, Note_on_c, 5, 78, 76
11, 24899, Note_on_c, 5, 78, 0
11, 24960, Note_on_c, 5, 66, 76
11, 25139, Note_on_c, 5, 66, 0
11, 25200, Note_on_c, 5, 67, 76
11, 25439, Note_on_c, 5, 67, 0
11, 25440, Note_on_c, 5, 69, 76
11, 25664, Note_on_c, 5, 69, 0
11, 25680, Note_on_c, 5, 69, 76
11, 25799, Note_on_c, 5, 69, 0
11, 25800, Note_on_c, 5, 67, 76
11, 25904, Note_on_c, 5, 67, 0
11, 25920, Note_on_c, 5, 69, 76
11, 26039, Note_on_c, 5, 69, 0
11, 26040, Note_on_c, 5, 71, 76
11, 26144, Note_on_c, 5, 71, 0
11, 26160, Note_on_c, 5, 73, 76
11, 26384, Note_on_c, 5, 73, 0
11, 26400, Note_on_c, 5, 69, 76
11, 26879, Note_on_c, 5, 69, 0
11, 28320, Note_on_c, 5, 69, 76
11, 28424, Note_on_c, 5, 69, 0
11, 28440, Note_on_c, 5, 73, 76
11, 28544, Note_on_c, 5, 73, 0
11, 28560, Note_on_c, 5, 76, 76
11, 28784, Note_on_c, 5, 76, 0
11, 28800, Note_on_c, 5, 78, 76
11, 28904, Note_on_c, 5, 78, 0
11, 28920, Note_on_c, 5, 79, 76
11, 29024, Note_on_c, 5, 79, 0
11, 29040, Note_on_c, 5, 78, 76
11, 29264, Note_on_c, 5, 78, 0
11, 29280, Note_on_c, 5, 71, 76
11, 29504, Note_on_c, 5, 71, 0
11, 29520, Note_on_c, 5, 69, 76
11, 29744, Note_on_c, 5, 69, 0
11, 29760, Note_on_c, 5, 69, 76
11, 29984, Note_on_c, 5, 69, 0
11, 30000, Note_on_c, 5, 69, 76
11, 30719, Note_on_c, 5, 69, 0
11, 32160, Note_on_c, 5, 69, 76
11, 32264, Note_on_c, 5, 69, 0
11, 32280, Note_on_c, 5, 73, 76
11, 32384, Note_on_c, 5, 73, 0
11, 32400, Note_on_c, 5, 76, 76
11, 32639, Note_on_c, 5, 76, 0
11, 34080, Note_on_c, 5, 71, 76
11, 34184, Note_on_c, 5, 71, 0
11, 34200, Note_on_c, 5, 74, 76
11, 34304, Note_on_c, 5, 74, 0
11, 34320, Note_on_c, 5, 78, 76
11, 34559, Note_on_c, 5, 78, 0
11, 35040, Note_on_c, 5, 67, 76
11, 35144, Note_on_c, 5, 67, 0
11, 35160, Note_on_c, 5, 73, 76
11, 35264, Note_on_c, 5, 73, 0
11, 35280, Note_on_c, 5, 76, 76
11, 35519, Note_on_c, 5, 76, 0
11, 36000, Note_on_c, 5, 66, 76
11, 36104, Note_on_c, 5, 66, 0
11, 36120, Note_on_c, 5, 70, 76
11, 36224, Note_on_c, 5, 70, 0
11, 36240, Note_on_c, 5, 73, 76
11, 36479, Note_on_c, 5, 73, 0
11, 37920, Note_on_c, 5, 71, 76
11, 38024, Note_on_c, 5, 71, 0
11, 38040, Note_on_c, 5, 74, 76
11, 38144, Note_on_c, 5, 74, 0
11, 38160, Note_on_c, 5, 78, 76
11, 38399, Note_on_c, 5, 78, 0
11, 39840, Note_on_c, 5, 69, 76
11, 39944, Note_on_c, 5, 69, 0
11, 39960, Note_on_c, 5, 72, 76
11, 40064, Note_on_c, 5, 72, 0
11, 40080, Note_on_c, 5, 78, 76
11, 40259, Note_on_c, 5, 78, 0
11, 40320, Note_on_c, 5, 66, 76
11, 40499, Note_on_c, 5, 66, 0
11, 40560, Note_on_c, 5, 67, 76
11, 40799, Note_on_c, 5, 67, 0
11, 40800, Note_on_c, 5, 69, 76
11, 41024, Note_on_c, 5, 69, 0
11, 41040, Note_on_c, 5, 69, 76
11, 41159, Note_on_c, 5, 69, 0
11, 41160, Note_on_c, 5, 67, 76
11, 41264, Note_on_c, 5, 67, 0
11, 41280, Note_on_c, 5, 69, 76
11, 41399, Note_on_c, 5, 69, 0
11, 41400, Note_on_c, 5, 71, 76
11, 41504, Note_on_c, 5, 71, 0
11, 41520, Note_on_c, 5, 73, 76
11, 41744, Note_on_c, 5, 73, 0
11, 41760, Note_on_c, 5, 69, 76
11, 42239, Note_on_c, 5, 69, 0
11, 43680, Note_on_c, 5, 69, 76
11, 43784, Note_on_c, 5, 69, 0
11, 43800, Note_on_c, 5, 73, 76
11, 43904, Note_on_c, 5, 73, 0
11, 43920, Note_on_c, 5, 76, 76
11, 44144, Note_on_c, 5, 76, 0
11, 44160, Note_on_c, 5, 78, 76
11, 44264, Note_on_c, 5, 78, 0
11, 44280, Note_on_c, 5, 79, 76
11, 44384, Note_on_c, 5, 79, 0
11, 44400, Note_on_c, 5, 78, 76
11, 44624, Note_on_c, 5, 78, 0
11, 44640, Note_on_c, 5, 71, 76
11, 44864, Note_on_c, 5, 71, 0
11, 44880, Note_on_c, 5, 69, 76
11, 45104, Note_on_c, 5, 69, 0
11, 45120, Note_on_c, 5, 69, 76
11, 45344, Note_on_c, 5, 69, 0
11, 45360, Note_on_c, 5, 69, 76
11, 46079, Note_on_c, 5, 69, 0
11, 46320, Note_on_c, 5, 74, 76
11, 46499, Note_on_c, 5, 74, 0
11, 46520, Note_on_c, 5, 73, 76
11, 46559, Note_on_c, 5, 73, 0
11, 46560, Note_on_c, 5, 71, 76
11, 47039, Note_on_c, 5, 71, 0
11, 47280, Note_on_c, 5, 73, 76
11, 47459, Note_on_c, 5, 73, 0
11, 47480, Note_on_c, 5, 71, 76
11, 47519, Note_on_c, 5, 71, 0
11, 47520, Note_on_c, 5, 70, 76
11, 47999, Note_on_c, 5, 70, 0
11, 48240, Note_on_c, 5, 76, 76
11, 48464, Note_on_c, 5, 76, 0
11, 48480, Note_on_c, 5, 74, 76
11, 48704, Note_on_c, 5, 74, 0
11, 48720, Note_on_c, 5, 73, 76
11, 48944, Note_on_c, 5, 73, 0
11, 48960, Note_on_c, 5, 71, 76
11, 49184, Note_on_c, 5, 71, 0
11, 49200, Note_on_c, 5, 70, 76
11, 49424, Note_on_c, 5, 70, 0
11, 49440, Note_on_c, 5, 71, 76
11, 49664, Note_on_c, 5, 71, 0
11, 49680, Note_on_c, 5, 70, 76
11, 49784, Note_on_c, 5, 70, 0
11, 49800, Note_on_c, 5, 71, 76
11, 49904, Note_on_c, 5, 71, 0
11, 49920, Note_on_c, 5, 66, 76
11, 50144, Note_on_c, 5, 66, 0
11, 50160, Note_on_c, 5, 71, 76
11, 50339, Note_on_c, 5, 71, 0
11, 50360, Note_on_c, 5, 71, 76
11, 50399, Note_on_c, 5, 71, 0
11, 50400, Note_on_c, 5, 73, 76
11, 50879, Note_on_c, 5, 73, 0
11, 51120, Note_on_c, 5, 73, 76
11, 51299, Note_on_c, 5, 73, 0
11, 51320, Note_on_c, 5, 73, 76
11, 51359, Note_on_c, 5, 73, 0
11, 51360, Note_on_c, 5, 71, 76
11, 51839, Note_on_c, 5, 71, 0
11, 52080, Note_on_c, 5, 74, 76
11, 52304, Note_on_c, 5, 74, 0
11, 52320, Note_on_c, 5, 74, 76
11, 52799, Note_on_c, 5, 74, 0
11, 53040, Note_on_c, 5, 73, 76
11, 53219, Note_on_c, 5, 73, 0
11, 53240, Note_on_c, 5, 73, 76
11, 53279, Note_on_c, 5, 73, 0
11, 53280, Note_on_c, 5, 74, 76
11, 53759, Note_on_c, 5, 74, 0
11, 54000, Note_on_c, 5, 78, 76
11, 54179, Note_on_c, 5, 78, 0
11, 54200, Note_on_c, 5, 76, 76
11, 54239, Note_on_c, 5, 76, 0
11, 54240, Note_on_c, 5, 78, 76
11, 54719, Note_on_c, 5, 78, 0
11, 54960, Note_on_c, 5, 77, 76
11, 55139, Note_on_c, 5, 77, 0
11, 55160, Note_on_c, 5, 77, 76
11, 55199, Note_on_c, 5, 77, 0
11, 55200, Note_on_c, 5, 78, 76
11, 55679, Note_on_c, 5, 78, 0
11, 55920, Note_on_c, 5, 80, 76
11, 56144, Note_on_c, 5, 80, 0
11, 56160, Note_on_c, 5, 78, 76
11, 56384, Note_on_c, 5, 78, 0
11, 56400, Note_on_c, 5, 69, 76
11, 56624, Note_on_c, 5, 69, 0
11, 56640, Note_on_c, 5, 71, 76
11, 56864, Note_on_c, 5, 71, 0
11, 56880, Note_on_c, 5, 68, 76
11, 57104, Note_on_c, 5, 68, 0
11, 57120, Note_on_c, 5, 70, 76
11, 57824, Note_on_c, 5, 70, 0
11, 57840, Note_on_c, 5, 74, 76
11, 58019, Note_on_c, 5, 74, 0
11, 58040, Note_on_c, 5, 73, 76
11, 58079, Note_on_c, 5, 73, 0
11, 58080, Note_on_c, 5, 71, 76
11, 58559, Note_on_c, 5, 71, 0
11, 58800, Note_on_c, 5, 73, 76
11, 58979, Note_on_c, 5, 73, 0
11, 59000, Note_on_c, 5, 71, 76
11, 59039, Note_on_c, 5, 71, 0
11, 59040, Note_on_c, 5, 70, 76
11, 59519, Note_on_c, 5, 70, 0
11, 59760, Note_on_c, 5, 76, 76
11, 59984, Note_on_c, 5, 76, 0
11, 60000, Note_on_c, 5, 74, 76
11, 60224, Note_on_c, 5, 74, 0
11, 60240, Note_on_c, 5, 73, 76
11, 60464, Note_on_c, 5, 73, 0
11, 60480, Note_on_c, 5, 71, 76
11, 60704, Note_on_c, 5, 71, 0
11, 60720, Note_on_c, 5, 70, 76
11, 60944, Note_on_c, 5, 70, 0
11, 60960, Note_on_c, 5, 71, 76
11, 61184, Note_on_c, 5, 71, 0
11, 61200, Note_on_c, 5, 70, 76
11, 61304, Note_on_c, 5, 70, 0
11, 61320, Note_on_c, 5, 71, 76
11, 61424, Note_on_c, 5, 71, 0
11, 61440, Note_on_c, 5, 66, 76
11, 61664, Note_on_c, 5, 66, 0
11, 61680, Note_on_c, 5, 71, 76
11, 61859, Note_on_c, 5, 71, 0
11, 61880, Note_on_c, 5, 71, 76
11, 61919, Note_on_c, 5, 71, 0
11, 61920, Note_on_c, 5, 73, 76
11, 62399, Note_on_c, 5, 73, 0
11, 62640, Note_on_c, 5, 73, 76
11, 62819, Note_on_c, 5, 73, 0
11, 62840, Note_on_c, 5, 73, 76
11, 62879, Note_on_c, 5, 73, 0
11, 62880, Note_on_c, 5, 71, 76
11, 63359, Note_on_c, 5, 71, 0
11, 63600, Note_on_c, 5, 74, 76
11, 63824, Note_on_c, 5, 74, 0
11, 63840, Note_on_c, 5, 74, 76
11, 64319, Note_on_c, 5, 74, 0
11, 64560, Note_on_c, 5, 73, 76
11, 64739, Note_on_c, 5, 73, 0
11, 64760, Note_on_c, 5, 73, 76
11, 64799, Note_on_c, 5, 73, 0
11, 64800, Note_on_c, 5, 74, 76
11, 65279, Note_on_c, 5, 74, 0
11, 65520, Note_on_c, 5, 78, 76
11, 65699, Note_on_c, 5, 78, 0
11, 65720, Note_on_c, 5, 76, 76
11, 65759, Note_on_c, 5, 76, 0
11, 65760, Note_on_c, 5, 78, 76
11, 66239, Note_on_c, 5, 78, 0
11, 66480, Note_on_c, 5, 77, 76
11, 66659, Note_on_c, 5, 77, 0
11, 66680, Note_on_c, 5, 77, 76
11, 66719, Note_on_c, 5, 77, 0
11, 66720, Note_on_c, 5, 78, 76
11, 67199, Note_on_c, 5, 78, 0
11, 67440, Note_on_c, 5, 80, 76
11, 67664, Note_on_c, 5, 80, 0
11, 67680, Note_on_c, 5, 78, 76
11, 67904, Note_on_c, 5, 78, 0
11, 67920, Note_on_c, 5, 69, 76
11, 68144, Note_on_c, 5, 69, 0
11, 68160, Note_on_c, 5, 71, 76
11, 68384, Note_on_c, 5, 71, 0
11, 68400, Note_on_c, 5, 68, 76
11, 68624, Note_on_c, 5, 68, 0
11, 68640, Note_on_c, 5, 70, 76
11, 69344, Note_on_c, 5, 70, 0
11, 69360, Note_on_c, 5, 70, 76
11, 69539, Note_on_c, 5, 70, 0
11, 69560, Note_on_c, 5, 70, 76
11, 69599, Note_on_c, 5, 70, 0
11, 69600, Note_on_c, 5, 71, 76
11, 70079, Note_on_c, 5, 71, 0
11, 70320, Note_on_c, 5, 72, 76
11, 70499, Note_on_c, 5, 72, 0
11, 70520, Note_on_c, 5, 72, 76
11, 70559, Note_on_c, 5, 72, 0
11, 70560, Note_on_c, 5, 71, 76
11, 71039, Note_on_c, 5, 71, 0
11, 71280, Note_on_c, 5, 71, 76
11, 71504, Note_on_c, 5, 71, 0
11, 71520, Note_on_c, 5, 72, 76
11, 71744, Note_on_c, 5, 72, 0
11, 71760, Note_on_c, 5, 71, 76
11, 71984, Note_on_c, 5, 71, 0
11, 72000, Note_on_c, 5, 69, 76
11, 72224, Note_on_c, 5, 69, 0
11, 72240, Note_on_c, 5, 72, 76
11, 72464, Note_on_c, 5, 72, 0
11, 72480, Note_on_c, 5, 71, 76
11, 72704, Note_on_c, 5, 71, 0
11, 72720, Note_on_c, 5, 70, 76
11, 72824, Note_on_c, 5, 70, 0
11, 72840, Note_on_c, 5, 71, 76
11, 72944, Note_on_c, 5, 71, 0
11, 72960, Note_on_c, 5, 66, 76
11, 73184, Note_on_c, 5, 66, 0
11, 73200, Note_on_c, 5, 78, 76
11, 73379, Note_on_c, 5, 78, 0
11, 73400, Note_on_c, 5, 78, 76
11, 73439, Note_on_c, 5, 78, 0
11, 73440, Note_on_c, 5, 76, 76
11, 73919, Note_on_c, 5, 76, 0
11, 74160, Note_on_c, 5, 64, 76
11, 74339, Note_on_c, 5, 64, 0
11, 74360, Note_on_c, 5, 64, 76
11, 74399, Note_on_c, 5, 64, 0
11, 74400, Note_on_c, 5, 66, 76
11, 74879, Note_on_c, 5, 66, 0
11, 75120, Note_on_c, 5, 78, 76
11, 75344, Note_on_c, 5, 78, 0
11, 75360, Note_on_c, 5, 76, 76
11, 75584, Note_on_c, 5, 76, 0
11, 75600, Note_on_c, 5, 67, 76
11, 75824, Note_on_c, 5, 67, 0
11, 75840, Note_on_c, 5, 69, 76
11, 76064, Note_on_c, 5, 69, 0
11, 76080, Note_on_c, 5, 66, 76
11, 76304, Note_on_c, 5, 66, 0
11, 76320, Note_on_c, 5, 67, 76
11, 76799, Note_on_c, 5, 67, 0
11, 77040, Note_on_c, 5, 71, 76
11, 77219, Note_on_c, 5, 71, 0
11, 77240, Note_on_c, 5, 71, 76
11, 77279, Note_on_c, 5, 71, 0
11, 77280, Note_on_c, 5, 69, 76
11, 77759, Note_on_c, 5, 69, 0
11, 78000, Note_on_c, 5, 76, 76
11, 78224, Note_on_c, 5, 76, 0
11, 78240, Note_on_c, 5, 69, 76
11, 78719, Note_on_c, 5, 69, 0
11, 78960, Note_on_c, 5, 78, 76
11, 79184, Note_on_c, 5, 78, 0
11, 79200, Note_on_c, 5, 76, 76
11, 79424, Note_on_c, 5, 76, 0
11, 79440, Note_on_c, 5, 78, 76
11, 79664, Note_on_c, 5, 78, 0
11, 79680, Note_on_c, 5, 78, 76
11, 79904, Note_on_c, 5, 78, 0
11, 79920, Note_on_c, 5, 78, 76
11, 80144, Note_on_c, 5, 78, 0
11, 80160, Note_on_c, 5, 78, 76
11, 80384, Note_on_c, 5, 78, 0
11, 80400, Note_on_c, 5, 73, 76
11, 80624, Note_on_c, 5, 73, 0
11, 80640, Note_on_c, 5, 74, 76
11, 80864, Note_on_c, 5, 74, 0
11, 80880, Note_on_c, 5, 78, 76
11, 81059, Note_on_c, 5, 78, 0
11, 81080, Note_on_c, 5, 78, 76
11, 81119, Note_on_c, 5, 78, 0
11, 81120, Note_on_c, 5, 76, 76
11, 81599, Note_on_c, 5, 76, 0
11, 81840, Note_on_c, 5, 76, 76
11, 82019, Note_on_c, 5, 76, 0
11, 82040, Note_on_c, 5, 76, 76
11, 82079, Note_on_c, 5, 76, 0
11, 82080, Note_on_c, 5, 74, 76
11, 82559, Note_on_c, 5, 74, 0
11, 82800, Note_on_c, 5, 73, 76
11, 83024, Note_on_c, 5, 73, 0
11, 83040, Note_on_c, 5, 71, 76
11, 83264, Note_on_c, 5, 71, 0
11, 83280, Note_on_c, 5, 62, 76
11, 83504, Note_on_c, 5, 62, 0
11, 83520, Note_on_c, 5, 64, 76
11, 83744, Note_on_c, 5, 64, 0
11, 83760, Note_on_c, 5, 64, 76
11, 83984, Note_on_c, 5, 64, 0
11, 84000, Note_on_c, 5, 62, 76
11, 84704, Note_on_c, 5, 62, 0
11, 84720, Note_on_c, 5, 70, 76
11, 84899, Note_on_c, 5, 70, 0
11, 84920, Note_on_c, 5, 70, 76
11, 84959, Note_on_c, 5, 70, 0
11, 84960, Note_on_c, 5, 71, 76
11, 85439, Note_on_c, 5, 71, 0
11, 85680, Note_on_c, 5, 72, 76
11, 85859, Note_on_c, 5, 72, 0
11, 85880, Note_on_c, 5, 72, 76
11, 85919, Note_on_c, 5, 72, 0
11, 85920, Note_on_c, 5, 71, 76
11, 86399, Note_on_c, 5, 71, 0
11, 86640, Note_on_c, 5, 71, 76
11, 86864, Note_on_c, 5, 71, 0
11, 86880, Note_on_c, 5, 72, 76
11, 87104, Note_on_c, 5, 72, 0
11, 87120, Note_on_c, 5, 71, 76
11, 87344, Note_on_c, 5, 71, 0
11, 87360, Note_on_c, 5, 69, 76
11, 87584, Note_on_c, 5, 69, 0
11, 87600, Note_on_c, 5, 72, 76
11, 87824, Note_on_c, 5, 72, 0
11, 87840, Note_on_c, 5, 71, 76
11, 88064, Note_on_c, 5, 71, 0
11, 88080, Note_on_c, 5, 70, 76
11, 88184, Note_on_c, 5, 70, 0
11, 88200, Note_on_c, 5, 71, 76
11, 88304, Note_on_c, 5, 71, 0
11, 88320, Note_on_c, 5, 66, 76
11, 88544, Note_on_c, 5, 66, 0
11, 88560, Note_on_c, 5, 78, 76
11, 88739, Note_on_c, 5, 78, 0
11, 88760, Note_on_c, 5, 78, 76
11, 88799, Note_on_c, 5, 78, 0
11, 88800, Note_on_c, 5, 76, 76
11, 89279, Note_on_c, 5, 76, 0
11, 89520, Note_on_c, 5, 64, 76
11, 89699, Note_on_c, 5, 64, 0
11, 89720, Note_on_c, 5, 64, 76
11, 89759, Note_on_c, 5, 64, 0
11, 89760, Note_on_c, 5, 66, 76
11, 90239, Note_on_c, 5, 66, 0
11, 90480, Note_on_c, 5, 78, 76
11, 90704, Note_on_c, 5, 78, 0
11, 90720, Note_on_c, 5, 76, 76
11, 90944, Note_on_c, 5, 76, 0
11, 90960, Note_on_c, 5, 67, 76
11, 91184, Note_on_c, 5, 67, 0
11, 91200, Note_on_c, 5, 69, 76
11, 91424, Note_on_c, 5, 69, 0
11, 91440, Note_on_c, 5, 66, 76
11, 91664, Note_on_c, 5, 66, 0
11, 91680, Note_on_c, 5, 67, 76
11, 92159, Note_on_c, 5, 67, 0
11, 92400, Note_on_c, 5, 71, 76
11, 92579, Note_on_c, 5, 71, 0
11, 92600, Note_on_c, 5, 71, 76
11, 92639, Note_on_c, 5, 71, 0
11, 92640, Note_on_c, 5, 69, 76
11, 93119, Note_on_c, 5, 69, 0
11, 93360, Note_on_c, 5, 76, 76
11, 93584, Note_on_c, 5, 76, 0
11, 93600, Note_on_c, 5, 69, 76
11, 94079, Note_on_c, 5, 69, 0
11, 94320, Note_on_c, 5, 78, 76
11, 94544, Note_on_c, 5, 78, 0
11, 94560, Note_on_c, 5, 76, 76
11, 94784, Note_on_c, 5, 76, 0
11, 94800, Note_on_c, 5, 78, 76
11, 95024, Note_on_c, 5, 78, 0
11, 95040, Note_on_c, 5, 78, 76
11, 95264, Note_on_c, 5, 78, 0
11, 95280, Note_on_c, 5, 78, 76
11, 95504, Note_on_c, 5, 78, 0
11, 95520, Note_on_c, 5, 78, 76
11, 95744, Note_on_c, 5, 78, 0
11, 95760, Note_on_c, 5, 73, 76
11, 95984, Note_on_c, 5, 73, 0
11, 96000, Note_on_c, 5, 74, 76
11, 96224, Note_on_c, 5, 74, 0
11, 96240, Note_on_c, 5, 78, 76
11, 96419, Note_on_c, 5, 78, 0
11, 96440, Note_on_c, 5, 78, 76
11, 96479, Note_on_c, 5, 78, 0
11, 96480, Note_on_c, 5, 76, 76
11, 96959, Note_on_c, 5, 76, 0
11, 97200, Note_on_c, 5, 76, 76
11, 97379, Note_on_c, 5, 76, 0
11, 97400, Note_on_c, 5, 76, 76
11, 97439, Note_on_c, 5, 76, 0
11, 97440, Note_on_c, 5, 74, 76
11, 97919, Note_on_c, 5, 74, 0
11, 98160, Note_on_c, 5, 73, 76
11, 98384, Note_on_c, 5, 73, 0
11, 98400, Note_on_c, 5, 71, 76
11, 98624, Note_on_c, 5, 71, 0
11, 98640, Note_on_c, 5, 62, 76
11, 98864, Note_on_c, 5, 62, 0
11, 98880, Note_on_c, 5, 64, 76
11, 99104, Note_on_c, 5, 64, 0
11, 99120, Note_on_c, 5, 64, 76
11, 99344, Note_on_c, 5, 64, 0
11, 99360, Note_on_c, 5, 62, 76
11, 100064, Note_on_c, 5, 62, 0
11, 100320, Note_on_c, 5, 74, 76
11, 100544, Note_on_c, 5, 74, 0
11, 100560, Note_on_c, 5, 74, 76
11, 101024, Note_on_c, 5, 74, 0
11, 101040, Note_on_c, 5, 74, 76
11, 101504, Note_on_c, 5, 74, 0
11, 101520, Note_on_c, 5, 74, 76
11, 101744, Note_on_c, 5, 74, 0
11, 101760, Note_on_c, 5, 69, 76
11, 102224, Note_on_c, 5, 69, 0
11, 102240, Note_on_c, 5, 69, 76
11, 102464, Note_on_c, 5, 69, 0
11, 102480, Note_on_c, 5, 67, 76
11, 102719, Note_on_c, 5, 67, 0
11, 102720, Note_on_c, 5, 69, 76
11, 102944, Note_on_c, 5, 69, 0
11, 102960, Note_on_c, 5, 69, 76
11, 103079, Note_on_c, 5, 69, 0
11, 103080, Note_on_c, 5, 67, 76
11, 103184, Note_on_c, 5, 67, 0
11, 103200, Note_on_c, 5, 69, 76
11, 103319, Note_on_c, 5, 69, 0
11, 103320, Note_on_c, 5, 71, 76
11, 103424, Note_on_c, 5, 71, 0
11, 103440, Note_on_c, 5, 73, 76
11, 103664, Note_on_c, 5, 73, 0
11, 103680, Note_on_c, 5, 69, 76
11, 104144, Note_on_c, 5, 69, 0
11, 104160, Note_on_c, 5, 64, 76
11, 104384, Note_on_c, 5, 64, 0
11, 104400, Note_on_c, 5, 69, 76
11, 104624, Note_on_c, 5, 69, 0
11, 104640, Note_on_c, 5, 68, 76
11, 104864, Note_on_c, 5, 68, 0
11, 104880, Note_on_c, 5, 69, 76
11, 105104, Note_on_c, 5, 69, 0
11, 105120, Note_on_c, 5, 78, 76
11, 105344, Note_on_c, 5, 78, 0
11, 105360, Note_on_c, 5, 78, 76
11, 105584, Note_on_c, 5, 78, 0
11, 105600, Note_on_c, 5, 76, 76
11, 106064, Note_on_c, 5, 76, 0
11, 106080, Note_on_c, 5, 68, 76
11, 106304, Note_on_c, 5, 68, 0
11, 106320, Note_on_c, 5, 73, 76
11, 106544, Note_on_c, 5, 73, 0
11, 106560, Note_on_c, 5, 69, 76
11, 106784, Note_on_c, 5, 69, 0
11, 106800, Note_on_c, 5, 69, 76
11, 107024, Note_on_c, 5, 69, 0
11, 107040, Note_on_c, 5, 68, 76
11, 107264, Note_on_c, 5, 68, 0
11, 107280, Note_on_c, 5, 69, 76
11, 107984, Note_on_c, 5, 69, 0
11, 108000, Note_on_c, 5, 74, 76
11, 108224, Note_on_c, 5, 74, 0
11, 108240, Note_on_c, 5, 74, 76
11, 108704, Note_on_c, 5, 74, 0
11, 108720, Note_on_c, 5, 74, 76
11, 109184, Note_on_c, 5, 74, 0
11, 109200, Note_on_c, 5, 74, 76
11, 109424, Note_on_c, 5, 74, 0
11, 109440, Note_on_c, 5, 69, 76
11, 109904, Note_on_c, 5, 69, 0
11, 109920, Note_on_c, 5, 69, 76
11, 110144, Note_on_c, 5, 69, 0
11, 110160, Note_on_c, 5, 67, 76
11, 110399, Note_on_c, 5, 67, 0
11, 110400, Note_on_c, 5, 69, 76
11, 110624, Note_on_c, 5, 69, 0
11, 110640, Note_on_c, 5, 69, 76
11, 110759, Note_on_c, 5, 69, 0
11, 110760, Note_on_c, 5, 67, 76
11, 110864, Note_on_c, 5, 67, 0
11, 110880, Note_on_c, 5, 69, 76
11, 110999, Note_on_c, 5, 69, 0
11, 111000, Note_on_c, 5, 71, 76
11, 111104, Note_on_c, 5, 71, 0
11, 111120, Note_on_c, 5, 73, 76
11, 111344, Note_on_c, 5, 73, 0
11, 111360, Note_on_c, 5, 69, 76
11, 111824, Note_on_c, 5, 69, 0
11, 111840, Note_on_c, 5, 64, 76
11, 112064, Note_on_c, 5, 64, 0
11, 112080, Note_on_c, 5, 69, 76
11, 112304, Note_on_c, 5, 69, 0
11, 112320, Note_on_c, 5, 68, 76
11, 112544, Note_on_c, 5, 68, 0
11, 112560, Note_on_c, 5, 69, 76
11, 112784, Note_on_c, 5, 69, 0
11, 112800, Note_on_c, 5, 78, 76
11, 113024, Note_on_c, 5, 78, 0
11, 113040, Note_on_c, 5, 78, 76
11, 113264, Note_on_c, 5, 78, 0
11, 113280, Note_on_c, 5, 76, 76
11, 113744, Note_on_c, 5, 76, 0
11, 113760, Note_on_c, 5, 68, 76
11, 113984, Note_on_c, 5, 68, 0
11, 114000, Note_on_c, 5, 73, 76
11, 114224, Note_on_c, 5, 73, 0
11, 114240, Note_on_c, 5, 69, 76
11, 114464, Note_on_c, 5, 69, 0
11, 114480, Note_on_c, 5, 69, 76
11, 114704, Note_on_c, 5, 69, 0
11, 114720, Note_on_c, 5, 68, 76
11, 114944, Note_on_c, 5, 68, 0
11, 114960, Note_on_c, 5, 69, 76
11, 115664, Note_on_c, 5, 69, 0
11, 117120, Note_on_c, 5, 69, 76
11, 117224, Note_on_c, 5, 69, 0
11, 117240, Note_on_c, 5, 73, 76
11, 117344, Note_on_c, 5, 73, 0
11, 117360, Note_on_c, 5, 76, 76
11, 117599, Note_on_c, 5, 76, 0
11, 119040, Note_on_c, 5, 71, 76
11, 119144, Note_on_c, 5, 71, 0
11, 119160, Note_on_c, 5, 74, 76
11, 119264, Note_on_c, 5, 74, 0
11, 119280, Note_on_c, 5, 78, 76
11, 119519, Note_on_c, 5, 78, 0
11, 120000, Note_on_c, 5, 67, 76
11, 120104, Note_on_c, 5, 67, 0
11, 120120, Note_on_c, 5, 73, 76
11, 120224, Note_on_c, 5, 73, 0
11, 120240, Note_on_c, 5, 76, 76
11, 120479, Note_on_c, 5, 76, 0
11, 120960, Note_on_c, 5, 66, 76
11, 121064, Note_on_c, 5, 66, 0
11, 121080, Note_on_c, 5, 70, 76
11, 121184, Note_on_c, 5, 70, 0
11, 121200, Note_on_c, 5, 73, 76
11, 121439, Note_on_c, 5, 73, 0
11, 122880, Note_on_c, 5, 71, 76
11, 122984, Note_on_c, 5, 71, 0
11, 123000, Note_on_c, 5, 74, 76
11, 123104, Note_on_c, 5, 74, 0
11, 123120, Note_on_c, 5, 78, 76
11, 123359, Note_on_c, 5, 78, 0
11, 124800, Note_on_c, 5, 69, 76
11, 124904, Note_on_c, 5, 69, 0
11, 124920, Note_on_c, 5, 72, 76
11, 125024, Note_on_c, 5, 72, 0
11, 125040, Note_on_c, 5, 78, 76
11, 125219, Note_on_c, 5, 78, 0
11, 125280, Note_on_c, 5, 66, 76
11, 125459, Note_on_c, 5, 66, 0
11, 125520, Note_on_c, 5, 67, 76
11, 125759, Note_on_c, 5, 67, 0
11, 125760, Note_on_c, 5, 69, 76
11, 125984, Note_on_c, 5, 69, 0
11, 126000, Note_on_c, 5, 69, 76
11, 126119, Note_on_c, 5, 69, 0
11, 126120, Note_on_c, 5, 67, 76
11, 126224, Note_on_c, 5, 67, 0
11, 126240, Note_on_c, 5, 69, 76
11, 126359, Note_on_c, 5, 69, 0
11, 126360, Note_on_c, 5, 71, 76
11, 126464, Note_on_c, 5, 71, 0
11, 126480, Note_on_c, 5, 73, 76
11, 126704, Note_on_c, 5, 73, 0
11, 126720, Note_on_c, 5, 69, 76
11, 127199, Note_on_c, 5, 69, 0
11, 128640, Note_on_c, 5, 69, 76
11, 128744, Note_on_c, 5, 69, 0
11, 128760, Note_on_c, 5, 73, 76
11, 128864, Note_on_c, 5, 73, 0
11, 128880, Note_on_c, 5, 76, 76
11, 129104, Note_on_c, 5, 76, 0
11, 129120, Note_on_c, 5, 78, 76
11, 129224, Note_on_c, 5, 78, 0
11, 129240, Note_on_c, 5, 79, 76
11, 129344, Note_on_c, 5, 79, 0
11, 129360, Note_on_c, 5, 78, 76
11, 129584, Note_on_c, 5, 78, 0
11, 129600, Note_on_c, 5, 71, 76
11, 129824, Note_on_c, 5, 71, 0
11, 129840, Note_on_c, 5, 69, 76
11, 130064, Note_on_c, 5, 69, 0
11, 130080, Note_on_c, 5, 69, 76
11, 130304, Note_on_c, 5, 69, 0
11, 130320, Note_on_c, 5, 69, 76
11, 131039, Note_on_c, 5, 69, 0
11, 132480, Note_on_c, 5, 69, 76
11, 132584, Note_on_c, 5, 69, 0
11, 132600, Note_on_c, 5, 73, 76
11, 132704, Note_on_c, 5, 73, 0
11, 132720, Note_on_c, 5, 76, 76
11, 132959, Note_on_c, 5, 76, 0
11, 134400, Note_on_c, 5, 71, 76
11, 134504, Note_on_c, 5, 71, 0
11, 134520, Note_on_c, 5, 74, 76
11, 134624, Note_on_c, 5, 74, 0
11, 134640, Note_on_c, 5, 78, 76
11, 134879, Note_on_c, 5, 78, 0
11, 135360, Note_on_c, 5, 67, 76
11, 135464, Note_on_c, 5, 67, 0
11, 135480, Note_on_c, 5, 73, 76
11, 135584, Note_on_c, 5, 73, 0
11, 135600, Note_on_c, 5, 76, 76
11, 135839, Note_on_c, 5, 76, 0
11, 136320, Note_on_c, 5, 66, 76
11, 136424, Note_on_c, 5, 66, 0
11, 136440, Note_on_c, 5, 70, 76
11, 136544, Note_on_c, 5, 70, 0
11, 136560, Note_on_c, 5, 73, 76
11, 136799, Note_on_c, 5, 73, 0
11, 138240, Note_on_c, 5, 71, 76
11, 138344, Note_on_c, 5, 71, 0
11, 138360, Note_on_c, 5, 74, 76
11, 138464, Note_on_c, 5, 74, 0
11, 138480, Note_on_c, 5, 78, 76
11, 138719, Note_on_c, 5, 78, 0
11, 140160, Note_on_c, 5, 69, 76
11, 140264, Note_on_c, 5, 69, 0
11, 140280, Note_on_c, 5, 72, 76
11, 140384, Note_on_c, 5, 72, 0
11, 140400, Note_on_c, 5, 78, 76
11, 140579, Note_on_c, 5, 78, 0
11, 140640, Note_on_c, 5, 66, 76
11, 140819, Note_on_c, 5, 66, 0
11, 140880, Note_on_c, 5, 67, 76
11, 141119, Note_on_c, 5, 67, 0
11, 141120, Note_on_c, 5, 69, 76
11, 141344, Note_on_c, 5, 69, 0
11, 141360, Note_on_c, 5, 69, 76
11, 141479, Note_on_c, 5, 69, 0
11, 141480, Note_on_c, 5, 67, 76
11, 141584, Note_on_c, 5, 67, 0
11, 141600, Note_on_c, 5, 69, 76
11, 141719, Note_on_c, 5, 69, 0
11, 141720, Note_on_c, 5, 71, 76
11, 141824, Note_on_c, 5, 71, 0
11, 141840, Note_on_c, 5, 73, 76
11, 142064, Note_on_c, 5, 73, 0
11, 142080, Note_on_c, 5, 69, 76
11, 142559, Note_on_c, 5, 69, 0
11, 144000, Note_on_c, 5, 69, 76
11, 144104, Note_on_c, 5, 69, 0
11, 144120, Note_on_c, 5, 73, 76
11, 144224, Note_on_c, 5, 73, 0
11, 144240, Note_on_c, 5, 76, 76
11, 144464, Note_on_c, 5, 76, 0
11, 144480, Note_on_c, 5, 78, 76
11, 144584, Note_on_c, 5, 78, 0
11, 144600, Note_on_c, 5, 79, 76
11, 144704, Note_on_c, 5, 79, 0
11, 144720, Note_on_c, 5, 78, 76
11, 144944, Note_on_c, 5, 78, 0
11, 144960, Note_on_c, 5, 71, 76
11, 145184, Note_on_c, 5, 71, 0
11, 145200, Note_on_c, 5, 69, 76
11, 145424, Note_on_c, 5, 69, 0
11, 145440, Note_on_c, 5, 69, 76
11, 145664, Note_on_c, 5, 69, 0
11, 145680, Note_on_c, 5, 69, 76
11, 146399, Note_on_c, 5, 69, 0
11, 146399, End_track
12, 0, Start_track
12, 0, Title_t, "Oboe III"
12, 0, MIDI_port, 0
12, 0, Program_c, 6, 68
12, 0, Control_c, 6, 10, 69
12, 0, Control_c, 6, 11, 127
12, 0, Control_c, 6, 7, 80
12, 0, Note_on_c, 6, 69, 76
12, 224, Note_on_c, 6, 69, 0
12, 240, Note_on_c, 6, 62, 76
12, 704, Note_on_c, 6, 62, 0
12, 720, Note_on_c, 6, 71, 76
12, 1184, Note_on_c, 6, 71, 0
12, 1200, Note_on_c, 6, 69, 76
12, 1424, Note_on_c, 6, 69, 0
12, 1440, Note_on_c, 6, 66, 76
12, 1904, Note_on_c, 6, 66, 0
12, 1920, Note_on_c, 6, 66, 76
12, 2144, Note_on_c, 6, 66, 0
12, 2160, Note_on_c, 6, 62, 76
12, 2384, Note_on_c, 6, 62, 0
12, 2400, Note_on_c, 6, 64, 76
12, 2624, Note_on_c, 6, 64, 0
12, 2640, Note_on_c, 6, 66, 76
12, 2864, Note_on_c, 6, 66, 0
12, 2880, Note_on_c, 6, 66, 76
12, 3104, Note_on_c, 6, 66, 0
12, 3120, Note_on_c, 6, 64, 76
12, 3344, Note_on_c, 6, 64, 0
12, 3360, Note_on_c, 6, 64, 76
12, 3824, Note_on_c, 6, 64, 0
12, 3840, Note_on_c, 6, 64, 76
12, 4064, Note_on_c, 6, 64, 0
12, 4080, Note_on_c, 6, 66, 76
12, 4304, Note_on_c, 6, 66, 0
12, 4320, Note_on_c, 6, 62, 76
12, 4544, Note_on_c, 6, 62, 0
12, 4560, Note_on_c, 6, 64, 76
12, 4784, Note_on_c, 6, 64, 0
12, 4800, Note_on_c, 6, 69, 76
12, 5024, Note_on_c, 6, 69, 0
12, 5040, Note_on_c, 6, 74, 76
12, 5264, Note_on_c, 6, 74, 0
12, 5280, Note_on_c, 6, 74, 76
12, 5744, Note_on_c, 6, 74, 0
12, 5760, Note_on_c, 6, 76, 76
12, 5984, Note_on_c, 6, 76, 0
12, 6000, Note_on_c, 6, 69, 76
12, 6224, Note_on_c, 6, 69, 0
12, 6240, Note_on_c, 6, 62, 76
12, 6464, Note_on_c, 6, 62, 0
12, 6480, Note_on_c, 6, 64, 76
12, 6704, Note_on_c, 6, 64, 0
12, 6720, Note_on_c, 6, 64, 76
12, 6944, Note_on_c, 6, 64, 0
12, 6960, Note_on_c, 6, 64, 76
12, 7664, Note_on_c, 6, 64, 0
12, 7680, Note_on_c, 6, 69, 76
12, 7904, Note_on_c, 6, 69, 0
12, 7920, Note_on_c, 6, 62, 76
12, 8384, Note_on_c, 6, 62, 0
12, 8400, Note_on_c, 6, 71, 76
12, 8864, Note_on_c, 6, 71, 0
12, 8880, Note_on_c, 6, 69, 76
12, 9104, Note_on_c, 6, 69, 0
12, 9120, Note_on_c, 6, 66, 76
12, 9584, Note_on_c, 6, 66, 0
12, 9600, Note_on_c, 6, 66, 76
12, 9824, Note_on_c, 6, 66, 0
12, 9840, Note_on_c, 6, 62, 76
12, 10064, Note_on_c, 6, 62, 0
12, 10080, Note_on_c, 6, 64, 76
12, 10304, Note_on_c, 6, 64, 0
12, 10320, Note_on_c, 6, 66, 76
12, 10544, Note_on_c, 6, 66, 0
12, 10560, Note_on_c, 6, 66, 76
12, 10784, Note_on_c, 6, 66, 0
12, 10800, Note_on_c, 6, 64, 76
12, 11024, Note_on_c, 6, 64, 0
12, 11040, Note_on_c, 6, 64, 76
12, 11504, Note_on_c, 6, 64, 0
12, 11520, Note_on_c, 6, 64, 76
12, 11744, Note_on_c, 6, 64, 0
12, 11760, Note_on_c, 6, 66, 76
12, 11984, Note_on_c, 6, 66, 0
12, 12000, Note_on_c, 6, 62, 76
12, 12224, Note_on_c, 6, 62, 0
12, 12240, Note_on_c, 6, 64, 76
12, 12464, Note_on_c, 6, 64, 0
12, 12480, Note_on_c, 6, 69, 76
12, 12704, Note_on_c, 6, 69, 0
12, 12720, Note_on_c, 6, 74, 76
12, 12944, Note_on_c, 6, 74, 0
12, 12960, Note_on_c, 6, 74, 76
12, 13424, Note_on_c, 6, 74, 0
12, 13440, Note_on_c, 6, 76, 76
12, 13664, Note_on_c, 6, 76, 0
12, 13680, Note_on_c, 6, 69, 76
12, 13904, Note_on_c, 6, 69, 0
12, 13920, Note_on_c, 6, 62, 76
12, 14144, Note_on_c, 6, 62, 0
12, 14160, Note_on_c, 6, 64, 76
12, 14384, Note_on_c, 6, 64, 0
12, 14400, Note_on_c, 6, 64, 76
12, 14624, Note_on_c, 6, 64, 0
12, 14640, Note_on_c, 6, 64, 76
12, 15344, Note_on_c, 6, 64, 0
12, 16800, Note_on_c, 6, 64, 76
12, 16904, Note_on_c, 6, 64, 0
12, 16920, Note_on_c, 6, 69, 76
12, 17024, Note_on_c, 6, 69, 0
12, 17040, Note_on_c, 6, 73, 76
12, 17279, Note_on_c, 6, 73, 0
12, 18720, Note_on_c, 6, 66, 76
12, 18824, Note_on_c, 6, 66, 0
12, 18840, Note_on_c, 6, 71, 76
12, 18944, Note_on_c, 6, 71, 0
12, 18960, Note_on_c, 6, 74, 76
12, 19199, Note_on_c, 6, 74, 0
12, 19680, Note_on_c, 6, 64, 76
12, 19784, Note_on_c, 6, 64, 0
12, 19800, Note_on_c, 6, 67, 76
12, 19904, Note_on_c, 6, 67, 0
12, 19920, Note_on_c, 6, 73, 76
12, 20159, Note_on_c, 6, 73, 0
12, 20640, Note_on_c, 6, 73, 76
12, 20744, Note_on_c, 6, 73, 0
12, 20760, Note_on_c, 6, 70, 76
12, 20864, Note_on_c, 6, 70, 0
12, 20880, Note_on_c, 6, 66, 76
12, 21119, Note_on_c, 6, 66, 0
12, 22560, Note_on_c, 6, 66, 76
12, 22664, Note_on_c, 6, 66, 0
12, 22680, Note_on_c, 6, 71, 76
12, 22784, Note_on_c, 6, 71, 0
12, 22800, Note_on_c, 6, 74, 76
12, 23039, Note_on_c, 6, 74, 0
12, 24480, Note_on_c, 6, 62, 76
12, 24584, Note_on_c, 6, 62, 0
12, 24600, Note_on_c, 6, 69, 76
12, 24704, Note_on_c, 6, 69, 0
12, 24720, Note_on_c, 6, 72, 76
12, 24944, Note_on_c, 6, 72, 0
12, 24960, Note_on_c, 6, 62, 76
12, 25184, Note_on_c, 6, 62, 0
12, 25200, Note_on_c, 6, 62, 76
12, 25439, Note_on_c, 6, 62, 0
12, 25440, Note_on_c, 6, 64, 76
12, 25664, Note_on_c, 6, 64, 0
12, 25680, Note_on_c, 6, 66, 76
12, 25904, Note_on_c, 6, 66, 0
12, 25920, Note_on_c, 6, 66, 76
12, 26144, Note_on_c, 6, 66, 0
12, 26160, Note_on_c, 6, 64, 76
12, 26384, Note_on_c, 6, 64, 0
12, 26400, Note_on_c, 6, 64, 76
12, 26879, Note_on_c, 6, 64, 0
12, 28320, Note_on_c, 6, 64, 76
12, 28424, Note_on_c, 6, 64, 0
12, 28440, Note_on_c, 6, 69, 76
12, 28544, Note_on_c, 6, 69, 0
12, 28560, Note_on_c, 6, 73, 76
12, 28739, Note_on_c, 6, 73, 0
12, 28800, Note_on_c, 6, 73, 76
12, 28979, Note_on_c, 6, 73, 0
12, 29040, Note_on_c, 6, 74, 76
12, 29264, Note_on_c, 6, 74, 0
12, 29280, Note_on_c, 6, 64, 76
12, 29504, Note_on_c, 6, 64, 0
12, 29520, Note_on_c, 6, 66, 76
12, 29744, Note_on_c, 6, 66, 0
12, 29760, Note_on_c, 6, 67, 76
12, 29984, Note_on_c, 6, 67, 0
12, 30000, Note_on_c, 6, 66, 76
12, 30719, Note_on_c, 6, 66, 0
12, 32160, Note_on_c, 6, 64, 76
12, 32264, Note_on_c, 6, 64, 0
12, 32280, Note_on_c, 6, 69, 76
12, 32384, Note_on_c, 6, 69, 0
12, 32400, Note_on_c, 6, 73, 76
12, 32639, Note_on_c, 6, 73, 0
12, 34080, Note_on_c, 6, 66, 76
12, 34184, Note_on_c, 6, 66, 0
12, 34200, Note_on_c, 6, 71, 76
12, 34304, Note_on_c, 6, 71, 0
12, 34320, Note_on_c, 6, 74, 76
12, 34559, Note_on_c, 6, 74, 0
12, 35040, Note_on_c, 6, 64, 76
12, 35144, Note_on_c, 6, 64, 0
12, 35160, Note_on_c, 6, 67, 76
12, 35264, Note_on_c, 6, 67, 0
12, 35280, Note_on_c, 6, 73, 76
12, 35519, Note_on_c, 6, 73, 0
12, 36000, Note_on_c, 6, 73, 76
12, 36104, Note_on_c, 6, 73, 0
12, 36120, Note_on_c, 6, 70, 76
12, 36224, Note_on_c, 6, 70, 0
12, 36240, Note_on_c, 6, 66, 76
12, 36479, Note_on_c, 6, 66, 0
12, 37920, Note_on_c, 6, 66, 76
12, 38024, Note_on_c, 6, 66, 0
12, 38040, Note_on_c, 6, 71, 76
12, 38144, Note_on_c, 6, 71, 0
12, 38160, Note_on_c, 6, 74, 76
12, 38399, Note_on_c, 6, 74, 0
12, 39840, Note_on_c, 6, 62, 76
12, 39944, Note_on_c, 6, 62, 0
12, 39960, Note_on_c, 6, 69, 76
12, 40064, Note_on_c, 6, 69, 0
12, 40080, Note_on_c, 6, 72, 76
12, 40304, Note_on_c, 6, 72, 0
12, 40320, Note_on_c, 6, 62, 76
12, 40544, Note_on_c, 6, 62, 0
12, 40560, Note_on_c, 6, 62, 76
12, 40799, Note_on_c, 6, 62, 0
12, 40800, Note_on_c, 6, 64, 76
12, 41024, Note_on_c, 6, 64, 0
12, 41040, Note_on_c, 6, 66, 76
12, 41264, Note_on_c, 6, 66, 0
12, 41280, Note_on_c, 6, 66, 76
12, 41504, Note_on_c, 6, 66, 0
12, 41520, Note_on_c, 6, 64, 76
12, 41744, Note_on_c, 6, 64, 0
12, 41760, Note_on_c, 6, 64, 76
12, 42239, Note_on_c, 6, 64, 0
12, 43680, Note_on_c, 6, 64, 76
12, 43784, Note_on_c, 6, 64, 0
12, 43800, Note_on_c, 6, 69, 76
12, 43904, Note_on_c, 6, 69, 0
12, 43920, Note_on_c, 6, 73, 76
12, 44099, Note_on_c, 6, 73, 0
12, 44160, Note_on_c, 6, 73, 76
12, 44339, Note_on_c, 6, 73, 0
12, 44400, Note_on_c, 6, 74, 76
12, 44624, Note_on_c, 6, 74, 0
12, 44640, Note_on_c, 6, 64, 76
12, 44864, Note_on_c, 6, 64, 0
12, 44880, Note_on_c, 6, 66, 76
12, 45104, Note_on_c, 6, 66, 0
12, 45120, Note_on_c, 6, 67, 76
12, 45344, Note_on_c, 6, 67, 0
12, 45360, Note_on_c, 6, 66, 76
12, 46079, Note_on_c, 6, 66, 0
12, 46320, Note_on_c, 6, 71, 76
12, 46544, Note_on_c, 6, 71, 0
12, 46560, Note_on_c, 6, 66, 76
12, 47039, Note_on_c, 6, 66, 0
12, 47280, Note_on_c, 6, 67, 76
12, 47504, Note_on_c, 6, 67, 0
12, 47520, Note_on_c, 6, 66, 76
12, 47999, Note_on_c, 6, 66, 0
12, 48240, Note_on_c, 6, 70, 76
12, 48464, Note_on_c, 6, 70, 0
12, 48480, Note_on_c, 6, 71, 76
12, 48704, Note_on_c, 6, 71, 0
12, 48720, Note_on_c, 6, 67, 76
12, 48944, Note_on_c, 6, 67, 0
12, 48960, Note_on_c, 6, 66, 76
12, 49184, Note_on_c, 6, 66, 0
12, 49200, Note_on_c, 6, 66, 76
12, 49424, Note_on_c, 6, 66, 0
12, 49440, Note_on_c, 6, 66, 76
12, 49664, Note_on_c, 6, 66, 0
12, 49680, Note_on_c, 6, 64, 76
12, 49784, Note_on_c, 6, 64, 0
12, 49800, Note_on_c, 6, 66, 76
12, 49904, Note_on_c, 6, 66, 0
12, 49920, Note_on_c, 6, 62, 76
12, 50144, Note_on_c, 6, 62, 0
12, 50160, Note_on_c, 6, 66, 76
12, 50384, Note_on_c, 6, 66, 0
12, 50400, Note_on_c, 6, 66, 76
12, 50879, Note_on_c, 6, 66, 0
12, 51120, Note_on_c, 6, 66, 76
12, 51344, Note_on_c, 6, 66, 0
12, 51360, Note_on_c, 6, 66, 76
12, 51839, Note_on_c, 6, 66, 0
12, 52080, Note_on_c, 6, 71, 76
12, 52304, Note_on_c, 6, 71, 0
12, 52320, Note_on_c, 6, 71, 76
12, 52799, Note_on_c, 6, 71, 0
12, 53040, Note_on_c, 6, 69, 76
12, 53264, Note_on_c, 6, 69, 0
12, 53280, Note_on_c, 6, 69, 76
12, 53759, Note_on_c, 6, 69, 0
12, 54000, Note_on_c, 6, 74, 76
12, 54224, Note_on_c, 6, 74, 0
12, 54240, Note_on_c, 6, 74, 76
12, 54719, Note_on_c, 6, 74, 0
12, 54960, Note_on_c, 6, 73, 76
12, 55184, Note_on_c, 6, 73, 0
12, 55200, Note_on_c, 6, 73, 76
12, 55679, Note_on_c, 6, 73, 0
12, 55920, Note_on_c, 6, 73, 76
12, 56144, Note_on_c, 6, 73, 0
12, 56160, Note_on_c, 6, 73, 76
12, 56384, Note_on_c, 6, 73, 0
12, 56400, Note_on_c, 6, 74, 76
12, 56624, Note_on_c, 6, 74, 0
12, 56640, Note_on_c, 6, 74, 76
12, 56879, Note_on_c, 6, 74, 0
12, 56880, Note_on_c, 6, 73, 76
12, 57104, Note_on_c, 6, 73, 0
12, 57120, Note_on_c, 6, 73, 76
12, 57824, Note_on_c, 6, 73, 0
12, 57840, Note_on_c, 6, 71, 76
12, 58064, Note_on_c, 6, 71, 0
12, 58080, Note_on_c, 6, 66, 76
12, 58559, Note_on_c, 6, 66, 0
12, 58800, Note_on_c, 6, 67, 76
12, 59024, Note_on_c, 6, 67, 0
12, 59040, Note_on_c, 6, 66, 76
12, 59519, Note_on_c, 6, 66, 0
12, 59760, Note_on_c, 6, 70, 76
12, 59984, Note_on_c, 6, 70, 0
12, 60000, Note_on_c, 6, 71, 76
12, 60224, Note_on_c, 6, 71, 0
12, 60240, Note_on_c, 6, 67, 76
12, 60464, Note_on_c, 6, 67, 0
12, 60480, Note_on_c, 6, 66, 76
12, 60704, Note_on_c, 6, 66, 0
12, 60720, Note_on_c, 6, 66, 76
12, 60944, Note_on_c, 6, 66, 0
12, 60960, Note_on_c, 6, 66, 76
12, 61184, Note_on_c, 6, 66, 0
12, 61200, Note_on_c, 6, 64, 76
12, 61304, Note_on_c, 6, 64, 0
12, 61320, Note_on_c, 6, 66, 76
12, 61424, Note_on_c, 6, 66, 0
12, 61440, Note_on_c, 6, 62, 76
12, 61664, Note_on_c, 6, 62, 0
12, 61680, Note_on_c, 6, 66, 76
12, 61904, Note_on_c, 6, 66, 0
12, 61920, Note_on_c, 6, 66, 76
12, 62399, Note_on_c, 6, 66, 0
12, 62640, Note_on_c, 6, 66, 76
12, 62864, Note_on_c, 6, 66, 0
12, 62880, Note_on_c, 6, 66, 76
12, 63359, Note_on_c, 6, 66, 0
12, 63600, Note_on_c, 6, 71, 76
12, 63824, Note_on_c, 6, 71, 0
12, 63840, Note_on_c, 6, 71, 76
12, 64319, Note_on_c, 6, 71, 0
12, 64560, Note_on_c, 6, 69, 76
12, 64784, Note_on_c, 6, 69, 0
12, 64800, Note_on_c, 6, 69, 76
12, 65279, Note_on_c, 6, 69, 0
12, 65520, Note_on_c, 6, 74, 76
12, 65744, Note_on_c, 6, 74, 0
12, 65760, Note_on_c, 6, 74, 76
12, 66239, Note_on_c, 6, 74, 0
12, 66480, Note_on_c, 6, 73, 76
12, 66704, Note_on_c, 6, 73, 0
12, 66720, Note_on_c, 6, 73, 76
12, 67199, Note_on_c, 6, 73, 0
12, 67440, Note_on_c, 6, 73, 76
12, 67664, Note_on_c, 6, 73, 0
12, 67680, Note_on_c, 6, 73, 76
12, 67904, Note_on_c, 6, 73, 0
12, 67920, Note_on_c, 6, 74, 76
12, 68144, Note_on_c, 6, 74, 0
12, 68160, Note_on_c, 6, 74, 76
12, 68399, Note_on_c, 6, 74, 0
12, 68400, Note_on_c, 6, 73, 76
12, 68624, Note_on_c, 6, 73, 0
12, 68640, Note_on_c, 6, 73, 76
12, 69344, Note_on_c, 6, 73, 0
12, 69360, Note_on_c, 6, 66, 76
12, 69584, Note_on_c, 6, 66, 0
12, 69600, Note_on_c, 6, 66, 76
12, 70079, Note_on_c, 6, 66, 0
12, 70320, Note_on_c, 6, 63, 76
12, 70544, Note_on_c, 6, 63, 0
12, 70560, Note_on_c, 6, 64, 76
12, 71039, Note_on_c, 6, 64, 0
12, 71280, Note_on_c, 6, 64, 76
12, 71504, Note_on_c, 6, 64, 0
12, 71520, Note_on_c, 6, 69, 76
12, 71744, Note_on_c, 6, 69, 0
12, 71760, Note_on_c, 6, 67, 76
12, 71984, Note_on_c, 6, 67, 0
12, 72000, Note_on_c, 6, 66, 76
12, 72224, Note_on_c, 6, 66, 0
12, 72240, Note_on_c, 6, 66, 76
12, 72464, Note_on_c, 6, 66, 0
12, 72480, Note_on_c, 6, 66, 76
12, 72704, Note_on_c, 6, 66, 0
12, 72720, Note_on_c, 6, 64, 76
12, 72824, Note_on_c, 6, 64, 0
12, 72840, Note_on_c, 6, 66, 76
12, 72944, Note_on_c, 6, 66, 0
12, 72960, Note_on_c, 6, 63, 76
12, 73184, Note_on_c, 6, 63, 0
12, 73200, Note_on_c, 6, 71, 76
12, 73424, Note_on_c, 6, 71, 0
12, 73440, Note_on_c, 6, 74, 76
12, 73919, Note_on_c, 6, 74, 0
12, 74160, Note_on_c, 6, 72, 76
12, 74384, Note_on_c, 6, 72, 0
12, 74400, Note_on_c, 6, 71, 76
12, 74879, Note_on_c, 6, 71, 0
12, 75120, Note_on_c, 6, 71, 76
12, 75344, Note_on_c, 6, 71, 0
12, 75360, Note_on_c, 6, 71, 76
12, 75584, Note_on_c, 6, 71, 0
12, 75600, Note_on_c, 6, 72, 76
12, 75824, Note_on_c, 6, 72, 0
12, 75840, Note_on_c, 6, 72, 76
12, 76079, Note_on_c, 6, 72, 0
12, 76080, Note_on_c, 6, 71, 76
12, 76304, Note_on_c, 6, 71, 0
12, 76320, Note_on_c, 6, 71, 76
12, 76799, Note_on_c, 6, 71, 0
12, 77040, Note_on_c, 6, 67, 76
12, 77264, Note_on_c, 6, 67, 0
12, 77280, Note_on_c, 6, 64, 76
12, 77759, Note_on_c, 6, 64, 0
12, 78000, Note_on_c, 6, 69, 76
12, 78224, Note_on_c, 6, 69, 0
12, 78240, Note_on_c, 6, 74, 76
12, 78719, Note_on_c, 6, 74, 0
12, 78960, Note_on_c, 6, 71, 76
12, 79184, Note_on_c, 6, 71, 0
12, 79200, Note_on_c, 6, 73, 76
12, 79424, Note_on_c, 6, 73, 0
12, 79440, Note_on_c, 6, 74, 76
12, 79664, Note_on_c, 6, 74, 0
12, 79680, Note_on_c, 6, 66, 76
12, 79904, Note_on_c, 6, 66, 0
12, 79920, Note_on_c, 6, 71, 76
12, 80144, Note_on_c, 6, 71, 0
12, 80160, Note_on_c, 6, 70, 76
12, 80384, Note_on_c, 6, 70, 0
12, 80400, Note_on_c, 6, 66, 76
12, 80624, Note_on_c, 6, 66, 0
12, 80640, Note_on_c, 6, 71, 76
12, 80864, Note_on_c, 6, 71, 0
12, 80880, Note_on_c, 6, 74, 76
12, 81104, Note_on_c, 6, 74, 0
12, 81120, Note_on_c, 6, 71, 76
12, 81599, Note_on_c, 6, 71, 0
12, 81840, Note_on_c, 6, 69, 76
12, 82064, Note_on_c, 6, 69, 0
12, 82080, Note_on_c, 6, 69, 76
12, 82559, Note_on_c, 6, 69, 0
12, 82800, Note_on_c, 6, 66, 76
12, 83024, Note_on_c, 6, 66, 0
12, 83040, Note_on_c, 6, 66, 76
12, 83264, Note_on_c, 6, 66, 0
12, 83280, Note_on_c, 6, 67, 76
12, 83504, Note_on_c, 6, 67, 0
12, 83520, Note_on_c, 6, 67, 76
12, 83744, Note_on_c, 6, 67, 0
12, 83760, Note_on_c, 6, 66, 76
12, 83984, Note_on_c, 6, 66, 0
12, 84000, Note_on_c, 6, 66, 76
12, 84704, Note_on_c, 6, 66, 0
12, 84720, Note_on_c, 6, 66, 76
12, 84944, Note_on_c, 6, 66, 0
12, 84960, Note_on_c, 6, 66, 76
12, 85439, Note_on_c, 6, 66, 0
12, 85680, Note_on_c, 6, 63, 76
12, 85904, Note_on_c, 6, 63, 0
12, 85920, Note_on_c, 6, 64, 76
12, 86399, Note_on_c, 6, 64, 0
12, 86640, Note_on_c, 6, 64, 76
12, 86864, Note_on_c, 6, 64, 0
12, 86880, Note_on_c, 6, 69, 76
12, 87104, Note_on_c, 6, 69, 0
12, 87120, Note_on_c, 6, 67, 76
12, 87344, Note_on_c, 6, 67, 0
12, 87360, Note_on_c, 6, 66, 76
12, 87584, Note_on_c, 6, 66, 0
12, 87600, Note_on_c, 6, 66, 76
12, 87824, Note_on_c, 6, 66, 0
12, 87840, Note_on_c, 6, 66, 76
12, 88064, Note_on_c, 6, 66, 0
12, 88080, Note_on_c, 6, 64, 76
12, 88184, Note_on_c, 6, 64, 0
12, 88200, Note_on_c, 6, 66, 76
12, 88304, Note_on_c, 6, 66, 0
12, 88320, Note_on_c, 6, 63, 76
12, 88544, Note_on_c, 6, 63, 0
12, 88560, Note_on_c, 6, 71, 76
12, 88784, Note_on_c, 6, 71, 0
12, 88800, Note_on_c, 6, 74, 76
12, 89279, Note_on_c, 6, 74, 0
12, 89520, Note_on_c, 6, 72, 76
12, 89744, Note_on_c, 6, 72, 0
12, 89760, Note_on_c, 6, 71, 76
12, 90239, Note_on_c, 6, 71, 0
12, 90480, Note_on_c, 6, 71, 76
12, 90704, Note_on_c, 6, 71, 0
12, 90720, Note_on_c, 6, 71, 76
12, 90944, Note_on_c, 6, 71, 0
12, 90960, Note_on_c, 6, 72, 76
12, 91184, Note_on_c, 6, 72, 0
12, 91200, Note_on_c, 6, 72, 76
12, 91439, Note_on_c, 6, 72, 0
12, 91440, Note_on_c, 6, 71, 76
12, 91664, Note_on_c, 6, 71, 0
12, 91680, Note_on_c, 6, 71, 76
12, 92159, Note_on_c, 6, 71, 0
12, 92400, Note_on_c, 6, 67, 76
12, 92624, Note_on_c, 6, 67, 0
12, 92640, Note_on_c, 6, 64, 76
12, 93119, Note_on_c, 6, 64, 0
12, 93360, Note_on_c, 6, 69, 76
12, 93584, Note_on_c, 6, 69, 0
12, 93600, Note_on_c, 6, 74, 76
12, 94079, Note_on_c, 6, 74, 0
12, 94320, Note_on_c, 6, 71, 76
12, 94544, Note_on_c, 6, 71, 0
12, 94560, Note_on_c, 6, 73, 76
12, 94784, Note_on_c, 6, 73, 0
12, 94800, Note_on_c, 6, 74, 76
12, 95024, Note_on_c, 6, 74, 0
12, 95040, Note_on_c, 6, 66, 76
12, 95264, Note_on_c, 6, 66, 0
12, 95280, Note_on_c, 6, 71, 76
12, 95504, Note_on_c, 6, 71, 0
12, 95520, Note_on_c, 6, 70, 76
12, 95744, Note_on_c, 6, 70, 0
12, 95760, Note_on_c, 6, 66, 76
12, 95984, Note_on_c, 6, 66, 0
12, 96000, Note_on_c, 6, 71, 76
12, 96224, Note_on_c, 6, 71, 0
12, 96240, Note_on_c, 6, 74, 76
12, 96464, Note_on_c, 6, 74, 0
12, 96480, Note_on_c, 6, 71, 76
12, 96959, Note_on_c, 6, 71, 0
12, 97200, Note_on_c, 6, 69, 76
12, 97424, Note_on_c, 6, 69, 0
12, 97440, Note_on_c, 6, 69, 76
12, 97919, Note_on_c, 6, 69, 0
12, 98160, Note_on_c, 6, 66, 76
12, 98384, Note_on_c, 6, 66, 0
12, 98400, Note_on_c, 6, 66, 76
12, 98624, Note_on_c, 6, 66, 0
12, 98640, Note_on_c, 6, 67, 76
12, 98864, Note_on_c, 6, 67, 0
12, 98880, Note_on_c, 6, 67, 76
12, 99104, Note_on_c, 6, 67, 0
12, 99120, Note_on_c, 6, 66, 76
12, 99344, Note_on_c, 6, 66, 0
12, 99360, Note_on_c, 6, 66, 76
12, 100064, Note_on_c, 6, 66, 0
12, 100320, Note_on_c, 6, 69, 76
12, 100544, Note_on_c, 6, 69, 0
12, 100560, Note_on_c, 6, 62, 76
12, 101024, Note_on_c, 6, 62, 0
12, 101040, Note_on_c, 6, 71, 76
12, 101504, Note_on_c, 6, 71, 0
12, 101520, Note_on_c, 6, 69, 76
12, 101744, Note_on_c, 6, 69, 0
12, 101760, Note_on_c, 6, 66, 76
12, 102224, Note_on_c, 6, 66, 0
12, 102240, Note_on_c, 6, 66, 76
12, 102464, Note_on_c, 6, 66, 0
12, 102480, Note_on_c, 6, 62, 76
12, 102704, Note_on_c, 6, 62, 0
12, 102720, Note_on_c, 6, 64, 76
12, 102944, Note_on_c, 6, 64, 0
12, 102960, Note_on_c, 6, 66, 76
12, 103184, Note_on_c, 6, 66, 0
12, 103200, Note_on_c, 6, 66, 76
12, 103424, Note_on_c, 6, 66, 0
12, 103440, Note_on_c, 6, 64, 76
12, 103664, Note_on_c, 6, 64, 0
12, 103680, Note_on_c, 6, 64, 76
12, 104144, Note_on_c, 6, 64, 0
12, 104160, Note_on_c, 6, 64, 76
12, 104384, Note_on_c, 6, 64, 0
12, 104400, Note_on_c, 6, 66, 76
12, 104624, Note_on_c, 6, 66, 0
12, 104640, Note_on_c, 6, 62, 76
12, 104864, Note_on_c, 6, 62, 0
12, 104880, Note_on_c, 6, 64, 76
12, 105104, Note_on_c, 6, 64, 0
12, 105120, Note_on_c, 6, 69, 76
12, 105344, Note_on_c, 6, 69, 0
12, 105360, Note_on_c, 6, 74, 76
12, 105584, Note_on_c, 6, 74, 0
12, 105600, Note_on_c, 6, 74, 76
12, 106064, Note_on_c, 6, 74, 0
12, 106080, Note_on_c, 6, 76, 76
12, 106304, Note_on_c, 6, 76, 0
12, 106320, Note_on_c, 6, 69, 76
12, 106544, Note_on_c, 6, 69, 0
12, 106560, Note_on_c, 6, 62, 76
12, 106784, Note_on_c, 6, 62, 0
12, 106800, Note_on_c, 6, 64, 76
12, 107024, Note_on_c, 6, 64, 0
12, 107040, Note_on_c, 6, 64, 76
12, 107264, Note_on_c, 6, 64, 0
12, 107280, Note_on_c, 6, 64, 76
12, 107984, Note_on_c, 6, 64, 0
12, 108000, Note_on_c, 6, 69, 76
12, 108224, Note_on_c, 6, 69, 0
12, 108240, Note_on_c, 6, 62, 76
12, 108704, Note_on_c, 6, 62, 0
12, 108720, Note_on_c, 6, 71, 76
12, 109184, Note_on_c, 6, 71, 0
12, 109200, Note_on_c, 6, 69, 76
12, 109424, Note_on_c, 6, 69, 0
12, 109440, Note_on_c, 6, 66, 76
12, 109904, Note_on_c, 6, 66, 0
12, 109920, Note_on_c, 6, 66, 76
12, 110144, Note_on_c, 6, 66, 0
12, 110160, Note_on_c, 6, 62, 76
12, 110384, Note_on_c, 6, 62, 0
12, 110400, Note_on_c, 6, 64, 76
12, 110624, Note_on_c, 6, 64, 0
12, 110640, Note_on_c, 6, 66, 76
12, 110864, Note_on_c, 6, 66, 0
12, 110880, Note_on_c, 6, 66, 76
12, 111104, Note_on_c, 6, 66, 0
12, 111120, Note_on_c, 6, 64, 76
12, 111344, Note_on_c, 6, 64, 0
12, 111360, Note_on_c, 6, 64, 76
12, 111824, Note_on_c, 6, 64, 0
12, 111840, Note_on_c, 6, 64, 76
12, 112064, Note_on_c, 6, 64, 0
12, 112080, Note_on_c, 6, 66, 76
12, 112304, Note_on_c, 6, 66, 0
12, 112320, Note_on_c, 6, 62, 76
12, 112544, Note_on_c, 6, 62, 0
12, 112560, Note_on_c, 6, 64, 76
12, 112784, Note_on_c, 6, 64, 0
12, 112800, Note_on_c, 6, 69, 76
12, 113024, Note_on_c, 6, 69, 0
12, 113040, Note_on_c, 6, 74, 76
12, 113264, Note_on_c, 6, 74, 0
12, 113280, Note_on_c, 6, 74, 76
12, 113744, Note_on_c, 6, 74, 0
12, 113760, Note_on_c, 6, 76, 76
12, 113984, Note_on_c, 6, 76, 0
12, 114000, Note_on_c, 6, 69, 76
12, 114224, Note_on_c, 6, 69, 0
12, 114240, Note_on_c, 6, 62, 76
12, 114464, Note_on_c, 6, 62, 0
12, 114480, Note_on_c, 6, 64, 76
12, 114704, Note_on_c, 6, 64, 0
12, 114720, Note_on_c, 6, 64, 76
12, 114944, Note_on_c, 6, 64, 0
12, 114960, Note_on_c, 6, 64, 76
12, 115664, Note_on_c, 6, 64, 0
12, 117120, Note_on_c, 6, 64, 76
12, 117224, Note_on_c, 6, 64, 0
12, 117240, Note_on_c, 6, 69, 76
12, 117344, Note_on_c, 6, 69, 0
12, 117360, Note_on_c, 6, 73, 76
12, 117599, Note_on_c, 6, 73, 0
12, 119040, Note_on_c, 6, 66, 76
12, 119144, Note_on_c, 6, 66, 0
12, 119160, Note_on_c, 6, 71, 76
12, 119264, Note_on_c, 6, 71, 0
12, 119280, Note_on_c, 6, 74, 76
12, 119519, Note_on_c, 6, 74, 0
12, 120000, Note_on_c, 6, 64, 76
12, 120104, Note_on_c, 6, 64, 0
12, 120120, Note_on_c, 6, 67, 76
12, 120224, Note_on_c, 6, 67, 0
12, 120240, Note_on_c, 6, 73, 76
12, 120479, Note_on_c, 6, 73, 0
12, 120960, Note_on_c, 6, 73, 76
12, 121064, Note_on_c, 6, 73, 0
12, 121080, Note_on_c, 6, 70, 76
12, 121184, Note_on_c, 6, 70, 0
12, 121200, Note_on_c, 6, 66, 76
12, 121439, Note_on_c, 6, 66, 0
12, 122880, Note_on_c, 6, 66, 76
12, 122984, Note_on_c, 6, 66, 0
12, 123000, Note_on_c, 6, 71, 76
12, 123104, Note_on_c, 6, 71, 0
12, 123120, Note_on_c, 6, 74, 76
12, 123359, Note_on_c, 6, 74, 0
12, 124800, Note_on_c, 6, 62, 76
12, 124904, Note_on_c, 6, 62, 0
12, 124920, Note_on_c, 6, 69, 76
12, 125024, Note_on_c, 6, 69, 0
12, 125040, Note_on_c, 6, 72, 76
12, 125264, Note_on_c, 6, 72, 0
12, 125280, Note_on_c, 6, 62, 76
12, 125504, Note_on_c, 6, 62, 0
12, 125520, Note_on_c, 6, 62, 76
12, 125759, Note_on_c, 6, 62, 0
12, 125760, Note_on_c, 6, 64, 76
12, 125984, Note_on_c, 6, 64, 0
12, 126000, Note_on_c, 6, 66, 76
12, 126224, Note_on_c, 6, 66, 0
12, 126240, Note_on_c, 6, 66, 76
12, 126464, Note_on_c, 6, 66, 0
12, 126480, Note_on_c, 6, 64, 76
12, 126704, Note_on_c, 6, 64, 0
12, 126720, Note_on_c, 6, 64, 76
12, 127199, Note_on_c, 6, 64, 0
12, 128640, Note_on_c, 6, 64, 76
12, 128744, Note_on_c, 6, 64, 0
12, 128760, Note_on_c, 6, 69, 76
12, 128864, Note_on_c, 6, 69, 0
12, 128880, Note_on_c, 6, 73, 76
12, 129059, Note_on_c, 6, 73, 0
12, 129120, Note_on_c, 6, 73, 76
12, 129299, Note_on_c, 6, 73, 0
12, 129360, Note_on_c, 6, 74, 76
12, 129584, Note_on_c, 6, 74, 0
12, 129600, Note_on_c, 6, 64, 76
12, 129824, Note_on_c, 6, 64, 0
12, 129840, Note_on_c, 6, 66, 76
12, 130064, Note_on_c, 6, 66, 0
12, 130080, Note_on_c, 6, 67, 76
12, 130304, Note_on_c, 6, 67, 0
12, 130320, Note_on_c, 6, 66, 76
12, 131039, Note_on_c, 6, 66, 0
12, 132480, Note_on_c, 6, 64, 76
12, 132584, Note_on_c, 6, 64, 0
12, 132600, Note_on_c, 6, 69, 76
12, 132704, Note_on_c, 6, 69, 0
12, 132720, Note_on_c, 6, 73, 76
12, 132959, Note_on_c, 6, 73, 0
12, 134400, Note_on_c, 6, 66, 76
12, 134504, Note_on_c, 6, 66, 0
12, 134520, Note_on_c, 6, 71, 76
12, 134624, Note_on_c, 6, 71, 0
12, 134640, Note_on_c, 6, 74, 76
12, 134879, Note_on_c, 6, 74, 0
12, 135360, Note_on_c, 6, 64, 76
12, 135464, Note_on_c, 6, 64, 0
12, 135480, Note_on_c, 6, 67, 76
12, 135584, Note_on_c, 6, 67, 0
12, 135600, Note_on_c, 6, 73, 76
12, 135839, Note_on_c, 6, 73, 0
12, 136320, Note_on_c, 6, 73, 76
12, 136424, Note_on_c, 6, 73, 0
12, 136440, Note_on_c, 6, 70, 76
12, 136544, Note_on_c, 6, 70, 0
12, 136560, Note_on_c, 6, 66, 76
12, 136799, Note_on_c, 6, 66, 0
12, 138240, Note_on_c, 6, 66, 76
12, 138344, Note_on_c, 6, 66, 0
12, 138360, Note_on_c, 6, 71, 76
12, 138464, Note_on_c, 6, 71, 0
12, 138480, Note_on_c, 6, 74, 76
12, 138719, Note_on_c, 6, 74, 0
12, 140160, Note_on_c, 6, 62, 76
12, 140264, Note_on_c, 6, 62, 0
12, 140280, Note_on_c, 6, 69, 76
12, 140384, Note_on_c, 6, 69, 0
12, 140400, Note_on_c, 6, 72, 76
12, 140624, Note_on_c, 6, 72, 0
12, 140640, Note_on_c, 6, 62, 76
12, 140864, Note_on_c, 6, 62, 0
12, 140880, Note_on_c, 6, 62, 76
12, 141119, Note_on_c, 6, 62, 0
12, 141120, Note_on_c, 6, 64, 76
12, 141344, Note_on_c, 6, 64, 0
12, 141360, Note_on_c, 6, 66, 76
12, 141584, Note_on_c, 6, 66, 0
12, 141600, Note_on_c, 6, 66, 76
12, 141824, Note_on_c, 6, 66, 0
12, 141840, Note_on_c, 6, 64, 76
12, 142064, Note_on_c, 6, 64, 0
12, 142080, Note_on_c, 6, 64, 76
12, 142559, Note_on_c, 6, 64, 0
12, 144000, Note_on_c, 6, 64, 76
12, 144104, Note_on_c, 6, 64, 0
12, 144120, Note_on_c, 6, 69, 76
12, 144224, Note_on_c, 6, 69, 0
12, 144240, Note_on_c, 6, 73, 76
12, 144419, Note_on_c, 6, 73, 0
12, 144480, Note_on_c, 6, 73, 76
12, 144659, Note_on_c, 6, 73, 0
12, 144720, Note_on_c, 6, 74, 76
12, 144944, Note_on_c, 6, 74, 0
12, 144960, Note_on_c, 6, 64, 76
12, 145184, Note_on_c, 6, 64, 0
12, 145200, Note_on_c, 6, 66, 76
12, 145424, Note_on_c, 6, 66, 0
12, 145440, Note_on_c, 6, 67, 76
12, 145664, Note_on_c, 6, 67, 0
12, 145680, Note_on_c, 6, 66, 76
12, 146399, Note_on_c, 6, 66, 0
12, 146399, End_track
13, 0, Start_track
13, 0, Title_t, "Bassoon"
13, 0, MIDI_port, 0
13, 0, Program_c, 7, 70
13, 0, Control_c, 7, 10, 74
13, 0, Control_c, 7, 11, 127
13, 0, Control_c, 7, 7, 88
13, 0, Note_on_c, 7, 62, 76
13, 104, Note_on_c, 7, 62, 0
13, 120, Note_on_c, 7, 61, 76
13, 224, Note_on_c, 7, 61, 0
13, 240, Note_on_c, 7, 59, 76
13, 464, Note_on_c, 7, 59, 0
13, 480, Note_on_c, 7, 47, 76
13, 704, Note_on_c, 7, 47, 0
13, 720, Note_on_c, 7, 45, 76
13, 944, Note_on_c, 7, 45, 0
13, 960, Note_on_c, 7, 43, 76
13, 1184, Note_on_c, 7, 43, 0
13, 1200, Note_on_c, 7, 42, 76
13, 1424, Note_on_c, 7, 42, 0
13, 1440, Note_on_c, 7, 54, 76
13, 1664, Note_on_c, 7, 54, 0
13, 1680, Note_on_c, 7, 52, 76
13, 1904, Note_on_c, 7, 52, 0
13, 1920, Note_on_c, 7, 50, 76
13, 2144, Note_on_c, 7, 50, 0
13, 2160, Note_on_c, 7, 55, 76
13, 2384, Note_on_c, 7, 55, 0
13, 2400, Note_on_c, 7, 42, 76
13, 2624, Note_on_c, 7, 42, 0
13, 2640, Note_on_c, 7, 40, 76
13, 2864, Note_on_c, 7, 40, 0
13, 2880, Note_on_c, 7, 38, 76
13, 3104, Note_on_c, 7, 38, 0
13, 3120, Note_on_c, 7, 45, 76
13, 3344, Note_on_c, 7, 45, 0
13, 3360, Note_on_c, 7, 49, 76
13, 3464, Note_on_c, 7, 49, 0
13, 3480, Note_on_c, 7, 47, 76
13, 3584, Note_on_c, 7, 47, 0
13, 3600, Note_on_c, 7, 45, 76
13, 3824, Note_on_c, 7, 45, 0
13, 3840, Note_on_c, 7, 43, 76
13, 4064, Note_on_c, 7, 43, 0
13, 4080, Note_on_c, 7, 42, 76
13, 4304, Note_on_c, 7, 42, 0
13, 4320, Note_on_c, 7, 47, 76
13, 4544, Note_on_c, 7, 47, 0
13, 4560, Note_on_c, 7, 49, 76
13, 4784, Note_on_c, 7, 49, 0
13, 4800, Note_on_c, 7, 50, 76
13, 5024, Note_on_c, 7, 50, 0
13, 5040, Note_on_c, 7, 44, 76
13, 5264, Note_on_c, 7, 44, 0
13, 5280, Note_on_c, 7, 56, 76
13, 5504, Note_on_c, 7, 56, 0
13, 5520, Note_on_c, 7, 54, 76
13, 5744, Note_on_c, 7, 54, 0
13, 5760, Note_on_c, 7, 52, 76
13, 5984, Note_on_c, 7, 52, 0
13, 6000, Note_on_c, 7, 61, 76
13, 6224, Note_on_c, 7, 61, 0
13, 6240, Note_on_c, 7, 54, 76
13, 6464, Note_on_c, 7, 54, 0
13, 6480, Note_on_c, 7, 52, 76
13, 6704, Note_on_c, 7, 52, 0
13, 6720, Note_on_c, 7, 40, 76
13, 6944, Note_on_c, 7, 40, 0
13, 6960, Note_on_c, 7, 45, 76
13, 7664, Note_on_c, 7, 45, 0
13, 7680, Note_on_c, 7, 62, 76
13, 7784, Note_on_c, 7, 62, 0
13, 7800, Note_on_c, 7, 61, 76
13, 7904, Note_on_c, 7, 61, 0
13, 7920, Note_on_c, 7, 59, 76
13, 8144, Note_on_c, 7, 59, 0
13, 8160, Note_on_c, 7, 47, 76
13, 8384, Note_on_c, 7, 47, 0
13, 8400, Note_on_c, 7, 45, 76
13, 8624, Note_on_c, 7, 45, 0
13, 8640, Note_on_c, 7, 43, 76
13, 8864, Note_on_c, 7, 43, 0
13, 8880, Note_on_c, 7, 42, 76
13, 9104, Note_on_c, 7, 42, 0
13, 9120, Note_on_c, 7, 54, 76
13, 9344, Note_on_c, 7, 54, 0
13, 9360, Note_on_c, 7, 52, 76
13, 9584, Note_on_c, 7, 52, 0
13, 9600, Note_on_c, 7, 50, 76
13, 9824, Note_on_c, 7, 50, 0
13, 9840, Note_on_c, 7, 55, 76
13, 10064, Note_on_c, 7, 55, 0
13, 10080, Note_on_c, 7, 42, 76
13, 10304, Note_on_c, 7, 42, 0
13, 10320, Note_on_c, 7, 40, 76
13, 10544, Note_on_c, 7, 40, 0
13, 10560, Note_on_c, 7, 38, 76
13, 10784, Note_on_c, 7, 38, 0
13, 10800, Note_on_c, 7, 45, 76
13, 11024, Note_on_c, 7, 45, 0
13, 11040, Note_on_c, 7, 49, 76
13, 11144, Note_on_c, 7, 49, 0
13, 11160, Note_on_c, 7, 47, 76
13, 11264, Note_on_c, 7, 47, 0
13, 11280, Note_on_c, 7, 45, 76
13, 11504, Note_on_c, 7, 45, 0
13, 11520, Note_on_c, 7, 43, 76
13, 11744, Note_on_c, 7, 43, 0
13, 11760, Note_on_c, 7, 42, 76
13, 11984, Note_on_c, 7, 42, 0
13, 12000, Note_on_c, 7, 47, 76
13, 12224, Note_on_c, 7, 47, 0
13, 12240, Note_on_c, 7, 49, 76
13, 12464, Note_on_c, 7, 49, 0
13, 12480, Note_on_c, 7, 50, 76
13, 12704, Note_on_c, 7, 50, 0
13, 12720, Note_on_c, 7, 44, 76
13, 12944, Note_on_c, 7, 44, 0
13, 12960, Note_on_c, 7, 56, 76
13, 13184, Note_on_c, 7, 56, 0
13, 13200, Note_on_c, 7, 54, 76
13, 13424, Note_on_c, 7, 54, 0
13, 13440, Note_on_c, 7, 52, 76
13, 13664, Note_on_c, 7, 52, 0
13, 13680, Note_on_c, 7, 61, 76
13, 13904, Note_on_c, 7, 61, 0
13, 13920, Note_on_c, 7, 54, 76
13, 14144, Note_on_c, 7, 54, 0
13, 14160, Note_on_c, 7, 52, 76
13, 14384, Note_on_c, 7, 52, 0
13, 14400, Note_on_c, 7, 40, 76
13, 14624, Note_on_c, 7, 40, 0
13, 14640, Note_on_c, 7, 45, 76
13, 15344, Note_on_c, 7, 45, 0
13, 15360, Note_on_c, 7, 45, 76
13, 15584, Note_on_c, 7, 45, 0
13, 15600, Note_on_c, 7, 57, 76
13, 15824, Note_on_c, 7, 57, 0
13, 15840, Note_on_c, 7, 57, 76
13, 16064, Note_on_c, 7, 57, 0
13, 16080, Note_on_c, 7, 57, 76
13, 16304, Note_on_c, 7, 57, 0
13, 16320, Note_on_c, 7, 45, 76
13, 16544, Note_on_c, 7, 45, 0
13, 16560, Note_on_c, 7, 57, 76
13, 16784, Note_on_c, 7, 57, 0
13, 16800, Note_on_c, 7, 55, 76
13, 17024, Note_on_c, 7, 55, 0
13, 17040, Note_on_c, 7, 54, 76
13, 17264, Note_on_c, 7, 54, 0
13, 17280, Note_on_c, 7, 52, 76
13, 17504, Note_on_c, 7, 52, 0
13, 17520, Note_on_c, 7, 50, 76
13, 17744, Note_on_c, 7, 50, 0
13, 17760, Note_on_c, 7, 47, 76
13, 17984, Note_on_c, 7, 47, 0
13, 18000, Note_on_c, 7, 50, 76
13, 18224, Note_on_c, 7, 50, 0
13, 18240, Note_on_c, 7, 54, 76
13, 18464, Note_on_c, 7, 54, 0
13, 18480, Note_on_c, 7, 59, 76
13, 18704, Note_on_c, 7, 59, 0
13, 18720, Note_on_c, 7, 45, 76
13, 18944, Note_on_c, 7, 45, 0
13, 18960, Note_on_c, 7, 43, 76
13, 19184, Note_on_c, 7, 43, 0
13, 19200, Note_on_c, 7, 42, 76
13, 19424, Note_on_c, 7, 42, 0
13, 19440, Note_on_c, 7, 40, 76
13, 19664, Note_on_c, 7, 40, 0
13, 19680, Note_on_c, 7, 52, 76
13, 19904, Note_on_c, 7, 52, 0
13, 19920, Note_on_c, 7, 50, 76
13, 20144, Note_on_c, 7, 50, 0
13, 20160, Note_on_c, 7, 49, 76
13, 20384, Note_on_c, 7, 49, 0
13, 20400, Note_on_c, 7, 54, 76
13, 20624, Note_on_c, 7, 54, 0
13, 20640, Note_on_c, 7, 42, 76
13, 20864, Note_on_c, 7, 42, 0
13, 20880, Note_on_c, 7, 44, 76
13, 21104, Note_on_c, 7, 44, 0
13, 21120, Note_on_c, 7, 46, 76
13, 21344, Note_on_c, 7, 46, 0
13, 21360, Note_on_c, 7, 38, 76
13, 21584, Note_on_c, 7, 38, 0
13, 21600, Note_on_c, 7, 43, 76
13, 21824, Note_on_c, 7, 43, 0
13, 21840, Note_on_c, 7, 42, 76
13, 22064, Note_on_c, 7, 42, 0
13, 22080, Note_on_c, 7, 54, 76
13, 22304, Note_on_c, 7, 54, 0
13, 22320, Note_on_c, 7, 59, 76
13, 22544, Note_on_c, 7, 59, 0
13, 22560, Note_on_c, 7, 54, 76
13, 22784, Note_on_c, 7, 54, 0
13, 22800, Note_on_c, 7, 50, 76
13, 23024, Note_on_c, 7, 50, 0
13, 23040, Note_on_c, 7, 54, 76
13, 23264, Note_on_c, 7, 54, 0
13, 23280, Note_on_c, 7, 47, 76
13, 23504, Note_on_c, 7, 47, 0
13, 23520, Note_on_c, 7, 59, 76
13, 23744, Note_on_c, 7, 59, 0
13, 23760, Note_on_c, 7, 57, 76
13, 23984, Note_on_c, 7, 57, 0
13, 24000, Note_on_c, 7, 55, 76
13, 24224, Note_on_c, 7, 55, 0
13, 24240, Note_on_c, 7, 54, 76
13, 24464, Note_on_c, 7, 54, 0
13, 24480, Note_on_c, 7, 42, 76
13, 24704, Note_on_c, 7, 42, 0
13, 24720, Note_on_c, 7, 40, 76
13, 24944, Note_on_c, 7, 40, 0
13, 24960, Note_on_c, 7, 38, 76
13, 25184, Note_on_c, 7, 38, 0
13, 25200, Note_on_c, 7, 43, 76
13, 25424, Note_on_c, 7, 43, 0
13, 25440, Note_on_c, 7, 54, 76
13, 25664, Note_on_c, 7, 54, 0
13, 25680, Note_on_c, 7, 52, 76
13, 25904, Note_on_c, 7, 52, 0
13, 25920, Note_on_c, 7, 50, 76
13, 26144, Note_on_c, 7, 50, 0
13, 26160, Note_on_c, 7, 57, 76
13, 26384, Note_on_c, 7, 57, 0
13, 26400, Note_on_c, 7, 49, 76
13, 26504, Note_on_c, 7, 49, 0
13, 26520, Note_on_c, 7, 47, 76
13, 26624, Note_on_c, 7, 47, 0
13, 26640, Note_on_c, 7, 45, 76
13, 26864, Note_on_c, 7, 45, 0
13, 26880, Note_on_c, 7, 43, 76
13, 27104, Note_on_c, 7, 43, 0
13, 27120, Note_on_c, 7, 42, 76
13, 27344, Note_on_c, 7, 42, 0
13, 27360, Note_on_c, 7, 54, 76
13, 27584, Note_on_c, 7, 54, 0
13, 27600, Note_on_c, 7, 55, 76
13, 27824, Note_on_c, 7, 55, 0
13, 27840, Note_on_c, 7, 57, 76
13, 28064, Note_on_c, 7, 57, 0
13, 28080, Note_on_c, 7, 55, 76
13, 28304, Note_on_c, 7, 55, 0
13, 28320, Note_on_c, 7, 52, 76
13, 28544, Note_on_c, 7, 52, 0
13, 28560, Note_on_c, 7, 49, 76
13, 28784, Note_on_c, 7, 49, 0
13, 28800, Note_on_c, 7, 45, 76
13, 29024, Note_on_c, 7, 45, 0
13, 29040, Note_on_c, 7, 50, 76
13, 29264, Note_on_c, 7, 50, 0
13, 29280, Note_on_c, 7, 55, 76
13, 29504, Note_on_c, 7, 55, 0
13, 29520, Note_on_c, 7, 57, 76
13, 29744, Note_on_c, 7, 57, 0
13, 29760, Note_on_c, 7, 45, 76
13, 29984, Note_on_c, 7, 45, 0
13, 30000, Note_on_c, 7, 50, 76
13, 30224, Note_on_c, 7, 50, 0
13, 30240, Note_on_c, 7, 54, 76
13, 30344, Note_on_c, 7, 54, 0
13, 30360, Note_on_c, 7, 57, 76
13, 30464, Note_on_c, 7, 57, 0
13, 30480, Note_on_c, 7, 62, 76
13, 30704, Note_on_c, 7, 62, 0
13, 30720, Note_on_c, 7, 45, 76
13, 30944, Note_on_c, 7, 45, 0
13, 30960, Note_on_c, 7, 57, 76
13, 31184, Note_on_c, 7, 57, 0
13, 31200, Note_on_c, 7, 57, 76
13, 31424, Note_on_c, 7, 57, 0
13, 31440, Note_on_c, 7, 57, 76
13, 31664, Note_on_c, 7, 57, 0
13, 31680, Note_on_c, 7, 45, 76
13, 31904, Note_on_c, 7, 45, 0
13, 31920, Note_on_c, 7, 57, 76
13, 32144, Note_on_c, 7, 57, 0
13, 32160, Note_on_c, 7, 55, 76
13, 32384, Note_on_c, 7, 55, 0
13, 32400, Note_on_c, 7, 54, 76
13, 32624, Note_on_c, 7, 54, 0
13, 32640, Note_on_c, 7, 52, 76
13, 32864, Note_on_c, 7, 52, 0
13, 32880, Note_on_c, 7, 50, 76
13, 33104, Note_on_c, 7, 50, 0
13, 33120, Note_on_c, 7, 47, 76
13, 33344, Note_on_c, 7, 47, 0
13, 33360, Note_on_c, 7, 50, 76
13, 33584, Note_on_c, 7, 50, 0
13, 33600, Note_on_c, 7, 54, 76
13, 33824, Note_on_c, 7, 54, 0
13, 33840, Note_on_c, 7, 59, 76
13, 34064, Note_on_c, 7, 59, 0
13, 34080, Note_on_c, 7, 45, 76
13, 34304, Note_on_c, 7, 45, 0
13, 34320, Note_on_c, 7, 43, 76
13, 34544, Note_on_c, 7, 43, 0
13, 34560, Note_on_c, 7, 42, 76
13, 34784, Note_on_c, 7, 42, 0
13, 34800, Note_on_c, 7, 40, 76
13, 35024, Note_on_c, 7, 40, 0
13, 35040, Note_on_c, 7, 52, 76
13, 35264, Note_on_c, 7, 52, 0
13, 35280, Note_on_c, 7, 50, 76
13, 35504, Note_on_c, 7, 50, 0
13, 35520, Note_on_c, 7, 49, 76
13, 35744, Note_on_c, 7, 49, 0
13, 35760, Note_on_c, 7, 54, 76
13, 35984, Note_on_c, 7, 54, 0
13, 36000, Note_on_c, 7, 42, 76
13, 36224, Note_on_c, 7, 42, 0
13, 36240, Note_on_c, 7, 44, 76
13, 36464, Note_on_c, 7, 44, 0
13, 36480, Note_on_c, 7, 46, 76
13, 36704, Note_on_c, 7, 46, 0
13, 36720, Note_on_c, 7, 38, 76
13, 36944, Note_on_c, 7, 38, 0
13, 36960, Note_on_c, 7, 43, 76
13, 37184, Note_on_c, 7, 43, 0
13, 37200, Note_on_c, 7, 42, 76
13, 37424, Note_on_c, 7, 42, 0
13, 37440, Note_on_c, 7, 54, 76
13, 37664, Note_on_c, 7, 54, 0
13, 37680, Note_on_c, 7, 59, 76
13, 37904, Note_on_c, 7, 59, 0
13, 37920, Note_on_c, 7, 54, 76
13, 38144, Note_on_c, 7, 54, 0
13, 38160, Note_on_c, 7, 50, 76
13, 38384, Note_on_c, 7, 50, 0
13, 38400, Note_on_c, 7, 54, 76
13, 38624, Note_on_c, 7, 54, 0
13, 38640, Note_on_c, 7, 47, 76
13, 38864, Note_on_c, 7, 47, 0
13, 38880, Note_on_c, 7, 59, 76
13, 39104, Note_on_c, 7, 59, 0
13, 39120, Note_on_c, 7, 57, 76
13, 39344, Note_on_c, 7, 57, 0
13, 39360, Note_on_c, 7, 55, 76
13, 39584, Note_on_c, 7, 55, 0
13, 39600, Note_on_c, 7, 54, 76
13, 39824, Note_on_c, 7, 54, 0
13, 39840, Note_on_c, 7, 42, 76
13, 40064, Note_on_c, 7, 42, 0
13, 40080, Note_on_c, 7, 40, 76
13, 40304, Note_on_c, 7, 40, 0
13, 40320, Note_on_c, 7, 38, 76
13, 40544, Note_on_c, 7, 38, 0
13, 40560, Note_on_c, 7, 43, 76
13, 40784, Note_on_c, 7, 43, 0
13, 40800, Note_on_c, 7, 54, 76
13, 41024, Note_on_c, 7, 54, 0
13, 41040, Note_on_c, 7, 52, 76
13, 41264, Note_on_c, 7, 52, 0
13, 41280, Note_on_c, 7, 50, 76
13, 41504, Note_on_c, 7, 50, 0
13, 41520, Note_on_c, 7, 57, 76
13, 41744, Note_on_c, 7, 57, 0
13, 41760, Note_on_c, 7, 49, 76
13, 41864, Note_on_c, 7, 49, 0
13, 41880, Note_on_c, 7, 47, 76
13, 41984, Note_on_c, 7, 47, 0
13, 42000, Note_on_c, 7, 45, 76
13, 42224, Note_on_c, 7, 45, 0
13, 42240, Note_on_c, 7, 43, 76
13, 42464, Note_on_c, 7, 43, 0
13, 42480, Note_on_c, 7, 42, 76
13, 42704, Note_on_c, 7, 42, 0
13, 42720, Note_on_c, 7, 54, 76
13, 42944, Note_on_c, 7, 54, 0
13, 42960, Note_on_c, 7, 55, 76
13, 43184, Note_on_c, 7, 55, 0
13, 43200, Note_on_c, 7, 57, 76
13, 43424, Note_on_c, 7, 57, 0
13, 43440, Note_on_c, 7, 55, 76
13, 43664, Note_on_c, 7, 55, 0
13, 43680, Note_on_c, 7, 52, 76
13, 43904, Note_on_c, 7, 52, 0
13, 43920, Note_on_c, 7, 49, 76
13, 44144, Note_on_c, 7, 49, 0
13, 44160, Note_on_c, 7, 45, 76
13, 44384, Note_on_c, 7, 45, 0
13, 44400, Note_on_c, 7, 50, 76
13, 44624, Note_on_c, 7, 50, 0
13, 44640, Note_on_c, 7, 55, 76
13, 44864, Note_on_c, 7, 55, 0
13, 44880, Note_on_c, 7, 57, 76
13, 45104, Note_on_c, 7, 57, 0
13, 45120, Note_on_c, 7, 45, 76
13, 45344, Note_on_c, 7, 45, 0
13, 45360, Note_on_c, 7, 50, 76
13, 45584, Note_on_c, 7, 50, 0
13, 45600, Note_on_c, 7, 54, 76
13, 45704, Note_on_c, 7, 54, 0
13, 45720, Note_on_c, 7, 57, 76
13, 45824, Note_on_c, 7, 57, 0
13, 45840, Note_on_c, 7, 62, 76
13, 46064, Note_on_c, 7, 62, 0
13, 46320, Note_on_c, 7, 59, 76
13, 46424, Note_on_c, 7, 59, 0
13, 46440, Note_on_c, 7, 58, 76
13, 46544, Note_on_c, 7, 58, 0
13, 46560, Note_on_c, 7, 59, 76
13, 46679, Note_on_c, 7, 59, 0
13, 46680, Note_on_c, 7, 61, 76
13, 46799, Note_on_c, 7, 61, 0
13, 46800, Note_on_c, 7, 62, 76
13, 46919, Note_on_c, 7, 62, 0
13, 46920, Note_on_c, 7, 59, 76
13, 47024, Note_on_c, 7, 59, 0
13, 47040, Note_on_c, 7, 57, 76
13, 47159, Note_on_c, 7, 57, 0
13, 47160, Note_on_c, 7, 55, 76
13, 47279, Note_on_c, 7, 55, 0
13, 47280, Note_on_c, 7, 54, 76
13, 47399, Note_on_c, 7, 54, 0
13, 47400, Note_on_c, 7, 52, 76
13, 47504, Note_on_c, 7, 52, 0
13, 47520, Note_on_c, 7, 54, 76
13, 47639, Note_on_c, 7, 54, 0
13, 47640, Note_on_c, 7, 56, 76
13, 47759, Note_on_c, 7, 56, 0
13, 47760, Note_on_c, 7, 58, 76
13, 47879, Note_on_c, 7, 58, 0
13, 47880, Note_on_c, 7, 56, 76
13, 47984, Note_on_c, 7, 56, 0
13, 48000, Note_on_c, 7, 54, 76
13, 48119, Note_on_c, 7, 54, 0
13, 48120, Note_on_c, 7, 52, 76
13, 48239, Note_on_c, 7, 52, 0
13, 48240, Note_on_c, 7, 50, 76
13, 48359, Note_on_c, 7, 50, 0
13, 48360, Note_on_c, 7, 49, 76
13, 48464, Note_on_c, 7, 49, 0
13, 48480, Note_on_c, 7, 50, 76
13, 48599, Note_on_c, 7, 50, 0
13, 48600, Note_on_c, 7, 49, 76
13, 48719, Note_on_c, 7, 49, 0
13, 48720, Note_on_c, 7, 50, 76
13, 48839, Note_on_c, 7, 50, 0
13, 48840, Note_on_c, 7, 52, 76
13, 48944, Note_on_c, 7, 52, 0
13, 48960, Note_on_c, 7, 54, 76
13, 49079, Note_on_c, 7, 54, 0
13, 49080, Note_on_c, 7, 52, 76
13, 49199, Note_on_c, 7, 52, 0
13, 49200, Note_on_c, 7, 50, 76
13, 49319, Note_on_c, 7, 50, 0
13, 49320, Note_on_c, 7, 49, 76
13, 49424, Note_on_c, 7, 49, 0
13, 49440, Note_on_c, 7, 47, 76
13, 49664, Note_on_c, 7, 47, 0
13, 49680, Note_on_c, 7, 54, 76
13, 49904, Note_on_c, 7, 54, 0
13, 49920, Note_on_c, 7, 59, 76
13, 50039, Note_on_c, 7, 59, 0
13, 50040, Note_on_c, 7, 62, 76
13, 50159, Note_on_c, 7, 62, 0
13, 50160, Note_on_c, 7, 61, 76
13, 50279, Note_on_c, 7, 61, 0
13, 50280, Note_on_c, 7, 59, 76
13, 50384, Note_on_c, 7, 59, 0
13, 50400, Note_on_c, 7, 58, 76
13, 50519, Note_on_c, 7, 58, 0
13, 50520, Note_on_c, 7, 59, 76
13, 50639, Note_on_c, 7, 59, 0
13, 50640, Note_on_c, 7, 61, 76
13, 50759, Note_on_c, 7, 61, 0
13, 50760, Note_on_c, 7, 58, 76
13, 50864, Note_on_c, 7, 58, 0
13, 50880, Note_on_c, 7, 54, 76
13, 50999, Note_on_c, 7, 54, 0
13, 51000, Note_on_c, 7, 56, 76
13, 51119, Note_on_c, 7, 56, 0
13, 51120, Note_on_c, 7, 58, 76
13, 51239, Note_on_c, 7, 58, 0
13, 51240, Note_on_c, 7, 54, 76
13, 51344, Note_on_c, 7, 54, 0
13, 51360, Note_on_c, 7, 59, 76
13, 51479, Note_on_c, 7, 59, 0
13, 51480, Note_on_c, 7, 61, 76
13, 51599, Note_on_c, 7, 61, 0
13, 51600, Note_on_c, 7, 62, 76
13, 51719, Note_on_c, 7, 62, 0
13, 51720, Note_on_c, 7, 61, 76
13, 51824, Note_on_c, 7, 61, 0
13, 51840, Note_on_c, 7, 59, 76
13, 51959, Note_on_c, 7, 59, 0
13, 51960, Note_on_c, 7, 57, 76
13, 52079, Note_on_c, 7, 57, 0
13, 52080, Note_on_c, 7, 55, 76
13, 52199, Note_on_c, 7, 55, 0
13, 52200, Note_on_c, 7, 54, 76
13, 52304, Note_on_c, 7, 54, 0
13, 52320, Note_on_c, 7, 52, 76
13, 52439, Note_on_c, 7, 52, 0
13, 52440, Note_on_c, 7, 54, 76
13, 52559, Note_on_c, 7, 54, 0
13, 52560, Note_on_c, 7, 55, 76
13, 52679, Note_on_c, 7, 55, 0
13, 52680, Note_on_c, 7, 52, 76
13, 52784, Note_on_c, 7, 52, 0
13, 52800, Note_on_c, 7, 57, 76
13, 52919, Note_on_c, 7, 57, 0
13, 52920, Note_on_c, 7, 59, 76
13, 53039, Note_on_c, 7, 59, 0
13, 53040, Note_on_c, 7, 61, 76
13, 53159, Note_on_c, 7, 61, 0
13, 53160, Note_on_c, 7, 57, 76
13, 53264, Note_on_c, 7, 57, 0
13, 53280, Note_on_c, 7, 62, 76
13, 53399, Note_on_c, 7, 62, 0
13, 53400, Note_on_c, 7, 64, 76
13, 53519, Note_on_c, 7, 64, 0
13, 53520, Note_on_c, 7, 66, 76
13, 53639, Note_on_c, 7, 66, 0
13, 53640, Note_on_c, 7, 64, 76
13, 53744, Note_on_c, 7, 64, 0
13, 53760, Note_on_c, 7, 62, 76
13, 53879, Note_on_c, 7, 62, 0
13, 53880, Note_on_c, 7, 61, 76
13, 53999, Note_on_c, 7, 61, 0
13, 54000, Note_on_c, 7, 59, 76
13, 54119, Note_on_c, 7, 59, 0
13, 54120, Note_on_c, 7, 57, 76
13, 54224, Note_on_c, 7, 57, 0
13, 54240, Note_on_c, 7, 56, 76
13, 54359, Note_on_c, 7, 56, 0
13, 54360, Note_on_c, 7, 57, 76
13, 54479, Note_on_c, 7, 57, 0
13, 54480, Note_on_c, 7, 59, 76
13, 54599, Note_on_c, 7, 59, 0
13, 54600, Note_on_c, 7, 56, 76
13, 54704, Note_on_c, 7, 56, 0
13, 54720, Note_on_c, 7, 53, 76
13, 54839, Note_on_c, 7, 53, 0
13, 54840, Note_on_c, 7, 54, 76
13, 54959, Note_on_c, 7, 54, 0
13, 54960, Note_on_c, 7, 56, 76
13, 55079, Note_on_c, 7, 56, 0
13, 55080, Note_on_c, 7, 53, 76
13, 55184, Note_on_c, 7, 53, 0
13, 55200, Note_on_c, 7, 57, 76
13, 55319, Note_on_c, 7, 57, 0
13, 55320, Note_on_c, 7, 59, 76
13, 55439, Note_on_c, 7, 59, 0
13, 55440, Note_on_c, 7, 61, 76
13, 55559, Note_on_c, 7, 61, 0
13, 55560, Note_on_c, 7, 59, 76
13, 55664, Note_on_c, 7, 59, 0
13, 55680, Note_on_c, 7, 57, 76
13, 55799, Note_on_c, 7, 57, 0
13, 55800, Note_on_c, 7, 56, 76
13, 55919, Note_on_c, 7, 56, 0
13, 55920, Note_on_c, 7, 54, 76
13, 56039, Note_on_c, 7, 54, 0
13, 56040, Note_on_c, 7, 53, 76
13, 56144, Note_on_c, 7, 53, 0
13, 56160, Note_on_c, 7, 54, 76
13, 56384, Note_on_c, 7, 54, 0
13, 56400, Note_on_c, 7, 50, 76
13, 56624, Note_on_c, 7, 50, 0
13, 56640, Note_on_c, 7, 47, 76
13, 56864, Note_on_c, 7, 47, 0
13, 56880, Note_on_c, 7, 49, 76
13, 57104, Note_on_c, 7, 49, 0
13, 57120, Note_on_c, 7, 42, 76
13, 57824, Note_on_c, 7, 42, 0
13, 57840, Note_on_c, 7, 59, 76
13, 57944, Note_on_c, 7, 59, 0
13, 57960, Note_on_c, 7, 58, 76
13, 58064, Note_on_c, 7, 58, 0
13, 58080, Note_on_c, 7, 59, 76
13, 58199, Note_on_c, 7, 59, 0
13, 58200, Note_on_c, 7, 61, 76
13, 58319, Note_on_c, 7, 61, 0
13, 58320, Note_on_c, 7, 62, 76
13, 58439, Note_on_c, 7, 62, 0
13, 58440, Note_on_c, 7, 59, 76
13, 58544, Note_on_c, 7, 59, 0
13, 58560, Note_on_c, 7, 57, 76
13, 58679, Note_on_c, 7, 57, 0
13, 58680, Note_on_c, 7, 55, 76
13, 58799, Note_on_c, 7, 55, 0
13, 58800, Note_on_c, 7, 54, 76
13, 58919, Note_on_c, 7, 54, 0
13, 58920, Note_on_c, 7, 52, 76
13, 59024, Note_on_c, 7, 52, 0
13, 59040, Note_on_c, 7, 54, 76
13, 59159, Note_on_c, 7, 54, 0
13, 59160, Note_on_c, 7, 56, 76
13, 59279, Note_on_c, 7, 56, 0
13, 59280, Note_on_c, 7, 58, 76
13, 59399, Note_on_c, 7, 58, 0
13, 59400, Note_on_c, 7, 56, 76
13, 59504, Note_on_c, 7, 56, 0
13, 59520, Note_on_c, 7, 54, 76
13, 59639, Note_on_c, 7, 54, 0
13, 59640, Note_on_c, 7, 52, 76
13, 59759, Note_on_c, 7, 52, 0
13, 59760, Note_on_c, 7, 50, 76
13, 59879, Note_on_c, 7, 50, 0
13, 59880, Note_on_c, 7, 49, 76
13, 59984, Note_on_c, 7, 49, 0
13, 60000, Note_on_c, 7, 50, 76
13, 60119, Note_on_c, 7, 50, 0
13, 60120, Note_on_c, 7, 49, 76
13, 60239, Note_on_c, 7, 49, 0
13, 60240, Note_on_c, 7, 50, 76
13, 60359, Note_on_c, 7, 50, 0
13, 60360, Note_on_c, 7, 52, 76
13, 60464, Note_on_c, 7, 52, 0
13, 60480, Note_on_c, 7, 54, 76
13, 60599, Note_on_c, 7, 54, 0
13, 60600, Note_on_c, 7, 52, 76
13, 60719, Note_on_c, 7, 52, 0
13, 60720, Note_on_c, 7, 50, 76
13, 60839, Note_on_c, 7, 50, 0
13, 60840, Note_on_c, 7, 49, 76
13, 60944, Note_on_c, 7, 49, 0
13, 60960, Note_on_c, 7, 47, 76
13, 61184, Note_on_c, 7, 47, 0
13, 61200, Note_on_c, 7, 54, 76
13, 61424, Note_on_c, 7, 54, 0
13, 61440, Note_on_c, 7, 59, 76
13, 61559, Note_on_c, 7, 59, 0
13, 61560, Note_on_c, 7, 62, 76
13, 61679, Note_on_c, 7, 62, 0
13, 61680, Note_on_c, 7, 61, 76
13, 61799, Note_on_c, 7, 61, 0
13, 61800, Note_on_c, 7, 59, 76
13, 61904, Note_on_c, 7, 59, 0
13, 61920, Note_on_c, 7, 58, 76
13, 62039, Note_on_c, 7, 58, 0
13, 62040, Note_on_c, 7, 59, 76
13, 62159, Note_on_c, 7, 59, 0
13, 62160, Note_on_c, 7, 61, 76
13, 62279, Note_on_c, 7, 61, 0
13, 62280, Note_on_c, 7, 58, 76
13, 62384, Note_on_c, 7, 58, 0
13, 62400, Note_on_c, 7, 54, 76
13, 62519, Note_on_c, 7, 54, 0
13, 62520, Note_on_c, 7, 56, 76
13, 62639, Note_on_c, 7, 56, 0
13, 62640, Note_on_c, 7, 58, 76
13, 62759, Note_on_c, 7, 58, 0
13, 62760, Note_on_c, 7, 54, 76
13, 62864, Note_on_c, 7, 54, 0
13, 62880, Note_on_c, 7, 59, 76
13, 62999, Note_on_c, 7, 59, 0
13, 63000, Note_on_c, 7, 61, 76
13, 63119, Note_on_c, 7, 61, 0
13, 63120, Note_on_c, 7, 62, 76
13, 63239, Note_on_c, 7, 62, 0
13, 63240, Note_on_c, 7, 61, 76
13, 63344, Note_on_c, 7, 61, 0
13, 63360, Note_on_c, 7, 59, 76
13, 63479, Note_on_c, 7, 59, 0
13, 63480, Note_on_c, 7, 57, 76
13, 63599, Note_on_c, 7, 57, 0
13, 63600, Note_on_c, 7, 55, 76
13, 63719, Note_on_c, 7, 55, 0
13, 63720, Note_on_c, 7, 54, 76
13, 63824, Note_on_c, 7, 54, 0
13, 63840, Note_on_c, 7, 52, 76
13, 63959, Note_on_c, 7, 52, 0
13, 63960, Note_on_c, 7, 54, 76
13, 64079, Note_on_c, 7, 54, 0
13, 64080, Note_on_c, 7, 55, 76
13, 64199, Note_on_c, 7, 55, 0
13, 64200, Note_on_c, 7, 52, 76
13, 64304, Note_on_c, 7, 52, 0
13, 64320, Note_on_c, 7, 57, 76
13, 64439, Note_on_c, 7, 57, 0
13, 64440, Note_on_c, 7, 59, 76
13, 64559, Note_on_c, 7, 59, 0
13, 64560, Note_on_c, 7, 61, 76
13, 64679, Note_on_c, 7, 61, 0
13, 64680, Note_on_c, 7, 57, 76
13, 64784, Note_on_c, 7, 57, 0
13, 64800, Note_on_c, 7, 62, 76
13, 64919, Note_on_c, 7, 62, 0
13, 64920, Note_on_c, 7, 64, 76
13, 65039, Note_on_c, 7, 64, 0
13, 65040, Note_on_c, 7, 66, 76
13, 65159, Note_on_c, 7, 66, 0
13, 65160, Note_on_c, 7, 64, 76
13, 65264, Note_on_c, 7, 64, 0
13, 65280, Note_on_c, 7, 62, 76
13, 65399, Note_on_c, 7, 62, 0
13, 65400, Note_on_c, 7, 61, 76
13, 65519, Note_on_c, 7, 61, 0
13, 65520, Note_on_c, 7, 59, 76
13, 65639, Note_on_c, 7, 59, 0
13, 65640, Note_on_c, 7, 57, 76
13, 65744, Note_on_c, 7, 57, 0
13, 65760, Note_on_c, 7, 56, 76
13, 65879, Note_on_c, 7, 56, 0
13, 65880, Note_on_c, 7, 57, 76
13, 65999, Note_on_c, 7, 57, 0
13, 66000, Note_on_c, 7, 59, 76
13, 66119, Note_on_c, 7, 59, 0
13, 66120, Note_on_c, 7, 56, 76
13, 66224, Note_on_c, 7, 56, 0
13, 66240, Note_on_c, 7, 53, 76
13, 66359, Note_on_c, 7, 53, 0
13, 66360, Note_on_c, 7, 54, 76
13, 66479, Note_on_c, 7, 54, 0
13, 66480, Note_on_c, 7, 56, 76
13, 66599, Note_on_c, 7, 56, 0
13, 66600, Note_on_c, 7, 53, 76
13, 66704, Note_on_c, 7, 53, 0
13, 66720, Note_on_c, 7, 57, 76
13, 66839, Note_on_c, 7, 57, 0
13, 66840, Note_on_c, 7, 59, 76
13, 66959, Note_on_c, 7, 59, 0
13, 66960, Note_on_c, 7, 61, 76
13, 67079, Note_on_c, 7, 61, 0
13, 67080, Note_on_c, 7, 59, 76
13, 67184, Note_on_c, 7, 59, 0
13, 67200, Note_on_c, 7, 57, 76
13, 67319, Note_on_c, 7, 57, 0
13, 67320, Note_on_c, 7, 56, 76
13, 67439, Note_on_c, 7, 56, 0
13, 67440, Note_on_c, 7, 54, 76
13, 67559, Note_on_c, 7, 54, 0
13, 67560, Note_on_c, 7, 53, 76
13, 67664, Note_on_c, 7, 53, 0
13, 67680, Note_on_c, 7, 54, 76
13, 67904, Note_on_c, 7, 54, 0
13, 67920, Note_on_c, 7, 50, 76
13, 68144, Note_on_c, 7, 50, 0
13, 68160, Note_on_c, 7, 47, 76
13, 68384, Note_on_c, 7, 47, 0
13, 68400, Note_on_c, 7, 49, 76
13, 68624, Note_on_c, 7, 49, 0
13, 68640, Note_on_c, 7, 42, 76
13, 69344, Note_on_c, 7, 42, 0
13, 69360, Note_on_c, 7, 54, 76
13, 69584, Note_on_c, 7, 54, 0
13, 69600, Note_on_c, 7, 59, 76
13, 69719, Note_on_c, 7, 59, 0
13, 69720, Note_on_c, 7, 57, 76
13, 69839, Note_on_c, 7, 57, 0
13, 69840, Note_on_c, 7, 59, 76
13, 69959, Note_on_c, 7, 59, 0
13, 69960, Note_on_c, 7, 60, 76
13, 70064, Note_on_c, 7, 60, 0
13, 70080, Note_on_c, 7, 59, 76
13, 70199, Note_on_c, 7, 59, 0
13, 70200, Note_on_c, 7, 57, 76
13, 70319, Note_on_c, 7, 57, 0
13, 70320, Note_on_c, 7, 55, 76
13, 70439, Note_on_c, 7, 55, 0
13, 70440, Note_on_c, 7, 54, 76
13, 70544, Note_on_c, 7, 54, 0
13, 70560, Note_on_c, 7, 55, 76
13, 70679, Note_on_c, 7, 55, 0
13, 70680, Note_on_c, 7, 57, 76
13, 70799, Note_on_c, 7, 57, 0
13, 70800, Note_on_c, 7, 55, 76
13, 70919, Note_on_c, 7, 55, 0
13, 70920, Note_on_c, 7, 54, 76
13, 71024, Note_on_c, 7, 54, 0
13, 71040, Note_on_c, 7, 52, 76
13, 71159, Note_on_c, 7, 52, 0
13, 71160, Note_on_c, 7, 50, 76
13, 71279, Note_on_c, 7, 50, 0
13, 71280, Note_on_c, 7, 48, 76
13, 71399, Note_on_c, 7, 48, 0
13, 71400, Note_on_c, 7, 47, 76
13, 71504, Note_on_c, 7, 47, 0
13, 71520, Note_on_c, 7, 45, 76
13, 71639, Note_on_c, 7, 45, 0
13, 71640, Note_on_c, 7, 47, 76
13, 71759, Note_on_c, 7, 47, 0
13, 71760, Note_on_c, 7, 48, 76
13, 71879, Note_on_c, 7, 48, 0
13, 71880, Note_on_c, 7, 45, 76
13, 71984, Note_on_c, 7, 45, 0
13, 72000, Note_on_c, 7, 42, 76
13, 72119, Note_on_c, 7, 42, 0
13, 72120, Note_on_c, 7, 43, 76
13, 72239, Note_on_c, 7, 43, 0
13, 72240, Note_on_c, 7, 45, 76
13, 72359, Note_on_c, 7, 45, 0
13, 72360, Note_on_c, 7, 42, 76
13, 72464, Note_on_c, 7, 42, 0
13, 72480, Note_on_c, 7, 47, 76
13, 72704, Note_on_c, 7, 47, 0
13, 72720, Note_on_c, 7, 54, 76
13, 72944, Note_on_c, 7, 54, 0
13, 72960, Note_on_c, 7, 59, 76
13, 73079, Note_on_c, 7, 59, 0
13, 73080, Note_on_c, 7, 61, 76
13, 73199, Note_on_c, 7, 61, 0
13, 73200, Note_on_c, 7, 63, 76
13, 73319, Note_on_c, 7, 63, 0
13, 73320, Note_on_c, 7, 59, 76
13, 73424, Note_on_c, 7, 59, 0
13, 73440, Note_on_c, 7, 64, 76
13, 73559, Note_on_c, 7, 64, 0
13, 73560, Note_on_c, 7, 57, 76
13, 73679, Note_on_c, 7, 57, 0
13, 73680, Note_on_c, 7, 56, 76
13, 73799, Note_on_c, 7, 56, 0
13, 73800, Note_on_c, 7, 54, 76
13, 73904, Note_on_c, 7, 54, 0
13, 73920, Note_on_c, 7, 52, 76
13, 74039, Note_on_c, 7, 52, 0
13, 74040, Note_on_c, 7, 50, 76
13, 74159, Note_on_c, 7, 50, 0
13, 74160, Note_on_c, 7, 48, 76
13, 74279, Note_on_c, 7, 48, 0
13, 74280, Note_on_c, 7, 47, 76
13, 74384, Note_on_c, 7, 47, 0
13, 74400, Note_on_c, 7, 45, 76
13, 74519, Note_on_c, 7, 45, 0
13, 74520, Note_on_c, 7, 55, 76
13, 74639, Note_on_c, 7, 55, 0
13, 74640, Note_on_c, 7, 54, 76
13, 74759, Note_on_c, 7, 54, 0
13, 74760, Note_on_c, 7, 52, 76
13, 74864, Note_on_c, 7, 52, 0
13, 74880, Note_on_c, 7, 51, 76
13, 74999, Note_on_c, 7, 51, 0
13, 75000, Note_on_c, 7, 52, 76
13, 75119, Note_on_c, 7, 52, 0
13, 75120, Note_on_c, 7, 54, 76
13, 75239, Note_on_c, 7, 54, 0
13, 75240, Note_on_c, 7, 51, 76
13, 75344, Note_on_c, 7, 51, 0
13, 75360, Note_on_c, 7, 52, 76
13, 75584, Note_on_c, 7, 52, 0
13, 75600, Note_on_c, 7, 48, 76
13, 75824, Note_on_c, 7, 48, 0
13, 75840, Note_on_c, 7, 45, 76
13, 76064, Note_on_c, 7, 45, 0
13, 76080, Note_on_c, 7, 47, 76
13, 76304, Note_on_c, 7, 47, 0
13, 76320, Note_on_c, 7, 40, 76
13, 76424, Note_on_c, 7, 40, 0
13, 76440, Note_on_c, 7, 47, 76
13, 76559, Note_on_c, 7, 47, 0
13, 76560, Note_on_c, 7, 49, 76
13, 76679, Note_on_c, 7, 49, 0
13, 76680, Note_on_c, 7, 51, 76
13, 76784, Note_on_c, 7, 51, 0
13, 76800, Note_on_c, 7, 52, 76
13, 76919, Note_on_c, 7, 52, 0
13, 76920, Note_on_c, 7, 54, 76
13, 77039, Note_on_c, 7, 54, 0
13, 77040, Note_on_c, 7, 55, 76
13, 77159, Note_on_c, 7, 55, 0
13, 77160, Note_on_c, 7, 52, 76
13, 77264, Note_on_c, 7, 52, 0
13, 77280, Note_on_c, 7, 57, 76
13, 77399, Note_on_c, 7, 57, 0
13, 77400, Note_on_c, 7, 59, 76
13, 77519, Note_on_c, 7, 59, 0
13, 77520, Note_on_c, 7, 61, 76
13, 77639, Note_on_c, 7, 61, 0
13, 77640, Note_on_c, 7, 59, 76
13, 77744, Note_on_c, 7, 59, 0
13, 77760, Note_on_c, 7, 57, 76
13, 77879, Note_on_c, 7, 57, 0
13, 77880, Note_on_c, 7, 55, 76
13, 77999, Note_on_c, 7, 55, 0
13, 78000, Note_on_c, 7, 54, 76
13, 78119, Note_on_c, 7, 54, 0
13, 78120, Note_on_c, 7, 52, 76
13, 78224, Note_on_c, 7, 52, 0
13, 78240, Note_on_c, 7, 50, 76
13, 78359, Note_on_c, 7, 50, 0
13, 78360, Note_on_c, 7, 52, 76
13, 78479, Note_on_c, 7, 52, 0
13, 78480, Note_on_c, 7, 54, 76
13, 78599, Note_on_c, 7, 54, 0
13, 78600, Note_on_c, 7, 52, 76
13, 78704, Note_on_c, 7, 52, 0
13, 78720, Note_on_c, 7, 50, 76
13, 78839, Note_on_c, 7, 50, 0
13, 78840, Note_on_c, 7, 49, 76
13, 78959, Note_on_c, 7, 49, 0
13, 78960, Note_on_c, 7, 47, 76
13, 79079, Note_on_c, 7, 47, 0
13, 79080, Note_on_c, 7, 50, 76
13, 79184, Note_on_c, 7, 50, 0
13, 79200, Note_on_c, 7, 49, 76
13, 79319, Note_on_c, 7, 49, 0
13, 79320, Note_on_c, 7, 54, 76
13, 79439, Note_on_c, 7, 54, 0
13, 79440, Note_on_c, 7, 52, 76
13, 79559, Note_on_c, 7, 52, 0
13, 79560, Note_on_c, 7, 50, 76
13, 79664, Note_on_c, 7, 50, 0
13, 79680, Note_on_c, 7, 49, 76
13, 79799, Note_on_c, 7, 49, 0
13, 79800, Note_on_c, 7, 47, 76
13, 79919, Note_on_c, 7, 47, 0
13, 79920, Note_on_c, 7, 46, 76
13, 80039, Note_on_c, 7, 46, 0
13, 80040, Note_on_c, 7, 47, 76
13, 80144, Note_on_c, 7, 47, 0
13, 80160, Note_on_c, 7, 42, 76
13, 80264, Note_on_c, 7, 42, 0
13, 80280, Note_on_c, 7, 55, 76
13, 80399, Note_on_c, 7, 55, 0
13, 80400, Note_on_c, 7, 54, 76
13, 80519, Note_on_c, 7, 54, 0
13, 80520, Note_on_c, 7, 52, 76
13, 80624, Note_on_c, 7, 52, 0
13, 80640, Note_on_c, 7, 50, 76
13, 80759, Note_on_c, 7, 50, 0
13, 80760, Note_on_c, 7, 49, 76
13, 80879, Note_on_c, 7, 49, 0
13, 80880, Note_on_c, 7, 50, 76
13, 80999, Note_on_c, 7, 50, 0
13, 81000, Note_on_c, 7, 47, 76
13, 81104, Note_on_c, 7, 47, 0
13, 81120, Note_on_c, 7, 52, 76
13, 81239, Note_on_c, 7, 52, 0
13, 81240, Note_on_c, 7, 54, 76
13, 81359, Note_on_c, 7, 54, 0
13, 81360, Note_on_c, 7, 55, 76
13, 81479, Note_on_c, 7, 55, 0
13, 81480, Note_on_c, 7, 52, 76
13, 81584, Note_on_c, 7, 52, 0
13, 81600, Note_on_c, 7, 49, 76
13, 81719, Note_on_c, 7, 49, 0
13, 81720, Note_on_c, 7, 50, 76
13, 81839, Note_on_c, 7, 50, 0
13, 81840, Note_on_c, 7, 52, 76
13, 81959, Note_on_c, 7, 52, 0
13, 81960, Note_on_c, 7, 49, 76
13, 82064, Note_on_c, 7, 49, 0
13, 82080, Note_on_c, 7, 50, 76
13, 82199, Note_on_c, 7, 50, 0
13, 82200, Note_on_c, 7, 52, 76
13, 82319, Note_on_c, 7, 52, 0
13, 82320, Note_on_c, 7, 54, 76
13, 82439, Note_on_c, 7, 54, 0
13, 82440, Note_on_c, 7, 56, 76
13, 82544, Note_on_c, 7, 56, 0
13, 82560, Note_on_c, 7, 58, 76
13, 82679, Note_on_c, 7, 58, 0
13, 82680, Note_on_c, 7, 59, 76
13, 82799, Note_on_c, 7, 59, 0
13, 82800, Note_on_c, 7, 61, 76
13, 82919, Note_on_c, 7, 61, 0
13, 82920, Note_on_c, 7, 58, 76
13, 83024, Note_on_c, 7, 58, 0
13, 83040, Note_on_c, 7, 59, 76
13, 83264, Note_on_c, 7, 59, 0
13, 83280, Note_on_c, 7, 55, 76
13, 83504, Note_on_c, 7, 55, 0
13, 83520, Note_on_c, 7, 52, 76
13, 83744, Note_on_c, 7, 52, 0
13, 83760, Note_on_c, 7, 54, 76
13, 83984, Note_on_c, 7, 54, 0
13, 84000, Note_on_c, 7, 47, 76
13, 84704, Note_on_c, 7, 47, 0
13, 84720, Note_on_c, 7, 54, 76
13, 84944, Note_on_c, 7, 54, 0
13, 84960, Note_on_c, 7, 59, 76
13, 85079, Note_on_c, 7, 59, 0
13, 85080, Note_on_c, 7, 57, 76
13, 85199, Note_on_c, 7, 57, 0
13, 85200, Note_on_c, 7, 59, 76
13, 85319, Note_on_c, 7, 59, 0
13, 85320, Note_on_c, 7, 60, 76
13, 85424, Note_on_c, 7, 60, 0
13, 85440, Note_on_c, 7, 59, 76
13, 85559, Note_on_c, 7, 59, 0
13, 85560, Note_on_c, 7, 57, 76
13, 85679, Note_on_c, 7, 57, 0
13, 85680, Note_on_c, 7, 55, 76
13, 85799, Note_on_c, 7, 55, 0
13, 85800, Note_on_c, 7, 54, 76
13, 85904, Note_on_c, 7, 54, 0
13, 85920, Note_on_c, 7, 55, 76
13, 86039, Note_on_c, 7, 55, 0
13, 86040, Note_on_c, 7, 57, 76
13, 86159, Note_on_c, 7, 57, 0
13, 86160, Note_on_c, 7, 55, 76
13, 86279, Note_on_c, 7, 55, 0
13, 86280, Note_on_c, 7, 54, 76
13, 86384, Note_on_c, 7, 54, 0
13, 86400, Note_on_c, 7, 52, 76
13, 86519, Note_on_c, 7, 52, 0
13, 86520, Note_on_c, 7, 50, 76
13, 86639, Note_on_c, 7, 50, 0
13, 86640, Note_on_c, 7, 48, 76
13, 86759, Note_on_c, 7, 48, 0
13, 86760, Note_on_c, 7, 47, 76
13, 86864, Note_on_c, 7, 47, 0
13, 86880, Note_on_c, 7, 45, 76
13, 86999, Note_on_c, 7, 45, 0
13, 87000, Note_on_c, 7, 47, 76
13, 87119, Note_on_c, 7, 47, 0
13, 87120, Note_on_c, 7, 48, 76
13, 87239, Note_on_c, 7, 48, 0
13, 87240, Note_on_c, 7, 45, 76
13, 87344, Note_on_c, 7, 45, 0
13, 87360, Note_on_c, 7, 42, 76
13, 87479, Note_on_c, 7, 42, 0
13, 87480, Note_on_c, 7, 43, 76
13, 87599, Note_on_c, 7, 43, 0
13, 87600, Note_on_c, 7, 45, 76
13, 87719, Note_on_c, 7, 45, 0
13, 87720, Note_on_c, 7, 42, 76
13, 87824, Note_on_c, 7, 42, 0
13, 87840, Note_on_c, 7, 47, 76
13, 88064, Note_on_c, 7, 47, 0
13, 88080, Note_on_c, 7, 54, 76
13, 88304, Note_on_c, 7, 54, 0
13, 88320, Note_on_c, 7, 59, 76
13, 88439, Note_on_c, 7, 59, 0
13, 88440, Note_on_c, 7, 61, 76
13, 88559, Note_on_c, 7, 61, 0
13, 88560, Note_on_c, 7, 63, 76
13, 88679, Note_on_c, 7, 63, 0
13, 88680, Note_on_c, 7, 59, 76
13, 88784, Note_on_c, 7, 59, 0
13, 88800, Note_on_c, 7, 64, 76
13, 88919, Note_on_c, 7, 64, 0
13, 88920, Note_on_c, 7, 57, 76
13, 89039, Note_on_c, 7, 57, 0
13, 89040, Note_on_c, 7, 56, 76
13, 89159, Note_on_c, 7, 56, 0
13, 89160, Note_on_c, 7, 54, 76
13, 89264, Note_on_c, 7, 54, 0
13, 89280, Note_on_c, 7, 52, 76
13, 89399, Note_on_c, 7, 52, 0
13, 89400, Note_on_c, 7, 50, 76
13, 89519, Note_on_c, 7, 50, 0
13, 89520, Note_on_c, 7, 48, 76
13, 89639, Note_on_c, 7, 48, 0
13, 89640, Note_on_c, 7, 47, 76
13, 89744, Note_on_c, 7, 47, 0
13, 89760, Note_on_c, 7, 45, 76
13, 89879, Note_on_c, 7, 45, 0
13, 89880, Note_on_c, 7, 55, 76
13, 89999, Note_on_c, 7, 55, 0
13, 90000, Note_on_c, 7, 54, 76
13, 90119, Note_on_c, 7, 54, 0
13, 90120, Note_on_c, 7, 52, 76
13, 90224, Note_on_c, 7, 52, 0
13, 90240, Note_on_c, 7, 51, 76
13, 90359, Note_on_c, 7, 51, 0
13, 90360, Note_on_c, 7, 52, 76
13, 90479, Note_on_c, 7, 52, 0
13, 90480, Note_on_c, 7, 54, 76
13, 90599, Note_on_c, 7, 54, 0
13, 90600, Note_on_c, 7, 51, 76
13, 90704, Note_on_c, 7, 51, 0
13, 90720, Note_on_c, 7, 52, 76
13, 90944, Note_on_c, 7, 52, 0
13, 90960, Note_on_c, 7, 48, 76
13, 91184, Note_on_c, 7, 48, 0
13, 91200, Note_on_c, 7, 45, 76
13, 91424, Note_on_c, 7, 45, 0
13, 91440, Note_on_c, 7, 47, 76
13, 91664, Note_on_c, 7, 47, 0
13, 91680, Note_on_c, 7, 40, 76
13, 91784, Note_on_c, 7, 40, 0
13, 91800, Note_on_c, 7, 47, 76
13, 91919, Note_on_c, 7, 47, 0
13, 91920, Note_on_c, 7, 49, 76
13, 92039, Note_on_c, 7, 49, 0
13, 92040, Note_on_c, 7, 51, 76
13, 92144, Note_on_c, 7, 51, 0
13, 92160, Note_on_c, 7, 52, 76
13, 92279, Note_on_c, 7, 52, 0
13, 92280, Note_on_c, 7, 54, 76
13, 92399, Note_on_c, 7, 54, 0
13, 92400, Note_on_c, 7, 55, 76
13, 92519, Note_on_c, 7, 55, 0
13, 92520, Note_on_c, 7, 52, 76
13, 92624, Note_on_c, 7, 52, 0
13, 92640, Note_on_c, 7, 57, 76
13, 92759, Note_on_c, 7, 57, 0
13, 92760, Note_on_c, 7, 59, 76
13, 92879, Note_on_c, 7, 59, 0
13, 92880, Note_on_c, 7, 61, 76
13, 92999, Note_on_c, 7, 61, 0
13, 93000, Note_on_c, 7, 59, 76
13, 93104, Note_on_c, 7, 59, 0
13, 93120, Note_on_c, 7, 57, 76
13, 93239, Note_on_c, 7, 57, 0
13, 93240, Note_on_c, 7, 55, 76
13, 93359, Note_on_c, 7, 55, 0
13, 93360, Note_on_c, 7, 54, 76
13, 93479, Note_on_c, 7, 54, 0
13, 93480, Note_on_c, 7, 52, 76
13, 93584, Note_on_c, 7, 52, 0
13, 93600, Note_on_c, 7, 50, 76
13, 93719, Note_on_c, 7, 50, 0
13, 93720, Note_on_c, 7, 52, 76
13, 93839, Note_on_c, 7, 52, 0
13, 93840, Note_on_c, 7, 54, 76
13, 93959, Note_on_c, 7, 54, 0
13, 93960, Note_on_c, 7, 52, 76
13, 94064, Note_on_c, 7, 52, 0
13, 94080, Note_on_c, 7, 50, 76
13, 94199, Note_on_c, 7, 50, 0
13, 94200, Note_on_c, 7, 49, 76
13, 94319, Note_on_c, 7, 49, 0
13, 94320, Note_on_c, 7, 47, 76
13, 94439, Note_on_c, 7, 47, 0
13, 94440, Note_on_c, 7, 50, 76
13, 94544, Note_on_c, 7, 50, 0
13, 94560, Note_on_c, 7, 49, 76
13, 94679, Note_on_c, 7, 49, 0
13, 94680, Note_on_c, 7, 54, 76
13, 94799, Note_on_c, 7, 54, 0
13, 94800, Note_on_c, 7, 52, 76
13, 94919, Note_on_c, 7, 52, 0
13, 94920, Note_on_c, 7, 50, 76
13, 95024, Note_on_c, 7, 50, 0
13, 95040, Note_on_c, 7, 49, 76
13, 95159, Note_on_c, 7, 49, 0
13, 95160, Note_on_c, 7, 47, 76
13, 95279, Note_on_c, 7, 47, 0
13, 95280, Note_on_c, 7, 46, 76
13, 95399, Note_on_c, 7, 46, 0
13, 95400, Note_on_c, 7, 47, 76
13, 95504, Note_on_c, 7, 47, 0
13, 95520, Note_on_c, 7, 42, 76
13, 95624, Note_on_c, 7, 42, 0
13, 95640, Note_on_c, 7, 55, 76
13, 95759, Note_on_c, 7, 55, 0
13, 95760, Note_on_c, 7, 54, 76
13, 95879, Note_on_c, 7, 54, 0
13, 95880, Note_on_c, 7, 52, 76
13, 95984, Note_on_c, 7, 52, 0
13, 96000, Note_on_c, 7, 50, 76
13, 96119, Note_on_c, 7, 50, 0
13, 96120, Note_on_c, 7, 49, 76
13, 96239, Note_on_c, 7, 49, 0
13, 96240, Note_on_c, 7, 50, 76
13, 96359, Note_on_c, 7, 50, 0
13, 96360, Note_on_c, 7, 47, 76
13, 96464, Note_on_c, 7, 47, 0
13, 96480, Note_on_c, 7, 52, 76
13, 96599, Note_on_c, 7, 52, 0
13, 96600, Note_on_c, 7, 54, 76
13, 96719, Note_on_c, 7, 54, 0
13, 96720, Note_on_c, 7, 55, 76
13, 96839, Note_on_c, 7, 55, 0
13, 96840, Note_on_c, 7, 52, 76
13, 96944, Note_on_c, 7, 52, 0
13, 96960, Note_on_c, 7, 49, 76
13, 97079, Note_on_c, 7, 49, 0
13, 97080, Note_on_c, 7, 50, 76
13, 97199, Note_on_c, 7, 50, 0
13, 97200, Note_on_c, 7, 52, 76
13, 97319, Note_on_c, 7, 52, 0
13, 97320, Note_on_c, 7, 49, 76
13, 97424, Note_on_c, 7, 49, 0
13, 97440, Note_on_c, 7, 50, 76
13, 97559, Note_on_c, 7, 50, 0
13, 97560, Note_on_c, 7, 52, 76
13, 97679, Note_on_c, 7, 52, 0
13, 97680, Note_on_c, 7, 54, 76
13, 97799, Note_on_c, 7, 54, 0
13, 97800, Note_on_c, 7, 56, 76
13, 97904, Note_on_c, 7, 56, 0
13, 97920, Note_on_c, 7, 58, 76
13, 98039, Note_on_c, 7, 58, 0
13, 98040, Note_on_c, 7, 59, 76
13, 98159, Note_on_c, 7, 59, 0
13, 98160, Note_on_c, 7, 61, 76
13, 98279, Note_on_c, 7, 61, 0
13, 98280, Note_on_c, 7, 58, 76
13, 98384, Note_on_c, 7, 58, 0
13, 98400, Note_on_c, 7, 59, 76
13, 98624, Note_on_c, 7, 59, 0
13, 98640, Note_on_c, 7, 55, 76
13, 98864, Note_on_c, 7, 55, 0
13, 98880, Note_on_c, 7, 52, 76
13, 99104, Note_on_c, 7, 52, 0
13, 99120, Note_on_c, 7, 54, 76
13, 99344, Note_on_c, 7, 54, 0
13, 99360, Note_on_c, 7, 47, 76
13, 100064, Note_on_c, 7, 47, 0
13, 100320, Note_on_c, 7, 62, 76
13, 100424, Note_on_c, 7, 62, 0
13, 100440, Note_on_c, 7, 61, 76
13, 100544, Note_on_c, 7, 61, 0
13, 100560, Note_on_c, 7, 59, 76
13, 100784, Note_on_c, 7, 59, 0
13, 100800, Note_on_c, 7, 47, 76
13, 101024, Note_on_c, 7, 47, 0
13, 101040, Note_on_c, 7, 45, 76
13, 101264, Note_on_c, 7, 45, 0
13, 101280, Note_on_c, 7, 43, 76
13, 101504, Note_on_c, 7, 43, 0
13, 101520, Note_on_c, 7, 42, 76
13, 101744, Note_on_c, 7, 42, 0
13, 101760, Note_on_c, 7, 54, 76
13, 101984, Note_on_c, 7, 54, 0
13, 102000, Note_on_c, 7, 52, 76
13, 102224, Note_on_c, 7, 52, 0
13, 102240, Note_on_c, 7, 50, 76
13, 102464, Note_on_c, 7, 50, 0
13, 102480, Note_on_c, 7, 55, 76
13, 102704, Note_on_c, 7, 55, 0
13, 102720, Note_on_c, 7, 42, 76
13, 102944, Note_on_c, 7, 42, 0
13, 102960, Note_on_c, 7, 40, 76
13, 103184, Note_on_c, 7, 40, 0
13, 103200, Note_on_c, 7, 38, 76
13, 103424, Note_on_c, 7, 38, 0
13, 103440, Note_on_c, 7, 45, 76
13, 103664, Note_on_c, 7, 45, 0
13, 103680, Note_on_c, 7, 49, 76
13, 103784, Note_on_c, 7, 49, 0
13, 103800, Note_on_c, 7, 47, 76
13, 103904, Note_on_c, 7, 47, 0
13, 103920, Note_on_c, 7, 45, 76
13, 104144, Note_on_c, 7, 45, 0
13, 104160, Note_on_c, 7, 43, 76
13, 104384, Note_on_c, 7, 43, 0
13, 104400, Note_on_c, 7, 42, 76
13, 104624, Note_on_c, 7, 42, 0
13, 104640, Note_on_c, 7, 47, 76
13, 104864, Note_on_c, 7, 47, 0
13, 104880, Note_on_c, 7, 49, 76
13, 105104, Note_on_c, 7, 49, 0
13, 105120, Note_on_c, 7, 50, 76
13, 105344, Note_on_c, 7, 50, 0
13, 105360, Note_on_c, 7, 44, 76
13, 105584, Note_on_c, 7, 44, 0
13, 105600, Note_on_c, 7, 56, 76
13, 105824, Note_on_c, 7, 56, 0
13, 105840, Note_on_c, 7, 54, 76
13, 106064, Note_on_c, 7, 54, 0
13, 106080, Note_on_c, 7, 52, 76
13, 106304, Note_on_c, 7, 52, 0
13, 106320, Note_on_c, 7, 61, 76
13, 106544, Note_on_c, 7, 61, 0
13, 106560, Note_on_c, 7, 54, 76
13, 106784, Note_on_c, 7, 54, 0
13, 106800, Note_on_c, 7, 52, 76
13, 107024, Note_on_c, 7, 52, 0
13, 107040, Note_on_c, 7, 40, 76
13, 107264, Note_on_c, 7, 40, 0
13, 107280, Note_on_c, 7, 45, 76
13, 107984, Note_on_c, 7, 45, 0
13, 108000, Note_on_c, 7, 62, 76
13, 108104, Note_on_c, 7, 62, 0
13, 108120, Note_on_c, 7, 61, 76
13, 108224, Note_on_c, 7, 61, 0
13, 108240, Note_on_c, 7, 59, 76
13, 108464, Note_on_c, 7, 59, 0
13, 108480, Note_on_c, 7, 47, 76
13, 108704, Note_on_c, 7, 47, 0
13, 108720, Note_on_c, 7, 45, 76
13, 108944, Note_on_c, 7, 45, 0
13, 108960, Note_on_c, 7, 43, 76
13, 109184, Note_on_c, 7, 43, 0
13, 109200, Note_on_c, 7, 42, 76
13, 109424, Note_on_c, 7, 42, 0
13, 109440, Note_on_c, 7, 54, 76
13, 109664, Note_on_c, 7, 54, 0
13, 109680, Note_on_c, 7, 52, 76
13, 109904, Note_on_c, 7, 52, 0
13, 109920, Note_on_c, 7, 50, 76
13, 110144, Note_on_c, 7, 50, 0
13, 110160, Note_on_c, 7, 55, 76
13, 110384, Note_on_c, 7, 55, 0
13, 110400, Note_on_c, 7, 42, 76
13, 110624, Note_on_c, 7, 42, 0
13, 110640, Note_on_c, 7, 40, 76
13, 110864, Note_on_c, 7, 40, 0
13, 110880, Note_on_c, 7, 38, 76
13, 111104, Note_on_c, 7, 38, 0
13, 111120, Note_on_c, 7, 45, 76
13, 111344, Note_on_c, 7, 45, 0
13, 111360, Note_on_c, 7, 49, 76
13, 111464, Note_on_c, 7, 49, 0
13, 111480, Note_on_c, 7, 47, 76
13, 111584, Note_on_c, 7, 47, 0
13, 111600, Note_on_c, 7, 45, 76
13, 111824, Note_on_c, 7, 45, 0
13, 111840, Note_on_c, 7, 43, 76
13, 112064, Note_on_c, 7, 43, 0
13, 112080, Note_on_c, 7, 42, 76
13, 112304, Note_on_c, 7, 42, 0
13, 112320, Note_on_c, 7, 47, 76
13, 112544, Note_on_c, 7, 47, 0
13, 112560, Note_on_c, 7, 49, 76
13, 112784, Note_on_c, 7, 49, 0
13, 112800, Note_on_c, 7, 50, 76
13, 113024, Note_on_c, 7, 50, 0
13, 113040, Note_on_c, 7, 44, 76
13, 113264, Note_on_c, 7, 44, 0
13, 113280, Note_on_c, 7, 56, 76
13, 113504, Note_on_c, 7, 56, 0
13, 113520, Note_on_c, 7, 54, 76
13, 113744, Note_on_c, 7, 54, 0
13, 113760, Note_on_c, 7, 52, 76
13, 113984, Note_on_c, 7, 52, 0
13, 114000, Note_on_c, 7, 61, 76
13, 114224, Note_on_c, 7, 61, 0
13, 114240, Note_on_c, 7, 54, 76
13, 114464, Note_on_c, 7, 54, 0
13, 114480, Note_on_c, 7, 52, 76
13, 114704, Note_on_c, 7, 52, 0
13, 114720, Note_on_c, 7, 40, 76
13, 114944, Note_on_c, 7, 40, 0
13, 114960, Note_on_c, 7, 45, 76
13, 115664, Note_on_c, 7, 45, 0
13, 115680, Note_on_c, 7, 45, 76
13, 115904, Note_on_c, 7, 45, 0
13, 115920, Note_on_c, 7, 57, 76
13, 116144, Note_on_c, 7, 57, 0
13, 116160, Note_on_c, 7, 57, 76
13, 116384, Note_on_c, 7, 57, 0
13, 116400, Note_on_c, 7, 57, 76
13, 116624, Note_on_c, 7, 57, 0
13, 116640, Note_on_c, 7, 45, 76
13, 116864, Note_on_c, 7, 45, 0
13, 116880, Note_on_c, 7, 57, 76
13, 117104, Note_on_c, 7, 57, 0
13, 117120, Note_on_c, 7, 55, 76
13, 117344, Note_on_c, 7, 55, 0
13, 117360, Note_on_c, 7, 54, 76
13, 117584, Note_on_c, 7, 54, 0
13, 117600, Note_on_c, 7, 52, 76
13, 117824, Note_on_c, 7, 52, 0
13, 117840, Note_on_c, 7, 50, 76
13, 118064, Note_on_c, 7, 50, 0
13, 118080, Note_on_c, 7, 47, 76
13, 118304, Note_on_c, 7, 47, 0
13, 118320, Note_on_c, 7, 50, 76
13, 118544, Note_on_c, 7, 50, 0
13, 118560, Note_on_c, 7, 54, 76
13, 118784, Note_on_c, 7, 54, 0
13, 118800, Note_on_c, 7, 59, 76
13, 119024, Note_on_c, 7, 59, 0
13, 119040, Note_on_c, 7, 45, 76
13, 119264, Note_on_c, 7, 45, 0
13, 119280, Note_on_c, 7, 43, 76
13, 119504, Note_on_c, 7, 43, 0
13, 119520, Note_on_c, 7, 42, 76
13, 119744, Note_on_c, 7, 42, 0
13, 119760, Note_on_c, 7, 40, 76
13, 119984, Note_on_c, 7, 40, 0
13, 120000, Note_on_c, 7, 52, 76
13, 120224, Note_on_c, 7, 52, 0
13, 120240, Note_on_c, 7, 50, 76
13, 120464, Note_on_c, 7, 50, 0
13, 120480, Note_on_c, 7, 49, 76
13, 120704, Note_on_c, 7, 49, 0
13, 120720, Note_on_c, 7, 54, 76
13, 120944, Note_on_c, 7, 54, 0
13, 120960, Note_on_c, 7, 42, 76
13, 121184, Note_on_c, 7, 42, 0
13, 121200, Note_on_c, 7, 44, 76
13, 121424, Note_on_c, 7, 44, 0
13, 121440, Note_on_c, 7, 46, 76
13, 121664, Note_on_c, 7, 46, 0
13, 121680, Note_on_c, 7, 38, 76
13, 121904, Note_on_c, 7, 38, 0
13, 121920, Note_on_c, 7, 43, 76
13, 122144, Note_on_c, 7, 43, 0
13, 122160, Note_on_c, 7, 42, 76
13, 122384, Note_on_c, 7, 42, 0
13, 122400, Note_on_c, 7, 54, 76
13, 122624, Note_on_c, 7, 54, 0
13, 122640, Note_on_c, 7, 59, 76
13, 122864, Note_on_c, 7, 59, 0
13, 122880, Note_on_c, 7, 54, 76
13, 123104, Note_on_c, 7, 54, 0
13, 123120, Note_on_c, 7, 50, 76
13, 123344, Note_on_c, 7, 50, 0
13, 123360, Note_on_c, 7, 54, 76
13, 123584, Note_on_c, 7, 54, 0
13, 123600, Note_on_c, 7, 47, 76
13, 123824, Note_on_c, 7, 47, 0
13, 123840, Note_on_c, 7, 59, 76
13, 124064, Note_on_c, 7, 59, 0
13, 124080, Note_on_c, 7, 57, 76
13, 124304, Note_on_c, 7, 57, 0
13, 124320, Note_on_c, 7, 55, 76
13, 124544, Note_on_c, 7, 55, 0
13, 124560, Note_on_c, 7, 54, 76
13, 124784, Note_on_c, 7, 54, 0
13, 124800, Note_on_c, 7, 42, 76
13, 125024, Note_on_c, 7, 42, 0
13, 125040, Note_on_c, 7, 40, 76
13, 125264, Note_on_c, 7, 40, 0
13, 125280, Note_on_c, 7, 38, 76
13, 125504, Note_on_c, 7, 38, 0
13, 125520, Note_on_c, 7, 43, 76
13, 125744, Note_on_c, 7, 43, 0
13, 125760, Note_on_c, 7, 54, 76
13, 125984, Note_on_c, 7, 54, 0
13, 126000, Note_on_c, 7, 52, 76
13, 126224, Note_on_c, 7, 52, 0
13, 126240, Note_on_c, 7, 50, 76
13, 126464, Note_on_c, 7, 50, 0
13, 126480, Note_on_c, 7, 57, 76
13, 126704, Note_on_c, 7, 57, 0
13, 126720, Note_on_c, 7, 49, 76
13, 126824, Note_on_c, 7, 49, 0
13, 126840, Note_on_c, 7, 47, 76
13, 126944, Note_on_c, 7, 47, 0
13, 126960, Note_on_c, 7, 45, 76
13, 127184, Note_on_c, 7, 45, 0
13, 127200, Note_on_c, 7, 43, 76
13, 127424, Note_on_c, 7, 43, 0
13, 127440, Note_on_c, 7, 42, 76
13, 127664, Note_on_c, 7, 42, 0
13, 127680, Note_on_c, 7, 54, 76
13, 127904, Note_on_c, 7, 54, 0
13, 127920, Note_on_c, 7, 55, 76
13, 128144, Note_on_c, 7, 55, 0
13, 128160, Note_on_c, 7, 57, 76
13, 128384, Note_on_c, 7, 57, 0
13, 128400, Note_on_c, 7, 55, 76
13, 128624, Note_on_c, 7, 55, 0
13, 128640, Note_on_c, 7, 52, 76
13, 128864, Note_on_c, 7, 52, 0
13, 128880, Note_on_c, 7, 49, 76
13, 129104, Note_on_c, 7, 49, 0
13, 129120, Note_on_c, 7, 45, 76
13, 129344, Note_on_c, 7, 45, 0
13, 129360, Note_on_c, 7, 50, 76
13, 129584, Note_on_c, 7, 50, 0
13, 129600, Note_on_c, 7, 55, 76
13, 129824, Note_on_c, 7, 55, 0
13, 129840, Note_on_c, 7, 57, 76
13, 130064, Note_on_c, 7, 57, 0
13, 130080, Note_on_c, 7, 45, 76
13, 130304, Note_on_c, 7, 45, 0
13, 130320, Note_on_c, 7, 50, 76
13, 130544, Note_on_c, 7, 50, 0
13, 130560, Note_on_c, 7, 54, 76
13, 130664, Note_on_c, 7, 54, 0
13, 130680, Note_on_c, 7, 57, 76
13, 130784, Note_on_c, 7, 57, 0
13, 130800, Note_on_c, 7, 62, 76
13, 131024, Note_on_c, 7, 62, 0
13, 131040, Note_on_c, 7, 45, 76
13, 131264, Note_on_c, 7, 45, 0
13, 131280, Note_on_c, 7, 57, 76
13, 131504, Note_on_c, 7, 57, 0
13, 131520, Note_on_c, 7, 57, 76
13, 131744, Note_on_c, 7, 57, 0
13, 131760, Note_on_c, 7, 57, 76
13, 131984, Note_on_c, 7, 57, 0
13, 132000, Note_on_c, 7, 45, 76
13, 132224, Note_on_c, 7, 45, 0
13, 132240, Note_on_c, 7, 57, 76
13, 132464, Note_on_c, 7, 57, 0
13, 132480, Note_on_c, 7, 55, 76
13, 132704, Note_on_c, 7, 55, 0
13, 132720, Note_on_c, 7, 54, 76
13, 132944, Note_on_c, 7, 54, 0
13, 132960, Note_on_c, 7, 52, 76
13, 133184, Note_on_c, 7, 52, 0
13, 133200, Note_on_c, 7, 50, 76
13, 133424, Note_on_c, 7, 50, 0
13, 133440, Note_on_c, 7, 47, 76
13, 133664, Note_on_c, 7, 47, 0
13, 133680, Note_on_c, 7, 50, 76
13, 133904, Note_on_c, 7, 50, 0
13, 133920, Note_on_c, 7, 54, 76
13, 134144, Note_on_c, 7, 54, 0
13, 134160, Note_on_c, 7, 59, 76
13, 134384, Note_on_c, 7, 59, 0
13, 134400, Note_on_c, 7, 45, 76
13, 134624, Note_on_c, 7, 45, 0
13, 134640, Note_on_c, 7, 43, 76
13, 134864, Note_on_c, 7, 43, 0
13, 134880, Note_on_c, 7, 42, 76
13, 135104, Note_on_c, 7, 42, 0
13, 135120, Note_on_c, 7, 40, 76
13, 135344, Note_on_c, 7, 40, 0
13, 135360, Note_on_c, 7, 52, 76
13, 135584, Note_on_c, 7, 52, 0
13, 135600, Note_on_c, 7, 50, 76
13, 135824, Note_on_c, 7, 50, 0
13, 135840, Note_on_c, 7, 49, 76
13, 136064, Note_on_c, 7, 49, 0
13, 136080, Note_on_c, 7, 54, 76
13, 136304, Note_on_c, 7, 54, 0
13, 136320, Note_on_c, 7, 42, 76
13, 136544, Note_on_c, 7, 42, 0
13, 136560, Note_on_c, 7, 44, 76
13, 136784, Note_on_c, 7, 44, 0
13, 136800, Note_on_c, 7, 46, 76
13, 137024, Note_on_c, 7, 46, 0
13, 137040, Note_on_c, 7, 38, 76
13, 137264, Note_on_c, 7, 38, 0
13, 137280, Note_on_c, 7, 43, 76
13, 137504, Note_on_c, 7, 43, 0
13, 137520, Note_on_c, 7, 42, 76
13, 137744, Note_on_c, 7, 42, 0
13, 137760, Note_on_c, 7, 54, 76
13, 137984, Note_on_c, 7, 54, 0
13, 138000, Note_on_c, 7, 59, 76
13, 138224, Note_on_c, 7, 59, 0
13, 138240, Note_on_c, 7, 54, 76
13, 138464, Note_on_c, 7, 54, 0
13, 138480, Note_on_c, 7, 50, 76
13, 138704, Note_on_c, 7, 50, 0
13, 138720, Note_on_c, 7, 54, 76
13, 138944, Note_on_c, 7, 54, 0
13, 138960, Note_on_c, 7, 47, 76
13, 139184, Note_on_c, 7, 47, 0
13, 139200, Note_on_c, 7, 59, 76
13, 139424, Note_on_c, 7, 59, 0
13, 139440, Note_on_c, 7, 57, 76
13, 139664, Note_on_c, 7, 57, 0
13, 139680, Note_on_c, 7, 55, 76
13, 139904, Note_on_c, 7, 55, 0
13, 139920, Note_on_c, 7, 54, 76
13, 140144, Note_on_c, 7, 54, 0
13, 140160, Note_on_c, 7, 42, 76
13, 140384, Note_on_c, 7, 42, 0
13, 140400, Note_on_c, 7, 40, 76
13, 140624, Note_on_c, 7, 40, 0
13, 140640, Note_on_c, 7, 38, 76
13, 140864, Note_on_c, 7, 38, 0
13, 140880, Note_on_c, 7, 43, 76
13, 141104, Note_on_c, 7, 43, 0
13, 141120, Note_on_c, 7, 54, 76
13, 141344, Note_on_c, 7, 54, 0
13, 141360, Note_on_c, 7, 52, 76
13, 141584, Note_on_c, 7, 52, 0
13, 141600, Note_on_c, 7, 50, 76
13, 141824, Note_on_c, 7, 50, 0
13, 141840, Note_on_c, 7, 57, 76
13, 142064, Note_on_c, 7, 57, 0
13, 142080, Note_on_c, 7, 49, 76
13, 142184, Note_on_c, 7, 49, 0
13, 142200, Note_on_c, 7, 47, 76
13, 142304, Note_on_c, 7, 47, 0
13, 142320, Note_on_c, 7, 45, 76
13, 142544, Note_on_c, 7, 45, 0
13, 142560, Note_on_c, 7, 43, 76
13, 142784, Note_on_c, 7, 43, 0
13, 142800, Note_on_c, 7, 42, 76
13, 143024, Note_on_c, 7, 42, 0
13, 143040, Note_on_c, 7, 54, 76
13, 143264, Note_on_c, 7, 54, 0
13, 143280, Note_on_c, 7, 55, 76
13, 143504, Note_on_c, 7, 55, 0
13, 143520, Note_on_c, 7, 57, 76
13, 143744, Note_on_c, 7, 57, 0
13, 143760, Note_on_c, 7, 55, 76
13, 143984, Note_on_c, 7, 55, 0
13, 144000, Note_on_c, 7, 52, 76
13, 144224, Note_on_c, 7, 52, 0
13, 144240, Note_on_c, 7, 49, 76
13, 144464, Note_on_c, 7, 49, 0
13, 144480, Note_on_c, 7, 45, 76
13, 144704, Note_on_c, 7, 45, 0
13, 144720, Note_on_c, 7, 50, 76
13, 144944, Note_on_c, 7, 50, 0
13, 144960, Note_on_c, 7, 55, 76
13, 145184, Note_on_c, 7, 55, 0
13, 145200, Note_on_c, 7, 57, 76
13, 145424, Note_on_c, 7, 57, 0
13, 145440, Note_on_c, 7, 45, 76
13, 145664, Note_on_c, 7, 45, 0
13, 145680, Note_on_c, 7, 50, 76
13, 145904, Note_on_c, 7, 50, 0
13, 145920, Note_on_c, 7, 54, 76
13, 146024, Note_on_c, 7, 54, 0
13, 146040, Note_on_c, 7, 57, 76
13, 146144, Note_on_c, 7, 57, 0
13, 146160, Note_on_c, 7, 62, 76
13, 146399, Note_on_c, 7, 62, 0
13, 146399, End_track
14, 0, Start_track
14, 0, Title_t, "Violin I"
14, 0, MIDI_port, 0
14, 0, Program_c, 10, 48
14, 0, Control_c, 10, 10, 48
14, 0, Control_c, 10, 11, 127
14, 0, Control_c, 10, 7, 96
14, 1440, Note_on_c, 10, 74, 76
14, 1544, Note_on_c, 10, 74, 0
14, 1560, Note_on_c, 10, 78, 76
14, 1664, Note_on_c, 10, 78, 0
14, 1680, Note_on_c, 10, 81, 76
14, 1919, Note_on_c, 10, 81, 0
14, 3360, Note_on_c, 10, 73, 76
14, 3464, Note_on_c, 10, 73, 0
14, 3480, Note_on_c, 10, 76, 76
14, 3584, Note_on_c, 10, 76, 0
14, 3600, Note_on_c, 10, 81, 76
14, 3839, Note_on_c, 10, 81, 0
14, 5280, Note_on_c, 10, 74, 76
14, 5384, Note_on_c, 10, 74, 0
14, 5400, Note_on_c, 10, 80, 76
14, 5504, Note_on_c, 10, 80, 0
14, 5520, Note_on_c, 10, 83, 76
14, 5759, Note_on_c, 10, 83, 0
14, 7200, Note_on_c, 10, 73, 76
14, 7304, Note_on_c, 10, 73, 0
14, 7320, Note_on_c, 10, 76, 76
14, 7424, Note_on_c, 10, 76, 0
14, 7440, Note_on_c, 10, 81, 76
14, 7679, Note_on_c, 10, 81, 0
14, 9120, Note_on_c, 10, 74, 76
14, 9224, Note_on_c, 10, 74, 0
14, 9240, Note_on_c, 10, 78, 76
14, 9344, Note_on_c, 10, 78, 0
14, 9360, Note_on_c, 10, 81, 76
14, 9599, Note_on_c, 10, 81, 0
14, 11040, Note_on_c, 10, 73, 76
14, 11144, Note_on_c, 10, 73, 0
14, 11160, Note_on_c, 10, 76, 76
14, 11264, Note_on_c, 10, 76, 0
14, 11280, Note_on_c, 10, 81, 76
14, 11519, Note_on_c, 10, 81, 0
14, 12960, Note_on_c, 10, 74, 76
14, 13064, Note_on_c, 10, 74, 0
14, 13080, Note_on_c, 10, 80, 76
14, 13184, Note_on_c, 10, 80, 0
14, 13200, Note_on_c, 10, 83, 76
14, 13439, Note_on_c, 10, 83, 0
14, 14880, Note_on_c, 10, 73, 76
14, 14984, Note_on_c, 10, 73, 0
14, 15000, Note_on_c, 10, 76, 76
14, 15104, Note_on_c, 10, 76, 0
14, 15120, Note_on_c, 10, 81, 76
14, 15344, Note_on_c, 10, 81, 0
14, 15360, Note_on_c, 10, 73, 76
14, 15464, Note_on_c, 10, 73, 0
14, 15480, Note_on_c, 10, 74, 76
14, 15584, Note_on_c, 10, 74, 0
14, 15600, Note_on_c, 10, 76, 76
14, 15704, Note_on_c, 10, 76, 0
14, 15720, Note_on_c, 10, 74, 76
14, 15824, Note_on_c, 10, 74, 0
14, 15840, Note_on_c, 10, 76, 76
14, 15944, Note_on_c, 10, 76, 0
14, 15960, Note_on_c, 10, 81, 76
14, 16064, Note_on_c, 10, 81, 0
14, 16080, Note_on_c, 10, 76, 76
14, 16184, Note_on_c, 10, 76, 0
14, 16200, Note_on_c, 10, 74, 76
14, 16304, Note_on_c, 10, 74, 0
14, 16320, Note_on_c, 10, 73, 76
14, 16424, Note_on_c, 10, 73, 0
14, 16440, Note_on_c, 10, 74, 76
14, 16544, Note_on_c, 10, 74, 0
14, 16560, Note_on_c, 10, 76, 76
14, 16784, Note_on_c, 10, 76, 0
14, 16800, Note_on_c, 10, 69, 76
14, 17264, Note_on_c, 10, 69, 0
14, 17280, Note_on_c, 10, 74, 76
14, 17384, Note_on_c, 10, 74, 0
14, 17400, Note_on_c, 10, 76, 76
14, 17504, Note_on_c, 10, 76, 0
14, 17520, Note_on_c, 10, 78, 76
14, 17624, Note_on_c, 10, 78, 0
14, 17640, Note_on_c, 10, 76, 76
14, 17744, Note_on_c, 10, 76, 0
14, 17760, Note_on_c, 10, 78, 76
14, 17864, Note_on_c, 10, 78, 0
14, 17880, Note_on_c, 10, 83, 76
14, 17984, Note_on_c, 10, 83, 0
14, 18000, Note_on_c, 10, 78, 76
14, 18104, Note_on_c, 10, 78, 0
14, 18120, Note_on_c, 10, 76, 76
14, 18224, Note_on_c, 10, 76, 0
14, 18240, Note_on_c, 10, 74, 76
14, 18344, Note_on_c, 10, 74, 0
14, 18360, Note_on_c, 10, 76, 76
14, 18464, Note_on_c, 10, 76, 0
14, 18480, Note_on_c, 10, 78, 76
14, 18704, Note_on_c, 10, 78, 0
14, 18720, Note_on_c, 10, 71, 76
14, 19184, Note_on_c, 10, 71, 0
14, 19200, Note_on_c, 10, 83, 76
14, 19304, Note_on_c, 10, 83, 0
14, 19320, Note_on_c, 10, 81, 76
14, 19424, Note_on_c, 10, 81, 0
14, 19440, Note_on_c, 10, 79, 76
14, 19664, Note_on_c, 10, 79, 0
14, 19680, Note_on_c, 10, 73, 76
14, 20144, Note_on_c, 10, 73, 0
14, 20160, Note_on_c, 10, 74, 76
14, 20264, Note_on_c, 10, 74, 0
14, 20280, Note_on_c, 10, 76, 76
14, 20384, Note_on_c, 10, 76, 0
14, 20400, Note_on_c, 10, 70, 76
14, 20624, Note_on_c, 10, 70, 0
14, 20640, Note_on_c, 10, 76, 76
14, 21104, Note_on_c, 10, 76, 0
14, 21120, Note_on_c, 10, 78, 76
14, 21224, Note_on_c, 10, 78, 0
14, 21240, Note_on_c, 10, 79, 76
14, 21344, Note_on_c, 10, 79, 0
14, 21360, Note_on_c, 10, 78, 76
14, 21464, Note_on_c, 10, 78, 0
14, 21480, Note_on_c, 10, 74, 76
14, 21584, Note_on_c, 10, 74, 0
14, 21600, Note_on_c, 10, 76, 76
14, 21824, Note_on_c, 10, 76, 0
14, 21840, Note_on_c, 10, 74, 76
14, 21944, Note_on_c, 10, 74, 0
14, 21960, Note_on_c, 10, 71, 76
14, 22064, Note_on_c, 10, 71, 0
14, 22080, Note_on_c, 10, 73, 76
14, 22304, Note_on_c, 10, 73, 0
14, 22320, Note_on_c, 10, 71, 76
14, 22799, Note_on_c, 10, 71, 0
14, 23040, Note_on_c, 10, 66, 76
14, 23144, Note_on_c, 10, 66, 0
14, 23160, Note_on_c, 10, 64, 76
14, 23264, Note_on_c, 10, 64, 0
14, 23280, Note_on_c, 10, 66, 76
14, 23504, Note_on_c, 10, 66, 0
14, 23520, Note_on_c, 10, 67, 76
14, 23744, Note_on_c, 10, 67, 0
14, 23760, Note_on_c, 10, 67, 76
14, 23864, Note_on_c, 10, 67, 0
14, 23880, Note_on_c, 10, 66, 76
14, 23984, Note_on_c, 10, 66, 0
14, 24000, Note_on_c, 10, 64, 76
14, 24104, Note_on_c, 10, 64, 0
14, 24120, Note_on_c, 10, 62, 76
14, 24224, Note_on_c, 10, 62, 0
14, 24240, Note_on_c, 10, 69, 76
14, 24344, Note_on_c, 10, 69, 0
14, 24360, Note_on_c, 10, 71, 76
14, 24464, Note_on_c, 10, 71, 0
14, 24480, Note_on_c, 10, 72, 76
14, 24959, Note_on_c, 10, 72, 0
14, 26400, Note_on_c, 10, 69, 76
14, 26504, Note_on_c, 10, 69, 0
14, 26520, Note_on_c, 10, 73, 76
14, 26624, Note_on_c, 10, 73, 0
14, 26640, Note_on_c, 10, 76, 76
14, 26864, Note_on_c, 10, 76, 0
14, 26880, Note_on_c, 10, 78, 76
14, 26984, Note_on_c, 10, 78, 0
14, 27000, Note_on_c, 10, 79, 76
14, 27104, Note_on_c, 10, 79, 0
14, 27120, Note_on_c, 10, 81, 76
14, 27224, Note_on_c, 10, 81, 0
14, 27240, Note_on_c, 10, 79, 76
14, 27344, Note_on_c, 10, 79, 0
14, 27360, Note_on_c, 10, 81, 76
14, 27464, Note_on_c, 10, 81, 0
14, 27480, Note_on_c, 10, 84, 76
14, 27584, Note_on_c, 10, 84, 0
14, 27600, Note_on_c, 10, 83, 76
14, 27704, Note_on_c, 10, 83, 0
14, 27720, Note_on_c, 10, 81, 76
14, 27824, Note_on_c, 10, 81, 0
14, 27840, Note_on_c, 10, 79, 76
14, 27944, Note_on_c, 10, 79, 0
14, 27960, Note_on_c, 10, 78, 76
14, 28064, Note_on_c, 10, 78, 0
14, 28080, Note_on_c, 10, 76, 76
14, 28184, Note_on_c, 10, 76, 0
14, 28200, Note_on_c, 10, 78, 76
14, 28304, Note_on_c, 10, 78, 0
14, 28320, Note_on_c, 10, 79, 76
14, 28784, Note_on_c, 10, 79, 0
14, 28800, Note_on_c, 10, 78, 76
14, 28904, Note_on_c, 10, 78, 0
14, 28920, Note_on_c, 10, 76, 76
14, 29024, Note_on_c, 10, 76, 0
14, 29040, Note_on_c, 10, 78, 76
14, 29144, Note_on_c, 10, 78, 0
14, 29160, Note_on_c, 10, 74, 76
14, 29264, Note_on_c, 10, 74, 0
14, 29280, Note_on_c, 10, 76, 76
14, 29504, Note_on_c, 10, 76, 0
14, 29520, Note_on_c, 10, 69, 76
14, 29744, Note_on_c, 10, 69, 0
14, 29760, Note_on_c, 10, 73, 76
14, 29984, Note_on_c, 10, 73, 0
14, 30000, Note_on_c, 10, 74, 76
14, 30704, Note_on_c, 10, 74, 0
14, 30720, Note_on_c, 10, 73, 76
14, 30824, Note_on_c, 10, 73, 0
14, 30840, Note_on_c, 10, 74, 76
14, 30944, Note_on_c, 10, 74, 0
14, 30960, Note_on_c, 10, 76, 76
14, 31064, Note_on_c, 10, 76, 0
14, 31080, Note_on_c, 10, 74, 76
14, 31184, Note_on_c, 10, 74, 0
14, 31200, Note_on_c, 10, 76, 76
14, 31304, Note_on_c, 10, 76, 0
14, 31320, Note_on_c, 10, 81, 76
14, 31424, Note_on_c, 10, 81, 0
14, 31440, Note_on_c, 10, 76, 76
14, 31544, Note_on_c, 10, 76, 0
14, 31560, Note_on_c, 10, 74, 76
14, 31664, Note_on_c, 10, 74, 0
14, 31680, Note_on_c, 10, 73, 76
14, 31784, Note_on_c, 10, 73, 0
14, 31800, Note_on_c, 10, 74, 76
14, 31904, Note_on_c, 10, 74, 0
14, 31920, Note_on_c, 10, 76, 76
14, 32144, Note_on_c, 10, 76, 0
14, 32160, Note_on_c, 10, 69, 76
14, 32624, Note_on_c, 10, 69, 0
14, 32640, Note_on_c, 10, 74, 76
14, 32744, Note_on_c, 10, 74, 0
14, 32760, Note_on_c, 10, 76, 76
14, 32864, Note_on_c, 10, 76, 0
14, 32880, Note_on_c, 10, 78, 76
14, 32984, Note_on_c, 10, 78, 0
14, 33000, Note_on_c, 10, 76, 76
14, 33104, Note_on_c, 10, 76, 0
14, 33120, Note_on_c, 10, 78, 76
14, 33224, Note_on_c, 10, 78, 0
14, 33240, Note_on_c, 10, 83, 76
14, 33344, Note_on_c, 10, 83, 0
14, 33360, Note_on_c, 10, 78, 76
14, 33464, Note_on_c, 10, 78, 0
14, 33480, Note_on_c, 10, 76, 76
14, 33584, Note_on_c, 10, 76, 0
14, 33600, Note_on_c, 10, 74, 76
14, 33704, Note_on_c, 10, 74, 0
14, 33720, Note_on_c, 10, 76, 76
14, 33824, Note_on_c, 10, 76, 0
14, 33840, Note_on_c, 10, 78, 76
14, 34064, Note_on_c, 10, 78, 0
14, 34080, Note_on_c, 10, 71, 76
14, 34544, Note_on_c, 10, 71, 0
14, 34560, Note_on_c, 10, 83, 76
14, 34664, Note_on_c, 10, 83, 0
14, 34680, Note_on_c, 10, 81, 76
14, 34784, Note_on_c, 10, 81, 0
14, 34800, Note_on_c, 10, 79, 76
14, 35024, Note_on_c, 10, 79, 0
14, 35040, Note_on_c, 10, 73, 76
14, 35504, Note_on_c, 10, 73, 0
14, 35520, Note_on_c, 10, 74, 76
14, 35624, Note_on_c, 10, 74, 0
14, 35640, Note_on_c, 10, 76, 76
14, 35744, Note_on_c, 10, 76, 0
14, 35760, Note_on_c, 10, 70, 76
14, 35984, Note_on_c, 10, 70, 0
14, 36000, Note_on_c, 10, 76, 76
14, 36464, Note_on_c, 10, 76, 0
14, 36480, Note_on_c, 10, 78, 76
14, 36584, Note_on_c, 10, 78, 0
14, 36600, Note_on_c, 10, 79, 76
14, 36704, Note_on_c, 10, 79, 0
14, 36720, Note_on_c, 10, 78, 76
14, 36824, Note_on_c, 10, 78, 0
14, 36840, Note_on_c, 10, 74, 76
14, 36944, Note_on_c, 10, 74, 0
14, 36960, Note_on_c, 10, 76, 76
14, 37184, Note_on_c, 10, 76, 0
14, 37200, Note_on_c, 10, 74, 76
14, 37304, Note_on_c, 10, 74, 0
14, 37320, Note_on_c, 10, 71, 76
14, 37424, Note_on_c, 10, 71, 0
14, 37440, Note_on_c, 10, 73, 76
14, 37664, Note_on_c, 10, 73, 0
14, 37680, Note_on_c, 10, 71, 76
14, 38159, Note_on_c, 10, 71, 0
14, 38400, Note_on_c, 10, 66, 76
14, 38504, Note_on_c, 10, 66, 0
14, 38520, Note_on_c, 10, 64, 76
14, 38624, Note_on_c, 10, 64, 0
14, 38640, Note_on_c, 10, 66, 76
14, 38864, Note_on_c, 10, 66, 0
14, 38880, Note_on_c, 10, 67, 76
14, 39104, Note_on_c, 10, 67, 0
14, 39120, Note_on_c, 10, 67, 76
14, 39224, Note_on_c, 10, 67, 0
14, 39240, Note_on_c, 10, 66, 76
14, 39344, Note_on_c, 10, 66, 0
14, 39360, Note_on_c, 10, 64, 76
14, 39464, Note_on_c, 10, 64, 0
14, 39480, Note_on_c, 10, 62, 76
14, 39584, Note_on_c, 10, 62, 0
14, 39600, Note_on_c, 10, 69, 76
14, 39704, Note_on_c, 10, 69, 0
14, 39720, Note_on_c, 10, 71, 76
14, 39824, Note_on_c, 10, 71, 0
14, 39840, Note_on_c, 10, 72, 76
14, 40319, Note_on_c, 10, 72, 0
14, 41760, Note_on_c, 10, 69, 76
14, 41864, Note_on_c, 10, 69, 0
14, 41880, Note_on_c, 10, 73, 76
14, 41984, Note_on_c, 10, 73, 0
14, 42000, Note_on_c, 10, 76, 76
14, 42224, Note_on_c, 10, 76, 0
14, 42240, Note_on_c, 10, 78, 76
14, 42344, Note_on_c, 10, 78, 0
14, 42360, Note_on_c, 10, 79, 76
14, 42464, Note_on_c, 10, 79, 0
14, 42480, Note_on_c, 10, 81, 76
14, 42584, Note_on_c, 10, 81, 0
14, 42600, Note_on_c, 10, 79, 76
14, 42704, Note_on_c, 10, 79, 0
14, 42720, Note_on_c, 10, 81, 76
14, 42824, Note_on_c, 10, 81, 0
14, 42840, Note_on_c, 10, 84, 76
14, 42944, Note_on_c, 10, 84, 0
14, 42960, Note_on_c, 10, 83, 76
14, 43064, Note_on_c, 10, 83, 0
14, 43080, Note_on_c, 10, 81, 76
14, 43184, Note_on_c, 10, 81, 0
14, 43200, Note_on_c, 10, 79, 76
14, 43304, Note_on_c, 10, 79, 0
14, 43320, Note_on_c, 10, 78, 76
14, 43424, Note_on_c, 10, 78, 0
14, 43440, Note_on_c, 10, 76, 76
14, 43544, Note_on_c, 10, 76, 0
14, 43560, Note_on_c, 10, 78, 76
14, 43664, Note_on_c, 10, 78, 0
14, 43680, Note_on_c, 10, 79, 76
14, 44144, Note_on_c, 10, 79, 0
14, 44160, Note_on_c, 10, 78, 76
14, 44264, Note_on_c, 10, 78, 0
14, 44280, Note_on_c, 10, 76, 76
14, 44384, Note_on_c, 10, 76, 0
14, 44400, Note_on_c, 10, 78, 76
14, 44504, Note_on_c, 10, 78, 0
14, 44520, Note_on_c, 10, 74, 76
14, 44624, Note_on_c, 10, 74, 0
14, 44640, Note_on_c, 10, 76, 76
14, 44864, Note_on_c, 10, 76, 0
14, 44880, Note_on_c, 10, 69, 76
14, 45104, Note_on_c, 10, 69, 0
14, 45120, Note_on_c, 10, 73, 76
14, 45344, Note_on_c, 10, 73, 0
14, 45360, Note_on_c, 10, 74, 76
14, 46064, Note_on_c, 10, 74, 0
14, 46800, Note_on_c, 10, 66, 76
14, 46859, Note_on_c, 10, 66, 0
14, 46860, Note_on_c, 10, 64, 76
14, 46919, Note_on_c, 10, 64, 0
14, 46920, Note_on_c, 10, 62, 76
14, 46979, Note_on_c, 10, 62, 0
14, 46980, Note_on_c, 10, 64, 76
14, 47031, Note_on_c, 10, 64, 0
14, 47040, Note_on_c, 10, 66, 76
14, 47279, Note_on_c, 10, 66, 0
14, 47760, Note_on_c, 10, 66, 76
14, 47819, Note_on_c, 10, 66, 0
14, 47820, Note_on_c, 10, 64, 76
14, 47879, Note_on_c, 10, 64, 0
14, 47880, Note_on_c, 10, 62, 76
14, 47939, Note_on_c, 10, 62, 0
14, 47940, Note_on_c, 10, 64, 76
14, 47991, Note_on_c, 10, 64, 0
14, 48000, Note_on_c, 10, 66, 76
14, 48239, Note_on_c, 10, 66, 0
14, 49680, Note_on_c, 10, 66, 76
14, 49739, Note_on_c, 10, 66, 0
14, 49740, Note_on_c, 10, 64, 76
14, 49799, Note_on_c, 10, 64, 0
14, 49800, Note_on_c, 10, 62, 76
14, 49859, Note_on_c, 10, 62, 0
14, 49860, Note_on_c, 10, 64, 76
14, 49911, Note_on_c, 10, 64, 0
14, 49920, Note_on_c, 10, 66, 76
14, 50159, Note_on_c, 10, 66, 0
14, 50640, Note_on_c, 10, 66, 76
14, 50699, Note_on_c, 10, 66, 0
14, 50700, Note_on_c, 10, 64, 76
14, 50759, Note_on_c, 10, 64, 0
14, 50760, Note_on_c, 10, 62, 76
14, 50819, Note_on_c, 10, 62, 0
14, 50820, Note_on_c, 10, 64, 76
14, 50871, Note_on_c, 10, 64, 0
14, 50880, Note_on_c, 10, 66, 76
14, 51119, Note_on_c, 10, 66, 0
14, 51600, Note_on_c, 10, 66, 76
14, 51659, Note_on_c, 10, 66, 0
14, 51660, Note_on_c, 10, 64, 76
14, 51719, Note_on_c, 10, 64, 0
14, 51720, Note_on_c, 10, 62, 76
14, 51779, Note_on_c, 10, 62, 0
14, 51780, Note_on_c, 10, 64, 76
14, 51831, Note_on_c, 10, 64, 0
14, 51840, Note_on_c, 10, 66, 76
14, 52079, Note_on_c, 10, 66, 0
14, 52560, Note_on_c, 10, 64, 76
14, 52619, Note_on_c, 10, 64, 0
14, 52620, Note_on_c, 10, 62, 76
14, 52679, Note_on_c, 10, 62, 0
14, 52680, Note_on_c, 10, 61, 76
14, 52739, Note_on_c, 10, 61, 0
14, 52740, Note_on_c, 10, 62, 76
14, 52791, Note_on_c, 10, 62, 0
14, 52800, Note_on_c, 10, 64, 76
14, 53039, Note_on_c, 10, 64, 0
14, 53520, Note_on_c, 10, 62, 76
14, 53579, Note_on_c, 10, 62, 0
14, 53580, Note_on_c, 10, 61, 76
14, 53639, Note_on_c, 10, 61, 0
14, 53640, Note_on_c, 10, 59, 76
14, 53699, Note_on_c, 10, 59, 0
14, 53700, Note_on_c, 10, 61, 76
14, 53751, Note_on_c, 10, 61, 0
14, 53760, Note_on_c, 10, 62, 76
14, 53999, Note_on_c, 10, 62, 0
14, 54480, Note_on_c, 10, 62, 76
14, 54539, Note_on_c, 10, 62, 0
14, 54540, Note_on_c, 10, 61, 76
14, 54599, Note_on_c, 10, 61, 0
14, 54600, Note_on_c, 10, 59, 76
14, 54659, Note_on_c, 10, 59, 0
14, 54660, Note_on_c, 10, 61, 76
14, 54711, Note_on_c, 10, 61, 0
14, 54720, Note_on_c, 10, 62, 76
14, 54959, Note_on_c, 10, 62, 0
14, 55440, Note_on_c, 10, 61, 76
14, 55499, Note_on_c, 10, 61, 0
14, 55500, Note_on_c, 10, 59, 76
14, 55559, Note_on_c, 10, 59, 0
14, 55560, Note_on_c, 10, 57, 76
14, 55619, Note_on_c, 10, 57, 0
14, 55620, Note_on_c, 10, 59, 76
14, 55671, Note_on_c, 10, 59, 0
14, 55680, Note_on_c, 10, 61, 76
14, 55919, Note_on_c, 10, 61, 0
14, 57360, Note_on_c, 10, 61, 76
14, 57419, Note_on_c, 10, 61, 0
14, 57420, Note_on_c, 10, 59, 76
14, 57479, Note_on_c, 10, 59, 0
14, 57480, Note_on_c, 10, 58, 76
14, 57539, Note_on_c, 10, 58, 0
14, 57540, Note_on_c, 10, 59, 76
14, 57591, Note_on_c, 10, 59, 0
14, 57600, Note_on_c, 10, 61, 76
14, 57839, Note_on_c, 10, 61, 0
14, 58320, Note_on_c, 10, 66, 76
14, 58379, Note_on_c, 10, 66, 0
14, 58380, Note_on_c, 10, 64, 76
14, 58439, Note_on_c, 10, 64, 0
14, 58440, Note_on_c, 10, 62, 76
14, 58499, Note_on_c, 10, 62, 0
14, 58500, Note_on_c, 10, 64, 76
14, 58551, Note_on_c, 10, 64, 0
14, 58560, Note_on_c, 10, 66, 76
14, 58799, Note_on_c, 10, 66, 0
14, 59280, Note_on_c, 10, 66, 76
14, 59339, Note_on_c, 10, 66, 0
14, 59340, Note_on_c, 10, 64, 76
14, 59399, Note_on_c, 10, 64, 0
14, 59400, Note_on_c, 10, 62, 76
14, 59459, Note_on_c, 10, 62, 0
14, 59460, Note_on_c, 10, 64, 76
14, 59511, Note_on_c, 10, 64, 0
14, 59520, Note_on_c, 10, 66, 76
14, 59759, Note_on_c, 10, 66, 0
14, 61200, Note_on_c, 10, 66, 76
14, 61259, Note_on_c, 10, 66, 0
14, 61260, Note_on_c, 10, 64, 76
14, 61319, Note_on_c, 10, 64, 0
14, 61320, Note_on_c, 10, 62, 76
14, 61379, Note_on_c, 10, 62, 0
14, 61380, Note_on_c, 10, 64, 76
14, 61431, Note_on_c, 10, 64, 0
14, 61440, Note_on_c, 10, 66, 76
14, 61679, Note_on_c, 10, 66, 0
14, 62160, Note_on_c, 10, 66, 76
14, 62219, Note_on_c, 10, 66, 0
14, 62220, Note_on_c, 10, 64, 76
14, 62279, Note_on_c, 10, 64, 0
14, 62280, Note_on_c, 10, 62, 76
14, 62339, Note_on_c, 10, 62, 0
14, 62340, Note_on_c, 10, 64, 76
14, 62391, Note_on_c, 10, 64, 0
14, 62400, Note_on_c, 10, 66, 76
14, 62639, Note_on_c, 10, 66, 0
14, 63120, Note_on_c, 10, 66, 76
14, 63179, Note_on_c, 10, 66, 0
14, 63180, Note_on_c, 10, 64, 76
14, 63239, Note_on_c, 10, 64, 0
14, 63240, Note_on_c, 10, 62, 76
14, 63299, Note_on_c, 10, 62, 0
14, 63300, Note_on_c, 10, 64, 76
14, 63351, Note_on_c, 10, 64, 0
14, 63360, Note_on_c, 10, 66, 76
14, 63599, Note_on_c, 10, 66, 0
14, 64080, Note_on_c, 10, 64, 76
14, 64139, Note_on_c, 10, 64, 0
14, 64140, Note_on_c, 10, 62, 76
14, 64199, Note_on_c, 10, 62, 0
14, 64200, Note_on_c, 10, 61, 76
14, 64259, Note_on_c, 10, 61, 0
14, 64260, Note_on_c, 10, 62, 76
14, 64311, Note_on_c, 10, 62, 0
14, 64320, Note_on_c, 10, 64, 76
14, 64559, Note_on_c, 10, 64, 0
14, 65040, Note_on_c, 10, 62, 76
14, 65099, Note_on_c, 10, 62, 0
14, 65100, Note_on_c, 10, 61, 76
14, 65159, Note_on_c, 10, 61, 0
14, 65160, Note_on_c, 10, 59, 76
14, 65219, Note_on_c, 10, 59, 0
14, 65220, Note_on_c, 10, 61, 76
14, 65271, Note_on_c, 10, 61, 0
14, 65280, Note_on_c, 10, 62, 76
14, 65519, Note_on_c, 10, 62, 0
14, 66000, Note_on_c, 10, 62, 76
14, 66059, Note_on_c, 10, 62, 0
14, 66060, Note_on_c, 10, 61, 76
14, 66119, Note_on_c, 10, 61, 0
14, 66120, Note_on_c, 10, 59, 76
14, 66179, Note_on_c, 10, 59, 0
14, 66180, Note_on_c, 10, 61, 76
14, 66231, Note_on_c, 10, 61, 0
14, 66240, Note_on_c, 10, 62, 76
14, 66479, Note_on_c, 10, 62, 0
14, 66960, Note_on_c, 10, 61, 76
14, 67019, Note_on_c, 10, 61, 0
14, 67020, Note_on_c, 10, 59, 76
14, 67079, Note_on_c, 10, 59, 0
14, 67080, Note_on_c, 10, 57, 76
14, 67139, Note_on_c, 10, 57, 0
14, 67140, Note_on_c, 10, 59, 76
14, 67191, Note_on_c, 10, 59, 0
14, 67200, Note_on_c, 10, 61, 76
14, 67439, Note_on_c, 10, 61, 0
14, 68880, Note_on_c, 10, 61, 76
14, 68939, Note_on_c, 10, 61, 0
14, 68940, Note_on_c, 10, 59, 76
14, 68999, Note_on_c, 10, 59, 0
14, 69000, Note_on_c, 10, 58, 76
14, 69059, Note_on_c, 10, 58, 0
14, 69060, Note_on_c, 10, 59, 76
14, 69111, Note_on_c, 10, 59, 0
14, 69120, Note_on_c, 10, 61, 76
14, 69359, Note_on_c, 10, 61, 0
14, 69840, Note_on_c, 10, 66, 76
14, 69899, Note_on_c, 10, 66, 0
14, 69900, Note_on_c, 10, 64, 76
14, 69959, Note_on_c, 10, 64, 0
14, 69960, Note_on_c, 10, 63, 76
14, 70019, Note_on_c, 10, 63, 0
14, 70020, Note_on_c, 10, 64, 76
14, 70071, Note_on_c, 10, 64, 0
14, 70080, Note_on_c, 10, 66, 76
14, 70319, Note_on_c, 10, 66, 0
14, 70800, Note_on_c, 10, 59, 76
14, 70859, Note_on_c, 10, 59, 0
14, 70860, Note_on_c, 10, 57, 76
14, 70919, Note_on_c, 10, 57, 0
14, 70920, Note_on_c, 10, 55, 76
14, 70979, Note_on_c, 10, 55, 0
14, 70980, Note_on_c, 10, 57, 76
14, 71031, Note_on_c, 10, 57, 0
14, 71040, Note_on_c, 10, 59, 76
14, 71279, Note_on_c, 10, 59, 0
14, 72720, Note_on_c, 10, 66, 76
14, 72779, Note_on_c, 10, 66, 0
14, 72780, Note_on_c, 10, 64, 76
14, 72839, Note_on_c, 10, 64, 0
14, 72840, Note_on_c, 10, 63, 76
14, 72899, Note_on_c, 10, 63, 0
14, 72900, Note_on_c, 10, 64, 76
14, 72951, Note_on_c, 10, 64, 0
14, 72960, Note_on_c, 10, 66, 76
14, 73199, Note_on_c, 10, 66, 0
14, 73680, Note_on_c, 10, 59, 76
14, 73739, Note_on_c, 10, 59, 0
14, 73740, Note_on_c, 10, 57, 76
14, 73799, Note_on_c, 10, 57, 0
14, 73800, Note_on_c, 10, 56, 76
14, 73859, Note_on_c, 10, 56, 0
14, 73860, Note_on_c, 10, 57, 76
14, 73911, Note_on_c, 10, 57, 0
14, 73920, Note_on_c, 10, 59, 76
14, 74159, Note_on_c, 10, 59, 0
14, 74640, Note_on_c, 10, 66, 76
14, 74699, Note_on_c, 10, 66, 0
14, 74700, Note_on_c, 10, 64, 76
14, 74759, Note_on_c, 10, 64, 0
14, 74760, Note_on_c, 10, 63, 76
14, 74819, Note_on_c, 10, 63, 0
14, 74820, Note_on_c, 10, 64, 76
14, 74871, Note_on_c, 10, 64, 0
14, 74880, Note_on_c, 10, 66, 76
14, 75119, Note_on_c, 10, 66, 0
14, 76560, Note_on_c, 10, 67, 76
14, 76619, Note_on_c, 10, 67, 0
14, 76620, Note_on_c, 10, 66, 76
14, 76679, Note_on_c, 10, 66, 0
14, 76680, Note_on_c, 10, 64, 76
14, 76739, Note_on_c, 10, 64, 0
14, 76740, Note_on_c, 10, 66, 76
14, 76791, Note_on_c, 10, 66, 0
14, 76800, Note_on_c, 10, 67, 76
14, 77039, Note_on_c, 10, 67, 0
14, 77520, Note_on_c, 10, 67, 76
14, 77579, Note_on_c, 10, 67, 0
14, 77580, Note_on_c, 10, 66, 76
14, 77639, Note_on_c, 10, 66, 0
14, 77640, Note_on_c, 10, 64, 76
14, 77699, Note_on_c, 10, 64, 0
14, 77700, Note_on_c, 10, 66, 76
14, 77751, Note_on_c, 10, 66, 0
14, 77760, Note_on_c, 10, 67, 76
14, 77999, Note_on_c, 10, 67, 0
14, 78480, Note_on_c, 10, 66, 76
14, 78539, Note_on_c, 10, 66, 0
14, 78540, Note_on_c, 10, 64, 76
14, 78599, Note_on_c, 10, 64, 0
14, 78600, Note_on_c, 10, 62, 76
14, 78659, Note_on_c, 10, 62, 0
14, 78660, Note_on_c, 10, 64, 76
14, 78711, Note_on_c, 10, 64, 0
14, 78720, Note_on_c, 10, 66, 76
14, 78959, Note_on_c, 10, 66, 0
14, 80400, Note_on_c, 10, 66, 76
14, 80459, Note_on_c, 10, 66, 0
14, 80460, Note_on_c, 10, 64, 76
14, 80519, Note_on_c, 10, 64, 0
14, 80520, Note_on_c, 10, 62, 76
14, 80579, Note_on_c, 10, 62, 0
14, 80580, Note_on_c, 10, 64, 76
14, 80631, Note_on_c, 10, 64, 0
14, 80640, Note_on_c, 10, 66, 76
14, 80879, Note_on_c, 10, 66, 0
14, 81360, Note_on_c, 10, 64, 76
14, 81419, Note_on_c, 10, 64, 0
14, 81420, Note_on_c, 10, 62, 76
14, 81479, Note_on_c, 10, 62, 0
14, 81480, Note_on_c, 10, 61, 76
14, 81539, Note_on_c, 10, 61, 0
14, 81540, Note_on_c, 10, 62, 76
14, 81591, Note_on_c, 10, 62, 0
14, 81600, Note_on_c, 10, 64, 76
14, 81839, Note_on_c, 10, 64, 0
14, 82320, Note_on_c, 10, 61, 76
14, 82379, Note_on_c, 10, 61, 0
14, 82380, Note_on_c, 10, 59, 76
14, 82439, Note_on_c, 10, 59, 0
14, 82440, Note_on_c, 10, 58, 76
14, 82499, Note_on_c, 10, 58, 0
14, 82500, Note_on_c, 10, 59, 76
14, 82551, Note_on_c, 10, 59, 0
14, 82560, Note_on_c, 10, 61, 76
14, 82799, Note_on_c, 10, 61, 0
14, 84240, Note_on_c, 10, 62, 76
14, 84299, Note_on_c, 10, 62, 0
14, 84300, Note_on_c, 10, 61, 76
14, 84359, Note_on_c, 10, 61, 0
14, 84360, Note_on_c, 10, 59, 76
14, 84419, Note_on_c, 10, 59, 0
14, 84420, Note_on_c, 10, 61, 76
14, 84471, Note_on_c, 10, 61, 0
14, 84480, Note_on_c, 10, 62, 76
14, 84719, Note_on_c, 10, 62, 0
14, 85200, Note_on_c, 10, 66, 76
14, 85259, Note_on_c, 10, 66, 0
14, 85260, Note_on_c, 10, 64, 76
14, 85319, Note_on_c, 10, 64, 0
14, 85320, Note_on_c, 10, 63, 76
14, 85379, Note_on_c, 10, 63, 0
14, 85380, Note_on_c, 10, 64, 76
14, 85431, Note_on_c, 10, 64, 0
14, 85440, Note_on_c, 10, 66, 76
14, 85679, Note_on_c, 10, 66, 0
14, 86160, Note_on_c, 10, 59, 76
14, 86219, Note_on_c, 10, 59, 0
14, 86220, Note_on_c, 10, 57, 76
14, 86279, Note_on_c, 10, 57, 0
14, 86280, Note_on_c, 10, 55, 76
14, 86339, Note_on_c, 10, 55, 0
14, 86340, Note_on_c, 10, 57, 76
14, 86391, Note_on_c, 10, 57, 0
14, 86400, Note_on_c, 10, 59, 76
14, 86639, Note_on_c, 10, 59, 0
14, 88080, Note_on_c, 10, 66, 76
14, 88139, Note_on_c, 10, 66, 0
14, 88140, Note_on_c, 10, 64, 76
14, 88199, Note_on_c, 10, 64, 0
14, 88200, Note_on_c, 10, 63, 76
14, 88259, Note_on_c, 10, 63, 0
14, 88260, Note_on_c, 10, 64, 76
14, 88311, Note_on_c, 10, 64, 0
14, 88320, Note_on_c, 10, 66, 76
14, 88559, Note_on_c, 10, 66, 0
14, 89040, Note_on_c, 10, 59, 76
14, 89099, Note_on_c, 10, 59, 0
14, 89100, Note_on_c, 10, 57, 76
14, 89159, Note_on_c, 10, 57, 0
14, 89160, Note_on_c, 10, 56, 76
14, 89219, Note_on_c, 10, 56, 0
14, 89220, Note_on_c, 10, 57, 76
14, 89271, Note_on_c, 10, 57, 0
14, 89280, Note_on_c, 10, 59, 76
14, 89519, Note_on_c, 10, 59, 0
14, 90000, Note_on_c, 10, 66, 76
14, 90059, Note_on_c, 10, 66, 0
14, 90060, Note_on_c, 10, 64, 76
14, 90119, Note_on_c, 10, 64, 0
14, 90120, Note_on_c, 10, 63, 76
14, 90179, Note_on_c, 10, 63, 0
14, 90180, Note_on_c, 10, 64, 76
14, 90231, Note_on_c, 10, 64, 0
14, 90240, Note_on_c, 10, 66, 76
14, 90479, Note_on_c, 10, 66, 0
14, 91920, Note_on_c, 10, 67, 76
14, 91979, Note_on_c, 10, 67, 0
14, 91980, Note_on_c, 10, 66, 76
14, 92039, Note_on_c, 10, 66, 0
14, 92040, Note_on_c, 10, 64, 76
14, 92099, Note_on_c, 10, 64, 0
14, 92100, Note_on_c, 10, 66, 76
14, 92151, Note_on_c, 10, 66, 0
14, 92160, Note_on_c, 10, 67, 76
14, 92399, Note_on_c, 10, 67, 0
14, 92880, Note_on_c, 10, 67, 76
14, 92939, Note_on_c, 10, 67, 0
14, 92940, Note_on_c, 10, 66, 76
14, 92999, Note_on_c, 10, 66, 0
14, 93000, Note_on_c, 10, 64, 76
14, 93059, Note_on_c, 10, 64, 0
14, 93060, Note_on_c, 10, 66, 76
14, 93111, Note_on_c, 10, 66, 0
14, 93120, Note_on_c, 10, 67, 76
14, 93359, Note_on_c, 10, 67, 0
14, 93840, Note_on_c, 10, 66, 76
14, 93899, Note_on_c, 10, 66, 0
14, 93900, Note_on_c, 10, 64, 76
14, 93959, Note_on_c, 10, 64, 0
14, 93960, Note_on_c, 10, 62, 76
14, 94019, Note_on_c, 10, 62, 0
14, 94020, Note_on_c, 10, 64, 76
14, 94071, Note_on_c, 10, 64, 0
14, 94080, Note_on_c, 10, 66, 76
14, 94319, Note_on_c, 10, 66, 0
14, 95760, Note_on_c, 10, 66, 76
14, 95819, Note_on_c, 10, 66, 0
14, 95820, Note_on_c, 10, 64, 76
14, 95879, Note_on_c, 10, 64, 0
14, 95880, Note_on_c, 10, 62, 76
14, 95939, Note_on_c, 10, 62, 0
14, 95940, Note_on_c, 10, 64, 76
14, 95991, Note_on_c, 10, 64, 0
14, 96000, Note_on_c, 10, 66, 76
14, 96239, Note_on_c, 10, 66, 0
14, 96720, Note_on_c, 10, 64, 76
14, 96779, Note_on_c, 10, 64, 0
14, 96780, Note_on_c, 10, 62, 76
14, 96839, Note_on_c, 10, 62, 0
14, 96840, Note_on_c, 10, 61, 76
14, 96899, Note_on_c, 10, 61, 0
14, 96900, Note_on_c, 10, 62, 76
14, 96951, Note_on_c, 10, 62, 0
14, 96960, Note_on_c, 10, 64, 76
14, 97199, Note_on_c, 10, 64, 0
14, 97680, Note_on_c, 10, 61, 76
14, 97739, Note_on_c, 10, 61, 0
14, 97740, Note_on_c, 10, 59, 76
14, 97799, Note_on_c, 10, 59, 0
14, 97800, Note_on_c, 10, 58, 76
14, 97859, Note_on_c, 10, 58, 0
14, 97860, Note_on_c, 10, 59, 76
14, 97911, Note_on_c, 10, 59, 0
14, 97920, Note_on_c, 10, 61, 76
14, 98159, Note_on_c, 10, 61, 0
14, 99600, Note_on_c, 10, 62, 76
14, 99659, Note_on_c, 10, 62, 0
14, 99660, Note_on_c, 10, 61, 76
14, 99719, Note_on_c, 10, 61, 0
14, 99720, Note_on_c, 10, 59, 76
14, 99779, Note_on_c, 10, 59, 0
14, 99780, Note_on_c, 10, 61, 76
14, 99831, Note_on_c, 10, 61, 0
14, 99840, Note_on_c, 10, 62, 76
14, 100079, Note_on_c, 10, 62, 0
14, 101760, Note_on_c, 10, 74, 76
14, 101864, Note_on_c, 10, 74, 0
14, 101880, Note_on_c, 10, 78, 76
14, 101984, Note_on_c, 10, 78, 0
14, 102000, Note_on_c, 10, 81, 76
14, 102239, Note_on_c, 10, 81, 0
14, 103680, Note_on_c, 10, 73, 76
14, 103784, Note_on_c, 10, 73, 0
14, 103800, Note_on_c, 10, 76, 76
14, 103904, Note_on_c, 10, 76, 0
14, 103920, Note_on_c, 10, 81, 76
14, 104159, Note_on_c, 10, 81, 0
14, 105600, Note_on_c, 10, 74, 76
14, 105704, Note_on_c, 10, 74, 0
14, 105720, Note_on_c, 10, 80, 76
14, 105824, Note_on_c, 10, 80, 0
14, 105840, Note_on_c, 10, 83, 76
14, 106079, Note_on_c, 10, 83, 0
14, 107520, Note_on_c, 10, 73, 76
14, 107624, Note_on_c, 10, 73, 0
14, 107640, Note_on_c, 10, 76, 76
14, 107744, Note_on_c, 10, 76, 0
14, 107760, Note_on_c, 10, 81, 76
14, 107999, Note_on_c, 10, 81, 0
14, 109440, Note_on_c, 10, 74, 76
14, 109544, Note_on_c, 10, 74, 0
14, 109560, Note_on_c, 10, 78, 76
14, 109664, Note_on_c, 10, 78, 0
14, 109680, Note_on_c, 10, 81, 76
14, 109919, Note_on_c, 10, 81, 0
14, 111360, Note_on_c, 10, 73, 76
14, 111464, Note_on_c, 10, 73, 0
14, 111480, Note_on_c, 10, 76, 76
14, 111584, Note_on_c, 10, 76, 0
14, 111600, Note_on_c, 10, 81, 76
14, 111839, Note_on_c, 10, 81, 0
14, 113280, Note_on_c, 10, 74, 76
14, 113384, Note_on_c, 10, 74, 0
14, 113400, Note_on_c, 10, 80, 76
14, 113504, Note_on_c, 10, 80, 0
14, 113520, Note_on_c, 10, 83, 76
14, 113759, Note_on_c, 10, 83, 0
14, 115200, Note_on_c, 10, 73, 76
14, 115304, Note_on_c, 10, 73, 0
14, 115320, Note_on_c, 10, 76, 76
14, 115424, Note_on_c, 10, 76, 0
14, 115440, Note_on_c, 10, 81, 76
14, 115664, Note_on_c, 10, 81, 0
14, 115680, Note_on_c, 10, 73, 76
14, 115784, Note_on_c, 10, 73, 0
14, 115800, Note_on_c, 10, 74, 76
14, 115904, Note_on_c, 10, 74, 0
14, 115920, Note_on_c, 10, 76, 76
14, 116024, Note_on_c, 10, 76, 0
14, 116040, Note_on_c, 10, 74, 76
14, 116144, Note_on_c, 10, 74, 0
14, 116160, Note_on_c, 10, 76, 76
14, 116264, Note_on_c, 10, 76, 0
14, 116280, Note_on_c, 10, 81, 76
14, 116384, Note_on_c, 10, 81, 0
14, 116400, Note_on_c, 10, 76, 76
14, 116504, Note_on_c, 10, 76, 0
14, 116520, Note_on_c, 10, 74, 76
14, 116624, Note_on_c, 10, 74, 0
14, 116640, Note_on_c, 10, 73, 76
14, 116744, Note_on_c, 10, 73, 0
14, 116760, Note_on_c, 10, 74, 76
14, 116864, Note_on_c, 10, 74, 0
14, 116880, Note_on_c, 10, 76, 76
14, 117104, Note_on_c, 10, 76, 0
14, 117120, Note_on_c, 10, 69, 76
14, 117584, Note_on_c, 10, 69, 0
14, 117600, Note_on_c, 10, 74, 76
14, 117704, Note_on_c, 10, 74, 0
14, 117720, Note_on_c, 10, 76, 76
14, 117824, Note_on_c, 10, 76, 0
14, 117840, Note_on_c, 10, 78, 76
14, 117944, Note_on_c, 10, 78, 0
14, 117960, Note_on_c, 10, 76, 76
14, 118064, Note_on_c, 10, 76, 0
14, 118080, Note_on_c, 10, 78, 76
14, 118184, Note_on_c, 10, 78, 0
14, 118200, Note_on_c, 10, 83, 76
14, 118304, Note_on_c, 10, 83, 0
14, 118320, Note_on_c, 10, 78, 76
14, 118424, Note_on_c, 10, 78, 0
14, 118440, Note_on_c, 10, 76, 76
14, 118544, Note_on_c, 10, 76, 0
14, 118560, Note_on_c, 10, 74, 76
14, 118664, Note_on_c, 10, 74, 0
14, 118680, Note_on_c, 10, 76, 76
14, 118784, Note_on_c, 10, 76, 0
14, 118800, Note_on_c, 10, 78, 76
14, 119024, Note_on_c, 10, 78, 0
14, 119040, Note_on_c, 10, 71, 76
14, 119504, Note_on_c, 10, 71, 0
14, 119520, Note_on_c, 10, 83, 76
14, 119624, Note_on_c, 10, 83, 0
14, 119640, Note_on_c, 10, 81, 76
14, 119744, Note_on_c, 10, 81, 0
14, 119760, Note_on_c, 10, 79, 76
14, 119984, Note_on_c, 10, 79, 0
14, 120000, Note_on_c, 10, 73, 76
14, 120464, Note_on_c, 10, 73, 0
14, 120480, Note_on_c, 10, 74, 76
14, 120584, Note_on_c, 10, 74, 0
14, 120600, Note_on_c, 10, 76, 76
14, 120704, Note_on_c, 10, 76, 0
14, 120720, Note_on_c, 10, 70, 76
14, 120944, Note_on_c, 10, 70, 0
14, 120960, Note_on_c, 10, 76, 76
14, 121424, Note_on_c, 10, 76, 0
14, 121440, Note_on_c, 10, 78, 76
14, 121544, Note_on_c, 10, 78, 0
14, 121560, Note_on_c, 10, 79, 76
14, 121664, Note_on_c, 10, 79, 0
14, 121680, Note_on_c, 10, 78, 76
14, 121784, Note_on_c, 10, 78, 0
14, 121800, Note_on_c, 10, 74, 76
14, 121904, Note_on_c, 10, 74, 0
14, 121920, Note_on_c, 10, 76, 76
14, 122144, Note_on_c, 10, 76, 0
14, 122160, Note_on_c, 10, 74, 76
14, 122264, Note_on_c, 10, 74, 0
14, 122280, Note_on_c, 10, 71, 76
14, 122384, Note_on_c, 10, 71, 0
14, 122400, Note_on_c, 10, 73, 76
14, 122624, Note_on_c, 10, 73, 0
14, 122640, Note_on_c, 10, 71, 76
14, 123119, Note_on_c, 10, 71, 0
14, 123360, Note_on_c, 10, 66, 76
14, 123464, Note_on_c, 10, 66, 0
14, 123480, Note_on_c, 10, 64, 76
14, 123584, Note_on_c, 10, 64, 0
14, 123600, Note_on_c, 10, 66, 76
14, 123824, Note_on_c, 10, 66, 0
14, 123840, Note_on_c, 10, 67, 76
14, 124064, Note_on_c, 10, 67, 0
14, 124080, Note_on_c, 10, 67, 76
14, 124184, Note_on_c, 10, 67, 0
14, 124200, Note_on_c, 10, 66, 76
14, 124304, Note_on_c, 10, 66, 0
14, 124320, Note_on_c, 10, 64, 76
14, 124424, Note_on_c, 10, 64, 0
14, 124440, Note_on_c, 10, 62, 76
14, 124544, Note_on_c, 10, 62, 0
14, 124560, Note_on_c, 10, 69, 76
14, 124664, Note_on_c, 10, 69, 0
14, 124680, Note_on_c, 10, 71, 76
14, 124784, Note_on_c, 10, 71, 0
14, 124800, Note_on_c, 10, 72, 76
14, 125279, Note_on_c, 10, 72, 0
14, 126720, Note_on_c, 10, 69, 76
14, 126824, Note_on_c, 10, 69, 0
14, 126840, Note_on_c, 10, 73, 76
14, 126944, Note_on_c, 10, 73, 0
14, 126960, Note_on_c, 10, 76, 76
14, 127184, Note_on_c, 10, 76, 0
14, 127200, Note_on_c, 10, 78, 76
14, 127304, Note_on_c, 10, 78, 0
14, 127320, Note_on_c, 10, 79, 76
14, 127424, Note_on_c, 10, 79, 0
14, 127440, Note_on_c, 10, 81, 76
14, 127544, Note_on_c, 10, 81, 0
14, 127560, Note_on_c, 10, 79, 76
14, 127664, Note_on_c, 10, 79, 0
14, 127680, Note_on_c, 10, 81, 76
14, 127784, Note_on_c, 10, 81, 0
14, 127800, Note_on_c, 10, 84, 76
14, 127904, Note_on_c, 10, 84, 0
14, 127920, Note_on_c, 10, 83, 76
14, 128024, Note_on_c, 10, 83, 0
14, 128040, Note_on_c, 10, 81, 76
14, 128144, Note_on_c, 10, 81, 0
14, 128160, Note_on_c, 10, 79, 76
14, 128264, Note_on_c, 10, 79, 0
14, 128280, Note_on_c, 10, 78, 76
14, 128384, Note_on_c, 10, 78, 0
14, 128400, Note_on_c, 10, 76, 76
14, 128504, Note_on_c, 10, 76, 0
14, 128520, Note_on_c, 10, 78, 76
14, 128624, Note_on_c, 10, 78, 0
14, 128640, Note_on_c, 10, 79, 76
14, 129104, Note_on_c, 10, 79, 0
14, 129120, Note_on_c, 10, 78, 76
14, 129224, Note_on_c, 10, 78, 0
14, 129240, Note_on_c, 10, 76, 76
14, 129344, Note_on_c, 10, 76, 0
14, 129360, Note_on_c, 10, 78, 76
14, 129464, Note_on_c, 10, 78, 0
14, 129480, Note_on_c, 10, 74, 76
14, 129584, Note_on_c, 10, 74, 0
14, 129600, Note_on_c, 10, 76, 76
14, 129824, Note_on_c, 10, 76, 0
14, 129840, Note_on_c, 10, 69, 76
14, 130064, Note_on_c, 10, 69, 0
14, 130080, Note_on_c, 10, 73, 76
14, 130304, Note_on_c, 10, 73, 0
14, 130320, Note_on_c, 10, 74, 76
14, 131024, Note_on_c, 10, 74, 0
14, 131040, Note_on_c, 10, 73, 76
14, 131144, Note_on_c, 10, 73, 0
14, 131160, Note_on_c, 10, 74, 76
14, 131264, Note_on_c, 10, 74, 0
14, 131280, Note_on_c, 10, 76, 76
14, 131384, Note_on_c, 10, 76, 0
14, 131400, Note_on_c, 10, 74, 76
14, 131504, Note_on_c, 10, 74, 0
14, 131520, Note_on_c, 10, 76, 76
14, 131624, Note_on_c, 10, 76, 0
14, 131640, Note_on_c, 10, 81, 76
14, 131744, Note_on_c, 10, 81, 0
14, 131760, Note_on_c, 10, 76, 76
14, 131864, Note_on_c, 10, 76, 0
14, 131880, Note_on_c, 10, 74, 76
14, 131984, Note_on_c, 10, 74, 0
14, 132000, Note_on_c, 10, 73, 76
14, 132104, Note_on_c, 10, 73, 0
14, 132120, Note_on_c, 10, 74, 76
14, 132224, Note_on_c, 10, 74, 0
14, 132240, Note_on_c, 10, 76, 76
14, 132464, Note_on_c, 10, 76, 0
14, 132480, Note_on_c, 10, 69, 76
14, 132944, Note_on_c, 10, 69, 0
14, 132960, Note_on_c, 10, 74, 76
14, 133064, Note_on_c, 10, 74, 0
14, 133080, Note_on_c, 10, 76, 76
14, 133184, Note_on_c, 10, 76, 0
14, 133200, Note_on_c, 10, 78, 76
14, 133304, Note_on_c, 10, 78, 0
14, 133320, Note_on_c, 10, 76, 76
14, 133424, Note_on_c, 10, 76, 0
14, 133440, Note_on_c, 10, 78, 76
14, 133544, Note_on_c, 10, 78, 0
14, 133560, Note_on_c, 10, 83, 76
14, 133664, Note_on_c, 10, 83, 0
14, 133680, Note_on_c, 10, 78, 76
14, 133784, Note_on_c, 10, 78, 0
14, 133800, Note_on_c, 10, 76, 76
14, 133904, Note_on_c, 10, 76, 0
14, 133920, Note_on_c, 10, 74, 76
14, 134024, Note_on_c, 10, 74, 0
14, 134040, Note_on_c, 10, 76, 76
14, 134144, Note_on_c, 10, 76, 0
14, 134160, Note_on_c, 10, 78, 76
14, 134384, Note_on_c, 10, 78, 0
14, 134400, Note_on_c, 10, 71, 76
14, 134864, Note_on_c, 10, 71, 0
14, 134880, Note_on_c, 10, 83, 76
14, 134984, Note_on_c, 10, 83, 0
14, 135000, Note_on_c, 10, 81, 76
14, 135104, Note_on_c, 10, 81, 0
14, 135120, Note_on_c, 10, 79, 76
14, 135344, Note_on_c, 10, 79, 0
14, 135360, Note_on_c, 10, 73, 76
14, 135824, Note_on_c, 10, 73, 0
14, 135840, Note_on_c, 10, 74, 76
14, 135944, Note_on_c, 10, 74, 0
14, 135960, Note_on_c, 10, 76, 76
14, 136064, Note_on_c, 10, 76, 0
14, 136080, Note_on_c, 10, 70, 76
14, 136304, Note_on_c, 10, 70, 0
14, 136320, Note_on_c, 10, 76, 76
14, 136784, Note_on_c, 10, 76, 0
14, 136800, Note_on_c, 10, 78, 76
14, 136904, Note_on_c, 10, 78, 0
14, 136920, Note_on_c, 10, 79, 76
14, 137024, Note_on_c, 10, 79, 0
14, 137040, Note_on_c, 10, 78, 76
14, 137144, Note_on_c, 10, 78, 0
14, 137160, Note_on_c, 10, 74, 76
14, 137264, Note_on_c, 10, 74, 0
14, 137280, Note_on_c, 10, 76, 76
14, 137504, Note_on_c, 10, 76, 0
14, 137520, Note_on_c, 10, 74, 76
14, 137624, Note_on_c, 10, 74, 0
14, 137640, Note_on_c, 10, 71, 76
14, 137744, Note_on_c, 10, 71, 0
14, 137760, Note_on_c, 10, 73, 76
14, 137984, Note_on_c, 10, 73, 0
14, 138000, Note_on_c, 10, 71, 76
14, 138479, Note_on_c, 10, 71, 0
14, 138720, Note_on_c, 10, 66, 76
14, 138824, Note_on_c, 10, 66, 0
14, 138840, Note_on_c, 10, 64, 76
14, 138944, Note_on_c, 10, 64, 0
14, 138960, Note_on_c, 10, 66, 76
14, 139184, Note_on_c, 10, 66, 0
14, 139200, Note_on_c, 10, 67, 76
14, 139424, Note_on_c, 10, 67, 0
14, 139440, Note_on_c, 10, 67, 76
14, 139544, Note_on_c, 10, 67, 0
14, 139560, Note_on_c, 10, 66, 76
14, 139664, Note_on_c, 10, 66, 0
14, 139680, Note_on_c, 10, 64, 76
14, 139784, Note_on_c, 10, 64, 0
14, 139800, Note_on_c, 10, 62, 76
14, 139904, Note_on_c, 10, 62, 0
14, 139920, Note_on_c, 10, 69, 76
14, 140024, Note_on_c, 10, 69, 0
14, 140040, Note_on_c, 10, 71, 76
14, 140144, Note_on_c, 10, 71, 0
14, 140160, Note_on_c, 10, 72, 76
14, 140639, Note_on_c, 10, 72, 0
14, 142080, Note_on_c, 10, 69, 76
14, 142184, Note_on_c, 10, 69, 0
14, 142200, Note_on_c, 10, 73, 76
14, 142304, Note_on_c, 10, 73, 0
14, 142320, Note_on_c, 10, 76, 76
14, 142544, Note_on_c, 10, 76, 0
14, 142560, Note_on_c, 10, 78, 76
14, 142664, Note_on_c, 10, 78, 0
14, 142680, Note_on_c, 10, 79, 76
14, 142784, Note_on_c, 10, 79, 0
14, 142800, Note_on_c, 10, 81, 76
14, 142904, Note_on_c, 10, 81, 0
14, 142920, Note_on_c, 10, 79, 76
14, 143024, Note_on_c, 10, 79, 0
14, 143040, Note_on_c, 10, 81, 76
14, 143144, Note_on_c, 10, 81, 0
14, 143160, Note_on_c, 10, 84, 76
14, 143264, Note_on_c, 10, 84, 0
14, 143280, Note_on_c, 10, 83, 76
14, 143384, Note_on_c, 10, 83, 0
14, 143400, Note_on_c, 10, 81, 76
14, 143504, Note_on_c, 10, 81, 0
14, 143520, Note_on_c, 10, 79, 76
14, 143624, Note_on_c, 10, 79, 0
14, 143640, Note_on_c, 10, 78, 76
14, 143744, Note_on_c, 10, 78, 0
14, 143760, Note_on_c, 10, 76, 76
14, 143864, Note_on_c, 10, 76, 0
14, 143880, Note_on_c, 10, 78, 76
14, 143984, Note_on_c, 10, 78, 0
14, 144000, Note_on_c, 10, 79, 76
14, 144464, Note_on_c, 10, 79, 0
14, 144480, Note_on_c, 10, 78, 76
14, 144584, Note_on_c, 10, 78, 0
14, 144600, Note_on_c, 10, 76, 76
14, 144704, Note_on_c, 10, 76, 0
14, 144720, Note_on_c, 10, 78, 76
14, 144824, Note_on_c, 10, 78, 0
14, 144840, Note_on_c, 10, 74, 76
14, 144944, Note_on_c, 10, 74, 0
14, 144960, Note_on_c, 10, 76, 76
14, 145184, Note_on_c, 10, 76, 0
14, 145200, Note_on_c, 10, 69, 76
14, 145424, Note_on_c, 10, 69, 0
14, 145440, Note_on_c, 10, 73, 76
14, 145664, Note_on_c, 10, 73, 0
14, 145680, Note_on_c, 10, 74, 76
14, 146399, Note_on_c, 10, 74, 0
14, 146399, End_track
15, 0, Start_track
15, 0, Title_t, "Violin II"
15, 0, MIDI_port, 0
15, 0, Program_c, 11, 48
15, 0, Control_c, 11, 10, 24
15, 0, Control_c, 11, 11, 127
15, 0, Control_c, 11, 7, 96
15, 1440, Note_on_c, 11, 69, 76
15, 1544, Note_on_c, 11, 69, 0
15, 1560, Note_on_c, 11, 74, 76
15, 1664, Note_on_c, 11, 74, 0
15, 1680, Note_on_c, 11, 78, 76
15, 1919, Note_on_c, 11, 78, 0
15, 3360, Note_on_c, 11, 69, 76
15, 3464, Note_on_c, 11, 69, 0
15, 3480, Note_on_c, 11, 73, 76
15, 3584, Note_on_c, 11, 73, 0
15, 3600, Note_on_c, 11, 76, 76
15, 3839, Note_on_c, 11, 76, 0
15, 5280, Note_on_c, 11, 71, 76
15, 5384, Note_on_c, 11, 71, 0
15, 5400, Note_on_c, 11, 76, 76
15, 5504, Note_on_c, 11, 76, 0
15, 5520, Note_on_c, 11, 80, 76
15, 5759, Note_on_c, 11, 80, 0
15, 7200, Note_on_c, 11, 69, 76
15, 7304, Note_on_c, 11, 69, 0
15, 7320, Note_on_c, 11, 73, 76
15, 7424, Note_on_c, 11, 73, 0
15, 7440, Note_on_c, 11, 76, 76
15, 7679, Note_on_c, 11, 76, 0
15, 9120, Note_on_c, 11, 69, 76
15, 9224, Note_on_c, 11, 69, 0
15, 9240, Note_on_c, 11, 74, 76
15, 9344, Note_on_c, 11, 74, 0
15, 9360, Note_on_c, 11, 78, 76
15, 9599, Note_on_c, 11, 78, 0
15, 11040, Note_on_c, 11, 69, 76
15, 11144, Note_on_c, 11, 69, 0
15, 11160, Note_on_c, 11, 73, 76
15, 11264, Note_on_c, 11, 73, 0
15, 11280, Note_on_c, 11, 76, 76
15, 11519, Note_on_c, 11, 76, 0
15, 12960, Note_on_c, 11, 71, 76
15, 13064, Note_on_c, 11, 71, 0
15, 13080, Note_on_c, 11, 76, 76
15, 13184, Note_on_c, 11, 76, 0
15, 13200, Note_on_c, 11, 80, 76
15, 13439, Note_on_c, 11, 80, 0
15, 14880, Note_on_c, 11, 69, 76
15, 14984, Note_on_c, 11, 69, 0
15, 15000, Note_on_c, 11, 73, 76
15, 15104, Note_on_c, 11, 73, 0
15, 15120, Note_on_c, 11, 76, 76
15, 15344, Note_on_c, 11, 76, 0
15, 15360, Note_on_c, 11, 69, 76
15, 15464, Note_on_c, 11, 69, 0
15, 15480, Note_on_c, 11, 71, 76
15, 15584, Note_on_c, 11, 71, 0
15, 15600, Note_on_c, 11, 73, 76
15, 15704, Note_on_c, 11, 73, 0
15, 15720, Note_on_c, 11, 71, 76
15, 15824, Note_on_c, 11, 71, 0
15, 15840, Note_on_c, 11, 73, 76
15, 15944, Note_on_c, 11, 73, 0
15, 15960, Note_on_c, 11, 76, 76
15, 16064, Note_on_c, 11, 76, 0
15, 16080, Note_on_c, 11, 73, 76
15, 16184, Note_on_c, 11, 73, 0
15, 16200, Note_on_c, 11, 71, 76
15, 16304, Note_on_c, 11, 71, 0
15, 16320, Note_on_c, 11, 69, 76
15, 16424, Note_on_c, 11, 69, 0
15, 16440, Note_on_c, 11, 71, 76
15, 16544, Note_on_c, 11, 71, 0
15, 16560, Note_on_c, 11, 73, 76
15, 16784, Note_on_c, 11, 73, 0
15, 16800, Note_on_c, 11, 64, 76
15, 17264, Note_on_c, 11, 64, 0
15, 17280, Note_on_c, 11, 66, 76
15, 17384, Note_on_c, 11, 66, 0
15, 17400, Note_on_c, 11, 67, 76
15, 17504, Note_on_c, 11, 67, 0
15, 17520, Note_on_c, 11, 69, 76
15, 17744, Note_on_c, 11, 69, 0
15, 17760, Note_on_c, 11, 74, 76
15, 17984, Note_on_c, 11, 74, 0
15, 18000, Note_on_c, 11, 74, 76
15, 18104, Note_on_c, 11, 74, 0
15, 18120, Note_on_c, 11, 73, 76
15, 18224, Note_on_c, 11, 73, 0
15, 18240, Note_on_c, 11, 71, 76
15, 18344, Note_on_c, 11, 71, 0
15, 18360, Note_on_c, 11, 73, 76
15, 18464, Note_on_c, 11, 73, 0
15, 18480, Note_on_c, 11, 74, 76
15, 18704, Note_on_c, 11, 74, 0
15, 18720, Note_on_c, 11, 66, 76
15, 19184, Note_on_c, 11, 66, 0
15, 19200, Note_on_c, 11, 75, 76
15, 19424, Note_on_c, 11, 75, 0
15, 19440, Note_on_c, 11, 76, 76
15, 19664, Note_on_c, 11, 76, 0
15, 19680, Note_on_c, 11, 67, 76
15, 20144, Note_on_c, 11, 67, 0
15, 20160, Note_on_c, 11, 67, 76
15, 20384, Note_on_c, 11, 67, 0
15, 20400, Note_on_c, 11, 66, 76
15, 20624, Note_on_c, 11, 66, 0
15, 20640, Note_on_c, 11, 73, 76
15, 21104, Note_on_c, 11, 73, 0
15, 21120, Note_on_c, 11, 73, 76
15, 21584, Note_on_c, 11, 73, 0
15, 21600, Note_on_c, 11, 71, 76
15, 22064, Note_on_c, 11, 71, 0
15, 22080, Note_on_c, 11, 70, 76
15, 22304, Note_on_c, 11, 70, 0
15, 22320, Note_on_c, 11, 66, 76
15, 22799, Note_on_c, 11, 66, 0
15, 23040, Note_on_c, 11, 62, 76
15, 23144, Note_on_c, 11, 62, 0
15, 23160, Note_on_c, 11, 61, 76
15, 23264, Note_on_c, 11, 61, 0
15, 23280, Note_on_c, 11, 62, 76
15, 23744, Note_on_c, 11, 62, 0
15, 23760, Note_on_c, 11, 64, 76
15, 24224, Note_on_c, 11, 64, 0
15, 24240, Note_on_c, 11, 66, 76
15, 24344, Note_on_c, 11, 66, 0
15, 24360, Note_on_c, 11, 67, 76
15, 24464, Note_on_c, 11, 67, 0
15, 24480, Note_on_c, 11, 69, 76
15, 24959, Note_on_c, 11, 69, 0
15, 26400, Note_on_c, 11, 64, 76
15, 26504, Note_on_c, 11, 64, 0
15, 26520, Note_on_c, 11, 69, 76
15, 26624, Note_on_c, 11, 69, 0
15, 26640, Note_on_c, 11, 73, 76
15, 26864, Note_on_c, 11, 73, 0
15, 26880, Note_on_c, 11, 73, 76
15, 27104, Note_on_c, 11, 73, 0
15, 27120, Note_on_c, 11, 74, 76
15, 27344, Note_on_c, 11, 74, 0
15, 27360, Note_on_c, 11, 81, 76
15, 27584, Note_on_c, 11, 81, 0
15, 27600, Note_on_c, 11, 79, 76
15, 27704, Note_on_c, 11, 79, 0
15, 27720, Note_on_c, 11, 78, 76
15, 27824, Note_on_c, 11, 78, 0
15, 27840, Note_on_c, 11, 76, 76
15, 27944, Note_on_c, 11, 76, 0
15, 27960, Note_on_c, 11, 74, 76
15, 28064, Note_on_c, 11, 74, 0
15, 28080, Note_on_c, 11, 73, 76
15, 28184, Note_on_c, 11, 73, 0
15, 28200, Note_on_c, 11, 74, 76
15, 28304, Note_on_c, 11, 74, 0
15, 28320, Note_on_c, 11, 76, 76
15, 28784, Note_on_c, 11, 76, 0
15, 28800, Note_on_c, 11, 73, 76
15, 29024, Note_on_c, 11, 73, 0
15, 29040, Note_on_c, 11, 74, 76
15, 29264, Note_on_c, 11, 74, 0
15, 29280, Note_on_c, 11, 71, 76
15, 29504, Note_on_c, 11, 71, 0
15, 29520, Note_on_c, 11, 69, 76
15, 29744, Note_on_c, 11, 69, 0
15, 29760, Note_on_c, 11, 69, 76
15, 29984, Note_on_c, 11, 69, 0
15, 30000, Note_on_c, 11, 69, 76
15, 30704, Note_on_c, 11, 69, 0
15, 30720, Note_on_c, 11, 69, 76
15, 30824, Note_on_c, 11, 69, 0
15, 30840, Note_on_c, 11, 71, 76
15, 30944, Note_on_c, 11, 71, 0
15, 30960, Note_on_c, 11, 73, 76
15, 31064, Note_on_c, 11, 73, 0
15, 31080, Note_on_c, 11, 71, 76
15, 31184, Note_on_c, 11, 71, 0
15, 31200, Note_on_c, 11, 73, 76
15, 31304, Note_on_c, 11, 73, 0
15, 31320, Note_on_c, 11, 76, 76
15, 31424, Note_on_c, 11, 76, 0
15, 31440, Note_on_c, 11, 73, 76
15, 31544, Note_on_c, 11, 73, 0
15, 31560, Note_on_c, 11, 71, 76
15, 31664, Note_on_c, 11, 71, 0
15, 31680, Note_on_c, 11, 69, 76
15, 31784, Note_on_c, 11, 69, 0
15, 31800, Note_on_c, 11, 71, 76
15, 31904, Note_on_c, 11, 71, 0
15, 31920, Note_on_c, 11, 73, 76
15, 32144, Note_on_c, 11, 73, 0
15, 32160, Note_on_c, 11, 64, 76
15, 32624, Note_on_c, 11, 64, 0
15, 32640, Note_on_c, 11, 66, 76
15, 32744, Note_on_c, 11, 66, 0
15, 32760, Note_on_c, 11, 67, 76
15, 32864, Note_on_c, 11, 67, 0
15, 32880, Note_on_c, 11, 69, 76
15, 33104, Note_on_c, 11, 69, 0
15, 33120, Note_on_c, 11, 74, 76
15, 33344, Note_on_c, 11, 74, 0
15, 33360, Note_on_c, 11, 74, 76
15, 33464, Note_on_c, 11, 74, 0
15, 33480, Note_on_c, 11, 73, 76
15, 33584, Note_on_c, 11, 73, 0
15, 33600, Note_on_c, 11, 71, 76
15, 33704, Note_on_c, 11, 71, 0
15, 33720, Note_on_c, 11, 73, 76
15, 33824, Note_on_c, 11, 73, 0
15, 33840, Note_on_c, 11, 74, 76
15, 34064, Note_on_c, 11, 74, 0
15, 34080, Note_on_c, 11, 66, 76
15, 34544, Note_on_c, 11, 66, 0
15, 34560, Note_on_c, 11, 75, 76
15, 34784, Note_on_c, 11, 75, 0
15, 34800, Note_on_c, 11, 76, 76
15, 35024, Note_on_c, 11, 76, 0
15, 35040, Note_on_c, 11, 67, 76
15, 35504, Note_on_c, 11, 67, 0
15, 35520, Note_on_c, 11, 67, 76
15, 35744, Note_on_c, 11, 67, 0
15, 35760, Note_on_c, 11, 66, 76
15, 35984, Note_on_c, 11, 66, 0
15, 36000, Note_on_c, 11, 73, 76
15, 36464, Note_on_c, 11, 73, 0
15, 36480, Note_on_c, 11, 73, 76
15, 36944, Note_on_c, 11, 73, 0
15, 36960, Note_on_c, 11, 71, 76
15, 37424, Note_on_c, 11, 71, 0
15, 37440, Note_on_c, 11, 70, 76
15, 37664, Note_on_c, 11, 70, 0
15, 37680, Note_on_c, 11, 66, 76
15, 38159, Note_on_c, 11, 66, 0
15, 38400, Note_on_c, 11, 62, 76
15, 38504, Note_on_c, 11, 62, 0
15, 38520, Note_on_c, 11, 61, 76
15, 38624, Note_on_c, 11, 61, 0
15, 38640, Note_on_c, 11, 62, 76
15, 39104, Note_on_c, 11, 62, 0
15, 39120, Note_on_c, 11, 64, 76
15, 39584, Note_on_c, 11, 64, 0
15, 39600, Note_on_c, 11, 66, 76
15, 39704, Note_on_c, 11, 66, 0
15, 39720, Note_on_c, 11, 67, 76
15, 39824, Note_on_c, 11, 67, 0
15, 39840, Note_on_c, 11, 69, 76
15, 40319, Note_on_c, 11, 69, 0
15, 41760, Note_on_c, 11, 64, 76
15, 41864, Note_on_c, 11, 64, 0
15, 41880, Note_on_c, 11, 69, 76
15, 41984, Note_on_c, 11, 69, 0
15, 42000, Note_on_c, 11, 73, 76
15, 42224, Note_on_c, 11, 73, 0
15, 42240, Note_on_c, 11, 73, 76
15, 42464, Note_on_c, 11, 73, 0
15, 42480, Note_on_c, 11, 74, 76
15, 42704, Note_on_c, 11, 74, 0
15, 42720, Note_on_c, 11, 81, 76
15, 42944, Note_on_c, 11, 81, 0
15, 42960, Note_on_c, 11, 79, 76
15, 43064, Note_on_c, 11, 79, 0
15, 43080, Note_on_c, 11, 78, 76
15, 43184, Note_on_c, 11, 78, 0
15, 43200, Note_on_c, 11, 76, 76
15, 43304, Note_on_c, 11, 76, 0
15, 43320, Note_on_c, 11, 74, 76
15, 43424, Note_on_c, 11, 74, 0
15, 43440, Note_on_c, 11, 73, 76
15, 43544, Note_on_c, 11, 73, 0
15, 43560, Note_on_c, 11, 74, 76
15, 43664, Note_on_c, 11, 74, 0
15, 43680, Note_on_c, 11, 76, 76
15, 44144, Note_on_c, 11, 76, 0
15, 44160, Note_on_c, 11, 73, 76
15, 44384, Note_on_c, 11, 73, 0
15, 44400, Note_on_c, 11, 74, 76
15, 44624, Note_on_c, 11, 74, 0
15, 44640, Note_on_c, 11, 71, 76
15, 44864, Note_on_c, 11, 71, 0
15, 44880, Note_on_c, 11, 69, 76
15, 45104, Note_on_c, 11, 69, 0
15, 45120, Note_on_c, 11, 69, 76
15, 45344, Note_on_c, 11, 69, 0
15, 45360, Note_on_c, 11, 69, 76
15, 46064, Note_on_c, 11, 69, 0
15, 46800, Note_on_c, 11, 66, 76
15, 46859, Note_on_c, 11, 66, 0
15, 46860, Note_on_c, 11, 64, 76
15, 46919, Note_on_c, 11, 64, 0
15, 46920, Note_on_c, 11, 62, 76
15, 46979, Note_on_c, 11, 62, 0
15, 46980, Note_on_c, 11, 64, 76
15, 47031, Note_on_c, 11, 64, 0
15, 47040, Note_on_c, 11, 66, 76
15, 47279, Note_on_c, 11, 66, 0
15, 47760, Note_on_c, 11, 66, 76
15, 47819, Note_on_c, 11, 66, 0
15, 47820, Note_on_c, 11, 64, 76
15, 47879, Note_on_c, 11, 64, 0
15, 47880, Note_on_c, 11, 62, 76
15, 47939, Note_on_c, 11, 62, 0
15, 47940, Note_on_c, 11, 64, 76
15, 47991, Note_on_c, 11, 64, 0
15, 48000, Note_on_c, 11, 66, 76
15, 48239, Note_on_c, 11, 66, 0
15, 49680, Note_on_c, 11, 66, 76
15, 49739, Note_on_c, 11, 66, 0
15, 49740, Note_on_c, 11, 64, 76
15, 49799, Note_on_c, 11, 64, 0
15, 49800, Note_on_c, 11, 62, 76
15, 49859, Note_on_c, 11, 62, 0
15, 49860, Note_on_c, 11, 64, 76
15, 49911, Note_on_c, 11, 64, 0
15, 49920, Note_on_c, 11, 66, 76
15, 50159, Note_on_c, 11, 66, 0
15, 50640, Note_on_c, 11, 66, 76
15, 50699, Note_on_c, 11, 66, 0
15, 50700, Note_on_c, 11, 64, 76
15, 50759, Note_on_c, 11, 64, 0
15, 50760, Note_on_c, 11, 62, 76
15, 50819, Note_on_c, 11, 62, 0
15, 50820, Note_on_c, 11, 64, 76
15, 50871, Note_on_c, 11, 64, 0
15, 50880, Note_on_c, 11, 66, 76
15, 51119, Note_on_c, 11, 66, 0
15, 51600, Note_on_c, 11, 66, 76
15, 51659, Note_on_c, 11, 66, 0
15, 51660, Note_on_c, 11, 64, 76
15, 51719, Note_on_c, 11, 64, 0
15, 51720, Note_on_c, 11, 62, 76
15, 51779, Note_on_c, 11, 62, 0
15, 51780, Note_on_c, 11, 64, 76
15, 51831, Note_on_c, 11, 64, 0
15, 51840, Note_on_c, 11, 66, 76
15, 52079, Note_on_c, 11, 66, 0
15, 52560, Note_on_c, 11, 64, 76
15, 52619, Note_on_c, 11, 64, 0
15, 52620, Note_on_c, 11, 62, 76
15, 52679, Note_on_c, 11, 62, 0
15, 52680, Note_on_c, 11, 61, 76
15, 52739, Note_on_c, 11, 61, 0
15, 52740, Note_on_c, 11, 62, 76
15, 52791, Note_on_c, 11, 62, 0
15, 52800, Note_on_c, 11, 64, 76
15, 53039, Note_on_c, 11, 64, 0
15, 53520, Note_on_c, 11, 62, 76
15, 53579, Note_on_c, 11, 62, 0
15, 53580, Note_on_c, 11, 61, 76
15, 53639, Note_on_c, 11, 61, 0
15, 53640, Note_on_c, 11, 59, 76
15, 53699, Note_on_c, 11, 59, 0
15, 53700, Note_on_c, 11, 61, 76
15, 53751, Note_on_c, 11, 61, 0
15, 53760, Note_on_c, 11, 62, 76
15, 53999, Note_on_c, 11, 62, 0
15, 54480, Note_on_c, 11, 62, 76
15, 54539, Note_on_c, 11, 62, 0
15, 54540, Note_on_c, 11, 61, 76
15, 54599, Note_on_c, 11, 61, 0
15, 54600, Note_on_c, 11, 59, 76
15, 54659, Note_on_c, 11, 59, 0
15, 54660, Note_on_c, 11, 61, 76
15, 54711, Note_on_c, 11, 61, 0
15, 54720, Note_on_c, 11, 62, 76
15, 54959, Note_on_c, 11, 62, 0
15, 55440, Note_on_c, 11, 61, 76
15, 55499, Note_on_c, 11, 61, 0
15, 55500, Note_on_c, 11, 59, 76
15, 55559, Note_on_c, 11, 59, 0
15, 55560, Note_on_c, 11, 57, 76
15, 55619, Note_on_c, 11, 57, 0
15, 55620, Note_on_c, 11, 59, 76
15, 55671, Note_on_c, 11, 59, 0
15, 55680, Note_on_c, 11, 61, 76
15, 55919, Note_on_c, 11, 61, 0
15, 57360, Note_on_c, 11, 61, 76
15, 57419, Note_on_c, 11, 61, 0
15, 57420, Note_on_c, 11, 59, 76
15, 57479, Note_on_c, 11, 59, 0
15, 57480, Note_on_c, 11, 58, 76
15, 57539, Note_on_c, 11, 58, 0
15, 57540, Note_on_c, 11, 59, 76
15, 57591, Note_on_c, 11, 59, 0
15, 57600, Note_on_c, 11, 61, 76
15, 57839, Note_on_c, 11, 61, 0
15, 58320, Note_on_c, 11, 66, 76
15, 58379, Note_on_c, 11, 66, 0
15, 58380, Note_on_c, 11, 64, 76
15, 58439, Note_on_c, 11, 64, 0
15, 58440, Note_on_c, 11, 62, 76
15, 58499, Note_on_c, 11, 62, 0
15, 58500, Note_on_c, 11, 64, 76
15, 58551, Note_on_c, 11, 64, 0
15, 58560, Note_on_c, 11, 66, 76
15, 58799, Note_on_c, 11, 66, 0
15, 59280, Note_on_c, 11, 66, 76
15, 59339, Note_on_c, 11, 66, 0
15, 59340, Note_on_c, 11, 64, 76
15, 59399, Note_on_c, 11, 64, 0
15, 59400, Note_on_c, 11, 62, 76
15, 59459, Note_on_c, 11, 62, 0
15, 59460, Note_on_c, 11, 64, 76
15, 59511, Note_on_c, 11, 64, 0
15, 59520, Note_on_c, 11, 66, 76
15, 59759, Note_on_c, 11, 66, 0
15, 61200, Note_on_c, 11, 66, 76
15, 61259, Note_on_c, 11, 66, 0
15, 61260, Note_on_c, 11, 64, 76
15, 61319, Note_on_c, 11, 64, 0
15, 61320, Note_on_c, 11, 62, 76
15, 61379, Note_on_c, 11, 62, 0
15, 61380, Note_on_c, 11, 64, 76
15, 61431, Note_on_c, 11, 64, 0
15, 61440, Note_on_c, 11, 66, 76
15, 61679, Note_on_c, 11, 66, 0
15, 62160, Note_on_c, 11, 66, 76
15, 62219, Note_on_c, 11, 66, 0
15, 62220, Note_on_c, 11, 64, 76
15, 62279, Note_on_c, 11, 64, 0
15, 62280, Note_on_c, 11, 62, 76
15, 62339, Note_on_c, 11, 62, 0
15, 62340, Note_on_c, 11, 64, 76
15, 62391, Note_on_c, 11, 64, 0
15, 62400, Note_on_c, 11, 66, 76
15, 62639, Note_on_c, 11, 66, 0
15, 63120, Note_on_c, 11, 66, 76
15, 63179, Note_on_c, 11, 66, 0
15, 63180, Note_on_c, 11, 64, 76
15, 63239, Note_on_c, 11, 64, 0
15, 63240, Note_on_c, 11, 62, 76
15, 63299, Note_on_c, 11, 62, 0
15, 63300, Note_on_c, 11, 64, 76
15, 63351, Note_on_c, 11, 64, 0
15, 63360, Note_on_c, 11, 66, 76
15, 63599, Note_on_c, 11, 66, 0
15, 64080, Note_on_c, 11, 64, 76
15, 64139, Note_on_c, 11, 64, 0
15, 64140, Note_on_c, 11, 62, 76
15, 64199, Note_on_c, 11, 62, 0
15, 64200, Note_on_c, 11, 61, 76
15, 64259, Note_on_c, 11, 61, 0
15, 64260, Note_on_c, 11, 62, 76
15, 64311, Note_on_c, 11, 62, 0
15, 64320, Note_on_c, 11, 64, 76
15, 64559, Note_on_c, 11, 64, 0
15, 65040, Note_on_c, 11, 62, 76
15, 65099, Note_on_c, 11, 62, 0
15, 65100, Note_on_c, 11, 61, 76
15, 65159, Note_on_c, 11, 61, 0
15, 65160, Note_on_c, 11, 59, 76
15, 65219, Note_on_c, 11, 59, 0
15, 65220, Note_on_c, 11, 61, 76
15, 65271, Note_on_c, 11, 61, 0
15, 65280, Note_on_c, 11, 62, 76
15, 65519, Note_on_c, 11, 62, 0
15, 66000, Note_on_c, 11, 62, 76
15, 66059, Note_on_c, 11, 62, 0
15, 66060, Note_on_c, 11, 61, 76
15, 66119, Note_on_c, 11, 61, 0
15, 66120, Note_on_c, 11, 59, 76
15, 66179, Note_on_c, 11, 59, 0
15, 66180, Note_on_c, 11, 61, 76
15, 66231, Note_on_c, 11, 61, 0
15, 66240, Note_on_c, 11, 62, 76
15, 66479, Note_on_c, 11, 62, 0
15, 66960, Note_on_c, 11, 61, 76
15, 67019, Note_on_c, 11, 61, 0
15, 67020, Note_on_c, 11, 59, 76
15, 67079, Note_on_c, 11, 59, 0
15, 67080, Note_on_c, 11, 57, 76
15, 67139, Note_on_c, 11, 57, 0
15, 67140, Note_on_c, 11, 59, 76
15, 67191, Note_on_c, 11, 59, 0
15, 67200, Note_on_c, 11, 61, 76
15, 67439, Note_on_c, 11, 61, 0
15, 68880, Note_on_c, 11, 61, 76
15, 68939, Note_on_c, 11, 61, 0
15, 68940, Note_on_c, 11, 59, 76
15, 68999, Note_on_c, 11, 59, 0
15, 69000, Note_on_c, 11, 58, 76
15, 69059, Note_on_c, 11, 58, 0
15, 69060, Note_on_c, 11, 59, 76
15, 69111, Note_on_c, 11, 59, 0
15, 69120, Note_on_c, 11, 61, 76
15, 69359, Note_on_c, 11, 61, 0
15, 69840, Note_on_c, 11, 66, 76
15, 69899, Note_on_c, 11, 66, 0
15, 69900, Note_on_c, 11, 64, 76
15, 69959, Note_on_c, 11, 64, 0
15, 69960, Note_on_c, 11, 63, 76
15, 70019, Note_on_c, 11, 63, 0
15, 70020, Note_on_c, 11, 64, 76
15, 70071, Note_on_c, 11, 64, 0
15, 70080, Note_on_c, 11, 66, 76
15, 70319, Note_on_c, 11, 66, 0
15, 70800, Note_on_c, 11, 59, 76
15, 70859, Note_on_c, 11, 59, 0
15, 70860, Note_on_c, 11, 57, 76
15, 70919, Note_on_c, 11, 57, 0
15, 70920, Note_on_c, 11, 55, 76
15, 70979, Note_on_c, 11, 55, 0
15, 70980, Note_on_c, 11, 57, 76
15, 71031, Note_on_c, 11, 57, 0
15, 71040, Note_on_c, 11, 59, 76
15, 71279, Note_on_c, 11, 59, 0
15, 72720, Note_on_c, 11, 66, 76
15, 72779, Note_on_c, 11, 66, 0
15, 72780, Note_on_c, 11, 64, 76
15, 72839, Note_on_c, 11, 64, 0
15, 72840, Note_on_c, 11, 63, 76
15, 72899, Note_on_c, 11, 63, 0
15, 72900, Note_on_c, 11, 64, 76
15, 72951, Note_on_c, 11, 64, 0
15, 72960, Note_on_c, 11, 66, 76
15, 73199, Note_on_c, 11, 66, 0
15, 73680, Note_on_c, 11, 59, 76
15, 73739, Note_on_c, 11, 59, 0
15, 73740, Note_on_c, 11, 57, 76
15, 73799, Note_on_c, 11, 57, 0
15, 73800, Note_on_c, 11, 56, 76
15, 73859, Note_on_c, 11, 56, 0
15, 73860, Note_on_c, 11, 57, 76
15, 73911, Note_on_c, 11, 57, 0
15, 73920, Note_on_c, 11, 59, 76
15, 74159, Note_on_c, 11, 59, 0
15, 74640, Note_on_c, 11, 66, 76
15, 74699, Note_on_c, 11, 66, 0
15, 74700, Note_on_c, 11, 64, 76
15, 74759, Note_on_c, 11, 64, 0
15, 74760, Note_on_c, 11, 63, 76
15, 74819, Note_on_c, 11, 63, 0
15, 74820, Note_on_c, 11, 64, 76
15, 74871, Note_on_c, 11, 64, 0
15, 74880, Note_on_c, 11, 66, 76
15, 75119, Note_on_c, 11, 66, 0
15, 76560, Note_on_c, 11, 67, 76
15, 76619, Note_on_c, 11, 67, 0
15, 76620, Note_on_c, 11, 66, 76
15, 76679, Note_on_c, 11, 66, 0
15, 76680, Note_on_c, 11, 64, 76
15, 76739, Note_on_c, 11, 64, 0
15, 76740, Note_on_c, 11, 66, 76
15, 76791, Note_on_c, 11, 66, 0
15, 76800, Note_on_c, 11, 67, 76
15, 77039, Note_on_c, 11, 67, 0
15, 77520, Note_on_c, 11, 67, 76
15, 77579, Note_on_c, 11, 67, 0
15, 77580, Note_on_c, 11, 66, 76
15, 77639, Note_on_c, 11, 66, 0
15, 77640, Note_on_c, 11, 64, 76
15, 77699, Note_on_c, 11, 64, 0
15, 77700, Note_on_c, 11, 66, 76
15, 77751, Note_on_c, 11, 66, 0
15, 77760, Note_on_c, 11, 67, 76
15, 77999, Note_on_c, 11, 67, 0
15, 78480, Note_on_c, 11, 66, 76
15, 78539, Note_on_c, 11, 66, 0
15, 78540, Note_on_c, 11, 64, 76
15, 78599, Note_on_c, 11, 64, 0
15, 78600, Note_on_c, 11, 62, 76
15, 78659, Note_on_c, 11, 62, 0
15, 78660, Note_on_c, 11, 64, 76
15, 78711, Note_on_c, 11, 64, 0
15, 78720, Note_on_c, 11, 66, 76
15, 78959, Note_on_c, 11, 66, 0
15, 80400, Note_on_c, 11, 66, 76
15, 80459, Note_on_c, 11, 66, 0
15, 80460, Note_on_c, 11, 64, 76
15, 80519, Note_on_c, 11, 64, 0
15, 80520, Note_on_c, 11, 62, 76
15, 80579, Note_on_c, 11, 62, 0
15, 80580, Note_on_c, 11, 64, 76
15, 80631, Note_on_c, 11, 64, 0
15, 80640, Note_on_c, 11, 66, 76
15, 80879, Note_on_c, 11, 66, 0
15, 81360, Note_on_c, 11, 64, 76
15, 81419, Note_on_c, 11, 64, 0
15, 81420, Note_on_c, 11, 62, 76
15, 81479, Note_on_c, 11, 62, 0
15, 81480, Note_on_c, 11, 61, 76
15, 81539, Note_on_c, 11, 61, 0
15, 81540, Note_on_c, 11, 62, 76
15, 81591, Note_on_c, 11, 62, 0
15, 81600, Note_on_c, 11, 64, 76
15, 81839, Note_on_c, 11, 64, 0
15, 82320, Note_on_c, 11, 61, 76
15, 82379, Note_on_c, 11, 61, 0
15, 82380, Note_on_c, 11, 59, 76
15, 82439, Note_on_c, 11, 59, 0
15, 82440, Note_on_c, 11, 58, 76
15, 82499, Note_on_c, 11, 58, 0
15, 82500, Note_on_c, 11, 59, 76
15, 82551, Note_on_c, 11, 59, 0
15, 82560, Note_on_c, 11, 61, 76
15, 82799, Note_on_c, 11, 61, 0
15, 84240, Note_on_c, 11, 62, 76
15, 84299, Note_on_c, 11, 62, 0
15, 84300, Note_on_c, 11, 61, 76
15, 84359, Note_on_c, 11, 61, 0
15, 84360, Note_on_c, 11, 59, 76
15, 84419, Note_on_c, 11, 59, 0
15, 84420, Note_on_c, 11, 61, 76
15, 84471, Note_on_c, 11, 61, 0
15, 84480, Note_on_c, 11, 62, 76
15, 84719, Note_on_c, 11, 62, 0
15, 85200, Note_on_c, 11, 66, 76
15, 85259, Note_on_c, 11, 66, 0
15, 85260, Note_on_c, 11, 64, 76
15, 85319, Note_on_c, 11, 64, 0
15, 85320, Note_on_c, 11, 63, 76
15, 85379, Note_on_c, 11, 63, 0
15, 85380, Note_on_c, 11, 64, 76
15, 85431, Note_on_c, 11, 64, 0
15, 85440, Note_on_c, 11, 66, 76
15, 85679, Note_on_c, 11, 66, 0
15, 86160, Note_on_c, 11, 59, 76
15, 86219, Note_on_c, 11, 59, 0
15, 86220, Note_on_c, 11, 57, 76
15, 86279, Note_on_c, 11, 57, 0
15, 86280, Note_on_c, 11, 55, 76
15, 86339, Note_on_c, 11, 55, 0
15, 86340, Note_on_c, 11, 57, 76
15, 86391, Note_on_c, 11, 57, 0
15, 86400, Note_on_c, 11, 59, 76
15, 86639, Note_on_c, 11, 59, 0
15, 88080, Note_on_c, 11, 66, 76
15, 88139, Note_on_c, 11, 66, 0
15, 88140, Note_on_c, 11, 64, 76
15, 88199, Note_on_c, 11, 64, 0
15, 88200, Note_on_c, 11, 63, 76
15, 88259, Note_on_c, 11, 63, 0
15, 88260, Note_on_c, 11, 64, 76
15, 88311, Note_on_c, 11, 64, 0
15, 88320, Note_on_c, 11, 66, 76
15, 88559, Note_on_c, 11, 66, 0
15, 89040, Note_on_c, 11, 59, 76
15, 89099, Note_on_c, 11, 59, 0
15, 89100, Note_on_c, 11, 57, 76
15, 89159, Note_on_c, 11, 57, 0
15, 89160, Note_on_c, 11, 56, 76
15, 89219, Note_on_c, 11, 56, 0
15, 89220, Note_on_c, 11, 57, 76
15, 89271, Note_on_c, 11, 57, 0
15, 89280, Note_on_c, 11, 59, 76
15, 89519, Note_on_c, 11, 59, 0
15, 90000, Note_on_c, 11, 66, 76
15, 90059, Note_on_c, 11, 66, 0
15, 90060, Note_on_c, 11, 64, 76
15, 90119, Note_on_c, 11, 64, 0
15, 90120, Note_on_c, 11, 63, 76
15, 90179, Note_on_c, 11, 63, 0
15, 90180, Note_on_c, 11, 64, 76
15, 90231, Note_on_c, 11, 64, 0
15, 90240, Note_on_c, 11, 66, 76
15, 90479, Note_on_c, 11, 66, 0
15, 91920, Note_on_c, 11, 67, 76
15, 91979, Note_on_c, 11, 67, 0
15, 91980, Note_on_c, 11, 66, 76
15, 92039, Note_on_c, 11, 66, 0
15, 92040, Note_on_c, 11, 64, 76
15, 92099, Note_on_c, 11, 64, 0
15, 92100, Note_on_c, 11, 66, 76
15, 92151, Note_on_c, 11, 66, 0
15, 92160, Note_on_c, 11, 67, 76
15, 92399, Note_on_c, 11, 67, 0
15, 92880, Note_on_c, 11, 67, 76
15, 92939, Note_on_c, 11, 67, 0
15, 92940, Note_on_c, 11, 66, 76
15, 92999, Note_on_c, 11, 66, 0
15, 93000, Note_on_c, 11, 64, 76
15, 93059, Note_on_c, 11, 64, 0
15, 93060, Note_on_c, 11, 66, 76
15, 93111, Note_on_c, 11, 66, 0
15, 93120, Note_on_c, 11, 67, 76
15, 93359, Note_on_c, 11, 67, 0
15, 93840, Note_on_c, 11, 66, 76
15, 93899, Note_on_c, 11, 66, 0
15, 93900, Note_on_c, 11, 64, 76
15, 93959, Note_on_c, 11, 64, 0
15, 93960, Note_on_c, 11, 62, 76
15, 94019, Note_on_c, 11, 62, 0
15, 94020, Note_on_c, 11, 64, 76
15, 94071, Note_on_c, 11, 64, 0
15, 94080, Note_on_c, 11, 66, 76
15, 94319, Note_on_c, 11, 66, 0
15, 95760, Note_on_c, 11, 66, 76
15, 95819, Note_on_c, 11, 66, 0
15, 95820, Note_on_c, 11, 64, 76
15, 95879, Note_on_c, 11, 64, 0
15, 95880, Note_on_c, 11, 62, 76
15, 95939, Note_on_c, 11, 62, 0
15, 95940, Note_on_c, 11, 64, 76
15, 95991, Note_on_c, 11, 64, 0
15, 96000, Note_on_c, 11, 66, 76
15, 96239, Note_on_c, 11, 66, 0
15, 96720, Note_on_c, 11, 64, 76
15, 96779, Note_on_c, 11, 64, 0
15, 96780, Note_on_c, 11, 62, 76
15, 96839, Note_on_c, 11, 62, 0
15, 96840, Note_on_c, 11, 61, 76
15, 96899, Note_on_c, 11, 61, 0
15, 96900, Note_on_c, 11, 62, 76
15, 96951, Note_on_c, 11, 62, 0
15, 96960, Note_on_c, 11, 64, 76
15, 97199, Note_on_c, 11, 64, 0
15, 97680, Note_on_c, 11, 61, 76
15, 97739, Note_on_c, 11, 61, 0
15, 97740, Note_on_c, 11, 59, 76
15, 97799, Note_on_c, 11, 59, 0
15, 97800, Note_on_c, 11, 58, 76
15, 97859, Note_on_c, 11, 58, 0
15, 97860, Note_on_c, 11, 59, 76
15, 97911, Note_on_c, 11, 59, 0
15, 97920, Note_on_c, 11, 61, 76
15, 98159, Note_on_c, 11, 61, 0
15, 99600, Note_on_c, 11, 62, 76
15, 99659, Note_on_c, 11, 62, 0
15, 99660, Note_on_c, 11, 61, 76
15, 99719, Note_on_c, 11, 61, 0
15, 99720, Note_on_c, 11, 59, 76
15, 99779, Note_on_c, 11, 59, 0
15, 99780, Note_on_c, 11, 61, 76
15, 99831, Note_on_c, 11, 61, 0
15, 99840, Note_on_c, 11, 62, 76
15, 100079, Note_on_c, 11, 62, 0
15, 101760, Note_on_c, 11, 69, 76
15, 101864, Note_on_c, 11, 69, 0
15, 101880, Note_on_c, 11, 74, 76
15, 101984, Note_on_c, 11, 74, 0
15, 102000, Note_on_c, 11, 78, 76
15, 102239, Note_on_c, 11, 78, 0
15, 103680, Note_on_c, 11, 69, 76
15, 103784, Note_on_c, 11, 69, 0
15, 103800, Note_on_c, 11, 73, 76
15, 103904, Note_on_c, 11, 73, 0
15, 103920, Note_on_c, 11, 76, 76
15, 104159, Note_on_c, 11, 76, 0
15, 105600, Note_on_c, 11, 71, 76
15, 105704, Note_on_c, 11, 71, 0
15, 105720, Note_on_c, 11, 76, 76
15, 105824, Note_on_c, 11, 76, 0
15, 105840, Note_on_c, 11, 80, 76
15, 106079, Note_on_c, 11, 80, 0
15, 107520, Note_on_c, 11, 69, 76
15, 107624, Note_on_c, 11, 69, 0
15, 107640, Note_on_c, 11, 73, 76
15, 107744, Note_on_c, 11, 73, 0
15, 107760, Note_on_c, 11, 76, 76
15, 107999, Note_on_c, 11, 76, 0
15, 109440, Note_on_c, 11, 69, 76
15, 109544, Note_on_c, 11, 69, 0
15, 109560, Note_on_c, 11, 74, 76
15, 109664, Note_on_c, 11, 74, 0
15, 109680, Note_on_c, 11, 78, 76
15, 109919, Note_on_c, 11, 78, 0
15, 111360, Note_on_c, 11, 69, 76
15, 111464, Note_on_c, 11, 69, 0
15, 111480, Note_on_c, 11, 73, 76
15, 111584, Note_on_c, 11, 73, 0
15, 111600, Note_on_c, 11, 76, 76
15, 111839, Note_on_c, 11, 76, 0
15, 113280, Note_on_c, 11, 71, 76
15, 113384, Note_on_c, 11, 71, 0
15, 113400, Note_on_c, 11, 76, 76
15, 113504, Note_on_c, 11, 76, 0
15, 113520, Note_on_c, 11, 80, 76
15, 113759, Note_on_c, 11, 80, 0
15, 115200, Note_on_c, 11, 69, 76
15, 115304, Note_on_c, 11, 69, 0
15, 115320, Note_on_c, 11, 73, 76
15, 115424, Note_on_c, 11, 73, 0
15, 115440, Note_on_c, 11, 76, 76
15, 115664, Note_on_c, 11, 76, 0
15, 115680, Note_on_c, 11, 69, 76
15, 115784, Note_on_c, 11, 69, 0
15, 115800, Note_on_c, 11, 71, 76
15, 115904, Note_on_c, 11, 71, 0
15, 115920, Note_on_c, 11, 73, 76
15, 116024, Note_on_c, 11, 73, 0
15, 116040, Note_on_c, 11, 71, 76
15, 116144, Note_on_c, 11, 71, 0
15, 116160, Note_on_c, 11, 73, 76
15, 116264, Note_on_c, 11, 73, 0
15, 116280, Note_on_c, 11, 76, 76
15, 116384, Note_on_c, 11, 76, 0
15, 116400, Note_on_c, 11, 73, 76
15, 116504, Note_on_c, 11, 73, 0
15, 116520, Note_on_c, 11, 71, 76
15, 116624, Note_on_c, 11, 71, 0
15, 116640, Note_on_c, 11, 69, 76
15, 116744, Note_on_c, 11, 69, 0
15, 116760, Note_on_c, 11, 71, 76
15, 116864, Note_on_c, 11, 71, 0
15, 116880, Note_on_c, 11, 73, 76
15, 117104, Note_on_c, 11, 73, 0
15, 117120, Note_on_c, 11, 64, 76
15, 117584, Note_on_c, 11, 64, 0
15, 117600, Note_on_c, 11, 66, 76
15, 117704, Note_on_c, 11, 66, 0
15, 117720, Note_on_c, 11, 67, 76
15, 117824, Note_on_c, 11, 67, 0
15, 117840, Note_on_c, 11, 69, 76
15, 118064, Note_on_c, 11, 69, 0
15, 118080, Note_on_c, 11, 74, 76
15, 118304, Note_on_c, 11, 74, 0
15, 118320, Note_on_c, 11, 74, 76
15, 118424, Note_on_c, 11, 74, 0
15, 118440, Note_on_c, 11, 73, 76
15, 118544, Note_on_c, 11, 73, 0
15, 118560, Note_on_c, 11, 71, 76
15, 118664, Note_on_c, 11, 71, 0
15, 118680, Note_on_c, 11, 73, 76
15, 118784, Note_on_c, 11, 73, 0
15, 118800, Note_on_c, 11, 74, 76
15, 119024, Note_on_c, 11, 74, 0
15, 119040, Note_on_c, 11, 66, 76
15, 119504, Note_on_c, 11, 66, 0
15, 119520, Note_on_c, 11, 75, 76
15, 119744, Note_on_c, 11, 75, 0
15, 119760, Note_on_c, 11, 76, 76
15, 119984, Note_on_c, 11, 76, 0
15, 120000, Note_on_c, 11, 67, 76
15, 120464, Note_on_c, 11, 67, 0
15, 120480, Note_on_c, 11, 67, 76
15, 120704, Note_on_c, 11, 67, 0
15, 120720, Note_on_c, 11, 66, 76
15, 120944, Note_on_c, 11, 66, 0
15, 120960, Note_on_c, 11, 73, 76
15, 121424, Note_on_c, 11, 73, 0
15, 121440, Note_on_c, 11, 73, 76
15, 121904, Note_on_c, 11, 73, 0
15, 121920, Note_on_c, 11, 71, 76
15, 122384, Note_on_c, 11, 71, 0
15, 122400, Note_on_c, 11, 70, 76
15, 122624, Note_on_c, 11, 70, 0
15, 122640, Note_on_c, 11, 66, 76
15, 123119, Note_on_c, 11, 66, 0
15, 123360, Note_on_c, 11, 62, 76
15, 123464, Note_on_c, 11, 62, 0
15, 123480, Note_on_c, 11, 61, 76
15, 123584, Note_on_c, 11, 61, 0
15, 123600, Note_on_c, 11, 62, 76
15, 124064, Note_on_c, 11, 62, 0
15, 124080, Note_on_c, 11, 64, 76
15, 124544, Note_on_c, 11, 64, 0
15, 124560, Note_on_c, 11, 66, 76
15, 124664, Note_on_c, 11, 66, 0
15, 124680, Note_on_c, 11, 67, 76
15, 124784, Note_on_c, 11, 67, 0
15, 124800, Note_on_c, 11, 69, 76
15, 125279, Note_on_c, 11, 69, 0
15, 126720, Note_on_c, 11, 64, 76
15, 126824, Note_on_c, 11, 64, 0
15, 126840, Note_on_c, 11, 69, 76
15, 126944, Note_on_c, 11, 69, 0
15, 126960, Note_on_c, 11, 73, 76
15, 127184, Note_on_c, 11, 73, 0
15, 127200, Note_on_c, 11, 73, 76
15, 127424, Note_on_c, 11, 73, 0
15, 127440, Note_on_c, 11, 74, 76
15, 127664, Note_on_c, 11, 74, 0
15, 127680, Note_on_c, 11, 81, 76
15, 127904, Note_on_c, 11, 81, 0
15, 127920, Note_on_c, 11, 79, 76
15, 128024, Note_on_c, 11, 79, 0
15, 128040, Note_on_c, 11, 78, 76
15, 128144, Note_on_c, 11, 78, 0
15, 128160, Note_on_c, 11, 76, 76
15, 128264, Note_on_c, 11, 76, 0
15, 128280, Note_on_c, 11, 74, 76
15, 128384, Note_on_c, 11, 74, 0
15, 128400, Note_on_c, 11, 73, 76
15, 128504, Note_on_c, 11, 73, 0
15, 128520, Note_on_c, 11, 74, 76
15, 128624, Note_on_c, 11, 74, 0
15, 128640, Note_on_c, 11, 76, 76
15, 129104, Note_on_c, 11, 76, 0
15, 129120, Note_on_c, 11, 73, 76
15, 129344, Note_on_c, 11, 73, 0
15, 129360, Note_on_c, 11, 74, 76
15, 129584, Note_on_c, 11, 74, 0
15, 129600, Note_on_c, 11, 71, 76
15, 129824, Note_on_c, 11, 71, 0
15, 129840, Note_on_c, 11, 69, 76
15, 130064, Note_on_c, 11, 69, 0
15, 130080, Note_on_c, 11, 69, 76
15, 130304, Note_on_c, 11, 69, 0
15, 130320, Note_on_c, 11, 69, 76
15, 131024, Note_on_c, 11, 69, 0
15, 131040, Note_on_c, 11, 69, 76
15, 131144, Note_on_c, 11, 69, 0
15, 131160, Note_on_c, 11, 71, 76
15, 131264, Note_on_c, 11, 71, 0
15, 131280, Note_on_c, 11, 73, 76
15, 131384, Note_on_c, 11, 73, 0
15, 131400, Note_on_c, 11, 71, 76
15, 131504, Note_on_c, 11, 71, 0
15, 131520, Note_on_c, 11, 73, 76
15, 131624, Note_on_c, 11, 73, 0
15, 131640, Note_on_c, 11, 76, 76
15, 131744, Note_on_c, 11, 76, 0
15, 131760, Note_on_c, 11, 73, 76
15, 131864, Note_on_c, 11, 73, 0
15, 131880, Note_on_c, 11, 71, 76
15, 131984, Note_on_c, 11, 71, 0
15, 132000, Note_on_c, 11, 69, 76
15, 132104, Note_on_c, 11, 69, 0
15, 132120, Note_on_c, 11, 71, 76
15, 132224, Note_on_c, 11, 71, 0
15, 132240, Note_on_c, 11, 73, 76
15, 132464, Note_on_c, 11, 73, 0
15, 132480, Note_on_c, 11, 64, 76
15, 132944, Note_on_c, 11, 64, 0
15, 132960, Note_on_c, 11, 66, 76
15, 133064, Note_on_c, 11, 66, 0
15, 133080, Note_on_c, 11, 67, 76
15, 133184, Note_on_c, 11, 67, 0
15, 133200, Note_on_c, 11, 69, 76
15, 133424, Note_on_c, 11, 69, 0
15, 133440, Note_on_c, 11, 74, 76
15, 133664, Note_on_c, 11, 74, 0
15, 133680, Note_on_c, 11, 74, 76
15, 133784, Note_on_c, 11, 74, 0
15, 133800, Note_on_c, 11, 73, 76
15, 133904, Note_on_c, 11, 73, 0
15, 133920, Note_on_c, 11, 71, 76
15, 134024, Note_on_c, 11, 71, 0
15, 134040, Note_on_c, 11, 73, 76
15, 134144, Note_on_c, 11, 73, 0
15, 134160, Note_on_c, 11, 74, 76
15, 134384, Note_on_c, 11, 74, 0
15, 134400, Note_on_c, 11, 66, 76
15, 134864, Note_on_c, 11, 66, 0
15, 134880, Note_on_c, 11, 75, 76
15, 135104, Note_on_c, 11, 75, 0
15, 135120, Note_on_c, 11, 76, 76
15, 135344, Note_on_c, 11, 76, 0
15, 135360, Note_on_c, 11, 67, 76
15, 135824, Note_on_c, 11, 67, 0
15, 135840, Note_on_c, 11, 67, 76
15, 136064, Note_on_c, 11, 67, 0
15, 136080, Note_on_c, 11, 66, 76
15, 136304, Note_on_c, 11, 66, 0
15, 136320, Note_on_c, 11, 73, 76
15, 136784, Note_on_c, 11, 73, 0
15, 136800, Note_on_c, 11, 73, 76
15, 137264, Note_on_c, 11, 73, 0
15, 137280, Note_on_c, 11, 71, 76
15, 137744, Note_on_c, 11, 71, 0
15, 137760, Note_on_c, 11, 70, 76
15, 137984, Note_on_c, 11, 70, 0
15, 138000, Note_on_c, 11, 66, 76
15, 138479, Note_on_c, 11, 66, 0
15, 138720, Note_on_c, 11, 62, 76
15, 138824, Note_on_c, 11, 62, 0
15, 138840, Note_on_c, 11, 61, 76
15, 138944, Note_on_c, 11, 61, 0
15, 138960, Note_on_c, 11, 62, 76
15, 139424, Note_on_c, 11, 62, 0
15, 139440, Note_on_c, 11, 64, 76
15, 139904, Note_on_c, 11, 64, 0
15, 139920, Note_on_c, 11, 66, 76
15, 140024, Note_on_c, 11, 66, 0
15, 140040, Note_on_c, 11, 67, 76
15, 140144, Note_on_c, 11, 67, 0
15, 140160, Note_on_c, 11, 69, 76
15, 140639, Note_on_c, 11, 69, 0
15, 142080, Note_on_c, 11, 64, 76
15, 142184, Note_on_c, 11, 64, 0
15, 142200, Note_on_c, 11, 69, 76
15, 142304, Note_on_c, 11, 69, 0
15, 142320, Note_on_c, 11, 73, 76
15, 142544, Note_on_c, 11, 73, 0
15, 142560, Note_on_c, 11, 73, 76
15, 142784, Note_on_c, 11, 73, 0
15, 142800, Note_on_c, 11, 74, 76
15, 143024, Note_on_c, 11, 74, 0
15, 143040, Note_on_c, 11, 81, 76
15, 143264, Note_on_c, 11, 81, 0
15, 143280, Note_on_c, 11, 79, 76
15, 143384, Note_on_c, 11, 79, 0
15, 143400, Note_on_c, 11, 78, 76
15, 143504, Note_on_c, 11, 78, 0
15, 143520, Note_on_c, 11, 76, 76
15, 143624, Note_on_c, 11, 76, 0
15, 143640, Note_on_c, 11, 74, 76
15, 143744, Note_on_c, 11, 74, 0
15, 143760, Note_on_c, 11, 73, 76
15, 143864, Note_on_c, 11, 73, 0
15, 143880, Note_on_c, 11, 74, 76
15, 143984, Note_on_c, 11, 74, 0
15, 144000, Note_on_c, 11, 76, 76
15, 144464, Note_on_c, 11, 76, 0
15, 144480, Note_on_c, 11, 73, 76
15, 144704, Note_on_c, 11, 73, 0
15, 144720, Note_on_c, 11, 74, 76
15, 144944, Note_on_c, 11, 74, 0
15, 144960, Note_on_c, 11, 71, 76
15, 145184, Note_on_c, 11, 71, 0
15, 145200, Note_on_c, 11, 69, 76
15, 145424, Note_on_c, 11, 69, 0
15, 145440, Note_on_c, 11, 69, 76
15, 145664, Note_on_c, 11, 69, 0
15, 145680, Note_on_c, 11, 69, 76
15, 146399, Note_on_c, 11, 69, 0
15, 146399, End_track
16, 0, Start_track
16, 0, Title_t, "Viola"
16, 0, MIDI_port, 0
16, 0, Program_c, 12, 48
16, 0, Control_c, 12, 10, 70
16, 0, Control_c, 12, 11, 127
16, 0, Control_c, 12, 7, 96
16, 1440, Note_on_c, 12, 66, 76
16, 1544, Note_on_c, 12, 66, 0
16, 1560, Note_on_c, 12, 69, 76
16, 1664, Note_on_c, 12, 69, 0
16, 1680, Note_on_c, 12, 74, 76
16, 1919, Note_on_c, 12, 74, 0
16, 3360, Note_on_c, 12, 64, 76
16, 3464, Note_on_c, 12, 64, 0
16, 3480, Note_on_c, 12, 69, 76
16, 3584, Note_on_c, 12, 69, 0
16, 3600, Note_on_c, 12, 73, 76
16, 3839, Note_on_c, 12, 73, 0
16, 5280, Note_on_c, 12, 64, 76
16, 5384, Note_on_c, 12, 64, 0
16, 5400, Note_on_c, 12, 71, 76
16, 5504, Note_on_c, 12, 71, 0
16, 5520, Note_on_c, 12, 74, 76
16, 5759, Note_on_c, 12, 74, 0
16, 7200, Note_on_c, 12, 64, 76
16, 7304, Note_on_c, 12, 64, 0
16, 7320, Note_on_c, 12, 69, 76
16, 7424, Note_on_c, 12, 69, 0
16, 7440, Note_on_c, 12, 73, 76
16, 7679, Note_on_c, 12, 73, 0
16, 9120, Note_on_c, 12, 66, 76
16, 9224, Note_on_c, 12, 66, 0
16, 9240, Note_on_c, 12, 69, 76
16, 9344, Note_on_c, 12, 69, 0
16, 9360, Note_on_c, 12, 74, 76
16, 9599, Note_on_c, 12, 74, 0
16, 11040, Note_on_c, 12, 64, 76
16, 11144, Note_on_c, 12, 64, 0
16, 11160, Note_on_c, 12, 69, 76
16, 11264, Note_on_c, 12, 69, 0
16, 11280, Note_on_c, 12, 73, 76
16, 11519, Note_on_c, 12, 73, 0
16, 12960, Note_on_c, 12, 64, 76
16, 13064, Note_on_c, 12, 64, 0
16, 13080, Note_on_c, 12, 71, 76
16, 13184, Note_on_c, 12, 71, 0
16, 13200, Note_on_c, 12, 74, 76
16, 13439, Note_on_c, 12, 74, 0
16, 14880, Note_on_c, 12, 64, 76
16, 14984, Note_on_c, 12, 64, 0
16, 15000, Note_on_c, 12, 69, 76
16, 15104, Note_on_c, 12, 69, 0
16, 15120, Note_on_c, 12, 73, 76
16, 15344, Note_on_c, 12, 73, 0
16, 15360, Note_on_c, 12, 64, 76
16, 15584, Note_on_c, 12, 64, 0
16, 15600, Note_on_c, 12, 69, 76
16, 15824, Note_on_c, 12, 69, 0
16, 15840, Note_on_c, 12, 64, 76
16, 16064, Note_on_c, 12, 64, 0
16, 16080, Note_on_c, 12, 69, 76
16, 16304, Note_on_c, 12, 69, 0
16, 16320, Note_on_c, 12, 64, 76
16, 16544, Note_on_c, 12, 64, 0
16, 16560, Note_on_c, 12, 69, 76
16, 16784, Note_on_c, 12, 69, 0
16, 16800, Note_on_c, 12, 57, 76
16, 17264, Note_on_c, 12, 57, 0
16, 17280, Note_on_c, 12, 61, 76
16, 17504, Note_on_c, 12, 61, 0
16, 17520, Note_on_c, 12, 62, 76
16, 17744, Note_on_c, 12, 62, 0
16, 17760, Note_on_c, 12, 66, 76
16, 17984, Note_on_c, 12, 66, 0
16, 18000, Note_on_c, 12, 71, 76
16, 18224, Note_on_c, 12, 71, 0
16, 18240, Note_on_c, 12, 66, 76
16, 18464, Note_on_c, 12, 66, 0
16, 18480, Note_on_c, 12, 66, 76
16, 18704, Note_on_c, 12, 66, 0
16, 18720, Note_on_c, 12, 62, 76
16, 19184, Note_on_c, 12, 62, 0
16, 19200, Note_on_c, 12, 66, 76
16, 19424, Note_on_c, 12, 66, 0
16, 19440, Note_on_c, 12, 59, 76
16, 19664, Note_on_c, 12, 59, 0
16, 19680, Note_on_c, 12, 64, 76
16, 20144, Note_on_c, 12, 64, 0
16, 20160, Note_on_c, 12, 64, 76
16, 20384, Note_on_c, 12, 64, 0
16, 20400, Note_on_c, 12, 61, 76
16, 20624, Note_on_c, 12, 61, 0
16, 20640, Note_on_c, 12, 70, 76
16, 21104, Note_on_c, 12, 70, 0
16, 21120, Note_on_c, 12, 61, 76
16, 21344, Note_on_c, 12, 61, 0
16, 21360, Note_on_c, 12, 62, 76
16, 21584, Note_on_c, 12, 62, 0
16, 21600, Note_on_c, 12, 64, 76
16, 21824, Note_on_c, 12, 64, 0
16, 21840, Note_on_c, 12, 66, 76
16, 22064, Note_on_c, 12, 66, 0
16, 22080, Note_on_c, 12, 64, 76
16, 22304, Note_on_c, 12, 64, 0
16, 22320, Note_on_c, 12, 62, 76
16, 22799, Note_on_c, 12, 62, 0
16, 23040, Note_on_c, 12, 59, 76
16, 23264, Note_on_c, 12, 59, 0
16, 23280, Note_on_c, 12, 59, 76
16, 23744, Note_on_c, 12, 59, 0
16, 23760, Note_on_c, 12, 61, 76
16, 24224, Note_on_c, 12, 61, 0
16, 24240, Note_on_c, 12, 62, 76
16, 24464, Note_on_c, 12, 62, 0
16, 24480, Note_on_c, 12, 62, 76
16, 24959, Note_on_c, 12, 62, 0
16, 26400, Note_on_c, 12, 61, 76
16, 26504, Note_on_c, 12, 61, 0
16, 26520, Note_on_c, 12, 64, 76
16, 26624, Note_on_c, 12, 64, 0
16, 26640, Note_on_c, 12, 69, 76
16, 26864, Note_on_c, 12, 69, 0
16, 26880, Note_on_c, 12, 69, 76
16, 27104, Note_on_c, 12, 69, 0
16, 27120, Note_on_c, 12, 69, 76
16, 27344, Note_on_c, 12, 69, 0
16, 27360, Note_on_c, 12, 62, 76
16, 27584, Note_on_c, 12, 62, 0
16, 27600, Note_on_c, 12, 62, 76
16, 27824, Note_on_c, 12, 62, 0
16, 27840, Note_on_c, 12, 69, 76
16, 28064, Note_on_c, 12, 69, 0
16, 28080, Note_on_c, 12, 69, 76
16, 28304, Note_on_c, 12, 69, 0
16, 28320, Note_on_c, 12, 61, 76
16, 28784, Note_on_c, 12, 61, 0
16, 28800, Note_on_c, 12, 69, 76
16, 29024, Note_on_c, 12, 69, 0
16, 29040, Note_on_c, 12, 69, 76
16, 29264, Note_on_c, 12, 69, 0
16, 29280, Note_on_c, 12, 71, 76
16, 29504, Note_on_c, 12, 71, 0
16, 29520, Note_on_c, 12, 66, 76
16, 29744, Note_on_c, 12, 66, 0
16, 29760, Note_on_c, 12, 67, 76
16, 29984, Note_on_c, 12, 67, 0
16, 30000, Note_on_c, 12, 66, 76
16, 30704, Note_on_c, 12, 66, 0
16, 30720, Note_on_c, 12, 64, 76
16, 30944, Note_on_c, 12, 64, 0
16, 30960, Note_on_c, 12, 69, 76
16, 31184, Note_on_c, 12, 69, 0
16, 31200, Note_on_c, 12, 64, 76
16, 31424, Note_on_c, 12, 64, 0
16, 31440, Note_on_c, 12, 69, 76
16, 31664, Note_on_c, 12, 69, 0
16, 31680, Note_on_c, 12, 64, 76
16, 31904, Note_on_c, 12, 64, 0
16, 31920, Note_on_c, 12, 69, 76
16, 32144, Note_on_c, 12, 69, 0
16, 32160, Note_on_c, 12, 57, 76
16, 32624, Note_on_c, 12, 57, 0
16, 32640, Note_on_c, 12, 61, 76
16, 32864, Note_on_c, 12, 61, 0
16, 32880, Note_on_c, 12, 62, 76
16, 33104, Note_on_c, 12, 62, 0
16, 33120, Note_on_c, 12, 66, 76
16, 33344, Note_on_c, 12, 66, 0
16, 33360, Note_on_c, 12, 71, 76
16, 33584, Note_on_c, 12, 71, 0
16, 33600, Note_on_c, 12, 66, 76
16, 33824, Note_on_c, 12, 66, 0
16, 33840, Note_on_c, 12, 66, 76
16, 34064, Note_on_c, 12, 66, 0
16, 34080, Note_on_c, 12, 62, 76
16, 34544, Note_on_c, 12, 62, 0
16, 34560, Note_on_c, 12, 66, 76
16, 34784, Note_on_c, 12, 66, 0
16, 34800, Note_on_c, 12, 59, 76
16, 35024, Note_on_c, 12, 59, 0
16, 35040, Note_on_c, 12, 64, 76
16, 35504, Note_on_c, 12, 64, 0
16, 35520, Note_on_c, 12, 64, 76
16, 35744, Note_on_c, 12, 64, 0
16, 35760, Note_on_c, 12, 61, 76
16, 35984, Note_on_c, 12, 61, 0
16, 36000, Note_on_c, 12, 70, 76
16, 36464, Note_on_c, 12, 70, 0
16, 36480, Note_on_c, 12, 61, 76
16, 36704, Note_on_c, 12, 61, 0
16, 36720, Note_on_c, 12, 62, 76
16, 36944, Note_on_c, 12, 62, 0
16, 36960, Note_on_c, 12, 64, 76
16, 37184, Note_on_c, 12, 64, 0
16, 37200, Note_on_c, 12, 66, 76
16, 37424, Note_on_c, 12, 66, 0
16, 37440, Note_on_c, 12, 64, 76
16, 37664, Note_on_c, 12, 64, 0
16, 37680, Note_on_c, 12, 62, 76
16, 38159, Note_on_c, 12, 62, 0
16, 38400, Note_on_c, 12, 59, 76
16, 38624, Note_on_c, 12, 59, 0
16, 38640, Note_on_c, 12, 59, 76
16, 39104, Note_on_c, 12, 59, 0
16, 39120, Note_on_c, 12, 61, 76
16, 39584, Note_on_c, 12, 61, 0
16, 39600, Note_on_c, 12, 62, 76
16, 39824, Note_on_c, 12, 62, 0
16, 39840, Note_on_c, 12, 62, 76
16, 40319, Note_on_c, 12, 62, 0
16, 41760, Note_on_c, 12, 61, 76
16, 41864, Note_on_c, 12, 61, 0
16, 41880, Note_on_c, 12, 64, 76
16, 41984, Note_on_c, 12, 64, 0
16, 42000, Note_on_c, 12, 69, 76
16, 42224, Note_on_c, 12, 69, 0
16, 42240, Note_on_c, 12, 69, 76
16, 42464, Note_on_c, 12, 69, 0
16, 42480, Note_on_c, 12, 69, 76
16, 42704, Note_on_c, 12, 69, 0
16, 42720, Note_on_c, 12, 62, 76
16, 42944, Note_on_c, 12, 62, 0
16, 42960, Note_on_c, 12, 62, 76
16, 43184, Note_on_c, 12, 62, 0
16, 43200, Note_on_c, 12, 69, 76
16, 43424, Note_on_c, 12, 69, 0
16, 43440, Note_on_c, 12, 69, 76
16, 43664, Note_on_c, 12, 69, 0
16, 43680, Note_on_c, 12, 61, 76
16, 44144, Note_on_c, 12, 61, 0
16, 44160, Note_on_c, 12, 69, 76
16, 44384, Note_on_c, 12, 69, 0
16, 44400, Note_on_c, 12, 69, 76
16, 44624, Note_on_c, 12, 69, 0
16, 44640, Note_on_c, 12, 71, 76
16, 44864, Note_on_c, 12, 71, 0
16, 44880, Note_on_c, 12, 66, 76
16, 45104, Note_on_c, 12, 66, 0
16, 45120, Note_on_c, 12, 67, 76
16, 45344, Note_on_c, 12, 67, 0
16, 45360, Note_on_c, 12, 66, 76
16, 46064, Note_on_c, 12, 66, 0
16, 46800, Note_on_c, 12, 66, 76
16, 46859, Note_on_c, 12, 66, 0
16, 46860, Note_on_c, 12, 64, 76
16, 46919, Note_on_c, 12, 64, 0
16, 46920, Note_on_c, 12, 62, 76
16, 46979, Note_on_c, 12, 62, 0
16, 46980, Note_on_c, 12, 64, 76
16, 47031, Note_on_c, 12, 64, 0
16, 47040, Note_on_c, 12, 66, 76
16, 47279, Note_on_c, 12, 66, 0
16, 47760, Note_on_c, 12, 66, 76
16, 47819, Note_on_c, 12, 66, 0
16, 47820, Note_on_c, 12, 64, 76
16, 47879, Note_on_c, 12, 64, 0
16, 47880, Note_on_c, 12, 62, 76
16, 47939, Note_on_c, 12, 62, 0
16, 47940, Note_on_c, 12, 64, 76
16, 47991, Note_on_c, 12, 64, 0
16, 48000, Note_on_c, 12, 66, 76
16, 48239, Note_on_c, 12, 66, 0
16, 49680, Note_on_c, 12, 66, 76
16, 49739, Note_on_c, 12, 66, 0
16, 49740, Note_on_c, 12, 64, 76
16, 49799, Note_on_c, 12, 64, 0
16, 49800, Note_on_c, 12, 62, 76
16, 49859, Note_on_c, 12, 62, 0
16, 49860, Note_on_c, 12, 64, 76
16, 49911, Note_on_c, 12, 64, 0
16, 49920, Note_on_c, 12, 66, 76
16, 50159, Note_on_c, 12, 66, 0
16, 50640, Note_on_c, 12, 66, 76
16, 50699, Note_on_c, 12, 66, 0
16, 50700, Note_on_c, 12, 64, 76
16, 50759, Note_on_c, 12, 64, 0
16, 50760, Note_on_c, 12, 62, 76
16, 50819, Note_on_c, 12, 62, 0
16, 50820, Note_on_c, 12, 64, 76
16, 50871, Note_on_c, 12, 64, 0
16, 50880, Note_on_c, 12, 66, 76
16, 51119, Note_on_c, 12, 66, 0
16, 51600, Note_on_c, 12, 66, 76
16, 51659, Note_on_c, 12, 66, 0
16, 51660, Note_on_c, 12, 64, 76
16, 51719, Note_on_c, 12, 64, 0
16, 51720, Note_on_c, 12, 62, 76
16, 51779, Note_on_c, 12, 62, 0
16, 51780, Note_on_c, 12, 64, 76
16, 51831, Note_on_c, 12, 64, 0
16, 51840, Note_on_c, 12, 66, 76
16, 52079, Note_on_c, 12, 66, 0
16, 52560, Note_on_c, 12, 64, 76
16, 52619, Note_on_c, 12, 64, 0
16, 52620, Note_on_c, 12, 62, 76
16, 52679, Note_on_c, 12, 62, 0
16, 52680, Note_on_c, 12, 61, 76
16, 52739, Note_on_c, 12, 61, 0
16, 52740, Note_on_c, 12, 62, 76
16, 52791, Note_on_c, 12, 62, 0
16, 52800, Note_on_c, 12, 64, 76
16, 53039, Note_on_c, 12, 64, 0
16, 53520, Note_on_c, 12, 62, 76
16, 53579, Note_on_c, 12, 62, 0
16, 53580, Note_on_c, 12, 61, 76
16, 53639, Note_on_c, 12, 61, 0
16, 53640, Note_on_c, 12, 59, 76
16, 53699, Note_on_c, 12, 59, 0
16, 53700, Note_on_c, 12, 61, 76
16, 53751, Note_on_c, 12, 61, 0
16, 53760, Note_on_c, 12, 62, 76
16, 53999, Note_on_c, 12, 62, 0
16, 54480, Note_on_c, 12, 62, 76
16, 54539, Note_on_c, 12, 62, 0
16, 54540, Note_on_c, 12, 61, 76
16, 54599, Note_on_c, 12, 61, 0
16, 54600, Note_on_c, 12, 59, 76
16, 54659, Note_on_c, 12, 59, 0
16, 54660, Note_on_c, 12, 61, 76
16, 54711, Note_on_c, 12, 61, 0
16, 54720, Note_on_c, 12, 62, 76
16, 54959, Note_on_c, 12, 62, 0
16, 55440, Note_on_c, 12, 61, 76
16, 55499, Note_on_c, 12, 61, 0
16, 55500, Note_on_c, 12, 59, 76
16, 55559, Note_on_c, 12, 59, 0
16, 55560, Note_on_c, 12, 57, 76
16, 55619, Note_on_c, 12, 57, 0
16, 55620, Note_on_c, 12, 59, 76
16, 55671, Note_on_c, 12, 59, 0
16, 55680, Note_on_c, 12, 61, 76
16, 55919, Note_on_c, 12, 61, 0
16, 57360, Note_on_c, 12, 61, 76
16, 57419, Note_on_c, 12, 61, 0
16, 57420, Note_on_c, 12, 59, 76
16, 57479, Note_on_c, 12, 59, 0
16, 57480, Note_on_c, 12, 58, 76
16, 57539, Note_on_c, 12, 58, 0
16, 57540, Note_on_c, 12, 59, 76
16, 57591, Note_on_c, 12, 59, 0
16, 57600, Note_on_c, 12, 61, 76
16, 57839, Note_on_c, 12, 61, 0
16, 58320, Note_on_c, 12, 66, 76
16, 58379, Note_on_c, 12, 66, 0
16, 58380, Note_on_c, 12, 64, 76
16, 58439, Note_on_c, 12, 64, 0
16, 58440, Note_on_c, 12, 62, 76
16, 58499, Note_on_c, 12, 62, 0
16, 58500, Note_on_c, 12, 64, 76
16, 58551, Note_on_c, 12, 64, 0
16, 58560, Note_on_c, 12, 66, 76
16, 58799, Note_on_c, 12, 66, 0
16, 59280, Note_on_c, 12, 66, 76
16, 59339, Note_on_c, 12, 66, 0
16, 59340, Note_on_c, 12, 64, 76
16, 59399, Note_on_c, 12, 64, 0
16, 59400, Note_on_c, 12, 62, 76
16, 59459, Note_on_c, 12, 62, 0
16, 59460, Note_on_c, 12, 64, 76
16, 59511, Note_on_c, 12, 64, 0
16, 59520, Note_on_c, 12, 66, 76
16, 59759, Note_on_c, 12, 66, 0
16, 61200, Note_on_c, 12, 66, 76
16, 61259, Note_on_c, 12, 66, 0
16, 61260, Note_on_c, 12, 64, 76
16, 61319, Note_on_c, 12, 64, 0
16, 61320, Note_on_c, 12, 62, 76
16, 61379, Note_on_c, 12, 62, 0
16, 61380, Note_on_c, 12, 64, 76
16, 61431, Note_on_c, 12, 64, 0
16, 61440, Note_on_c, 12, 66, 76
16, 61679, Note_on_c, 12, 66, 0
16, 62160, Note_on_c, 12, 66, 76
16, 62219, Note_on_c, 12, 66, 0
16, 62220, Note_on_c, 12, 64, 76
16, 62279, Note_on_c, 12, 64, 0
16, 62280, Note_on_c, 12, 62, 76
16, 62339, Note_on_c, 12, 62, 0
16, 62340, Note_on_c, 12, 64, 76
16, 62391, Note_on_c, 12, 64, 0
16, 62400, Note_on_c, 12, 66, 76
16, 62639, Note_on_c, 12, 66, 0
16, 63120, Note_on_c, 12, 66, 76
16, 63179, Note_on_c, 12, 66, 0
16, 63180, Note_on_c, 12, 64, 76
16, 63239, Note_on_c, 12, 64, 0
16, 63240, Note_on_c, 12, 62, 76
16, 63299, Note_on_c, 12, 62, 0
16, 63300, Note_on_c, 12, 64, 76
16, 63351, Note_on_c, 12, 64, 0
16, 63360, Note_on_c, 12, 66, 76
16, 63599, Note_on_c, 12, 66, 0
16, 64080, Note_on_c, 12, 64, 76
16, 64139, Note_on_c, 12, 64, 0
16, 64140, Note_on_c, 12, 62, 76
16, 64199, Note_on_c, 12, 62, 0
16, 64200, Note_on_c, 12, 61, 76
16, 64259, Note_on_c, 12, 61, 0
16, 64260, Note_on_c, 12, 62, 76
16, 64311, Note_on_c, 12, 62, 0
16, 64320, Note_on_c, 12, 64, 76
16, 64559, Note_on_c, 12, 64, 0
16, 65040, Note_on_c, 12, 62, 76
16, 65099, Note_on_c, 12, 62, 0
16, 65100, Note_on_c, 12, 61, 76
16, 65159, Note_on_c, 12, 61, 0
16, 65160, Note_on_c, 12, 59, 76
16, 65219, Note_on_c, 12, 59, 0
16, 65220, Note_on_c, 12, 61, 76
16, 65271, Note_on_c, 12, 61, 0
16, 65280, Note_on_c, 12, 62, 76
16, 65519, Note_on_c, 12, 62, 0
16, 66000, Note_on_c, 12, 62, 76
16, 66059, Note_on_c, 12, 62, 0
16, 66060, Note_on_c, 12, 61, 76
16, 66119, Note_on_c, 12, 61, 0
16, 66120, Note_on_c, 12, 59, 76
16, 66179, Note_on_c, 12, 59, 0
16, 66180, Note_on_c, 12, 61, 76
16, 66231, Note_on_c, 12, 61, 0
16, 66240, Note_on_c, 12, 62, 76
16, 66479, Note_on_c, 12, 62, 0
16, 66960, Note_on_c, 12, 61, 76
16, 67019, Note_on_c, 12, 61, 0
16, 67020, Note_on_c, 12, 59, 76
16, 67079, Note_on_c, 12, 59, 0
16, 67080, Note_on_c, 12, 57, 76
16, 67139, Note_on_c, 12, 57, 0
16, 67140, Note_on_c, 12, 59, 76
16, 67191, Note_on_c, 12, 59, 0
16, 67200, Note_on_c, 12, 61, 76
16, 67439, Note_on_c, 12, 61, 0
16, 68880, Note_on_c, 12, 61, 76
16, 68939, Note_on_c, 12, 61, 0
16, 68940, Note_on_c, 12, 59, 76
16, 68999, Note_on_c, 12, 59, 0
16, 69000, Note_on_c, 12, 58, 76
16, 69059, Note_on_c, 12, 58, 0
16, 69060, Note_on_c, 12, 59, 76
16, 69111, Note_on_c, 12, 59, 0
16, 69120, Note_on_c, 12, 61, 76
16, 69359, Note_on_c, 12, 61, 0
16, 69840, Note_on_c, 12, 66, 76
16, 69899, Note_on_c, 12, 66, 0
16, 69900, Note_on_c, 12, 64, 76
16, 69959, Note_on_c, 12, 64, 0
16, 69960, Note_on_c, 12, 63, 76
16, 70019, Note_on_c, 12, 63, 0
16, 70020, Note_on_c, 12, 64, 76
16, 70071, Note_on_c, 12, 64, 0
16, 70080, Note_on_c, 12, 66, 76
16, 70319, Note_on_c, 12, 66, 0
16, 70800, Note_on_c, 12, 59, 76
16, 70859, Note_on_c, 12, 59, 0
16, 70860, Note_on_c, 12, 57, 76
16, 70919, Note_on_c, 12, 57, 0
16, 70920, Note_on_c, 12, 55, 76
16, 70979, Note_on_c, 12, 55, 0
16, 70980, Note_on_c, 12, 57, 76
16, 71031, Note_on_c, 12, 57, 0
16, 71040, Note_on_c, 12, 59, 76
16, 71279, Note_on_c, 12, 59, 0
16, 72720, Note_on_c, 12, 66, 76
16, 72779, Note_on_c, 12, 66, 0
16, 72780, Note_on_c, 12, 64, 76
16, 72839, Note_on_c, 12, 64, 0
16, 72840, Note_on_c, 12, 63, 76
16, 72899, Note_on_c, 12, 63, 0
16, 72900, Note_on_c, 12, 64, 76
16, 72951, Note_on_c, 12, 64, 0
16, 72960, Note_on_c, 12, 66, 76
16, 73199, Note_on_c, 12, 66, 0
16, 73680, Note_on_c, 12, 59, 76
16, 73739, Note_on_c, 12, 59, 0
16, 73740, Note_on_c, 12, 57, 76
16, 73799, Note_on_c, 12, 57, 0
16, 73800, Note_on_c, 12, 56, 76
16, 73859, Note_on_c, 12, 56, 0
16, 73860, Note_on_c, 12, 57, 76
16, 73911, Note_on_c, 12, 57, 0
16, 73920, Note_on_c, 12, 59, 76
16, 74159, Note_on_c, 12, 59, 0
16, 74640, Note_on_c, 12, 66, 76
16, 74699, Note_on_c, 12, 66, 0
16, 74700, Note_on_c, 12, 64, 76
16, 74759, Note_on_c, 12, 64, 0
16, 74760, Note_on_c, 12, 63, 76
16, 74819, Note_on_c, 12, 63, 0
16, 74820, Note_on_c, 12, 64, 76
16, 74871, Note_on_c, 12, 64, 0
16, 74880, Note_on_c, 12, 66, 76
16, 75119, Note_on_c, 12, 66, 0
16, 76560, Note_on_c, 12, 67, 76
16, 76619, Note_on_c, 12, 67, 0
16, 76620, Note_on_c, 12, 66, 76
16, 76679, Note_on_c, 12, 66, 0
16, 76680, Note_on_c, 12, 64, 76
16, 76739, Note_on_c, 12, 64, 0
16, 76740, Note_on_c, 12, 66, 76
16, 76791, Note_on_c, 12, 66, 0
16, 76800, Note_on_c, 12, 67, 76
16, 77039, Note_on_c, 12, 67, 0
16, 77520, Note_on_c, 12, 67, 76
16, 77579, Note_on_c, 12, 67, 0
16, 77580, Note_on_c, 12, 66, 76
16, 77639, Note_on_c, 12, 66, 0
16, 77640, Note_on_c, 12, 64, 76
16, 77699, Note_on_c, 12, 64, 0
16, 77700, Note_on_c, 12, 66, 76
16, 77751, Note_on_c, 12, 66, 0
16, 77760, Note_on_c, 12, 67, 76
16, 77999, Note_on_c, 12, 67, 0
16, 78480, Note_on_c, 12, 66, 76
16, 78539, Note_on_c, 12, 66, 0
16, 78540, Note_on_c, 12, 64, 76
16, 78599, Note_on_c, 12, 64, 0
16, 78600, Note_on_c, 12, 62, 76
16, 78659, Note_on_c, 12, 62, 0
16, 78660, Note_on_c, 12, 64, 76
16, 78711, Note_on_c, 12, 64, 0
16, 78720, Note_on_c, 12, 66, 76
16, 78959, Note_on_c, 12, 66, 0
16, 80400, Note_on_c, 12, 66, 76
16, 80459, Note_on_c, 12, 66, 0
16, 80460, Note_on_c, 12, 64, 76
16, 80519, Note_on_c, 12, 64, 0
16, 80520, Note_on_c, 12, 62, 76
16, 80579, Note_on_c, 12, 62, 0
16, 80580, Note_on_c, 12, 64, 76
16, 80631, Note_on_c, 12, 64, 0
16, 80640, Note_on_c, 12, 66, 76
16, 80879, Note_on_c, 12, 66, 0
16, 81360, Note_on_c, 12, 64, 76
16, 81419, Note_on_c, 12, 64, 0
16, 81420, Note_on_c, 12, 62, 76
16, 81479, Note_on_c, 12, 62, 0
16, 81480, Note_on_c, 12, 61, 76
16, 81539, Note_on_c, 12, 61, 0
16, 81540, Note_on_c, 12, 62, 76
16, 81591, Note_on_c, 12, 62, 0
16, 81600, Note_on_c, 12, 64, 76
16, 81839, Note_on_c, 12, 64, 0
16, 82320, Note_on_c, 12, 61, 76
16, 82379, Note_on_c, 12, 61, 0
16, 82380, Note_on_c, 12, 59, 76
16, 82439, Note_on_c, 12, 59, 0
16, 82440, Note_on_c, 12, 58, 76
16, 82499, Note_on_c, 12, 58, 0
16, 82500, Note_on_c, 12, 59, 76
16, 82551, Note_on_c, 12, 59, 0
16, 82560, Note_on_c, 12, 61, 76
16, 82799, Note_on_c, 12, 61, 0
16, 84240, Note_on_c, 12, 62, 76
16, 84299, Note_on_c, 12, 62, 0
16, 84300, Note_on_c, 12, 61, 76
16, 84359, Note_on_c, 12, 61, 0
16, 84360, Note_on_c, 12, 59, 76
16, 84419, Note_on_c, 12, 59, 0
16, 84420, Note_on_c, 12, 61, 76
16, 84471, Note_on_c, 12, 61, 0
16, 84480, Note_on_c, 12, 62, 76
16, 84719, Note_on_c, 12, 62, 0
16, 85200, Note_on_c, 12, 66, 76
16, 85259, Note_on_c, 12, 66, 0
16, 85260, Note_on_c, 12, 64, 76
16, 85319, Note_on_c, 12, 64, 0
16, 85320, Note_on_c, 12, 63, 76
16, 85379, Note_on_c, 12, 63, 0
16, 85380, Note_on_c, 12, 64, 76
16, 85431, Note_on_c, 12, 64, 0
16, 85440, Note_on_c, 12, 66, 76
16, 85679, Note_on_c, 12, 66, 0
16, 86160, Note_on_c, 12, 59, 76
16, 86219, Note_on_c, 12, 59, 0
16, 86220, Note_on_c, 12, 57, 76
16, 86279, Note_on_c, 12, 57, 0
16, 86280, Note_on_c, 12, 55, 76
16, 86339, Note_on_c, 12, 55, 0
16, 86340, Note_on_c, 12, 57, 76
16, 86391, Note_on_c, 12, 57, 0
16, 86400, Note_on_c, 12, 59, 76
16, 86639, Note_on_c, 12, 59, 0
16, 88080, Note_on_c, 12, 66, 76
16, 88139, Note_on_c, 12, 66, 0
16, 88140, Note_on_c, 12, 64, 76
16, 88199, Note_on_c, 12, 64, 0
16, 88200, Note_on_c, 12, 63, 76
16, 88259, Note_on_c, 12, 63, 0
16, 88260, Note_on_c, 12, 64, 76
16, 88311, Note_on_c, 12, 64, 0
16, 88320, Note_on_c, 12, 66, 76
16, 88559, Note_on_c, 12, 66, 0
16, 89040, Note_on_c, 12, 59, 76
16, 89099, Note_on_c, 12, 59, 0
16, 89100, Note_on_c, 12, 57, 76
16, 89159, Note_on_c, 12, 57, 0
16, 89160, Note_on_c, 12, 56, 76
16, 89219, Note_on_c, 12, 56, 0
16, 89220, Note_on_c, 12, 57, 76
16, 89271, Note_on_c, 12, 57, 0
16, 89280, Note_on_c, 12, 59, 76
16, 89519, Note_on_c, 12, 59, 0
16, 90000, Note_on_c, 12, 66, 76
16, 90059, Note_on_c, 12, 66, 0
16, 90060, Note_on_c, 12, 64, 76
16, 90119, Note_on_c, 12, 64, 0
16, 90120, Note_on_c, 12, 63, 76
16, 90179, Note_on_c, 12, 63, 0
16, 90180, Note_on_c, 12, 64, 76
16, 90231, Note_on_c, 12, 64, 0
16, 90240, Note_on_c, 12, 66, 76
16, 90479, Note_on_c, 12, 66, 0
16, 91920, Note_on_c, 12, 67, 76
16, 91979, Note_on_c, 12, 67, 0
16, 91980, Note_on_c, 12, 66, 76
16, 92039, Note_on_c, 12, 66, 0
16, 92040, Note_on_c, 12, 64, 76
16, 92099, Note_on_c, 12, 64, 0
16, 92100, Note_on_c, 12, 66, 76
16, 92151, Note_on_c, 12, 66, 0
16, 92160, Note_on_c, 12, 67, 76
16, 92399, Note_on_c, 12, 67, 0
16, 92880, Note_on_c, 12, 67, 76
16, 92939, Note_on_c, 12, 67, 0
16, 92940, Note_on_c, 12, 66, 76
16, 92999, Note_on_c, 12, 66, 0
16, 93000, Note_on_c, 12, 64, 76
16, 93059, Note_on_c, 12, 64, 0
16, 93060, Note_on_c, 12, 66, 76
16, 93111, Note_on_c, 12, 66, 0
16, 93120, Note_on_c, 12, 67, 76
16, 93359, Note_on_c, 12, 67, 0
16, 93840, Note_on_c, 12, 66, 76
16, 93899, Note_on_c, 12, 66, 0
16, 93900, Note_on_c, 12, 64, 76
16, 93959, Note_on_c, 12, 64, 0
16, 93960, Note_on_c, 12, 62, 76
16, 94019, Note_on_c, 12, 62, 0
16, 94020, Note_on_c, 12, 64, 76
16, 94071, Note_on_c, 12, 64, 0
16, 94080, Note_on_c, 12, 66, 76
16, 94319, Note_on_c, 12, 66, 0
16, 95760, Note_on_c, 12, 66, 76
16, 95819, Note_on_c, 12, 66, 0
16, 95820, Note_on_c, 12, 64, 76
16, 95879, Note_on_c, 12, 64, 0
16, 95880, Note_on_c, 12, 62, 76
16, 95939, Note_on_c, 12, 62, 0
16, 95940, Note_on_c, 12, 64, 76
16, 95991, Note_on_c, 12, 64, 0
16, 96000, Note_on_c, 12, 66, 76
16, 96239, Note_on_c, 12, 66, 0
16, 96720, Note_on_c, 12, 64, 76
16, 96779, Note_on_c, 12, 64, 0
16, 96780, Note_on_c, 12, 62, 76
16, 96839, Note_on_c, 12, 62, 0
16, 96840, Note_on_c, 12, 61, 76
16, 96899, Note_on_c, 12, 61, 0
16, 96900, Note_on_c, 12, 62, 76
16, 96951, Note_on_c, 12, 62, 0
16, 96960, Note_on_c, 12, 64, 76
16, 97199, Note_on_c, 12, 64, 0
16, 97680, Note_on_c, 12, 61, 76
16, 97739, Note_on_c, 12, 61, 0
16, 97740, Note_on_c, 12, 59, 76
16, 97799, Note_on_c, 12, 59, 0
16, 97800, Note_on_c, 12, 58, 76
16, 97859, Note_on_c, 12, 58, 0
16, 97860, Note_on_c, 12, 59, 76
16, 97911, Note_on_c, 12, 59, 0
16, 97920, Note_on_c, 12, 61, 76
16, 98159, Note_on_c, 12, 61, 0
16, 99600, Note_on_c, 12, 62, 76
16, 99659, Note_on_c, 12, 62, 0
16, 99660, Note_on_c, 12, 61, 76
16, 99719, Note_on_c, 12, 61, 0
16, 99720, Note_on_c, 12, 59, 76
16, 99779, Note_on_c, 12, 59, 0
16, 99780, Note_on_c, 12, 61, 76
16, 99831, Note_on_c, 12, 61, 0
16, 99840, Note_on_c, 12, 62, 76
16, 100079, Note_on_c, 12, 62, 0
16, 101760, Note_on_c, 12, 66, 76
16, 101864, Note_on_c, 12, 66, 0
16, 101880, Note_on_c, 12, 69, 76
16, 101984, Note_on_c, 12, 69, 0
16, 102000, Note_on_c, 12, 74, 76
16, 102239, Note_on_c, 12, 74, 0
16, 103680, Note_on_c, 12, 64, 76
16, 103784, Note_on_c, 12, 64, 0
16, 103800, Note_on_c, 12, 69, 76
16, 103904, Note_on_c, 12, 69, 0
16, 103920, Note_on_c, 12, 73, 76
16, 104159, Note_on_c, 12, 73, 0
16, 105600, Note_on_c, 12, 64, 76
16, 105704, Note_on_c, 12, 64, 0
16, 105720, Note_on_c, 12, 71, 76
16, 105824, Note_on_c, 12, 71, 0
16, 105840, Note_on_c, 12, 74, 76
16, 106079, Note_on_c, 12, 74, 0
16, 107520, Note_on_c, 12, 64, 76
16, 107624, Note_on_c, 12, 64, 0
16, 107640, Note_on_c, 12, 69, 76
16, 107744, Note_on_c, 12, 69, 0
16, 107760, Note_on_c, 12, 73, 76
16, 107999, Note_on_c, 12, 73, 0
16, 109440, Note_on_c, 12, 66, 76
16, 109544, Note_on_c, 12, 66, 0
16, 109560, Note_on_c, 12, 69, 76
16, 109664, Note_on_c, 12, 69, 0
16, 109680, Note_on_c, 12, 74, 76
16, 109919, Note_on_c, 12, 74, 0
16, 111360, Note_on_c, 12, 64, 76
16, 111464, Note_on_c, 12, 64, 0
16, 111480, Note_on_c, 12, 69, 76
16, 111584, Note_on_c, 12, 69, 0
16, 111600, Note_on_c, 12, 73, 76
16, 111839, Note_on_c, 12, 73, 0
16, 113280, Note_on_c, 12, 64, 76
16, 113384, Note_on_c, 12, 64, 0
16, 113400, Note_on_c, 12, 71, 76
16, 113504, Note_on_c, 12, 71, 0
16, 113520, Note_on_c, 12, 74, 76
16, 113759, Note_on_c, 12, 74, 0
16, 115200, Note_on_c, 12, 64, 76
16, 115304, Note_on_c, 12, 64, 0
16, 115320, Note_on_c, 12, 69, 76
16, 115424, Note_on_c, 12, 69, 0
16, 115440, Note_on_c, 12, 73, 76
16, 115664, Note_on_c, 12, 73, 0
16, 115680, Note_on_c, 12, 64, 76
16, 115904, Note_on_c, 12, 64, 0
16, 115920, Note_on_c, 12, 69, 76
16, 116144, Note_on_c, 12, 69, 0
16, 116160, Note_on_c, 12, 64, 76
16, 116384, Note_on_c, 12, 64, 0
16, 116400, Note_on_c, 12, 69, 76
16, 116624, Note_on_c, 12, 69, 0
16, 116640, Note_on_c, 12, 64, 76
16, 116864, Note_on_c, 12, 64, 0
16, 116880, Note_on_c, 12, 69, 76
16, 117104, Note_on_c, 12, 69, 0
16, 117120, Note_on_c, 12, 57, 76
16, 117584, Note_on_c, 12, 57, 0
16, 117600, Note_on_c, 12, 61, 76
16, 117824, Note_on_c, 12, 61, 0
16, 117840, Note_on_c, 12, 62, 76
16, 118064, Note_on_c, 12, 62, 0
16, 118080, Note_on_c, 12, 66, 76
16, 118304, Note_on_c, 12, 66, 0
16, 118320, Note_on_c, 12, 71, 76
16, 118544, Note_on_c, 12, 71, 0
16, 118560, Note_on_c, 12, 66, 76
16, 118784, Note_on_c, 12, 66, 0
16, 118800, Note_on_c, 12, 66, 76
16, 119024, Note_on_c, 12, 66, 0
16, 119040, Note_on_c, 12, 62, 76
16, 119504, Note_on_c, 12, 62, 0
16, 119520, Note_on_c, 12, 66, 76
16, 119744, Note_on_c, 12, 66, 0
16, 119760, Note_on_c, 12, 59, 76
16, 119984, Note_on_c, 12, 59, 0
16, 120000, Note_on_c, 12, 64, 76
16, 120464, Note_on_c, 12, 64, 0
16, 120480, Note_on_c, 12, 64, 76
16, 120704, Note_on_c, 12, 64, 0
16, 120720, Note_on_c, 12, 61, 76
16, 120944, Note_on_c, 12, 61, 0
16, 120960, Note_on_c, 12, 70, 76
16, 121424, Note_on_c, 12, 70, 0
16, 121440, Note_on_c, 12, 61, 76
16, 121664, Note_on_c, 12, 61, 0
16, 121680, Note_on_c, 12, 62, 76
16, 121904, Note_on_c, 12, 62, 0
16, 121920, Note_on_c, 12, 64, 76
16, 122144, Note_on_c, 12, 64, 0
16, 122160, Note_on_c, 12, 66, 76
16, 122384, Note_on_c, 12, 66, 0
16, 122400, Note_on_c, 12, 64, 76
16, 122624, Note_on_c, 12, 64, 0
16, 122640, Note_on_c, 12, 62, 76
16, 123119, Note_on_c, 12, 62, 0
16, 123360, Note_on_c, 12, 59, 76
16, 123584, Note_on_c, 12, 59, 0
16, 123600, Note_on_c, 12, 59, 76
16, 124064, Note_on_c, 12, 59, 0
16, 124080, Note_on_c, 12, 61, 76
16, 124544, Note_on_c, 12, 61, 0
16, 124560, Note_on_c, 12, 62, 76
16, 124784, Note_on_c, 12, 62, 0
16, 124800, Note_on_c, 12, 62, 76
16, 125279, Note_on_c, 12, 62, 0
16, 126720, Note_on_c, 12, 61, 76
16, 126824, Note_on_c, 12, 61, 0
16, 126840, Note_on_c, 12, 64, 76
16, 126944, Note_on_c, 12, 64, 0
16, 126960, Note_on_c, 12, 69, 76
16, 127184, Note_on_c, 12, 69, 0
16, 127200, Note_on_c, 12, 69, 76
16, 127424, Note_on_c, 12, 69, 0
16, 127440, Note_on_c, 12, 69, 76
16, 127664, Note_on_c, 12, 69, 0
16, 127680, Note_on_c, 12, 62, 76
16, 127904, Note_on_c, 12, 62, 0
16, 127920, Note_on_c, 12, 62, 76
16, 128144, Note_on_c, 12, 62, 0
16, 128160, Note_on_c, 12, 69, 76
16, 128384, Note_on_c, 12, 69, 0
16, 128400, Note_on_c, 12, 69, 76
16, 128624, Note_on_c, 12, 69, 0
16, 128640, Note_on_c, 12, 61, 76
16, 129104, Note_on_c, 12, 61, 0
16, 129120, Note_on_c, 12, 69, 76
16, 129344, Note_on_c, 12, 69, 0
16, 129360, Note_on_c, 12, 69, 76
16, 129584, Note_on_c, 12, 69, 0
16, 129600, Note_on_c, 12, 71, 76
16, 129824, Note_on_c, 12, 71, 0
16, 129840, Note_on_c, 12, 66, 76
16, 130064, Note_on_c, 12, 66, 0
16, 130080, Note_on_c, 12, 67, 76
16, 130304, Note_on_c, 12, 67, 0
16, 130320, Note_on_c, 12, 66, 76
16, 131024, Note_on_c, 12, 66, 0
16, 131040, Note_on_c, 12, 64, 76
16, 131264, Note_on_c, 12, 64, 0
16, 131280, Note_on_c, 12, 69, 76
16, 131504, Note_on_c, 12, 69, 0
16, 131520, Note_on_c, 12, 64, 76
16, 131744, Note_on_c, 12, 64, 0
16, 131760, Note_on_c, 12, 69, 76
16, 131984, Note_on_c, 12, 69, 0
16, 132000, Note_on_c, 12, 64, 76
16, 132224, Note_on_c, 12, 64, 0
16, 132240, Note_on_c, 12, 69, 76
16, 132464, Note_on_c, 12, 69, 0
16, 132480, Note_on_c, 12, 57, 76
16, 132944, Note_on_c, 12, 57, 0
16, 132960, Note_on_c, 12, 61, 76
16, 133184, Note_on_c, 12, 61, 0
16, 133200, Note_on_c, 12, 62, 76
16, 133424, Note_on_c, 12, 62, 0
16, 133440, Note_on_c, 12, 66, 76
16, 133664, Note_on_c, 12, 66, 0
16, 133680, Note_on_c, 12, 71, 76
16, 133904, Note_on_c, 12, 71, 0
16, 133920, Note_on_c, 12, 66, 76
16, 134144, Note_on_c, 12, 66, 0
16, 134160, Note_on_c, 12, 66, 76
16, 134384, Note_on_c, 12, 66, 0
16, 134400, Note_on_c, 12, 62, 76
16, 134864, Note_on_c, 12, 62, 0
16, 134880, Note_on_c, 12, 66, 76
16, 135104, Note_on_c, 12, 66, 0
16, 135120, Note_on_c, 12, 59, 76
16, 135344, Note_on_c, 12, 59, 0
16, 135360, Note_on_c, 12, 64, 76
16, 135824, Note_on_c, 12, 64, 0
16, 135840, Note_on_c, 12, 64, 76
16, 136064, Note_on_c, 12, 64, 0
16, 136080, Note_on_c, 12, 61, 76
16, 136304, Note_on_c, 12, 61, 0
16, 136320, Note_on_c, 12, 70, 76
16, 136784, Note_on_c, 12, 70, 0
16, 136800, Note_on_c, 12, 61, 76
16, 137024, Note_on_c, 12, 61, 0
16, 137040, Note_on_c, 12, 62, 76
16, 137264, Note_on_c, 12, 62, 0
16, 137280, Note_on_c, 12, 64, 76
16, 137504, Note_on_c, 12, 64, 0
16, 137520, Note_on_c, 12, 66, 76
16, 137744, Note_on_c, 12, 66, 0
16, 137760, Note_on_c, 12, 64, 76
16, 137984, Note_on_c, 12, 64, 0
16, 138000, Note_on_c, 12, 62, 76
16, 138479, Note_on_c, 12, 62, 0
16, 138720, Note_on_c, 12, 59, 76
16, 138944, Note_on_c, 12, 59, 0
16, 138960, Note_on_c, 12, 59, 76
16, 139424, Note_on_c, 12, 59, 0
16, 139440, Note_on_c, 12, 61, 76
16, 139904, Note_on_c, 12, 61, 0
16, 139920, Note_on_c, 12, 62, 76
16, 140144, Note_on_c, 12, 62, 0
16, 140160, Note_on_c, 12, 62, 76
16, 140639, Note_on_c, 12, 62, 0
16, 142080, Note_on_c, 12, 61, 76
16, 142184, Note_on_c, 12, 61, 0
16, 142200, Note_on_c, 12, 64, 76
16, 142304, Note_on_c, 12, 64, 0
16, 142320, Note_on_c, 12, 69, 76
16, 142544, Note_on_c, 12, 69, 0
16, 142560, Note_on_c, 12, 69, 76
16, 142784, Note_on_c, 12, 69, 0
16, 142800, Note_on_c, 12, 69, 76
16, 143024, Note_on_c, 12, 69, 0
16, 143040, Note_on_c, 12, 62, 76
16, 143264, Note_on_c, 12, 62, 0
16, 143280, Note_on_c, 12, 62, 76
16, 143504, Note_on_c, 12, 62, 0
16, 143520, Note_on_c, 12, 69, 76
16, 143744, Note_on_c, 12, 69, 0
16, 143760, Note_on_c, 12, 69, 76
16, 143984, Note_on_c, 12, 69, 0
16, 144000, Note_on_c, 12, 61, 76
16, 144464, Note_on_c, 12, 61, 0
16, 144480, Note_on_c, 12, 69, 76
16, 144704, Note_on_c, 12, 69, 0
16, 144720, Note_on_c, 12, 69, 76
16, 144944, Note_on_c, 12, 69, 0
16, 144960, Note_on_c, 12, 71, 76
16, 145184, Note_on_c, 12, 71, 0
16, 145200, Note_on_c, 12, 66, 76
16, 145424, Note_on_c, 12, 66, 0
16, 145440, Note_on_c, 12, 67, 76
16, 145664, Note_on_c, 12, 67, 0
16, 145680, Note_on_c, 12, 66, 76
16, 146399, Note_on_c, 12, 66, 0
16, 146399, End_track
17, 0, Start_track
17, 0, Title_t, "Cello"
17, 0, MIDI_port, 0
17, 0, Program_c, 13, 48
17, 0, Control_c, 13, 10, 90
17, 0, Control_c, 13, 11, 127
17, 0, Control_c, 13, 7, 96
17, 0, Note_on_c, 13, 62, 76
17, 104, Note_on_c, 13, 62, 0
17, 120, Note_on_c, 13, 61, 76
17, 224, Note_on_c, 13, 61, 0
17, 240, Note_on_c, 13, 59, 76
17, 464, Note_on_c, 13, 59, 0
17, 480, Note_on_c, 13, 47, 76
17, 704, Note_on_c, 13, 47, 0
17, 720, Note_on_c, 13, 45, 76
17, 944, Note_on_c, 13, 45, 0
17, 960, Note_on_c, 13, 43, 76
17, 1184, Note_on_c, 13, 43, 0
17, 1200, Note_on_c, 13, 42, 76
17, 1424, Note_on_c, 13, 42, 0
17, 1440, Note_on_c, 13, 54, 76
17, 1664, Note_on_c, 13, 54, 0
17, 1680, Note_on_c, 13, 52, 76
17, 1904, Note_on_c, 13, 52, 0
17, 1920, Note_on_c, 13, 50, 76
17, 2144, Note_on_c, 13, 50, 0
17, 2160, Note_on_c, 13, 55, 76
17, 2384, Note_on_c, 13, 55, 0
17, 2400, Note_on_c, 13, 42, 76
17, 2624, Note_on_c, 13, 42, 0
17, 2640, Note_on_c, 13, 40, 76
17, 2864, Note_on_c, 13, 40, 0
17, 2880, Note_on_c, 13, 38, 76
17, 3104, Note_on_c, 13, 38, 0
17, 3120, Note_on_c, 13, 45, 76
17, 3344, Note_on_c, 13, 45, 0
17, 3360, Note_on_c, 13, 49, 76
17, 3464, Note_on_c, 13, 49, 0
17, 3480, Note_on_c, 13, 47, 76
17, 3584, Note_on_c, 13, 47, 0
17, 3600, Note_on_c, 13, 45, 76
17, 3824, Note_on_c, 13, 45, 0
17, 3840, Note_on_c, 13, 43, 76
17, 4064, Note_on_c, 13, 43, 0
17, 4080, Note_on_c, 13, 42, 76
17, 4304, Note_on_c, 13, 42, 0
17, 4320, Note_on_c, 13, 47, 76
17, 4544, Note_on_c, 13, 47, 0
17, 4560, Note_on_c, 13, 49, 76
17, 4784, Note_on_c, 13, 49, 0
17, 4800, Note_on_c, 13, 50, 76
17, 5024, Note_on_c, 13, 50, 0
17, 5040, Note_on_c, 13, 44, 76
17, 5264, Note_on_c, 13, 44, 0
17, 5280, Note_on_c, 13, 56, 76
17, 5504, Note_on_c, 13, 56, 0
17, 5520, Note_on_c, 13, 54, 76
17, 5744, Note_on_c, 13, 54, 0
17, 5760, Note_on_c, 13, 52, 76
17, 5984, Note_on_c, 13, 52, 0
17, 6000, Note_on_c, 13, 61, 76
17, 6224, Note_on_c, 13, 61, 0
17, 6240, Note_on_c, 13, 54, 76
17, 6464, Note_on_c, 13, 54, 0
17, 6480, Note_on_c, 13, 52, 76
17, 6704, Note_on_c, 13, 52, 0
17, 6720, Note_on_c, 13, 40, 76
17, 6944, Note_on_c, 13, 40, 0
17, 6960, Note_on_c, 13, 45, 76
17, 7664, Note_on_c, 13, 45, 0
17, 7680, Note_on_c, 13, 62, 76
17, 7784, Note_on_c, 13, 62, 0
17, 7800, Note_on_c, 13, 61, 76
17, 7904, Note_on_c, 13, 61, 0
17, 7920, Note_on_c, 13, 59, 76
17, 8144, Note_on_c, 13, 59, 0
17, 8160, Note_on_c, 13, 47, 76
17, 8384, Note_on_c, 13, 47, 0
17, 8400, Note_on_c, 13, 45, 76
17, 8624, Note_on_c, 13, 45, 0
17, 8640, Note_on_c, 13, 43, 76
17, 8864, Note_on_c, 13, 43, 0
17, 8880, Note_on_c, 13, 42, 76
17, 9104, Note_on_c, 13, 42, 0
17, 9120, Note_on_c, 13, 54, 76
17, 9344, Note_on_c, 13, 54, 0
17, 9360, Note_on_c, 13, 52, 76
17, 9584, Note_on_c, 13, 52, 0
17, 9600, Note_on_c, 13, 50, 76
17, 9824, Note_on_c, 13, 50, 0
17, 9840, Note_on_c, 13, 55, 76
17, 10064, Note_on_c, 13, 55, 0
17, 10080, Note_on_c, 13, 42, 76
17, 10304, Note_on_c, 13, 42, 0
17, 10320, Note_on_c, 13, 40, 76
17, 10544, Note_on_c, 13, 40, 0
17, 10560, Note_on_c, 13, 38, 76
17, 10784, Note_on_c, 13, 38, 0
17, 10800, Note_on_c, 13, 45, 76
17, 11024, Note_on_c, 13, 45, 0
17, 11040, Note_on_c, 13, 49, 76
17, 11144, Note_on_c, 13, 49, 0
17, 11160, Note_on_c, 13, 47, 76
17, 11264, Note_on_c, 13, 47, 0
17, 11280, Note_on_c, 13, 45, 76
17, 11504, Note_on_c, 13, 45, 0
17, 11520, Note_on_c, 13, 43, 76
17, 11744, Note_on_c, 13, 43, 0
17, 11760, Note_on_c, 13, 42, 76
17, 11984, Note_on_c, 13, 42, 0
17, 12000, Note_on_c, 13, 47, 76
17, 12224, Note_on_c, 13, 47, 0
17, 12240, Note_on_c, 13, 49, 76
17, 12464, Note_on_c, 13, 49, 0
17, 12480, Note_on_c, 13, 50, 76
17, 12704, Note_on_c, 13, 50, 0
17, 12720, Note_on_c, 13, 44, 76
17, 12944, Note_on_c, 13, 44, 0
17, 12960, Note_on_c, 13, 56, 76
17, 13184, Note_on_c, 13, 56, 0
17, 13200, Note_on_c, 13, 54, 76
17, 13424, Note_on_c, 13, 54, 0
17, 13440, Note_on_c, 13, 52, 76
17, 13664, Note_on_c, 13, 52, 0
17, 13680, Note_on_c, 13, 61, 76
17, 13904, Note_on_c, 13, 61, 0
17, 13920, Note_on_c, 13, 54, 76
17, 14144, Note_on_c, 13, 54, 0
17, 14160, Note_on_c, 13, 52, 76
17, 14384, Note_on_c, 13, 52, 0
17, 14400, Note_on_c, 13, 40, 76
17, 14624, Note_on_c, 13, 40, 0
17, 14640, Note_on_c, 13, 45, 76
17, 15344, Note_on_c, 13, 45, 0
17, 15360, Note_on_c, 13, 45, 76
17, 15584, Note_on_c, 13, 45, 0
17, 15600, Note_on_c, 13, 57, 76
17, 15824, Note_on_c, 13, 57, 0
17, 15840, Note_on_c, 13, 57, 76
17, 16064, Note_on_c, 13, 57, 0
17, 16080, Note_on_c, 13, 57, 76
17, 16304, Note_on_c, 13, 57, 0
17, 16320, Note_on_c, 13, 45, 76
17, 16544, Note_on_c, 13, 45, 0
17, 16560, Note_on_c, 13, 57, 76
17, 16784, Note_on_c, 13, 57, 0
17, 16800, Note_on_c, 13, 55, 76
17, 17024, Note_on_c, 13, 55, 0
17, 17040, Note_on_c, 13, 54, 76
17, 17264, Note_on_c, 13, 54, 0
17, 17280, Note_on_c, 13, 52, 76
17, 17504, Note_on_c, 13, 52, 0
17, 17520, Note_on_c, 13, 50, 76
17, 17744, Note_on_c, 13, 50, 0
17, 17760, Note_on_c, 13, 47, 76
17, 17984, Note_on_c, 13, 47, 0
17, 18000, Note_on_c, 13, 50, 76
17, 18224, Note_on_c, 13, 50, 0
17, 18240, Note_on_c, 13, 54, 76
17, 18464, Note_on_c, 13, 54, 0
17, 18480, Note_on_c, 13, 59, 76
17, 18704, Note_on_c, 13, 59, 0
17, 18720, Note_on_c, 13, 45, 76
17, 18944, Note_on_c, 13, 45, 0
17, 18960, Note_on_c, 13, 43, 76
17, 19184, Note_on_c, 13, 43, 0
17, 19200, Note_on_c, 13, 42, 76
17, 19424, Note_on_c, 13, 42, 0
17, 19440, Note_on_c, 13, 40, 76
17, 19664, Note_on_c, 13, 40, 0
17, 19680, Note_on_c, 13, 52, 76
17, 19904, Note_on_c, 13, 52, 0
17, 19920, Note_on_c, 13, 50, 76
17, 20144, Note_on_c, 13, 50, 0
17, 20160, Note_on_c, 13, 49, 76
17, 20384, Note_on_c, 13, 49, 0
17, 20400, Note_on_c, 13, 54, 76
17, 20624, Note_on_c, 13, 54, 0
17, 20640, Note_on_c, 13, 42, 76
17, 20864, Note_on_c, 13, 42, 0
17, 20880, Note_on_c, 13, 44, 76
17, 21104, Note_on_c, 13, 44, 0
17, 21120, Note_on_c, 13, 46, 76
17, 21344, Note_on_c, 13, 46, 0
17, 21360, Note_on_c, 13, 38, 76
17, 21584, Note_on_c, 13, 38, 0
17, 21600, Note_on_c, 13, 43, 76
17, 21824, Note_on_c, 13, 43, 0
17, 21840, Note_on_c, 13, 42, 76
17, 22064, Note_on_c, 13, 42, 0
17, 22080, Note_on_c, 13, 54, 76
17, 22304, Note_on_c, 13, 54, 0
17, 22320, Note_on_c, 13, 59, 76
17, 22544, Note_on_c, 13, 59, 0
17, 22560, Note_on_c, 13, 54, 76
17, 22784, Note_on_c, 13, 54, 0
17, 22800, Note_on_c, 13, 50, 76
17, 23024, Note_on_c, 13, 50, 0
17, 23040, Note_on_c, 13, 54, 76
17, 23264, Note_on_c, 13, 54, 0
17, 23280, Note_on_c, 13, 47, 76
17, 23504, Note_on_c, 13, 47, 0
17, 23520, Note_on_c, 13, 59, 76
17, 23744, Note_on_c, 13, 59, 0
17, 23760, Note_on_c, 13, 57, 76
17, 23984, Note_on_c, 13, 57, 0
17, 24000, Note_on_c, 13, 55, 76
17, 24224, Note_on_c, 13, 55, 0
17, 24240, Note_on_c, 13, 54, 76
17, 24464, Note_on_c, 13, 54, 0
17, 24480, Note_on_c, 13, 42, 76
17, 24704, Note_on_c, 13, 42, 0
17, 24720, Note_on_c, 13, 40, 76
17, 24944, Note_on_c, 13, 40, 0
17, 24960, Note_on_c, 13, 38, 76
17, 25184, Note_on_c, 13, 38, 0
17, 25200, Note_on_c, 13, 43, 76
17, 25424, Note_on_c, 13, 43, 0
17, 25440, Note_on_c, 13, 54, 76
17, 25664, Note_on_c, 13, 54, 0
17, 25680, Note_on_c, 13, 52, 76
17, 25904, Note_on_c, 13, 52, 0
17, 25920, Note_on_c, 13, 50, 76
17, 26144, Note_on_c, 13, 50, 0
17, 26160, Note_on_c, 13, 57, 76
17, 26384, Note_on_c, 13, 57, 0
17, 26400, Note_on_c, 13, 49, 76
17, 26504, Note_on_c, 13, 49, 0
17, 26520, Note_on_c, 13, 47, 76
17, 26624, Note_on_c, 13, 47, 0
17, 26640, Note_on_c, 13, 45, 76
17, 26864, Note_on_c, 13, 45, 0
17, 26880, Note_on_c, 13, 43, 76
17, 27104, Note_on_c, 13, 43, 0
17, 27120, Note_on_c, 13, 42, 76
17, 27344, Note_on_c, 13, 42, 0
17, 27360, Note_on_c, 13, 54, 76
17, 27584, Note_on_c, 13, 54, 0
17, 27600, Note_on_c, 13, 55, 76
17, 27824, Note_on_c, 13, 55, 0
17, 27840, Note_on_c, 13, 57, 76
17, 28064, Note_on_c, 13, 57, 0
17, 28080, Note_on_c, 13, 55, 76
17, 28304, Note_on_c, 13, 55, 0
17, 28320, Note_on_c, 13, 52, 76
17, 28544, Note_on_c, 13, 52, 0
17, 28560, Note_on_c, 13, 49, 76
17, 28784, Note_on_c, 13, 49, 0
17, 28800, Note_on_c, 13, 45, 76
17, 29024, Note_on_c, 13, 45, 0
17, 29040, Note_on_c, 13, 50, 76
17, 29264, Note_on_c, 13, 50, 0
17, 29280, Note_on_c, 13, 55, 76
17, 29504, Note_on_c, 13, 55, 0
17, 29520, Note_on_c, 13, 57, 76
17, 29744, Note_on_c, 13, 57, 0
17, 29760, Note_on_c, 13, 45, 76
17, 29984, Note_on_c, 13, 45, 0
17, 30000, Note_on_c, 13, 50, 76
17, 30224, Note_on_c, 13, 50, 0
17, 30240, Note_on_c, 13, 54, 76
17, 30344, Note_on_c, 13, 54, 0
17, 30360, Note_on_c, 13, 57, 76
17, 30464, Note_on_c, 13, 57, 0
17, 30480, Note_on_c, 13, 62, 76
17, 30704, Note_on_c, 13, 62, 0
17, 30720, Note_on_c, 13, 45, 76
17, 30944, Note_on_c, 13, 45, 0
17, 30960, Note_on_c, 13, 57, 76
17, 31184, Note_on_c, 13, 57, 0
17, 31200, Note_on_c, 13, 57, 76
17, 31424, Note_on_c, 13, 57, 0
17, 31440, Note_on_c, 13, 57, 76
17, 31664, Note_on_c, 13, 57, 0
17, 31680, Note_on_c, 13, 45, 76
17, 31904, Note_on_c, 13, 45, 0
17, 31920, Note_on_c, 13, 57, 76
17, 32144, Note_on_c, 13, 57, 0
17, 32160, Note_on_c, 13, 55, 76
17, 32384, Note_on_c, 13, 55, 0
17, 32400, Note_on_c, 13, 54, 76
17, 32624, Note_on_c, 13, 54, 0
17, 32640, Note_on_c, 13, 52, 76
17, 32864, Note_on_c, 13, 52, 0
17, 32880, Note_on_c, 13, 50, 76
17, 33104, Note_on_c, 13, 50, 0
17, 33120, Note_on_c, 13, 47, 76
17, 33344, Note_on_c, 13, 47, 0
17, 33360, Note_on_c, 13, 50, 76
17, 33584, Note_on_c, 13, 50, 0
17, 33600, Note_on_c, 13, 54, 76
17, 33824, Note_on_c, 13, 54, 0
17, 33840, Note_on_c, 13, 59, 76
17, 34064, Note_on_c, 13, 59, 0
17, 34080, Note_on_c, 13, 45, 76
17, 34304, Note_on_c, 13, 45, 0
17, 34320, Note_on_c, 13, 43, 76
17, 34544, Note_on_c, 13, 43, 0
17, 34560, Note_on_c, 13, 42, 76
17, 34784, Note_on_c, 13, 42, 0
17, 34800, Note_on_c, 13, 40, 76
17, 35024, Note_on_c, 13, 40, 0
17, 35040, Note_on_c, 13, 52, 76
17, 35264, Note_on_c, 13, 52, 0
17, 35280, Note_on_c, 13, 50, 76
17, 35504, Note_on_c, 13, 50, 0
17, 35520, Note_on_c, 13, 49, 76
17, 35744, Note_on_c, 13, 49, 0
17, 35760, Note_on_c, 13, 54, 76
17, 35984, Note_on_c, 13, 54, 0
17, 36000, Note_on_c, 13, 42, 76
17, 36224, Note_on_c, 13, 42, 0
17, 36240, Note_on_c, 13, 44, 76
17, 36464, Note_on_c, 13, 44, 0
17, 36480, Note_on_c, 13, 46, 76
17, 36704, Note_on_c, 13, 46, 0
17, 36720, Note_on_c, 13, 38, 76
17, 36944, Note_on_c, 13, 38, 0
17, 36960, Note_on_c, 13, 43, 76
17, 37184, Note_on_c, 13, 43, 0
17, 37200, Note_on_c, 13, 42, 76
17, 37424, Note_on_c, 13, 42, 0
17, 37440, Note_on_c, 13, 54, 76
17, 37664, Note_on_c, 13, 54, 0
17, 37680, Note_on_c, 13, 59, 76
17, 37904, Note_on_c, 13, 59, 0
17, 37920, Note_on_c, 13, 54, 76
17, 38144, Note_on_c, 13, 54, 0
17, 38160, Note_on_c, 13, 50, 76
17, 38384, Note_on_c, 13, 50, 0
17, 38400, Note_on_c, 13, 54, 76
17, 38624, Note_on_c, 13, 54, 0
17, 38640, Note_on_c, 13, 47, 76
17, 38864, Note_on_c, 13, 47, 0
17, 38880, Note_on_c, 13, 59, 76
17, 39104, Note_on_c, 13, 59, 0
17, 39120, Note_on_c, 13, 57, 76
17, 39344, Note_on_c, 13, 57, 0
17, 39360, Note_on_c, 13, 55, 76
17, 39584, Note_on_c, 13, 55, 0
17, 39600, Note_on_c, 13, 54, 76
17, 39824, Note_on_c, 13, 54, 0
17, 39840, Note_on_c, 13, 42, 76
17, 40064, Note_on_c, 13, 42, 0
17, 40080, Note_on_c, 13, 40, 76
17, 40304, Note_on_c, 13, 40, 0
17, 40320, Note_on_c, 13, 38, 76
17, 40544, Note_on_c, 13, 38, 0
17, 40560, Note_on_c, 13, 43, 76
17, 40784, Note_on_c, 13, 43, 0
17, 40800, Note_on_c, 13, 54, 76
17, 41024, Note_on_c, 13, 54, 0
17, 41040, Note_on_c, 13, 52, 76
17, 41264, Note_on_c, 13, 52, 0
17, 41280, Note_on_c, 13, 50, 76
17, 41504, Note_on_c, 13, 50, 0
17, 41520, Note_on_c, 13, 57, 76
17, 41744, Note_on_c, 13, 57, 0
17, 41760, Note_on_c, 13, 49, 76
17, 41864, Note_on_c, 13, 49, 0
17, 41880, Note_on_c, 13, 47, 76
17, 41984, Note_on_c, 13, 47, 0
17, 42000, Note_on_c, 13, 45, 76
17, 42224, Note_on_c, 13, 45, 0
17, 42240, Note_on_c, 13, 43, 76
17, 42464, Note_on_c, 13, 43, 0
17, 42480, Note_on_c, 13, 42, 76
17, 42704, Note_on_c, 13, 42, 0
17, 42720, Note_on_c, 13, 54, 76
17, 42944, Note_on_c, 13, 54, 0
17, 42960, Note_on_c, 13, 55, 76
17, 43184, Note_on_c, 13, 55, 0
17, 43200, Note_on_c, 13, 57, 76
17, 43424, Note_on_c, 13, 57, 0
17, 43440, Note_on_c, 13, 55, 76
17, 43664, Note_on_c, 13, 55, 0
17, 43680, Note_on_c, 13, 52, 76
17, 43904, Note_on_c, 13, 52, 0
17, 43920, Note_on_c, 13, 49, 76
17, 44144, Note_on_c, 13, 49, 0
17, 44160, Note_on_c, 13, 45, 76
17, 44384, Note_on_c, 13, 45, 0
17, 44400, Note_on_c, 13, 50, 76
17, 44624, Note_on_c, 13, 50, 0
17, 44640, Note_on_c, 13, 55, 76
17, 44864, Note_on_c, 13, 55, 0
17, 44880, Note_on_c, 13, 57, 76
17, 45104, Note_on_c, 13, 57, 0
17, 45120, Note_on_c, 13, 45, 76
17, 45344, Note_on_c, 13, 45, 0
17, 45360, Note_on_c, 13, 50, 76
17, 45584, Note_on_c, 13, 50, 0
17, 45600, Note_on_c, 13, 54, 76
17, 45704, Note_on_c, 13, 54, 0
17, 45720, Note_on_c, 13, 57, 76
17, 45824, Note_on_c, 13, 57, 0
17, 45840, Note_on_c, 13, 62, 76
17, 46064, Note_on_c, 13, 62, 0
17, 46320, Note_on_c, 13, 47, 76
17, 46544, Note_on_c, 13, 47, 0
17, 46560, Note_on_c, 13, 59, 76
17, 47039, Note_on_c, 13, 59, 0
17, 47280, Note_on_c, 13, 52, 76
17, 47504, Note_on_c, 13, 52, 0
17, 47520, Note_on_c, 13, 54, 76
17, 47999, Note_on_c, 13, 54, 0
17, 48240, Note_on_c, 13, 49, 76
17, 48464, Note_on_c, 13, 49, 0
17, 48480, Note_on_c, 13, 50, 76
17, 48704, Note_on_c, 13, 50, 0
17, 48720, Note_on_c, 13, 52, 76
17, 48944, Note_on_c, 13, 52, 0
17, 48960, Note_on_c, 13, 54, 76
17, 49184, Note_on_c, 13, 54, 0
17, 49200, Note_on_c, 13, 42, 76
17, 49424, Note_on_c, 13, 42, 0
17, 49440, Note_on_c, 13, 47, 76
17, 49664, Note_on_c, 13, 47, 0
17, 49680, Note_on_c, 13, 54, 76
17, 49904, Note_on_c, 13, 54, 0
17, 49920, Note_on_c, 13, 59, 76
17, 50144, Note_on_c, 13, 59, 0
17, 50160, Note_on_c, 13, 47, 76
17, 50384, Note_on_c, 13, 47, 0
17, 50400, Note_on_c, 13, 54, 76
17, 50879, Note_on_c, 13, 54, 0
17, 51120, Note_on_c, 13, 58, 76
17, 51344, Note_on_c, 13, 58, 0
17, 51360, Note_on_c, 13, 59, 76
17, 51839, Note_on_c, 13, 59, 0
17, 52080, Note_on_c, 13, 47, 76
17, 52304, Note_on_c, 13, 47, 0
17, 52320, Note_on_c, 13, 52, 76
17, 52799, Note_on_c, 13, 52, 0
17, 53040, Note_on_c, 13, 45, 76
17, 53264, Note_on_c, 13, 45, 0
17, 53280, Note_on_c, 13, 50, 76
17, 53759, Note_on_c, 13, 50, 0
17, 54000, Note_on_c, 13, 62, 76
17, 54224, Note_on_c, 13, 62, 0
17, 54240, Note_on_c, 13, 56, 76
17, 54719, Note_on_c, 13, 56, 0
17, 54960, Note_on_c, 13, 61, 76
17, 55184, Note_on_c, 13, 61, 0
17, 55200, Note_on_c, 13, 57, 76
17, 55679, Note_on_c, 13, 57, 0
17, 55920, Note_on_c, 13, 53, 76
17, 56144, Note_on_c, 13, 53, 0
17, 56160, Note_on_c, 13, 54, 76
17, 56384, Note_on_c, 13, 54, 0
17, 56400, Note_on_c, 13, 50, 76
17, 56624, Note_on_c, 13, 50, 0
17, 56640, Note_on_c, 13, 47, 76
17, 56864, Note_on_c, 13, 47, 0
17, 56880, Note_on_c, 13, 49, 76
17, 57104, Note_on_c, 13, 49, 0
17, 57120, Note_on_c, 13, 42, 76
17, 57824, Note_on_c, 13, 42, 0
17, 57840, Note_on_c, 13, 47, 76
17, 58064, Note_on_c, 13, 47, 0
17, 58080, Note_on_c, 13, 59, 76
17, 58559, Note_on_c, 13, 59, 0
17, 58800, Note_on_c, 13, 52, 76
17, 59024, Note_on_c, 13, 52, 0
17, 59040, Note_on_c, 13, 54, 76
17, 59519, Note_on_c, 13, 54, 0
17, 59760, Note_on_c, 13, 49, 76
17, 59984, Note_on_c, 13, 49, 0
17, 60000, Note_on_c, 13, 50, 76
17, 60224, Note_on_c, 13, 50, 0
17, 60240, Note_on_c, 13, 52, 76
17, 60464, Note_on_c, 13, 52, 0
17, 60480, Note_on_c, 13, 54, 76
17, 60704, Note_on_c, 13, 54, 0
17, 60720, Note_on_c, 13, 42, 76
17, 60944, Note_on_c, 13, 42, 0
17, 60960, Note_on_c, 13, 47, 76
17, 61184, Note_on_c, 13, 47, 0
17, 61200, Note_on_c, 13, 54, 76
17, 61424, Note_on_c, 13, 54, 0
17, 61440, Note_on_c, 13, 59, 76
17, 61664, Note_on_c, 13, 59, 0
17, 61680, Note_on_c, 13, 47, 76
17, 61904, Note_on_c, 13, 47, 0
17, 61920, Note_on_c, 13, 54, 76
17, 62399, Note_on_c, 13, 54, 0
17, 62640, Note_on_c, 13, 58, 76
17, 62864, Note_on_c, 13, 58, 0
17, 62880, Note_on_c, 13, 59, 76
17, 63359, Note_on_c, 13, 59, 0
17, 63600, Note_on_c, 13, 47, 76
17, 63824, Note_on_c, 13, 47, 0
17, 63840, Note_on_c, 13, 52, 76
17, 64319, Note_on_c, 13, 52, 0
17, 64560, Note_on_c, 13, 45, 76
17, 64784, Note_on_c, 13, 45, 0
17, 64800, Note_on_c, 13, 50, 76
17, 65279, Note_on_c, 13, 50, 0
17, 65520, Note_on_c, 13, 62, 76
17, 65744, Note_on_c, 13, 62, 0
17, 65760, Note_on_c, 13, 56, 76
17, 66239, Note_on_c, 13, 56, 0
17, 66480, Note_on_c, 13, 61, 76
17, 66704, Note_on_c, 13, 61, 0
17, 66720, Note_on_c, 13, 57, 76
17, 67199, Note_on_c, 13, 57, 0
17, 67440, Note_on_c, 13, 53, 76
17, 67664, Note_on_c, 13, 53, 0
17, 67680, Note_on_c, 13, 54, 76
17, 67904, Note_on_c, 13, 54, 0
17, 67920, Note_on_c, 13, 50, 76
17, 68144, Note_on_c, 13, 50, 0
17, 68160, Note_on_c, 13, 47, 76
17, 68384, Note_on_c, 13, 47, 0
17, 68400, Note_on_c, 13, 49, 76
17, 68624, Note_on_c, 13, 49, 0
17, 68640, Note_on_c, 13, 42, 76
17, 69344, Note_on_c, 13, 42, 0
17, 69360, Note_on_c, 13, 54, 76
17, 69584, Note_on_c, 13, 54, 0
17, 69600, Note_on_c, 13, 59, 76
17, 70079, Note_on_c, 13, 59, 0
17, 70320, Note_on_c, 13, 57, 76
17, 70544, Note_on_c, 13, 57, 0
17, 70560, Note_on_c, 13, 55, 76
17, 71039, Note_on_c, 13, 55, 0
17, 71280, Note_on_c, 13, 52, 76
17, 71504, Note_on_c, 13, 52, 0
17, 71520, Note_on_c, 13, 45, 76
17, 71744, Note_on_c, 13, 45, 0
17, 71760, Note_on_c, 13, 47, 76
17, 71984, Note_on_c, 13, 47, 0
17, 72000, Note_on_c, 13, 48, 76
17, 72224, Note_on_c, 13, 48, 0
17, 72240, Note_on_c, 13, 45, 76
17, 72464, Note_on_c, 13, 45, 0
17, 72480, Note_on_c, 13, 47, 76
17, 72704, Note_on_c, 13, 47, 0
17, 72720, Note_on_c, 13, 54, 76
17, 72944, Note_on_c, 13, 54, 0
17, 72960, Note_on_c, 13, 59, 76
17, 73184, Note_on_c, 13, 59, 0
17, 73200, Note_on_c, 13, 47, 76
17, 73424, Note_on_c, 13, 47, 0
17, 73440, Note_on_c, 13, 52, 76
17, 73919, Note_on_c, 13, 52, 0
17, 74160, Note_on_c, 13, 45, 76
17, 74384, Note_on_c, 13, 45, 0
17, 74400, Note_on_c, 13, 57, 76
17, 74879, Note_on_c, 13, 57, 0
17, 75120, Note_on_c, 13, 51, 76
17, 75344, Note_on_c, 13, 51, 0
17, 75360, Note_on_c, 13, 52, 76
17, 75584, Note_on_c, 13, 52, 0
17, 75600, Note_on_c, 13, 48, 76
17, 75824, Note_on_c, 13, 48, 0
17, 75840, Note_on_c, 13, 45, 76
17, 76064, Note_on_c, 13, 45, 0
17, 76080, Note_on_c, 13, 47, 76
17, 76304, Note_on_c, 13, 47, 0
17, 76320, Note_on_c, 13, 40, 76
17, 76544, Note_on_c, 13, 40, 0
17, 76560, Note_on_c, 13, 47, 76
17, 76784, Note_on_c, 13, 47, 0
17, 76800, Note_on_c, 13, 52, 76
17, 77024, Note_on_c, 13, 52, 0
17, 77040, Note_on_c, 13, 40, 76
17, 77264, Note_on_c, 13, 40, 0
17, 77280, Note_on_c, 13, 45, 76
17, 77759, Note_on_c, 13, 45, 0
17, 78000, Note_on_c, 13, 49, 76
17, 78224, Note_on_c, 13, 49, 0
17, 78240, Note_on_c, 13, 50, 76
17, 78719, Note_on_c, 13, 50, 0
17, 78960, Note_on_c, 13, 62, 76
17, 79184, Note_on_c, 13, 62, 0
17, 79200, Note_on_c, 13, 61, 76
17, 79424, Note_on_c, 13, 61, 0
17, 79440, Note_on_c, 13, 59, 76
17, 79664, Note_on_c, 13, 59, 0
17, 79680, Note_on_c, 13, 58, 76
17, 79904, Note_on_c, 13, 58, 0
17, 79920, Note_on_c, 13, 59, 76
17, 80144, Note_on_c, 13, 59, 0
17, 80160, Note_on_c, 13, 54, 76
17, 80384, Note_on_c, 13, 54, 0
17, 80400, Note_on_c, 13, 52, 76
17, 80624, Note_on_c, 13, 52, 0
17, 80640, Note_on_c, 13, 50, 76
17, 80864, Note_on_c, 13, 50, 0
17, 80880, Note_on_c, 13, 47, 76
17, 81104, Note_on_c, 13, 47, 0
17, 81120, Note_on_c, 13, 52, 76
17, 81599, Note_on_c, 13, 52, 0
17, 81840, Note_on_c, 13, 49, 76
17, 82064, Note_on_c, 13, 49, 0
17, 82080, Note_on_c, 13, 50, 76
17, 82559, Note_on_c, 13, 50, 0
17, 82800, Note_on_c, 13, 46, 76
17, 83024, Note_on_c, 13, 46, 0
17, 83040, Note_on_c, 13, 47, 76
17, 83264, Note_on_c, 13, 47, 0
17, 83280, Note_on_c, 13, 43, 76
17, 83504, Note_on_c, 13, 43, 0
17, 83520, Note_on_c, 13, 40, 76
17, 83744, Note_on_c, 13, 40, 0
17, 83760, Note_on_c, 13, 42, 76
17, 83984, Note_on_c, 13, 42, 0
17, 84000, Note_on_c, 13, 47, 76
17, 84704, Note_on_c, 13, 47, 0
17, 84720, Note_on_c, 13, 54, 76
17, 84944, Note_on_c, 13, 54, 0
17, 84960, Note_on_c, 13, 59, 76
17, 85439, Note_on_c, 13, 59, 0
17, 85680, Note_on_c, 13, 57, 76
17, 85904, Note_on_c, 13, 57, 0
17, 85920, Note_on_c, 13, 55, 76
17, 86399, Note_on_c, 13, 55, 0
17, 86640, Note_on_c, 13, 52, 76
17, 86864, Note_on_c, 13, 52, 0
17, 86880, Note_on_c, 13, 45, 76
17, 87104, Note_on_c, 13, 45, 0
17, 87120, Note_on_c, 13, 47, 76
17, 87344, Note_on_c, 13, 47, 0
17, 87360, Note_on_c, 13, 48, 76
17, 87584, Note_on_c, 13, 48, 0
17, 87600, Note_on_c, 13, 45, 76
17, 87824, Note_on_c, 13, 45, 0
17, 87840, Note_on_c, 13, 47, 76
17, 88064, Note_on_c, 13, 47, 0
17, 88080, Note_on_c, 13, 54, 76
17, 88304, Note_on_c, 13, 54, 0
17, 88320, Note_on_c, 13, 59, 76
17, 88544, Note_on_c, 13, 59, 0
17, 88560, Note_on_c, 13, 47, 76
17, 88784, Note_on_c, 13, 47, 0
17, 88800, Note_on_c, 13, 52, 76
17, 89279, Note_on_c, 13, 52, 0
17, 89520, Note_on_c, 13, 45, 76
17, 89744, Note_on_c, 13, 45, 0
17, 89760, Note_on_c, 13, 57, 76
17, 90239, Note_on_c, 13, 57, 0
17, 90480, Note_on_c, 13, 51, 76
17, 90704, Note_on_c, 13, 51, 0
17, 90720, Note_on_c, 13, 52, 76
17, 90944, Note_on_c, 13, 52, 0
17, 90960, Note_on_c, 13, 48, 76
17, 91184, Note_on_c, 13, 48, 0
17, 91200, Note_on_c, 13, 45, 76
17, 91424, Note_on_c, 13, 45, 0
17, 91440, Note_on_c, 13, 47, 76
17, 91664, Note_on_c, 13, 47, 0
17, 91680, Note_on_c, 13, 40, 76
17, 91904, Note_on_c, 13, 40, 0
17, 91920, Note_on_c, 13, 47, 76
17, 92144, Note_on_c, 13, 47, 0
17, 92160, Note_on_c, 13, 52, 76
17, 92384, Note_on_c, 13, 52, 0
17, 92400, Note_on_c, 13, 40, 76
17, 92624, Note_on_c, 13, 40, 0
17, 92640, Note_on_c, 13, 45, 76
17, 93119, Note_on_c, 13, 45, 0
17, 93360, Note_on_c, 13, 49, 76
17, 93584, Note_on_c, 13, 49, 0
17, 93600, Note_on_c, 13, 50, 76
17, 94079, Note_on_c, 13, 50, 0
17, 94320, Note_on_c, 13, 62, 76
17, 94544, Note_on_c, 13, 62, 0
17, 94560, Note_on_c, 13, 61, 76
17, 94784, Note_on_c, 13, 61, 0
17, 94800, Note_on_c, 13, 59, 76
17, 95024, Note_on_c, 13, 59, 0
17, 95040, Note_on_c, 13, 58, 76
17, 95264, Note_on_c, 13, 58, 0
17, 95280, Note_on_c, 13, 59, 76
17, 95504, Note_on_c, 13, 59, 0
17, 95520, Note_on_c, 13, 54, 76
17, 95744, Note_on_c, 13, 54, 0
17, 95760, Note_on_c, 13, 52, 76
17, 95984, Note_on_c, 13, 52, 0
17, 96000, Note_on_c, 13, 50, 76
17, 96224, Note_on_c, 13, 50, 0
17, 96240, Note_on_c, 13, 47, 76
17, 96464, Note_on_c, 13, 47, 0
17, 96480, Note_on_c, 13, 52, 76
17, 96959, Note_on_c, 13, 52, 0
17, 97200, Note_on_c, 13, 49, 76
17, 97424, Note_on_c, 13, 49, 0
17, 97440, Note_on_c, 13, 50, 76
17, 97919, Note_on_c, 13, 50, 0
17, 98160, Note_on_c, 13, 46, 76
17, 98384, Note_on_c, 13, 46, 0
17, 98400, Note_on_c, 13, 47, 76
17, 98624, Note_on_c, 13, 47, 0
17, 98640, Note_on_c, 13, 43, 76
17, 98864, Note_on_c, 13, 43, 0
17, 98880, Note_on_c, 13, 40, 76
17, 99104, Note_on_c, 13, 40, 0
17, 99120, Note_on_c, 13, 42, 76
17, 99344, Note_on_c, 13, 42, 0
17, 99360, Note_on_c, 13, 47, 76
17, 100064, Note_on_c, 13, 47, 0
17, 100320, Note_on_c, 13, 62, 76
17, 100424, Note_on_c, 13, 62, 0
17, 100440, Note_on_c, 13, 61, 76
17, 100544, Note_on_c, 13, 61, 0
17, 100560, Note_on_c, 13, 59, 76
17, 100784, Note_on_c, 13, 59, 0
17, 100800, Note_on_c, 13, 47, 76
17, 101024, Note_on_c, 13, 47, 0
17, 101040, Note_on_c, 13, 45, 76
17, 101264, Note_on_c, 13, 45, 0
17, 101280, Note_on_c, 13, 43, 76
17, 101504, Note_on_c, 13, 43, 0
17, 101520, Note_on_c, 13, 42, 76
17, 101744, Note_on_c, 13, 42, 0
17, 101760, Note_on_c, 13, 54, 76
17, 101984, Note_on_c, 13, 54, 0
17, 102000, Note_on_c, 13, 52, 76
17, 102224, Note_on_c, 13, 52, 0
17, 102240, Note_on_c, 13, 50, 76
17, 102464, Note_on_c, 13, 50, 0
17, 102480, Note_on_c, 13, 55, 76
17, 102704, Note_on_c, 13, 55, 0
17, 102720, Note_on_c, 13, 42, 76
17, 102944, Note_on_c, 13, 42, 0
17, 102960, Note_on_c, 13, 40, 76
17, 103184, Note_on_c, 13, 40, 0
17, 103200, Note_on_c, 13, 38, 76
17, 103424, Note_on_c, 13, 38, 0
17, 103440, Note_on_c, 13, 45, 76
17, 103664, Note_on_c, 13, 45, 0
17, 103680, Note_on_c, 13, 49, 76
17, 103784, Note_on_c, 13, 49, 0
17, 103800, Note_on_c, 13, 47, 76
17, 103904, Note_on_c, 13, 47, 0
17, 103920, Note_on_c, 13, 45, 76
17, 104144, Note_on_c, 13, 45, 0
17, 104160, Note_on_c, 13, 43, 76
17, 104384, Note_on_c, 13, 43, 0
17, 104400, Note_on_c, 13, 42, 76
17, 104624, Note_on_c, 13, 42, 0
17, 104640, Note_on_c, 13, 47, 76
17, 104864, Note_on_c, 13, 47, 0
17, 104880, Note_on_c, 13, 49, 76
17, 105104, Note_on_c, 13, 49, 0
17, 105120, Note_on_c, 13, 50, 76
17, 105344, Note_on_c, 13, 50, 0
17, 105360, Note_on_c, 13, 44, 76
17, 105584, Note_on_c, 13, 44, 0
17, 105600, Note_on_c, 13, 56, 76
17, 105824, Note_on_c, 13, 56, 0
17, 105840, Note_on_c, 13, 54, 76
17, 106064, Note_on_c, 13, 54, 0
17, 106080, Note_on_c, 13, 52, 76
17, 106304, Note_on_c, 13, 52, 0
17, 106320, Note_on_c, 13, 61, 76
17, 106544, Note_on_c, 13, 61, 0
17, 106560, Note_on_c, 13, 54, 76
17, 106784, Note_on_c, 13, 54, 0
17, 106800, Note_on_c, 13, 52, 76
17, 107024, Note_on_c, 13, 52, 0
17, 107040, Note_on_c, 13, 40, 76
17, 107264, Note_on_c, 13, 40, 0
17, 107280, Note_on_c, 13, 45, 76
17, 107984, Note_on_c, 13, 45, 0
17, 108000, Note_on_c, 13, 62, 76
17, 108104, Note_on_c, 13, 62, 0
17, 108120, Note_on_c, 13, 61, 76
17, 108224, Note_on_c, 13, 61, 0
17, 108240, Note_on_c, 13, 59, 76
17, 108464, Note_on_c, 13, 59, 0
17, 108480, Note_on_c, 13, 47, 76
17, 108704, Note_on_c, 13, 47, 0
17, 108720, Note_on_c, 13, 45, 76
17, 108944, Note_on_c, 13, 45, 0
17, 108960, Note_on_c, 13, 43, 76
17, 109184, Note_on_c, 13, 43, 0
17, 109200, Note_on_c, 13, 42, 76
17, 109424, Note_on_c, 13, 42, 0
17, 109440, Note_on_c, 13, 54, 76
17, 109664, Note_on_c, 13, 54, 0
17, 109680, Note_on_c, 13, 52, 76
17, 109904, Note_on_c, 13, 52, 0
17, 109920, Note_on_c, 13, 50, 76
17, 110144, Note_on_c, 13, 50, 0
17, 110160, Note_on_c, 13, 55, 76
17, 110384, Note_on_c, 13, 55, 0
17, 110400, Note_on_c, 13, 42, 76
17, 110624, Note_on_c, 13, 42, 0
17, 110640, Note_on_c, 13, 40, 76
17, 110864, Note_on_c, 13, 40, 0
17, 110880, Note_on_c, 13, 38, 76
17, 111104, Note_on_c, 13, 38, 0
17, 111120, Note_on_c, 13, 45, 76
17, 111344, Note_on_c, 13, 45, 0
17, 111360, Note_on_c, 13, 49, 76
17, 111464, Note_on_c, 13, 49, 0
17, 111480, Note_on_c, 13, 47, 76
17, 111584, Note_on_c, 13, 47, 0
17, 111600, Note_on_c, 13, 45, 76
17, 111824, Note_on_c, 13, 45, 0
17, 111840, Note_on_c, 13, 43, 76
17, 112064, Note_on_c, 13, 43, 0
17, 112080, Note_on_c, 13, 42, 76
17, 112304, Note_on_c, 13, 42, 0
17, 112320, Note_on_c, 13, 47, 76
17, 112544, Note_on_c, 13, 47, 0
17, 112560, Note_on_c, 13, 49, 76
17, 112784, Note_on_c, 13, 49, 0
17, 112800, Note_on_c, 13, 50, 76
17, 113024, Note_on_c, 13, 50, 0
17, 113040, Note_on_c, 13, 44, 76
17, 113264, Note_on_c, 13, 44, 0
17, 113280, Note_on_c, 13, 56, 76
17, 113504, Note_on_c, 13, 56, 0
17, 113520, Note_on_c, 13, 54, 76
17, 113744, Note_on_c, 13, 54, 0
17, 113760, Note_on_c, 13, 52, 76
17, 113984, Note_on_c, 13, 52, 0
17, 114000, Note_on_c, 13, 61, 76
17, 114224, Note_on_c, 13, 61, 0
17, 114240, Note_on_c, 13, 54, 76
17, 114464, Note_on_c, 13, 54, 0
17, 114480, Note_on_c, 13, 52, 76
17, 114704, Note_on_c, 13, 52, 0
17, 114720, Note_on_c, 13, 40, 76
17, 114944, Note_on_c, 13, 40, 0
17, 114960, Note_on_c, 13, 45, 76
17, 115664, Note_on_c, 13, 45, 0
17, 115680, Note_on_c, 13, 45, 76
17, 115904, Note_on_c, 13, 45, 0
17, 115920, Note_on_c, 13, 57, 76
17, 116144, Note_on_c, 13, 57, 0
17, 116160, Note_on_c, 13, 57, 76
17, 116384, Note_on_c, 13, 57, 0
17, 116400, Note_on_c, 13, 57, 76
17, 116624, Note_on_c, 13, 57, 0
17, 116640, Note_on_c, 13, 45, 76
17, 116864, Note_on_c, 13, 45, 0
17, 116880, Note_on_c, 13, 57, 76
17, 117104, Note_on_c, 13, 57, 0
17, 117120, Note_on_c, 13, 55, 76
17, 117344, Note_on_c, 13, 55, 0
17, 117360, Note_on_c, 13, 54, 76
17, 117584, Note_on_c, 13, 54, 0
17, 117600, Note_on_c, 13, 52, 76
17, 117824, Note_on_c, 13, 52, 0
17, 117840, Note_on_c, 13, 50, 76
17, 118064, Note_on_c, 13, 50, 0
17, 118080, Note_on_c, 13, 47, 76
17, 118304, Note_on_c, 13, 47, 0
17, 118320, Note_on_c, 13, 50, 76
17, 118544, Note_on_c, 13, 50, 0
17, 118560, Note_on_c, 13, 54, 76
17, 118784, Note_on_c, 13, 54, 0
17, 118800, Note_on_c, 13, 59, 76
17, 119024, Note_on_c, 13, 59, 0
17, 119040, Note_on_c, 13, 45, 76
17, 119264, Note_on_c, 13, 45, 0
17, 119280, Note_on_c, 13, 43, 76
17, 119504, Note_on_c, 13, 43, 0
17, 119520, Note_on_c, 13, 42, 76
17, 119744, Note_on_c, 13, 42, 0
17, 119760, Note_on_c, 13, 40, 76
17, 119984, Note_on_c, 13, 40, 0
17, 120000, Note_on_c, 13, 52, 76
17, 120224, Note_on_c, 13, 52, 0
17, 120240, Note_on_c, 13, 50, 76
17, 120464, Note_on_c, 13, 50, 0
17, 120480, Note_on_c, 13, 49, 76
17, 120704, Note_on_c, 13, 49, 0
17, 120720, Note_on_c, 13, 54, 76
17, 120944, Note_on_c, 13, 54, 0
17, 120960, Note_on_c, 13, 42, 76
17, 121184, Note_on_c, 13, 42, 0
17, 121200, Note_on_c, 13, 44, 76
17, 121424, Note_on_c, 13, 44, 0
17, 121440, Note_on_c, 13, 46, 76
17, 121664, Note_on_c, 13, 46, 0
17, 121680, Note_on_c, 13, 38, 76
17, 121904, Note_on_c, 13, 38, 0
17, 121920, Note_on_c, 13, 43, 76
17, 122144, Note_on_c, 13, 43, 0
17, 122160, Note_on_c, 13, 42, 76
17, 122384, Note_on_c, 13, 42, 0
17, 122400, Note_on_c, 13, 54, 76
17, 122624, Note_on_c, 13, 54, 0
17, 122640, Note_on_c, 13, 59, 76
17, 122864, Note_on_c, 13, 59, 0
17, 122880, Note_on_c, 13, 54, 76
17, 123104, Note_on_c, 13, 54, 0
17, 123120, Note_on_c, 13, 50, 76
17, 123344, Note_on_c, 13, 50, 0
17, 123360, Note_on_c, 13, 54, 76
17, 123584, Note_on_c, 13, 54, 0
17, 123600, Note_on_c, 13, 47, 76
17, 123824, Note_on_c, 13, 47, 0
17, 123840, Note_on_c, 13, 59, 76
17, 124064, Note_on_c, 13, 59, 0
17, 124080, Note_on_c, 13, 57, 76
17, 124304, Note_on_c, 13, 57, 0
17, 124320, Note_on_c, 13, 55, 76
17, 124544, Note_on_c, 13, 55, 0
17, 124560, Note_on_c, 13, 54, 76
17, 124784, Note_on_c, 13, 54, 0
17, 124800, Note_on_c, 13, 42, 76
17, 125024, Note_on_c, 13, 42, 0
17, 125040, Note_on_c, 13, 40, 76
17, 125264, Note_on_c, 13, 40, 0
17, 125280, Note_on_c, 13, 38, 76
17, 125504, Note_on_c, 13, 38, 0
17, 125520, Note_on_c, 13, 43, 76
17, 125744, Note_on_c, 13, 43, 0
17, 125760, Note_on_c, 13, 54, 76
17, 125984, Note_on_c, 13, 54, 0
17, 126000, Note_on_c, 13, 52, 76
17, 126224, Note_on_c, 13, 52, 0
17, 126240, Note_on_c, 13, 50, 76
17, 126464, Note_on_c, 13, 50, 0
17, 126480, Note_on_c, 13, 57, 76
17, 126704, Note_on_c, 13, 57, 0
17, 126720, Note_on_c, 13, 49, 76
17, 126824, Note_on_c, 13, 49, 0
17, 126840, Note_on_c, 13, 47, 76
17, 126944, Note_on_c, 13, 47, 0
17, 126960, Note_on_c, 13, 45, 76
17, 127184, Note_on_c, 13, 45, 0
17, 127200, Note_on_c, 13, 43, 76
17, 127424, Note_on_c, 13, 43, 0
17, 127440, Note_on_c, 13, 42, 76
17, 127664, Note_on_c, 13, 42, 0
17, 127680, Note_on_c, 13, 54, 76
17, 127904, Note_on_c, 13, 54, 0
17, 127920, Note_on_c, 13, 55, 76
17, 128144, Note_on_c, 13, 55, 0
17, 128160, Note_on_c, 13, 57, 76
17, 128384, Note_on_c, 13, 57, 0
17, 128400, Note_on_c, 13, 55, 76
17, 128624, Note_on_c, 13, 55, 0
17, 128640, Note_on_c, 13, 52, 76
17, 128864, Note_on_c, 13, 52, 0
17, 128880, Note_on_c, 13, 49, 76
17, 129104, Note_on_c, 13, 49, 0
17, 129120, Note_on_c, 13, 45, 76
17, 129344, Note_on_c, 13, 45, 0
17, 129360, Note_on_c, 13, 50, 76
17, 129584, Note_on_c, 13, 50, 0
17, 129600, Note_on_c, 13, 55, 76
17, 129824, Note_on_c, 13, 55, 0
17, 129840, Note_on_c, 13, 57, 76
17, 130064, Note_on_c, 13, 57, 0
17, 130080, Note_on_c, 13, 45, 76
17, 130304, Note_on_c, 13, 45, 0
17, 130320, Note_on_c, 13, 50, 76
17, 130544, Note_on_c, 13, 50, 0
17, 130560, Note_on_c, 13, 54, 76
17, 130664, Note_on_c, 13, 54, 0
17, 130680, Note_on_c, 13, 57, 76
17, 130784, Note_on_c, 13, 57, 0
17, 130800, Note_on_c, 13, 62, 76
17, 131024, Note_on_c, 13, 62, 0
17, 131040, Note_on_c, 13, 45, 76
17, 131264, Note_on_c, 13, 45, 0
17, 131280, Note_on_c, 13, 57, 76
17, 131504, Note_on_c, 13, 57, 0
17, 131520, Note_on_c, 13, 57, 76
17, 131744, Note_on_c, 13, 57, 0
17, 131760, Note_on_c, 13, 57, 76
17, 131984, Note_on_c, 13, 57, 0
17, 132000, Note_on_c, 13, 45, 76
17, 132224, Note_on_c, 13, 45, 0
17, 132240, Note_on_c, 13, 57, 76
17, 132464, Note_on_c, 13, 57, 0
17, 132480, Note_on_c, 13, 55, 76
17, 132704, Note_on_c, 13, 55, 0
17, 132720, Note_on_c, 13, 54, 76
17, 132944, Note_on_c, 13, 54, 0
17, 132960, Note_on_c, 13, 52, 76
17, 133184, Note_on_c, 13, 52, 0
17, 133200, Note_on_c, 13, 50, 76
17, 133424, Note_on_c, 13, 50, 0
17, 133440, Note_on_c, 13, 47, 76
17, 133664, Note_on_c, 13, 47, 0
17, 133680, Note_on_c, 13, 50, 76
17, 133904, Note_on_c, 13, 50, 0
17, 133920, Note_on_c, 13, 54, 76
17, 134144, Note_on_c, 13, 54, 0
17, 134160, Note_on_c, 13, 59, 76
17, 134384, Note_on_c, 13, 59, 0
17, 134400, Note_on_c, 13, 45, 76
17, 134624, Note_on_c, 13, 45, 0
17, 134640, Note_on_c, 13, 43, 76
17, 134864, Note_on_c, 13, 43, 0
17, 134880, Note_on_c, 13, 42, 76
17, 135104, Note_on_c, 13, 42, 0
17, 135120, Note_on_c, 13, 40, 76
17, 135344, Note_on_c, 13, 40, 0
17, 135360, Note_on_c, 13, 52, 76
17, 135584, Note_on_c, 13, 52, 0
17, 135600, Note_on_c, 13, 50, 76
17, 135824, Note_on_c, 13, 50, 0
17, 135840, Note_on_c, 13, 49, 76
17, 136064, Note_on_c, 13, 49, 0
17, 136080, Note_on_c, 13, 54, 76
17, 136304, Note_on_c, 13, 54, 0
17, 136320, Note_on_c, 13, 42, 76
17, 136544, Note_on_c, 13, 42, 0
17, 136560, Note_on_c, 13, 44, 76
17, 136784, Note_on_c, 13, 44, 0
17, 136800, Note_on_c, 13, 46, 76
17, 137024, Note_on_c, 13, 46, 0
17, 137040, Note_on_c, 13, 38, 76
17, 137264, Note_on_c, 13, 38, 0
17, 137280, Note_on_c, 13, 43, 76
17, 137504, Note_on_c, 13, 43, 0
17, 137520, Note_on_c, 13, 42, 76
17, 137744, Note_on_c, 13, 42, 0
17, 137760, Note_on_c, 13, 54, 76
17, 137984, Note_on_c, 13, 54, 0
17, 138000, Note_on_c, 13, 59, 76
17, 138224, Note_on_c, 13, 59, 0
17, 138240, Note_on_c, 13, 54, 76
17, 138464, Note_on_c, 13, 54, 0
17, 138480, Note_on_c, 13, 50, 76
17, 138704, Note_on_c, 13, 50, 0
17, 138720, Note_on_c, 13, 54, 76
17, 138944, Note_on_c, 13, 54, 0
17, 138960, Note_on_c, 13, 47, 76
17, 139184, Note_on_c, 13, 47, 0
17, 139200, Note_on_c, 13, 59, 76
17, 139424, Note_on_c, 13, 59, 0
17, 139440, Note_on_c, 13, 57, 76
17, 139664, Note_on_c, 13, 57, 0
17, 139680, Note_on_c, 13, 55, 76
17, 139904, Note_on_c, 13, 55, 0
17, 139920, Note_on_c, 13, 54, 76
17, 140144, Note_on_c, 13, 54, 0
17, 140160, Note_on_c, 13, 42, 76
17, 140384, Note_on_c, 13, 42, 0
17, 140400, Note_on_c, 13, 40, 76
17, 140624, Note_on_c, 13, 40, 0
17, 140640, Note_on_c, 13, 38, 76
17, 140864, Note_on_c, 13, 38, 0
17, 140880, Note_on_c, 13, 43, 76
17, 141104, Note_on_c, 13, 43, 0
17, 141120, Note_on_c, 13, 54, 76
17, 141344, Note_on_c, 13, 54, 0
17, 141360, Note_on_c, 13, 52, 76
17, 141584, Note_on_c, 13, 52, 0
17, 141600, Note_on_c, 13, 50, 76
17, 141824, Note_on_c, 13, 50, 0
17, 141840, Note_on_c, 13, 57, 76
17, 142064, Note_on_c, 13, 57, 0
17, 142080, Note_on_c, 13, 49, 76
17, 142184, Note_on_c, 13, 49, 0
17, 142200, Note_on_c, 13, 47, 76
17, 142304, Note_on_c, 13, 47, 0
17, 142320, Note_on_c, 13, 45, 76
17, 142544, Note_on_c, 13, 45, 0
17, 142560, Note_on_c, 13, 43, 76
17, 142784, Note_on_c, 13, 43, 0
17, 142800, Note_on_c, 13, 42, 76
17, 143024, Note_on_c, 13, 42, 0
17, 143040, Note_on_c, 13, 54, 76
17, 143264, Note_on_c, 13, 54, 0
17, 143280, Note_on_c, 13, 55, 76
17, 143504, Note_on_c, 13, 55, 0
17, 143520, Note_on_c, 13, 57, 76
17, 143744, Note_on_c, 13, 57, 0
17, 143760, Note_on_c, 13, 55, 76
17, 143984, Note_on_c, 13, 55, 0
17, 144000, Note_on_c, 13, 52, 76
17, 144224, Note_on_c, 13, 52, 0
17, 144240, Note_on_c, 13, 49, 76
17, 144464, Note_on_c, 13, 49, 0
17, 144480, Note_on_c, 13, 45, 76
17, 144704, Note_on_c, 13, 45, 0
17, 144720, Note_on_c, 13, 50, 76
17, 144944, Note_on_c, 13, 50, 0
17, 144960, Note_on_c, 13, 55, 76
17, 145184, Note_on_c, 13, 55, 0
17, 145200, Note_on_c, 13, 57, 76
17, 145424, Note_on_c, 13, 57, 0
17, 145440, Note_on_c, 13, 45, 76
17, 145664, Note_on_c, 13, 45, 0
17, 145680, Note_on_c, 13, 50, 76
17, 145904, Note_on_c, 13, 50, 0
17, 145920, Note_on_c, 13, 54, 76
17, 146024, Note_on_c, 13, 54, 0
17, 146040, Note_on_c, 13, 57, 76
17, 146144, Note_on_c, 13, 57, 0
17, 146160, Note_on_c, 13, 62, 76
17, 146399, Note_on_c, 13, 62, 0
17, 146399, End_track
18, 0, Start_track
18, 0, Title_t, "Harpsichord "
18, 0, MIDI_port, 0
18, 0, Control_c, 14, 10, 64
18, 0, Control_c, 14, 11, 127
18, 0, Control_c, 14, 7, 72
18, 0, Program_c, 14, 6
18, 0, Note_on_c, 14, 62, 76
18, 104, Note_on_c, 14, 62, 0
18, 120, Note_on_c, 14, 61, 76
18, 224, Note_on_c, 14, 61, 0
18, 240, Note_on_c, 14, 59, 76
18, 464, Note_on_c, 14, 59, 0
18, 480, Note_on_c, 14, 47, 76
18, 704, Note_on_c, 14, 47, 0
18, 720, Note_on_c, 14, 45, 76
18, 944, Note_on_c, 14, 45, 0
18, 960, Note_on_c, 14, 43, 76
18, 1184, Note_on_c, 14, 43, 0
18, 1200, Note_on_c, 14, 42, 76
18, 1424, Note_on_c, 14, 42, 0
18, 1440, Note_on_c, 14, 54, 76
18, 1664, Note_on_c, 14, 54, 0
18, 1680, Note_on_c, 14, 52, 76
18, 1904, Note_on_c, 14, 52, 0
18, 1920, Note_on_c, 14, 50, 76
18, 2144, Note_on_c, 14, 50, 0
18, 2160, Note_on_c, 14, 55, 76
18, 2384, Note_on_c, 14, 55, 0
18, 2400, Note_on_c, 14, 42, 76
18, 2624, Note_on_c, 14, 42, 0
18, 2640, Note_on_c, 14, 40, 76
18, 2864, Note_on_c, 14, 40, 0
18, 2880, Note_on_c, 14, 38, 76
18, 3104, Note_on_c, 14, 38, 0
18, 3120, Note_on_c, 14, 45, 76
18, 3344, Note_on_c, 14, 45, 0
18, 3360, Note_on_c, 14, 49, 76
18, 3464, Note_on_c, 14, 49, 0
18, 3480, Note_on_c, 14, 47, 76
18, 3584, Note_on_c, 14, 47, 0
18, 3600, Note_on_c, 14, 45, 76
18, 3824, Note_on_c, 14, 45, 0
18, 3840, Note_on_c, 14, 43, 76
18, 4064, Note_on_c, 14, 43, 0
18, 4080, Note_on_c, 14, 42, 76
18, 4304, Note_on_c, 14, 42, 0
18, 4320, Note_on_c, 14, 47, 76
18, 4544, Note_on_c, 14, 47, 0
18, 4560, Note_on_c, 14, 49, 76
18, 4784, Note_on_c, 14, 49, 0
18, 4800, Note_on_c, 14, 50, 76
18, 5024, Note_on_c, 14, 50, 0
18, 5040, Note_on_c, 14, 44, 76
18, 5264, Note_on_c, 14, 44, 0
18, 5280, Note_on_c, 14, 56, 76
18, 5504, Note_on_c, 14, 56, 0
18, 5520, Note_on_c, 14, 54, 76
18, 5744, Note_on_c, 14, 54, 0
18, 5760, Note_on_c, 14, 52, 76
18, 5984, Note_on_c, 14, 52, 0
18, 6000, Note_on_c, 14, 61, 76
18, 6224, Note_on_c, 14, 61, 0
18, 6240, Note_on_c, 14, 54, 76
18, 6464, Note_on_c, 14, 54, 0
18, 6480, Note_on_c, 14, 52, 76
18, 6704, Note_on_c, 14, 52, 0
18, 6720, Note_on_c, 14, 40, 76
18, 6944, Note_on_c, 14, 40, 0
18, 6960, Note_on_c, 14, 45, 76
18, 7664, Note_on_c, 14, 45, 0
18, 7680, Note_on_c, 14, 62, 76
18, 7784, Note_on_c, 14, 62, 0
18, 7800, Note_on_c, 14, 61, 76
18, 7904, Note_on_c, 14, 61, 0
18, 7920, Note_on_c, 14, 59, 76
18, 8144, Note_on_c, 14, 59, 0
18, 8160, Note_on_c, 14, 47, 76
18, 8384, Note_on_c, 14, 47, 0
18, 8400, Note_on_c, 14, 45, 76
18, 8624, Note_on_c, 14, 45, 0
18, 8640, Note_on_c, 14, 43, 76
18, 8864, Note_on_c, 14, 43, 0
18, 8880, Note_on_c, 14, 42, 76
18, 9104, Note_on_c, 14, 42, 0
18, 9120, Note_on_c, 14, 54, 76
18, 9344, Note_on_c, 14, 54, 0
18, 9360, Note_on_c, 14, 52, 76
18, 9584, Note_on_c, 14, 52, 0
18, 9600, Note_on_c, 14, 50, 76
18, 9824, Note_on_c, 14, 50, 0
18, 9840, Note_on_c, 14, 55, 76
18, 10064, Note_on_c, 14, 55, 0
18, 10080, Note_on_c, 14, 42, 76
18, 10304, Note_on_c, 14, 42, 0
18, 10320, Note_on_c, 14, 40, 76
18, 10544, Note_on_c, 14, 40, 0
18, 10560, Note_on_c, 14, 38, 76
18, 10784, Note_on_c, 14, 38, 0
18, 10800, Note_on_c, 14, 45, 76
18, 11024, Note_on_c, 14, 45, 0
18, 11040, Note_on_c, 14, 49, 76
18, 11144, Note_on_c, 14, 49, 0
18, 11160, Note_on_c, 14, 47, 76
18, 11264, Note_on_c, 14, 47, 0
18, 11280, Note_on_c, 14, 45, 76
18, 11504, Note_on_c, 14, 45, 0
18, 11520, Note_on_c, 14, 43, 76
18, 11744, Note_on_c, 14, 43, 0
18, 11760, Note_on_c, 14, 42, 76
18, 11984, Note_on_c, 14, 42, 0
18, 12000, Note_on_c, 14, 47, 76
18, 12224, Note_on_c, 14, 47, 0
18, 12240, Note_on_c, 14, 49, 76
18, 12464, Note_on_c, 14, 49, 0
18, 12480, Note_on_c, 14, 50, 76
18, 12704, Note_on_c, 14, 50, 0
18, 12720, Note_on_c, 14, 44, 76
18, 12944, Note_on_c, 14, 44, 0
18, 12960, Note_on_c, 14, 56, 76
18, 13184, Note_on_c, 14, 56, 0
18, 13200, Note_on_c, 14, 54, 76
18, 13424, Note_on_c, 14, 54, 0
18, 13440, Note_on_c, 14, 52, 76
18, 13664, Note_on_c, 14, 52, 0
18, 13680, Note_on_c, 14, 61, 76
18, 13904, Note_on_c, 14, 61, 0
18, 13920, Note_on_c, 14, 54, 76
18, 14144, Note_on_c, 14, 54, 0
18, 14160, Note_on_c, 14, 52, 76
18, 14384, Note_on_c, 14, 52, 0
18, 14400, Note_on_c, 14, 40, 76
18, 14624, Note_on_c, 14, 40, 0
18, 14640, Note_on_c, 14, 45, 76
18, 15344, Note_on_c, 14, 45, 0
18, 15360, Note_on_c, 14, 45, 76
18, 15584, Note_on_c, 14, 45, 0
18, 15600, Note_on_c, 14, 57, 76
18, 15824, Note_on_c, 14, 57, 0
18, 15840, Note_on_c, 14, 57, 76
18, 16064, Note_on_c, 14, 57, 0
18, 16080, Note_on_c, 14, 57, 76
18, 16304, Note_on_c, 14, 57, 0
18, 16320, Note_on_c, 14, 45, 76
18, 16544, Note_on_c, 14, 45, 0
18, 16560, Note_on_c, 14, 57, 76
18, 16784, Note_on_c, 14, 57, 0
18, 16800, Note_on_c, 14, 55, 76
18, 17024, Note_on_c, 14, 55, 0
18, 17040, Note_on_c, 14, 54, 76
18, 17264, Note_on_c, 14, 54, 0
18, 17280, Note_on_c, 14, 52, 76
18, 17504, Note_on_c, 14, 52, 0
18, 17520, Note_on_c, 14, 50, 76
18, 17744, Note_on_c, 14, 50, 0
18, 17760, Note_on_c, 14, 47, 76
18, 17984, Note_on_c, 14, 47, 0
18, 18000, Note_on_c, 14, 50, 76
18, 18224, Note_on_c, 14, 50, 0
18, 18240, Note_on_c, 14, 54, 76
18, 18464, Note_on_c, 14, 54, 0
18, 18480, Note_on_c, 14, 59, 76
18, 18704, Note_on_c, 14, 59, 0
18, 18720, Note_on_c, 14, 45, 76
18, 18944, Note_on_c, 14, 45, 0
18, 18960, Note_on_c, 14, 43, 76
18, 19184, Note_on_c, 14, 43, 0
18, 19200, Note_on_c, 14, 42, 76
18, 19424, Note_on_c, 14, 42, 0
18, 19440, Note_on_c, 14, 40, 76
18, 19664, Note_on_c, 14, 40, 0
18, 19680, Note_on_c, 14, 52, 76
18, 19904, Note_on_c, 14, 52, 0
18, 19920, Note_on_c, 14, 50, 76
18, 20144, Note_on_c, 14, 50, 0
18, 20160, Note_on_c, 14, 49, 76
18, 20384, Note_on_c, 14, 49, 0
18, 20400, Note_on_c, 14, 54, 76
18, 20624, Note_on_c, 14, 54, 0
18, 20640, Note_on_c, 14, 42, 76
18, 20864, Note_on_c, 14, 42, 0
18, 20880, Note_on_c, 14, 44, 76
18, 21104, Note_on_c, 14, 44, 0
18, 21120, Note_on_c, 14, 46, 76
18, 21344, Note_on_c, 14, 46, 0
18, 21360, Note_on_c, 14, 38, 76
18, 21584, Note_on_c, 14, 38, 0
18, 21600, Note_on_c, 14, 43, 76
18, 21824, Note_on_c, 14, 43, 0
18, 21840, Note_on_c, 14, 42, 76
18, 22064, Note_on_c, 14, 42, 0
18, 22080, Note_on_c, 14, 54, 76
18, 22304, Note_on_c, 14, 54, 0
18, 22320, Note_on_c, 14, 59, 76
18, 22544, Note_on_c, 14, 59, 0
18, 22560, Note_on_c, 14, 54, 76
18, 22784, Note_on_c, 14, 54, 0
18, 22800, Note_on_c, 14, 50, 76
18, 23024, Note_on_c, 14, 50, 0
18, 23040, Note_on_c, 14, 54, 76
18, 23264, Note_on_c, 14, 54, 0
18, 23280, Note_on_c, 14, 47, 76
18, 23504, Note_on_c, 14, 47, 0
18, 23520, Note_on_c, 14, 59, 76
18, 23744, Note_on_c, 14, 59, 0
18, 23760, Note_on_c, 14, 57, 76
18, 23984, Note_on_c, 14, 57, 0
18, 24000, Note_on_c, 14, 55, 76
18, 24224, Note_on_c, 14, 55, 0
18, 24240, Note_on_c, 14, 54, 76
18, 24464, Note_on_c, 14, 54, 0
18, 24480, Note_on_c, 14, 42, 76
18, 24704, Note_on_c, 14, 42, 0
18, 24720, Note_on_c, 14, 40, 76
18, 24944, Note_on_c, 14, 40, 0
18, 24960, Note_on_c, 14, 38, 76
18, 25184, Note_on_c, 14, 38, 0
18, 25200, Note_on_c, 14, 43, 76
18, 25424, Note_on_c, 14, 43, 0
18, 25440, Note_on_c, 14, 54, 76
18, 25664, Note_on_c, 14, 54, 0
18, 25680, Note_on_c, 14, 52, 76
18, 25904, Note_on_c, 14, 52, 0
18, 25920, Note_on_c, 14, 50, 76
18, 26144, Note_on_c, 14, 50, 0
18, 26160, Note_on_c, 14, 57, 76
18, 26384, Note_on_c, 14, 57, 0
18, 26400, Note_on_c, 14, 49, 76
18, 26504, Note_on_c, 14, 49, 0
18, 26520, Note_on_c, 14, 47, 76
18, 26624, Note_on_c, 14, 47, 0
18, 26640, Note_on_c, 14, 45, 76
18, 26864, Note_on_c, 14, 45, 0
18, 26880, Note_on_c, 14, 43, 76
18, 27104, Note_on_c, 14, 43, 0
18, 27120, Note_on_c, 14, 42, 76
18, 27344, Note_on_c, 14, 42, 0
18, 27360, Note_on_c, 14, 54, 76
18, 27584, Note_on_c, 14, 54, 0
18, 27600, Note_on_c, 14, 55, 76
18, 27824, Note_on_c, 14, 55, 0
18, 27840, Note_on_c, 14, 57, 76
18, 28064, Note_on_c, 14, 57, 0
18, 28080, Note_on_c, 14, 55, 76
18, 28304, Note_on_c, 14, 55, 0
18, 28320, Note_on_c, 14, 52, 76
18, 28544, Note_on_c, 14, 52, 0
18, 28560, Note_on_c, 14, 49, 76
18, 28784, Note_on_c, 14, 49, 0
18, 28800, Note_on_c, 14, 45, 76
18, 29024, Note_on_c, 14, 45, 0
18, 29040, Note_on_c, 14, 50, 76
18, 29264, Note_on_c, 14, 50, 0
18, 29280, Note_on_c, 14, 55, 76
18, 29504, Note_on_c, 14, 55, 0
18, 29520, Note_on_c, 14, 57, 76
18, 29744, Note_on_c, 14, 57, 0
18, 29760, Note_on_c, 14, 45, 76
18, 29984, Note_on_c, 14, 45, 0
18, 30000, Note_on_c, 14, 50, 76
18, 30224, Note_on_c, 14, 50, 0
18, 30240, Note_on_c, 14, 54, 76
18, 30344, Note_on_c, 14, 54, 0
18, 30360, Note_on_c, 14, 57, 76
18, 30464, Note_on_c, 14, 57, 0
18, 30480, Note_on_c, 14, 62, 76
18, 30704, Note_on_c, 14, 62, 0
18, 30720, Note_on_c, 14, 45, 76
18, 30944, Note_on_c, 14, 45, 0
18, 30960, Note_on_c, 14, 57, 76
18, 31184, Note_on_c, 14, 57, 0
18, 31200, Note_on_c, 14, 57, 76
18, 31424, Note_on_c, 14, 57, 0
18, 31440, Note_on_c, 14, 57, 76
18, 31664, Note_on_c, 14, 57, 0
18, 31680, Note_on_c, 14, 45, 76
18, 31904, Note_on_c, 14, 45, 0
18, 31920, Note_on_c, 14, 57, 76
18, 32144, Note_on_c, 14, 57, 0
18, 32160, Note_on_c, 14, 55, 76
18, 32384, Note_on_c, 14, 55, 0
18, 32400, Note_on_c, 14, 54, 76
18, 32624, Note_on_c, 14, 54, 0
18, 32640, Note_on_c, 14, 52, 76
18, 32864, Note_on_c, 14, 52, 0
18, 32880, Note_on_c, 14, 50, 76
18, 33104, Note_on_c, 14, 50, 0
18, 33120, Note_on_c, 14, 47, 76
18, 33344, Note_on_c, 14, 47, 0
18, 33360, Note_on_c, 14, 50, 76
18, 33584, Note_on_c, 14, 50, 0
18, 33600, Note_on_c, 14, 54, 76
18, 33824, Note_on_c, 14, 54, 0
18, 33840, Note_on_c, 14, 59, 76
18, 34064, Note_on_c, 14, 59, 0
18, 34080, Note_on_c, 14, 45, 76
18, 34304, Note_on_c, 14, 45, 0
18, 34320, Note_on_c, 14, 43, 76
18, 34544, Note_on_c, 14, 43, 0
18, 34560, Note_on_c, 14, 42, 76
18, 34784, Note_on_c, 14, 42, 0
18, 34800, Note_on_c, 14, 40, 76
18, 35024, Note_on_c, 14, 40, 0
18, 35040, Note_on_c, 14, 52, 76
18, 35264, Note_on_c, 14, 52, 0
18, 35280, Note_on_c, 14, 50, 76
18, 35504, Note_on_c, 14, 50, 0
18, 35520, Note_on_c, 14, 49, 76
18, 35744, Note_on_c, 14, 49, 0
18, 35760, Note_on_c, 14, 54, 76
18, 35984, Note_on_c, 14, 54, 0
18, 36000, Note_on_c, 14, 42, 76
18, 36224, Note_on_c, 14, 42, 0
18, 36240, Note_on_c, 14, 44, 76
18, 36464, Note_on_c, 14, 44, 0
18, 36480, Note_on_c, 14, 46, 76
18, 36704, Note_on_c, 14, 46, 0
18, 36720, Note_on_c, 14, 38, 76
18, 36944, Note_on_c, 14, 38, 0
18, 36960, Note_on_c, 14, 43, 76
18, 37184, Note_on_c, 14, 43, 0
18, 37200, Note_on_c, 14, 42, 76
18, 37424, Note_on_c, 14, 42, 0
18, 37440, Note_on_c, 14, 54, 76
18, 37664, Note_on_c, 14, 54, 0
18, 37680, Note_on_c, 14, 59, 76
18, 37904, Note_on_c, 14, 59, 0
18, 37920, Note_on_c, 14, 54, 76
18, 38144, Note_on_c, 14, 54, 0
18, 38160, Note_on_c, 14, 50, 76
18, 38384, Note_on_c, 14, 50, 0
18, 38400, Note_on_c, 14, 54, 76
18, 38624, Note_on_c, 14, 54, 0
18, 38640, Note_on_c, 14, 47, 76
18, 38864, Note_on_c, 14, 47, 0
18, 38880, Note_on_c, 14, 59, 76
18, 39104, Note_on_c, 14, 59, 0
18, 39120, Note_on_c, 14, 57, 76
18, 39344, Note_on_c, 14, 57, 0
18, 39360, Note_on_c, 14, 55, 76
18, 39584, Note_on_c, 14, 55, 0
18, 39600, Note_on_c, 14, 54, 76
18, 39824, Note_on_c, 14, 54, 0
18, 39840, Note_on_c, 14, 42, 76
18, 40064, Note_on_c, 14, 42, 0
18, 40080, Note_on_c, 14, 40, 76
18, 40304, Note_on_c, 14, 40, 0
18, 40320, Note_on_c, 14, 38, 76
18, 40544, Note_on_c, 14, 38, 0
18, 40560, Note_on_c, 14, 43, 76
18, 40784, Note_on_c, 14, 43, 0
18, 40800, Note_on_c, 14, 54, 76
18, 41024, Note_on_c, 14, 54, 0
18, 41040, Note_on_c, 14, 52, 76
18, 41264, Note_on_c, 14, 52, 0
18, 41280, Note_on_c, 14, 50, 76
18, 41504, Note_on_c, 14, 50, 0
18, 41520, Note_on_c, 14, 57, 76
18, 41744, Note_on_c, 14, 57, 0
18, 41760, Note_on_c, 14, 49, 76
18, 41864, Note_on_c, 14, 49, 0
18, 41880, Note_on_c, 14, 47, 76
18, 41984, Note_on_c, 14, 47, 0
18, 42000, Note_on_c, 14, 45, 76
18, 42224, Note_on_c, 14, 45, 0
18, 42240, Note_on_c, 14, 43, 76
18, 42464, Note_on_c, 14, 43, 0
18, 42480, Note_on_c, 14, 42, 76
18, 42704, Note_on_c, 14, 42, 0
18, 42720, Note_on_c, 14, 54, 76
18, 42944, Note_on_c, 14, 54, 0
18, 42960, Note_on_c, 14, 55, 76
18, 43184, Note_on_c, 14, 55, 0
18, 43200, Note_on_c, 14, 57, 76
18, 43424, Note_on_c, 14, 57, 0
18, 43440, Note_on_c, 14, 55, 76
18, 43664, Note_on_c, 14, 55, 0
18, 43680, Note_on_c, 14, 52, 76
18, 43904, Note_on_c, 14, 52, 0
18, 43920, Note_on_c, 14, 49, 76
18, 44144, Note_on_c, 14, 49, 0
18, 44160, Note_on_c, 14, 45, 76
18, 44384, Note_on_c, 14, 45, 0
18, 44400, Note_on_c, 14, 50, 76
18, 44624, Note_on_c, 14, 50, 0
18, 44640, Note_on_c, 14, 55, 76
18, 44864, Note_on_c, 14, 55, 0
18, 44880, Note_on_c, 14, 57, 76
18, 45104, Note_on_c, 14, 57, 0
18, 45120, Note_on_c, 14, 45, 76
18, 45344, Note_on_c, 14, 45, 0
18, 45360, Note_on_c, 14, 50, 76
18, 45584, Note_on_c, 14, 50, 0
18, 45600, Note_on_c, 14, 54, 76
18, 45704, Note_on_c, 14, 54, 0
18, 45720, Note_on_c, 14, 57, 76
18, 45824, Note_on_c, 14, 57, 0
18, 45840, Note_on_c, 14, 62, 76
18, 46064, Note_on_c, 14, 62, 0
18, 46320, Note_on_c, 14, 47, 76
18, 46544, Note_on_c, 14, 47, 0
18, 46560, Note_on_c, 14, 59, 76
18, 47039, Note_on_c, 14, 59, 0
18, 47280, Note_on_c, 14, 52, 76
18, 47504, Note_on_c, 14, 52, 0
18, 47520, Note_on_c, 14, 54, 76
18, 47999, Note_on_c, 14, 54, 0
18, 48240, Note_on_c, 14, 49, 76
18, 48464, Note_on_c, 14, 49, 0
18, 48480, Note_on_c, 14, 50, 76
18, 48704, Note_on_c, 14, 50, 0
18, 48720, Note_on_c, 14, 52, 76
18, 48944, Note_on_c, 14, 52, 0
18, 48960, Note_on_c, 14, 54, 76
18, 49184, Note_on_c, 14, 54, 0
18, 49200, Note_on_c, 14, 42, 76
18, 49424, Note_on_c, 14, 42, 0
18, 49440, Note_on_c, 14, 47, 76
18, 49664, Note_on_c, 14, 47, 0
18, 49680, Note_on_c, 14, 54, 76
18, 49904, Note_on_c, 14, 54, 0
18, 49920, Note_on_c, 14, 59, 76
18, 50144, Note_on_c, 14, 59, 0
18, 50160, Note_on_c, 14, 47, 76
18, 50384, Note_on_c, 14, 47, 0
18, 50400, Note_on_c, 14, 54, 76
18, 50879, Note_on_c, 14, 54, 0
18, 51120, Note_on_c, 14, 58, 76
18, 51344, Note_on_c, 14, 58, 0
18, 51360, Note_on_c, 14, 59, 76
18, 51839, Note_on_c, 14, 59, 0
18, 52080, Note_on_c, 14, 47, 76
18, 52304, Note_on_c, 14, 47, 0
18, 52320, Note_on_c, 14, 52, 76
18, 52799, Note_on_c, 14, 52, 0
18, 53040, Note_on_c, 14, 45, 76
18, 53264, Note_on_c, 14, 45, 0
18, 53280, Note_on_c, 14, 50, 76
18, 53759, Note_on_c, 14, 50, 0
18, 54000, Note_on_c, 14, 62, 76
18, 54224, Note_on_c, 14, 62, 0
18, 54240, Note_on_c, 14, 56, 76
18, 54719, Note_on_c, 14, 56, 0
18, 54960, Note_on_c, 14, 61, 76
18, 55184, Note_on_c, 14, 61, 0
18, 55200, Note_on_c, 14, 57, 76
18, 55679, Note_on_c, 14, 57, 0
18, 55920, Note_on_c, 14, 53, 76
18, 56144, Note_on_c, 14, 53, 0
18, 56160, Note_on_c, 14, 54, 76
18, 56384, Note_on_c, 14, 54, 0
18, 56400, Note_on_c, 14, 50, 76
18, 56624, Note_on_c, 14, 50, 0
18, 56640, Note_on_c, 14, 47, 76
18, 56864, Note_on_c, 14, 47, 0
18, 56880, Note_on_c, 14, 49, 76
18, 57104, Note_on_c, 14, 49, 0
18, 57120, Note_on_c, 14, 42, 76
18, 57824, Note_on_c, 14, 42, 0
18, 57840, Note_on_c, 14, 47, 76
18, 58064, Note_on_c, 14, 47, 0
18, 58080, Note_on_c, 14, 59, 76
18, 58559, Note_on_c, 14, 59, 0
18, 58800, Note_on_c, 14, 52, 76
18, 59024, Note_on_c, 14, 52, 0
18, 59040, Note_on_c, 14, 54, 76
18, 59519, Note_on_c, 14, 54, 0
18, 59760, Note_on_c, 14, 49, 76
18, 59984, Note_on_c, 14, 49, 0
18, 60000, Note_on_c, 14, 50, 76
18, 60224, Note_on_c, 14, 50, 0
18, 60240, Note_on_c, 14, 52, 76
18, 60464, Note_on_c, 14, 52, 0
18, 60480, Note_on_c, 14, 54, 76
18, 60704, Note_on_c, 14, 54, 0
18, 60720, Note_on_c, 14, 42, 76
18, 60944, Note_on_c, 14, 42, 0
18, 60960, Note_on_c, 14, 47, 76
18, 61184, Note_on_c, 14, 47, 0
18, 61200, Note_on_c, 14, 54, 76
18, 61424, Note_on_c, 14, 54, 0
18, 61440, Note_on_c, 14, 59, 76
18, 61664, Note_on_c, 14, 59, 0
18, 61680, Note_on_c, 14, 47, 76
18, 61904, Note_on_c, 14, 47, 0
18, 61920, Note_on_c, 14, 54, 76
18, 62399, Note_on_c, 14, 54, 0
18, 62640, Note_on_c, 14, 58, 76
18, 62864, Note_on_c, 14, 58, 0
18, 62880, Note_on_c, 14, 59, 76
18, 63359, Note_on_c, 14, 59, 0
18, 63600, Note_on_c, 14, 47, 76
18, 63824, Note_on_c, 14, 47, 0
18, 63840, Note_on_c, 14, 52, 76
18, 64319, Note_on_c, 14, 52, 0
18, 64560, Note_on_c, 14, 45, 76
18, 64784, Note_on_c, 14, 45, 0
18, 64800, Note_on_c, 14, 50, 76
18, 65279, Note_on_c, 14, 50, 0
18, 65520, Note_on_c, 14, 62, 76
18, 65744, Note_on_c, 14, 62, 0
18, 65760, Note_on_c, 14, 56, 76
18, 66239, Note_on_c, 14, 56, 0
18, 66480, Note_on_c, 14, 61, 76
18, 66704, Note_on_c, 14, 61, 0
18, 66720, Note_on_c, 14, 57, 76
18, 67199, Note_on_c, 14, 57, 0
18, 67440, Note_on_c, 14, 53, 76
18, 67664, Note_on_c, 14, 53, 0
18, 67680, Note_on_c, 14, 54, 76
18, 67904, Note_on_c, 14, 54, 0
18, 67920, Note_on_c, 14, 50, 76
18, 68144, Note_on_c, 14, 50, 0
18, 68160, Note_on_c, 14, 47, 76
18, 68384, Note_on_c, 14, 47, 0
18, 68400, Note_on_c, 14, 49, 76
18, 68624, Note_on_c, 14, 49, 0
18, 68640, Note_on_c, 14, 42, 76
18, 69344, Note_on_c, 14, 42, 0
18, 69360, Note_on_c, 14, 54, 76
18, 69584, Note_on_c, 14, 54, 0
18, 69600, Note_on_c, 14, 59, 76
18, 70079, Note_on_c, 14, 59, 0
18, 70320, Note_on_c, 14, 57, 76
18, 70544, Note_on_c, 14, 57, 0
18, 70560, Note_on_c, 14, 55, 76
18, 71039, Note_on_c, 14, 55, 0
18, 71280, Note_on_c, 14, 52, 76
18, 71504, Note_on_c, 14, 52, 0
18, 71520, Note_on_c, 14, 45, 76
18, 71744, Note_on_c, 14, 45, 0
18, 71760, Note_on_c, 14, 47, 76
18, 71984, Note_on_c, 14, 47, 0
18, 72000, Note_on_c, 14, 48, 76
18, 72224, Note_on_c, 14, 48, 0
18, 72240, Note_on_c, 14, 45, 76
18, 72464, Note_on_c, 14, 45, 0
18, 72480, Note_on_c, 14, 47, 76
18, 72704, Note_on_c, 14, 47, 0
18, 72720, Note_on_c, 14, 54, 76
18, 72944, Note_on_c, 14, 54, 0
18, 72960, Note_on_c, 14, 59, 76
18, 73184, Note_on_c, 14, 59, 0
18, 73200, Note_on_c, 14, 47, 76
18, 73424, Note_on_c, 14, 47, 0
18, 73440, Note_on_c, 14, 52, 76
18, 73919, Note_on_c, 14, 52, 0
18, 74160, Note_on_c, 14, 45, 76
18, 74384, Note_on_c, 14, 45, 0
18, 74400, Note_on_c, 14, 57, 76
18, 74879, Note_on_c, 14, 57, 0
18, 75120, Note_on_c, 14, 51, 76
18, 75344, Note_on_c, 14, 51, 0
18, 75360, Note_on_c, 14, 52, 76
18, 75584, Note_on_c, 14, 52, 0
18, 75600, Note_on_c, 14, 48, 76
18, 75824, Note_on_c, 14, 48, 0
18, 75840, Note_on_c, 14, 45, 76
18, 76064, Note_on_c, 14, 45, 0
18, 76080, Note_on_c, 14, 47, 76
18, 76304, Note_on_c, 14, 47, 0
18, 76320, Note_on_c, 14, 40, 76
18, 76544, Note_on_c, 14, 40, 0
18, 76560, Note_on_c, 14, 47, 76
18, 76784, Note_on_c, 14, 47, 0
18, 76800, Note_on_c, 14, 52, 76
18, 77024, Note_on_c, 14, 52, 0
18, 77040, Note_on_c, 14, 40, 76
18, 77264, Note_on_c, 14, 40, 0
18, 77280, Note_on_c, 14, 45, 76
18, 77759, Note_on_c, 14, 45, 0
18, 78000, Note_on_c, 14, 49, 76
18, 78224, Note_on_c, 14, 49, 0
18, 78240, Note_on_c, 14, 50, 76
18, 78719, Note_on_c, 14, 50, 0
18, 78960, Note_on_c, 14, 62, 76
18, 79184, Note_on_c, 14, 62, 0
18, 79200, Note_on_c, 14, 61, 76
18, 79424, Note_on_c, 14, 61, 0
18, 79440, Note_on_c, 14, 59, 76
18, 79664, Note_on_c, 14, 59, 0
18, 79680, Note_on_c, 14, 58, 76
18, 79904, Note_on_c, 14, 58, 0
18, 79920, Note_on_c, 14, 59, 76
18, 80144, Note_on_c, 14, 59, 0
18, 80160, Note_on_c, 14, 54, 76
18, 80384, Note_on_c, 14, 54, 0
18, 80400, Note_on_c, 14, 52, 76
18, 80624, Note_on_c, 14, 52, 0
18, 80640, Note_on_c, 14, 50, 76
18, 80864, Note_on_c, 14, 50, 0
18, 80880, Note_on_c, 14, 47, 76
18, 81104, Note_on_c, 14, 47, 0
18, 81120, Note_on_c, 14, 52, 76
18, 81599, Note_on_c, 14, 52, 0
18, 81840, Note_on_c, 14, 49, 76
18, 82064, Note_on_c, 14, 49, 0
18, 82080, Note_on_c, 14, 50, 76
18, 82559, Note_on_c, 14, 50, 0
18, 82800, Note_on_c, 14, 46, 76
18, 83024, Note_on_c, 14, 46, 0
18, 83040, Note_on_c, 14, 47, 76
18, 83264, Note_on_c, 14, 47, 0
18, 83280, Note_on_c, 14, 43, 76
18, 83504, Note_on_c, 14, 43, 0
18, 83520, Note_on_c, 14, 40, 76
18, 83744, Note_on_c, 14, 40, 0
18, 83760, Note_on_c, 14, 42, 76
18, 83984, Note_on_c, 14, 42, 0
18, 84000, Note_on_c, 14, 47, 76
18, 84704, Note_on_c, 14, 47, 0
18, 84720, Note_on_c, 14, 54, 76
18, 84944, Note_on_c, 14, 54, 0
18, 84960, Note_on_c, 14, 59, 76
18, 85439, Note_on_c, 14, 59, 0
18, 85680, Note_on_c, 14, 57, 76
18, 85904, Note_on_c, 14, 57, 0
18, 85920, Note_on_c, 14, 55, 76
18, 86399, Note_on_c, 14, 55, 0
18, 86640, Note_on_c, 14, 52, 76
18, 86864, Note_on_c, 14, 52, 0
18, 86880, Note_on_c, 14, 45, 76
18, 87104, Note_on_c, 14, 45, 0
18, 87120, Note_on_c, 14, 47, 76
18, 87344, Note_on_c, 14, 47, 0
18, 87360, Note_on_c, 14, 48, 76
18, 87584, Note_on_c, 14, 48, 0
18, 87600, Note_on_c, 14, 45, 76
18, 87824, Note_on_c, 14, 45, 0
18, 87840, Note_on_c, 14, 47, 76
18, 88064, Note_on_c, 14, 47, 0
18, 88080, Note_on_c, 14, 54, 76
18, 88304, Note_on_c, 14, 54, 0
18, 88320, Note_on_c, 14, 59, 76
18, 88544, Note_on_c, 14, 59, 0
18, 88560, Note_on_c, 14, 47, 76
18, 88784, Note_on_c, 14, 47, 0
18, 88800, Note_on_c, 14, 52, 76
18, 89279, Note_on_c, 14, 52, 0
18, 89520, Note_on_c, 14, 45, 76
18, 89744, Note_on_c, 14, 45, 0
18, 89760, Note_on_c, 14, 57, 76
18, 90239, Note_on_c, 14, 57, 0
18, 90480, Note_on_c, 14, 51, 76
18, 90704, Note_on_c, 14, 51, 0
18, 90720, Note_on_c, 14, 52, 76
18, 90944, Note_on_c, 14, 52, 0
18, 90960, Note_on_c, 14, 48, 76
18, 91184, Note_on_c, 14, 48, 0
18, 91200, Note_on_c, 14, 45, 76
18, 91424, Note_on_c, 14, 45, 0
18, 91440, Note_on_c, 14, 47, 76
18, 91664, Note_on_c, 14, 47, 0
18, 91680, Note_on_c, 14, 40, 76
18, 91904, Note_on_c, 14, 40, 0
18, 91920, Note_on_c, 14, 47, 76
18, 92144, Note_on_c, 14, 47, 0
18, 92160, Note_on_c, 14, 52, 76
18, 92384, Note_on_c, 14, 52, 0
18, 92400, Note_on_c, 14, 40, 76
18, 92624, Note_on_c, 14, 40, 0
18, 92640, Note_on_c, 14, 45, 76
18, 93119, Note_on_c, 14, 45, 0
18, 93360, Note_on_c, 14, 49, 76
18, 93584, Note_on_c, 14, 49, 0
18, 93600, Note_on_c, 14, 50, 76
18, 94079, Note_on_c, 14, 50, 0
18, 94320, Note_on_c, 14, 62, 76
18, 94544, Note_on_c, 14, 62, 0
18, 94560, Note_on_c, 14, 61, 76
18, 94784, Note_on_c, 14, 61, 0
18, 94800, Note_on_c, 14, 59, 76
18, 95024, Note_on_c, 14, 59, 0
18, 95040, Note_on_c, 14, 58, 76
18, 95264, Note_on_c, 14, 58, 0
18, 95280, Note_on_c, 14, 59, 76
18, 95504, Note_on_c, 14, 59, 0
18, 95520, Note_on_c, 14, 54, 76
18, 95744, Note_on_c, 14, 54, 0
18, 95760, Note_on_c, 14, 52, 76
18, 95984, Note_on_c, 14, 52, 0
18, 96000, Note_on_c, 14, 50, 76
18, 96224, Note_on_c, 14, 50, 0
18, 96240, Note_on_c, 14, 47, 76
18, 96464, Note_on_c, 14, 47, 0
18, 96480, Note_on_c, 14, 52, 76
18, 96959, Note_on_c, 14, 52, 0
18, 97200, Note_on_c, 14, 49, 76
18, 97424, Note_on_c, 14, 49, 0
18, 97440, Note_on_c, 14, 50, 76
18, 97919, Note_on_c, 14, 50, 0
18, 98160, Note_on_c, 14, 46, 76
18, 98384, Note_on_c, 14, 46, 0
18, 98400, Note_on_c, 14, 47, 76
18, 98624, Note_on_c, 14, 47, 0
18, 98640, Note_on_c, 14, 43, 76
18, 98864, Note_on_c, 14, 43, 0
18, 98880, Note_on_c, 14, 40, 76
18, 99104, Note_on_c, 14, 40, 0
18, 99120, Note_on_c, 14, 42, 76
18, 99344, Note_on_c, 14, 42, 0
18, 99360, Note_on_c, 14, 47, 76
18, 100064, Note_on_c, 14, 47, 0
18, 100320, Note_on_c, 14, 62, 76
18, 100424, Note_on_c, 14, 62, 0
18, 100440, Note_on_c, 14, 61, 76
18, 100544, Note_on_c, 14, 61, 0
18, 100560, Note_on_c, 14, 59, 76
18, 100784, Note_on_c, 14, 59, 0
18, 100800, Note_on_c, 14, 47, 76
18, 101024, Note_on_c, 14, 47, 0
18, 101040, Note_on_c, 14, 45, 76
18, 101264, Note_on_c, 14, 45, 0
18, 101280, Note_on_c, 14, 43, 76
18, 101504, Note_on_c, 14, 43, 0
18, 101520, Note_on_c, 14, 42, 76
18, 101744, Note_on_c, 14, 42, 0
18, 101760, Note_on_c, 14, 54, 76
18, 101984, Note_on_c, 14, 54, 0
18, 102000, Note_on_c, 14, 52, 76
18, 102224, Note_on_c, 14, 52, 0
18, 102240, Note_on_c, 14, 50, 76
18, 102464, Note_on_c, 14, 50, 0
18, 102480, Note_on_c, 14, 55, 76
18, 102704, Note_on_c, 14, 55, 0
18, 102720, Note_on_c, 14, 42, 76
18, 102944, Note_on_c, 14, 42, 0
18, 102960, Note_on_c, 14, 40, 76
18, 103184, Note_on_c, 14, 40, 0
18, 103200, Note_on_c, 14, 38, 76
18, 103424, Note_on_c, 14, 38, 0
18, 103440, Note_on_c, 14, 45, 76
18, 103664, Note_on_c, 14, 45, 0
18, 103680, Note_on_c, 14, 49, 76
18, 103784, Note_on_c, 14, 49, 0
18, 103800, Note_on_c, 14, 47, 76
18, 103904, Note_on_c, 14, 47, 0
18, 103920, Note_on_c, 14, 45, 76
18, 104144, Note_on_c, 14, 45, 0
18, 104160, Note_on_c, 14, 43, 76
18, 104384, Note_on_c, 14, 43, 0
18, 104400, Note_on_c, 14, 42, 76
18, 104624, Note_on_c, 14, 42, 0
18, 104640, Note_on_c, 14, 47, 76
18, 104864, Note_on_c, 14, 47, 0
18, 104880, Note_on_c, 14, 49, 76
18, 105104, Note_on_c, 14, 49, 0
18, 105120, Note_on_c, 14, 50, 76
18, 105344, Note_on_c, 14, 50, 0
18, 105360, Note_on_c, 14, 44, 76
18, 105584, Note_on_c, 14, 44, 0
18, 105600, Note_on_c, 14, 56, 76
18, 105824, Note_on_c, 14, 56, 0
18, 105840, Note_on_c, 14, 54, 76
18, 106064, Note_on_c, 14, 54, 0
18, 106080, Note_on_c, 14, 52, 76
18, 106304, Note_on_c, 14, 52, 0
18, 106320, Note_on_c, 14, 61, 76
18, 106544, Note_on_c, 14, 61, 0
18, 106560, Note_on_c, 14, 54, 76
18, 106784, Note_on_c, 14, 54, 0
18, 106800, Note_on_c, 14, 52, 76
18, 107024, Note_on_c, 14, 52, 0
18, 107040, Note_on_c, 14, 40, 76
18, 107264, Note_on_c, 14, 40, 0
18, 107280, Note_on_c, 14, 45, 76
18, 107984, Note_on_c, 14, 45, 0
18, 108000, Note_on_c, 14, 62, 76
18, 108104, Note_on_c, 14, 62, 0
18, 108120, Note_on_c, 14, 61, 76
18, 108224, Note_on_c, 14, 61, 0
18, 108240, Note_on_c, 14, 59, 76
18, 108464, Note_on_c, 14, 59, 0
18, 108480, Note_on_c, 14, 47, 76
18, 108704, Note_on_c, 14, 47, 0
18, 108720, Note_on_c, 14, 45, 76
18, 108944, Note_on_c, 14, 45, 0
18, 108960, Note_on_c, 14, 43, 76
18, 109184, Note_on_c, 14, 43, 0
18, 109200, Note_on_c, 14, 42, 76
18, 109424, Note_on_c, 14, 42, 0
18, 109440, Note_on_c, 14, 54, 76
18, 109664, Note_on_c, 14, 54, 0
18, 109680, Note_on_c, 14, 52, 76
18, 109904, Note_on_c, 14, 52, 0
18, 109920, Note_on_c, 14, 50, 76
18, 110144, Note_on_c, 14, 50, 0
18, 110160, Note_on_c, 14, 55, 76
18, 110384, Note_on_c, 14, 55, 0
18, 110400, Note_on_c, 14, 42, 76
18, 110624, Note_on_c, 14, 42, 0
18, 110640, Note_on_c, 14, 40, 76
18, 110864, Note_on_c, 14, 40, 0
18, 110880, Note_on_c, 14, 38, 76
18, 111104, Note_on_c, 14, 38, 0
18, 111120, Note_on_c, 14, 45, 76
18, 111344, Note_on_c, 14, 45, 0
18, 111360, Note_on_c, 14, 49, 76
18, 111464, Note_on_c, 14, 49, 0
18, 111480, Note_on_c, 14, 47, 76
18, 111584, Note_on_c, 14, 47, 0
18, 111600, Note_on_c, 14, 45, 76
18, 111824, Note_on_c, 14, 45, 0
18, 111840, Note_on_c, 14, 43, 76
18, 112064, Note_on_c, 14, 43, 0
18, 112080, Note_on_c, 14, 42, 76
18, 112304, Note_on_c, 14, 42, 0
18, 112320, Note_on_c, 14, 47, 76
18, 112544, Note_on_c, 14, 47, 0
18, 112560, Note_on_c, 14, 49, 76
18, 112784, Note_on_c, 14, 49, 0
18, 112800, Note_on_c, 14, 50, 76
18, 113024, Note_on_c, 14, 50, 0
18, 113040, Note_on_c, 14, 44, 76
18, 113264, Note_on_c, 14, 44, 0
18, 113280, Note_on_c, 14, 56, 76
18, 113504, Note_on_c, 14, 56, 0
18, 113520, Note_on_c, 14, 54, 76
18, 113744, Note_on_c, 14, 54, 0
18, 113760, Note_on_c, 14, 52, 76
18, 113984, Note_on_c, 14, 52, 0
18, 114000, Note_on_c, 14, 61, 76
18, 114224, Note_on_c, 14, 61, 0
18, 114240, Note_on_c, 14, 54, 76
18, 114464, Note_on_c, 14, 54, 0
18, 114480, Note_on_c, 14, 52, 76
18, 114704, Note_on_c, 14, 52, 0
18, 114720, Note_on_c, 14, 40, 76
18, 114944, Note_on_c, 14, 40, 0
18, 114960, Note_on_c, 14, 45, 76
18, 115664, Note_on_c, 14, 45, 0
18, 115680, Note_on_c, 14, 45, 76
18, 115904, Note_on_c, 14, 45, 0
18, 115920, Note_on_c, 14, 57, 76
18, 116144, Note_on_c, 14, 57, 0
18, 116160, Note_on_c, 14, 57, 76
18, 116384, Note_on_c, 14, 57, 0
18, 116400, Note_on_c, 14, 57, 76
18, 116624, Note_on_c, 14, 57, 0
18, 116640, Note_on_c, 14, 45, 76
18, 116864, Note_on_c, 14, 45, 0
18, 116880, Note_on_c, 14, 57, 76
18, 117104, Note_on_c, 14, 57, 0
18, 117120, Note_on_c, 14, 55, 76
18, 117344, Note_on_c, 14, 55, 0
18, 117360, Note_on_c, 14, 54, 76
18, 117584, Note_on_c, 14, 54, 0
18, 117600, Note_on_c, 14, 52, 76
18, 117824, Note_on_c, 14, 52, 0
18, 117840, Note_on_c, 14, 50, 76
18, 118064, Note_on_c, 14, 50, 0
18, 118080, Note_on_c, 14, 47, 76
18, 118304, Note_on_c, 14, 47, 0
18, 118320, Note_on_c, 14, 50, 76
18, 118544, Note_on_c, 14, 50, 0
18, 118560, Note_on_c, 14, 54, 76
18, 118784, Note_on_c, 14, 54, 0
18, 118800, Note_on_c, 14, 59, 76
18, 119024, Note_on_c, 14, 59, 0
18, 119040, Note_on_c, 14, 45, 76
18, 119264, Note_on_c, 14, 45, 0
18, 119280, Note_on_c, 14, 43, 76
18, 119504, Note_on_c, 14, 43, 0
18, 119520, Note_on_c, 14, 42, 76
18, 119744, Note_on_c, 14, 42, 0
18, 119760, Note_on_c, 14, 40, 76
18, 119984, Note_on_c, 14, 40, 0
18, 120000, Note_on_c, 14, 52, 76
18, 120224, Note_on_c, 14, 52, 0
18, 120240, Note_on_c, 14, 50, 76
18, 120464, Note_on_c, 14, 50, 0
18, 120480, Note_on_c, 14, 49, 76
18, 120704, Note_on_c, 14, 49, 0
18, 120720, Note_on_c, 14, 54, 76
18, 120944, Note_on_c, 14, 54, 0
18, 120960, Note_on_c, 14, 42, 76
18, 121184, Note_on_c, 14, 42, 0
18, 121200, Note_on_c, 14, 44, 76
18, 121424, Note_on_c, 14, 44, 0
18, 121440, Note_on_c, 14, 46, 76
18, 121664, Note_on_c, 14, 46, 0
18, 121680, Note_on_c, 14, 38, 76
18, 121904, Note_on_c, 14, 38, 0
18, 121920, Note_on_c, 14, 43, 76
18, 122144, Note_on_c, 14, 43, 0
18, 122160, Note_on_c, 14, 42, 76
18, 122384, Note_on_c, 14, 42, 0
18, 122400, Note_on_c, 14, 54, 76
18, 122624, Note_on_c, 14, 54, 0
18, 122640, Note_on_c, 14, 59, 76
18, 122864, Note_on_c, 14, 59, 0
18, 122880, Note_on_c, 14, 54, 76
18, 123104, Note_on_c, 14, 54, 0
18, 123120, Note_on_c, 14, 50, 76
18, 123344, Note_on_c, 14, 50, 0
18, 123360, Note_on_c, 14, 54, 76
18, 123584, Note_on_c, 14, 54, 0
18, 123600, Note_on_c, 14, 47, 76
18, 123824, Note_on_c, 14, 47, 0
18, 123840, Note_on_c, 14, 59, 76
18, 124064, Note_on_c, 14, 59, 0
18, 124080, Note_on_c, 14, 57, 76
18, 124304, Note_on_c, 14, 57, 0
18, 124320, Note_on_c, 14, 55, 76
18, 124544, Note_on_c, 14, 55, 0
18, 124560, Note_on_c, 14, 54, 76
18, 124784, Note_on_c, 14, 54, 0
18, 124800, Note_on_c, 14, 42, 76
18, 125024, Note_on_c, 14, 42, 0
18, 125040, Note_on_c, 14, 40, 76
18, 125264, Note_on_c, 14, 40, 0
18, 125280, Note_on_c, 14, 38, 76
18, 125504, Note_on_c, 14, 38, 0
18, 125520, Note_on_c, 14, 43, 76
18, 125744, Note_on_c, 14, 43, 0
18, 125760, Note_on_c, 14, 54, 76
18, 125984, Note_on_c, 14, 54, 0
18, 126000, Note_on_c, 14, 52, 76
18, 126224, Note_on_c, 14, 52, 0
18, 126240, Note_on_c, 14, 50, 76
18, 126464, Note_on_c, 14, 50, 0
18, 126480, Note_on_c, 14, 57, 76
18, 126704, Note_on_c, 14, 57, 0
18, 126720, Note_on_c, 14, 49, 76
18, 126824, Note_on_c, 14, 49, 0
18, 126840, Note_on_c, 14, 47, 76
18, 126944, Note_on_c, 14, 47, 0
18, 126960, Note_on_c, 14, 45, 76
18, 127184, Note_on_c, 14, 45, 0
18, 127200, Note_on_c, 14, 43, 76
18, 127424, Note_on_c, 14, 43, 0
18, 127440, Note_on_c, 14, 42, 76
18, 127664, Note_on_c, 14, 42, 0
18, 127680, Note_on_c, 14, 54, 76
18, 127904, Note_on_c, 14, 54, 0
18, 127920, Note_on_c, 14, 55, 76
18, 128144, Note_on_c, 14, 55, 0
18, 128160, Note_on_c, 14, 57, 76
18, 128384, Note_on_c, 14, 57, 0
18, 128400, Note_on_c, 14, 55, 76
18, 128624, Note_on_c, 14, 55, 0
18, 128640, Note_on_c, 14, 52, 76
18, 128864, Note_on_c, 14, 52, 0
18, 128880, Note_on_c, 14, 49, 76
18, 129104, Note_on_c, 14, 49, 0
18, 129120, Note_on_c, 14, 45, 76
18, 129344, Note_on_c, 14, 45, 0
18, 129360, Note_on_c, 14, 50, 76
18, 129584, Note_on_c, 14, 50, 0
18, 129600, Note_on_c, 14, 55, 76
18, 129824, Note_on_c, 14, 55, 0
18, 129840, Note_on_c, 14, 57, 76
18, 130064, Note_on_c, 14, 57, 0
18, 130080, Note_on_c, 14, 45, 76
18, 130304, Note_on_c, 14, 45, 0
18, 130320, Note_on_c, 14, 50, 76
18, 130544, Note_on_c, 14, 50, 0
18, 130560, Note_on_c, 14, 54, 76
18, 130664, Note_on_c, 14, 54, 0
18, 130680, Note_on_c, 14, 57, 76
18, 130784, Note_on_c, 14, 57, 0
18, 130800, Note_on_c, 14, 62, 76
18, 131024, Note_on_c, 14, 62, 0
18, 131040, Note_on_c, 14, 45, 76
18, 131264, Note_on_c, 14, 45, 0
18, 131280, Note_on_c, 14, 57, 76
18, 131504, Note_on_c, 14, 57, 0
18, 131520, Note_on_c, 14, 57, 76
18, 131744, Note_on_c, 14, 57, 0
18, 131760, Note_on_c, 14, 57, 76
18, 131984, Note_on_c, 14, 57, 0
18, 132000, Note_on_c, 14, 45, 76
18, 132224, Note_on_c, 14, 45, 0
18, 132240, Note_on_c, 14, 57, 76
18, 132464, Note_on_c, 14, 57, 0
18, 132480, Note_on_c, 14, 55, 76
18, 132704, Note_on_c, 14, 55, 0
18, 132720, Note_on_c, 14, 54, 76
18, 132944, Note_on_c, 14, 54, 0
18, 132960, Note_on_c, 14, 52, 76
18, 133184, Note_on_c, 14, 52, 0
18, 133200, Note_on_c, 14, 50, 76
18, 133424, Note_on_c, 14, 50, 0
18, 133440, Note_on_c, 14, 47, 76
18, 133664, Note_on_c, 14, 47, 0
18, 133680, Note_on_c, 14, 50, 76
18, 133904, Note_on_c, 14, 50, 0
18, 133920, Note_on_c, 14, 54, 76
18, 134144, Note_on_c, 14, 54, 0
18, 134160, Note_on_c, 14, 59, 76
18, 134384, Note_on_c, 14, 59, 0
18, 134400, Note_on_c, 14, 45, 76
18, 134624, Note_on_c, 14, 45, 0
18, 134640, Note_on_c, 14, 43, 76
18, 134864, Note_on_c, 14, 43, 0
18, 134880, Note_on_c, 14, 42, 76
18, 135104, Note_on_c, 14, 42, 0
18, 135120, Note_on_c, 14, 40, 76
18, 135344, Note_on_c, 14, 40, 0
18, 135360, Note_on_c, 14, 52, 76
18, 135584, Note_on_c, 14, 52, 0
18, 135600, Note_on_c, 14, 50, 76
18, 135824, Note_on_c, 14, 50, 0
18, 135840, Note_on_c, 14, 49, 76
18, 136064, Note_on_c, 14, 49, 0
18, 136080, Note_on_c, 14, 54, 76
18, 136304, Note_on_c, 14, 54, 0
18, 136320, Note_on_c, 14, 42, 76
18, 136544, Note_on_c, 14, 42, 0
18, 136560, Note_on_c, 14, 44, 76
18, 136784, Note_on_c, 14, 44, 0
18, 136800, Note_on_c, 14, 46, 76
18, 137024, Note_on_c, 14, 46, 0
18, 137040, Note_on_c, 14, 38, 76
18, 137264, Note_on_c, 14, 38, 0
18, 137280, Note_on_c, 14, 43, 76
18, 137504, Note_on_c, 14, 43, 0
18, 137520, Note_on_c, 14, 42, 76
18, 137744, Note_on_c, 14, 42, 0
18, 137760, Note_on_c, 14, 54, 76
18, 137984, Note_on_c, 14, 54, 0
18, 138000, Note_on_c, 14, 59, 76
18, 138224, Note_on_c, 14, 59, 0
18, 138240, Note_on_c, 14, 54, 76
18, 138464, Note_on_c, 14, 54, 0
18, 138480, Note_on_c, 14, 50, 76
18, 138704, Note_on_c, 14, 50, 0
18, 138720, Note_on_c, 14, 54, 76
18, 138944, Note_on_c, 14, 54, 0
18, 138960, Note_on_c, 14, 47, 76
18, 139184, Note_on_c, 14, 47, 0
18, 139200, Note_on_c, 14, 59, 76
18, 139424, Note_on_c, 14, 59, 0
18, 139440, Note_on_c, 14, 57, 76
18, 139664, Note_on_c, 14, 57, 0
18, 139680, Note_on_c, 14, 55, 76
18, 139904, Note_on_c, 14, 55, 0
18, 139920, Note_on_c, 14, 54, 76
18, 140144, Note_on_c, 14, 54, 0
18, 140160, Note_on_c, 14, 42, 76
18, 140384, Note_on_c, 14, 42, 0
18, 140400, Note_on_c, 14, 40, 76
18, 140624, Note_on_c, 14, 40, 0
18, 140640, Note_on_c, 14, 38, 76
18, 140864, Note_on_c, 14, 38, 0
18, 140880, Note_on_c, 14, 43, 76
18, 141104, Note_on_c, 14, 43, 0
18, 141120, Note_on_c, 14, 54, 76
18, 141344, Note_on_c, 14, 54, 0
18, 141360, Note_on_c, 14, 52, 76
18, 141584, Note_on_c, 14, 52, 0
18, 141600, Note_on_c, 14, 50, 76
18, 141824, Note_on_c, 14, 50, 0
18, 141840, Note_on_c, 14, 57, 76
18, 142064, Note_on_c, 14, 57, 0
18, 142080, Note_on_c, 14, 49, 76
18, 142184, Note_on_c, 14, 49, 0
18, 142200, Note_on_c, 14, 47, 76
18, 142304, Note_on_c, 14, 47, 0
18, 142320, Note_on_c, 14, 45, 76
18, 142544, Note_on_c, 14, 45, 0
18, 142560, Note_on_c, 14, 43, 76
18, 142784, Note_on_c, 14, 43, 0
18, 142800, Note_on_c, 14, 42, 76
18, 143024, Note_on_c, 14, 42, 0
18, 143040, Note_on_c, 14, 54, 76
18, 143264, Note_on_c, 14, 54, 0
18, 143280, Note_on_c, 14, 55, 76
18, 143504, Note_on_c, 14, 55, 0
18, 143520, Note_on_c, 14, 57, 76
18, 143744, Note_on_c, 14, 57, 0
18, 143760, Note_on_c, 14, 55, 76
18, 143984, Note_on_c, 14, 55, 0
18, 144000, Note_on_c, 14, 52, 76
18, 144224, Note_on_c, 14, 52, 0
18, 144240, Note_on_c, 14, 49, 76
18, 144464, Note_on_c, 14, 49, 0
18, 144480, Note_on_c, 14, 45, 76
18, 144704, Note_on_c, 14, 45, 0
18, 144720, Note_on_c, 14, 50, 76
18, 144944, Note_on_c, 14, 50, 0
18, 144960, Note_on_c, 14, 55, 76
18, 145184, Note_on_c, 14, 55, 0
18, 145200, Note_on_c, 14, 57, 76
18, 145424, Note_on_c, 14, 57, 0
18, 145440, Note_on_c, 14, 45, 76
18, 145664, Note_on_c, 14, 45, 0
18, 145680, Note_on_c, 14, 50, 76
18, 145904, Note_on_c, 14, 50, 0
18, 145920, Note_on_c, 14, 54, 76
18, 146024, Note_on_c, 14, 54, 0
18, 146040, Note_on_c, 14, 57, 76
18, 146144, Note_on_c, 14, 57, 0
18, 146160, Note_on_c, 14, 62, 76
18, 146399, Note_on_c, 14, 62, 0
18, 146399, End_track
19, 0, Start_track
19, 0, Title_t, "Johann Sebastian Bach - Orchestral Suite No. 4 in D Major, BWV1069 - No. 2 Bourrée I and II"
19, 0, MIDI_port, 0
19, 0, End_track
0, 0, End_of_file
