0, 0, Header, 1, 4, 240
1, 0, Start_track
1, 0, Title_t, "untitled"
1, 0, Time_signature, 3, 1, 48, 8
1, 0, Key_signature, 0, "major"
1, 0, Tempo, 722892
1, 54720, Tempo, 681818
1, 55680, Tempo, 705882
1, 55920, Tempo, 789474
1, 56040, Tempo, 869565
1, 56160, Tempo, 625000
1, 56160, End_track
2, 0, Start_track
2, 0, Title_t, "RH B"
2, 0, Program_c, 0, 0
2, 0, Note_on_c, 0, 66, 56
2, 0, Note_on_c, 0, 70, 56
2, 0, Note_on_c, 0, 63, 56
2, 470, Note_on_c, 0, 63, 0
2, 470, Note_on_c, 0, 70, 0
2, 470, Note_on_c, 0, 66, 0
2, 480, Note_on_c, 0, 66, 56
2, 480, Note_on_c, 0, 63, 56
2, 840, Note_on_c, 0, 70, 64
2, 950, Note_on_c, 0, 63, 0
2, 950, Note_on_c, 0, 66, 0
2, 960, Note_on_c, 0, 70, 0
2, 960, Note_on_c, 0, 75, 64
2, 960, Note_on_c, 0, 66, 56
2, 960, Note_on_c, 0, 63, 56
2, 1320, Note_on_c, 0, 75, 0
2, 1320, Note_on_c, 0, 78, 64
2, 1430, Note_on_c, 0, 63, 0
2, 1430, Note_on_c, 0, 66, 0
2, 1440, Note_on_c, 0, 78, 0
2, 1440, Note_on_c, 0, 63, 56
2, 1440, Note_on_c, 0, 68, 56
2, 1440, Note_on_c, 0, 71, 56
2, 1910, Note_on_c, 0, 71, 0
2, 1910, Note_on_c, 0, 68, 0
2, 1910, Note_on_c, 0, 63, 0
2, 1920, Note_on_c, 0, 68, 56
2, 1920, Note_on_c, 0, 71, 56
2, 1920, Note_on_c, 0, 63, 56
2, 2280, Note_on_c, 0, 75, 64
2, 2390, Note_on_c, 0, 63, 0
2, 2390, Note_on_c, 0, 68, 0
2, 2390, Note_on_c, 0, 71, 0
2, 2400, Note_on_c, 0, 75, 0
2, 2400, Note_on_c, 0, 80, 64
2, 2400, Note_on_c, 0, 63, 56
2, 2400, Note_on_c, 0, 68, 56
2, 2400, Note_on_c, 0, 71, 56
2, 2760, Note_on_c, 0, 80, 0
2, 2760, Note_on_c, 0, 83, 64
2, 2870, Note_on_c, 0, 63, 0
2, 2870, Note_on_c, 0, 71, 0
2, 2870, Note_on_c, 0, 68, 0
2, 2880, Note_on_c, 0, 83, 0
2, 2880, Note_on_c, 0, 74, 64
2, 2880, Note_on_c, 0, 68, 56
2, 2880, Note_on_c, 0, 65, 56
2, 2880, Note_on_c, 0, 63, 56
2, 3350, Note_on_c, 0, 63, 0
2, 3350, Note_on_c, 0, 74, 0
2, 3350, Note_on_c, 0, 68, 0
2, 3350, Note_on_c, 0, 65, 0
2, 3360, Note_on_c, 0, 68, 56
2, 3360, Note_on_c, 0, 65, 56
2, 3360, Note_on_c, 0, 62, 56
2, 3720, Note_on_c, 0, 77, 64
2, 3830, Note_on_c, 0, 62, 0
2, 3830, Note_on_c, 0, 68, 0
2, 3830, Note_on_c, 0, 65, 0
2, 3840, Note_on_c, 0, 77, 0
2, 3840, Note_on_c, 0, 70, 74
2, 3840, Note_on_c, 0, 65, 56
2, 3840, Note_on_c, 0, 62, 56
2, 3860, Note_on_c, 0, 68, 45
2, 3862, Note_on_c, 0, 70, 0
2, 3880, Note_on_c, 0, 70, 51
2, 3882, Note_on_c, 0, 68, 0
2, 3900, Note_on_c, 0, 68, 58
2, 3902, Note_on_c, 0, 70, 0
2, 3920, Note_on_c, 0, 70, 52
2, 3922, Note_on_c, 0, 68, 0
2, 3940, Note_on_c, 0, 70, 0
2, 3940, Note_on_c, 0, 68, 76
2, 4140, Note_on_c, 0, 68, 0
2, 4140, Note_on_c, 0, 66, 64
2, 4200, Note_on_c, 0, 66, 0
2, 4200, Note_on_c, 0, 68, 64
2, 4260, Note_on_c, 0, 68, 0
2, 4260, Note_on_c, 0, 70, 64
2, 4310, Note_on_c, 0, 62, 0
2, 4310, Note_on_c, 0, 65, 0
2, 4320, Note_on_c, 0, 70, 0
2, 4320, Note_on_c, 0, 68, 72
2, 4320, Note_on_c, 0, 63, 56
2, 4340, Note_on_c, 0, 66, 42
2, 4342, Note_on_c, 0, 68, 0
2, 4360, Note_on_c, 0, 68, 47
2, 4362, Note_on_c, 0, 66, 0
2, 4380, Note_on_c, 0, 66, 51
2, 4382, Note_on_c, 0, 68, 0
2, 4400, Note_on_c, 0, 68, 55
2, 4402, Note_on_c, 0, 66, 0
2, 4420, Note_on_c, 0, 66, 59
2, 4422, Note_on_c, 0, 68, 0
2, 4440, Note_on_c, 0, 68, 73
2, 4442, Note_on_c, 0, 66, 0
2, 4460, Note_on_c, 0, 68, 0
2, 4460, Note_on_c, 0, 66, 76
2, 4680, Note_on_c, 0, 66, 0
2, 4680, Note_on_c, 0, 65, 64
2, 4740, Note_on_c, 0, 65, 0
2, 4740, Note_on_c, 0, 63, 64
2, 4790, Note_on_c, 0, 63, 0
2, 4800, Note_on_c, 0, 63, 0
2, 4800, Note_on_c, 0, 78, 64
2, 5270, Note_on_c, 0, 78, 0
2, 5280, Note_on_c, 0, 66, 56
2, 5290, Note_on_c, 0, 70, 56
2, 5300, Note_on_c, 0, 75, 56
2, 5310, Note_on_c, 0, 78, 56
2, 5750, Note_on_c, 0, 78, 0
2, 5750, Note_on_c, 0, 66, 0
2, 5750, Note_on_c, 0, 70, 0
2, 5750, Note_on_c, 0, 75, 0
2, 5760, Note_on_c, 0, 66, 56
2, 5770, Note_on_c, 0, 70, 56
2, 5780, Note_on_c, 0, 73, 56
2, 5790, Note_on_c, 0, 78, 56
2, 6230, Note_on_c, 0, 78, 0
2, 6230, Note_on_c, 0, 66, 0
2, 6230, Note_on_c, 0, 70, 0
2, 6230, Note_on_c, 0, 73, 0
2, 6540, Note_on_c, 0, 78, 64
2, 6600, Note_on_c, 0, 78, 0
2, 6600, Note_on_c, 0, 76, 64
2, 6660, Note_on_c, 0, 76, 0
2, 6660, Note_on_c, 0, 75, 64
2, 6720, Note_on_c, 0, 75, 0
2, 6720, Note_on_c, 0, 76, 64
2, 7080, Note_on_c, 0, 76, 0
2, 7080, Note_on_c, 0, 73, 64
2, 7200, Note_on_c, 0, 73, 0
2, 7200, Note_on_c, 0, 63, 56
2, 7210, Note_on_c, 0, 66, 56
2, 7220, Note_on_c, 0, 71, 56
2, 7230, Note_on_c, 0, 75, 56
2, 7670, Note_on_c, 0, 75, 0
2, 7670, Note_on_c, 0, 63, 0
2, 7670, Note_on_c, 0, 66, 0
2, 7670, Note_on_c, 0, 71, 0
2, 7680, Note_on_c, 0, 66, 56
2, 7690, Note_on_c, 0, 71, 56
2, 7700, Note_on_c, 0, 75, 56
2, 8150, Note_on_c, 0, 75, 0
2, 8150, Note_on_c, 0, 71, 0
2, 8150, Note_on_c, 0, 66, 0
2, 8160, Note_on_c, 0, 66, 56
2, 8170, Note_on_c, 0, 71, 56
2, 8180, Note_on_c, 0, 75, 56
2, 8630, Note_on_c, 0, 75, 0
2, 8630, Note_on_c, 0, 71, 0
2, 8630, Note_on_c, 0, 66, 0
2, 8650, Note_on_c, 0, 70, 56
2, 8660, Note_on_c, 0, 75, 56
2, 8670, Note_on_c, 0, 82, 56
2, 9110, Note_on_c, 0, 82, 0
2, 9110, Note_on_c, 0, 75, 0
2, 9110, Note_on_c, 0, 70, 0
2, 9420, Note_on_c, 0, 75, 64
2, 9480, Note_on_c, 0, 75, 0
2, 9480, Note_on_c, 0, 73, 64
2, 9540, Note_on_c, 0, 73, 0
2, 9540, Note_on_c, 0, 71, 64
2, 9600, Note_on_c, 0, 71, 0
2, 9600, Note_on_c, 0, 73, 64
2, 9960, Note_on_c, 0, 73, 0
2, 9960, Note_on_c, 0, 70, 64
2, 10080, Note_on_c, 0, 70, 0
2, 10080, Note_on_c, 0, 73, 72
2, 10100, Note_on_c, 0, 71, 45
2, 10102, Note_on_c, 0, 73, 0
2, 10120, Note_on_c, 0, 73, 51
2, 10122, Note_on_c, 0, 71, 0
2, 10140, Note_on_c, 0, 71, 58
2, 10142, Note_on_c, 0, 73, 0
2, 10160, Note_on_c, 0, 73, 86
2, 10162, Note_on_c, 0, 71, 0
2, 10180, Note_on_c, 0, 73, 0
2, 10180, Note_on_c, 0, 71, 79
2, 10440, Note_on_c, 0, 71, 0
2, 10440, Note_on_c, 0, 70, 64
2, 10500, Note_on_c, 0, 70, 0
2, 10500, Note_on_c, 0, 68, 64
2, 10560, Note_on_c, 0, 68, 0
2, 10560, Note_on_c, 0, 75, 56
2, 10570, Note_on_c, 0, 80, 56
2, 10580, Note_on_c, 0, 83, 56
2, 10920, Note_on_c, 0, 71, 64
2, 11030, Note_on_c, 0, 83, 0
2, 11030, Note_on_c, 0, 75, 0
2, 11030, Note_on_c, 0, 80, 0
2, 11040, Note_on_c, 0, 71, 0
2, 11040, Note_on_c, 0, 68, 64
2, 11040, Note_on_c, 0, 75, 56
2, 11050, Note_on_c, 0, 80, 56
2, 11060, Note_on_c, 0, 83, 56
2, 11400, Note_on_c, 0, 68, 0
2, 11400, Note_on_c, 0, 65, 64
2, 11510, Note_on_c, 0, 75, 0
2, 11510, Note_on_c, 0, 83, 0
2, 11510, Note_on_c, 0, 80, 0
2, 11520, Note_on_c, 0, 65, 0
2, 11520, Note_on_c, 0, 62, 64
2, 11530, Note_on_c, 0, 77, 56
2, 11540, Note_on_c, 0, 80, 56
2, 11550, Note_on_c, 0, 83, 56
2, 11990, Note_on_c, 0, 83, 0
2, 11990, Note_on_c, 0, 62, 0
2, 11990, Note_on_c, 0, 77, 0
2, 11990, Note_on_c, 0, 80, 0
2, 12000, Note_on_c, 0, 62, 56
2, 12010, Note_on_c, 0, 65, 56
2, 12020, Note_on_c, 0, 70, 56
2, 12300, Note_on_c, 0, 82, 64
2, 12360, Note_on_c, 0, 82, 0
2, 12360, Note_on_c, 0, 80, 64
2, 12420, Note_on_c, 0, 80, 0
2, 12420, Note_on_c, 0, 78, 64
2, 12470, Note_on_c, 0, 70, 0
2, 12470, Note_on_c, 0, 62, 0
2, 12470, Note_on_c, 0, 65, 0
2, 12480, Note_on_c, 0, 78, 0
2, 12480, Note_on_c, 0, 77, 64
2, 12480, Note_on_c, 0, 62, 56
2, 12490, Note_on_c, 0, 65, 56
2, 12500, Note_on_c, 0, 70, 56
2, 12540, Note_on_c, 0, 77, 0
2, 12540, Note_on_c, 0, 78, 64
2, 12600, Note_on_c, 0, 78, 0
2, 12600, Note_on_c, 0, 77, 64
2, 12660, Note_on_c, 0, 77, 0
2, 12660, Note_on_c, 0, 78, 64
2, 12720, Note_on_c, 0, 78, 0
2, 12720, Note_on_c, 0, 80, 64
2, 12780, Note_on_c, 0, 80, 0
2, 12780, Note_on_c, 0, 78, 64
2, 12840, Note_on_c, 0, 78, 0
2, 12840, Note_on_c, 0, 80, 64
2, 12900, Note_on_c, 0, 80, 0
2, 12900, Note_on_c, 0, 77, 64
2, 12950, Note_on_c, 0, 62, 0
2, 12950, Note_on_c, 0, 70, 0
2, 12950, Note_on_c, 0, 65, 0
2, 12960, Note_on_c, 0, 77, 0
2, 12960, Note_on_c, 0, 80, 74
2, 12960, Note_on_c, 0, 63, 56
2, 12970, Note_on_c, 0, 66, 56
2, 12980, Note_on_c, 0, 80, 0
2, 12980, Note_on_c, 0, 78, 45
2, 12980, Note_on_c, 0, 70, 56
2, 13000, Note_on_c, 0, 80, 51
2, 13002, Note_on_c, 0, 78, 0
2, 13020, Note_on_c, 0, 78, 58
2, 13022, Note_on_c, 0, 80, 0
2, 13040, Note_on_c, 0, 80, 77
2, 13042, Note_on_c, 0, 78, 0
2, 13060, Note_on_c, 0, 80, 0
2, 13060, Note_on_c, 0, 78, 64
2, 13320, Note_on_c, 0, 78, 0
2, 13320, Note_on_c, 0, 77, 64
2, 13380, Note_on_c, 0, 77, 0
2, 13380, Note_on_c, 0, 75, 64
2, 13430, Note_on_c, 0, 63, 0
2, 13430, Note_on_c, 0, 70, 0
2, 13430, Note_on_c, 0, 66, 0
2, 13440, Note_on_c, 0, 75, 0
2, 13440, Note_on_c, 0, 70, 56
2, 13450, Note_on_c, 0, 75, 56
2, 13460, Note_on_c, 0, 78, 56
2, 13470, Note_on_c, 0, 82, 64
2, 13800, Note_on_c, 0, 66, 64
2, 13910, Note_on_c, 0, 82, 0
2, 13910, Note_on_c, 0, 78, 0
2, 13910, Note_on_c, 0, 70, 0
2, 13910, Note_on_c, 0, 75, 0
2, 13920, Note_on_c, 0, 66, 0
2, 13920, Note_on_c, 0, 63, 64
2, 13920, Note_on_c, 0, 73, 56
2, 13930, Note_on_c, 0, 75, 56
2, 13940, Note_on_c, 0, 78, 56
2, 13950, Note_on_c, 0, 82, 56
2, 14280, Note_on_c, 0, 63, 0
2, 14280, Note_on_c, 0, 60, 64
2, 14390, Note_on_c, 0, 78, 0
2, 14390, Note_on_c, 0, 82, 0
2, 14390, Note_on_c, 0, 73, 0
2, 14390, Note_on_c, 0, 75, 0
2, 14400, Note_on_c, 0, 60, 0
2, 14400, Note_on_c, 0, 72, 56
2, 14410, Note_on_c, 0, 75, 56
2, 14420, Note_on_c, 0, 78, 56
2, 14430, Note_on_c, 0, 84, 56
2, 14870, Note_on_c, 0, 84, 0
2, 14870, Note_on_c, 0, 72, 0
2, 14870, Note_on_c, 0, 75, 0
2, 14870, Note_on_c, 0, 78, 0
2, 15180, Note_on_c, 0, 77, 64
2, 15240, Note_on_c, 0, 77, 0
2, 15240, Note_on_c, 0, 75, 64
2, 15300, Note_on_c, 0, 75, 0
2, 15300, Note_on_c, 0, 73, 64
2, 15360, Note_on_c, 0, 73, 0
2, 15360, Note_on_c, 0, 72, 64
2, 15420, Note_on_c, 0, 72, 0
2, 15420, Note_on_c, 0, 73, 64
2, 15480, Note_on_c, 0, 73, 0
2, 15480, Note_on_c, 0, 72, 64
2, 15540, Note_on_c, 0, 72, 0
2, 15540, Note_on_c, 0, 73, 64
2, 15600, Note_on_c, 0, 73, 0
2, 15600, Note_on_c, 0, 75, 64
2, 15660, Note_on_c, 0, 75, 0
2, 15660, Note_on_c, 0, 72, 64
2, 15720, Note_on_c, 0, 72, 0
2, 15720, Note_on_c, 0, 75, 64
2, 15780, Note_on_c, 0, 75, 0
2, 15780, Note_on_c, 0, 72, 64
2, 15840, Note_on_c, 0, 72, 0
2, 15840, Note_on_c, 0, 75, 73
2, 15860, Note_on_c, 0, 73, 45
2, 15862, Note_on_c, 0, 75, 0
2, 15880, Note_on_c, 0, 75, 51
2, 15882, Note_on_c, 0, 73, 0
2, 15900, Note_on_c, 0, 73, 58
2, 15902, Note_on_c, 0, 75, 0
2, 15920, Note_on_c, 0, 75, 79
2, 15922, Note_on_c, 0, 73, 0
2, 15940, Note_on_c, 0, 75, 0
2, 15940, Note_on_c, 0, 73, 64
2, 16200, Note_on_c, 0, 73, 0
2, 16200, Note_on_c, 0, 72, 64
2, 16260, Note_on_c, 0, 72, 0
2, 16260, Note_on_c, 0, 70, 64
2, 16320, Note_on_c, 0, 70, 0
2, 16320, Note_on_c, 0, 70, 56
2, 16330, Note_on_c, 0, 73, 56
2, 16340, Note_on_c, 0, 77, 64
2, 16560, Note_on_c, 0, 73, 0
2, 16560, Note_on_c, 0, 70, 0
2, 16620, Note_on_c, 0, 77, 0
2, 16620, Note_on_c, 0, 78, 64
2, 16680, Note_on_c, 0, 78, 0
2, 16680, Note_on_c, 0, 77, 64
2, 16740, Note_on_c, 0, 77, 0
2, 16740, Note_on_c, 0, 75, 64
2, 16800, Note_on_c, 0, 75, 0
2, 16800, Note_on_c, 0, 73, 64
2, 16860, Note_on_c, 0, 73, 0
2, 16860, Note_on_c, 0, 72, 64
2, 16920, Note_on_c, 0, 72, 0
2, 16920, Note_on_c, 0, 70, 64
2, 16980, Note_on_c, 0, 70, 0
2, 16980, Note_on_c, 0, 68, 64
2, 17040, Note_on_c, 0, 68, 0
2, 17040, Note_on_c, 0, 66, 64
2, 17160, Note_on_c, 0, 66, 0
2, 17160, Note_on_c, 0, 68, 64
2, 17220, Note_on_c, 0, 68, 0
2, 17220, Note_on_c, 0, 65, 64
2, 17280, Note_on_c, 0, 65, 0
2, 17280, Note_on_c, 0, 63, 56
2, 17290, Note_on_c, 0, 66, 64
2, 17520, Note_on_c, 0, 63, 0
2, 17640, Note_on_c, 0, 66, 0
2, 17640, Note_on_c, 0, 70, 64
2, 17700, Note_on_c, 0, 70, 0
2, 17700, Note_on_c, 0, 73, 64
2, 17760, Note_on_c, 0, 73, 0
2, 17760, Note_on_c, 0, 78, 64
2, 18060, Note_on_c, 0, 78, 0
2, 18060, Note_on_c, 0, 77, 64
2, 18120, Note_on_c, 0, 77, 0
2, 18120, Note_on_c, 0, 75, 64
2, 18180, Note_on_c, 0, 75, 0
2, 18180, Note_on_c, 0, 73, 64
2, 18240, Note_on_c, 0, 73, 0
2, 18240, Note_on_c, 0, 72, 64
2, 18420, Note_on_c, 0, 72, 0
2, 18420, Note_on_c, 0, 75, 64
2, 18450, Note_on_c, 0, 75, 0
2, 18450, Note_on_c, 0, 73, 56
2, 18480, Note_on_c, 0, 73, 0
2, 18480, Note_on_c, 0, 72, 64
2, 18540, Note_on_c, 0, 72, 0
2, 18540, Note_on_c, 0, 73, 64
2, 18600, Note_on_c, 0, 73, 0
2, 18600, Note_on_c, 0, 75, 64
2, 18720, Note_on_c, 0, 75, 0
2, 18720, Note_on_c, 0, 65, 64
2, 18890, Note_on_c, 0, 65, 0
2, 18900, Note_on_c, 0, 67, 64
2, 18930, Note_on_c, 0, 67, 0
2, 18930, Note_on_c, 0, 69, 56
2, 18960, Note_on_c, 0, 69, 0
2, 18960, Note_on_c, 0, 70, 43
2, 18980, Note_on_c, 0, 69, 44
2, 18982, Note_on_c, 0, 70, 0
2, 19000, Note_on_c, 0, 70, 46
2, 19002, Note_on_c, 0, 69, 0
2, 19020, Note_on_c, 0, 69, 47
2, 19022, Note_on_c, 0, 70, 0
2, 19040, Note_on_c, 0, 70, 48
2, 19042, Note_on_c, 0, 69, 0
2, 19060, Note_on_c, 0, 69, 70
2, 19062, Note_on_c, 0, 70, 0
2, 19080, Note_on_c, 0, 69, 0
2, 19080, Note_on_c, 0, 67, 56
2, 19110, Note_on_c, 0, 67, 0
2, 19110, Note_on_c, 0, 69, 57
2, 19140, Note_on_c, 0, 69, 0
2, 19140, Note_on_c, 0, 67, 72
2, 19170, Note_on_c, 0, 67, 0
2, 19170, Note_on_c, 0, 69, 64
2, 19200, Note_on_c, 0, 69, 0
2, 19200, Note_on_c, 0, 70, 64
2, 19560, Note_on_c, 0, 65, 64
2, 19680, Note_on_c, 0, 65, 0
2, 19680, Note_on_c, 0, 66, 64
2, 20040, Note_on_c, 0, 66, 0
2, 20040, Note_on_c, 0, 63, 64
2, 20160, Note_on_c, 0, 63, 0
2, 20160, Note_on_c, 0, 60, 64
2, 20460, Note_on_c, 0, 60, 0
2, 20460, Note_on_c, 0, 61, 64
2, 20520, Note_on_c, 0, 61, 0
2, 20520, Note_on_c, 0, 60, 64
2, 20580, Note_on_c, 0, 60, 0
2, 20580, Note_on_c, 0, 61, 64
2, 20640, Note_on_c, 0, 61, 0
2, 20640, Note_on_c, 0, 63, 64
2, 20700, Note_on_c, 0, 63, 0
2, 20700, Note_on_c, 0, 61, 64
2, 20760, Note_on_c, 0, 61, 0
2, 20760, Note_on_c, 0, 60, 64
2, 20820, Note_on_c, 0, 60, 0
2, 20820, Note_on_c, 0, 61, 64
2, 20880, Note_on_c, 0, 61, 0
2, 20880, Note_on_c, 0, 63, 64
2, 20940, Note_on_c, 0, 63, 0
2, 20940, Note_on_c, 0, 65, 64
2, 21000, Note_on_c, 0, 65, 0
2, 21000, Note_on_c, 0, 63, 64
2, 21060, Note_on_c, 0, 63, 0
2, 21060, Note_on_c, 0, 65, 64
2, 21120, Note_on_c, 0, 65, 0
2, 21120, Note_on_c, 0, 70, 0
2, 21120, Note_on_c, 0, 66, 64
2, 21120, Note_on_c, 0, 69, 64
2, 21120, Note_on_c, 0, 60, 64
2, 21355, Note_on_c, 0, 66, 0
2, 21360, Note_on_c, 0, 66, 80
2, 21380, Note_on_c, 0, 66, 0
2, 21380, Note_on_c, 0, 65, 43
2, 21400, Note_on_c, 0, 66, 46
2, 21402, Note_on_c, 0, 65, 0
2, 21420, Note_on_c, 0, 65, 49
2, 21422, Note_on_c, 0, 66, 0
2, 21440, Note_on_c, 0, 66, 52
2, 21442, Note_on_c, 0, 65, 0
2, 21460, Note_on_c, 0, 65, 55
2, 21462, Note_on_c, 0, 66, 0
2, 21480, Note_on_c, 0, 66, 57
2, 21482, Note_on_c, 0, 65, 0
2, 21500, Note_on_c, 0, 65, 63
2, 21502, Note_on_c, 0, 66, 0
2, 21520, Note_on_c, 0, 65, 0
2, 21540, Note_on_c, 0, 63, 64
2, 21600, Note_on_c, 0, 63, 0
2, 21600, Note_on_c, 0, 60, 0
2, 21600, Note_on_c, 0, 69, 0
2, 21600, Note_on_c, 0, 70, 64
2, 21600, Note_on_c, 0, 61, 64
2, 21960, Note_on_c, 0, 61, 0
2, 21960, Note_on_c, 0, 70, 0
2, 21960, Note_on_c, 0, 72, 64
2, 21960, Note_on_c, 0, 63, 64
2, 22080, Note_on_c, 0, 63, 0
2, 22080, Note_on_c, 0, 72, 0
2, 22080, Note_on_c, 0, 65, 56
2, 22090, Note_on_c, 0, 70, 56
2, 22100, Note_on_c, 0, 73, 60
2, 22550, Note_on_c, 0, 73, 0
2, 22550, Note_on_c, 0, 70, 0
2, 22550, Note_on_c, 0, 65, 0
2, 22560, Note_on_c, 0, 65, 56
2, 22570, Note_on_c, 0, 70, 56
2, 22580, Note_on_c, 0, 73, 64
2, 23030, Note_on_c, 0, 73, 0
2, 23030, Note_on_c, 0, 70, 0
2, 23030, Note_on_c, 0, 65, 0
2, 23040, Note_on_c, 0, 73, 64
2, 23040, Note_on_c, 0, 70, 64
2, 23040, Note_on_c, 0, 64, 64
2, 23400, Note_on_c, 0, 64, 0
2, 23400, Note_on_c, 0, 70, 0
2, 23400, Note_on_c, 0, 73, 0
2, 23400, Note_on_c, 0, 71, 64
2, 23460, Note_on_c, 0, 71, 0
2, 23460, Note_on_c, 0, 70, 64
2, 23520, Note_on_c, 0, 70, 0
2, 23520, Note_on_c, 0, 70, 56
2, 23520, Note_on_c, 0, 76, 56
2, 23520, Note_on_c, 0, 73, 56
2, 24360, Note_on_c, 0, 73, 0
2, 24360, Note_on_c, 0, 76, 0
2, 24360, Note_on_c, 0, 70, 0
2, 24360, Note_on_c, 0, 75, 64
2, 24420, Note_on_c, 0, 75, 0
2, 24420, Note_on_c, 0, 73, 64
2, 24480, Note_on_c, 0, 73, 0
2, 24480, Note_on_c, 0, 79, 56
2, 24480, Note_on_c, 0, 73, 56
2, 24480, Note_on_c, 0, 70, 56
2, 25320, Note_on_c, 0, 70, 0
2, 25320, Note_on_c, 0, 73, 0
2, 25320, Note_on_c, 0, 79, 0
2, 25320, Note_on_c, 0, 77, 64
2, 25380, Note_on_c, 0, 77, 0
2, 25380, Note_on_c, 0, 75, 64
2, 25440, Note_on_c, 0, 75, 0
2, 25440, Note_on_c, 0, 80, 56
2, 25440, Note_on_c, 0, 71, 56
2, 25440, Note_on_c, 0, 75, 56
2, 25920, Note_on_c, 0, 75, 0
2, 25920, Note_on_c, 0, 71, 0
2, 26040, Note_on_c, 0, 80, 0
2, 26040, Note_on_c, 0, 79, 64
2, 26160, Note_on_c, 0, 79, 0
2, 26160, Note_on_c, 0, 80, 64
2, 26280, Note_on_c, 0, 80, 0
2, 26280, Note_on_c, 0, 82, 64
2, 26390, Note_on_c, 0, 82, 0
2, 26400, Note_on_c, 0, 83, 72
2, 26400, Note_on_c, 0, 79, 64
2, 26400, Note_on_c, 0, 75, 64
2, 26420, Note_on_c, 0, 83, 0
2, 26420, Note_on_c, 0, 82, 45
2, 26440, Note_on_c, 0, 83, 50
2, 26442, Note_on_c, 0, 82, 0
2, 26460, Note_on_c, 0, 82, 55
2, 26462, Note_on_c, 0, 83, 0
2, 26480, Note_on_c, 0, 83, 86
2, 26482, Note_on_c, 0, 82, 0
2, 26500, Note_on_c, 0, 83, 0
2, 26500, Note_on_c, 0, 82, 64
2, 26880, Note_on_c, 0, 75, 0
2, 26880, Note_on_c, 0, 73, 64
2, 27120, Note_on_c, 0, 82, 0
2, 27120, Note_on_c, 0, 80, 64
2, 27360, Note_on_c, 0, 80, 0
2, 27360, Note_on_c, 0, 73, 0
2, 27360, Note_on_c, 0, 79, 0
2, 27360, Note_on_c, 0, 75, 64
2, 27360, Note_on_c, 0, 80, 64
2, 27360, Note_on_c, 0, 71, 64
2, 27720, Note_on_c, 0, 71, 0
2, 27720, Note_on_c, 0, 80, 0
2, 27720, Note_on_c, 0, 75, 0
2, 27720, Note_on_c, 0, 83, 64
2, 27840, Note_on_c, 0, 83, 0
2, 27840, Note_on_c, 0, 77, 64
2, 28200, Note_on_c, 0, 77, 0
2, 28200, Note_on_c, 0, 78, 64
2, 28260, Note_on_c, 0, 78, 0
2, 28260, Note_on_c, 0, 80, 64
2, 28320, Note_on_c, 0, 80, 0
2, 28320, Note_on_c, 0, 74, 64
2, 28680, Note_on_c, 0, 74, 0
2, 28680, Note_on_c, 0, 75, 64
2, 28740, Note_on_c, 0, 75, 0
2, 28740, Note_on_c, 0, 77, 64
2, 28800, Note_on_c, 0, 77, 0
2, 28800, Note_on_c, 0, 70, 64
2, 29160, Note_on_c, 0, 70, 0
2, 29160, Note_on_c, 0, 80, 64
2, 29280, Note_on_c, 0, 80, 0
2, 29280, Note_on_c, 0, 74, 64
2, 29640, Note_on_c, 0, 74, 0
2, 29640, Note_on_c, 0, 75, 64
2, 29700, Note_on_c, 0, 75, 0
2, 29700, Note_on_c, 0, 77, 64
2, 29760, Note_on_c, 0, 77, 0
2, 29760, Note_on_c, 0, 70, 64
2, 30120, Note_on_c, 0, 70, 0
2, 30120, Note_on_c, 0, 72, 64
2, 30180, Note_on_c, 0, 72, 0
2, 30180, Note_on_c, 0, 74, 64
2, 30240, Note_on_c, 0, 74, 0
2, 30240, Note_on_c, 0, 75, 64
2, 30600, Note_on_c, 0, 75, 0
2, 30600, Note_on_c, 0, 73, 64
2, 30660, Note_on_c, 0, 73, 0
2, 30660, Note_on_c, 0, 71, 64
2, 30720, Note_on_c, 0, 71, 0
2, 30720, Note_on_c, 0, 73, 64
2, 31200, Note_on_c, 0, 73, 0
2, 31200, Note_on_c, 0, 73, 56
2, 31200, Note_on_c, 0, 63, 56
2, 31200, Note_on_c, 0, 70, 56
2, 31656, Note_on_c, 0, 70, 0
2, 31656, Note_on_c, 0, 63, 0
2, 31656, Note_on_c, 0, 73, 0
2, 31680, Note_on_c, 0, 73, 64
2, 31680, Note_on_c, 0, 70, 64
2, 31680, Note_on_c, 0, 63, 64
2, 32040, Note_on_c, 0, 63, 0
2, 32040, Note_on_c, 0, 70, 0
2, 32040, Note_on_c, 0, 73, 0
2, 32040, Note_on_c, 0, 71, 64
2, 32100, Note_on_c, 0, 71, 0
2, 32100, Note_on_c, 0, 70, 64
2, 32160, Note_on_c, 0, 70, 0
2, 32160, Note_on_c, 0, 71, 64
2, 32640, Note_on_c, 0, 71, 0
2, 32640, Note_on_c, 0, 63, 56
2, 32650, Note_on_c, 0, 68, 56
2, 32660, Note_on_c, 0, 71, 64
2, 33110, Note_on_c, 0, 71, 0
2, 33110, Note_on_c, 0, 68, 0
2, 33110, Note_on_c, 0, 63, 0
2, 33120, Note_on_c, 0, 65, 56
2, 33130, Note_on_c, 0, 68, 56
2, 33140, Note_on_c, 0, 71, 64
2, 33480, Note_on_c, 0, 71, 0
2, 33480, Note_on_c, 0, 68, 0
2, 33480, Note_on_c, 0, 65, 0
2, 33480, Note_on_c, 0, 70, 64
2, 33540, Note_on_c, 0, 70, 0
2, 33540, Note_on_c, 0, 68, 64
2, 33600, Note_on_c, 0, 68, 0
2, 33600, Note_on_c, 0, 77, 64
2, 33960, Note_on_c, 0, 77, 0
2, 33960, Note_on_c, 0, 71, 64
2, 34070, Note_on_c, 0, 71, 0
2, 34080, Note_on_c, 0, 71, 77
2, 34100, Note_on_c, 0, 70, 80
2, 34102, Note_on_c, 0, 71, 0
2, 34120, Note_on_c, 0, 71, 42
2, 34122, Note_on_c, 0, 70, 0
2, 34140, Note_on_c, 0, 70, 43
2, 34142, Note_on_c, 0, 71, 0
2, 34160, Note_on_c, 0, 71, 44
2, 34162, Note_on_c, 0, 70, 0
2, 34180, Note_on_c, 0, 70, 45
2, 34182, Note_on_c, 0, 71, 0
2, 34200, Note_on_c, 0, 71, 47
2, 34202, Note_on_c, 0, 70, 0
2, 34220, Note_on_c, 0, 70, 48
2, 34222, Note_on_c, 0, 71, 0
2, 34240, Note_on_c, 0, 71, 49
2, 34242, Note_on_c, 0, 70, 0
2, 34260, Note_on_c, 0, 70, 50
2, 34262, Note_on_c, 0, 71, 0
2, 34280, Note_on_c, 0, 71, 51
2, 34282, Note_on_c, 0, 70, 0
2, 34300, Note_on_c, 0, 70, 52
2, 34302, Note_on_c, 0, 71, 0
2, 34320, Note_on_c, 0, 71, 54
2, 34322, Note_on_c, 0, 70, 0
2, 34340, Note_on_c, 0, 70, 55
2, 34342, Note_on_c, 0, 71, 0
2, 34360, Note_on_c, 0, 71, 56
2, 34362, Note_on_c, 0, 70, 0
2, 34380, Note_on_c, 0, 70, 57
2, 34382, Note_on_c, 0, 71, 0
2, 34400, Note_on_c, 0, 71, 58
2, 34402, Note_on_c, 0, 70, 0
2, 34420, Note_on_c, 0, 70, 59
2, 34422, Note_on_c, 0, 71, 0
2, 34440, Note_on_c, 0, 70, 0
2, 34440, Note_on_c, 0, 71, 70
2, 34500, Note_on_c, 0, 71, 0
2, 34500, Note_on_c, 0, 68, 64
2, 34560, Note_on_c, 0, 68, 0
2, 34560, Note_on_c, 0, 63, 56
2, 34570, Note_on_c, 0, 66, 64
2, 35040, Note_on_c, 0, 63, 0
2, 35100, Note_on_c, 0, 66, 0
2, 35100, Note_on_c, 0, 63, 64
2, 35160, Note_on_c, 0, 63, 0
2, 35160, Note_on_c, 0, 65, 64
2, 35220, Note_on_c, 0, 65, 0
2, 35220, Note_on_c, 0, 66, 64
2, 35280, Note_on_c, 0, 66, 0
2, 35280, Note_on_c, 0, 68, 64
2, 35340, Note_on_c, 0, 68, 0
2, 35340, Note_on_c, 0, 70, 64
2, 35400, Note_on_c, 0, 70, 0
2, 35400, Note_on_c, 0, 72, 64
2, 35460, Note_on_c, 0, 72, 0
2, 35460, Note_on_c, 0, 74, 64
2, 35520, Note_on_c, 0, 74, 0
2, 35520, Note_on_c, 0, 75, 64
2, 35580, Note_on_c, 0, 75, 0
2, 35580, Note_on_c, 0, 77, 64
2, 35640, Note_on_c, 0, 77, 0
2, 35640, Note_on_c, 0, 78, 64
2, 35700, Note_on_c, 0, 78, 0
2, 35700, Note_on_c, 0, 80, 64
2, 35760, Note_on_c, 0, 80, 0
2, 35760, Note_on_c, 0, 78, 64
2, 35820, Note_on_c, 0, 78, 0
2, 35820, Note_on_c, 0, 77, 64
2, 35880, Note_on_c, 0, 77, 0
2, 35880, Note_on_c, 0, 78, 64
2, 35940, Note_on_c, 0, 78, 0
2, 35940, Note_on_c, 0, 75, 64
2, 36000, Note_on_c, 0, 75, 0
2, 36000, Note_on_c, 0, 64, 64
2, 36010, Note_on_c, 0, 68, 64
2, 36020, Note_on_c, 0, 71, 64
2, 36030, Note_on_c, 0, 76, 64
2, 36360, Note_on_c, 0, 76, 0
2, 36360, Note_on_c, 0, 64, 0
2, 36360, Note_on_c, 0, 68, 0
2, 36360, Note_on_c, 0, 71, 0
2, 36360, Note_on_c, 0, 71, 64
2, 36420, Note_on_c, 0, 71, 0
2, 36420, Note_on_c, 0, 69, 64
2, 36480, Note_on_c, 0, 69, 0
2, 36480, Note_on_c, 0, 68, 64
2, 36840, Note_on_c, 0, 68, 0
2, 36840, Note_on_c, 0, 69, 64
2, 36900, Note_on_c, 0, 69, 0
2, 36900, Note_on_c, 0, 71, 64
2, 36960, Note_on_c, 0, 71, 0
2, 36960, Note_on_c, 0, 64, 64
2, 37320, Note_on_c, 0, 64, 0
2, 37320, Note_on_c, 0, 66, 64
2, 37380, Note_on_c, 0, 66, 0
2, 37380, Note_on_c, 0, 68, 64
2, 37440, Note_on_c, 0, 68, 0
2, 37440, Note_on_c, 0, 62, 64
2, 37800, Note_on_c, 0, 62, 0
2, 37800, Note_on_c, 0, 65, 64
2, 37860, Note_on_c, 0, 65, 0
2, 37860, Note_on_c, 0, 68, 64
2, 37920, Note_on_c, 0, 68, 0
2, 37920, Note_on_c, 0, 71, 64
2, 38280, Note_on_c, 0, 71, 0
2, 38280, Note_on_c, 0, 70, 64
2, 38340, Note_on_c, 0, 70, 0
2, 38340, Note_on_c, 0, 68, 64
2, 38400, Note_on_c, 0, 68, 0
2, 38400, Note_on_c, 0, 77, 64
2, 38760, Note_on_c, 0, 77, 0
2, 38760, Note_on_c, 0, 75, 64
2, 38820, Note_on_c, 0, 75, 0
2, 38820, Note_on_c, 0, 74, 64
2, 38880, Note_on_c, 0, 74, 0
2, 38880, Note_on_c, 0, 83, 64
2, 39000, Note_on_c, 0, 83, 0
2, 39000, Note_on_c, 0, 81, 64
2, 39240, Note_on_c, 0, 81, 0
2, 39240, Note_on_c, 0, 82, 64
2, 39360, Note_on_c, 0, 82, 0
2, 39360, Note_on_c, 0, 66, 56
2, 39370, Note_on_c, 0, 70, 56
2, 39380, Note_on_c, 0, 75, 64
2, 39830, Note_on_c, 0, 75, 0
2, 39830, Note_on_c, 0, 70, 0
2, 39830, Note_on_c, 0, 66, 0
2, 39840, Note_on_c, 0, 65, 56
2, 39850, Note_on_c, 0, 70, 56
2, 39860, Note_on_c, 0, 74, 56
2, 40200, Note_on_c, 0, 74, 0
2, 40200, Note_on_c, 0, 75, 64
2, 40310, Note_on_c, 0, 75, 0
2, 40310, Note_on_c, 0, 70, 0
2, 40310, Note_on_c, 0, 65, 0
2, 40320, Note_on_c, 0, 75, 56
2, 40320, Note_on_c, 0, 70, 64
2, 40320, Note_on_c, 0, 63, 64
2, 40560, Note_on_c, 0, 63, 0
2, 40560, Note_on_c, 0, 70, 0
2, 40620, Note_on_c, 0, 68, 64
2, 40680, Note_on_c, 0, 68, 0
2, 40680, Note_on_c, 0, 67, 64
2, 40740, Note_on_c, 0, 67, 0
2, 40740, Note_on_c, 0, 68, 60
2, 40790, Note_on_c, 0, 68, 0
2, 40800, Note_on_c, 0, 70, 72
2, 40820, Note_on_c, 0, 68, 47
2, 40822, Note_on_c, 0, 70, 0
2, 40840, Note_on_c, 0, 70, 51
2, 40842, Note_on_c, 0, 68, 0
2, 40860, Note_on_c, 0, 68, 56
2, 40862, Note_on_c, 0, 70, 0
2, 40880, Note_on_c, 0, 70, 50
2, 40882, Note_on_c, 0, 68, 0
2, 40900, Note_on_c, 0, 70, 0
2, 40900, Note_on_c, 0, 68, 64
2, 41630, Note_on_c, 0, 68, 0
2, 41640, Note_on_c, 0, 67, 64
2, 41700, Note_on_c, 0, 67, 0
2, 41700, Note_on_c, 0, 68, 64
2, 41750, Note_on_c, 0, 68, 0
2, 41760, Note_on_c, 0, 70, 64
2, 42540, Note_on_c, 0, 75, 0
2, 42540, Note_on_c, 0, 75, 64
2, 42600, Note_on_c, 0, 75, 0
2, 42600, Note_on_c, 0, 73, 64
2, 42660, Note_on_c, 0, 73, 0
2, 42660, Note_on_c, 0, 71, 64
2, 42720, Note_on_c, 0, 71, 0
2, 42720, Note_on_c, 0, 73, 64
2, 43070, Note_on_c, 0, 70, 0
2, 43080, Note_on_c, 0, 73, 0
2, 43080, Note_on_c, 0, 70, 64
2, 43200, Note_on_c, 0, 70, 0
2, 43200, Note_on_c, 0, 63, 64
2, 43200, Note_on_c, 0, 71, 64
2, 43200, Note_on_c, 0, 68, 64
2, 43680, Note_on_c, 0, 68, 0
2, 43970, Note_on_c, 0, 71, 0
2, 43970, Note_on_c, 0, 63, 0
2, 43980, Note_on_c, 0, 71, 64
2, 43980, Note_on_c, 0, 63, 64
2, 44040, Note_on_c, 0, 63, 0
2, 44040, Note_on_c, 0, 71, 0
2, 44040, Note_on_c, 0, 61, 64
2, 44040, Note_on_c, 0, 70, 64
2, 44100, Note_on_c, 0, 70, 0
2, 44100, Note_on_c, 0, 61, 0
2, 44100, Note_on_c, 0, 59, 64
2, 44100, Note_on_c, 0, 68, 64
2, 44160, Note_on_c, 0, 68, 0
2, 44160, Note_on_c, 0, 59, 0
2, 44160, Note_on_c, 0, 61, 64
2, 44160, Note_on_c, 0, 70, 64
2, 44520, Note_on_c, 0, 70, 0
2, 44520, Note_on_c, 0, 61, 0
2, 44520, Note_on_c, 0, 67, 64
2, 44520, Note_on_c, 0, 58, 64
2, 44640, Note_on_c, 0, 58, 0
2, 44640, Note_on_c, 0, 67, 0
2, 44640, Note_on_c, 0, 68, 56
2, 44640, Note_on_c, 0, 62, 56
2, 44640, Note_on_c, 0, 59, 56
2, 45110, Note_on_c, 0, 59, 0
2, 45110, Note_on_c, 0, 62, 0
2, 45110, Note_on_c, 0, 68, 0
2, 45120, Note_on_c, 0, 59, 56
2, 45120, Note_on_c, 0, 68, 56
2, 45120, Note_on_c, 0, 62, 56
2, 45590, Note_on_c, 0, 62, 0
2, 45590, Note_on_c, 0, 68, 0
2, 45590, Note_on_c, 0, 59, 0
2, 45600, Note_on_c, 0, 68, 56
2, 45600, Note_on_c, 0, 59, 56
2, 45600, Note_on_c, 0, 62, 56
2, 46070, Note_on_c, 0, 62, 0
2, 46070, Note_on_c, 0, 59, 0
2, 46070, Note_on_c, 0, 68, 0
2, 46080, Note_on_c, 0, 68, 56
2, 46080, Note_on_c, 0, 59, 56
2, 46080, Note_on_c, 0, 65, 56
2, 46550, Note_on_c, 0, 65, 0
2, 46550, Note_on_c, 0, 59, 0
2, 46550, Note_on_c, 0, 68, 0
2, 46560, Note_on_c, 0, 59, 56
2, 46560, Note_on_c, 0, 68, 56
2, 46560, Note_on_c, 0, 65, 56
2, 47030, Note_on_c, 0, 65, 0
2, 47030, Note_on_c, 0, 68, 0
2, 47030, Note_on_c, 0, 59, 0
2, 47040, Note_on_c, 0, 59, 56
2, 47040, Note_on_c, 0, 68, 56
2, 47040, Note_on_c, 0, 65, 56
2, 47510, Note_on_c, 0, 65, 0
2, 47510, Note_on_c, 0, 68, 0
2, 47510, Note_on_c, 0, 59, 0
2, 47520, Note_on_c, 0, 68, 56
2, 47520, Note_on_c, 0, 65, 56
2, 47520, Note_on_c, 0, 62, 56
2, 47990, Note_on_c, 0, 62, 0
2, 47990, Note_on_c, 0, 65, 0
2, 47990, Note_on_c, 0, 68, 0
2, 48000, Note_on_c, 0, 68, 56
2, 48000, Note_on_c, 0, 62, 56
2, 48000, Note_on_c, 0, 65, 56
2, 48470, Note_on_c, 0, 65, 0
2, 48470, Note_on_c, 0, 62, 0
2, 48470, Note_on_c, 0, 68, 0
2, 48480, Note_on_c, 0, 68, 56
2, 48480, Note_on_c, 0, 65, 56
2, 48480, Note_on_c, 0, 62, 56
2, 48950, Note_on_c, 0, 62, 0
2, 48950, Note_on_c, 0, 65, 0
2, 48950, Note_on_c, 0, 68, 0
2, 48970, Note_on_c, 0, 62, 56
2, 48980, Note_on_c, 0, 65, 56
2, 48990, Note_on_c, 0, 68, 56
2, 49000, Note_on_c, 0, 71, 56
2, 49430, Note_on_c, 0, 68, 0
2, 49430, Note_on_c, 0, 62, 0
2, 49430, Note_on_c, 0, 65, 0
2, 49500, Note_on_c, 0, 71, 0
2, 49500, Note_on_c, 0, 70, 64
2, 49560, Note_on_c, 0, 70, 0
2, 49560, Note_on_c, 0, 68, 64
2, 49620, Note_on_c, 0, 68, 0
2, 49620, Note_on_c, 0, 66, 64
2, 49680, Note_on_c, 0, 66, 0
2, 49680, Note_on_c, 0, 65, 64
2, 49740, Note_on_c, 0, 65, 0
2, 49740, Note_on_c, 0, 63, 64
2, 49800, Note_on_c, 0, 63, 0
2, 49800, Note_on_c, 0, 62, 64
2, 49860, Note_on_c, 0, 62, 0
2, 49860, Note_on_c, 0, 65, 64
2, 49920, Note_on_c, 0, 65, 0
2, 49920, Note_on_c, 0, 68, 64
2, 49980, Note_on_c, 0, 68, 0
2, 49980, Note_on_c, 0, 71, 64
2, 50040, Note_on_c, 0, 71, 0
2, 50040, Note_on_c, 0, 74, 64
2, 50100, Note_on_c, 0, 74, 0
2, 50100, Note_on_c, 0, 77, 64
2, 50160, Note_on_c, 0, 77, 0
2, 50160, Note_on_c, 0, 80, 64
2, 50220, Note_on_c, 0, 80, 0
2, 50220, Note_on_c, 0, 83, 64
2, 50280, Note_on_c, 0, 83, 0
2, 50280, Note_on_c, 0, 82, 64
2, 50340, Note_on_c, 0, 82, 0
2, 50340, Note_on_c, 0, 74, 64
2, 50400, Note_on_c, 0, 74, 0
2, 50400, Note_on_c, 0, 75, 64
2, 50760, Note_on_c, 0, 75, 0
2, 50760, Note_on_c, 0, 66, 64
2, 50760, Note_on_c, 0, 70, 64
2, 50870, Note_on_c, 0, 66, 0
2, 50880, Note_on_c, 0, 70, 0
2, 50880, Note_on_c, 0, 68, 72
2, 50880, Note_on_c, 0, 63, 64
2, 50910, Note_on_c, 0, 68, 0
2, 50910, Note_on_c, 0, 66, 64
2, 51350, Note_on_c, 0, 66, 0
2, 51360, Note_on_c, 0, 63, 0
2, 51360, Note_on_c, 0, 66, 74
2, 51360, Note_on_c, 0, 62, 64
2, 51380, Note_on_c, 0, 66, 0
2, 51380, Note_on_c, 0, 65, 44
2, 51400, Note_on_c, 0, 66, 48
2, 51402, Note_on_c, 0, 65, 0
2, 51420, Note_on_c, 0, 65, 52
2, 51422, Note_on_c, 0, 66, 0
2, 51440, Note_on_c, 0, 66, 56
2, 51442, Note_on_c, 0, 65, 0
2, 51460, Note_on_c, 0, 65, 73
2, 51462, Note_on_c, 0, 66, 0
2, 51480, Note_on_c, 0, 65, 0
2, 51480, Note_on_c, 0, 63, 64
2, 51600, Note_on_c, 0, 63, 0
2, 51600, Note_on_c, 0, 65, 64
2, 51840, Note_on_c, 0, 65, 0
2, 51840, Note_on_c, 0, 62, 0
2, 51840, Note_on_c, 0, 63, 64
2, 52620, Note_on_c, 0, 63, 0
2, 52620, Note_on_c, 0, 65, 64
2, 52680, Note_on_c, 0, 65, 0
2, 52680, Note_on_c, 0, 67, 64
2, 52740, Note_on_c, 0, 67, 0
2, 52740, Note_on_c, 0, 68, 64
2, 52800, Note_on_c, 0, 68, 0
2, 52800, Note_on_c, 0, 70, 64
2, 53100, Note_on_c, 0, 70, 0
2, 53100, Note_on_c, 0, 64, 64
2, 53160, Note_on_c, 0, 64, 0
2, 53160, Note_on_c, 0, 63, 64
2, 53220, Note_on_c, 0, 63, 0
2, 53220, Note_on_c, 0, 61, 64
2, 53280, Note_on_c, 0, 61, 0
2, 53280, Note_on_c, 0, 59, 64
2, 53940, Note_on_c, 0, 59, 0
2, 53940, Note_on_c, 0, 63, 64
2, 54000, Note_on_c, 0, 63, 0
2, 54000, Note_on_c, 0, 65, 64
2, 54060, Note_on_c, 0, 65, 0
2, 54060, Note_on_c, 0, 67, 64
2, 54120, Note_on_c, 0, 67, 0
2, 54120, Note_on_c, 0, 68, 64
2, 54180, Note_on_c, 0, 68, 0
2, 54180, Note_on_c, 0, 70, 64
2, 54240, Note_on_c, 0, 70, 0
2, 54240, Note_on_c, 0, 71, 64
2, 54390, Note_on_c, 0, 71, 0
2, 54390, Note_on_c, 0, 70, 64
2, 54420, Note_on_c, 0, 70, 0
2, 54420, Note_on_c, 0, 68, 64
2, 54450, Note_on_c, 0, 68, 0
2, 54450, Note_on_c, 0, 66, 64
2, 54480, Note_on_c, 0, 66, 0
2, 54480, Note_on_c, 0, 65, 64
2, 54540, Note_on_c, 0, 65, 0
2, 54540, Note_on_c, 0, 66, 64
2, 54600, Note_on_c, 0, 66, 0
2, 54600, Note_on_c, 0, 68, 64
2, 54660, Note_on_c, 0, 68, 0
2, 54660, Note_on_c, 0, 65, 64
2, 54720, Note_on_c, 0, 65, 0
2, 54720, Note_on_c, 0, 62, 56
2, 55080, Note_on_c, 0, 59, 64
2, 55140, Note_on_c, 0, 59, 0
2, 55140, Note_on_c, 0, 58, 64
2, 55200, Note_on_c, 0, 58, 0
2, 55200, Note_on_c, 0, 59, 64
2, 55560, Note_on_c, 0, 59, 0
2, 55560, Note_on_c, 0, 56, 64
2, 55680, Note_on_c, 0, 56, 0
2, 55680, Note_on_c, 0, 53, 64
2, 56030, Note_on_c, 0, 62, 0
2, 56040, Note_on_c, 0, 62, 64
2, 56160, Note_on_c, 0, 62, 0
2, 56160, Note_on_c, 0, 53, 0
2, 56160, Note_on_c, 0, 55, 56
2, 56160, Note_on_c, 0, 58, 56
2, 56160, Note_on_c, 0, 63, 64
2, 57600, Note_on_c, 0, 63, 0
2, 57600, Note_on_c, 0, 58, 0
2, 57600, Note_on_c, 0, 55, 0
2, 57600, End_track
3, 0, Start_track
3, 0, Title_t, "LH B"
3, 0, Program_c, 1, 0
3, 5160, Note_on_c, 1, 58, 64
3, 5280, Note_on_c, 1, 58, 0
3, 5280, Note_on_c, 1, 54, 64
3, 5640, Note_on_c, 1, 54, 0
3, 5640, Note_on_c, 1, 51, 64
3, 5760, Note_on_c, 1, 51, 0
3, 5760, Note_on_c, 1, 46, 64
3, 6230, Note_on_c, 1, 46, 0
3, 6240, Note_on_c, 1, 46, 56
3, 6250, Note_on_c, 1, 49, 56
3, 6260, Note_on_c, 1, 54, 56
3, 6270, Note_on_c, 1, 58, 56
3, 6710, Note_on_c, 1, 58, 0
3, 6710, Note_on_c, 1, 46, 0
3, 6710, Note_on_c, 1, 49, 0
3, 6710, Note_on_c, 1, 54, 0
3, 6720, Note_on_c, 1, 46, 56
3, 6730, Note_on_c, 1, 49, 56
3, 6740, Note_on_c, 1, 54, 56
3, 6750, Note_on_c, 1, 58, 56
3, 7190, Note_on_c, 1, 58, 0
3, 7190, Note_on_c, 1, 46, 0
3, 7190, Note_on_c, 1, 49, 0
3, 7190, Note_on_c, 1, 54, 0
3, 7200, Note_on_c, 1, 47, 56
3, 7210, Note_on_c, 1, 51, 56
3, 7220, Note_on_c, 1, 54, 56
3, 7230, Note_on_c, 1, 59, 56
3, 7670, Note_on_c, 1, 54, 0
3, 7670, Note_on_c, 1, 47, 0
3, 7670, Note_on_c, 1, 51, 0
3, 7690, Note_on_c, 1, 59, 0
3, 8040, Note_on_c, 1, 54, 64
3, 8160, Note_on_c, 1, 54, 0
3, 8160, Note_on_c, 1, 51, 64
3, 8520, Note_on_c, 1, 51, 0
3, 8520, Note_on_c, 1, 47, 64
3, 8640, Note_on_c, 1, 47, 0
3, 8640, Note_on_c, 1, 43, 64
3, 9110, Note_on_c, 1, 43, 0
3, 9120, Note_on_c, 1, 43, 56
3, 9130, Note_on_c, 1, 46, 56
3, 9140, Note_on_c, 1, 51, 56
3, 9150, Note_on_c, 1, 55, 56
3, 9590, Note_on_c, 1, 55, 0
3, 9590, Note_on_c, 1, 43, 0
3, 9590, Note_on_c, 1, 46, 0
3, 9590, Note_on_c, 1, 51, 0
3, 9600, Note_on_c, 1, 43, 56
3, 9610, Note_on_c, 1, 46, 56
3, 9620, Note_on_c, 1, 51, 56
3, 9630, Note_on_c, 1, 55, 56
3, 10070, Note_on_c, 1, 55, 0
3, 10070, Note_on_c, 1, 43, 0
3, 10070, Note_on_c, 1, 46, 0
3, 10070, Note_on_c, 1, 51, 0
3, 10080, Note_on_c, 1, 44, 56
3, 10090, Note_on_c, 1, 47, 56
3, 10100, Note_on_c, 1, 51, 56
3, 10110, Note_on_c, 1, 56, 56
3, 10550, Note_on_c, 1, 56, 0
3, 10550, Note_on_c, 1, 44, 0
3, 10550, Note_on_c, 1, 47, 0
3, 10550, Note_on_c, 1, 51, 0
3, 14400, Note_on_c, 1, 57, 64
3, 14870, Note_on_c, 1, 57, 0
3, 14880, Note_on_c, 1, 57, 56
3, 14890, Note_on_c, 1, 60, 56
3, 14900, Note_on_c, 1, 65, 56
3, 15350, Note_on_c, 1, 65, 0
3, 15350, Note_on_c, 1, 60, 0
3, 15350, Note_on_c, 1, 57, 0
3, 15360, Note_on_c, 1, 57, 56
3, 15370, Note_on_c, 1, 60, 56
3, 15380, Note_on_c, 1, 65, 56
3, 15830, Note_on_c, 1, 65, 0
3, 15830, Note_on_c, 1, 60, 0
3, 15830, Note_on_c, 1, 57, 0
3, 15840, Note_on_c, 1, 58, 56
3, 15850, Note_on_c, 1, 61, 56
3, 15860, Note_on_c, 1, 65, 56
3, 16310, Note_on_c, 1, 65, 0
3, 16310, Note_on_c, 1, 61, 0
3, 16310, Note_on_c, 1, 58, 0
3, 16320, Note_on_c, 1, 58, 56
3, 16330, Note_on_c, 1, 61, 56
3, 16340, Note_on_c, 1, 65, 56
3, 16790, Note_on_c, 1, 65, 0
3, 16790, Note_on_c, 1, 61, 0
3, 16790, Note_on_c, 1, 58, 0
3, 16800, Note_on_c, 1, 58, 56
3, 16810, Note_on_c, 1, 61, 56
3, 16820, Note_on_c, 1, 65, 56
3, 17270, Note_on_c, 1, 65, 0
3, 17270, Note_on_c, 1, 61, 0
3, 17270, Note_on_c, 1, 58, 0
3, 17280, Note_on_c, 1, 51, 56
3, 17290, Note_on_c, 1, 58, 56
3, 17300, Note_on_c, 1, 61, 56
3, 17750, Note_on_c, 1, 61, 0
3, 17750, Note_on_c, 1, 58, 0
3, 17750, Note_on_c, 1, 51, 0
3, 17760, Note_on_c, 1, 51, 56
3, 17770, Note_on_c, 1, 58, 56
3, 17780, Note_on_c, 1, 60, 56
3, 18230, Note_on_c, 1, 60, 0
3, 18230, Note_on_c, 1, 58, 0
3, 18230, Note_on_c, 1, 51, 0
3, 18240, Note_on_c, 1, 51, 56
3, 18250, Note_on_c, 1, 58, 56
3, 18260, Note_on_c, 1, 60, 56
3, 18710, Note_on_c, 1, 60, 0
3, 18710, Note_on_c, 1, 58, 0
3, 18710, Note_on_c, 1, 51, 0
3, 18720, Note_on_c, 1, 51, 56
3, 18730, Note_on_c, 1, 57, 56
3, 18740, Note_on_c, 1, 60, 56
3, 19190, Note_on_c, 1, 60, 0
3, 19190, Note_on_c, 1, 57, 0
3, 19190, Note_on_c, 1, 51, 0
3, 19200, Note_on_c, 1, 49, 56
3, 19210, Note_on_c, 1, 53, 56
3, 19220, Note_on_c, 1, 58, 56
3, 19670, Note_on_c, 1, 58, 0
3, 19670, Note_on_c, 1, 53, 0
3, 19670, Note_on_c, 1, 49, 0
3, 19680, Note_on_c, 1, 58, 56
3, 19680, Note_on_c, 1, 51, 56
3, 20150, Note_on_c, 1, 51, 0
3, 20150, Note_on_c, 1, 58, 0
3, 20160, Note_on_c, 1, 53, 56
3, 20630, Note_on_c, 1, 53, 0
3, 20640, Note_on_c, 1, 41, 56
3, 20640, Note_on_c, 1, 53, 56
3, 21110, Note_on_c, 1, 53, 0
3, 21110, Note_on_c, 1, 41, 0
3, 21120, Note_on_c, 1, 41, 56
3, 21120, Note_on_c, 1, 53, 56
3, 21590, Note_on_c, 1, 53, 0
3, 21590, Note_on_c, 1, 41, 0
3, 21600, Note_on_c, 1, 58, 56
3, 21600, Note_on_c, 1, 53, 56
3, 21600, Note_on_c, 1, 46, 56
3, 22070, Note_on_c, 1, 46, 0
3, 22070, Note_on_c, 1, 53, 0
3, 22070, Note_on_c, 1, 58, 0
3, 22440, Note_on_c, 1, 46, 64
3, 22560, Note_on_c, 1, 46, 0
3, 22560, Note_on_c, 1, 49, 64
3, 22920, Note_on_c, 1, 49, 0
3, 22920, Note_on_c, 1, 53, 64
3, 23040, Note_on_c, 1, 53, 0
3, 23040, Note_on_c, 1, 43, 64
3, 23820, Note_on_c, 1, 43, 0
3, 23820, Note_on_c, 1, 46, 64
3, 23880, Note_on_c, 1, 46, 0
3, 23880, Note_on_c, 1, 44, 64
3, 23940, Note_on_c, 1, 44, 0
3, 23940, Note_on_c, 1, 43, 64
3, 24000, Note_on_c, 1, 43, 0
3, 24000, Note_on_c, 1, 49, 64
3, 24840, Note_on_c, 1, 49, 0
3, 24840, Note_on_c, 1, 47, 64
3, 24900, Note_on_c, 1, 47, 0
3, 24900, Note_on_c, 1, 46, 64
3, 24960, Note_on_c, 1, 46, 0
3, 24960, Note_on_c, 1, 52, 64
3, 25080, Note_on_c, 1, 52, 0
3, 25080, Note_on_c, 1, 51, 64
3, 25200, Note_on_c, 1, 51, 0
3, 25200, Note_on_c, 1, 52, 64
3, 25320, Note_on_c, 1, 52, 0
3, 25320, Note_on_c, 1, 49, 64
3, 25440, Note_on_c, 1, 49, 0
3, 25440, Note_on_c, 1, 47, 64
3, 25500, Note_on_c, 1, 47, 0
3, 25500, Note_on_c, 1, 46, 64
3, 25560, Note_on_c, 1, 46, 0
3, 25560, Note_on_c, 1, 44, 64
3, 25620, Note_on_c, 1, 44, 0
3, 25620, Note_on_c, 1, 46, 64
3, 25680, Note_on_c, 1, 46, 0
3, 25680, Note_on_c, 1, 47, 64
3, 25740, Note_on_c, 1, 47, 0
3, 25740, Note_on_c, 1, 44, 64
3, 25800, Note_on_c, 1, 44, 0
3, 25800, Note_on_c, 1, 46, 64
3, 25860, Note_on_c, 1, 46, 0
3, 25860, Note_on_c, 1, 47, 64
3, 25920, Note_on_c, 1, 47, 0
3, 25920, Note_on_c, 1, 40, 64
3, 26220, Note_on_c, 1, 40, 0
3, 26220, Note_on_c, 1, 52, 64
3, 26280, Note_on_c, 1, 52, 0
3, 26280, Note_on_c, 1, 51, 64
3, 26340, Note_on_c, 1, 51, 0
3, 26340, Note_on_c, 1, 49, 64
3, 26400, Note_on_c, 1, 49, 0
3, 26400, Note_on_c, 1, 51, 64
3, 26760, Note_on_c, 1, 51, 0
3, 26760, Note_on_c, 1, 49, 64
3, 26880, Note_on_c, 1, 49, 0
3, 26880, Note_on_c, 1, 51, 64
3, 27240, Note_on_c, 1, 51, 0
3, 27240, Note_on_c, 1, 39, 64
3, 27360, Note_on_c, 1, 39, 0
3, 27360, Note_on_c, 1, 44, 64
3, 27840, Note_on_c, 1, 44, 0
3, 28200, Note_on_c, 1, 59, 64
3, 28320, Note_on_c, 1, 59, 0
3, 28320, Note_on_c, 1, 53, 64
3, 28680, Note_on_c, 1, 53, 0
3, 28680, Note_on_c, 1, 54, 64
3, 28740, Note_on_c, 1, 54, 0
3, 28740, Note_on_c, 1, 56, 64
3, 28800, Note_on_c, 1, 56, 0
3, 28800, Note_on_c, 1, 50, 64
3, 29160, Note_on_c, 1, 50, 0
3, 29160, Note_on_c, 1, 51, 64
3, 29220, Note_on_c, 1, 51, 0
3, 29220, Note_on_c, 1, 53, 64
3, 29280, Note_on_c, 1, 53, 0
3, 29280, Note_on_c, 1, 46, 64
3, 29640, Note_on_c, 1, 46, 0
3, 29640, Note_on_c, 1, 56, 64
3, 29760, Note_on_c, 1, 56, 0
3, 29760, Note_on_c, 1, 50, 64
3, 30120, Note_on_c, 1, 50, 0
3, 30120, Note_on_c, 1, 51, 64
3, 30180, Note_on_c, 1, 51, 0
3, 30180, Note_on_c, 1, 53, 64
3, 30240, Note_on_c, 1, 53, 0
3, 30240, Note_on_c, 1, 42, 64
3, 30720, Note_on_c, 1, 42, 0
3, 30720, Note_on_c, 1, 43, 64
3, 31080, Note_on_c, 1, 43, 0
3, 31080, Note_on_c, 1, 58, 64
3, 31200, Note_on_c, 1, 58, 0
3, 31200, Note_on_c, 1, 55, 64
3, 31560, Note_on_c, 1, 55, 0
3, 31560, Note_on_c, 1, 51, 64
3, 31680, Note_on_c, 1, 51, 0
3, 31680, Note_on_c, 1, 44, 64
3, 32160, Note_on_c, 1, 44, 0
3, 32520, Note_on_c, 1, 59, 64
3, 32640, Note_on_c, 1, 59, 0
3, 32640, Note_on_c, 1, 56, 64
3, 33000, Note_on_c, 1, 56, 0
3, 33000, Note_on_c, 1, 53, 64
3, 33110, Note_on_c, 1, 53, 0
3, 33120, Note_on_c, 1, 50, 64
3, 33130, Note_on_c, 1, 53, 56
3, 33140, Note_on_c, 1, 56, 56
3, 33590, Note_on_c, 1, 56, 0
3, 33590, Note_on_c, 1, 53, 0
3, 33590, Note_on_c, 1, 50, 0
3, 33600, Note_on_c, 1, 49, 56
3, 33610, Note_on_c, 1, 53, 56
3, 33620, Note_on_c, 1, 58, 56
3, 34070, Note_on_c, 1, 58, 0
3, 34070, Note_on_c, 1, 53, 0
3, 34070, Note_on_c, 1, 49, 0
3, 34080, Note_on_c, 1, 49, 56
3, 34090, Note_on_c, 1, 53, 56
3, 34100, Note_on_c, 1, 58, 56
3, 34550, Note_on_c, 1, 58, 0
3, 34550, Note_on_c, 1, 53, 0
3, 34550, Note_on_c, 1, 49, 0
3, 34560, Note_on_c, 1, 51, 56
3, 34570, Note_on_c, 1, 54, 56
3, 34580, Note_on_c, 1, 58, 56
3, 35030, Note_on_c, 1, 58, 0
3, 35030, Note_on_c, 1, 54, 0
3, 35030, Note_on_c, 1, 51, 0
3, 35040, Note_on_c, 1, 51, 56
3, 35050, Note_on_c, 1, 54, 56
3, 35060, Note_on_c, 1, 58, 56
3, 35510, Note_on_c, 1, 58, 0
3, 35510, Note_on_c, 1, 54, 0
3, 35510, Note_on_c, 1, 51, 0
3, 35520, Note_on_c, 1, 51, 56
3, 35530, Note_on_c, 1, 54, 56
3, 35540, Note_on_c, 1, 58, 56
3, 35990, Note_on_c, 1, 58, 0
3, 35990, Note_on_c, 1, 54, 0
3, 35990, Note_on_c, 1, 51, 0
3, 36000, Note_on_c, 1, 44, 56
3, 36010, Note_on_c, 1, 47, 56
3, 36020, Note_on_c, 1, 52, 56
3, 36030, Note_on_c, 1, 56, 56
3, 36470, Note_on_c, 1, 56, 0
3, 36470, Note_on_c, 1, 44, 0
3, 36470, Note_on_c, 1, 47, 0
3, 36470, Note_on_c, 1, 52, 0
3, 37440, Note_on_c, 1, 44, 56
3, 37440, Note_on_c, 1, 53, 56
3, 37440, Note_on_c, 1, 58, 56
3, 37920, Note_on_c, 1, 58, 0
3, 37920, Note_on_c, 1, 53, 0
3, 37920, Note_on_c, 1, 44, 0
3, 39360, Note_on_c, 1, 46, 56
3, 39370, Note_on_c, 1, 51, 56
3, 39380, Note_on_c, 1, 54, 56
3, 39390, Note_on_c, 1, 58, 56
3, 39830, Note_on_c, 1, 58, 0
3, 39830, Note_on_c, 1, 46, 0
3, 39830, Note_on_c, 1, 51, 0
3, 39830, Note_on_c, 1, 54, 0
3, 39840, Note_on_c, 1, 46, 56
3, 39850, Note_on_c, 1, 53, 56
3, 39860, Note_on_c, 1, 56, 56
3, 39870, Note_on_c, 1, 58, 56
3, 40310, Note_on_c, 1, 58, 0
3, 40310, Note_on_c, 1, 46, 0
3, 40310, Note_on_c, 1, 53, 0
3, 40310, Note_on_c, 1, 56, 0
3, 40320, Note_on_c, 1, 59, 56
3, 40320, Note_on_c, 1, 47, 56
3, 40790, Note_on_c, 1, 47, 0
3, 40790, Note_on_c, 1, 59, 0
3, 40800, Note_on_c, 1, 59, 56
3, 40800, Note_on_c, 1, 63, 56
3, 41270, Note_on_c, 1, 63, 0
3, 41270, Note_on_c, 1, 59, 0
3, 41280, Note_on_c, 1, 59, 56
3, 41280, Note_on_c, 1, 63, 56
3, 41750, Note_on_c, 1, 63, 0
3, 41750, Note_on_c, 1, 59, 0
3, 41760, Note_on_c, 1, 63, 56
3, 41760, Note_on_c, 1, 58, 56
3, 41760, Note_on_c, 1, 55, 56
3, 42230, Note_on_c, 1, 55, 0
3, 42230, Note_on_c, 1, 58, 0
3, 42230, Note_on_c, 1, 63, 0
3, 42240, Note_on_c, 1, 63, 56
3, 42240, Note_on_c, 1, 58, 56
3, 42240, Note_on_c, 1, 55, 56
3, 42710, Note_on_c, 1, 55, 0
3, 42710, Note_on_c, 1, 58, 0
3, 42710, Note_on_c, 1, 63, 0
3, 42720, Note_on_c, 1, 63, 56
3, 42720, Note_on_c, 1, 58, 56
3, 42720, Note_on_c, 1, 55, 56
3, 43190, Note_on_c, 1, 55, 0
3, 43190, Note_on_c, 1, 58, 0
3, 43190, Note_on_c, 1, 63, 0
3, 43200, Note_on_c, 1, 56, 56
3, 43200, Note_on_c, 1, 59, 56
3, 43670, Note_on_c, 1, 59, 0
3, 43670, Note_on_c, 1, 56, 0
3, 43680, Note_on_c, 1, 52, 56
3, 44150, Note_on_c, 1, 52, 0
3, 44160, Note_on_c, 1, 52, 56
3, 44630, Note_on_c, 1, 52, 0
3, 44640, Note_on_c, 1, 53, 64
3, 45420, Note_on_c, 1, 53, 0
3, 45420, Note_on_c, 1, 54, 64
3, 45480, Note_on_c, 1, 54, 0
3, 45480, Note_on_c, 1, 53, 64
3, 45540, Note_on_c, 1, 53, 0
3, 45540, Note_on_c, 1, 51, 64
3, 45600, Note_on_c, 1, 51, 0
3, 45600, Note_on_c, 1, 53, 64
3, 45780, Note_on_c, 1, 53, 0
3, 45780, Note_on_c, 1, 54, 64
3, 45840, Note_on_c, 1, 54, 0
3, 45840, Note_on_c, 1, 56, 64
3, 45900, Note_on_c, 1, 56, 0
3, 45900, Note_on_c, 1, 53, 64
3, 45960, Note_on_c, 1, 53, 0
3, 45960, Note_on_c, 1, 54, 64
3, 46020, Note_on_c, 1, 54, 0
3, 46020, Note_on_c, 1, 56, 64
3, 46080, Note_on_c, 1, 56, 0
3, 46080, Note_on_c, 1, 50, 64
3, 46860, Note_on_c, 1, 50, 0
3, 46860, Note_on_c, 1, 51, 64
3, 46920, Note_on_c, 1, 51, 0
3, 46920, Note_on_c, 1, 50, 64
3, 46980, Note_on_c, 1, 50, 0
3, 46980, Note_on_c, 1, 48, 64
3, 47040, Note_on_c, 1, 48, 0
3, 47040, Note_on_c, 1, 50, 64
3, 47220, Note_on_c, 1, 50, 0
3, 47220, Note_on_c, 1, 51, 64
3, 47280, Note_on_c, 1, 51, 0
3, 47280, Note_on_c, 1, 53, 64
3, 47340, Note_on_c, 1, 53, 0
3, 47340, Note_on_c, 1, 50, 64
3, 47400, Note_on_c, 1, 50, 0
3, 47400, Note_on_c, 1, 51, 64
3, 47460, Note_on_c, 1, 51, 0
3, 47460, Note_on_c, 1, 53, 64
3, 47520, Note_on_c, 1, 53, 0
3, 47520, Note_on_c, 1, 47, 64
3, 48300, Note_on_c, 1, 47, 0
3, 48300, Note_on_c, 1, 49, 64
3, 48360, Note_on_c, 1, 49, 0
3, 48360, Note_on_c, 1, 47, 64
3, 48420, Note_on_c, 1, 47, 0
3, 48420, Note_on_c, 1, 46, 64
3, 48480, Note_on_c, 1, 46, 0
3, 48480, Note_on_c, 1, 47, 64
3, 48540, Note_on_c, 1, 47, 0
3, 48540, Note_on_c, 1, 46, 64
3, 48600, Note_on_c, 1, 46, 0
3, 48600, Note_on_c, 1, 44, 64
3, 48660, Note_on_c, 1, 44, 0
3, 48660, Note_on_c, 1, 46, 64
3, 48720, Note_on_c, 1, 46, 0
3, 48720, Note_on_c, 1, 47, 64
3, 48780, Note_on_c, 1, 47, 0
3, 48780, Note_on_c, 1, 44, 64
3, 48840, Note_on_c, 1, 44, 0
3, 48840, Note_on_c, 1, 46, 64
3, 48900, Note_on_c, 1, 46, 0
3, 48900, Note_on_c, 1, 47, 64
3, 48960, Note_on_c, 1, 47, 0
3, 48960, Note_on_c, 1, 38, 64
3, 49440, Note_on_c, 1, 38, 0
3, 50760, Note_on_c, 1, 51, 56
3, 50760, Note_on_c, 1, 39, 56
3, 50870, Note_on_c, 1, 51, 0
3, 50880, Note_on_c, 1, 39, 0
3, 50880, Note_on_c, 1, 51, 56
3, 50880, Note_on_c, 1, 54, 56
3, 50880, Note_on_c, 1, 46, 56
3, 51350, Note_on_c, 1, 46, 0
3, 51350, Note_on_c, 1, 54, 0
3, 51350, Note_on_c, 1, 51, 0
3, 51360, Note_on_c, 1, 53, 56
3, 51360, Note_on_c, 1, 56, 56
3, 51360, Note_on_c, 1, 46, 56
3, 51830, Note_on_c, 1, 46, 0
3, 51830, Note_on_c, 1, 56, 0
3, 51830, Note_on_c, 1, 53, 0
3, 51840, Note_on_c, 1, 51, 56
3, 51850, Note_on_c, 1, 55, 56
3, 51860, Note_on_c, 1, 58, 56
3, 51870, Note_on_c, 1, 61, 56
3, 52310, Note_on_c, 1, 61, 0
3, 52310, Note_on_c, 1, 51, 0
3, 52310, Note_on_c, 1, 55, 0
3, 52310, Note_on_c, 1, 58, 0
3, 52320, Note_on_c, 1, 51, 56
3, 52330, Note_on_c, 1, 55, 56
3, 52340, Note_on_c, 1, 58, 56
3, 52350, Note_on_c, 1, 61, 56
3, 52790, Note_on_c, 1, 61, 0
3, 52790, Note_on_c, 1, 51, 0
3, 52790, Note_on_c, 1, 55, 0
3, 52790, Note_on_c, 1, 58, 0
3, 52800, Note_on_c, 1, 51, 56
3, 52810, Note_on_c, 1, 55, 56
3, 52820, Note_on_c, 1, 58, 56
3, 52830, Note_on_c, 1, 61, 56
3, 53270, Note_on_c, 1, 61, 0
3, 53270, Note_on_c, 1, 51, 0
3, 53270, Note_on_c, 1, 55, 0
3, 53270, Note_on_c, 1, 58, 0
3, 53280, Note_on_c, 1, 56, 56
3, 53280, Note_on_c, 1, 51, 56
3, 53750, Note_on_c, 1, 51, 0
3, 53750, Note_on_c, 1, 56, 0
3, 53760, Note_on_c, 1, 51, 56
3, 53760, Note_on_c, 1, 56, 56
3, 54230, Note_on_c, 1, 56, 0
3, 54230, Note_on_c, 1, 51, 0
3, 54240, Note_on_c, 1, 56, 56
3, 54240, Note_on_c, 1, 51, 56
3, 54710, Note_on_c, 1, 51, 0
3, 54710, Note_on_c, 1, 56, 0
3, 54720, Note_on_c, 1, 53, 56
3, 54720, Note_on_c, 1, 51, 56
3, 55190, Note_on_c, 1, 51, 0
3, 55190, Note_on_c, 1, 53, 0
3, 55200, Note_on_c, 1, 53, 56
3, 55200, Note_on_c, 1, 51, 56
3, 55670, Note_on_c, 1, 51, 0
3, 55670, Note_on_c, 1, 53, 0
3, 55680, Note_on_c, 1, 51, 56
3, 56150, Note_on_c, 1, 51, 0
3, 56160, Note_on_c, 1, 51, 56
3, 56160, Note_on_c, 1, 39, 56
3, 56160, Note_on_c, 1, 46, 56
3, 57600, Note_on_c, 1, 46, 0
3, 57600, Note_on_c, 1, 39, 0
3, 57600, Note_on_c, 1, 51, 0
3, 57600, End_track
4, 0, Start_track
4, 0, End_track
0, 0, End_of_file
