0, 0, Header, 1, 15, 120
1, 0, Start_track
1, 0, Text_t, "\015\012\015\012Mass in B Minor          Johann Sebastion Bach\015\012No. 13 Chor, Patrem omnipotentem\015\012\015\012seq by David Siu  dss@po.cwru.edu\015\012\015\012\015\012"
1, 0, Time_signature, 2, 2, 24, 8
1, 0, Key_signature, 2, "major"
1, 0, Tempo, 625000
1, 240, Time_signature, 4, 2, 24, 8
1, 240, Tempo, 300000
1, 39600, Tempo, 454545
1, 39841, Tempo, 483871
1, 39973, Tempo, 638298
1, 40042, Tempo, 1000000
1, 41040, End_track
2, 0, Start_track
2, 0, MIDI_port, 0
2, 0, Title_t, "Instrument  1"
2, 0, Program_c, 2, 68
2, 41040, End_track
3, 0, Start_track
3, 0, MIDI_port, 0
3, 0, Title_t, "Trumpet"
3, 0, Program_c, 0, 56
3, 0, Control_c, 0, 91, 127
3, 0, Control_c, 0, 91, 127
3, 0, Control_c, 0, 91, 127
3, 13680, Note_on_c, 0, 81, 64
3, 13920, Note_on_c, 0, 81, 0
3, 13920, Note_on_c, 0, 81, 64
3, 13991, Note_on_c, 0, 81, 0
3, 14040, Note_on_c, 0, 81, 64
3, 14111, Note_on_c, 0, 81, 0
3, 14160, Note_on_c, 0, 78, 64
3, 14231, Note_on_c, 0, 78, 0
3, 14280, Note_on_c, 0, 81, 64
3, 14351, Note_on_c, 0, 81, 0
3, 14400, Note_on_c, 0, 83, 64
3, 14640, Note_on_c, 0, 83, 0
3, 14640, Note_on_c, 0, 72, 64
3, 14711, Note_on_c, 0, 72, 0
3, 14760, Note_on_c, 0, 76, 64
3, 14820, Note_on_c, 0, 76, 0
3, 14820, Note_on_c, 0, 74, 64
3, 14880, Note_on_c, 0, 74, 0
3, 14880, Note_on_c, 0, 72, 64
3, 14940, Note_on_c, 0, 72, 0
3, 14940, Note_on_c, 0, 76, 64
3, 15000, Note_on_c, 0, 76, 0
3, 15000, Note_on_c, 0, 81, 64
3, 15060, Note_on_c, 0, 81, 0
3, 15060, Note_on_c, 0, 79, 64
3, 15120, Note_on_c, 0, 79, 0
3, 15120, Note_on_c, 0, 78, 64
3, 15191, Note_on_c, 0, 78, 0
3, 15240, Note_on_c, 0, 74, 64
3, 15311, Note_on_c, 0, 74, 0
3, 15360, Note_on_c, 0, 79, 64
3, 15431, Note_on_c, 0, 79, 0
3, 15480, Note_on_c, 0, 81, 64
3, 15540, Note_on_c, 0, 81, 0
3, 15540, Note_on_c, 0, 83, 64
3, 15570, Note_on_c, 0, 83, 0
3, 15570, Note_on_c, 0, 84, 64
3, 15600, Note_on_c, 0, 84, 0
3, 15600, Note_on_c, 0, 83, 64
3, 15840, Note_on_c, 0, 83, 0
3, 15840, Note_on_c, 0, 81, 64
3, 16080, Note_on_c, 0, 81, 0
3, 16080, Note_on_c, 0, 79, 64
3, 16320, Note_on_c, 0, 79, 0
3, 16320, Note_on_c, 0, 78, 64
3, 16560, Note_on_c, 0, 78, 0
3, 16560, Note_on_c, 0, 76, 64
3, 16620, Note_on_c, 0, 76, 0
3, 16620, Note_on_c, 0, 74, 64
3, 16680, Note_on_c, 0, 74, 0
3, 16680, Note_on_c, 0, 76, 64
3, 16740, Note_on_c, 0, 76, 0
3, 16740, Note_on_c, 0, 78, 64
3, 16800, Note_on_c, 0, 78, 0
3, 16800, Note_on_c, 0, 79, 64
3, 16860, Note_on_c, 0, 79, 0
3, 16860, Note_on_c, 0, 78, 64
3, 16920, Note_on_c, 0, 78, 0
3, 16920, Note_on_c, 0, 79, 64
3, 16980, Note_on_c, 0, 79, 0
3, 16980, Note_on_c, 0, 81, 64
3, 17040, Note_on_c, 0, 81, 0
3, 17040, Note_on_c, 0, 83, 64
3, 17580, Note_on_c, 0, 83, 0
3, 17580, Note_on_c, 0, 81, 64
3, 17640, Note_on_c, 0, 81, 0
3, 17640, Note_on_c, 0, 83, 64
3, 17700, Note_on_c, 0, 83, 0
3, 17700, Note_on_c, 0, 85, 64
3, 17760, Note_on_c, 0, 85, 0
3, 17760, Note_on_c, 0, 83, 64
3, 17820, Note_on_c, 0, 83, 0
3, 17820, Note_on_c, 0, 81, 64
3, 17880, Note_on_c, 0, 81, 0
3, 17880, Note_on_c, 0, 80, 64
3, 17940, Note_on_c, 0, 80, 0
3, 17940, Note_on_c, 0, 78, 64
3, 18000, Note_on_c, 0, 78, 0
3, 18000, Note_on_c, 0, 80, 64
3, 18071, Note_on_c, 0, 80, 0
3, 18120, Note_on_c, 0, 76, 64
3, 18191, Note_on_c, 0, 76, 0
3, 18240, Note_on_c, 0, 81, 64
3, 18551, Note_on_c, 0, 81, 0
3, 18600, Note_on_c, 0, 80, 64
3, 18660, Note_on_c, 0, 80, 0
3, 18660, Note_on_c, 0, 78, 64
3, 18720, Note_on_c, 0, 78, 0
3, 18720, Note_on_c, 0, 80, 64
3, 18960, Note_on_c, 0, 80, 0
3, 18960, Note_on_c, 0, 81, 64
3, 19020, Note_on_c, 0, 81, 0
3, 19020, Note_on_c, 0, 80, 64
3, 19080, Note_on_c, 0, 80, 0
3, 19080, Note_on_c, 0, 81, 64
3, 19140, Note_on_c, 0, 81, 0
3, 19140, Note_on_c, 0, 83, 64
3, 19200, Note_on_c, 0, 83, 0
3, 19200, Note_on_c, 0, 81, 64
3, 19260, Note_on_c, 0, 81, 0
3, 19260, Note_on_c, 0, 86, 64
3, 19320, Note_on_c, 0, 86, 0
3, 19320, Note_on_c, 0, 85, 64
3, 19380, Note_on_c, 0, 85, 0
3, 19380, Note_on_c, 0, 86, 64
3, 19440, Note_on_c, 0, 86, 0
3, 19440, Note_on_c, 0, 83, 64
3, 19500, Note_on_c, 0, 83, 0
3, 19500, Note_on_c, 0, 81, 64
3, 19560, Note_on_c, 0, 81, 0
3, 19560, Note_on_c, 0, 83, 64
3, 19620, Note_on_c, 0, 83, 0
3, 19620, Note_on_c, 0, 84, 64
3, 19680, Note_on_c, 0, 84, 0
3, 19680, Note_on_c, 0, 83, 64
3, 19740, Note_on_c, 0, 83, 0
3, 19740, Note_on_c, 0, 81, 64
3, 19800, Note_on_c, 0, 81, 0
3, 19800, Note_on_c, 0, 79, 64
3, 19860, Note_on_c, 0, 79, 0
3, 19860, Note_on_c, 0, 78, 64
3, 19920, Note_on_c, 0, 78, 0
3, 19920, Note_on_c, 0, 76, 64
3, 19980, Note_on_c, 0, 76, 0
3, 19980, Note_on_c, 0, 81, 64
3, 20040, Note_on_c, 0, 81, 0
3, 20040, Note_on_c, 0, 79, 64
3, 20100, Note_on_c, 0, 79, 0
3, 20100, Note_on_c, 0, 81, 64
3, 20160, Note_on_c, 0, 81, 0
3, 20160, Note_on_c, 0, 78, 64
3, 20220, Note_on_c, 0, 78, 0
3, 20220, Note_on_c, 0, 79, 64
3, 20280, Note_on_c, 0, 79, 0
3, 20280, Note_on_c, 0, 76, 64
3, 20460, Note_on_c, 0, 76, 0
3, 20460, Note_on_c, 0, 81, 64
3, 20520, Note_on_c, 0, 81, 0
3, 20520, Note_on_c, 0, 74, 64
3, 20700, Note_on_c, 0, 74, 0
3, 20700, Note_on_c, 0, 76, 64
3, 20760, Note_on_c, 0, 76, 0
3, 20760, Note_on_c, 0, 74, 64
3, 20820, Note_on_c, 0, 74, 0
3, 20820, Note_on_c, 0, 73, 64
3, 20880, Note_on_c, 0, 73, 0
3, 20880, Note_on_c, 0, 74, 64
3, 20940, Note_on_c, 0, 74, 0
3, 20940, Note_on_c, 0, 76, 64
3, 21000, Note_on_c, 0, 76, 0
3, 21000, Note_on_c, 0, 78, 64
3, 21060, Note_on_c, 0, 78, 0
3, 21060, Note_on_c, 0, 79, 64
3, 21120, Note_on_c, 0, 79, 0
3, 21120, Note_on_c, 0, 81, 64
3, 21180, Note_on_c, 0, 81, 0
3, 21180, Note_on_c, 0, 83, 64
3, 21240, Note_on_c, 0, 83, 0
3, 21240, Note_on_c, 0, 81, 64
3, 21300, Note_on_c, 0, 81, 0
3, 21300, Note_on_c, 0, 79, 64
3, 21360, Note_on_c, 0, 79, 0
3, 21360, Note_on_c, 0, 78, 64
3, 21420, Note_on_c, 0, 78, 0
3, 21420, Note_on_c, 0, 79, 64
3, 21480, Note_on_c, 0, 79, 0
3, 21480, Note_on_c, 0, 78, 64
3, 21540, Note_on_c, 0, 78, 0
3, 21540, Note_on_c, 0, 76, 64
3, 21600, Note_on_c, 0, 76, 0
3, 21600, Note_on_c, 0, 78, 64
3, 21660, Note_on_c, 0, 78, 0
3, 21660, Note_on_c, 0, 81, 64
3, 21720, Note_on_c, 0, 81, 0
3, 21720, Note_on_c, 0, 80, 64
3, 21780, Note_on_c, 0, 80, 0
3, 21780, Note_on_c, 0, 81, 64
3, 21840, Note_on_c, 0, 81, 0
3, 21840, Note_on_c, 0, 83, 64
3, 21900, Note_on_c, 0, 83, 0
3, 21900, Note_on_c, 0, 85, 64
3, 21960, Note_on_c, 0, 85, 0
3, 21960, Note_on_c, 0, 81, 64
3, 22020, Note_on_c, 0, 81, 0
3, 22020, Note_on_c, 0, 83, 64
3, 22080, Note_on_c, 0, 83, 0
3, 22080, Note_on_c, 0, 85, 64
3, 22140, Note_on_c, 0, 85, 0
3, 22140, Note_on_c, 0, 83, 64
3, 22200, Note_on_c, 0, 83, 0
3, 22200, Note_on_c, 0, 85, 64
3, 22260, Note_on_c, 0, 85, 0
3, 22260, Note_on_c, 0, 86, 64
3, 22320, Note_on_c, 0, 86, 0
3, 22320, Note_on_c, 0, 88, 64
3, 22391, Note_on_c, 0, 88, 0
3, 31080, Note_on_c, 0, 85, 64
3, 31080, Note_on_c, 0, 81, 64
3, 31140, Note_on_c, 0, 81, 0
3, 31140, Note_on_c, 0, 85, 0
3, 31140, Note_on_c, 0, 83, 64
3, 31140, Note_on_c, 0, 79, 64
3, 31200, Note_on_c, 0, 79, 0
3, 31200, Note_on_c, 0, 83, 0
3, 31200, Note_on_c, 0, 81, 64
3, 31200, Note_on_c, 0, 78, 64
3, 31260, Note_on_c, 0, 78, 0
3, 31260, Note_on_c, 0, 81, 0
3, 31260, Note_on_c, 0, 83, 64
3, 31260, Note_on_c, 0, 79, 64
3, 31320, Note_on_c, 0, 79, 0
3, 31320, Note_on_c, 0, 83, 0
3, 31320, Note_on_c, 0, 79, 64
3, 31320, Note_on_c, 0, 76, 64
3, 31380, Note_on_c, 0, 76, 0
3, 31380, Note_on_c, 0, 79, 0
3, 31380, Note_on_c, 0, 81, 64
3, 31380, Note_on_c, 0, 78, 64
3, 31440, Note_on_c, 0, 78, 0
3, 31440, Note_on_c, 0, 81, 0
3, 31440, Note_on_c, 0, 83, 64
3, 31440, Note_on_c, 0, 79, 64
3, 31500, Note_on_c, 0, 79, 0
3, 31500, Note_on_c, 0, 83, 0
3, 31500, Note_on_c, 0, 85, 64
3, 31500, Note_on_c, 0, 81, 64
3, 31560, Note_on_c, 0, 81, 0
3, 31560, Note_on_c, 0, 85, 0
3, 31560, Note_on_c, 0, 83, 64
3, 31560, Note_on_c, 0, 79, 64
3, 31620, Note_on_c, 0, 79, 0
3, 31620, Note_on_c, 0, 83, 0
3, 31620, Note_on_c, 0, 81, 64
3, 31620, Note_on_c, 0, 78, 64
3, 31680, Note_on_c, 0, 78, 0
3, 31680, Note_on_c, 0, 81, 0
3, 31680, Note_on_c, 0, 79, 64
3, 31680, Note_on_c, 0, 76, 64
3, 31740, Note_on_c, 0, 76, 0
3, 31740, Note_on_c, 0, 79, 0
3, 31740, Note_on_c, 0, 81, 64
3, 31740, Note_on_c, 0, 78, 64
3, 31800, Note_on_c, 0, 78, 0
3, 31800, Note_on_c, 0, 81, 0
3, 31800, Note_on_c, 0, 78, 64
3, 31800, Note_on_c, 0, 74, 64
3, 31860, Note_on_c, 0, 74, 0
3, 31860, Note_on_c, 0, 78, 0
3, 31860, Note_on_c, 0, 79, 64
3, 31860, Note_on_c, 0, 76, 64
3, 31920, Note_on_c, 0, 76, 0
3, 31920, Note_on_c, 0, 79, 0
3, 31920, Note_on_c, 0, 81, 64
3, 31920, Note_on_c, 0, 69, 64
3, 31980, Note_on_c, 0, 81, 0
3, 31980, Note_on_c, 0, 83, 64
3, 31991, Note_on_c, 0, 69, 0
3, 32040, Note_on_c, 0, 83, 0
3, 32040, Note_on_c, 0, 81, 64
3, 32040, Note_on_c, 0, 74, 64
3, 32040, Note_on_c, 0, 69, 64
3, 32100, Note_on_c, 0, 74, 0
3, 32100, Note_on_c, 0, 81, 0
3, 32100, Note_on_c, 0, 79, 64
3, 32100, Note_on_c, 0, 76, 64
3, 32111, Note_on_c, 0, 69, 0
3, 32160, Note_on_c, 0, 76, 0
3, 32160, Note_on_c, 0, 79, 0
3, 32160, Note_on_c, 0, 78, 64
3, 32160, Note_on_c, 0, 78, 64
3, 32160, Note_on_c, 0, 62, 64
3, 32220, Note_on_c, 0, 78, 0
3, 32220, Note_on_c, 0, 78, 0
3, 32220, Note_on_c, 0, 79, 64
3, 32220, Note_on_c, 0, 76, 64
3, 32231, Note_on_c, 0, 62, 0
3, 32280, Note_on_c, 0, 76, 0
3, 32280, Note_on_c, 0, 79, 0
3, 32280, Note_on_c, 0, 81, 64
3, 32280, Note_on_c, 0, 78, 64
3, 32280, Note_on_c, 0, 62, 64
3, 32340, Note_on_c, 0, 78, 0
3, 32340, Note_on_c, 0, 81, 0
3, 32340, Note_on_c, 0, 83, 64
3, 32340, Note_on_c, 0, 79, 64
3, 32351, Note_on_c, 0, 62, 0
3, 32400, Note_on_c, 0, 79, 0
3, 32400, Note_on_c, 0, 83, 0
3, 32400, Note_on_c, 0, 81, 64
3, 32400, Note_on_c, 0, 78, 64
3, 32400, Note_on_c, 0, 62, 64
3, 32471, Note_on_c, 0, 62, 0
3, 32520, Note_on_c, 0, 66, 64
3, 32580, Note_on_c, 0, 66, 0
3, 32580, Note_on_c, 0, 62, 64
3, 32640, Note_on_c, 0, 62, 0
3, 32640, Note_on_c, 0, 78, 0
3, 32640, Note_on_c, 0, 81, 0
3, 32640, Note_on_c, 0, 79, 64
3, 32640, Note_on_c, 0, 76, 64
3, 32640, Note_on_c, 0, 69, 64
3, 32711, Note_on_c, 0, 69, 0
3, 32760, Note_on_c, 0, 69, 64
3, 32831, Note_on_c, 0, 69, 0
3, 32880, Note_on_c, 0, 76, 0
3, 32880, Note_on_c, 0, 79, 0
3, 32880, Note_on_c, 0, 78, 35
3, 32880, Note_on_c, 0, 74, 35
3, 32880, Note_on_c, 0, 69, 35
3, 33120, Note_on_c, 0, 69, 0
3, 33120, Note_on_c, 0, 74, 0
3, 33120, Note_on_c, 0, 78, 0
3, 33240, Note_on_c, 0, 78, 45
3, 33240, Note_on_c, 0, 74, 45
3, 33300, Note_on_c, 0, 74, 0
3, 33300, Note_on_c, 0, 78, 0
3, 33300, Note_on_c, 0, 79, 47
3, 33300, Note_on_c, 0, 76, 47
3, 33360, Note_on_c, 0, 76, 0
3, 33360, Note_on_c, 0, 79, 0
3, 33360, Note_on_c, 0, 81, 48
3, 33360, Note_on_c, 0, 78, 48
3, 33431, Note_on_c, 0, 78, 0
3, 33431, Note_on_c, 0, 81, 0
3, 33480, Note_on_c, 0, 62, 52
3, 33480, Note_on_c, 0, 62, 52
3, 33480, Note_on_c, 0, 62, 52
3, 33540, Note_on_c, 0, 62, 0
3, 33540, Note_on_c, 0, 62, 0
3, 33540, Note_on_c, 0, 62, 0
3, 33540, Note_on_c, 0, 62, 53
3, 33540, Note_on_c, 0, 62, 53
3, 33540, Note_on_c, 0, 62, 53
3, 33600, Note_on_c, 0, 62, 0
3, 33600, Note_on_c, 0, 62, 0
3, 33600, Note_on_c, 0, 62, 0
3, 33600, Note_on_c, 0, 62, 55
3, 33600, Note_on_c, 0, 62, 55
3, 33600, Note_on_c, 0, 62, 55
3, 33671, Note_on_c, 0, 62, 0
3, 33671, Note_on_c, 0, 62, 0
3, 33671, Note_on_c, 0, 62, 0
3, 33720, Note_on_c, 0, 62, 58
3, 33720, Note_on_c, 0, 62, 58
3, 33720, Note_on_c, 0, 62, 58
3, 33791, Note_on_c, 0, 62, 0
3, 33791, Note_on_c, 0, 62, 0
3, 33791, Note_on_c, 0, 62, 0
3, 33840, Note_on_c, 0, 62, 62
3, 33840, Note_on_c, 0, 62, 62
3, 33840, Note_on_c, 0, 62, 62
3, 33911, Note_on_c, 0, 62, 0
3, 33911, Note_on_c, 0, 62, 0
3, 33911, Note_on_c, 0, 62, 0
3, 33960, Note_on_c, 0, 78, 65
3, 33960, Note_on_c, 0, 74, 65
3, 34020, Note_on_c, 0, 74, 0
3, 34020, Note_on_c, 0, 78, 0
3, 34020, Note_on_c, 0, 79, 67
3, 34020, Note_on_c, 0, 76, 67
3, 34080, Note_on_c, 0, 76, 0
3, 34080, Note_on_c, 0, 79, 0
3, 34080, Note_on_c, 0, 81, 68
3, 34080, Note_on_c, 0, 78, 68
3, 34151, Note_on_c, 0, 78, 0
3, 34151, Note_on_c, 0, 81, 0
3, 34440, Note_on_c, 0, 62, 70
3, 34440, Note_on_c, 0, 62, 70
3, 34440, Note_on_c, 0, 62, 70
3, 34500, Note_on_c, 0, 62, 0
3, 34500, Note_on_c, 0, 62, 0
3, 34500, Note_on_c, 0, 62, 0
3, 34500, Note_on_c, 0, 62, 70
3, 34500, Note_on_c, 0, 62, 70
3, 34500, Note_on_c, 0, 62, 70
3, 34560, Note_on_c, 0, 62, 0
3, 34560, Note_on_c, 0, 62, 0
3, 34560, Note_on_c, 0, 62, 0
3, 34560, Note_on_c, 0, 62, 70
3, 34560, Note_on_c, 0, 62, 70
3, 34560, Note_on_c, 0, 62, 70
3, 34620, Note_on_c, 0, 62, 0
3, 34620, Note_on_c, 0, 62, 0
3, 34620, Note_on_c, 0, 62, 0
3, 34620, Note_on_c, 0, 62, 70
3, 34620, Note_on_c, 0, 62, 70
3, 34620, Note_on_c, 0, 62, 70
3, 34680, Note_on_c, 0, 62, 0
3, 34680, Note_on_c, 0, 62, 0
3, 34680, Note_on_c, 0, 62, 0
3, 34680, Note_on_c, 0, 62, 70
3, 34680, Note_on_c, 0, 62, 70
3, 34680, Note_on_c, 0, 62, 70
3, 34740, Note_on_c, 0, 62, 0
3, 34740, Note_on_c, 0, 62, 0
3, 34740, Note_on_c, 0, 62, 0
3, 34740, Note_on_c, 0, 62, 70
3, 34740, Note_on_c, 0, 62, 70
3, 34740, Note_on_c, 0, 62, 70
3, 34800, Note_on_c, 0, 62, 0
3, 34800, Note_on_c, 0, 62, 0
3, 34800, Note_on_c, 0, 62, 0
3, 34800, Note_on_c, 0, 69, 70
3, 34800, Note_on_c, 0, 69, 70
3, 34800, Note_on_c, 0, 69, 70
3, 34871, Note_on_c, 0, 69, 0
3, 34871, Note_on_c, 0, 69, 0
3, 34871, Note_on_c, 0, 69, 0
3, 38220, Note_on_c, 0, 76, 71
3, 38280, Note_on_c, 0, 76, 0
3, 38280, Note_on_c, 0, 78, 71
3, 38340, Note_on_c, 0, 78, 0
3, 38340, Note_on_c, 0, 79, 72
3, 38400, Note_on_c, 0, 79, 0
3, 38400, Note_on_c, 0, 81, 72
3, 38700, Note_on_c, 0, 78, 74
3, 38760, Note_on_c, 0, 78, 0
3, 38760, Note_on_c, 0, 79, 74
3, 38820, Note_on_c, 0, 79, 0
3, 38820, Note_on_c, 0, 81, 75
3, 38880, Note_on_c, 0, 81, 0
3, 38880, Note_on_c, 0, 83, 75
3, 38940, Note_on_c, 0, 83, 0
3, 38940, Note_on_c, 0, 81, 76
3, 39000, Note_on_c, 0, 81, 0
3, 39000, Note_on_c, 0, 81, 0
3, 39000, Note_on_c, 0, 83, 76
3, 39000, Note_on_c, 0, 79, 76
3, 39060, Note_on_c, 0, 83, 0
3, 39060, Note_on_c, 0, 85, 76
3, 39071, Note_on_c, 0, 79, 0
3, 39120, Note_on_c, 0, 85, 0
3, 39120, Note_on_c, 0, 86, 77
3, 39120, Note_on_c, 0, 78, 77
3, 39180, Note_on_c, 0, 78, 0
3, 39180, Note_on_c, 0, 83, 77
3, 39191, Note_on_c, 0, 86, 0
3, 39240, Note_on_c, 0, 83, 0
3, 39240, Note_on_c, 0, 85, 78
3, 39240, Note_on_c, 0, 81, 78
3, 39240, Note_on_c, 0, 62, 78
3, 39300, Note_on_c, 0, 81, 0
3, 39300, Note_on_c, 0, 85, 0
3, 39300, Note_on_c, 0, 83, 78
3, 39300, Note_on_c, 0, 79, 78
3, 39311, Note_on_c, 0, 62, 0
3, 39360, Note_on_c, 0, 79, 0
3, 39360, Note_on_c, 0, 83, 0
3, 39360, Note_on_c, 0, 81, 78
3, 39360, Note_on_c, 0, 78, 78
3, 39360, Note_on_c, 0, 69, 78
3, 39431, Note_on_c, 0, 69, 0
3, 39431, Note_on_c, 0, 78, 0
3, 39431, Note_on_c, 0, 81, 0
3, 39480, Note_on_c, 0, 79, 79
3, 39480, Note_on_c, 0, 74, 79
3, 39480, Note_on_c, 0, 74, 79
3, 39551, Note_on_c, 0, 74, 0
3, 39551, Note_on_c, 0, 74, 0
3, 39551, Note_on_c, 0, 79, 0
3, 39600, Note_on_c, 0, 78, 90
3, 39600, Note_on_c, 0, 74, 90
3, 39600, Note_on_c, 0, 69, 90
3, 39671, Note_on_c, 0, 69, 0
3, 39671, Note_on_c, 0, 74, 0
3, 39720, Note_on_c, 0, 69, 90
3, 39720, Note_on_c, 0, 69, 90
3, 39780, Note_on_c, 0, 69, 0
3, 39780, Note_on_c, 0, 69, 0
3, 39780, Note_on_c, 0, 69, 90
3, 39780, Note_on_c, 0, 69, 90
3, 39840, Note_on_c, 0, 69, 0
3, 39840, Note_on_c, 0, 69, 0
3, 39840, Note_on_c, 0, 78, 0
3, 39840, Note_on_c, 0, 76, 90
3, 39840, Note_on_c, 0, 69, 90
3, 39840, Note_on_c, 0, 69, 90
3, 39900, Note_on_c, 0, 69, 0
3, 39900, Note_on_c, 0, 69, 0
3, 39900, Note_on_c, 0, 69, 90
3, 39900, Note_on_c, 0, 69, 90
3, 39960, Note_on_c, 0, 69, 0
3, 39960, Note_on_c, 0, 69, 0
3, 39960, Note_on_c, 0, 69, 90
3, 39960, Note_on_c, 0, 69, 90
3, 40020, Note_on_c, 0, 69, 0
3, 40020, Note_on_c, 0, 69, 0
3, 40020, Note_on_c, 0, 69, 90
3, 40020, Note_on_c, 0, 69, 90
3, 40080, Note_on_c, 0, 69, 0
3, 40080, Note_on_c, 0, 69, 0
3, 40080, Note_on_c, 0, 76, 0
3, 40080, Note_on_c, 0, 74, 90
3, 40080, Note_on_c, 0, 69, 90
3, 40080, Note_on_c, 0, 66, 90
3, 40560, Note_on_c, 0, 66, 0
3, 40560, Note_on_c, 0, 69, 0
3, 40560, Note_on_c, 0, 74, 0
3, 41040, End_track
4, 0, Start_track
4, 0, MIDI_port, 0
4, 0, Title_t, "Timpani"
4, 0, Program_c, 1, 47
4, 0, Control_c, 1, 91, 127
4, 32040, Note_on_c, 1, 45, 64
4, 32111, Note_on_c, 1, 45, 0
4, 32160, Note_on_c, 1, 50, 64
4, 32231, Note_on_c, 1, 50, 0
4, 32280, Note_on_c, 1, 50, 64
4, 32351, Note_on_c, 1, 50, 0
4, 32400, Note_on_c, 1, 45, 64
4, 32471, Note_on_c, 1, 45, 0
4, 32520, Note_on_c, 1, 45, 64
4, 32580, Note_on_c, 1, 45, 0
4, 32580, Note_on_c, 1, 45, 64
4, 32640, Note_on_c, 1, 45, 0
4, 32640, Note_on_c, 1, 45, 64
4, 32700, Note_on_c, 1, 45, 0
4, 32700, Note_on_c, 1, 45, 64
4, 32760, Note_on_c, 1, 45, 0
4, 32760, Note_on_c, 1, 45, 64
4, 32820, Note_on_c, 1, 45, 0
4, 32820, Note_on_c, 1, 45, 64
4, 32880, Note_on_c, 1, 45, 0
4, 32880, Note_on_c, 1, 50, 35
4, 33120, Note_on_c, 1, 50, 0
4, 33480, Note_on_c, 1, 50, 52
4, 33540, Note_on_c, 1, 50, 0
4, 33540, Note_on_c, 1, 50, 53
4, 33600, Note_on_c, 1, 50, 0
4, 33600, Note_on_c, 1, 50, 55
4, 33660, Note_on_c, 1, 50, 0
4, 33660, Note_on_c, 1, 50, 57
4, 33720, Note_on_c, 1, 50, 0
4, 33720, Note_on_c, 1, 50, 58
4, 33780, Note_on_c, 1, 50, 0
4, 33780, Note_on_c, 1, 50, 60
4, 33840, Note_on_c, 1, 50, 0
4, 33840, Note_on_c, 1, 50, 62
4, 33911, Note_on_c, 1, 50, 0
4, 34440, Note_on_c, 1, 50, 70
4, 34500, Note_on_c, 1, 50, 0
4, 34500, Note_on_c, 1, 50, 70
4, 34560, Note_on_c, 1, 50, 0
4, 34560, Note_on_c, 1, 50, 70
4, 34620, Note_on_c, 1, 50, 0
4, 34620, Note_on_c, 1, 50, 70
4, 34680, Note_on_c, 1, 50, 0
4, 34680, Note_on_c, 1, 50, 70
4, 34740, Note_on_c, 1, 50, 0
4, 34740, Note_on_c, 1, 50, 70
4, 34800, Note_on_c, 1, 50, 0
4, 34800, Note_on_c, 1, 45, 70
4, 34871, Note_on_c, 1, 45, 0
4, 39240, Note_on_c, 1, 50, 78
4, 39300, Note_on_c, 1, 50, 0
4, 39300, Note_on_c, 1, 50, 78
4, 39360, Note_on_c, 1, 50, 0
4, 39360, Note_on_c, 1, 50, 78
4, 39431, Note_on_c, 1, 50, 0
4, 39480, Note_on_c, 1, 50, 79
4, 39551, Note_on_c, 1, 50, 0
4, 39600, Note_on_c, 1, 45, 90
4, 39671, Note_on_c, 1, 45, 0
4, 39720, Note_on_c, 1, 45, 90
4, 39780, Note_on_c, 1, 45, 0
4, 39780, Note_on_c, 1, 45, 90
4, 39840, Note_on_c, 1, 45, 0
4, 39840, Note_on_c, 1, 45, 90
4, 39900, Note_on_c, 1, 45, 0
4, 39900, Note_on_c, 1, 45, 90
4, 39960, Note_on_c, 1, 45, 0
4, 39960, Note_on_c, 1, 45, 90
4, 40020, Note_on_c, 1, 45, 0
4, 40020, Note_on_c, 1, 45, 90
4, 40080, Note_on_c, 1, 45, 0
4, 40080, Note_on_c, 1, 50, 90
4, 40560, Note_on_c, 1, 50, 0
4, 41040, End_track
5, 0, Start_track
5, 0, MIDI_port, 0
5, 0, Title_t, "Bassoon"
5, 0, Program_c, 3, 48
5, 0, Control_c, 3, 91, 127
5, 240, Control_c, 3, 7, 90
5, 240, Note_on_c, 3, 57, 64
5, 480, Note_on_c, 3, 57, 0
5, 540, Note_on_c, 3, 45, 64
5, 600, Note_on_c, 3, 45, 0
5, 600, Note_on_c, 3, 47, 64
5, 660, Note_on_c, 3, 47, 0
5, 660, Note_on_c, 3, 49, 64
5, 720, Note_on_c, 3, 49, 0
5, 720, Note_on_c, 3, 50, 64
5, 780, Note_on_c, 3, 50, 0
5, 780, Note_on_c, 3, 52, 64
5, 840, Note_on_c, 3, 52, 0
5, 840, Note_on_c, 3, 54, 64
5, 900, Note_on_c, 3, 54, 0
5, 900, Note_on_c, 3, 55, 64
5, 960, Note_on_c, 3, 55, 0
5, 960, Note_on_c, 3, 57, 64
5, 1031, Note_on_c, 3, 57, 0
5, 1080, Note_on_c, 3, 45, 64
5, 1151, Note_on_c, 3, 45, 0
5, 1200, Note_on_c, 3, 50, 64
5, 1440, Note_on_c, 3, 50, 0
5, 1500, Note_on_c, 3, 47, 64
5, 1560, Note_on_c, 3, 47, 0
5, 1560, Note_on_c, 3, 49, 64
5, 1620, Note_on_c, 3, 49, 0
5, 1620, Note_on_c, 3, 50, 64
5, 1680, Note_on_c, 3, 50, 0
5, 1680, Note_on_c, 3, 52, 64
5, 1740, Note_on_c, 3, 52, 0
5, 1740, Note_on_c, 3, 49, 64
5, 1800, Note_on_c, 3, 49, 0
5, 1800, Note_on_c, 3, 50, 64
5, 1860, Note_on_c, 3, 50, 0
5, 1860, Note_on_c, 3, 52, 64
5, 1920, Note_on_c, 3, 52, 0
5, 1920, Note_on_c, 3, 54, 64
5, 1980, Note_on_c, 3, 54, 0
5, 1980, Note_on_c, 3, 52, 64
5, 2040, Note_on_c, 3, 52, 0
5, 2040, Note_on_c, 3, 54, 64
5, 2100, Note_on_c, 3, 54, 0
5, 2100, Note_on_c, 3, 56, 64
5, 2160, Note_on_c, 3, 56, 0
5, 2160, Note_on_c, 3, 57, 64
5, 2220, Note_on_c, 3, 57, 0
5, 2220, Note_on_c, 3, 56, 64
5, 2280, Note_on_c, 3, 56, 0
5, 2280, Note_on_c, 3, 54, 64
5, 2340, Note_on_c, 3, 54, 0
5, 2340, Note_on_c, 3, 52, 64
5, 2400, Note_on_c, 3, 52, 0
5, 2400, Note_on_c, 3, 50, 64
5, 2460, Note_on_c, 3, 50, 0
5, 2460, Note_on_c, 3, 54, 64
5, 2520, Note_on_c, 3, 54, 0
5, 2520, Note_on_c, 3, 52, 64
5, 2580, Note_on_c, 3, 52, 0
5, 2580, Note_on_c, 3, 50, 64
5, 2640, Note_on_c, 3, 50, 0
5, 2640, Note_on_c, 3, 49, 64
5, 2711, Note_on_c, 3, 49, 0
5, 2760, Note_on_c, 3, 45, 64
5, 2831, Note_on_c, 3, 45, 0
5, 2940, Note_on_c, 3, 45, 64
5, 3000, Note_on_c, 3, 45, 0
5, 3000, Note_on_c, 3, 47, 64
5, 3060, Note_on_c, 3, 47, 0
5, 3060, Note_on_c, 3, 49, 64
5, 3120, Note_on_c, 3, 49, 0
5, 3120, Note_on_c, 3, 50, 64
5, 3180, Note_on_c, 3, 50, 0
5, 3180, Note_on_c, 3, 47, 64
5, 3240, Note_on_c, 3, 47, 0
5, 3240, Note_on_c, 3, 49, 64
5, 3300, Note_on_c, 3, 49, 0
5, 3300, Note_on_c, 3, 50, 64
5, 3360, Note_on_c, 3, 50, 0
5, 3360, Note_on_c, 3, 52, 64
5, 3420, Note_on_c, 3, 52, 0
5, 3420, Note_on_c, 3, 50, 64
5, 3480, Note_on_c, 3, 50, 0
5, 3480, Note_on_c, 3, 49, 64
5, 3540, Note_on_c, 3, 49, 0
5, 3540, Note_on_c, 3, 47, 64
5, 3600, Note_on_c, 3, 47, 0
5, 3600, Note_on_c, 3, 45, 64
5, 3660, Note_on_c, 3, 45, 0
5, 3660, Note_on_c, 3, 43, 64
5, 3720, Note_on_c, 3, 43, 0
5, 3720, Note_on_c, 3, 42, 64
5, 3780, Note_on_c, 3, 42, 0
5, 3780, Note_on_c, 3, 40, 64
5, 3840, Note_on_c, 3, 40, 0
5, 3840, Note_on_c, 3, 38, 64
5, 3900, Note_on_c, 3, 38, 0
5, 3900, Note_on_c, 3, 40, 64
5, 3960, Note_on_c, 3, 40, 0
5, 3960, Note_on_c, 3, 42, 64
5, 4020, Note_on_c, 3, 42, 0
5, 4020, Note_on_c, 3, 38, 64
5, 4080, Note_on_c, 3, 38, 0
5, 4080, Note_on_c, 3, 43, 64
5, 4320, Note_on_c, 3, 43, 0
5, 4380, Note_on_c, 3, 40, 64
5, 4440, Note_on_c, 3, 40, 0
5, 4440, Note_on_c, 3, 42, 64
5, 4500, Note_on_c, 3, 42, 0
5, 4500, Note_on_c, 3, 43, 64
5, 4560, Note_on_c, 3, 43, 0
5, 4560, Note_on_c, 3, 45, 64
5, 4620, Note_on_c, 3, 45, 0
5, 4620, Note_on_c, 3, 42, 64
5, 4680, Note_on_c, 3, 42, 0
5, 4680, Note_on_c, 3, 43, 64
5, 4740, Note_on_c, 3, 43, 0
5, 4740, Note_on_c, 3, 45, 64
5, 4800, Note_on_c, 3, 45, 0
5, 4800, Note_on_c, 3, 47, 64
5, 4860, Note_on_c, 3, 47, 0
5, 4860, Note_on_c, 3, 45, 64
5, 4920, Note_on_c, 3, 45, 0
5, 4920, Note_on_c, 3, 47, 64
5, 4980, Note_on_c, 3, 47, 0
5, 4980, Note_on_c, 3, 49, 64
5, 5040, Note_on_c, 3, 49, 0
5, 5040, Note_on_c, 3, 50, 64
5, 5100, Note_on_c, 3, 50, 0
5, 5100, Note_on_c, 3, 52, 64
5, 5160, Note_on_c, 3, 52, 0
5, 5160, Note_on_c, 3, 54, 64
5, 5220, Note_on_c, 3, 54, 0
5, 5220, Note_on_c, 3, 55, 64
5, 5280, Note_on_c, 3, 55, 0
5, 5280, Note_on_c, 3, 57, 64
5, 5351, Note_on_c, 3, 57, 0
5, 5400, Note_on_c, 3, 45, 64
5, 5471, Note_on_c, 3, 45, 0
5, 5520, Note_on_c, 3, 38, 64
5, 5580, Note_on_c, 3, 38, 0
5, 5580, Note_on_c, 3, 40, 64
5, 5640, Note_on_c, 3, 40, 0
5, 5640, Note_on_c, 3, 42, 64
5, 5700, Note_on_c, 3, 42, 0
5, 5700, Note_on_c, 3, 43, 64
5, 5760, Note_on_c, 3, 43, 0
5, 5760, Note_on_c, 3, 45, 64
5, 5820, Note_on_c, 3, 45, 0
5, 5820, Note_on_c, 3, 47, 64
5, 5880, Note_on_c, 3, 47, 0
5, 5880, Note_on_c, 3, 49, 64
5, 5940, Note_on_c, 3, 49, 0
5, 5940, Note_on_c, 3, 45, 64
5, 6000, Note_on_c, 3, 45, 0
5, 6000, Note_on_c, 3, 50, 64
5, 6240, Note_on_c, 3, 50, 0
5, 6300, Note_on_c, 3, 47, 64
5, 6360, Note_on_c, 3, 47, 0
5, 6360, Note_on_c, 3, 49, 64
5, 6420, Note_on_c, 3, 49, 0
5, 6420, Note_on_c, 3, 50, 64
5, 6480, Note_on_c, 3, 50, 0
5, 6480, Note_on_c, 3, 52, 64
5, 6540, Note_on_c, 3, 52, 0
5, 6540, Note_on_c, 3, 49, 64
5, 6600, Note_on_c, 3, 49, 0
5, 6600, Note_on_c, 3, 50, 64
5, 6660, Note_on_c, 3, 50, 0
5, 6660, Note_on_c, 3, 52, 64
5, 6720, Note_on_c, 3, 52, 0
5, 6720, Note_on_c, 3, 54, 64
5, 6780, Note_on_c, 3, 54, 0
5, 6780, Note_on_c, 3, 52, 64
5, 6840, Note_on_c, 3, 52, 0
5, 6840, Note_on_c, 3, 54, 64
5, 6900, Note_on_c, 3, 54, 0
5, 6900, Note_on_c, 3, 56, 64
5, 6960, Note_on_c, 3, 56, 0
5, 6960, Note_on_c, 3, 57, 64
5, 7020, Note_on_c, 3, 57, 0
5, 7020, Note_on_c, 3, 56, 64
5, 7080, Note_on_c, 3, 56, 0
5, 7080, Note_on_c, 3, 54, 64
5, 7140, Note_on_c, 3, 54, 0
5, 7140, Note_on_c, 3, 52, 64
5, 7200, Note_on_c, 3, 52, 0
5, 7200, Note_on_c, 3, 50, 64
5, 7271, Note_on_c, 3, 50, 0
5, 7320, Note_on_c, 3, 52, 64
5, 7391, Note_on_c, 3, 52, 0
5, 7440, Note_on_c, 3, 45, 64
5, 7680, Note_on_c, 3, 45, 0
5, 7740, Note_on_c, 3, 45, 64
5, 7800, Note_on_c, 3, 45, 0
5, 7800, Note_on_c, 3, 47, 64
5, 7860, Note_on_c, 3, 47, 0
5, 7860, Note_on_c, 3, 49, 64
5, 7920, Note_on_c, 3, 49, 0
5, 7920, Note_on_c, 3, 47, 64
5, 7980, Note_on_c, 3, 47, 0
5, 7980, Note_on_c, 3, 49, 64
5, 8040, Note_on_c, 3, 49, 0
5, 8040, Note_on_c, 3, 50, 64
5, 8100, Note_on_c, 3, 50, 0
5, 8100, Note_on_c, 3, 47, 64
5, 8160, Note_on_c, 3, 47, 0
5, 8160, Note_on_c, 3, 52, 64
5, 8220, Note_on_c, 3, 52, 0
5, 8220, Note_on_c, 3, 50, 64
5, 8280, Note_on_c, 3, 50, 0
5, 8280, Note_on_c, 3, 49, 64
5, 8340, Note_on_c, 3, 49, 0
5, 8340, Note_on_c, 3, 47, 64
5, 8400, Note_on_c, 3, 47, 0
5, 8400, Note_on_c, 3, 45, 64
5, 8460, Note_on_c, 3, 45, 0
5, 8460, Note_on_c, 3, 43, 64
5, 8520, Note_on_c, 3, 43, 0
5, 8520, Note_on_c, 3, 42, 64
5, 8580, Note_on_c, 3, 42, 0
5, 8580, Note_on_c, 3, 40, 64
5, 8640, Note_on_c, 3, 40, 0
5, 8640, Note_on_c, 3, 38, 64
5, 8700, Note_on_c, 3, 38, 0
5, 8700, Note_on_c, 3, 40, 64
5, 8760, Note_on_c, 3, 40, 0
5, 8760, Note_on_c, 3, 42, 64
5, 8820, Note_on_c, 3, 42, 0
5, 8820, Note_on_c, 3, 38, 64
5, 8880, Note_on_c, 3, 38, 0
5, 8880, Note_on_c, 3, 43, 64
5, 9120, Note_on_c, 3, 43, 0
5, 9180, Note_on_c, 3, 40, 64
5, 9240, Note_on_c, 3, 40, 0
5, 9240, Note_on_c, 3, 42, 64
5, 9300, Note_on_c, 3, 42, 0
5, 9300, Note_on_c, 3, 43, 64
5, 9360, Note_on_c, 3, 43, 0
5, 9360, Note_on_c, 3, 45, 64
5, 9420, Note_on_c, 3, 45, 0
5, 9420, Note_on_c, 3, 42, 64
5, 9480, Note_on_c, 3, 42, 0
5, 9480, Note_on_c, 3, 43, 64
5, 9540, Note_on_c, 3, 43, 0
5, 9540, Note_on_c, 3, 45, 64
5, 9600, Note_on_c, 3, 45, 0
5, 9600, Note_on_c, 3, 47, 64
5, 9660, Note_on_c, 3, 47, 0
5, 9660, Note_on_c, 3, 45, 64
5, 9720, Note_on_c, 3, 45, 0
5, 9720, Note_on_c, 3, 47, 64
5, 9780, Note_on_c, 3, 47, 0
5, 9780, Note_on_c, 3, 49, 64
5, 9840, Note_on_c, 3, 49, 0
5, 9840, Note_on_c, 3, 50, 64
5, 9900, Note_on_c, 3, 50, 0
5, 9900, Note_on_c, 3, 52, 64
5, 9960, Note_on_c, 3, 52, 0
5, 9960, Note_on_c, 3, 54, 64
5, 10020, Note_on_c, 3, 54, 0
5, 10020, Note_on_c, 3, 55, 64
5, 10080, Note_on_c, 3, 55, 0
5, 10080, Note_on_c, 3, 57, 64
5, 10140, Note_on_c, 3, 57, 0
5, 10140, Note_on_c, 3, 59, 64
5, 10200, Note_on_c, 3, 59, 0
5, 10200, Note_on_c, 3, 57, 64
5, 10260, Note_on_c, 3, 57, 0
5, 10260, Note_on_c, 3, 55, 64
5, 10320, Note_on_c, 3, 55, 0
5, 10320, Note_on_c, 3, 54, 64
5, 10380, Note_on_c, 3, 54, 0
5, 10380, Note_on_c, 3, 55, 64
5, 10440, Note_on_c, 3, 55, 0
5, 10440, Note_on_c, 3, 57, 64
5, 10500, Note_on_c, 3, 57, 0
5, 10500, Note_on_c, 3, 59, 64
5, 10560, Note_on_c, 3, 59, 0
5, 10560, Note_on_c, 3, 61, 64
5, 10620, Note_on_c, 3, 61, 0
5, 10620, Note_on_c, 3, 57, 64
5, 10680, Note_on_c, 3, 57, 0
5, 10680, Note_on_c, 3, 59, 64
5, 10740, Note_on_c, 3, 59, 0
5, 10740, Note_on_c, 3, 61, 64
5, 10800, Note_on_c, 3, 61, 0
5, 10800, Note_on_c, 3, 62, 64
5, 10860, Note_on_c, 3, 62, 0
5, 10860, Note_on_c, 3, 64, 64
5, 10920, Note_on_c, 3, 64, 0
5, 10920, Note_on_c, 3, 62, 64
5, 10980, Note_on_c, 3, 62, 0
5, 10980, Note_on_c, 3, 61, 64
5, 11040, Note_on_c, 3, 61, 0
5, 11040, Note_on_c, 3, 59, 64
5, 11100, Note_on_c, 3, 59, 0
5, 11100, Note_on_c, 3, 57, 64
5, 11160, Note_on_c, 3, 57, 0
5, 11160, Note_on_c, 3, 56, 64
5, 11220, Note_on_c, 3, 56, 0
5, 11220, Note_on_c, 3, 54, 64
5, 11280, Note_on_c, 3, 54, 0
5, 11280, Note_on_c, 3, 56, 64
5, 11340, Note_on_c, 3, 56, 0
5, 11340, Note_on_c, 3, 52, 64
5, 11400, Note_on_c, 3, 52, 0
5, 11400, Note_on_c, 3, 54, 64
5, 11460, Note_on_c, 3, 54, 0
5, 11460, Note_on_c, 3, 56, 64
5, 11520, Note_on_c, 3, 56, 0
5, 11520, Note_on_c, 3, 57, 64
5, 11591, Note_on_c, 3, 57, 0
5, 11640, Note_on_c, 3, 50, 64
5, 11711, Note_on_c, 3, 50, 0
5, 11760, Note_on_c, 3, 49, 64
5, 12000, Note_on_c, 3, 49, 0
5, 12000, Note_on_c, 3, 47, 64
5, 12240, Note_on_c, 3, 47, 0
5, 12240, Note_on_c, 3, 45, 64
5, 12300, Note_on_c, 3, 45, 0
5, 12300, Note_on_c, 3, 43, 64
5, 12360, Note_on_c, 3, 43, 0
5, 12360, Note_on_c, 3, 42, 64
5, 12420, Note_on_c, 3, 42, 0
5, 12420, Note_on_c, 3, 40, 64
5, 12480, Note_on_c, 3, 40, 0
5, 12480, Note_on_c, 3, 38, 64
5, 12540, Note_on_c, 3, 38, 0
5, 12540, Note_on_c, 3, 40, 64
5, 12600, Note_on_c, 3, 40, 0
5, 12600, Note_on_c, 3, 42, 64
5, 12660, Note_on_c, 3, 42, 0
5, 12660, Note_on_c, 3, 38, 64
5, 12720, Note_on_c, 3, 38, 0
5, 12720, Note_on_c, 3, 43, 64
5, 12780, Note_on_c, 3, 43, 0
5, 12780, Note_on_c, 3, 50, 64
5, 12840, Note_on_c, 3, 50, 0
5, 12840, Note_on_c, 3, 52, 64
5, 12900, Note_on_c, 3, 52, 0
5, 12900, Note_on_c, 3, 54, 64
5, 12960, Note_on_c, 3, 54, 0
5, 12960, Note_on_c, 3, 55, 64
5, 13271, Note_on_c, 3, 55, 0
5, 13320, Note_on_c, 3, 54, 64
5, 13380, Note_on_c, 3, 54, 0
5, 13380, Note_on_c, 3, 52, 64
5, 13440, Note_on_c, 3, 52, 0
5, 13440, Note_on_c, 3, 54, 64
5, 13511, Note_on_c, 3, 54, 0
5, 13560, Note_on_c, 3, 59, 64
5, 13631, Note_on_c, 3, 59, 0
5, 13680, Note_on_c, 3, 57, 64
5, 13751, Note_on_c, 3, 57, 0
5, 13800, Note_on_c, 3, 50, 64
5, 14040, Note_on_c, 3, 50, 0
5, 14040, Note_on_c, 3, 49, 64
5, 14111, Note_on_c, 3, 49, 0
5, 14160, Note_on_c, 3, 50, 64
5, 14400, Note_on_c, 3, 50, 0
5, 14460, Note_on_c, 3, 43, 64
5, 14520, Note_on_c, 3, 43, 0
5, 14520, Note_on_c, 3, 45, 64
5, 14580, Note_on_c, 3, 45, 0
5, 14580, Note_on_c, 3, 47, 64
5, 14640, Note_on_c, 3, 47, 0
5, 14640, Note_on_c, 3, 48, 64
5, 14880, Note_on_c, 3, 48, 0
5, 14940, Note_on_c, 3, 45, 64
5, 15000, Note_on_c, 3, 45, 0
5, 15000, Note_on_c, 3, 47, 64
5, 15060, Note_on_c, 3, 47, 0
5, 15060, Note_on_c, 3, 48, 64
5, 15120, Note_on_c, 3, 48, 0
5, 15120, Note_on_c, 3, 50, 64
5, 15191, Note_on_c, 3, 50, 0
5, 15240, Note_on_c, 3, 47, 64
5, 15311, Note_on_c, 3, 47, 0
5, 15360, Note_on_c, 3, 52, 64
5, 15420, Note_on_c, 3, 52, 0
5, 15420, Note_on_c, 3, 50, 64
5, 15480, Note_on_c, 3, 50, 0
5, 15480, Note_on_c, 3, 52, 64
5, 15540, Note_on_c, 3, 52, 0
5, 15540, Note_on_c, 3, 54, 64
5, 15600, Note_on_c, 3, 54, 0
5, 15600, Note_on_c, 3, 55, 64
5, 15671, Note_on_c, 3, 55, 0
5, 15720, Note_on_c, 3, 60, 64
5, 15911, Note_on_c, 3, 60, 0
5, 15960, Note_on_c, 3, 51, 64
5, 16031, Note_on_c, 3, 51, 0
5, 16080, Note_on_c, 3, 52, 64
5, 16151, Note_on_c, 3, 52, 0
5, 16200, Note_on_c, 3, 45, 64
5, 16440, Note_on_c, 3, 45, 0
5, 16440, Note_on_c, 3, 47, 64
5, 16511, Note_on_c, 3, 47, 0
5, 16560, Note_on_c, 3, 48, 64
5, 16631, Note_on_c, 3, 48, 0
5, 16680, Note_on_c, 3, 47, 64
5, 16751, Note_on_c, 3, 47, 0
5, 16800, Note_on_c, 3, 45, 64
5, 17111, Note_on_c, 3, 45, 0
5, 17160, Note_on_c, 3, 43, 64
5, 17220, Note_on_c, 3, 43, 0
5, 17220, Note_on_c, 3, 42, 64
5, 17280, Note_on_c, 3, 42, 0
5, 17280, Note_on_c, 3, 43, 64
5, 17351, Note_on_c, 3, 43, 0
5, 17400, Note_on_c, 3, 45, 64
5, 17471, Note_on_c, 3, 45, 0
5, 17520, Note_on_c, 3, 47, 64
5, 18000, Note_on_c, 3, 47, 0
5, 18000, Note_on_c, 3, 40, 64
5, 18960, Note_on_c, 3, 40, 0
5, 18960, Note_on_c, 3, 45, 64
5, 19031, Note_on_c, 3, 45, 0
5, 19080, Note_on_c, 3, 49, 64
5, 19151, Note_on_c, 3, 49, 0
5, 19200, Note_on_c, 3, 50, 64
5, 19271, Note_on_c, 3, 50, 0
5, 19320, Note_on_c, 3, 47, 64
5, 19391, Note_on_c, 3, 47, 0
5, 19440, Note_on_c, 3, 52, 64
5, 19511, Note_on_c, 3, 52, 0
5, 19560, Note_on_c, 3, 40, 64
5, 19631, Note_on_c, 3, 40, 0
5, 19680, Note_on_c, 3, 43, 64
5, 19751, Note_on_c, 3, 43, 0
5, 19800, Note_on_c, 3, 40, 64
5, 19871, Note_on_c, 3, 40, 0
5, 19920, Note_on_c, 3, 45, 64
5, 20160, Note_on_c, 3, 45, 0
5, 20220, Note_on_c, 3, 45, 64
5, 20280, Note_on_c, 3, 45, 0
5, 20280, Note_on_c, 3, 47, 64
5, 20340, Note_on_c, 3, 47, 0
5, 20340, Note_on_c, 3, 49, 64
5, 20400, Note_on_c, 3, 49, 0
5, 20400, Note_on_c, 3, 50, 64
5, 20460, Note_on_c, 3, 50, 0
5, 20460, Note_on_c, 3, 52, 64
5, 20520, Note_on_c, 3, 52, 0
5, 20520, Note_on_c, 3, 54, 64
5, 20580, Note_on_c, 3, 54, 0
5, 20580, Note_on_c, 3, 55, 64
5, 20640, Note_on_c, 3, 55, 0
5, 20640, Note_on_c, 3, 57, 64
5, 20711, Note_on_c, 3, 57, 0
5, 20760, Note_on_c, 3, 45, 64
5, 20831, Note_on_c, 3, 45, 0
5, 20880, Note_on_c, 3, 50, 64
5, 21120, Note_on_c, 3, 50, 0
5, 21240, Note_on_c, 3, 57, 64
5, 21311, Note_on_c, 3, 57, 0
5, 21360, Note_on_c, 3, 62, 64
5, 21600, Note_on_c, 3, 62, 0
5, 21720, Note_on_c, 3, 59, 64
5, 21791, Note_on_c, 3, 59, 0
5, 21840, Note_on_c, 3, 64, 64
5, 22080, Note_on_c, 3, 64, 0
5, 22200, Note_on_c, 3, 59, 64
5, 22271, Note_on_c, 3, 59, 0
5, 22320, Note_on_c, 3, 61, 64
5, 22391, Note_on_c, 3, 61, 0
5, 22440, Note_on_c, 3, 54, 64
5, 22511, Note_on_c, 3, 54, 0
5, 22560, Note_on_c, 3, 59, 64
5, 22620, Note_on_c, 3, 59, 0
5, 22620, Note_on_c, 3, 57, 64
5, 22680, Note_on_c, 3, 57, 0
5, 22680, Note_on_c, 3, 59, 64
5, 22751, Note_on_c, 3, 59, 0
5, 22800, Note_on_c, 3, 57, 64
5, 23040, Note_on_c, 3, 57, 0
5, 23100, Note_on_c, 3, 50, 64
5, 23160, Note_on_c, 3, 50, 0
5, 23160, Note_on_c, 3, 52, 64
5, 23220, Note_on_c, 3, 52, 0
5, 23220, Note_on_c, 3, 54, 64
5, 23280, Note_on_c, 3, 54, 0
5, 23280, Note_on_c, 3, 55, 64
5, 23340, Note_on_c, 3, 55, 0
5, 23340, Note_on_c, 3, 57, 64
5, 23400, Note_on_c, 3, 57, 0
5, 23400, Note_on_c, 3, 55, 64
5, 23460, Note_on_c, 3, 55, 0
5, 23460, Note_on_c, 3, 54, 64
5, 23520, Note_on_c, 3, 54, 0
5, 23520, Note_on_c, 3, 52, 64
5, 23580, Note_on_c, 3, 52, 0
5, 23580, Note_on_c, 3, 55, 64
5, 23640, Note_on_c, 3, 55, 0
5, 23640, Note_on_c, 3, 54, 64
5, 23700, Note_on_c, 3, 54, 0
5, 23700, Note_on_c, 3, 52, 64
5, 23760, Note_on_c, 3, 52, 0
5, 23760, Note_on_c, 3, 57, 64
5, 23820, Note_on_c, 3, 57, 0
5, 23820, Note_on_c, 3, 45, 64
5, 23880, Note_on_c, 3, 45, 0
5, 23880, Note_on_c, 3, 47, 64
5, 23940, Note_on_c, 3, 47, 0
5, 23940, Note_on_c, 3, 49, 64
5, 24000, Note_on_c, 3, 49, 0
5, 24000, Note_on_c, 3, 50, 64
5, 24071, Note_on_c, 3, 50, 0
5, 24120, Note_on_c, 3, 55, 64
5, 24191, Note_on_c, 3, 55, 0
5, 24240, Note_on_c, 3, 57, 64
5, 24311, Note_on_c, 3, 57, 0
5, 24360, Note_on_c, 3, 45, 64
5, 24431, Note_on_c, 3, 45, 0
5, 24480, Note_on_c, 3, 45, 64
5, 24551, Note_on_c, 3, 45, 0
5, 24600, Note_on_c, 3, 45, 64
5, 24671, Note_on_c, 3, 45, 0
5, 24720, Note_on_c, 3, 42, 64
5, 24780, Note_on_c, 3, 42, 0
5, 24780, Note_on_c, 3, 38, 64
5, 24840, Note_on_c, 3, 38, 0
5, 24840, Note_on_c, 3, 40, 64
5, 24900, Note_on_c, 3, 40, 0
5, 24900, Note_on_c, 3, 42, 64
5, 24960, Note_on_c, 3, 42, 0
5, 24960, Note_on_c, 3, 43, 64
5, 25020, Note_on_c, 3, 43, 0
5, 25020, Note_on_c, 3, 45, 64
5, 25080, Note_on_c, 3, 45, 0
5, 25080, Note_on_c, 3, 47, 64
5, 25140, Note_on_c, 3, 47, 0
5, 25140, Note_on_c, 3, 43, 64
5, 25200, Note_on_c, 3, 43, 0
5, 25200, Note_on_c, 3, 48, 64
5, 25271, Note_on_c, 3, 48, 0
5, 25320, Note_on_c, 3, 60, 64
5, 25391, Note_on_c, 3, 60, 0
5, 25440, Note_on_c, 3, 57, 64
5, 25511, Note_on_c, 3, 57, 0
5, 25560, Note_on_c, 3, 52, 64
5, 25631, Note_on_c, 3, 52, 0
5, 25680, Note_on_c, 3, 54, 64
5, 25800, Note_on_c, 3, 54, 0
5, 25800, Note_on_c, 3, 50, 64
5, 25871, Note_on_c, 3, 50, 0
5, 25920, Note_on_c, 3, 55, 64
5, 25991, Note_on_c, 3, 55, 0
5, 26040, Note_on_c, 3, 48, 64
5, 26280, Note_on_c, 3, 48, 0
5, 26280, Note_on_c, 3, 47, 64
5, 26351, Note_on_c, 3, 47, 0
5, 26400, Note_on_c, 3, 45, 64
5, 26471, Note_on_c, 3, 45, 0
5, 26520, Note_on_c, 3, 57, 64
5, 26711, Note_on_c, 3, 57, 0
5, 26760, Note_on_c, 3, 55, 64
5, 26820, Note_on_c, 3, 55, 0
5, 26820, Note_on_c, 3, 54, 64
5, 26880, Note_on_c, 3, 54, 0
5, 26880, Note_on_c, 3, 55, 64
5, 26951, Note_on_c, 3, 55, 0
5, 27000, Note_on_c, 3, 52, 64
5, 27071, Note_on_c, 3, 52, 0
5, 27120, Note_on_c, 3, 54, 64
5, 27191, Note_on_c, 3, 54, 0
5, 27240, Note_on_c, 3, 47, 64
5, 27311, Note_on_c, 3, 47, 0
5, 27360, Note_on_c, 3, 59, 64
5, 27671, Note_on_c, 3, 59, 0
5, 27720, Note_on_c, 3, 57, 64
5, 27780, Note_on_c, 3, 57, 0
5, 27780, Note_on_c, 3, 55, 64
5, 27840, Note_on_c, 3, 55, 0
5, 27840, Note_on_c, 3, 57, 64
5, 27911, Note_on_c, 3, 57, 0
5, 27960, Note_on_c, 3, 50, 64
5, 28031, Note_on_c, 3, 50, 0
5, 28080, Note_on_c, 3, 55, 64
5, 28320, Note_on_c, 3, 55, 0
5, 28380, Note_on_c, 3, 52, 64
5, 28440, Note_on_c, 3, 52, 0
5, 28440, Note_on_c, 3, 54, 64
5, 28500, Note_on_c, 3, 54, 0
5, 28500, Note_on_c, 3, 55, 64
5, 28560, Note_on_c, 3, 55, 0
5, 28560, Note_on_c, 3, 57, 64
5, 28800, Note_on_c, 3, 57, 0
5, 28860, Note_on_c, 3, 54, 64
5, 28920, Note_on_c, 3, 54, 0
5, 28920, Note_on_c, 3, 55, 64
5, 28980, Note_on_c, 3, 55, 0
5, 28980, Note_on_c, 3, 57, 64
5, 29040, Note_on_c, 3, 57, 0
5, 29040, Note_on_c, 3, 59, 64
5, 29280, Note_on_c, 3, 59, 0
5, 29340, Note_on_c, 3, 57, 64
5, 29400, Note_on_c, 3, 57, 0
5, 29400, Note_on_c, 3, 59, 64
5, 29460, Note_on_c, 3, 59, 0
5, 29460, Note_on_c, 3, 61, 64
5, 29520, Note_on_c, 3, 61, 0
5, 29520, Note_on_c, 3, 62, 64
5, 29591, Note_on_c, 3, 62, 0
5, 29640, Note_on_c, 3, 50, 64
5, 29711, Note_on_c, 3, 50, 0
5, 29760, Note_on_c, 3, 62, 64
5, 30071, Note_on_c, 3, 62, 0
5, 30120, Note_on_c, 3, 61, 64
5, 30180, Note_on_c, 3, 61, 0
5, 30180, Note_on_c, 3, 59, 64
5, 30240, Note_on_c, 3, 59, 0
5, 30240, Note_on_c, 3, 61, 64
5, 30311, Note_on_c, 3, 61, 0
5, 30360, Note_on_c, 3, 57, 64
5, 30431, Note_on_c, 3, 57, 0
5, 30480, Note_on_c, 3, 59, 64
5, 30960, Note_on_c, 3, 59, 0
5, 30960, Note_on_c, 3, 57, 64
5, 31991, Note_on_c, 3, 57, 0
5, 32040, Note_on_c, 3, 54, 64
5, 32111, Note_on_c, 3, 54, 0
5, 32160, Note_on_c, 3, 59, 64
5, 32231, Note_on_c, 3, 59, 0
5, 32280, Note_on_c, 3, 55, 64
5, 32351, Note_on_c, 3, 55, 0
5, 32400, Note_on_c, 3, 57, 64
5, 32640, Note_on_c, 3, 57, 0
5, 32640, Note_on_c, 3, 45, 64
5, 32880, Note_on_c, 3, 45, 0
5, 32880, Note_on_c, 3, 50, 35
5, 34380, Note_on_c, 3, 50, 0
5, 34380, Note_on_c, 3, 50, 70
5, 34440, Note_on_c, 3, 50, 0
5, 34440, Note_on_c, 3, 52, 70
5, 34500, Note_on_c, 3, 52, 0
5, 34500, Note_on_c, 3, 54, 70
5, 34560, Note_on_c, 3, 54, 0
5, 34560, Note_on_c, 3, 55, 70
5, 34871, Note_on_c, 3, 55, 0
5, 34920, Note_on_c, 3, 54, 70
5, 34980, Note_on_c, 3, 54, 0
5, 34980, Note_on_c, 3, 52, 70
5, 35040, Note_on_c, 3, 52, 0
5, 35040, Note_on_c, 3, 54, 70
5, 35111, Note_on_c, 3, 54, 0
5, 35160, Note_on_c, 3, 50, 70
5, 35231, Note_on_c, 3, 50, 0
5, 35280, Note_on_c, 3, 52, 70
5, 35351, Note_on_c, 3, 52, 0
5, 35400, Note_on_c, 3, 45, 70
5, 35471, Note_on_c, 3, 45, 0
5, 35520, Note_on_c, 3, 50, 70
5, 35831, Note_on_c, 3, 50, 0
5, 35880, Note_on_c, 3, 49, 70
5, 35940, Note_on_c, 3, 49, 0
5, 35940, Note_on_c, 3, 47, 70
5, 36000, Note_on_c, 3, 47, 0
5, 36000, Note_on_c, 3, 49, 70
5, 36071, Note_on_c, 3, 49, 0
5, 36120, Note_on_c, 3, 45, 70
5, 36191, Note_on_c, 3, 45, 0
5, 36240, Note_on_c, 3, 47, 70
5, 36311, Note_on_c, 3, 47, 0
5, 36360, Note_on_c, 3, 40, 70
5, 36431, Note_on_c, 3, 40, 0
5, 36480, Note_on_c, 3, 45, 70
5, 36791, Note_on_c, 3, 45, 0
5, 36840, Note_on_c, 3, 43, 70
5, 36900, Note_on_c, 3, 43, 0
5, 36900, Note_on_c, 3, 42, 70
5, 36960, Note_on_c, 3, 42, 0
5, 36960, Note_on_c, 3, 43, 70
5, 37031, Note_on_c, 3, 43, 0
5, 37080, Note_on_c, 3, 40, 70
5, 37151, Note_on_c, 3, 40, 0
5, 37200, Note_on_c, 3, 42, 64
5, 37260, Note_on_c, 3, 42, 0
5, 37260, Note_on_c, 3, 38, 64
5, 37320, Note_on_c, 3, 38, 0
5, 37320, Note_on_c, 3, 40, 65
5, 37380, Note_on_c, 3, 40, 0
5, 37380, Note_on_c, 3, 42, 65
5, 37440, Note_on_c, 3, 42, 0
5, 37440, Note_on_c, 3, 43, 66
5, 37500, Note_on_c, 3, 43, 0
5, 37500, Note_on_c, 3, 42, 66
5, 37560, Note_on_c, 3, 42, 0
5, 37560, Note_on_c, 3, 43, 66
5, 37620, Note_on_c, 3, 43, 0
5, 37620, Note_on_c, 3, 45, 67
5, 37680, Note_on_c, 3, 45, 0
5, 37680, Note_on_c, 3, 47, 67
5, 37740, Note_on_c, 3, 47, 0
5, 37740, Note_on_c, 3, 45, 68
5, 37800, Note_on_c, 3, 45, 0
5, 37800, Note_on_c, 3, 47, 68
5, 37860, Note_on_c, 3, 47, 0
5, 37860, Note_on_c, 3, 49, 68
5, 37920, Note_on_c, 3, 49, 0
5, 37920, Note_on_c, 3, 50, 69
5, 37980, Note_on_c, 3, 50, 0
5, 37980, Note_on_c, 3, 45, 69
5, 38040, Note_on_c, 3, 45, 0
5, 38040, Note_on_c, 3, 47, 70
5, 38100, Note_on_c, 3, 47, 0
5, 38100, Note_on_c, 3, 49, 70
5, 38160, Note_on_c, 3, 49, 0
5, 38160, Note_on_c, 3, 50, 70
5, 38220, Note_on_c, 3, 50, 0
5, 38220, Note_on_c, 3, 49, 71
5, 38280, Note_on_c, 3, 49, 0
5, 38280, Note_on_c, 3, 50, 71
5, 38340, Note_on_c, 3, 50, 0
5, 38340, Note_on_c, 3, 52, 72
5, 38400, Note_on_c, 3, 52, 0
5, 38400, Note_on_c, 3, 54, 72
5, 38460, Note_on_c, 3, 54, 0
5, 38460, Note_on_c, 3, 52, 72
5, 38520, Note_on_c, 3, 52, 0
5, 38520, Note_on_c, 3, 54, 73
5, 38580, Note_on_c, 3, 54, 0
5, 38580, Note_on_c, 3, 55, 73
5, 38640, Note_on_c, 3, 55, 0
5, 38640, Note_on_c, 3, 57, 74
5, 38700, Note_on_c, 3, 57, 0
5, 38700, Note_on_c, 3, 50, 74
5, 38760, Note_on_c, 3, 50, 0
5, 38760, Note_on_c, 3, 52, 74
5, 38820, Note_on_c, 3, 52, 0
5, 38820, Note_on_c, 3, 54, 75
5, 38880, Note_on_c, 3, 54, 0
5, 38880, Note_on_c, 3, 55, 75
5, 38940, Note_on_c, 3, 55, 0
5, 38940, Note_on_c, 3, 54, 76
5, 39000, Note_on_c, 3, 54, 0
5, 39000, Note_on_c, 3, 55, 76
5, 39060, Note_on_c, 3, 55, 0
5, 39060, Note_on_c, 3, 57, 76
5, 39120, Note_on_c, 3, 57, 0
5, 39120, Note_on_c, 3, 59, 77
5, 39191, Note_on_c, 3, 59, 0
5, 39240, Note_on_c, 3, 57, 78
5, 39300, Note_on_c, 3, 57, 0
5, 39300, Note_on_c, 3, 55, 78
5, 39360, Note_on_c, 3, 55, 0
5, 39360, Note_on_c, 3, 54, 78
5, 39431, Note_on_c, 3, 54, 0
5, 39480, Note_on_c, 3, 55, 79
5, 39551, Note_on_c, 3, 55, 0
5, 39600, Note_on_c, 3, 57, 90
5, 39840, Note_on_c, 3, 57, 0
5, 39840, Note_on_c, 3, 45, 90
5, 40080, Note_on_c, 3, 45, 0
5, 40080, Note_on_c, 3, 38, 90
5, 40560, Note_on_c, 3, 38, 0
5, 41040, End_track
6, 0, Start_track
6, 0, MIDI_port, 0
6, 0, Title_t, "Violin I"
6, 0, Program_c, 4, 48
6, 0, Control_c, 4, 91, 127
6, 240, Control_c, 4, 7, 90
6, 360, Note_on_c, 4, 76, 64
6, 431, Note_on_c, 4, 76, 0
6, 480, Note_on_c, 4, 73, 64
6, 551, Note_on_c, 4, 73, 0
6, 600, Note_on_c, 4, 69, 64
6, 671, Note_on_c, 4, 69, 0
6, 840, Note_on_c, 4, 78, 64
6, 911, Note_on_c, 4, 78, 0
6, 960, Note_on_c, 4, 76, 64
6, 1031, Note_on_c, 4, 76, 0
6, 1080, Note_on_c, 4, 81, 64
6, 1151, Note_on_c, 4, 81, 0
6, 1200, Note_on_c, 4, 78, 64
6, 1271, Note_on_c, 4, 78, 0
6, 1320, Note_on_c, 4, 74, 64
6, 1391, Note_on_c, 4, 74, 0
6, 2760, Note_on_c, 4, 76, 64
6, 2831, Note_on_c, 4, 76, 0
6, 2880, Note_on_c, 4, 73, 64
6, 2951, Note_on_c, 4, 73, 0
6, 3000, Note_on_c, 4, 69, 64
6, 3071, Note_on_c, 4, 69, 0
6, 3240, Note_on_c, 4, 69, 64
6, 3311, Note_on_c, 4, 69, 0
6, 3360, Note_on_c, 4, 68, 64
6, 3431, Note_on_c, 4, 68, 0
6, 3480, Note_on_c, 4, 71, 64
6, 3551, Note_on_c, 4, 71, 0
6, 3600, Note_on_c, 4, 73, 64
6, 3671, Note_on_c, 4, 73, 0
6, 3720, Note_on_c, 4, 69, 64
6, 3791, Note_on_c, 4, 69, 0
6, 5160, Note_on_c, 4, 69, 64
6, 5231, Note_on_c, 4, 69, 0
6, 5280, Note_on_c, 4, 81, 64
6, 5351, Note_on_c, 4, 81, 0
6, 5400, Note_on_c, 4, 76, 64
6, 5471, Note_on_c, 4, 76, 0
6, 5640, Note_on_c, 4, 78, 64
6, 5711, Note_on_c, 4, 78, 0
6, 5760, Note_on_c, 4, 76, 64
6, 5831, Note_on_c, 4, 76, 0
6, 5880, Note_on_c, 4, 67, 64
6, 5951, Note_on_c, 4, 67, 0
6, 6000, Note_on_c, 4, 66, 64
6, 6071, Note_on_c, 4, 66, 0
6, 6120, Note_on_c, 4, 62, 64
6, 6191, Note_on_c, 4, 62, 0
6, 7560, Note_on_c, 4, 76, 64
6, 7631, Note_on_c, 4, 76, 0
6, 7680, Note_on_c, 4, 73, 64
6, 7751, Note_on_c, 4, 73, 0
6, 7800, Note_on_c, 4, 69, 64
6, 7871, Note_on_c, 4, 69, 0
6, 7920, Note_on_c, 4, 62, 64
6, 7991, Note_on_c, 4, 62, 0
6, 8040, Note_on_c, 4, 74, 64
6, 8111, Note_on_c, 4, 74, 0
6, 8160, Note_on_c, 4, 74, 64
6, 8231, Note_on_c, 4, 74, 0
6, 8280, Note_on_c, 4, 74, 64
6, 8351, Note_on_c, 4, 74, 0
6, 8400, Note_on_c, 4, 73, 64
6, 8471, Note_on_c, 4, 73, 0
6, 8520, Note_on_c, 4, 76, 64
6, 8591, Note_on_c, 4, 76, 0
6, 8640, Note_on_c, 4, 78, 64
6, 8880, Note_on_c, 4, 78, 0
6, 8880, Note_on_c, 4, 67, 64
6, 8951, Note_on_c, 4, 67, 0
6, 9000, Note_on_c, 4, 79, 64
6, 9071, Note_on_c, 4, 79, 0
6, 9120, Note_on_c, 4, 76, 64
6, 9191, Note_on_c, 4, 76, 0
6, 9240, Note_on_c, 4, 71, 64
6, 9311, Note_on_c, 4, 71, 0
6, 9360, Note_on_c, 4, 73, 64
6, 9431, Note_on_c, 4, 73, 0
6, 9480, Note_on_c, 4, 69, 64
6, 9551, Note_on_c, 4, 69, 0
6, 9600, Note_on_c, 4, 74, 64
6, 9671, Note_on_c, 4, 74, 0
6, 9720, Note_on_c, 4, 67, 64
6, 9791, Note_on_c, 4, 67, 0
6, 9840, Note_on_c, 4, 66, 64
6, 10080, Note_on_c, 4, 66, 0
6, 10080, Note_on_c, 4, 64, 64
6, 10320, Note_on_c, 4, 64, 0
6, 10320, Note_on_c, 4, 62, 64
6, 10560, Note_on_c, 4, 62, 0
6, 10680, Note_on_c, 4, 64, 64
6, 10751, Note_on_c, 4, 64, 0
6, 10800, Note_on_c, 4, 66, 64
6, 10860, Note_on_c, 4, 66, 0
6, 10860, Note_on_c, 4, 69, 64
6, 10920, Note_on_c, 4, 69, 0
6, 10920, Note_on_c, 4, 71, 64
6, 10980, Note_on_c, 4, 71, 0
6, 10980, Note_on_c, 4, 73, 64
6, 11040, Note_on_c, 4, 73, 0
6, 11040, Note_on_c, 4, 74, 64
6, 11351, Note_on_c, 4, 74, 0
6, 11400, Note_on_c, 4, 73, 64
6, 11591, Note_on_c, 4, 73, 0
6, 11640, Note_on_c, 4, 78, 64
6, 11711, Note_on_c, 4, 78, 0
6, 11760, Note_on_c, 4, 76, 64
6, 11831, Note_on_c, 4, 76, 0
6, 11880, Note_on_c, 4, 69, 64
6, 12071, Note_on_c, 4, 69, 0
6, 12120, Note_on_c, 4, 68, 64
6, 12191, Note_on_c, 4, 68, 0
6, 12240, Note_on_c, 4, 69, 64
6, 12300, Note_on_c, 4, 69, 0
6, 12300, Note_on_c, 4, 73, 64
6, 12360, Note_on_c, 4, 73, 0
6, 12360, Note_on_c, 4, 74, 64
6, 12420, Note_on_c, 4, 74, 0
6, 12420, Note_on_c, 4, 76, 64
6, 12480, Note_on_c, 4, 76, 0
6, 12480, Note_on_c, 4, 78, 64
6, 12791, Note_on_c, 4, 78, 0
6, 12840, Note_on_c, 4, 76, 64
6, 12900, Note_on_c, 4, 76, 0
6, 12900, Note_on_c, 4, 74, 64
6, 12960, Note_on_c, 4, 74, 0
6, 12960, Note_on_c, 4, 76, 64
6, 13020, Note_on_c, 4, 76, 0
6, 13020, Note_on_c, 4, 78, 64
6, 13080, Note_on_c, 4, 78, 0
6, 13080, Note_on_c, 4, 76, 64
6, 13140, Note_on_c, 4, 76, 0
6, 13140, Note_on_c, 4, 74, 64
6, 13200, Note_on_c, 4, 74, 0
6, 13200, Note_on_c, 4, 73, 64
6, 13260, Note_on_c, 4, 73, 0
6, 13260, Note_on_c, 4, 69, 64
6, 13320, Note_on_c, 4, 69, 0
6, 13320, Note_on_c, 4, 71, 64
6, 13380, Note_on_c, 4, 71, 0
6, 13380, Note_on_c, 4, 73, 64
6, 13440, Note_on_c, 4, 73, 0
6, 13440, Note_on_c, 4, 74, 64
6, 13511, Note_on_c, 4, 74, 0
6, 13560, Note_on_c, 4, 79, 64
6, 13751, Note_on_c, 4, 79, 0
6, 13800, Note_on_c, 4, 78, 64
6, 13871, Note_on_c, 4, 78, 0
6, 13920, Note_on_c, 4, 76, 64
6, 14231, Note_on_c, 4, 76, 0
6, 14280, Note_on_c, 4, 74, 64
6, 14460, Note_on_c, 4, 74, 0
6, 14460, Note_on_c, 4, 71, 64
6, 14520, Note_on_c, 4, 71, 0
6, 14520, Note_on_c, 4, 72, 64
6, 14580, Note_on_c, 4, 72, 0
6, 14580, Note_on_c, 4, 74, 64
6, 14640, Note_on_c, 4, 74, 0
6, 14640, Note_on_c, 4, 76, 64
6, 14700, Note_on_c, 4, 76, 0
6, 14700, Note_on_c, 4, 74, 64
6, 14760, Note_on_c, 4, 74, 0
6, 14760, Note_on_c, 4, 72, 64
6, 14820, Note_on_c, 4, 72, 0
6, 14820, Note_on_c, 4, 71, 64
6, 14880, Note_on_c, 4, 71, 0
6, 14880, Note_on_c, 4, 69, 64
6, 14940, Note_on_c, 4, 69, 0
6, 14940, Note_on_c, 4, 67, 64
6, 15000, Note_on_c, 4, 67, 0
6, 15000, Note_on_c, 4, 66, 64
6, 15060, Note_on_c, 4, 66, 0
6, 15060, Note_on_c, 4, 64, 64
6, 15120, Note_on_c, 4, 64, 0
6, 15120, Note_on_c, 4, 62, 64
6, 15191, Note_on_c, 4, 62, 0
6, 15240, Note_on_c, 4, 74, 64
6, 15420, Note_on_c, 4, 74, 0
6, 15420, Note_on_c, 4, 72, 64
6, 15480, Note_on_c, 4, 72, 0
6, 15480, Note_on_c, 4, 71, 64
6, 15540, Note_on_c, 4, 71, 0
6, 15540, Note_on_c, 4, 69, 64
6, 15600, Note_on_c, 4, 69, 0
6, 15600, Note_on_c, 4, 71, 64
6, 15660, Note_on_c, 4, 71, 0
6, 15660, Note_on_c, 4, 73, 64
6, 15720, Note_on_c, 4, 73, 0
6, 15720, Note_on_c, 4, 75, 64
6, 15780, Note_on_c, 4, 75, 0
6, 15780, Note_on_c, 4, 76, 64
6, 15840, Note_on_c, 4, 76, 0
6, 15840, Note_on_c, 4, 78, 64
6, 16151, Note_on_c, 4, 78, 0
6, 16200, Note_on_c, 4, 76, 64
6, 16260, Note_on_c, 4, 76, 0
6, 16260, Note_on_c, 4, 74, 64
6, 16320, Note_on_c, 4, 74, 0
6, 16320, Note_on_c, 4, 72, 64
6, 16380, Note_on_c, 4, 72, 0
6, 16380, Note_on_c, 4, 71, 64
6, 16440, Note_on_c, 4, 71, 0
6, 16440, Note_on_c, 4, 69, 64
6, 16500, Note_on_c, 4, 69, 0
6, 16500, Note_on_c, 4, 67, 64
6, 16560, Note_on_c, 4, 67, 0
6, 16560, Note_on_c, 4, 69, 64
6, 16620, Note_on_c, 4, 69, 0
6, 16620, Note_on_c, 4, 71, 64
6, 16680, Note_on_c, 4, 71, 0
6, 16680, Note_on_c, 4, 73, 64
6, 16740, Note_on_c, 4, 73, 0
6, 16740, Note_on_c, 4, 75, 64
6, 16800, Note_on_c, 4, 75, 0
6, 16800, Note_on_c, 4, 76, 64
6, 16860, Note_on_c, 4, 76, 0
6, 16860, Note_on_c, 4, 75, 64
6, 16920, Note_on_c, 4, 75, 0
6, 16920, Note_on_c, 4, 76, 64
6, 16980, Note_on_c, 4, 76, 0
6, 16980, Note_on_c, 4, 78, 64
6, 17040, Note_on_c, 4, 78, 0
6, 17040, Note_on_c, 4, 75, 64
6, 17100, Note_on_c, 4, 75, 0
6, 17100, Note_on_c, 4, 71, 64
6, 17160, Note_on_c, 4, 71, 0
6, 17160, Note_on_c, 4, 73, 64
6, 17220, Note_on_c, 4, 73, 0
6, 17220, Note_on_c, 4, 75, 64
6, 17280, Note_on_c, 4, 75, 0
6, 17280, Note_on_c, 4, 76, 64
6, 17591, Note_on_c, 4, 76, 0
6, 17640, Note_on_c, 4, 74, 64
6, 17700, Note_on_c, 4, 74, 0
6, 17700, Note_on_c, 4, 73, 64
6, 17760, Note_on_c, 4, 73, 0
6, 17760, Note_on_c, 4, 74, 64
6, 18060, Note_on_c, 4, 74, 0
6, 18060, Note_on_c, 4, 73, 64
6, 18120, Note_on_c, 4, 73, 0
6, 18120, Note_on_c, 4, 74, 64
6, 18180, Note_on_c, 4, 74, 0
6, 18180, Note_on_c, 4, 76, 64
6, 18240, Note_on_c, 4, 76, 0
6, 18240, Note_on_c, 4, 74, 64
6, 18300, Note_on_c, 4, 74, 0
6, 18300, Note_on_c, 4, 73, 64
6, 18360, Note_on_c, 4, 73, 0
6, 18360, Note_on_c, 4, 71, 64
6, 18420, Note_on_c, 4, 71, 0
6, 18420, Note_on_c, 4, 69, 64
6, 18480, Note_on_c, 4, 69, 0
6, 18480, Note_on_c, 4, 71, 64
6, 18551, Note_on_c, 4, 71, 0
6, 18600, Note_on_c, 4, 76, 64
6, 18671, Note_on_c, 4, 76, 0
6, 18720, Note_on_c, 4, 76, 64
6, 18791, Note_on_c, 4, 76, 0
6, 18840, Note_on_c, 4, 76, 64
6, 18911, Note_on_c, 4, 76, 0
6, 18960, Note_on_c, 4, 73, 64
6, 19031, Note_on_c, 4, 73, 0
6, 19080, Note_on_c, 4, 76, 64
6, 19151, Note_on_c, 4, 76, 0
6, 19200, Note_on_c, 4, 78, 64
6, 19440, Note_on_c, 4, 78, 0
6, 19440, Note_on_c, 4, 67, 64
6, 19511, Note_on_c, 4, 67, 0
6, 19560, Note_on_c, 4, 79, 64
6, 19631, Note_on_c, 4, 79, 0
6, 19680, Note_on_c, 4, 76, 64
6, 19751, Note_on_c, 4, 76, 0
6, 19800, Note_on_c, 4, 71, 64
6, 19871, Note_on_c, 4, 71, 0
6, 19920, Note_on_c, 4, 73, 64
6, 19991, Note_on_c, 4, 73, 0
6, 20040, Note_on_c, 4, 69, 64
6, 20111, Note_on_c, 4, 69, 0
6, 20160, Note_on_c, 4, 74, 64
6, 20231, Note_on_c, 4, 74, 0
6, 20280, Note_on_c, 4, 67, 64
6, 20351, Note_on_c, 4, 67, 0
6, 20400, Note_on_c, 4, 66, 64
6, 20640, Note_on_c, 4, 66, 0
6, 20640, Note_on_c, 4, 64, 64
6, 20880, Note_on_c, 4, 64, 0
6, 20880, Note_on_c, 4, 62, 64
6, 21120, Note_on_c, 4, 62, 0
6, 21240, Note_on_c, 4, 64, 64
6, 21311, Note_on_c, 4, 64, 0
6, 21360, Note_on_c, 4, 66, 64
6, 21420, Note_on_c, 4, 66, 0
6, 21420, Note_on_c, 4, 69, 64
6, 21480, Note_on_c, 4, 69, 0
6, 21480, Note_on_c, 4, 71, 64
6, 21540, Note_on_c, 4, 71, 0
6, 21540, Note_on_c, 4, 73, 64
6, 21600, Note_on_c, 4, 73, 0
6, 21600, Note_on_c, 4, 74, 64
6, 21911, Note_on_c, 4, 74, 0
6, 21960, Note_on_c, 4, 73, 64
6, 22151, Note_on_c, 4, 73, 0
6, 22200, Note_on_c, 4, 78, 64
6, 22271, Note_on_c, 4, 78, 0
6, 22320, Note_on_c, 4, 76, 64
6, 22391, Note_on_c, 4, 76, 0
6, 22440, Note_on_c, 4, 69, 64
6, 22680, Note_on_c, 4, 69, 0
6, 22680, Note_on_c, 4, 68, 64
6, 22751, Note_on_c, 4, 68, 0
6, 22800, Note_on_c, 4, 69, 64
6, 23100, Note_on_c, 4, 69, 0
6, 23100, Note_on_c, 4, 74, 64
6, 23160, Note_on_c, 4, 74, 0
6, 23160, Note_on_c, 4, 73, 64
6, 23220, Note_on_c, 4, 73, 0
6, 23220, Note_on_c, 4, 74, 64
6, 23280, Note_on_c, 4, 74, 0
6, 23280, Note_on_c, 4, 71, 64
6, 23580, Note_on_c, 4, 71, 0
6, 23580, Note_on_c, 4, 71, 64
6, 23640, Note_on_c, 4, 71, 0
6, 23640, Note_on_c, 4, 73, 64
6, 23700, Note_on_c, 4, 73, 0
6, 23700, Note_on_c, 4, 74, 64
6, 23760, Note_on_c, 4, 74, 0
6, 23760, Note_on_c, 4, 76, 64
6, 23820, Note_on_c, 4, 76, 0
6, 23820, Note_on_c, 4, 73, 64
6, 23880, Note_on_c, 4, 73, 0
6, 23880, Note_on_c, 4, 74, 64
6, 23940, Note_on_c, 4, 74, 0
6, 23940, Note_on_c, 4, 76, 64
6, 24000, Note_on_c, 4, 76, 0
6, 24000, Note_on_c, 4, 78, 64
6, 24060, Note_on_c, 4, 78, 0
6, 24060, Note_on_c, 4, 76, 64
6, 24120, Note_on_c, 4, 76, 0
6, 24120, Note_on_c, 4, 78, 64
6, 24180, Note_on_c, 4, 78, 0
6, 24180, Note_on_c, 4, 79, 64
6, 24240, Note_on_c, 4, 79, 0
6, 24240, Note_on_c, 4, 73, 64
6, 24311, Note_on_c, 4, 73, 0
6, 24360, Note_on_c, 4, 74, 64
6, 24431, Note_on_c, 4, 74, 0
6, 24480, Note_on_c, 4, 76, 64
6, 24720, Note_on_c, 4, 76, 0
6, 24720, Note_on_c, 4, 69, 64
6, 24791, Note_on_c, 4, 69, 0
6, 24840, Note_on_c, 4, 74, 64
6, 25031, Note_on_c, 4, 74, 0
6, 25080, Note_on_c, 4, 79, 64
6, 25260, Note_on_c, 4, 79, 0
6, 25260, Note_on_c, 4, 77, 64
6, 25320, Note_on_c, 4, 77, 0
6, 25320, Note_on_c, 4, 76, 64
6, 25380, Note_on_c, 4, 76, 0
6, 25380, Note_on_c, 4, 74, 64
6, 25440, Note_on_c, 4, 74, 0
6, 25440, Note_on_c, 4, 76, 64
6, 25500, Note_on_c, 4, 76, 0
6, 25500, Note_on_c, 4, 74, 64
6, 25560, Note_on_c, 4, 74, 0
6, 25560, Note_on_c, 4, 72, 64
6, 25620, Note_on_c, 4, 72, 0
6, 25620, Note_on_c, 4, 71, 64
6, 25680, Note_on_c, 4, 71, 0
6, 25680, Note_on_c, 4, 69, 64
6, 25740, Note_on_c, 4, 69, 0
6, 25740, Note_on_c, 4, 67, 64
6, 25800, Note_on_c, 4, 67, 0
6, 25800, Note_on_c, 4, 69, 64
6, 25860, Note_on_c, 4, 69, 0
6, 25860, Note_on_c, 4, 66, 64
6, 25920, Note_on_c, 4, 66, 0
6, 25920, Note_on_c, 4, 67, 64
6, 25980, Note_on_c, 4, 67, 0
6, 25980, Note_on_c, 4, 66, 64
6, 26040, Note_on_c, 4, 66, 0
6, 26040, Note_on_c, 4, 64, 64
6, 26100, Note_on_c, 4, 64, 0
6, 26100, Note_on_c, 4, 67, 64
6, 26160, Note_on_c, 4, 67, 0
6, 26160, Note_on_c, 4, 66, 64
6, 26220, Note_on_c, 4, 66, 0
6, 26220, Note_on_c, 4, 67, 64
6, 26280, Note_on_c, 4, 67, 0
6, 26280, Note_on_c, 4, 69, 64
6, 26340, Note_on_c, 4, 69, 0
6, 26340, Note_on_c, 4, 71, 64
6, 26400, Note_on_c, 4, 71, 0
6, 26400, Note_on_c, 4, 72, 64
6, 26460, Note_on_c, 4, 72, 0
6, 26460, Note_on_c, 4, 71, 64
6, 26520, Note_on_c, 4, 71, 0
6, 26520, Note_on_c, 4, 72, 64
6, 26580, Note_on_c, 4, 72, 0
6, 26580, Note_on_c, 4, 69, 64
6, 26640, Note_on_c, 4, 69, 0
6, 26640, Note_on_c, 4, 71, 64
6, 26711, Note_on_c, 4, 71, 0
6, 26760, Note_on_c, 4, 73, 64
6, 26820, Note_on_c, 4, 73, 0
6, 26820, Note_on_c, 4, 75, 64
6, 26880, Note_on_c, 4, 75, 0
6, 26880, Note_on_c, 4, 76, 64
6, 27191, Note_on_c, 4, 76, 0
6, 27240, Note_on_c, 4, 74, 64
6, 27300, Note_on_c, 4, 74, 0
6, 27300, Note_on_c, 4, 73, 64
6, 27360, Note_on_c, 4, 73, 0
6, 27360, Note_on_c, 4, 74, 64
6, 27431, Note_on_c, 4, 74, 0
6, 27480, Note_on_c, 4, 79, 64
6, 27551, Note_on_c, 4, 79, 0
6, 27600, Note_on_c, 4, 72, 64
6, 28080, Note_on_c, 4, 72, 0
6, 28080, Note_on_c, 4, 71, 64
6, 28140, Note_on_c, 4, 71, 0
6, 28140, Note_on_c, 4, 74, 64
6, 28200, Note_on_c, 4, 74, 0
6, 28200, Note_on_c, 4, 76, 64
6, 28260, Note_on_c, 4, 76, 0
6, 28260, Note_on_c, 4, 78, 64
6, 28320, Note_on_c, 4, 78, 0
6, 28320, Note_on_c, 4, 79, 64
6, 28620, Note_on_c, 4, 79, 0
6, 28620, Note_on_c, 4, 73, 64
6, 28680, Note_on_c, 4, 73, 0
6, 28680, Note_on_c, 4, 74, 64
6, 28740, Note_on_c, 4, 74, 0
6, 28740, Note_on_c, 4, 76, 64
6, 28800, Note_on_c, 4, 76, 0
6, 28800, Note_on_c, 4, 78, 64
6, 29111, Note_on_c, 4, 78, 0
6, 29160, Note_on_c, 4, 76, 64
6, 29220, Note_on_c, 4, 76, 0
6, 29220, Note_on_c, 4, 74, 64
6, 29280, Note_on_c, 4, 74, 0
6, 29280, Note_on_c, 4, 76, 64
6, 29580, Note_on_c, 4, 76, 0
6, 29580, Note_on_c, 4, 79, 64
6, 29640, Note_on_c, 4, 79, 0
6, 29640, Note_on_c, 4, 78, 64
6, 29700, Note_on_c, 4, 78, 0
6, 29700, Note_on_c, 4, 76, 64
6, 29760, Note_on_c, 4, 76, 0
6, 29760, Note_on_c, 4, 74, 64
6, 29820, Note_on_c, 4, 74, 0
6, 29820, Note_on_c, 4, 73, 64
6, 29880, Note_on_c, 4, 73, 0
6, 29880, Note_on_c, 4, 71, 64
6, 29940, Note_on_c, 4, 71, 0
6, 29940, Note_on_c, 4, 69, 64
6, 30000, Note_on_c, 4, 69, 0
6, 30000, Note_on_c, 4, 68, 64
6, 30060, Note_on_c, 4, 68, 0
6, 30060, Note_on_c, 4, 64, 64
6, 30120, Note_on_c, 4, 64, 0
6, 30120, Note_on_c, 4, 66, 64
6, 30180, Note_on_c, 4, 66, 0
6, 30180, Note_on_c, 4, 68, 64
6, 30240, Note_on_c, 4, 68, 0
6, 30240, Note_on_c, 4, 69, 64
6, 30300, Note_on_c, 4, 69, 0
6, 30300, Note_on_c, 4, 71, 64
6, 30360, Note_on_c, 4, 71, 0
6, 30360, Note_on_c, 4, 73, 64
6, 30420, Note_on_c, 4, 73, 0
6, 30420, Note_on_c, 4, 69, 64
6, 30480, Note_on_c, 4, 69, 0
6, 30480, Note_on_c, 4, 74, 64
6, 30540, Note_on_c, 4, 74, 0
6, 30540, Note_on_c, 4, 73, 64
6, 30600, Note_on_c, 4, 73, 0
6, 30600, Note_on_c, 4, 71, 64
6, 30660, Note_on_c, 4, 71, 0
6, 30660, Note_on_c, 4, 73, 64
6, 30720, Note_on_c, 4, 73, 0
6, 30720, Note_on_c, 4, 74, 64
6, 30791, Note_on_c, 4, 74, 0
6, 30840, Note_on_c, 4, 74, 64
6, 30911, Note_on_c, 4, 74, 0
6, 30960, Note_on_c, 4, 73, 64
6, 31031, Note_on_c, 4, 73, 0
6, 31080, Note_on_c, 4, 76, 64
6, 31151, Note_on_c, 4, 76, 0
6, 31200, Note_on_c, 4, 78, 64
6, 31440, Note_on_c, 4, 78, 0
6, 31440, Note_on_c, 4, 67, 64
6, 31511, Note_on_c, 4, 67, 0
6, 31560, Note_on_c, 4, 79, 64
6, 31631, Note_on_c, 4, 79, 0
6, 31680, Note_on_c, 4, 76, 64
6, 31751, Note_on_c, 4, 76, 0
6, 31800, Note_on_c, 4, 71, 64
6, 31871, Note_on_c, 4, 71, 0
6, 31920, Note_on_c, 4, 73, 64
6, 32040, Note_on_c, 4, 73, 0
6, 32040, Note_on_c, 4, 69, 64
6, 32111, Note_on_c, 4, 69, 0
6, 32160, Note_on_c, 4, 74, 64
6, 32231, Note_on_c, 4, 74, 0
6, 32280, Note_on_c, 4, 67, 64
6, 32351, Note_on_c, 4, 67, 0
6, 32400, Note_on_c, 4, 66, 64
6, 32640, Note_on_c, 4, 66, 0
6, 32640, Note_on_c, 4, 64, 64
6, 32880, Note_on_c, 4, 64, 0
6, 32880, Note_on_c, 4, 62, 35
6, 33120, Note_on_c, 4, 62, 0
6, 33240, Note_on_c, 4, 69, 45
6, 33300, Note_on_c, 4, 69, 0
6, 33300, Note_on_c, 4, 71, 47
6, 33360, Note_on_c, 4, 71, 0
6, 33360, Note_on_c, 4, 72, 48
6, 33431, Note_on_c, 4, 72, 0
6, 33480, Note_on_c, 4, 71, 52
6, 33540, Note_on_c, 4, 71, 0
6, 33540, Note_on_c, 4, 69, 53
6, 33600, Note_on_c, 4, 69, 0
6, 33600, Note_on_c, 4, 71, 55
6, 33671, Note_on_c, 4, 71, 0
6, 33720, Note_on_c, 4, 67, 58
6, 33791, Note_on_c, 4, 67, 0
6, 33840, Note_on_c, 4, 69, 62
6, 34080, Note_on_c, 4, 69, 0
6, 34440, Note_on_c, 4, 79, 70
6, 34500, Note_on_c, 4, 79, 0
6, 34500, Note_on_c, 4, 78, 70
6, 34560, Note_on_c, 4, 78, 0
6, 34560, Note_on_c, 4, 79, 70
6, 34631, Note_on_c, 4, 79, 0
6, 35160, Note_on_c, 4, 74, 70
6, 35231, Note_on_c, 4, 74, 0
6, 35280, Note_on_c, 4, 79, 70
6, 35640, Note_on_c, 4, 79, 0
6, 35640, Note_on_c, 4, 78, 70
6, 35700, Note_on_c, 4, 78, 0
6, 35700, Note_on_c, 4, 76, 70
6, 35760, Note_on_c, 4, 76, 0
6, 35760, Note_on_c, 4, 78, 70
6, 35820, Note_on_c, 4, 78, 0
6, 35820, Note_on_c, 4, 79, 70
6, 35880, Note_on_c, 4, 79, 0
6, 35880, Note_on_c, 4, 81, 70
6, 35940, Note_on_c, 4, 81, 0
6, 35940, Note_on_c, 4, 83, 70
6, 36000, Note_on_c, 4, 83, 0
6, 36000, Note_on_c, 4, 76, 70
6, 36060, Note_on_c, 4, 76, 0
6, 36060, Note_on_c, 4, 78, 70
6, 36120, Note_on_c, 4, 78, 0
6, 36120, Note_on_c, 4, 79, 70
6, 36180, Note_on_c, 4, 79, 0
6, 36180, Note_on_c, 4, 81, 70
6, 36240, Note_on_c, 4, 81, 0
6, 36240, Note_on_c, 4, 74, 70
6, 36300, Note_on_c, 4, 74, 0
6, 36300, Note_on_c, 4, 73, 70
6, 36360, Note_on_c, 4, 73, 0
6, 36360, Note_on_c, 4, 74, 70
6, 36420, Note_on_c, 4, 74, 0
6, 36420, Note_on_c, 4, 76, 70
6, 36480, Note_on_c, 4, 76, 0
6, 36480, Note_on_c, 4, 73, 70
6, 36540, Note_on_c, 4, 73, 0
6, 36540, Note_on_c, 4, 74, 70
6, 36600, Note_on_c, 4, 74, 0
6, 36600, Note_on_c, 4, 76, 70
6, 36660, Note_on_c, 4, 76, 0
6, 36660, Note_on_c, 4, 78, 70
6, 36720, Note_on_c, 4, 78, 0
6, 36720, Note_on_c, 4, 71, 70
6, 36791, Note_on_c, 4, 71, 0
6, 36840, Note_on_c, 4, 71, 70
6, 36900, Note_on_c, 4, 71, 0
6, 36900, Note_on_c, 4, 69, 70
6, 36960, Note_on_c, 4, 69, 0
6, 36960, Note_on_c, 4, 71, 70
6, 37031, Note_on_c, 4, 71, 0
6, 37080, Note_on_c, 4, 73, 70
6, 37151, Note_on_c, 4, 73, 0
6, 37200, Note_on_c, 4, 74, 64
6, 37980, Note_on_c, 4, 74, 0
6, 37980, Note_on_c, 4, 73, 69
6, 38040, Note_on_c, 4, 73, 0
6, 38040, Note_on_c, 4, 74, 70
6, 38100, Note_on_c, 4, 74, 0
6, 38100, Note_on_c, 4, 76, 70
6, 38160, Note_on_c, 4, 76, 0
6, 38160, Note_on_c, 4, 78, 70
6, 38220, Note_on_c, 4, 78, 0
6, 38220, Note_on_c, 4, 76, 71
6, 38280, Note_on_c, 4, 76, 0
6, 38280, Note_on_c, 4, 78, 71
6, 38340, Note_on_c, 4, 78, 0
6, 38340, Note_on_c, 4, 79, 72
6, 38400, Note_on_c, 4, 79, 0
6, 38400, Note_on_c, 4, 81, 72
6, 38700, Note_on_c, 4, 81, 0
6, 38700, Note_on_c, 4, 78, 74
6, 38760, Note_on_c, 4, 78, 0
6, 38760, Note_on_c, 4, 79, 74
6, 38820, Note_on_c, 4, 79, 0
6, 38820, Note_on_c, 4, 81, 75
6, 38880, Note_on_c, 4, 81, 0
6, 38880, Note_on_c, 4, 83, 75
6, 38940, Note_on_c, 4, 83, 0
6, 38940, Note_on_c, 4, 81, 76
6, 39000, Note_on_c, 4, 81, 0
6, 39000, Note_on_c, 4, 83, 76
6, 39060, Note_on_c, 4, 83, 0
6, 39060, Note_on_c, 4, 85, 76
6, 39120, Note_on_c, 4, 85, 0
6, 39120, Note_on_c, 4, 86, 77
6, 39191, Note_on_c, 4, 86, 0
6, 39240, Note_on_c, 4, 85, 78
6, 39300, Note_on_c, 4, 85, 0
6, 39300, Note_on_c, 4, 83, 78
6, 39360, Note_on_c, 4, 83, 0
6, 39360, Note_on_c, 4, 81, 78
6, 39431, Note_on_c, 4, 81, 0
6, 39480, Note_on_c, 4, 79, 79
6, 39551, Note_on_c, 4, 79, 0
6, 39600, Note_on_c, 4, 78, 90
6, 39840, Note_on_c, 4, 78, 0
6, 39840, Note_on_c, 4, 76, 90
6, 40080, Note_on_c, 4, 76, 0
6, 40080, Note_on_c, 4, 74, 90
6, 40560, Note_on_c, 4, 74, 0
6, 41040, End_track
7, 0, Start_track
7, 0, MIDI_port, 0
7, 0, Title_t, "Violin II"
7, 0, Program_c, 5, 48
7, 0, Control_c, 5, 91, 127
7, 240, Control_c, 5, 7, 90
7, 360, Note_on_c, 5, 73, 64
7, 431, Note_on_c, 5, 73, 0
7, 480, Note_on_c, 5, 69, 64
7, 551, Note_on_c, 5, 69, 0
7, 600, Note_on_c, 5, 64, 64
7, 671, Note_on_c, 5, 64, 0
7, 840, Note_on_c, 5, 69, 64
7, 911, Note_on_c, 5, 69, 0
7, 960, Note_on_c, 5, 69, 64
7, 1031, Note_on_c, 5, 69, 0
7, 1080, Note_on_c, 5, 69, 64
7, 1151, Note_on_c, 5, 69, 0
7, 1200, Note_on_c, 5, 69, 64
7, 1271, Note_on_c, 5, 69, 0
7, 1320, Note_on_c, 5, 66, 64
7, 1391, Note_on_c, 5, 66, 0
7, 2760, Note_on_c, 5, 69, 64
7, 2831, Note_on_c, 5, 69, 0
7, 2880, Note_on_c, 5, 64, 64
7, 2951, Note_on_c, 5, 64, 0
7, 3000, Note_on_c, 5, 61, 64
7, 3071, Note_on_c, 5, 61, 0
7, 3240, Note_on_c, 5, 66, 64
7, 3311, Note_on_c, 5, 66, 0
7, 3360, Note_on_c, 5, 71, 64
7, 3431, Note_on_c, 5, 71, 0
7, 3480, Note_on_c, 5, 64, 64
7, 3551, Note_on_c, 5, 64, 0
7, 3600, Note_on_c, 5, 64, 64
7, 3671, Note_on_c, 5, 64, 0
7, 3720, Note_on_c, 5, 57, 64
7, 3791, Note_on_c, 5, 57, 0
7, 5160, Note_on_c, 5, 69, 64
7, 5231, Note_on_c, 5, 69, 0
7, 5280, Note_on_c, 5, 69, 64
7, 5351, Note_on_c, 5, 69, 0
7, 5400, Note_on_c, 5, 69, 64
7, 5471, Note_on_c, 5, 69, 0
7, 5520, Note_on_c, 5, 66, 64
7, 5591, Note_on_c, 5, 66, 0
7, 5640, Note_on_c, 5, 69, 64
7, 5711, Note_on_c, 5, 69, 0
7, 5760, Note_on_c, 5, 73, 64
7, 6000, Note_on_c, 5, 73, 0
7, 6000, Note_on_c, 5, 62, 64
7, 6071, Note_on_c, 5, 62, 0
7, 6120, Note_on_c, 5, 74, 64
7, 6191, Note_on_c, 5, 74, 0
7, 6240, Note_on_c, 5, 71, 64
7, 6311, Note_on_c, 5, 71, 0
7, 6360, Note_on_c, 5, 66, 64
7, 6431, Note_on_c, 5, 66, 0
7, 6480, Note_on_c, 5, 68, 64
7, 6551, Note_on_c, 5, 68, 0
7, 6600, Note_on_c, 5, 64, 64
7, 6671, Note_on_c, 5, 64, 0
7, 6720, Note_on_c, 5, 69, 64
7, 6791, Note_on_c, 5, 69, 0
7, 6840, Note_on_c, 5, 62, 64
7, 6911, Note_on_c, 5, 62, 0
7, 6960, Note_on_c, 5, 61, 64
7, 7200, Note_on_c, 5, 61, 0
7, 7200, Note_on_c, 5, 59, 64
7, 7440, Note_on_c, 5, 59, 0
7, 7440, Note_on_c, 5, 57, 64
7, 7511, Note_on_c, 5, 57, 0
7, 7560, Note_on_c, 5, 73, 64
7, 7631, Note_on_c, 5, 73, 0
7, 7680, Note_on_c, 5, 69, 64
7, 7751, Note_on_c, 5, 69, 0
7, 7800, Note_on_c, 5, 64, 64
7, 7871, Note_on_c, 5, 64, 0
7, 7920, Note_on_c, 5, 66, 64
7, 7991, Note_on_c, 5, 66, 0
7, 8040, Note_on_c, 5, 62, 64
7, 8111, Note_on_c, 5, 62, 0
7, 8160, Note_on_c, 5, 59, 64
7, 8231, Note_on_c, 5, 59, 0
7, 8280, Note_on_c, 5, 68, 64
7, 8351, Note_on_c, 5, 68, 0
7, 8400, Note_on_c, 5, 69, 64
7, 8640, Note_on_c, 5, 69, 0
7, 8760, Note_on_c, 5, 57, 64
7, 8831, Note_on_c, 5, 57, 0
7, 8880, Note_on_c, 5, 59, 64
7, 8940, Note_on_c, 5, 59, 0
7, 8940, Note_on_c, 5, 62, 64
7, 9000, Note_on_c, 5, 62, 0
7, 9000, Note_on_c, 5, 64, 64
7, 9060, Note_on_c, 5, 64, 0
7, 9060, Note_on_c, 5, 66, 64
7, 9120, Note_on_c, 5, 66, 0
7, 9120, Note_on_c, 5, 67, 64
7, 9431, Note_on_c, 5, 67, 0
7, 9480, Note_on_c, 5, 66, 64
7, 9671, Note_on_c, 5, 66, 0
7, 9720, Note_on_c, 5, 71, 64
7, 9791, Note_on_c, 5, 71, 0
7, 9840, Note_on_c, 5, 69, 64
7, 9911, Note_on_c, 5, 69, 0
7, 9960, Note_on_c, 5, 62, 64
7, 10151, Note_on_c, 5, 62, 0
7, 10200, Note_on_c, 5, 61, 64
7, 10271, Note_on_c, 5, 61, 0
7, 10320, Note_on_c, 5, 62, 64
7, 10380, Note_on_c, 5, 62, 0
7, 10380, Note_on_c, 5, 64, 64
7, 10440, Note_on_c, 5, 64, 0
7, 10440, Note_on_c, 5, 66, 64
7, 10500, Note_on_c, 5, 66, 0
7, 10500, Note_on_c, 5, 62, 64
7, 10560, Note_on_c, 5, 62, 0
7, 10560, Note_on_c, 5, 57, 64
7, 10860, Note_on_c, 5, 57, 0
7, 10860, Note_on_c, 5, 61, 64
7, 10920, Note_on_c, 5, 61, 0
7, 10920, Note_on_c, 5, 62, 64
7, 10980, Note_on_c, 5, 62, 0
7, 10980, Note_on_c, 5, 64, 64
7, 11040, Note_on_c, 5, 64, 0
7, 11040, Note_on_c, 5, 66, 64
7, 11280, Note_on_c, 5, 66, 0
7, 11280, Note_on_c, 5, 64, 64
7, 11340, Note_on_c, 5, 64, 0
7, 11340, Note_on_c, 5, 68, 64
7, 11400, Note_on_c, 5, 68, 0
7, 11400, Note_on_c, 5, 69, 64
7, 11460, Note_on_c, 5, 69, 0
7, 11460, Note_on_c, 5, 71, 64
7, 11520, Note_on_c, 5, 71, 0
7, 11520, Note_on_c, 5, 73, 64
7, 11580, Note_on_c, 5, 73, 0
7, 11580, Note_on_c, 5, 74, 64
7, 11640, Note_on_c, 5, 74, 0
7, 11640, Note_on_c, 5, 73, 64
7, 11700, Note_on_c, 5, 73, 0
7, 11700, Note_on_c, 5, 71, 64
7, 11760, Note_on_c, 5, 71, 0
7, 11760, Note_on_c, 5, 73, 64
7, 11831, Note_on_c, 5, 73, 0
7, 11880, Note_on_c, 5, 64, 64
7, 11951, Note_on_c, 5, 64, 0
7, 12000, Note_on_c, 5, 66, 64
7, 12071, Note_on_c, 5, 66, 0
7, 12120, Note_on_c, 5, 62, 64
7, 12191, Note_on_c, 5, 62, 0
7, 12240, Note_on_c, 5, 64, 64
7, 12311, Note_on_c, 5, 64, 0
7, 12360, Note_on_c, 5, 66, 64
7, 12420, Note_on_c, 5, 66, 0
7, 12420, Note_on_c, 5, 67, 64
7, 12480, Note_on_c, 5, 67, 0
7, 12480, Note_on_c, 5, 69, 64
7, 12791, Note_on_c, 5, 69, 0
7, 12840, Note_on_c, 5, 67, 64
7, 12900, Note_on_c, 5, 67, 0
7, 12900, Note_on_c, 5, 69, 64
7, 12960, Note_on_c, 5, 69, 0
7, 12960, Note_on_c, 5, 71, 64
7, 13020, Note_on_c, 5, 71, 0
7, 13020, Note_on_c, 5, 69, 64
7, 13080, Note_on_c, 5, 69, 0
7, 13080, Note_on_c, 5, 67, 64
7, 13140, Note_on_c, 5, 67, 0
7, 13140, Note_on_c, 5, 66, 64
7, 13200, Note_on_c, 5, 66, 0
7, 13200, Note_on_c, 5, 64, 64
7, 13271, Note_on_c, 5, 64, 0
7, 13320, Note_on_c, 5, 66, 64
7, 13380, Note_on_c, 5, 66, 0
7, 13380, Note_on_c, 5, 67, 64
7, 13440, Note_on_c, 5, 67, 0
7, 13440, Note_on_c, 5, 69, 64
7, 13511, Note_on_c, 5, 69, 0
7, 13560, Note_on_c, 5, 71, 64
7, 13631, Note_on_c, 5, 71, 0
7, 13680, Note_on_c, 5, 64, 64
7, 13751, Note_on_c, 5, 64, 0
7, 13800, Note_on_c, 5, 66, 64
7, 13860, Note_on_c, 5, 66, 0
7, 13860, Note_on_c, 5, 67, 64
7, 13920, Note_on_c, 5, 67, 0
7, 13920, Note_on_c, 5, 69, 64
7, 14220, Note_on_c, 5, 69, 0
7, 14220, Note_on_c, 5, 62, 64
7, 14280, Note_on_c, 5, 62, 0
7, 14280, Note_on_c, 5, 64, 64
7, 14340, Note_on_c, 5, 64, 0
7, 14340, Note_on_c, 5, 66, 64
7, 14400, Note_on_c, 5, 66, 0
7, 14400, Note_on_c, 5, 67, 64
7, 14700, Note_on_c, 5, 67, 0
7, 14700, Note_on_c, 5, 64, 64
7, 14760, Note_on_c, 5, 64, 0
7, 14760, Note_on_c, 5, 66, 64
7, 14820, Note_on_c, 5, 66, 0
7, 14820, Note_on_c, 5, 67, 64
7, 14880, Note_on_c, 5, 67, 0
7, 14880, Note_on_c, 5, 69, 64
7, 15180, Note_on_c, 5, 69, 0
7, 15180, Note_on_c, 5, 72, 64
7, 15240, Note_on_c, 5, 72, 0
7, 15240, Note_on_c, 5, 71, 64
7, 15300, Note_on_c, 5, 71, 0
7, 15300, Note_on_c, 5, 69, 64
7, 15360, Note_on_c, 5, 69, 0
7, 15360, Note_on_c, 5, 67, 64
7, 15420, Note_on_c, 5, 67, 0
7, 15420, Note_on_c, 5, 66, 64
7, 15480, Note_on_c, 5, 66, 0
7, 15480, Note_on_c, 5, 67, 64
7, 15540, Note_on_c, 5, 67, 0
7, 15540, Note_on_c, 5, 69, 64
7, 15600, Note_on_c, 5, 69, 0
7, 15600, Note_on_c, 5, 62, 64
7, 15660, Note_on_c, 5, 62, 0
7, 15660, Note_on_c, 5, 67, 64
7, 15720, Note_on_c, 5, 67, 0
7, 15720, Note_on_c, 5, 66, 64
7, 15780, Note_on_c, 5, 66, 0
7, 15780, Note_on_c, 5, 64, 64
7, 15840, Note_on_c, 5, 64, 0
7, 15840, Note_on_c, 5, 72, 64
7, 15911, Note_on_c, 5, 72, 0
7, 15960, Note_on_c, 5, 71, 64
7, 16151, Note_on_c, 5, 71, 0
7, 16200, Note_on_c, 5, 72, 64
7, 16260, Note_on_c, 5, 72, 0
7, 16260, Note_on_c, 5, 71, 64
7, 16320, Note_on_c, 5, 71, 0
7, 16320, Note_on_c, 5, 69, 64
7, 16440, Note_on_c, 5, 69, 0
7, 16440, Note_on_c, 5, 63, 64
7, 16511, Note_on_c, 5, 63, 0
7, 16560, Note_on_c, 5, 64, 64
7, 16920, Note_on_c, 5, 64, 0
7, 16920, Note_on_c, 5, 72, 64
7, 16991, Note_on_c, 5, 72, 0
7, 17040, Note_on_c, 5, 66, 64
7, 17111, Note_on_c, 5, 66, 0
7, 17160, Note_on_c, 5, 67, 64
7, 17220, Note_on_c, 5, 67, 0
7, 17220, Note_on_c, 5, 69, 64
7, 17280, Note_on_c, 5, 69, 0
7, 17280, Note_on_c, 5, 71, 64
7, 17340, Note_on_c, 5, 71, 0
7, 17340, Note_on_c, 5, 69, 64
7, 17400, Note_on_c, 5, 69, 0
7, 17400, Note_on_c, 5, 71, 64
7, 17460, Note_on_c, 5, 71, 0
7, 17460, Note_on_c, 5, 72, 64
7, 17520, Note_on_c, 5, 72, 0
7, 17520, Note_on_c, 5, 66, 64
7, 18000, Note_on_c, 5, 66, 0
7, 18000, Note_on_c, 5, 64, 64
7, 19031, Note_on_c, 5, 64, 0
7, 20520, Note_on_c, 5, 69, 64
7, 20591, Note_on_c, 5, 69, 0
7, 20640, Note_on_c, 5, 69, 64
7, 20711, Note_on_c, 5, 69, 0
7, 20760, Note_on_c, 5, 69, 64
7, 20831, Note_on_c, 5, 69, 0
7, 20880, Note_on_c, 5, 66, 64
7, 20951, Note_on_c, 5, 66, 0
7, 21000, Note_on_c, 5, 69, 64
7, 21071, Note_on_c, 5, 69, 0
7, 21120, Note_on_c, 5, 73, 64
7, 21360, Note_on_c, 5, 73, 0
7, 21360, Note_on_c, 5, 62, 64
7, 21431, Note_on_c, 5, 62, 0
7, 21480, Note_on_c, 5, 74, 64
7, 21551, Note_on_c, 5, 74, 0
7, 21600, Note_on_c, 5, 71, 64
7, 21671, Note_on_c, 5, 71, 0
7, 21720, Note_on_c, 5, 66, 64
7, 21791, Note_on_c, 5, 66, 0
7, 21840, Note_on_c, 5, 68, 64
7, 21960, Note_on_c, 5, 68, 0
7, 21960, Note_on_c, 5, 64, 64
7, 22031, Note_on_c, 5, 64, 0
7, 22080, Note_on_c, 5, 69, 64
7, 22151, Note_on_c, 5, 69, 0
7, 22200, Note_on_c, 5, 62, 64
7, 22271, Note_on_c, 5, 62, 0
7, 22320, Note_on_c, 5, 61, 64
7, 22560, Note_on_c, 5, 61, 0
7, 22560, Note_on_c, 5, 59, 64
7, 22800, Note_on_c, 5, 59, 0
7, 22800, Note_on_c, 5, 57, 64
7, 23040, Note_on_c, 5, 57, 0
7, 23160, Note_on_c, 5, 57, 64
7, 23231, Note_on_c, 5, 57, 0
7, 23280, Note_on_c, 5, 59, 64
7, 23340, Note_on_c, 5, 59, 0
7, 23340, Note_on_c, 5, 62, 64
7, 23400, Note_on_c, 5, 62, 0
7, 23400, Note_on_c, 5, 64, 64
7, 23460, Note_on_c, 5, 64, 0
7, 23460, Note_on_c, 5, 66, 64
7, 23520, Note_on_c, 5, 66, 0
7, 23520, Note_on_c, 5, 67, 64
7, 23831, Note_on_c, 5, 67, 0
7, 23880, Note_on_c, 5, 66, 64
7, 24071, Note_on_c, 5, 66, 0
7, 24120, Note_on_c, 5, 71, 64
7, 24191, Note_on_c, 5, 71, 0
7, 24240, Note_on_c, 5, 69, 64
7, 24311, Note_on_c, 5, 69, 0
7, 24360, Note_on_c, 5, 62, 64
7, 24600, Note_on_c, 5, 62, 0
7, 24600, Note_on_c, 5, 61, 64
7, 24671, Note_on_c, 5, 61, 0
7, 24720, Note_on_c, 5, 62, 64
7, 24960, Note_on_c, 5, 62, 0
7, 25080, Note_on_c, 5, 74, 64
7, 25271, Note_on_c, 5, 74, 0
7, 25320, Note_on_c, 5, 72, 64
7, 25380, Note_on_c, 5, 72, 0
7, 25380, Note_on_c, 5, 71, 64
7, 25440, Note_on_c, 5, 71, 0
7, 25440, Note_on_c, 5, 72, 64
7, 25511, Note_on_c, 5, 72, 0
7, 25560, Note_on_c, 5, 67, 64
7, 25631, Note_on_c, 5, 67, 0
7, 25680, Note_on_c, 5, 69, 64
7, 25751, Note_on_c, 5, 69, 0
7, 25800, Note_on_c, 5, 66, 64
7, 25871, Note_on_c, 5, 66, 0
7, 25920, Note_on_c, 5, 62, 64
7, 25991, Note_on_c, 5, 62, 0
7, 26040, Note_on_c, 5, 60, 64
7, 26100, Note_on_c, 5, 60, 0
7, 26100, Note_on_c, 5, 59, 64
7, 26160, Note_on_c, 5, 59, 0
7, 26160, Note_on_c, 5, 57, 64
7, 26280, Note_on_c, 5, 57, 0
7, 26280, Note_on_c, 5, 62, 64
7, 26400, Note_on_c, 5, 62, 0
7, 26400, Note_on_c, 5, 64, 64
7, 26471, Note_on_c, 5, 64, 0
7, 26520, Note_on_c, 5, 69, 64
7, 26591, Note_on_c, 5, 69, 0
7, 26640, Note_on_c, 5, 63, 64
7, 26711, Note_on_c, 5, 63, 0
7, 26760, Note_on_c, 5, 64, 64
7, 26820, Note_on_c, 5, 64, 0
7, 26820, Note_on_c, 5, 66, 64
7, 26880, Note_on_c, 5, 66, 0
7, 26880, Note_on_c, 5, 64, 64
7, 26940, Note_on_c, 5, 64, 0
7, 26940, Note_on_c, 5, 66, 64
7, 27000, Note_on_c, 5, 66, 0
7, 27000, Note_on_c, 5, 67, 64
7, 27060, Note_on_c, 5, 67, 0
7, 27060, Note_on_c, 5, 64, 64
7, 27120, Note_on_c, 5, 64, 0
7, 27120, Note_on_c, 5, 69, 64
7, 27480, Note_on_c, 5, 69, 0
7, 27480, Note_on_c, 5, 67, 64
7, 27540, Note_on_c, 5, 67, 0
7, 27540, Note_on_c, 5, 66, 64
7, 27600, Note_on_c, 5, 66, 0
7, 27600, Note_on_c, 5, 67, 64
7, 27671, Note_on_c, 5, 67, 0
7, 27720, Note_on_c, 5, 66, 64
7, 27780, Note_on_c, 5, 66, 0
7, 27780, Note_on_c, 5, 64, 64
7, 27840, Note_on_c, 5, 64, 0
7, 27840, Note_on_c, 5, 66, 64
7, 28080, Note_on_c, 5, 66, 0
7, 28080, Note_on_c, 5, 67, 64
7, 28320, Note_on_c, 5, 67, 0
7, 28440, Note_on_c, 5, 71, 64
7, 28511, Note_on_c, 5, 71, 0
7, 28560, Note_on_c, 5, 73, 64
7, 28631, Note_on_c, 5, 73, 0
7, 28680, Note_on_c, 5, 69, 64
7, 28920, Note_on_c, 5, 69, 0
7, 28920, Note_on_c, 5, 74, 64
7, 28991, Note_on_c, 5, 74, 0
7, 29040, Note_on_c, 5, 67, 64
7, 29400, Note_on_c, 5, 67, 0
7, 29400, Note_on_c, 5, 66, 64
7, 29460, Note_on_c, 5, 66, 0
7, 29460, Note_on_c, 5, 64, 64
7, 29520, Note_on_c, 5, 64, 0
7, 29520, Note_on_c, 5, 66, 64
7, 29880, Note_on_c, 5, 66, 0
7, 29880, Note_on_c, 5, 68, 64
7, 29940, Note_on_c, 5, 68, 0
7, 29940, Note_on_c, 5, 69, 64
7, 30000, Note_on_c, 5, 69, 0
7, 30000, Note_on_c, 5, 71, 64
7, 30060, Note_on_c, 5, 71, 0
7, 30060, Note_on_c, 5, 68, 64
7, 30120, Note_on_c, 5, 68, 0
7, 30120, Note_on_c, 5, 69, 64
7, 30180, Note_on_c, 5, 69, 0
7, 30180, Note_on_c, 5, 71, 64
7, 30240, Note_on_c, 5, 71, 0
7, 30240, Note_on_c, 5, 64, 64
7, 30311, Note_on_c, 5, 64, 0
7, 30360, Note_on_c, 5, 69, 64
7, 30551, Note_on_c, 5, 69, 0
7, 30600, Note_on_c, 5, 71, 64
7, 30660, Note_on_c, 5, 71, 0
7, 30660, Note_on_c, 5, 69, 64
7, 30720, Note_on_c, 5, 69, 0
7, 30720, Note_on_c, 5, 68, 64
7, 30780, Note_on_c, 5, 68, 0
7, 30780, Note_on_c, 5, 69, 64
7, 30840, Note_on_c, 5, 69, 0
7, 30840, Note_on_c, 5, 66, 64
7, 30900, Note_on_c, 5, 66, 0
7, 30900, Note_on_c, 5, 68, 64
7, 30960, Note_on_c, 5, 68, 0
7, 30960, Note_on_c, 5, 69, 64
7, 31031, Note_on_c, 5, 69, 0
7, 31080, Note_on_c, 5, 73, 64
7, 31151, Note_on_c, 5, 73, 0
7, 31200, Note_on_c, 5, 74, 64
7, 31440, Note_on_c, 5, 74, 0
7, 31440, Note_on_c, 5, 71, 64
7, 31740, Note_on_c, 5, 71, 0
7, 31740, Note_on_c, 5, 73, 64
7, 31800, Note_on_c, 5, 73, 0
7, 31800, Note_on_c, 5, 69, 64
7, 31860, Note_on_c, 5, 69, 0
7, 31860, Note_on_c, 5, 71, 64
7, 31920, Note_on_c, 5, 71, 0
7, 31920, Note_on_c, 5, 64, 64
7, 32040, Note_on_c, 5, 64, 0
7, 32040, Note_on_c, 5, 66, 64
7, 32111, Note_on_c, 5, 66, 0
7, 32160, Note_on_c, 5, 62, 64
7, 32231, Note_on_c, 5, 62, 0
7, 32280, Note_on_c, 5, 62, 64
7, 32351, Note_on_c, 5, 62, 0
7, 32400, Note_on_c, 5, 62, 64
7, 32640, Note_on_c, 5, 62, 0
7, 32640, Note_on_c, 5, 61, 64
7, 32880, Note_on_c, 5, 61, 0
7, 32880, Note_on_c, 5, 62, 35
7, 33120, Note_on_c, 5, 62, 0
7, 33240, Note_on_c, 5, 62, 45
7, 33311, Note_on_c, 5, 62, 0
7, 33360, Note_on_c, 5, 69, 48
7, 33431, Note_on_c, 5, 69, 0
7, 33480, Note_on_c, 5, 67, 52
7, 33540, Note_on_c, 5, 67, 0
7, 33540, Note_on_c, 5, 66, 53
7, 33600, Note_on_c, 5, 66, 0
7, 33600, Note_on_c, 5, 67, 55
7, 33671, Note_on_c, 5, 67, 0
7, 33720, Note_on_c, 5, 64, 58
7, 33791, Note_on_c, 5, 64, 0
7, 33840, Note_on_c, 5, 66, 62
7, 34080, Note_on_c, 5, 66, 0
7, 34440, Note_on_c, 5, 74, 70
7, 34500, Note_on_c, 5, 74, 0
7, 34500, Note_on_c, 5, 72, 70
7, 34560, Note_on_c, 5, 72, 0
7, 34560, Note_on_c, 5, 71, 70
7, 34631, Note_on_c, 5, 71, 0
7, 34920, Note_on_c, 5, 69, 70
7, 34991, Note_on_c, 5, 69, 0
7, 35040, Note_on_c, 5, 74, 70
7, 35351, Note_on_c, 5, 74, 0
7, 35400, Note_on_c, 5, 73, 70
7, 35471, Note_on_c, 5, 73, 0
7, 35520, Note_on_c, 5, 74, 70
7, 35580, Note_on_c, 5, 74, 0
7, 35580, Note_on_c, 5, 71, 70
7, 35640, Note_on_c, 5, 71, 0
7, 35640, Note_on_c, 5, 69, 70
7, 35700, Note_on_c, 5, 69, 0
7, 35700, Note_on_c, 5, 67, 70
7, 35760, Note_on_c, 5, 67, 0
7, 35760, Note_on_c, 5, 66, 70
7, 35820, Note_on_c, 5, 66, 0
7, 35820, Note_on_c, 5, 64, 70
7, 35880, Note_on_c, 5, 64, 0
7, 35880, Note_on_c, 5, 66, 70
7, 35940, Note_on_c, 5, 66, 0
7, 35940, Note_on_c, 5, 68, 70
7, 36000, Note_on_c, 5, 68, 0
7, 36000, Note_on_c, 5, 69, 70
7, 36311, Note_on_c, 5, 69, 0
7, 36360, Note_on_c, 5, 67, 70
7, 36420, Note_on_c, 5, 67, 0
7, 36420, Note_on_c, 5, 66, 70
7, 36480, Note_on_c, 5, 66, 0
7, 36480, Note_on_c, 5, 64, 70
7, 36540, Note_on_c, 5, 64, 0
7, 36540, Note_on_c, 5, 66, 70
7, 36600, Note_on_c, 5, 66, 0
7, 36600, Note_on_c, 5, 67, 70
7, 36660, Note_on_c, 5, 67, 0
7, 36660, Note_on_c, 5, 69, 70
7, 36720, Note_on_c, 5, 69, 0
7, 36720, Note_on_c, 5, 62, 70
7, 36791, Note_on_c, 5, 62, 0
7, 36840, Note_on_c, 5, 64, 70
7, 37020, Note_on_c, 5, 64, 0
7, 37020, Note_on_c, 5, 66, 70
7, 37080, Note_on_c, 5, 66, 0
7, 37080, Note_on_c, 5, 67, 70
7, 37140, Note_on_c, 5, 67, 0
7, 37140, Note_on_c, 5, 64, 70
7, 37200, Note_on_c, 5, 64, 0
7, 37200, Note_on_c, 5, 69, 64
7, 37500, Note_on_c, 5, 69, 0
7, 37500, Note_on_c, 5, 62, 66
7, 37560, Note_on_c, 5, 62, 0
7, 37560, Note_on_c, 5, 64, 66
7, 37620, Note_on_c, 5, 64, 0
7, 37620, Note_on_c, 5, 66, 67
7, 37680, Note_on_c, 5, 66, 0
7, 37680, Note_on_c, 5, 67, 67
7, 37740, Note_on_c, 5, 67, 0
7, 37740, Note_on_c, 5, 66, 68
7, 37800, Note_on_c, 5, 66, 0
7, 37800, Note_on_c, 5, 67, 68
7, 37860, Note_on_c, 5, 67, 0
7, 37860, Note_on_c, 5, 69, 68
7, 37920, Note_on_c, 5, 69, 0
7, 37920, Note_on_c, 5, 66, 69
7, 37980, Note_on_c, 5, 66, 0
7, 37980, Note_on_c, 5, 67, 69
7, 38040, Note_on_c, 5, 67, 0
7, 38040, Note_on_c, 5, 66, 70
7, 38100, Note_on_c, 5, 66, 0
7, 38100, Note_on_c, 5, 64, 70
7, 38160, Note_on_c, 5, 64, 0
7, 38160, Note_on_c, 5, 62, 70
7, 38231, Note_on_c, 5, 62, 0
7, 38280, Note_on_c, 5, 74, 71
7, 38460, Note_on_c, 5, 74, 0
7, 38460, Note_on_c, 5, 73, 72
7, 38520, Note_on_c, 5, 73, 0
7, 38520, Note_on_c, 5, 74, 73
7, 38580, Note_on_c, 5, 74, 0
7, 38580, Note_on_c, 5, 76, 73
7, 38640, Note_on_c, 5, 76, 0
7, 38640, Note_on_c, 5, 78, 74
7, 39000, Note_on_c, 5, 78, 0
7, 39000, Note_on_c, 5, 76, 76
7, 39071, Note_on_c, 5, 76, 0
7, 39120, Note_on_c, 5, 74, 77
7, 39180, Note_on_c, 5, 74, 0
7, 39180, Note_on_c, 5, 73, 77
7, 39240, Note_on_c, 5, 73, 0
7, 39240, Note_on_c, 5, 74, 78
7, 39300, Note_on_c, 5, 74, 0
7, 39300, Note_on_c, 5, 76, 78
7, 39360, Note_on_c, 5, 76, 0
7, 39360, Note_on_c, 5, 78, 78
7, 39431, Note_on_c, 5, 78, 0
7, 39480, Note_on_c, 5, 74, 79
7, 39551, Note_on_c, 5, 74, 0
7, 39600, Note_on_c, 5, 74, 90
7, 39840, Note_on_c, 5, 74, 0
7, 39840, Note_on_c, 5, 74, 90
7, 39855, Note_on_c, 5, 74, 0
7, 39855, Note_on_c, 5, 73, 90
7, 39870, Note_on_c, 5, 73, 0
7, 39870, Note_on_c, 5, 74, 90
7, 39885, Note_on_c, 5, 74, 0
7, 39885, Note_on_c, 5, 73, 90
7, 39900, Note_on_c, 5, 73, 0
7, 39900, Note_on_c, 5, 74, 90
7, 39915, Note_on_c, 5, 74, 0
7, 39915, Note_on_c, 5, 73, 90
7, 39930, Note_on_c, 5, 73, 0
7, 39930, Note_on_c, 5, 74, 90
7, 39945, Note_on_c, 5, 74, 0
7, 39945, Note_on_c, 5, 73, 90
7, 39960, Note_on_c, 5, 73, 0
7, 39960, Note_on_c, 5, 74, 90
7, 39975, Note_on_c, 5, 74, 0
7, 39975, Note_on_c, 5, 73, 90
7, 39990, Note_on_c, 5, 73, 0
7, 39990, Note_on_c, 5, 74, 90
7, 40005, Note_on_c, 5, 74, 0
7, 40005, Note_on_c, 5, 73, 90
7, 40020, Note_on_c, 5, 73, 0
7, 40020, Note_on_c, 5, 74, 90
7, 40035, Note_on_c, 5, 74, 0
7, 40035, Note_on_c, 5, 73, 90
7, 40050, Note_on_c, 5, 73, 0
7, 40050, Note_on_c, 5, 71, 90
7, 40065, Note_on_c, 5, 71, 0
7, 40065, Note_on_c, 5, 73, 90
7, 40080, Note_on_c, 5, 73, 0
7, 40080, Note_on_c, 5, 69, 90
7, 40560, Note_on_c, 5, 69, 0
7, 41040, End_track
8, 0, Start_track
8, 0, MIDI_port, 0
8, 0, Title_t, "Viola"
8, 0, Program_c, 6, 48
8, 0, Control_c, 6, 91, 127
8, 240, Control_c, 6, 7, 90
8, 360, Note_on_c, 6, 69, 64
8, 431, Note_on_c, 6, 69, 0
8, 480, Note_on_c, 6, 64, 64
8, 551, Note_on_c, 6, 64, 0
8, 600, Note_on_c, 6, 61, 64
8, 671, Note_on_c, 6, 61, 0
8, 840, Note_on_c, 6, 62, 64
8, 911, Note_on_c, 6, 62, 0
8, 960, Note_on_c, 6, 61, 64
8, 1031, Note_on_c, 6, 61, 0
8, 1080, Note_on_c, 6, 64, 64
8, 1151, Note_on_c, 6, 64, 0
8, 1200, Note_on_c, 6, 62, 64
8, 1271, Note_on_c, 6, 62, 0
8, 1320, Note_on_c, 6, 57, 64
8, 1391, Note_on_c, 6, 57, 0
8, 2760, Note_on_c, 6, 61, 64
8, 2831, Note_on_c, 6, 61, 0
8, 2880, Note_on_c, 6, 64, 64
8, 2951, Note_on_c, 6, 64, 0
8, 3000, Note_on_c, 6, 69, 64
8, 3071, Note_on_c, 6, 69, 0
8, 3240, Note_on_c, 6, 62, 64
8, 3311, Note_on_c, 6, 62, 0
8, 3360, Note_on_c, 6, 62, 64
8, 3431, Note_on_c, 6, 62, 0
8, 3480, Note_on_c, 6, 62, 64
8, 3551, Note_on_c, 6, 62, 0
8, 3600, Note_on_c, 6, 61, 64
8, 3671, Note_on_c, 6, 61, 0
8, 3720, Note_on_c, 6, 64, 64
8, 3791, Note_on_c, 6, 64, 0
8, 3840, Note_on_c, 6, 66, 64
8, 4080, Note_on_c, 6, 66, 0
8, 4080, Note_on_c, 6, 55, 64
8, 4151, Note_on_c, 6, 55, 0
8, 4200, Note_on_c, 6, 67, 64
8, 4271, Note_on_c, 6, 67, 0
8, 4320, Note_on_c, 6, 64, 64
8, 4391, Note_on_c, 6, 64, 0
8, 4440, Note_on_c, 6, 59, 64
8, 4511, Note_on_c, 6, 59, 0
8, 4560, Note_on_c, 6, 61, 64
8, 4680, Note_on_c, 6, 61, 0
8, 4680, Note_on_c, 6, 57, 64
8, 4751, Note_on_c, 6, 57, 0
8, 4800, Note_on_c, 6, 62, 64
8, 4871, Note_on_c, 6, 62, 0
8, 4920, Note_on_c, 6, 55, 64
8, 4991, Note_on_c, 6, 55, 0
8, 5040, Note_on_c, 6, 54, 64
8, 5280, Note_on_c, 6, 54, 0
8, 5280, Note_on_c, 6, 52, 64
8, 5520, Note_on_c, 6, 52, 0
8, 5520, Note_on_c, 6, 50, 64
8, 5760, Note_on_c, 6, 50, 0
8, 5880, Note_on_c, 6, 52, 64
8, 5951, Note_on_c, 6, 52, 0
8, 6000, Note_on_c, 6, 54, 64
8, 6060, Note_on_c, 6, 54, 0
8, 6060, Note_on_c, 6, 57, 64
8, 6120, Note_on_c, 6, 57, 0
8, 6120, Note_on_c, 6, 59, 64
8, 6180, Note_on_c, 6, 59, 0
8, 6180, Note_on_c, 6, 61, 64
8, 6240, Note_on_c, 6, 61, 0
8, 6240, Note_on_c, 6, 62, 64
8, 6551, Note_on_c, 6, 62, 0
8, 6600, Note_on_c, 6, 61, 64
8, 6791, Note_on_c, 6, 61, 0
8, 6840, Note_on_c, 6, 66, 64
8, 6911, Note_on_c, 6, 66, 0
8, 6960, Note_on_c, 6, 64, 64
8, 7031, Note_on_c, 6, 64, 0
8, 7080, Note_on_c, 6, 57, 64
8, 7271, Note_on_c, 6, 57, 0
8, 7320, Note_on_c, 6, 56, 64
8, 7391, Note_on_c, 6, 56, 0
8, 7440, Note_on_c, 6, 57, 64
8, 7500, Note_on_c, 6, 57, 0
8, 7500, Note_on_c, 6, 52, 64
8, 7560, Note_on_c, 6, 52, 0
8, 7560, Note_on_c, 6, 57, 64
8, 7620, Note_on_c, 6, 57, 0
8, 7620, Note_on_c, 6, 59, 64
8, 7680, Note_on_c, 6, 59, 0
8, 7680, Note_on_c, 6, 61, 64
8, 7991, Note_on_c, 6, 61, 0
8, 8040, Note_on_c, 6, 59, 64
8, 8100, Note_on_c, 6, 59, 0
8, 8100, Note_on_c, 6, 57, 64
8, 8160, Note_on_c, 6, 57, 0
8, 8160, Note_on_c, 6, 56, 64
8, 8231, Note_on_c, 6, 56, 0
8, 8280, Note_on_c, 6, 52, 64
8, 8351, Note_on_c, 6, 52, 0
8, 8400, Note_on_c, 6, 57, 64
8, 8460, Note_on_c, 6, 57, 0
8, 8460, Note_on_c, 6, 59, 64
8, 8520, Note_on_c, 6, 59, 0
8, 8520, Note_on_c, 6, 61, 64
8, 8580, Note_on_c, 6, 61, 0
8, 8580, Note_on_c, 6, 57, 64
8, 8640, Note_on_c, 6, 57, 0
8, 8640, Note_on_c, 6, 62, 64
8, 8940, Note_on_c, 6, 62, 0
8, 8940, Note_on_c, 6, 59, 64
8, 9000, Note_on_c, 6, 59, 0
8, 9000, Note_on_c, 6, 61, 64
8, 9060, Note_on_c, 6, 61, 0
8, 9060, Note_on_c, 6, 62, 64
8, 9120, Note_on_c, 6, 62, 0
8, 9120, Note_on_c, 6, 64, 64
8, 9431, Note_on_c, 6, 64, 0
8, 9480, Note_on_c, 6, 62, 64
8, 9540, Note_on_c, 6, 62, 0
8, 9540, Note_on_c, 6, 61, 64
8, 9600, Note_on_c, 6, 61, 0
8, 9600, Note_on_c, 6, 59, 64
8, 9660, Note_on_c, 6, 59, 0
8, 9660, Note_on_c, 6, 57, 64
8, 9720, Note_on_c, 6, 57, 0
8, 9720, Note_on_c, 6, 59, 64
8, 9780, Note_on_c, 6, 59, 0
8, 9780, Note_on_c, 6, 61, 64
8, 9840, Note_on_c, 6, 61, 0
8, 9840, Note_on_c, 6, 62, 64
8, 9911, Note_on_c, 6, 62, 0
8, 9960, Note_on_c, 6, 54, 64
8, 10020, Note_on_c, 6, 54, 0
8, 10020, Note_on_c, 6, 55, 64
8, 10080, Note_on_c, 6, 55, 0
8, 10080, Note_on_c, 6, 57, 64
8, 10320, Note_on_c, 6, 57, 0
8, 10320, Note_on_c, 6, 57, 64
8, 10391, Note_on_c, 6, 57, 0
8, 10440, Note_on_c, 6, 69, 64
8, 10680, Note_on_c, 6, 69, 0
8, 10680, Note_on_c, 6, 64, 64
8, 10871, Note_on_c, 6, 64, 0
8, 10920, Note_on_c, 6, 66, 64
8, 10980, Note_on_c, 6, 66, 0
8, 10980, Note_on_c, 6, 64, 64
8, 11040, Note_on_c, 6, 64, 0
8, 11040, Note_on_c, 6, 62, 64
8, 11100, Note_on_c, 6, 62, 0
8, 11100, Note_on_c, 6, 61, 64
8, 11160, Note_on_c, 6, 61, 0
8, 11160, Note_on_c, 6, 59, 64
8, 11220, Note_on_c, 6, 59, 0
8, 11220, Note_on_c, 6, 57, 64
8, 11280, Note_on_c, 6, 57, 0
8, 11280, Note_on_c, 6, 59, 64
8, 11351, Note_on_c, 6, 59, 0
8, 11400, Note_on_c, 6, 57, 64
8, 11460, Note_on_c, 6, 57, 0
8, 11460, Note_on_c, 6, 56, 64
8, 11520, Note_on_c, 6, 56, 0
8, 11520, Note_on_c, 6, 57, 64
8, 11820, Note_on_c, 6, 57, 0
8, 11820, Note_on_c, 6, 59, 64
8, 11880, Note_on_c, 6, 59, 0
8, 11880, Note_on_c, 6, 61, 64
8, 11940, Note_on_c, 6, 61, 0
8, 11940, Note_on_c, 6, 57, 64
8, 12000, Note_on_c, 6, 57, 0
8, 12000, Note_on_c, 6, 62, 64
8, 12060, Note_on_c, 6, 62, 0
8, 12060, Note_on_c, 6, 61, 64
8, 12120, Note_on_c, 6, 61, 0
8, 12120, Note_on_c, 6, 59, 64
8, 12180, Note_on_c, 6, 59, 0
8, 12180, Note_on_c, 6, 62, 64
8, 12240, Note_on_c, 6, 62, 0
8, 12240, Note_on_c, 6, 61, 64
8, 12311, Note_on_c, 6, 61, 0
8, 12360, Note_on_c, 6, 57, 64
8, 12431, Note_on_c, 6, 57, 0
8, 12600, Note_on_c, 6, 62, 64
8, 12791, Note_on_c, 6, 62, 0
8, 12840, Note_on_c, 6, 59, 64
8, 13080, Note_on_c, 6, 59, 0
8, 13080, Note_on_c, 6, 64, 64
8, 13260, Note_on_c, 6, 64, 0
8, 13260, Note_on_c, 6, 61, 64
8, 13320, Note_on_c, 6, 61, 0
8, 13320, Note_on_c, 6, 62, 64
8, 13380, Note_on_c, 6, 62, 0
8, 13380, Note_on_c, 6, 64, 64
8, 13440, Note_on_c, 6, 64, 0
8, 13440, Note_on_c, 6, 62, 64
8, 13500, Note_on_c, 6, 62, 0
8, 13500, Note_on_c, 6, 66, 64
8, 13560, Note_on_c, 6, 66, 0
8, 13560, Note_on_c, 6, 64, 64
8, 13620, Note_on_c, 6, 64, 0
8, 13620, Note_on_c, 6, 62, 64
8, 13680, Note_on_c, 6, 62, 0
8, 13680, Note_on_c, 6, 61, 64
8, 13751, Note_on_c, 6, 61, 0
8, 13800, Note_on_c, 6, 62, 64
8, 13871, Note_on_c, 6, 62, 0
8, 13920, Note_on_c, 6, 64, 64
8, 13980, Note_on_c, 6, 64, 0
8, 13980, Note_on_c, 6, 66, 64
8, 14040, Note_on_c, 6, 66, 0
8, 14040, Note_on_c, 6, 67, 64
8, 14100, Note_on_c, 6, 67, 0
8, 14100, Note_on_c, 6, 64, 64
8, 14160, Note_on_c, 6, 64, 0
8, 14160, Note_on_c, 6, 66, 64
8, 14231, Note_on_c, 6, 66, 0
8, 14280, Note_on_c, 6, 62, 64
8, 14351, Note_on_c, 6, 62, 0
8, 14760, Note_on_c, 6, 55, 64
8, 14831, Note_on_c, 6, 55, 0
8, 14880, Note_on_c, 6, 60, 64
8, 15191, Note_on_c, 6, 60, 0
8, 15240, Note_on_c, 6, 62, 64
8, 15300, Note_on_c, 6, 62, 0
8, 15300, Note_on_c, 6, 60, 64
8, 15360, Note_on_c, 6, 60, 0
8, 15360, Note_on_c, 6, 59, 64
8, 15431, Note_on_c, 6, 59, 0
8, 15480, Note_on_c, 6, 62, 64
8, 15551, Note_on_c, 6, 62, 0
8, 15600, Note_on_c, 6, 67, 64
8, 15671, Note_on_c, 6, 67, 0
8, 15720, Note_on_c, 6, 69, 64
8, 15780, Note_on_c, 6, 69, 0
8, 15780, Note_on_c, 6, 67, 64
8, 15840, Note_on_c, 6, 67, 0
8, 15840, Note_on_c, 6, 66, 64
8, 15900, Note_on_c, 6, 66, 0
8, 15900, Note_on_c, 6, 64, 64
8, 15960, Note_on_c, 6, 64, 0
8, 15960, Note_on_c, 6, 63, 64
8, 16020, Note_on_c, 6, 63, 0
8, 16020, Note_on_c, 6, 61, 64
8, 16080, Note_on_c, 6, 61, 0
8, 16080, Note_on_c, 6, 59, 64
8, 16140, Note_on_c, 6, 59, 0
8, 16140, Note_on_c, 6, 55, 64
8, 16200, Note_on_c, 6, 55, 0
8, 16200, Note_on_c, 6, 57, 64
8, 16260, Note_on_c, 6, 57, 0
8, 16260, Note_on_c, 6, 59, 64
8, 16320, Note_on_c, 6, 59, 0
8, 16320, Note_on_c, 6, 60, 64
8, 16391, Note_on_c, 6, 60, 0
8, 16440, Note_on_c, 6, 59, 64
8, 16511, Note_on_c, 6, 59, 0
8, 16560, Note_on_c, 6, 52, 64
8, 16631, Note_on_c, 6, 52, 0
8, 16680, Note_on_c, 6, 55, 64
8, 16751, Note_on_c, 6, 55, 0
8, 16800, Note_on_c, 6, 60, 64
8, 17040, Note_on_c, 6, 60, 0
8, 17040, Note_on_c, 6, 59, 64
8, 17400, Note_on_c, 6, 59, 0
8, 17400, Note_on_c, 6, 52, 64
8, 17471, Note_on_c, 6, 52, 0
8, 17520, Note_on_c, 6, 59, 64
8, 18071, Note_on_c, 6, 59, 0
8, 18120, Note_on_c, 6, 56, 64
8, 18191, Note_on_c, 6, 56, 0
8, 18240, Note_on_c, 6, 57, 64
8, 18311, Note_on_c, 6, 57, 0
8, 18360, Note_on_c, 6, 61, 64
8, 18431, Note_on_c, 6, 61, 0
8, 18480, Note_on_c, 6, 59, 64
8, 18551, Note_on_c, 6, 59, 0
8, 18600, Note_on_c, 6, 57, 64
8, 18671, Note_on_c, 6, 57, 0
8, 18720, Note_on_c, 6, 59, 64
8, 18960, Note_on_c, 6, 59, 0
8, 18960, Note_on_c, 6, 57, 64
8, 19031, Note_on_c, 6, 57, 0
8, 22440, Note_on_c, 6, 62, 64
8, 22511, Note_on_c, 6, 62, 0
8, 22560, Note_on_c, 6, 62, 64
8, 22631, Note_on_c, 6, 62, 0
8, 22680, Note_on_c, 6, 62, 64
8, 22751, Note_on_c, 6, 62, 0
8, 22800, Note_on_c, 6, 61, 64
8, 22871, Note_on_c, 6, 61, 0
8, 22920, Note_on_c, 6, 64, 64
8, 22991, Note_on_c, 6, 64, 0
8, 23040, Note_on_c, 6, 66, 64
8, 23280, Note_on_c, 6, 66, 0
8, 23280, Note_on_c, 6, 55, 64
8, 23351, Note_on_c, 6, 55, 0
8, 23400, Note_on_c, 6, 67, 64
8, 23471, Note_on_c, 6, 67, 0
8, 23520, Note_on_c, 6, 64, 64
8, 23591, Note_on_c, 6, 64, 0
8, 23640, Note_on_c, 6, 59, 64
8, 23711, Note_on_c, 6, 59, 0
8, 23760, Note_on_c, 6, 61, 64
8, 23880, Note_on_c, 6, 61, 0
8, 23880, Note_on_c, 6, 57, 64
8, 23951, Note_on_c, 6, 57, 0
8, 24000, Note_on_c, 6, 62, 64
8, 24071, Note_on_c, 6, 62, 0
8, 24120, Note_on_c, 6, 55, 64
8, 24191, Note_on_c, 6, 55, 0
8, 24240, Note_on_c, 6, 54, 64
8, 24480, Note_on_c, 6, 54, 0
8, 24480, Note_on_c, 6, 52, 64
8, 24720, Note_on_c, 6, 52, 0
8, 24720, Note_on_c, 6, 50, 64
8, 24960, Note_on_c, 6, 50, 0
8, 25080, Note_on_c, 6, 55, 64
8, 25271, Note_on_c, 6, 55, 0
8, 25320, Note_on_c, 6, 57, 64
8, 25500, Note_on_c, 6, 57, 0
8, 25500, Note_on_c, 6, 59, 64
8, 25560, Note_on_c, 6, 59, 0
8, 25560, Note_on_c, 6, 60, 64
8, 25751, Note_on_c, 6, 60, 0
8, 25800, Note_on_c, 6, 59, 64
8, 26040, Note_on_c, 6, 59, 0
8, 26040, Note_on_c, 6, 64, 64
8, 26111, Note_on_c, 6, 64, 0
8, 26160, Note_on_c, 6, 62, 64
8, 26231, Note_on_c, 6, 62, 0
8, 26280, Note_on_c, 6, 55, 64
8, 26520, Note_on_c, 6, 55, 0
8, 26520, Note_on_c, 6, 54, 64
8, 26711, Note_on_c, 6, 54, 0
8, 26760, Note_on_c, 6, 52, 64
8, 26831, Note_on_c, 6, 52, 0
8, 26880, Note_on_c, 6, 59, 64
8, 26940, Note_on_c, 6, 59, 0
8, 26940, Note_on_c, 6, 57, 64
8, 27000, Note_on_c, 6, 57, 0
8, 27000, Note_on_c, 6, 59, 64
8, 27060, Note_on_c, 6, 59, 0
8, 27060, Note_on_c, 6, 55, 64
8, 27120, Note_on_c, 6, 55, 0
8, 27120, Note_on_c, 6, 54, 64
8, 27480, Note_on_c, 6, 54, 0
8, 27480, Note_on_c, 6, 62, 64
8, 27551, Note_on_c, 6, 62, 0
8, 27600, Note_on_c, 6, 64, 64
8, 27660, Note_on_c, 6, 64, 0
8, 27660, Note_on_c, 6, 62, 64
8, 27720, Note_on_c, 6, 62, 0
8, 27720, Note_on_c, 6, 60, 64
8, 27780, Note_on_c, 6, 60, 0
8, 27780, Note_on_c, 6, 59, 64
8, 27840, Note_on_c, 6, 59, 0
8, 27840, Note_on_c, 6, 57, 64
8, 27911, Note_on_c, 6, 57, 0
8, 27960, Note_on_c, 6, 62, 64
8, 28140, Note_on_c, 6, 62, 0
8, 28140, Note_on_c, 6, 59, 64
8, 28200, Note_on_c, 6, 59, 0
8, 28200, Note_on_c, 6, 61, 64
8, 28260, Note_on_c, 6, 61, 0
8, 28260, Note_on_c, 6, 62, 64
8, 28320, Note_on_c, 6, 62, 0
8, 28320, Note_on_c, 6, 64, 64
8, 28620, Note_on_c, 6, 64, 0
8, 28620, Note_on_c, 6, 57, 64
8, 28680, Note_on_c, 6, 57, 0
8, 28680, Note_on_c, 6, 59, 64
8, 28740, Note_on_c, 6, 59, 0
8, 28740, Note_on_c, 6, 61, 64
8, 28800, Note_on_c, 6, 61, 0
8, 28800, Note_on_c, 6, 62, 64
8, 29111, Note_on_c, 6, 62, 0
8, 29160, Note_on_c, 6, 61, 64
8, 29220, Note_on_c, 6, 61, 0
8, 29220, Note_on_c, 6, 59, 64
8, 29280, Note_on_c, 6, 59, 0
8, 29280, Note_on_c, 6, 61, 64
8, 29591, Note_on_c, 6, 61, 0
8, 29640, Note_on_c, 6, 54, 64
8, 29711, Note_on_c, 6, 54, 0
8, 29760, Note_on_c, 6, 59, 64
8, 30071, Note_on_c, 6, 59, 0
8, 30120, Note_on_c, 6, 61, 64
8, 30180, Note_on_c, 6, 61, 0
8, 30180, Note_on_c, 6, 62, 64
8, 30240, Note_on_c, 6, 62, 0
8, 30240, Note_on_c, 6, 64, 64
8, 30300, Note_on_c, 6, 64, 0
8, 30300, Note_on_c, 6, 62, 64
8, 30360, Note_on_c, 6, 62, 0
8, 30360, Note_on_c, 6, 64, 64
8, 30420, Note_on_c, 6, 64, 0
8, 30420, Note_on_c, 6, 61, 64
8, 30480, Note_on_c, 6, 61, 0
8, 30480, Note_on_c, 6, 62, 64
8, 30540, Note_on_c, 6, 62, 0
8, 30540, Note_on_c, 6, 64, 64
8, 30600, Note_on_c, 6, 64, 0
8, 30600, Note_on_c, 6, 62, 64
8, 30660, Note_on_c, 6, 62, 0
8, 30660, Note_on_c, 6, 61, 64
8, 30720, Note_on_c, 6, 61, 0
8, 30720, Note_on_c, 6, 59, 64
8, 30780, Note_on_c, 6, 59, 0
8, 30780, Note_on_c, 6, 61, 64
8, 30840, Note_on_c, 6, 61, 0
8, 30840, Note_on_c, 6, 62, 64
8, 30900, Note_on_c, 6, 62, 0
8, 30900, Note_on_c, 6, 59, 64
8, 30960, Note_on_c, 6, 59, 0
8, 30960, Note_on_c, 6, 64, 64
8, 31200, Note_on_c, 6, 64, 0
8, 31320, Note_on_c, 6, 57, 64
8, 31391, Note_on_c, 6, 57, 0
8, 31440, Note_on_c, 6, 62, 64
8, 31500, Note_on_c, 6, 62, 0
8, 31500, Note_on_c, 6, 59, 64
8, 31560, Note_on_c, 6, 59, 0
8, 31560, Note_on_c, 6, 61, 64
8, 31620, Note_on_c, 6, 61, 0
8, 31620, Note_on_c, 6, 62, 64
8, 31680, Note_on_c, 6, 62, 0
8, 31680, Note_on_c, 6, 64, 64
8, 31991, Note_on_c, 6, 64, 0
8, 32040, Note_on_c, 6, 62, 64
8, 32100, Note_on_c, 6, 62, 0
8, 32100, Note_on_c, 6, 61, 64
8, 32160, Note_on_c, 6, 61, 0
8, 32160, Note_on_c, 6, 62, 64
8, 32231, Note_on_c, 6, 62, 0
8, 32280, Note_on_c, 6, 59, 64
8, 32351, Note_on_c, 6, 59, 0
8, 32400, Note_on_c, 6, 54, 64
8, 32460, Note_on_c, 6, 54, 0
8, 32460, Note_on_c, 6, 55, 64
8, 32520, Note_on_c, 6, 55, 0
8, 32520, Note_on_c, 6, 57, 64
8, 32760, Note_on_c, 6, 57, 0
8, 32760, Note_on_c, 6, 57, 64
8, 32831, Note_on_c, 6, 57, 0
8, 32880, Note_on_c, 6, 57, 35
8, 33120, Note_on_c, 6, 57, 0
8, 33480, Note_on_c, 6, 62, 52
8, 33540, Note_on_c, 6, 62, 0
8, 33540, Note_on_c, 6, 60, 53
8, 33600, Note_on_c, 6, 60, 0
8, 33600, Note_on_c, 6, 62, 55
8, 33671, Note_on_c, 6, 62, 0
8, 33720, Note_on_c, 6, 64, 58
8, 33791, Note_on_c, 6, 64, 0
8, 33840, Note_on_c, 6, 57, 62
8, 34080, Note_on_c, 6, 57, 0
8, 34440, Note_on_c, 6, 61, 70
8, 34500, Note_on_c, 6, 61, 0
8, 34500, Note_on_c, 6, 59, 70
8, 34560, Note_on_c, 6, 59, 0
8, 34560, Note_on_c, 6, 57, 70
8, 34631, Note_on_c, 6, 57, 0
8, 35640, Note_on_c, 6, 57, 70
8, 35711, Note_on_c, 6, 57, 0
8, 35760, Note_on_c, 6, 62, 70
8, 36060, Note_on_c, 6, 62, 0
8, 36060, Note_on_c, 6, 61, 70
8, 36120, Note_on_c, 6, 61, 0
8, 36120, Note_on_c, 6, 62, 70
8, 36180, Note_on_c, 6, 62, 0
8, 36180, Note_on_c, 6, 64, 70
8, 36240, Note_on_c, 6, 64, 0
8, 36240, Note_on_c, 6, 62, 70
8, 36311, Note_on_c, 6, 62, 0
8, 36360, Note_on_c, 6, 59, 70
8, 36431, Note_on_c, 6, 59, 0
8, 36480, Note_on_c, 6, 61, 70
8, 36551, Note_on_c, 6, 61, 0
8, 36600, Note_on_c, 6, 57, 70
8, 36671, Note_on_c, 6, 57, 0
8, 36720, Note_on_c, 6, 54, 70
8, 36791, Note_on_c, 6, 54, 0
8, 36840, Note_on_c, 6, 55, 70
8, 36900, Note_on_c, 6, 55, 0
8, 36900, Note_on_c, 6, 57, 70
8, 36960, Note_on_c, 6, 57, 0
8, 36960, Note_on_c, 6, 55, 70
8, 37020, Note_on_c, 6, 55, 0
8, 37020, Note_on_c, 6, 59, 70
8, 37080, Note_on_c, 6, 59, 0
8, 37080, Note_on_c, 6, 64, 70
8, 37140, Note_on_c, 6, 64, 0
8, 37140, Note_on_c, 6, 61, 70
8, 37200, Note_on_c, 6, 61, 0
8, 37200, Note_on_c, 6, 57, 64
8, 37260, Note_on_c, 6, 57, 0
8, 37260, Note_on_c, 6, 54, 64
8, 37320, Note_on_c, 6, 54, 0
8, 37320, Note_on_c, 6, 55, 65
8, 37380, Note_on_c, 6, 55, 0
8, 37380, Note_on_c, 6, 57, 65
8, 37440, Note_on_c, 6, 57, 0
8, 37440, Note_on_c, 6, 59, 66
8, 37500, Note_on_c, 6, 59, 0
8, 37500, Note_on_c, 6, 57, 66
8, 37560, Note_on_c, 6, 57, 0
8, 37560, Note_on_c, 6, 59, 66
8, 37620, Note_on_c, 6, 59, 0
8, 37620, Note_on_c, 6, 61, 67
8, 37680, Note_on_c, 6, 61, 0
8, 37680, Note_on_c, 6, 62, 67
8, 37740, Note_on_c, 6, 62, 0
8, 37740, Note_on_c, 6, 61, 68
8, 37800, Note_on_c, 6, 61, 0
8, 37800, Note_on_c, 6, 62, 68
8, 37860, Note_on_c, 6, 62, 0
8, 37860, Note_on_c, 6, 64, 68
8, 37920, Note_on_c, 6, 64, 0
8, 37920, Note_on_c, 6, 57, 69
8, 38231, Note_on_c, 6, 57, 0
8, 38280, Note_on_c, 6, 69, 71
8, 38460, Note_on_c, 6, 69, 0
8, 38460, Note_on_c, 6, 67, 72
8, 38520, Note_on_c, 6, 67, 0
8, 38520, Note_on_c, 6, 66, 73
8, 38580, Note_on_c, 6, 66, 0
8, 38580, Note_on_c, 6, 64, 73
8, 38640, Note_on_c, 6, 64, 0
8, 38640, Note_on_c, 6, 62, 74
8, 39000, Note_on_c, 6, 62, 0
8, 39000, Note_on_c, 6, 59, 76
8, 39071, Note_on_c, 6, 59, 0
8, 39120, Note_on_c, 6, 66, 77
8, 39191, Note_on_c, 6, 66, 0
8, 39240, Note_on_c, 6, 69, 78
8, 39311, Note_on_c, 6, 69, 0
8, 39360, Note_on_c, 6, 62, 78
8, 39431, Note_on_c, 6, 62, 0
8, 39480, Note_on_c, 6, 59, 79
8, 39551, Note_on_c, 6, 59, 0
8, 39600, Note_on_c, 6, 57, 90
8, 39671, Note_on_c, 6, 57, 0
8, 39720, Note_on_c, 6, 69, 90
8, 39960, Note_on_c, 6, 69, 0
8, 39960, Note_on_c, 6, 67, 90
8, 40031, Note_on_c, 6, 67, 0
8, 40080, Note_on_c, 6, 66, 90
8, 40560, Note_on_c, 6, 66, 0
8, 41040, End_track
9, 0, Start_track
9, 0, MIDI_port, 0
9, 0, Title_t, "Cello"
9, 0, Program_c, 7, 48
9, 0, Control_c, 7, 91, 127
9, 240, Control_c, 7, 7, 90
9, 240, Note_on_c, 7, 57, 64
9, 480, Note_on_c, 7, 57, 0
9, 540, Note_on_c, 7, 45, 64
9, 600, Note_on_c, 7, 45, 0
9, 600, Note_on_c, 7, 47, 64
9, 660, Note_on_c, 7, 47, 0
9, 660, Note_on_c, 7, 49, 64
9, 720, Note_on_c, 7, 49, 0
9, 720, Note_on_c, 7, 50, 64
9, 780, Note_on_c, 7, 50, 0
9, 780, Note_on_c, 7, 52, 64
9, 840, Note_on_c, 7, 52, 0
9, 840, Note_on_c, 7, 54, 64
9, 900, Note_on_c, 7, 54, 0
9, 900, Note_on_c, 7, 55, 64
9, 960, Note_on_c, 7, 55, 0
9, 960, Note_on_c, 7, 57, 64
9, 1031, Note_on_c, 7, 57, 0
9, 1080, Note_on_c, 7, 45, 64
9, 1151, Note_on_c, 7, 45, 0
9, 1200, Note_on_c, 7, 50, 64
9, 1440, Note_on_c, 7, 50, 0
9, 1500, Note_on_c, 7, 47, 64
9, 1560, Note_on_c, 7, 47, 0
9, 1560, Note_on_c, 7, 49, 64
9, 1620, Note_on_c, 7, 49, 0
9, 1620, Note_on_c, 7, 50, 64
9, 1680, Note_on_c, 7, 50, 0
9, 1680, Note_on_c, 7, 52, 64
9, 1740, Note_on_c, 7, 52, 0
9, 1740, Note_on_c, 7, 49, 64
9, 1800, Note_on_c, 7, 49, 0
9, 1800, Note_on_c, 7, 50, 64
9, 1860, Note_on_c, 7, 50, 0
9, 1860, Note_on_c, 7, 52, 64
9, 1920, Note_on_c, 7, 52, 0
9, 1920, Note_on_c, 7, 54, 64
9, 1980, Note_on_c, 7, 54, 0
9, 1980, Note_on_c, 7, 52, 64
9, 2040, Note_on_c, 7, 52, 0
9, 2040, Note_on_c, 7, 54, 64
9, 2100, Note_on_c, 7, 54, 0
9, 2100, Note_on_c, 7, 56, 64
9, 2160, Note_on_c, 7, 56, 0
9, 2160, Note_on_c, 7, 57, 64
9, 2220, Note_on_c, 7, 57, 0
9, 2220, Note_on_c, 7, 56, 64
9, 2280, Note_on_c, 7, 56, 0
9, 2280, Note_on_c, 7, 54, 64
9, 2340, Note_on_c, 7, 54, 0
9, 2340, Note_on_c, 7, 52, 64
9, 2400, Note_on_c, 7, 52, 0
9, 2400, Note_on_c, 7, 50, 64
9, 2460, Note_on_c, 7, 50, 0
9, 2460, Note_on_c, 7, 54, 64
9, 2520, Note_on_c, 7, 54, 0
9, 2520, Note_on_c, 7, 52, 64
9, 2580, Note_on_c, 7, 52, 0
9, 2580, Note_on_c, 7, 50, 64
9, 2640, Note_on_c, 7, 50, 0
9, 2640, Note_on_c, 7, 49, 64
9, 2711, Note_on_c, 7, 49, 0
9, 2760, Note_on_c, 7, 45, 64
9, 2831, Note_on_c, 7, 45, 0
9, 2940, Note_on_c, 7, 45, 64
9, 3000, Note_on_c, 7, 45, 0
9, 3000, Note_on_c, 7, 47, 64
9, 3060, Note_on_c, 7, 47, 0
9, 3060, Note_on_c, 7, 49, 64
9, 3120, Note_on_c, 7, 49, 0
9, 3120, Note_on_c, 7, 50, 64
9, 3180, Note_on_c, 7, 50, 0
9, 3180, Note_on_c, 7, 47, 64
9, 3240, Note_on_c, 7, 47, 0
9, 3240, Note_on_c, 7, 49, 64
9, 3300, Note_on_c, 7, 49, 0
9, 3300, Note_on_c, 7, 50, 64
9, 3360, Note_on_c, 7, 50, 0
9, 3360, Note_on_c, 7, 52, 64
9, 3420, Note_on_c, 7, 52, 0
9, 3420, Note_on_c, 7, 50, 64
9, 3480, Note_on_c, 7, 50, 0
9, 3480, Note_on_c, 7, 49, 64
9, 3540, Note_on_c, 7, 49, 0
9, 3540, Note_on_c, 7, 47, 64
9, 3600, Note_on_c, 7, 47, 0
9, 3600, Note_on_c, 7, 45, 64
9, 3660, Note_on_c, 7, 45, 0
9, 3660, Note_on_c, 7, 43, 64
9, 3720, Note_on_c, 7, 43, 0
9, 3720, Note_on_c, 7, 42, 64
9, 3780, Note_on_c, 7, 42, 0
9, 3780, Note_on_c, 7, 40, 64
9, 3840, Note_on_c, 7, 40, 0
9, 3840, Note_on_c, 7, 38, 64
9, 3900, Note_on_c, 7, 38, 0
9, 3900, Note_on_c, 7, 40, 64
9, 3960, Note_on_c, 7, 40, 0
9, 3960, Note_on_c, 7, 42, 64
9, 4020, Note_on_c, 7, 42, 0
9, 4020, Note_on_c, 7, 38, 64
9, 4080, Note_on_c, 7, 38, 0
9, 4080, Note_on_c, 7, 43, 64
9, 4320, Note_on_c, 7, 43, 0
9, 4380, Note_on_c, 7, 40, 64
9, 4440, Note_on_c, 7, 40, 0
9, 4440, Note_on_c, 7, 42, 64
9, 4500, Note_on_c, 7, 42, 0
9, 4500, Note_on_c, 7, 43, 64
9, 4560, Note_on_c, 7, 43, 0
9, 4560, Note_on_c, 7, 45, 64
9, 4620, Note_on_c, 7, 45, 0
9, 4620, Note_on_c, 7, 42, 64
9, 4680, Note_on_c, 7, 42, 0
9, 4680, Note_on_c, 7, 43, 64
9, 4740, Note_on_c, 7, 43, 0
9, 4740, Note_on_c, 7, 45, 64
9, 4800, Note_on_c, 7, 45, 0
9, 4800, Note_on_c, 7, 47, 64
9, 4860, Note_on_c, 7, 47, 0
9, 4860, Note_on_c, 7, 45, 64
9, 4920, Note_on_c, 7, 45, 0
9, 4920, Note_on_c, 7, 47, 64
9, 4980, Note_on_c, 7, 47, 0
9, 4980, Note_on_c, 7, 49, 64
9, 5040, Note_on_c, 7, 49, 0
9, 5040, Note_on_c, 7, 50, 64
9, 5100, Note_on_c, 7, 50, 0
9, 5100, Note_on_c, 7, 52, 64
9, 5160, Note_on_c, 7, 52, 0
9, 5160, Note_on_c, 7, 54, 64
9, 5220, Note_on_c, 7, 54, 0
9, 5220, Note_on_c, 7, 55, 64
9, 5280, Note_on_c, 7, 55, 0
9, 5280, Note_on_c, 7, 57, 64
9, 5351, Note_on_c, 7, 57, 0
9, 5400, Note_on_c, 7, 45, 64
9, 5471, Note_on_c, 7, 45, 0
9, 5520, Note_on_c, 7, 38, 64
9, 5580, Note_on_c, 7, 38, 0
9, 5580, Note_on_c, 7, 40, 64
9, 5640, Note_on_c, 7, 40, 0
9, 5640, Note_on_c, 7, 42, 64
9, 5700, Note_on_c, 7, 42, 0
9, 5700, Note_on_c, 7, 43, 64
9, 5760, Note_on_c, 7, 43, 0
9, 5760, Note_on_c, 7, 45, 64
9, 5820, Note_on_c, 7, 45, 0
9, 5820, Note_on_c, 7, 47, 64
9, 5880, Note_on_c, 7, 47, 0
9, 5880, Note_on_c, 7, 49, 64
9, 5940, Note_on_c, 7, 49, 0
9, 5940, Note_on_c, 7, 45, 64
9, 6000, Note_on_c, 7, 45, 0
9, 6000, Note_on_c, 7, 50, 64
9, 6240, Note_on_c, 7, 50, 0
9, 6300, Note_on_c, 7, 47, 64
9, 6360, Note_on_c, 7, 47, 0
9, 6360, Note_on_c, 7, 49, 64
9, 6420, Note_on_c, 7, 49, 0
9, 6420, Note_on_c, 7, 50, 64
9, 6480, Note_on_c, 7, 50, 0
9, 6480, Note_on_c, 7, 52, 64
9, 6540, Note_on_c, 7, 52, 0
9, 6540, Note_on_c, 7, 49, 64
9, 6600, Note_on_c, 7, 49, 0
9, 6600, Note_on_c, 7, 50, 64
9, 6660, Note_on_c, 7, 50, 0
9, 6660, Note_on_c, 7, 52, 64
9, 6720, Note_on_c, 7, 52, 0
9, 6720, Note_on_c, 7, 54, 64
9, 6780, Note_on_c, 7, 54, 0
9, 6780, Note_on_c, 7, 52, 64
9, 6840, Note_on_c, 7, 52, 0
9, 6840, Note_on_c, 7, 54, 64
9, 6900, Note_on_c, 7, 54, 0
9, 6900, Note_on_c, 7, 56, 64
9, 6960, Note_on_c, 7, 56, 0
9, 6960, Note_on_c, 7, 57, 64
9, 7020, Note_on_c, 7, 57, 0
9, 7020, Note_on_c, 7, 56, 64
9, 7080, Note_on_c, 7, 56, 0
9, 7080, Note_on_c, 7, 54, 64
9, 7140, Note_on_c, 7, 54, 0
9, 7140, Note_on_c, 7, 52, 64
9, 7200, Note_on_c, 7, 52, 0
9, 7200, Note_on_c, 7, 50, 64
9, 7271, Note_on_c, 7, 50, 0
9, 7320, Note_on_c, 7, 52, 64
9, 7391, Note_on_c, 7, 52, 0
9, 7440, Note_on_c, 7, 45, 64
9, 7680, Note_on_c, 7, 45, 0
9, 7740, Note_on_c, 7, 45, 64
9, 7800, Note_on_c, 7, 45, 0
9, 7800, Note_on_c, 7, 47, 64
9, 7860, Note_on_c, 7, 47, 0
9, 7860, Note_on_c, 7, 49, 64
9, 7920, Note_on_c, 7, 49, 0
9, 7920, Note_on_c, 7, 47, 64
9, 7980, Note_on_c, 7, 47, 0
9, 7980, Note_on_c, 7, 49, 64
9, 8040, Note_on_c, 7, 49, 0
9, 8040, Note_on_c, 7, 50, 64
9, 8100, Note_on_c, 7, 50, 0
9, 8100, Note_on_c, 7, 47, 64
9, 8160, Note_on_c, 7, 47, 0
9, 8160, Note_on_c, 7, 52, 64
9, 8220, Note_on_c, 7, 52, 0
9, 8220, Note_on_c, 7, 50, 64
9, 8280, Note_on_c, 7, 50, 0
9, 8280, Note_on_c, 7, 49, 64
9, 8340, Note_on_c, 7, 49, 0
9, 8340, Note_on_c, 7, 47, 64
9, 8400, Note_on_c, 7, 47, 0
9, 8400, Note_on_c, 7, 45, 64
9, 8460, Note_on_c, 7, 45, 0
9, 8460, Note_on_c, 7, 43, 64
9, 8520, Note_on_c, 7, 43, 0
9, 8520, Note_on_c, 7, 42, 64
9, 8580, Note_on_c, 7, 42, 0
9, 8580, Note_on_c, 7, 40, 64
9, 8640, Note_on_c, 7, 40, 0
9, 8640, Note_on_c, 7, 38, 64
9, 8700, Note_on_c, 7, 38, 0
9, 8700, Note_on_c, 7, 40, 64
9, 8760, Note_on_c, 7, 40, 0
9, 8760, Note_on_c, 7, 42, 64
9, 8820, Note_on_c, 7, 42, 0
9, 8820, Note_on_c, 7, 38, 64
9, 8880, Note_on_c, 7, 38, 0
9, 8880, Note_on_c, 7, 43, 64
9, 9120, Note_on_c, 7, 43, 0
9, 9180, Note_on_c, 7, 40, 64
9, 9240, Note_on_c, 7, 40, 0
9, 9240, Note_on_c, 7, 42, 64
9, 9300, Note_on_c, 7, 42, 0
9, 9300, Note_on_c, 7, 43, 64
9, 9360, Note_on_c, 7, 43, 0
9, 9360, Note_on_c, 7, 45, 64
9, 9420, Note_on_c, 7, 45, 0
9, 9420, Note_on_c, 7, 42, 64
9, 9480, Note_on_c, 7, 42, 0
9, 9480, Note_on_c, 7, 43, 64
9, 9540, Note_on_c, 7, 43, 0
9, 9540, Note_on_c, 7, 45, 64
9, 9600, Note_on_c, 7, 45, 0
9, 9600, Note_on_c, 7, 47, 64
9, 9660, Note_on_c, 7, 47, 0
9, 9660, Note_on_c, 7, 45, 64
9, 9720, Note_on_c, 7, 45, 0
9, 9720, Note_on_c, 7, 47, 64
9, 9780, Note_on_c, 7, 47, 0
9, 9780, Note_on_c, 7, 49, 64
9, 9840, Note_on_c, 7, 49, 0
9, 9840, Note_on_c, 7, 50, 64
9, 9900, Note_on_c, 7, 50, 0
9, 9900, Note_on_c, 7, 52, 64
9, 9960, Note_on_c, 7, 52, 0
9, 9960, Note_on_c, 7, 54, 64
9, 10020, Note_on_c, 7, 54, 0
9, 10020, Note_on_c, 7, 55, 64
9, 10080, Note_on_c, 7, 55, 0
9, 10080, Note_on_c, 7, 57, 64
9, 10140, Note_on_c, 7, 57, 0
9, 10140, Note_on_c, 7, 59, 64
9, 10200, Note_on_c, 7, 59, 0
9, 10200, Note_on_c, 7, 57, 64
9, 10260, Note_on_c, 7, 57, 0
9, 10260, Note_on_c, 7, 55, 64
9, 10320, Note_on_c, 7, 55, 0
9, 10320, Note_on_c, 7, 54, 64
9, 10380, Note_on_c, 7, 54, 0
9, 10380, Note_on_c, 7, 55, 64
9, 10440, Note_on_c, 7, 55, 0
9, 10440, Note_on_c, 7, 57, 64
9, 10500, Note_on_c, 7, 57, 0
9, 10500, Note_on_c, 7, 59, 64
9, 10560, Note_on_c, 7, 59, 0
9, 10560, Note_on_c, 7, 61, 64
9, 10620, Note_on_c, 7, 61, 0
9, 10620, Note_on_c, 7, 57, 64
9, 10680, Note_on_c, 7, 57, 0
9, 10680, Note_on_c, 7, 59, 64
9, 10740, Note_on_c, 7, 59, 0
9, 10740, Note_on_c, 7, 61, 64
9, 10800, Note_on_c, 7, 61, 0
9, 10800, Note_on_c, 7, 62, 64
9, 10860, Note_on_c, 7, 62, 0
9, 10860, Note_on_c, 7, 64, 64
9, 10920, Note_on_c, 7, 64, 0
9, 10920, Note_on_c, 7, 62, 64
9, 10980, Note_on_c, 7, 62, 0
9, 10980, Note_on_c, 7, 61, 64
9, 11040, Note_on_c, 7, 61, 0
9, 11040, Note_on_c, 7, 59, 64
9, 11100, Note_on_c, 7, 59, 0
9, 11100, Note_on_c, 7, 57, 64
9, 11160, Note_on_c, 7, 57, 0
9, 11160, Note_on_c, 7, 56, 64
9, 11220, Note_on_c, 7, 56, 0
9, 11220, Note_on_c, 7, 54, 64
9, 11280, Note_on_c, 7, 54, 0
9, 11280, Note_on_c, 7, 56, 64
9, 11340, Note_on_c, 7, 56, 0
9, 11340, Note_on_c, 7, 52, 64
9, 11400, Note_on_c, 7, 52, 0
9, 11400, Note_on_c, 7, 54, 64
9, 11460, Note_on_c, 7, 54, 0
9, 11460, Note_on_c, 7, 56, 64
9, 11520, Note_on_c, 7, 56, 0
9, 11520, Note_on_c, 7, 57, 64
9, 11591, Note_on_c, 7, 57, 0
9, 11640, Note_on_c, 7, 50, 64
9, 11711, Note_on_c, 7, 50, 0
9, 11760, Note_on_c, 7, 49, 64
9, 12000, Note_on_c, 7, 49, 0
9, 12000, Note_on_c, 7, 47, 64
9, 12240, Note_on_c, 7, 47, 0
9, 12240, Note_on_c, 7, 45, 64
9, 12300, Note_on_c, 7, 45, 0
9, 12300, Note_on_c, 7, 43, 64
9, 12360, Note_on_c, 7, 43, 0
9, 12360, Note_on_c, 7, 42, 64
9, 12420, Note_on_c, 7, 42, 0
9, 12420, Note_on_c, 7, 40, 64
9, 12480, Note_on_c, 7, 40, 0
9, 12480, Note_on_c, 7, 38, 64
9, 12540, Note_on_c, 7, 38, 0
9, 12540, Note_on_c, 7, 40, 64
9, 12600, Note_on_c, 7, 40, 0
9, 12600, Note_on_c, 7, 42, 64
9, 12660, Note_on_c, 7, 42, 0
9, 12660, Note_on_c, 7, 38, 64
9, 12720, Note_on_c, 7, 38, 0
9, 12720, Note_on_c, 7, 43, 64
9, 12780, Note_on_c, 7, 43, 0
9, 12780, Note_on_c, 7, 50, 64
9, 12840, Note_on_c, 7, 50, 0
9, 12840, Note_on_c, 7, 52, 64
9, 12900, Note_on_c, 7, 52, 0
9, 12900, Note_on_c, 7, 54, 64
9, 12960, Note_on_c, 7, 54, 0
9, 12960, Note_on_c, 7, 55, 64
9, 13271, Note_on_c, 7, 55, 0
9, 13320, Note_on_c, 7, 54, 64
9, 13380, Note_on_c, 7, 54, 0
9, 13380, Note_on_c, 7, 52, 64
9, 13440, Note_on_c, 7, 52, 0
9, 13440, Note_on_c, 7, 54, 64
9, 13511, Note_on_c, 7, 54, 0
9, 13560, Note_on_c, 7, 59, 64
9, 13631, Note_on_c, 7, 59, 0
9, 13680, Note_on_c, 7, 57, 64
9, 13751, Note_on_c, 7, 57, 0
9, 13800, Note_on_c, 7, 50, 64
9, 14040, Note_on_c, 7, 50, 0
9, 14040, Note_on_c, 7, 49, 64
9, 14111, Note_on_c, 7, 49, 0
9, 14160, Note_on_c, 7, 50, 64
9, 14400, Note_on_c, 7, 50, 0
9, 14460, Note_on_c, 7, 43, 64
9, 14520, Note_on_c, 7, 43, 0
9, 14520, Note_on_c, 7, 45, 64
9, 14580, Note_on_c, 7, 45, 0
9, 14580, Note_on_c, 7, 47, 64
9, 14640, Note_on_c, 7, 47, 0
9, 14640, Note_on_c, 7, 48, 64
9, 14880, Note_on_c, 7, 48, 0
9, 14940, Note_on_c, 7, 45, 64
9, 15000, Note_on_c, 7, 45, 0
9, 15000, Note_on_c, 7, 47, 64
9, 15060, Note_on_c, 7, 47, 0
9, 15060, Note_on_c, 7, 48, 64
9, 15120, Note_on_c, 7, 48, 0
9, 15120, Note_on_c, 7, 50, 64
9, 15191, Note_on_c, 7, 50, 0
9, 15240, Note_on_c, 7, 47, 64
9, 15311, Note_on_c, 7, 47, 0
9, 15360, Note_on_c, 7, 52, 64
9, 15420, Note_on_c, 7, 52, 0
9, 15420, Note_on_c, 7, 50, 64
9, 15480, Note_on_c, 7, 50, 0
9, 15480, Note_on_c, 7, 52, 64
9, 15540, Note_on_c, 7, 52, 0
9, 15540, Note_on_c, 7, 54, 64
9, 15600, Note_on_c, 7, 54, 0
9, 15600, Note_on_c, 7, 55, 64
9, 15671, Note_on_c, 7, 55, 0
9, 15720, Note_on_c, 7, 60, 64
9, 15911, Note_on_c, 7, 60, 0
9, 15960, Note_on_c, 7, 51, 64
9, 16031, Note_on_c, 7, 51, 0
9, 16080, Note_on_c, 7, 52, 64
9, 16151, Note_on_c, 7, 52, 0
9, 16200, Note_on_c, 7, 45, 64
9, 16440, Note_on_c, 7, 45, 0
9, 16440, Note_on_c, 7, 47, 64
9, 16511, Note_on_c, 7, 47, 0
9, 16560, Note_on_c, 7, 48, 64
9, 16631, Note_on_c, 7, 48, 0
9, 16680, Note_on_c, 7, 47, 64
9, 16751, Note_on_c, 7, 47, 0
9, 16800, Note_on_c, 7, 45, 64
9, 17111, Note_on_c, 7, 45, 0
9, 17160, Note_on_c, 7, 43, 64
9, 17220, Note_on_c, 7, 43, 0
9, 17220, Note_on_c, 7, 42, 64
9, 17280, Note_on_c, 7, 42, 0
9, 17280, Note_on_c, 7, 43, 64
9, 17351, Note_on_c, 7, 43, 0
9, 17400, Note_on_c, 7, 45, 64
9, 17471, Note_on_c, 7, 45, 0
9, 17520, Note_on_c, 7, 47, 64
9, 18000, Note_on_c, 7, 47, 0
9, 18000, Note_on_c, 7, 40, 64
9, 18960, Note_on_c, 7, 40, 0
9, 18960, Note_on_c, 7, 45, 64
9, 19031, Note_on_c, 7, 45, 0
9, 19080, Note_on_c, 7, 49, 64
9, 19151, Note_on_c, 7, 49, 0
9, 19200, Note_on_c, 7, 50, 64
9, 19271, Note_on_c, 7, 50, 0
9, 19320, Note_on_c, 7, 47, 64
9, 19391, Note_on_c, 7, 47, 0
9, 19440, Note_on_c, 7, 52, 64
9, 19511, Note_on_c, 7, 52, 0
9, 19560, Note_on_c, 7, 40, 64
9, 19631, Note_on_c, 7, 40, 0
9, 19680, Note_on_c, 7, 43, 64
9, 19751, Note_on_c, 7, 43, 0
9, 19800, Note_on_c, 7, 40, 64
9, 19871, Note_on_c, 7, 40, 0
9, 19920, Note_on_c, 7, 45, 64
9, 20160, Note_on_c, 7, 45, 0
9, 20220, Note_on_c, 7, 45, 64
9, 20280, Note_on_c, 7, 45, 0
9, 20280, Note_on_c, 7, 47, 64
9, 20340, Note_on_c, 7, 47, 0
9, 20340, Note_on_c, 7, 49, 64
9, 20400, Note_on_c, 7, 49, 0
9, 20400, Note_on_c, 7, 50, 64
9, 20460, Note_on_c, 7, 50, 0
9, 20460, Note_on_c, 7, 52, 64
9, 20520, Note_on_c, 7, 52, 0
9, 20520, Note_on_c, 7, 54, 64
9, 20580, Note_on_c, 7, 54, 0
9, 20580, Note_on_c, 7, 55, 64
9, 20640, Note_on_c, 7, 55, 0
9, 20640, Note_on_c, 7, 57, 64
9, 20711, Note_on_c, 7, 57, 0
9, 20760, Note_on_c, 7, 45, 64
9, 20831, Note_on_c, 7, 45, 0
9, 20880, Note_on_c, 7, 50, 64
9, 21120, Note_on_c, 7, 50, 0
9, 21240, Note_on_c, 7, 57, 64
9, 21311, Note_on_c, 7, 57, 0
9, 21360, Note_on_c, 7, 62, 64
9, 21600, Note_on_c, 7, 62, 0
9, 21720, Note_on_c, 7, 59, 64
9, 21791, Note_on_c, 7, 59, 0
9, 21840, Note_on_c, 7, 64, 64
9, 22080, Note_on_c, 7, 64, 0
9, 22200, Note_on_c, 7, 59, 64
9, 22271, Note_on_c, 7, 59, 0
9, 22320, Note_on_c, 7, 61, 64
9, 22391, Note_on_c, 7, 61, 0
9, 22440, Note_on_c, 7, 54, 64
9, 22511, Note_on_c, 7, 54, 0
9, 22560, Note_on_c, 7, 59, 64
9, 22620, Note_on_c, 7, 59, 0
9, 22620, Note_on_c, 7, 57, 64
9, 22680, Note_on_c, 7, 57, 0
9, 22680, Note_on_c, 7, 59, 64
9, 22751, Note_on_c, 7, 59, 0
9, 22800, Note_on_c, 7, 57, 64
9, 23040, Note_on_c, 7, 57, 0
9, 23100, Note_on_c, 7, 50, 64
9, 23160, Note_on_c, 7, 50, 0
9, 23160, Note_on_c, 7, 52, 64
9, 23220, Note_on_c, 7, 52, 0
9, 23220, Note_on_c, 7, 54, 64
9, 23280, Note_on_c, 7, 54, 0
9, 23280, Note_on_c, 7, 55, 64
9, 23340, Note_on_c, 7, 55, 0
9, 23340, Note_on_c, 7, 57, 64
9, 23400, Note_on_c, 7, 57, 0
9, 23400, Note_on_c, 7, 55, 64
9, 23460, Note_on_c, 7, 55, 0
9, 23460, Note_on_c, 7, 54, 64
9, 23520, Note_on_c, 7, 54, 0
9, 23520, Note_on_c, 7, 52, 64
9, 23580, Note_on_c, 7, 52, 0
9, 23580, Note_on_c, 7, 55, 64
9, 23640, Note_on_c, 7, 55, 0
9, 23640, Note_on_c, 7, 54, 64
9, 23700, Note_on_c, 7, 54, 0
9, 23700, Note_on_c, 7, 52, 64
9, 23760, Note_on_c, 7, 52, 0
9, 23760, Note_on_c, 7, 57, 64
9, 23820, Note_on_c, 7, 57, 0
9, 23820, Note_on_c, 7, 45, 64
9, 23880, Note_on_c, 7, 45, 0
9, 23880, Note_on_c, 7, 47, 64
9, 23940, Note_on_c, 7, 47, 0
9, 23940, Note_on_c, 7, 49, 64
9, 24000, Note_on_c, 7, 49, 0
9, 24000, Note_on_c, 7, 50, 64
9, 24071, Note_on_c, 7, 50, 0
9, 24120, Note_on_c, 7, 55, 64
9, 24191, Note_on_c, 7, 55, 0
9, 24240, Note_on_c, 7, 57, 64
9, 24311, Note_on_c, 7, 57, 0
9, 24360, Note_on_c, 7, 45, 64
9, 24431, Note_on_c, 7, 45, 0
9, 24480, Note_on_c, 7, 45, 64
9, 24551, Note_on_c, 7, 45, 0
9, 24600, Note_on_c, 7, 45, 64
9, 24671, Note_on_c, 7, 45, 0
9, 24720, Note_on_c, 7, 42, 64
9, 24780, Note_on_c, 7, 42, 0
9, 24780, Note_on_c, 7, 38, 64
9, 24840, Note_on_c, 7, 38, 0
9, 24840, Note_on_c, 7, 40, 64
9, 24900, Note_on_c, 7, 40, 0
9, 24900, Note_on_c, 7, 42, 64
9, 24960, Note_on_c, 7, 42, 0
9, 24960, Note_on_c, 7, 43, 64
9, 25020, Note_on_c, 7, 43, 0
9, 25020, Note_on_c, 7, 45, 64
9, 25080, Note_on_c, 7, 45, 0
9, 25080, Note_on_c, 7, 47, 64
9, 25140, Note_on_c, 7, 47, 0
9, 25140, Note_on_c, 7, 43, 64
9, 25200, Note_on_c, 7, 43, 0
9, 25200, Note_on_c, 7, 48, 64
9, 25271, Note_on_c, 7, 48, 0
9, 25320, Note_on_c, 7, 60, 64
9, 25391, Note_on_c, 7, 60, 0
9, 25440, Note_on_c, 7, 57, 64
9, 25511, Note_on_c, 7, 57, 0
9, 25560, Note_on_c, 7, 52, 64
9, 25631, Note_on_c, 7, 52, 0
9, 25680, Note_on_c, 7, 54, 64
9, 25800, Note_on_c, 7, 54, 0
9, 25800, Note_on_c, 7, 50, 64
9, 25871, Note_on_c, 7, 50, 0
9, 25920, Note_on_c, 7, 55, 64
9, 25991, Note_on_c, 7, 55, 0
9, 26040, Note_on_c, 7, 48, 64
9, 26280, Note_on_c, 7, 48, 0
9, 26280, Note_on_c, 7, 47, 64
9, 26351, Note_on_c, 7, 47, 0
9, 26400, Note_on_c, 7, 45, 64
9, 26471, Note_on_c, 7, 45, 0
9, 26520, Note_on_c, 7, 57, 64
9, 26711, Note_on_c, 7, 57, 0
9, 26760, Note_on_c, 7, 55, 64
9, 26820, Note_on_c, 7, 55, 0
9, 26820, Note_on_c, 7, 54, 64
9, 26880, Note_on_c, 7, 54, 0
9, 26880, Note_on_c, 7, 55, 64
9, 26951, Note_on_c, 7, 55, 0
9, 27000, Note_on_c, 7, 52, 64
9, 27071, Note_on_c, 7, 52, 0
9, 27120, Note_on_c, 7, 54, 64
9, 27191, Note_on_c, 7, 54, 0
9, 27240, Note_on_c, 7, 47, 64
9, 27311, Note_on_c, 7, 47, 0
9, 27360, Note_on_c, 7, 59, 64
9, 27671, Note_on_c, 7, 59, 0
9, 27720, Note_on_c, 7, 57, 64
9, 27780, Note_on_c, 7, 57, 0
9, 27780, Note_on_c, 7, 55, 64
9, 27840, Note_on_c, 7, 55, 0
9, 27840, Note_on_c, 7, 57, 64
9, 27911, Note_on_c, 7, 57, 0
9, 27960, Note_on_c, 7, 50, 64
9, 28031, Note_on_c, 7, 50, 0
9, 28080, Note_on_c, 7, 55, 64
9, 28320, Note_on_c, 7, 55, 0
9, 28380, Note_on_c, 7, 52, 64
9, 28440, Note_on_c, 7, 52, 0
9, 28440, Note_on_c, 7, 54, 64
9, 28500, Note_on_c, 7, 54, 0
9, 28500, Note_on_c, 7, 55, 64
9, 28560, Note_on_c, 7, 55, 0
9, 28560, Note_on_c, 7, 57, 64
9, 28800, Note_on_c, 7, 57, 0
9, 28860, Note_on_c, 7, 54, 64
9, 28920, Note_on_c, 7, 54, 0
9, 28920, Note_on_c, 7, 55, 64
9, 28980, Note_on_c, 7, 55, 0
9, 28980, Note_on_c, 7, 57, 64
9, 29040, Note_on_c, 7, 57, 0
9, 29040, Note_on_c, 7, 59, 64
9, 29280, Note_on_c, 7, 59, 0
9, 29340, Note_on_c, 7, 57, 64
9, 29400, Note_on_c, 7, 57, 0
9, 29400, Note_on_c, 7, 59, 64
9, 29460, Note_on_c, 7, 59, 0
9, 29460, Note_on_c, 7, 61, 64
9, 29520, Note_on_c, 7, 61, 0
9, 29520, Note_on_c, 7, 62, 64
9, 29591, Note_on_c, 7, 62, 0
9, 29640, Note_on_c, 7, 50, 64
9, 29711, Note_on_c, 7, 50, 0
9, 29760, Note_on_c, 7, 62, 64
9, 30071, Note_on_c, 7, 62, 0
9, 30120, Note_on_c, 7, 61, 64
9, 30180, Note_on_c, 7, 61, 0
9, 30180, Note_on_c, 7, 59, 64
9, 30240, Note_on_c, 7, 59, 0
9, 30240, Note_on_c, 7, 61, 64
9, 30311, Note_on_c, 7, 61, 0
9, 30360, Note_on_c, 7, 57, 64
9, 30431, Note_on_c, 7, 57, 0
9, 30480, Note_on_c, 7, 59, 64
9, 30960, Note_on_c, 7, 59, 0
9, 30960, Note_on_c, 7, 57, 64
9, 31991, Note_on_c, 7, 57, 0
9, 32040, Note_on_c, 7, 54, 64
9, 32111, Note_on_c, 7, 54, 0
9, 32160, Note_on_c, 7, 59, 64
9, 32231, Note_on_c, 7, 59, 0
9, 32280, Note_on_c, 7, 55, 64
9, 32351, Note_on_c, 7, 55, 0
9, 32400, Note_on_c, 7, 57, 64
9, 32640, Note_on_c, 7, 57, 0
9, 32640, Note_on_c, 7, 45, 64
9, 32880, Note_on_c, 7, 45, 0
9, 32880, Note_on_c, 7, 50, 35
9, 34380, Note_on_c, 7, 50, 0
9, 34380, Note_on_c, 7, 50, 70
9, 34440, Note_on_c, 7, 50, 0
9, 34440, Note_on_c, 7, 52, 70
9, 34500, Note_on_c, 7, 52, 0
9, 34500, Note_on_c, 7, 54, 70
9, 34560, Note_on_c, 7, 54, 0
9, 34560, Note_on_c, 7, 55, 70
9, 34871, Note_on_c, 7, 55, 0
9, 34920, Note_on_c, 7, 54, 70
9, 34980, Note_on_c, 7, 54, 0
9, 34980, Note_on_c, 7, 52, 70
9, 35040, Note_on_c, 7, 52, 0
9, 35040, Note_on_c, 7, 54, 70
9, 35111, Note_on_c, 7, 54, 0
9, 35160, Note_on_c, 7, 50, 70
9, 35231, Note_on_c, 7, 50, 0
9, 35280, Note_on_c, 7, 52, 70
9, 35351, Note_on_c, 7, 52, 0
9, 35400, Note_on_c, 7, 45, 70
9, 35471, Note_on_c, 7, 45, 0
9, 35520, Note_on_c, 7, 50, 70
9, 35831, Note_on_c, 7, 50, 0
9, 35880, Note_on_c, 7, 49, 70
9, 35940, Note_on_c, 7, 49, 0
9, 35940, Note_on_c, 7, 47, 70
9, 36000, Note_on_c, 7, 47, 0
9, 36000, Note_on_c, 7, 49, 70
9, 36071, Note_on_c, 7, 49, 0
9, 36120, Note_on_c, 7, 45, 70
9, 36191, Note_on_c, 7, 45, 0
9, 36240, Note_on_c, 7, 47, 70
9, 36311, Note_on_c, 7, 47, 0
9, 36360, Note_on_c, 7, 40, 70
9, 36431, Note_on_c, 7, 40, 0
9, 36480, Note_on_c, 7, 45, 70
9, 36791, Note_on_c, 7, 45, 0
9, 36840, Note_on_c, 7, 43, 70
9, 36900, Note_on_c, 7, 43, 0
9, 36900, Note_on_c, 7, 42, 70
9, 36960, Note_on_c, 7, 42, 0
9, 36960, Note_on_c, 7, 43, 70
9, 37031, Note_on_c, 7, 43, 0
9, 37080, Note_on_c, 7, 40, 70
9, 37151, Note_on_c, 7, 40, 0
9, 37200, Note_on_c, 7, 42, 64
9, 37260, Note_on_c, 7, 42, 0
9, 37260, Note_on_c, 7, 38, 64
9, 37320, Note_on_c, 7, 38, 0
9, 37320, Note_on_c, 7, 40, 65
9, 37380, Note_on_c, 7, 40, 0
9, 37380, Note_on_c, 7, 42, 65
9, 37440, Note_on_c, 7, 42, 0
9, 37440, Note_on_c, 7, 43, 66
9, 37500, Note_on_c, 7, 43, 0
9, 37500, Note_on_c, 7, 42, 66
9, 37560, Note_on_c, 7, 42, 0
9, 37560, Note_on_c, 7, 43, 66
9, 37620, Note_on_c, 7, 43, 0
9, 37620, Note_on_c, 7, 45, 67
9, 37680, Note_on_c, 7, 45, 0
9, 37680, Note_on_c, 7, 47, 67
9, 37740, Note_on_c, 7, 47, 0
9, 37740, Note_on_c, 7, 45, 68
9, 37800, Note_on_c, 7, 45, 0
9, 37800, Note_on_c, 7, 47, 68
9, 37860, Note_on_c, 7, 47, 0
9, 37860, Note_on_c, 7, 49, 68
9, 37920, Note_on_c, 7, 49, 0
9, 37920, Note_on_c, 7, 50, 69
9, 37980, Note_on_c, 7, 50, 0
9, 37980, Note_on_c, 7, 45, 69
9, 38040, Note_on_c, 7, 45, 0
9, 38040, Note_on_c, 7, 47, 70
9, 38100, Note_on_c, 7, 47, 0
9, 38100, Note_on_c, 7, 49, 70
9, 38160, Note_on_c, 7, 49, 0
9, 38160, Note_on_c, 7, 50, 70
9, 38220, Note_on_c, 7, 50, 0
9, 38220, Note_on_c, 7, 49, 71
9, 38280, Note_on_c, 7, 49, 0
9, 38280, Note_on_c, 7, 50, 71
9, 38340, Note_on_c, 7, 50, 0
9, 38340, Note_on_c, 7, 52, 72
9, 38400, Note_on_c, 7, 52, 0
9, 38400, Note_on_c, 7, 54, 72
9, 38460, Note_on_c, 7, 54, 0
9, 38460, Note_on_c, 7, 52, 72
9, 38520, Note_on_c, 7, 52, 0
9, 38520, Note_on_c, 7, 54, 73
9, 38580, Note_on_c, 7, 54, 0
9, 38580, Note_on_c, 7, 55, 73
9, 38640, Note_on_c, 7, 55, 0
9, 38640, Note_on_c, 7, 57, 74
9, 38700, Note_on_c, 7, 57, 0
9, 38700, Note_on_c, 7, 50, 74
9, 38760, Note_on_c, 7, 50, 0
9, 38760, Note_on_c, 7, 52, 74
9, 38820, Note_on_c, 7, 52, 0
9, 38820, Note_on_c, 7, 54, 75
9, 38880, Note_on_c, 7, 54, 0
9, 38880, Note_on_c, 7, 55, 75
9, 38940, Note_on_c, 7, 55, 0
9, 38940, Note_on_c, 7, 54, 76
9, 39000, Note_on_c, 7, 54, 0
9, 39000, Note_on_c, 7, 55, 76
9, 39060, Note_on_c, 7, 55, 0
9, 39060, Note_on_c, 7, 57, 76
9, 39120, Note_on_c, 7, 57, 0
9, 39120, Note_on_c, 7, 59, 77
9, 39191, Note_on_c, 7, 59, 0
9, 39240, Note_on_c, 7, 57, 78
9, 39300, Note_on_c, 7, 57, 0
9, 39300, Note_on_c, 7, 55, 78
9, 39360, Note_on_c, 7, 55, 0
9, 39360, Note_on_c, 7, 54, 78
9, 39431, Note_on_c, 7, 54, 0
9, 39480, Note_on_c, 7, 55, 79
9, 39551, Note_on_c, 7, 55, 0
9, 39600, Note_on_c, 7, 57, 90
9, 39840, Note_on_c, 7, 57, 0
9, 39840, Note_on_c, 7, 45, 90
9, 40080, Note_on_c, 7, 45, 0
9, 40080, Note_on_c, 7, 38, 90
9, 40560, Note_on_c, 7, 38, 0
9, 41040, End_track
10, 0, Start_track
10, 0, MIDI_port, 0
10, 0, Title_t, "Soprano I"
10, 0, Program_c, 10, 52
10, 0, Control_c, 10, 91, 127
10, 240, Note_on_c, 10, 76, 89
10, 480, Note_on_c, 10, 76, 0
10, 480, Note_on_c, 10, 76, 89
10, 720, Note_on_c, 10, 76, 0
10, 840, Note_on_c, 10, 78, 89
10, 911, Note_on_c, 10, 78, 0
10, 960, Note_on_c, 10, 76, 89
10, 1031, Note_on_c, 10, 76, 0
10, 1080, Note_on_c, 10, 81, 89
10, 1151, Note_on_c, 10, 81, 0
10, 1200, Note_on_c, 10, 78, 89
10, 1271, Note_on_c, 10, 78, 0
10, 1320, Note_on_c, 10, 74, 89
10, 1391, Note_on_c, 10, 74, 0
10, 2640, Note_on_c, 10, 76, 89
10, 2880, Note_on_c, 10, 76, 0
10, 2880, Note_on_c, 10, 73, 89
10, 3120, Note_on_c, 10, 73, 0
10, 3240, Note_on_c, 10, 78, 89
10, 3311, Note_on_c, 10, 78, 0
10, 3360, Note_on_c, 10, 76, 89
10, 3431, Note_on_c, 10, 76, 0
10, 3480, Note_on_c, 10, 76, 89
10, 3551, Note_on_c, 10, 76, 0
10, 3600, Note_on_c, 10, 76, 89
10, 3671, Note_on_c, 10, 76, 0
10, 3720, Note_on_c, 10, 69, 89
10, 3791, Note_on_c, 10, 69, 0
10, 4560, Note_on_c, 10, 76, 89
10, 4800, Note_on_c, 10, 76, 0
10, 4800, Note_on_c, 10, 74, 89
10, 5040, Note_on_c, 10, 74, 0
10, 5160, Note_on_c, 10, 69, 89
10, 5231, Note_on_c, 10, 69, 0
10, 5280, Note_on_c, 10, 76, 89
10, 5351, Note_on_c, 10, 76, 0
10, 5400, Note_on_c, 10, 76, 89
10, 5471, Note_on_c, 10, 76, 0
10, 5520, Note_on_c, 10, 78, 89
10, 5591, Note_on_c, 10, 78, 0
10, 5640, Note_on_c, 10, 74, 89
10, 5711, Note_on_c, 10, 74, 0
10, 7920, Note_on_c, 10, 74, 108
10, 8160, Note_on_c, 10, 74, 0
10, 8160, Note_on_c, 10, 74, 89
10, 8231, Note_on_c, 10, 74, 0
10, 8280, Note_on_c, 10, 74, 89
10, 8351, Note_on_c, 10, 74, 0
10, 8400, Note_on_c, 10, 73, 89
10, 8471, Note_on_c, 10, 73, 0
10, 8520, Note_on_c, 10, 76, 89
10, 8591, Note_on_c, 10, 76, 0
10, 8640, Note_on_c, 10, 78, 89
10, 8880, Note_on_c, 10, 78, 0
10, 8880, Note_on_c, 10, 67, 89
10, 8915, Note_on_c, 10, 67, 0
10, 9000, Note_on_c, 10, 79, 89
10, 9071, Note_on_c, 10, 79, 0
10, 9120, Note_on_c, 10, 76, 89
10, 9191, Note_on_c, 10, 76, 0
10, 9240, Note_on_c, 10, 71, 89
10, 9311, Note_on_c, 10, 71, 0
10, 9360, Note_on_c, 10, 73, 89
10, 9480, Note_on_c, 10, 73, 0
10, 9480, Note_on_c, 10, 69, 89
10, 9551, Note_on_c, 10, 69, 0
10, 9600, Note_on_c, 10, 74, 89
10, 9671, Note_on_c, 10, 74, 0
10, 9720, Note_on_c, 10, 67, 89
10, 9791, Note_on_c, 10, 67, 0
10, 9840, Note_on_c, 10, 66, 89
10, 10080, Note_on_c, 10, 66, 0
10, 10080, Note_on_c, 10, 64, 89
10, 10320, Note_on_c, 10, 64, 0
10, 10320, Note_on_c, 10, 62, 89
10, 10560, Note_on_c, 10, 62, 0
10, 10680, Note_on_c, 10, 64, 89
10, 10751, Note_on_c, 10, 64, 0
10, 10800, Note_on_c, 10, 66, 89
10, 10860, Note_on_c, 10, 66, 0
10, 10860, Note_on_c, 10, 69, 89
10, 10920, Note_on_c, 10, 69, 0
10, 10920, Note_on_c, 10, 71, 89
10, 10980, Note_on_c, 10, 71, 0
10, 10980, Note_on_c, 10, 73, 89
10, 11040, Note_on_c, 10, 73, 0
10, 11040, Note_on_c, 10, 74, 89
10, 11351, Note_on_c, 10, 74, 0
10, 11400, Note_on_c, 10, 73, 89
10, 11591, Note_on_c, 10, 73, 0
10, 11640, Note_on_c, 10, 78, 89
10, 11711, Note_on_c, 10, 78, 0
10, 11760, Note_on_c, 10, 76, 89
10, 11831, Note_on_c, 10, 76, 0
10, 11880, Note_on_c, 10, 69, 89
10, 11951, Note_on_c, 10, 69, 0
10, 12000, Note_on_c, 10, 69, 89
10, 12120, Note_on_c, 10, 69, 0
10, 12120, Note_on_c, 10, 68, 89
10, 12191, Note_on_c, 10, 68, 0
10, 12240, Note_on_c, 10, 69, 89
10, 12275, Note_on_c, 10, 69, 0
10, 12360, Note_on_c, 10, 69, 89
10, 12431, Note_on_c, 10, 69, 0
10, 12480, Note_on_c, 10, 78, 89
10, 12791, Note_on_c, 10, 78, 0
10, 12840, Note_on_c, 10, 76, 89
10, 12900, Note_on_c, 10, 76, 0
10, 12900, Note_on_c, 10, 74, 89
10, 12960, Note_on_c, 10, 74, 0
10, 12960, Note_on_c, 10, 76, 89
10, 13020, Note_on_c, 10, 76, 0
10, 13020, Note_on_c, 10, 78, 89
10, 13080, Note_on_c, 10, 78, 0
10, 13080, Note_on_c, 10, 76, 89
10, 13140, Note_on_c, 10, 76, 0
10, 13140, Note_on_c, 10, 74, 89
10, 13200, Note_on_c, 10, 74, 0
10, 13200, Note_on_c, 10, 73, 89
10, 13260, Note_on_c, 10, 73, 0
10, 13260, Note_on_c, 10, 69, 89
10, 13320, Note_on_c, 10, 69, 0
10, 13320, Note_on_c, 10, 71, 89
10, 13380, Note_on_c, 10, 71, 0
10, 13380, Note_on_c, 10, 73, 89
10, 13440, Note_on_c, 10, 73, 0
10, 13440, Note_on_c, 10, 74, 89
10, 13511, Note_on_c, 10, 74, 0
10, 13560, Note_on_c, 10, 79, 89
10, 13751, Note_on_c, 10, 79, 0
10, 13800, Note_on_c, 10, 78, 89
10, 13871, Note_on_c, 10, 78, 0
10, 13920, Note_on_c, 10, 76, 89
10, 13991, Note_on_c, 10, 76, 0
10, 14040, Note_on_c, 10, 76, 89
10, 14231, Note_on_c, 10, 76, 0
10, 14280, Note_on_c, 10, 74, 89
10, 14520, Note_on_c, 10, 74, 0
10, 14520, Note_on_c, 10, 72, 89
10, 14580, Note_on_c, 10, 72, 0
10, 14580, Note_on_c, 10, 74, 89
10, 14640, Note_on_c, 10, 74, 0
10, 14640, Note_on_c, 10, 76, 89
10, 15000, Note_on_c, 10, 76, 0
10, 15000, Note_on_c, 10, 74, 89
10, 15060, Note_on_c, 10, 74, 0
10, 15060, Note_on_c, 10, 76, 89
10, 15120, Note_on_c, 10, 76, 0
10, 15120, Note_on_c, 10, 69, 89
10, 15191, Note_on_c, 10, 69, 0
10, 15240, Note_on_c, 10, 74, 89
10, 15420, Note_on_c, 10, 74, 0
10, 15420, Note_on_c, 10, 72, 89
10, 15480, Note_on_c, 10, 72, 0
10, 15480, Note_on_c, 10, 71, 89
10, 15540, Note_on_c, 10, 71, 0
10, 15540, Note_on_c, 10, 69, 89
10, 15600, Note_on_c, 10, 69, 0
10, 15600, Note_on_c, 10, 71, 89
10, 15660, Note_on_c, 10, 71, 0
10, 15660, Note_on_c, 10, 73, 89
10, 15720, Note_on_c, 10, 73, 0
10, 15720, Note_on_c, 10, 75, 89
10, 15780, Note_on_c, 10, 75, 0
10, 15780, Note_on_c, 10, 76, 89
10, 15840, Note_on_c, 10, 76, 0
10, 15840, Note_on_c, 10, 78, 89
10, 16151, Note_on_c, 10, 78, 0
10, 16200, Note_on_c, 10, 76, 89
10, 16260, Note_on_c, 10, 76, 0
10, 16260, Note_on_c, 10, 74, 89
10, 16320, Note_on_c, 10, 74, 0
10, 16320, Note_on_c, 10, 72, 89
10, 16380, Note_on_c, 10, 72, 0
10, 16380, Note_on_c, 10, 71, 89
10, 16440, Note_on_c, 10, 71, 0
10, 16440, Note_on_c, 10, 69, 89
10, 16500, Note_on_c, 10, 69, 0
10, 16500, Note_on_c, 10, 67, 89
10, 16560, Note_on_c, 10, 67, 0
10, 16560, Note_on_c, 10, 69, 89
10, 16620, Note_on_c, 10, 69, 0
10, 16620, Note_on_c, 10, 71, 89
10, 16680, Note_on_c, 10, 71, 0
10, 16680, Note_on_c, 10, 73, 89
10, 16740, Note_on_c, 10, 73, 0
10, 16740, Note_on_c, 10, 75, 89
10, 16800, Note_on_c, 10, 75, 0
10, 16800, Note_on_c, 10, 76, 89
10, 16980, Note_on_c, 10, 76, 0
10, 16980, Note_on_c, 10, 78, 89
10, 17040, Note_on_c, 10, 78, 0
10, 17040, Note_on_c, 10, 75, 89
10, 17075, Note_on_c, 10, 75, 0
10, 17160, Note_on_c, 10, 71, 89
10, 17231, Note_on_c, 10, 71, 0
10, 17280, Note_on_c, 10, 76, 89
10, 17591, Note_on_c, 10, 76, 0
10, 17640, Note_on_c, 10, 74, 89
10, 17700, Note_on_c, 10, 74, 0
10, 17700, Note_on_c, 10, 73, 89
10, 17760, Note_on_c, 10, 73, 0
10, 17760, Note_on_c, 10, 74, 89
10, 18060, Note_on_c, 10, 74, 0
10, 18060, Note_on_c, 10, 73, 89
10, 18120, Note_on_c, 10, 73, 0
10, 18120, Note_on_c, 10, 74, 89
10, 18180, Note_on_c, 10, 74, 0
10, 18180, Note_on_c, 10, 76, 89
10, 18240, Note_on_c, 10, 76, 0
10, 18240, Note_on_c, 10, 74, 89
10, 18300, Note_on_c, 10, 74, 0
10, 18300, Note_on_c, 10, 73, 89
10, 18360, Note_on_c, 10, 73, 0
10, 18360, Note_on_c, 10, 71, 89
10, 18420, Note_on_c, 10, 71, 0
10, 18420, Note_on_c, 10, 69, 89
10, 18480, Note_on_c, 10, 69, 0
10, 18480, Note_on_c, 10, 71, 89
10, 18515, Note_on_c, 10, 71, 0
10, 18600, Note_on_c, 10, 76, 108
10, 18671, Note_on_c, 10, 76, 0
10, 18720, Note_on_c, 10, 76, 89
10, 18791, Note_on_c, 10, 76, 0
10, 18840, Note_on_c, 10, 76, 89
10, 18911, Note_on_c, 10, 76, 0
10, 18960, Note_on_c, 10, 73, 89
10, 19031, Note_on_c, 10, 73, 0
10, 19080, Note_on_c, 10, 76, 89
10, 19151, Note_on_c, 10, 76, 0
10, 19200, Note_on_c, 10, 78, 89
10, 19440, Note_on_c, 10, 78, 0
10, 19440, Note_on_c, 10, 67, 89
10, 19475, Note_on_c, 10, 67, 0
10, 19560, Note_on_c, 10, 79, 89
10, 19631, Note_on_c, 10, 79, 0
10, 19680, Note_on_c, 10, 76, 89
10, 19751, Note_on_c, 10, 76, 0
10, 19800, Note_on_c, 10, 71, 89
10, 19871, Note_on_c, 10, 71, 0
10, 19920, Note_on_c, 10, 73, 89
10, 20040, Note_on_c, 10, 73, 0
10, 20040, Note_on_c, 10, 69, 89
10, 20111, Note_on_c, 10, 69, 0
10, 20160, Note_on_c, 10, 74, 89
10, 20231, Note_on_c, 10, 74, 0
10, 20280, Note_on_c, 10, 67, 89
10, 20351, Note_on_c, 10, 67, 0
10, 20400, Note_on_c, 10, 66, 89
10, 20640, Note_on_c, 10, 66, 0
10, 20640, Note_on_c, 10, 64, 89
10, 20880, Note_on_c, 10, 64, 0
10, 20880, Note_on_c, 10, 62, 89
10, 21120, Note_on_c, 10, 62, 0
10, 21240, Note_on_c, 10, 64, 89
10, 21311, Note_on_c, 10, 64, 0
10, 21360, Note_on_c, 10, 66, 89
10, 21420, Note_on_c, 10, 66, 0
10, 21420, Note_on_c, 10, 69, 89
10, 21480, Note_on_c, 10, 69, 0
10, 21480, Note_on_c, 10, 71, 89
10, 21540, Note_on_c, 10, 71, 0
10, 21540, Note_on_c, 10, 73, 89
10, 21600, Note_on_c, 10, 73, 0
10, 21600, Note_on_c, 10, 74, 89
10, 21911, Note_on_c, 10, 74, 0
10, 21960, Note_on_c, 10, 73, 89
10, 22200, Note_on_c, 10, 73, 0
10, 22200, Note_on_c, 10, 78, 89
10, 22271, Note_on_c, 10, 78, 0
10, 22320, Note_on_c, 10, 76, 89
10, 22391, Note_on_c, 10, 76, 0
10, 22440, Note_on_c, 10, 69, 89
10, 22511, Note_on_c, 10, 69, 0
10, 22560, Note_on_c, 10, 69, 89
10, 22680, Note_on_c, 10, 69, 0
10, 22680, Note_on_c, 10, 68, 89
10, 22751, Note_on_c, 10, 68, 0
10, 22800, Note_on_c, 10, 69, 89
10, 23051, Note_on_c, 10, 69, 0
10, 23160, Note_on_c, 10, 74, 89
10, 23231, Note_on_c, 10, 74, 0
10, 23280, Note_on_c, 10, 71, 89
10, 23640, Note_on_c, 10, 71, 0
10, 23640, Note_on_c, 10, 73, 89
10, 23700, Note_on_c, 10, 73, 0
10, 23700, Note_on_c, 10, 74, 89
10, 23760, Note_on_c, 10, 74, 0
10, 23760, Note_on_c, 10, 76, 89
10, 23831, Note_on_c, 10, 76, 0
10, 23880, Note_on_c, 10, 74, 89
10, 23940, Note_on_c, 10, 74, 0
10, 23940, Note_on_c, 10, 76, 89
10, 24000, Note_on_c, 10, 76, 0
10, 24000, Note_on_c, 10, 78, 89
10, 24060, Note_on_c, 10, 78, 0
10, 24060, Note_on_c, 10, 76, 89
10, 24120, Note_on_c, 10, 76, 0
10, 24120, Note_on_c, 10, 78, 89
10, 24180, Note_on_c, 10, 78, 0
10, 24180, Note_on_c, 10, 79, 89
10, 24240, Note_on_c, 10, 79, 0
10, 24240, Note_on_c, 10, 73, 89
10, 24311, Note_on_c, 10, 73, 0
10, 24360, Note_on_c, 10, 74, 89
10, 24431, Note_on_c, 10, 74, 0
10, 24480, Note_on_c, 10, 76, 89
10, 24720, Note_on_c, 10, 76, 0
10, 24720, Note_on_c, 10, 69, 89
10, 24755, Note_on_c, 10, 69, 0
10, 24840, Note_on_c, 10, 74, 89
10, 25080, Note_on_c, 10, 74, 0
10, 25080, Note_on_c, 10, 79, 89
10, 25151, Note_on_c, 10, 79, 0
10, 25200, Note_on_c, 10, 76, 89
10, 25260, Note_on_c, 10, 76, 0
10, 25260, Note_on_c, 10, 77, 89
10, 25320, Note_on_c, 10, 77, 0
10, 25320, Note_on_c, 10, 76, 89
10, 25380, Note_on_c, 10, 76, 0
10, 25380, Note_on_c, 10, 74, 89
10, 25440, Note_on_c, 10, 74, 0
10, 25440, Note_on_c, 10, 76, 89
10, 25500, Note_on_c, 10, 76, 0
10, 25500, Note_on_c, 10, 74, 89
10, 25560, Note_on_c, 10, 74, 0
10, 25560, Note_on_c, 10, 72, 89
10, 25620, Note_on_c, 10, 72, 0
10, 25620, Note_on_c, 10, 71, 89
10, 25680, Note_on_c, 10, 71, 0
10, 25680, Note_on_c, 10, 69, 89
10, 25740, Note_on_c, 10, 69, 0
10, 25740, Note_on_c, 10, 67, 89
10, 25800, Note_on_c, 10, 67, 0
10, 25800, Note_on_c, 10, 69, 89
10, 25860, Note_on_c, 10, 69, 0
10, 25860, Note_on_c, 10, 66, 89
10, 25920, Note_on_c, 10, 66, 0
10, 25920, Note_on_c, 10, 67, 89
10, 25980, Note_on_c, 10, 67, 0
10, 25980, Note_on_c, 10, 66, 89
10, 26040, Note_on_c, 10, 66, 0
10, 26040, Note_on_c, 10, 64, 89
10, 26100, Note_on_c, 10, 64, 0
10, 26100, Note_on_c, 10, 67, 89
10, 26160, Note_on_c, 10, 67, 0
10, 26160, Note_on_c, 10, 66, 89
10, 26220, Note_on_c, 10, 66, 0
10, 26220, Note_on_c, 10, 67, 89
10, 26280, Note_on_c, 10, 67, 0
10, 26280, Note_on_c, 10, 69, 89
10, 26340, Note_on_c, 10, 69, 0
10, 26340, Note_on_c, 10, 71, 89
10, 26400, Note_on_c, 10, 71, 0
10, 26400, Note_on_c, 10, 72, 89
10, 26460, Note_on_c, 10, 72, 0
10, 26460, Note_on_c, 10, 71, 89
10, 26520, Note_on_c, 10, 71, 0
10, 26520, Note_on_c, 10, 72, 89
10, 26580, Note_on_c, 10, 72, 0
10, 26580, Note_on_c, 10, 69, 89
10, 26640, Note_on_c, 10, 69, 0
10, 26640, Note_on_c, 10, 71, 89
10, 26711, Note_on_c, 10, 71, 0
10, 26760, Note_on_c, 10, 73, 89
10, 26820, Note_on_c, 10, 73, 0
10, 26820, Note_on_c, 10, 75, 89
10, 26880, Note_on_c, 10, 75, 0
10, 26880, Note_on_c, 10, 76, 89
10, 27191, Note_on_c, 10, 76, 0
10, 27240, Note_on_c, 10, 74, 89
10, 27300, Note_on_c, 10, 74, 0
10, 27300, Note_on_c, 10, 73, 89
10, 27360, Note_on_c, 10, 73, 0
10, 27360, Note_on_c, 10, 74, 89
10, 27395, Note_on_c, 10, 74, 0
10, 27480, Note_on_c, 10, 79, 89
10, 27551, Note_on_c, 10, 79, 0
10, 27600, Note_on_c, 10, 72, 89
10, 27671, Note_on_c, 10, 72, 0
10, 27720, Note_on_c, 10, 72, 89
10, 27780, Note_on_c, 10, 72, 0
10, 27780, Note_on_c, 10, 72, 89
10, 27840, Note_on_c, 10, 72, 0
10, 27840, Note_on_c, 10, 72, 89
10, 27911, Note_on_c, 10, 72, 0
10, 27960, Note_on_c, 10, 72, 89
10, 28031, Note_on_c, 10, 72, 0
10, 28080, Note_on_c, 10, 71, 89
10, 28115, Note_on_c, 10, 71, 0
10, 28200, Note_on_c, 10, 74, 89
10, 28271, Note_on_c, 10, 74, 0
10, 28320, Note_on_c, 10, 79, 89
10, 28620, Note_on_c, 10, 79, 0
10, 28620, Note_on_c, 10, 73, 89
10, 28680, Note_on_c, 10, 73, 0
10, 28680, Note_on_c, 10, 74, 89
10, 28740, Note_on_c, 10, 74, 0
10, 28740, Note_on_c, 10, 76, 89
10, 28800, Note_on_c, 10, 76, 0
10, 28800, Note_on_c, 10, 78, 89
10, 29111, Note_on_c, 10, 78, 0
10, 29160, Note_on_c, 10, 76, 89
10, 29220, Note_on_c, 10, 76, 0
10, 29220, Note_on_c, 10, 74, 89
10, 29280, Note_on_c, 10, 74, 0
10, 29280, Note_on_c, 10, 76, 89
10, 29580, Note_on_c, 10, 76, 0
10, 29580, Note_on_c, 10, 79, 89
10, 29640, Note_on_c, 10, 79, 0
10, 29640, Note_on_c, 10, 78, 89
10, 29700, Note_on_c, 10, 78, 0
10, 29700, Note_on_c, 10, 76, 89
10, 29760, Note_on_c, 10, 76, 0
10, 29760, Note_on_c, 10, 74, 89
10, 29820, Note_on_c, 10, 74, 0
10, 29820, Note_on_c, 10, 73, 89
10, 29880, Note_on_c, 10, 73, 0
10, 29880, Note_on_c, 10, 71, 89
10, 29940, Note_on_c, 10, 71, 0
10, 29940, Note_on_c, 10, 69, 89
10, 30000, Note_on_c, 10, 69, 0
10, 30000, Note_on_c, 10, 68, 89
10, 30060, Note_on_c, 10, 68, 0
10, 30060, Note_on_c, 10, 64, 89
10, 30120, Note_on_c, 10, 64, 0
10, 30120, Note_on_c, 10, 66, 89
10, 30180, Note_on_c, 10, 66, 0
10, 30180, Note_on_c, 10, 68, 89
10, 30240, Note_on_c, 10, 68, 0
10, 30240, Note_on_c, 10, 69, 89
10, 30300, Note_on_c, 10, 69, 0
10, 30300, Note_on_c, 10, 71, 89
10, 30360, Note_on_c, 10, 71, 0
10, 30360, Note_on_c, 10, 73, 89
10, 30420, Note_on_c, 10, 73, 0
10, 30420, Note_on_c, 10, 69, 89
10, 30480, Note_on_c, 10, 69, 0
10, 30480, Note_on_c, 10, 74, 108
10, 30720, Note_on_c, 10, 74, 0
10, 30720, Note_on_c, 10, 74, 89
10, 30791, Note_on_c, 10, 74, 0
10, 30840, Note_on_c, 10, 74, 89
10, 30911, Note_on_c, 10, 74, 0
10, 30960, Note_on_c, 10, 73, 89
10, 31031, Note_on_c, 10, 73, 0
10, 31080, Note_on_c, 10, 76, 89
10, 31151, Note_on_c, 10, 76, 0
10, 31200, Note_on_c, 10, 78, 89
10, 31440, Note_on_c, 10, 78, 0
10, 31440, Note_on_c, 10, 67, 89
10, 31475, Note_on_c, 10, 67, 0
10, 31560, Note_on_c, 10, 79, 89
10, 31631, Note_on_c, 10, 79, 0
10, 31680, Note_on_c, 10, 76, 89
10, 31751, Note_on_c, 10, 76, 0
10, 31800, Note_on_c, 10, 71, 89
10, 31871, Note_on_c, 10, 71, 0
10, 31920, Note_on_c, 10, 73, 89
10, 32040, Note_on_c, 10, 73, 0
10, 32040, Note_on_c, 10, 69, 89
10, 32111, Note_on_c, 10, 69, 0
10, 32160, Note_on_c, 10, 74, 89
10, 32195, Note_on_c, 10, 74, 0
10, 32280, Note_on_c, 10, 67, 89
10, 32351, Note_on_c, 10, 67, 0
10, 32400, Note_on_c, 10, 66, 89
10, 32640, Note_on_c, 10, 66, 0
10, 32640, Note_on_c, 10, 64, 89
10, 32880, Note_on_c, 10, 64, 0
10, 32880, Note_on_c, 10, 62, 60
10, 32951, Note_on_c, 10, 62, 0
10, 33000, Note_on_c, 10, 69, 63
10, 33060, Note_on_c, 10, 69, 0
10, 33060, Note_on_c, 10, 71, 65
10, 33120, Note_on_c, 10, 71, 0
10, 33120, Note_on_c, 10, 72, 67
10, 33431, Note_on_c, 10, 72, 0
10, 33480, Note_on_c, 10, 71, 77
10, 33540, Note_on_c, 10, 71, 0
10, 33540, Note_on_c, 10, 69, 78
10, 33600, Note_on_c, 10, 69, 0
10, 33600, Note_on_c, 10, 71, 80
10, 33671, Note_on_c, 10, 71, 0
10, 33720, Note_on_c, 10, 67, 83
10, 33791, Note_on_c, 10, 67, 0
10, 33840, Note_on_c, 10, 69, 87
10, 33911, Note_on_c, 10, 69, 0
10, 34200, Note_on_c, 10, 69, 97
10, 34271, Note_on_c, 10, 69, 0
10, 34320, Note_on_c, 10, 74, 95
10, 34391, Note_on_c, 10, 74, 0
10, 34440, Note_on_c, 10, 74, 95
10, 34680, Note_on_c, 10, 74, 0
10, 34680, Note_on_c, 10, 73, 95
10, 34740, Note_on_c, 10, 73, 0
10, 34740, Note_on_c, 10, 71, 95
10, 34800, Note_on_c, 10, 71, 0
10, 34800, Note_on_c, 10, 73, 95
10, 34871, Note_on_c, 10, 73, 0
10, 34920, Note_on_c, 10, 74, 95
10, 34980, Note_on_c, 10, 74, 0
10, 34980, Note_on_c, 10, 76, 95
10, 35040, Note_on_c, 10, 76, 0
10, 35040, Note_on_c, 10, 69, 95
10, 35075, Note_on_c, 10, 69, 0
10, 35160, Note_on_c, 10, 74, 95
10, 35231, Note_on_c, 10, 74, 0
10, 35280, Note_on_c, 10, 79, 95
10, 35351, Note_on_c, 10, 79, 0
10, 35400, Note_on_c, 10, 79, 95
10, 35640, Note_on_c, 10, 79, 0
10, 35640, Note_on_c, 10, 78, 95
10, 35700, Note_on_c, 10, 78, 0
10, 35700, Note_on_c, 10, 76, 95
10, 35760, Note_on_c, 10, 76, 0
10, 35760, Note_on_c, 10, 78, 95
10, 35831, Note_on_c, 10, 78, 0
10, 35880, Note_on_c, 10, 83, 95
10, 35951, Note_on_c, 10, 83, 0
10, 36000, Note_on_c, 10, 76, 95
10, 36071, Note_on_c, 10, 76, 0
10, 36120, Note_on_c, 10, 74, 95
10, 36180, Note_on_c, 10, 74, 0
10, 36180, Note_on_c, 10, 73, 95
10, 36240, Note_on_c, 10, 73, 0
10, 36240, Note_on_c, 10, 74, 95
10, 36311, Note_on_c, 10, 74, 0
10, 36360, Note_on_c, 10, 79, 95
10, 36431, Note_on_c, 10, 79, 0
10, 36480, Note_on_c, 10, 73, 95
10, 36515, Note_on_c, 10, 73, 0
10, 36600, Note_on_c, 10, 78, 95
10, 36671, Note_on_c, 10, 78, 0
10, 36720, Note_on_c, 10, 71, 95
10, 36791, Note_on_c, 10, 71, 0
10, 36840, Note_on_c, 10, 71, 95
10, 36900, Note_on_c, 10, 71, 0
10, 36900, Note_on_c, 10, 69, 95
10, 36960, Note_on_c, 10, 69, 0
10, 36960, Note_on_c, 10, 71, 95
10, 37031, Note_on_c, 10, 71, 0
10, 37080, Note_on_c, 10, 73, 95
10, 37151, Note_on_c, 10, 73, 0
10, 37200, Note_on_c, 10, 74, 89
10, 37235, Note_on_c, 10, 74, 0
10, 37320, Note_on_c, 10, 74, 90
10, 37380, Note_on_c, 10, 74, 0
10, 37380, Note_on_c, 10, 74, 90
10, 37440, Note_on_c, 10, 74, 0
10, 37440, Note_on_c, 10, 74, 91
10, 37511, Note_on_c, 10, 74, 0
10, 37560, Note_on_c, 10, 74, 91
10, 37620, Note_on_c, 10, 74, 0
10, 37620, Note_on_c, 10, 74, 92
10, 37680, Note_on_c, 10, 74, 0
10, 37680, Note_on_c, 10, 74, 92
10, 38441, Note_on_c, 10, 74, 0
10, 38460, Note_on_c, 10, 73, 97
10, 38520, Note_on_c, 10, 73, 0
10, 38520, Note_on_c, 10, 74, 98
10, 38580, Note_on_c, 10, 74, 0
10, 38580, Note_on_c, 10, 76, 98
10, 38640, Note_on_c, 10, 76, 0
10, 38640, Note_on_c, 10, 78, 99
10, 39000, Note_on_c, 10, 78, 0
10, 39000, Note_on_c, 10, 76, 101
10, 39071, Note_on_c, 10, 76, 0
10, 39120, Note_on_c, 10, 74, 102
10, 39180, Note_on_c, 10, 74, 0
10, 39180, Note_on_c, 10, 76, 102
10, 39240, Note_on_c, 10, 76, 0
10, 39240, Note_on_c, 10, 78, 103
10, 39300, Note_on_c, 10, 78, 0
10, 39300, Note_on_c, 10, 79, 103
10, 39360, Note_on_c, 10, 79, 0
10, 39360, Note_on_c, 10, 81, 103
10, 39431, Note_on_c, 10, 81, 0
10, 39480, Note_on_c, 10, 74, 104
10, 39551, Note_on_c, 10, 74, 0
10, 39600, Note_on_c, 10, 74, 115
10, 39720, Note_on_c, 10, 74, 0
10, 39720, Note_on_c, 10, 73, 115
10, 39780, Note_on_c, 10, 73, 0
10, 39780, Note_on_c, 10, 71, 115
10, 39840, Note_on_c, 10, 71, 0
10, 39840, Note_on_c, 10, 73, 115
10, 40080, Note_on_c, 10, 73, 0
10, 40080, Note_on_c, 10, 74, 115
10, 40560, Note_on_c, 10, 74, 0
10, 41040, End_track
11, 0, Start_track
11, 0, MIDI_port, 0
11, 0, Title_t, "Alto"
11, 0, Program_c, 11, 52
11, 0, Control_c, 11, 91, 127
11, 240, Note_on_c, 11, 69, 89
11, 480, Note_on_c, 11, 69, 0
11, 480, Note_on_c, 11, 69, 89
11, 720, Note_on_c, 11, 69, 0
11, 840, Note_on_c, 11, 69, 89
11, 911, Note_on_c, 11, 69, 0
11, 960, Note_on_c, 11, 69, 89
11, 1031, Note_on_c, 11, 69, 0
11, 1080, Note_on_c, 11, 69, 89
11, 1151, Note_on_c, 11, 69, 0
11, 1200, Note_on_c, 11, 69, 89
11, 1271, Note_on_c, 11, 69, 0
11, 1320, Note_on_c, 11, 66, 89
11, 1391, Note_on_c, 11, 66, 0
11, 2640, Note_on_c, 11, 69, 89
11, 2880, Note_on_c, 11, 69, 0
11, 2880, Note_on_c, 11, 69, 89
11, 3120, Note_on_c, 11, 69, 0
11, 3240, Note_on_c, 11, 69, 89
11, 3311, Note_on_c, 11, 69, 0
11, 3360, Note_on_c, 11, 68, 89
11, 3431, Note_on_c, 11, 68, 0
11, 3480, Note_on_c, 11, 71, 89
11, 3551, Note_on_c, 11, 71, 0
11, 3600, Note_on_c, 11, 73, 89
11, 3671, Note_on_c, 11, 73, 0
11, 3720, Note_on_c, 11, 73, 89
11, 3791, Note_on_c, 11, 73, 0
11, 4560, Note_on_c, 11, 69, 89
11, 4800, Note_on_c, 11, 69, 0
11, 4800, Note_on_c, 11, 62, 89
11, 5040, Note_on_c, 11, 62, 0
11, 5040, Note_on_c, 11, 69, 108
11, 5280, Note_on_c, 11, 69, 0
11, 5280, Note_on_c, 11, 69, 89
11, 5351, Note_on_c, 11, 69, 0
11, 5400, Note_on_c, 11, 69, 89
11, 5471, Note_on_c, 11, 69, 0
11, 5520, Note_on_c, 11, 66, 89
11, 5591, Note_on_c, 11, 66, 0
11, 5640, Note_on_c, 11, 69, 89
11, 5711, Note_on_c, 11, 69, 0
11, 5760, Note_on_c, 11, 73, 89
11, 6000, Note_on_c, 11, 73, 0
11, 6000, Note_on_c, 11, 62, 89
11, 6035, Note_on_c, 11, 62, 0
11, 6120, Note_on_c, 11, 74, 89
11, 6191, Note_on_c, 11, 74, 0
11, 6240, Note_on_c, 11, 71, 89
11, 6311, Note_on_c, 11, 71, 0
11, 6360, Note_on_c, 11, 66, 89
11, 6431, Note_on_c, 11, 66, 0
11, 6480, Note_on_c, 11, 68, 89
11, 6600, Note_on_c, 11, 68, 0
11, 6600, Note_on_c, 11, 64, 89
11, 6671, Note_on_c, 11, 64, 0
11, 6720, Note_on_c, 11, 69, 89
11, 6791, Note_on_c, 11, 69, 0
11, 6840, Note_on_c, 11, 62, 89
11, 6911, Note_on_c, 11, 62, 0
11, 6960, Note_on_c, 11, 61, 89
11, 7200, Note_on_c, 11, 61, 0
11, 7200, Note_on_c, 11, 59, 89
11, 7440, Note_on_c, 11, 59, 0
11, 7440, Note_on_c, 11, 57, 89
11, 7475, Note_on_c, 11, 57, 0
11, 7560, Note_on_c, 11, 73, 89
11, 7631, Note_on_c, 11, 73, 0
11, 7680, Note_on_c, 11, 69, 89
11, 7751, Note_on_c, 11, 69, 0
11, 7800, Note_on_c, 11, 64, 89
11, 7871, Note_on_c, 11, 64, 0
11, 7920, Note_on_c, 11, 66, 89
11, 8040, Note_on_c, 11, 66, 0
11, 8040, Note_on_c, 11, 62, 89
11, 8111, Note_on_c, 11, 62, 0
11, 8160, Note_on_c, 11, 59, 89
11, 8231, Note_on_c, 11, 59, 0
11, 8280, Note_on_c, 11, 68, 89
11, 8351, Note_on_c, 11, 68, 0
11, 8400, Note_on_c, 11, 69, 89
11, 8471, Note_on_c, 11, 69, 0
11, 8520, Note_on_c, 11, 57, 89
11, 8591, Note_on_c, 11, 57, 0
11, 8760, Note_on_c, 11, 57, 89
11, 8831, Note_on_c, 11, 57, 0
11, 8880, Note_on_c, 11, 59, 89
11, 8940, Note_on_c, 11, 59, 0
11, 8940, Note_on_c, 11, 62, 89
11, 9000, Note_on_c, 11, 62, 0
11, 9000, Note_on_c, 11, 64, 89
11, 9060, Note_on_c, 11, 64, 0
11, 9060, Note_on_c, 11, 66, 89
11, 9120, Note_on_c, 11, 66, 0
11, 9120, Note_on_c, 11, 67, 89
11, 9431, Note_on_c, 11, 67, 0
11, 9480, Note_on_c, 11, 66, 89
11, 9671, Note_on_c, 11, 66, 0
11, 9720, Note_on_c, 11, 71, 89
11, 9791, Note_on_c, 11, 71, 0
11, 9840, Note_on_c, 11, 69, 89
11, 9911, Note_on_c, 11, 69, 0
11, 9960, Note_on_c, 11, 62, 89
11, 10031, Note_on_c, 11, 62, 0
11, 10080, Note_on_c, 11, 62, 89
11, 10200, Note_on_c, 11, 62, 0
11, 10200, Note_on_c, 11, 61, 89
11, 10271, Note_on_c, 11, 61, 0
11, 10320, Note_on_c, 11, 62, 89
11, 10355, Note_on_c, 11, 62, 0
11, 10440, Note_on_c, 11, 62, 89
11, 10511, Note_on_c, 11, 62, 0
11, 10560, Note_on_c, 11, 57, 89
11, 10860, Note_on_c, 11, 57, 0
11, 10860, Note_on_c, 11, 61, 89
11, 10920, Note_on_c, 11, 61, 0
11, 10920, Note_on_c, 11, 62, 89
11, 10980, Note_on_c, 11, 62, 0
11, 10980, Note_on_c, 11, 64, 89
11, 11040, Note_on_c, 11, 64, 0
11, 11040, Note_on_c, 11, 66, 89
11, 11111, Note_on_c, 11, 66, 0
11, 11160, Note_on_c, 11, 66, 89
11, 11231, Note_on_c, 11, 66, 0
11, 11280, Note_on_c, 11, 64, 89
11, 11640, Note_on_c, 11, 64, 0
11, 11640, Note_on_c, 11, 62, 89
11, 11711, Note_on_c, 11, 62, 0
11, 11760, Note_on_c, 11, 64, 89
11, 11831, Note_on_c, 11, 64, 0
11, 11880, Note_on_c, 11, 64, 89
11, 11951, Note_on_c, 11, 64, 0
11, 12000, Note_on_c, 11, 66, 89
11, 12120, Note_on_c, 11, 66, 0
11, 12120, Note_on_c, 11, 62, 89
11, 12191, Note_on_c, 11, 62, 0
11, 12240, Note_on_c, 11, 64, 89
11, 12275, Note_on_c, 11, 64, 0
11, 12360, Note_on_c, 11, 66, 89
11, 12420, Note_on_c, 11, 66, 0
11, 12420, Note_on_c, 11, 67, 89
11, 12480, Note_on_c, 11, 67, 0
11, 12480, Note_on_c, 11, 69, 89
11, 12791, Note_on_c, 11, 69, 0
11, 12840, Note_on_c, 11, 67, 89
11, 12900, Note_on_c, 11, 67, 0
11, 12900, Note_on_c, 11, 69, 89
11, 12960, Note_on_c, 11, 69, 0
11, 12960, Note_on_c, 11, 71, 89
11, 13020, Note_on_c, 11, 71, 0
11, 13020, Note_on_c, 11, 69, 89
11, 13080, Note_on_c, 11, 69, 0
11, 13080, Note_on_c, 11, 67, 89
11, 13140, Note_on_c, 11, 67, 0
11, 13140, Note_on_c, 11, 66, 89
11, 13200, Note_on_c, 11, 66, 0
11, 13200, Note_on_c, 11, 64, 89
11, 13271, Note_on_c, 11, 64, 0
11, 13320, Note_on_c, 11, 66, 89
11, 13380, Note_on_c, 11, 66, 0
11, 13380, Note_on_c, 11, 67, 89
11, 13440, Note_on_c, 11, 67, 0
11, 13440, Note_on_c, 11, 69, 89
11, 13511, Note_on_c, 11, 69, 0
11, 13560, Note_on_c, 11, 71, 89
11, 13631, Note_on_c, 11, 71, 0
11, 13680, Note_on_c, 11, 64, 89
11, 13751, Note_on_c, 11, 64, 0
11, 13800, Note_on_c, 11, 66, 89
11, 13860, Note_on_c, 11, 66, 0
11, 13860, Note_on_c, 11, 67, 89
11, 13920, Note_on_c, 11, 67, 0
11, 13920, Note_on_c, 11, 69, 89
11, 13955, Note_on_c, 11, 69, 0
11, 14040, Note_on_c, 11, 69, 89
11, 14111, Note_on_c, 11, 69, 0
11, 14160, Note_on_c, 11, 69, 89
11, 14195, Note_on_c, 11, 69, 0
11, 14280, Note_on_c, 11, 66, 89
11, 14351, Note_on_c, 11, 66, 0
11, 14400, Note_on_c, 11, 67, 89
11, 14700, Note_on_c, 11, 67, 0
11, 14700, Note_on_c, 11, 64, 89
11, 14760, Note_on_c, 11, 64, 0
11, 14760, Note_on_c, 11, 66, 89
11, 14820, Note_on_c, 11, 66, 0
11, 14820, Note_on_c, 11, 67, 89
11, 14880, Note_on_c, 11, 67, 0
11, 14880, Note_on_c, 11, 69, 89
11, 15191, Note_on_c, 11, 69, 0
11, 15240, Note_on_c, 11, 71, 89
11, 15300, Note_on_c, 11, 71, 0
11, 15300, Note_on_c, 11, 69, 89
11, 15360, Note_on_c, 11, 69, 0
11, 15360, Note_on_c, 11, 67, 89
11, 15420, Note_on_c, 11, 67, 0
11, 15420, Note_on_c, 11, 66, 89
11, 15480, Note_on_c, 11, 66, 0
11, 15480, Note_on_c, 11, 67, 89
11, 15540, Note_on_c, 11, 67, 0
11, 15540, Note_on_c, 11, 69, 89
11, 15600, Note_on_c, 11, 69, 0
11, 15600, Note_on_c, 11, 62, 89
11, 15660, Note_on_c, 11, 62, 0
11, 15660, Note_on_c, 11, 67, 89
11, 15720, Note_on_c, 11, 67, 0
11, 15720, Note_on_c, 11, 66, 89
11, 15780, Note_on_c, 11, 66, 0
11, 15780, Note_on_c, 11, 64, 89
11, 15840, Note_on_c, 11, 64, 0
11, 15840, Note_on_c, 11, 72, 89
11, 15911, Note_on_c, 11, 72, 0
11, 15960, Note_on_c, 11, 71, 89
11, 16151, Note_on_c, 11, 71, 0
11, 16200, Note_on_c, 11, 72, 89
11, 16260, Note_on_c, 11, 72, 0
11, 16260, Note_on_c, 11, 71, 89
11, 16320, Note_on_c, 11, 71, 0
11, 16320, Note_on_c, 11, 69, 89
11, 16440, Note_on_c, 11, 69, 0
11, 16440, Note_on_c, 11, 63, 89
11, 16511, Note_on_c, 11, 63, 0
11, 16560, Note_on_c, 11, 64, 89
11, 16595, Note_on_c, 11, 64, 0
11, 16680, Note_on_c, 11, 64, 89
11, 16920, Note_on_c, 11, 64, 0
11, 16920, Note_on_c, 11, 72, 89
11, 16991, Note_on_c, 11, 72, 0
11, 17040, Note_on_c, 11, 66, 89
11, 17111, Note_on_c, 11, 66, 0
11, 17160, Note_on_c, 11, 67, 89
11, 17220, Note_on_c, 11, 67, 0
11, 17220, Note_on_c, 11, 69, 89
11, 17280, Note_on_c, 11, 69, 0
11, 17280, Note_on_c, 11, 71, 89
11, 17340, Note_on_c, 11, 71, 0
11, 17340, Note_on_c, 11, 69, 89
11, 17400, Note_on_c, 11, 69, 0
11, 17400, Note_on_c, 11, 71, 89
11, 17460, Note_on_c, 11, 71, 0
11, 17460, Note_on_c, 11, 72, 89
11, 17520, Note_on_c, 11, 72, 0
11, 17520, Note_on_c, 11, 66, 89
11, 17880, Note_on_c, 11, 66, 0
11, 17880, Note_on_c, 11, 66, 89
11, 17951, Note_on_c, 11, 66, 0
11, 18000, Note_on_c, 11, 64, 89
11, 18071, Note_on_c, 11, 64, 0
11, 18120, Note_on_c, 11, 64, 89
11, 18360, Note_on_c, 11, 64, 0
11, 18360, Note_on_c, 11, 64, 89
11, 18431, Note_on_c, 11, 64, 0
11, 18480, Note_on_c, 11, 64, 89
11, 18840, Note_on_c, 11, 64, 0
11, 18840, Note_on_c, 11, 64, 89
11, 18911, Note_on_c, 11, 64, 0
11, 18960, Note_on_c, 11, 64, 89
11, 19031, Note_on_c, 11, 64, 0
11, 19920, Note_on_c, 11, 69, 89
11, 20160, Note_on_c, 11, 69, 0
11, 20160, Note_on_c, 11, 69, 89
11, 20400, Note_on_c, 11, 69, 0
11, 20520, Note_on_c, 11, 69, 108
11, 20591, Note_on_c, 11, 69, 0
11, 20640, Note_on_c, 11, 69, 89
11, 20711, Note_on_c, 11, 69, 0
11, 20760, Note_on_c, 11, 69, 89
11, 20831, Note_on_c, 11, 69, 0
11, 20880, Note_on_c, 11, 66, 89
11, 20951, Note_on_c, 11, 66, 0
11, 21000, Note_on_c, 11, 69, 89
11, 21071, Note_on_c, 11, 69, 0
11, 21120, Note_on_c, 11, 73, 89
11, 21360, Note_on_c, 11, 73, 0
11, 21360, Note_on_c, 11, 62, 89
11, 21395, Note_on_c, 11, 62, 0
11, 21480, Note_on_c, 11, 74, 89
11, 21551, Note_on_c, 11, 74, 0
11, 21600, Note_on_c, 11, 71, 89
11, 21671, Note_on_c, 11, 71, 0
11, 21720, Note_on_c, 11, 66, 89
11, 21791, Note_on_c, 11, 66, 0
11, 21840, Note_on_c, 11, 68, 89
11, 21960, Note_on_c, 11, 68, 0
11, 21960, Note_on_c, 11, 64, 89
11, 22031, Note_on_c, 11, 64, 0
11, 22080, Note_on_c, 11, 69, 89
11, 22151, Note_on_c, 11, 69, 0
11, 22200, Note_on_c, 11, 62, 89
11, 22271, Note_on_c, 11, 62, 0
11, 22320, Note_on_c, 11, 61, 89
11, 22560, Note_on_c, 11, 61, 0
11, 22560, Note_on_c, 11, 59, 89
11, 22800, Note_on_c, 11, 59, 0
11, 22800, Note_on_c, 11, 57, 89
11, 23040, Note_on_c, 11, 57, 0
11, 23160, Note_on_c, 11, 57, 89
11, 23231, Note_on_c, 11, 57, 0
11, 23280, Note_on_c, 11, 59, 89
11, 23340, Note_on_c, 11, 59, 0
11, 23340, Note_on_c, 11, 62, 89
11, 23400, Note_on_c, 11, 62, 0
11, 23400, Note_on_c, 11, 64, 89
11, 23460, Note_on_c, 11, 64, 0
11, 23460, Note_on_c, 11, 66, 89
11, 23520, Note_on_c, 11, 66, 0
11, 23520, Note_on_c, 11, 67, 89
11, 23831, Note_on_c, 11, 67, 0
11, 23880, Note_on_c, 11, 66, 89
11, 24071, Note_on_c, 11, 66, 0
11, 24120, Note_on_c, 11, 71, 89
11, 24191, Note_on_c, 11, 71, 0
11, 24240, Note_on_c, 11, 69, 89
11, 24311, Note_on_c, 11, 69, 0
11, 24360, Note_on_c, 11, 62, 89
11, 24431, Note_on_c, 11, 62, 0
11, 24480, Note_on_c, 11, 62, 89
11, 24600, Note_on_c, 11, 62, 0
11, 24600, Note_on_c, 11, 61, 89
11, 24671, Note_on_c, 11, 61, 0
11, 24720, Note_on_c, 11, 62, 89
11, 24960, Note_on_c, 11, 62, 0
11, 25080, Note_on_c, 11, 74, 89
11, 25271, Note_on_c, 11, 74, 0
11, 25320, Note_on_c, 11, 72, 89
11, 25380, Note_on_c, 11, 72, 0
11, 25380, Note_on_c, 11, 71, 89
11, 25440, Note_on_c, 11, 71, 0
11, 25440, Note_on_c, 11, 72, 89
11, 25511, Note_on_c, 11, 72, 0
11, 25560, Note_on_c, 11, 67, 89
11, 25631, Note_on_c, 11, 67, 0
11, 25680, Note_on_c, 11, 69, 89
11, 25715, Note_on_c, 11, 69, 0
11, 25800, Note_on_c, 11, 66, 89
11, 25871, Note_on_c, 11, 66, 0
11, 25920, Note_on_c, 11, 62, 89
11, 25991, Note_on_c, 11, 62, 0
11, 26040, Note_on_c, 11, 60, 89
11, 26100, Note_on_c, 11, 60, 0
11, 26100, Note_on_c, 11, 59, 89
11, 26160, Note_on_c, 11, 59, 0
11, 26160, Note_on_c, 11, 57, 89
11, 26280, Note_on_c, 11, 57, 0
11, 26280, Note_on_c, 11, 62, 89
11, 26400, Note_on_c, 11, 62, 0
11, 26400, Note_on_c, 11, 64, 89
11, 26471, Note_on_c, 11, 64, 0
11, 26520, Note_on_c, 11, 69, 89
11, 26591, Note_on_c, 11, 69, 0
11, 26640, Note_on_c, 11, 63, 89
11, 26675, Note_on_c, 11, 63, 0
11, 26760, Note_on_c, 11, 64, 89
11, 26820, Note_on_c, 11, 64, 0
11, 26820, Note_on_c, 11, 66, 89
11, 26880, Note_on_c, 11, 66, 0
11, 26880, Note_on_c, 11, 64, 89
11, 26940, Note_on_c, 11, 64, 0
11, 26940, Note_on_c, 11, 66, 89
11, 27000, Note_on_c, 11, 66, 0
11, 27000, Note_on_c, 11, 67, 89
11, 27060, Note_on_c, 11, 67, 0
11, 27060, Note_on_c, 11, 64, 89
11, 27120, Note_on_c, 11, 64, 0
11, 27120, Note_on_c, 11, 69, 89
11, 27480, Note_on_c, 11, 69, 0
11, 27480, Note_on_c, 11, 67, 89
11, 27540, Note_on_c, 11, 67, 0
11, 27540, Note_on_c, 11, 66, 89
11, 27600, Note_on_c, 11, 66, 0
11, 27600, Note_on_c, 11, 67, 89
11, 27671, Note_on_c, 11, 67, 0
11, 27720, Note_on_c, 11, 66, 89
11, 27780, Note_on_c, 11, 66, 0
11, 27780, Note_on_c, 11, 64, 89
11, 27840, Note_on_c, 11, 64, 0
11, 27840, Note_on_c, 11, 66, 89
11, 27911, Note_on_c, 11, 66, 0
11, 27960, Note_on_c, 11, 66, 89
11, 28031, Note_on_c, 11, 66, 0
11, 28080, Note_on_c, 11, 67, 89
11, 28320, Note_on_c, 11, 67, 0
11, 28440, Note_on_c, 11, 71, 89
11, 28500, Note_on_c, 11, 71, 0
11, 28500, Note_on_c, 11, 71, 89
11, 28560, Note_on_c, 11, 71, 0
11, 28560, Note_on_c, 11, 73, 89
11, 28631, Note_on_c, 11, 73, 0
11, 28680, Note_on_c, 11, 69, 89
11, 28751, Note_on_c, 11, 69, 0
11, 28800, Note_on_c, 11, 69, 89
11, 28871, Note_on_c, 11, 69, 0
11, 28920, Note_on_c, 11, 74, 89
11, 28991, Note_on_c, 11, 74, 0
11, 29040, Note_on_c, 11, 67, 89
11, 29111, Note_on_c, 11, 67, 0
11, 29160, Note_on_c, 11, 67, 89
11, 29400, Note_on_c, 11, 67, 0
11, 29400, Note_on_c, 11, 66, 89
11, 29460, Note_on_c, 11, 66, 0
11, 29460, Note_on_c, 11, 64, 89
11, 29520, Note_on_c, 11, 64, 0
11, 29520, Note_on_c, 11, 66, 89
11, 29580, Note_on_c, 11, 66, 0
11, 29580, Note_on_c, 11, 64, 89
11, 29640, Note_on_c, 11, 64, 0
11, 29640, Note_on_c, 11, 62, 89
11, 29700, Note_on_c, 11, 62, 0
11, 29700, Note_on_c, 11, 64, 89
11, 29760, Note_on_c, 11, 64, 0
11, 29760, Note_on_c, 11, 66, 89
11, 29831, Note_on_c, 11, 66, 0
11, 29880, Note_on_c, 11, 68, 89
11, 29940, Note_on_c, 11, 68, 0
11, 29940, Note_on_c, 11, 69, 89
11, 30000, Note_on_c, 11, 69, 0
11, 30000, Note_on_c, 11, 71, 89
11, 30060, Note_on_c, 11, 71, 0
11, 30060, Note_on_c, 11, 68, 89
11, 30120, Note_on_c, 11, 68, 0
11, 30120, Note_on_c, 11, 69, 89
11, 30180, Note_on_c, 11, 69, 0
11, 30180, Note_on_c, 11, 71, 89
11, 30240, Note_on_c, 11, 71, 0
11, 30240, Note_on_c, 11, 64, 89
11, 30311, Note_on_c, 11, 64, 0
11, 30360, Note_on_c, 11, 69, 89
11, 30551, Note_on_c, 11, 69, 0
11, 30600, Note_on_c, 11, 71, 89
11, 30660, Note_on_c, 11, 71, 0
11, 30660, Note_on_c, 11, 69, 89
11, 30720, Note_on_c, 11, 69, 0
11, 30720, Note_on_c, 11, 68, 89
11, 30780, Note_on_c, 11, 68, 0
11, 30780, Note_on_c, 11, 69, 89
11, 30840, Note_on_c, 11, 69, 0
11, 30840, Note_on_c, 11, 66, 89
11, 30900, Note_on_c, 11, 66, 0
11, 30900, Note_on_c, 11, 68, 89
11, 30960, Note_on_c, 11, 68, 0
11, 30960, Note_on_c, 11, 69, 89
11, 30995, Note_on_c, 11, 69, 0
11, 31080, Note_on_c, 11, 73, 89
11, 31151, Note_on_c, 11, 73, 0
11, 31200, Note_on_c, 11, 74, 89
11, 31440, Note_on_c, 11, 74, 0
11, 31440, Note_on_c, 11, 71, 89
11, 31511, Note_on_c, 11, 71, 0
11, 31560, Note_on_c, 11, 71, 89
11, 31800, Note_on_c, 11, 71, 0
11, 31800, Note_on_c, 11, 69, 89
11, 31860, Note_on_c, 11, 69, 0
11, 31860, Note_on_c, 11, 71, 89
11, 31920, Note_on_c, 11, 71, 0
11, 31920, Note_on_c, 11, 64, 89
11, 32040, Note_on_c, 11, 64, 0
11, 32040, Note_on_c, 11, 66, 89
11, 32111, Note_on_c, 11, 66, 0
11, 32160, Note_on_c, 11, 62, 89
11, 32195, Note_on_c, 11, 62, 0
11, 32280, Note_on_c, 11, 62, 89
11, 32351, Note_on_c, 11, 62, 0
11, 32400, Note_on_c, 11, 62, 89
11, 32640, Note_on_c, 11, 62, 0
11, 32640, Note_on_c, 11, 61, 89
11, 32880, Note_on_c, 11, 61, 0
11, 32880, Note_on_c, 11, 62, 60
11, 33120, Note_on_c, 11, 62, 0
11, 33240, Note_on_c, 11, 69, 70
11, 33300, Note_on_c, 11, 69, 0
11, 33300, Note_on_c, 11, 67, 72
11, 33360, Note_on_c, 11, 67, 0
11, 33360, Note_on_c, 11, 66, 73
11, 33431, Note_on_c, 11, 66, 0
11, 33480, Note_on_c, 11, 67, 77
11, 33540, Note_on_c, 11, 67, 0
11, 33540, Note_on_c, 11, 66, 78
11, 33600, Note_on_c, 11, 66, 0
11, 33600, Note_on_c, 11, 67, 80
11, 33671, Note_on_c, 11, 67, 0
11, 33720, Note_on_c, 11, 64, 83
11, 33791, Note_on_c, 11, 64, 0
11, 33840, Note_on_c, 11, 66, 87
11, 33911, Note_on_c, 11, 66, 0
11, 34680, Note_on_c, 11, 62, 95
11, 34751, Note_on_c, 11, 62, 0
11, 34800, Note_on_c, 11, 69, 95
11, 34871, Note_on_c, 11, 69, 0
11, 34920, Note_on_c, 11, 69, 95
11, 35160, Note_on_c, 11, 69, 0
11, 35160, Note_on_c, 11, 67, 95
11, 35220, Note_on_c, 11, 67, 0
11, 35220, Note_on_c, 11, 66, 95
11, 35280, Note_on_c, 11, 66, 0
11, 35280, Note_on_c, 11, 67, 95
11, 35351, Note_on_c, 11, 67, 0
11, 35400, Note_on_c, 11, 69, 95
11, 35471, Note_on_c, 11, 69, 0
11, 35520, Note_on_c, 11, 69, 95
11, 35795, Note_on_c, 11, 69, 0
11, 35880, Note_on_c, 11, 64, 95
11, 35940, Note_on_c, 11, 64, 0
11, 35940, Note_on_c, 11, 64, 95
11, 36000, Note_on_c, 11, 64, 0
11, 36000, Note_on_c, 11, 69, 95
11, 36311, Note_on_c, 11, 69, 0
11, 36360, Note_on_c, 11, 67, 95
11, 36420, Note_on_c, 11, 67, 0
11, 36420, Note_on_c, 11, 66, 95
11, 36480, Note_on_c, 11, 66, 0
11, 36480, Note_on_c, 11, 64, 95
11, 36540, Note_on_c, 11, 64, 0
11, 36540, Note_on_c, 11, 66, 95
11, 36600, Note_on_c, 11, 66, 0
11, 36600, Note_on_c, 11, 67, 95
11, 36660, Note_on_c, 11, 67, 0
11, 36660, Note_on_c, 11, 69, 95
11, 36720, Note_on_c, 11, 69, 0
11, 36720, Note_on_c, 11, 62, 95
11, 36791, Note_on_c, 11, 62, 0
11, 36840, Note_on_c, 11, 64, 95
11, 37020, Note_on_c, 11, 64, 0
11, 37020, Note_on_c, 11, 66, 95
11, 37080, Note_on_c, 11, 66, 0
11, 37080, Note_on_c, 11, 67, 95
11, 37140, Note_on_c, 11, 67, 0
11, 37140, Note_on_c, 11, 64, 95
11, 37200, Note_on_c, 11, 64, 0
11, 37200, Note_on_c, 11, 69, 89
11, 37500, Note_on_c, 11, 69, 0
11, 37500, Note_on_c, 11, 62, 91
11, 37560, Note_on_c, 11, 62, 0
11, 37560, Note_on_c, 11, 64, 91
11, 37620, Note_on_c, 11, 64, 0
11, 37620, Note_on_c, 11, 66, 92
11, 37680, Note_on_c, 11, 66, 0
11, 37680, Note_on_c, 11, 67, 92
11, 37740, Note_on_c, 11, 67, 0
11, 37740, Note_on_c, 11, 66, 93
11, 37800, Note_on_c, 11, 66, 0
11, 37800, Note_on_c, 11, 67, 93
11, 37860, Note_on_c, 11, 67, 0
11, 37860, Note_on_c, 11, 69, 93
11, 37920, Note_on_c, 11, 69, 0
11, 37920, Note_on_c, 11, 66, 94
11, 37980, Note_on_c, 11, 66, 0
11, 37980, Note_on_c, 11, 67, 94
11, 38040, Note_on_c, 11, 67, 0
11, 38040, Note_on_c, 11, 66, 95
11, 38100, Note_on_c, 11, 66, 0
11, 38100, Note_on_c, 11, 64, 95
11, 38160, Note_on_c, 11, 64, 0
11, 38160, Note_on_c, 11, 62, 95
11, 38220, Note_on_c, 11, 62, 0
11, 38220, Note_on_c, 11, 64, 96
11, 38280, Note_on_c, 11, 64, 0
11, 38280, Note_on_c, 11, 66, 96
11, 38340, Note_on_c, 11, 66, 0
11, 38340, Note_on_c, 11, 67, 97
11, 38400, Note_on_c, 11, 67, 0
11, 38400, Note_on_c, 11, 69, 97
11, 38700, Note_on_c, 11, 69, 0
11, 38700, Note_on_c, 11, 66, 99
11, 38760, Note_on_c, 11, 66, 0
11, 38760, Note_on_c, 11, 67, 99
11, 38820, Note_on_c, 11, 67, 0
11, 38820, Note_on_c, 11, 69, 100
11, 38880, Note_on_c, 11, 69, 0
11, 38880, Note_on_c, 11, 71, 100
11, 38940, Note_on_c, 11, 71, 0
11, 38940, Note_on_c, 11, 69, 101
11, 39000, Note_on_c, 11, 69, 0
11, 39000, Note_on_c, 11, 71, 101
11, 39060, Note_on_c, 11, 71, 0
11, 39060, Note_on_c, 11, 73, 101
11, 39120, Note_on_c, 11, 73, 0
11, 39120, Note_on_c, 11, 74, 102
11, 39191, Note_on_c, 11, 74, 0
11, 39240, Note_on_c, 11, 73, 103
11, 39300, Note_on_c, 11, 73, 0
11, 39300, Note_on_c, 11, 71, 103
11, 39360, Note_on_c, 11, 71, 0
11, 39360, Note_on_c, 11, 69, 103
11, 39395, Note_on_c, 11, 69, 0
11, 39480, Note_on_c, 11, 67, 104
11, 39551, Note_on_c, 11, 67, 0
11, 39600, Note_on_c, 11, 66, 115
11, 39671, Note_on_c, 11, 66, 0
11, 39720, Note_on_c, 11, 64, 115
11, 39780, Note_on_c, 11, 64, 0
11, 39780, Note_on_c, 11, 62, 115
11, 39840, Note_on_c, 11, 62, 0
11, 39840, Note_on_c, 11, 64, 115
11, 40020, Note_on_c, 11, 64, 0
11, 40020, Note_on_c, 11, 66, 115
11, 40080, Note_on_c, 11, 66, 0
11, 40080, Note_on_c, 11, 66, 115
11, 40560, Note_on_c, 11, 66, 0
11, 41040, End_track
12, 0, Start_track
12, 0, MIDI_port, 0
12, 0, Title_t, "Tenor"
12, 0, Program_c, 12, 52
12, 0, Control_c, 12, 91, 127
12, 240, Note_on_c, 12, 61, 89
12, 480, Note_on_c, 12, 61, 0
12, 480, Note_on_c, 12, 61, 89
12, 720, Note_on_c, 12, 61, 0
12, 840, Note_on_c, 12, 62, 89
12, 911, Note_on_c, 12, 62, 0
12, 960, Note_on_c, 12, 61, 89
12, 1031, Note_on_c, 12, 61, 0
12, 1080, Note_on_c, 12, 64, 89
12, 1151, Note_on_c, 12, 64, 0
12, 1200, Note_on_c, 12, 62, 89
12, 1271, Note_on_c, 12, 62, 0
12, 1320, Note_on_c, 12, 57, 89
12, 1391, Note_on_c, 12, 57, 0
12, 2640, Note_on_c, 12, 57, 89
12, 2880, Note_on_c, 12, 57, 0
12, 2880, Note_on_c, 12, 61, 89
12, 3120, Note_on_c, 12, 61, 0
12, 3120, Note_on_c, 12, 62, 108
12, 3360, Note_on_c, 12, 62, 0
12, 3360, Note_on_c, 12, 62, 89
12, 3431, Note_on_c, 12, 62, 0
12, 3480, Note_on_c, 12, 62, 89
12, 3551, Note_on_c, 12, 62, 0
12, 3600, Note_on_c, 12, 61, 89
12, 3671, Note_on_c, 12, 61, 0
12, 3720, Note_on_c, 12, 64, 89
12, 3791, Note_on_c, 12, 64, 0
12, 3840, Note_on_c, 12, 66, 89
12, 4080, Note_on_c, 12, 66, 0
12, 4080, Note_on_c, 12, 55, 89
12, 4115, Note_on_c, 12, 55, 0
12, 4200, Note_on_c, 12, 67, 89
12, 4271, Note_on_c, 12, 67, 0
12, 4320, Note_on_c, 12, 64, 89
12, 4391, Note_on_c, 12, 64, 0
12, 4440, Note_on_c, 12, 59, 89
12, 4511, Note_on_c, 12, 59, 0
12, 4560, Note_on_c, 12, 61, 89
12, 4680, Note_on_c, 12, 61, 0
12, 4680, Note_on_c, 12, 57, 89
12, 4751, Note_on_c, 12, 57, 0
12, 4800, Note_on_c, 12, 62, 89
12, 4871, Note_on_c, 12, 62, 0
12, 4920, Note_on_c, 12, 55, 89
12, 4991, Note_on_c, 12, 55, 0
12, 5040, Note_on_c, 12, 54, 89
12, 5280, Note_on_c, 12, 54, 0
12, 5280, Note_on_c, 12, 52, 89
12, 5520, Note_on_c, 12, 52, 0
12, 5520, Note_on_c, 12, 50, 89
12, 5760, Note_on_c, 12, 50, 0
12, 5880, Note_on_c, 12, 52, 89
12, 5951, Note_on_c, 12, 52, 0
12, 6000, Note_on_c, 12, 54, 89
12, 6060, Note_on_c, 12, 54, 0
12, 6060, Note_on_c, 12, 57, 89
12, 6120, Note_on_c, 12, 57, 0
12, 6120, Note_on_c, 12, 59, 89
12, 6180, Note_on_c, 12, 59, 0
12, 6180, Note_on_c, 12, 61, 89
12, 6240, Note_on_c, 12, 61, 0
12, 6240, Note_on_c, 12, 62, 89
12, 6551, Note_on_c, 12, 62, 0
12, 6600, Note_on_c, 12, 61, 89
12, 6840, Note_on_c, 12, 61, 0
12, 6840, Note_on_c, 12, 66, 89
12, 6911, Note_on_c, 12, 66, 0
12, 6960, Note_on_c, 12, 64, 89
12, 7031, Note_on_c, 12, 64, 0
12, 7080, Note_on_c, 12, 57, 89
12, 7151, Note_on_c, 12, 57, 0
12, 7200, Note_on_c, 12, 57, 89
12, 7271, Note_on_c, 12, 57, 0
12, 7320, Note_on_c, 12, 56, 89
12, 7440, Note_on_c, 12, 56, 0
12, 7440, Note_on_c, 12, 57, 89
12, 7475, Note_on_c, 12, 57, 0
12, 7560, Note_on_c, 12, 57, 89
12, 7620, Note_on_c, 12, 57, 0
12, 7620, Note_on_c, 12, 59, 89
12, 7680, Note_on_c, 12, 59, 0
12, 7680, Note_on_c, 12, 61, 89
12, 7991, Note_on_c, 12, 61, 0
12, 8040, Note_on_c, 12, 59, 89
12, 8100, Note_on_c, 12, 59, 0
12, 8100, Note_on_c, 12, 57, 89
12, 8160, Note_on_c, 12, 57, 0
12, 8160, Note_on_c, 12, 56, 89
12, 8231, Note_on_c, 12, 56, 0
12, 8280, Note_on_c, 12, 52, 89
12, 8351, Note_on_c, 12, 52, 0
12, 8400, Note_on_c, 12, 57, 89
12, 8435, Note_on_c, 12, 57, 0
12, 8520, Note_on_c, 12, 61, 89
12, 8580, Note_on_c, 12, 61, 0
12, 8580, Note_on_c, 12, 57, 89
12, 8640, Note_on_c, 12, 57, 0
12, 8640, Note_on_c, 12, 62, 89
12, 8951, Note_on_c, 12, 62, 0
12, 9000, Note_on_c, 12, 61, 89
12, 9060, Note_on_c, 12, 61, 0
12, 9060, Note_on_c, 12, 62, 89
12, 9120, Note_on_c, 12, 62, 0
12, 9120, Note_on_c, 12, 64, 89
12, 9431, Note_on_c, 12, 64, 0
12, 9480, Note_on_c, 12, 62, 89
12, 9540, Note_on_c, 12, 62, 0
12, 9540, Note_on_c, 12, 61, 89
12, 9600, Note_on_c, 12, 61, 0
12, 9600, Note_on_c, 12, 59, 89
12, 9635, Note_on_c, 12, 59, 0
12, 9720, Note_on_c, 12, 59, 89
12, 9780, Note_on_c, 12, 59, 0
12, 9780, Note_on_c, 12, 61, 89
12, 9840, Note_on_c, 12, 61, 0
12, 9840, Note_on_c, 12, 62, 89
12, 9911, Note_on_c, 12, 62, 0
12, 9960, Note_on_c, 12, 54, 89
12, 10020, Note_on_c, 12, 54, 0
12, 10020, Note_on_c, 12, 55, 89
12, 10080, Note_on_c, 12, 55, 0
12, 10080, Note_on_c, 12, 57, 89
12, 10151, Note_on_c, 12, 57, 0
12, 10200, Note_on_c, 12, 57, 89
12, 10271, Note_on_c, 12, 57, 0
12, 10320, Note_on_c, 12, 57, 89
12, 10355, Note_on_c, 12, 57, 0
12, 10440, Note_on_c, 12, 66, 89
12, 10511, Note_on_c, 12, 66, 0
12, 10560, Note_on_c, 12, 64, 89
12, 10871, Note_on_c, 12, 64, 0
12, 10920, Note_on_c, 12, 66, 89
12, 10980, Note_on_c, 12, 66, 0
12, 10980, Note_on_c, 12, 64, 89
12, 11040, Note_on_c, 12, 64, 0
12, 11040, Note_on_c, 12, 62, 89
12, 11100, Note_on_c, 12, 62, 0
12, 11100, Note_on_c, 12, 61, 89
12, 11160, Note_on_c, 12, 61, 0
12, 11160, Note_on_c, 12, 59, 89
12, 11220, Note_on_c, 12, 59, 0
12, 11220, Note_on_c, 12, 57, 89
12, 11280, Note_on_c, 12, 57, 0
12, 11280, Note_on_c, 12, 59, 89
12, 11351, Note_on_c, 12, 59, 0
12, 11400, Note_on_c, 12, 57, 89
12, 11460, Note_on_c, 12, 57, 0
12, 11460, Note_on_c, 12, 56, 89
12, 11520, Note_on_c, 12, 56, 0
12, 11520, Note_on_c, 12, 57, 89
12, 11820, Note_on_c, 12, 57, 0
12, 11820, Note_on_c, 12, 59, 89
12, 11880, Note_on_c, 12, 59, 0
12, 11880, Note_on_c, 12, 61, 89
12, 11940, Note_on_c, 12, 61, 0
12, 11940, Note_on_c, 12, 57, 89
12, 12000, Note_on_c, 12, 57, 0
12, 12000, Note_on_c, 12, 62, 89
12, 12060, Note_on_c, 12, 62, 0
12, 12060, Note_on_c, 12, 61, 89
12, 12120, Note_on_c, 12, 61, 0
12, 12120, Note_on_c, 12, 59, 89
12, 12180, Note_on_c, 12, 59, 0
12, 12180, Note_on_c, 12, 62, 89
12, 12240, Note_on_c, 12, 62, 0
12, 12240, Note_on_c, 12, 61, 89
12, 12311, Note_on_c, 12, 61, 0
12, 12360, Note_on_c, 12, 57, 89
12, 12431, Note_on_c, 12, 57, 0
12, 12600, Note_on_c, 12, 62, 89
12, 12660, Note_on_c, 12, 62, 0
12, 12660, Note_on_c, 12, 62, 89
12, 12720, Note_on_c, 12, 62, 0
12, 12720, Note_on_c, 12, 62, 89
12, 12791, Note_on_c, 12, 62, 0
12, 12840, Note_on_c, 12, 59, 89
12, 12911, Note_on_c, 12, 59, 0
12, 12960, Note_on_c, 12, 59, 89
12, 13031, Note_on_c, 12, 59, 0
12, 13080, Note_on_c, 12, 64, 89
12, 13260, Note_on_c, 12, 64, 0
12, 13260, Note_on_c, 12, 61, 89
12, 13320, Note_on_c, 12, 61, 0
12, 13320, Note_on_c, 12, 62, 89
12, 13380, Note_on_c, 12, 62, 0
12, 13380, Note_on_c, 12, 64, 89
12, 13440, Note_on_c, 12, 64, 0
12, 13440, Note_on_c, 12, 62, 89
12, 13500, Note_on_c, 12, 62, 0
12, 13500, Note_on_c, 12, 66, 89
12, 13560, Note_on_c, 12, 66, 0
12, 13560, Note_on_c, 12, 64, 89
12, 13620, Note_on_c, 12, 64, 0
12, 13620, Note_on_c, 12, 62, 89
12, 13680, Note_on_c, 12, 62, 0
12, 13680, Note_on_c, 12, 61, 89
12, 13751, Note_on_c, 12, 61, 0
12, 13800, Note_on_c, 12, 62, 89
12, 13860, Note_on_c, 12, 62, 0
12, 13860, Note_on_c, 12, 62, 89
12, 13920, Note_on_c, 12, 62, 0
12, 13920, Note_on_c, 12, 64, 89
12, 13991, Note_on_c, 12, 64, 0
12, 14040, Note_on_c, 12, 64, 89
12, 14111, Note_on_c, 12, 64, 0
12, 14160, Note_on_c, 12, 66, 89
12, 14195, Note_on_c, 12, 66, 0
12, 14280, Note_on_c, 12, 62, 89
12, 14351, Note_on_c, 12, 62, 0
12, 14400, Note_on_c, 12, 59, 89
12, 14471, Note_on_c, 12, 59, 0
12, 14520, Note_on_c, 12, 55, 89
12, 14591, Note_on_c, 12, 55, 0
12, 14760, Note_on_c, 12, 55, 89
12, 14831, Note_on_c, 12, 55, 0
12, 14880, Note_on_c, 12, 60, 89
12, 15191, Note_on_c, 12, 60, 0
12, 15240, Note_on_c, 12, 62, 89
12, 15300, Note_on_c, 12, 62, 0
12, 15300, Note_on_c, 12, 60, 89
12, 15360, Note_on_c, 12, 60, 0
12, 15360, Note_on_c, 12, 59, 89
12, 15431, Note_on_c, 12, 59, 0
12, 15480, Note_on_c, 12, 62, 89
12, 15515, Note_on_c, 12, 62, 0
12, 15600, Note_on_c, 12, 67, 89
12, 15671, Note_on_c, 12, 67, 0
12, 15720, Note_on_c, 12, 69, 89
12, 15780, Note_on_c, 12, 69, 0
12, 15780, Note_on_c, 12, 67, 89
12, 15840, Note_on_c, 12, 67, 0
12, 15840, Note_on_c, 12, 66, 89
12, 15900, Note_on_c, 12, 66, 0
12, 15900, Note_on_c, 12, 64, 89
12, 15960, Note_on_c, 12, 64, 0
12, 15960, Note_on_c, 12, 63, 89
12, 16020, Note_on_c, 12, 63, 0
12, 16020, Note_on_c, 12, 61, 89
12, 16080, Note_on_c, 12, 61, 0
12, 16080, Note_on_c, 12, 59, 89
12, 16140, Note_on_c, 12, 59, 0
12, 16140, Note_on_c, 12, 55, 89
12, 16200, Note_on_c, 12, 55, 0
12, 16200, Note_on_c, 12, 57, 89
12, 16260, Note_on_c, 12, 57, 0
12, 16260, Note_on_c, 12, 59, 89
12, 16320, Note_on_c, 12, 59, 0
12, 16320, Note_on_c, 12, 60, 89
12, 16391, Note_on_c, 12, 60, 0
12, 16440, Note_on_c, 12, 59, 89
12, 16511, Note_on_c, 12, 59, 0
12, 16560, Note_on_c, 12, 52, 89
12, 16631, Note_on_c, 12, 52, 0
12, 16680, Note_on_c, 12, 55, 89
12, 16751, Note_on_c, 12, 55, 0
12, 16800, Note_on_c, 12, 60, 89
12, 16980, Note_on_c, 12, 60, 0
12, 16980, Note_on_c, 12, 60, 89
12, 17040, Note_on_c, 12, 60, 0
12, 17040, Note_on_c, 12, 59, 89
12, 17075, Note_on_c, 12, 59, 0
12, 17160, Note_on_c, 12, 59, 89
12, 17400, Note_on_c, 12, 59, 0
12, 17400, Note_on_c, 12, 52, 89
12, 17471, Note_on_c, 12, 52, 0
12, 17520, Note_on_c, 12, 59, 89
12, 17880, Note_on_c, 12, 59, 0
12, 17880, Note_on_c, 12, 59, 89
12, 18071, Note_on_c, 12, 59, 0
12, 18120, Note_on_c, 12, 56, 89
12, 18191, Note_on_c, 12, 56, 0
12, 18240, Note_on_c, 12, 57, 89
12, 18311, Note_on_c, 12, 57, 0
12, 18360, Note_on_c, 12, 59, 89
12, 18431, Note_on_c, 12, 59, 0
12, 18480, Note_on_c, 12, 59, 89
12, 18551, Note_on_c, 12, 59, 0
12, 18600, Note_on_c, 12, 57, 89
12, 18671, Note_on_c, 12, 57, 0
12, 18720, Note_on_c, 12, 59, 89
12, 18960, Note_on_c, 12, 59, 0
12, 18960, Note_on_c, 12, 57, 89
12, 19031, Note_on_c, 12, 57, 0
12, 19920, Note_on_c, 12, 64, 89
12, 20160, Note_on_c, 12, 64, 0
12, 20160, Note_on_c, 12, 57, 89
12, 20400, Note_on_c, 12, 57, 0
12, 20520, Note_on_c, 12, 66, 89
12, 20591, Note_on_c, 12, 66, 0
12, 20640, Note_on_c, 12, 67, 89
12, 20711, Note_on_c, 12, 67, 0
12, 20760, Note_on_c, 12, 64, 89
12, 20831, Note_on_c, 12, 64, 0
12, 20880, Note_on_c, 12, 66, 89
12, 20951, Note_on_c, 12, 66, 0
12, 21000, Note_on_c, 12, 66, 89
12, 21071, Note_on_c, 12, 66, 0
12, 22440, Note_on_c, 12, 62, 89
12, 22511, Note_on_c, 12, 62, 0
12, 22560, Note_on_c, 12, 62, 89
12, 22631, Note_on_c, 12, 62, 0
12, 22680, Note_on_c, 12, 62, 89
12, 22751, Note_on_c, 12, 62, 0
12, 22800, Note_on_c, 12, 61, 89
12, 22871, Note_on_c, 12, 61, 0
12, 22920, Note_on_c, 12, 64, 89
12, 22991, Note_on_c, 12, 64, 0
12, 23040, Note_on_c, 12, 66, 89
12, 23280, Note_on_c, 12, 66, 0
12, 23280, Note_on_c, 12, 55, 89
12, 23315, Note_on_c, 12, 55, 0
12, 23400, Note_on_c, 12, 67, 89
12, 23471, Note_on_c, 12, 67, 0
12, 23520, Note_on_c, 12, 64, 89
12, 23591, Note_on_c, 12, 64, 0
12, 23640, Note_on_c, 12, 59, 89
12, 23711, Note_on_c, 12, 59, 0
12, 23760, Note_on_c, 12, 61, 89
12, 23880, Note_on_c, 12, 61, 0
12, 23880, Note_on_c, 12, 57, 89
12, 23951, Note_on_c, 12, 57, 0
12, 24000, Note_on_c, 12, 62, 89
12, 24071, Note_on_c, 12, 62, 0
12, 24120, Note_on_c, 12, 55, 89
12, 24191, Note_on_c, 12, 55, 0
12, 24240, Note_on_c, 12, 54, 89
12, 24480, Note_on_c, 12, 54, 0
12, 24480, Note_on_c, 12, 52, 89
12, 24720, Note_on_c, 12, 52, 0
12, 24720, Note_on_c, 12, 50, 89
12, 24960, Note_on_c, 12, 50, 0
12, 25080, Note_on_c, 12, 55, 89
12, 25151, Note_on_c, 12, 55, 0
12, 25200, Note_on_c, 12, 55, 89
12, 25271, Note_on_c, 12, 55, 0
12, 25320, Note_on_c, 12, 57, 89
12, 25500, Note_on_c, 12, 57, 0
12, 25500, Note_on_c, 12, 59, 89
12, 25560, Note_on_c, 12, 59, 0
12, 25560, Note_on_c, 12, 60, 89
12, 25751, Note_on_c, 12, 60, 0
12, 25800, Note_on_c, 12, 59, 89
12, 26040, Note_on_c, 12, 59, 0
12, 26040, Note_on_c, 12, 64, 89
12, 26111, Note_on_c, 12, 64, 0
12, 26160, Note_on_c, 12, 62, 89
12, 26231, Note_on_c, 12, 62, 0
12, 26280, Note_on_c, 12, 55, 89
12, 26351, Note_on_c, 12, 55, 0
12, 26400, Note_on_c, 12, 55, 89
12, 26471, Note_on_c, 12, 55, 0
12, 26520, Note_on_c, 12, 54, 89
12, 26711, Note_on_c, 12, 54, 0
12, 26760, Note_on_c, 12, 52, 89
12, 26795, Note_on_c, 12, 52, 0
12, 26880, Note_on_c, 12, 59, 89
12, 26940, Note_on_c, 12, 59, 0
12, 26940, Note_on_c, 12, 57, 89
12, 27000, Note_on_c, 12, 57, 0
12, 27000, Note_on_c, 12, 59, 89
12, 27060, Note_on_c, 12, 59, 0
12, 27060, Note_on_c, 12, 55, 89
12, 27120, Note_on_c, 12, 55, 0
12, 27120, Note_on_c, 12, 57, 89
12, 27180, Note_on_c, 12, 57, 0
12, 27180, Note_on_c, 12, 55, 89
12, 27240, Note_on_c, 12, 55, 0
12, 27240, Note_on_c, 12, 54, 89
12, 27311, Note_on_c, 12, 54, 0
12, 27360, Note_on_c, 12, 59, 89
12, 27420, Note_on_c, 12, 59, 0
12, 27420, Note_on_c, 12, 60, 89
12, 27480, Note_on_c, 12, 60, 0
12, 27480, Note_on_c, 12, 62, 89
12, 27540, Note_on_c, 12, 62, 0
12, 27540, Note_on_c, 12, 59, 89
12, 27600, Note_on_c, 12, 59, 0
12, 27600, Note_on_c, 12, 64, 89
12, 27660, Note_on_c, 12, 64, 0
12, 27660, Note_on_c, 12, 62, 89
12, 27720, Note_on_c, 12, 62, 0
12, 27720, Note_on_c, 12, 60, 89
12, 27780, Note_on_c, 12, 60, 0
12, 27780, Note_on_c, 12, 59, 89
12, 27840, Note_on_c, 12, 59, 0
12, 27840, Note_on_c, 12, 57, 89
12, 27911, Note_on_c, 12, 57, 0
12, 27960, Note_on_c, 12, 62, 89
12, 28031, Note_on_c, 12, 62, 0
12, 28080, Note_on_c, 12, 62, 89
12, 28115, Note_on_c, 12, 62, 0
12, 28200, Note_on_c, 12, 59, 89
12, 28271, Note_on_c, 12, 59, 0
12, 28320, Note_on_c, 12, 64, 89
12, 28620, Note_on_c, 12, 64, 0
12, 28620, Note_on_c, 12, 57, 89
12, 28680, Note_on_c, 12, 57, 0
12, 28680, Note_on_c, 12, 59, 89
12, 28740, Note_on_c, 12, 59, 0
12, 28740, Note_on_c, 12, 61, 89
12, 28800, Note_on_c, 12, 61, 0
12, 28800, Note_on_c, 12, 62, 89
12, 29111, Note_on_c, 12, 62, 0
12, 29160, Note_on_c, 12, 61, 89
12, 29220, Note_on_c, 12, 61, 0
12, 29220, Note_on_c, 12, 59, 89
12, 29280, Note_on_c, 12, 59, 0
12, 29280, Note_on_c, 12, 61, 89
12, 29591, Note_on_c, 12, 61, 0
12, 29640, Note_on_c, 12, 54, 89
12, 29675, Note_on_c, 12, 54, 0
12, 29760, Note_on_c, 12, 59, 89
12, 30071, Note_on_c, 12, 59, 0
12, 30120, Note_on_c, 12, 61, 89
12, 30180, Note_on_c, 12, 61, 0
12, 30180, Note_on_c, 12, 62, 89
12, 30240, Note_on_c, 12, 62, 0
12, 30240, Note_on_c, 12, 64, 89
12, 30300, Note_on_c, 12, 64, 0
12, 30300, Note_on_c, 12, 62, 89
12, 30360, Note_on_c, 12, 62, 0
12, 30360, Note_on_c, 12, 64, 89
12, 30420, Note_on_c, 12, 64, 0
12, 30420, Note_on_c, 12, 61, 89
12, 30480, Note_on_c, 12, 61, 0
12, 30480, Note_on_c, 12, 62, 89
12, 30551, Note_on_c, 12, 62, 0
12, 30600, Note_on_c, 12, 66, 89
12, 30671, Note_on_c, 12, 66, 0
12, 30720, Note_on_c, 12, 64, 89
12, 30840, Note_on_c, 12, 64, 0
12, 30840, Note_on_c, 12, 62, 89
12, 30911, Note_on_c, 12, 62, 0
12, 30960, Note_on_c, 12, 64, 89
12, 31200, Note_on_c, 12, 64, 0
12, 31320, Note_on_c, 12, 57, 89
12, 31391, Note_on_c, 12, 57, 0
12, 31440, Note_on_c, 12, 62, 89
12, 31500, Note_on_c, 12, 62, 0
12, 31500, Note_on_c, 12, 59, 89
12, 31560, Note_on_c, 12, 59, 0
12, 31560, Note_on_c, 12, 61, 89
12, 31620, Note_on_c, 12, 61, 0
12, 31620, Note_on_c, 12, 62, 89
12, 31680, Note_on_c, 12, 62, 0
12, 31680, Note_on_c, 12, 64, 89
12, 31991, Note_on_c, 12, 64, 0
12, 32040, Note_on_c, 12, 62, 89
12, 32111, Note_on_c, 12, 62, 0
12, 32280, Note_on_c, 12, 62, 89
12, 32351, Note_on_c, 12, 62, 0
12, 32400, Note_on_c, 12, 66, 89
12, 32471, Note_on_c, 12, 66, 0
12, 32520, Note_on_c, 12, 62, 89
12, 32591, Note_on_c, 12, 62, 0
12, 32640, Note_on_c, 12, 57, 89
12, 32880, Note_on_c, 12, 57, 0
12, 32880, Note_on_c, 12, 57, 60
12, 33120, Note_on_c, 12, 57, 0
12, 33960, Note_on_c, 12, 57, 90
12, 34020, Note_on_c, 12, 57, 0
12, 34020, Note_on_c, 12, 59, 92
12, 34080, Note_on_c, 12, 59, 0
12, 34080, Note_on_c, 12, 60, 93
12, 34391, Note_on_c, 12, 60, 0
12, 34440, Note_on_c, 12, 59, 95
12, 34500, Note_on_c, 12, 59, 0
12, 34500, Note_on_c, 12, 57, 95
12, 34560, Note_on_c, 12, 57, 0
12, 34560, Note_on_c, 12, 59, 95
12, 34631, Note_on_c, 12, 59, 0
12, 34680, Note_on_c, 12, 55, 95
12, 34751, Note_on_c, 12, 55, 0
12, 34800, Note_on_c, 12, 52, 95
12, 34835, Note_on_c, 12, 52, 0
12, 34920, Note_on_c, 12, 57, 95
12, 34991, Note_on_c, 12, 57, 0
12, 35040, Note_on_c, 12, 62, 95
12, 35100, Note_on_c, 12, 62, 0
12, 35100, Note_on_c, 12, 61, 95
12, 35160, Note_on_c, 12, 61, 0
12, 35160, Note_on_c, 12, 59, 95
12, 35220, Note_on_c, 12, 59, 0
12, 35220, Note_on_c, 12, 57, 95
12, 35280, Note_on_c, 12, 57, 0
12, 35280, Note_on_c, 12, 55, 95
12, 35340, Note_on_c, 12, 55, 0
12, 35340, Note_on_c, 12, 54, 95
12, 35400, Note_on_c, 12, 54, 0
12, 35400, Note_on_c, 12, 52, 95
12, 35460, Note_on_c, 12, 52, 0
12, 35460, Note_on_c, 12, 54, 95
12, 35520, Note_on_c, 12, 54, 0
12, 35520, Note_on_c, 12, 50, 95
12, 35591, Note_on_c, 12, 50, 0
12, 35640, Note_on_c, 12, 57, 95
12, 35711, Note_on_c, 12, 57, 0
12, 35760, Note_on_c, 12, 62, 95
12, 35831, Note_on_c, 12, 62, 0
12, 35880, Note_on_c, 12, 62, 95
12, 36060, Note_on_c, 12, 62, 0
12, 36060, Note_on_c, 12, 61, 95
12, 36120, Note_on_c, 12, 61, 0
12, 36120, Note_on_c, 12, 62, 95
12, 36180, Note_on_c, 12, 62, 0
12, 36180, Note_on_c, 12, 64, 95
12, 36240, Note_on_c, 12, 64, 0
12, 36240, Note_on_c, 12, 62, 95
12, 36311, Note_on_c, 12, 62, 0
12, 36360, Note_on_c, 12, 59, 95
12, 36431, Note_on_c, 12, 59, 0
12, 36480, Note_on_c, 12, 61, 95
12, 36515, Note_on_c, 12, 61, 0
12, 36600, Note_on_c, 12, 61, 95
12, 36660, Note_on_c, 12, 61, 0
12, 36660, Note_on_c, 12, 57, 95
12, 36720, Note_on_c, 12, 57, 0
12, 36720, Note_on_c, 12, 54, 95
12, 36791, Note_on_c, 12, 54, 0
12, 36840, Note_on_c, 12, 55, 95
12, 36900, Note_on_c, 12, 55, 0
12, 36900, Note_on_c, 12, 57, 95
12, 36960, Note_on_c, 12, 57, 0
12, 36960, Note_on_c, 12, 55, 95
12, 37020, Note_on_c, 12, 55, 0
12, 37020, Note_on_c, 12, 59, 95
12, 37080, Note_on_c, 12, 59, 0
12, 37080, Note_on_c, 12, 64, 95
12, 37151, Note_on_c, 12, 64, 0
12, 37200, Note_on_c, 12, 57, 89
12, 37260, Note_on_c, 12, 57, 0
12, 37260, Note_on_c, 12, 54, 89
12, 37320, Note_on_c, 12, 54, 0
12, 37320, Note_on_c, 12, 55, 90
12, 37380, Note_on_c, 12, 55, 0
12, 37380, Note_on_c, 12, 57, 90
12, 37440, Note_on_c, 12, 57, 0
12, 37440, Note_on_c, 12, 59, 91
12, 37500, Note_on_c, 12, 59, 0
12, 37500, Note_on_c, 12, 57, 91
12, 37560, Note_on_c, 12, 57, 0
12, 37560, Note_on_c, 12, 59, 91
12, 37620, Note_on_c, 12, 59, 0
12, 37620, Note_on_c, 12, 61, 92
12, 37680, Note_on_c, 12, 61, 0
12, 37680, Note_on_c, 12, 62, 92
12, 37740, Note_on_c, 12, 62, 0
12, 37740, Note_on_c, 12, 61, 93
12, 37800, Note_on_c, 12, 61, 0
12, 37800, Note_on_c, 12, 62, 93
12, 37860, Note_on_c, 12, 62, 0
12, 37860, Note_on_c, 12, 64, 93
12, 37920, Note_on_c, 12, 64, 0
12, 37920, Note_on_c, 12, 66, 94
12, 38220, Note_on_c, 12, 66, 0
12, 38220, Note_on_c, 12, 67, 96
12, 38280, Note_on_c, 12, 67, 0
12, 38280, Note_on_c, 12, 66, 96
12, 38340, Note_on_c, 12, 66, 0
12, 38340, Note_on_c, 12, 64, 97
12, 38400, Note_on_c, 12, 64, 0
12, 38400, Note_on_c, 12, 62, 97
12, 38700, Note_on_c, 12, 62, 0
12, 38700, Note_on_c, 12, 60, 99
12, 38760, Note_on_c, 12, 60, 0
12, 38760, Note_on_c, 12, 59, 99
12, 38820, Note_on_c, 12, 59, 0
12, 38820, Note_on_c, 12, 57, 100
12, 38880, Note_on_c, 12, 57, 0
12, 38880, Note_on_c, 12, 55, 100
12, 38951, Note_on_c, 12, 55, 0
12, 39000, Note_on_c, 12, 67, 101
12, 39071, Note_on_c, 12, 67, 0
12, 39120, Note_on_c, 12, 66, 102
12, 39155, Note_on_c, 12, 66, 0
12, 39240, Note_on_c, 12, 69, 103
12, 39311, Note_on_c, 12, 69, 0
12, 39360, Note_on_c, 12, 62, 103
12, 39431, Note_on_c, 12, 62, 0
12, 39480, Note_on_c, 12, 62, 104
12, 39540, Note_on_c, 12, 62, 0
12, 39540, Note_on_c, 12, 64, 105
12, 39600, Note_on_c, 12, 64, 0
12, 39600, Note_on_c, 12, 57, 115
12, 39840, Note_on_c, 12, 57, 0
12, 39840, Note_on_c, 12, 57, 115
12, 40080, Note_on_c, 12, 57, 0
12, 40080, Note_on_c, 12, 57, 115
12, 40560, Note_on_c, 12, 57, 0
12, 41040, End_track
13, 0, Start_track
13, 0, MIDI_port, 0
13, 0, Title_t, "Bass"
13, 0, Program_c, 13, 52
13, 0, Control_c, 13, 91, 127
13, 240, Note_on_c, 13, 57, 108
13, 480, Note_on_c, 13, 57, 0
13, 480, Note_on_c, 13, 57, 89
13, 551, Note_on_c, 13, 57, 0
13, 600, Note_on_c, 13, 57, 89
13, 671, Note_on_c, 13, 57, 0
13, 720, Note_on_c, 13, 54, 89
13, 791, Note_on_c, 13, 54, 0
13, 840, Note_on_c, 13, 57, 89
13, 911, Note_on_c, 13, 57, 0
13, 960, Note_on_c, 13, 61, 89
13, 1200, Note_on_c, 13, 61, 0
13, 1200, Note_on_c, 13, 50, 89
13, 1235, Note_on_c, 13, 50, 0
13, 1320, Note_on_c, 13, 62, 89
13, 1391, Note_on_c, 13, 62, 0
13, 1440, Note_on_c, 13, 59, 89
13, 1511, Note_on_c, 13, 59, 0
13, 1560, Note_on_c, 13, 54, 89
13, 1631, Note_on_c, 13, 54, 0
13, 1680, Note_on_c, 13, 56, 89
13, 1800, Note_on_c, 13, 56, 0
13, 1800, Note_on_c, 13, 52, 89
13, 1871, Note_on_c, 13, 52, 0
13, 1920, Note_on_c, 13, 57, 89
13, 1991, Note_on_c, 13, 57, 0
13, 2040, Note_on_c, 13, 50, 89
13, 2111, Note_on_c, 13, 50, 0
13, 2160, Note_on_c, 13, 49, 89
13, 2400, Note_on_c, 13, 49, 0
13, 2400, Note_on_c, 13, 47, 89
13, 2640, Note_on_c, 13, 47, 0
13, 2640, Note_on_c, 13, 45, 89
13, 2675, Note_on_c, 13, 45, 0
13, 2760, Note_on_c, 13, 61, 89
13, 2831, Note_on_c, 13, 61, 0
13, 2880, Note_on_c, 13, 57, 89
13, 2951, Note_on_c, 13, 57, 0
13, 3000, Note_on_c, 13, 52, 89
13, 3071, Note_on_c, 13, 52, 0
13, 3120, Note_on_c, 13, 54, 89
13, 3191, Note_on_c, 13, 54, 0
13, 3240, Note_on_c, 13, 50, 89
13, 3311, Note_on_c, 13, 50, 0
13, 3360, Note_on_c, 13, 47, 89
13, 3431, Note_on_c, 13, 47, 0
13, 3480, Note_on_c, 13, 56, 89
13, 3551, Note_on_c, 13, 56, 0
13, 3600, Note_on_c, 13, 57, 89
13, 3671, Note_on_c, 13, 57, 0
13, 3720, Note_on_c, 13, 45, 89
13, 3791, Note_on_c, 13, 45, 0
13, 3960, Note_on_c, 13, 45, 89
13, 4031, Note_on_c, 13, 45, 0
13, 4080, Note_on_c, 13, 47, 89
13, 4140, Note_on_c, 13, 47, 0
13, 4140, Note_on_c, 13, 50, 89
13, 4200, Note_on_c, 13, 50, 0
13, 4200, Note_on_c, 13, 52, 89
13, 4260, Note_on_c, 13, 52, 0
13, 4260, Note_on_c, 13, 54, 89
13, 4320, Note_on_c, 13, 54, 0
13, 4320, Note_on_c, 13, 55, 89
13, 4631, Note_on_c, 13, 55, 0
13, 4680, Note_on_c, 13, 54, 89
13, 4920, Note_on_c, 13, 54, 0
13, 4920, Note_on_c, 13, 59, 89
13, 4991, Note_on_c, 13, 59, 0
13, 5040, Note_on_c, 13, 57, 89
13, 5111, Note_on_c, 13, 57, 0
13, 5160, Note_on_c, 13, 50, 89
13, 5231, Note_on_c, 13, 50, 0
13, 5280, Note_on_c, 13, 50, 89
13, 5351, Note_on_c, 13, 50, 0
13, 5400, Note_on_c, 13, 49, 89
13, 5520, Note_on_c, 13, 49, 0
13, 5520, Note_on_c, 13, 50, 89
13, 5555, Note_on_c, 13, 50, 0
13, 5640, Note_on_c, 13, 54, 89
13, 5700, Note_on_c, 13, 54, 0
13, 5700, Note_on_c, 13, 55, 89
13, 5760, Note_on_c, 13, 55, 0
13, 5760, Note_on_c, 13, 57, 89
13, 6071, Note_on_c, 13, 57, 0
13, 6120, Note_on_c, 13, 56, 89
13, 6180, Note_on_c, 13, 56, 0
13, 6180, Note_on_c, 13, 57, 89
13, 6240, Note_on_c, 13, 57, 0
13, 6240, Note_on_c, 13, 59, 89
13, 6551, Note_on_c, 13, 59, 0
13, 6600, Note_on_c, 13, 57, 89
13, 6660, Note_on_c, 13, 57, 0
13, 6660, Note_on_c, 13, 56, 89
13, 6720, Note_on_c, 13, 56, 0
13, 6720, Note_on_c, 13, 54, 89
13, 6755, Note_on_c, 13, 54, 0
13, 6840, Note_on_c, 13, 54, 89
13, 6900, Note_on_c, 13, 54, 0
13, 6900, Note_on_c, 13, 56, 89
13, 6960, Note_on_c, 13, 56, 0
13, 6960, Note_on_c, 13, 57, 89
13, 7031, Note_on_c, 13, 57, 0
13, 7080, Note_on_c, 13, 54, 89
13, 7151, Note_on_c, 13, 54, 0
13, 7200, Note_on_c, 13, 50, 89
13, 7271, Note_on_c, 13, 50, 0
13, 7320, Note_on_c, 13, 52, 89
13, 7391, Note_on_c, 13, 52, 0
13, 7440, Note_on_c, 13, 45, 89
13, 7680, Note_on_c, 13, 45, 0
13, 9840, Note_on_c, 13, 57, 108
13, 10080, Note_on_c, 13, 57, 0
13, 10080, Note_on_c, 13, 57, 89
13, 10151, Note_on_c, 13, 57, 0
13, 10200, Note_on_c, 13, 57, 89
13, 10271, Note_on_c, 13, 57, 0
13, 10320, Note_on_c, 13, 54, 89
13, 10391, Note_on_c, 13, 54, 0
13, 10440, Note_on_c, 13, 57, 89
13, 10511, Note_on_c, 13, 57, 0
13, 10560, Note_on_c, 13, 61, 89
13, 10800, Note_on_c, 13, 61, 0
13, 10800, Note_on_c, 13, 50, 89
13, 10835, Note_on_c, 13, 50, 0
13, 10920, Note_on_c, 13, 62, 89
13, 10991, Note_on_c, 13, 62, 0
13, 11040, Note_on_c, 13, 59, 89
13, 11111, Note_on_c, 13, 59, 0
13, 11160, Note_on_c, 13, 54, 89
13, 11231, Note_on_c, 13, 54, 0
13, 11280, Note_on_c, 13, 56, 89
13, 11400, Note_on_c, 13, 56, 0
13, 11400, Note_on_c, 13, 52, 89
13, 11471, Note_on_c, 13, 52, 0
13, 11520, Note_on_c, 13, 57, 89
13, 11591, Note_on_c, 13, 57, 0
13, 11640, Note_on_c, 13, 50, 89
13, 11711, Note_on_c, 13, 50, 0
13, 11760, Note_on_c, 13, 49, 89
13, 12000, Note_on_c, 13, 49, 0
13, 12000, Note_on_c, 13, 47, 89
13, 12240, Note_on_c, 13, 47, 0
13, 12240, Note_on_c, 13, 45, 89
13, 12480, Note_on_c, 13, 45, 0
13, 12600, Note_on_c, 13, 45, 89
13, 12671, Note_on_c, 13, 45, 0
13, 12720, Note_on_c, 13, 47, 89
13, 12780, Note_on_c, 13, 47, 0
13, 12780, Note_on_c, 13, 50, 89
13, 12840, Note_on_c, 13, 50, 0
13, 12840, Note_on_c, 13, 52, 89
13, 12900, Note_on_c, 13, 52, 0
13, 12900, Note_on_c, 13, 54, 89
13, 12960, Note_on_c, 13, 54, 0
13, 12960, Note_on_c, 13, 55, 89
13, 13271, Note_on_c, 13, 55, 0
13, 13320, Note_on_c, 13, 54, 89
13, 13380, Note_on_c, 13, 54, 0
13, 13380, Note_on_c, 13, 52, 89
13, 13440, Note_on_c, 13, 52, 0
13, 13440, Note_on_c, 13, 54, 89
13, 13475, Note_on_c, 13, 54, 0
13, 13560, Note_on_c, 13, 59, 89
13, 13631, Note_on_c, 13, 59, 0
13, 13680, Note_on_c, 13, 57, 89
13, 13751, Note_on_c, 13, 57, 0
13, 13800, Note_on_c, 13, 50, 89
13, 13871, Note_on_c, 13, 50, 0
13, 13920, Note_on_c, 13, 50, 89
13, 14040, Note_on_c, 13, 50, 0
13, 14040, Note_on_c, 13, 49, 89
13, 14111, Note_on_c, 13, 49, 0
13, 14160, Note_on_c, 13, 50, 89
13, 14400, Note_on_c, 13, 50, 0
13, 14520, Note_on_c, 13, 43, 89
13, 14591, Note_on_c, 13, 43, 0
13, 14640, Note_on_c, 13, 48, 89
13, 14940, Note_on_c, 13, 48, 0
13, 14940, Note_on_c, 13, 45, 89
13, 15000, Note_on_c, 13, 45, 0
13, 15000, Note_on_c, 13, 47, 89
13, 15060, Note_on_c, 13, 47, 0
13, 15060, Note_on_c, 13, 48, 89
13, 15120, Note_on_c, 13, 48, 0
13, 15120, Note_on_c, 13, 50, 89
13, 15191, Note_on_c, 13, 50, 0
13, 15240, Note_on_c, 13, 47, 89
13, 15275, Note_on_c, 13, 47, 0
13, 15360, Note_on_c, 13, 52, 89
13, 15420, Note_on_c, 13, 52, 0
13, 15420, Note_on_c, 13, 50, 89
13, 15480, Note_on_c, 13, 50, 0
13, 15480, Note_on_c, 13, 52, 89
13, 15540, Note_on_c, 13, 52, 0
13, 15540, Note_on_c, 13, 54, 89
13, 15600, Note_on_c, 13, 54, 0
13, 15600, Note_on_c, 13, 55, 89
13, 15671, Note_on_c, 13, 55, 0
13, 15720, Note_on_c, 13, 60, 89
13, 15960, Note_on_c, 13, 60, 0
13, 15960, Note_on_c, 13, 51, 89
13, 16031, Note_on_c, 13, 51, 0
13, 16080, Note_on_c, 13, 52, 89
13, 16151, Note_on_c, 13, 52, 0
13, 16200, Note_on_c, 13, 45, 89
13, 16235, Note_on_c, 13, 45, 0
13, 16320, Note_on_c, 13, 57, 89
13, 16391, Note_on_c, 13, 57, 0
13, 16440, Note_on_c, 13, 59, 89
13, 16511, Note_on_c, 13, 59, 0
13, 16560, Note_on_c, 13, 60, 89
13, 16631, Note_on_c, 13, 60, 0
13, 16680, Note_on_c, 13, 59, 89
13, 16751, Note_on_c, 13, 59, 0
13, 16800, Note_on_c, 13, 57, 89
13, 16871, Note_on_c, 13, 57, 0
13, 16920, Note_on_c, 13, 57, 89
13, 17111, Note_on_c, 13, 57, 0
13, 17160, Note_on_c, 13, 55, 89
13, 17220, Note_on_c, 13, 55, 0
13, 17220, Note_on_c, 13, 54, 89
13, 17280, Note_on_c, 13, 54, 0
13, 17280, Note_on_c, 13, 55, 89
13, 17315, Note_on_c, 13, 55, 0
13, 17400, Note_on_c, 13, 57, 89
13, 17471, Note_on_c, 13, 57, 0
13, 17520, Note_on_c, 13, 59, 89
13, 17591, Note_on_c, 13, 59, 0
13, 17640, Note_on_c, 13, 59, 89
13, 17700, Note_on_c, 13, 59, 0
13, 17700, Note_on_c, 13, 57, 89
13, 17760, Note_on_c, 13, 57, 0
13, 17760, Note_on_c, 13, 59, 89
13, 17831, Note_on_c, 13, 59, 0
13, 17880, Note_on_c, 13, 47, 89
13, 17951, Note_on_c, 13, 47, 0
13, 18000, Note_on_c, 13, 52, 89
13, 18035, Note_on_c, 13, 52, 0
13, 18120, Note_on_c, 13, 52, 89
13, 18360, Note_on_c, 13, 52, 0
13, 18360, Note_on_c, 13, 52, 89
13, 18551, Note_on_c, 13, 52, 0
13, 18600, Note_on_c, 13, 52, 89
13, 18660, Note_on_c, 13, 52, 0
13, 18660, Note_on_c, 13, 50, 89
13, 18720, Note_on_c, 13, 50, 0
13, 18720, Note_on_c, 13, 52, 89
13, 18791, Note_on_c, 13, 52, 0
13, 18840, Note_on_c, 13, 52, 89
13, 18911, Note_on_c, 13, 52, 0
13, 18960, Note_on_c, 13, 45, 89
13, 19031, Note_on_c, 13, 45, 0
13, 19920, Note_on_c, 13, 57, 89
13, 20160, Note_on_c, 13, 57, 0
13, 20160, Note_on_c, 13, 57, 89
13, 20400, Note_on_c, 13, 57, 0
13, 20520, Note_on_c, 13, 57, 89
13, 20591, Note_on_c, 13, 57, 0
13, 20640, Note_on_c, 13, 57, 89
13, 20711, Note_on_c, 13, 57, 0
13, 20760, Note_on_c, 13, 45, 89
13, 20831, Note_on_c, 13, 45, 0
13, 20880, Note_on_c, 13, 50, 89
13, 20951, Note_on_c, 13, 50, 0
13, 21000, Note_on_c, 13, 50, 89
13, 21071, Note_on_c, 13, 50, 0
13, 22800, Note_on_c, 13, 57, 89
13, 23040, Note_on_c, 13, 57, 0
13, 23040, Note_on_c, 13, 50, 89
13, 23280, Note_on_c, 13, 50, 0
13, 23400, Note_on_c, 13, 52, 89
13, 23471, Note_on_c, 13, 52, 0
13, 23520, Note_on_c, 13, 55, 89
13, 23591, Note_on_c, 13, 55, 0
13, 23640, Note_on_c, 13, 52, 89
13, 23711, Note_on_c, 13, 52, 0
13, 23760, Note_on_c, 13, 57, 89
13, 23831, Note_on_c, 13, 57, 0
13, 23880, Note_on_c, 13, 45, 89
13, 23951, Note_on_c, 13, 45, 0
13, 24360, Note_on_c, 13, 57, 108
13, 24431, Note_on_c, 13, 57, 0
13, 24480, Note_on_c, 13, 57, 89
13, 24551, Note_on_c, 13, 57, 0
13, 24600, Note_on_c, 13, 57, 89
13, 24671, Note_on_c, 13, 57, 0
13, 24720, Note_on_c, 13, 54, 89
13, 24791, Note_on_c, 13, 54, 0
13, 24840, Note_on_c, 13, 57, 89
13, 24911, Note_on_c, 13, 57, 0
13, 24960, Note_on_c, 13, 59, 89
13, 25200, Note_on_c, 13, 59, 0
13, 25200, Note_on_c, 13, 48, 89
13, 25271, Note_on_c, 13, 48, 0
13, 25320, Note_on_c, 13, 60, 89
13, 25391, Note_on_c, 13, 60, 0
13, 25440, Note_on_c, 13, 57, 89
13, 25511, Note_on_c, 13, 57, 0
13, 25560, Note_on_c, 13, 52, 89
13, 25631, Note_on_c, 13, 52, 0
13, 25680, Note_on_c, 13, 54, 89
13, 25800, Note_on_c, 13, 54, 0
13, 25800, Note_on_c, 13, 50, 89
13, 25871, Note_on_c, 13, 50, 0
13, 25920, Note_on_c, 13, 57, 89
13, 25991, Note_on_c, 13, 57, 0
13, 26040, Note_on_c, 13, 48, 89
13, 26111, Note_on_c, 13, 48, 0
13, 26160, Note_on_c, 13, 48, 89
13, 26280, Note_on_c, 13, 48, 0
13, 26280, Note_on_c, 13, 47, 89
13, 26351, Note_on_c, 13, 47, 0
13, 26400, Note_on_c, 13, 45, 89
13, 26435, Note_on_c, 13, 45, 0
13, 26520, Note_on_c, 13, 57, 89
13, 26711, Note_on_c, 13, 57, 0
13, 26760, Note_on_c, 13, 55, 89
13, 26820, Note_on_c, 13, 55, 0
13, 26820, Note_on_c, 13, 54, 89
13, 26880, Note_on_c, 13, 54, 0
13, 26880, Note_on_c, 13, 55, 89
13, 26951, Note_on_c, 13, 55, 0
13, 27000, Note_on_c, 13, 52, 89
13, 27071, Note_on_c, 13, 52, 0
13, 27120, Note_on_c, 13, 54, 89
13, 27191, Note_on_c, 13, 54, 0
13, 27240, Note_on_c, 13, 47, 89
13, 27275, Note_on_c, 13, 47, 0
13, 27360, Note_on_c, 13, 59, 89
13, 27671, Note_on_c, 13, 59, 0
13, 27720, Note_on_c, 13, 57, 89
13, 27780, Note_on_c, 13, 57, 0
13, 27780, Note_on_c, 13, 55, 89
13, 27840, Note_on_c, 13, 55, 0
13, 27840, Note_on_c, 13, 57, 89
13, 27911, Note_on_c, 13, 57, 0
13, 27960, Note_on_c, 13, 50, 89
13, 28031, Note_on_c, 13, 50, 0
13, 28080, Note_on_c, 13, 55, 89
13, 28151, Note_on_c, 13, 55, 0
13, 28200, Note_on_c, 13, 43, 89
13, 28235, Note_on_c, 13, 43, 0
13, 28320, Note_on_c, 13, 55, 89
13, 28391, Note_on_c, 13, 55, 0
13, 28440, Note_on_c, 13, 54, 89
13, 28500, Note_on_c, 13, 54, 0
13, 28500, Note_on_c, 13, 55, 89
13, 28560, Note_on_c, 13, 55, 0
13, 28560, Note_on_c, 13, 57, 89
13, 28920, Note_on_c, 13, 57, 0
13, 28920, Note_on_c, 13, 55, 89
13, 28980, Note_on_c, 13, 55, 0
13, 28980, Note_on_c, 13, 57, 89
13, 29040, Note_on_c, 13, 57, 0
13, 29040, Note_on_c, 13, 59, 89
13, 29340, Note_on_c, 13, 59, 0
13, 29340, Note_on_c, 13, 57, 89
13, 29400, Note_on_c, 13, 57, 0
13, 29400, Note_on_c, 13, 59, 89
13, 29460, Note_on_c, 13, 59, 0
13, 29460, Note_on_c, 13, 61, 89
13, 29520, Note_on_c, 13, 61, 0
13, 29520, Note_on_c, 13, 62, 89
13, 29591, Note_on_c, 13, 62, 0
13, 29640, Note_on_c, 13, 50, 89
13, 29711, Note_on_c, 13, 50, 0
13, 29760, Note_on_c, 13, 50, 89
13, 29795, Note_on_c, 13, 50, 0
13, 29880, Note_on_c, 13, 62, 89
13, 30071, Note_on_c, 13, 62, 0
13, 30120, Note_on_c, 13, 61, 89
13, 30180, Note_on_c, 13, 61, 0
13, 30180, Note_on_c, 13, 59, 89
13, 30240, Note_on_c, 13, 59, 0
13, 30240, Note_on_c, 13, 61, 89
13, 30311, Note_on_c, 13, 61, 0
13, 30360, Note_on_c, 13, 57, 89
13, 30431, Note_on_c, 13, 57, 0
13, 30480, Note_on_c, 13, 59, 89
13, 30840, Note_on_c, 13, 59, 0
13, 30840, Note_on_c, 13, 59, 89
13, 30911, Note_on_c, 13, 59, 0
13, 30960, Note_on_c, 13, 57, 89
13, 31955, Note_on_c, 13, 57, 0
13, 32040, Note_on_c, 13, 54, 89
13, 32111, Note_on_c, 13, 54, 0
13, 32160, Note_on_c, 13, 59, 89
13, 32231, Note_on_c, 13, 59, 0
13, 32280, Note_on_c, 13, 55, 89
13, 32351, Note_on_c, 13, 55, 0
13, 32400, Note_on_c, 13, 57, 89
13, 32640, Note_on_c, 13, 57, 0
13, 32640, Note_on_c, 13, 45, 89
13, 32880, Note_on_c, 13, 45, 0
13, 32880, Note_on_c, 13, 50, 60
13, 34355, Note_on_c, 13, 50, 0
13, 34440, Note_on_c, 13, 52, 95
13, 34500, Note_on_c, 13, 52, 0
13, 34500, Note_on_c, 13, 54, 95
13, 34560, Note_on_c, 13, 54, 0
13, 34560, Note_on_c, 13, 55, 95
13, 34871, Note_on_c, 13, 55, 0
13, 34920, Note_on_c, 13, 54, 95
13, 34980, Note_on_c, 13, 54, 0
13, 34980, Note_on_c, 13, 52, 95
13, 35040, Note_on_c, 13, 52, 0
13, 35040, Note_on_c, 13, 54, 95
13, 35111, Note_on_c, 13, 54, 0
13, 35160, Note_on_c, 13, 50, 95
13, 35231, Note_on_c, 13, 50, 0
13, 35280, Note_on_c, 13, 52, 95
13, 35351, Note_on_c, 13, 52, 0
13, 36360, Note_on_c, 13, 52, 95
13, 36431, Note_on_c, 13, 52, 0
13, 36480, Note_on_c, 13, 57, 95
13, 36791, Note_on_c, 13, 57, 0
13, 36840, Note_on_c, 13, 55, 95
13, 36900, Note_on_c, 13, 55, 0
13, 36900, Note_on_c, 13, 54, 95
13, 36960, Note_on_c, 13, 54, 0
13, 36960, Note_on_c, 13, 55, 95
13, 37031, Note_on_c, 13, 55, 0
13, 37080, Note_on_c, 13, 54, 95
13, 37140, Note_on_c, 13, 54, 0
13, 37140, Note_on_c, 13, 52, 95
13, 37200, Note_on_c, 13, 52, 0
13, 37200, Note_on_c, 13, 54, 89
13, 37260, Note_on_c, 13, 54, 0
13, 37260, Note_on_c, 13, 50, 89
13, 37320, Note_on_c, 13, 50, 0
13, 37320, Note_on_c, 13, 52, 90
13, 37380, Note_on_c, 13, 52, 0
13, 37380, Note_on_c, 13, 54, 90
13, 37440, Note_on_c, 13, 54, 0
13, 37440, Note_on_c, 13, 55, 91
13, 37500, Note_on_c, 13, 55, 0
13, 37500, Note_on_c, 13, 54, 91
13, 37560, Note_on_c, 13, 54, 0
13, 37560, Note_on_c, 13, 55, 91
13, 37620, Note_on_c, 13, 55, 0
13, 37620, Note_on_c, 13, 57, 92
13, 37680, Note_on_c, 13, 57, 0
13, 37680, Note_on_c, 13, 59, 92
13, 37740, Note_on_c, 13, 59, 0
13, 37740, Note_on_c, 13, 57, 93
13, 37800, Note_on_c, 13, 57, 0
13, 37800, Note_on_c, 13, 59, 93
13, 37860, Note_on_c, 13, 59, 0
13, 37860, Note_on_c, 13, 61, 93
13, 37920, Note_on_c, 13, 61, 0
13, 37920, Note_on_c, 13, 62, 94
13, 38195, Note_on_c, 13, 62, 0
13, 38280, Note_on_c, 13, 50, 96
13, 38340, Note_on_c, 13, 50, 0
13, 38340, Note_on_c, 13, 52, 97
13, 38400, Note_on_c, 13, 52, 0
13, 38400, Note_on_c, 13, 54, 97
13, 38460, Note_on_c, 13, 54, 0
13, 38460, Note_on_c, 13, 52, 97
13, 38520, Note_on_c, 13, 52, 0
13, 38520, Note_on_c, 13, 54, 98
13, 38580, Note_on_c, 13, 54, 0
13, 38580, Note_on_c, 13, 55, 98
13, 38640, Note_on_c, 13, 55, 0
13, 38640, Note_on_c, 13, 57, 99
13, 38700, Note_on_c, 13, 57, 0
13, 38700, Note_on_c, 13, 50, 99
13, 38760, Note_on_c, 13, 50, 0
13, 38760, Note_on_c, 13, 52, 99
13, 38820, Note_on_c, 13, 52, 0
13, 38820, Note_on_c, 13, 54, 100
13, 38880, Note_on_c, 13, 54, 0
13, 38880, Note_on_c, 13, 55, 100
13, 38940, Note_on_c, 13, 55, 0
13, 38940, Note_on_c, 13, 54, 101
13, 39000, Note_on_c, 13, 54, 0
13, 39000, Note_on_c, 13, 55, 101
13, 39060, Note_on_c, 13, 55, 0
13, 39060, Note_on_c, 13, 57, 101
13, 39120, Note_on_c, 13, 57, 0
13, 39120, Note_on_c, 13, 59, 102
13, 39155, Note_on_c, 13, 59, 0
13, 39240, Note_on_c, 13, 57, 103
13, 39300, Note_on_c, 13, 57, 0
13, 39300, Note_on_c, 13, 55, 103
13, 39360, Note_on_c, 13, 55, 0
13, 39360, Note_on_c, 13, 54, 103
13, 39431, Note_on_c, 13, 54, 0
13, 39480, Note_on_c, 13, 55, 104
13, 39551, Note_on_c, 13, 55, 0
13, 39600, Note_on_c, 13, 57, 115
13, 39840, Note_on_c, 13, 57, 0
13, 39840, Note_on_c, 13, 45, 115
13, 40080, Note_on_c, 13, 45, 0
13, 40080, Note_on_c, 13, 50, 115
13, 40560, Note_on_c, 13, 50, 0
13, 41040, End_track
14, 0, Start_track
14, 0, MIDI_port, 0
14, 0, Title_t, "Organ"
14, 0, Program_c, 8, 19
14, 0, Control_c, 8, 91, 127
14, 240, Control_c, 8, 7, 90
14, 240, Note_on_c, 8, 57, 64
14, 480, Note_on_c, 8, 57, 0
14, 540, Note_on_c, 8, 45, 64
14, 600, Note_on_c, 8, 45, 0
14, 600, Note_on_c, 8, 47, 64
14, 660, Note_on_c, 8, 47, 0
14, 660, Note_on_c, 8, 49, 64
14, 720, Note_on_c, 8, 49, 0
14, 720, Note_on_c, 8, 50, 64
14, 780, Note_on_c, 8, 50, 0
14, 780, Note_on_c, 8, 52, 64
14, 840, Note_on_c, 8, 52, 0
14, 840, Note_on_c, 8, 54, 64
14, 900, Note_on_c, 8, 54, 0
14, 900, Note_on_c, 8, 55, 64
14, 960, Note_on_c, 8, 55, 0
14, 960, Note_on_c, 8, 57, 64
14, 1031, Note_on_c, 8, 57, 0
14, 1080, Note_on_c, 8, 45, 64
14, 1151, Note_on_c, 8, 45, 0
14, 1200, Note_on_c, 8, 50, 64
14, 1440, Note_on_c, 8, 50, 0
14, 1500, Note_on_c, 8, 47, 64
14, 1560, Note_on_c, 8, 47, 0
14, 1560, Note_on_c, 8, 49, 64
14, 1620, Note_on_c, 8, 49, 0
14, 1620, Note_on_c, 8, 50, 64
14, 1680, Note_on_c, 8, 50, 0
14, 1680, Note_on_c, 8, 52, 64
14, 1740, Note_on_c, 8, 52, 0
14, 1740, Note_on_c, 8, 49, 64
14, 1800, Note_on_c, 8, 49, 0
14, 1800, Note_on_c, 8, 50, 64
14, 1860, Note_on_c, 8, 50, 0
14, 1860, Note_on_c, 8, 52, 64
14, 1920, Note_on_c, 8, 52, 0
14, 1920, Note_on_c, 8, 54, 64
14, 1980, Note_on_c, 8, 54, 0
14, 1980, Note_on_c, 8, 52, 64
14, 2040, Note_on_c, 8, 52, 0
14, 2040, Note_on_c, 8, 54, 64
14, 2100, Note_on_c, 8, 54, 0
14, 2100, Note_on_c, 8, 56, 64
14, 2160, Note_on_c, 8, 56, 0
14, 2160, Note_on_c, 8, 57, 64
14, 2220, Note_on_c, 8, 57, 0
14, 2220, Note_on_c, 8, 56, 64
14, 2280, Note_on_c, 8, 56, 0
14, 2280, Note_on_c, 8, 54, 64
14, 2340, Note_on_c, 8, 54, 0
14, 2340, Note_on_c, 8, 52, 64
14, 2400, Note_on_c, 8, 52, 0
14, 2400, Note_on_c, 8, 50, 64
14, 2460, Note_on_c, 8, 50, 0
14, 2460, Note_on_c, 8, 54, 64
14, 2520, Note_on_c, 8, 54, 0
14, 2520, Note_on_c, 8, 52, 64
14, 2580, Note_on_c, 8, 52, 0
14, 2580, Note_on_c, 8, 50, 64
14, 2640, Note_on_c, 8, 50, 0
14, 2640, Note_on_c, 8, 49, 64
14, 2711, Note_on_c, 8, 49, 0
14, 2760, Note_on_c, 8, 45, 64
14, 2831, Note_on_c, 8, 45, 0
14, 2940, Note_on_c, 8, 45, 64
14, 3000, Note_on_c, 8, 45, 0
14, 3000, Note_on_c, 8, 47, 64
14, 3060, Note_on_c, 8, 47, 0
14, 3060, Note_on_c, 8, 49, 64
14, 3120, Note_on_c, 8, 49, 0
14, 3120, Note_on_c, 8, 50, 64
14, 3180, Note_on_c, 8, 50, 0
14, 3180, Note_on_c, 8, 47, 64
14, 3240, Note_on_c, 8, 47, 0
14, 3240, Note_on_c, 8, 49, 64
14, 3300, Note_on_c, 8, 49, 0
14, 3300, Note_on_c, 8, 50, 64
14, 3360, Note_on_c, 8, 50, 0
14, 3360, Note_on_c, 8, 52, 64
14, 3420, Note_on_c, 8, 52, 0
14, 3420, Note_on_c, 8, 50, 64
14, 3480, Note_on_c, 8, 50, 0
14, 3480, Note_on_c, 8, 49, 64
14, 3540, Note_on_c, 8, 49, 0
14, 3540, Note_on_c, 8, 47, 64
14, 3600, Note_on_c, 8, 47, 0
14, 3600, Note_on_c, 8, 45, 64
14, 3660, Note_on_c, 8, 45, 0
14, 3660, Note_on_c, 8, 43, 64
14, 3720, Note_on_c, 8, 43, 0
14, 3720, Note_on_c, 8, 42, 64
14, 3780, Note_on_c, 8, 42, 0
14, 3780, Note_on_c, 8, 40, 64
14, 3840, Note_on_c, 8, 40, 0
14, 3840, Note_on_c, 8, 38, 64
14, 3900, Note_on_c, 8, 38, 0
14, 3900, Note_on_c, 8, 40, 64
14, 3960, Note_on_c, 8, 40, 0
14, 3960, Note_on_c, 8, 42, 64
14, 4020, Note_on_c, 8, 42, 0
14, 4020, Note_on_c, 8, 38, 64
14, 4080, Note_on_c, 8, 38, 0
14, 4080, Note_on_c, 8, 43, 64
14, 4320, Note_on_c, 8, 43, 0
14, 4380, Note_on_c, 8, 40, 64
14, 4440, Note_on_c, 8, 40, 0
14, 4440, Note_on_c, 8, 42, 64
14, 4500, Note_on_c, 8, 42, 0
14, 4500, Note_on_c, 8, 43, 64
14, 4560, Note_on_c, 8, 43, 0
14, 4560, Note_on_c, 8, 45, 64
14, 4620, Note_on_c, 8, 45, 0
14, 4620, Note_on_c, 8, 42, 64
14, 4680, Note_on_c, 8, 42, 0
14, 4680, Note_on_c, 8, 43, 64
14, 4740, Note_on_c, 8, 43, 0
14, 4740, Note_on_c, 8, 45, 64
14, 4800, Note_on_c, 8, 45, 0
14, 4800, Note_on_c, 8, 47, 64
14, 4860, Note_on_c, 8, 47, 0
14, 4860, Note_on_c, 8, 45, 64
14, 4920, Note_on_c, 8, 45, 0
14, 4920, Note_on_c, 8, 47, 64
14, 4980, Note_on_c, 8, 47, 0
14, 4980, Note_on_c, 8, 49, 64
14, 5040, Note_on_c, 8, 49, 0
14, 5040, Note_on_c, 8, 50, 64
14, 5100, Note_on_c, 8, 50, 0
14, 5100, Note_on_c, 8, 52, 64
14, 5160, Note_on_c, 8, 52, 0
14, 5160, Note_on_c, 8, 54, 64
14, 5220, Note_on_c, 8, 54, 0
14, 5220, Note_on_c, 8, 55, 64
14, 5280, Note_on_c, 8, 55, 0
14, 5280, Note_on_c, 8, 57, 64
14, 5351, Note_on_c, 8, 57, 0
14, 5400, Note_on_c, 8, 45, 64
14, 5471, Note_on_c, 8, 45, 0
14, 5520, Note_on_c, 8, 38, 64
14, 5580, Note_on_c, 8, 38, 0
14, 5580, Note_on_c, 8, 40, 64
14, 5640, Note_on_c, 8, 40, 0
14, 5640, Note_on_c, 8, 42, 64
14, 5700, Note_on_c, 8, 42, 0
14, 5700, Note_on_c, 8, 43, 64
14, 5760, Note_on_c, 8, 43, 0
14, 5760, Note_on_c, 8, 45, 64
14, 5820, Note_on_c, 8, 45, 0
14, 5820, Note_on_c, 8, 47, 64
14, 5880, Note_on_c, 8, 47, 0
14, 5880, Note_on_c, 8, 49, 64
14, 5940, Note_on_c, 8, 49, 0
14, 5940, Note_on_c, 8, 45, 64
14, 6000, Note_on_c, 8, 45, 0
14, 6000, Note_on_c, 8, 50, 64
14, 6240, Note_on_c, 8, 50, 0
14, 6300, Note_on_c, 8, 47, 64
14, 6360, Note_on_c, 8, 47, 0
14, 6360, Note_on_c, 8, 49, 64
14, 6420, Note_on_c, 8, 49, 0
14, 6420, Note_on_c, 8, 50, 64
14, 6480, Note_on_c, 8, 50, 0
14, 6480, Note_on_c, 8, 52, 64
14, 6540, Note_on_c, 8, 52, 0
14, 6540, Note_on_c, 8, 49, 64
14, 6600, Note_on_c, 8, 49, 0
14, 6600, Note_on_c, 8, 50, 64
14, 6660, Note_on_c, 8, 50, 0
14, 6660, Note_on_c, 8, 52, 64
14, 6720, Note_on_c, 8, 52, 0
14, 6720, Note_on_c, 8, 54, 64
14, 6780, Note_on_c, 8, 54, 0
14, 6780, Note_on_c, 8, 52, 64
14, 6840, Note_on_c, 8, 52, 0
14, 6840, Note_on_c, 8, 54, 64
14, 6900, Note_on_c, 8, 54, 0
14, 6900, Note_on_c, 8, 56, 64
14, 6960, Note_on_c, 8, 56, 0
14, 6960, Note_on_c, 8, 57, 64
14, 7020, Note_on_c, 8, 57, 0
14, 7020, Note_on_c, 8, 56, 64
14, 7080, Note_on_c, 8, 56, 0
14, 7080, Note_on_c, 8, 54, 64
14, 7140, Note_on_c, 8, 54, 0
14, 7140, Note_on_c, 8, 52, 64
14, 7200, Note_on_c, 8, 52, 0
14, 7200, Note_on_c, 8, 50, 64
14, 7271, Note_on_c, 8, 50, 0
14, 7320, Note_on_c, 8, 52, 64
14, 7391, Note_on_c, 8, 52, 0
14, 7440, Note_on_c, 8, 45, 64
14, 7680, Note_on_c, 8, 45, 0
14, 7740, Note_on_c, 8, 45, 64
14, 7800, Note_on_c, 8, 45, 0
14, 7800, Note_on_c, 8, 47, 64
14, 7860, Note_on_c, 8, 47, 0
14, 7860, Note_on_c, 8, 49, 64
14, 7920, Note_on_c, 8, 49, 0
14, 7920, Note_on_c, 8, 47, 64
14, 7980, Note_on_c, 8, 47, 0
14, 7980, Note_on_c, 8, 49, 64
14, 8040, Note_on_c, 8, 49, 0
14, 8040, Note_on_c, 8, 50, 64
14, 8100, Note_on_c, 8, 50, 0
14, 8100, Note_on_c, 8, 47, 64
14, 8160, Note_on_c, 8, 47, 0
14, 8160, Note_on_c, 8, 52, 64
14, 8220, Note_on_c, 8, 52, 0
14, 8220, Note_on_c, 8, 50, 64
14, 8280, Note_on_c, 8, 50, 0
14, 8280, Note_on_c, 8, 49, 64
14, 8340, Note_on_c, 8, 49, 0
14, 8340, Note_on_c, 8, 47, 64
14, 8400, Note_on_c, 8, 47, 0
14, 8400, Note_on_c, 8, 45, 64
14, 8460, Note_on_c, 8, 45, 0
14, 8460, Note_on_c, 8, 43, 64
14, 8520, Note_on_c, 8, 43, 0
14, 8520, Note_on_c, 8, 42, 64
14, 8580, Note_on_c, 8, 42, 0
14, 8580, Note_on_c, 8, 40, 64
14, 8640, Note_on_c, 8, 40, 0
14, 8640, Note_on_c, 8, 38, 64
14, 8700, Note_on_c, 8, 38, 0
14, 8700, Note_on_c, 8, 40, 64
14, 8760, Note_on_c, 8, 40, 0
14, 8760, Note_on_c, 8, 42, 64
14, 8820, Note_on_c, 8, 42, 0
14, 8820, Note_on_c, 8, 38, 64
14, 8880, Note_on_c, 8, 38, 0
14, 8880, Note_on_c, 8, 43, 64
14, 9120, Note_on_c, 8, 43, 0
14, 9180, Note_on_c, 8, 40, 64
14, 9240, Note_on_c, 8, 40, 0
14, 9240, Note_on_c, 8, 42, 64
14, 9300, Note_on_c, 8, 42, 0
14, 9300, Note_on_c, 8, 43, 64
14, 9360, Note_on_c, 8, 43, 0
14, 9360, Note_on_c, 8, 45, 64
14, 9420, Note_on_c, 8, 45, 0
14, 9420, Note_on_c, 8, 42, 64
14, 9480, Note_on_c, 8, 42, 0
14, 9480, Note_on_c, 8, 43, 64
14, 9540, Note_on_c, 8, 43, 0
14, 9540, Note_on_c, 8, 45, 64
14, 9600, Note_on_c, 8, 45, 0
14, 9600, Note_on_c, 8, 47, 64
14, 9660, Note_on_c, 8, 47, 0
14, 9660, Note_on_c, 8, 45, 64
14, 9720, Note_on_c, 8, 45, 0
14, 9720, Note_on_c, 8, 47, 64
14, 9780, Note_on_c, 8, 47, 0
14, 9780, Note_on_c, 8, 49, 64
14, 9840, Note_on_c, 8, 49, 0
14, 9840, Note_on_c, 8, 50, 64
14, 9900, Note_on_c, 8, 50, 0
14, 9900, Note_on_c, 8, 52, 64
14, 9960, Note_on_c, 8, 52, 0
14, 9960, Note_on_c, 8, 54, 64
14, 10020, Note_on_c, 8, 54, 0
14, 10020, Note_on_c, 8, 55, 64
14, 10080, Note_on_c, 8, 55, 0
14, 10080, Note_on_c, 8, 57, 64
14, 10140, Note_on_c, 8, 57, 0
14, 10140, Note_on_c, 8, 59, 64
14, 10200, Note_on_c, 8, 59, 0
14, 10200, Note_on_c, 8, 57, 64
14, 10260, Note_on_c, 8, 57, 0
14, 10260, Note_on_c, 8, 55, 64
14, 10320, Note_on_c, 8, 55, 0
14, 10320, Note_on_c, 8, 54, 64
14, 10380, Note_on_c, 8, 54, 0
14, 10380, Note_on_c, 8, 55, 64
14, 10440, Note_on_c, 8, 55, 0
14, 10440, Note_on_c, 8, 57, 64
14, 10500, Note_on_c, 8, 57, 0
14, 10500, Note_on_c, 8, 59, 64
14, 10560, Note_on_c, 8, 59, 0
14, 10560, Note_on_c, 8, 61, 64
14, 10620, Note_on_c, 8, 61, 0
14, 10620, Note_on_c, 8, 57, 64
14, 10680, Note_on_c, 8, 57, 0
14, 10680, Note_on_c, 8, 59, 64
14, 10740, Note_on_c, 8, 59, 0
14, 10740, Note_on_c, 8, 61, 64
14, 10800, Note_on_c, 8, 61, 0
14, 10800, Note_on_c, 8, 62, 64
14, 10860, Note_on_c, 8, 62, 0
14, 10860, Note_on_c, 8, 64, 64
14, 10920, Note_on_c, 8, 64, 0
14, 10920, Note_on_c, 8, 62, 64
14, 10980, Note_on_c, 8, 62, 0
14, 10980, Note_on_c, 8, 61, 64
14, 11040, Note_on_c, 8, 61, 0
14, 11040, Note_on_c, 8, 59, 64
14, 11100, Note_on_c, 8, 59, 0
14, 11100, Note_on_c, 8, 57, 64
14, 11160, Note_on_c, 8, 57, 0
14, 11160, Note_on_c, 8, 56, 64
14, 11220, Note_on_c, 8, 56, 0
14, 11220, Note_on_c, 8, 54, 64
14, 11280, Note_on_c, 8, 54, 0
14, 11280, Note_on_c, 8, 56, 64
14, 11340, Note_on_c, 8, 56, 0
14, 11340, Note_on_c, 8, 52, 64
14, 11400, Note_on_c, 8, 52, 0
14, 11400, Note_on_c, 8, 54, 64
14, 11460, Note_on_c, 8, 54, 0
14, 11460, Note_on_c, 8, 56, 64
14, 11520, Note_on_c, 8, 56, 0
14, 11520, Note_on_c, 8, 57, 64
14, 11591, Note_on_c, 8, 57, 0
14, 11640, Note_on_c, 8, 50, 64
14, 11711, Note_on_c, 8, 50, 0
14, 11760, Note_on_c, 8, 49, 64
14, 12000, Note_on_c, 8, 49, 0
14, 12000, Note_on_c, 8, 47, 64
14, 12240, Note_on_c, 8, 47, 0
14, 12240, Note_on_c, 8, 45, 64
14, 12300, Note_on_c, 8, 45, 0
14, 12300, Note_on_c, 8, 43, 64
14, 12360, Note_on_c, 8, 43, 0
14, 12360, Note_on_c, 8, 42, 64
14, 12420, Note_on_c, 8, 42, 0
14, 12420, Note_on_c, 8, 40, 64
14, 12480, Note_on_c, 8, 40, 0
14, 12480, Note_on_c, 8, 38, 64
14, 12540, Note_on_c, 8, 38, 0
14, 12540, Note_on_c, 8, 40, 64
14, 12600, Note_on_c, 8, 40, 0
14, 12600, Note_on_c, 8, 42, 64
14, 12660, Note_on_c, 8, 42, 0
14, 12660, Note_on_c, 8, 38, 64
14, 12720, Note_on_c, 8, 38, 0
14, 12720, Note_on_c, 8, 43, 64
14, 12780, Note_on_c, 8, 43, 0
14, 12780, Note_on_c, 8, 50, 64
14, 12840, Note_on_c, 8, 50, 0
14, 12840, Note_on_c, 8, 52, 64
14, 12900, Note_on_c, 8, 52, 0
14, 12900, Note_on_c, 8, 54, 64
14, 12960, Note_on_c, 8, 54, 0
14, 12960, Note_on_c, 8, 55, 64
14, 13271, Note_on_c, 8, 55, 0
14, 13320, Note_on_c, 8, 54, 64
14, 13380, Note_on_c, 8, 54, 0
14, 13380, Note_on_c, 8, 52, 64
14, 13440, Note_on_c, 8, 52, 0
14, 13440, Note_on_c, 8, 54, 64
14, 13511, Note_on_c, 8, 54, 0
14, 13560, Note_on_c, 8, 59, 64
14, 13631, Note_on_c, 8, 59, 0
14, 13680, Note_on_c, 8, 57, 64
14, 13751, Note_on_c, 8, 57, 0
14, 13800, Note_on_c, 8, 50, 64
14, 14040, Note_on_c, 8, 50, 0
14, 14040, Note_on_c, 8, 49, 64
14, 14111, Note_on_c, 8, 49, 0
14, 14160, Note_on_c, 8, 50, 64
14, 14400, Note_on_c, 8, 50, 0
14, 14460, Note_on_c, 8, 43, 64
14, 14520, Note_on_c, 8, 43, 0
14, 14520, Note_on_c, 8, 45, 64
14, 14580, Note_on_c, 8, 45, 0
14, 14580, Note_on_c, 8, 47, 64
14, 14640, Note_on_c, 8, 47, 0
14, 14640, Note_on_c, 8, 48, 64
14, 14880, Note_on_c, 8, 48, 0
14, 14940, Note_on_c, 8, 45, 64
14, 15000, Note_on_c, 8, 45, 0
14, 15000, Note_on_c, 8, 47, 64
14, 15060, Note_on_c, 8, 47, 0
14, 15060, Note_on_c, 8, 48, 64
14, 15120, Note_on_c, 8, 48, 0
14, 15120, Note_on_c, 8, 50, 64
14, 15191, Note_on_c, 8, 50, 0
14, 15240, Note_on_c, 8, 47, 64
14, 15311, Note_on_c, 8, 47, 0
14, 15360, Note_on_c, 8, 52, 64
14, 15420, Note_on_c, 8, 52, 0
14, 15420, Note_on_c, 8, 50, 64
14, 15480, Note_on_c, 8, 50, 0
14, 15480, Note_on_c, 8, 52, 64
14, 15540, Note_on_c, 8, 52, 0
14, 15540, Note_on_c, 8, 54, 64
14, 15600, Note_on_c, 8, 54, 0
14, 15600, Note_on_c, 8, 55, 64
14, 15671, Note_on_c, 8, 55, 0
14, 15720, Note_on_c, 8, 60, 64
14, 15911, Note_on_c, 8, 60, 0
14, 15960, Note_on_c, 8, 51, 64
14, 16031, Note_on_c, 8, 51, 0
14, 16080, Note_on_c, 8, 52, 64
14, 16151, Note_on_c, 8, 52, 0
14, 16200, Note_on_c, 8, 45, 64
14, 16440, Note_on_c, 8, 45, 0
14, 16440, Note_on_c, 8, 47, 64
14, 16511, Note_on_c, 8, 47, 0
14, 16560, Note_on_c, 8, 48, 64
14, 16631, Note_on_c, 8, 48, 0
14, 16680, Note_on_c, 8, 47, 64
14, 16751, Note_on_c, 8, 47, 0
14, 16800, Note_on_c, 8, 45, 64
14, 17111, Note_on_c, 8, 45, 0
14, 17160, Note_on_c, 8, 43, 64
14, 17220, Note_on_c, 8, 43, 0
14, 17220, Note_on_c, 8, 42, 64
14, 17280, Note_on_c, 8, 42, 0
14, 17280, Note_on_c, 8, 43, 64
14, 17351, Note_on_c, 8, 43, 0
14, 17400, Note_on_c, 8, 45, 64
14, 17471, Note_on_c, 8, 45, 0
14, 17520, Note_on_c, 8, 47, 64
14, 18000, Note_on_c, 8, 47, 0
14, 18000, Note_on_c, 8, 40, 64
14, 18960, Note_on_c, 8, 40, 0
14, 18960, Note_on_c, 8, 45, 64
14, 19031, Note_on_c, 8, 45, 0
14, 19080, Note_on_c, 8, 49, 64
14, 19151, Note_on_c, 8, 49, 0
14, 19200, Note_on_c, 8, 50, 64
14, 19271, Note_on_c, 8, 50, 0
14, 19320, Note_on_c, 8, 47, 64
14, 19391, Note_on_c, 8, 47, 0
14, 19440, Note_on_c, 8, 52, 64
14, 19511, Note_on_c, 8, 52, 0
14, 19560, Note_on_c, 8, 40, 64
14, 19631, Note_on_c, 8, 40, 0
14, 19680, Note_on_c, 8, 43, 64
14, 19751, Note_on_c, 8, 43, 0
14, 19800, Note_on_c, 8, 40, 64
14, 19871, Note_on_c, 8, 40, 0
14, 19920, Note_on_c, 8, 45, 64
14, 20160, Note_on_c, 8, 45, 0
14, 20220, Note_on_c, 8, 45, 64
14, 20280, Note_on_c, 8, 45, 0
14, 20280, Note_on_c, 8, 47, 64
14, 20340, Note_on_c, 8, 47, 0
14, 20340, Note_on_c, 8, 49, 64
14, 20400, Note_on_c, 8, 49, 0
14, 20400, Note_on_c, 8, 50, 64
14, 20460, Note_on_c, 8, 50, 0
14, 20460, Note_on_c, 8, 52, 64
14, 20520, Note_on_c, 8, 52, 0
14, 20520, Note_on_c, 8, 54, 64
14, 20580, Note_on_c, 8, 54, 0
14, 20580, Note_on_c, 8, 55, 64
14, 20640, Note_on_c, 8, 55, 0
14, 20640, Note_on_c, 8, 57, 64
14, 20711, Note_on_c, 8, 57, 0
14, 20760, Note_on_c, 8, 45, 64
14, 20831, Note_on_c, 8, 45, 0
14, 20880, Note_on_c, 8, 50, 64
14, 21120, Note_on_c, 8, 50, 0
14, 21240, Note_on_c, 8, 57, 64
14, 21311, Note_on_c, 8, 57, 0
14, 21360, Note_on_c, 8, 62, 64
14, 21600, Note_on_c, 8, 62, 0
14, 21720, Note_on_c, 8, 59, 64
14, 21791, Note_on_c, 8, 59, 0
14, 21840, Note_on_c, 8, 64, 64
14, 22080, Note_on_c, 8, 64, 0
14, 22200, Note_on_c, 8, 59, 64
14, 22271, Note_on_c, 8, 59, 0
14, 22320, Note_on_c, 8, 61, 64
14, 22391, Note_on_c, 8, 61, 0
14, 22440, Note_on_c, 8, 54, 64
14, 22511, Note_on_c, 8, 54, 0
14, 22560, Note_on_c, 8, 59, 64
14, 22620, Note_on_c, 8, 59, 0
14, 22620, Note_on_c, 8, 57, 64
14, 22680, Note_on_c, 8, 57, 0
14, 22680, Note_on_c, 8, 59, 64
14, 22751, Note_on_c, 8, 59, 0
14, 22800, Note_on_c, 8, 57, 64
14, 23040, Note_on_c, 8, 57, 0
14, 23100, Note_on_c, 8, 50, 64
14, 23160, Note_on_c, 8, 50, 0
14, 23160, Note_on_c, 8, 52, 64
14, 23220, Note_on_c, 8, 52, 0
14, 23220, Note_on_c, 8, 54, 64
14, 23280, Note_on_c, 8, 54, 0
14, 23280, Note_on_c, 8, 55, 64
14, 23340, Note_on_c, 8, 55, 0
14, 23340, Note_on_c, 8, 57, 64
14, 23400, Note_on_c, 8, 57, 0
14, 23400, Note_on_c, 8, 55, 64
14, 23460, Note_on_c, 8, 55, 0
14, 23460, Note_on_c, 8, 54, 64
14, 23520, Note_on_c, 8, 54, 0
14, 23520, Note_on_c, 8, 52, 64
14, 23580, Note_on_c, 8, 52, 0
14, 23580, Note_on_c, 8, 55, 64
14, 23640, Note_on_c, 8, 55, 0
14, 23640, Note_on_c, 8, 54, 64
14, 23700, Note_on_c, 8, 54, 0
14, 23700, Note_on_c, 8, 52, 64
14, 23760, Note_on_c, 8, 52, 0
14, 23760, Note_on_c, 8, 57, 64
14, 23820, Note_on_c, 8, 57, 0
14, 23820, Note_on_c, 8, 45, 64
14, 23880, Note_on_c, 8, 45, 0
14, 23880, Note_on_c, 8, 47, 64
14, 23940, Note_on_c, 8, 47, 0
14, 23940, Note_on_c, 8, 49, 64
14, 24000, Note_on_c, 8, 49, 0
14, 24000, Note_on_c, 8, 50, 64
14, 24071, Note_on_c, 8, 50, 0
14, 24120, Note_on_c, 8, 55, 64
14, 24191, Note_on_c, 8, 55, 0
14, 24240, Note_on_c, 8, 57, 64
14, 24311, Note_on_c, 8, 57, 0
14, 24360, Note_on_c, 8, 45, 64
14, 24431, Note_on_c, 8, 45, 0
14, 24480, Note_on_c, 8, 45, 64
14, 24551, Note_on_c, 8, 45, 0
14, 24600, Note_on_c, 8, 45, 64
14, 24671, Note_on_c, 8, 45, 0
14, 24720, Note_on_c, 8, 42, 64
14, 24780, Note_on_c, 8, 42, 0
14, 24780, Note_on_c, 8, 38, 64
14, 24840, Note_on_c, 8, 38, 0
14, 24840, Note_on_c, 8, 40, 64
14, 24900, Note_on_c, 8, 40, 0
14, 24900, Note_on_c, 8, 42, 64
14, 24960, Note_on_c, 8, 42, 0
14, 24960, Note_on_c, 8, 43, 64
14, 25020, Note_on_c, 8, 43, 0
14, 25020, Note_on_c, 8, 45, 64
14, 25080, Note_on_c, 8, 45, 0
14, 25080, Note_on_c, 8, 47, 64
14, 25140, Note_on_c, 8, 47, 0
14, 25140, Note_on_c, 8, 43, 64
14, 25200, Note_on_c, 8, 43, 0
14, 25200, Note_on_c, 8, 48, 64
14, 25271, Note_on_c, 8, 48, 0
14, 25320, Note_on_c, 8, 60, 64
14, 25391, Note_on_c, 8, 60, 0
14, 25440, Note_on_c, 8, 57, 64
14, 25511, Note_on_c, 8, 57, 0
14, 25560, Note_on_c, 8, 52, 64
14, 25631, Note_on_c, 8, 52, 0
14, 25680, Note_on_c, 8, 54, 64
14, 25800, Note_on_c, 8, 54, 0
14, 25800, Note_on_c, 8, 50, 64
14, 25871, Note_on_c, 8, 50, 0
14, 25920, Note_on_c, 8, 55, 64
14, 25991, Note_on_c, 8, 55, 0
14, 26040, Note_on_c, 8, 48, 64
14, 26280, Note_on_c, 8, 48, 0
14, 26280, Note_on_c, 8, 47, 64
14, 26351, Note_on_c, 8, 47, 0
14, 26400, Note_on_c, 8, 45, 64
14, 26471, Note_on_c, 8, 45, 0
14, 26520, Note_on_c, 8, 57, 64
14, 26711, Note_on_c, 8, 57, 0
14, 26760, Note_on_c, 8, 55, 64
14, 26820, Note_on_c, 8, 55, 0
14, 26820, Note_on_c, 8, 54, 64
14, 26880, Note_on_c, 8, 54, 0
14, 26880, Note_on_c, 8, 55, 64
14, 26951, Note_on_c, 8, 55, 0
14, 27000, Note_on_c, 8, 52, 64
14, 27071, Note_on_c, 8, 52, 0
14, 27120, Note_on_c, 8, 54, 64
14, 27191, Note_on_c, 8, 54, 0
14, 27240, Note_on_c, 8, 47, 64
14, 27311, Note_on_c, 8, 47, 0
14, 27360, Note_on_c, 8, 59, 64
14, 27671, Note_on_c, 8, 59, 0
14, 27720, Note_on_c, 8, 57, 64
14, 27780, Note_on_c, 8, 57, 0
14, 27780, Note_on_c, 8, 55, 64
14, 27840, Note_on_c, 8, 55, 0
14, 27840, Note_on_c, 8, 57, 64
14, 27911, Note_on_c, 8, 57, 0
14, 27960, Note_on_c, 8, 50, 64
14, 28031, Note_on_c, 8, 50, 0
14, 28080, Note_on_c, 8, 55, 64
14, 28320, Note_on_c, 8, 55, 0
14, 28380, Note_on_c, 8, 52, 64
14, 28440, Note_on_c, 8, 52, 0
14, 28440, Note_on_c, 8, 54, 64
14, 28500, Note_on_c, 8, 54, 0
14, 28500, Note_on_c, 8, 55, 64
14, 28560, Note_on_c, 8, 55, 0
14, 28560, Note_on_c, 8, 57, 64
14, 28800, Note_on_c, 8, 57, 0
14, 28860, Note_on_c, 8, 54, 64
14, 28920, Note_on_c, 8, 54, 0
14, 28920, Note_on_c, 8, 55, 64
14, 28980, Note_on_c, 8, 55, 0
14, 28980, Note_on_c, 8, 57, 64
14, 29040, Note_on_c, 8, 57, 0
14, 29040, Note_on_c, 8, 59, 64
14, 29280, Note_on_c, 8, 59, 0
14, 29340, Note_on_c, 8, 57, 64
14, 29400, Note_on_c, 8, 57, 0
14, 29400, Note_on_c, 8, 59, 64
14, 29460, Note_on_c, 8, 59, 0
14, 29460, Note_on_c, 8, 61, 64
14, 29520, Note_on_c, 8, 61, 0
14, 29520, Note_on_c, 8, 62, 64
14, 29591, Note_on_c, 8, 62, 0
14, 29640, Note_on_c, 8, 50, 64
14, 29711, Note_on_c, 8, 50, 0
14, 29760, Note_on_c, 8, 62, 64
14, 30071, Note_on_c, 8, 62, 0
14, 30120, Note_on_c, 8, 61, 64
14, 30180, Note_on_c, 8, 61, 0
14, 30180, Note_on_c, 8, 59, 64
14, 30240, Note_on_c, 8, 59, 0
14, 30240, Note_on_c, 8, 61, 64
14, 30311, Note_on_c, 8, 61, 0
14, 30360, Note_on_c, 8, 57, 64
14, 30431, Note_on_c, 8, 57, 0
14, 30480, Note_on_c, 8, 59, 64
14, 30960, Note_on_c, 8, 59, 0
14, 30960, Note_on_c, 8, 57, 64
14, 31991, Note_on_c, 8, 57, 0
14, 32040, Note_on_c, 8, 54, 64
14, 32111, Note_on_c, 8, 54, 0
14, 32160, Note_on_c, 8, 59, 64
14, 32231, Note_on_c, 8, 59, 0
14, 32280, Note_on_c, 8, 55, 64
14, 32351, Note_on_c, 8, 55, 0
14, 32400, Note_on_c, 8, 57, 64
14, 32640, Note_on_c, 8, 57, 0
14, 32640, Note_on_c, 8, 45, 64
14, 32880, Note_on_c, 8, 45, 0
14, 32880, Note_on_c, 8, 50, 35
14, 34380, Note_on_c, 8, 50, 0
14, 34380, Note_on_c, 8, 50, 70
14, 34440, Note_on_c, 8, 50, 0
14, 34440, Note_on_c, 8, 52, 70
14, 34500, Note_on_c, 8, 52, 0
14, 34500, Note_on_c, 8, 54, 70
14, 34560, Note_on_c, 8, 54, 0
14, 34560, Note_on_c, 8, 55, 70
14, 34871, Note_on_c, 8, 55, 0
14, 34920, Note_on_c, 8, 54, 70
14, 34980, Note_on_c, 8, 54, 0
14, 34980, Note_on_c, 8, 52, 70
14, 35040, Note_on_c, 8, 52, 0
14, 35040, Note_on_c, 8, 54, 70
14, 35111, Note_on_c, 8, 54, 0
14, 35160, Note_on_c, 8, 50, 70
14, 35231, Note_on_c, 8, 50, 0
14, 35280, Note_on_c, 8, 52, 70
14, 35351, Note_on_c, 8, 52, 0
14, 35400, Note_on_c, 8, 45, 70
14, 35471, Note_on_c, 8, 45, 0
14, 35520, Note_on_c, 8, 50, 70
14, 35831, Note_on_c, 8, 50, 0
14, 35880, Note_on_c, 8, 49, 70
14, 35940, Note_on_c, 8, 49, 0
14, 35940, Note_on_c, 8, 47, 70
14, 36000, Note_on_c, 8, 47, 0
14, 36000, Note_on_c, 8, 49, 70
14, 36071, Note_on_c, 8, 49, 0
14, 36120, Note_on_c, 8, 45, 70
14, 36191, Note_on_c, 8, 45, 0
14, 36240, Note_on_c, 8, 47, 70
14, 36311, Note_on_c, 8, 47, 0
14, 36360, Note_on_c, 8, 40, 70
14, 36431, Note_on_c, 8, 40, 0
14, 36480, Note_on_c, 8, 45, 70
14, 36791, Note_on_c, 8, 45, 0
14, 36840, Note_on_c, 8, 43, 70
14, 36900, Note_on_c, 8, 43, 0
14, 36900, Note_on_c, 8, 42, 70
14, 36960, Note_on_c, 8, 42, 0
14, 36960, Note_on_c, 8, 43, 70
14, 37031, Note_on_c, 8, 43, 0
14, 37080, Note_on_c, 8, 40, 70
14, 37151, Note_on_c, 8, 40, 0
14, 37200, Note_on_c, 8, 42, 64
14, 37260, Note_on_c, 8, 42, 0
14, 37260, Note_on_c, 8, 38, 64
14, 37320, Note_on_c, 8, 38, 0
14, 37320, Note_on_c, 8, 40, 65
14, 37380, Note_on_c, 8, 40, 0
14, 37380, Note_on_c, 8, 42, 65
14, 37440, Note_on_c, 8, 42, 0
14, 37440, Note_on_c, 8, 43, 66
14, 37500, Note_on_c, 8, 43, 0
14, 37500, Note_on_c, 8, 42, 66
14, 37560, Note_on_c, 8, 42, 0
14, 37560, Note_on_c, 8, 43, 66
14, 37620, Note_on_c, 8, 43, 0
14, 37620, Note_on_c, 8, 45, 67
14, 37680, Note_on_c, 8, 45, 0
14, 37680, Note_on_c, 8, 47, 67
14, 37740, Note_on_c, 8, 47, 0
14, 37740, Note_on_c, 8, 45, 68
14, 37800, Note_on_c, 8, 45, 0
14, 37800, Note_on_c, 8, 47, 68
14, 37860, Note_on_c, 8, 47, 0
14, 37860, Note_on_c, 8, 49, 68
14, 37920, Note_on_c, 8, 49, 0
14, 37920, Note_on_c, 8, 50, 69
14, 37980, Note_on_c, 8, 50, 0
14, 37980, Note_on_c, 8, 45, 69
14, 38040, Note_on_c, 8, 45, 0
14, 38040, Note_on_c, 8, 47, 70
14, 38100, Note_on_c, 8, 47, 0
14, 38100, Note_on_c, 8, 49, 70
14, 38160, Note_on_c, 8, 49, 0
14, 38160, Note_on_c, 8, 50, 70
14, 38220, Note_on_c, 8, 50, 0
14, 38220, Note_on_c, 8, 49, 71
14, 38280, Note_on_c, 8, 49, 0
14, 38280, Note_on_c, 8, 50, 71
14, 38340, Note_on_c, 8, 50, 0
14, 38340, Note_on_c, 8, 52, 72
14, 38400, Note_on_c, 8, 52, 0
14, 38400, Note_on_c, 8, 54, 72
14, 38460, Note_on_c, 8, 54, 0
14, 38460, Note_on_c, 8, 52, 72
14, 38520, Note_on_c, 8, 52, 0
14, 38520, Note_on_c, 8, 54, 73
14, 38580, Note_on_c, 8, 54, 0
14, 38580, Note_on_c, 8, 55, 73
14, 38640, Note_on_c, 8, 55, 0
14, 38640, Note_on_c, 8, 57, 74
14, 38700, Note_on_c, 8, 57, 0
14, 38700, Note_on_c, 8, 50, 74
14, 38760, Note_on_c, 8, 50, 0
14, 38760, Note_on_c, 8, 52, 74
14, 38820, Note_on_c, 8, 52, 0
14, 38820, Note_on_c, 8, 54, 75
14, 38880, Note_on_c, 8, 54, 0
14, 38880, Note_on_c, 8, 55, 75
14, 38940, Note_on_c, 8, 55, 0
14, 38940, Note_on_c, 8, 54, 76
14, 39000, Note_on_c, 8, 54, 0
14, 39000, Note_on_c, 8, 55, 76
14, 39060, Note_on_c, 8, 55, 0
14, 39060, Note_on_c, 8, 57, 76
14, 39120, Note_on_c, 8, 57, 0
14, 39120, Note_on_c, 8, 59, 77
14, 39191, Note_on_c, 8, 59, 0
14, 39240, Note_on_c, 8, 57, 78
14, 39300, Note_on_c, 8, 57, 0
14, 39300, Note_on_c, 8, 55, 78
14, 39360, Note_on_c, 8, 55, 0
14, 39360, Note_on_c, 8, 54, 78
14, 39431, Note_on_c, 8, 54, 0
14, 39480, Note_on_c, 8, 55, 79
14, 39551, Note_on_c, 8, 55, 0
14, 39600, Note_on_c, 8, 57, 90
14, 39840, Note_on_c, 8, 57, 0
14, 39840, Note_on_c, 8, 45, 90
14, 40080, Note_on_c, 8, 45, 0
14, 40080, Note_on_c, 8, 38, 90
14, 40560, Note_on_c, 8, 38, 0
14, 41040, End_track
15, 0, Start_track
15, 0, MIDI_port, 0
15, 0, Title_t, "Oboe"
15, 0, Program_c, 2, 68
15, 0, Control_c, 2, 91, 127
15, 0, Control_c, 2, 91, 127
15, 240, Control_c, 2, 7, 90
15, 240, Control_c, 2, 7, 90
15, 360, Note_on_c, 2, 76, 64
15, 360, Note_on_c, 2, 73, 64
15, 431, Note_on_c, 2, 73, 0
15, 431, Note_on_c, 2, 76, 0
15, 480, Note_on_c, 2, 73, 64
15, 480, Note_on_c, 2, 69, 64
15, 551, Note_on_c, 2, 69, 0
15, 551, Note_on_c, 2, 73, 0
15, 600, Note_on_c, 2, 69, 64
15, 600, Note_on_c, 2, 64, 64
15, 671, Note_on_c, 2, 64, 0
15, 671, Note_on_c, 2, 69, 0
15, 840, Note_on_c, 2, 78, 64
15, 840, Note_on_c, 2, 69, 64
15, 911, Note_on_c, 2, 69, 0
15, 911, Note_on_c, 2, 78, 0
15, 960, Note_on_c, 2, 76, 64
15, 960, Note_on_c, 2, 69, 64
15, 1031, Note_on_c, 2, 69, 0
15, 1031, Note_on_c, 2, 76, 0
15, 1080, Note_on_c, 2, 81, 64
15, 1080, Note_on_c, 2, 73, 64
15, 1151, Note_on_c, 2, 73, 0
15, 1151, Note_on_c, 2, 81, 0
15, 1320, Note_on_c, 2, 78, 64
15, 1391, Note_on_c, 2, 78, 0
15, 1440, Note_on_c, 2, 74, 64
15, 1511, Note_on_c, 2, 74, 0
15, 1560, Note_on_c, 2, 71, 64
15, 1560, Note_on_c, 2, 74, 64
15, 1631, Note_on_c, 2, 74, 0
15, 1631, Note_on_c, 2, 71, 0
15, 1680, Note_on_c, 2, 71, 64
15, 1751, Note_on_c, 2, 71, 0
15, 1800, Note_on_c, 2, 76, 64
15, 1800, Note_on_c, 2, 68, 64
15, 1871, Note_on_c, 2, 68, 0
15, 1871, Note_on_c, 2, 76, 0
15, 1920, Note_on_c, 2, 73, 64
15, 1991, Note_on_c, 2, 73, 0
15, 2040, Note_on_c, 2, 69, 64
15, 2040, Note_on_c, 2, 78, 64
15, 2111, Note_on_c, 2, 78, 0
15, 2111, Note_on_c, 2, 69, 0
15, 2160, Note_on_c, 2, 76, 64
15, 2231, Note_on_c, 2, 76, 0
15, 2280, Note_on_c, 2, 81, 64
15, 2280, Note_on_c, 2, 69, 64
15, 2351, Note_on_c, 2, 69, 0
15, 2400, Note_on_c, 2, 71, 64
15, 2471, Note_on_c, 2, 71, 0
15, 2520, Note_on_c, 2, 81, 0
15, 2520, Note_on_c, 2, 80, 64
15, 2520, Note_on_c, 2, 76, 64
15, 2591, Note_on_c, 2, 76, 0
15, 2640, Note_on_c, 2, 80, 0
15, 2640, Note_on_c, 2, 81, 64
15, 2640, Note_on_c, 2, 64, 64
15, 2711, Note_on_c, 2, 64, 0
15, 2711, Note_on_c, 2, 81, 0
15, 2760, Note_on_c, 2, 76, 64
15, 2760, Note_on_c, 2, 69, 64
15, 2831, Note_on_c, 2, 69, 0
15, 2831, Note_on_c, 2, 76, 0
15, 2880, Note_on_c, 2, 73, 64
15, 2880, Note_on_c, 2, 64, 64
15, 2951, Note_on_c, 2, 64, 0
15, 2951, Note_on_c, 2, 73, 0
15, 3000, Note_on_c, 2, 69, 64
15, 3000, Note_on_c, 2, 67, 64
15, 3071, Note_on_c, 2, 67, 0
15, 3071, Note_on_c, 2, 69, 0
15, 3240, Note_on_c, 2, 69, 64
15, 3240, Note_on_c, 2, 66, 64
15, 3311, Note_on_c, 2, 66, 0
15, 3311, Note_on_c, 2, 69, 0
15, 3360, Note_on_c, 2, 68, 64
15, 3360, Note_on_c, 2, 71, 64
15, 3431, Note_on_c, 2, 71, 0
15, 3431, Note_on_c, 2, 68, 0
15, 3480, Note_on_c, 2, 76, 64
15, 3480, Note_on_c, 2, 64, 64
15, 3551, Note_on_c, 2, 64, 0
15, 3551, Note_on_c, 2, 76, 0
15, 3720, Note_on_c, 2, 73, 64
15, 3791, Note_on_c, 2, 73, 0
15, 3840, Note_on_c, 2, 74, 64
15, 3911, Note_on_c, 2, 74, 0
15, 3960, Note_on_c, 2, 84, 64
15, 3960, Note_on_c, 2, 81, 64
15, 4031, Note_on_c, 2, 81, 0
15, 4031, Note_on_c, 2, 84, 0
15, 4080, Note_on_c, 2, 74, 64
15, 4151, Note_on_c, 2, 74, 0
15, 4200, Note_on_c, 2, 83, 64
15, 4200, Note_on_c, 2, 71, 64
15, 4271, Note_on_c, 2, 71, 0
15, 4271, Note_on_c, 2, 83, 0
15, 4320, Note_on_c, 2, 79, 64
15, 4391, Note_on_c, 2, 79, 0
15, 4440, Note_on_c, 2, 76, 64
15, 4440, Note_on_c, 2, 67, 64
15, 4511, Note_on_c, 2, 67, 0
15, 4511, Note_on_c, 2, 76, 0
15, 4560, Note_on_c, 2, 64, 64
15, 4631, Note_on_c, 2, 64, 0
15, 4680, Note_on_c, 2, 81, 64
15, 4680, Note_on_c, 2, 73, 64
15, 4751, Note_on_c, 2, 73, 0
15, 4751, Note_on_c, 2, 81, 0
15, 4800, Note_on_c, 2, 78, 64
15, 4871, Note_on_c, 2, 78, 0
15, 4920, Note_on_c, 2, 74, 64
15, 4920, Note_on_c, 2, 62, 64
15, 4991, Note_on_c, 2, 62, 0
15, 4991, Note_on_c, 2, 74, 0
15, 5040, Note_on_c, 2, 66, 64
15, 5111, Note_on_c, 2, 66, 0
15, 5160, Note_on_c, 2, 69, 64
15, 5160, Note_on_c, 2, 69, 64
15, 5231, Note_on_c, 2, 69, 0
15, 5231, Note_on_c, 2, 69, 0
15, 5280, Note_on_c, 2, 81, 64
15, 5280, Note_on_c, 2, 76, 64
15, 5351, Note_on_c, 2, 76, 0
15, 5351, Note_on_c, 2, 81, 0
15, 5400, Note_on_c, 2, 76, 64
15, 5400, Note_on_c, 2, 81, 64
15, 5471, Note_on_c, 2, 81, 0
15, 5471, Note_on_c, 2, 76, 0
15, 5640, Note_on_c, 2, 78, 64
15, 5640, Note_on_c, 2, 74, 64
15, 5711, Note_on_c, 2, 74, 0
15, 5711, Note_on_c, 2, 78, 0
15, 5760, Note_on_c, 2, 76, 64
15, 5760, Note_on_c, 2, 73, 64
15, 5831, Note_on_c, 2, 73, 0
15, 5831, Note_on_c, 2, 76, 0
15, 5880, Note_on_c, 2, 73, 64
15, 5880, Note_on_c, 2, 76, 64
15, 5951, Note_on_c, 2, 76, 0
15, 5951, Note_on_c, 2, 73, 0
15, 6120, Note_on_c, 2, 71, 64
15, 6191, Note_on_c, 2, 71, 0
15, 6240, Note_on_c, 2, 66, 64
15, 6311, Note_on_c, 2, 66, 0
15, 6360, Note_on_c, 2, 78, 64
15, 6360, Note_on_c, 2, 71, 64
15, 6431, Note_on_c, 2, 71, 0
15, 6431, Note_on_c, 2, 78, 0
15, 6480, Note_on_c, 2, 68, 64
15, 6551, Note_on_c, 2, 68, 0
15, 6600, Note_on_c, 2, 76, 64
15, 6600, Note_on_c, 2, 73, 64
15, 6671, Note_on_c, 2, 73, 0
15, 6671, Note_on_c, 2, 76, 0
15, 6720, Note_on_c, 2, 69, 64
15, 6791, Note_on_c, 2, 69, 0
15, 6840, Note_on_c, 2, 81, 64
15, 6840, Note_on_c, 2, 69, 64
15, 6911, Note_on_c, 2, 69, 0
15, 6911, Note_on_c, 2, 81, 0
15, 6960, Note_on_c, 2, 73, 64
15, 7031, Note_on_c, 2, 73, 0
15, 7080, Note_on_c, 2, 81, 64
15, 7080, Note_on_c, 2, 78, 64
15, 7151, Note_on_c, 2, 78, 0
15, 7151, Note_on_c, 2, 81, 0
15, 7200, Note_on_c, 2, 83, 64
15, 7271, Note_on_c, 2, 83, 0
15, 7320, Note_on_c, 2, 74, 64
15, 7320, Note_on_c, 2, 80, 64
15, 7391, Note_on_c, 2, 80, 0
15, 7391, Note_on_c, 2, 74, 0
15, 7440, Note_on_c, 2, 76, 64
15, 7511, Note_on_c, 2, 76, 0
15, 7560, Note_on_c, 2, 73, 64
15, 7560, Note_on_c, 2, 81, 64
15, 7631, Note_on_c, 2, 81, 0
15, 7631, Note_on_c, 2, 73, 0
15, 7680, Note_on_c, 2, 76, 64
15, 7680, Note_on_c, 2, 76, 64
15, 7751, Note_on_c, 2, 76, 0
15, 7751, Note_on_c, 2, 76, 0
15, 7800, Note_on_c, 2, 81, 64
15, 7800, Note_on_c, 2, 73, 64
15, 7871, Note_on_c, 2, 73, 0
15, 7871, Note_on_c, 2, 81, 0
15, 8040, Note_on_c, 2, 78, 64
15, 8040, Note_on_c, 2, 66, 64
15, 8111, Note_on_c, 2, 66, 0
15, 8111, Note_on_c, 2, 78, 0
15, 8160, Note_on_c, 2, 76, 64
15, 8160, Note_on_c, 2, 68, 64
15, 8231, Note_on_c, 2, 68, 0
15, 8231, Note_on_c, 2, 76, 0
15, 8280, Note_on_c, 2, 83, 64
15, 8280, Note_on_c, 2, 74, 64
15, 8351, Note_on_c, 2, 74, 0
15, 8351, Note_on_c, 2, 83, 0
15, 8520, Note_on_c, 2, 81, 64
15, 8520, Note_on_c, 2, 76, 64
15, 8591, Note_on_c, 2, 76, 0
15, 8591, Note_on_c, 2, 81, 0
15, 8640, Note_on_c, 2, 78, 64
15, 8640, Note_on_c, 2, 69, 64
15, 8711, Note_on_c, 2, 69, 0
15, 8711, Note_on_c, 2, 78, 0
15, 8760, Note_on_c, 2, 74, 64
15, 8760, Note_on_c, 2, 81, 64
15, 8831, Note_on_c, 2, 81, 0
15, 8831, Note_on_c, 2, 74, 0
15, 9000, Note_on_c, 2, 76, 64
15, 9000, Note_on_c, 2, 83, 64
15, 9071, Note_on_c, 2, 83, 0
15, 9071, Note_on_c, 2, 76, 0
15, 9120, Note_on_c, 2, 71, 64
15, 9120, Note_on_c, 2, 79, 64
15, 9191, Note_on_c, 2, 79, 0
15, 9191, Note_on_c, 2, 71, 0
15, 9240, Note_on_c, 2, 67, 64
15, 9240, Note_on_c, 2, 76, 64
15, 9311, Note_on_c, 2, 76, 0
15, 9311, Note_on_c, 2, 67, 0
15, 9480, Note_on_c, 2, 78, 64
15, 9480, Note_on_c, 2, 69, 64
15, 9551, Note_on_c, 2, 69, 0
15, 9551, Note_on_c, 2, 78, 0
15, 9600, Note_on_c, 2, 74, 64
15, 9600, Note_on_c, 2, 62, 64
15, 9671, Note_on_c, 2, 62, 0
15, 9671, Note_on_c, 2, 74, 0
15, 9720, Note_on_c, 2, 71, 64
15, 9720, Note_on_c, 2, 74, 64
15, 9791, Note_on_c, 2, 71, 0
15, 9911, Note_on_c, 2, 74, 0
15, 9960, Note_on_c, 2, 66, 64
15, 9960, Note_on_c, 2, 62, 64
15, 10031, Note_on_c, 2, 66, 0
15, 10080, Note_on_c, 2, 64, 64
15, 10151, Note_on_c, 2, 64, 0
15, 10200, Note_on_c, 2, 62, 0
15, 10200, Note_on_c, 2, 69, 64
15, 10200, Note_on_c, 2, 61, 64
15, 10271, Note_on_c, 2, 61, 0
15, 10271, Note_on_c, 2, 69, 0
15, 10320, Note_on_c, 2, 62, 64
15, 10320, Note_on_c, 2, 62, 64
15, 10380, Note_on_c, 2, 62, 0
15, 10380, Note_on_c, 2, 64, 64
15, 10440, Note_on_c, 2, 64, 0
15, 10440, Note_on_c, 2, 66, 64
15, 10500, Note_on_c, 2, 66, 0
15, 10500, Note_on_c, 2, 62, 64
15, 10560, Note_on_c, 2, 62, 0
15, 10560, Note_on_c, 2, 62, 0
15, 10560, Note_on_c, 2, 57, 64
15, 10680, Note_on_c, 2, 64, 64
15, 10751, Note_on_c, 2, 64, 0
15, 10800, Note_on_c, 2, 66, 64
15, 10860, Note_on_c, 2, 66, 0
15, 10860, Note_on_c, 2, 57, 0
15, 10860, Note_on_c, 2, 69, 64
15, 10860, Note_on_c, 2, 61, 64
15, 10920, Note_on_c, 2, 61, 0
15, 10920, Note_on_c, 2, 69, 0
15, 10920, Note_on_c, 2, 71, 64
15, 10920, Note_on_c, 2, 62, 64
15, 10980, Note_on_c, 2, 62, 0
15, 10980, Note_on_c, 2, 71, 0
15, 10980, Note_on_c, 2, 73, 64
15, 10980, Note_on_c, 2, 64, 64
15, 11040, Note_on_c, 2, 64, 0
15, 11040, Note_on_c, 2, 73, 0
15, 11040, Note_on_c, 2, 74, 64
15, 11040, Note_on_c, 2, 66, 64
15, 11280, Note_on_c, 2, 66, 0
15, 11280, Note_on_c, 2, 64, 64
15, 11340, Note_on_c, 2, 64, 0
15, 11340, Note_on_c, 2, 68, 64
15, 11351, Note_on_c, 2, 74, 0
15, 11400, Note_on_c, 2, 68, 0
15, 11400, Note_on_c, 2, 73, 64
15, 11400, Note_on_c, 2, 69, 64
15, 11460, Note_on_c, 2, 69, 0
15, 11460, Note_on_c, 2, 71, 64
15, 11520, Note_on_c, 2, 71, 0
15, 11520, Note_on_c, 2, 73, 64
15, 11580, Note_on_c, 2, 73, 0
15, 11580, Note_on_c, 2, 74, 64
15, 11591, Note_on_c, 2, 73, 0
15, 11640, Note_on_c, 2, 74, 0
15, 11640, Note_on_c, 2, 78, 64
15, 11640, Note_on_c, 2, 73, 64
15, 11700, Note_on_c, 2, 73, 0
15, 11700, Note_on_c, 2, 71, 64
15, 11711, Note_on_c, 2, 78, 0
15, 11760, Note_on_c, 2, 71, 0
15, 11760, Note_on_c, 2, 76, 64
15, 11760, Note_on_c, 2, 73, 64
15, 11831, Note_on_c, 2, 73, 0
15, 11831, Note_on_c, 2, 76, 0
15, 11880, Note_on_c, 2, 69, 64
15, 11880, Note_on_c, 2, 64, 64
15, 11951, Note_on_c, 2, 64, 0
15, 12000, Note_on_c, 2, 66, 64
15, 12071, Note_on_c, 2, 66, 0
15, 12071, Note_on_c, 2, 69, 0
15, 12120, Note_on_c, 2, 68, 64
15, 12120, Note_on_c, 2, 62, 64
15, 12191, Note_on_c, 2, 62, 0
15, 12191, Note_on_c, 2, 68, 0
15, 12240, Note_on_c, 2, 69, 64
15, 12240, Note_on_c, 2, 64, 64
15, 12300, Note_on_c, 2, 69, 0
15, 12300, Note_on_c, 2, 73, 64
15, 12311, Note_on_c, 2, 64, 0
15, 12360, Note_on_c, 2, 73, 0
15, 12360, Note_on_c, 2, 74, 64
15, 12360, Note_on_c, 2, 66, 64
15, 12420, Note_on_c, 2, 66, 0
15, 12420, Note_on_c, 2, 74, 0
15, 12420, Note_on_c, 2, 76, 64
15, 12420, Note_on_c, 2, 67, 64
15, 12480, Note_on_c, 2, 67, 0
15, 12480, Note_on_c, 2, 76, 0
15, 12480, Note_on_c, 2, 78, 64
15, 12480, Note_on_c, 2, 69, 64
15, 12791, Note_on_c, 2, 69, 0
15, 12791, Note_on_c, 2, 78, 0
15, 12840, Note_on_c, 2, 76, 64
15, 12840, Note_on_c, 2, 67, 64
15, 12900, Note_on_c, 2, 67, 0
15, 12900, Note_on_c, 2, 76, 0
15, 12900, Note_on_c, 2, 74, 64
15, 12900, Note_on_c, 2, 69, 64
15, 12960, Note_on_c, 2, 69, 0
15, 12960, Note_on_c, 2, 74, 0
15, 12960, Note_on_c, 2, 76, 64
15, 12960, Note_on_c, 2, 71, 64
15, 13020, Note_on_c, 2, 71, 0
15, 13020, Note_on_c, 2, 76, 0
15, 13020, Note_on_c, 2, 78, 64
15, 13020, Note_on_c, 2, 69, 64
15, 13080, Note_on_c, 2, 69, 0
15, 13080, Note_on_c, 2, 78, 0
15, 13080, Note_on_c, 2, 76, 64
15, 13080, Note_on_c, 2, 67, 64
15, 13140, Note_on_c, 2, 67, 0
15, 13140, Note_on_c, 2, 76, 0
15, 13140, Note_on_c, 2, 74, 64
15, 13140, Note_on_c, 2, 66, 64
15, 13200, Note_on_c, 2, 66, 0
15, 13200, Note_on_c, 2, 74, 0
15, 13200, Note_on_c, 2, 73, 64
15, 13200, Note_on_c, 2, 64, 64
15, 13260, Note_on_c, 2, 73, 0
15, 13260, Note_on_c, 2, 69, 64
15, 13271, Note_on_c, 2, 64, 0
15, 13320, Note_on_c, 2, 69, 0
15, 13320, Note_on_c, 2, 71, 64
15, 13320, Note_on_c, 2, 66, 64
15, 13380, Note_on_c, 2, 66, 0
15, 13380, Note_on_c, 2, 71, 0
15, 13380, Note_on_c, 2, 73, 64
15, 13380, Note_on_c, 2, 67, 64
15, 13440, Note_on_c, 2, 67, 0
15, 13440, Note_on_c, 2, 73, 0
15, 13440, Note_on_c, 2, 74, 64
15, 13440, Note_on_c, 2, 69, 64
15, 13511, Note_on_c, 2, 69, 0
15, 13511, Note_on_c, 2, 74, 0
15, 13560, Note_on_c, 2, 79, 64
15, 13560, Note_on_c, 2, 71, 64
15, 13631, Note_on_c, 2, 71, 0
15, 13680, Note_on_c, 2, 64, 64
15, 13751, Note_on_c, 2, 64, 0
15, 13751, Note_on_c, 2, 79, 0
15, 13800, Note_on_c, 2, 78, 64
15, 13800, Note_on_c, 2, 66, 64
15, 13860, Note_on_c, 2, 66, 0
15, 13860, Note_on_c, 2, 67, 64
15, 13871, Note_on_c, 2, 78, 0
15, 13920, Note_on_c, 2, 67, 0
15, 13920, Note_on_c, 2, 76, 64
15, 13920, Note_on_c, 2, 69, 64
15, 14220, Note_on_c, 2, 69, 0
15, 14220, Note_on_c, 2, 62, 64
15, 14231, Note_on_c, 2, 76, 0
15, 14280, Note_on_c, 2, 62, 0
15, 14280, Note_on_c, 2, 74, 64
15, 14280, Note_on_c, 2, 64, 64
15, 14340, Note_on_c, 2, 64, 0
15, 14340, Note_on_c, 2, 66, 64
15, 14400, Note_on_c, 2, 66, 0
15, 14400, Note_on_c, 2, 67, 64
15, 14460, Note_on_c, 2, 74, 0
15, 14460, Note_on_c, 2, 71, 64
15, 14520, Note_on_c, 2, 71, 0
15, 14520, Note_on_c, 2, 72, 64
15, 14580, Note_on_c, 2, 72, 0
15, 14580, Note_on_c, 2, 74, 64
15, 14640, Note_on_c, 2, 74, 0
15, 14640, Note_on_c, 2, 76, 64
15, 14700, Note_on_c, 2, 76, 0
15, 14700, Note_on_c, 2, 67, 0
15, 14700, Note_on_c, 2, 74, 64
15, 14700, Note_on_c, 2, 64, 64
15, 14760, Note_on_c, 2, 64, 0
15, 14760, Note_on_c, 2, 74, 0
15, 14760, Note_on_c, 2, 72, 64
15, 14760, Note_on_c, 2, 66, 64
15, 14820, Note_on_c, 2, 66, 0
15, 14820, Note_on_c, 2, 72, 0
15, 14820, Note_on_c, 2, 71, 64
15, 14820, Note_on_c, 2, 67, 64
15, 14880, Note_on_c, 2, 67, 0
15, 14880, Note_on_c, 2, 71, 0
15, 14880, Note_on_c, 2, 69, 64
15, 14880, Note_on_c, 2, 69, 64
15, 14940, Note_on_c, 2, 69, 0
15, 14940, Note_on_c, 2, 67, 64
15, 15000, Note_on_c, 2, 67, 0
15, 15000, Note_on_c, 2, 66, 64
15, 15060, Note_on_c, 2, 66, 0
15, 15060, Note_on_c, 2, 64, 64
15, 15120, Note_on_c, 2, 64, 0
15, 15120, Note_on_c, 2, 62, 64
15, 15180, Note_on_c, 2, 69, 0
15, 15180, Note_on_c, 2, 72, 64
15, 15191, Note_on_c, 2, 62, 0
15, 15240, Note_on_c, 2, 72, 0
15, 15240, Note_on_c, 2, 74, 64
15, 15240, Note_on_c, 2, 71, 64
15, 15300, Note_on_c, 2, 71, 0
15, 15300, Note_on_c, 2, 69, 64
15, 15360, Note_on_c, 2, 69, 0
15, 15360, Note_on_c, 2, 67, 64
15, 15420, Note_on_c, 2, 67, 0
15, 15420, Note_on_c, 2, 74, 0
15, 15420, Note_on_c, 2, 72, 64
15, 15420, Note_on_c, 2, 66, 64
15, 15480, Note_on_c, 2, 66, 0
15, 15480, Note_on_c, 2, 72, 0
15, 15480, Note_on_c, 2, 71, 64
15, 15480, Note_on_c, 2, 67, 64
15, 15540, Note_on_c, 2, 67, 0
15, 15540, Note_on_c, 2, 71, 0
15, 15540, Note_on_c, 2, 69, 64
15, 15540, Note_on_c, 2, 69, 64
15, 15600, Note_on_c, 2, 69, 0
15, 15600, Note_on_c, 2, 69, 0
15, 15600, Note_on_c, 2, 71, 64
15, 15600, Note_on_c, 2, 62, 64
15, 15660, Note_on_c, 2, 62, 0
15, 15660, Note_on_c, 2, 71, 0
15, 15660, Note_on_c, 2, 73, 64
15, 15660, Note_on_c, 2, 67, 64
15, 15720, Note_on_c, 2, 67, 0
15, 15720, Note_on_c, 2, 73, 0
15, 15720, Note_on_c, 2, 75, 64
15, 15720, Note_on_c, 2, 66, 64
15, 15780, Note_on_c, 2, 66, 0
15, 15780, Note_on_c, 2, 75, 0
15, 15780, Note_on_c, 2, 76, 64
15, 15780, Note_on_c, 2, 64, 64
15, 15840, Note_on_c, 2, 64, 0
15, 15840, Note_on_c, 2, 76, 0
15, 15840, Note_on_c, 2, 78, 64
15, 15840, Note_on_c, 2, 72, 64
15, 15911, Note_on_c, 2, 72, 0
15, 15960, Note_on_c, 2, 71, 64
15, 16151, Note_on_c, 2, 71, 0
15, 16151, Note_on_c, 2, 78, 0
15, 16200, Note_on_c, 2, 76, 64
15, 16200, Note_on_c, 2, 72, 64
15, 16260, Note_on_c, 2, 72, 0
15, 16260, Note_on_c, 2, 76, 0
15, 16260, Note_on_c, 2, 74, 64
15, 16260, Note_on_c, 2, 71, 64
15, 16320, Note_on_c, 2, 71, 0
15, 16320, Note_on_c, 2, 74, 0
15, 16320, Note_on_c, 2, 72, 64
15, 16320, Note_on_c, 2, 69, 64
15, 16380, Note_on_c, 2, 72, 0
15, 16380, Note_on_c, 2, 71, 64
15, 16391, Note_on_c, 2, 69, 0
15, 16440, Note_on_c, 2, 71, 0
15, 16440, Note_on_c, 2, 69, 64
15, 16440, Note_on_c, 2, 63, 64
15, 16500, Note_on_c, 2, 69, 0
15, 16500, Note_on_c, 2, 67, 64
15, 16511, Note_on_c, 2, 63, 0
15, 16560, Note_on_c, 2, 67, 0
15, 16560, Note_on_c, 2, 69, 64
15, 16560, Note_on_c, 2, 64, 64
15, 16620, Note_on_c, 2, 69, 0
15, 16620, Note_on_c, 2, 71, 64
15, 16680, Note_on_c, 2, 71, 0
15, 16680, Note_on_c, 2, 73, 64
15, 16740, Note_on_c, 2, 73, 0
15, 16740, Note_on_c, 2, 75, 64
15, 16800, Note_on_c, 2, 75, 0
15, 16800, Note_on_c, 2, 76, 64
15, 16860, Note_on_c, 2, 76, 0
15, 16860, Note_on_c, 2, 75, 64
15, 16920, Note_on_c, 2, 75, 0
15, 16920, Note_on_c, 2, 64, 0
15, 16920, Note_on_c, 2, 76, 64
15, 16920, Note_on_c, 2, 72, 64
15, 16980, Note_on_c, 2, 76, 0
15, 16980, Note_on_c, 2, 78, 64
15, 16991, Note_on_c, 2, 72, 0
15, 17040, Note_on_c, 2, 78, 0
15, 17040, Note_on_c, 2, 75, 64
15, 17040, Note_on_c, 2, 66, 64
15, 17100, Note_on_c, 2, 75, 0
15, 17100, Note_on_c, 2, 71, 64
15, 17111, Note_on_c, 2, 66, 0
15, 17160, Note_on_c, 2, 71, 0
15, 17160, Note_on_c, 2, 73, 64
15, 17160, Note_on_c, 2, 67, 64
15, 17220, Note_on_c, 2, 67, 0
15, 17220, Note_on_c, 2, 73, 0
15, 17220, Note_on_c, 2, 75, 64
15, 17220, Note_on_c, 2, 69, 64
15, 17280, Note_on_c, 2, 69, 0
15, 17280, Note_on_c, 2, 75, 0
15, 17280, Note_on_c, 2, 76, 64
15, 17280, Note_on_c, 2, 71, 64
15, 17340, Note_on_c, 2, 71, 0
15, 17340, Note_on_c, 2, 69, 64
15, 17400, Note_on_c, 2, 69, 0
15, 17400, Note_on_c, 2, 71, 64
15, 17460, Note_on_c, 2, 71, 0
15, 17460, Note_on_c, 2, 72, 64
15, 17520, Note_on_c, 2, 72, 0
15, 17520, Note_on_c, 2, 66, 64
15, 17591, Note_on_c, 2, 76, 0
15, 17640, Note_on_c, 2, 74, 64
15, 17700, Note_on_c, 2, 74, 0
15, 17700, Note_on_c, 2, 73, 64
15, 17760, Note_on_c, 2, 73, 0
15, 17760, Note_on_c, 2, 74, 64
15, 18000, Note_on_c, 2, 66, 0
15, 18000, Note_on_c, 2, 64, 64
15, 18060, Note_on_c, 2, 74, 0
15, 18060, Note_on_c, 2, 73, 64
15, 18120, Note_on_c, 2, 73, 0
15, 18120, Note_on_c, 2, 74, 64
15, 18180, Note_on_c, 2, 74, 0
15, 18180, Note_on_c, 2, 76, 64
15, 18240, Note_on_c, 2, 76, 0
15, 18240, Note_on_c, 2, 74, 64
15, 18300, Note_on_c, 2, 74, 0
15, 18300, Note_on_c, 2, 73, 64
15, 18360, Note_on_c, 2, 73, 0
15, 18360, Note_on_c, 2, 71, 64
15, 18420, Note_on_c, 2, 71, 0
15, 18420, Note_on_c, 2, 69, 64
15, 18480, Note_on_c, 2, 69, 0
15, 18480, Note_on_c, 2, 71, 64
15, 18551, Note_on_c, 2, 71, 0
15, 18600, Note_on_c, 2, 76, 64
15, 18671, Note_on_c, 2, 76, 0
15, 18720, Note_on_c, 2, 76, 64
15, 18791, Note_on_c, 2, 76, 0
15, 18840, Note_on_c, 2, 76, 64
15, 18911, Note_on_c, 2, 76, 0
15, 18960, Note_on_c, 2, 73, 64
15, 19031, Note_on_c, 2, 73, 0
15, 19031, Note_on_c, 2, 64, 0
15, 19080, Note_on_c, 2, 76, 64
15, 19151, Note_on_c, 2, 76, 0
15, 19200, Note_on_c, 2, 78, 64
15, 19440, Note_on_c, 2, 78, 0
15, 19440, Note_on_c, 2, 67, 64
15, 19511, Note_on_c, 2, 67, 0
15, 19560, Note_on_c, 2, 79, 64
15, 19631, Note_on_c, 2, 79, 0
15, 19680, Note_on_c, 2, 76, 64
15, 19751, Note_on_c, 2, 76, 0
15, 19800, Note_on_c, 2, 71, 64
15, 19871, Note_on_c, 2, 71, 0
15, 19920, Note_on_c, 2, 73, 64
15, 20040, Note_on_c, 2, 73, 0
15, 20040, Note_on_c, 2, 69, 64
15, 20111, Note_on_c, 2, 69, 0
15, 20160, Note_on_c, 2, 74, 64
15, 20231, Note_on_c, 2, 74, 0
15, 20280, Note_on_c, 2, 67, 64
15, 20351, Note_on_c, 2, 67, 0
15, 20400, Note_on_c, 2, 66, 64
15, 20520, Note_on_c, 2, 69, 64
15, 20591, Note_on_c, 2, 69, 0
15, 20640, Note_on_c, 2, 66, 0
15, 20640, Note_on_c, 2, 64, 64
15, 20640, Note_on_c, 2, 69, 64
15, 20711, Note_on_c, 2, 69, 0
15, 20760, Note_on_c, 2, 69, 64
15, 20831, Note_on_c, 2, 69, 0
15, 20880, Note_on_c, 2, 64, 0
15, 20880, Note_on_c, 2, 62, 64
15, 20880, Note_on_c, 2, 66, 64
15, 20951, Note_on_c, 2, 66, 0
15, 21000, Note_on_c, 2, 69, 64
15, 21071, Note_on_c, 2, 69, 0
15, 21120, Note_on_c, 2, 62, 0
15, 21120, Note_on_c, 2, 73, 64
15, 21240, Note_on_c, 2, 64, 64
15, 21311, Note_on_c, 2, 64, 0
15, 21360, Note_on_c, 2, 73, 0
15, 21360, Note_on_c, 2, 66, 64
15, 21360, Note_on_c, 2, 62, 64
15, 21420, Note_on_c, 2, 66, 0
15, 21420, Note_on_c, 2, 69, 64
15, 21431, Note_on_c, 2, 62, 0
15, 21480, Note_on_c, 2, 69, 0
15, 21480, Note_on_c, 2, 71, 64
15, 21480, Note_on_c, 2, 74, 64
15, 21540, Note_on_c, 2, 71, 0
15, 21540, Note_on_c, 2, 73, 64
15, 21551, Note_on_c, 2, 74, 0
15, 21600, Note_on_c, 2, 73, 0
15, 21600, Note_on_c, 2, 74, 64
15, 21600, Note_on_c, 2, 71, 64
15, 21671, Note_on_c, 2, 71, 0
15, 21720, Note_on_c, 2, 66, 64
15, 21791, Note_on_c, 2, 66, 0
15, 21840, Note_on_c, 2, 68, 64
15, 21911, Note_on_c, 2, 68, 0
15, 21911, Note_on_c, 2, 74, 0
15, 21960, Note_on_c, 2, 73, 64
15, 21960, Note_on_c, 2, 64, 64
15, 22031, Note_on_c, 2, 64, 0
15, 22080, Note_on_c, 2, 69, 64
15, 22151, Note_on_c, 2, 69, 0
15, 22151, Note_on_c, 2, 73, 0
15, 22200, Note_on_c, 2, 78, 64
15, 22200, Note_on_c, 2, 62, 64
15, 22271, Note_on_c, 2, 62, 0
15, 22271, Note_on_c, 2, 78, 0
15, 22320, Note_on_c, 2, 76, 64
15, 22320, Note_on_c, 2, 64, 64
15, 22391, Note_on_c, 2, 64, 0
15, 22391, Note_on_c, 2, 76, 0
15, 22440, Note_on_c, 2, 69, 64
15, 22440, Note_on_c, 2, 66, 64
15, 22680, Note_on_c, 2, 66, 0
15, 22680, Note_on_c, 2, 69, 0
15, 22680, Note_on_c, 2, 68, 64
15, 22680, Note_on_c, 2, 64, 64
15, 22740, Note_on_c, 2, 64, 0
15, 22740, Note_on_c, 2, 62, 64
15, 22751, Note_on_c, 2, 68, 0
15, 22800, Note_on_c, 2, 62, 0
15, 22800, Note_on_c, 2, 69, 64
15, 22800, Note_on_c, 2, 64, 64
15, 22860, Note_on_c, 2, 64, 0
15, 22860, Note_on_c, 2, 69, 64
15, 22920, Note_on_c, 2, 69, 0
15, 22920, Note_on_c, 2, 67, 64
15, 22980, Note_on_c, 2, 67, 0
15, 22980, Note_on_c, 2, 69, 64
15, 23040, Note_on_c, 2, 69, 0
15, 23040, Note_on_c, 2, 62, 64
15, 23100, Note_on_c, 2, 69, 0
15, 23100, Note_on_c, 2, 74, 64
15, 23160, Note_on_c, 2, 74, 0
15, 23160, Note_on_c, 2, 73, 64
15, 23220, Note_on_c, 2, 73, 0
15, 23220, Note_on_c, 2, 74, 64
15, 23280, Note_on_c, 2, 74, 0
15, 23280, Note_on_c, 2, 71, 64
15, 23340, Note_on_c, 2, 62, 0
15, 23340, Note_on_c, 2, 62, 64
15, 23400, Note_on_c, 2, 62, 0
15, 23400, Note_on_c, 2, 64, 64
15, 23460, Note_on_c, 2, 64, 0
15, 23460, Note_on_c, 2, 66, 64
15, 23520, Note_on_c, 2, 66, 0
15, 23520, Note_on_c, 2, 67, 64
15, 23580, Note_on_c, 2, 71, 0
15, 23580, Note_on_c, 2, 71, 64
15, 23640, Note_on_c, 2, 71, 0
15, 23640, Note_on_c, 2, 73, 64
15, 23700, Note_on_c, 2, 73, 0
15, 23700, Note_on_c, 2, 74, 64
15, 23760, Note_on_c, 2, 74, 0
15, 23760, Note_on_c, 2, 76, 64
15, 23820, Note_on_c, 2, 76, 0
15, 23820, Note_on_c, 2, 73, 64
15, 23831, Note_on_c, 2, 67, 0
15, 23880, Note_on_c, 2, 73, 0
15, 23880, Note_on_c, 2, 74, 64
15, 23880, Note_on_c, 2, 66, 64
15, 23940, Note_on_c, 2, 74, 0
15, 23940, Note_on_c, 2, 76, 64
15, 24000, Note_on_c, 2, 76, 0
15, 24000, Note_on_c, 2, 78, 64
15, 24060, Note_on_c, 2, 78, 0
15, 24060, Note_on_c, 2, 76, 64
15, 24120, Note_on_c, 2, 76, 0
15, 24120, Note_on_c, 2, 66, 0
15, 24120, Note_on_c, 2, 78, 64
15, 24120, Note_on_c, 2, 71, 64
15, 24180, Note_on_c, 2, 78, 0
15, 24180, Note_on_c, 2, 79, 64
15, 24191, Note_on_c, 2, 71, 0
15, 24240, Note_on_c, 2, 79, 0
15, 24240, Note_on_c, 2, 73, 64
15, 24240, Note_on_c, 2, 69, 64
15, 24300, Note_on_c, 2, 69, 0
15, 24300, Note_on_c, 2, 67, 64
15, 24311, Note_on_c, 2, 73, 0
15, 24360, Note_on_c, 2, 67, 0
15, 24360, Note_on_c, 2, 74, 64
15, 24360, Note_on_c, 2, 66, 64
15, 24420, Note_on_c, 2, 66, 0
15, 24420, Note_on_c, 2, 69, 64
15, 24431, Note_on_c, 2, 74, 0
15, 24480, Note_on_c, 2, 69, 0
15, 24480, Note_on_c, 2, 76, 64
15, 24480, Note_on_c, 2, 67, 64
15, 24540, Note_on_c, 2, 67, 0
15, 24540, Note_on_c, 2, 66, 64
15, 24600, Note_on_c, 2, 66, 0
15, 24600, Note_on_c, 2, 67, 64
15, 24660, Note_on_c, 2, 67, 0
15, 24660, Note_on_c, 2, 64, 64
15, 24720, Note_on_c, 2, 64, 0
15, 24720, Note_on_c, 2, 76, 0
15, 24720, Note_on_c, 2, 69, 64
15, 24720, Note_on_c, 2, 66, 64
15, 24791, Note_on_c, 2, 66, 0
15, 24791, Note_on_c, 2, 69, 0
15, 24840, Note_on_c, 2, 74, 64
15, 24840, Note_on_c, 2, 62, 64
15, 24911, Note_on_c, 2, 62, 0
15, 25031, Note_on_c, 2, 74, 0
15, 25080, Note_on_c, 2, 79, 64
15, 25080, Note_on_c, 2, 74, 64
15, 25260, Note_on_c, 2, 79, 0
15, 25260, Note_on_c, 2, 77, 64
15, 25271, Note_on_c, 2, 74, 0
15, 25320, Note_on_c, 2, 77, 0
15, 25320, Note_on_c, 2, 76, 64
15, 25320, Note_on_c, 2, 72, 64
15, 25380, Note_on_c, 2, 72, 0
15, 25380, Note_on_c, 2, 76, 0
15, 25380, Note_on_c, 2, 74, 64
15, 25380, Note_on_c, 2, 71, 64
15, 25440, Note_on_c, 2, 71, 0
15, 25440, Note_on_c, 2, 74, 0
15, 25440, Note_on_c, 2, 76, 64
15, 25440, Note_on_c, 2, 72, 64
15, 25500, Note_on_c, 2, 76, 0
15, 25500, Note_on_c, 2, 74, 64
15, 25511, Note_on_c, 2, 72, 0
15, 25560, Note_on_c, 2, 74, 0
15, 25560, Note_on_c, 2, 72, 64
15, 25560, Note_on_c, 2, 67, 64
15, 25620, Note_on_c, 2, 72, 0
15, 25620, Note_on_c, 2, 71, 64
15, 25631, Note_on_c, 2, 67, 0
15, 25680, Note_on_c, 2, 71, 0
15, 25680, Note_on_c, 2, 69, 64
15, 25680, Note_on_c, 2, 74, 64
15, 25740, Note_on_c, 2, 69, 0
15, 25740, Note_on_c, 2, 67, 64
15, 25751, Note_on_c, 2, 74, 0
15, 25800, Note_on_c, 2, 67, 0
15, 25800, Note_on_c, 2, 69, 64
15, 25800, Note_on_c, 2, 66, 64
15, 25860, Note_on_c, 2, 69, 0
15, 25860, Note_on_c, 2, 66, 64
15, 25871, Note_on_c, 2, 66, 0
15, 25920, Note_on_c, 2, 66, 0
15, 25920, Note_on_c, 2, 67, 64
15, 25920, Note_on_c, 2, 62, 64
15, 25980, Note_on_c, 2, 67, 0
15, 25980, Note_on_c, 2, 66, 64
15, 25991, Note_on_c, 2, 62, 0
15, 26040, Note_on_c, 2, 66, 0
15, 26040, Note_on_c, 2, 64, 64
15, 26040, Note_on_c, 2, 64, 64
15, 26100, Note_on_c, 2, 64, 0
15, 26100, Note_on_c, 2, 67, 64
15, 26111, Note_on_c, 2, 64, 0
15, 26160, Note_on_c, 2, 67, 0
15, 26160, Note_on_c, 2, 66, 64
15, 26160, Note_on_c, 2, 62, 64
15, 26220, Note_on_c, 2, 66, 0
15, 26220, Note_on_c, 2, 67, 64
15, 26280, Note_on_c, 2, 67, 0
15, 26280, Note_on_c, 2, 69, 64
15, 26340, Note_on_c, 2, 69, 0
15, 26340, Note_on_c, 2, 71, 64
15, 26400, Note_on_c, 2, 71, 0
15, 26400, Note_on_c, 2, 62, 0
15, 26400, Note_on_c, 2, 72, 64
15, 26400, Note_on_c, 2, 64, 64
15, 26460, Note_on_c, 2, 72, 0
15, 26460, Note_on_c, 2, 71, 64
15, 26471, Note_on_c, 2, 64, 0
15, 26520, Note_on_c, 2, 71, 0
15, 26520, Note_on_c, 2, 72, 64
15, 26520, Note_on_c, 2, 69, 64
15, 26580, Note_on_c, 2, 72, 0
15, 26580, Note_on_c, 2, 69, 64
15, 26591, Note_on_c, 2, 69, 0
15, 26640, Note_on_c, 2, 69, 0
15, 26640, Note_on_c, 2, 71, 64
15, 26640, Note_on_c, 2, 63, 64
15, 26711, Note_on_c, 2, 63, 0
15, 26711, Note_on_c, 2, 71, 0
15, 26760, Note_on_c, 2, 73, 64
15, 26760, Note_on_c, 2, 64, 64
15, 26820, Note_on_c, 2, 64, 0
15, 26820, Note_on_c, 2, 73, 0
15, 26820, Note_on_c, 2, 75, 64
15, 26820, Note_on_c, 2, 66, 64
15, 26880, Note_on_c, 2, 66, 0
15, 26880, Note_on_c, 2, 75, 0
15, 26880, Note_on_c, 2, 76, 64
15, 26880, Note_on_c, 2, 64, 64
15, 26940, Note_on_c, 2, 64, 0
15, 26940, Note_on_c, 2, 66, 64
15, 27000, Note_on_c, 2, 66, 0
15, 27000, Note_on_c, 2, 67, 64
15, 27060, Note_on_c, 2, 67, 0
15, 27060, Note_on_c, 2, 64, 64
15, 27120, Note_on_c, 2, 64, 0
15, 27120, Note_on_c, 2, 69, 64
15, 27191, Note_on_c, 2, 76, 0
15, 27240, Note_on_c, 2, 74, 64
15, 27300, Note_on_c, 2, 74, 0
15, 27300, Note_on_c, 2, 73, 64
15, 27360, Note_on_c, 2, 73, 0
15, 27360, Note_on_c, 2, 74, 64
15, 27431, Note_on_c, 2, 74, 0
15, 27480, Note_on_c, 2, 69, 0
15, 27480, Note_on_c, 2, 79, 64
15, 27480, Note_on_c, 2, 67, 64
15, 27540, Note_on_c, 2, 67, 0
15, 27540, Note_on_c, 2, 66, 64
15, 27551, Note_on_c, 2, 79, 0
15, 27600, Note_on_c, 2, 66, 0
15, 27600, Note_on_c, 2, 72, 64
15, 27600, Note_on_c, 2, 67, 64
15, 27671, Note_on_c, 2, 67, 0
15, 27720, Note_on_c, 2, 66, 64
15, 27780, Note_on_c, 2, 66, 0
15, 27780, Note_on_c, 2, 64, 64
15, 27840, Note_on_c, 2, 64, 0
15, 27840, Note_on_c, 2, 66, 64
15, 28080, Note_on_c, 2, 66, 0
15, 28080, Note_on_c, 2, 72, 0
15, 28080, Note_on_c, 2, 71, 64
15, 28080, Note_on_c, 2, 67, 64
15, 28140, Note_on_c, 2, 71, 0
15, 28140, Note_on_c, 2, 74, 64
15, 28200, Note_on_c, 2, 74, 0
15, 28200, Note_on_c, 2, 76, 64
15, 28260, Note_on_c, 2, 76, 0
15, 28260, Note_on_c, 2, 78, 64
15, 28320, Note_on_c, 2, 78, 0
15, 28320, Note_on_c, 2, 67, 0
15, 28320, Note_on_c, 2, 79, 64
15, 28440, Note_on_c, 2, 71, 64
15, 28511, Note_on_c, 2, 71, 0
15, 28560, Note_on_c, 2, 73, 64
15, 28620, Note_on_c, 2, 79, 0
15, 28620, Note_on_c, 2, 73, 64
15, 28631, Note_on_c, 2, 73, 0
15, 28680, Note_on_c, 2, 73, 0
15, 28680, Note_on_c, 2, 74, 64
15, 28680, Note_on_c, 2, 69, 64
15, 28740, Note_on_c, 2, 74, 0
15, 28740, Note_on_c, 2, 76, 64
15, 28800, Note_on_c, 2, 76, 0
15, 28800, Note_on_c, 2, 78, 64
15, 28920, Note_on_c, 2, 69, 0
15, 28920, Note_on_c, 2, 74, 64
15, 28991, Note_on_c, 2, 74, 0
15, 29040, Note_on_c, 2, 67, 64
15, 29111, Note_on_c, 2, 78, 0
15, 29160, Note_on_c, 2, 76, 64
15, 29220, Note_on_c, 2, 76, 0
15, 29220, Note_on_c, 2, 74, 64
15, 29280, Note_on_c, 2, 74, 0
15, 29280, Note_on_c, 2, 76, 64
15, 29400, Note_on_c, 2, 67, 0
15, 29400, Note_on_c, 2, 66, 64
15, 29460, Note_on_c, 2, 66, 0
15, 29460, Note_on_c, 2, 64, 64
15, 29520, Note_on_c, 2, 64, 0
15, 29520, Note_on_c, 2, 66, 64
15, 29580, Note_on_c, 2, 76, 0
15, 29580, Note_on_c, 2, 79, 64
15, 29640, Note_on_c, 2, 79, 0
15, 29640, Note_on_c, 2, 78, 64
15, 29700, Note_on_c, 2, 78, 0
15, 29700, Note_on_c, 2, 76, 64
15, 29760, Note_on_c, 2, 76, 0
15, 29760, Note_on_c, 2, 74, 64
15, 29820, Note_on_c, 2, 74, 0
15, 29820, Note_on_c, 2, 73, 64
15, 29880, Note_on_c, 2, 73, 0
15, 29880, Note_on_c, 2, 66, 0
15, 29880, Note_on_c, 2, 71, 64
15, 29880, Note_on_c, 2, 68, 64
15, 29940, Note_on_c, 2, 68, 0
15, 29940, Note_on_c, 2, 71, 0
15, 29940, Note_on_c, 2, 69, 64
15, 29940, Note_on_c, 2, 69, 64
15, 30000, Note_on_c, 2, 69, 0
15, 30000, Note_on_c, 2, 69, 0
15, 30000, Note_on_c, 2, 68, 64
15, 30000, Note_on_c, 2, 71, 64
15, 30060, Note_on_c, 2, 71, 0
15, 30060, Note_on_c, 2, 68, 0
15, 30060, Note_on_c, 2, 64, 64
15, 30060, Note_on_c, 2, 68, 64
15, 30120, Note_on_c, 2, 68, 0
15, 30120, Note_on_c, 2, 64, 0
15, 30120, Note_on_c, 2, 66, 64
15, 30120, Note_on_c, 2, 69, 64
15, 30180, Note_on_c, 2, 69, 0
15, 30180, Note_on_c, 2, 66, 0
15, 30180, Note_on_c, 2, 68, 64
15, 30180, Note_on_c, 2, 71, 64
15, 30240, Note_on_c, 2, 71, 0
15, 30240, Note_on_c, 2, 68, 0
15, 30240, Note_on_c, 2, 69, 64
15, 30240, Note_on_c, 2, 64, 64
15, 30300, Note_on_c, 2, 69, 0
15, 30300, Note_on_c, 2, 71, 64
15, 30311, Note_on_c, 2, 64, 0
15, 30360, Note_on_c, 2, 71, 0
15, 30360, Note_on_c, 2, 73, 64
15, 30360, Note_on_c, 2, 69, 64
15, 30420, Note_on_c, 2, 73, 0
15, 30420, Note_on_c, 2, 69, 64
15, 30480, Note_on_c, 2, 69, 0
15, 30480, Note_on_c, 2, 74, 64
15, 30540, Note_on_c, 2, 74, 0
15, 30540, Note_on_c, 2, 73, 64
15, 30551, Note_on_c, 2, 69, 0
15, 30600, Note_on_c, 2, 73, 0
15, 30600, Note_on_c, 2, 71, 64
15, 30600, Note_on_c, 2, 71, 64
15, 30660, Note_on_c, 2, 71, 0
15, 30660, Note_on_c, 2, 71, 0
15, 30660, Note_on_c, 2, 73, 64
15, 30660, Note_on_c, 2, 69, 64
15, 30720, Note_on_c, 2, 69, 0
15, 30720, Note_on_c, 2, 73, 0
15, 30720, Note_on_c, 2, 74, 64
15, 30720, Note_on_c, 2, 68, 64
15, 30780, Note_on_c, 2, 68, 0
15, 30780, Note_on_c, 2, 69, 64
15, 30791, Note_on_c, 2, 74, 0
15, 30840, Note_on_c, 2, 69, 0
15, 30840, Note_on_c, 2, 74, 64
15, 30840, Note_on_c, 2, 66, 64
15, 30900, Note_on_c, 2, 66, 0
15, 30900, Note_on_c, 2, 68, 64
15, 30911, Note_on_c, 2, 74, 0
15, 30960, Note_on_c, 2, 68, 0
15, 30960, Note_on_c, 2, 73, 64
15, 30960, Note_on_c, 2, 69, 64
15, 31031, Note_on_c, 2, 69, 0
15, 31031, Note_on_c, 2, 73, 0
15, 31080, Note_on_c, 2, 76, 64
15, 31080, Note_on_c, 2, 73, 64
15, 31151, Note_on_c, 2, 73, 0
15, 31151, Note_on_c, 2, 76, 0
15, 31200, Note_on_c, 2, 78, 64
15, 31200, Note_on_c, 2, 74, 64
15, 31440, Note_on_c, 2, 74, 0
15, 31440, Note_on_c, 2, 78, 0
15, 31440, Note_on_c, 2, 67, 64
15, 31440, Note_on_c, 2, 71, 64
15, 31511, Note_on_c, 2, 67, 0
15, 31560, Note_on_c, 2, 79, 64
15, 31631, Note_on_c, 2, 79, 0
15, 31680, Note_on_c, 2, 76, 64
15, 31740, Note_on_c, 2, 71, 0
15, 31740, Note_on_c, 2, 73, 64
15, 31751, Note_on_c, 2, 76, 0
15, 31800, Note_on_c, 2, 73, 0
15, 31800, Note_on_c, 2, 71, 64
15, 31800, Note_on_c, 2, 69, 64
15, 31860, Note_on_c, 2, 69, 0
15, 31860, Note_on_c, 2, 71, 64
15, 31871, Note_on_c, 2, 71, 0
15, 31920, Note_on_c, 2, 71, 0
15, 31920, Note_on_c, 2, 73, 64
15, 31920, Note_on_c, 2, 64, 64
15, 32040, Note_on_c, 2, 64, 0
15, 32040, Note_on_c, 2, 73, 0
15, 32040, Note_on_c, 2, 69, 64
15, 32040, Note_on_c, 2, 66, 64
15, 32111, Note_on_c, 2, 66, 0
15, 32111, Note_on_c, 2, 69, 0
15, 32160, Note_on_c, 2, 74, 64
15, 32160, Note_on_c, 2, 62, 64
15, 32231, Note_on_c, 2, 62, 0
15, 32231, Note_on_c, 2, 74, 0
15, 32280, Note_on_c, 2, 67, 64
15, 32280, Note_on_c, 2, 62, 64
15, 32351, Note_on_c, 2, 67, 0
15, 32400, Note_on_c, 2, 66, 64
15, 32460, Note_on_c, 2, 62, 0
15, 32460, Note_on_c, 2, 64, 64
15, 32520, Note_on_c, 2, 64, 0
15, 32520, Note_on_c, 2, 66, 64
15, 32580, Note_on_c, 2, 66, 0
15, 32580, Note_on_c, 2, 62, 64
15, 32640, Note_on_c, 2, 62, 0
15, 32640, Note_on_c, 2, 66, 0
15, 32640, Note_on_c, 2, 64, 64
15, 32640, Note_on_c, 2, 64, 64
15, 32700, Note_on_c, 2, 64, 0
15, 32700, Note_on_c, 2, 66, 64
15, 32760, Note_on_c, 2, 66, 0
15, 32760, Note_on_c, 2, 67, 64
15, 32820, Note_on_c, 2, 67, 0
15, 32820, Note_on_c, 2, 64, 64
15, 32880, Note_on_c, 2, 64, 0
15, 32880, Note_on_c, 2, 64, 0
15, 32880, Note_on_c, 2, 62, 35
15, 32880, Note_on_c, 2, 66, 35
15, 32951, Note_on_c, 2, 66, 0
15, 32951, Note_on_c, 2, 62, 0
15, 33000, Note_on_c, 2, 78, 38
15, 33000, Note_on_c, 2, 74, 38
15, 33060, Note_on_c, 2, 74, 0
15, 33060, Note_on_c, 2, 78, 0
15, 33060, Note_on_c, 2, 79, 40
15, 33060, Note_on_c, 2, 76, 40
15, 33120, Note_on_c, 2, 76, 0
15, 33120, Note_on_c, 2, 79, 0
15, 33120, Note_on_c, 2, 81, 42
15, 33120, Note_on_c, 2, 78, 42
15, 33191, Note_on_c, 2, 78, 0
15, 33191, Note_on_c, 2, 81, 0
15, 33240, Note_on_c, 2, 72, 45
15, 33240, Note_on_c, 2, 69, 45
15, 33431, Note_on_c, 2, 69, 0
15, 33431, Note_on_c, 2, 72, 0
15, 33480, Note_on_c, 2, 71, 52
15, 33480, Note_on_c, 2, 67, 52
15, 33540, Note_on_c, 2, 67, 0
15, 33540, Note_on_c, 2, 71, 0
15, 33540, Note_on_c, 2, 69, 53
15, 33540, Note_on_c, 2, 66, 53
15, 33600, Note_on_c, 2, 66, 0
15, 33600, Note_on_c, 2, 69, 0
15, 33600, Note_on_c, 2, 71, 55
15, 33600, Note_on_c, 2, 67, 55
15, 33671, Note_on_c, 2, 67, 0
15, 33671, Note_on_c, 2, 71, 0
15, 33720, Note_on_c, 2, 67, 58
15, 33720, Note_on_c, 2, 64, 58
15, 33791, Note_on_c, 2, 64, 0
15, 33791, Note_on_c, 2, 67, 0
15, 33840, Note_on_c, 2, 69, 62
15, 33840, Note_on_c, 2, 66, 62
15, 34080, Note_on_c, 2, 66, 0
15, 34080, Note_on_c, 2, 69, 0
15, 34200, Note_on_c, 2, 74, 72
15, 34200, Note_on_c, 2, 66, 72
15, 34260, Note_on_c, 2, 66, 0
15, 34260, Note_on_c, 2, 74, 0
15, 34260, Note_on_c, 2, 76, 73
15, 34260, Note_on_c, 2, 67, 73
15, 34320, Note_on_c, 2, 67, 0
15, 34320, Note_on_c, 2, 76, 0
15, 34320, Note_on_c, 2, 78, 70
15, 34320, Note_on_c, 2, 69, 70
15, 34391, Note_on_c, 2, 69, 0
15, 34391, Note_on_c, 2, 78, 0
15, 34920, Note_on_c, 2, 69, 70
15, 34991, Note_on_c, 2, 69, 0
15, 35040, Note_on_c, 2, 74, 70
15, 35160, Note_on_c, 2, 74, 70
15, 35231, Note_on_c, 2, 74, 0
15, 35280, Note_on_c, 2, 79, 70
15, 35351, Note_on_c, 2, 74, 0
15, 35400, Note_on_c, 2, 73, 70
15, 35471, Note_on_c, 2, 73, 0
15, 35520, Note_on_c, 2, 74, 70
15, 35580, Note_on_c, 2, 74, 0
15, 35580, Note_on_c, 2, 71, 70
15, 35640, Note_on_c, 2, 71, 0
15, 35640, Note_on_c, 2, 79, 0
15, 35640, Note_on_c, 2, 78, 70
15, 35640, Note_on_c, 2, 69, 70
15, 35700, Note_on_c, 2, 69, 0
15, 35700, Note_on_c, 2, 78, 0
15, 35700, Note_on_c, 2, 76, 70
15, 35700, Note_on_c, 2, 67, 70
15, 35760, Note_on_c, 2, 67, 0
15, 35760, Note_on_c, 2, 76, 0
15, 35760, Note_on_c, 2, 78, 70
15, 35760, Note_on_c, 2, 66, 70
15, 35820, Note_on_c, 2, 66, 0
15, 35820, Note_on_c, 2, 78, 0
15, 35820, Note_on_c, 2, 79, 70
15, 35820, Note_on_c, 2, 64, 70
15, 35880, Note_on_c, 2, 64, 0
15, 35880, Note_on_c, 2, 79, 0
15, 35880, Note_on_c, 2, 81, 70
15, 35880, Note_on_c, 2, 66, 70
15, 35940, Note_on_c, 2, 66, 0
15, 35940, Note_on_c, 2, 81, 0
15, 35940, Note_on_c, 2, 83, 70
15, 35940, Note_on_c, 2, 68, 70
15, 36000, Note_on_c, 2, 68, 0
15, 36000, Note_on_c, 2, 83, 0
15, 36000, Note_on_c, 2, 76, 70
15, 36000, Note_on_c, 2, 69, 70
15, 36060, Note_on_c, 2, 76, 0
15, 36060, Note_on_c, 2, 78, 70
15, 36120, Note_on_c, 2, 78, 0
15, 36120, Note_on_c, 2, 79, 70
15, 36180, Note_on_c, 2, 79, 0
15, 36180, Note_on_c, 2, 81, 70
15, 36240, Note_on_c, 2, 81, 0
15, 36240, Note_on_c, 2, 74, 70
15, 36300, Note_on_c, 2, 74, 0
15, 36300, Note_on_c, 2, 73, 70
15, 36311, Note_on_c, 2, 69, 0
15, 36360, Note_on_c, 2, 73, 0
15, 36360, Note_on_c, 2, 74, 70
15, 36360, Note_on_c, 2, 67, 70
15, 36420, Note_on_c, 2, 67, 0
15, 36420, Note_on_c, 2, 74, 0
15, 36420, Note_on_c, 2, 76, 70
15, 36420, Note_on_c, 2, 66, 70
15, 36480, Note_on_c, 2, 66, 0
15, 36480, Note_on_c, 2, 76, 0
15, 36480, Note_on_c, 2, 73, 70
15, 36480, Note_on_c, 2, 64, 70
15, 36540, Note_on_c, 2, 64, 0
15, 36540, Note_on_c, 2, 73, 0
15, 36540, Note_on_c, 2, 74, 70
15, 36540, Note_on_c, 2, 66, 70
15, 36600, Note_on_c, 2, 66, 0
15, 36600, Note_on_c, 2, 74, 0
15, 36600, Note_on_c, 2, 76, 70
15, 36600, Note_on_c, 2, 67, 70
15, 36660, Note_on_c, 2, 67, 0
15, 36660, Note_on_c, 2, 76, 0
15, 36660, Note_on_c, 2, 78, 70
15, 36660, Note_on_c, 2, 69, 70
15, 36720, Note_on_c, 2, 69, 0
15, 36720, Note_on_c, 2, 78, 0
15, 36720, Note_on_c, 2, 71, 70
15, 36720, Note_on_c, 2, 62, 70
15, 36791, Note_on_c, 2, 62, 0
15, 36791, Note_on_c, 2, 71, 0
15, 36840, Note_on_c, 2, 71, 70
15, 36840, Note_on_c, 2, 64, 70
15, 36900, Note_on_c, 2, 71, 0
15, 36900, Note_on_c, 2, 69, 70
15, 36960, Note_on_c, 2, 69, 0
15, 36960, Note_on_c, 2, 71, 70
15, 37020, Note_on_c, 2, 64, 0
15, 37020, Note_on_c, 2, 66, 70
15, 37031, Note_on_c, 2, 71, 0
15, 37080, Note_on_c, 2, 66, 0
15, 37080, Note_on_c, 2, 73, 70
15, 37080, Note_on_c, 2, 67, 70
15, 37140, Note_on_c, 2, 67, 0
15, 37140, Note_on_c, 2, 64, 70
15, 37151, Note_on_c, 2, 73, 0
15, 37200, Note_on_c, 2, 64, 0
15, 37200, Note_on_c, 2, 74, 64
15, 37200, Note_on_c, 2, 69, 64
15, 37500, Note_on_c, 2, 69, 0
15, 37500, Note_on_c, 2, 62, 66
15, 37560, Note_on_c, 2, 62, 0
15, 37560, Note_on_c, 2, 64, 66
15, 37620, Note_on_c, 2, 64, 0
15, 37620, Note_on_c, 2, 66, 67
15, 37680, Note_on_c, 2, 66, 0
15, 37680, Note_on_c, 2, 67, 67
15, 37740, Note_on_c, 2, 67, 0
15, 37740, Note_on_c, 2, 66, 68
15, 37800, Note_on_c, 2, 66, 0
15, 37800, Note_on_c, 2, 67, 68
15, 37860, Note_on_c, 2, 67, 0
15, 37860, Note_on_c, 2, 69, 68
15, 37920, Note_on_c, 2, 69, 0
15, 37920, Note_on_c, 2, 66, 69
15, 37980, Note_on_c, 2, 66, 0
15, 37980, Note_on_c, 2, 74, 0
15, 37980, Note_on_c, 2, 73, 69
15, 37980, Note_on_c, 2, 67, 69
15, 38040, Note_on_c, 2, 67, 0
15, 38040, Note_on_c, 2, 73, 0
15, 38040, Note_on_c, 2, 74, 70
15, 38040, Note_on_c, 2, 66, 70
15, 38100, Note_on_c, 2, 66, 0
15, 38100, Note_on_c, 2, 74, 0
15, 38100, Note_on_c, 2, 76, 70
15, 38100, Note_on_c, 2, 64, 70
15, 38160, Note_on_c, 2, 64, 0
15, 38160, Note_on_c, 2, 76, 0
15, 38160, Note_on_c, 2, 78, 70
15, 38160, Note_on_c, 2, 62, 70
15, 38220, Note_on_c, 2, 78, 0
15, 38220, Note_on_c, 2, 76, 71
15, 38231, Note_on_c, 2, 62, 0
15, 38280, Note_on_c, 2, 76, 0
15, 38280, Note_on_c, 2, 78, 71
15, 38280, Note_on_c, 2, 74, 71
15, 38340, Note_on_c, 2, 78, 0
15, 38340, Note_on_c, 2, 79, 72
15, 38400, Note_on_c, 2, 79, 0
15, 38400, Note_on_c, 2, 81, 72
15, 38460, Note_on_c, 2, 74, 0
15, 38460, Note_on_c, 2, 73, 72
15, 38520, Note_on_c, 2, 73, 0
15, 38520, Note_on_c, 2, 74, 73
15, 38580, Note_on_c, 2, 74, 0
15, 38580, Note_on_c, 2, 76, 73
15, 38640, Note_on_c, 2, 76, 0
15, 38640, Note_on_c, 2, 78, 74
15, 38700, Note_on_c, 2, 81, 0
15, 38700, Note_on_c, 2, 78, 74
15, 38760, Note_on_c, 2, 78, 0
15, 38760, Note_on_c, 2, 79, 74
15, 38820, Note_on_c, 2, 79, 0
15, 38820, Note_on_c, 2, 81, 75
15, 38880, Note_on_c, 2, 81, 0
15, 38880, Note_on_c, 2, 83, 75
15, 38940, Note_on_c, 2, 83, 0
15, 38940, Note_on_c, 2, 81, 76
15, 39000, Note_on_c, 2, 81, 0
15, 39000, Note_on_c, 2, 78, 0
15, 39000, Note_on_c, 2, 83, 76
15, 39000, Note_on_c, 2, 76, 76
15, 39060, Note_on_c, 2, 83, 0
15, 39060, Note_on_c, 2, 85, 76
15, 39071, Note_on_c, 2, 76, 0
15, 39120, Note_on_c, 2, 85, 0
15, 39120, Note_on_c, 2, 86, 77
15, 39120, Note_on_c, 2, 74, 77
15, 39180, Note_on_c, 2, 74, 0
15, 39180, Note_on_c, 2, 73, 77
15, 39191, Note_on_c, 2, 86, 0
15, 39240, Note_on_c, 2, 73, 0
15, 39240, Note_on_c, 2, 85, 78
15, 39240, Note_on_c, 2, 74, 78
15, 39300, Note_on_c, 2, 74, 0
15, 39300, Note_on_c, 2, 85, 0
15, 39300, Note_on_c, 2, 83, 78
15, 39300, Note_on_c, 2, 76, 78
15, 39360, Note_on_c, 2, 76, 0
15, 39360, Note_on_c, 2, 83, 0
15, 39360, Note_on_c, 2, 81, 78
15, 39360, Note_on_c, 2, 78, 78
15, 39431, Note_on_c, 2, 78, 0
15, 39431, Note_on_c, 2, 81, 0
15, 39480, Note_on_c, 2, 79, 79
15, 39480, Note_on_c, 2, 74, 79
15, 39551, Note_on_c, 2, 74, 0
15, 39551, Note_on_c, 2, 79, 0
15, 39600, Note_on_c, 2, 78, 90
15, 39600, Note_on_c, 2, 74, 90
15, 39840, Note_on_c, 2, 74, 0
15, 39840, Note_on_c, 2, 78, 0
15, 39840, Note_on_c, 2, 76, 90
15, 39840, Note_on_c, 2, 73, 90
15, 40080, Note_on_c, 2, 73, 0
15, 40080, Note_on_c, 2, 76, 0
15, 40080, Note_on_c, 2, 74, 90
15, 40080, Note_on_c, 2, 74, 90
15, 40560, Note_on_c, 2, 74, 0
15, 40560, Note_on_c, 2, 74, 0
15, 41040, End_track
0, 0, End_of_file
