0, 0, Header, 1, 5, 480
1, 0, Start_track
1, 0, Text_t, "Sonata: Allegro"
1, 0, SMPTE_offset, 32, 0, 0, 0, 0
1, 0, Time_signature, 2, 2, 24, 8
1, 0, Tempo, 674157
1, 0, End_track
2, 0, Start_track
2, 0, Text_t, "Flauto T"
2, 10320, Note_on_c, 0, 72, 64
2, 10560, Note_off_c, 0, 72, 64
2, 10560, Note_on_c, 0, 79, 64
2, 10920, Note_off_c, 0, 79, 64
2, 10920, Note_on_c, 0, 81, 64
2, 10980, Note_off_c, 0, 81, 64
2, 10980, Note_on_c, 0, 82, 64
2, 11040, Note_off_c, 0, 82, 64
2, 11040, Note_on_c, 0, 81, 64
2, 11400, Note_off_c, 0, 81, 64
2, 11400, Note_on_c, 0, 82, 64
2, 11460, Note_off_c, 0, 82, 64
2, 11460, Note_on_c, 0, 84, 64
2, 11520, Note_off_c, 0, 84, 64
2, 11520, Note_on_c, 0, 82, 64
2, 11640, Note_off_c, 0, 82, 64
2, 11640, Note_on_c, 0, 81, 64
2, 11760, Note_off_c, 0, 81, 64
2, 11760, Note_on_c, 0, 79, 64
2, 11880, Note_off_c, 0, 79, 64
2, 11880, Note_on_c, 0, 78, 64
2, 12000, Note_off_c, 0, 78, 64
2, 12000, Note_on_c, 0, 79, 64
2, 12120, Note_off_c, 0, 79, 64
2, 12120, Note_on_c, 0, 86, 64
2, 12240, Note_off_c, 0, 86, 64
2, 12240, Note_on_c, 0, 82, 64
2, 12360, Note_off_c, 0, 82, 64
2, 12360, Note_on_c, 0, 79, 64
2, 12480, Note_off_c, 0, 79, 64
2, 12480, Note_on_c, 0, 78, 64
2, 12600, Note_off_c, 0, 78, 64
2, 12600, Note_on_c, 0, 74, 64
2, 12720, Note_off_c, 0, 74, 64
2, 12720, Note_on_c, 0, 78, 64
2, 12840, Note_off_c, 0, 78, 64
2, 12840, Note_on_c, 0, 81, 64
2, 12960, Note_off_c, 0, 81, 64
2, 12960, Note_on_c, 0, 79, 64
2, 13080, Note_off_c, 0, 79, 64
2, 13080, Note_on_c, 0, 78, 64
2, 13200, Note_off_c, 0, 78, 64
2, 13200, Note_on_c, 0, 79, 64
2, 13320, Note_off_c, 0, 79, 64
2, 13320, Note_on_c, 0, 82, 64
2, 13440, Note_off_c, 0, 82, 64
2, 13440, Note_on_c, 0, 81, 64
2, 13560, Note_off_c, 0, 81, 64
2, 13560, Note_on_c, 0, 79, 64
2, 13680, Note_off_c, 0, 79, 64
2, 13680, Note_on_c, 0, 78, 64
2, 13800, Note_off_c, 0, 78, 64
2, 13800, Note_on_c, 0, 76, 64
2, 13920, Note_off_c, 0, 76, 64
2, 13920, Note_on_c, 0, 74, 64
2, 14040, Note_off_c, 0, 74, 64
2, 14040, Note_on_c, 0, 81, 64
2, 14160, Note_off_c, 0, 81, 64
2, 14160, Note_on_c, 0, 82, 64
2, 14280, Note_off_c, 0, 82, 64
2, 14280, Note_on_c, 0, 78, 64
2, 14400, Note_off_c, 0, 78, 64
2, 14400, Note_on_c, 0, 79, 64
2, 14520, Note_off_c, 0, 79, 64
2, 14520, Note_on_c, 0, 78, 64
2, 14640, Note_off_c, 0, 78, 64
2, 14640, Note_on_c, 0, 79, 64
2, 14760, Note_off_c, 0, 79, 64
2, 14760, Note_on_c, 0, 87, 64
2, 14880, Note_off_c, 0, 87, 64
2, 14880, Note_on_c, 0, 87, 64
2, 15000, Note_off_c, 0, 87, 64
2, 15000, Note_on_c, 0, 86, 64
2, 15120, Note_off_c, 0, 86, 64
2, 15120, Note_on_c, 0, 87, 64
2, 15240, Note_off_c, 0, 87, 64
2, 15240, Note_on_c, 0, 77, 64
2, 15360, Note_off_c, 0, 77, 64
2, 15360, Note_on_c, 0, 77, 64
2, 15480, Note_off_c, 0, 77, 64
2, 15480, Note_on_c, 0, 76, 64
2, 15600, Note_off_c, 0, 76, 64
2, 15600, Note_on_c, 0, 77, 64
2, 15720, Note_off_c, 0, 77, 64
2, 15720, Note_on_c, 0, 86, 64
2, 15840, Note_off_c, 0, 86, 64
2, 15840, Note_on_c, 0, 86, 64
2, 15960, Note_off_c, 0, 86, 64
2, 15960, Note_on_c, 0, 84, 64
2, 16080, Note_off_c, 0, 84, 64
2, 16080, Note_on_c, 0, 86, 64
2, 16200, Note_off_c, 0, 86, 64
2, 16200, Note_on_c, 0, 75, 64
2, 16320, Note_off_c, 0, 75, 64
2, 16320, Note_on_c, 0, 75, 64
2, 16440, Note_off_c, 0, 75, 64
2, 16440, Note_on_c, 0, 74, 64
2, 16560, Note_off_c, 0, 74, 64
2, 16560, Note_on_c, 0, 75, 64
2, 16680, Note_off_c, 0, 75, 64
2, 16680, Note_on_c, 0, 84, 64
2, 16800, Note_off_c, 0, 84, 64
2, 16800, Note_on_c, 0, 84, 64
2, 16920, Note_off_c, 0, 84, 64
2, 16920, Note_on_c, 0, 83, 64
2, 17040, Note_off_c, 0, 83, 64
2, 17040, Note_on_c, 0, 84, 64
2, 17160, Note_off_c, 0, 84, 64
2, 17160, Note_on_c, 0, 75, 64
2, 17280, Note_off_c, 0, 75, 64
2, 17280, Note_on_c, 0, 75, 64
2, 17520, Note_off_c, 0, 75, 64
2, 17520, Note_on_c, 0, 74, 64
2, 17760, Note_off_c, 0, 74, 64
2, 18000, Note_on_c, 0, 74, 64
2, 18240, Note_off_c, 0, 74, 64
2, 18240, Note_on_c, 0, 87, 64
2, 18300, Note_off_c, 0, 87, 64
2, 18300, Note_on_c, 0, 86, 64
2, 18360, Note_off_c, 0, 86, 64
2, 18360, Note_on_c, 0, 87, 64
2, 18420, Note_off_c, 0, 87, 64
2, 18420, Note_on_c, 0, 86, 64
2, 18480, Note_off_c, 0, 86, 64
2, 18480, Note_on_c, 0, 87, 64
2, 18540, Note_off_c, 0, 87, 64
2, 18540, Note_on_c, 0, 86, 64
2, 18600, Note_off_c, 0, 86, 64
2, 18600, Note_on_c, 0, 84, 64
2, 18660, Note_off_c, 0, 84, 64
2, 18660, Note_on_c, 0, 82, 64
2, 18720, Note_off_c, 0, 82, 64
2, 18720, Note_on_c, 0, 86, 64
2, 18780, Note_off_c, 0, 86, 64
2, 18780, Note_on_c, 0, 84, 64
2, 18840, Note_off_c, 0, 84, 64
2, 18840, Note_on_c, 0, 86, 64
2, 18900, Note_off_c, 0, 86, 64
2, 18900, Note_on_c, 0, 84, 64
2, 18960, Note_off_c, 0, 84, 64
2, 18960, Note_on_c, 0, 86, 64
2, 19020, Note_off_c, 0, 86, 64
2, 19020, Note_on_c, 0, 84, 64
2, 19080, Note_off_c, 0, 84, 64
2, 19080, Note_on_c, 0, 82, 64
2, 19140, Note_off_c, 0, 82, 64
2, 19140, Note_on_c, 0, 81, 64
2, 19200, Note_off_c, 0, 81, 64
2, 19200, Note_on_c, 0, 82, 64
2, 19320, Note_off_c, 0, 82, 64
2, 19320, Note_on_c, 0, 84, 64
2, 19440, Note_off_c, 0, 84, 64
2, 19440, Note_on_c, 0, 86, 64
2, 19560, Note_off_c, 0, 86, 64
2, 19560, Note_on_c, 0, 82, 64
2, 19680, Note_off_c, 0, 82, 64
2, 19680, Note_on_c, 0, 79, 64
2, 19800, Note_off_c, 0, 79, 64
2, 19800, Note_on_c, 0, 81, 64
2, 19920, Note_off_c, 0, 81, 64
2, 19920, Note_on_c, 0, 82, 64
2, 20040, Note_off_c, 0, 82, 64
2, 20040, Note_on_c, 0, 79, 64
2, 20160, Note_off_c, 0, 79, 64
2, 20160, Note_on_c, 0, 80, 64
2, 20280, Note_off_c, 0, 80, 64
2, 20280, Note_on_c, 0, 79, 64
2, 20400, Note_off_c, 0, 79, 64
2, 20400, Note_on_c, 0, 80, 64
2, 20520, Note_off_c, 0, 80, 64
2, 20520, Note_on_c, 0, 72, 64
2, 20640, Note_off_c, 0, 72, 64
2, 20640, Note_on_c, 0, 70, 64
2, 20760, Note_off_c, 0, 70, 64
2, 20760, Note_on_c, 0, 69, 64
2, 20880, Note_off_c, 0, 69, 64
2, 20880, Note_on_c, 0, 70, 64
2, 21000, Note_off_c, 0, 70, 64
2, 21000, Note_on_c, 0, 80, 64
2, 21120, Note_off_c, 0, 80, 64
2, 21120, Note_on_c, 0, 79, 64
2, 21240, Note_off_c, 0, 79, 64
2, 21240, Note_on_c, 0, 80, 64
2, 21360, Note_off_c, 0, 80, 64
2, 21360, Note_on_c, 0, 82, 64
2, 21480, Note_off_c, 0, 82, 64
2, 21480, Note_on_c, 0, 79, 64
2, 21600, Note_off_c, 0, 79, 64
2, 21600, Note_on_c, 0, 75, 64
2, 21720, Note_off_c, 0, 75, 64
2, 21720, Note_on_c, 0, 77, 64
2, 21840, Note_off_c, 0, 77, 64
2, 21840, Note_on_c, 0, 79, 64
2, 21960, Note_off_c, 0, 79, 64
2, 21960, Note_on_c, 0, 75, 64
2, 22080, Note_off_c, 0, 75, 64
2, 22080, Note_on_c, 0, 77, 64
2, 22200, Note_off_c, 0, 77, 64
2, 22200, Note_on_c, 0, 75, 64
2, 22320, Note_off_c, 0, 75, 64
2, 22320, Note_on_c, 0, 77, 64
2, 22440, Note_off_c, 0, 77, 64
2, 22440, Note_on_c, 0, 68, 64
2, 22560, Note_off_c, 0, 68, 64
2, 22560, Note_on_c, 0, 67, 64
2, 22680, Note_off_c, 0, 67, 64
2, 22680, Note_on_c, 0, 66, 64
2, 22800, Note_off_c, 0, 66, 64
2, 22800, Note_on_c, 0, 67, 64
2, 22920, Note_off_c, 0, 67, 64
2, 22920, Note_on_c, 0, 77, 64
2, 23040, Note_off_c, 0, 77, 64
2, 23040, Note_on_c, 0, 75, 64
2, 23160, Note_off_c, 0, 75, 64
2, 23160, Note_on_c, 0, 77, 64
2, 23280, Note_off_c, 0, 77, 64
2, 23280, Note_on_c, 0, 79, 64
2, 23400, Note_off_c, 0, 79, 64
2, 23400, Note_on_c, 0, 75, 64
2, 23520, Note_off_c, 0, 75, 64
2, 23520, Note_on_c, 0, 72, 64
2, 23760, Note_off_c, 0, 72, 64
2, 23760, Note_on_c, 0, 84, 64
2, 24240, Note_off_c, 0, 84, 64
2, 24240, Note_on_c, 0, 82, 64
2, 24360, Note_off_c, 0, 82, 64
2, 24360, Note_on_c, 0, 80, 64
2, 24480, Note_off_c, 0, 80, 64
2, 24480, Note_on_c, 0, 82, 64
2, 25200, Note_off_c, 0, 82, 64
2, 25200, Note_on_c, 0, 72, 64
2, 25320, Note_off_c, 0, 72, 64
2, 25320, Note_on_c, 0, 75, 64
2, 25440, Note_off_c, 0, 75, 64
2, 25440, Note_on_c, 0, 80, 64
2, 26160, Note_off_c, 0, 80, 64
2, 26160, Note_on_c, 0, 79, 64
2, 26280, Note_off_c, 0, 79, 64
2, 26280, Note_on_c, 0, 77, 64
2, 26400, Note_off_c, 0, 77, 64
2, 26400, Note_on_c, 0, 79, 64
2, 27120, Note_off_c, 0, 79, 64
2, 27120, Note_on_c, 0, 68, 64
2, 27240, Note_off_c, 0, 68, 64
2, 27240, Note_on_c, 0, 72, 64
2, 27360, Note_off_c, 0, 72, 64
2, 27360, Note_on_c, 0, 77, 64
2, 28080, Note_off_c, 0, 77, 64
2, 28080, Note_on_c, 0, 75, 64
2, 28200, Note_off_c, 0, 75, 64
2, 28200, Note_on_c, 0, 74, 64
2, 28320, Note_off_c, 0, 74, 64
2, 28320, Note_on_c, 0, 75, 64
2, 29040, Note_off_c, 0, 75, 64
2, 29040, Note_on_c, 0, 80, 64
2, 29160, Note_off_c, 0, 80, 64
2, 29160, Note_on_c, 0, 77, 64
2, 29280, Note_off_c, 0, 77, 64
2, 29280, Note_on_c, 0, 75, 64
2, 29520, Note_off_c, 0, 75, 64
2, 29520, Note_on_c, 0, 74, 64
2, 30000, Note_off_c, 0, 74, 64
2, 30000, Note_on_c, 0, 72, 64
2, 30240, Note_off_c, 0, 72, 64
2, 30480, Note_on_c, 0, 75, 64
2, 30840, Note_off_c, 0, 75, 64
2, 30840, Note_on_c, 0, 74, 64
2, 30960, Note_off_c, 0, 74, 64
2, 30960, Note_on_c, 0, 75, 64
2, 31080, Note_off_c, 0, 75, 64
2, 31080, Note_on_c, 0, 84, 64
2, 31200, Note_off_c, 0, 84, 64
2, 31200, Note_on_c, 0, 75, 64
2, 31320, Note_off_c, 0, 75, 64
2, 31320, Note_on_c, 0, 74, 64
2, 31440, Note_off_c, 0, 74, 64
2, 31440, Note_on_c, 0, 75, 64
2, 31560, Note_off_c, 0, 75, 64
2, 31560, Note_on_c, 0, 84, 64
2, 31680, Note_off_c, 0, 84, 64
2, 31680, Note_on_c, 0, 77, 64
2, 31740, Note_off_c, 0, 77, 64
2, 31740, Note_on_c, 0, 75, 64
2, 31800, Note_off_c, 0, 75, 64
2, 31800, Note_on_c, 0, 77, 64
2, 31860, Note_off_c, 0, 77, 64
2, 31860, Note_on_c, 0, 75, 64
2, 31920, Note_off_c, 0, 75, 64
2, 31920, Note_on_c, 0, 74, 64
2, 32160, Note_off_c, 0, 74, 64
2, 32400, Note_on_c, 0, 74, 64
2, 32640, Note_off_c, 0, 74, 64
2, 32640, Note_on_c, 0, 75, 64
2, 32760, Note_off_c, 0, 75, 64
2, 32760, Note_on_c, 0, 79, 64
2, 32880, Note_off_c, 0, 79, 64
2, 32880, Note_on_c, 0, 86, 64
2, 33000, Note_off_c, 0, 86, 64
2, 33000, Note_on_c, 0, 84, 64
2, 33120, Note_off_c, 0, 84, 64
2, 33120, Note_on_c, 0, 77, 64
2, 33180, Note_off_c, 0, 77, 64
2, 33180, Note_on_c, 0, 75, 64
2, 33240, Note_off_c, 0, 75, 64
2, 33240, Note_on_c, 0, 77, 64
2, 33300, Note_off_c, 0, 77, 64
2, 33300, Note_on_c, 0, 75, 64
2, 33360, Note_off_c, 0, 75, 64
2, 33360, Note_on_c, 0, 77, 64
2, 33420, Note_off_c, 0, 77, 64
2, 33420, Note_on_c, 0, 75, 64
2, 33480, Note_off_c, 0, 75, 64
2, 33480, Note_on_c, 0, 74, 64
2, 33540, Note_off_c, 0, 74, 64
2, 33540, Note_on_c, 0, 72, 64
2, 33600, Note_off_c, 0, 72, 64
2, 33600, Note_on_c, 0, 74, 64
2, 33720, Note_off_c, 0, 74, 64
2, 33720, Note_on_c, 0, 77, 64
2, 33840, Note_off_c, 0, 77, 64
2, 33840, Note_on_c, 0, 84, 64
2, 33960, Note_off_c, 0, 84, 64
2, 33960, Note_on_c, 0, 82, 64
2, 34080, Note_off_c, 0, 82, 64
2, 34080, Note_on_c, 0, 75, 64
2, 34140, Note_off_c, 0, 75, 64
2, 34140, Note_on_c, 0, 74, 64
2, 34200, Note_off_c, 0, 74, 64
2, 34200, Note_on_c, 0, 75, 64
2, 34260, Note_off_c, 0, 75, 64
2, 34260, Note_on_c, 0, 74, 64
2, 34320, Note_off_c, 0, 74, 64
2, 34320, Note_on_c, 0, 75, 64
2, 34380, Note_off_c, 0, 75, 64
2, 34380, Note_on_c, 0, 74, 64
2, 34440, Note_off_c, 0, 74, 64
2, 34440, Note_on_c, 0, 72, 64
2, 34500, Note_off_c, 0, 72, 64
2, 34500, Note_on_c, 0, 70, 64
2, 34560, Note_off_c, 0, 70, 64
2, 34560, Note_on_c, 0, 72, 64
2, 34680, Note_off_c, 0, 72, 64
2, 34680, Note_on_c, 0, 75, 64
2, 34800, Note_off_c, 0, 75, 64
2, 34800, Note_on_c, 0, 82, 64
2, 34920, Note_off_c, 0, 82, 64
2, 34920, Note_on_c, 0, 81, 64
2, 35040, Note_off_c, 0, 81, 64
2, 35040, Note_on_c, 0, 74, 64
2, 35100, Note_off_c, 0, 74, 64
2, 35100, Note_on_c, 0, 72, 64
2, 35160, Note_off_c, 0, 72, 64
2, 35160, Note_on_c, 0, 74, 64
2, 35220, Note_off_c, 0, 74, 64
2, 35220, Note_on_c, 0, 72, 64
2, 35280, Note_off_c, 0, 72, 64
2, 35280, Note_on_c, 0, 74, 64
2, 35340, Note_off_c, 0, 74, 64
2, 35340, Note_on_c, 0, 72, 64
2, 35400, Note_off_c, 0, 72, 64
2, 35400, Note_on_c, 0, 70, 64
2, 35460, Note_off_c, 0, 70, 64
2, 35460, Note_on_c, 0, 69, 64
2, 35520, Note_off_c, 0, 69, 64
2, 35520, Note_on_c, 0, 70, 64
2, 35640, Note_off_c, 0, 70, 64
2, 35640, Note_on_c, 0, 74, 64
2, 35760, Note_off_c, 0, 74, 64
2, 35760, Note_on_c, 0, 81, 64
2, 35880, Note_off_c, 0, 81, 64
2, 35880, Note_on_c, 0, 79, 64
2, 36000, Note_off_c, 0, 79, 64
2, 36000, Note_on_c, 0, 72, 64
2, 36060, Note_off_c, 0, 72, 64
2, 36060, Note_on_c, 0, 70, 64
2, 36120, Note_off_c, 0, 70, 64
2, 36120, Note_on_c, 0, 72, 64
2, 36180, Note_off_c, 0, 72, 64
2, 36180, Note_on_c, 0, 70, 64
2, 36240, Note_off_c, 0, 70, 64
2, 36240, Note_on_c, 0, 72, 64
2, 36300, Note_off_c, 0, 72, 64
2, 36300, Note_on_c, 0, 70, 64
2, 36360, Note_off_c, 0, 70, 64
2, 36360, Note_on_c, 0, 69, 64
2, 36420, Note_off_c, 0, 69, 64
2, 36420, Note_on_c, 0, 67, 64
2, 36480, Note_off_c, 0, 67, 64
2, 36480, Note_on_c, 0, 79, 64
2, 39480, Note_off_c, 0, 79, 64
2, 39480, Note_on_c, 0, 78, 64
2, 39600, Note_off_c, 0, 78, 64
2, 39600, Note_on_c, 0, 81, 64
2, 39720, Note_off_c, 0, 81, 64
2, 39720, Note_on_c, 0, 79, 64
2, 39840, Note_off_c, 0, 79, 64
2, 39840, Note_on_c, 0, 78, 64
2, 39960, Note_off_c, 0, 78, 64
2, 39960, Note_on_c, 0, 75, 64
2, 40080, Note_off_c, 0, 75, 64
2, 40080, Note_on_c, 0, 74, 64
2, 40200, Note_off_c, 0, 74, 64
2, 40200, Note_on_c, 0, 72, 64
2, 40320, Note_off_c, 0, 72, 64
2, 40320, Note_on_c, 0, 70, 64
2, 40440, Note_off_c, 0, 70, 64
2, 40440, Note_on_c, 0, 74, 64
2, 40560, Note_off_c, 0, 74, 64
2, 40560, Note_on_c, 0, 78, 64
2, 40680, Note_off_c, 0, 78, 64
2, 40680, Note_on_c, 0, 79, 64
2, 40800, Note_off_c, 0, 79, 64
2, 40800, Note_on_c, 0, 69, 64
2, 40920, Note_off_c, 0, 69, 64
2, 40920, Note_on_c, 0, 72, 64
2, 41040, Note_off_c, 0, 72, 64
2, 41040, Note_on_c, 0, 76, 64
2, 41160, Note_off_c, 0, 76, 64
2, 41160, Note_on_c, 0, 77, 64
2, 41280, Note_off_c, 0, 77, 64
2, 41280, Note_on_c, 0, 67, 64
2, 41400, Note_off_c, 0, 67, 64
2, 41400, Note_on_c, 0, 70, 64
2, 41520, Note_off_c, 0, 70, 64
2, 41520, Note_on_c, 0, 74, 64
2, 41640, Note_off_c, 0, 74, 64
2, 41640, Note_on_c, 0, 75, 64
2, 41760, Note_off_c, 0, 75, 64
2, 41760, Note_on_c, 0, 66, 64
2, 41880, Note_off_c, 0, 66, 64
2, 41880, Note_on_c, 0, 75, 64
2, 42000, Note_off_c, 0, 75, 64
2, 42000, Note_on_c, 0, 74, 64
2, 42120, Note_off_c, 0, 74, 64
2, 42120, Note_on_c, 0, 72, 64
2, 42240, Note_off_c, 0, 72, 64
2, 42240, Note_on_c, 0, 70, 64
2, 42360, Note_off_c, 0, 70, 64
2, 42360, Note_on_c, 0, 79, 64
2, 42480, Note_off_c, 0, 79, 64
2, 42480, Note_on_c, 0, 75, 64
2, 42600, Note_off_c, 0, 75, 64
2, 42600, Note_on_c, 0, 72, 64
2, 42720, Note_off_c, 0, 72, 64
2, 42720, Note_on_c, 0, 72, 64
2, 42780, Note_off_c, 0, 72, 64
2, 42780, Note_on_c, 0, 70, 64
2, 42840, Note_off_c, 0, 70, 64
2, 42840, Note_on_c, 0, 72, 64
2, 42900, Note_off_c, 0, 72, 64
2, 42900, Note_on_c, 0, 70, 64
2, 42960, Note_off_c, 0, 70, 64
2, 42960, Note_on_c, 0, 69, 64
2, 43080, Note_off_c, 0, 69, 64
2, 43080, Note_on_c, 0, 67, 64
2, 43200, Note_off_c, 0, 67, 64
2, 43200, Note_on_c, 0, 67, 64
2, 43320, Note_off_c, 0, 67, 64
2, 43320, Note_on_c, 0, 62, 64
2, 43440, Note_off_c, 0, 62, 64
2, 43440, Note_on_c, 0, 67, 64
2, 43560, Note_off_c, 0, 67, 64
2, 43560, Note_on_c, 0, 69, 64
2, 43680, Note_off_c, 0, 69, 64
2, 43680, Note_on_c, 0, 70, 64
2, 43800, Note_off_c, 0, 70, 64
2, 43800, Note_on_c, 0, 67, 64
2, 43920, Note_off_c, 0, 67, 64
2, 43920, Note_on_c, 0, 70, 64
2, 44040, Note_off_c, 0, 70, 64
2, 44040, Note_on_c, 0, 72, 64
2, 44160, Note_off_c, 0, 72, 64
2, 44160, Note_on_c, 0, 74, 64
2, 45240, Note_off_c, 0, 74, 64
2, 45240, Note_on_c, 0, 72, 64
2, 45360, Note_off_c, 0, 72, 64
2, 45360, Note_on_c, 0, 70, 64
2, 45480, Note_off_c, 0, 70, 64
2, 45480, Note_on_c, 0, 69, 64
2, 45600, Note_off_c, 0, 69, 64
2, 45600, Note_on_c, 0, 67, 64
2, 45840, Note_off_c, 0, 67, 64
2, 46320, Note_on_c, 0, 86, 64
2, 46800, Note_off_c, 0, 86, 64
2, 46800, Note_on_c, 0, 85, 64
2, 47040, Note_off_c, 0, 85, 64
2, 47040, Note_on_c, 0, 86, 64
2, 47280, Note_off_c, 0, 86, 64
2, 47280, Note_on_c, 0, 81, 64
2, 47520, Note_off_c, 0, 81, 64
2, 47520, Note_on_c, 0, 82, 64
2, 48240, Note_off_c, 0, 82, 64
2, 48240, Note_on_c, 0, 81, 64
2, 48480, Note_off_c, 0, 81, 64
2, 48720, Note_on_c, 0, 80, 64
2, 49200, Note_off_c, 0, 80, 64
2, 49200, Note_on_c, 0, 79, 64
2, 49440, Note_off_c, 0, 79, 64
2, 49680, Note_on_c, 0, 79, 64
2, 50160, Note_off_c, 0, 79, 64
2, 50160, Note_on_c, 0, 78, 64
2, 50400, Note_off_c, 0, 78, 64
2, 50520, Note_on_c, 0, 74, 64
2, 50640, Note_off_c, 0, 74, 64
2, 50640, Note_on_c, 0, 75, 64
2, 50760, Note_off_c, 0, 75, 64
2, 50760, Note_on_c, 0, 79, 64
2, 50880, Note_off_c, 0, 79, 64
2, 50880, Note_on_c, 0, 84, 64
2, 51000, Note_off_c, 0, 84, 64
2, 51000, Note_on_c, 0, 81, 64
2, 51120, Note_off_c, 0, 81, 64
2, 51120, Note_on_c, 0, 78, 64
2, 51240, Note_off_c, 0, 78, 64
2, 51240, Note_on_c, 0, 84, 64
2, 51360, Note_off_c, 0, 84, 64
2, 51360, Note_on_c, 0, 82, 64
2, 51480, Note_off_c, 0, 82, 64
2, 51480, Note_on_c, 0, 79, 64
2, 51600, Note_off_c, 0, 79, 64
2, 51600, Note_on_c, 0, 81, 64
2, 51720, Note_off_c, 0, 81, 64
2, 51720, Note_on_c, 0, 78, 64
2, 51840, Note_off_c, 0, 78, 64
2, 51840, Note_on_c, 0, 79, 64
2, 51960, Note_off_c, 0, 79, 64
2, 51960, Note_on_c, 0, 74, 64
2, 52080, Note_off_c, 0, 74, 64
2, 52080, Note_on_c, 0, 79, 64
2, 52560, Note_off_c, 0, 79, 64
2, 52560, Note_on_c, 0, 78, 64
2, 52800, Note_off_c, 0, 78, 64
2, 52800, Note_on_c, 0, 79, 64
2, 53280, Note_off_c, 0, 79, 64
2, 53520, Note_on_c, 0, 67, 64
2, 54000, Note_off_c, 0, 67, 64
2, 54000, Note_on_c, 0, 65, 64
2, 54240, Note_off_c, 0, 65, 64
2, 54480, Note_on_c, 0, 70, 64
2, 54840, Note_off_c, 0, 70, 64
2, 54840, Note_on_c, 0, 68, 64
2, 54960, Note_off_c, 0, 68, 64
2, 54960, Note_on_c, 0, 70, 64
2, 55080, Note_off_c, 0, 70, 64
2, 55080, Note_on_c, 0, 79, 64
2, 55200, Note_off_c, 0, 79, 64
2, 55200, Note_on_c, 0, 79, 64
2, 55320, Note_off_c, 0, 79, 64
2, 55320, Note_on_c, 0, 77, 64
2, 55440, Note_off_c, 0, 77, 64
2, 55440, Note_on_c, 0, 79, 64
2, 55560, Note_off_c, 0, 79, 64
2, 55560, Note_on_c, 0, 70, 64
2, 55680, Note_off_c, 0, 70, 64
2, 55680, Note_on_c, 0, 70, 64
2, 55920, Note_off_c, 0, 70, 64
2, 55920, Note_on_c, 0, 68, 64
2, 56160, Note_off_c, 0, 68, 64
2, 56400, Note_on_c, 0, 77, 64
2, 56760, Note_off_c, 0, 77, 64
2, 56760, Note_on_c, 0, 75, 64
2, 56880, Note_off_c, 0, 75, 64
2, 56880, Note_on_c, 0, 77, 64
2, 57000, Note_off_c, 0, 77, 64
2, 57000, Note_on_c, 0, 86, 64
2, 57120, Note_off_c, 0, 86, 64
2, 57120, Note_on_c, 0, 86, 64
2, 57240, Note_off_c, 0, 86, 64
2, 57240, Note_on_c, 0, 84, 64
2, 57360, Note_off_c, 0, 84, 64
2, 57360, Note_on_c, 0, 86, 64
2, 57480, Note_off_c, 0, 86, 64
2, 57480, Note_on_c, 0, 77, 64
2, 57600, Note_off_c, 0, 77, 64
2, 57600, Note_on_c, 0, 75, 64
2, 57720, Note_off_c, 0, 75, 64
2, 57720, Note_on_c, 0, 74, 64
2, 57840, Note_off_c, 0, 74, 64
2, 57840, Note_on_c, 0, 75, 64
2, 57960, Note_off_c, 0, 75, 64
2, 57960, Note_on_c, 0, 84, 64
2, 58080, Note_off_c, 0, 84, 64
2, 58080, Note_on_c, 0, 84, 64
2, 58200, Note_off_c, 0, 84, 64
2, 58200, Note_on_c, 0, 83, 64
2, 58320, Note_off_c, 0, 83, 64
2, 58320, Note_on_c, 0, 84, 64
2, 58440, Note_off_c, 0, 84, 64
2, 58440, Note_on_c, 0, 75, 64
2, 58560, Note_off_c, 0, 75, 64
2, 58560, Note_on_c, 0, 73, 64
2, 58680, Note_off_c, 0, 73, 64
2, 58680, Note_on_c, 0, 72, 64
2, 58800, Note_off_c, 0, 72, 64
2, 58800, Note_on_c, 0, 73, 64
2, 58920, Note_off_c, 0, 73, 64
2, 58920, Note_on_c, 0, 82, 64
2, 59040, Note_off_c, 0, 82, 64
2, 59040, Note_on_c, 0, 82, 64
2, 59160, Note_off_c, 0, 82, 64
2, 59160, Note_on_c, 0, 80, 64
2, 59280, Note_off_c, 0, 80, 64
2, 59280, Note_on_c, 0, 82, 64
2, 59400, Note_off_c, 0, 82, 64
2, 59400, Note_on_c, 0, 73, 64
2, 59520, Note_off_c, 0, 73, 64
2, 59520, Note_on_c, 0, 72, 64
2, 59640, Note_off_c, 0, 72, 64
2, 59640, Note_on_c, 0, 70, 64
2, 59760, Note_off_c, 0, 70, 64
2, 59760, Note_on_c, 0, 72, 64
2, 59880, Note_off_c, 0, 72, 64
2, 59880, Note_on_c, 0, 80, 64
2, 60000, Note_off_c, 0, 80, 64
2, 60000, Note_on_c, 0, 80, 64
2, 60120, Note_off_c, 0, 80, 64
2, 60120, Note_on_c, 0, 79, 64
2, 60240, Note_off_c, 0, 79, 64
2, 60240, Note_on_c, 0, 80, 64
2, 60360, Note_off_c, 0, 80, 64
2, 60360, Note_on_c, 0, 72, 64
2, 60480, Note_off_c, 0, 72, 64
2, 60480, Note_on_c, 0, 70, 64
2, 60600, Note_off_c, 0, 70, 64
2, 60600, Note_on_c, 0, 68, 64
2, 60720, Note_off_c, 0, 68, 64
2, 60720, Note_on_c, 0, 70, 64
2, 60840, Note_off_c, 0, 70, 64
2, 60840, Note_on_c, 0, 79, 64
2, 60960, Note_off_c, 0, 79, 64
2, 60960, Note_on_c, 0, 79, 64
2, 61080, Note_off_c, 0, 79, 64
2, 61080, Note_on_c, 0, 77, 64
2, 61200, Note_off_c, 0, 77, 64
2, 61200, Note_on_c, 0, 79, 64
2, 61320, Note_off_c, 0, 79, 64
2, 61320, Note_on_c, 0, 70, 64
2, 61440, Note_off_c, 0, 70, 64
2, 61440, Note_on_c, 0, 70, 64
2, 61680, Note_off_c, 0, 70, 64
2, 61680, Note_on_c, 0, 68, 64
2, 61920, Note_off_c, 0, 68, 64
2, 62160, Note_on_c, 0, 77, 64
2, 62640, Note_off_c, 0, 77, 64
2, 62640, Note_on_c, 0, 75, 64
2, 62880, Note_off_c, 0, 75, 64
2, 63120, Note_on_c, 0, 75, 64
2, 63600, Note_off_c, 0, 75, 64
2, 63600, Note_on_c, 0, 74, 64
2, 63840, Note_off_c, 0, 74, 64
2, 64080, Note_on_c, 0, 67, 64
2, 64320, Note_off_c, 0, 67, 64
2, 64320, Note_on_c, 0, 72, 64
2, 64680, Note_off_c, 0, 72, 64
2, 64680, Note_on_c, 0, 74, 64
2, 64740, Note_off_c, 0, 74, 64
2, 64740, Note_on_c, 0, 75, 64
2, 64800, Note_off_c, 0, 75, 64
2, 64800, Note_on_c, 0, 74, 64
2, 65160, Note_off_c, 0, 74, 64
2, 65160, Note_on_c, 0, 75, 64
2, 65220, Note_off_c, 0, 75, 64
2, 65220, Note_on_c, 0, 77, 64
2, 65280, Note_off_c, 0, 77, 64
2, 65280, Note_on_c, 0, 75, 64
2, 65400, Note_off_c, 0, 75, 64
2, 65400, Note_on_c, 0, 74, 64
2, 65520, Note_off_c, 0, 74, 64
2, 65520, Note_on_c, 0, 72, 64
2, 65640, Note_off_c, 0, 72, 64
2, 65640, Note_on_c, 0, 71, 64
2, 65760, Note_off_c, 0, 71, 64
2, 65760, Note_on_c, 0, 72, 64
2, 65880, Note_off_c, 0, 72, 64
2, 65880, Note_on_c, 0, 79, 64
2, 66000, Note_off_c, 0, 79, 64
2, 66000, Note_on_c, 0, 75, 64
2, 66120, Note_off_c, 0, 75, 64
2, 66120, Note_on_c, 0, 72, 64
2, 66240, Note_off_c, 0, 72, 64
2, 66240, Note_on_c, 0, 71, 64
2, 66360, Note_off_c, 0, 71, 64
2, 66360, Note_on_c, 0, 67, 64
2, 66480, Note_off_c, 0, 67, 64
2, 66480, Note_on_c, 0, 71, 64
2, 66600, Note_off_c, 0, 71, 64
2, 66600, Note_on_c, 0, 74, 64
2, 66720, Note_off_c, 0, 74, 64
2, 66720, Note_on_c, 0, 72, 64
2, 66840, Note_off_c, 0, 72, 64
2, 66840, Note_on_c, 0, 71, 64
2, 66960, Note_off_c, 0, 71, 64
2, 66960, Note_on_c, 0, 72, 64
2, 67080, Note_off_c, 0, 72, 64
2, 67080, Note_on_c, 0, 75, 64
2, 67200, Note_off_c, 0, 75, 64
2, 67200, Note_on_c, 0, 74, 64
2, 67320, Note_off_c, 0, 74, 64
2, 67320, Note_on_c, 0, 72, 64
2, 67440, Note_off_c, 0, 72, 64
2, 67440, Note_on_c, 0, 71, 64
2, 67560, Note_off_c, 0, 71, 64
2, 67560, Note_on_c, 0, 69, 64
2, 67680, Note_off_c, 0, 69, 64
2, 67680, Note_on_c, 0, 67, 64
2, 67800, Note_off_c, 0, 67, 64
2, 67800, Note_on_c, 0, 74, 64
2, 67920, Note_off_c, 0, 74, 64
2, 67920, Note_on_c, 0, 75, 64
2, 68040, Note_off_c, 0, 75, 64
2, 68040, Note_on_c, 0, 71, 64
2, 68160, Note_off_c, 0, 71, 64
2, 68160, Note_on_c, 0, 72, 64
2, 68280, Note_off_c, 0, 72, 64
2, 68280, Note_on_c, 0, 71, 64
2, 68400, Note_off_c, 0, 71, 64
2, 68400, Note_on_c, 0, 72, 64
2, 68520, Note_off_c, 0, 72, 64
2, 68520, Note_on_c, 0, 80, 64
2, 68640, Note_off_c, 0, 80, 64
2, 68640, Note_on_c, 0, 80, 64
2, 68760, Note_off_c, 0, 80, 64
2, 68760, Note_on_c, 0, 79, 64
2, 68880, Note_off_c, 0, 79, 64
2, 68880, Note_on_c, 0, 80, 64
2, 69000, Note_off_c, 0, 80, 64
2, 69000, Note_on_c, 0, 70, 64
2, 69120, Note_off_c, 0, 70, 64
2, 69120, Note_on_c, 0, 70, 64
2, 69240, Note_off_c, 0, 70, 64
2, 69240, Note_on_c, 0, 69, 64
2, 69360, Note_off_c, 0, 69, 64
2, 69360, Note_on_c, 0, 70, 64
2, 69480, Note_off_c, 0, 70, 64
2, 69480, Note_on_c, 0, 79, 64
2, 69600, Note_off_c, 0, 79, 64
2, 69600, Note_on_c, 0, 79, 64
2, 69720, Note_off_c, 0, 79, 64
2, 69720, Note_on_c, 0, 77, 64
2, 69840, Note_off_c, 0, 77, 64
2, 69840, Note_on_c, 0, 79, 64
2, 69960, Note_off_c, 0, 79, 64
2, 69960, Note_on_c, 0, 68, 64
2, 70080, Note_off_c, 0, 68, 64
2, 70080, Note_on_c, 0, 68, 64
2, 70200, Note_off_c, 0, 68, 64
2, 70200, Note_on_c, 0, 67, 64
2, 70320, Note_off_c, 0, 67, 64
2, 70320, Note_on_c, 0, 68, 64
2, 70440, Note_off_c, 0, 68, 64
2, 70440, Note_on_c, 0, 77, 64
2, 70560, Note_off_c, 0, 77, 64
2, 70560, Note_on_c, 0, 77, 64
2, 70680, Note_off_c, 0, 77, 64
2, 70680, Note_on_c, 0, 76, 64
2, 70800, Note_off_c, 0, 76, 64
2, 70800, Note_on_c, 0, 77, 64
2, 70920, Note_off_c, 0, 77, 64
2, 70920, Note_on_c, 0, 68, 64
2, 71040, Note_off_c, 0, 68, 64
2, 71040, Note_on_c, 0, 68, 64
2, 71280, Note_off_c, 0, 68, 64
2, 71280, Note_on_c, 0, 67, 64
2, 71520, Note_off_c, 0, 67, 64
2, 71760, Note_on_c, 0, 67, 64
2, 72000, Note_off_c, 0, 67, 64
2, 72000, Note_on_c, 0, 80, 64
2, 72060, Note_off_c, 0, 80, 64
2, 72060, Note_on_c, 0, 79, 64
2, 72120, Note_off_c, 0, 79, 64
2, 72120, Note_on_c, 0, 80, 64
2, 72180, Note_off_c, 0, 80, 64
2, 72180, Note_on_c, 0, 79, 64
2, 72240, Note_off_c, 0, 79, 64
2, 72240, Note_on_c, 0, 80, 64
2, 72300, Note_off_c, 0, 80, 64
2, 72300, Note_on_c, 0, 79, 64
2, 72360, Note_off_c, 0, 79, 64
2, 72360, Note_on_c, 0, 77, 64
2, 72420, Note_off_c, 0, 77, 64
2, 72420, Note_on_c, 0, 75, 64
2, 72480, Note_off_c, 0, 75, 64
2, 72480, Note_on_c, 0, 79, 64
2, 72540, Note_off_c, 0, 79, 64
2, 72540, Note_on_c, 0, 77, 64
2, 72600, Note_off_c, 0, 77, 64
2, 72600, Note_on_c, 0, 79, 64
2, 72660, Note_off_c, 0, 79, 64
2, 72660, Note_on_c, 0, 77, 64
2, 72720, Note_off_c, 0, 77, 64
2, 72720, Note_on_c, 0, 79, 64
2, 72780, Note_off_c, 0, 79, 64
2, 72780, Note_on_c, 0, 77, 64
2, 72840, Note_off_c, 0, 77, 64
2, 72840, Note_on_c, 0, 75, 64
2, 72900, Note_off_c, 0, 75, 64
2, 72900, Note_on_c, 0, 74, 64
2, 72960, Note_off_c, 0, 74, 64
2, 72960, Note_on_c, 0, 75, 64
2, 73080, Note_off_c, 0, 75, 64
2, 73080, Note_on_c, 0, 77, 64
2, 73200, Note_off_c, 0, 77, 64
2, 73200, Note_on_c, 0, 79, 64
2, 73320, Note_off_c, 0, 79, 64
2, 73320, Note_on_c, 0, 75, 64
2, 73440, Note_off_c, 0, 75, 64
2, 73440, Note_on_c, 0, 72, 64
2, 73920, Note_off_c, 0, 72, 64
2, 74400, Note_on_c, 0, 77, 64
2, 74520, Note_off_c, 0, 77, 64
2, 74520, Note_on_c, 0, 82, 64
2, 74640, Note_off_c, 0, 82, 64
2, 74640, Note_on_c, 0, 87, 64
2, 74760, Note_off_c, 0, 87, 64
2, 74760, Note_on_c, 0, 86, 64
2, 74880, Note_off_c, 0, 86, 64
2, 75360, Note_on_c, 0, 75, 64
2, 75480, Note_off_c, 0, 75, 64
2, 75480, Note_on_c, 0, 79, 64
2, 75600, Note_off_c, 0, 79, 64
2, 75600, Note_on_c, 0, 86, 64
2, 75720, Note_off_c, 0, 86, 64
2, 75720, Note_on_c, 0, 84, 64
2, 75840, Note_off_c, 0, 84, 64
2, 76320, Note_on_c, 0, 74, 64
2, 76440, Note_off_c, 0, 74, 64
2, 76440, Note_on_c, 0, 77, 64
2, 76560, Note_off_c, 0, 77, 64
2, 76560, Note_on_c, 0, 84, 64
2, 76680, Note_off_c, 0, 84, 64
2, 76680, Note_on_c, 0, 83, 64
2, 76800, Note_off_c, 0, 83, 64
2, 77400, Note_on_c, 0, 72, 64
2, 77520, Note_off_c, 0, 72, 64
2, 77520, Note_on_c, 0, 74, 64
2, 77640, Note_off_c, 0, 74, 64
2, 77640, Note_on_c, 0, 75, 64
2, 77760, Note_off_c, 0, 75, 64
2, 77760, Note_on_c, 0, 65, 64
2, 77880, Note_off_c, 0, 65, 64
2, 77880, Note_on_c, 0, 68, 64
2, 78000, Note_off_c, 0, 68, 64
2, 78000, Note_on_c, 0, 75, 64
2, 78120, Note_off_c, 0, 75, 64
2, 78120, Note_on_c, 0, 74, 64
2, 78240, Note_off_c, 0, 74, 64
2, 78240, Note_on_c, 0, 67, 64
2, 78360, Note_off_c, 0, 67, 64
2, 78360, Note_on_c, 0, 70, 64
2, 78480, Note_off_c, 0, 70, 64
2, 78480, Note_on_c, 0, 77, 64
2, 78600, Note_off_c, 0, 77, 64
2, 78600, Note_on_c, 0, 76, 64
2, 78720, Note_off_c, 0, 76, 64
2, 78720, Note_on_c, 0, 77, 64
2, 78840, Note_off_c, 0, 77, 64
2, 78840, Note_on_c, 0, 79, 64
2, 78960, Note_off_c, 0, 79, 64
2, 78960, Note_on_c, 0, 80, 64
2, 79080, Note_off_c, 0, 80, 64
2, 79080, Note_on_c, 0, 77, 64
2, 79200, Note_off_c, 0, 77, 64
2, 79200, Note_on_c, 0, 72, 64
2, 79320, Note_off_c, 0, 72, 64
2, 79320, Note_on_c, 0, 74, 64
2, 79440, Note_off_c, 0, 74, 64
2, 79440, Note_on_c, 0, 75, 64
2, 79560, Note_off_c, 0, 75, 64
2, 79560, Note_on_c, 0, 72, 64
2, 79680, Note_off_c, 0, 72, 64
2, 79680, Note_on_c, 0, 69, 64
2, 79800, Note_off_c, 0, 69, 64
2, 79800, Note_on_c, 0, 72, 64
2, 79920, Note_off_c, 0, 72, 64
2, 79920, Note_on_c, 0, 75, 64
2, 80040, Note_off_c, 0, 75, 64
2, 80040, Note_on_c, 0, 74, 64
2, 80160, Note_off_c, 0, 74, 64
2, 80160, Note_on_c, 0, 72, 64
2, 80280, Note_off_c, 0, 72, 64
2, 80280, Note_on_c, 0, 75, 64
2, 80400, Note_off_c, 0, 75, 64
2, 80400, Note_on_c, 0, 79, 64
2, 80520, Note_off_c, 0, 79, 64
2, 80520, Note_on_c, 0, 78, 64
2, 80640, Note_off_c, 0, 78, 64
2, 80640, Note_on_c, 0, 79, 64
2, 80880, Note_off_c, 0, 79, 64
2, 80880, Note_on_c, 0, 80, 64
2, 81120, Note_off_c, 0, 80, 64
2, 81360, Note_on_c, 0, 86, 64
2, 81720, Note_off_c, 0, 86, 64
2, 81720, Note_on_c, 0, 87, 64
2, 81840, Note_off_c, 0, 87, 64
2, 81840, Note_on_c, 0, 77, 64
2, 82200, Note_off_c, 0, 77, 64
2, 82200, Note_on_c, 0, 86, 64
2, 82320, Note_off_c, 0, 86, 64
2, 82320, Note_on_c, 0, 75, 64
2, 82680, Note_off_c, 0, 75, 64
2, 82680, Note_on_c, 0, 84, 64
2, 82800, Note_off_c, 0, 84, 64
2, 82800, Note_on_c, 0, 74, 64
2, 83040, Note_off_c, 0, 74, 64
2, 83280, Note_on_c, 0, 83, 64
2, 83520, Note_off_c, 0, 83, 64
2, 83520, Note_on_c, 0, 84, 64
2, 83760, Note_off_c, 0, 84, 64
2, 83760, Note_on_c, 0, 72, 64
2, 84000, Note_off_c, 0, 72, 64
2, 84000, Note_on_c, 0, 67, 64
2, 84240, Note_off_c, 0, 67, 64
2, 84240, Note_on_c, 0, 71, 64
2, 84480, Note_off_c, 0, 71, 64
2, 84480, Note_on_c, 0, 72, 64
2, 84960, Note_off_c, 0, 72, 64
2, 86160, Note_on_c, 0, 70, 64
2, 86400, Note_off_c, 0, 70, 64
2, 86400, Note_on_c, 0, 84, 64
2, 86460, Note_off_c, 0, 84, 64
2, 86460, Note_on_c, 0, 82, 64
2, 86520, Note_off_c, 0, 82, 64
2, 86520, Note_on_c, 0, 84, 64
2, 86580, Note_off_c, 0, 84, 64
2, 86580, Note_on_c, 0, 82, 64
2, 86640, Note_off_c, 0, 82, 64
2, 86640, Note_on_c, 0, 84, 64
2, 86700, Note_off_c, 0, 84, 64
2, 86700, Note_on_c, 0, 82, 64
2, 86760, Note_off_c, 0, 82, 64
2, 86760, Note_on_c, 0, 80, 64
2, 86820, Note_off_c, 0, 80, 64
2, 86820, Note_on_c, 0, 79, 64
2, 86880, Note_off_c, 0, 79, 64
2, 86880, Note_on_c, 0, 82, 64
2, 86940, Note_off_c, 0, 82, 64
2, 86940, Note_on_c, 0, 80, 64
2, 87000, Note_off_c, 0, 80, 64
2, 87000, Note_on_c, 0, 82, 64
2, 87060, Note_off_c, 0, 82, 64
2, 87060, Note_on_c, 0, 80, 64
2, 87120, Note_off_c, 0, 80, 64
2, 87120, Note_on_c, 0, 82, 64
2, 87180, Note_off_c, 0, 82, 64
2, 87180, Note_on_c, 0, 80, 64
2, 87240, Note_off_c, 0, 80, 64
2, 87240, Note_on_c, 0, 79, 64
2, 87300, Note_off_c, 0, 79, 64
2, 87300, Note_on_c, 0, 77, 64
2, 87360, Note_off_c, 0, 77, 64
2, 87360, Note_on_c, 0, 79, 64
2, 87600, Note_off_c, 0, 79, 64
2, 87600, Note_on_c, 0, 70, 64
2, 88080, Note_off_c, 0, 70, 64
2, 88080, Note_on_c, 0, 72, 64
2, 88320, Note_off_c, 0, 72, 64
2, 88320, Note_on_c, 0, 70, 64
2, 88440, Note_off_c, 0, 70, 64
2, 88440, Note_on_c, 0, 68, 64
2, 88560, Note_off_c, 0, 68, 64
2, 88560, Note_on_c, 0, 67, 64
2, 88680, Note_off_c, 0, 67, 64
2, 88680, Note_on_c, 0, 68, 64
2, 88800, Note_off_c, 0, 68, 64
2, 88800, Note_on_c, 0, 65, 64
2, 88920, Note_off_c, 0, 65, 64
2, 88920, Note_on_c, 0, 67, 64
2, 89040, Note_off_c, 0, 67, 64
2, 89040, Note_on_c, 0, 68, 64
2, 89160, Note_off_c, 0, 68, 64
2, 89160, Note_on_c, 0, 70, 64
2, 89280, Note_off_c, 0, 70, 64
2, 89280, Note_on_c, 0, 72, 64
2, 89760, Note_off_c, 0, 72, 64
2, 90000, Note_on_c, 0, 72, 64
2, 90240, Note_off_c, 0, 72, 64
2, 90240, Note_on_c, 0, 85, 64
2, 90300, Note_off_c, 0, 85, 64
2, 90300, Note_on_c, 0, 84, 64
2, 90360, Note_off_c, 0, 84, 64
2, 90360, Note_on_c, 0, 85, 64
2, 90420, Note_off_c, 0, 85, 64
2, 90420, Note_on_c, 0, 84, 64
2, 90480, Note_off_c, 0, 84, 64
2, 90480, Note_on_c, 0, 85, 64
2, 90540, Note_off_c, 0, 85, 64
2, 90540, Note_on_c, 0, 84, 64
2, 90600, Note_off_c, 0, 84, 64
2, 90600, Note_on_c, 0, 82, 64
2, 90660, Note_off_c, 0, 82, 64
2, 90660, Note_on_c, 0, 80, 64
2, 90720, Note_off_c, 0, 80, 64
2, 90720, Note_on_c, 0, 84, 64
2, 90780, Note_off_c, 0, 84, 64
2, 90780, Note_on_c, 0, 82, 64
2, 90840, Note_off_c, 0, 82, 64
2, 90840, Note_on_c, 0, 84, 64
2, 90900, Note_off_c, 0, 84, 64
2, 90900, Note_on_c, 0, 82, 64
2, 90960, Note_off_c, 0, 82, 64
2, 90960, Note_on_c, 0, 84, 64
2, 91020, Note_off_c, 0, 84, 64
2, 91020, Note_on_c, 0, 82, 64
2, 91080, Note_off_c, 0, 82, 64
2, 91080, Note_on_c, 0, 80, 64
2, 91140, Note_off_c, 0, 80, 64
2, 91140, Note_on_c, 0, 79, 64
2, 91200, Note_off_c, 0, 79, 64
2, 91200, Note_on_c, 0, 80, 64
2, 91440, Note_off_c, 0, 80, 64
2, 91440, Note_on_c, 0, 72, 64
2, 91920, Note_off_c, 0, 72, 64
2, 91920, Note_on_c, 0, 73, 64
2, 92160, Note_off_c, 0, 73, 64
2, 92160, Note_on_c, 0, 72, 64
2, 92280, Note_off_c, 0, 72, 64
2, 92280, Note_on_c, 0, 70, 64
2, 92400, Note_off_c, 0, 70, 64
2, 92400, Note_on_c, 0, 68, 64
2, 92520, Note_off_c, 0, 68, 64
2, 92520, Note_on_c, 0, 70, 64
2, 92640, Note_off_c, 0, 70, 64
2, 92640, Note_on_c, 0, 67, 64
2, 92760, Note_off_c, 0, 67, 64
2, 92760, Note_on_c, 0, 68, 64
2, 92880, Note_off_c, 0, 68, 64
2, 92880, Note_on_c, 0, 70, 64
2, 93000, Note_off_c, 0, 70, 64
2, 93000, Note_on_c, 0, 72, 64
2, 93120, Note_off_c, 0, 72, 64
2, 93120, Note_on_c, 0, 73, 64
2, 93240, Note_off_c, 0, 73, 64
2, 93240, Note_on_c, 0, 72, 64
2, 93360, Note_off_c, 0, 72, 64
2, 93360, Note_on_c, 0, 73, 64
2, 93480, Note_off_c, 0, 73, 64
2, 93480, Note_on_c, 0, 82, 64
2, 93600, Note_off_c, 0, 82, 64
2, 93600, Note_on_c, 0, 82, 64
2, 93720, Note_off_c, 0, 82, 64
2, 93720, Note_on_c, 0, 80, 64
2, 93840, Note_off_c, 0, 80, 64
2, 93840, Note_on_c, 0, 82, 64
2, 93960, Note_off_c, 0, 82, 64
2, 93960, Note_on_c, 0, 73, 64
2, 94080, Note_off_c, 0, 73, 64
2, 94080, Note_on_c, 0, 72, 64
2, 94200, Note_off_c, 0, 72, 64
2, 94200, Note_on_c, 0, 70, 64
2, 94320, Note_off_c, 0, 70, 64
2, 94320, Note_on_c, 0, 72, 64
2, 94440, Note_off_c, 0, 72, 64
2, 94440, Note_on_c, 0, 80, 64
2, 94560, Note_off_c, 0, 80, 64
2, 94560, Note_on_c, 0, 80, 64
2, 94680, Note_off_c, 0, 80, 64
2, 94680, Note_on_c, 0, 79, 64
2, 94800, Note_off_c, 0, 79, 64
2, 94800, Note_on_c, 0, 80, 64
2, 94920, Note_off_c, 0, 80, 64
2, 94920, Note_on_c, 0, 72, 64
2, 95040, Note_off_c, 0, 72, 64
2, 95040, Note_on_c, 0, 70, 64
2, 95160, Note_off_c, 0, 70, 64
2, 95160, Note_on_c, 0, 68, 64
2, 95280, Note_off_c, 0, 68, 64
2, 95280, Note_on_c, 0, 70, 64
2, 95400, Note_off_c, 0, 70, 64
2, 95400, Note_on_c, 0, 79, 64
2, 95520, Note_off_c, 0, 79, 64
2, 95520, Note_on_c, 0, 79, 64
2, 95640, Note_off_c, 0, 79, 64
2, 95640, Note_on_c, 0, 77, 64
2, 95760, Note_off_c, 0, 77, 64
2, 95760, Note_on_c, 0, 79, 64
2, 95880, Note_off_c, 0, 79, 64
2, 95880, Note_on_c, 0, 70, 64
2, 96000, Note_off_c, 0, 70, 64
2, 96000, Note_on_c, 0, 68, 64
2, 96120, Note_off_c, 0, 68, 64
2, 96120, Note_on_c, 0, 67, 64
2, 96240, Note_off_c, 0, 67, 64
2, 96240, Note_on_c, 0, 65, 64
2, 96480, Note_off_c, 0, 65, 64
2, 96720, Note_on_c, 0, 69, 64
2, 96840, Note_off_c, 0, 69, 64
2, 96840, Note_on_c, 0, 70, 64
2, 96960, Note_off_c, 0, 70, 64
2, 96960, Note_on_c, 0, 72, 64
2, 97080, Note_off_c, 0, 72, 64
2, 97080, Note_on_c, 0, 70, 64
2, 97200, Note_off_c, 0, 70, 64
2, 97200, Note_on_c, 0, 72, 64
2, 97320, Note_off_c, 0, 72, 64
2, 97320, Note_on_c, 0, 81, 64
2, 97440, Note_off_c, 0, 81, 64
2, 97440, Note_on_c, 0, 81, 64
2, 97560, Note_off_c, 0, 81, 64
2, 97560, Note_on_c, 0, 79, 64
2, 97680, Note_off_c, 0, 79, 64
2, 97680, Note_on_c, 0, 81, 64
2, 97800, Note_off_c, 0, 81, 64
2, 97800, Note_on_c, 0, 72, 64
2, 97920, Note_off_c, 0, 72, 64
2, 97920, Note_on_c, 0, 70, 64
2, 98040, Note_off_c, 0, 70, 64
2, 98040, Note_on_c, 0, 69, 64
2, 98160, Note_off_c, 0, 69, 64
2, 98160, Note_on_c, 0, 70, 64
2, 98280, Note_off_c, 0, 70, 64
2, 98280, Note_on_c, 0, 79, 64
2, 98400, Note_off_c, 0, 79, 64
2, 98400, Note_on_c, 0, 79, 64
2, 98520, Note_off_c, 0, 79, 64
2, 98520, Note_on_c, 0, 78, 64
2, 98640, Note_off_c, 0, 78, 64
2, 98640, Note_on_c, 0, 79, 64
2, 98760, Note_off_c, 0, 79, 64
2, 98760, Note_on_c, 0, 70, 64
2, 98880, Note_off_c, 0, 70, 64
2, 98880, Note_on_c, 0, 69, 64
2, 99000, Note_off_c, 0, 69, 64
2, 99000, Note_on_c, 0, 67, 64
2, 99120, Note_off_c, 0, 67, 64
2, 99120, Note_on_c, 0, 69, 64
2, 99240, Note_off_c, 0, 69, 64
2, 99240, Note_on_c, 0, 78, 64
2, 99360, Note_off_c, 0, 78, 64
2, 99360, Note_on_c, 0, 78, 64
2, 99480, Note_off_c, 0, 78, 64
2, 99480, Note_on_c, 0, 76, 64
2, 99600, Note_off_c, 0, 76, 64
2, 99600, Note_on_c, 0, 78, 64
2, 99720, Note_off_c, 0, 78, 64
2, 99720, Note_on_c, 0, 69, 64
2, 99840, Note_off_c, 0, 69, 64
2, 99840, Note_on_c, 0, 67, 64
2, 100320, Note_off_c, 0, 67, 64
2, 100560, Note_on_c, 0, 75, 64
2, 101040, Note_off_c, 0, 75, 64
2, 101040, Note_on_c, 0, 74, 64
2, 101280, Note_off_c, 0, 74, 64
2, 101520, Note_on_c, 0, 74, 64
2, 102000, Note_off_c, 0, 74, 64
2, 102000, Note_on_c, 0, 72, 64
2, 102240, Note_off_c, 0, 72, 64
2, 102480, Note_on_c, 0, 72, 64
2, 102840, Note_off_c, 0, 72, 64
2, 102840, Note_on_c, 0, 75, 64
2, 102960, Note_off_c, 0, 75, 64
2, 102960, Note_on_c, 0, 82, 64
2, 103080, Note_off_c, 0, 82, 64
2, 103080, Note_on_c, 0, 81, 64
2, 103200, Note_off_c, 0, 81, 64
2, 103200, Note_on_c, 0, 69, 64
2, 103320, Note_off_c, 0, 69, 64
2, 103320, Note_on_c, 0, 72, 64
2, 103440, Note_off_c, 0, 72, 64
2, 103440, Note_on_c, 0, 75, 64
2, 103560, Note_off_c, 0, 75, 64
2, 103560, Note_on_c, 0, 74, 64
2, 103680, Note_off_c, 0, 74, 64
2, 103680, Note_on_c, 0, 70, 64
2, 103800, Note_off_c, 0, 70, 64
2, 103800, Note_on_c, 0, 74, 64
2, 103920, Note_off_c, 0, 74, 64
2, 103920, Note_on_c, 0, 81, 64
2, 104040, Note_off_c, 0, 81, 64
2, 104040, Note_on_c, 0, 79, 64
2, 104160, Note_off_c, 0, 79, 64
2, 104160, Note_on_c, 0, 67, 64
2, 104280, Note_off_c, 0, 67, 64
2, 104280, Note_on_c, 0, 70, 64
2, 104400, Note_off_c, 0, 70, 64
2, 104400, Note_on_c, 0, 74, 64
2, 104520, Note_off_c, 0, 74, 64
2, 104520, Note_on_c, 0, 72, 64
2, 104640, Note_off_c, 0, 72, 64
2, 104640, Note_on_c, 0, 69, 64
2, 104760, Note_off_c, 0, 69, 64
2, 104760, Note_on_c, 0, 72, 64
2, 104880, Note_off_c, 0, 72, 64
2, 104880, Note_on_c, 0, 79, 64
2, 105000, Note_off_c, 0, 79, 64
2, 105000, Note_on_c, 0, 78, 64
2, 105120, Note_off_c, 0, 78, 64
2, 105120, Note_on_c, 0, 66, 64
2, 105240, Note_off_c, 0, 66, 64
2, 105240, Note_on_c, 0, 69, 64
2, 105360, Note_off_c, 0, 69, 64
2, 105360, Note_on_c, 0, 72, 64
2, 105480, Note_off_c, 0, 72, 64
2, 105480, Note_on_c, 0, 70, 64
2, 105600, Note_off_c, 0, 70, 64
2, 105600, Note_on_c, 0, 67, 64
2, 105720, Note_off_c, 0, 67, 64
2, 105720, Note_on_c, 0, 70, 64
2, 105840, Note_off_c, 0, 70, 64
2, 105840, Note_on_c, 0, 74, 64
2, 105960, Note_off_c, 0, 74, 64
2, 105960, Note_on_c, 0, 75, 64
2, 106080, Note_off_c, 0, 75, 64
2, 106080, Note_on_c, 0, 69, 64
2, 106200, Note_off_c, 0, 69, 64
2, 106200, Note_on_c, 0, 72, 64
2, 106320, Note_off_c, 0, 72, 64
2, 106320, Note_on_c, 0, 79, 64
2, 106440, Note_off_c, 0, 79, 64
2, 106440, Note_on_c, 0, 78, 64
2, 106560, Note_off_c, 0, 78, 64
2, 106560, Note_on_c, 0, 70, 64
2, 106680, Note_off_c, 0, 70, 64
2, 106680, Note_on_c, 0, 74, 64
2, 106800, Note_off_c, 0, 74, 64
2, 106800, Note_on_c, 0, 78, 64
2, 106920, Note_off_c, 0, 78, 64
2, 106920, Note_on_c, 0, 79, 64
2, 107040, Note_off_c, 0, 79, 64
2, 107040, Note_on_c, 0, 72, 64
2, 107160, Note_off_c, 0, 72, 64
2, 107160, Note_on_c, 0, 75, 64
2, 107280, Note_off_c, 0, 75, 64
2, 107280, Note_on_c, 0, 82, 64
2, 107400, Note_off_c, 0, 82, 64
2, 107400, Note_on_c, 0, 81, 64
2, 107520, Note_off_c, 0, 81, 64
2, 107520, Note_on_c, 0, 81, 64
2, 108600, Note_off_c, 0, 81, 64
2, 108600, Note_on_c, 0, 78, 64
2, 108720, Note_off_c, 0, 78, 64
2, 108720, Note_on_c, 0, 79, 64
2, 108960, Note_off_c, 0, 79, 64
2, 109200, Note_on_c, 0, 86, 64
2, 109440, Note_off_c, 0, 86, 64
2, 109440, Note_on_c, 0, 74, 64
2, 109800, Note_off_c, 0, 74, 64
2, 109800, Note_on_c, 0, 76, 64
2, 109860, Note_off_c, 0, 76, 64
2, 109860, Note_on_c, 0, 77, 64
2, 109920, Note_off_c, 0, 77, 64
2, 109920, Note_on_c, 0, 76, 64
2, 110280, Note_off_c, 0, 76, 64
2, 110280, Note_on_c, 0, 77, 64
2, 110340, Note_off_c, 0, 77, 64
2, 110340, Note_on_c, 0, 79, 64
2, 110400, Note_off_c, 0, 79, 64
2, 110400, Note_on_c, 0, 77, 64
2, 110520, Note_off_c, 0, 77, 64
2, 110520, Note_on_c, 0, 72, 64
2, 110640, Note_off_c, 0, 72, 64
2, 110640, Note_on_c, 0, 67, 64
2, 110760, Note_off_c, 0, 67, 64
2, 110760, Note_on_c, 0, 68, 64
2, 110880, Note_off_c, 0, 68, 64
2, 111120, Note_on_c, 0, 84, 64
2, 111360, Note_off_c, 0, 84, 64
2, 111360, Note_on_c, 0, 72, 64
2, 111720, Note_off_c, 0, 72, 64
2, 111720, Note_on_c, 0, 74, 64
2, 111780, Note_off_c, 0, 74, 64
2, 111780, Note_on_c, 0, 75, 64
2, 111840, Note_off_c, 0, 75, 64
2, 111840, Note_on_c, 0, 74, 64
2, 112200, Note_off_c, 0, 74, 64
2, 112200, Note_on_c, 0, 75, 64
2, 112260, Note_off_c, 0, 75, 64
2, 112260, Note_on_c, 0, 77, 64
2, 112320, Note_off_c, 0, 77, 64
2, 112320, Note_on_c, 0, 75, 64
2, 112440, Note_off_c, 0, 75, 64
2, 112440, Note_on_c, 0, 72, 64
2, 112560, Note_off_c, 0, 72, 64
2, 112560, Note_on_c, 0, 75, 64
2, 112680, Note_off_c, 0, 75, 64
2, 112680, Note_on_c, 0, 79, 64
2, 112800, Note_off_c, 0, 79, 64
2, 112800, Note_on_c, 0, 77, 64
2, 112920, Note_off_c, 0, 77, 64
2, 112920, Note_on_c, 0, 72, 64
2, 113040, Note_off_c, 0, 72, 64
2, 113040, Note_on_c, 0, 77, 64
2, 113160, Note_off_c, 0, 77, 64
2, 113160, Note_on_c, 0, 80, 64
2, 113280, Note_off_c, 0, 80, 64
2, 113280, Note_on_c, 0, 79, 64
2, 113760, Note_off_c, 0, 79, 64
2, 114480, Note_on_c, 0, 79, 64
2, 114960, Note_off_c, 0, 79, 64
2, 114960, Note_on_c, 0, 77, 64
2, 115320, Note_off_c, 0, 77, 64
2, 115320, Note_on_c, 0, 75, 64
2, 115440, Note_off_c, 0, 75, 64
2, 115440, Note_on_c, 0, 74, 64
2, 115560, Note_off_c, 0, 74, 64
2, 115560, Note_on_c, 0, 72, 64
2, 115680, Note_off_c, 0, 72, 64
2, 115680, Note_on_c, 0, 71, 64
2, 115800, Note_off_c, 0, 71, 64
2, 115800, Note_on_c, 0, 69, 64
2, 115920, Note_off_c, 0, 69, 64
2, 115920, Note_on_c, 0, 67, 64
2, 116160, Note_off_c, 0, 67, 64
2, 116400, Note_on_c, 0, 75, 64
2, 116880, Note_off_c, 0, 75, 64
2, 116880, Note_on_c, 0, 74, 64
2, 117120, Note_off_c, 0, 74, 64
2, 117360, Note_on_c, 0, 73, 64
2, 117840, Note_off_c, 0, 73, 64
2, 117840, Note_on_c, 0, 72, 64
2, 118080, Note_off_c, 0, 72, 64
2, 118560, Note_on_c, 0, 80, 64
2, 119160, Note_off_c, 0, 80, 64
2, 119160, Note_on_c, 0, 77, 64
2, 119280, Note_off_c, 0, 77, 64
2, 119280, Note_on_c, 0, 84, 64
2, 119400, Note_off_c, 0, 84, 64
2, 119400, Note_on_c, 0, 83, 64
2, 119520, Note_off_c, 0, 83, 64
2, 119640, Note_on_c, 0, 79, 64
2, 119760, Note_off_c, 0, 79, 64
2, 119760, Note_on_c, 0, 71, 64
2, 119880, Note_off_c, 0, 71, 64
2, 119880, Note_on_c, 0, 72, 64
2, 120000, Note_off_c, 0, 72, 64
2, 120720, Note_on_c, 0, 67, 64
2, 120960, Note_off_c, 0, 67, 64
2, 120960, Note_on_c, 0, 74, 64
2, 121020, Note_off_c, 0, 74, 64
2, 121020, Note_on_c, 0, 72, 64
2, 121080, Note_off_c, 0, 72, 64
2, 121080, Note_on_c, 0, 74, 64
2, 121140, Note_off_c, 0, 74, 64
2, 121140, Note_on_c, 0, 72, 64
2, 121200, Note_off_c, 0, 72, 64
2, 121200, Note_on_c, 0, 74, 64
2, 121260, Note_off_c, 0, 74, 64
2, 121260, Note_on_c, 0, 72, 64
2, 121320, Note_off_c, 0, 72, 64
2, 121320, Note_on_c, 0, 70, 64
2, 121380, Note_off_c, 0, 70, 64
2, 121380, Note_on_c, 0, 68, 64
2, 121440, Note_off_c, 0, 68, 64
2, 121440, Note_on_c, 0, 72, 64
2, 121500, Note_off_c, 0, 72, 64
2, 121500, Note_on_c, 0, 70, 64
2, 121560, Note_off_c, 0, 70, 64
2, 121560, Note_on_c, 0, 72, 64
2, 121620, Note_off_c, 0, 72, 64
2, 121620, Note_on_c, 0, 70, 64
2, 121680, Note_off_c, 0, 70, 64
2, 121680, Note_on_c, 0, 72, 64
2, 121740, Note_off_c, 0, 72, 64
2, 121740, Note_on_c, 0, 70, 64
2, 121800, Note_off_c, 0, 70, 64
2, 121800, Note_on_c, 0, 68, 64
2, 121860, Note_off_c, 0, 68, 64
2, 121860, Note_on_c, 0, 67, 64
2, 121920, Note_off_c, 0, 67, 64
2, 121920, Note_on_c, 0, 68, 64
2, 121980, Note_off_c, 0, 68, 64
2, 121980, Note_on_c, 0, 70, 64
2, 122040, Note_off_c, 0, 70, 64
2, 122040, Note_on_c, 0, 72, 64
2, 122400, Note_off_c, 0, 72, 64
2, 122640, Note_on_c, 0, 72, 64
2, 122880, Note_off_c, 0, 72, 64
2, 122880, Note_on_c, 0, 79, 64
2, 122940, Note_off_c, 0, 79, 64
2, 122940, Note_on_c, 0, 77, 64
2, 123000, Note_off_c, 0, 77, 64
2, 123000, Note_on_c, 0, 79, 64
2, 123060, Note_off_c, 0, 79, 64
2, 123060, Note_on_c, 0, 77, 64
2, 123120, Note_off_c, 0, 77, 64
2, 123120, Note_on_c, 0, 79, 64
2, 123180, Note_off_c, 0, 79, 64
2, 123180, Note_on_c, 0, 77, 64
2, 123240, Note_off_c, 0, 77, 64
2, 123240, Note_on_c, 0, 75, 64
2, 123300, Note_off_c, 0, 75, 64
2, 123300, Note_on_c, 0, 74, 64
2, 123360, Note_off_c, 0, 74, 64
2, 123360, Note_on_c, 0, 77, 64
2, 123420, Note_off_c, 0, 77, 64
2, 123420, Note_on_c, 0, 75, 64
2, 123480, Note_off_c, 0, 75, 64
2, 123480, Note_on_c, 0, 77, 64
2, 123540, Note_off_c, 0, 77, 64
2, 123540, Note_on_c, 0, 75, 64
2, 123600, Note_off_c, 0, 75, 64
2, 123600, Note_on_c, 0, 77, 64
2, 123660, Note_off_c, 0, 77, 64
2, 123660, Note_on_c, 0, 75, 64
2, 123720, Note_off_c, 0, 75, 64
2, 123720, Note_on_c, 0, 74, 64
2, 123780, Note_off_c, 0, 74, 64
2, 123780, Note_on_c, 0, 72, 64
2, 123840, Note_off_c, 0, 72, 64
2, 123840, Note_on_c, 0, 74, 64
2, 123900, Note_off_c, 0, 74, 64
2, 123900, Note_on_c, 0, 75, 64
2, 123960, Note_off_c, 0, 75, 64
2, 123960, Note_on_c, 0, 77, 64
2, 124320, Note_off_c, 0, 77, 64
2, 124560, Note_on_c, 0, 77, 64
2, 124800, Note_off_c, 0, 77, 64
2, 124800, Note_on_c, 0, 84, 64
2, 124860, Note_off_c, 0, 84, 64
2, 124860, Note_on_c, 0, 82, 64
2, 124920, Note_off_c, 0, 82, 64
2, 124920, Note_on_c, 0, 84, 64
2, 124980, Note_off_c, 0, 84, 64
2, 124980, Note_on_c, 0, 82, 64
2, 125040, Note_off_c, 0, 82, 64
2, 125040, Note_on_c, 0, 84, 64
2, 125100, Note_off_c, 0, 84, 64
2, 125100, Note_on_c, 0, 82, 64
2, 125160, Note_off_c, 0, 82, 64
2, 125160, Note_on_c, 0, 80, 64
2, 125220, Note_off_c, 0, 80, 64
2, 125220, Note_on_c, 0, 79, 64
2, 125280, Note_off_c, 0, 79, 64
2, 125280, Note_on_c, 0, 82, 64
2, 125340, Note_off_c, 0, 82, 64
2, 125340, Note_on_c, 0, 80, 64
2, 125400, Note_off_c, 0, 80, 64
2, 125400, Note_on_c, 0, 82, 64
2, 125460, Note_off_c, 0, 82, 64
2, 125460, Note_on_c, 0, 80, 64
2, 125520, Note_off_c, 0, 80, 64
2, 125520, Note_on_c, 0, 82, 64
2, 125580, Note_off_c, 0, 82, 64
2, 125580, Note_on_c, 0, 80, 64
2, 125640, Note_off_c, 0, 80, 64
2, 125640, Note_on_c, 0, 79, 64
2, 125700, Note_off_c, 0, 79, 64
2, 125700, Note_on_c, 0, 77, 64
2, 125760, Note_off_c, 0, 77, 64
2, 125760, Note_on_c, 0, 79, 64
2, 125820, Note_off_c, 0, 79, 64
2, 125820, Note_on_c, 0, 80, 64
2, 125880, Note_off_c, 0, 80, 64
2, 125880, Note_on_c, 0, 82, 64
2, 126240, Note_off_c, 0, 82, 64
2, 126480, Note_on_c, 0, 82, 64
2, 126720, Note_off_c, 0, 82, 64
2, 126720, Note_on_c, 0, 89, 64
2, 126780, Note_off_c, 0, 89, 64
2, 126780, Note_on_c, 0, 87, 64
2, 126840, Note_off_c, 0, 87, 64
2, 126840, Note_on_c, 0, 89, 64
2, 126900, Note_off_c, 0, 89, 64
2, 126900, Note_on_c, 0, 87, 64
2, 126960, Note_off_c, 0, 87, 64
2, 126960, Note_on_c, 0, 89, 64
2, 127020, Note_off_c, 0, 89, 64
2, 127020, Note_on_c, 0, 87, 64
2, 127080, Note_off_c, 0, 87, 64
2, 127080, Note_on_c, 0, 85, 64
2, 127140, Note_off_c, 0, 85, 64
2, 127140, Note_on_c, 0, 84, 64
2, 127200, Note_off_c, 0, 84, 64
2, 127200, Note_on_c, 0, 87, 64
2, 127260, Note_off_c, 0, 87, 64
2, 127260, Note_on_c, 0, 85, 64
2, 127320, Note_off_c, 0, 85, 64
2, 127320, Note_on_c, 0, 87, 64
2, 127380, Note_off_c, 0, 87, 64
2, 127380, Note_on_c, 0, 85, 64
2, 127440, Note_off_c, 0, 85, 64
2, 127440, Note_on_c, 0, 87, 64
2, 127500, Note_off_c, 0, 87, 64
2, 127500, Note_on_c, 0, 85, 64
2, 127560, Note_off_c, 0, 85, 64
2, 127560, Note_on_c, 0, 84, 64
2, 127620, Note_off_c, 0, 84, 64
2, 127620, Note_on_c, 0, 82, 64
2, 127680, Note_off_c, 0, 82, 64
2, 127680, Note_on_c, 0, 84, 64
2, 127800, Note_off_c, 0, 84, 64
2, 127800, Note_on_c, 0, 80, 64
2, 127920, Note_off_c, 0, 80, 64
2, 127920, Note_on_c, 0, 74, 64
2, 128040, Note_off_c, 0, 74, 64
2, 128040, Note_on_c, 0, 75, 64
2, 128160, Note_off_c, 0, 75, 64
2, 128160, Note_on_c, 0, 82, 64
2, 128280, Note_off_c, 0, 82, 64
2, 128280, Note_on_c, 0, 79, 64
2, 128400, Note_off_c, 0, 79, 64
2, 128400, Note_on_c, 0, 72, 64
2, 128520, Note_off_c, 0, 72, 64
2, 128520, Note_on_c, 0, 73, 64
2, 128640, Note_off_c, 0, 73, 64
2, 128640, Note_on_c, 0, 72, 64
2, 128760, Note_off_c, 0, 72, 64
2, 128760, Note_on_c, 0, 77, 64
2, 128880, Note_off_c, 0, 77, 64
2, 128880, Note_on_c, 0, 80, 64
2, 129360, Note_off_c, 0, 80, 64
2, 129360, Note_on_c, 0, 79, 64
2, 129600, Note_off_c, 0, 79, 64
2, 129600, Note_on_c, 0, 82, 64
2, 129660, Note_off_c, 0, 82, 64
2, 129660, Note_on_c, 0, 80, 64
2, 129720, Note_off_c, 0, 80, 64
2, 129720, Note_on_c, 0, 82, 64
2, 129780, Note_off_c, 0, 82, 64
2, 129780, Note_on_c, 0, 80, 64
2, 129840, Note_off_c, 0, 80, 64
2, 129840, Note_on_c, 0, 82, 64
2, 129900, Note_off_c, 0, 82, 64
2, 129900, Note_on_c, 0, 80, 64
2, 129960, Note_off_c, 0, 80, 64
2, 129960, Note_on_c, 0, 79, 64
2, 130020, Note_off_c, 0, 79, 64
2, 130020, Note_on_c, 0, 77, 64
2, 130080, Note_off_c, 0, 77, 64
2, 130080, Note_on_c, 0, 80, 64
2, 130140, Note_off_c, 0, 80, 64
2, 130140, Note_on_c, 0, 79, 64
2, 130200, Note_off_c, 0, 79, 64
2, 130200, Note_on_c, 0, 80, 64
2, 130260, Note_off_c, 0, 80, 64
2, 130260, Note_on_c, 0, 79, 64
2, 130320, Note_off_c, 0, 79, 64
2, 130320, Note_on_c, 0, 80, 64
2, 130380, Note_off_c, 0, 80, 64
2, 130380, Note_on_c, 0, 79, 64
2, 130440, Note_off_c, 0, 79, 64
2, 130440, Note_on_c, 0, 77, 64
2, 130500, Note_off_c, 0, 77, 64
2, 130500, Note_on_c, 0, 76, 64
2, 130560, Note_off_c, 0, 76, 64
2, 130560, Note_on_c, 0, 77, 64
2, 130680, Note_off_c, 0, 77, 64
2, 130680, Note_on_c, 0, 72, 64
2, 130800, Note_off_c, 0, 72, 64
2, 130800, Note_on_c, 0, 67, 64
2, 130920, Note_off_c, 0, 67, 64
2, 130920, Note_on_c, 0, 68, 64
2, 131040, Note_off_c, 0, 68, 64
2, 131040, Note_on_c, 0, 77, 64
2, 131640, Note_off_c, 0, 77, 64
2, 131640, Note_on_c, 0, 73, 64
2, 131760, Note_off_c, 0, 73, 64
2, 131760, Note_on_c, 0, 69, 64
2, 131880, Note_off_c, 0, 69, 64
2, 131880, Note_on_c, 0, 70, 64
2, 132000, Note_off_c, 0, 70, 64
2, 132000, Note_on_c, 0, 75, 64
2, 132600, Note_off_c, 0, 75, 64
2, 132600, Note_on_c, 0, 74, 64
2, 132720, Note_off_c, 0, 74, 64
2, 132720, Note_on_c, 0, 75, 64
2, 132840, Note_off_c, 0, 75, 64
2, 132840, Note_on_c, 0, 84, 64
2, 132960, Note_off_c, 0, 84, 64
2, 132960, Note_on_c, 0, 84, 64
2, 133080, Note_off_c, 0, 84, 64
2, 133080, Note_on_c, 0, 82, 64
2, 133200, Note_off_c, 0, 82, 64
2, 133200, Note_on_c, 0, 84, 64
2, 133320, Note_off_c, 0, 84, 64
2, 133320, Note_on_c, 0, 75, 64
2, 133440, Note_off_c, 0, 75, 64
2, 133440, Note_on_c, 0, 73, 64
2, 133560, Note_off_c, 0, 73, 64
2, 133560, Note_on_c, 0, 72, 64
2, 133680, Note_off_c, 0, 72, 64
2, 133680, Note_on_c, 0, 73, 64
2, 133800, Note_off_c, 0, 73, 64
2, 133800, Note_on_c, 0, 82, 64
2, 133920, Note_off_c, 0, 82, 64
2, 133920, Note_on_c, 0, 82, 64
2, 134040, Note_off_c, 0, 82, 64
2, 134040, Note_on_c, 0, 81, 64
2, 134160, Note_off_c, 0, 81, 64
2, 134160, Note_on_c, 0, 82, 64
2, 134280, Note_off_c, 0, 82, 64
2, 134280, Note_on_c, 0, 73, 64
2, 134400, Note_off_c, 0, 73, 64
2, 134400, Note_on_c, 0, 72, 64
2, 134520, Note_off_c, 0, 72, 64
2, 134520, Note_on_c, 0, 70, 64
2, 134640, Note_off_c, 0, 70, 64
2, 134640, Note_on_c, 0, 72, 64
2, 134760, Note_off_c, 0, 72, 64
2, 134760, Note_on_c, 0, 81, 64
2, 134880, Note_off_c, 0, 81, 64
2, 134880, Note_on_c, 0, 81, 64
2, 135000, Note_off_c, 0, 81, 64
2, 135000, Note_on_c, 0, 79, 64
2, 135120, Note_off_c, 0, 79, 64
2, 135120, Note_on_c, 0, 81, 64
2, 135240, Note_off_c, 0, 81, 64
2, 135240, Note_on_c, 0, 72, 64
2, 135360, Note_off_c, 0, 72, 64
2, 135360, Note_on_c, 0, 70, 64
2, 135480, Note_off_c, 0, 70, 64
2, 135480, Note_on_c, 0, 69, 64
2, 135600, Note_off_c, 0, 69, 64
2, 135600, Note_on_c, 0, 70, 64
2, 135720, Note_off_c, 0, 70, 64
2, 135720, Note_on_c, 0, 72, 64
2, 135840, Note_off_c, 0, 72, 64
2, 135840, Note_on_c, 0, 73, 64
2, 135960, Note_off_c, 0, 73, 64
2, 135960, Note_on_c, 0, 75, 64
2, 136080, Note_off_c, 0, 75, 64
2, 136080, Note_on_c, 0, 77, 64
2, 136200, Note_off_c, 0, 77, 64
2, 136200, Note_on_c, 0, 79, 64
2, 136320, Note_off_c, 0, 79, 64
2, 136320, Note_on_c, 0, 80, 64
2, 136440, Note_off_c, 0, 80, 64
2, 136440, Note_on_c, 0, 79, 64
2, 136560, Note_off_c, 0, 79, 64
2, 136560, Note_on_c, 0, 80, 64
2, 136680, Note_off_c, 0, 80, 64
2, 136680, Note_on_c, 0, 77, 64
2, 136800, Note_off_c, 0, 77, 64
2, 136800, Note_on_c, 0, 74, 64
2, 136920, Note_off_c, 0, 74, 64
2, 136920, Note_on_c, 0, 72, 64
2, 137040, Note_off_c, 0, 72, 64
2, 137040, Note_on_c, 0, 74, 64
2, 137160, Note_off_c, 0, 74, 64
2, 137160, Note_on_c, 0, 80, 64
2, 137280, Note_off_c, 0, 80, 64
2, 137280, Note_on_c, 0, 79, 64
2, 137400, Note_off_c, 0, 79, 64
2, 137400, Note_on_c, 0, 77, 64
2, 137520, Note_off_c, 0, 77, 64
2, 137520, Note_on_c, 0, 79, 64
2, 137640, Note_off_c, 0, 79, 64
2, 137640, Note_on_c, 0, 75, 64
2, 137760, Note_off_c, 0, 75, 64
2, 137760, Note_on_c, 0, 72, 64
2, 137880, Note_off_c, 0, 72, 64
2, 137880, Note_on_c, 0, 71, 64
2, 138000, Note_off_c, 0, 71, 64
2, 138000, Note_on_c, 0, 72, 64
2, 138120, Note_off_c, 0, 72, 64
2, 138120, Note_on_c, 0, 79, 64
2, 138240, Note_off_c, 0, 79, 64
2, 138240, Note_on_c, 0, 77, 64
2, 138360, Note_off_c, 0, 77, 64
2, 138360, Note_on_c, 0, 75, 64
2, 138480, Note_off_c, 0, 75, 64
2, 138480, Note_on_c, 0, 77, 64
2, 138600, Note_off_c, 0, 77, 64
2, 138600, Note_on_c, 0, 74, 64
2, 138720, Note_off_c, 0, 74, 64
2, 138720, Note_on_c, 0, 71, 64
2, 138840, Note_off_c, 0, 71, 64
2, 138840, Note_on_c, 0, 69, 64
2, 138960, Note_off_c, 0, 69, 64
2, 138960, Note_on_c, 0, 71, 64
2, 139080, Note_off_c, 0, 71, 64
2, 139080, Note_on_c, 0, 77, 64
2, 139200, Note_off_c, 0, 77, 64
2, 139200, Note_on_c, 0, 75, 64
2, 139320, Note_off_c, 0, 75, 64
2, 139320, Note_on_c, 0, 74, 64
2, 139440, Note_off_c, 0, 74, 64
2, 139440, Note_on_c, 0, 75, 64
2, 139680, Note_off_c, 0, 75, 64
2, 139680, Note_on_c, 0, 65, 64
2, 139920, Note_off_c, 0, 65, 64
2, 139920, Note_on_c, 0, 87, 64
2, 140160, Note_off_c, 0, 87, 64
2, 140160, Note_on_c, 0, 86, 64
2, 140280, Note_off_c, 0, 86, 64
2, 140280, Note_on_c, 0, 84, 64
2, 140400, Note_off_c, 0, 84, 64
2, 140400, Note_on_c, 0, 86, 64
2, 140640, Note_off_c, 0, 86, 64
2, 140640, Note_on_c, 0, 63, 64
2, 140880, Note_off_c, 0, 63, 64
2, 140880, Note_on_c, 0, 86, 64
2, 141120, Note_off_c, 0, 86, 64
2, 141120, Note_on_c, 0, 84, 64
2, 141240, Note_off_c, 0, 84, 64
2, 141240, Note_on_c, 0, 83, 64
2, 141360, Note_off_c, 0, 83, 64
2, 141360, Note_on_c, 0, 84, 64
2, 141600, Note_off_c, 0, 84, 64
2, 141600, Note_on_c, 0, 62, 64
2, 141840, Note_off_c, 0, 62, 64
2, 141840, Note_on_c, 0, 84, 64
2, 142080, Note_off_c, 0, 84, 64
2, 142080, Note_on_c, 0, 84, 64
2, 142140, Note_off_c, 0, 84, 64
2, 142140, Note_on_c, 0, 83, 64
2, 142200, Note_off_c, 0, 83, 64
2, 142200, Note_on_c, 0, 84, 64
2, 142260, Note_off_c, 0, 84, 64
2, 142260, Note_on_c, 0, 83, 64
2, 142320, Note_off_c, 0, 83, 64
2, 142320, Note_on_c, 0, 84, 64
2, 142380, Note_off_c, 0, 84, 64
2, 142380, Note_on_c, 0, 83, 64
2, 142440, Note_off_c, 0, 83, 64
2, 142440, Note_on_c, 0, 84, 64
2, 142500, Note_off_c, 0, 84, 64
2, 142500, Note_on_c, 0, 83, 64
2, 142560, Note_off_c, 0, 83, 64
2, 142560, Note_on_c, 0, 84, 64
2, 142620, Note_off_c, 0, 84, 64
2, 142620, Note_on_c, 0, 83, 64
2, 142680, Note_off_c, 0, 83, 64
2, 142680, Note_on_c, 0, 84, 64
2, 142740, Note_off_c, 0, 84, 64
2, 142740, Note_on_c, 0, 83, 64
2, 142800, Note_off_c, 0, 83, 64
2, 142800, Note_on_c, 0, 84, 64
2, 142860, Note_off_c, 0, 84, 64
2, 142860, Note_on_c, 0, 83, 64
2, 142920, Note_off_c, 0, 83, 64
2, 142920, Note_on_c, 0, 84, 64
2, 142980, Note_off_c, 0, 84, 64
2, 142980, Note_on_c, 0, 83, 64
2, 143040, Note_off_c, 0, 83, 64
2, 143040, Note_on_c, 0, 86, 64
2, 143100, Note_off_c, 0, 86, 64
2, 143100, Note_on_c, 0, 84, 64
2, 143160, Note_off_c, 0, 84, 64
2, 143160, Note_on_c, 0, 86, 64
2, 143220, Note_off_c, 0, 86, 64
2, 143220, Note_on_c, 0, 84, 64
2, 143280, Note_off_c, 0, 84, 64
2, 143280, Note_on_c, 0, 86, 64
2, 143340, Note_off_c, 0, 86, 64
2, 143340, Note_on_c, 0, 84, 64
2, 143400, Note_off_c, 0, 84, 64
2, 143400, Note_on_c, 0, 86, 64
2, 143460, Note_off_c, 0, 86, 64
2, 143460, Note_on_c, 0, 84, 64
2, 143520, Note_off_c, 0, 84, 64
2, 143520, Note_on_c, 0, 86, 64
2, 143580, Note_off_c, 0, 86, 64
2, 143580, Note_on_c, 0, 84, 64
2, 143640, Note_off_c, 0, 84, 64
2, 143640, Note_on_c, 0, 86, 64
2, 143700, Note_off_c, 0, 86, 64
2, 143700, Note_on_c, 0, 84, 64
2, 143760, Note_off_c, 0, 84, 64
2, 143760, Note_on_c, 0, 86, 64
2, 143820, Note_off_c, 0, 86, 64
2, 143820, Note_on_c, 0, 84, 64
2, 143880, Note_off_c, 0, 84, 64
2, 143880, Note_on_c, 0, 86, 64
2, 143940, Note_off_c, 0, 86, 64
2, 143940, Note_on_c, 0, 84, 64
2, 144000, Note_off_c, 0, 84, 64
2, 144000, Note_on_c, 0, 82, 64
2, 144060, Note_off_c, 0, 82, 64
2, 144060, Note_on_c, 0, 80, 64
2, 144120, Note_off_c, 0, 80, 64
2, 144120, Note_on_c, 0, 82, 64
2, 144180, Note_off_c, 0, 82, 64
2, 144180, Note_on_c, 0, 80, 64
2, 144240, Note_off_c, 0, 80, 64
2, 144240, Note_on_c, 0, 82, 64
2, 144300, Note_off_c, 0, 82, 64
2, 144300, Note_on_c, 0, 80, 64
2, 144360, Note_off_c, 0, 80, 64
2, 144360, Note_on_c, 0, 82, 64
2, 144420, Note_off_c, 0, 82, 64
2, 144420, Note_on_c, 0, 80, 64
2, 144480, Note_off_c, 0, 80, 64
2, 144480, Note_on_c, 0, 82, 64
2, 144540, Note_off_c, 0, 82, 64
2, 144540, Note_on_c, 0, 80, 64
2, 144600, Note_off_c, 0, 80, 64
2, 144600, Note_on_c, 0, 82, 64
2, 144660, Note_off_c, 0, 82, 64
2, 144660, Note_on_c, 0, 80, 64
2, 144720, Note_off_c, 0, 80, 64
2, 144720, Note_on_c, 0, 82, 64
2, 144780, Note_off_c, 0, 82, 64
2, 144780, Note_on_c, 0, 80, 64
2, 144840, Note_off_c, 0, 80, 64
2, 144840, Note_on_c, 0, 82, 64
2, 144900, Note_off_c, 0, 82, 64
2, 144900, Note_on_c, 0, 80, 64
2, 144960, Note_off_c, 0, 80, 64
2, 144960, Note_on_c, 0, 80, 64
2, 145020, Note_off_c, 0, 80, 64
2, 145020, Note_on_c, 0, 79, 64
2, 145080, Note_off_c, 0, 79, 64
2, 145080, Note_on_c, 0, 80, 64
2, 145140, Note_off_c, 0, 80, 64
2, 145140, Note_on_c, 0, 79, 64
2, 145200, Note_off_c, 0, 79, 64
2, 145200, Note_on_c, 0, 80, 64
2, 145260, Note_off_c, 0, 80, 64
2, 145260, Note_on_c, 0, 79, 64
2, 145320, Note_off_c, 0, 79, 64
2, 145320, Note_on_c, 0, 80, 64
2, 145380, Note_off_c, 0, 80, 64
2, 145380, Note_on_c, 0, 79, 64
2, 145440, Note_off_c, 0, 79, 64
2, 145440, Note_on_c, 0, 80, 64
2, 145500, Note_off_c, 0, 80, 64
2, 145500, Note_on_c, 0, 79, 64
2, 145560, Note_off_c, 0, 79, 64
2, 145560, Note_on_c, 0, 80, 64
2, 145620, Note_off_c, 0, 80, 64
2, 145620, Note_on_c, 0, 79, 64
2, 145680, Note_off_c, 0, 79, 64
2, 145680, Note_on_c, 0, 80, 64
2, 145740, Note_off_c, 0, 80, 64
2, 145740, Note_on_c, 0, 79, 64
2, 145800, Note_off_c, 0, 79, 64
2, 145800, Note_on_c, 0, 80, 64
2, 145860, Note_off_c, 0, 80, 64
2, 145860, Note_on_c, 0, 79, 64
2, 146040, Note_off_c, 0, 79, 64
2, 146040, Note_on_c, 0, 75, 64
2, 146160, Note_off_c, 0, 75, 64
2, 146160, Note_on_c, 0, 71, 64
2, 146280, Note_off_c, 0, 71, 64
2, 146280, Note_on_c, 0, 72, 64
2, 146400, Note_off_c, 0, 72, 64
2, 146400, Note_on_c, 0, 74, 64
2, 146520, Note_off_c, 0, 74, 64
2, 146520, Note_on_c, 0, 77, 64
2, 146640, Note_off_c, 0, 77, 64
2, 146640, Note_on_c, 0, 84, 64
2, 146760, Note_off_c, 0, 84, 64
2, 146760, Note_on_c, 0, 83, 64
2, 146880, Note_off_c, 0, 83, 64
2, 146880, Note_on_c, 0, 75, 64
2, 147000, Note_off_c, 0, 75, 64
2, 147000, Note_on_c, 0, 72, 64
2, 147120, Note_off_c, 0, 72, 64
2, 147120, Note_on_c, 0, 67, 64
2, 147240, Note_off_c, 0, 67, 64
2, 147240, Note_on_c, 0, 68, 64
2, 147360, Note_off_c, 0, 68, 64
2, 147360, Note_on_c, 0, 70, 64
2, 147480, Note_off_c, 0, 70, 64
2, 147480, Note_on_c, 0, 73, 64
2, 147600, Note_off_c, 0, 73, 64
2, 147600, Note_on_c, 0, 80, 64
2, 147720, Note_off_c, 0, 80, 64
2, 147720, Note_on_c, 0, 79, 64
2, 147840, Note_off_c, 0, 79, 64
2, 147840, Note_on_c, 0, 72, 64
2, 147960, Note_off_c, 0, 72, 64
2, 147960, Note_on_c, 0, 68, 64
2, 148080, Note_off_c, 0, 68, 64
2, 148080, Note_on_c, 0, 64, 64
2, 148200, Note_off_c, 0, 64, 64
2, 148200, Note_on_c, 0, 65, 64
2, 148320, Note_off_c, 0, 65, 64
2, 148320, Note_on_c, 0, 67, 64
2, 148440, Note_off_c, 0, 67, 64
2, 148440, Note_on_c, 0, 70, 64
2, 148560, Note_off_c, 0, 70, 64
2, 148560, Note_on_c, 0, 77, 64
2, 148680, Note_off_c, 0, 77, 64
2, 148680, Note_on_c, 0, 76, 64
2, 148800, Note_off_c, 0, 76, 64
2, 148800, Note_on_c, 0, 82, 64
2, 148860, Note_off_c, 0, 82, 64
2, 148860, Note_on_c, 0, 80, 64
2, 148920, Note_off_c, 0, 80, 64
2, 148920, Note_on_c, 0, 82, 64
2, 148980, Note_off_c, 0, 82, 64
2, 148980, Note_on_c, 0, 80, 64
2, 149040, Note_off_c, 0, 80, 64
2, 149040, Note_on_c, 0, 82, 64
2, 149100, Note_off_c, 0, 82, 64
2, 149100, Note_on_c, 0, 80, 64
2, 149160, Note_off_c, 0, 80, 64
2, 149160, Note_on_c, 0, 79, 64
2, 149220, Note_off_c, 0, 79, 64
2, 149220, Note_on_c, 0, 77, 64
2, 149280, Note_off_c, 0, 77, 64
2, 149280, Note_on_c, 0, 79, 64
2, 149340, Note_off_c, 0, 79, 64
2, 149340, Note_on_c, 0, 77, 64
2, 149400, Note_off_c, 0, 77, 64
2, 149400, Note_on_c, 0, 79, 64
2, 149460, Note_off_c, 0, 79, 64
2, 149460, Note_on_c, 0, 77, 64
2, 149520, Note_off_c, 0, 77, 64
2, 149520, Note_on_c, 0, 79, 64
2, 149580, Note_off_c, 0, 79, 64
2, 149580, Note_on_c, 0, 77, 64
2, 149640, Note_off_c, 0, 77, 64
2, 149640, Note_on_c, 0, 75, 64
2, 149700, Note_off_c, 0, 75, 64
2, 149700, Note_on_c, 0, 73, 64
2, 149760, Note_off_c, 0, 73, 64
2, 149760, Note_on_c, 0, 73, 64
2, 149880, Note_off_c, 0, 73, 64
2, 149880, Note_on_c, 0, 80, 64
2, 150000, Note_off_c, 0, 80, 64
2, 150000, Note_on_c, 0, 76, 64
2, 150120, Note_off_c, 0, 76, 64
2, 150120, Note_on_c, 0, 77, 64
2, 150240, Note_off_c, 0, 77, 64
2, 150240, Note_on_c, 0, 68, 64
2, 150360, Note_off_c, 0, 68, 64
2, 150360, Note_on_c, 0, 77, 64
2, 150480, Note_off_c, 0, 77, 64
2, 150480, Note_on_c, 0, 72, 64
2, 150600, Note_off_c, 0, 72, 64
2, 150600, Note_on_c, 0, 73, 64
2, 150720, Note_off_c, 0, 73, 64
2, 150720, Note_on_c, 0, 65, 64
2, 151320, Note_off_c, 0, 65, 64
2, 151320, Note_on_c, 0, 77, 64
2, 151440, Note_off_c, 0, 77, 64
2, 151440, Note_on_c, 0, 74, 64
2, 151560, Note_off_c, 0, 74, 64
2, 151560, Note_on_c, 0, 75, 64
2, 151680, Note_off_c, 0, 75, 64
2, 151680, Note_on_c, 0, 65, 64
2, 151740, Note_off_c, 0, 65, 64
2, 151740, Note_on_c, 0, 63, 64
2, 151800, Note_off_c, 0, 63, 64
2, 151800, Note_on_c, 0, 65, 64
2, 151860, Note_off_c, 0, 65, 64
2, 151860, Note_on_c, 0, 63, 64
2, 151920, Note_off_c, 0, 63, 64
2, 151920, Note_on_c, 0, 65, 64
2, 151980, Note_off_c, 0, 65, 64
2, 151980, Note_on_c, 0, 63, 64
2, 152040, Note_off_c, 0, 63, 64
2, 152040, Note_on_c, 0, 65, 64
2, 152100, Note_off_c, 0, 65, 64
2, 152100, Note_on_c, 0, 63, 64
2, 152160, Note_off_c, 0, 63, 64
2, 152160, Note_on_c, 0, 65, 64
2, 152220, Note_off_c, 0, 65, 64
2, 152220, Note_on_c, 0, 63, 64
2, 152280, Note_off_c, 0, 63, 64
2, 152280, Note_on_c, 0, 65, 64
2, 152340, Note_off_c, 0, 65, 64
2, 152340, Note_on_c, 0, 63, 64
2, 152400, Note_off_c, 0, 63, 64
2, 152400, Note_on_c, 0, 65, 64
2, 152460, Note_off_c, 0, 65, 64
2, 152460, Note_on_c, 0, 63, 64
2, 152520, Note_off_c, 0, 63, 64
2, 152520, Note_on_c, 0, 65, 64
2, 152580, Note_off_c, 0, 65, 64
2, 152580, Note_on_c, 0, 63, 64
2, 152640, Note_off_c, 0, 63, 64
2, 152640, Note_on_c, 0, 62, 64
2, 153120, Note_off_c, 0, 62, 64
2, 154560, Note_on_c, 0, 72, 64
2, 155040, Note_off_c, 0, 72, 64
2, 155040, Note_on_c, 0, 75, 64
2, 155520, Note_off_c, 0, 75, 64
2, 155520, Note_on_c, 0, 79, 64
2, 156000, Note_off_c, 0, 79, 64
2, 156000, Note_on_c, 0, 80, 64
2, 156480, Note_off_c, 0, 80, 64
2, 156480, Note_on_c, 0, 71, 64
2, 156960, Note_off_c, 0, 71, 64
2, 157200, Note_on_c, 0, 79, 64
2, 157440, Note_off_c, 0, 79, 64
2, 157440, Note_on_c, 0, 78, 64
2, 157920, Note_off_c, 0, 78, 64
2, 157920, Note_on_c, 0, 77, 64
2, 158400, Note_off_c, 0, 77, 64
2, 158400, Note_on_c, 0, 76, 64
2, 158880, Note_off_c, 0, 76, 64
2, 158880, Note_on_c, 0, 75, 64
2, 159600, Note_off_c, 0, 75, 64
2, 159600, Note_on_c, 0, 74, 64
2, 159840, Note_off_c, 0, 74, 64
2, 159840, Note_on_c, 0, 73, 64
2, 160080, Note_off_c, 0, 73, 64
2, 160080, Note_on_c, 0, 72, 64
2, 160320, Note_off_c, 0, 72, 64
2, 160320, Note_on_c, 0, 71, 64
2, 160560, Note_off_c, 0, 71, 64
2, 160560, Note_on_c, 0, 69, 64
2, 160680, Note_off_c, 0, 69, 64
2, 160680, Note_on_c, 0, 67, 64
2, 160800, Note_off_c, 0, 67, 64
2, 160800, Note_on_c, 0, 72, 64
2, 161040, Note_off_c, 0, 72, 64
2, 161040, Note_on_c, 0, 77, 64
2, 161280, Note_off_c, 0, 77, 64
2, 161280, Note_on_c, 0, 77, 64
2, 161340, Note_off_c, 0, 77, 64
2, 161340, Note_on_c, 0, 75, 64
2, 161400, Note_off_c, 0, 75, 64
2, 161400, Note_on_c, 0, 77, 64
2, 161460, Note_off_c, 0, 77, 64
2, 161460, Note_on_c, 0, 75, 64
2, 161520, Note_off_c, 0, 75, 64
2, 161520, Note_on_c, 0, 77, 64
2, 161580, Note_off_c, 0, 77, 64
2, 161580, Note_on_c, 0, 75, 64
2, 161640, Note_off_c, 0, 75, 64
2, 161640, Note_on_c, 0, 77, 64
2, 161700, Note_off_c, 0, 77, 64
2, 161700, Note_on_c, 0, 75, 64
2, 161760, Note_off_c, 0, 75, 64
2, 161760, Note_on_c, 0, 75, 64
2, 161820, Note_off_c, 0, 75, 64
2, 161820, Note_on_c, 0, 74, 64
2, 161880, Note_off_c, 0, 74, 64
2, 161880, Note_on_c, 0, 75, 64
2, 161940, Note_off_c, 0, 75, 64
2, 161940, Note_on_c, 0, 74, 64
2, 162000, Note_off_c, 0, 74, 64
2, 162000, Note_on_c, 0, 75, 64
2, 162060, Note_off_c, 0, 75, 64
2, 162060, Note_on_c, 0, 74, 64
2, 162120, Note_off_c, 0, 74, 64
2, 162120, Note_on_c, 0, 75, 64
2, 162180, Note_off_c, 0, 75, 64
2, 162180, Note_on_c, 0, 74, 64
2, 162240, Note_off_c, 0, 74, 64
2, 162240, Note_on_c, 0, 72, 64
2, 162720, Note_off_c, 0, 72, 64
2, 164880, Note_on_c, 0, 74, 64
2, 165120, Note_off_c, 0, 74, 64
2, 165120, Note_on_c, 0, 79, 64
2, 165480, Note_off_c, 0, 79, 64
2, 165480, Note_on_c, 0, 81, 64
2, 165540, Note_off_c, 0, 81, 64
2, 165540, Note_on_c, 0, 82, 64
2, 165600, Note_off_c, 0, 82, 64
2, 165600, Note_on_c, 0, 81, 64
2, 165960, Note_off_c, 0, 81, 64
2, 165960, Note_on_c, 0, 82, 64
2, 166020, Note_off_c, 0, 82, 64
2, 166020, Note_on_c, 0, 84, 64
2, 166080, Note_off_c, 0, 84, 64
2, 166080, Note_on_c, 0, 82, 64
2, 166200, Note_off_c, 0, 82, 64
2, 166200, Note_on_c, 0, 81, 64
2, 166320, Note_off_c, 0, 81, 64
2, 166320, Note_on_c, 0, 79, 64
2, 166440, Note_off_c, 0, 79, 64
2, 166440, Note_on_c, 0, 78, 64
2, 166560, Note_off_c, 0, 78, 64
2, 166560, Note_on_c, 0, 79, 64
2, 166680, Note_off_c, 0, 79, 64
2, 166680, Note_on_c, 0, 86, 64
2, 166800, Note_off_c, 0, 86, 64
2, 166800, Note_on_c, 0, 82, 64
2, 166920, Note_off_c, 0, 82, 64
2, 166920, Note_on_c, 0, 79, 64
2, 167040, Note_off_c, 0, 79, 64
2, 167040, Note_on_c, 0, 78, 64
2, 167160, Note_off_c, 0, 78, 64
2, 167160, Note_on_c, 0, 74, 64
2, 167280, Note_off_c, 0, 74, 64
2, 167280, Note_on_c, 0, 78, 64
2, 167400, Note_off_c, 0, 78, 64
2, 167400, Note_on_c, 0, 81, 64
2, 167520, Note_off_c, 0, 81, 64
2, 167520, Note_on_c, 0, 79, 64
2, 167640, Note_off_c, 0, 79, 64
2, 167640, Note_on_c, 0, 78, 64
2, 167760, Note_off_c, 0, 78, 64
2, 167760, Note_on_c, 0, 79, 64
2, 167880, Note_off_c, 0, 79, 64
2, 167880, Note_on_c, 0, 82, 64
2, 168000, Note_off_c, 0, 82, 64
2, 168000, Note_on_c, 0, 81, 64
2, 168120, Note_off_c, 0, 81, 64
2, 168120, Note_on_c, 0, 79, 64
2, 168240, Note_off_c, 0, 79, 64
2, 168240, Note_on_c, 0, 78, 64
2, 168360, Note_off_c, 0, 78, 64
2, 168360, Note_on_c, 0, 76, 64
2, 168480, Note_off_c, 0, 76, 64
2, 168480, Note_on_c, 0, 74, 64
2, 168600, Note_off_c, 0, 74, 64
2, 168600, Note_on_c, 0, 81, 64
2, 168720, Note_off_c, 0, 81, 64
2, 168720, Note_on_c, 0, 82, 64
2, 168840, Note_off_c, 0, 82, 64
2, 168840, Note_on_c, 0, 78, 64
2, 168960, Note_off_c, 0, 78, 64
2, 168960, Note_on_c, 0, 79, 64
2, 169080, Note_off_c, 0, 79, 64
2, 169080, Note_on_c, 0, 78, 64
2, 169200, Note_off_c, 0, 78, 64
2, 169200, Note_on_c, 0, 79, 64
2, 169320, Note_off_c, 0, 79, 64
2, 169320, Note_on_c, 0, 87, 64
2, 169440, Note_off_c, 0, 87, 64
2, 169440, Note_on_c, 0, 87, 64
2, 169560, Note_off_c, 0, 87, 64
2, 169560, Note_on_c, 0, 86, 64
2, 169680, Note_off_c, 0, 86, 64
2, 169680, Note_on_c, 0, 87, 64
2, 169800, Note_off_c, 0, 87, 64
2, 169800, Note_on_c, 0, 77, 64
2, 169920, Note_off_c, 0, 77, 64
2, 169920, Note_on_c, 0, 77, 64
2, 170040, Note_off_c, 0, 77, 64
2, 170040, Note_on_c, 0, 76, 64
2, 170160, Note_off_c, 0, 76, 64
2, 170160, Note_on_c, 0, 77, 64
2, 170280, Note_off_c, 0, 77, 64
2, 170280, Note_on_c, 0, 86, 64
2, 170400, Note_off_c, 0, 86, 64
2, 170400, Note_on_c, 0, 86, 64
2, 170520, Note_off_c, 0, 86, 64
2, 170520, Note_on_c, 0, 84, 64
2, 170640, Note_off_c, 0, 84, 64
2, 170640, Note_on_c, 0, 86, 64
2, 170760, Note_off_c, 0, 86, 64
2, 170760, Note_on_c, 0, 75, 64
2, 170880, Note_off_c, 0, 75, 64
2, 170880, Note_on_c, 0, 75, 64
2, 171000, Note_off_c, 0, 75, 64
2, 171000, Note_on_c, 0, 74, 64
2, 171120, Note_off_c, 0, 74, 64
2, 171120, Note_on_c, 0, 75, 64
2, 171240, Note_off_c, 0, 75, 64
2, 171240, Note_on_c, 0, 84, 64
2, 171360, Note_off_c, 0, 84, 64
2, 171360, Note_on_c, 0, 84, 64
2, 171480, Note_off_c, 0, 84, 64
2, 171480, Note_on_c, 0, 83, 64
2, 171600, Note_off_c, 0, 83, 64
2, 171600, Note_on_c, 0, 84, 64
2, 171720, Note_off_c, 0, 84, 64
2, 171720, Note_on_c, 0, 75, 64
2, 171840, Note_off_c, 0, 75, 64
2, 171840, Note_on_c, 0, 75, 64
2, 172080, Note_off_c, 0, 75, 64
2, 172080, Note_on_c, 0, 74, 64
2, 172320, Note_off_c, 0, 74, 64
2, 172560, Note_on_c, 0, 74, 64
2, 172800, Note_off_c, 0, 74, 64
2, 172800, Note_on_c, 0, 87, 64
2, 172860, Note_off_c, 0, 87, 64
2, 172860, Note_on_c, 0, 86, 64
2, 172920, Note_off_c, 0, 86, 64
2, 172920, Note_on_c, 0, 87, 64
2, 172980, Note_off_c, 0, 87, 64
2, 172980, Note_on_c, 0, 86, 64
2, 173040, Note_off_c, 0, 86, 64
2, 173040, Note_on_c, 0, 87, 64
2, 173100, Note_off_c, 0, 87, 64
2, 173100, Note_on_c, 0, 86, 64
2, 173160, Note_off_c, 0, 86, 64
2, 173160, Note_on_c, 0, 84, 64
2, 173220, Note_off_c, 0, 84, 64
2, 173220, Note_on_c, 0, 82, 64
2, 173280, Note_off_c, 0, 82, 64
2, 173280, Note_on_c, 0, 86, 64
2, 173340, Note_off_c, 0, 86, 64
2, 173340, Note_on_c, 0, 84, 64
2, 173400, Note_off_c, 0, 84, 64
2, 173400, Note_on_c, 0, 86, 64
2, 173460, Note_off_c, 0, 86, 64
2, 173460, Note_on_c, 0, 84, 64
2, 173520, Note_off_c, 0, 84, 64
2, 173520, Note_on_c, 0, 86, 64
2, 173580, Note_off_c, 0, 86, 64
2, 173580, Note_on_c, 0, 84, 64
2, 173640, Note_off_c, 0, 84, 64
2, 173640, Note_on_c, 0, 82, 64
2, 173700, Note_off_c, 0, 82, 64
2, 173700, Note_on_c, 0, 81, 64
2, 173760, Note_off_c, 0, 81, 64
2, 173760, Note_on_c, 0, 82, 64
2, 173880, Note_off_c, 0, 82, 64
2, 173880, Note_on_c, 0, 84, 64
2, 174000, Note_off_c, 0, 84, 64
2, 174000, Note_on_c, 0, 86, 64
2, 174120, Note_off_c, 0, 86, 64
2, 174120, Note_on_c, 0, 82, 64
2, 174240, Note_off_c, 0, 82, 64
2, 174240, Note_on_c, 0, 79, 64
2, 174360, Note_off_c, 0, 79, 64
2, 174360, Note_on_c, 0, 81, 64
2, 174480, Note_off_c, 0, 81, 64
2, 174480, Note_on_c, 0, 82, 64
2, 174600, Note_off_c, 0, 82, 64
2, 174600, Note_on_c, 0, 79, 64
2, 174720, Note_off_c, 0, 79, 64
2, 174720, Note_on_c, 0, 80, 64
2, 174840, Note_off_c, 0, 80, 64
2, 174840, Note_on_c, 0, 79, 64
2, 174960, Note_off_c, 0, 79, 64
2, 174960, Note_on_c, 0, 80, 64
2, 175080, Note_off_c, 0, 80, 64
2, 175080, Note_on_c, 0, 72, 64
2, 175200, Note_off_c, 0, 72, 64
2, 175200, Note_on_c, 0, 70, 64
2, 175320, Note_off_c, 0, 70, 64
2, 175320, Note_on_c, 0, 69, 64
2, 175440, Note_off_c, 0, 69, 64
2, 175440, Note_on_c, 0, 70, 64
2, 175560, Note_off_c, 0, 70, 64
2, 175560, Note_on_c, 0, 80, 64
2, 175680, Note_off_c, 0, 80, 64
2, 175680, Note_on_c, 0, 79, 64
2, 175800, Note_off_c, 0, 79, 64
2, 175800, Note_on_c, 0, 80, 64
2, 175920, Note_off_c, 0, 80, 64
2, 175920, Note_on_c, 0, 82, 64
2, 176040, Note_off_c, 0, 82, 64
2, 176040, Note_on_c, 0, 79, 64
2, 176160, Note_off_c, 0, 79, 64
2, 176160, Note_on_c, 0, 75, 64
2, 176280, Note_off_c, 0, 75, 64
2, 176280, Note_on_c, 0, 77, 64
2, 176400, Note_off_c, 0, 77, 64
2, 176400, Note_on_c, 0, 79, 64
2, 176520, Note_off_c, 0, 79, 64
2, 176520, Note_on_c, 0, 75, 64
2, 176640, Note_off_c, 0, 75, 64
2, 176640, Note_on_c, 0, 77, 64
2, 176760, Note_off_c, 0, 77, 64
2, 176760, Note_on_c, 0, 75, 64
2, 176880, Note_off_c, 0, 75, 64
2, 176880, Note_on_c, 0, 77, 64
2, 177000, Note_off_c, 0, 77, 64
2, 177000, Note_on_c, 0, 68, 64
2, 177120, Note_off_c, 0, 68, 64
2, 177120, Note_on_c, 0, 67, 64
2, 177240, Note_off_c, 0, 67, 64
2, 177240, Note_on_c, 0, 66, 64
2, 177360, Note_off_c, 0, 66, 64
2, 177360, Note_on_c, 0, 67, 64
2, 177480, Note_off_c, 0, 67, 64
2, 177480, Note_on_c, 0, 77, 64
2, 177600, Note_off_c, 0, 77, 64
2, 177600, Note_on_c, 0, 75, 64
2, 177720, Note_off_c, 0, 75, 64
2, 177720, Note_on_c, 0, 77, 64
2, 177840, Note_off_c, 0, 77, 64
2, 177840, Note_on_c, 0, 79, 64
2, 177960, Note_off_c, 0, 79, 64
2, 177960, Note_on_c, 0, 75, 64
2, 178080, Note_off_c, 0, 75, 64
2, 178080, Note_on_c, 0, 72, 64
2, 178320, Note_off_c, 0, 72, 64
2, 178320, Note_on_c, 0, 84, 64
2, 178800, Note_off_c, 0, 84, 64
2, 178800, Note_on_c, 0, 82, 64
2, 178920, Note_off_c, 0, 82, 64
2, 178920, Note_on_c, 0, 80, 64
2, 179040, Note_off_c, 0, 80, 64
2, 179040, Note_on_c, 0, 82, 64
2, 179760, Note_off_c, 0, 82, 64
2, 179760, Note_on_c, 0, 72, 64
2, 179880, Note_off_c, 0, 72, 64
2, 179880, Note_on_c, 0, 75, 64
2, 180000, Note_off_c, 0, 75, 64
2, 180000, Note_on_c, 0, 80, 64
2, 180720, Note_off_c, 0, 80, 64
2, 180720, Note_on_c, 0, 79, 64
2, 180840, Note_off_c, 0, 79, 64
2, 180840, Note_on_c, 0, 77, 64
2, 180960, Note_off_c, 0, 77, 64
2, 180960, Note_on_c, 0, 79, 64
2, 181680, Note_off_c, 0, 79, 64
2, 181680, Note_on_c, 0, 68, 64
2, 181800, Note_off_c, 0, 68, 64
2, 181800, Note_on_c, 0, 72, 64
2, 181920, Note_off_c, 0, 72, 64
2, 181920, Note_on_c, 0, 77, 64
2, 182640, Note_off_c, 0, 77, 64
2, 182640, Note_on_c, 0, 75, 64
2, 182760, Note_off_c, 0, 75, 64
2, 182760, Note_on_c, 0, 74, 64
2, 182880, Note_off_c, 0, 74, 64
2, 182880, Note_on_c, 0, 75, 64
2, 183600, Note_off_c, 0, 75, 64
2, 183600, Note_on_c, 0, 80, 64
2, 183720, Note_off_c, 0, 80, 64
2, 183720, Note_on_c, 0, 77, 64
2, 183840, Note_off_c, 0, 77, 64
2, 183840, Note_on_c, 0, 75, 64
2, 184080, Note_off_c, 0, 75, 64
2, 184080, Note_on_c, 0, 74, 64
2, 184560, Note_off_c, 0, 74, 64
2, 184560, Note_on_c, 0, 72, 64
2, 184800, Note_off_c, 0, 72, 64
2, 185040, Note_on_c, 0, 75, 64
2, 185400, Note_off_c, 0, 75, 64
2, 185400, Note_on_c, 0, 74, 64
2, 185520, Note_off_c, 0, 74, 64
2, 185520, Note_on_c, 0, 75, 64
2, 185640, Note_off_c, 0, 75, 64
2, 185640, Note_on_c, 0, 84, 64
2, 185760, Note_off_c, 0, 84, 64
2, 185760, Note_on_c, 0, 75, 64
2, 185880, Note_off_c, 0, 75, 64
2, 185880, Note_on_c, 0, 74, 64
2, 186000, Note_off_c, 0, 74, 64
2, 186000, Note_on_c, 0, 75, 64
2, 186120, Note_off_c, 0, 75, 64
2, 186120, Note_on_c, 0, 84, 64
2, 186240, Note_off_c, 0, 84, 64
2, 186240, Note_on_c, 0, 77, 64
2, 186300, Note_off_c, 0, 77, 64
2, 186300, Note_on_c, 0, 75, 64
2, 186360, Note_off_c, 0, 75, 64
2, 186360, Note_on_c, 0, 77, 64
2, 186420, Note_off_c, 0, 77, 64
2, 186420, Note_on_c, 0, 75, 64
2, 186480, Note_off_c, 0, 75, 64
2, 186480, Note_on_c, 0, 74, 64
2, 186720, Note_off_c, 0, 74, 64
2, 186960, Note_on_c, 0, 74, 64
2, 187200, Note_off_c, 0, 74, 64
2, 187200, Note_on_c, 0, 75, 64
2, 187320, Note_off_c, 0, 75, 64
2, 187320, Note_on_c, 0, 79, 64
2, 187440, Note_off_c, 0, 79, 64
2, 187440, Note_on_c, 0, 86, 64
2, 187560, Note_off_c, 0, 86, 64
2, 187560, Note_on_c, 0, 84, 64
2, 187680, Note_off_c, 0, 84, 64
2, 187680, Note_on_c, 0, 77, 64
2, 187740, Note_off_c, 0, 77, 64
2, 187740, Note_on_c, 0, 75, 64
2, 187800, Note_off_c, 0, 75, 64
2, 187800, Note_on_c, 0, 77, 64
2, 187860, Note_off_c, 0, 77, 64
2, 187860, Note_on_c, 0, 75, 64
2, 187920, Note_off_c, 0, 75, 64
2, 187920, Note_on_c, 0, 77, 64
2, 187980, Note_off_c, 0, 77, 64
2, 187980, Note_on_c, 0, 75, 64
2, 188040, Note_off_c, 0, 75, 64
2, 188040, Note_on_c, 0, 74, 64
2, 188100, Note_off_c, 0, 74, 64
2, 188100, Note_on_c, 0, 72, 64
2, 188160, Note_off_c, 0, 72, 64
2, 188160, Note_on_c, 0, 74, 64
2, 188280, Note_off_c, 0, 74, 64
2, 188280, Note_on_c, 0, 77, 64
2, 188400, Note_off_c, 0, 77, 64
2, 188400, Note_on_c, 0, 84, 64
2, 188520, Note_off_c, 0, 84, 64
2, 188520, Note_on_c, 0, 82, 64
2, 188640, Note_off_c, 0, 82, 64
2, 188640, Note_on_c, 0, 75, 64
2, 188700, Note_off_c, 0, 75, 64
2, 188700, Note_on_c, 0, 74, 64
2, 188760, Note_off_c, 0, 74, 64
2, 188760, Note_on_c, 0, 75, 64
2, 188820, Note_off_c, 0, 75, 64
2, 188820, Note_on_c, 0, 74, 64
2, 188880, Note_off_c, 0, 74, 64
2, 188880, Note_on_c, 0, 75, 64
2, 188940, Note_off_c, 0, 75, 64
2, 188940, Note_on_c, 0, 74, 64
2, 189000, Note_off_c, 0, 74, 64
2, 189000, Note_on_c, 0, 72, 64
2, 189060, Note_off_c, 0, 72, 64
2, 189060, Note_on_c, 0, 70, 64
2, 189120, Note_off_c, 0, 70, 64
2, 189120, Note_on_c, 0, 72, 64
2, 189240, Note_off_c, 0, 72, 64
2, 189240, Note_on_c, 0, 75, 64
2, 189360, Note_off_c, 0, 75, 64
2, 189360, Note_on_c, 0, 82, 64
2, 189480, Note_off_c, 0, 82, 64
2, 189480, Note_on_c, 0, 81, 64
2, 189600, Note_off_c, 0, 81, 64
2, 189600, Note_on_c, 0, 74, 64
2, 189660, Note_off_c, 0, 74, 64
2, 189660, Note_on_c, 0, 72, 64
2, 189720, Note_off_c, 0, 72, 64
2, 189720, Note_on_c, 0, 74, 64
2, 189780, Note_off_c, 0, 74, 64
2, 189780, Note_on_c, 0, 72, 64
2, 189840, Note_off_c, 0, 72, 64
2, 189840, Note_on_c, 0, 74, 64
2, 189900, Note_off_c, 0, 74, 64
2, 189900, Note_on_c, 0, 72, 64
2, 189960, Note_off_c, 0, 72, 64
2, 189960, Note_on_c, 0, 70, 64
2, 190020, Note_off_c, 0, 70, 64
2, 190020, Note_on_c, 0, 69, 64
2, 190080, Note_off_c, 0, 69, 64
2, 190080, Note_on_c, 0, 70, 64
2, 190200, Note_off_c, 0, 70, 64
2, 190200, Note_on_c, 0, 74, 64
2, 190320, Note_off_c, 0, 74, 64
2, 190320, Note_on_c, 0, 81, 64
2, 190440, Note_off_c, 0, 81, 64
2, 190440, Note_on_c, 0, 79, 64
2, 190560, Note_off_c, 0, 79, 64
2, 190560, Note_on_c, 0, 72, 64
2, 190620, Note_off_c, 0, 72, 64
2, 190620, Note_on_c, 0, 70, 64
2, 190680, Note_off_c, 0, 70, 64
2, 190680, Note_on_c, 0, 72, 64
2, 190740, Note_off_c, 0, 72, 64
2, 190740, Note_on_c, 0, 70, 64
2, 190800, Note_off_c, 0, 70, 64
2, 190800, Note_on_c, 0, 72, 64
2, 190860, Note_off_c, 0, 72, 64
2, 190860, Note_on_c, 0, 70, 64
2, 190920, Note_off_c, 0, 70, 64
2, 190920, Note_on_c, 0, 69, 64
2, 190980, Note_off_c, 0, 69, 64
2, 190980, Note_on_c, 0, 67, 64
2, 191040, Note_off_c, 0, 67, 64
2, 191040, Note_on_c, 0, 79, 64
2, 194040, Note_off_c, 0, 79, 64
2, 194040, Note_on_c, 0, 78, 64
2, 194160, Note_off_c, 0, 78, 64
2, 194160, Note_on_c, 0, 81, 64
2, 194280, Note_off_c, 0, 81, 64
2, 194280, Note_on_c, 0, 79, 64
2, 194400, Note_off_c, 0, 79, 64
2, 194400, Note_on_c, 0, 78, 64
2, 194520, Note_off_c, 0, 78, 64
2, 194520, Note_on_c, 0, 75, 64
2, 194640, Note_off_c, 0, 75, 64
2, 194640, Note_on_c, 0, 74, 64
2, 194760, Note_off_c, 0, 74, 64
2, 194760, Note_on_c, 0, 72, 64
2, 194880, Note_off_c, 0, 72, 64
2, 194880, Note_on_c, 0, 70, 64
2, 195000, Note_off_c, 0, 70, 64
2, 195000, Note_on_c, 0, 74, 64
2, 195120, Note_off_c, 0, 74, 64
2, 195120, Note_on_c, 0, 78, 64
2, 195240, Note_off_c, 0, 78, 64
2, 195240, Note_on_c, 0, 79, 64
2, 195360, Note_off_c, 0, 79, 64
2, 195360, Note_on_c, 0, 69, 64
2, 195480, Note_off_c, 0, 69, 64
2, 195480, Note_on_c, 0, 72, 64
2, 195600, Note_off_c, 0, 72, 64
2, 195600, Note_on_c, 0, 76, 64
2, 195720, Note_off_c, 0, 76, 64
2, 195720, Note_on_c, 0, 77, 64
2, 195840, Note_off_c, 0, 77, 64
2, 195840, Note_on_c, 0, 67, 64
2, 195960, Note_off_c, 0, 67, 64
2, 195960, Note_on_c, 0, 70, 64
2, 196080, Note_off_c, 0, 70, 64
2, 196080, Note_on_c, 0, 74, 64
2, 196200, Note_off_c, 0, 74, 64
2, 196200, Note_on_c, 0, 75, 64
2, 196320, Note_off_c, 0, 75, 64
2, 196320, Note_on_c, 0, 66, 64
2, 196440, Note_off_c, 0, 66, 64
2, 196440, Note_on_c, 0, 75, 64
2, 196560, Note_off_c, 0, 75, 64
2, 196560, Note_on_c, 0, 74, 64
2, 196680, Note_off_c, 0, 74, 64
2, 196680, Note_on_c, 0, 72, 64
2, 196800, Note_off_c, 0, 72, 64
2, 196800, Note_on_c, 0, 70, 64
2, 196920, Note_off_c, 0, 70, 64
2, 196920, Note_on_c, 0, 79, 64
2, 197040, Note_off_c, 0, 79, 64
2, 197040, Note_on_c, 0, 75, 64
2, 197160, Note_off_c, 0, 75, 64
2, 197160, Note_on_c, 0, 72, 64
2, 197280, Note_off_c, 0, 72, 64
2, 197280, Note_on_c, 0, 72, 64
2, 197340, Note_off_c, 0, 72, 64
2, 197340, Note_on_c, 0, 70, 64
2, 197400, Note_off_c, 0, 70, 64
2, 197400, Note_on_c, 0, 72, 64
2, 197460, Note_off_c, 0, 72, 64
2, 197460, Note_on_c, 0, 70, 64
2, 197520, Note_off_c, 0, 70, 64
2, 197520, Note_on_c, 0, 69, 64
2, 197640, Note_off_c, 0, 69, 64
2, 197640, Note_on_c, 0, 67, 64
2, 197760, Note_off_c, 0, 67, 64
2, 197760, Note_on_c, 0, 67, 64
2, 197880, Note_off_c, 0, 67, 64
2, 197880, Note_on_c, 0, 62, 64
2, 198000, Note_off_c, 0, 62, 64
2, 198000, Note_on_c, 0, 67, 64
2, 198120, Note_off_c, 0, 67, 64
2, 198120, Note_on_c, 0, 69, 64
2, 198240, Note_off_c, 0, 69, 64
2, 198240, Note_on_c, 0, 70, 64
2, 198360, Note_off_c, 0, 70, 64
2, 198360, Note_on_c, 0, 67, 64
2, 198480, Note_off_c, 0, 67, 64
2, 198480, Note_on_c, 0, 70, 64
2, 198600, Note_off_c, 0, 70, 64
2, 198600, Note_on_c, 0, 72, 64
2, 198720, Note_off_c, 0, 72, 64
2, 198720, Note_on_c, 0, 74, 64
2, 199800, Note_off_c, 0, 74, 64
2, 199800, Note_on_c, 0, 72, 64
2, 199920, Note_off_c, 0, 72, 64
2, 199920, Note_on_c, 0, 70, 64
2, 200040, Note_off_c, 0, 70, 64
2, 200040, Note_on_c, 0, 69, 64
2, 200160, Note_off_c, 0, 69, 64
2, 200160, Note_on_c, 0, 67, 64
2, 200400, Note_off_c, 0, 67, 64
2, 200880, Note_on_c, 0, 86, 64
2, 201360, Note_off_c, 0, 86, 64
2, 201360, Note_on_c, 0, 85, 64
2, 201600, Note_off_c, 0, 85, 64
2, 201600, Note_on_c, 0, 86, 64
2, 201840, Note_off_c, 0, 86, 64
2, 201840, Note_on_c, 0, 81, 64
2, 202080, Note_off_c, 0, 81, 64
2, 202080, Note_on_c, 0, 82, 64
2, 202800, Note_off_c, 0, 82, 64
2, 202800, Note_on_c, 0, 81, 64
2, 203040, Note_off_c, 0, 81, 64
2, 203280, Note_on_c, 0, 80, 64
2, 203760, Note_off_c, 0, 80, 64
2, 203760, Note_on_c, 0, 79, 64
2, 204000, Note_off_c, 0, 79, 64
2, 204240, Note_on_c, 0, 79, 64
2, 204720, Note_off_c, 0, 79, 64
2, 204720, Note_on_c, 0, 78, 64
2, 204960, Note_off_c, 0, 78, 64
2, 205080, Note_on_c, 0, 74, 64
2, 205200, Note_off_c, 0, 74, 64
2, 205200, Note_on_c, 0, 75, 64
2, 205320, Note_off_c, 0, 75, 64
2, 205320, Note_on_c, 0, 79, 64
2, 205440, Note_off_c, 0, 79, 64
2, 205440, Note_on_c, 0, 84, 64
2, 205560, Note_off_c, 0, 84, 64
2, 205560, Note_on_c, 0, 81, 64
2, 205680, Note_off_c, 0, 81, 64
2, 205680, Note_on_c, 0, 78, 64
2, 205800, Note_off_c, 0, 78, 64
2, 205800, Note_on_c, 0, 84, 64
2, 205920, Note_off_c, 0, 84, 64
2, 205920, Note_on_c, 0, 82, 64
2, 206040, Note_off_c, 0, 82, 64
2, 206040, Note_on_c, 0, 79, 64
2, 206160, Note_off_c, 0, 79, 64
2, 206160, Note_on_c, 0, 81, 64
2, 206280, Note_off_c, 0, 81, 64
2, 206280, Note_on_c, 0, 78, 64
2, 206400, Note_off_c, 0, 78, 64
2, 206400, Note_on_c, 0, 79, 64
2, 206520, Note_off_c, 0, 79, 64
2, 206520, Note_on_c, 0, 74, 64
2, 206640, Note_off_c, 0, 74, 64
2, 206640, Note_on_c, 0, 79, 64
2, 207120, Note_off_c, 0, 79, 64
2, 207120, Note_on_c, 0, 78, 64
2, 207360, Note_off_c, 0, 78, 64
2, 207360, Note_on_c, 0, 79, 64
2, 207840, Note_off_c, 0, 79, 64
2, 208080, Note_on_c, 0, 67, 64
2, 208560, Note_off_c, 0, 67, 64
2, 208560, Note_on_c, 0, 65, 64
2, 208800, Note_off_c, 0, 65, 64
2, 209040, Note_on_c, 0, 70, 64
2, 209400, Note_off_c, 0, 70, 64
2, 209400, Note_on_c, 0, 68, 64
2, 209520, Note_off_c, 0, 68, 64
2, 209520, Note_on_c, 0, 70, 64
2, 209640, Note_off_c, 0, 70, 64
2, 209640, Note_on_c, 0, 79, 64
2, 209760, Note_off_c, 0, 79, 64
2, 209760, Note_on_c, 0, 79, 64
2, 209880, Note_off_c, 0, 79, 64
2, 209880, Note_on_c, 0, 77, 64
2, 210000, Note_off_c, 0, 77, 64
2, 210000, Note_on_c, 0, 79, 64
2, 210120, Note_off_c, 0, 79, 64
2, 210120, Note_on_c, 0, 70, 64
2, 210240, Note_off_c, 0, 70, 64
2, 210240, Note_on_c, 0, 70, 64
2, 210480, Note_off_c, 0, 70, 64
2, 210480, Note_on_c, 0, 68, 64
2, 210720, Note_off_c, 0, 68, 64
2, 210960, Note_on_c, 0, 77, 64
2, 211320, Note_off_c, 0, 77, 64
2, 211320, Note_on_c, 0, 75, 64
2, 211440, Note_off_c, 0, 75, 64
2, 211440, Note_on_c, 0, 77, 64
2, 211560, Note_off_c, 0, 77, 64
2, 211560, Note_on_c, 0, 86, 64
2, 211680, Note_off_c, 0, 86, 64
2, 211680, Note_on_c, 0, 86, 64
2, 211800, Note_off_c, 0, 86, 64
2, 211800, Note_on_c, 0, 84, 64
2, 211920, Note_off_c, 0, 84, 64
2, 211920, Note_on_c, 0, 86, 64
2, 212040, Note_off_c, 0, 86, 64
2, 212040, Note_on_c, 0, 77, 64
2, 212160, Note_off_c, 0, 77, 64
2, 212160, Note_on_c, 0, 75, 64
2, 212280, Note_off_c, 0, 75, 64
2, 212280, Note_on_c, 0, 74, 64
2, 212400, Note_off_c, 0, 74, 64
2, 212400, Note_on_c, 0, 75, 64
2, 212520, Note_off_c, 0, 75, 64
2, 212520, Note_on_c, 0, 84, 64
2, 212640, Note_off_c, 0, 84, 64
2, 212640, Note_on_c, 0, 84, 64
2, 212760, Note_off_c, 0, 84, 64
2, 212760, Note_on_c, 0, 83, 64
2, 212880, Note_off_c, 0, 83, 64
2, 212880, Note_on_c, 0, 84, 64
2, 213000, Note_off_c, 0, 84, 64
2, 213000, Note_on_c, 0, 75, 64
2, 213120, Note_off_c, 0, 75, 64
2, 213120, Note_on_c, 0, 73, 64
2, 213240, Note_off_c, 0, 73, 64
2, 213240, Note_on_c, 0, 72, 64
2, 213360, Note_off_c, 0, 72, 64
2, 213360, Note_on_c, 0, 73, 64
2, 213480, Note_off_c, 0, 73, 64
2, 213480, Note_on_c, 0, 82, 64
2, 213600, Note_off_c, 0, 82, 64
2, 213600, Note_on_c, 0, 82, 64
2, 213720, Note_off_c, 0, 82, 64
2, 213720, Note_on_c, 0, 80, 64
2, 213840, Note_off_c, 0, 80, 64
2, 213840, Note_on_c, 0, 82, 64
2, 213960, Note_off_c, 0, 82, 64
2, 213960, Note_on_c, 0, 73, 64
2, 214080, Note_off_c, 0, 73, 64
2, 214080, Note_on_c, 0, 72, 64
2, 214200, Note_off_c, 0, 72, 64
2, 214200, Note_on_c, 0, 70, 64
2, 214320, Note_off_c, 0, 70, 64
2, 214320, Note_on_c, 0, 72, 64
2, 214440, Note_off_c, 0, 72, 64
2, 214440, Note_on_c, 0, 80, 64
2, 214560, Note_off_c, 0, 80, 64
2, 214560, Note_on_c, 0, 80, 64
2, 214680, Note_off_c, 0, 80, 64
2, 214680, Note_on_c, 0, 79, 64
2, 214800, Note_off_c, 0, 79, 64
2, 214800, Note_on_c, 0, 80, 64
2, 214920, Note_off_c, 0, 80, 64
2, 214920, Note_on_c, 0, 72, 64
2, 215040, Note_off_c, 0, 72, 64
2, 215040, Note_on_c, 0, 70, 64
2, 215160, Note_off_c, 0, 70, 64
2, 215160, Note_on_c, 0, 68, 64
2, 215280, Note_off_c, 0, 68, 64
2, 215280, Note_on_c, 0, 70, 64
2, 215400, Note_off_c, 0, 70, 64
2, 215400, Note_on_c, 0, 79, 64
2, 215520, Note_off_c, 0, 79, 64
2, 215520, Note_on_c, 0, 79, 64
2, 215640, Note_off_c, 0, 79, 64
2, 215640, Note_on_c, 0, 77, 64
2, 215760, Note_off_c, 0, 77, 64
2, 215760, Note_on_c, 0, 79, 64
2, 215880, Note_off_c, 0, 79, 64
2, 215880, Note_on_c, 0, 70, 64
2, 216000, Note_off_c, 0, 70, 64
2, 216000, Note_on_c, 0, 70, 64
2, 216240, Note_off_c, 0, 70, 64
2, 216240, Note_on_c, 0, 68, 64
2, 216480, Note_off_c, 0, 68, 64
2, 216720, Note_on_c, 0, 77, 64
2, 217200, Note_off_c, 0, 77, 64
2, 217200, Note_on_c, 0, 75, 64
2, 217440, Note_off_c, 0, 75, 64
2, 217680, Note_on_c, 0, 75, 64
2, 218160, Note_off_c, 0, 75, 64
2, 218160, Note_on_c, 0, 74, 64
2, 218400, Note_off_c, 0, 74, 64
2, 218640, Note_on_c, 0, 67, 64
2, 218880, Note_off_c, 0, 67, 64
2, 218880, Note_on_c, 0, 72, 64
2, 219240, Note_off_c, 0, 72, 64
2, 219240, Note_on_c, 0, 74, 64
2, 219300, Note_off_c, 0, 74, 64
2, 219300, Note_on_c, 0, 75, 64
2, 219360, Note_off_c, 0, 75, 64
2, 219360, Note_on_c, 0, 74, 64
2, 219720, Note_off_c, 0, 74, 64
2, 219720, Note_on_c, 0, 75, 64
2, 219780, Note_off_c, 0, 75, 64
2, 219780, Note_on_c, 0, 77, 64
2, 219840, Note_off_c, 0, 77, 64
2, 219840, Note_on_c, 0, 75, 64
2, 219960, Note_off_c, 0, 75, 64
2, 219960, Note_on_c, 0, 74, 64
2, 220080, Note_off_c, 0, 74, 64
2, 220080, Note_on_c, 0, 72, 64
2, 220200, Note_off_c, 0, 72, 64
2, 220200, Note_on_c, 0, 71, 64
2, 220320, Note_off_c, 0, 71, 64
2, 220320, Note_on_c, 0, 72, 64
2, 220440, Note_off_c, 0, 72, 64
2, 220440, Note_on_c, 0, 79, 64
2, 220560, Note_off_c, 0, 79, 64
2, 220560, Note_on_c, 0, 75, 64
2, 220680, Note_off_c, 0, 75, 64
2, 220680, Note_on_c, 0, 72, 64
2, 220800, Note_off_c, 0, 72, 64
2, 220800, Note_on_c, 0, 71, 64
2, 220920, Note_off_c, 0, 71, 64
2, 220920, Note_on_c, 0, 67, 64
2, 221040, Note_off_c, 0, 67, 64
2, 221040, Note_on_c, 0, 71, 64
2, 221160, Note_off_c, 0, 71, 64
2, 221160, Note_on_c, 0, 74, 64
2, 221280, Note_off_c, 0, 74, 64
2, 221280, Note_on_c, 0, 72, 64
2, 221400, Note_off_c, 0, 72, 64
2, 221400, Note_on_c, 0, 71, 64
2, 221520, Note_off_c, 0, 71, 64
2, 221520, Note_on_c, 0, 72, 64
2, 221640, Note_off_c, 0, 72, 64
2, 221640, Note_on_c, 0, 75, 64
2, 221760, Note_off_c, 0, 75, 64
2, 221760, Note_on_c, 0, 74, 64
2, 221880, Note_off_c, 0, 74, 64
2, 221880, Note_on_c, 0, 72, 64
2, 222000, Note_off_c, 0, 72, 64
2, 222000, Note_on_c, 0, 71, 64
2, 222120, Note_off_c, 0, 71, 64
2, 222120, Note_on_c, 0, 69, 64
2, 222240, Note_off_c, 0, 69, 64
2, 222240, Note_on_c, 0, 67, 64
2, 222360, Note_off_c, 0, 67, 64
2, 222360, Note_on_c, 0, 74, 64
2, 222480, Note_off_c, 0, 74, 64
2, 222480, Note_on_c, 0, 75, 64
2, 222600, Note_off_c, 0, 75, 64
2, 222600, Note_on_c, 0, 71, 64
2, 222720, Note_off_c, 0, 71, 64
2, 222720, Note_on_c, 0, 72, 64
2, 222840, Note_off_c, 0, 72, 64
2, 222840, Note_on_c, 0, 71, 64
2, 222960, Note_off_c, 0, 71, 64
2, 222960, Note_on_c, 0, 72, 64
2, 223080, Note_off_c, 0, 72, 64
2, 223080, Note_on_c, 0, 80, 64
2, 223200, Note_off_c, 0, 80, 64
2, 223200, Note_on_c, 0, 80, 64
2, 223320, Note_off_c, 0, 80, 64
2, 223320, Note_on_c, 0, 79, 64
2, 223440, Note_off_c, 0, 79, 64
2, 223440, Note_on_c, 0, 80, 64
2, 223560, Note_off_c, 0, 80, 64
2, 223560, Note_on_c, 0, 70, 64
2, 223680, Note_off_c, 0, 70, 64
2, 223680, Note_on_c, 0, 70, 64
2, 223800, Note_off_c, 0, 70, 64
2, 223800, Note_on_c, 0, 69, 64
2, 223920, Note_off_c, 0, 69, 64
2, 223920, Note_on_c, 0, 70, 64
2, 224040, Note_off_c, 0, 70, 64
2, 224040, Note_on_c, 0, 79, 64
2, 224160, Note_off_c, 0, 79, 64
2, 224160, Note_on_c, 0, 79, 64
2, 224280, Note_off_c, 0, 79, 64
2, 224280, Note_on_c, 0, 77, 64
2, 224400, Note_off_c, 0, 77, 64
2, 224400, Note_on_c, 0, 79, 64
2, 224520, Note_off_c, 0, 79, 64
2, 224520, Note_on_c, 0, 68, 64
2, 224640, Note_off_c, 0, 68, 64
2, 224640, Note_on_c, 0, 68, 64
2, 224760, Note_off_c, 0, 68, 64
2, 224760, Note_on_c, 0, 67, 64
2, 224880, Note_off_c, 0, 67, 64
2, 224880, Note_on_c, 0, 68, 64
2, 225000, Note_off_c, 0, 68, 64
2, 225000, Note_on_c, 0, 77, 64
2, 225120, Note_off_c, 0, 77, 64
2, 225120, Note_on_c, 0, 77, 64
2, 225240, Note_off_c, 0, 77, 64
2, 225240, Note_on_c, 0, 76, 64
2, 225360, Note_off_c, 0, 76, 64
2, 225360, Note_on_c, 0, 77, 64
2, 225480, Note_off_c, 0, 77, 64
2, 225480, Note_on_c, 0, 68, 64
2, 225600, Note_off_c, 0, 68, 64
2, 225600, Note_on_c, 0, 68, 64
2, 225840, Note_off_c, 0, 68, 64
2, 225840, Note_on_c, 0, 67, 64
2, 226080, Note_off_c, 0, 67, 64
2, 226320, Note_on_c, 0, 67, 64
2, 226560, Note_off_c, 0, 67, 64
2, 226560, Note_on_c, 0, 80, 64
2, 226620, Note_off_c, 0, 80, 64
2, 226620, Note_on_c, 0, 79, 64
2, 226680, Note_off_c, 0, 79, 64
2, 226680, Note_on_c, 0, 80, 64
2, 226740, Note_off_c, 0, 80, 64
2, 226740, Note_on_c, 0, 79, 64
2, 226800, Note_off_c, 0, 79, 64
2, 226800, Note_on_c, 0, 80, 64
2, 226860, Note_off_c, 0, 80, 64
2, 226860, Note_on_c, 0, 79, 64
2, 226920, Note_off_c, 0, 79, 64
2, 226920, Note_on_c, 0, 77, 64
2, 226980, Note_off_c, 0, 77, 64
2, 226980, Note_on_c, 0, 75, 64
2, 227040, Note_off_c, 0, 75, 64
2, 227040, Note_on_c, 0, 79, 64
2, 227100, Note_off_c, 0, 79, 64
2, 227100, Note_on_c, 0, 77, 64
2, 227160, Note_off_c, 0, 77, 64
2, 227160, Note_on_c, 0, 79, 64
2, 227220, Note_off_c, 0, 79, 64
2, 227220, Note_on_c, 0, 77, 64
2, 227280, Note_off_c, 0, 77, 64
2, 227280, Note_on_c, 0, 79, 64
2, 227340, Note_off_c, 0, 79, 64
2, 227340, Note_on_c, 0, 77, 64
2, 227400, Note_off_c, 0, 77, 64
2, 227400, Note_on_c, 0, 75, 64
2, 227460, Note_off_c, 0, 75, 64
2, 227460, Note_on_c, 0, 74, 64
2, 227520, Note_off_c, 0, 74, 64
2, 227520, Note_on_c, 0, 75, 64
2, 227640, Note_off_c, 0, 75, 64
2, 227640, Note_on_c, 0, 77, 64
2, 227760, Note_off_c, 0, 77, 64
2, 227760, Note_on_c, 0, 79, 64
2, 227880, Note_off_c, 0, 79, 64
2, 227880, Note_on_c, 0, 75, 64
2, 228000, Note_off_c, 0, 75, 64
2, 228000, Note_on_c, 0, 72, 64
2, 228480, Note_off_c, 0, 72, 64
2, 228960, Note_on_c, 0, 77, 64
2, 229080, Note_off_c, 0, 77, 64
2, 229080, Note_on_c, 0, 82, 64
2, 229200, Note_off_c, 0, 82, 64
2, 229200, Note_on_c, 0, 87, 64
2, 229320, Note_off_c, 0, 87, 64
2, 229320, Note_on_c, 0, 86, 64
2, 229440, Note_off_c, 0, 86, 64
2, 229920, Note_on_c, 0, 75, 64
2, 230040, Note_off_c, 0, 75, 64
2, 230040, Note_on_c, 0, 79, 64
2, 230160, Note_off_c, 0, 79, 64
2, 230160, Note_on_c, 0, 86, 64
2, 230280, Note_off_c, 0, 86, 64
2, 230280, Note_on_c, 0, 84, 64
2, 230400, Note_off_c, 0, 84, 64
2, 230880, Note_on_c, 0, 74, 64
2, 231000, Note_off_c, 0, 74, 64
2, 231000, Note_on_c, 0, 77, 64
2, 231120, Note_off_c, 0, 77, 64
2, 231120, Note_on_c, 0, 84, 64
2, 231240, Note_off_c, 0, 84, 64
2, 231240, Note_on_c, 0, 83, 64
2, 231360, Note_off_c, 0, 83, 64
2, 231960, Note_on_c, 0, 72, 64
2, 232080, Note_off_c, 0, 72, 64
2, 232080, Note_on_c, 0, 74, 64
2, 232200, Note_off_c, 0, 74, 64
2, 232200, Note_on_c, 0, 75, 64
2, 232320, Note_off_c, 0, 75, 64
2, 232320, Note_on_c, 0, 65, 64
2, 232440, Note_off_c, 0, 65, 64
2, 232440, Note_on_c, 0, 68, 64
2, 232560, Note_off_c, 0, 68, 64
2, 232560, Note_on_c, 0, 75, 64
2, 232680, Note_off_c, 0, 75, 64
2, 232680, Note_on_c, 0, 74, 64
2, 232800, Note_off_c, 0, 74, 64
2, 232800, Note_on_c, 0, 67, 64
2, 232920, Note_off_c, 0, 67, 64
2, 232920, Note_on_c, 0, 70, 64
2, 233040, Note_off_c, 0, 70, 64
2, 233040, Note_on_c, 0, 77, 64
2, 233160, Note_off_c, 0, 77, 64
2, 233160, Note_on_c, 0, 76, 64
2, 233280, Note_off_c, 0, 76, 64
2, 233280, Note_on_c, 0, 77, 64
2, 233400, Note_off_c, 0, 77, 64
2, 233400, Note_on_c, 0, 79, 64
2, 233520, Note_off_c, 0, 79, 64
2, 233520, Note_on_c, 0, 80, 64
2, 233640, Note_off_c, 0, 80, 64
2, 233640, Note_on_c, 0, 77, 64
2, 233760, Note_off_c, 0, 77, 64
2, 233760, Note_on_c, 0, 72, 64
2, 233880, Note_off_c, 0, 72, 64
2, 233880, Note_on_c, 0, 74, 64
2, 234000, Note_off_c, 0, 74, 64
2, 234000, Note_on_c, 0, 75, 64
2, 234120, Note_off_c, 0, 75, 64
2, 234120, Note_on_c, 0, 72, 64
2, 234240, Note_off_c, 0, 72, 64
2, 234240, Note_on_c, 0, 69, 64
2, 234360, Note_off_c, 0, 69, 64
2, 234360, Note_on_c, 0, 72, 64
2, 234480, Note_off_c, 0, 72, 64
2, 234480, Note_on_c, 0, 75, 64
2, 234600, Note_off_c, 0, 75, 64
2, 234600, Note_on_c, 0, 74, 64
2, 234720, Note_off_c, 0, 74, 64
2, 234720, Note_on_c, 0, 72, 64
2, 234840, Note_off_c, 0, 72, 64
2, 234840, Note_on_c, 0, 75, 64
2, 234960, Note_off_c, 0, 75, 64
2, 234960, Note_on_c, 0, 79, 64
2, 235080, Note_off_c, 0, 79, 64
2, 235080, Note_on_c, 0, 78, 64
2, 235200, Note_off_c, 0, 78, 64
2, 235200, Note_on_c, 0, 79, 64
2, 235440, Note_off_c, 0, 79, 64
2, 235440, Note_on_c, 0, 80, 64
2, 235680, Note_off_c, 0, 80, 64
2, 235920, Note_on_c, 0, 86, 64
2, 236280, Note_off_c, 0, 86, 64
2, 236280, Note_on_c, 0, 87, 64
2, 236400, Note_off_c, 0, 87, 64
2, 236400, Note_on_c, 0, 77, 64
2, 236760, Note_off_c, 0, 77, 64
2, 236760, Note_on_c, 0, 86, 64
2, 236880, Note_off_c, 0, 86, 64
2, 236880, Note_on_c, 0, 75, 64
2, 237240, Note_off_c, 0, 75, 64
2, 237240, Note_on_c, 0, 84, 64
2, 237360, Note_off_c, 0, 84, 64
2, 237360, Note_on_c, 0, 74, 64
2, 237600, Note_off_c, 0, 74, 64
2, 237840, Note_on_c, 0, 83, 64
2, 238080, Note_off_c, 0, 83, 64
2, 238080, Note_on_c, 0, 84, 64
2, 238320, Note_off_c, 0, 84, 64
2, 238320, Note_on_c, 0, 72, 64
2, 238560, Note_off_c, 0, 72, 64
2, 238560, Note_on_c, 0, 67, 64
2, 238800, Note_off_c, 0, 67, 64
2, 238800, Note_on_c, 0, 71, 64
2, 239040, Note_off_c, 0, 71, 64
2, 239040, Note_on_c, 0, 72, 64
2, 239520, Note_off_c, 0, 72, 64
2, 239520, End_track
3, 0, Start_track
3, 0, Text_t, "ViolinoT"
3, 720, Note_on_c, 0, 67, 64
3, 960, Note_off_c, 0, 67, 64
3, 960, Note_on_c, 0, 72, 64
3, 1320, Note_off_c, 0, 72, 64
3, 1320, Note_on_c, 0, 74, 64
3, 1380, Note_off_c, 0, 74, 64
3, 1380, Note_on_c, 0, 75, 64
3, 1440, Note_off_c, 0, 75, 64
3, 1440, Note_on_c, 0, 74, 64
3, 1800, Note_off_c, 0, 74, 64
3, 1800, Note_on_c, 0, 75, 64
3, 1860, Note_off_c, 0, 75, 64
3, 1860, Note_on_c, 0, 77, 64
3, 1920, Note_off_c, 0, 77, 64
3, 1920, Note_on_c, 0, 75, 64
3, 2040, Note_off_c, 0, 75, 64
3, 2040, Note_on_c, 0, 74, 64
3, 2160, Note_off_c, 0, 74, 64
3, 2160, Note_on_c, 0, 72, 64
3, 2280, Note_off_c, 0, 72, 64
3, 2280, Note_on_c, 0, 71, 64
3, 2400, Note_off_c, 0, 71, 64
3, 2400, Note_on_c, 0, 72, 64
3, 2520, Note_off_c, 0, 72, 64
3, 2520, Note_on_c, 0, 79, 64
3, 2640, Note_off_c, 0, 79, 64
3, 2640, Note_on_c, 0, 75, 64
3, 2760, Note_off_c, 0, 75, 64
3, 2760, Note_on_c, 0, 72, 64
3, 2880, Note_off_c, 0, 72, 64
3, 2880, Note_on_c, 0, 71, 64
3, 3000, Note_off_c, 0, 71, 64
3, 3000, Note_on_c, 0, 67, 64
3, 3120, Note_off_c, 0, 67, 64
3, 3120, Note_on_c, 0, 71, 64
3, 3240, Note_off_c, 0, 71, 64
3, 3240, Note_on_c, 0, 74, 64
3, 3360, Note_off_c, 0, 74, 64
3, 3360, Note_on_c, 0, 72, 64
3, 3480, Note_off_c, 0, 72, 64
3, 3480, Note_on_c, 0, 71, 64
3, 3600, Note_off_c, 0, 71, 64
3, 3600, Note_on_c, 0, 72, 64
3, 3720, Note_off_c, 0, 72, 64
3, 3720, Note_on_c, 0, 75, 64
3, 3840, Note_off_c, 0, 75, 64
3, 3840, Note_on_c, 0, 74, 64
3, 3960, Note_off_c, 0, 74, 64
3, 3960, Note_on_c, 0, 72, 64
3, 4080, Note_off_c, 0, 72, 64
3, 4080, Note_on_c, 0, 71, 64
3, 4200, Note_off_c, 0, 71, 64
3, 4200, Note_on_c, 0, 69, 64
3, 4320, Note_off_c, 0, 69, 64
3, 4320, Note_on_c, 0, 67, 64
3, 4440, Note_off_c, 0, 67, 64
3, 4440, Note_on_c, 0, 74, 64
3, 4560, Note_off_c, 0, 74, 64
3, 4560, Note_on_c, 0, 75, 64
3, 4680, Note_off_c, 0, 75, 64
3, 4680, Note_on_c, 0, 71, 64
3, 4800, Note_off_c, 0, 71, 64
3, 4800, Note_on_c, 0, 72, 64
3, 4920, Note_off_c, 0, 72, 64
3, 4920, Note_on_c, 0, 71, 64
3, 5040, Note_off_c, 0, 71, 64
3, 5040, Note_on_c, 0, 72, 64
3, 5160, Note_off_c, 0, 72, 64
3, 5160, Note_on_c, 0, 80, 64
3, 5280, Note_off_c, 0, 80, 64
3, 5280, Note_on_c, 0, 80, 64
3, 5400, Note_off_c, 0, 80, 64
3, 5400, Note_on_c, 0, 79, 64
3, 5520, Note_off_c, 0, 79, 64
3, 5520, Note_on_c, 0, 80, 64
3, 5640, Note_off_c, 0, 80, 64
3, 5640, Note_on_c, 0, 70, 64
3, 5760, Note_off_c, 0, 70, 64
3, 5760, Note_on_c, 0, 70, 64
3, 5880, Note_off_c, 0, 70, 64
3, 5880, Note_on_c, 0, 69, 64
3, 6000, Note_off_c, 0, 69, 64
3, 6000, Note_on_c, 0, 70, 64
3, 6120, Note_off_c, 0, 70, 64
3, 6120, Note_on_c, 0, 79, 64
3, 6240, Note_off_c, 0, 79, 64
3, 6240, Note_on_c, 0, 79, 64
3, 6360, Note_off_c, 0, 79, 64
3, 6360, Note_on_c, 0, 78, 64
3, 6480, Note_off_c, 0, 78, 64
3, 6480, Note_on_c, 0, 79, 64
3, 6600, Note_off_c, 0, 79, 64
3, 6600, Note_on_c, 0, 68, 64
3, 6720, Note_off_c, 0, 68, 64
3, 6720, Note_on_c, 0, 68, 64
3, 6840, Note_off_c, 0, 68, 64
3, 6840, Note_on_c, 0, 67, 64
3, 6960, Note_off_c, 0, 67, 64
3, 6960, Note_on_c, 0, 68, 64
3, 7080, Note_off_c, 0, 68, 64
3, 7080, Note_on_c, 0, 77, 64
3, 7200, Note_off_c, 0, 77, 64
3, 7200, Note_on_c, 0, 77, 64
3, 7320, Note_off_c, 0, 77, 64
3, 7320, Note_on_c, 0, 76, 64
3, 7440, Note_off_c, 0, 76, 64
3, 7440, Note_on_c, 0, 77, 64
3, 7560, Note_off_c, 0, 77, 64
3, 7560, Note_on_c, 0, 68, 64
3, 7680, Note_off_c, 0, 68, 64
3, 7680, Note_on_c, 0, 68, 64
3, 7920, Note_off_c, 0, 68, 64
3, 7920, Note_on_c, 0, 67, 64
3, 8160, Note_off_c, 0, 67, 64
3, 8400, Note_on_c, 0, 67, 64
3, 8640, Note_off_c, 0, 67, 64
3, 8640, Note_on_c, 0, 80, 64
3, 8700, Note_off_c, 0, 80, 64
3, 8700, Note_on_c, 0, 79, 64
3, 8760, Note_off_c, 0, 79, 64
3, 8760, Note_on_c, 0, 80, 64
3, 8820, Note_off_c, 0, 80, 64
3, 8820, Note_on_c, 0, 79, 64
3, 8880, Note_off_c, 0, 79, 64
3, 8880, Note_on_c, 0, 80, 64
3, 8940, Note_off_c, 0, 80, 64
3, 8940, Note_on_c, 0, 79, 64
3, 9000, Note_off_c, 0, 79, 64
3, 9000, Note_on_c, 0, 77, 64
3, 9060, Note_off_c, 0, 77, 64
3, 9060, Note_on_c, 0, 75, 64
3, 9120, Note_off_c, 0, 75, 64
3, 9120, Note_on_c, 0, 79, 64
3, 9180, Note_off_c, 0, 79, 64
3, 9180, Note_on_c, 0, 77, 64
3, 9240, Note_off_c, 0, 77, 64
3, 9240, Note_on_c, 0, 79, 64
3, 9300, Note_off_c, 0, 79, 64
3, 9300, Note_on_c, 0, 77, 64
3, 9360, Note_off_c, 0, 77, 64
3, 9360, Note_on_c, 0, 79, 64
3, 9420, Note_off_c, 0, 79, 64
3, 9420, Note_on_c, 0, 77, 64
3, 9480, Note_off_c, 0, 77, 64
3, 9480, Note_on_c, 0, 75, 64
3, 9540, Note_off_c, 0, 75, 64
3, 9540, Note_on_c, 0, 74, 64
3, 9600, Note_off_c, 0, 74, 64
3, 9600, Note_on_c, 0, 75, 64
3, 9720, Note_off_c, 0, 75, 64
3, 9720, Note_on_c, 0, 77, 64
3, 9840, Note_off_c, 0, 77, 64
3, 9840, Note_on_c, 0, 79, 64
3, 9960, Note_off_c, 0, 79, 64
3, 9960, Note_on_c, 0, 75, 64
3, 10080, Note_off_c, 0, 75, 64
3, 10080, Note_on_c, 0, 72, 64
3, 10200, Note_off_c, 0, 72, 64
3, 10200, Note_on_c, 0, 74, 64
3, 10320, Note_off_c, 0, 74, 64
3, 10320, Note_on_c, 0, 75, 64
3, 10440, Note_off_c, 0, 75, 64
3, 10440, Note_on_c, 0, 72, 64
3, 10560, Note_off_c, 0, 72, 64
3, 10560, Note_on_c, 0, 74, 64
3, 10800, Note_off_c, 0, 74, 64
3, 10800, Note_on_c, 0, 67, 64
3, 11280, Note_off_c, 0, 67, 64
3, 11280, Note_on_c, 0, 66, 64
3, 11520, Note_off_c, 0, 66, 64
3, 11520, Note_on_c, 0, 67, 64
3, 11760, Note_off_c, 0, 67, 64
3, 11760, Note_on_c, 0, 62, 64
3, 12000, Note_off_c, 0, 62, 64
3, 12000, Note_on_c, 0, 74, 64
3, 12720, Note_off_c, 0, 74, 64
3, 12720, Note_on_c, 0, 62, 64
3, 12960, Note_off_c, 0, 62, 64
3, 12960, Note_on_c, 0, 74, 64
3, 13680, Note_off_c, 0, 74, 64
3, 13680, Note_on_c, 0, 81, 64
3, 13920, Note_off_c, 0, 81, 64
3, 13920, Note_on_c, 0, 78, 64
3, 14160, Note_off_c, 0, 78, 64
3, 14160, Note_on_c, 0, 74, 64
3, 14640, Note_off_c, 0, 74, 64
3, 14640, Note_on_c, 0, 67, 64
3, 14880, Note_off_c, 0, 67, 64
3, 14880, Note_on_c, 0, 72, 64
3, 15000, Note_off_c, 0, 72, 64
3, 15000, Note_on_c, 0, 70, 64
3, 15120, Note_off_c, 0, 70, 64
3, 15120, Note_on_c, 0, 72, 64
3, 15600, Note_off_c, 0, 72, 64
3, 15600, Note_on_c, 0, 65, 64
3, 15840, Note_off_c, 0, 65, 64
3, 15840, Note_on_c, 0, 70, 64
3, 15960, Note_off_c, 0, 70, 64
3, 15960, Note_on_c, 0, 69, 64
3, 16080, Note_off_c, 0, 69, 64
3, 16080, Note_on_c, 0, 70, 64
3, 16560, Note_off_c, 0, 70, 64
3, 16560, Note_on_c, 0, 67, 64
3, 16800, Note_off_c, 0, 67, 64
3, 16800, Note_on_c, 0, 63, 64
3, 17040, Note_off_c, 0, 63, 64
3, 17040, Note_on_c, 0, 68, 64
3, 17280, Note_off_c, 0, 68, 64
3, 17280, Note_on_c, 0, 66, 64
3, 17400, Note_off_c, 0, 66, 64
3, 17400, Note_on_c, 0, 62, 64
3, 17520, Note_off_c, 0, 62, 64
3, 17520, Note_on_c, 0, 66, 64
3, 17640, Note_off_c, 0, 66, 64
3, 17640, Note_on_c, 0, 69, 64
3, 17760, Note_off_c, 0, 69, 64
3, 17760, Note_on_c, 0, 72, 64
3, 17880, Note_off_c, 0, 72, 64
3, 17880, Note_on_c, 0, 78, 64
3, 18000, Note_off_c, 0, 78, 64
3, 18000, Note_on_c, 0, 81, 64
3, 18120, Note_off_c, 0, 81, 64
3, 18120, Note_on_c, 0, 72, 64
3, 18240, Note_off_c, 0, 72, 64
3, 18240, Note_on_c, 0, 70, 64
3, 18360, Note_off_c, 0, 70, 64
3, 18360, Note_on_c, 0, 74, 64
3, 18480, Note_off_c, 0, 74, 64
3, 18480, Note_on_c, 0, 79, 64
3, 18960, Note_off_c, 0, 79, 64
3, 18960, Note_on_c, 0, 78, 64
3, 19200, Note_off_c, 0, 78, 64
3, 19200, Note_on_c, 0, 79, 64
3, 19440, Note_off_c, 0, 79, 64
3, 19440, Note_on_c, 0, 67, 64
3, 19680, Note_off_c, 0, 67, 64
3, 19680, Note_on_c, 0, 79, 64
3, 20400, Note_off_c, 0, 79, 64
3, 20400, Note_on_c, 0, 77, 64
3, 20520, Note_off_c, 0, 77, 64
3, 20520, Note_on_c, 0, 75, 64
3, 20640, Note_off_c, 0, 75, 64
3, 20640, Note_on_c, 0, 77, 64
3, 21360, Note_off_c, 0, 77, 64
3, 21360, Note_on_c, 0, 67, 64
3, 21480, Note_off_c, 0, 67, 64
3, 21480, Note_on_c, 0, 70, 64
3, 21600, Note_off_c, 0, 70, 64
3, 21600, Note_on_c, 0, 75, 64
3, 22320, Note_off_c, 0, 75, 64
3, 22320, Note_on_c, 0, 74, 64
3, 22440, Note_off_c, 0, 74, 64
3, 22440, Note_on_c, 0, 72, 64
3, 22560, Note_off_c, 0, 72, 64
3, 22560, Note_on_c, 0, 74, 64
3, 23280, Note_off_c, 0, 74, 64
3, 23280, Note_on_c, 0, 63, 64
3, 23400, Note_off_c, 0, 63, 64
3, 23400, Note_on_c, 0, 67, 64
3, 23520, Note_off_c, 0, 67, 64
3, 23520, Note_on_c, 0, 72, 64
3, 23640, Note_off_c, 0, 72, 64
3, 23640, Note_on_c, 0, 74, 64
3, 23760, Note_off_c, 0, 74, 64
3, 23760, Note_on_c, 0, 75, 64
3, 23880, Note_off_c, 0, 75, 64
3, 23880, Note_on_c, 0, 72, 64
3, 24000, Note_off_c, 0, 72, 64
3, 24000, Note_on_c, 0, 73, 64
3, 24120, Note_off_c, 0, 73, 64
3, 24120, Note_on_c, 0, 72, 64
3, 24240, Note_off_c, 0, 72, 64
3, 24240, Note_on_c, 0, 73, 64
3, 24360, Note_off_c, 0, 73, 64
3, 24360, Note_on_c, 0, 65, 64
3, 24480, Note_off_c, 0, 65, 64
3, 24480, Note_on_c, 0, 63, 64
3, 24600, Note_off_c, 0, 63, 64
3, 24600, Note_on_c, 0, 62, 64
3, 24720, Note_off_c, 0, 62, 64
3, 24720, Note_on_c, 0, 63, 64
3, 24840, Note_off_c, 0, 63, 64
3, 24840, Note_on_c, 0, 73, 64
3, 24960, Note_off_c, 0, 73, 64
3, 24960, Note_on_c, 0, 72, 64
3, 25080, Note_off_c, 0, 72, 64
3, 25080, Note_on_c, 0, 73, 64
3, 25200, Note_off_c, 0, 73, 64
3, 25200, Note_on_c, 0, 75, 64
3, 25320, Note_off_c, 0, 75, 64
3, 25320, Note_on_c, 0, 72, 64
3, 25440, Note_off_c, 0, 72, 64
3, 25440, Note_on_c, 0, 68, 64
3, 25560, Note_off_c, 0, 68, 64
3, 25560, Note_on_c, 0, 70, 64
3, 25680, Note_off_c, 0, 70, 64
3, 25680, Note_on_c, 0, 72, 64
3, 25800, Note_off_c, 0, 72, 64
3, 25800, Note_on_c, 0, 68, 64
3, 25920, Note_off_c, 0, 68, 64
3, 25920, Note_on_c, 0, 70, 64
3, 26040, Note_off_c, 0, 70, 64
3, 26040, Note_on_c, 0, 68, 64
3, 26160, Note_off_c, 0, 68, 64
3, 26160, Note_on_c, 0, 70, 64
3, 26280, Note_off_c, 0, 70, 64
3, 26280, Note_on_c, 0, 61, 64
3, 26400, Note_off_c, 0, 61, 64
3, 26400, Note_on_c, 0, 60, 64
3, 26520, Note_off_c, 0, 60, 64
3, 26520, Note_on_c, 0, 59, 64
3, 26640, Note_off_c, 0, 59, 64
3, 26640, Note_on_c, 0, 60, 64
3, 26760, Note_off_c, 0, 60, 64
3, 26760, Note_on_c, 0, 70, 64
3, 26880, Note_off_c, 0, 70, 64
3, 26880, Note_on_c, 0, 68, 64
3, 27000, Note_off_c, 0, 68, 64
3, 27000, Note_on_c, 0, 70, 64
3, 27120, Note_off_c, 0, 70, 64
3, 27120, Note_on_c, 0, 72, 64
3, 27240, Note_off_c, 0, 72, 64
3, 27240, Note_on_c, 0, 68, 64
3, 27360, Note_off_c, 0, 68, 64
3, 27360, Note_on_c, 0, 65, 64
3, 27600, Note_off_c, 0, 65, 64
3, 27600, Note_on_c, 0, 80, 64
3, 27840, Note_off_c, 0, 80, 64
3, 27840, Note_on_c, 0, 79, 64
3, 28560, Note_off_c, 0, 79, 64
3, 28560, Note_on_c, 0, 72, 64
3, 28800, Note_off_c, 0, 72, 64
3, 28800, Note_on_c, 0, 77, 64
3, 29400, Note_off_c, 0, 77, 64
3, 29400, Note_on_c, 0, 75, 64
3, 29520, Note_off_c, 0, 75, 64
3, 29520, Note_on_c, 0, 74, 64
3, 29640, Note_off_c, 0, 74, 64
3, 29640, Note_on_c, 0, 77, 64
3, 29760, Note_off_c, 0, 77, 64
3, 29760, Note_on_c, 0, 75, 64
3, 29880, Note_off_c, 0, 75, 64
3, 29880, Note_on_c, 0, 77, 64
3, 30000, Note_off_c, 0, 77, 64
3, 30000, Note_on_c, 0, 79, 64
3, 30120, Note_off_c, 0, 79, 64
3, 30120, Note_on_c, 0, 75, 64
3, 30240, Note_off_c, 0, 75, 64
3, 30240, Note_on_c, 0, 72, 64
3, 30480, Note_off_c, 0, 72, 64
3, 30480, Note_on_c, 0, 72, 64
3, 30840, Note_off_c, 0, 72, 64
3, 30840, Note_on_c, 0, 71, 64
3, 30960, Note_off_c, 0, 71, 64
3, 30960, Note_on_c, 0, 72, 64
3, 31080, Note_off_c, 0, 72, 64
3, 31080, Note_on_c, 0, 75, 64
3, 31200, Note_off_c, 0, 75, 64
3, 31200, Note_on_c, 0, 72, 64
3, 31320, Note_off_c, 0, 72, 64
3, 31320, Note_on_c, 0, 71, 64
3, 31440, Note_off_c, 0, 71, 64
3, 31440, Note_on_c, 0, 72, 64
3, 31560, Note_off_c, 0, 72, 64
3, 31560, Note_on_c, 0, 75, 64
3, 31680, Note_off_c, 0, 75, 64
3, 31680, Note_on_c, 0, 74, 64
3, 31740, Note_off_c, 0, 74, 64
3, 31740, Note_on_c, 0, 72, 64
3, 31800, Note_off_c, 0, 72, 64
3, 31800, Note_on_c, 0, 74, 64
3, 31860, Note_off_c, 0, 74, 64
3, 31860, Note_on_c, 0, 72, 64
3, 31920, Note_off_c, 0, 72, 64
3, 31920, Note_on_c, 0, 71, 64
3, 32160, Note_off_c, 0, 71, 64
3, 33120, Note_on_c, 0, 60, 64
3, 33240, Note_off_c, 0, 60, 64
3, 33240, Note_on_c, 0, 65, 64
3, 33360, Note_off_c, 0, 65, 64
3, 33360, Note_on_c, 0, 70, 64
3, 33480, Note_off_c, 0, 70, 64
3, 33480, Note_on_c, 0, 69, 64
3, 33600, Note_off_c, 0, 69, 64
3, 34080, Note_on_c, 0, 58, 64
3, 34200, Note_off_c, 0, 58, 64
3, 34200, Note_on_c, 0, 62, 64
3, 34320, Note_off_c, 0, 62, 64
3, 34320, Note_on_c, 0, 69, 64
3, 34440, Note_off_c, 0, 69, 64
3, 34440, Note_on_c, 0, 67, 64
3, 34560, Note_off_c, 0, 67, 64
3, 35040, Note_on_c, 0, 57, 64
3, 35160, Note_off_c, 0, 57, 64
3, 35160, Note_on_c, 0, 62, 64
3, 35280, Note_off_c, 0, 62, 64
3, 35280, Note_on_c, 0, 67, 64
3, 35400, Note_off_c, 0, 67, 64
3, 35400, Note_on_c, 0, 66, 64
3, 35520, Note_off_c, 0, 66, 64
3, 35520, Note_on_c, 0, 55, 64
3, 36000, Note_off_c, 0, 55, 64
3, 36120, Note_on_c, 0, 67, 64
3, 36240, Note_off_c, 0, 67, 64
3, 36240, Note_on_c, 0, 69, 64
3, 36360, Note_off_c, 0, 69, 64
3, 36360, Note_on_c, 0, 70, 64
3, 36480, Note_off_c, 0, 70, 64
3, 36480, Note_on_c, 0, 60, 64
3, 36600, Note_off_c, 0, 60, 64
3, 36600, Note_on_c, 0, 63, 64
3, 36720, Note_off_c, 0, 63, 64
3, 36720, Note_on_c, 0, 70, 64
3, 36840, Note_off_c, 0, 70, 64
3, 36840, Note_on_c, 0, 69, 64
3, 36960, Note_off_c, 0, 69, 64
3, 36960, Note_on_c, 0, 62, 64
3, 37080, Note_off_c, 0, 62, 64
3, 37080, Note_on_c, 0, 65, 64
3, 37200, Note_off_c, 0, 65, 64
3, 37200, Note_on_c, 0, 72, 64
3, 37320, Note_off_c, 0, 72, 64
3, 37320, Note_on_c, 0, 71, 64
3, 37440, Note_off_c, 0, 71, 64
3, 37440, Note_on_c, 0, 72, 64
3, 37560, Note_off_c, 0, 72, 64
3, 37560, Note_on_c, 0, 74, 64
3, 37680, Note_off_c, 0, 74, 64
3, 37680, Note_on_c, 0, 75, 64
3, 37800, Note_off_c, 0, 75, 64
3, 37800, Note_on_c, 0, 72, 64
3, 37920, Note_off_c, 0, 72, 64
3, 37920, Note_on_c, 0, 67, 64
3, 38040, Note_off_c, 0, 67, 64
3, 38040, Note_on_c, 0, 69, 64
3, 38160, Note_off_c, 0, 69, 64
3, 38160, Note_on_c, 0, 70, 64
3, 38280, Note_off_c, 0, 70, 64
3, 38280, Note_on_c, 0, 67, 64
3, 38400, Note_off_c, 0, 67, 64
3, 38400, Note_on_c, 0, 64, 64
3, 38520, Note_off_c, 0, 64, 64
3, 38520, Note_on_c, 0, 67, 64
3, 38640, Note_off_c, 0, 67, 64
3, 38640, Note_on_c, 0, 70, 64
3, 38760, Note_off_c, 0, 70, 64
3, 38760, Note_on_c, 0, 69, 64
3, 38880, Note_off_c, 0, 69, 64
3, 38880, Note_on_c, 0, 67, 64
3, 39000, Note_off_c, 0, 67, 64
3, 39000, Note_on_c, 0, 70, 64
3, 39120, Note_off_c, 0, 70, 64
3, 39120, Note_on_c, 0, 74, 64
3, 39240, Note_off_c, 0, 74, 64
3, 39240, Note_on_c, 0, 73, 64
3, 39360, Note_off_c, 0, 73, 64
3, 39360, Note_on_c, 0, 74, 64
3, 39600, Note_off_c, 0, 74, 64
3, 39600, Note_on_c, 0, 84, 64
3, 40080, Note_off_c, 0, 84, 64
3, 40080, Note_on_c, 0, 74, 64
3, 40440, Note_off_c, 0, 74, 64
3, 40440, Note_on_c, 0, 82, 64
3, 40560, Note_off_c, 0, 82, 64
3, 40560, Note_on_c, 0, 72, 64
3, 40920, Note_off_c, 0, 72, 64
3, 40920, Note_on_c, 0, 81, 64
3, 41040, Note_off_c, 0, 81, 64
3, 41040, Note_on_c, 0, 70, 64
3, 41400, Note_off_c, 0, 70, 64
3, 41400, Note_on_c, 0, 79, 64
3, 41520, Note_off_c, 0, 79, 64
3, 41520, Note_on_c, 0, 69, 64
3, 42000, Note_off_c, 0, 69, 64
3, 42000, Note_on_c, 0, 78, 64
3, 42240, Note_off_c, 0, 78, 64
3, 42240, Note_on_c, 0, 79, 64
3, 42600, Note_off_c, 0, 79, 64
3, 42600, Note_on_c, 0, 81, 64
3, 42720, Note_off_c, 0, 81, 64
3, 42720, Note_on_c, 0, 79, 64
3, 42760, Note_off_c, 0, 79, 64
3, 42760, Note_on_c, 0, 78, 64
3, 42800, Note_off_c, 0, 78, 64
3, 42800, Note_on_c, 0, 79, 64
3, 42840, Note_off_c, 0, 79, 64
3, 42840, Note_on_c, 0, 78, 64
3, 43080, Note_off_c, 0, 78, 64
3, 43080, Note_on_c, 0, 79, 64
3, 43200, Note_off_c, 0, 79, 64
3, 43200, Note_on_c, 0, 79, 64
3, 43680, Note_off_c, 0, 79, 64
3, 43920, Note_on_c, 0, 62, 64
3, 44160, Note_off_c, 0, 62, 64
3, 44160, Note_on_c, 0, 67, 64
3, 44520, Note_off_c, 0, 67, 64
3, 44520, Note_on_c, 0, 69, 64
3, 44580, Note_off_c, 0, 69, 64
3, 44580, Note_on_c, 0, 70, 64
3, 44640, Note_off_c, 0, 70, 64
3, 44640, Note_on_c, 0, 69, 64
3, 45000, Note_off_c, 0, 69, 64
3, 45000, Note_on_c, 0, 70, 64
3, 45060, Note_off_c, 0, 70, 64
3, 45060, Note_on_c, 0, 72, 64
3, 45120, Note_off_c, 0, 72, 64
3, 45120, Note_on_c, 0, 70, 64
3, 45240, Note_off_c, 0, 70, 64
3, 45240, Note_on_c, 0, 69, 64
3, 45360, Note_off_c, 0, 69, 64
3, 45360, Note_on_c, 0, 67, 64
3, 45480, Note_off_c, 0, 67, 64
3, 45480, Note_on_c, 0, 66, 64
3, 45600, Note_off_c, 0, 66, 64
3, 45600, Note_on_c, 0, 67, 64
3, 45720, Note_off_c, 0, 67, 64
3, 45720, Note_on_c, 0, 74, 64
3, 45840, Note_off_c, 0, 74, 64
3, 45840, Note_on_c, 0, 70, 64
3, 45960, Note_off_c, 0, 70, 64
3, 45960, Note_on_c, 0, 67, 64
3, 46080, Note_off_c, 0, 67, 64
3, 46080, Note_on_c, 0, 66, 64
3, 46200, Note_off_c, 0, 66, 64
3, 46200, Note_on_c, 0, 62, 64
3, 46320, Note_off_c, 0, 62, 64
3, 46320, Note_on_c, 0, 66, 64
3, 46440, Note_off_c, 0, 66, 64
3, 46440, Note_on_c, 0, 69, 64
3, 46560, Note_off_c, 0, 69, 64
3, 46560, Note_on_c, 0, 67, 64
3, 46680, Note_off_c, 0, 67, 64
3, 46680, Note_on_c, 0, 66, 64
3, 46800, Note_off_c, 0, 66, 64
3, 46800, Note_on_c, 0, 67, 64
3, 46920, Note_off_c, 0, 67, 64
3, 46920, Note_on_c, 0, 70, 64
3, 47040, Note_off_c, 0, 70, 64
3, 47040, Note_on_c, 0, 69, 64
3, 47160, Note_off_c, 0, 69, 64
3, 47160, Note_on_c, 0, 67, 64
3, 47280, Note_off_c, 0, 67, 64
3, 47280, Note_on_c, 0, 66, 64
3, 47400, Note_off_c, 0, 66, 64
3, 47400, Note_on_c, 0, 64, 64
3, 47520, Note_off_c, 0, 64, 64
3, 47520, Note_on_c, 0, 62, 64
3, 47640, Note_off_c, 0, 62, 64
3, 47640, Note_on_c, 0, 69, 64
3, 47760, Note_off_c, 0, 69, 64
3, 47760, Note_on_c, 0, 70, 64
3, 47880, Note_off_c, 0, 70, 64
3, 47880, Note_on_c, 0, 66, 64
3, 48000, Note_off_c, 0, 66, 64
3, 48000, Note_on_c, 0, 67, 64
3, 48120, Note_off_c, 0, 67, 64
3, 48120, Note_on_c, 0, 66, 64
3, 48240, Note_off_c, 0, 66, 64
3, 48240, Note_on_c, 0, 67, 64
3, 48360, Note_off_c, 0, 67, 64
3, 48360, Note_on_c, 0, 75, 64
3, 48480, Note_off_c, 0, 75, 64
3, 48480, Note_on_c, 0, 75, 64
3, 48600, Note_off_c, 0, 75, 64
3, 48600, Note_on_c, 0, 74, 64
3, 48720, Note_off_c, 0, 74, 64
3, 48720, Note_on_c, 0, 75, 64
3, 48840, Note_off_c, 0, 75, 64
3, 48840, Note_on_c, 0, 65, 64
3, 48960, Note_off_c, 0, 65, 64
3, 48960, Note_on_c, 0, 65, 64
3, 49080, Note_off_c, 0, 65, 64
3, 49080, Note_on_c, 0, 64, 64
3, 49200, Note_off_c, 0, 64, 64
3, 49200, Note_on_c, 0, 65, 64
3, 49320, Note_off_c, 0, 65, 64
3, 49320, Note_on_c, 0, 74, 64
3, 49440, Note_off_c, 0, 74, 64
3, 49440, Note_on_c, 0, 74, 64
3, 49560, Note_off_c, 0, 74, 64
3, 49560, Note_on_c, 0, 73, 64
3, 49680, Note_off_c, 0, 73, 64
3, 49680, Note_on_c, 0, 74, 64
3, 49800, Note_off_c, 0, 74, 64
3, 49800, Note_on_c, 0, 63, 64
3, 49920, Note_off_c, 0, 63, 64
3, 49920, Note_on_c, 0, 63, 64
3, 50040, Note_off_c, 0, 63, 64
3, 50040, Note_on_c, 0, 62, 64
3, 50160, Note_off_c, 0, 62, 64
3, 50160, Note_on_c, 0, 63, 64
3, 50280, Note_off_c, 0, 63, 64
3, 50280, Note_on_c, 0, 72, 64
3, 50400, Note_off_c, 0, 72, 64
3, 50400, Note_on_c, 0, 72, 64
3, 50520, Note_off_c, 0, 72, 64
3, 50520, Note_on_c, 0, 71, 64
3, 50640, Note_off_c, 0, 71, 64
3, 50640, Note_on_c, 0, 72, 64
3, 50760, Note_off_c, 0, 72, 64
3, 50760, Note_on_c, 0, 63, 64
3, 50880, Note_off_c, 0, 63, 64
3, 50880, Note_on_c, 0, 63, 64
3, 51120, Note_off_c, 0, 63, 64
3, 51120, Note_on_c, 0, 62, 64
3, 51360, Note_off_c, 0, 62, 64
3, 51600, Note_on_c, 0, 62, 64
3, 51840, Note_off_c, 0, 62, 64
3, 51840, Note_on_c, 0, 75, 64
3, 51900, Note_off_c, 0, 75, 64
3, 51900, Note_on_c, 0, 74, 64
3, 51960, Note_off_c, 0, 74, 64
3, 51960, Note_on_c, 0, 75, 64
3, 52020, Note_off_c, 0, 75, 64
3, 52020, Note_on_c, 0, 74, 64
3, 52080, Note_off_c, 0, 74, 64
3, 52080, Note_on_c, 0, 75, 64
3, 52140, Note_off_c, 0, 75, 64
3, 52140, Note_on_c, 0, 74, 64
3, 52200, Note_off_c, 0, 74, 64
3, 52200, Note_on_c, 0, 72, 64
3, 52260, Note_off_c, 0, 72, 64
3, 52260, Note_on_c, 0, 70, 64
3, 52320, Note_off_c, 0, 70, 64
3, 52320, Note_on_c, 0, 74, 64
3, 52380, Note_off_c, 0, 74, 64
3, 52380, Note_on_c, 0, 72, 64
3, 52440, Note_off_c, 0, 72, 64
3, 52440, Note_on_c, 0, 74, 64
3, 52500, Note_off_c, 0, 74, 64
3, 52500, Note_on_c, 0, 72, 64
3, 52560, Note_off_c, 0, 72, 64
3, 52560, Note_on_c, 0, 74, 64
3, 52620, Note_off_c, 0, 74, 64
3, 52620, Note_on_c, 0, 72, 64
3, 52680, Note_off_c, 0, 72, 64
3, 52680, Note_on_c, 0, 70, 64
3, 52740, Note_off_c, 0, 70, 64
3, 52740, Note_on_c, 0, 69, 64
3, 52800, Note_off_c, 0, 69, 64
3, 52800, Note_on_c, 0, 70, 64
3, 52920, Note_off_c, 0, 70, 64
3, 52920, Note_on_c, 0, 72, 64
3, 53040, Note_off_c, 0, 72, 64
3, 53040, Note_on_c, 0, 74, 64
3, 53160, Note_off_c, 0, 74, 64
3, 53160, Note_on_c, 0, 70, 64
3, 53280, Note_off_c, 0, 70, 64
3, 53280, Note_on_c, 0, 67, 64
3, 53400, Note_off_c, 0, 67, 64
3, 53400, Note_on_c, 0, 69, 64
3, 53520, Note_off_c, 0, 69, 64
3, 53520, Note_on_c, 0, 70, 64
3, 53640, Note_off_c, 0, 70, 64
3, 53640, Note_on_c, 0, 67, 64
3, 53760, Note_off_c, 0, 67, 64
3, 53760, Note_on_c, 0, 68, 64
3, 53880, Note_off_c, 0, 68, 64
3, 53880, Note_on_c, 0, 67, 64
3, 54000, Note_off_c, 0, 67, 64
3, 54000, Note_on_c, 0, 68, 64
3, 54120, Note_off_c, 0, 68, 64
3, 54120, Note_on_c, 0, 77, 64
3, 54240, Note_off_c, 0, 77, 64
3, 54240, Note_on_c, 0, 77, 64
3, 54360, Note_off_c, 0, 77, 64
3, 54360, Note_on_c, 0, 75, 64
3, 54480, Note_off_c, 0, 75, 64
3, 54480, Note_on_c, 0, 77, 64
3, 54600, Note_off_c, 0, 77, 64
3, 54600, Note_on_c, 0, 68, 64
3, 54720, Note_off_c, 0, 68, 64
3, 54720, Note_on_c, 0, 68, 64
3, 54960, Note_off_c, 0, 68, 64
3, 54960, Note_on_c, 0, 67, 64
3, 55200, Note_off_c, 0, 67, 64
3, 55440, Note_on_c, 0, 72, 64
3, 55800, Note_off_c, 0, 72, 64
3, 55800, Note_on_c, 0, 71, 64
3, 55920, Note_off_c, 0, 71, 64
3, 55920, Note_on_c, 0, 72, 64
3, 56040, Note_off_c, 0, 72, 64
3, 56040, Note_on_c, 0, 80, 64
3, 56160, Note_off_c, 0, 80, 64
3, 56160, Note_on_c, 0, 80, 64
3, 56280, Note_off_c, 0, 80, 64
3, 56280, Note_on_c, 0, 79, 64
3, 56400, Note_off_c, 0, 79, 64
3, 56400, Note_on_c, 0, 80, 64
3, 56520, Note_off_c, 0, 80, 64
3, 56520, Note_on_c, 0, 72, 64
3, 56640, Note_off_c, 0, 72, 64
3, 56640, Note_on_c, 0, 72, 64
3, 56880, Note_off_c, 0, 72, 64
3, 56880, Note_on_c, 0, 71, 64
3, 57120, Note_off_c, 0, 71, 64
3, 57360, Note_on_c, 0, 74, 64
3, 57840, Note_off_c, 0, 74, 64
3, 57840, Note_on_c, 0, 72, 64
3, 58080, Note_off_c, 0, 72, 64
3, 58320, Note_on_c, 0, 72, 64
3, 58800, Note_off_c, 0, 72, 64
3, 58800, Note_on_c, 0, 70, 64
3, 59040, Note_off_c, 0, 70, 64
3, 59280, Note_on_c, 0, 75, 64
3, 59760, Note_off_c, 0, 75, 64
3, 59760, Note_on_c, 0, 76, 64
3, 60000, Note_off_c, 0, 76, 64
3, 60000, Note_on_c, 0, 77, 64
3, 60240, Note_off_c, 0, 77, 64
3, 60240, Note_on_c, 0, 68, 64
3, 60720, Note_off_c, 0, 68, 64
3, 60720, Note_on_c, 0, 67, 64
3, 60960, Note_off_c, 0, 67, 64
3, 61200, Note_on_c, 0, 72, 64
3, 61560, Note_off_c, 0, 72, 64
3, 61560, Note_on_c, 0, 70, 64
3, 61680, Note_off_c, 0, 70, 64
3, 61680, Note_on_c, 0, 72, 64
3, 61800, Note_off_c, 0, 72, 64
3, 61800, Note_on_c, 0, 77, 64
3, 61920, Note_off_c, 0, 77, 64
3, 61920, Note_on_c, 0, 77, 64
3, 62040, Note_off_c, 0, 77, 64
3, 62040, Note_on_c, 0, 76, 64
3, 62160, Note_off_c, 0, 76, 64
3, 62160, Note_on_c, 0, 77, 64
3, 62280, Note_off_c, 0, 77, 64
3, 62280, Note_on_c, 0, 68, 64
3, 62400, Note_off_c, 0, 68, 64
3, 62400, Note_on_c, 0, 67, 64
3, 62520, Note_off_c, 0, 67, 64
3, 62520, Note_on_c, 0, 65, 64
3, 62640, Note_off_c, 0, 65, 64
3, 62640, Note_on_c, 0, 67, 64
3, 62760, Note_off_c, 0, 67, 64
3, 62760, Note_on_c, 0, 75, 64
3, 62880, Note_off_c, 0, 75, 64
3, 62880, Note_on_c, 0, 75, 64
3, 63000, Note_off_c, 0, 75, 64
3, 63000, Note_on_c, 0, 74, 64
3, 63120, Note_off_c, 0, 74, 64
3, 63120, Note_on_c, 0, 75, 64
3, 63240, Note_off_c, 0, 75, 64
3, 63240, Note_on_c, 0, 67, 64
3, 63360, Note_off_c, 0, 67, 64
3, 63360, Note_on_c, 0, 65, 64
3, 63480, Note_off_c, 0, 65, 64
3, 63480, Note_on_c, 0, 63, 64
3, 63600, Note_off_c, 0, 63, 64
3, 63600, Note_on_c, 0, 65, 64
3, 63720, Note_off_c, 0, 65, 64
3, 63720, Note_on_c, 0, 74, 64
3, 63840, Note_off_c, 0, 74, 64
3, 63840, Note_on_c, 0, 74, 64
3, 63960, Note_off_c, 0, 74, 64
3, 63960, Note_on_c, 0, 72, 64
3, 64080, Note_off_c, 0, 72, 64
3, 64080, Note_on_c, 0, 74, 64
3, 64200, Note_off_c, 0, 74, 64
3, 64200, Note_on_c, 0, 65, 64
3, 64320, Note_off_c, 0, 65, 64
3, 64320, Note_on_c, 0, 63, 64
3, 64440, Note_off_c, 0, 63, 64
3, 64440, Note_on_c, 0, 67, 64
3, 64560, Note_off_c, 0, 67, 64
3, 64560, Note_on_c, 0, 72, 64
3, 65040, Note_off_c, 0, 72, 64
3, 65040, Note_on_c, 0, 71, 64
3, 65280, Note_off_c, 0, 71, 64
3, 65280, Note_on_c, 0, 72, 64
3, 65760, Note_off_c, 0, 72, 64
3, 66480, Note_on_c, 0, 79, 64
3, 66960, Note_off_c, 0, 79, 64
3, 66960, Note_on_c, 0, 78, 64
3, 67200, Note_off_c, 0, 78, 64
3, 67200, Note_on_c, 0, 79, 64
3, 67440, Note_off_c, 0, 79, 64
3, 67440, Note_on_c, 0, 74, 64
3, 67680, Note_off_c, 0, 74, 64
3, 67680, Note_on_c, 0, 75, 64
3, 68400, Note_off_c, 0, 75, 64
3, 68400, Note_on_c, 0, 74, 64
3, 68640, Note_off_c, 0, 74, 64
3, 68880, Note_on_c, 0, 73, 64
3, 69360, Note_off_c, 0, 73, 64
3, 69360, Note_on_c, 0, 72, 64
3, 69600, Note_off_c, 0, 72, 64
3, 69840, Note_on_c, 0, 72, 64
3, 70320, Note_off_c, 0, 72, 64
3, 70320, Note_on_c, 0, 71, 64
3, 70560, Note_off_c, 0, 71, 64
3, 70680, Note_on_c, 0, 67, 64
3, 70800, Note_off_c, 0, 67, 64
3, 70800, Note_on_c, 0, 68, 64
3, 70920, Note_off_c, 0, 68, 64
3, 70920, Note_on_c, 0, 72, 64
3, 71040, Note_off_c, 0, 72, 64
3, 71040, Note_on_c, 0, 77, 64
3, 71160, Note_off_c, 0, 77, 64
3, 71160, Note_on_c, 0, 74, 64
3, 71280, Note_off_c, 0, 74, 64
3, 71280, Note_on_c, 0, 71, 64
3, 71400, Note_off_c, 0, 71, 64
3, 71400, Note_on_c, 0, 77, 64
3, 71520, Note_off_c, 0, 77, 64
3, 71520, Note_on_c, 0, 75, 64
3, 71640, Note_off_c, 0, 75, 64
3, 71640, Note_on_c, 0, 72, 64
3, 71760, Note_off_c, 0, 72, 64
3, 71760, Note_on_c, 0, 74, 64
3, 71880, Note_off_c, 0, 74, 64
3, 71880, Note_on_c, 0, 71, 64
3, 72000, Note_off_c, 0, 71, 64
3, 72000, Note_on_c, 0, 72, 64
3, 72120, Note_off_c, 0, 72, 64
3, 72120, Note_on_c, 0, 67, 64
3, 72240, Note_off_c, 0, 67, 64
3, 72240, Note_on_c, 0, 72, 64
3, 72720, Note_off_c, 0, 72, 64
3, 72720, Note_on_c, 0, 71, 64
3, 72960, Note_off_c, 0, 71, 64
3, 72960, Note_on_c, 0, 72, 64
3, 73560, Note_off_c, 0, 72, 64
3, 73560, Note_on_c, 0, 70, 64
3, 73680, Note_off_c, 0, 70, 64
3, 73680, Note_on_c, 0, 68, 64
3, 73800, Note_off_c, 0, 68, 64
3, 73800, Note_on_c, 0, 67, 64
3, 73920, Note_off_c, 0, 67, 64
3, 73920, Note_on_c, 0, 68, 64
3, 74040, Note_off_c, 0, 68, 64
3, 74040, Note_on_c, 0, 72, 64
3, 74160, Note_off_c, 0, 72, 64
3, 74160, Note_on_c, 0, 79, 64
3, 74280, Note_off_c, 0, 79, 64
3, 74280, Note_on_c, 0, 77, 64
3, 74400, Note_off_c, 0, 77, 64
3, 74400, Note_on_c, 0, 70, 64
3, 74460, Note_off_c, 0, 70, 64
3, 74460, Note_on_c, 0, 68, 64
3, 74520, Note_off_c, 0, 68, 64
3, 74520, Note_on_c, 0, 70, 64
3, 74580, Note_off_c, 0, 70, 64
3, 74580, Note_on_c, 0, 68, 64
3, 74640, Note_off_c, 0, 68, 64
3, 74640, Note_on_c, 0, 70, 64
3, 74700, Note_off_c, 0, 70, 64
3, 74700, Note_on_c, 0, 68, 64
3, 74760, Note_off_c, 0, 68, 64
3, 74760, Note_on_c, 0, 67, 64
3, 74820, Note_off_c, 0, 67, 64
3, 74820, Note_on_c, 0, 65, 64
3, 74880, Note_off_c, 0, 65, 64
3, 74880, Note_on_c, 0, 67, 64
3, 75000, Note_off_c, 0, 67, 64
3, 75000, Note_on_c, 0, 70, 64
3, 75120, Note_off_c, 0, 70, 64
3, 75120, Note_on_c, 0, 77, 64
3, 75240, Note_off_c, 0, 77, 64
3, 75240, Note_on_c, 0, 75, 64
3, 75360, Note_off_c, 0, 75, 64
3, 75360, Note_on_c, 0, 68, 64
3, 75420, Note_off_c, 0, 68, 64
3, 75420, Note_on_c, 0, 67, 64
3, 75480, Note_off_c, 0, 67, 64
3, 75480, Note_on_c, 0, 68, 64
3, 75540, Note_off_c, 0, 68, 64
3, 75540, Note_on_c, 0, 67, 64
3, 75600, Note_off_c, 0, 67, 64
3, 75600, Note_on_c, 0, 68, 64
3, 75660, Note_off_c, 0, 68, 64
3, 75660, Note_on_c, 0, 67, 64
3, 75720, Note_off_c, 0, 67, 64
3, 75720, Note_on_c, 0, 65, 64
3, 75780, Note_off_c, 0, 65, 64
3, 75780, Note_on_c, 0, 63, 64
3, 75840, Note_off_c, 0, 63, 64
3, 75840, Note_on_c, 0, 65, 64
3, 75960, Note_off_c, 0, 65, 64
3, 75960, Note_on_c, 0, 68, 64
3, 76080, Note_off_c, 0, 68, 64
3, 76080, Note_on_c, 0, 75, 64
3, 76200, Note_off_c, 0, 75, 64
3, 76200, Note_on_c, 0, 74, 64
3, 76320, Note_off_c, 0, 74, 64
3, 76320, Note_on_c, 0, 67, 64
3, 76380, Note_off_c, 0, 67, 64
3, 76380, Note_on_c, 0, 65, 64
3, 76440, Note_off_c, 0, 65, 64
3, 76440, Note_on_c, 0, 67, 64
3, 76500, Note_off_c, 0, 67, 64
3, 76500, Note_on_c, 0, 65, 64
3, 76560, Note_off_c, 0, 65, 64
3, 76560, Note_on_c, 0, 67, 64
3, 76620, Note_off_c, 0, 67, 64
3, 76620, Note_on_c, 0, 65, 64
3, 76680, Note_off_c, 0, 65, 64
3, 76680, Note_on_c, 0, 63, 64
3, 76740, Note_off_c, 0, 63, 64
3, 76740, Note_on_c, 0, 62, 64
3, 76800, Note_off_c, 0, 62, 64
3, 76800, Note_on_c, 0, 63, 64
3, 76920, Note_off_c, 0, 63, 64
3, 76920, Note_on_c, 0, 67, 64
3, 77040, Note_off_c, 0, 67, 64
3, 77040, Note_on_c, 0, 74, 64
3, 77160, Note_off_c, 0, 74, 64
3, 77160, Note_on_c, 0, 72, 64
3, 77280, Note_off_c, 0, 72, 64
3, 77280, Note_on_c, 0, 65, 64
3, 77340, Note_off_c, 0, 65, 64
3, 77340, Note_on_c, 0, 63, 64
3, 77400, Note_off_c, 0, 63, 64
3, 77400, Note_on_c, 0, 65, 64
3, 77460, Note_off_c, 0, 65, 64
3, 77460, Note_on_c, 0, 63, 64
3, 77520, Note_off_c, 0, 63, 64
3, 77520, Note_on_c, 0, 65, 64
3, 77580, Note_off_c, 0, 65, 64
3, 77580, Note_on_c, 0, 63, 64
3, 77640, Note_off_c, 0, 63, 64
3, 77640, Note_on_c, 0, 62, 64
3, 77700, Note_off_c, 0, 62, 64
3, 77700, Note_on_c, 0, 60, 64
3, 77760, Note_off_c, 0, 60, 64
3, 77760, Note_on_c, 0, 72, 64
3, 80760, Note_off_c, 0, 72, 64
3, 80760, Note_on_c, 0, 71, 64
3, 80880, Note_off_c, 0, 71, 64
3, 80880, Note_on_c, 0, 74, 64
3, 81000, Note_off_c, 0, 74, 64
3, 81000, Note_on_c, 0, 72, 64
3, 81120, Note_off_c, 0, 72, 64
3, 81120, Note_on_c, 0, 70, 64
3, 81240, Note_off_c, 0, 70, 64
3, 81240, Note_on_c, 0, 68, 64
3, 81360, Note_off_c, 0, 68, 64
3, 81360, Note_on_c, 0, 67, 64
3, 81480, Note_off_c, 0, 67, 64
3, 81480, Note_on_c, 0, 65, 64
3, 81600, Note_off_c, 0, 65, 64
3, 81600, Note_on_c, 0, 63, 64
3, 81720, Note_off_c, 0, 63, 64
3, 81720, Note_on_c, 0, 67, 64
3, 81840, Note_off_c, 0, 67, 64
3, 81840, Note_on_c, 0, 71, 64
3, 81960, Note_off_c, 0, 71, 64
3, 81960, Note_on_c, 0, 72, 64
3, 82080, Note_off_c, 0, 72, 64
3, 82080, Note_on_c, 0, 62, 64
3, 82200, Note_off_c, 0, 62, 64
3, 82200, Note_on_c, 0, 65, 64
3, 82320, Note_off_c, 0, 65, 64
3, 82320, Note_on_c, 0, 69, 64
3, 82440, Note_off_c, 0, 69, 64
3, 82440, Note_on_c, 0, 70, 64
3, 82560, Note_off_c, 0, 70, 64
3, 82560, Note_on_c, 0, 60, 64
3, 82680, Note_off_c, 0, 60, 64
3, 82680, Note_on_c, 0, 63, 64
3, 82800, Note_off_c, 0, 63, 64
3, 82800, Note_on_c, 0, 67, 64
3, 82920, Note_off_c, 0, 67, 64
3, 82920, Note_on_c, 0, 68, 64
3, 83040, Note_off_c, 0, 68, 64
3, 83040, Note_on_c, 0, 59, 64
3, 83160, Note_off_c, 0, 59, 64
3, 83160, Note_on_c, 0, 68, 64
3, 83280, Note_off_c, 0, 68, 64
3, 83280, Note_on_c, 0, 67, 64
3, 83400, Note_off_c, 0, 67, 64
3, 83400, Note_on_c, 0, 65, 64
3, 83520, Note_off_c, 0, 65, 64
3, 83520, Note_on_c, 0, 63, 64
3, 83640, Note_off_c, 0, 63, 64
3, 83640, Note_on_c, 0, 72, 64
3, 83760, Note_off_c, 0, 72, 64
3, 83760, Note_on_c, 0, 68, 64
3, 83880, Note_off_c, 0, 68, 64
3, 83880, Note_on_c, 0, 65, 64
3, 84000, Note_off_c, 0, 65, 64
3, 84000, Note_on_c, 0, 65, 64
3, 84060, Note_off_c, 0, 65, 64
3, 84060, Note_on_c, 0, 63, 64
3, 84120, Note_off_c, 0, 63, 64
3, 84120, Note_on_c, 0, 65, 64
3, 84180, Note_off_c, 0, 65, 64
3, 84180, Note_on_c, 0, 63, 64
3, 84240, Note_off_c, 0, 63, 64
3, 84240, Note_on_c, 0, 62, 64
3, 84360, Note_off_c, 0, 62, 64
3, 84360, Note_on_c, 0, 60, 64
3, 84480, Note_off_c, 0, 60, 64
3, 84480, Note_on_c, 0, 60, 64
3, 84960, Note_off_c, 0, 60, 64
3, 85200, Note_on_c, 0, 75, 64
3, 85440, Note_off_c, 0, 75, 64
3, 85440, Note_on_c, 0, 63, 64
3, 85800, Note_off_c, 0, 63, 64
3, 85800, Note_on_c, 0, 65, 64
3, 85860, Note_off_c, 0, 65, 64
3, 85860, Note_on_c, 0, 67, 64
3, 85920, Note_off_c, 0, 67, 64
3, 85920, Note_on_c, 0, 65, 64
3, 86280, Note_off_c, 0, 65, 64
3, 86280, Note_on_c, 0, 67, 64
3, 86340, Note_off_c, 0, 67, 64
3, 86340, Note_on_c, 0, 68, 64
3, 86400, Note_off_c, 0, 68, 64
3, 86400, Note_on_c, 0, 67, 64
3, 86640, Note_off_c, 0, 67, 64
3, 86640, Note_on_c, 0, 75, 64
3, 87120, Note_off_c, 0, 75, 64
3, 87120, Note_on_c, 0, 74, 64
3, 87360, Note_off_c, 0, 74, 64
3, 87360, Note_on_c, 0, 75, 64
3, 87480, Note_off_c, 0, 75, 64
3, 87480, Note_on_c, 0, 77, 64
3, 87600, Note_off_c, 0, 77, 64
3, 87600, Note_on_c, 0, 79, 64
3, 87720, Note_off_c, 0, 79, 64
3, 87720, Note_on_c, 0, 77, 64
3, 87840, Note_off_c, 0, 77, 64
3, 87840, Note_on_c, 0, 80, 64
3, 87960, Note_off_c, 0, 80, 64
3, 87960, Note_on_c, 0, 79, 64
3, 88080, Note_off_c, 0, 79, 64
3, 88080, Note_on_c, 0, 77, 64
3, 88200, Note_off_c, 0, 77, 64
3, 88200, Note_on_c, 0, 75, 64
3, 88320, Note_off_c, 0, 75, 64
3, 88320, Note_on_c, 0, 74, 64
3, 88800, Note_off_c, 0, 74, 64
3, 89040, Note_on_c, 0, 77, 64
3, 89280, Note_off_c, 0, 77, 64
3, 89280, Note_on_c, 0, 65, 64
3, 89640, Note_off_c, 0, 65, 64
3, 89640, Note_on_c, 0, 67, 64
3, 89700, Note_off_c, 0, 67, 64
3, 89700, Note_on_c, 0, 68, 64
3, 89760, Note_off_c, 0, 68, 64
3, 89760, Note_on_c, 0, 67, 64
3, 90120, Note_off_c, 0, 67, 64
3, 90120, Note_on_c, 0, 68, 64
3, 90180, Note_off_c, 0, 68, 64
3, 90180, Note_on_c, 0, 70, 64
3, 90240, Note_off_c, 0, 70, 64
3, 90240, Note_on_c, 0, 68, 64
3, 90480, Note_off_c, 0, 68, 64
3, 90480, Note_on_c, 0, 77, 64
3, 90960, Note_off_c, 0, 77, 64
3, 90960, Note_on_c, 0, 76, 64
3, 91200, Note_off_c, 0, 76, 64
3, 91200, Note_on_c, 0, 77, 64
3, 91320, Note_off_c, 0, 77, 64
3, 91320, Note_on_c, 0, 79, 64
3, 91440, Note_off_c, 0, 79, 64
3, 91440, Note_on_c, 0, 80, 64
3, 91560, Note_off_c, 0, 80, 64
3, 91560, Note_on_c, 0, 79, 64
3, 91680, Note_off_c, 0, 79, 64
3, 91680, Note_on_c, 0, 82, 64
3, 91800, Note_off_c, 0, 82, 64
3, 91800, Note_on_c, 0, 80, 64
3, 91920, Note_off_c, 0, 80, 64
3, 91920, Note_on_c, 0, 79, 64
3, 92040, Note_off_c, 0, 79, 64
3, 92040, Note_on_c, 0, 77, 64
3, 92160, Note_off_c, 0, 77, 64
3, 92160, Note_on_c, 0, 76, 64
3, 92640, Note_off_c, 0, 76, 64
3, 92880, Note_on_c, 0, 67, 64
3, 93000, Note_off_c, 0, 67, 64
3, 93000, Note_on_c, 0, 68, 64
3, 93120, Note_off_c, 0, 68, 64
3, 93120, Note_on_c, 0, 70, 64
3, 93240, Note_off_c, 0, 70, 64
3, 93240, Note_on_c, 0, 68, 64
3, 93360, Note_off_c, 0, 68, 64
3, 93360, Note_on_c, 0, 70, 64
3, 93480, Note_off_c, 0, 70, 64
3, 93480, Note_on_c, 0, 79, 64
3, 93600, Note_off_c, 0, 79, 64
3, 93600, Note_on_c, 0, 79, 64
3, 93720, Note_off_c, 0, 79, 64
3, 93720, Note_on_c, 0, 77, 64
3, 93840, Note_off_c, 0, 77, 64
3, 93840, Note_on_c, 0, 79, 64
3, 93960, Note_off_c, 0, 79, 64
3, 93960, Note_on_c, 0, 70, 64
3, 94080, Note_off_c, 0, 70, 64
3, 94080, Note_on_c, 0, 68, 64
3, 94200, Note_off_c, 0, 68, 64
3, 94200, Note_on_c, 0, 67, 64
3, 94320, Note_off_c, 0, 67, 64
3, 94320, Note_on_c, 0, 68, 64
3, 94440, Note_off_c, 0, 68, 64
3, 94440, Note_on_c, 0, 77, 64
3, 94560, Note_off_c, 0, 77, 64
3, 94560, Note_on_c, 0, 77, 64
3, 94680, Note_off_c, 0, 77, 64
3, 94680, Note_on_c, 0, 76, 64
3, 94800, Note_off_c, 0, 76, 64
3, 94800, Note_on_c, 0, 77, 64
3, 94920, Note_off_c, 0, 77, 64
3, 94920, Note_on_c, 0, 68, 64
3, 95040, Note_off_c, 0, 68, 64
3, 95040, Note_on_c, 0, 67, 64
3, 95160, Note_off_c, 0, 67, 64
3, 95160, Note_on_c, 0, 65, 64
3, 95280, Note_off_c, 0, 65, 64
3, 95280, Note_on_c, 0, 67, 64
3, 95400, Note_off_c, 0, 67, 64
3, 95400, Note_on_c, 0, 76, 64
3, 95520, Note_off_c, 0, 76, 64
3, 95520, Note_on_c, 0, 76, 64
3, 95640, Note_off_c, 0, 76, 64
3, 95640, Note_on_c, 0, 74, 64
3, 95760, Note_off_c, 0, 74, 64
3, 95760, Note_on_c, 0, 76, 64
3, 95880, Note_off_c, 0, 76, 64
3, 95880, Note_on_c, 0, 67, 64
3, 96000, Note_off_c, 0, 67, 64
3, 96000, Note_on_c, 0, 65, 64
3, 96120, Note_off_c, 0, 65, 64
3, 96120, Note_on_c, 0, 64, 64
3, 96240, Note_off_c, 0, 64, 64
3, 96240, Note_on_c, 0, 65, 64
3, 96360, Note_off_c, 0, 65, 64
3, 96360, Note_on_c, 0, 67, 64
3, 96480, Note_off_c, 0, 67, 64
3, 96480, Note_on_c, 0, 68, 64
3, 96600, Note_off_c, 0, 68, 64
3, 96600, Note_on_c, 0, 70, 64
3, 96720, Note_off_c, 0, 70, 64
3, 96720, Note_on_c, 0, 72, 64
3, 96840, Note_off_c, 0, 72, 64
3, 96840, Note_on_c, 0, 74, 64
3, 96960, Note_off_c, 0, 74, 64
3, 96960, Note_on_c, 0, 75, 64
3, 97080, Note_off_c, 0, 75, 64
3, 97080, Note_on_c, 0, 74, 64
3, 97200, Note_off_c, 0, 74, 64
3, 97200, Note_on_c, 0, 75, 64
3, 97320, Note_off_c, 0, 75, 64
3, 97320, Note_on_c, 0, 84, 64
3, 97440, Note_off_c, 0, 84, 64
3, 97440, Note_on_c, 0, 84, 64
3, 97560, Note_off_c, 0, 84, 64
3, 97560, Note_on_c, 0, 82, 64
3, 97680, Note_off_c, 0, 82, 64
3, 97680, Note_on_c, 0, 84, 64
3, 97800, Note_off_c, 0, 84, 64
3, 97800, Note_on_c, 0, 75, 64
3, 97920, Note_off_c, 0, 75, 64
3, 97920, Note_on_c, 0, 74, 64
3, 98040, Note_off_c, 0, 74, 64
3, 98040, Note_on_c, 0, 72, 64
3, 98160, Note_off_c, 0, 72, 64
3, 98160, Note_on_c, 0, 74, 64
3, 98280, Note_off_c, 0, 74, 64
3, 98280, Note_on_c, 0, 82, 64
3, 98400, Note_off_c, 0, 82, 64
3, 98400, Note_on_c, 0, 82, 64
3, 98520, Note_off_c, 0, 82, 64
3, 98520, Note_on_c, 0, 81, 64
3, 98640, Note_off_c, 0, 81, 64
3, 98640, Note_on_c, 0, 82, 64
3, 98760, Note_off_c, 0, 82, 64
3, 98760, Note_on_c, 0, 74, 64
3, 98880, Note_off_c, 0, 74, 64
3, 98880, Note_on_c, 0, 72, 64
3, 99000, Note_off_c, 0, 72, 64
3, 99000, Note_on_c, 0, 70, 64
3, 99120, Note_off_c, 0, 70, 64
3, 99120, Note_on_c, 0, 72, 64
3, 99240, Note_off_c, 0, 72, 64
3, 99240, Note_on_c, 0, 81, 64
3, 99360, Note_off_c, 0, 81, 64
3, 99360, Note_on_c, 0, 81, 64
3, 99480, Note_off_c, 0, 81, 64
3, 99480, Note_on_c, 0, 79, 64
3, 99600, Note_off_c, 0, 79, 64
3, 99600, Note_on_c, 0, 81, 64
3, 99720, Note_off_c, 0, 81, 64
3, 99720, Note_on_c, 0, 72, 64
3, 99840, Note_off_c, 0, 72, 64
3, 99840, Note_on_c, 0, 70, 64
3, 100080, Note_off_c, 0, 70, 64
3, 100080, Note_on_c, 0, 82, 64
3, 100320, Note_off_c, 0, 82, 64
3, 100320, Note_on_c, 0, 84, 64
3, 100560, Note_off_c, 0, 84, 64
3, 100560, Note_on_c, 0, 82, 64
3, 100800, Note_off_c, 0, 82, 64
3, 100800, Note_on_c, 0, 69, 64
3, 101040, Note_off_c, 0, 69, 64
3, 101040, Note_on_c, 0, 81, 64
3, 101280, Note_off_c, 0, 81, 64
3, 101280, Note_on_c, 0, 82, 64
3, 101520, Note_off_c, 0, 82, 64
3, 101520, Note_on_c, 0, 81, 64
3, 101760, Note_off_c, 0, 81, 64
3, 101760, Note_on_c, 0, 67, 64
3, 102000, Note_off_c, 0, 67, 64
3, 102000, Note_on_c, 0, 79, 64
3, 102240, Note_off_c, 0, 79, 64
3, 102240, Note_on_c, 0, 81, 64
3, 102480, Note_off_c, 0, 81, 64
3, 102480, Note_on_c, 0, 79, 64
3, 102720, Note_off_c, 0, 79, 64
3, 102720, Note_on_c, 0, 79, 64
3, 102780, Note_off_c, 0, 79, 64
3, 102780, Note_on_c, 0, 78, 64
3, 102840, Note_off_c, 0, 78, 64
3, 102840, Note_on_c, 0, 79, 64
3, 102900, Note_off_c, 0, 79, 64
3, 102900, Note_on_c, 0, 78, 64
3, 102960, Note_off_c, 0, 78, 64
3, 102960, Note_on_c, 0, 79, 64
3, 103020, Note_off_c, 0, 79, 64
3, 103020, Note_on_c, 0, 78, 64
3, 103080, Note_off_c, 0, 78, 64
3, 103080, Note_on_c, 0, 79, 64
3, 103140, Note_off_c, 0, 79, 64
3, 103140, Note_on_c, 0, 78, 64
3, 103200, Note_off_c, 0, 78, 64
3, 103200, Note_on_c, 0, 79, 64
3, 103260, Note_off_c, 0, 79, 64
3, 103260, Note_on_c, 0, 78, 64
3, 103320, Note_off_c, 0, 78, 64
3, 103320, Note_on_c, 0, 79, 64
3, 103380, Note_off_c, 0, 79, 64
3, 103380, Note_on_c, 0, 78, 64
3, 103440, Note_off_c, 0, 78, 64
3, 103440, Note_on_c, 0, 79, 64
3, 103500, Note_off_c, 0, 79, 64
3, 103500, Note_on_c, 0, 78, 64
3, 103560, Note_off_c, 0, 78, 64
3, 103560, Note_on_c, 0, 79, 64
3, 103620, Note_off_c, 0, 79, 64
3, 103620, Note_on_c, 0, 78, 64
3, 103680, Note_off_c, 0, 78, 64
3, 103680, Note_on_c, 0, 81, 64
3, 103740, Note_off_c, 0, 81, 64
3, 103740, Note_on_c, 0, 79, 64
3, 103800, Note_off_c, 0, 79, 64
3, 103800, Note_on_c, 0, 81, 64
3, 103860, Note_off_c, 0, 81, 64
3, 103860, Note_on_c, 0, 79, 64
3, 103920, Note_off_c, 0, 79, 64
3, 103920, Note_on_c, 0, 81, 64
3, 103980, Note_off_c, 0, 81, 64
3, 103980, Note_on_c, 0, 79, 64
3, 104040, Note_off_c, 0, 79, 64
3, 104040, Note_on_c, 0, 81, 64
3, 104100, Note_off_c, 0, 81, 64
3, 104100, Note_on_c, 0, 79, 64
3, 104160, Note_off_c, 0, 79, 64
3, 104160, Note_on_c, 0, 81, 64
3, 104220, Note_off_c, 0, 81, 64
3, 104220, Note_on_c, 0, 79, 64
3, 104280, Note_off_c, 0, 79, 64
3, 104280, Note_on_c, 0, 81, 64
3, 104340, Note_off_c, 0, 81, 64
3, 104340, Note_on_c, 0, 79, 64
3, 104400, Note_off_c, 0, 79, 64
3, 104400, Note_on_c, 0, 81, 64
3, 104460, Note_off_c, 0, 81, 64
3, 104460, Note_on_c, 0, 79, 64
3, 104520, Note_off_c, 0, 79, 64
3, 104520, Note_on_c, 0, 81, 64
3, 104580, Note_off_c, 0, 81, 64
3, 104580, Note_on_c, 0, 79, 64
3, 104640, Note_off_c, 0, 79, 64
3, 104640, Note_on_c, 0, 77, 64
3, 104700, Note_off_c, 0, 77, 64
3, 104700, Note_on_c, 0, 75, 64
3, 104760, Note_off_c, 0, 75, 64
3, 104760, Note_on_c, 0, 77, 64
3, 104820, Note_off_c, 0, 77, 64
3, 104820, Note_on_c, 0, 75, 64
3, 104880, Note_off_c, 0, 75, 64
3, 104880, Note_on_c, 0, 77, 64
3, 104940, Note_off_c, 0, 77, 64
3, 104940, Note_on_c, 0, 75, 64
3, 105000, Note_off_c, 0, 75, 64
3, 105000, Note_on_c, 0, 77, 64
3, 105060, Note_off_c, 0, 77, 64
3, 105060, Note_on_c, 0, 75, 64
3, 105120, Note_off_c, 0, 75, 64
3, 105120, Note_on_c, 0, 77, 64
3, 105180, Note_off_c, 0, 77, 64
3, 105180, Note_on_c, 0, 75, 64
3, 105240, Note_off_c, 0, 75, 64
3, 105240, Note_on_c, 0, 77, 64
3, 105300, Note_off_c, 0, 77, 64
3, 105300, Note_on_c, 0, 75, 64
3, 105360, Note_off_c, 0, 75, 64
3, 105360, Note_on_c, 0, 77, 64
3, 105420, Note_off_c, 0, 77, 64
3, 105420, Note_on_c, 0, 75, 64
3, 105480, Note_off_c, 0, 75, 64
3, 105480, Note_on_c, 0, 77, 64
3, 105540, Note_off_c, 0, 77, 64
3, 105540, Note_on_c, 0, 75, 64
3, 105600, Note_off_c, 0, 75, 64
3, 105600, Note_on_c, 0, 75, 64
3, 105660, Note_off_c, 0, 75, 64
3, 105660, Note_on_c, 0, 74, 64
3, 105720, Note_off_c, 0, 74, 64
3, 105720, Note_on_c, 0, 75, 64
3, 105780, Note_off_c, 0, 75, 64
3, 105780, Note_on_c, 0, 74, 64
3, 105840, Note_off_c, 0, 74, 64
3, 105840, Note_on_c, 0, 75, 64
3, 105900, Note_off_c, 0, 75, 64
3, 105900, Note_on_c, 0, 74, 64
3, 105960, Note_off_c, 0, 74, 64
3, 105960, Note_on_c, 0, 75, 64
3, 106020, Note_off_c, 0, 75, 64
3, 106020, Note_on_c, 0, 74, 64
3, 106080, Note_off_c, 0, 74, 64
3, 106080, Note_on_c, 0, 75, 64
3, 106140, Note_off_c, 0, 75, 64
3, 106140, Note_on_c, 0, 74, 64
3, 106200, Note_off_c, 0, 74, 64
3, 106200, Note_on_c, 0, 75, 64
3, 106260, Note_off_c, 0, 75, 64
3, 106260, Note_on_c, 0, 74, 64
3, 106320, Note_off_c, 0, 74, 64
3, 106320, Note_on_c, 0, 75, 64
3, 106380, Note_off_c, 0, 75, 64
3, 106380, Note_on_c, 0, 74, 64
3, 106440, Note_off_c, 0, 74, 64
3, 106440, Note_on_c, 0, 75, 64
3, 106500, Note_off_c, 0, 75, 64
3, 106500, Note_on_c, 0, 74, 64
3, 106680, Note_off_c, 0, 74, 64
3, 106680, Note_on_c, 0, 79, 64
3, 106800, Note_off_c, 0, 79, 64
3, 106800, Note_on_c, 0, 84, 64
3, 106920, Note_off_c, 0, 84, 64
3, 106920, Note_on_c, 0, 82, 64
3, 107040, Note_off_c, 0, 82, 64
3, 107280, Note_on_c, 0, 75, 64
3, 107640, Note_off_c, 0, 75, 64
3, 107640, Note_on_c, 0, 72, 64
3, 107760, Note_off_c, 0, 72, 64
3, 107760, Note_on_c, 0, 67, 64
3, 107880, Note_off_c, 0, 67, 64
3, 107880, Note_on_c, 0, 66, 64
3, 108000, Note_off_c, 0, 66, 64
3, 108000, Note_on_c, 0, 72, 64
3, 108120, Note_off_c, 0, 72, 64
3, 108120, Note_on_c, 0, 69, 64
3, 108240, Note_off_c, 0, 69, 64
3, 108240, Note_on_c, 0, 63, 64
3, 108360, Note_off_c, 0, 63, 64
3, 108360, Note_on_c, 0, 62, 64
3, 108480, Note_off_c, 0, 62, 64
3, 108480, Note_on_c, 0, 75, 64
3, 108540, Note_off_c, 0, 75, 64
3, 108540, Note_on_c, 0, 74, 64
3, 108600, Note_off_c, 0, 74, 64
3, 108600, Note_on_c, 0, 75, 64
3, 108660, Note_off_c, 0, 75, 64
3, 108660, Note_on_c, 0, 74, 64
3, 108720, Note_off_c, 0, 74, 64
3, 108720, Note_on_c, 0, 75, 64
3, 108780, Note_off_c, 0, 75, 64
3, 108780, Note_on_c, 0, 74, 64
3, 108840, Note_off_c, 0, 74, 64
3, 108840, Note_on_c, 0, 72, 64
3, 108900, Note_off_c, 0, 72, 64
3, 108900, Note_on_c, 0, 70, 64
3, 108960, Note_off_c, 0, 70, 64
3, 108960, Note_on_c, 0, 74, 64
3, 109020, Note_off_c, 0, 74, 64
3, 109020, Note_on_c, 0, 72, 64
3, 109080, Note_off_c, 0, 72, 64
3, 109080, Note_on_c, 0, 74, 64
3, 109140, Note_off_c, 0, 74, 64
3, 109140, Note_on_c, 0, 72, 64
3, 109200, Note_off_c, 0, 72, 64
3, 109200, Note_on_c, 0, 74, 64
3, 109260, Note_off_c, 0, 74, 64
3, 109260, Note_on_c, 0, 72, 64
3, 109320, Note_off_c, 0, 72, 64
3, 109320, Note_on_c, 0, 70, 64
3, 109380, Note_off_c, 0, 70, 64
3, 109380, Note_on_c, 0, 69, 64
3, 109440, Note_off_c, 0, 69, 64
3, 109440, Note_on_c, 0, 70, 64
3, 109560, Note_off_c, 0, 70, 64
3, 109560, Note_on_c, 0, 74, 64
3, 109680, Note_off_c, 0, 74, 64
3, 109680, Note_on_c, 0, 66, 64
3, 109800, Note_off_c, 0, 66, 64
3, 109800, Note_on_c, 0, 67, 64
3, 109920, Note_off_c, 0, 67, 64
3, 110160, Note_on_c, 0, 60, 64
3, 110400, Note_off_c, 0, 60, 64
3, 110400, Note_on_c, 0, 74, 64
3, 110460, Note_off_c, 0, 74, 64
3, 110460, Note_on_c, 0, 72, 64
3, 110520, Note_off_c, 0, 72, 64
3, 110520, Note_on_c, 0, 74, 64
3, 110580, Note_off_c, 0, 74, 64
3, 110580, Note_on_c, 0, 72, 64
3, 110640, Note_off_c, 0, 72, 64
3, 110640, Note_on_c, 0, 74, 64
3, 110700, Note_off_c, 0, 74, 64
3, 110700, Note_on_c, 0, 72, 64
3, 110760, Note_off_c, 0, 72, 64
3, 110760, Note_on_c, 0, 70, 64
3, 110820, Note_off_c, 0, 70, 64
3, 110820, Note_on_c, 0, 68, 64
3, 110880, Note_off_c, 0, 68, 64
3, 110880, Note_on_c, 0, 72, 64
3, 110940, Note_off_c, 0, 72, 64
3, 110940, Note_on_c, 0, 70, 64
3, 111000, Note_off_c, 0, 70, 64
3, 111000, Note_on_c, 0, 72, 64
3, 111060, Note_off_c, 0, 72, 64
3, 111060, Note_on_c, 0, 70, 64
3, 111120, Note_off_c, 0, 70, 64
3, 111120, Note_on_c, 0, 72, 64
3, 111180, Note_off_c, 0, 72, 64
3, 111180, Note_on_c, 0, 70, 64
3, 111240, Note_off_c, 0, 70, 64
3, 111240, Note_on_c, 0, 68, 64
3, 111300, Note_off_c, 0, 68, 64
3, 111300, Note_on_c, 0, 67, 64
3, 111360, Note_off_c, 0, 67, 64
3, 111360, Note_on_c, 0, 68, 64
3, 111480, Note_off_c, 0, 68, 64
3, 111480, Note_on_c, 0, 72, 64
3, 111600, Note_off_c, 0, 72, 64
3, 111600, Note_on_c, 0, 79, 64
3, 111720, Note_off_c, 0, 79, 64
3, 111720, Note_on_c, 0, 77, 64
3, 111840, Note_off_c, 0, 77, 64
3, 112080, Note_on_c, 0, 71, 64
3, 112320, Note_off_c, 0, 71, 64
3, 112320, Note_on_c, 0, 72, 64
3, 112560, Note_off_c, 0, 72, 64
3, 112560, Note_on_c, 0, 60, 64
3, 112800, Note_off_c, 0, 60, 64
3, 113280, Note_on_c, 0, 60, 64
3, 113760, Note_off_c, 0, 60, 64
3, 113760, Note_on_c, 0, 63, 64
3, 114240, Note_off_c, 0, 63, 64
3, 114240, Note_on_c, 0, 67, 64
3, 114720, Note_off_c, 0, 67, 64
3, 114720, Note_on_c, 0, 68, 64
3, 115200, Note_off_c, 0, 68, 64
3, 115200, Note_on_c, 0, 59, 64
3, 115680, Note_off_c, 0, 59, 64
3, 115920, Note_on_c, 0, 67, 64
3, 116160, Note_off_c, 0, 67, 64
3, 116160, Note_on_c, 0, 66, 64
3, 116640, Note_off_c, 0, 66, 64
3, 116640, Note_on_c, 0, 65, 64
3, 117120, Note_off_c, 0, 65, 64
3, 117120, Note_on_c, 0, 64, 64
3, 117600, Note_off_c, 0, 64, 64
3, 117600, Note_on_c, 0, 63, 64
3, 118320, Note_off_c, 0, 63, 64
3, 118320, Note_on_c, 0, 62, 64
3, 118560, Note_off_c, 0, 62, 64
3, 118560, Note_on_c, 0, 61, 64
3, 118800, Note_off_c, 0, 61, 64
3, 118800, Note_on_c, 0, 60, 64
3, 119040, Note_off_c, 0, 60, 64
3, 119040, Note_on_c, 0, 59, 64
3, 119280, Note_off_c, 0, 59, 64
3, 119280, Note_on_c, 0, 57, 64
3, 119400, Note_off_c, 0, 57, 64
3, 119400, Note_on_c, 0, 55, 64
3, 119520, Note_off_c, 0, 55, 64
3, 119520, Note_on_c, 0, 60, 64
3, 119760, Note_off_c, 0, 60, 64
3, 119760, Note_on_c, 0, 65, 64
3, 120000, Note_off_c, 0, 65, 64
3, 120000, Note_on_c, 0, 65, 64
3, 120060, Note_off_c, 0, 65, 64
3, 120060, Note_on_c, 0, 63, 64
3, 120120, Note_off_c, 0, 63, 64
3, 120120, Note_on_c, 0, 65, 64
3, 120180, Note_off_c, 0, 65, 64
3, 120180, Note_on_c, 0, 63, 64
3, 120240, Note_off_c, 0, 63, 64
3, 120240, Note_on_c, 0, 65, 64
3, 120300, Note_off_c, 0, 65, 64
3, 120300, Note_on_c, 0, 63, 64
3, 120360, Note_off_c, 0, 63, 64
3, 120360, Note_on_c, 0, 65, 64
3, 120420, Note_off_c, 0, 65, 64
3, 120420, Note_on_c, 0, 63, 64
3, 120480, Note_off_c, 0, 63, 64
3, 120480, Note_on_c, 0, 63, 64
3, 120540, Note_off_c, 0, 63, 64
3, 120540, Note_on_c, 0, 62, 64
3, 120600, Note_off_c, 0, 62, 64
3, 120600, Note_on_c, 0, 63, 64
3, 120660, Note_off_c, 0, 63, 64
3, 120660, Note_on_c, 0, 62, 64
3, 120720, Note_off_c, 0, 62, 64
3, 120720, Note_on_c, 0, 63, 64
3, 120780, Note_off_c, 0, 63, 64
3, 120780, Note_on_c, 0, 62, 64
3, 120840, Note_off_c, 0, 62, 64
3, 120840, Note_on_c, 0, 63, 64
3, 120900, Note_off_c, 0, 63, 64
3, 120900, Note_on_c, 0, 62, 64
3, 120960, Note_off_c, 0, 62, 64
3, 120960, Note_on_c, 0, 60, 64
3, 121440, Note_off_c, 0, 60, 64
3, 121680, Note_on_c, 0, 64, 64
3, 121920, Note_off_c, 0, 64, 64
3, 121920, Note_on_c, 0, 65, 64
3, 122280, Note_off_c, 0, 65, 64
3, 122280, Note_on_c, 0, 67, 64
3, 122340, Note_off_c, 0, 67, 64
3, 122340, Note_on_c, 0, 68, 64
3, 122400, Note_off_c, 0, 68, 64
3, 122400, Note_on_c, 0, 67, 64
3, 122760, Note_off_c, 0, 67, 64
3, 122760, Note_on_c, 0, 68, 64
3, 122820, Note_off_c, 0, 68, 64
3, 122820, Note_on_c, 0, 70, 64
3, 122880, Note_off_c, 0, 70, 64
3, 122880, Note_on_c, 0, 68, 64
3, 122940, Note_off_c, 0, 68, 64
3, 122940, Note_on_c, 0, 67, 64
3, 123000, Note_off_c, 0, 67, 64
3, 123000, Note_on_c, 0, 65, 64
3, 123360, Note_off_c, 0, 65, 64
3, 123600, Note_on_c, 0, 68, 64
3, 123840, Note_off_c, 0, 68, 64
3, 123840, Note_on_c, 0, 70, 64
3, 124200, Note_off_c, 0, 70, 64
3, 124200, Note_on_c, 0, 72, 64
3, 124260, Note_off_c, 0, 72, 64
3, 124260, Note_on_c, 0, 74, 64
3, 124320, Note_off_c, 0, 74, 64
3, 124320, Note_on_c, 0, 72, 64
3, 124680, Note_off_c, 0, 72, 64
3, 124680, Note_on_c, 0, 74, 64
3, 124740, Note_off_c, 0, 74, 64
3, 124740, Note_on_c, 0, 75, 64
3, 124800, Note_off_c, 0, 75, 64
3, 124800, Note_on_c, 0, 74, 64
3, 124860, Note_off_c, 0, 74, 64
3, 124860, Note_on_c, 0, 72, 64
3, 124920, Note_off_c, 0, 72, 64
3, 124920, Note_on_c, 0, 70, 64
3, 125280, Note_off_c, 0, 70, 64
3, 125520, Note_on_c, 0, 74, 64
3, 125760, Note_off_c, 0, 74, 64
3, 125760, Note_on_c, 0, 75, 64
3, 126120, Note_off_c, 0, 75, 64
3, 126120, Note_on_c, 0, 77, 64
3, 126180, Note_off_c, 0, 77, 64
3, 126180, Note_on_c, 0, 79, 64
3, 126240, Note_off_c, 0, 79, 64
3, 126240, Note_on_c, 0, 77, 64
3, 126600, Note_off_c, 0, 77, 64
3, 126600, Note_on_c, 0, 79, 64
3, 126660, Note_off_c, 0, 79, 64
3, 126660, Note_on_c, 0, 80, 64
3, 126720, Note_off_c, 0, 80, 64
3, 126720, Note_on_c, 0, 79, 64
3, 126780, Note_off_c, 0, 79, 64
3, 126780, Note_on_c, 0, 77, 64
3, 126840, Note_off_c, 0, 77, 64
3, 126840, Note_on_c, 0, 75, 64
3, 127200, Note_off_c, 0, 75, 64
3, 128400, Note_on_c, 0, 63, 64
3, 128640, Note_off_c, 0, 63, 64
3, 128640, Note_on_c, 0, 77, 64
3, 128700, Note_off_c, 0, 77, 64
3, 128700, Note_on_c, 0, 75, 64
3, 128760, Note_off_c, 0, 75, 64
3, 128760, Note_on_c, 0, 77, 64
3, 128820, Note_off_c, 0, 77, 64
3, 128820, Note_on_c, 0, 75, 64
3, 128880, Note_off_c, 0, 75, 64
3, 128880, Note_on_c, 0, 77, 64
3, 128940, Note_off_c, 0, 77, 64
3, 128940, Note_on_c, 0, 75, 64
3, 129000, Note_off_c, 0, 75, 64
3, 129000, Note_on_c, 0, 73, 64
3, 129060, Note_off_c, 0, 73, 64
3, 129060, Note_on_c, 0, 72, 64
3, 129120, Note_off_c, 0, 72, 64
3, 129120, Note_on_c, 0, 75, 64
3, 129180, Note_off_c, 0, 75, 64
3, 129180, Note_on_c, 0, 73, 64
3, 129240, Note_off_c, 0, 73, 64
3, 129240, Note_on_c, 0, 75, 64
3, 129300, Note_off_c, 0, 75, 64
3, 129300, Note_on_c, 0, 73, 64
3, 129360, Note_off_c, 0, 73, 64
3, 129360, Note_on_c, 0, 75, 64
3, 129420, Note_off_c, 0, 75, 64
3, 129420, Note_on_c, 0, 73, 64
3, 129480, Note_off_c, 0, 73, 64
3, 129480, Note_on_c, 0, 72, 64
3, 129540, Note_off_c, 0, 72, 64
3, 129540, Note_on_c, 0, 70, 64
3, 129600, Note_off_c, 0, 70, 64
3, 129600, Note_on_c, 0, 72, 64
3, 129720, Note_off_c, 0, 72, 64
3, 129720, Note_on_c, 0, 68, 64
3, 129840, Note_off_c, 0, 68, 64
3, 129840, Note_on_c, 0, 62, 64
3, 129960, Note_off_c, 0, 62, 64
3, 129960, Note_on_c, 0, 63, 64
3, 130080, Note_off_c, 0, 63, 64
3, 130080, Note_on_c, 0, 70, 64
3, 130200, Note_off_c, 0, 70, 64
3, 130200, Note_on_c, 0, 67, 64
3, 130320, Note_off_c, 0, 67, 64
3, 130320, Note_on_c, 0, 60, 64
3, 130440, Note_off_c, 0, 60, 64
3, 130440, Note_on_c, 0, 61, 64
3, 130560, Note_off_c, 0, 61, 64
3, 130560, Note_on_c, 0, 60, 64
3, 131160, Note_off_c, 0, 60, 64
3, 131160, Note_on_c, 0, 65, 64
3, 131280, Note_off_c, 0, 65, 64
3, 131280, Note_on_c, 0, 70, 64
3, 131400, Note_off_c, 0, 70, 64
3, 131400, Note_on_c, 0, 68, 64
3, 131520, Note_off_c, 0, 68, 64
3, 131520, Note_on_c, 0, 58, 64
3, 132120, Note_off_c, 0, 58, 64
3, 132120, Note_on_c, 0, 63, 64
3, 132240, Note_off_c, 0, 63, 64
3, 132240, Note_on_c, 0, 66, 64
3, 132360, Note_off_c, 0, 66, 64
3, 132360, Note_on_c, 0, 65, 64
3, 132480, Note_off_c, 0, 65, 64
3, 132480, Note_on_c, 0, 66, 64
3, 132600, Note_off_c, 0, 66, 64
3, 132600, Note_on_c, 0, 65, 64
3, 132720, Note_off_c, 0, 65, 64
3, 132720, Note_on_c, 0, 66, 64
3, 132840, Note_off_c, 0, 66, 64
3, 132840, Note_on_c, 0, 75, 64
3, 132960, Note_off_c, 0, 75, 64
3, 132960, Note_on_c, 0, 75, 64
3, 133080, Note_off_c, 0, 75, 64
3, 133080, Note_on_c, 0, 73, 64
3, 133200, Note_off_c, 0, 73, 64
3, 133200, Note_on_c, 0, 75, 64
3, 133320, Note_off_c, 0, 75, 64
3, 133320, Note_on_c, 0, 66, 64
3, 133440, Note_off_c, 0, 66, 64
3, 133440, Note_on_c, 0, 65, 64
3, 133560, Note_off_c, 0, 65, 64
3, 133560, Note_on_c, 0, 63, 64
3, 133680, Note_off_c, 0, 63, 64
3, 133680, Note_on_c, 0, 65, 64
3, 133800, Note_off_c, 0, 65, 64
3, 133800, Note_on_c, 0, 73, 64
3, 133920, Note_off_c, 0, 73, 64
3, 133920, Note_on_c, 0, 73, 64
3, 134040, Note_off_c, 0, 73, 64
3, 134040, Note_on_c, 0, 72, 64
3, 134160, Note_off_c, 0, 72, 64
3, 134160, Note_on_c, 0, 73, 64
3, 134280, Note_off_c, 0, 73, 64
3, 134280, Note_on_c, 0, 65, 64
3, 134400, Note_off_c, 0, 65, 64
3, 134400, Note_on_c, 0, 63, 64
3, 134520, Note_off_c, 0, 63, 64
3, 134520, Note_on_c, 0, 62, 64
3, 134640, Note_off_c, 0, 62, 64
3, 134640, Note_on_c, 0, 63, 64
3, 134760, Note_off_c, 0, 63, 64
3, 134760, Note_on_c, 0, 72, 64
3, 134880, Note_off_c, 0, 72, 64
3, 134880, Note_on_c, 0, 72, 64
3, 135000, Note_off_c, 0, 72, 64
3, 135000, Note_on_c, 0, 70, 64
3, 135120, Note_off_c, 0, 70, 64
3, 135120, Note_on_c, 0, 72, 64
3, 135240, Note_off_c, 0, 72, 64
3, 135240, Note_on_c, 0, 63, 64
3, 135360, Note_off_c, 0, 63, 64
3, 135360, Note_on_c, 0, 61, 64
3, 135480, Note_off_c, 0, 61, 64
3, 135480, Note_on_c, 0, 60, 64
3, 135600, Note_off_c, 0, 60, 64
3, 135600, Note_on_c, 0, 58, 64
3, 135840, Note_off_c, 0, 58, 64
3, 136080, Note_on_c, 0, 74, 64
3, 136200, Note_off_c, 0, 74, 64
3, 136200, Note_on_c, 0, 75, 64
3, 136320, Note_off_c, 0, 75, 64
3, 136320, Note_on_c, 0, 77, 64
3, 136440, Note_off_c, 0, 77, 64
3, 136440, Note_on_c, 0, 75, 64
3, 136560, Note_off_c, 0, 75, 64
3, 136560, Note_on_c, 0, 77, 64
3, 136680, Note_off_c, 0, 77, 64
3, 136680, Note_on_c, 0, 74, 64
3, 136800, Note_off_c, 0, 74, 64
3, 136800, Note_on_c, 0, 65, 64
3, 136920, Note_off_c, 0, 65, 64
3, 136920, Note_on_c, 0, 63, 64
3, 137040, Note_off_c, 0, 63, 64
3, 137040, Note_on_c, 0, 65, 64
3, 137160, Note_off_c, 0, 65, 64
3, 137160, Note_on_c, 0, 77, 64
3, 137280, Note_off_c, 0, 77, 64
3, 137280, Note_on_c, 0, 75, 64
3, 137400, Note_off_c, 0, 75, 64
3, 137400, Note_on_c, 0, 74, 64
3, 137520, Note_off_c, 0, 74, 64
3, 137520, Note_on_c, 0, 75, 64
3, 137640, Note_off_c, 0, 75, 64
3, 137640, Note_on_c, 0, 72, 64
3, 137760, Note_off_c, 0, 72, 64
3, 137760, Note_on_c, 0, 63, 64
3, 137880, Note_off_c, 0, 63, 64
3, 137880, Note_on_c, 0, 62, 64
3, 138000, Note_off_c, 0, 62, 64
3, 138000, Note_on_c, 0, 63, 64
3, 138120, Note_off_c, 0, 63, 64
3, 138120, Note_on_c, 0, 75, 64
3, 138240, Note_off_c, 0, 75, 64
3, 138240, Note_on_c, 0, 74, 64
3, 138360, Note_off_c, 0, 74, 64
3, 138360, Note_on_c, 0, 72, 64
3, 138480, Note_off_c, 0, 72, 64
3, 138480, Note_on_c, 0, 74, 64
3, 138600, Note_off_c, 0, 74, 64
3, 138600, Note_on_c, 0, 71, 64
3, 138720, Note_off_c, 0, 71, 64
3, 138720, Note_on_c, 0, 62, 64
3, 138840, Note_off_c, 0, 62, 64
3, 138840, Note_on_c, 0, 60, 64
3, 138960, Note_off_c, 0, 60, 64
3, 138960, Note_on_c, 0, 62, 64
3, 139080, Note_off_c, 0, 62, 64
3, 139080, Note_on_c, 0, 74, 64
3, 139200, Note_off_c, 0, 74, 64
3, 139200, Note_on_c, 0, 72, 64
3, 139680, Note_off_c, 0, 72, 64
3, 139920, Note_on_c, 0, 68, 64
3, 140400, Note_off_c, 0, 68, 64
3, 140400, Note_on_c, 0, 67, 64
3, 140640, Note_off_c, 0, 67, 64
3, 140880, Note_on_c, 0, 79, 64
3, 141360, Note_off_c, 0, 79, 64
3, 141360, Note_on_c, 0, 77, 64
3, 141600, Note_off_c, 0, 77, 64
3, 141840, Note_on_c, 0, 65, 64
3, 142200, Note_off_c, 0, 65, 64
3, 142200, Note_on_c, 0, 68, 64
3, 142320, Note_off_c, 0, 68, 64
3, 142320, Note_on_c, 0, 75, 64
3, 142440, Note_off_c, 0, 75, 64
3, 142440, Note_on_c, 0, 74, 64
3, 142560, Note_off_c, 0, 74, 64
3, 142560, Note_on_c, 0, 62, 64
3, 142680, Note_off_c, 0, 62, 64
3, 142680, Note_on_c, 0, 65, 64
3, 142800, Note_off_c, 0, 65, 64
3, 142800, Note_on_c, 0, 68, 64
3, 142920, Note_off_c, 0, 68, 64
3, 142920, Note_on_c, 0, 67, 64
3, 143040, Note_off_c, 0, 67, 64
3, 143040, Note_on_c, 0, 63, 64
3, 143160, Note_off_c, 0, 63, 64
3, 143160, Note_on_c, 0, 67, 64
3, 143280, Note_off_c, 0, 67, 64
3, 143280, Note_on_c, 0, 74, 64
3, 143400, Note_off_c, 0, 74, 64
3, 143400, Note_on_c, 0, 72, 64
3, 143520, Note_off_c, 0, 72, 64
3, 143520, Note_on_c, 0, 60, 64
3, 143640, Note_off_c, 0, 60, 64
3, 143640, Note_on_c, 0, 63, 64
3, 143760, Note_off_c, 0, 63, 64
3, 143760, Note_on_c, 0, 67, 64
3, 143880, Note_off_c, 0, 67, 64
3, 143880, Note_on_c, 0, 65, 64
3, 144000, Note_off_c, 0, 65, 64
3, 144000, Note_on_c, 0, 62, 64
3, 144120, Note_off_c, 0, 62, 64
3, 144120, Note_on_c, 0, 65, 64
3, 144240, Note_off_c, 0, 65, 64
3, 144240, Note_on_c, 0, 72, 64
3, 144360, Note_off_c, 0, 72, 64
3, 144360, Note_on_c, 0, 71, 64
3, 144480, Note_off_c, 0, 71, 64
3, 144480, Note_on_c, 0, 59, 64
3, 144600, Note_off_c, 0, 59, 64
3, 144600, Note_on_c, 0, 62, 64
3, 144720, Note_off_c, 0, 62, 64
3, 144720, Note_on_c, 0, 65, 64
3, 144840, Note_off_c, 0, 65, 64
3, 144840, Note_on_c, 0, 63, 64
3, 144960, Note_off_c, 0, 63, 64
3, 144960, Note_on_c, 0, 60, 64
3, 145080, Note_off_c, 0, 60, 64
3, 145080, Note_on_c, 0, 63, 64
3, 145200, Note_off_c, 0, 63, 64
3, 145200, Note_on_c, 0, 67, 64
3, 145320, Note_off_c, 0, 67, 64
3, 145320, Note_on_c, 0, 68, 64
3, 145440, Note_off_c, 0, 68, 64
3, 145440, Note_on_c, 0, 62, 64
3, 145560, Note_off_c, 0, 62, 64
3, 145560, Note_on_c, 0, 67, 64
3, 145680, Note_off_c, 0, 67, 64
3, 145680, Note_on_c, 0, 72, 64
3, 145800, Note_off_c, 0, 72, 64
3, 145800, Note_on_c, 0, 71, 64
3, 145920, Note_off_c, 0, 71, 64
3, 145920, Note_on_c, 0, 72, 64
3, 146160, Note_off_c, 0, 72, 64
3, 146160, Note_on_c, 0, 63, 64
3, 146400, Note_off_c, 0, 63, 64
3, 146400, Note_on_c, 0, 68, 64
3, 146640, Note_off_c, 0, 68, 64
3, 146640, Note_on_c, 0, 62, 64
3, 146880, Note_off_c, 0, 62, 64
3, 147120, Note_on_c, 0, 60, 64
3, 147360, Note_off_c, 0, 60, 64
3, 147360, Note_on_c, 0, 65, 64
3, 147600, Note_off_c, 0, 65, 64
3, 147600, Note_on_c, 0, 58, 64
3, 147840, Note_off_c, 0, 58, 64
3, 148080, Note_on_c, 0, 56, 64
3, 148320, Note_off_c, 0, 56, 64
3, 148320, Note_on_c, 0, 61, 64
3, 148560, Note_off_c, 0, 61, 64
3, 148560, Note_on_c, 0, 55, 64
3, 148800, Note_off_c, 0, 55, 64
3, 148920, Note_on_c, 0, 77, 64
3, 149040, Note_off_c, 0, 77, 64
3, 149040, Note_on_c, 0, 71, 64
3, 149160, Note_off_c, 0, 71, 64
3, 149160, Note_on_c, 0, 72, 64
3, 149280, Note_off_c, 0, 72, 64
3, 149280, Note_on_c, 0, 68, 64
3, 149400, Note_off_c, 0, 68, 64
3, 149400, Note_on_c, 0, 73, 64
3, 149520, Note_off_c, 0, 73, 64
3, 149520, Note_on_c, 0, 67, 64
3, 149640, Note_off_c, 0, 67, 64
3, 149640, Note_on_c, 0, 68, 64
3, 149760, Note_off_c, 0, 68, 64
3, 149760, Note_on_c, 0, 70, 64
3, 149820, Note_off_c, 0, 70, 64
3, 149820, Note_on_c, 0, 68, 64
3, 149880, Note_off_c, 0, 68, 64
3, 149880, Note_on_c, 0, 70, 64
3, 149940, Note_off_c, 0, 70, 64
3, 149940, Note_on_c, 0, 68, 64
3, 150000, Note_off_c, 0, 68, 64
3, 150000, Note_on_c, 0, 70, 64
3, 150060, Note_off_c, 0, 70, 64
3, 150060, Note_on_c, 0, 68, 64
3, 150120, Note_off_c, 0, 68, 64
3, 150120, Note_on_c, 0, 67, 64
3, 150180, Note_off_c, 0, 67, 64
3, 150180, Note_on_c, 0, 65, 64
3, 150240, Note_off_c, 0, 65, 64
3, 150240, Note_on_c, 0, 67, 64
3, 150300, Note_off_c, 0, 67, 64
3, 150300, Note_on_c, 0, 65, 64
3, 150360, Note_off_c, 0, 65, 64
3, 150360, Note_on_c, 0, 67, 64
3, 150420, Note_off_c, 0, 67, 64
3, 150420, Note_on_c, 0, 65, 64
3, 150480, Note_off_c, 0, 65, 64
3, 150480, Note_on_c, 0, 67, 64
3, 150540, Note_off_c, 0, 67, 64
3, 150540, Note_on_c, 0, 65, 64
3, 150600, Note_off_c, 0, 65, 64
3, 150600, Note_on_c, 0, 63, 64
3, 150660, Note_off_c, 0, 63, 64
3, 150660, Note_on_c, 0, 61, 64
3, 150720, Note_off_c, 0, 61, 64
3, 150720, Note_on_c, 0, 61, 64
3, 150840, Note_off_c, 0, 61, 64
3, 150840, Note_on_c, 0, 73, 64
3, 150960, Note_off_c, 0, 73, 64
3, 150960, Note_on_c, 0, 67, 64
3, 151080, Note_off_c, 0, 67, 64
3, 151080, Note_on_c, 0, 68, 64
3, 151200, Note_off_c, 0, 68, 64
3, 151200, Note_on_c, 0, 61, 64
3, 151320, Note_off_c, 0, 61, 64
3, 151320, Note_on_c, 0, 68, 64
3, 151440, Note_off_c, 0, 68, 64
3, 151440, Note_on_c, 0, 59, 64
3, 151560, Note_off_c, 0, 59, 64
3, 151560, Note_on_c, 0, 60, 64
3, 151680, Note_off_c, 0, 60, 64
3, 151680, Note_on_c, 0, 62, 64
3, 151740, Note_off_c, 0, 62, 64
3, 151740, Note_on_c, 0, 60, 64
3, 151800, Note_off_c, 0, 60, 64
3, 151800, Note_on_c, 0, 62, 64
3, 151860, Note_off_c, 0, 62, 64
3, 151860, Note_on_c, 0, 60, 64
3, 151920, Note_off_c, 0, 60, 64
3, 151920, Note_on_c, 0, 62, 64
3, 151980, Note_off_c, 0, 62, 64
3, 151980, Note_on_c, 0, 60, 64
3, 152040, Note_off_c, 0, 60, 64
3, 152040, Note_on_c, 0, 62, 64
3, 152100, Note_off_c, 0, 62, 64
3, 152100, Note_on_c, 0, 60, 64
3, 152160, Note_off_c, 0, 60, 64
3, 152160, Note_on_c, 0, 62, 64
3, 152220, Note_off_c, 0, 62, 64
3, 152220, Note_on_c, 0, 60, 64
3, 152280, Note_off_c, 0, 60, 64
3, 152280, Note_on_c, 0, 62, 64
3, 152340, Note_off_c, 0, 62, 64
3, 152340, Note_on_c, 0, 60, 64
3, 152400, Note_off_c, 0, 60, 64
3, 152400, Note_on_c, 0, 62, 64
3, 152460, Note_off_c, 0, 62, 64
3, 152460, Note_on_c, 0, 60, 64
3, 152520, Note_off_c, 0, 60, 64
3, 152520, Note_on_c, 0, 62, 64
3, 152580, Note_off_c, 0, 62, 64
3, 152580, Note_on_c, 0, 60, 64
3, 152640, Note_off_c, 0, 60, 64
3, 152640, Note_on_c, 0, 59, 64
3, 153120, Note_off_c, 0, 59, 64
3, 153360, Note_on_c, 0, 67, 64
3, 153600, Note_off_c, 0, 67, 64
3, 153600, Note_on_c, 0, 72, 64
3, 153960, Note_off_c, 0, 72, 64
3, 153960, Note_on_c, 0, 74, 64
3, 154020, Note_off_c, 0, 74, 64
3, 154020, Note_on_c, 0, 75, 64
3, 154080, Note_off_c, 0, 75, 64
3, 154080, Note_on_c, 0, 74, 64
3, 154440, Note_off_c, 0, 74, 64
3, 154440, Note_on_c, 0, 75, 64
3, 154500, Note_off_c, 0, 75, 64
3, 154500, Note_on_c, 0, 77, 64
3, 154560, Note_off_c, 0, 77, 64
3, 154560, Note_on_c, 0, 75, 64
3, 154680, Note_off_c, 0, 75, 64
3, 154680, Note_on_c, 0, 74, 64
3, 154800, Note_off_c, 0, 74, 64
3, 154800, Note_on_c, 0, 72, 64
3, 154920, Note_off_c, 0, 72, 64
3, 154920, Note_on_c, 0, 71, 64
3, 155040, Note_off_c, 0, 71, 64
3, 155040, Note_on_c, 0, 72, 64
3, 155160, Note_off_c, 0, 72, 64
3, 155160, Note_on_c, 0, 79, 64
3, 155280, Note_off_c, 0, 79, 64
3, 155280, Note_on_c, 0, 75, 64
3, 155400, Note_off_c, 0, 75, 64
3, 155400, Note_on_c, 0, 72, 64
3, 155520, Note_off_c, 0, 72, 64
3, 155520, Note_on_c, 0, 71, 64
3, 155640, Note_off_c, 0, 71, 64
3, 155640, Note_on_c, 0, 67, 64
3, 155760, Note_off_c, 0, 67, 64
3, 155760, Note_on_c, 0, 71, 64
3, 155880, Note_off_c, 0, 71, 64
3, 155880, Note_on_c, 0, 74, 64
3, 156000, Note_off_c, 0, 74, 64
3, 156000, Note_on_c, 0, 72, 64
3, 156120, Note_off_c, 0, 72, 64
3, 156120, Note_on_c, 0, 71, 64
3, 156240, Note_off_c, 0, 71, 64
3, 156240, Note_on_c, 0, 72, 64
3, 156360, Note_off_c, 0, 72, 64
3, 156360, Note_on_c, 0, 75, 64
3, 156480, Note_off_c, 0, 75, 64
3, 156480, Note_on_c, 0, 74, 64
3, 156600, Note_off_c, 0, 74, 64
3, 156600, Note_on_c, 0, 72, 64
3, 156720, Note_off_c, 0, 72, 64
3, 156720, Note_on_c, 0, 71, 64
3, 156840, Note_off_c, 0, 71, 64
3, 156840, Note_on_c, 0, 69, 64
3, 156960, Note_off_c, 0, 69, 64
3, 156960, Note_on_c, 0, 67, 64
3, 157080, Note_off_c, 0, 67, 64
3, 157080, Note_on_c, 0, 74, 64
3, 157200, Note_off_c, 0, 74, 64
3, 157200, Note_on_c, 0, 75, 64
3, 157320, Note_off_c, 0, 75, 64
3, 157320, Note_on_c, 0, 71, 64
3, 157440, Note_off_c, 0, 71, 64
3, 157440, Note_on_c, 0, 72, 64
3, 157560, Note_off_c, 0, 72, 64
3, 157560, Note_on_c, 0, 71, 64
3, 157680, Note_off_c, 0, 71, 64
3, 157680, Note_on_c, 0, 72, 64
3, 157800, Note_off_c, 0, 72, 64
3, 157800, Note_on_c, 0, 80, 64
3, 157920, Note_off_c, 0, 80, 64
3, 157920, Note_on_c, 0, 80, 64
3, 158040, Note_off_c, 0, 80, 64
3, 158040, Note_on_c, 0, 79, 64
3, 158160, Note_off_c, 0, 79, 64
3, 158160, Note_on_c, 0, 80, 64
3, 158280, Note_off_c, 0, 80, 64
3, 158280, Note_on_c, 0, 70, 64
3, 158400, Note_off_c, 0, 70, 64
3, 158400, Note_on_c, 0, 70, 64
3, 158520, Note_off_c, 0, 70, 64
3, 158520, Note_on_c, 0, 69, 64
3, 158640, Note_off_c, 0, 69, 64
3, 158640, Note_on_c, 0, 70, 64
3, 158760, Note_off_c, 0, 70, 64
3, 158760, Note_on_c, 0, 79, 64
3, 158880, Note_off_c, 0, 79, 64
3, 158880, Note_on_c, 0, 79, 64
3, 159000, Note_off_c, 0, 79, 64
3, 159000, Note_on_c, 0, 77, 64
3, 159120, Note_off_c, 0, 77, 64
3, 159120, Note_on_c, 0, 79, 64
3, 159240, Note_off_c, 0, 79, 64
3, 159240, Note_on_c, 0, 68, 64
3, 159360, Note_off_c, 0, 68, 64
3, 159360, Note_on_c, 0, 68, 64
3, 159480, Note_off_c, 0, 68, 64
3, 159480, Note_on_c, 0, 67, 64
3, 159600, Note_off_c, 0, 67, 64
3, 159600, Note_on_c, 0, 68, 64
3, 159720, Note_off_c, 0, 68, 64
3, 159720, Note_on_c, 0, 77, 64
3, 159840, Note_off_c, 0, 77, 64
3, 159840, Note_on_c, 0, 77, 64
3, 159960, Note_off_c, 0, 77, 64
3, 159960, Note_on_c, 0, 76, 64
3, 160080, Note_off_c, 0, 76, 64
3, 160080, Note_on_c, 0, 77, 64
3, 160200, Note_off_c, 0, 77, 64
3, 160200, Note_on_c, 0, 68, 64
3, 160320, Note_off_c, 0, 68, 64
3, 160320, Note_on_c, 0, 68, 64
3, 160560, Note_off_c, 0, 68, 64
3, 160560, Note_on_c, 0, 67, 64
3, 160800, Note_off_c, 0, 67, 64
3, 161040, Note_on_c, 0, 67, 64
3, 161280, Note_off_c, 0, 67, 64
3, 161280, Note_on_c, 0, 80, 64
3, 161340, Note_off_c, 0, 80, 64
3, 161340, Note_on_c, 0, 79, 64
3, 161400, Note_off_c, 0, 79, 64
3, 161400, Note_on_c, 0, 80, 64
3, 161460, Note_off_c, 0, 80, 64
3, 161460, Note_on_c, 0, 79, 64
3, 161520, Note_off_c, 0, 79, 64
3, 161520, Note_on_c, 0, 80, 64
3, 161580, Note_off_c, 0, 80, 64
3, 161580, Note_on_c, 0, 79, 64
3, 161640, Note_off_c, 0, 79, 64
3, 161640, Note_on_c, 0, 77, 64
3, 161700, Note_off_c, 0, 77, 64
3, 161700, Note_on_c, 0, 75, 64
3, 161760, Note_off_c, 0, 75, 64
3, 161760, Note_on_c, 0, 79, 64
3, 161820, Note_off_c, 0, 79, 64
3, 161820, Note_on_c, 0, 77, 64
3, 161880, Note_off_c, 0, 77, 64
3, 161880, Note_on_c, 0, 79, 64
3, 161940, Note_off_c, 0, 79, 64
3, 161940, Note_on_c, 0, 77, 64
3, 162000, Note_off_c, 0, 77, 64
3, 162000, Note_on_c, 0, 79, 64
3, 162060, Note_off_c, 0, 79, 64
3, 162060, Note_on_c, 0, 77, 64
3, 162120, Note_off_c, 0, 77, 64
3, 162120, Note_on_c, 0, 75, 64
3, 162180, Note_off_c, 0, 75, 64
3, 162180, Note_on_c, 0, 74, 64
3, 162240, Note_off_c, 0, 74, 64
3, 162240, Note_on_c, 0, 75, 64
3, 162360, Note_off_c, 0, 75, 64
3, 162360, Note_on_c, 0, 77, 64
3, 162480, Note_off_c, 0, 77, 64
3, 162480, Note_on_c, 0, 79, 64
3, 162600, Note_off_c, 0, 79, 64
3, 162600, Note_on_c, 0, 75, 64
3, 162720, Note_off_c, 0, 75, 64
3, 162720, Note_on_c, 0, 72, 64
3, 162840, Note_off_c, 0, 72, 64
3, 162840, Note_on_c, 0, 74, 64
3, 162960, Note_off_c, 0, 74, 64
3, 162960, Note_on_c, 0, 75, 64
3, 163080, Note_off_c, 0, 75, 64
3, 163080, Note_on_c, 0, 72, 64
3, 163200, Note_off_c, 0, 72, 64
3, 163200, Note_on_c, 0, 74, 64
3, 163320, Note_off_c, 0, 74, 64
3, 163320, Note_on_c, 0, 72, 64
3, 163440, Note_off_c, 0, 72, 64
3, 163440, Note_on_c, 0, 74, 64
3, 163560, Note_off_c, 0, 74, 64
3, 163560, Note_on_c, 0, 84, 64
3, 163680, Note_off_c, 0, 84, 64
3, 163680, Note_on_c, 0, 82, 64
3, 163800, Note_off_c, 0, 82, 64
3, 163800, Note_on_c, 0, 81, 64
3, 163920, Note_off_c, 0, 81, 64
3, 163920, Note_on_c, 0, 82, 64
3, 164040, Note_off_c, 0, 82, 64
3, 164040, Note_on_c, 0, 74, 64
3, 164160, Note_off_c, 0, 74, 64
3, 164160, Note_on_c, 0, 72, 64
3, 164280, Note_off_c, 0, 72, 64
3, 164280, Note_on_c, 0, 70, 64
3, 164400, Note_off_c, 0, 70, 64
3, 164400, Note_on_c, 0, 72, 64
3, 164520, Note_off_c, 0, 72, 64
3, 164520, Note_on_c, 0, 82, 64
3, 164640, Note_off_c, 0, 82, 64
3, 164640, Note_on_c, 0, 81, 64
3, 164760, Note_off_c, 0, 81, 64
3, 164760, Note_on_c, 0, 79, 64
3, 164880, Note_off_c, 0, 79, 64
3, 164880, Note_on_c, 0, 81, 64
3, 165000, Note_off_c, 0, 81, 64
3, 165000, Note_on_c, 0, 72, 64
3, 165120, Note_off_c, 0, 72, 64
3, 165120, Note_on_c, 0, 70, 64
3, 165240, Note_off_c, 0, 70, 64
3, 165240, Note_on_c, 0, 69, 64
3, 165360, Note_off_c, 0, 69, 64
3, 165360, Note_on_c, 0, 67, 64
3, 165840, Note_off_c, 0, 67, 64
3, 165840, Note_on_c, 0, 66, 64
3, 166080, Note_off_c, 0, 66, 64
3, 166080, Note_on_c, 0, 67, 64
3, 166320, Note_off_c, 0, 67, 64
3, 166320, Note_on_c, 0, 62, 64
3, 166560, Note_off_c, 0, 62, 64
3, 166560, Note_on_c, 0, 74, 64
3, 167280, Note_off_c, 0, 74, 64
3, 167280, Note_on_c, 0, 62, 64
3, 167520, Note_off_c, 0, 62, 64
3, 167520, Note_on_c, 0, 74, 64
3, 168240, Note_off_c, 0, 74, 64
3, 168240, Note_on_c, 0, 81, 64
3, 168480, Note_off_c, 0, 81, 64
3, 168480, Note_on_c, 0, 78, 64
3, 168720, Note_off_c, 0, 78, 64
3, 168720, Note_on_c, 0, 74, 64
3, 169200, Note_off_c, 0, 74, 64
3, 169200, Note_on_c, 0, 67, 64
3, 169440, Note_off_c, 0, 67, 64
3, 169440, Note_on_c, 0, 72, 64
3, 169560, Note_off_c, 0, 72, 64
3, 169560, Note_on_c, 0, 70, 64
3, 169680, Note_off_c, 0, 70, 64
3, 169680, Note_on_c, 0, 72, 64
3, 170160, Note_off_c, 0, 72, 64
3, 170160, Note_on_c, 0, 65, 64
3, 170400, Note_off_c, 0, 65, 64
3, 170400, Note_on_c, 0, 70, 64
3, 170520, Note_off_c, 0, 70, 64
3, 170520, Note_on_c, 0, 69, 64
3, 170640, Note_off_c, 0, 69, 64
3, 170640, Note_on_c, 0, 70, 64
3, 171120, Note_off_c, 0, 70, 64
3, 171120, Note_on_c, 0, 67, 64
3, 171360, Note_off_c, 0, 67, 64
3, 171360, Note_on_c, 0, 63, 64
3, 171600, Note_off_c, 0, 63, 64
3, 171600, Note_on_c, 0, 68, 64
3, 171840, Note_off_c, 0, 68, 64
3, 171840, Note_on_c, 0, 66, 64
3, 171960, Note_off_c, 0, 66, 64
3, 171960, Note_on_c, 0, 62, 64
3, 172080, Note_off_c, 0, 62, 64
3, 172080, Note_on_c, 0, 66, 64
3, 172200, Note_off_c, 0, 66, 64
3, 172200, Note_on_c, 0, 69, 64
3, 172320, Note_off_c, 0, 69, 64
3, 172320, Note_on_c, 0, 72, 64
3, 172440, Note_off_c, 0, 72, 64
3, 172440, Note_on_c, 0, 78, 64
3, 172560, Note_off_c, 0, 78, 64
3, 172560, Note_on_c, 0, 81, 64
3, 172680, Note_off_c, 0, 81, 64
3, 172680, Note_on_c, 0, 72, 64
3, 172800, Note_off_c, 0, 72, 64
3, 172800, Note_on_c, 0, 70, 64
3, 172920, Note_off_c, 0, 70, 64
3, 172920, Note_on_c, 0, 74, 64
3, 173040, Note_off_c, 0, 74, 64
3, 173040, Note_on_c, 0, 79, 64
3, 173520, Note_off_c, 0, 79, 64
3, 173520, Note_on_c, 0, 78, 64
3, 173760, Note_off_c, 0, 78, 64
3, 173760, Note_on_c, 0, 79, 64
3, 174000, Note_off_c, 0, 79, 64
3, 174000, Note_on_c, 0, 67, 64
3, 174240, Note_off_c, 0, 67, 64
3, 174240, Note_on_c, 0, 79, 64
3, 174960, Note_off_c, 0, 79, 64
3, 174960, Note_on_c, 0, 77, 64
3, 175080, Note_off_c, 0, 77, 64
3, 175080, Note_on_c, 0, 75, 64
3, 175200, Note_off_c, 0, 75, 64
3, 175200, Note_on_c, 0, 77, 64
3, 175920, Note_off_c, 0, 77, 64
3, 175920, Note_on_c, 0, 67, 64
3, 176040, Note_off_c, 0, 67, 64
3, 176040, Note_on_c, 0, 70, 64
3, 176160, Note_off_c, 0, 70, 64
3, 176160, Note_on_c, 0, 75, 64
3, 176880, Note_off_c, 0, 75, 64
3, 176880, Note_on_c, 0, 74, 64
3, 177000, Note_off_c, 0, 74, 64
3, 177000, Note_on_c, 0, 72, 64
3, 177120, Note_off_c, 0, 72, 64
3, 177120, Note_on_c, 0, 74, 64
3, 177840, Note_off_c, 0, 74, 64
3, 177840, Note_on_c, 0, 63, 64
3, 177960, Note_off_c, 0, 63, 64
3, 177960, Note_on_c, 0, 67, 64
3, 178080, Note_off_c, 0, 67, 64
3, 178080, Note_on_c, 0, 72, 64
3, 178200, Note_off_c, 0, 72, 64
3, 178200, Note_on_c, 0, 74, 64
3, 178320, Note_off_c, 0, 74, 64
3, 178320, Note_on_c, 0, 75, 64
3, 178440, Note_off_c, 0, 75, 64
3, 178440, Note_on_c, 0, 72, 64
3, 178560, Note_off_c, 0, 72, 64
3, 178560, Note_on_c, 0, 73, 64
3, 178680, Note_off_c, 0, 73, 64
3, 178680, Note_on_c, 0, 72, 64
3, 178800, Note_off_c, 0, 72, 64
3, 178800, Note_on_c, 0, 73, 64
3, 178920, Note_off_c, 0, 73, 64
3, 178920, Note_on_c, 0, 65, 64
3, 179040, Note_off_c, 0, 65, 64
3, 179040, Note_on_c, 0, 63, 64
3, 179160, Note_off_c, 0, 63, 64
3, 179160, Note_on_c, 0, 62, 64
3, 179280, Note_off_c, 0, 62, 64
3, 179280, Note_on_c, 0, 63, 64
3, 179400, Note_off_c, 0, 63, 64
3, 179400, Note_on_c, 0, 73, 64
3, 179520, Note_off_c, 0, 73, 64
3, 179520, Note_on_c, 0, 72, 64
3, 179640, Note_off_c, 0, 72, 64
3, 179640, Note_on_c, 0, 73, 64
3, 179760, Note_off_c, 0, 73, 64
3, 179760, Note_on_c, 0, 75, 64
3, 179880, Note_off_c, 0, 75, 64
3, 179880, Note_on_c, 0, 72, 64
3, 180000, Note_off_c, 0, 72, 64
3, 180000, Note_on_c, 0, 68, 64
3, 180120, Note_off_c, 0, 68, 64
3, 180120, Note_on_c, 0, 70, 64
3, 180240, Note_off_c, 0, 70, 64
3, 180240, Note_on_c, 0, 72, 64
3, 180360, Note_off_c, 0, 72, 64
3, 180360, Note_on_c, 0, 68, 64
3, 180480, Note_off_c, 0, 68, 64
3, 180480, Note_on_c, 0, 70, 64
3, 180600, Note_off_c, 0, 70, 64
3, 180600, Note_on_c, 0, 68, 64
3, 180720, Note_off_c, 0, 68, 64
3, 180720, Note_on_c, 0, 70, 64
3, 180840, Note_off_c, 0, 70, 64
3, 180840, Note_on_c, 0, 61, 64
3, 180960, Note_off_c, 0, 61, 64
3, 180960, Note_on_c, 0, 60, 64
3, 181080, Note_off_c, 0, 60, 64
3, 181080, Note_on_c, 0, 59, 64
3, 181200, Note_off_c, 0, 59, 64
3, 181200, Note_on_c, 0, 60, 64
3, 181320, Note_off_c, 0, 60, 64
3, 181320, Note_on_c, 0, 70, 64
3, 181440, Note_off_c, 0, 70, 64
3, 181440, Note_on_c, 0, 68, 64
3, 181560, Note_off_c, 0, 68, 64
3, 181560, Note_on_c, 0, 70, 64
3, 181680, Note_off_c, 0, 70, 64
3, 181680, Note_on_c, 0, 72, 64
3, 181800, Note_off_c, 0, 72, 64
3, 181800, Note_on_c, 0, 68, 64
3, 181920, Note_off_c, 0, 68, 64
3, 181920, Note_on_c, 0, 65, 64
3, 182160, Note_off_c, 0, 65, 64
3, 182160, Note_on_c, 0, 80, 64
3, 182400, Note_off_c, 0, 80, 64
3, 182400, Note_on_c, 0, 79, 64
3, 183120, Note_off_c, 0, 79, 64
3, 183120, Note_on_c, 0, 72, 64
3, 183360, Note_off_c, 0, 72, 64
3, 183360, Note_on_c, 0, 77, 64
3, 183960, Note_off_c, 0, 77, 64
3, 183960, Note_on_c, 0, 75, 64
3, 184080, Note_off_c, 0, 75, 64
3, 184080, Note_on_c, 0, 74, 64
3, 184200, Note_off_c, 0, 74, 64
3, 184200, Note_on_c, 0, 77, 64
3, 184320, Note_off_c, 0, 77, 64
3, 184320, Note_on_c, 0, 75, 64
3, 184440, Note_off_c, 0, 75, 64
3, 184440, Note_on_c, 0, 77, 64
3, 184560, Note_off_c, 0, 77, 64
3, 184560, Note_on_c, 0, 79, 64
3, 184680, Note_off_c, 0, 79, 64
3, 184680, Note_on_c, 0, 75, 64
3, 184800, Note_off_c, 0, 75, 64
3, 184800, Note_on_c, 0, 72, 64
3, 185040, Note_off_c, 0, 72, 64
3, 185040, Note_on_c, 0, 72, 64
3, 185400, Note_off_c, 0, 72, 64
3, 185400, Note_on_c, 0, 71, 64
3, 185520, Note_off_c, 0, 71, 64
3, 185520, Note_on_c, 0, 72, 64
3, 185640, Note_off_c, 0, 72, 64
3, 185640, Note_on_c, 0, 75, 64
3, 185760, Note_off_c, 0, 75, 64
3, 185760, Note_on_c, 0, 72, 64
3, 185880, Note_off_c, 0, 72, 64
3, 185880, Note_on_c, 0, 71, 64
3, 186000, Note_off_c, 0, 71, 64
3, 186000, Note_on_c, 0, 72, 64
3, 186120, Note_off_c, 0, 72, 64
3, 186120, Note_on_c, 0, 75, 64
3, 186240, Note_off_c, 0, 75, 64
3, 186240, Note_on_c, 0, 74, 64
3, 186300, Note_off_c, 0, 74, 64
3, 186300, Note_on_c, 0, 72, 64
3, 186360, Note_off_c, 0, 72, 64
3, 186360, Note_on_c, 0, 74, 64
3, 186420, Note_off_c, 0, 74, 64
3, 186420, Note_on_c, 0, 72, 64
3, 186480, Note_off_c, 0, 72, 64
3, 186480, Note_on_c, 0, 71, 64
3, 186720, Note_off_c, 0, 71, 64
3, 187680, Note_on_c, 0, 60, 64
3, 187800, Note_off_c, 0, 60, 64
3, 187800, Note_on_c, 0, 65, 64
3, 187920, Note_off_c, 0, 65, 64
3, 187920, Note_on_c, 0, 70, 64
3, 188040, Note_off_c, 0, 70, 64
3, 188040, Note_on_c, 0, 69, 64
3, 188160, Note_off_c, 0, 69, 64
3, 188640, Note_on_c, 0, 58, 64
3, 188760, Note_off_c, 0, 58, 64
3, 188760, Note_on_c, 0, 62, 64
3, 188880, Note_off_c, 0, 62, 64
3, 188880, Note_on_c, 0, 69, 64
3, 189000, Note_off_c, 0, 69, 64
3, 189000, Note_on_c, 0, 67, 64
3, 189120, Note_off_c, 0, 67, 64
3, 189600, Note_on_c, 0, 57, 64
3, 189720, Note_off_c, 0, 57, 64
3, 189720, Note_on_c, 0, 62, 64
3, 189840, Note_off_c, 0, 62, 64
3, 189840, Note_on_c, 0, 67, 64
3, 189960, Note_off_c, 0, 67, 64
3, 189960, Note_on_c, 0, 66, 64
3, 190080, Note_off_c, 0, 66, 64
3, 190080, Note_on_c, 0, 55, 64
3, 190560, Note_off_c, 0, 55, 64
3, 190680, Note_on_c, 0, 67, 64
3, 190800, Note_off_c, 0, 67, 64
3, 190800, Note_on_c, 0, 69, 64
3, 190920, Note_off_c, 0, 69, 64
3, 190920, Note_on_c, 0, 70, 64
3, 191040, Note_off_c, 0, 70, 64
3, 191040, Note_on_c, 0, 60, 64
3, 191160, Note_off_c, 0, 60, 64
3, 191160, Note_on_c, 0, 63, 64
3, 191280, Note_off_c, 0, 63, 64
3, 191280, Note_on_c, 0, 70, 64
3, 191400, Note_off_c, 0, 70, 64
3, 191400, Note_on_c, 0, 69, 64
3, 191520, Note_off_c, 0, 69, 64
3, 191520, Note_on_c, 0, 62, 64
3, 191640, Note_off_c, 0, 62, 64
3, 191640, Note_on_c, 0, 65, 64
3, 191760, Note_off_c, 0, 65, 64
3, 191760, Note_on_c, 0, 72, 64
3, 191880, Note_off_c, 0, 72, 64
3, 191880, Note_on_c, 0, 71, 64
3, 192000, Note_off_c, 0, 71, 64
3, 192000, Note_on_c, 0, 72, 64
3, 192120, Note_off_c, 0, 72, 64
3, 192120, Note_on_c, 0, 74, 64
3, 192240, Note_off_c, 0, 74, 64
3, 192240, Note_on_c, 0, 75, 64
3, 192360, Note_off_c, 0, 75, 64
3, 192360, Note_on_c, 0, 72, 64
3, 192480, Note_off_c, 0, 72, 64
3, 192480, Note_on_c, 0, 67, 64
3, 192600, Note_off_c, 0, 67, 64
3, 192600, Note_on_c, 0, 69, 64
3, 192720, Note_off_c, 0, 69, 64
3, 192720, Note_on_c, 0, 70, 64
3, 192840, Note_off_c, 0, 70, 64
3, 192840, Note_on_c, 0, 67, 64
3, 192960, Note_off_c, 0, 67, 64
3, 192960, Note_on_c, 0, 64, 64
3, 193080, Note_off_c, 0, 64, 64
3, 193080, Note_on_c, 0, 67, 64
3, 193200, Note_off_c, 0, 67, 64
3, 193200, Note_on_c, 0, 70, 64
3, 193320, Note_off_c, 0, 70, 64
3, 193320, Note_on_c, 0, 69, 64
3, 193440, Note_off_c, 0, 69, 64
3, 193440, Note_on_c, 0, 67, 64
3, 193560, Note_off_c, 0, 67, 64
3, 193560, Note_on_c, 0, 70, 64
3, 193680, Note_off_c, 0, 70, 64
3, 193680, Note_on_c, 0, 74, 64
3, 193800, Note_off_c, 0, 74, 64
3, 193800, Note_on_c, 0, 73, 64
3, 193920, Note_off_c, 0, 73, 64
3, 193920, Note_on_c, 0, 74, 64
3, 194160, Note_off_c, 0, 74, 64
3, 194160, Note_on_c, 0, 84, 64
3, 194640, Note_off_c, 0, 84, 64
3, 194640, Note_on_c, 0, 74, 64
3, 195000, Note_off_c, 0, 74, 64
3, 195000, Note_on_c, 0, 82, 64
3, 195120, Note_off_c, 0, 82, 64
3, 195120, Note_on_c, 0, 72, 64
3, 195480, Note_off_c, 0, 72, 64
3, 195480, Note_on_c, 0, 81, 64
3, 195600, Note_off_c, 0, 81, 64
3, 195600, Note_on_c, 0, 70, 64
3, 195960, Note_off_c, 0, 70, 64
3, 195960, Note_on_c, 0, 79, 64
3, 196080, Note_off_c, 0, 79, 64
3, 196080, Note_on_c, 0, 69, 64
3, 196560, Note_off_c, 0, 69, 64
3, 196560, Note_on_c, 0, 78, 64
3, 196800, Note_off_c, 0, 78, 64
3, 196800, Note_on_c, 0, 79, 64
3, 197160, Note_off_c, 0, 79, 64
3, 197160, Note_on_c, 0, 81, 64
3, 197280, Note_off_c, 0, 81, 64
3, 197280, Note_on_c, 0, 79, 64
3, 197320, Note_off_c, 0, 79, 64
3, 197320, Note_on_c, 0, 78, 64
3, 197360, Note_off_c, 0, 78, 64
3, 197360, Note_on_c, 0, 79, 64
3, 197400, Note_off_c, 0, 79, 64
3, 197400, Note_on_c, 0, 78, 64
3, 197640, Note_off_c, 0, 78, 64
3, 197640, Note_on_c, 0, 79, 64
3, 197760, Note_off_c, 0, 79, 64
3, 197760, Note_on_c, 0, 79, 64
3, 198240, Note_off_c, 0, 79, 64
3, 198480, Note_on_c, 0, 62, 64
3, 198720, Note_off_c, 0, 62, 64
3, 198720, Note_on_c, 0, 67, 64
3, 199080, Note_off_c, 0, 67, 64
3, 199080, Note_on_c, 0, 69, 64
3, 199140, Note_off_c, 0, 69, 64
3, 199140, Note_on_c, 0, 70, 64
3, 199200, Note_off_c, 0, 70, 64
3, 199200, Note_on_c, 0, 69, 64
3, 199560, Note_off_c, 0, 69, 64
3, 199560, Note_on_c, 0, 70, 64
3, 199620, Note_off_c, 0, 70, 64
3, 199620, Note_on_c, 0, 72, 64
3, 199680, Note_off_c, 0, 72, 64
3, 199680, Note_on_c, 0, 70, 64
3, 199800, Note_off_c, 0, 70, 64
3, 199800, Note_on_c, 0, 69, 64
3, 199920, Note_off_c, 0, 69, 64
3, 199920, Note_on_c, 0, 67, 64
3, 200040, Note_off_c, 0, 67, 64
3, 200040, Note_on_c, 0, 66, 64
3, 200160, Note_off_c, 0, 66, 64
3, 200160, Note_on_c, 0, 67, 64
3, 200280, Note_off_c, 0, 67, 64
3, 200280, Note_on_c, 0, 74, 64
3, 200400, Note_off_c, 0, 74, 64
3, 200400, Note_on_c, 0, 70, 64
3, 200520, Note_off_c, 0, 70, 64
3, 200520, Note_on_c, 0, 67, 64
3, 200640, Note_off_c, 0, 67, 64
3, 200640, Note_on_c, 0, 66, 64
3, 200760, Note_off_c, 0, 66, 64
3, 200760, Note_on_c, 0, 62, 64
3, 200880, Note_off_c, 0, 62, 64
3, 200880, Note_on_c, 0, 66, 64
3, 201000, Note_off_c, 0, 66, 64
3, 201000, Note_on_c, 0, 69, 64
3, 201120, Note_off_c, 0, 69, 64
3, 201120, Note_on_c, 0, 67, 64
3, 201240, Note_off_c, 0, 67, 64
3, 201240, Note_on_c, 0, 66, 64
3, 201360, Note_off_c, 0, 66, 64
3, 201360, Note_on_c, 0, 67, 64
3, 201480, Note_off_c, 0, 67, 64
3, 201480, Note_on_c, 0, 70, 64
3, 201600, Note_off_c, 0, 70, 64
3, 201600, Note_on_c, 0, 69, 64
3, 201720, Note_off_c, 0, 69, 64
3, 201720, Note_on_c, 0, 67, 64
3, 201840, Note_off_c, 0, 67, 64
3, 201840, Note_on_c, 0, 66, 64
3, 201960, Note_off_c, 0, 66, 64
3, 201960, Note_on_c, 0, 64, 64
3, 202080, Note_off_c, 0, 64, 64
3, 202080, Note_on_c, 0, 62, 64
3, 202200, Note_off_c, 0, 62, 64
3, 202200, Note_on_c, 0, 69, 64
3, 202320, Note_off_c, 0, 69, 64
3, 202320, Note_on_c, 0, 70, 64
3, 202440, Note_off_c, 0, 70, 64
3, 202440, Note_on_c, 0, 66, 64
3, 202560, Note_off_c, 0, 66, 64
3, 202560, Note_on_c, 0, 67, 64
3, 202680, Note_off_c, 0, 67, 64
3, 202680, Note_on_c, 0, 66, 64
3, 202800, Note_off_c, 0, 66, 64
3, 202800, Note_on_c, 0, 67, 64
3, 202920, Note_off_c, 0, 67, 64
3, 202920, Note_on_c, 0, 75, 64
3, 203040, Note_off_c, 0, 75, 64
3, 203040, Note_on_c, 0, 75, 64
3, 203160, Note_off_c, 0, 75, 64
3, 203160, Note_on_c, 0, 74, 64
3, 203280, Note_off_c, 0, 74, 64
3, 203280, Note_on_c, 0, 75, 64
3, 203400, Note_off_c, 0, 75, 64
3, 203400, Note_on_c, 0, 65, 64
3, 203520, Note_off_c, 0, 65, 64
3, 203520, Note_on_c, 0, 65, 64
3, 203640, Note_off_c, 0, 65, 64
3, 203640, Note_on_c, 0, 64, 64
3, 203760, Note_off_c, 0, 64, 64
3, 203760, Note_on_c, 0, 65, 64
3, 203880, Note_off_c, 0, 65, 64
3, 203880, Note_on_c, 0, 74, 64
3, 204000, Note_off_c, 0, 74, 64
3, 204000, Note_on_c, 0, 74, 64
3, 204120, Note_off_c, 0, 74, 64
3, 204120, Note_on_c, 0, 73, 64
3, 204240, Note_off_c, 0, 73, 64
3, 204240, Note_on_c, 0, 74, 64
3, 204360, Note_off_c, 0, 74, 64
3, 204360, Note_on_c, 0, 63, 64
3, 204480, Note_off_c, 0, 63, 64
3, 204480, Note_on_c, 0, 63, 64
3, 204600, Note_off_c, 0, 63, 64
3, 204600, Note_on_c, 0, 62, 64
3, 204720, Note_off_c, 0, 62, 64
3, 204720, Note_on_c, 0, 63, 64
3, 204840, Note_off_c, 0, 63, 64
3, 204840, Note_on_c, 0, 72, 64
3, 204960, Note_off_c, 0, 72, 64
3, 204960, Note_on_c, 0, 72, 64
3, 205080, Note_off_c, 0, 72, 64
3, 205080, Note_on_c, 0, 71, 64
3, 205200, Note_off_c, 0, 71, 64
3, 205200, Note_on_c, 0, 72, 64
3, 205320, Note_off_c, 0, 72, 64
3, 205320, Note_on_c, 0, 63, 64
3, 205440, Note_off_c, 0, 63, 64
3, 205440, Note_on_c, 0, 63, 64
3, 205680, Note_off_c, 0, 63, 64
3, 205680, Note_on_c, 0, 62, 64
3, 205920, Note_off_c, 0, 62, 64
3, 206160, Note_on_c, 0, 62, 64
3, 206400, Note_off_c, 0, 62, 64
3, 206400, Note_on_c, 0, 75, 64
3, 206460, Note_off_c, 0, 75, 64
3, 206460, Note_on_c, 0, 74, 64
3, 206520, Note_off_c, 0, 74, 64
3, 206520, Note_on_c, 0, 75, 64
3, 206580, Note_off_c, 0, 75, 64
3, 206580, Note_on_c, 0, 74, 64
3, 206640, Note_off_c, 0, 74, 64
3, 206640, Note_on_c, 0, 75, 64
3, 206700, Note_off_c, 0, 75, 64
3, 206700, Note_on_c, 0, 74, 64
3, 206760, Note_off_c, 0, 74, 64
3, 206760, Note_on_c, 0, 72, 64
3, 206820, Note_off_c, 0, 72, 64
3, 206820, Note_on_c, 0, 70, 64
3, 206880, Note_off_c, 0, 70, 64
3, 206880, Note_on_c, 0, 74, 64
3, 206940, Note_off_c, 0, 74, 64
3, 206940, Note_on_c, 0, 72, 64
3, 207000, Note_off_c, 0, 72, 64
3, 207000, Note_on_c, 0, 74, 64
3, 207060, Note_off_c, 0, 74, 64
3, 207060, Note_on_c, 0, 72, 64
3, 207120, Note_off_c, 0, 72, 64
3, 207120, Note_on_c, 0, 74, 64
3, 207180, Note_off_c, 0, 74, 64
3, 207180, Note_on_c, 0, 72, 64
3, 207240, Note_off_c, 0, 72, 64
3, 207240, Note_on_c, 0, 70, 64
3, 207300, Note_off_c, 0, 70, 64
3, 207300, Note_on_c, 0, 69, 64
3, 207360, Note_off_c, 0, 69, 64
3, 207360, Note_on_c, 0, 70, 64
3, 207480, Note_off_c, 0, 70, 64
3, 207480, Note_on_c, 0, 72, 64
3, 207600, Note_off_c, 0, 72, 64
3, 207600, Note_on_c, 0, 74, 64
3, 207720, Note_off_c, 0, 74, 64
3, 207720, Note_on_c, 0, 70, 64
3, 207840, Note_off_c, 0, 70, 64
3, 207840, Note_on_c, 0, 67, 64
3, 207960, Note_off_c, 0, 67, 64
3, 207960, Note_on_c, 0, 69, 64
3, 208080, Note_off_c, 0, 69, 64
3, 208080, Note_on_c, 0, 70, 64
3, 208200, Note_off_c, 0, 70, 64
3, 208200, Note_on_c, 0, 67, 64
3, 208320, Note_off_c, 0, 67, 64
3, 208320, Note_on_c, 0, 68, 64
3, 208440, Note_off_c, 0, 68, 64
3, 208440, Note_on_c, 0, 67, 64
3, 208560, Note_off_c, 0, 67, 64
3, 208560, Note_on_c, 0, 68, 64
3, 208680, Note_off_c, 0, 68, 64
3, 208680, Note_on_c, 0, 77, 64
3, 208800, Note_off_c, 0, 77, 64
3, 208800, Note_on_c, 0, 77, 64
3, 208920, Note_off_c, 0, 77, 64
3, 208920, Note_on_c, 0, 75, 64
3, 209040, Note_off_c, 0, 75, 64
3, 209040, Note_on_c, 0, 77, 64
3, 209160, Note_off_c, 0, 77, 64
3, 209160, Note_on_c, 0, 68, 64
3, 209280, Note_off_c, 0, 68, 64
3, 209280, Note_on_c, 0, 68, 64
3, 209520, Note_off_c, 0, 68, 64
3, 209520, Note_on_c, 0, 67, 64
3, 209760, Note_off_c, 0, 67, 64
3, 210000, Note_on_c, 0, 72, 64
3, 210360, Note_off_c, 0, 72, 64
3, 210360, Note_on_c, 0, 71, 64
3, 210480, Note_off_c, 0, 71, 64
3, 210480, Note_on_c, 0, 72, 64
3, 210600, Note_off_c, 0, 72, 64
3, 210600, Note_on_c, 0, 80, 64
3, 210720, Note_off_c, 0, 80, 64
3, 210720, Note_on_c, 0, 80, 64
3, 210840, Note_off_c, 0, 80, 64
3, 210840, Note_on_c, 0, 79, 64
3, 210960, Note_off_c, 0, 79, 64
3, 210960, Note_on_c, 0, 80, 64
3, 211080, Note_off_c, 0, 80, 64
3, 211080, Note_on_c, 0, 72, 64
3, 211200, Note_off_c, 0, 72, 64
3, 211200, Note_on_c, 0, 72, 64
3, 211440, Note_off_c, 0, 72, 64
3, 211440, Note_on_c, 0, 71, 64
3, 211680, Note_off_c, 0, 71, 64
3, 211920, Note_on_c, 0, 74, 64
3, 212400, Note_off_c, 0, 74, 64
3, 212400, Note_on_c, 0, 72, 64
3, 212640, Note_off_c, 0, 72, 64
3, 212880, Note_on_c, 0, 72, 64
3, 213360, Note_off_c, 0, 72, 64
3, 213360, Note_on_c, 0, 70, 64
3, 213600, Note_off_c, 0, 70, 64
3, 213840, Note_on_c, 0, 75, 64
3, 214320, Note_off_c, 0, 75, 64
3, 214320, Note_on_c, 0, 76, 64
3, 214560, Note_off_c, 0, 76, 64
3, 214560, Note_on_c, 0, 77, 64
3, 214800, Note_off_c, 0, 77, 64
3, 214800, Note_on_c, 0, 68, 64
3, 215280, Note_off_c, 0, 68, 64
3, 215280, Note_on_c, 0, 67, 64
3, 215520, Note_off_c, 0, 67, 64
3, 215760, Note_on_c, 0, 72, 64
3, 216120, Note_off_c, 0, 72, 64
3, 216120, Note_on_c, 0, 70, 64
3, 216240, Note_off_c, 0, 70, 64
3, 216240, Note_on_c, 0, 72, 64
3, 216360, Note_off_c, 0, 72, 64
3, 216360, Note_on_c, 0, 77, 64
3, 216480, Note_off_c, 0, 77, 64
3, 216480, Note_on_c, 0, 77, 64
3, 216600, Note_off_c, 0, 77, 64
3, 216600, Note_on_c, 0, 76, 64
3, 216720, Note_off_c, 0, 76, 64
3, 216720, Note_on_c, 0, 77, 64
3, 216840, Note_off_c, 0, 77, 64
3, 216840, Note_on_c, 0, 68, 64
3, 216960, Note_off_c, 0, 68, 64
3, 216960, Note_on_c, 0, 67, 64
3, 217080, Note_off_c, 0, 67, 64
3, 217080, Note_on_c, 0, 65, 64
3, 217200, Note_off_c, 0, 65, 64
3, 217200, Note_on_c, 0, 67, 64
3, 217320, Note_off_c, 0, 67, 64
3, 217320, Note_on_c, 0, 75, 64
3, 217440, Note_off_c, 0, 75, 64
3, 217440, Note_on_c, 0, 75, 64
3, 217560, Note_off_c, 0, 75, 64
3, 217560, Note_on_c, 0, 74, 64
3, 217680, Note_off_c, 0, 74, 64
3, 217680, Note_on_c, 0, 75, 64
3, 217800, Note_off_c, 0, 75, 64
3, 217800, Note_on_c, 0, 67, 64
3, 217920, Note_off_c, 0, 67, 64
3, 217920, Note_on_c, 0, 65, 64
3, 218040, Note_off_c, 0, 65, 64
3, 218040, Note_on_c, 0, 63, 64
3, 218160, Note_off_c, 0, 63, 64
3, 218160, Note_on_c, 0, 65, 64
3, 218280, Note_off_c, 0, 65, 64
3, 218280, Note_on_c, 0, 74, 64
3, 218400, Note_off_c, 0, 74, 64
3, 218400, Note_on_c, 0, 74, 64
3, 218520, Note_off_c, 0, 74, 64
3, 218520, Note_on_c, 0, 72, 64
3, 218640, Note_off_c, 0, 72, 64
3, 218640, Note_on_c, 0, 74, 64
3, 218760, Note_off_c, 0, 74, 64
3, 218760, Note_on_c, 0, 65, 64
3, 218880, Note_off_c, 0, 65, 64
3, 218880, Note_on_c, 0, 63, 64
3, 219000, Note_off_c, 0, 63, 64
3, 219000, Note_on_c, 0, 67, 64
3, 219120, Note_off_c, 0, 67, 64
3, 219120, Note_on_c, 0, 72, 64
3, 219600, Note_off_c, 0, 72, 64
3, 219600, Note_on_c, 0, 71, 64
3, 219840, Note_off_c, 0, 71, 64
3, 219840, Note_on_c, 0, 72, 64
3, 220320, Note_off_c, 0, 72, 64
3, 221040, Note_on_c, 0, 79, 64
3, 221520, Note_off_c, 0, 79, 64
3, 221520, Note_on_c, 0, 78, 64
3, 221760, Note_off_c, 0, 78, 64
3, 221760, Note_on_c, 0, 79, 64
3, 222000, Note_off_c, 0, 79, 64
3, 222000, Note_on_c, 0, 74, 64
3, 222240, Note_off_c, 0, 74, 64
3, 222240, Note_on_c, 0, 75, 64
3, 222960, Note_off_c, 0, 75, 64
3, 222960, Note_on_c, 0, 74, 64
3, 223200, Note_off_c, 0, 74, 64
3, 223440, Note_on_c, 0, 73, 64
3, 223920, Note_off_c, 0, 73, 64
3, 223920, Note_on_c, 0, 72, 64
3, 224160, Note_off_c, 0, 72, 64
3, 224400, Note_on_c, 0, 72, 64
3, 224880, Note_off_c, 0, 72, 64
3, 224880, Note_on_c, 0, 71, 64
3, 225120, Note_off_c, 0, 71, 64
3, 225240, Note_on_c, 0, 67, 64
3, 225360, Note_off_c, 0, 67, 64
3, 225360, Note_on_c, 0, 68, 64
3, 225480, Note_off_c, 0, 68, 64
3, 225480, Note_on_c, 0, 72, 64
3, 225600, Note_off_c, 0, 72, 64
3, 225600, Note_on_c, 0, 77, 64
3, 225720, Note_off_c, 0, 77, 64
3, 225720, Note_on_c, 0, 74, 64
3, 225840, Note_off_c, 0, 74, 64
3, 225840, Note_on_c, 0, 71, 64
3, 225960, Note_off_c, 0, 71, 64
3, 225960, Note_on_c, 0, 77, 64
3, 226080, Note_off_c, 0, 77, 64
3, 226080, Note_on_c, 0, 75, 64
3, 226200, Note_off_c, 0, 75, 64
3, 226200, Note_on_c, 0, 72, 64
3, 226320, Note_off_c, 0, 72, 64
3, 226320, Note_on_c, 0, 74, 64
3, 226440, Note_off_c, 0, 74, 64
3, 226440, Note_on_c, 0, 71, 64
3, 226560, Note_off_c, 0, 71, 64
3, 226560, Note_on_c, 0, 72, 64
3, 226680, Note_off_c, 0, 72, 64
3, 226680, Note_on_c, 0, 67, 64
3, 226800, Note_off_c, 0, 67, 64
3, 226800, Note_on_c, 0, 72, 64
3, 227280, Note_off_c, 0, 72, 64
3, 227280, Note_on_c, 0, 71, 64
3, 227520, Note_off_c, 0, 71, 64
3, 227520, Note_on_c, 0, 72, 64
3, 228120, Note_off_c, 0, 72, 64
3, 228120, Note_on_c, 0, 70, 64
3, 228240, Note_off_c, 0, 70, 64
3, 228240, Note_on_c, 0, 68, 64
3, 228360, Note_off_c, 0, 68, 64
3, 228360, Note_on_c, 0, 67, 64
3, 228480, Note_off_c, 0, 67, 64
3, 228480, Note_on_c, 0, 68, 64
3, 228600, Note_off_c, 0, 68, 64
3, 228600, Note_on_c, 0, 72, 64
3, 228720, Note_off_c, 0, 72, 64
3, 228720, Note_on_c, 0, 79, 64
3, 228840, Note_off_c, 0, 79, 64
3, 228840, Note_on_c, 0, 77, 64
3, 228960, Note_off_c, 0, 77, 64
3, 228960, Note_on_c, 0, 70, 64
3, 229020, Note_off_c, 0, 70, 64
3, 229020, Note_on_c, 0, 68, 64
3, 229080, Note_off_c, 0, 68, 64
3, 229080, Note_on_c, 0, 70, 64
3, 229140, Note_off_c, 0, 70, 64
3, 229140, Note_on_c, 0, 68, 64
3, 229200, Note_off_c, 0, 68, 64
3, 229200, Note_on_c, 0, 70, 64
3, 229260, Note_off_c, 0, 70, 64
3, 229260, Note_on_c, 0, 68, 64
3, 229320, Note_off_c, 0, 68, 64
3, 229320, Note_on_c, 0, 67, 64
3, 229380, Note_off_c, 0, 67, 64
3, 229380, Note_on_c, 0, 65, 64
3, 229440, Note_off_c, 0, 65, 64
3, 229440, Note_on_c, 0, 67, 64
3, 229560, Note_off_c, 0, 67, 64
3, 229560, Note_on_c, 0, 70, 64
3, 229680, Note_off_c, 0, 70, 64
3, 229680, Note_on_c, 0, 77, 64
3, 229800, Note_off_c, 0, 77, 64
3, 229800, Note_on_c, 0, 75, 64
3, 229920, Note_off_c, 0, 75, 64
3, 229920, Note_on_c, 0, 68, 64
3, 229980, Note_off_c, 0, 68, 64
3, 229980, Note_on_c, 0, 67, 64
3, 230040, Note_off_c, 0, 67, 64
3, 230040, Note_on_c, 0, 68, 64
3, 230100, Note_off_c, 0, 68, 64
3, 230100, Note_on_c, 0, 67, 64
3, 230160, Note_off_c, 0, 67, 64
3, 230160, Note_on_c, 0, 68, 64
3, 230220, Note_off_c, 0, 68, 64
3, 230220, Note_on_c, 0, 67, 64
3, 230280, Note_off_c, 0, 67, 64
3, 230280, Note_on_c, 0, 65, 64
3, 230340, Note_off_c, 0, 65, 64
3, 230340, Note_on_c, 0, 63, 64
3, 230400, Note_off_c, 0, 63, 64
3, 230400, Note_on_c, 0, 65, 64
3, 230520, Note_off_c, 0, 65, 64
3, 230520, Note_on_c, 0, 68, 64
3, 230640, Note_off_c, 0, 68, 64
3, 230640, Note_on_c, 0, 75, 64
3, 230760, Note_off_c, 0, 75, 64
3, 230760, Note_on_c, 0, 74, 64
3, 230880, Note_off_c, 0, 74, 64
3, 230880, Note_on_c, 0, 67, 64
3, 230940, Note_off_c, 0, 67, 64
3, 230940, Note_on_c, 0, 65, 64
3, 231000, Note_off_c, 0, 65, 64
3, 231000, Note_on_c, 0, 67, 64
3, 231060, Note_off_c, 0, 67, 64
3, 231060, Note_on_c, 0, 65, 64
3, 231120, Note_off_c, 0, 65, 64
3, 231120, Note_on_c, 0, 67, 64
3, 231180, Note_off_c, 0, 67, 64
3, 231180, Note_on_c, 0, 65, 64
3, 231240, Note_off_c, 0, 65, 64
3, 231240, Note_on_c, 0, 63, 64
3, 231300, Note_off_c, 0, 63, 64
3, 231300, Note_on_c, 0, 62, 64
3, 231360, Note_off_c, 0, 62, 64
3, 231360, Note_on_c, 0, 63, 64
3, 231480, Note_off_c, 0, 63, 64
3, 231480, Note_on_c, 0, 67, 64
3, 231600, Note_off_c, 0, 67, 64
3, 231600, Note_on_c, 0, 74, 64
3, 231720, Note_off_c, 0, 74, 64
3, 231720, Note_on_c, 0, 72, 64
3, 231840, Note_off_c, 0, 72, 64
3, 231840, Note_on_c, 0, 65, 64
3, 231900, Note_off_c, 0, 65, 64
3, 231900, Note_on_c, 0, 63, 64
3, 231960, Note_off_c, 0, 63, 64
3, 231960, Note_on_c, 0, 65, 64
3, 232020, Note_off_c, 0, 65, 64
3, 232020, Note_on_c, 0, 63, 64
3, 232080, Note_off_c, 0, 63, 64
3, 232080, Note_on_c, 0, 65, 64
3, 232140, Note_off_c, 0, 65, 64
3, 232140, Note_on_c, 0, 63, 64
3, 232200, Note_off_c, 0, 63, 64
3, 232200, Note_on_c, 0, 62, 64
3, 232260, Note_off_c, 0, 62, 64
3, 232260, Note_on_c, 0, 60, 64
3, 232320, Note_off_c, 0, 60, 64
3, 232320, Note_on_c, 0, 72, 64
3, 235320, Note_off_c, 0, 72, 64
3, 235320, Note_on_c, 0, 71, 64
3, 235440, Note_off_c, 0, 71, 64
3, 235440, Note_on_c, 0, 74, 64
3, 235560, Note_off_c, 0, 74, 64
3, 235560, Note_on_c, 0, 72, 64
3, 235680, Note_off_c, 0, 72, 64
3, 235680, Note_on_c, 0, 70, 64
3, 235800, Note_off_c, 0, 70, 64
3, 235800, Note_on_c, 0, 68, 64
3, 235920, Note_off_c, 0, 68, 64
3, 235920, Note_on_c, 0, 67, 64
3, 236040, Note_off_c, 0, 67, 64
3, 236040, Note_on_c, 0, 65, 64
3, 236160, Note_off_c, 0, 65, 64
3, 236160, Note_on_c, 0, 63, 64
3, 236280, Note_off_c, 0, 63, 64
3, 236280, Note_on_c, 0, 67, 64
3, 236400, Note_off_c, 0, 67, 64
3, 236400, Note_on_c, 0, 71, 64
3, 236520, Note_off_c, 0, 71, 64
3, 236520, Note_on_c, 0, 72, 64
3, 236640, Note_off_c, 0, 72, 64
3, 236640, Note_on_c, 0, 62, 64
3, 236760, Note_off_c, 0, 62, 64
3, 236760, Note_on_c, 0, 65, 64
3, 236880, Note_off_c, 0, 65, 64
3, 236880, Note_on_c, 0, 69, 64
3, 237000, Note_off_c, 0, 69, 64
3, 237000, Note_on_c, 0, 70, 64
3, 237120, Note_off_c, 0, 70, 64
3, 237120, Note_on_c, 0, 60, 64
3, 237240, Note_off_c, 0, 60, 64
3, 237240, Note_on_c, 0, 63, 64
3, 237360, Note_off_c, 0, 63, 64
3, 237360, Note_on_c, 0, 67, 64
3, 237480, Note_off_c, 0, 67, 64
3, 237480, Note_on_c, 0, 68, 64
3, 237600, Note_off_c, 0, 68, 64
3, 237600, Note_on_c, 0, 59, 64
3, 237720, Note_off_c, 0, 59, 64
3, 237720, Note_on_c, 0, 68, 64
3, 237840, Note_off_c, 0, 68, 64
3, 237840, Note_on_c, 0, 67, 64
3, 237960, Note_off_c, 0, 67, 64
3, 237960, Note_on_c, 0, 65, 64
3, 238080, Note_off_c, 0, 65, 64
3, 238080, Note_on_c, 0, 63, 64
3, 238200, Note_off_c, 0, 63, 64
3, 238200, Note_on_c, 0, 72, 64
3, 238320, Note_off_c, 0, 72, 64
3, 238320, Note_on_c, 0, 68, 64
3, 238440, Note_off_c, 0, 68, 64
3, 238440, Note_on_c, 0, 65, 64
3, 238560, Note_off_c, 0, 65, 64
3, 238560, Note_on_c, 0, 65, 64
3, 238620, Note_off_c, 0, 65, 64
3, 238620, Note_on_c, 0, 63, 64
3, 238680, Note_off_c, 0, 63, 64
3, 238680, Note_on_c, 0, 65, 64
3, 238740, Note_off_c, 0, 65, 64
3, 238740, Note_on_c, 0, 63, 64
3, 238800, Note_off_c, 0, 63, 64
3, 238800, Note_on_c, 0, 62, 64
3, 238920, Note_off_c, 0, 62, 64
3, 238920, Note_on_c, 0, 60, 64
3, 239040, Note_off_c, 0, 60, 64
3, 239040, Note_on_c, 0, 60, 64
3, 239520, Note_off_c, 0, 60, 64
3, 239520, End_track
4, 0, Start_track
4, 0, Text_t, "Continuo"
4, 1200, Note_on_c, 0, 63, 40
4, 1200, Note_on_c, 0, 67, 40
4, 1200, Note_on_c, 0, 72, 40
4, 1440, Note_off_c, 0, 63, 64
4, 1440, Note_off_c, 0, 72, 64
4, 1440, Note_off_c, 0, 67, 64
4, 1440, Note_on_c, 0, 62, 40
4, 1440, Note_on_c, 0, 67, 40
4, 1440, Note_on_c, 0, 74, 40
4, 1680, Note_off_c, 0, 62, 64
4, 1680, Note_off_c, 0, 74, 64
4, 1680, Note_off_c, 0, 67, 64
4, 1680, Note_on_c, 0, 62, 40
4, 1680, Note_on_c, 0, 67, 40
4, 1680, Note_on_c, 0, 71, 40
4, 1920, Note_off_c, 0, 62, 64
4, 1920, Note_off_c, 0, 71, 64
4, 1920, Note_off_c, 0, 67, 64
4, 1920, Note_on_c, 0, 63, 40
4, 1920, Note_on_c, 0, 67, 40
4, 1920, Note_on_c, 0, 72, 40
4, 2160, Note_off_c, 0, 63, 64
4, 2160, Note_off_c, 0, 72, 64
4, 2160, Note_off_c, 0, 67, 64
4, 2160, Note_on_c, 0, 65, 40
4, 2160, Note_on_c, 0, 67, 40
4, 2160, Note_on_c, 0, 71, 40
4, 2400, Note_off_c, 0, 65, 64
4, 2400, Note_off_c, 0, 71, 64
4, 2400, Note_off_c, 0, 67, 64
4, 2400, Note_on_c, 0, 63, 40
4, 2400, Note_on_c, 0, 67, 40
4, 2400, Note_on_c, 0, 72, 40
4, 2880, Note_off_c, 0, 63, 64
4, 2880, Note_off_c, 0, 72, 64
4, 2880, Note_off_c, 0, 67, 64
4, 2880, Note_on_c, 0, 62, 40
4, 2880, Note_on_c, 0, 67, 40
4, 2880, Note_on_c, 0, 71, 40
4, 3360, Note_off_c, 0, 62, 64
4, 3360, Note_off_c, 0, 71, 64
4, 3360, Note_off_c, 0, 67, 64
4, 3360, Note_on_c, 0, 63, 40
4, 3360, Note_on_c, 0, 67, 40
4, 3360, Note_on_c, 0, 72, 40
4, 3840, Note_off_c, 0, 63, 64
4, 3840, Note_off_c, 0, 72, 64
4, 3840, Note_off_c, 0, 67, 64
4, 3840, Note_on_c, 0, 62, 40
4, 3840, Note_on_c, 0, 67, 40
4, 3840, Note_on_c, 0, 71, 40
4, 4320, Note_off_c, 0, 62, 64
4, 4320, Note_off_c, 0, 71, 64
4, 4320, Note_off_c, 0, 67, 64
4, 4560, Note_on_c, 0, 63, 40
4, 4560, Note_on_c, 0, 71, 40
4, 4560, Note_on_c, 0, 75, 40
4, 4800, Note_off_c, 0, 63, 64
4, 4800, Note_off_c, 0, 75, 64
4, 4800, Note_off_c, 0, 71, 64
4, 4800, Note_on_c, 0, 63, 40
4, 4800, Note_on_c, 0, 72, 40
4, 4800, Note_on_c, 0, 75, 40
4, 5280, Note_off_c, 0, 63, 64
4, 5280, Note_off_c, 0, 75, 64
4, 5280, Note_off_c, 0, 72, 64
4, 5280, Note_on_c, 0, 68, 40
4, 5280, Note_on_c, 0, 72, 40
4, 5280, Note_on_c, 0, 74, 40
4, 5760, Note_off_c, 0, 68, 64
4, 5760, Note_off_c, 0, 74, 64
4, 5760, Note_off_c, 0, 72, 64
4, 5760, Note_on_c, 0, 67, 40
4, 5760, Note_on_c, 0, 70, 40
4, 5760, Note_on_c, 0, 74, 40
4, 6240, Note_off_c, 0, 67, 64
4, 6240, Note_off_c, 0, 74, 64
4, 6240, Note_off_c, 0, 70, 64
4, 6240, Note_on_c, 0, 67, 40
4, 6240, Note_on_c, 0, 70, 40
4, 6240, Note_on_c, 0, 72, 40
4, 6720, Note_off_c, 0, 67, 64
4, 6720, Note_off_c, 0, 72, 64
4, 6720, Note_off_c, 0, 70, 64
4, 6720, Note_on_c, 0, 65, 40
4, 6720, Note_on_c, 0, 68, 40
4, 6720, Note_on_c, 0, 72, 40
4, 7200, Note_off_c, 0, 65, 64
4, 7200, Note_off_c, 0, 72, 64
4, 7200, Note_off_c, 0, 68, 64
4, 7200, Note_on_c, 0, 65, 40
4, 7200, Note_on_c, 0, 68, 40
4, 7200, Note_on_c, 0, 74, 40
4, 7680, Note_off_c, 0, 65, 64
4, 7680, Note_off_c, 0, 74, 64
4, 7680, Note_off_c, 0, 68, 64
4, 7680, Note_on_c, 0, 65, 40
4, 7680, Note_on_c, 0, 67, 40
4, 7680, Note_on_c, 0, 74, 40
4, 8160, Note_off_c, 0, 65, 64
4, 8160, Note_off_c, 0, 74, 64
4, 8160, Note_off_c, 0, 67, 64
4, 8160, Note_on_c, 0, 65, 40
4, 8160, Note_on_c, 0, 71, 40
4, 8160, Note_on_c, 0, 74, 40
4, 8400, Note_off_c, 0, 65, 64
4, 8400, Note_off_c, 0, 74, 64
4, 8400, Note_off_c, 0, 71, 64
4, 8400, Note_on_c, 0, 62, 40
4, 8400, Note_on_c, 0, 71, 40
4, 8400, Note_on_c, 0, 74, 40
4, 8640, Note_off_c, 0, 62, 64
4, 8640, Note_off_c, 0, 74, 64
4, 8640, Note_off_c, 0, 71, 64
4, 8640, Note_on_c, 0, 63, 40
4, 8640, Note_on_c, 0, 67, 40
4, 8640, Note_on_c, 0, 72, 40
4, 8880, Note_off_c, 0, 63, 64
4, 8880, Note_off_c, 0, 72, 64
4, 8880, Note_off_c, 0, 67, 64
4, 8880, Note_on_c, 0, 63, 40
4, 8880, Note_on_c, 0, 68, 40
4, 8880, Note_on_c, 0, 72, 40
4, 9120, Note_off_c, 0, 63, 64
4, 9120, Note_off_c, 0, 72, 64
4, 9120, Note_off_c, 0, 68, 64
4, 9120, Note_on_c, 0, 65, 40
4, 9120, Note_on_c, 0, 68, 40
4, 9120, Note_on_c, 0, 72, 40
4, 9360, Note_off_c, 0, 65, 64
4, 9360, Note_off_c, 0, 72, 64
4, 9360, Note_off_c, 0, 68, 64
4, 9360, Note_on_c, 0, 65, 40
4, 9360, Note_on_c, 0, 67, 40
4, 9360, Note_on_c, 0, 71, 40
4, 9600, Note_off_c, 0, 65, 64
4, 9600, Note_off_c, 0, 71, 64
4, 9600, Note_off_c, 0, 67, 64
4, 9600, Note_on_c, 0, 63, 40
4, 9600, Note_on_c, 0, 67, 40
4, 9600, Note_on_c, 0, 72, 40
4, 9840, Note_off_c, 0, 63, 64
4, 9840, Note_off_c, 0, 72, 64
4, 9840, Note_off_c, 0, 67, 64
4, 9840, Note_on_c, 0, 62, 40
4, 9840, Note_on_c, 0, 65, 40
4, 9840, Note_on_c, 0, 72, 40
4, 10080, Note_off_c, 0, 62, 64
4, 10080, Note_off_c, 0, 72, 64
4, 10080, Note_off_c, 0, 65, 64
4, 10080, Note_on_c, 0, 60, 40
4, 10080, Note_on_c, 0, 67, 40
4, 10080, Note_on_c, 0, 72, 40
4, 10320, Note_off_c, 0, 60, 64
4, 10320, Note_off_c, 0, 72, 64
4, 10320, Note_off_c, 0, 67, 64
4, 10320, Note_on_c, 0, 63, 40
4, 10320, Note_on_c, 0, 66, 40
4, 10320, Note_on_c, 0, 72, 40
4, 10560, Note_off_c, 0, 63, 64
4, 10560, Note_off_c, 0, 72, 64
4, 10560, Note_off_c, 0, 66, 64
4, 10560, Note_on_c, 0, 62, 40
4, 10560, Note_on_c, 0, 67, 40
4, 10560, Note_on_c, 0, 70, 40
4, 10800, Note_off_c, 0, 62, 64
4, 10800, Note_off_c, 0, 70, 64
4, 10800, Note_off_c, 0, 67, 64
4, 10800, Note_on_c, 0, 63, 40
4, 10800, Note_on_c, 0, 67, 40
4, 10800, Note_on_c, 0, 70, 40
4, 11040, Note_off_c, 0, 63, 64
4, 11040, Note_off_c, 0, 70, 64
4, 11040, Note_off_c, 0, 67, 64
4, 11040, Note_on_c, 0, 63, 40
4, 11040, Note_on_c, 0, 67, 40
4, 11040, Note_on_c, 0, 69, 40
4, 11280, Note_off_c, 0, 63, 64
4, 11280, Note_off_c, 0, 69, 64
4, 11280, Note_off_c, 0, 67, 64
4, 11280, Note_on_c, 0, 62, 40
4, 11280, Note_on_c, 0, 66, 40
4, 11280, Note_on_c, 0, 69, 40
4, 11520, Note_off_c, 0, 62, 64
4, 11520, Note_off_c, 0, 69, 64
4, 11520, Note_off_c, 0, 66, 64
4, 11520, Note_on_c, 0, 62, 40
4, 11520, Note_on_c, 0, 67, 40
4, 11520, Note_on_c, 0, 70, 40
4, 11760, Note_off_c, 0, 62, 64
4, 11760, Note_off_c, 0, 70, 64
4, 11760, Note_off_c, 0, 67, 64
4, 11760, Note_on_c, 0, 62, 40
4, 11760, Note_on_c, 0, 66, 40
4, 11760, Note_on_c, 0, 72, 40
4, 12000, Note_off_c, 0, 62, 64
4, 12000, Note_off_c, 0, 72, 64
4, 12000, Note_off_c, 0, 66, 64
4, 12000, Note_on_c, 0, 62, 40
4, 12000, Note_on_c, 0, 67, 40
4, 12000, Note_on_c, 0, 70, 40
4, 12240, Note_off_c, 0, 62, 64
4, 12240, Note_off_c, 0, 70, 64
4, 12240, Note_off_c, 0, 67, 64
4, 12240, Note_on_c, 0, 67, 40
4, 12240, Note_on_c, 0, 70, 40
4, 12240, Note_on_c, 0, 74, 40
4, 12480, Note_off_c, 0, 67, 64
4, 12480, Note_off_c, 0, 74, 64
4, 12480, Note_off_c, 0, 70, 64
4, 12480, Note_on_c, 0, 66, 40
4, 12480, Note_on_c, 0, 69, 40
4, 12480, Note_on_c, 0, 74, 40
4, 12960, Note_off_c, 0, 66, 64
4, 12960, Note_off_c, 0, 74, 64
4, 12960, Note_off_c, 0, 69, 64
4, 12960, Note_on_c, 0, 67, 40
4, 12960, Note_on_c, 0, 70, 40
4, 12960, Note_on_c, 0, 74, 40
4, 13200, Note_off_c, 0, 67, 64
4, 13200, Note_off_c, 0, 74, 64
4, 13200, Note_off_c, 0, 70, 64
4, 13200, Note_on_c, 0, 70, 40
4, 13200, Note_on_c, 0, 74, 40
4, 13200, Note_on_c, 0, 79, 40
4, 13440, Note_off_c, 0, 70, 64
4, 13440, Note_off_c, 0, 79, 64
4, 13440, Note_off_c, 0, 74, 64
4, 13440, Note_on_c, 0, 69, 40
4, 13440, Note_on_c, 0, 74, 40
4, 13440, Note_on_c, 0, 78, 40
4, 13920, Note_off_c, 0, 69, 64
4, 13920, Note_off_c, 0, 78, 64
4, 13920, Note_off_c, 0, 74, 64
4, 14160, Note_on_c, 0, 70, 40
4, 14160, Note_on_c, 0, 74, 40
4, 14160, Note_on_c, 0, 78, 40
4, 14400, Note_off_c, 0, 70, 64
4, 14400, Note_off_c, 0, 78, 64
4, 14400, Note_off_c, 0, 74, 64
4, 14400, Note_on_c, 0, 70, 40
4, 14400, Note_on_c, 0, 74, 40
4, 14400, Note_on_c, 0, 79, 40
4, 14880, Note_off_c, 0, 70, 64
4, 14880, Note_off_c, 0, 79, 64
4, 14880, Note_off_c, 0, 74, 64
4, 15120, Note_on_c, 0, 69, 40
4, 15120, Note_on_c, 0, 72, 40
4, 15120, Note_on_c, 0, 79, 40
4, 15360, Note_off_c, 0, 69, 64
4, 15360, Note_off_c, 0, 79, 64
4, 15360, Note_off_c, 0, 72, 64
4, 15360, Note_on_c, 0, 69, 40
4, 15360, Note_on_c, 0, 72, 40
4, 15360, Note_on_c, 0, 77, 40
4, 15840, Note_off_c, 0, 69, 64
4, 15840, Note_off_c, 0, 77, 64
4, 15840, Note_off_c, 0, 72, 64
4, 16080, Note_on_c, 0, 67, 40
4, 16080, Note_on_c, 0, 70, 40
4, 16080, Note_on_c, 0, 77, 40
4, 16320, Note_off_c, 0, 67, 64
4, 16320, Note_off_c, 0, 77, 64
4, 16320, Note_off_c, 0, 70, 64
4, 16320, Note_on_c, 0, 67, 40
4, 16320, Note_on_c, 0, 70, 40
4, 16320, Note_on_c, 0, 75, 40
4, 16800, Note_off_c, 0, 67, 64
4, 16800, Note_off_c, 0, 75, 64
4, 16800, Note_off_c, 0, 70, 64
4, 17040, Note_on_c, 0, 68, 40
4, 17040, Note_on_c, 0, 72, 40
4, 17040, Note_on_c, 0, 75, 40
4, 17280, Note_off_c, 0, 68, 64
4, 17280, Note_off_c, 0, 75, 64
4, 17280, Note_off_c, 0, 72, 64
4, 17280, Note_on_c, 0, 66, 40
4, 17280, Note_on_c, 0, 69, 40
4, 17280, Note_on_c, 0, 74, 40
4, 17760, Note_off_c, 0, 66, 64
4, 17760, Note_off_c, 0, 74, 64
4, 17760, Note_off_c, 0, 69, 64
4, 17760, Note_on_c, 0, 69, 40
4, 17760, Note_on_c, 0, 72, 40
4, 17760, Note_on_c, 0, 74, 40
4, 18240, Note_off_c, 0, 69, 64
4, 18240, Note_off_c, 0, 74, 64
4, 18240, Note_off_c, 0, 72, 64
4, 18240, Note_on_c, 0, 67, 40
4, 18240, Note_on_c, 0, 70, 40
4, 18240, Note_on_c, 0, 74, 40
4, 18720, Note_off_c, 0, 67, 64
4, 18720, Note_off_c, 0, 74, 64
4, 18720, Note_off_c, 0, 70, 64
4, 18720, Note_on_c, 0, 67, 40
4, 18720, Note_on_c, 0, 72, 40
4, 18720, Note_on_c, 0, 75, 40
4, 18960, Note_off_c, 0, 67, 64
4, 18960, Note_off_c, 0, 75, 64
4, 18960, Note_off_c, 0, 72, 64
4, 18960, Note_on_c, 0, 66, 40
4, 18960, Note_on_c, 0, 72, 40
4, 18960, Note_on_c, 0, 74, 40
4, 19200, Note_off_c, 0, 66, 64
4, 19200, Note_off_c, 0, 74, 64
4, 19200, Note_off_c, 0, 72, 64
4, 19200, Note_on_c, 0, 67, 40
4, 19200, Note_on_c, 0, 70, 40
4, 19200, Note_on_c, 0, 74, 40
4, 19680, Note_off_c, 0, 67, 64
4, 19680, Note_off_c, 0, 74, 64
4, 19680, Note_off_c, 0, 70, 64
4, 19680, Note_on_c, 0, 70, 40
4, 19680, Note_on_c, 0, 75, 40
4, 19680, Note_on_c, 0, 79, 40
4, 20160, Note_off_c, 0, 70, 64
4, 20160, Note_off_c, 0, 79, 64
4, 20160, Note_off_c, 0, 75, 64
4, 20160, Note_on_c, 0, 68, 40
4, 20160, Note_on_c, 0, 75, 40
4, 20160, Note_on_c, 0, 79, 40
4, 20640, Note_off_c, 0, 68, 64
4, 20640, Note_off_c, 0, 79, 64
4, 20640, Note_off_c, 0, 75, 64
4, 20640, Note_on_c, 0, 68, 40
4, 20640, Note_on_c, 0, 70, 40
4, 20640, Note_on_c, 0, 77, 40
4, 21120, Note_off_c, 0, 68, 64
4, 21120, Note_off_c, 0, 77, 64
4, 21120, Note_off_c, 0, 70, 64
4, 21120, Note_on_c, 0, 67, 40
4, 21120, Note_on_c, 0, 70, 40
4, 21120, Note_on_c, 0, 77, 40
4, 21600, Note_off_c, 0, 67, 64
4, 21600, Note_off_c, 0, 77, 64
4, 21600, Note_off_c, 0, 70, 64
4, 21600, Note_on_c, 0, 67, 40
4, 21600, Note_on_c, 0, 72, 40
4, 21600, Note_on_c, 0, 75, 40
4, 22080, Note_off_c, 0, 67, 64
4, 22080, Note_off_c, 0, 75, 64
4, 22080, Note_off_c, 0, 72, 64
4, 22080, Note_on_c, 0, 65, 40
4, 22080, Note_on_c, 0, 72, 40
4, 22080, Note_on_c, 0, 75, 40
4, 22560, Note_off_c, 0, 65, 64
4, 22560, Note_off_c, 0, 75, 64
4, 22560, Note_off_c, 0, 72, 64
4, 22560, Note_on_c, 0, 65, 40
4, 22560, Note_on_c, 0, 67, 40
4, 22560, Note_on_c, 0, 74, 40
4, 23040, Note_off_c, 0, 65, 64
4, 23040, Note_off_c, 0, 74, 64
4, 23040, Note_off_c, 0, 67, 64
4, 23040, Note_on_c, 0, 63, 40
4, 23040, Note_on_c, 0, 67, 40
4, 23040, Note_on_c, 0, 74, 40
4, 23520, Note_off_c, 0, 63, 64
4, 23520, Note_off_c, 0, 74, 64
4, 23520, Note_off_c, 0, 67, 64
4, 23520, Note_on_c, 0, 63, 40
4, 23520, Note_on_c, 0, 68, 40
4, 23520, Note_on_c, 0, 72, 40
4, 24000, Note_off_c, 0, 63, 64
4, 24000, Note_off_c, 0, 72, 64
4, 24000, Note_off_c, 0, 68, 64
4, 24000, Note_on_c, 0, 68, 40
4, 24000, Note_on_c, 0, 72, 40
4, 24000, Note_on_c, 0, 73, 40
4, 24480, Note_off_c, 0, 68, 64
4, 24480, Note_off_c, 0, 73, 64
4, 24480, Note_off_c, 0, 72, 64
4, 24480, Note_on_c, 0, 63, 40
4, 24480, Note_on_c, 0, 70, 40
4, 24480, Note_on_c, 0, 73, 40
4, 24960, Note_off_c, 0, 63, 64
4, 24960, Note_off_c, 0, 73, 64
4, 24960, Note_off_c, 0, 70, 64
4, 24960, Note_on_c, 0, 63, 40
4, 24960, Note_on_c, 0, 70, 40
4, 24960, Note_on_c, 0, 72, 40
4, 25440, Note_off_c, 0, 63, 64
4, 25440, Note_off_c, 0, 72, 64
4, 25440, Note_off_c, 0, 70, 64
4, 25440, Note_on_c, 0, 68, 40
4, 25440, Note_on_c, 0, 72, 40
4, 25440, Note_on_c, 0, 77, 40
4, 25920, Note_off_c, 0, 68, 64
4, 25920, Note_off_c, 0, 77, 64
4, 25920, Note_off_c, 0, 72, 64
4, 25920, Note_on_c, 0, 68, 40
4, 25920, Note_on_c, 0, 70, 40
4, 25920, Note_on_c, 0, 77, 40
4, 26400, Note_off_c, 0, 68, 64
4, 26400, Note_off_c, 0, 77, 64
4, 26400, Note_off_c, 0, 70, 64
4, 26400, Note_on_c, 0, 67, 40
4, 26400, Note_on_c, 0, 72, 40
4, 26400, Note_on_c, 0, 79, 40
4, 26880, Note_off_c, 0, 67, 64
4, 26880, Note_off_c, 0, 79, 64
4, 26880, Note_off_c, 0, 72, 64
4, 26880, Note_on_c, 0, 68, 40
4, 26880, Note_on_c, 0, 72, 40
4, 26880, Note_on_c, 0, 79, 40
4, 27120, Note_off_c, 0, 68, 64
4, 27120, Note_off_c, 0, 79, 64
4, 27120, Note_off_c, 0, 72, 64
4, 27120, Note_on_c, 0, 68, 40
4, 27120, Note_on_c, 0, 72, 40
4, 27120, Note_on_c, 0, 77, 40
4, 27360, Note_off_c, 0, 68, 64
4, 27360, Note_off_c, 0, 77, 64
4, 27360, Note_off_c, 0, 72, 64
4, 27360, Note_on_c, 0, 68, 40
4, 27360, Note_on_c, 0, 74, 40
4, 27360, Note_on_c, 0, 77, 40
4, 27840, Note_off_c, 0, 68, 64
4, 27840, Note_off_c, 0, 77, 64
4, 27840, Note_off_c, 0, 74, 64
4, 27840, Note_on_c, 0, 67, 40
4, 27840, Note_on_c, 0, 74, 40
4, 27840, Note_on_c, 0, 77, 40
4, 28320, Note_off_c, 0, 67, 64
4, 28320, Note_off_c, 0, 77, 64
4, 28320, Note_off_c, 0, 74, 64
4, 28320, Note_on_c, 0, 67, 40
4, 28320, Note_on_c, 0, 72, 40
4, 28320, Note_on_c, 0, 75, 40
4, 28800, Note_off_c, 0, 67, 64
4, 28800, Note_off_c, 0, 75, 64
4, 28800, Note_off_c, 0, 72, 64
4, 28800, Note_on_c, 0, 65, 40
4, 28800, Note_on_c, 0, 68, 40
4, 28800, Note_on_c, 0, 75, 40
4, 29040, Note_off_c, 0, 65, 64
4, 29040, Note_off_c, 0, 75, 64
4, 29040, Note_off_c, 0, 68, 64
4, 29040, Note_on_c, 0, 65, 40
4, 29040, Note_on_c, 0, 68, 40
4, 29040, Note_on_c, 0, 74, 40
4, 29280, Note_off_c, 0, 65, 64
4, 29280, Note_off_c, 0, 74, 64
4, 29280, Note_off_c, 0, 68, 64
4, 29280, Note_on_c, 0, 65, 40
4, 29280, Note_on_c, 0, 71, 40
4, 29280, Note_on_c, 0, 74, 40
4, 29760, Note_off_c, 0, 65, 64
4, 29760, Note_off_c, 0, 74, 64
4, 29760, Note_off_c, 0, 71, 64
4, 29760, Note_on_c, 0, 63, 40
4, 29760, Note_on_c, 0, 67, 40
4, 29760, Note_on_c, 0, 74, 40
4, 30000, Note_off_c, 0, 63, 64
4, 30000, Note_off_c, 0, 74, 64
4, 30000, Note_off_c, 0, 67, 64
4, 30000, Note_on_c, 0, 63, 40
4, 30000, Note_on_c, 0, 67, 40
4, 30000, Note_on_c, 0, 72, 40
4, 30240, Note_off_c, 0, 63, 64
4, 30240, Note_off_c, 0, 72, 64
4, 30240, Note_off_c, 0, 67, 64
4, 30240, Note_on_c, 0, 63, 40
4, 30240, Note_on_c, 0, 68, 40
4, 30240, Note_on_c, 0, 72, 40
4, 30720, Note_off_c, 0, 63, 64
4, 30720, Note_off_c, 0, 72, 64
4, 30720, Note_off_c, 0, 68, 64
4, 30720, Note_on_c, 0, 63, 40
4, 30720, Note_on_c, 0, 69, 40
4, 30720, Note_on_c, 0, 72, 40
4, 31200, Note_off_c, 0, 63, 64
4, 31200, Note_off_c, 0, 72, 64
4, 31200, Note_off_c, 0, 69, 64
4, 31200, Note_on_c, 0, 63, 40
4, 31200, Note_on_c, 0, 69, 40
4, 31200, Note_on_c, 0, 72, 40
4, 31680, Note_off_c, 0, 63, 64
4, 31680, Note_off_c, 0, 72, 64
4, 31680, Note_off_c, 0, 69, 64
4, 31680, Note_on_c, 0, 63, 40
4, 31680, Note_on_c, 0, 67, 40
4, 31680, Note_on_c, 0, 72, 40
4, 31920, Note_off_c, 0, 63, 64
4, 31920, Note_off_c, 0, 72, 64
4, 31920, Note_off_c, 0, 67, 64
4, 31920, Note_on_c, 0, 62, 40
4, 31920, Note_on_c, 0, 67, 40
4, 31920, Note_on_c, 0, 71, 40
4, 32160, Note_off_c, 0, 62, 64
4, 32160, Note_off_c, 0, 71, 64
4, 32160, Note_off_c, 0, 67, 64
4, 32160, Note_on_c, 0, 67, 40
4, 32160, Note_on_c, 0, 71, 40
4, 32160, Note_on_c, 0, 74, 40
4, 32640, Note_off_c, 0, 67, 64
4, 32640, Note_off_c, 0, 74, 64
4, 32640, Note_off_c, 0, 71, 64
4, 32640, Note_on_c, 0, 63, 40
4, 32640, Note_on_c, 0, 74, 40
4, 32640, Note_on_c, 0, 75, 40
4, 33120, Note_off_c, 0, 63, 64
4, 33120, Note_off_c, 0, 75, 64
4, 33120, Note_off_c, 0, 74, 64
4, 33120, Note_on_c, 0, 65, 40
4, 33120, Note_on_c, 0, 72, 40
4, 33120, Note_on_c, 0, 75, 40
4, 33600, Note_off_c, 0, 65, 64
4, 33600, Note_off_c, 0, 75, 64
4, 33600, Note_off_c, 0, 72, 64
4, 33600, Note_on_c, 0, 65, 40
4, 33600, Note_on_c, 0, 72, 40
4, 33600, Note_on_c, 0, 74, 40
4, 34080, Note_off_c, 0, 65, 64
4, 34080, Note_off_c, 0, 74, 64
4, 34080, Note_off_c, 0, 72, 64
4, 34080, Note_on_c, 0, 67, 40
4, 34080, Note_on_c, 0, 70, 40
4, 34080, Note_on_c, 0, 74, 40
4, 34560, Note_off_c, 0, 67, 64
4, 34560, Note_off_c, 0, 74, 64
4, 34560, Note_off_c, 0, 70, 64
4, 34560, Note_on_c, 0, 60, 40
4, 34560, Note_on_c, 0, 70, 40
4, 34560, Note_on_c, 0, 72, 40
4, 35040, Note_off_c, 0, 60, 64
4, 35040, Note_off_c, 0, 72, 64
4, 35040, Note_off_c, 0, 70, 64
4, 35040, Note_on_c, 0, 62, 40
4, 35040, Note_on_c, 0, 69, 40
4, 35040, Note_on_c, 0, 72, 40
4, 35520, Note_off_c, 0, 62, 64
4, 35520, Note_off_c, 0, 72, 64
4, 35520, Note_off_c, 0, 69, 64
4, 35520, Note_on_c, 0, 62, 40
4, 35520, Note_on_c, 0, 69, 40
4, 35520, Note_on_c, 0, 70, 40
4, 36000, Note_off_c, 0, 62, 64
4, 36000, Note_off_c, 0, 70, 64
4, 36000, Note_off_c, 0, 69, 64
4, 36000, Note_on_c, 0, 63, 40
4, 36000, Note_on_c, 0, 67, 40
4, 36000, Note_on_c, 0, 70, 40
4, 36480, Note_off_c, 0, 63, 64
4, 36480, Note_off_c, 0, 70, 64
4, 36480, Note_off_c, 0, 67, 64
4, 36480, Note_on_c, 0, 63, 40
4, 36480, Note_on_c, 0, 67, 40
4, 36480, Note_on_c, 0, 72, 40
4, 36960, Note_off_c, 0, 63, 64
4, 36960, Note_off_c, 0, 72, 64
4, 36960, Note_off_c, 0, 67, 64
4, 36960, Note_on_c, 0, 62, 40
4, 36960, Note_on_c, 0, 67, 40
4, 36960, Note_on_c, 0, 71, 40
4, 37440, Note_off_c, 0, 62, 64
4, 37440, Note_off_c, 0, 71, 64
4, 37440, Note_off_c, 0, 67, 64
4, 37440, Note_on_c, 0, 60, 40
4, 37440, Note_on_c, 0, 67, 40
4, 37440, Note_on_c, 0, 72, 40
4, 38160, Note_off_c, 0, 60, 64
4, 38160, Note_off_c, 0, 72, 64
4, 38160, Note_off_c, 0, 67, 64
4, 38160, Note_on_c, 0, 62, 40
4, 38160, Note_on_c, 0, 67, 40
4, 38160, Note_on_c, 0, 70, 40
4, 38400, Note_off_c, 0, 62, 64
4, 38400, Note_off_c, 0, 70, 64
4, 38400, Note_off_c, 0, 67, 64
4, 38400, Note_on_c, 0, 64, 40
4, 38400, Note_on_c, 0, 67, 40
4, 38400, Note_on_c, 0, 70, 40
4, 38880, Note_off_c, 0, 64, 64
4, 38880, Note_off_c, 0, 70, 64
4, 38880, Note_off_c, 0, 67, 64
4, 38880, Note_on_c, 0, 61, 40
4, 38880, Note_on_c, 0, 67, 40
4, 38880, Note_on_c, 0, 69, 40
4, 39360, Note_off_c, 0, 61, 64
4, 39360, Note_off_c, 0, 69, 64
4, 39360, Note_off_c, 0, 67, 64
4, 39360, Note_on_c, 0, 62, 40
4, 39360, Note_on_c, 0, 67, 40
4, 39360, Note_on_c, 0, 69, 40
4, 39600, Note_off_c, 0, 62, 64
4, 39600, Note_off_c, 0, 69, 64
4, 39600, Note_off_c, 0, 67, 64
4, 39600, Note_on_c, 0, 62, 40
4, 39600, Note_on_c, 0, 66, 40
4, 39600, Note_on_c, 0, 69, 40
4, 39840, Note_off_c, 0, 62, 64
4, 39840, Note_off_c, 0, 69, 64
4, 39840, Note_off_c, 0, 66, 64
4, 40080, Note_on_c, 0, 69, 40
4, 40080, Note_on_c, 0, 72, 40
4, 40080, Note_on_c, 0, 74, 40
4, 40320, Note_off_c, 0, 69, 64
4, 40320, Note_off_c, 0, 74, 64
4, 40320, Note_off_c, 0, 72, 64
4, 40320, Note_on_c, 0, 67, 40
4, 40320, Note_on_c, 0, 70, 40
4, 40320, Note_on_c, 0, 74, 40
4, 40560, Note_off_c, 0, 67, 64
4, 40560, Note_off_c, 0, 74, 64
4, 40560, Note_off_c, 0, 70, 64
4, 40560, Note_on_c, 0, 67, 40
4, 40560, Note_on_c, 0, 70, 40
4, 40560, Note_on_c, 0, 72, 40
4, 40800, Note_off_c, 0, 67, 64
4, 40800, Note_off_c, 0, 72, 64
4, 40800, Note_off_c, 0, 70, 64
4, 40800, Note_on_c, 0, 65, 40
4, 40800, Note_on_c, 0, 69, 40
4, 40800, Note_on_c, 0, 72, 40
4, 41040, Note_off_c, 0, 65, 64
4, 41040, Note_off_c, 0, 72, 64
4, 41040, Note_off_c, 0, 69, 64
4, 41040, Note_on_c, 0, 65, 40
4, 41040, Note_on_c, 0, 69, 40
4, 41040, Note_on_c, 0, 70, 40
4, 41280, Note_off_c, 0, 65, 64
4, 41280, Note_off_c, 0, 70, 64
4, 41280, Note_off_c, 0, 69, 64
4, 41280, Note_on_c, 0, 63, 40
4, 41280, Note_on_c, 0, 67, 40
4, 41280, Note_on_c, 0, 70, 40
4, 41520, Note_off_c, 0, 63, 64
4, 41520, Note_off_c, 0, 70, 64
4, 41520, Note_off_c, 0, 67, 64
4, 41520, Note_on_c, 0, 63, 40
4, 41520, Note_on_c, 0, 67, 40
4, 41520, Note_on_c, 0, 69, 40
4, 41760, Note_off_c, 0, 63, 64
4, 41760, Note_off_c, 0, 69, 64
4, 41760, Note_off_c, 0, 67, 64
4, 41760, Note_on_c, 0, 62, 40
4, 41760, Note_on_c, 0, 66, 40
4, 41760, Note_on_c, 0, 72, 40
4, 42240, Note_off_c, 0, 62, 64
4, 42240, Note_off_c, 0, 72, 64
4, 42240, Note_off_c, 0, 66, 64
4, 42240, Note_on_c, 0, 67, 40
4, 42240, Note_on_c, 0, 70, 40
4, 42480, Note_off_c, 0, 67, 64
4, 42480, Note_off_c, 0, 70, 64
4, 42480, Note_on_c, 0, 63, 40
4, 42480, Note_on_c, 0, 69, 40
4, 42480, Note_on_c, 0, 70, 40
4, 42720, Note_off_c, 0, 63, 64
4, 42720, Note_off_c, 0, 70, 64
4, 42720, Note_off_c, 0, 69, 64
4, 42720, Note_on_c, 0, 62, 40
4, 42720, Note_on_c, 0, 66, 40
4, 42720, Note_on_c, 0, 69, 40
4, 43200, Note_off_c, 0, 62, 64
4, 43200, Note_off_c, 0, 69, 64
4, 43200, Note_off_c, 0, 66, 64
4, 43200, Note_on_c, 0, 58, 40
4, 43200, Note_on_c, 0, 67, 40
4, 43680, Note_off_c, 0, 58, 64
4, 43680, Note_off_c, 0, 67, 64
4, 44400, Note_on_c, 0, 62, 40
4, 44400, Note_on_c, 0, 67, 40
4, 44400, Note_on_c, 0, 70, 40
4, 44640, Note_off_c, 0, 62, 64
4, 44640, Note_off_c, 0, 70, 64
4, 44640, Note_off_c, 0, 67, 64
4, 44640, Note_on_c, 0, 62, 40
4, 44640, Note_on_c, 0, 69, 40
4, 44640, Note_on_c, 0, 74, 40
4, 44880, Note_off_c, 0, 62, 64
4, 44880, Note_off_c, 0, 74, 64
4, 44880, Note_off_c, 0, 69, 64
4, 44880, Note_on_c, 0, 66, 40
4, 44880, Note_on_c, 0, 69, 40
4, 44880, Note_on_c, 0, 74, 40
4, 45120, Note_off_c, 0, 66, 64
4, 45120, Note_off_c, 0, 74, 64
4, 45120, Note_off_c, 0, 69, 64
4, 45120, Note_on_c, 0, 67, 40
4, 45120, Note_on_c, 0, 70, 40
4, 45120, Note_on_c, 0, 74, 40
4, 46080, Note_off_c, 0, 67, 64
4, 46080, Note_off_c, 0, 74, 64
4, 46080, Note_off_c, 0, 70, 64
4, 46080, Note_on_c, 0, 66, 40
4, 46080, Note_on_c, 0, 69, 40
4, 46080, Note_on_c, 0, 74, 40
4, 46560, Note_off_c, 0, 66, 64
4, 46560, Note_off_c, 0, 74, 64
4, 46560, Note_off_c, 0, 69, 64
4, 46560, Note_on_c, 0, 67, 40
4, 46560, Note_on_c, 0, 74, 40
4, 46800, Note_off_c, 0, 67, 64
4, 46800, Note_off_c, 0, 74, 64
4, 46800, Note_on_c, 0, 67, 40
4, 46800, Note_on_c, 0, 70, 40
4, 46800, Note_on_c, 0, 73, 40
4, 47040, Note_off_c, 0, 67, 64
4, 47040, Note_off_c, 0, 73, 64
4, 47040, Note_off_c, 0, 70, 64
4, 47040, Note_on_c, 0, 62, 40
4, 47040, Note_on_c, 0, 69, 40
4, 47040, Note_on_c, 0, 74, 40
4, 47520, Note_off_c, 0, 62, 64
4, 47520, Note_off_c, 0, 74, 64
4, 47520, Note_off_c, 0, 69, 64
4, 47760, Note_on_c, 0, 62, 40
4, 47760, Note_on_c, 0, 66, 40
4, 47760, Note_on_c, 0, 70, 40
4, 48000, Note_off_c, 0, 62, 64
4, 48000, Note_off_c, 0, 70, 64
4, 48000, Note_off_c, 0, 66, 64
4, 48000, Note_on_c, 0, 64, 40
4, 48000, Note_on_c, 0, 67, 40
4, 48000, Note_on_c, 0, 70, 40
4, 48240, Note_off_c, 0, 64, 64
4, 48240, Note_off_c, 0, 70, 64
4, 48240, Note_off_c, 0, 67, 64
4, 48240, Note_on_c, 0, 64, 40
4, 48240, Note_on_c, 0, 67, 40
4, 48240, Note_on_c, 0, 69, 40
4, 48480, Note_off_c, 0, 64, 64
4, 48480, Note_off_c, 0, 69, 64
4, 48480, Note_off_c, 0, 67, 64
4, 48480, Note_on_c, 0, 63, 40
4, 48480, Note_on_c, 0, 68, 40
4, 48480, Note_on_c, 0, 72, 40
4, 48960, Note_off_c, 0, 63, 64
4, 48960, Note_off_c, 0, 72, 64
4, 48960, Note_off_c, 0, 68, 64
4, 48960, Note_on_c, 0, 62, 40
4, 48960, Note_on_c, 0, 68, 40
4, 48960, Note_on_c, 0, 74, 40
4, 49200, Note_off_c, 0, 62, 64
4, 49200, Note_off_c, 0, 74, 64
4, 49200, Note_off_c, 0, 68, 64
4, 49200, Note_on_c, 0, 62, 40
4, 49200, Note_on_c, 0, 67, 40
4, 49200, Note_on_c, 0, 74, 40
4, 49440, Note_off_c, 0, 62, 64
4, 49440, Note_off_c, 0, 74, 64
4, 49440, Note_off_c, 0, 67, 64
4, 49440, Note_on_c, 0, 62, 40
4, 49440, Note_on_c, 0, 67, 40
4, 49440, Note_on_c, 0, 74, 40
4, 49920, Note_off_c, 0, 62, 64
4, 49920, Note_off_c, 0, 74, 64
4, 49920, Note_off_c, 0, 67, 64
4, 49920, Note_on_c, 0, 63, 40
4, 49920, Note_on_c, 0, 67, 40
4, 49920, Note_on_c, 0, 72, 40
4, 50160, Note_off_c, 0, 63, 64
4, 50160, Note_off_c, 0, 72, 64
4, 50160, Note_off_c, 0, 67, 64
4, 50160, Note_on_c, 0, 63, 40
4, 50160, Note_on_c, 0, 66, 40
4, 50160, Note_on_c, 0, 72, 40
4, 50400, Note_off_c, 0, 63, 64
4, 50400, Note_off_c, 0, 72, 64
4, 50400, Note_off_c, 0, 66, 64
4, 50400, Note_on_c, 0, 63, 40
4, 50400, Note_on_c, 0, 67, 40
4, 50400, Note_on_c, 0, 72, 40
4, 50880, Note_off_c, 0, 63, 64
4, 50880, Note_off_c, 0, 72, 64
4, 50880, Note_off_c, 0, 67, 64
4, 50880, Note_on_c, 0, 62, 40
4, 50880, Note_on_c, 0, 69, 40
4, 50880, Note_on_c, 0, 72, 40
4, 51360, Note_off_c, 0, 62, 64
4, 51360, Note_off_c, 0, 72, 64
4, 51360, Note_off_c, 0, 69, 64
4, 51360, Note_on_c, 0, 62, 40
4, 51360, Note_on_c, 0, 67, 40
4, 51360, Note_on_c, 0, 70, 40
4, 51600, Note_off_c, 0, 62, 64
4, 51600, Note_off_c, 0, 70, 64
4, 51600, Note_off_c, 0, 67, 64
4, 51600, Note_on_c, 0, 62, 40
4, 51600, Note_on_c, 0, 66, 40
4, 51600, Note_on_c, 0, 69, 40
4, 51840, Note_off_c, 0, 62, 64
4, 51840, Note_off_c, 0, 69, 64
4, 51840, Note_off_c, 0, 66, 64
4, 51840, Note_on_c, 0, 62, 40
4, 51840, Note_on_c, 0, 67, 40
4, 51840, Note_on_c, 0, 74, 40
4, 52320, Note_off_c, 0, 62, 64
4, 52320, Note_off_c, 0, 74, 64
4, 52320, Note_off_c, 0, 67, 64
4, 52320, Note_on_c, 0, 63, 40
4, 52320, Note_on_c, 0, 67, 40
4, 52320, Note_on_c, 0, 72, 40
4, 52560, Note_off_c, 0, 63, 64
4, 52560, Note_off_c, 0, 72, 64
4, 52560, Note_off_c, 0, 67, 64
4, 52560, Note_on_c, 0, 62, 40
4, 52560, Note_on_c, 0, 66, 40
4, 52560, Note_on_c, 0, 72, 40
4, 52800, Note_off_c, 0, 62, 64
4, 52800, Note_off_c, 0, 72, 64
4, 52800, Note_off_c, 0, 66, 64
4, 52800, Note_on_c, 0, 62, 40
4, 52800, Note_on_c, 0, 67, 40
4, 52800, Note_on_c, 0, 70, 40
4, 53280, Note_off_c, 0, 62, 64
4, 53280, Note_off_c, 0, 70, 64
4, 53280, Note_off_c, 0, 67, 64
4, 53280, Note_on_c, 0, 70, 40
4, 53280, Note_on_c, 0, 74, 40
4, 53280, Note_on_c, 0, 79, 40
4, 53760, Note_off_c, 0, 70, 64
4, 53760, Note_off_c, 0, 79, 64
4, 53760, Note_off_c, 0, 74, 64
4, 53760, Note_on_c, 0, 68, 40
4, 53760, Note_on_c, 0, 75, 40
4, 53760, Note_on_c, 0, 79, 40
4, 54240, Note_off_c, 0, 68, 64
4, 54240, Note_off_c, 0, 79, 64
4, 54240, Note_off_c, 0, 75, 64
4, 54240, Note_on_c, 0, 68, 40
4, 54240, Note_on_c, 0, 70, 40
4, 54240, Note_on_c, 0, 77, 40
4, 54720, Note_off_c, 0, 68, 64
4, 54720, Note_off_c, 0, 77, 64
4, 54720, Note_off_c, 0, 70, 64
4, 54720, Note_on_c, 0, 67, 40
4, 54720, Note_on_c, 0, 70, 40
4, 54720, Note_on_c, 0, 77, 40
4, 55200, Note_off_c, 0, 67, 64
4, 55200, Note_off_c, 0, 77, 64
4, 55200, Note_off_c, 0, 70, 64
4, 55200, Note_on_c, 0, 67, 40
4, 55200, Note_on_c, 0, 72, 40
4, 55200, Note_on_c, 0, 79, 40
4, 55680, Note_off_c, 0, 67, 64
4, 55680, Note_off_c, 0, 79, 64
4, 55680, Note_off_c, 0, 72, 64
4, 55680, Note_on_c, 0, 68, 40
4, 55680, Note_on_c, 0, 72, 40
4, 55680, Note_on_c, 0, 77, 40
4, 56160, Note_off_c, 0, 68, 64
4, 56160, Note_off_c, 0, 77, 64
4, 56160, Note_off_c, 0, 72, 64
4, 56160, Note_on_c, 0, 68, 40
4, 56160, Note_on_c, 0, 72, 40
4, 56160, Note_on_c, 0, 74, 40
4, 56160, Note_on_c, 0, 77, 40
4, 56640, Note_off_c, 0, 68, 64
4, 56640, Note_off_c, 0, 77, 64
4, 56640, Note_off_c, 0, 74, 64
4, 56640, Note_off_c, 0, 72, 64
4, 56640, Note_on_c, 0, 67, 40
4, 56640, Note_on_c, 0, 71, 40
4, 56640, Note_on_c, 0, 74, 40
4, 56640, Note_on_c, 0, 77, 40
4, 57120, Note_off_c, 0, 67, 64
4, 57120, Note_off_c, 0, 77, 64
4, 57120, Note_off_c, 0, 74, 64
4, 57120, Note_off_c, 0, 71, 64
4, 57120, Note_on_c, 0, 67, 40
4, 57120, Note_on_c, 0, 74, 40
4, 57120, Note_on_c, 0, 77, 40
4, 57600, Note_off_c, 0, 67, 64
4, 57600, Note_off_c, 0, 77, 64
4, 57600, Note_off_c, 0, 74, 64
4, 57600, Note_on_c, 0, 67, 40
4, 57600, Note_on_c, 0, 74, 40
4, 57600, Note_on_c, 0, 75, 40
4, 58080, Note_off_c, 0, 67, 64
4, 58080, Note_off_c, 0, 75, 64
4, 58080, Note_off_c, 0, 74, 64
4, 58080, Note_on_c, 0, 68, 40
4, 58080, Note_on_c, 0, 72, 40
4, 58080, Note_on_c, 0, 75, 40
4, 58560, Note_off_c, 0, 68, 64
4, 58560, Note_off_c, 0, 75, 64
4, 58560, Note_off_c, 0, 72, 64
4, 58560, Note_on_c, 0, 68, 40
4, 58560, Note_on_c, 0, 72, 40
4, 58560, Note_on_c, 0, 73, 40
4, 59040, Note_off_c, 0, 68, 64
4, 59040, Note_off_c, 0, 73, 64
4, 59040, Note_off_c, 0, 72, 64
4, 59040, Note_on_c, 0, 63, 40
4, 59040, Note_on_c, 0, 70, 40
4, 59040, Note_on_c, 0, 73, 40
4, 59520, Note_off_c, 0, 63, 64
4, 59520, Note_off_c, 0, 73, 64
4, 59520, Note_off_c, 0, 70, 64
4, 59520, Note_on_c, 0, 63, 40
4, 59520, Note_on_c, 0, 70, 40
4, 59520, Note_on_c, 0, 72, 40
4, 60000, Note_off_c, 0, 63, 64
4, 60000, Note_off_c, 0, 72, 64
4, 60000, Note_off_c, 0, 70, 64
4, 60000, Note_on_c, 0, 68, 40
4, 60000, Note_on_c, 0, 72, 40
4, 60000, Note_on_c, 0, 77, 40
4, 60480, Note_off_c, 0, 68, 64
4, 60480, Note_off_c, 0, 77, 64
4, 60480, Note_off_c, 0, 72, 64
4, 60480, Note_on_c, 0, 68, 40
4, 60480, Note_on_c, 0, 70, 40
4, 60480, Note_on_c, 0, 77, 40
4, 60960, Note_off_c, 0, 68, 64
4, 60960, Note_off_c, 0, 77, 64
4, 60960, Note_off_c, 0, 70, 64
4, 60960, Note_on_c, 0, 67, 40
4, 60960, Note_on_c, 0, 70, 40
4, 60960, Note_on_c, 0, 72, 40
4, 61440, Note_off_c, 0, 67, 64
4, 61440, Note_off_c, 0, 72, 64
4, 61440, Note_off_c, 0, 70, 64
4, 61440, Note_on_c, 0, 67, 40
4, 61440, Note_on_c, 0, 68, 40
4, 61440, Note_on_c, 0, 72, 40
4, 61920, Note_off_c, 0, 67, 64
4, 61920, Note_off_c, 0, 72, 64
4, 61920, Note_off_c, 0, 68, 64
4, 61920, Note_on_c, 0, 65, 40
4, 61920, Note_on_c, 0, 68, 40
4, 61920, Note_on_c, 0, 77, 40
4, 62400, Note_off_c, 0, 65, 64
4, 62400, Note_off_c, 0, 77, 64
4, 62400, Note_off_c, 0, 68, 64
4, 62400, Note_on_c, 0, 67, 40
4, 62400, Note_on_c, 0, 74, 40
4, 62400, Note_on_c, 0, 77, 40
4, 62880, Note_off_c, 0, 67, 64
4, 62880, Note_off_c, 0, 77, 64
4, 62880, Note_off_c, 0, 74, 64
4, 62880, Note_on_c, 0, 67, 40
4, 62880, Note_on_c, 0, 75, 40
4, 63360, Note_off_c, 0, 67, 64
4, 63360, Note_off_c, 0, 75, 64
4, 63360, Note_on_c, 0, 65, 40
4, 63360, Note_on_c, 0, 72, 40
4, 63360, Note_on_c, 0, 75, 40
4, 63840, Note_off_c, 0, 65, 64
4, 63840, Note_off_c, 0, 75, 64
4, 63840, Note_off_c, 0, 72, 64
4, 63840, Note_on_c, 0, 65, 40
4, 63840, Note_on_c, 0, 67, 40
4, 63840, Note_on_c, 0, 74, 40
4, 64320, Note_off_c, 0, 65, 64
4, 64320, Note_off_c, 0, 74, 64
4, 64320, Note_off_c, 0, 67, 64
4, 64320, Note_on_c, 0, 63, 40
4, 64320, Note_on_c, 0, 67, 40
4, 64320, Note_on_c, 0, 72, 40
4, 64560, Note_off_c, 0, 63, 64
4, 64560, Note_off_c, 0, 72, 64
4, 64560, Note_off_c, 0, 67, 64
4, 64560, Note_on_c, 0, 63, 40
4, 64560, Note_on_c, 0, 68, 40
4, 64560, Note_on_c, 0, 72, 40
4, 64800, Note_off_c, 0, 63, 64
4, 64800, Note_off_c, 0, 72, 64
4, 64800, Note_off_c, 0, 68, 64
4, 64800, Note_on_c, 0, 62, 40
4, 64800, Note_on_c, 0, 68, 40
4, 64800, Note_on_c, 0, 72, 40
4, 65040, Note_off_c, 0, 62, 64
4, 65040, Note_off_c, 0, 72, 64
4, 65040, Note_off_c, 0, 68, 64
4, 65040, Note_on_c, 0, 62, 40
4, 65040, Note_on_c, 0, 67, 40
4, 65040, Note_on_c, 0, 71, 40
4, 65280, Note_off_c, 0, 62, 64
4, 65280, Note_off_c, 0, 71, 64
4, 65280, Note_off_c, 0, 67, 64
4, 65280, Note_on_c, 0, 63, 40
4, 65280, Note_on_c, 0, 67, 40
4, 65280, Note_on_c, 0, 72, 40
4, 65760, Note_off_c, 0, 63, 64
4, 65760, Note_off_c, 0, 72, 64
4, 65760, Note_off_c, 0, 67, 64
4, 65760, Note_on_c, 0, 72, 40
4, 65760, Note_on_c, 0, 79, 40
4, 66240, Note_off_c, 0, 72, 64
4, 66240, Note_off_c, 0, 79, 64
4, 66240, Note_on_c, 0, 71, 40
4, 66240, Note_on_c, 0, 74, 40
4, 66240, Note_on_c, 0, 79, 40
4, 66720, Note_off_c, 0, 71, 64
4, 66720, Note_off_c, 0, 79, 64
4, 66720, Note_off_c, 0, 74, 64
4, 66720, Note_on_c, 0, 72, 40
4, 66720, Note_on_c, 0, 74, 40
4, 66720, Note_on_c, 0, 79, 40
4, 66960, Note_off_c, 0, 72, 64
4, 66960, Note_off_c, 0, 79, 64
4, 66960, Note_off_c, 0, 74, 64
4, 66960, Note_on_c, 0, 72, 40
4, 66960, Note_on_c, 0, 75, 40
4, 66960, Note_on_c, 0, 78, 40
4, 67200, Note_off_c, 0, 72, 64
4, 67200, Note_off_c, 0, 78, 64
4, 67200, Note_off_c, 0, 75, 64
4, 67200, Note_on_c, 0, 67, 40
4, 67200, Note_on_c, 0, 74, 40
4, 67200, Note_on_c, 0, 79, 40
4, 67680, Note_off_c, 0, 67, 64
4, 67680, Note_off_c, 0, 79, 64
4, 67680, Note_off_c, 0, 74, 64
4, 67920, Note_on_c, 0, 67, 40
4, 67920, Note_on_c, 0, 71, 40
4, 67920, Note_on_c, 0, 75, 40
4, 68160, Note_off_c, 0, 67, 64
4, 68160, Note_off_c, 0, 75, 64
4, 68160, Note_off_c, 0, 71, 64
4, 68160, Note_on_c, 0, 69, 40
4, 68160, Note_on_c, 0, 72, 40
4, 68160, Note_on_c, 0, 75, 40
4, 68400, Note_off_c, 0, 69, 64
4, 68400, Note_off_c, 0, 75, 64
4, 68400, Note_off_c, 0, 72, 64
4, 68400, Note_on_c, 0, 69, 40
4, 68400, Note_on_c, 0, 72, 40
4, 68400, Note_on_c, 0, 74, 40
4, 68640, Note_off_c, 0, 69, 64
4, 68640, Note_off_c, 0, 74, 64
4, 68640, Note_off_c, 0, 72, 64
4, 68640, Note_on_c, 0, 68, 40
4, 68640, Note_on_c, 0, 73, 40
4, 68640, Note_on_c, 0, 77, 40
4, 69120, Note_off_c, 0, 68, 64
4, 69120, Note_off_c, 0, 77, 64
4, 69120, Note_off_c, 0, 73, 64
4, 69120, Note_on_c, 0, 67, 40
4, 69120, Note_on_c, 0, 73, 40
4, 69120, Note_on_c, 0, 79, 40
4, 69360, Note_off_c, 0, 67, 64
4, 69360, Note_off_c, 0, 79, 64
4, 69360, Note_off_c, 0, 73, 64
4, 69360, Note_on_c, 0, 67, 40
4, 69360, Note_on_c, 0, 72, 40
4, 69360, Note_on_c, 0, 79, 40
4, 69600, Note_off_c, 0, 67, 64
4, 69600, Note_off_c, 0, 79, 64
4, 69600, Note_off_c, 0, 72, 64
4, 69600, Note_on_c, 0, 67, 40
4, 69600, Note_on_c, 0, 72, 40
4, 69600, Note_on_c, 0, 79, 40
4, 70080, Note_off_c, 0, 67, 64
4, 70080, Note_off_c, 0, 79, 64
4, 70080, Note_off_c, 0, 72, 64
4, 70080, Note_on_c, 0, 68, 40
4, 70080, Note_on_c, 0, 72, 40
4, 70080, Note_on_c, 0, 77, 40
4, 70320, Note_off_c, 0, 68, 64
4, 70320, Note_off_c, 0, 77, 64
4, 70320, Note_off_c, 0, 72, 64
4, 70320, Note_on_c, 0, 68, 40
4, 70320, Note_on_c, 0, 71, 40
4, 70320, Note_on_c, 0, 77, 40
4, 70560, Note_off_c, 0, 68, 64
4, 70560, Note_off_c, 0, 77, 64
4, 70560, Note_off_c, 0, 71, 64
4, 70560, Note_on_c, 0, 65, 40
4, 70560, Note_on_c, 0, 70, 40
4, 70560, Note_on_c, 0, 77, 40
4, 70800, Note_off_c, 0, 65, 64
4, 70800, Note_off_c, 0, 77, 64
4, 70800, Note_off_c, 0, 70, 64
4, 70800, Note_on_c, 0, 65, 40
4, 70800, Note_on_c, 0, 68, 40
4, 70800, Note_on_c, 0, 77, 40
4, 71040, Note_off_c, 0, 65, 64
4, 71040, Note_off_c, 0, 77, 64
4, 71040, Note_off_c, 0, 68, 64
4, 71040, Note_on_c, 0, 65, 40
4, 71040, Note_on_c, 0, 67, 40
4, 71040, Note_on_c, 0, 74, 40
4, 71520, Note_off_c, 0, 65, 64
4, 71520, Note_off_c, 0, 74, 64
4, 71520, Note_off_c, 0, 67, 64
4, 71520, Note_on_c, 0, 63, 40
4, 71520, Note_on_c, 0, 67, 40
4, 71520, Note_on_c, 0, 72, 40
4, 71760, Note_off_c, 0, 63, 64
4, 71760, Note_off_c, 0, 72, 64
4, 71760, Note_off_c, 0, 67, 64
4, 71760, Note_on_c, 0, 62, 40
4, 71760, Note_on_c, 0, 67, 40
4, 71760, Note_on_c, 0, 71, 40
4, 72000, Note_off_c, 0, 62, 64
4, 72000, Note_off_c, 0, 71, 64
4, 72000, Note_off_c, 0, 67, 64
4, 72000, Note_on_c, 0, 63, 40
4, 72000, Note_on_c, 0, 67, 40
4, 72000, Note_on_c, 0, 72, 40
4, 72480, Note_off_c, 0, 63, 64
4, 72480, Note_off_c, 0, 72, 64
4, 72480, Note_off_c, 0, 67, 64
4, 72480, Note_on_c, 0, 62, 40
4, 72480, Note_on_c, 0, 65, 40
4, 72480, Note_on_c, 0, 72, 40
4, 72720, Note_off_c, 0, 62, 64
4, 72720, Note_off_c, 0, 72, 64
4, 72720, Note_off_c, 0, 65, 64
4, 72720, Note_on_c, 0, 62, 40
4, 72720, Note_on_c, 0, 65, 40
4, 72720, Note_on_c, 0, 71, 40
4, 72960, Note_off_c, 0, 62, 64
4, 72960, Note_off_c, 0, 71, 64
4, 72960, Note_off_c, 0, 65, 64
4, 72960, Note_on_c, 0, 60, 40
4, 72960, Note_on_c, 0, 63, 40
4, 72960, Note_on_c, 0, 72, 40
4, 73440, Note_off_c, 0, 60, 64
4, 73440, Note_off_c, 0, 72, 64
4, 73440, Note_off_c, 0, 63, 64
4, 73440, Note_on_c, 0, 67, 40
4, 73440, Note_on_c, 0, 72, 40
4, 73920, Note_off_c, 0, 67, 64
4, 73920, Note_off_c, 0, 72, 64
4, 73920, Note_on_c, 0, 67, 40
4, 73920, Note_on_c, 0, 68, 40
4, 73920, Note_on_c, 0, 72, 40
4, 74400, Note_off_c, 0, 67, 64
4, 74400, Note_off_c, 0, 72, 64
4, 74400, Note_off_c, 0, 68, 64
4, 74400, Note_on_c, 0, 65, 40
4, 74400, Note_on_c, 0, 70, 40
4, 74400, Note_on_c, 0, 77, 40
4, 74880, Note_off_c, 0, 65, 64
4, 74880, Note_off_c, 0, 77, 64
4, 74880, Note_off_c, 0, 70, 64
4, 74880, Note_on_c, 0, 67, 40
4, 74880, Note_on_c, 0, 70, 40
4, 74880, Note_on_c, 0, 77, 40
4, 75360, Note_off_c, 0, 67, 64
4, 75360, Note_off_c, 0, 77, 64
4, 75360, Note_off_c, 0, 70, 64
4, 75360, Note_on_c, 0, 67, 40
4, 75360, Note_on_c, 0, 72, 40
4, 75360, Note_on_c, 0, 75, 40
4, 75840, Note_off_c, 0, 67, 64
4, 75840, Note_off_c, 0, 75, 64
4, 75840, Note_off_c, 0, 72, 64
4, 75840, Note_on_c, 0, 65, 40
4, 75840, Note_on_c, 0, 75, 40
4, 75840, Note_on_c, 0, 77, 40
4, 76320, Note_off_c, 0, 65, 64
4, 76320, Note_off_c, 0, 77, 64
4, 76320, Note_off_c, 0, 75, 64
4, 76320, Note_on_c, 0, 67, 40
4, 76320, Note_on_c, 0, 74, 40
4, 76320, Note_on_c, 0, 77, 40
4, 76800, Note_off_c, 0, 67, 64
4, 76800, Note_off_c, 0, 77, 64
4, 76800, Note_off_c, 0, 74, 64
4, 76800, Note_on_c, 0, 67, 40
4, 76800, Note_on_c, 0, 74, 40
4, 76800, Note_on_c, 0, 75, 40
4, 77280, Note_off_c, 0, 67, 64
4, 77280, Note_off_c, 0, 75, 64
4, 77280, Note_off_c, 0, 74, 64
4, 77280, Note_on_c, 0, 68, 40
4, 77280, Note_on_c, 0, 72, 40
4, 77280, Note_on_c, 0, 75, 40
4, 77760, Note_off_c, 0, 68, 64
4, 77760, Note_off_c, 0, 75, 64
4, 77760, Note_off_c, 0, 72, 64
4, 77760, Note_on_c, 0, 68, 40
4, 77760, Note_on_c, 0, 72, 40
4, 77760, Note_on_c, 0, 77, 40
4, 78240, Note_off_c, 0, 68, 64
4, 78240, Note_off_c, 0, 77, 64
4, 78240, Note_off_c, 0, 72, 64
4, 78240, Note_on_c, 0, 67, 40
4, 78240, Note_on_c, 0, 72, 40
4, 78240, Note_on_c, 0, 76, 40
4, 78720, Note_off_c, 0, 67, 64
4, 78720, Note_off_c, 0, 76, 64
4, 78720, Note_off_c, 0, 72, 64
4, 78720, Note_on_c, 0, 65, 40
4, 78720, Note_on_c, 0, 72, 40
4, 78720, Note_on_c, 0, 77, 40
4, 79440, Note_off_c, 0, 65, 64
4, 79440, Note_off_c, 0, 77, 64
4, 79440, Note_off_c, 0, 72, 64
4, 79440, Note_on_c, 0, 67, 40
4, 79440, Note_on_c, 0, 72, 40
4, 79440, Note_on_c, 0, 75, 40
4, 79680, Note_off_c, 0, 67, 64
4, 79680, Note_off_c, 0, 75, 64
4, 79680, Note_off_c, 0, 72, 64
4, 79680, Note_on_c, 0, 69, 40
4, 79680, Note_on_c, 0, 72, 40
4, 79680, Note_on_c, 0, 75, 40
4, 80160, Note_off_c, 0, 69, 64
4, 80160, Note_off_c, 0, 75, 64
4, 80160, Note_off_c, 0, 72, 64
4, 80160, Note_on_c, 0, 66, 40
4, 80160, Note_on_c, 0, 72, 40
4, 80160, Note_on_c, 0, 74, 40
4, 80640, Note_off_c, 0, 66, 64
4, 80640, Note_off_c, 0, 74, 64
4, 80640, Note_off_c, 0, 72, 64
4, 80640, Note_on_c, 0, 67, 40
4, 80640, Note_on_c, 0, 72, 40
4, 80640, Note_on_c, 0, 74, 40
4, 80880, Note_off_c, 0, 67, 64
4, 80880, Note_off_c, 0, 74, 64
4, 80880, Note_off_c, 0, 72, 64
4, 80880, Note_on_c, 0, 68, 40
4, 80880, Note_on_c, 0, 71, 40
4, 80880, Note_on_c, 0, 74, 40
4, 81120, Note_off_c, 0, 68, 64
4, 81120, Note_off_c, 0, 74, 64
4, 81120, Note_off_c, 0, 71, 64
4, 81360, Note_on_c, 0, 67, 40
4, 81360, Note_on_c, 0, 74, 40
4, 81360, Note_on_c, 0, 77, 40
4, 81600, Note_off_c, 0, 67, 64
4, 81600, Note_off_c, 0, 77, 64
4, 81600, Note_off_c, 0, 74, 64
4, 81600, Note_on_c, 0, 67, 40
4, 81600, Note_on_c, 0, 74, 40
4, 81600, Note_on_c, 0, 75, 40
4, 81840, Note_off_c, 0, 67, 64
4, 81840, Note_off_c, 0, 75, 64
4, 81840, Note_off_c, 0, 74, 64
4, 81840, Note_on_c, 0, 68, 40
4, 81840, Note_on_c, 0, 72, 40
4, 81840, Note_on_c, 0, 75, 40
4, 82080, Note_off_c, 0, 68, 64
4, 82080, Note_off_c, 0, 75, 64
4, 82080, Note_off_c, 0, 72, 64
4, 82080, Note_on_c, 0, 65, 40
4, 82080, Note_on_c, 0, 72, 40
4, 82080, Note_on_c, 0, 74, 40
4, 82320, Note_off_c, 0, 65, 64
4, 82320, Note_off_c, 0, 74, 64
4, 82320, Note_off_c, 0, 72, 64
4, 82320, Note_on_c, 0, 67, 40
4, 82320, Note_on_c, 0, 70, 40
4, 82320, Note_on_c, 0, 75, 40
4, 82560, Note_off_c, 0, 67, 64
4, 82560, Note_off_c, 0, 75, 64
4, 82560, Note_off_c, 0, 70, 64
4, 82560, Note_on_c, 0, 63, 40
4, 82560, Note_on_c, 0, 70, 40
4, 82560, Note_on_c, 0, 72, 40
4, 82800, Note_off_c, 0, 63, 64
4, 82800, Note_off_c, 0, 72, 64
4, 82800, Note_off_c, 0, 70, 64
4, 82800, Note_on_c, 0, 65, 40
4, 82800, Note_on_c, 0, 68, 40
4, 82800, Note_on_c, 0, 72, 40
4, 83040, Note_off_c, 0, 65, 64
4, 83040, Note_off_c, 0, 72, 64
4, 83040, Note_off_c, 0, 68, 64
4, 83040, Note_on_c, 0, 65, 40
4, 83040, Note_on_c, 0, 68, 40
4, 83040, Note_on_c, 0, 71, 40
4, 83280, Note_off_c, 0, 65, 64
4, 83280, Note_off_c, 0, 71, 64
4, 83280, Note_off_c, 0, 68, 64
4, 83280, Note_on_c, 0, 65, 40
4, 83280, Note_on_c, 0, 67, 40
4, 83280, Note_on_c, 0, 71, 40
4, 83520, Note_off_c, 0, 65, 64
4, 83520, Note_off_c, 0, 71, 64
4, 83520, Note_off_c, 0, 67, 64
4, 83520, Note_on_c, 0, 63, 40
4, 83520, Note_on_c, 0, 72, 40
4, 83760, Note_off_c, 0, 63, 64
4, 83760, Note_off_c, 0, 72, 64
4, 83760, Note_on_c, 0, 62, 40
4, 83760, Note_on_c, 0, 68, 40
4, 83760, Note_on_c, 0, 72, 40
4, 84000, Note_off_c, 0, 62, 64
4, 84000, Note_off_c, 0, 72, 64
4, 84000, Note_off_c, 0, 68, 64
4, 84000, Note_on_c, 0, 62, 40
4, 84000, Note_on_c, 0, 67, 40
4, 84000, Note_on_c, 0, 71, 40
4, 84480, Note_off_c, 0, 62, 64
4, 84480, Note_off_c, 0, 71, 64
4, 84480, Note_off_c, 0, 67, 64
4, 84480, Note_on_c, 0, 63, 40
4, 84480, Note_on_c, 0, 67, 40
4, 84480, Note_on_c, 0, 72, 40
4, 84960, Note_off_c, 0, 63, 64
4, 84960, Note_off_c, 0, 72, 64
4, 84960, Note_off_c, 0, 67, 64
4, 85680, Note_on_c, 0, 67, 40
4, 85680, Note_on_c, 0, 72, 40
4, 85680, Note_on_c, 0, 75, 40
4, 85920, Note_off_c, 0, 67, 64
4, 85920, Note_off_c, 0, 75, 64
4, 85920, Note_off_c, 0, 72, 64
4, 85920, Note_on_c, 0, 65, 40
4, 85920, Note_on_c, 0, 70, 40
4, 85920, Note_on_c, 0, 77, 40
4, 86160, Note_off_c, 0, 65, 64
4, 86160, Note_off_c, 0, 77, 64
4, 86160, Note_off_c, 0, 70, 64
4, 86160, Note_on_c, 0, 65, 40
4, 86160, Note_on_c, 0, 70, 40
4, 86160, Note_on_c, 0, 74, 40
4, 86400, Note_off_c, 0, 65, 64
4, 86400, Note_off_c, 0, 74, 64
4, 86400, Note_off_c, 0, 70, 64
4, 86400, Note_on_c, 0, 67, 40
4, 86400, Note_on_c, 0, 72, 40
4, 86400, Note_on_c, 0, 75, 40
4, 86880, Note_off_c, 0, 67, 64
4, 86880, Note_off_c, 0, 75, 64
4, 86880, Note_off_c, 0, 72, 64
4, 86880, Note_on_c, 0, 68, 40
4, 86880, Note_on_c, 0, 72, 40
4, 86880, Note_on_c, 0, 75, 40
4, 87120, Note_off_c, 0, 68, 64
4, 87120, Note_off_c, 0, 75, 64
4, 87120, Note_off_c, 0, 72, 64
4, 87120, Note_on_c, 0, 68, 40
4, 87120, Note_on_c, 0, 70, 40
4, 87120, Note_on_c, 0, 74, 40
4, 87360, Note_off_c, 0, 68, 64
4, 87360, Note_off_c, 0, 74, 64
4, 87360, Note_off_c, 0, 70, 64
4, 87360, Note_on_c, 0, 67, 40
4, 87360, Note_on_c, 0, 70, 40
4, 87360, Note_on_c, 0, 75, 40
4, 88080, Note_off_c, 0, 67, 64
4, 88080, Note_off_c, 0, 75, 64
4, 88080, Note_off_c, 0, 70, 64
4, 88080, Note_on_c, 0, 65, 40
4, 88080, Note_on_c, 0, 72, 40
4, 88080, Note_on_c, 0, 75, 40
4, 88320, Note_off_c, 0, 65, 64
4, 88320, Note_off_c, 0, 75, 64
4, 88320, Note_off_c, 0, 72, 64
4, 88320, Note_on_c, 0, 65, 40
4, 88320, Note_on_c, 0, 70, 40
4, 88320, Note_on_c, 0, 74, 40
4, 88560, Note_off_c, 0, 65, 64
4, 88560, Note_off_c, 0, 74, 64
4, 88560, Note_off_c, 0, 70, 64
4, 88560, Note_on_c, 0, 67, 40
4, 88560, Note_on_c, 0, 70, 40
4, 88560, Note_on_c, 0, 74, 40
4, 88800, Note_off_c, 0, 67, 64
4, 88800, Note_off_c, 0, 74, 64
4, 88800, Note_off_c, 0, 70, 64
4, 88800, Note_on_c, 0, 65, 40
4, 88800, Note_on_c, 0, 70, 40
4, 88800, Note_on_c, 0, 74, 40
4, 89040, Note_off_c, 0, 65, 64
4, 89040, Note_off_c, 0, 74, 64
4, 89040, Note_off_c, 0, 70, 64
4, 89040, Note_on_c, 0, 65, 40
4, 89040, Note_on_c, 0, 72, 40
4, 89040, Note_on_c, 0, 77, 40
4, 89280, Note_off_c, 0, 65, 64
4, 89280, Note_off_c, 0, 77, 64
4, 89280, Note_off_c, 0, 72, 64
4, 89280, Note_on_c, 0, 65, 40
4, 89280, Note_on_c, 0, 72, 40
4, 89280, Note_on_c, 0, 77, 40
4, 89760, Note_off_c, 0, 65, 64
4, 89760, Note_off_c, 0, 77, 64
4, 89760, Note_off_c, 0, 72, 64
4, 89760, Note_on_c, 0, 67, 40
4, 89760, Note_on_c, 0, 73, 40
4, 89760, Note_on_c, 0, 77, 40
4, 90000, Note_off_c, 0, 67, 64
4, 90000, Note_off_c, 0, 77, 64
4, 90000, Note_off_c, 0, 73, 64
4, 90000, Note_on_c, 0, 67, 40
4, 90000, Note_on_c, 0, 72, 40
4, 90000, Note_on_c, 0, 76, 40
4, 90240, Note_off_c, 0, 67, 64
4, 90240, Note_off_c, 0, 76, 64
4, 90240, Note_off_c, 0, 72, 64
4, 90240, Note_on_c, 0, 68, 40
4, 90240, Note_on_c, 0, 72, 40
4, 90240, Note_on_c, 0, 77, 40
4, 90720, Note_off_c, 0, 68, 64
4, 90720, Note_off_c, 0, 77, 64
4, 90720, Note_off_c, 0, 72, 64
4, 90720, Note_on_c, 0, 70, 40
4, 90720, Note_on_c, 0, 73, 40
4, 90720, Note_on_c, 0, 77, 40
4, 90960, Note_off_c, 0, 70, 64
4, 90960, Note_off_c, 0, 77, 64
4, 90960, Note_off_c, 0, 73, 64
4, 90960, Note_on_c, 0, 70, 40
4, 90960, Note_on_c, 0, 72, 40
4, 90960, Note_on_c, 0, 76, 40
4, 91200, Note_off_c, 0, 70, 64
4, 91200, Note_off_c, 0, 76, 64
4, 91200, Note_off_c, 0, 72, 64
4, 91200, Note_on_c, 0, 68, 40
4, 91200, Note_on_c, 0, 72, 40
4, 91200, Note_on_c, 0, 77, 40
4, 91920, Note_off_c, 0, 68, 64
4, 91920, Note_off_c, 0, 77, 64
4, 91920, Note_off_c, 0, 72, 64
4, 91920, Note_on_c, 0, 67, 40
4, 91920, Note_on_c, 0, 73, 40
4, 91920, Note_on_c, 0, 77, 40
4, 92160, Note_off_c, 0, 67, 64
4, 92160, Note_off_c, 0, 77, 64
4, 92160, Note_off_c, 0, 73, 64
4, 92160, Note_on_c, 0, 67, 40
4, 92160, Note_on_c, 0, 72, 40
4, 92160, Note_on_c, 0, 76, 40
4, 93120, Note_off_c, 0, 67, 64
4, 93120, Note_off_c, 0, 76, 64
4, 93120, Note_off_c, 0, 72, 64
4, 93120, Note_on_c, 0, 67, 40
4, 93120, Note_on_c, 0, 70, 40
4, 93120, Note_on_c, 0, 73, 40
4, 93120, Note_on_c, 0, 79, 40
4, 94080, Note_off_c, 0, 67, 64
4, 94080, Note_off_c, 0, 79, 64
4, 94080, Note_off_c, 0, 73, 64
4, 94080, Note_off_c, 0, 70, 64
4, 94080, Note_on_c, 0, 68, 40
4, 94080, Note_on_c, 0, 72, 40
4, 94080, Note_on_c, 0, 77, 40
4, 95040, Note_off_c, 0, 68, 64
4, 95040, Note_off_c, 0, 77, 64
4, 95040, Note_off_c, 0, 72, 64
4, 95040, Note_on_c, 0, 67, 40
4, 95040, Note_on_c, 0, 70, 40
4, 95040, Note_on_c, 0, 72, 40
4, 95040, Note_on_c, 0, 76, 40
4, 96000, Note_off_c, 0, 67, 64
4, 96000, Note_off_c, 0, 76, 64
4, 96000, Note_off_c, 0, 72, 64
4, 96000, Note_off_c, 0, 70, 64
4, 96000, Note_on_c, 0, 65, 40
4, 96000, Note_on_c, 0, 68, 40
4, 96000, Note_on_c, 0, 72, 40
4, 96000, Note_on_c, 0, 77, 40
4, 96720, Note_off_c, 0, 65, 64
4, 96720, Note_off_c, 0, 77, 64
4, 96720, Note_off_c, 0, 72, 64
4, 96720, Note_off_c, 0, 68, 64
4, 96720, Note_on_c, 0, 69, 40
4, 96720, Note_on_c, 0, 72, 40
4, 96720, Note_on_c, 0, 77, 40
4, 96960, Note_off_c, 0, 69, 64
4, 96960, Note_off_c, 0, 77, 64
4, 96960, Note_off_c, 0, 72, 64
4, 96960, Note_on_c, 0, 69, 40
4, 96960, Note_on_c, 0, 72, 40
4, 96960, Note_on_c, 0, 75, 40
4, 97440, Note_off_c, 0, 69, 64
4, 97440, Note_off_c, 0, 75, 64
4, 97440, Note_off_c, 0, 72, 64
4, 97440, Note_on_c, 0, 63, 40
4, 97440, Note_on_c, 0, 69, 40
4, 97440, Note_on_c, 0, 72, 40
4, 97920, Note_off_c, 0, 63, 64
4, 97920, Note_off_c, 0, 72, 64
4, 97920, Note_off_c, 0, 69, 64
4, 97920, Note_on_c, 0, 62, 40
4, 97920, Note_on_c, 0, 67, 40
4, 97920, Note_on_c, 0, 70, 40
4, 98400, Note_off_c, 0, 62, 64
4, 98400, Note_off_c, 0, 70, 64
4, 98400, Note_off_c, 0, 67, 64
4, 98400, Note_on_c, 0, 67, 40
4, 98400, Note_on_c, 0, 70, 40
4, 98400, Note_on_c, 0, 74, 40
4, 98880, Note_off_c, 0, 67, 64
4, 98880, Note_off_c, 0, 74, 64
4, 98880, Note_off_c, 0, 70, 64
4, 98880, Note_on_c, 0, 66, 40
4, 98880, Note_on_c, 0, 72, 40
4, 98880, Note_on_c, 0, 74, 40
4, 99840, Note_off_c, 0, 66, 64
4, 99840, Note_off_c, 0, 74, 64
4, 99840, Note_off_c, 0, 72, 64
4, 99840, Note_on_c, 0, 67, 40
4, 99840, Note_on_c, 0, 70, 40
4, 99840, Note_on_c, 0, 74, 40
4, 100320, Note_off_c, 0, 67, 64
4, 100320, Note_off_c, 0, 74, 64
4, 100320, Note_off_c, 0, 70, 64
4, 100320, Note_on_c, 0, 67, 40
4, 100320, Note_on_c, 0, 72, 40
4, 100560, Note_off_c, 0, 67, 64
4, 100560, Note_off_c, 0, 72, 64
4, 100560, Note_on_c, 0, 67, 40
4, 100560, Note_on_c, 0, 70, 40
4, 100560, Note_on_c, 0, 75, 40
4, 100800, Note_off_c, 0, 67, 64
4, 100800, Note_off_c, 0, 75, 64
4, 100800, Note_off_c, 0, 70, 64
4, 100800, Note_on_c, 0, 69, 40
4, 100800, Note_on_c, 0, 75, 40
4, 101040, Note_off_c, 0, 69, 64
4, 101040, Note_off_c, 0, 75, 64
4, 101040, Note_on_c, 0, 65, 40
4, 101040, Note_on_c, 0, 69, 40
4, 101040, Note_on_c, 0, 74, 40
4, 101280, Note_off_c, 0, 65, 64
4, 101280, Note_off_c, 0, 74, 64
4, 101280, Note_off_c, 0, 69, 64
4, 101280, Note_on_c, 0, 65, 40
4, 101280, Note_on_c, 0, 70, 40
4, 101280, Note_on_c, 0, 74, 40
4, 101520, Note_off_c, 0, 65, 64
4, 101520, Note_off_c, 0, 74, 64
4, 101520, Note_off_c, 0, 70, 64
4, 101520, Note_on_c, 0, 65, 40
4, 101520, Note_on_c, 0, 69, 40
4, 101520, Note_on_c, 0, 74, 40
4, 101760, Note_off_c, 0, 65, 64
4, 101760, Note_off_c, 0, 74, 64
4, 101760, Note_off_c, 0, 69, 64
4, 101760, Note_on_c, 0, 67, 40
4, 101760, Note_on_c, 0, 74, 40
4, 102000, Note_off_c, 0, 67, 64
4, 102000, Note_off_c, 0, 74, 64
4, 102000, Note_on_c, 0, 63, 40
4, 102000, Note_on_c, 0, 67, 40
4, 102000, Note_on_c, 0, 72, 40
4, 102240, Note_off_c, 0, 63, 64
4, 102240, Note_off_c, 0, 72, 64
4, 102240, Note_off_c, 0, 67, 64
4, 102240, Note_on_c, 0, 63, 40
4, 102240, Note_on_c, 0, 69, 40
4, 102240, Note_on_c, 0, 72, 40
4, 102480, Note_off_c, 0, 63, 64
4, 102480, Note_off_c, 0, 72, 64
4, 102480, Note_off_c, 0, 69, 64
4, 102480, Note_on_c, 0, 67, 40
4, 102480, Note_on_c, 0, 69, 40
4, 102480, Note_on_c, 0, 72, 40
4, 102720, Note_off_c, 0, 67, 64
4, 102720, Note_off_c, 0, 72, 64
4, 102720, Note_off_c, 0, 69, 64
4, 102720, Note_on_c, 0, 66, 40
4, 102720, Note_on_c, 0, 69, 40
4, 102720, Note_on_c, 0, 72, 40
4, 103200, Note_off_c, 0, 66, 64
4, 103200, Note_off_c, 0, 72, 64
4, 103200, Note_off_c, 0, 69, 64
4, 103440, Note_on_c, 0, 62, 40
4, 103440, Note_on_c, 0, 66, 40
4, 103440, Note_on_c, 0, 72, 40
4, 103680, Note_off_c, 0, 62, 64
4, 103680, Note_off_c, 0, 72, 64
4, 103680, Note_off_c, 0, 66, 64
4, 103680, Note_on_c, 0, 62, 40
4, 103680, Note_on_c, 0, 67, 40
4, 103680, Note_on_c, 0, 70, 40
4, 104160, Note_off_c, 0, 62, 64
4, 104160, Note_off_c, 0, 70, 64
4, 104160, Note_off_c, 0, 67, 64
4, 104400, Note_on_c, 0, 62, 40
4, 104400, Note_on_c, 0, 67, 40
4, 104400, Note_on_c, 0, 70, 40
4, 104640, Note_off_c, 0, 62, 64
4, 104640, Note_off_c, 0, 70, 64
4, 104640, Note_off_c, 0, 67, 64
4, 104640, Note_on_c, 0, 63, 40
4, 104640, Note_on_c, 0, 69, 40
4, 104640, Note_on_c, 0, 72, 40
4, 105120, Note_off_c, 0, 63, 64
4, 105120, Note_off_c, 0, 72, 64
4, 105120, Note_off_c, 0, 69, 64
4, 105120, Note_on_c, 0, 62, 40
4, 105120, Note_on_c, 0, 66, 40
4, 105120, Note_on_c, 0, 69, 40
4, 105360, Note_off_c, 0, 62, 64
4, 105360, Note_off_c, 0, 69, 64
4, 105360, Note_off_c, 0, 66, 64
4, 105360, Note_on_c, 0, 62, 40
4, 105360, Note_on_c, 0, 66, 40
4, 105360, Note_on_c, 0, 72, 40
4, 105600, Note_off_c, 0, 62, 64
4, 105600, Note_off_c, 0, 72, 64
4, 105600, Note_off_c, 0, 66, 64
4, 105600, Note_on_c, 0, 62, 40
4, 105600, Note_on_c, 0, 67, 40
4, 105600, Note_on_c, 0, 70, 40
4, 106080, Note_off_c, 0, 62, 64
4, 106080, Note_off_c, 0, 70, 64
4, 106080, Note_off_c, 0, 67, 64
4, 106080, Note_on_c, 0, 62, 40
4, 106080, Note_on_c, 0, 66, 40
4, 106080, Note_on_c, 0, 69, 40
4, 106560, Note_off_c, 0, 62, 64
4, 106560, Note_off_c, 0, 69, 64
4, 106560, Note_off_c, 0, 66, 64
4, 106560, Note_on_c, 0, 62, 40
4, 106560, Note_on_c, 0, 67, 40
4, 106560, Note_on_c, 0, 70, 40
4, 107040, Note_off_c, 0, 62, 64
4, 107040, Note_off_c, 0, 70, 64
4, 107040, Note_off_c, 0, 67, 64
4, 107040, Note_on_c, 0, 60, 40
4, 107040, Note_on_c, 0, 67, 40
4, 107040, Note_on_c, 0, 72, 40
4, 107280, Note_off_c, 0, 60, 64
4, 107280, Note_off_c, 0, 72, 64
4, 107280, Note_off_c, 0, 67, 64
4, 107280, Note_on_c, 0, 63, 40
4, 107280, Note_on_c, 0, 67, 40
4, 107280, Note_on_c, 0, 72, 40
4, 107520, Note_off_c, 0, 63, 64
4, 107520, Note_off_c, 0, 72, 64
4, 107520, Note_off_c, 0, 67, 64
4, 107520, Note_on_c, 0, 63, 40
4, 107520, Note_on_c, 0, 69, 40
4, 107520, Note_on_c, 0, 72, 40
4, 108000, Note_off_c, 0, 63, 64
4, 108000, Note_off_c, 0, 72, 64
4, 108000, Note_off_c, 0, 69, 64
4, 108000, Note_on_c, 0, 62, 40
4, 108000, Note_on_c, 0, 66, 40
4, 108000, Note_on_c, 0, 72, 40
4, 108480, Note_off_c, 0, 62, 64
4, 108480, Note_off_c, 0, 72, 64
4, 108480, Note_off_c, 0, 66, 64
4, 108480, Note_on_c, 0, 62, 40
4, 108480, Note_on_c, 0, 69, 40
4, 108480, Note_on_c, 0, 70, 40
4, 108720, Note_off_c, 0, 62, 64
4, 108720, Note_off_c, 0, 70, 64
4, 108720, Note_off_c, 0, 69, 64
4, 108720, Note_on_c, 0, 62, 40
4, 108720, Note_on_c, 0, 67, 40
4, 108720, Note_on_c, 0, 70, 40
4, 108960, Note_off_c, 0, 62, 64
4, 108960, Note_off_c, 0, 70, 64
4, 108960, Note_off_c, 0, 67, 64
4, 109200, Note_on_c, 0, 62, 40
4, 109200, Note_on_c, 0, 69, 40
4, 109200, Note_on_c, 0, 72, 40
4, 109440, Note_off_c, 0, 62, 64
4, 109440, Note_off_c, 0, 72, 64
4, 109440, Note_off_c, 0, 69, 64
4, 109440, Note_on_c, 0, 62, 40
4, 109440, Note_on_c, 0, 67, 40
4, 109440, Note_on_c, 0, 70, 40
4, 109920, Note_off_c, 0, 62, 64
4, 109920, Note_off_c, 0, 70, 64
4, 109920, Note_off_c, 0, 67, 64
4, 109920, Note_on_c, 0, 64, 40
4, 109920, Note_on_c, 0, 67, 40
4, 109920, Note_on_c, 0, 70, 40
4, 110160, Note_off_c, 0, 64, 64
4, 110160, Note_off_c, 0, 70, 64
4, 110160, Note_off_c, 0, 67, 64
4, 110160, Note_on_c, 0, 64, 40
4, 110160, Note_on_c, 0, 67, 40
4, 110160, Note_on_c, 0, 72, 40
4, 110400, Note_off_c, 0, 64, 64
4, 110400, Note_off_c, 0, 72, 64
4, 110400, Note_off_c, 0, 67, 64
4, 110400, Note_on_c, 0, 65, 40
4, 110400, Note_on_c, 0, 68, 40
4, 110400, Note_on_c, 0, 72, 40
4, 110880, Note_off_c, 0, 65, 64
4, 110880, Note_off_c, 0, 72, 64
4, 110880, Note_off_c, 0, 68, 64
4, 110880, Note_on_c, 0, 65, 40
4, 110880, Note_on_c, 0, 67, 40
4, 110880, Note_on_c, 0, 70, 40
4, 111120, Note_off_c, 0, 65, 64
4, 111120, Note_off_c, 0, 70, 64
4, 111120, Note_off_c, 0, 67, 64
4, 111120, Note_on_c, 0, 60, 40
4, 111120, Note_on_c, 0, 67, 40
4, 111120, Note_on_c, 0, 70, 40
4, 111360, Note_off_c, 0, 60, 64
4, 111360, Note_off_c, 0, 70, 64
4, 111360, Note_off_c, 0, 67, 64
4, 111360, Note_on_c, 0, 60, 40
4, 111360, Note_on_c, 0, 67, 40
4, 111360, Note_on_c, 0, 68, 40
4, 111600, Note_off_c, 0, 60, 64
4, 111600, Note_off_c, 0, 68, 64
4, 111600, Note_off_c, 0, 67, 64
4, 111600, Note_on_c, 0, 65, 40
4, 111600, Note_on_c, 0, 68, 40
4, 111600, Note_on_c, 0, 72, 40
4, 111840, Note_off_c, 0, 65, 64
4, 111840, Note_off_c, 0, 72, 64
4, 111840, Note_off_c, 0, 68, 64
4, 111840, Note_on_c, 0, 65, 40
4, 111840, Note_on_c, 0, 67, 40
4, 111840, Note_on_c, 0, 74, 40
4, 112080, Note_off_c, 0, 65, 64
4, 112080, Note_off_c, 0, 74, 64
4, 112080, Note_off_c, 0, 67, 64
4, 112080, Note_on_c, 0, 65, 40
4, 112080, Note_on_c, 0, 67, 40
4, 112080, Note_on_c, 0, 71, 40
4, 112320, Note_off_c, 0, 65, 64
4, 112320, Note_off_c, 0, 71, 64
4, 112320, Note_off_c, 0, 67, 64
4, 112320, Note_on_c, 0, 63, 40
4, 112320, Note_on_c, 0, 67, 40
4, 112320, Note_on_c, 0, 72, 40
4, 112800, Note_off_c, 0, 63, 64
4, 112800, Note_off_c, 0, 72, 64
4, 112800, Note_off_c, 0, 67, 64
4, 112800, Note_on_c, 0, 65, 40
4, 112800, Note_on_c, 0, 74, 40
4, 113040, Note_off_c, 0, 65, 64
4, 113040, Note_off_c, 0, 74, 64
4, 113040, Note_on_c, 0, 62, 40
4, 113040, Note_on_c, 0, 65, 40
4, 113040, Note_on_c, 0, 71, 40
4, 113280, Note_off_c, 0, 62, 64
4, 113280, Note_off_c, 0, 71, 64
4, 113280, Note_off_c, 0, 65, 64
4, 113280, Note_on_c, 0, 60, 40
4, 113280, Note_on_c, 0, 67, 40
4, 113280, Note_on_c, 0, 72, 40
4, 113520, Note_off_c, 0, 60, 64
4, 113520, Note_off_c, 0, 72, 64
4, 113520, Note_off_c, 0, 67, 64
4, 113520, Note_on_c, 0, 67, 40
4, 113520, Note_on_c, 0, 72, 40
4, 113520, Note_on_c, 0, 75, 40
4, 113760, Note_off_c, 0, 67, 64
4, 113760, Note_off_c, 0, 75, 64
4, 113760, Note_off_c, 0, 72, 64
4, 114000, Note_on_c, 0, 67, 40
4, 114000, Note_on_c, 0, 72, 40
4, 114000, Note_on_c, 0, 75, 40
4, 114240, Note_off_c, 0, 67, 64
4, 114240, Note_off_c, 0, 75, 64
4, 114240, Note_off_c, 0, 72, 64
4, 114240, Note_on_c, 0, 62, 40
4, 114240, Note_on_c, 0, 67, 40
4, 114720, Note_off_c, 0, 62, 64
4, 114720, Note_off_c, 0, 67, 64
4, 114720, Note_on_c, 0, 63, 40
4, 114720, Note_on_c, 0, 67, 40
4, 114720, Note_on_c, 0, 68, 40
4, 114960, Note_off_c, 0, 63, 64
4, 114960, Note_off_c, 0, 68, 64
4, 114960, Note_off_c, 0, 67, 64
4, 114960, Note_on_c, 0, 63, 40
4, 114960, Note_on_c, 0, 65, 40
4, 114960, Note_on_c, 0, 68, 40
4, 115200, Note_off_c, 0, 63, 64
4, 115200, Note_off_c, 0, 68, 64
4, 115200, Note_off_c, 0, 65, 64
4, 115200, Note_on_c, 0, 65, 40
4, 115200, Note_on_c, 0, 67, 40
4, 115200, Note_on_c, 0, 71, 40
4, 115440, Note_off_c, 0, 65, 64
4, 115440, Note_off_c, 0, 71, 64
4, 115440, Note_off_c, 0, 67, 64
4, 115440, Note_on_c, 0, 65, 40
4, 115440, Note_on_c, 0, 67, 40
4, 115440, Note_on_c, 0, 74, 40
4, 115680, Note_off_c, 0, 65, 64
4, 115680, Note_off_c, 0, 74, 64
4, 115680, Note_off_c, 0, 67, 64
4, 115680, Note_on_c, 0, 65, 40
4, 115680, Note_on_c, 0, 67, 40
4, 115680, Note_on_c, 0, 74, 40
4, 115920, Note_off_c, 0, 65, 64
4, 115920, Note_off_c, 0, 74, 64
4, 115920, Note_off_c, 0, 67, 64
4, 115920, Note_on_c, 0, 63, 40
4, 115920, Note_on_c, 0, 67, 40
4, 115920, Note_on_c, 0, 72, 40
4, 116160, Note_off_c, 0, 63, 64
4, 116160, Note_off_c, 0, 72, 64
4, 116160, Note_off_c, 0, 67, 64
4, 116160, Note_on_c, 0, 63, 40
4, 116160, Note_on_c, 0, 66, 40
4, 116160, Note_on_c, 0, 69, 40
4, 116640, Note_off_c, 0, 63, 64
4, 116640, Note_off_c, 0, 69, 64
4, 116640, Note_off_c, 0, 66, 64
4, 116640, Note_on_c, 0, 63, 40
4, 116640, Note_on_c, 0, 65, 40
4, 116640, Note_on_c, 0, 72, 40
4, 116880, Note_off_c, 0, 63, 64
4, 116880, Note_off_c, 0, 72, 64
4, 116880, Note_off_c, 0, 65, 64
4, 116880, Note_on_c, 0, 62, 40
4, 116880, Note_on_c, 0, 65, 40
4, 116880, Note_on_c, 0, 72, 40
4, 117120, Note_off_c, 0, 62, 64
4, 117120, Note_off_c, 0, 72, 64
4, 117120, Note_off_c, 0, 65, 64
4, 117120, Note_on_c, 0, 61, 40
4, 117120, Note_on_c, 0, 64, 40
4, 117120, Note_on_c, 0, 67, 40
4, 117600, Note_off_c, 0, 61, 64
4, 117600, Note_off_c, 0, 67, 64
4, 117600, Note_off_c, 0, 64, 64
4, 117600, Note_on_c, 0, 61, 40
4, 117600, Note_on_c, 0, 63, 40
4, 117600, Note_on_c, 0, 70, 40
4, 117840, Note_off_c, 0, 61, 64
4, 117840, Note_off_c, 0, 70, 64
4, 117840, Note_off_c, 0, 63, 64
4, 117840, Note_on_c, 0, 60, 40
4, 117840, Note_on_c, 0, 67, 40
4, 117840, Note_on_c, 0, 70, 40
4, 118080, Note_off_c, 0, 60, 64
4, 118080, Note_off_c, 0, 70, 64
4, 118080, Note_off_c, 0, 67, 64
4, 118080, Note_on_c, 0, 60, 40
4, 118080, Note_on_c, 0, 67, 40
4, 118080, Note_on_c, 0, 72, 40
4, 118320, Note_off_c, 0, 60, 64
4, 118320, Note_off_c, 0, 72, 64
4, 118320, Note_off_c, 0, 67, 64
4, 118320, Note_on_c, 0, 60, 40
4, 118320, Note_on_c, 0, 65, 40
4, 118320, Note_on_c, 0, 72, 40
4, 118560, Note_off_c, 0, 60, 64
4, 118560, Note_off_c, 0, 72, 64
4, 118560, Note_off_c, 0, 65, 64
4, 118560, Note_on_c, 0, 61, 40
4, 118560, Note_on_c, 0, 68, 40
4, 118560, Note_on_c, 0, 72, 40
4, 118800, Note_off_c, 0, 61, 64
4, 118800, Note_off_c, 0, 72, 64
4, 118800, Note_off_c, 0, 68, 64
4, 118800, Note_on_c, 0, 65, 40
4, 118800, Note_on_c, 0, 68, 40
4, 118800, Note_on_c, 0, 72, 40
4, 119040, Note_off_c, 0, 65, 64
4, 119040, Note_off_c, 0, 72, 64
4, 119040, Note_off_c, 0, 68, 64
4, 119040, Note_on_c, 0, 62, 40
4, 119040, Note_on_c, 0, 65, 40
4, 119040, Note_on_c, 0, 71, 40
4, 119280, Note_off_c, 0, 62, 64
4, 119280, Note_off_c, 0, 71, 64
4, 119280, Note_off_c, 0, 65, 64
4, 119280, Note_on_c, 0, 62, 40
4, 119280, Note_on_c, 0, 67, 40
4, 119280, Note_on_c, 0, 71, 40
4, 119520, Note_off_c, 0, 62, 64
4, 119520, Note_off_c, 0, 71, 64
4, 119520, Note_off_c, 0, 67, 64
4, 119520, Note_on_c, 0, 63, 40
4, 119520, Note_on_c, 0, 67, 40
4, 119520, Note_on_c, 0, 72, 40
4, 119760, Note_off_c, 0, 63, 64
4, 119760, Note_off_c, 0, 72, 64
4, 119760, Note_off_c, 0, 67, 64
4, 119760, Note_on_c, 0, 65, 40
4, 119760, Note_on_c, 0, 67, 40
4, 119760, Note_on_c, 0, 71, 40
4, 120000, Note_off_c, 0, 65, 64
4, 120000, Note_off_c, 0, 71, 64
4, 120000, Note_off_c, 0, 67, 64
4, 120000, Note_on_c, 0, 63, 40
4, 120000, Note_on_c, 0, 67, 40
4, 120000, Note_on_c, 0, 72, 40
4, 120240, Note_off_c, 0, 63, 64
4, 120240, Note_off_c, 0, 72, 64
4, 120240, Note_off_c, 0, 67, 64
4, 120240, Note_on_c, 0, 67, 40
4, 120240, Note_on_c, 0, 72, 40
4, 120240, Note_on_c, 0, 75, 40
4, 120480, Note_off_c, 0, 67, 64
4, 120480, Note_off_c, 0, 75, 64
4, 120480, Note_off_c, 0, 72, 64
4, 120480, Note_on_c, 0, 68, 40
4, 120480, Note_on_c, 0, 74, 40
4, 120480, Note_on_c, 0, 77, 40
4, 120720, Note_off_c, 0, 68, 64
4, 120720, Note_off_c, 0, 77, 64
4, 120720, Note_off_c, 0, 74, 64
4, 120720, Note_on_c, 0, 67, 40
4, 120720, Note_on_c, 0, 74, 40
4, 120720, Note_on_c, 0, 79, 40
4, 120960, Note_off_c, 0, 67, 64
4, 120960, Note_off_c, 0, 79, 64
4, 120960, Note_off_c, 0, 74, 64
4, 120960, Note_on_c, 0, 67, 40
4, 120960, Note_on_c, 0, 72, 40
4, 120960, Note_on_c, 0, 75, 40
4, 121200, Note_off_c, 0, 67, 64
4, 121200, Note_off_c, 0, 75, 64
4, 121200, Note_off_c, 0, 72, 64
4, 121200, Note_on_c, 0, 65, 40
4, 121200, Note_on_c, 0, 72, 40
4, 121200, Note_on_c, 0, 77, 40
4, 121440, Note_off_c, 0, 65, 64
4, 121440, Note_off_c, 0, 77, 64
4, 121440, Note_off_c, 0, 72, 64
4, 121440, Note_on_c, 0, 70, 40
4, 121440, Note_on_c, 0, 74, 40
4, 121440, Note_on_c, 0, 77, 40
4, 121680, Note_off_c, 0, 70, 64
4, 121680, Note_off_c, 0, 77, 64
4, 121680, Note_off_c, 0, 74, 64
4, 121680, Note_on_c, 0, 70, 40
4, 121680, Note_on_c, 0, 72, 40
4, 121680, Note_on_c, 0, 76, 40
4, 121920, Note_off_c, 0, 70, 64
4, 121920, Note_off_c, 0, 76, 64
4, 121920, Note_off_c, 0, 72, 64
4, 121920, Note_on_c, 0, 68, 40
4, 121920, Note_on_c, 0, 72, 40
4, 121920, Note_on_c, 0, 77, 40
4, 122400, Note_off_c, 0, 68, 64
4, 122400, Note_off_c, 0, 77, 64
4, 122400, Note_off_c, 0, 72, 64
4, 122400, Note_on_c, 0, 70, 40
4, 122400, Note_on_c, 0, 74, 40
4, 122400, Note_on_c, 0, 79, 40
4, 122640, Note_off_c, 0, 70, 64
4, 122640, Note_off_c, 0, 79, 64
4, 122640, Note_off_c, 0, 74, 64
4, 122640, Note_on_c, 0, 70, 40
4, 122640, Note_on_c, 0, 72, 40
4, 122640, Note_on_c, 0, 79, 40
4, 122880, Note_off_c, 0, 70, 64
4, 122880, Note_off_c, 0, 79, 64
4, 122880, Note_off_c, 0, 72, 64
4, 122880, Note_on_c, 0, 69, 40
4, 122880, Note_on_c, 0, 72, 40
4, 122880, Note_on_c, 0, 77, 40
4, 123120, Note_off_c, 0, 69, 64
4, 123120, Note_off_c, 0, 77, 64
4, 123120, Note_off_c, 0, 72, 64
4, 123120, Note_on_c, 0, 70, 40
4, 123120, Note_on_c, 0, 74, 40
4, 123120, Note_on_c, 0, 77, 40
4, 123360, Note_off_c, 0, 70, 64
4, 123360, Note_off_c, 0, 77, 64
4, 123360, Note_off_c, 0, 74, 64
4, 123360, Note_on_c, 0, 67, 40
4, 123360, Note_on_c, 0, 70, 40
4, 123360, Note_on_c, 0, 75, 40
4, 123600, Note_off_c, 0, 67, 64
4, 123600, Note_off_c, 0, 75, 64
4, 123600, Note_off_c, 0, 70, 64
4, 123600, Note_on_c, 0, 65, 40
4, 123600, Note_on_c, 0, 69, 40
4, 123600, Note_on_c, 0, 75, 40
4, 123840, Note_off_c, 0, 65, 64
4, 123840, Note_off_c, 0, 75, 64
4, 123840, Note_off_c, 0, 69, 64
4, 123840, Note_on_c, 0, 65, 40
4, 123840, Note_on_c, 0, 70, 40
4, 123840, Note_on_c, 0, 74, 40
4, 124320, Note_off_c, 0, 65, 64
4, 124320, Note_off_c, 0, 74, 64
4, 124320, Note_off_c, 0, 70, 64
4, 124320, Note_on_c, 0, 67, 40
4, 124320, Note_on_c, 0, 72, 40
4, 124320, Note_on_c, 0, 75, 40
4, 124560, Note_off_c, 0, 67, 64
4, 124560, Note_off_c, 0, 75, 64
4, 124560, Note_off_c, 0, 72, 64
4, 124560, Note_on_c, 0, 65, 40
4, 124560, Note_on_c, 0, 72, 40
4, 124560, Note_on_c, 0, 75, 40
4, 124800, Note_off_c, 0, 65, 64
4, 124800, Note_off_c, 0, 75, 64
4, 124800, Note_off_c, 0, 72, 64
4, 124800, Note_on_c, 0, 65, 40
4, 124800, Note_on_c, 0, 70, 40
4, 124800, Note_on_c, 0, 74, 40
4, 125040, Note_off_c, 0, 65, 64
4, 125040, Note_off_c, 0, 74, 64
4, 125040, Note_off_c, 0, 70, 64
4, 125040, Note_on_c, 0, 63, 40
4, 125040, Note_on_c, 0, 70, 40
4, 125040, Note_on_c, 0, 75, 40
4, 125280, Note_off_c, 0, 63, 64
4, 125280, Note_off_c, 0, 75, 64
4, 125280, Note_off_c, 0, 70, 64
4, 125280, Note_on_c, 0, 68, 40
4, 125280, Note_on_c, 0, 72, 40
4, 125280, Note_on_c, 0, 75, 40
4, 125520, Note_off_c, 0, 68, 64
4, 125520, Note_off_c, 0, 75, 64
4, 125520, Note_off_c, 0, 72, 64
4, 125520, Note_on_c, 0, 68, 40
4, 125520, Note_on_c, 0, 70, 40
4, 125520, Note_on_c, 0, 74, 40
4, 125760, Note_off_c, 0, 68, 64
4, 125760, Note_off_c, 0, 74, 64
4, 125760, Note_off_c, 0, 70, 64
4, 125760, Note_on_c, 0, 67, 40
4, 125760, Note_on_c, 0, 70, 40
4, 125760, Note_on_c, 0, 75, 40
4, 126240, Note_off_c, 0, 67, 64
4, 126240, Note_off_c, 0, 75, 64
4, 126240, Note_off_c, 0, 70, 64
4, 126240, Note_on_c, 0, 68, 40
4, 126240, Note_on_c, 0, 72, 40
4, 126240, Note_on_c, 0, 77, 40
4, 126480, Note_off_c, 0, 68, 64
4, 126480, Note_off_c, 0, 77, 64
4, 126480, Note_off_c, 0, 72, 64
4, 126480, Note_on_c, 0, 68, 40
4, 126480, Note_on_c, 0, 70, 40
4, 126480, Note_on_c, 0, 77, 40
4, 126720, Note_off_c, 0, 68, 64
4, 126720, Note_off_c, 0, 77, 64
4, 126720, Note_off_c, 0, 70, 64
4, 126720, Note_on_c, 0, 67, 40
4, 126720, Note_on_c, 0, 70, 40
4, 126720, Note_on_c, 0, 75, 40
4, 126960, Note_off_c, 0, 67, 64
4, 126960, Note_off_c, 0, 75, 64
4, 126960, Note_off_c, 0, 70, 64
4, 126960, Note_on_c, 0, 68, 40
4, 126960, Note_on_c, 0, 72, 40
4, 126960, Note_on_c, 0, 75, 40
4, 127200, Note_off_c, 0, 68, 64
4, 127200, Note_off_c, 0, 75, 64
4, 127200, Note_off_c, 0, 72, 64
4, 127200, Note_on_c, 0, 65, 40
4, 127200, Note_on_c, 0, 68, 40
4, 127200, Note_on_c, 0, 73, 40
4, 127440, Note_off_c, 0, 65, 64
4, 127440, Note_off_c, 0, 73, 64
4, 127440, Note_off_c, 0, 68, 64
4, 127440, Note_on_c, 0, 63, 40
4, 127440, Note_on_c, 0, 67, 40
4, 127440, Note_on_c, 0, 73, 40
4, 127680, Note_off_c, 0, 63, 64
4, 127680, Note_off_c, 0, 73, 64
4, 127680, Note_off_c, 0, 67, 64
4, 127680, Note_on_c, 0, 63, 40
4, 127680, Note_on_c, 0, 68, 40
4, 127680, Note_on_c, 0, 72, 40
4, 128160, Note_off_c, 0, 63, 64
4, 128160, Note_off_c, 0, 72, 64
4, 128160, Note_off_c, 0, 68, 64
4, 128160, Note_on_c, 0, 65, 40
4, 128160, Note_on_c, 0, 70, 40
4, 128160, Note_on_c, 0, 73, 40
4, 128400, Note_off_c, 0, 65, 64
4, 128400, Note_off_c, 0, 73, 64
4, 128400, Note_off_c, 0, 70, 64
4, 128400, Note_on_c, 0, 63, 40
4, 128400, Note_on_c, 0, 70, 40
4, 128400, Note_on_c, 0, 73, 40
4, 128640, Note_off_c, 0, 63, 64
4, 128640, Note_off_c, 0, 73, 64
4, 128640, Note_off_c, 0, 70, 64
4, 128640, Note_on_c, 0, 63, 40
4, 128640, Note_on_c, 0, 70, 40
4, 128640, Note_on_c, 0, 72, 40
4, 128880, Note_off_c, 0, 63, 64
4, 128880, Note_off_c, 0, 72, 64
4, 128880, Note_off_c, 0, 70, 64
4, 128880, Note_on_c, 0, 63, 40
4, 128880, Note_on_c, 0, 68, 40
4, 128880, Note_on_c, 0, 75, 40
4, 129120, Note_off_c, 0, 63, 64
4, 129120, Note_off_c, 0, 75, 64
4, 129120, Note_off_c, 0, 68, 64
4, 129120, Note_on_c, 0, 65, 40
4, 129120, Note_on_c, 0, 68, 40
4, 129120, Note_on_c, 0, 73, 40
4, 129360, Note_off_c, 0, 65, 64
4, 129360, Note_off_c, 0, 73, 64
4, 129360, Note_off_c, 0, 68, 64
4, 129360, Note_on_c, 0, 63, 40
4, 129360, Note_on_c, 0, 67, 40
4, 129360, Note_on_c, 0, 73, 40
4, 129600, Note_off_c, 0, 63, 64
4, 129600, Note_off_c, 0, 73, 64
4, 129600, Note_off_c, 0, 67, 64
4, 129600, Note_on_c, 0, 63, 40
4, 129600, Note_on_c, 0, 68, 40
4, 129600, Note_on_c, 0, 72, 40
4, 130080, Note_off_c, 0, 63, 64
4, 130080, Note_off_c, 0, 72, 64
4, 130080, Note_off_c, 0, 68, 64
4, 130080, Note_on_c, 0, 62, 40
4, 130080, Note_on_c, 0, 67, 40
4, 130080, Note_on_c, 0, 70, 40
4, 130320, Note_off_c, 0, 62, 64
4, 130320, Note_off_c, 0, 70, 64
4, 130320, Note_off_c, 0, 67, 64
4, 130320, Note_on_c, 0, 64, 40
4, 130320, Note_on_c, 0, 67, 40
4, 130320, Note_on_c, 0, 72, 40
4, 130560, Note_off_c, 0, 64, 64
4, 130560, Note_off_c, 0, 72, 64
4, 130560, Note_off_c, 0, 67, 64
4, 130560, Note_on_c, 0, 65, 40
4, 130560, Note_on_c, 0, 68, 40
4, 130560, Note_on_c, 0, 72, 40
4, 131040, Note_off_c, 0, 65, 64
4, 131040, Note_off_c, 0, 72, 64
4, 131040, Note_off_c, 0, 68, 64
4, 131040, Note_on_c, 0, 65, 40
4, 131040, Note_on_c, 0, 72, 40
4, 131040, Note_on_c, 0, 77, 40
4, 131520, Note_off_c, 0, 65, 64
4, 131520, Note_off_c, 0, 77, 64
4, 131520, Note_off_c, 0, 72, 64
4, 131520, Note_on_c, 0, 65, 40
4, 131520, Note_on_c, 0, 70, 40
4, 131520, Note_on_c, 0, 77, 40
4, 132000, Note_off_c, 0, 65, 64
4, 132000, Note_off_c, 0, 77, 64
4, 132000, Note_off_c, 0, 70, 64
4, 132000, Note_on_c, 0, 66, 40
4, 132000, Note_on_c, 0, 70, 40
4, 132000, Note_on_c, 0, 75, 40
4, 132480, Note_off_c, 0, 66, 64
4, 132480, Note_off_c, 0, 75, 64
4, 132480, Note_off_c, 0, 70, 64
4, 132480, Note_on_c, 0, 66, 40
4, 132480, Note_on_c, 0, 72, 40
4, 132480, Note_on_c, 0, 75, 40
4, 133440, Note_off_c, 0, 66, 64
4, 133440, Note_off_c, 0, 75, 64
4, 133440, Note_off_c, 0, 72, 64
4, 133440, Note_on_c, 0, 65, 40
4, 133440, Note_on_c, 0, 70, 40
4, 133440, Note_on_c, 0, 73, 40
4, 134400, Note_off_c, 0, 65, 64
4, 134400, Note_off_c, 0, 73, 64
4, 134400, Note_off_c, 0, 70, 64
4, 134400, Note_on_c, 0, 65, 40
4, 134400, Note_on_c, 0, 69, 40
4, 134400, Note_on_c, 0, 75, 40
4, 135360, Note_off_c, 0, 65, 64
4, 135360, Note_off_c, 0, 75, 64
4, 135360, Note_off_c, 0, 69, 64
4, 135360, Note_on_c, 0, 65, 40
4, 135360, Note_on_c, 0, 70, 40
4, 135360, Note_on_c, 0, 73, 40
4, 136080, Note_off_c, 0, 65, 64
4, 136080, Note_off_c, 0, 73, 64
4, 136080, Note_off_c, 0, 70, 64
4, 136080, Note_on_c, 0, 65, 40
4, 136080, Note_on_c, 0, 70, 40
4, 136080, Note_on_c, 0, 74, 40
4, 136320, Note_off_c, 0, 65, 64
4, 136320, Note_off_c, 0, 74, 64
4, 136320, Note_off_c, 0, 70, 64
4, 136320, Note_on_c, 0, 65, 40
4, 136320, Note_on_c, 0, 68, 40
4, 136320, Note_on_c, 0, 74, 40
4, 137280, Note_off_c, 0, 65, 64
4, 137280, Note_off_c, 0, 74, 64
4, 137280, Note_off_c, 0, 68, 64
4, 137280, Note_on_c, 0, 63, 40
4, 137280, Note_on_c, 0, 67, 40
4, 137280, Note_on_c, 0, 72, 40
4, 138240, Note_off_c, 0, 63, 64
4, 138240, Note_off_c, 0, 72, 64
4, 138240, Note_off_c, 0, 67, 64
4, 138240, Note_on_c, 0, 65, 40
4, 138240, Note_on_c, 0, 67, 40
4, 138240, Note_on_c, 0, 71, 40
4, 139200, Note_off_c, 0, 65, 64
4, 139200, Note_off_c, 0, 71, 64
4, 139200, Note_off_c, 0, 67, 64
4, 139200, Note_on_c, 0, 63, 40
4, 139200, Note_on_c, 0, 67, 40
4, 139200, Note_on_c, 0, 72, 40
4, 139440, Note_off_c, 0, 63, 64
4, 139440, Note_off_c, 0, 72, 64
4, 139440, Note_off_c, 0, 67, 64
4, 139440, Note_on_c, 0, 67, 40
4, 139440, Note_on_c, 0, 72, 40
4, 139440, Note_on_c, 0, 75, 40
4, 139680, Note_off_c, 0, 67, 64
4, 139680, Note_off_c, 0, 75, 64
4, 139680, Note_off_c, 0, 72, 64
4, 139680, Note_on_c, 0, 65, 40
4, 139680, Note_on_c, 0, 72, 40
4, 139680, Note_on_c, 0, 75, 40
4, 139920, Note_off_c, 0, 65, 64
4, 139920, Note_off_c, 0, 75, 64
4, 139920, Note_off_c, 0, 72, 64
4, 139920, Note_on_c, 0, 65, 40
4, 139920, Note_on_c, 0, 68, 40
4, 139920, Note_on_c, 0, 75, 40
4, 140160, Note_off_c, 0, 65, 64
4, 140160, Note_off_c, 0, 75, 64
4, 140160, Note_off_c, 0, 68, 64
4, 140160, Note_on_c, 0, 65, 40
4, 140160, Note_on_c, 0, 68, 40
4, 140160, Note_on_c, 0, 74, 40
4, 140400, Note_off_c, 0, 65, 64
4, 140400, Note_off_c, 0, 74, 64
4, 140400, Note_off_c, 0, 68, 64
4, 140400, Note_on_c, 0, 67, 40
4, 140400, Note_on_c, 0, 74, 40
4, 140640, Note_off_c, 0, 67, 64
4, 140640, Note_off_c, 0, 74, 64
4, 140640, Note_on_c, 0, 63, 40
4, 140640, Note_on_c, 0, 70, 40
4, 140640, Note_on_c, 0, 74, 40
4, 140880, Note_off_c, 0, 63, 64
4, 140880, Note_off_c, 0, 74, 64
4, 140880, Note_off_c, 0, 70, 64
4, 140880, Note_on_c, 0, 63, 40
4, 140880, Note_on_c, 0, 67, 40
4, 140880, Note_on_c, 0, 74, 40
4, 141120, Note_off_c, 0, 63, 64
4, 141120, Note_off_c, 0, 74, 64
4, 141120, Note_off_c, 0, 67, 64
4, 141120, Note_on_c, 0, 63, 40
4, 141120, Note_on_c, 0, 65, 40
4, 141120, Note_on_c, 0, 72, 40
4, 141360, Note_off_c, 0, 63, 64
4, 141360, Note_off_c, 0, 72, 64
4, 141360, Note_off_c, 0, 65, 64
4, 141360, Note_on_c, 0, 65, 40
4, 141360, Note_on_c, 0, 72, 40
4, 141600, Note_off_c, 0, 65, 64
4, 141600, Note_off_c, 0, 72, 64
4, 141600, Note_on_c, 0, 62, 40
4, 141600, Note_on_c, 0, 68, 40
4, 141600, Note_on_c, 0, 72, 40
4, 141840, Note_off_c, 0, 62, 64
4, 141840, Note_off_c, 0, 72, 64
4, 141840, Note_off_c, 0, 68, 64
4, 141840, Note_on_c, 0, 62, 40
4, 141840, Note_on_c, 0, 65, 40
4, 141840, Note_on_c, 0, 72, 40
4, 142080, Note_off_c, 0, 62, 64
4, 142080, Note_off_c, 0, 72, 64
4, 142080, Note_off_c, 0, 65, 64
4, 142080, Note_on_c, 0, 62, 40
4, 142080, Note_on_c, 0, 65, 40
4, 142080, Note_on_c, 0, 71, 40
4, 142560, Note_off_c, 0, 62, 64
4, 142560, Note_off_c, 0, 71, 64
4, 142560, Note_off_c, 0, 65, 64
4, 142800, Note_on_c, 0, 62, 40
4, 142800, Note_on_c, 0, 65, 40
4, 142800, Note_on_c, 0, 67, 40
4, 142800, Note_on_c, 0, 71, 40
4, 143040, Note_off_c, 0, 62, 64
4, 143040, Note_off_c, 0, 71, 64
4, 143040, Note_off_c, 0, 67, 64
4, 143040, Note_off_c, 0, 65, 64
4, 143040, Note_on_c, 0, 60, 40
4, 143040, Note_on_c, 0, 63, 40
4, 143040, Note_on_c, 0, 67, 40
4, 143040, Note_on_c, 0, 72, 40
4, 143520, Note_off_c, 0, 60, 64
4, 143520, Note_off_c, 0, 72, 64
4, 143520, Note_off_c, 0, 67, 64
4, 143520, Note_off_c, 0, 63, 64
4, 143760, Note_on_c, 0, 63, 40
4, 143760, Note_on_c, 0, 67, 40
4, 143760, Note_on_c, 0, 68, 40
4, 143760, Note_on_c, 0, 72, 40
4, 144000, Note_off_c, 0, 63, 64
4, 144000, Note_off_c, 0, 72, 64
4, 144000, Note_off_c, 0, 68, 64
4, 144000, Note_off_c, 0, 67, 64
4, 144000, Note_on_c, 0, 62, 40
4, 144000, Note_on_c, 0, 65, 40
4, 144000, Note_on_c, 0, 68, 40
4, 144000, Note_on_c, 0, 74, 40
4, 144480, Note_off_c, 0, 62, 64
4, 144480, Note_off_c, 0, 74, 64
4, 144480, Note_off_c, 0, 68, 64
4, 144480, Note_off_c, 0, 65, 64
4, 144480, Note_on_c, 0, 62, 40
4, 144480, Note_on_c, 0, 65, 40
4, 144480, Note_on_c, 0, 68, 40
4, 144480, Note_on_c, 0, 71, 40
4, 144960, Note_off_c, 0, 62, 64
4, 144960, Note_off_c, 0, 71, 64
4, 144960, Note_off_c, 0, 68, 64
4, 144960, Note_off_c, 0, 65, 64
4, 144960, Note_on_c, 0, 60, 40
4, 144960, Note_on_c, 0, 67, 40
4, 144960, Note_on_c, 0, 72, 40
4, 145200, Note_off_c, 0, 60, 64
4, 145200, Note_off_c, 0, 72, 64
4, 145200, Note_off_c, 0, 67, 64
4, 145200, Note_on_c, 0, 63, 40
4, 145200, Note_on_c, 0, 67, 40
4, 145200, Note_on_c, 0, 72, 40
4, 145440, Note_off_c, 0, 63, 64
4, 145440, Note_off_c, 0, 72, 64
4, 145440, Note_off_c, 0, 67, 64
4, 145440, Note_on_c, 0, 62, 40
4, 145440, Note_on_c, 0, 67, 40
4, 145440, Note_on_c, 0, 71, 40
4, 145920, Note_off_c, 0, 62, 64
4, 145920, Note_off_c, 0, 71, 64
4, 145920, Note_off_c, 0, 67, 64
4, 145920, Note_on_c, 0, 60, 40
4, 145920, Note_on_c, 0, 67, 40
4, 145920, Note_on_c, 0, 72, 40
4, 146160, Note_off_c, 0, 60, 64
4, 146160, Note_off_c, 0, 72, 64
4, 146160, Note_off_c, 0, 67, 64
4, 146160, Note_on_c, 0, 60, 40
4, 146160, Note_on_c, 0, 68, 40
4, 146160, Note_on_c, 0, 72, 40
4, 146400, Note_off_c, 0, 60, 64
4, 146400, Note_off_c, 0, 72, 64
4, 146400, Note_off_c, 0, 68, 64
4, 146400, Note_on_c, 0, 62, 40
4, 146400, Note_on_c, 0, 68, 40
4, 146400, Note_on_c, 0, 72, 40
4, 146640, Note_off_c, 0, 62, 64
4, 146640, Note_off_c, 0, 72, 64
4, 146640, Note_off_c, 0, 68, 64
4, 146640, Note_on_c, 0, 62, 40
4, 146640, Note_on_c, 0, 67, 40
4, 146640, Note_on_c, 0, 71, 40
4, 146880, Note_off_c, 0, 62, 64
4, 146880, Note_off_c, 0, 71, 64
4, 146880, Note_off_c, 0, 67, 64
4, 146880, Note_on_c, 0, 63, 40
4, 146880, Note_on_c, 0, 67, 40
4, 146880, Note_on_c, 0, 72, 40
4, 147120, Note_off_c, 0, 63, 64
4, 147120, Note_off_c, 0, 72, 64
4, 147120, Note_off_c, 0, 67, 64
4, 147120, Note_on_c, 0, 65, 40
4, 147120, Note_on_c, 0, 68, 40
4, 147120, Note_on_c, 0, 72, 40
4, 147360, Note_off_c, 0, 65, 64
4, 147360, Note_off_c, 0, 72, 64
4, 147360, Note_off_c, 0, 68, 64
4, 147360, Note_on_c, 0, 65, 40
4, 147360, Note_on_c, 0, 68, 40
4, 147360, Note_on_c, 0, 70, 40
4, 147600, Note_off_c, 0, 65, 64
4, 147600, Note_off_c, 0, 70, 64
4, 147600, Note_off_c, 0, 68, 64
4, 147600, Note_on_c, 0, 63, 40
4, 147600, Note_on_c, 0, 67, 40
4, 147600, Note_on_c, 0, 70, 40
4, 147840, Note_off_c, 0, 63, 64
4, 147840, Note_off_c, 0, 70, 64
4, 147840, Note_off_c, 0, 67, 64
4, 147840, Note_on_c, 0, 63, 40
4, 147840, Note_on_c, 0, 68, 40
4, 147840, Note_on_c, 0, 72, 40
4, 148080, Note_off_c, 0, 63, 64
4, 148080, Note_off_c, 0, 72, 64
4, 148080, Note_off_c, 0, 68, 64
4, 148080, Note_on_c, 0, 65, 40
4, 148080, Note_on_c, 0, 68, 40
4, 148080, Note_on_c, 0, 73, 40
4, 148320, Note_off_c, 0, 65, 64
4, 148320, Note_off_c, 0, 73, 64
4, 148320, Note_off_c, 0, 68, 64
4, 148320, Note_on_c, 0, 65, 40
4, 148320, Note_on_c, 0, 67, 40
4, 148320, Note_on_c, 0, 73, 40
4, 148560, Note_off_c, 0, 65, 64
4, 148560, Note_off_c, 0, 73, 64
4, 148560, Note_off_c, 0, 67, 64
4, 148560, Note_on_c, 0, 64, 40
4, 148560, Note_on_c, 0, 67, 40
4, 148560, Note_on_c, 0, 72, 40
4, 148800, Note_off_c, 0, 64, 64
4, 148800, Note_off_c, 0, 72, 64
4, 148800, Note_off_c, 0, 67, 64
4, 148800, Note_on_c, 0, 60, 40
4, 148800, Note_on_c, 0, 65, 40
4, 148800, Note_on_c, 0, 68, 40
4, 149280, Note_off_c, 0, 60, 64
4, 149280, Note_off_c, 0, 68, 64
4, 149280, Note_off_c, 0, 65, 64
4, 149760, Note_on_c, 0, 65, 40
4, 149760, Note_on_c, 0, 68, 40
4, 149760, Note_on_c, 0, 73, 40
4, 150240, Note_off_c, 0, 65, 64
4, 150240, Note_off_c, 0, 73, 64
4, 150240, Note_off_c, 0, 68, 64
4, 150720, Note_on_c, 0, 65, 40
4, 150720, Note_on_c, 0, 68, 40
4, 150720, Note_on_c, 0, 73, 40
4, 151680, Note_off_c, 0, 65, 64
4, 151680, Note_off_c, 0, 73, 64
4, 151680, Note_off_c, 0, 68, 64
4, 151680, Note_on_c, 0, 63, 40
4, 151680, Note_on_c, 0, 69, 40
4, 151680, Note_on_c, 0, 72, 40
4, 152640, Note_off_c, 0, 63, 64
4, 152640, Note_off_c, 0, 72, 64
4, 152640, Note_off_c, 0, 69, 64
4, 152640, Note_on_c, 0, 62, 40
4, 152640, Note_on_c, 0, 67, 40
4, 152640, Note_on_c, 0, 71, 40
4, 153360, Note_off_c, 0, 62, 64
4, 153360, Note_off_c, 0, 71, 64
4, 153360, Note_off_c, 0, 67, 64
4, 153360, Note_on_c, 0, 65, 40
4, 153360, Note_on_c, 0, 67, 40
4, 153360, Note_on_c, 0, 71, 40
4, 153600, Note_off_c, 0, 65, 64
4, 153600, Note_off_c, 0, 71, 64
4, 153600, Note_off_c, 0, 67, 64
4, 153600, Note_on_c, 0, 63, 40
4, 153600, Note_on_c, 0, 67, 40
4, 153600, Note_on_c, 0, 72, 40
4, 154080, Note_off_c, 0, 63, 64
4, 154080, Note_off_c, 0, 72, 64
4, 154080, Note_off_c, 0, 67, 64
4, 154080, Note_on_c, 0, 62, 40
4, 154080, Note_on_c, 0, 67, 40
4, 154080, Note_on_c, 0, 74, 40
4, 154320, Note_off_c, 0, 62, 64
4, 154320, Note_off_c, 0, 74, 64
4, 154320, Note_off_c, 0, 67, 64
4, 154320, Note_on_c, 0, 62, 40
4, 154320, Note_on_c, 0, 67, 40
4, 154320, Note_on_c, 0, 71, 40
4, 154560, Note_off_c, 0, 62, 64
4, 154560, Note_off_c, 0, 71, 64
4, 154560, Note_off_c, 0, 67, 64
4, 154560, Note_on_c, 0, 63, 40
4, 154560, Note_on_c, 0, 67, 40
4, 154560, Note_on_c, 0, 72, 40
4, 155040, Note_off_c, 0, 63, 64
4, 155040, Note_off_c, 0, 72, 64
4, 155040, Note_off_c, 0, 67, 64
4, 155520, Note_on_c, 0, 62, 40
4, 155520, Note_on_c, 0, 67, 40
4, 155520, Note_on_c, 0, 71, 40
4, 156000, Note_off_c, 0, 62, 64
4, 156000, Note_off_c, 0, 71, 64
4, 156000, Note_off_c, 0, 67, 64
4, 156000, Note_on_c, 0, 63, 40
4, 156000, Note_on_c, 0, 68, 40
4, 156000, Note_on_c, 0, 72, 40
4, 156480, Note_off_c, 0, 63, 64
4, 156480, Note_off_c, 0, 72, 64
4, 156480, Note_off_c, 0, 68, 64
4, 156480, Note_on_c, 0, 62, 40
4, 156480, Note_on_c, 0, 67, 40
4, 156480, Note_on_c, 0, 71, 40
4, 156960, Note_off_c, 0, 62, 64
4, 156960, Note_off_c, 0, 71, 64
4, 156960, Note_off_c, 0, 67, 64
4, 156960, Note_on_c, 0, 63, 40
4, 156960, Note_on_c, 0, 67, 40
4, 156960, Note_on_c, 0, 72, 40
4, 157440, Note_off_c, 0, 63, 64
4, 157440, Note_off_c, 0, 72, 64
4, 157440, Note_off_c, 0, 67, 64
4, 157440, Note_on_c, 0, 63, 40
4, 157440, Note_on_c, 0, 66, 40
4, 157440, Note_on_c, 0, 72, 40
4, 157920, Note_off_c, 0, 63, 64
4, 157920, Note_off_c, 0, 72, 64
4, 157920, Note_off_c, 0, 66, 64
4, 157920, Note_on_c, 0, 62, 40
4, 157920, Note_on_c, 0, 65, 40
4, 157920, Note_on_c, 0, 68, 40
4, 157920, Note_on_c, 0, 72, 40
4, 158400, Note_off_c, 0, 62, 64
4, 158400, Note_off_c, 0, 72, 64
4, 158400, Note_off_c, 0, 68, 64
4, 158400, Note_off_c, 0, 65, 64
4, 158400, Note_on_c, 0, 61, 40
4, 158400, Note_on_c, 0, 64, 40
4, 158400, Note_on_c, 0, 67, 40
4, 158400, Note_on_c, 0, 70, 40
4, 158880, Note_off_c, 0, 61, 64
4, 158880, Note_off_c, 0, 70, 64
4, 158880, Note_off_c, 0, 67, 64
4, 158880, Note_off_c, 0, 64, 64
4, 158880, Note_on_c, 0, 60, 40
4, 158880, Note_on_c, 0, 63, 40
4, 158880, Note_on_c, 0, 67, 40
4, 158880, Note_on_c, 0, 70, 40
4, 159360, Note_off_c, 0, 60, 64
4, 159360, Note_off_c, 0, 70, 64
4, 159360, Note_off_c, 0, 67, 64
4, 159360, Note_off_c, 0, 63, 64
4, 159360, Note_on_c, 0, 60, 40
4, 159360, Note_on_c, 0, 63, 40
4, 159360, Note_on_c, 0, 65, 40
4, 159360, Note_on_c, 0, 68, 40
4, 159600, Note_off_c, 0, 60, 64
4, 159600, Note_off_c, 0, 68, 64
4, 159600, Note_off_c, 0, 65, 64
4, 159600, Note_off_c, 0, 63, 64
4, 159600, Note_on_c, 0, 62, 40
4, 159600, Note_on_c, 0, 65, 40
4, 159600, Note_on_c, 0, 68, 40
4, 159840, Note_off_c, 0, 62, 64
4, 159840, Note_off_c, 0, 68, 64
4, 159840, Note_off_c, 0, 65, 64
4, 160080, Note_on_c, 0, 60, 40
4, 160080, Note_on_c, 0, 65, 40
4, 160080, Note_on_c, 0, 68, 40
4, 160320, Note_off_c, 0, 60, 64
4, 160320, Note_off_c, 0, 68, 64
4, 160320, Note_off_c, 0, 65, 64
4, 160320, Note_on_c, 0, 59, 40
4, 160320, Note_on_c, 0, 62, 40
4, 160320, Note_on_c, 0, 67, 40
4, 160800, Note_off_c, 0, 59, 64
4, 160800, Note_off_c, 0, 67, 64
4, 160800, Note_off_c, 0, 62, 64
4, 160800, Note_on_c, 0, 60, 40
4, 160800, Note_on_c, 0, 63, 40
4, 160800, Note_on_c, 0, 67, 40
4, 161040, Note_off_c, 0, 60, 64
4, 161040, Note_off_c, 0, 67, 64
4, 161040, Note_off_c, 0, 63, 64
4, 161040, Note_on_c, 0, 62, 40
4, 161040, Note_on_c, 0, 65, 40
4, 161040, Note_on_c, 0, 67, 40
4, 161280, Note_off_c, 0, 62, 64
4, 161280, Note_off_c, 0, 67, 64
4, 161280, Note_off_c, 0, 65, 64
4, 161280, Note_on_c, 0, 60, 40
4, 161280, Note_on_c, 0, 63, 40
4, 161280, Note_on_c, 0, 67, 40
4, 161760, Note_off_c, 0, 60, 64
4, 161760, Note_off_c, 0, 67, 64
4, 161760, Note_off_c, 0, 63, 64
4, 161760, Note_on_c, 0, 62, 40
4, 161760, Note_on_c, 0, 65, 40
4, 161760, Note_on_c, 0, 68, 40
4, 161760, Note_on_c, 0, 74, 40
4, 162000, Note_off_c, 0, 62, 64
4, 162000, Note_off_c, 0, 74, 64
4, 162000, Note_off_c, 0, 68, 64
4, 162000, Note_off_c, 0, 65, 64
4, 162000, Note_on_c, 0, 62, 40
4, 162000, Note_on_c, 0, 67, 40
4, 162000, Note_on_c, 0, 74, 40
4, 162240, Note_off_c, 0, 62, 64
4, 162240, Note_off_c, 0, 74, 64
4, 162240, Note_off_c, 0, 67, 64
4, 162240, Note_on_c, 0, 63, 40
4, 162240, Note_on_c, 0, 67, 40
4, 162240, Note_on_c, 0, 72, 40
4, 162720, Note_off_c, 0, 63, 64
4, 162720, Note_off_c, 0, 72, 64
4, 162720, Note_off_c, 0, 67, 64
4, 162720, Note_on_c, 0, 63, 40
4, 162720, Note_on_c, 0, 69, 40
4, 162720, Note_on_c, 0, 72, 40
4, 163200, Note_off_c, 0, 63, 64
4, 163200, Note_off_c, 0, 72, 64
4, 163200, Note_off_c, 0, 69, 64
4, 163200, Note_on_c, 0, 62, 40
4, 163200, Note_on_c, 0, 69, 40
4, 163200, Note_on_c, 0, 72, 40
4, 163680, Note_off_c, 0, 62, 64
4, 163680, Note_off_c, 0, 72, 64
4, 163680, Note_off_c, 0, 69, 64
4, 163680, Note_on_c, 0, 62, 40
4, 163680, Note_on_c, 0, 70, 40
4, 164160, Note_off_c, 0, 62, 64
4, 164160, Note_off_c, 0, 70, 64
4, 164160, Note_on_c, 0, 67, 40
4, 164160, Note_on_c, 0, 70, 40
4, 164160, Note_on_c, 0, 72, 40
4, 164640, Note_off_c, 0, 67, 64
4, 164640, Note_off_c, 0, 72, 64
4, 164640, Note_off_c, 0, 70, 64
4, 164640, Note_on_c, 0, 62, 40
4, 164640, Note_on_c, 0, 69, 40
4, 164640, Note_on_c, 0, 72, 40
4, 165120, Note_off_c, 0, 62, 64
4, 165120, Note_off_c, 0, 72, 64
4, 165120, Note_off_c, 0, 69, 64
4, 165120, Note_on_c, 0, 62, 40
4, 165120, Note_on_c, 0, 70, 40
4, 165360, Note_off_c, 0, 62, 64
4, 165360, Note_off_c, 0, 70, 64
4, 165360, Note_on_c, 0, 63, 40
4, 165360, Note_on_c, 0, 67, 40
4, 165360, Note_on_c, 0, 70, 40
4, 165600, Note_off_c, 0, 63, 64
4, 165600, Note_off_c, 0, 70, 64
4, 165600, Note_off_c, 0, 67, 64
4, 165600, Note_on_c, 0, 63, 40
4, 165600, Note_on_c, 0, 67, 40
4, 165600, Note_on_c, 0, 69, 40
4, 165840, Note_off_c, 0, 63, 64
4, 165840, Note_off_c, 0, 69, 64
4, 165840, Note_off_c, 0, 67, 64
4, 165840, Note_on_c, 0, 62, 40
4, 165840, Note_on_c, 0, 66, 40
4, 165840, Note_on_c, 0, 69, 40
4, 166080, Note_off_c, 0, 62, 64
4, 166080, Note_off_c, 0, 69, 64
4, 166080, Note_off_c, 0, 66, 64
4, 166080, Note_on_c, 0, 62, 40
4, 166080, Note_on_c, 0, 67, 40
4, 166080, Note_on_c, 0, 70, 40
4, 166320, Note_off_c, 0, 62, 64
4, 166320, Note_off_c, 0, 70, 64
4, 166320, Note_off_c, 0, 67, 64
4, 166320, Note_on_c, 0, 62, 40
4, 166320, Note_on_c, 0, 66, 40
4, 166320, Note_on_c, 0, 72, 40
4, 166560, Note_off_c, 0, 62, 64
4, 166560, Note_off_c, 0, 72, 64
4, 166560, Note_off_c, 0, 66, 64
4, 166560, Note_on_c, 0, 62, 40
4, 166560, Note_on_c, 0, 67, 40
4, 166560, Note_on_c, 0, 70, 40
4, 166800, Note_off_c, 0, 62, 64
4, 166800, Note_off_c, 0, 70, 64
4, 166800, Note_off_c, 0, 67, 64
4, 166800, Note_on_c, 0, 67, 40
4, 166800, Note_on_c, 0, 70, 40
4, 166800, Note_on_c, 0, 74, 40
4, 167040, Note_off_c, 0, 67, 64
4, 167040, Note_off_c, 0, 74, 64
4, 167040, Note_off_c, 0, 70, 64
4, 167040, Note_on_c, 0, 66, 40
4, 167040, Note_on_c, 0, 69, 40
4, 167040, Note_on_c, 0, 74, 40
4, 167520, Note_off_c, 0, 66, 64
4, 167520, Note_off_c, 0, 74, 64
4, 167520, Note_off_c, 0, 69, 64
4, 167520, Note_on_c, 0, 67, 40
4, 167520, Note_on_c, 0, 70, 40
4, 167520, Note_on_c, 0, 74, 40
4, 167760, Note_off_c, 0, 67, 64
4, 167760, Note_off_c, 0, 74, 64
4, 167760, Note_off_c, 0, 70, 64
4, 167760, Note_on_c, 0, 70, 40
4, 167760, Note_on_c, 0, 74, 40
4, 167760, Note_on_c, 0, 79, 40
4, 168000, Note_off_c, 0, 70, 64
4, 168000, Note_off_c, 0, 79, 64
4, 168000, Note_off_c, 0, 74, 64
4, 168000, Note_on_c, 0, 69, 40
4, 168000, Note_on_c, 0, 74, 40
4, 168000, Note_on_c, 0, 78, 40
4, 168480, Note_off_c, 0, 69, 64
4, 168480, Note_off_c, 0, 78, 64
4, 168480, Note_off_c, 0, 74, 64
4, 168720, Note_on_c, 0, 70, 40
4, 168720, Note_on_c, 0, 74, 40
4, 168720, Note_on_c, 0, 78, 40
4, 168960, Note_off_c, 0, 70, 64
4, 168960, Note_off_c, 0, 78, 64
4, 168960, Note_off_c, 0, 74, 64
4, 168960, Note_on_c, 0, 70, 40
4, 168960, Note_on_c, 0, 74, 40
4, 168960, Note_on_c, 0, 79, 40
4, 169440, Note_off_c, 0, 70, 64
4, 169440, Note_off_c, 0, 79, 64
4, 169440, Note_off_c, 0, 74, 64
4, 169680, Note_on_c, 0, 69, 40
4, 169680, Note_on_c, 0, 72, 40
4, 169680, Note_on_c, 0, 79, 40
4, 169920, Note_off_c, 0, 69, 64
4, 169920, Note_off_c, 0, 79, 64
4, 169920, Note_off_c, 0, 72, 64
4, 169920, Note_on_c, 0, 69, 40
4, 169920, Note_on_c, 0, 72, 40
4, 169920, Note_on_c, 0, 77, 40
4, 170400, Note_off_c, 0, 69, 64
4, 170400, Note_off_c, 0, 77, 64
4, 170400, Note_off_c, 0, 72, 64
4, 170640, Note_on_c, 0, 67, 40
4, 170640, Note_on_c, 0, 70, 40
4, 170640, Note_on_c, 0, 77, 40
4, 170880, Note_off_c, 0, 67, 64
4, 170880, Note_off_c, 0, 77, 64
4, 170880, Note_off_c, 0, 70, 64
4, 170880, Note_on_c, 0, 67, 40
4, 170880, Note_on_c, 0, 70, 40
4, 170880, Note_on_c, 0, 75, 40
4, 171360, Note_off_c, 0, 67, 64
4, 171360, Note_off_c, 0, 75, 64
4, 171360, Note_off_c, 0, 70, 64
4, 171600, Note_on_c, 0, 68, 40
4, 171600, Note_on_c, 0, 72, 40
4, 171600, Note_on_c, 0, 75, 40
4, 171840, Note_off_c, 0, 68, 64
4, 171840, Note_off_c, 0, 75, 64
4, 171840, Note_off_c, 0, 72, 64
4, 171840, Note_on_c, 0, 66, 40
4, 171840, Note_on_c, 0, 69, 40
4, 171840, Note_on_c, 0, 74, 40
4, 172320, Note_off_c, 0, 66, 64
4, 172320, Note_off_c, 0, 74, 64
4, 172320, Note_off_c, 0, 69, 64
4, 172320, Note_on_c, 0, 69, 40
4, 172320, Note_on_c, 0, 72, 40
4, 172320, Note_on_c, 0, 74, 40
4, 172800, Note_off_c, 0, 69, 64
4, 172800, Note_off_c, 0, 74, 64
4, 172800, Note_off_c, 0, 72, 64
4, 172800, Note_on_c, 0, 67, 40
4, 172800, Note_on_c, 0, 70, 40
4, 172800, Note_on_c, 0, 74, 40
4, 173280, Note_off_c, 0, 67, 64
4, 173280, Note_off_c, 0, 74, 64
4, 173280, Note_off_c, 0, 70, 64
4, 173280, Note_on_c, 0, 67, 40
4, 173280, Note_on_c, 0, 72, 40
4, 173280, Note_on_c, 0, 75, 40
4, 173520, Note_off_c, 0, 67, 64
4, 173520, Note_off_c, 0, 75, 64
4, 173520, Note_off_c, 0, 72, 64
4, 173520, Note_on_c, 0, 66, 40
4, 173520, Note_on_c, 0, 72, 40
4, 173520, Note_on_c, 0, 74, 40
4, 173760, Note_off_c, 0, 66, 64
4, 173760, Note_off_c, 0, 74, 64
4, 173760, Note_off_c, 0, 72, 64
4, 173760, Note_on_c, 0, 67, 40
4, 173760, Note_on_c, 0, 70, 40
4, 173760, Note_on_c, 0, 74, 40
4, 174240, Note_off_c, 0, 67, 64
4, 174240, Note_off_c, 0, 74, 64
4, 174240, Note_off_c, 0, 70, 64
4, 174240, Note_on_c, 0, 70, 40
4, 174240, Note_on_c, 0, 75, 40
4, 174240, Note_on_c, 0, 79, 40
4, 174720, Note_off_c, 0, 70, 64
4, 174720, Note_off_c, 0, 79, 64
4, 174720, Note_off_c, 0, 75, 64
4, 174720, Note_on_c, 0, 68, 40
4, 174720, Note_on_c, 0, 75, 40
4, 174720, Note_on_c, 0, 79, 40
4, 175200, Note_off_c, 0, 68, 64
4, 175200, Note_off_c, 0, 79, 64
4, 175200, Note_off_c, 0, 75, 64
4, 175200, Note_on_c, 0, 68, 40
4, 175200, Note_on_c, 0, 70, 40
4, 175200, Note_on_c, 0, 77, 40
4, 175680, Note_off_c, 0, 68, 64
4, 175680, Note_off_c, 0, 77, 64
4, 175680, Note_off_c, 0, 70, 64
4, 175680, Note_on_c, 0, 67, 40
4, 175680, Note_on_c, 0, 70, 40
4, 175680, Note_on_c, 0, 77, 40
4, 176160, Note_off_c, 0, 67, 64
4, 176160, Note_off_c, 0, 77, 64
4, 176160, Note_off_c, 0, 70, 64
4, 176160, Note_on_c, 0, 67, 40
4, 176160, Note_on_c, 0, 72, 40
4, 176160, Note_on_c, 0, 75, 40
4, 176640, Note_off_c, 0, 67, 64
4, 176640, Note_off_c, 0, 75, 64
4, 176640, Note_off_c, 0, 72, 64
4, 176640, Note_on_c, 0, 65, 40
4, 176640, Note_on_c, 0, 72, 40
4, 176640, Note_on_c, 0, 75, 40
4, 177120, Note_off_c, 0, 65, 64
4, 177120, Note_off_c, 0, 75, 64
4, 177120, Note_off_c, 0, 72, 64
4, 177120, Note_on_c, 0, 65, 40
4, 177120, Note_on_c, 0, 67, 40
4, 177120, Note_on_c, 0, 74, 40
4, 177600, Note_off_c, 0, 65, 64
4, 177600, Note_off_c, 0, 74, 64
4, 177600, Note_off_c, 0, 67, 64
4, 177600, Note_on_c, 0, 63, 40
4, 177600, Note_on_c, 0, 67, 40
4, 177600, Note_on_c, 0, 74, 40
4, 178080, Note_off_c, 0, 63, 64
4, 178080, Note_off_c, 0, 74, 64
4, 178080, Note_off_c, 0, 67, 64
4, 178080, Note_on_c, 0, 63, 40
4, 178080, Note_on_c, 0, 68, 40
4, 178080, Note_on_c, 0, 72, 40
4, 178560, Note_off_c, 0, 63, 64
4, 178560, Note_off_c, 0, 72, 64
4, 178560, Note_off_c, 0, 68, 64
4, 178560, Note_on_c, 0, 68, 40
4, 178560, Note_on_c, 0, 72, 40
4, 178560, Note_on_c, 0, 73, 40
4, 179040, Note_off_c, 0, 68, 64
4, 179040, Note_off_c, 0, 73, 64
4, 179040, Note_off_c, 0, 72, 64
4, 179040, Note_on_c, 0, 63, 40
4, 179040, Note_on_c, 0, 70, 40
4, 179040, Note_on_c, 0, 73, 40
4, 179520, Note_off_c, 0, 63, 64
4, 179520, Note_off_c, 0, 73, 64
4, 179520, Note_off_c, 0, 70, 64
4, 179520, Note_on_c, 0, 63, 40
4, 179520, Note_on_c, 0, 70, 40
4, 179520, Note_on_c, 0, 72, 40
4, 180000, Note_off_c, 0, 63, 64
4, 180000, Note_off_c, 0, 72, 64
4, 180000, Note_off_c, 0, 70, 64
4, 180000, Note_on_c, 0, 68, 40
4, 180000, Note_on_c, 0, 72, 40
4, 180000, Note_on_c, 0, 77, 40
4, 180480, Note_off_c, 0, 68, 64
4, 180480, Note_off_c, 0, 77, 64
4, 180480, Note_off_c, 0, 72, 64
4, 180480, Note_on_c, 0, 68, 40
4, 180480, Note_on_c, 0, 70, 40
4, 180480, Note_on_c, 0, 77, 40
4, 180960, Note_off_c, 0, 68, 64
4, 180960, Note_off_c, 0, 77, 64
4, 180960, Note_off_c, 0, 70, 64
4, 180960, Note_on_c, 0, 67, 40
4, 180960, Note_on_c, 0, 72, 40
4, 180960, Note_on_c, 0, 79, 40
4, 181440, Note_off_c, 0, 67, 64
4, 181440, Note_off_c, 0, 79, 64
4, 181440, Note_off_c, 0, 72, 64
4, 181440, Note_on_c, 0, 68, 40
4, 181440, Note_on_c, 0, 72, 40
4, 181440, Note_on_c, 0, 79, 40
4, 181680, Note_off_c, 0, 68, 64
4, 181680, Note_off_c, 0, 79, 64
4, 181680, Note_off_c, 0, 72, 64
4, 181680, Note_on_c, 0, 68, 40
4, 181680, Note_on_c, 0, 72, 40
4, 181680, Note_on_c, 0, 77, 40
4, 181920, Note_off_c, 0, 68, 64
4, 181920, Note_off_c, 0, 77, 64
4, 181920, Note_off_c, 0, 72, 64
4, 181920, Note_on_c, 0, 68, 40
4, 181920, Note_on_c, 0, 74, 40
4, 181920, Note_on_c, 0, 77, 40
4, 182400, Note_off_c, 0, 68, 64
4, 182400, Note_off_c, 0, 77, 64
4, 182400, Note_off_c, 0, 74, 64
4, 182400, Note_on_c, 0, 67, 40
4, 182400, Note_on_c, 0, 74, 40
4, 182400, Note_on_c, 0, 77, 40
4, 182880, Note_off_c, 0, 67, 64
4, 182880, Note_off_c, 0, 77, 64
4, 182880, Note_off_c, 0, 74, 64
4, 182880, Note_on_c, 0, 67, 40
4, 182880, Note_on_c, 0, 72, 40
4, 182880, Note_on_c, 0, 75, 40
4, 183360, Note_off_c, 0, 67, 64
4, 183360, Note_off_c, 0, 75, 64
4, 183360, Note_off_c, 0, 72, 64
4, 183360, Note_on_c, 0, 65, 40
4, 183360, Note_on_c, 0, 68, 40
4, 183360, Note_on_c, 0, 75, 40
4, 183600, Note_off_c, 0, 65, 64
4, 183600, Note_off_c, 0, 75, 64
4, 183600, Note_off_c, 0, 68, 64
4, 183600, Note_on_c, 0, 65, 40
4, 183600, Note_on_c, 0, 68, 40
4, 183600, Note_on_c, 0, 74, 40
4, 183840, Note_off_c, 0, 65, 64
4, 183840, Note_off_c, 0, 74, 64
4, 183840, Note_off_c, 0, 68, 64
4, 183840, Note_on_c, 0, 65, 40
4, 183840, Note_on_c, 0, 71, 40
4, 183840, Note_on_c, 0, 74, 40
4, 184320, Note_off_c, 0, 65, 64
4, 184320, Note_off_c, 0, 74, 64
4, 184320, Note_off_c, 0, 71, 64
4, 184320, Note_on_c, 0, 63, 40
4, 184320, Note_on_c, 0, 67, 40
4, 184320, Note_on_c, 0, 74, 40
4, 184560, Note_off_c, 0, 63, 64
4, 184560, Note_off_c, 0, 74, 64
4, 184560, Note_off_c, 0, 67, 64
4, 184560, Note_on_c, 0, 63, 40
4, 184560, Note_on_c, 0, 67, 40
4, 184560, Note_on_c, 0, 72, 40
4, 184800, Note_off_c, 0, 63, 64
4, 184800, Note_off_c, 0, 72, 64
4, 184800, Note_off_c, 0, 67, 64
4, 184800, Note_on_c, 0, 63, 40
4, 184800, Note_on_c, 0, 68, 40
4, 184800, Note_on_c, 0, 72, 40
4, 185280, Note_off_c, 0, 63, 64
4, 185280, Note_off_c, 0, 72, 64
4, 185280, Note_off_c, 0, 68, 64
4, 185280, Note_on_c, 0, 63, 40
4, 185280, Note_on_c, 0, 69, 40
4, 185280, Note_on_c, 0, 72, 40
4, 185760, Note_off_c, 0, 63, 64
4, 185760, Note_off_c, 0, 72, 64
4, 185760, Note_off_c, 0, 69, 64
4, 185760, Note_on_c, 0, 63, 40
4, 185760, Note_on_c, 0, 69, 40
4, 185760, Note_on_c, 0, 72, 40
4, 186240, Note_off_c, 0, 63, 64
4, 186240, Note_off_c, 0, 72, 64
4, 186240, Note_off_c, 0, 69, 64
4, 186240, Note_on_c, 0, 63, 40
4, 186240, Note_on_c, 0, 67, 40
4, 186240, Note_on_c, 0, 72, 40
4, 186480, Note_off_c, 0, 63, 64
4, 186480, Note_off_c, 0, 72, 64
4, 186480, Note_off_c, 0, 67, 64
4, 186480, Note_on_c, 0, 62, 40
4, 186480, Note_on_c, 0, 67, 40
4, 186480, Note_on_c, 0, 71, 40
4, 186720, Note_off_c, 0, 62, 64
4, 186720, Note_off_c, 0, 71, 64
4, 186720, Note_off_c, 0, 67, 64
4, 186720, Note_on_c, 0, 67, 40
4, 186720, Note_on_c, 0, 71, 40
4, 186720, Note_on_c, 0, 74, 40
4, 187200, Note_off_c, 0, 67, 64
4, 187200, Note_off_c, 0, 74, 64
4, 187200, Note_off_c, 0, 71, 64
4, 187200, Note_on_c, 0, 63, 40
4, 187200, Note_on_c, 0, 74, 40
4, 187200, Note_on_c, 0, 75, 40
4, 187680, Note_off_c, 0, 63, 64
4, 187680, Note_off_c, 0, 75, 64
4, 187680, Note_off_c, 0, 74, 64
4, 187680, Note_on_c, 0, 65, 40
4, 187680, Note_on_c, 0, 72, 40
4, 187680, Note_on_c, 0, 75, 40
4, 188160, Note_off_c, 0, 65, 64
4, 188160, Note_off_c, 0, 75, 64
4, 188160, Note_off_c, 0, 72, 64
4, 188160, Note_on_c, 0, 65, 40
4, 188160, Note_on_c, 0, 72, 40
4, 188160, Note_on_c, 0, 74, 40
4, 188640, Note_off_c, 0, 65, 64
4, 188640, Note_off_c, 0, 74, 64
4, 188640, Note_off_c, 0, 72, 64
4, 188640, Note_on_c, 0, 67, 40
4, 188640, Note_on_c, 0, 70, 40
4, 188640, Note_on_c, 0, 74, 40
4, 189120, Note_off_c, 0, 67, 64
4, 189120, Note_off_c, 0, 74, 64
4, 189120, Note_off_c, 0, 70, 64
4, 189120, Note_on_c, 0, 60, 40
4, 189120, Note_on_c, 0, 70, 40
4, 189120, Note_on_c, 0, 72, 40
4, 189600, Note_off_c, 0, 60, 64
4, 189600, Note_off_c, 0, 72, 64
4, 189600, Note_off_c, 0, 70, 64
4, 189600, Note_on_c, 0, 62, 40
4, 189600, Note_on_c, 0, 69, 40
4, 189600, Note_on_c, 0, 72, 40
4, 190080, Note_off_c, 0, 62, 64
4, 190080, Note_off_c, 0, 72, 64
4, 190080, Note_off_c, 0, 69, 64
4, 190080, Note_on_c, 0, 62, 40
4, 190080, Note_on_c, 0, 69, 40
4, 190080, Note_on_c, 0, 70, 40
4, 190560, Note_off_c, 0, 62, 64
4, 190560, Note_off_c, 0, 70, 64
4, 190560, Note_off_c, 0, 69, 64
4, 190560, Note_on_c, 0, 63, 40
4, 190560, Note_on_c, 0, 67, 40
4, 190560, Note_on_c, 0, 70, 40
4, 191040, Note_off_c, 0, 63, 64
4, 191040, Note_off_c, 0, 70, 64
4, 191040, Note_off_c, 0, 67, 64
4, 191040, Note_on_c, 0, 63, 40
4, 191040, Note_on_c, 0, 67, 40
4, 191040, Note_on_c, 0, 72, 40
4, 191520, Note_off_c, 0, 63, 64
4, 191520, Note_off_c, 0, 72, 64
4, 191520, Note_off_c, 0, 67, 64
4, 191520, Note_on_c, 0, 62, 40
4, 191520, Note_on_c, 0, 67, 40
4, 191520, Note_on_c, 0, 71, 40
4, 192000, Note_off_c, 0, 62, 64
4, 192000, Note_off_c, 0, 71, 64
4, 192000, Note_off_c, 0, 67, 64
4, 192000, Note_on_c, 0, 60, 40
4, 192000, Note_on_c, 0, 67, 40
4, 192000, Note_on_c, 0, 72, 40
4, 192720, Note_off_c, 0, 60, 64
4, 192720, Note_off_c, 0, 72, 64
4, 192720, Note_off_c, 0, 67, 64
4, 192720, Note_on_c, 0, 62, 40
4, 192720, Note_on_c, 0, 67, 40
4, 192720, Note_on_c, 0, 70, 40
4, 192960, Note_off_c, 0, 62, 64
4, 192960, Note_off_c, 0, 70, 64
4, 192960, Note_off_c, 0, 67, 64
4, 192960, Note_on_c, 0, 64, 40
4, 192960, Note_on_c, 0, 67, 40
4, 192960, Note_on_c, 0, 70, 40
4, 193440, Note_off_c, 0, 64, 64
4, 193440, Note_off_c, 0, 70, 64
4, 193440, Note_off_c, 0, 67, 64
4, 193440, Note_on_c, 0, 61, 40
4, 193440, Note_on_c, 0, 67, 40
4, 193440, Note_on_c, 0, 69, 40
4, 193920, Note_off_c, 0, 61, 64
4, 193920, Note_off_c, 0, 69, 64
4, 193920, Note_off_c, 0, 67, 64
4, 193920, Note_on_c, 0, 62, 40
4, 193920, Note_on_c, 0, 67, 40
4, 193920, Note_on_c, 0, 69, 40
4, 194160, Note_off_c, 0, 62, 64
4, 194160, Note_off_c, 0, 69, 64
4, 194160, Note_off_c, 0, 67, 64
4, 194160, Note_on_c, 0, 62, 40
4, 194160, Note_on_c, 0, 66, 40
4, 194160, Note_on_c, 0, 69, 40
4, 194400, Note_off_c, 0, 62, 64
4, 194400, Note_off_c, 0, 69, 64
4, 194400, Note_off_c, 0, 66, 64
4, 194640, Note_on_c, 0, 69, 40
4, 194640, Note_on_c, 0, 72, 40
4, 194640, Note_on_c, 0, 74, 40
4, 194880, Note_off_c, 0, 69, 64
4, 194880, Note_off_c, 0, 74, 64
4, 194880, Note_off_c, 0, 72, 64
4, 194880, Note_on_c, 0, 67, 40
4, 194880, Note_on_c, 0, 70, 40
4, 194880, Note_on_c, 0, 74, 40
4, 195120, Note_off_c, 0, 67, 64
4, 195120, Note_off_c, 0, 74, 64
4, 195120, Note_off_c, 0, 70, 64
4, 195120, Note_on_c, 0, 67, 40
4, 195120, Note_on_c, 0, 70, 40
4, 195120, Note_on_c, 0, 72, 40
4, 195360, Note_off_c, 0, 67, 64
4, 195360, Note_off_c, 0, 72, 64
4, 195360, Note_off_c, 0, 70, 64
4, 195360, Note_on_c, 0, 65, 40
4, 195360, Note_on_c, 0, 69, 40
4, 195360, Note_on_c, 0, 72, 40
4, 195600, Note_off_c, 0, 65, 64
4, 195600, Note_off_c, 0, 72, 64
4, 195600, Note_off_c, 0, 69, 64
4, 195600, Note_on_c, 0, 65, 40
4, 195600, Note_on_c, 0, 69, 40
4, 195600, Note_on_c, 0, 70, 40
4, 195840, Note_off_c, 0, 65, 64
4, 195840, Note_off_c, 0, 70, 64
4, 195840, Note_off_c, 0, 69, 64
4, 195840, Note_on_c, 0, 63, 40
4, 195840, Note_on_c, 0, 67, 40
4, 195840, Note_on_c, 0, 70, 40
4, 196080, Note_off_c, 0, 63, 64
4, 196080, Note_off_c, 0, 70, 64
4, 196080, Note_off_c, 0, 67, 64
4, 196080, Note_on_c, 0, 63, 40
4, 196080, Note_on_c, 0, 67, 40
4, 196080, Note_on_c, 0, 69, 40
4, 196320, Note_off_c, 0, 63, 64
4, 196320, Note_off_c, 0, 69, 64
4, 196320, Note_off_c, 0, 67, 64
4, 196320, Note_on_c, 0, 62, 40
4, 196320, Note_on_c, 0, 66, 40
4, 196320, Note_on_c, 0, 72, 40
4, 196800, Note_off_c, 0, 62, 64
4, 196800, Note_off_c, 0, 72, 64
4, 196800, Note_off_c, 0, 66, 64
4, 196800, Note_on_c, 0, 67, 40
4, 196800, Note_on_c, 0, 70, 40
4, 197040, Note_off_c, 0, 67, 64
4, 197040, Note_off_c, 0, 70, 64
4, 197040, Note_on_c, 0, 63, 40
4, 197040, Note_on_c, 0, 69, 40
4, 197040, Note_on_c, 0, 70, 40
4, 197280, Note_off_c, 0, 63, 64
4, 197280, Note_off_c, 0, 70, 64
4, 197280, Note_off_c, 0, 69, 64
4, 197280, Note_on_c, 0, 62, 40
4, 197280, Note_on_c, 0, 66, 40
4, 197280, Note_on_c, 0, 69, 40
4, 197760, Note_off_c, 0, 62, 64
4, 197760, Note_off_c, 0, 69, 64
4, 197760, Note_off_c, 0, 66, 64
4, 197760, Note_on_c, 0, 58, 40
4, 197760, Note_on_c, 0, 67, 40
4, 198240, Note_off_c, 0, 58, 64
4, 198240, Note_off_c, 0, 67, 64
4, 198960, Note_on_c, 0, 62, 40
4, 198960, Note_on_c, 0, 67, 40
4, 198960, Note_on_c, 0, 70, 40
4, 199200, Note_off_c, 0, 62, 64
4, 199200, Note_off_c, 0, 70, 64
4, 199200, Note_off_c, 0, 67, 64
4, 199200, Note_on_c, 0, 62, 40
4, 199200, Note_on_c, 0, 69, 40
4, 199200, Note_on_c, 0, 74, 40
4, 199440, Note_off_c, 0, 62, 64
4, 199440, Note_off_c, 0, 74, 64
4, 199440, Note_off_c, 0, 69, 64
4, 199440, Note_on_c, 0, 66, 40
4, 199440, Note_on_c, 0, 69, 40
4, 199440, Note_on_c, 0, 74, 40
4, 199680, Note_off_c, 0, 66, 64
4, 199680, Note_off_c, 0, 74, 64
4, 199680, Note_off_c, 0, 69, 64
4, 199680, Note_on_c, 0, 67, 40
4, 199680, Note_on_c, 0, 70, 40
4, 199680, Note_on_c, 0, 74, 40
4, 200640, Note_off_c, 0, 67, 64
4, 200640, Note_off_c, 0, 74, 64
4, 200640, Note_off_c, 0, 70, 64
4, 200640, Note_on_c, 0, 66, 40
4, 200640, Note_on_c, 0, 69, 40
4, 200640, Note_on_c, 0, 74, 40
4, 201120, Note_off_c, 0, 66, 64
4, 201120, Note_off_c, 0, 74, 64
4, 201120, Note_off_c, 0, 69, 64
4, 201120, Note_on_c, 0, 67, 40
4, 201120, Note_on_c, 0, 74, 40
4, 201360, Note_off_c, 0, 67, 64
4, 201360, Note_off_c, 0, 74, 64
4, 201360, Note_on_c, 0, 67, 40
4, 201360, Note_on_c, 0, 70, 40
4, 201360, Note_on_c, 0, 73, 40
4, 201600, Note_off_c, 0, 67, 64
4, 201600, Note_off_c, 0, 73, 64
4, 201600, Note_off_c, 0, 70, 64
4, 201600, Note_on_c, 0, 62, 40
4, 201600, Note_on_c, 0, 69, 40
4, 201600, Note_on_c, 0, 74, 40
4, 202080, Note_off_c, 0, 62, 64
4, 202080, Note_off_c, 0, 74, 64
4, 202080, Note_off_c, 0, 69, 64
4, 202320, Note_on_c, 0, 62, 40
4, 202320, Note_on_c, 0, 66, 40
4, 202320, Note_on_c, 0, 70, 40
4, 202560, Note_off_c, 0, 62, 64
4, 202560, Note_off_c, 0, 70, 64
4, 202560, Note_off_c, 0, 66, 64
4, 202560, Note_on_c, 0, 64, 40
4, 202560, Note_on_c, 0, 67, 40
4, 202560, Note_on_c, 0, 70, 40
4, 202800, Note_off_c, 0, 64, 64
4, 202800, Note_off_c, 0, 70, 64
4, 202800, Note_off_c, 0, 67, 64
4, 202800, Note_on_c, 0, 64, 40
4, 202800, Note_on_c, 0, 67, 40
4, 202800, Note_on_c, 0, 69, 40
4, 203040, Note_off_c, 0, 64, 64
4, 203040, Note_off_c, 0, 69, 64
4, 203040, Note_off_c, 0, 67, 64
4, 203040, Note_on_c, 0, 63, 40
4, 203040, Note_on_c, 0, 68, 40
4, 203040, Note_on_c, 0, 72, 40
4, 203520, Note_off_c, 0, 63, 64
4, 203520, Note_off_c, 0, 72, 64
4, 203520, Note_off_c, 0, 68, 64
4, 203520, Note_on_c, 0, 62, 40
4, 203520, Note_on_c, 0, 68, 40
4, 203520, Note_on_c, 0, 74, 40
4, 203760, Note_off_c, 0, 62, 64
4, 203760, Note_off_c, 0, 74, 64
4, 203760, Note_off_c, 0, 68, 64
4, 203760, Note_on_c, 0, 62, 40
4, 203760, Note_on_c, 0, 67, 40
4, 203760, Note_on_c, 0, 74, 40
4, 204000, Note_off_c, 0, 62, 64
4, 204000, Note_off_c, 0, 74, 64
4, 204000, Note_off_c, 0, 67, 64
4, 204000, Note_on_c, 0, 62, 40
4, 204000, Note_on_c, 0, 67, 40
4, 204000, Note_on_c, 0, 74, 40
4, 204480, Note_off_c, 0, 62, 64
4, 204480, Note_off_c, 0, 74, 64
4, 204480, Note_off_c, 0, 67, 64
4, 204480, Note_on_c, 0, 63, 40
4, 204480, Note_on_c, 0, 67, 40
4, 204480, Note_on_c, 0, 72, 40
4, 204720, Note_off_c, 0, 63, 64
4, 204720, Note_off_c, 0, 72, 64
4, 204720, Note_off_c, 0, 67, 64
4, 204720, Note_on_c, 0, 63, 40
4, 204720, Note_on_c, 0, 66, 40
4, 204720, Note_on_c, 0, 72, 40
4, 204960, Note_off_c, 0, 63, 64
4, 204960, Note_off_c, 0, 72, 64
4, 204960, Note_off_c, 0, 66, 64
4, 204960, Note_on_c, 0, 63, 40
4, 204960, Note_on_c, 0, 67, 40
4, 204960, Note_on_c, 0, 72, 40
4, 205440, Note_off_c, 0, 63, 64
4, 205440, Note_off_c, 0, 72, 64
4, 205440, Note_off_c, 0, 67, 64
4, 205440, Note_on_c, 0, 62, 40
4, 205440, Note_on_c, 0, 69, 40
4, 205440, Note_on_c, 0, 72, 40
4, 205920, Note_off_c, 0, 62, 64
4, 205920, Note_off_c, 0, 72, 64
4, 205920, Note_off_c, 0, 69, 64
4, 205920, Note_on_c, 0, 62, 40
4, 205920, Note_on_c, 0, 67, 40
4, 205920, Note_on_c, 0, 70, 40
4, 206160, Note_off_c, 0, 62, 64
4, 206160, Note_off_c, 0, 70, 64
4, 206160, Note_off_c, 0, 67, 64
4, 206160, Note_on_c, 0, 62, 40
4, 206160, Note_on_c, 0, 66, 40
4, 206160, Note_on_c, 0, 69, 40
4, 206400, Note_off_c, 0, 62, 64
4, 206400, Note_off_c, 0, 69, 64
4, 206400, Note_off_c, 0, 66, 64
4, 206400, Note_on_c, 0, 62, 40
4, 206400, Note_on_c, 0, 67, 40
4, 206400, Note_on_c, 0, 74, 40
4, 206880, Note_off_c, 0, 62, 64
4, 206880, Note_off_c, 0, 74, 64
4, 206880, Note_off_c, 0, 67, 64
4, 206880, Note_on_c, 0, 63, 40
4, 206880, Note_on_c, 0, 67, 40
4, 206880, Note_on_c, 0, 72, 40
4, 207120, Note_off_c, 0, 63, 64
4, 207120, Note_off_c, 0, 72, 64
4, 207120, Note_off_c, 0, 67, 64
4, 207120, Note_on_c, 0, 62, 40
4, 207120, Note_on_c, 0, 66, 40
4, 207120, Note_on_c, 0, 72, 40
4, 207360, Note_off_c, 0, 62, 64
4, 207360, Note_off_c, 0, 72, 64
4, 207360, Note_off_c, 0, 66, 64
4, 207360, Note_on_c, 0, 62, 40
4, 207360, Note_on_c, 0, 67, 40
4, 207360, Note_on_c, 0, 70, 40
4, 207840, Note_off_c, 0, 62, 64
4, 207840, Note_off_c, 0, 70, 64
4, 207840, Note_off_c, 0, 67, 64
4, 207840, Note_on_c, 0, 70, 40
4, 207840, Note_on_c, 0, 74, 40
4, 207840, Note_on_c, 0, 79, 40
4, 208320, Note_off_c, 0, 70, 64
4, 208320, Note_off_c, 0, 79, 64
4, 208320, Note_off_c, 0, 74, 64
4, 208320, Note_on_c, 0, 68, 40
4, 208320, Note_on_c, 0, 75, 40
4, 208320, Note_on_c, 0, 79, 40
4, 208800, Note_off_c, 0, 68, 64
4, 208800, Note_off_c, 0, 79, 64
4, 208800, Note_off_c, 0, 75, 64
4, 208800, Note_on_c, 0, 68, 40
4, 208800, Note_on_c, 0, 70, 40
4, 208800, Note_on_c, 0, 77, 40
4, 209280, Note_off_c, 0, 68, 64
4, 209280, Note_off_c, 0, 77, 64
4, 209280, Note_off_c, 0, 70, 64
4, 209280, Note_on_c, 0, 67, 40
4, 209280, Note_on_c, 0, 70, 40
4, 209280, Note_on_c, 0, 77, 40
4, 209760, Note_off_c, 0, 67, 64
4, 209760, Note_off_c, 0, 77, 64
4, 209760, Note_off_c, 0, 70, 64
4, 209760, Note_on_c, 0, 67, 40
4, 209760, Note_on_c, 0, 72, 40
4, 209760, Note_on_c, 0, 79, 40
4, 210240, Note_off_c, 0, 67, 64
4, 210240, Note_off_c, 0, 79, 64
4, 210240, Note_off_c, 0, 72, 64
4, 210240, Note_on_c, 0, 68, 40
4, 210240, Note_on_c, 0, 72, 40
4, 210240, Note_on_c, 0, 77, 40
4, 210720, Note_off_c, 0, 68, 64
4, 210720, Note_off_c, 0, 77, 64
4, 210720, Note_off_c, 0, 72, 64
4, 210720, Note_on_c, 0, 68, 40
4, 210720, Note_on_c, 0, 72, 40
4, 210720, Note_on_c, 0, 74, 40
4, 210720, Note_on_c, 0, 77, 40
4, 211200, Note_off_c, 0, 68, 64
4, 211200, Note_off_c, 0, 77, 64
4, 211200, Note_off_c, 0, 74, 64
4, 211200, Note_off_c, 0, 72, 64
4, 211200, Note_on_c, 0, 67, 40
4, 211200, Note_on_c, 0, 71, 40
4, 211200, Note_on_c, 0, 74, 40
4, 211200, Note_on_c, 0, 77, 40
4, 211680, Note_off_c, 0, 67, 64
4, 211680, Note_off_c, 0, 77, 64
4, 211680, Note_off_c, 0, 74, 64
4, 211680, Note_off_c, 0, 71, 64
4, 211680, Note_on_c, 0, 67, 40
4, 211680, Note_on_c, 0, 74, 40
4, 211680, Note_on_c, 0, 77, 40
4, 212160, Note_off_c, 0, 67, 64
4, 212160, Note_off_c, 0, 77, 64
4, 212160, Note_off_c, 0, 74, 64
4, 212160, Note_on_c, 0, 67, 40
4, 212160, Note_on_c, 0, 74, 40
4, 212160, Note_on_c, 0, 75, 40
4, 212640, Note_off_c, 0, 67, 64
4, 212640, Note_off_c, 0, 75, 64
4, 212640, Note_off_c, 0, 74, 64
4, 212640, Note_on_c, 0, 68, 40
4, 212640, Note_on_c, 0, 72, 40
4, 212640, Note_on_c, 0, 75, 40
4, 213120, Note_off_c, 0, 68, 64
4, 213120, Note_off_c, 0, 75, 64
4, 213120, Note_off_c, 0, 72, 64
4, 213120, Note_on_c, 0, 68, 40
4, 213120, Note_on_c, 0, 72, 40
4, 213120, Note_on_c, 0, 73, 40
4, 213600, Note_off_c, 0, 68, 64
4, 213600, Note_off_c, 0, 73, 64
4, 213600, Note_off_c, 0, 72, 64
4, 213600, Note_on_c, 0, 63, 40
4, 213600, Note_on_c, 0, 70, 40
4, 213600, Note_on_c, 0, 73, 40
4, 214080, Note_off_c, 0, 63, 64
4, 214080, Note_off_c, 0, 73, 64
4, 214080, Note_off_c, 0, 70, 64
4, 214080, Note_on_c, 0, 63, 40
4, 214080, Note_on_c, 0, 70, 40
4, 214080, Note_on_c, 0, 72, 40
4, 214560, Note_off_c, 0, 63, 64
4, 214560, Note_off_c, 0, 72, 64
4, 214560, Note_off_c, 0, 70, 64
4, 214560, Note_on_c, 0, 68, 40
4, 214560, Note_on_c, 0, 72, 40
4, 214560, Note_on_c, 0, 77, 40
4, 215040, Note_off_c, 0, 68, 64
4, 215040, Note_off_c, 0, 77, 64
4, 215040, Note_off_c, 0, 72, 64
4, 215040, Note_on_c, 0, 68, 40
4, 215040, Note_on_c, 0, 70, 40
4, 215040, Note_on_c, 0, 77, 40
4, 215520, Note_off_c, 0, 68, 64
4, 215520, Note_off_c, 0, 77, 64
4, 215520, Note_off_c, 0, 70, 64
4, 215520, Note_on_c, 0, 67, 40
4, 215520, Note_on_c, 0, 70, 40
4, 215520, Note_on_c, 0, 72, 40
4, 216000, Note_off_c, 0, 67, 64
4, 216000, Note_off_c, 0, 72, 64
4, 216000, Note_off_c, 0, 70, 64
4, 216000, Note_on_c, 0, 67, 40
4, 216000, Note_on_c, 0, 68, 40
4, 216000, Note_on_c, 0, 72, 40
4, 216480, Note_off_c, 0, 67, 64
4, 216480, Note_off_c, 0, 72, 64
4, 216480, Note_off_c, 0, 68, 64
4, 216480, Note_on_c, 0, 65, 40
4, 216480, Note_on_c, 0, 68, 40
4, 216480, Note_on_c, 0, 77, 40
4, 216960, Note_off_c, 0, 65, 64
4, 216960, Note_off_c, 0, 77, 64
4, 216960, Note_off_c, 0, 68, 64
4, 216960, Note_on_c, 0, 67, 40
4, 216960, Note_on_c, 0, 74, 40
4, 216960, Note_on_c, 0, 77, 40
4, 217440, Note_off_c, 0, 67, 64
4, 217440, Note_off_c, 0, 77, 64
4, 217440, Note_off_c, 0, 74, 64
4, 217440, Note_on_c, 0, 67, 40
4, 217440, Note_on_c, 0, 75, 40
4, 217920, Note_off_c, 0, 67, 64
4, 217920, Note_off_c, 0, 75, 64
4, 217920, Note_on_c, 0, 65, 40
4, 217920, Note_on_c, 0, 72, 40
4, 217920, Note_on_c, 0, 75, 40
4, 218400, Note_off_c, 0, 65, 64
4, 218400, Note_off_c, 0, 75, 64
4, 218400, Note_off_c, 0, 72, 64
4, 218400, Note_on_c, 0, 65, 40
4, 218400, Note_on_c, 0, 67, 40
4, 218400, Note_on_c, 0, 74, 40
4, 218880, Note_off_c, 0, 65, 64
4, 218880, Note_off_c, 0, 74, 64
4, 218880, Note_off_c, 0, 67, 64
4, 218880, Note_on_c, 0, 63, 40
4, 218880, Note_on_c, 0, 67, 40
4, 218880, Note_on_c, 0, 72, 40
4, 219120, Note_off_c, 0, 63, 64
4, 219120, Note_off_c, 0, 72, 64
4, 219120, Note_off_c, 0, 67, 64
4, 219120, Note_on_c, 0, 63, 40
4, 219120, Note_on_c, 0, 68, 40
4, 219120, Note_on_c, 0, 72, 40
4, 219360, Note_off_c, 0, 63, 64
4, 219360, Note_off_c, 0, 72, 64
4, 219360, Note_off_c, 0, 68, 64
4, 219360, Note_on_c, 0, 62, 40
4, 219360, Note_on_c, 0, 68, 40
4, 219360, Note_on_c, 0, 72, 40
4, 219600, Note_off_c, 0, 62, 64
4, 219600, Note_off_c, 0, 72, 64
4, 219600, Note_off_c, 0, 68, 64
4, 219600, Note_on_c, 0, 62, 40
4, 219600, Note_on_c, 0, 67, 40
4, 219600, Note_on_c, 0, 71, 40
4, 219840, Note_off_c, 0, 62, 64
4, 219840, Note_off_c, 0, 71, 64
4, 219840, Note_off_c, 0, 67, 64
4, 219840, Note_on_c, 0, 63, 40
4, 219840, Note_on_c, 0, 67, 40
4, 219840, Note_on_c, 0, 72, 40
4, 220320, Note_off_c, 0, 63, 64
4, 220320, Note_off_c, 0, 72, 64
4, 220320, Note_off_c, 0, 67, 64
4, 220320, Note_on_c, 0, 72, 40
4, 220320, Note_on_c, 0, 79, 40
4, 220800, Note_off_c, 0, 72, 64
4, 220800, Note_off_c, 0, 79, 64
4, 220800, Note_on_c, 0, 71, 40
4, 220800, Note_on_c, 0, 74, 40
4, 220800, Note_on_c, 0, 79, 40
4, 221280, Note_off_c, 0, 71, 64
4, 221280, Note_off_c, 0, 79, 64
4, 221280, Note_off_c, 0, 74, 64
4, 221280, Note_on_c, 0, 72, 40
4, 221280, Note_on_c, 0, 74, 40
4, 221280, Note_on_c, 0, 79, 40
4, 221520, Note_off_c, 0, 72, 64
4, 221520, Note_off_c, 0, 79, 64
4, 221520, Note_off_c, 0, 74, 64
4, 221520, Note_on_c, 0, 72, 40
4, 221520, Note_on_c, 0, 75, 40
4, 221520, Note_on_c, 0, 78, 40
4, 221760, Note_off_c, 0, 72, 64
4, 221760, Note_off_c, 0, 78, 64
4, 221760, Note_off_c, 0, 75, 64
4, 221760, Note_on_c, 0, 67, 40
4, 221760, Note_on_c, 0, 74, 40
4, 221760, Note_on_c, 0, 79, 40
4, 222240, Note_off_c, 0, 67, 64
4, 222240, Note_off_c, 0, 79, 64
4, 222240, Note_off_c, 0, 74, 64
4, 222480, Note_on_c, 0, 67, 40
4, 222480, Note_on_c, 0, 71, 40
4, 222480, Note_on_c, 0, 75, 40
4, 222720, Note_off_c, 0, 67, 64
4, 222720, Note_off_c, 0, 75, 64
4, 222720, Note_off_c, 0, 71, 64
4, 222720, Note_on_c, 0, 69, 40
4, 222720, Note_on_c, 0, 72, 40
4, 222720, Note_on_c, 0, 75, 40
4, 222960, Note_off_c, 0, 69, 64
4, 222960, Note_off_c, 0, 75, 64
4, 222960, Note_off_c, 0, 72, 64
4, 222960, Note_on_c, 0, 69, 40
4, 222960, Note_on_c, 0, 72, 40
4, 222960, Note_on_c, 0, 74, 40
4, 223200, Note_off_c, 0, 69, 64
4, 223200, Note_off_c, 0, 74, 64
4, 223200, Note_off_c, 0, 72, 64
4, 223200, Note_on_c, 0, 68, 40
4, 223200, Note_on_c, 0, 73, 40
4, 223200, Note_on_c, 0, 77, 40
4, 223680, Note_off_c, 0, 68, 64
4, 223680, Note_off_c, 0, 77, 64
4, 223680, Note_off_c, 0, 73, 64
4, 223680, Note_on_c, 0, 67, 40
4, 223680, Note_on_c, 0, 73, 40
4, 223680, Note_on_c, 0, 79, 40
4, 223920, Note_off_c, 0, 67, 64
4, 223920, Note_off_c, 0, 79, 64
4, 223920, Note_off_c, 0, 73, 64
4, 223920, Note_on_c, 0, 67, 40
4, 223920, Note_on_c, 0, 72, 40
4, 223920, Note_on_c, 0, 79, 40
4, 224160, Note_off_c, 0, 67, 64
4, 224160, Note_off_c, 0, 79, 64
4, 224160, Note_off_c, 0, 72, 64
4, 224160, Note_on_c, 0, 67, 40
4, 224160, Note_on_c, 0, 72, 40
4, 224160, Note_on_c, 0, 79, 40
4, 224640, Note_off_c, 0, 67, 64
4, 224640, Note_off_c, 0, 79, 64
4, 224640, Note_off_c, 0, 72, 64
4, 224640, Note_on_c, 0, 68, 40
4, 224640, Note_on_c, 0, 72, 40
4, 224640, Note_on_c, 0, 77, 40
4, 224880, Note_off_c, 0, 68, 64
4, 224880, Note_off_c, 0, 77, 64
4, 224880, Note_off_c, 0, 72, 64
4, 224880, Note_on_c, 0, 68, 40
4, 224880, Note_on_c, 0, 71, 40
4, 224880, Note_on_c, 0, 77, 40
4, 225120, Note_off_c, 0, 68, 64
4, 225120, Note_off_c, 0, 77, 64
4, 225120, Note_off_c, 0, 71, 64
4, 225120, Note_on_c, 0, 65, 40
4, 225120, Note_on_c, 0, 70, 40
4, 225120, Note_on_c, 0, 77, 40
4, 225360, Note_off_c, 0, 65, 64
4, 225360, Note_off_c, 0, 77, 64
4, 225360, Note_off_c, 0, 70, 64
4, 225360, Note_on_c, 0, 65, 40
4, 225360, Note_on_c, 0, 68, 40
4, 225360, Note_on_c, 0, 77, 40
4, 225600, Note_off_c, 0, 65, 64
4, 225600, Note_off_c, 0, 77, 64
4, 225600, Note_off_c, 0, 68, 64
4, 225600, Note_on_c, 0, 65, 40
4, 225600, Note_on_c, 0, 67, 40
4, 225600, Note_on_c, 0, 74, 40
4, 226080, Note_off_c, 0, 65, 64
4, 226080, Note_off_c, 0, 74, 64
4, 226080, Note_off_c, 0, 67, 64
4, 226080, Note_on_c, 0, 63, 40
4, 226080, Note_on_c, 0, 67, 40
4, 226080, Note_on_c, 0, 72, 40
4, 226320, Note_off_c, 0, 63, 64
4, 226320, Note_off_c, 0, 72, 64
4, 226320, Note_off_c, 0, 67, 64
4, 226320, Note_on_c, 0, 62, 40
4, 226320, Note_on_c, 0, 67, 40
4, 226320, Note_on_c, 0, 71, 40
4, 226560, Note_off_c, 0, 62, 64
4, 226560, Note_off_c, 0, 71, 64
4, 226560, Note_off_c, 0, 67, 64
4, 226560, Note_on_c, 0, 63, 40
4, 226560, Note_on_c, 0, 67, 40
4, 226560, Note_on_c, 0, 72, 40
4, 227040, Note_off_c, 0, 63, 64
4, 227040, Note_off_c, 0, 72, 64
4, 227040, Note_off_c, 0, 67, 64
4, 227040, Note_on_c, 0, 62, 40
4, 227040, Note_on_c, 0, 65, 40
4, 227040, Note_on_c, 0, 72, 40
4, 227280, Note_off_c, 0, 62, 64
4, 227280, Note_off_c, 0, 72, 64
4, 227280, Note_off_c, 0, 65, 64
4, 227280, Note_on_c, 0, 62, 40
4, 227280, Note_on_c, 0, 65, 40
4, 227280, Note_on_c, 0, 71, 40
4, 227520, Note_off_c, 0, 62, 64
4, 227520, Note_off_c, 0, 71, 64
4, 227520, Note_off_c, 0, 65, 64
4, 227520, Note_on_c, 0, 60, 40
4, 227520, Note_on_c, 0, 63, 40
4, 227520, Note_on_c, 0, 72, 40
4, 228000, Note_off_c, 0, 60, 64
4, 228000, Note_off_c, 0, 72, 64
4, 228000, Note_off_c, 0, 63, 64
4, 228000, Note_on_c, 0, 67, 40
4, 228000, Note_on_c, 0, 72, 40
4, 228480, Note_off_c, 0, 67, 64
4, 228480, Note_off_c, 0, 72, 64
4, 228480, Note_on_c, 0, 67, 40
4, 228480, Note_on_c, 0, 68, 40
4, 228480, Note_on_c, 0, 72, 40
4, 228960, Note_off_c, 0, 67, 64
4, 228960, Note_off_c, 0, 72, 64
4, 228960, Note_off_c, 0, 68, 64
4, 228960, Note_on_c, 0, 65, 40
4, 228960, Note_on_c, 0, 70, 40
4, 228960, Note_on_c, 0, 77, 40
4, 229440, Note_off_c, 0, 65, 64
4, 229440, Note_off_c, 0, 77, 64
4, 229440, Note_off_c, 0, 70, 64
4, 229440, Note_on_c, 0, 67, 40
4, 229440, Note_on_c, 0, 70, 40
4, 229440, Note_on_c, 0, 77, 40
4, 229920, Note_off_c, 0, 67, 64
4, 229920, Note_off_c, 0, 77, 64
4, 229920, Note_off_c, 0, 70, 64
4, 229920, Note_on_c, 0, 67, 40
4, 229920, Note_on_c, 0, 72, 40
4, 229920, Note_on_c, 0, 75, 40
4, 230400, Note_off_c, 0, 67, 64
4, 230400, Note_off_c, 0, 75, 64
4, 230400, Note_off_c, 0, 72, 64
4, 230400, Note_on_c, 0, 65, 40
4, 230400, Note_on_c, 0, 75, 40
4, 230400, Note_on_c, 0, 77, 40
4, 230880, Note_off_c, 0, 65, 64
4, 230880, Note_off_c, 0, 77, 64
4, 230880, Note_off_c, 0, 75, 64
4, 230880, Note_on_c, 0, 67, 40
4, 230880, Note_on_c, 0, 74, 40
4, 230880, Note_on_c, 0, 77, 40
4, 231360, Note_off_c, 0, 67, 64
4, 231360, Note_off_c, 0, 77, 64
4, 231360, Note_off_c, 0, 74, 64
4, 231360, Note_on_c, 0, 67, 40
4, 231360, Note_on_c, 0, 74, 40
4, 231360, Note_on_c, 0, 75, 40
4, 231840, Note_off_c, 0, 67, 64
4, 231840, Note_off_c, 0, 75, 64
4, 231840, Note_off_c, 0, 74, 64
4, 231840, Note_on_c, 0, 68, 40
4, 231840, Note_on_c, 0, 72, 40
4, 231840, Note_on_c, 0, 75, 40
4, 232320, Note_off_c, 0, 68, 64
4, 232320, Note_off_c, 0, 75, 64
4, 232320, Note_off_c, 0, 72, 64
4, 232320, Note_on_c, 0, 68, 40
4, 232320, Note_on_c, 0, 72, 40
4, 232320, Note_on_c, 0, 77, 40
4, 232800, Note_off_c, 0, 68, 64
4, 232800, Note_off_c, 0, 77, 64
4, 232800, Note_off_c, 0, 72, 64
4, 232800, Note_on_c, 0, 67, 40
4, 232800, Note_on_c, 0, 72, 40
4, 232800, Note_on_c, 0, 76, 40
4, 233280, Note_off_c, 0, 67, 64
4, 233280, Note_off_c, 0, 76, 64
4, 233280, Note_off_c, 0, 72, 64
4, 233280, Note_on_c, 0, 65, 40
4, 233280, Note_on_c, 0, 72, 40
4, 233280, Note_on_c, 0, 77, 40
4, 234000, Note_off_c, 0, 65, 64
4, 234000, Note_off_c, 0, 77, 64
4, 234000, Note_off_c, 0, 72, 64
4, 234000, Note_on_c, 0, 67, 40
4, 234000, Note_on_c, 0, 72, 40
4, 234000, Note_on_c, 0, 75, 40
4, 234240, Note_off_c, 0, 67, 64
4, 234240, Note_off_c, 0, 75, 64
4, 234240, Note_off_c, 0, 72, 64
4, 234240, Note_on_c, 0, 69, 40
4, 234240, Note_on_c, 0, 72, 40
4, 234240, Note_on_c, 0, 75, 40
4, 234720, Note_off_c, 0, 69, 64
4, 234720, Note_off_c, 0, 75, 64
4, 234720, Note_off_c, 0, 72, 64
4, 234720, Note_on_c, 0, 66, 40
4, 234720, Note_on_c, 0, 72, 40
4, 234720, Note_on_c, 0, 74, 40
4, 235200, Note_off_c, 0, 66, 64
4, 235200, Note_off_c, 0, 74, 64
4, 235200, Note_off_c, 0, 72, 64
4, 235200, Note_on_c, 0, 67, 40
4, 235200, Note_on_c, 0, 72, 40
4, 235200, Note_on_c, 0, 74, 40
4, 235440, Note_off_c, 0, 67, 64
4, 235440, Note_off_c, 0, 74, 64
4, 235440, Note_off_c, 0, 72, 64
4, 235440, Note_on_c, 0, 68, 40
4, 235440, Note_on_c, 0, 71, 40
4, 235440, Note_on_c, 0, 74, 40
4, 235680, Note_off_c, 0, 68, 64
4, 235680, Note_off_c, 0, 74, 64
4, 235680, Note_off_c, 0, 71, 64
4, 235920, Note_on_c, 0, 67, 40
4, 235920, Note_on_c, 0, 74, 40
4, 235920, Note_on_c, 0, 77, 40
4, 236160, Note_off_c, 0, 67, 64
4, 236160, Note_off_c, 0, 77, 64
4, 236160, Note_off_c, 0, 74, 64
4, 236160, Note_on_c, 0, 67, 40
4, 236160, Note_on_c, 0, 74, 40
4, 236160, Note_on_c, 0, 75, 40
4, 236400, Note_off_c, 0, 67, 64
4, 236400, Note_off_c, 0, 75, 64
4, 236400, Note_off_c, 0, 74, 64
4, 236400, Note_on_c, 0, 68, 40
4, 236400, Note_on_c, 0, 72, 40
4, 236400, Note_on_c, 0, 75, 40
4, 236640, Note_off_c, 0, 68, 64
4, 236640, Note_off_c, 0, 75, 64
4, 236640, Note_off_c, 0, 72, 64
4, 236640, Note_on_c, 0, 65, 40
4, 236640, Note_on_c, 0, 72, 40
4, 236640, Note_on_c, 0, 74, 40
4, 236880, Note_off_c, 0, 65, 64
4, 236880, Note_off_c, 0, 74, 64
4, 236880, Note_off_c, 0, 72, 64
4, 236880, Note_on_c, 0, 67, 40
4, 236880, Note_on_c, 0, 70, 40
4, 236880, Note_on_c, 0, 75, 40
4, 237120, Note_off_c, 0, 67, 64
4, 237120, Note_off_c, 0, 75, 64
4, 237120, Note_off_c, 0, 70, 64
4, 237120, Note_on_c, 0, 63, 40
4, 237120, Note_on_c, 0, 70, 40
4, 237120, Note_on_c, 0, 72, 40
4, 237360, Note_off_c, 0, 63, 64
4, 237360, Note_off_c, 0, 72, 64
4, 237360, Note_off_c, 0, 70, 64
4, 237360, Note_on_c, 0, 65, 40
4, 237360, Note_on_c, 0, 68, 40
4, 237360, Note_on_c, 0, 72, 40
4, 237600, Note_off_c, 0, 65, 64
4, 237600, Note_off_c, 0, 72, 64
4, 237600, Note_off_c, 0, 68, 64
4, 237600, Note_on_c, 0, 65, 40
4, 237600, Note_on_c, 0, 68, 40
4, 237600, Note_on_c, 0, 71, 40
4, 237840, Note_off_c, 0, 65, 64
4, 237840, Note_off_c, 0, 71, 64
4, 237840, Note_off_c, 0, 68, 64
4, 237840, Note_on_c, 0, 65, 40
4, 237840, Note_on_c, 0, 67, 40
4, 237840, Note_on_c, 0, 71, 40
4, 238080, Note_off_c, 0, 65, 64
4, 238080, Note_off_c, 0, 71, 64
4, 238080, Note_off_c, 0, 67, 64
4, 238080, Note_on_c, 0, 63, 40
4, 238080, Note_on_c, 0, 72, 40
4, 238320, Note_off_c, 0, 63, 64
4, 238320, Note_off_c, 0, 72, 64
4, 238320, Note_on_c, 0, 62, 40
4, 238320, Note_on_c, 0, 68, 40
4, 238320, Note_on_c, 0, 72, 40
4, 238560, Note_off_c, 0, 62, 64
4, 238560, Note_off_c, 0, 72, 64
4, 238560, Note_off_c, 0, 68, 64
4, 238560, Note_on_c, 0, 62, 40
4, 238560, Note_on_c, 0, 67, 40
4, 238560, Note_on_c, 0, 71, 40
4, 239040, Note_off_c, 0, 62, 64
4, 239040, Note_off_c, 0, 71, 64
4, 239040, Note_off_c, 0, 67, 64
4, 239040, Note_on_c, 0, 63, 40
4, 239040, Note_on_c, 0, 67, 40
4, 239040, Note_on_c, 0, 72, 40
4, 239520, Note_off_c, 0, 63, 64
4, 239520, Note_off_c, 0, 72, 64
4, 239520, Note_off_c, 0, 67, 64
4, 239520, End_track
5, 0, Start_track
5, 0, Text_t, "Continuo"
5, 1200, Note_on_c, 0, 48, 64
5, 1440, Note_off_c, 0, 48, 64
5, 1440, Note_on_c, 0, 47, 64
5, 1680, Note_off_c, 0, 47, 64
5, 1680, Note_on_c, 0, 43, 64
5, 1920, Note_off_c, 0, 43, 64
5, 1920, Note_on_c, 0, 48, 64
5, 2160, Note_off_c, 0, 48, 64
5, 2160, Note_on_c, 0, 50, 64
5, 2400, Note_off_c, 0, 50, 64
5, 2400, Note_on_c, 0, 51, 64
5, 2640, Note_off_c, 0, 51, 64
5, 2640, Note_on_c, 0, 48, 64
5, 2880, Note_off_c, 0, 48, 64
5, 2880, Note_on_c, 0, 55, 64
5, 3120, Note_off_c, 0, 55, 64
5, 3120, Note_on_c, 0, 53, 64
5, 3360, Note_off_c, 0, 53, 64
5, 3360, Note_on_c, 0, 51, 64
5, 3600, Note_off_c, 0, 51, 64
5, 3600, Note_on_c, 0, 48, 64
5, 3840, Note_off_c, 0, 48, 64
5, 3840, Note_on_c, 0, 55, 64
5, 4080, Note_off_c, 0, 55, 64
5, 4080, Note_on_c, 0, 43, 64
5, 4320, Note_off_c, 0, 43, 64
5, 4560, Note_on_c, 0, 55, 64
5, 4800, Note_off_c, 0, 55, 64
5, 4800, Note_on_c, 0, 56, 64
5, 5040, Note_off_c, 0, 56, 64
5, 5040, Note_on_c, 0, 55, 64
5, 5280, Note_off_c, 0, 55, 64
5, 5280, Note_on_c, 0, 53, 64
5, 5520, Note_off_c, 0, 53, 64
5, 5520, Note_on_c, 0, 50, 64
5, 5760, Note_off_c, 0, 50, 64
5, 5760, Note_on_c, 0, 55, 64
5, 6000, Note_off_c, 0, 55, 64
5, 6000, Note_on_c, 0, 53, 64
5, 6240, Note_off_c, 0, 53, 64
5, 6240, Note_on_c, 0, 52, 64
5, 6480, Note_off_c, 0, 52, 64
5, 6480, Note_on_c, 0, 48, 64
5, 6720, Note_off_c, 0, 48, 64
5, 6720, Note_on_c, 0, 53, 64
5, 6960, Note_off_c, 0, 53, 64
5, 6960, Note_on_c, 0, 51, 64
5, 7200, Note_off_c, 0, 51, 64
5, 7200, Note_on_c, 0, 50, 64
5, 7440, Note_off_c, 0, 50, 64
5, 7440, Note_on_c, 0, 48, 64
5, 7680, Note_off_c, 0, 48, 64
5, 7680, Note_on_c, 0, 47, 64
5, 7800, Note_off_c, 0, 47, 64
5, 7800, Note_on_c, 0, 43, 64
5, 7920, Note_off_c, 0, 43, 64
5, 7920, Note_on_c, 0, 47, 64
5, 8040, Note_off_c, 0, 47, 64
5, 8040, Note_on_c, 0, 50, 64
5, 8160, Note_off_c, 0, 50, 64
5, 8160, Note_on_c, 0, 55, 64
5, 8280, Note_off_c, 0, 55, 64
5, 8280, Note_on_c, 0, 51, 64
5, 8400, Note_off_c, 0, 51, 64
5, 8400, Note_on_c, 0, 53, 64
5, 8520, Note_off_c, 0, 53, 64
5, 8520, Note_on_c, 0, 50, 64
5, 8640, Note_off_c, 0, 50, 64
5, 8640, Note_on_c, 0, 51, 64
5, 8880, Note_off_c, 0, 51, 64
5, 8880, Note_on_c, 0, 56, 64
5, 9120, Note_off_c, 0, 56, 64
5, 9120, Note_on_c, 0, 50, 64
5, 9360, Note_off_c, 0, 50, 64
5, 9360, Note_on_c, 0, 55, 64
5, 9600, Note_off_c, 0, 55, 64
5, 9600, Note_on_c, 0, 48, 64
5, 9840, Note_off_c, 0, 48, 64
5, 9840, Note_on_c, 0, 50, 64
5, 10080, Note_off_c, 0, 50, 64
5, 10080, Note_on_c, 0, 51, 64
5, 10320, Note_off_c, 0, 51, 64
5, 10320, Note_on_c, 0, 45, 64
5, 10560, Note_off_c, 0, 45, 64
5, 10560, Note_on_c, 0, 46, 64
5, 10800, Note_off_c, 0, 46, 64
5, 10800, Note_on_c, 0, 51, 64
5, 11040, Note_off_c, 0, 51, 64
5, 11040, Note_on_c, 0, 48, 64
5, 11280, Note_off_c, 0, 48, 64
5, 11280, Note_on_c, 0, 50, 64
5, 11520, Note_off_c, 0, 50, 64
5, 11520, Note_on_c, 0, 43, 64
5, 11760, Note_off_c, 0, 43, 64
5, 11760, Note_on_c, 0, 45, 64
5, 12000, Note_off_c, 0, 45, 64
5, 12000, Note_on_c, 0, 46, 64
5, 12240, Note_off_c, 0, 46, 64
5, 12240, Note_on_c, 0, 43, 64
5, 12480, Note_off_c, 0, 43, 64
5, 12480, Note_on_c, 0, 50, 64
5, 12720, Note_off_c, 0, 50, 64
5, 12720, Note_on_c, 0, 48, 64
5, 12960, Note_off_c, 0, 48, 64
5, 12960, Note_on_c, 0, 46, 64
5, 13200, Note_off_c, 0, 46, 64
5, 13200, Note_on_c, 0, 43, 64
5, 13440, Note_off_c, 0, 43, 64
5, 13440, Note_on_c, 0, 50, 64
5, 13680, Note_off_c, 0, 50, 64
5, 13680, Note_on_c, 0, 38, 64
5, 13920, Note_off_c, 0, 38, 64
5, 14140, Note_on_c, 0, 50, 64
5, 14380, Note_off_c, 0, 50, 64
5, 14400, Note_on_c, 0, 51, 64
5, 14520, Note_off_c, 0, 51, 64
5, 14520, Note_on_c, 0, 50, 64
5, 14640, Note_off_c, 0, 50, 64
5, 14640, Note_on_c, 0, 51, 64
5, 14880, Note_off_c, 0, 51, 64
5, 15120, Note_on_c, 0, 45, 64
5, 15360, Note_off_c, 0, 45, 64
5, 15360, Note_on_c, 0, 50, 64
5, 15480, Note_off_c, 0, 50, 64
5, 15480, Note_on_c, 0, 48, 64
5, 15600, Note_off_c, 0, 48, 64
5, 15600, Note_on_c, 0, 50, 64
5, 15840, Note_off_c, 0, 50, 64
5, 16080, Note_on_c, 0, 43, 64
5, 16320, Note_off_c, 0, 43, 64
5, 16320, Note_on_c, 0, 48, 64
5, 16440, Note_off_c, 0, 48, 64
5, 16440, Note_on_c, 0, 47, 64
5, 16560, Note_off_c, 0, 47, 64
5, 16560, Note_on_c, 0, 48, 64
5, 16800, Note_off_c, 0, 48, 64
5, 17040, Note_on_c, 0, 60, 64
5, 17280, Note_off_c, 0, 60, 64
5, 17280, Note_on_c, 0, 60, 64
5, 17520, Note_off_c, 0, 60, 64
5, 17520, Note_on_c, 0, 57, 64
5, 17760, Note_off_c, 0, 57, 64
5, 17760, Note_on_c, 0, 54, 64
5, 18000, Note_off_c, 0, 54, 64
5, 18000, Note_on_c, 0, 50, 64
5, 18240, Note_off_c, 0, 50, 64
5, 18240, Note_on_c, 0, 55, 64
5, 18480, Note_off_c, 0, 55, 64
5, 18480, Note_on_c, 0, 46, 64
5, 18720, Note_off_c, 0, 46, 64
5, 18720, Note_on_c, 0, 45, 64
5, 18960, Note_off_c, 0, 45, 64
5, 18960, Note_on_c, 0, 50, 64
5, 19200, Note_off_c, 0, 50, 64
5, 19200, Note_on_c, 0, 55, 64
5, 19440, Note_off_c, 0, 55, 64
5, 19440, Note_on_c, 0, 53, 64
5, 19680, Note_off_c, 0, 53, 64
5, 19680, Note_on_c, 0, 51, 64
5, 19920, Note_off_c, 0, 51, 64
5, 19920, Note_on_c, 0, 50, 64
5, 20160, Note_off_c, 0, 50, 64
5, 20160, Note_on_c, 0, 48, 64
5, 20520, Note_off_c, 0, 48, 64
5, 20520, Note_on_c, 0, 50, 64
5, 20580, Note_off_c, 0, 50, 64
5, 20580, Note_on_c, 0, 51, 64
5, 20640, Note_off_c, 0, 51, 64
5, 20640, Note_on_c, 0, 50, 64
5, 21000, Note_off_c, 0, 50, 64
5, 21000, Note_on_c, 0, 51, 64
5, 21060, Note_off_c, 0, 51, 64
5, 21060, Note_on_c, 0, 53, 64
5, 21120, Note_off_c, 0, 53, 64
5, 21120, Note_on_c, 0, 51, 64
5, 21360, Note_off_c, 0, 51, 64
5, 21360, Note_on_c, 0, 50, 64
5, 21600, Note_off_c, 0, 50, 64
5, 21600, Note_on_c, 0, 48, 64
5, 21840, Note_off_c, 0, 48, 64
5, 21840, Note_on_c, 0, 46, 64
5, 22080, Note_off_c, 0, 46, 64
5, 22080, Note_on_c, 0, 45, 64
5, 22440, Note_off_c, 0, 45, 64
5, 22440, Note_on_c, 0, 47, 64
5, 22500, Note_off_c, 0, 47, 64
5, 22500, Note_on_c, 0, 48, 64
5, 22560, Note_off_c, 0, 48, 64
5, 22560, Note_on_c, 0, 47, 64
5, 22920, Note_off_c, 0, 47, 64
5, 22920, Note_on_c, 0, 48, 64
5, 22980, Note_off_c, 0, 48, 64
5, 22980, Note_on_c, 0, 50, 64
5, 23040, Note_off_c, 0, 50, 64
5, 23040, Note_on_c, 0, 48, 64
5, 23280, Note_off_c, 0, 48, 64
5, 23280, Note_on_c, 0, 60, 64
5, 23400, Note_off_c, 0, 60, 64
5, 23400, Note_on_c, 0, 58, 64
5, 23520, Note_off_c, 0, 58, 64
5, 23520, Note_on_c, 0, 56, 64
5, 23760, Note_off_c, 0, 56, 64
5, 23760, Note_on_c, 0, 55, 64
5, 24000, Note_off_c, 0, 55, 64
5, 24000, Note_on_c, 0, 53, 64
5, 24360, Note_off_c, 0, 53, 64
5, 24360, Note_on_c, 0, 55, 64
5, 24420, Note_off_c, 0, 55, 64
5, 24420, Note_on_c, 0, 56, 64
5, 24480, Note_off_c, 0, 56, 64
5, 24480, Note_on_c, 0, 55, 64
5, 24840, Note_off_c, 0, 55, 64
5, 24840, Note_on_c, 0, 56, 64
5, 24900, Note_off_c, 0, 56, 64
5, 24900, Note_on_c, 0, 58, 64
5, 24960, Note_off_c, 0, 58, 64
5, 24960, Note_on_c, 0, 56, 64
5, 25200, Note_off_c, 0, 56, 64
5, 25200, Note_on_c, 0, 55, 64
5, 25440, Note_off_c, 0, 55, 64
5, 25440, Note_on_c, 0, 53, 64
5, 25680, Note_off_c, 0, 53, 64
5, 25680, Note_on_c, 0, 51, 64
5, 25920, Note_off_c, 0, 51, 64
5, 25920, Note_on_c, 0, 50, 64
5, 26280, Note_off_c, 0, 50, 64
5, 26280, Note_on_c, 0, 52, 64
5, 26340, Note_off_c, 0, 52, 64
5, 26340, Note_on_c, 0, 53, 64
5, 26400, Note_off_c, 0, 53, 64
5, 26400, Note_on_c, 0, 52, 64
5, 26760, Note_off_c, 0, 52, 64
5, 26760, Note_on_c, 0, 53, 64
5, 26820, Note_off_c, 0, 53, 64
5, 26820, Note_on_c, 0, 55, 64
5, 26880, Note_off_c, 0, 55, 64
5, 26880, Note_on_c, 0, 53, 64
5, 27000, Note_off_c, 0, 53, 64
5, 27000, Note_on_c, 0, 55, 64
5, 27120, Note_off_c, 0, 55, 64
5, 27120, Note_on_c, 0, 56, 64
5, 27240, Note_off_c, 0, 56, 64
5, 27240, Note_on_c, 0, 53, 64
5, 27360, Note_off_c, 0, 53, 64
5, 27360, Note_on_c, 0, 50, 64
5, 27480, Note_off_c, 0, 50, 64
5, 27480, Note_on_c, 0, 51, 64
5, 27600, Note_off_c, 0, 51, 64
5, 27600, Note_on_c, 0, 53, 64
5, 27720, Note_off_c, 0, 53, 64
5, 27720, Note_on_c, 0, 50, 64
5, 27840, Note_off_c, 0, 50, 64
5, 27840, Note_on_c, 0, 47, 64
5, 27960, Note_off_c, 0, 47, 64
5, 27960, Note_on_c, 0, 48, 64
5, 28080, Note_off_c, 0, 48, 64
5, 28080, Note_on_c, 0, 50, 64
5, 28200, Note_off_c, 0, 50, 64
5, 28200, Note_on_c, 0, 47, 64
5, 28320, Note_off_c, 0, 47, 64
5, 28320, Note_on_c, 0, 48, 64
5, 28440, Note_off_c, 0, 48, 64
5, 28440, Note_on_c, 0, 50, 64
5, 28560, Note_off_c, 0, 50, 64
5, 28560, Note_on_c, 0, 51, 64
5, 28680, Note_off_c, 0, 51, 64
5, 28680, Note_on_c, 0, 48, 64
5, 28800, Note_off_c, 0, 48, 64
5, 28800, Note_on_c, 0, 50, 64
5, 28920, Note_off_c, 0, 50, 64
5, 28920, Note_on_c, 0, 51, 64
5, 29040, Note_off_c, 0, 51, 64
5, 29040, Note_on_c, 0, 53, 64
5, 29160, Note_off_c, 0, 53, 64
5, 29160, Note_on_c, 0, 50, 64
5, 29280, Note_off_c, 0, 50, 64
5, 29280, Note_on_c, 0, 55, 64
5, 29400, Note_off_c, 0, 55, 64
5, 29400, Note_on_c, 0, 57, 64
5, 29520, Note_off_c, 0, 57, 64
5, 29520, Note_on_c, 0, 59, 64
5, 29640, Note_off_c, 0, 59, 64
5, 29640, Note_on_c, 0, 55, 64
5, 29760, Note_off_c, 0, 55, 64
5, 29760, Note_on_c, 0, 60, 64
5, 29880, Note_off_c, 0, 60, 64
5, 29880, Note_on_c, 0, 62, 64
5, 30000, Note_off_c, 0, 62, 64
5, 30000, Note_on_c, 0, 63, 64
5, 30120, Note_off_c, 0, 63, 64
5, 30120, Note_on_c, 0, 60, 64
5, 30240, Note_off_c, 0, 60, 64
5, 30240, Note_on_c, 0, 56, 64
5, 30360, Note_off_c, 0, 56, 64
5, 30360, Note_on_c, 0, 58, 64
5, 30480, Note_off_c, 0, 58, 64
5, 30480, Note_on_c, 0, 60, 64
5, 30600, Note_off_c, 0, 60, 64
5, 30600, Note_on_c, 0, 56, 64
5, 30720, Note_off_c, 0, 56, 64
5, 30720, Note_on_c, 0, 54, 64
5, 30960, Note_off_c, 0, 54, 64
5, 30960, Note_on_c, 0, 42, 64
5, 31200, Note_off_c, 0, 42, 64
5, 31200, Note_on_c, 0, 42, 64
5, 31440, Note_off_c, 0, 42, 64
5, 31440, Note_on_c, 0, 42, 64
5, 31680, Note_off_c, 0, 42, 64
5, 31680, Note_on_c, 0, 43, 64
5, 31920, Note_off_c, 0, 43, 64
5, 31920, Note_on_c, 0, 55, 64
5, 32040, Note_off_c, 0, 55, 64
5, 32040, Note_on_c, 0, 57, 64
5, 32160, Note_off_c, 0, 57, 64
5, 32160, Note_on_c, 0, 59, 64
5, 32400, Note_off_c, 0, 59, 64
5, 32400, Note_on_c, 0, 55, 64
5, 32640, Note_off_c, 0, 55, 64
5, 32640, Note_on_c, 0, 60, 64
5, 32880, Note_off_c, 0, 60, 64
5, 32880, Note_on_c, 0, 58, 64
5, 33120, Note_off_c, 0, 58, 64
5, 33120, Note_on_c, 0, 57, 64
5, 33360, Note_off_c, 0, 57, 64
5, 33360, Note_on_c, 0, 53, 64
5, 33600, Note_off_c, 0, 53, 64
5, 33600, Note_on_c, 0, 58, 64
5, 33840, Note_off_c, 0, 58, 64
5, 33840, Note_on_c, 0, 57, 64
5, 34080, Note_off_c, 0, 57, 64
5, 34080, Note_on_c, 0, 55, 64
5, 34320, Note_off_c, 0, 55, 64
5, 34320, Note_on_c, 0, 54, 64
5, 34440, Note_off_c, 0, 54, 64
5, 34440, Note_on_c, 0, 55, 64
5, 34560, Note_off_c, 0, 55, 64
5, 34560, Note_on_c, 0, 57, 64
5, 34800, Note_off_c, 0, 57, 64
5, 34800, Note_on_c, 0, 55, 64
5, 35040, Note_off_c, 0, 55, 64
5, 35040, Note_on_c, 0, 54, 64
5, 35280, Note_off_c, 0, 54, 64
5, 35280, Note_on_c, 0, 50, 64
5, 35520, Note_off_c, 0, 50, 64
5, 35520, Note_on_c, 0, 55, 64
5, 35760, Note_off_c, 0, 55, 64
5, 35760, Note_on_c, 0, 53, 64
5, 36000, Note_off_c, 0, 53, 64
5, 36000, Note_on_c, 0, 51, 64
5, 36240, Note_off_c, 0, 51, 64
5, 36240, Note_on_c, 0, 50, 64
5, 36480, Note_off_c, 0, 50, 64
5, 36480, Note_on_c, 0, 51, 64
5, 36720, Note_off_c, 0, 51, 64
5, 36720, Note_on_c, 0, 48, 64
5, 36960, Note_off_c, 0, 48, 64
5, 36960, Note_on_c, 0, 53, 64
5, 37200, Note_off_c, 0, 53, 64
5, 37200, Note_on_c, 0, 50, 64
5, 37440, Note_off_c, 0, 50, 64
5, 37440, Note_on_c, 0, 51, 64
5, 37680, Note_off_c, 0, 51, 64
5, 37680, Note_on_c, 0, 55, 64
5, 37920, Note_off_c, 0, 55, 64
5, 37920, Note_on_c, 0, 51, 64
5, 38160, Note_off_c, 0, 51, 64
5, 38160, Note_on_c, 0, 50, 64
5, 38400, Note_off_c, 0, 50, 64
5, 38400, Note_on_c, 0, 49, 64
5, 38640, Note_off_c, 0, 49, 64
5, 38640, Note_on_c, 0, 50, 64
5, 38880, Note_off_c, 0, 50, 64
5, 38880, Note_on_c, 0, 52, 64
5, 39120, Note_off_c, 0, 52, 64
5, 39120, Note_on_c, 0, 45, 64
5, 39360, Note_off_c, 0, 45, 64
5, 39360, Note_on_c, 0, 50, 64
5, 39600, Note_off_c, 0, 50, 64
5, 39600, Note_on_c, 0, 38, 64
5, 39840, Note_off_c, 0, 38, 64
5, 40080, Note_on_c, 0, 54, 64
5, 40320, Note_off_c, 0, 54, 64
5, 40320, Note_on_c, 0, 55, 64
5, 40560, Note_off_c, 0, 55, 64
5, 40560, Note_on_c, 0, 51, 64
5, 40800, Note_off_c, 0, 51, 64
5, 40800, Note_on_c, 0, 53, 64
5, 41040, Note_off_c, 0, 53, 64
5, 41040, Note_on_c, 0, 50, 64
5, 41280, Note_off_c, 0, 50, 64
5, 41280, Note_on_c, 0, 51, 64
5, 41520, Note_off_c, 0, 51, 64
5, 41520, Note_on_c, 0, 48, 64
5, 41760, Note_off_c, 0, 48, 64
5, 41760, Note_on_c, 0, 45, 64
5, 42000, Note_off_c, 0, 45, 64
5, 42000, Note_on_c, 0, 38, 64
5, 42240, Note_off_c, 0, 38, 64
5, 42240, Note_on_c, 0, 39, 64
5, 42480, Note_off_c, 0, 39, 64
5, 42480, Note_on_c, 0, 48, 64
5, 42720, Note_off_c, 0, 48, 64
5, 42720, Note_on_c, 0, 50, 64
5, 42960, Note_off_c, 0, 50, 64
5, 42960, Note_on_c, 0, 38, 64
5, 43200, Note_off_c, 0, 38, 64
5, 43200, Note_on_c, 0, 43, 64
5, 43680, Note_off_c, 0, 43, 64
5, 44400, Note_on_c, 0, 55, 64
5, 44640, Note_off_c, 0, 55, 64
5, 44640, Note_on_c, 0, 54, 64
5, 44880, Note_off_c, 0, 54, 64
5, 44880, Note_on_c, 0, 50, 64
5, 45120, Note_off_c, 0, 50, 64
5, 45120, Note_on_c, 0, 43, 64
5, 45600, Note_off_c, 0, 43, 64
5, 45600, Note_on_c, 0, 46, 64
5, 46080, Note_off_c, 0, 46, 64
5, 46080, Note_on_c, 0, 50, 64
5, 46560, Note_off_c, 0, 50, 64
5, 46560, Note_on_c, 0, 51, 64
5, 47040, Note_off_c, 0, 51, 64
5, 47040, Note_on_c, 0, 42, 64
5, 47520, Note_off_c, 0, 42, 64
5, 47760, Note_on_c, 0, 50, 64
5, 48000, Note_off_c, 0, 50, 64
5, 48000, Note_on_c, 0, 49, 64
5, 48480, Note_off_c, 0, 49, 64
5, 48480, Note_on_c, 0, 48, 64
5, 48960, Note_off_c, 0, 48, 64
5, 48960, Note_on_c, 0, 47, 64
5, 49440, Note_off_c, 0, 47, 64
5, 49440, Note_on_c, 0, 46, 64
5, 50160, Note_off_c, 0, 46, 64
5, 50160, Note_on_c, 0, 45, 64
5, 50400, Note_off_c, 0, 45, 64
5, 50400, Note_on_c, 0, 44, 64
5, 50640, Note_off_c, 0, 44, 64
5, 50640, Note_on_c, 0, 43, 64
5, 50880, Note_off_c, 0, 43, 64
5, 50880, Note_on_c, 0, 42, 64
5, 51120, Note_off_c, 0, 42, 64
5, 51120, Note_on_c, 0, 40, 64
5, 51240, Note_off_c, 0, 40, 64
5, 51240, Note_on_c, 0, 38, 64
5, 51360, Note_off_c, 0, 38, 64
5, 51360, Note_on_c, 0, 43, 64
5, 51600, Note_off_c, 0, 43, 64
5, 51600, Note_on_c, 0, 48, 64
5, 51840, Note_off_c, 0, 48, 64
5, 51840, Note_on_c, 0, 46, 64
5, 52080, Note_off_c, 0, 46, 64
5, 52080, Note_on_c, 0, 51, 64
5, 52320, Note_off_c, 0, 51, 64
5, 52320, Note_on_c, 0, 45, 64
5, 52560, Note_off_c, 0, 45, 64
5, 52560, Note_on_c, 0, 50, 64
5, 52800, Note_off_c, 0, 50, 64
5, 52800, Note_on_c, 0, 43, 64
5, 53040, Note_off_c, 0, 43, 64
5, 53040, Note_on_c, 0, 45, 64
5, 53280, Note_off_c, 0, 45, 64
5, 53280, Note_on_c, 0, 46, 64
5, 53520, Note_off_c, 0, 46, 64
5, 53520, Note_on_c, 0, 43, 64
5, 53760, Note_off_c, 0, 43, 64
5, 53760, Note_on_c, 0, 48, 64
5, 54000, Note_off_c, 0, 48, 64
5, 54000, Note_on_c, 0, 53, 64
5, 54240, Note_off_c, 0, 53, 64
5, 54240, Note_on_c, 0, 50, 64
5, 54480, Note_off_c, 0, 50, 64
5, 54480, Note_on_c, 0, 46, 64
5, 54720, Note_off_c, 0, 46, 64
5, 54720, Note_on_c, 0, 51, 64
5, 54960, Note_off_c, 0, 51, 64
5, 54960, Note_on_c, 0, 55, 64
5, 55200, Note_off_c, 0, 55, 64
5, 55200, Note_on_c, 0, 52, 64
5, 55440, Note_off_c, 0, 52, 64
5, 55440, Note_on_c, 0, 48, 64
5, 55680, Note_off_c, 0, 48, 64
5, 55680, Note_on_c, 0, 53, 64
5, 55920, Note_off_c, 0, 53, 64
5, 55920, Note_on_c, 0, 56, 64
5, 56160, Note_off_c, 0, 56, 64
5, 56160, Note_on_c, 0, 53, 64
5, 56400, Note_off_c, 0, 53, 64
5, 56400, Note_on_c, 0, 50, 64
5, 56640, Note_off_c, 0, 50, 64
5, 56640, Note_on_c, 0, 55, 64
5, 56880, Note_off_c, 0, 55, 64
5, 56880, Note_on_c, 0, 57, 64
5, 57120, Note_off_c, 0, 57, 64
5, 57120, Note_on_c, 0, 59, 64
5, 57360, Note_off_c, 0, 59, 64
5, 57360, Note_on_c, 0, 55, 64
5, 57600, Note_off_c, 0, 55, 64
5, 57600, Note_on_c, 0, 60, 64
5, 57840, Note_off_c, 0, 60, 64
5, 57840, Note_on_c, 0, 58, 64
5, 58080, Note_off_c, 0, 58, 64
5, 58080, Note_on_c, 0, 56, 64
5, 58320, Note_off_c, 0, 56, 64
5, 58320, Note_on_c, 0, 55, 64
5, 58560, Note_off_c, 0, 55, 64
5, 58560, Note_on_c, 0, 53, 64
5, 58920, Note_off_c, 0, 53, 64
5, 58920, Note_on_c, 0, 55, 64
5, 58980, Note_off_c, 0, 55, 64
5, 58980, Note_on_c, 0, 56, 64
5, 59040, Note_off_c, 0, 56, 64
5, 59040, Note_on_c, 0, 55, 64
5, 59400, Note_off_c, 0, 55, 64
5, 59400, Note_on_c, 0, 56, 64
5, 59460, Note_off_c, 0, 56, 64
5, 59460, Note_on_c, 0, 58, 64
5, 59520, Note_off_c, 0, 58, 64
5, 59520, Note_on_c, 0, 56, 64
5, 59760, Note_off_c, 0, 56, 64
5, 59760, Note_on_c, 0, 55, 64
5, 60000, Note_off_c, 0, 55, 64
5, 60000, Note_on_c, 0, 53, 64
5, 60240, Note_off_c, 0, 53, 64
5, 60240, Note_on_c, 0, 51, 64
5, 60480, Note_off_c, 0, 51, 64
5, 60480, Note_on_c, 0, 50, 64
5, 60840, Note_off_c, 0, 50, 64
5, 60840, Note_on_c, 0, 52, 64
5, 60900, Note_off_c, 0, 52, 64
5, 60900, Note_on_c, 0, 53, 64
5, 60960, Note_off_c, 0, 53, 64
5, 60960, Note_on_c, 0, 52, 64
5, 61320, Note_off_c, 0, 52, 64
5, 61320, Note_on_c, 0, 53, 64
5, 61380, Note_off_c, 0, 53, 64
5, 61380, Note_on_c, 0, 55, 64
5, 61440, Note_off_c, 0, 55, 64
5, 61440, Note_on_c, 0, 53, 64
5, 61680, Note_off_c, 0, 53, 64
5, 61680, Note_on_c, 0, 51, 64
5, 61920, Note_off_c, 0, 51, 64
5, 61920, Note_on_c, 0, 50, 64
5, 62160, Note_off_c, 0, 50, 64
5, 62160, Note_on_c, 0, 48, 64
5, 62400, Note_off_c, 0, 48, 64
5, 62400, Note_on_c, 0, 47, 64
5, 62760, Note_off_c, 0, 47, 64
5, 62760, Note_on_c, 0, 48, 64
5, 62820, Note_off_c, 0, 48, 64
5, 62820, Note_on_c, 0, 50, 64
5, 62880, Note_off_c, 0, 50, 64
5, 62880, Note_on_c, 0, 48, 64
5, 63240, Note_off_c, 0, 48, 64
5, 63240, Note_on_c, 0, 50, 64
5, 63300, Note_off_c, 0, 50, 64
5, 63300, Note_on_c, 0, 51, 64
5, 63360, Note_off_c, 0, 51, 64
5, 63360, Note_on_c, 0, 45, 64
5, 63720, Note_off_c, 0, 45, 64
5, 63720, Note_on_c, 0, 47, 64
5, 63780, Note_off_c, 0, 47, 64
5, 63780, Note_on_c, 0, 48, 64
5, 63840, Note_off_c, 0, 48, 64
5, 63840, Note_on_c, 0, 47, 64
5, 64200, Note_off_c, 0, 47, 64
5, 64200, Note_on_c, 0, 48, 64
5, 64260, Note_off_c, 0, 48, 64
5, 64260, Note_on_c, 0, 50, 64
5, 64320, Note_off_c, 0, 50, 64
5, 64320, Note_on_c, 0, 48, 64
5, 64560, Note_off_c, 0, 48, 64
5, 64560, Note_on_c, 0, 44, 64
5, 64800, Note_off_c, 0, 44, 64
5, 64800, Note_on_c, 0, 41, 64
5, 65040, Note_off_c, 0, 41, 64
5, 65040, Note_on_c, 0, 43, 64
5, 65280, Note_off_c, 0, 43, 64
5, 65280, Note_on_c, 0, 48, 64
5, 65760, Note_off_c, 0, 48, 64
5, 65760, Note_on_c, 0, 51, 64
5, 66240, Note_off_c, 0, 51, 64
5, 66240, Note_on_c, 0, 55, 64
5, 66720, Note_off_c, 0, 55, 64
5, 66720, Note_on_c, 0, 56, 64
5, 67200, Note_off_c, 0, 56, 64
5, 67200, Note_on_c, 0, 47, 64
5, 67680, Note_off_c, 0, 47, 64
5, 67920, Note_on_c, 0, 55, 64
5, 68160, Note_off_c, 0, 55, 64
5, 68160, Note_on_c, 0, 54, 64
5, 68640, Note_off_c, 0, 54, 64
5, 68640, Note_on_c, 0, 53, 64
5, 69120, Note_off_c, 0, 53, 64
5, 69120, Note_on_c, 0, 52, 64
5, 69600, Note_off_c, 0, 52, 64
5, 69600, Note_on_c, 0, 51, 64
5, 70080, Note_off_c, 0, 51, 64
5, 70320, Note_on_c, 0, 50, 64
5, 70560, Note_off_c, 0, 50, 64
5, 70560, Note_on_c, 0, 49, 64
5, 70800, Note_off_c, 0, 49, 64
5, 70800, Note_on_c, 0, 48, 64
5, 71040, Note_off_c, 0, 48, 64
5, 71040, Note_on_c, 0, 47, 64
5, 71280, Note_off_c, 0, 47, 64
5, 71280, Note_on_c, 0, 45, 64
5, 71400, Note_off_c, 0, 45, 64
5, 71400, Note_on_c, 0, 43, 64
5, 71520, Note_off_c, 0, 43, 64
5, 71520, Note_on_c, 0, 48, 64
5, 71760, Note_off_c, 0, 48, 64
5, 71760, Note_on_c, 0, 53, 64
5, 72000, Note_off_c, 0, 53, 64
5, 72000, Note_on_c, 0, 51, 64
5, 72240, Note_off_c, 0, 51, 64
5, 72240, Note_on_c, 0, 56, 64
5, 72480, Note_off_c, 0, 56, 64
5, 72480, Note_on_c, 0, 50, 64
5, 72720, Note_off_c, 0, 50, 64
5, 72720, Note_on_c, 0, 55, 64
5, 72960, Note_off_c, 0, 55, 64
5, 72960, Note_on_c, 0, 48, 64
5, 73200, Note_off_c, 0, 48, 64
5, 73200, Note_on_c, 0, 50, 64
5, 73440, Note_off_c, 0, 50, 64
5, 73440, Note_on_c, 0, 51, 64
5, 73680, Note_off_c, 0, 51, 64
5, 73680, Note_on_c, 0, 48, 64
5, 73920, Note_off_c, 0, 48, 64
5, 73920, Note_on_c, 0, 53, 64
5, 74160, Note_off_c, 0, 53, 64
5, 74160, Note_on_c, 0, 51, 64
5, 74400, Note_off_c, 0, 51, 64
5, 74400, Note_on_c, 0, 50, 64
5, 74640, Note_off_c, 0, 50, 64
5, 74640, Note_on_c, 0, 46, 64
5, 74880, Note_off_c, 0, 46, 64
5, 74880, Note_on_c, 0, 51, 64
5, 75120, Note_off_c, 0, 51, 64
5, 75120, Note_on_c, 0, 50, 64
5, 75360, Note_off_c, 0, 50, 64
5, 75360, Note_on_c, 0, 48, 64
5, 75600, Note_off_c, 0, 48, 64
5, 75600, Note_on_c, 0, 47, 64
5, 75720, Note_off_c, 0, 47, 64
5, 75720, Note_on_c, 0, 48, 64
5, 75840, Note_off_c, 0, 48, 64
5, 75840, Note_on_c, 0, 50, 64
5, 76080, Note_off_c, 0, 50, 64
5, 76080, Note_on_c, 0, 48, 64
5, 76320, Note_off_c, 0, 48, 64
5, 76320, Note_on_c, 0, 47, 64
5, 76560, Note_off_c, 0, 47, 64
5, 76560, Note_on_c, 0, 43, 64
5, 76800, Note_off_c, 0, 43, 64
5, 76800, Note_on_c, 0, 48, 64
5, 77040, Note_off_c, 0, 48, 64
5, 77040, Note_on_c, 0, 46, 64
5, 77280, Note_off_c, 0, 46, 64
5, 77280, Note_on_c, 0, 44, 64
5, 77520, Note_off_c, 0, 44, 64
5, 77520, Note_on_c, 0, 43, 64
5, 77760, Note_off_c, 0, 43, 64
5, 77760, Note_on_c, 0, 44, 64
5, 78000, Note_off_c, 0, 44, 64
5, 78000, Note_on_c, 0, 41, 64
5, 78240, Note_off_c, 0, 41, 64
5, 78240, Note_on_c, 0, 46, 64
5, 78480, Note_off_c, 0, 46, 64
5, 78480, Note_on_c, 0, 43, 64
5, 78720, Note_off_c, 0, 43, 64
5, 78720, Note_on_c, 0, 44, 64
5, 78960, Note_off_c, 0, 44, 64
5, 78960, Note_on_c, 0, 48, 64
5, 79200, Note_off_c, 0, 48, 64
5, 79200, Note_on_c, 0, 44, 64
5, 79440, Note_off_c, 0, 44, 64
5, 79440, Note_on_c, 0, 43, 64
5, 79680, Note_off_c, 0, 43, 64
5, 79680, Note_on_c, 0, 42, 64
5, 79920, Note_off_c, 0, 42, 64
5, 79920, Note_on_c, 0, 43, 64
5, 80160, Note_off_c, 0, 43, 64
5, 80160, Note_on_c, 0, 45, 64
5, 80400, Note_off_c, 0, 45, 64
5, 80400, Note_on_c, 0, 38, 64
5, 80640, Note_off_c, 0, 38, 64
5, 80640, Note_on_c, 0, 43, 64
5, 80880, Note_off_c, 0, 43, 64
5, 80880, Note_on_c, 0, 53, 64
5, 81120, Note_off_c, 0, 53, 64
5, 81360, Note_on_c, 0, 59, 64
5, 81600, Note_off_c, 0, 59, 64
5, 81600, Note_on_c, 0, 60, 64
5, 81840, Note_off_c, 0, 60, 64
5, 81840, Note_on_c, 0, 56, 64
5, 82080, Note_off_c, 0, 56, 64
5, 82080, Note_on_c, 0, 58, 64
5, 82320, Note_off_c, 0, 58, 64
5, 82320, Note_on_c, 0, 55, 64
5, 82560, Note_off_c, 0, 55, 64
5, 82560, Note_on_c, 0, 56, 64
5, 82800, Note_off_c, 0, 56, 64
5, 82800, Note_on_c, 0, 53, 64
5, 83040, Note_off_c, 0, 53, 64
5, 83040, Note_on_c, 0, 50, 64
5, 83280, Note_off_c, 0, 50, 64
5, 83280, Note_on_c, 0, 43, 64
5, 83520, Note_off_c, 0, 43, 64
5, 83520, Note_on_c, 0, 44, 64
5, 83760, Note_off_c, 0, 44, 64
5, 83760, Note_on_c, 0, 53, 64
5, 84000, Note_off_c, 0, 53, 64
5, 84000, Note_on_c, 0, 55, 64
5, 84240, Note_off_c, 0, 55, 64
5, 84240, Note_on_c, 0, 43, 64
5, 84480, Note_off_c, 0, 43, 64
5, 84480, Note_on_c, 0, 36, 64
5, 84960, Note_off_c, 0, 36, 64
5, 85680, Note_on_c, 0, 48, 64
5, 85920, Note_off_c, 0, 48, 64
5, 85920, Note_on_c, 0, 50, 64
5, 86160, Note_off_c, 0, 50, 64
5, 86160, Note_on_c, 0, 46, 64
5, 86400, Note_off_c, 0, 46, 64
5, 86400, Note_on_c, 0, 51, 64
5, 86640, Note_off_c, 0, 51, 64
5, 86640, Note_on_c, 0, 55, 64
5, 86880, Note_off_c, 0, 55, 64
5, 86880, Note_on_c, 0, 53, 64
5, 87120, Note_off_c, 0, 53, 64
5, 87120, Note_on_c, 0, 58, 64
5, 87360, Note_off_c, 0, 58, 64
5, 87360, Note_on_c, 0, 51, 64
5, 87600, Note_off_c, 0, 51, 64
5, 87600, Note_on_c, 0, 63, 64
5, 87720, Note_off_c, 0, 63, 64
5, 87720, Note_on_c, 0, 62, 64
5, 87840, Note_off_c, 0, 62, 64
5, 87840, Note_on_c, 0, 63, 64
5, 88080, Note_off_c, 0, 63, 64
5, 88080, Note_on_c, 0, 56, 64
5, 88440, Note_off_c, 0, 56, 64
5, 88440, Note_on_c, 0, 53, 64
5, 88560, Note_off_c, 0, 53, 64
5, 88560, Note_on_c, 0, 58, 64
5, 88800, Note_off_c, 0, 58, 64
5, 88800, Note_on_c, 0, 46, 64
5, 89040, Note_off_c, 0, 46, 64
5, 89040, Note_on_c, 0, 44, 64
5, 89160, Note_off_c, 0, 44, 64
5, 89160, Note_on_c, 0, 43, 64
5, 89280, Note_off_c, 0, 43, 64
5, 89280, Note_on_c, 0, 44, 64
5, 89520, Note_off_c, 0, 44, 64
5, 89520, Note_on_c, 0, 56, 64
5, 89760, Note_off_c, 0, 56, 64
5, 89760, Note_on_c, 0, 58, 64
5, 90000, Note_off_c, 0, 58, 64
5, 90000, Note_on_c, 0, 60, 64
5, 90240, Note_off_c, 0, 60, 64
5, 90240, Note_on_c, 0, 53, 64
5, 90480, Note_off_c, 0, 53, 64
5, 90480, Note_on_c, 0, 44, 64
5, 90720, Note_off_c, 0, 44, 64
5, 90720, Note_on_c, 0, 43, 64
5, 90960, Note_off_c, 0, 43, 64
5, 90960, Note_on_c, 0, 48, 64
5, 91200, Note_off_c, 0, 48, 64
5, 91200, Note_on_c, 0, 41, 64
5, 91440, Note_off_c, 0, 41, 64
5, 91440, Note_on_c, 0, 53, 64
5, 91560, Note_off_c, 0, 53, 64
5, 91560, Note_on_c, 0, 51, 64
5, 91680, Note_off_c, 0, 51, 64
5, 91680, Note_on_c, 0, 53, 64
5, 91920, Note_off_c, 0, 53, 64
5, 91920, Note_on_c, 0, 58, 64
5, 92280, Note_off_c, 0, 58, 64
5, 92280, Note_on_c, 0, 55, 64
5, 92400, Note_off_c, 0, 55, 64
5, 92400, Note_on_c, 0, 60, 64
5, 92640, Note_off_c, 0, 60, 64
5, 92640, Note_on_c, 0, 58, 64
5, 92760, Note_off_c, 0, 58, 64
5, 92760, Note_on_c, 0, 56, 64
5, 92880, Note_off_c, 0, 56, 64
5, 92880, Note_on_c, 0, 55, 64
5, 93000, Note_off_c, 0, 55, 64
5, 93000, Note_on_c, 0, 53, 64
5, 93120, Note_off_c, 0, 53, 64
5, 93120, Note_on_c, 0, 52, 64
5, 93360, Note_off_c, 0, 52, 64
5, 93360, Note_on_c, 0, 52, 64
5, 93600, Note_off_c, 0, 52, 64
5, 93600, Note_on_c, 0, 52, 64
5, 93840, Note_off_c, 0, 52, 64
5, 93840, Note_on_c, 0, 52, 64
5, 94080, Note_off_c, 0, 52, 64
5, 94080, Note_on_c, 0, 53, 64
5, 94320, Note_off_c, 0, 53, 64
5, 94320, Note_on_c, 0, 53, 64
5, 94560, Note_off_c, 0, 53, 64
5, 94560, Note_on_c, 0, 53, 64
5, 94800, Note_off_c, 0, 53, 64
5, 94800, Note_on_c, 0, 53, 64
5, 95040, Note_off_c, 0, 53, 64
5, 95040, Note_on_c, 0, 48, 64
5, 95280, Note_off_c, 0, 48, 64
5, 95280, Note_on_c, 0, 48, 64
5, 95520, Note_off_c, 0, 48, 64
5, 95520, Note_on_c, 0, 48, 64
5, 95760, Note_off_c, 0, 48, 64
5, 95760, Note_on_c, 0, 48, 64
5, 96000, Note_off_c, 0, 48, 64
5, 96000, Note_on_c, 0, 53, 64
5, 96120, Note_off_c, 0, 53, 64
5, 96120, Note_on_c, 0, 55, 64
5, 96240, Note_off_c, 0, 55, 64
5, 96240, Note_on_c, 0, 56, 64
5, 96360, Note_off_c, 0, 56, 64
5, 96360, Note_on_c, 0, 58, 64
5, 96480, Note_off_c, 0, 58, 64
5, 96480, Note_on_c, 0, 60, 64
5, 96600, Note_off_c, 0, 60, 64
5, 96600, Note_on_c, 0, 62, 64
5, 96720, Note_off_c, 0, 62, 64
5, 96720, Note_on_c, 0, 63, 64
5, 96960, Note_off_c, 0, 63, 64
5, 96960, Note_on_c, 0, 54, 64
5, 97200, Note_off_c, 0, 54, 64
5, 97200, Note_on_c, 0, 54, 64
5, 97440, Note_off_c, 0, 54, 64
5, 97440, Note_on_c, 0, 54, 64
5, 97680, Note_off_c, 0, 54, 64
5, 97680, Note_on_c, 0, 54, 64
5, 97920, Note_off_c, 0, 54, 64
5, 97920, Note_on_c, 0, 55, 64
5, 98160, Note_off_c, 0, 55, 64
5, 98160, Note_on_c, 0, 55, 64
5, 98400, Note_off_c, 0, 55, 64
5, 98400, Note_on_c, 0, 55, 64
5, 98640, Note_off_c, 0, 55, 64
5, 98640, Note_on_c, 0, 55, 64
5, 98880, Note_off_c, 0, 55, 64
5, 98880, Note_on_c, 0, 50, 64
5, 99120, Note_off_c, 0, 50, 64
5, 99120, Note_on_c, 0, 50, 64
5, 99360, Note_off_c, 0, 50, 64
5, 99360, Note_on_c, 0, 50, 64
5, 99600, Note_off_c, 0, 50, 64
5, 99600, Note_on_c, 0, 50, 64
5, 99840, Note_off_c, 0, 50, 64
5, 99840, Note_on_c, 0, 55, 64
5, 99960, Note_off_c, 0, 55, 64
5, 99960, Note_on_c, 0, 54, 64
5, 100080, Note_off_c, 0, 54, 64
5, 100080, Note_on_c, 0, 55, 64
5, 100200, Note_off_c, 0, 55, 64
5, 100200, Note_on_c, 0, 63, 64
5, 100320, Note_off_c, 0, 63, 64
5, 100320, Note_on_c, 0, 63, 64
5, 100440, Note_off_c, 0, 63, 64
5, 100440, Note_on_c, 0, 62, 64
5, 100560, Note_off_c, 0, 62, 64
5, 100560, Note_on_c, 0, 63, 64
5, 100680, Note_off_c, 0, 63, 64
5, 100680, Note_on_c, 0, 55, 64
5, 100800, Note_off_c, 0, 55, 64
5, 100800, Note_on_c, 0, 53, 64
5, 100920, Note_off_c, 0, 53, 64
5, 100920, Note_on_c, 0, 51, 64
5, 101040, Note_off_c, 0, 51, 64
5, 101040, Note_on_c, 0, 53, 64
5, 101160, Note_off_c, 0, 53, 64
5, 101160, Note_on_c, 0, 62, 64
5, 101280, Note_off_c, 0, 62, 64
5, 101280, Note_on_c, 0, 62, 64
5, 101400, Note_off_c, 0, 62, 64
5, 101400, Note_on_c, 0, 60, 64
5, 101520, Note_off_c, 0, 60, 64
5, 101520, Note_on_c, 0, 62, 64
5, 101640, Note_off_c, 0, 62, 64
5, 101640, Note_on_c, 0, 53, 64
5, 101760, Note_off_c, 0, 53, 64
5, 101760, Note_on_c, 0, 51, 64
5, 101880, Note_off_c, 0, 51, 64
5, 101880, Note_on_c, 0, 50, 64
5, 102000, Note_off_c, 0, 50, 64
5, 102000, Note_on_c, 0, 51, 64
5, 102120, Note_off_c, 0, 51, 64
5, 102120, Note_on_c, 0, 60, 64
5, 102240, Note_off_c, 0, 60, 64
5, 102240, Note_on_c, 0, 60, 64
5, 102360, Note_off_c, 0, 60, 64
5, 102360, Note_on_c, 0, 58, 64
5, 102480, Note_off_c, 0, 58, 64
5, 102480, Note_on_c, 0, 60, 64
5, 102600, Note_off_c, 0, 60, 64
5, 102600, Note_on_c, 0, 51, 64
5, 102720, Note_off_c, 0, 51, 64
5, 102720, Note_on_c, 0, 50, 64
5, 102960, Note_off_c, 0, 50, 64
5, 102960, Note_on_c, 0, 38, 64
5, 103200, Note_off_c, 0, 38, 64
5, 103440, Note_on_c, 0, 50, 64
5, 103680, Note_off_c, 0, 50, 64
5, 103680, Note_on_c, 0, 51, 64
5, 103920, Note_off_c, 0, 51, 64
5, 103920, Note_on_c, 0, 39, 64
5, 104160, Note_off_c, 0, 39, 64
5, 104400, Note_on_c, 0, 51, 64
5, 104640, Note_off_c, 0, 51, 64
5, 104640, Note_on_c, 0, 42, 64
5, 104880, Note_off_c, 0, 42, 64
5, 104880, Note_on_c, 0, 45, 64
5, 105120, Note_off_c, 0, 45, 64
5, 105120, Note_on_c, 0, 48, 64
5, 105360, Note_off_c, 0, 48, 64
5, 105360, Note_on_c, 0, 45, 64
5, 105600, Note_off_c, 0, 45, 64
5, 105600, Note_on_c, 0, 46, 64
5, 105840, Note_off_c, 0, 46, 64
5, 105840, Note_on_c, 0, 43, 64
5, 106080, Note_off_c, 0, 43, 64
5, 106080, Note_on_c, 0, 48, 64
5, 106320, Note_off_c, 0, 48, 64
5, 106320, Note_on_c, 0, 45, 64
5, 106560, Note_off_c, 0, 45, 64
5, 106560, Note_on_c, 0, 50, 64
5, 106800, Note_off_c, 0, 50, 64
5, 106800, Note_on_c, 0, 46, 64
5, 107040, Note_off_c, 0, 46, 64
5, 107040, Note_on_c, 0, 51, 64
5, 107280, Note_off_c, 0, 51, 64
5, 107280, Note_on_c, 0, 48, 64
5, 107520, Note_off_c, 0, 48, 64
5, 107520, Note_on_c, 0, 54, 64
5, 107760, Note_off_c, 0, 54, 64
5, 107760, Note_on_c, 0, 57, 64
5, 108000, Note_off_c, 0, 57, 64
5, 108000, Note_on_c, 0, 50, 64
5, 108240, Note_off_c, 0, 50, 64
5, 108240, Note_on_c, 0, 54, 64
5, 108480, Note_off_c, 0, 54, 64
5, 108480, Note_on_c, 0, 46, 64
5, 108720, Note_off_c, 0, 46, 64
5, 108720, Note_on_c, 0, 51, 64
5, 108960, Note_off_c, 0, 51, 64
5, 108960, Note_on_c, 0, 45, 64
5, 109200, Note_off_c, 0, 45, 64
5, 109200, Note_on_c, 0, 54, 64
5, 109440, Note_off_c, 0, 54, 64
5, 109440, Note_on_c, 0, 55, 64
5, 109680, Note_off_c, 0, 55, 64
5, 109680, Note_on_c, 0, 43, 64
5, 109920, Note_off_c, 0, 43, 64
5, 109920, Note_on_c, 0, 48, 64
5, 110160, Note_off_c, 0, 48, 64
5, 110160, Note_on_c, 0, 46, 64
5, 110400, Note_off_c, 0, 46, 64
5, 110400, Note_on_c, 0, 44, 64
5, 110640, Note_off_c, 0, 44, 64
5, 110640, Note_on_c, 0, 49, 64
5, 110880, Note_off_c, 0, 49, 64
5, 110880, Note_on_c, 0, 43, 64
5, 111120, Note_off_c, 0, 43, 64
5, 111120, Note_on_c, 0, 52, 64
5, 111360, Note_off_c, 0, 52, 64
5, 111360, Note_on_c, 0, 53, 64
5, 111600, Note_off_c, 0, 53, 64
5, 111600, Note_on_c, 0, 56, 64
5, 111840, Note_off_c, 0, 56, 64
5, 111840, Note_on_c, 0, 47, 64
5, 112080, Note_off_c, 0, 47, 64
5, 112080, Note_on_c, 0, 55, 64
5, 112320, Note_off_c, 0, 55, 64
5, 112320, Note_on_c, 0, 48, 64
5, 112680, Note_off_c, 0, 48, 64
5, 112680, Note_on_c, 0, 50, 64
5, 112740, Note_off_c, 0, 50, 64
5, 112740, Note_on_c, 0, 51, 64
5, 112800, Note_off_c, 0, 51, 64
5, 112800, Note_on_c, 0, 50, 64
5, 113160, Note_off_c, 0, 50, 64
5, 113160, Note_on_c, 0, 51, 64
5, 113220, Note_off_c, 0, 51, 64
5, 113220, Note_on_c, 0, 53, 64
5, 113280, Note_off_c, 0, 53, 64
5, 113280, Note_on_c, 0, 51, 64
5, 113400, Note_off_c, 0, 51, 64
5, 113400, Note_on_c, 0, 50, 64
5, 113520, Note_off_c, 0, 50, 64
5, 113520, Note_on_c, 0, 48, 64
5, 113640, Note_off_c, 0, 48, 64
5, 113640, Note_on_c, 0, 47, 64
5, 113760, Note_off_c, 0, 47, 64
5, 113760, Note_on_c, 0, 48, 64
5, 113880, Note_off_c, 0, 48, 64
5, 113880, Note_on_c, 0, 55, 64
5, 114000, Note_off_c, 0, 55, 64
5, 114000, Note_on_c, 0, 51, 64
5, 114120, Note_off_c, 0, 51, 64
5, 114120, Note_on_c, 0, 48, 64
5, 114240, Note_off_c, 0, 48, 64
5, 114240, Note_on_c, 0, 47, 64
5, 114360, Note_off_c, 0, 47, 64
5, 114360, Note_on_c, 0, 43, 64
5, 114480, Note_off_c, 0, 43, 64
5, 114480, Note_on_c, 0, 47, 64
5, 114600, Note_off_c, 0, 47, 64
5, 114600, Note_on_c, 0, 50, 64
5, 114720, Note_off_c, 0, 50, 64
5, 114720, Note_on_c, 0, 48, 64
5, 114840, Note_off_c, 0, 48, 64
5, 114840, Note_on_c, 0, 47, 64
5, 114960, Note_off_c, 0, 47, 64
5, 114960, Note_on_c, 0, 48, 64
5, 115080, Note_off_c, 0, 48, 64
5, 115080, Note_on_c, 0, 51, 64
5, 115200, Note_off_c, 0, 51, 64
5, 115200, Note_on_c, 0, 50, 64
5, 115320, Note_off_c, 0, 50, 64
5, 115320, Note_on_c, 0, 48, 64
5, 115440, Note_off_c, 0, 48, 64
5, 115440, Note_on_c, 0, 47, 64
5, 115560, Note_off_c, 0, 47, 64
5, 115560, Note_on_c, 0, 45, 64
5, 115680, Note_off_c, 0, 45, 64
5, 115680, Note_on_c, 0, 43, 64
5, 115800, Note_off_c, 0, 43, 64
5, 115800, Note_on_c, 0, 50, 64
5, 115920, Note_off_c, 0, 50, 64
5, 115920, Note_on_c, 0, 51, 64
5, 116040, Note_off_c, 0, 51, 64
5, 116040, Note_on_c, 0, 47, 64
5, 116160, Note_off_c, 0, 47, 64
5, 116160, Note_on_c, 0, 48, 64
5, 116280, Note_off_c, 0, 48, 64
5, 116280, Note_on_c, 0, 47, 64
5, 116400, Note_off_c, 0, 47, 64
5, 116400, Note_on_c, 0, 48, 64
5, 116520, Note_off_c, 0, 48, 64
5, 116520, Note_on_c, 0, 56, 64
5, 116640, Note_off_c, 0, 56, 64
5, 116640, Note_on_c, 0, 56, 64
5, 116760, Note_off_c, 0, 56, 64
5, 116760, Note_on_c, 0, 55, 64
5, 116880, Note_off_c, 0, 55, 64
5, 116880, Note_on_c, 0, 56, 64
5, 117000, Note_off_c, 0, 56, 64
5, 117000, Note_on_c, 0, 46, 64
5, 117120, Note_off_c, 0, 46, 64
5, 117120, Note_on_c, 0, 46, 64
5, 117240, Note_off_c, 0, 46, 64
5, 117240, Note_on_c, 0, 45, 64
5, 117360, Note_off_c, 0, 45, 64
5, 117360, Note_on_c, 0, 46, 64
5, 117480, Note_off_c, 0, 46, 64
5, 117480, Note_on_c, 0, 55, 64
5, 117600, Note_off_c, 0, 55, 64
5, 117600, Note_on_c, 0, 55, 64
5, 117720, Note_off_c, 0, 55, 64
5, 117720, Note_on_c, 0, 53, 64
5, 117840, Note_off_c, 0, 53, 64
5, 117840, Note_on_c, 0, 55, 64
5, 117960, Note_off_c, 0, 55, 64
5, 117960, Note_on_c, 0, 44, 64
5, 118080, Note_off_c, 0, 44, 64
5, 118080, Note_on_c, 0, 44, 64
5, 118200, Note_off_c, 0, 44, 64
5, 118200, Note_on_c, 0, 43, 64
5, 118320, Note_off_c, 0, 43, 64
5, 118320, Note_on_c, 0, 44, 64
5, 118440, Note_off_c, 0, 44, 64
5, 118440, Note_on_c, 0, 53, 64
5, 118560, Note_off_c, 0, 53, 64
5, 118560, Note_on_c, 0, 53, 64
5, 118680, Note_off_c, 0, 53, 64
5, 118680, Note_on_c, 0, 51, 64
5, 118800, Note_off_c, 0, 51, 64
5, 118800, Note_on_c, 0, 53, 64
5, 118920, Note_off_c, 0, 53, 64
5, 118920, Note_on_c, 0, 44, 64
5, 119040, Note_off_c, 0, 44, 64
5, 119040, Note_on_c, 0, 43, 64
5, 119280, Note_off_c, 0, 43, 64
5, 119280, Note_on_c, 0, 53, 64
5, 119520, Note_off_c, 0, 53, 64
5, 119520, Note_on_c, 0, 51, 64
5, 119760, Note_off_c, 0, 51, 64
5, 119760, Note_on_c, 0, 50, 64
5, 120000, Note_off_c, 0, 50, 64
5, 120000, Note_on_c, 0, 48, 64
5, 120120, Note_off_c, 0, 48, 64
5, 120120, Note_on_c, 0, 55, 64
5, 120240, Note_off_c, 0, 55, 64
5, 120240, Note_on_c, 0, 60, 64
5, 120600, Note_off_c, 0, 60, 64
5, 120600, Note_on_c, 0, 56, 64
5, 120720, Note_off_c, 0, 56, 64
5, 120720, Note_on_c, 0, 58, 64
5, 121080, Note_off_c, 0, 58, 64
5, 121080, Note_on_c, 0, 55, 64
5, 121200, Note_off_c, 0, 55, 64
5, 121200, Note_on_c, 0, 56, 64
5, 121560, Note_off_c, 0, 56, 64
5, 121560, Note_on_c, 0, 53, 64
5, 121680, Note_off_c, 0, 53, 64
5, 121680, Note_on_c, 0, 55, 64
5, 121800, Note_off_c, 0, 55, 64
5, 121800, Note_on_c, 0, 60, 64
5, 121920, Note_off_c, 0, 60, 64
5, 121920, Note_on_c, 0, 53, 64
5, 122040, Note_off_c, 0, 53, 64
5, 122040, Note_on_c, 0, 52, 64
5, 122160, Note_off_c, 0, 52, 64
5, 122160, Note_on_c, 0, 53, 64
5, 122520, Note_off_c, 0, 53, 64
5, 122520, Note_on_c, 0, 62, 64
5, 122640, Note_off_c, 0, 62, 64
5, 122640, Note_on_c, 0, 51, 64
5, 123000, Note_off_c, 0, 51, 64
5, 123000, Note_on_c, 0, 60, 64
5, 123120, Note_off_c, 0, 60, 64
5, 123120, Note_on_c, 0, 50, 64
5, 123480, Note_off_c, 0, 50, 64
5, 123480, Note_on_c, 0, 46, 64
5, 123600, Note_off_c, 0, 46, 64
5, 123600, Note_on_c, 0, 48, 64
5, 123720, Note_off_c, 0, 48, 64
5, 123720, Note_on_c, 0, 53, 64
5, 123840, Note_off_c, 0, 53, 64
5, 123840, Note_on_c, 0, 46, 64
5, 123960, Note_off_c, 0, 46, 64
5, 123960, Note_on_c, 0, 53, 64
5, 124080, Note_off_c, 0, 53, 64
5, 124080, Note_on_c, 0, 58, 64
5, 124440, Note_off_c, 0, 58, 64
5, 124440, Note_on_c, 0, 55, 64
5, 124560, Note_off_c, 0, 55, 64
5, 124560, Note_on_c, 0, 56, 64
5, 124920, Note_off_c, 0, 56, 64
5, 124920, Note_on_c, 0, 53, 64
5, 125040, Note_off_c, 0, 53, 64
5, 125040, Note_on_c, 0, 55, 64
5, 125400, Note_off_c, 0, 55, 64
5, 125400, Note_on_c, 0, 51, 64
5, 125520, Note_off_c, 0, 51, 64
5, 125520, Note_on_c, 0, 53, 64
5, 125640, Note_off_c, 0, 53, 64
5, 125640, Note_on_c, 0, 58, 64
5, 125760, Note_off_c, 0, 58, 64
5, 125760, Note_on_c, 0, 51, 64
5, 125880, Note_off_c, 0, 51, 64
5, 125880, Note_on_c, 0, 50, 64
5, 126000, Note_off_c, 0, 50, 64
5, 126000, Note_on_c, 0, 51, 64
5, 126360, Note_off_c, 0, 51, 64
5, 126360, Note_on_c, 0, 60, 64
5, 126480, Note_off_c, 0, 60, 64
5, 126480, Note_on_c, 0, 49, 64
5, 126840, Note_off_c, 0, 49, 64
5, 126840, Note_on_c, 0, 58, 64
5, 126960, Note_off_c, 0, 58, 64
5, 126960, Note_on_c, 0, 48, 64
5, 127320, Note_off_c, 0, 48, 64
5, 127320, Note_on_c, 0, 44, 64
5, 127440, Note_off_c, 0, 44, 64
5, 127440, Note_on_c, 0, 46, 64
5, 127560, Note_off_c, 0, 46, 64
5, 127560, Note_on_c, 0, 51, 64
5, 127680, Note_off_c, 0, 51, 64
5, 127680, Note_on_c, 0, 44, 64
5, 127800, Note_off_c, 0, 44, 64
5, 127800, Note_on_c, 0, 51, 64
5, 127920, Note_off_c, 0, 51, 64
5, 127920, Note_on_c, 0, 56, 64
5, 128400, Note_off_c, 0, 56, 64
5, 128400, Note_on_c, 0, 55, 64
5, 128640, Note_off_c, 0, 55, 64
5, 128640, Note_on_c, 0, 53, 64
5, 128880, Note_off_c, 0, 53, 64
5, 128880, Note_on_c, 0, 56, 64
5, 129120, Note_off_c, 0, 56, 64
5, 129120, Note_on_c, 0, 58, 64
5, 129360, Note_off_c, 0, 58, 64
5, 129360, Note_on_c, 0, 51, 64
5, 129600, Note_off_c, 0, 51, 64
5, 129600, Note_on_c, 0, 44, 64
5, 129720, Note_off_c, 0, 44, 64
5, 129720, Note_on_c, 0, 48, 64
5, 129840, Note_off_c, 0, 48, 64
5, 129840, Note_on_c, 0, 53, 64
5, 130200, Note_off_c, 0, 53, 64
5, 130200, Note_on_c, 0, 52, 64
5, 130320, Note_off_c, 0, 52, 64
5, 130320, Note_on_c, 0, 58, 64
5, 130560, Note_off_c, 0, 58, 64
5, 130560, Note_on_c, 0, 56, 64
5, 130800, Note_off_c, 0, 56, 64
5, 130800, Note_on_c, 0, 58, 64
5, 131040, Note_off_c, 0, 58, 64
5, 131040, Note_on_c, 0, 56, 64
5, 131280, Note_off_c, 0, 56, 64
5, 131280, Note_on_c, 0, 53, 64
5, 131520, Note_off_c, 0, 53, 64
5, 131520, Note_on_c, 0, 49, 64
5, 131760, Note_off_c, 0, 49, 64
5, 131760, Note_on_c, 0, 58, 64
5, 132000, Note_off_c, 0, 58, 64
5, 132000, Note_on_c, 0, 54, 64
5, 132240, Note_off_c, 0, 54, 64
5, 132240, Note_on_c, 0, 51, 64
5, 132480, Note_off_c, 0, 51, 64
5, 132480, Note_on_c, 0, 45, 64
5, 132720, Note_off_c, 0, 45, 64
5, 132720, Note_on_c, 0, 45, 64
5, 132960, Note_off_c, 0, 45, 64
5, 132960, Note_on_c, 0, 45, 64
5, 133200, Note_off_c, 0, 45, 64
5, 133200, Note_on_c, 0, 45, 64
5, 133440, Note_off_c, 0, 45, 64
5, 133440, Note_on_c, 0, 46, 64
5, 133680, Note_off_c, 0, 46, 64
5, 133680, Note_on_c, 0, 46, 64
5, 133920, Note_off_c, 0, 46, 64
5, 133920, Note_on_c, 0, 46, 64
5, 134160, Note_off_c, 0, 46, 64
5, 134160, Note_on_c, 0, 46, 64
5, 134400, Note_off_c, 0, 46, 64
5, 134400, Note_on_c, 0, 41, 64
5, 134640, Note_off_c, 0, 41, 64
5, 134640, Note_on_c, 0, 41, 64
5, 134880, Note_off_c, 0, 41, 64
5, 134880, Note_on_c, 0, 41, 64
5, 135120, Note_off_c, 0, 41, 64
5, 135120, Note_on_c, 0, 41, 64
5, 135360, Note_off_c, 0, 41, 64
5, 135360, Note_on_c, 0, 46, 64
5, 135480, Note_off_c, 0, 46, 64
5, 135480, Note_on_c, 0, 48, 64
5, 135600, Note_off_c, 0, 48, 64
5, 135600, Note_on_c, 0, 49, 64
5, 135720, Note_off_c, 0, 49, 64
5, 135720, Note_on_c, 0, 51, 64
5, 135840, Note_off_c, 0, 51, 64
5, 135840, Note_on_c, 0, 53, 64
5, 135960, Note_off_c, 0, 53, 64
5, 135960, Note_on_c, 0, 55, 64
5, 136080, Note_off_c, 0, 55, 64
5, 136080, Note_on_c, 0, 56, 64
5, 136320, Note_off_c, 0, 56, 64
5, 136320, Note_on_c, 0, 47, 64
5, 136560, Note_off_c, 0, 47, 64
5, 136560, Note_on_c, 0, 47, 64
5, 136800, Note_off_c, 0, 47, 64
5, 136800, Note_on_c, 0, 47, 64
5, 137040, Note_off_c, 0, 47, 64
5, 137040, Note_on_c, 0, 47, 64
5, 137280, Note_off_c, 0, 47, 64
5, 137280, Note_on_c, 0, 48, 64
5, 137520, Note_off_c, 0, 48, 64
5, 137520, Note_on_c, 0, 48, 64
5, 137760, Note_off_c, 0, 48, 64
5, 137760, Note_on_c, 0, 48, 64
5, 138000, Note_off_c, 0, 48, 64
5, 138000, Note_on_c, 0, 48, 64
5, 138240, Note_off_c, 0, 48, 64
5, 138240, Note_on_c, 0, 43, 64
5, 138480, Note_off_c, 0, 43, 64
5, 138480, Note_on_c, 0, 43, 64
5, 138720, Note_off_c, 0, 43, 64
5, 138720, Note_on_c, 0, 43, 64
5, 138960, Note_off_c, 0, 43, 64
5, 138960, Note_on_c, 0, 43, 64
5, 139200, Note_off_c, 0, 43, 64
5, 139200, Note_on_c, 0, 48, 64
5, 139320, Note_off_c, 0, 48, 64
5, 139320, Note_on_c, 0, 47, 64
5, 139440, Note_off_c, 0, 47, 64
5, 139440, Note_on_c, 0, 48, 64
5, 139560, Note_off_c, 0, 48, 64
5, 139560, Note_on_c, 0, 56, 64
5, 139680, Note_off_c, 0, 56, 64
5, 139680, Note_on_c, 0, 56, 64
5, 139800, Note_off_c, 0, 56, 64
5, 139800, Note_on_c, 0, 55, 64
5, 139920, Note_off_c, 0, 55, 64
5, 139920, Note_on_c, 0, 56, 64
5, 140040, Note_off_c, 0, 56, 64
5, 140040, Note_on_c, 0, 48, 64
5, 140160, Note_off_c, 0, 48, 64
5, 140160, Note_on_c, 0, 46, 64
5, 140280, Note_off_c, 0, 46, 64
5, 140280, Note_on_c, 0, 45, 64
5, 140400, Note_off_c, 0, 45, 64
5, 140400, Note_on_c, 0, 46, 64
5, 140520, Note_off_c, 0, 46, 64
5, 140520, Note_on_c, 0, 55, 64
5, 140640, Note_off_c, 0, 55, 64
5, 140640, Note_on_c, 0, 55, 64
5, 140760, Note_off_c, 0, 55, 64
5, 140760, Note_on_c, 0, 53, 64
5, 140880, Note_off_c, 0, 53, 64
5, 140880, Note_on_c, 0, 55, 64
5, 141000, Note_off_c, 0, 55, 64
5, 141000, Note_on_c, 0, 46, 64
5, 141120, Note_off_c, 0, 46, 64
5, 141120, Note_on_c, 0, 44, 64
5, 141240, Note_off_c, 0, 44, 64
5, 141240, Note_on_c, 0, 43, 64
5, 141360, Note_off_c, 0, 43, 64
5, 141360, Note_on_c, 0, 44, 64
5, 141480, Note_off_c, 0, 44, 64
5, 141480, Note_on_c, 0, 53, 64
5, 141600, Note_off_c, 0, 53, 64
5, 141600, Note_on_c, 0, 53, 64
5, 141720, Note_off_c, 0, 53, 64
5, 141720, Note_on_c, 0, 51, 64
5, 141840, Note_off_c, 0, 51, 64
5, 141840, Note_on_c, 0, 53, 64
5, 141960, Note_off_c, 0, 53, 64
5, 141960, Note_on_c, 0, 44, 64
5, 142080, Note_off_c, 0, 44, 64
5, 142080, Note_on_c, 0, 43, 64
5, 142320, Note_off_c, 0, 43, 64
5, 142320, Note_on_c, 0, 55, 64
5, 142560, Note_off_c, 0, 55, 64
5, 142800, Note_on_c, 0, 55, 64
5, 143040, Note_off_c, 0, 55, 64
5, 143040, Note_on_c, 0, 44, 64
5, 143280, Note_off_c, 0, 44, 64
5, 143280, Note_on_c, 0, 56, 64
5, 143520, Note_off_c, 0, 56, 64
5, 143760, Note_on_c, 0, 56, 64
5, 144000, Note_off_c, 0, 56, 64
5, 144000, Note_on_c, 0, 47, 64
5, 144240, Note_off_c, 0, 47, 64
5, 144240, Note_on_c, 0, 50, 64
5, 144480, Note_off_c, 0, 50, 64
5, 144480, Note_on_c, 0, 53, 64
5, 144720, Note_off_c, 0, 53, 64
5, 144720, Note_on_c, 0, 50, 64
5, 144960, Note_off_c, 0, 50, 64
5, 144960, Note_on_c, 0, 51, 64
5, 145200, Note_off_c, 0, 51, 64
5, 145200, Note_on_c, 0, 48, 64
5, 145440, Note_off_c, 0, 48, 64
5, 145440, Note_on_c, 0, 53, 64
5, 145680, Note_off_c, 0, 53, 64
5, 145680, Note_on_c, 0, 50, 64
5, 145920, Note_off_c, 0, 50, 64
5, 145920, Note_on_c, 0, 51, 64
5, 146160, Note_off_c, 0, 51, 64
5, 146160, Note_on_c, 0, 56, 64
5, 146400, Note_off_c, 0, 56, 64
5, 146400, Note_on_c, 0, 53, 64
5, 146640, Note_off_c, 0, 53, 64
5, 146640, Note_on_c, 0, 55, 64
5, 146880, Note_off_c, 0, 55, 64
5, 146880, Note_on_c, 0, 48, 64
5, 147120, Note_off_c, 0, 48, 64
5, 147120, Note_on_c, 0, 53, 64
5, 147360, Note_off_c, 0, 53, 64
5, 147360, Note_on_c, 0, 49, 64
5, 147600, Note_off_c, 0, 49, 64
5, 147600, Note_on_c, 0, 51, 64
5, 147840, Note_off_c, 0, 51, 64
5, 147840, Note_on_c, 0, 44, 64
5, 148080, Note_off_c, 0, 44, 64
5, 148080, Note_on_c, 0, 49, 64
5, 148320, Note_off_c, 0, 49, 64
5, 148320, Note_on_c, 0, 46, 64
5, 148560, Note_off_c, 0, 46, 64
5, 148560, Note_on_c, 0, 48, 64
5, 148800, Note_off_c, 0, 48, 64
5, 148800, Note_on_c, 0, 41, 64
5, 149280, Note_off_c, 0, 41, 64
5, 149760, Note_on_c, 0, 41, 64
5, 150240, Note_off_c, 0, 41, 64
5, 150960, Note_on_c, 0, 41, 64
5, 151200, Note_off_c, 0, 41, 64
5, 151200, Note_on_c, 0, 41, 64
5, 151440, Note_off_c, 0, 41, 64
5, 151440, Note_on_c, 0, 41, 64
5, 151680, Note_off_c, 0, 41, 64
5, 151680, Note_on_c, 0, 42, 64
5, 152640, Note_off_c, 0, 42, 64
5, 152640, Note_on_c, 0, 43, 64
5, 152880, Note_off_c, 0, 43, 64
5, 152880, Note_on_c, 0, 55, 64
5, 153000, Note_off_c, 0, 55, 64
5, 153000, Note_on_c, 0, 56, 64
5, 153120, Note_off_c, 0, 56, 64
5, 153120, Note_on_c, 0, 55, 64
5, 153240, Note_off_c, 0, 55, 64
5, 153240, Note_on_c, 0, 53, 64
5, 153360, Note_off_c, 0, 53, 64
5, 153360, Note_on_c, 0, 51, 64
5, 153480, Note_off_c, 0, 51, 64
5, 153480, Note_on_c, 0, 50, 64
5, 153600, Note_off_c, 0, 50, 64
5, 153600, Note_on_c, 0, 51, 64
5, 153840, Note_off_c, 0, 51, 64
5, 153840, Note_on_c, 0, 48, 64
5, 154080, Note_off_c, 0, 48, 64
5, 154080, Note_on_c, 0, 47, 64
5, 154320, Note_off_c, 0, 47, 64
5, 154320, Note_on_c, 0, 43, 64
5, 154560, Note_off_c, 0, 43, 64
5, 154560, Note_on_c, 0, 48, 64
5, 154800, Note_off_c, 0, 48, 64
5, 154800, Note_on_c, 0, 36, 64
5, 155040, Note_off_c, 0, 36, 64
5, 155760, Note_on_c, 0, 55, 64
5, 156240, Note_off_c, 0, 55, 64
5, 156240, Note_on_c, 0, 53, 64
5, 156720, Note_off_c, 0, 53, 64
5, 156720, Note_on_c, 0, 55, 64
5, 156840, Note_off_c, 0, 55, 64
5, 156840, Note_on_c, 0, 53, 64
5, 156960, Note_off_c, 0, 53, 64
5, 156960, Note_on_c, 0, 51, 64
5, 157200, Note_off_c, 0, 51, 64
5, 157200, Note_on_c, 0, 48, 64
5, 157440, Note_off_c, 0, 48, 64
5, 157440, Note_on_c, 0, 45, 64
5, 157680, Note_off_c, 0, 45, 64
5, 157680, Note_on_c, 0, 50, 64
5, 158040, Note_off_c, 0, 50, 64
5, 158040, Note_on_c, 0, 52, 64
5, 158160, Note_off_c, 0, 52, 64
5, 158160, Note_on_c, 0, 53, 64
5, 158280, Note_off_c, 0, 53, 64
5, 158280, Note_on_c, 0, 50, 64
5, 158400, Note_off_c, 0, 50, 64
5, 158400, Note_on_c, 0, 43, 64
5, 158640, Note_off_c, 0, 43, 64
5, 158640, Note_on_c, 0, 48, 64
5, 159000, Note_off_c, 0, 48, 64
5, 159000, Note_on_c, 0, 50, 64
5, 159120, Note_off_c, 0, 50, 64
5, 159120, Note_on_c, 0, 51, 64
5, 159240, Note_off_c, 0, 51, 64
5, 159240, Note_on_c, 0, 48, 64
5, 159360, Note_off_c, 0, 48, 64
5, 159360, Note_on_c, 0, 41, 64
5, 159600, Note_off_c, 0, 41, 64
5, 159600, Note_on_c, 0, 53, 64
5, 159840, Note_off_c, 0, 53, 64
5, 160080, Note_on_c, 0, 53, 64
5, 160440, Note_off_c, 0, 53, 64
5, 160440, Note_on_c, 0, 50, 64
5, 160560, Note_off_c, 0, 50, 64
5, 160560, Note_on_c, 0, 51, 64
5, 160680, Note_off_c, 0, 51, 64
5, 160680, Note_on_c, 0, 53, 64
5, 160800, Note_off_c, 0, 53, 64
5, 160800, Note_on_c, 0, 51, 64
5, 160920, Note_off_c, 0, 51, 64
5, 160920, Note_on_c, 0, 50, 64
5, 161040, Note_off_c, 0, 50, 64
5, 161040, Note_on_c, 0, 48, 64
5, 161160, Note_off_c, 0, 48, 64
5, 161160, Note_on_c, 0, 47, 64
5, 161280, Note_off_c, 0, 47, 64
5, 161280, Note_on_c, 0, 48, 64
5, 161400, Note_off_c, 0, 48, 64
5, 161400, Note_on_c, 0, 55, 64
5, 161520, Note_off_c, 0, 55, 64
5, 161520, Note_on_c, 0, 60, 64
5, 162000, Note_off_c, 0, 60, 64
5, 162000, Note_on_c, 0, 59, 64
5, 162240, Note_off_c, 0, 59, 64
5, 162240, Note_on_c, 0, 60, 64
5, 162480, Note_off_c, 0, 60, 64
5, 162480, Note_on_c, 0, 58, 64
5, 162720, Note_off_c, 0, 58, 64
5, 162720, Note_on_c, 0, 56, 64
5, 162960, Note_off_c, 0, 56, 64
5, 162960, Note_on_c, 0, 55, 64
5, 163200, Note_off_c, 0, 55, 64
5, 163200, Note_on_c, 0, 54, 64
5, 163560, Note_off_c, 0, 54, 64
5, 163560, Note_on_c, 0, 55, 64
5, 163620, Note_off_c, 0, 55, 64
5, 163620, Note_on_c, 0, 57, 64
5, 163680, Note_off_c, 0, 57, 64
5, 163680, Note_on_c, 0, 55, 64
5, 164040, Note_off_c, 0, 55, 64
5, 164040, Note_on_c, 0, 57, 64
5, 164100, Note_off_c, 0, 57, 64
5, 164100, Note_on_c, 0, 58, 64
5, 164160, Note_off_c, 0, 58, 64
5, 164160, Note_on_c, 0, 52, 64
5, 164520, Note_off_c, 0, 52, 64
5, 164520, Note_on_c, 0, 54, 64
5, 164580, Note_off_c, 0, 54, 64
5, 164580, Note_on_c, 0, 55, 64
5, 164640, Note_off_c, 0, 55, 64
5, 164640, Note_on_c, 0, 54, 64
5, 165000, Note_off_c, 0, 54, 64
5, 165000, Note_on_c, 0, 55, 64
5, 165060, Note_off_c, 0, 55, 64
5, 165060, Note_on_c, 0, 57, 64
5, 165120, Note_off_c, 0, 57, 64
5, 165120, Note_on_c, 0, 55, 64
5, 165360, Note_off_c, 0, 55, 64
5, 165360, Note_on_c, 0, 51, 64
5, 165600, Note_off_c, 0, 51, 64
5, 165600, Note_on_c, 0, 48, 64
5, 165840, Note_off_c, 0, 48, 64
5, 165840, Note_on_c, 0, 50, 64
5, 166080, Note_off_c, 0, 50, 64
5, 166080, Note_on_c, 0, 43, 64
5, 166320, Note_off_c, 0, 43, 64
5, 166320, Note_on_c, 0, 45, 64
5, 166560, Note_off_c, 0, 45, 64
5, 166560, Note_on_c, 0, 46, 64
5, 166800, Note_off_c, 0, 46, 64
5, 166800, Note_on_c, 0, 43, 64
5, 167040, Note_off_c, 0, 43, 64
5, 167040, Note_on_c, 0, 50, 64
5, 167280, Note_off_c, 0, 50, 64
5, 167280, Note_on_c, 0, 48, 64
5, 167520, Note_off_c, 0, 48, 64
5, 167520, Note_on_c, 0, 46, 64
5, 167760, Note_off_c, 0, 46, 64
5, 167760, Note_on_c, 0, 43, 64
5, 168000, Note_off_c, 0, 43, 64
5, 168000, Note_on_c, 0, 50, 64
5, 168240, Note_off_c, 0, 50, 64
5, 168240, Note_on_c, 0, 38, 64
5, 168480, Note_off_c, 0, 38, 64
5, 168700, Note_on_c, 0, 50, 64
5, 168940, Note_off_c, 0, 50, 64
5, 168960, Note_on_c, 0, 51, 64
5, 169080, Note_off_c, 0, 51, 64
5, 169080, Note_on_c, 0, 50, 64
5, 169200, Note_off_c, 0, 50, 64
5, 169200, Note_on_c, 0, 51, 64
5, 169440, Note_off_c, 0, 51, 64
5, 169680, Note_on_c, 0, 45, 64
5, 169920, Note_off_c, 0, 45, 64
5, 169920, Note_on_c, 0, 50, 64
5, 170040, Note_off_c, 0, 50, 64
5, 170040, Note_on_c, 0, 48, 64
5, 170160, Note_off_c, 0, 48, 64
5, 170160, Note_on_c, 0, 50, 64
5, 170400, Note_off_c, 0, 50, 64
5, 170640, Note_on_c, 0, 43, 64
5, 170880, Note_off_c, 0, 43, 64
5, 170880, Note_on_c, 0, 48, 64
5, 171000, Note_off_c, 0, 48, 64
5, 171000, Note_on_c, 0, 47, 64
5, 171120, Note_off_c, 0, 47, 64
5, 171120, Note_on_c, 0, 48, 64
5, 171360, Note_off_c, 0, 48, 64
5, 171600, Note_on_c, 0, 60, 64
5, 171840, Note_off_c, 0, 60, 64
5, 171840, Note_on_c, 0, 60, 64
5, 172080, Note_off_c, 0, 60, 64
5, 172080, Note_on_c, 0, 57, 64
5, 172320, Note_off_c, 0, 57, 64
5, 172320, Note_on_c, 0, 54, 64
5, 172560, Note_off_c, 0, 54, 64
5, 172560, Note_on_c, 0, 50, 64
5, 172800, Note_off_c, 0, 50, 64
5, 172800, Note_on_c, 0, 55, 64
5, 173040, Note_off_c, 0, 55, 64
5, 173040, Note_on_c, 0, 46, 64
5, 173280, Note_off_c, 0, 46, 64
5, 173280, Note_on_c, 0, 45, 64
5, 173520, Note_off_c, 0, 45, 64
5, 173520, Note_on_c, 0, 50, 64
5, 173760, Note_off_c, 0, 50, 64
5, 173760, Note_on_c, 0, 55, 64
5, 174000, Note_off_c, 0, 55, 64
5, 174000, Note_on_c, 0, 53, 64
5, 174240, Note_off_c, 0, 53, 64
5, 174240, Note_on_c, 0, 51, 64
5, 174480, Note_off_c, 0, 51, 64
5, 174480, Note_on_c, 0, 50, 64
5, 174720, Note_off_c, 0, 50, 64
5, 174720, Note_on_c, 0, 48, 64
5, 175080, Note_off_c, 0, 48, 64
5, 175080, Note_on_c, 0, 50, 64
5, 175140, Note_off_c, 0, 50, 64
5, 175140, Note_on_c, 0, 51, 64
5, 175200, Note_off_c, 0, 51, 64
5, 175200, Note_on_c, 0, 50, 64
5, 175560, Note_off_c, 0, 50, 64
5, 175560, Note_on_c, 0, 51, 64
5, 175620, Note_off_c, 0, 51, 64
5, 175620, Note_on_c, 0, 53, 64
5, 175680, Note_off_c, 0, 53, 64
5, 175680, Note_on_c, 0, 51, 64
5, 175920, Note_off_c, 0, 51, 64
5, 175920, Note_on_c, 0, 50, 64
5, 176160, Note_off_c, 0, 50, 64
5, 176160, Note_on_c, 0, 48, 64
5, 176400, Note_off_c, 0, 48, 64
5, 176400, Note_on_c, 0, 46, 64
5, 176640, Note_off_c, 0, 46, 64
5, 176640, Note_on_c, 0, 45, 64
5, 177000, Note_off_c, 0, 45, 64
5, 177000, Note_on_c, 0, 47, 64
5, 177060, Note_off_c, 0, 47, 64
5, 177060, Note_on_c, 0, 48, 64
5, 177120, Note_off_c, 0, 48, 64
5, 177120, Note_on_c, 0, 47, 64
5, 177480, Note_off_c, 0, 47, 64
5, 177480, Note_on_c, 0, 48, 64
5, 177540, Note_off_c, 0, 48, 64
5, 177540, Note_on_c, 0, 50, 64
5, 177600, Note_off_c, 0, 50, 64
5, 177600, Note_on_c, 0, 48, 64
5, 177840, Note_off_c, 0, 48, 64
5, 177840, Note_on_c, 0, 60, 64
5, 177960, Note_off_c, 0, 60, 64
5, 177960, Note_on_c, 0, 58, 64
5, 178080, Note_off_c, 0, 58, 64
5, 178080, Note_on_c, 0, 56, 64
5, 178320, Note_off_c, 0, 56, 64
5, 178320, Note_on_c, 0, 55, 64
5, 178560, Note_off_c, 0, 55, 64
5, 178560, Note_on_c, 0, 53, 64
5, 178920, Note_off_c, 0, 53, 64
5, 178920, Note_on_c, 0, 55, 64
5, 178980, Note_off_c, 0, 55, 64
5, 178980, Note_on_c, 0, 56, 64
5, 179040, Note_off_c, 0, 56, 64
5, 179040, Note_on_c, 0, 55, 64
5, 179400, Note_off_c, 0, 55, 64
5, 179400, Note_on_c, 0, 56, 64
5, 179460, Note_off_c, 0, 56, 64
5, 179460, Note_on_c, 0, 58, 64
5, 179520, Note_off_c, 0, 58, 64
5, 179520, Note_on_c, 0, 56, 64
5, 179760, Note_off_c, 0, 56, 64
5, 179760, Note_on_c, 0, 55, 64
5, 180000, Note_off_c, 0, 55, 64
5, 180000, Note_on_c, 0, 53, 64
5, 180240, Note_off_c, 0, 53, 64
5, 180240, Note_on_c, 0, 51, 64
5, 180480, Note_off_c, 0, 51, 64
5, 180480, Note_on_c, 0, 50, 64
5, 180840, Note_off_c, 0, 50, 64
5, 180840, Note_on_c, 0, 52, 64
5, 180900, Note_off_c, 0, 52, 64
5, 180900, Note_on_c, 0, 53, 64
5, 180960, Note_off_c, 0, 53, 64
5, 180960, Note_on_c, 0, 52, 64
5, 181320, Note_off_c, 0, 52, 64
5, 181320, Note_on_c, 0, 53, 64
5, 181380, Note_off_c, 0, 53, 64
5, 181380, Note_on_c, 0, 55, 64
5, 181440, Note_off_c, 0, 55, 64
5, 181440, Note_on_c, 0, 53, 64
5, 181560, Note_off_c, 0, 53, 64
5, 181560, Note_on_c, 0, 55, 64
5, 181680, Note_off_c, 0, 55, 64
5, 181680, Note_on_c, 0, 56, 64
5, 181800, Note_off_c, 0, 56, 64
5, 181800, Note_on_c, 0, 53, 64
5, 181920, Note_off_c, 0, 53, 64
5, 181920, Note_on_c, 0, 50, 64
5, 182040, Note_off_c, 0, 50, 64
5, 182040, Note_on_c, 0, 51, 64
5, 182160, Note_off_c, 0, 51, 64
5, 182160, Note_on_c, 0, 53, 64
5, 182280, Note_off_c, 0, 53, 64
5, 182280, Note_on_c, 0, 50, 64
5, 182400, Note_off_c, 0, 50, 64
5, 182400, Note_on_c, 0, 47, 64
5, 182520, Note_off_c, 0, 47, 64
5, 182520, Note_on_c, 0, 48, 64
5, 182640, Note_off_c, 0, 48, 64
5, 182640, Note_on_c, 0, 50, 64
5, 182760, Note_off_c, 0, 50, 64
5, 182760, Note_on_c, 0, 47, 64
5, 182880, Note_off_c, 0, 47, 64
5, 182880, Note_on_c, 0, 48, 64
5, 183000, Note_off_c, 0, 48, 64
5, 183000, Note_on_c, 0, 50, 64
5, 183120, Note_off_c, 0, 50, 64
5, 183120, Note_on_c, 0, 51, 64
5, 183240, Note_off_c, 0, 51, 64
5, 183240, Note_on_c, 0, 48, 64
5, 183360, Note_off_c, 0, 48, 64
5, 183360, Note_on_c, 0, 50, 64
5, 183480, Note_off_c, 0, 50, 64
5, 183480, Note_on_c, 0, 51, 64
5, 183600, Note_off_c, 0, 51, 64
5, 183600, Note_on_c, 0, 53, 64
5, 183720, Note_off_c, 0, 53, 64
5, 183720, Note_on_c, 0, 50, 64
5, 183840, Note_off_c, 0, 50, 64
5, 183840, Note_on_c, 0, 55, 64
5, 183960, Note_off_c, 0, 55, 64
5, 183960, Note_on_c, 0, 57, 64
5, 184080, Note_off_c, 0, 57, 64
5, 184080, Note_on_c, 0, 59, 64
5, 184200, Note_off_c, 0, 59, 64
5, 184200, Note_on_c, 0, 55, 64
5, 184320, Note_off_c, 0, 55, 64
5, 184320, Note_on_c, 0, 60, 64
5, 184440, Note_off_c, 0, 60, 64
5, 184440, Note_on_c, 0, 62, 64
5, 184560, Note_off_c, 0, 62, 64
5, 184560, Note_on_c, 0, 63, 64
5, 184680, Note_off_c, 0, 63, 64
5, 184680, Note_on_c, 0, 60, 64
5, 184800, Note_off_c, 0, 60, 64
5, 184800, Note_on_c, 0, 56, 64
5, 184920, Note_off_c, 0, 56, 64
5, 184920, Note_on_c, 0, 58, 64
5, 185040, Note_off_c, 0, 58, 64
5, 185040, Note_on_c, 0, 60, 64
5, 185160, Note_off_c, 0, 60, 64
5, 185160, Note_on_c, 0, 56, 64
5, 185280, Note_off_c, 0, 56, 64
5, 185280, Note_on_c, 0, 54, 64
5, 185520, Note_off_c, 0, 54, 64
5, 185520, Note_on_c, 0, 42, 64
5, 185760, Note_off_c, 0, 42, 64
5, 185760, Note_on_c, 0, 42, 64
5, 186000, Note_off_c, 0, 42, 64
5, 186000, Note_on_c, 0, 42, 64
5, 186240, Note_off_c, 0, 42, 64
5, 186240, Note_on_c, 0, 43, 64
5, 186480, Note_off_c, 0, 43, 64
5, 186480, Note_on_c, 0, 55, 64
5, 186600, Note_off_c, 0, 55, 64
5, 186600, Note_on_c, 0, 57, 64
5, 186720, Note_off_c, 0, 57, 64
5, 186720, Note_on_c, 0, 59, 64
5, 186960, Note_off_c, 0, 59, 64
5, 186960, Note_on_c, 0, 55, 64
5, 187200, Note_off_c, 0, 55, 64
5, 187200, Note_on_c, 0, 60, 64
5, 187440, Note_off_c, 0, 60, 64
5, 187440, Note_on_c, 0, 58, 64
5, 187680, Note_off_c, 0, 58, 64
5, 187680, Note_on_c, 0, 57, 64
5, 187920, Note_off_c, 0, 57, 64
5, 187920, Note_on_c, 0, 53, 64
5, 188160, Note_off_c, 0, 53, 64
5, 188160, Note_on_c, 0, 58, 64
5, 188400, Note_off_c, 0, 58, 64
5, 188400, Note_on_c, 0, 57, 64
5, 188640, Note_off_c, 0, 57, 64
5, 188640, Note_on_c, 0, 55, 64
5, 188880, Note_off_c, 0, 55, 64
5, 188880, Note_on_c, 0, 54, 64
5, 189000, Note_off_c, 0, 54, 64
5, 189000, Note_on_c, 0, 55, 64
5, 189120, Note_off_c, 0, 55, 64
5, 189120, Note_on_c, 0, 57, 64
5, 189360, Note_off_c, 0, 57, 64
5, 189360, Note_on_c, 0, 55, 64
5, 189600, Note_off_c, 0, 55, 64
5, 189600, Note_on_c, 0, 54, 64
5, 189840, Note_off_c, 0, 54, 64
5, 189840, Note_on_c, 0, 50, 64
5, 190080, Note_off_c, 0, 50, 64
5, 190080, Note_on_c, 0, 55, 64
5, 190320, Note_off_c, 0, 55, 64
5, 190320, Note_on_c, 0, 53, 64
5, 190560, Note_off_c, 0, 53, 64
5, 190560, Note_on_c, 0, 51, 64
5, 190800, Note_off_c, 0, 51, 64
5, 190800, Note_on_c, 0, 50, 64
5, 191040, Note_off_c, 0, 50, 64
5, 191040, Note_on_c, 0, 51, 64
5, 191280, Note_off_c, 0, 51, 64
5, 191280, Note_on_c, 0, 48, 64
5, 191520, Note_off_c, 0, 48, 64
5, 191520, Note_on_c, 0, 53, 64
5, 191760, Note_off_c, 0, 53, 64
5, 191760, Note_on_c, 0, 50, 64
5, 192000, Note_off_c, 0, 50, 64
5, 192000, Note_on_c, 0, 51, 64
5, 192240, Note_off_c, 0, 51, 64
5, 192240, Note_on_c, 0, 55, 64
5, 192480, Note_off_c, 0, 55, 64
5, 192480, Note_on_c, 0, 51, 64
5, 192720, Note_off_c, 0, 51, 64
5, 192720, Note_on_c, 0, 50, 64
5, 192960, Note_off_c, 0, 50, 64
5, 192960, Note_on_c, 0, 49, 64
5, 193200, Note_off_c, 0, 49, 64
5, 193200, Note_on_c, 0, 50, 64
5, 193440, Note_off_c, 0, 50, 64
5, 193440, Note_on_c, 0, 52, 64
5, 193680, Note_off_c, 0, 52, 64
5, 193680, Note_on_c, 0, 45, 64
5, 193920, Note_off_c, 0, 45, 64
5, 193920, Note_on_c, 0, 50, 64
5, 194160, Note_off_c, 0, 50, 64
5, 194160, Note_on_c, 0, 38, 64
5, 194400, Note_off_c, 0, 38, 64
5, 194640, Note_on_c, 0, 54, 64
5, 194880, Note_off_c, 0, 54, 64
5, 194880, Note_on_c, 0, 55, 64
5, 195120, Note_off_c, 0, 55, 64
5, 195120, Note_on_c, 0, 51, 64
5, 195360, Note_off_c, 0, 51, 64
5, 195360, Note_on_c, 0, 53, 64
5, 195600, Note_off_c, 0, 53, 64
5, 195600, Note_on_c, 0, 50, 64
5, 195840, Note_off_c, 0, 50, 64
5, 195840, Note_on_c, 0, 51, 64
5, 196080, Note_off_c, 0, 51, 64
5, 196080, Note_on_c, 0, 48, 64
5, 196320, Note_off_c, 0, 48, 64
5, 196320, Note_on_c, 0, 45, 64
5, 196560, Note_off_c, 0, 45, 64
5, 196560, Note_on_c, 0, 38, 64
5, 196800, Note_off_c, 0, 38, 64
5, 196800, Note_on_c, 0, 39, 64
5, 197040, Note_off_c, 0, 39, 64
5, 197040, Note_on_c, 0, 48, 64
5, 197280, Note_off_c, 0, 48, 64
5, 197280, Note_on_c, 0, 50, 64
5, 197520, Note_off_c, 0, 50, 64
5, 197520, Note_on_c, 0, 38, 64
5, 197760, Note_off_c, 0, 38, 64
5, 197760, Note_on_c, 0, 43, 64
5, 198240, Note_off_c, 0, 43, 64
5, 198960, Note_on_c, 0, 55, 64
5, 199200, Note_off_c, 0, 55, 64
5, 199200, Note_on_c, 0, 54, 64
5, 199440, Note_off_c, 0, 54, 64
5, 199440, Note_on_c, 0, 50, 64
5, 199680, Note_off_c, 0, 50, 64
5, 199680, Note_on_c, 0, 43, 64
5, 200160, Note_off_c, 0, 43, 64
5, 200160, Note_on_c, 0, 46, 64
5, 200640, Note_off_c, 0, 46, 64
5, 200640, Note_on_c, 0, 50, 64
5, 201120, Note_off_c, 0, 50, 64
5, 201120, Note_on_c, 0, 51, 64
5, 201600, Note_off_c, 0, 51, 64
5, 201600, Note_on_c, 0, 42, 64
5, 202080, Note_off_c, 0, 42, 64
5, 202320, Note_on_c, 0, 50, 64
5, 202560, Note_off_c, 0, 50, 64
5, 202560, Note_on_c, 0, 49, 64
5, 203040, Note_off_c, 0, 49, 64
5, 203040, Note_on_c, 0, 48, 64
5, 203520, Note_off_c, 0, 48, 64
5, 203520, Note_on_c, 0, 47, 64
5, 204000, Note_off_c, 0, 47, 64
5, 204000, Note_on_c, 0, 46, 64
5, 204720, Note_off_c, 0, 46, 64
5, 204720, Note_on_c, 0, 45, 64
5, 204960, Note_off_c, 0, 45, 64
5, 204960, Note_on_c, 0, 44, 64
5, 205200, Note_off_c, 0, 44, 64
5, 205200, Note_on_c, 0, 43, 64
5, 205440, Note_off_c, 0, 43, 64
5, 205440, Note_on_c, 0, 42, 64
5, 205680, Note_off_c, 0, 42, 64
5, 205680, Note_on_c, 0, 40, 64
5, 205800, Note_off_c, 0, 40, 64
5, 205800, Note_on_c, 0, 38, 64
5, 205920, Note_off_c, 0, 38, 64
5, 205920, Note_on_c, 0, 43, 64
5, 206160, Note_off_c, 0, 43, 64
5, 206160, Note_on_c, 0, 48, 64
5, 206400, Note_off_c, 0, 48, 64
5, 206400, Note_on_c, 0, 46, 64
5, 206640, Note_off_c, 0, 46, 64
5, 206640, Note_on_c, 0, 51, 64
5, 206880, Note_off_c, 0, 51, 64
5, 206880, Note_on_c, 0, 45, 64
5, 207120, Note_off_c, 0, 45, 64
5, 207120, Note_on_c, 0, 50, 64
5, 207360, Note_off_c, 0, 50, 64
5, 207360, Note_on_c, 0, 43, 64
5, 207600, Note_off_c, 0, 43, 64
5, 207600, Note_on_c, 0, 45, 64
5, 207840, Note_off_c, 0, 45, 64
5, 207840, Note_on_c, 0, 46, 64
5, 208080, Note_off_c, 0, 46, 64
5, 208080, Note_on_c, 0, 43, 64
5, 208320, Note_off_c, 0, 43, 64
5, 208320, Note_on_c, 0, 48, 64
5, 208560, Note_off_c, 0, 48, 64
5, 208560, Note_on_c, 0, 53, 64
5, 208800, Note_off_c, 0, 53, 64
5, 208800, Note_on_c, 0, 50, 64
5, 209040, Note_off_c, 0, 50, 64
5, 209040, Note_on_c, 0, 46, 64
5, 209280, Note_off_c, 0, 46, 64
5, 209280, Note_on_c, 0, 51, 64
5, 209520, Note_off_c, 0, 51, 64
5, 209520, Note_on_c, 0, 55, 64
5, 209760, Note_off_c, 0, 55, 64
5, 209760, Note_on_c, 0, 52, 64
5, 210000, Note_off_c, 0, 52, 64
5, 210000, Note_on_c, 0, 48, 64
5, 210240, Note_off_c, 0, 48, 64
5, 210240, Note_on_c, 0, 53, 64
5, 210480, Note_off_c, 0, 53, 64
5, 210480, Note_on_c, 0, 56, 64
5, 210720, Note_off_c, 0, 56, 64
5, 210720, Note_on_c, 0, 53, 64
5, 210960, Note_off_c, 0, 53, 64
5, 210960, Note_on_c, 0, 50, 64
5, 211200, Note_off_c, 0, 50, 64
5, 211200, Note_on_c, 0, 55, 64
5, 211440, Note_off_c, 0, 55, 64
5, 211440, Note_on_c, 0, 57, 64
5, 211680, Note_off_c, 0, 57, 64
5, 211680, Note_on_c, 0, 59, 64
5, 211920, Note_off_c, 0, 59, 64
5, 211920, Note_on_c, 0, 55, 64
5, 212160, Note_off_c, 0, 55, 64
5, 212160, Note_on_c, 0, 60, 64
5, 212400, Note_off_c, 0, 60, 64
5, 212400, Note_on_c, 0, 58, 64
5, 212640, Note_off_c, 0, 58, 64
5, 212640, Note_on_c, 0, 56, 64
5, 212880, Note_off_c, 0, 56, 64
5, 212880, Note_on_c, 0, 55, 64
5, 213120, Note_off_c, 0, 55, 64
5, 213120, Note_on_c, 0, 53, 64
5, 213480, Note_off_c, 0, 53, 64
5, 213480, Note_on_c, 0, 55, 64
5, 213540, Note_off_c, 0, 55, 64
5, 213540, Note_on_c, 0, 56, 64
5, 213600, Note_off_c, 0, 56, 64
5, 213600, Note_on_c, 0, 55, 64
5, 213960, Note_off_c, 0, 55, 64
5, 213960, Note_on_c, 0, 56, 64
5, 214020, Note_off_c, 0, 56, 64
5, 214020, Note_on_c, 0, 58, 64
5, 214080, Note_off_c, 0, 58, 64
5, 214080, Note_on_c, 0, 56, 64
5, 214320, Note_off_c, 0, 56, 64
5, 214320, Note_on_c, 0, 55, 64
5, 214560, Note_off_c, 0, 55, 64
5, 214560, Note_on_c, 0, 53, 64
5, 214800, Note_off_c, 0, 53, 64
5, 214800, Note_on_c, 0, 51, 64
5, 215040, Note_off_c, 0, 51, 64
5, 215040, Note_on_c, 0, 50, 64
5, 215400, Note_off_c, 0, 50, 64
5, 215400, Note_on_c, 0, 52, 64
5, 215460, Note_off_c, 0, 52, 64
5, 215460, Note_on_c, 0, 53, 64
5, 215520, Note_off_c, 0, 53, 64
5, 215520, Note_on_c, 0, 52, 64
5, 215880, Note_off_c, 0, 52, 64
5, 215880, Note_on_c, 0, 53, 64
5, 215940, Note_off_c, 0, 53, 64
5, 215940, Note_on_c, 0, 55, 64
5, 216000, Note_off_c, 0, 55, 64
5, 216000, Note_on_c, 0, 53, 64
5, 216240, Note_off_c, 0, 53, 64
5, 216240, Note_on_c, 0, 51, 64
5, 216480, Note_off_c, 0, 51, 64
5, 216480, Note_on_c, 0, 50, 64
5, 216720, Note_off_c, 0, 50, 64
5, 216720, Note_on_c, 0, 48, 64
5, 216960, Note_off_c, 0, 48, 64
5, 216960, Note_on_c, 0, 47, 64
5, 217320, Note_off_c, 0, 47, 64
5, 217320, Note_on_c, 0, 48, 64
5, 217380, Note_off_c, 0, 48, 64
5, 217380, Note_on_c, 0, 50, 64
5, 217440, Note_off_c, 0, 50, 64
5, 217440, Note_on_c, 0, 48, 64
5, 217800, Note_off_c, 0, 48, 64
5, 217800, Note_on_c, 0, 50, 64
5, 217860, Note_off_c, 0, 50, 64
5, 217860, Note_on_c, 0, 51, 64
5, 217920, Note_off_c, 0, 51, 64
5, 217920, Note_on_c, 0, 45, 64
5, 218280, Note_off_c, 0, 45, 64
5, 218280, Note_on_c, 0, 47, 64
5, 218340, Note_off_c, 0, 47, 64
5, 218340, Note_on_c, 0, 48, 64
5, 218400, Note_off_c, 0, 48, 64
5, 218400, Note_on_c, 0, 47, 64
5, 218760, Note_off_c, 0, 47, 64
5, 218760, Note_on_c, 0, 48, 64
5, 218820, Note_off_c, 0, 48, 64
5, 218820, Note_on_c, 0, 50, 64
5, 218880, Note_off_c, 0, 50, 64
5, 218880, Note_on_c, 0, 48, 64
5, 219120, Note_off_c, 0, 48, 64
5, 219120, Note_on_c, 0, 44, 64
5, 219360, Note_off_c, 0, 44, 64
5, 219360, Note_on_c, 0, 41, 64
5, 219600, Note_off_c, 0, 41, 64
5, 219600, Note_on_c, 0, 43, 64
5, 219840, Note_off_c, 0, 43, 64
5, 219840, Note_on_c, 0, 48, 64
5, 220320, Note_off_c, 0, 48, 64
5, 220320, Note_on_c, 0, 51, 64
5, 220800, Note_off_c, 0, 51, 64
5, 220800, Note_on_c, 0, 55, 64
5, 221280, Note_off_c, 0, 55, 64
5, 221280, Note_on_c, 0, 56, 64
5, 221760, Note_off_c, 0, 56, 64
5, 221760, Note_on_c, 0, 47, 64
5, 222240, Note_off_c, 0, 47, 64
5, 222480, Note_on_c, 0, 55, 64
5, 222720, Note_off_c, 0, 55, 64
5, 222720, Note_on_c, 0, 54, 64
5, 223200, Note_off_c, 0, 54, 64
5, 223200, Note_on_c, 0, 53, 64
5, 223680, Note_off_c, 0, 53, 64
5, 223680, Note_on_c, 0, 52, 64
5, 224160, Note_off_c, 0, 52, 64
5, 224160, Note_on_c, 0, 51, 64
5, 224640, Note_off_c, 0, 51, 64
5, 224880, Note_on_c, 0, 50, 64
5, 225120, Note_off_c, 0, 50, 64
5, 225120, Note_on_c, 0, 49, 64
5, 225360, Note_off_c, 0, 49, 64
5, 225360, Note_on_c, 0, 48, 64
5, 225600, Note_off_c, 0, 48, 64
5, 225600, Note_on_c, 0, 47, 64
5, 225840, Note_off_c, 0, 47, 64
5, 225840, Note_on_c, 0, 45, 64
5, 225960, Note_off_c, 0, 45, 64
5, 225960, Note_on_c, 0, 43, 64
5, 226080, Note_off_c, 0, 43, 64
5, 226080, Note_on_c, 0, 48, 64
5, 226320, Note_off_c, 0, 48, 64
5, 226320, Note_on_c, 0, 53, 64
5, 226560, Note_off_c, 0, 53, 64
5, 226560, Note_on_c, 0, 51, 64
5, 226800, Note_off_c, 0, 51, 64
5, 226800, Note_on_c, 0, 56, 64
5, 227040, Note_off_c, 0, 56, 64
5, 227040, Note_on_c, 0, 50, 64
5, 227280, Note_off_c, 0, 50, 64
5, 227280, Note_on_c, 0, 55, 64
5, 227520, Note_off_c, 0, 55, 64
5, 227520, Note_on_c, 0, 48, 64
5, 227760, Note_off_c, 0, 48, 64
5, 227760, Note_on_c, 0, 50, 64
5, 228000, Note_off_c, 0, 50, 64
5, 228000, Note_on_c, 0, 51, 64
5, 228240, Note_off_c, 0, 51, 64
5, 228240, Note_on_c, 0, 48, 64
5, 228480, Note_off_c, 0, 48, 64
5, 228480, Note_on_c, 0, 53, 64
5, 228720, Note_off_c, 0, 53, 64
5, 228720, Note_on_c, 0, 51, 64
5, 228960, Note_off_c, 0, 51, 64
5, 228960, Note_on_c, 0, 50, 64
5, 229200, Note_off_c, 0, 50, 64
5, 229200, Note_on_c, 0, 46, 64
5, 229440, Note_off_c, 0, 46, 64
5, 229440, Note_on_c, 0, 51, 64
5, 229680, Note_off_c, 0, 51, 64
5, 229680, Note_on_c, 0, 50, 64
5, 229920, Note_off_c, 0, 50, 64
5, 229920, Note_on_c, 0, 48, 64
5, 230160, Note_off_c, 0, 48, 64
5, 230160, Note_on_c, 0, 47, 64
5, 230280, Note_off_c, 0, 47, 64
5, 230280, Note_on_c, 0, 48, 64
5, 230400, Note_off_c, 0, 48, 64
5, 230400, Note_on_c, 0, 50, 64
5, 230640, Note_off_c, 0, 50, 64
5, 230640, Note_on_c, 0, 48, 64
5, 230880, Note_off_c, 0, 48, 64
5, 230880, Note_on_c, 0, 47, 64
5, 231120, Note_off_c, 0, 47, 64
5, 231120, Note_on_c, 0, 43, 64
5, 231360, Note_off_c, 0, 43, 64
5, 231360, Note_on_c, 0, 48, 64
5, 231600, Note_off_c, 0, 48, 64
5, 231600, Note_on_c, 0, 46, 64
5, 231840, Note_off_c, 0, 46, 64
5, 231840, Note_on_c, 0, 44, 64
5, 232080, Note_off_c, 0, 44, 64
5, 232080, Note_on_c, 0, 43, 64
5, 232320, Note_off_c, 0, 43, 64
5, 232320, Note_on_c, 0, 44, 64
5, 232560, Note_off_c, 0, 44, 64
5, 232560, Note_on_c, 0, 41, 64
5, 232800, Note_off_c, 0, 41, 64
5, 232800, Note_on_c, 0, 46, 64
5, 233040, Note_off_c, 0, 46, 64
5, 233040, Note_on_c, 0, 43, 64
5, 233280, Note_off_c, 0, 43, 64
5, 233280, Note_on_c, 0, 44, 64
5, 233520, Note_off_c, 0, 44, 64
5, 233520, Note_on_c, 0, 48, 64
5, 233760, Note_off_c, 0, 48, 64
5, 233760, Note_on_c, 0, 44, 64
5, 234000, Note_off_c, 0, 44, 64
5, 234000, Note_on_c, 0, 43, 64
5, 234240, Note_off_c, 0, 43, 64
5, 234240, Note_on_c, 0, 42, 64
5, 234480, Note_off_c, 0, 42, 64
5, 234480, Note_on_c, 0, 43, 64
5, 234720, Note_off_c, 0, 43, 64
5, 234720, Note_on_c, 0, 45, 64
5, 234960, Note_off_c, 0, 45, 64
5, 234960, Note_on_c, 0, 38, 64
5, 235200, Note_off_c, 0, 38, 64
5, 235200, Note_on_c, 0, 43, 64
5, 235440, Note_off_c, 0, 43, 64
5, 235440, Note_on_c, 0, 53, 64
5, 235680, Note_off_c, 0, 53, 64
5, 235920, Note_on_c, 0, 59, 64
5, 236160, Note_off_c, 0, 59, 64
5, 236160, Note_on_c, 0, 60, 64
5, 236400, Note_off_c, 0, 60, 64
5, 236400, Note_on_c, 0, 56, 64
5, 236640, Note_off_c, 0, 56, 64
5, 236640, Note_on_c, 0, 58, 64
5, 236880, Note_off_c, 0, 58, 64
5, 236880, Note_on_c, 0, 55, 64
5, 237120, Note_off_c, 0, 55, 64
5, 237120, Note_on_c, 0, 56, 64
5, 237360, Note_off_c, 0, 56, 64
5, 237360, Note_on_c, 0, 53, 64
5, 237600, Note_off_c, 0, 53, 64
5, 237600, Note_on_c, 0, 50, 64
5, 237840, Note_off_c, 0, 50, 64
5, 237840, Note_on_c, 0, 43, 64
5, 238080, Note_off_c, 0, 43, 64
5, 238080, Note_on_c, 0, 44, 64
5, 238320, Note_off_c, 0, 44, 64
5, 238320, Note_on_c, 0, 53, 64
5, 238560, Note_off_c, 0, 53, 64
5, 238560, Note_on_c, 0, 55, 64
5, 238800, Note_off_c, 0, 55, 64
5, 238800, Note_on_c, 0, 43, 64
5, 239040, Note_off_c, 0, 43, 64
5, 239040, Note_on_c, 0, 36, 64
5, 239520, Note_off_c, 0, 36, 64
5, 239520, End_track
0, 0, End_of_file
