0, 0, Header, 1, 4, 768
1, 0, Start_track
1, 0, Title_t, "Track 1"
1, 0, Tempo, 1500000
1, 0, Time_signature, 4, 2, 24, 8
1, 12288, Tempo, 800000
1, 12288, Time_signature, 3, 2, 24, 8
1, 136704, Tempo, 857142
1, 141312, Tempo, 923076
1, 148224, Tempo, 1000000
1, 150528, Tempo, 1333333
1, 152832, Tempo, 750000
1, 152832, Time_signature, 4, 2, 24, 8
1, 155904, Tempo, 1578947
1, 289536, Tempo, 1714285
1, 289922, Tempo, 2000000
1, 290304, Tempo, 1714285
1, 292608, Tempo, 2000000
1, 294144, Tempo, 1090909
1, 297216, Time_signature, 3, 3, 24, 8
1, 402048, Tempo, 1200000
1, 406656, Tempo, 1333333
1, 407808, Tempo, 2000000
1, 408960, End_track
2, 0, Start_track
2, 0, Title_t, "Track 1"
2, 192, Program_c, 0, 19
2, 384, Note_on_c, 0, 64, 92
2, 768, Note_off_c, 0, 64, 64
2, 768, Note_on_c, 0, 67, 92
2, 1152, Note_off_c, 0, 67, 64
2, 1152, Note_on_c, 0, 71, 92
2, 1536, Note_off_c, 0, 71, 64
2, 1536, Note_on_c, 0, 60, 92
2, 1920, Note_off_c, 0, 60, 64
2, 1920, Note_on_c, 0, 60, 92
2, 2112, Note_off_c, 0, 60, 64
2, 2112, Note_on_c, 0, 62, 92
2, 2208, Note_off_c, 0, 62, 64
2, 2208, Note_on_c, 0, 64, 92
2, 2304, Note_off_c, 0, 64, 64
2, 2304, Note_on_c, 0, 60, 92
2, 2352, Note_off_c, 0, 60, 64
2, 2352, Note_on_c, 0, 62, 92
2, 2400, Note_off_c, 0, 62, 64
2, 2400, Note_on_c, 0, 60, 92
2, 2880, Note_off_c, 0, 60, 64
2, 2880, Note_on_c, 0, 59, 92
2, 3072, Note_off_c, 0, 59, 64
2, 3072, Note_on_c, 0, 59, 92
2, 3456, Note_off_c, 0, 59, 64
2, 3456, Note_on_c, 0, 71, 92
2, 3840, Note_off_c, 0, 71, 64
2, 3840, Note_on_c, 0, 69, 92
2, 4032, Note_off_c, 0, 69, 64
2, 4032, Note_on_c, 0, 67, 92
2, 4224, Note_off_c, 0, 67, 64
2, 4224, Note_on_c, 0, 66, 92
2, 4416, Note_off_c, 0, 66, 64
2, 4416, Note_on_c, 0, 64, 92
2, 4608, Note_off_c, 0, 64, 64
2, 4608, Note_on_c, 0, 72, 92
2, 4800, Note_off_c, 0, 72, 64
2, 4800, Note_on_c, 0, 71, 92
2, 4992, Note_off_c, 0, 71, 64
2, 4992, Note_on_c, 0, 72, 92
2, 5184, Note_off_c, 0, 72, 64
2, 5184, Note_on_c, 0, 69, 92
2, 5376, Note_off_c, 0, 69, 64
2, 5376, Note_on_c, 0, 63, 92
2, 5952, Note_off_c, 0, 63, 64
2, 5952, Note_on_c, 0, 64, 92
2, 6144, Note_off_c, 0, 64, 64
2, 6144, Note_on_c, 0, 64, 92
2, 6336, Note_off_c, 0, 64, 64
2, 6336, Note_on_c, 0, 67, 92
2, 6528, Note_off_c, 0, 67, 64
2, 6528, Note_on_c, 0, 66, 92
2, 6720, Note_off_c, 0, 66, 64
2, 6720, Note_on_c, 0, 67, 92
2, 6816, Note_off_c, 0, 67, 64
2, 6816, Note_on_c, 0, 64, 92
2, 6912, Note_off_c, 0, 64, 64
2, 6912, Note_on_c, 0, 71, 92
2, 7968, Note_off_c, 0, 71, 64
2, 7968, Note_on_c, 0, 69, 92
2, 8064, Note_off_c, 0, 69, 64
2, 8064, Note_on_c, 0, 67, 92
2, 8160, Note_off_c, 0, 67, 64
2, 8160, Note_on_c, 0, 66, 92
2, 8256, Note_off_c, 0, 66, 64
2, 8256, Note_on_c, 0, 67, 92
2, 8352, Note_off_c, 0, 67, 64
2, 8352, Note_on_c, 0, 72, 92
2, 8448, Note_off_c, 0, 72, 64
2, 8448, Note_on_c, 0, 69, 92
2, 8496, Note_off_c, 0, 69, 64
2, 8496, Note_on_c, 0, 71, 92
2, 8544, Note_off_c, 0, 71, 64
2, 8544, Note_on_c, 0, 69, 92
2, 9024, Note_off_c, 0, 69, 64
2, 9024, Note_on_c, 0, 71, 92
2, 9216, Note_off_c, 0, 71, 64
2, 9216, Note_on_c, 0, 71, 92
2, 9600, Note_off_c, 0, 71, 64
2, 9600, Note_on_c, 0, 75, 92
2, 9984, Note_off_c, 0, 75, 64
2, 9984, Note_on_c, 0, 76, 92
2, 10368, Note_off_c, 0, 76, 64
2, 10368, Note_on_c, 0, 79, 92
2, 11136, Note_off_c, 0, 79, 64
2, 11136, Note_on_c, 0, 78, 92
2, 11328, Note_off_c, 0, 78, 64
2, 11328, Note_on_c, 0, 76, 92
2, 11520, Note_off_c, 0, 76, 64
2, 11520, Note_on_c, 0, 78, 92
2, 11712, Note_off_c, 0, 78, 64
2, 11712, Note_on_c, 0, 75, 92
2, 11904, Note_off_c, 0, 75, 64
2, 11904, Note_on_c, 0, 76, 92
2, 12288, Note_off_c, 0, 76, 64
2, 12288, Note_on_c, 0, 75, 92
2, 13056, Note_off_c, 0, 75, 64
2, 21888, Note_on_c, 0, 78, 92
2, 22656, Note_off_c, 0, 78, 64
2, 22656, Note_on_c, 0, 76, 92
2, 22848, Note_off_c, 0, 76, 64
2, 22848, Note_on_c, 0, 75, 92
2, 23040, Note_off_c, 0, 75, 64
2, 23040, Note_on_c, 0, 76, 92
2, 23232, Note_off_c, 0, 76, 64
2, 23232, Note_on_c, 0, 75, 92
2, 23424, Note_off_c, 0, 75, 64
2, 23424, Note_on_c, 0, 73, 92
2, 23616, Note_off_c, 0, 73, 64
2, 23616, Note_on_c, 0, 71, 92
2, 23808, Note_off_c, 0, 71, 64
2, 23808, Note_on_c, 0, 76, 92
2, 24000, Note_off_c, 0, 76, 64
2, 24000, Note_on_c, 0, 78, 92
2, 24192, Note_off_c, 0, 78, 64
2, 24192, Note_on_c, 0, 76, 92
2, 24384, Note_off_c, 0, 76, 64
2, 24384, Note_on_c, 0, 71, 92
2, 24576, Note_off_c, 0, 71, 64
2, 24576, Note_on_c, 0, 67, 92
2, 24768, Note_off_c, 0, 67, 64
2, 24768, Note_on_c, 0, 71, 92
2, 24960, Note_off_c, 0, 71, 64
2, 24960, Note_on_c, 0, 76, 92
2, 25152, Note_off_c, 0, 76, 64
2, 25152, Note_on_c, 0, 78, 92
2, 25344, Note_off_c, 0, 78, 64
2, 25344, Note_on_c, 0, 79, 92
2, 25536, Note_off_c, 0, 79, 64
2, 25536, Note_on_c, 0, 78, 92
2, 25728, Note_off_c, 0, 78, 64
2, 25728, Note_on_c, 0, 76, 92
2, 25920, Note_off_c, 0, 76, 64
2, 25920, Note_on_c, 0, 78, 92
2, 26112, Note_off_c, 0, 78, 64
2, 26112, Note_on_c, 0, 79, 92
2, 26496, Note_off_c, 0, 79, 64
2, 26496, Note_on_c, 0, 72, 92
2, 27072, Note_off_c, 0, 72, 64
2, 27072, Note_on_c, 0, 71, 92
2, 27264, Note_off_c, 0, 71, 64
2, 27264, Note_on_c, 0, 69, 92
2, 27456, Note_off_c, 0, 69, 64
2, 27456, Note_on_c, 0, 71, 92
2, 27648, Note_off_c, 0, 71, 64
2, 27648, Note_on_c, 0, 76, 92
2, 28032, Note_off_c, 0, 76, 64
2, 28032, Note_on_c, 0, 69, 92
2, 28416, Note_off_c, 0, 69, 64
2, 28416, Note_on_c, 0, 74, 92
2, 28800, Note_off_c, 0, 74, 64
2, 28800, Note_on_c, 0, 67, 92
2, 29376, Note_off_c, 0, 67, 64
2, 29376, Note_on_c, 0, 66, 92
2, 29568, Note_off_c, 0, 66, 64
2, 29568, Note_on_c, 0, 64, 92
2, 29760, Note_off_c, 0, 64, 64
2, 29760, Note_on_c, 0, 66, 92
2, 29952, Note_off_c, 0, 66, 64
2, 29952, Note_on_c, 0, 71, 92
2, 30336, Note_off_c, 0, 71, 64
2, 30336, Note_on_c, 0, 64, 92
2, 30720, Note_off_c, 0, 64, 64
2, 30720, Note_on_c, 0, 69, 92
2, 30912, Note_off_c, 0, 69, 64
2, 30912, Note_on_c, 0, 67, 92
2, 31104, Note_off_c, 0, 67, 64
2, 31104, Note_on_c, 0, 69, 92
2, 31296, Note_off_c, 0, 69, 64
2, 31296, Note_on_c, 0, 72, 92
2, 31488, Note_off_c, 0, 72, 64
2, 31488, Note_on_c, 0, 69, 92
2, 31680, Note_off_c, 0, 69, 64
2, 31680, Note_on_c, 0, 67, 92
2, 31872, Note_off_c, 0, 67, 64
2, 31872, Note_on_c, 0, 69, 92
2, 32064, Note_off_c, 0, 69, 64
2, 32064, Note_on_c, 0, 72, 92
2, 32256, Note_off_c, 0, 72, 64
2, 32256, Note_on_c, 0, 66, 92
2, 32448, Note_off_c, 0, 66, 64
2, 32448, Note_on_c, 0, 71, 92
2, 32640, Note_off_c, 0, 71, 64
2, 32640, Note_on_c, 0, 69, 92
2, 32832, Note_off_c, 0, 69, 64
2, 32832, Note_on_c, 0, 71, 92
2, 33024, Note_off_c, 0, 71, 64
2, 33024, Note_on_c, 0, 67, 92
2, 33408, Note_off_c, 0, 67, 64
2, 33408, Note_on_c, 0, 71, 92
2, 33792, Note_off_c, 0, 71, 64
2, 33792, Note_on_c, 0, 70, 92
2, 34176, Note_off_c, 0, 70, 64
2, 34176, Note_on_c, 0, 79, 92
2, 34560, Note_off_c, 0, 79, 64
2, 34560, Note_on_c, 0, 78, 92
2, 34944, Note_off_c, 0, 78, 64
2, 34944, Note_on_c, 0, 70, 92
2, 35328, Note_off_c, 0, 70, 64
2, 35328, Note_on_c, 0, 71, 92
2, 35520, Note_off_c, 0, 71, 64
2, 35520, Note_on_c, 0, 70, 92
2, 35712, Note_off_c, 0, 70, 64
2, 35712, Note_on_c, 0, 71, 92
2, 35904, Note_off_c, 0, 71, 64
2, 35904, Note_on_c, 0, 74, 92
2, 36096, Note_off_c, 0, 74, 64
2, 36096, Note_on_c, 0, 71, 92
2, 36288, Note_off_c, 0, 71, 64
2, 36288, Note_on_c, 0, 70, 92
2, 36480, Note_off_c, 0, 70, 64
2, 36480, Note_on_c, 0, 71, 92
2, 36672, Note_off_c, 0, 71, 64
2, 36672, Note_on_c, 0, 74, 92
2, 36864, Note_off_c, 0, 74, 64
2, 36864, Note_on_c, 0, 73, 92
2, 37056, Note_off_c, 0, 73, 64
2, 37056, Note_on_c, 0, 74, 92
2, 37248, Note_off_c, 0, 74, 64
2, 37248, Note_on_c, 0, 71, 92
2, 37440, Note_off_c, 0, 71, 64
2, 37440, Note_on_c, 0, 73, 92
2, 37632, Note_off_c, 0, 73, 64
2, 37632, Note_on_c, 0, 70, 92
2, 38016, Note_off_c, 0, 70, 64
2, 38016, Note_on_c, 0, 73, 92
2, 38784, Note_off_c, 0, 73, 64
2, 38784, Note_on_c, 0, 71, 92
2, 38976, Note_off_c, 0, 71, 64
2, 38976, Note_on_c, 0, 70, 92
2, 39168, Note_off_c, 0, 70, 64
2, 39168, Note_on_c, 0, 71, 92
2, 39360, Note_off_c, 0, 71, 64
2, 39360, Note_on_c, 0, 70, 92
2, 39552, Note_off_c, 0, 70, 64
2, 39552, Note_on_c, 0, 68, 92
2, 39744, Note_off_c, 0, 68, 64
2, 39744, Note_on_c, 0, 66, 92
2, 39936, Note_off_c, 0, 66, 64
2, 39936, Note_on_c, 0, 71, 92
2, 40128, Note_off_c, 0, 71, 64
2, 40128, Note_on_c, 0, 73, 92
2, 40320, Note_off_c, 0, 73, 64
2, 40320, Note_on_c, 0, 71, 92
2, 40512, Note_off_c, 0, 71, 64
2, 40512, Note_on_c, 0, 66, 92
2, 40704, Note_off_c, 0, 66, 64
2, 40704, Note_on_c, 0, 62, 92
2, 40896, Note_off_c, 0, 62, 64
2, 40896, Note_on_c, 0, 66, 92
2, 41088, Note_off_c, 0, 66, 64
2, 41088, Note_on_c, 0, 71, 92
2, 41280, Note_off_c, 0, 71, 64
2, 41280, Note_on_c, 0, 73, 92
2, 41472, Note_off_c, 0, 73, 64
2, 41472, Note_on_c, 0, 74, 92
2, 41664, Note_off_c, 0, 74, 64
2, 41664, Note_on_c, 0, 73, 92
2, 41856, Note_off_c, 0, 73, 64
2, 41856, Note_on_c, 0, 71, 92
2, 42048, Note_off_c, 0, 71, 64
2, 42048, Note_on_c, 0, 73, 92
2, 42240, Note_off_c, 0, 73, 64
2, 42240, Note_on_c, 0, 74, 92
2, 42624, Note_off_c, 0, 74, 64
2, 42624, Note_on_c, 0, 67, 92
2, 43200, Note_off_c, 0, 67, 64
2, 43200, Note_on_c, 0, 66, 92
2, 43392, Note_off_c, 0, 66, 64
2, 43392, Note_on_c, 0, 64, 92
2, 43584, Note_off_c, 0, 64, 64
2, 43584, Note_on_c, 0, 66, 92
2, 43776, Note_off_c, 0, 66, 64
2, 43776, Note_on_c, 0, 71, 92
2, 44160, Note_off_c, 0, 71, 64
2, 44160, Note_on_c, 0, 64, 92
2, 44544, Note_off_c, 0, 64, 64
2, 44544, Note_on_c, 0, 69, 92
2, 44928, Note_off_c, 0, 69, 64
2, 44928, Note_on_c, 0, 62, 92
2, 45504, Note_off_c, 0, 62, 64
2, 45504, Note_on_c, 0, 61, 92
2, 45696, Note_off_c, 0, 61, 64
2, 45696, Note_on_c, 0, 59, 92
2, 45888, Note_off_c, 0, 59, 64
2, 45888, Note_on_c, 0, 61, 92
2, 46080, Note_off_c, 0, 61, 64
2, 46080, Note_on_c, 0, 66, 92
2, 46464, Note_off_c, 0, 66, 64
2, 46464, Note_on_c, 0, 59, 92
2, 46848, Note_off_c, 0, 59, 64
2, 46848, Note_on_c, 0, 64, 92
2, 47040, Note_off_c, 0, 64, 64
2, 47040, Note_on_c, 0, 62, 92
2, 47232, Note_off_c, 0, 62, 64
2, 47232, Note_on_c, 0, 64, 92
2, 47424, Note_off_c, 0, 64, 64
2, 47424, Note_on_c, 0, 67, 92
2, 47616, Note_off_c, 0, 67, 64
2, 47616, Note_on_c, 0, 64, 92
2, 47808, Note_off_c, 0, 64, 64
2, 47808, Note_on_c, 0, 62, 92
2, 48000, Note_off_c, 0, 62, 64
2, 48000, Note_on_c, 0, 64, 92
2, 48192, Note_off_c, 0, 64, 64
2, 48192, Note_on_c, 0, 67, 92
2, 48384, Note_off_c, 0, 67, 64
2, 48384, Note_on_c, 0, 61, 92
2, 48576, Note_off_c, 0, 61, 64
2, 48576, Note_on_c, 0, 66, 92
2, 48768, Note_off_c, 0, 66, 64
2, 48768, Note_on_c, 0, 64, 92
2, 48960, Note_off_c, 0, 64, 64
2, 48960, Note_on_c, 0, 66, 92
2, 49152, Note_off_c, 0, 66, 64
2, 49152, Note_on_c, 0, 55, 92
2, 49536, Note_off_c, 0, 55, 64
2, 49536, Note_on_c, 0, 71, 92
2, 49920, Note_off_c, 0, 71, 64
2, 49920, Note_on_c, 0, 71, 92
2, 50304, Note_off_c, 0, 71, 64
2, 50304, Note_on_c, 0, 71, 92
2, 50688, Note_off_c, 0, 71, 64
2, 50688, Note_on_c, 0, 71, 92
2, 50880, Note_off_c, 0, 71, 64
2, 50880, Note_on_c, 0, 70, 92
2, 51072, Note_off_c, 0, 70, 64
2, 51072, Note_on_c, 0, 68, 92
2, 51264, Note_off_c, 0, 68, 64
2, 51264, Note_on_c, 0, 70, 92
2, 51456, Note_off_c, 0, 70, 64
2, 51456, Note_on_c, 0, 71, 92
2, 51648, Note_off_c, 0, 71, 64
2, 51648, Note_on_c, 0, 73, 92
2, 51840, Note_off_c, 0, 73, 64
2, 51840, Note_on_c, 0, 74, 92
2, 52032, Note_off_c, 0, 74, 64
2, 52032, Note_on_c, 0, 76, 92
2, 52224, Note_off_c, 0, 76, 64
2, 52224, Note_on_c, 0, 73, 92
2, 52416, Note_off_c, 0, 73, 64
2, 52416, Note_on_c, 0, 74, 92
2, 52608, Note_off_c, 0, 74, 64
2, 52608, Note_on_c, 0, 73, 92
2, 52800, Note_off_c, 0, 73, 64
2, 52800, Note_on_c, 0, 74, 92
2, 52992, Note_off_c, 0, 74, 64
2, 52992, Note_on_c, 0, 76, 92
2, 53184, Note_off_c, 0, 76, 64
2, 53184, Note_on_c, 0, 74, 92
2, 53376, Note_off_c, 0, 74, 64
2, 53376, Note_on_c, 0, 73, 92
2, 53568, Note_off_c, 0, 73, 64
2, 53568, Note_on_c, 0, 71, 92
2, 53760, Note_off_c, 0, 71, 64
2, 53760, Note_on_c, 0, 69, 92
2, 53952, Note_off_c, 0, 69, 64
2, 53952, Note_on_c, 0, 67, 92
2, 54144, Note_off_c, 0, 67, 64
2, 54144, Note_on_c, 0, 69, 92
2, 54336, Note_off_c, 0, 69, 64
2, 54336, Note_on_c, 0, 71, 92
2, 54528, Note_off_c, 0, 71, 64
2, 54528, Note_on_c, 0, 67, 92
2, 54720, Note_off_c, 0, 67, 64
2, 54720, Note_on_c, 0, 69, 92
2, 54912, Note_off_c, 0, 69, 64
2, 54912, Note_on_c, 0, 67, 92
2, 55104, Note_off_c, 0, 67, 64
2, 55104, Note_on_c, 0, 69, 92
2, 55296, Note_off_c, 0, 69, 64
2, 55296, Note_on_c, 0, 71, 92
2, 55488, Note_off_c, 0, 71, 64
2, 55488, Note_on_c, 0, 69, 92
2, 55680, Note_off_c, 0, 69, 64
2, 55680, Note_on_c, 0, 67, 92
2, 55872, Note_off_c, 0, 67, 64
2, 55872, Note_on_c, 0, 66, 92
2, 56064, Note_off_c, 0, 66, 64
2, 56064, Note_on_c, 0, 64, 92
2, 56448, Note_off_c, 0, 64, 64
2, 56448, Note_on_c, 0, 71, 92
2, 56832, Note_off_c, 0, 71, 64
2, 56832, Note_on_c, 0, 70, 92
2, 57216, Note_off_c, 0, 70, 64
2, 57216, Note_on_c, 0, 79, 92
2, 57600, Note_off_c, 0, 79, 64
2, 57600, Note_on_c, 0, 78, 92
2, 57984, Note_off_c, 0, 78, 64
2, 57984, Note_on_c, 0, 70, 92
2, 58368, Note_off_c, 0, 70, 64
2, 58368, Note_on_c, 0, 71, 92
2, 58752, Note_off_c, 0, 71, 64
2, 58752, Note_on_c, 0, 78, 92
2, 59520, Note_off_c, 0, 78, 64
2, 59520, Note_on_c, 0, 76, 92
2, 59712, Note_off_c, 0, 76, 64
2, 59712, Note_on_c, 0, 75, 92
2, 59904, Note_off_c, 0, 75, 64
2, 59904, Note_on_c, 0, 76, 92
2, 60096, Note_off_c, 0, 76, 64
2, 60096, Note_on_c, 0, 75, 92
2, 60288, Note_off_c, 0, 75, 64
2, 60288, Note_on_c, 0, 73, 92
2, 60480, Note_off_c, 0, 73, 64
2, 60480, Note_on_c, 0, 71, 92
2, 60672, Note_off_c, 0, 71, 64
2, 60672, Note_on_c, 0, 79, 92
2, 60864, Note_off_c, 0, 79, 64
2, 60864, Note_on_c, 0, 78, 92
2, 61056, Note_off_c, 0, 78, 64
2, 61056, Note_on_c, 0, 79, 92
2, 61248, Note_off_c, 0, 79, 64
2, 61248, Note_on_c, 0, 83, 92
2, 61440, Note_off_c, 0, 83, 64
2, 61440, Note_on_c, 0, 79, 92
2, 61632, Note_off_c, 0, 79, 64
2, 61632, Note_on_c, 0, 78, 92
2, 61824, Note_off_c, 0, 78, 64
2, 61824, Note_on_c, 0, 79, 92
2, 62016, Note_off_c, 0, 79, 64
2, 62016, Note_on_c, 0, 83, 92
2, 62208, Note_off_c, 0, 83, 64
2, 62208, Note_on_c, 0, 78, 92
2, 62400, Note_off_c, 0, 78, 64
2, 62400, Note_on_c, 0, 83, 92
2, 62592, Note_off_c, 0, 83, 64
2, 62592, Note_on_c, 0, 81, 92
2, 62784, Note_off_c, 0, 81, 64
2, 62784, Note_on_c, 0, 83, 92
2, 62976, Note_off_c, 0, 83, 64
2, 62976, Note_on_c, 0, 76, 92
2, 63360, Note_off_c, 0, 76, 64
2, 63360, Note_on_c, 0, 76, 92
2, 64128, Note_off_c, 0, 76, 64
2, 64128, Note_on_c, 0, 74, 92
2, 64320, Note_off_c, 0, 74, 64
2, 64320, Note_on_c, 0, 72, 92
2, 64512, Note_off_c, 0, 72, 64
2, 64512, Note_on_c, 0, 74, 92
2, 64704, Note_off_c, 0, 74, 64
2, 64704, Note_on_c, 0, 72, 92
2, 64896, Note_off_c, 0, 72, 64
2, 64896, Note_on_c, 0, 71, 92
2, 65088, Note_off_c, 0, 71, 64
2, 65088, Note_on_c, 0, 69, 92
2, 65280, Note_off_c, 0, 69, 64
2, 65280, Note_on_c, 0, 78, 92
2, 65472, Note_off_c, 0, 78, 64
2, 65472, Note_on_c, 0, 76, 92
2, 65664, Note_off_c, 0, 76, 64
2, 65664, Note_on_c, 0, 78, 92
2, 65856, Note_off_c, 0, 78, 64
2, 65856, Note_on_c, 0, 81, 92
2, 66048, Note_off_c, 0, 81, 64
2, 66048, Note_on_c, 0, 78, 92
2, 66240, Note_off_c, 0, 78, 64
2, 66240, Note_on_c, 0, 76, 92
2, 66432, Note_off_c, 0, 76, 64
2, 66432, Note_on_c, 0, 78, 92
2, 66624, Note_off_c, 0, 78, 64
2, 66624, Note_on_c, 0, 81, 92
2, 66816, Note_off_c, 0, 81, 64
2, 66816, Note_on_c, 0, 76, 92
2, 67008, Note_off_c, 0, 76, 64
2, 67008, Note_on_c, 0, 81, 92
2, 67200, Note_off_c, 0, 81, 64
2, 67200, Note_on_c, 0, 79, 92
2, 67392, Note_off_c, 0, 79, 64
2, 67392, Note_on_c, 0, 81, 92
2, 67584, Note_off_c, 0, 81, 64
2, 67584, Note_on_c, 0, 74, 92
2, 67968, Note_off_c, 0, 74, 64
2, 67968, Note_on_c, 0, 74, 92
2, 68736, Note_off_c, 0, 74, 64
2, 68736, Note_on_c, 0, 72, 92
2, 68928, Note_off_c, 0, 72, 64
2, 68928, Note_on_c, 0, 71, 92
2, 69120, Note_off_c, 0, 71, 64
2, 69120, Note_on_c, 0, 72, 92
2, 69312, Note_off_c, 0, 72, 64
2, 69312, Note_on_c, 0, 71, 92
2, 69504, Note_off_c, 0, 71, 64
2, 69504, Note_on_c, 0, 69, 92
2, 69696, Note_off_c, 0, 69, 64
2, 69696, Note_on_c, 0, 67, 92
2, 69888, Note_off_c, 0, 67, 64
2, 69888, Note_on_c, 0, 72, 92
2, 70080, Note_off_c, 0, 72, 64
2, 70080, Note_on_c, 0, 74, 92
2, 70272, Note_off_c, 0, 74, 64
2, 70272, Note_on_c, 0, 72, 92
2, 70464, Note_off_c, 0, 72, 64
2, 70464, Note_on_c, 0, 67, 92
2, 70656, Note_off_c, 0, 67, 64
2, 70656, Note_on_c, 0, 64, 92
2, 70848, Note_off_c, 0, 64, 64
2, 70848, Note_on_c, 0, 67, 92
2, 71040, Note_off_c, 0, 67, 64
2, 71040, Note_on_c, 0, 72, 92
2, 71232, Note_off_c, 0, 72, 64
2, 71232, Note_on_c, 0, 74, 92
2, 71424, Note_off_c, 0, 74, 64
2, 71424, Note_on_c, 0, 76, 92
2, 71616, Note_off_c, 0, 76, 64
2, 71616, Note_on_c, 0, 74, 92
2, 71808, Note_off_c, 0, 74, 64
2, 71808, Note_on_c, 0, 72, 92
2, 72000, Note_off_c, 0, 72, 64
2, 72000, Note_on_c, 0, 74, 92
2, 72192, Note_off_c, 0, 74, 64
2, 72192, Note_on_c, 0, 76, 92
2, 77184, Note_off_c, 0, 76, 64
2, 81792, Note_on_c, 0, 83, 92
2, 82560, Note_off_c, 0, 83, 64
2, 82560, Note_on_c, 0, 81, 92
2, 82752, Note_off_c, 0, 81, 64
2, 82752, Note_on_c, 0, 80, 92
2, 82944, Note_off_c, 0, 80, 64
2, 82944, Note_on_c, 0, 81, 92
2, 83136, Note_off_c, 0, 81, 64
2, 83136, Note_on_c, 0, 80, 92
2, 83328, Note_off_c, 0, 80, 64
2, 83328, Note_on_c, 0, 78, 92
2, 83520, Note_off_c, 0, 78, 64
2, 83520, Note_on_c, 0, 76, 92
2, 83712, Note_off_c, 0, 76, 64
2, 83712, Note_on_c, 0, 81, 92
2, 83904, Note_off_c, 0, 81, 64
2, 83904, Note_on_c, 0, 83, 92
2, 84096, Note_off_c, 0, 83, 64
2, 84096, Note_on_c, 0, 81, 92
2, 84288, Note_off_c, 0, 81, 64
2, 84288, Note_on_c, 0, 76, 92
2, 84480, Note_off_c, 0, 76, 64
2, 84480, Note_on_c, 0, 72, 92
2, 84672, Note_off_c, 0, 72, 64
2, 84672, Note_on_c, 0, 76, 92
2, 84864, Note_off_c, 0, 76, 64
2, 84864, Note_on_c, 0, 81, 92
2, 85056, Note_off_c, 0, 81, 64
2, 85056, Note_on_c, 0, 83, 92
2, 85248, Note_off_c, 0, 83, 64
2, 85248, Note_on_c, 0, 84, 92
2, 85440, Note_off_c, 0, 84, 64
2, 85440, Note_on_c, 0, 83, 92
2, 85632, Note_off_c, 0, 83, 64
2, 85632, Note_on_c, 0, 81, 92
2, 85824, Note_off_c, 0, 81, 64
2, 85824, Note_on_c, 0, 83, 92
2, 86016, Note_off_c, 0, 83, 64
2, 86016, Note_on_c, 0, 84, 92
2, 86400, Note_off_c, 0, 84, 64
2, 86400, Note_on_c, 0, 77, 92
2, 86976, Note_off_c, 0, 77, 64
2, 86976, Note_on_c, 0, 76, 92
2, 87168, Note_off_c, 0, 76, 64
2, 87168, Note_on_c, 0, 74, 92
2, 87360, Note_off_c, 0, 74, 64
2, 87360, Note_on_c, 0, 76, 92
2, 87552, Note_off_c, 0, 76, 64
2, 87552, Note_on_c, 0, 81, 92
2, 87936, Note_off_c, 0, 81, 64
2, 87936, Note_on_c, 0, 74, 92
2, 88320, Note_off_c, 0, 74, 64
2, 88320, Note_on_c, 0, 79, 92
2, 88704, Note_off_c, 0, 79, 64
2, 88704, Note_on_c, 0, 72, 92
2, 89280, Note_off_c, 0, 72, 64
2, 89280, Note_on_c, 0, 71, 92
2, 89472, Note_off_c, 0, 71, 64
2, 89472, Note_on_c, 0, 69, 92
2, 89664, Note_off_c, 0, 69, 64
2, 89664, Note_on_c, 0, 71, 92
2, 89856, Note_off_c, 0, 71, 64
2, 89856, Note_on_c, 0, 76, 92
2, 90240, Note_off_c, 0, 76, 64
2, 90240, Note_on_c, 0, 69, 92
2, 90624, Note_off_c, 0, 69, 64
2, 90624, Note_on_c, 0, 74, 92
2, 90816, Note_off_c, 0, 74, 64
2, 90816, Note_on_c, 0, 72, 92
2, 91008, Note_off_c, 0, 72, 64
2, 91008, Note_on_c, 0, 74, 92
2, 91200, Note_off_c, 0, 74, 64
2, 91200, Note_on_c, 0, 77, 92
2, 91392, Note_off_c, 0, 77, 64
2, 91392, Note_on_c, 0, 74, 92
2, 91584, Note_off_c, 0, 74, 64
2, 91584, Note_on_c, 0, 72, 92
2, 91776, Note_off_c, 0, 72, 64
2, 91776, Note_on_c, 0, 74, 92
2, 91968, Note_off_c, 0, 74, 64
2, 91968, Note_on_c, 0, 77, 92
2, 92160, Note_off_c, 0, 77, 64
2, 92160, Note_on_c, 0, 71, 92
2, 92352, Note_off_c, 0, 71, 64
2, 92352, Note_on_c, 0, 76, 92
2, 92544, Note_off_c, 0, 76, 64
2, 92544, Note_on_c, 0, 74, 92
2, 92736, Note_off_c, 0, 74, 64
2, 92736, Note_on_c, 0, 76, 92
2, 92928, Note_off_c, 0, 76, 64
2, 92928, Note_on_c, 0, 72, 92
2, 93120, Note_off_c, 0, 72, 64
2, 93120, Note_on_c, 0, 71, 92
2, 93312, Note_off_c, 0, 71, 64
2, 93312, Note_on_c, 0, 69, 92
2, 93504, Note_off_c, 0, 69, 64
2, 93504, Note_on_c, 0, 71, 92
2, 93696, Note_off_c, 0, 71, 64
2, 93696, Note_on_c, 0, 68, 92
2, 94080, Note_off_c, 0, 68, 64
2, 94080, Note_on_c, 0, 77, 92
2, 94464, Note_off_c, 0, 77, 64
2, 94464, Note_on_c, 0, 76, 92
2, 94848, Note_off_c, 0, 76, 64
2, 94848, Note_on_c, 0, 68, 92
2, 95232, Note_off_c, 0, 68, 64
2, 95232, Note_on_c, 0, 69, 92
2, 95616, Note_off_c, 0, 69, 64
2, 95616, Note_on_c, 0, 76, 92
2, 96384, Note_off_c, 0, 76, 64
2, 96384, Note_on_c, 0, 74, 92
2, 96576, Note_off_c, 0, 74, 64
2, 96576, Note_on_c, 0, 72, 92
2, 96768, Note_off_c, 0, 72, 64
2, 96768, Note_on_c, 0, 74, 92
2, 96960, Note_off_c, 0, 74, 64
2, 96960, Note_on_c, 0, 72, 92
2, 97152, Note_off_c, 0, 72, 64
2, 97152, Note_on_c, 0, 71, 92
2, 97344, Note_off_c, 0, 71, 64
2, 97344, Note_on_c, 0, 69, 92
2, 97536, Note_off_c, 0, 69, 64
2, 97536, Note_on_c, 0, 76, 92
2, 97632, Note_off_c, 0, 76, 64
2, 97632, Note_on_c, 0, 75, 92
2, 97728, Note_off_c, 0, 75, 64
2, 97728, Note_on_c, 0, 76, 92
2, 97824, Note_off_c, 0, 76, 64
2, 97824, Note_on_c, 0, 75, 92
2, 97920, Note_off_c, 0, 75, 64
2, 97920, Note_on_c, 0, 76, 92
2, 98016, Note_off_c, 0, 76, 64
2, 98016, Note_on_c, 0, 75, 92
2, 98112, Note_off_c, 0, 75, 64
2, 98112, Note_on_c, 0, 76, 92
2, 98208, Note_off_c, 0, 76, 64
2, 98208, Note_on_c, 0, 75, 92
2, 98304, Note_off_c, 0, 75, 64
2, 98304, Note_on_c, 0, 76, 92
2, 98400, Note_off_c, 0, 76, 64
2, 98400, Note_on_c, 0, 75, 92
2, 98496, Note_off_c, 0, 75, 64
2, 98496, Note_on_c, 0, 76, 92
2, 98592, Note_off_c, 0, 76, 64
2, 98592, Note_on_c, 0, 75, 92
2, 98688, Note_off_c, 0, 75, 64
2, 98688, Note_on_c, 0, 76, 92
2, 98784, Note_off_c, 0, 76, 64
2, 98784, Note_on_c, 0, 75, 92
2, 98880, Note_off_c, 0, 75, 64
2, 98880, Note_on_c, 0, 76, 92
2, 98976, Note_off_c, 0, 76, 64
2, 98976, Note_on_c, 0, 75, 92
2, 99072, Note_off_c, 0, 75, 64
2, 99072, Note_on_c, 0, 76, 92
2, 99168, Note_off_c, 0, 76, 64
2, 99168, Note_on_c, 0, 75, 92
2, 99264, Note_off_c, 0, 75, 64
2, 99264, Note_on_c, 0, 76, 92
2, 99360, Note_off_c, 0, 76, 64
2, 99360, Note_on_c, 0, 75, 92
2, 99456, Note_off_c, 0, 75, 64
2, 99456, Note_on_c, 0, 76, 92
2, 99552, Note_off_c, 0, 76, 64
2, 99552, Note_on_c, 0, 75, 92
2, 99648, Note_off_c, 0, 75, 64
2, 99648, Note_on_c, 0, 76, 92
2, 99744, Note_off_c, 0, 76, 64
2, 99744, Note_on_c, 0, 75, 92
2, 99840, Note_off_c, 0, 75, 64
2, 99840, Note_on_c, 0, 76, 92
2, 100224, Note_off_c, 0, 76, 64
2, 100224, Note_on_c, 0, 71, 92
2, 100992, Note_off_c, 0, 71, 64
2, 100992, Note_on_c, 0, 69, 92
2, 101184, Note_off_c, 0, 69, 64
2, 101184, Note_on_c, 0, 67, 92
2, 101376, Note_off_c, 0, 67, 64
2, 101376, Note_on_c, 0, 69, 92
2, 101568, Note_off_c, 0, 69, 64
2, 101568, Note_on_c, 0, 67, 92
2, 101760, Note_off_c, 0, 67, 64
2, 101760, Note_on_c, 0, 66, 92
2, 101952, Note_off_c, 0, 66, 64
2, 101952, Note_on_c, 0, 64, 92
2, 102144, Note_off_c, 0, 64, 64
2, 102144, Note_on_c, 0, 71, 92
2, 102912, Note_off_c, 0, 71, 64
2, 104832, Note_on_c, 0, 71, 92
2, 105600, Note_off_c, 0, 71, 64
2, 105600, Note_on_c, 0, 69, 92
2, 105792, Note_off_c, 0, 69, 64
2, 105792, Note_on_c, 0, 67, 92
2, 105984, Note_off_c, 0, 67, 64
2, 105984, Note_on_c, 0, 69, 92
2, 106176, Note_off_c, 0, 69, 64
2, 106176, Note_on_c, 0, 67, 92
2, 106368, Note_off_c, 0, 67, 64
2, 106368, Note_on_c, 0, 66, 92
2, 106560, Note_off_c, 0, 66, 64
2, 106560, Note_on_c, 0, 64, 92
2, 106752, Note_off_c, 0, 64, 64
2, 106752, Note_on_c, 0, 72, 92
2, 106944, Note_off_c, 0, 72, 64
2, 106944, Note_on_c, 0, 71, 92
2, 107136, Note_off_c, 0, 71, 64
2, 107136, Note_on_c, 0, 72, 92
2, 107328, Note_off_c, 0, 72, 64
2, 107328, Note_on_c, 0, 76, 92
2, 107520, Note_off_c, 0, 76, 64
2, 107520, Note_on_c, 0, 72, 92
2, 107712, Note_off_c, 0, 72, 64
2, 107712, Note_on_c, 0, 71, 92
2, 107904, Note_off_c, 0, 71, 64
2, 107904, Note_on_c, 0, 72, 92
2, 108096, Note_off_c, 0, 72, 64
2, 108096, Note_on_c, 0, 76, 92
2, 108288, Note_off_c, 0, 76, 64
2, 108288, Note_on_c, 0, 71, 92
2, 108480, Note_off_c, 0, 71, 64
2, 108480, Note_on_c, 0, 76, 92
2, 108672, Note_off_c, 0, 76, 64
2, 108672, Note_on_c, 0, 74, 92
2, 108864, Note_off_c, 0, 74, 64
2, 108864, Note_on_c, 0, 76, 92
2, 109056, Note_off_c, 0, 76, 64
2, 109056, Note_on_c, 0, 69, 92
2, 109440, Note_off_c, 0, 69, 64
2, 109440, Note_on_c, 0, 69, 92
2, 110208, Note_off_c, 0, 69, 64
2, 110208, Note_on_c, 0, 67, 92
2, 110400, Note_off_c, 0, 67, 64
2, 110400, Note_on_c, 0, 66, 92
2, 110592, Note_off_c, 0, 66, 64
2, 110592, Note_on_c, 0, 67, 92
2, 110784, Note_off_c, 0, 67, 64
2, 110784, Note_on_c, 0, 66, 92
2, 110976, Note_off_c, 0, 66, 64
2, 110976, Note_on_c, 0, 64, 92
2, 111168, Note_off_c, 0, 64, 64
2, 111168, Note_on_c, 0, 62, 92
2, 111360, Note_off_c, 0, 62, 64
2, 111360, Note_on_c, 0, 71, 92
2, 111552, Note_off_c, 0, 71, 64
2, 111552, Note_on_c, 0, 69, 92
2, 111744, Note_off_c, 0, 69, 64
2, 111744, Note_on_c, 0, 71, 92
2, 111936, Note_off_c, 0, 71, 64
2, 111936, Note_on_c, 0, 74, 92
2, 112128, Note_off_c, 0, 74, 64
2, 112128, Note_on_c, 0, 71, 92
2, 112320, Note_off_c, 0, 71, 64
2, 112320, Note_on_c, 0, 69, 92
2, 112512, Note_off_c, 0, 69, 64
2, 112512, Note_on_c, 0, 71, 92
2, 112704, Note_off_c, 0, 71, 64
2, 112704, Note_on_c, 0, 74, 92
2, 112896, Note_off_c, 0, 74, 64
2, 112896, Note_on_c, 0, 69, 92
2, 113088, Note_off_c, 0, 69, 64
2, 113088, Note_on_c, 0, 74, 92
2, 113280, Note_off_c, 0, 74, 64
2, 113280, Note_on_c, 0, 72, 92
2, 113472, Note_off_c, 0, 72, 64
2, 113472, Note_on_c, 0, 74, 92
2, 113664, Note_off_c, 0, 74, 64
2, 113664, Note_on_c, 0, 67, 92
2, 114048, Note_off_c, 0, 67, 64
2, 114048, Note_on_c, 0, 76, 92
2, 114816, Note_off_c, 0, 76, 64
2, 114816, Note_on_c, 0, 74, 92
2, 115008, Note_off_c, 0, 74, 64
2, 115008, Note_on_c, 0, 72, 92
2, 115200, Note_off_c, 0, 72, 64
2, 115200, Note_on_c, 0, 74, 92
2, 115392, Note_off_c, 0, 74, 64
2, 115392, Note_on_c, 0, 72, 92
2, 115584, Note_off_c, 0, 72, 64
2, 115584, Note_on_c, 0, 71, 92
2, 115776, Note_off_c, 0, 71, 64
2, 115776, Note_on_c, 0, 69, 92
2, 115968, Note_off_c, 0, 69, 64
2, 115968, Note_on_c, 0, 68, 92
2, 116160, Note_off_c, 0, 68, 64
2, 116160, Note_on_c, 0, 69, 92
2, 116352, Note_off_c, 0, 69, 64
2, 116352, Note_on_c, 0, 71, 92
2, 117120, Note_off_c, 0, 71, 64
2, 117120, Note_on_c, 0, 69, 92
2, 117312, Note_off_c, 0, 69, 64
2, 117312, Note_on_c, 0, 68, 92
2, 117504, Note_off_c, 0, 68, 64
2, 117504, Note_on_c, 0, 69, 92
2, 117696, Note_off_c, 0, 69, 64
2, 117696, Note_on_c, 0, 68, 92
2, 117888, Note_off_c, 0, 68, 64
2, 117888, Note_on_c, 0, 66, 92
2, 118080, Note_off_c, 0, 66, 64
2, 118080, Note_on_c, 0, 64, 92
2, 118272, Note_off_c, 0, 64, 64
2, 118272, Note_on_c, 0, 69, 92
2, 118464, Note_off_c, 0, 69, 64
2, 118464, Note_on_c, 0, 71, 92
2, 118656, Note_off_c, 0, 71, 64
2, 118656, Note_on_c, 0, 69, 92
2, 118848, Note_off_c, 0, 69, 64
2, 118848, Note_on_c, 0, 64, 92
2, 119040, Note_off_c, 0, 64, 64
2, 119040, Note_on_c, 0, 60, 92
2, 119232, Note_off_c, 0, 60, 64
2, 119232, Note_on_c, 0, 64, 92
2, 119424, Note_off_c, 0, 64, 64
2, 119424, Note_on_c, 0, 69, 92
2, 119616, Note_off_c, 0, 69, 64
2, 119616, Note_on_c, 0, 71, 92
2, 119808, Note_off_c, 0, 71, 64
2, 119808, Note_on_c, 0, 72, 92
2, 120000, Note_off_c, 0, 72, 64
2, 120000, Note_on_c, 0, 71, 92
2, 120192, Note_off_c, 0, 71, 64
2, 120192, Note_on_c, 0, 69, 92
2, 120384, Note_off_c, 0, 69, 64
2, 120384, Note_on_c, 0, 71, 92
2, 120576, Note_off_c, 0, 71, 64
2, 120576, Note_on_c, 0, 72, 92
2, 123648, Note_off_c, 0, 72, 64
2, 123648, Note_on_c, 0, 71, 92
2, 124416, Note_off_c, 0, 71, 64
2, 124416, Note_on_c, 0, 69, 92
2, 125184, Note_off_c, 0, 69, 64
2, 125184, Note_on_c, 0, 67, 92
2, 125952, Note_off_c, 0, 67, 64
2, 125952, Note_on_c, 0, 71, 92
2, 126720, Note_off_c, 0, 71, 64
2, 126720, Note_on_c, 0, 76, 92
2, 127680, Note_off_c, 0, 76, 64
2, 127680, Note_on_c, 0, 75, 92
2, 127872, Note_off_c, 0, 75, 64
2, 127872, Note_on_c, 0, 76, 92
2, 128064, Note_off_c, 0, 76, 64
2, 128064, Note_on_c, 0, 79, 92
2, 128256, Note_off_c, 0, 79, 64
2, 128256, Note_on_c, 0, 76, 92
2, 128448, Note_off_c, 0, 76, 64
2, 128448, Note_on_c, 0, 75, 92
2, 128640, Note_off_c, 0, 75, 64
2, 128640, Note_on_c, 0, 76, 92
2, 128832, Note_off_c, 0, 76, 64
2, 128832, Note_on_c, 0, 79, 92
2, 129024, Note_off_c, 0, 79, 64
2, 129024, Note_on_c, 0, 71, 92
2, 129216, Note_off_c, 0, 71, 64
2, 129216, Note_on_c, 0, 74, 92
2, 129408, Note_off_c, 0, 74, 64
2, 129408, Note_on_c, 0, 72, 92
2, 129600, Note_off_c, 0, 72, 64
2, 129600, Note_on_c, 0, 71, 92
2, 129792, Note_off_c, 0, 71, 64
2, 129792, Note_on_c, 0, 72, 92
2, 129984, Note_off_c, 0, 72, 64
2, 129984, Note_on_c, 0, 71, 92
2, 130176, Note_off_c, 0, 71, 64
2, 130176, Note_on_c, 0, 72, 92
2, 130368, Note_off_c, 0, 72, 64
2, 130368, Note_on_c, 0, 76, 92
2, 130560, Note_off_c, 0, 76, 64
2, 130560, Note_on_c, 0, 72, 92
2, 130752, Note_off_c, 0, 72, 64
2, 130752, Note_on_c, 0, 71, 92
2, 130944, Note_off_c, 0, 71, 64
2, 130944, Note_on_c, 0, 72, 92
2, 131136, Note_off_c, 0, 72, 64
2, 131136, Note_on_c, 0, 76, 92
2, 131328, Note_off_c, 0, 76, 64
2, 131328, Note_on_c, 0, 67, 92
2, 131520, Note_off_c, 0, 67, 64
2, 131520, Note_on_c, 0, 71, 92
2, 131712, Note_off_c, 0, 71, 64
2, 131712, Note_on_c, 0, 69, 92
2, 131904, Note_off_c, 0, 69, 64
2, 131904, Note_on_c, 0, 67, 92
2, 132096, Note_off_c, 0, 67, 64
2, 132096, Note_on_c, 0, 66, 92
2, 134592, Note_off_c, 0, 66, 64
2, 134592, Note_on_c, 0, 64, 92
2, 134784, Note_off_c, 0, 64, 64
2, 134784, Note_on_c, 0, 66, 92
2, 134976, Note_off_c, 0, 66, 64
2, 134976, Note_on_c, 0, 69, 92
2, 135168, Note_off_c, 0, 69, 64
2, 135168, Note_on_c, 0, 69, 92
2, 135360, Note_off_c, 0, 69, 64
2, 135360, Note_on_c, 0, 67, 92
2, 135552, Note_off_c, 0, 67, 64
2, 135552, Note_on_c, 0, 69, 92
2, 135744, Note_off_c, 0, 69, 64
2, 135744, Note_on_c, 0, 72, 92
2, 135936, Note_off_c, 0, 72, 64
2, 135936, Note_on_c, 0, 72, 92
2, 136128, Note_off_c, 0, 72, 64
2, 136128, Note_on_c, 0, 71, 92
2, 136320, Note_off_c, 0, 71, 64
2, 136320, Note_on_c, 0, 72, 92
2, 136512, Note_off_c, 0, 72, 64
2, 136512, Note_on_c, 0, 75, 92
2, 136704, Note_off_c, 0, 75, 64
2, 136704, Note_on_c, 0, 75, 92
2, 137472, Note_off_c, 0, 75, 64
2, 137856, Note_on_c, 0, 75, 92
2, 138240, Note_off_c, 0, 75, 64
2, 138240, Note_on_c, 0, 76, 92
2, 138624, Note_off_c, 0, 76, 64
2, 138624, Note_on_c, 0, 78, 92
2, 138816, Note_off_c, 0, 78, 64
2, 138816, Note_on_c, 0, 75, 92
2, 139008, Note_off_c, 0, 75, 64
2, 139008, Note_on_c, 0, 76, 92
2, 139392, Note_off_c, 0, 76, 64
2, 139392, Note_on_c, 0, 78, 92
2, 139776, Note_off_c, 0, 78, 64
2, 139776, Note_on_c, 0, 75, 92
2, 140928, Note_off_c, 0, 75, 64
2, 140928, Note_on_c, 0, 76, 92
2, 141312, Note_off_c, 0, 76, 64
2, 141312, Note_on_c, 0, 76, 92
2, 141696, Note_off_c, 0, 76, 64
2, 141696, Note_on_c, 0, 71, 92
2, 142464, Note_off_c, 0, 71, 64
2, 142464, Note_on_c, 0, 69, 92
2, 142656, Note_off_c, 0, 69, 64
2, 142656, Note_on_c, 0, 67, 92
2, 142848, Note_off_c, 0, 67, 64
2, 142848, Note_on_c, 0, 69, 92
2, 143040, Note_off_c, 0, 69, 64
2, 143040, Note_on_c, 0, 67, 92
2, 143232, Note_off_c, 0, 67, 64
2, 143232, Note_on_c, 0, 66, 92
2, 143424, Note_off_c, 0, 66, 64
2, 143424, Note_on_c, 0, 64, 92
2, 143616, Note_off_c, 0, 64, 64
2, 143616, Note_on_c, 0, 70, 92
2, 145152, Note_off_c, 0, 70, 64
2, 145152, Note_on_c, 0, 69, 92
2, 147072, Note_off_c, 0, 69, 64
2, 147072, Note_on_c, 0, 71, 92
2, 147456, Note_off_c, 0, 71, 64
2, 147456, Note_on_c, 0, 67, 92
2, 147840, Note_off_c, 0, 67, 64
2, 147840, Note_on_c, 0, 66, 92
2, 148224, Note_off_c, 0, 66, 64
2, 148224, Note_on_c, 0, 67, 92
2, 148608, Note_off_c, 0, 67, 64
2, 148608, Note_on_c, 0, 69, 92
2, 148992, Note_off_c, 0, 69, 64
2, 148992, Note_on_c, 0, 66, 92
2, 150144, Note_off_c, 0, 66, 64
2, 150144, Note_on_c, 0, 64, 92
2, 150528, Note_off_c, 0, 64, 64
2, 150528, Note_on_c, 0, 64, 92
2, 152832, Note_off_c, 0, 64, 64
2, 156288, Note_on_c, 0, 66, 92
2, 156672, Note_off_c, 0, 66, 64
2, 156672, Note_on_c, 0, 71, 92
2, 157056, Note_off_c, 0, 71, 64
2, 157056, Note_on_c, 0, 76, 92
2, 157440, Note_off_c, 0, 76, 64
2, 157440, Note_on_c, 0, 73, 92
2, 157824, Note_off_c, 0, 73, 64
2, 157824, Note_on_c, 0, 64, 92
2, 158208, Note_off_c, 0, 64, 64
2, 158208, Note_on_c, 0, 69, 92
2, 158592, Note_off_c, 0, 69, 64
2, 158592, Note_on_c, 0, 74, 92
2, 158976, Note_off_c, 0, 74, 64
2, 158976, Note_on_c, 0, 71, 92
2, 159360, Note_off_c, 0, 71, 64
2, 159360, Note_on_c, 0, 62, 92
2, 159744, Note_off_c, 0, 62, 64
2, 159744, Note_on_c, 0, 67, 92
2, 160128, Note_off_c, 0, 67, 64
2, 160128, Note_on_c, 0, 72, 92
2, 160512, Note_off_c, 0, 72, 64
2, 160512, Note_on_c, 0, 70, 92
2, 160704, Note_off_c, 0, 70, 64
2, 160704, Note_on_c, 0, 76, 92
2, 160896, Note_off_c, 0, 76, 64
2, 160896, Note_on_c, 0, 74, 92
2, 161088, Note_off_c, 0, 74, 64
2, 161088, Note_on_c, 0, 73, 92
2, 161280, Note_off_c, 0, 73, 64
2, 161280, Note_on_c, 0, 73, 92
2, 161856, Note_off_c, 0, 73, 64
2, 161856, Note_on_c, 0, 71, 92
2, 162048, Note_off_c, 0, 71, 64
2, 162048, Note_on_c, 0, 71, 92
2, 162240, Note_off_c, 0, 71, 64
2, 162240, Note_on_c, 0, 71, 92
2, 162336, Note_off_c, 0, 71, 64
2, 162336, Note_on_c, 0, 73, 92
2, 162432, Note_off_c, 0, 73, 64
2, 162432, Note_on_c, 0, 74, 92
2, 162624, Note_off_c, 0, 74, 64
2, 162624, Note_on_c, 0, 71, 92
2, 162816, Note_off_c, 0, 71, 64
2, 162816, Note_on_c, 0, 64, 92
2, 163008, Note_off_c, 0, 64, 64
2, 163008, Note_on_c, 0, 71, 92
2, 163200, Note_off_c, 0, 71, 64
2, 163200, Note_on_c, 0, 79, 92
2, 163776, Note_off_c, 0, 79, 64
2, 163776, Note_on_c, 0, 69, 92
2, 163872, Note_off_c, 0, 69, 64
2, 163872, Note_on_c, 0, 71, 92
2, 163968, Note_off_c, 0, 71, 64
2, 163968, Note_on_c, 0, 73, 92
2, 164160, Note_off_c, 0, 73, 64
2, 164160, Note_on_c, 0, 69, 92
2, 164352, Note_off_c, 0, 69, 64
2, 164352, Note_on_c, 0, 62, 92
2, 164544, Note_off_c, 0, 62, 64
2, 164544, Note_on_c, 0, 69, 92
2, 164736, Note_off_c, 0, 69, 64
2, 164736, Note_on_c, 0, 78, 92
2, 165312, Note_off_c, 0, 78, 64
2, 165312, Note_on_c, 0, 67, 92
2, 165408, Note_off_c, 0, 67, 64
2, 165408, Note_on_c, 0, 69, 92
2, 165504, Note_off_c, 0, 69, 64
2, 165504, Note_on_c, 0, 71, 92
2, 165696, Note_off_c, 0, 71, 64
2, 165696, Note_on_c, 0, 67, 92
2, 165888, Note_off_c, 0, 67, 64
2, 165888, Note_on_c, 0, 60, 92
2, 166080, Note_off_c, 0, 60, 64
2, 166080, Note_on_c, 0, 67, 92
2, 166272, Note_off_c, 0, 67, 64
2, 166272, Note_on_c, 0, 76, 92
2, 166848, Note_off_c, 0, 76, 64
2, 166848, Note_on_c, 0, 70, 92
2, 167040, Note_off_c, 0, 70, 64
2, 167040, Note_on_c, 0, 71, 92
2, 167232, Note_off_c, 0, 71, 64
2, 167232, Note_on_c, 0, 73, 92
2, 167424, Note_off_c, 0, 73, 64
2, 167424, Note_on_c, 0, 70, 92
2, 167520, Note_off_c, 0, 70, 64
2, 167520, Note_on_c, 0, 71, 92
2, 167616, Note_off_c, 0, 71, 64
2, 167616, Note_on_c, 0, 70, 92
2, 168000, Note_off_c, 0, 70, 64
2, 168000, Note_on_c, 0, 71, 92
2, 168192, Note_off_c, 0, 71, 64
2, 168192, Note_on_c, 0, 71, 92
2, 168576, Note_off_c, 0, 71, 64
2, 169152, Note_on_c, 0, 74, 92
2, 169248, Note_off_c, 0, 74, 64
2, 169248, Note_on_c, 0, 73, 92
2, 169344, Note_off_c, 0, 73, 64
2, 169344, Note_on_c, 0, 74, 92
2, 169536, Note_off_c, 0, 74, 64
2, 169536, Note_on_c, 0, 83, 92
2, 169728, Note_off_c, 0, 83, 64
2, 169728, Note_on_c, 0, 73, 92
2, 170112, Note_off_c, 0, 73, 64
2, 170688, Note_on_c, 0, 73, 92
2, 170784, Note_off_c, 0, 73, 64
2, 170784, Note_on_c, 0, 71, 92
2, 170880, Note_off_c, 0, 71, 64
2, 170880, Note_on_c, 0, 73, 92
2, 171072, Note_off_c, 0, 73, 64
2, 171072, Note_on_c, 0, 81, 92
2, 171264, Note_off_c, 0, 81, 64
2, 171264, Note_on_c, 0, 71, 92
2, 171456, Note_off_c, 0, 71, 64
2, 171456, Note_on_c, 0, 71, 92
2, 171552, Note_off_c, 0, 71, 64
2, 171552, Note_on_c, 0, 73, 92
2, 171648, Note_off_c, 0, 73, 64
2, 171648, Note_on_c, 0, 74, 92
2, 171840, Note_off_c, 0, 74, 64
2, 171840, Note_on_c, 0, 71, 92
2, 172032, Note_off_c, 0, 71, 64
2, 172032, Note_on_c, 0, 68, 92
2, 172224, Note_off_c, 0, 68, 64
2, 172224, Note_on_c, 0, 74, 92
2, 172416, Note_off_c, 0, 74, 64
2, 172416, Note_on_c, 0, 83, 92
2, 172992, Note_off_c, 0, 83, 64
2, 172992, Note_on_c, 0, 81, 92
2, 173088, Note_off_c, 0, 81, 64
2, 173088, Note_on_c, 0, 80, 92
2, 173184, Note_off_c, 0, 80, 64
2, 173184, Note_on_c, 0, 81, 92
2, 173376, Note_off_c, 0, 81, 64
2, 173376, Note_on_c, 0, 78, 92
2, 173568, Note_off_c, 0, 78, 64
2, 173568, Note_on_c, 0, 77, 92
2, 174144, Note_off_c, 0, 77, 64
2, 174144, Note_on_c, 0, 78, 92
2, 174336, Note_off_c, 0, 78, 64
2, 174336, Note_on_c, 0, 78, 92
2, 174720, Note_off_c, 0, 78, 64
2, 174720, Note_on_c, 0, 73, 92
2, 175104, Note_off_c, 0, 73, 64
2, 175104, Note_on_c, 0, 78, 92
2, 175488, Note_off_c, 0, 78, 64
2, 175488, Note_on_c, 0, 83, 92
2, 175872, Note_off_c, 0, 83, 64
2, 175872, Note_on_c, 0, 80, 92
2, 176256, Note_off_c, 0, 80, 64
2, 176256, Note_on_c, 0, 71, 92
2, 176640, Note_off_c, 0, 71, 64
2, 176640, Note_on_c, 0, 76, 92
2, 177024, Note_off_c, 0, 76, 64
2, 177024, Note_on_c, 0, 81, 92
2, 177408, Note_off_c, 0, 81, 64
2, 177408, Note_on_c, 0, 78, 92
2, 177792, Note_off_c, 0, 78, 64
2, 177792, Note_on_c, 0, 69, 92
2, 178176, Note_off_c, 0, 69, 64
2, 178176, Note_on_c, 0, 74, 92
2, 178560, Note_off_c, 0, 74, 64
2, 178560, Note_on_c, 0, 79, 92
2, 178944, Note_off_c, 0, 79, 64
2, 178944, Note_on_c, 0, 77, 92
2, 179136, Note_off_c, 0, 77, 64
2, 179136, Note_on_c, 0, 83, 92
2, 179328, Note_off_c, 0, 83, 64
2, 179328, Note_on_c, 0, 81, 92
2, 179520, Note_off_c, 0, 81, 64
2, 179520, Note_on_c, 0, 80, 92
2, 179712, Note_off_c, 0, 80, 64
2, 179712, Note_on_c, 0, 80, 92
2, 179808, Note_off_c, 0, 80, 64
2, 179808, Note_on_c, 0, 81, 92
2, 179904, Note_off_c, 0, 81, 64
2, 179904, Note_on_c, 0, 80, 92
2, 180288, Note_off_c, 0, 80, 64
2, 180288, Note_on_c, 0, 78, 92
2, 180480, Note_off_c, 0, 78, 64
2, 180480, Note_on_c, 0, 78, 92
2, 180672, Note_off_c, 0, 78, 64
2, 180672, Note_on_c, 0, 66, 92
2, 180768, Note_off_c, 0, 66, 64
2, 180768, Note_on_c, 0, 68, 92
2, 180864, Note_off_c, 0, 68, 64
2, 180864, Note_on_c, 0, 69, 92
2, 181056, Note_off_c, 0, 69, 64
2, 181056, Note_on_c, 0, 66, 92
2, 181248, Note_off_c, 0, 66, 64
2, 181248, Note_on_c, 0, 59, 92
2, 181440, Note_off_c, 0, 59, 64
2, 181440, Note_on_c, 0, 66, 92
2, 181632, Note_off_c, 0, 66, 64
2, 181632, Note_on_c, 0, 74, 92
2, 182208, Note_off_c, 0, 74, 64
2, 182208, Note_on_c, 0, 64, 92
2, 182304, Note_off_c, 0, 64, 64
2, 182304, Note_on_c, 0, 66, 92
2, 182400, Note_off_c, 0, 66, 64
2, 182400, Note_on_c, 0, 68, 92
2, 182592, Note_off_c, 0, 68, 64
2, 182592, Note_on_c, 0, 64, 92
2, 182784, Note_off_c, 0, 64, 64
2, 182784, Note_on_c, 0, 57, 92
2, 182976, Note_off_c, 0, 57, 64
2, 182976, Note_on_c, 0, 64, 92
2, 183168, Note_off_c, 0, 64, 64
2, 183168, Note_on_c, 0, 73, 92
2, 183744, Note_off_c, 0, 73, 64
2, 183744, Note_on_c, 0, 62, 92
2, 183840, Note_off_c, 0, 62, 64
2, 183840, Note_on_c, 0, 64, 92
2, 183936, Note_off_c, 0, 64, 64
2, 183936, Note_on_c, 0, 66, 92
2, 184128, Note_off_c, 0, 66, 64
2, 184128, Note_on_c, 0, 62, 92
2, 184320, Note_off_c, 0, 62, 64
2, 184320, Note_on_c, 0, 55, 92
2, 184512, Note_off_c, 0, 55, 64
2, 184512, Note_on_c, 0, 62, 92
2, 184704, Note_off_c, 0, 62, 64
2, 184704, Note_on_c, 0, 71, 92
2, 185280, Note_off_c, 0, 71, 64
2, 185280, Note_on_c, 0, 65, 92
2, 185472, Note_off_c, 0, 65, 64
2, 185472, Note_on_c, 0, 66, 92
2, 185664, Note_off_c, 0, 66, 64
2, 185664, Note_on_c, 0, 68, 92
2, 185856, Note_off_c, 0, 68, 64
2, 185856, Note_on_c, 0, 65, 92
2, 185952, Note_off_c, 0, 65, 64
2, 185952, Note_on_c, 0, 66, 92
2, 186048, Note_off_c, 0, 66, 64
2, 186048, Note_on_c, 0, 65, 92
2, 186432, Note_off_c, 0, 65, 64
2, 186432, Note_on_c, 0, 66, 92
2, 186624, Note_off_c, 0, 66, 64
2, 186624, Note_on_c, 0, 66, 92
2, 187008, Note_off_c, 0, 66, 64
2, 188352, Note_on_c, 0, 71, 92
2, 188448, Note_off_c, 0, 71, 64
2, 188448, Note_on_c, 0, 73, 92
2, 188544, Note_off_c, 0, 73, 64
2, 188544, Note_on_c, 0, 74, 92
2, 188736, Note_off_c, 0, 74, 64
2, 188736, Note_on_c, 0, 71, 92
2, 188928, Note_off_c, 0, 71, 64
2, 188928, Note_on_c, 0, 76, 92
2, 189120, Note_off_c, 0, 76, 64
2, 189120, Note_on_c, 0, 71, 92
2, 189312, Note_off_c, 0, 71, 64
2, 189312, Note_on_c, 0, 78, 92
2, 189504, Note_off_c, 0, 78, 64
2, 189504, Note_on_c, 0, 71, 92
2, 189696, Note_off_c, 0, 71, 64
2, 189696, Note_on_c, 0, 79, 92
2, 191424, Note_off_c, 0, 79, 64
2, 191424, Note_on_c, 0, 69, 92
2, 191520, Note_off_c, 0, 69, 64
2, 191520, Note_on_c, 0, 71, 92
2, 191616, Note_off_c, 0, 71, 64
2, 191616, Note_on_c, 0, 73, 92
2, 191712, Note_off_c, 0, 73, 64
2, 191712, Note_on_c, 0, 71, 92
2, 191808, Note_off_c, 0, 71, 64
2, 191808, Note_on_c, 0, 69, 92
2, 192000, Note_off_c, 0, 69, 64
2, 192000, Note_on_c, 0, 74, 92
2, 192192, Note_off_c, 0, 74, 64
2, 192192, Note_on_c, 0, 69, 92
2, 192384, Note_off_c, 0, 69, 64
2, 192384, Note_on_c, 0, 76, 92
2, 192576, Note_off_c, 0, 76, 64
2, 192576, Note_on_c, 0, 69, 92
2, 192768, Note_off_c, 0, 69, 64
2, 192768, Note_on_c, 0, 78, 92
2, 194496, Note_off_c, 0, 78, 64
2, 194496, Note_on_c, 0, 67, 92
2, 194592, Note_off_c, 0, 67, 64
2, 194592, Note_on_c, 0, 69, 92
2, 194688, Note_off_c, 0, 69, 64
2, 194688, Note_on_c, 0, 71, 92
2, 194784, Note_off_c, 0, 71, 64
2, 194784, Note_on_c, 0, 67, 92
2, 194880, Note_off_c, 0, 67, 64
2, 194880, Note_on_c, 0, 66, 92
2, 194976, Note_off_c, 0, 66, 64
2, 194976, Note_on_c, 0, 67, 92
2, 195072, Note_off_c, 0, 67, 64
2, 195072, Note_on_c, 0, 73, 92
2, 195168, Note_off_c, 0, 73, 64
2, 195168, Note_on_c, 0, 67, 92
2, 195264, Note_off_c, 0, 67, 64
2, 195264, Note_on_c, 0, 66, 92
2, 195360, Note_off_c, 0, 66, 64
2, 195360, Note_on_c, 0, 67, 92
2, 195456, Note_off_c, 0, 67, 64
2, 195456, Note_on_c, 0, 74, 92
2, 195552, Note_off_c, 0, 74, 64
2, 195552, Note_on_c, 0, 67, 92
2, 195648, Note_off_c, 0, 67, 64
2, 195648, Note_on_c, 0, 66, 92
2, 195744, Note_off_c, 0, 66, 64
2, 195744, Note_on_c, 0, 67, 92
2, 195840, Note_off_c, 0, 67, 64
2, 195840, Note_on_c, 0, 76, 92
2, 195936, Note_off_c, 0, 76, 64
2, 195936, Note_on_c, 0, 67, 92
2, 196032, Note_off_c, 0, 67, 64
2, 196032, Note_on_c, 0, 66, 92
2, 196128, Note_off_c, 0, 66, 64
2, 196128, Note_on_c, 0, 64, 92
2, 196224, Note_off_c, 0, 64, 64
2, 196224, Note_on_c, 0, 66, 92
2, 196416, Note_off_c, 0, 66, 64
2, 196416, Note_on_c, 0, 74, 92
2, 196608, Note_off_c, 0, 74, 64
2, 196608, Note_on_c, 0, 73, 92
2, 196704, Note_off_c, 0, 73, 64
2, 196704, Note_on_c, 0, 74, 92
2, 196800, Note_off_c, 0, 74, 64
2, 196800, Note_on_c, 0, 73, 92
2, 197184, Note_off_c, 0, 73, 64
2, 197184, Note_on_c, 0, 74, 92
2, 197376, Note_off_c, 0, 74, 64
2, 197376, Note_on_c, 0, 74, 92
2, 198144, Note_off_c, 0, 74, 64
2, 199104, Note_on_c, 0, 76, 92
2, 199200, Note_off_c, 0, 76, 64
2, 199200, Note_on_c, 0, 74, 92
2, 199296, Note_off_c, 0, 74, 64
2, 199296, Note_on_c, 0, 73, 92
2, 199488, Note_off_c, 0, 73, 64
2, 199488, Note_on_c, 0, 76, 92
2, 199680, Note_off_c, 0, 76, 64
2, 199680, Note_on_c, 0, 71, 92
2, 199872, Note_off_c, 0, 71, 64
2, 199872, Note_on_c, 0, 76, 92
2, 200064, Note_off_c, 0, 76, 64
2, 200064, Note_on_c, 0, 69, 92
2, 200256, Note_off_c, 0, 69, 64
2, 200256, Note_on_c, 0, 76, 92
2, 200448, Note_off_c, 0, 76, 64
2, 200448, Note_on_c, 0, 67, 92
2, 200640, Note_off_c, 0, 67, 64
2, 200640, Note_on_c, 0, 64, 92
2, 200832, Note_off_c, 0, 64, 64
2, 200832, Note_on_c, 0, 71, 92
2, 201216, Note_off_c, 0, 71, 64
2, 202176, Note_on_c, 0, 78, 92
2, 202272, Note_off_c, 0, 78, 64
2, 202272, Note_on_c, 0, 76, 92
2, 202368, Note_off_c, 0, 76, 64
2, 202368, Note_on_c, 0, 74, 92
2, 202464, Note_off_c, 0, 74, 64
2, 202464, Note_on_c, 0, 76, 92
2, 202560, Note_off_c, 0, 76, 64
2, 202560, Note_on_c, 0, 78, 92
2, 202752, Note_off_c, 0, 78, 64
2, 202752, Note_on_c, 0, 73, 92
2, 202944, Note_off_c, 0, 73, 64
2, 202944, Note_on_c, 0, 78, 92
2, 203136, Note_off_c, 0, 78, 64
2, 203136, Note_on_c, 0, 71, 92
2, 203328, Note_off_c, 0, 71, 64
2, 203328, Note_on_c, 0, 78, 92
2, 203520, Note_off_c, 0, 78, 64
2, 203520, Note_on_c, 0, 69, 92
2, 203712, Note_off_c, 0, 69, 64
2, 203712, Note_on_c, 0, 66, 92
2, 203904, Note_off_c, 0, 66, 64
2, 203904, Note_on_c, 0, 73, 92
2, 204288, Note_off_c, 0, 73, 64
2, 205248, Note_on_c, 0, 73, 92
2, 205344, Note_off_c, 0, 73, 64
2, 205344, Note_on_c, 0, 71, 92
2, 205440, Note_off_c, 0, 71, 64
2, 205440, Note_on_c, 0, 69, 92
2, 205536, Note_off_c, 0, 69, 64
2, 205536, Note_on_c, 0, 73, 92
2, 205632, Note_off_c, 0, 73, 64
2, 205632, Note_on_c, 0, 74, 92
2, 205728, Note_off_c, 0, 74, 64
2, 205728, Note_on_c, 0, 73, 92
2, 205824, Note_off_c, 0, 73, 64
2, 205824, Note_on_c, 0, 68, 92
2, 205920, Note_off_c, 0, 68, 64
2, 205920, Note_on_c, 0, 73, 92
2, 206016, Note_off_c, 0, 73, 64
2, 206016, Note_on_c, 0, 74, 92
2, 206112, Note_off_c, 0, 74, 64
2, 206112, Note_on_c, 0, 73, 92
2, 206208, Note_off_c, 0, 73, 64
2, 206208, Note_on_c, 0, 66, 92
2, 206304, Note_off_c, 0, 66, 64
2, 206304, Note_on_c, 0, 73, 92
2, 206400, Note_off_c, 0, 73, 64
2, 206400, Note_on_c, 0, 74, 92
2, 206496, Note_off_c, 0, 74, 64
2, 206496, Note_on_c, 0, 73, 92
2, 206592, Note_off_c, 0, 73, 64
2, 206592, Note_on_c, 0, 65, 92
2, 206976, Note_off_c, 0, 65, 64
2, 206976, Note_on_c, 0, 78, 92
2, 207360, Note_off_c, 0, 78, 64
2, 207360, Note_on_c, 0, 77, 92
2, 207744, Note_off_c, 0, 77, 64
2, 207744, Note_on_c, 0, 75, 92
2, 208128, Note_off_c, 0, 75, 64
2, 208128, Note_on_c, 0, 73, 92
2, 208224, Note_off_c, 0, 73, 64
2, 208224, Note_on_c, 0, 77, 92
2, 208320, Note_off_c, 0, 77, 64
2, 208320, Note_on_c, 0, 78, 92
2, 208416, Note_off_c, 0, 78, 64
2, 208416, Note_on_c, 0, 80, 92
2, 208512, Note_off_c, 0, 80, 64
2, 208512, Note_on_c, 0, 81, 92
2, 208608, Note_off_c, 0, 81, 64
2, 208608, Note_on_c, 0, 78, 92
2, 208704, Note_off_c, 0, 78, 64
2, 208704, Note_on_c, 0, 73, 92
2, 208800, Note_off_c, 0, 73, 64
2, 208800, Note_on_c, 0, 81, 92
2, 208896, Note_off_c, 0, 81, 64
2, 208896, Note_on_c, 0, 80, 92
2, 208992, Note_off_c, 0, 80, 64
2, 208992, Note_on_c, 0, 77, 92
2, 209088, Note_off_c, 0, 77, 64
2, 209088, Note_on_c, 0, 73, 92
2, 209184, Note_off_c, 0, 73, 64
2, 209184, Note_on_c, 0, 80, 92
2, 209280, Note_off_c, 0, 80, 64
2, 209280, Note_on_c, 0, 78, 92
2, 209376, Note_off_c, 0, 78, 64
2, 209376, Note_on_c, 0, 75, 92
2, 209472, Note_off_c, 0, 75, 64
2, 209472, Note_on_c, 0, 72, 92
2, 209568, Note_off_c, 0, 72, 64
2, 209568, Note_on_c, 0, 78, 92
2, 209664, Note_off_c, 0, 78, 64
2, 209664, Note_on_c, 0, 77, 92
2, 209856, Note_off_c, 0, 77, 64
2, 209856, Note_on_c, 0, 73, 92
2, 209952, Note_off_c, 0, 73, 64
2, 209952, Note_on_c, 0, 75, 92
2, 210048, Note_off_c, 0, 75, 64
2, 210048, Note_on_c, 0, 77, 92
2, 210240, Note_off_c, 0, 77, 64
2, 210240, Note_on_c, 0, 73, 92
2, 210432, Note_off_c, 0, 73, 64
2, 210432, Note_on_c, 0, 78, 92
2, 210624, Note_off_c, 0, 78, 64
2, 210624, Note_on_c, 0, 73, 92
2, 210816, Note_off_c, 0, 73, 64
2, 210816, Note_on_c, 0, 80, 92
2, 211008, Note_off_c, 0, 80, 64
2, 211008, Note_on_c, 0, 73, 92
2, 211200, Note_off_c, 0, 73, 64
2, 211200, Note_on_c, 0, 81, 92
2, 212928, Note_off_c, 0, 81, 64
2, 212928, Note_on_c, 0, 71, 92
2, 213024, Note_off_c, 0, 71, 64
2, 213024, Note_on_c, 0, 73, 92
2, 213120, Note_off_c, 0, 73, 64
2, 213120, Note_on_c, 0, 74, 92
2, 213216, Note_off_c, 0, 74, 64
2, 213216, Note_on_c, 0, 73, 92
2, 213312, Note_off_c, 0, 73, 64
2, 213312, Note_on_c, 0, 71, 92
2, 213504, Note_off_c, 0, 71, 64
2, 213504, Note_on_c, 0, 76, 92
2, 213696, Note_off_c, 0, 76, 64
2, 213696, Note_on_c, 0, 71, 92
2, 213888, Note_off_c, 0, 71, 64
2, 213888, Note_on_c, 0, 78, 92
2, 214080, Note_off_c, 0, 78, 64
2, 214080, Note_on_c, 0, 71, 92
2, 214272, Note_off_c, 0, 71, 64
2, 214272, Note_on_c, 0, 80, 92
2, 216000, Note_off_c, 0, 80, 64
2, 216000, Note_on_c, 0, 69, 92
2, 216096, Note_off_c, 0, 69, 64
2, 216096, Note_on_c, 0, 71, 92
2, 216192, Note_off_c, 0, 71, 64
2, 216192, Note_on_c, 0, 73, 92
2, 216288, Note_off_c, 0, 73, 64
2, 216288, Note_on_c, 0, 69, 92
2, 216384, Note_off_c, 0, 69, 64
2, 216384, Note_on_c, 0, 68, 92
2, 216480, Note_off_c, 0, 68, 64
2, 216480, Note_on_c, 0, 69, 92
2, 216576, Note_off_c, 0, 69, 64
2, 216576, Note_on_c, 0, 74, 92
2, 216672, Note_off_c, 0, 74, 64
2, 216672, Note_on_c, 0, 69, 92
2, 216768, Note_off_c, 0, 69, 64
2, 216768, Note_on_c, 0, 68, 92
2, 216864, Note_off_c, 0, 68, 64
2, 216864, Note_on_c, 0, 69, 92
2, 216960, Note_off_c, 0, 69, 64
2, 216960, Note_on_c, 0, 76, 92
2, 217056, Note_off_c, 0, 76, 64
2, 217056, Note_on_c, 0, 69, 92
2, 217152, Note_off_c, 0, 69, 64
2, 217152, Note_on_c, 0, 68, 92
2, 217248, Note_off_c, 0, 68, 64
2, 217248, Note_on_c, 0, 69, 92
2, 217344, Note_off_c, 0, 69, 64
2, 217344, Note_on_c, 0, 78, 92
2, 218112, Note_off_c, 0, 78, 64
2, 218496, Note_on_c, 0, 74, 92
2, 219072, Note_off_c, 0, 74, 64
2, 219072, Note_on_c, 0, 76, 92
2, 219168, Note_off_c, 0, 76, 64
2, 219168, Note_on_c, 0, 78, 92
2, 219264, Note_off_c, 0, 78, 64
2, 219264, Note_on_c, 0, 76, 92
2, 219456, Note_off_c, 0, 76, 64
2, 219456, Note_on_c, 0, 74, 92
2, 219552, Note_off_c, 0, 74, 64
2, 219552, Note_on_c, 0, 73, 92
2, 219648, Note_off_c, 0, 73, 64
2, 219648, Note_on_c, 0, 71, 92
2, 220224, Note_off_c, 0, 71, 64
2, 220224, Note_on_c, 0, 69, 92
2, 220416, Note_off_c, 0, 69, 64
2, 220416, Note_on_c, 0, 69, 92
2, 220608, Note_off_c, 0, 69, 64
2, 220608, Note_on_c, 0, 69, 92
2, 220704, Note_off_c, 0, 69, 64
2, 220704, Note_on_c, 0, 71, 92
2, 220800, Note_off_c, 0, 71, 64
2, 220800, Note_on_c, 0, 72, 92
2, 220992, Note_off_c, 0, 72, 64
2, 220992, Note_on_c, 0, 69, 92
2, 221184, Note_off_c, 0, 69, 64
2, 221184, Note_on_c, 0, 63, 92
2, 221376, Note_off_c, 0, 63, 64
2, 221376, Note_on_c, 0, 72, 92
2, 221568, Note_off_c, 0, 72, 64
2, 221568, Note_on_c, 0, 81, 92
2, 222144, Note_off_c, 0, 81, 64
2, 222144, Note_on_c, 0, 71, 92
2, 222240, Note_off_c, 0, 71, 64
2, 222240, Note_on_c, 0, 73, 92
2, 222336, Note_off_c, 0, 73, 64
2, 222336, Note_on_c, 0, 75, 92
2, 222528, Note_off_c, 0, 75, 64
2, 222528, Note_on_c, 0, 71, 92
2, 222720, Note_off_c, 0, 71, 64
2, 222720, Note_on_c, 0, 76, 92
2, 222912, Note_off_c, 0, 76, 64
2, 222912, Note_on_c, 0, 69, 92
2, 223104, Note_off_c, 0, 69, 64
2, 223104, Note_on_c, 0, 72, 92
2, 223680, Note_off_c, 0, 72, 64
2, 223680, Note_on_c, 0, 71, 92
2, 223872, Note_off_c, 0, 71, 64
2, 223872, Note_on_c, 0, 79, 92
2, 224352, Note_off_c, 0, 79, 64
2, 224352, Note_on_c, 0, 78, 92
2, 224448, Note_off_c, 0, 78, 64
2, 224448, Note_on_c, 0, 76, 92
2, 224544, Note_off_c, 0, 76, 64
2, 224544, Note_on_c, 0, 74, 92
2, 224640, Note_off_c, 0, 74, 64
2, 224640, Note_on_c, 0, 72, 92
2, 224736, Note_off_c, 0, 72, 64
2, 224736, Note_on_c, 0, 71, 92
2, 224832, Note_off_c, 0, 71, 64
2, 224832, Note_on_c, 0, 69, 92
2, 224928, Note_off_c, 0, 69, 64
2, 224928, Note_on_c, 0, 67, 92
2, 225024, Note_off_c, 0, 67, 64
2, 225024, Note_on_c, 0, 72, 92
2, 225600, Note_off_c, 0, 72, 64
2, 225600, Note_on_c, 0, 81, 92
2, 225792, Note_off_c, 0, 81, 64
2, 225792, Note_on_c, 0, 76, 92
2, 226176, Note_off_c, 0, 76, 64
2, 226176, Note_on_c, 0, 75, 92
2, 226224, Note_off_c, 0, 75, 64
2, 226224, Note_on_c, 0, 76, 92
2, 226272, Note_off_c, 0, 76, 64
2, 226272, Note_on_c, 0, 75, 92
2, 226464, Note_off_c, 0, 75, 64
2, 226464, Note_on_c, 0, 76, 92
2, 226560, Note_off_c, 0, 76, 64
2, 226560, Note_on_c, 0, 76, 92
2, 226944, Note_off_c, 0, 76, 64
2, 226944, Note_on_c, 0, 71, 92
2, 227328, Note_off_c, 0, 71, 64
2, 227328, Note_on_c, 0, 76, 92
2, 227712, Note_off_c, 0, 76, 64
2, 227712, Note_on_c, 0, 81, 92
2, 228096, Note_off_c, 0, 81, 64
2, 228096, Note_on_c, 0, 78, 92
2, 228480, Note_off_c, 0, 78, 64
2, 228480, Note_on_c, 0, 69, 92
2, 228864, Note_off_c, 0, 69, 64
2, 228864, Note_on_c, 0, 74, 92
2, 229248, Note_off_c, 0, 74, 64
2, 229248, Note_on_c, 0, 79, 92
2, 229632, Note_off_c, 0, 79, 64
2, 229632, Note_on_c, 0, 76, 92
2, 230016, Note_off_c, 0, 76, 64
2, 230016, Note_on_c, 0, 67, 92
2, 230400, Note_off_c, 0, 67, 64
2, 230400, Note_on_c, 0, 72, 92
2, 230784, Note_off_c, 0, 72, 64
2, 230784, Note_on_c, 0, 77, 92
2, 231168, Note_off_c, 0, 77, 64
2, 231168, Note_on_c, 0, 75, 92
2, 231360, Note_off_c, 0, 75, 64
2, 231360, Note_on_c, 0, 81, 92
2, 231552, Note_off_c, 0, 81, 64
2, 231552, Note_on_c, 0, 79, 92
2, 231744, Note_off_c, 0, 79, 64
2, 231744, Note_on_c, 0, 78, 92
2, 231936, Note_off_c, 0, 78, 64
2, 231936, Note_on_c, 0, 78, 92
2, 232512, Note_off_c, 0, 78, 64
2, 232512, Note_on_c, 0, 76, 92
2, 232704, Note_off_c, 0, 76, 64
2, 232704, Note_on_c, 0, 76, 92
2, 232896, Note_off_c, 0, 76, 64
2, 232896, Note_on_c, 0, 76, 92
2, 232992, Note_off_c, 0, 76, 64
2, 232992, Note_on_c, 0, 78, 92
2, 233088, Note_off_c, 0, 78, 64
2, 233088, Note_on_c, 0, 79, 92
2, 233280, Note_off_c, 0, 79, 64
2, 233280, Note_on_c, 0, 76, 92
2, 233472, Note_off_c, 0, 76, 64
2, 233472, Note_on_c, 0, 69, 92
2, 233664, Note_off_c, 0, 69, 64
2, 233664, Note_on_c, 0, 76, 92
2, 233856, Note_off_c, 0, 76, 64
2, 233856, Note_on_c, 0, 84, 92
2, 234432, Note_off_c, 0, 84, 64
2, 234432, Note_on_c, 0, 74, 92
2, 234528, Note_off_c, 0, 74, 64
2, 234528, Note_on_c, 0, 76, 92
2, 234624, Note_off_c, 0, 76, 64
2, 234624, Note_on_c, 0, 78, 92
2, 234816, Note_off_c, 0, 78, 64
2, 234816, Note_on_c, 0, 74, 92
2, 235008, Note_off_c, 0, 74, 64
2, 235008, Note_on_c, 0, 67, 92
2, 235200, Note_off_c, 0, 67, 64
2, 235200, Note_on_c, 0, 71, 92
2, 235392, Note_off_c, 0, 71, 64
2, 235392, Note_on_c, 0, 83, 92
2, 235968, Note_off_c, 0, 83, 64
2, 235968, Note_on_c, 0, 72, 92
2, 236064, Note_off_c, 0, 72, 64
2, 236064, Note_on_c, 0, 74, 92
2, 236160, Note_off_c, 0, 74, 64
2, 236160, Note_on_c, 0, 76, 92
2, 236352, Note_off_c, 0, 76, 64
2, 236352, Note_on_c, 0, 72, 92
2, 236544, Note_off_c, 0, 72, 64
2, 236544, Note_on_c, 0, 65, 92
2, 236736, Note_off_c, 0, 65, 64
2, 236736, Note_on_c, 0, 72, 92
2, 236928, Note_off_c, 0, 72, 64
2, 236928, Note_on_c, 0, 81, 92
2, 237504, Note_off_c, 0, 81, 64
2, 237504, Note_on_c, 0, 75, 92
2, 237696, Note_off_c, 0, 75, 64
2, 237696, Note_on_c, 0, 76, 92
2, 237888, Note_off_c, 0, 76, 64
2, 237888, Note_on_c, 0, 78, 92
2, 238080, Note_off_c, 0, 78, 64
2, 238080, Note_on_c, 0, 75, 92
2, 238656, Note_off_c, 0, 75, 64
2, 238656, Note_on_c, 0, 76, 92
2, 238848, Note_off_c, 0, 76, 64
2, 238848, Note_on_c, 0, 76, 92
2, 239232, Note_off_c, 0, 76, 64
2, 240576, Note_on_c, 0, 69, 92
2, 240672, Note_off_c, 0, 69, 64
2, 240672, Note_on_c, 0, 71, 92
2, 240768, Note_off_c, 0, 71, 64
2, 240768, Note_on_c, 0, 72, 92
2, 240960, Note_off_c, 0, 72, 64
2, 240960, Note_on_c, 0, 69, 92
2, 241152, Note_off_c, 0, 69, 64
2, 241152, Note_on_c, 0, 74, 92
2, 241344, Note_off_c, 0, 74, 64
2, 241344, Note_on_c, 0, 69, 92
2, 241536, Note_off_c, 0, 69, 64
2, 241536, Note_on_c, 0, 76, 92
2, 241728, Note_off_c, 0, 76, 64
2, 241728, Note_on_c, 0, 69, 92
2, 241920, Note_off_c, 0, 69, 64
2, 241920, Note_on_c, 0, 78, 92
2, 243648, Note_off_c, 0, 78, 64
2, 243648, Note_on_c, 0, 67, 92
2, 243744, Note_off_c, 0, 67, 64
2, 243744, Note_on_c, 0, 69, 92
2, 243840, Note_off_c, 0, 69, 64
2, 243840, Note_on_c, 0, 71, 92
2, 243936, Note_off_c, 0, 71, 64
2, 243936, Note_on_c, 0, 69, 92
2, 244032, Note_off_c, 0, 69, 64
2, 244032, Note_on_c, 0, 67, 92
2, 244224, Note_off_c, 0, 67, 64
2, 244224, Note_on_c, 0, 72, 92
2, 244416, Note_off_c, 0, 72, 64
2, 244416, Note_on_c, 0, 67, 92
2, 244608, Note_off_c, 0, 67, 64
2, 244608, Note_on_c, 0, 74, 92
2, 244800, Note_off_c, 0, 74, 64
2, 244800, Note_on_c, 0, 67, 92
2, 244992, Note_off_c, 0, 67, 64
2, 244992, Note_on_c, 0, 76, 92
2, 246720, Note_off_c, 0, 76, 64
2, 246720, Note_on_c, 0, 74, 92
2, 246816, Note_off_c, 0, 74, 64
2, 246816, Note_on_c, 0, 76, 92
2, 246912, Note_off_c, 0, 76, 64
2, 246912, Note_on_c, 0, 78, 92
2, 247008, Note_off_c, 0, 78, 64
2, 247008, Note_on_c, 0, 74, 92
2, 247104, Note_off_c, 0, 74, 64
2, 247104, Note_on_c, 0, 73, 92
2, 247200, Note_off_c, 0, 73, 64
2, 247200, Note_on_c, 0, 74, 92
2, 247296, Note_off_c, 0, 74, 64
2, 247296, Note_on_c, 0, 79, 92
2, 247392, Note_off_c, 0, 79, 64
2, 247392, Note_on_c, 0, 74, 92
2, 247488, Note_off_c, 0, 74, 64
2, 247488, Note_on_c, 0, 73, 92
2, 247584, Note_off_c, 0, 73, 64
2, 247584, Note_on_c, 0, 74, 92
2, 247680, Note_off_c, 0, 74, 64
2, 247680, Note_on_c, 0, 81, 92
2, 247776, Note_off_c, 0, 81, 64
2, 247776, Note_on_c, 0, 74, 92
2, 247872, Note_off_c, 0, 74, 64
2, 247872, Note_on_c, 0, 73, 92
2, 247968, Note_off_c, 0, 73, 64
2, 247968, Note_on_c, 0, 74, 92
2, 248064, Note_off_c, 0, 74, 64
2, 248064, Note_on_c, 0, 83, 92
2, 248160, Note_off_c, 0, 83, 64
2, 248160, Note_on_c, 0, 81, 92
2, 248256, Note_off_c, 0, 81, 64
2, 248256, Note_on_c, 0, 79, 92
2, 248352, Note_off_c, 0, 79, 64
2, 248352, Note_on_c, 0, 78, 92
2, 248448, Note_off_c, 0, 78, 64
2, 248448, Note_on_c, 0, 79, 92
2, 248640, Note_off_c, 0, 79, 64
2, 248640, Note_on_c, 0, 76, 92
2, 248832, Note_off_c, 0, 76, 64
2, 248832, Note_on_c, 0, 78, 92
2, 248928, Note_off_c, 0, 78, 64
2, 248928, Note_on_c, 0, 79, 92
2, 249024, Note_off_c, 0, 79, 64
2, 249024, Note_on_c, 0, 78, 92
2, 249408, Note_off_c, 0, 78, 64
2, 249408, Note_on_c, 0, 79, 92
2, 249600, Note_off_c, 0, 79, 64
2, 249600, Note_on_c, 0, 79, 92
2, 249984, Note_off_c, 0, 79, 64
2, 251328, Note_on_c, 0, 81, 92
2, 251424, Note_off_c, 0, 81, 64
2, 251424, Note_on_c, 0, 79, 92
2, 251520, Note_off_c, 0, 79, 64
2, 251520, Note_on_c, 0, 78, 92
2, 251712, Note_off_c, 0, 78, 64
2, 251712, Note_on_c, 0, 81, 92
2, 251904, Note_off_c, 0, 81, 64
2, 251904, Note_on_c, 0, 76, 92
2, 252096, Note_off_c, 0, 76, 64
2, 252096, Note_on_c, 0, 81, 92
2, 252288, Note_off_c, 0, 81, 64
2, 252288, Note_on_c, 0, 74, 92
2, 252480, Note_off_c, 0, 74, 64
2, 252480, Note_on_c, 0, 81, 92
2, 252672, Note_off_c, 0, 81, 64
2, 252672, Note_on_c, 0, 72, 92
2, 252864, Note_off_c, 0, 72, 64
2, 252864, Note_on_c, 0, 69, 92
2, 253056, Note_off_c, 0, 69, 64
2, 253056, Note_on_c, 0, 76, 92
2, 253440, Note_off_c, 0, 76, 64
2, 254400, Note_on_c, 0, 83, 92
2, 254496, Note_off_c, 0, 83, 64
2, 254496, Note_on_c, 0, 81, 92
2, 254592, Note_off_c, 0, 81, 64
2, 254592, Note_on_c, 0, 79, 92
2, 254688, Note_off_c, 0, 79, 64
2, 254688, Note_on_c, 0, 81, 92
2, 254784, Note_off_c, 0, 81, 64
2, 254784, Note_on_c, 0, 83, 92
2, 254976, Note_off_c, 0, 83, 64
2, 254976, Note_on_c, 0, 78, 92
2, 255168, Note_off_c, 0, 78, 64
2, 255168, Note_on_c, 0, 83, 92
2, 255360, Note_off_c, 0, 83, 64
2, 255360, Note_on_c, 0, 76, 92
2, 255552, Note_off_c, 0, 76, 64
2, 255552, Note_on_c, 0, 83, 92
2, 255744, Note_off_c, 0, 83, 64
2, 255744, Note_on_c, 0, 74, 92
2, 255936, Note_off_c, 0, 74, 64
2, 255936, Note_on_c, 0, 71, 92
2, 256128, Note_off_c, 0, 71, 64
2, 256128, Note_on_c, 0, 78, 92
2, 256512, Note_off_c, 0, 78, 64
2, 257472, Note_on_c, 0, 78, 92
2, 257568, Note_off_c, 0, 78, 64
2, 257568, Note_on_c, 0, 76, 92
2, 257664, Note_off_c, 0, 76, 64
2, 257664, Note_on_c, 0, 74, 92
2, 257760, Note_off_c, 0, 74, 64
2, 257760, Note_on_c, 0, 78, 92
2, 257856, Note_off_c, 0, 78, 64
2, 257856, Note_on_c, 0, 79, 92
2, 257952, Note_off_c, 0, 79, 64
2, 257952, Note_on_c, 0, 78, 92
2, 258048, Note_off_c, 0, 78, 64
2, 258048, Note_on_c, 0, 73, 92
2, 258144, Note_off_c, 0, 73, 64
2, 258144, Note_on_c, 0, 78, 92
2, 258240, Note_off_c, 0, 78, 64
2, 258240, Note_on_c, 0, 79, 92
2, 258336, Note_off_c, 0, 79, 64
2, 258336, Note_on_c, 0, 78, 92
2, 258432, Note_off_c, 0, 78, 64
2, 258432, Note_on_c, 0, 71, 92
2, 258528, Note_off_c, 0, 71, 64
2, 258528, Note_on_c, 0, 78, 92
2, 258624, Note_off_c, 0, 78, 64
2, 258624, Note_on_c, 0, 79, 92
2, 258720, Note_off_c, 0, 79, 64
2, 258720, Note_on_c, 0, 78, 92
2, 258816, Note_off_c, 0, 78, 64
2, 258816, Note_on_c, 0, 70, 92
2, 259200, Note_off_c, 0, 70, 64
2, 259200, Note_on_c, 0, 83, 92
2, 259584, Note_off_c, 0, 83, 64
2, 259584, Note_on_c, 0, 82, 92
2, 259968, Note_off_c, 0, 82, 64
2, 259968, Note_on_c, 0, 80, 92
2, 260352, Note_off_c, 0, 80, 64
2, 260352, Note_on_c, 0, 78, 92
2, 260448, Note_off_c, 0, 78, 64
2, 260448, Note_on_c, 0, 76, 92
2, 260544, Note_off_c, 0, 76, 64
2, 260544, Note_on_c, 0, 74, 92
2, 260640, Note_off_c, 0, 74, 64
2, 260640, Note_on_c, 0, 73, 92
2, 260736, Note_off_c, 0, 73, 64
2, 260736, Note_on_c, 0, 74, 92
2, 260832, Note_off_c, 0, 74, 64
2, 260832, Note_on_c, 0, 71, 92
2, 260928, Note_off_c, 0, 71, 64
2, 260928, Note_on_c, 0, 66, 92
2, 261024, Note_off_c, 0, 66, 64
2, 261024, Note_on_c, 0, 74, 92
2, 261120, Note_off_c, 0, 74, 64
2, 261120, Note_on_c, 0, 73, 92
2, 261216, Note_off_c, 0, 73, 64
2, 261216, Note_on_c, 0, 70, 92
2, 261312, Note_off_c, 0, 70, 64
2, 261312, Note_on_c, 0, 66, 92
2, 261408, Note_off_c, 0, 66, 64
2, 261408, Note_on_c, 0, 73, 92
2, 261504, Note_off_c, 0, 73, 64
2, 261504, Note_on_c, 0, 71, 92
2, 261600, Note_off_c, 0, 71, 64
2, 261600, Note_on_c, 0, 68, 92
2, 261696, Note_off_c, 0, 68, 64
2, 261696, Note_on_c, 0, 65, 92
2, 261792, Note_off_c, 0, 65, 64
2, 261792, Note_on_c, 0, 71, 92
2, 261888, Note_off_c, 0, 71, 64
2, 261888, Note_on_c, 0, 70, 92
2, 262272, Note_off_c, 0, 70, 64
2, 263616, Note_on_c, 0, 71, 92
2, 263712, Note_off_c, 0, 71, 64
2, 263712, Note_on_c, 0, 73, 92
2, 263808, Note_off_c, 0, 73, 64
2, 263808, Note_on_c, 0, 74, 92
2, 264000, Note_off_c, 0, 74, 64
2, 264000, Note_on_c, 0, 71, 92
2, 264192, Note_off_c, 0, 71, 64
2, 264192, Note_on_c, 0, 76, 92
2, 264384, Note_off_c, 0, 76, 64
2, 264384, Note_on_c, 0, 71, 92
2, 264576, Note_off_c, 0, 71, 64
2, 264576, Note_on_c, 0, 78, 92
2, 264768, Note_off_c, 0, 78, 64
2, 264768, Note_on_c, 0, 71, 92
2, 264960, Note_off_c, 0, 71, 64
2, 264960, Note_on_c, 0, 79, 92
2, 266688, Note_off_c, 0, 79, 64
2, 266688, Note_on_c, 0, 69, 92
2, 266784, Note_off_c, 0, 69, 64
2, 266784, Note_on_c, 0, 71, 92
2, 266880, Note_off_c, 0, 71, 64
2, 266880, Note_on_c, 0, 73, 92
2, 266976, Note_off_c, 0, 73, 64
2, 266976, Note_on_c, 0, 71, 92
2, 267072, Note_off_c, 0, 71, 64
2, 267072, Note_on_c, 0, 69, 92
2, 267264, Note_off_c, 0, 69, 64
2, 267264, Note_on_c, 0, 74, 92
2, 267456, Note_off_c, 0, 74, 64
2, 267456, Note_on_c, 0, 69, 92
2, 267648, Note_off_c, 0, 69, 64
2, 267648, Note_on_c, 0, 76, 92
2, 267840, Note_off_c, 0, 76, 64
2, 267840, Note_on_c, 0, 69, 92
2, 268032, Note_off_c, 0, 69, 64
2, 268032, Note_on_c, 0, 78, 92
2, 269760, Note_off_c, 0, 78, 64
2, 269760, Note_on_c, 0, 67, 92
2, 269856, Note_off_c, 0, 67, 64
2, 269856, Note_on_c, 0, 69, 92
2, 269952, Note_off_c, 0, 69, 64
2, 269952, Note_on_c, 0, 71, 92
2, 270048, Note_off_c, 0, 71, 64
2, 270048, Note_on_c, 0, 67, 92
2, 270144, Note_off_c, 0, 67, 64
2, 270144, Note_on_c, 0, 66, 92
2, 270240, Note_off_c, 0, 66, 64
2, 270240, Note_on_c, 0, 67, 92
2, 270336, Note_off_c, 0, 67, 64
2, 270336, Note_on_c, 0, 73, 92
2, 270432, Note_off_c, 0, 73, 64
2, 270432, Note_on_c, 0, 67, 92
2, 270528, Note_off_c, 0, 67, 64
2, 270528, Note_on_c, 0, 66, 92
2, 270624, Note_off_c, 0, 66, 64
2, 270624, Note_on_c, 0, 67, 92
2, 270720, Note_off_c, 0, 67, 64
2, 270720, Note_on_c, 0, 74, 92
2, 270816, Note_off_c, 0, 74, 64
2, 270816, Note_on_c, 0, 67, 92
2, 270912, Note_off_c, 0, 67, 64
2, 270912, Note_on_c, 0, 66, 92
2, 271008, Note_off_c, 0, 66, 64
2, 271008, Note_on_c, 0, 67, 92
2, 271104, Note_off_c, 0, 67, 64
2, 271104, Note_on_c, 0, 76, 92
2, 271296, Note_off_c, 0, 76, 64
2, 271296, Note_on_c, 0, 67, 92
2, 271488, Note_off_c, 0, 67, 64
2, 271488, Note_on_c, 0, 66, 92
2, 271680, Note_off_c, 0, 66, 64
2, 271680, Note_on_c, 0, 74, 92
2, 271872, Note_off_c, 0, 74, 64
2, 271872, Note_on_c, 0, 64, 92
2, 272064, Note_off_c, 0, 64, 64
2, 272064, Note_on_c, 0, 74, 92
2, 272256, Note_off_c, 0, 74, 64
2, 272256, Note_on_c, 0, 73, 92
2, 272448, Note_off_c, 0, 73, 64
2, 272448, Note_on_c, 0, 64, 92
2, 272640, Note_off_c, 0, 64, 64
2, 272640, Note_on_c, 0, 73, 92
2, 272832, Note_off_c, 0, 73, 64
2, 272832, Note_on_c, 0, 64, 92
2, 273024, Note_off_c, 0, 64, 64
2, 273024, Note_on_c, 0, 62, 92
2, 273216, Note_off_c, 0, 62, 64
2, 273216, Note_on_c, 0, 71, 92
2, 273408, Note_off_c, 0, 71, 64
2, 273408, Note_on_c, 0, 61, 92
2, 273600, Note_off_c, 0, 61, 64
2, 273600, Note_on_c, 0, 71, 92
2, 273792, Note_off_c, 0, 71, 64
2, 273792, Note_on_c, 0, 69, 92
2, 273984, Note_off_c, 0, 69, 64
2, 273984, Note_on_c, 0, 60, 92
2, 274176, Note_off_c, 0, 60, 64
2, 274176, Note_on_c, 0, 69, 92
2, 274368, Note_off_c, 0, 69, 64
2, 274368, Note_on_c, 0, 60, 92
2, 274560, Note_off_c, 0, 60, 64
2, 274560, Note_on_c, 0, 59, 92
2, 274752, Note_off_c, 0, 59, 64
2, 274752, Note_on_c, 0, 67, 92
2, 274944, Note_off_c, 0, 67, 64
2, 274944, Note_on_c, 0, 57, 92
2, 275136, Note_off_c, 0, 57, 64
2, 275136, Note_on_c, 0, 67, 92
2, 275328, Note_off_c, 0, 67, 64
2, 275328, Note_on_c, 0, 66, 92
2, 275520, Note_off_c, 0, 66, 64
2, 275520, Note_on_c, 0, 57, 92
2, 275712, Note_off_c, 0, 57, 64
2, 275712, Note_on_c, 0, 66, 92
2, 275904, Note_off_c, 0, 66, 64
2, 275904, Note_on_c, 0, 57, 92
2, 276096, Note_off_c, 0, 57, 64
2, 276096, Note_on_c, 0, 55, 92
2, 276288, Note_off_c, 0, 55, 64
2, 276288, Note_on_c, 0, 64, 92
2, 276480, Note_off_c, 0, 64, 64
2, 276480, Note_on_c, 0, 54, 92
2, 276672, Note_off_c, 0, 54, 64
2, 276672, Note_on_c, 0, 64, 92
2, 276864, Note_off_c, 0, 64, 64
2, 276864, Note_on_c, 0, 62, 92
2, 277056, Note_off_c, 0, 62, 64
2, 277056, Note_on_c, 0, 71, 92
2, 277248, Note_off_c, 0, 71, 64
2, 277248, Note_on_c, 0, 70, 92
2, 277632, Note_off_c, 0, 70, 64
2, 277632, Note_on_c, 0, 66, 92
2, 278016, Note_off_c, 0, 66, 64
2, 278016, Note_on_c, 0, 71, 92
2, 278400, Note_off_c, 0, 71, 64
2, 278400, Note_on_c, 0, 76, 92
2, 278784, Note_off_c, 0, 76, 64
2, 278784, Note_on_c, 0, 73, 92
2, 279168, Note_off_c, 0, 73, 64
2, 279168, Note_on_c, 0, 64, 92
2, 279552, Note_off_c, 0, 64, 64
2, 279552, Note_on_c, 0, 69, 92
2, 279936, Note_off_c, 0, 69, 64
2, 279936, Note_on_c, 0, 74, 92
2, 280320, Note_off_c, 0, 74, 64
2, 280320, Note_on_c, 0, 71, 92
2, 280704, Note_off_c, 0, 71, 64
2, 280704, Note_on_c, 0, 62, 92
2, 281088, Note_off_c, 0, 62, 64
2, 281088, Note_on_c, 0, 67, 92
2, 281472, Note_off_c, 0, 67, 64
2, 281472, Note_on_c, 0, 72, 92
2, 281856, Note_off_c, 0, 72, 64
2, 281856, Note_on_c, 0, 70, 92
2, 282048, Note_off_c, 0, 70, 64
2, 282048, Note_on_c, 0, 79, 92
2, 282240, Note_off_c, 0, 79, 64
2, 282240, Note_on_c, 0, 78, 92
2, 282432, Note_off_c, 0, 78, 64
2, 282432, Note_on_c, 0, 76, 92
2, 282624, Note_off_c, 0, 76, 64
2, 282624, Note_on_c, 0, 74, 92
2, 283008, Note_off_c, 0, 74, 64
2, 283008, Note_on_c, 0, 73, 92
2, 283056, Note_off_c, 0, 73, 64
2, 283056, Note_on_c, 0, 74, 92
2, 283104, Note_off_c, 0, 74, 64
2, 283104, Note_on_c, 0, 73, 92
2, 283200, Note_off_c, 0, 73, 64
2, 283200, Note_on_c, 0, 71, 92
2, 283392, Note_off_c, 0, 71, 64
2, 283392, Note_on_c, 0, 71, 92
2, 283584, Note_off_c, 0, 71, 64
2, 283584, Note_on_c, 0, 71, 92
2, 283680, Note_off_c, 0, 71, 64
2, 283680, Note_on_c, 0, 73, 92
2, 283776, Note_off_c, 0, 73, 64
2, 283776, Note_on_c, 0, 74, 92
2, 283968, Note_off_c, 0, 74, 64
2, 283968, Note_on_c, 0, 71, 92
2, 284160, Note_off_c, 0, 71, 64
2, 284160, Note_on_c, 0, 64, 92
2, 284352, Note_off_c, 0, 64, 64
2, 284352, Note_on_c, 0, 71, 92
2, 284544, Note_off_c, 0, 71, 64
2, 284544, Note_on_c, 0, 79, 92
2, 285120, Note_off_c, 0, 79, 64
2, 285120, Note_on_c, 0, 69, 92
2, 285216, Note_off_c, 0, 69, 64
2, 285216, Note_on_c, 0, 71, 92
2, 285312, Note_off_c, 0, 71, 64
2, 285312, Note_on_c, 0, 73, 92
2, 285504, Note_off_c, 0, 73, 64
2, 285504, Note_on_c, 0, 69, 92
2, 285696, Note_off_c, 0, 69, 64
2, 285696, Note_on_c, 0, 62, 92
2, 285888, Note_off_c, 0, 62, 64
2, 285888, Note_on_c, 0, 69, 92
2, 286080, Note_off_c, 0, 69, 64
2, 286080, Note_on_c, 0, 78, 92
2, 286656, Note_off_c, 0, 78, 64
2, 286656, Note_on_c, 0, 67, 92
2, 286752, Note_off_c, 0, 67, 64
2, 286752, Note_on_c, 0, 69, 92
2, 286848, Note_off_c, 0, 69, 64
2, 286848, Note_on_c, 0, 71, 92
2, 287040, Note_off_c, 0, 71, 64
2, 287040, Note_on_c, 0, 67, 92
2, 287232, Note_off_c, 0, 67, 64
2, 287232, Note_on_c, 0, 60, 92
2, 287424, Note_off_c, 0, 60, 64
2, 287424, Note_on_c, 0, 67, 92
2, 287616, Note_off_c, 0, 67, 64
2, 287616, Note_on_c, 0, 76, 92
2, 288192, Note_off_c, 0, 76, 64
2, 288192, Note_on_c, 0, 70, 92
2, 288384, Note_off_c, 0, 70, 64
2, 288384, Note_on_c, 0, 71, 92
2, 288576, Note_off_c, 0, 71, 64
2, 288576, Note_on_c, 0, 73, 92
2, 288768, Note_off_c, 0, 73, 64
2, 288768, Note_on_c, 0, 70, 92
2, 289344, Note_off_c, 0, 70, 64
2, 289344, Note_on_c, 0, 71, 92
2, 289536, Note_off_c, 0, 71, 64
2, 289536, Note_on_c, 0, 66, 92
2, 289920, Note_off_c, 0, 66, 64
2, 289920, Note_on_c, 0, 65, 92
2, 290304, Note_off_c, 0, 65, 64
2, 290688, Note_on_c, 0, 64, 92
2, 291456, Note_off_c, 0, 64, 64
2, 291456, Note_on_c, 0, 62, 92
2, 291648, Note_off_c, 0, 62, 64
2, 291648, Note_on_c, 0, 64, 92
2, 291840, Note_off_c, 0, 64, 64
2, 291840, Note_on_c, 0, 61, 92
2, 291936, Note_off_c, 0, 61, 64
2, 291936, Note_on_c, 0, 62, 92
2, 292032, Note_off_c, 0, 62, 64
2, 292032, Note_on_c, 0, 61, 92
2, 292416, Note_off_c, 0, 61, 64
2, 292416, Note_on_c, 0, 59, 92
2, 292608, Note_off_c, 0, 59, 64
2, 292608, Note_on_c, 0, 59, 92
2, 294144, Note_off_c, 0, 59, 64
2, 297220, Note_on_c, 0, 71, 92
2, 297604, Note_on_c, 0, 76, 92
2, 297608, Note_off_c, 0, 71, 64
2, 297988, Note_on_c, 0, 76, 92
2, 297992, Note_off_c, 0, 76, 64
2, 298372, Note_on_c, 0, 76, 92
2, 298376, Note_off_c, 0, 76, 64
2, 298756, Note_on_c, 0, 75, 92
2, 298760, Note_off_c, 0, 76, 64
2, 298852, Note_on_c, 0, 76, 92
2, 298856, Note_off_c, 0, 75, 64
2, 298948, Note_on_c, 0, 75, 92
2, 298952, Note_off_c, 0, 76, 64
2, 299144, Note_off_c, 0, 75, 64
2, 299524, Note_on_c, 0, 80, 92
2, 299652, Note_on_c, 0, 83, 92
2, 299656, Note_off_c, 0, 80, 64
2, 299780, Note_on_c, 0, 81, 92
2, 299784, Note_off_c, 0, 83, 64
2, 299908, Note_on_c, 0, 80, 92
2, 299912, Note_off_c, 0, 81, 64
2, 300036, Note_on_c, 0, 78, 92
2, 300040, Note_off_c, 0, 80, 64
2, 300164, Note_on_c, 0, 76, 92
2, 300168, Note_off_c, 0, 78, 64
2, 300292, Note_on_c, 0, 74, 92
2, 300296, Note_off_c, 0, 76, 64
2, 300580, Note_on_c, 0, 83, 92
2, 300584, Note_off_c, 0, 74, 64
2, 300676, Note_on_c, 0, 74, 92
2, 300680, Note_off_c, 0, 83, 64
2, 301060, Note_on_c, 0, 73, 92
2, 301064, Note_off_c, 0, 74, 64
2, 301156, Note_on_c, 0, 74, 92
2, 301160, Note_off_c, 0, 73, 64
2, 301252, Note_on_c, 0, 73, 92
2, 301256, Note_off_c, 0, 74, 64
2, 301448, Note_off_c, 0, 73, 64
2, 301828, Note_on_c, 0, 81, 92
2, 302212, Note_on_c, 0, 72, 92
2, 302216, Note_off_c, 0, 81, 64
2, 302596, Note_on_c, 0, 72, 92
2, 302600, Note_off_c, 0, 72, 64
2, 302980, Note_on_c, 0, 71, 92
2, 302984, Note_off_c, 0, 72, 64
2, 303364, Note_on_c, 0, 81, 92
2, 303368, Note_off_c, 0, 71, 64
2, 303748, Note_on_c, 0, 79, 92
2, 303752, Note_off_c, 0, 81, 64
2, 304132, Note_on_c, 0, 79, 92
2, 304136, Note_off_c, 0, 79, 64
2, 304180, Note_on_c, 0, 78, 92
2, 304184, Note_off_c, 0, 79, 64
2, 304228, Note_on_c, 0, 79, 92
2, 304232, Note_off_c, 0, 78, 64
2, 304276, Note_on_c, 0, 78, 92
2, 304280, Note_off_c, 0, 79, 64
2, 304324, Note_on_c, 0, 79, 92
2, 304328, Note_off_c, 0, 78, 64
2, 304372, Note_on_c, 0, 78, 92
2, 304376, Note_off_c, 0, 79, 64
2, 304420, Note_on_c, 0, 76, 92
2, 304424, Note_off_c, 0, 78, 64
2, 304468, Note_on_c, 0, 78, 92
2, 304472, Note_off_c, 0, 76, 64
2, 304516, Note_on_c, 0, 79, 92
2, 304520, Note_off_c, 0, 78, 64
2, 304708, Note_on_c, 0, 78, 92
2, 304712, Note_off_c, 0, 79, 64
2, 304900, Note_on_c, 0, 76, 92
2, 304904, Note_off_c, 0, 78, 64
2, 305092, Note_on_c, 0, 75, 92
2, 305096, Note_off_c, 0, 76, 64
2, 305284, Note_on_c, 0, 76, 92
2, 305288, Note_off_c, 0, 75, 64
2, 305412, Note_on_c, 0, 71, 92
2, 305416, Note_off_c, 0, 76, 64
2, 305540, Note_on_c, 0, 75, 92
2, 305544, Note_off_c, 0, 71, 64
2, 305668, Note_on_c, 0, 76, 92
2, 305672, Note_off_c, 0, 75, 64
2, 305796, Note_on_c, 0, 71, 92
2, 305800, Note_off_c, 0, 76, 64
2, 305924, Note_on_c, 0, 76, 92
2, 305928, Note_off_c, 0, 71, 64
2, 306052, Note_on_c, 0, 78, 92
2, 306056, Note_off_c, 0, 76, 64
2, 306180, Note_on_c, 0, 71, 92
2, 306184, Note_off_c, 0, 78, 64
2, 306308, Note_on_c, 0, 78, 92
2, 306312, Note_off_c, 0, 71, 64
2, 306436, Note_on_c, 0, 79, 92
2, 306440, Note_off_c, 0, 78, 64
2, 306564, Note_on_c, 0, 83, 92
2, 306568, Note_off_c, 0, 79, 64
2, 306692, Note_on_c, 0, 81, 92
2, 306696, Note_off_c, 0, 83, 64
2, 306820, Note_on_c, 0, 79, 92
2, 306824, Note_off_c, 0, 81, 64
2, 306948, Note_on_c, 0, 81, 92
2, 306952, Note_off_c, 0, 79, 64
2, 307076, Note_on_c, 0, 78, 92
2, 307080, Note_off_c, 0, 81, 64
2, 307204, Note_on_c, 0, 76, 92
2, 307208, Note_off_c, 0, 78, 64
2, 307332, Note_on_c, 0, 78, 92
2, 307336, Note_off_c, 0, 76, 64
2, 307460, Note_on_c, 0, 74, 92
2, 307464, Note_off_c, 0, 78, 64
2, 307588, Note_on_c, 0, 73, 92
2, 307592, Note_off_c, 0, 74, 64
2, 307716, Note_on_c, 0, 76, 92
2, 307720, Note_off_c, 0, 73, 64
2, 307844, Note_on_c, 0, 74, 92
2, 307848, Note_off_c, 0, 76, 64
2, 307972, Note_on_c, 0, 73, 92
2, 307976, Note_off_c, 0, 74, 64
2, 308100, Note_on_c, 0, 76, 92
2, 308104, Note_off_c, 0, 73, 64
2, 308228, Note_on_c, 0, 71, 92
2, 308232, Note_off_c, 0, 76, 64
2, 308356, Note_on_c, 0, 70, 92
2, 308360, Note_off_c, 0, 71, 64
2, 308484, Note_on_c, 0, 76, 92
2, 308488, Note_off_c, 0, 70, 64
2, 308612, Note_on_c, 0, 68, 92
2, 308616, Note_off_c, 0, 76, 64
2, 308740, Note_on_c, 0, 69, 92
2, 308744, Note_off_c, 0, 68, 64
2, 308868, Note_on_c, 0, 75, 92
2, 308872, Note_off_c, 0, 69, 64
2, 308996, Note_on_c, 0, 76, 92
2, 309000, Note_off_c, 0, 75, 64
2, 309124, Note_on_c, 0, 78, 92
2, 309128, Note_off_c, 0, 76, 64
2, 310020, Note_on_c, 0, 83, 92
2, 310024, Note_off_c, 0, 78, 64
2, 310148, Note_on_c, 0, 78, 92
2, 310152, Note_off_c, 0, 83, 64
2, 310276, Note_on_c, 0, 76, 92
2, 310280, Note_off_c, 0, 78, 64
2, 310404, Note_on_c, 0, 83, 92
2, 310408, Note_off_c, 0, 76, 64
2, 310532, Note_on_c, 0, 74, 92
2, 310536, Note_off_c, 0, 83, 64
2, 310660, Note_on_c, 0, 73, 92
2, 310664, Note_off_c, 0, 74, 64
2, 310788, Note_on_c, 0, 83, 92
2, 310792, Note_off_c, 0, 73, 64
2, 310916, Note_on_c, 0, 71, 92
2, 310920, Note_off_c, 0, 83, 64
2, 311044, Note_on_c, 0, 70, 92
2, 311048, Note_off_c, 0, 71, 64
2, 311172, Note_on_c, 0, 73, 92
2, 311176, Note_off_c, 0, 70, 64
2, 311300, Note_on_c, 0, 74, 92
2, 311304, Note_off_c, 0, 73, 64
2, 311428, Note_on_c, 0, 76, 92
2, 311432, Note_off_c, 0, 74, 64
2, 311556, Note_on_c, 0, 64, 92
2, 311560, Note_off_c, 0, 76, 64
2, 311684, Note_on_c, 0, 74, 92
2, 311688, Note_off_c, 0, 64, 64
2, 311812, Note_on_c, 0, 73, 92
2, 311816, Note_off_c, 0, 74, 64
2, 311940, Note_on_c, 0, 64, 92
2, 311944, Note_off_c, 0, 73, 64
2, 312068, Note_on_c, 0, 74, 92
2, 312072, Note_off_c, 0, 64, 64
2, 312196, Note_on_c, 0, 76, 92
2, 312200, Note_off_c, 0, 74, 64
2, 312324, Note_on_c, 0, 74, 92
2, 312328, Note_off_c, 0, 76, 64
2, 312452, Note_on_c, 0, 73, 92
2, 312456, Note_off_c, 0, 74, 64
2, 312580, Note_on_c, 0, 71, 92
2, 312584, Note_off_c, 0, 73, 64
2, 312708, Note_on_c, 0, 73, 92
2, 312712, Note_off_c, 0, 71, 64
2, 312836, Note_on_c, 0, 70, 92
2, 312840, Note_off_c, 0, 73, 64
2, 312964, Note_on_c, 0, 71, 92
2, 312968, Note_off_c, 0, 70, 64
2, 313092, Note_on_c, 0, 73, 92
2, 313096, Note_off_c, 0, 71, 64
2, 313220, Note_on_c, 0, 70, 92
2, 313224, Note_off_c, 0, 73, 64
2, 313348, Note_on_c, 0, 71, 92
2, 313352, Note_off_c, 0, 70, 64
2, 313476, Note_on_c, 0, 76, 92
2, 313480, Note_off_c, 0, 71, 64
2, 313604, Note_on_c, 0, 79, 92
2, 313608, Note_off_c, 0, 76, 64
2, 313732, Note_on_c, 0, 78, 92
2, 313736, Note_off_c, 0, 79, 64
2, 313860, Note_on_c, 0, 79, 92
2, 313864, Note_off_c, 0, 78, 64
2, 313988, Note_on_c, 0, 76, 92
2, 313992, Note_off_c, 0, 79, 64
2, 314116, Note_on_c, 0, 74, 92
2, 314120, Note_off_c, 0, 76, 64
2, 314244, Note_on_c, 0, 76, 92
2, 314248, Note_off_c, 0, 74, 64
2, 314372, Note_on_c, 0, 73, 92
2, 314376, Note_off_c, 0, 76, 64
2, 314500, Note_on_c, 0, 74, 92
2, 314504, Note_off_c, 0, 73, 64
2, 314628, Note_on_c, 0, 78, 92
2, 314632, Note_off_c, 0, 74, 64
2, 314756, Note_on_c, 0, 76, 92
2, 314760, Note_off_c, 0, 78, 64
2, 314884, Note_on_c, 0, 78, 92
2, 314888, Note_off_c, 0, 76, 64
2, 315012, Note_on_c, 0, 74, 92
2, 315016, Note_off_c, 0, 78, 64
2, 315140, Note_on_c, 0, 79, 92
2, 315144, Note_off_c, 0, 74, 64
2, 315268, Note_on_c, 0, 81, 92
2, 315272, Note_off_c, 0, 79, 64
2, 315396, Note_on_c, 0, 74, 92
2, 315400, Note_off_c, 0, 81, 64
2, 315524, Note_on_c, 0, 83, 92
2, 315528, Note_off_c, 0, 74, 64
2, 315652, Note_on_c, 0, 72, 92
2, 315656, Note_off_c, 0, 83, 64
2, 315780, Note_on_c, 0, 69, 92
2, 315784, Note_off_c, 0, 72, 64
2, 315908, Note_on_c, 0, 71, 92
2, 315912, Note_off_c, 0, 69, 64
2, 316036, Note_on_c, 0, 72, 92
2, 316040, Note_off_c, 0, 71, 64
2, 316164, Note_on_c, 0, 69, 92
2, 316168, Note_off_c, 0, 72, 64
2, 316292, Note_on_c, 0, 74, 92
2, 316296, Note_off_c, 0, 69, 64
2, 316420, Note_on_c, 0, 76, 92
2, 316424, Note_off_c, 0, 74, 64
2, 316548, Note_on_c, 0, 69, 92
2, 316552, Note_off_c, 0, 76, 64
2, 316676, Note_on_c, 0, 78, 92
2, 316680, Note_off_c, 0, 69, 64
2, 316804, Note_on_c, 0, 79, 92
2, 316808, Note_off_c, 0, 78, 64
2, 316932, Note_on_c, 0, 71, 92
2, 316936, Note_off_c, 0, 79, 64
2, 317060, Note_on_c, 0, 72, 92
2, 317064, Note_off_c, 0, 71, 64
2, 317188, Note_on_c, 0, 74, 92
2, 317192, Note_off_c, 0, 72, 64
2, 317316, Note_on_c, 0, 71, 92
2, 317320, Note_off_c, 0, 74, 64
2, 317444, Note_on_c, 0, 76, 92
2, 317448, Note_off_c, 0, 71, 64
2, 317572, Note_on_c, 0, 78, 92
2, 317576, Note_off_c, 0, 76, 64
2, 317700, Note_on_c, 0, 71, 92
2, 317704, Note_off_c, 0, 78, 64
2, 317828, Note_on_c, 0, 79, 92
2, 317832, Note_off_c, 0, 71, 64
2, 317956, Note_on_c, 0, 69, 92
2, 317960, Note_off_c, 0, 79, 64
2, 318084, Note_on_c, 0, 66, 92
2, 318088, Note_off_c, 0, 69, 64
2, 318212, Note_on_c, 0, 67, 92
2, 318216, Note_off_c, 0, 66, 64
2, 318340, Note_on_c, 0, 69, 92
2, 318344, Note_off_c, 0, 67, 64
2, 318468, Note_on_c, 0, 66, 92
2, 318472, Note_off_c, 0, 69, 64
2, 318596, Note_on_c, 0, 71, 92
2, 318600, Note_off_c, 0, 66, 64
2, 318724, Note_on_c, 0, 73, 92
2, 318728, Note_off_c, 0, 71, 64
2, 318852, Note_on_c, 0, 66, 92
2, 318856, Note_off_c, 0, 73, 64
2, 318980, Note_on_c, 0, 75, 92
2, 318984, Note_off_c, 0, 66, 64
2, 319108, Note_on_c, 0, 76, 92
2, 319112, Note_off_c, 0, 75, 64
2, 319236, Note_on_c, 0, 79, 92
2, 319240, Note_off_c, 0, 76, 64
2, 319364, Note_on_c, 0, 78, 92
2, 319368, Note_off_c, 0, 79, 64
2, 319492, Note_on_c, 0, 76, 92
2, 319496, Note_off_c, 0, 78, 64
2, 319620, Note_on_c, 0, 74, 92
2, 319624, Note_off_c, 0, 76, 64
2, 319748, Note_on_c, 0, 72, 92
2, 319752, Note_off_c, 0, 74, 64
2, 319876, Note_on_c, 0, 71, 92
2, 319880, Note_off_c, 0, 72, 64
2, 320004, Note_on_c, 0, 69, 92
2, 320008, Note_off_c, 0, 71, 64
2, 320132, Note_on_c, 0, 67, 92
2, 320136, Note_off_c, 0, 69, 64
2, 320260, Note_on_c, 0, 66, 92
2, 320264, Note_off_c, 0, 67, 64
2, 320388, Note_on_c, 0, 67, 92
2, 320392, Note_off_c, 0, 66, 64
2, 320516, Note_on_c, 0, 69, 92
2, 320520, Note_off_c, 0, 67, 64
2, 320644, Note_on_c, 0, 67, 92
2, 320648, Note_off_c, 0, 69, 64
2, 320772, Note_on_c, 0, 69, 92
2, 320776, Note_off_c, 0, 67, 64
2, 320900, Note_on_c, 0, 71, 92
2, 320904, Note_off_c, 0, 69, 64
2, 321028, Note_on_c, 0, 72, 92
2, 321032, Note_off_c, 0, 71, 64
2, 321156, Note_on_c, 0, 74, 92
2, 321160, Note_off_c, 0, 72, 64
2, 321284, Note_on_c, 0, 71, 92
2, 321288, Note_off_c, 0, 74, 64
2, 321412, Note_on_c, 0, 69, 92
2, 321416, Note_off_c, 0, 71, 64
2, 321796, Note_on_c, 0, 69, 92
2, 321800, Note_off_c, 0, 69, 64
2, 321844, Note_on_c, 0, 71, 92
2, 321848, Note_off_c, 0, 69, 64
2, 321892, Note_on_c, 0, 69, 92
2, 321896, Note_off_c, 0, 71, 64
2, 322372, Note_on_c, 0, 68, 92
2, 322376, Note_off_c, 0, 69, 64
2, 322468, Note_on_c, 0, 69, 92
2, 322472, Note_off_c, 0, 68, 64
2, 322564, Note_on_c, 0, 71, 92
2, 322568, Note_off_c, 0, 69, 64
2, 323076, Note_on_c, 0, 68, 92
2, 323080, Note_off_c, 0, 71, 64
2, 323204, Note_on_c, 0, 69, 92
2, 323208, Note_off_c, 0, 68, 64
2, 323332, Note_on_c, 0, 71, 92
2, 323336, Note_off_c, 0, 69, 64
2, 323460, Note_on_c, 0, 72, 92
2, 323464, Note_off_c, 0, 71, 64
2, 323588, Note_on_c, 0, 74, 92
2, 323592, Note_off_c, 0, 72, 64
2, 323716, Note_on_c, 0, 76, 92
2, 323720, Note_off_c, 0, 74, 64
2, 324100, Note_on_c, 0, 76, 92
2, 324104, Note_off_c, 0, 76, 64
2, 324148, Note_on_c, 0, 78, 92
2, 324152, Note_off_c, 0, 76, 64
2, 324196, Note_on_c, 0, 76, 92
2, 324200, Note_off_c, 0, 78, 64
2, 324676, Note_on_c, 0, 75, 92
2, 324680, Note_off_c, 0, 76, 64
2, 324772, Note_on_c, 0, 76, 92
2, 324776, Note_off_c, 0, 75, 64
2, 324868, Note_on_c, 0, 78, 92
2, 324872, Note_off_c, 0, 76, 64
2, 325156, Note_on_c, 0, 76, 92
2, 325160, Note_off_c, 0, 78, 64
2, 325252, Note_on_c, 0, 75, 92
2, 325256, Note_off_c, 0, 76, 64
2, 325540, Note_on_c, 0, 76, 92
2, 325544, Note_off_c, 0, 75, 64
2, 325636, Note_on_c, 0, 75, 92
2, 325640, Note_off_c, 0, 76, 64
2, 325924, Note_on_c, 0, 76, 92
2, 325928, Note_off_c, 0, 75, 64
2, 326020, Note_on_c, 0, 78, 92
2, 326024, Note_off_c, 0, 76, 64
2, 326692, Note_on_c, 0, 71, 92
2, 326696, Note_off_c, 0, 78, 64
2, 326788, Note_on_c, 0, 79, 92
2, 326792, Note_off_c, 0, 71, 64
2, 327076, Note_on_c, 0, 71, 92
2, 327080, Note_off_c, 0, 79, 64
2, 327172, Note_on_c, 0, 66, 92
2, 327176, Note_off_c, 0, 71, 64
2, 327460, Note_on_c, 0, 81, 92
2, 327464, Note_off_c, 0, 66, 64
2, 327556, Note_on_c, 0, 79, 92
2, 327560, Note_off_c, 0, 81, 64
2, 327844, Note_on_c, 0, 78, 92
2, 327848, Note_off_c, 0, 79, 64
2, 327940, Note_on_c, 0, 76, 92
2, 327944, Note_off_c, 0, 78, 64
2, 328228, Note_on_c, 0, 75, 92
2, 328232, Note_off_c, 0, 76, 64
2, 328324, Note_on_c, 0, 76, 92
2, 328328, Note_off_c, 0, 75, 64
2, 328452, Note_on_c, 0, 71, 92
2, 328456, Note_off_c, 0, 76, 64
2, 328580, Note_on_c, 0, 76, 92
2, 328584, Note_off_c, 0, 71, 64
2, 328708, Note_on_c, 0, 79, 92
2, 328712, Note_off_c, 0, 76, 64
2, 329220, Note_on_c, 0, 76, 92
2, 329224, Note_off_c, 0, 79, 64
2, 329348, Note_on_c, 0, 72, 92
2, 329352, Note_off_c, 0, 76, 64
2, 329476, Note_on_c, 0, 78, 92
2, 329480, Note_off_c, 0, 72, 64
2, 329604, Note_on_c, 0, 69, 92
2, 329608, Note_off_c, 0, 78, 64
2, 329732, Note_on_c, 0, 74, 92
2, 329736, Note_off_c, 0, 69, 64
2, 329860, Note_on_c, 0, 78, 92
2, 329864, Note_off_c, 0, 74, 64
2, 330372, Note_on_c, 0, 74, 92
2, 330376, Note_off_c, 0, 78, 64
2, 330500, Note_on_c, 0, 71, 92
2, 330504, Note_off_c, 0, 74, 64
2, 330628, Note_on_c, 0, 76, 92
2, 330632, Note_off_c, 0, 71, 64
2, 330760, Note_off_c, 0, 76, 64
2, 331012, Note_on_c, 0, 76, 92
2, 331140, Note_on_c, 0, 72, 92
2, 331144, Note_off_c, 0, 76, 64
2, 331268, Note_on_c, 0, 76, 92
2, 331272, Note_off_c, 0, 72, 64
2, 331396, Note_on_c, 0, 81, 92
2, 331400, Note_off_c, 0, 76, 64
2, 332292, Note_on_c, 0, 71, 92
2, 332296, Note_off_c, 0, 81, 64
2, 332420, Note_on_c, 0, 74, 92
2, 332424, Note_off_c, 0, 71, 64
2, 332548, Note_on_c, 0, 79, 92
2, 332552, Note_off_c, 0, 74, 64
2, 333060, Note_on_c, 0, 81, 92
2, 333064, Note_off_c, 0, 79, 64
2, 333188, Note_on_c, 0, 84, 92
2, 333192, Note_off_c, 0, 81, 64
2, 333316, Note_on_c, 0, 78, 92
2, 333320, Note_off_c, 0, 84, 64
2, 333444, Note_on_c, 0, 81, 92
2, 333448, Note_off_c, 0, 78, 64
2, 333572, Note_on_c, 0, 84, 92
2, 333576, Note_off_c, 0, 81, 64
2, 333700, Note_on_c, 0, 76, 92
2, 333704, Note_off_c, 0, 84, 64
2, 333828, Note_on_c, 0, 81, 92
2, 333832, Note_off_c, 0, 76, 64
2, 333956, Note_on_c, 0, 84, 92
2, 333960, Note_off_c, 0, 81, 64
2, 334084, Note_on_c, 0, 74, 92
2, 334088, Note_off_c, 0, 84, 64
2, 335364, Note_on_c, 0, 71, 92
2, 335368, Note_off_c, 0, 74, 64
2, 335492, Note_on_c, 0, 72, 92
2, 335496, Note_off_c, 0, 71, 64
2, 335620, Note_on_c, 0, 74, 92
2, 335624, Note_off_c, 0, 72, 64
2, 335748, Note_on_c, 0, 76, 92
2, 335752, Note_off_c, 0, 74, 64
2, 335876, Note_on_c, 0, 78, 92
2, 335880, Note_off_c, 0, 76, 64
2, 336004, Note_on_c, 0, 79, 92
2, 336008, Note_off_c, 0, 78, 64
2, 336132, Note_on_c, 0, 78, 92
2, 336136, Note_off_c, 0, 79, 64
2, 336260, Note_on_c, 0, 76, 92
2, 336264, Note_off_c, 0, 78, 64
2, 336388, Note_on_c, 0, 78, 92
2, 336392, Note_off_c, 0, 76, 64
2, 336516, Note_on_c, 0, 81, 92
2, 336520, Note_off_c, 0, 78, 64
2, 336644, Note_on_c, 0, 79, 92
2, 336648, Note_off_c, 0, 81, 64
2, 336772, Note_on_c, 0, 78, 92
2, 336776, Note_off_c, 0, 79, 64
2, 336900, Note_on_c, 0, 76, 92
2, 336904, Note_off_c, 0, 78, 64
2, 337028, Note_on_c, 0, 74, 92
2, 337032, Note_off_c, 0, 76, 64
2, 337156, Note_on_c, 0, 72, 92
2, 337160, Note_off_c, 0, 74, 64
2, 337444, Note_on_c, 0, 79, 92
2, 337448, Note_off_c, 0, 72, 64
2, 337540, Note_on_c, 0, 72, 92
2, 337544, Note_off_c, 0, 79, 64
2, 337668, Note_on_c, 0, 71, 92
2, 337672, Note_off_c, 0, 72, 64
2, 337796, Note_on_c, 0, 69, 92
2, 337800, Note_off_c, 0, 71, 64
2, 337924, Note_on_c, 0, 71, 92
2, 337928, Note_off_c, 0, 69, 64
2, 338052, Note_on_c, 0, 67, 92
2, 338056, Note_off_c, 0, 71, 64
2, 338180, Note_on_c, 0, 69, 92
2, 338184, Note_off_c, 0, 67, 64
2, 338308, Note_on_c, 0, 71, 92
2, 338312, Note_off_c, 0, 69, 64
2, 338436, Note_on_c, 0, 74, 92
2, 338440, Note_off_c, 0, 71, 64
2, 338564, Note_on_c, 0, 73, 92
2, 338568, Note_off_c, 0, 74, 64
2, 338692, Note_on_c, 0, 74, 92
2, 338696, Note_off_c, 0, 73, 64
2, 338820, Note_on_c, 0, 72, 92
2, 338824, Note_off_c, 0, 74, 64
2, 338948, Note_on_c, 0, 71, 92
2, 338952, Note_off_c, 0, 72, 64
2, 339076, Note_on_c, 0, 69, 92
2, 339080, Note_off_c, 0, 71, 64
2, 339204, Note_on_c, 0, 72, 92
2, 339208, Note_off_c, 0, 69, 64
2, 339332, Note_on_c, 0, 67, 92
2, 339336, Note_off_c, 0, 72, 64
2, 339460, Note_on_c, 0, 66, 92
2, 339464, Note_off_c, 0, 67, 64
2, 339588, Note_on_c, 0, 72, 92
2, 339592, Note_off_c, 0, 66, 64
2, 339716, Note_on_c, 0, 64, 92
2, 339720, Note_off_c, 0, 72, 64
2, 339844, Note_on_c, 0, 62, 92
2, 339848, Note_off_c, 0, 64, 64
2, 339972, Note_on_c, 0, 71, 92
2, 339976, Note_off_c, 0, 62, 64
2, 340100, Note_on_c, 0, 72, 92
2, 340104, Note_off_c, 0, 71, 64
2, 340228, Note_on_c, 0, 74, 92
2, 340232, Note_off_c, 0, 72, 64
2, 341124, Note_on_c, 0, 79, 92
2, 341128, Note_off_c, 0, 74, 64
2, 341252, Note_on_c, 0, 74, 92
2, 341256, Note_off_c, 0, 79, 64
2, 341380, Note_on_c, 0, 72, 92
2, 341384, Note_off_c, 0, 74, 64
2, 341508, Note_on_c, 0, 79, 92
2, 341512, Note_off_c, 0, 72, 64
2, 341636, Note_on_c, 0, 71, 92
2, 341640, Note_off_c, 0, 79, 64
2, 341764, Note_on_c, 0, 69, 92
2, 341768, Note_off_c, 0, 71, 64
2, 341892, Note_on_c, 0, 79, 92
2, 341896, Note_off_c, 0, 69, 64
2, 342020, Note_on_c, 0, 67, 92
2, 342024, Note_off_c, 0, 79, 64
2, 342148, Note_on_c, 0, 66, 92
2, 342152, Note_off_c, 0, 67, 64
2, 342276, Note_on_c, 0, 69, 92
2, 342280, Note_off_c, 0, 66, 64
2, 342404, Note_on_c, 0, 71, 92
2, 342408, Note_off_c, 0, 69, 64
2, 342532, Note_on_c, 0, 72, 92
2, 342536, Note_off_c, 0, 71, 64
2, 342660, Note_on_c, 0, 60, 92
2, 342664, Note_off_c, 0, 72, 64
2, 342788, Note_on_c, 0, 71, 92
2, 342792, Note_off_c, 0, 60, 64
2, 342916, Note_on_c, 0, 69, 92
2, 342920, Note_off_c, 0, 71, 64
2, 343044, Note_on_c, 0, 60, 92
2, 343048, Note_off_c, 0, 69, 64
2, 343172, Note_on_c, 0, 71, 92
2, 343176, Note_off_c, 0, 60, 64
2, 343300, Note_on_c, 0, 72, 92
2, 343304, Note_off_c, 0, 71, 64
2, 343428, Note_on_c, 0, 71, 92
2, 343432, Note_off_c, 0, 72, 64
2, 343556, Note_on_c, 0, 69, 92
2, 343560, Note_off_c, 0, 71, 64
2, 343684, Note_on_c, 0, 67, 92
2, 343688, Note_off_c, 0, 69, 64
2, 343812, Note_on_c, 0, 69, 92
2, 343816, Note_off_c, 0, 67, 64
2, 343940, Note_on_c, 0, 66, 92
2, 343944, Note_off_c, 0, 69, 64
2, 344068, Note_on_c, 0, 67, 92
2, 344072, Note_off_c, 0, 66, 64
2, 344196, Note_on_c, 0, 69, 92
2, 344200, Note_off_c, 0, 67, 64
2, 344324, Note_on_c, 0, 66, 92
2, 344328, Note_off_c, 0, 69, 64
2, 344452, Note_on_c, 0, 67, 92
2, 344456, Note_off_c, 0, 66, 64
2, 344580, Note_on_c, 0, 72, 92
2, 344584, Note_off_c, 0, 67, 64
2, 344708, Note_on_c, 0, 76, 92
2, 344712, Note_off_c, 0, 72, 64
2, 344836, Note_on_c, 0, 74, 92
2, 344840, Note_off_c, 0, 76, 64
2, 344964, Note_on_c, 0, 76, 92
2, 344968, Note_off_c, 0, 74, 64
2, 345092, Note_on_c, 0, 72, 92
2, 345096, Note_off_c, 0, 76, 64
2, 345220, Note_on_c, 0, 71, 92
2, 345224, Note_off_c, 0, 72, 64
2, 345348, Note_on_c, 0, 72, 92
2, 345352, Note_off_c, 0, 71, 64
2, 345476, Note_on_c, 0, 69, 92
2, 345480, Note_off_c, 0, 72, 64
2, 345604, Note_on_c, 0, 71, 92
2, 345608, Note_off_c, 0, 69, 64
2, 346376, Note_off_c, 0, 71, 64
2, 346756, Note_on_c, 0, 67, 92
2, 347140, Note_on_c, 0, 74, 92
2, 347144, Note_off_c, 0, 67, 64
2, 347524, Note_on_c, 0, 74, 92
2, 347528, Note_off_c, 0, 74, 64
2, 347908, Note_on_c, 0, 74, 92
2, 347912, Note_off_c, 0, 74, 64
2, 348292, Note_on_c, 0, 73, 92
2, 348296, Note_off_c, 0, 74, 64
2, 348388, Note_on_c, 0, 74, 92
2, 348392, Note_off_c, 0, 73, 64
2, 348484, Note_on_c, 0, 73, 92
2, 348488, Note_off_c, 0, 74, 64
2, 348680, Note_off_c, 0, 73, 64
2, 349060, Note_on_c, 0, 78, 92
2, 349188, Note_on_c, 0, 81, 92
2, 349192, Note_off_c, 0, 78, 64
2, 349316, Note_on_c, 0, 79, 92
2, 349320, Note_off_c, 0, 81, 64
2, 349444, Note_on_c, 0, 78, 92
2, 349448, Note_off_c, 0, 79, 64
2, 349572, Note_on_c, 0, 76, 92
2, 349576, Note_off_c, 0, 78, 64
2, 349700, Note_on_c, 0, 74, 92
2, 349704, Note_off_c, 0, 76, 64
2, 349828, Note_on_c, 0, 72, 92
2, 349832, Note_off_c, 0, 74, 64
2, 350116, Note_on_c, 0, 81, 92
2, 350120, Note_off_c, 0, 72, 64
2, 350212, Note_on_c, 0, 72, 92
2, 350216, Note_off_c, 0, 81, 64
2, 350596, Note_on_c, 0, 71, 92
2, 350600, Note_off_c, 0, 72, 64
2, 350692, Note_on_c, 0, 72, 92
2, 350696, Note_off_c, 0, 71, 64
2, 350788, Note_on_c, 0, 71, 92
2, 350792, Note_off_c, 0, 72, 64
2, 350984, Note_off_c, 0, 71, 64
2, 351364, Note_on_c, 0, 79, 92
2, 351748, Note_on_c, 0, 71, 92
2, 351752, Note_off_c, 0, 79, 64
2, 352132, Note_on_c, 0, 71, 92
2, 352136, Note_off_c, 0, 71, 64
2, 352516, Note_on_c, 0, 69, 92
2, 352520, Note_off_c, 0, 71, 64
2, 352900, Note_on_c, 0, 79, 92
2, 352904, Note_off_c, 0, 69, 64
2, 353284, Note_on_c, 0, 78, 92
2, 353288, Note_off_c, 0, 79, 64
2, 353668, Note_on_c, 0, 78, 92
2, 353672, Note_off_c, 0, 78, 64
2, 353716, Note_on_c, 0, 76, 92
2, 353720, Note_off_c, 0, 78, 64
2, 353764, Note_on_c, 0, 78, 92
2, 353768, Note_off_c, 0, 76, 64
2, 353812, Note_on_c, 0, 76, 92
2, 353816, Note_off_c, 0, 78, 64
2, 353860, Note_on_c, 0, 78, 92
2, 353864, Note_off_c, 0, 76, 64
2, 353908, Note_on_c, 0, 76, 92
2, 353912, Note_off_c, 0, 78, 64
2, 353956, Note_on_c, 0, 74, 92
2, 353960, Note_off_c, 0, 76, 64
2, 354004, Note_on_c, 0, 76, 92
2, 354008, Note_off_c, 0, 74, 64
2, 354052, Note_on_c, 0, 78, 92
2, 354056, Note_off_c, 0, 76, 64
2, 354340, Note_on_c, 0, 76, 92
2, 354344, Note_off_c, 0, 78, 64
2, 354436, Note_on_c, 0, 74, 92
2, 354440, Note_off_c, 0, 76, 64
2, 354724, Note_on_c, 0, 73, 92
2, 354728, Note_off_c, 0, 74, 64
2, 354820, Note_on_c, 0, 74, 92
2, 354824, Note_off_c, 0, 73, 64
2, 354948, Note_on_c, 0, 78, 92
2, 354952, Note_off_c, 0, 74, 64
2, 355076, Note_on_c, 0, 76, 92
2, 355080, Note_off_c, 0, 78, 64
2, 355204, Note_on_c, 0, 78, 92
2, 355208, Note_off_c, 0, 76, 64
2, 355332, Note_on_c, 0, 74, 92
2, 355336, Note_off_c, 0, 78, 64
2, 355460, Note_on_c, 0, 80, 92
2, 355464, Note_off_c, 0, 74, 64
2, 355588, Note_on_c, 0, 81, 92
2, 355592, Note_off_c, 0, 80, 64
2, 355716, Note_on_c, 0, 74, 92
2, 355720, Note_off_c, 0, 81, 64
2, 355844, Note_on_c, 0, 83, 92
2, 355848, Note_off_c, 0, 74, 64
2, 355972, Note_on_c, 0, 84, 92
2, 355976, Note_off_c, 0, 83, 64
2, 356356, Note_on_c, 0, 81, 92
2, 356360, Note_off_c, 0, 84, 64
2, 356744, Note_off_c, 0, 81, 64
2, 357124, Note_on_c, 0, 64, 92
2, 357252, Note_on_c, 0, 67, 92
2, 357256, Note_off_c, 0, 64, 64
2, 357380, Note_on_c, 0, 66, 92
2, 357384, Note_off_c, 0, 67, 64
2, 357508, Note_on_c, 0, 67, 92
2, 357512, Note_off_c, 0, 66, 64
2, 357636, Note_on_c, 0, 64, 92
2, 357640, Note_off_c, 0, 67, 64
2, 357764, Note_on_c, 0, 70, 92
2, 357768, Note_off_c, 0, 64, 64
2, 357892, Note_on_c, 0, 71, 92
2, 357896, Note_off_c, 0, 70, 64
2, 358020, Note_on_c, 0, 64, 92
2, 358024, Note_off_c, 0, 71, 64
2, 358148, Note_on_c, 0, 73, 92
2, 358152, Note_off_c, 0, 64, 64
2, 358276, Note_on_c, 0, 74, 92
2, 358280, Note_off_c, 0, 73, 64
2, 359556, Note_on_c, 0, 72, 92
2, 359560, Note_off_c, 0, 74, 64
2, 359684, Note_on_c, 0, 71, 92
2, 359688, Note_off_c, 0, 72, 64
2, 359812, Note_on_c, 0, 72, 92
2, 359816, Note_off_c, 0, 71, 64
2, 359940, Note_on_c, 0, 81, 92
2, 359944, Note_off_c, 0, 72, 64
2, 360068, Note_on_c, 0, 72, 92
2, 360072, Note_off_c, 0, 81, 64
2, 360196, Note_on_c, 0, 71, 92
2, 360200, Note_off_c, 0, 72, 64
2, 360708, Note_on_c, 0, 67, 92
2, 360712, Note_off_c, 0, 71, 64
2, 360836, Note_on_c, 0, 69, 92
2, 360840, Note_off_c, 0, 67, 64
2, 360964, Note_on_c, 0, 70, 92
2, 360968, Note_off_c, 0, 69, 64
2, 361092, Note_on_c, 0, 79, 92
2, 361096, Note_off_c, 0, 70, 64
2, 361220, Note_on_c, 0, 70, 92
2, 361224, Note_off_c, 0, 79, 64
2, 361348, Note_on_c, 0, 69, 92
2, 361352, Note_off_c, 0, 70, 64
2, 361860, Note_on_c, 0, 71, 92
2, 361864, Note_off_c, 0, 69, 64
2, 361988, Note_on_c, 0, 72, 92
2, 361992, Note_off_c, 0, 71, 64
2, 362116, Note_on_c, 0, 74, 92
2, 362120, Note_off_c, 0, 72, 64
2, 362244, Note_on_c, 0, 76, 92
2, 362248, Note_off_c, 0, 74, 64
2, 362372, Note_on_c, 0, 77, 92
2, 362376, Note_off_c, 0, 76, 64
2, 362500, Note_on_c, 0, 76, 92
2, 362504, Note_off_c, 0, 77, 64
2, 362628, Note_on_c, 0, 77, 92
2, 362632, Note_off_c, 0, 76, 64
2, 362756, Note_on_c, 0, 74, 92
2, 362760, Note_off_c, 0, 77, 64
2, 362884, Note_on_c, 0, 72, 92
2, 362888, Note_off_c, 0, 74, 64
2, 363556, Note_on_c, 0, 76, 92
2, 363560, Note_off_c, 0, 72, 64
2, 363652, Note_on_c, 0, 81, 92
2, 363656, Note_off_c, 0, 76, 64
2, 363780, Note_on_c, 0, 80, 92
2, 363784, Note_off_c, 0, 81, 64
2, 363908, Note_on_c, 0, 81, 92
2, 363912, Note_off_c, 0, 80, 64
2, 364036, Note_on_c, 0, 80, 92
2, 364040, Note_off_c, 0, 81, 64
2, 364164, Note_on_c, 0, 81, 92
2, 364168, Note_off_c, 0, 80, 64
2, 364292, Note_on_c, 0, 83, 92
2, 364296, Note_off_c, 0, 81, 64
2, 364420, Note_on_c, 0, 74, 92
2, 364424, Note_off_c, 0, 83, 64
2, 364548, Note_on_c, 0, 80, 92
2, 364552, Note_off_c, 0, 74, 64
2, 364676, Note_on_c, 0, 81, 92
2, 364680, Note_off_c, 0, 80, 64
2, 364804, Note_on_c, 0, 83, 92
2, 364808, Note_off_c, 0, 81, 64
2, 364932, Note_on_c, 0, 81, 92
2, 364936, Note_off_c, 0, 83, 64
2, 365060, Note_on_c, 0, 83, 92
2, 365064, Note_off_c, 0, 81, 64
2, 365188, Note_on_c, 0, 74, 92
2, 365192, Note_off_c, 0, 83, 64
2, 365316, Note_on_c, 0, 71, 92
2, 365320, Note_off_c, 0, 74, 64
2, 365444, Note_on_c, 0, 72, 92
2, 365448, Note_off_c, 0, 71, 64
2, 365576, Note_off_c, 0, 72, 64
2, 366340, Note_on_c, 0, 72, 92
2, 366468, Note_on_c, 0, 69, 92
2, 366472, Note_off_c, 0, 72, 64
2, 366596, Note_on_c, 0, 71, 92
2, 366600, Note_off_c, 0, 69, 64
2, 366728, Note_off_c, 0, 71, 64
2, 367876, Note_on_c, 0, 76, 92
2, 368772, Note_on_c, 0, 73, 92
2, 368776, Note_off_c, 0, 76, 64
2, 368900, Note_on_c, 0, 74, 92
2, 368904, Note_off_c, 0, 73, 64
2, 369032, Note_off_c, 0, 74, 64
2, 369796, Note_on_c, 0, 69, 92
2, 369924, Note_on_c, 0, 66, 92
2, 369928, Note_off_c, 0, 69, 64
2, 370052, Note_on_c, 0, 68, 92
2, 370056, Note_off_c, 0, 66, 64
2, 370184, Note_off_c, 0, 68, 64
2, 370948, Note_on_c, 0, 74, 92
2, 371076, Note_on_c, 0, 60, 92
2, 371080, Note_off_c, 0, 74, 64
2, 371204, Note_on_c, 0, 62, 92
2, 371208, Note_off_c, 0, 60, 64
2, 371336, Note_off_c, 0, 62, 64
2, 374404, Note_on_c, 0, 71, 92
2, 374788, Note_on_c, 0, 76, 92
2, 374792, Note_off_c, 0, 71, 64
2, 375172, Note_on_c, 0, 76, 92
2, 375176, Note_off_c, 0, 76, 64
2, 375556, Note_on_c, 0, 76, 92
2, 375560, Note_off_c, 0, 76, 64
2, 375940, Note_on_c, 0, 75, 92
2, 375944, Note_off_c, 0, 76, 64
2, 376036, Note_on_c, 0, 76, 92
2, 376040, Note_off_c, 0, 75, 64
2, 376132, Note_on_c, 0, 75, 92
2, 376136, Note_off_c, 0, 76, 64
2, 376328, Note_off_c, 0, 75, 64
2, 376708, Note_on_c, 0, 80, 92
2, 376836, Note_on_c, 0, 83, 92
2, 376840, Note_off_c, 0, 80, 64
2, 376964, Note_on_c, 0, 81, 92
2, 376968, Note_off_c, 0, 83, 64
2, 377092, Note_on_c, 0, 80, 92
2, 377096, Note_off_c, 0, 81, 64
2, 377220, Note_on_c, 0, 78, 92
2, 377224, Note_off_c, 0, 80, 64
2, 377348, Note_on_c, 0, 76, 92
2, 377352, Note_off_c, 0, 78, 64
2, 377476, Note_on_c, 0, 74, 92
2, 377480, Note_off_c, 0, 76, 64
2, 377764, Note_on_c, 0, 83, 92
2, 377768, Note_off_c, 0, 74, 64
2, 377860, Note_on_c, 0, 74, 92
2, 377864, Note_off_c, 0, 83, 64
2, 378244, Note_on_c, 0, 73, 92
2, 378248, Note_off_c, 0, 74, 64
2, 378340, Note_on_c, 0, 74, 92
2, 378344, Note_off_c, 0, 73, 64
2, 378436, Note_on_c, 0, 73, 92
2, 378440, Note_off_c, 0, 74, 64
2, 378632, Note_off_c, 0, 73, 64
2, 379012, Note_on_c, 0, 81, 92
2, 379396, Note_on_c, 0, 72, 92
2, 379400, Note_off_c, 0, 81, 64
2, 379780, Note_on_c, 0, 72, 92
2, 379784, Note_off_c, 0, 72, 64
2, 380164, Note_on_c, 0, 71, 92
2, 380168, Note_off_c, 0, 72, 64
2, 380548, Note_on_c, 0, 81, 92
2, 380552, Note_off_c, 0, 71, 64
2, 380932, Note_on_c, 0, 79, 92
2, 380936, Note_off_c, 0, 81, 64
2, 381316, Note_on_c, 0, 79, 92
2, 381320, Note_off_c, 0, 79, 64
2, 381364, Note_on_c, 0, 78, 92
2, 381368, Note_off_c, 0, 79, 64
2, 381412, Note_on_c, 0, 79, 92
2, 381416, Note_off_c, 0, 78, 64
2, 381460, Note_on_c, 0, 78, 92
2, 381464, Note_off_c, 0, 79, 64
2, 381508, Note_on_c, 0, 79, 92
2, 381512, Note_off_c, 0, 78, 64
2, 381556, Note_on_c, 0, 78, 92
2, 381560, Note_off_c, 0, 79, 64
2, 381604, Note_on_c, 0, 76, 92
2, 381608, Note_off_c, 0, 78, 64
2, 381652, Note_on_c, 0, 78, 92
2, 381656, Note_off_c, 0, 76, 64
2, 381700, Note_on_c, 0, 79, 92
2, 381704, Note_off_c, 0, 78, 64
2, 381988, Note_on_c, 0, 78, 92
2, 381992, Note_off_c, 0, 79, 64
2, 382084, Note_on_c, 0, 76, 92
2, 382088, Note_off_c, 0, 78, 64
2, 382372, Note_on_c, 0, 75, 92
2, 382376, Note_off_c, 0, 76, 64
2, 382468, Note_on_c, 0, 74, 92
2, 382472, Note_off_c, 0, 75, 64
2, 382596, Note_on_c, 0, 67, 92
2, 382600, Note_off_c, 0, 74, 64
2, 382724, Note_on_c, 0, 69, 92
2, 382728, Note_off_c, 0, 67, 64
2, 382852, Note_on_c, 0, 71, 92
2, 382856, Note_off_c, 0, 69, 64
2, 382980, Note_on_c, 0, 67, 92
2, 382984, Note_off_c, 0, 71, 64
2, 383108, Note_on_c, 0, 72, 92
2, 383112, Note_off_c, 0, 67, 64
2, 383236, Note_on_c, 0, 74, 92
2, 383240, Note_off_c, 0, 72, 64
2, 383364, Note_on_c, 0, 67, 92
2, 383368, Note_off_c, 0, 74, 64
2, 383492, Note_on_c, 0, 76, 92
2, 383496, Note_off_c, 0, 67, 64
2, 383620, Note_on_c, 0, 65, 92
2, 383624, Note_off_c, 0, 76, 64
2, 383748, Note_on_c, 0, 62, 92
2, 383752, Note_off_c, 0, 65, 64
2, 383876, Note_on_c, 0, 64, 92
2, 383880, Note_off_c, 0, 62, 64
2, 384004, Note_on_c, 0, 65, 92
2, 384008, Note_off_c, 0, 64, 64
2, 384132, Note_on_c, 0, 62, 92
2, 384136, Note_off_c, 0, 65, 64
2, 384260, Note_on_c, 0, 67, 92
2, 384264, Note_off_c, 0, 62, 64
2, 384388, Note_on_c, 0, 69, 92
2, 384392, Note_off_c, 0, 67, 64
2, 384516, Note_on_c, 0, 62, 92
2, 384520, Note_off_c, 0, 69, 64
2, 384644, Note_on_c, 0, 71, 92
2, 384648, Note_off_c, 0, 62, 64
2, 384900, Note_on_c, 0, 64, 92
2, 384904, Note_off_c, 0, 71, 64
2, 385028, Note_on_c, 0, 66, 92
2, 385032, Note_off_c, 0, 64, 64
2, 385156, Note_on_c, 0, 68, 92
2, 385160, Note_off_c, 0, 66, 64
2, 385284, Note_on_c, 0, 64, 92
2, 385288, Note_off_c, 0, 68, 64
2, 385412, Note_on_c, 0, 69, 92
2, 385416, Note_off_c, 0, 64, 64
2, 385540, Note_on_c, 0, 71, 92
2, 385544, Note_off_c, 0, 69, 64
2, 385668, Note_on_c, 0, 64, 92
2, 385672, Note_off_c, 0, 71, 64
2, 385796, Note_on_c, 0, 72, 92
2, 385800, Note_off_c, 0, 64, 64
2, 385924, Note_on_c, 0, 62, 92
2, 385928, Note_off_c, 0, 72, 64
2, 386052, Note_on_c, 0, 59, 92
2, 386056, Note_off_c, 0, 62, 64
2, 386180, Note_on_c, 0, 60, 92
2, 386184, Note_off_c, 0, 59, 64
2, 386308, Note_on_c, 0, 62, 92
2, 386312, Note_off_c, 0, 60, 64
2, 386436, Note_on_c, 0, 59, 92
2, 386440, Note_off_c, 0, 62, 64
2, 386564, Note_on_c, 0, 64, 92
2, 386568, Note_off_c, 0, 59, 64
2, 386692, Note_on_c, 0, 66, 92
2, 386696, Note_off_c, 0, 64, 64
2, 386820, Note_on_c, 0, 59, 92
2, 386824, Note_off_c, 0, 66, 64
2, 386948, Note_on_c, 0, 68, 92
2, 386952, Note_off_c, 0, 59, 64
2, 387076, Note_on_c, 0, 69, 92
2, 387080, Note_off_c, 0, 68, 64
2, 387204, Note_on_c, 0, 72, 92
2, 387208, Note_off_c, 0, 69, 64
2, 387332, Note_on_c, 0, 76, 92
2, 387336, Note_off_c, 0, 72, 64
2, 387460, Note_on_c, 0, 72, 92
2, 387464, Note_off_c, 0, 76, 64
2, 387588, Note_on_c, 0, 69, 92
2, 387592, Note_off_c, 0, 72, 64
2, 387716, Note_on_c, 0, 67, 92
2, 387720, Note_off_c, 0, 69, 64
2, 387844, Note_on_c, 0, 66, 92
2, 387848, Note_off_c, 0, 67, 64
2, 387972, Note_on_c, 0, 69, 92
2, 387976, Note_off_c, 0, 66, 64
2, 388100, Note_on_c, 0, 72, 92
2, 388104, Note_off_c, 0, 69, 64
2, 388228, Note_on_c, 0, 63, 92
2, 388232, Note_off_c, 0, 72, 64
2, 388356, Note_on_c, 0, 64, 92
2, 388360, Note_off_c, 0, 63, 64
2, 388484, Note_on_c, 0, 66, 92
2, 388488, Note_off_c, 0, 64, 64
2, 388612, Note_on_c, 0, 64, 92
2, 388616, Note_off_c, 0, 66, 64
2, 388740, Note_on_c, 0, 66, 92
2, 388744, Note_off_c, 0, 64, 64
2, 388868, Note_on_c, 0, 67, 92
2, 388872, Note_off_c, 0, 66, 64
2, 388996, Note_on_c, 0, 69, 92
2, 389000, Note_off_c, 0, 67, 64
2, 389124, Note_on_c, 0, 71, 92
2, 389128, Note_off_c, 0, 69, 64
2, 389252, Note_on_c, 0, 67, 92
2, 389256, Note_off_c, 0, 71, 64
2, 389380, Note_on_c, 0, 66, 92
2, 389384, Note_off_c, 0, 67, 64
2, 389508, Note_on_c, 0, 69, 92
2, 389512, Note_off_c, 0, 66, 64
2, 389636, Note_on_c, 0, 67, 92
2, 389640, Note_off_c, 0, 69, 64
2, 389764, Note_on_c, 0, 66, 92
2, 389768, Note_off_c, 0, 67, 64
2, 389892, Note_on_c, 0, 69, 92
2, 389896, Note_off_c, 0, 66, 64
2, 390020, Note_on_c, 0, 64, 92
2, 390024, Note_off_c, 0, 69, 64
2, 390148, Note_on_c, 0, 63, 92
2, 390152, Note_off_c, 0, 64, 64
2, 390276, Note_on_c, 0, 69, 92
2, 390280, Note_off_c, 0, 63, 64
2, 390404, Note_on_c, 0, 61, 92
2, 390408, Note_off_c, 0, 69, 64
2, 390532, Note_on_c, 0, 62, 92
2, 390536, Note_off_c, 0, 61, 64
2, 390660, Note_on_c, 0, 68, 92
2, 390664, Note_off_c, 0, 62, 64
2, 390788, Note_on_c, 0, 69, 92
2, 390792, Note_off_c, 0, 68, 64
2, 390916, Note_on_c, 0, 71, 92
2, 390920, Note_off_c, 0, 69, 64
2, 391812, Note_on_c, 0, 76, 92
2, 391816, Note_off_c, 0, 71, 64
2, 391940, Note_on_c, 0, 71, 92
2, 391944, Note_off_c, 0, 76, 64
2, 392068, Note_on_c, 0, 69, 92
2, 392072, Note_off_c, 0, 71, 64
2, 392196, Note_on_c, 0, 76, 92
2, 392200, Note_off_c, 0, 69, 64
2, 392324, Note_on_c, 0, 67, 92
2, 392328, Note_off_c, 0, 76, 64
2, 392452, Note_on_c, 0, 66, 92
2, 392456, Note_off_c, 0, 67, 64
2, 392580, Note_on_c, 0, 76, 92
2, 392584, Note_off_c, 0, 66, 64
2, 392708, Note_on_c, 0, 64, 92
2, 392712, Note_off_c, 0, 76, 64
2, 392836, Note_on_c, 0, 63, 92
2, 392840, Note_off_c, 0, 64, 64
2, 392964, Note_on_c, 0, 66, 92
2, 392968, Note_off_c, 0, 63, 64
2, 393092, Note_on_c, 0, 67, 92
2, 393096, Note_off_c, 0, 66, 64
2, 393220, Note_on_c, 0, 69, 92
2, 393224, Note_off_c, 0, 67, 64
2, 393348, Note_on_c, 0, 57, 92
2, 393352, Note_off_c, 0, 69, 64
2, 393476, Note_on_c, 0, 67, 92
2, 393480, Note_off_c, 0, 57, 64
2, 393604, Note_on_c, 0, 66, 92
2, 393608, Note_off_c, 0, 67, 64
2, 393732, Note_on_c, 0, 57, 92
2, 393736, Note_off_c, 0, 66, 64
2, 393860, Note_on_c, 0, 67, 92
2, 393864, Note_off_c, 0, 57, 64
2, 393988, Note_on_c, 0, 69, 92
2, 393992, Note_off_c, 0, 67, 64
2, 394116, Note_on_c, 0, 67, 92
2, 394120, Note_off_c, 0, 69, 64
2, 394244, Note_on_c, 0, 66, 92
2, 394248, Note_off_c, 0, 67, 64
2, 394372, Note_on_c, 0, 64, 92
2, 394376, Note_off_c, 0, 66, 64
2, 394500, Note_on_c, 0, 66, 92
2, 394504, Note_off_c, 0, 64, 64
2, 394628, Note_on_c, 0, 63, 92
2, 394632, Note_off_c, 0, 66, 64
2, 394756, Note_on_c, 0, 64, 92
2, 394760, Note_off_c, 0, 63, 64
2, 394884, Note_on_c, 0, 66, 92
2, 394888, Note_off_c, 0, 64, 64
2, 395012, Note_on_c, 0, 62, 92
2, 395016, Note_off_c, 0, 66, 64
2, 395140, Note_on_c, 0, 64, 92
2, 395144, Note_off_c, 0, 62, 64
2, 395268, Note_on_c, 0, 69, 92
2, 395272, Note_off_c, 0, 64, 64
2, 395396, Note_on_c, 0, 72, 92
2, 395400, Note_off_c, 0, 69, 64
2, 395524, Note_on_c, 0, 71, 92
2, 395528, Note_off_c, 0, 72, 64
2, 395652, Note_on_c, 0, 72, 92
2, 395656, Note_off_c, 0, 71, 64
2, 395780, Note_on_c, 0, 69, 92
2, 395784, Note_off_c, 0, 72, 64
2, 395908, Note_on_c, 0, 67, 92
2, 395912, Note_off_c, 0, 69, 64
2, 396036, Note_on_c, 0, 69, 92
2, 396040, Note_off_c, 0, 67, 64
2, 396164, Note_on_c, 0, 66, 92
2, 396168, Note_off_c, 0, 69, 64
2, 396292, Note_on_c, 0, 67, 92
2, 396296, Note_off_c, 0, 66, 64
2, 396804, Note_on_c, 0, 64, 92
2, 396808, Note_off_c, 0, 67, 64
2, 396932, Note_on_c, 0, 67, 92
2, 396936, Note_off_c, 0, 64, 64
2, 397060, Note_on_c, 0, 72, 92
2, 397064, Note_off_c, 0, 67, 64
2, 397956, Note_on_c, 0, 62, 92
2, 397960, Note_off_c, 0, 72, 64
2, 398084, Note_on_c, 0, 66, 92
2, 398088, Note_off_c, 0, 62, 64
2, 398212, Note_on_c, 0, 71, 92
2, 398216, Note_off_c, 0, 66, 64
2, 398724, Note_on_c, 0, 76, 92
2, 398728, Note_off_c, 0, 71, 64
2, 398852, Note_on_c, 0, 75, 92
2, 398856, Note_off_c, 0, 76, 64
2, 398980, Note_on_c, 0, 76, 92
2, 398984, Note_off_c, 0, 75, 64
2, 399268, Note_on_c, 0, 64, 92
2, 399272, Note_off_c, 0, 76, 64
2, 399364, Note_on_c, 0, 69, 92
2, 399368, Note_off_c, 0, 64, 64
2, 399412, Note_on_c, 0, 67, 92
2, 399416, Note_off_c, 0, 69, 64
2, 399460, Note_on_c, 0, 69, 92
2, 399464, Note_off_c, 0, 67, 64
2, 399652, Note_on_c, 0, 69, 92
2, 399656, Note_off_c, 0, 69, 64
2, 399748, Note_on_c, 0, 69, 92
2, 399752, Note_off_c, 0, 69, 64
2, 399876, Note_on_c, 0, 78, 92
2, 399880, Note_off_c, 0, 69, 64
2, 400004, Note_on_c, 0, 76, 92
2, 400008, Note_off_c, 0, 78, 64
2, 400132, Note_on_c, 0, 75, 92
2, 400136, Note_off_c, 0, 76, 64
2, 400260, Note_on_c, 0, 73, 92
2, 400264, Note_off_c, 0, 75, 64
2, 400388, Note_on_c, 0, 71, 92
2, 400392, Note_off_c, 0, 73, 64
2, 400516, Note_on_c, 0, 76, 92
2, 400520, Note_off_c, 0, 71, 64
2, 400644, Note_on_c, 0, 74, 92
2, 400648, Note_off_c, 0, 76, 64
2, 400772, Note_on_c, 0, 72, 92
2, 400776, Note_off_c, 0, 74, 64
2, 400900, Note_on_c, 0, 71, 92
2, 400904, Note_off_c, 0, 72, 64
2, 401028, Note_on_c, 0, 72, 92
2, 401032, Note_off_c, 0, 71, 64
2, 401156, Note_on_c, 0, 69, 92
2, 401160, Note_off_c, 0, 72, 64
2, 401284, Note_on_c, 0, 67, 92
2, 401288, Note_off_c, 0, 69, 64
2, 401668, Note_on_c, 0, 66, 92
2, 401672, Note_off_c, 0, 67, 64
2, 401716, Note_on_c, 0, 67, 92
2, 401720, Note_off_c, 0, 66, 64
2, 401764, Note_on_c, 0, 66, 92
2, 401768, Note_off_c, 0, 67, 64
2, 401956, Note_on_c, 0, 64, 92
2, 401960, Note_off_c, 0, 66, 64
2, 402052, Note_on_c, 0, 64, 92
2, 402056, Note_off_c, 0, 64, 64
2, 402180, Note_on_c, 0, 71, 92
2, 402184, Note_off_c, 0, 64, 64
2, 402308, Note_on_c, 0, 76, 92
2, 402312, Note_off_c, 0, 71, 64
2, 402436, Note_on_c, 0, 79, 92
2, 402440, Note_off_c, 0, 76, 64
2, 402948, Note_on_c, 0, 76, 92
2, 402952, Note_off_c, 0, 79, 64
2, 403076, Note_on_c, 0, 72, 92
2, 403080, Note_off_c, 0, 76, 64
2, 403204, Note_on_c, 0, 78, 92
2, 403208, Note_off_c, 0, 72, 64
2, 403332, Note_on_c, 0, 69, 92
2, 403336, Note_off_c, 0, 78, 64
2, 403460, Note_on_c, 0, 74, 92
2, 403464, Note_off_c, 0, 69, 64
2, 403588, Note_on_c, 0, 78, 92
2, 403592, Note_off_c, 0, 74, 64
2, 404100, Note_on_c, 0, 74, 92
2, 404104, Note_off_c, 0, 78, 64
2, 404228, Note_on_c, 0, 71, 92
2, 404232, Note_off_c, 0, 74, 64
2, 404356, Note_on_c, 0, 76, 92
2, 404360, Note_off_c, 0, 71, 64
2, 404868, Note_on_c, 0, 78, 92
2, 404872, Note_off_c, 0, 76, 64
2, 404996, Note_on_c, 0, 79, 92
2, 405000, Note_off_c, 0, 78, 64
2, 405124, Note_on_c, 0, 78, 92
2, 405128, Note_off_c, 0, 79, 64
2, 405252, Note_on_c, 0, 79, 92
2, 405256, Note_off_c, 0, 78, 64
2, 405380, Note_on_c, 0, 76, 92
2, 405384, Note_off_c, 0, 79, 64
2, 405508, Note_on_c, 0, 75, 92
2, 405512, Note_off_c, 0, 76, 64
2, 405796, Note_on_c, 0, 78, 92
2, 405800, Note_off_c, 0, 75, 64
2, 405892, Note_on_c, 0, 81, 92
2, 405896, Note_off_c, 0, 78, 64
2, 406180, Note_on_c, 0, 83, 92
2, 406184, Note_off_c, 0, 81, 64
2, 406276, Note_on_c, 0, 79, 92
2, 406280, Note_off_c, 0, 83, 64
2, 406564, Note_on_c, 0, 75, 92
2, 406568, Note_off_c, 0, 79, 64
2, 406660, Note_on_c, 0, 76, 92
2, 406664, Note_off_c, 0, 75, 64
2, 406948, Note_on_c, 0, 78, 92
2, 406952, Note_off_c, 0, 76, 64
2, 407044, Note_on_c, 0, 76, 92
2, 407048, Note_off_c, 0, 78, 64
2, 407428, Note_on_c, 0, 75, 92
2, 407432, Note_off_c, 0, 76, 64
2, 407476, Note_on_c, 0, 76, 92
2, 407480, Note_off_c, 0, 75, 64
2, 407524, Note_on_c, 0, 75, 92
2, 407528, Note_off_c, 0, 76, 64
2, 407716, Note_on_c, 0, 76, 92
2, 407720, Note_off_c, 0, 75, 64
2, 407812, Note_on_c, 0, 76, 92
2, 407816, Note_off_c, 0, 76, 64
2, 408968, Note_off_c, 0, 76, 64
2, 409088, End_track
3, 0, Start_track
3, 0, Title_t, "Track 2"
3, 3456, Note_on_c, 0, 59, 97
3, 3840, Note_off_c, 0, 59, 64
3, 3840, Note_on_c, 0, 64, 97
3, 4224, Note_off_c, 0, 64, 64
3, 4224, Note_on_c, 0, 67, 97
3, 4608, Note_off_c, 0, 67, 64
3, 4608, Note_on_c, 0, 57, 97
3, 4992, Note_off_c, 0, 57, 64
3, 4992, Note_on_c, 0, 57, 97
3, 5184, Note_off_c, 0, 57, 64
3, 5184, Note_on_c, 0, 59, 97
3, 5280, Note_off_c, 0, 59, 64
3, 5280, Note_on_c, 0, 60, 97
3, 5376, Note_off_c, 0, 60, 64
3, 5376, Note_on_c, 0, 57, 97
3, 5424, Note_off_c, 0, 57, 64
3, 5424, Note_on_c, 0, 59, 97
3, 5472, Note_off_c, 0, 59, 64
3, 5472, Note_on_c, 0, 57, 97
3, 5952, Note_off_c, 0, 57, 64
3, 5952, Note_on_c, 0, 55, 97
3, 6144, Note_off_c, 0, 55, 64
3, 6144, Note_on_c, 0, 55, 97
3, 6528, Note_off_c, 0, 55, 64
3, 6528, Note_on_c, 0, 59, 97
3, 6912, Note_off_c, 0, 59, 64
3, 6912, Note_on_c, 0, 57, 97
3, 7104, Note_off_c, 0, 57, 64
3, 7104, Note_on_c, 0, 55, 97
3, 7296, Note_off_c, 0, 55, 64
3, 7296, Note_on_c, 0, 54, 97
3, 7488, Note_off_c, 0, 54, 64
3, 7488, Note_on_c, 0, 52, 97
3, 7680, Note_off_c, 0, 52, 64
3, 7680, Note_on_c, 0, 64, 97
3, 7872, Note_off_c, 0, 64, 64
3, 7872, Note_on_c, 0, 63, 97
3, 8064, Note_off_c, 0, 63, 64
3, 8064, Note_on_c, 0, 64, 97
3, 8256, Note_off_c, 0, 64, 64
3, 8256, Note_on_c, 0, 67, 97
3, 8448, Note_off_c, 0, 67, 64
3, 8448, Note_on_c, 0, 66, 97
3, 8640, Note_off_c, 0, 66, 64
3, 8640, Note_on_c, 0, 64, 97
3, 8832, Note_off_c, 0, 64, 64
3, 8832, Note_on_c, 0, 63, 97
3, 9024, Note_off_c, 0, 63, 64
3, 9024, Note_on_c, 0, 64, 97
3, 9216, Note_off_c, 0, 64, 64
3, 9216, Note_on_c, 0, 63, 97
3, 9600, Note_off_c, 0, 63, 64
3, 9600, Note_on_c, 0, 66, 97
3, 9984, Note_off_c, 0, 66, 64
3, 9984, Note_on_c, 0, 67, 97
3, 10368, Note_off_c, 0, 67, 64
3, 10368, Note_on_c, 0, 59, 97
3, 10752, Note_off_c, 0, 59, 64
3, 10752, Note_on_c, 0, 61, 97
3, 10800, Note_off_c, 0, 61, 64
3, 10800, Note_on_c, 0, 63, 97
3, 10848, Note_off_c, 0, 63, 64
3, 10848, Note_on_c, 0, 61, 97
3, 11904, Note_off_c, 0, 61, 64
3, 11904, Note_on_c, 0, 59, 97
3, 12096, Note_off_c, 0, 59, 64
3, 12096, Note_on_c, 0, 61, 97
3, 12288, Note_off_c, 0, 61, 64
3, 12288, Note_on_c, 0, 59, 97
3, 12672, Note_off_c, 0, 59, 64
3, 12672, Note_on_c, 0, 66, 97
3, 13440, Note_off_c, 0, 66, 64
3, 13440, Note_on_c, 0, 64, 97
3, 13632, Note_off_c, 0, 64, 64
3, 13632, Note_on_c, 0, 63, 97
3, 13824, Note_off_c, 0, 63, 64
3, 13824, Note_on_c, 0, 64, 97
3, 14016, Note_off_c, 0, 64, 64
3, 14016, Note_on_c, 0, 63, 97
3, 14208, Note_off_c, 0, 63, 64
3, 14208, Note_on_c, 0, 61, 97
3, 14400, Note_off_c, 0, 61, 64
3, 14400, Note_on_c, 0, 59, 97
3, 14592, Note_off_c, 0, 59, 64
3, 14592, Note_on_c, 0, 64, 97
3, 14784, Note_off_c, 0, 64, 64
3, 14784, Note_on_c, 0, 66, 97
3, 14976, Note_off_c, 0, 66, 64
3, 14976, Note_on_c, 0, 64, 97
3, 15168, Note_off_c, 0, 64, 64
3, 15168, Note_on_c, 0, 59, 97
3, 15360, Note_off_c, 0, 59, 64
3, 15360, Note_on_c, 0, 55, 97
3, 15552, Note_off_c, 0, 55, 64
3, 15552, Note_on_c, 0, 59, 97
3, 15744, Note_off_c, 0, 59, 64
3, 15744, Note_on_c, 0, 64, 97
3, 15936, Note_off_c, 0, 64, 64
3, 15936, Note_on_c, 0, 66, 97
3, 16128, Note_off_c, 0, 66, 64
3, 16128, Note_on_c, 0, 67, 97
3, 16320, Note_off_c, 0, 67, 64
3, 16320, Note_on_c, 0, 66, 97
3, 16512, Note_off_c, 0, 66, 64
3, 16512, Note_on_c, 0, 64, 97
3, 16704, Note_off_c, 0, 64, 64
3, 16704, Note_on_c, 0, 66, 97
3, 16896, Note_off_c, 0, 66, 64
3, 16896, Note_on_c, 0, 67, 97
3, 17280, Note_off_c, 0, 67, 64
3, 17280, Note_on_c, 0, 60, 97
3, 17856, Note_off_c, 0, 60, 64
3, 17856, Note_on_c, 0, 59, 97
3, 18048, Note_off_c, 0, 59, 64
3, 18048, Note_on_c, 0, 57, 97
3, 18240, Note_off_c, 0, 57, 64
3, 18240, Note_on_c, 0, 59, 97
3, 18432, Note_off_c, 0, 59, 64
3, 18432, Note_on_c, 0, 64, 97
3, 18816, Note_off_c, 0, 64, 64
3, 18816, Note_on_c, 0, 57, 97
3, 19200, Note_off_c, 0, 57, 64
3, 19200, Note_on_c, 0, 62, 97
3, 19584, Note_off_c, 0, 62, 64
3, 19584, Note_on_c, 0, 55, 97
3, 20160, Note_off_c, 0, 55, 64
3, 20160, Note_on_c, 0, 54, 97
3, 20352, Note_off_c, 0, 54, 64
3, 20352, Note_on_c, 0, 52, 97
3, 20544, Note_off_c, 0, 52, 64
3, 20544, Note_on_c, 0, 54, 97
3, 20736, Note_off_c, 0, 54, 64
3, 20736, Note_on_c, 0, 59, 97
3, 21120, Note_off_c, 0, 59, 64
3, 21120, Note_on_c, 0, 52, 97
3, 21504, Note_off_c, 0, 52, 64
3, 21504, Note_on_c, 0, 57, 97
3, 21696, Note_off_c, 0, 57, 64
3, 21696, Note_on_c, 0, 55, 97
3, 21888, Note_off_c, 0, 55, 64
3, 21888, Note_on_c, 0, 57, 97
3, 22080, Note_off_c, 0, 57, 64
3, 22080, Note_on_c, 0, 60, 97
3, 22272, Note_off_c, 0, 60, 64
3, 22272, Note_on_c, 0, 57, 97
3, 22464, Note_off_c, 0, 57, 64
3, 22464, Note_on_c, 0, 55, 97
3, 22656, Note_off_c, 0, 55, 64
3, 22656, Note_on_c, 0, 57, 97
3, 22848, Note_off_c, 0, 57, 64
3, 22848, Note_on_c, 0, 60, 97
3, 23040, Note_off_c, 0, 60, 64
3, 23040, Note_on_c, 0, 54, 97
3, 23232, Note_off_c, 0, 54, 64
3, 23232, Note_on_c, 0, 59, 97
3, 23424, Note_off_c, 0, 59, 64
3, 23424, Note_on_c, 0, 57, 97
3, 23616, Note_off_c, 0, 57, 64
3, 23616, Note_on_c, 0, 59, 97
3, 23808, Note_off_c, 0, 59, 64
3, 23808, Note_on_c, 0, 52, 97
3, 24192, Note_off_c, 0, 52, 64
3, 24192, Note_on_c, 0, 64, 97
3, 24576, Note_off_c, 0, 64, 64
3, 24576, Note_on_c, 0, 64, 97
3, 24960, Note_off_c, 0, 64, 64
3, 24960, Note_on_c, 0, 64, 97
3, 25344, Note_off_c, 0, 64, 64
3, 25344, Note_on_c, 0, 64, 97
3, 25536, Note_off_c, 0, 64, 64
3, 25536, Note_on_c, 0, 63, 97
3, 25728, Note_off_c, 0, 63, 64
3, 25728, Note_on_c, 0, 61, 97
3, 25920, Note_off_c, 0, 61, 64
3, 25920, Note_on_c, 0, 63, 97
3, 26112, Note_off_c, 0, 63, 64
3, 26112, Note_on_c, 0, 64, 97
3, 26304, Note_off_c, 0, 64, 64
3, 26304, Note_on_c, 0, 66, 97
3, 26496, Note_off_c, 0, 66, 64
3, 26496, Note_on_c, 0, 67, 97
3, 26688, Note_off_c, 0, 67, 64
3, 26688, Note_on_c, 0, 69, 97
3, 26880, Note_off_c, 0, 69, 64
3, 26880, Note_on_c, 0, 66, 97
3, 27072, Note_off_c, 0, 66, 64
3, 27072, Note_on_c, 0, 67, 97
3, 27264, Note_off_c, 0, 67, 64
3, 27264, Note_on_c, 0, 66, 97
3, 27456, Note_off_c, 0, 66, 64
3, 27456, Note_on_c, 0, 67, 97
3, 27648, Note_off_c, 0, 67, 64
3, 27648, Note_on_c, 0, 69, 97
3, 27840, Note_off_c, 0, 69, 64
3, 27840, Note_on_c, 0, 67, 97
3, 28032, Note_off_c, 0, 67, 64
3, 28032, Note_on_c, 0, 66, 97
3, 28224, Note_off_c, 0, 66, 64
3, 28224, Note_on_c, 0, 64, 97
3, 28416, Note_off_c, 0, 64, 64
3, 28416, Note_on_c, 0, 62, 97
3, 28608, Note_off_c, 0, 62, 64
3, 28608, Note_on_c, 0, 60, 97
3, 28800, Note_off_c, 0, 60, 64
3, 28800, Note_on_c, 0, 62, 97
3, 28992, Note_off_c, 0, 62, 64
3, 28992, Note_on_c, 0, 64, 97
3, 29184, Note_off_c, 0, 64, 64
3, 29184, Note_on_c, 0, 60, 97
3, 29376, Note_off_c, 0, 60, 64
3, 29376, Note_on_c, 0, 62, 97
3, 29568, Note_off_c, 0, 62, 64
3, 29568, Note_on_c, 0, 60, 97
3, 29760, Note_off_c, 0, 60, 64
3, 29760, Note_on_c, 0, 62, 97
3, 29952, Note_off_c, 0, 62, 64
3, 29952, Note_on_c, 0, 64, 97
3, 30144, Note_off_c, 0, 64, 64
3, 30144, Note_on_c, 0, 62, 97
3, 30336, Note_off_c, 0, 62, 64
3, 30336, Note_on_c, 0, 60, 97
3, 30528, Note_off_c, 0, 60, 64
3, 30528, Note_on_c, 0, 59, 97
3, 30720, Note_off_c, 0, 59, 64
3, 30720, Note_on_c, 0, 57, 97
3, 31104, Note_off_c, 0, 57, 64
3, 31104, Note_on_c, 0, 64, 97
3, 31488, Note_off_c, 0, 64, 64
3, 31488, Note_on_c, 0, 63, 97
3, 31872, Note_off_c, 0, 63, 64
3, 31872, Note_on_c, 0, 72, 97
3, 32256, Note_off_c, 0, 72, 64
3, 32256, Note_on_c, 0, 71, 97
3, 32640, Note_off_c, 0, 71, 64
3, 32640, Note_on_c, 0, 63, 97
3, 33024, Note_off_c, 0, 63, 64
3, 33024, Note_on_c, 0, 64, 97
3, 33216, Note_off_c, 0, 64, 64
3, 33216, Note_on_c, 0, 62, 97
3, 33408, Note_off_c, 0, 62, 64
3, 33408, Note_on_c, 0, 64, 97
3, 33600, Note_off_c, 0, 64, 64
3, 33600, Note_on_c, 0, 67, 97
3, 33792, Note_off_c, 0, 67, 64
3, 33792, Note_on_c, 0, 64, 97
3, 33984, Note_off_c, 0, 64, 64
3, 33984, Note_on_c, 0, 62, 97
3, 34176, Note_off_c, 0, 62, 64
3, 34176, Note_on_c, 0, 64, 97
3, 34368, Note_off_c, 0, 64, 64
3, 34368, Note_on_c, 0, 67, 97
3, 34560, Note_off_c, 0, 67, 64
3, 34560, Note_on_c, 0, 61, 97
3, 34752, Note_off_c, 0, 61, 64
3, 34752, Note_on_c, 0, 66, 97
3, 34944, Note_off_c, 0, 66, 64
3, 34944, Note_on_c, 0, 64, 97
3, 35136, Note_off_c, 0, 64, 64
3, 35136, Note_on_c, 0, 66, 97
3, 35328, Note_off_c, 0, 66, 64
3, 35328, Note_on_c, 0, 62, 97
3, 35712, Note_off_c, 0, 62, 64
3, 35712, Note_on_c, 0, 66, 97
3, 36480, Note_off_c, 0, 66, 64
3, 36480, Note_on_c, 0, 67, 97
3, 36672, Note_off_c, 0, 67, 64
3, 36672, Note_on_c, 0, 66, 97
3, 36864, Note_off_c, 0, 66, 64
3, 36864, Note_on_c, 0, 64, 97
3, 37056, Note_off_c, 0, 64, 64
3, 37056, Note_on_c, 0, 66, 97
3, 37248, Note_off_c, 0, 66, 64
3, 37248, Note_on_c, 0, 62, 97
3, 37440, Note_off_c, 0, 62, 64
3, 37440, Note_on_c, 0, 64, 97
3, 37632, Note_off_c, 0, 64, 64
3, 37632, Note_on_c, 0, 66, 97
3, 37824, Note_off_c, 0, 66, 64
3, 37824, Note_on_c, 0, 64, 97
3, 38016, Note_off_c, 0, 64, 64
3, 38016, Note_on_c, 0, 66, 97
3, 38208, Note_off_c, 0, 66, 64
3, 38208, Note_on_c, 0, 67, 97
3, 38400, Note_off_c, 0, 67, 64
3, 38400, Note_on_c, 0, 64, 97
3, 38592, Note_off_c, 0, 64, 64
3, 38592, Note_on_c, 0, 62, 97
3, 38784, Note_off_c, 0, 62, 64
3, 38784, Note_on_c, 0, 64, 97
3, 38976, Note_off_c, 0, 64, 64
3, 38976, Note_on_c, 0, 67, 97
3, 39168, Note_off_c, 0, 67, 64
3, 39168, Note_on_c, 0, 61, 97
3, 39360, Note_off_c, 0, 61, 64
3, 39360, Note_on_c, 0, 66, 97
3, 39552, Note_off_c, 0, 66, 64
3, 39552, Note_on_c, 0, 64, 97
3, 39744, Note_off_c, 0, 64, 64
3, 39744, Note_on_c, 0, 66, 97
3, 39936, Note_off_c, 0, 66, 64
3, 39936, Note_on_c, 0, 59, 97
3, 40320, Note_off_c, 0, 59, 64
3, 40320, Note_on_c, 0, 71, 97
3, 40704, Note_off_c, 0, 71, 64
3, 40704, Note_on_c, 0, 71, 97
3, 41088, Note_off_c, 0, 71, 64
3, 41088, Note_on_c, 0, 71, 97
3, 41472, Note_off_c, 0, 71, 64
3, 41472, Note_on_c, 0, 71, 97
3, 41664, Note_off_c, 0, 71, 64
3, 41664, Note_on_c, 0, 70, 97
3, 41856, Note_off_c, 0, 70, 64
3, 41856, Note_on_c, 0, 68, 97
3, 42048, Note_off_c, 0, 68, 64
3, 42048, Note_on_c, 0, 70, 97
3, 42240, Note_off_c, 0, 70, 64
3, 42240, Note_on_c, 0, 71, 97
3, 43008, Note_off_c, 0, 71, 64
3, 47232, Note_on_c, 0, 73, 97
3, 48000, Note_off_c, 0, 73, 64
3, 48000, Note_on_c, 0, 71, 97
3, 48192, Note_off_c, 0, 71, 64
3, 48192, Note_on_c, 0, 70, 97
3, 48384, Note_off_c, 0, 70, 64
3, 48384, Note_on_c, 0, 71, 97
3, 48576, Note_off_c, 0, 71, 64
3, 48576, Note_on_c, 0, 70, 97
3, 48768, Note_off_c, 0, 70, 64
3, 48768, Note_on_c, 0, 68, 97
3, 48960, Note_off_c, 0, 68, 64
3, 48960, Note_on_c, 0, 66, 97
3, 49152, Note_off_c, 0, 66, 64
3, 49152, Note_on_c, 0, 71, 97
3, 49344, Note_off_c, 0, 71, 64
3, 49344, Note_on_c, 0, 73, 97
3, 49536, Note_off_c, 0, 73, 64
3, 49536, Note_on_c, 0, 71, 97
3, 49728, Note_off_c, 0, 71, 64
3, 49728, Note_on_c, 0, 66, 97
3, 49920, Note_off_c, 0, 66, 64
3, 49920, Note_on_c, 0, 62, 97
3, 50112, Note_off_c, 0, 62, 64
3, 50112, Note_on_c, 0, 66, 97
3, 50304, Note_off_c, 0, 66, 64
3, 50304, Note_on_c, 0, 71, 97
3, 50496, Note_off_c, 0, 71, 64
3, 50496, Note_on_c, 0, 73, 97
3, 50688, Note_off_c, 0, 73, 64
3, 50688, Note_on_c, 0, 74, 97
3, 50880, Note_off_c, 0, 74, 64
3, 50880, Note_on_c, 0, 73, 97
3, 51072, Note_off_c, 0, 73, 64
3, 51072, Note_on_c, 0, 71, 97
3, 51264, Note_off_c, 0, 71, 64
3, 51264, Note_on_c, 0, 73, 97
3, 51456, Note_off_c, 0, 73, 64
3, 51456, Note_on_c, 0, 74, 97
3, 51840, Note_off_c, 0, 74, 64
3, 51840, Note_on_c, 0, 67, 97
3, 52416, Note_off_c, 0, 67, 64
3, 52416, Note_on_c, 0, 66, 97
3, 52608, Note_off_c, 0, 66, 64
3, 52608, Note_on_c, 0, 64, 97
3, 52800, Note_off_c, 0, 64, 64
3, 52800, Note_on_c, 0, 66, 97
3, 52992, Note_off_c, 0, 66, 64
3, 52992, Note_on_c, 0, 71, 97
3, 53376, Note_off_c, 0, 71, 64
3, 53376, Note_on_c, 0, 64, 97
3, 53760, Note_off_c, 0, 64, 64
3, 53760, Note_on_c, 0, 69, 97
3, 54144, Note_off_c, 0, 69, 64
3, 54144, Note_on_c, 0, 62, 97
3, 54720, Note_off_c, 0, 62, 64
3, 54720, Note_on_c, 0, 61, 97
3, 54912, Note_off_c, 0, 61, 64
3, 54912, Note_on_c, 0, 59, 97
3, 55104, Note_off_c, 0, 59, 64
3, 55104, Note_on_c, 0, 61, 97
3, 55296, Note_off_c, 0, 61, 64
3, 55296, Note_on_c, 0, 66, 97
3, 55680, Note_off_c, 0, 66, 64
3, 55680, Note_on_c, 0, 59, 97
3, 56064, Note_off_c, 0, 59, 64
3, 56064, Note_on_c, 0, 64, 97
3, 56256, Note_off_c, 0, 64, 64
3, 56256, Note_on_c, 0, 62, 97
3, 56448, Note_off_c, 0, 62, 64
3, 56448, Note_on_c, 0, 64, 97
3, 56640, Note_off_c, 0, 64, 64
3, 56640, Note_on_c, 0, 67, 97
3, 56832, Note_off_c, 0, 67, 64
3, 56832, Note_on_c, 0, 64, 97
3, 57024, Note_off_c, 0, 64, 64
3, 57024, Note_on_c, 0, 62, 97
3, 57216, Note_off_c, 0, 62, 64
3, 57216, Note_on_c, 0, 64, 97
3, 57408, Note_off_c, 0, 64, 64
3, 57408, Note_on_c, 0, 67, 97
3, 57600, Note_off_c, 0, 67, 64
3, 57600, Note_on_c, 0, 61, 97
3, 57792, Note_off_c, 0, 61, 64
3, 57792, Note_on_c, 0, 66, 97
3, 57984, Note_off_c, 0, 66, 64
3, 57984, Note_on_c, 0, 64, 97
3, 58176, Note_off_c, 0, 64, 64
3, 58176, Note_on_c, 0, 66, 97
3, 58368, Note_off_c, 0, 66, 64
3, 58368, Note_on_c, 0, 62, 97
3, 59136, Note_off_c, 0, 62, 64
3, 61056, Note_on_c, 0, 71, 97
3, 61824, Note_off_c, 0, 71, 64
3, 61824, Note_on_c, 0, 69, 97
3, 62016, Note_off_c, 0, 69, 64
3, 62016, Note_on_c, 0, 67, 97
3, 62208, Note_off_c, 0, 67, 64
3, 62208, Note_on_c, 0, 69, 97
3, 62400, Note_off_c, 0, 69, 64
3, 62400, Note_on_c, 0, 67, 97
3, 62592, Note_off_c, 0, 67, 64
3, 62592, Note_on_c, 0, 66, 97
3, 62784, Note_off_c, 0, 66, 64
3, 62784, Note_on_c, 0, 64, 97
3, 62976, Note_off_c, 0, 64, 64
3, 62976, Note_on_c, 0, 72, 97
3, 63168, Note_off_c, 0, 72, 64
3, 63168, Note_on_c, 0, 71, 97
3, 63360, Note_off_c, 0, 71, 64
3, 63360, Note_on_c, 0, 72, 97
3, 63552, Note_off_c, 0, 72, 64
3, 63552, Note_on_c, 0, 76, 97
3, 63744, Note_off_c, 0, 76, 64
3, 63744, Note_on_c, 0, 72, 97
3, 63936, Note_off_c, 0, 72, 64
3, 63936, Note_on_c, 0, 71, 97
3, 64128, Note_off_c, 0, 71, 64
3, 64128, Note_on_c, 0, 72, 97
3, 64320, Note_off_c, 0, 72, 64
3, 64320, Note_on_c, 0, 76, 97
3, 64512, Note_off_c, 0, 76, 64
3, 64512, Note_on_c, 0, 71, 97
3, 64704, Note_off_c, 0, 71, 64
3, 64704, Note_on_c, 0, 76, 97
3, 64896, Note_off_c, 0, 76, 64
3, 64896, Note_on_c, 0, 74, 97
3, 65088, Note_off_c, 0, 74, 64
3, 65088, Note_on_c, 0, 76, 97
3, 65280, Note_off_c, 0, 76, 64
3, 65280, Note_on_c, 0, 69, 97
3, 65664, Note_off_c, 0, 69, 64
3, 65664, Note_on_c, 0, 69, 97
3, 66432, Note_off_c, 0, 69, 64
3, 66432, Note_on_c, 0, 67, 97
3, 66624, Note_off_c, 0, 67, 64
3, 66624, Note_on_c, 0, 66, 97
3, 66816, Note_off_c, 0, 66, 64
3, 66816, Note_on_c, 0, 67, 97
3, 67008, Note_off_c, 0, 67, 64
3, 67008, Note_on_c, 0, 66, 97
3, 67200, Note_off_c, 0, 66, 64
3, 67200, Note_on_c, 0, 64, 97
3, 67392, Note_off_c, 0, 64, 64
3, 67392, Note_on_c, 0, 62, 97
3, 67584, Note_off_c, 0, 62, 64
3, 67584, Note_on_c, 0, 71, 97
3, 67968, Note_off_c, 0, 71, 64
3, 72576, Note_on_c, 0, 71, 97
3, 73344, Note_off_c, 0, 71, 64
3, 73344, Note_on_c, 0, 69, 97
3, 73536, Note_off_c, 0, 69, 64
3, 73536, Note_on_c, 0, 68, 97
3, 73728, Note_off_c, 0, 68, 64
3, 73728, Note_on_c, 0, 69, 97
3, 73920, Note_off_c, 0, 69, 64
3, 73920, Note_on_c, 0, 68, 97
3, 74112, Note_off_c, 0, 68, 64
3, 74112, Note_on_c, 0, 66, 97
3, 74304, Note_off_c, 0, 66, 64
3, 74304, Note_on_c, 0, 64, 97
3, 74496, Note_off_c, 0, 64, 64
3, 74496, Note_on_c, 0, 69, 97
3, 74688, Note_off_c, 0, 69, 64
3, 74688, Note_on_c, 0, 71, 97
3, 74880, Note_off_c, 0, 71, 64
3, 74880, Note_on_c, 0, 69, 97
3, 75072, Note_off_c, 0, 69, 64
3, 75072, Note_on_c, 0, 64, 97
3, 75264, Note_off_c, 0, 64, 64
3, 75264, Note_on_c, 0, 60, 97
3, 75456, Note_off_c, 0, 60, 64
3, 75456, Note_on_c, 0, 64, 97
3, 75648, Note_off_c, 0, 64, 64
3, 75648, Note_on_c, 0, 69, 97
3, 75840, Note_off_c, 0, 69, 64
3, 75840, Note_on_c, 0, 71, 97
3, 76032, Note_off_c, 0, 71, 64
3, 76032, Note_on_c, 0, 72, 97
3, 76224, Note_off_c, 0, 72, 64
3, 76224, Note_on_c, 0, 71, 97
3, 76416, Note_off_c, 0, 71, 64
3, 76416, Note_on_c, 0, 69, 97
3, 76608, Note_off_c, 0, 69, 64
3, 76608, Note_on_c, 0, 71, 97
3, 76800, Note_off_c, 0, 71, 64
3, 76800, Note_on_c, 0, 72, 97
3, 77184, Note_off_c, 0, 72, 64
3, 77184, Note_on_c, 0, 65, 97
3, 77760, Note_off_c, 0, 65, 64
3, 77760, Note_on_c, 0, 64, 97
3, 77952, Note_off_c, 0, 64, 64
3, 77952, Note_on_c, 0, 62, 97
3, 78144, Note_off_c, 0, 62, 64
3, 78144, Note_on_c, 0, 64, 97
3, 78336, Note_off_c, 0, 64, 64
3, 78336, Note_on_c, 0, 69, 97
3, 78720, Note_off_c, 0, 69, 64
3, 78720, Note_on_c, 0, 62, 97
3, 79104, Note_off_c, 0, 62, 64
3, 79104, Note_on_c, 0, 67, 97
3, 79488, Note_off_c, 0, 67, 64
3, 79488, Note_on_c, 0, 60, 97
3, 80064, Note_off_c, 0, 60, 64
3, 80064, Note_on_c, 0, 59, 97
3, 80256, Note_off_c, 0, 59, 64
3, 80256, Note_on_c, 0, 57, 97
3, 80448, Note_off_c, 0, 57, 64
3, 80448, Note_on_c, 0, 59, 97
3, 80640, Note_off_c, 0, 59, 64
3, 80640, Note_on_c, 0, 64, 97
3, 81024, Note_off_c, 0, 64, 64
3, 81024, Note_on_c, 0, 57, 97
3, 81408, Note_off_c, 0, 57, 64
3, 81408, Note_on_c, 0, 62, 97
3, 81600, Note_off_c, 0, 62, 64
3, 81600, Note_on_c, 0, 60, 97
3, 81792, Note_off_c, 0, 60, 64
3, 81792, Note_on_c, 0, 62, 97
3, 81984, Note_off_c, 0, 62, 64
3, 81984, Note_on_c, 0, 65, 97
3, 82176, Note_off_c, 0, 65, 64
3, 82176, Note_on_c, 0, 62, 97
3, 82368, Note_off_c, 0, 62, 64
3, 82368, Note_on_c, 0, 60, 97
3, 82560, Note_off_c, 0, 60, 64
3, 82560, Note_on_c, 0, 62, 97
3, 82752, Note_off_c, 0, 62, 64
3, 82752, Note_on_c, 0, 65, 97
3, 82944, Note_off_c, 0, 65, 64
3, 82944, Note_on_c, 0, 59, 97
3, 83136, Note_off_c, 0, 59, 64
3, 83136, Note_on_c, 0, 64, 97
3, 83328, Note_off_c, 0, 64, 64
3, 83328, Note_on_c, 0, 62, 97
3, 83520, Note_off_c, 0, 62, 64
3, 83520, Note_on_c, 0, 64, 97
3, 83712, Note_off_c, 0, 64, 64
3, 83712, Note_on_c, 0, 57, 97
3, 84096, Note_off_c, 0, 57, 64
3, 84096, Note_on_c, 0, 69, 97
3, 84480, Note_off_c, 0, 69, 64
3, 84480, Note_on_c, 0, 69, 97
3, 84864, Note_off_c, 0, 69, 64
3, 84864, Note_on_c, 0, 69, 97
3, 85248, Note_off_c, 0, 69, 64
3, 85248, Note_on_c, 0, 69, 97
3, 85440, Note_off_c, 0, 69, 64
3, 85440, Note_on_c, 0, 68, 97
3, 85632, Note_off_c, 0, 68, 64
3, 85632, Note_on_c, 0, 66, 97
3, 85824, Note_off_c, 0, 66, 64
3, 85824, Note_on_c, 0, 68, 97
3, 86016, Note_off_c, 0, 68, 64
3, 86016, Note_on_c, 0, 69, 97
3, 86208, Note_off_c, 0, 69, 64
3, 86208, Note_on_c, 0, 71, 97
3, 86400, Note_off_c, 0, 71, 64
3, 86400, Note_on_c, 0, 72, 97
3, 86592, Note_off_c, 0, 72, 64
3, 86592, Note_on_c, 0, 74, 97
3, 86784, Note_off_c, 0, 74, 64
3, 86784, Note_on_c, 0, 71, 97
3, 86976, Note_off_c, 0, 71, 64
3, 86976, Note_on_c, 0, 72, 97
3, 87168, Note_off_c, 0, 72, 64
3, 87168, Note_on_c, 0, 71, 97
3, 87360, Note_off_c, 0, 71, 64
3, 87360, Note_on_c, 0, 72, 97
3, 87552, Note_off_c, 0, 72, 64
3, 87552, Note_on_c, 0, 74, 97
3, 87744, Note_off_c, 0, 74, 64
3, 87744, Note_on_c, 0, 72, 97
3, 87936, Note_off_c, 0, 72, 64
3, 87936, Note_on_c, 0, 71, 97
3, 88128, Note_off_c, 0, 71, 64
3, 88128, Note_on_c, 0, 69, 97
3, 88320, Note_off_c, 0, 69, 64
3, 88320, Note_on_c, 0, 67, 97
3, 88512, Note_off_c, 0, 67, 64
3, 88512, Note_on_c, 0, 65, 97
3, 88704, Note_off_c, 0, 65, 64
3, 88704, Note_on_c, 0, 67, 97
3, 88896, Note_off_c, 0, 67, 64
3, 88896, Note_on_c, 0, 69, 97
3, 89088, Note_off_c, 0, 69, 64
3, 89088, Note_on_c, 0, 65, 97
3, 89280, Note_off_c, 0, 65, 64
3, 89280, Note_on_c, 0, 67, 97
3, 89472, Note_off_c, 0, 67, 64
3, 89472, Note_on_c, 0, 65, 97
3, 89664, Note_off_c, 0, 65, 64
3, 89664, Note_on_c, 0, 67, 97
3, 89856, Note_off_c, 0, 67, 64
3, 89856, Note_on_c, 0, 69, 97
3, 90048, Note_off_c, 0, 69, 64
3, 90048, Note_on_c, 0, 67, 97
3, 90240, Note_off_c, 0, 67, 64
3, 90240, Note_on_c, 0, 65, 97
3, 90432, Note_off_c, 0, 65, 64
3, 90432, Note_on_c, 0, 64, 97
3, 90624, Note_off_c, 0, 64, 64
3, 90624, Note_on_c, 0, 62, 97
3, 90816, Note_off_c, 0, 62, 64
3, 90816, Note_on_c, 0, 64, 97
3, 91008, Note_off_c, 0, 64, 64
3, 91008, Note_on_c, 0, 65, 97
3, 91200, Note_off_c, 0, 65, 64
3, 91200, Note_on_c, 0, 62, 97
3, 91392, Note_off_c, 0, 62, 64
3, 91392, Note_on_c, 0, 56, 97
3, 91776, Note_off_c, 0, 56, 64
3, 91776, Note_on_c, 0, 65, 97
3, 92160, Note_off_c, 0, 65, 64
3, 92160, Note_on_c, 0, 64, 97
3, 92544, Note_off_c, 0, 64, 64
3, 92544, Note_on_c, 0, 56, 97
3, 92928, Note_off_c, 0, 56, 64
3, 92928, Note_on_c, 0, 57, 97
3, 93312, Note_off_c, 0, 57, 64
3, 93312, Note_on_c, 0, 65, 97
3, 94080, Note_off_c, 0, 65, 64
3, 94080, Note_on_c, 0, 64, 97
3, 94272, Note_off_c, 0, 64, 64
3, 94272, Note_on_c, 0, 62, 97
3, 94464, Note_off_c, 0, 62, 64
3, 94464, Note_on_c, 0, 64, 97
3, 94656, Note_off_c, 0, 64, 64
3, 94656, Note_on_c, 0, 62, 97
3, 94848, Note_off_c, 0, 62, 64
3, 94848, Note_on_c, 0, 60, 97
3, 95040, Note_off_c, 0, 60, 64
3, 95040, Note_on_c, 0, 59, 97
3, 95232, Note_off_c, 0, 59, 64
3, 95232, Note_on_c, 0, 60, 97
3, 97920, Note_off_c, 0, 60, 64
3, 97920, Note_on_c, 0, 72, 97
3, 98688, Note_off_c, 0, 72, 64
3, 98688, Note_on_c, 0, 71, 97
3, 98880, Note_off_c, 0, 71, 64
3, 98880, Note_on_c, 0, 69, 97
3, 99072, Note_off_c, 0, 69, 64
3, 99072, Note_on_c, 0, 71, 97
3, 99264, Note_off_c, 0, 71, 64
3, 99264, Note_on_c, 0, 69, 97
3, 99456, Note_off_c, 0, 69, 64
3, 99456, Note_on_c, 0, 67, 97
3, 99648, Note_off_c, 0, 67, 64
3, 99648, Note_on_c, 0, 66, 97
3, 99840, Note_off_c, 0, 66, 64
3, 99840, Note_on_c, 0, 67, 97
3, 100032, Note_off_c, 0, 67, 64
3, 100032, Note_on_c, 0, 66, 97
3, 100224, Note_off_c, 0, 66, 64
3, 100224, Note_on_c, 0, 67, 97
3, 100416, Note_off_c, 0, 67, 64
3, 100416, Note_on_c, 0, 71, 97
3, 100608, Note_off_c, 0, 71, 64
3, 100608, Note_on_c, 0, 64, 97
3, 100800, Note_off_c, 0, 64, 64
3, 100800, Note_on_c, 0, 63, 97
3, 100992, Note_off_c, 0, 63, 64
3, 100992, Note_on_c, 0, 64, 97
3, 101184, Note_off_c, 0, 64, 64
3, 101184, Note_on_c, 0, 67, 97
3, 101376, Note_off_c, 0, 67, 64
3, 101376, Note_on_c, 0, 66, 97
3, 101568, Note_off_c, 0, 66, 64
3, 101568, Note_on_c, 0, 64, 97
3, 101760, Note_off_c, 0, 64, 64
3, 101760, Note_on_c, 0, 63, 97
3, 101952, Note_off_c, 0, 63, 64
3, 101952, Note_on_c, 0, 64, 97
3, 102144, Note_off_c, 0, 64, 64
3, 102144, Note_on_c, 0, 63, 97
3, 102528, Note_off_c, 0, 63, 64
3, 102528, Note_on_c, 0, 66, 97
3, 103296, Note_off_c, 0, 66, 64
3, 103296, Note_on_c, 0, 64, 97
3, 103488, Note_off_c, 0, 64, 64
3, 103488, Note_on_c, 0, 63, 97
3, 103680, Note_off_c, 0, 63, 64
3, 103680, Note_on_c, 0, 64, 97
3, 103872, Note_off_c, 0, 64, 64
3, 103872, Note_on_c, 0, 63, 97
3, 104064, Note_off_c, 0, 63, 64
3, 104064, Note_on_c, 0, 61, 97
3, 104256, Note_off_c, 0, 61, 64
3, 104256, Note_on_c, 0, 59, 97
3, 104448, Note_off_c, 0, 59, 64
3, 104448, Note_on_c, 0, 67, 97
3, 104640, Note_off_c, 0, 67, 64
3, 104640, Note_on_c, 0, 66, 97
3, 104832, Note_off_c, 0, 66, 64
3, 104832, Note_on_c, 0, 67, 97
3, 105024, Note_off_c, 0, 67, 64
3, 105024, Note_on_c, 0, 71, 97
3, 105216, Note_off_c, 0, 71, 64
3, 105216, Note_on_c, 0, 67, 97
3, 105408, Note_off_c, 0, 67, 64
3, 105408, Note_on_c, 0, 66, 97
3, 105600, Note_off_c, 0, 66, 64
3, 105600, Note_on_c, 0, 67, 97
3, 105792, Note_off_c, 0, 67, 64
3, 105792, Note_on_c, 0, 71, 97
3, 105984, Note_off_c, 0, 71, 64
3, 105984, Note_on_c, 0, 66, 97
3, 106176, Note_off_c, 0, 66, 64
3, 106176, Note_on_c, 0, 71, 97
3, 106368, Note_off_c, 0, 71, 64
3, 106368, Note_on_c, 0, 69, 97
3, 106560, Note_off_c, 0, 69, 64
3, 106560, Note_on_c, 0, 71, 97
3, 106752, Note_off_c, 0, 71, 64
3, 106752, Note_on_c, 0, 64, 97
3, 107136, Note_off_c, 0, 64, 64
3, 107136, Note_on_c, 0, 64, 97
3, 107904, Note_off_c, 0, 64, 64
3, 107904, Note_on_c, 0, 62, 97
3, 108096, Note_off_c, 0, 62, 64
3, 108096, Note_on_c, 0, 60, 97
3, 108288, Note_off_c, 0, 60, 64
3, 108288, Note_on_c, 0, 62, 97
3, 108480, Note_off_c, 0, 62, 64
3, 108480, Note_on_c, 0, 60, 97
3, 108672, Note_off_c, 0, 60, 64
3, 108672, Note_on_c, 0, 59, 97
3, 108864, Note_off_c, 0, 59, 64
3, 108864, Note_on_c, 0, 57, 97
3, 109056, Note_off_c, 0, 57, 64
3, 109056, Note_on_c, 0, 66, 97
3, 109248, Note_off_c, 0, 66, 64
3, 109248, Note_on_c, 0, 64, 97
3, 109440, Note_off_c, 0, 64, 64
3, 109440, Note_on_c, 0, 66, 97
3, 109632, Note_off_c, 0, 66, 64
3, 109632, Note_on_c, 0, 69, 97
3, 109824, Note_off_c, 0, 69, 64
3, 109824, Note_on_c, 0, 66, 97
3, 110016, Note_off_c, 0, 66, 64
3, 110016, Note_on_c, 0, 64, 97
3, 110208, Note_off_c, 0, 64, 64
3, 110208, Note_on_c, 0, 66, 97
3, 110400, Note_off_c, 0, 66, 64
3, 110400, Note_on_c, 0, 69, 97
3, 110592, Note_off_c, 0, 69, 64
3, 110592, Note_on_c, 0, 64, 97
3, 110784, Note_off_c, 0, 64, 64
3, 110784, Note_on_c, 0, 69, 97
3, 110976, Note_off_c, 0, 69, 64
3, 110976, Note_on_c, 0, 67, 97
3, 111168, Note_off_c, 0, 67, 64
3, 111168, Note_on_c, 0, 69, 97
3, 111360, Note_off_c, 0, 69, 64
3, 111360, Note_on_c, 0, 62, 97
3, 111744, Note_off_c, 0, 62, 64
3, 111744, Note_on_c, 0, 62, 97
3, 112512, Note_off_c, 0, 62, 64
3, 112512, Note_on_c, 0, 60, 97
3, 112704, Note_off_c, 0, 60, 64
3, 112704, Note_on_c, 0, 59, 97
3, 112896, Note_off_c, 0, 59, 64
3, 112896, Note_on_c, 0, 60, 97
3, 113088, Note_off_c, 0, 60, 64
3, 113088, Note_on_c, 0, 59, 97
3, 113280, Note_off_c, 0, 59, 64
3, 113280, Note_on_c, 0, 57, 97
3, 113472, Note_off_c, 0, 57, 64
3, 113472, Note_on_c, 0, 55, 97
3, 113664, Note_off_c, 0, 55, 64
3, 113664, Note_on_c, 0, 64, 97
3, 118656, Note_off_c, 0, 64, 64
3, 120960, Note_on_c, 0, 64, 97
3, 121728, Note_off_c, 0, 64, 64
3, 121728, Note_on_c, 0, 62, 97
3, 121920, Note_off_c, 0, 62, 64
3, 121920, Note_on_c, 0, 60, 97
3, 122112, Note_off_c, 0, 60, 64
3, 122112, Note_on_c, 0, 62, 97
3, 122304, Note_off_c, 0, 62, 64
3, 122304, Note_on_c, 0, 60, 97
3, 122496, Note_off_c, 0, 60, 64
3, 122496, Note_on_c, 0, 59, 97
3, 122688, Note_off_c, 0, 59, 64
3, 122688, Note_on_c, 0, 57, 97
3, 122880, Note_off_c, 0, 57, 64
3, 122880, Note_on_c, 0, 63, 97
3, 123072, Note_off_c, 0, 63, 64
3, 123072, Note_on_c, 0, 64, 97
3, 123264, Note_off_c, 0, 64, 64
3, 123264, Note_on_c, 0, 66, 97
3, 124032, Note_off_c, 0, 66, 64
3, 124032, Note_on_c, 0, 64, 97
3, 124224, Note_off_c, 0, 64, 64
3, 124224, Note_on_c, 0, 63, 97
3, 124416, Note_off_c, 0, 63, 64
3, 124416, Note_on_c, 0, 64, 97
3, 124608, Note_off_c, 0, 64, 64
3, 124608, Note_on_c, 0, 63, 97
3, 124800, Note_off_c, 0, 63, 64
3, 124800, Note_on_c, 0, 61, 97
3, 124992, Note_off_c, 0, 61, 64
3, 124992, Note_on_c, 0, 59, 97
3, 125184, Note_off_c, 0, 59, 64
3, 125184, Note_on_c, 0, 64, 97
3, 125376, Note_off_c, 0, 64, 64
3, 125376, Note_on_c, 0, 66, 97
3, 125568, Note_off_c, 0, 66, 64
3, 125568, Note_on_c, 0, 64, 97
3, 125760, Note_off_c, 0, 64, 64
3, 125760, Note_on_c, 0, 59, 97
3, 125952, Note_off_c, 0, 59, 64
3, 125952, Note_on_c, 0, 55, 97
3, 126144, Note_off_c, 0, 55, 64
3, 126144, Note_on_c, 0, 59, 97
3, 126336, Note_off_c, 0, 59, 64
3, 126336, Note_on_c, 0, 64, 97
3, 126528, Note_off_c, 0, 64, 64
3, 126528, Note_on_c, 0, 66, 97
3, 126720, Note_off_c, 0, 66, 64
3, 126720, Note_on_c, 0, 67, 97
3, 126912, Note_off_c, 0, 67, 64
3, 126912, Note_on_c, 0, 66, 97
3, 127104, Note_off_c, 0, 66, 64
3, 127104, Note_on_c, 0, 64, 97
3, 127296, Note_off_c, 0, 64, 64
3, 127296, Note_on_c, 0, 66, 97
3, 127488, Note_off_c, 0, 66, 64
3, 127488, Note_on_c, 0, 67, 97
3, 130560, Note_off_c, 0, 67, 64
3, 130560, Note_on_c, 0, 66, 97
3, 131328, Note_off_c, 0, 66, 64
3, 131328, Note_on_c, 0, 64, 97
3, 132288, Note_off_c, 0, 64, 64
3, 132288, Note_on_c, 0, 63, 97
3, 132480, Note_off_c, 0, 63, 64
3, 132480, Note_on_c, 0, 64, 97
3, 132672, Note_off_c, 0, 64, 64
3, 132672, Note_on_c, 0, 67, 97
3, 132864, Note_off_c, 0, 67, 64
3, 132864, Note_on_c, 0, 61, 97
3, 133056, Note_off_c, 0, 61, 64
3, 133056, Note_on_c, 0, 59, 97
3, 133248, Note_off_c, 0, 59, 64
3, 133248, Note_on_c, 0, 61, 97
3, 133440, Note_off_c, 0, 61, 64
3, 133440, Note_on_c, 0, 64, 97
3, 133632, Note_off_c, 0, 64, 64
3, 133632, Note_on_c, 0, 58, 97
3, 133824, Note_off_c, 0, 58, 64
3, 133824, Note_on_c, 0, 64, 97
3, 134016, Note_off_c, 0, 64, 64
3, 134016, Note_on_c, 0, 63, 97
3, 134208, Note_off_c, 0, 63, 64
3, 134208, Note_on_c, 0, 61, 97
3, 134400, Note_off_c, 0, 61, 64
3, 134400, Note_on_c, 0, 63, 97
3, 134592, Note_off_c, 0, 63, 64
3, 134592, Note_on_c, 0, 61, 97
3, 134784, Note_off_c, 0, 61, 64
3, 134784, Note_on_c, 0, 63, 97
3, 134976, Note_off_c, 0, 63, 64
3, 134976, Note_on_c, 0, 66, 97
3, 135168, Note_off_c, 0, 66, 64
3, 135168, Note_on_c, 0, 60, 97
3, 135360, Note_off_c, 0, 60, 64
3, 135360, Note_on_c, 0, 59, 97
3, 135552, Note_off_c, 0, 59, 64
3, 135552, Note_on_c, 0, 60, 97
3, 135744, Note_off_c, 0, 60, 64
3, 135744, Note_on_c, 0, 64, 97
3, 135936, Note_off_c, 0, 64, 64
3, 135936, Note_on_c, 0, 57, 97
3, 136128, Note_off_c, 0, 57, 64
3, 136128, Note_on_c, 0, 55, 97
3, 136320, Note_off_c, 0, 55, 64
3, 136320, Note_on_c, 0, 57, 97
3, 136512, Note_off_c, 0, 57, 64
3, 136512, Note_on_c, 0, 60, 97
3, 136704, Note_off_c, 0, 60, 64
3, 136704, Note_on_c, 0, 54, 97
3, 137472, Note_off_c, 0, 54, 64
3, 137856, Note_on_c, 0, 54, 97
3, 138240, Note_off_c, 0, 54, 64
3, 138240, Note_on_c, 0, 55, 97
3, 138624, Note_off_c, 0, 55, 64
3, 138624, Note_on_c, 0, 57, 97
3, 139008, Note_off_c, 0, 57, 64
3, 139008, Note_on_c, 0, 59, 97
3, 139392, Note_off_c, 0, 59, 64
3, 139392, Note_on_c, 0, 60, 97
3, 139776, Note_off_c, 0, 60, 64
3, 139776, Note_on_c, 0, 54, 97
3, 140928, Note_off_c, 0, 54, 64
3, 140928, Note_on_c, 0, 52, 97
3, 141312, Note_off_c, 0, 52, 64
3, 141312, Note_on_c, 0, 52, 97
3, 142080, Note_off_c, 0, 52, 64
3, 144000, Note_on_c, 0, 67, 97
3, 144768, Note_off_c, 0, 67, 64
3, 144768, Note_on_c, 0, 66, 97
3, 144960, Note_off_c, 0, 66, 64
3, 144960, Note_on_c, 0, 64, 97
3, 145152, Note_off_c, 0, 64, 64
3, 145152, Note_on_c, 0, 66, 97
3, 145344, Note_off_c, 0, 66, 64
3, 145344, Note_on_c, 0, 64, 97
3, 145536, Note_off_c, 0, 64, 64
3, 145536, Note_on_c, 0, 63, 97
3, 145728, Note_off_c, 0, 63, 64
3, 145728, Note_on_c, 0, 61, 97
3, 145920, Note_off_c, 0, 61, 64
3, 145920, Note_on_c, 0, 63, 97
3, 147072, Note_off_c, 0, 63, 64
3, 147072, Note_on_c, 0, 59, 97
3, 147456, Note_off_c, 0, 59, 64
3, 147456, Note_on_c, 0, 64, 97
3, 147840, Note_off_c, 0, 64, 64
3, 147840, Note_on_c, 0, 63, 97
3, 148224, Note_off_c, 0, 63, 64
3, 148224, Note_on_c, 0, 64, 97
3, 148608, Note_off_c, 0, 64, 64
3, 148608, Note_on_c, 0, 66, 97
3, 148992, Note_off_c, 0, 66, 64
3, 148992, Note_on_c, 0, 63, 97
3, 150144, Note_off_c, 0, 63, 64
3, 150144, Note_on_c, 0, 64, 97
3, 150528, Note_off_c, 0, 64, 64
3, 150528, Note_on_c, 0, 64, 97
3, 152832, Note_off_c, 0, 64, 64
3, 162432, Note_on_c, 0, 66, 97
3, 162816, Note_off_c, 0, 66, 64
3, 162816, Note_on_c, 0, 71, 97
3, 163200, Note_off_c, 0, 71, 64
3, 163200, Note_on_c, 0, 76, 97
3, 163584, Note_off_c, 0, 76, 64
3, 163584, Note_on_c, 0, 73, 97
3, 163968, Note_off_c, 0, 73, 64
3, 163968, Note_on_c, 0, 64, 97
3, 164352, Note_off_c, 0, 64, 64
3, 164352, Note_on_c, 0, 69, 97
3, 164736, Note_off_c, 0, 69, 64
3, 164736, Note_on_c, 0, 74, 97
3, 165120, Note_off_c, 0, 74, 64
3, 165120, Note_on_c, 0, 71, 97
3, 165504, Note_off_c, 0, 71, 64
3, 165504, Note_on_c, 0, 62, 97
3, 165888, Note_off_c, 0, 62, 64
3, 165888, Note_on_c, 0, 67, 97
3, 166272, Note_off_c, 0, 67, 64
3, 166272, Note_on_c, 0, 72, 97
3, 166656, Note_off_c, 0, 72, 64
3, 166656, Note_on_c, 0, 70, 97
3, 166848, Note_off_c, 0, 70, 64
3, 166848, Note_on_c, 0, 76, 97
3, 167040, Note_off_c, 0, 76, 64
3, 167040, Note_on_c, 0, 74, 97
3, 167232, Note_off_c, 0, 74, 64
3, 167232, Note_on_c, 0, 73, 97
3, 167424, Note_off_c, 0, 73, 64
3, 167424, Note_on_c, 0, 73, 97
3, 167520, Note_off_c, 0, 73, 64
3, 167520, Note_on_c, 0, 74, 97
3, 167616, Note_off_c, 0, 74, 64
3, 167616, Note_on_c, 0, 73, 97
3, 168000, Note_off_c, 0, 73, 64
3, 168000, Note_on_c, 0, 71, 97
3, 168192, Note_off_c, 0, 71, 64
3, 168192, Note_on_c, 0, 71, 97
3, 168384, Note_off_c, 0, 71, 64
3, 168384, Note_on_c, 0, 71, 97
3, 168480, Note_off_c, 0, 71, 64
3, 168480, Note_on_c, 0, 73, 97
3, 168576, Note_off_c, 0, 73, 64
3, 168576, Note_on_c, 0, 74, 97
3, 168768, Note_off_c, 0, 74, 64
3, 168768, Note_on_c, 0, 71, 97
3, 168960, Note_off_c, 0, 71, 64
3, 168960, Note_on_c, 0, 64, 97
3, 169152, Note_off_c, 0, 64, 64
3, 169152, Note_on_c, 0, 71, 97
3, 169344, Note_off_c, 0, 71, 64
3, 169344, Note_on_c, 0, 80, 97
3, 169920, Note_off_c, 0, 80, 64
3, 169920, Note_on_c, 0, 69, 97
3, 170016, Note_off_c, 0, 69, 64
3, 170016, Note_on_c, 0, 71, 97
3, 170112, Note_off_c, 0, 71, 64
3, 170112, Note_on_c, 0, 73, 97
3, 170304, Note_off_c, 0, 73, 64
3, 170304, Note_on_c, 0, 69, 97
3, 170496, Note_off_c, 0, 69, 64
3, 170496, Note_on_c, 0, 62, 97
3, 170688, Note_off_c, 0, 62, 64
3, 170688, Note_on_c, 0, 69, 97
3, 170880, Note_off_c, 0, 69, 64
3, 170880, Note_on_c, 0, 78, 97
3, 171648, Note_off_c, 0, 78, 64
3, 171648, Note_on_c, 0, 77, 97
3, 172032, Note_off_c, 0, 77, 64
3, 172224, Note_on_c, 0, 80, 97
3, 172320, Note_off_c, 0, 80, 64
3, 172320, Note_on_c, 0, 78, 97
3, 172416, Note_off_c, 0, 78, 64
3, 172416, Note_on_c, 0, 80, 97
3, 172608, Note_off_c, 0, 80, 64
3, 172608, Note_on_c, 0, 77, 97
3, 172800, Note_off_c, 0, 77, 64
3, 172800, Note_on_c, 0, 73, 97
3, 173376, Note_off_c, 0, 73, 64
3, 173376, Note_on_c, 0, 74, 97
3, 173568, Note_off_c, 0, 74, 64
3, 173568, Note_on_c, 0, 68, 97
3, 174144, Note_off_c, 0, 68, 64
3, 174144, Note_on_c, 0, 66, 97
3, 174336, Note_off_c, 0, 66, 64
3, 174336, Note_on_c, 0, 66, 97
3, 174528, Note_off_c, 0, 66, 64
3, 174528, Note_on_c, 0, 66, 97
3, 174624, Note_off_c, 0, 66, 64
3, 174624, Note_on_c, 0, 68, 97
3, 174720, Note_off_c, 0, 68, 64
3, 174720, Note_on_c, 0, 69, 97
3, 174912, Note_off_c, 0, 69, 64
3, 174912, Note_on_c, 0, 66, 97
3, 175104, Note_off_c, 0, 66, 64
3, 175104, Note_on_c, 0, 59, 97
3, 175296, Note_off_c, 0, 59, 64
3, 175296, Note_on_c, 0, 66, 97
3, 175488, Note_off_c, 0, 66, 64
3, 175488, Note_on_c, 0, 74, 97
3, 176064, Note_off_c, 0, 74, 64
3, 176064, Note_on_c, 0, 64, 97
3, 176160, Note_off_c, 0, 64, 64
3, 176160, Note_on_c, 0, 66, 97
3, 176256, Note_off_c, 0, 66, 64
3, 176256, Note_on_c, 0, 68, 97
3, 176448, Note_off_c, 0, 68, 64
3, 176448, Note_on_c, 0, 64, 97
3, 176640, Note_off_c, 0, 64, 64
3, 176640, Note_on_c, 0, 57, 97
3, 176832, Note_off_c, 0, 57, 64
3, 176832, Note_on_c, 0, 64, 97
3, 177024, Note_off_c, 0, 64, 64
3, 177024, Note_on_c, 0, 73, 97
3, 177600, Note_off_c, 0, 73, 64
3, 177600, Note_on_c, 0, 62, 97
3, 177696, Note_off_c, 0, 62, 64
3, 177696, Note_on_c, 0, 64, 97
3, 177792, Note_off_c, 0, 64, 64
3, 177792, Note_on_c, 0, 66, 97
3, 177984, Note_off_c, 0, 66, 64
3, 177984, Note_on_c, 0, 62, 97
3, 178176, Note_off_c, 0, 62, 64
3, 178176, Note_on_c, 0, 55, 97
3, 178368, Note_off_c, 0, 55, 64
3, 178368, Note_on_c, 0, 62, 97
3, 178560, Note_off_c, 0, 62, 64
3, 178560, Note_on_c, 0, 71, 97
3, 179136, Note_off_c, 0, 71, 64
3, 179136, Note_on_c, 0, 65, 97
3, 179328, Note_off_c, 0, 65, 64
3, 179328, Note_on_c, 0, 66, 97
3, 179520, Note_off_c, 0, 66, 64
3, 179520, Note_on_c, 0, 68, 97
3, 179712, Note_off_c, 0, 68, 64
3, 179712, Note_on_c, 0, 65, 97
3, 179808, Note_off_c, 0, 65, 64
3, 179808, Note_on_c, 0, 66, 97
3, 179904, Note_off_c, 0, 66, 64
3, 179904, Note_on_c, 0, 65, 97
3, 180288, Note_off_c, 0, 65, 64
3, 180288, Note_on_c, 0, 66, 97
3, 180480, Note_off_c, 0, 66, 64
3, 180480, Note_on_c, 0, 66, 97
3, 180864, Note_off_c, 0, 66, 64
3, 180864, Note_on_c, 0, 61, 97
3, 181248, Note_off_c, 0, 61, 64
3, 181248, Note_on_c, 0, 66, 97
3, 181632, Note_off_c, 0, 66, 64
3, 181632, Note_on_c, 0, 71, 97
3, 182016, Note_off_c, 0, 71, 64
3, 182016, Note_on_c, 0, 68, 97
3, 182400, Note_off_c, 0, 68, 64
3, 182400, Note_on_c, 0, 59, 97
3, 182784, Note_off_c, 0, 59, 64
3, 182784, Note_on_c, 0, 64, 97
3, 183168, Note_off_c, 0, 64, 64
3, 183168, Note_on_c, 0, 69, 97
3, 183552, Note_off_c, 0, 69, 64
3, 183552, Note_on_c, 0, 66, 97
3, 183936, Note_off_c, 0, 66, 64
3, 183936, Note_on_c, 0, 57, 97
3, 184320, Note_off_c, 0, 57, 64
3, 184320, Note_on_c, 0, 62, 97
3, 184704, Note_off_c, 0, 62, 64
3, 184704, Note_on_c, 0, 67, 97
3, 185088, Note_off_c, 0, 67, 64
3, 185088, Note_on_c, 0, 65, 97
3, 185280, Note_off_c, 0, 65, 64
3, 185280, Note_on_c, 0, 71, 97
3, 185472, Note_off_c, 0, 71, 64
3, 185472, Note_on_c, 0, 69, 97
3, 185664, Note_off_c, 0, 69, 64
3, 185664, Note_on_c, 0, 68, 97
3, 185856, Note_off_c, 0, 68, 64
3, 185856, Note_on_c, 0, 68, 97
3, 185952, Note_off_c, 0, 68, 64
3, 185952, Note_on_c, 0, 69, 97
3, 186048, Note_off_c, 0, 69, 64
3, 186048, Note_on_c, 0, 68, 97
3, 186432, Note_off_c, 0, 68, 64
3, 186432, Note_on_c, 0, 66, 97
3, 186624, Note_off_c, 0, 66, 64
3, 186624, Note_on_c, 0, 66, 97
3, 186816, Note_off_c, 0, 66, 64
3, 186816, Note_on_c, 0, 66, 97
3, 186912, Note_off_c, 0, 66, 64
3, 186912, Note_on_c, 0, 68, 97
3, 187008, Note_off_c, 0, 68, 64
3, 187008, Note_on_c, 0, 69, 97
3, 187200, Note_off_c, 0, 69, 64
3, 187200, Note_on_c, 0, 66, 97
3, 187392, Note_off_c, 0, 66, 64
3, 187392, Note_on_c, 0, 71, 97
3, 187584, Note_off_c, 0, 71, 64
3, 187584, Note_on_c, 0, 66, 97
3, 187776, Note_off_c, 0, 66, 64
3, 187776, Note_on_c, 0, 73, 97
3, 187968, Note_off_c, 0, 73, 64
3, 187968, Note_on_c, 0, 66, 97
3, 188160, Note_off_c, 0, 66, 64
3, 188160, Note_on_c, 0, 74, 97
3, 189888, Note_off_c, 0, 74, 64
3, 189888, Note_on_c, 0, 64, 97
3, 189984, Note_off_c, 0, 64, 64
3, 189984, Note_on_c, 0, 66, 97
3, 190080, Note_off_c, 0, 66, 64
3, 190080, Note_on_c, 0, 67, 97
3, 190176, Note_off_c, 0, 67, 64
3, 190176, Note_on_c, 0, 66, 97
3, 190272, Note_off_c, 0, 66, 64
3, 190272, Note_on_c, 0, 64, 97
3, 190464, Note_off_c, 0, 64, 64
3, 190464, Note_on_c, 0, 69, 97
3, 190656, Note_off_c, 0, 69, 64
3, 190656, Note_on_c, 0, 64, 97
3, 190848, Note_off_c, 0, 64, 64
3, 190848, Note_on_c, 0, 71, 97
3, 191040, Note_off_c, 0, 71, 64
3, 191040, Note_on_c, 0, 64, 97
3, 191232, Note_off_c, 0, 64, 64
3, 191232, Note_on_c, 0, 73, 97
3, 192960, Note_off_c, 0, 73, 64
3, 192960, Note_on_c, 0, 62, 97
3, 193056, Note_off_c, 0, 62, 64
3, 193056, Note_on_c, 0, 64, 97
3, 193152, Note_off_c, 0, 64, 64
3, 193152, Note_on_c, 0, 66, 97
3, 193248, Note_off_c, 0, 66, 64
3, 193248, Note_on_c, 0, 62, 97
3, 193344, Note_off_c, 0, 62, 64
3, 193344, Note_on_c, 0, 61, 97
3, 193440, Note_off_c, 0, 61, 64
3, 193440, Note_on_c, 0, 62, 97
3, 193536, Note_off_c, 0, 62, 64
3, 193536, Note_on_c, 0, 66, 97
3, 193632, Note_off_c, 0, 66, 64
3, 193632, Note_on_c, 0, 62, 97
3, 193728, Note_off_c, 0, 62, 64
3, 193728, Note_on_c, 0, 61, 97
3, 193824, Note_off_c, 0, 61, 64
3, 193824, Note_on_c, 0, 62, 97
3, 193920, Note_off_c, 0, 62, 64
3, 193920, Note_on_c, 0, 69, 97
3, 194016, Note_off_c, 0, 69, 64
3, 194016, Note_on_c, 0, 62, 97
3, 194112, Note_off_c, 0, 62, 64
3, 194112, Note_on_c, 0, 61, 97
3, 194208, Note_off_c, 0, 61, 64
3, 194208, Note_on_c, 0, 62, 97
3, 194304, Note_off_c, 0, 62, 64
3, 194304, Note_on_c, 0, 71, 97
3, 195072, Note_off_c, 0, 71, 64
3, 195456, Note_on_c, 0, 67, 97
3, 196032, Note_off_c, 0, 67, 64
3, 196032, Note_on_c, 0, 69, 97
3, 196128, Note_off_c, 0, 69, 64
3, 196128, Note_on_c, 0, 71, 97
3, 196224, Note_off_c, 0, 71, 64
3, 196224, Note_on_c, 0, 69, 97
3, 196416, Note_off_c, 0, 69, 64
3, 196416, Note_on_c, 0, 67, 97
3, 196512, Note_off_c, 0, 67, 64
3, 196512, Note_on_c, 0, 66, 97
3, 196608, Note_off_c, 0, 66, 64
3, 196608, Note_on_c, 0, 66, 97
3, 196656, Note_off_c, 0, 66, 64
3, 196656, Note_on_c, 0, 64, 97
3, 196704, Note_off_c, 0, 64, 64
3, 196704, Note_on_c, 0, 66, 97
3, 196752, Note_off_c, 0, 66, 64
3, 196752, Note_on_c, 0, 64, 97
3, 196800, Note_off_c, 0, 64, 64
3, 196800, Note_on_c, 0, 66, 97
3, 196848, Note_off_c, 0, 66, 64
3, 196848, Note_on_c, 0, 64, 97
3, 196896, Note_off_c, 0, 64, 64
3, 196896, Note_on_c, 0, 66, 97
3, 196944, Note_off_c, 0, 66, 64
3, 196944, Note_on_c, 0, 64, 97
3, 196992, Note_off_c, 0, 64, 64
3, 196992, Note_on_c, 0, 66, 97
3, 197040, Note_off_c, 0, 66, 64
3, 197040, Note_on_c, 0, 64, 97
3, 197088, Note_off_c, 0, 64, 64
3, 197088, Note_on_c, 0, 66, 97
3, 197136, Note_off_c, 0, 66, 64
3, 197136, Note_on_c, 0, 64, 97
3, 197184, Note_off_c, 0, 64, 64
3, 197184, Note_on_c, 0, 62, 97
3, 197376, Note_off_c, 0, 62, 64
3, 197376, Note_on_c, 0, 62, 97
3, 197568, Note_off_c, 0, 62, 64
3, 197568, Note_on_c, 0, 69, 97
3, 197664, Note_off_c, 0, 69, 64
3, 197664, Note_on_c, 0, 67, 97
3, 197760, Note_off_c, 0, 67, 64
3, 197760, Note_on_c, 0, 66, 97
3, 197952, Note_off_c, 0, 66, 64
3, 197952, Note_on_c, 0, 69, 97
3, 198144, Note_off_c, 0, 69, 64
3, 198144, Note_on_c, 0, 64, 97
3, 198336, Note_off_c, 0, 64, 64
3, 198336, Note_on_c, 0, 69, 97
3, 198528, Note_off_c, 0, 69, 64
3, 198528, Note_on_c, 0, 62, 97
3, 198720, Note_off_c, 0, 62, 64
3, 198720, Note_on_c, 0, 69, 97
3, 198912, Note_off_c, 0, 69, 64
3, 198912, Note_on_c, 0, 61, 97
3, 199104, Note_off_c, 0, 61, 64
3, 199104, Note_on_c, 0, 57, 97
3, 199296, Note_off_c, 0, 57, 64
3, 199296, Note_on_c, 0, 64, 97
3, 199680, Note_off_c, 0, 64, 64
3, 200640, Note_on_c, 0, 71, 97
3, 200736, Note_off_c, 0, 71, 64
3, 200736, Note_on_c, 0, 69, 97
3, 200832, Note_off_c, 0, 69, 64
3, 200832, Note_on_c, 0, 67, 97
3, 200928, Note_off_c, 0, 67, 64
3, 200928, Note_on_c, 0, 69, 97
3, 201024, Note_off_c, 0, 69, 64
3, 201024, Note_on_c, 0, 71, 97
3, 201216, Note_off_c, 0, 71, 64
3, 201216, Note_on_c, 0, 66, 97
3, 201408, Note_off_c, 0, 66, 64
3, 201408, Note_on_c, 0, 71, 97
3, 201600, Note_off_c, 0, 71, 64
3, 201600, Note_on_c, 0, 64, 97
3, 201792, Note_off_c, 0, 64, 64
3, 201792, Note_on_c, 0, 71, 97
3, 201984, Note_off_c, 0, 71, 64
3, 201984, Note_on_c, 0, 62, 97
3, 202176, Note_off_c, 0, 62, 64
3, 202176, Note_on_c, 0, 59, 97
3, 202368, Note_off_c, 0, 59, 64
3, 202368, Note_on_c, 0, 66, 97
3, 202752, Note_off_c, 0, 66, 64
3, 203712, Note_on_c, 0, 73, 97
3, 203808, Note_off_c, 0, 73, 64
3, 203808, Note_on_c, 0, 71, 97
3, 203904, Note_off_c, 0, 71, 64
3, 203904, Note_on_c, 0, 69, 97
3, 204000, Note_off_c, 0, 69, 64
3, 204000, Note_on_c, 0, 73, 97
3, 204096, Note_off_c, 0, 73, 64
3, 204096, Note_on_c, 0, 74, 97
3, 204192, Note_off_c, 0, 74, 64
3, 204192, Note_on_c, 0, 73, 97
3, 204288, Note_off_c, 0, 73, 64
3, 204288, Note_on_c, 0, 68, 97
3, 204384, Note_off_c, 0, 68, 64
3, 204384, Note_on_c, 0, 73, 97
3, 204480, Note_off_c, 0, 73, 64
3, 204480, Note_on_c, 0, 74, 97
3, 204576, Note_off_c, 0, 74, 64
3, 204576, Note_on_c, 0, 73, 97
3, 204672, Note_off_c, 0, 73, 64
3, 204672, Note_on_c, 0, 66, 97
3, 204768, Note_off_c, 0, 66, 64
3, 204768, Note_on_c, 0, 73, 97
3, 204864, Note_off_c, 0, 73, 64
3, 204864, Note_on_c, 0, 74, 97
3, 204960, Note_off_c, 0, 74, 64
3, 204960, Note_on_c, 0, 73, 97
3, 205056, Note_off_c, 0, 73, 64
3, 205056, Note_on_c, 0, 65, 97
3, 205440, Note_off_c, 0, 65, 64
3, 205440, Note_on_c, 0, 78, 97
3, 205824, Note_off_c, 0, 78, 64
3, 205824, Note_on_c, 0, 77, 97
3, 206208, Note_off_c, 0, 77, 64
3, 206208, Note_on_c, 0, 75, 97
3, 206592, Note_off_c, 0, 75, 64
3, 206592, Note_on_c, 0, 73, 97
3, 206688, Note_off_c, 0, 73, 64
3, 206688, Note_on_c, 0, 77, 97
3, 206784, Note_off_c, 0, 77, 64
3, 206784, Note_on_c, 0, 78, 97
3, 206880, Note_off_c, 0, 78, 64
3, 206880, Note_on_c, 0, 80, 97
3, 206976, Note_off_c, 0, 80, 64
3, 206976, Note_on_c, 0, 81, 97
3, 207072, Note_off_c, 0, 81, 64
3, 207072, Note_on_c, 0, 78, 97
3, 207168, Note_off_c, 0, 78, 64
3, 207168, Note_on_c, 0, 73, 97
3, 207264, Note_off_c, 0, 73, 64
3, 207264, Note_on_c, 0, 81, 97
3, 207360, Note_off_c, 0, 81, 64
3, 207360, Note_on_c, 0, 80, 97
3, 207456, Note_off_c, 0, 80, 64
3, 207456, Note_on_c, 0, 77, 97
3, 207552, Note_off_c, 0, 77, 64
3, 207552, Note_on_c, 0, 73, 97
3, 207648, Note_off_c, 0, 73, 64
3, 207648, Note_on_c, 0, 80, 97
3, 207744, Note_off_c, 0, 80, 64
3, 207744, Note_on_c, 0, 78, 97
3, 207840, Note_off_c, 0, 78, 64
3, 207840, Note_on_c, 0, 75, 97
3, 207936, Note_off_c, 0, 75, 64
3, 207936, Note_on_c, 0, 72, 97
3, 208032, Note_off_c, 0, 72, 64
3, 208032, Note_on_c, 0, 78, 97
3, 208128, Note_off_c, 0, 78, 64
3, 208128, Note_on_c, 0, 77, 97
3, 208512, Note_off_c, 0, 77, 64
3, 208512, Note_on_c, 0, 66, 97
3, 208896, Note_off_c, 0, 66, 64
3, 208896, Note_on_c, 0, 65, 97
3, 209280, Note_off_c, 0, 65, 64
3, 209280, Note_on_c, 0, 63, 97
3, 209664, Note_off_c, 0, 63, 64
3, 209664, Note_on_c, 0, 61, 97
3, 210048, Note_off_c, 0, 61, 64
3, 211392, Note_on_c, 0, 66, 97
3, 211488, Note_off_c, 0, 66, 64
3, 211488, Note_on_c, 0, 68, 97
3, 211584, Note_off_c, 0, 68, 64
3, 211584, Note_on_c, 0, 69, 97
3, 211776, Note_off_c, 0, 69, 64
3, 211776, Note_on_c, 0, 66, 97
3, 211968, Note_off_c, 0, 66, 64
3, 211968, Note_on_c, 0, 71, 97
3, 212160, Note_off_c, 0, 71, 64
3, 212160, Note_on_c, 0, 66, 97
3, 212352, Note_off_c, 0, 66, 64
3, 212352, Note_on_c, 0, 73, 97
3, 212544, Note_off_c, 0, 73, 64
3, 212544, Note_on_c, 0, 66, 97
3, 212736, Note_off_c, 0, 66, 64
3, 212736, Note_on_c, 0, 74, 97
3, 214464, Note_off_c, 0, 74, 64
3, 214464, Note_on_c, 0, 64, 97
3, 214560, Note_off_c, 0, 64, 64
3, 214560, Note_on_c, 0, 66, 97
3, 214656, Note_off_c, 0, 66, 64
3, 214656, Note_on_c, 0, 68, 97
3, 214752, Note_off_c, 0, 68, 64
3, 214752, Note_on_c, 0, 66, 97
3, 214848, Note_off_c, 0, 66, 64
3, 214848, Note_on_c, 0, 64, 97
3, 215040, Note_off_c, 0, 64, 64
3, 215040, Note_on_c, 0, 69, 97
3, 215232, Note_off_c, 0, 69, 64
3, 215232, Note_on_c, 0, 64, 97
3, 215424, Note_off_c, 0, 64, 64
3, 215424, Note_on_c, 0, 71, 97
3, 215616, Note_off_c, 0, 71, 64
3, 215616, Note_on_c, 0, 64, 97
3, 215808, Note_off_c, 0, 64, 64
3, 215808, Note_on_c, 0, 73, 97
3, 217536, Note_off_c, 0, 73, 64
3, 217536, Note_on_c, 0, 62, 97
3, 217632, Note_off_c, 0, 62, 64
3, 217632, Note_on_c, 0, 64, 97
3, 217728, Note_off_c, 0, 64, 64
3, 217728, Note_on_c, 0, 66, 97
3, 217824, Note_off_c, 0, 66, 64
3, 217824, Note_on_c, 0, 62, 97
3, 217920, Note_off_c, 0, 62, 64
3, 217920, Note_on_c, 0, 61, 97
3, 218016, Note_off_c, 0, 61, 64
3, 218016, Note_on_c, 0, 62, 97
3, 218112, Note_off_c, 0, 62, 64
3, 218112, Note_on_c, 0, 68, 97
3, 218208, Note_off_c, 0, 68, 64
3, 218208, Note_on_c, 0, 62, 97
3, 218304, Note_off_c, 0, 62, 64
3, 218304, Note_on_c, 0, 61, 97
3, 218400, Note_off_c, 0, 61, 64
3, 218400, Note_on_c, 0, 62, 97
3, 218496, Note_off_c, 0, 62, 64
3, 218496, Note_on_c, 0, 69, 97
3, 218592, Note_off_c, 0, 69, 64
3, 218592, Note_on_c, 0, 62, 97
3, 218688, Note_off_c, 0, 62, 64
3, 218688, Note_on_c, 0, 61, 97
3, 218784, Note_off_c, 0, 61, 64
3, 218784, Note_on_c, 0, 62, 97
3, 218880, Note_off_c, 0, 62, 64
3, 218880, Note_on_c, 0, 71, 97
3, 218976, Note_off_c, 0, 71, 64
3, 218976, Note_on_c, 0, 62, 97
3, 219072, Note_off_c, 0, 62, 64
3, 219072, Note_on_c, 0, 61, 97
3, 219168, Note_off_c, 0, 61, 64
3, 219168, Note_on_c, 0, 59, 97
3, 219264, Note_off_c, 0, 59, 64
3, 219264, Note_on_c, 0, 61, 97
3, 219456, Note_off_c, 0, 61, 64
3, 219456, Note_on_c, 0, 69, 97
3, 219648, Note_off_c, 0, 69, 64
3, 219648, Note_on_c, 0, 68, 97
3, 220224, Note_off_c, 0, 68, 64
3, 220224, Note_on_c, 0, 69, 97
3, 220416, Note_off_c, 0, 69, 64
3, 220416, Note_on_c, 0, 69, 97
3, 221184, Note_off_c, 0, 69, 64
3, 221376, Note_on_c, 0, 75, 97
3, 221472, Note_off_c, 0, 75, 64
3, 221472, Note_on_c, 0, 76, 97
3, 221568, Note_off_c, 0, 76, 64
3, 221568, Note_on_c, 0, 78, 97
3, 221760, Note_off_c, 0, 78, 64
3, 221760, Note_on_c, 0, 72, 97
3, 221952, Note_off_c, 0, 72, 64
3, 221952, Note_on_c, 0, 71, 97
3, 222336, Note_off_c, 0, 71, 64
3, 222912, Note_on_c, 0, 75, 97
3, 223008, Note_off_c, 0, 75, 64
3, 223008, Note_on_c, 0, 76, 97
3, 223104, Note_off_c, 0, 76, 64
3, 223104, Note_on_c, 0, 78, 97
3, 223296, Note_off_c, 0, 78, 64
3, 223296, Note_on_c, 0, 69, 97
3, 223488, Note_off_c, 0, 69, 64
3, 223488, Note_on_c, 0, 67, 97
3, 223680, Note_off_c, 0, 67, 64
3, 223680, Note_on_c, 0, 67, 97
3, 223776, Note_off_c, 0, 67, 64
3, 223776, Note_on_c, 0, 69, 97
3, 223872, Note_off_c, 0, 69, 64
3, 223872, Note_on_c, 0, 71, 97
3, 224064, Note_off_c, 0, 71, 64
3, 224064, Note_on_c, 0, 67, 97
3, 224256, Note_off_c, 0, 67, 64
3, 224256, Note_on_c, 0, 64, 97
3, 224448, Note_off_c, 0, 64, 64
3, 224448, Note_on_c, 0, 69, 97
3, 224640, Note_off_c, 0, 69, 64
3, 224640, Note_on_c, 0, 76, 97
3, 225120, Note_off_c, 0, 76, 64
3, 225120, Note_on_c, 0, 74, 97
3, 225216, Note_off_c, 0, 74, 64
3, 225216, Note_on_c, 0, 72, 97
3, 225312, Note_off_c, 0, 72, 64
3, 225312, Note_on_c, 0, 71, 97
3, 225408, Note_off_c, 0, 71, 64
3, 225408, Note_on_c, 0, 69, 97
3, 225504, Note_off_c, 0, 69, 64
3, 225504, Note_on_c, 0, 67, 97
3, 225600, Note_off_c, 0, 67, 64
3, 225600, Note_on_c, 0, 66, 97
3, 225696, Note_off_c, 0, 66, 64
3, 225696, Note_on_c, 0, 64, 97
3, 225792, Note_off_c, 0, 64, 64
3, 225792, Note_on_c, 0, 67, 97
3, 226176, Note_off_c, 0, 67, 64
3, 226176, Note_on_c, 0, 66, 97
3, 226224, Note_off_c, 0, 66, 64
3, 226224, Note_on_c, 0, 67, 97
3, 226272, Note_off_c, 0, 67, 64
3, 226272, Note_on_c, 0, 66, 97
3, 226464, Note_off_c, 0, 66, 64
3, 226464, Note_on_c, 0, 64, 97
3, 226560, Note_off_c, 0, 64, 64
3, 226560, Note_on_c, 0, 64, 97
3, 226752, Note_off_c, 0, 64, 64
3, 226752, Note_on_c, 0, 64, 97
3, 226848, Note_off_c, 0, 64, 64
3, 226848, Note_on_c, 0, 66, 97
3, 226944, Note_off_c, 0, 66, 64
3, 226944, Note_on_c, 0, 67, 97
3, 227136, Note_off_c, 0, 67, 64
3, 227136, Note_on_c, 0, 64, 97
3, 227328, Note_off_c, 0, 64, 64
3, 227328, Note_on_c, 0, 57, 97
3, 227520, Note_off_c, 0, 57, 64
3, 227520, Note_on_c, 0, 64, 97
3, 227712, Note_off_c, 0, 64, 64
3, 227712, Note_on_c, 0, 72, 97
3, 228288, Note_off_c, 0, 72, 64
3, 228288, Note_on_c, 0, 62, 97
3, 228384, Note_off_c, 0, 62, 64
3, 228384, Note_on_c, 0, 64, 97
3, 228480, Note_off_c, 0, 64, 64
3, 228480, Note_on_c, 0, 66, 97
3, 228672, Note_off_c, 0, 66, 64
3, 228672, Note_on_c, 0, 62, 97
3, 228864, Note_off_c, 0, 62, 64
3, 228864, Note_on_c, 0, 55, 97
3, 229056, Note_off_c, 0, 55, 64
3, 229056, Note_on_c, 0, 62, 97
3, 229248, Note_off_c, 0, 62, 64
3, 229248, Note_on_c, 0, 71, 97
3, 229824, Note_off_c, 0, 71, 64
3, 229824, Note_on_c, 0, 60, 97
3, 229920, Note_off_c, 0, 60, 64
3, 229920, Note_on_c, 0, 62, 97
3, 230016, Note_off_c, 0, 62, 64
3, 230016, Note_on_c, 0, 64, 97
3, 230208, Note_off_c, 0, 64, 64
3, 230208, Note_on_c, 0, 60, 97
3, 230400, Note_off_c, 0, 60, 64
3, 230400, Note_on_c, 0, 53, 97
3, 230592, Note_off_c, 0, 53, 64
3, 230592, Note_on_c, 0, 60, 97
3, 230784, Note_off_c, 0, 60, 64
3, 230784, Note_on_c, 0, 69, 97
3, 231360, Note_off_c, 0, 69, 64
3, 231360, Note_on_c, 0, 63, 97
3, 231552, Note_off_c, 0, 63, 64
3, 231552, Note_on_c, 0, 64, 97
3, 231744, Note_off_c, 0, 64, 64
3, 231744, Note_on_c, 0, 66, 97
3, 231936, Note_off_c, 0, 66, 64
3, 231936, Note_on_c, 0, 63, 97
3, 232512, Note_off_c, 0, 63, 64
3, 232512, Note_on_c, 0, 64, 97
3, 232704, Note_off_c, 0, 64, 64
3, 232704, Note_on_c, 0, 64, 97
3, 233088, Note_off_c, 0, 64, 64
3, 233088, Note_on_c, 0, 59, 97
3, 233472, Note_off_c, 0, 59, 64
3, 233472, Note_on_c, 0, 64, 97
3, 233856, Note_off_c, 0, 64, 64
3, 233856, Note_on_c, 0, 69, 97
3, 234240, Note_off_c, 0, 69, 64
3, 234240, Note_on_c, 0, 66, 97
3, 234624, Note_off_c, 0, 66, 64
3, 234624, Note_on_c, 0, 57, 97
3, 235008, Note_off_c, 0, 57, 64
3, 235008, Note_on_c, 0, 62, 97
3, 235392, Note_off_c, 0, 62, 64
3, 235392, Note_on_c, 0, 67, 97
3, 235776, Note_off_c, 0, 67, 64
3, 235776, Note_on_c, 0, 64, 97
3, 236160, Note_off_c, 0, 64, 64
3, 236160, Note_on_c, 0, 55, 97
3, 236544, Note_off_c, 0, 55, 64
3, 236544, Note_on_c, 0, 60, 97
3, 236928, Note_off_c, 0, 60, 64
3, 236928, Note_on_c, 0, 65, 97
3, 237312, Note_off_c, 0, 65, 64
3, 237312, Note_on_c, 0, 63, 97
3, 237504, Note_off_c, 0, 63, 64
3, 237504, Note_on_c, 0, 69, 97
3, 237696, Note_off_c, 0, 69, 64
3, 237696, Note_on_c, 0, 67, 97
3, 237888, Note_off_c, 0, 67, 64
3, 237888, Note_on_c, 0, 66, 97
3, 238080, Note_off_c, 0, 66, 64
3, 238080, Note_on_c, 0, 66, 97
3, 238656, Note_off_c, 0, 66, 64
3, 238656, Note_on_c, 0, 64, 97
3, 238848, Note_off_c, 0, 64, 64
3, 238848, Note_on_c, 0, 64, 97
3, 239040, Note_off_c, 0, 64, 64
3, 239040, Note_on_c, 0, 64, 97
3, 239136, Note_off_c, 0, 64, 64
3, 239136, Note_on_c, 0, 66, 97
3, 239232, Note_off_c, 0, 66, 64
3, 239232, Note_on_c, 0, 67, 97
3, 239424, Note_off_c, 0, 67, 64
3, 239424, Note_on_c, 0, 64, 97
3, 239616, Note_off_c, 0, 64, 64
3, 239616, Note_on_c, 0, 69, 97
3, 239808, Note_off_c, 0, 69, 64
3, 239808, Note_on_c, 0, 64, 97
3, 240000, Note_off_c, 0, 64, 64
3, 240000, Note_on_c, 0, 71, 97
3, 240192, Note_off_c, 0, 71, 64
3, 240192, Note_on_c, 0, 64, 97
3, 240384, Note_off_c, 0, 64, 64
3, 240384, Note_on_c, 0, 72, 97
3, 242112, Note_off_c, 0, 72, 64
3, 242112, Note_on_c, 0, 62, 97
3, 242208, Note_off_c, 0, 62, 64
3, 242208, Note_on_c, 0, 64, 97
3, 242304, Note_off_c, 0, 64, 64
3, 242304, Note_on_c, 0, 66, 97
3, 242400, Note_off_c, 0, 66, 64
3, 242400, Note_on_c, 0, 64, 97
3, 242496, Note_off_c, 0, 64, 64
3, 242496, Note_on_c, 0, 62, 97
3, 242688, Note_off_c, 0, 62, 64
3, 242688, Note_on_c, 0, 67, 97
3, 242880, Note_off_c, 0, 67, 64
3, 242880, Note_on_c, 0, 62, 97
3, 243072, Note_off_c, 0, 62, 64
3, 243072, Note_on_c, 0, 69, 97
3, 243264, Note_off_c, 0, 69, 64
3, 243264, Note_on_c, 0, 62, 97
3, 243456, Note_off_c, 0, 62, 64
3, 243456, Note_on_c, 0, 71, 97
3, 245184, Note_off_c, 0, 71, 64
3, 245184, Note_on_c, 0, 60, 97
3, 245280, Note_off_c, 0, 60, 64
3, 245280, Note_on_c, 0, 62, 97
3, 245376, Note_off_c, 0, 62, 64
3, 245376, Note_on_c, 0, 64, 97
3, 245472, Note_off_c, 0, 64, 64
3, 245472, Note_on_c, 0, 60, 97
3, 245568, Note_off_c, 0, 60, 64
3, 245568, Note_on_c, 0, 59, 97
3, 245664, Note_off_c, 0, 59, 64
3, 245664, Note_on_c, 0, 60, 97
3, 245760, Note_off_c, 0, 60, 64
3, 245760, Note_on_c, 0, 66, 97
3, 245856, Note_off_c, 0, 66, 64
3, 245856, Note_on_c, 0, 60, 97
3, 245952, Note_off_c, 0, 60, 64
3, 245952, Note_on_c, 0, 59, 97
3, 246048, Note_off_c, 0, 59, 64
3, 246048, Note_on_c, 0, 60, 97
3, 246144, Note_off_c, 0, 60, 64
3, 246144, Note_on_c, 0, 67, 97
3, 246240, Note_off_c, 0, 67, 64
3, 246240, Note_on_c, 0, 60, 97
3, 246336, Note_off_c, 0, 60, 64
3, 246336, Note_on_c, 0, 59, 97
3, 246432, Note_off_c, 0, 59, 64
3, 246432, Note_on_c, 0, 60, 97
3, 246528, Note_off_c, 0, 60, 64
3, 246528, Note_on_c, 0, 69, 97
3, 247296, Note_off_c, 0, 69, 64
3, 247680, Note_on_c, 0, 62, 97
3, 248256, Note_off_c, 0, 62, 64
3, 248256, Note_on_c, 0, 67, 97
3, 248352, Note_off_c, 0, 67, 64
3, 248352, Note_on_c, 0, 69, 97
3, 248448, Note_off_c, 0, 69, 64
3, 248448, Note_on_c, 0, 71, 97
3, 248544, Note_off_c, 0, 71, 64
3, 248544, Note_on_c, 0, 67, 97
3, 248640, Note_off_c, 0, 67, 64
3, 248640, Note_on_c, 0, 72, 97
3, 248832, Note_off_c, 0, 72, 64
3, 248832, Note_on_c, 0, 71, 97
3, 249216, Note_off_c, 0, 71, 64
3, 249216, Note_on_c, 0, 69, 97
3, 249264, Note_off_c, 0, 69, 64
3, 249264, Note_on_c, 0, 71, 97
3, 249312, Note_off_c, 0, 71, 64
3, 249312, Note_on_c, 0, 69, 97
3, 249408, Note_off_c, 0, 69, 64
3, 249408, Note_on_c, 0, 67, 97
3, 249600, Note_off_c, 0, 67, 64
3, 249600, Note_on_c, 0, 67, 97
3, 249792, Note_off_c, 0, 67, 64
3, 249792, Note_on_c, 0, 74, 97
3, 249888, Note_off_c, 0, 74, 64
3, 249888, Note_on_c, 0, 72, 97
3, 249984, Note_off_c, 0, 72, 64
3, 249984, Note_on_c, 0, 71, 97
3, 250176, Note_off_c, 0, 71, 64
3, 250176, Note_on_c, 0, 74, 97
3, 250368, Note_off_c, 0, 74, 64
3, 250368, Note_on_c, 0, 69, 97
3, 250560, Note_off_c, 0, 69, 64
3, 250560, Note_on_c, 0, 74, 97
3, 250752, Note_off_c, 0, 74, 64
3, 250752, Note_on_c, 0, 67, 97
3, 250944, Note_off_c, 0, 67, 64
3, 250944, Note_on_c, 0, 74, 97
3, 251136, Note_off_c, 0, 74, 64
3, 251136, Note_on_c, 0, 66, 97
3, 251328, Note_off_c, 0, 66, 64
3, 251328, Note_on_c, 0, 62, 97
3, 251520, Note_off_c, 0, 62, 64
3, 251520, Note_on_c, 0, 69, 97
3, 251904, Note_off_c, 0, 69, 64
3, 252864, Note_on_c, 0, 76, 97
3, 252960, Note_off_c, 0, 76, 64
3, 252960, Note_on_c, 0, 74, 97
3, 253056, Note_off_c, 0, 74, 64
3, 253056, Note_on_c, 0, 72, 97
3, 253152, Note_off_c, 0, 72, 64
3, 253152, Note_on_c, 0, 74, 97
3, 253248, Note_off_c, 0, 74, 64
3, 253248, Note_on_c, 0, 76, 97
3, 253440, Note_off_c, 0, 76, 64
3, 253440, Note_on_c, 0, 71, 97
3, 253632, Note_off_c, 0, 71, 64
3, 253632, Note_on_c, 0, 76, 97
3, 253824, Note_off_c, 0, 76, 64
3, 253824, Note_on_c, 0, 69, 97
3, 254016, Note_off_c, 0, 69, 64
3, 254016, Note_on_c, 0, 76, 97
3, 254208, Note_off_c, 0, 76, 64
3, 254208, Note_on_c, 0, 67, 97
3, 254400, Note_off_c, 0, 67, 64
3, 254400, Note_on_c, 0, 64, 97
3, 254592, Note_off_c, 0, 64, 64
3, 254592, Note_on_c, 0, 71, 97
3, 254976, Note_off_c, 0, 71, 64
3, 255936, Note_on_c, 0, 78, 97
3, 256032, Note_off_c, 0, 78, 64
3, 256032, Note_on_c, 0, 76, 97
3, 256128, Note_off_c, 0, 76, 64
3, 256128, Note_on_c, 0, 74, 97
3, 256224, Note_off_c, 0, 74, 64
3, 256224, Note_on_c, 0, 78, 97
3, 256320, Note_off_c, 0, 78, 64
3, 256320, Note_on_c, 0, 79, 97
3, 256416, Note_off_c, 0, 79, 64
3, 256416, Note_on_c, 0, 78, 97
3, 256512, Note_off_c, 0, 78, 64
3, 256512, Note_on_c, 0, 73, 97
3, 256608, Note_off_c, 0, 73, 64
3, 256608, Note_on_c, 0, 78, 97
3, 256704, Note_off_c, 0, 78, 64
3, 256704, Note_on_c, 0, 79, 97
3, 256800, Note_off_c, 0, 79, 64
3, 256800, Note_on_c, 0, 78, 97
3, 256896, Note_off_c, 0, 78, 64
3, 256896, Note_on_c, 0, 71, 97
3, 256992, Note_off_c, 0, 71, 64
3, 256992, Note_on_c, 0, 78, 97
3, 257088, Note_off_c, 0, 78, 64
3, 257088, Note_on_c, 0, 79, 97
3, 257184, Note_off_c, 0, 79, 64
3, 257184, Note_on_c, 0, 78, 97
3, 257280, Note_off_c, 0, 78, 64
3, 257280, Note_on_c, 0, 70, 97
3, 257664, Note_off_c, 0, 70, 64
3, 257664, Note_on_c, 0, 71, 97
3, 258048, Note_off_c, 0, 71, 64
3, 258048, Note_on_c, 0, 70, 97
3, 258432, Note_off_c, 0, 70, 64
3, 258432, Note_on_c, 0, 68, 97
3, 258816, Note_off_c, 0, 68, 64
3, 258816, Note_on_c, 0, 66, 97
3, 258912, Note_off_c, 0, 66, 64
3, 258912, Note_on_c, 0, 70, 97
3, 259008, Note_off_c, 0, 70, 64
3, 259008, Note_on_c, 0, 71, 97
3, 259104, Note_off_c, 0, 71, 64
3, 259104, Note_on_c, 0, 73, 97
3, 259200, Note_off_c, 0, 73, 64
3, 259200, Note_on_c, 0, 74, 97
3, 259296, Note_off_c, 0, 74, 64
3, 259296, Note_on_c, 0, 71, 97
3, 259392, Note_off_c, 0, 71, 64
3, 259392, Note_on_c, 0, 66, 97
3, 259488, Note_off_c, 0, 66, 64
3, 259488, Note_on_c, 0, 74, 97
3, 259584, Note_off_c, 0, 74, 64
3, 259584, Note_on_c, 0, 73, 97
3, 259680, Note_off_c, 0, 73, 64
3, 259680, Note_on_c, 0, 70, 97
3, 259776, Note_off_c, 0, 70, 64
3, 259776, Note_on_c, 0, 66, 97
3, 259872, Note_off_c, 0, 66, 64
3, 259872, Note_on_c, 0, 73, 97
3, 259968, Note_off_c, 0, 73, 64
3, 259968, Note_on_c, 0, 71, 97
3, 260064, Note_off_c, 0, 71, 64
3, 260064, Note_on_c, 0, 68, 97
3, 260160, Note_off_c, 0, 68, 64
3, 260160, Note_on_c, 0, 65, 97
3, 260256, Note_off_c, 0, 65, 64
3, 260256, Note_on_c, 0, 71, 97
3, 260352, Note_off_c, 0, 71, 64
3, 260352, Note_on_c, 0, 70, 97
3, 260736, Note_off_c, 0, 70, 64
3, 260736, Note_on_c, 0, 71, 97
3, 261120, Note_off_c, 0, 71, 64
3, 261120, Note_on_c, 0, 70, 97
3, 261504, Note_off_c, 0, 70, 64
3, 261504, Note_on_c, 0, 68, 97
3, 261888, Note_off_c, 0, 68, 64
3, 261888, Note_on_c, 0, 66, 97
3, 262080, Note_off_c, 0, 66, 64
3, 262080, Note_on_c, 0, 66, 97
3, 262176, Note_off_c, 0, 66, 64
3, 262176, Note_on_c, 0, 68, 97
3, 262272, Note_off_c, 0, 68, 64
3, 262272, Note_on_c, 0, 70, 97
3, 262464, Note_off_c, 0, 70, 64
3, 262464, Note_on_c, 0, 66, 97
3, 262656, Note_off_c, 0, 66, 64
3, 262656, Note_on_c, 0, 71, 97
3, 262848, Note_off_c, 0, 71, 64
3, 262848, Note_on_c, 0, 66, 97
3, 263040, Note_off_c, 0, 66, 64
3, 263040, Note_on_c, 0, 73, 97
3, 263232, Note_off_c, 0, 73, 64
3, 263232, Note_on_c, 0, 66, 97
3, 263424, Note_off_c, 0, 66, 64
3, 263424, Note_on_c, 0, 74, 97
3, 265152, Note_off_c, 0, 74, 64
3, 265152, Note_on_c, 0, 64, 97
3, 265248, Note_off_c, 0, 64, 64
3, 265248, Note_on_c, 0, 66, 97
3, 265344, Note_off_c, 0, 66, 64
3, 265344, Note_on_c, 0, 67, 97
3, 265440, Note_off_c, 0, 67, 64
3, 265440, Note_on_c, 0, 66, 97
3, 265536, Note_off_c, 0, 66, 64
3, 265536, Note_on_c, 0, 64, 97
3, 265728, Note_off_c, 0, 64, 64
3, 265728, Note_on_c, 0, 69, 97
3, 265920, Note_off_c, 0, 69, 64
3, 265920, Note_on_c, 0, 64, 97
3, 266112, Note_off_c, 0, 64, 64
3, 266112, Note_on_c, 0, 71, 97
3, 266304, Note_off_c, 0, 71, 64
3, 266304, Note_on_c, 0, 64, 97
3, 266496, Note_off_c, 0, 64, 64
3, 266496, Note_on_c, 0, 73, 97
3, 268224, Note_off_c, 0, 73, 64
3, 268224, Note_on_c, 0, 62, 97
3, 268320, Note_off_c, 0, 62, 64
3, 268320, Note_on_c, 0, 64, 97
3, 268416, Note_off_c, 0, 64, 64
3, 268416, Note_on_c, 0, 66, 97
3, 268512, Note_off_c, 0, 66, 64
3, 268512, Note_on_c, 0, 62, 97
3, 268608, Note_off_c, 0, 62, 64
3, 268608, Note_on_c, 0, 61, 97
3, 268704, Note_off_c, 0, 61, 64
3, 268704, Note_on_c, 0, 62, 97
3, 268800, Note_off_c, 0, 62, 64
3, 268800, Note_on_c, 0, 67, 97
3, 268896, Note_off_c, 0, 67, 64
3, 268896, Note_on_c, 0, 62, 97
3, 268992, Note_off_c, 0, 62, 64
3, 268992, Note_on_c, 0, 61, 97
3, 269088, Note_off_c, 0, 61, 64
3, 269088, Note_on_c, 0, 62, 97
3, 269184, Note_off_c, 0, 62, 64
3, 269184, Note_on_c, 0, 69, 97
3, 269280, Note_off_c, 0, 69, 64
3, 269280, Note_on_c, 0, 62, 97
3, 269376, Note_off_c, 0, 62, 64
3, 269376, Note_on_c, 0, 61, 97
3, 269472, Note_off_c, 0, 61, 64
3, 269472, Note_on_c, 0, 62, 97
3, 269568, Note_off_c, 0, 62, 64
3, 269568, Note_on_c, 0, 71, 97
3, 270336, Note_off_c, 0, 71, 64
3, 270720, Note_on_c, 0, 71, 97
3, 271104, Note_off_c, 0, 71, 64
3, 271104, Note_on_c, 0, 71, 97
3, 271152, Note_off_c, 0, 71, 64
3, 271152, Note_on_c, 0, 69, 97
3, 271200, Note_off_c, 0, 69, 64
3, 271200, Note_on_c, 0, 71, 97
3, 271248, Note_off_c, 0, 71, 64
3, 271248, Note_on_c, 0, 69, 97
3, 271296, Note_off_c, 0, 69, 64
3, 271296, Note_on_c, 0, 71, 97
3, 271344, Note_off_c, 0, 71, 64
3, 271344, Note_on_c, 0, 69, 97
3, 271392, Note_off_c, 0, 69, 64
3, 271392, Note_on_c, 0, 71, 97
3, 271440, Note_off_c, 0, 71, 64
3, 271440, Note_on_c, 0, 69, 97
3, 271488, Note_off_c, 0, 69, 64
3, 271488, Note_on_c, 0, 71, 97
3, 271536, Note_off_c, 0, 71, 64
3, 271536, Note_on_c, 0, 69, 97
3, 271584, Note_off_c, 0, 69, 64
3, 271584, Note_on_c, 0, 71, 97
3, 271632, Note_off_c, 0, 71, 64
3, 271632, Note_on_c, 0, 69, 97
3, 271680, Note_off_c, 0, 69, 64
3, 271680, Note_on_c, 0, 71, 97
3, 271728, Note_off_c, 0, 71, 64
3, 271728, Note_on_c, 0, 69, 97
3, 271776, Note_off_c, 0, 69, 64
3, 271776, Note_on_c, 0, 71, 97
3, 271824, Note_off_c, 0, 71, 64
3, 271824, Note_on_c, 0, 69, 97
3, 271872, Note_off_c, 0, 69, 64
3, 271872, Note_on_c, 0, 69, 97
3, 271920, Note_off_c, 0, 69, 64
3, 271920, Note_on_c, 0, 67, 97
3, 271968, Note_off_c, 0, 67, 64
3, 271968, Note_on_c, 0, 69, 97
3, 272016, Note_off_c, 0, 69, 64
3, 272016, Note_on_c, 0, 67, 97
3, 272064, Note_off_c, 0, 67, 64
3, 272064, Note_on_c, 0, 69, 97
3, 272112, Note_off_c, 0, 69, 64
3, 272112, Note_on_c, 0, 67, 97
3, 272160, Note_off_c, 0, 67, 64
3, 272160, Note_on_c, 0, 69, 97
3, 272208, Note_off_c, 0, 69, 64
3, 272208, Note_on_c, 0, 67, 97
3, 272256, Note_off_c, 0, 67, 64
3, 272256, Note_on_c, 0, 69, 97
3, 272304, Note_off_c, 0, 69, 64
3, 272304, Note_on_c, 0, 67, 97
3, 272352, Note_off_c, 0, 67, 64
3, 272352, Note_on_c, 0, 69, 97
3, 272400, Note_off_c, 0, 69, 64
3, 272400, Note_on_c, 0, 67, 97
3, 272448, Note_off_c, 0, 67, 64
3, 272448, Note_on_c, 0, 69, 97
3, 272496, Note_off_c, 0, 69, 64
3, 272496, Note_on_c, 0, 67, 97
3, 272544, Note_off_c, 0, 67, 64
3, 272544, Note_on_c, 0, 69, 97
3, 272592, Note_off_c, 0, 69, 64
3, 272592, Note_on_c, 0, 67, 97
3, 272640, Note_off_c, 0, 67, 64
3, 272640, Note_on_c, 0, 67, 97
3, 272688, Note_off_c, 0, 67, 64
3, 272688, Note_on_c, 0, 66, 97
3, 272736, Note_off_c, 0, 66, 64
3, 272736, Note_on_c, 0, 67, 97
3, 272784, Note_off_c, 0, 67, 64
3, 272784, Note_on_c, 0, 66, 97
3, 272832, Note_off_c, 0, 66, 64
3, 272832, Note_on_c, 0, 67, 97
3, 272880, Note_off_c, 0, 67, 64
3, 272880, Note_on_c, 0, 66, 97
3, 272928, Note_off_c, 0, 66, 64
3, 272928, Note_on_c, 0, 67, 97
3, 272976, Note_off_c, 0, 67, 64
3, 272976, Note_on_c, 0, 66, 97
3, 273024, Note_off_c, 0, 66, 64
3, 273024, Note_on_c, 0, 67, 97
3, 273072, Note_off_c, 0, 67, 64
3, 273072, Note_on_c, 0, 66, 97
3, 273120, Note_off_c, 0, 66, 64
3, 273120, Note_on_c, 0, 67, 97
3, 273168, Note_off_c, 0, 67, 64
3, 273168, Note_on_c, 0, 66, 97
3, 273216, Note_off_c, 0, 66, 64
3, 273216, Note_on_c, 0, 67, 97
3, 273264, Note_off_c, 0, 67, 64
3, 273264, Note_on_c, 0, 66, 97
3, 273312, Note_off_c, 0, 66, 64
3, 273312, Note_on_c, 0, 67, 97
3, 273360, Note_off_c, 0, 67, 64
3, 273360, Note_on_c, 0, 66, 97
3, 273408, Note_off_c, 0, 66, 64
3, 273408, Note_on_c, 0, 66, 97
3, 273456, Note_off_c, 0, 66, 64
3, 273456, Note_on_c, 0, 64, 97
3, 273504, Note_off_c, 0, 64, 64
3, 273504, Note_on_c, 0, 66, 97
3, 273552, Note_off_c, 0, 66, 64
3, 273552, Note_on_c, 0, 64, 97
3, 273600, Note_off_c, 0, 64, 64
3, 273600, Note_on_c, 0, 66, 97
3, 273648, Note_off_c, 0, 66, 64
3, 273648, Note_on_c, 0, 64, 97
3, 273696, Note_off_c, 0, 64, 64
3, 273696, Note_on_c, 0, 66, 97
3, 273744, Note_off_c, 0, 66, 64
3, 273744, Note_on_c, 0, 64, 97
3, 273792, Note_off_c, 0, 64, 64
3, 273792, Note_on_c, 0, 66, 97
3, 273840, Note_off_c, 0, 66, 64
3, 273840, Note_on_c, 0, 64, 97
3, 273888, Note_off_c, 0, 64, 64
3, 273888, Note_on_c, 0, 66, 97
3, 273936, Note_off_c, 0, 66, 64
3, 273936, Note_on_c, 0, 64, 97
3, 273984, Note_off_c, 0, 64, 64
3, 273984, Note_on_c, 0, 66, 97
3, 274032, Note_off_c, 0, 66, 64
3, 274032, Note_on_c, 0, 64, 97
3, 274080, Note_off_c, 0, 64, 64
3, 274080, Note_on_c, 0, 66, 97
3, 274128, Note_off_c, 0, 66, 64
3, 274128, Note_on_c, 0, 64, 97
3, 274176, Note_off_c, 0, 64, 64
3, 274176, Note_on_c, 0, 64, 97
3, 274224, Note_off_c, 0, 64, 64
3, 274224, Note_on_c, 0, 62, 97
3, 274272, Note_off_c, 0, 62, 64
3, 274272, Note_on_c, 0, 64, 97
3, 274320, Note_off_c, 0, 64, 64
3, 274320, Note_on_c, 0, 62, 97
3, 274368, Note_off_c, 0, 62, 64
3, 274368, Note_on_c, 0, 64, 97
3, 274416, Note_off_c, 0, 64, 64
3, 274416, Note_on_c, 0, 62, 97
3, 274464, Note_off_c, 0, 62, 64
3, 274464, Note_on_c, 0, 64, 97
3, 274512, Note_off_c, 0, 64, 64
3, 274512, Note_on_c, 0, 62, 97
3, 274560, Note_off_c, 0, 62, 64
3, 274560, Note_on_c, 0, 64, 97
3, 274608, Note_off_c, 0, 64, 64
3, 274608, Note_on_c, 0, 62, 97
3, 274656, Note_off_c, 0, 62, 64
3, 274656, Note_on_c, 0, 64, 97
3, 274704, Note_off_c, 0, 64, 64
3, 274704, Note_on_c, 0, 62, 97
3, 274752, Note_off_c, 0, 62, 64
3, 274752, Note_on_c, 0, 64, 97
3, 274800, Note_off_c, 0, 64, 64
3, 274800, Note_on_c, 0, 62, 97
3, 274848, Note_off_c, 0, 62, 64
3, 274848, Note_on_c, 0, 64, 97
3, 274896, Note_off_c, 0, 64, 64
3, 274896, Note_on_c, 0, 62, 97
3, 274944, Note_off_c, 0, 62, 64
3, 274944, Note_on_c, 0, 62, 97
3, 274992, Note_off_c, 0, 62, 64
3, 274992, Note_on_c, 0, 60, 97
3, 275040, Note_off_c, 0, 60, 64
3, 275040, Note_on_c, 0, 62, 97
3, 275088, Note_off_c, 0, 62, 64
3, 275088, Note_on_c, 0, 60, 97
3, 275136, Note_off_c, 0, 60, 64
3, 275136, Note_on_c, 0, 62, 97
3, 275184, Note_off_c, 0, 62, 64
3, 275184, Note_on_c, 0, 60, 97
3, 275232, Note_off_c, 0, 60, 64
3, 275232, Note_on_c, 0, 62, 97
3, 275280, Note_off_c, 0, 62, 64
3, 275280, Note_on_c, 0, 60, 97
3, 275328, Note_off_c, 0, 60, 64
3, 275328, Note_on_c, 0, 62, 97
3, 275376, Note_off_c, 0, 62, 64
3, 275376, Note_on_c, 0, 60, 97
3, 275424, Note_off_c, 0, 60, 64
3, 275424, Note_on_c, 0, 62, 97
3, 275472, Note_off_c, 0, 62, 64
3, 275472, Note_on_c, 0, 60, 97
3, 275520, Note_off_c, 0, 60, 64
3, 275520, Note_on_c, 0, 62, 97
3, 275568, Note_off_c, 0, 62, 64
3, 275568, Note_on_c, 0, 60, 97
3, 275616, Note_off_c, 0, 60, 64
3, 275616, Note_on_c, 0, 62, 97
3, 275664, Note_off_c, 0, 62, 64
3, 275664, Note_on_c, 0, 60, 97
3, 275712, Note_off_c, 0, 60, 64
3, 275712, Note_on_c, 0, 59, 97
3, 276096, Note_off_c, 0, 59, 64
3, 276096, Note_on_c, 0, 64, 97
3, 276672, Note_off_c, 0, 64, 64
3, 276672, Note_on_c, 0, 66, 97
3, 276768, Note_off_c, 0, 66, 64
3, 276768, Note_on_c, 0, 67, 97
3, 276864, Note_off_c, 0, 67, 64
3, 276864, Note_on_c, 0, 66, 97
3, 276960, Note_off_c, 0, 66, 64
3, 276960, Note_on_c, 0, 64, 97
3, 277056, Note_off_c, 0, 64, 64
3, 277056, Note_on_c, 0, 62, 97
3, 277248, Note_off_c, 0, 62, 64
3, 277248, Note_on_c, 0, 61, 97
3, 278016, Note_off_c, 0, 61, 64
3, 278400, Note_on_c, 0, 59, 97
3, 278784, Note_off_c, 0, 59, 64
3, 278784, Note_on_c, 0, 64, 97
3, 279168, Note_off_c, 0, 64, 64
3, 279168, Note_on_c, 0, 69, 97
3, 279552, Note_off_c, 0, 69, 64
3, 279552, Note_on_c, 0, 66, 97
3, 279936, Note_off_c, 0, 66, 64
3, 279936, Note_on_c, 0, 57, 97
3, 280320, Note_off_c, 0, 57, 64
3, 280320, Note_on_c, 0, 62, 97
3, 280704, Note_off_c, 0, 62, 64
3, 280704, Note_on_c, 0, 67, 97
3, 281088, Note_off_c, 0, 67, 64
3, 281088, Note_on_c, 0, 64, 97
3, 281472, Note_off_c, 0, 64, 64
3, 281472, Note_on_c, 0, 55, 97
3, 281856, Note_off_c, 0, 55, 64
3, 281856, Note_on_c, 0, 54, 97
3, 282048, Note_off_c, 0, 54, 64
3, 282048, Note_on_c, 0, 58, 97
3, 282240, Note_off_c, 0, 58, 64
3, 282240, Note_on_c, 0, 59, 97
3, 282432, Note_off_c, 0, 59, 64
3, 282432, Note_on_c, 0, 61, 97
3, 282624, Note_off_c, 0, 61, 64
3, 282624, Note_on_c, 0, 58, 97
3, 283200, Note_off_c, 0, 58, 64
3, 283200, Note_on_c, 0, 59, 97
3, 283392, Note_off_c, 0, 59, 64
3, 283392, Note_on_c, 0, 59, 97
3, 283776, Note_off_c, 0, 59, 64
3, 283776, Note_on_c, 0, 66, 97
3, 284160, Note_off_c, 0, 66, 64
3, 284160, Note_on_c, 0, 71, 97
3, 284544, Note_off_c, 0, 71, 64
3, 284544, Note_on_c, 0, 76, 97
3, 284928, Note_off_c, 0, 76, 64
3, 284928, Note_on_c, 0, 73, 97
3, 285312, Note_off_c, 0, 73, 64
3, 285312, Note_on_c, 0, 64, 97
3, 285696, Note_off_c, 0, 64, 64
3, 285696, Note_on_c, 0, 69, 97
3, 286080, Note_off_c, 0, 69, 64
3, 286080, Note_on_c, 0, 74, 97
3, 286464, Note_off_c, 0, 74, 64
3, 286464, Note_on_c, 0, 71, 97
3, 286848, Note_off_c, 0, 71, 64
3, 286848, Note_on_c, 0, 62, 97
3, 287232, Note_off_c, 0, 62, 64
3, 287232, Note_on_c, 0, 67, 97
3, 287616, Note_off_c, 0, 67, 64
3, 287616, Note_on_c, 0, 72, 97
3, 288000, Note_off_c, 0, 72, 64
3, 288000, Note_on_c, 0, 70, 97
3, 288192, Note_off_c, 0, 70, 64
3, 288192, Note_on_c, 0, 76, 97
3, 288384, Note_off_c, 0, 76, 64
3, 288384, Note_on_c, 0, 74, 97
3, 288576, Note_off_c, 0, 74, 64
3, 288576, Note_on_c, 0, 73, 97
3, 288768, Note_off_c, 0, 73, 64
3, 288768, Note_on_c, 0, 73, 97
3, 288864, Note_off_c, 0, 73, 64
3, 288864, Note_on_c, 0, 74, 97
3, 288960, Note_off_c, 0, 74, 64
3, 288960, Note_on_c, 0, 73, 97
3, 289344, Note_off_c, 0, 73, 64
3, 289344, Note_on_c, 0, 71, 97
3, 289536, Note_off_c, 0, 71, 64
3, 289536, Note_on_c, 0, 71, 97
3, 290304, Note_off_c, 0, 71, 64
3, 290688, Note_on_c, 0, 73, 97
3, 290880, Note_off_c, 0, 73, 64
3, 290880, Note_on_c, 0, 74, 97
3, 290976, Note_off_c, 0, 74, 64
3, 290976, Note_on_c, 0, 76, 97
3, 291072, Note_off_c, 0, 76, 64
3, 291072, Note_on_c, 0, 70, 97
3, 291456, Note_off_c, 0, 70, 64
3, 291456, Note_on_c, 0, 71, 97
3, 291648, Note_off_c, 0, 71, 64
3, 291648, Note_on_c, 0, 73, 97
3, 291840, Note_off_c, 0, 73, 64
3, 291840, Note_on_c, 0, 70, 97
3, 291936, Note_off_c, 0, 70, 64
3, 291936, Note_on_c, 0, 71, 97
3, 292032, Note_off_c, 0, 71, 64
3, 292032, Note_on_c, 0, 70, 97
3, 292416, Note_off_c, 0, 70, 64
3, 292416, Note_on_c, 0, 71, 97
3, 292608, Note_off_c, 0, 71, 64
3, 292608, Note_on_c, 0, 71, 97
3, 294144, Note_off_c, 0, 71, 64
3, 306436, Note_on_c, 0, 64, 97
3, 306820, Note_on_c, 0, 71, 97
3, 306824, Note_off_c, 0, 64, 64
3, 307204, Note_on_c, 0, 71, 97
3, 307208, Note_off_c, 0, 71, 64
3, 307588, Note_on_c, 0, 71, 97
3, 307592, Note_off_c, 0, 71, 64
3, 307972, Note_on_c, 0, 70, 97
3, 307976, Note_off_c, 0, 71, 64
3, 308068, Note_on_c, 0, 71, 97
3, 308072, Note_off_c, 0, 70, 64
3, 308164, Note_on_c, 0, 70, 97
3, 308168, Note_off_c, 0, 71, 64
3, 308360, Note_off_c, 0, 70, 64
3, 308740, Note_on_c, 0, 75, 97
3, 308868, Note_on_c, 0, 78, 97
3, 308872, Note_off_c, 0, 75, 64
3, 308996, Note_on_c, 0, 76, 97
3, 309000, Note_off_c, 0, 78, 64
3, 309124, Note_on_c, 0, 75, 97
3, 309128, Note_off_c, 0, 76, 64
3, 309252, Note_on_c, 0, 73, 97
3, 309256, Note_off_c, 0, 75, 64
3, 309380, Note_on_c, 0, 71, 97
3, 309384, Note_off_c, 0, 73, 64
3, 309508, Note_on_c, 0, 69, 97
3, 309512, Note_off_c, 0, 71, 64
3, 309796, Note_on_c, 0, 78, 97
3, 309800, Note_off_c, 0, 69, 64
3, 309892, Note_on_c, 0, 69, 97
3, 309896, Note_off_c, 0, 78, 64
3, 310276, Note_on_c, 0, 68, 97
3, 310280, Note_off_c, 0, 69, 64
3, 310372, Note_on_c, 0, 69, 97
3, 310376, Note_off_c, 0, 68, 64
3, 310468, Note_on_c, 0, 68, 97
3, 310472, Note_off_c, 0, 69, 64
3, 310664, Note_off_c, 0, 68, 64
3, 311044, Note_on_c, 0, 76, 97
3, 311428, Note_on_c, 0, 67, 97
3, 311432, Note_off_c, 0, 76, 64
3, 311812, Note_on_c, 0, 67, 97
3, 311816, Note_off_c, 0, 67, 64
3, 312196, Note_on_c, 0, 66, 97
3, 312200, Note_off_c, 0, 67, 64
3, 312580, Note_on_c, 0, 76, 97
3, 312584, Note_off_c, 0, 66, 64
3, 312964, Note_on_c, 0, 74, 97
3, 312968, Note_off_c, 0, 76, 64
3, 313348, Note_on_c, 0, 74, 97
3, 313352, Note_off_c, 0, 74, 64
3, 313396, Note_on_c, 0, 73, 97
3, 313400, Note_off_c, 0, 74, 64
3, 313444, Note_on_c, 0, 74, 97
3, 313448, Note_off_c, 0, 73, 64
3, 313492, Note_on_c, 0, 73, 97
3, 313496, Note_off_c, 0, 74, 64
3, 313540, Note_on_c, 0, 74, 97
3, 313544, Note_off_c, 0, 73, 64
3, 313588, Note_on_c, 0, 73, 97
3, 313592, Note_off_c, 0, 74, 64
3, 313636, Note_on_c, 0, 71, 97
3, 313640, Note_off_c, 0, 73, 64
3, 313684, Note_on_c, 0, 73, 97
3, 313688, Note_off_c, 0, 71, 64
3, 313732, Note_on_c, 0, 74, 97
3, 313736, Note_off_c, 0, 73, 64
3, 313924, Note_on_c, 0, 73, 97
3, 313928, Note_off_c, 0, 74, 64
3, 314116, Note_on_c, 0, 71, 97
3, 314120, Note_off_c, 0, 73, 64
3, 314308, Note_on_c, 0, 70, 97
3, 314312, Note_off_c, 0, 71, 64
3, 314500, Note_on_c, 0, 71, 97
3, 314504, Note_off_c, 0, 70, 64
3, 314628, Note_on_c, 0, 59, 97
3, 314632, Note_off_c, 0, 71, 64
3, 314756, Note_on_c, 0, 61, 97
3, 314760, Note_off_c, 0, 59, 64
3, 314884, Note_on_c, 0, 62, 97
3, 314888, Note_off_c, 0, 61, 64
3, 315012, Note_on_c, 0, 59, 97
3, 315016, Note_off_c, 0, 62, 64
3, 315140, Note_on_c, 0, 64, 97
3, 315144, Note_off_c, 0, 59, 64
3, 315268, Note_on_c, 0, 66, 97
3, 315272, Note_off_c, 0, 64, 64
3, 315396, Note_on_c, 0, 59, 97
3, 315400, Note_off_c, 0, 66, 64
3, 315524, Note_on_c, 0, 68, 97
3, 315528, Note_off_c, 0, 59, 64
3, 315652, Note_on_c, 0, 69, 97
3, 315656, Note_off_c, 0, 68, 64
3, 315780, Note_on_c, 0, 60, 97
3, 315784, Note_off_c, 0, 69, 64
3, 315908, Note_on_c, 0, 62, 97
3, 315912, Note_off_c, 0, 60, 64
3, 316036, Note_on_c, 0, 64, 97
3, 316040, Note_off_c, 0, 62, 64
3, 316164, Note_on_c, 0, 60, 97
3, 316168, Note_off_c, 0, 64, 64
3, 316292, Note_on_c, 0, 66, 97
3, 316296, Note_off_c, 0, 60, 64
3, 316420, Note_on_c, 0, 67, 97
3, 316424, Note_off_c, 0, 66, 64
3, 316548, Note_on_c, 0, 60, 97
3, 316552, Note_off_c, 0, 67, 64
3, 316676, Note_on_c, 0, 69, 97
3, 316680, Note_off_c, 0, 60, 64
3, 316804, Note_on_c, 0, 59, 97
3, 316808, Note_off_c, 0, 69, 64
3, 316932, Note_on_c, 0, 55, 97
3, 316936, Note_off_c, 0, 59, 64
3, 317060, Note_on_c, 0, 57, 97
3, 317064, Note_off_c, 0, 55, 64
3, 317188, Note_on_c, 0, 59, 97
3, 317192, Note_off_c, 0, 57, 64
3, 317316, Note_on_c, 0, 55, 97
3, 317320, Note_off_c, 0, 59, 64
3, 317444, Note_on_c, 0, 61, 97
3, 317448, Note_off_c, 0, 55, 64
3, 317572, Note_on_c, 0, 63, 97
3, 317576, Note_off_c, 0, 61, 64
3, 317700, Note_on_c, 0, 55, 97
3, 317704, Note_off_c, 0, 63, 64
3, 317828, Note_on_c, 0, 64, 97
3, 317832, Note_off_c, 0, 55, 64
3, 317956, Note_on_c, 0, 66, 97
3, 317960, Note_off_c, 0, 64, 64
3, 318084, Note_on_c, 0, 57, 97
3, 318088, Note_off_c, 0, 66, 64
3, 318212, Note_on_c, 0, 59, 97
3, 318216, Note_off_c, 0, 57, 64
3, 318340, Note_on_c, 0, 61, 97
3, 318344, Note_off_c, 0, 59, 64
3, 318468, Note_on_c, 0, 57, 97
3, 318472, Note_off_c, 0, 61, 64
3, 318596, Note_on_c, 0, 63, 97
3, 318600, Note_off_c, 0, 57, 64
3, 318724, Note_on_c, 0, 64, 97
3, 318728, Note_off_c, 0, 63, 64
3, 318852, Note_on_c, 0, 57, 97
3, 318856, Note_off_c, 0, 64, 64
3, 318980, Note_on_c, 0, 66, 97
3, 318984, Note_off_c, 0, 57, 64
3, 319108, Note_on_c, 0, 55, 97
3, 319112, Note_off_c, 0, 66, 64
3, 319236, Note_on_c, 0, 52, 97
3, 319240, Note_off_c, 0, 55, 64
3, 319364, Note_on_c, 0, 54, 97
3, 319368, Note_off_c, 0, 52, 64
3, 319492, Note_on_c, 0, 55, 97
3, 319496, Note_off_c, 0, 54, 64
3, 319620, Note_on_c, 0, 57, 97
3, 319624, Note_off_c, 0, 55, 64
3, 319748, Note_on_c, 0, 59, 97
3, 319752, Note_off_c, 0, 57, 64
3, 319876, Note_on_c, 0, 61, 97
3, 319880, Note_off_c, 0, 59, 64
3, 320004, Note_on_c, 0, 63, 97
3, 320008, Note_off_c, 0, 61, 64
3, 320132, Note_on_c, 0, 64, 97
3, 320136, Note_off_c, 0, 63, 64
3, 320260, Note_on_c, 0, 63, 97
3, 320264, Note_off_c, 0, 64, 64
3, 320388, Note_on_c, 0, 64, 97
3, 320392, Note_off_c, 0, 63, 64
3, 320516, Note_on_c, 0, 66, 97
3, 320520, Note_off_c, 0, 64, 64
3, 320644, Note_on_c, 0, 64, 97
3, 320648, Note_off_c, 0, 66, 64
3, 320772, Note_on_c, 0, 66, 97
3, 320776, Note_off_c, 0, 64, 64
3, 320900, Note_on_c, 0, 67, 97
3, 320904, Note_off_c, 0, 66, 64
3, 321028, Note_on_c, 0, 69, 97
3, 321032, Note_off_c, 0, 67, 64
3, 321156, Note_on_c, 0, 71, 97
3, 321160, Note_off_c, 0, 69, 64
3, 321284, Note_on_c, 0, 67, 97
3, 321288, Note_off_c, 0, 71, 64
3, 321412, Note_on_c, 0, 66, 97
3, 321416, Note_off_c, 0, 67, 64
3, 321540, Note_on_c, 0, 69, 97
3, 321544, Note_off_c, 0, 66, 64
3, 321668, Note_on_c, 0, 67, 97
3, 321672, Note_off_c, 0, 69, 64
3, 321796, Note_on_c, 0, 66, 97
3, 321800, Note_off_c, 0, 67, 64
3, 321924, Note_on_c, 0, 69, 97
3, 321928, Note_off_c, 0, 66, 64
3, 322052, Note_on_c, 0, 64, 97
3, 322056, Note_off_c, 0, 69, 64
3, 322180, Note_on_c, 0, 63, 97
3, 322184, Note_off_c, 0, 64, 64
3, 322308, Note_on_c, 0, 69, 97
3, 322312, Note_off_c, 0, 63, 64
3, 322436, Note_on_c, 0, 61, 97
3, 322440, Note_off_c, 0, 69, 64
3, 322564, Note_on_c, 0, 62, 97
3, 322568, Note_off_c, 0, 61, 64
3, 322692, Note_on_c, 0, 68, 97
3, 322696, Note_off_c, 0, 62, 64
3, 322820, Note_on_c, 0, 69, 97
3, 322824, Note_off_c, 0, 68, 64
3, 322948, Note_on_c, 0, 71, 97
3, 322952, Note_off_c, 0, 69, 64
3, 323844, Note_on_c, 0, 76, 97
3, 323848, Note_off_c, 0, 71, 64
3, 323972, Note_on_c, 0, 71, 97
3, 323976, Note_off_c, 0, 76, 64
3, 324100, Note_on_c, 0, 69, 97
3, 324104, Note_off_c, 0, 71, 64
3, 324228, Note_on_c, 0, 76, 97
3, 324232, Note_off_c, 0, 69, 64
3, 324356, Note_on_c, 0, 67, 97
3, 324360, Note_off_c, 0, 76, 64
3, 324484, Note_on_c, 0, 66, 97
3, 324488, Note_off_c, 0, 67, 64
3, 324612, Note_on_c, 0, 76, 97
3, 324616, Note_off_c, 0, 66, 64
3, 324740, Note_on_c, 0, 64, 97
3, 324744, Note_off_c, 0, 76, 64
3, 324868, Note_on_c, 0, 63, 97
3, 324872, Note_off_c, 0, 64, 64
3, 324996, Note_on_c, 0, 66, 97
3, 325000, Note_off_c, 0, 63, 64
3, 325124, Note_on_c, 0, 67, 97
3, 325128, Note_off_c, 0, 66, 64
3, 325252, Note_on_c, 0, 69, 97
3, 325256, Note_off_c, 0, 67, 64
3, 325380, Note_on_c, 0, 57, 97
3, 325384, Note_off_c, 0, 69, 64
3, 325508, Note_on_c, 0, 67, 97
3, 325512, Note_off_c, 0, 57, 64
3, 325636, Note_on_c, 0, 66, 97
3, 325640, Note_off_c, 0, 67, 64
3, 325764, Note_on_c, 0, 57, 97
3, 325768, Note_off_c, 0, 66, 64
3, 325892, Note_on_c, 0, 67, 97
3, 325896, Note_off_c, 0, 57, 64
3, 326020, Note_on_c, 0, 69, 97
3, 326024, Note_off_c, 0, 67, 64
3, 326148, Note_on_c, 0, 67, 97
3, 326152, Note_off_c, 0, 69, 64
3, 326276, Note_on_c, 0, 66, 97
3, 326280, Note_off_c, 0, 67, 64
3, 326404, Note_on_c, 0, 64, 97
3, 326408, Note_off_c, 0, 66, 64
3, 326532, Note_on_c, 0, 66, 97
3, 326536, Note_off_c, 0, 64, 64
3, 326660, Note_on_c, 0, 63, 97
3, 326664, Note_off_c, 0, 66, 64
3, 326788, Note_on_c, 0, 64, 97
3, 326792, Note_off_c, 0, 63, 64
3, 326916, Note_on_c, 0, 66, 97
3, 326920, Note_off_c, 0, 64, 64
3, 327044, Note_on_c, 0, 63, 97
3, 327048, Note_off_c, 0, 66, 64
3, 327172, Note_on_c, 0, 64, 97
3, 327176, Note_off_c, 0, 63, 64
3, 327300, Note_on_c, 0, 69, 97
3, 327304, Note_off_c, 0, 64, 64
3, 327428, Note_on_c, 0, 72, 97
3, 327432, Note_off_c, 0, 69, 64
3, 327556, Note_on_c, 0, 71, 97
3, 327560, Note_off_c, 0, 72, 64
3, 327684, Note_on_c, 0, 72, 97
3, 327688, Note_off_c, 0, 71, 64
3, 327812, Note_on_c, 0, 69, 97
3, 327816, Note_off_c, 0, 72, 64
3, 327940, Note_on_c, 0, 67, 97
3, 327944, Note_off_c, 0, 69, 64
3, 328068, Note_on_c, 0, 69, 97
3, 328072, Note_off_c, 0, 67, 64
3, 328196, Note_on_c, 0, 66, 97
3, 328200, Note_off_c, 0, 69, 64
3, 328324, Note_on_c, 0, 67, 97
3, 328328, Note_off_c, 0, 66, 64
3, 328836, Note_on_c, 0, 64, 97
3, 328840, Note_off_c, 0, 67, 64
3, 328964, Note_on_c, 0, 67, 97
3, 328968, Note_off_c, 0, 64, 64
3, 329092, Note_on_c, 0, 72, 97
3, 329096, Note_off_c, 0, 67, 64
3, 329860, Note_on_c, 0, 72, 97
3, 329864, Note_off_c, 0, 72, 64
3, 329988, Note_on_c, 0, 62, 97
3, 329992, Note_off_c, 0, 72, 64
3, 330116, Note_on_c, 0, 66, 97
3, 330120, Note_off_c, 0, 62, 64
3, 330244, Note_on_c, 0, 71, 97
3, 330248, Note_off_c, 0, 66, 64
3, 330756, Note_on_c, 0, 67, 97
3, 330760, Note_off_c, 0, 71, 64
3, 330884, Note_on_c, 0, 71, 97
3, 330888, Note_off_c, 0, 67, 64
3, 331012, Note_on_c, 0, 76, 97
3, 331016, Note_off_c, 0, 71, 64
3, 331524, Note_on_c, 0, 72, 97
3, 331528, Note_off_c, 0, 76, 64
3, 331652, Note_on_c, 0, 69, 97
3, 331656, Note_off_c, 0, 72, 64
3, 331780, Note_on_c, 0, 74, 97
3, 331784, Note_off_c, 0, 69, 64
3, 331908, Note_on_c, 0, 66, 97
3, 331912, Note_off_c, 0, 74, 64
3, 332036, Note_on_c, 0, 71, 97
3, 332040, Note_off_c, 0, 66, 64
3, 332164, Note_on_c, 0, 74, 97
3, 332168, Note_off_c, 0, 71, 64
3, 332676, Note_on_c, 0, 71, 97
3, 332680, Note_off_c, 0, 74, 64
3, 332804, Note_on_c, 0, 67, 97
3, 332808, Note_off_c, 0, 71, 64
3, 332932, Note_on_c, 0, 72, 97
3, 332936, Note_off_c, 0, 67, 64
3, 334212, Note_on_c, 0, 71, 97
3, 334216, Note_off_c, 0, 72, 64
3, 334340, Note_on_c, 0, 69, 97
3, 334344, Note_off_c, 0, 71, 64
3, 334468, Note_on_c, 0, 72, 97
3, 334472, Note_off_c, 0, 69, 64
3, 334596, Note_on_c, 0, 69, 97
3, 334600, Note_off_c, 0, 72, 64
3, 334724, Note_on_c, 0, 67, 97
3, 334728, Note_off_c, 0, 69, 64
3, 334852, Note_on_c, 0, 72, 97
3, 334856, Note_off_c, 0, 67, 64
3, 334980, Note_on_c, 0, 67, 97
3, 334984, Note_off_c, 0, 72, 64
3, 335108, Note_on_c, 0, 66, 97
3, 335112, Note_off_c, 0, 67, 64
3, 335236, Note_on_c, 0, 71, 97
3, 335240, Note_off_c, 0, 66, 64
3, 335748, Note_on_c, 0, 67, 97
3, 335752, Note_off_c, 0, 71, 64
3, 335876, Note_on_c, 0, 69, 97
3, 335880, Note_off_c, 0, 67, 64
3, 336004, Note_on_c, 0, 71, 97
3, 336008, Note_off_c, 0, 69, 64
3, 336132, Note_on_c, 0, 74, 97
3, 336136, Note_off_c, 0, 71, 64
3, 336260, Note_on_c, 0, 73, 97
3, 336264, Note_off_c, 0, 74, 64
3, 336388, Note_on_c, 0, 74, 97
3, 336392, Note_off_c, 0, 73, 64
3, 336776, Note_off_c, 0, 74, 64
3, 337540, Note_on_c, 0, 62, 97
3, 337924, Note_on_c, 0, 67, 97
3, 337928, Note_off_c, 0, 62, 64
3, 338308, Note_on_c, 0, 67, 97
3, 338312, Note_off_c, 0, 67, 64
3, 338692, Note_on_c, 0, 67, 97
3, 338696, Note_off_c, 0, 67, 64
3, 339076, Note_on_c, 0, 66, 97
3, 339080, Note_off_c, 0, 67, 64
3, 339172, Note_on_c, 0, 67, 97
3, 339176, Note_off_c, 0, 66, 64
3, 339268, Note_on_c, 0, 66, 97
3, 339272, Note_off_c, 0, 67, 64
3, 339464, Note_off_c, 0, 66, 64
3, 339844, Note_on_c, 0, 71, 97
3, 339972, Note_on_c, 0, 74, 97
3, 339976, Note_off_c, 0, 71, 64
3, 340100, Note_on_c, 0, 72, 97
3, 340104, Note_off_c, 0, 74, 64
3, 340228, Note_on_c, 0, 71, 97
3, 340232, Note_off_c, 0, 72, 64
3, 340356, Note_on_c, 0, 69, 97
3, 340360, Note_off_c, 0, 71, 64
3, 340484, Note_on_c, 0, 67, 97
3, 340488, Note_off_c, 0, 69, 64
3, 340612, Note_on_c, 0, 65, 97
3, 340616, Note_off_c, 0, 67, 64
3, 340900, Note_on_c, 0, 74, 97
3, 340904, Note_off_c, 0, 65, 64
3, 340996, Note_on_c, 0, 65, 97
3, 341000, Note_off_c, 0, 74, 64
3, 341380, Note_on_c, 0, 64, 97
3, 341384, Note_off_c, 0, 65, 64
3, 341476, Note_on_c, 0, 65, 97
3, 341480, Note_off_c, 0, 64, 64
3, 341572, Note_on_c, 0, 64, 97
3, 341576, Note_off_c, 0, 65, 64
3, 341768, Note_off_c, 0, 64, 64
3, 342148, Note_on_c, 0, 72, 97
3, 342532, Note_on_c, 0, 64, 97
3, 342536, Note_off_c, 0, 72, 64
3, 342916, Note_on_c, 0, 64, 97
3, 342920, Note_off_c, 0, 64, 64
3, 343300, Note_on_c, 0, 62, 97
3, 343304, Note_off_c, 0, 64, 64
3, 343684, Note_on_c, 0, 72, 97
3, 343688, Note_off_c, 0, 62, 64
3, 344068, Note_on_c, 0, 71, 97
3, 344072, Note_off_c, 0, 72, 64
3, 344452, Note_on_c, 0, 71, 97
3, 344456, Note_off_c, 0, 71, 64
3, 344500, Note_on_c, 0, 69, 97
3, 344504, Note_off_c, 0, 71, 64
3, 344548, Note_on_c, 0, 71, 97
3, 344552, Note_off_c, 0, 69, 64
3, 344596, Note_on_c, 0, 69, 97
3, 344600, Note_off_c, 0, 71, 64
3, 344644, Note_on_c, 0, 71, 97
3, 344648, Note_off_c, 0, 69, 64
3, 344692, Note_on_c, 0, 69, 97
3, 344696, Note_off_c, 0, 71, 64
3, 344740, Note_on_c, 0, 67, 97
3, 344744, Note_off_c, 0, 69, 64
3, 344788, Note_on_c, 0, 69, 97
3, 344792, Note_off_c, 0, 67, 64
3, 344836, Note_on_c, 0, 71, 97
3, 344840, Note_off_c, 0, 69, 64
3, 345124, Note_on_c, 0, 69, 97
3, 345128, Note_off_c, 0, 71, 64
3, 345220, Note_on_c, 0, 67, 97
3, 345224, Note_off_c, 0, 69, 64
3, 345508, Note_on_c, 0, 66, 97
3, 345512, Note_off_c, 0, 67, 64
3, 345604, Note_on_c, 0, 67, 97
3, 345608, Note_off_c, 0, 66, 64
3, 345732, Note_on_c, 0, 62, 97
3, 345736, Note_off_c, 0, 67, 64
3, 345860, Note_on_c, 0, 66, 97
3, 345864, Note_off_c, 0, 62, 64
3, 345988, Note_on_c, 0, 67, 97
3, 345992, Note_off_c, 0, 66, 64
3, 346116, Note_on_c, 0, 62, 97
3, 346120, Note_off_c, 0, 67, 64
3, 346244, Note_on_c, 0, 67, 97
3, 346248, Note_off_c, 0, 62, 64
3, 346372, Note_on_c, 0, 69, 97
3, 346376, Note_off_c, 0, 67, 64
3, 346500, Note_on_c, 0, 62, 97
3, 346504, Note_off_c, 0, 69, 64
3, 346628, Note_on_c, 0, 69, 97
3, 346632, Note_off_c, 0, 62, 64
3, 346756, Note_on_c, 0, 71, 97
3, 346760, Note_off_c, 0, 69, 64
3, 346884, Note_on_c, 0, 74, 97
3, 346888, Note_off_c, 0, 71, 64
3, 347012, Note_on_c, 0, 72, 97
3, 347016, Note_off_c, 0, 74, 64
3, 347140, Note_on_c, 0, 71, 97
3, 347144, Note_off_c, 0, 72, 64
3, 347268, Note_on_c, 0, 72, 97
3, 347272, Note_off_c, 0, 71, 64
3, 347396, Note_on_c, 0, 69, 97
3, 347400, Note_off_c, 0, 72, 64
3, 347524, Note_on_c, 0, 67, 97
3, 347528, Note_off_c, 0, 69, 64
3, 347652, Note_on_c, 0, 69, 97
3, 347656, Note_off_c, 0, 67, 64
3, 347780, Note_on_c, 0, 66, 97
3, 347784, Note_off_c, 0, 69, 64
3, 347908, Note_on_c, 0, 64, 97
3, 347912, Note_off_c, 0, 66, 64
3, 348036, Note_on_c, 0, 67, 97
3, 348040, Note_off_c, 0, 64, 64
3, 348164, Note_on_c, 0, 66, 97
3, 348168, Note_off_c, 0, 67, 64
3, 348292, Note_on_c, 0, 64, 97
3, 348296, Note_off_c, 0, 66, 64
3, 348420, Note_on_c, 0, 67, 97
3, 348424, Note_off_c, 0, 64, 64
3, 348548, Note_on_c, 0, 62, 97
3, 348552, Note_off_c, 0, 67, 64
3, 348676, Note_on_c, 0, 61, 97
3, 348680, Note_off_c, 0, 62, 64
3, 348804, Note_on_c, 0, 67, 97
3, 348808, Note_off_c, 0, 61, 64
3, 348932, Note_on_c, 0, 59, 97
3, 348936, Note_off_c, 0, 67, 64
3, 349060, Note_on_c, 0, 60, 97
3, 349064, Note_off_c, 0, 59, 64
3, 349188, Note_on_c, 0, 66, 97
3, 349192, Note_off_c, 0, 60, 64
3, 349316, Note_on_c, 0, 67, 97
3, 349320, Note_off_c, 0, 66, 64
3, 349444, Note_on_c, 0, 69, 97
3, 349448, Note_off_c, 0, 67, 64
3, 350340, Note_on_c, 0, 74, 97
3, 350344, Note_off_c, 0, 69, 64
3, 350468, Note_on_c, 0, 69, 97
3, 350472, Note_off_c, 0, 74, 64
3, 350596, Note_on_c, 0, 67, 97
3, 350600, Note_off_c, 0, 69, 64
3, 350724, Note_on_c, 0, 74, 97
3, 350728, Note_off_c, 0, 67, 64
3, 350852, Note_on_c, 0, 66, 97
3, 350856, Note_off_c, 0, 74, 64
3, 350980, Note_on_c, 0, 64, 97
3, 350984, Note_off_c, 0, 66, 64
3, 351108, Note_on_c, 0, 74, 97
3, 351112, Note_off_c, 0, 64, 64
3, 351236, Note_on_c, 0, 62, 97
3, 351240, Note_off_c, 0, 74, 64
3, 351364, Note_on_c, 0, 61, 97
3, 351368, Note_off_c, 0, 62, 64
3, 351492, Note_on_c, 0, 64, 97
3, 351496, Note_off_c, 0, 61, 64
3, 351620, Note_on_c, 0, 66, 97
3, 351624, Note_off_c, 0, 64, 64
3, 351748, Note_on_c, 0, 67, 97
3, 351752, Note_off_c, 0, 66, 64
3, 351876, Note_on_c, 0, 55, 97
3, 351880, Note_off_c, 0, 67, 64
3, 352004, Note_on_c, 0, 66, 97
3, 352008, Note_off_c, 0, 55, 64
3, 352132, Note_on_c, 0, 64, 97
3, 352136, Note_off_c, 0, 66, 64
3, 352260, Note_on_c, 0, 55, 97
3, 352264, Note_off_c, 0, 64, 64
3, 352388, Note_on_c, 0, 66, 97
3, 352392, Note_off_c, 0, 55, 64
3, 352516, Note_on_c, 0, 67, 97
3, 352520, Note_off_c, 0, 66, 64
3, 352644, Note_on_c, 0, 66, 97
3, 352648, Note_off_c, 0, 67, 64
3, 352772, Note_on_c, 0, 64, 97
3, 352776, Note_off_c, 0, 66, 64
3, 352900, Note_on_c, 0, 62, 97
3, 352904, Note_off_c, 0, 64, 64
3, 353028, Note_on_c, 0, 64, 97
3, 353032, Note_off_c, 0, 62, 64
3, 353156, Note_on_c, 0, 61, 97
3, 353160, Note_off_c, 0, 64, 64
3, 353284, Note_on_c, 0, 62, 97
3, 353288, Note_off_c, 0, 61, 64
3, 353412, Note_on_c, 0, 64, 97
3, 353416, Note_off_c, 0, 62, 64
3, 353540, Note_on_c, 0, 61, 97
3, 353544, Note_off_c, 0, 64, 64
3, 353668, Note_on_c, 0, 62, 97
3, 353672, Note_off_c, 0, 61, 64
3, 353796, Note_on_c, 0, 67, 97
3, 353800, Note_off_c, 0, 62, 64
3, 353924, Note_on_c, 0, 71, 97
3, 353928, Note_off_c, 0, 67, 64
3, 354052, Note_on_c, 0, 69, 97
3, 354056, Note_off_c, 0, 71, 64
3, 354180, Note_on_c, 0, 71, 97
3, 354184, Note_off_c, 0, 69, 64
3, 354308, Note_on_c, 0, 67, 97
3, 354312, Note_off_c, 0, 71, 64
3, 354436, Note_on_c, 0, 66, 97
3, 354440, Note_off_c, 0, 67, 64
3, 354564, Note_on_c, 0, 69, 97
3, 354568, Note_off_c, 0, 66, 64
3, 354692, Note_on_c, 0, 64, 97
3, 354696, Note_off_c, 0, 69, 64
3, 354820, Note_on_c, 0, 66, 97
3, 354824, Note_off_c, 0, 64, 64
3, 355204, Note_on_c, 0, 62, 97
3, 355208, Note_off_c, 0, 66, 64
3, 355592, Note_off_c, 0, 62, 64
3, 355972, Note_on_c, 0, 69, 97
3, 356100, Note_on_c, 0, 72, 97
3, 356104, Note_off_c, 0, 69, 64
3, 356228, Note_on_c, 0, 71, 97
3, 356232, Note_off_c, 0, 72, 64
3, 356356, Note_on_c, 0, 72, 97
3, 356360, Note_off_c, 0, 71, 64
3, 356484, Note_on_c, 0, 69, 97
3, 356488, Note_off_c, 0, 72, 64
3, 356612, Note_on_c, 0, 75, 97
3, 356616, Note_off_c, 0, 69, 64
3, 356740, Note_on_c, 0, 76, 97
3, 356744, Note_off_c, 0, 75, 64
3, 356868, Note_on_c, 0, 69, 97
3, 356872, Note_off_c, 0, 76, 64
3, 356996, Note_on_c, 0, 78, 97
3, 357000, Note_off_c, 0, 69, 64
3, 357124, Note_on_c, 0, 79, 97
3, 357128, Note_off_c, 0, 78, 64
3, 357508, Note_on_c, 0, 76, 97
3, 357512, Note_off_c, 0, 79, 64
3, 357896, Note_off_c, 0, 76, 64
3, 358276, Note_on_c, 0, 59, 97
3, 358404, Note_on_c, 0, 62, 97
3, 358408, Note_off_c, 0, 59, 64
3, 358532, Note_on_c, 0, 61, 97
3, 358536, Note_off_c, 0, 62, 64
3, 358660, Note_on_c, 0, 62, 97
3, 358664, Note_off_c, 0, 61, 64
3, 358788, Note_on_c, 0, 59, 97
3, 358792, Note_off_c, 0, 62, 64
3, 358916, Note_on_c, 0, 64, 97
3, 358920, Note_off_c, 0, 59, 64
3, 359044, Note_on_c, 0, 66, 97
3, 359048, Note_off_c, 0, 64, 64
3, 359172, Note_on_c, 0, 59, 97
3, 359176, Note_off_c, 0, 66, 64
3, 359300, Note_on_c, 0, 67, 97
3, 359304, Note_off_c, 0, 59, 64
3, 359428, Note_on_c, 0, 69, 97
3, 359432, Note_off_c, 0, 67, 64
3, 360324, Note_on_c, 0, 67, 97
3, 360328, Note_off_c, 0, 69, 64
3, 360452, Note_on_c, 0, 66, 97
3, 360456, Note_off_c, 0, 67, 64
3, 360580, Note_on_c, 0, 67, 97
3, 360584, Note_off_c, 0, 66, 64
3, 361476, Note_on_c, 0, 65, 97
3, 361480, Note_off_c, 0, 67, 64
3, 361604, Note_on_c, 0, 64, 97
3, 361608, Note_off_c, 0, 65, 64
3, 361732, Note_on_c, 0, 65, 97
3, 361736, Note_off_c, 0, 64, 64
3, 362244, Note_on_c, 0, 64, 97
3, 362248, Note_off_c, 0, 65, 64
3, 362372, Note_on_c, 0, 62, 97
3, 362376, Note_off_c, 0, 64, 64
3, 362500, Note_on_c, 0, 68, 97
3, 362504, Note_off_c, 0, 62, 64
3, 362596, Note_on_c, 0, 69, 97
3, 362600, Note_off_c, 0, 68, 64
3, 362692, Note_on_c, 0, 68, 97
3, 362696, Note_off_c, 0, 69, 64
3, 362884, Note_on_c, 0, 69, 97
3, 362888, Note_off_c, 0, 68, 64
3, 363012, Note_on_c, 0, 67, 97
3, 363016, Note_off_c, 0, 69, 64
3, 363140, Note_on_c, 0, 65, 97
3, 363144, Note_off_c, 0, 67, 64
3, 363268, Note_on_c, 0, 64, 97
3, 363272, Note_off_c, 0, 65, 64
3, 363396, Note_on_c, 0, 62, 97
3, 363400, Note_off_c, 0, 64, 64
3, 363524, Note_on_c, 0, 60, 97
3, 363528, Note_off_c, 0, 62, 64
3, 363652, Note_on_c, 0, 59, 97
3, 363656, Note_off_c, 0, 60, 64
3, 363780, Note_on_c, 0, 60, 97
3, 363784, Note_off_c, 0, 59, 64
3, 363908, Note_on_c, 0, 57, 97
3, 363912, Note_off_c, 0, 60, 64
3, 364036, Note_on_c, 0, 64, 97
3, 364040, Note_off_c, 0, 57, 64
3, 364424, Note_off_c, 0, 64, 64
3, 365188, Note_on_c, 0, 64, 97
3, 365572, Note_on_c, 0, 69, 97
3, 365576, Note_off_c, 0, 64, 64
3, 365956, Note_on_c, 0, 69, 97
3, 365960, Note_off_c, 0, 69, 64
3, 366340, Note_on_c, 0, 69, 97
3, 366344, Note_off_c, 0, 69, 64
3, 366724, Note_on_c, 0, 68, 97
3, 366728, Note_off_c, 0, 69, 64
3, 366820, Note_on_c, 0, 69, 97
3, 366824, Note_off_c, 0, 68, 64
3, 366916, Note_on_c, 0, 68, 97
3, 366920, Note_off_c, 0, 69, 64
3, 367112, Note_off_c, 0, 68, 64
3, 367492, Note_on_c, 0, 73, 97
3, 367620, Note_on_c, 0, 76, 97
3, 367624, Note_off_c, 0, 73, 64
3, 367748, Note_on_c, 0, 74, 97
3, 367752, Note_off_c, 0, 76, 64
3, 367876, Note_on_c, 0, 73, 97
3, 367880, Note_off_c, 0, 74, 64
3, 368004, Note_on_c, 0, 71, 97
3, 368008, Note_off_c, 0, 73, 64
3, 368132, Note_on_c, 0, 69, 97
3, 368136, Note_off_c, 0, 71, 64
3, 368260, Note_on_c, 0, 67, 97
3, 368264, Note_off_c, 0, 69, 64
3, 368548, Note_on_c, 0, 76, 97
3, 368552, Note_off_c, 0, 67, 64
3, 368644, Note_on_c, 0, 67, 97
3, 368648, Note_off_c, 0, 76, 64
3, 369028, Note_on_c, 0, 66, 97
3, 369032, Note_off_c, 0, 67, 64
3, 369124, Note_on_c, 0, 67, 97
3, 369128, Note_off_c, 0, 66, 64
3, 369220, Note_on_c, 0, 66, 97
3, 369224, Note_off_c, 0, 67, 64
3, 369416, Note_off_c, 0, 66, 64
3, 369796, Note_on_c, 0, 74, 97
3, 370180, Note_on_c, 0, 65, 97
3, 370184, Note_off_c, 0, 74, 64
3, 370564, Note_on_c, 0, 65, 97
3, 370568, Note_off_c, 0, 65, 64
3, 370948, Note_on_c, 0, 64, 97
3, 370952, Note_off_c, 0, 65, 64
3, 371332, Note_on_c, 0, 74, 97
3, 371336, Note_off_c, 0, 64, 64
3, 371716, Note_on_c, 0, 72, 97
3, 371720, Note_off_c, 0, 74, 64
3, 372100, Note_on_c, 0, 72, 97
3, 372104, Note_off_c, 0, 72, 64
3, 372148, Note_on_c, 0, 71, 97
3, 372152, Note_off_c, 0, 72, 64
3, 372196, Note_on_c, 0, 72, 97
3, 372200, Note_off_c, 0, 71, 64
3, 372244, Note_on_c, 0, 71, 97
3, 372248, Note_off_c, 0, 72, 64
3, 372292, Note_on_c, 0, 71, 97
3, 372296, Note_off_c, 0, 71, 64
3, 372340, Note_on_c, 0, 72, 97
3, 372344, Note_off_c, 0, 71, 64
3, 372388, Note_on_c, 0, 69, 97
3, 372392, Note_off_c, 0, 72, 64
3, 372436, Note_on_c, 0, 71, 97
3, 372440, Note_off_c, 0, 69, 64
3, 372484, Note_on_c, 0, 72, 97
3, 372488, Note_off_c, 0, 71, 64
3, 372676, Note_on_c, 0, 71, 97
3, 372680, Note_off_c, 0, 72, 64
3, 372868, Note_on_c, 0, 69, 97
3, 372872, Note_off_c, 0, 71, 64
3, 373060, Note_on_c, 0, 68, 97
3, 373064, Note_off_c, 0, 69, 64
3, 373252, Note_on_c, 0, 69, 97
3, 373256, Note_off_c, 0, 68, 64
3, 373380, Note_on_c, 0, 64, 97
3, 373384, Note_off_c, 0, 69, 64
3, 373508, Note_on_c, 0, 68, 97
3, 373512, Note_off_c, 0, 64, 64
3, 373636, Note_on_c, 0, 69, 97
3, 373640, Note_off_c, 0, 68, 64
3, 373764, Note_on_c, 0, 64, 97
3, 373768, Note_off_c, 0, 69, 64
3, 373892, Note_on_c, 0, 71, 97
3, 373896, Note_off_c, 0, 64, 64
3, 374020, Note_on_c, 0, 73, 97
3, 374024, Note_off_c, 0, 71, 64
3, 374148, Note_on_c, 0, 64, 97
3, 374152, Note_off_c, 0, 73, 64
3, 374276, Note_on_c, 0, 75, 97
3, 374280, Note_off_c, 0, 64, 64
3, 374404, Note_on_c, 0, 76, 97
3, 374408, Note_off_c, 0, 75, 64
3, 374532, Note_on_c, 0, 64, 97
3, 374536, Note_off_c, 0, 76, 64
3, 374660, Note_on_c, 0, 74, 97
3, 374664, Note_off_c, 0, 64, 64
3, 374788, Note_on_c, 0, 72, 97
3, 374792, Note_off_c, 0, 74, 64
3, 374916, Note_on_c, 0, 74, 97
3, 374920, Note_off_c, 0, 72, 64
3, 375044, Note_on_c, 0, 71, 97
3, 375048, Note_off_c, 0, 74, 64
3, 375172, Note_on_c, 0, 69, 97
3, 375176, Note_off_c, 0, 71, 64
3, 375300, Note_on_c, 0, 71, 97
3, 375304, Note_off_c, 0, 69, 64
3, 375428, Note_on_c, 0, 67, 97
3, 375432, Note_off_c, 0, 71, 64
3, 375556, Note_on_c, 0, 66, 97
3, 375560, Note_off_c, 0, 67, 64
3, 375684, Note_on_c, 0, 69, 97
3, 375688, Note_off_c, 0, 66, 64
3, 375812, Note_on_c, 0, 67, 97
3, 375816, Note_off_c, 0, 69, 64
3, 375940, Note_on_c, 0, 66, 97
3, 375944, Note_off_c, 0, 67, 64
3, 376068, Note_on_c, 0, 69, 97
3, 376072, Note_off_c, 0, 66, 64
3, 376196, Note_on_c, 0, 64, 97
3, 376200, Note_off_c, 0, 69, 64
3, 376324, Note_on_c, 0, 63, 97
3, 376328, Note_off_c, 0, 64, 64
3, 376452, Note_on_c, 0, 69, 97
3, 376456, Note_off_c, 0, 63, 64
3, 376580, Note_on_c, 0, 61, 97
3, 376584, Note_off_c, 0, 69, 64
3, 376708, Note_on_c, 0, 62, 97
3, 376712, Note_off_c, 0, 61, 64
3, 376836, Note_on_c, 0, 68, 97
3, 376840, Note_off_c, 0, 62, 64
3, 376964, Note_on_c, 0, 69, 97
3, 376968, Note_off_c, 0, 68, 64
3, 377092, Note_on_c, 0, 71, 97
3, 377096, Note_off_c, 0, 69, 64
3, 377988, Note_on_c, 0, 76, 97
3, 377992, Note_off_c, 0, 71, 64
3, 378116, Note_on_c, 0, 71, 97
3, 378120, Note_off_c, 0, 76, 64
3, 378244, Note_on_c, 0, 69, 97
3, 378248, Note_off_c, 0, 71, 64
3, 378372, Note_on_c, 0, 76, 97
3, 378376, Note_off_c, 0, 69, 64
3, 378500, Note_on_c, 0, 67, 97
3, 378504, Note_off_c, 0, 76, 64
3, 378628, Note_on_c, 0, 66, 97
3, 378632, Note_off_c, 0, 67, 64
3, 378756, Note_on_c, 0, 76, 97
3, 378760, Note_off_c, 0, 66, 64
3, 378884, Note_on_c, 0, 64, 97
3, 378888, Note_off_c, 0, 76, 64
3, 379012, Note_on_c, 0, 63, 97
3, 379016, Note_off_c, 0, 64, 64
3, 379140, Note_on_c, 0, 66, 97
3, 379144, Note_off_c, 0, 63, 64
3, 379268, Note_on_c, 0, 67, 97
3, 379272, Note_off_c, 0, 66, 64
3, 379396, Note_on_c, 0, 69, 97
3, 379400, Note_off_c, 0, 67, 64
3, 379524, Note_on_c, 0, 57, 97
3, 379528, Note_off_c, 0, 69, 64
3, 379652, Note_on_c, 0, 67, 97
3, 379656, Note_off_c, 0, 57, 64
3, 379780, Note_on_c, 0, 66, 97
3, 379784, Note_off_c, 0, 67, 64
3, 379908, Note_on_c, 0, 57, 97
3, 379912, Note_off_c, 0, 66, 64
3, 380036, Note_on_c, 0, 67, 97
3, 380040, Note_off_c, 0, 57, 64
3, 380164, Note_on_c, 0, 69, 97
3, 380168, Note_off_c, 0, 67, 64
3, 380292, Note_on_c, 0, 67, 97
3, 380296, Note_off_c, 0, 69, 64
3, 380420, Note_on_c, 0, 66, 97
3, 380424, Note_off_c, 0, 67, 64
3, 380548, Note_on_c, 0, 64, 97
3, 380552, Note_off_c, 0, 66, 64
3, 380676, Note_on_c, 0, 66, 97
3, 380680, Note_off_c, 0, 64, 64
3, 380804, Note_on_c, 0, 63, 97
3, 380808, Note_off_c, 0, 66, 64
3, 380932, Note_on_c, 0, 64, 97
3, 380936, Note_off_c, 0, 63, 64
3, 381060, Note_on_c, 0, 66, 97
3, 381064, Note_off_c, 0, 64, 64
3, 381188, Note_on_c, 0, 63, 97
3, 381192, Note_off_c, 0, 66, 64
3, 381316, Note_on_c, 0, 64, 97
3, 381320, Note_off_c, 0, 63, 64
3, 381444, Note_on_c, 0, 69, 97
3, 381448, Note_off_c, 0, 64, 64
3, 381572, Note_on_c, 0, 72, 97
3, 381576, Note_off_c, 0, 69, 64
3, 381700, Note_on_c, 0, 71, 97
3, 381704, Note_off_c, 0, 72, 64
3, 381828, Note_on_c, 0, 72, 97
3, 381832, Note_off_c, 0, 71, 64
3, 381956, Note_on_c, 0, 69, 97
3, 381960, Note_off_c, 0, 72, 64
3, 382084, Note_on_c, 0, 67, 97
3, 382088, Note_off_c, 0, 69, 64
3, 382212, Note_on_c, 0, 69, 97
3, 382216, Note_off_c, 0, 67, 64
3, 382340, Note_on_c, 0, 66, 97
3, 382344, Note_off_c, 0, 69, 64
3, 382468, Note_on_c, 0, 67, 97
3, 382472, Note_off_c, 0, 66, 64
3, 382596, Note_on_c, 0, 64, 97
3, 382600, Note_off_c, 0, 67, 64
3, 382724, Note_on_c, 0, 66, 97
3, 382728, Note_off_c, 0, 64, 64
3, 382852, Note_on_c, 0, 67, 97
3, 382856, Note_off_c, 0, 66, 64
3, 382980, Note_on_c, 0, 64, 97
3, 382984, Note_off_c, 0, 67, 64
3, 383108, Note_on_c, 0, 69, 97
3, 383112, Note_off_c, 0, 64, 64
3, 383236, Note_on_c, 0, 71, 97
3, 383240, Note_off_c, 0, 69, 64
3, 383364, Note_on_c, 0, 64, 97
3, 383368, Note_off_c, 0, 71, 64
3, 383492, Note_on_c, 0, 72, 97
3, 383496, Note_off_c, 0, 64, 64
3, 383748, Note_on_c, 0, 65, 97
3, 383752, Note_off_c, 0, 72, 64
3, 383876, Note_on_c, 0, 67, 97
3, 383880, Note_off_c, 0, 65, 64
3, 384004, Note_on_c, 0, 69, 97
3, 384008, Note_off_c, 0, 67, 64
3, 384132, Note_on_c, 0, 65, 97
3, 384136, Note_off_c, 0, 69, 64
3, 384260, Note_on_c, 0, 71, 97
3, 384264, Note_off_c, 0, 65, 64
3, 384388, Note_on_c, 0, 72, 97
3, 384392, Note_off_c, 0, 71, 64
3, 384516, Note_on_c, 0, 65, 97
3, 384520, Note_off_c, 0, 72, 64
3, 384644, Note_on_c, 0, 74, 97
3, 384648, Note_off_c, 0, 65, 64
3, 384772, Note_on_c, 0, 64, 97
3, 384776, Note_off_c, 0, 74, 64
3, 384900, Note_on_c, 0, 60, 97
3, 384904, Note_off_c, 0, 64, 64
3, 385028, Note_on_c, 0, 62, 97
3, 385032, Note_off_c, 0, 60, 64
3, 385156, Note_on_c, 0, 64, 97
3, 385160, Note_off_c, 0, 62, 64
3, 385284, Note_on_c, 0, 60, 97
3, 385288, Note_off_c, 0, 64, 64
3, 385412, Note_on_c, 0, 66, 97
3, 385416, Note_off_c, 0, 60, 64
3, 385540, Note_on_c, 0, 68, 97
3, 385544, Note_off_c, 0, 66, 64
3, 385668, Note_on_c, 0, 60, 97
3, 385672, Note_off_c, 0, 68, 64
3, 385796, Note_on_c, 0, 69, 97
3, 385800, Note_off_c, 0, 60, 64
3, 386052, Note_on_c, 0, 62, 97
3, 386056, Note_off_c, 0, 69, 64
3, 386180, Note_on_c, 0, 64, 97
3, 386184, Note_off_c, 0, 62, 64
3, 386308, Note_on_c, 0, 66, 97
3, 386312, Note_off_c, 0, 64, 64
3, 386436, Note_on_c, 0, 62, 97
3, 386440, Note_off_c, 0, 66, 64
3, 386564, Note_on_c, 0, 68, 97
3, 386568, Note_off_c, 0, 62, 64
3, 386692, Note_on_c, 0, 69, 97
3, 386696, Note_off_c, 0, 68, 64
3, 386820, Note_on_c, 0, 62, 97
3, 386824, Note_off_c, 0, 69, 64
3, 386948, Note_on_c, 0, 71, 97
3, 386952, Note_off_c, 0, 62, 64
3, 387076, Note_on_c, 0, 60, 97
3, 387080, Note_off_c, 0, 71, 64
3, 387204, Note_on_c, 0, 64, 97
3, 387208, Note_off_c, 0, 60, 64
3, 387332, Note_on_c, 0, 60, 97
3, 387336, Note_off_c, 0, 64, 64
3, 387460, Note_on_c, 0, 57, 97
3, 387464, Note_off_c, 0, 60, 64
3, 387588, Note_on_c, 0, 60, 97
3, 387592, Note_off_c, 0, 57, 64
3, 387716, Note_on_c, 0, 64, 97
3, 387720, Note_off_c, 0, 60, 64
3, 387844, Note_on_c, 0, 60, 97
3, 387848, Note_off_c, 0, 64, 64
3, 387972, Note_on_c, 0, 57, 97
3, 387976, Note_off_c, 0, 60, 64
3, 388100, Note_on_c, 0, 55, 97
3, 388104, Note_off_c, 0, 57, 64
3, 388228, Note_on_c, 0, 54, 97
3, 388232, Note_off_c, 0, 55, 64
3, 388356, Note_on_c, 0, 55, 97
3, 388360, Note_off_c, 0, 54, 64
3, 388484, Note_on_c, 0, 57, 97
3, 388488, Note_off_c, 0, 55, 64
3, 388612, Note_on_c, 0, 55, 97
3, 388616, Note_off_c, 0, 57, 64
3, 388740, Note_on_c, 0, 57, 97
3, 388744, Note_off_c, 0, 55, 64
3, 388868, Note_on_c, 0, 59, 97
3, 388872, Note_off_c, 0, 57, 64
3, 388996, Note_on_c, 0, 60, 97
3, 389000, Note_off_c, 0, 59, 64
3, 389124, Note_on_c, 0, 62, 97
3, 389128, Note_off_c, 0, 60, 64
3, 389252, Note_on_c, 0, 59, 97
3, 389256, Note_off_c, 0, 62, 64
3, 389380, Note_on_c, 0, 57, 97
3, 389384, Note_off_c, 0, 59, 64
3, 389764, Note_on_c, 0, 57, 97
3, 389768, Note_off_c, 0, 57, 64
3, 389812, Note_on_c, 0, 59, 97
3, 389816, Note_off_c, 0, 57, 64
3, 389860, Note_on_c, 0, 57, 97
3, 389864, Note_off_c, 0, 59, 64
3, 390340, Note_on_c, 0, 56, 97
3, 390344, Note_off_c, 0, 57, 64
3, 390436, Note_on_c, 0, 57, 97
3, 390440, Note_off_c, 0, 56, 64
3, 390532, Note_on_c, 0, 59, 97
3, 390536, Note_off_c, 0, 57, 64
3, 391044, Note_on_c, 0, 56, 97
3, 391048, Note_off_c, 0, 59, 64
3, 391172, Note_on_c, 0, 57, 97
3, 391176, Note_off_c, 0, 56, 64
3, 391300, Note_on_c, 0, 59, 97
3, 391304, Note_off_c, 0, 57, 64
3, 391428, Note_on_c, 0, 60, 97
3, 391432, Note_off_c, 0, 59, 64
3, 391556, Note_on_c, 0, 62, 97
3, 391560, Note_off_c, 0, 60, 64
3, 391684, Note_on_c, 0, 64, 97
3, 391688, Note_off_c, 0, 62, 64
3, 392068, Note_on_c, 0, 64, 97
3, 392072, Note_off_c, 0, 64, 64
3, 392116, Note_on_c, 0, 66, 97
3, 392120, Note_off_c, 0, 64, 64
3, 392164, Note_on_c, 0, 64, 97
3, 392168, Note_off_c, 0, 66, 64
3, 392644, Note_on_c, 0, 63, 97
3, 392648, Note_off_c, 0, 64, 64
3, 392740, Note_on_c, 0, 64, 97
3, 392744, Note_off_c, 0, 63, 64
3, 392836, Note_on_c, 0, 66, 97
3, 392840, Note_off_c, 0, 64, 64
3, 393124, Note_on_c, 0, 64, 97
3, 393128, Note_off_c, 0, 66, 64
3, 393220, Note_on_c, 0, 63, 97
3, 393224, Note_off_c, 0, 64, 64
3, 393508, Note_on_c, 0, 64, 97
3, 393512, Note_off_c, 0, 63, 64
3, 393604, Note_on_c, 0, 63, 97
3, 393608, Note_off_c, 0, 64, 64
3, 393892, Note_on_c, 0, 64, 97
3, 393896, Note_off_c, 0, 63, 64
3, 393988, Note_on_c, 0, 66, 97
3, 393992, Note_off_c, 0, 64, 64
3, 394660, Note_on_c, 0, 59, 97
3, 394664, Note_off_c, 0, 66, 64
3, 394756, Note_on_c, 0, 67, 97
3, 394760, Note_off_c, 0, 59, 64
3, 395044, Note_on_c, 0, 59, 97
3, 395048, Note_off_c, 0, 67, 64
3, 395140, Note_on_c, 0, 57, 97
3, 395144, Note_off_c, 0, 59, 64
3, 395428, Note_on_c, 0, 69, 97
3, 395432, Note_off_c, 0, 57, 64
3, 395524, Note_on_c, 0, 67, 97
3, 395528, Note_off_c, 0, 69, 64
3, 395812, Note_on_c, 0, 66, 97
3, 395816, Note_off_c, 0, 67, 64
3, 395908, Note_on_c, 0, 64, 97
3, 395912, Note_off_c, 0, 66, 64
3, 396196, Note_on_c, 0, 63, 97
3, 396200, Note_off_c, 0, 64, 64
3, 396292, Note_on_c, 0, 64, 97
3, 396296, Note_off_c, 0, 63, 64
3, 396420, Note_on_c, 0, 59, 97
3, 396424, Note_off_c, 0, 64, 64
3, 396548, Note_on_c, 0, 64, 97
3, 396552, Note_off_c, 0, 59, 64
3, 396676, Note_on_c, 0, 67, 97
3, 396680, Note_off_c, 0, 64, 64
3, 397188, Note_on_c, 0, 64, 97
3, 397192, Note_off_c, 0, 67, 64
3, 397316, Note_on_c, 0, 60, 97
3, 397320, Note_off_c, 0, 64, 64
3, 397444, Note_on_c, 0, 66, 97
3, 397448, Note_off_c, 0, 60, 64
3, 397572, Note_on_c, 0, 57, 97
3, 397576, Note_off_c, 0, 66, 64
3, 397700, Note_on_c, 0, 62, 97
3, 397704, Note_off_c, 0, 57, 64
3, 397828, Note_on_c, 0, 66, 97
3, 397832, Note_off_c, 0, 62, 64
3, 398340, Note_on_c, 0, 62, 97
3, 398344, Note_off_c, 0, 66, 64
3, 398468, Note_on_c, 0, 59, 97
3, 398472, Note_off_c, 0, 62, 64
3, 398596, Note_on_c, 0, 64, 97
3, 398600, Note_off_c, 0, 59, 64
3, 399108, Note_on_c, 0, 66, 97
3, 399112, Note_off_c, 0, 64, 64
3, 399236, Note_on_c, 0, 67, 97
3, 399240, Note_off_c, 0, 66, 64
3, 399364, Note_on_c, 0, 66, 97
3, 399368, Note_off_c, 0, 67, 64
3, 399492, Note_on_c, 0, 67, 97
3, 399496, Note_off_c, 0, 66, 64
3, 399620, Note_on_c, 0, 64, 97
3, 399624, Note_off_c, 0, 67, 64
3, 399748, Note_on_c, 0, 63, 97
3, 399752, Note_off_c, 0, 64, 64
3, 400036, Note_on_c, 0, 66, 97
3, 400040, Note_off_c, 0, 63, 64
3, 400132, Note_on_c, 0, 69, 97
3, 400136, Note_off_c, 0, 66, 64
3, 400420, Note_on_c, 0, 71, 97
3, 400424, Note_off_c, 0, 69, 64
3, 400516, Note_on_c, 0, 67, 97
3, 400520, Note_off_c, 0, 71, 64
3, 400804, Note_on_c, 0, 63, 97
3, 400808, Note_off_c, 0, 67, 64
3, 400900, Note_on_c, 0, 64, 97
3, 400904, Note_off_c, 0, 63, 64
3, 401188, Note_on_c, 0, 66, 97
3, 401192, Note_off_c, 0, 64, 64
3, 401284, Note_on_c, 0, 64, 97
3, 401288, Note_off_c, 0, 66, 64
3, 401668, Note_on_c, 0, 63, 97
3, 401672, Note_off_c, 0, 64, 64
3, 401716, Note_on_c, 0, 64, 97
3, 401720, Note_off_c, 0, 63, 64
3, 401764, Note_on_c, 0, 63, 97
3, 401768, Note_off_c, 0, 64, 64
3, 401956, Note_on_c, 0, 64, 97
3, 401960, Note_off_c, 0, 63, 64
3, 402052, Note_on_c, 0, 64, 97
3, 402056, Note_off_c, 0, 64, 64
3, 402564, Note_on_c, 0, 52, 97
3, 402568, Note_off_c, 0, 64, 64
3, 402692, Note_on_c, 0, 55, 97
3, 402696, Note_off_c, 0, 52, 64
3, 402820, Note_on_c, 0, 60, 97
3, 402824, Note_off_c, 0, 55, 64
3, 403716, Note_on_c, 0, 50, 97
3, 403720, Note_off_c, 0, 60, 64
3, 403844, Note_on_c, 0, 54, 97
3, 403848, Note_off_c, 0, 50, 64
3, 403972, Note_on_c, 0, 59, 97
3, 403976, Note_off_c, 0, 54, 64
3, 404484, Note_on_c, 0, 64, 97
3, 404488, Note_off_c, 0, 59, 64
3, 404612, Note_on_c, 0, 63, 97
3, 404616, Note_off_c, 0, 64, 64
3, 404740, Note_on_c, 0, 64, 97
3, 404744, Note_off_c, 0, 63, 64
3, 405028, Note_on_c, 0, 52, 97
3, 405032, Note_off_c, 0, 64, 64
3, 405124, Note_on_c, 0, 57, 97
3, 405128, Note_off_c, 0, 52, 64
3, 405172, Note_on_c, 0, 55, 97
3, 405176, Note_off_c, 0, 57, 64
3, 405220, Note_on_c, 0, 57, 97
3, 405224, Note_off_c, 0, 55, 64
3, 405412, Note_on_c, 0, 57, 97
3, 405416, Note_off_c, 0, 57, 64
3, 405508, Note_on_c, 0, 57, 97
3, 405512, Note_off_c, 0, 57, 64
3, 405636, Note_on_c, 0, 66, 97
3, 405640, Note_off_c, 0, 57, 64
3, 405764, Note_on_c, 0, 64, 97
3, 405768, Note_off_c, 0, 66, 64
3, 405892, Note_on_c, 0, 63, 97
3, 405896, Note_off_c, 0, 64, 64
3, 406020, Note_on_c, 0, 61, 97
3, 406024, Note_off_c, 0, 63, 64
3, 406148, Note_on_c, 0, 59, 97
3, 406152, Note_off_c, 0, 61, 64
3, 406276, Note_on_c, 0, 64, 97
3, 406280, Note_off_c, 0, 59, 64
3, 406404, Note_on_c, 0, 62, 97
3, 406408, Note_off_c, 0, 64, 64
3, 406532, Note_on_c, 0, 60, 97
3, 406536, Note_off_c, 0, 62, 64
3, 406660, Note_on_c, 0, 59, 97
3, 406664, Note_off_c, 0, 60, 64
3, 406788, Note_on_c, 0, 60, 97
3, 406792, Note_off_c, 0, 59, 64
3, 406916, Note_on_c, 0, 57, 97
3, 406920, Note_off_c, 0, 60, 64
3, 407044, Note_on_c, 0, 55, 97
3, 407048, Note_off_c, 0, 57, 64
3, 407428, Note_on_c, 0, 54, 97
3, 407432, Note_off_c, 0, 55, 64
3, 407476, Note_on_c, 0, 55, 97
3, 407480, Note_off_c, 0, 54, 64
3, 407524, Note_on_c, 0, 54, 97
3, 407528, Note_off_c, 0, 55, 64
3, 407716, Note_on_c, 0, 52, 97
3, 407720, Note_off_c, 0, 54, 64
3, 407812, Note_on_c, 0, 52, 97
3, 407816, Note_off_c, 0, 52, 64
3, 408968, Note_off_c, 0, 52, 64
3, 409088, End_track
4, 0, Start_track
4, 0, Title_t, "Track 3"
4, 0, Note_on_c, 0, 52, 102
4, 768, Note_off_c, 0, 52, 64
4, 1152, Note_on_c, 0, 51, 102
4, 1536, Note_off_c, 0, 51, 64
4, 1536, Note_on_c, 0, 52, 102
4, 2304, Note_off_c, 0, 52, 64
4, 2688, Note_on_c, 0, 54, 102
4, 3072, Note_off_c, 0, 54, 64
4, 3072, Note_on_c, 0, 55, 102
4, 3840, Note_off_c, 0, 55, 64
4, 4224, Note_on_c, 0, 60, 102
4, 4608, Note_off_c, 0, 60, 64
4, 4608, Note_on_c, 0, 54, 102
4, 5376, Note_off_c, 0, 54, 64
4, 5760, Note_on_c, 0, 47, 102
4, 6144, Note_off_c, 0, 47, 64
4, 6144, Note_on_c, 0, 40, 102
4, 6528, Note_off_c, 0, 40, 64
4, 6528, Note_on_c, 0, 52, 102
4, 6912, Note_off_c, 0, 52, 64
4, 6912, Note_on_c, 0, 55, 102
4, 7296, Note_off_c, 0, 55, 64
4, 7296, Note_on_c, 0, 59, 102
4, 7680, Note_off_c, 0, 59, 64
4, 7680, Note_on_c, 0, 48, 102
4, 8064, Note_off_c, 0, 48, 64
4, 8064, Note_on_c, 0, 60, 102
4, 8256, Note_off_c, 0, 60, 64
4, 8256, Note_on_c, 0, 59, 102
4, 8448, Note_off_c, 0, 59, 64
4, 8448, Note_on_c, 0, 60, 102
4, 8832, Note_off_c, 0, 60, 64
4, 8832, Note_on_c, 0, 48, 102
4, 9216, Note_off_c, 0, 48, 64
4, 9216, Note_on_c, 0, 47, 102
4, 9408, Note_off_c, 0, 47, 64
4, 9408, Note_on_c, 0, 59, 102
4, 9600, Note_off_c, 0, 59, 64
4, 9600, Note_on_c, 0, 57, 102
4, 9792, Note_off_c, 0, 57, 64
4, 9792, Note_on_c, 0, 59, 102
4, 9984, Note_off_c, 0, 59, 64
4, 9984, Note_on_c, 0, 55, 102
4, 10176, Note_off_c, 0, 55, 64
4, 10176, Note_on_c, 0, 59, 102
4, 10368, Note_off_c, 0, 59, 64
4, 10368, Note_on_c, 0, 52, 102
4, 10560, Note_off_c, 0, 52, 64
4, 10560, Note_on_c, 0, 55, 102
4, 10752, Note_off_c, 0, 55, 64
4, 10752, Note_on_c, 0, 46, 102
4, 12288, Note_off_c, 0, 46, 64
4, 12288, Note_on_c, 0, 47, 102
4, 12672, Note_off_c, 0, 47, 64
4, 12672, Note_on_c, 0, 59, 102
4, 13056, Note_off_c, 0, 59, 64
4, 13056, Note_on_c, 0, 57, 102
4, 13440, Note_off_c, 0, 57, 64
4, 13440, Note_on_c, 0, 60, 102
4, 13824, Note_off_c, 0, 60, 64
4, 13824, Note_on_c, 0, 59, 102
4, 14208, Note_off_c, 0, 59, 64
4, 14208, Note_on_c, 0, 57, 102
4, 14592, Note_off_c, 0, 57, 64
4, 14592, Note_on_c, 0, 55, 102
4, 15360, Note_off_c, 0, 55, 64
4, 15744, Note_on_c, 0, 60, 102
4, 16128, Note_off_c, 0, 60, 64
4, 16128, Note_on_c, 0, 57, 102
4, 16512, Note_off_c, 0, 57, 64
4, 16512, Note_on_c, 0, 59, 102
4, 16896, Note_off_c, 0, 59, 64
4, 16896, Note_on_c, 0, 52, 102
4, 17664, Note_off_c, 0, 52, 64
4, 17664, Note_on_c, 0, 50, 102
4, 18432, Note_off_c, 0, 50, 64
4, 18432, Note_on_c, 0, 48, 102
4, 19200, Note_off_c, 0, 48, 64
4, 19200, Note_on_c, 0, 47, 102
4, 19968, Note_off_c, 0, 47, 64
4, 19968, Note_on_c, 0, 45, 102
4, 20736, Note_off_c, 0, 45, 64
4, 20736, Note_on_c, 0, 43, 102
4, 21504, Note_off_c, 0, 43, 64
4, 21504, Note_on_c, 0, 42, 102
4, 22272, Note_off_c, 0, 42, 64
4, 22656, Note_on_c, 0, 54, 102
4, 23040, Note_off_c, 0, 54, 64
4, 23040, Note_on_c, 0, 59, 102
4, 23424, Note_off_c, 0, 59, 64
4, 23424, Note_on_c, 0, 54, 102
4, 23808, Note_off_c, 0, 54, 64
4, 23808, Note_on_c, 0, 55, 102
4, 24576, Note_off_c, 0, 55, 64
4, 24960, Note_on_c, 0, 60, 102
4, 25344, Note_off_c, 0, 60, 64
4, 25344, Note_on_c, 0, 57, 102
4, 25728, Note_off_c, 0, 57, 64
4, 25728, Note_on_c, 0, 59, 102
4, 26112, Note_off_c, 0, 59, 64
4, 26112, Note_on_c, 0, 52, 102
4, 26880, Note_off_c, 0, 52, 64
4, 26880, Note_on_c, 0, 50, 102
4, 27648, Note_off_c, 0, 50, 64
4, 27648, Note_on_c, 0, 48, 102
4, 28416, Note_off_c, 0, 48, 64
4, 28416, Note_on_c, 0, 47, 102
4, 29184, Note_off_c, 0, 47, 64
4, 29184, Note_on_c, 0, 45, 102
4, 29952, Note_off_c, 0, 45, 64
4, 29952, Note_on_c, 0, 43, 102
4, 30720, Note_off_c, 0, 43, 64
4, 30720, Note_on_c, 0, 42, 102
4, 31488, Note_off_c, 0, 42, 64
4, 31872, Note_on_c, 0, 47, 102
4, 32256, Note_off_c, 0, 47, 64
4, 32256, Note_on_c, 0, 51, 102
4, 32640, Note_off_c, 0, 51, 64
4, 32640, Note_on_c, 0, 47, 102
4, 33024, Note_off_c, 0, 47, 64
4, 33024, Note_on_c, 0, 52, 102
4, 33408, Note_off_c, 0, 52, 64
4, 33408, Note_on_c, 0, 49, 102
4, 33792, Note_off_c, 0, 49, 64
4, 33792, Note_on_c, 0, 54, 102
4, 34176, Note_off_c, 0, 54, 64
4, 34176, Note_on_c, 0, 52, 102
4, 34560, Note_off_c, 0, 52, 64
4, 34560, Note_on_c, 0, 54, 102
4, 34944, Note_off_c, 0, 54, 64
4, 34944, Note_on_c, 0, 42, 102
4, 35328, Note_off_c, 0, 42, 64
4, 35328, Note_on_c, 0, 47, 102
4, 36096, Note_off_c, 0, 47, 64
4, 36096, Note_on_c, 0, 45, 102
4, 36864, Note_off_c, 0, 45, 64
4, 36864, Note_on_c, 0, 43, 102
4, 37632, Note_off_c, 0, 43, 64
4, 37632, Note_on_c, 0, 42, 102
4, 38400, Note_off_c, 0, 42, 64
4, 38400, Note_on_c, 0, 54, 102
4, 39168, Note_off_c, 0, 54, 64
4, 39168, Note_on_c, 0, 52, 102
4, 39936, Note_off_c, 0, 52, 64
4, 39936, Note_on_c, 0, 50, 102
4, 40704, Note_off_c, 0, 50, 64
4, 41088, Note_on_c, 0, 55, 102
4, 41472, Note_off_c, 0, 55, 64
4, 41472, Note_on_c, 0, 52, 102
4, 41856, Note_off_c, 0, 52, 64
4, 41856, Note_on_c, 0, 54, 102
4, 42240, Note_off_c, 0, 54, 64
4, 42240, Note_on_c, 0, 47, 102
4, 43008, Note_off_c, 0, 47, 64
4, 43008, Note_on_c, 0, 45, 102
4, 43776, Note_off_c, 0, 45, 64
4, 43776, Note_on_c, 0, 43, 102
4, 44544, Note_off_c, 0, 43, 64
4, 44544, Note_on_c, 0, 42, 102
4, 45312, Note_off_c, 0, 42, 64
4, 45312, Note_on_c, 0, 52, 102
4, 46080, Note_off_c, 0, 52, 64
4, 46080, Note_on_c, 0, 50, 102
4, 46848, Note_off_c, 0, 50, 64
4, 46848, Note_on_c, 0, 49, 102
4, 47616, Note_off_c, 0, 49, 64
4, 48000, Note_on_c, 0, 49, 102
4, 48384, Note_off_c, 0, 49, 64
4, 48384, Note_on_c, 0, 54, 102
4, 48768, Note_off_c, 0, 54, 64
4, 48768, Note_on_c, 0, 49, 102
4, 49152, Note_off_c, 0, 49, 64
4, 49152, Note_on_c, 0, 50, 102
4, 49920, Note_off_c, 0, 50, 64
4, 50304, Note_on_c, 0, 55, 102
4, 50688, Note_off_c, 0, 55, 64
4, 50688, Note_on_c, 0, 52, 102
4, 51072, Note_off_c, 0, 52, 64
4, 51072, Note_on_c, 0, 54, 102
4, 51456, Note_off_c, 0, 54, 64
4, 51456, Note_on_c, 0, 47, 102
4, 52224, Note_off_c, 0, 47, 64
4, 52224, Note_on_c, 0, 45, 102
4, 52992, Note_off_c, 0, 45, 64
4, 52992, Note_on_c, 0, 43, 102
4, 53760, Note_off_c, 0, 43, 64
4, 53760, Note_on_c, 0, 42, 102
4, 54528, Note_off_c, 0, 42, 64
4, 54528, Note_on_c, 0, 52, 102
4, 55296, Note_off_c, 0, 52, 64
4, 55296, Note_on_c, 0, 50, 102
4, 56064, Note_off_c, 0, 50, 64
4, 56064, Note_on_c, 0, 49, 102
4, 56832, Note_off_c, 0, 49, 64
4, 56832, Note_on_c, 0, 54, 102
4, 57216, Note_off_c, 0, 54, 64
4, 57216, Note_on_c, 0, 52, 102
4, 57600, Note_off_c, 0, 52, 64
4, 57600, Note_on_c, 0, 54, 102
4, 57984, Note_off_c, 0, 54, 64
4, 57984, Note_on_c, 0, 42, 102
4, 58368, Note_off_c, 0, 42, 64
4, 58368, Note_on_c, 0, 47, 102
4, 58752, Note_off_c, 0, 47, 64
4, 58752, Note_on_c, 0, 47, 102
4, 59136, Note_off_c, 0, 47, 64
4, 59136, Note_on_c, 0, 47, 102
4, 59520, Note_off_c, 0, 47, 64
4, 59520, Note_on_c, 0, 47, 102
4, 59904, Note_off_c, 0, 47, 64
4, 59904, Note_on_c, 0, 49, 102
4, 60288, Note_off_c, 0, 49, 64
4, 60288, Note_on_c, 0, 51, 102
4, 60672, Note_off_c, 0, 51, 64
4, 60672, Note_on_c, 0, 40, 102
4, 61056, Note_off_c, 0, 40, 64
4, 61056, Note_on_c, 0, 52, 102
4, 61440, Note_off_c, 0, 52, 64
4, 61440, Note_on_c, 0, 52, 102
4, 61824, Note_off_c, 0, 52, 64
4, 61824, Note_on_c, 0, 52, 102
4, 62208, Note_off_c, 0, 52, 64
4, 62208, Note_on_c, 0, 54, 102
4, 62592, Note_off_c, 0, 54, 64
4, 62592, Note_on_c, 0, 55, 102
4, 62976, Note_off_c, 0, 55, 64
4, 62976, Note_on_c, 0, 45, 102
4, 63360, Note_off_c, 0, 45, 64
4, 63360, Note_on_c, 0, 57, 102
4, 63744, Note_off_c, 0, 57, 64
4, 63744, Note_on_c, 0, 57, 102
4, 64128, Note_off_c, 0, 57, 64
4, 64128, Note_on_c, 0, 57, 102
4, 64512, Note_off_c, 0, 57, 64
4, 64512, Note_on_c, 0, 59, 102
4, 64896, Note_off_c, 0, 59, 64
4, 64896, Note_on_c, 0, 60, 102
4, 65280, Note_off_c, 0, 60, 64
4, 65280, Note_on_c, 0, 38, 102
4, 65664, Note_off_c, 0, 38, 64
4, 65664, Note_on_c, 0, 50, 102
4, 66048, Note_off_c, 0, 50, 64
4, 66048, Note_on_c, 0, 50, 102
4, 66432, Note_off_c, 0, 50, 64
4, 66432, Note_on_c, 0, 50, 102
4, 66816, Note_off_c, 0, 50, 64
4, 66816, Note_on_c, 0, 52, 102
4, 67200, Note_off_c, 0, 52, 64
4, 67200, Note_on_c, 0, 54, 102
4, 67584, Note_off_c, 0, 54, 64
4, 67584, Note_on_c, 0, 43, 102
4, 67968, Note_off_c, 0, 43, 64
4, 67968, Note_on_c, 0, 55, 102
4, 68352, Note_off_c, 0, 55, 64
4, 68352, Note_on_c, 0, 54, 102
4, 68736, Note_off_c, 0, 54, 64
4, 68736, Note_on_c, 0, 50, 102
4, 69120, Note_off_c, 0, 50, 64
4, 69120, Note_on_c, 0, 55, 102
4, 69504, Note_off_c, 0, 55, 64
4, 69504, Note_on_c, 0, 53, 102
4, 69888, Note_off_c, 0, 53, 64
4, 69888, Note_on_c, 0, 52, 102
4, 70656, Note_off_c, 0, 52, 64
4, 71040, Note_on_c, 0, 57, 102
4, 71424, Note_off_c, 0, 57, 64
4, 71424, Note_on_c, 0, 53, 102
4, 71808, Note_off_c, 0, 53, 64
4, 71808, Note_on_c, 0, 55, 102
4, 72192, Note_off_c, 0, 55, 64
4, 72192, Note_on_c, 0, 56, 102
4, 72576, Note_off_c, 0, 56, 64
4, 72576, Note_on_c, 0, 44, 102
4, 72960, Note_off_c, 0, 44, 64
4, 72960, Note_on_c, 0, 45, 102
4, 73344, Note_off_c, 0, 45, 64
4, 73344, Note_on_c, 0, 47, 102
4, 73728, Note_off_c, 0, 47, 64
4, 73728, Note_on_c, 0, 48, 102
4, 74112, Note_off_c, 0, 48, 64
4, 74112, Note_on_c, 0, 50, 102
4, 74496, Note_off_c, 0, 50, 64
4, 74496, Note_on_c, 0, 48, 102
4, 74880, Note_off_c, 0, 48, 64
4, 74880, Note_on_c, 0, 47, 102
4, 75264, Note_off_c, 0, 47, 64
4, 75264, Note_on_c, 0, 45, 102
4, 75648, Note_off_c, 0, 45, 64
4, 75648, Note_on_c, 0, 57, 102
4, 76032, Note_off_c, 0, 57, 64
4, 76032, Note_on_c, 0, 56, 102
4, 76416, Note_off_c, 0, 56, 64
4, 76416, Note_on_c, 0, 52, 102
4, 76800, Note_off_c, 0, 52, 64
4, 76800, Note_on_c, 0, 57, 102
4, 77568, Note_off_c, 0, 57, 64
4, 77568, Note_on_c, 0, 55, 102
4, 78336, Note_off_c, 0, 55, 64
4, 78336, Note_on_c, 0, 53, 102
4, 79104, Note_off_c, 0, 53, 64
4, 79104, Note_on_c, 0, 52, 102
4, 79872, Note_off_c, 0, 52, 64
4, 79872, Note_on_c, 0, 50, 102
4, 80640, Note_off_c, 0, 50, 64
4, 80640, Note_on_c, 0, 48, 102
4, 81408, Note_off_c, 0, 48, 64
4, 81408, Note_on_c, 0, 47, 102
4, 82176, Note_off_c, 0, 47, 64
4, 82560, Note_on_c, 0, 47, 102
4, 82944, Note_off_c, 0, 47, 64
4, 82944, Note_on_c, 0, 52, 102
4, 83328, Note_off_c, 0, 52, 64
4, 83328, Note_on_c, 0, 47, 102
4, 83712, Note_off_c, 0, 47, 64
4, 83712, Note_on_c, 0, 48, 102
4, 84480, Note_off_c, 0, 48, 64
4, 84864, Note_on_c, 0, 53, 102
4, 85248, Note_off_c, 0, 53, 64
4, 85248, Note_on_c, 0, 50, 102
4, 85632, Note_off_c, 0, 50, 64
4, 85632, Note_on_c, 0, 52, 102
4, 86016, Note_off_c, 0, 52, 64
4, 86016, Note_on_c, 0, 45, 102
4, 86784, Note_off_c, 0, 45, 64
4, 86784, Note_on_c, 0, 43, 102
4, 87552, Note_off_c, 0, 43, 64
4, 87552, Note_on_c, 0, 41, 102
4, 88320, Note_off_c, 0, 41, 64
4, 88320, Note_on_c, 0, 40, 102
4, 89088, Note_off_c, 0, 40, 64
4, 89088, Note_on_c, 0, 50, 102
4, 89856, Note_off_c, 0, 50, 64
4, 89856, Note_on_c, 0, 48, 102
4, 90624, Note_off_c, 0, 48, 64
4, 90624, Note_on_c, 0, 47, 102
4, 91392, Note_off_c, 0, 47, 64
4, 91776, Note_on_c, 0, 52, 102
4, 92160, Note_off_c, 0, 52, 64
4, 92160, Note_on_c, 0, 56, 102
4, 92544, Note_off_c, 0, 56, 64
4, 92544, Note_on_c, 0, 52, 102
4, 92928, Note_off_c, 0, 52, 64
4, 92928, Note_on_c, 0, 57, 102
4, 93312, Note_off_c, 0, 57, 64
4, 93312, Note_on_c, 0, 50, 102
4, 93696, Note_off_c, 0, 50, 64
4, 93696, Note_on_c, 0, 52, 102
4, 94080, Note_off_c, 0, 52, 64
4, 94080, Note_on_c, 0, 47, 102
4, 94464, Note_off_c, 0, 47, 64
4, 94464, Note_on_c, 0, 44, 102
4, 94848, Note_off_c, 0, 44, 64
4, 94848, Note_on_c, 0, 40, 102
4, 95232, Note_off_c, 0, 40, 64
4, 95232, Note_on_c, 0, 45, 102
4, 95616, Note_off_c, 0, 45, 64
4, 95616, Note_on_c, 0, 57, 102
4, 96000, Note_off_c, 0, 57, 64
4, 96000, Note_on_c, 0, 57, 102
4, 96384, Note_off_c, 0, 57, 64
4, 96384, Note_on_c, 0, 57, 102
4, 96768, Note_off_c, 0, 57, 64
4, 96768, Note_on_c, 0, 59, 102
4, 97152, Note_off_c, 0, 59, 64
4, 97152, Note_on_c, 0, 60, 102
4, 97536, Note_off_c, 0, 60, 64
4, 97536, Note_on_c, 0, 54, 102
4, 97728, Note_off_c, 0, 54, 64
4, 97728, Note_on_c, 0, 57, 102
4, 97920, Note_off_c, 0, 57, 64
4, 97920, Note_on_c, 0, 55, 102
4, 98112, Note_off_c, 0, 55, 64
4, 98112, Note_on_c, 0, 59, 102
4, 98304, Note_off_c, 0, 59, 64
4, 98304, Note_on_c, 0, 57, 102
4, 98688, Note_off_c, 0, 57, 64
4, 98688, Note_on_c, 0, 60, 102
4, 99072, Note_off_c, 0, 60, 64
4, 99072, Note_on_c, 0, 54, 102
4, 99456, Note_off_c, 0, 54, 64
4, 99456, Note_on_c, 0, 59, 102
4, 99840, Note_off_c, 0, 59, 64
4, 99840, Note_on_c, 0, 52, 102
4, 100224, Note_off_c, 0, 52, 64
4, 100224, Note_on_c, 0, 50, 102
4, 100608, Note_off_c, 0, 50, 64
4, 100608, Note_on_c, 0, 48, 102
4, 102144, Note_off_c, 0, 48, 64
4, 102144, Note_on_c, 0, 47, 102
4, 102528, Note_off_c, 0, 47, 64
4, 102528, Note_on_c, 0, 47, 102
4, 102912, Note_off_c, 0, 47, 64
4, 102912, Note_on_c, 0, 47, 102
4, 103296, Note_off_c, 0, 47, 64
4, 103296, Note_on_c, 0, 47, 102
4, 103680, Note_off_c, 0, 47, 64
4, 103680, Note_on_c, 0, 49, 102
4, 104064, Note_off_c, 0, 49, 64
4, 104064, Note_on_c, 0, 51, 102
4, 104448, Note_off_c, 0, 51, 64
4, 104448, Note_on_c, 0, 40, 102
4, 104832, Note_off_c, 0, 40, 64
4, 104832, Note_on_c, 0, 52, 102
4, 105216, Note_off_c, 0, 52, 64
4, 105216, Note_on_c, 0, 52, 102
4, 105600, Note_off_c, 0, 52, 64
4, 105600, Note_on_c, 0, 52, 102
4, 105984, Note_off_c, 0, 52, 64
4, 105984, Note_on_c, 0, 54, 102
4, 106368, Note_off_c, 0, 54, 64
4, 106368, Note_on_c, 0, 55, 102
4, 106752, Note_off_c, 0, 55, 64
4, 106752, Note_on_c, 0, 57, 102
4, 107136, Note_off_c, 0, 57, 64
4, 107136, Note_on_c, 0, 45, 102
4, 107520, Note_off_c, 0, 45, 64
4, 107520, Note_on_c, 0, 45, 102
4, 107904, Note_off_c, 0, 45, 64
4, 107904, Note_on_c, 0, 45, 102
4, 108288, Note_off_c, 0, 45, 64
4, 108288, Note_on_c, 0, 47, 102
4, 108672, Note_off_c, 0, 47, 64
4, 108672, Note_on_c, 0, 48, 102
4, 109056, Note_off_c, 0, 48, 64
4, 109056, Note_on_c, 0, 38, 102
4, 109440, Note_off_c, 0, 38, 64
4, 109440, Note_on_c, 0, 50, 102
4, 109824, Note_off_c, 0, 50, 64
4, 109824, Note_on_c, 0, 50, 102
4, 110208, Note_off_c, 0, 50, 64
4, 110208, Note_on_c, 0, 50, 102
4, 110592, Note_off_c, 0, 50, 64
4, 110592, Note_on_c, 0, 52, 102
4, 110976, Note_off_c, 0, 52, 64
4, 110976, Note_on_c, 0, 54, 102
4, 111360, Note_off_c, 0, 54, 64
4, 111360, Note_on_c, 0, 55, 102
4, 111744, Note_off_c, 0, 55, 64
4, 111744, Note_on_c, 0, 43, 102
4, 112128, Note_off_c, 0, 43, 64
4, 112128, Note_on_c, 0, 43, 102
4, 112512, Note_off_c, 0, 43, 64
4, 112512, Note_on_c, 0, 43, 102
4, 112896, Note_off_c, 0, 43, 64
4, 112896, Note_on_c, 0, 45, 102
4, 113280, Note_off_c, 0, 45, 64
4, 113280, Note_on_c, 0, 47, 102
4, 113664, Note_off_c, 0, 47, 64
4, 113664, Note_on_c, 0, 36, 102
4, 114048, Note_off_c, 0, 36, 64
4, 114048, Note_on_c, 0, 60, 102
4, 114432, Note_off_c, 0, 60, 64
4, 114432, Note_on_c, 0, 59, 102
4, 114816, Note_off_c, 0, 59, 64
4, 114816, Note_on_c, 0, 57, 102
4, 115200, Note_off_c, 0, 57, 64
4, 115200, Note_on_c, 0, 56, 102
4, 115584, Note_off_c, 0, 56, 64
4, 115584, Note_on_c, 0, 54, 102
4, 115968, Note_off_c, 0, 54, 64
4, 115968, Note_on_c, 0, 52, 102
4, 116352, Note_off_c, 0, 52, 64
4, 116352, Note_on_c, 0, 50, 102
4, 116736, Note_off_c, 0, 50, 64
4, 116736, Note_on_c, 0, 48, 102
4, 117120, Note_off_c, 0, 48, 64
4, 117120, Note_on_c, 0, 47, 102
4, 117504, Note_off_c, 0, 47, 64
4, 117504, Note_on_c, 0, 48, 102
4, 117888, Note_off_c, 0, 48, 64
4, 117888, Note_on_c, 0, 50, 102
4, 118272, Note_off_c, 0, 50, 64
4, 118272, Note_on_c, 0, 48, 102
4, 119040, Note_off_c, 0, 48, 64
4, 119424, Note_on_c, 0, 53, 102
4, 119808, Note_off_c, 0, 53, 64
4, 119808, Note_on_c, 0, 50, 102
4, 120192, Note_off_c, 0, 50, 64
4, 120192, Note_on_c, 0, 52, 102
4, 120576, Note_off_c, 0, 52, 64
4, 120576, Note_on_c, 0, 45, 102
4, 120960, Note_off_c, 0, 45, 64
4, 120960, Note_on_c, 0, 47, 102
4, 121344, Note_off_c, 0, 47, 64
4, 121344, Note_on_c, 0, 48, 102
4, 121728, Note_off_c, 0, 48, 64
4, 121728, Note_on_c, 0, 47, 102
4, 122112, Note_off_c, 0, 47, 64
4, 122112, Note_on_c, 0, 45, 102
4, 122496, Note_off_c, 0, 45, 64
4, 122496, Note_on_c, 0, 43, 102
4, 122880, Note_off_c, 0, 43, 64
4, 122880, Note_on_c, 0, 42, 102
4, 123264, Note_off_c, 0, 42, 64
4, 123264, Note_on_c, 0, 40, 102
4, 123648, Note_off_c, 0, 40, 64
4, 123648, Note_on_c, 0, 39, 102
4, 124032, Note_off_c, 0, 39, 64
4, 124032, Note_on_c, 0, 40, 102
4, 124416, Note_off_c, 0, 40, 64
4, 124416, Note_on_c, 0, 42, 102
4, 124800, Note_off_c, 0, 42, 64
4, 124800, Note_on_c, 0, 39, 102
4, 125184, Note_off_c, 0, 39, 64
4, 125184, Note_on_c, 0, 40, 102
4, 125568, Note_off_c, 0, 40, 64
4, 125568, Note_on_c, 0, 52, 102
4, 125952, Note_off_c, 0, 52, 64
4, 125952, Note_on_c, 0, 52, 102
4, 126336, Note_off_c, 0, 52, 64
4, 126336, Note_on_c, 0, 52, 102
4, 126720, Note_off_c, 0, 52, 64
4, 126720, Note_on_c, 0, 54, 102
4, 127104, Note_off_c, 0, 54, 64
4, 127104, Note_on_c, 0, 55, 102
4, 127488, Note_off_c, 0, 55, 64
4, 127488, Note_on_c, 0, 48, 102
4, 127872, Note_off_c, 0, 48, 64
4, 127872, Note_on_c, 0, 48, 102
4, 128256, Note_off_c, 0, 48, 64
4, 128256, Note_on_c, 0, 48, 102
4, 128640, Note_off_c, 0, 48, 64
4, 128640, Note_on_c, 0, 48, 102
4, 129024, Note_off_c, 0, 48, 64
4, 129024, Note_on_c, 0, 50, 102
4, 129408, Note_off_c, 0, 50, 64
4, 129408, Note_on_c, 0, 52, 102
4, 129792, Note_off_c, 0, 52, 64
4, 129792, Note_on_c, 0, 45, 102
4, 130176, Note_off_c, 0, 45, 64
4, 130176, Note_on_c, 0, 43, 102
4, 130560, Note_off_c, 0, 43, 64
4, 130560, Note_on_c, 0, 45, 102
4, 130944, Note_off_c, 0, 45, 64
4, 130944, Note_on_c, 0, 47, 102
4, 131328, Note_off_c, 0, 47, 64
4, 131328, Note_on_c, 0, 48, 102
4, 131712, Note_off_c, 0, 48, 64
4, 131712, Note_on_c, 0, 47, 102
4, 132096, Note_off_c, 0, 47, 64
4, 132096, Note_on_c, 0, 46, 102
4, 132480, Note_off_c, 0, 46, 64
4, 132480, Note_on_c, 0, 49, 102
4, 132864, Note_off_c, 0, 49, 64
4, 132864, Note_on_c, 0, 47, 102
4, 133248, Note_off_c, 0, 47, 64
4, 133248, Note_on_c, 0, 46, 102
4, 133632, Note_off_c, 0, 46, 64
4, 133632, Note_on_c, 0, 44, 102
4, 134016, Note_off_c, 0, 44, 64
4, 134016, Note_on_c, 0, 42, 102
4, 134400, Note_off_c, 0, 42, 64
4, 134400, Note_on_c, 0, 47, 102
4, 134784, Note_off_c, 0, 47, 64
4, 134784, Note_on_c, 0, 59, 102
4, 135168, Note_off_c, 0, 59, 64
4, 135168, Note_on_c, 0, 54, 102
4, 135552, Note_off_c, 0, 54, 64
4, 135552, Note_on_c, 0, 57, 102
4, 135936, Note_off_c, 0, 57, 64
4, 135936, Note_on_c, 0, 51, 102
4, 136320, Note_off_c, 0, 51, 64
4, 136320, Note_on_c, 0, 54, 102
4, 136704, Note_off_c, 0, 54, 64
4, 136704, Note_on_c, 0, 45, 102
4, 137472, Note_off_c, 0, 45, 64
4, 137856, Note_on_c, 0, 48, 102
4, 138240, Note_off_c, 0, 48, 64
4, 138240, Note_on_c, 0, 47, 102
4, 138624, Note_off_c, 0, 47, 64
4, 138624, Note_on_c, 0, 45, 102
4, 139008, Note_off_c, 0, 45, 64
4, 139008, Note_on_c, 0, 43, 102
4, 139392, Note_off_c, 0, 43, 64
4, 139392, Note_on_c, 0, 45, 102
4, 139776, Note_off_c, 0, 45, 64
4, 139776, Note_on_c, 0, 47, 102
4, 140160, Note_off_c, 0, 47, 64
4, 140160, Note_on_c, 0, 45, 102
4, 140544, Note_off_c, 0, 45, 64
4, 140544, Note_on_c, 0, 47, 102
4, 141312, Note_off_c, 0, 47, 64
4, 141312, Note_on_c, 0, 40, 102
4, 141696, Note_off_c, 0, 40, 64
4, 141696, Note_on_c, 0, 52, 102
4, 142080, Note_off_c, 0, 52, 64
4, 142080, Note_on_c, 0, 52, 102
4, 142464, Note_off_c, 0, 52, 64
4, 142464, Note_on_c, 0, 52, 102
4, 142848, Note_off_c, 0, 52, 64
4, 142848, Note_on_c, 0, 54, 102
4, 143232, Note_off_c, 0, 54, 64
4, 143232, Note_on_c, 0, 55, 102
4, 143616, Note_off_c, 0, 55, 64
4, 143616, Note_on_c, 0, 49, 102
4, 144000, Note_off_c, 0, 49, 64
4, 144000, Note_on_c, 0, 49, 102
4, 144384, Note_off_c, 0, 49, 64
4, 144384, Note_on_c, 0, 49, 102
4, 144768, Note_off_c, 0, 49, 64
4, 144768, Note_on_c, 0, 51, 102
4, 145152, Note_off_c, 0, 51, 64
4, 145152, Note_on_c, 0, 52, 102
4, 145536, Note_off_c, 0, 52, 64
4, 145536, Note_on_c, 0, 54, 102
4, 145920, Note_off_c, 0, 54, 64
4, 145920, Note_on_c, 0, 47, 102
4, 147072, Note_off_c, 0, 47, 64
4, 147072, Note_on_c, 0, 43, 102
4, 147456, Note_off_c, 0, 43, 64
4, 147456, Note_on_c, 0, 48, 102
4, 148224, Note_off_c, 0, 48, 64
4, 148224, Note_on_c, 0, 45, 102
4, 148992, Note_off_c, 0, 45, 64
4, 148992, Note_on_c, 0, 47, 102
4, 150528, Note_off_c, 0, 47, 64
4, 150528, Note_on_c, 0, 40, 102
4, 152832, Note_off_c, 0, 40, 64
4, 155904, Note_on_c, 0, 59, 102
4, 156288, Note_off_c, 0, 59, 64
4, 156672, Note_on_c, 0, 55, 102
4, 157056, Note_off_c, 0, 55, 64
4, 157440, Note_on_c, 0, 57, 102
4, 157824, Note_off_c, 0, 57, 64
4, 158208, Note_on_c, 0, 54, 102
4, 158592, Note_off_c, 0, 54, 64
4, 158976, Note_on_c, 0, 55, 102
4, 159360, Note_off_c, 0, 55, 64
4, 159744, Note_on_c, 0, 52, 102
4, 160128, Note_off_c, 0, 52, 64
4, 160512, Note_on_c, 0, 54, 102
4, 160896, Note_off_c, 0, 54, 64
4, 160896, Note_on_c, 0, 47, 102
4, 161280, Note_off_c, 0, 47, 64
4, 161280, Note_on_c, 0, 54, 102
4, 161664, Note_off_c, 0, 54, 64
4, 161664, Note_on_c, 0, 42, 102
4, 162048, Note_off_c, 0, 42, 64
4, 162048, Note_on_c, 0, 47, 102
4, 162432, Note_off_c, 0, 47, 64
4, 162816, Note_on_c, 0, 43, 102
4, 163200, Note_off_c, 0, 43, 64
4, 163584, Note_on_c, 0, 45, 102
4, 163968, Note_off_c, 0, 45, 64
4, 164352, Note_on_c, 0, 42, 102
4, 164736, Note_off_c, 0, 42, 64
4, 165120, Note_on_c, 0, 43, 102
4, 165504, Note_off_c, 0, 43, 64
4, 165888, Note_on_c, 0, 40, 102
4, 166272, Note_off_c, 0, 40, 64
4, 166656, Note_on_c, 0, 42, 102
4, 167040, Note_off_c, 0, 42, 64
4, 167040, Note_on_c, 0, 47, 102
4, 167424, Note_off_c, 0, 47, 64
4, 167424, Note_on_c, 0, 54, 102
4, 167808, Note_off_c, 0, 54, 64
4, 167808, Note_on_c, 0, 42, 102
4, 168192, Note_off_c, 0, 42, 64
4, 168192, Note_on_c, 0, 47, 102
4, 168576, Note_off_c, 0, 47, 64
4, 168576, Note_on_c, 0, 59, 102
4, 168960, Note_off_c, 0, 59, 64
4, 168960, Note_on_c, 0, 56, 102
4, 169344, Note_off_c, 0, 56, 64
4, 169344, Note_on_c, 0, 52, 102
4, 169728, Note_off_c, 0, 52, 64
4, 169728, Note_on_c, 0, 45, 102
4, 170112, Note_off_c, 0, 45, 64
4, 170112, Note_on_c, 0, 57, 102
4, 170496, Note_off_c, 0, 57, 64
4, 170496, Note_on_c, 0, 54, 102
4, 170880, Note_off_c, 0, 54, 64
4, 170880, Note_on_c, 0, 50, 102
4, 171264, Note_off_c, 0, 50, 64
4, 171264, Note_on_c, 0, 44, 102
4, 171648, Note_off_c, 0, 44, 64
4, 171648, Note_on_c, 0, 56, 102
4, 172032, Note_off_c, 0, 56, 64
4, 172032, Note_on_c, 0, 53, 102
4, 172416, Note_off_c, 0, 53, 64
4, 172416, Note_on_c, 0, 49, 102
4, 172800, Note_off_c, 0, 49, 64
4, 172800, Note_on_c, 0, 54, 102
4, 173184, Note_off_c, 0, 54, 64
4, 173184, Note_on_c, 0, 59, 102
4, 173568, Note_off_c, 0, 59, 64
4, 173568, Note_on_c, 0, 61, 102
4, 173952, Note_off_c, 0, 61, 64
4, 173952, Note_on_c, 0, 49, 102
4, 174336, Note_off_c, 0, 49, 64
4, 174336, Note_on_c, 0, 54, 102
4, 174720, Note_off_c, 0, 54, 64
4, 175104, Note_on_c, 0, 50, 102
4, 175488, Note_off_c, 0, 50, 64
4, 175872, Note_on_c, 0, 52, 102
4, 176256, Note_off_c, 0, 52, 64
4, 176640, Note_on_c, 0, 49, 102
4, 177024, Note_off_c, 0, 49, 64
4, 177408, Note_on_c, 0, 50, 102
4, 177792, Note_off_c, 0, 50, 64
4, 178176, Note_on_c, 0, 47, 102
4, 178560, Note_off_c, 0, 47, 64
4, 178944, Note_on_c, 0, 49, 102
4, 179328, Note_off_c, 0, 49, 64
4, 179328, Note_on_c, 0, 54, 102
4, 179712, Note_off_c, 0, 54, 64
4, 179712, Note_on_c, 0, 61, 102
4, 180096, Note_off_c, 0, 61, 64
4, 180096, Note_on_c, 0, 49, 102
4, 180480, Note_off_c, 0, 49, 64
4, 180480, Note_on_c, 0, 54, 102
4, 180864, Note_off_c, 0, 54, 64
4, 181248, Note_on_c, 0, 50, 102
4, 181632, Note_off_c, 0, 50, 64
4, 182016, Note_on_c, 0, 52, 102
4, 182400, Note_off_c, 0, 52, 64
4, 182784, Note_on_c, 0, 49, 102
4, 183168, Note_off_c, 0, 49, 64
4, 183552, Note_on_c, 0, 50, 102
4, 183936, Note_off_c, 0, 50, 64
4, 184320, Note_on_c, 0, 47, 102
4, 184704, Note_off_c, 0, 47, 64
4, 185088, Note_on_c, 0, 49, 102
4, 185472, Note_off_c, 0, 49, 64
4, 185472, Note_on_c, 0, 42, 102
4, 185856, Note_off_c, 0, 42, 64
4, 185856, Note_on_c, 0, 49, 102
4, 186240, Note_off_c, 0, 49, 64
4, 186240, Note_on_c, 0, 49, 102
4, 186624, Note_off_c, 0, 49, 64
4, 186624, Note_on_c, 0, 42, 102
4, 187008, Note_off_c, 0, 42, 64
4, 187008, Note_on_c, 0, 54, 102
4, 187392, Note_off_c, 0, 54, 64
4, 187392, Note_on_c, 0, 56, 102
4, 187776, Note_off_c, 0, 56, 64
4, 187776, Note_on_c, 0, 58, 102
4, 188160, Note_off_c, 0, 58, 64
4, 188160, Note_on_c, 0, 59, 102
4, 188544, Note_off_c, 0, 59, 64
4, 188544, Note_on_c, 0, 47, 102
4, 188928, Note_off_c, 0, 47, 64
4, 188928, Note_on_c, 0, 49, 102
4, 189312, Note_off_c, 0, 49, 64
4, 189312, Note_on_c, 0, 50, 102
4, 189696, Note_off_c, 0, 50, 64
4, 189696, Note_on_c, 0, 40, 102
4, 190080, Note_off_c, 0, 40, 64
4, 190080, Note_on_c, 0, 52, 102
4, 190464, Note_off_c, 0, 52, 64
4, 190464, Note_on_c, 0, 54, 102
4, 190848, Note_off_c, 0, 54, 64
4, 190848, Note_on_c, 0, 55, 102
4, 191232, Note_off_c, 0, 55, 64
4, 191232, Note_on_c, 0, 57, 102
4, 191616, Note_off_c, 0, 57, 64
4, 191616, Note_on_c, 0, 45, 102
4, 192000, Note_off_c, 0, 45, 64
4, 192000, Note_on_c, 0, 47, 102
4, 192384, Note_off_c, 0, 47, 64
4, 192384, Note_on_c, 0, 49, 102
4, 192768, Note_off_c, 0, 49, 64
4, 192768, Note_on_c, 0, 38, 102
4, 193152, Note_off_c, 0, 38, 64
4, 193152, Note_on_c, 0, 50, 102
4, 193536, Note_off_c, 0, 50, 64
4, 193536, Note_on_c, 0, 52, 102
4, 193920, Note_off_c, 0, 52, 64
4, 193920, Note_on_c, 0, 54, 102
4, 194304, Note_off_c, 0, 54, 64
4, 194304, Note_on_c, 0, 43, 102
4, 194688, Note_off_c, 0, 43, 64
4, 194688, Note_on_c, 0, 55, 102
4, 195072, Note_off_c, 0, 55, 64
4, 195072, Note_on_c, 0, 57, 102
4, 195456, Note_off_c, 0, 57, 64
4, 195456, Note_on_c, 0, 59, 102
4, 195840, Note_off_c, 0, 59, 64
4, 195840, Note_on_c, 0, 49, 102
4, 196224, Note_off_c, 0, 49, 64
4, 196224, Note_on_c, 0, 50, 102
4, 196608, Note_off_c, 0, 50, 64
4, 196608, Note_on_c, 0, 57, 102
4, 196992, Note_off_c, 0, 57, 64
4, 196992, Note_on_c, 0, 45, 102
4, 197376, Note_off_c, 0, 45, 64
4, 197376, Note_on_c, 0, 38, 102
4, 197760, Note_off_c, 0, 38, 64
4, 197760, Note_on_c, 0, 50, 102
4, 198144, Note_off_c, 0, 50, 64
4, 198144, Note_on_c, 0, 49, 102
4, 198528, Note_off_c, 0, 49, 64
4, 198528, Note_on_c, 0, 47, 102
4, 198912, Note_off_c, 0, 47, 64
4, 198912, Note_on_c, 0, 45, 102
4, 199296, Note_off_c, 0, 45, 64
4, 199296, Note_on_c, 0, 57, 102
4, 199680, Note_off_c, 0, 57, 64
4, 199680, Note_on_c, 0, 55, 102
4, 200064, Note_off_c, 0, 55, 64
4, 200064, Note_on_c, 0, 54, 102
4, 200448, Note_off_c, 0, 54, 64
4, 200448, Note_on_c, 0, 52, 102
4, 200832, Note_off_c, 0, 52, 64
4, 200832, Note_on_c, 0, 52, 102
4, 201216, Note_off_c, 0, 52, 64
4, 201216, Note_on_c, 0, 50, 102
4, 201600, Note_off_c, 0, 50, 64
4, 201600, Note_on_c, 0, 49, 102
4, 201984, Note_off_c, 0, 49, 64
4, 201984, Note_on_c, 0, 47, 102
4, 202368, Note_off_c, 0, 47, 64
4, 202368, Note_on_c, 0, 59, 102
4, 202752, Note_off_c, 0, 59, 64
4, 202752, Note_on_c, 0, 57, 102
4, 203136, Note_off_c, 0, 57, 64
4, 203136, Note_on_c, 0, 56, 102
4, 203520, Note_off_c, 0, 56, 64
4, 203520, Note_on_c, 0, 54, 102
4, 203904, Note_off_c, 0, 54, 64
4, 203904, Note_on_c, 0, 54, 102
4, 204288, Note_off_c, 0, 54, 64
4, 204288, Note_on_c, 0, 52, 102
4, 204672, Note_off_c, 0, 52, 64
4, 204672, Note_on_c, 0, 50, 102
4, 205056, Note_off_c, 0, 50, 64
4, 205056, Note_on_c, 0, 49, 102
4, 205440, Note_off_c, 0, 49, 64
4, 206592, Note_on_c, 0, 49, 102
4, 206976, Note_off_c, 0, 49, 64
4, 208128, Note_on_c, 0, 49, 102
4, 208512, Note_off_c, 0, 49, 64
4, 210048, Note_on_c, 0, 49, 102
4, 210432, Note_off_c, 0, 49, 64
4, 210432, Note_on_c, 0, 51, 102
4, 210816, Note_off_c, 0, 51, 64
4, 210816, Note_on_c, 0, 53, 102
4, 211200, Note_off_c, 0, 53, 64
4, 211200, Note_on_c, 0, 54, 102
4, 211584, Note_off_c, 0, 54, 64
4, 211584, Note_on_c, 0, 54, 102
4, 211968, Note_off_c, 0, 54, 64
4, 211968, Note_on_c, 0, 56, 102
4, 212352, Note_off_c, 0, 56, 64
4, 212352, Note_on_c, 0, 57, 102
4, 212736, Note_off_c, 0, 57, 64
4, 212736, Note_on_c, 0, 59, 102
4, 213120, Note_off_c, 0, 59, 64
4, 213120, Note_on_c, 0, 47, 102
4, 213504, Note_off_c, 0, 47, 64
4, 213504, Note_on_c, 0, 49, 102
4, 213888, Note_off_c, 0, 49, 64
4, 213888, Note_on_c, 0, 50, 102
4, 214272, Note_off_c, 0, 50, 64
4, 214272, Note_on_c, 0, 52, 102
4, 214656, Note_off_c, 0, 52, 64
4, 214656, Note_on_c, 0, 52, 102
4, 215040, Note_off_c, 0, 52, 64
4, 215040, Note_on_c, 0, 54, 102
4, 215424, Note_off_c, 0, 54, 64
4, 215424, Note_on_c, 0, 56, 102
4, 215808, Note_off_c, 0, 56, 64
4, 215808, Note_on_c, 0, 57, 102
4, 216192, Note_off_c, 0, 57, 64
4, 216192, Note_on_c, 0, 45, 102
4, 216576, Note_off_c, 0, 45, 64
4, 216576, Note_on_c, 0, 47, 102
4, 216960, Note_off_c, 0, 47, 64
4, 216960, Note_on_c, 0, 49, 102
4, 217344, Note_off_c, 0, 49, 64
4, 217344, Note_on_c, 0, 50, 102
4, 217728, Note_off_c, 0, 50, 64
4, 217728, Note_on_c, 0, 50, 102
4, 218112, Note_off_c, 0, 50, 64
4, 218112, Note_on_c, 0, 52, 102
4, 218496, Note_off_c, 0, 52, 64
4, 218496, Note_on_c, 0, 54, 102
4, 218880, Note_off_c, 0, 54, 64
4, 218880, Note_on_c, 0, 44, 102
4, 219264, Note_off_c, 0, 44, 64
4, 219264, Note_on_c, 0, 45, 102
4, 219648, Note_off_c, 0, 45, 64
4, 219648, Note_on_c, 0, 52, 102
4, 220032, Note_off_c, 0, 52, 64
4, 220032, Note_on_c, 0, 40, 102
4, 220416, Note_off_c, 0, 40, 64
4, 220416, Note_on_c, 0, 45, 102
4, 220800, Note_off_c, 0, 45, 64
4, 220800, Note_on_c, 0, 55, 102
4, 221184, Note_off_c, 0, 55, 64
4, 221184, Note_on_c, 0, 54, 102
4, 221568, Note_off_c, 0, 54, 64
4, 221568, Note_on_c, 0, 52, 102
4, 221952, Note_off_c, 0, 52, 64
4, 221952, Note_on_c, 0, 51, 102
4, 222336, Note_off_c, 0, 51, 64
4, 222336, Note_on_c, 0, 47, 102
4, 222720, Note_off_c, 0, 47, 64
4, 222720, Note_on_c, 0, 49, 102
4, 223104, Note_off_c, 0, 49, 64
4, 223104, Note_on_c, 0, 51, 102
4, 223488, Note_off_c, 0, 51, 64
4, 223488, Note_on_c, 0, 52, 102
4, 223872, Note_off_c, 0, 52, 64
4, 223872, Note_on_c, 0, 50, 102
4, 224256, Note_off_c, 0, 50, 64
4, 224256, Note_on_c, 0, 48, 102
4, 224640, Note_off_c, 0, 48, 64
4, 224640, Note_on_c, 0, 47, 102
4, 225024, Note_off_c, 0, 47, 64
4, 225024, Note_on_c, 0, 45, 102
4, 225408, Note_off_c, 0, 45, 64
4, 225408, Note_on_c, 0, 43, 102
4, 225792, Note_off_c, 0, 43, 64
4, 225792, Note_on_c, 0, 47, 102
4, 226176, Note_off_c, 0, 47, 64
4, 226176, Note_on_c, 0, 47, 102
4, 226560, Note_off_c, 0, 47, 64
4, 226560, Note_on_c, 0, 52, 102
4, 226944, Note_off_c, 0, 52, 64
4, 227328, Note_on_c, 0, 48, 102
4, 227712, Note_off_c, 0, 48, 64
4, 228096, Note_on_c, 0, 50, 102
4, 228480, Note_off_c, 0, 50, 64
4, 228864, Note_on_c, 0, 47, 102
4, 229248, Note_off_c, 0, 47, 64
4, 229632, Note_on_c, 0, 48, 102
4, 230016, Note_off_c, 0, 48, 64
4, 230400, Note_on_c, 0, 45, 102
4, 230784, Note_off_c, 0, 45, 64
4, 231168, Note_on_c, 0, 47, 102
4, 231552, Note_off_c, 0, 47, 64
4, 231552, Note_on_c, 0, 52, 102
4, 231936, Note_off_c, 0, 52, 64
4, 231936, Note_on_c, 0, 59, 102
4, 232320, Note_off_c, 0, 59, 64
4, 232320, Note_on_c, 0, 47, 102
4, 232704, Note_off_c, 0, 47, 64
4, 232704, Note_on_c, 0, 52, 102
4, 233088, Note_off_c, 0, 52, 64
4, 233472, Note_on_c, 0, 48, 102
4, 233856, Note_off_c, 0, 48, 64
4, 234240, Note_on_c, 0, 50, 102
4, 234624, Note_off_c, 0, 50, 64
4, 235008, Note_on_c, 0, 47, 102
4, 235392, Note_off_c, 0, 47, 64
4, 235776, Note_on_c, 0, 48, 102
4, 236160, Note_off_c, 0, 48, 64
4, 236544, Note_on_c, 0, 45, 102
4, 236928, Note_off_c, 0, 45, 64
4, 237312, Note_on_c, 0, 47, 102
4, 237696, Note_off_c, 0, 47, 64
4, 237696, Note_on_c, 0, 52, 102
4, 238080, Note_off_c, 0, 52, 64
4, 238080, Note_on_c, 0, 59, 102
4, 238464, Note_off_c, 0, 59, 64
4, 238464, Note_on_c, 0, 47, 102
4, 238848, Note_off_c, 0, 47, 64
4, 238848, Note_on_c, 0, 40, 102
4, 239232, Note_off_c, 0, 40, 64
4, 239232, Note_on_c, 0, 52, 102
4, 239616, Note_off_c, 0, 52, 64
4, 239616, Note_on_c, 0, 54, 102
4, 240000, Note_off_c, 0, 54, 64
4, 240000, Note_on_c, 0, 55, 102
4, 240384, Note_off_c, 0, 55, 64
4, 240384, Note_on_c, 0, 57, 102
4, 240768, Note_off_c, 0, 57, 64
4, 240768, Note_on_c, 0, 57, 102
4, 241152, Note_off_c, 0, 57, 64
4, 241152, Note_on_c, 0, 59, 102
4, 241536, Note_off_c, 0, 59, 64
4, 241536, Note_on_c, 0, 60, 102
4, 241920, Note_off_c, 0, 60, 64
4, 241920, Note_on_c, 0, 50, 102
4, 242304, Note_off_c, 0, 50, 64
4, 242304, Note_on_c, 0, 50, 102
4, 242688, Note_off_c, 0, 50, 64
4, 242688, Note_on_c, 0, 52, 102
4, 243072, Note_off_c, 0, 52, 64
4, 243072, Note_on_c, 0, 54, 102
4, 243456, Note_off_c, 0, 54, 64
4, 243456, Note_on_c, 0, 55, 102
4, 243840, Note_off_c, 0, 55, 64
4, 243840, Note_on_c, 0, 55, 102
4, 244224, Note_off_c, 0, 55, 64
4, 244224, Note_on_c, 0, 57, 102
4, 244608, Note_off_c, 0, 57, 64
4, 244608, Note_on_c, 0, 59, 102
4, 244992, Note_off_c, 0, 59, 64
4, 244992, Note_on_c, 0, 48, 102
4, 245376, Note_off_c, 0, 48, 64
4, 245376, Note_on_c, 0, 59, 102
4, 245760, Note_off_c, 0, 59, 64
4, 245760, Note_on_c, 0, 57, 102
4, 246144, Note_off_c, 0, 57, 64
4, 246144, Note_on_c, 0, 55, 102
4, 246528, Note_off_c, 0, 55, 64
4, 246528, Note_on_c, 0, 54, 102
4, 246912, Note_off_c, 0, 54, 64
4, 246912, Note_on_c, 0, 50, 102
4, 247296, Note_off_c, 0, 50, 64
4, 247296, Note_on_c, 0, 52, 102
4, 247680, Note_off_c, 0, 52, 64
4, 247680, Note_on_c, 0, 54, 102
4, 248064, Note_off_c, 0, 54, 64
4, 248064, Note_on_c, 0, 55, 102
4, 248448, Note_off_c, 0, 55, 64
4, 248448, Note_on_c, 0, 48, 102
4, 248832, Note_off_c, 0, 48, 64
4, 248832, Note_on_c, 0, 50, 102
4, 249216, Note_off_c, 0, 50, 64
4, 249216, Note_on_c, 0, 38, 102
4, 249600, Note_off_c, 0, 38, 64
4, 249600, Note_on_c, 0, 43, 102
4, 249984, Note_off_c, 0, 43, 64
4, 249984, Note_on_c, 0, 55, 102
4, 250368, Note_off_c, 0, 55, 64
4, 250368, Note_on_c, 0, 54, 102
4, 250752, Note_off_c, 0, 54, 64
4, 250752, Note_on_c, 0, 52, 102
4, 251136, Note_off_c, 0, 52, 64
4, 251136, Note_on_c, 0, 50, 102
4, 251520, Note_off_c, 0, 50, 64
4, 251520, Note_on_c, 0, 50, 102
4, 251904, Note_off_c, 0, 50, 64
4, 251904, Note_on_c, 0, 48, 102
4, 252288, Note_off_c, 0, 48, 64
4, 252288, Note_on_c, 0, 47, 102
4, 252672, Note_off_c, 0, 47, 64
4, 252672, Note_on_c, 0, 45, 102
4, 253056, Note_off_c, 0, 45, 64
4, 253056, Note_on_c, 0, 57, 102
4, 253440, Note_off_c, 0, 57, 64
4, 253440, Note_on_c, 0, 55, 102
4, 253824, Note_off_c, 0, 55, 64
4, 253824, Note_on_c, 0, 54, 102
4, 254208, Note_off_c, 0, 54, 64
4, 254208, Note_on_c, 0, 52, 102
4, 254592, Note_off_c, 0, 52, 64
4, 254592, Note_on_c, 0, 52, 102
4, 254976, Note_off_c, 0, 52, 64
4, 254976, Note_on_c, 0, 50, 102
4, 255360, Note_off_c, 0, 50, 64
4, 255360, Note_on_c, 0, 49, 102
4, 255744, Note_off_c, 0, 49, 64
4, 255744, Note_on_c, 0, 47, 102
4, 256128, Note_off_c, 0, 47, 64
4, 256128, Note_on_c, 0, 59, 102
4, 256512, Note_off_c, 0, 59, 64
4, 256512, Note_on_c, 0, 57, 102
4, 256896, Note_off_c, 0, 57, 64
4, 256896, Note_on_c, 0, 55, 102
4, 257280, Note_off_c, 0, 55, 64
4, 257280, Note_on_c, 0, 54, 102
4, 257664, Note_off_c, 0, 54, 64
4, 258816, Note_on_c, 0, 54, 102
4, 259200, Note_off_c, 0, 54, 64
4, 260352, Note_on_c, 0, 54, 102
4, 260736, Note_off_c, 0, 54, 64
4, 262272, Note_on_c, 0, 54, 102
4, 262656, Note_off_c, 0, 54, 64
4, 262656, Note_on_c, 0, 56, 102
4, 263040, Note_off_c, 0, 56, 64
4, 263040, Note_on_c, 0, 58, 102
4, 263424, Note_off_c, 0, 58, 64
4, 263424, Note_on_c, 0, 59, 102
4, 263808, Note_off_c, 0, 59, 64
4, 263808, Note_on_c, 0, 59, 102
4, 264192, Note_off_c, 0, 59, 64
4, 264192, Note_on_c, 0, 61, 102
4, 264576, Note_off_c, 0, 61, 64
4, 264576, Note_on_c, 0, 62, 102
4, 264960, Note_off_c, 0, 62, 64
4, 264960, Note_on_c, 0, 52, 102
4, 265344, Note_off_c, 0, 52, 64
4, 265344, Note_on_c, 0, 52, 102
4, 265728, Note_off_c, 0, 52, 64
4, 265728, Note_on_c, 0, 54, 102
4, 266112, Note_off_c, 0, 54, 64
4, 266112, Note_on_c, 0, 55, 102
4, 266496, Note_off_c, 0, 55, 64
4, 266496, Note_on_c, 0, 57, 102
4, 266880, Note_off_c, 0, 57, 64
4, 266880, Note_on_c, 0, 57, 102
4, 267264, Note_off_c, 0, 57, 64
4, 267264, Note_on_c, 0, 59, 102
4, 267648, Note_off_c, 0, 59, 64
4, 267648, Note_on_c, 0, 61, 102
4, 268032, Note_off_c, 0, 61, 64
4, 268032, Note_on_c, 0, 50, 102
4, 268416, Note_off_c, 0, 50, 64
4, 268416, Note_on_c, 0, 50, 102
4, 268800, Note_off_c, 0, 50, 64
4, 268800, Note_on_c, 0, 52, 102
4, 269184, Note_off_c, 0, 52, 64
4, 269184, Note_on_c, 0, 54, 102
4, 269568, Note_off_c, 0, 54, 64
4, 269568, Note_on_c, 0, 55, 102
4, 269952, Note_off_c, 0, 55, 64
4, 269952, Note_on_c, 0, 55, 102
4, 270336, Note_off_c, 0, 55, 64
4, 270336, Note_on_c, 0, 57, 102
4, 270720, Note_off_c, 0, 57, 64
4, 270720, Note_on_c, 0, 59, 102
4, 271104, Note_off_c, 0, 59, 64
4, 271104, Note_on_c, 0, 49, 102
4, 271488, Note_off_c, 0, 49, 64
4, 271488, Note_on_c, 0, 50, 102
4, 271872, Note_off_c, 0, 50, 64
4, 271872, Note_on_c, 0, 57, 102
4, 272256, Note_off_c, 0, 57, 64
4, 272256, Note_on_c, 0, 58, 102
4, 272640, Note_off_c, 0, 58, 64
4, 272640, Note_on_c, 0, 59, 102
4, 273024, Note_off_c, 0, 59, 64
4, 273024, Note_on_c, 0, 50, 102
4, 273408, Note_off_c, 0, 50, 64
4, 273408, Note_on_c, 0, 52, 102
4, 273792, Note_off_c, 0, 52, 64
4, 273792, Note_on_c, 0, 54, 102
4, 274176, Note_off_c, 0, 54, 64
4, 274176, Note_on_c, 0, 55, 102
4, 274560, Note_off_c, 0, 55, 64
4, 274560, Note_on_c, 0, 47, 102
4, 274944, Note_off_c, 0, 47, 64
4, 274944, Note_on_c, 0, 48, 102
4, 275328, Note_off_c, 0, 48, 64
4, 275328, Note_on_c, 0, 39, 102
4, 275712, Note_off_c, 0, 39, 64
4, 275712, Note_on_c, 0, 40, 102
4, 276096, Note_off_c, 0, 40, 64
4, 276096, Note_on_c, 0, 49, 102
4, 276480, Note_off_c, 0, 49, 64
4, 276480, Note_on_c, 0, 46, 102
4, 276864, Note_off_c, 0, 46, 64
4, 276864, Note_on_c, 0, 47, 102
4, 277248, Note_off_c, 0, 47, 64
4, 277248, Note_on_c, 0, 42, 102
4, 277440, Note_off_c, 0, 42, 64
4, 277440, Note_on_c, 0, 54, 102
4, 277632, Note_off_c, 0, 54, 64
4, 277632, Note_on_c, 0, 52, 102
4, 277824, Note_off_c, 0, 52, 64
4, 277824, Note_on_c, 0, 54, 102
4, 278016, Note_off_c, 0, 54, 64
4, 278016, Note_on_c, 0, 50, 102
4, 278208, Note_off_c, 0, 50, 64
4, 278208, Note_on_c, 0, 59, 102
4, 278400, Note_off_c, 0, 59, 64
4, 278400, Note_on_c, 0, 55, 102
4, 278976, Note_off_c, 0, 55, 64
4, 278976, Note_on_c, 0, 57, 102
4, 279168, Note_off_c, 0, 57, 64
4, 279168, Note_on_c, 0, 49, 102
4, 279360, Note_off_c, 0, 49, 64
4, 279360, Note_on_c, 0, 57, 102
4, 279552, Note_off_c, 0, 57, 64
4, 279552, Note_on_c, 0, 50, 102
4, 279744, Note_off_c, 0, 50, 64
4, 279744, Note_on_c, 0, 57, 102
4, 279936, Note_off_c, 0, 57, 64
4, 279936, Note_on_c, 0, 54, 102
4, 280512, Note_off_c, 0, 54, 64
4, 280512, Note_on_c, 0, 55, 102
4, 280704, Note_off_c, 0, 55, 64
4, 280704, Note_on_c, 0, 47, 102
4, 280896, Note_off_c, 0, 47, 64
4, 280896, Note_on_c, 0, 55, 102
4, 281088, Note_off_c, 0, 55, 64
4, 281088, Note_on_c, 0, 48, 102
4, 281280, Note_off_c, 0, 48, 64
4, 281280, Note_on_c, 0, 55, 102
4, 281472, Note_off_c, 0, 55, 64
4, 281472, Note_on_c, 0, 52, 102
4, 282048, Note_off_c, 0, 52, 64
4, 282048, Note_on_c, 0, 49, 102
4, 282240, Note_off_c, 0, 49, 64
4, 282240, Note_on_c, 0, 50, 102
4, 282432, Note_off_c, 0, 50, 64
4, 282432, Note_on_c, 0, 47, 102
4, 282624, Note_off_c, 0, 47, 64
4, 282624, Note_on_c, 0, 54, 102
4, 283008, Note_off_c, 0, 54, 64
4, 283008, Note_on_c, 0, 42, 102
4, 283392, Note_off_c, 0, 42, 64
4, 283392, Note_on_c, 0, 47, 102
4, 283776, Note_off_c, 0, 47, 64
4, 284160, Note_on_c, 0, 43, 102
4, 284544, Note_off_c, 0, 43, 64
4, 284928, Note_on_c, 0, 43, 102
4, 285312, Note_off_c, 0, 43, 64
4, 285696, Note_on_c, 0, 42, 102
4, 286080, Note_off_c, 0, 42, 64
4, 286464, Note_on_c, 0, 43, 102
4, 286848, Note_off_c, 0, 43, 64
4, 287232, Note_on_c, 0, 40, 102
4, 287616, Note_off_c, 0, 40, 64
4, 288000, Note_on_c, 0, 42, 102
4, 288384, Note_off_c, 0, 42, 64
4, 288384, Note_on_c, 0, 47, 102
4, 288768, Note_off_c, 0, 47, 64
4, 288768, Note_on_c, 0, 54, 102
4, 289152, Note_off_c, 0, 54, 64
4, 289152, Note_on_c, 0, 42, 102
4, 289536, Note_off_c, 0, 42, 64
4, 289536, Note_on_c, 0, 44, 102
4, 290304, Note_off_c, 0, 44, 64
4, 290688, Note_on_c, 0, 43, 102
4, 291072, Note_off_c, 0, 43, 64
4, 291072, Note_on_c, 0, 42, 102
4, 291456, Note_off_c, 0, 42, 64
4, 291456, Note_on_c, 0, 47, 102
4, 291840, Note_off_c, 0, 47, 64
4, 291840, Note_on_c, 0, 54, 102
4, 292224, Note_off_c, 0, 54, 64
4, 292224, Note_on_c, 0, 42, 102
4, 292608, Note_off_c, 0, 42, 64
4, 292608, Note_on_c, 0, 47, 102
4, 294144, Note_off_c, 0, 47, 64
4, 297220, Note_on_c, 0, 52, 102
4, 297604, Note_on_c, 0, 55, 102
4, 297608, Note_off_c, 0, 52, 64
4, 297988, Note_on_c, 0, 52, 102
4, 297992, Note_off_c, 0, 55, 64
4, 298372, Note_on_c, 0, 59, 102
4, 298376, Note_off_c, 0, 52, 64
4, 299140, Note_on_c, 0, 47, 102
4, 299144, Note_off_c, 0, 59, 64
4, 299524, Note_on_c, 0, 52, 102
4, 299528, Note_off_c, 0, 47, 64
4, 299908, Note_on_c, 0, 54, 102
4, 299912, Note_off_c, 0, 52, 64
4, 300292, Note_on_c, 0, 56, 102
4, 300296, Note_off_c, 0, 54, 64
4, 300676, Note_on_c, 0, 57, 102
4, 300680, Note_off_c, 0, 56, 64
4, 301444, Note_on_c, 0, 55, 102
4, 301448, Note_off_c, 0, 57, 64
4, 301828, Note_on_c, 0, 54, 102
4, 301832, Note_off_c, 0, 55, 64
4, 302596, Note_on_c, 0, 52, 102
4, 302600, Note_off_c, 0, 54, 64
4, 302980, Note_on_c, 0, 51, 102
4, 302984, Note_off_c, 0, 52, 64
4, 303748, Note_on_c, 0, 52, 102
4, 303752, Note_off_c, 0, 51, 64
4, 304132, Note_on_c, 0, 57, 102
4, 304136, Note_off_c, 0, 52, 64
4, 304516, Note_on_c, 0, 59, 102
4, 304520, Note_off_c, 0, 57, 64
4, 304900, Note_on_c, 0, 47, 102
4, 304904, Note_off_c, 0, 59, 64
4, 305284, Note_on_c, 0, 52, 102
4, 305288, Note_off_c, 0, 47, 64
4, 305668, Note_on_c, 0, 43, 102
4, 305672, Note_off_c, 0, 52, 64
4, 306052, Note_on_c, 0, 47, 102
4, 306056, Note_off_c, 0, 43, 64
4, 306436, Note_on_c, 0, 40, 102
4, 306440, Note_off_c, 0, 47, 64
4, 306820, Note_on_c, 0, 52, 102
4, 306824, Note_off_c, 0, 40, 64
4, 307204, Note_on_c, 0, 49, 102
4, 307208, Note_off_c, 0, 52, 64
4, 307588, Note_on_c, 0, 54, 102
4, 307592, Note_off_c, 0, 49, 64
4, 308356, Note_on_c, 0, 42, 102
4, 308360, Note_off_c, 0, 54, 64
4, 308740, Note_on_c, 0, 47, 102
4, 308744, Note_off_c, 0, 42, 64
4, 309124, Note_on_c, 0, 49, 102
4, 309128, Note_off_c, 0, 47, 64
4, 309508, Note_on_c, 0, 51, 102
4, 309512, Note_off_c, 0, 49, 64
4, 309892, Note_on_c, 0, 52, 102
4, 309896, Note_off_c, 0, 51, 64
4, 310660, Note_on_c, 0, 50, 102
4, 310664, Note_off_c, 0, 52, 64
4, 311044, Note_on_c, 0, 49, 102
4, 311048, Note_off_c, 0, 50, 64
4, 311812, Note_on_c, 0, 47, 102
4, 311816, Note_off_c, 0, 49, 64
4, 312196, Note_on_c, 0, 46, 102
4, 312200, Note_off_c, 0, 47, 64
4, 312580, Note_on_c, 0, 42, 102
4, 312584, Note_off_c, 0, 46, 64
4, 312964, Note_on_c, 0, 43, 102
4, 312968, Note_off_c, 0, 42, 64
4, 313348, Note_on_c, 0, 52, 102
4, 313352, Note_off_c, 0, 43, 64
4, 313732, Note_on_c, 0, 54, 102
4, 313736, Note_off_c, 0, 52, 64
4, 314116, Note_on_c, 0, 42, 102
4, 314120, Note_off_c, 0, 54, 64
4, 314500, Note_on_c, 0, 47, 102
4, 314504, Note_off_c, 0, 42, 64
4, 315272, Note_off_c, 0, 47, 64
4, 320260, Note_on_c, 0, 47, 102
4, 320644, Note_on_c, 0, 52, 102
4, 320648, Note_off_c, 0, 47, 64
4, 321028, Note_on_c, 0, 52, 102
4, 321032, Note_off_c, 0, 52, 64
4, 321412, Note_on_c, 0, 52, 102
4, 321416, Note_off_c, 0, 52, 64
4, 321796, Note_on_c, 0, 51, 102
4, 321800, Note_off_c, 0, 52, 64
4, 322184, Note_off_c, 0, 51, 64
4, 322564, Note_on_c, 0, 56, 102
4, 322948, Note_on_c, 0, 50, 102
4, 322952, Note_off_c, 0, 56, 64
4, 323332, Note_on_c, 0, 50, 102
4, 323336, Note_off_c, 0, 50, 64
4, 323716, Note_on_c, 0, 50, 102
4, 323720, Note_off_c, 0, 50, 64
4, 324100, Note_on_c, 0, 49, 102
4, 324104, Note_off_c, 0, 50, 64
4, 324488, Note_off_c, 0, 49, 64
4, 324868, Note_on_c, 0, 57, 102
4, 325252, Note_on_c, 0, 48, 102
4, 325256, Note_off_c, 0, 57, 64
4, 325636, Note_on_c, 0, 48, 102
4, 325640, Note_off_c, 0, 48, 64
4, 326020, Note_on_c, 0, 47, 102
4, 326024, Note_off_c, 0, 48, 64
4, 326404, Note_on_c, 0, 57, 102
4, 326408, Note_off_c, 0, 47, 64
4, 326788, Note_on_c, 0, 55, 102
4, 326792, Note_off_c, 0, 57, 64
4, 327172, Note_on_c, 0, 54, 102
4, 327176, Note_off_c, 0, 55, 64
4, 327556, Note_on_c, 0, 59, 102
4, 327560, Note_off_c, 0, 54, 64
4, 327940, Note_on_c, 0, 47, 102
4, 327944, Note_off_c, 0, 59, 64
4, 328324, Note_on_c, 0, 52, 102
4, 328328, Note_off_c, 0, 47, 64
4, 328836, Note_on_c, 0, 55, 102
4, 328840, Note_off_c, 0, 52, 64
4, 328964, Note_on_c, 0, 52, 102
4, 328968, Note_off_c, 0, 55, 64
4, 329092, Note_on_c, 0, 57, 102
4, 329096, Note_off_c, 0, 52, 64
4, 329220, Note_on_c, 0, 55, 102
4, 329224, Note_off_c, 0, 57, 64
4, 329348, Note_on_c, 0, 57, 102
4, 329352, Note_off_c, 0, 55, 64
4, 329476, Note_on_c, 0, 50, 102
4, 329480, Note_off_c, 0, 57, 64
4, 329988, Note_on_c, 0, 54, 102
4, 329992, Note_off_c, 0, 50, 64
4, 330116, Note_on_c, 0, 50, 102
4, 330120, Note_off_c, 0, 54, 64
4, 330244, Note_on_c, 0, 55, 102
4, 330248, Note_off_c, 0, 50, 64
4, 330372, Note_on_c, 0, 54, 102
4, 330376, Note_off_c, 0, 55, 64
4, 330500, Note_on_c, 0, 55, 102
4, 330504, Note_off_c, 0, 54, 64
4, 330628, Note_on_c, 0, 48, 102
4, 330632, Note_off_c, 0, 55, 64
4, 331140, Note_on_c, 0, 52, 102
4, 331144, Note_off_c, 0, 48, 64
4, 331268, Note_on_c, 0, 48, 102
4, 331272, Note_off_c, 0, 52, 64
4, 331396, Note_on_c, 0, 54, 102
4, 331400, Note_off_c, 0, 48, 64
4, 331524, Note_on_c, 0, 52, 102
4, 331528, Note_off_c, 0, 54, 64
4, 331652, Note_on_c, 0, 54, 102
4, 331656, Note_off_c, 0, 52, 64
4, 331780, Note_on_c, 0, 47, 102
4, 331784, Note_off_c, 0, 54, 64
4, 332292, Note_on_c, 0, 50, 102
4, 332296, Note_off_c, 0, 47, 64
4, 332420, Note_on_c, 0, 47, 102
4, 332424, Note_off_c, 0, 50, 64
4, 332548, Note_on_c, 0, 52, 102
4, 332552, Note_off_c, 0, 47, 64
4, 332676, Note_on_c, 0, 50, 102
4, 332680, Note_off_c, 0, 52, 64
4, 332804, Note_on_c, 0, 52, 102
4, 332808, Note_off_c, 0, 50, 64
4, 332932, Note_on_c, 0, 45, 102
4, 332936, Note_off_c, 0, 52, 64
4, 333316, Note_on_c, 0, 57, 102
4, 333320, Note_off_c, 0, 45, 64
4, 333700, Note_on_c, 0, 55, 102
4, 333704, Note_off_c, 0, 57, 64
4, 334084, Note_on_c, 0, 54, 102
4, 334088, Note_off_c, 0, 55, 64
4, 334468, Note_on_c, 0, 52, 102
4, 334472, Note_off_c, 0, 54, 64
4, 334852, Note_on_c, 0, 50, 102
4, 334856, Note_off_c, 0, 52, 64
4, 335236, Note_on_c, 0, 55, 102
4, 335240, Note_off_c, 0, 50, 64
4, 335620, Note_on_c, 0, 54, 102
4, 335624, Note_off_c, 0, 55, 64
4, 336004, Note_on_c, 0, 52, 102
4, 336008, Note_off_c, 0, 54, 64
4, 336388, Note_on_c, 0, 50, 102
4, 336392, Note_off_c, 0, 52, 64
4, 336772, Note_on_c, 0, 52, 102
4, 336776, Note_off_c, 0, 50, 64
4, 337156, Note_on_c, 0, 54, 102
4, 337160, Note_off_c, 0, 52, 64
4, 337540, Note_on_c, 0, 55, 102
4, 337544, Note_off_c, 0, 54, 64
4, 337924, Note_on_c, 0, 54, 102
4, 337928, Note_off_c, 0, 55, 64
4, 338308, Note_on_c, 0, 52, 102
4, 338312, Note_off_c, 0, 54, 64
4, 338692, Note_on_c, 0, 50, 102
4, 338696, Note_off_c, 0, 52, 64
4, 339460, Note_on_c, 0, 38, 102
4, 339464, Note_off_c, 0, 50, 64
4, 339844, Note_on_c, 0, 43, 102
4, 339848, Note_off_c, 0, 38, 64
4, 340228, Note_on_c, 0, 45, 102
4, 340232, Note_off_c, 0, 43, 64
4, 340612, Note_on_c, 0, 47, 102
4, 340616, Note_off_c, 0, 45, 64
4, 340996, Note_on_c, 0, 48, 102
4, 341000, Note_off_c, 0, 47, 64
4, 341764, Note_on_c, 0, 52, 102
4, 341768, Note_off_c, 0, 48, 64
4, 342148, Note_on_c, 0, 45, 102
4, 342152, Note_off_c, 0, 52, 64
4, 342916, Note_on_c, 0, 43, 102
4, 342920, Note_off_c, 0, 45, 64
4, 343300, Note_on_c, 0, 42, 102
4, 343304, Note_off_c, 0, 43, 64
4, 343684, Note_on_c, 0, 38, 102
4, 343688, Note_off_c, 0, 42, 64
4, 344068, Note_on_c, 0, 40, 102
4, 344072, Note_off_c, 0, 38, 64
4, 344452, Note_on_c, 0, 48, 102
4, 344456, Note_off_c, 0, 40, 64
4, 344836, Note_on_c, 0, 50, 102
4, 344840, Note_off_c, 0, 48, 64
4, 345220, Note_on_c, 0, 38, 102
4, 345224, Note_off_c, 0, 50, 64
4, 345604, Note_on_c, 0, 43, 102
4, 345608, Note_off_c, 0, 38, 64
4, 345988, Note_on_c, 0, 47, 102
4, 345992, Note_off_c, 0, 43, 64
4, 346372, Note_on_c, 0, 50, 102
4, 346376, Note_off_c, 0, 47, 64
4, 346756, Note_on_c, 0, 55, 102
4, 346760, Note_off_c, 0, 50, 64
4, 347140, Note_on_c, 0, 43, 102
4, 347144, Note_off_c, 0, 55, 64
4, 347524, Note_on_c, 0, 40, 102
4, 347528, Note_off_c, 0, 43, 64
4, 347908, Note_on_c, 0, 45, 102
4, 347912, Note_off_c, 0, 40, 64
4, 348676, Note_on_c, 0, 57, 102
4, 348680, Note_off_c, 0, 45, 64
4, 349060, Note_on_c, 0, 50, 102
4, 349064, Note_off_c, 0, 57, 64
4, 349444, Note_on_c, 0, 52, 102
4, 349448, Note_off_c, 0, 50, 64
4, 349828, Note_on_c, 0, 54, 102
4, 349832, Note_off_c, 0, 52, 64
4, 350212, Note_on_c, 0, 55, 102
4, 350216, Note_off_c, 0, 54, 64
4, 350980, Note_on_c, 0, 59, 102
4, 350984, Note_off_c, 0, 55, 64
4, 351364, Note_on_c, 0, 52, 102
4, 351368, Note_off_c, 0, 59, 64
4, 352132, Note_on_c, 0, 50, 102
4, 352136, Note_off_c, 0, 52, 64
4, 352516, Note_on_c, 0, 49, 102
4, 352520, Note_off_c, 0, 50, 64
4, 352900, Note_on_c, 0, 45, 102
4, 352904, Note_off_c, 0, 49, 64
4, 353284, Note_on_c, 0, 47, 102
4, 353288, Note_off_c, 0, 45, 64
4, 353668, Note_on_c, 0, 55, 102
4, 353672, Note_off_c, 0, 47, 64
4, 354052, Note_on_c, 0, 57, 102
4, 354056, Note_off_c, 0, 55, 64
4, 354436, Note_on_c, 0, 45, 102
4, 354440, Note_off_c, 0, 57, 64
4, 354820, Note_on_c, 0, 50, 102
4, 354824, Note_off_c, 0, 45, 64
4, 355204, Note_on_c, 0, 48, 102
4, 355208, Note_off_c, 0, 50, 64
4, 355588, Note_on_c, 0, 47, 102
4, 355592, Note_off_c, 0, 48, 64
4, 355972, Note_on_c, 0, 45, 102
4, 355976, Note_off_c, 0, 47, 64
4, 356356, Note_on_c, 0, 43, 102
4, 356360, Note_off_c, 0, 45, 64
4, 356740, Note_on_c, 0, 42, 102
4, 356744, Note_off_c, 0, 43, 64
4, 357124, Note_on_c, 0, 52, 102
4, 357128, Note_off_c, 0, 42, 64
4, 357508, Note_on_c, 0, 50, 102
4, 357512, Note_off_c, 0, 52, 64
4, 357892, Note_on_c, 0, 49, 102
4, 357896, Note_off_c, 0, 50, 64
4, 358276, Note_on_c, 0, 47, 102
4, 358280, Note_off_c, 0, 49, 64
4, 358660, Note_on_c, 0, 45, 102
4, 358664, Note_off_c, 0, 47, 64
4, 359044, Note_on_c, 0, 43, 102
4, 359048, Note_off_c, 0, 45, 64
4, 359428, Note_on_c, 0, 54, 102
4, 359432, Note_off_c, 0, 43, 64
4, 359812, Note_on_c, 0, 52, 102
4, 359816, Note_off_c, 0, 54, 64
4, 360196, Note_on_c, 0, 51, 102
4, 360200, Note_off_c, 0, 52, 64
4, 360580, Note_on_c, 0, 52, 102
4, 360584, Note_off_c, 0, 51, 64
4, 360964, Note_on_c, 0, 50, 102
4, 360968, Note_off_c, 0, 52, 64
4, 361348, Note_on_c, 0, 49, 102
4, 361352, Note_off_c, 0, 50, 64
4, 361732, Note_on_c, 0, 50, 102
4, 361736, Note_off_c, 0, 49, 64
4, 362116, Note_on_c, 0, 48, 102
4, 362120, Note_off_c, 0, 50, 64
4, 362500, Note_on_c, 0, 47, 102
4, 362504, Note_off_c, 0, 48, 64
4, 362884, Note_on_c, 0, 45, 102
4, 362888, Note_off_c, 0, 47, 64
4, 363268, Note_on_c, 0, 43, 102
4, 363272, Note_off_c, 0, 45, 64
4, 363652, Note_on_c, 0, 41, 102
4, 363656, Note_off_c, 0, 43, 64
4, 364036, Note_on_c, 0, 40, 102
4, 364040, Note_off_c, 0, 41, 64
4, 364420, Note_on_c, 0, 42, 102
4, 364424, Note_off_c, 0, 40, 64
4, 364804, Note_on_c, 0, 44, 102
4, 364808, Note_off_c, 0, 42, 64
4, 365188, Note_on_c, 0, 45, 102
4, 365192, Note_off_c, 0, 44, 64
4, 365700, Note_on_c, 0, 48, 102
4, 365704, Note_off_c, 0, 45, 64
4, 365828, Note_on_c, 0, 47, 102
4, 365832, Note_off_c, 0, 48, 64
4, 365956, Note_on_c, 0, 48, 102
4, 365960, Note_off_c, 0, 47, 64
4, 366084, Note_on_c, 0, 45, 102
4, 366088, Note_off_c, 0, 48, 64
4, 366212, Note_on_c, 0, 51, 102
4, 366216, Note_off_c, 0, 45, 64
4, 366340, Note_on_c, 0, 40, 102
4, 366344, Note_off_c, 0, 51, 64
4, 366852, Note_on_c, 0, 52, 102
4, 366856, Note_off_c, 0, 40, 64
4, 366980, Note_on_c, 0, 50, 102
4, 366984, Note_off_c, 0, 52, 64
4, 367108, Note_on_c, 0, 53, 102
4, 367112, Note_off_c, 0, 50, 64
4, 367236, Note_on_c, 0, 52, 102
4, 367240, Note_off_c, 0, 53, 64
4, 367364, Note_on_c, 0, 56, 102
4, 367368, Note_off_c, 0, 52, 64
4, 367492, Note_on_c, 0, 45, 102
4, 367496, Note_off_c, 0, 56, 64
4, 367876, Note_on_c, 0, 43, 102
4, 367880, Note_off_c, 0, 45, 64
4, 368260, Note_on_c, 0, 45, 102
4, 368264, Note_off_c, 0, 43, 64
4, 368644, Note_on_c, 0, 38, 102
4, 368648, Note_off_c, 0, 45, 64
4, 369156, Note_on_c, 0, 50, 102
4, 369160, Note_off_c, 0, 38, 64
4, 369284, Note_on_c, 0, 49, 102
4, 369288, Note_off_c, 0, 50, 64
4, 369412, Note_on_c, 0, 50, 102
4, 369416, Note_off_c, 0, 49, 64
4, 369540, Note_on_c, 0, 45, 102
4, 369544, Note_off_c, 0, 50, 64
4, 369668, Note_on_c, 0, 48, 102
4, 369672, Note_off_c, 0, 45, 64
4, 369796, Note_on_c, 0, 47, 102
4, 369800, Note_off_c, 0, 48, 64
4, 370308, Note_on_c, 0, 59, 102
4, 370312, Note_off_c, 0, 47, 64
4, 370436, Note_on_c, 0, 57, 102
4, 370440, Note_off_c, 0, 59, 64
4, 370564, Note_on_c, 0, 59, 102
4, 370568, Note_off_c, 0, 57, 64
4, 370692, Note_on_c, 0, 56, 102
4, 370696, Note_off_c, 0, 59, 64
4, 370820, Note_on_c, 0, 57, 102
4, 370824, Note_off_c, 0, 56, 64
4, 370948, Note_on_c, 0, 56, 102
4, 370952, Note_off_c, 0, 57, 64
4, 371460, Note_on_c, 0, 57, 102
4, 371464, Note_off_c, 0, 56, 64
4, 371588, Note_on_c, 0, 56, 102
4, 371592, Note_off_c, 0, 57, 64
4, 371716, Note_on_c, 0, 57, 102
4, 371720, Note_off_c, 0, 56, 64
4, 371844, Note_on_c, 0, 52, 102
4, 371848, Note_off_c, 0, 57, 64
4, 371972, Note_on_c, 0, 53, 102
4, 371976, Note_off_c, 0, 52, 64
4, 372100, Note_on_c, 0, 50, 102
4, 372104, Note_off_c, 0, 53, 64
4, 372484, Note_on_c, 0, 52, 102
4, 372488, Note_off_c, 0, 50, 64
4, 372868, Note_on_c, 0, 40, 102
4, 372872, Note_off_c, 0, 52, 64
4, 373252, Note_on_c, 0, 45, 102
4, 373256, Note_off_c, 0, 40, 64
4, 373636, Note_on_c, 0, 43, 102
4, 373640, Note_off_c, 0, 45, 64
4, 374020, Note_on_c, 0, 42, 102
4, 374024, Note_off_c, 0, 43, 64
4, 374404, Note_on_c, 0, 43, 102
4, 374408, Note_off_c, 0, 42, 64
4, 374788, Note_on_c, 0, 45, 102
4, 374792, Note_off_c, 0, 43, 64
4, 375172, Note_on_c, 0, 42, 102
4, 375176, Note_off_c, 0, 45, 64
4, 375556, Note_on_c, 0, 47, 102
4, 375560, Note_off_c, 0, 42, 64
4, 376324, Note_on_c, 0, 59, 102
4, 376328, Note_off_c, 0, 47, 64
4, 376708, Note_on_c, 0, 52, 102
4, 376712, Note_off_c, 0, 59, 64
4, 377092, Note_on_c, 0, 54, 102
4, 377096, Note_off_c, 0, 52, 64
4, 377476, Note_on_c, 0, 56, 102
4, 377480, Note_off_c, 0, 54, 64
4, 377860, Note_on_c, 0, 57, 102
4, 377864, Note_off_c, 0, 56, 64
4, 378628, Note_on_c, 0, 55, 102
4, 378632, Note_off_c, 0, 57, 64
4, 379012, Note_on_c, 0, 54, 102
4, 379016, Note_off_c, 0, 55, 64
4, 379780, Note_on_c, 0, 52, 102
4, 379784, Note_off_c, 0, 54, 64
4, 380164, Note_on_c, 0, 51, 102
4, 380168, Note_off_c, 0, 52, 64
4, 380548, Note_on_c, 0, 47, 102
4, 380552, Note_off_c, 0, 51, 64
4, 380932, Note_on_c, 0, 48, 102
4, 380936, Note_off_c, 0, 47, 64
4, 381316, Note_on_c, 0, 57, 102
4, 381320, Note_off_c, 0, 48, 64
4, 381700, Note_on_c, 0, 59, 102
4, 381704, Note_off_c, 0, 57, 64
4, 382084, Note_on_c, 0, 47, 102
4, 382088, Note_off_c, 0, 59, 64
4, 382468, Note_on_c, 0, 52, 102
4, 382472, Note_off_c, 0, 47, 64
4, 382856, Note_off_c, 0, 52, 64
4, 383620, Note_on_c, 0, 50, 102
4, 384008, Note_off_c, 0, 50, 64
4, 384772, Note_on_c, 0, 48, 102
4, 385160, Note_off_c, 0, 48, 64
4, 385924, Note_on_c, 0, 47, 102
4, 386312, Note_off_c, 0, 47, 64
4, 387076, Note_on_c, 0, 45, 102
4, 387464, Note_off_c, 0, 45, 64
4, 388228, Note_on_c, 0, 47, 102
4, 388612, Note_on_c, 0, 52, 102
4, 388616, Note_off_c, 0, 47, 64
4, 388996, Note_on_c, 0, 52, 102
4, 389000, Note_off_c, 0, 52, 64
4, 389380, Note_on_c, 0, 52, 102
4, 389384, Note_off_c, 0, 52, 64
4, 389764, Note_on_c, 0, 51, 102
4, 389768, Note_off_c, 0, 52, 64
4, 390152, Note_off_c, 0, 51, 64
4, 390532, Note_on_c, 0, 56, 102
4, 390916, Note_on_c, 0, 50, 102
4, 390920, Note_off_c, 0, 56, 64
4, 391300, Note_on_c, 0, 50, 102
4, 391304, Note_off_c, 0, 50, 64
4, 391684, Note_on_c, 0, 50, 102
4, 391688, Note_off_c, 0, 50, 64
4, 392068, Note_on_c, 0, 49, 102
4, 392072, Note_off_c, 0, 50, 64
4, 392456, Note_off_c, 0, 49, 64
4, 392836, Note_on_c, 0, 57, 102
4, 393220, Note_on_c, 0, 48, 102
4, 393224, Note_off_c, 0, 57, 64
4, 393604, Note_on_c, 0, 48, 102
4, 393608, Note_off_c, 0, 48, 64
4, 393988, Note_on_c, 0, 47, 102
4, 393992, Note_off_c, 0, 48, 64
4, 394372, Note_on_c, 0, 57, 102
4, 394376, Note_off_c, 0, 47, 64
4, 394756, Note_on_c, 0, 55, 102
4, 394760, Note_off_c, 0, 57, 64
4, 395140, Note_on_c, 0, 54, 102
4, 395144, Note_off_c, 0, 55, 64
4, 395524, Note_on_c, 0, 59, 102
4, 395528, Note_off_c, 0, 54, 64
4, 395908, Note_on_c, 0, 47, 102
4, 395912, Note_off_c, 0, 59, 64
4, 396292, Note_on_c, 0, 52, 102
4, 396296, Note_off_c, 0, 47, 64
4, 396804, Note_on_c, 0, 55, 102
4, 396808, Note_off_c, 0, 52, 64
4, 396932, Note_on_c, 0, 52, 102
4, 396936, Note_off_c, 0, 55, 64
4, 397060, Note_on_c, 0, 57, 102
4, 397064, Note_off_c, 0, 52, 64
4, 397188, Note_on_c, 0, 55, 102
4, 397192, Note_off_c, 0, 57, 64
4, 397316, Note_on_c, 0, 57, 102
4, 397320, Note_off_c, 0, 55, 64
4, 397444, Note_on_c, 0, 50, 102
4, 397448, Note_off_c, 0, 57, 64
4, 397956, Note_on_c, 0, 54, 102
4, 397960, Note_off_c, 0, 50, 64
4, 398084, Note_on_c, 0, 50, 102
4, 398088, Note_off_c, 0, 54, 64
4, 398212, Note_on_c, 0, 55, 102
4, 398216, Note_off_c, 0, 50, 64
4, 398340, Note_on_c, 0, 54, 102
4, 398344, Note_off_c, 0, 55, 64
4, 398468, Note_on_c, 0, 55, 102
4, 398472, Note_off_c, 0, 54, 64
4, 398596, Note_on_c, 0, 48, 102
4, 398600, Note_off_c, 0, 55, 64
4, 398980, Note_on_c, 0, 60, 102
4, 398984, Note_off_c, 0, 48, 64
4, 399364, Note_on_c, 0, 48, 102
4, 399368, Note_off_c, 0, 60, 64
4, 399748, Note_on_c, 0, 47, 102
4, 399752, Note_off_c, 0, 48, 64
4, 400324, Note_on_c, 0, 59, 102
4, 400328, Note_off_c, 0, 47, 64
4, 400516, Note_on_c, 0, 60, 102
4, 400520, Note_off_c, 0, 59, 64
4, 400804, Note_on_c, 0, 54, 102
4, 400808, Note_off_c, 0, 60, 64
4, 400900, Note_on_c, 0, 55, 102
4, 400904, Note_off_c, 0, 54, 64
4, 401188, Note_on_c, 0, 57, 102
4, 401192, Note_off_c, 0, 55, 64
4, 401284, Note_on_c, 0, 59, 102
4, 401288, Note_off_c, 0, 57, 64
4, 401668, Note_on_c, 0, 47, 102
4, 401672, Note_off_c, 0, 59, 64
4, 402052, Note_on_c, 0, 52, 102
4, 402056, Note_off_c, 0, 47, 64
4, 402564, Note_on_c, 0, 55, 102
4, 402568, Note_off_c, 0, 52, 64
4, 402692, Note_on_c, 0, 52, 102
4, 402696, Note_off_c, 0, 55, 64
4, 402820, Note_on_c, 0, 57, 102
4, 402824, Note_off_c, 0, 52, 64
4, 402948, Note_on_c, 0, 55, 102
4, 402952, Note_off_c, 0, 57, 64
4, 403076, Note_on_c, 0, 57, 102
4, 403080, Note_off_c, 0, 55, 64
4, 403204, Note_on_c, 0, 50, 102
4, 403208, Note_off_c, 0, 57, 64
4, 403716, Note_on_c, 0, 54, 102
4, 403720, Note_off_c, 0, 50, 64
4, 403844, Note_on_c, 0, 50, 102
4, 403848, Note_off_c, 0, 54, 64
4, 403972, Note_on_c, 0, 55, 102
4, 403976, Note_off_c, 0, 50, 64
4, 404100, Note_on_c, 0, 54, 102
4, 404104, Note_off_c, 0, 55, 64
4, 404228, Note_on_c, 0, 55, 102
4, 404232, Note_off_c, 0, 54, 64
4, 404356, Note_on_c, 0, 48, 102
4, 404360, Note_off_c, 0, 55, 64
4, 404740, Note_on_c, 0, 60, 102
4, 404744, Note_off_c, 0, 48, 64
4, 405124, Note_on_c, 0, 48, 102
4, 405128, Note_off_c, 0, 60, 64
4, 405508, Note_on_c, 0, 47, 102
4, 405512, Note_off_c, 0, 48, 64
4, 406084, Note_on_c, 0, 59, 102
4, 406088, Note_off_c, 0, 47, 64
4, 406276, Note_on_c, 0, 60, 102
4, 406280, Note_off_c, 0, 59, 64
4, 406564, Note_on_c, 0, 54, 102
4, 406568, Note_off_c, 0, 60, 64
4, 406660, Note_on_c, 0, 55, 102
4, 406664, Note_off_c, 0, 54, 64
4, 406948, Note_on_c, 0, 57, 102
4, 406952, Note_off_c, 0, 55, 64
4, 407044, Note_on_c, 0, 59, 102
4, 407048, Note_off_c, 0, 57, 64
4, 407428, Note_on_c, 0, 47, 102
4, 407432, Note_off_c, 0, 59, 64
4, 407812, Note_on_c, 0, 40, 102
4, 407816, Note_off_c, 0, 47, 64
4, 408968, Note_off_c, 0, 40, 64
4, 409088, End_track
0, 0, End_of_file
