0, 0, Header, 1, 9, 48
1, 0, Start_track
1, 0, MIDI_port, 0
1, 0, System_exclusive, 5, 126, 127, 9, 1, 247
1, 0, MIDI_port, 0
1, 0, Time_signature, 4, 2, 24, 8
1, 0, Key_signature, 0, "major"
1, 0, Tempo, 697674
1, 0, Marker_t, "Allegro"
1, 29184, Tempo, 697674
1, 29232, Tempo, 714286
1, 29256, Tempo, 731707
1, 29280, Tempo, 750000
1, 29292, Tempo, 769231
1, 29316, Tempo, 800000
1, 29340, Tempo, 845070
1, 29352, Tempo, 895522
1, 29364, Tempo, 1395349
1, 29376, Tempo, 1200000
1, 29388, Tempo, 869565
1, 29400, Tempo, 800000
1, 29412, Tempo, 789474
1, 29424, Tempo, 750000
1, 29436, Tempo, 731707
1, 29460, Tempo, 697674
1, 29472, Tempo, 697674
1, 29760, Tempo, 1304348
1, 29772, Tempo, 697674
1, 29784, Tempo, 697674
1, 31680, Tempo, 983607
1, 31692, Tempo, 697674
1, 31704, Tempo, 697674
1, 32832, Tempo, 1250000
1, 32844, Tempo, 697674
1, 32856, Tempo, 697674
1, 33600, Tempo, 1071429
1, 33612, Tempo, 697674
1, 33624, Tempo, 697674
1, 37056, Tempo, 697674
1, 37104, Tempo, 714286
1, 37140, Tempo, 731707
1, 37164, Tempo, 750000
1, 37188, Tempo, 769231
1, 37200, Tempo, 789474
1, 37212, Tempo, 800000
1, 37224, Tempo, 821918
1, 37236, Tempo, 1111111
1, 37248, Tempo, 1111111
1, 37260, Tempo, 697674
1, 37272, Tempo, 697674
1, 38688, Tempo, 410959
1, 38784, Time_signature, 2, 2, 24, 8
1, 38880, Time_signature, 4, 2, 24, 8
1, 38880, Tempo, 1395349
1, 38892, Tempo, 697674
1, 41856, Tempo, 697674
1, 41868, Tempo, 769231
1, 41880, Tempo, 769231
1, 41952, Tempo, 697674
1, 43488, Tempo, 1621622
1, 43512, Tempo, 1621622
1, 43680, Tempo, 845070
1, 43680, Marker_t, "Affettuoso"
1, 61920, Tempo, 845070
1, 61944, Tempo, 869565
1, 61956, Tempo, 895522
1, 61980, Tempo, 923077
1, 61992, Tempo, 952381
1, 62016, Tempo, 983607
1, 62028, Tempo, 1000000
1, 62052, Tempo, 1034483
1, 62064, Tempo, 1071429
1, 62088, Tempo, 1111111
1, 62100, Tempo, 1153846
1, 62112, Tempo, 1153846
1, 62124, Tempo, 1200000
1, 62136, Tempo, 1250000
1, 62160, Tempo, 1304348
1, 62172, Tempo, 1333333
1, 62196, Tempo, 1395349
1, 62208, Tempo, 1463415
1, 62304, Tempo, 483871
1, 62304, Marker_t, "Allegro"
1, 62688, Time_signature, 2, 2, 24, 8
1, 91680, Tempo, 480000
1, 91692, Tempo, 487805
1, 91716, Tempo, 491803
1, 91740, Tempo, 500000
1, 91764, Tempo, 508475
1, 91776, Tempo, 517241
1, 91800, Tempo, 521739
1, 91824, Tempo, 530973
1, 91848, Tempo, 540541
1, 91860, Tempo, 545455
1, 91872, Tempo, 545455
1, 91884, Tempo, 555556
1, 91908, Tempo, 566038
1, 91932, Tempo, 576923
1, 91944, Tempo, 582524
1, 91968, Tempo, 594059
1, 91968, End_track
2, 0, Start_track
2, 0, MIDI_port, 0
2, 0, Title_t, "Cembalo RH"
2, 0, Program_c, 0, 6
2, 0, Control_c, 0, 7, 112
2, 0, Control_c, 0, 10, 72
2, 0, Control_c, 0, 121, 0
2, 0, Control_c, 0, 91, 127
2, 0, Control_c, 0, 93, 0
2, 0, Note_on_c, 0, 69, 79
2, 0, Note_on_c, 0, 62, 79
2, 0, Note_on_c, 0, 66, 79
2, 0, Note_on_c, 0, 74, 79
2, 48, Note_on_c, 0, 74, 0
2, 48, Note_on_c, 0, 69, 0
2, 48, Note_on_c, 0, 62, 0
2, 48, Note_on_c, 0, 66, 0
2, 1548, Note_on_c, 0, 81, 79
2, 1552, Note_on_c, 0, 81, 0
2, 1554, Note_on_c, 0, 79, 79
2, 1558, Note_on_c, 0, 79, 0
2, 1560, Note_on_c, 0, 78, 79
2, 1568, Note_on_c, 0, 78, 0
2, 1572, Note_on_c, 0, 81, 79
2, 1580, Note_on_c, 0, 81, 0
2, 1584, Note_on_c, 0, 76, 79
2, 1592, Note_on_c, 0, 76, 0
2, 1596, Note_on_c, 0, 81, 79
2, 1604, Note_on_c, 0, 81, 0
2, 1608, Note_on_c, 0, 74, 79
2, 1616, Note_on_c, 0, 74, 0
2, 1620, Note_on_c, 0, 81, 79
2, 1628, Note_on_c, 0, 81, 0
2, 1632, Note_on_c, 0, 73, 79
2, 1640, Note_on_c, 0, 73, 0
2, 1644, Note_on_c, 0, 81, 79
2, 1652, Note_on_c, 0, 81, 0
2, 1656, Note_on_c, 0, 74, 79
2, 1664, Note_on_c, 0, 74, 0
2, 1668, Note_on_c, 0, 81, 79
2, 1676, Note_on_c, 0, 81, 0
2, 1680, Note_on_c, 0, 73, 79
2, 1688, Note_on_c, 0, 73, 0
2, 1692, Note_on_c, 0, 81, 79
2, 1700, Note_on_c, 0, 81, 0
2, 1704, Note_on_c, 0, 71, 79
2, 1712, Note_on_c, 0, 71, 0
2, 1716, Note_on_c, 0, 81, 79
2, 1724, Note_on_c, 0, 81, 0
2, 1728, Note_on_c, 0, 69, 79
2, 1744, Note_on_c, 0, 69, 0
2, 1752, Note_on_c, 0, 73, 79
2, 1757, Note_on_c, 0, 73, 0
2, 1760, Note_on_c, 0, 71, 79
2, 1765, Note_on_c, 0, 71, 0
2, 1768, Note_on_c, 0, 73, 79
2, 1773, Note_on_c, 0, 73, 0
2, 1776, Note_on_c, 0, 74, 79
2, 1781, Note_on_c, 0, 74, 0
2, 1784, Note_on_c, 0, 73, 79
2, 1789, Note_on_c, 0, 73, 0
2, 1792, Note_on_c, 0, 74, 79
2, 1797, Note_on_c, 0, 74, 0
2, 1800, Note_on_c, 0, 76, 79
2, 1805, Note_on_c, 0, 76, 0
2, 1808, Note_on_c, 0, 74, 79
2, 1813, Note_on_c, 0, 74, 0
2, 1816, Note_on_c, 0, 76, 79
2, 1821, Note_on_c, 0, 76, 0
2, 1824, Note_on_c, 0, 78, 79
2, 1832, Note_on_c, 0, 78, 0
2, 1836, Note_on_c, 0, 76, 79
2, 1844, Note_on_c, 0, 76, 0
2, 1848, Note_on_c, 0, 74, 79
2, 1856, Note_on_c, 0, 74, 0
2, 1860, Note_on_c, 0, 76, 79
2, 1868, Note_on_c, 0, 76, 0
2, 1872, Note_on_c, 0, 78, 79
2, 1880, Note_on_c, 0, 78, 0
2, 1884, Note_on_c, 0, 79, 79
2, 1892, Note_on_c, 0, 79, 0
2, 1896, Note_on_c, 0, 81, 79
2, 1904, Note_on_c, 0, 81, 0
2, 1908, Note_on_c, 0, 83, 79
2, 1916, Note_on_c, 0, 83, 0
2, 1920, Note_on_c, 0, 76, 79
2, 1928, Note_on_c, 0, 76, 0
2, 1932, Note_on_c, 0, 78, 79
2, 1940, Note_on_c, 0, 78, 0
2, 1944, Note_on_c, 0, 76, 79
2, 1952, Note_on_c, 0, 76, 0
2, 1956, Note_on_c, 0, 74, 79
2, 1964, Note_on_c, 0, 74, 0
2, 1968, Note_on_c, 0, 73, 79
2, 1976, Note_on_c, 0, 73, 0
2, 1980, Note_on_c, 0, 71, 79
2, 1988, Note_on_c, 0, 71, 0
2, 1992, Note_on_c, 0, 69, 79
2, 2000, Note_on_c, 0, 69, 0
2, 2004, Note_on_c, 0, 67, 79
2, 2012, Note_on_c, 0, 67, 0
2, 2016, Note_on_c, 0, 66, 79
2, 2024, Note_on_c, 0, 66, 0
2, 2028, Note_on_c, 0, 64, 79
2, 2036, Note_on_c, 0, 64, 0
2, 2040, Note_on_c, 0, 66, 79
2, 2048, Note_on_c, 0, 66, 0
2, 2052, Note_on_c, 0, 69, 79
2, 2060, Note_on_c, 0, 69, 0
2, 2064, Note_on_c, 0, 64, 79
2, 2072, Note_on_c, 0, 64, 0
2, 2076, Note_on_c, 0, 69, 79
2, 2084, Note_on_c, 0, 69, 0
2, 2088, Note_on_c, 0, 62, 79
2, 2096, Note_on_c, 0, 62, 0
2, 2100, Note_on_c, 0, 69, 79
2, 2108, Note_on_c, 0, 69, 0
2, 2112, Note_on_c, 0, 61, 79
2, 2120, Note_on_c, 0, 61, 0
2, 2124, Note_on_c, 0, 69, 79
2, 2132, Note_on_c, 0, 69, 0
2, 2136, Note_on_c, 0, 62, 79
2, 2144, Note_on_c, 0, 62, 0
2, 2148, Note_on_c, 0, 69, 79
2, 2156, Note_on_c, 0, 69, 0
2, 2160, Note_on_c, 0, 61, 79
2, 2168, Note_on_c, 0, 61, 0
2, 2172, Note_on_c, 0, 69, 79
2, 2180, Note_on_c, 0, 69, 0
2, 2184, Note_on_c, 0, 59, 79
2, 2192, Note_on_c, 0, 59, 0
2, 2196, Note_on_c, 0, 69, 79
2, 2204, Note_on_c, 0, 69, 0
2, 2208, Note_on_c, 0, 57, 79
2, 2224, Note_on_c, 0, 57, 0
2, 2232, Note_on_c, 0, 61, 79
2, 2237, Note_on_c, 0, 61, 0
2, 2240, Note_on_c, 0, 59, 79
2, 2245, Note_on_c, 0, 59, 0
2, 2248, Note_on_c, 0, 61, 79
2, 2253, Note_on_c, 0, 61, 0
2, 2256, Note_on_c, 0, 62, 79
2, 2261, Note_on_c, 0, 62, 0
2, 2264, Note_on_c, 0, 61, 79
2, 2269, Note_on_c, 0, 61, 0
2, 2272, Note_on_c, 0, 62, 79
2, 2277, Note_on_c, 0, 62, 0
2, 2280, Note_on_c, 0, 64, 79
2, 2285, Note_on_c, 0, 64, 0
2, 2288, Note_on_c, 0, 62, 79
2, 2293, Note_on_c, 0, 62, 0
2, 2296, Note_on_c, 0, 64, 79
2, 2301, Note_on_c, 0, 64, 0
2, 2304, Note_on_c, 0, 66, 79
2, 2312, Note_on_c, 0, 66, 0
2, 2316, Note_on_c, 0, 64, 79
2, 2324, Note_on_c, 0, 64, 0
2, 2328, Note_on_c, 0, 62, 79
2, 2336, Note_on_c, 0, 62, 0
2, 2340, Note_on_c, 0, 64, 79
2, 2348, Note_on_c, 0, 64, 0
2, 2352, Note_on_c, 0, 66, 79
2, 2360, Note_on_c, 0, 66, 0
2, 2364, Note_on_c, 0, 67, 79
2, 2372, Note_on_c, 0, 67, 0
2, 2376, Note_on_c, 0, 69, 79
2, 2384, Note_on_c, 0, 69, 0
2, 2388, Note_on_c, 0, 71, 79
2, 2396, Note_on_c, 0, 71, 0
2, 2400, Note_on_c, 0, 73, 79
2, 2408, Note_on_c, 0, 73, 0
2, 2412, Note_on_c, 0, 74, 79
2, 2420, Note_on_c, 0, 74, 0
2, 2424, Note_on_c, 0, 73, 79
2, 2432, Note_on_c, 0, 73, 0
2, 2436, Note_on_c, 0, 71, 79
2, 2444, Note_on_c, 0, 71, 0
2, 2448, Note_on_c, 0, 69, 79
2, 2456, Note_on_c, 0, 69, 0
2, 2460, Note_on_c, 0, 67, 79
2, 2468, Note_on_c, 0, 67, 0
2, 2472, Note_on_c, 0, 66, 79
2, 2480, Note_on_c, 0, 66, 0
2, 2484, Note_on_c, 0, 64, 79
2, 2492, Note_on_c, 0, 64, 0
2, 2496, Note_on_c, 0, 62, 79
2, 2504, Note_on_c, 0, 62, 0
2, 2508, Note_on_c, 0, 78, 79
2, 2516, Note_on_c, 0, 78, 0
2, 2520, Note_on_c, 0, 76, 79
2, 2528, Note_on_c, 0, 76, 0
2, 2532, Note_on_c, 0, 78, 79
2, 2540, Note_on_c, 0, 78, 0
2, 2544, Note_on_c, 0, 74, 79
2, 2552, Note_on_c, 0, 74, 0
2, 2556, Note_on_c, 0, 78, 79
2, 2564, Note_on_c, 0, 78, 0
2, 2568, Note_on_c, 0, 73, 79
2, 2576, Note_on_c, 0, 73, 0
2, 2580, Note_on_c, 0, 78, 79
2, 2588, Note_on_c, 0, 78, 0
2, 2592, Note_on_c, 0, 71, 79
2, 2600, Note_on_c, 0, 71, 0
2, 2604, Note_on_c, 0, 78, 79
2, 2612, Note_on_c, 0, 78, 0
2, 2616, Note_on_c, 0, 69, 79
2, 2624, Note_on_c, 0, 69, 0
2, 2628, Note_on_c, 0, 78, 79
2, 2636, Note_on_c, 0, 78, 0
2, 2640, Note_on_c, 0, 68, 79
2, 2648, Note_on_c, 0, 68, 0
2, 2652, Note_on_c, 0, 78, 79
2, 2660, Note_on_c, 0, 78, 0
2, 2664, Note_on_c, 0, 66, 79
2, 2672, Note_on_c, 0, 66, 0
2, 2676, Note_on_c, 0, 78, 79
2, 2684, Note_on_c, 0, 78, 0
2, 2688, Note_on_c, 0, 64, 79
2, 2696, Note_on_c, 0, 64, 0
2, 2700, Note_on_c, 0, 76, 79
2, 2708, Note_on_c, 0, 76, 0
2, 2712, Note_on_c, 0, 74, 79
2, 2720, Note_on_c, 0, 74, 0
2, 2724, Note_on_c, 0, 76, 79
2, 2732, Note_on_c, 0, 76, 0
2, 2736, Note_on_c, 0, 73, 79
2, 2744, Note_on_c, 0, 73, 0
2, 2748, Note_on_c, 0, 76, 79
2, 2756, Note_on_c, 0, 76, 0
2, 2760, Note_on_c, 0, 71, 79
2, 2768, Note_on_c, 0, 71, 0
2, 2772, Note_on_c, 0, 76, 79
2, 2780, Note_on_c, 0, 76, 0
2, 2784, Note_on_c, 0, 69, 79
2, 2792, Note_on_c, 0, 69, 0
2, 2796, Note_on_c, 0, 76, 79
2, 2804, Note_on_c, 0, 76, 0
2, 2808, Note_on_c, 0, 68, 79
2, 2816, Note_on_c, 0, 68, 0
2, 2820, Note_on_c, 0, 76, 79
2, 2828, Note_on_c, 0, 76, 0
2, 2832, Note_on_c, 0, 66, 79
2, 2840, Note_on_c, 0, 66, 0
2, 2844, Note_on_c, 0, 76, 79
2, 2852, Note_on_c, 0, 76, 0
2, 2856, Note_on_c, 0, 64, 79
2, 2864, Note_on_c, 0, 64, 0
2, 2868, Note_on_c, 0, 76, 79
2, 2876, Note_on_c, 0, 76, 0
2, 2880, Note_on_c, 0, 62, 79
2, 2888, Note_on_c, 0, 62, 0
2, 2892, Note_on_c, 0, 74, 79
2, 2900, Note_on_c, 0, 74, 0
2, 2904, Note_on_c, 0, 73, 79
2, 2912, Note_on_c, 0, 73, 0
2, 2916, Note_on_c, 0, 74, 79
2, 2924, Note_on_c, 0, 74, 0
2, 2928, Note_on_c, 0, 71, 79
2, 2936, Note_on_c, 0, 71, 0
2, 2940, Note_on_c, 0, 74, 79
2, 2948, Note_on_c, 0, 74, 0
2, 2952, Note_on_c, 0, 69, 79
2, 2960, Note_on_c, 0, 69, 0
2, 2964, Note_on_c, 0, 74, 79
2, 2972, Note_on_c, 0, 74, 0
2, 2976, Note_on_c, 0, 68, 79
2, 2984, Note_on_c, 0, 68, 0
2, 2988, Note_on_c, 0, 74, 79
2, 2996, Note_on_c, 0, 74, 0
2, 3000, Note_on_c, 0, 66, 79
2, 3008, Note_on_c, 0, 66, 0
2, 3012, Note_on_c, 0, 74, 79
2, 3020, Note_on_c, 0, 74, 0
2, 3024, Note_on_c, 0, 64, 79
2, 3032, Note_on_c, 0, 64, 0
2, 3036, Note_on_c, 0, 74, 79
2, 3044, Note_on_c, 0, 74, 0
2, 3048, Note_on_c, 0, 68, 79
2, 3056, Note_on_c, 0, 68, 0
2, 3060, Note_on_c, 0, 74, 79
2, 3068, Note_on_c, 0, 74, 0
2, 3072, Note_on_c, 0, 73, 79
2, 3080, Note_on_c, 0, 73, 0
2, 3084, Note_on_c, 0, 69, 79
2, 3092, Note_on_c, 0, 69, 0
2, 3096, Note_on_c, 0, 74, 79
2, 3104, Note_on_c, 0, 74, 0
2, 3108, Note_on_c, 0, 69, 79
2, 3116, Note_on_c, 0, 69, 0
2, 3120, Note_on_c, 0, 76, 79
2, 3128, Note_on_c, 0, 76, 0
2, 3132, Note_on_c, 0, 69, 79
2, 3140, Note_on_c, 0, 69, 0
2, 3144, Note_on_c, 0, 73, 79
2, 3152, Note_on_c, 0, 73, 0
2, 3156, Note_on_c, 0, 76, 79
2, 3164, Note_on_c, 0, 76, 0
2, 3168, Note_on_c, 0, 78, 79
2, 3176, Note_on_c, 0, 78, 0
2, 3180, Note_on_c, 0, 74, 79
2, 3188, Note_on_c, 0, 74, 0
2, 3192, Note_on_c, 0, 81, 79
2, 3200, Note_on_c, 0, 81, 0
2, 3204, Note_on_c, 0, 73, 79
2, 3212, Note_on_c, 0, 73, 0
2, 3216, Note_on_c, 0, 74, 79
2, 3224, Note_on_c, 0, 74, 0
2, 3228, Note_on_c, 0, 76, 79
2, 3236, Note_on_c, 0, 76, 0
2, 3240, Note_on_c, 0, 78, 79
2, 3248, Note_on_c, 0, 78, 0
2, 3252, Note_on_c, 0, 74, 79
2, 3260, Note_on_c, 0, 74, 0
2, 3264, Note_on_c, 0, 71, 79
2, 3272, Note_on_c, 0, 71, 0
2, 3276, Note_on_c, 0, 76, 79
2, 3284, Note_on_c, 0, 76, 0
2, 3288, Note_on_c, 0, 74, 79
2, 3296, Note_on_c, 0, 74, 0
2, 3300, Note_on_c, 0, 76, 79
2, 3308, Note_on_c, 0, 76, 0
2, 3312, Note_on_c, 0, 69, 79
2, 3320, Note_on_c, 0, 69, 0
2, 3324, Note_on_c, 0, 81, 79
2, 3332, Note_on_c, 0, 81, 0
2, 3336, Note_on_c, 0, 80, 79
2, 3344, Note_on_c, 0, 80, 0
2, 3348, Note_on_c, 0, 78, 79
2, 3356, Note_on_c, 0, 78, 0
2, 3360, Note_on_c, 0, 76, 79
2, 3368, Note_on_c, 0, 76, 0
2, 3372, Note_on_c, 0, 74, 79
2, 3380, Note_on_c, 0, 74, 0
2, 3384, Note_on_c, 0, 73, 79
2, 3392, Note_on_c, 0, 73, 0
2, 3396, Note_on_c, 0, 76, 79
2, 3404, Note_on_c, 0, 76, 0
2, 3408, Note_on_c, 0, 74, 79
2, 3416, Note_on_c, 0, 74, 0
2, 3420, Note_on_c, 0, 73, 79
2, 3428, Note_on_c, 0, 73, 0
2, 3432, Note_on_c, 0, 71, 79
2, 3440, Note_on_c, 0, 71, 0
2, 3444, Note_on_c, 0, 74, 79
2, 3452, Note_on_c, 0, 74, 0
2, 3456, Note_on_c, 0, 76, 79
2, 3472, Note_on_c, 0, 76, 0
2, 3480, Note_on_c, 0, 73, 79
2, 3496, Note_on_c, 0, 73, 0
2, 3804, Note_on_c, 0, 76, 95
2, 3816, Note_on_c, 0, 76, 0
2, 3816, Note_on_c, 0, 68, 95
2, 3816, Note_on_c, 0, 74, 95
2, 3828, Note_on_c, 0, 74, 0
2, 3828, Note_on_c, 0, 76, 95
2, 3840, Note_on_c, 0, 76, 0
2, 3840, Note_on_c, 0, 68, 0
2, 3840, Note_on_c, 0, 69, 95
2, 3840, Note_on_c, 0, 73, 95
2, 3852, Note_on_c, 0, 73, 0
2, 3852, Note_on_c, 0, 76, 95
2, 3864, Note_on_c, 0, 76, 0
2, 3864, Note_on_c, 0, 69, 0
2, 3864, Note_on_c, 0, 67, 95
2, 3864, Note_on_c, 0, 71, 95
2, 3864, Note_on_c, 0, 76, 95
2, 3876, Note_on_c, 0, 76, 0
2, 3876, Note_on_c, 0, 71, 0
2, 3876, Note_on_c, 0, 69, 95
2, 3876, Note_on_c, 0, 76, 95
2, 3888, Note_on_c, 0, 76, 0
2, 3888, Note_on_c, 0, 69, 0
2, 3888, Note_on_c, 0, 67, 0
2, 3888, Note_on_c, 0, 66, 95
2, 3888, Note_on_c, 0, 69, 95
2, 3900, Note_on_c, 0, 69, 0
2, 3900, Note_on_c, 0, 74, 95
2, 3912, Note_on_c, 0, 74, 0
2, 3912, Note_on_c, 0, 66, 0
2, 3912, Note_on_c, 0, 64, 95
2, 3912, Note_on_c, 0, 67, 95
2, 3924, Note_on_c, 0, 67, 0
2, 3924, Note_on_c, 0, 73, 95
2, 3936, Note_on_c, 0, 73, 0
2, 3936, Note_on_c, 0, 64, 0
2, 3936, Note_on_c, 0, 62, 95
2, 3936, Note_on_c, 0, 66, 95
2, 3936, Note_on_c, 0, 69, 95
2, 3936, Note_on_c, 0, 74, 95
2, 3984, Note_on_c, 0, 74, 0
2, 3984, Note_on_c, 0, 62, 0
2, 3984, Note_on_c, 0, 66, 0
2, 3984, Note_on_c, 0, 69, 0
2, 4044, Note_on_c, 0, 74, 95
2, 4056, Note_on_c, 0, 74, 0
2, 4056, Note_on_c, 0, 78, 95
2, 4068, Note_on_c, 0, 78, 0
2, 4068, Note_on_c, 0, 76, 95
2, 4080, Note_on_c, 0, 76, 0
2, 4080, Note_on_c, 0, 74, 95
2, 4092, Note_on_c, 0, 74, 0
2, 4092, Note_on_c, 0, 73, 95
2, 4104, Note_on_c, 0, 73, 0
2, 4104, Note_on_c, 0, 71, 95
2, 4116, Note_on_c, 0, 71, 0
2, 4116, Note_on_c, 0, 69, 95
2, 4128, Note_on_c, 0, 69, 0
2, 4128, Note_on_c, 0, 68, 95
2, 4140, Note_on_c, 0, 68, 0
2, 4140, Note_on_c, 0, 74, 95
2, 4152, Note_on_c, 0, 74, 0
2, 4152, Note_on_c, 0, 73, 95
2, 4164, Note_on_c, 0, 73, 0
2, 4164, Note_on_c, 0, 71, 95
2, 4176, Note_on_c, 0, 71, 0
2, 4176, Note_on_c, 0, 69, 95
2, 4188, Note_on_c, 0, 69, 0
2, 4188, Note_on_c, 0, 68, 95
2, 4200, Note_on_c, 0, 68, 0
2, 4200, Note_on_c, 0, 66, 95
2, 4212, Note_on_c, 0, 66, 0
2, 4212, Note_on_c, 0, 65, 95
2, 4224, Note_on_c, 0, 65, 0
2, 4224, Note_on_c, 0, 66, 95
2, 4224, Note_on_c, 0, 69, 95
2, 4236, Note_on_c, 0, 69, 0
2, 4236, Note_on_c, 0, 73, 95
2, 4248, Note_on_c, 0, 73, 0
2, 4248, Note_on_c, 0, 66, 0
2, 4248, Note_on_c, 0, 64, 95
2, 4248, Note_on_c, 0, 68, 95
2, 4260, Note_on_c, 0, 68, 0
2, 4260, Note_on_c, 0, 73, 95
2, 4272, Note_on_c, 0, 73, 0
2, 4272, Note_on_c, 0, 64, 0
2, 4272, Note_on_c, 0, 62, 95
2, 4272, Note_on_c, 0, 66, 95
2, 4284, Note_on_c, 0, 66, 0
2, 4284, Note_on_c, 0, 71, 95
2, 4296, Note_on_c, 0, 71, 0
2, 4296, Note_on_c, 0, 62, 0
2, 4296, Note_on_c, 0, 61, 95
2, 4296, Note_on_c, 0, 64, 95
2, 4308, Note_on_c, 0, 64, 0
2, 4308, Note_on_c, 0, 70, 95
2, 4320, Note_on_c, 0, 70, 0
2, 4320, Note_on_c, 0, 61, 0
2, 4320, Note_on_c, 0, 66, 95
2, 4320, Note_on_c, 0, 62, 95
2, 4320, Note_on_c, 0, 59, 95
2, 4320, Note_on_c, 0, 71, 95
2, 4368, Note_on_c, 0, 71, 0
2, 4368, Note_on_c, 0, 66, 0
2, 4368, Note_on_c, 0, 62, 0
2, 4368, Note_on_c, 0, 59, 0
2, 4428, Note_on_c, 0, 68, 95
2, 4440, Note_on_c, 0, 68, 0
2, 4440, Note_on_c, 0, 69, 95
2, 4452, Note_on_c, 0, 69, 0
2, 4452, Note_on_c, 0, 73, 95
2, 4464, Note_on_c, 0, 73, 0
2, 4464, Note_on_c, 0, 71, 95
2, 4476, Note_on_c, 0, 71, 0
2, 4476, Note_on_c, 0, 69, 95
2, 4488, Note_on_c, 0, 69, 0
2, 4488, Note_on_c, 0, 68, 95
2, 4500, Note_on_c, 0, 68, 0
2, 4500, Note_on_c, 0, 66, 95
2, 4512, Note_on_c, 0, 66, 0
2, 4512, Note_on_c, 0, 65, 95
2, 4524, Note_on_c, 0, 65, 0
2, 4524, Note_on_c, 0, 71, 95
2, 4536, Note_on_c, 0, 71, 0
2, 4536, Note_on_c, 0, 69, 95
2, 4548, Note_on_c, 0, 69, 0
2, 4548, Note_on_c, 0, 68, 95
2, 4560, Note_on_c, 0, 68, 0
2, 4560, Note_on_c, 0, 66, 95
2, 4572, Note_on_c, 0, 66, 0
2, 4572, Note_on_c, 0, 64, 95
2, 4584, Note_on_c, 0, 64, 0
2, 4584, Note_on_c, 0, 62, 95
2, 4596, Note_on_c, 0, 62, 0
2, 4596, Note_on_c, 0, 61, 95
2, 4608, Note_on_c, 0, 61, 0
2, 4608, Note_on_c, 0, 62, 95
2, 4620, Note_on_c, 0, 62, 0
2, 4620, Note_on_c, 0, 74, 95
2, 4632, Note_on_c, 0, 74, 0
2, 4632, Note_on_c, 0, 72, 95
2, 4644, Note_on_c, 0, 72, 0
2, 4644, Note_on_c, 0, 74, 95
2, 4656, Note_on_c, 0, 74, 0
2, 4656, Note_on_c, 0, 71, 95
2, 4668, Note_on_c, 0, 71, 0
2, 4668, Note_on_c, 0, 74, 95
2, 4680, Note_on_c, 0, 74, 0
2, 4680, Note_on_c, 0, 69, 95
2, 4680, Note_on_c, 0, 78, 95
2, 4692, Note_on_c, 0, 69, 0
2, 4692, Note_on_c, 0, 72, 95
2, 4704, Note_on_c, 0, 72, 0
2, 4704, Note_on_c, 0, 78, 0
2, 4704, Note_on_c, 0, 67, 95
2, 4704, Note_on_c, 0, 71, 95
2, 4704, Note_on_c, 0, 74, 95
2, 4704, Note_on_c, 0, 79, 95
2, 4752, Note_on_c, 0, 79, 0
2, 4752, Note_on_c, 0, 67, 0
2, 4752, Note_on_c, 0, 71, 0
2, 4752, Note_on_c, 0, 74, 0
2, 4812, Note_on_c, 0, 79, 95
2, 4824, Note_on_c, 0, 79, 0
2, 4824, Note_on_c, 0, 83, 95
2, 4836, Note_on_c, 0, 83, 0
2, 4836, Note_on_c, 0, 81, 95
2, 4848, Note_on_c, 0, 81, 0
2, 4848, Note_on_c, 0, 79, 95
2, 4860, Note_on_c, 0, 79, 0
2, 4860, Note_on_c, 0, 78, 95
2, 4872, Note_on_c, 0, 78, 0
2, 4872, Note_on_c, 0, 76, 95
2, 4884, Note_on_c, 0, 76, 0
2, 4884, Note_on_c, 0, 74, 95
2, 4896, Note_on_c, 0, 74, 0
2, 4896, Note_on_c, 0, 73, 95
2, 4908, Note_on_c, 0, 73, 0
2, 4908, Note_on_c, 0, 74, 95
2, 4920, Note_on_c, 0, 74, 0
2, 4920, Note_on_c, 0, 73, 95
2, 4932, Note_on_c, 0, 73, 0
2, 4932, Note_on_c, 0, 71, 95
2, 4944, Note_on_c, 0, 71, 0
2, 4944, Note_on_c, 0, 69, 95
2, 4956, Note_on_c, 0, 69, 0
2, 4956, Note_on_c, 0, 67, 95
2, 4968, Note_on_c, 0, 67, 0
2, 4968, Note_on_c, 0, 66, 95
2, 4980, Note_on_c, 0, 66, 0
2, 4980, Note_on_c, 0, 64, 95
2, 4992, Note_on_c, 0, 64, 0
2, 4992, Note_on_c, 0, 62, 95
2, 5016, Note_on_c, 0, 62, 0
2, 5040, Note_on_c, 0, 64, 95
2, 5048, Note_on_c, 0, 64, 0
2, 5048, Note_on_c, 0, 62, 95
2, 5056, Note_on_c, 0, 62, 0
2, 5056, Note_on_c, 0, 64, 95
2, 5064, Note_on_c, 0, 64, 0
2, 5064, Note_on_c, 0, 66, 95
2, 5072, Note_on_c, 0, 66, 0
2, 5072, Note_on_c, 0, 64, 95
2, 5080, Note_on_c, 0, 64, 0
2, 5080, Note_on_c, 0, 66, 95
2, 5088, Note_on_c, 0, 66, 0
2, 5088, Note_on_c, 0, 67, 95
2, 5096, Note_on_c, 0, 67, 0
2, 5096, Note_on_c, 0, 66, 95
2, 5104, Note_on_c, 0, 66, 0
2, 5104, Note_on_c, 0, 67, 95
2, 5112, Note_on_c, 0, 67, 0
2, 5112, Note_on_c, 0, 69, 95
2, 5120, Note_on_c, 0, 69, 0
2, 5120, Note_on_c, 0, 71, 95
2, 5128, Note_on_c, 0, 71, 0
2, 5128, Note_on_c, 0, 69, 95
2, 5136, Note_on_c, 0, 69, 0
2, 5136, Note_on_c, 0, 67, 95
2, 5144, Note_on_c, 0, 67, 0
2, 5144, Note_on_c, 0, 69, 95
2, 5152, Note_on_c, 0, 69, 0
2, 5152, Note_on_c, 0, 67, 95
2, 5160, Note_on_c, 0, 67, 0
2, 5160, Note_on_c, 0, 66, 95
2, 5168, Note_on_c, 0, 66, 0
2, 5168, Note_on_c, 0, 67, 95
2, 5176, Note_on_c, 0, 67, 0
2, 5176, Note_on_c, 0, 66, 95
2, 5184, Note_on_c, 0, 66, 0
2, 5184, Note_on_c, 0, 74, 95
2, 5196, Note_on_c, 0, 74, 0
2, 5196, Note_on_c, 0, 71, 95
2, 5208, Note_on_c, 0, 71, 0
2, 5208, Note_on_c, 0, 69, 95
2, 5220, Note_on_c, 0, 69, 0
2, 5220, Note_on_c, 0, 71, 95
2, 5232, Note_on_c, 0, 71, 0
2, 5232, Note_on_c, 0, 68, 95
2, 5244, Note_on_c, 0, 68, 0
2, 5244, Note_on_c, 0, 71, 95
2, 5256, Note_on_c, 0, 71, 0
2, 5256, Note_on_c, 0, 66, 95
2, 5268, Note_on_c, 0, 66, 0
2, 5268, Note_on_c, 0, 71, 95
2, 5280, Note_on_c, 0, 71, 0
2, 5280, Note_on_c, 0, 64, 95
2, 5292, Note_on_c, 0, 64, 0
2, 5292, Note_on_c, 0, 71, 95
2, 5304, Note_on_c, 0, 71, 0
2, 5304, Note_on_c, 0, 62, 95
2, 5316, Note_on_c, 0, 62, 0
2, 5316, Note_on_c, 0, 71, 95
2, 5328, Note_on_c, 0, 71, 0
2, 5328, Note_on_c, 0, 61, 95
2, 5340, Note_on_c, 0, 61, 0
2, 5340, Note_on_c, 0, 69, 95
2, 5352, Note_on_c, 0, 69, 0
2, 5352, Note_on_c, 0, 59, 95
2, 5364, Note_on_c, 0, 59, 0
2, 5364, Note_on_c, 0, 68, 95
2, 5376, Note_on_c, 0, 68, 0
2, 5376, Note_on_c, 0, 61, 47
2, 5376, Note_on_c, 0, 64, 47
2, 5376, Note_on_c, 0, 69, 47
2, 5400, Note_on_c, 0, 69, 0
2, 5400, Note_on_c, 0, 64, 0
2, 5400, Note_on_c, 0, 61, 0
2, 5832, Note_on_c, 0, 71, 47
2, 5856, Note_on_c, 0, 71, 0
2, 5856, Note_on_c, 0, 73, 47
2, 5868, Note_on_c, 0, 73, 0
2, 5868, Note_on_c, 0, 69, 47
2, 5880, Note_on_c, 0, 69, 0
2, 5880, Note_on_c, 0, 71, 47
2, 5892, Note_on_c, 0, 71, 0
2, 5892, Note_on_c, 0, 74, 47
2, 5904, Note_on_c, 0, 74, 0
2, 5904, Note_on_c, 0, 73, 47
2, 5916, Note_on_c, 0, 73, 0
2, 5916, Note_on_c, 0, 76, 47
2, 5928, Note_on_c, 0, 76, 0
2, 5928, Note_on_c, 0, 69, 47
2, 5940, Note_on_c, 0, 69, 0
2, 5940, Note_on_c, 0, 67, 47
2, 5952, Note_on_c, 0, 67, 0
2, 5952, Note_on_c, 0, 66, 47
2, 5964, Note_on_c, 0, 66, 0
2, 5964, Note_on_c, 0, 62, 47
2, 5976, Note_on_c, 0, 62, 0
2, 5976, Note_on_c, 0, 64, 47
2, 5988, Note_on_c, 0, 64, 0
2, 5988, Note_on_c, 0, 67, 47
2, 6000, Note_on_c, 0, 67, 0
2, 6000, Note_on_c, 0, 66, 47
2, 6012, Note_on_c, 0, 66, 0
2, 6012, Note_on_c, 0, 69, 47
2, 6024, Note_on_c, 0, 69, 0
2, 6024, Note_on_c, 0, 62, 47
2, 6036, Note_on_c, 0, 62, 0
2, 6036, Note_on_c, 0, 72, 47
2, 6048, Note_on_c, 0, 72, 0
2, 6048, Note_on_c, 0, 71, 47
2, 6060, Note_on_c, 0, 71, 0
2, 6060, Note_on_c, 0, 67, 47
2, 6072, Note_on_c, 0, 67, 0
2, 6072, Note_on_c, 0, 69, 47
2, 6084, Note_on_c, 0, 69, 0
2, 6084, Note_on_c, 0, 72, 47
2, 6096, Note_on_c, 0, 72, 0
2, 6096, Note_on_c, 0, 71, 47
2, 6108, Note_on_c, 0, 71, 0
2, 6108, Note_on_c, 0, 74, 47
2, 6120, Note_on_c, 0, 74, 0
2, 6120, Note_on_c, 0, 67, 47
2, 6132, Note_on_c, 0, 67, 0
2, 6132, Note_on_c, 0, 66, 47
2, 6144, Note_on_c, 0, 66, 0
2, 6144, Note_on_c, 0, 64, 47
2, 6156, Note_on_c, 0, 64, 0
2, 6156, Note_on_c, 0, 61, 47
2, 6168, Note_on_c, 0, 61, 0
2, 6168, Note_on_c, 0, 62, 47
2, 6180, Note_on_c, 0, 62, 0
2, 6180, Note_on_c, 0, 66, 47
2, 6192, Note_on_c, 0, 66, 0
2, 6192, Note_on_c, 0, 64, 47
2, 6204, Note_on_c, 0, 64, 0
2, 6204, Note_on_c, 0, 67, 47
2, 6216, Note_on_c, 0, 67, 0
2, 6216, Note_on_c, 0, 61, 47
2, 6228, Note_on_c, 0, 61, 0
2, 6228, Note_on_c, 0, 71, 47
2, 6240, Note_on_c, 0, 71, 0
2, 6240, Note_on_c, 0, 70, 47
2, 6252, Note_on_c, 0, 70, 0
2, 6252, Note_on_c, 0, 66, 47
2, 6264, Note_on_c, 0, 66, 0
2, 6264, Note_on_c, 0, 68, 47
2, 6276, Note_on_c, 0, 68, 0
2, 6276, Note_on_c, 0, 71, 47
2, 6288, Note_on_c, 0, 71, 0
2, 6288, Note_on_c, 0, 70, 47
2, 6300, Note_on_c, 0, 70, 0
2, 6300, Note_on_c, 0, 73, 47
2, 6312, Note_on_c, 0, 73, 0
2, 6312, Note_on_c, 0, 66, 47
2, 6324, Note_on_c, 0, 66, 0
2, 6324, Note_on_c, 0, 64, 47
2, 6336, Note_on_c, 0, 64, 0
2, 6336, Note_on_c, 0, 62, 47
2, 6348, Note_on_c, 0, 62, 0
2, 6348, Note_on_c, 0, 59, 47
2, 6360, Note_on_c, 0, 59, 0
2, 6360, Note_on_c, 0, 61, 47
2, 6372, Note_on_c, 0, 61, 0
2, 6372, Note_on_c, 0, 64, 47
2, 6384, Note_on_c, 0, 64, 0
2, 6384, Note_on_c, 0, 62, 47
2, 6396, Note_on_c, 0, 62, 0
2, 6396, Note_on_c, 0, 66, 47
2, 6408, Note_on_c, 0, 66, 0
2, 6408, Note_on_c, 0, 59, 47
2, 6420, Note_on_c, 0, 59, 0
2, 6420, Note_on_c, 0, 69, 47
2, 6432, Note_on_c, 0, 69, 0
2, 6432, Note_on_c, 0, 67, 47
2, 6444, Note_on_c, 0, 67, 0
2, 6444, Note_on_c, 0, 71, 47
2, 6456, Note_on_c, 0, 71, 0
2, 6456, Note_on_c, 0, 64, 47
2, 6468, Note_on_c, 0, 64, 0
2, 6468, Note_on_c, 0, 74, 47
2, 6480, Note_on_c, 0, 74, 0
2, 6480, Note_on_c, 0, 73, 47
2, 6492, Note_on_c, 0, 73, 0
2, 6492, Note_on_c, 0, 76, 47
2, 6504, Note_on_c, 0, 76, 0
2, 6504, Note_on_c, 0, 79, 47
2, 6516, Note_on_c, 0, 79, 0
2, 6516, Note_on_c, 0, 71, 47
2, 6528, Note_on_c, 0, 71, 0
2, 6528, Note_on_c, 0, 70, 47
2, 6576, Note_on_c, 0, 70, 0
2, 6600, Note_on_c, 0, 73, 47
2, 6624, Note_on_c, 0, 73, 0
2, 6624, Note_on_c, 0, 74, 47
2, 6636, Note_on_c, 0, 74, 0
2, 6636, Note_on_c, 0, 76, 47
2, 6648, Note_on_c, 0, 76, 0
2, 6648, Note_on_c, 0, 78, 47
2, 6660, Note_on_c, 0, 78, 0
2, 6660, Note_on_c, 0, 76, 47
2, 6672, Note_on_c, 0, 76, 0
2, 6672, Note_on_c, 0, 74, 47
2, 6684, Note_on_c, 0, 74, 0
2, 6684, Note_on_c, 0, 73, 47
2, 6696, Note_on_c, 0, 73, 0
2, 6696, Note_on_c, 0, 74, 47
2, 6708, Note_on_c, 0, 74, 0
2, 6708, Note_on_c, 0, 71, 47
2, 6720, Note_on_c, 0, 71, 0
2, 6720, Note_on_c, 0, 79, 47
2, 6744, Note_on_c, 0, 79, 0
2, 6780, Note_on_c, 0, 81, 47
2, 6792, Note_on_c, 0, 81, 0
2, 6792, Note_on_c, 0, 79, 47
2, 6804, Note_on_c, 0, 79, 0
2, 6804, Note_on_c, 0, 78, 47
2, 6816, Note_on_c, 0, 78, 0
2, 6816, Note_on_c, 0, 76, 47
2, 6828, Note_on_c, 0, 76, 0
2, 6828, Note_on_c, 0, 74, 47
2, 6840, Note_on_c, 0, 74, 0
2, 6840, Note_on_c, 0, 73, 47
2, 6852, Note_on_c, 0, 73, 0
2, 6852, Note_on_c, 0, 71, 47
2, 6864, Note_on_c, 0, 71, 0
2, 6864, Note_on_c, 0, 70, 47
2, 6876, Note_on_c, 0, 70, 0
2, 6876, Note_on_c, 0, 68, 47
2, 6888, Note_on_c, 0, 68, 0
2, 6888, Note_on_c, 0, 70, 47
2, 6900, Note_on_c, 0, 70, 0
2, 6900, Note_on_c, 0, 66, 47
2, 6912, Note_on_c, 0, 66, 0
2, 6912, Note_on_c, 0, 74, 47
2, 6924, Note_on_c, 0, 74, 0
2, 6924, Note_on_c, 0, 73, 47
2, 6936, Note_on_c, 0, 73, 0
2, 6936, Note_on_c, 0, 71, 47
2, 6948, Note_on_c, 0, 71, 0
2, 6948, Note_on_c, 0, 73, 47
2, 6960, Note_on_c, 0, 73, 0
2, 6960, Note_on_c, 0, 74, 47
2, 6972, Note_on_c, 0, 74, 0
2, 6972, Note_on_c, 0, 76, 47
2, 6984, Note_on_c, 0, 76, 0
2, 6984, Note_on_c, 0, 78, 47
2, 6996, Note_on_c, 0, 78, 0
2, 6996, Note_on_c, 0, 74, 47
2, 7008, Note_on_c, 0, 74, 0
2, 7008, Note_on_c, 0, 79, 47
2, 7020, Note_on_c, 0, 79, 0
2, 7020, Note_on_c, 0, 81, 47
2, 7032, Note_on_c, 0, 81, 0
2, 7032, Note_on_c, 0, 83, 47
2, 7044, Note_on_c, 0, 83, 0
2, 7044, Note_on_c, 0, 81, 47
2, 7056, Note_on_c, 0, 81, 0
2, 7056, Note_on_c, 0, 79, 47
2, 7068, Note_on_c, 0, 79, 0
2, 7068, Note_on_c, 0, 78, 47
2, 7080, Note_on_c, 0, 78, 0
2, 7080, Note_on_c, 0, 76, 47
2, 7092, Note_on_c, 0, 76, 0
2, 7092, Note_on_c, 0, 74, 47
2, 7104, Note_on_c, 0, 74, 0
2, 7104, Note_on_c, 0, 73, 47
2, 7116, Note_on_c, 0, 73, 0
2, 7116, Note_on_c, 0, 79, 47
2, 7128, Note_on_c, 0, 79, 0
2, 7128, Note_on_c, 0, 78, 47
2, 7140, Note_on_c, 0, 78, 0
2, 7140, Note_on_c, 0, 76, 47
2, 7152, Note_on_c, 0, 76, 0
2, 7152, Note_on_c, 0, 74, 47
2, 7164, Note_on_c, 0, 74, 0
2, 7164, Note_on_c, 0, 73, 47
2, 7176, Note_on_c, 0, 73, 0
2, 7176, Note_on_c, 0, 71, 47
2, 7188, Note_on_c, 0, 71, 0
2, 7188, Note_on_c, 0, 70, 47
2, 7200, Note_on_c, 0, 70, 0
2, 7200, Note_on_c, 0, 71, 47
2, 7212, Note_on_c, 0, 71, 0
2, 7212, Note_on_c, 0, 67, 47
2, 7224, Note_on_c, 0, 67, 0
2, 7224, Note_on_c, 0, 66, 47
2, 7236, Note_on_c, 0, 66, 0
2, 7236, Note_on_c, 0, 64, 47
2, 7248, Note_on_c, 0, 64, 0
2, 7248, Note_on_c, 0, 62, 47
2, 7260, Note_on_c, 0, 62, 0
2, 7260, Note_on_c, 0, 61, 47
2, 7272, Note_on_c, 0, 61, 0
2, 7272, Note_on_c, 0, 59, 47
2, 7284, Note_on_c, 0, 59, 0
2, 7284, Note_on_c, 0, 61, 47
2, 7296, Note_on_c, 0, 61, 0
2, 7296, Note_on_c, 0, 62, 47
2, 7308, Note_on_c, 0, 62, 0
2, 7308, Note_on_c, 0, 64, 47
2, 7320, Note_on_c, 0, 64, 0
2, 7320, Note_on_c, 0, 66, 47
2, 7332, Note_on_c, 0, 66, 0
2, 7332, Note_on_c, 0, 67, 47
2, 7344, Note_on_c, 0, 67, 0
2, 7344, Note_on_c, 0, 66, 47
2, 7356, Note_on_c, 0, 66, 0
2, 7356, Note_on_c, 0, 64, 47
2, 7368, Note_on_c, 0, 64, 0
2, 7368, Note_on_c, 0, 62, 47
2, 7380, Note_on_c, 0, 62, 0
2, 7380, Note_on_c, 0, 61, 47
2, 7392, Note_on_c, 0, 61, 0
2, 7392, Note_on_c, 0, 62, 47
2, 7404, Note_on_c, 0, 62, 0
2, 7404, Note_on_c, 0, 64, 47
2, 7416, Note_on_c, 0, 64, 0
2, 7416, Note_on_c, 0, 66, 47
2, 7428, Note_on_c, 0, 66, 0
2, 7428, Note_on_c, 0, 68, 47
2, 7440, Note_on_c, 0, 68, 0
2, 7440, Note_on_c, 0, 70, 47
2, 7452, Note_on_c, 0, 70, 0
2, 7452, Note_on_c, 0, 71, 47
2, 7464, Note_on_c, 0, 71, 0
2, 7464, Note_on_c, 0, 73, 47
2, 7476, Note_on_c, 0, 73, 0
2, 7476, Note_on_c, 0, 70, 47
2, 7488, Note_on_c, 0, 70, 0
2, 7488, Note_on_c, 0, 71, 47
2, 7488, Note_on_c, 0, 66, 47
2, 7488, Note_on_c, 0, 78, 47
2, 7512, Note_on_c, 0, 78, 0
2, 7512, Note_on_c, 0, 66, 0
2, 7512, Note_on_c, 0, 71, 0
2, 7884, Note_on_c, 0, 74, 95
2, 7892, Note_on_c, 0, 74, 0
2, 7896, Note_on_c, 0, 78, 95
2, 7904, Note_on_c, 0, 78, 0
2, 7908, Note_on_c, 0, 83, 95
2, 7916, Note_on_c, 0, 83, 0
2, 7920, Note_on_c, 0, 76, 95
2, 7928, Note_on_c, 0, 76, 0
2, 7932, Note_on_c, 0, 81, 95
2, 7940, Note_on_c, 0, 81, 0
2, 7944, Note_on_c, 0, 74, 95
2, 7952, Note_on_c, 0, 74, 0
2, 7956, Note_on_c, 0, 79, 95
2, 7964, Note_on_c, 0, 79, 0
2, 7968, Note_on_c, 0, 73, 95
2, 7976, Note_on_c, 0, 73, 0
2, 7980, Note_on_c, 0, 78, 95
2, 7988, Note_on_c, 0, 78, 0
2, 7992, Note_on_c, 0, 74, 95
2, 8000, Note_on_c, 0, 74, 0
2, 8004, Note_on_c, 0, 78, 95
2, 8012, Note_on_c, 0, 78, 0
2, 8016, Note_on_c, 0, 73, 95
2, 8024, Note_on_c, 0, 73, 0
2, 8028, Note_on_c, 0, 78, 95
2, 8036, Note_on_c, 0, 78, 0
2, 8040, Note_on_c, 0, 71, 95
2, 8048, Note_on_c, 0, 71, 0
2, 8052, Note_on_c, 0, 78, 95
2, 8060, Note_on_c, 0, 78, 0
2, 8064, Note_on_c, 0, 70, 95
2, 8072, Note_on_c, 0, 70, 0
2, 8076, Note_on_c, 0, 78, 95
2, 8084, Note_on_c, 0, 78, 0
2, 8088, Note_on_c, 0, 71, 95
2, 8096, Note_on_c, 0, 71, 0
2, 8100, Note_on_c, 0, 78, 95
2, 8108, Note_on_c, 0, 78, 0
2, 8112, Note_on_c, 0, 70, 95
2, 8120, Note_on_c, 0, 70, 0
2, 8124, Note_on_c, 0, 78, 95
2, 8132, Note_on_c, 0, 78, 0
2, 8136, Note_on_c, 0, 68, 95
2, 8144, Note_on_c, 0, 68, 0
2, 8148, Note_on_c, 0, 78, 95
2, 8156, Note_on_c, 0, 78, 0
2, 8160, Note_on_c, 0, 66, 95
2, 8176, Note_on_c, 0, 66, 0
2, 8184, Note_on_c, 0, 70, 95
2, 8189, Note_on_c, 0, 70, 0
2, 8192, Note_on_c, 0, 68, 95
2, 8197, Note_on_c, 0, 68, 0
2, 8200, Note_on_c, 0, 70, 95
2, 8205, Note_on_c, 0, 70, 0
2, 8208, Note_on_c, 0, 71, 95
2, 8213, Note_on_c, 0, 71, 0
2, 8216, Note_on_c, 0, 70, 95
2, 8221, Note_on_c, 0, 70, 0
2, 8224, Note_on_c, 0, 71, 95
2, 8229, Note_on_c, 0, 71, 0
2, 8232, Note_on_c, 0, 73, 95
2, 8237, Note_on_c, 0, 73, 0
2, 8240, Note_on_c, 0, 71, 95
2, 8245, Note_on_c, 0, 71, 0
2, 8248, Note_on_c, 0, 73, 95
2, 8253, Note_on_c, 0, 73, 0
2, 8256, Note_on_c, 0, 74, 95
2, 8264, Note_on_c, 0, 74, 0
2, 8268, Note_on_c, 0, 73, 95
2, 8276, Note_on_c, 0, 73, 0
2, 8280, Note_on_c, 0, 71, 95
2, 8288, Note_on_c, 0, 71, 0
2, 8292, Note_on_c, 0, 78, 95
2, 8300, Note_on_c, 0, 78, 0
2, 8304, Note_on_c, 0, 83, 95
2, 8309, Note_on_c, 0, 83, 0
2, 8312, Note_on_c, 0, 84, 95
2, 8317, Note_on_c, 0, 84, 0
2, 8320, Note_on_c, 0, 83, 95
2, 8325, Note_on_c, 0, 83, 0
2, 8328, Note_on_c, 0, 81, 95
2, 8333, Note_on_c, 0, 81, 0
2, 8336, Note_on_c, 0, 83, 95
2, 8341, Note_on_c, 0, 83, 0
2, 8344, Note_on_c, 0, 81, 95
2, 8349, Note_on_c, 0, 81, 0
2, 8352, Note_on_c, 0, 79, 95
2, 8360, Note_on_c, 0, 79, 0
2, 8364, Note_on_c, 0, 78, 95
2, 8372, Note_on_c, 0, 78, 0
2, 8376, Note_on_c, 0, 76, 95
2, 8384, Note_on_c, 0, 76, 0
2, 8388, Note_on_c, 0, 78, 95
2, 8396, Note_on_c, 0, 78, 0
2, 8400, Note_on_c, 0, 79, 95
2, 8408, Note_on_c, 0, 79, 0
2, 8412, Note_on_c, 0, 81, 95
2, 8420, Note_on_c, 0, 81, 0
2, 8424, Note_on_c, 0, 83, 95
2, 8432, Note_on_c, 0, 83, 0
2, 8436, Note_on_c, 0, 81, 95
2, 8444, Note_on_c, 0, 81, 0
2, 8448, Note_on_c, 0, 79, 95
2, 8453, Note_on_c, 0, 79, 0
2, 8456, Note_on_c, 0, 81, 95
2, 8461, Note_on_c, 0, 81, 0
2, 8464, Note_on_c, 0, 79, 95
2, 8469, Note_on_c, 0, 79, 0
2, 8472, Note_on_c, 0, 78, 95
2, 8477, Note_on_c, 0, 78, 0
2, 8480, Note_on_c, 0, 79, 95
2, 8485, Note_on_c, 0, 79, 0
2, 8488, Note_on_c, 0, 78, 95
2, 8493, Note_on_c, 0, 78, 0
2, 8496, Note_on_c, 0, 76, 95
2, 8501, Note_on_c, 0, 76, 0
2, 8504, Note_on_c, 0, 79, 95
2, 8509, Note_on_c, 0, 79, 0
2, 8512, Note_on_c, 0, 76, 95
2, 8517, Note_on_c, 0, 76, 0
2, 8520, Note_on_c, 0, 74, 95
2, 8525, Note_on_c, 0, 74, 0
2, 8528, Note_on_c, 0, 79, 95
2, 8533, Note_on_c, 0, 79, 0
2, 8536, Note_on_c, 0, 74, 95
2, 8541, Note_on_c, 0, 74, 0
2, 8544, Note_on_c, 0, 73, 95
2, 8552, Note_on_c, 0, 73, 0
2, 8556, Note_on_c, 0, 79, 95
2, 8564, Note_on_c, 0, 79, 0
2, 8568, Note_on_c, 0, 74, 95
2, 8576, Note_on_c, 0, 74, 0
2, 8580, Note_on_c, 0, 79, 95
2, 8588, Note_on_c, 0, 79, 0
2, 8592, Note_on_c, 0, 73, 95
2, 8600, Note_on_c, 0, 73, 0
2, 8604, Note_on_c, 0, 79, 95
2, 8612, Note_on_c, 0, 79, 0
2, 8616, Note_on_c, 0, 71, 95
2, 8624, Note_on_c, 0, 71, 0
2, 8628, Note_on_c, 0, 79, 95
2, 8636, Note_on_c, 0, 79, 0
2, 8640, Note_on_c, 0, 69, 95
2, 8656, Note_on_c, 0, 69, 0
2, 8664, Note_on_c, 0, 73, 95
2, 8669, Note_on_c, 0, 73, 0
2, 8672, Note_on_c, 0, 71, 95
2, 8677, Note_on_c, 0, 71, 0
2, 8680, Note_on_c, 0, 73, 95
2, 8685, Note_on_c, 0, 73, 0
2, 8688, Note_on_c, 0, 74, 95
2, 8693, Note_on_c, 0, 74, 0
2, 8696, Note_on_c, 0, 73, 95
2, 8701, Note_on_c, 0, 73, 0
2, 8704, Note_on_c, 0, 74, 95
2, 8709, Note_on_c, 0, 74, 0
2, 8712, Note_on_c, 0, 76, 95
2, 8717, Note_on_c, 0, 76, 0
2, 8720, Note_on_c, 0, 74, 95
2, 8725, Note_on_c, 0, 74, 0
2, 8728, Note_on_c, 0, 76, 95
2, 8733, Note_on_c, 0, 76, 0
2, 8736, Note_on_c, 0, 78, 95
2, 8744, Note_on_c, 0, 78, 0
2, 8748, Note_on_c, 0, 76, 95
2, 8756, Note_on_c, 0, 76, 0
2, 8760, Note_on_c, 0, 74, 95
2, 8768, Note_on_c, 0, 74, 0
2, 8772, Note_on_c, 0, 69, 95
2, 8780, Note_on_c, 0, 69, 0
2, 8784, Note_on_c, 0, 74, 95
2, 8789, Note_on_c, 0, 74, 0
2, 8792, Note_on_c, 0, 76, 95
2, 8797, Note_on_c, 0, 76, 0
2, 8800, Note_on_c, 0, 74, 95
2, 8805, Note_on_c, 0, 74, 0
2, 8808, Note_on_c, 0, 72, 95
2, 8813, Note_on_c, 0, 72, 0
2, 8816, Note_on_c, 0, 74, 95
2, 8821, Note_on_c, 0, 74, 0
2, 8824, Note_on_c, 0, 72, 95
2, 8829, Note_on_c, 0, 72, 0
2, 8832, Note_on_c, 0, 74, 95
2, 8836, Note_on_c, 0, 74, 0
2, 8838, Note_on_c, 0, 67, 95
2, 8842, Note_on_c, 0, 67, 0
2, 8844, Note_on_c, 0, 69, 95
2, 8848, Note_on_c, 0, 69, 0
2, 8850, Note_on_c, 0, 71, 95
2, 8854, Note_on_c, 0, 71, 0
2, 8856, Note_on_c, 0, 73, 95
2, 8860, Note_on_c, 0, 73, 0
2, 8862, Note_on_c, 0, 74, 95
2, 8866, Note_on_c, 0, 74, 0
2, 8868, Note_on_c, 0, 76, 95
2, 8872, Note_on_c, 0, 76, 0
2, 8874, Note_on_c, 0, 78, 95
2, 8878, Note_on_c, 0, 78, 0
2, 8880, Note_on_c, 0, 76, 95
2, 8884, Note_on_c, 0, 76, 0
2, 8886, Note_on_c, 0, 61, 95
2, 8890, Note_on_c, 0, 61, 0
2, 8892, Note_on_c, 0, 62, 95
2, 8896, Note_on_c, 0, 62, 0
2, 8898, Note_on_c, 0, 64, 95
2, 8902, Note_on_c, 0, 64, 0
2, 8904, Note_on_c, 0, 66, 95
2, 8908, Note_on_c, 0, 66, 0
2, 8910, Note_on_c, 0, 67, 95
2, 8914, Note_on_c, 0, 67, 0
2, 8916, Note_on_c, 0, 69, 95
2, 8920, Note_on_c, 0, 69, 0
2, 8922, Note_on_c, 0, 71, 95
2, 8926, Note_on_c, 0, 71, 0
2, 8928, Note_on_c, 0, 69, 95
2, 8932, Note_on_c, 0, 69, 0
2, 8934, Note_on_c, 0, 66, 95
2, 8938, Note_on_c, 0, 66, 0
2, 8940, Note_on_c, 0, 67, 95
2, 8944, Note_on_c, 0, 67, 0
2, 8946, Note_on_c, 0, 69, 95
2, 8950, Note_on_c, 0, 69, 0
2, 8952, Note_on_c, 0, 71, 95
2, 8956, Note_on_c, 0, 71, 0
2, 8958, Note_on_c, 0, 73, 95
2, 8962, Note_on_c, 0, 73, 0
2, 8964, Note_on_c, 0, 74, 95
2, 8968, Note_on_c, 0, 74, 0
2, 8970, Note_on_c, 0, 76, 95
2, 8974, Note_on_c, 0, 76, 0
2, 8976, Note_on_c, 0, 74, 95
2, 8980, Note_on_c, 0, 74, 0
2, 8982, Note_on_c, 0, 59, 95
2, 8986, Note_on_c, 0, 59, 0
2, 8988, Note_on_c, 0, 61, 95
2, 8992, Note_on_c, 0, 61, 0
2, 8994, Note_on_c, 0, 62, 95
2, 8998, Note_on_c, 0, 62, 0
2, 9000, Note_on_c, 0, 64, 95
2, 9004, Note_on_c, 0, 64, 0
2, 9006, Note_on_c, 0, 66, 95
2, 9010, Note_on_c, 0, 66, 0
2, 9012, Note_on_c, 0, 67, 95
2, 9016, Note_on_c, 0, 67, 0
2, 9018, Note_on_c, 0, 69, 95
2, 9022, Note_on_c, 0, 69, 0
2, 9024, Note_on_c, 0, 67, 95
2, 9028, Note_on_c, 0, 67, 0
2, 9030, Note_on_c, 0, 64, 95
2, 9034, Note_on_c, 0, 64, 0
2, 9036, Note_on_c, 0, 66, 95
2, 9040, Note_on_c, 0, 66, 0
2, 9042, Note_on_c, 0, 67, 95
2, 9046, Note_on_c, 0, 67, 0
2, 9048, Note_on_c, 0, 69, 95
2, 9052, Note_on_c, 0, 69, 0
2, 9054, Note_on_c, 0, 71, 95
2, 9058, Note_on_c, 0, 71, 0
2, 9060, Note_on_c, 0, 73, 95
2, 9064, Note_on_c, 0, 73, 0
2, 9066, Note_on_c, 0, 74, 95
2, 9070, Note_on_c, 0, 74, 0
2, 9072, Note_on_c, 0, 73, 95
2, 9076, Note_on_c, 0, 73, 0
2, 9078, Note_on_c, 0, 57, 95
2, 9082, Note_on_c, 0, 57, 0
2, 9084, Note_on_c, 0, 59, 95
2, 9088, Note_on_c, 0, 59, 0
2, 9090, Note_on_c, 0, 61, 95
2, 9094, Note_on_c, 0, 61, 0
2, 9096, Note_on_c, 0, 62, 95
2, 9100, Note_on_c, 0, 62, 0
2, 9102, Note_on_c, 0, 64, 95
2, 9106, Note_on_c, 0, 64, 0
2, 9108, Note_on_c, 0, 66, 95
2, 9112, Note_on_c, 0, 66, 0
2, 9114, Note_on_c, 0, 67, 95
2, 9118, Note_on_c, 0, 67, 0
2, 9120, Note_on_c, 0, 66, 95
2, 9124, Note_on_c, 0, 66, 0
2, 9126, Note_on_c, 0, 62, 95
2, 9130, Note_on_c, 0, 62, 0
2, 9132, Note_on_c, 0, 64, 95
2, 9136, Note_on_c, 0, 64, 0
2, 9138, Note_on_c, 0, 66, 95
2, 9142, Note_on_c, 0, 66, 0
2, 9144, Note_on_c, 0, 67, 95
2, 9148, Note_on_c, 0, 67, 0
2, 9150, Note_on_c, 0, 69, 95
2, 9154, Note_on_c, 0, 69, 0
2, 9156, Note_on_c, 0, 71, 95
2, 9160, Note_on_c, 0, 71, 0
2, 9162, Note_on_c, 0, 73, 95
2, 9166, Note_on_c, 0, 73, 0
2, 9168, Note_on_c, 0, 74, 95
2, 9172, Note_on_c, 0, 74, 0
2, 9174, Note_on_c, 0, 69, 95
2, 9178, Note_on_c, 0, 69, 0
2, 9180, Note_on_c, 0, 71, 95
2, 9184, Note_on_c, 0, 71, 0
2, 9186, Note_on_c, 0, 73, 95
2, 9190, Note_on_c, 0, 73, 0
2, 9192, Note_on_c, 0, 74, 95
2, 9196, Note_on_c, 0, 74, 0
2, 9198, Note_on_c, 0, 76, 95
2, 9202, Note_on_c, 0, 76, 0
2, 9204, Note_on_c, 0, 78, 95
2, 9208, Note_on_c, 0, 78, 0
2, 9210, Note_on_c, 0, 79, 95
2, 9214, Note_on_c, 0, 79, 0
2, 9216, Note_on_c, 0, 81, 95
2, 9220, Note_on_c, 0, 81, 0
2, 9222, Note_on_c, 0, 79, 95
2, 9226, Note_on_c, 0, 79, 0
2, 9228, Note_on_c, 0, 78, 95
2, 9232, Note_on_c, 0, 78, 0
2, 9234, Note_on_c, 0, 76, 95
2, 9238, Note_on_c, 0, 76, 0
2, 9240, Note_on_c, 0, 74, 95
2, 9244, Note_on_c, 0, 74, 0
2, 9246, Note_on_c, 0, 73, 95
2, 9250, Note_on_c, 0, 73, 0
2, 9252, Note_on_c, 0, 71, 95
2, 9256, Note_on_c, 0, 71, 0
2, 9258, Note_on_c, 0, 69, 95
2, 9262, Note_on_c, 0, 69, 0
2, 9264, Note_on_c, 0, 67, 95
2, 9268, Note_on_c, 0, 67, 0
2, 9270, Note_on_c, 0, 66, 95
2, 9274, Note_on_c, 0, 66, 0
2, 9276, Note_on_c, 0, 64, 95
2, 9280, Note_on_c, 0, 64, 0
2, 9282, Note_on_c, 0, 62, 95
2, 9286, Note_on_c, 0, 62, 0
2, 9288, Note_on_c, 0, 61, 95
2, 9292, Note_on_c, 0, 61, 0
2, 9294, Note_on_c, 0, 59, 95
2, 9298, Note_on_c, 0, 59, 0
2, 9300, Note_on_c, 0, 57, 95
2, 9304, Note_on_c, 0, 57, 0
2, 9306, Note_on_c, 0, 55, 95
2, 9310, Note_on_c, 0, 55, 0
2, 9312, Note_on_c, 0, 54, 95
2, 9316, Note_on_c, 0, 54, 0
2, 9318, Note_on_c, 0, 50, 95
2, 9322, Note_on_c, 0, 50, 0
2, 9324, Note_on_c, 0, 52, 95
2, 9328, Note_on_c, 0, 52, 0
2, 9330, Note_on_c, 0, 54, 95
2, 9334, Note_on_c, 0, 54, 0
2, 9336, Note_on_c, 0, 55, 95
2, 9340, Note_on_c, 0, 55, 0
2, 9342, Note_on_c, 0, 57, 95
2, 9346, Note_on_c, 0, 57, 0
2, 9348, Note_on_c, 0, 59, 95
2, 9352, Note_on_c, 0, 59, 0
2, 9354, Note_on_c, 0, 61, 95
2, 9358, Note_on_c, 0, 61, 0
2, 9360, Note_on_c, 0, 62, 95
2, 9364, Note_on_c, 0, 62, 0
2, 9366, Note_on_c, 0, 64, 95
2, 9370, Note_on_c, 0, 64, 0
2, 9372, Note_on_c, 0, 66, 95
2, 9376, Note_on_c, 0, 66, 0
2, 9378, Note_on_c, 0, 67, 95
2, 9382, Note_on_c, 0, 67, 0
2, 9384, Note_on_c, 0, 69, 95
2, 9388, Note_on_c, 0, 69, 0
2, 9390, Note_on_c, 0, 71, 95
2, 9394, Note_on_c, 0, 71, 0
2, 9396, Note_on_c, 0, 73, 95
2, 9400, Note_on_c, 0, 73, 0
2, 9402, Note_on_c, 0, 74, 95
2, 9406, Note_on_c, 0, 74, 0
2, 9408, Note_on_c, 0, 76, 95
2, 9424, Note_on_c, 0, 76, 0
2, 9468, Note_on_c, 0, 69, 95
2, 9476, Note_on_c, 0, 69, 0
2, 9480, Note_on_c, 0, 61, 95
2, 9480, Note_on_c, 0, 67, 95
2, 9488, Note_on_c, 0, 67, 0
2, 9492, Note_on_c, 0, 69, 95
2, 9496, Note_on_c, 0, 61, 0
2, 9500, Note_on_c, 0, 69, 0
2, 9504, Note_on_c, 0, 62, 95
2, 9504, Note_on_c, 0, 66, 95
2, 9512, Note_on_c, 0, 66, 0
2, 9516, Note_on_c, 0, 69, 95
2, 9520, Note_on_c, 0, 62, 0
2, 9524, Note_on_c, 0, 69, 0
2, 9528, Note_on_c, 0, 60, 95
2, 9528, Note_on_c, 0, 64, 95
2, 9536, Note_on_c, 0, 64, 0
2, 9540, Note_on_c, 0, 69, 95
2, 9544, Note_on_c, 0, 60, 0
2, 9548, Note_on_c, 0, 69, 0
2, 9552, Note_on_c, 0, 59, 95
2, 9552, Note_on_c, 0, 62, 95
2, 9560, Note_on_c, 0, 62, 0
2, 9564, Note_on_c, 0, 67, 95
2, 9568, Note_on_c, 0, 59, 0
2, 9572, Note_on_c, 0, 67, 0
2, 9576, Note_on_c, 0, 57, 95
2, 9576, Note_on_c, 0, 60, 95
2, 9584, Note_on_c, 0, 60, 0
2, 9588, Note_on_c, 0, 66, 95
2, 9592, Note_on_c, 0, 57, 0
2, 9596, Note_on_c, 0, 66, 0
2, 9600, Note_on_c, 0, 62, 95
2, 9600, Note_on_c, 0, 59, 95
2, 9600, Note_on_c, 0, 55, 95
2, 9600, Note_on_c, 0, 67, 95
2, 9632, Note_on_c, 0, 67, 0
2, 9632, Note_on_c, 0, 62, 0
2, 9632, Note_on_c, 0, 59, 0
2, 9632, Note_on_c, 0, 55, 0
2, 9708, Note_on_c, 0, 79, 95
2, 9720, Note_on_c, 0, 79, 0
2, 9720, Note_on_c, 0, 83, 95
2, 9732, Note_on_c, 0, 83, 0
2, 9732, Note_on_c, 0, 81, 95
2, 9744, Note_on_c, 0, 81, 0
2, 9744, Note_on_c, 0, 79, 95
2, 9756, Note_on_c, 0, 79, 0
2, 9756, Note_on_c, 0, 78, 95
2, 9768, Note_on_c, 0, 78, 0
2, 9768, Note_on_c, 0, 76, 95
2, 9780, Note_on_c, 0, 76, 0
2, 9780, Note_on_c, 0, 74, 95
2, 9792, Note_on_c, 0, 74, 0
2, 9792, Note_on_c, 0, 73, 95
2, 9804, Note_on_c, 0, 73, 0
2, 9804, Note_on_c, 0, 79, 95
2, 9816, Note_on_c, 0, 79, 0
2, 9816, Note_on_c, 0, 78, 95
2, 9828, Note_on_c, 0, 78, 0
2, 9828, Note_on_c, 0, 76, 95
2, 9840, Note_on_c, 0, 76, 0
2, 9840, Note_on_c, 0, 74, 95
2, 9852, Note_on_c, 0, 74, 0
2, 9852, Note_on_c, 0, 73, 95
2, 9864, Note_on_c, 0, 73, 0
2, 9864, Note_on_c, 0, 71, 95
2, 9876, Note_on_c, 0, 71, 0
2, 9876, Note_on_c, 0, 70, 95
2, 9888, Note_on_c, 0, 70, 0
2, 9888, Note_on_c, 0, 71, 95
2, 9888, Note_on_c, 0, 74, 95
2, 9900, Note_on_c, 0, 74, 0
2, 9900, Note_on_c, 0, 78, 95
2, 9912, Note_on_c, 0, 78, 0
2, 9912, Note_on_c, 0, 71, 0
2, 9912, Note_on_c, 0, 69, 95
2, 9912, Note_on_c, 0, 73, 95
2, 9924, Note_on_c, 0, 73, 0
2, 9924, Note_on_c, 0, 78, 95
2, 9936, Note_on_c, 0, 78, 0
2, 9936, Note_on_c, 0, 69, 0
2, 9936, Note_on_c, 0, 67, 95
2, 9936, Note_on_c, 0, 71, 95
2, 9948, Note_on_c, 0, 71, 0
2, 9948, Note_on_c, 0, 76, 95
2, 9960, Note_on_c, 0, 76, 0
2, 9960, Note_on_c, 0, 67, 0
2, 9960, Note_on_c, 0, 66, 95
2, 9960, Note_on_c, 0, 69, 95
2, 9972, Note_on_c, 0, 69, 0
2, 9972, Note_on_c, 0, 75, 95
2, 9984, Note_on_c, 0, 75, 0
2, 9984, Note_on_c, 0, 66, 0
2, 9984, Note_on_c, 0, 64, 95
2, 9984, Note_on_c, 0, 67, 95
2, 9984, Note_on_c, 0, 71, 95
2, 9984, Note_on_c, 0, 76, 95
2, 10032, Note_on_c, 0, 76, 0
2, 10032, Note_on_c, 0, 64, 0
2, 10032, Note_on_c, 0, 67, 0
2, 10032, Note_on_c, 0, 71, 0
2, 10092, Note_on_c, 0, 73, 95
2, 10104, Note_on_c, 0, 73, 0
2, 10104, Note_on_c, 0, 74, 95
2, 10116, Note_on_c, 0, 74, 0
2, 10116, Note_on_c, 0, 78, 95
2, 10128, Note_on_c, 0, 78, 0
2, 10128, Note_on_c, 0, 76, 95
2, 10140, Note_on_c, 0, 76, 0
2, 10140, Note_on_c, 0, 74, 95
2, 10152, Note_on_c, 0, 74, 0
2, 10152, Note_on_c, 0, 73, 95
2, 10164, Note_on_c, 0, 73, 0
2, 10164, Note_on_c, 0, 71, 95
2, 10176, Note_on_c, 0, 71, 0
2, 10176, Note_on_c, 0, 70, 95
2, 10188, Note_on_c, 0, 70, 0
2, 10188, Note_on_c, 0, 76, 95
2, 10200, Note_on_c, 0, 76, 0
2, 10200, Note_on_c, 0, 74, 95
2, 10212, Note_on_c, 0, 74, 0
2, 10212, Note_on_c, 0, 73, 95
2, 10224, Note_on_c, 0, 73, 0
2, 10224, Note_on_c, 0, 71, 95
2, 10236, Note_on_c, 0, 71, 0
2, 10236, Note_on_c, 0, 69, 95
2, 10248, Note_on_c, 0, 69, 0
2, 10248, Note_on_c, 0, 67, 95
2, 10260, Note_on_c, 0, 67, 0
2, 10260, Note_on_c, 0, 66, 95
2, 10272, Note_on_c, 0, 66, 0
2, 10272, Note_on_c, 0, 67, 95
2, 10272, Note_on_c, 0, 71, 95
2, 10284, Note_on_c, 0, 71, 0
2, 10284, Note_on_c, 0, 74, 95
2, 10296, Note_on_c, 0, 74, 0
2, 10296, Note_on_c, 0, 67, 0
2, 10296, Note_on_c, 0, 65, 95
2, 10296, Note_on_c, 0, 69, 95
2, 10308, Note_on_c, 0, 69, 0
2, 10308, Note_on_c, 0, 74, 95
2, 10320, Note_on_c, 0, 74, 0
2, 10320, Note_on_c, 0, 65, 0
2, 10320, Note_on_c, 0, 64, 95
2, 10320, Note_on_c, 0, 67, 95
2, 10332, Note_on_c, 0, 67, 0
2, 10332, Note_on_c, 0, 72, 95
2, 10344, Note_on_c, 0, 72, 0
2, 10344, Note_on_c, 0, 64, 0
2, 10344, Note_on_c, 0, 62, 95
2, 10344, Note_on_c, 0, 65, 95
2, 10356, Note_on_c, 0, 65, 0
2, 10356, Note_on_c, 0, 71, 95
2, 10368, Note_on_c, 0, 71, 0
2, 10368, Note_on_c, 0, 62, 0
2, 10368, Note_on_c, 0, 60, 95
2, 10368, Note_on_c, 0, 64, 95
2, 10368, Note_on_c, 0, 67, 95
2, 10368, Note_on_c, 0, 72, 95
2, 10416, Note_on_c, 0, 72, 0
2, 10416, Note_on_c, 0, 60, 0
2, 10416, Note_on_c, 0, 64, 0
2, 10416, Note_on_c, 0, 67, 0
2, 10476, Note_on_c, 0, 72, 95
2, 10488, Note_on_c, 0, 72, 0
2, 10488, Note_on_c, 0, 76, 95
2, 10500, Note_on_c, 0, 76, 0
2, 10500, Note_on_c, 0, 74, 95
2, 10512, Note_on_c, 0, 74, 0
2, 10512, Note_on_c, 0, 72, 95
2, 10524, Note_on_c, 0, 72, 0
2, 10524, Note_on_c, 0, 71, 95
2, 10536, Note_on_c, 0, 71, 0
2, 10536, Note_on_c, 0, 69, 95
2, 10548, Note_on_c, 0, 69, 0
2, 10548, Note_on_c, 0, 67, 95
2, 10560, Note_on_c, 0, 67, 0
2, 10560, Note_on_c, 0, 66, 95
2, 10572, Note_on_c, 0, 66, 0
2, 10572, Note_on_c, 0, 67, 95
2, 10584, Note_on_c, 0, 67, 0
2, 10584, Note_on_c, 0, 66, 95
2, 10596, Note_on_c, 0, 66, 0
2, 10596, Note_on_c, 0, 64, 95
2, 10608, Note_on_c, 0, 64, 0
2, 10608, Note_on_c, 0, 62, 95
2, 10620, Note_on_c, 0, 62, 0
2, 10620, Note_on_c, 0, 60, 95
2, 10632, Note_on_c, 0, 60, 0
2, 10632, Note_on_c, 0, 59, 95
2, 10644, Note_on_c, 0, 59, 0
2, 10644, Note_on_c, 0, 57, 95
2, 10656, Note_on_c, 0, 57, 0
2, 10656, Note_on_c, 0, 55, 95
2, 10668, Note_on_c, 0, 55, 0
2, 10704, Note_on_c, 0, 69, 95
2, 10712, Note_on_c, 0, 69, 0
2, 10712, Note_on_c, 0, 67, 95
2, 10720, Note_on_c, 0, 67, 0
2, 10720, Note_on_c, 0, 69, 95
2, 10728, Note_on_c, 0, 69, 0
2, 10728, Note_on_c, 0, 71, 95
2, 10736, Note_on_c, 0, 71, 0
2, 10736, Note_on_c, 0, 69, 95
2, 10744, Note_on_c, 0, 69, 0
2, 10744, Note_on_c, 0, 71, 95
2, 10752, Note_on_c, 0, 71, 0
2, 10752, Note_on_c, 0, 72, 95
2, 10760, Note_on_c, 0, 72, 0
2, 10760, Note_on_c, 0, 71, 95
2, 10768, Note_on_c, 0, 71, 0
2, 10768, Note_on_c, 0, 72, 95
2, 10776, Note_on_c, 0, 72, 0
2, 10776, Note_on_c, 0, 74, 95
2, 10784, Note_on_c, 0, 74, 0
2, 10784, Note_on_c, 0, 76, 95
2, 10792, Note_on_c, 0, 76, 0
2, 10792, Note_on_c, 0, 74, 95
2, 10800, Note_on_c, 0, 74, 0
2, 10800, Note_on_c, 0, 72, 95
2, 10808, Note_on_c, 0, 72, 0
2, 10808, Note_on_c, 0, 74, 95
2, 10816, Note_on_c, 0, 74, 0
2, 10816, Note_on_c, 0, 72, 95
2, 10824, Note_on_c, 0, 72, 0
2, 10824, Note_on_c, 0, 71, 95
2, 10832, Note_on_c, 0, 71, 0
2, 10832, Note_on_c, 0, 72, 95
2, 10840, Note_on_c, 0, 72, 0
2, 10840, Note_on_c, 0, 71, 95
2, 10848, Note_on_c, 0, 71, 0
2, 10848, Note_on_c, 0, 79, 95
2, 10860, Note_on_c, 0, 79, 0
2, 10860, Note_on_c, 0, 76, 95
2, 10872, Note_on_c, 0, 76, 0
2, 10872, Note_on_c, 0, 74, 95
2, 10884, Note_on_c, 0, 74, 0
2, 10884, Note_on_c, 0, 76, 95
2, 10896, Note_on_c, 0, 76, 0
2, 10896, Note_on_c, 0, 73, 95
2, 10908, Note_on_c, 0, 73, 0
2, 10908, Note_on_c, 0, 76, 95
2, 10920, Note_on_c, 0, 76, 0
2, 10920, Note_on_c, 0, 71, 95
2, 10932, Note_on_c, 0, 71, 0
2, 10932, Note_on_c, 0, 76, 95
2, 10944, Note_on_c, 0, 76, 0
2, 10944, Note_on_c, 0, 69, 95
2, 10956, Note_on_c, 0, 69, 0
2, 10956, Note_on_c, 0, 76, 95
2, 10968, Note_on_c, 0, 76, 0
2, 10968, Note_on_c, 0, 67, 95
2, 10980, Note_on_c, 0, 67, 0
2, 10980, Note_on_c, 0, 76, 95
2, 10992, Note_on_c, 0, 76, 0
2, 10992, Note_on_c, 0, 66, 95
2, 11004, Note_on_c, 0, 66, 0
2, 11004, Note_on_c, 0, 76, 95
2, 11016, Note_on_c, 0, 76, 0
2, 11016, Note_on_c, 0, 64, 95
2, 11028, Note_on_c, 0, 64, 0
2, 11028, Note_on_c, 0, 73, 95
2, 11040, Note_on_c, 0, 73, 0
2, 11040, Note_on_c, 0, 74, 95
2, 11064, Note_on_c, 0, 74, 0
2, 11544, Note_on_c, 0, 74, 79
2, 11554, Note_on_c, 0, 74, 0
2, 11556, Note_on_c, 0, 78, 79
2, 11566, Note_on_c, 0, 78, 0
2, 11568, Note_on_c, 0, 76, 79
2, 11578, Note_on_c, 0, 76, 0
2, 11580, Note_on_c, 0, 73, 79
2, 11590, Note_on_c, 0, 73, 0
2, 11592, Note_on_c, 0, 74, 79
2, 11602, Note_on_c, 0, 74, 0
2, 11604, Note_on_c, 0, 76, 79
2, 11614, Note_on_c, 0, 76, 0
2, 11616, Note_on_c, 0, 78, 79
2, 11621, Note_on_c, 0, 78, 0
2, 11622, Note_on_c, 0, 79, 79
2, 11627, Note_on_c, 0, 79, 0
2, 11628, Note_on_c, 0, 78, 79
2, 11633, Note_on_c, 0, 78, 0
2, 11634, Note_on_c, 0, 79, 79
2, 11639, Note_on_c, 0, 79, 0
2, 11640, Note_on_c, 0, 76, 79
2, 11660, Note_on_c, 0, 76, 0
2, 11820, Note_on_c, 0, 69, 79
2, 11830, Note_on_c, 0, 69, 0
2, 11832, Note_on_c, 0, 71, 79
2, 11842, Note_on_c, 0, 71, 0
2, 11844, Note_on_c, 0, 73, 79
2, 11854, Note_on_c, 0, 73, 0
2, 11856, Note_on_c, 0, 74, 79
2, 11866, Note_on_c, 0, 74, 0
2, 11868, Note_on_c, 0, 76, 79
2, 11878, Note_on_c, 0, 76, 0
2, 11880, Note_on_c, 0, 78, 79
2, 11890, Note_on_c, 0, 78, 0
2, 11892, Note_on_c, 0, 79, 79
2, 11902, Note_on_c, 0, 79, 0
2, 11904, Note_on_c, 0, 78, 79
2, 11914, Note_on_c, 0, 78, 0
2, 11916, Note_on_c, 0, 76, 79
2, 11926, Note_on_c, 0, 76, 0
2, 11928, Note_on_c, 0, 69, 79
2, 11938, Note_on_c, 0, 69, 0
2, 11940, Note_on_c, 0, 71, 79
2, 11950, Note_on_c, 0, 71, 0
2, 11952, Note_on_c, 0, 73, 79
2, 11962, Note_on_c, 0, 73, 0
2, 11964, Note_on_c, 0, 69, 79
2, 11974, Note_on_c, 0, 69, 0
2, 11976, Note_on_c, 0, 71, 79
2, 11986, Note_on_c, 0, 71, 0
2, 11988, Note_on_c, 0, 74, 79
2, 11998, Note_on_c, 0, 74, 0
2, 12000, Note_on_c, 0, 73, 79
2, 12010, Note_on_c, 0, 73, 0
2, 12012, Note_on_c, 0, 76, 79
2, 12022, Note_on_c, 0, 76, 0
2, 12024, Note_on_c, 0, 78, 79
2, 12034, Note_on_c, 0, 78, 0
2, 12036, Note_on_c, 0, 74, 79
2, 12046, Note_on_c, 0, 74, 0
2, 12048, Note_on_c, 0, 76, 79
2, 12058, Note_on_c, 0, 76, 0
2, 12060, Note_on_c, 0, 79, 79
2, 12070, Note_on_c, 0, 79, 0
2, 12072, Note_on_c, 0, 78, 79
2, 12082, Note_on_c, 0, 78, 0
2, 12084, Note_on_c, 0, 76, 79
2, 12094, Note_on_c, 0, 76, 0
2, 12096, Note_on_c, 0, 74, 79
2, 12106, Note_on_c, 0, 74, 0
2, 12108, Note_on_c, 0, 71, 79
2, 12118, Note_on_c, 0, 71, 0
2, 12120, Note_on_c, 0, 76, 79
2, 12130, Note_on_c, 0, 76, 0
2, 12132, Note_on_c, 0, 78, 79
2, 12142, Note_on_c, 0, 78, 0
2, 12144, Note_on_c, 0, 80, 79
2, 12154, Note_on_c, 0, 80, 0
2, 12156, Note_on_c, 0, 81, 79
2, 12166, Note_on_c, 0, 81, 0
2, 12168, Note_on_c, 0, 83, 79
2, 12178, Note_on_c, 0, 83, 0
2, 12180, Note_on_c, 0, 80, 79
2, 12190, Note_on_c, 0, 80, 0
2, 12192, Note_on_c, 0, 76, 79
2, 12202, Note_on_c, 0, 76, 0
2, 12204, Note_on_c, 0, 81, 79
2, 12214, Note_on_c, 0, 81, 0
2, 12216, Note_on_c, 0, 69, 79
2, 12226, Note_on_c, 0, 69, 0
2, 12228, Note_on_c, 0, 73, 79
2, 12238, Note_on_c, 0, 73, 0
2, 12240, Note_on_c, 0, 71, 79
2, 12250, Note_on_c, 0, 71, 0
2, 12252, Note_on_c, 0, 68, 79
2, 12262, Note_on_c, 0, 68, 0
2, 12264, Note_on_c, 0, 69, 79
2, 12274, Note_on_c, 0, 69, 0
2, 12276, Note_on_c, 0, 71, 79
2, 12286, Note_on_c, 0, 71, 0
2, 12288, Note_on_c, 0, 71, 79
2, 12294, Note_on_c, 0, 73, 79
2, 12298, Note_on_c, 0, 71, 0
2, 12312, Note_on_c, 0, 71, 79
2, 12314, Note_on_c, 0, 73, 0
2, 12332, Note_on_c, 0, 71, 0
2, 12492, Note_on_c, 0, 64, 79
2, 12502, Note_on_c, 0, 64, 0
2, 12504, Note_on_c, 0, 66, 79
2, 12514, Note_on_c, 0, 66, 0
2, 12516, Note_on_c, 0, 68, 79
2, 12526, Note_on_c, 0, 68, 0
2, 12528, Note_on_c, 0, 69, 79
2, 12538, Note_on_c, 0, 69, 0
2, 12540, Note_on_c, 0, 71, 79
2, 12550, Note_on_c, 0, 71, 0
2, 12552, Note_on_c, 0, 73, 79
2, 12562, Note_on_c, 0, 73, 0
2, 12564, Note_on_c, 0, 74, 79
2, 12574, Note_on_c, 0, 74, 0
2, 12576, Note_on_c, 0, 73, 79
2, 12586, Note_on_c, 0, 73, 0
2, 12588, Note_on_c, 0, 71, 79
2, 12598, Note_on_c, 0, 71, 0
2, 12600, Note_on_c, 0, 64, 79
2, 12610, Note_on_c, 0, 64, 0
2, 12612, Note_on_c, 0, 66, 79
2, 12622, Note_on_c, 0, 66, 0
2, 12624, Note_on_c, 0, 68, 79
2, 12634, Note_on_c, 0, 68, 0
2, 12636, Note_on_c, 0, 64, 79
2, 12646, Note_on_c, 0, 64, 0
2, 12648, Note_on_c, 0, 66, 79
2, 12658, Note_on_c, 0, 66, 0
2, 12660, Note_on_c, 0, 69, 79
2, 12670, Note_on_c, 0, 69, 0
2, 12672, Note_on_c, 0, 68, 79
2, 12682, Note_on_c, 0, 68, 0
2, 12684, Note_on_c, 0, 71, 79
2, 12694, Note_on_c, 0, 71, 0
2, 12696, Note_on_c, 0, 73, 79
2, 12706, Note_on_c, 0, 73, 0
2, 12708, Note_on_c, 0, 69, 79
2, 12718, Note_on_c, 0, 69, 0
2, 12720, Note_on_c, 0, 71, 79
2, 12730, Note_on_c, 0, 71, 0
2, 12732, Note_on_c, 0, 74, 79
2, 12742, Note_on_c, 0, 74, 0
2, 12744, Note_on_c, 0, 73, 79
2, 12754, Note_on_c, 0, 73, 0
2, 12756, Note_on_c, 0, 71, 79
2, 12766, Note_on_c, 0, 71, 0
2, 12768, Note_on_c, 0, 69, 79
2, 12778, Note_on_c, 0, 69, 0
2, 12780, Note_on_c, 0, 66, 79
2, 12790, Note_on_c, 0, 66, 0
2, 12792, Note_on_c, 0, 71, 79
2, 12802, Note_on_c, 0, 71, 0
2, 12804, Note_on_c, 0, 73, 79
2, 12814, Note_on_c, 0, 73, 0
2, 12816, Note_on_c, 0, 75, 79
2, 12826, Note_on_c, 0, 75, 0
2, 12828, Note_on_c, 0, 69, 79
2, 12838, Note_on_c, 0, 69, 0
2, 12840, Note_on_c, 0, 68, 79
2, 12850, Note_on_c, 0, 68, 0
2, 12852, Note_on_c, 0, 69, 79
2, 12862, Note_on_c, 0, 69, 0
2, 12864, Note_on_c, 0, 68, 79
2, 12874, Note_on_c, 0, 68, 0
2, 12876, Note_on_c, 0, 76, 79
2, 12886, Note_on_c, 0, 76, 0
2, 12888, Note_on_c, 0, 75, 79
2, 12898, Note_on_c, 0, 75, 0
2, 12900, Note_on_c, 0, 76, 79
2, 12910, Note_on_c, 0, 76, 0
2, 12912, Note_on_c, 0, 71, 79
2, 12922, Note_on_c, 0, 71, 0
2, 12924, Note_on_c, 0, 76, 79
2, 12934, Note_on_c, 0, 76, 0
2, 12936, Note_on_c, 0, 74, 79
2, 12946, Note_on_c, 0, 74, 0
2, 12948, Note_on_c, 0, 76, 79
2, 12958, Note_on_c, 0, 76, 0
2, 12960, Note_on_c, 0, 73, 79
2, 12970, Note_on_c, 0, 73, 0
2, 12972, Note_on_c, 0, 78, 79
2, 12982, Note_on_c, 0, 78, 0
2, 12984, Note_on_c, 0, 77, 79
2, 12994, Note_on_c, 0, 77, 0
2, 12996, Note_on_c, 0, 78, 79
2, 13006, Note_on_c, 0, 78, 0
2, 13008, Note_on_c, 0, 66, 79
2, 13018, Note_on_c, 0, 66, 0
2, 13020, Note_on_c, 0, 78, 79
2, 13030, Note_on_c, 0, 78, 0
2, 13032, Note_on_c, 0, 76, 79
2, 13042, Note_on_c, 0, 76, 0
2, 13044, Note_on_c, 0, 78, 79
2, 13054, Note_on_c, 0, 78, 0
2, 13056, Note_on_c, 0, 74, 79
2, 13066, Note_on_c, 0, 74, 0
2, 13068, Note_on_c, 0, 76, 79
2, 13078, Note_on_c, 0, 76, 0
2, 13080, Note_on_c, 0, 74, 79
2, 13090, Note_on_c, 0, 74, 0
2, 13092, Note_on_c, 0, 73, 79
2, 13102, Note_on_c, 0, 73, 0
2, 13104, Note_on_c, 0, 71, 79
2, 13114, Note_on_c, 0, 71, 0
2, 13116, Note_on_c, 0, 73, 79
2, 13126, Note_on_c, 0, 73, 0
2, 13128, Note_on_c, 0, 74, 79
2, 13138, Note_on_c, 0, 74, 0
2, 13140, Note_on_c, 0, 71, 79
2, 13150, Note_on_c, 0, 71, 0
2, 13152, Note_on_c, 0, 77, 79
2, 13162, Note_on_c, 0, 77, 0
2, 13164, Note_on_c, 0, 71, 79
2, 13174, Note_on_c, 0, 71, 0
2, 13176, Note_on_c, 0, 69, 79
2, 13186, Note_on_c, 0, 69, 0
2, 13188, Note_on_c, 0, 68, 79
2, 13198, Note_on_c, 0, 68, 0
2, 13200, Note_on_c, 0, 66, 79
2, 13210, Note_on_c, 0, 66, 0
2, 13212, Note_on_c, 0, 73, 79
2, 13222, Note_on_c, 0, 73, 0
2, 13224, Note_on_c, 0, 78, 79
2, 13234, Note_on_c, 0, 78, 0
2, 13236, Note_on_c, 0, 76, 79
2, 13246, Note_on_c, 0, 76, 0
2, 13248, Note_on_c, 0, 74, 79
2, 13258, Note_on_c, 0, 74, 0
2, 13260, Note_on_c, 0, 73, 79
2, 13270, Note_on_c, 0, 73, 0
2, 13272, Note_on_c, 0, 71, 79
2, 13282, Note_on_c, 0, 71, 0
2, 13284, Note_on_c, 0, 69, 79
2, 13294, Note_on_c, 0, 69, 0
2, 13296, Note_on_c, 0, 68, 79
2, 13306, Note_on_c, 0, 68, 0
2, 13308, Note_on_c, 0, 66, 79
2, 13318, Note_on_c, 0, 66, 0
2, 13320, Note_on_c, 0, 65, 79
2, 13330, Note_on_c, 0, 65, 0
2, 13332, Note_on_c, 0, 66, 79
2, 13342, Note_on_c, 0, 66, 0
2, 13344, Note_on_c, 0, 68, 79
2, 13354, Note_on_c, 0, 68, 0
2, 13356, Note_on_c, 0, 71, 79
2, 13366, Note_on_c, 0, 71, 0
2, 13368, Note_on_c, 0, 74, 79
2, 13378, Note_on_c, 0, 74, 0
2, 13380, Note_on_c, 0, 77, 79
2, 13390, Note_on_c, 0, 77, 0
2, 13392, Note_on_c, 0, 80, 79
2, 13402, Note_on_c, 0, 80, 0
2, 13404, Note_on_c, 0, 68, 79
2, 13414, Note_on_c, 0, 68, 0
2, 13416, Note_on_c, 0, 66, 79
2, 13426, Note_on_c, 0, 66, 0
2, 13428, Note_on_c, 0, 65, 79
2, 13438, Note_on_c, 0, 65, 0
2, 13440, Note_on_c, 0, 66, 79
2, 13450, Note_on_c, 0, 66, 0
2, 13452, Note_on_c, 0, 69, 79
2, 13462, Note_on_c, 0, 69, 0
2, 13464, Note_on_c, 0, 73, 79
2, 13474, Note_on_c, 0, 73, 0
2, 13476, Note_on_c, 0, 65, 79
2, 13486, Note_on_c, 0, 65, 0
2, 13488, Note_on_c, 0, 66, 79
2, 13498, Note_on_c, 0, 66, 0
2, 13500, Note_on_c, 0, 69, 79
2, 13510, Note_on_c, 0, 69, 0
2, 13512, Note_on_c, 0, 73, 79
2, 13522, Note_on_c, 0, 73, 0
2, 13524, Note_on_c, 0, 61, 79
2, 13534, Note_on_c, 0, 61, 0
2, 13536, Note_on_c, 0, 66, 79
2, 13546, Note_on_c, 0, 66, 0
2, 13548, Note_on_c, 0, 69, 79
2, 13558, Note_on_c, 0, 69, 0
2, 13560, Note_on_c, 0, 73, 79
2, 13570, Note_on_c, 0, 73, 0
2, 13572, Note_on_c, 0, 65, 79
2, 13582, Note_on_c, 0, 65, 0
2, 13584, Note_on_c, 0, 66, 79
2, 13594, Note_on_c, 0, 66, 0
2, 13596, Note_on_c, 0, 69, 79
2, 13606, Note_on_c, 0, 69, 0
2, 13608, Note_on_c, 0, 73, 79
2, 13618, Note_on_c, 0, 73, 0
2, 13620, Note_on_c, 0, 61, 79
2, 13630, Note_on_c, 0, 61, 0
2, 13632, Note_on_c, 0, 66, 79
2, 13642, Note_on_c, 0, 66, 0
2, 13644, Note_on_c, 0, 69, 79
2, 13654, Note_on_c, 0, 69, 0
2, 13656, Note_on_c, 0, 74, 79
2, 13666, Note_on_c, 0, 74, 0
2, 13668, Note_on_c, 0, 65, 79
2, 13678, Note_on_c, 0, 65, 0
2, 13680, Note_on_c, 0, 66, 79
2, 13690, Note_on_c, 0, 66, 0
2, 13692, Note_on_c, 0, 69, 79
2, 13702, Note_on_c, 0, 69, 0
2, 13704, Note_on_c, 0, 74, 79
2, 13714, Note_on_c, 0, 74, 0
2, 13716, Note_on_c, 0, 62, 79
2, 13726, Note_on_c, 0, 62, 0
2, 13728, Note_on_c, 0, 66, 79
2, 13738, Note_on_c, 0, 66, 0
2, 13740, Note_on_c, 0, 69, 79
2, 13750, Note_on_c, 0, 69, 0
2, 13752, Note_on_c, 0, 74, 79
2, 13762, Note_on_c, 0, 74, 0
2, 13764, Note_on_c, 0, 65, 79
2, 13774, Note_on_c, 0, 65, 0
2, 13776, Note_on_c, 0, 66, 79
2, 13786, Note_on_c, 0, 66, 0
2, 13788, Note_on_c, 0, 69, 79
2, 13798, Note_on_c, 0, 69, 0
2, 13800, Note_on_c, 0, 74, 79
2, 13810, Note_on_c, 0, 74, 0
2, 13812, Note_on_c, 0, 62, 79
2, 13822, Note_on_c, 0, 62, 0
2, 13824, Note_on_c, 0, 65, 79
2, 13834, Note_on_c, 0, 65, 0
2, 13836, Note_on_c, 0, 68, 79
2, 13846, Note_on_c, 0, 68, 0
2, 13848, Note_on_c, 0, 71, 79
2, 13858, Note_on_c, 0, 71, 0
2, 13860, Note_on_c, 0, 63, 79
2, 13870, Note_on_c, 0, 63, 0
2, 13872, Note_on_c, 0, 65, 79
2, 13882, Note_on_c, 0, 65, 0
2, 13884, Note_on_c, 0, 68, 79
2, 13894, Note_on_c, 0, 68, 0
2, 13896, Note_on_c, 0, 71, 79
2, 13906, Note_on_c, 0, 71, 0
2, 13908, Note_on_c, 0, 61, 79
2, 13918, Note_on_c, 0, 61, 0
2, 13920, Note_on_c, 0, 65, 79
2, 13930, Note_on_c, 0, 65, 0
2, 13932, Note_on_c, 0, 68, 79
2, 13942, Note_on_c, 0, 68, 0
2, 13944, Note_on_c, 0, 71, 79
2, 13954, Note_on_c, 0, 71, 0
2, 13956, Note_on_c, 0, 63, 79
2, 13966, Note_on_c, 0, 63, 0
2, 13968, Note_on_c, 0, 65, 79
2, 13978, Note_on_c, 0, 65, 0
2, 13980, Note_on_c, 0, 68, 79
2, 13990, Note_on_c, 0, 68, 0
2, 13992, Note_on_c, 0, 71, 79
2, 14002, Note_on_c, 0, 71, 0
2, 14004, Note_on_c, 0, 61, 79
2, 14014, Note_on_c, 0, 61, 0
2, 14016, Note_on_c, 0, 66, 79
2, 14026, Note_on_c, 0, 66, 0
2, 14028, Note_on_c, 0, 68, 79
2, 14038, Note_on_c, 0, 68, 0
2, 14040, Note_on_c, 0, 69, 79
2, 14050, Note_on_c, 0, 69, 0
2, 14052, Note_on_c, 0, 65, 79
2, 14062, Note_on_c, 0, 65, 0
2, 14064, Note_on_c, 0, 66, 79
2, 14074, Note_on_c, 0, 66, 0
2, 14076, Note_on_c, 0, 68, 79
2, 14086, Note_on_c, 0, 68, 0
2, 14088, Note_on_c, 0, 69, 79
2, 14098, Note_on_c, 0, 69, 0
2, 14100, Note_on_c, 0, 61, 79
2, 14110, Note_on_c, 0, 61, 0
2, 14112, Note_on_c, 0, 66, 79
2, 14122, Note_on_c, 0, 66, 0
2, 14124, Note_on_c, 0, 68, 79
2, 14134, Note_on_c, 0, 68, 0
2, 14136, Note_on_c, 0, 69, 79
2, 14146, Note_on_c, 0, 69, 0
2, 14148, Note_on_c, 0, 65, 79
2, 14158, Note_on_c, 0, 65, 0
2, 14160, Note_on_c, 0, 66, 79
2, 14170, Note_on_c, 0, 66, 0
2, 14172, Note_on_c, 0, 68, 79
2, 14182, Note_on_c, 0, 68, 0
2, 14184, Note_on_c, 0, 69, 79
2, 14194, Note_on_c, 0, 69, 0
2, 14196, Note_on_c, 0, 61, 79
2, 14206, Note_on_c, 0, 61, 0
2, 14208, Note_on_c, 0, 66, 79
2, 14218, Note_on_c, 0, 66, 0
2, 14220, Note_on_c, 0, 69, 79
2, 14230, Note_on_c, 0, 69, 0
2, 14232, Note_on_c, 0, 74, 79
2, 14242, Note_on_c, 0, 74, 0
2, 14244, Note_on_c, 0, 65, 79
2, 14254, Note_on_c, 0, 65, 0
2, 14256, Note_on_c, 0, 66, 79
2, 14266, Note_on_c, 0, 66, 0
2, 14268, Note_on_c, 0, 69, 79
2, 14278, Note_on_c, 0, 69, 0
2, 14280, Note_on_c, 0, 74, 79
2, 14290, Note_on_c, 0, 74, 0
2, 14292, Note_on_c, 0, 62, 79
2, 14302, Note_on_c, 0, 62, 0
2, 14304, Note_on_c, 0, 66, 79
2, 14314, Note_on_c, 0, 66, 0
2, 14316, Note_on_c, 0, 69, 79
2, 14326, Note_on_c, 0, 69, 0
2, 14328, Note_on_c, 0, 74, 79
2, 14338, Note_on_c, 0, 74, 0
2, 14340, Note_on_c, 0, 65, 79
2, 14350, Note_on_c, 0, 65, 0
2, 14352, Note_on_c, 0, 66, 79
2, 14362, Note_on_c, 0, 66, 0
2, 14364, Note_on_c, 0, 69, 79
2, 14374, Note_on_c, 0, 69, 0
2, 14376, Note_on_c, 0, 74, 79
2, 14386, Note_on_c, 0, 74, 0
2, 14388, Note_on_c, 0, 62, 79
2, 14398, Note_on_c, 0, 62, 0
2, 14400, Note_on_c, 0, 68, 79
2, 14410, Note_on_c, 0, 68, 0
2, 14412, Note_on_c, 0, 71, 79
2, 14422, Note_on_c, 0, 71, 0
2, 14424, Note_on_c, 0, 74, 79
2, 14434, Note_on_c, 0, 74, 0
2, 14436, Note_on_c, 0, 66, 79
2, 14446, Note_on_c, 0, 66, 0
2, 14448, Note_on_c, 0, 68, 79
2, 14458, Note_on_c, 0, 68, 0
2, 14460, Note_on_c, 0, 71, 79
2, 14470, Note_on_c, 0, 71, 0
2, 14472, Note_on_c, 0, 74, 79
2, 14482, Note_on_c, 0, 74, 0
2, 14484, Note_on_c, 0, 64, 79
2, 14494, Note_on_c, 0, 64, 0
2, 14496, Note_on_c, 0, 68, 79
2, 14506, Note_on_c, 0, 68, 0
2, 14508, Note_on_c, 0, 71, 79
2, 14518, Note_on_c, 0, 71, 0
2, 14520, Note_on_c, 0, 74, 79
2, 14530, Note_on_c, 0, 74, 0
2, 14532, Note_on_c, 0, 66, 79
2, 14542, Note_on_c, 0, 66, 0
2, 14544, Note_on_c, 0, 68, 79
2, 14554, Note_on_c, 0, 68, 0
2, 14556, Note_on_c, 0, 71, 79
2, 14566, Note_on_c, 0, 71, 0
2, 14568, Note_on_c, 0, 74, 79
2, 14578, Note_on_c, 0, 74, 0
2, 14580, Note_on_c, 0, 64, 79
2, 14590, Note_on_c, 0, 64, 0
2, 14592, Note_on_c, 0, 69, 79
2, 14602, Note_on_c, 0, 69, 0
2, 14604, Note_on_c, 0, 73, 79
2, 14614, Note_on_c, 0, 73, 0
2, 14616, Note_on_c, 0, 76, 79
2, 14626, Note_on_c, 0, 76, 0
2, 14628, Note_on_c, 0, 68, 79
2, 14638, Note_on_c, 0, 68, 0
2, 14640, Note_on_c, 0, 69, 79
2, 14650, Note_on_c, 0, 69, 0
2, 14652, Note_on_c, 0, 73, 79
2, 14662, Note_on_c, 0, 73, 0
2, 14664, Note_on_c, 0, 76, 79
2, 14674, Note_on_c, 0, 76, 0
2, 14676, Note_on_c, 0, 64, 79
2, 14686, Note_on_c, 0, 64, 0
2, 14688, Note_on_c, 0, 69, 79
2, 14698, Note_on_c, 0, 69, 0
2, 14700, Note_on_c, 0, 73, 79
2, 14710, Note_on_c, 0, 73, 0
2, 14712, Note_on_c, 0, 76, 79
2, 14722, Note_on_c, 0, 76, 0
2, 14724, Note_on_c, 0, 68, 79
2, 14734, Note_on_c, 0, 68, 0
2, 14736, Note_on_c, 0, 69, 79
2, 14746, Note_on_c, 0, 69, 0
2, 14748, Note_on_c, 0, 73, 79
2, 14758, Note_on_c, 0, 73, 0
2, 14760, Note_on_c, 0, 76, 79
2, 14770, Note_on_c, 0, 76, 0
2, 14772, Note_on_c, 0, 64, 79
2, 14782, Note_on_c, 0, 64, 0
2, 14784, Note_on_c, 0, 69, 79
2, 14794, Note_on_c, 0, 69, 0
2, 14796, Note_on_c, 0, 74, 79
2, 14806, Note_on_c, 0, 74, 0
2, 14808, Note_on_c, 0, 78, 79
2, 14818, Note_on_c, 0, 78, 0
2, 14820, Note_on_c, 0, 68, 79
2, 14830, Note_on_c, 0, 68, 0
2, 14832, Note_on_c, 0, 69, 79
2, 14842, Note_on_c, 0, 69, 0
2, 14844, Note_on_c, 0, 74, 79
2, 14854, Note_on_c, 0, 74, 0
2, 14856, Note_on_c, 0, 78, 79
2, 14866, Note_on_c, 0, 78, 0
2, 14868, Note_on_c, 0, 66, 79
2, 14878, Note_on_c, 0, 66, 0
2, 14880, Note_on_c, 0, 69, 79
2, 14890, Note_on_c, 0, 69, 0
2, 14892, Note_on_c, 0, 74, 79
2, 14902, Note_on_c, 0, 74, 0
2, 14904, Note_on_c, 0, 78, 79
2, 14914, Note_on_c, 0, 78, 0
2, 14916, Note_on_c, 0, 68, 79
2, 14926, Note_on_c, 0, 68, 0
2, 14928, Note_on_c, 0, 69, 79
2, 14938, Note_on_c, 0, 69, 0
2, 14940, Note_on_c, 0, 74, 79
2, 14950, Note_on_c, 0, 74, 0
2, 14952, Note_on_c, 0, 78, 79
2, 14962, Note_on_c, 0, 78, 0
2, 14964, Note_on_c, 0, 66, 79
2, 14974, Note_on_c, 0, 66, 0
2, 14976, Note_on_c, 0, 68, 79
2, 14986, Note_on_c, 0, 68, 0
2, 14988, Note_on_c, 0, 71, 79
2, 14998, Note_on_c, 0, 71, 0
2, 15000, Note_on_c, 0, 74, 79
2, 15010, Note_on_c, 0, 74, 0
2, 15012, Note_on_c, 0, 66, 79
2, 15022, Note_on_c, 0, 66, 0
2, 15024, Note_on_c, 0, 68, 79
2, 15034, Note_on_c, 0, 68, 0
2, 15036, Note_on_c, 0, 71, 79
2, 15046, Note_on_c, 0, 71, 0
2, 15048, Note_on_c, 0, 74, 79
2, 15058, Note_on_c, 0, 74, 0
2, 15060, Note_on_c, 0, 64, 79
2, 15070, Note_on_c, 0, 64, 0
2, 15072, Note_on_c, 0, 68, 79
2, 15082, Note_on_c, 0, 68, 0
2, 15084, Note_on_c, 0, 71, 79
2, 15094, Note_on_c, 0, 71, 0
2, 15096, Note_on_c, 0, 74, 79
2, 15106, Note_on_c, 0, 74, 0
2, 15108, Note_on_c, 0, 66, 79
2, 15118, Note_on_c, 0, 66, 0
2, 15120, Note_on_c, 0, 68, 79
2, 15130, Note_on_c, 0, 68, 0
2, 15132, Note_on_c, 0, 71, 79
2, 15142, Note_on_c, 0, 71, 0
2, 15144, Note_on_c, 0, 74, 79
2, 15154, Note_on_c, 0, 74, 0
2, 15156, Note_on_c, 0, 64, 79
2, 15166, Note_on_c, 0, 64, 0
2, 15168, Note_on_c, 0, 69, 79
2, 15178, Note_on_c, 0, 69, 0
2, 15180, Note_on_c, 0, 71, 79
2, 15190, Note_on_c, 0, 71, 0
2, 15192, Note_on_c, 0, 73, 79
2, 15202, Note_on_c, 0, 73, 0
2, 15204, Note_on_c, 0, 68, 79
2, 15214, Note_on_c, 0, 68, 0
2, 15216, Note_on_c, 0, 69, 79
2, 15226, Note_on_c, 0, 69, 0
2, 15228, Note_on_c, 0, 71, 79
2, 15238, Note_on_c, 0, 71, 0
2, 15240, Note_on_c, 0, 73, 79
2, 15250, Note_on_c, 0, 73, 0
2, 15252, Note_on_c, 0, 64, 79
2, 15262, Note_on_c, 0, 64, 0
2, 15264, Note_on_c, 0, 69, 79
2, 15274, Note_on_c, 0, 69, 0
2, 15276, Note_on_c, 0, 71, 79
2, 15286, Note_on_c, 0, 71, 0
2, 15288, Note_on_c, 0, 73, 79
2, 15298, Note_on_c, 0, 73, 0
2, 15300, Note_on_c, 0, 68, 79
2, 15310, Note_on_c, 0, 68, 0
2, 15312, Note_on_c, 0, 69, 79
2, 15322, Note_on_c, 0, 69, 0
2, 15324, Note_on_c, 0, 71, 79
2, 15334, Note_on_c, 0, 71, 0
2, 15336, Note_on_c, 0, 73, 79
2, 15346, Note_on_c, 0, 73, 0
2, 15348, Note_on_c, 0, 64, 79
2, 15358, Note_on_c, 0, 64, 0
2, 15360, Note_on_c, 0, 69, 79
2, 15370, Note_on_c, 0, 69, 0
2, 15372, Note_on_c, 0, 73, 79
2, 15382, Note_on_c, 0, 73, 0
2, 15384, Note_on_c, 0, 78, 79
2, 15394, Note_on_c, 0, 78, 0
2, 15396, Note_on_c, 0, 68, 79
2, 15406, Note_on_c, 0, 68, 0
2, 15408, Note_on_c, 0, 69, 79
2, 15418, Note_on_c, 0, 69, 0
2, 15420, Note_on_c, 0, 73, 79
2, 15430, Note_on_c, 0, 73, 0
2, 15432, Note_on_c, 0, 78, 79
2, 15442, Note_on_c, 0, 78, 0
2, 15444, Note_on_c, 0, 66, 79
2, 15454, Note_on_c, 0, 66, 0
2, 15456, Note_on_c, 0, 69, 79
2, 15466, Note_on_c, 0, 69, 0
2, 15468, Note_on_c, 0, 73, 79
2, 15478, Note_on_c, 0, 73, 0
2, 15480, Note_on_c, 0, 78, 79
2, 15490, Note_on_c, 0, 78, 0
2, 15492, Note_on_c, 0, 68, 79
2, 15502, Note_on_c, 0, 68, 0
2, 15504, Note_on_c, 0, 69, 79
2, 15514, Note_on_c, 0, 69, 0
2, 15516, Note_on_c, 0, 73, 79
2, 15526, Note_on_c, 0, 73, 0
2, 15528, Note_on_c, 0, 78, 79
2, 15538, Note_on_c, 0, 78, 0
2, 15540, Note_on_c, 0, 66, 79
2, 15550, Note_on_c, 0, 66, 0
2, 15552, Note_on_c, 0, 71, 79
2, 15562, Note_on_c, 0, 71, 0
2, 15564, Note_on_c, 0, 75, 79
2, 15574, Note_on_c, 0, 75, 0
2, 15576, Note_on_c, 0, 78, 79
2, 15586, Note_on_c, 0, 78, 0
2, 15588, Note_on_c, 0, 69, 79
2, 15598, Note_on_c, 0, 69, 0
2, 15600, Note_on_c, 0, 71, 79
2, 15610, Note_on_c, 0, 71, 0
2, 15612, Note_on_c, 0, 75, 79
2, 15622, Note_on_c, 0, 75, 0
2, 15624, Note_on_c, 0, 78, 79
2, 15634, Note_on_c, 0, 78, 0
2, 15636, Note_on_c, 0, 68, 79
2, 15646, Note_on_c, 0, 68, 0
2, 15648, Note_on_c, 0, 71, 79
2, 15658, Note_on_c, 0, 71, 0
2, 15660, Note_on_c, 0, 75, 79
2, 15670, Note_on_c, 0, 75, 0
2, 15672, Note_on_c, 0, 78, 79
2, 15682, Note_on_c, 0, 78, 0
2, 15684, Note_on_c, 0, 69, 79
2, 15694, Note_on_c, 0, 69, 0
2, 15696, Note_on_c, 0, 71, 79
2, 15706, Note_on_c, 0, 71, 0
2, 15708, Note_on_c, 0, 75, 79
2, 15718, Note_on_c, 0, 75, 0
2, 15720, Note_on_c, 0, 78, 79
2, 15730, Note_on_c, 0, 78, 0
2, 15732, Note_on_c, 0, 68, 79
2, 15742, Note_on_c, 0, 68, 0
2, 15744, Note_on_c, 0, 68, 79
2, 15754, Note_on_c, 0, 68, 0
2, 15756, Note_on_c, 0, 71, 79
2, 15766, Note_on_c, 0, 71, 0
2, 15768, Note_on_c, 0, 76, 79
2, 15778, Note_on_c, 0, 76, 0
2, 15780, Note_on_c, 0, 66, 79
2, 15790, Note_on_c, 0, 66, 0
2, 15792, Note_on_c, 0, 68, 79
2, 15802, Note_on_c, 0, 68, 0
2, 15804, Note_on_c, 0, 71, 79
2, 15814, Note_on_c, 0, 71, 0
2, 15816, Note_on_c, 0, 76, 79
2, 15826, Note_on_c, 0, 76, 0
2, 15828, Note_on_c, 0, 64, 79
2, 15838, Note_on_c, 0, 64, 0
2, 15840, Note_on_c, 0, 68, 79
2, 15850, Note_on_c, 0, 68, 0
2, 15852, Note_on_c, 0, 71, 79
2, 15862, Note_on_c, 0, 71, 0
2, 15864, Note_on_c, 0, 76, 79
2, 15874, Note_on_c, 0, 76, 0
2, 15876, Note_on_c, 0, 66, 79
2, 15886, Note_on_c, 0, 66, 0
2, 15888, Note_on_c, 0, 68, 79
2, 15898, Note_on_c, 0, 68, 0
2, 15900, Note_on_c, 0, 71, 79
2, 15910, Note_on_c, 0, 71, 0
2, 15912, Note_on_c, 0, 76, 79
2, 15922, Note_on_c, 0, 76, 0
2, 15924, Note_on_c, 0, 64, 79
2, 15934, Note_on_c, 0, 64, 0
2, 15936, Note_on_c, 0, 69, 79
2, 15946, Note_on_c, 0, 69, 0
2, 15948, Note_on_c, 0, 73, 79
2, 15958, Note_on_c, 0, 73, 0
2, 15960, Note_on_c, 0, 76, 79
2, 15970, Note_on_c, 0, 76, 0
2, 15972, Note_on_c, 0, 68, 79
2, 15982, Note_on_c, 0, 68, 0
2, 15984, Note_on_c, 0, 69, 79
2, 15994, Note_on_c, 0, 69, 0
2, 15996, Note_on_c, 0, 73, 79
2, 16006, Note_on_c, 0, 73, 0
2, 16008, Note_on_c, 0, 76, 79
2, 16018, Note_on_c, 0, 76, 0
2, 16020, Note_on_c, 0, 66, 79
2, 16030, Note_on_c, 0, 66, 0
2, 16032, Note_on_c, 0, 69, 79
2, 16042, Note_on_c, 0, 69, 0
2, 16044, Note_on_c, 0, 73, 79
2, 16054, Note_on_c, 0, 73, 0
2, 16056, Note_on_c, 0, 76, 79
2, 16066, Note_on_c, 0, 76, 0
2, 16068, Note_on_c, 0, 68, 79
2, 16078, Note_on_c, 0, 68, 0
2, 16080, Note_on_c, 0, 69, 79
2, 16090, Note_on_c, 0, 69, 0
2, 16092, Note_on_c, 0, 73, 79
2, 16102, Note_on_c, 0, 73, 0
2, 16104, Note_on_c, 0, 76, 79
2, 16114, Note_on_c, 0, 76, 0
2, 16116, Note_on_c, 0, 66, 79
2, 16126, Note_on_c, 0, 66, 0
2, 16128, Note_on_c, 0, 66, 79
2, 16138, Note_on_c, 0, 66, 0
2, 16140, Note_on_c, 0, 69, 79
2, 16150, Note_on_c, 0, 69, 0
2, 16152, Note_on_c, 0, 74, 79
2, 16162, Note_on_c, 0, 74, 0
2, 16164, Note_on_c, 0, 64, 79
2, 16174, Note_on_c, 0, 64, 0
2, 16176, Note_on_c, 0, 66, 79
2, 16186, Note_on_c, 0, 66, 0
2, 16188, Note_on_c, 0, 69, 79
2, 16198, Note_on_c, 0, 69, 0
2, 16200, Note_on_c, 0, 74, 79
2, 16210, Note_on_c, 0, 74, 0
2, 16212, Note_on_c, 0, 62, 79
2, 16222, Note_on_c, 0, 62, 0
2, 16224, Note_on_c, 0, 66, 79
2, 16234, Note_on_c, 0, 66, 0
2, 16236, Note_on_c, 0, 69, 79
2, 16246, Note_on_c, 0, 69, 0
2, 16248, Note_on_c, 0, 74, 79
2, 16258, Note_on_c, 0, 74, 0
2, 16260, Note_on_c, 0, 64, 79
2, 16270, Note_on_c, 0, 64, 0
2, 16272, Note_on_c, 0, 66, 79
2, 16282, Note_on_c, 0, 66, 0
2, 16284, Note_on_c, 0, 69, 79
2, 16294, Note_on_c, 0, 69, 0
2, 16296, Note_on_c, 0, 74, 79
2, 16306, Note_on_c, 0, 74, 0
2, 16308, Note_on_c, 0, 62, 79
2, 16318, Note_on_c, 0, 62, 0
2, 16320, Note_on_c, 0, 68, 79
2, 16330, Note_on_c, 0, 68, 0
2, 16332, Note_on_c, 0, 71, 79
2, 16342, Note_on_c, 0, 71, 0
2, 16344, Note_on_c, 0, 74, 79
2, 16354, Note_on_c, 0, 74, 0
2, 16356, Note_on_c, 0, 66, 79
2, 16366, Note_on_c, 0, 66, 0
2, 16368, Note_on_c, 0, 68, 79
2, 16378, Note_on_c, 0, 68, 0
2, 16380, Note_on_c, 0, 71, 79
2, 16390, Note_on_c, 0, 71, 0
2, 16392, Note_on_c, 0, 74, 79
2, 16402, Note_on_c, 0, 74, 0
2, 16404, Note_on_c, 0, 64, 79
2, 16414, Note_on_c, 0, 64, 0
2, 16416, Note_on_c, 0, 68, 79
2, 16426, Note_on_c, 0, 68, 0
2, 16428, Note_on_c, 0, 71, 79
2, 16438, Note_on_c, 0, 71, 0
2, 16440, Note_on_c, 0, 74, 79
2, 16450, Note_on_c, 0, 74, 0
2, 16452, Note_on_c, 0, 66, 79
2, 16462, Note_on_c, 0, 66, 0
2, 16464, Note_on_c, 0, 68, 79
2, 16474, Note_on_c, 0, 68, 0
2, 16476, Note_on_c, 0, 71, 79
2, 16486, Note_on_c, 0, 71, 0
2, 16488, Note_on_c, 0, 74, 79
2, 16498, Note_on_c, 0, 74, 0
2, 16500, Note_on_c, 0, 62, 79
2, 16510, Note_on_c, 0, 62, 0
2, 16512, Note_on_c, 0, 64, 79
2, 16522, Note_on_c, 0, 64, 0
2, 16524, Note_on_c, 0, 68, 79
2, 16534, Note_on_c, 0, 68, 0
2, 16536, Note_on_c, 0, 73, 79
2, 16546, Note_on_c, 0, 73, 0
2, 16548, Note_on_c, 0, 62, 79
2, 16558, Note_on_c, 0, 62, 0
2, 16560, Note_on_c, 0, 64, 79
2, 16570, Note_on_c, 0, 64, 0
2, 16572, Note_on_c, 0, 68, 79
2, 16582, Note_on_c, 0, 68, 0
2, 16584, Note_on_c, 0, 73, 79
2, 16594, Note_on_c, 0, 73, 0
2, 16596, Note_on_c, 0, 61, 79
2, 16606, Note_on_c, 0, 61, 0
2, 16608, Note_on_c, 0, 64, 79
2, 16618, Note_on_c, 0, 64, 0
2, 16620, Note_on_c, 0, 68, 79
2, 16630, Note_on_c, 0, 68, 0
2, 16632, Note_on_c, 0, 73, 79
2, 16642, Note_on_c, 0, 73, 0
2, 16644, Note_on_c, 0, 62, 79
2, 16654, Note_on_c, 0, 62, 0
2, 16656, Note_on_c, 0, 64, 79
2, 16666, Note_on_c, 0, 64, 0
2, 16668, Note_on_c, 0, 68, 79
2, 16678, Note_on_c, 0, 68, 0
2, 16680, Note_on_c, 0, 73, 79
2, 16690, Note_on_c, 0, 73, 0
2, 16692, Note_on_c, 0, 61, 79
2, 16702, Note_on_c, 0, 61, 0
2, 16704, Note_on_c, 0, 66, 79
2, 16714, Note_on_c, 0, 66, 0
2, 16716, Note_on_c, 0, 69, 79
2, 16726, Note_on_c, 0, 69, 0
2, 16728, Note_on_c, 0, 73, 79
2, 16738, Note_on_c, 0, 73, 0
2, 16740, Note_on_c, 0, 64, 79
2, 16750, Note_on_c, 0, 64, 0
2, 16752, Note_on_c, 0, 66, 79
2, 16762, Note_on_c, 0, 66, 0
2, 16764, Note_on_c, 0, 69, 79
2, 16774, Note_on_c, 0, 69, 0
2, 16776, Note_on_c, 0, 73, 79
2, 16786, Note_on_c, 0, 73, 0
2, 16788, Note_on_c, 0, 62, 79
2, 16798, Note_on_c, 0, 62, 0
2, 16800, Note_on_c, 0, 66, 79
2, 16810, Note_on_c, 0, 66, 0
2, 16812, Note_on_c, 0, 69, 79
2, 16822, Note_on_c, 0, 69, 0
2, 16824, Note_on_c, 0, 73, 79
2, 16834, Note_on_c, 0, 73, 0
2, 16836, Note_on_c, 0, 64, 79
2, 16846, Note_on_c, 0, 64, 0
2, 16848, Note_on_c, 0, 66, 79
2, 16858, Note_on_c, 0, 66, 0
2, 16860, Note_on_c, 0, 69, 79
2, 16870, Note_on_c, 0, 69, 0
2, 16872, Note_on_c, 0, 73, 79
2, 16882, Note_on_c, 0, 73, 0
2, 16884, Note_on_c, 0, 61, 79
2, 16894, Note_on_c, 0, 61, 0
2, 16896, Note_on_c, 0, 62, 79
2, 16906, Note_on_c, 0, 62, 0
2, 16908, Note_on_c, 0, 66, 79
2, 16918, Note_on_c, 0, 66, 0
2, 16920, Note_on_c, 0, 71, 79
2, 16930, Note_on_c, 0, 71, 0
2, 16932, Note_on_c, 0, 61, 79
2, 16942, Note_on_c, 0, 61, 0
2, 16944, Note_on_c, 0, 62, 79
2, 16954, Note_on_c, 0, 62, 0
2, 16956, Note_on_c, 0, 66, 79
2, 16966, Note_on_c, 0, 66, 0
2, 16968, Note_on_c, 0, 71, 79
2, 16978, Note_on_c, 0, 71, 0
2, 16980, Note_on_c, 0, 59, 79
2, 16990, Note_on_c, 0, 59, 0
2, 16992, Note_on_c, 0, 62, 79
2, 17002, Note_on_c, 0, 62, 0
2, 17004, Note_on_c, 0, 66, 79
2, 17014, Note_on_c, 0, 66, 0
2, 17016, Note_on_c, 0, 71, 79
2, 17026, Note_on_c, 0, 71, 0
2, 17028, Note_on_c, 0, 61, 79
2, 17038, Note_on_c, 0, 61, 0
2, 17040, Note_on_c, 0, 62, 79
2, 17050, Note_on_c, 0, 62, 0
2, 17052, Note_on_c, 0, 66, 79
2, 17062, Note_on_c, 0, 66, 0
2, 17064, Note_on_c, 0, 71, 79
2, 17074, Note_on_c, 0, 71, 0
2, 17076, Note_on_c, 0, 59, 79
2, 17086, Note_on_c, 0, 59, 0
2, 17088, Note_on_c, 0, 64, 79
2, 17098, Note_on_c, 0, 64, 0
2, 17100, Note_on_c, 0, 68, 79
2, 17110, Note_on_c, 0, 68, 0
2, 17112, Note_on_c, 0, 71, 79
2, 17122, Note_on_c, 0, 71, 0
2, 17124, Note_on_c, 0, 62, 79
2, 17134, Note_on_c, 0, 62, 0
2, 17136, Note_on_c, 0, 64, 79
2, 17146, Note_on_c, 0, 64, 0
2, 17148, Note_on_c, 0, 68, 79
2, 17158, Note_on_c, 0, 68, 0
2, 17160, Note_on_c, 0, 71, 79
2, 17170, Note_on_c, 0, 71, 0
2, 17172, Note_on_c, 0, 61, 79
2, 17182, Note_on_c, 0, 61, 0
2, 17184, Note_on_c, 0, 64, 79
2, 17194, Note_on_c, 0, 64, 0
2, 17196, Note_on_c, 0, 68, 79
2, 17206, Note_on_c, 0, 68, 0
2, 17208, Note_on_c, 0, 71, 79
2, 17218, Note_on_c, 0, 71, 0
2, 17220, Note_on_c, 0, 62, 79
2, 17230, Note_on_c, 0, 62, 0
2, 17232, Note_on_c, 0, 64, 79
2, 17242, Note_on_c, 0, 64, 0
2, 17244, Note_on_c, 0, 68, 79
2, 17254, Note_on_c, 0, 68, 0
2, 17256, Note_on_c, 0, 71, 79
2, 17266, Note_on_c, 0, 71, 0
2, 17268, Note_on_c, 0, 59, 79
2, 17278, Note_on_c, 0, 59, 0
2, 17280, Note_on_c, 0, 61, 79
2, 17290, Note_on_c, 0, 61, 0
2, 17292, Note_on_c, 0, 64, 79
2, 17302, Note_on_c, 0, 64, 0
2, 17304, Note_on_c, 0, 73, 79
2, 17314, Note_on_c, 0, 73, 0
2, 17316, Note_on_c, 0, 59, 79
2, 17326, Note_on_c, 0, 59, 0
2, 17328, Note_on_c, 0, 61, 79
2, 17338, Note_on_c, 0, 61, 0
2, 17340, Note_on_c, 0, 64, 79
2, 17350, Note_on_c, 0, 64, 0
2, 17352, Note_on_c, 0, 73, 79
2, 17362, Note_on_c, 0, 73, 0
2, 17364, Note_on_c, 0, 57, 79
2, 17374, Note_on_c, 0, 57, 0
2, 17376, Note_on_c, 0, 61, 79
2, 17386, Note_on_c, 0, 61, 0
2, 17388, Note_on_c, 0, 64, 79
2, 17398, Note_on_c, 0, 64, 0
2, 17400, Note_on_c, 0, 73, 79
2, 17410, Note_on_c, 0, 73, 0
2, 17412, Note_on_c, 0, 59, 79
2, 17422, Note_on_c, 0, 59, 0
2, 17424, Note_on_c, 0, 61, 79
2, 17434, Note_on_c, 0, 61, 0
2, 17436, Note_on_c, 0, 64, 79
2, 17446, Note_on_c, 0, 64, 0
2, 17448, Note_on_c, 0, 73, 79
2, 17458, Note_on_c, 0, 73, 0
2, 17460, Note_on_c, 0, 57, 79
2, 17470, Note_on_c, 0, 57, 0
2, 17472, Note_on_c, 0, 62, 79
2, 17482, Note_on_c, 0, 62, 0
2, 17484, Note_on_c, 0, 66, 79
2, 17494, Note_on_c, 0, 66, 0
2, 17496, Note_on_c, 0, 69, 79
2, 17506, Note_on_c, 0, 69, 0
2, 17508, Note_on_c, 0, 61, 79
2, 17518, Note_on_c, 0, 61, 0
2, 17520, Note_on_c, 0, 62, 79
2, 17530, Note_on_c, 0, 62, 0
2, 17532, Note_on_c, 0, 66, 79
2, 17542, Note_on_c, 0, 66, 0
2, 17544, Note_on_c, 0, 69, 79
2, 17554, Note_on_c, 0, 69, 0
2, 17556, Note_on_c, 0, 59, 79
2, 17566, Note_on_c, 0, 59, 0
2, 17568, Note_on_c, 0, 62, 79
2, 17578, Note_on_c, 0, 62, 0
2, 17580, Note_on_c, 0, 66, 79
2, 17590, Note_on_c, 0, 66, 0
2, 17592, Note_on_c, 0, 69, 79
2, 17602, Note_on_c, 0, 69, 0
2, 17604, Note_on_c, 0, 61, 79
2, 17614, Note_on_c, 0, 61, 0
2, 17616, Note_on_c, 0, 62, 79
2, 17626, Note_on_c, 0, 62, 0
2, 17628, Note_on_c, 0, 66, 79
2, 17638, Note_on_c, 0, 66, 0
2, 17640, Note_on_c, 0, 69, 79
2, 17650, Note_on_c, 0, 69, 0
2, 17652, Note_on_c, 0, 59, 79
2, 17662, Note_on_c, 0, 59, 0
2, 17664, Note_on_c, 0, 62, 79
2, 17674, Note_on_c, 0, 62, 0
2, 17676, Note_on_c, 0, 64, 79
2, 17686, Note_on_c, 0, 64, 0
2, 17688, Note_on_c, 0, 68, 79
2, 17698, Note_on_c, 0, 68, 0
2, 17700, Note_on_c, 0, 61, 79
2, 17710, Note_on_c, 0, 61, 0
2, 17712, Note_on_c, 0, 62, 79
2, 17722, Note_on_c, 0, 62, 0
2, 17724, Note_on_c, 0, 64, 79
2, 17734, Note_on_c, 0, 64, 0
2, 17736, Note_on_c, 0, 68, 79
2, 17746, Note_on_c, 0, 68, 0
2, 17748, Note_on_c, 0, 59, 79
2, 17758, Note_on_c, 0, 59, 0
2, 17760, Note_on_c, 0, 62, 79
2, 17770, Note_on_c, 0, 62, 0
2, 17772, Note_on_c, 0, 64, 79
2, 17782, Note_on_c, 0, 64, 0
2, 17784, Note_on_c, 0, 68, 79
2, 17794, Note_on_c, 0, 68, 0
2, 17796, Note_on_c, 0, 61, 79
2, 17806, Note_on_c, 0, 61, 0
2, 17808, Note_on_c, 0, 62, 79
2, 17818, Note_on_c, 0, 62, 0
2, 17820, Note_on_c, 0, 64, 79
2, 17830, Note_on_c, 0, 64, 0
2, 17832, Note_on_c, 0, 68, 79
2, 17842, Note_on_c, 0, 68, 0
2, 17844, Note_on_c, 0, 59, 79
2, 17854, Note_on_c, 0, 59, 0
2, 17856, Note_on_c, 0, 61, 79
2, 17866, Note_on_c, 0, 61, 0
2, 17868, Note_on_c, 0, 64, 79
2, 17878, Note_on_c, 0, 64, 0
2, 17880, Note_on_c, 0, 69, 79
2, 17890, Note_on_c, 0, 69, 0
2, 17892, Note_on_c, 0, 61, 79
2, 17902, Note_on_c, 0, 61, 0
2, 17904, Note_on_c, 0, 62, 79
2, 17914, Note_on_c, 0, 62, 0
2, 17916, Note_on_c, 0, 68, 79
2, 17926, Note_on_c, 0, 68, 0
2, 17928, Note_on_c, 0, 71, 79
2, 17938, Note_on_c, 0, 71, 0
2, 17940, Note_on_c, 0, 62, 79
2, 17950, Note_on_c, 0, 62, 0
2, 17952, Note_on_c, 0, 64, 79
2, 17962, Note_on_c, 0, 64, 0
2, 17964, Note_on_c, 0, 69, 79
2, 17974, Note_on_c, 0, 69, 0
2, 17976, Note_on_c, 0, 73, 79
2, 17986, Note_on_c, 0, 73, 0
2, 17988, Note_on_c, 0, 64, 79
2, 17998, Note_on_c, 0, 64, 0
2, 18000, Note_on_c, 0, 66, 79
2, 18010, Note_on_c, 0, 66, 0
2, 18012, Note_on_c, 0, 69, 79
2, 18022, Note_on_c, 0, 69, 0
2, 18024, Note_on_c, 0, 74, 79
2, 18034, Note_on_c, 0, 74, 0
2, 18036, Note_on_c, 0, 66, 79
2, 18046, Note_on_c, 0, 66, 0
2, 18048, Note_on_c, 0, 68, 79
2, 18058, Note_on_c, 0, 68, 0
2, 18060, Note_on_c, 0, 71, 79
2, 18070, Note_on_c, 0, 71, 0
2, 18072, Note_on_c, 0, 74, 79
2, 18082, Note_on_c, 0, 74, 0
2, 18084, Note_on_c, 0, 66, 79
2, 18094, Note_on_c, 0, 66, 0
2, 18096, Note_on_c, 0, 68, 79
2, 18106, Note_on_c, 0, 68, 0
2, 18108, Note_on_c, 0, 71, 79
2, 18118, Note_on_c, 0, 71, 0
2, 18120, Note_on_c, 0, 74, 79
2, 18130, Note_on_c, 0, 74, 0
2, 18132, Note_on_c, 0, 64, 79
2, 18142, Note_on_c, 0, 64, 0
2, 18144, Note_on_c, 0, 68, 79
2, 18154, Note_on_c, 0, 68, 0
2, 18156, Note_on_c, 0, 71, 79
2, 18166, Note_on_c, 0, 71, 0
2, 18168, Note_on_c, 0, 74, 79
2, 18178, Note_on_c, 0, 74, 0
2, 18180, Note_on_c, 0, 66, 79
2, 18190, Note_on_c, 0, 66, 0
2, 18192, Note_on_c, 0, 68, 79
2, 18202, Note_on_c, 0, 68, 0
2, 18204, Note_on_c, 0, 71, 79
2, 18214, Note_on_c, 0, 71, 0
2, 18216, Note_on_c, 0, 74, 79
2, 18226, Note_on_c, 0, 74, 0
2, 18228, Note_on_c, 0, 64, 79
2, 18238, Note_on_c, 0, 64, 0
2, 18240, Note_on_c, 0, 69, 79
2, 18250, Note_on_c, 0, 69, 0
2, 18252, Note_on_c, 0, 71, 79
2, 18262, Note_on_c, 0, 71, 0
2, 18264, Note_on_c, 0, 72, 79
2, 18274, Note_on_c, 0, 72, 0
2, 18276, Note_on_c, 0, 68, 79
2, 18286, Note_on_c, 0, 68, 0
2, 18288, Note_on_c, 0, 69, 79
2, 18298, Note_on_c, 0, 69, 0
2, 18300, Note_on_c, 0, 71, 79
2, 18310, Note_on_c, 0, 71, 0
2, 18312, Note_on_c, 0, 72, 79
2, 18322, Note_on_c, 0, 72, 0
2, 18324, Note_on_c, 0, 63, 79
2, 18334, Note_on_c, 0, 63, 0
2, 18336, Note_on_c, 0, 69, 79
2, 18346, Note_on_c, 0, 69, 0
2, 18348, Note_on_c, 0, 71, 79
2, 18358, Note_on_c, 0, 71, 0
2, 18360, Note_on_c, 0, 72, 79
2, 18370, Note_on_c, 0, 72, 0
2, 18372, Note_on_c, 0, 68, 79
2, 18382, Note_on_c, 0, 68, 0
2, 18384, Note_on_c, 0, 69, 79
2, 18394, Note_on_c, 0, 69, 0
2, 18396, Note_on_c, 0, 71, 79
2, 18406, Note_on_c, 0, 71, 0
2, 18408, Note_on_c, 0, 72, 79
2, 18418, Note_on_c, 0, 72, 0
2, 18420, Note_on_c, 0, 63, 79
2, 18430, Note_on_c, 0, 63, 0
2, 18432, Note_on_c, 0, 65, 79
2, 18442, Note_on_c, 0, 65, 0
2, 18444, Note_on_c, 0, 68, 79
2, 18454, Note_on_c, 0, 68, 0
2, 18456, Note_on_c, 0, 71, 79
2, 18466, Note_on_c, 0, 71, 0
2, 18468, Note_on_c, 0, 64, 79
2, 18478, Note_on_c, 0, 64, 0
2, 18480, Note_on_c, 0, 65, 79
2, 18490, Note_on_c, 0, 65, 0
2, 18492, Note_on_c, 0, 68, 79
2, 18502, Note_on_c, 0, 68, 0
2, 18504, Note_on_c, 0, 71, 79
2, 18514, Note_on_c, 0, 71, 0
2, 18516, Note_on_c, 0, 62, 79
2, 18526, Note_on_c, 0, 62, 0
2, 18528, Note_on_c, 0, 65, 79
2, 18538, Note_on_c, 0, 65, 0
2, 18540, Note_on_c, 0, 68, 79
2, 18550, Note_on_c, 0, 68, 0
2, 18552, Note_on_c, 0, 71, 79
2, 18562, Note_on_c, 0, 71, 0
2, 18564, Note_on_c, 0, 64, 79
2, 18574, Note_on_c, 0, 64, 0
2, 18576, Note_on_c, 0, 65, 79
2, 18586, Note_on_c, 0, 65, 0
2, 18588, Note_on_c, 0, 68, 79
2, 18598, Note_on_c, 0, 68, 0
2, 18600, Note_on_c, 0, 71, 79
2, 18610, Note_on_c, 0, 71, 0
2, 18612, Note_on_c, 0, 62, 79
2, 18622, Note_on_c, 0, 62, 0
2, 18624, Note_on_c, 0, 64, 79
2, 18634, Note_on_c, 0, 64, 0
2, 18636, Note_on_c, 0, 68, 79
2, 18646, Note_on_c, 0, 68, 0
2, 18648, Note_on_c, 0, 69, 79
2, 18658, Note_on_c, 0, 69, 0
2, 18660, Note_on_c, 0, 63, 79
2, 18670, Note_on_c, 0, 63, 0
2, 18672, Note_on_c, 0, 64, 79
2, 18682, Note_on_c, 0, 64, 0
2, 18684, Note_on_c, 0, 68, 79
2, 18694, Note_on_c, 0, 68, 0
2, 18696, Note_on_c, 0, 69, 79
2, 18706, Note_on_c, 0, 69, 0
2, 18708, Note_on_c, 0, 60, 79
2, 18718, Note_on_c, 0, 60, 0
2, 18720, Note_on_c, 0, 64, 79
2, 18730, Note_on_c, 0, 64, 0
2, 18732, Note_on_c, 0, 68, 79
2, 18742, Note_on_c, 0, 68, 0
2, 18744, Note_on_c, 0, 69, 79
2, 18754, Note_on_c, 0, 69, 0
2, 18756, Note_on_c, 0, 63, 79
2, 18766, Note_on_c, 0, 63, 0
2, 18768, Note_on_c, 0, 64, 79
2, 18778, Note_on_c, 0, 64, 0
2, 18780, Note_on_c, 0, 68, 79
2, 18790, Note_on_c, 0, 68, 0
2, 18792, Note_on_c, 0, 69, 79
2, 18802, Note_on_c, 0, 69, 0
2, 18804, Note_on_c, 0, 60, 79
2, 18814, Note_on_c, 0, 60, 0
2, 18816, Note_on_c, 0, 62, 79
2, 18826, Note_on_c, 0, 62, 0
2, 18828, Note_on_c, 0, 68, 79
2, 18838, Note_on_c, 0, 68, 0
2, 18840, Note_on_c, 0, 69, 79
2, 18850, Note_on_c, 0, 69, 0
2, 18852, Note_on_c, 0, 60, 79
2, 18862, Note_on_c, 0, 60, 0
2, 18864, Note_on_c, 0, 62, 79
2, 18874, Note_on_c, 0, 62, 0
2, 18876, Note_on_c, 0, 68, 79
2, 18886, Note_on_c, 0, 68, 0
2, 18888, Note_on_c, 0, 69, 79
2, 18898, Note_on_c, 0, 69, 0
2, 18900, Note_on_c, 0, 59, 79
2, 18910, Note_on_c, 0, 59, 0
2, 18912, Note_on_c, 0, 62, 79
2, 18922, Note_on_c, 0, 62, 0
2, 18924, Note_on_c, 0, 68, 79
2, 18934, Note_on_c, 0, 68, 0
2, 18936, Note_on_c, 0, 69, 79
2, 18946, Note_on_c, 0, 69, 0
2, 18948, Note_on_c, 0, 60, 79
2, 18958, Note_on_c, 0, 60, 0
2, 18960, Note_on_c, 0, 62, 79
2, 18970, Note_on_c, 0, 62, 0
2, 18972, Note_on_c, 0, 68, 79
2, 18982, Note_on_c, 0, 68, 0
2, 18984, Note_on_c, 0, 69, 79
2, 18994, Note_on_c, 0, 69, 0
2, 18996, Note_on_c, 0, 59, 79
2, 19006, Note_on_c, 0, 59, 0
2, 19008, Note_on_c, 0, 62, 79
2, 19018, Note_on_c, 0, 62, 0
2, 19020, Note_on_c, 0, 64, 79
2, 19030, Note_on_c, 0, 64, 0
2, 19032, Note_on_c, 0, 68, 79
2, 19042, Note_on_c, 0, 68, 0
2, 19044, Note_on_c, 0, 60, 79
2, 19054, Note_on_c, 0, 60, 0
2, 19056, Note_on_c, 0, 62, 79
2, 19066, Note_on_c, 0, 62, 0
2, 19068, Note_on_c, 0, 64, 79
2, 19078, Note_on_c, 0, 64, 0
2, 19080, Note_on_c, 0, 68, 79
2, 19090, Note_on_c, 0, 68, 0
2, 19092, Note_on_c, 0, 59, 79
2, 19102, Note_on_c, 0, 59, 0
2, 19104, Note_on_c, 0, 62, 79
2, 19114, Note_on_c, 0, 62, 0
2, 19116, Note_on_c, 0, 64, 79
2, 19126, Note_on_c, 0, 64, 0
2, 19128, Note_on_c, 0, 68, 79
2, 19138, Note_on_c, 0, 68, 0
2, 19140, Note_on_c, 0, 60, 79
2, 19150, Note_on_c, 0, 60, 0
2, 19152, Note_on_c, 0, 62, 79
2, 19162, Note_on_c, 0, 62, 0
2, 19164, Note_on_c, 0, 64, 79
2, 19174, Note_on_c, 0, 64, 0
2, 19176, Note_on_c, 0, 68, 79
2, 19186, Note_on_c, 0, 68, 0
2, 19188, Note_on_c, 0, 59, 79
2, 19198, Note_on_c, 0, 59, 0
2, 19200, Note_on_c, 0, 61, 79
2, 19200, Note_on_c, 0, 64, 79
2, 19200, Note_on_c, 0, 69, 79
2, 19240, Note_on_c, 0, 69, 0
2, 19240, Note_on_c, 0, 64, 0
2, 19240, Note_on_c, 0, 61, 0
2, 21036, Note_on_c, 0, 81, 79
2, 21041, Note_on_c, 0, 81, 0
2, 21042, Note_on_c, 0, 79, 79
2, 21047, Note_on_c, 0, 79, 0
2, 21048, Note_on_c, 0, 78, 79
2, 21058, Note_on_c, 0, 78, 0
2, 21060, Note_on_c, 0, 81, 79
2, 21070, Note_on_c, 0, 81, 0
2, 21072, Note_on_c, 0, 76, 79
2, 21082, Note_on_c, 0, 76, 0
2, 21084, Note_on_c, 0, 81, 79
2, 21094, Note_on_c, 0, 81, 0
2, 21096, Note_on_c, 0, 74, 79
2, 21106, Note_on_c, 0, 74, 0
2, 21108, Note_on_c, 0, 81, 79
2, 21118, Note_on_c, 0, 81, 0
2, 21120, Note_on_c, 0, 73, 79
2, 21130, Note_on_c, 0, 73, 0
2, 21132, Note_on_c, 0, 81, 79
2, 21142, Note_on_c, 0, 81, 0
2, 21144, Note_on_c, 0, 74, 79
2, 21154, Note_on_c, 0, 74, 0
2, 21156, Note_on_c, 0, 81, 79
2, 21166, Note_on_c, 0, 81, 0
2, 21168, Note_on_c, 0, 73, 79
2, 21178, Note_on_c, 0, 73, 0
2, 21180, Note_on_c, 0, 81, 79
2, 21190, Note_on_c, 0, 81, 0
2, 21192, Note_on_c, 0, 71, 79
2, 21202, Note_on_c, 0, 71, 0
2, 21204, Note_on_c, 0, 81, 79
2, 21214, Note_on_c, 0, 81, 0
2, 21216, Note_on_c, 0, 69, 79
2, 21236, Note_on_c, 0, 69, 0
2, 21240, Note_on_c, 0, 73, 79
2, 21247, Note_on_c, 0, 73, 0
2, 21248, Note_on_c, 0, 71, 79
2, 21255, Note_on_c, 0, 71, 0
2, 21256, Note_on_c, 0, 73, 79
2, 21263, Note_on_c, 0, 73, 0
2, 21264, Note_on_c, 0, 74, 79
2, 21271, Note_on_c, 0, 74, 0
2, 21272, Note_on_c, 0, 73, 79
2, 21279, Note_on_c, 0, 73, 0
2, 21280, Note_on_c, 0, 74, 79
2, 21287, Note_on_c, 0, 74, 0
2, 21288, Note_on_c, 0, 76, 79
2, 21295, Note_on_c, 0, 76, 0
2, 21296, Note_on_c, 0, 74, 79
2, 21303, Note_on_c, 0, 74, 0
2, 21304, Note_on_c, 0, 76, 79
2, 21311, Note_on_c, 0, 76, 0
2, 21312, Note_on_c, 0, 78, 79
2, 21322, Note_on_c, 0, 78, 0
2, 21324, Note_on_c, 0, 76, 79
2, 21334, Note_on_c, 0, 76, 0
2, 21336, Note_on_c, 0, 74, 79
2, 21346, Note_on_c, 0, 74, 0
2, 21348, Note_on_c, 0, 76, 79
2, 21358, Note_on_c, 0, 76, 0
2, 21360, Note_on_c, 0, 78, 79
2, 21370, Note_on_c, 0, 78, 0
2, 21372, Note_on_c, 0, 79, 79
2, 21382, Note_on_c, 0, 79, 0
2, 21384, Note_on_c, 0, 81, 79
2, 21394, Note_on_c, 0, 81, 0
2, 21396, Note_on_c, 0, 83, 79
2, 21406, Note_on_c, 0, 83, 0
2, 21408, Note_on_c, 0, 76, 79
2, 21418, Note_on_c, 0, 76, 0
2, 21420, Note_on_c, 0, 78, 79
2, 21430, Note_on_c, 0, 78, 0
2, 21432, Note_on_c, 0, 76, 79
2, 21442, Note_on_c, 0, 76, 0
2, 21444, Note_on_c, 0, 74, 79
2, 21454, Note_on_c, 0, 74, 0
2, 21456, Note_on_c, 0, 73, 79
2, 21466, Note_on_c, 0, 73, 0
2, 21468, Note_on_c, 0, 71, 79
2, 21478, Note_on_c, 0, 71, 0
2, 21480, Note_on_c, 0, 69, 79
2, 21490, Note_on_c, 0, 69, 0
2, 21492, Note_on_c, 0, 67, 79
2, 21502, Note_on_c, 0, 67, 0
2, 21504, Note_on_c, 0, 66, 79
2, 21514, Note_on_c, 0, 66, 0
2, 21516, Note_on_c, 0, 64, 79
2, 21526, Note_on_c, 0, 64, 0
2, 21528, Note_on_c, 0, 66, 79
2, 21538, Note_on_c, 0, 66, 0
2, 21540, Note_on_c, 0, 69, 79
2, 21550, Note_on_c, 0, 69, 0
2, 21552, Note_on_c, 0, 64, 79
2, 21562, Note_on_c, 0, 64, 0
2, 21564, Note_on_c, 0, 69, 79
2, 21574, Note_on_c, 0, 69, 0
2, 21576, Note_on_c, 0, 62, 79
2, 21586, Note_on_c, 0, 62, 0
2, 21588, Note_on_c, 0, 69, 79
2, 21598, Note_on_c, 0, 69, 0
2, 21600, Note_on_c, 0, 61, 79
2, 21610, Note_on_c, 0, 61, 0
2, 21612, Note_on_c, 0, 69, 79
2, 21622, Note_on_c, 0, 69, 0
2, 21624, Note_on_c, 0, 62, 79
2, 21634, Note_on_c, 0, 62, 0
2, 21636, Note_on_c, 0, 69, 79
2, 21646, Note_on_c, 0, 69, 0
2, 21648, Note_on_c, 0, 61, 79
2, 21658, Note_on_c, 0, 61, 0
2, 21660, Note_on_c, 0, 69, 79
2, 21670, Note_on_c, 0, 69, 0
2, 21672, Note_on_c, 0, 59, 79
2, 21682, Note_on_c, 0, 59, 0
2, 21684, Note_on_c, 0, 69, 79
2, 21694, Note_on_c, 0, 69, 0
2, 21696, Note_on_c, 0, 57, 79
2, 21716, Note_on_c, 0, 57, 0
2, 21720, Note_on_c, 0, 61, 79
2, 21727, Note_on_c, 0, 61, 0
2, 21728, Note_on_c, 0, 59, 79
2, 21735, Note_on_c, 0, 59, 0
2, 21736, Note_on_c, 0, 61, 79
2, 21743, Note_on_c, 0, 61, 0
2, 21744, Note_on_c, 0, 62, 79
2, 21751, Note_on_c, 0, 62, 0
2, 21752, Note_on_c, 0, 61, 79
2, 21759, Note_on_c, 0, 61, 0
2, 21760, Note_on_c, 0, 62, 79
2, 21767, Note_on_c, 0, 62, 0
2, 21768, Note_on_c, 0, 64, 79
2, 21775, Note_on_c, 0, 64, 0
2, 21776, Note_on_c, 0, 62, 79
2, 21783, Note_on_c, 0, 62, 0
2, 21784, Note_on_c, 0, 64, 79
2, 21791, Note_on_c, 0, 64, 0
2, 21792, Note_on_c, 0, 66, 79
2, 21802, Note_on_c, 0, 66, 0
2, 21804, Note_on_c, 0, 64, 79
2, 21814, Note_on_c, 0, 64, 0
2, 21816, Note_on_c, 0, 62, 79
2, 21826, Note_on_c, 0, 62, 0
2, 21828, Note_on_c, 0, 64, 79
2, 21838, Note_on_c, 0, 64, 0
2, 21840, Note_on_c, 0, 66, 79
2, 21850, Note_on_c, 0, 66, 0
2, 21852, Note_on_c, 0, 67, 79
2, 21862, Note_on_c, 0, 67, 0
2, 21864, Note_on_c, 0, 69, 79
2, 21874, Note_on_c, 0, 69, 0
2, 21876, Note_on_c, 0, 71, 79
2, 21886, Note_on_c, 0, 71, 0
2, 21888, Note_on_c, 0, 73, 79
2, 21898, Note_on_c, 0, 73, 0
2, 21900, Note_on_c, 0, 74, 79
2, 21910, Note_on_c, 0, 74, 0
2, 21912, Note_on_c, 0, 73, 79
2, 21922, Note_on_c, 0, 73, 0
2, 21924, Note_on_c, 0, 71, 79
2, 21934, Note_on_c, 0, 71, 0
2, 21936, Note_on_c, 0, 69, 79
2, 21946, Note_on_c, 0, 69, 0
2, 21948, Note_on_c, 0, 67, 79
2, 21958, Note_on_c, 0, 67, 0
2, 21960, Note_on_c, 0, 66, 79
2, 21970, Note_on_c, 0, 66, 0
2, 21972, Note_on_c, 0, 64, 79
2, 21982, Note_on_c, 0, 64, 0
2, 21984, Note_on_c, 0, 62, 79
2, 21994, Note_on_c, 0, 62, 0
2, 21996, Note_on_c, 0, 79, 79
2, 22006, Note_on_c, 0, 79, 0
2, 22008, Note_on_c, 0, 78, 79
2, 22018, Note_on_c, 0, 78, 0
2, 22020, Note_on_c, 0, 76, 79
2, 22030, Note_on_c, 0, 76, 0
2, 22032, Note_on_c, 0, 74, 79
2, 22042, Note_on_c, 0, 74, 0
2, 22044, Note_on_c, 0, 72, 79
2, 22054, Note_on_c, 0, 72, 0
2, 22056, Note_on_c, 0, 71, 79
2, 22066, Note_on_c, 0, 71, 0
2, 22068, Note_on_c, 0, 69, 79
2, 22078, Note_on_c, 0, 69, 0
2, 22080, Note_on_c, 0, 67, 79
2, 22090, Note_on_c, 0, 67, 0
2, 22092, Note_on_c, 0, 83, 79
2, 22102, Note_on_c, 0, 83, 0
2, 22104, Note_on_c, 0, 81, 79
2, 22114, Note_on_c, 0, 81, 0
2, 22116, Note_on_c, 0, 83, 79
2, 22126, Note_on_c, 0, 83, 0
2, 22128, Note_on_c, 0, 79, 79
2, 22138, Note_on_c, 0, 79, 0
2, 22140, Note_on_c, 0, 83, 79
2, 22150, Note_on_c, 0, 83, 0
2, 22152, Note_on_c, 0, 78, 79
2, 22162, Note_on_c, 0, 78, 0
2, 22164, Note_on_c, 0, 83, 79
2, 22174, Note_on_c, 0, 83, 0
2, 22176, Note_on_c, 0, 76, 79
2, 22186, Note_on_c, 0, 76, 0
2, 22188, Note_on_c, 0, 83, 79
2, 22198, Note_on_c, 0, 83, 0
2, 22200, Note_on_c, 0, 74, 79
2, 22210, Note_on_c, 0, 74, 0
2, 22212, Note_on_c, 0, 83, 79
2, 22222, Note_on_c, 0, 83, 0
2, 22224, Note_on_c, 0, 73, 79
2, 22234, Note_on_c, 0, 73, 0
2, 22236, Note_on_c, 0, 83, 79
2, 22246, Note_on_c, 0, 83, 0
2, 22248, Note_on_c, 0, 71, 79
2, 22258, Note_on_c, 0, 71, 0
2, 22260, Note_on_c, 0, 83, 79
2, 22270, Note_on_c, 0, 83, 0
2, 22272, Note_on_c, 0, 69, 79
2, 22282, Note_on_c, 0, 69, 0
2, 22284, Note_on_c, 0, 81, 79
2, 22294, Note_on_c, 0, 81, 0
2, 22296, Note_on_c, 0, 79, 79
2, 22306, Note_on_c, 0, 79, 0
2, 22308, Note_on_c, 0, 81, 79
2, 22318, Note_on_c, 0, 81, 0
2, 22320, Note_on_c, 0, 78, 79
2, 22330, Note_on_c, 0, 78, 0
2, 22332, Note_on_c, 0, 81, 79
2, 22342, Note_on_c, 0, 81, 0
2, 22344, Note_on_c, 0, 76, 79
2, 22354, Note_on_c, 0, 76, 0
2, 22356, Note_on_c, 0, 81, 79
2, 22366, Note_on_c, 0, 81, 0
2, 22368, Note_on_c, 0, 74, 79
2, 22378, Note_on_c, 0, 74, 0
2, 22380, Note_on_c, 0, 81, 79
2, 22390, Note_on_c, 0, 81, 0
2, 22392, Note_on_c, 0, 73, 79
2, 22402, Note_on_c, 0, 73, 0
2, 22404, Note_on_c, 0, 81, 79
2, 22414, Note_on_c, 0, 81, 0
2, 22416, Note_on_c, 0, 71, 79
2, 22426, Note_on_c, 0, 71, 0
2, 22428, Note_on_c, 0, 81, 79
2, 22438, Note_on_c, 0, 81, 0
2, 22440, Note_on_c, 0, 69, 79
2, 22450, Note_on_c, 0, 69, 0
2, 22452, Note_on_c, 0, 81, 79
2, 22462, Note_on_c, 0, 81, 0
2, 22464, Note_on_c, 0, 67, 79
2, 22474, Note_on_c, 0, 67, 0
2, 22476, Note_on_c, 0, 79, 79
2, 22486, Note_on_c, 0, 79, 0
2, 22488, Note_on_c, 0, 78, 79
2, 22498, Note_on_c, 0, 78, 0
2, 22500, Note_on_c, 0, 79, 79
2, 22510, Note_on_c, 0, 79, 0
2, 22512, Note_on_c, 0, 76, 79
2, 22522, Note_on_c, 0, 76, 0
2, 22524, Note_on_c, 0, 79, 79
2, 22534, Note_on_c, 0, 79, 0
2, 22536, Note_on_c, 0, 74, 79
2, 22546, Note_on_c, 0, 74, 0
2, 22548, Note_on_c, 0, 79, 79
2, 22558, Note_on_c, 0, 79, 0
2, 22560, Note_on_c, 0, 73, 79
2, 22570, Note_on_c, 0, 73, 0
2, 22572, Note_on_c, 0, 74, 79
2, 22582, Note_on_c, 0, 74, 0
2, 22584, Note_on_c, 0, 76, 79
2, 22594, Note_on_c, 0, 76, 0
2, 22596, Note_on_c, 0, 73, 79
2, 22606, Note_on_c, 0, 73, 0
2, 22608, Note_on_c, 0, 69, 79
2, 22618, Note_on_c, 0, 69, 0
2, 22620, Note_on_c, 0, 71, 79
2, 22630, Note_on_c, 0, 71, 0
2, 22632, Note_on_c, 0, 73, 79
2, 22642, Note_on_c, 0, 73, 0
2, 22644, Note_on_c, 0, 69, 79
2, 22654, Note_on_c, 0, 69, 0
2, 22656, Note_on_c, 0, 78, 79
2, 22666, Note_on_c, 0, 78, 0
2, 22668, Note_on_c, 0, 74, 79
2, 22678, Note_on_c, 0, 74, 0
2, 22680, Note_on_c, 0, 73, 79
2, 22690, Note_on_c, 0, 73, 0
2, 22692, Note_on_c, 0, 71, 79
2, 22702, Note_on_c, 0, 71, 0
2, 22704, Note_on_c, 0, 69, 79
2, 22714, Note_on_c, 0, 69, 0
2, 22716, Note_on_c, 0, 71, 79
2, 22726, Note_on_c, 0, 71, 0
2, 22728, Note_on_c, 0, 72, 79
2, 22738, Note_on_c, 0, 72, 0
2, 22740, Note_on_c, 0, 69, 79
2, 22750, Note_on_c, 0, 69, 0
2, 22752, Note_on_c, 0, 71, 79
2, 22762, Note_on_c, 0, 71, 0
2, 22764, Note_on_c, 0, 67, 79
2, 22774, Note_on_c, 0, 67, 0
2, 22776, Note_on_c, 0, 74, 79
2, 22786, Note_on_c, 0, 74, 0
2, 22788, Note_on_c, 0, 66, 79
2, 22798, Note_on_c, 0, 66, 0
2, 22800, Note_on_c, 0, 67, 79
2, 22810, Note_on_c, 0, 67, 0
2, 22812, Note_on_c, 0, 69, 79
2, 22822, Note_on_c, 0, 69, 0
2, 22824, Note_on_c, 0, 71, 79
2, 22834, Note_on_c, 0, 71, 0
2, 22836, Note_on_c, 0, 67, 79
2, 22846, Note_on_c, 0, 67, 0
2, 22848, Note_on_c, 0, 64, 79
2, 22858, Note_on_c, 0, 64, 0
2, 22860, Note_on_c, 0, 69, 79
2, 22870, Note_on_c, 0, 69, 0
2, 22872, Note_on_c, 0, 67, 79
2, 22882, Note_on_c, 0, 67, 0
2, 22884, Note_on_c, 0, 69, 79
2, 22894, Note_on_c, 0, 69, 0
2, 22896, Note_on_c, 0, 62, 79
2, 22906, Note_on_c, 0, 62, 0
2, 22908, Note_on_c, 0, 74, 79
2, 22918, Note_on_c, 0, 74, 0
2, 22920, Note_on_c, 0, 73, 79
2, 22930, Note_on_c, 0, 73, 0
2, 22932, Note_on_c, 0, 71, 79
2, 22942, Note_on_c, 0, 71, 0
2, 22944, Note_on_c, 0, 69, 79
2, 22954, Note_on_c, 0, 69, 0
2, 22956, Note_on_c, 0, 67, 79
2, 22966, Note_on_c, 0, 67, 0
2, 22968, Note_on_c, 0, 66, 79
2, 22978, Note_on_c, 0, 66, 0
2, 22980, Note_on_c, 0, 69, 79
2, 22990, Note_on_c, 0, 69, 0
2, 22992, Note_on_c, 0, 67, 79
2, 23002, Note_on_c, 0, 67, 0
2, 23004, Note_on_c, 0, 66, 79
2, 23014, Note_on_c, 0, 66, 0
2, 23016, Note_on_c, 0, 64, 79
2, 23026, Note_on_c, 0, 64, 0
2, 23028, Note_on_c, 0, 67, 79
2, 23038, Note_on_c, 0, 67, 0
2, 23040, Note_on_c, 0, 66, 79
2, 23060, Note_on_c, 0, 66, 0
2, 23064, Note_on_c, 0, 62, 79
2, 23084, Note_on_c, 0, 62, 0
2, 23868, Note_on_c, 0, 74, 95
2, 23878, Note_on_c, 0, 74, 0
2, 23880, Note_on_c, 0, 73, 95
2, 23890, Note_on_c, 0, 73, 0
2, 23892, Note_on_c, 0, 71, 95
2, 23902, Note_on_c, 0, 71, 0
2, 23904, Note_on_c, 0, 69, 95
2, 23914, Note_on_c, 0, 69, 0
2, 23916, Note_on_c, 0, 66, 95
2, 23926, Note_on_c, 0, 66, 0
2, 23928, Note_on_c, 0, 67, 95
2, 23938, Note_on_c, 0, 67, 0
2, 23940, Note_on_c, 0, 71, 95
2, 23950, Note_on_c, 0, 71, 0
2, 23952, Note_on_c, 0, 69, 95
2, 23962, Note_on_c, 0, 69, 0
2, 23964, Note_on_c, 0, 66, 95
2, 23974, Note_on_c, 0, 66, 0
2, 23976, Note_on_c, 0, 67, 95
2, 23986, Note_on_c, 0, 67, 0
2, 23988, Note_on_c, 0, 69, 95
2, 23998, Note_on_c, 0, 69, 0
2, 24000, Note_on_c, 0, 71, 95
2, 24020, Note_on_c, 0, 71, 0
2, 24024, Note_on_c, 0, 69, 95
2, 24044, Note_on_c, 0, 69, 0
2, 24204, Note_on_c, 0, 62, 95
2, 24214, Note_on_c, 0, 62, 0
2, 24216, Note_on_c, 0, 64, 95
2, 24226, Note_on_c, 0, 64, 0
2, 24228, Note_on_c, 0, 66, 95
2, 24238, Note_on_c, 0, 66, 0
2, 24240, Note_on_c, 0, 67, 95
2, 24250, Note_on_c, 0, 67, 0
2, 24252, Note_on_c, 0, 69, 95
2, 24262, Note_on_c, 0, 69, 0
2, 24264, Note_on_c, 0, 71, 95
2, 24274, Note_on_c, 0, 71, 0
2, 24276, Note_on_c, 0, 72, 95
2, 24286, Note_on_c, 0, 72, 0
2, 24288, Note_on_c, 0, 71, 95
2, 24298, Note_on_c, 0, 71, 0
2, 24300, Note_on_c, 0, 69, 95
2, 24310, Note_on_c, 0, 69, 0
2, 24312, Note_on_c, 0, 62, 95
2, 24322, Note_on_c, 0, 62, 0
2, 24324, Note_on_c, 0, 64, 95
2, 24334, Note_on_c, 0, 64, 0
2, 24336, Note_on_c, 0, 66, 95
2, 24346, Note_on_c, 0, 66, 0
2, 24348, Note_on_c, 0, 62, 95
2, 24358, Note_on_c, 0, 62, 0
2, 24360, Note_on_c, 0, 64, 95
2, 24370, Note_on_c, 0, 64, 0
2, 24372, Note_on_c, 0, 67, 95
2, 24382, Note_on_c, 0, 67, 0
2, 24384, Note_on_c, 0, 66, 95
2, 24394, Note_on_c, 0, 66, 0
2, 24396, Note_on_c, 0, 69, 95
2, 24406, Note_on_c, 0, 69, 0
2, 24408, Note_on_c, 0, 71, 95
2, 24418, Note_on_c, 0, 71, 0
2, 24420, Note_on_c, 0, 67, 95
2, 24430, Note_on_c, 0, 67, 0
2, 24432, Note_on_c, 0, 69, 95
2, 24442, Note_on_c, 0, 69, 0
2, 24444, Note_on_c, 0, 72, 95
2, 24454, Note_on_c, 0, 72, 0
2, 24456, Note_on_c, 0, 71, 95
2, 24466, Note_on_c, 0, 71, 0
2, 24468, Note_on_c, 0, 69, 95
2, 24478, Note_on_c, 0, 69, 0
2, 24480, Note_on_c, 0, 67, 95
2, 24490, Note_on_c, 0, 67, 0
2, 24492, Note_on_c, 0, 64, 95
2, 24502, Note_on_c, 0, 64, 0
2, 24504, Note_on_c, 0, 69, 95
2, 24514, Note_on_c, 0, 69, 0
2, 24516, Note_on_c, 0, 71, 95
2, 24526, Note_on_c, 0, 71, 0
2, 24528, Note_on_c, 0, 73, 95
2, 24538, Note_on_c, 0, 73, 0
2, 24540, Note_on_c, 0, 74, 95
2, 24550, Note_on_c, 0, 74, 0
2, 24552, Note_on_c, 0, 76, 95
2, 24562, Note_on_c, 0, 76, 0
2, 24564, Note_on_c, 0, 73, 95
2, 24574, Note_on_c, 0, 73, 0
2, 24576, Note_on_c, 0, 69, 95
2, 24586, Note_on_c, 0, 69, 0
2, 24588, Note_on_c, 0, 74, 95
2, 24598, Note_on_c, 0, 74, 0
2, 24600, Note_on_c, 0, 62, 95
2, 24610, Note_on_c, 0, 62, 0
2, 24612, Note_on_c, 0, 66, 95
2, 24622, Note_on_c, 0, 66, 0
2, 24624, Note_on_c, 0, 64, 95
2, 24634, Note_on_c, 0, 64, 0
2, 24636, Note_on_c, 0, 61, 95
2, 24646, Note_on_c, 0, 61, 0
2, 24648, Note_on_c, 0, 62, 95
2, 24658, Note_on_c, 0, 62, 0
2, 24660, Note_on_c, 0, 64, 95
2, 24670, Note_on_c, 0, 64, 0
2, 24672, Note_on_c, 0, 66, 95
2, 24692, Note_on_c, 0, 66, 0
2, 24696, Note_on_c, 0, 64, 95
2, 24716, Note_on_c, 0, 64, 0
2, 24876, Note_on_c, 0, 69, 95
2, 24886, Note_on_c, 0, 69, 0
2, 24888, Note_on_c, 0, 71, 95
2, 24898, Note_on_c, 0, 71, 0
2, 24900, Note_on_c, 0, 73, 95
2, 24910, Note_on_c, 0, 73, 0
2, 24912, Note_on_c, 0, 74, 95
2, 24922, Note_on_c, 0, 74, 0
2, 24924, Note_on_c, 0, 76, 95
2, 24934, Note_on_c, 0, 76, 0
2, 24936, Note_on_c, 0, 78, 95
2, 24946, Note_on_c, 0, 78, 0
2, 24948, Note_on_c, 0, 79, 95
2, 24958, Note_on_c, 0, 79, 0
2, 24960, Note_on_c, 0, 78, 95
2, 24970, Note_on_c, 0, 78, 0
2, 24972, Note_on_c, 0, 76, 95
2, 24982, Note_on_c, 0, 76, 0
2, 24984, Note_on_c, 0, 57, 95
2, 24994, Note_on_c, 0, 57, 0
2, 24996, Note_on_c, 0, 59, 95
2, 25006, Note_on_c, 0, 59, 0
2, 25008, Note_on_c, 0, 61, 95
2, 25018, Note_on_c, 0, 61, 0
2, 25020, Note_on_c, 0, 57, 95
2, 25030, Note_on_c, 0, 57, 0
2, 25032, Note_on_c, 0, 59, 95
2, 25042, Note_on_c, 0, 59, 0
2, 25044, Note_on_c, 0, 62, 95
2, 25054, Note_on_c, 0, 62, 0
2, 25056, Note_on_c, 0, 61, 95
2, 25066, Note_on_c, 0, 61, 0
2, 25068, Note_on_c, 0, 64, 95
2, 25078, Note_on_c, 0, 64, 0
2, 25080, Note_on_c, 0, 66, 95
2, 25090, Note_on_c, 0, 66, 0
2, 25092, Note_on_c, 0, 62, 95
2, 25102, Note_on_c, 0, 62, 0
2, 25104, Note_on_c, 0, 64, 95
2, 25114, Note_on_c, 0, 64, 0
2, 25116, Note_on_c, 0, 67, 95
2, 25126, Note_on_c, 0, 67, 0
2, 25128, Note_on_c, 0, 66, 95
2, 25138, Note_on_c, 0, 66, 0
2, 25140, Note_on_c, 0, 64, 95
2, 25150, Note_on_c, 0, 64, 0
2, 25152, Note_on_c, 0, 62, 95
2, 25162, Note_on_c, 0, 62, 0
2, 25164, Note_on_c, 0, 59, 95
2, 25174, Note_on_c, 0, 59, 0
2, 25176, Note_on_c, 0, 64, 95
2, 25186, Note_on_c, 0, 64, 0
2, 25188, Note_on_c, 0, 66, 95
2, 25198, Note_on_c, 0, 66, 0
2, 25200, Note_on_c, 0, 67, 95
2, 25210, Note_on_c, 0, 67, 0
2, 25212, Note_on_c, 0, 69, 95
2, 25222, Note_on_c, 0, 69, 0
2, 25224, Note_on_c, 0, 67, 95
2, 25234, Note_on_c, 0, 67, 0
2, 25236, Note_on_c, 0, 66, 95
2, 25246, Note_on_c, 0, 66, 0
2, 25248, Note_on_c, 0, 64, 95
2, 25258, Note_on_c, 0, 64, 0
2, 25260, Note_on_c, 0, 61, 95
2, 25270, Note_on_c, 0, 61, 0
2, 25272, Note_on_c, 0, 62, 95
2, 25282, Note_on_c, 0, 62, 0
2, 25284, Note_on_c, 0, 64, 95
2, 25294, Note_on_c, 0, 64, 0
2, 25296, Note_on_c, 0, 66, 95
2, 25306, Note_on_c, 0, 66, 0
2, 25308, Note_on_c, 0, 62, 95
2, 25318, Note_on_c, 0, 62, 0
2, 25320, Note_on_c, 0, 64, 95
2, 25330, Note_on_c, 0, 64, 0
2, 25332, Note_on_c, 0, 66, 95
2, 25342, Note_on_c, 0, 66, 0
2, 25344, Note_on_c, 0, 62, 95
2, 25364, Note_on_c, 0, 62, 0
2, 25368, Note_on_c, 0, 74, 95
2, 25368, Note_on_c, 0, 79, 95
2, 25368, Note_on_c, 0, 83, 95
2, 25388, Note_on_c, 0, 83, 0
2, 25388, Note_on_c, 0, 79, 0
2, 25388, Note_on_c, 0, 74, 0
2, 25392, Note_on_c, 0, 76, 95
2, 25392, Note_on_c, 0, 71, 95
2, 25392, Note_on_c, 0, 79, 95
2, 25412, Note_on_c, 0, 79, 0
2, 25412, Note_on_c, 0, 71, 0
2, 25412, Note_on_c, 0, 76, 0
2, 25416, Note_on_c, 0, 71, 95
2, 25416, Note_on_c, 0, 67, 95
2, 25416, Note_on_c, 0, 76, 95
2, 25436, Note_on_c, 0, 76, 0
2, 25436, Note_on_c, 0, 67, 0
2, 25436, Note_on_c, 0, 71, 0
2, 25464, Note_on_c, 0, 78, 95
2, 25464, Note_on_c, 0, 73, 95
2, 25464, Note_on_c, 0, 81, 95
2, 25484, Note_on_c, 0, 81, 0
2, 25484, Note_on_c, 0, 73, 0
2, 25484, Note_on_c, 0, 78, 0
2, 25488, Note_on_c, 0, 74, 95
2, 25488, Note_on_c, 0, 69, 95
2, 25488, Note_on_c, 0, 78, 95
2, 25508, Note_on_c, 0, 78, 0
2, 25508, Note_on_c, 0, 69, 0
2, 25508, Note_on_c, 0, 74, 0
2, 25512, Note_on_c, 0, 69, 95
2, 25512, Note_on_c, 0, 66, 95
2, 25512, Note_on_c, 0, 74, 95
2, 25532, Note_on_c, 0, 74, 0
2, 25532, Note_on_c, 0, 66, 0
2, 25532, Note_on_c, 0, 69, 0
2, 25560, Note_on_c, 0, 76, 95
2, 25560, Note_on_c, 0, 71, 95
2, 25560, Note_on_c, 0, 79, 95
2, 25580, Note_on_c, 0, 79, 0
2, 25580, Note_on_c, 0, 71, 0
2, 25580, Note_on_c, 0, 76, 0
2, 25584, Note_on_c, 0, 73, 95
2, 25584, Note_on_c, 0, 67, 95
2, 25584, Note_on_c, 0, 76, 95
2, 25604, Note_on_c, 0, 76, 0
2, 25604, Note_on_c, 0, 67, 0
2, 25604, Note_on_c, 0, 73, 0
2, 25608, Note_on_c, 0, 69, 95
2, 25608, Note_on_c, 0, 64, 95
2, 25608, Note_on_c, 0, 73, 95
2, 25628, Note_on_c, 0, 73, 0
2, 25628, Note_on_c, 0, 64, 0
2, 25628, Note_on_c, 0, 69, 0
2, 25632, Note_on_c, 0, 69, 95
2, 25632, Note_on_c, 0, 66, 95
2, 25632, Note_on_c, 0, 62, 95
2, 25632, Note_on_c, 0, 74, 95
2, 25672, Note_on_c, 0, 74, 0
2, 25672, Note_on_c, 0, 69, 0
2, 25672, Note_on_c, 0, 66, 0
2, 25672, Note_on_c, 0, 62, 0
2, 26640, Note_on_c, 0, 62, 95
2, 26645, Note_on_c, 0, 62, 0
2, 26646, Note_on_c, 0, 64, 95
2, 26651, Note_on_c, 0, 64, 0
2, 26652, Note_on_c, 0, 66, 95
2, 26657, Note_on_c, 0, 66, 0
2, 26658, Note_on_c, 0, 67, 95
2, 26663, Note_on_c, 0, 67, 0
2, 26664, Note_on_c, 0, 69, 95
2, 26669, Note_on_c, 0, 69, 0
2, 26670, Note_on_c, 0, 71, 95
2, 26675, Note_on_c, 0, 71, 0
2, 26676, Note_on_c, 0, 72, 95
2, 26681, Note_on_c, 0, 72, 0
2, 26682, Note_on_c, 0, 69, 95
2, 26687, Note_on_c, 0, 69, 0
2, 26688, Note_on_c, 0, 71, 95
2, 26693, Note_on_c, 0, 71, 0
2, 26694, Note_on_c, 0, 67, 95
2, 26699, Note_on_c, 0, 67, 0
2, 26700, Note_on_c, 0, 66, 95
2, 26705, Note_on_c, 0, 66, 0
2, 26706, Note_on_c, 0, 64, 95
2, 26711, Note_on_c, 0, 64, 0
2, 26712, Note_on_c, 0, 62, 95
2, 26717, Note_on_c, 0, 62, 0
2, 26718, Note_on_c, 0, 60, 95
2, 26723, Note_on_c, 0, 60, 0
2, 26724, Note_on_c, 0, 59, 95
2, 26729, Note_on_c, 0, 59, 0
2, 26730, Note_on_c, 0, 57, 95
2, 26735, Note_on_c, 0, 57, 0
2, 26832, Note_on_c, 0, 64, 95
2, 26837, Note_on_c, 0, 64, 0
2, 26838, Note_on_c, 0, 66, 95
2, 26843, Note_on_c, 0, 66, 0
2, 26844, Note_on_c, 0, 68, 95
2, 26849, Note_on_c, 0, 68, 0
2, 26850, Note_on_c, 0, 69, 95
2, 26855, Note_on_c, 0, 69, 0
2, 26856, Note_on_c, 0, 71, 95
2, 26861, Note_on_c, 0, 71, 0
2, 26862, Note_on_c, 0, 73, 95
2, 26867, Note_on_c, 0, 73, 0
2, 26868, Note_on_c, 0, 74, 95
2, 26873, Note_on_c, 0, 74, 0
2, 26874, Note_on_c, 0, 71, 95
2, 26879, Note_on_c, 0, 71, 0
2, 26880, Note_on_c, 0, 73, 95
2, 26885, Note_on_c, 0, 73, 0
2, 26886, Note_on_c, 0, 69, 95
2, 26891, Note_on_c, 0, 69, 0
2, 26892, Note_on_c, 0, 68, 95
2, 26897, Note_on_c, 0, 68, 0
2, 26898, Note_on_c, 0, 66, 95
2, 26903, Note_on_c, 0, 66, 0
2, 26904, Note_on_c, 0, 64, 95
2, 26909, Note_on_c, 0, 64, 0
2, 26910, Note_on_c, 0, 62, 95
2, 26915, Note_on_c, 0, 62, 0
2, 26916, Note_on_c, 0, 61, 95
2, 26921, Note_on_c, 0, 61, 0
2, 26922, Note_on_c, 0, 59, 95
2, 26927, Note_on_c, 0, 59, 0
2, 27024, Note_on_c, 0, 66, 95
2, 27029, Note_on_c, 0, 66, 0
2, 27030, Note_on_c, 0, 68, 95
2, 27035, Note_on_c, 0, 68, 0
2, 27036, Note_on_c, 0, 70, 95
2, 27041, Note_on_c, 0, 70, 0
2, 27042, Note_on_c, 0, 71, 95
2, 27047, Note_on_c, 0, 71, 0
2, 27048, Note_on_c, 0, 73, 95
2, 27053, Note_on_c, 0, 73, 0
2, 27054, Note_on_c, 0, 74, 95
2, 27059, Note_on_c, 0, 74, 0
2, 27060, Note_on_c, 0, 76, 95
2, 27065, Note_on_c, 0, 76, 0
2, 27066, Note_on_c, 0, 73, 95
2, 27071, Note_on_c, 0, 73, 0
2, 27072, Note_on_c, 0, 74, 95
2, 27077, Note_on_c, 0, 74, 0
2, 27078, Note_on_c, 0, 71, 95
2, 27083, Note_on_c, 0, 71, 0
2, 27084, Note_on_c, 0, 69, 95
2, 27089, Note_on_c, 0, 69, 0
2, 27090, Note_on_c, 0, 67, 95
2, 27095, Note_on_c, 0, 67, 0
2, 27096, Note_on_c, 0, 66, 95
2, 27101, Note_on_c, 0, 66, 0
2, 27102, Note_on_c, 0, 64, 95
2, 27107, Note_on_c, 0, 64, 0
2, 27108, Note_on_c, 0, 62, 95
2, 27113, Note_on_c, 0, 62, 0
2, 27114, Note_on_c, 0, 61, 95
2, 27119, Note_on_c, 0, 61, 0
2, 27216, Note_on_c, 0, 69, 95
2, 27221, Note_on_c, 0, 69, 0
2, 27222, Note_on_c, 0, 71, 95
2, 27227, Note_on_c, 0, 71, 0
2, 27228, Note_on_c, 0, 73, 95
2, 27233, Note_on_c, 0, 73, 0
2, 27234, Note_on_c, 0, 74, 95
2, 27239, Note_on_c, 0, 74, 0
2, 27240, Note_on_c, 0, 76, 95
2, 27245, Note_on_c, 0, 76, 0
2, 27246, Note_on_c, 0, 78, 95
2, 27251, Note_on_c, 0, 78, 0
2, 27252, Note_on_c, 0, 79, 95
2, 27257, Note_on_c, 0, 79, 0
2, 27258, Note_on_c, 0, 76, 95
2, 27263, Note_on_c, 0, 76, 0
2, 27264, Note_on_c, 0, 78, 95
2, 27269, Note_on_c, 0, 78, 0
2, 27270, Note_on_c, 0, 74, 95
2, 27275, Note_on_c, 0, 74, 0
2, 27276, Note_on_c, 0, 73, 95
2, 27281, Note_on_c, 0, 73, 0
2, 27282, Note_on_c, 0, 71, 95
2, 27287, Note_on_c, 0, 71, 0
2, 27288, Note_on_c, 0, 69, 95
2, 27293, Note_on_c, 0, 69, 0
2, 27294, Note_on_c, 0, 67, 95
2, 27299, Note_on_c, 0, 67, 0
2, 27300, Note_on_c, 0, 66, 95
2, 27305, Note_on_c, 0, 66, 0
2, 27306, Note_on_c, 0, 64, 95
2, 27311, Note_on_c, 0, 64, 0
2, 27312, Note_on_c, 0, 62, 95
2, 27317, Note_on_c, 0, 62, 0
2, 27318, Note_on_c, 0, 64, 95
2, 27323, Note_on_c, 0, 64, 0
2, 27324, Note_on_c, 0, 66, 95
2, 27329, Note_on_c, 0, 66, 0
2, 27330, Note_on_c, 0, 67, 95
2, 27335, Note_on_c, 0, 67, 0
2, 27336, Note_on_c, 0, 69, 95
2, 27341, Note_on_c, 0, 69, 0
2, 27342, Note_on_c, 0, 71, 95
2, 27347, Note_on_c, 0, 71, 0
2, 27348, Note_on_c, 0, 72, 95
2, 27353, Note_on_c, 0, 72, 0
2, 27354, Note_on_c, 0, 69, 95
2, 27359, Note_on_c, 0, 69, 0
2, 27360, Note_on_c, 0, 71, 95
2, 27365, Note_on_c, 0, 71, 0
2, 27366, Note_on_c, 0, 67, 95
2, 27371, Note_on_c, 0, 67, 0
2, 27372, Note_on_c, 0, 69, 95
2, 27377, Note_on_c, 0, 69, 0
2, 27378, Note_on_c, 0, 71, 95
2, 27383, Note_on_c, 0, 71, 0
2, 27384, Note_on_c, 0, 73, 95
2, 27389, Note_on_c, 0, 73, 0
2, 27390, Note_on_c, 0, 74, 95
2, 27395, Note_on_c, 0, 74, 0
2, 27396, Note_on_c, 0, 76, 95
2, 27401, Note_on_c, 0, 76, 0
2, 27402, Note_on_c, 0, 78, 95
2, 27407, Note_on_c, 0, 78, 0
2, 27408, Note_on_c, 0, 76, 95
2, 27413, Note_on_c, 0, 76, 0
2, 27414, Note_on_c, 0, 61, 95
2, 27419, Note_on_c, 0, 61, 0
2, 27420, Note_on_c, 0, 62, 95
2, 27425, Note_on_c, 0, 62, 0
2, 27426, Note_on_c, 0, 64, 95
2, 27431, Note_on_c, 0, 64, 0
2, 27432, Note_on_c, 0, 66, 95
2, 27437, Note_on_c, 0, 66, 0
2, 27438, Note_on_c, 0, 67, 95
2, 27443, Note_on_c, 0, 67, 0
2, 27444, Note_on_c, 0, 69, 95
2, 27449, Note_on_c, 0, 69, 0
2, 27450, Note_on_c, 0, 71, 95
2, 27455, Note_on_c, 0, 71, 0
2, 27456, Note_on_c, 0, 69, 95
2, 27461, Note_on_c, 0, 69, 0
2, 27462, Note_on_c, 0, 66, 95
2, 27467, Note_on_c, 0, 66, 0
2, 27468, Note_on_c, 0, 67, 95
2, 27473, Note_on_c, 0, 67, 0
2, 27474, Note_on_c, 0, 69, 95
2, 27479, Note_on_c, 0, 69, 0
2, 27480, Note_on_c, 0, 71, 95
2, 27485, Note_on_c, 0, 71, 0
2, 27486, Note_on_c, 0, 73, 95
2, 27491, Note_on_c, 0, 73, 0
2, 27492, Note_on_c, 0, 74, 95
2, 27497, Note_on_c, 0, 74, 0
2, 27498, Note_on_c, 0, 76, 95
2, 27503, Note_on_c, 0, 76, 0
2, 27504, Note_on_c, 0, 74, 95
2, 27509, Note_on_c, 0, 74, 0
2, 27510, Note_on_c, 0, 59, 95
2, 27515, Note_on_c, 0, 59, 0
2, 27516, Note_on_c, 0, 61, 95
2, 27521, Note_on_c, 0, 61, 0
2, 27522, Note_on_c, 0, 62, 95
2, 27527, Note_on_c, 0, 62, 0
2, 27528, Note_on_c, 0, 64, 95
2, 27533, Note_on_c, 0, 64, 0
2, 27534, Note_on_c, 0, 66, 95
2, 27539, Note_on_c, 0, 66, 0
2, 27540, Note_on_c, 0, 67, 95
2, 27545, Note_on_c, 0, 67, 0
2, 27546, Note_on_c, 0, 69, 95
2, 27551, Note_on_c, 0, 69, 0
2, 27552, Note_on_c, 0, 67, 95
2, 27557, Note_on_c, 0, 67, 0
2, 27558, Note_on_c, 0, 64, 95
2, 27563, Note_on_c, 0, 64, 0
2, 27564, Note_on_c, 0, 66, 95
2, 27569, Note_on_c, 0, 66, 0
2, 27570, Note_on_c, 0, 67, 95
2, 27575, Note_on_c, 0, 67, 0
2, 27576, Note_on_c, 0, 69, 95
2, 27581, Note_on_c, 0, 69, 0
2, 27582, Note_on_c, 0, 71, 95
2, 27587, Note_on_c, 0, 71, 0
2, 27588, Note_on_c, 0, 73, 95
2, 27593, Note_on_c, 0, 73, 0
2, 27594, Note_on_c, 0, 74, 95
2, 27599, Note_on_c, 0, 74, 0
2, 27600, Note_on_c, 0, 73, 95
2, 27605, Note_on_c, 0, 73, 0
2, 27606, Note_on_c, 0, 57, 95
2, 27611, Note_on_c, 0, 57, 0
2, 27612, Note_on_c, 0, 59, 95
2, 27617, Note_on_c, 0, 59, 0
2, 27618, Note_on_c, 0, 61, 95
2, 27623, Note_on_c, 0, 61, 0
2, 27624, Note_on_c, 0, 62, 95
2, 27629, Note_on_c, 0, 62, 0
2, 27630, Note_on_c, 0, 64, 95
2, 27635, Note_on_c, 0, 64, 0
2, 27636, Note_on_c, 0, 66, 95
2, 27641, Note_on_c, 0, 66, 0
2, 27642, Note_on_c, 0, 67, 95
2, 27647, Note_on_c, 0, 67, 0
2, 27648, Note_on_c, 0, 66, 95
2, 27653, Note_on_c, 0, 66, 0
2, 27888, Note_on_c, 0, 62, 95
2, 27893, Note_on_c, 0, 62, 0
2, 27894, Note_on_c, 0, 64, 95
2, 27899, Note_on_c, 0, 64, 0
2, 27900, Note_on_c, 0, 66, 95
2, 27905, Note_on_c, 0, 66, 0
2, 27906, Note_on_c, 0, 67, 95
2, 27911, Note_on_c, 0, 67, 0
2, 27912, Note_on_c, 0, 69, 95
2, 27917, Note_on_c, 0, 69, 0
2, 27918, Note_on_c, 0, 71, 95
2, 27923, Note_on_c, 0, 71, 0
2, 27924, Note_on_c, 0, 73, 95
2, 27929, Note_on_c, 0, 73, 0
2, 27930, Note_on_c, 0, 74, 95
2, 27935, Note_on_c, 0, 74, 0
2, 27936, Note_on_c, 0, 73, 95
2, 27941, Note_on_c, 0, 73, 0
2, 27942, Note_on_c, 0, 57, 95
2, 27947, Note_on_c, 0, 57, 0
2, 27948, Note_on_c, 0, 59, 95
2, 27953, Note_on_c, 0, 59, 0
2, 27954, Note_on_c, 0, 61, 95
2, 27959, Note_on_c, 0, 61, 0
2, 27960, Note_on_c, 0, 62, 95
2, 27965, Note_on_c, 0, 62, 0
2, 27966, Note_on_c, 0, 64, 95
2, 27971, Note_on_c, 0, 64, 0
2, 27972, Note_on_c, 0, 66, 95
2, 27977, Note_on_c, 0, 66, 0
2, 27978, Note_on_c, 0, 67, 95
2, 27983, Note_on_c, 0, 67, 0
2, 27984, Note_on_c, 0, 69, 95
2, 27989, Note_on_c, 0, 69, 0
2, 27990, Note_on_c, 0, 71, 95
2, 27995, Note_on_c, 0, 71, 0
2, 27996, Note_on_c, 0, 73, 95
2, 28001, Note_on_c, 0, 73, 0
2, 28002, Note_on_c, 0, 74, 95
2, 28007, Note_on_c, 0, 74, 0
2, 28008, Note_on_c, 0, 76, 95
2, 28013, Note_on_c, 0, 76, 0
2, 28014, Note_on_c, 0, 78, 95
2, 28019, Note_on_c, 0, 78, 0
2, 28020, Note_on_c, 0, 79, 95
2, 28025, Note_on_c, 0, 79, 0
2, 28026, Note_on_c, 0, 73, 95
2, 28031, Note_on_c, 0, 73, 0
2, 28038, Note_on_c, 0, 81, 79
2, 28042, Note_on_c, 0, 81, 0
2, 28044, Note_on_c, 0, 79, 79
2, 28048, Note_on_c, 0, 79, 0
2, 28050, Note_on_c, 0, 78, 79
2, 28054, Note_on_c, 0, 78, 0
2, 28062, Note_on_c, 0, 78, 79
2, 28066, Note_on_c, 0, 78, 0
2, 28068, Note_on_c, 0, 76, 79
2, 28072, Note_on_c, 0, 76, 0
2, 28074, Note_on_c, 0, 74, 79
2, 28078, Note_on_c, 0, 74, 0
2, 28086, Note_on_c, 0, 81, 79
2, 28090, Note_on_c, 0, 81, 0
2, 28092, Note_on_c, 0, 79, 79
2, 28096, Note_on_c, 0, 79, 0
2, 28098, Note_on_c, 0, 78, 79
2, 28102, Note_on_c, 0, 78, 0
2, 28110, Note_on_c, 0, 78, 79
2, 28114, Note_on_c, 0, 78, 0
2, 28116, Note_on_c, 0, 76, 79
2, 28120, Note_on_c, 0, 76, 0
2, 28122, Note_on_c, 0, 74, 79
2, 28126, Note_on_c, 0, 74, 0
2, 28134, Note_on_c, 0, 81, 79
2, 28138, Note_on_c, 0, 81, 0
2, 28140, Note_on_c, 0, 79, 79
2, 28144, Note_on_c, 0, 79, 0
2, 28146, Note_on_c, 0, 78, 79
2, 28150, Note_on_c, 0, 78, 0
2, 28158, Note_on_c, 0, 78, 79
2, 28162, Note_on_c, 0, 78, 0
2, 28164, Note_on_c, 0, 76, 79
2, 28168, Note_on_c, 0, 76, 0
2, 28170, Note_on_c, 0, 74, 79
2, 28174, Note_on_c, 0, 74, 0
2, 28182, Note_on_c, 0, 81, 79
2, 28186, Note_on_c, 0, 81, 0
2, 28188, Note_on_c, 0, 79, 79
2, 28192, Note_on_c, 0, 79, 0
2, 28194, Note_on_c, 0, 78, 79
2, 28198, Note_on_c, 0, 78, 0
2, 28206, Note_on_c, 0, 78, 79
2, 28210, Note_on_c, 0, 78, 0
2, 28212, Note_on_c, 0, 76, 79
2, 28216, Note_on_c, 0, 76, 0
2, 28218, Note_on_c, 0, 74, 79
2, 28222, Note_on_c, 0, 74, 0
2, 28230, Note_on_c, 0, 79, 79
2, 28234, Note_on_c, 0, 79, 0
2, 28236, Note_on_c, 0, 78, 79
2, 28240, Note_on_c, 0, 78, 0
2, 28242, Note_on_c, 0, 76, 79
2, 28246, Note_on_c, 0, 76, 0
2, 28254, Note_on_c, 0, 76, 79
2, 28258, Note_on_c, 0, 76, 0
2, 28260, Note_on_c, 0, 74, 79
2, 28264, Note_on_c, 0, 74, 0
2, 28266, Note_on_c, 0, 73, 79
2, 28270, Note_on_c, 0, 73, 0
2, 28278, Note_on_c, 0, 79, 79
2, 28282, Note_on_c, 0, 79, 0
2, 28284, Note_on_c, 0, 78, 79
2, 28288, Note_on_c, 0, 78, 0
2, 28290, Note_on_c, 0, 76, 79
2, 28294, Note_on_c, 0, 76, 0
2, 28302, Note_on_c, 0, 76, 79
2, 28306, Note_on_c, 0, 76, 0
2, 28308, Note_on_c, 0, 74, 79
2, 28312, Note_on_c, 0, 74, 0
2, 28314, Note_on_c, 0, 73, 79
2, 28318, Note_on_c, 0, 73, 0
2, 28326, Note_on_c, 0, 79, 79
2, 28330, Note_on_c, 0, 79, 0
2, 28332, Note_on_c, 0, 78, 79
2, 28336, Note_on_c, 0, 78, 0
2, 28338, Note_on_c, 0, 76, 79
2, 28342, Note_on_c, 0, 76, 0
2, 28350, Note_on_c, 0, 76, 79
2, 28354, Note_on_c, 0, 76, 0
2, 28356, Note_on_c, 0, 74, 79
2, 28360, Note_on_c, 0, 74, 0
2, 28362, Note_on_c, 0, 73, 79
2, 28366, Note_on_c, 0, 73, 0
2, 28374, Note_on_c, 0, 79, 79
2, 28378, Note_on_c, 0, 79, 0
2, 28380, Note_on_c, 0, 78, 79
2, 28384, Note_on_c, 0, 78, 0
2, 28386, Note_on_c, 0, 76, 79
2, 28390, Note_on_c, 0, 76, 0
2, 28398, Note_on_c, 0, 76, 79
2, 28402, Note_on_c, 0, 76, 0
2, 28404, Note_on_c, 0, 74, 79
2, 28408, Note_on_c, 0, 74, 0
2, 28410, Note_on_c, 0, 73, 79
2, 28414, Note_on_c, 0, 73, 0
2, 28422, Note_on_c, 0, 78, 79
2, 28426, Note_on_c, 0, 78, 0
2, 28428, Note_on_c, 0, 76, 79
2, 28432, Note_on_c, 0, 76, 0
2, 28434, Note_on_c, 0, 74, 79
2, 28438, Note_on_c, 0, 74, 0
2, 28446, Note_on_c, 0, 74, 79
2, 28450, Note_on_c, 0, 74, 0
2, 28452, Note_on_c, 0, 73, 79
2, 28456, Note_on_c, 0, 73, 0
2, 28458, Note_on_c, 0, 71, 79
2, 28462, Note_on_c, 0, 71, 0
2, 28470, Note_on_c, 0, 78, 79
2, 28474, Note_on_c, 0, 78, 0
2, 28476, Note_on_c, 0, 76, 79
2, 28480, Note_on_c, 0, 76, 0
2, 28482, Note_on_c, 0, 74, 79
2, 28486, Note_on_c, 0, 74, 0
2, 28494, Note_on_c, 0, 74, 79
2, 28498, Note_on_c, 0, 74, 0
2, 28500, Note_on_c, 0, 73, 79
2, 28504, Note_on_c, 0, 73, 0
2, 28506, Note_on_c, 0, 71, 79
2, 28510, Note_on_c, 0, 71, 0
2, 28518, Note_on_c, 0, 78, 79
2, 28522, Note_on_c, 0, 78, 0
2, 28524, Note_on_c, 0, 76, 79
2, 28528, Note_on_c, 0, 76, 0
2, 28530, Note_on_c, 0, 74, 79
2, 28534, Note_on_c, 0, 74, 0
2, 28542, Note_on_c, 0, 74, 79
2, 28546, Note_on_c, 0, 74, 0
2, 28548, Note_on_c, 0, 73, 79
2, 28552, Note_on_c, 0, 73, 0
2, 28554, Note_on_c, 0, 71, 79
2, 28558, Note_on_c, 0, 71, 0
2, 28566, Note_on_c, 0, 78, 79
2, 28570, Note_on_c, 0, 78, 0
2, 28572, Note_on_c, 0, 76, 79
2, 28576, Note_on_c, 0, 76, 0
2, 28578, Note_on_c, 0, 74, 79
2, 28582, Note_on_c, 0, 74, 0
2, 28590, Note_on_c, 0, 74, 79
2, 28594, Note_on_c, 0, 74, 0
2, 28596, Note_on_c, 0, 73, 79
2, 28600, Note_on_c, 0, 73, 0
2, 28602, Note_on_c, 0, 71, 79
2, 28606, Note_on_c, 0, 71, 0
2, 28614, Note_on_c, 0, 76, 79
2, 28618, Note_on_c, 0, 76, 0
2, 28620, Note_on_c, 0, 74, 79
2, 28624, Note_on_c, 0, 74, 0
2, 28626, Note_on_c, 0, 73, 79
2, 28630, Note_on_c, 0, 73, 0
2, 28638, Note_on_c, 0, 73, 79
2, 28642, Note_on_c, 0, 73, 0
2, 28644, Note_on_c, 0, 71, 79
2, 28648, Note_on_c, 0, 71, 0
2, 28650, Note_on_c, 0, 69, 79
2, 28654, Note_on_c, 0, 69, 0
2, 28662, Note_on_c, 0, 76, 79
2, 28666, Note_on_c, 0, 76, 0
2, 28668, Note_on_c, 0, 74, 79
2, 28672, Note_on_c, 0, 74, 0
2, 28674, Note_on_c, 0, 73, 79
2, 28678, Note_on_c, 0, 73, 0
2, 28686, Note_on_c, 0, 73, 79
2, 28690, Note_on_c, 0, 73, 0
2, 28692, Note_on_c, 0, 71, 79
2, 28696, Note_on_c, 0, 71, 0
2, 28698, Note_on_c, 0, 69, 79
2, 28702, Note_on_c, 0, 69, 0
2, 28710, Note_on_c, 0, 76, 79
2, 28714, Note_on_c, 0, 76, 0
2, 28716, Note_on_c, 0, 74, 79
2, 28720, Note_on_c, 0, 74, 0
2, 28722, Note_on_c, 0, 73, 79
2, 28726, Note_on_c, 0, 73, 0
2, 28734, Note_on_c, 0, 73, 79
2, 28738, Note_on_c, 0, 73, 0
2, 28740, Note_on_c, 0, 71, 79
2, 28744, Note_on_c, 0, 71, 0
2, 28746, Note_on_c, 0, 69, 79
2, 28750, Note_on_c, 0, 69, 0
2, 28758, Note_on_c, 0, 76, 79
2, 28762, Note_on_c, 0, 76, 0
2, 28764, Note_on_c, 0, 74, 79
2, 28768, Note_on_c, 0, 74, 0
2, 28770, Note_on_c, 0, 73, 79
2, 28774, Note_on_c, 0, 73, 0
2, 28782, Note_on_c, 0, 73, 79
2, 28786, Note_on_c, 0, 73, 0
2, 28788, Note_on_c, 0, 71, 79
2, 28792, Note_on_c, 0, 71, 0
2, 28794, Note_on_c, 0, 69, 79
2, 28798, Note_on_c, 0, 69, 0
2, 28806, Note_on_c, 0, 73, 79
2, 28810, Note_on_c, 0, 73, 0
2, 28812, Note_on_c, 0, 76, 79
2, 28816, Note_on_c, 0, 76, 0
2, 28818, Note_on_c, 0, 81, 79
2, 28822, Note_on_c, 0, 81, 0
2, 28824, Note_on_c, 0, 76, 79
2, 28828, Note_on_c, 0, 76, 0
2, 28830, Note_on_c, 0, 73, 79
2, 28834, Note_on_c, 0, 73, 0
2, 28836, Note_on_c, 0, 69, 79
2, 28840, Note_on_c, 0, 69, 0
2, 28854, Note_on_c, 0, 74, 79
2, 28858, Note_on_c, 0, 74, 0
2, 28860, Note_on_c, 0, 78, 79
2, 28864, Note_on_c, 0, 78, 0
2, 28866, Note_on_c, 0, 81, 79
2, 28870, Note_on_c, 0, 81, 0
2, 28872, Note_on_c, 0, 78, 79
2, 28876, Note_on_c, 0, 78, 0
2, 28878, Note_on_c, 0, 74, 79
2, 28882, Note_on_c, 0, 74, 0
2, 28884, Note_on_c, 0, 69, 79
2, 28888, Note_on_c, 0, 69, 0
2, 28902, Note_on_c, 0, 73, 79
2, 28906, Note_on_c, 0, 73, 0
2, 28908, Note_on_c, 0, 76, 79
2, 28912, Note_on_c, 0, 76, 0
2, 28914, Note_on_c, 0, 81, 79
2, 28918, Note_on_c, 0, 81, 0
2, 28920, Note_on_c, 0, 76, 79
2, 28924, Note_on_c, 0, 76, 0
2, 28926, Note_on_c, 0, 73, 79
2, 28930, Note_on_c, 0, 73, 0
2, 28932, Note_on_c, 0, 69, 79
2, 28936, Note_on_c, 0, 69, 0
2, 28950, Note_on_c, 0, 74, 79
2, 28954, Note_on_c, 0, 74, 0
2, 28956, Note_on_c, 0, 78, 79
2, 28960, Note_on_c, 0, 78, 0
2, 28962, Note_on_c, 0, 81, 79
2, 28966, Note_on_c, 0, 81, 0
2, 28968, Note_on_c, 0, 78, 79
2, 28972, Note_on_c, 0, 78, 0
2, 28974, Note_on_c, 0, 74, 79
2, 28978, Note_on_c, 0, 74, 0
2, 28980, Note_on_c, 0, 69, 79
2, 28984, Note_on_c, 0, 69, 0
2, 28998, Note_on_c, 0, 74, 79
2, 29002, Note_on_c, 0, 74, 0
2, 29004, Note_on_c, 0, 77, 79
2, 29008, Note_on_c, 0, 77, 0
2, 29010, Note_on_c, 0, 83, 79
2, 29014, Note_on_c, 0, 83, 0
2, 29016, Note_on_c, 0, 77, 79
2, 29020, Note_on_c, 0, 77, 0
2, 29022, Note_on_c, 0, 74, 79
2, 29026, Note_on_c, 0, 74, 0
2, 29028, Note_on_c, 0, 71, 79
2, 29032, Note_on_c, 0, 71, 0
2, 29046, Note_on_c, 0, 74, 79
2, 29050, Note_on_c, 0, 74, 0
2, 29052, Note_on_c, 0, 77, 79
2, 29056, Note_on_c, 0, 77, 0
2, 29058, Note_on_c, 0, 83, 79
2, 29062, Note_on_c, 0, 83, 0
2, 29064, Note_on_c, 0, 77, 79
2, 29068, Note_on_c, 0, 77, 0
2, 29070, Note_on_c, 0, 74, 79
2, 29074, Note_on_c, 0, 74, 0
2, 29076, Note_on_c, 0, 71, 79
2, 29080, Note_on_c, 0, 71, 0
2, 29094, Note_on_c, 0, 76, 79
2, 29098, Note_on_c, 0, 76, 0
2, 29100, Note_on_c, 0, 79, 79
2, 29104, Note_on_c, 0, 79, 0
2, 29106, Note_on_c, 0, 82, 79
2, 29110, Note_on_c, 0, 82, 0
2, 29112, Note_on_c, 0, 79, 79
2, 29116, Note_on_c, 0, 79, 0
2, 29118, Note_on_c, 0, 76, 79
2, 29122, Note_on_c, 0, 76, 0
2, 29124, Note_on_c, 0, 73, 79
2, 29128, Note_on_c, 0, 73, 0
2, 29142, Note_on_c, 0, 76, 79
2, 29146, Note_on_c, 0, 76, 0
2, 29148, Note_on_c, 0, 79, 79
2, 29152, Note_on_c, 0, 79, 0
2, 29154, Note_on_c, 0, 82, 79
2, 29158, Note_on_c, 0, 82, 0
2, 29160, Note_on_c, 0, 79, 79
2, 29164, Note_on_c, 0, 79, 0
2, 29166, Note_on_c, 0, 76, 79
2, 29170, Note_on_c, 0, 76, 0
2, 29172, Note_on_c, 0, 73, 79
2, 29176, Note_on_c, 0, 73, 0
2, 29190, Note_on_c, 0, 74, 79
2, 29194, Note_on_c, 0, 74, 0
2, 29196, Note_on_c, 0, 78, 79
2, 29200, Note_on_c, 0, 78, 0
2, 29202, Note_on_c, 0, 81, 79
2, 29206, Note_on_c, 0, 81, 0
2, 29208, Note_on_c, 0, 78, 79
2, 29212, Note_on_c, 0, 78, 0
2, 29214, Note_on_c, 0, 74, 79
2, 29218, Note_on_c, 0, 74, 0
2, 29220, Note_on_c, 0, 69, 79
2, 29224, Note_on_c, 0, 69, 0
2, 29238, Note_on_c, 0, 74, 79
2, 29242, Note_on_c, 0, 74, 0
2, 29244, Note_on_c, 0, 78, 79
2, 29248, Note_on_c, 0, 78, 0
2, 29250, Note_on_c, 0, 81, 79
2, 29254, Note_on_c, 0, 81, 0
2, 29256, Note_on_c, 0, 78, 79
2, 29260, Note_on_c, 0, 78, 0
2, 29262, Note_on_c, 0, 74, 79
2, 29266, Note_on_c, 0, 74, 0
2, 29268, Note_on_c, 0, 69, 79
2, 29272, Note_on_c, 0, 69, 0
2, 29286, Note_on_c, 0, 74, 79
2, 29290, Note_on_c, 0, 74, 0
2, 29292, Note_on_c, 0, 77, 79
2, 29296, Note_on_c, 0, 77, 0
2, 29298, Note_on_c, 0, 80, 79
2, 29302, Note_on_c, 0, 80, 0
2, 29304, Note_on_c, 0, 77, 79
2, 29308, Note_on_c, 0, 77, 0
2, 29310, Note_on_c, 0, 74, 79
2, 29314, Note_on_c, 0, 74, 0
2, 29316, Note_on_c, 0, 71, 79
2, 29320, Note_on_c, 0, 71, 0
2, 29334, Note_on_c, 0, 74, 79
2, 29338, Note_on_c, 0, 74, 0
2, 29340, Note_on_c, 0, 77, 79
2, 29344, Note_on_c, 0, 77, 0
2, 29346, Note_on_c, 0, 80, 79
2, 29350, Note_on_c, 0, 80, 0
2, 29352, Note_on_c, 0, 77, 79
2, 29356, Note_on_c, 0, 77, 0
2, 29358, Note_on_c, 0, 74, 79
2, 29362, Note_on_c, 0, 74, 0
2, 29364, Note_on_c, 0, 71, 79
2, 29368, Note_on_c, 0, 71, 0
2, 29376, Note_on_c, 0, 73, 95
2, 29376, Note_on_c, 0, 81, 95
2, 29396, Note_on_c, 0, 73, 0
2, 29400, Note_on_c, 0, 74, 95
2, 29420, Note_on_c, 0, 74, 0
2, 29424, Note_on_c, 0, 73, 95
2, 29444, Note_on_c, 0, 73, 0
2, 29448, Note_on_c, 0, 71, 95
2, 29468, Note_on_c, 0, 71, 0
2, 29472, Note_on_c, 0, 69, 95
2, 29492, Note_on_c, 0, 69, 0
2, 29496, Note_on_c, 0, 78, 95
2, 29516, Note_on_c, 0, 78, 0
2, 29520, Note_on_c, 0, 76, 95
2, 29540, Note_on_c, 0, 76, 0
2, 29544, Note_on_c, 0, 74, 95
2, 29564, Note_on_c, 0, 74, 0
2, 29568, Note_on_c, 0, 81, 0
2, 29568, Note_on_c, 0, 73, 95
2, 29592, Note_on_c, 0, 83, 95
2, 29612, Note_on_c, 0, 83, 0
2, 29616, Note_on_c, 0, 81, 95
2, 29636, Note_on_c, 0, 81, 0
2, 29640, Note_on_c, 0, 79, 95
2, 29648, Note_on_c, 0, 73, 0
2, 29660, Note_on_c, 0, 79, 0
2, 29664, Note_on_c, 0, 74, 95
2, 29664, Note_on_c, 0, 78, 95
2, 29674, Note_on_c, 0, 78, 0
2, 29676, Note_on_c, 0, 79, 95
2, 29686, Note_on_c, 0, 79, 0
2, 29688, Note_on_c, 0, 79, 95
2, 29693, Note_on_c, 0, 79, 0
2, 29694, Note_on_c, 0, 81, 95
2, 29699, Note_on_c, 0, 81, 0
2, 29700, Note_on_c, 0, 78, 95
2, 29705, Note_on_c, 0, 78, 0
2, 29706, Note_on_c, 0, 79, 95
2, 29711, Note_on_c, 0, 79, 0
2, 29712, Note_on_c, 0, 81, 95
2, 29732, Note_on_c, 0, 81, 0
2, 29736, Note_on_c, 0, 79, 95
2, 29744, Note_on_c, 0, 74, 0
2, 29746, Note_on_c, 0, 79, 0
2, 29748, Note_on_c, 0, 78, 95
2, 29758, Note_on_c, 0, 78, 0
2, 29760, Note_on_c, 0, 73, 95
2, 29760, Note_on_c, 0, 76, 95
2, 29770, Note_on_c, 0, 76, 0
2, 29770, Note_on_c, 0, 73, 0
2, 29772, Note_on_c, 0, 81, 95
2, 29777, Note_on_c, 0, 81, 0
2, 29778, Note_on_c, 0, 79, 95
2, 29783, Note_on_c, 0, 79, 0
2, 29784, Note_on_c, 0, 78, 95
2, 29794, Note_on_c, 0, 78, 0
2, 29796, Note_on_c, 0, 81, 95
2, 29806, Note_on_c, 0, 81, 0
2, 29808, Note_on_c, 0, 76, 95
2, 29818, Note_on_c, 0, 76, 0
2, 29820, Note_on_c, 0, 81, 95
2, 29830, Note_on_c, 0, 81, 0
2, 29832, Note_on_c, 0, 74, 95
2, 29842, Note_on_c, 0, 74, 0
2, 29844, Note_on_c, 0, 81, 95
2, 29854, Note_on_c, 0, 81, 0
2, 29856, Note_on_c, 0, 73, 95
2, 29866, Note_on_c, 0, 73, 0
2, 29868, Note_on_c, 0, 81, 95
2, 29878, Note_on_c, 0, 81, 0
2, 29880, Note_on_c, 0, 74, 95
2, 29890, Note_on_c, 0, 74, 0
2, 29892, Note_on_c, 0, 81, 95
2, 29902, Note_on_c, 0, 81, 0
2, 29904, Note_on_c, 0, 73, 95
2, 29914, Note_on_c, 0, 73, 0
2, 29916, Note_on_c, 0, 81, 95
2, 29926, Note_on_c, 0, 81, 0
2, 29928, Note_on_c, 0, 71, 95
2, 29938, Note_on_c, 0, 71, 0
2, 29940, Note_on_c, 0, 81, 95
2, 29950, Note_on_c, 0, 81, 0
2, 29952, Note_on_c, 0, 69, 95
2, 29962, Note_on_c, 0, 69, 0
2, 29964, Note_on_c, 0, 73, 95
2, 29974, Note_on_c, 0, 73, 0
2, 29976, Note_on_c, 0, 67, 95
2, 29986, Note_on_c, 0, 67, 0
2, 29988, Note_on_c, 0, 73, 95
2, 29998, Note_on_c, 0, 73, 0
2, 30000, Note_on_c, 0, 66, 95
2, 30010, Note_on_c, 0, 66, 0
2, 30012, Note_on_c, 0, 73, 95
2, 30022, Note_on_c, 0, 73, 0
2, 30024, Note_on_c, 0, 64, 95
2, 30034, Note_on_c, 0, 64, 0
2, 30036, Note_on_c, 0, 73, 95
2, 30046, Note_on_c, 0, 73, 0
2, 30048, Note_on_c, 0, 62, 95
2, 30058, Note_on_c, 0, 62, 0
2, 30060, Note_on_c, 0, 74, 95
2, 30070, Note_on_c, 0, 74, 0
2, 30072, Note_on_c, 0, 64, 95
2, 30082, Note_on_c, 0, 64, 0
2, 30084, Note_on_c, 0, 74, 95
2, 30094, Note_on_c, 0, 74, 0
2, 30096, Note_on_c, 0, 66, 95
2, 30106, Note_on_c, 0, 66, 0
2, 30108, Note_on_c, 0, 74, 95
2, 30118, Note_on_c, 0, 74, 0
2, 30120, Note_on_c, 0, 64, 95
2, 30130, Note_on_c, 0, 64, 0
2, 30132, Note_on_c, 0, 62, 95
2, 30142, Note_on_c, 0, 62, 0
2, 30144, Note_on_c, 0, 64, 95
2, 30154, Note_on_c, 0, 64, 0
2, 30156, Note_on_c, 0, 73, 95
2, 30166, Note_on_c, 0, 73, 0
2, 30168, Note_on_c, 0, 66, 95
2, 30178, Note_on_c, 0, 66, 0
2, 30180, Note_on_c, 0, 73, 95
2, 30190, Note_on_c, 0, 73, 0
2, 30192, Note_on_c, 0, 67, 95
2, 30202, Note_on_c, 0, 67, 0
2, 30204, Note_on_c, 0, 73, 95
2, 30214, Note_on_c, 0, 73, 0
2, 30216, Note_on_c, 0, 66, 95
2, 30226, Note_on_c, 0, 66, 0
2, 30228, Note_on_c, 0, 64, 95
2, 30238, Note_on_c, 0, 64, 0
2, 30240, Note_on_c, 0, 62, 95
2, 30250, Note_on_c, 0, 62, 0
2, 30252, Note_on_c, 0, 74, 95
2, 30262, Note_on_c, 0, 74, 0
2, 30264, Note_on_c, 0, 64, 95
2, 30274, Note_on_c, 0, 64, 0
2, 30276, Note_on_c, 0, 74, 95
2, 30286, Note_on_c, 0, 74, 0
2, 30288, Note_on_c, 0, 66, 95
2, 30298, Note_on_c, 0, 66, 0
2, 30300, Note_on_c, 0, 74, 95
2, 30310, Note_on_c, 0, 74, 0
2, 30312, Note_on_c, 0, 64, 95
2, 30322, Note_on_c, 0, 64, 0
2, 30324, Note_on_c, 0, 62, 95
2, 30334, Note_on_c, 0, 62, 0
2, 30336, Note_on_c, 0, 64, 95
2, 30346, Note_on_c, 0, 64, 0
2, 30348, Note_on_c, 0, 73, 95
2, 30358, Note_on_c, 0, 73, 0
2, 30360, Note_on_c, 0, 66, 95
2, 30370, Note_on_c, 0, 66, 0
2, 30372, Note_on_c, 0, 73, 95
2, 30382, Note_on_c, 0, 73, 0
2, 30384, Note_on_c, 0, 67, 95
2, 30394, Note_on_c, 0, 67, 0
2, 30396, Note_on_c, 0, 73, 95
2, 30406, Note_on_c, 0, 73, 0
2, 30408, Note_on_c, 0, 66, 95
2, 30418, Note_on_c, 0, 66, 0
2, 30420, Note_on_c, 0, 64, 95
2, 30430, Note_on_c, 0, 64, 0
2, 30432, Note_on_c, 0, 66, 95
2, 30442, Note_on_c, 0, 66, 0
2, 30444, Note_on_c, 0, 72, 95
2, 30454, Note_on_c, 0, 72, 0
2, 30456, Note_on_c, 0, 67, 95
2, 30466, Note_on_c, 0, 67, 0
2, 30468, Note_on_c, 0, 72, 95
2, 30478, Note_on_c, 0, 72, 0
2, 30480, Note_on_c, 0, 69, 95
2, 30490, Note_on_c, 0, 69, 0
2, 30492, Note_on_c, 0, 72, 95
2, 30502, Note_on_c, 0, 72, 0
2, 30504, Note_on_c, 0, 67, 95
2, 30514, Note_on_c, 0, 67, 0
2, 30516, Note_on_c, 0, 66, 95
2, 30526, Note_on_c, 0, 66, 0
2, 30528, Note_on_c, 0, 71, 95
2, 30552, Note_on_c, 0, 69, 95
2, 30572, Note_on_c, 0, 69, 0
2, 30576, Note_on_c, 0, 67, 95
2, 30596, Note_on_c, 0, 67, 0
2, 30600, Note_on_c, 0, 66, 95
2, 30608, Note_on_c, 0, 71, 0
2, 30620, Note_on_c, 0, 66, 0
2, 30624, Note_on_c, 0, 64, 95
2, 30634, Note_on_c, 0, 64, 0
2, 30636, Note_on_c, 0, 71, 95
2, 30646, Note_on_c, 0, 71, 0
2, 30648, Note_on_c, 0, 66, 95
2, 30658, Note_on_c, 0, 66, 0
2, 30660, Note_on_c, 0, 71, 95
2, 30670, Note_on_c, 0, 71, 0
2, 30672, Note_on_c, 0, 67, 95
2, 30682, Note_on_c, 0, 67, 0
2, 30684, Note_on_c, 0, 71, 95
2, 30694, Note_on_c, 0, 71, 0
2, 30696, Note_on_c, 0, 66, 95
2, 30706, Note_on_c, 0, 66, 0
2, 30708, Note_on_c, 0, 64, 95
2, 30718, Note_on_c, 0, 64, 0
2, 30720, Note_on_c, 0, 69, 95
2, 30744, Note_on_c, 0, 67, 95
2, 30764, Note_on_c, 0, 67, 0
2, 30768, Note_on_c, 0, 66, 95
2, 30788, Note_on_c, 0, 66, 0
2, 30792, Note_on_c, 0, 64, 95
2, 30800, Note_on_c, 0, 69, 0
2, 30812, Note_on_c, 0, 64, 0
2, 30816, Note_on_c, 0, 62, 95
2, 30826, Note_on_c, 0, 62, 0
2, 30828, Note_on_c, 0, 69, 95
2, 30838, Note_on_c, 0, 69, 0
2, 30840, Note_on_c, 0, 64, 95
2, 30850, Note_on_c, 0, 64, 0
2, 30852, Note_on_c, 0, 69, 95
2, 30862, Note_on_c, 0, 69, 0
2, 30864, Note_on_c, 0, 66, 95
2, 30874, Note_on_c, 0, 66, 0
2, 30876, Note_on_c, 0, 69, 95
2, 30886, Note_on_c, 0, 69, 0
2, 30888, Note_on_c, 0, 64, 95
2, 30898, Note_on_c, 0, 64, 0
2, 30900, Note_on_c, 0, 62, 95
2, 30910, Note_on_c, 0, 62, 0
2, 30912, Note_on_c, 0, 67, 95
2, 30936, Note_on_c, 0, 66, 95
2, 30956, Note_on_c, 0, 66, 0
2, 30960, Note_on_c, 0, 64, 95
2, 30980, Note_on_c, 0, 64, 0
2, 30984, Note_on_c, 0, 62, 95
2, 30992, Note_on_c, 0, 67, 0
2, 31004, Note_on_c, 0, 62, 0
2, 31008, Note_on_c, 0, 61, 95
2, 31018, Note_on_c, 0, 61, 0
2, 31020, Note_on_c, 0, 67, 95
2, 31030, Note_on_c, 0, 67, 0
2, 31032, Note_on_c, 0, 62, 95
2, 31042, Note_on_c, 0, 62, 0
2, 31044, Note_on_c, 0, 67, 95
2, 31054, Note_on_c, 0, 67, 0
2, 31056, Note_on_c, 0, 64, 95
2, 31066, Note_on_c, 0, 64, 0
2, 31068, Note_on_c, 0, 67, 95
2, 31078, Note_on_c, 0, 67, 0
2, 31080, Note_on_c, 0, 62, 95
2, 31090, Note_on_c, 0, 62, 0
2, 31092, Note_on_c, 0, 61, 95
2, 31102, Note_on_c, 0, 61, 0
2, 31104, Note_on_c, 0, 62, 95
2, 31114, Note_on_c, 0, 62, 0
2, 31116, Note_on_c, 0, 66, 95
2, 31126, Note_on_c, 0, 66, 0
2, 31128, Note_on_c, 0, 69, 95
2, 31138, Note_on_c, 0, 69, 0
2, 31140, Note_on_c, 0, 61, 95
2, 31150, Note_on_c, 0, 61, 0
2, 31152, Note_on_c, 0, 62, 95
2, 31162, Note_on_c, 0, 62, 0
2, 31164, Note_on_c, 0, 66, 95
2, 31174, Note_on_c, 0, 66, 0
2, 31176, Note_on_c, 0, 69, 95
2, 31186, Note_on_c, 0, 69, 0
2, 31188, Note_on_c, 0, 57, 95
2, 31198, Note_on_c, 0, 57, 0
2, 31200, Note_on_c, 0, 62, 95
2, 31210, Note_on_c, 0, 62, 0
2, 31212, Note_on_c, 0, 66, 95
2, 31222, Note_on_c, 0, 66, 0
2, 31224, Note_on_c, 0, 69, 95
2, 31234, Note_on_c, 0, 69, 0
2, 31236, Note_on_c, 0, 61, 95
2, 31246, Note_on_c, 0, 61, 0
2, 31248, Note_on_c, 0, 62, 95
2, 31258, Note_on_c, 0, 62, 0
2, 31260, Note_on_c, 0, 66, 95
2, 31270, Note_on_c, 0, 66, 0
2, 31272, Note_on_c, 0, 69, 95
2, 31282, Note_on_c, 0, 69, 0
2, 31284, Note_on_c, 0, 57, 95
2, 31294, Note_on_c, 0, 57, 0
2, 31296, Note_on_c, 0, 62, 95
2, 31306, Note_on_c, 0, 62, 0
2, 31308, Note_on_c, 0, 66, 95
2, 31318, Note_on_c, 0, 66, 0
2, 31320, Note_on_c, 0, 69, 95
2, 31330, Note_on_c, 0, 69, 0
2, 31332, Note_on_c, 0, 61, 95
2, 31342, Note_on_c, 0, 61, 0
2, 31344, Note_on_c, 0, 62, 95
2, 31354, Note_on_c, 0, 62, 0
2, 31356, Note_on_c, 0, 66, 95
2, 31366, Note_on_c, 0, 66, 0
2, 31368, Note_on_c, 0, 69, 95
2, 31378, Note_on_c, 0, 69, 0
2, 31380, Note_on_c, 0, 59, 95
2, 31390, Note_on_c, 0, 59, 0
2, 31392, Note_on_c, 0, 62, 95
2, 31402, Note_on_c, 0, 62, 0
2, 31404, Note_on_c, 0, 66, 95
2, 31414, Note_on_c, 0, 66, 0
2, 31416, Note_on_c, 0, 69, 95
2, 31426, Note_on_c, 0, 69, 0
2, 31428, Note_on_c, 0, 61, 95
2, 31438, Note_on_c, 0, 61, 0
2, 31440, Note_on_c, 0, 62, 95
2, 31450, Note_on_c, 0, 62, 0
2, 31452, Note_on_c, 0, 66, 95
2, 31462, Note_on_c, 0, 66, 0
2, 31464, Note_on_c, 0, 69, 95
2, 31474, Note_on_c, 0, 69, 0
2, 31476, Note_on_c, 0, 59, 95
2, 31486, Note_on_c, 0, 59, 0
2, 31488, Note_on_c, 0, 62, 95
2, 31498, Note_on_c, 0, 62, 0
2, 31500, Note_on_c, 0, 64, 95
2, 31510, Note_on_c, 0, 64, 0
2, 31512, Note_on_c, 0, 68, 95
2, 31522, Note_on_c, 0, 68, 0
2, 31524, Note_on_c, 0, 61, 95
2, 31534, Note_on_c, 0, 61, 0
2, 31536, Note_on_c, 0, 62, 95
2, 31546, Note_on_c, 0, 62, 0
2, 31548, Note_on_c, 0, 64, 95
2, 31558, Note_on_c, 0, 64, 0
2, 31560, Note_on_c, 0, 68, 95
2, 31570, Note_on_c, 0, 68, 0
2, 31572, Note_on_c, 0, 59, 95
2, 31582, Note_on_c, 0, 59, 0
2, 31584, Note_on_c, 0, 62, 95
2, 31594, Note_on_c, 0, 62, 0
2, 31596, Note_on_c, 0, 64, 95
2, 31606, Note_on_c, 0, 64, 0
2, 31608, Note_on_c, 0, 68, 95
2, 31618, Note_on_c, 0, 68, 0
2, 31620, Note_on_c, 0, 61, 95
2, 31630, Note_on_c, 0, 61, 0
2, 31632, Note_on_c, 0, 62, 95
2, 31642, Note_on_c, 0, 62, 0
2, 31644, Note_on_c, 0, 64, 95
2, 31654, Note_on_c, 0, 64, 0
2, 31656, Note_on_c, 0, 68, 95
2, 31666, Note_on_c, 0, 68, 0
2, 31668, Note_on_c, 0, 59, 95
2, 31678, Note_on_c, 0, 59, 0
2, 31680, Note_on_c, 0, 61, 95
2, 31690, Note_on_c, 0, 61, 0
2, 31692, Note_on_c, 0, 76, 95
2, 31697, Note_on_c, 0, 76, 0
2, 31698, Note_on_c, 0, 74, 95
2, 31703, Note_on_c, 0, 74, 0
2, 31704, Note_on_c, 0, 73, 95
2, 31714, Note_on_c, 0, 73, 0
2, 31716, Note_on_c, 0, 76, 95
2, 31726, Note_on_c, 0, 76, 0
2, 31728, Note_on_c, 0, 71, 95
2, 31738, Note_on_c, 0, 71, 0
2, 31740, Note_on_c, 0, 76, 95
2, 31750, Note_on_c, 0, 76, 0
2, 31752, Note_on_c, 0, 69, 95
2, 31762, Note_on_c, 0, 69, 0
2, 31764, Note_on_c, 0, 76, 95
2, 31774, Note_on_c, 0, 76, 0
2, 31776, Note_on_c, 0, 68, 95
2, 31786, Note_on_c, 0, 68, 0
2, 31788, Note_on_c, 0, 76, 95
2, 31798, Note_on_c, 0, 76, 0
2, 31800, Note_on_c, 0, 69, 95
2, 31810, Note_on_c, 0, 69, 0
2, 31812, Note_on_c, 0, 76, 95
2, 31822, Note_on_c, 0, 76, 0
2, 31824, Note_on_c, 0, 68, 95
2, 31834, Note_on_c, 0, 68, 0
2, 31836, Note_on_c, 0, 76, 95
2, 31846, Note_on_c, 0, 76, 0
2, 31848, Note_on_c, 0, 66, 95
2, 31858, Note_on_c, 0, 66, 0
2, 31860, Note_on_c, 0, 76, 95
2, 31870, Note_on_c, 0, 76, 0
2, 31872, Note_on_c, 0, 64, 95
2, 31892, Note_on_c, 0, 64, 0
2, 31896, Note_on_c, 0, 78, 95
2, 31916, Note_on_c, 0, 78, 0
2, 31920, Note_on_c, 0, 76, 95
2, 31940, Note_on_c, 0, 76, 0
2, 31944, Note_on_c, 0, 74, 95
2, 31964, Note_on_c, 0, 74, 0
2, 31968, Note_on_c, 0, 73, 95
2, 31978, Note_on_c, 0, 73, 0
2, 31980, Note_on_c, 0, 74, 95
2, 31990, Note_on_c, 0, 74, 0
2, 31992, Note_on_c, 0, 74, 95
2, 31997, Note_on_c, 0, 74, 0
2, 31998, Note_on_c, 0, 76, 95
2, 32003, Note_on_c, 0, 76, 0
2, 32004, Note_on_c, 0, 73, 95
2, 32009, Note_on_c, 0, 73, 0
2, 32010, Note_on_c, 0, 74, 95
2, 32015, Note_on_c, 0, 74, 0
2, 32016, Note_on_c, 0, 76, 95
2, 32036, Note_on_c, 0, 76, 0
2, 32040, Note_on_c, 0, 74, 95
2, 32050, Note_on_c, 0, 74, 0
2, 32052, Note_on_c, 0, 73, 95
2, 32062, Note_on_c, 0, 73, 0
2, 32064, Note_on_c, 0, 78, 95
2, 32074, Note_on_c, 0, 78, 0
2, 32076, Note_on_c, 0, 79, 95
2, 32086, Note_on_c, 0, 79, 0
2, 32088, Note_on_c, 0, 78, 95
2, 32098, Note_on_c, 0, 78, 0
2, 32100, Note_on_c, 0, 76, 95
2, 32110, Note_on_c, 0, 76, 0
2, 32112, Note_on_c, 0, 74, 95
2, 32122, Note_on_c, 0, 74, 0
2, 32124, Note_on_c, 0, 73, 95
2, 32134, Note_on_c, 0, 73, 0
2, 32136, Note_on_c, 0, 71, 95
2, 32146, Note_on_c, 0, 71, 0
2, 32148, Note_on_c, 0, 69, 95
2, 32158, Note_on_c, 0, 69, 0
2, 32160, Note_on_c, 0, 71, 95
2, 32170, Note_on_c, 0, 71, 0
2, 32172, Note_on_c, 0, 74, 95
2, 32182, Note_on_c, 0, 74, 0
2, 32184, Note_on_c, 0, 73, 95
2, 32194, Note_on_c, 0, 73, 0
2, 32196, Note_on_c, 0, 76, 95
2, 32206, Note_on_c, 0, 76, 0
2, 32208, Note_on_c, 0, 74, 95
2, 32218, Note_on_c, 0, 74, 0
2, 32220, Note_on_c, 0, 73, 95
2, 32230, Note_on_c, 0, 73, 0
2, 32232, Note_on_c, 0, 74, 95
2, 32242, Note_on_c, 0, 74, 0
2, 32244, Note_on_c, 0, 71, 95
2, 32254, Note_on_c, 0, 71, 0
2, 32256, Note_on_c, 0, 76, 95
2, 32286, Note_on_c, 0, 76, 0
2, 32292, Note_on_c, 0, 74, 95
2, 32302, Note_on_c, 0, 74, 0
2, 32304, Note_on_c, 0, 73, 95
2, 32314, Note_on_c, 0, 73, 0
2, 32316, Note_on_c, 0, 71, 95
2, 32326, Note_on_c, 0, 71, 0
2, 32328, Note_on_c, 0, 69, 95
2, 32338, Note_on_c, 0, 69, 0
2, 32340, Note_on_c, 0, 68, 95
2, 32350, Note_on_c, 0, 68, 0
2, 32352, Note_on_c, 0, 69, 95
2, 32362, Note_on_c, 0, 69, 0
2, 32364, Note_on_c, 0, 68, 95
2, 32374, Note_on_c, 0, 68, 0
2, 32376, Note_on_c, 0, 66, 95
2, 32386, Note_on_c, 0, 66, 0
2, 32388, Note_on_c, 0, 69, 95
2, 32398, Note_on_c, 0, 69, 0
2, 32400, Note_on_c, 0, 73, 95
2, 32410, Note_on_c, 0, 73, 0
2, 32412, Note_on_c, 0, 76, 95
2, 32422, Note_on_c, 0, 76, 0
2, 32424, Note_on_c, 0, 74, 95
2, 32434, Note_on_c, 0, 74, 0
2, 32436, Note_on_c, 0, 73, 95
2, 32446, Note_on_c, 0, 73, 0
2, 32448, Note_on_c, 0, 74, 95
2, 32458, Note_on_c, 0, 74, 0
2, 32460, Note_on_c, 0, 73, 95
2, 32470, Note_on_c, 0, 73, 0
2, 32472, Note_on_c, 0, 71, 95
2, 32482, Note_on_c, 0, 71, 0
2, 32484, Note_on_c, 0, 74, 95
2, 32494, Note_on_c, 0, 74, 0
2, 32496, Note_on_c, 0, 78, 95
2, 32506, Note_on_c, 0, 78, 0
2, 32508, Note_on_c, 0, 81, 95
2, 32518, Note_on_c, 0, 81, 0
2, 32520, Note_on_c, 0, 80, 95
2, 32530, Note_on_c, 0, 80, 0
2, 32532, Note_on_c, 0, 78, 95
2, 32542, Note_on_c, 0, 78, 0
2, 32544, Note_on_c, 0, 80, 95
2, 32554, Note_on_c, 0, 80, 0
2, 32556, Note_on_c, 0, 81, 95
2, 32566, Note_on_c, 0, 81, 0
2, 32568, Note_on_c, 0, 83, 95
2, 32578, Note_on_c, 0, 83, 0
2, 32580, Note_on_c, 0, 80, 95
2, 32590, Note_on_c, 0, 80, 0
2, 32592, Note_on_c, 0, 74, 95
2, 32602, Note_on_c, 0, 74, 0
2, 32604, Note_on_c, 0, 78, 95
2, 32614, Note_on_c, 0, 78, 0
2, 32616, Note_on_c, 0, 76, 95
2, 32626, Note_on_c, 0, 76, 0
2, 32628, Note_on_c, 0, 74, 95
2, 32638, Note_on_c, 0, 74, 0
2, 32640, Note_on_c, 0, 73, 95
2, 32650, Note_on_c, 0, 73, 0
2, 32652, Note_on_c, 0, 81, 95
2, 32662, Note_on_c, 0, 81, 0
2, 32664, Note_on_c, 0, 80, 95
2, 32674, Note_on_c, 0, 80, 0
2, 32676, Note_on_c, 0, 78, 95
2, 32686, Note_on_c, 0, 78, 0
2, 32688, Note_on_c, 0, 76, 95
2, 32698, Note_on_c, 0, 76, 0
2, 32700, Note_on_c, 0, 74, 95
2, 32710, Note_on_c, 0, 74, 0
2, 32712, Note_on_c, 0, 73, 95
2, 32722, Note_on_c, 0, 73, 0
2, 32724, Note_on_c, 0, 74, 95
2, 32734, Note_on_c, 0, 74, 0
2, 32736, Note_on_c, 0, 76, 95
2, 32746, Note_on_c, 0, 76, 0
2, 32748, Note_on_c, 0, 74, 95
2, 32758, Note_on_c, 0, 74, 0
2, 32760, Note_on_c, 0, 76, 95
2, 32770, Note_on_c, 0, 76, 0
2, 32772, Note_on_c, 0, 78, 95
2, 32782, Note_on_c, 0, 78, 0
2, 32784, Note_on_c, 0, 71, 95
2, 32814, Note_on_c, 0, 71, 0
2, 32820, Note_on_c, 0, 69, 95
2, 32830, Note_on_c, 0, 69, 0
2, 32832, Note_on_c, 0, 69, 95
2, 32837, Note_on_c, 0, 69, 0
2, 32838, Note_on_c, 0, 71, 95
2, 32843, Note_on_c, 0, 71, 0
2, 32844, Note_on_c, 0, 69, 95
2, 32849, Note_on_c, 0, 69, 0
2, 32850, Note_on_c, 0, 71, 95
2, 32855, Note_on_c, 0, 71, 0
2, 32856, Note_on_c, 0, 69, 95
2, 32861, Note_on_c, 0, 69, 0
2, 32862, Note_on_c, 0, 71, 95
2, 32867, Note_on_c, 0, 71, 0
2, 32868, Note_on_c, 0, 69, 95
2, 32873, Note_on_c, 0, 69, 0
2, 32874, Note_on_c, 0, 71, 95
2, 32879, Note_on_c, 0, 71, 0
2, 32880, Note_on_c, 0, 69, 95
2, 32885, Note_on_c, 0, 69, 0
2, 32886, Note_on_c, 0, 71, 95
2, 32891, Note_on_c, 0, 71, 0
2, 32892, Note_on_c, 0, 69, 95
2, 32897, Note_on_c, 0, 69, 0
2, 32898, Note_on_c, 0, 71, 95
2, 32903, Note_on_c, 0, 71, 0
2, 32904, Note_on_c, 0, 69, 95
2, 32909, Note_on_c, 0, 69, 0
2, 32910, Note_on_c, 0, 71, 95
2, 32915, Note_on_c, 0, 71, 0
2, 32916, Note_on_c, 0, 69, 95
2, 32921, Note_on_c, 0, 69, 0
2, 32922, Note_on_c, 0, 71, 95
2, 32927, Note_on_c, 0, 71, 0
2, 32928, Note_on_c, 0, 69, 95
2, 32933, Note_on_c, 0, 69, 0
2, 32934, Note_on_c, 0, 71, 95
2, 32939, Note_on_c, 0, 71, 0
2, 32940, Note_on_c, 0, 69, 95
2, 32945, Note_on_c, 0, 69, 0
2, 32946, Note_on_c, 0, 71, 95
2, 32951, Note_on_c, 0, 71, 0
2, 32952, Note_on_c, 0, 69, 95
2, 32957, Note_on_c, 0, 69, 0
2, 32958, Note_on_c, 0, 71, 95
2, 32963, Note_on_c, 0, 71, 0
2, 32964, Note_on_c, 0, 69, 95
2, 32969, Note_on_c, 0, 69, 0
2, 32970, Note_on_c, 0, 71, 95
2, 32975, Note_on_c, 0, 71, 0
2, 32976, Note_on_c, 0, 69, 95
2, 32981, Note_on_c, 0, 69, 0
2, 32982, Note_on_c, 0, 71, 95
2, 32987, Note_on_c, 0, 71, 0
2, 32988, Note_on_c, 0, 69, 95
2, 32993, Note_on_c, 0, 69, 0
2, 32994, Note_on_c, 0, 71, 95
2, 32999, Note_on_c, 0, 71, 0
2, 33000, Note_on_c, 0, 69, 95
2, 33005, Note_on_c, 0, 69, 0
2, 33006, Note_on_c, 0, 71, 95
2, 33011, Note_on_c, 0, 71, 0
2, 33012, Note_on_c, 0, 69, 95
2, 33017, Note_on_c, 0, 69, 0
2, 33018, Note_on_c, 0, 71, 95
2, 33023, Note_on_c, 0, 71, 0
2, 33024, Note_on_c, 0, 69, 95
2, 33034, Note_on_c, 0, 69, 0
2, 33036, Note_on_c, 0, 67, 95
2, 33046, Note_on_c, 0, 67, 0
2, 33048, Note_on_c, 0, 66, 95
2, 33058, Note_on_c, 0, 66, 0
2, 33060, Note_on_c, 0, 69, 95
2, 33070, Note_on_c, 0, 69, 0
2, 33072, Note_on_c, 0, 64, 95
2, 33082, Note_on_c, 0, 64, 0
2, 33084, Note_on_c, 0, 69, 95
2, 33094, Note_on_c, 0, 69, 0
2, 33096, Note_on_c, 0, 62, 95
2, 33106, Note_on_c, 0, 62, 0
2, 33108, Note_on_c, 0, 69, 95
2, 33118, Note_on_c, 0, 69, 0
2, 33120, Note_on_c, 0, 61, 95
2, 33132, Note_on_c, 0, 67, 95
2, 33140, Note_on_c, 0, 61, 0
2, 33142, Note_on_c, 0, 67, 0
2, 33144, Note_on_c, 0, 62, 95
2, 33144, Note_on_c, 0, 66, 95
2, 33154, Note_on_c, 0, 66, 0
2, 33156, Note_on_c, 0, 69, 95
2, 33164, Note_on_c, 0, 62, 0
2, 33166, Note_on_c, 0, 69, 0
2, 33168, Note_on_c, 0, 61, 95
2, 33168, Note_on_c, 0, 64, 95
2, 33178, Note_on_c, 0, 64, 0
2, 33180, Note_on_c, 0, 69, 95
2, 33188, Note_on_c, 0, 61, 0
2, 33190, Note_on_c, 0, 69, 0
2, 33192, Note_on_c, 0, 59, 95
2, 33192, Note_on_c, 0, 62, 95
2, 33202, Note_on_c, 0, 62, 0
2, 33204, Note_on_c, 0, 69, 95
2, 33212, Note_on_c, 0, 59, 0
2, 33214, Note_on_c, 0, 69, 0
2, 33216, Note_on_c, 0, 57, 95
2, 33216, Note_on_c, 0, 61, 95
2, 33226, Note_on_c, 0, 61, 0
2, 33228, Note_on_c, 0, 67, 95
2, 33236, Note_on_c, 0, 57, 0
2, 33238, Note_on_c, 0, 67, 0
2, 33240, Note_on_c, 0, 66, 95
2, 33250, Note_on_c, 0, 66, 0
2, 33252, Note_on_c, 0, 57, 95
2, 33262, Note_on_c, 0, 57, 0
2, 33264, Note_on_c, 0, 64, 95
2, 33274, Note_on_c, 0, 64, 0
2, 33276, Note_on_c, 0, 57, 95
2, 33286, Note_on_c, 0, 57, 0
2, 33288, Note_on_c, 0, 62, 95
2, 33298, Note_on_c, 0, 62, 0
2, 33300, Note_on_c, 0, 57, 95
2, 33310, Note_on_c, 0, 57, 0
2, 33312, Note_on_c, 0, 61, 95
2, 33322, Note_on_c, 0, 61, 0
2, 33324, Note_on_c, 0, 57, 95
2, 33334, Note_on_c, 0, 57, 0
2, 33336, Note_on_c, 0, 62, 95
2, 33346, Note_on_c, 0, 62, 0
2, 33348, Note_on_c, 0, 67, 95
2, 33358, Note_on_c, 0, 67, 0
2, 33360, Note_on_c, 0, 61, 95
2, 33370, Note_on_c, 0, 61, 0
2, 33372, Note_on_c, 0, 66, 95
2, 33382, Note_on_c, 0, 66, 0
2, 33384, Note_on_c, 0, 59, 95
2, 33394, Note_on_c, 0, 59, 0
2, 33396, Note_on_c, 0, 64, 95
2, 33406, Note_on_c, 0, 64, 0
2, 33408, Note_on_c, 0, 57, 95
2, 33418, Note_on_c, 0, 57, 0
2, 33420, Note_on_c, 0, 62, 95
2, 33430, Note_on_c, 0, 62, 0
2, 33432, Note_on_c, 0, 57, 95
2, 33432, Note_on_c, 0, 61, 95
2, 33442, Note_on_c, 0, 61, 0
2, 33444, Note_on_c, 0, 69, 95
2, 33452, Note_on_c, 0, 57, 0
2, 33454, Note_on_c, 0, 69, 0
2, 33456, Note_on_c, 0, 59, 95
2, 33456, Note_on_c, 0, 62, 95
2, 33466, Note_on_c, 0, 62, 0
2, 33468, Note_on_c, 0, 69, 95
2, 33476, Note_on_c, 0, 59, 0
2, 33478, Note_on_c, 0, 69, 0
2, 33480, Note_on_c, 0, 61, 95
2, 33480, Note_on_c, 0, 64, 95
2, 33490, Note_on_c, 0, 64, 0
2, 33492, Note_on_c, 0, 69, 95
2, 33500, Note_on_c, 0, 61, 0
2, 33502, Note_on_c, 0, 69, 0
2, 33504, Note_on_c, 0, 62, 95
2, 33504, Note_on_c, 0, 66, 95
2, 33514, Note_on_c, 0, 66, 0
2, 33516, Note_on_c, 0, 69, 95
2, 33524, Note_on_c, 0, 62, 0
2, 33526, Note_on_c, 0, 69, 0
2, 33528, Note_on_c, 0, 61, 95
2, 33528, Note_on_c, 0, 64, 95
2, 33538, Note_on_c, 0, 64, 0
2, 33540, Note_on_c, 0, 69, 95
2, 33548, Note_on_c, 0, 61, 0
2, 33550, Note_on_c, 0, 69, 0
2, 33552, Note_on_c, 0, 62, 95
2, 33552, Note_on_c, 0, 66, 95
2, 33562, Note_on_c, 0, 66, 0
2, 33564, Note_on_c, 0, 71, 95
2, 33572, Note_on_c, 0, 62, 0
2, 33574, Note_on_c, 0, 71, 0
2, 33576, Note_on_c, 0, 64, 95
2, 33576, Note_on_c, 0, 67, 95
2, 33586, Note_on_c, 0, 67, 0
2, 33588, Note_on_c, 0, 73, 95
2, 33596, Note_on_c, 0, 64, 0
2, 33598, Note_on_c, 0, 73, 0
2, 33600, Note_on_c, 0, 66, 95
2, 33600, Note_on_c, 0, 74, 95
2, 33605, Note_on_c, 0, 74, 0
2, 33606, Note_on_c, 0, 76, 95
2, 33611, Note_on_c, 0, 76, 0
2, 33612, Note_on_c, 0, 74, 95
2, 33617, Note_on_c, 0, 74, 0
2, 33618, Note_on_c, 0, 76, 95
2, 33620, Note_on_c, 0, 66, 0
2, 33623, Note_on_c, 0, 76, 0
2, 33624, Note_on_c, 0, 74, 95
2, 33629, Note_on_c, 0, 74, 0
2, 33630, Note_on_c, 0, 76, 95
2, 33635, Note_on_c, 0, 76, 0
2, 33636, Note_on_c, 0, 74, 95
2, 33641, Note_on_c, 0, 74, 0
2, 33642, Note_on_c, 0, 76, 95
2, 33647, Note_on_c, 0, 76, 0
2, 33648, Note_on_c, 0, 74, 95
2, 33653, Note_on_c, 0, 74, 0
2, 33654, Note_on_c, 0, 76, 95
2, 33659, Note_on_c, 0, 76, 0
2, 33660, Note_on_c, 0, 74, 95
2, 33665, Note_on_c, 0, 74, 0
2, 33666, Note_on_c, 0, 76, 95
2, 33671, Note_on_c, 0, 76, 0
2, 33672, Note_on_c, 0, 74, 95
2, 33677, Note_on_c, 0, 74, 0
2, 33678, Note_on_c, 0, 76, 95
2, 33683, Note_on_c, 0, 76, 0
2, 33684, Note_on_c, 0, 74, 95
2, 33689, Note_on_c, 0, 74, 0
2, 33690, Note_on_c, 0, 76, 95
2, 33695, Note_on_c, 0, 76, 0
2, 33696, Note_on_c, 0, 74, 95
2, 33701, Note_on_c, 0, 74, 0
2, 33702, Note_on_c, 0, 76, 95
2, 33707, Note_on_c, 0, 76, 0
2, 33708, Note_on_c, 0, 74, 95
2, 33713, Note_on_c, 0, 74, 0
2, 33714, Note_on_c, 0, 76, 95
2, 33719, Note_on_c, 0, 76, 0
2, 33720, Note_on_c, 0, 74, 95
2, 33725, Note_on_c, 0, 74, 0
2, 33726, Note_on_c, 0, 76, 95
2, 33731, Note_on_c, 0, 76, 0
2, 33732, Note_on_c, 0, 74, 95
2, 33737, Note_on_c, 0, 74, 0
2, 33738, Note_on_c, 0, 76, 95
2, 33743, Note_on_c, 0, 76, 0
2, 33744, Note_on_c, 0, 74, 95
2, 33749, Note_on_c, 0, 74, 0
2, 33750, Note_on_c, 0, 76, 95
2, 33755, Note_on_c, 0, 76, 0
2, 33756, Note_on_c, 0, 74, 95
2, 33761, Note_on_c, 0, 74, 0
2, 33762, Note_on_c, 0, 76, 95
2, 33767, Note_on_c, 0, 76, 0
2, 33768, Note_on_c, 0, 74, 95
2, 33773, Note_on_c, 0, 74, 0
2, 33774, Note_on_c, 0, 76, 95
2, 33779, Note_on_c, 0, 76, 0
2, 33780, Note_on_c, 0, 74, 95
2, 33785, Note_on_c, 0, 74, 0
2, 33786, Note_on_c, 0, 76, 95
2, 33791, Note_on_c, 0, 76, 0
2, 33792, Note_on_c, 0, 74, 95
2, 33802, Note_on_c, 0, 74, 0
2, 33804, Note_on_c, 0, 72, 95
2, 33814, Note_on_c, 0, 72, 0
2, 33816, Note_on_c, 0, 71, 95
2, 33826, Note_on_c, 0, 71, 0
2, 33828, Note_on_c, 0, 74, 95
2, 33838, Note_on_c, 0, 74, 0
2, 33840, Note_on_c, 0, 69, 95
2, 33850, Note_on_c, 0, 69, 0
2, 33852, Note_on_c, 0, 74, 95
2, 33862, Note_on_c, 0, 74, 0
2, 33864, Note_on_c, 0, 67, 95
2, 33874, Note_on_c, 0, 67, 0
2, 33876, Note_on_c, 0, 74, 95
2, 33886, Note_on_c, 0, 74, 0
2, 33888, Note_on_c, 0, 66, 95
2, 33898, Note_on_c, 0, 66, 0
2, 33900, Note_on_c, 0, 72, 95
2, 33910, Note_on_c, 0, 72, 0
2, 33912, Note_on_c, 0, 67, 95
2, 33912, Note_on_c, 0, 71, 95
2, 33922, Note_on_c, 0, 71, 0
2, 33924, Note_on_c, 0, 74, 95
2, 33932, Note_on_c, 0, 67, 0
2, 33934, Note_on_c, 0, 74, 0
2, 33936, Note_on_c, 0, 66, 95
2, 33936, Note_on_c, 0, 69, 95
2, 33946, Note_on_c, 0, 69, 0
2, 33948, Note_on_c, 0, 74, 95
2, 33956, Note_on_c, 0, 66, 0
2, 33958, Note_on_c, 0, 74, 0
2, 33960, Note_on_c, 0, 64, 95
2, 33960, Note_on_c, 0, 67, 95
2, 33970, Note_on_c, 0, 67, 0
2, 33972, Note_on_c, 0, 74, 95
2, 33980, Note_on_c, 0, 64, 0
2, 33982, Note_on_c, 0, 74, 0
2, 33984, Note_on_c, 0, 62, 95
2, 33984, Note_on_c, 0, 66, 95
2, 33994, Note_on_c, 0, 66, 0
2, 33994, Note_on_c, 0, 62, 0
2, 33996, Note_on_c, 0, 72, 95
2, 34006, Note_on_c, 0, 72, 0
2, 34008, Note_on_c, 0, 71, 95
2, 34018, Note_on_c, 0, 71, 0
2, 34020, Note_on_c, 0, 62, 95
2, 34030, Note_on_c, 0, 62, 0
2, 34032, Note_on_c, 0, 69, 95
2, 34042, Note_on_c, 0, 69, 0
2, 34044, Note_on_c, 0, 62, 95
2, 34054, Note_on_c, 0, 62, 0
2, 34056, Note_on_c, 0, 67, 95
2, 34066, Note_on_c, 0, 67, 0
2, 34068, Note_on_c, 0, 62, 95
2, 34078, Note_on_c, 0, 62, 0
2, 34080, Note_on_c, 0, 66, 95
2, 34090, Note_on_c, 0, 66, 0
2, 34092, Note_on_c, 0, 62, 95
2, 34102, Note_on_c, 0, 62, 0
2, 34104, Note_on_c, 0, 67, 95
2, 34114, Note_on_c, 0, 67, 0
2, 34116, Note_on_c, 0, 72, 95
2, 34126, Note_on_c, 0, 72, 0
2, 34128, Note_on_c, 0, 66, 95
2, 34138, Note_on_c, 0, 66, 0
2, 34140, Note_on_c, 0, 71, 95
2, 34150, Note_on_c, 0, 71, 0
2, 34152, Note_on_c, 0, 64, 95
2, 34162, Note_on_c, 0, 64, 0
2, 34164, Note_on_c, 0, 69, 95
2, 34174, Note_on_c, 0, 69, 0
2, 34176, Note_on_c, 0, 62, 95
2, 34186, Note_on_c, 0, 62, 0
2, 34188, Note_on_c, 0, 67, 95
2, 34198, Note_on_c, 0, 67, 0
2, 34200, Note_on_c, 0, 62, 95
2, 34200, Note_on_c, 0, 66, 95
2, 34210, Note_on_c, 0, 66, 0
2, 34212, Note_on_c, 0, 74, 95
2, 34220, Note_on_c, 0, 62, 0
2, 34222, Note_on_c, 0, 74, 0
2, 34224, Note_on_c, 0, 64, 95
2, 34224, Note_on_c, 0, 67, 95
2, 34234, Note_on_c, 0, 67, 0
2, 34236, Note_on_c, 0, 74, 95
2, 34244, Note_on_c, 0, 64, 0
2, 34246, Note_on_c, 0, 74, 0
2, 34248, Note_on_c, 0, 66, 95
2, 34248, Note_on_c, 0, 69, 95
2, 34258, Note_on_c, 0, 69, 0
2, 34260, Note_on_c, 0, 74, 95
2, 34268, Note_on_c, 0, 66, 0
2, 34270, Note_on_c, 0, 74, 0
2, 34272, Note_on_c, 0, 67, 95
2, 34272, Note_on_c, 0, 71, 95
2, 34282, Note_on_c, 0, 71, 0
2, 34284, Note_on_c, 0, 74, 95
2, 34292, Note_on_c, 0, 67, 0
2, 34294, Note_on_c, 0, 74, 0
2, 34296, Note_on_c, 0, 66, 95
2, 34296, Note_on_c, 0, 69, 95
2, 34306, Note_on_c, 0, 69, 0
2, 34308, Note_on_c, 0, 74, 95
2, 34316, Note_on_c, 0, 66, 0
2, 34318, Note_on_c, 0, 74, 0
2, 34320, Note_on_c, 0, 67, 95
2, 34320, Note_on_c, 0, 71, 95
2, 34330, Note_on_c, 0, 71, 0
2, 34332, Note_on_c, 0, 76, 95
2, 34340, Note_on_c, 0, 67, 0
2, 34342, Note_on_c, 0, 76, 0
2, 34344, Note_on_c, 0, 69, 95
2, 34344, Note_on_c, 0, 72, 95
2, 34354, Note_on_c, 0, 72, 0
2, 34356, Note_on_c, 0, 78, 95
2, 34364, Note_on_c, 0, 69, 0
2, 34366, Note_on_c, 0, 78, 0
2, 34368, Note_on_c, 0, 71, 95
2, 34368, Note_on_c, 0, 74, 95
2, 34378, Note_on_c, 0, 74, 0
2, 34380, Note_on_c, 0, 79, 95
2, 34388, Note_on_c, 0, 71, 0
2, 34390, Note_on_c, 0, 79, 0
2, 34392, Note_on_c, 0, 66, 95
2, 34392, Note_on_c, 0, 69, 95
2, 34402, Note_on_c, 0, 69, 0
2, 34404, Note_on_c, 0, 74, 95
2, 34412, Note_on_c, 0, 66, 0
2, 34414, Note_on_c, 0, 74, 0
2, 34416, Note_on_c, 0, 67, 95
2, 34416, Note_on_c, 0, 71, 95
2, 34426, Note_on_c, 0, 71, 0
2, 34428, Note_on_c, 0, 76, 95
2, 34436, Note_on_c, 0, 67, 0
2, 34438, Note_on_c, 0, 76, 0
2, 34440, Note_on_c, 0, 69, 95
2, 34440, Note_on_c, 0, 72, 95
2, 34450, Note_on_c, 0, 72, 0
2, 34452, Note_on_c, 0, 78, 95
2, 34460, Note_on_c, 0, 69, 0
2, 34462, Note_on_c, 0, 78, 0
2, 34464, Note_on_c, 0, 71, 95
2, 34464, Note_on_c, 0, 74, 95
2, 34474, Note_on_c, 0, 74, 0
2, 34476, Note_on_c, 0, 79, 95
2, 34484, Note_on_c, 0, 71, 0
2, 34486, Note_on_c, 0, 79, 0
2, 34488, Note_on_c, 0, 69, 95
2, 34488, Note_on_c, 0, 74, 95
2, 34498, Note_on_c, 0, 74, 0
2, 34500, Note_on_c, 0, 78, 95
2, 34508, Note_on_c, 0, 69, 0
2, 34510, Note_on_c, 0, 78, 0
2, 34512, Note_on_c, 0, 71, 95
2, 34512, Note_on_c, 0, 76, 95
2, 34522, Note_on_c, 0, 76, 0
2, 34524, Note_on_c, 0, 79, 95
2, 34532, Note_on_c, 0, 71, 0
2, 34534, Note_on_c, 0, 79, 0
2, 34536, Note_on_c, 0, 72, 95
2, 34536, Note_on_c, 0, 78, 95
2, 34546, Note_on_c, 0, 78, 0
2, 34548, Note_on_c, 0, 81, 95
2, 34556, Note_on_c, 0, 72, 0
2, 34558, Note_on_c, 0, 81, 0
2, 34560, Note_on_c, 0, 74, 95
2, 34560, Note_on_c, 0, 79, 95
2, 34570, Note_on_c, 0, 79, 0
2, 34570, Note_on_c, 0, 74, 0
2, 34572, Note_on_c, 0, 83, 95
2, 34582, Note_on_c, 0, 83, 0
2, 34584, Note_on_c, 0, 81, 95
2, 34594, Note_on_c, 0, 81, 0
2, 34596, Note_on_c, 0, 83, 95
2, 34606, Note_on_c, 0, 83, 0
2, 34608, Note_on_c, 0, 79, 95
2, 34618, Note_on_c, 0, 79, 0
2, 34620, Note_on_c, 0, 83, 95
2, 34630, Note_on_c, 0, 83, 0
2, 34632, Note_on_c, 0, 78, 95
2, 34642, Note_on_c, 0, 78, 0
2, 34644, Note_on_c, 0, 83, 95
2, 34654, Note_on_c, 0, 83, 0
2, 34656, Note_on_c, 0, 76, 95
2, 34666, Note_on_c, 0, 76, 0
2, 34668, Note_on_c, 0, 83, 95
2, 34678, Note_on_c, 0, 83, 0
2, 34680, Note_on_c, 0, 74, 95
2, 34690, Note_on_c, 0, 74, 0
2, 34692, Note_on_c, 0, 83, 95
2, 34702, Note_on_c, 0, 83, 0
2, 34704, Note_on_c, 0, 73, 95
2, 34714, Note_on_c, 0, 73, 0
2, 34716, Note_on_c, 0, 83, 95
2, 34726, Note_on_c, 0, 83, 0
2, 34728, Note_on_c, 0, 71, 95
2, 34738, Note_on_c, 0, 71, 0
2, 34740, Note_on_c, 0, 83, 95
2, 34750, Note_on_c, 0, 83, 0
2, 34752, Note_on_c, 0, 69, 95
2, 34762, Note_on_c, 0, 69, 0
2, 34764, Note_on_c, 0, 81, 95
2, 34774, Note_on_c, 0, 81, 0
2, 34776, Note_on_c, 0, 79, 95
2, 34786, Note_on_c, 0, 79, 0
2, 34788, Note_on_c, 0, 81, 95
2, 34798, Note_on_c, 0, 81, 0
2, 34800, Note_on_c, 0, 78, 95
2, 34810, Note_on_c, 0, 78, 0
2, 34812, Note_on_c, 0, 81, 95
2, 34822, Note_on_c, 0, 81, 0
2, 34824, Note_on_c, 0, 76, 95
2, 34834, Note_on_c, 0, 76, 0
2, 34836, Note_on_c, 0, 81, 95
2, 34846, Note_on_c, 0, 81, 0
2, 34848, Note_on_c, 0, 74, 95
2, 34872, Note_on_c, 0, 73, 95
2, 34892, Note_on_c, 0, 73, 0
2, 34896, Note_on_c, 0, 71, 95
2, 34916, Note_on_c, 0, 71, 0
2, 34920, Note_on_c, 0, 69, 95
2, 34928, Note_on_c, 0, 74, 0
2, 34940, Note_on_c, 0, 69, 0
2, 34944, Note_on_c, 0, 67, 95
2, 34954, Note_on_c, 0, 67, 0
2, 34956, Note_on_c, 0, 79, 95
2, 34966, Note_on_c, 0, 79, 0
2, 34968, Note_on_c, 0, 78, 95
2, 34978, Note_on_c, 0, 78, 0
2, 34980, Note_on_c, 0, 79, 95
2, 34990, Note_on_c, 0, 79, 0
2, 34992, Note_on_c, 0, 76, 95
2, 35002, Note_on_c, 0, 76, 0
2, 35004, Note_on_c, 0, 79, 95
2, 35014, Note_on_c, 0, 79, 0
2, 35016, Note_on_c, 0, 74, 95
2, 35026, Note_on_c, 0, 74, 0
2, 35028, Note_on_c, 0, 79, 95
2, 35038, Note_on_c, 0, 79, 0
2, 35040, Note_on_c, 0, 73, 95
2, 35064, Note_on_c, 0, 83, 95
2, 35084, Note_on_c, 0, 83, 0
2, 35088, Note_on_c, 0, 81, 95
2, 35108, Note_on_c, 0, 81, 0
2, 35112, Note_on_c, 0, 79, 95
2, 35120, Note_on_c, 0, 73, 0
2, 35132, Note_on_c, 0, 79, 0
2, 35136, Note_on_c, 0, 78, 95
2, 35146, Note_on_c, 0, 78, 0
2, 35148, Note_on_c, 0, 69, 95
2, 35158, Note_on_c, 0, 69, 0
2, 35160, Note_on_c, 0, 74, 95
2, 35170, Note_on_c, 0, 74, 0
2, 35172, Note_on_c, 0, 76, 95
2, 35182, Note_on_c, 0, 76, 0
2, 35184, Note_on_c, 0, 78, 95
2, 35194, Note_on_c, 0, 78, 0
2, 35196, Note_on_c, 0, 69, 95
2, 35206, Note_on_c, 0, 69, 0
2, 35208, Note_on_c, 0, 74, 95
2, 35218, Note_on_c, 0, 74, 0
2, 35220, Note_on_c, 0, 76, 95
2, 35230, Note_on_c, 0, 76, 0
2, 35232, Note_on_c, 0, 78, 95
2, 35242, Note_on_c, 0, 78, 0
2, 35244, Note_on_c, 0, 69, 95
2, 35254, Note_on_c, 0, 69, 0
2, 35256, Note_on_c, 0, 74, 95
2, 35266, Note_on_c, 0, 74, 0
2, 35268, Note_on_c, 0, 76, 95
2, 35278, Note_on_c, 0, 76, 0
2, 35280, Note_on_c, 0, 78, 95
2, 35290, Note_on_c, 0, 78, 0
2, 35292, Note_on_c, 0, 69, 95
2, 35302, Note_on_c, 0, 69, 0
2, 35304, Note_on_c, 0, 74, 95
2, 35314, Note_on_c, 0, 74, 0
2, 35316, Note_on_c, 0, 76, 95
2, 35326, Note_on_c, 0, 76, 0
2, 35328, Note_on_c, 0, 71, 95
2, 35338, Note_on_c, 0, 71, 0
2, 35340, Note_on_c, 0, 74, 95
2, 35350, Note_on_c, 0, 74, 0
2, 35352, Note_on_c, 0, 78, 95
2, 35362, Note_on_c, 0, 78, 0
2, 35364, Note_on_c, 0, 69, 95
2, 35374, Note_on_c, 0, 69, 0
2, 35376, Note_on_c, 0, 71, 95
2, 35386, Note_on_c, 0, 71, 0
2, 35388, Note_on_c, 0, 74, 95
2, 35398, Note_on_c, 0, 74, 0
2, 35400, Note_on_c, 0, 78, 95
2, 35410, Note_on_c, 0, 78, 0
2, 35412, Note_on_c, 0, 69, 95
2, 35422, Note_on_c, 0, 69, 0
2, 35424, Note_on_c, 0, 67, 95
2, 35434, Note_on_c, 0, 67, 0
2, 35436, Note_on_c, 0, 71, 95
2, 35446, Note_on_c, 0, 71, 0
2, 35448, Note_on_c, 0, 76, 95
2, 35458, Note_on_c, 0, 76, 0
2, 35460, Note_on_c, 0, 66, 95
2, 35470, Note_on_c, 0, 66, 0
2, 35472, Note_on_c, 0, 67, 95
2, 35482, Note_on_c, 0, 67, 0
2, 35484, Note_on_c, 0, 71, 95
2, 35494, Note_on_c, 0, 71, 0
2, 35496, Note_on_c, 0, 74, 95
2, 35506, Note_on_c, 0, 74, 0
2, 35508, Note_on_c, 0, 64, 95
2, 35518, Note_on_c, 0, 64, 0
2, 35520, Note_on_c, 0, 67, 95
2, 35530, Note_on_c, 0, 67, 0
2, 35532, Note_on_c, 0, 69, 95
2, 35542, Note_on_c, 0, 69, 0
2, 35544, Note_on_c, 0, 73, 95
2, 35554, Note_on_c, 0, 73, 0
2, 35556, Note_on_c, 0, 66, 95
2, 35566, Note_on_c, 0, 66, 0
2, 35568, Note_on_c, 0, 67, 95
2, 35578, Note_on_c, 0, 67, 0
2, 35580, Note_on_c, 0, 69, 95
2, 35590, Note_on_c, 0, 69, 0
2, 35592, Note_on_c, 0, 73, 95
2, 35602, Note_on_c, 0, 73, 0
2, 35604, Note_on_c, 0, 66, 95
2, 35614, Note_on_c, 0, 66, 0
2, 35616, Note_on_c, 0, 67, 95
2, 35626, Note_on_c, 0, 67, 0
2, 35628, Note_on_c, 0, 69, 95
2, 35638, Note_on_c, 0, 69, 0
2, 35640, Note_on_c, 0, 73, 95
2, 35650, Note_on_c, 0, 73, 0
2, 35652, Note_on_c, 0, 66, 95
2, 35662, Note_on_c, 0, 66, 0
2, 35664, Note_on_c, 0, 67, 95
2, 35674, Note_on_c, 0, 67, 0
2, 35676, Note_on_c, 0, 69, 95
2, 35686, Note_on_c, 0, 69, 0
2, 35688, Note_on_c, 0, 73, 95
2, 35698, Note_on_c, 0, 73, 0
2, 35700, Note_on_c, 0, 64, 95
2, 35710, Note_on_c, 0, 64, 0
2, 35712, Note_on_c, 0, 66, 95
2, 35722, Note_on_c, 0, 66, 0
2, 35724, Note_on_c, 0, 69, 95
2, 35734, Note_on_c, 0, 69, 0
2, 35736, Note_on_c, 0, 74, 95
2, 35746, Note_on_c, 0, 74, 0
2, 35748, Note_on_c, 0, 64, 95
2, 35758, Note_on_c, 0, 64, 0
2, 35760, Note_on_c, 0, 66, 95
2, 35770, Note_on_c, 0, 66, 0
2, 35772, Note_on_c, 0, 69, 95
2, 35782, Note_on_c, 0, 69, 0
2, 35784, Note_on_c, 0, 74, 95
2, 35794, Note_on_c, 0, 74, 0
2, 35796, Note_on_c, 0, 62, 95
2, 35806, Note_on_c, 0, 62, 0
2, 35808, Note_on_c, 0, 66, 95
2, 35818, Note_on_c, 0, 66, 0
2, 35820, Note_on_c, 0, 69, 95
2, 35830, Note_on_c, 0, 69, 0
2, 35832, Note_on_c, 0, 74, 95
2, 35842, Note_on_c, 0, 74, 0
2, 35844, Note_on_c, 0, 64, 95
2, 35854, Note_on_c, 0, 64, 0
2, 35856, Note_on_c, 0, 66, 95
2, 35866, Note_on_c, 0, 66, 0
2, 35868, Note_on_c, 0, 69, 95
2, 35878, Note_on_c, 0, 69, 0
2, 35880, Note_on_c, 0, 74, 95
2, 35890, Note_on_c, 0, 74, 0
2, 35892, Note_on_c, 0, 62, 95
2, 35902, Note_on_c, 0, 62, 0
2, 35904, Note_on_c, 0, 68, 95
2, 35914, Note_on_c, 0, 68, 0
2, 35916, Note_on_c, 0, 71, 95
2, 35926, Note_on_c, 0, 71, 0
2, 35928, Note_on_c, 0, 74, 95
2, 35938, Note_on_c, 0, 74, 0
2, 35940, Note_on_c, 0, 66, 95
2, 35950, Note_on_c, 0, 66, 0
2, 35952, Note_on_c, 0, 68, 95
2, 35962, Note_on_c, 0, 68, 0
2, 35964, Note_on_c, 0, 71, 95
2, 35974, Note_on_c, 0, 71, 0
2, 35976, Note_on_c, 0, 74, 95
2, 35986, Note_on_c, 0, 74, 0
2, 35988, Note_on_c, 0, 64, 95
2, 35998, Note_on_c, 0, 64, 0
2, 36000, Note_on_c, 0, 68, 95
2, 36010, Note_on_c, 0, 68, 0
2, 36012, Note_on_c, 0, 71, 95
2, 36022, Note_on_c, 0, 71, 0
2, 36024, Note_on_c, 0, 74, 95
2, 36034, Note_on_c, 0, 74, 0
2, 36036, Note_on_c, 0, 66, 95
2, 36046, Note_on_c, 0, 66, 0
2, 36048, Note_on_c, 0, 68, 95
2, 36058, Note_on_c, 0, 68, 0
2, 36060, Note_on_c, 0, 71, 95
2, 36070, Note_on_c, 0, 71, 0
2, 36072, Note_on_c, 0, 74, 95
2, 36082, Note_on_c, 0, 74, 0
2, 36084, Note_on_c, 0, 64, 95
2, 36094, Note_on_c, 0, 64, 0
2, 36096, Note_on_c, 0, 69, 95
2, 36106, Note_on_c, 0, 69, 0
2, 36108, Note_on_c, 0, 71, 95
2, 36118, Note_on_c, 0, 71, 0
2, 36120, Note_on_c, 0, 73, 95
2, 36130, Note_on_c, 0, 73, 0
2, 36132, Note_on_c, 0, 67, 95
2, 36142, Note_on_c, 0, 67, 0
2, 36144, Note_on_c, 0, 66, 95
2, 36154, Note_on_c, 0, 66, 0
2, 36156, Note_on_c, 0, 69, 95
2, 36166, Note_on_c, 0, 69, 0
2, 36168, Note_on_c, 0, 74, 95
2, 36178, Note_on_c, 0, 74, 0
2, 36180, Note_on_c, 0, 62, 95
2, 36190, Note_on_c, 0, 62, 0
2, 36192, Note_on_c, 0, 69, 95
2, 36202, Note_on_c, 0, 69, 0
2, 36204, Note_on_c, 0, 71, 95
2, 36214, Note_on_c, 0, 71, 0
2, 36216, Note_on_c, 0, 73, 95
2, 36226, Note_on_c, 0, 73, 0
2, 36228, Note_on_c, 0, 67, 95
2, 36238, Note_on_c, 0, 67, 0
2, 36240, Note_on_c, 0, 66, 95
2, 36250, Note_on_c, 0, 66, 0
2, 36252, Note_on_c, 0, 69, 95
2, 36262, Note_on_c, 0, 69, 0
2, 36264, Note_on_c, 0, 74, 95
2, 36274, Note_on_c, 0, 74, 0
2, 36276, Note_on_c, 0, 62, 95
2, 36286, Note_on_c, 0, 62, 0
2, 36288, Note_on_c, 0, 69, 95
2, 36298, Note_on_c, 0, 69, 0
2, 36300, Note_on_c, 0, 71, 95
2, 36310, Note_on_c, 0, 71, 0
2, 36312, Note_on_c, 0, 73, 95
2, 36322, Note_on_c, 0, 73, 0
2, 36324, Note_on_c, 0, 67, 95
2, 36334, Note_on_c, 0, 67, 0
2, 36336, Note_on_c, 0, 66, 95
2, 36346, Note_on_c, 0, 66, 0
2, 36348, Note_on_c, 0, 69, 95
2, 36358, Note_on_c, 0, 69, 0
2, 36360, Note_on_c, 0, 74, 95
2, 36370, Note_on_c, 0, 74, 0
2, 36372, Note_on_c, 0, 73, 95
2, 36382, Note_on_c, 0, 73, 0
2, 36384, Note_on_c, 0, 71, 95
2, 36394, Note_on_c, 0, 71, 0
2, 36396, Note_on_c, 0, 73, 95
2, 36406, Note_on_c, 0, 73, 0
2, 36408, Note_on_c, 0, 74, 95
2, 36418, Note_on_c, 0, 74, 0
2, 36420, Note_on_c, 0, 69, 95
2, 36430, Note_on_c, 0, 69, 0
2, 36432, Note_on_c, 0, 67, 95
2, 36442, Note_on_c, 0, 67, 0
2, 36444, Note_on_c, 0, 71, 95
2, 36454, Note_on_c, 0, 71, 0
2, 36456, Note_on_c, 0, 76, 95
2, 36466, Note_on_c, 0, 76, 0
2, 36468, Note_on_c, 0, 74, 95
2, 36478, Note_on_c, 0, 74, 0
2, 36480, Note_on_c, 0, 73, 95
2, 36490, Note_on_c, 0, 73, 0
2, 36492, Note_on_c, 0, 74, 95
2, 36502, Note_on_c, 0, 74, 0
2, 36504, Note_on_c, 0, 76, 95
2, 36514, Note_on_c, 0, 76, 0
2, 36516, Note_on_c, 0, 71, 95
2, 36526, Note_on_c, 0, 71, 0
2, 36528, Note_on_c, 0, 69, 95
2, 36538, Note_on_c, 0, 69, 0
2, 36540, Note_on_c, 0, 73, 95
2, 36550, Note_on_c, 0, 73, 0
2, 36552, Note_on_c, 0, 78, 95
2, 36562, Note_on_c, 0, 78, 0
2, 36564, Note_on_c, 0, 76, 95
2, 36574, Note_on_c, 0, 76, 0
2, 36576, Note_on_c, 0, 74, 95
2, 36586, Note_on_c, 0, 74, 0
2, 36588, Note_on_c, 0, 76, 95
2, 36598, Note_on_c, 0, 76, 0
2, 36600, Note_on_c, 0, 78, 95
2, 36610, Note_on_c, 0, 78, 0
2, 36612, Note_on_c, 0, 73, 95
2, 36622, Note_on_c, 0, 73, 0
2, 36624, Note_on_c, 0, 71, 95
2, 36634, Note_on_c, 0, 71, 0
2, 36636, Note_on_c, 0, 74, 95
2, 36646, Note_on_c, 0, 74, 0
2, 36648, Note_on_c, 0, 79, 95
2, 36658, Note_on_c, 0, 79, 0
2, 36660, Note_on_c, 0, 78, 95
2, 36670, Note_on_c, 0, 78, 0
2, 36672, Note_on_c, 0, 76, 95
2, 36682, Note_on_c, 0, 76, 0
2, 36684, Note_on_c, 0, 78, 95
2, 36694, Note_on_c, 0, 78, 0
2, 36696, Note_on_c, 0, 79, 95
2, 36706, Note_on_c, 0, 79, 0
2, 36708, Note_on_c, 0, 74, 95
2, 36718, Note_on_c, 0, 74, 0
2, 36720, Note_on_c, 0, 73, 95
2, 36730, Note_on_c, 0, 73, 0
2, 36732, Note_on_c, 0, 76, 95
2, 36742, Note_on_c, 0, 76, 0
2, 36744, Note_on_c, 0, 81, 95
2, 36754, Note_on_c, 0, 81, 0
2, 36756, Note_on_c, 0, 79, 95
2, 36766, Note_on_c, 0, 79, 0
2, 36768, Note_on_c, 0, 78, 95
2, 36778, Note_on_c, 0, 78, 0
2, 36780, Note_on_c, 0, 79, 95
2, 36790, Note_on_c, 0, 79, 0
2, 36792, Note_on_c, 0, 81, 95
2, 36802, Note_on_c, 0, 81, 0
2, 36804, Note_on_c, 0, 76, 95
2, 36814, Note_on_c, 0, 76, 0
2, 36816, Note_on_c, 0, 74, 95
2, 36826, Note_on_c, 0, 74, 0
2, 36828, Note_on_c, 0, 78, 95
2, 36838, Note_on_c, 0, 78, 0
2, 36840, Note_on_c, 0, 83, 95
2, 36850, Note_on_c, 0, 83, 0
2, 36852, Note_on_c, 0, 81, 95
2, 36862, Note_on_c, 0, 81, 0
2, 36864, Note_on_c, 0, 76, 95
2, 36874, Note_on_c, 0, 76, 0
2, 36876, Note_on_c, 0, 78, 95
2, 36886, Note_on_c, 0, 78, 0
2, 36888, Note_on_c, 0, 79, 95
2, 36898, Note_on_c, 0, 79, 0
2, 36900, Note_on_c, 0, 74, 95
2, 36910, Note_on_c, 0, 74, 0
2, 36912, Note_on_c, 0, 73, 95
2, 36922, Note_on_c, 0, 73, 0
2, 36924, Note_on_c, 0, 76, 95
2, 36934, Note_on_c, 0, 76, 0
2, 36936, Note_on_c, 0, 81, 95
2, 36946, Note_on_c, 0, 81, 0
2, 36948, Note_on_c, 0, 79, 95
2, 36958, Note_on_c, 0, 79, 0
2, 36960, Note_on_c, 0, 74, 95
2, 36970, Note_on_c, 0, 74, 0
2, 36972, Note_on_c, 0, 76, 95
2, 36982, Note_on_c, 0, 76, 0
2, 36984, Note_on_c, 0, 78, 95
2, 36994, Note_on_c, 0, 78, 0
2, 36996, Note_on_c, 0, 73, 95
2, 37006, Note_on_c, 0, 73, 0
2, 37008, Note_on_c, 0, 71, 95
2, 37018, Note_on_c, 0, 71, 0
2, 37020, Note_on_c, 0, 74, 95
2, 37030, Note_on_c, 0, 74, 0
2, 37032, Note_on_c, 0, 79, 95
2, 37042, Note_on_c, 0, 79, 0
2, 37044, Note_on_c, 0, 78, 95
2, 37054, Note_on_c, 0, 78, 0
2, 37056, Note_on_c, 0, 73, 95
2, 37066, Note_on_c, 0, 73, 0
2, 37068, Note_on_c, 0, 74, 95
2, 37078, Note_on_c, 0, 74, 0
2, 37080, Note_on_c, 0, 76, 95
2, 37090, Note_on_c, 0, 76, 0
2, 37092, Note_on_c, 0, 71, 95
2, 37102, Note_on_c, 0, 71, 0
2, 37104, Note_on_c, 0, 69, 95
2, 37114, Note_on_c, 0, 69, 0
2, 37116, Note_on_c, 0, 73, 95
2, 37126, Note_on_c, 0, 73, 0
2, 37128, Note_on_c, 0, 78, 95
2, 37138, Note_on_c, 0, 78, 0
2, 37140, Note_on_c, 0, 76, 95
2, 37150, Note_on_c, 0, 76, 0
2, 37152, Note_on_c, 0, 71, 95
2, 37162, Note_on_c, 0, 71, 0
2, 37164, Note_on_c, 0, 73, 95
2, 37174, Note_on_c, 0, 73, 0
2, 37176, Note_on_c, 0, 74, 95
2, 37186, Note_on_c, 0, 74, 0
2, 37188, Note_on_c, 0, 69, 95
2, 37198, Note_on_c, 0, 69, 0
2, 37200, Note_on_c, 0, 67, 95
2, 37210, Note_on_c, 0, 67, 0
2, 37212, Note_on_c, 0, 71, 95
2, 37222, Note_on_c, 0, 71, 0
2, 37224, Note_on_c, 0, 76, 95
2, 37234, Note_on_c, 0, 76, 0
2, 37236, Note_on_c, 0, 74, 95
2, 37246, Note_on_c, 0, 74, 0
2, 37248, Note_on_c, 0, 73, 95
2, 37253, Note_on_c, 0, 73, 0
2, 37254, Note_on_c, 0, 81, 95
2, 37259, Note_on_c, 0, 81, 0
2, 37260, Note_on_c, 0, 79, 95
2, 37265, Note_on_c, 0, 79, 0
2, 37266, Note_on_c, 0, 78, 95
2, 37271, Note_on_c, 0, 78, 0
2, 37272, Note_on_c, 0, 76, 95
2, 37277, Note_on_c, 0, 76, 0
2, 37278, Note_on_c, 0, 81, 95
2, 37283, Note_on_c, 0, 81, 0
2, 37284, Note_on_c, 0, 79, 95
2, 37289, Note_on_c, 0, 79, 0
2, 37290, Note_on_c, 0, 78, 95
2, 37295, Note_on_c, 0, 78, 0
2, 37296, Note_on_c, 0, 76, 95
2, 37301, Note_on_c, 0, 76, 0
2, 37302, Note_on_c, 0, 74, 95
2, 37307, Note_on_c, 0, 74, 0
2, 37308, Note_on_c, 0, 73, 95
2, 37313, Note_on_c, 0, 73, 0
2, 37314, Note_on_c, 0, 71, 95
2, 37319, Note_on_c, 0, 71, 0
2, 37320, Note_on_c, 0, 69, 95
2, 37325, Note_on_c, 0, 69, 0
2, 37326, Note_on_c, 0, 67, 95
2, 37331, Note_on_c, 0, 67, 0
2, 37332, Note_on_c, 0, 66, 95
2, 37337, Note_on_c, 0, 66, 0
2, 37338, Note_on_c, 0, 64, 95
2, 37343, Note_on_c, 0, 64, 0
2, 37344, Note_on_c, 0, 66, 95
2, 37349, Note_on_c, 0, 66, 0
2, 37350, Note_on_c, 0, 74, 95
2, 37355, Note_on_c, 0, 74, 0
2, 37356, Note_on_c, 0, 73, 95
2, 37361, Note_on_c, 0, 73, 0
2, 37362, Note_on_c, 0, 71, 95
2, 37367, Note_on_c, 0, 71, 0
2, 37368, Note_on_c, 0, 69, 95
2, 37373, Note_on_c, 0, 69, 0
2, 37374, Note_on_c, 0, 74, 95
2, 37379, Note_on_c, 0, 74, 0
2, 37380, Note_on_c, 0, 73, 95
2, 37385, Note_on_c, 0, 73, 0
2, 37386, Note_on_c, 0, 71, 95
2, 37391, Note_on_c, 0, 71, 0
2, 37392, Note_on_c, 0, 69, 95
2, 37397, Note_on_c, 0, 69, 0
2, 37398, Note_on_c, 0, 67, 95
2, 37403, Note_on_c, 0, 67, 0
2, 37404, Note_on_c, 0, 66, 95
2, 37409, Note_on_c, 0, 66, 0
2, 37410, Note_on_c, 0, 64, 95
2, 37415, Note_on_c, 0, 64, 0
2, 37416, Note_on_c, 0, 62, 95
2, 37421, Note_on_c, 0, 62, 0
2, 37422, Note_on_c, 0, 61, 95
2, 37427, Note_on_c, 0, 61, 0
2, 37428, Note_on_c, 0, 59, 95
2, 37433, Note_on_c, 0, 59, 0
2, 37434, Note_on_c, 0, 57, 95
2, 37439, Note_on_c, 0, 57, 0
2, 37440, Note_on_c, 0, 59, 95
2, 37445, Note_on_c, 0, 59, 0
2, 37446, Note_on_c, 0, 61, 95
2, 37451, Note_on_c, 0, 61, 0
2, 37452, Note_on_c, 0, 62, 95
2, 37457, Note_on_c, 0, 62, 0
2, 37458, Note_on_c, 0, 64, 95
2, 37463, Note_on_c, 0, 64, 0
2, 37464, Note_on_c, 0, 66, 95
2, 37469, Note_on_c, 0, 66, 0
2, 37470, Note_on_c, 0, 68, 95
2, 37475, Note_on_c, 0, 68, 0
2, 37476, Note_on_c, 0, 69, 95
2, 37481, Note_on_c, 0, 69, 0
2, 37482, Note_on_c, 0, 66, 95
2, 37487, Note_on_c, 0, 66, 0
2, 37488, Note_on_c, 0, 68, 95
2, 37493, Note_on_c, 0, 68, 0
2, 37494, Note_on_c, 0, 71, 95
2, 37499, Note_on_c, 0, 71, 0
2, 37500, Note_on_c, 0, 64, 95
2, 37505, Note_on_c, 0, 64, 0
2, 37506, Note_on_c, 0, 66, 95
2, 37511, Note_on_c, 0, 66, 0
2, 37512, Note_on_c, 0, 68, 95
2, 37517, Note_on_c, 0, 68, 0
2, 37518, Note_on_c, 0, 69, 95
2, 37523, Note_on_c, 0, 69, 0
2, 37524, Note_on_c, 0, 71, 95
2, 37529, Note_on_c, 0, 71, 0
2, 37530, Note_on_c, 0, 73, 95
2, 37535, Note_on_c, 0, 73, 0
2, 37536, Note_on_c, 0, 74, 95
2, 37541, Note_on_c, 0, 74, 0
2, 37542, Note_on_c, 0, 71, 95
2, 37547, Note_on_c, 0, 71, 0
2, 37548, Note_on_c, 0, 73, 95
2, 37553, Note_on_c, 0, 73, 0
2, 37554, Note_on_c, 0, 74, 95
2, 37559, Note_on_c, 0, 74, 0
2, 37560, Note_on_c, 0, 76, 95
2, 37565, Note_on_c, 0, 76, 0
2, 37566, Note_on_c, 0, 78, 95
2, 37571, Note_on_c, 0, 78, 0
2, 37572, Note_on_c, 0, 80, 95
2, 37577, Note_on_c, 0, 80, 0
2, 37578, Note_on_c, 0, 81, 95
2, 37583, Note_on_c, 0, 81, 0
2, 37584, Note_on_c, 0, 83, 95
2, 37589, Note_on_c, 0, 83, 0
2, 37590, Note_on_c, 0, 81, 95
2, 37595, Note_on_c, 0, 81, 0
2, 37596, Note_on_c, 0, 80, 95
2, 37601, Note_on_c, 0, 80, 0
2, 37602, Note_on_c, 0, 78, 95
2, 37607, Note_on_c, 0, 78, 0
2, 37608, Note_on_c, 0, 76, 95
2, 37613, Note_on_c, 0, 76, 0
2, 37614, Note_on_c, 0, 74, 95
2, 37619, Note_on_c, 0, 74, 0
2, 37620, Note_on_c, 0, 73, 95
2, 37625, Note_on_c, 0, 73, 0
2, 37626, Note_on_c, 0, 71, 95
2, 37631, Note_on_c, 0, 71, 0
2, 37632, Note_on_c, 0, 73, 95
2, 37637, Note_on_c, 0, 73, 0
2, 37638, Note_on_c, 0, 69, 95
2, 37643, Note_on_c, 0, 69, 0
2, 37644, Note_on_c, 0, 73, 95
2, 37649, Note_on_c, 0, 73, 0
2, 37650, Note_on_c, 0, 76, 95
2, 37655, Note_on_c, 0, 76, 0
2, 37656, Note_on_c, 0, 81, 95
2, 37661, Note_on_c, 0, 81, 0
2, 37662, Note_on_c, 0, 76, 95
2, 37667, Note_on_c, 0, 76, 0
2, 37668, Note_on_c, 0, 73, 95
2, 37673, Note_on_c, 0, 73, 0
2, 37674, Note_on_c, 0, 69, 95
2, 37679, Note_on_c, 0, 69, 0
2, 37680, Note_on_c, 0, 64, 95
2, 37685, Note_on_c, 0, 64, 0
2, 37686, Note_on_c, 0, 61, 95
2, 37691, Note_on_c, 0, 61, 0
2, 37692, Note_on_c, 0, 57, 95
2, 37697, Note_on_c, 0, 57, 0
2, 37698, Note_on_c, 0, 61, 95
2, 37703, Note_on_c, 0, 61, 0
2, 37704, Note_on_c, 0, 64, 95
2, 37709, Note_on_c, 0, 64, 0
2, 37710, Note_on_c, 0, 67, 95
2, 37715, Note_on_c, 0, 67, 0
2, 37716, Note_on_c, 0, 64, 95
2, 37721, Note_on_c, 0, 64, 0
2, 37722, Note_on_c, 0, 61, 95
2, 37727, Note_on_c, 0, 61, 0
2, 37728, Note_on_c, 0, 57, 95
2, 37733, Note_on_c, 0, 57, 0
2, 37734, Note_on_c, 0, 52, 95
2, 37739, Note_on_c, 0, 52, 0
2, 37740, Note_on_c, 0, 49, 95
2, 37745, Note_on_c, 0, 49, 0
2, 37746, Note_on_c, 0, 45, 95
2, 37751, Note_on_c, 0, 45, 0
2, 37752, Note_on_c, 0, 49, 95
2, 37757, Note_on_c, 0, 49, 0
2, 37758, Note_on_c, 0, 52, 95
2, 37763, Note_on_c, 0, 52, 0
2, 37764, Note_on_c, 0, 55, 95
2, 37769, Note_on_c, 0, 55, 0
2, 37770, Note_on_c, 0, 58, 95
2, 37775, Note_on_c, 0, 58, 0
2, 37776, Note_on_c, 0, 61, 95
2, 37781, Note_on_c, 0, 61, 0
2, 37782, Note_on_c, 0, 64, 95
2, 37787, Note_on_c, 0, 64, 0
2, 37788, Note_on_c, 0, 67, 95
2, 37793, Note_on_c, 0, 67, 0
2, 37794, Note_on_c, 0, 70, 95
2, 37799, Note_on_c, 0, 70, 0
2, 37800, Note_on_c, 0, 67, 95
2, 37805, Note_on_c, 0, 67, 0
2, 37806, Note_on_c, 0, 64, 95
2, 37811, Note_on_c, 0, 64, 0
2, 37812, Note_on_c, 0, 61, 95
2, 37817, Note_on_c, 0, 61, 0
2, 37818, Note_on_c, 0, 55, 95
2, 37823, Note_on_c, 0, 55, 0
2, 37830, Note_on_c, 0, 69, 95
2, 37835, Note_on_c, 0, 69, 0
2, 37836, Note_on_c, 0, 65, 95
2, 37841, Note_on_c, 0, 65, 0
2, 37842, Note_on_c, 0, 62, 95
2, 37847, Note_on_c, 0, 62, 0
2, 37854, Note_on_c, 0, 67, 95
2, 37859, Note_on_c, 0, 67, 0
2, 37860, Note_on_c, 0, 64, 95
2, 37865, Note_on_c, 0, 64, 0
2, 37866, Note_on_c, 0, 61, 95
2, 37871, Note_on_c, 0, 61, 0
2, 37878, Note_on_c, 0, 69, 95
2, 37883, Note_on_c, 0, 69, 0
2, 37884, Note_on_c, 0, 65, 95
2, 37889, Note_on_c, 0, 65, 0
2, 37890, Note_on_c, 0, 62, 95
2, 37895, Note_on_c, 0, 62, 0
2, 37902, Note_on_c, 0, 70, 95
2, 37907, Note_on_c, 0, 70, 0
2, 37908, Note_on_c, 0, 67, 95
2, 37913, Note_on_c, 0, 67, 0
2, 37914, Note_on_c, 0, 64, 95
2, 37919, Note_on_c, 0, 64, 0
2, 37926, Note_on_c, 0, 69, 95
2, 37931, Note_on_c, 0, 69, 0
2, 37932, Note_on_c, 0, 65, 95
2, 37937, Note_on_c, 0, 65, 0
2, 37938, Note_on_c, 0, 62, 95
2, 37943, Note_on_c, 0, 62, 0
2, 37950, Note_on_c, 0, 67, 95
2, 37955, Note_on_c, 0, 67, 0
2, 37956, Note_on_c, 0, 64, 95
2, 37961, Note_on_c, 0, 64, 0
2, 37962, Note_on_c, 0, 61, 95
2, 37967, Note_on_c, 0, 61, 0
2, 37974, Note_on_c, 0, 69, 95
2, 37979, Note_on_c, 0, 69, 0
2, 37980, Note_on_c, 0, 65, 95
2, 37985, Note_on_c, 0, 65, 0
2, 37986, Note_on_c, 0, 62, 95
2, 37991, Note_on_c, 0, 62, 0
2, 37998, Note_on_c, 0, 70, 95
2, 38003, Note_on_c, 0, 70, 0
2, 38004, Note_on_c, 0, 67, 95
2, 38009, Note_on_c, 0, 67, 0
2, 38010, Note_on_c, 0, 64, 95
2, 38015, Note_on_c, 0, 64, 0
2, 38022, Note_on_c, 0, 69, 95
2, 38027, Note_on_c, 0, 69, 0
2, 38028, Note_on_c, 0, 65, 95
2, 38033, Note_on_c, 0, 65, 0
2, 38034, Note_on_c, 0, 64, 95
2, 38039, Note_on_c, 0, 64, 0
2, 38046, Note_on_c, 0, 65, 95
2, 38051, Note_on_c, 0, 65, 0
2, 38052, Note_on_c, 0, 70, 95
2, 38057, Note_on_c, 0, 70, 0
2, 38058, Note_on_c, 0, 77, 95
2, 38063, Note_on_c, 0, 77, 0
2, 38070, Note_on_c, 0, 67, 95
2, 38075, Note_on_c, 0, 67, 0
2, 38076, Note_on_c, 0, 64, 95
2, 38081, Note_on_c, 0, 64, 0
2, 38082, Note_on_c, 0, 62, 95
2, 38087, Note_on_c, 0, 62, 0
2, 38094, Note_on_c, 0, 64, 95
2, 38099, Note_on_c, 0, 64, 0
2, 38100, Note_on_c, 0, 69, 95
2, 38105, Note_on_c, 0, 69, 0
2, 38106, Note_on_c, 0, 76, 95
2, 38111, Note_on_c, 0, 76, 0
2, 38118, Note_on_c, 0, 65, 95
2, 38123, Note_on_c, 0, 65, 0
2, 38124, Note_on_c, 0, 62, 95
2, 38129, Note_on_c, 0, 62, 0
2, 38130, Note_on_c, 0, 60, 95
2, 38135, Note_on_c, 0, 60, 0
2, 38142, Note_on_c, 0, 62, 95
2, 38147, Note_on_c, 0, 62, 0
2, 38148, Note_on_c, 0, 67, 95
2, 38153, Note_on_c, 0, 67, 0
2, 38154, Note_on_c, 0, 74, 95
2, 38159, Note_on_c, 0, 74, 0
2, 38166, Note_on_c, 0, 64, 95
2, 38171, Note_on_c, 0, 64, 0
2, 38172, Note_on_c, 0, 67, 95
2, 38177, Note_on_c, 0, 67, 0
2, 38178, Note_on_c, 0, 73, 95
2, 38183, Note_on_c, 0, 73, 0
2, 38190, Note_on_c, 0, 65, 95
2, 38195, Note_on_c, 0, 65, 0
2, 38196, Note_on_c, 0, 62, 95
2, 38201, Note_on_c, 0, 62, 0
2, 38202, Note_on_c, 0, 59, 95
2, 38207, Note_on_c, 0, 59, 0
2, 38214, Note_on_c, 0, 64, 95
2, 38219, Note_on_c, 0, 64, 0
2, 38220, Note_on_c, 0, 61, 95
2, 38225, Note_on_c, 0, 61, 0
2, 38226, Note_on_c, 0, 58, 95
2, 38231, Note_on_c, 0, 58, 0
2, 38238, Note_on_c, 0, 63, 95
2, 38243, Note_on_c, 0, 63, 0
2, 38244, Note_on_c, 0, 60, 95
2, 38249, Note_on_c, 0, 60, 0
2, 38250, Note_on_c, 0, 57, 95
2, 38255, Note_on_c, 0, 57, 0
2, 38262, Note_on_c, 0, 62, 95
2, 38267, Note_on_c, 0, 62, 0
2, 38268, Note_on_c, 0, 59, 95
2, 38273, Note_on_c, 0, 59, 0
2, 38274, Note_on_c, 0, 56, 95
2, 38279, Note_on_c, 0, 56, 0
2, 38286, Note_on_c, 0, 61, 95
2, 38291, Note_on_c, 0, 61, 0
2, 38292, Note_on_c, 0, 58, 95
2, 38297, Note_on_c, 0, 58, 0
2, 38298, Note_on_c, 0, 55, 95
2, 38303, Note_on_c, 0, 55, 0
2, 38310, Note_on_c, 0, 60, 95
2, 38315, Note_on_c, 0, 60, 0
2, 38316, Note_on_c, 0, 57, 95
2, 38321, Note_on_c, 0, 57, 0
2, 38322, Note_on_c, 0, 54, 95
2, 38327, Note_on_c, 0, 54, 0
2, 38334, Note_on_c, 0, 59, 95
2, 38339, Note_on_c, 0, 59, 0
2, 38340, Note_on_c, 0, 56, 95
2, 38345, Note_on_c, 0, 56, 0
2, 38346, Note_on_c, 0, 53, 95
2, 38351, Note_on_c, 0, 53, 0
2, 38358, Note_on_c, 0, 58, 95
2, 38363, Note_on_c, 0, 58, 0
2, 38364, Note_on_c, 0, 55, 95
2, 38369, Note_on_c, 0, 55, 0
2, 38370, Note_on_c, 0, 52, 95
2, 38375, Note_on_c, 0, 52, 0
2, 38382, Note_on_c, 0, 57, 95
2, 38387, Note_on_c, 0, 57, 0
2, 38388, Note_on_c, 0, 54, 95
2, 38393, Note_on_c, 0, 54, 0
2, 38394, Note_on_c, 0, 51, 95
2, 38399, Note_on_c, 0, 51, 0
2, 38406, Note_on_c, 0, 56, 95
2, 38411, Note_on_c, 0, 56, 0
2, 38412, Note_on_c, 0, 53, 95
2, 38417, Note_on_c, 0, 53, 0
2, 38418, Note_on_c, 0, 50, 95
2, 38423, Note_on_c, 0, 50, 0
2, 38430, Note_on_c, 0, 55, 95
2, 38435, Note_on_c, 0, 55, 0
2, 38436, Note_on_c, 0, 52, 95
2, 38441, Note_on_c, 0, 52, 0
2, 38442, Note_on_c, 0, 49, 95
2, 38447, Note_on_c, 0, 49, 0
2, 38454, Note_on_c, 0, 54, 95
2, 38459, Note_on_c, 0, 54, 0
2, 38460, Note_on_c, 0, 51, 95
2, 38465, Note_on_c, 0, 51, 0
2, 38466, Note_on_c, 0, 48, 95
2, 38471, Note_on_c, 0, 48, 0
2, 38478, Note_on_c, 0, 53, 95
2, 38483, Note_on_c, 0, 53, 0
2, 38484, Note_on_c, 0, 50, 95
2, 38489, Note_on_c, 0, 50, 0
2, 38490, Note_on_c, 0, 47, 95
2, 38495, Note_on_c, 0, 47, 0
2, 38520, Note_on_c, 0, 52, 95
2, 38525, Note_on_c, 0, 52, 0
2, 38526, Note_on_c, 0, 53, 95
2, 38531, Note_on_c, 0, 53, 0
2, 38532, Note_on_c, 0, 55, 95
2, 38537, Note_on_c, 0, 55, 0
2, 38538, Note_on_c, 0, 52, 95
2, 38543, Note_on_c, 0, 52, 0
2, 38568, Note_on_c, 0, 53, 95
2, 38573, Note_on_c, 0, 53, 0
2, 38574, Note_on_c, 0, 55, 95
2, 38579, Note_on_c, 0, 55, 0
2, 38580, Note_on_c, 0, 57, 95
2, 38585, Note_on_c, 0, 57, 0
2, 38586, Note_on_c, 0, 53, 95
2, 38591, Note_on_c, 0, 53, 0
2, 38592, Note_on_c, 0, 45, 95
2, 38597, Note_on_c, 0, 45, 0
2, 38598, Note_on_c, 0, 50, 95
2, 38603, Note_on_c, 0, 50, 0
2, 38604, Note_on_c, 0, 52, 95
2, 38609, Note_on_c, 0, 52, 0
2, 38610, Note_on_c, 0, 53, 95
2, 38615, Note_on_c, 0, 53, 0
2, 38616, Note_on_c, 0, 55, 95
2, 38621, Note_on_c, 0, 55, 0
2, 38622, Note_on_c, 0, 57, 95
2, 38627, Note_on_c, 0, 57, 0
2, 38628, Note_on_c, 0, 58, 95
2, 38633, Note_on_c, 0, 58, 0
2, 38634, Note_on_c, 0, 55, 95
2, 38639, Note_on_c, 0, 55, 0
2, 38640, Note_on_c, 0, 45, 95
2, 38645, Note_on_c, 0, 45, 0
2, 38646, Note_on_c, 0, 49, 95
2, 38651, Note_on_c, 0, 49, 0
2, 38652, Note_on_c, 0, 50, 95
2, 38657, Note_on_c, 0, 50, 0
2, 38658, Note_on_c, 0, 52, 95
2, 38663, Note_on_c, 0, 52, 0
2, 38664, Note_on_c, 0, 53, 95
2, 38669, Note_on_c, 0, 53, 0
2, 38670, Note_on_c, 0, 55, 95
2, 38675, Note_on_c, 0, 55, 0
2, 38676, Note_on_c, 0, 57, 95
2, 38681, Note_on_c, 0, 57, 0
2, 38682, Note_on_c, 0, 53, 95
2, 38687, Note_on_c, 0, 53, 0
2, 38688, Note_on_c, 0, 45, 95
2, 38695, Note_on_c, 0, 45, 0
2, 38696, Note_on_c, 0, 49, 95
2, 38703, Note_on_c, 0, 49, 0
2, 38704, Note_on_c, 0, 50, 95
2, 38711, Note_on_c, 0, 50, 0
2, 38712, Note_on_c, 0, 52, 95
2, 38719, Note_on_c, 0, 52, 0
2, 38720, Note_on_c, 0, 53, 95
2, 38723, Note_on_c, 0, 53, 0
2, 38724, Note_on_c, 0, 52, 95
2, 38727, Note_on_c, 0, 52, 0
2, 38728, Note_on_c, 0, 53, 95
2, 38735, Note_on_c, 0, 53, 0
2, 38736, Note_on_c, 0, 45, 95
2, 38743, Note_on_c, 0, 45, 0
2, 38744, Note_on_c, 0, 50, 95
2, 38751, Note_on_c, 0, 50, 0
2, 38752, Note_on_c, 0, 52, 95
2, 38759, Note_on_c, 0, 52, 0
2, 38760, Note_on_c, 0, 53, 95
2, 38767, Note_on_c, 0, 53, 0
2, 38768, Note_on_c, 0, 55, 95
2, 38771, Note_on_c, 0, 55, 0
2, 38772, Note_on_c, 0, 53, 95
2, 38775, Note_on_c, 0, 53, 0
2, 38776, Note_on_c, 0, 55, 95
2, 38783, Note_on_c, 0, 55, 0
2, 38784, Note_on_c, 0, 45, 95
2, 38791, Note_on_c, 0, 45, 0
2, 38792, Note_on_c, 0, 52, 95
2, 38799, Note_on_c, 0, 52, 0
2, 38800, Note_on_c, 0, 54, 95
2, 38807, Note_on_c, 0, 54, 0
2, 38808, Note_on_c, 0, 55, 95
2, 38815, Note_on_c, 0, 55, 0
2, 38816, Note_on_c, 0, 57, 95
2, 38819, Note_on_c, 0, 57, 0
2, 38820, Note_on_c, 0, 55, 95
2, 38823, Note_on_c, 0, 55, 0
2, 38824, Note_on_c, 0, 57, 95
2, 38831, Note_on_c, 0, 57, 0
2, 38832, Note_on_c, 0, 45, 95
2, 38839, Note_on_c, 0, 45, 0
2, 38840, Note_on_c, 0, 54, 95
2, 38847, Note_on_c, 0, 54, 0
2, 38848, Note_on_c, 0, 55, 95
2, 38855, Note_on_c, 0, 55, 0
2, 38856, Note_on_c, 0, 57, 95
2, 38863, Note_on_c, 0, 57, 0
2, 38864, Note_on_c, 0, 59, 95
2, 38867, Note_on_c, 0, 59, 0
2, 38868, Note_on_c, 0, 57, 95
2, 38871, Note_on_c, 0, 57, 0
2, 38872, Note_on_c, 0, 59, 95
2, 38879, Note_on_c, 0, 59, 0
2, 38880, Note_on_c, 0, 61, 95
2, 38885, Note_on_c, 0, 61, 0
2, 38886, Note_on_c, 0, 58, 95
2, 38891, Note_on_c, 0, 58, 0
2, 38892, Note_on_c, 0, 57, 95
2, 38897, Note_on_c, 0, 57, 0
2, 38898, Note_on_c, 0, 58, 95
2, 38903, Note_on_c, 0, 58, 0
2, 38904, Note_on_c, 0, 61, 95
2, 38909, Note_on_c, 0, 61, 0
2, 38910, Note_on_c, 0, 58, 95
2, 38915, Note_on_c, 0, 58, 0
2, 38916, Note_on_c, 0, 57, 95
2, 38921, Note_on_c, 0, 57, 0
2, 38922, Note_on_c, 0, 58, 95
2, 38927, Note_on_c, 0, 58, 0
2, 38928, Note_on_c, 0, 61, 95
2, 38933, Note_on_c, 0, 61, 0
2, 38934, Note_on_c, 0, 58, 95
2, 38939, Note_on_c, 0, 58, 0
2, 38940, Note_on_c, 0, 57, 95
2, 38945, Note_on_c, 0, 57, 0
2, 38946, Note_on_c, 0, 58, 95
2, 38951, Note_on_c, 0, 58, 0
2, 38952, Note_on_c, 0, 61, 95
2, 38957, Note_on_c, 0, 61, 0
2, 38958, Note_on_c, 0, 58, 95
2, 38963, Note_on_c, 0, 58, 0
2, 38964, Note_on_c, 0, 57, 95
2, 38969, Note_on_c, 0, 57, 0
2, 38970, Note_on_c, 0, 58, 95
2, 38975, Note_on_c, 0, 58, 0
2, 38976, Note_on_c, 0, 61, 95
2, 38981, Note_on_c, 0, 61, 0
2, 38982, Note_on_c, 0, 58, 95
2, 38987, Note_on_c, 0, 58, 0
2, 38988, Note_on_c, 0, 57, 95
2, 38993, Note_on_c, 0, 57, 0
2, 38994, Note_on_c, 0, 58, 95
2, 38999, Note_on_c, 0, 58, 0
2, 39000, Note_on_c, 0, 61, 95
2, 39005, Note_on_c, 0, 61, 0
2, 39006, Note_on_c, 0, 58, 95
2, 39011, Note_on_c, 0, 58, 0
2, 39012, Note_on_c, 0, 57, 95
2, 39017, Note_on_c, 0, 57, 0
2, 39018, Note_on_c, 0, 58, 95
2, 39023, Note_on_c, 0, 58, 0
2, 39024, Note_on_c, 0, 61, 95
2, 39029, Note_on_c, 0, 61, 0
2, 39030, Note_on_c, 0, 58, 95
2, 39035, Note_on_c, 0, 58, 0
2, 39036, Note_on_c, 0, 57, 95
2, 39041, Note_on_c, 0, 57, 0
2, 39042, Note_on_c, 0, 58, 95
2, 39047, Note_on_c, 0, 58, 0
2, 39048, Note_on_c, 0, 61, 95
2, 39053, Note_on_c, 0, 61, 0
2, 39054, Note_on_c, 0, 58, 95
2, 39059, Note_on_c, 0, 58, 0
2, 39060, Note_on_c, 0, 57, 95
2, 39065, Note_on_c, 0, 57, 0
2, 39066, Note_on_c, 0, 58, 95
2, 39071, Note_on_c, 0, 58, 0
2, 39072, Note_on_c, 0, 62, 95
2, 39077, Note_on_c, 0, 62, 0
2, 39078, Note_on_c, 0, 59, 95
2, 39083, Note_on_c, 0, 59, 0
2, 39084, Note_on_c, 0, 57, 95
2, 39089, Note_on_c, 0, 57, 0
2, 39090, Note_on_c, 0, 59, 95
2, 39095, Note_on_c, 0, 59, 0
2, 39096, Note_on_c, 0, 62, 95
2, 39101, Note_on_c, 0, 62, 0
2, 39102, Note_on_c, 0, 59, 95
2, 39107, Note_on_c, 0, 59, 0
2, 39108, Note_on_c, 0, 57, 95
2, 39113, Note_on_c, 0, 57, 0
2, 39114, Note_on_c, 0, 59, 95
2, 39119, Note_on_c, 0, 59, 0
2, 39120, Note_on_c, 0, 62, 95
2, 39125, Note_on_c, 0, 62, 0
2, 39126, Note_on_c, 0, 59, 95
2, 39131, Note_on_c, 0, 59, 0
2, 39132, Note_on_c, 0, 57, 95
2, 39137, Note_on_c, 0, 57, 0
2, 39138, Note_on_c, 0, 59, 95
2, 39143, Note_on_c, 0, 59, 0
2, 39144, Note_on_c, 0, 62, 95
2, 39149, Note_on_c, 0, 62, 0
2, 39150, Note_on_c, 0, 59, 95
2, 39155, Note_on_c, 0, 59, 0
2, 39156, Note_on_c, 0, 57, 95
2, 39161, Note_on_c, 0, 57, 0
2, 39162, Note_on_c, 0, 59, 95
2, 39167, Note_on_c, 0, 59, 0
2, 39168, Note_on_c, 0, 62, 95
2, 39173, Note_on_c, 0, 62, 0
2, 39174, Note_on_c, 0, 59, 95
2, 39179, Note_on_c, 0, 59, 0
2, 39180, Note_on_c, 0, 57, 95
2, 39185, Note_on_c, 0, 57, 0
2, 39186, Note_on_c, 0, 59, 95
2, 39191, Note_on_c, 0, 59, 0
2, 39192, Note_on_c, 0, 62, 95
2, 39197, Note_on_c, 0, 62, 0
2, 39198, Note_on_c, 0, 59, 95
2, 39203, Note_on_c, 0, 59, 0
2, 39204, Note_on_c, 0, 57, 95
2, 39209, Note_on_c, 0, 57, 0
2, 39210, Note_on_c, 0, 59, 95
2, 39215, Note_on_c, 0, 59, 0
2, 39216, Note_on_c, 0, 62, 95
2, 39221, Note_on_c, 0, 62, 0
2, 39222, Note_on_c, 0, 59, 95
2, 39227, Note_on_c, 0, 59, 0
2, 39228, Note_on_c, 0, 57, 95
2, 39233, Note_on_c, 0, 57, 0
2, 39234, Note_on_c, 0, 59, 95
2, 39239, Note_on_c, 0, 59, 0
2, 39240, Note_on_c, 0, 62, 95
2, 39245, Note_on_c, 0, 62, 0
2, 39246, Note_on_c, 0, 59, 95
2, 39251, Note_on_c, 0, 59, 0
2, 39252, Note_on_c, 0, 57, 95
2, 39257, Note_on_c, 0, 57, 0
2, 39258, Note_on_c, 0, 59, 95
2, 39263, Note_on_c, 0, 59, 0
2, 39264, Note_on_c, 0, 64, 95
2, 39269, Note_on_c, 0, 64, 0
2, 39270, Note_on_c, 0, 61, 95
2, 39275, Note_on_c, 0, 61, 0
2, 39276, Note_on_c, 0, 59, 95
2, 39281, Note_on_c, 0, 59, 0
2, 39282, Note_on_c, 0, 61, 95
2, 39287, Note_on_c, 0, 61, 0
2, 39288, Note_on_c, 0, 64, 95
2, 39293, Note_on_c, 0, 64, 0
2, 39294, Note_on_c, 0, 61, 95
2, 39299, Note_on_c, 0, 61, 0
2, 39300, Note_on_c, 0, 59, 95
2, 39305, Note_on_c, 0, 59, 0
2, 39306, Note_on_c, 0, 61, 95
2, 39311, Note_on_c, 0, 61, 0
2, 39312, Note_on_c, 0, 64, 95
2, 39317, Note_on_c, 0, 64, 0
2, 39318, Note_on_c, 0, 61, 95
2, 39323, Note_on_c, 0, 61, 0
2, 39324, Note_on_c, 0, 59, 95
2, 39329, Note_on_c, 0, 59, 0
2, 39330, Note_on_c, 0, 61, 95
2, 39335, Note_on_c, 0, 61, 0
2, 39336, Note_on_c, 0, 64, 95
2, 39341, Note_on_c, 0, 64, 0
2, 39342, Note_on_c, 0, 61, 95
2, 39347, Note_on_c, 0, 61, 0
2, 39348, Note_on_c, 0, 59, 95
2, 39353, Note_on_c, 0, 59, 0
2, 39354, Note_on_c, 0, 61, 95
2, 39359, Note_on_c, 0, 61, 0
2, 39360, Note_on_c, 0, 64, 95
2, 39365, Note_on_c, 0, 64, 0
2, 39366, Note_on_c, 0, 61, 95
2, 39371, Note_on_c, 0, 61, 0
2, 39372, Note_on_c, 0, 59, 95
2, 39377, Note_on_c, 0, 59, 0
2, 39378, Note_on_c, 0, 61, 95
2, 39383, Note_on_c, 0, 61, 0
2, 39384, Note_on_c, 0, 64, 95
2, 39389, Note_on_c, 0, 64, 0
2, 39390, Note_on_c, 0, 61, 95
2, 39395, Note_on_c, 0, 61, 0
2, 39396, Note_on_c, 0, 59, 95
2, 39401, Note_on_c, 0, 59, 0
2, 39402, Note_on_c, 0, 61, 95
2, 39407, Note_on_c, 0, 61, 0
2, 39408, Note_on_c, 0, 64, 95
2, 39413, Note_on_c, 0, 64, 0
2, 39414, Note_on_c, 0, 61, 95
2, 39419, Note_on_c, 0, 61, 0
2, 39420, Note_on_c, 0, 59, 95
2, 39425, Note_on_c, 0, 59, 0
2, 39426, Note_on_c, 0, 61, 95
2, 39431, Note_on_c, 0, 61, 0
2, 39432, Note_on_c, 0, 64, 95
2, 39437, Note_on_c, 0, 64, 0
2, 39438, Note_on_c, 0, 61, 95
2, 39443, Note_on_c, 0, 61, 0
2, 39444, Note_on_c, 0, 59, 95
2, 39449, Note_on_c, 0, 59, 0
2, 39450, Note_on_c, 0, 61, 95
2, 39455, Note_on_c, 0, 61, 0
2, 39456, Note_on_c, 0, 65, 95
2, 39461, Note_on_c, 0, 65, 0
2, 39462, Note_on_c, 0, 62, 95
2, 39467, Note_on_c, 0, 62, 0
2, 39468, Note_on_c, 0, 61, 95
2, 39473, Note_on_c, 0, 61, 0
2, 39474, Note_on_c, 0, 62, 95
2, 39479, Note_on_c, 0, 62, 0
2, 39480, Note_on_c, 0, 65, 95
2, 39485, Note_on_c, 0, 65, 0
2, 39486, Note_on_c, 0, 62, 95
2, 39491, Note_on_c, 0, 62, 0
2, 39492, Note_on_c, 0, 61, 95
2, 39497, Note_on_c, 0, 61, 0
2, 39498, Note_on_c, 0, 62, 95
2, 39503, Note_on_c, 0, 62, 0
2, 39504, Note_on_c, 0, 65, 95
2, 39509, Note_on_c, 0, 65, 0
2, 39510, Note_on_c, 0, 62, 95
2, 39515, Note_on_c, 0, 62, 0
2, 39516, Note_on_c, 0, 61, 95
2, 39521, Note_on_c, 0, 61, 0
2, 39522, Note_on_c, 0, 62, 95
2, 39527, Note_on_c, 0, 62, 0
2, 39528, Note_on_c, 0, 65, 95
2, 39533, Note_on_c, 0, 65, 0
2, 39534, Note_on_c, 0, 62, 95
2, 39539, Note_on_c, 0, 62, 0
2, 39540, Note_on_c, 0, 61, 95
2, 39545, Note_on_c, 0, 61, 0
2, 39546, Note_on_c, 0, 62, 95
2, 39551, Note_on_c, 0, 62, 0
2, 39552, Note_on_c, 0, 65, 95
2, 39557, Note_on_c, 0, 65, 0
2, 39558, Note_on_c, 0, 62, 95
2, 39563, Note_on_c, 0, 62, 0
2, 39564, Note_on_c, 0, 61, 95
2, 39569, Note_on_c, 0, 61, 0
2, 39570, Note_on_c, 0, 62, 95
2, 39575, Note_on_c, 0, 62, 0
2, 39576, Note_on_c, 0, 65, 95
2, 39581, Note_on_c, 0, 65, 0
2, 39582, Note_on_c, 0, 62, 95
2, 39587, Note_on_c, 0, 62, 0
2, 39588, Note_on_c, 0, 61, 95
2, 39593, Note_on_c, 0, 61, 0
2, 39594, Note_on_c, 0, 62, 95
2, 39599, Note_on_c, 0, 62, 0
2, 39600, Note_on_c, 0, 65, 95
2, 39605, Note_on_c, 0, 65, 0
2, 39606, Note_on_c, 0, 62, 95
2, 39611, Note_on_c, 0, 62, 0
2, 39612, Note_on_c, 0, 61, 95
2, 39617, Note_on_c, 0, 61, 0
2, 39618, Note_on_c, 0, 62, 95
2, 39623, Note_on_c, 0, 62, 0
2, 39624, Note_on_c, 0, 65, 95
2, 39629, Note_on_c, 0, 65, 0
2, 39630, Note_on_c, 0, 62, 95
2, 39635, Note_on_c, 0, 62, 0
2, 39636, Note_on_c, 0, 61, 95
2, 39641, Note_on_c, 0, 61, 0
2, 39642, Note_on_c, 0, 62, 95
2, 39647, Note_on_c, 0, 62, 0
2, 39648, Note_on_c, 0, 67, 95
2, 39653, Note_on_c, 0, 67, 0
2, 39654, Note_on_c, 0, 64, 95
2, 39659, Note_on_c, 0, 64, 0
2, 39660, Note_on_c, 0, 63, 95
2, 39665, Note_on_c, 0, 63, 0
2, 39666, Note_on_c, 0, 64, 95
2, 39671, Note_on_c, 0, 64, 0
2, 39672, Note_on_c, 0, 67, 95
2, 39677, Note_on_c, 0, 67, 0
2, 39678, Note_on_c, 0, 64, 95
2, 39683, Note_on_c, 0, 64, 0
2, 39684, Note_on_c, 0, 63, 95
2, 39689, Note_on_c, 0, 63, 0
2, 39690, Note_on_c, 0, 64, 95
2, 39695, Note_on_c, 0, 64, 0
2, 39696, Note_on_c, 0, 67, 95
2, 39701, Note_on_c, 0, 67, 0
2, 39702, Note_on_c, 0, 64, 95
2, 39707, Note_on_c, 0, 64, 0
2, 39708, Note_on_c, 0, 63, 95
2, 39713, Note_on_c, 0, 63, 0
2, 39714, Note_on_c, 0, 64, 95
2, 39719, Note_on_c, 0, 64, 0
2, 39720, Note_on_c, 0, 67, 95
2, 39725, Note_on_c, 0, 67, 0
2, 39726, Note_on_c, 0, 64, 95
2, 39731, Note_on_c, 0, 64, 0
2, 39732, Note_on_c, 0, 63, 95
2, 39737, Note_on_c, 0, 63, 0
2, 39738, Note_on_c, 0, 64, 95
2, 39743, Note_on_c, 0, 64, 0
2, 39744, Note_on_c, 0, 67, 95
2, 39749, Note_on_c, 0, 67, 0
2, 39750, Note_on_c, 0, 64, 95
2, 39755, Note_on_c, 0, 64, 0
2, 39756, Note_on_c, 0, 63, 95
2, 39761, Note_on_c, 0, 63, 0
2, 39762, Note_on_c, 0, 64, 95
2, 39767, Note_on_c, 0, 64, 0
2, 39768, Note_on_c, 0, 67, 95
2, 39773, Note_on_c, 0, 67, 0
2, 39774, Note_on_c, 0, 64, 95
2, 39779, Note_on_c, 0, 64, 0
2, 39780, Note_on_c, 0, 63, 95
2, 39785, Note_on_c, 0, 63, 0
2, 39786, Note_on_c, 0, 64, 95
2, 39791, Note_on_c, 0, 64, 0
2, 39792, Note_on_c, 0, 67, 95
2, 39797, Note_on_c, 0, 67, 0
2, 39798, Note_on_c, 0, 64, 95
2, 39803, Note_on_c, 0, 64, 0
2, 39804, Note_on_c, 0, 63, 95
2, 39809, Note_on_c, 0, 63, 0
2, 39810, Note_on_c, 0, 64, 95
2, 39815, Note_on_c, 0, 64, 0
2, 39816, Note_on_c, 0, 67, 95
2, 39821, Note_on_c, 0, 67, 0
2, 39822, Note_on_c, 0, 64, 95
2, 39827, Note_on_c, 0, 64, 0
2, 39828, Note_on_c, 0, 63, 95
2, 39833, Note_on_c, 0, 63, 0
2, 39834, Note_on_c, 0, 64, 95
2, 39839, Note_on_c, 0, 64, 0
2, 39840, Note_on_c, 0, 69, 95
2, 39845, Note_on_c, 0, 69, 0
2, 39846, Note_on_c, 0, 65, 95
2, 39851, Note_on_c, 0, 65, 0
2, 39852, Note_on_c, 0, 64, 95
2, 39857, Note_on_c, 0, 64, 0
2, 39858, Note_on_c, 0, 65, 95
2, 39863, Note_on_c, 0, 65, 0
2, 39864, Note_on_c, 0, 69, 95
2, 39869, Note_on_c, 0, 69, 0
2, 39870, Note_on_c, 0, 65, 95
2, 39875, Note_on_c, 0, 65, 0
2, 39876, Note_on_c, 0, 64, 95
2, 39881, Note_on_c, 0, 64, 0
2, 39882, Note_on_c, 0, 65, 95
2, 39887, Note_on_c, 0, 65, 0
2, 39888, Note_on_c, 0, 69, 95
2, 39893, Note_on_c, 0, 69, 0
2, 39894, Note_on_c, 0, 65, 95
2, 39899, Note_on_c, 0, 65, 0
2, 39900, Note_on_c, 0, 64, 95
2, 39905, Note_on_c, 0, 64, 0
2, 39906, Note_on_c, 0, 65, 95
2, 39911, Note_on_c, 0, 65, 0
2, 39912, Note_on_c, 0, 69, 95
2, 39917, Note_on_c, 0, 69, 0
2, 39918, Note_on_c, 0, 65, 95
2, 39923, Note_on_c, 0, 65, 0
2, 39924, Note_on_c, 0, 64, 95
2, 39929, Note_on_c, 0, 64, 0
2, 39930, Note_on_c, 0, 65, 95
2, 39935, Note_on_c, 0, 65, 0
2, 39936, Note_on_c, 0, 69, 95
2, 39941, Note_on_c, 0, 69, 0
2, 39942, Note_on_c, 0, 65, 95
2, 39947, Note_on_c, 0, 65, 0
2, 39948, Note_on_c, 0, 64, 95
2, 39953, Note_on_c, 0, 64, 0
2, 39954, Note_on_c, 0, 65, 95
2, 39959, Note_on_c, 0, 65, 0
2, 39960, Note_on_c, 0, 69, 95
2, 39965, Note_on_c, 0, 69, 0
2, 39966, Note_on_c, 0, 65, 95
2, 39971, Note_on_c, 0, 65, 0
2, 39972, Note_on_c, 0, 64, 95
2, 39977, Note_on_c, 0, 64, 0
2, 39978, Note_on_c, 0, 65, 95
2, 39983, Note_on_c, 0, 65, 0
2, 39984, Note_on_c, 0, 69, 95
2, 39989, Note_on_c, 0, 69, 0
2, 39990, Note_on_c, 0, 65, 95
2, 39995, Note_on_c, 0, 65, 0
2, 39996, Note_on_c, 0, 64, 95
2, 40001, Note_on_c, 0, 64, 0
2, 40002, Note_on_c, 0, 65, 95
2, 40007, Note_on_c, 0, 65, 0
2, 40008, Note_on_c, 0, 69, 95
2, 40013, Note_on_c, 0, 69, 0
2, 40014, Note_on_c, 0, 65, 95
2, 40019, Note_on_c, 0, 65, 0
2, 40020, Note_on_c, 0, 64, 95
2, 40025, Note_on_c, 0, 64, 0
2, 40026, Note_on_c, 0, 65, 95
2, 40031, Note_on_c, 0, 65, 0
2, 40032, Note_on_c, 0, 70, 95
2, 40039, Note_on_c, 0, 70, 0
2, 40040, Note_on_c, 0, 67, 95
2, 40047, Note_on_c, 0, 67, 0
2, 40048, Note_on_c, 0, 65, 95
2, 40055, Note_on_c, 0, 65, 0
2, 40056, Note_on_c, 0, 64, 95
2, 40063, Note_on_c, 0, 64, 0
2, 40064, Note_on_c, 0, 65, 95
2, 40071, Note_on_c, 0, 65, 0
2, 40072, Note_on_c, 0, 67, 95
2, 40079, Note_on_c, 0, 67, 0
2, 40080, Note_on_c, 0, 70, 95
2, 40087, Note_on_c, 0, 70, 0
2, 40088, Note_on_c, 0, 67, 95
2, 40095, Note_on_c, 0, 67, 0
2, 40096, Note_on_c, 0, 65, 95
2, 40103, Note_on_c, 0, 65, 0
2, 40104, Note_on_c, 0, 64, 95
2, 40111, Note_on_c, 0, 64, 0
2, 40112, Note_on_c, 0, 65, 95
2, 40119, Note_on_c, 0, 65, 0
2, 40120, Note_on_c, 0, 67, 95
2, 40127, Note_on_c, 0, 67, 0
2, 40128, Note_on_c, 0, 70, 95
2, 40135, Note_on_c, 0, 70, 0
2, 40136, Note_on_c, 0, 67, 95
2, 40143, Note_on_c, 0, 67, 0
2, 40144, Note_on_c, 0, 65, 95
2, 40151, Note_on_c, 0, 65, 0
2, 40152, Note_on_c, 0, 64, 95
2, 40159, Note_on_c, 0, 64, 0
2, 40160, Note_on_c, 0, 65, 95
2, 40167, Note_on_c, 0, 65, 0
2, 40168, Note_on_c, 0, 67, 95
2, 40175, Note_on_c, 0, 67, 0
2, 40176, Note_on_c, 0, 70, 95
2, 40183, Note_on_c, 0, 70, 0
2, 40184, Note_on_c, 0, 67, 95
2, 40191, Note_on_c, 0, 67, 0
2, 40192, Note_on_c, 0, 65, 95
2, 40199, Note_on_c, 0, 65, 0
2, 40200, Note_on_c, 0, 64, 95
2, 40207, Note_on_c, 0, 64, 0
2, 40208, Note_on_c, 0, 65, 95
2, 40215, Note_on_c, 0, 65, 0
2, 40216, Note_on_c, 0, 67, 95
2, 40223, Note_on_c, 0, 67, 0
2, 40224, Note_on_c, 0, 69, 95
2, 40231, Note_on_c, 0, 69, 0
2, 40232, Note_on_c, 0, 65, 95
2, 40239, Note_on_c, 0, 65, 0
2, 40240, Note_on_c, 0, 64, 95
2, 40247, Note_on_c, 0, 64, 0
2, 40248, Note_on_c, 0, 65, 95
2, 40255, Note_on_c, 0, 65, 0
2, 40256, Note_on_c, 0, 67, 95
2, 40263, Note_on_c, 0, 67, 0
2, 40264, Note_on_c, 0, 69, 95
2, 40271, Note_on_c, 0, 69, 0
2, 40272, Note_on_c, 0, 74, 95
2, 40279, Note_on_c, 0, 74, 0
2, 40280, Note_on_c, 0, 69, 95
2, 40287, Note_on_c, 0, 69, 0
2, 40288, Note_on_c, 0, 67, 95
2, 40295, Note_on_c, 0, 67, 0
2, 40296, Note_on_c, 0, 65, 95
2, 40303, Note_on_c, 0, 65, 0
2, 40304, Note_on_c, 0, 67, 95
2, 40311, Note_on_c, 0, 67, 0
2, 40312, Note_on_c, 0, 69, 95
2, 40319, Note_on_c, 0, 69, 0
2, 40320, Note_on_c, 0, 74, 95
2, 40327, Note_on_c, 0, 74, 0
2, 40328, Note_on_c, 0, 69, 95
2, 40335, Note_on_c, 0, 69, 0
2, 40336, Note_on_c, 0, 67, 95
2, 40343, Note_on_c, 0, 67, 0
2, 40344, Note_on_c, 0, 65, 95
2, 40351, Note_on_c, 0, 65, 0
2, 40352, Note_on_c, 0, 67, 95
2, 40359, Note_on_c, 0, 67, 0
2, 40360, Note_on_c, 0, 69, 95
2, 40367, Note_on_c, 0, 69, 0
2, 40368, Note_on_c, 0, 74, 95
2, 40375, Note_on_c, 0, 74, 0
2, 40376, Note_on_c, 0, 69, 95
2, 40383, Note_on_c, 0, 69, 0
2, 40384, Note_on_c, 0, 67, 95
2, 40391, Note_on_c, 0, 67, 0
2, 40392, Note_on_c, 0, 65, 95
2, 40399, Note_on_c, 0, 65, 0
2, 40400, Note_on_c, 0, 67, 95
2, 40407, Note_on_c, 0, 67, 0
2, 40408, Note_on_c, 0, 69, 95
2, 40415, Note_on_c, 0, 69, 0
2, 40416, Note_on_c, 0, 74, 95
2, 40423, Note_on_c, 0, 74, 0
2, 40424, Note_on_c, 0, 65, 95
2, 40431, Note_on_c, 0, 65, 0
2, 40432, Note_on_c, 0, 64, 95
2, 40439, Note_on_c, 0, 64, 0
2, 40440, Note_on_c, 0, 62, 95
2, 40447, Note_on_c, 0, 62, 0
2, 40448, Note_on_c, 0, 64, 95
2, 40455, Note_on_c, 0, 64, 0
2, 40456, Note_on_c, 0, 65, 95
2, 40463, Note_on_c, 0, 65, 0
2, 40464, Note_on_c, 0, 74, 95
2, 40471, Note_on_c, 0, 74, 0
2, 40472, Note_on_c, 0, 65, 95
2, 40479, Note_on_c, 0, 65, 0
2, 40480, Note_on_c, 0, 64, 95
2, 40487, Note_on_c, 0, 64, 0
2, 40488, Note_on_c, 0, 62, 95
2, 40495, Note_on_c, 0, 62, 0
2, 40496, Note_on_c, 0, 64, 95
2, 40503, Note_on_c, 0, 64, 0
2, 40504, Note_on_c, 0, 65, 95
2, 40511, Note_on_c, 0, 65, 0
2, 40512, Note_on_c, 0, 74, 95
2, 40519, Note_on_c, 0, 74, 0
2, 40520, Note_on_c, 0, 65, 95
2, 40527, Note_on_c, 0, 65, 0
2, 40528, Note_on_c, 0, 64, 95
2, 40535, Note_on_c, 0, 64, 0
2, 40536, Note_on_c, 0, 62, 95
2, 40543, Note_on_c, 0, 62, 0
2, 40544, Note_on_c, 0, 64, 95
2, 40551, Note_on_c, 0, 64, 0
2, 40552, Note_on_c, 0, 65, 95
2, 40559, Note_on_c, 0, 65, 0
2, 40560, Note_on_c, 0, 74, 95
2, 40567, Note_on_c, 0, 74, 0
2, 40568, Note_on_c, 0, 65, 95
2, 40575, Note_on_c, 0, 65, 0
2, 40576, Note_on_c, 0, 64, 95
2, 40583, Note_on_c, 0, 64, 0
2, 40584, Note_on_c, 0, 62, 95
2, 40591, Note_on_c, 0, 62, 0
2, 40592, Note_on_c, 0, 64, 95
2, 40599, Note_on_c, 0, 64, 0
2, 40600, Note_on_c, 0, 65, 95
2, 40607, Note_on_c, 0, 65, 0
2, 40608, Note_on_c, 0, 74, 95
2, 40615, Note_on_c, 0, 74, 0
2, 40616, Note_on_c, 0, 67, 95
2, 40623, Note_on_c, 0, 67, 0
2, 40624, Note_on_c, 0, 66, 95
2, 40631, Note_on_c, 0, 66, 0
2, 40632, Note_on_c, 0, 64, 95
2, 40639, Note_on_c, 0, 64, 0
2, 40640, Note_on_c, 0, 66, 95
2, 40647, Note_on_c, 0, 66, 0
2, 40648, Note_on_c, 0, 67, 95
2, 40655, Note_on_c, 0, 67, 0
2, 40656, Note_on_c, 0, 74, 95
2, 40663, Note_on_c, 0, 74, 0
2, 40664, Note_on_c, 0, 67, 95
2, 40671, Note_on_c, 0, 67, 0
2, 40672, Note_on_c, 0, 66, 95
2, 40679, Note_on_c, 0, 66, 0
2, 40680, Note_on_c, 0, 64, 95
2, 40687, Note_on_c, 0, 64, 0
2, 40688, Note_on_c, 0, 66, 95
2, 40695, Note_on_c, 0, 66, 0
2, 40696, Note_on_c, 0, 67, 95
2, 40703, Note_on_c, 0, 67, 0
2, 40704, Note_on_c, 0, 74, 95
2, 40711, Note_on_c, 0, 74, 0
2, 40712, Note_on_c, 0, 67, 95
2, 40719, Note_on_c, 0, 67, 0
2, 40720, Note_on_c, 0, 66, 95
2, 40727, Note_on_c, 0, 66, 0
2, 40728, Note_on_c, 0, 64, 95
2, 40735, Note_on_c, 0, 64, 0
2, 40736, Note_on_c, 0, 66, 95
2, 40743, Note_on_c, 0, 66, 0
2, 40744, Note_on_c, 0, 67, 95
2, 40751, Note_on_c, 0, 67, 0
2, 40752, Note_on_c, 0, 74, 95
2, 40759, Note_on_c, 0, 74, 0
2, 40760, Note_on_c, 0, 67, 95
2, 40767, Note_on_c, 0, 67, 0
2, 40768, Note_on_c, 0, 66, 95
2, 40775, Note_on_c, 0, 66, 0
2, 40776, Note_on_c, 0, 64, 95
2, 40783, Note_on_c, 0, 64, 0
2, 40784, Note_on_c, 0, 66, 95
2, 40791, Note_on_c, 0, 66, 0
2, 40792, Note_on_c, 0, 67, 95
2, 40799, Note_on_c, 0, 67, 0
2, 40800, Note_on_c, 0, 73, 95
2, 40807, Note_on_c, 0, 73, 0
2, 40808, Note_on_c, 0, 67, 95
2, 40815, Note_on_c, 0, 67, 0
2, 40816, Note_on_c, 0, 66, 95
2, 40823, Note_on_c, 0, 66, 0
2, 40824, Note_on_c, 0, 64, 95
2, 40831, Note_on_c, 0, 64, 0
2, 40832, Note_on_c, 0, 66, 95
2, 40839, Note_on_c, 0, 66, 0
2, 40840, Note_on_c, 0, 67, 95
2, 40847, Note_on_c, 0, 67, 0
2, 40848, Note_on_c, 0, 73, 95
2, 40855, Note_on_c, 0, 73, 0
2, 40856, Note_on_c, 0, 67, 95
2, 40863, Note_on_c, 0, 67, 0
2, 40864, Note_on_c, 0, 66, 95
2, 40871, Note_on_c, 0, 66, 0
2, 40872, Note_on_c, 0, 64, 95
2, 40879, Note_on_c, 0, 64, 0
2, 40880, Note_on_c, 0, 66, 95
2, 40887, Note_on_c, 0, 66, 0
2, 40888, Note_on_c, 0, 67, 95
2, 40895, Note_on_c, 0, 67, 0
2, 40896, Note_on_c, 0, 73, 95
2, 40903, Note_on_c, 0, 73, 0
2, 40904, Note_on_c, 0, 67, 95
2, 40911, Note_on_c, 0, 67, 0
2, 40912, Note_on_c, 0, 66, 95
2, 40919, Note_on_c, 0, 66, 0
2, 40920, Note_on_c, 0, 64, 95
2, 40927, Note_on_c, 0, 64, 0
2, 40928, Note_on_c, 0, 66, 95
2, 40935, Note_on_c, 0, 66, 0
2, 40936, Note_on_c, 0, 67, 95
2, 40943, Note_on_c, 0, 67, 0
2, 40944, Note_on_c, 0, 73, 95
2, 40951, Note_on_c, 0, 73, 0
2, 40952, Note_on_c, 0, 67, 95
2, 40959, Note_on_c, 0, 67, 0
2, 40960, Note_on_c, 0, 66, 95
2, 40967, Note_on_c, 0, 66, 0
2, 40968, Note_on_c, 0, 64, 95
2, 40975, Note_on_c, 0, 64, 0
2, 40976, Note_on_c, 0, 66, 95
2, 40983, Note_on_c, 0, 66, 0
2, 40984, Note_on_c, 0, 67, 95
2, 40991, Note_on_c, 0, 67, 0
2, 40992, Note_on_c, 0, 74, 95
2, 40999, Note_on_c, 0, 74, 0
2, 41000, Note_on_c, 0, 66, 95
2, 41007, Note_on_c, 0, 66, 0
2, 41008, Note_on_c, 0, 64, 95
2, 41015, Note_on_c, 0, 64, 0
2, 41016, Note_on_c, 0, 62, 95
2, 41023, Note_on_c, 0, 62, 0
2, 41024, Note_on_c, 0, 64, 95
2, 41031, Note_on_c, 0, 64, 0
2, 41032, Note_on_c, 0, 66, 95
2, 41039, Note_on_c, 0, 66, 0
2, 41040, Note_on_c, 0, 67, 95
2, 41047, Note_on_c, 0, 67, 0
2, 41048, Note_on_c, 0, 66, 95
2, 41055, Note_on_c, 0, 66, 0
2, 41056, Note_on_c, 0, 67, 95
2, 41063, Note_on_c, 0, 67, 0
2, 41064, Note_on_c, 0, 69, 95
2, 41071, Note_on_c, 0, 69, 0
2, 41072, Note_on_c, 0, 67, 95
2, 41079, Note_on_c, 0, 67, 0
2, 41080, Note_on_c, 0, 69, 95
2, 41087, Note_on_c, 0, 69, 0
2, 41088, Note_on_c, 0, 71, 95
2, 41098, Note_on_c, 0, 71, 0
2, 41100, Note_on_c, 0, 72, 95
2, 41110, Note_on_c, 0, 72, 0
2, 41112, Note_on_c, 0, 71, 95
2, 41122, Note_on_c, 0, 71, 0
2, 41124, Note_on_c, 0, 69, 95
2, 41134, Note_on_c, 0, 69, 0
2, 41136, Note_on_c, 0, 67, 95
2, 41146, Note_on_c, 0, 67, 0
2, 41148, Note_on_c, 0, 66, 95
2, 41158, Note_on_c, 0, 66, 0
2, 41160, Note_on_c, 0, 64, 95
2, 41170, Note_on_c, 0, 64, 0
2, 41172, Note_on_c, 0, 62, 95
2, 41182, Note_on_c, 0, 62, 0
2, 41184, Note_on_c, 0, 64, 95
2, 41194, Note_on_c, 0, 64, 0
2, 41196, Note_on_c, 0, 67, 95
2, 41206, Note_on_c, 0, 67, 0
2, 41208, Note_on_c, 0, 66, 95
2, 41218, Note_on_c, 0, 66, 0
2, 41220, Note_on_c, 0, 69, 95
2, 41230, Note_on_c, 0, 69, 0
2, 41232, Note_on_c, 0, 67, 95
2, 41242, Note_on_c, 0, 67, 0
2, 41244, Note_on_c, 0, 66, 95
2, 41254, Note_on_c, 0, 66, 0
2, 41256, Note_on_c, 0, 67, 95
2, 41266, Note_on_c, 0, 67, 0
2, 41268, Note_on_c, 0, 64, 95
2, 41278, Note_on_c, 0, 64, 0
2, 41280, Note_on_c, 0, 69, 95
2, 41311, Note_on_c, 0, 69, 0
2, 41316, Note_on_c, 0, 67, 95
2, 41326, Note_on_c, 0, 67, 0
2, 41328, Note_on_c, 0, 66, 95
2, 41338, Note_on_c, 0, 66, 0
2, 41340, Note_on_c, 0, 64, 95
2, 41350, Note_on_c, 0, 64, 0
2, 41352, Note_on_c, 0, 62, 95
2, 41362, Note_on_c, 0, 62, 0
2, 41364, Note_on_c, 0, 61, 95
2, 41374, Note_on_c, 0, 61, 0
2, 41376, Note_on_c, 0, 62, 95
2, 41386, Note_on_c, 0, 62, 0
2, 41388, Note_on_c, 0, 61, 95
2, 41398, Note_on_c, 0, 61, 0
2, 41400, Note_on_c, 0, 59, 95
2, 41410, Note_on_c, 0, 59, 0
2, 41412, Note_on_c, 0, 62, 95
2, 41422, Note_on_c, 0, 62, 0
2, 41424, Note_on_c, 0, 66, 95
2, 41434, Note_on_c, 0, 66, 0
2, 41436, Note_on_c, 0, 69, 95
2, 41446, Note_on_c, 0, 69, 0
2, 41448, Note_on_c, 0, 67, 95
2, 41458, Note_on_c, 0, 67, 0
2, 41460, Note_on_c, 0, 66, 95
2, 41470, Note_on_c, 0, 66, 0
2, 41472, Note_on_c, 0, 67, 95
2, 41482, Note_on_c, 0, 67, 0
2, 41484, Note_on_c, 0, 66, 95
2, 41494, Note_on_c, 0, 66, 0
2, 41496, Note_on_c, 0, 64, 95
2, 41506, Note_on_c, 0, 64, 0
2, 41508, Note_on_c, 0, 67, 95
2, 41518, Note_on_c, 0, 67, 0
2, 41520, Note_on_c, 0, 71, 95
2, 41530, Note_on_c, 0, 71, 0
2, 41532, Note_on_c, 0, 74, 95
2, 41542, Note_on_c, 0, 74, 0
2, 41544, Note_on_c, 0, 73, 95
2, 41554, Note_on_c, 0, 73, 0
2, 41556, Note_on_c, 0, 71, 95
2, 41566, Note_on_c, 0, 71, 0
2, 41568, Note_on_c, 0, 73, 95
2, 41578, Note_on_c, 0, 73, 0
2, 41580, Note_on_c, 0, 74, 95
2, 41590, Note_on_c, 0, 74, 0
2, 41592, Note_on_c, 0, 76, 95
2, 41602, Note_on_c, 0, 76, 0
2, 41604, Note_on_c, 0, 73, 95
2, 41614, Note_on_c, 0, 73, 0
2, 41616, Note_on_c, 0, 67, 95
2, 41626, Note_on_c, 0, 67, 0
2, 41628, Note_on_c, 0, 71, 95
2, 41638, Note_on_c, 0, 71, 0
2, 41640, Note_on_c, 0, 69, 95
2, 41650, Note_on_c, 0, 69, 0
2, 41652, Note_on_c, 0, 67, 95
2, 41662, Note_on_c, 0, 67, 0
2, 41664, Note_on_c, 0, 66, 95
2, 41674, Note_on_c, 0, 66, 0
2, 41676, Note_on_c, 0, 74, 95
2, 41686, Note_on_c, 0, 74, 0
2, 41688, Note_on_c, 0, 73, 95
2, 41698, Note_on_c, 0, 73, 0
2, 41700, Note_on_c, 0, 71, 95
2, 41710, Note_on_c, 0, 71, 0
2, 41712, Note_on_c, 0, 69, 95
2, 41722, Note_on_c, 0, 69, 0
2, 41724, Note_on_c, 0, 67, 95
2, 41734, Note_on_c, 0, 67, 0
2, 41736, Note_on_c, 0, 66, 95
2, 41746, Note_on_c, 0, 66, 0
2, 41748, Note_on_c, 0, 67, 95
2, 41758, Note_on_c, 0, 67, 0
2, 41760, Note_on_c, 0, 69, 95
2, 41770, Note_on_c, 0, 69, 0
2, 41772, Note_on_c, 0, 67, 95
2, 41782, Note_on_c, 0, 67, 0
2, 41784, Note_on_c, 0, 69, 95
2, 41794, Note_on_c, 0, 69, 0
2, 41796, Note_on_c, 0, 71, 95
2, 41806, Note_on_c, 0, 71, 0
2, 41808, Note_on_c, 0, 73, 95
2, 41818, Note_on_c, 0, 73, 0
2, 41820, Note_on_c, 0, 74, 95
2, 41830, Note_on_c, 0, 74, 0
2, 41832, Note_on_c, 0, 76, 95
2, 41842, Note_on_c, 0, 76, 0
2, 41844, Note_on_c, 0, 73, 95
2, 41854, Note_on_c, 0, 73, 0
2, 41856, Note_on_c, 0, 74, 95
2, 41887, Note_on_c, 0, 74, 0
2, 41892, Note_on_c, 0, 76, 95
2, 41902, Note_on_c, 0, 76, 0
2, 41904, Note_on_c, 0, 76, 95
2, 41935, Note_on_c, 0, 76, 0
2, 41940, Note_on_c, 0, 74, 95
2, 41950, Note_on_c, 0, 74, 0
2, 41952, Note_on_c, 0, 69, 79
2, 41952, Note_on_c, 0, 62, 79
2, 41952, Note_on_c, 0, 66, 79
2, 41952, Note_on_c, 0, 74, 79
2, 42000, Note_on_c, 0, 74, 0
2, 42000, Note_on_c, 0, 69, 0
2, 42000, Note_on_c, 0, 62, 0
2, 42000, Note_on_c, 0, 66, 0
2, 43416, Note_on_c, 0, 66, 79
2, 43416, Note_on_c, 0, 71, 79
2, 43416, Note_on_c, 0, 74, 79
2, 43440, Note_on_c, 0, 74, 0
2, 43440, Note_on_c, 0, 71, 0
2, 43440, Note_on_c, 0, 66, 0
2, 43440, Note_on_c, 0, 64, 79
2, 43440, Note_on_c, 0, 69, 79
2, 43440, Note_on_c, 0, 74, 79
2, 43464, Note_on_c, 0, 74, 0
2, 43464, Note_on_c, 0, 69, 0
2, 43464, Note_on_c, 0, 64, 0
2, 43464, Note_on_c, 0, 67, 79
2, 43464, Note_on_c, 0, 69, 79
2, 43464, Note_on_c, 0, 73, 79
2, 43488, Note_on_c, 0, 73, 0
2, 43488, Note_on_c, 0, 69, 0
2, 43488, Note_on_c, 0, 67, 0
2, 43488, Note_on_c, 0, 69, 79
2, 43488, Note_on_c, 0, 66, 79
2, 43488, Note_on_c, 0, 74, 79
2, 43536, Note_on_c, 0, 74, 0
2, 43536, Note_on_c, 0, 66, 0
2, 43536, Note_on_c, 0, 69, 0
2, 43680, Note_on_c, 0, 62, 95
2, 43680, Note_on_c, 0, 66, 95
2, 43728, Note_on_c, 0, 66, 0
2, 43728, Note_on_c, 0, 62, 0
2, 43728, Note_on_c, 0, 61, 95
2, 43728, Note_on_c, 0, 66, 95
2, 43776, Note_on_c, 0, 66, 0
2, 43776, Note_on_c, 0, 61, 0
2, 43776, Note_on_c, 0, 59, 95
2, 43776, Note_on_c, 0, 64, 95
2, 43824, Note_on_c, 0, 64, 0
2, 43824, Note_on_c, 0, 59, 0
2, 43824, Note_on_c, 0, 55, 95
2, 43824, Note_on_c, 0, 59, 95
2, 43872, Note_on_c, 0, 59, 0
2, 43872, Note_on_c, 0, 55, 0
2, 43872, Note_on_c, 0, 58, 95
2, 43872, Note_on_c, 0, 61, 95
2, 43920, Note_on_c, 0, 61, 0
2, 43920, Note_on_c, 0, 58, 0
2, 43920, Note_on_c, 0, 61, 95
2, 43968, Note_on_c, 0, 61, 0
2, 43968, Note_on_c, 0, 59, 95
2, 43968, Note_on_c, 0, 62, 95
2, 44016, Note_on_c, 0, 62, 0
2, 44016, Note_on_c, 0, 59, 0
2, 44016, Note_on_c, 0, 59, 95
2, 44016, Note_on_c, 0, 64, 95
2, 44064, Note_on_c, 0, 64, 0
2, 44064, Note_on_c, 0, 59, 0
2, 44064, Note_on_c, 0, 58, 95
2, 44064, Note_on_c, 0, 66, 95
2, 44112, Note_on_c, 0, 66, 0
2, 44112, Note_on_c, 0, 58, 0
2, 44112, Note_on_c, 0, 59, 95
2, 44112, Note_on_c, 0, 66, 95
2, 44136, Note_on_c, 0, 59, 0
2, 44136, Note_on_c, 0, 61, 95
2, 44160, Note_on_c, 0, 61, 0
2, 44160, Note_on_c, 0, 66, 0
2, 45264, Note_on_c, 0, 66, 95
2, 45312, Note_on_c, 0, 66, 0
2, 45312, Note_on_c, 0, 71, 95
2, 45360, Note_on_c, 0, 71, 0
2, 45360, Note_on_c, 0, 73, 95
2, 45396, Note_on_c, 0, 73, 0
2, 45396, Note_on_c, 0, 74, 95
2, 45408, Note_on_c, 0, 74, 0
2, 45408, Note_on_c, 0, 70, 95
2, 45456, Note_on_c, 0, 70, 0
2, 45456, Note_on_c, 0, 71, 95
2, 45492, Note_on_c, 0, 71, 0
2, 45492, Note_on_c, 0, 73, 95
2, 45504, Note_on_c, 0, 73, 0
2, 45504, Note_on_c, 0, 74, 95
2, 45552, Note_on_c, 0, 74, 0
2, 45552, Note_on_c, 0, 76, 95
2, 45588, Note_on_c, 0, 76, 0
2, 45588, Note_on_c, 0, 78, 95
2, 45600, Note_on_c, 0, 78, 0
2, 45600, Note_on_c, 0, 73, 95
2, 45612, Note_on_c, 0, 73, 0
2, 45612, Note_on_c, 0, 70, 95
2, 45624, Note_on_c, 0, 70, 0
2, 45624, Note_on_c, 0, 73, 95
2, 45636, Note_on_c, 0, 73, 0
2, 45636, Note_on_c, 0, 76, 95
2, 45648, Note_on_c, 0, 76, 0
2, 45648, Note_on_c, 0, 79, 95
2, 45660, Note_on_c, 0, 79, 0
2, 45660, Note_on_c, 0, 78, 95
2, 45672, Note_on_c, 0, 78, 0
2, 45672, Note_on_c, 0, 79, 95
2, 45684, Note_on_c, 0, 79, 0
2, 45684, Note_on_c, 0, 76, 95
2, 45696, Note_on_c, 0, 76, 0
2, 45696, Note_on_c, 0, 74, 95
2, 45702, Note_on_c, 0, 74, 0
2, 45702, Note_on_c, 0, 76, 95
2, 45708, Note_on_c, 0, 76, 0
2, 45708, Note_on_c, 0, 74, 95
2, 45714, Note_on_c, 0, 74, 0
2, 45714, Note_on_c, 0, 76, 95
2, 45720, Note_on_c, 0, 76, 0
2, 45720, Note_on_c, 0, 74, 95
2, 45726, Note_on_c, 0, 74, 0
2, 45726, Note_on_c, 0, 76, 95
2, 45732, Note_on_c, 0, 76, 0
2, 45732, Note_on_c, 0, 74, 95
2, 45738, Note_on_c, 0, 74, 0
2, 45738, Note_on_c, 0, 76, 95
2, 45744, Note_on_c, 0, 76, 0
2, 45744, Note_on_c, 0, 74, 95
2, 45750, Note_on_c, 0, 74, 0
2, 45750, Note_on_c, 0, 76, 95
2, 45756, Note_on_c, 0, 76, 0
2, 45756, Note_on_c, 0, 74, 95
2, 45762, Note_on_c, 0, 74, 0
2, 45762, Note_on_c, 0, 76, 95
2, 45768, Note_on_c, 0, 76, 0
2, 45768, Note_on_c, 0, 73, 95
2, 45780, Note_on_c, 0, 73, 0
2, 45780, Note_on_c, 0, 74, 95
2, 45792, Note_on_c, 0, 74, 0
2, 45792, Note_on_c, 0, 73, 95
2, 45840, Note_on_c, 0, 73, 0
2, 45840, Note_on_c, 0, 78, 95
2, 45864, Note_on_c, 0, 78, 0
2, 45864, Note_on_c, 0, 76, 95
2, 45888, Note_on_c, 0, 76, 0
2, 45888, Note_on_c, 0, 76, 95
2, 45912, Note_on_c, 0, 76, 0
2, 45912, Note_on_c, 0, 74, 95
2, 45936, Note_on_c, 0, 74, 0
2, 45936, Note_on_c, 0, 76, 95
2, 45960, Note_on_c, 0, 76, 0
2, 45960, Note_on_c, 0, 73, 95
2, 45984, Note_on_c, 0, 73, 0
2, 45984, Note_on_c, 0, 74, 95
2, 46176, Note_on_c, 0, 74, 0
2, 46224, Note_on_c, 0, 83, 95
2, 46248, Note_on_c, 0, 83, 0
2, 46248, Note_on_c, 0, 80, 95
2, 46272, Note_on_c, 0, 80, 0
2, 46272, Note_on_c, 0, 74, 95
2, 46296, Note_on_c, 0, 74, 0
2, 46296, Note_on_c, 0, 73, 95
2, 46320, Note_on_c, 0, 73, 0
2, 46320, Note_on_c, 0, 74, 95
2, 46344, Note_on_c, 0, 74, 0
2, 46344, Note_on_c, 0, 71, 95
2, 46368, Note_on_c, 0, 71, 0
2, 46368, Note_on_c, 0, 73, 95
2, 46560, Note_on_c, 0, 73, 0
2, 46608, Note_on_c, 0, 81, 95
2, 46632, Note_on_c, 0, 81, 0
2, 46632, Note_on_c, 0, 78, 95
2, 46656, Note_on_c, 0, 78, 0
2, 46656, Note_on_c, 0, 72, 95
2, 46680, Note_on_c, 0, 72, 0
2, 46680, Note_on_c, 0, 71, 95
2, 46704, Note_on_c, 0, 71, 0
2, 46704, Note_on_c, 0, 72, 95
2, 46728, Note_on_c, 0, 72, 0
2, 46728, Note_on_c, 0, 69, 95
2, 46752, Note_on_c, 0, 69, 0
2, 46752, Note_on_c, 0, 71, 95
2, 46800, Note_on_c, 0, 71, 0
2, 46800, Note_on_c, 0, 76, 95
2, 46824, Note_on_c, 0, 76, 0
2, 46824, Note_on_c, 0, 73, 95
2, 46848, Note_on_c, 0, 73, 0
2, 46848, Note_on_c, 0, 67, 95
2, 46872, Note_on_c, 0, 67, 0
2, 46872, Note_on_c, 0, 66, 95
2, 46896, Note_on_c, 0, 66, 0
2, 46896, Note_on_c, 0, 67, 95
2, 46920, Note_on_c, 0, 67, 0
2, 46920, Note_on_c, 0, 64, 95
2, 46944, Note_on_c, 0, 64, 0
2, 46944, Note_on_c, 0, 66, 95
2, 47016, Note_on_c, 0, 66, 0
2, 47016, Note_on_c, 0, 67, 95
2, 47040, Note_on_c, 0, 67, 0
2, 47040, Note_on_c, 0, 64, 95
2, 47112, Note_on_c, 0, 64, 0
2, 47112, Note_on_c, 0, 62, 95
2, 47136, Note_on_c, 0, 62, 0
2, 47136, Note_on_c, 0, 62, 95
2, 47232, Note_on_c, 0, 62, 0
2, 48720, Note_on_c, 0, 78, 95
2, 48768, Note_on_c, 0, 78, 0
2, 48768, Note_on_c, 0, 76, 95
2, 48816, Note_on_c, 0, 76, 0
2, 48816, Note_on_c, 0, 74, 95
2, 48852, Note_on_c, 0, 74, 0
2, 48852, Note_on_c, 0, 73, 95
2, 48864, Note_on_c, 0, 73, 0
2, 48864, Note_on_c, 0, 74, 95
2, 48912, Note_on_c, 0, 74, 0
2, 48912, Note_on_c, 0, 71, 95
2, 48936, Note_on_c, 0, 71, 0
2, 48936, Note_on_c, 0, 74, 95
2, 48960, Note_on_c, 0, 74, 0
2, 48960, Note_on_c, 0, 80, 95
2, 48984, Note_on_c, 0, 80, 0
2, 48984, Note_on_c, 0, 81, 95
2, 49008, Note_on_c, 0, 81, 0
2, 49008, Note_on_c, 0, 80, 95
2, 49032, Note_on_c, 0, 80, 0
2, 49032, Note_on_c, 0, 83, 95
2, 49056, Note_on_c, 0, 83, 0
2, 49056, Note_on_c, 0, 81, 95
2, 49248, Note_on_c, 0, 81, 0
2, 49296, Note_on_c, 0, 71, 95
2, 49320, Note_on_c, 0, 71, 0
2, 49320, Note_on_c, 0, 74, 95
2, 49344, Note_on_c, 0, 74, 0
2, 49344, Note_on_c, 0, 78, 95
2, 49368, Note_on_c, 0, 78, 0
2, 49368, Note_on_c, 0, 80, 95
2, 49392, Note_on_c, 0, 80, 0
2, 49392, Note_on_c, 0, 78, 95
2, 49416, Note_on_c, 0, 78, 0
2, 49416, Note_on_c, 0, 81, 95
2, 49440, Note_on_c, 0, 81, 0
2, 49440, Note_on_c, 0, 80, 95
2, 49632, Note_on_c, 0, 80, 0
2, 49680, Note_on_c, 0, 69, 95
2, 49704, Note_on_c, 0, 69, 0
2, 49704, Note_on_c, 0, 73, 95
2, 49728, Note_on_c, 0, 73, 0
2, 49728, Note_on_c, 0, 77, 95
2, 49752, Note_on_c, 0, 77, 0
2, 49752, Note_on_c, 0, 78, 95
2, 49776, Note_on_c, 0, 78, 0
2, 49776, Note_on_c, 0, 77, 95
2, 49800, Note_on_c, 0, 77, 0
2, 49800, Note_on_c, 0, 80, 95
2, 49824, Note_on_c, 0, 80, 0
2, 49824, Note_on_c, 0, 78, 95
2, 49872, Note_on_c, 0, 78, 0
2, 49872, Note_on_c, 0, 74, 95
2, 49896, Note_on_c, 0, 74, 0
2, 49896, Note_on_c, 0, 71, 95
2, 49920, Note_on_c, 0, 71, 0
2, 49920, Note_on_c, 0, 68, 95
2, 49944, Note_on_c, 0, 68, 0
2, 49944, Note_on_c, 0, 66, 95
2, 49968, Note_on_c, 0, 66, 0
2, 49968, Note_on_c, 0, 68, 95
2, 49992, Note_on_c, 0, 68, 0
2, 49992, Note_on_c, 0, 78, 95
2, 50016, Note_on_c, 0, 78, 0
2, 50016, Note_on_c, 0, 77, 95
2, 50040, Note_on_c, 0, 77, 0
2, 50040, Note_on_c, 0, 78, 95
2, 50064, Note_on_c, 0, 78, 0
2, 50064, Note_on_c, 0, 77, 95
2, 50088, Note_on_c, 0, 77, 0
2, 50088, Note_on_c, 0, 78, 95
2, 50112, Note_on_c, 0, 78, 0
2, 50112, Note_on_c, 0, 77, 95
2, 50118, Note_on_c, 0, 77, 0
2, 50118, Note_on_c, 0, 78, 95
2, 50124, Note_on_c, 0, 78, 0
2, 50124, Note_on_c, 0, 77, 95
2, 50130, Note_on_c, 0, 77, 0
2, 50130, Note_on_c, 0, 78, 95
2, 50136, Note_on_c, 0, 78, 0
2, 50136, Note_on_c, 0, 77, 95
2, 50142, Note_on_c, 0, 77, 0
2, 50142, Note_on_c, 0, 78, 95
2, 50148, Note_on_c, 0, 78, 0
2, 50148, Note_on_c, 0, 77, 95
2, 50154, Note_on_c, 0, 77, 0
2, 50154, Note_on_c, 0, 78, 95
2, 50160, Note_on_c, 0, 78, 0
2, 50160, Note_on_c, 0, 77, 95
2, 50166, Note_on_c, 0, 77, 0
2, 50166, Note_on_c, 0, 78, 95
2, 50172, Note_on_c, 0, 78, 0
2, 50172, Note_on_c, 0, 77, 95
2, 50178, Note_on_c, 0, 77, 0
2, 50178, Note_on_c, 0, 78, 95
2, 50184, Note_on_c, 0, 78, 0
2, 50184, Note_on_c, 0, 77, 95
2, 50196, Note_on_c, 0, 77, 0
2, 50196, Note_on_c, 0, 78, 95
2, 50208, Note_on_c, 0, 78, 0
2, 50208, Note_on_c, 0, 80, 95
2, 50256, Note_on_c, 0, 80, 0
2, 50256, Note_on_c, 0, 73, 95
2, 50304, Note_on_c, 0, 73, 0
2, 50352, Note_on_c, 0, 73, 95
2, 50400, Note_on_c, 0, 73, 0
2, 50400, Note_on_c, 0, 71, 95
2, 50424, Note_on_c, 0, 71, 0
2, 50424, Note_on_c, 0, 74, 95
2, 50448, Note_on_c, 0, 74, 0
2, 50448, Note_on_c, 0, 73, 95
2, 50472, Note_on_c, 0, 73, 0
2, 50472, Note_on_c, 0, 71, 95
2, 50496, Note_on_c, 0, 71, 0
2, 50496, Note_on_c, 0, 69, 95
2, 50520, Note_on_c, 0, 69, 0
2, 50520, Note_on_c, 0, 68, 95
2, 50544, Note_on_c, 0, 68, 0
2, 50544, Note_on_c, 0, 65, 95
2, 50568, Note_on_c, 0, 65, 0
2, 50568, Note_on_c, 0, 66, 95
2, 50592, Note_on_c, 0, 66, 0
2, 50592, Note_on_c, 0, 74, 95
2, 50712, Note_on_c, 0, 71, 95
2, 50736, Note_on_c, 0, 71, 0
2, 50736, Note_on_c, 0, 74, 0
2, 50736, Note_on_c, 0, 77, 95
2, 50760, Note_on_c, 0, 77, 0
2, 50760, Note_on_c, 0, 78, 95
2, 50784, Note_on_c, 0, 78, 0
2, 50784, Note_on_c, 0, 69, 95
2, 50808, Note_on_c, 0, 69, 0
2, 50808, Note_on_c, 0, 72, 95
2, 50832, Note_on_c, 0, 72, 0
2, 50832, Note_on_c, 0, 73, 95
2, 50856, Note_on_c, 0, 73, 0
2, 50856, Note_on_c, 0, 66, 95
2, 50880, Note_on_c, 0, 66, 0
2, 50880, Note_on_c, 0, 69, 95
2, 50928, Note_on_c, 0, 69, 0
2, 50928, Note_on_c, 0, 68, 95
2, 50964, Note_on_c, 0, 68, 0
2, 50964, Note_on_c, 0, 66, 95
2, 50976, Note_on_c, 0, 66, 0
2, 50976, Note_on_c, 0, 66, 95
2, 51072, Note_on_c, 0, 66, 0
2, 52560, Note_on_c, 0, 73, 95
2, 52608, Note_on_c, 0, 73, 0
2, 52608, Note_on_c, 0, 78, 95
2, 52656, Note_on_c, 0, 78, 0
2, 52656, Note_on_c, 0, 79, 95
2, 52692, Note_on_c, 0, 79, 0
2, 52692, Note_on_c, 0, 81, 95
2, 52704, Note_on_c, 0, 81, 0
2, 52704, Note_on_c, 0, 75, 95
2, 52776, Note_on_c, 0, 75, 0
2, 52776, Note_on_c, 0, 76, 95
2, 52800, Note_on_c, 0, 76, 0
2, 52800, Note_on_c, 0, 78, 95
2, 52944, Note_on_c, 0, 78, 0
2, 52944, Note_on_c, 0, 71, 95
2, 52992, Note_on_c, 0, 71, 0
2, 52992, Note_on_c, 0, 76, 95
2, 53040, Note_on_c, 0, 76, 0
2, 53040, Note_on_c, 0, 78, 95
2, 53076, Note_on_c, 0, 78, 0
2, 53076, Note_on_c, 0, 79, 95
2, 53088, Note_on_c, 0, 79, 0
2, 53088, Note_on_c, 0, 73, 95
2, 53160, Note_on_c, 0, 73, 0
2, 53160, Note_on_c, 0, 74, 95
2, 53184, Note_on_c, 0, 74, 0
2, 53184, Note_on_c, 0, 76, 95
2, 53304, Note_on_c, 0, 74, 95
2, 53328, Note_on_c, 0, 74, 0
2, 53328, Note_on_c, 0, 76, 0
2, 53328, Note_on_c, 0, 81, 95
2, 53352, Note_on_c, 0, 81, 0
2, 53352, Note_on_c, 0, 78, 95
2, 53376, Note_on_c, 0, 78, 0
2, 53376, Note_on_c, 0, 72, 95
2, 53400, Note_on_c, 0, 72, 0
2, 53400, Note_on_c, 0, 71, 95
2, 53424, Note_on_c, 0, 71, 0
2, 53424, Note_on_c, 0, 72, 95
2, 53448, Note_on_c, 0, 72, 0
2, 53448, Note_on_c, 0, 69, 95
2, 53472, Note_on_c, 0, 69, 0
2, 53472, Note_on_c, 0, 71, 95
2, 53520, Note_on_c, 0, 71, 0
2, 53520, Note_on_c, 0, 83, 95
2, 53544, Note_on_c, 0, 83, 0
2, 53544, Note_on_c, 0, 80, 95
2, 53568, Note_on_c, 0, 80, 0
2, 53568, Note_on_c, 0, 74, 95
2, 53592, Note_on_c, 0, 74, 0
2, 53592, Note_on_c, 0, 73, 95
2, 53616, Note_on_c, 0, 73, 0
2, 53616, Note_on_c, 0, 74, 95
2, 53640, Note_on_c, 0, 74, 0
2, 53640, Note_on_c, 0, 71, 95
2, 53664, Note_on_c, 0, 71, 0
2, 53664, Note_on_c, 0, 72, 95
2, 53688, Note_on_c, 0, 72, 0
2, 53688, Note_on_c, 0, 69, 95
2, 53712, Note_on_c, 0, 69, 0
2, 53712, Note_on_c, 0, 78, 95
2, 53736, Note_on_c, 0, 78, 0
2, 53736, Note_on_c, 0, 75, 95
2, 53760, Note_on_c, 0, 75, 0
2, 53760, Note_on_c, 0, 69, 95
2, 53784, Note_on_c, 0, 69, 0
2, 53784, Note_on_c, 0, 67, 95
2, 53808, Note_on_c, 0, 67, 0
2, 53808, Note_on_c, 0, 69, 95
2, 53832, Note_on_c, 0, 69, 0
2, 53832, Note_on_c, 0, 66, 95
2, 53856, Note_on_c, 0, 66, 0
2, 53856, Note_on_c, 0, 67, 95
2, 53880, Note_on_c, 0, 67, 0
2, 53880, Note_on_c, 0, 71, 95
2, 53904, Note_on_c, 0, 71, 0
2, 53904, Note_on_c, 0, 75, 95
2, 53928, Note_on_c, 0, 75, 0
2, 53928, Note_on_c, 0, 76, 95
2, 53952, Note_on_c, 0, 76, 0
2, 53952, Note_on_c, 0, 69, 95
2, 53976, Note_on_c, 0, 69, 0
2, 53976, Note_on_c, 0, 78, 95
2, 54000, Note_on_c, 0, 78, 0
2, 54000, Note_on_c, 0, 79, 95
2, 54024, Note_on_c, 0, 79, 0
2, 54024, Note_on_c, 0, 81, 95
2, 54048, Note_on_c, 0, 81, 0
2, 54048, Note_on_c, 0, 75, 95
2, 54054, Note_on_c, 0, 75, 0
2, 54054, Note_on_c, 0, 76, 95
2, 54060, Note_on_c, 0, 76, 0
2, 54060, Note_on_c, 0, 75, 95
2, 54066, Note_on_c, 0, 75, 0
2, 54066, Note_on_c, 0, 76, 95
2, 54072, Note_on_c, 0, 76, 0
2, 54072, Note_on_c, 0, 75, 95
2, 54078, Note_on_c, 0, 75, 0
2, 54078, Note_on_c, 0, 76, 95
2, 54084, Note_on_c, 0, 76, 0
2, 54084, Note_on_c, 0, 75, 95
2, 54090, Note_on_c, 0, 75, 0
2, 54090, Note_on_c, 0, 76, 95
2, 54096, Note_on_c, 0, 76, 0
2, 54096, Note_on_c, 0, 75, 95
2, 54102, Note_on_c, 0, 75, 0
2, 54102, Note_on_c, 0, 76, 95
2, 54108, Note_on_c, 0, 76, 0
2, 54108, Note_on_c, 0, 75, 95
2, 54114, Note_on_c, 0, 75, 0
2, 54114, Note_on_c, 0, 76, 95
2, 54120, Note_on_c, 0, 76, 0
2, 54120, Note_on_c, 0, 75, 95
2, 54126, Note_on_c, 0, 75, 0
2, 54126, Note_on_c, 0, 76, 95
2, 54132, Note_on_c, 0, 76, 0
2, 54132, Note_on_c, 0, 75, 95
2, 54138, Note_on_c, 0, 75, 0
2, 54138, Note_on_c, 0, 76, 95
2, 54144, Note_on_c, 0, 76, 0
2, 54192, Note_on_c, 0, 78, 95
2, 54240, Note_on_c, 0, 78, 0
2, 54240, Note_on_c, 0, 78, 95
2, 54264, Note_on_c, 0, 78, 0
2, 54264, Note_on_c, 0, 75, 95
2, 54288, Note_on_c, 0, 75, 0
2, 54288, Note_on_c, 0, 76, 95
2, 54336, Note_on_c, 0, 76, 0
2, 54384, Note_on_c, 0, 79, 95
2, 54432, Note_on_c, 0, 79, 0
2, 54432, Note_on_c, 0, 79, 95
2, 54456, Note_on_c, 0, 79, 0
2, 54456, Note_on_c, 0, 76, 95
2, 54480, Note_on_c, 0, 76, 0
2, 54480, Note_on_c, 0, 78, 95
2, 54528, Note_on_c, 0, 78, 0
2, 54576, Note_on_c, 0, 81, 95
2, 54624, Note_on_c, 0, 81, 0
2, 54624, Note_on_c, 0, 72, 95
2, 54648, Note_on_c, 0, 72, 0
2, 54648, Note_on_c, 0, 69, 95
2, 54672, Note_on_c, 0, 69, 0
2, 54672, Note_on_c, 0, 71, 95
2, 54696, Note_on_c, 0, 71, 0
2, 54696, Note_on_c, 0, 79, 95
2, 54720, Note_on_c, 0, 79, 0
2, 54720, Note_on_c, 0, 78, 95
2, 54744, Note_on_c, 0, 78, 0
2, 54744, Note_on_c, 0, 76, 95
2, 54768, Note_on_c, 0, 76, 0
2, 54768, Note_on_c, 0, 79, 95
2, 54792, Note_on_c, 0, 79, 0
2, 54792, Note_on_c, 0, 75, 95
2, 54816, Note_on_c, 0, 75, 0
2, 54816, Note_on_c, 0, 76, 95
2, 54912, Note_on_c, 0, 76, 0
2, 56400, Note_on_c, 0, 71, 95
2, 56448, Note_on_c, 0, 71, 0
2, 56448, Note_on_c, 0, 69, 95
2, 56496, Note_on_c, 0, 69, 0
2, 56496, Note_on_c, 0, 67, 95
2, 56532, Note_on_c, 0, 67, 0
2, 56532, Note_on_c, 0, 66, 95
2, 56544, Note_on_c, 0, 66, 0
2, 56544, Note_on_c, 0, 67, 95
2, 56592, Note_on_c, 0, 67, 0
2, 56592, Note_on_c, 0, 64, 95
2, 56616, Note_on_c, 0, 64, 0
2, 56616, Note_on_c, 0, 67, 95
2, 56640, Note_on_c, 0, 67, 0
2, 56640, Note_on_c, 0, 73, 95
2, 56664, Note_on_c, 0, 73, 0
2, 56664, Note_on_c, 0, 74, 95
2, 56688, Note_on_c, 0, 74, 0
2, 56688, Note_on_c, 0, 73, 95
2, 56712, Note_on_c, 0, 73, 0
2, 56712, Note_on_c, 0, 76, 95
2, 56736, Note_on_c, 0, 76, 0
2, 56736, Note_on_c, 0, 74, 95
2, 56928, Note_on_c, 0, 74, 0
2, 56976, Note_on_c, 0, 64, 95
2, 57000, Note_on_c, 0, 64, 0
2, 57000, Note_on_c, 0, 67, 95
2, 57024, Note_on_c, 0, 67, 0
2, 57024, Note_on_c, 0, 71, 95
2, 57048, Note_on_c, 0, 71, 0
2, 57048, Note_on_c, 0, 73, 95
2, 57072, Note_on_c, 0, 73, 0
2, 57072, Note_on_c, 0, 71, 95
2, 57096, Note_on_c, 0, 71, 0
2, 57096, Note_on_c, 0, 74, 95
2, 57120, Note_on_c, 0, 74, 0
2, 57120, Note_on_c, 0, 73, 95
2, 57312, Note_on_c, 0, 73, 0
2, 57360, Note_on_c, 0, 62, 95
2, 57384, Note_on_c, 0, 62, 0
2, 57384, Note_on_c, 0, 66, 95
2, 57408, Note_on_c, 0, 66, 0
2, 57408, Note_on_c, 0, 70, 95
2, 57432, Note_on_c, 0, 70, 0
2, 57432, Note_on_c, 0, 71, 95
2, 57456, Note_on_c, 0, 71, 0
2, 57456, Note_on_c, 0, 70, 95
2, 57480, Note_on_c, 0, 70, 0
2, 57480, Note_on_c, 0, 73, 95
2, 57504, Note_on_c, 0, 73, 0
2, 57504, Note_on_c, 0, 71, 95
2, 57552, Note_on_c, 0, 71, 0
2, 57552, Note_on_c, 0, 67, 95
2, 57576, Note_on_c, 0, 67, 0
2, 57576, Note_on_c, 0, 64, 95
2, 57600, Note_on_c, 0, 64, 0
2, 57600, Note_on_c, 0, 61, 95
2, 57624, Note_on_c, 0, 61, 0
2, 57624, Note_on_c, 0, 59, 95
2, 57648, Note_on_c, 0, 59, 0
2, 57648, Note_on_c, 0, 61, 95
2, 57672, Note_on_c, 0, 61, 0
2, 57672, Note_on_c, 0, 71, 95
2, 57696, Note_on_c, 0, 71, 0
2, 57696, Note_on_c, 0, 70, 95
2, 57720, Note_on_c, 0, 70, 0
2, 57720, Note_on_c, 0, 71, 95
2, 57744, Note_on_c, 0, 71, 0
2, 57744, Note_on_c, 0, 70, 95
2, 57768, Note_on_c, 0, 70, 0
2, 57768, Note_on_c, 0, 71, 95
2, 57792, Note_on_c, 0, 71, 0
2, 57792, Note_on_c, 0, 71, 95
2, 57864, Note_on_c, 0, 71, 0
2, 57864, Note_on_c, 0, 70, 95
2, 57876, Note_on_c, 0, 70, 0
2, 57876, Note_on_c, 0, 71, 95
2, 57888, Note_on_c, 0, 71, 0
2, 57888, Note_on_c, 0, 73, 95
2, 57936, Note_on_c, 0, 73, 0
2, 57936, Note_on_c, 0, 66, 95
2, 57984, Note_on_c, 0, 66, 0
2, 58032, Note_on_c, 0, 78, 95
2, 58080, Note_on_c, 0, 78, 0
2, 58080, Note_on_c, 0, 76, 95
2, 58104, Note_on_c, 0, 76, 0
2, 58104, Note_on_c, 0, 79, 95
2, 58128, Note_on_c, 0, 79, 0
2, 58128, Note_on_c, 0, 78, 95
2, 58152, Note_on_c, 0, 78, 0
2, 58152, Note_on_c, 0, 76, 95
2, 58176, Note_on_c, 0, 76, 0
2, 58176, Note_on_c, 0, 74, 95
2, 58200, Note_on_c, 0, 74, 0
2, 58200, Note_on_c, 0, 73, 95
2, 58224, Note_on_c, 0, 73, 0
2, 58224, Note_on_c, 0, 70, 95
2, 58248, Note_on_c, 0, 70, 0
2, 58248, Note_on_c, 0, 71, 95
2, 58272, Note_on_c, 0, 71, 0
2, 58272, Note_on_c, 0, 79, 95
2, 58392, Note_on_c, 0, 76, 95
2, 58416, Note_on_c, 0, 76, 0
2, 58416, Note_on_c, 0, 79, 0
2, 58416, Note_on_c, 0, 82, 95
2, 58440, Note_on_c, 0, 82, 0
2, 58440, Note_on_c, 0, 83, 95
2, 58464, Note_on_c, 0, 83, 0
2, 58464, Note_on_c, 0, 74, 95
2, 58488, Note_on_c, 0, 74, 0
2, 58488, Note_on_c, 0, 77, 95
2, 58512, Note_on_c, 0, 77, 0
2, 58512, Note_on_c, 0, 78, 95
2, 58536, Note_on_c, 0, 78, 0
2, 58536, Note_on_c, 0, 71, 95
2, 58560, Note_on_c, 0, 71, 0
2, 58560, Note_on_c, 0, 74, 95
2, 58566, Note_on_c, 0, 74, 0
2, 58566, Note_on_c, 0, 76, 95
2, 58572, Note_on_c, 0, 76, 0
2, 58572, Note_on_c, 0, 74, 95
2, 58578, Note_on_c, 0, 74, 0
2, 58578, Note_on_c, 0, 76, 95
2, 58584, Note_on_c, 0, 76, 0
2, 58584, Note_on_c, 0, 74, 95
2, 58590, Note_on_c, 0, 74, 0
2, 58590, Note_on_c, 0, 76, 95
2, 58596, Note_on_c, 0, 76, 0
2, 58596, Note_on_c, 0, 74, 95
2, 58602, Note_on_c, 0, 74, 0
2, 58602, Note_on_c, 0, 76, 95
2, 58608, Note_on_c, 0, 76, 0
2, 58608, Note_on_c, 0, 73, 95
2, 58620, Note_on_c, 0, 73, 0
2, 58620, Note_on_c, 0, 71, 95
2, 58632, Note_on_c, 0, 71, 0
2, 58632, Note_on_c, 0, 73, 95
2, 58656, Note_on_c, 0, 73, 0
2, 58656, Note_on_c, 0, 71, 95
2, 58752, Note_on_c, 0, 71, 0
2, 58896, Note_on_c, 0, 61, 95
2, 58920, Note_on_c, 0, 61, 0
2, 58920, Note_on_c, 0, 64, 95
2, 58944, Note_on_c, 0, 64, 0
2, 58944, Note_on_c, 0, 70, 95
2, 58968, Note_on_c, 0, 70, 0
2, 58968, Note_on_c, 0, 71, 95
2, 58992, Note_on_c, 0, 71, 0
2, 58992, Note_on_c, 0, 70, 95
2, 59016, Note_on_c, 0, 70, 0
2, 59016, Note_on_c, 0, 73, 95
2, 59040, Note_on_c, 0, 73, 0
2, 59040, Note_on_c, 0, 62, 95
2, 59136, Note_on_c, 0, 62, 0
2, 59280, Note_on_c, 0, 61, 95
2, 59304, Note_on_c, 0, 61, 0
2, 59304, Note_on_c, 0, 64, 95
2, 59328, Note_on_c, 0, 64, 0
2, 59328, Note_on_c, 0, 70, 95
2, 59352, Note_on_c, 0, 70, 0
2, 59352, Note_on_c, 0, 71, 95
2, 59376, Note_on_c, 0, 71, 0
2, 59376, Note_on_c, 0, 70, 95
2, 59400, Note_on_c, 0, 70, 0
2, 59400, Note_on_c, 0, 73, 95
2, 59424, Note_on_c, 0, 73, 0
2, 59424, Note_on_c, 0, 62, 95
2, 59448, Note_on_c, 0, 62, 0
2, 59448, Note_on_c, 0, 61, 95
2, 59472, Note_on_c, 0, 61, 0
2, 59472, Note_on_c, 0, 62, 95
2, 59496, Note_on_c, 0, 62, 0
2, 59496, Note_on_c, 0, 66, 95
2, 59520, Note_on_c, 0, 66, 0
2, 59520, Note_on_c, 0, 71, 95
2, 59544, Note_on_c, 0, 71, 0
2, 59544, Note_on_c, 0, 73, 95
2, 59568, Note_on_c, 0, 73, 0
2, 59568, Note_on_c, 0, 71, 95
2, 59592, Note_on_c, 0, 71, 0
2, 59592, Note_on_c, 0, 74, 95
2, 59616, Note_on_c, 0, 74, 0
2, 59616, Note_on_c, 0, 64, 95
2, 59640, Note_on_c, 0, 64, 0
2, 59640, Note_on_c, 0, 62, 95
2, 59664, Note_on_c, 0, 62, 0
2, 59664, Note_on_c, 0, 64, 95
2, 59688, Note_on_c, 0, 64, 0
2, 59688, Note_on_c, 0, 67, 95
2, 59712, Note_on_c, 0, 67, 0
2, 59712, Note_on_c, 0, 73, 95
2, 59736, Note_on_c, 0, 73, 0
2, 59736, Note_on_c, 0, 74, 95
2, 59760, Note_on_c, 0, 74, 0
2, 59760, Note_on_c, 0, 73, 95
2, 59784, Note_on_c, 0, 73, 0
2, 59784, Note_on_c, 0, 76, 95
2, 59808, Note_on_c, 0, 76, 0
2, 59808, Note_on_c, 0, 76, 95
2, 59856, Note_on_c, 0, 76, 0
2, 59856, Note_on_c, 0, 70, 95
2, 59862, Note_on_c, 0, 70, 0
2, 59862, Note_on_c, 0, 71, 95
2, 59868, Note_on_c, 0, 71, 0
2, 59868, Note_on_c, 0, 70, 95
2, 59874, Note_on_c, 0, 70, 0
2, 59874, Note_on_c, 0, 71, 95
2, 59880, Note_on_c, 0, 71, 0
2, 59880, Note_on_c, 0, 70, 95
2, 59886, Note_on_c, 0, 70, 0
2, 59886, Note_on_c, 0, 71, 95
2, 59892, Note_on_c, 0, 71, 0
2, 59892, Note_on_c, 0, 70, 95
2, 59898, Note_on_c, 0, 70, 0
2, 59898, Note_on_c, 0, 71, 95
2, 59904, Note_on_c, 0, 71, 0
2, 59952, Note_on_c, 0, 73, 95
2, 60000, Note_on_c, 0, 73, 0
2, 60000, Note_on_c, 0, 73, 95
2, 60024, Note_on_c, 0, 73, 0
2, 60024, Note_on_c, 0, 70, 95
2, 60048, Note_on_c, 0, 70, 0
2, 60048, Note_on_c, 0, 71, 95
2, 60096, Note_on_c, 0, 71, 0
2, 60144, Note_on_c, 0, 74, 95
2, 60192, Note_on_c, 0, 74, 0
2, 60192, Note_on_c, 0, 74, 95
2, 60216, Note_on_c, 0, 74, 0
2, 60216, Note_on_c, 0, 71, 95
2, 60240, Note_on_c, 0, 71, 0
2, 60240, Note_on_c, 0, 73, 95
2, 60288, Note_on_c, 0, 73, 0
2, 60336, Note_on_c, 0, 76, 95
2, 60384, Note_on_c, 0, 76, 0
2, 60384, Note_on_c, 0, 67, 95
2, 60408, Note_on_c, 0, 67, 0
2, 60408, Note_on_c, 0, 64, 95
2, 60432, Note_on_c, 0, 64, 0
2, 60432, Note_on_c, 0, 66, 95
2, 60456, Note_on_c, 0, 66, 0
2, 60456, Note_on_c, 0, 74, 95
2, 60480, Note_on_c, 0, 74, 0
2, 60480, Note_on_c, 0, 73, 95
2, 60504, Note_on_c, 0, 73, 0
2, 60504, Note_on_c, 0, 71, 95
2, 60528, Note_on_c, 0, 71, 0
2, 60528, Note_on_c, 0, 73, 95
2, 60552, Note_on_c, 0, 73, 0
2, 60552, Note_on_c, 0, 70, 95
2, 60576, Note_on_c, 0, 70, 0
2, 60576, Note_on_c, 0, 71, 95
2, 60672, Note_on_c, 0, 71, 0
2, 63300, Note_on_c, 0, 74, 95
2, 63312, Note_on_c, 0, 74, 0
2, 63312, Note_on_c, 0, 81, 95
2, 63336, Note_on_c, 0, 81, 0
2, 63348, Note_on_c, 0, 76, 95
2, 63356, Note_on_c, 0, 76, 0
2, 63360, Note_on_c, 0, 78, 95
2, 63371, Note_on_c, 0, 78, 0
2, 63376, Note_on_c, 0, 76, 95
2, 63387, Note_on_c, 0, 76, 0
2, 63392, Note_on_c, 0, 74, 95
2, 63403, Note_on_c, 0, 74, 0
2, 63408, Note_on_c, 0, 73, 95
2, 63419, Note_on_c, 0, 73, 0
2, 63424, Note_on_c, 0, 74, 95
2, 63435, Note_on_c, 0, 74, 0
2, 63440, Note_on_c, 0, 76, 95
2, 63451, Note_on_c, 0, 76, 0
2, 63456, Note_on_c, 0, 69, 95
2, 63467, Note_on_c, 0, 69, 0
2, 63472, Note_on_c, 0, 73, 95
2, 63483, Note_on_c, 0, 73, 0
2, 63488, Note_on_c, 0, 71, 95
2, 63499, Note_on_c, 0, 71, 0
2, 63504, Note_on_c, 0, 69, 95
2, 63515, Note_on_c, 0, 69, 0
2, 63520, Note_on_c, 0, 71, 95
2, 63531, Note_on_c, 0, 71, 0
2, 63536, Note_on_c, 0, 73, 95
2, 63547, Note_on_c, 0, 73, 0
2, 63552, Note_on_c, 0, 66, 95
2, 63563, Note_on_c, 0, 66, 0
2, 63568, Note_on_c, 0, 71, 95
2, 63579, Note_on_c, 0, 71, 0
2, 63584, Note_on_c, 0, 69, 95
2, 63595, Note_on_c, 0, 69, 0
2, 63600, Note_on_c, 0, 68, 95
2, 63611, Note_on_c, 0, 68, 0
2, 63616, Note_on_c, 0, 73, 95
2, 63627, Note_on_c, 0, 73, 0
2, 63632, Note_on_c, 0, 71, 95
2, 63643, Note_on_c, 0, 71, 0
2, 63648, Note_on_c, 0, 69, 95
2, 63653, Note_on_c, 0, 69, 0
2, 63656, Note_on_c, 0, 68, 95
2, 63661, Note_on_c, 0, 68, 0
2, 63664, Note_on_c, 0, 69, 95
2, 63669, Note_on_c, 0, 69, 0
2, 63672, Note_on_c, 0, 71, 95
2, 63677, Note_on_c, 0, 71, 0
2, 63680, Note_on_c, 0, 73, 95
2, 63685, Note_on_c, 0, 73, 0
2, 63688, Note_on_c, 0, 74, 95
2, 63693, Note_on_c, 0, 74, 0
2, 63696, Note_on_c, 0, 76, 95
2, 63701, Note_on_c, 0, 76, 0
2, 63704, Note_on_c, 0, 78, 95
2, 63709, Note_on_c, 0, 78, 0
2, 63712, Note_on_c, 0, 76, 95
2, 63717, Note_on_c, 0, 76, 0
2, 63720, Note_on_c, 0, 74, 95
2, 63725, Note_on_c, 0, 74, 0
2, 63728, Note_on_c, 0, 73, 95
2, 63733, Note_on_c, 0, 73, 0
2, 63736, Note_on_c, 0, 71, 95
2, 63741, Note_on_c, 0, 71, 0
2, 63744, Note_on_c, 0, 69, 95
2, 63749, Note_on_c, 0, 69, 0
2, 63752, Note_on_c, 0, 73, 95
2, 63757, Note_on_c, 0, 73, 0
2, 63760, Note_on_c, 0, 71, 95
2, 63765, Note_on_c, 0, 71, 0
2, 63768, Note_on_c, 0, 69, 95
2, 63773, Note_on_c, 0, 69, 0
2, 63776, Note_on_c, 0, 68, 95
2, 63781, Note_on_c, 0, 68, 0
2, 63784, Note_on_c, 0, 66, 95
2, 63789, Note_on_c, 0, 66, 0
2, 63792, Note_on_c, 0, 64, 95
2, 63797, Note_on_c, 0, 64, 0
2, 63800, Note_on_c, 0, 66, 95
2, 63805, Note_on_c, 0, 66, 0
2, 63808, Note_on_c, 0, 64, 95
2, 63813, Note_on_c, 0, 64, 0
2, 63816, Note_on_c, 0, 62, 95
2, 63821, Note_on_c, 0, 62, 0
2, 63824, Note_on_c, 0, 61, 95
2, 63829, Note_on_c, 0, 61, 0
2, 63832, Note_on_c, 0, 59, 95
2, 63837, Note_on_c, 0, 59, 0
2, 63840, Note_on_c, 0, 57, 95
2, 63845, Note_on_c, 0, 57, 0
2, 63888, Note_on_c, 0, 69, 95
2, 63904, Note_on_c, 0, 69, 0
2, 63936, Note_on_c, 0, 69, 95
2, 63952, Note_on_c, 0, 69, 0
2, 63984, Note_on_c, 0, 68, 95
2, 64000, Note_on_c, 0, 68, 0
2, 64032, Note_on_c, 0, 69, 95
2, 64036, Note_on_c, 0, 69, 0
2, 64038, Note_on_c, 0, 71, 95
2, 64042, Note_on_c, 0, 71, 0
2, 64044, Note_on_c, 0, 69, 95
2, 64048, Note_on_c, 0, 69, 0
2, 64050, Note_on_c, 0, 71, 95
2, 64054, Note_on_c, 0, 71, 0
2, 64056, Note_on_c, 0, 69, 95
2, 64060, Note_on_c, 0, 69, 0
2, 64062, Note_on_c, 0, 71, 95
2, 64066, Note_on_c, 0, 71, 0
2, 64068, Note_on_c, 0, 69, 95
2, 64072, Note_on_c, 0, 69, 0
2, 64074, Note_on_c, 0, 71, 95
2, 64078, Note_on_c, 0, 71, 0
2, 64080, Note_on_c, 0, 69, 95
2, 64084, Note_on_c, 0, 69, 0
2, 64086, Note_on_c, 0, 71, 95
2, 64090, Note_on_c, 0, 71, 0
2, 64092, Note_on_c, 0, 69, 95
2, 64096, Note_on_c, 0, 69, 0
2, 64098, Note_on_c, 0, 71, 95
2, 64102, Note_on_c, 0, 71, 0
2, 64104, Note_on_c, 0, 69, 95
2, 64108, Note_on_c, 0, 69, 0
2, 64110, Note_on_c, 0, 71, 95
2, 64114, Note_on_c, 0, 71, 0
2, 64116, Note_on_c, 0, 69, 95
2, 64120, Note_on_c, 0, 69, 0
2, 64122, Note_on_c, 0, 71, 95
2, 64126, Note_on_c, 0, 71, 0
2, 64128, Note_on_c, 0, 69, 95
2, 64139, Note_on_c, 0, 69, 0
2, 64144, Note_on_c, 0, 73, 95
2, 64155, Note_on_c, 0, 73, 0
2, 64160, Note_on_c, 0, 71, 95
2, 64171, Note_on_c, 0, 71, 0
2, 64176, Note_on_c, 0, 69, 95
2, 64187, Note_on_c, 0, 69, 0
2, 64192, Note_on_c, 0, 68, 95
2, 64203, Note_on_c, 0, 68, 0
2, 64208, Note_on_c, 0, 66, 95
2, 64219, Note_on_c, 0, 66, 0
2, 64224, Note_on_c, 0, 64, 95
2, 64228, Note_on_c, 0, 64, 0
2, 64230, Note_on_c, 0, 66, 95
2, 64234, Note_on_c, 0, 66, 0
2, 64236, Note_on_c, 0, 64, 95
2, 64240, Note_on_c, 0, 64, 0
2, 64242, Note_on_c, 0, 66, 95
2, 64246, Note_on_c, 0, 66, 0
2, 64248, Note_on_c, 0, 64, 95
2, 64252, Note_on_c, 0, 64, 0
2, 64254, Note_on_c, 0, 66, 95
2, 64258, Note_on_c, 0, 66, 0
2, 64260, Note_on_c, 0, 64, 95
2, 64264, Note_on_c, 0, 64, 0
2, 64266, Note_on_c, 0, 66, 95
2, 64270, Note_on_c, 0, 66, 0
2, 64272, Note_on_c, 0, 64, 95
2, 64276, Note_on_c, 0, 64, 0
2, 64278, Note_on_c, 0, 66, 95
2, 64282, Note_on_c, 0, 66, 0
2, 64284, Note_on_c, 0, 64, 95
2, 64288, Note_on_c, 0, 64, 0
2, 64290, Note_on_c, 0, 66, 95
2, 64294, Note_on_c, 0, 66, 0
2, 64296, Note_on_c, 0, 64, 95
2, 64300, Note_on_c, 0, 64, 0
2, 64302, Note_on_c, 0, 66, 95
2, 64306, Note_on_c, 0, 66, 0
2, 64308, Note_on_c, 0, 64, 95
2, 64312, Note_on_c, 0, 64, 0
2, 64314, Note_on_c, 0, 66, 95
2, 64318, Note_on_c, 0, 66, 0
2, 64320, Note_on_c, 0, 64, 95
2, 64331, Note_on_c, 0, 64, 0
2, 64336, Note_on_c, 0, 61, 95
2, 64347, Note_on_c, 0, 61, 0
2, 64352, Note_on_c, 0, 62, 95
2, 64363, Note_on_c, 0, 62, 0
2, 64368, Note_on_c, 0, 64, 95
2, 64379, Note_on_c, 0, 64, 0
2, 64384, Note_on_c, 0, 62, 95
2, 64395, Note_on_c, 0, 62, 0
2, 64400, Note_on_c, 0, 64, 95
2, 64411, Note_on_c, 0, 64, 0
2, 64416, Note_on_c, 0, 66, 95
2, 64427, Note_on_c, 0, 66, 0
2, 64432, Note_on_c, 0, 69, 95
2, 64443, Note_on_c, 0, 69, 0
2, 64448, Note_on_c, 0, 68, 95
2, 64459, Note_on_c, 0, 68, 0
2, 64464, Note_on_c, 0, 66, 95
2, 64475, Note_on_c, 0, 66, 0
2, 64480, Note_on_c, 0, 69, 95
2, 64491, Note_on_c, 0, 69, 0
2, 64496, Note_on_c, 0, 68, 95
2, 64507, Note_on_c, 0, 68, 0
2, 64512, Note_on_c, 0, 66, 95
2, 64523, Note_on_c, 0, 66, 0
2, 64528, Note_on_c, 0, 63, 95
2, 64539, Note_on_c, 0, 63, 0
2, 64544, Note_on_c, 0, 64, 95
2, 64555, Note_on_c, 0, 64, 0
2, 64560, Note_on_c, 0, 66, 95
2, 64571, Note_on_c, 0, 66, 0
2, 64576, Note_on_c, 0, 64, 95
2, 64587, Note_on_c, 0, 64, 0
2, 64592, Note_on_c, 0, 66, 95
2, 64603, Note_on_c, 0, 66, 0
2, 64608, Note_on_c, 0, 68, 95
2, 64619, Note_on_c, 0, 68, 0
2, 64656, Note_on_c, 0, 73, 95
2, 64656, Note_on_c, 0, 71, 95
2, 64656, Note_on_c, 0, 76, 95
2, 64680, Note_on_c, 0, 76, 0
2, 64680, Note_on_c, 0, 71, 0
2, 64680, Note_on_c, 0, 73, 0
2, 64704, Note_on_c, 0, 73, 95
2, 64704, Note_on_c, 0, 69, 95
2, 64704, Note_on_c, 0, 76, 95
2, 64728, Note_on_c, 0, 76, 0
2, 64728, Note_on_c, 0, 69, 0
2, 64728, Note_on_c, 0, 73, 0
2, 64752, Note_on_c, 0, 71, 95
2, 64752, Note_on_c, 0, 66, 95
2, 64752, Note_on_c, 0, 74, 95
2, 64776, Note_on_c, 0, 74, 0
2, 64776, Note_on_c, 0, 66, 0
2, 64776, Note_on_c, 0, 71, 0
2, 64800, Note_on_c, 0, 71, 95
2, 64800, Note_on_c, 0, 68, 95
2, 64800, Note_on_c, 0, 74, 95
2, 64824, Note_on_c, 0, 74, 0
2, 64824, Note_on_c, 0, 68, 0
2, 64824, Note_on_c, 0, 71, 0
2, 64848, Note_on_c, 0, 69, 95
2, 64848, Note_on_c, 0, 73, 95
2, 64884, Note_on_c, 0, 73, 0
2, 64884, Note_on_c, 0, 74, 95
2, 64896, Note_on_c, 0, 74, 0
2, 64896, Note_on_c, 0, 76, 95
2, 64932, Note_on_c, 0, 76, 0
2, 64932, Note_on_c, 0, 78, 95
2, 64944, Note_on_c, 0, 78, 0
2, 64944, Note_on_c, 0, 69, 0
2, 64944, Note_on_c, 0, 71, 95
2, 64980, Note_on_c, 0, 71, 0
2, 64980, Note_on_c, 0, 69, 95
2, 64992, Note_on_c, 0, 69, 0
2, 64992, Note_on_c, 0, 69, 95
2, 65016, Note_on_c, 0, 69, 0
2, 66084, Note_on_c, 0, 74, 95
2, 66094, Note_on_c, 0, 74, 0
2, 66096, Note_on_c, 0, 81, 95
2, 66126, Note_on_c, 0, 81, 0
2, 66132, Note_on_c, 0, 76, 95
2, 66142, Note_on_c, 0, 76, 0
2, 66144, Note_on_c, 0, 78, 95
2, 66157, Note_on_c, 0, 78, 0
2, 66160, Note_on_c, 0, 76, 95
2, 66173, Note_on_c, 0, 76, 0
2, 66176, Note_on_c, 0, 74, 95
2, 66189, Note_on_c, 0, 74, 0
2, 66192, Note_on_c, 0, 73, 95
2, 66205, Note_on_c, 0, 73, 0
2, 66208, Note_on_c, 0, 74, 95
2, 66221, Note_on_c, 0, 74, 0
2, 66224, Note_on_c, 0, 76, 95
2, 66237, Note_on_c, 0, 76, 0
2, 66240, Note_on_c, 0, 69, 77
2, 66247, Note_on_c, 0, 69, 0
2, 66248, Note_on_c, 0, 66, 55
2, 66255, Note_on_c, 0, 66, 0
2, 66256, Note_on_c, 0, 67, 62
2, 66263, Note_on_c, 0, 67, 0
2, 66264, Note_on_c, 0, 69, 85
2, 66271, Note_on_c, 0, 69, 0
2, 66272, Note_on_c, 0, 71, 85
2, 66279, Note_on_c, 0, 71, 0
2, 66280, Note_on_c, 0, 73, 56
2, 66287, Note_on_c, 0, 73, 0
2, 66288, Note_on_c, 0, 74, 81
2, 66295, Note_on_c, 0, 74, 0
2, 66296, Note_on_c, 0, 76, 79
2, 66303, Note_on_c, 0, 76, 0
2, 66304, Note_on_c, 0, 74, 78
2, 66311, Note_on_c, 0, 74, 0
2, 66312, Note_on_c, 0, 73, 62
2, 66319, Note_on_c, 0, 73, 0
2, 66320, Note_on_c, 0, 71, 74
2, 66327, Note_on_c, 0, 71, 0
2, 66328, Note_on_c, 0, 69, 85
2, 66335, Note_on_c, 0, 69, 0
2, 66336, Note_on_c, 0, 71, 61
2, 66343, Note_on_c, 0, 71, 0
2, 66344, Note_on_c, 0, 74, 72
2, 66351, Note_on_c, 0, 74, 0
2, 66352, Note_on_c, 0, 73, 49
2, 66359, Note_on_c, 0, 73, 0
2, 66360, Note_on_c, 0, 71, 85
2, 66367, Note_on_c, 0, 71, 0
2, 66368, Note_on_c, 0, 69, 85
2, 66375, Note_on_c, 0, 69, 0
2, 66376, Note_on_c, 0, 67, 44
2, 66383, Note_on_c, 0, 67, 0
2, 66384, Note_on_c, 0, 66, 60
2, 66391, Note_on_c, 0, 66, 0
2, 66392, Note_on_c, 0, 64, 59
2, 66399, Note_on_c, 0, 64, 0
2, 66400, Note_on_c, 0, 66, 46
2, 66407, Note_on_c, 0, 66, 0
2, 66408, Note_on_c, 0, 67, 67
2, 66415, Note_on_c, 0, 67, 0
2, 66416, Note_on_c, 0, 69, 33
2, 66423, Note_on_c, 0, 69, 0
2, 66424, Note_on_c, 0, 66, 60
2, 66431, Note_on_c, 0, 66, 0
2, 66432, Note_on_c, 0, 62, 66
2, 66439, Note_on_c, 0, 62, 0
2, 66440, Note_on_c, 0, 61, 53
2, 66447, Note_on_c, 0, 61, 0
2, 66448, Note_on_c, 0, 62, 85
2, 66455, Note_on_c, 0, 62, 0
2, 66456, Note_on_c, 0, 64, 69
2, 66463, Note_on_c, 0, 64, 0
2, 66464, Note_on_c, 0, 66, 49
2, 66471, Note_on_c, 0, 66, 0
2, 66472, Note_on_c, 0, 67, 60
2, 66479, Note_on_c, 0, 67, 0
2, 66480, Note_on_c, 0, 69, 85
2, 66487, Note_on_c, 0, 69, 0
2, 66488, Note_on_c, 0, 71, 85
2, 66495, Note_on_c, 0, 71, 0
2, 66496, Note_on_c, 0, 69, 85
2, 66503, Note_on_c, 0, 69, 0
2, 66504, Note_on_c, 0, 67, 85
2, 66511, Note_on_c, 0, 67, 0
2, 66512, Note_on_c, 0, 66, 52
2, 66519, Note_on_c, 0, 66, 0
2, 66520, Note_on_c, 0, 64, 79
2, 66527, Note_on_c, 0, 64, 0
2, 66528, Note_on_c, 0, 66, 46
2, 66535, Note_on_c, 0, 66, 0
2, 66536, Note_on_c, 0, 69, 85
2, 66543, Note_on_c, 0, 69, 0
2, 66544, Note_on_c, 0, 67, 72
2, 66551, Note_on_c, 0, 67, 0
2, 66552, Note_on_c, 0, 66, 49
2, 66559, Note_on_c, 0, 66, 0
2, 66560, Note_on_c, 0, 64, 85
2, 66567, Note_on_c, 0, 64, 0
2, 66568, Note_on_c, 0, 62, 68
2, 66575, Note_on_c, 0, 62, 0
2, 66576, Note_on_c, 0, 61, 53
2, 66583, Note_on_c, 0, 61, 0
2, 66584, Note_on_c, 0, 59, 85
2, 66591, Note_on_c, 0, 59, 0
2, 66592, Note_on_c, 0, 61, 59
2, 66599, Note_on_c, 0, 61, 0
2, 66600, Note_on_c, 0, 62, 53
2, 66607, Note_on_c, 0, 62, 0
2, 66608, Note_on_c, 0, 64, 64
2, 66615, Note_on_c, 0, 64, 0
2, 66616, Note_on_c, 0, 61, 50
2, 66623, Note_on_c, 0, 61, 0
2, 66624, Note_on_c, 0, 57, 50
2, 66631, Note_on_c, 0, 57, 0
2, 66632, Note_on_c, 0, 62, 53
2, 66639, Note_on_c, 0, 62, 0
2, 66640, Note_on_c, 0, 64, 56
2, 66647, Note_on_c, 0, 64, 0
2, 66648, Note_on_c, 0, 66, 55
2, 66655, Note_on_c, 0, 66, 0
2, 66656, Note_on_c, 0, 64, 69
2, 66663, Note_on_c, 0, 64, 0
2, 66664, Note_on_c, 0, 62, 59
2, 66671, Note_on_c, 0, 62, 0
2, 66672, Note_on_c, 0, 57, 50
2, 66679, Note_on_c, 0, 57, 0
2, 66680, Note_on_c, 0, 62, 57
2, 66687, Note_on_c, 0, 62, 0
2, 66688, Note_on_c, 0, 64, 76
2, 66695, Note_on_c, 0, 64, 0
2, 66696, Note_on_c, 0, 66, 50
2, 66703, Note_on_c, 0, 66, 0
2, 66704, Note_on_c, 0, 64, 74
2, 66711, Note_on_c, 0, 64, 0
2, 66712, Note_on_c, 0, 62, 85
2, 66719, Note_on_c, 0, 62, 0
2, 66720, Note_on_c, 0, 61, 49
2, 66727, Note_on_c, 0, 61, 0
2, 66728, Note_on_c, 0, 66, 42
2, 66735, Note_on_c, 0, 66, 0
2, 66736, Note_on_c, 0, 67, 65
2, 66743, Note_on_c, 0, 67, 0
2, 66744, Note_on_c, 0, 69, 62
2, 66751, Note_on_c, 0, 69, 0
2, 66752, Note_on_c, 0, 67, 59
2, 66759, Note_on_c, 0, 67, 0
2, 66760, Note_on_c, 0, 66, 53
2, 66767, Note_on_c, 0, 66, 0
2, 66768, Note_on_c, 0, 62, 67
2, 66775, Note_on_c, 0, 62, 0
2, 66776, Note_on_c, 0, 67, 85
2, 66783, Note_on_c, 0, 67, 0
2, 66784, Note_on_c, 0, 69, 67
2, 66791, Note_on_c, 0, 69, 0
2, 66792, Note_on_c, 0, 71, 65
2, 66799, Note_on_c, 0, 71, 0
2, 66800, Note_on_c, 0, 69, 85
2, 66807, Note_on_c, 0, 69, 0
2, 66808, Note_on_c, 0, 67, 79
2, 66815, Note_on_c, 0, 67, 0
2, 66816, Note_on_c, 0, 64, 44
2, 66823, Note_on_c, 0, 64, 0
2, 66824, Note_on_c, 0, 67, 69
2, 66831, Note_on_c, 0, 67, 0
2, 66832, Note_on_c, 0, 69, 79
2, 66839, Note_on_c, 0, 69, 0
2, 66840, Note_on_c, 0, 71, 74
2, 66847, Note_on_c, 0, 71, 0
2, 66848, Note_on_c, 0, 69, 72
2, 66855, Note_on_c, 0, 69, 0
2, 66856, Note_on_c, 0, 67, 74
2, 66863, Note_on_c, 0, 67, 0
2, 66864, Note_on_c, 0, 66, 54
2, 66871, Note_on_c, 0, 66, 0
2, 66872, Note_on_c, 0, 67, 81
2, 66879, Note_on_c, 0, 67, 0
2, 66880, Note_on_c, 0, 69, 44
2, 66887, Note_on_c, 0, 69, 0
2, 66888, Note_on_c, 0, 71, 77
2, 66895, Note_on_c, 0, 71, 0
2, 66896, Note_on_c, 0, 73, 68
2, 66903, Note_on_c, 0, 73, 0
2, 66904, Note_on_c, 0, 69, 85
2, 66911, Note_on_c, 0, 69, 0
2, 66912, Note_on_c, 0, 74, 56
2, 66925, Note_on_c, 0, 74, 0
2, 66928, Note_on_c, 0, 73, 50
2, 66941, Note_on_c, 0, 73, 0
2, 66944, Note_on_c, 0, 71, 85
2, 66957, Note_on_c, 0, 71, 0
2, 66960, Note_on_c, 0, 69, 81
2, 66973, Note_on_c, 0, 69, 0
2, 66976, Note_on_c, 0, 71, 81
2, 66989, Note_on_c, 0, 71, 0
2, 66992, Note_on_c, 0, 67, 50
2, 67005, Note_on_c, 0, 67, 0
2, 67008, Note_on_c, 0, 66, 68
2, 67028, Note_on_c, 0, 66, 0
2, 67056, Note_on_c, 0, 74, 68
2, 67076, Note_on_c, 0, 74, 0
2, 67104, Note_on_c, 0, 74, 68
2, 67124, Note_on_c, 0, 74, 0
2, 67152, Note_on_c, 0, 73, 68
2, 67172, Note_on_c, 0, 73, 0
2, 67200, Note_on_c, 0, 74, 79
2, 67205, Note_on_c, 0, 74, 0
2, 67206, Note_on_c, 0, 76, 79
2, 67211, Note_on_c, 0, 76, 0
2, 67212, Note_on_c, 0, 74, 79
2, 67217, Note_on_c, 0, 74, 0
2, 67218, Note_on_c, 0, 76, 79
2, 67223, Note_on_c, 0, 76, 0
2, 67224, Note_on_c, 0, 74, 79
2, 67229, Note_on_c, 0, 74, 0
2, 67230, Note_on_c, 0, 76, 79
2, 67235, Note_on_c, 0, 76, 0
2, 67236, Note_on_c, 0, 74, 79
2, 67241, Note_on_c, 0, 74, 0
2, 67242, Note_on_c, 0, 76, 79
2, 67247, Note_on_c, 0, 76, 0
2, 67248, Note_on_c, 0, 74, 79
2, 67253, Note_on_c, 0, 74, 0
2, 67254, Note_on_c, 0, 76, 79
2, 67259, Note_on_c, 0, 76, 0
2, 67260, Note_on_c, 0, 74, 79
2, 67265, Note_on_c, 0, 74, 0
2, 67266, Note_on_c, 0, 76, 79
2, 67271, Note_on_c, 0, 76, 0
2, 67272, Note_on_c, 0, 74, 79
2, 67277, Note_on_c, 0, 74, 0
2, 67278, Note_on_c, 0, 76, 79
2, 67283, Note_on_c, 0, 76, 0
2, 67284, Note_on_c, 0, 74, 79
2, 67289, Note_on_c, 0, 74, 0
2, 67290, Note_on_c, 0, 76, 79
2, 67295, Note_on_c, 0, 76, 0
2, 67296, Note_on_c, 0, 74, 79
2, 67309, Note_on_c, 0, 74, 0
2, 67312, Note_on_c, 0, 78, 79
2, 67325, Note_on_c, 0, 78, 0
2, 67328, Note_on_c, 0, 76, 79
2, 67341, Note_on_c, 0, 76, 0
2, 67344, Note_on_c, 0, 74, 79
2, 67357, Note_on_c, 0, 74, 0
2, 67360, Note_on_c, 0, 73, 79
2, 67373, Note_on_c, 0, 73, 0
2, 67376, Note_on_c, 0, 71, 79
2, 67389, Note_on_c, 0, 71, 0
2, 67392, Note_on_c, 0, 69, 85
2, 67397, Note_on_c, 0, 69, 0
2, 67398, Note_on_c, 0, 71, 85
2, 67403, Note_on_c, 0, 71, 0
2, 67404, Note_on_c, 0, 69, 85
2, 67409, Note_on_c, 0, 69, 0
2, 67410, Note_on_c, 0, 71, 85
2, 67415, Note_on_c, 0, 71, 0
2, 67416, Note_on_c, 0, 69, 85
2, 67421, Note_on_c, 0, 69, 0
2, 67422, Note_on_c, 0, 71, 85
2, 67427, Note_on_c, 0, 71, 0
2, 67428, Note_on_c, 0, 69, 85
2, 67433, Note_on_c, 0, 69, 0
2, 67434, Note_on_c, 0, 71, 85
2, 67439, Note_on_c, 0, 71, 0
2, 67440, Note_on_c, 0, 69, 85
2, 67445, Note_on_c, 0, 69, 0
2, 67446, Note_on_c, 0, 71, 85
2, 67451, Note_on_c, 0, 71, 0
2, 67452, Note_on_c, 0, 69, 85
2, 67457, Note_on_c, 0, 69, 0
2, 67458, Note_on_c, 0, 71, 85
2, 67463, Note_on_c, 0, 71, 0
2, 67464, Note_on_c, 0, 69, 85
2, 67469, Note_on_c, 0, 69, 0
2, 67470, Note_on_c, 0, 71, 85
2, 67475, Note_on_c, 0, 71, 0
2, 67476, Note_on_c, 0, 69, 85
2, 67481, Note_on_c, 0, 69, 0
2, 67482, Note_on_c, 0, 71, 85
2, 67487, Note_on_c, 0, 71, 0
2, 67488, Note_on_c, 0, 69, 79
2, 67499, Note_on_c, 0, 69, 0
2, 67504, Note_on_c, 0, 66, 79
2, 67515, Note_on_c, 0, 66, 0
2, 67520, Note_on_c, 0, 67, 79
2, 67531, Note_on_c, 0, 67, 0
2, 67536, Note_on_c, 0, 69, 79
2, 67547, Note_on_c, 0, 69, 0
2, 67552, Note_on_c, 0, 67, 79
2, 67563, Note_on_c, 0, 67, 0
2, 67568, Note_on_c, 0, 69, 79
2, 67579, Note_on_c, 0, 69, 0
2, 67584, Note_on_c, 0, 71, 72
2, 67600, Note_on_c, 0, 71, 0
2, 67600, Note_on_c, 0, 74, 71
2, 67616, Note_on_c, 0, 74, 0
2, 67616, Note_on_c, 0, 73, 64
2, 67632, Note_on_c, 0, 73, 0
2, 67632, Note_on_c, 0, 71, 81
2, 67648, Note_on_c, 0, 71, 0
2, 67648, Note_on_c, 0, 74, 85
2, 67664, Note_on_c, 0, 74, 0
2, 67664, Note_on_c, 0, 73, 59
2, 67680, Note_on_c, 0, 73, 0
2, 67680, Note_on_c, 0, 71, 78
2, 67696, Note_on_c, 0, 71, 0
2, 67696, Note_on_c, 0, 68, 55
2, 67712, Note_on_c, 0, 68, 0
2, 67712, Note_on_c, 0, 69, 85
2, 67728, Note_on_c, 0, 69, 0
2, 67728, Note_on_c, 0, 71, 85
2, 67744, Note_on_c, 0, 71, 0
2, 67744, Note_on_c, 0, 69, 85
2, 67760, Note_on_c, 0, 69, 0
2, 67760, Note_on_c, 0, 71, 82
2, 67776, Note_on_c, 0, 71, 0
2, 67776, Note_on_c, 0, 73, 76
2, 67792, Note_on_c, 0, 73, 0
2, 67824, Note_on_c, 0, 69, 76
2, 67832, Note_on_c, 0, 79, 76
2, 67840, Note_on_c, 0, 79, 0
2, 67840, Note_on_c, 0, 69, 0
2, 67840, Note_on_c, 0, 78, 76
2, 67848, Note_on_c, 0, 78, 0
2, 67848, Note_on_c, 0, 76, 76
2, 67856, Note_on_c, 0, 76, 0
2, 67856, Note_on_c, 0, 74, 76
2, 67864, Note_on_c, 0, 74, 0
2, 67864, Note_on_c, 0, 73, 76
2, 67872, Note_on_c, 0, 73, 0
2, 67872, Note_on_c, 0, 74, 76
2, 67888, Note_on_c, 0, 74, 0
2, 67912, Note_on_c, 0, 67, 85
2, 67928, Note_on_c, 0, 67, 0
2, 67928, Note_on_c, 0, 78, 76
2, 67936, Note_on_c, 0, 78, 0
2, 67936, Note_on_c, 0, 76, 76
2, 67944, Note_on_c, 0, 76, 0
2, 67944, Note_on_c, 0, 74, 76
2, 67952, Note_on_c, 0, 74, 0
2, 67952, Note_on_c, 0, 73, 76
2, 67960, Note_on_c, 0, 73, 0
2, 67960, Note_on_c, 0, 71, 76
2, 67968, Note_on_c, 0, 71, 0
2, 67968, Note_on_c, 0, 73, 76
2, 67984, Note_on_c, 0, 73, 0
2, 68024, Note_on_c, 0, 76, 85
2, 68032, Note_on_c, 0, 76, 0
2, 68032, Note_on_c, 0, 74, 85
2, 68040, Note_on_c, 0, 74, 0
2, 68040, Note_on_c, 0, 72, 85
2, 68048, Note_on_c, 0, 72, 0
2, 68048, Note_on_c, 0, 71, 85
2, 68056, Note_on_c, 0, 71, 0
2, 68056, Note_on_c, 0, 69, 85
2, 68064, Note_on_c, 0, 69, 0
2, 68064, Note_on_c, 0, 71, 72
2, 68072, Note_on_c, 0, 71, 0
2, 68072, Note_on_c, 0, 72, 82
2, 68080, Note_on_c, 0, 72, 0
2, 68080, Note_on_c, 0, 71, 74
2, 68088, Note_on_c, 0, 71, 0
2, 68088, Note_on_c, 0, 69, 85
2, 68096, Note_on_c, 0, 69, 0
2, 68096, Note_on_c, 0, 67, 85
2, 68104, Note_on_c, 0, 67, 0
2, 68104, Note_on_c, 0, 66, 59
2, 68112, Note_on_c, 0, 66, 0
2, 68112, Note_on_c, 0, 64, 59
2, 68120, Note_on_c, 0, 64, 0
2, 68120, Note_on_c, 0, 66, 59
2, 68128, Note_on_c, 0, 66, 0
2, 68128, Note_on_c, 0, 64, 71
2, 68136, Note_on_c, 0, 64, 0
2, 68136, Note_on_c, 0, 62, 42
2, 68144, Note_on_c, 0, 62, 0
2, 68144, Note_on_c, 0, 61, 54
2, 68152, Note_on_c, 0, 61, 0
2, 68152, Note_on_c, 0, 64, 61
2, 68152, Note_on_c, 0, 67, 79
2, 68152, Note_on_c, 0, 71, 81
2, 68160, Note_on_c, 0, 71, 0
2, 68160, Note_on_c, 0, 67, 0
2, 68160, Note_on_c, 0, 64, 0
2, 68160, Note_on_c, 0, 64, 103
2, 68160, Note_on_c, 0, 69, 107
2, 68160, Note_on_c, 0, 67, 106
2, 68160, Note_on_c, 0, 73, 94
2, 68184, Note_on_c, 0, 73, 0
2, 68184, Note_on_c, 0, 64, 0
2, 68184, Note_on_c, 0, 69, 0
2, 68184, Note_on_c, 0, 67, 0
2, 68208, Note_on_c, 0, 66, 89
2, 68208, Note_on_c, 0, 69, 103
2, 68208, Note_on_c, 0, 74, 103
2, 68232, Note_on_c, 0, 74, 0
2, 68232, Note_on_c, 0, 69, 0
2, 68232, Note_on_c, 0, 66, 0
2, 68256, Note_on_c, 0, 66, 81
2, 68256, Note_on_c, 0, 71, 103
2, 68256, Note_on_c, 0, 74, 103
2, 68292, Note_on_c, 0, 74, 0
2, 68292, Note_on_c, 0, 71, 0
2, 68292, Note_on_c, 0, 66, 0
2, 68292, Note_on_c, 0, 64, 103
2, 68292, Note_on_c, 0, 71, 103
2, 68292, Note_on_c, 0, 74, 103
2, 68304, Note_on_c, 0, 74, 0
2, 68304, Note_on_c, 0, 71, 0
2, 68304, Note_on_c, 0, 64, 0
2, 68304, Note_on_c, 0, 64, 103
2, 68304, Note_on_c, 0, 69, 108
2, 68304, Note_on_c, 0, 73, 96
2, 68340, Note_on_c, 0, 73, 0
2, 68340, Note_on_c, 0, 69, 0
2, 68340, Note_on_c, 0, 64, 0
2, 68340, Note_on_c, 0, 67, 106
2, 68340, Note_on_c, 0, 64, 103
2, 68340, Note_on_c, 0, 73, 89
2, 68352, Note_on_c, 0, 73, 0
2, 68352, Note_on_c, 0, 64, 0
2, 68352, Note_on_c, 0, 67, 0
2, 68352, Note_on_c, 0, 66, 92
2, 68352, Note_on_c, 0, 62, 103
2, 68352, Note_on_c, 0, 69, 106
2, 68352, Note_on_c, 0, 74, 103
2, 68376, Note_on_c, 0, 74, 0
2, 68376, Note_on_c, 0, 66, 0
2, 68376, Note_on_c, 0, 62, 0
2, 68376, Note_on_c, 0, 69, 0
2, 68676, Note_on_c, 0, 67, 103
2, 68684, Note_on_c, 0, 67, 0
2, 68688, Note_on_c, 0, 74, 96
2, 68712, Note_on_c, 0, 74, 0
2, 68724, Note_on_c, 0, 69, 103
2, 68732, Note_on_c, 0, 69, 0
2, 68736, Note_on_c, 0, 71, 33
2, 68741, Note_on_c, 0, 71, 0
2, 68742, Note_on_c, 0, 73, 55
2, 68747, Note_on_c, 0, 73, 0
2, 68748, Note_on_c, 0, 71, 54
2, 68753, Note_on_c, 0, 71, 0
2, 68754, Note_on_c, 0, 73, 54
2, 68759, Note_on_c, 0, 73, 0
2, 68760, Note_on_c, 0, 71, 65
2, 68765, Note_on_c, 0, 71, 0
2, 68766, Note_on_c, 0, 73, 56
2, 68771, Note_on_c, 0, 73, 0
2, 68772, Note_on_c, 0, 71, 43
2, 68777, Note_on_c, 0, 71, 0
2, 68778, Note_on_c, 0, 73, 54
2, 68783, Note_on_c, 0, 73, 0
2, 68784, Note_on_c, 0, 71, 68
2, 68789, Note_on_c, 0, 71, 0
2, 68790, Note_on_c, 0, 73, 65
2, 68795, Note_on_c, 0, 73, 0
2, 68796, Note_on_c, 0, 71, 85
2, 68801, Note_on_c, 0, 71, 0
2, 68802, Note_on_c, 0, 73, 76
2, 68807, Note_on_c, 0, 73, 0
2, 68808, Note_on_c, 0, 71, 85
2, 68813, Note_on_c, 0, 71, 0
2, 68814, Note_on_c, 0, 73, 62
2, 68819, Note_on_c, 0, 73, 0
2, 68820, Note_on_c, 0, 71, 81
2, 68825, Note_on_c, 0, 71, 0
2, 68826, Note_on_c, 0, 73, 55
2, 68831, Note_on_c, 0, 73, 0
2, 68832, Note_on_c, 0, 71, 98
2, 68840, Note_on_c, 0, 71, 0
2, 68848, Note_on_c, 0, 74, 98
2, 68856, Note_on_c, 0, 74, 0
2, 68864, Note_on_c, 0, 73, 73
2, 68872, Note_on_c, 0, 73, 0
2, 68880, Note_on_c, 0, 71, 96
2, 68888, Note_on_c, 0, 71, 0
2, 68896, Note_on_c, 0, 74, 103
2, 68904, Note_on_c, 0, 74, 0
2, 68912, Note_on_c, 0, 73, 84
2, 68920, Note_on_c, 0, 73, 0
2, 68928, Note_on_c, 0, 71, 46
2, 68933, Note_on_c, 0, 71, 0
2, 68934, Note_on_c, 0, 73, 67
2, 68939, Note_on_c, 0, 73, 0
2, 68940, Note_on_c, 0, 71, 85
2, 68945, Note_on_c, 0, 71, 0
2, 68946, Note_on_c, 0, 73, 71
2, 68951, Note_on_c, 0, 73, 0
2, 68952, Note_on_c, 0, 71, 85
2, 68957, Note_on_c, 0, 71, 0
2, 68958, Note_on_c, 0, 73, 68
2, 68963, Note_on_c, 0, 73, 0
2, 68964, Note_on_c, 0, 71, 85
2, 68969, Note_on_c, 0, 71, 0
2, 68970, Note_on_c, 0, 73, 72
2, 68975, Note_on_c, 0, 73, 0
2, 68976, Note_on_c, 0, 71, 85
2, 68981, Note_on_c, 0, 71, 0
2, 68982, Note_on_c, 0, 73, 76
2, 68987, Note_on_c, 0, 73, 0
2, 68988, Note_on_c, 0, 71, 85
2, 68993, Note_on_c, 0, 71, 0
2, 68994, Note_on_c, 0, 73, 76
2, 68999, Note_on_c, 0, 73, 0
2, 69000, Note_on_c, 0, 71, 85
2, 69005, Note_on_c, 0, 71, 0
2, 69006, Note_on_c, 0, 73, 68
2, 69011, Note_on_c, 0, 73, 0
2, 69012, Note_on_c, 0, 71, 76
2, 69017, Note_on_c, 0, 71, 0
2, 69018, Note_on_c, 0, 73, 74
2, 69023, Note_on_c, 0, 73, 0
2, 69024, Note_on_c, 0, 71, 98
2, 69032, Note_on_c, 0, 71, 0
2, 69040, Note_on_c, 0, 74, 89
2, 69048, Note_on_c, 0, 74, 0
2, 69056, Note_on_c, 0, 73, 84
2, 69064, Note_on_c, 0, 73, 0
2, 69072, Note_on_c, 0, 71, 103
2, 69080, Note_on_c, 0, 71, 0
2, 69088, Note_on_c, 0, 69, 103
2, 69096, Note_on_c, 0, 69, 0
2, 69104, Note_on_c, 0, 68, 85
2, 69112, Note_on_c, 0, 68, 0
2, 69120, Note_on_c, 0, 69, 103
2, 69128, Note_on_c, 0, 69, 0
2, 69136, Note_on_c, 0, 76, 92
2, 69144, Note_on_c, 0, 76, 0
2, 69152, Note_on_c, 0, 74, 103
2, 69160, Note_on_c, 0, 74, 0
2, 69168, Note_on_c, 0, 73, 82
2, 69176, Note_on_c, 0, 73, 0
2, 69184, Note_on_c, 0, 71, 100
2, 69192, Note_on_c, 0, 71, 0
2, 69200, Note_on_c, 0, 69, 103
2, 69208, Note_on_c, 0, 69, 0
2, 69216, Note_on_c, 0, 74, 103
2, 69224, Note_on_c, 0, 74, 0
2, 69232, Note_on_c, 0, 78, 88
2, 69240, Note_on_c, 0, 78, 0
2, 69248, Note_on_c, 0, 76, 98
2, 69256, Note_on_c, 0, 76, 0
2, 69264, Note_on_c, 0, 74, 103
2, 69272, Note_on_c, 0, 74, 0
2, 69280, Note_on_c, 0, 73, 84
2, 69288, Note_on_c, 0, 73, 0
2, 69296, Note_on_c, 0, 71, 84
2, 69304, Note_on_c, 0, 71, 0
2, 69312, Note_on_c, 0, 76, 103
2, 69320, Note_on_c, 0, 76, 0
2, 69328, Note_on_c, 0, 79, 103
2, 69336, Note_on_c, 0, 79, 0
2, 69344, Note_on_c, 0, 78, 91
2, 69352, Note_on_c, 0, 78, 0
2, 69360, Note_on_c, 0, 76, 103
2, 69368, Note_on_c, 0, 76, 0
2, 69376, Note_on_c, 0, 74, 103
2, 69384, Note_on_c, 0, 74, 0
2, 69392, Note_on_c, 0, 73, 84
2, 69400, Note_on_c, 0, 73, 0
2, 69408, Note_on_c, 0, 78, 103
2, 69416, Note_on_c, 0, 78, 0
2, 69792, Note_on_c, 0, 66, 67
2, 69800, Note_on_c, 0, 66, 0
2, 69808, Note_on_c, 0, 71, 78
2, 69816, Note_on_c, 0, 71, 0
2, 69824, Note_on_c, 0, 74, 92
2, 69832, Note_on_c, 0, 74, 0
2, 69840, Note_on_c, 0, 74, 91
2, 69848, Note_on_c, 0, 74, 0
2, 69856, Note_on_c, 0, 73, 78
2, 69864, Note_on_c, 0, 73, 0
2, 69872, Note_on_c, 0, 74, 103
2, 69880, Note_on_c, 0, 74, 0
2, 69888, Note_on_c, 0, 66, 82
2, 69896, Note_on_c, 0, 66, 0
2, 69904, Note_on_c, 0, 71, 103
2, 69912, Note_on_c, 0, 71, 0
2, 69920, Note_on_c, 0, 74, 103
2, 69928, Note_on_c, 0, 74, 0
2, 69936, Note_on_c, 0, 74, 88
2, 69944, Note_on_c, 0, 74, 0
2, 69952, Note_on_c, 0, 73, 89
2, 69960, Note_on_c, 0, 73, 0
2, 69968, Note_on_c, 0, 74, 100
2, 69976, Note_on_c, 0, 74, 0
2, 69984, Note_on_c, 0, 67, 103
2, 69992, Note_on_c, 0, 67, 0
2, 70000, Note_on_c, 0, 70, 84
2, 70008, Note_on_c, 0, 70, 0
2, 70016, Note_on_c, 0, 71, 81
2, 70024, Note_on_c, 0, 71, 0
2, 70032, Note_on_c, 0, 73, 84
2, 70040, Note_on_c, 0, 73, 0
2, 70048, Note_on_c, 0, 70, 82
2, 70056, Note_on_c, 0, 70, 0
2, 70064, Note_on_c, 0, 71, 84
2, 70072, Note_on_c, 0, 71, 0
2, 70080, Note_on_c, 0, 64, 103
2, 70088, Note_on_c, 0, 64, 0
2, 70096, Note_on_c, 0, 70, 84
2, 70104, Note_on_c, 0, 70, 0
2, 70112, Note_on_c, 0, 73, 77
2, 70120, Note_on_c, 0, 73, 0
2, 70128, Note_on_c, 0, 73, 81
2, 70136, Note_on_c, 0, 73, 0
2, 70144, Note_on_c, 0, 71, 103
2, 70152, Note_on_c, 0, 71, 0
2, 70160, Note_on_c, 0, 73, 69
2, 70168, Note_on_c, 0, 73, 0
2, 70176, Note_on_c, 0, 66, 80
2, 70184, Note_on_c, 0, 66, 0
2, 70192, Note_on_c, 0, 71, 103
2, 70200, Note_on_c, 0, 71, 0
2, 70208, Note_on_c, 0, 74, 103
2, 70216, Note_on_c, 0, 74, 0
2, 70224, Note_on_c, 0, 74, 100
2, 70232, Note_on_c, 0, 74, 0
2, 70240, Note_on_c, 0, 73, 85
2, 70248, Note_on_c, 0, 73, 0
2, 70256, Note_on_c, 0, 74, 100
2, 70264, Note_on_c, 0, 74, 0
2, 70272, Note_on_c, 0, 64, 88
2, 70280, Note_on_c, 0, 64, 0
2, 70288, Note_on_c, 0, 67, 96
2, 70296, Note_on_c, 0, 67, 0
2, 70304, Note_on_c, 0, 73, 68
2, 70312, Note_on_c, 0, 73, 0
2, 70320, Note_on_c, 0, 73, 71
2, 70328, Note_on_c, 0, 73, 0
2, 70336, Note_on_c, 0, 70, 84
2, 70344, Note_on_c, 0, 70, 0
2, 70352, Note_on_c, 0, 71, 103
2, 70360, Note_on_c, 0, 71, 0
2, 70368, Note_on_c, 0, 73, 73
2, 70376, Note_on_c, 0, 73, 0
2, 70384, Note_on_c, 0, 70, 77
2, 70392, Note_on_c, 0, 70, 0
2, 70400, Note_on_c, 0, 71, 103
2, 70408, Note_on_c, 0, 71, 0
2, 70416, Note_on_c, 0, 66, 71
2, 70424, Note_on_c, 0, 66, 0
2, 70432, Note_on_c, 0, 71, 74
2, 70440, Note_on_c, 0, 71, 0
2, 70448, Note_on_c, 0, 70, 84
2, 70456, Note_on_c, 0, 70, 0
2, 70464, Note_on_c, 0, 71, 103
2, 70476, Note_on_c, 0, 71, 0
2, 70752, Note_on_c, 0, 71, 63
2, 70760, Note_on_c, 0, 71, 0
2, 70768, Note_on_c, 0, 78, 63
2, 70776, Note_on_c, 0, 78, 0
2, 70784, Note_on_c, 0, 83, 63
2, 70792, Note_on_c, 0, 83, 0
2, 70800, Note_on_c, 0, 83, 63
2, 70808, Note_on_c, 0, 83, 0
2, 70816, Note_on_c, 0, 82, 63
2, 70824, Note_on_c, 0, 82, 0
2, 70832, Note_on_c, 0, 83, 63
2, 70840, Note_on_c, 0, 83, 0
2, 70848, Note_on_c, 0, 74, 85
2, 70856, Note_on_c, 0, 74, 0
2, 70864, Note_on_c, 0, 78, 52
2, 70872, Note_on_c, 0, 78, 0
2, 70880, Note_on_c, 0, 83, 62
2, 70888, Note_on_c, 0, 83, 0
2, 70896, Note_on_c, 0, 83, 62
2, 70904, Note_on_c, 0, 83, 0
2, 70912, Note_on_c, 0, 82, 66
2, 70920, Note_on_c, 0, 82, 0
2, 70928, Note_on_c, 0, 83, 85
2, 70936, Note_on_c, 0, 83, 0
2, 70944, Note_on_c, 0, 76, 85
2, 70952, Note_on_c, 0, 76, 0
2, 70960, Note_on_c, 0, 78, 59
2, 70968, Note_on_c, 0, 78, 0
2, 70976, Note_on_c, 0, 79, 85
2, 70984, Note_on_c, 0, 79, 0
2, 70992, Note_on_c, 0, 76, 79
2, 71000, Note_on_c, 0, 76, 0
2, 71008, Note_on_c, 0, 78, 40
2, 71016, Note_on_c, 0, 78, 0
2, 71024, Note_on_c, 0, 74, 62
2, 71032, Note_on_c, 0, 74, 0
2, 71040, Note_on_c, 0, 73, 59
2, 71048, Note_on_c, 0, 73, 0
2, 71056, Note_on_c, 0, 76, 61
2, 71064, Note_on_c, 0, 76, 0
2, 71072, Note_on_c, 0, 82, 65
2, 71080, Note_on_c, 0, 82, 0
2, 71088, Note_on_c, 0, 82, 62
2, 71096, Note_on_c, 0, 82, 0
2, 71104, Note_on_c, 0, 80, 65
2, 71112, Note_on_c, 0, 80, 0
2, 71120, Note_on_c, 0, 82, 66
2, 71128, Note_on_c, 0, 82, 0
2, 71136, Note_on_c, 0, 74, 85
2, 71144, Note_on_c, 0, 74, 0
2, 71152, Note_on_c, 0, 78, 55
2, 71160, Note_on_c, 0, 78, 0
2, 71168, Note_on_c, 0, 83, 85
2, 71176, Note_on_c, 0, 83, 0
2, 71184, Note_on_c, 0, 83, 85
2, 71192, Note_on_c, 0, 83, 0
2, 71200, Note_on_c, 0, 82, 70
2, 71208, Note_on_c, 0, 82, 0
2, 71216, Note_on_c, 0, 83, 85
2, 71224, Note_on_c, 0, 83, 0
2, 71232, Note_on_c, 0, 79, 85
2, 71240, Note_on_c, 0, 79, 0
2, 71248, Note_on_c, 0, 76, 85
2, 71256, Note_on_c, 0, 76, 0
2, 71264, Note_on_c, 0, 73, 65
2, 71272, Note_on_c, 0, 73, 0
2, 71280, Note_on_c, 0, 70, 61
2, 71288, Note_on_c, 0, 70, 0
2, 71296, Note_on_c, 0, 73, 70
2, 71304, Note_on_c, 0, 73, 0
2, 71312, Note_on_c, 0, 71, 85
2, 71320, Note_on_c, 0, 71, 0
2, 71328, Note_on_c, 0, 70, 67
2, 71336, Note_on_c, 0, 70, 0
2, 71344, Note_on_c, 0, 73, 62
2, 71352, Note_on_c, 0, 73, 0
2, 71360, Note_on_c, 0, 71, 85
2, 71368, Note_on_c, 0, 71, 0
2, 71376, Note_on_c, 0, 70, 61
2, 71384, Note_on_c, 0, 70, 0
2, 71392, Note_on_c, 0, 71, 85
2, 71400, Note_on_c, 0, 71, 0
2, 71408, Note_on_c, 0, 73, 70
2, 71416, Note_on_c, 0, 73, 0
2, 71424, Note_on_c, 0, 74, 85
2, 71436, Note_on_c, 0, 74, 0
2, 71748, Note_on_c, 0, 73, 52
2, 71758, Note_on_c, 0, 73, 0
2, 71760, Note_on_c, 0, 78, 68
2, 71790, Note_on_c, 0, 78, 0
2, 71796, Note_on_c, 0, 73, 60
2, 71806, Note_on_c, 0, 73, 0
2, 71808, Note_on_c, 0, 74, 85
2, 71928, Note_on_c, 0, 74, 0
2, 71940, Note_on_c, 0, 74, 33
2, 71952, Note_on_c, 0, 74, 0
2, 71952, Note_on_c, 0, 76, 85
2, 71965, Note_on_c, 0, 76, 0
2, 71968, Note_on_c, 0, 73, 66
2, 71981, Note_on_c, 0, 73, 0
2, 71984, Note_on_c, 0, 74, 85
2, 71997, Note_on_c, 0, 74, 0
2, 72000, Note_on_c, 0, 73, 67
2, 72120, Note_on_c, 0, 73, 0
2, 72132, Note_on_c, 0, 73, 79
2, 72142, Note_on_c, 0, 73, 0
2, 72144, Note_on_c, 0, 78, 68
2, 72174, Note_on_c, 0, 78, 0
2, 72180, Note_on_c, 0, 74, 85
2, 72190, Note_on_c, 0, 74, 0
2, 72192, Note_on_c, 0, 71, 62
2, 72195, Note_on_c, 0, 71, 0
2, 72196, Note_on_c, 0, 73, 64
2, 72199, Note_on_c, 0, 73, 0
2, 72200, Note_on_c, 0, 71, 81
2, 72203, Note_on_c, 0, 71, 0
2, 72204, Note_on_c, 0, 73, 64
2, 72207, Note_on_c, 0, 73, 0
2, 72208, Note_on_c, 0, 71, 85
2, 72211, Note_on_c, 0, 71, 0
2, 72212, Note_on_c, 0, 73, 65
2, 72215, Note_on_c, 0, 73, 0
2, 72216, Note_on_c, 0, 71, 85
2, 72219, Note_on_c, 0, 71, 0
2, 72220, Note_on_c, 0, 73, 64
2, 72223, Note_on_c, 0, 73, 0
2, 72224, Note_on_c, 0, 71, 69
2, 72227, Note_on_c, 0, 71, 0
2, 72228, Note_on_c, 0, 73, 43
2, 72231, Note_on_c, 0, 73, 0
2, 72232, Note_on_c, 0, 71, 85
2, 72235, Note_on_c, 0, 71, 0
2, 72236, Note_on_c, 0, 73, 55
2, 72239, Note_on_c, 0, 73, 0
2, 72240, Note_on_c, 0, 71, 85
2, 72243, Note_on_c, 0, 71, 0
2, 72244, Note_on_c, 0, 73, 67
2, 72247, Note_on_c, 0, 73, 0
2, 72248, Note_on_c, 0, 71, 85
2, 72251, Note_on_c, 0, 71, 0
2, 72252, Note_on_c, 0, 73, 72
2, 72255, Note_on_c, 0, 73, 0
2, 72256, Note_on_c, 0, 71, 85
2, 72259, Note_on_c, 0, 71, 0
2, 72260, Note_on_c, 0, 73, 82
2, 72263, Note_on_c, 0, 73, 0
2, 72264, Note_on_c, 0, 71, 85
2, 72267, Note_on_c, 0, 71, 0
2, 72268, Note_on_c, 0, 73, 81
2, 72271, Note_on_c, 0, 73, 0
2, 72272, Note_on_c, 0, 71, 85
2, 72275, Note_on_c, 0, 71, 0
2, 72276, Note_on_c, 0, 73, 81
2, 72279, Note_on_c, 0, 73, 0
2, 72280, Note_on_c, 0, 71, 85
2, 72283, Note_on_c, 0, 71, 0
2, 72284, Note_on_c, 0, 73, 86
2, 72287, Note_on_c, 0, 73, 0
2, 72288, Note_on_c, 0, 71, 95
2, 72301, Note_on_c, 0, 71, 0
2, 72304, Note_on_c, 0, 73, 95
2, 72317, Note_on_c, 0, 73, 0
2, 72320, Note_on_c, 0, 74, 95
2, 72333, Note_on_c, 0, 74, 0
2, 72336, Note_on_c, 0, 73, 95
2, 72349, Note_on_c, 0, 73, 0
2, 72352, Note_on_c, 0, 74, 95
2, 72365, Note_on_c, 0, 74, 0
2, 72368, Note_on_c, 0, 71, 95
2, 72381, Note_on_c, 0, 71, 0
2, 72384, Note_on_c, 0, 69, 95
2, 72397, Note_on_c, 0, 69, 0
2, 72400, Note_on_c, 0, 66, 95
2, 72413, Note_on_c, 0, 66, 0
2, 72416, Note_on_c, 0, 68, 95
2, 72429, Note_on_c, 0, 68, 0
2, 72432, Note_on_c, 0, 69, 95
2, 72445, Note_on_c, 0, 69, 0
2, 72448, Note_on_c, 0, 73, 95
2, 72461, Note_on_c, 0, 73, 0
2, 72464, Note_on_c, 0, 71, 95
2, 72477, Note_on_c, 0, 71, 0
2, 72480, Note_on_c, 0, 73, 95
2, 72500, Note_on_c, 0, 73, 0
2, 72592, Note_on_c, 0, 64, 95
2, 72605, Note_on_c, 0, 64, 0
2, 72608, Note_on_c, 0, 66, 95
2, 72621, Note_on_c, 0, 66, 0
2, 72624, Note_on_c, 0, 68, 95
2, 72637, Note_on_c, 0, 68, 0
2, 72640, Note_on_c, 0, 71, 95
2, 72653, Note_on_c, 0, 71, 0
2, 72656, Note_on_c, 0, 69, 95
2, 72669, Note_on_c, 0, 69, 0
2, 72672, Note_on_c, 0, 71, 95
2, 72692, Note_on_c, 0, 71, 0
2, 72784, Note_on_c, 0, 62, 85
2, 72797, Note_on_c, 0, 62, 0
2, 72800, Note_on_c, 0, 64, 85
2, 72813, Note_on_c, 0, 64, 0
2, 72816, Note_on_c, 0, 66, 60
2, 72829, Note_on_c, 0, 66, 0
2, 72832, Note_on_c, 0, 69, 85
2, 72845, Note_on_c, 0, 69, 0
2, 72848, Note_on_c, 0, 68, 65
2, 72861, Note_on_c, 0, 68, 0
2, 72864, Note_on_c, 0, 69, 85
2, 72877, Note_on_c, 0, 69, 0
2, 72880, Note_on_c, 0, 61, 64
2, 72893, Note_on_c, 0, 61, 0
2, 72896, Note_on_c, 0, 63, 67
2, 72909, Note_on_c, 0, 63, 0
2, 72912, Note_on_c, 0, 65, 85
2, 72925, Note_on_c, 0, 65, 0
2, 72928, Note_on_c, 0, 68, 64
2, 72941, Note_on_c, 0, 68, 0
2, 72944, Note_on_c, 0, 66, 66
2, 72957, Note_on_c, 0, 66, 0
2, 72960, Note_on_c, 0, 68, 68
2, 72973, Note_on_c, 0, 68, 0
2, 72976, Note_on_c, 0, 71, 85
2, 72989, Note_on_c, 0, 71, 0
2, 72992, Note_on_c, 0, 69, 85
2, 73005, Note_on_c, 0, 69, 0
2, 73008, Note_on_c, 0, 68, 62
2, 73021, Note_on_c, 0, 68, 0
2, 73024, Note_on_c, 0, 71, 85
2, 73037, Note_on_c, 0, 71, 0
2, 73040, Note_on_c, 0, 69, 85
2, 73053, Note_on_c, 0, 69, 0
2, 73056, Note_on_c, 0, 68, 39
2, 73059, Note_on_c, 0, 68, 0
2, 73060, Note_on_c, 0, 69, 52
2, 73063, Note_on_c, 0, 69, 0
2, 73064, Note_on_c, 0, 68, 60
2, 73067, Note_on_c, 0, 68, 0
2, 73068, Note_on_c, 0, 69, 85
2, 73071, Note_on_c, 0, 69, 0
2, 73072, Note_on_c, 0, 68, 65
2, 73075, Note_on_c, 0, 68, 0
2, 73076, Note_on_c, 0, 69, 85
2, 73079, Note_on_c, 0, 69, 0
2, 73080, Note_on_c, 0, 68, 68
2, 73083, Note_on_c, 0, 68, 0
2, 73084, Note_on_c, 0, 69, 81
2, 73087, Note_on_c, 0, 69, 0
2, 73088, Note_on_c, 0, 68, 62
2, 73091, Note_on_c, 0, 68, 0
2, 73092, Note_on_c, 0, 69, 85
2, 73095, Note_on_c, 0, 69, 0
2, 73096, Note_on_c, 0, 68, 66
2, 73099, Note_on_c, 0, 68, 0
2, 73100, Note_on_c, 0, 69, 85
2, 73103, Note_on_c, 0, 69, 0
2, 73104, Note_on_c, 0, 68, 66
2, 73107, Note_on_c, 0, 68, 0
2, 73108, Note_on_c, 0, 69, 85
2, 73111, Note_on_c, 0, 69, 0
2, 73112, Note_on_c, 0, 68, 70
2, 73115, Note_on_c, 0, 68, 0
2, 73116, Note_on_c, 0, 69, 85
2, 73119, Note_on_c, 0, 69, 0
2, 73120, Note_on_c, 0, 68, 66
2, 73123, Note_on_c, 0, 68, 0
2, 73124, Note_on_c, 0, 69, 82
2, 73127, Note_on_c, 0, 69, 0
2, 73128, Note_on_c, 0, 68, 74
2, 73131, Note_on_c, 0, 68, 0
2, 73132, Note_on_c, 0, 69, 85
2, 73135, Note_on_c, 0, 69, 0
2, 73136, Note_on_c, 0, 68, 68
2, 73139, Note_on_c, 0, 68, 0
2, 73140, Note_on_c, 0, 69, 85
2, 73143, Note_on_c, 0, 69, 0
2, 73144, Note_on_c, 0, 68, 74
2, 73147, Note_on_c, 0, 68, 0
2, 73148, Note_on_c, 0, 69, 85
2, 73151, Note_on_c, 0, 69, 0
2, 73152, Note_on_c, 0, 68, 49
2, 73165, Note_on_c, 0, 68, 0
2, 73168, Note_on_c, 0, 65, 85
2, 73181, Note_on_c, 0, 65, 0
2, 73184, Note_on_c, 0, 66, 59
2, 73197, Note_on_c, 0, 66, 0
2, 73200, Note_on_c, 0, 68, 66
2, 73213, Note_on_c, 0, 68, 0
2, 73216, Note_on_c, 0, 66, 66
2, 73229, Note_on_c, 0, 66, 0
2, 73232, Note_on_c, 0, 68, 71
2, 73245, Note_on_c, 0, 68, 0
2, 73248, Note_on_c, 0, 69, 85
2, 73261, Note_on_c, 0, 69, 0
2, 73264, Note_on_c, 0, 66, 61
2, 73277, Note_on_c, 0, 66, 0
2, 73280, Note_on_c, 0, 68, 67
2, 73293, Note_on_c, 0, 68, 0
2, 73296, Note_on_c, 0, 69, 85
2, 73309, Note_on_c, 0, 69, 0
2, 73312, Note_on_c, 0, 68, 66
2, 73325, Note_on_c, 0, 68, 0
2, 73328, Note_on_c, 0, 69, 85
2, 73341, Note_on_c, 0, 69, 0
2, 73344, Note_on_c, 0, 71, 85
2, 73357, Note_on_c, 0, 71, 0
2, 73360, Note_on_c, 0, 68, 55
2, 73373, Note_on_c, 0, 68, 0
2, 73376, Note_on_c, 0, 69, 85
2, 73389, Note_on_c, 0, 69, 0
2, 73392, Note_on_c, 0, 71, 85
2, 73405, Note_on_c, 0, 71, 0
2, 73408, Note_on_c, 0, 69, 85
2, 73421, Note_on_c, 0, 69, 0
2, 73424, Note_on_c, 0, 71, 85
2, 73437, Note_on_c, 0, 71, 0
2, 73440, Note_on_c, 0, 73, 59
2, 73453, Note_on_c, 0, 73, 0
2, 73456, Note_on_c, 0, 69, 85
2, 73469, Note_on_c, 0, 69, 0
2, 73472, Note_on_c, 0, 71, 85
2, 73485, Note_on_c, 0, 71, 0
2, 73488, Note_on_c, 0, 73, 67
2, 73501, Note_on_c, 0, 73, 0
2, 73504, Note_on_c, 0, 71, 85
2, 73517, Note_on_c, 0, 71, 0
2, 73520, Note_on_c, 0, 73, 72
2, 73533, Note_on_c, 0, 73, 0
2, 73536, Note_on_c, 0, 74, 85
2, 73549, Note_on_c, 0, 74, 0
2, 73552, Note_on_c, 0, 71, 85
2, 73565, Note_on_c, 0, 71, 0
2, 73568, Note_on_c, 0, 73, 70
2, 73581, Note_on_c, 0, 73, 0
2, 73584, Note_on_c, 0, 74, 85
2, 73597, Note_on_c, 0, 74, 0
2, 73600, Note_on_c, 0, 73, 69
2, 73613, Note_on_c, 0, 73, 0
2, 73616, Note_on_c, 0, 74, 85
2, 73629, Note_on_c, 0, 74, 0
2, 73632, Note_on_c, 0, 68, 68
2, 73645, Note_on_c, 0, 68, 0
2, 73648, Note_on_c, 0, 71, 85
2, 73661, Note_on_c, 0, 71, 0
2, 73664, Note_on_c, 0, 69, 85
2, 73677, Note_on_c, 0, 69, 0
2, 73680, Note_on_c, 0, 68, 61
2, 73693, Note_on_c, 0, 68, 0
2, 73696, Note_on_c, 0, 66, 54
2, 73709, Note_on_c, 0, 66, 0
2, 73712, Note_on_c, 0, 68, 68
2, 73725, Note_on_c, 0, 68, 0
2, 73728, Note_on_c, 0, 69, 85
2, 73741, Note_on_c, 0, 69, 0
2, 73744, Note_on_c, 0, 57, 85
2, 73757, Note_on_c, 0, 57, 0
2, 73760, Note_on_c, 0, 59, 85
2, 73773, Note_on_c, 0, 59, 0
2, 73776, Note_on_c, 0, 61, 60
2, 73789, Note_on_c, 0, 61, 0
2, 73792, Note_on_c, 0, 59, 85
2, 73805, Note_on_c, 0, 59, 0
2, 73808, Note_on_c, 0, 61, 68
2, 73821, Note_on_c, 0, 61, 0
2, 73824, Note_on_c, 0, 62, 85
2, 73837, Note_on_c, 0, 62, 0
2, 73840, Note_on_c, 0, 59, 85
2, 73853, Note_on_c, 0, 59, 0
2, 73856, Note_on_c, 0, 61, 64
2, 73869, Note_on_c, 0, 61, 0
2, 73872, Note_on_c, 0, 62, 85
2, 73885, Note_on_c, 0, 62, 0
2, 73888, Note_on_c, 0, 61, 68
2, 73901, Note_on_c, 0, 61, 0
2, 73904, Note_on_c, 0, 62, 85
2, 73917, Note_on_c, 0, 62, 0
2, 73920, Note_on_c, 0, 56, 64
2, 73933, Note_on_c, 0, 56, 0
2, 73936, Note_on_c, 0, 57, 85
2, 73949, Note_on_c, 0, 57, 0
2, 73952, Note_on_c, 0, 59, 85
2, 73965, Note_on_c, 0, 59, 0
2, 73968, Note_on_c, 0, 61, 85
2, 74026, Note_on_c, 0, 61, 0
2, 74032, Note_on_c, 0, 62, 85
2, 74045, Note_on_c, 0, 62, 0
2, 74048, Note_on_c, 0, 64, 85
2, 74061, Note_on_c, 0, 64, 0
2, 74064, Note_on_c, 0, 66, 85
2, 74122, Note_on_c, 0, 66, 0
2, 74148, Note_on_c, 0, 66, 85
2, 74158, Note_on_c, 0, 66, 0
2, 74160, Note_on_c, 0, 65, 85
2, 74173, Note_on_c, 0, 65, 0
2, 74176, Note_on_c, 0, 66, 61
2, 74189, Note_on_c, 0, 66, 0
2, 74192, Note_on_c, 0, 68, 74
2, 74205, Note_on_c, 0, 68, 0
2, 74208, Note_on_c, 0, 61, 107
2, 74238, Note_on_c, 0, 61, 0
2, 74244, Note_on_c, 0, 73, 85
2, 74254, Note_on_c, 0, 73, 0
2, 74256, Note_on_c, 0, 71, 85
2, 74269, Note_on_c, 0, 71, 0
2, 74272, Note_on_c, 0, 73, 64
2, 74285, Note_on_c, 0, 73, 0
2, 74288, Note_on_c, 0, 74, 85
2, 74301, Note_on_c, 0, 74, 0
2, 74304, Note_on_c, 0, 65, 85
2, 74309, Note_on_c, 0, 65, 0
2, 74310, Note_on_c, 0, 66, 72
2, 74315, Note_on_c, 0, 66, 0
2, 74316, Note_on_c, 0, 65, 85
2, 74321, Note_on_c, 0, 65, 0
2, 74322, Note_on_c, 0, 66, 76
2, 74327, Note_on_c, 0, 66, 0
2, 74328, Note_on_c, 0, 65, 85
2, 74333, Note_on_c, 0, 65, 0
2, 74336, Note_on_c, 0, 63, 62
2, 74341, Note_on_c, 0, 63, 0
2, 74342, Note_on_c, 0, 65, 85
2, 74347, Note_on_c, 0, 65, 0
2, 74348, Note_on_c, 0, 66, 69
2, 74352, Note_on_c, 0, 66, 66
2, 74365, Note_on_c, 0, 66, 0
2, 74368, Note_on_c, 0, 68, 72
2, 74381, Note_on_c, 0, 68, 0
2, 74384, Note_on_c, 0, 69, 86
2, 74397, Note_on_c, 0, 69, 0
2, 74400, Note_on_c, 0, 71, 85
2, 74413, Note_on_c, 0, 71, 0
2, 74416, Note_on_c, 0, 73, 70
2, 74429, Note_on_c, 0, 73, 0
2, 74432, Note_on_c, 0, 74, 85
2, 74445, Note_on_c, 0, 74, 0
2, 74448, Note_on_c, 0, 73, 74
2, 74461, Note_on_c, 0, 73, 0
2, 74464, Note_on_c, 0, 74, 85
2, 74477, Note_on_c, 0, 74, 0
2, 74480, Note_on_c, 0, 71, 85
2, 74493, Note_on_c, 0, 71, 0
2, 74496, Note_on_c, 0, 69, 85
2, 74509, Note_on_c, 0, 69, 0
2, 74512, Note_on_c, 0, 68, 68
2, 74525, Note_on_c, 0, 68, 0
2, 74528, Note_on_c, 0, 66, 72
2, 74541, Note_on_c, 0, 66, 0
2, 74731, Note_on_c, 0, 66, 0
2, 76416, Note_on_c, 0, 73, 47
2, 76423, Note_on_c, 0, 73, 0
2, 76432, Note_on_c, 0, 76, 47
2, 76439, Note_on_c, 0, 76, 0
2, 76448, Note_on_c, 0, 81, 47
2, 76455, Note_on_c, 0, 81, 0
2, 76464, Note_on_c, 0, 81, 47
2, 76471, Note_on_c, 0, 81, 0
2, 76480, Note_on_c, 0, 80, 47
2, 76487, Note_on_c, 0, 80, 0
2, 76496, Note_on_c, 0, 81, 47
2, 76503, Note_on_c, 0, 81, 0
2, 76512, Note_on_c, 0, 73, 47
2, 76519, Note_on_c, 0, 73, 0
2, 76528, Note_on_c, 0, 76, 47
2, 76535, Note_on_c, 0, 76, 0
2, 76544, Note_on_c, 0, 81, 47
2, 76551, Note_on_c, 0, 81, 0
2, 76560, Note_on_c, 0, 81, 47
2, 76567, Note_on_c, 0, 81, 0
2, 76576, Note_on_c, 0, 80, 47
2, 76583, Note_on_c, 0, 80, 0
2, 76592, Note_on_c, 0, 81, 47
2, 76599, Note_on_c, 0, 81, 0
2, 76608, Note_on_c, 0, 74, 82
2, 76615, Note_on_c, 0, 74, 0
2, 76624, Note_on_c, 0, 76, 59
2, 76631, Note_on_c, 0, 76, 0
2, 76640, Note_on_c, 0, 78, 62
2, 76647, Note_on_c, 0, 78, 0
2, 76656, Note_on_c, 0, 74, 59
2, 76663, Note_on_c, 0, 74, 0
2, 76672, Note_on_c, 0, 76, 72
2, 76679, Note_on_c, 0, 76, 0
2, 76688, Note_on_c, 0, 73, 53
2, 76695, Note_on_c, 0, 73, 0
2, 76704, Note_on_c, 0, 71, 76
2, 76711, Note_on_c, 0, 71, 0
2, 76720, Note_on_c, 0, 74, 65
2, 76727, Note_on_c, 0, 74, 0
2, 76736, Note_on_c, 0, 80, 65
2, 76743, Note_on_c, 0, 80, 0
2, 76752, Note_on_c, 0, 80, 62
2, 76759, Note_on_c, 0, 80, 0
2, 76768, Note_on_c, 0, 78, 55
2, 76775, Note_on_c, 0, 78, 0
2, 76784, Note_on_c, 0, 80, 66
2, 76791, Note_on_c, 0, 80, 0
2, 76800, Note_on_c, 0, 73, 47
2, 76807, Note_on_c, 0, 73, 0
2, 76816, Note_on_c, 0, 76, 60
2, 76823, Note_on_c, 0, 76, 0
2, 76832, Note_on_c, 0, 81, 85
2, 76839, Note_on_c, 0, 81, 0
2, 76848, Note_on_c, 0, 81, 85
2, 76855, Note_on_c, 0, 81, 0
2, 76864, Note_on_c, 0, 80, 65
2, 76871, Note_on_c, 0, 80, 0
2, 76880, Note_on_c, 0, 81, 77
2, 76887, Note_on_c, 0, 81, 0
2, 76896, Note_on_c, 0, 78, 62
2, 76903, Note_on_c, 0, 78, 0
2, 76912, Note_on_c, 0, 74, 60
2, 76919, Note_on_c, 0, 74, 0
2, 76928, Note_on_c, 0, 71, 85
2, 76935, Note_on_c, 0, 71, 0
2, 76944, Note_on_c, 0, 68, 62
2, 76951, Note_on_c, 0, 68, 0
2, 76960, Note_on_c, 0, 71, 36
2, 76967, Note_on_c, 0, 71, 0
2, 76976, Note_on_c, 0, 69, 85
2, 76983, Note_on_c, 0, 69, 0
2, 76992, Note_on_c, 0, 68, 57
2, 76999, Note_on_c, 0, 68, 0
2, 77008, Note_on_c, 0, 71, 42
2, 77015, Note_on_c, 0, 71, 0
2, 77024, Note_on_c, 0, 69, 85
2, 77031, Note_on_c, 0, 69, 0
2, 77040, Note_on_c, 0, 68, 49
2, 77047, Note_on_c, 0, 68, 0
2, 77056, Note_on_c, 0, 69, 82
2, 77063, Note_on_c, 0, 69, 0
2, 77072, Note_on_c, 0, 71, 62
2, 77079, Note_on_c, 0, 71, 0
2, 77088, Note_on_c, 0, 73, 62
2, 77095, Note_on_c, 0, 73, 0
2, 77104, Note_on_c, 0, 69, 85
2, 77111, Note_on_c, 0, 69, 0
2, 77120, Note_on_c, 0, 71, 79
2, 77127, Note_on_c, 0, 71, 0
2, 77136, Note_on_c, 0, 73, 49
2, 77143, Note_on_c, 0, 73, 0
2, 77152, Note_on_c, 0, 76, 81
2, 77159, Note_on_c, 0, 76, 0
2, 77168, Note_on_c, 0, 74, 40
2, 77175, Note_on_c, 0, 74, 0
2, 77184, Note_on_c, 0, 76, 76
2, 77191, Note_on_c, 0, 76, 0
2, 77200, Note_on_c, 0, 73, 47
2, 77207, Note_on_c, 0, 73, 0
2, 77216, Note_on_c, 0, 74, 85
2, 77223, Note_on_c, 0, 74, 0
2, 77232, Note_on_c, 0, 76, 62
2, 77239, Note_on_c, 0, 76, 0
2, 77248, Note_on_c, 0, 79, 85
2, 77255, Note_on_c, 0, 79, 0
2, 77264, Note_on_c, 0, 78, 62
2, 77271, Note_on_c, 0, 78, 0
2, 77280, Note_on_c, 0, 79, 55
2, 77284, Note_on_c, 0, 79, 0
2, 77286, Note_on_c, 0, 81, 62
2, 77290, Note_on_c, 0, 81, 0
2, 77292, Note_on_c, 0, 79, 85
2, 77296, Note_on_c, 0, 79, 0
2, 77298, Note_on_c, 0, 81, 85
2, 77302, Note_on_c, 0, 81, 0
2, 77304, Note_on_c, 0, 79, 43
2, 77309, Note_on_c, 0, 79, 0
2, 77310, Note_on_c, 0, 81, 59
2, 77315, Note_on_c, 0, 81, 0
2, 77316, Note_on_c, 0, 79, 46
2, 77321, Note_on_c, 0, 79, 0
2, 77322, Note_on_c, 0, 81, 65
2, 77327, Note_on_c, 0, 81, 0
2, 77328, Note_on_c, 0, 79, 60
2, 77333, Note_on_c, 0, 79, 0
2, 77334, Note_on_c, 0, 81, 76
2, 77339, Note_on_c, 0, 81, 0
2, 77340, Note_on_c, 0, 79, 72
2, 77345, Note_on_c, 0, 79, 0
2, 77346, Note_on_c, 0, 81, 81
2, 77351, Note_on_c, 0, 81, 0
2, 77352, Note_on_c, 0, 79, 79
2, 77357, Note_on_c, 0, 79, 0
2, 77358, Note_on_c, 0, 81, 85
2, 77363, Note_on_c, 0, 81, 0
2, 77364, Note_on_c, 0, 79, 77
2, 77369, Note_on_c, 0, 79, 0
2, 77370, Note_on_c, 0, 81, 85
2, 77375, Note_on_c, 0, 81, 0
2, 77376, Note_on_c, 0, 79, 85
2, 77381, Note_on_c, 0, 79, 0
2, 77382, Note_on_c, 0, 81, 85
2, 77387, Note_on_c, 0, 81, 0
2, 77388, Note_on_c, 0, 79, 59
2, 77393, Note_on_c, 0, 79, 0
2, 77394, Note_on_c, 0, 81, 85
2, 77399, Note_on_c, 0, 81, 0
2, 77400, Note_on_c, 0, 79, 78
2, 77405, Note_on_c, 0, 79, 0
2, 77406, Note_on_c, 0, 81, 85
2, 77411, Note_on_c, 0, 81, 0
2, 77412, Note_on_c, 0, 79, 81
2, 77417, Note_on_c, 0, 79, 0
2, 77418, Note_on_c, 0, 81, 85
2, 77423, Note_on_c, 0, 81, 0
2, 77424, Note_on_c, 0, 79, 85
2, 77429, Note_on_c, 0, 79, 0
2, 77430, Note_on_c, 0, 81, 85
2, 77435, Note_on_c, 0, 81, 0
2, 77436, Note_on_c, 0, 79, 85
2, 77441, Note_on_c, 0, 79, 0
2, 77442, Note_on_c, 0, 81, 85
2, 77447, Note_on_c, 0, 81, 0
2, 77448, Note_on_c, 0, 79, 85
2, 77453, Note_on_c, 0, 79, 0
2, 77454, Note_on_c, 0, 81, 85
2, 77459, Note_on_c, 0, 81, 0
2, 77460, Note_on_c, 0, 79, 81
2, 77465, Note_on_c, 0, 79, 0
2, 77466, Note_on_c, 0, 81, 85
2, 77471, Note_on_c, 0, 81, 0
2, 77472, Note_on_c, 0, 79, 72
2, 77479, Note_on_c, 0, 79, 0
2, 77488, Note_on_c, 0, 67, 76
2, 77495, Note_on_c, 0, 67, 0
2, 77504, Note_on_c, 0, 69, 85
2, 77511, Note_on_c, 0, 69, 0
2, 77520, Note_on_c, 0, 71, 85
2, 77527, Note_on_c, 0, 71, 0
2, 77536, Note_on_c, 0, 74, 77
2, 77543, Note_on_c, 0, 74, 0
2, 77552, Note_on_c, 0, 73, 43
2, 77559, Note_on_c, 0, 73, 0
2, 77568, Note_on_c, 0, 74, 85
2, 77575, Note_on_c, 0, 74, 0
2, 77584, Note_on_c, 0, 71, 46
2, 77591, Note_on_c, 0, 71, 0
2, 77600, Note_on_c, 0, 73, 60
2, 77607, Note_on_c, 0, 73, 0
2, 77616, Note_on_c, 0, 74, 85
2, 77623, Note_on_c, 0, 74, 0
2, 77632, Note_on_c, 0, 78, 66
2, 77639, Note_on_c, 0, 78, 0
2, 77648, Note_on_c, 0, 76, 85
2, 77655, Note_on_c, 0, 76, 0
2, 77664, Note_on_c, 0, 78, 95
2, 77669, Note_on_c, 0, 78, 0
2, 77670, Note_on_c, 0, 79, 95
2, 77675, Note_on_c, 0, 79, 0
2, 77676, Note_on_c, 0, 78, 95
2, 77681, Note_on_c, 0, 78, 0
2, 77682, Note_on_c, 0, 79, 95
2, 77687, Note_on_c, 0, 79, 0
2, 77688, Note_on_c, 0, 78, 95
2, 77693, Note_on_c, 0, 78, 0
2, 77694, Note_on_c, 0, 79, 95
2, 77699, Note_on_c, 0, 79, 0
2, 77700, Note_on_c, 0, 78, 95
2, 77705, Note_on_c, 0, 78, 0
2, 77706, Note_on_c, 0, 79, 95
2, 77711, Note_on_c, 0, 79, 0
2, 77712, Note_on_c, 0, 78, 95
2, 77717, Note_on_c, 0, 78, 0
2, 77718, Note_on_c, 0, 79, 95
2, 77723, Note_on_c, 0, 79, 0
2, 77724, Note_on_c, 0, 78, 95
2, 77729, Note_on_c, 0, 78, 0
2, 77730, Note_on_c, 0, 79, 95
2, 77735, Note_on_c, 0, 79, 0
2, 77736, Note_on_c, 0, 78, 95
2, 77741, Note_on_c, 0, 78, 0
2, 77742, Note_on_c, 0, 79, 95
2, 77747, Note_on_c, 0, 79, 0
2, 77748, Note_on_c, 0, 78, 95
2, 77753, Note_on_c, 0, 78, 0
2, 77754, Note_on_c, 0, 79, 95
2, 77759, Note_on_c, 0, 79, 0
2, 77760, Note_on_c, 0, 78, 95
2, 77765, Note_on_c, 0, 78, 0
2, 77766, Note_on_c, 0, 79, 95
2, 77771, Note_on_c, 0, 79, 0
2, 77772, Note_on_c, 0, 78, 95
2, 77777, Note_on_c, 0, 78, 0
2, 77778, Note_on_c, 0, 79, 95
2, 77783, Note_on_c, 0, 79, 0
2, 77784, Note_on_c, 0, 78, 95
2, 77789, Note_on_c, 0, 78, 0
2, 77790, Note_on_c, 0, 79, 95
2, 77795, Note_on_c, 0, 79, 0
2, 77796, Note_on_c, 0, 78, 95
2, 77801, Note_on_c, 0, 78, 0
2, 77802, Note_on_c, 0, 79, 95
2, 77807, Note_on_c, 0, 79, 0
2, 77808, Note_on_c, 0, 78, 95
2, 77813, Note_on_c, 0, 78, 0
2, 77814, Note_on_c, 0, 79, 95
2, 77819, Note_on_c, 0, 79, 0
2, 77820, Note_on_c, 0, 78, 95
2, 77825, Note_on_c, 0, 78, 0
2, 77826, Note_on_c, 0, 79, 95
2, 77831, Note_on_c, 0, 79, 0
2, 77832, Note_on_c, 0, 78, 95
2, 77837, Note_on_c, 0, 78, 0
2, 77838, Note_on_c, 0, 79, 95
2, 77843, Note_on_c, 0, 79, 0
2, 77844, Note_on_c, 0, 78, 95
2, 77849, Note_on_c, 0, 78, 0
2, 77850, Note_on_c, 0, 79, 95
2, 77855, Note_on_c, 0, 79, 0
2, 77856, Note_on_c, 0, 78, 72
2, 77874, Note_on_c, 0, 78, 0
2, 77892, Note_on_c, 0, 78, 71
2, 77898, Note_on_c, 0, 78, 0
2, 77904, Note_on_c, 0, 83, 85
2, 77922, Note_on_c, 0, 83, 0
2, 77936, Note_on_c, 0, 78, 82
2, 77942, Note_on_c, 0, 78, 0
2, 77952, Note_on_c, 0, 79, 72
2, 77960, Note_on_c, 0, 79, 0
2, 77968, Note_on_c, 0, 78, 60
2, 77976, Note_on_c, 0, 78, 0
2, 77984, Note_on_c, 0, 76, 85
2, 77992, Note_on_c, 0, 76, 0
2, 78000, Note_on_c, 0, 74, 85
2, 78008, Note_on_c, 0, 74, 0
2, 78016, Note_on_c, 0, 76, 79
2, 78024, Note_on_c, 0, 76, 0
2, 78032, Note_on_c, 0, 78, 61
2, 78040, Note_on_c, 0, 78, 0
2, 78048, Note_on_c, 0, 71, 85
2, 78066, Note_on_c, 0, 71, 0
2, 78084, Note_on_c, 0, 66, 57
2, 78090, Note_on_c, 0, 66, 0
2, 78096, Note_on_c, 0, 71, 72
2, 78104, Note_on_c, 0, 71, 0
2, 78112, Note_on_c, 0, 74, 85
2, 78120, Note_on_c, 0, 74, 0
2, 78128, Note_on_c, 0, 73, 62
2, 78136, Note_on_c, 0, 73, 0
2, 78144, Note_on_c, 0, 74, 85
2, 78152, Note_on_c, 0, 74, 0
2, 78160, Note_on_c, 0, 71, 85
2, 78168, Note_on_c, 0, 71, 0
2, 78176, Note_on_c, 0, 73, 59
2, 78184, Note_on_c, 0, 73, 0
2, 78192, Note_on_c, 0, 74, 85
2, 78200, Note_on_c, 0, 74, 0
2, 78208, Note_on_c, 0, 78, 59
2, 78216, Note_on_c, 0, 78, 0
2, 78224, Note_on_c, 0, 76, 85
2, 78232, Note_on_c, 0, 76, 0
2, 78240, Note_on_c, 0, 78, 52
2, 78258, Note_on_c, 0, 78, 0
2, 78276, Note_on_c, 0, 71, 85
2, 78282, Note_on_c, 0, 71, 0
2, 78288, Note_on_c, 0, 78, 64
2, 78306, Note_on_c, 0, 78, 0
2, 78324, Note_on_c, 0, 73, 61
2, 78330, Note_on_c, 0, 73, 0
2, 78336, Note_on_c, 0, 74, 66
2, 78344, Note_on_c, 0, 74, 0
2, 78352, Note_on_c, 0, 73, 49
2, 78360, Note_on_c, 0, 73, 0
2, 78368, Note_on_c, 0, 71, 78
2, 78376, Note_on_c, 0, 71, 0
2, 78384, Note_on_c, 0, 70, 49
2, 78392, Note_on_c, 0, 70, 0
2, 78400, Note_on_c, 0, 71, 46
2, 78408, Note_on_c, 0, 71, 0
2, 78416, Note_on_c, 0, 73, 64
2, 78424, Note_on_c, 0, 73, 0
2, 78432, Note_on_c, 0, 66, 85
2, 78468, Note_on_c, 0, 66, 0
2, 78480, Note_on_c, 0, 76, 85
2, 78534, Note_on_c, 0, 76, 0
2, 78544, Note_on_c, 0, 74, 85
2, 78556, Note_on_c, 0, 74, 0
2, 78560, Note_on_c, 0, 73, 59
2, 78572, Note_on_c, 0, 73, 0
2, 78576, Note_on_c, 0, 71, 85
2, 78588, Note_on_c, 0, 71, 0
2, 78592, Note_on_c, 0, 73, 57
2, 78604, Note_on_c, 0, 73, 0
2, 78608, Note_on_c, 0, 70, 46
2, 78620, Note_on_c, 0, 70, 0
2, 78624, Note_on_c, 0, 79, 85
2, 78636, Note_on_c, 0, 79, 0
2, 78640, Note_on_c, 0, 78, 65
2, 78652, Note_on_c, 0, 78, 0
2, 78656, Note_on_c, 0, 76, 78
2, 78668, Note_on_c, 0, 76, 0
2, 78672, Note_on_c, 0, 74, 85
2, 78684, Note_on_c, 0, 74, 0
2, 78688, Note_on_c, 0, 76, 70
2, 78700, Note_on_c, 0, 76, 0
2, 78704, Note_on_c, 0, 73, 62
2, 78716, Note_on_c, 0, 73, 0
2, 78720, Note_on_c, 0, 71, 85
2, 78747, Note_on_c, 0, 71, 0
2, 78756, Note_on_c, 0, 66, 56
2, 78765, Note_on_c, 0, 66, 0
2, 78768, Note_on_c, 0, 71, 85
2, 78795, Note_on_c, 0, 71, 0
2, 78804, Note_on_c, 0, 66, 60
2, 78813, Note_on_c, 0, 66, 0
2, 78816, Note_on_c, 0, 67, 79
2, 78828, Note_on_c, 0, 67, 0
2, 78832, Note_on_c, 0, 66, 53
2, 78844, Note_on_c, 0, 66, 0
2, 78848, Note_on_c, 0, 64, 77
2, 78860, Note_on_c, 0, 64, 0
2, 78864, Note_on_c, 0, 62, 85
2, 78876, Note_on_c, 0, 62, 0
2, 78880, Note_on_c, 0, 64, 85
2, 78892, Note_on_c, 0, 64, 0
2, 78896, Note_on_c, 0, 66, 68
2, 78908, Note_on_c, 0, 66, 0
2, 78912, Note_on_c, 0, 59, 81
2, 78939, Note_on_c, 0, 59, 0
2, 78948, Note_on_c, 0, 54, 68
2, 78957, Note_on_c, 0, 54, 0
2, 78960, Note_on_c, 0, 59, 47
2, 78972, Note_on_c, 0, 59, 0
2, 78976, Note_on_c, 0, 62, 65
2, 78988, Note_on_c, 0, 62, 0
2, 78992, Note_on_c, 0, 61, 55
2, 79004, Note_on_c, 0, 61, 0
2, 79008, Note_on_c, 0, 62, 65
2, 79020, Note_on_c, 0, 62, 0
2, 79024, Note_on_c, 0, 59, 85
2, 79036, Note_on_c, 0, 59, 0
2, 79040, Note_on_c, 0, 61, 42
2, 79052, Note_on_c, 0, 61, 0
2, 79056, Note_on_c, 0, 62, 57
2, 79068, Note_on_c, 0, 62, 0
2, 79072, Note_on_c, 0, 66, 59
2, 79084, Note_on_c, 0, 66, 0
2, 79088, Note_on_c, 0, 64, 85
2, 79100, Note_on_c, 0, 64, 0
2, 79104, Note_on_c, 0, 66, 62
2, 79116, Note_on_c, 0, 66, 0
2, 79120, Note_on_c, 0, 62, 85
2, 79132, Note_on_c, 0, 62, 0
2, 79136, Note_on_c, 0, 64, 76
2, 79148, Note_on_c, 0, 64, 0
2, 79152, Note_on_c, 0, 66, 62
2, 79164, Note_on_c, 0, 66, 0
2, 79168, Note_on_c, 0, 69, 85
2, 79180, Note_on_c, 0, 69, 0
2, 79184, Note_on_c, 0, 68, 66
2, 79196, Note_on_c, 0, 68, 0
2, 79200, Note_on_c, 0, 69, 95
2, 79205, Note_on_c, 0, 69, 0
2, 79206, Note_on_c, 0, 71, 95
2, 79211, Note_on_c, 0, 71, 0
2, 79212, Note_on_c, 0, 69, 95
2, 79217, Note_on_c, 0, 69, 0
2, 79218, Note_on_c, 0, 71, 95
2, 79223, Note_on_c, 0, 71, 0
2, 79224, Note_on_c, 0, 69, 95
2, 79229, Note_on_c, 0, 69, 0
2, 79230, Note_on_c, 0, 71, 95
2, 79235, Note_on_c, 0, 71, 0
2, 79236, Note_on_c, 0, 69, 95
2, 79241, Note_on_c, 0, 69, 0
2, 79242, Note_on_c, 0, 71, 95
2, 79247, Note_on_c, 0, 71, 0
2, 79248, Note_on_c, 0, 69, 95
2, 79253, Note_on_c, 0, 69, 0
2, 79254, Note_on_c, 0, 71, 95
2, 79259, Note_on_c, 0, 71, 0
2, 79260, Note_on_c, 0, 69, 95
2, 79265, Note_on_c, 0, 69, 0
2, 79266, Note_on_c, 0, 71, 95
2, 79271, Note_on_c, 0, 71, 0
2, 79272, Note_on_c, 0, 69, 95
2, 79277, Note_on_c, 0, 69, 0
2, 79278, Note_on_c, 0, 71, 95
2, 79283, Note_on_c, 0, 71, 0
2, 79284, Note_on_c, 0, 69, 95
2, 79289, Note_on_c, 0, 69, 0
2, 79290, Note_on_c, 0, 71, 95
2, 79295, Note_on_c, 0, 71, 0
2, 79296, Note_on_c, 0, 69, 85
2, 79308, Note_on_c, 0, 69, 0
2, 79312, Note_on_c, 0, 72, 85
2, 79324, Note_on_c, 0, 72, 0
2, 79328, Note_on_c, 0, 71, 62
2, 79340, Note_on_c, 0, 71, 0
2, 79344, Note_on_c, 0, 69, 72
2, 79356, Note_on_c, 0, 69, 0
2, 79360, Note_on_c, 0, 67, 85
2, 79372, Note_on_c, 0, 67, 0
2, 79376, Note_on_c, 0, 66, 56
2, 79388, Note_on_c, 0, 66, 0
2, 79392, Note_on_c, 0, 67, 81
2, 79395, Note_on_c, 0, 67, 0
2, 79396, Note_on_c, 0, 69, 85
2, 79399, Note_on_c, 0, 69, 0
2, 79400, Note_on_c, 0, 67, 81
2, 79403, Note_on_c, 0, 67, 0
2, 79404, Note_on_c, 0, 69, 85
2, 79407, Note_on_c, 0, 69, 0
2, 79408, Note_on_c, 0, 67, 85
2, 79411, Note_on_c, 0, 67, 0
2, 79412, Note_on_c, 0, 69, 85
2, 79415, Note_on_c, 0, 69, 0
2, 79416, Note_on_c, 0, 67, 85
2, 79419, Note_on_c, 0, 67, 0
2, 79420, Note_on_c, 0, 69, 85
2, 79423, Note_on_c, 0, 69, 0
2, 79424, Note_on_c, 0, 67, 85
2, 79427, Note_on_c, 0, 67, 0
2, 79428, Note_on_c, 0, 69, 85
2, 79431, Note_on_c, 0, 69, 0
2, 79432, Note_on_c, 0, 67, 85
2, 79435, Note_on_c, 0, 67, 0
2, 79436, Note_on_c, 0, 69, 85
2, 79439, Note_on_c, 0, 69, 0
2, 79440, Note_on_c, 0, 67, 85
2, 79443, Note_on_c, 0, 67, 0
2, 79444, Note_on_c, 0, 69, 85
2, 79447, Note_on_c, 0, 69, 0
2, 79448, Note_on_c, 0, 67, 85
2, 79451, Note_on_c, 0, 67, 0
2, 79452, Note_on_c, 0, 69, 89
2, 79455, Note_on_c, 0, 69, 0
2, 79456, Note_on_c, 0, 67, 85
2, 79459, Note_on_c, 0, 67, 0
2, 79460, Note_on_c, 0, 69, 85
2, 79463, Note_on_c, 0, 69, 0
2, 79464, Note_on_c, 0, 67, 85
2, 79467, Note_on_c, 0, 67, 0
2, 79468, Note_on_c, 0, 69, 67
2, 79471, Note_on_c, 0, 69, 0
2, 79472, Note_on_c, 0, 67, 85
2, 79475, Note_on_c, 0, 67, 0
2, 79476, Note_on_c, 0, 69, 74
2, 79479, Note_on_c, 0, 69, 0
2, 79480, Note_on_c, 0, 67, 85
2, 79483, Note_on_c, 0, 67, 0
2, 79484, Note_on_c, 0, 69, 85
2, 79487, Note_on_c, 0, 69, 0
2, 79488, Note_on_c, 0, 67, 77
2, 79500, Note_on_c, 0, 67, 0
2, 79504, Note_on_c, 0, 71, 85
2, 79516, Note_on_c, 0, 71, 0
2, 79520, Note_on_c, 0, 69, 85
2, 79532, Note_on_c, 0, 69, 0
2, 79536, Note_on_c, 0, 67, 85
2, 79548, Note_on_c, 0, 67, 0
2, 79552, Note_on_c, 0, 66, 50
2, 79564, Note_on_c, 0, 66, 0
2, 79568, Note_on_c, 0, 64, 55
2, 79580, Note_on_c, 0, 64, 0
2, 79584, Note_on_c, 0, 66, 55
2, 79587, Note_on_c, 0, 66, 0
2, 79588, Note_on_c, 0, 67, 85
2, 79591, Note_on_c, 0, 67, 0
2, 79592, Note_on_c, 0, 66, 64
2, 79595, Note_on_c, 0, 66, 0
2, 79596, Note_on_c, 0, 67, 85
2, 79599, Note_on_c, 0, 67, 0
2, 79600, Note_on_c, 0, 66, 59
2, 79603, Note_on_c, 0, 66, 0
2, 79604, Note_on_c, 0, 67, 85
2, 79607, Note_on_c, 0, 67, 0
2, 79608, Note_on_c, 0, 66, 62
2, 79611, Note_on_c, 0, 66, 0
2, 79612, Note_on_c, 0, 67, 85
2, 79615, Note_on_c, 0, 67, 0
2, 79616, Note_on_c, 0, 66, 59
2, 79619, Note_on_c, 0, 66, 0
2, 79620, Note_on_c, 0, 67, 85
2, 79623, Note_on_c, 0, 67, 0
2, 79624, Note_on_c, 0, 66, 66
2, 79627, Note_on_c, 0, 66, 0
2, 79628, Note_on_c, 0, 67, 85
2, 79631, Note_on_c, 0, 67, 0
2, 79632, Note_on_c, 0, 66, 66
2, 79635, Note_on_c, 0, 66, 0
2, 79636, Note_on_c, 0, 67, 85
2, 79639, Note_on_c, 0, 67, 0
2, 79640, Note_on_c, 0, 66, 66
2, 79643, Note_on_c, 0, 66, 0
2, 79644, Note_on_c, 0, 67, 85
2, 79647, Note_on_c, 0, 67, 0
2, 79648, Note_on_c, 0, 66, 69
2, 79651, Note_on_c, 0, 66, 0
2, 79652, Note_on_c, 0, 67, 85
2, 79655, Note_on_c, 0, 67, 0
2, 79656, Note_on_c, 0, 66, 66
2, 79659, Note_on_c, 0, 66, 0
2, 79660, Note_on_c, 0, 67, 85
2, 79663, Note_on_c, 0, 67, 0
2, 79664, Note_on_c, 0, 66, 62
2, 79667, Note_on_c, 0, 66, 0
2, 79668, Note_on_c, 0, 67, 85
2, 79671, Note_on_c, 0, 67, 0
2, 79672, Note_on_c, 0, 66, 62
2, 79675, Note_on_c, 0, 66, 0
2, 79676, Note_on_c, 0, 67, 85
2, 79679, Note_on_c, 0, 67, 0
2, 79680, Note_on_c, 0, 66, 55
2, 79683, Note_on_c, 0, 66, 0
2, 79684, Note_on_c, 0, 67, 85
2, 79687, Note_on_c, 0, 67, 0
2, 79688, Note_on_c, 0, 66, 64
2, 79691, Note_on_c, 0, 66, 0
2, 79692, Note_on_c, 0, 67, 85
2, 79695, Note_on_c, 0, 67, 0
2, 79696, Note_on_c, 0, 66, 59
2, 79699, Note_on_c, 0, 66, 0
2, 79700, Note_on_c, 0, 67, 85
2, 79703, Note_on_c, 0, 67, 0
2, 79704, Note_on_c, 0, 66, 62
2, 79707, Note_on_c, 0, 66, 0
2, 79708, Note_on_c, 0, 67, 85
2, 79711, Note_on_c, 0, 67, 0
2, 79712, Note_on_c, 0, 66, 59
2, 79715, Note_on_c, 0, 66, 0
2, 79716, Note_on_c, 0, 67, 85
2, 79719, Note_on_c, 0, 67, 0
2, 79720, Note_on_c, 0, 66, 66
2, 79723, Note_on_c, 0, 66, 0
2, 79724, Note_on_c, 0, 67, 85
2, 79727, Note_on_c, 0, 67, 0
2, 79728, Note_on_c, 0, 66, 66
2, 79731, Note_on_c, 0, 66, 0
2, 79732, Note_on_c, 0, 67, 85
2, 79735, Note_on_c, 0, 67, 0
2, 79736, Note_on_c, 0, 66, 66
2, 79739, Note_on_c, 0, 66, 0
2, 79740, Note_on_c, 0, 67, 85
2, 79743, Note_on_c, 0, 67, 0
2, 79744, Note_on_c, 0, 66, 69
2, 79747, Note_on_c, 0, 66, 0
2, 79748, Note_on_c, 0, 67, 85
2, 79751, Note_on_c, 0, 67, 0
2, 79752, Note_on_c, 0, 66, 66
2, 79755, Note_on_c, 0, 66, 0
2, 79756, Note_on_c, 0, 67, 85
2, 79759, Note_on_c, 0, 67, 0
2, 79760, Note_on_c, 0, 66, 62
2, 79763, Note_on_c, 0, 66, 0
2, 79764, Note_on_c, 0, 67, 85
2, 79767, Note_on_c, 0, 67, 0
2, 79768, Note_on_c, 0, 66, 62
2, 79771, Note_on_c, 0, 66, 0
2, 79772, Note_on_c, 0, 67, 85
2, 79775, Note_on_c, 0, 67, 0
2, 79776, Note_on_c, 0, 66, 46
2, 79788, Note_on_c, 0, 66, 0
2, 79792, Note_on_c, 0, 62, 74
2, 79804, Note_on_c, 0, 62, 0
2, 79808, Note_on_c, 0, 64, 82
2, 79820, Note_on_c, 0, 64, 0
2, 79824, Note_on_c, 0, 66, 64
2, 79836, Note_on_c, 0, 66, 0
2, 79840, Note_on_c, 0, 69, 85
2, 79852, Note_on_c, 0, 69, 0
2, 79856, Note_on_c, 0, 67, 85
2, 79868, Note_on_c, 0, 67, 0
2, 79872, Note_on_c, 0, 69, 85
2, 79884, Note_on_c, 0, 69, 0
2, 79888, Note_on_c, 0, 66, 56
2, 79900, Note_on_c, 0, 66, 0
2, 79904, Note_on_c, 0, 67, 85
2, 79916, Note_on_c, 0, 67, 0
2, 79920, Note_on_c, 0, 69, 79
2, 79932, Note_on_c, 0, 69, 0
2, 79936, Note_on_c, 0, 73, 61
2, 79948, Note_on_c, 0, 73, 0
2, 79952, Note_on_c, 0, 71, 72
2, 79964, Note_on_c, 0, 71, 0
2, 79968, Note_on_c, 0, 73, 49
2, 79971, Note_on_c, 0, 73, 0
2, 79972, Note_on_c, 0, 74, 81
2, 79975, Note_on_c, 0, 74, 0
2, 79976, Note_on_c, 0, 73, 68
2, 79979, Note_on_c, 0, 73, 0
2, 79980, Note_on_c, 0, 74, 85
2, 79983, Note_on_c, 0, 74, 0
2, 79984, Note_on_c, 0, 73, 47
2, 79987, Note_on_c, 0, 73, 0
2, 79988, Note_on_c, 0, 74, 84
2, 79991, Note_on_c, 0, 74, 0
2, 79992, Note_on_c, 0, 73, 50
2, 79995, Note_on_c, 0, 73, 0
2, 79996, Note_on_c, 0, 74, 85
2, 79999, Note_on_c, 0, 74, 0
2, 80000, Note_on_c, 0, 73, 62
2, 80003, Note_on_c, 0, 73, 0
2, 80004, Note_on_c, 0, 74, 85
2, 80007, Note_on_c, 0, 74, 0
2, 80008, Note_on_c, 0, 73, 66
2, 80011, Note_on_c, 0, 73, 0
2, 80012, Note_on_c, 0, 74, 85
2, 80015, Note_on_c, 0, 74, 0
2, 80016, Note_on_c, 0, 73, 65
2, 80019, Note_on_c, 0, 73, 0
2, 80020, Note_on_c, 0, 74, 85
2, 80023, Note_on_c, 0, 74, 0
2, 80024, Note_on_c, 0, 73, 66
2, 80027, Note_on_c, 0, 73, 0
2, 80028, Note_on_c, 0, 74, 85
2, 80031, Note_on_c, 0, 74, 0
2, 80032, Note_on_c, 0, 73, 72
2, 80035, Note_on_c, 0, 73, 0
2, 80036, Note_on_c, 0, 74, 85
2, 80039, Note_on_c, 0, 74, 0
2, 80040, Note_on_c, 0, 73, 62
2, 80043, Note_on_c, 0, 73, 0
2, 80044, Note_on_c, 0, 74, 49
2, 80047, Note_on_c, 0, 74, 0
2, 80048, Note_on_c, 0, 73, 40
2, 80051, Note_on_c, 0, 73, 0
2, 80052, Note_on_c, 0, 74, 66
2, 80055, Note_on_c, 0, 74, 0
2, 80056, Note_on_c, 0, 73, 44
2, 80059, Note_on_c, 0, 73, 0
2, 80060, Note_on_c, 0, 74, 85
2, 80063, Note_on_c, 0, 74, 0
2, 80064, Note_on_c, 0, 73, 49
2, 80067, Note_on_c, 0, 73, 0
2, 80068, Note_on_c, 0, 74, 81
2, 80071, Note_on_c, 0, 74, 0
2, 80072, Note_on_c, 0, 73, 68
2, 80075, Note_on_c, 0, 73, 0
2, 80076, Note_on_c, 0, 74, 85
2, 80079, Note_on_c, 0, 74, 0
2, 80080, Note_on_c, 0, 73, 47
2, 80083, Note_on_c, 0, 73, 0
2, 80084, Note_on_c, 0, 74, 84
2, 80087, Note_on_c, 0, 74, 0
2, 80088, Note_on_c, 0, 73, 50
2, 80091, Note_on_c, 0, 73, 0
2, 80092, Note_on_c, 0, 74, 85
2, 80095, Note_on_c, 0, 74, 0
2, 80096, Note_on_c, 0, 73, 62
2, 80099, Note_on_c, 0, 73, 0
2, 80100, Note_on_c, 0, 74, 85
2, 80103, Note_on_c, 0, 74, 0
2, 80104, Note_on_c, 0, 73, 66
2, 80107, Note_on_c, 0, 73, 0
2, 80108, Note_on_c, 0, 74, 85
2, 80111, Note_on_c, 0, 74, 0
2, 80112, Note_on_c, 0, 73, 65
2, 80115, Note_on_c, 0, 73, 0
2, 80116, Note_on_c, 0, 74, 85
2, 80119, Note_on_c, 0, 74, 0
2, 80120, Note_on_c, 0, 73, 66
2, 80123, Note_on_c, 0, 73, 0
2, 80124, Note_on_c, 0, 74, 85
2, 80127, Note_on_c, 0, 74, 0
2, 80128, Note_on_c, 0, 73, 72
2, 80131, Note_on_c, 0, 73, 0
2, 80132, Note_on_c, 0, 74, 85
2, 80135, Note_on_c, 0, 74, 0
2, 80136, Note_on_c, 0, 73, 62
2, 80139, Note_on_c, 0, 73, 0
2, 80140, Note_on_c, 0, 74, 49
2, 80143, Note_on_c, 0, 74, 0
2, 80144, Note_on_c, 0, 73, 40
2, 80147, Note_on_c, 0, 73, 0
2, 80148, Note_on_c, 0, 74, 66
2, 80151, Note_on_c, 0, 74, 0
2, 80152, Note_on_c, 0, 73, 44
2, 80155, Note_on_c, 0, 73, 0
2, 80156, Note_on_c, 0, 74, 85
2, 80159, Note_on_c, 0, 74, 0
2, 80160, Note_on_c, 0, 73, 52
2, 80172, Note_on_c, 0, 73, 0
2, 80176, Note_on_c, 0, 69, 85
2, 80188, Note_on_c, 0, 69, 0
2, 80192, Note_on_c, 0, 71, 85
2, 80204, Note_on_c, 0, 71, 0
2, 80208, Note_on_c, 0, 73, 64
2, 80220, Note_on_c, 0, 73, 0
2, 80224, Note_on_c, 0, 76, 61
2, 80236, Note_on_c, 0, 76, 0
2, 80240, Note_on_c, 0, 74, 85
2, 80252, Note_on_c, 0, 74, 0
2, 80256, Note_on_c, 0, 76, 81
2, 80268, Note_on_c, 0, 76, 0
2, 80272, Note_on_c, 0, 73, 59
2, 80284, Note_on_c, 0, 73, 0
2, 80288, Note_on_c, 0, 74, 85
2, 80300, Note_on_c, 0, 74, 0
2, 80304, Note_on_c, 0, 76, 62
2, 80316, Note_on_c, 0, 76, 0
2, 80320, Note_on_c, 0, 79, 77
2, 80332, Note_on_c, 0, 79, 0
2, 80336, Note_on_c, 0, 78, 59
2, 80348, Note_on_c, 0, 78, 0
2, 80352, Note_on_c, 0, 79, 82
2, 80355, Note_on_c, 0, 79, 0
2, 80356, Note_on_c, 0, 81, 85
2, 80359, Note_on_c, 0, 81, 0
2, 80360, Note_on_c, 0, 79, 85
2, 80363, Note_on_c, 0, 79, 0
2, 80364, Note_on_c, 0, 81, 85
2, 80367, Note_on_c, 0, 81, 0
2, 80368, Note_on_c, 0, 79, 85
2, 80371, Note_on_c, 0, 79, 0
2, 80372, Note_on_c, 0, 81, 66
2, 80375, Note_on_c, 0, 81, 0
2, 80376, Note_on_c, 0, 79, 85
2, 80379, Note_on_c, 0, 79, 0
2, 80380, Note_on_c, 0, 81, 79
2, 80383, Note_on_c, 0, 81, 0
2, 80384, Note_on_c, 0, 79, 85
2, 80387, Note_on_c, 0, 79, 0
2, 80388, Note_on_c, 0, 81, 85
2, 80391, Note_on_c, 0, 81, 0
2, 80392, Note_on_c, 0, 79, 85
2, 80395, Note_on_c, 0, 79, 0
2, 80396, Note_on_c, 0, 81, 81
2, 80399, Note_on_c, 0, 81, 0
2, 80400, Note_on_c, 0, 79, 79
2, 80403, Note_on_c, 0, 79, 0
2, 80404, Note_on_c, 0, 81, 85
2, 80407, Note_on_c, 0, 81, 0
2, 80408, Note_on_c, 0, 79, 85
2, 80411, Note_on_c, 0, 79, 0
2, 80412, Note_on_c, 0, 81, 72
2, 80415, Note_on_c, 0, 81, 0
2, 80416, Note_on_c, 0, 79, 85
2, 80419, Note_on_c, 0, 79, 0
2, 80420, Note_on_c, 0, 81, 59
2, 80423, Note_on_c, 0, 81, 0
2, 80424, Note_on_c, 0, 79, 67
2, 80427, Note_on_c, 0, 79, 0
2, 80428, Note_on_c, 0, 81, 74
2, 80431, Note_on_c, 0, 81, 0
2, 80432, Note_on_c, 0, 79, 85
2, 80435, Note_on_c, 0, 79, 0
2, 80436, Note_on_c, 0, 81, 70
2, 80439, Note_on_c, 0, 81, 0
2, 80440, Note_on_c, 0, 79, 85
2, 80443, Note_on_c, 0, 79, 0
2, 80444, Note_on_c, 0, 81, 85
2, 80447, Note_on_c, 0, 81, 0
2, 80448, Note_on_c, 0, 79, 74
2, 80460, Note_on_c, 0, 79, 0
2, 80464, Note_on_c, 0, 76, 85
2, 80476, Note_on_c, 0, 76, 0
2, 80480, Note_on_c, 0, 78, 54
2, 80492, Note_on_c, 0, 78, 0
2, 80496, Note_on_c, 0, 79, 81
2, 80508, Note_on_c, 0, 79, 0
2, 80512, Note_on_c, 0, 76, 85
2, 80524, Note_on_c, 0, 76, 0
2, 80528, Note_on_c, 0, 78, 59
2, 80540, Note_on_c, 0, 78, 0
2, 80544, Note_on_c, 0, 79, 82
2, 80547, Note_on_c, 0, 79, 0
2, 80548, Note_on_c, 0, 81, 85
2, 80551, Note_on_c, 0, 81, 0
2, 80552, Note_on_c, 0, 79, 85
2, 80555, Note_on_c, 0, 79, 0
2, 80556, Note_on_c, 0, 81, 85
2, 80559, Note_on_c, 0, 81, 0
2, 80560, Note_on_c, 0, 79, 85
2, 80563, Note_on_c, 0, 79, 0
2, 80564, Note_on_c, 0, 81, 66
2, 80567, Note_on_c, 0, 81, 0
2, 80568, Note_on_c, 0, 79, 85
2, 80571, Note_on_c, 0, 79, 0
2, 80572, Note_on_c, 0, 81, 79
2, 80575, Note_on_c, 0, 81, 0
2, 80576, Note_on_c, 0, 79, 85
2, 80579, Note_on_c, 0, 79, 0
2, 80580, Note_on_c, 0, 81, 85
2, 80583, Note_on_c, 0, 81, 0
2, 80584, Note_on_c, 0, 79, 85
2, 80587, Note_on_c, 0, 79, 0
2, 80588, Note_on_c, 0, 81, 81
2, 80591, Note_on_c, 0, 81, 0
2, 80592, Note_on_c, 0, 79, 79
2, 80595, Note_on_c, 0, 79, 0
2, 80596, Note_on_c, 0, 81, 85
2, 80599, Note_on_c, 0, 81, 0
2, 80600, Note_on_c, 0, 79, 85
2, 80603, Note_on_c, 0, 79, 0
2, 80604, Note_on_c, 0, 81, 72
2, 80607, Note_on_c, 0, 81, 0
2, 80608, Note_on_c, 0, 79, 85
2, 80611, Note_on_c, 0, 79, 0
2, 80612, Note_on_c, 0, 81, 59
2, 80615, Note_on_c, 0, 81, 0
2, 80616, Note_on_c, 0, 79, 67
2, 80619, Note_on_c, 0, 79, 0
2, 80620, Note_on_c, 0, 81, 74
2, 80623, Note_on_c, 0, 81, 0
2, 80624, Note_on_c, 0, 79, 85
2, 80627, Note_on_c, 0, 79, 0
2, 80628, Note_on_c, 0, 81, 70
2, 80631, Note_on_c, 0, 81, 0
2, 80632, Note_on_c, 0, 79, 85
2, 80635, Note_on_c, 0, 79, 0
2, 80636, Note_on_c, 0, 81, 85
2, 80639, Note_on_c, 0, 81, 0
2, 80640, Note_on_c, 0, 79, 76
2, 80652, Note_on_c, 0, 79, 0
2, 80656, Note_on_c, 0, 83, 53
2, 80668, Note_on_c, 0, 83, 0
2, 80672, Note_on_c, 0, 81, 85
2, 80684, Note_on_c, 0, 81, 0
2, 80688, Note_on_c, 0, 79, 85
2, 80700, Note_on_c, 0, 79, 0
2, 80704, Note_on_c, 0, 78, 59
2, 80716, Note_on_c, 0, 78, 0
2, 80720, Note_on_c, 0, 76, 46
2, 80732, Note_on_c, 0, 76, 0
2, 80736, Note_on_c, 0, 78, 64
2, 80748, Note_on_c, 0, 78, 0
2, 80752, Note_on_c, 0, 81, 74
2, 80764, Note_on_c, 0, 81, 0
2, 80768, Note_on_c, 0, 79, 70
2, 80780, Note_on_c, 0, 79, 0
2, 80784, Note_on_c, 0, 78, 53
2, 80796, Note_on_c, 0, 78, 0
2, 80800, Note_on_c, 0, 76, 85
2, 80812, Note_on_c, 0, 76, 0
2, 80816, Note_on_c, 0, 74, 76
2, 80828, Note_on_c, 0, 74, 0
2, 80832, Note_on_c, 0, 76, 85
2, 80844, Note_on_c, 0, 76, 0
2, 80848, Note_on_c, 0, 79, 65
2, 80860, Note_on_c, 0, 79, 0
2, 80864, Note_on_c, 0, 78, 61
2, 80876, Note_on_c, 0, 78, 0
2, 80880, Note_on_c, 0, 76, 71
2, 80892, Note_on_c, 0, 76, 0
2, 80896, Note_on_c, 0, 74, 85
2, 80908, Note_on_c, 0, 74, 0
2, 80912, Note_on_c, 0, 73, 53
2, 80924, Note_on_c, 0, 73, 0
2, 80928, Note_on_c, 0, 74, 61
2, 80940, Note_on_c, 0, 74, 0
2, 80944, Note_on_c, 0, 78, 40
2, 80956, Note_on_c, 0, 78, 0
2, 80960, Note_on_c, 0, 76, 72
2, 80972, Note_on_c, 0, 76, 0
2, 80976, Note_on_c, 0, 74, 70
2, 80988, Note_on_c, 0, 74, 0
2, 80992, Note_on_c, 0, 73, 43
2, 81004, Note_on_c, 0, 73, 0
2, 81008, Note_on_c, 0, 71, 74
2, 81020, Note_on_c, 0, 71, 0
2, 81024, Note_on_c, 0, 73, 59
2, 81036, Note_on_c, 0, 73, 0
2, 81040, Note_on_c, 0, 76, 72
2, 81052, Note_on_c, 0, 76, 0
2, 81056, Note_on_c, 0, 74, 68
2, 81068, Note_on_c, 0, 74, 0
2, 81072, Note_on_c, 0, 73, 59
2, 81084, Note_on_c, 0, 73, 0
2, 81088, Note_on_c, 0, 74, 81
2, 81100, Note_on_c, 0, 74, 0
2, 81104, Note_on_c, 0, 73, 47
2, 81116, Note_on_c, 0, 73, 0
2, 81120, Note_on_c, 0, 71, 79
2, 81132, Note_on_c, 0, 71, 0
2, 81136, Note_on_c, 0, 69, 79
2, 81148, Note_on_c, 0, 69, 0
2, 81152, Note_on_c, 0, 71, 85
2, 81164, Note_on_c, 0, 71, 0
2, 81168, Note_on_c, 0, 73, 47
2, 81180, Note_on_c, 0, 73, 0
2, 81184, Note_on_c, 0, 74, 76
2, 81190, Note_on_c, 0, 74, 0
2, 81192, Note_on_c, 0, 73, 47
2, 81198, Note_on_c, 0, 73, 0
2, 81200, Note_on_c, 0, 71, 78
2, 81206, Note_on_c, 0, 71, 0
2, 81208, Note_on_c, 0, 69, 85
2, 81214, Note_on_c, 0, 69, 0
2, 81216, Note_on_c, 0, 68, 57
2, 81243, Note_on_c, 0, 68, 0
2, 81252, Note_on_c, 0, 66, 60
2, 81261, Note_on_c, 0, 66, 0
2, 81264, Note_on_c, 0, 65, 85
2, 81276, Note_on_c, 0, 65, 0
2, 81280, Note_on_c, 0, 68, 62
2, 81292, Note_on_c, 0, 68, 0
2, 81296, Note_on_c, 0, 71, 64
2, 81308, Note_on_c, 0, 71, 0
2, 81312, Note_on_c, 0, 69, 85
2, 81324, Note_on_c, 0, 69, 0
2, 81328, Note_on_c, 0, 73, 49
2, 81340, Note_on_c, 0, 73, 0
2, 81344, Note_on_c, 0, 71, 85
2, 81356, Note_on_c, 0, 71, 0
2, 81360, Note_on_c, 0, 69, 85
2, 81372, Note_on_c, 0, 69, 0
2, 81376, Note_on_c, 0, 73, 46
2, 81388, Note_on_c, 0, 73, 0
2, 81392, Note_on_c, 0, 78, 49
2, 81404, Note_on_c, 0, 78, 0
2, 81408, Note_on_c, 0, 71, 85
2, 81420, Note_on_c, 0, 71, 0
2, 81424, Note_on_c, 0, 74, 37
2, 81436, Note_on_c, 0, 74, 0
2, 81440, Note_on_c, 0, 73, 66
2, 81452, Note_on_c, 0, 73, 0
2, 81456, Note_on_c, 0, 71, 85
2, 81468, Note_on_c, 0, 71, 0
2, 81472, Note_on_c, 0, 78, 49
2, 81484, Note_on_c, 0, 78, 0
2, 81488, Note_on_c, 0, 77, 85
2, 81500, Note_on_c, 0, 77, 0
2, 81504, Note_on_c, 0, 78, 43
2, 81516, Note_on_c, 0, 78, 0
2, 81520, Note_on_c, 0, 69, 85
2, 81532, Note_on_c, 0, 69, 0
2, 81536, Note_on_c, 0, 71, 85
2, 81548, Note_on_c, 0, 71, 0
2, 81552, Note_on_c, 0, 73, 70
2, 81564, Note_on_c, 0, 73, 0
2, 81568, Note_on_c, 0, 74, 85
2, 81580, Note_on_c, 0, 74, 0
2, 81584, Note_on_c, 0, 76, 85
2, 81596, Note_on_c, 0, 76, 0
2, 81600, Note_on_c, 0, 74, 85
2, 81612, Note_on_c, 0, 74, 0
2, 81616, Note_on_c, 0, 78, 65
2, 81628, Note_on_c, 0, 78, 0
2, 81632, Note_on_c, 0, 76, 85
2, 81644, Note_on_c, 0, 76, 0
2, 81648, Note_on_c, 0, 74, 85
2, 81660, Note_on_c, 0, 74, 0
2, 81664, Note_on_c, 0, 78, 59
2, 81676, Note_on_c, 0, 78, 0
2, 81680, Note_on_c, 0, 83, 79
2, 81692, Note_on_c, 0, 83, 0
2, 81696, Note_on_c, 0, 80, 69
2, 81708, Note_on_c, 0, 80, 0
2, 81712, Note_on_c, 0, 77, 85
2, 81724, Note_on_c, 0, 77, 0
2, 81728, Note_on_c, 0, 78, 64
2, 81740, Note_on_c, 0, 78, 0
2, 81744, Note_on_c, 0, 79, 85
2, 81798, Note_on_c, 0, 79, 0
2, 81808, Note_on_c, 0, 78, 55
2, 81820, Note_on_c, 0, 78, 0
2, 81824, Note_on_c, 0, 76, 76
2, 81836, Note_on_c, 0, 76, 0
2, 81840, Note_on_c, 0, 74, 85
2, 81852, Note_on_c, 0, 74, 0
2, 81856, Note_on_c, 0, 73, 57
2, 81868, Note_on_c, 0, 73, 0
2, 81872, Note_on_c, 0, 71, 85
2, 81884, Note_on_c, 0, 71, 0
2, 81888, Note_on_c, 0, 73, 55
2, 81900, Note_on_c, 0, 73, 0
2, 81904, Note_on_c, 0, 78, 52
2, 81916, Note_on_c, 0, 78, 0
2, 81920, Note_on_c, 0, 76, 55
2, 81932, Note_on_c, 0, 76, 0
2, 81936, Note_on_c, 0, 75, 66
2, 81948, Note_on_c, 0, 75, 0
2, 81952, Note_on_c, 0, 76, 85
2, 81964, Note_on_c, 0, 76, 0
2, 81968, Note_on_c, 0, 78, 66
2, 81980, Note_on_c, 0, 78, 0
2, 81984, Note_on_c, 0, 71, 85
2, 81996, Note_on_c, 0, 71, 0
2, 82000, Note_on_c, 0, 76, 69
2, 82012, Note_on_c, 0, 76, 0
2, 82016, Note_on_c, 0, 78, 52
2, 82028, Note_on_c, 0, 78, 0
2, 82032, Note_on_c, 0, 79, 85
2, 82044, Note_on_c, 0, 79, 0
2, 82048, Note_on_c, 0, 81, 85
2, 82060, Note_on_c, 0, 81, 0
2, 82064, Note_on_c, 0, 83, 77
2, 82076, Note_on_c, 0, 83, 0
2, 82080, Note_on_c, 0, 84, 85
2, 82092, Note_on_c, 0, 84, 0
2, 82096, Note_on_c, 0, 75, 61
2, 82108, Note_on_c, 0, 75, 0
2, 82112, Note_on_c, 0, 76, 85
2, 82124, Note_on_c, 0, 76, 0
2, 82128, Note_on_c, 0, 71, 72
2, 82140, Note_on_c, 0, 71, 0
2, 82144, Note_on_c, 0, 76, 85
2, 82156, Note_on_c, 0, 76, 0
2, 82160, Note_on_c, 0, 75, 60
2, 82172, Note_on_c, 0, 75, 0
2, 82176, Note_on_c, 0, 76, 85
2, 82188, Note_on_c, 0, 76, 0
2, 82192, Note_on_c, 0, 71, 85
2, 82204, Note_on_c, 0, 71, 0
2, 82208, Note_on_c, 0, 69, 76
2, 82220, Note_on_c, 0, 69, 0
2, 82224, Note_on_c, 0, 67, 85
2, 82236, Note_on_c, 0, 67, 0
2, 82240, Note_on_c, 0, 66, 64
2, 82252, Note_on_c, 0, 66, 0
2, 82256, Note_on_c, 0, 67, 85
2, 82268, Note_on_c, 0, 67, 0
2, 82272, Note_on_c, 0, 64, 85
2, 82284, Note_on_c, 0, 64, 0
2, 82288, Note_on_c, 0, 69, 85
2, 82300, Note_on_c, 0, 69, 0
2, 82304, Note_on_c, 0, 67, 85
2, 82316, Note_on_c, 0, 67, 0
2, 82320, Note_on_c, 0, 66, 62
2, 82332, Note_on_c, 0, 66, 0
2, 82336, Note_on_c, 0, 67, 67
2, 82348, Note_on_c, 0, 67, 0
2, 82352, Note_on_c, 0, 69, 71
2, 82364, Note_on_c, 0, 69, 0
2, 82368, Note_on_c, 0, 62, 85
2, 82380, Note_on_c, 0, 62, 0
2, 82384, Note_on_c, 0, 67, 85
2, 82396, Note_on_c, 0, 67, 0
2, 82400, Note_on_c, 0, 69, 79
2, 82412, Note_on_c, 0, 69, 0
2, 82416, Note_on_c, 0, 71, 71
2, 82428, Note_on_c, 0, 71, 0
2, 82432, Note_on_c, 0, 72, 70
2, 82444, Note_on_c, 0, 72, 0
2, 82448, Note_on_c, 0, 69, 71
2, 82460, Note_on_c, 0, 69, 0
2, 82464, Note_on_c, 0, 67, 79
2, 82476, Note_on_c, 0, 67, 0
2, 82480, Note_on_c, 0, 69, 81
2, 82492, Note_on_c, 0, 69, 0
2, 82496, Note_on_c, 0, 71, 85
2, 82508, Note_on_c, 0, 71, 0
2, 82512, Note_on_c, 0, 64, 85
2, 82539, Note_on_c, 0, 64, 0
2, 82548, Note_on_c, 0, 76, 55
2, 82557, Note_on_c, 0, 76, 0
2, 82560, Note_on_c, 0, 81, 72
2, 82572, Note_on_c, 0, 81, 0
2, 82576, Note_on_c, 0, 74, 85
2, 82588, Note_on_c, 0, 74, 0
2, 82592, Note_on_c, 0, 72, 62
2, 82604, Note_on_c, 0, 72, 0
2, 82608, Note_on_c, 0, 71, 76
2, 82620, Note_on_c, 0, 71, 0
2, 82624, Note_on_c, 0, 69, 85
2, 82636, Note_on_c, 0, 69, 0
2, 82640, Note_on_c, 0, 67, 85
2, 82652, Note_on_c, 0, 67, 0
2, 82656, Note_on_c, 0, 69, 85
2, 82692, Note_on_c, 0, 69, 0
2, 82704, Note_on_c, 0, 69, 85
2, 82710, Note_on_c, 0, 69, 0
2, 82712, Note_on_c, 0, 67, 78
2, 82718, Note_on_c, 0, 67, 0
2, 82720, Note_on_c, 0, 66, 60
2, 82726, Note_on_c, 0, 66, 0
2, 82728, Note_on_c, 0, 64, 78
2, 82734, Note_on_c, 0, 64, 0
2, 82736, Note_on_c, 0, 63, 33
2, 82742, Note_on_c, 0, 63, 0
2, 82744, Note_on_c, 0, 64, 85
2, 82750, Note_on_c, 0, 64, 0
2, 82752, Note_on_c, 0, 66, 49
2, 82764, Note_on_c, 0, 66, 0
2, 82768, Note_on_c, 0, 71, 81
2, 82780, Note_on_c, 0, 71, 0
2, 82784, Note_on_c, 0, 69, 85
2, 82796, Note_on_c, 0, 69, 0
2, 82800, Note_on_c, 0, 67, 85
2, 82812, Note_on_c, 0, 67, 0
2, 82816, Note_on_c, 0, 66, 66
2, 82828, Note_on_c, 0, 66, 0
2, 82832, Note_on_c, 0, 64, 62
2, 82844, Note_on_c, 0, 64, 0
2, 82848, Note_on_c, 0, 66, 59
2, 82860, Note_on_c, 0, 66, 0
2, 82864, Note_on_c, 0, 71, 65
2, 82876, Note_on_c, 0, 71, 0
2, 82880, Note_on_c, 0, 70, 54
2, 82892, Note_on_c, 0, 70, 0
2, 82896, Note_on_c, 0, 71, 56
2, 82908, Note_on_c, 0, 71, 0
2, 82912, Note_on_c, 0, 78, 43
2, 82924, Note_on_c, 0, 78, 0
2, 82928, Note_on_c, 0, 69, 78
2, 82940, Note_on_c, 0, 69, 0
2, 82944, Note_on_c, 0, 71, 85
2, 82962, Note_on_c, 0, 71, 0
2, 83076, Note_on_c, 0, 73, 53
2, 83085, Note_on_c, 0, 73, 0
2, 83088, Note_on_c, 0, 77, 36
2, 83100, Note_on_c, 0, 77, 0
2, 83104, Note_on_c, 0, 70, 59
2, 83116, Note_on_c, 0, 70, 0
2, 83120, Note_on_c, 0, 71, 62
2, 83132, Note_on_c, 0, 71, 0
2, 83136, Note_on_c, 0, 73, 62
2, 83163, Note_on_c, 0, 73, 0
2, 83172, Note_on_c, 0, 66, 52
2, 83181, Note_on_c, 0, 66, 0
2, 83184, Note_on_c, 0, 71, 85
2, 83196, Note_on_c, 0, 71, 0
2, 83200, Note_on_c, 0, 68, 62
2, 83212, Note_on_c, 0, 68, 0
2, 83216, Note_on_c, 0, 65, 85
2, 83228, Note_on_c, 0, 65, 0
2, 83232, Note_on_c, 0, 66, 54
2, 83259, Note_on_c, 0, 66, 0
2, 83268, Note_on_c, 0, 61, 59
2, 83277, Note_on_c, 0, 61, 0
2, 83280, Note_on_c, 0, 62, 69
2, 83292, Note_on_c, 0, 62, 0
2, 83296, Note_on_c, 0, 58, 57
2, 83308, Note_on_c, 0, 58, 0
2, 83312, Note_on_c, 0, 59, 85
2, 83324, Note_on_c, 0, 59, 0
2, 83824, Note_on_c, 0, 62, 62
2, 83836, Note_on_c, 0, 62, 0
2, 83840, Note_on_c, 0, 64, 52
2, 83852, Note_on_c, 0, 64, 0
2, 83856, Note_on_c, 0, 66, 61
2, 83868, Note_on_c, 0, 66, 0
2, 83872, Note_on_c, 0, 68, 62
2, 83884, Note_on_c, 0, 68, 0
2, 83888, Note_on_c, 0, 69, 81
2, 83900, Note_on_c, 0, 69, 0
2, 83904, Note_on_c, 0, 68, 36
2, 83916, Note_on_c, 0, 68, 0
2, 83920, Note_on_c, 0, 64, 85
2, 83932, Note_on_c, 0, 64, 0
2, 83936, Note_on_c, 0, 66, 43
2, 83948, Note_on_c, 0, 66, 0
2, 83952, Note_on_c, 0, 68, 47
2, 83964, Note_on_c, 0, 68, 0
2, 83968, Note_on_c, 0, 69, 85
2, 83980, Note_on_c, 0, 69, 0
2, 83984, Note_on_c, 0, 71, 74
2, 83996, Note_on_c, 0, 71, 0
2, 84000, Note_on_c, 0, 70, 54
2, 84012, Note_on_c, 0, 70, 0
2, 84016, Note_on_c, 0, 66, 47
2, 84028, Note_on_c, 0, 66, 0
2, 84032, Note_on_c, 0, 68, 67
2, 84044, Note_on_c, 0, 68, 0
2, 84048, Note_on_c, 0, 70, 52
2, 84060, Note_on_c, 0, 70, 0
2, 84064, Note_on_c, 0, 71, 74
2, 84076, Note_on_c, 0, 71, 0
2, 84080, Note_on_c, 0, 73, 53
2, 84092, Note_on_c, 0, 73, 0
2, 84096, Note_on_c, 0, 71, 66
2, 84108, Note_on_c, 0, 71, 0
2, 84112, Note_on_c, 0, 68, 37
2, 84124, Note_on_c, 0, 68, 0
2, 84128, Note_on_c, 0, 69, 57
2, 84140, Note_on_c, 0, 69, 0
2, 84144, Note_on_c, 0, 71, 66
2, 84156, Note_on_c, 0, 71, 0
2, 84160, Note_on_c, 0, 73, 57
2, 84172, Note_on_c, 0, 73, 0
2, 84176, Note_on_c, 0, 74, 74
2, 84188, Note_on_c, 0, 74, 0
2, 84192, Note_on_c, 0, 73, 52
2, 84204, Note_on_c, 0, 73, 0
2, 84208, Note_on_c, 0, 70, 46
2, 84220, Note_on_c, 0, 70, 0
2, 84224, Note_on_c, 0, 71, 77
2, 84236, Note_on_c, 0, 71, 0
2, 84240, Note_on_c, 0, 73, 52
2, 84252, Note_on_c, 0, 73, 0
2, 84256, Note_on_c, 0, 74, 52
2, 84268, Note_on_c, 0, 74, 0
2, 84272, Note_on_c, 0, 76, 65
2, 84284, Note_on_c, 0, 76, 0
2, 84288, Note_on_c, 0, 78, 46
2, 84300, Note_on_c, 0, 78, 0
2, 84304, Note_on_c, 0, 74, 79
2, 84316, Note_on_c, 0, 74, 0
2, 84320, Note_on_c, 0, 71, 56
2, 84332, Note_on_c, 0, 71, 0
2, 84336, Note_on_c, 0, 78, 50
2, 84348, Note_on_c, 0, 78, 0
2, 84352, Note_on_c, 0, 74, 76
2, 84364, Note_on_c, 0, 74, 0
2, 84368, Note_on_c, 0, 71, 59
2, 84380, Note_on_c, 0, 71, 0
2, 84384, Note_on_c, 0, 78, 49
2, 84396, Note_on_c, 0, 78, 0
2, 84400, Note_on_c, 0, 74, 85
2, 84412, Note_on_c, 0, 74, 0
2, 84416, Note_on_c, 0, 71, 43
2, 84428, Note_on_c, 0, 71, 0
2, 84432, Note_on_c, 0, 66, 59
2, 84444, Note_on_c, 0, 66, 0
2, 84448, Note_on_c, 0, 71, 74
2, 84460, Note_on_c, 0, 71, 0
2, 84464, Note_on_c, 0, 70, 65
2, 84476, Note_on_c, 0, 70, 0
2, 84480, Note_on_c, 0, 71, 85
2, 84516, Note_on_c, 0, 71, 0
2, 84576, Note_on_c, 0, 69, 98
2, 84576, Note_on_c, 0, 66, 98
2, 84576, Note_on_c, 0, 62, 98
2, 84576, Note_on_c, 0, 74, 98
2, 84624, Note_on_c, 0, 74, 0
2, 84624, Note_on_c, 0, 69, 0
2, 84624, Note_on_c, 0, 66, 0
2, 84624, Note_on_c, 0, 62, 0
2, 85572, Note_on_c, 0, 74, 95
2, 85584, Note_on_c, 0, 74, 0
2, 85584, Note_on_c, 0, 81, 95
2, 85620, Note_on_c, 0, 81, 0
2, 85620, Note_on_c, 0, 76, 95
2, 85632, Note_on_c, 0, 76, 0
2, 85632, Note_on_c, 0, 78, 95
2, 85648, Note_on_c, 0, 78, 0
2, 85648, Note_on_c, 0, 76, 95
2, 85664, Note_on_c, 0, 76, 0
2, 85664, Note_on_c, 0, 74, 95
2, 85680, Note_on_c, 0, 74, 0
2, 85680, Note_on_c, 0, 73, 95
2, 85696, Note_on_c, 0, 73, 0
2, 85696, Note_on_c, 0, 74, 95
2, 85712, Note_on_c, 0, 74, 0
2, 85712, Note_on_c, 0, 76, 95
2, 85728, Note_on_c, 0, 76, 0
2, 85728, Note_on_c, 0, 69, 95
2, 85744, Note_on_c, 0, 69, 0
2, 85744, Note_on_c, 0, 73, 95
2, 85760, Note_on_c, 0, 73, 0
2, 85760, Note_on_c, 0, 71, 95
2, 85776, Note_on_c, 0, 71, 0
2, 85776, Note_on_c, 0, 69, 95
2, 85792, Note_on_c, 0, 69, 0
2, 85792, Note_on_c, 0, 71, 95
2, 85808, Note_on_c, 0, 71, 0
2, 85808, Note_on_c, 0, 73, 95
2, 85824, Note_on_c, 0, 73, 0
2, 85824, Note_on_c, 0, 66, 95
2, 85840, Note_on_c, 0, 66, 0
2, 85840, Note_on_c, 0, 71, 95
2, 85856, Note_on_c, 0, 71, 0
2, 85856, Note_on_c, 0, 69, 95
2, 85872, Note_on_c, 0, 69, 0
2, 85872, Note_on_c, 0, 68, 95
2, 85888, Note_on_c, 0, 68, 0
2, 85888, Note_on_c, 0, 73, 95
2, 85904, Note_on_c, 0, 73, 0
2, 85904, Note_on_c, 0, 71, 95
2, 85920, Note_on_c, 0, 71, 0
2, 85920, Note_on_c, 0, 69, 95
2, 85928, Note_on_c, 0, 69, 0
2, 85928, Note_on_c, 0, 68, 95
2, 85936, Note_on_c, 0, 68, 0
2, 85936, Note_on_c, 0, 69, 95
2, 85944, Note_on_c, 0, 69, 0
2, 85944, Note_on_c, 0, 71, 95
2, 85952, Note_on_c, 0, 71, 0
2, 85952, Note_on_c, 0, 73, 95
2, 85960, Note_on_c, 0, 73, 0
2, 85960, Note_on_c, 0, 74, 95
2, 85968, Note_on_c, 0, 74, 0
2, 85968, Note_on_c, 0, 76, 95
2, 85976, Note_on_c, 0, 76, 0
2, 85976, Note_on_c, 0, 78, 95
2, 85984, Note_on_c, 0, 78, 0
2, 85984, Note_on_c, 0, 76, 95
2, 85992, Note_on_c, 0, 76, 0
2, 85992, Note_on_c, 0, 74, 95
2, 86000, Note_on_c, 0, 74, 0
2, 86000, Note_on_c, 0, 73, 95
2, 86008, Note_on_c, 0, 73, 0
2, 86008, Note_on_c, 0, 71, 95
2, 86016, Note_on_c, 0, 71, 0
2, 86016, Note_on_c, 0, 69, 95
2, 86024, Note_on_c, 0, 69, 0
2, 86024, Note_on_c, 0, 73, 95
2, 86032, Note_on_c, 0, 73, 0
2, 86032, Note_on_c, 0, 71, 95
2, 86040, Note_on_c, 0, 71, 0
2, 86040, Note_on_c, 0, 69, 95
2, 86048, Note_on_c, 0, 69, 0
2, 86048, Note_on_c, 0, 68, 95
2, 86056, Note_on_c, 0, 68, 0
2, 86056, Note_on_c, 0, 66, 95
2, 86064, Note_on_c, 0, 66, 0
2, 86064, Note_on_c, 0, 64, 95
2, 86072, Note_on_c, 0, 64, 0
2, 86072, Note_on_c, 0, 66, 95
2, 86080, Note_on_c, 0, 66, 0
2, 86080, Note_on_c, 0, 64, 95
2, 86088, Note_on_c, 0, 64, 0
2, 86088, Note_on_c, 0, 62, 95
2, 86096, Note_on_c, 0, 62, 0
2, 86096, Note_on_c, 0, 61, 95
2, 86104, Note_on_c, 0, 61, 0
2, 86104, Note_on_c, 0, 59, 95
2, 86112, Note_on_c, 0, 59, 0
2, 86112, Note_on_c, 0, 57, 95
2, 86120, Note_on_c, 0, 57, 0
2, 86160, Note_on_c, 0, 69, 95
2, 86184, Note_on_c, 0, 69, 0
2, 86208, Note_on_c, 0, 69, 95
2, 86232, Note_on_c, 0, 69, 0
2, 86256, Note_on_c, 0, 68, 95
2, 86280, Note_on_c, 0, 68, 0
2, 86304, Note_on_c, 0, 69, 95
2, 86310, Note_on_c, 0, 69, 0
2, 86310, Note_on_c, 0, 71, 95
2, 86316, Note_on_c, 0, 71, 0
2, 86316, Note_on_c, 0, 69, 95
2, 86322, Note_on_c, 0, 69, 0
2, 86322, Note_on_c, 0, 71, 95
2, 86328, Note_on_c, 0, 71, 0
2, 86328, Note_on_c, 0, 69, 95
2, 86334, Note_on_c, 0, 69, 0
2, 86334, Note_on_c, 0, 71, 95
2, 86340, Note_on_c, 0, 71, 0
2, 86340, Note_on_c, 0, 69, 95
2, 86346, Note_on_c, 0, 69, 0
2, 86346, Note_on_c, 0, 71, 95
2, 86352, Note_on_c, 0, 71, 0
2, 86352, Note_on_c, 0, 69, 95
2, 86358, Note_on_c, 0, 69, 0
2, 86358, Note_on_c, 0, 71, 95
2, 86364, Note_on_c, 0, 71, 0
2, 86364, Note_on_c, 0, 69, 95
2, 86370, Note_on_c, 0, 69, 0
2, 86370, Note_on_c, 0, 71, 95
2, 86376, Note_on_c, 0, 71, 0
2, 86376, Note_on_c, 0, 69, 95
2, 86382, Note_on_c, 0, 69, 0
2, 86382, Note_on_c, 0, 71, 95
2, 86388, Note_on_c, 0, 71, 0
2, 86388, Note_on_c, 0, 69, 95
2, 86394, Note_on_c, 0, 69, 0
2, 86394, Note_on_c, 0, 71, 95
2, 86400, Note_on_c, 0, 71, 0
2, 86400, Note_on_c, 0, 69, 95
2, 86416, Note_on_c, 0, 69, 0
2, 86416, Note_on_c, 0, 73, 95
2, 86432, Note_on_c, 0, 73, 0
2, 86432, Note_on_c, 0, 71, 95
2, 86448, Note_on_c, 0, 71, 0
2, 86448, Note_on_c, 0, 69, 95
2, 86464, Note_on_c, 0, 69, 0
2, 86464, Note_on_c, 0, 68, 95
2, 86480, Note_on_c, 0, 68, 0
2, 86480, Note_on_c, 0, 66, 95
2, 86496, Note_on_c, 0, 66, 0
2, 86496, Note_on_c, 0, 64, 95
2, 86502, Note_on_c, 0, 64, 0
2, 86502, Note_on_c, 0, 66, 95
2, 86508, Note_on_c, 0, 66, 0
2, 86508, Note_on_c, 0, 64, 95
2, 86514, Note_on_c, 0, 64, 0
2, 86514, Note_on_c, 0, 66, 95
2, 86520, Note_on_c, 0, 66, 0
2, 86520, Note_on_c, 0, 64, 95
2, 86526, Note_on_c, 0, 64, 0
2, 86526, Note_on_c, 0, 66, 95
2, 86532, Note_on_c, 0, 66, 0
2, 86532, Note_on_c, 0, 64, 95
2, 86538, Note_on_c, 0, 64, 0
2, 86538, Note_on_c, 0, 66, 95
2, 86544, Note_on_c, 0, 66, 0
2, 86544, Note_on_c, 0, 64, 95
2, 86550, Note_on_c, 0, 64, 0
2, 86550, Note_on_c, 0, 66, 95
2, 86556, Note_on_c, 0, 66, 0
2, 86556, Note_on_c, 0, 64, 95
2, 86562, Note_on_c, 0, 64, 0
2, 86562, Note_on_c, 0, 66, 95
2, 86568, Note_on_c, 0, 66, 0
2, 86568, Note_on_c, 0, 64, 95
2, 86574, Note_on_c, 0, 64, 0
2, 86574, Note_on_c, 0, 66, 95
2, 86580, Note_on_c, 0, 66, 0
2, 86580, Note_on_c, 0, 64, 95
2, 86586, Note_on_c, 0, 64, 0
2, 86586, Note_on_c, 0, 66, 95
2, 86592, Note_on_c, 0, 66, 0
2, 86592, Note_on_c, 0, 64, 95
2, 86608, Note_on_c, 0, 64, 0
2, 86608, Note_on_c, 0, 61, 95
2, 86624, Note_on_c, 0, 61, 0
2, 86624, Note_on_c, 0, 62, 95
2, 86640, Note_on_c, 0, 62, 0
2, 86640, Note_on_c, 0, 64, 95
2, 86656, Note_on_c, 0, 64, 0
2, 86656, Note_on_c, 0, 62, 95
2, 86672, Note_on_c, 0, 62, 0
2, 86672, Note_on_c, 0, 64, 95
2, 86688, Note_on_c, 0, 64, 0
2, 86688, Note_on_c, 0, 66, 95
2, 86704, Note_on_c, 0, 66, 0
2, 86704, Note_on_c, 0, 69, 95
2, 86720, Note_on_c, 0, 69, 0
2, 86720, Note_on_c, 0, 68, 95
2, 86736, Note_on_c, 0, 68, 0
2, 86736, Note_on_c, 0, 66, 95
2, 86752, Note_on_c, 0, 66, 0
2, 86752, Note_on_c, 0, 69, 95
2, 86768, Note_on_c, 0, 69, 0
2, 86768, Note_on_c, 0, 68, 95
2, 86784, Note_on_c, 0, 68, 0
2, 86784, Note_on_c, 0, 66, 95
2, 86800, Note_on_c, 0, 66, 0
2, 86800, Note_on_c, 0, 63, 95
2, 86816, Note_on_c, 0, 63, 0
2, 86816, Note_on_c, 0, 64, 95
2, 86832, Note_on_c, 0, 64, 0
2, 86832, Note_on_c, 0, 66, 95
2, 86848, Note_on_c, 0, 66, 0
2, 86848, Note_on_c, 0, 64, 95
2, 86864, Note_on_c, 0, 64, 0
2, 86864, Note_on_c, 0, 66, 95
2, 86880, Note_on_c, 0, 66, 0
2, 86880, Note_on_c, 0, 68, 95
2, 86896, Note_on_c, 0, 68, 0
2, 86928, Note_on_c, 0, 73, 95
2, 86928, Note_on_c, 0, 71, 95
2, 86928, Note_on_c, 0, 76, 95
2, 86952, Note_on_c, 0, 76, 0
2, 86952, Note_on_c, 0, 71, 0
2, 86952, Note_on_c, 0, 73, 0
2, 86976, Note_on_c, 0, 73, 95
2, 86976, Note_on_c, 0, 69, 95
2, 86976, Note_on_c, 0, 76, 95
2, 87000, Note_on_c, 0, 76, 0
2, 87000, Note_on_c, 0, 69, 0
2, 87000, Note_on_c, 0, 73, 0
2, 87024, Note_on_c, 0, 71, 95
2, 87024, Note_on_c, 0, 66, 95
2, 87024, Note_on_c, 0, 74, 95
2, 87048, Note_on_c, 0, 74, 0
2, 87048, Note_on_c, 0, 66, 0
2, 87048, Note_on_c, 0, 71, 0
2, 87072, Note_on_c, 0, 71, 95
2, 87072, Note_on_c, 0, 68, 95
2, 87072, Note_on_c, 0, 74, 95
2, 87096, Note_on_c, 0, 74, 0
2, 87096, Note_on_c, 0, 68, 0
2, 87096, Note_on_c, 0, 71, 0
2, 87120, Note_on_c, 0, 69, 95
2, 87120, Note_on_c, 0, 73, 95
2, 87156, Note_on_c, 0, 73, 0
2, 87156, Note_on_c, 0, 74, 95
2, 87168, Note_on_c, 0, 74, 0
2, 87168, Note_on_c, 0, 76, 95
2, 87204, Note_on_c, 0, 76, 0
2, 87204, Note_on_c, 0, 78, 95
2, 87216, Note_on_c, 0, 78, 0
2, 87216, Note_on_c, 0, 69, 0
2, 87216, Note_on_c, 0, 71, 95
2, 87252, Note_on_c, 0, 71, 0
2, 87252, Note_on_c, 0, 69, 95
2, 87264, Note_on_c, 0, 69, 0
2, 87264, Note_on_c, 0, 69, 95
2, 87288, Note_on_c, 0, 69, 0
2, 88356, Note_on_c, 0, 74, 95
2, 88368, Note_on_c, 0, 74, 0
2, 88368, Note_on_c, 0, 81, 95
2, 88404, Note_on_c, 0, 81, 0
2, 88404, Note_on_c, 0, 76, 95
2, 88416, Note_on_c, 0, 76, 0
2, 88416, Note_on_c, 0, 78, 95
2, 88432, Note_on_c, 0, 78, 0
2, 88432, Note_on_c, 0, 76, 95
2, 88448, Note_on_c, 0, 76, 0
2, 88448, Note_on_c, 0, 74, 95
2, 88464, Note_on_c, 0, 74, 0
2, 88464, Note_on_c, 0, 73, 95
2, 88480, Note_on_c, 0, 73, 0
2, 88480, Note_on_c, 0, 74, 95
2, 88496, Note_on_c, 0, 74, 0
2, 88496, Note_on_c, 0, 76, 95
2, 88512, Note_on_c, 0, 76, 0
2, 88512, Note_on_c, 0, 69, 77
2, 88520, Note_on_c, 0, 69, 0
2, 88520, Note_on_c, 0, 66, 55
2, 88528, Note_on_c, 0, 66, 0
2, 88528, Note_on_c, 0, 67, 62
2, 88536, Note_on_c, 0, 67, 0
2, 88536, Note_on_c, 0, 69, 85
2, 88544, Note_on_c, 0, 69, 0
2, 88544, Note_on_c, 0, 71, 85
2, 88552, Note_on_c, 0, 71, 0
2, 88552, Note_on_c, 0, 73, 56
2, 88560, Note_on_c, 0, 73, 0
2, 88560, Note_on_c, 0, 74, 81
2, 88568, Note_on_c, 0, 74, 0
2, 88568, Note_on_c, 0, 76, 79
2, 88576, Note_on_c, 0, 76, 0
2, 88576, Note_on_c, 0, 74, 78
2, 88584, Note_on_c, 0, 74, 0
2, 88584, Note_on_c, 0, 73, 62
2, 88592, Note_on_c, 0, 73, 0
2, 88592, Note_on_c, 0, 71, 74
2, 88600, Note_on_c, 0, 71, 0
2, 88600, Note_on_c, 0, 69, 85
2, 88608, Note_on_c, 0, 69, 0
2, 88608, Note_on_c, 0, 71, 61
2, 88616, Note_on_c, 0, 71, 0
2, 88616, Note_on_c, 0, 74, 72
2, 88624, Note_on_c, 0, 74, 0
2, 88624, Note_on_c, 0, 73, 49
2, 88632, Note_on_c, 0, 73, 0
2, 88632, Note_on_c, 0, 71, 85
2, 88640, Note_on_c, 0, 71, 0
2, 88640, Note_on_c, 0, 69, 85
2, 88648, Note_on_c, 0, 69, 0
2, 88648, Note_on_c, 0, 67, 44
2, 88656, Note_on_c, 0, 67, 0
2, 88656, Note_on_c, 0, 66, 60
2, 88664, Note_on_c, 0, 66, 0
2, 88664, Note_on_c, 0, 64, 59
2, 88672, Note_on_c, 0, 64, 0
2, 88672, Note_on_c, 0, 66, 46
2, 88680, Note_on_c, 0, 66, 0
2, 88680, Note_on_c, 0, 67, 67
2, 88688, Note_on_c, 0, 67, 0
2, 88688, Note_on_c, 0, 69, 33
2, 88696, Note_on_c, 0, 69, 0
2, 88696, Note_on_c, 0, 66, 60
2, 88704, Note_on_c, 0, 66, 0
2, 88704, Note_on_c, 0, 62, 66
2, 88712, Note_on_c, 0, 62, 0
2, 88712, Note_on_c, 0, 61, 53
2, 88720, Note_on_c, 0, 61, 0
2, 88720, Note_on_c, 0, 62, 85
2, 88728, Note_on_c, 0, 62, 0
2, 88728, Note_on_c, 0, 64, 69
2, 88736, Note_on_c, 0, 64, 0
2, 88736, Note_on_c, 0, 66, 49
2, 88744, Note_on_c, 0, 66, 0
2, 88744, Note_on_c, 0, 67, 60
2, 88752, Note_on_c, 0, 67, 0
2, 88752, Note_on_c, 0, 69, 85
2, 88760, Note_on_c, 0, 69, 0
2, 88760, Note_on_c, 0, 71, 85
2, 88768, Note_on_c, 0, 71, 0
2, 88768, Note_on_c, 0, 69, 85
2, 88776, Note_on_c, 0, 69, 0
2, 88776, Note_on_c, 0, 67, 85
2, 88784, Note_on_c, 0, 67, 0
2, 88784, Note_on_c, 0, 66, 52
2, 88792, Note_on_c, 0, 66, 0
2, 88792, Note_on_c, 0, 64, 79
2, 88800, Note_on_c, 0, 64, 0
2, 88800, Note_on_c, 0, 66, 46
2, 88808, Note_on_c, 0, 66, 0
2, 88808, Note_on_c, 0, 69, 85
2, 88816, Note_on_c, 0, 69, 0
2, 88816, Note_on_c, 0, 67, 72
2, 88824, Note_on_c, 0, 67, 0
2, 88824, Note_on_c, 0, 66, 49
2, 88832, Note_on_c, 0, 66, 0
2, 88832, Note_on_c, 0, 64, 85
2, 88840, Note_on_c, 0, 64, 0
2, 88840, Note_on_c, 0, 62, 68
2, 88848, Note_on_c, 0, 62, 0
2, 88848, Note_on_c, 0, 61, 53
2, 88856, Note_on_c, 0, 61, 0
2, 88856, Note_on_c, 0, 59, 85
2, 88864, Note_on_c, 0, 59, 0
2, 88864, Note_on_c, 0, 61, 59
2, 88872, Note_on_c, 0, 61, 0
2, 88872, Note_on_c, 0, 62, 53
2, 88880, Note_on_c, 0, 62, 0
2, 88880, Note_on_c, 0, 64, 64
2, 88888, Note_on_c, 0, 64, 0
2, 88888, Note_on_c, 0, 61, 50
2, 88896, Note_on_c, 0, 61, 0
2, 88896, Note_on_c, 0, 57, 50
2, 88904, Note_on_c, 0, 57, 0
2, 88904, Note_on_c, 0, 62, 53
2, 88912, Note_on_c, 0, 62, 0
2, 88912, Note_on_c, 0, 64, 56
2, 88920, Note_on_c, 0, 64, 0
2, 88920, Note_on_c, 0, 66, 55
2, 88928, Note_on_c, 0, 66, 0
2, 88928, Note_on_c, 0, 64, 69
2, 88936, Note_on_c, 0, 64, 0
2, 88936, Note_on_c, 0, 62, 59
2, 88944, Note_on_c, 0, 62, 0
2, 88944, Note_on_c, 0, 57, 50
2, 88952, Note_on_c, 0, 57, 0
2, 88952, Note_on_c, 0, 62, 57
2, 88960, Note_on_c, 0, 62, 0
2, 88960, Note_on_c, 0, 64, 76
2, 88968, Note_on_c, 0, 64, 0
2, 88968, Note_on_c, 0, 66, 50
2, 88976, Note_on_c, 0, 66, 0
2, 88976, Note_on_c, 0, 64, 74
2, 88984, Note_on_c, 0, 64, 0
2, 88984, Note_on_c, 0, 62, 85
2, 88992, Note_on_c, 0, 62, 0
2, 88992, Note_on_c, 0, 61, 49
2, 89000, Note_on_c, 0, 61, 0
2, 89000, Note_on_c, 0, 66, 42
2, 89008, Note_on_c, 0, 66, 0
2, 89008, Note_on_c, 0, 67, 65
2, 89016, Note_on_c, 0, 67, 0
2, 89016, Note_on_c, 0, 69, 62
2, 89024, Note_on_c, 0, 69, 0
2, 89024, Note_on_c, 0, 67, 59
2, 89032, Note_on_c, 0, 67, 0
2, 89032, Note_on_c, 0, 66, 53
2, 89040, Note_on_c, 0, 66, 0
2, 89040, Note_on_c, 0, 62, 67
2, 89048, Note_on_c, 0, 62, 0
2, 89048, Note_on_c, 0, 67, 85
2, 89056, Note_on_c, 0, 67, 0
2, 89056, Note_on_c, 0, 69, 67
2, 89064, Note_on_c, 0, 69, 0
2, 89064, Note_on_c, 0, 71, 65
2, 89072, Note_on_c, 0, 71, 0
2, 89072, Note_on_c, 0, 69, 85
2, 89080, Note_on_c, 0, 69, 0
2, 89080, Note_on_c, 0, 67, 79
2, 89088, Note_on_c, 0, 67, 0
2, 89088, Note_on_c, 0, 64, 44
2, 89096, Note_on_c, 0, 64, 0
2, 89096, Note_on_c, 0, 67, 69
2, 89104, Note_on_c, 0, 67, 0
2, 89104, Note_on_c, 0, 69, 79
2, 89112, Note_on_c, 0, 69, 0
2, 89112, Note_on_c, 0, 71, 74
2, 89120, Note_on_c, 0, 71, 0
2, 89120, Note_on_c, 0, 69, 72
2, 89128, Note_on_c, 0, 69, 0
2, 89128, Note_on_c, 0, 67, 74
2, 89136, Note_on_c, 0, 67, 0
2, 89136, Note_on_c, 0, 66, 54
2, 89144, Note_on_c, 0, 66, 0
2, 89144, Note_on_c, 0, 67, 81
2, 89152, Note_on_c, 0, 67, 0
2, 89152, Note_on_c, 0, 69, 44
2, 89160, Note_on_c, 0, 69, 0
2, 89160, Note_on_c, 0, 71, 77
2, 89168, Note_on_c, 0, 71, 0
2, 89168, Note_on_c, 0, 73, 68
2, 89176, Note_on_c, 0, 73, 0
2, 89176, Note_on_c, 0, 69, 85
2, 89184, Note_on_c, 0, 69, 0
2, 89184, Note_on_c, 0, 74, 56
2, 89200, Note_on_c, 0, 74, 0
2, 89200, Note_on_c, 0, 73, 50
2, 89216, Note_on_c, 0, 73, 0
2, 89216, Note_on_c, 0, 71, 85
2, 89232, Note_on_c, 0, 71, 0
2, 89232, Note_on_c, 0, 69, 81
2, 89248, Note_on_c, 0, 69, 0
2, 89248, Note_on_c, 0, 71, 81
2, 89264, Note_on_c, 0, 71, 0
2, 89264, Note_on_c, 0, 67, 50
2, 89280, Note_on_c, 0, 67, 0
2, 89280, Note_on_c, 0, 66, 68
2, 89304, Note_on_c, 0, 66, 0
2, 89328, Note_on_c, 0, 74, 68
2, 89352, Note_on_c, 0, 74, 0
2, 89376, Note_on_c, 0, 74, 68
2, 89400, Note_on_c, 0, 74, 0
2, 89424, Note_on_c, 0, 73, 68
2, 89448, Note_on_c, 0, 73, 0
2, 89472, Note_on_c, 0, 74, 55
2, 89476, Note_on_c, 0, 74, 0
2, 89476, Note_on_c, 0, 76, 55
2, 89480, Note_on_c, 0, 76, 0
2, 89480, Note_on_c, 0, 74, 62
2, 89484, Note_on_c, 0, 74, 0
2, 89484, Note_on_c, 0, 76, 59
2, 89488, Note_on_c, 0, 76, 0
2, 89488, Note_on_c, 0, 74, 71
2, 89492, Note_on_c, 0, 74, 0
2, 89492, Note_on_c, 0, 76, 56
2, 89496, Note_on_c, 0, 76, 0
2, 89496, Note_on_c, 0, 74, 64
2, 89500, Note_on_c, 0, 74, 0
2, 89500, Note_on_c, 0, 76, 74
2, 89504, Note_on_c, 0, 76, 0
2, 89504, Note_on_c, 0, 74, 85
2, 89508, Note_on_c, 0, 74, 0
2, 89508, Note_on_c, 0, 76, 66
2, 89512, Note_on_c, 0, 76, 0
2, 89512, Note_on_c, 0, 74, 85
2, 89516, Note_on_c, 0, 74, 0
2, 89516, Note_on_c, 0, 76, 85
2, 89520, Note_on_c, 0, 76, 0
2, 89520, Note_on_c, 0, 74, 85
2, 89524, Note_on_c, 0, 74, 0
2, 89524, Note_on_c, 0, 76, 85
2, 89528, Note_on_c, 0, 76, 0
2, 89528, Note_on_c, 0, 74, 86
2, 89532, Note_on_c, 0, 74, 0
2, 89532, Note_on_c, 0, 76, 85
2, 89536, Note_on_c, 0, 76, 0
2, 89536, Note_on_c, 0, 74, 85
2, 89540, Note_on_c, 0, 74, 0
2, 89540, Note_on_c, 0, 76, 74
2, 89544, Note_on_c, 0, 76, 0
2, 89544, Note_on_c, 0, 74, 85
2, 89548, Note_on_c, 0, 74, 0
2, 89548, Note_on_c, 0, 76, 81
2, 89552, Note_on_c, 0, 76, 0
2, 89552, Note_on_c, 0, 74, 85
2, 89556, Note_on_c, 0, 74, 0
2, 89556, Note_on_c, 0, 76, 85
2, 89560, Note_on_c, 0, 76, 0
2, 89560, Note_on_c, 0, 74, 85
2, 89564, Note_on_c, 0, 74, 0
2, 89564, Note_on_c, 0, 76, 85
2, 89568, Note_on_c, 0, 76, 0
2, 89568, Note_on_c, 0, 74, 79
2, 89579, Note_on_c, 0, 74, 0
2, 89584, Note_on_c, 0, 78, 79
2, 89595, Note_on_c, 0, 78, 0
2, 89600, Note_on_c, 0, 76, 79
2, 89611, Note_on_c, 0, 76, 0
2, 89616, Note_on_c, 0, 74, 79
2, 89627, Note_on_c, 0, 74, 0
2, 89632, Note_on_c, 0, 73, 79
2, 89643, Note_on_c, 0, 73, 0
2, 89648, Note_on_c, 0, 71, 79
2, 89659, Note_on_c, 0, 71, 0
2, 89664, Note_on_c, 0, 69, 85
2, 89668, Note_on_c, 0, 69, 0
2, 89668, Note_on_c, 0, 71, 85
2, 89672, Note_on_c, 0, 71, 0
2, 89672, Note_on_c, 0, 69, 85
2, 89676, Note_on_c, 0, 69, 0
2, 89676, Note_on_c, 0, 71, 85
2, 89680, Note_on_c, 0, 71, 0
2, 89680, Note_on_c, 0, 69, 85
2, 89684, Note_on_c, 0, 69, 0
2, 89684, Note_on_c, 0, 71, 85
2, 89688, Note_on_c, 0, 71, 0
2, 89688, Note_on_c, 0, 69, 85
2, 89692, Note_on_c, 0, 69, 0
2, 89692, Note_on_c, 0, 71, 85
2, 89696, Note_on_c, 0, 71, 0
2, 89696, Note_on_c, 0, 69, 81
2, 89700, Note_on_c, 0, 69, 0
2, 89700, Note_on_c, 0, 71, 81
2, 89704, Note_on_c, 0, 71, 0
2, 89704, Note_on_c, 0, 69, 85
2, 89708, Note_on_c, 0, 69, 0
2, 89708, Note_on_c, 0, 71, 85
2, 89712, Note_on_c, 0, 71, 0
2, 89712, Note_on_c, 0, 69, 85
2, 89716, Note_on_c, 0, 69, 0
2, 89716, Note_on_c, 0, 71, 92
2, 89720, Note_on_c, 0, 71, 0
2, 89720, Note_on_c, 0, 69, 85
2, 89724, Note_on_c, 0, 69, 0
2, 89724, Note_on_c, 0, 71, 97
2, 89728, Note_on_c, 0, 71, 0
2, 89728, Note_on_c, 0, 69, 89
2, 89732, Note_on_c, 0, 69, 0
2, 89732, Note_on_c, 0, 71, 97
2, 89736, Note_on_c, 0, 71, 0
2, 89736, Note_on_c, 0, 69, 91
2, 89740, Note_on_c, 0, 69, 0
2, 89740, Note_on_c, 0, 71, 98
2, 89744, Note_on_c, 0, 71, 0
2, 89744, Note_on_c, 0, 69, 91
2, 89748, Note_on_c, 0, 69, 0
2, 89748, Note_on_c, 0, 71, 96
2, 89752, Note_on_c, 0, 71, 0
2, 89752, Note_on_c, 0, 69, 86
2, 89756, Note_on_c, 0, 69, 0
2, 89756, Note_on_c, 0, 71, 89
2, 89760, Note_on_c, 0, 71, 0
2, 89760, Note_on_c, 0, 69, 79
2, 89771, Note_on_c, 0, 69, 0
2, 89776, Note_on_c, 0, 66, 79
2, 89787, Note_on_c, 0, 66, 0
2, 89792, Note_on_c, 0, 67, 79
2, 89803, Note_on_c, 0, 67, 0
2, 89808, Note_on_c, 0, 69, 79
2, 89819, Note_on_c, 0, 69, 0
2, 89824, Note_on_c, 0, 67, 79
2, 89835, Note_on_c, 0, 67, 0
2, 89840, Note_on_c, 0, 69, 79
2, 89851, Note_on_c, 0, 69, 0
2, 89856, Note_on_c, 0, 71, 72
2, 89872, Note_on_c, 0, 71, 0
2, 89872, Note_on_c, 0, 74, 71
2, 89888, Note_on_c, 0, 74, 0
2, 89888, Note_on_c, 0, 73, 64
2, 89904, Note_on_c, 0, 73, 0
2, 89904, Note_on_c, 0, 71, 81
2, 89920, Note_on_c, 0, 71, 0
2, 89920, Note_on_c, 0, 74, 85
2, 89936, Note_on_c, 0, 74, 0
2, 89936, Note_on_c, 0, 73, 59
2, 89952, Note_on_c, 0, 73, 0
2, 89952, Note_on_c, 0, 71, 78
2, 89968, Note_on_c, 0, 71, 0
2, 89968, Note_on_c, 0, 68, 55
2, 89984, Note_on_c, 0, 68, 0
2, 89984, Note_on_c, 0, 69, 85
2, 90000, Note_on_c, 0, 69, 0
2, 90000, Note_on_c, 0, 71, 85
2, 90016, Note_on_c, 0, 71, 0
2, 90016, Note_on_c, 0, 69, 85
2, 90032, Note_on_c, 0, 69, 0
2, 90032, Note_on_c, 0, 71, 82
2, 90048, Note_on_c, 0, 71, 0
2, 90048, Note_on_c, 0, 73, 76
2, 90064, Note_on_c, 0, 73, 0
2, 90096, Note_on_c, 0, 69, 76
2, 90104, Note_on_c, 0, 79, 76
2, 90112, Note_on_c, 0, 79, 0
2, 90112, Note_on_c, 0, 69, 0
2, 90112, Note_on_c, 0, 78, 76
2, 90120, Note_on_c, 0, 78, 0
2, 90120, Note_on_c, 0, 76, 76
2, 90128, Note_on_c, 0, 76, 0
2, 90128, Note_on_c, 0, 74, 76
2, 90136, Note_on_c, 0, 74, 0
2, 90136, Note_on_c, 0, 73, 76
2, 90144, Note_on_c, 0, 73, 0
2, 90144, Note_on_c, 0, 74, 76
2, 90160, Note_on_c, 0, 74, 0
2, 90184, Note_on_c, 0, 67, 85
2, 90200, Note_on_c, 0, 67, 0
2, 90200, Note_on_c, 0, 78, 76
2, 90208, Note_on_c, 0, 78, 0
2, 90208, Note_on_c, 0, 76, 76
2, 90216, Note_on_c, 0, 76, 0
2, 90216, Note_on_c, 0, 74, 76
2, 90224, Note_on_c, 0, 74, 0
2, 90224, Note_on_c, 0, 73, 76
2, 90232, Note_on_c, 0, 73, 0
2, 90232, Note_on_c, 0, 71, 76
2, 90240, Note_on_c, 0, 71, 0
2, 90240, Note_on_c, 0, 73, 76
2, 90256, Note_on_c, 0, 73, 0
2, 90296, Note_on_c, 0, 76, 85
2, 90304, Note_on_c, 0, 76, 0
2, 90304, Note_on_c, 0, 74, 85
2, 90312, Note_on_c, 0, 74, 0
2, 90312, Note_on_c, 0, 72, 85
2, 90320, Note_on_c, 0, 72, 0
2, 90320, Note_on_c, 0, 71, 85
2, 90328, Note_on_c, 0, 71, 0
2, 90328, Note_on_c, 0, 69, 85
2, 90336, Note_on_c, 0, 69, 0
2, 90336, Note_on_c, 0, 71, 72
2, 90344, Note_on_c, 0, 71, 0
2, 90344, Note_on_c, 0, 72, 82
2, 90352, Note_on_c, 0, 72, 0
2, 90352, Note_on_c, 0, 71, 74
2, 90360, Note_on_c, 0, 71, 0
2, 90360, Note_on_c, 0, 69, 85
2, 90368, Note_on_c, 0, 69, 0
2, 90368, Note_on_c, 0, 67, 85
2, 90376, Note_on_c, 0, 67, 0
2, 90376, Note_on_c, 0, 66, 59
2, 90384, Note_on_c, 0, 66, 0
2, 90384, Note_on_c, 0, 64, 59
2, 90392, Note_on_c, 0, 64, 0
2, 90392, Note_on_c, 0, 66, 59
2, 90400, Note_on_c, 0, 66, 0
2, 90400, Note_on_c, 0, 64, 71
2, 90408, Note_on_c, 0, 64, 0
2, 90408, Note_on_c, 0, 62, 42
2, 90416, Note_on_c, 0, 62, 0
2, 90416, Note_on_c, 0, 61, 54
2, 90424, Note_on_c, 0, 61, 0
2, 90424, Note_on_c, 0, 64, 61
2, 90424, Note_on_c, 0, 67, 79
2, 90424, Note_on_c, 0, 71, 81
2, 90432, Note_on_c, 0, 71, 0
2, 90432, Note_on_c, 0, 67, 0
2, 90432, Note_on_c, 0, 64, 0
2, 90432, Note_on_c, 0, 64, 103
2, 90432, Note_on_c, 0, 69, 107
2, 90432, Note_on_c, 0, 67, 106
2, 90432, Note_on_c, 0, 73, 94
2, 90456, Note_on_c, 0, 73, 0
2, 90456, Note_on_c, 0, 64, 0
2, 90456, Note_on_c, 0, 69, 0
2, 90456, Note_on_c, 0, 67, 0
2, 90480, Note_on_c, 0, 66, 89
2, 90480, Note_on_c, 0, 69, 103
2, 90480, Note_on_c, 0, 74, 103
2, 90504, Note_on_c, 0, 74, 0
2, 90504, Note_on_c, 0, 69, 0
2, 90504, Note_on_c, 0, 66, 0
2, 90528, Note_on_c, 0, 66, 81
2, 90528, Note_on_c, 0, 71, 103
2, 90528, Note_on_c, 0, 74, 103
2, 90564, Note_on_c, 0, 74, 0
2, 90564, Note_on_c, 0, 71, 0
2, 90564, Note_on_c, 0, 66, 0
2, 90564, Note_on_c, 0, 64, 103
2, 90564, Note_on_c, 0, 71, 103
2, 90564, Note_on_c, 0, 74, 103
2, 90576, Note_on_c, 0, 74, 0
2, 90576, Note_on_c, 0, 71, 0
2, 90576, Note_on_c, 0, 64, 0
2, 90576, Note_on_c, 0, 64, 103
2, 90576, Note_on_c, 0, 69, 108
2, 90576, Note_on_c, 0, 73, 96
2, 90612, Note_on_c, 0, 73, 0
2, 90612, Note_on_c, 0, 69, 0
2, 90612, Note_on_c, 0, 64, 0
2, 90612, Note_on_c, 0, 67, 106
2, 90612, Note_on_c, 0, 64, 103
2, 90612, Note_on_c, 0, 73, 89
2, 90624, Note_on_c, 0, 73, 0
2, 90624, Note_on_c, 0, 64, 0
2, 90624, Note_on_c, 0, 67, 0
2, 90624, Note_on_c, 0, 66, 92
2, 90624, Note_on_c, 0, 62, 103
2, 90624, Note_on_c, 0, 69, 106
2, 90624, Note_on_c, 0, 74, 103
2, 90648, Note_on_c, 0, 74, 0
2, 90648, Note_on_c, 0, 66, 0
2, 90648, Note_on_c, 0, 62, 0
2, 90648, Note_on_c, 0, 69, 0
2, 90948, Note_on_c, 0, 67, 103
2, 90956, Note_on_c, 0, 67, 0
2, 90960, Note_on_c, 0, 74, 96
2, 90984, Note_on_c, 0, 74, 0
2, 90996, Note_on_c, 0, 69, 103
2, 91004, Note_on_c, 0, 69, 0
2, 91008, Note_on_c, 0, 71, 103
2, 91010, Note_on_c, 0, 71, 0
2, 91012, Note_on_c, 0, 73, 74
2, 91014, Note_on_c, 0, 73, 0
2, 91016, Note_on_c, 0, 71, 88
2, 91018, Note_on_c, 0, 71, 0
2, 91020, Note_on_c, 0, 73, 88
2, 91022, Note_on_c, 0, 73, 0
2, 91024, Note_on_c, 0, 71, 103
2, 91026, Note_on_c, 0, 71, 0
2, 91028, Note_on_c, 0, 73, 90
2, 91030, Note_on_c, 0, 73, 0
2, 91032, Note_on_c, 0, 71, 103
2, 91034, Note_on_c, 0, 71, 0
2, 91036, Note_on_c, 0, 73, 88
2, 91038, Note_on_c, 0, 73, 0
2, 91040, Note_on_c, 0, 71, 96
2, 91042, Note_on_c, 0, 71, 0
2, 91044, Note_on_c, 0, 73, 86
2, 91046, Note_on_c, 0, 73, 0
2, 91048, Note_on_c, 0, 71, 99
2, 91050, Note_on_c, 0, 71, 0
2, 91052, Note_on_c, 0, 73, 88
2, 91054, Note_on_c, 0, 73, 0
2, 91056, Note_on_c, 0, 71, 103
2, 91058, Note_on_c, 0, 71, 0
2, 91060, Note_on_c, 0, 73, 84
2, 91062, Note_on_c, 0, 73, 0
2, 91064, Note_on_c, 0, 71, 103
2, 91066, Note_on_c, 0, 71, 0
2, 91068, Note_on_c, 0, 73, 88
2, 91070, Note_on_c, 0, 73, 0
2, 91072, Note_on_c, 0, 71, 103
2, 91074, Note_on_c, 0, 71, 0
2, 91076, Note_on_c, 0, 73, 86
2, 91078, Note_on_c, 0, 73, 0
2, 91080, Note_on_c, 0, 71, 103
2, 91082, Note_on_c, 0, 71, 0
2, 91084, Note_on_c, 0, 73, 86
2, 91086, Note_on_c, 0, 73, 0
2, 91088, Note_on_c, 0, 71, 95
2, 91090, Note_on_c, 0, 71, 0
2, 91092, Note_on_c, 0, 73, 88
2, 91094, Note_on_c, 0, 73, 0
2, 91096, Note_on_c, 0, 71, 103
2, 91098, Note_on_c, 0, 71, 0
2, 91100, Note_on_c, 0, 73, 71
2, 91102, Note_on_c, 0, 73, 0
2, 91104, Note_on_c, 0, 71, 98
2, 91112, Note_on_c, 0, 71, 0
2, 91120, Note_on_c, 0, 74, 98
2, 91128, Note_on_c, 0, 74, 0
2, 91136, Note_on_c, 0, 73, 73
2, 91144, Note_on_c, 0, 73, 0
2, 91152, Note_on_c, 0, 71, 96
2, 91160, Note_on_c, 0, 71, 0
2, 91168, Note_on_c, 0, 74, 103
2, 91176, Note_on_c, 0, 74, 0
2, 91184, Note_on_c, 0, 73, 84
2, 91192, Note_on_c, 0, 73, 0
2, 91200, Note_on_c, 0, 71, 103
2, 91202, Note_on_c, 0, 71, 0
2, 91204, Note_on_c, 0, 73, 88
2, 91206, Note_on_c, 0, 73, 0
2, 91208, Note_on_c, 0, 71, 103
2, 91210, Note_on_c, 0, 71, 0
2, 91212, Note_on_c, 0, 73, 90
2, 91214, Note_on_c, 0, 73, 0
2, 91216, Note_on_c, 0, 71, 103
2, 91218, Note_on_c, 0, 71, 0
2, 91220, Note_on_c, 0, 73, 91
2, 91222, Note_on_c, 0, 73, 0
2, 91224, Note_on_c, 0, 71, 103
2, 91226, Note_on_c, 0, 71, 0
2, 91228, Note_on_c, 0, 73, 88
2, 91230, Note_on_c, 0, 73, 0
2, 91232, Note_on_c, 0, 71, 103
2, 91234, Note_on_c, 0, 71, 0
2, 91236, Note_on_c, 0, 73, 91
2, 91238, Note_on_c, 0, 73, 0
2, 91240, Note_on_c, 0, 71, 103
2, 91242, Note_on_c, 0, 71, 0
2, 91244, Note_on_c, 0, 73, 87
2, 91246, Note_on_c, 0, 73, 0
2, 91248, Note_on_c, 0, 71, 103
2, 91250, Note_on_c, 0, 71, 0
2, 91252, Note_on_c, 0, 73, 87
2, 91254, Note_on_c, 0, 73, 0
2, 91256, Note_on_c, 0, 71, 103
2, 91258, Note_on_c, 0, 71, 0
2, 91260, Note_on_c, 0, 73, 92
2, 91262, Note_on_c, 0, 73, 0
2, 91264, Note_on_c, 0, 71, 103
2, 91266, Note_on_c, 0, 71, 0
2, 91268, Note_on_c, 0, 73, 89
2, 91270, Note_on_c, 0, 73, 0
2, 91272, Note_on_c, 0, 71, 103
2, 91274, Note_on_c, 0, 71, 0
2, 91276, Note_on_c, 0, 73, 90
2, 91278, Note_on_c, 0, 73, 0
2, 91280, Note_on_c, 0, 71, 103
2, 91282, Note_on_c, 0, 71, 0
2, 91284, Note_on_c, 0, 73, 91
2, 91286, Note_on_c, 0, 73, 0
2, 91288, Note_on_c, 0, 71, 103
2, 91290, Note_on_c, 0, 71, 0
2, 91292, Note_on_c, 0, 73, 89
2, 91294, Note_on_c, 0, 73, 0
2, 91296, Note_on_c, 0, 71, 98
2, 91312, Note_on_c, 0, 71, 0
2, 91312, Note_on_c, 0, 74, 98
2, 91328, Note_on_c, 0, 74, 0
2, 91328, Note_on_c, 0, 73, 98
2, 91344, Note_on_c, 0, 73, 0
2, 91344, Note_on_c, 0, 71, 98
2, 91360, Note_on_c, 0, 71, 0
2, 91360, Note_on_c, 0, 69, 98
2, 91376, Note_on_c, 0, 69, 0
2, 91376, Note_on_c, 0, 68, 98
2, 91392, Note_on_c, 0, 68, 0
2, 91392, Note_on_c, 0, 73, 62
2, 91408, Note_on_c, 0, 73, 0
2, 91408, Note_on_c, 0, 76, 85
2, 91424, Note_on_c, 0, 76, 0
2, 91424, Note_on_c, 0, 74, 85
2, 91440, Note_on_c, 0, 74, 0
2, 91440, Note_on_c, 0, 73, 57
2, 91456, Note_on_c, 0, 73, 0
2, 91456, Note_on_c, 0, 71, 74
2, 91472, Note_on_c, 0, 71, 0
2, 91472, Note_on_c, 0, 69, 85
2, 91488, Note_on_c, 0, 69, 0
2, 91488, Note_on_c, 0, 74, 74
2, 91504, Note_on_c, 0, 74, 0
2, 91504, Note_on_c, 0, 78, 64
2, 91520, Note_on_c, 0, 78, 0
2, 91520, Note_on_c, 0, 76, 85
2, 91536, Note_on_c, 0, 76, 0
2, 91536, Note_on_c, 0, 74, 85
2, 91552, Note_on_c, 0, 74, 0
2, 91552, Note_on_c, 0, 73, 59
2, 91568, Note_on_c, 0, 73, 0
2, 91568, Note_on_c, 0, 71, 85
2, 91584, Note_on_c, 0, 71, 0
2, 91584, Note_on_c, 0, 76, 72
2, 91600, Note_on_c, 0, 76, 0
2, 91600, Note_on_c, 0, 79, 85
2, 91616, Note_on_c, 0, 79, 0
2, 91616, Note_on_c, 0, 78, 66
2, 91632, Note_on_c, 0, 78, 0
2, 91632, Note_on_c, 0, 76, 70
2, 91648, Note_on_c, 0, 76, 0
2, 91648, Note_on_c, 0, 74, 69
2, 91664, Note_on_c, 0, 74, 0
2, 91664, Note_on_c, 0, 73, 62
2, 91680, Note_on_c, 0, 73, 0
2, 91680, Note_on_c, 0, 78, 98
2, 91707, Note_on_c, 0, 78, 0
2, 91716, Note_on_c, 0, 81, 98
2, 91725, Note_on_c, 0, 81, 0
2, 91728, Note_on_c, 0, 86, 98
2, 91755, Note_on_c, 0, 86, 0
2, 91764, Note_on_c, 0, 81, 98
2, 91773, Note_on_c, 0, 81, 0
2, 91776, Note_on_c, 0, 83, 98
2, 91788, Note_on_c, 0, 83, 0
2, 91792, Note_on_c, 0, 81, 98
2, 91804, Note_on_c, 0, 81, 0
2, 91808, Note_on_c, 0, 79, 98
2, 91820, Note_on_c, 0, 79, 0
2, 91824, Note_on_c, 0, 78, 98
2, 91836, Note_on_c, 0, 78, 0
2, 91840, Note_on_c, 0, 79, 98
2, 91852, Note_on_c, 0, 79, 0
2, 91856, Note_on_c, 0, 81, 98
2, 91868, Note_on_c, 0, 81, 0
2, 91872, Note_on_c, 0, 74, 98
2, 91899, Note_on_c, 0, 74, 0
2, 91908, Note_on_c, 0, 76, 98
2, 91917, Note_on_c, 0, 76, 0
2, 91920, Note_on_c, 0, 73, 98
2, 91947, Note_on_c, 0, 73, 0
2, 91956, Note_on_c, 0, 74, 98
2, 91965, Note_on_c, 0, 74, 0
2, 91968, Note_on_c, 0, 69, 85
2, 91968, Note_on_c, 0, 66, 85
2, 91968, Note_on_c, 0, 62, 85
2, 91968, Note_on_c, 0, 74, 98
2, 92064, Note_on_c, 0, 74, 0
2, 92064, Note_on_c, 0, 69, 0
2, 92064, Note_on_c, 0, 66, 0
2, 92064, Note_on_c, 0, 62, 0
2, 92064, End_track
3, 0, Start_track
3, 0, MIDI_port, 0
3, 0, Title_t, "Cembalo LH"
3, 0, Program_c, 1, 6
3, 0, Control_c, 1, 7, 112
3, 0, Control_c, 1, 10, 88
3, 0, Control_c, 1, 121, 0
3, 0, Control_c, 1, 91, 127
3, 0, Control_c, 1, 93, 0
3, 0, Note_on_c, 1, 57, 79
3, 0, Note_on_c, 1, 50, 79
3, 0, Note_on_c, 1, 54, 79
3, 48, Note_on_c, 1, 54, 0
3, 48, Note_on_c, 1, 50, 0
3, 48, Note_on_c, 1, 57, 0
3, 72, Note_on_c, 1, 50, 79
3, 88, Note_on_c, 1, 50, 0
3, 96, Note_on_c, 1, 57, 79
3, 112, Note_on_c, 1, 57, 0
3, 120, Note_on_c, 1, 59, 79
3, 136, Note_on_c, 1, 59, 0
3, 144, Note_on_c, 1, 61, 79
3, 160, Note_on_c, 1, 61, 0
3, 168, Note_on_c, 1, 57, 79
3, 184, Note_on_c, 1, 57, 0
3, 192, Note_on_c, 1, 54, 79
3, 208, Note_on_c, 1, 54, 0
3, 216, Note_on_c, 1, 52, 79
3, 232, Note_on_c, 1, 52, 0
3, 240, Note_on_c, 1, 54, 79
3, 256, Note_on_c, 1, 54, 0
3, 264, Note_on_c, 1, 50, 79
3, 280, Note_on_c, 1, 50, 0
3, 288, Note_on_c, 1, 57, 79
3, 304, Note_on_c, 1, 57, 0
3, 312, Note_on_c, 1, 59, 79
3, 328, Note_on_c, 1, 59, 0
3, 336, Note_on_c, 1, 61, 79
3, 352, Note_on_c, 1, 61, 0
3, 360, Note_on_c, 1, 57, 79
3, 376, Note_on_c, 1, 57, 0
3, 384, Note_on_c, 1, 62, 79
3, 400, Note_on_c, 1, 62, 0
3, 408, Note_on_c, 1, 61, 79
3, 424, Note_on_c, 1, 61, 0
3, 432, Note_on_c, 1, 59, 79
3, 448, Note_on_c, 1, 59, 0
3, 456, Note_on_c, 1, 57, 79
3, 472, Note_on_c, 1, 57, 0
3, 480, Note_on_c, 1, 55, 79
3, 496, Note_on_c, 1, 55, 0
3, 504, Note_on_c, 1, 54, 79
3, 520, Note_on_c, 1, 54, 0
3, 528, Note_on_c, 1, 52, 79
3, 544, Note_on_c, 1, 52, 0
3, 552, Note_on_c, 1, 50, 79
3, 568, Note_on_c, 1, 50, 0
3, 576, Note_on_c, 1, 49, 79
3, 592, Note_on_c, 1, 49, 0
3, 600, Note_on_c, 1, 50, 79
3, 616, Note_on_c, 1, 50, 0
3, 624, Note_on_c, 1, 43, 79
3, 640, Note_on_c, 1, 43, 0
3, 648, Note_on_c, 1, 42, 79
3, 664, Note_on_c, 1, 42, 0
3, 672, Note_on_c, 1, 40, 79
3, 688, Note_on_c, 1, 40, 0
3, 696, Note_on_c, 1, 38, 79
3, 712, Note_on_c, 1, 38, 0
3, 720, Note_on_c, 1, 37, 79
3, 736, Note_on_c, 1, 37, 0
3, 744, Note_on_c, 1, 49, 79
3, 760, Note_on_c, 1, 49, 0
3, 768, Note_on_c, 1, 50, 79
3, 784, Note_on_c, 1, 50, 0
3, 792, Note_on_c, 1, 47, 79
3, 808, Note_on_c, 1, 47, 0
3, 816, Note_on_c, 1, 43, 79
3, 832, Note_on_c, 1, 43, 0
3, 840, Note_on_c, 1, 45, 79
3, 856, Note_on_c, 1, 45, 0
3, 864, Note_on_c, 1, 47, 79
3, 872, Note_on_c, 1, 47, 0
3, 876, Note_on_c, 1, 49, 79
3, 884, Note_on_c, 1, 49, 0
3, 888, Note_on_c, 1, 50, 79
3, 896, Note_on_c, 1, 50, 0
3, 900, Note_on_c, 1, 52, 79
3, 908, Note_on_c, 1, 52, 0
3, 912, Note_on_c, 1, 54, 79
3, 920, Note_on_c, 1, 54, 0
3, 924, Note_on_c, 1, 55, 79
3, 932, Note_on_c, 1, 55, 0
3, 936, Note_on_c, 1, 57, 79
3, 944, Note_on_c, 1, 57, 0
3, 948, Note_on_c, 1, 54, 79
3, 956, Note_on_c, 1, 54, 0
3, 960, Note_on_c, 1, 59, 79
3, 976, Note_on_c, 1, 59, 0
3, 984, Note_on_c, 1, 57, 79
3, 1000, Note_on_c, 1, 57, 0
3, 1008, Note_on_c, 1, 55, 79
3, 1024, Note_on_c, 1, 55, 0
3, 1032, Note_on_c, 1, 54, 79
3, 1048, Note_on_c, 1, 54, 0
3, 1056, Note_on_c, 1, 52, 79
3, 1072, Note_on_c, 1, 52, 0
3, 1080, Note_on_c, 1, 50, 79
3, 1096, Note_on_c, 1, 50, 0
3, 1104, Note_on_c, 1, 49, 79
3, 1120, Note_on_c, 1, 49, 0
3, 1128, Note_on_c, 1, 45, 79
3, 1144, Note_on_c, 1, 45, 0
3, 1152, Note_on_c, 1, 50, 79
3, 1168, Note_on_c, 1, 50, 0
3, 1176, Note_on_c, 1, 54, 79
3, 1192, Note_on_c, 1, 54, 0
3, 1200, Note_on_c, 1, 55, 79
3, 1216, Note_on_c, 1, 55, 0
3, 1224, Note_on_c, 1, 57, 79
3, 1232, Note_on_c, 1, 57, 0
3, 1236, Note_on_c, 1, 55, 79
3, 1244, Note_on_c, 1, 55, 0
3, 1248, Note_on_c, 1, 54, 79
3, 1264, Note_on_c, 1, 54, 0
3, 1272, Note_on_c, 1, 55, 79
3, 1288, Note_on_c, 1, 55, 0
3, 1320, Note_on_c, 1, 49, 79
3, 1328, Note_on_c, 1, 49, 0
3, 1332, Note_on_c, 1, 49, 79
3, 1340, Note_on_c, 1, 49, 0
3, 1344, Note_on_c, 1, 50, 79
3, 1352, Note_on_c, 1, 50, 0
3, 1356, Note_on_c, 1, 50, 79
3, 1364, Note_on_c, 1, 50, 0
3, 1368, Note_on_c, 1, 49, 79
3, 1376, Note_on_c, 1, 49, 0
3, 1380, Note_on_c, 1, 49, 79
3, 1388, Note_on_c, 1, 49, 0
3, 1392, Note_on_c, 1, 50, 79
3, 1400, Note_on_c, 1, 50, 0
3, 1404, Note_on_c, 1, 50, 79
3, 1412, Note_on_c, 1, 50, 0
3, 1416, Note_on_c, 1, 42, 79
3, 1424, Note_on_c, 1, 42, 0
3, 1428, Note_on_c, 1, 42, 79
3, 1436, Note_on_c, 1, 42, 0
3, 1440, Note_on_c, 1, 43, 79
3, 1456, Note_on_c, 1, 43, 0
3, 1464, Note_on_c, 1, 55, 79
3, 1480, Note_on_c, 1, 55, 0
3, 1488, Note_on_c, 1, 57, 79
3, 1504, Note_on_c, 1, 57, 0
3, 1512, Note_on_c, 1, 45, 79
3, 1528, Note_on_c, 1, 45, 0
3, 1536, Note_on_c, 1, 54, 79
3, 1568, Note_on_c, 1, 54, 0
3, 1740, Note_on_c, 1, 57, 79
3, 1748, Note_on_c, 1, 57, 0
3, 1752, Note_on_c, 1, 55, 79
3, 1760, Note_on_c, 1, 55, 0
3, 1764, Note_on_c, 1, 57, 79
3, 1772, Note_on_c, 1, 57, 0
3, 1776, Note_on_c, 1, 54, 79
3, 1784, Note_on_c, 1, 54, 0
3, 1788, Note_on_c, 1, 57, 79
3, 1796, Note_on_c, 1, 57, 0
3, 1800, Note_on_c, 1, 52, 79
3, 1808, Note_on_c, 1, 52, 0
3, 1812, Note_on_c, 1, 57, 79
3, 1820, Note_on_c, 1, 57, 0
3, 1824, Note_on_c, 1, 50, 79
3, 1840, Note_on_c, 1, 50, 0
3, 1848, Note_on_c, 1, 62, 79
3, 1856, Note_on_c, 1, 62, 0
3, 1860, Note_on_c, 1, 61, 79
3, 1868, Note_on_c, 1, 61, 0
3, 1872, Note_on_c, 1, 62, 79
3, 1888, Note_on_c, 1, 62, 0
3, 1896, Note_on_c, 1, 50, 79
3, 1912, Note_on_c, 1, 50, 0
3, 1920, Note_on_c, 1, 57, 79
3, 1936, Note_on_c, 1, 57, 0
3, 1944, Note_on_c, 1, 45, 79
3, 1960, Note_on_c, 1, 45, 0
3, 1968, Note_on_c, 1, 47, 79
3, 1984, Note_on_c, 1, 47, 0
3, 1992, Note_on_c, 1, 49, 79
3, 2008, Note_on_c, 1, 49, 0
3, 2016, Note_on_c, 1, 50, 79
3, 2048, Note_on_c, 1, 50, 0
3, 2220, Note_on_c, 1, 45, 79
3, 2228, Note_on_c, 1, 45, 0
3, 2232, Note_on_c, 1, 43, 79
3, 2240, Note_on_c, 1, 43, 0
3, 2244, Note_on_c, 1, 45, 79
3, 2252, Note_on_c, 1, 45, 0
3, 2256, Note_on_c, 1, 42, 79
3, 2264, Note_on_c, 1, 42, 0
3, 2268, Note_on_c, 1, 45, 79
3, 2276, Note_on_c, 1, 45, 0
3, 2280, Note_on_c, 1, 40, 79
3, 2288, Note_on_c, 1, 40, 0
3, 2292, Note_on_c, 1, 45, 79
3, 2300, Note_on_c, 1, 45, 0
3, 2304, Note_on_c, 1, 38, 79
3, 2320, Note_on_c, 1, 38, 0
3, 2328, Note_on_c, 1, 50, 79
3, 2336, Note_on_c, 1, 50, 0
3, 2340, Note_on_c, 1, 49, 79
3, 2348, Note_on_c, 1, 49, 0
3, 2352, Note_on_c, 1, 50, 79
3, 2368, Note_on_c, 1, 50, 0
3, 2376, Note_on_c, 1, 38, 79
3, 2392, Note_on_c, 1, 38, 0
3, 2400, Note_on_c, 1, 45, 79
3, 2416, Note_on_c, 1, 45, 0
3, 2424, Note_on_c, 1, 57, 79
3, 2440, Note_on_c, 1, 57, 0
3, 2448, Note_on_c, 1, 59, 79
3, 2464, Note_on_c, 1, 59, 0
3, 2472, Note_on_c, 1, 61, 79
3, 2488, Note_on_c, 1, 61, 0
3, 2496, Note_on_c, 1, 50, 79
3, 2504, Note_on_c, 1, 50, 0
3, 2508, Note_on_c, 1, 62, 79
3, 2516, Note_on_c, 1, 62, 0
3, 2520, Note_on_c, 1, 61, 79
3, 2528, Note_on_c, 1, 61, 0
3, 2532, Note_on_c, 1, 62, 79
3, 2540, Note_on_c, 1, 62, 0
3, 2544, Note_on_c, 1, 59, 79
3, 2552, Note_on_c, 1, 59, 0
3, 2556, Note_on_c, 1, 62, 79
3, 2564, Note_on_c, 1, 62, 0
3, 2568, Note_on_c, 1, 57, 79
3, 2576, Note_on_c, 1, 57, 0
3, 2580, Note_on_c, 1, 62, 79
3, 2588, Note_on_c, 1, 62, 0
3, 2592, Note_on_c, 1, 56, 79
3, 2600, Note_on_c, 1, 56, 0
3, 2604, Note_on_c, 1, 62, 79
3, 2612, Note_on_c, 1, 62, 0
3, 2616, Note_on_c, 1, 54, 79
3, 2624, Note_on_c, 1, 54, 0
3, 2628, Note_on_c, 1, 62, 79
3, 2636, Note_on_c, 1, 62, 0
3, 2640, Note_on_c, 1, 52, 79
3, 2648, Note_on_c, 1, 52, 0
3, 2652, Note_on_c, 1, 62, 79
3, 2660, Note_on_c, 1, 62, 0
3, 2664, Note_on_c, 1, 50, 79
3, 2672, Note_on_c, 1, 50, 0
3, 2676, Note_on_c, 1, 62, 79
3, 2684, Note_on_c, 1, 62, 0
3, 2688, Note_on_c, 1, 49, 79
3, 2696, Note_on_c, 1, 49, 0
3, 2700, Note_on_c, 1, 61, 79
3, 2708, Note_on_c, 1, 61, 0
3, 2712, Note_on_c, 1, 59, 79
3, 2720, Note_on_c, 1, 59, 0
3, 2724, Note_on_c, 1, 61, 79
3, 2732, Note_on_c, 1, 61, 0
3, 2736, Note_on_c, 1, 57, 79
3, 2744, Note_on_c, 1, 57, 0
3, 2748, Note_on_c, 1, 61, 79
3, 2756, Note_on_c, 1, 61, 0
3, 2760, Note_on_c, 1, 56, 79
3, 2768, Note_on_c, 1, 56, 0
3, 2772, Note_on_c, 1, 61, 79
3, 2780, Note_on_c, 1, 61, 0
3, 2784, Note_on_c, 1, 54, 79
3, 2792, Note_on_c, 1, 54, 0
3, 2796, Note_on_c, 1, 61, 79
3, 2804, Note_on_c, 1, 61, 0
3, 2808, Note_on_c, 1, 52, 79
3, 2816, Note_on_c, 1, 52, 0
3, 2820, Note_on_c, 1, 61, 79
3, 2828, Note_on_c, 1, 61, 0
3, 2832, Note_on_c, 1, 50, 79
3, 2840, Note_on_c, 1, 50, 0
3, 2844, Note_on_c, 1, 61, 79
3, 2852, Note_on_c, 1, 61, 0
3, 2856, Note_on_c, 1, 49, 79
3, 2864, Note_on_c, 1, 49, 0
3, 2868, Note_on_c, 1, 61, 79
3, 2876, Note_on_c, 1, 61, 0
3, 2880, Note_on_c, 1, 47, 79
3, 2888, Note_on_c, 1, 47, 0
3, 2892, Note_on_c, 1, 59, 79
3, 2900, Note_on_c, 1, 59, 0
3, 2904, Note_on_c, 1, 57, 79
3, 2912, Note_on_c, 1, 57, 0
3, 2916, Note_on_c, 1, 59, 79
3, 2924, Note_on_c, 1, 59, 0
3, 2928, Note_on_c, 1, 56, 79
3, 2936, Note_on_c, 1, 56, 0
3, 2940, Note_on_c, 1, 59, 79
3, 2948, Note_on_c, 1, 59, 0
3, 2952, Note_on_c, 1, 54, 79
3, 2960, Note_on_c, 1, 54, 0
3, 2964, Note_on_c, 1, 59, 79
3, 2972, Note_on_c, 1, 59, 0
3, 2976, Note_on_c, 1, 52, 79
3, 2984, Note_on_c, 1, 52, 0
3, 2988, Note_on_c, 1, 59, 79
3, 2996, Note_on_c, 1, 59, 0
3, 3000, Note_on_c, 1, 50, 79
3, 3008, Note_on_c, 1, 50, 0
3, 3012, Note_on_c, 1, 59, 79
3, 3020, Note_on_c, 1, 59, 0
3, 3024, Note_on_c, 1, 49, 79
3, 3032, Note_on_c, 1, 49, 0
3, 3036, Note_on_c, 1, 59, 79
3, 3044, Note_on_c, 1, 59, 0
3, 3048, Note_on_c, 1, 47, 79
3, 3056, Note_on_c, 1, 47, 0
3, 3060, Note_on_c, 1, 59, 79
3, 3068, Note_on_c, 1, 59, 0
3, 3072, Note_on_c, 1, 45, 79
3, 3080, Note_on_c, 1, 45, 0
3, 3084, Note_on_c, 1, 57, 79
3, 3092, Note_on_c, 1, 57, 0
3, 3096, Note_on_c, 1, 47, 79
3, 3104, Note_on_c, 1, 47, 0
3, 3108, Note_on_c, 1, 57, 79
3, 3116, Note_on_c, 1, 57, 0
3, 3120, Note_on_c, 1, 49, 79
3, 3128, Note_on_c, 1, 49, 0
3, 3132, Note_on_c, 1, 57, 79
3, 3140, Note_on_c, 1, 57, 0
3, 3144, Note_on_c, 1, 45, 79
3, 3152, Note_on_c, 1, 45, 0
3, 3156, Note_on_c, 1, 57, 79
3, 3164, Note_on_c, 1, 57, 0
3, 3168, Note_on_c, 1, 50, 79
3, 3176, Note_on_c, 1, 50, 0
3, 3180, Note_on_c, 1, 57, 79
3, 3188, Note_on_c, 1, 57, 0
3, 3192, Note_on_c, 1, 52, 79
3, 3200, Note_on_c, 1, 52, 0
3, 3204, Note_on_c, 1, 57, 79
3, 3212, Note_on_c, 1, 57, 0
3, 3216, Note_on_c, 1, 54, 79
3, 3224, Note_on_c, 1, 54, 0
3, 3228, Note_on_c, 1, 57, 79
3, 3236, Note_on_c, 1, 57, 0
3, 3240, Note_on_c, 1, 50, 79
3, 3248, Note_on_c, 1, 50, 0
3, 3252, Note_on_c, 1, 57, 79
3, 3260, Note_on_c, 1, 57, 0
3, 3264, Note_on_c, 1, 52, 79
3, 3280, Note_on_c, 1, 52, 0
3, 3288, Note_on_c, 1, 40, 79
3, 3304, Note_on_c, 1, 40, 0
3, 3324, Note_on_c, 1, 54, 79
3, 3332, Note_on_c, 1, 54, 0
3, 3336, Note_on_c, 1, 52, 79
3, 3344, Note_on_c, 1, 52, 0
3, 3348, Note_on_c, 1, 50, 79
3, 3356, Note_on_c, 1, 50, 0
3, 3360, Note_on_c, 1, 49, 79
3, 3376, Note_on_c, 1, 49, 0
3, 3384, Note_on_c, 1, 50, 79
3, 3400, Note_on_c, 1, 50, 0
3, 3408, Note_on_c, 1, 52, 79
3, 3424, Note_on_c, 1, 52, 0
3, 3432, Note_on_c, 1, 40, 79
3, 3448, Note_on_c, 1, 40, 0
3, 3456, Note_on_c, 1, 45, 63
3, 3488, Note_on_c, 1, 45, 0
3, 3528, Note_on_c, 1, 45, 63
3, 3552, Note_on_c, 1, 45, 0
3, 3552, Note_on_c, 1, 52, 63
3, 3576, Note_on_c, 1, 52, 0
3, 3576, Note_on_c, 1, 54, 63
3, 3600, Note_on_c, 1, 54, 0
3, 3600, Note_on_c, 1, 56, 63
3, 3624, Note_on_c, 1, 56, 0
3, 3624, Note_on_c, 1, 52, 63
3, 3648, Note_on_c, 1, 52, 0
3, 3648, Note_on_c, 1, 49, 63
3, 3672, Note_on_c, 1, 49, 0
3, 3672, Note_on_c, 1, 47, 63
3, 3696, Note_on_c, 1, 47, 0
3, 3696, Note_on_c, 1, 49, 63
3, 3720, Note_on_c, 1, 49, 0
3, 3720, Note_on_c, 1, 45, 63
3, 3744, Note_on_c, 1, 45, 0
3, 3744, Note_on_c, 1, 52, 63
3, 3756, Note_on_c, 1, 52, 0
3, 3756, Note_on_c, 1, 64, 63
3, 3768, Note_on_c, 1, 64, 0
3, 3768, Note_on_c, 1, 62, 63
3, 3780, Note_on_c, 1, 62, 0
3, 3780, Note_on_c, 1, 64, 63
3, 3792, Note_on_c, 1, 64, 0
3, 3792, Note_on_c, 1, 61, 95
3, 3804, Note_on_c, 1, 61, 0
3, 3804, Note_on_c, 1, 64, 95
3, 3816, Note_on_c, 1, 64, 0
3, 3816, Note_on_c, 1, 59, 95
3, 3828, Note_on_c, 1, 59, 0
3, 3828, Note_on_c, 1, 64, 95
3, 3840, Note_on_c, 1, 64, 0
3, 3840, Note_on_c, 1, 57, 95
3, 3888, Note_on_c, 1, 57, 0
3, 3912, Note_on_c, 1, 45, 95
3, 3936, Note_on_c, 1, 45, 0
3, 3936, Note_on_c, 1, 50, 95
3, 3948, Note_on_c, 1, 50, 0
3, 3948, Note_on_c, 1, 57, 95
3, 3960, Note_on_c, 1, 57, 0
3, 3960, Note_on_c, 1, 55, 95
3, 3972, Note_on_c, 1, 55, 0
3, 3972, Note_on_c, 1, 57, 95
3, 3984, Note_on_c, 1, 57, 0
3, 3984, Note_on_c, 1, 54, 95
3, 3996, Note_on_c, 1, 54, 0
3, 3996, Note_on_c, 1, 57, 95
3, 4008, Note_on_c, 1, 57, 0
3, 4008, Note_on_c, 1, 50, 95
3, 4020, Note_on_c, 1, 50, 0
3, 4020, Note_on_c, 1, 54, 95
3, 4032, Note_on_c, 1, 54, 0
3, 4032, Note_on_c, 1, 47, 95
3, 4080, Note_on_c, 1, 47, 0
3, 4152, Note_on_c, 1, 52, 95
3, 4176, Note_on_c, 1, 52, 0
3, 4176, Note_on_c, 1, 57, 95
3, 4200, Note_on_c, 1, 57, 0
3, 4200, Note_on_c, 1, 49, 95
3, 4224, Note_on_c, 1, 49, 0
3, 4224, Note_on_c, 1, 54, 95
3, 4272, Note_on_c, 1, 54, 0
3, 4296, Note_on_c, 1, 42, 95
3, 4320, Note_on_c, 1, 42, 0
3, 4320, Note_on_c, 1, 47, 95
3, 4332, Note_on_c, 1, 47, 0
3, 4332, Note_on_c, 1, 54, 95
3, 4344, Note_on_c, 1, 54, 0
3, 4344, Note_on_c, 1, 52, 95
3, 4356, Note_on_c, 1, 52, 0
3, 4356, Note_on_c, 1, 54, 95
3, 4368, Note_on_c, 1, 54, 0
3, 4368, Note_on_c, 1, 50, 95
3, 4380, Note_on_c, 1, 50, 0
3, 4380, Note_on_c, 1, 54, 95
3, 4392, Note_on_c, 1, 54, 0
3, 4392, Note_on_c, 1, 47, 95
3, 4404, Note_on_c, 1, 47, 0
3, 4404, Note_on_c, 1, 50, 95
3, 4416, Note_on_c, 1, 50, 0
3, 4416, Note_on_c, 1, 44, 95
3, 4464, Note_on_c, 1, 44, 0
3, 4536, Note_on_c, 1, 49, 95
3, 4560, Note_on_c, 1, 49, 0
3, 4560, Note_on_c, 1, 54, 95
3, 4584, Note_on_c, 1, 54, 0
3, 4584, Note_on_c, 1, 45, 95
3, 4608, Note_on_c, 1, 45, 0
3, 4608, Note_on_c, 1, 50, 95
3, 4656, Note_on_c, 1, 50, 0
3, 4680, Note_on_c, 1, 50, 95
3, 4704, Note_on_c, 1, 50, 0
3, 4704, Note_on_c, 1, 55, 95
3, 4716, Note_on_c, 1, 55, 0
3, 4716, Note_on_c, 1, 62, 95
3, 4728, Note_on_c, 1, 62, 0
3, 4728, Note_on_c, 1, 60, 95
3, 4740, Note_on_c, 1, 60, 0
3, 4740, Note_on_c, 1, 62, 95
3, 4752, Note_on_c, 1, 62, 0
3, 4752, Note_on_c, 1, 59, 95
3, 4764, Note_on_c, 1, 59, 0
3, 4764, Note_on_c, 1, 62, 95
3, 4776, Note_on_c, 1, 62, 0
3, 4776, Note_on_c, 1, 55, 95
3, 4788, Note_on_c, 1, 55, 0
3, 4788, Note_on_c, 1, 59, 95
3, 4800, Note_on_c, 1, 59, 0
3, 4800, Note_on_c, 1, 52, 95
3, 4848, Note_on_c, 1, 52, 0
3, 4920, Note_on_c, 1, 52, 95
3, 4944, Note_on_c, 1, 52, 0
3, 4944, Note_on_c, 1, 57, 95
3, 4968, Note_on_c, 1, 57, 0
3, 4968, Note_on_c, 1, 45, 95
3, 4992, Note_on_c, 1, 45, 0
3, 4992, Note_on_c, 1, 38, 95
3, 5004, Note_on_c, 1, 38, 0
3, 5004, Note_on_c, 1, 50, 95
3, 5016, Note_on_c, 1, 50, 0
3, 5016, Note_on_c, 1, 48, 95
3, 5028, Note_on_c, 1, 48, 0
3, 5028, Note_on_c, 1, 50, 95
3, 5040, Note_on_c, 1, 50, 0
3, 5040, Note_on_c, 1, 47, 95
3, 5052, Note_on_c, 1, 47, 0
3, 5052, Note_on_c, 1, 50, 95
3, 5064, Note_on_c, 1, 50, 0
3, 5064, Note_on_c, 1, 45, 95
3, 5076, Note_on_c, 1, 45, 0
3, 5076, Note_on_c, 1, 50, 95
3, 5088, Note_on_c, 1, 50, 0
3, 5088, Note_on_c, 1, 43, 95
3, 5100, Note_on_c, 1, 43, 0
3, 5100, Note_on_c, 1, 50, 95
3, 5112, Note_on_c, 1, 50, 0
3, 5112, Note_on_c, 1, 42, 95
3, 5124, Note_on_c, 1, 42, 0
3, 5124, Note_on_c, 1, 50, 95
3, 5136, Note_on_c, 1, 50, 0
3, 5136, Note_on_c, 1, 40, 95
3, 5148, Note_on_c, 1, 40, 0
3, 5148, Note_on_c, 1, 50, 95
3, 5160, Note_on_c, 1, 50, 0
3, 5160, Note_on_c, 1, 38, 95
3, 5172, Note_on_c, 1, 38, 0
3, 5172, Note_on_c, 1, 50, 95
3, 5184, Note_on_c, 1, 50, 0
3, 5184, Note_on_c, 1, 47, 95
3, 5232, Note_on_c, 1, 47, 0
3, 5304, Note_on_c, 1, 47, 95
3, 5328, Note_on_c, 1, 47, 0
3, 5328, Note_on_c, 1, 52, 95
3, 5352, Note_on_c, 1, 52, 0
3, 5352, Note_on_c, 1, 40, 95
3, 5376, Note_on_c, 1, 40, 0
3, 5376, Note_on_c, 1, 57, 47
3, 5400, Note_on_c, 1, 57, 0
3, 5400, Note_on_c, 1, 56, 47
3, 5424, Note_on_c, 1, 56, 0
3, 5424, Note_on_c, 1, 54, 47
3, 5448, Note_on_c, 1, 54, 0
3, 5448, Note_on_c, 1, 52, 47
3, 5472, Note_on_c, 1, 52, 0
3, 5472, Note_on_c, 1, 50, 47
3, 5496, Note_on_c, 1, 50, 0
3, 5496, Note_on_c, 1, 49, 47
3, 5520, Note_on_c, 1, 49, 0
3, 5520, Note_on_c, 1, 47, 47
3, 5544, Note_on_c, 1, 47, 0
3, 5544, Note_on_c, 1, 45, 47
3, 5568, Note_on_c, 1, 45, 0
3, 5568, Note_on_c, 1, 44, 47
3, 5592, Note_on_c, 1, 44, 0
3, 5592, Note_on_c, 1, 45, 47
3, 5616, Note_on_c, 1, 45, 0
3, 5616, Note_on_c, 1, 50, 47
3, 5640, Note_on_c, 1, 50, 0
3, 5640, Note_on_c, 1, 49, 47
3, 5664, Note_on_c, 1, 49, 0
3, 5664, Note_on_c, 1, 47, 47
3, 5688, Note_on_c, 1, 47, 0
3, 5688, Note_on_c, 1, 45, 47
3, 5712, Note_on_c, 1, 45, 0
3, 5712, Note_on_c, 1, 44, 47
3, 5736, Note_on_c, 1, 44, 0
3, 5736, Note_on_c, 1, 56, 47
3, 5760, Note_on_c, 1, 56, 0
3, 5760, Note_on_c, 1, 57, 47
3, 5784, Note_on_c, 1, 57, 0
3, 5784, Note_on_c, 1, 54, 47
3, 5808, Note_on_c, 1, 54, 0
3, 5808, Note_on_c, 1, 50, 47
3, 5832, Note_on_c, 1, 50, 0
3, 5832, Note_on_c, 1, 52, 47
3, 5856, Note_on_c, 1, 52, 0
3, 5856, Note_on_c, 1, 57, 47
3, 5880, Note_on_c, 1, 57, 0
3, 5880, Note_on_c, 1, 52, 47
3, 5904, Note_on_c, 1, 52, 0
3, 5904, Note_on_c, 1, 45, 47
3, 5928, Note_on_c, 1, 45, 0
3, 5928, Note_on_c, 1, 49, 47
3, 5952, Note_on_c, 1, 49, 0
3, 5952, Note_on_c, 1, 50, 47
3, 5976, Note_on_c, 1, 50, 0
3, 5976, Note_on_c, 1, 57, 47
3, 6000, Note_on_c, 1, 57, 0
3, 6000, Note_on_c, 1, 62, 47
3, 6024, Note_on_c, 1, 62, 0
3, 6024, Note_on_c, 1, 54, 47
3, 6048, Note_on_c, 1, 54, 0
3, 6048, Note_on_c, 1, 55, 47
3, 6072, Note_on_c, 1, 55, 0
3, 6072, Note_on_c, 1, 50, 47
3, 6096, Note_on_c, 1, 50, 0
3, 6096, Note_on_c, 1, 43, 47
3, 6120, Note_on_c, 1, 43, 0
3, 6120, Note_on_c, 1, 47, 47
3, 6144, Note_on_c, 1, 47, 0
3, 6144, Note_on_c, 1, 49, 47
3, 6168, Note_on_c, 1, 49, 0
3, 6168, Note_on_c, 1, 47, 47
3, 6192, Note_on_c, 1, 47, 0
3, 6192, Note_on_c, 1, 49, 47
3, 6216, Note_on_c, 1, 49, 0
3, 6216, Note_on_c, 1, 52, 47
3, 6240, Note_on_c, 1, 52, 0
3, 6240, Note_on_c, 1, 54, 47
3, 6264, Note_on_c, 1, 54, 0
3, 6264, Note_on_c, 1, 49, 47
3, 6288, Note_on_c, 1, 49, 0
3, 6288, Note_on_c, 1, 42, 47
3, 6312, Note_on_c, 1, 42, 0
3, 6312, Note_on_c, 1, 46, 47
3, 6336, Note_on_c, 1, 46, 0
3, 6336, Note_on_c, 1, 47, 47
3, 6360, Note_on_c, 1, 47, 0
3, 6360, Note_on_c, 1, 54, 47
3, 6384, Note_on_c, 1, 54, 0
3, 6384, Note_on_c, 1, 59, 47
3, 6408, Note_on_c, 1, 59, 0
3, 6408, Note_on_c, 1, 50, 47
3, 6432, Note_on_c, 1, 50, 0
3, 6432, Note_on_c, 1, 52, 47
3, 6456, Note_on_c, 1, 52, 0
3, 6456, Note_on_c, 1, 54, 47
3, 6480, Note_on_c, 1, 54, 0
3, 6480, Note_on_c, 1, 55, 47
3, 6504, Note_on_c, 1, 55, 0
3, 6504, Note_on_c, 1, 52, 47
3, 6528, Note_on_c, 1, 52, 0
3, 6528, Note_on_c, 1, 54, 47
3, 6552, Note_on_c, 1, 54, 0
3, 6552, Note_on_c, 1, 49, 47
3, 6576, Note_on_c, 1, 49, 0
3, 6576, Note_on_c, 1, 46, 47
3, 6600, Note_on_c, 1, 46, 0
3, 6600, Note_on_c, 1, 42, 47
3, 6624, Note_on_c, 1, 42, 0
3, 6624, Note_on_c, 1, 47, 47
3, 6636, Note_on_c, 1, 47, 0
3, 6636, Note_on_c, 1, 47, 47
3, 6648, Note_on_c, 1, 47, 0
3, 6648, Note_on_c, 1, 50, 47
3, 6660, Note_on_c, 1, 50, 0
3, 6660, Note_on_c, 1, 50, 47
3, 6672, Note_on_c, 1, 50, 0
3, 6672, Note_on_c, 1, 54, 47
3, 6684, Note_on_c, 1, 54, 0
3, 6684, Note_on_c, 1, 54, 47
3, 6696, Note_on_c, 1, 54, 0
3, 6696, Note_on_c, 1, 59, 47
3, 6708, Note_on_c, 1, 59, 0
3, 6708, Note_on_c, 1, 59, 47
3, 6720, Note_on_c, 1, 59, 0
3, 6720, Note_on_c, 1, 52, 47
3, 6744, Note_on_c, 1, 52, 0
3, 6744, Note_on_c, 1, 47, 47
3, 6768, Note_on_c, 1, 47, 0
3, 6768, Note_on_c, 1, 43, 47
3, 6792, Note_on_c, 1, 43, 0
3, 6792, Note_on_c, 1, 40, 47
3, 6816, Note_on_c, 1, 40, 0
3, 6816, Note_on_c, 1, 42, 47
3, 6828, Note_on_c, 1, 42, 0
3, 6828, Note_on_c, 1, 42, 47
3, 6840, Note_on_c, 1, 42, 0
3, 6840, Note_on_c, 1, 46, 47
3, 6852, Note_on_c, 1, 46, 0
3, 6852, Note_on_c, 1, 46, 47
3, 6864, Note_on_c, 1, 46, 0
3, 6864, Note_on_c, 1, 49, 47
3, 6876, Note_on_c, 1, 49, 0
3, 6876, Note_on_c, 1, 49, 47
3, 6888, Note_on_c, 1, 49, 0
3, 6888, Note_on_c, 1, 54, 47
3, 6900, Note_on_c, 1, 54, 0
3, 6900, Note_on_c, 1, 54, 47
3, 6912, Note_on_c, 1, 54, 0
3, 6912, Note_on_c, 1, 47, 47
3, 6924, Note_on_c, 1, 47, 0
3, 6924, Note_on_c, 1, 47, 47
3, 6936, Note_on_c, 1, 47, 0
3, 6936, Note_on_c, 1, 50, 47
3, 6948, Note_on_c, 1, 50, 0
3, 6948, Note_on_c, 1, 50, 47
3, 6960, Note_on_c, 1, 50, 0
3, 6960, Note_on_c, 1, 54, 47
3, 6972, Note_on_c, 1, 54, 0
3, 6972, Note_on_c, 1, 54, 47
3, 6984, Note_on_c, 1, 54, 0
3, 6984, Note_on_c, 1, 59, 47
3, 6996, Note_on_c, 1, 59, 0
3, 6996, Note_on_c, 1, 59, 47
3, 7008, Note_on_c, 1, 59, 0
3, 7008, Note_on_c, 1, 52, 47
3, 7020, Note_on_c, 1, 52, 0
3, 7020, Note_on_c, 1, 52, 47
3, 7032, Note_on_c, 1, 52, 0
3, 7032, Note_on_c, 1, 55, 47
3, 7044, Note_on_c, 1, 55, 0
3, 7044, Note_on_c, 1, 55, 47
3, 7056, Note_on_c, 1, 55, 0
3, 7056, Note_on_c, 1, 59, 47
3, 7068, Note_on_c, 1, 59, 0
3, 7068, Note_on_c, 1, 59, 47
3, 7080, Note_on_c, 1, 59, 0
3, 7080, Note_on_c, 1, 64, 47
3, 7092, Note_on_c, 1, 64, 0
3, 7092, Note_on_c, 1, 64, 47
3, 7104, Note_on_c, 1, 64, 0
3, 7104, Note_on_c, 1, 54, 47
3, 7152, Note_on_c, 1, 54, 0
3, 7176, Note_on_c, 1, 54, 47
3, 7200, Note_on_c, 1, 54, 0
3, 7200, Note_on_c, 1, 47, 47
3, 7224, Note_on_c, 1, 47, 0
3, 7224, Note_on_c, 1, 49, 47
3, 7248, Note_on_c, 1, 49, 0
3, 7248, Note_on_c, 1, 50, 47
3, 7272, Note_on_c, 1, 50, 0
3, 7272, Note_on_c, 1, 52, 47
3, 7296, Note_on_c, 1, 52, 0
3, 7296, Note_on_c, 1, 54, 47
3, 7320, Note_on_c, 1, 54, 0
3, 7320, Note_on_c, 1, 52, 47
3, 7344, Note_on_c, 1, 52, 0
3, 7344, Note_on_c, 1, 54, 47
3, 7368, Note_on_c, 1, 54, 0
3, 7368, Note_on_c, 1, 42, 47
3, 7392, Note_on_c, 1, 42, 0
3, 7392, Note_on_c, 1, 47, 47
3, 7440, Note_on_c, 1, 47, 0
3, 7464, Note_on_c, 1, 50, 47
3, 7488, Note_on_c, 1, 50, 0
3, 7488, Note_on_c, 1, 62, 47
3, 7512, Note_on_c, 1, 62, 0
3, 7512, Note_on_c, 1, 61, 47
3, 7536, Note_on_c, 1, 61, 0
3, 7536, Note_on_c, 1, 59, 47
3, 7560, Note_on_c, 1, 59, 0
3, 7560, Note_on_c, 1, 57, 47
3, 7584, Note_on_c, 1, 57, 0
3, 7584, Note_on_c, 1, 55, 47
3, 7608, Note_on_c, 1, 55, 0
3, 7608, Note_on_c, 1, 54, 47
3, 7632, Note_on_c, 1, 54, 0
3, 7632, Note_on_c, 1, 52, 47
3, 7656, Note_on_c, 1, 52, 0
3, 7656, Note_on_c, 1, 50, 47
3, 7680, Note_on_c, 1, 50, 0
3, 7680, Note_on_c, 1, 49, 47
3, 7704, Note_on_c, 1, 49, 0
3, 7704, Note_on_c, 1, 47, 47
3, 7728, Note_on_c, 1, 47, 0
3, 7728, Note_on_c, 1, 47, 47
3, 7752, Note_on_c, 1, 47, 0
3, 7752, Note_on_c, 1, 46, 47
3, 7776, Note_on_c, 1, 46, 0
3, 7776, Note_on_c, 1, 47, 47
3, 7800, Note_on_c, 1, 47, 0
3, 7800, Note_on_c, 1, 43, 47
3, 7824, Note_on_c, 1, 43, 0
3, 7824, Note_on_c, 1, 40, 47
3, 7848, Note_on_c, 1, 40, 0
3, 7848, Note_on_c, 1, 42, 47
3, 7872, Note_on_c, 1, 42, 0
3, 7872, Note_on_c, 1, 47, 95
3, 7896, Note_on_c, 1, 47, 0
3, 7896, Note_on_c, 1, 62, 95
3, 7920, Note_on_c, 1, 62, 0
3, 7920, Note_on_c, 1, 61, 95
3, 7928, Note_on_c, 1, 61, 0
3, 7928, Note_on_c, 1, 62, 95
3, 7936, Note_on_c, 1, 62, 0
3, 7936, Note_on_c, 1, 61, 95
3, 7944, Note_on_c, 1, 61, 0
3, 7944, Note_on_c, 1, 59, 95
3, 7952, Note_on_c, 1, 59, 0
3, 7952, Note_on_c, 1, 61, 95
3, 7960, Note_on_c, 1, 61, 0
3, 7960, Note_on_c, 1, 59, 95
3, 7968, Note_on_c, 1, 59, 0
3, 7968, Note_on_c, 1, 58, 95
3, 7992, Note_on_c, 1, 58, 0
3, 8172, Note_on_c, 1, 54, 95
3, 8184, Note_on_c, 1, 54, 0
3, 8184, Note_on_c, 1, 52, 95
3, 8196, Note_on_c, 1, 52, 0
3, 8196, Note_on_c, 1, 54, 95
3, 8208, Note_on_c, 1, 54, 0
3, 8208, Note_on_c, 1, 50, 95
3, 8220, Note_on_c, 1, 50, 0
3, 8220, Note_on_c, 1, 54, 95
3, 8232, Note_on_c, 1, 54, 0
3, 8232, Note_on_c, 1, 49, 95
3, 8244, Note_on_c, 1, 49, 0
3, 8244, Note_on_c, 1, 54, 95
3, 8256, Note_on_c, 1, 54, 0
3, 8256, Note_on_c, 1, 47, 95
3, 8268, Note_on_c, 1, 47, 0
3, 8268, Note_on_c, 1, 54, 95
3, 8280, Note_on_c, 1, 54, 0
3, 8280, Note_on_c, 1, 45, 95
3, 8292, Note_on_c, 1, 45, 0
3, 8292, Note_on_c, 1, 54, 95
3, 8304, Note_on_c, 1, 54, 0
3, 8304, Note_on_c, 1, 43, 95
3, 8316, Note_on_c, 1, 43, 0
3, 8316, Note_on_c, 1, 54, 95
3, 8328, Note_on_c, 1, 54, 0
3, 8328, Note_on_c, 1, 42, 95
3, 8340, Note_on_c, 1, 42, 0
3, 8340, Note_on_c, 1, 54, 95
3, 8352, Note_on_c, 1, 54, 0
3, 8352, Note_on_c, 1, 40, 95
3, 8400, Note_on_c, 1, 40, 0
3, 8448, Note_on_c, 1, 45, 95
3, 8496, Note_on_c, 1, 45, 0
3, 8652, Note_on_c, 1, 57, 95
3, 8664, Note_on_c, 1, 57, 0
3, 8664, Note_on_c, 1, 55, 95
3, 8676, Note_on_c, 1, 55, 0
3, 8676, Note_on_c, 1, 57, 95
3, 8688, Note_on_c, 1, 57, 0
3, 8688, Note_on_c, 1, 54, 95
3, 8700, Note_on_c, 1, 54, 0
3, 8700, Note_on_c, 1, 57, 95
3, 8712, Note_on_c, 1, 57, 0
3, 8712, Note_on_c, 1, 52, 95
3, 8724, Note_on_c, 1, 52, 0
3, 8724, Note_on_c, 1, 57, 95
3, 8736, Note_on_c, 1, 57, 0
3, 8736, Note_on_c, 1, 50, 95
3, 8748, Note_on_c, 1, 50, 0
3, 8748, Note_on_c, 1, 57, 95
3, 8760, Note_on_c, 1, 57, 0
3, 8760, Note_on_c, 1, 48, 95
3, 8772, Note_on_c, 1, 48, 0
3, 8772, Note_on_c, 1, 57, 95
3, 8784, Note_on_c, 1, 57, 0
3, 8784, Note_on_c, 1, 47, 95
3, 8796, Note_on_c, 1, 47, 0
3, 8796, Note_on_c, 1, 57, 95
3, 8808, Note_on_c, 1, 57, 0
3, 8808, Note_on_c, 1, 45, 95
3, 8820, Note_on_c, 1, 45, 0
3, 8820, Note_on_c, 1, 57, 95
3, 8832, Note_on_c, 1, 57, 0
3, 8832, Note_on_c, 1, 43, 95
3, 8856, Note_on_c, 1, 43, 0
3, 9420, Note_on_c, 1, 57, 95
3, 9432, Note_on_c, 1, 57, 0
3, 9432, Note_on_c, 1, 55, 95
3, 9444, Note_on_c, 1, 55, 0
3, 9444, Note_on_c, 1, 57, 95
3, 9456, Note_on_c, 1, 57, 0
3, 9456, Note_on_c, 1, 54, 95
3, 9468, Note_on_c, 1, 54, 0
3, 9468, Note_on_c, 1, 57, 95
3, 9480, Note_on_c, 1, 57, 0
3, 9480, Note_on_c, 1, 52, 95
3, 9492, Note_on_c, 1, 52, 0
3, 9492, Note_on_c, 1, 57, 95
3, 9504, Note_on_c, 1, 57, 0
3, 9504, Note_on_c, 1, 50, 95
3, 9552, Note_on_c, 1, 50, 0
3, 9576, Note_on_c, 1, 38, 95
3, 9600, Note_on_c, 1, 38, 0
3, 9600, Note_on_c, 1, 43, 95
3, 9612, Note_on_c, 1, 43, 0
3, 9612, Note_on_c, 1, 50, 95
3, 9624, Note_on_c, 1, 50, 0
3, 9624, Note_on_c, 1, 48, 95
3, 9636, Note_on_c, 1, 48, 0
3, 9636, Note_on_c, 1, 50, 95
3, 9648, Note_on_c, 1, 50, 0
3, 9648, Note_on_c, 1, 47, 95
3, 9660, Note_on_c, 1, 47, 0
3, 9660, Note_on_c, 1, 50, 95
3, 9672, Note_on_c, 1, 50, 0
3, 9672, Note_on_c, 1, 43, 95
3, 9684, Note_on_c, 1, 43, 0
3, 9684, Note_on_c, 1, 47, 95
3, 9696, Note_on_c, 1, 47, 0
3, 9696, Note_on_c, 1, 40, 95
3, 9744, Note_on_c, 1, 40, 0
3, 9816, Note_on_c, 1, 45, 95
3, 9840, Note_on_c, 1, 45, 0
3, 9840, Note_on_c, 1, 50, 95
3, 9864, Note_on_c, 1, 50, 0
3, 9864, Note_on_c, 1, 42, 95
3, 9888, Note_on_c, 1, 42, 0
3, 9888, Note_on_c, 1, 47, 95
3, 9936, Note_on_c, 1, 47, 0
3, 9960, Note_on_c, 1, 47, 95
3, 9984, Note_on_c, 1, 47, 0
3, 9984, Note_on_c, 1, 52, 95
3, 9996, Note_on_c, 1, 52, 0
3, 9996, Note_on_c, 1, 59, 95
3, 10008, Note_on_c, 1, 59, 0
3, 10008, Note_on_c, 1, 57, 95
3, 10020, Note_on_c, 1, 57, 0
3, 10020, Note_on_c, 1, 59, 95
3, 10032, Note_on_c, 1, 59, 0
3, 10032, Note_on_c, 1, 55, 95
3, 10044, Note_on_c, 1, 55, 0
3, 10044, Note_on_c, 1, 59, 95
3, 10056, Note_on_c, 1, 59, 0
3, 10056, Note_on_c, 1, 52, 95
3, 10068, Note_on_c, 1, 52, 0
3, 10068, Note_on_c, 1, 55, 95
3, 10080, Note_on_c, 1, 55, 0
3, 10080, Note_on_c, 1, 49, 95
3, 10128, Note_on_c, 1, 49, 0
3, 10200, Note_on_c, 1, 50, 95
3, 10224, Note_on_c, 1, 50, 0
3, 10224, Note_on_c, 1, 59, 95
3, 10248, Note_on_c, 1, 59, 0
3, 10248, Note_on_c, 1, 47, 95
3, 10272, Note_on_c, 1, 47, 0
3, 10272, Note_on_c, 1, 55, 95
3, 10320, Note_on_c, 1, 55, 0
3, 10344, Note_on_c, 1, 43, 95
3, 10368, Note_on_c, 1, 43, 0
3, 10368, Note_on_c, 1, 48, 95
3, 10380, Note_on_c, 1, 48, 0
3, 10380, Note_on_c, 1, 55, 95
3, 10392, Note_on_c, 1, 55, 0
3, 10392, Note_on_c, 1, 53, 95
3, 10404, Note_on_c, 1, 53, 0
3, 10404, Note_on_c, 1, 55, 95
3, 10416, Note_on_c, 1, 55, 0
3, 10416, Note_on_c, 1, 52, 95
3, 10428, Note_on_c, 1, 52, 0
3, 10428, Note_on_c, 1, 55, 95
3, 10440, Note_on_c, 1, 55, 0
3, 10440, Note_on_c, 1, 48, 95
3, 10452, Note_on_c, 1, 48, 0
3, 10452, Note_on_c, 1, 52, 95
3, 10464, Note_on_c, 1, 52, 0
3, 10464, Note_on_c, 1, 45, 95
3, 10512, Note_on_c, 1, 45, 0
3, 10584, Note_on_c, 1, 45, 95
3, 10608, Note_on_c, 1, 45, 0
3, 10608, Note_on_c, 1, 47, 95
3, 10632, Note_on_c, 1, 47, 0
3, 10632, Note_on_c, 1, 38, 95
3, 10656, Note_on_c, 1, 38, 0
3, 10656, Note_on_c, 1, 43, 95
3, 10668, Note_on_c, 1, 43, 0
3, 10668, Note_on_c, 1, 55, 95
3, 10680, Note_on_c, 1, 55, 0
3, 10680, Note_on_c, 1, 54, 95
3, 10692, Note_on_c, 1, 54, 0
3, 10692, Note_on_c, 1, 55, 95
3, 10704, Note_on_c, 1, 55, 0
3, 10704, Note_on_c, 1, 52, 95
3, 10716, Note_on_c, 1, 52, 0
3, 10716, Note_on_c, 1, 55, 95
3, 10728, Note_on_c, 1, 55, 0
3, 10728, Note_on_c, 1, 50, 95
3, 10740, Note_on_c, 1, 50, 0
3, 10740, Note_on_c, 1, 55, 95
3, 10752, Note_on_c, 1, 55, 0
3, 10752, Note_on_c, 1, 48, 95
3, 10764, Note_on_c, 1, 48, 0
3, 10764, Note_on_c, 1, 55, 95
3, 10776, Note_on_c, 1, 55, 0
3, 10776, Note_on_c, 1, 47, 95
3, 10788, Note_on_c, 1, 47, 0
3, 10788, Note_on_c, 1, 55, 95
3, 10800, Note_on_c, 1, 55, 0
3, 10800, Note_on_c, 1, 45, 95
3, 10812, Note_on_c, 1, 45, 0
3, 10812, Note_on_c, 1, 55, 95
3, 10824, Note_on_c, 1, 55, 0
3, 10824, Note_on_c, 1, 43, 95
3, 10836, Note_on_c, 1, 43, 0
3, 10836, Note_on_c, 1, 55, 95
3, 10848, Note_on_c, 1, 55, 0
3, 10848, Note_on_c, 1, 52, 95
3, 10896, Note_on_c, 1, 52, 0
3, 10968, Note_on_c, 1, 52, 95
3, 10992, Note_on_c, 1, 52, 0
3, 10992, Note_on_c, 1, 57, 95
3, 11016, Note_on_c, 1, 57, 0
3, 11016, Note_on_c, 1, 45, 95
3, 11040, Note_on_c, 1, 45, 0
3, 11040, Note_on_c, 1, 62, 95
3, 11060, Note_on_c, 1, 62, 0
3, 11064, Note_on_c, 1, 61, 95
3, 11084, Note_on_c, 1, 61, 0
3, 11088, Note_on_c, 1, 59, 95
3, 11108, Note_on_c, 1, 59, 0
3, 11112, Note_on_c, 1, 57, 95
3, 11132, Note_on_c, 1, 57, 0
3, 11136, Note_on_c, 1, 55, 95
3, 11156, Note_on_c, 1, 55, 0
3, 11160, Note_on_c, 1, 54, 95
3, 11180, Note_on_c, 1, 54, 0
3, 11184, Note_on_c, 1, 52, 95
3, 11204, Note_on_c, 1, 52, 0
3, 11208, Note_on_c, 1, 50, 95
3, 11228, Note_on_c, 1, 50, 0
3, 11232, Note_on_c, 1, 49, 95
3, 11252, Note_on_c, 1, 49, 0
3, 11256, Note_on_c, 1, 50, 95
3, 11276, Note_on_c, 1, 50, 0
3, 11280, Note_on_c, 1, 55, 95
3, 11300, Note_on_c, 1, 55, 0
3, 11304, Note_on_c, 1, 54, 95
3, 11324, Note_on_c, 1, 54, 0
3, 11328, Note_on_c, 1, 52, 95
3, 11348, Note_on_c, 1, 52, 0
3, 11352, Note_on_c, 1, 50, 95
3, 11372, Note_on_c, 1, 50, 0
3, 11376, Note_on_c, 1, 49, 95
3, 11396, Note_on_c, 1, 49, 0
3, 11400, Note_on_c, 1, 45, 95
3, 11420, Note_on_c, 1, 45, 0
3, 11424, Note_on_c, 1, 50, 95
3, 11444, Note_on_c, 1, 50, 0
3, 11448, Note_on_c, 1, 47, 95
3, 11468, Note_on_c, 1, 47, 0
3, 11472, Note_on_c, 1, 43, 95
3, 11492, Note_on_c, 1, 43, 0
3, 11496, Note_on_c, 1, 45, 95
3, 11516, Note_on_c, 1, 45, 0
3, 11520, Note_on_c, 1, 42, 79
3, 11540, Note_on_c, 1, 42, 0
3, 11544, Note_on_c, 1, 43, 79
3, 11564, Note_on_c, 1, 43, 0
3, 11592, Note_on_c, 1, 43, 79
3, 11612, Note_on_c, 1, 43, 0
3, 11616, Note_on_c, 1, 44, 79
3, 11636, Note_on_c, 1, 44, 0
3, 11640, Note_on_c, 1, 45, 79
3, 11660, Note_on_c, 1, 45, 0
3, 11688, Note_on_c, 1, 45, 79
3, 11708, Note_on_c, 1, 45, 0
3, 11712, Note_on_c, 1, 46, 79
3, 11732, Note_on_c, 1, 46, 0
3, 11736, Note_on_c, 1, 47, 79
3, 11756, Note_on_c, 1, 47, 0
3, 11760, Note_on_c, 1, 49, 79
3, 11770, Note_on_c, 1, 49, 0
3, 11772, Note_on_c, 1, 57, 79
3, 11782, Note_on_c, 1, 57, 0
3, 11784, Note_on_c, 1, 59, 79
3, 11794, Note_on_c, 1, 59, 0
3, 11796, Note_on_c, 1, 61, 79
3, 11806, Note_on_c, 1, 61, 0
3, 11808, Note_on_c, 1, 62, 79
3, 11828, Note_on_c, 1, 62, 0
3, 11832, Note_on_c, 1, 61, 79
3, 11852, Note_on_c, 1, 61, 0
3, 11856, Note_on_c, 1, 59, 79
3, 11876, Note_on_c, 1, 59, 0
3, 11880, Note_on_c, 1, 57, 79
3, 11900, Note_on_c, 1, 57, 0
3, 11904, Note_on_c, 1, 55, 79
3, 11944, Note_on_c, 1, 55, 0
3, 11976, Note_on_c, 1, 54, 79
3, 11996, Note_on_c, 1, 54, 0
3, 12000, Note_on_c, 1, 52, 79
3, 12020, Note_on_c, 1, 52, 0
3, 12024, Note_on_c, 1, 50, 79
3, 12044, Note_on_c, 1, 50, 0
3, 12048, Note_on_c, 1, 49, 79
3, 12068, Note_on_c, 1, 49, 0
3, 12072, Note_on_c, 1, 50, 79
3, 12092, Note_on_c, 1, 50, 0
3, 12096, Note_on_c, 1, 47, 79
3, 12116, Note_on_c, 1, 47, 0
3, 12120, Note_on_c, 1, 45, 79
3, 12140, Note_on_c, 1, 45, 0
3, 12144, Note_on_c, 1, 52, 79
3, 12164, Note_on_c, 1, 52, 0
3, 12168, Note_on_c, 1, 50, 79
3, 12188, Note_on_c, 1, 50, 0
3, 12192, Note_on_c, 1, 49, 79
3, 12212, Note_on_c, 1, 49, 0
3, 12216, Note_on_c, 1, 50, 79
3, 12236, Note_on_c, 1, 50, 0
3, 12264, Note_on_c, 1, 50, 79
3, 12284, Note_on_c, 1, 50, 0
3, 12288, Note_on_c, 1, 51, 79
3, 12308, Note_on_c, 1, 51, 0
3, 12312, Note_on_c, 1, 52, 79
3, 12332, Note_on_c, 1, 52, 0
3, 12360, Note_on_c, 1, 52, 79
3, 12380, Note_on_c, 1, 52, 0
3, 12384, Note_on_c, 1, 53, 79
3, 12404, Note_on_c, 1, 53, 0
3, 12408, Note_on_c, 1, 54, 79
3, 12428, Note_on_c, 1, 54, 0
3, 12432, Note_on_c, 1, 56, 79
3, 12442, Note_on_c, 1, 56, 0
3, 12444, Note_on_c, 1, 52, 79
3, 12454, Note_on_c, 1, 52, 0
3, 12456, Note_on_c, 1, 54, 79
3, 12466, Note_on_c, 1, 54, 0
3, 12468, Note_on_c, 1, 56, 79
3, 12478, Note_on_c, 1, 56, 0
3, 12480, Note_on_c, 1, 57, 79
3, 12500, Note_on_c, 1, 57, 0
3, 12504, Note_on_c, 1, 56, 79
3, 12524, Note_on_c, 1, 56, 0
3, 12528, Note_on_c, 1, 54, 79
3, 12548, Note_on_c, 1, 54, 0
3, 12552, Note_on_c, 1, 52, 79
3, 12572, Note_on_c, 1, 52, 0
3, 12576, Note_on_c, 1, 50, 79
3, 12616, Note_on_c, 1, 50, 0
3, 12648, Note_on_c, 1, 49, 79
3, 12668, Note_on_c, 1, 49, 0
3, 12672, Note_on_c, 1, 47, 79
3, 12692, Note_on_c, 1, 47, 0
3, 12696, Note_on_c, 1, 45, 79
3, 12716, Note_on_c, 1, 45, 0
3, 12720, Note_on_c, 1, 44, 79
3, 12740, Note_on_c, 1, 44, 0
3, 12744, Note_on_c, 1, 45, 79
3, 12764, Note_on_c, 1, 45, 0
3, 12768, Note_on_c, 1, 42, 79
3, 12788, Note_on_c, 1, 42, 0
3, 12792, Note_on_c, 1, 40, 79
3, 12812, Note_on_c, 1, 40, 0
3, 12816, Note_on_c, 1, 47, 79
3, 12836, Note_on_c, 1, 47, 0
3, 12840, Note_on_c, 1, 59, 79
3, 12860, Note_on_c, 1, 59, 0
3, 12864, Note_on_c, 1, 64, 79
3, 12884, Note_on_c, 1, 64, 0
3, 12888, Note_on_c, 1, 52, 79
3, 12908, Note_on_c, 1, 52, 0
3, 12912, Note_on_c, 1, 56, 79
3, 12932, Note_on_c, 1, 56, 0
3, 12936, Note_on_c, 1, 52, 79
3, 12956, Note_on_c, 1, 52, 0
3, 12984, Note_on_c, 1, 54, 79
3, 13004, Note_on_c, 1, 54, 0
3, 13008, Note_on_c, 1, 57, 79
3, 13028, Note_on_c, 1, 57, 0
3, 13032, Note_on_c, 1, 54, 79
3, 13052, Note_on_c, 1, 54, 0
3, 13080, Note_on_c, 1, 56, 79
3, 13100, Note_on_c, 1, 56, 0
3, 13104, Note_on_c, 1, 59, 79
3, 13124, Note_on_c, 1, 59, 0
3, 13128, Note_on_c, 1, 56, 79
3, 13148, Note_on_c, 1, 56, 0
3, 13176, Note_on_c, 1, 57, 79
3, 13196, Note_on_c, 1, 57, 0
3, 13200, Note_on_c, 1, 61, 79
3, 13220, Note_on_c, 1, 61, 0
3, 13224, Note_on_c, 1, 57, 79
3, 13244, Note_on_c, 1, 57, 0
3, 13272, Note_on_c, 1, 59, 79
3, 13292, Note_on_c, 1, 59, 0
3, 13296, Note_on_c, 1, 62, 79
3, 13316, Note_on_c, 1, 62, 0
3, 13320, Note_on_c, 1, 59, 79
3, 13340, Note_on_c, 1, 59, 0
3, 13368, Note_on_c, 1, 61, 79
3, 13388, Note_on_c, 1, 61, 0
3, 13392, Note_on_c, 1, 65, 79
3, 13412, Note_on_c, 1, 65, 0
3, 13416, Note_on_c, 1, 61, 79
3, 13436, Note_on_c, 1, 61, 0
3, 13440, Note_on_c, 1, 54, 63
3, 13460, Note_on_c, 1, 54, 0
3, 13464, Note_on_c, 1, 56, 63
3, 13484, Note_on_c, 1, 56, 0
3, 13488, Note_on_c, 1, 57, 63
3, 13508, Note_on_c, 1, 57, 0
3, 13512, Note_on_c, 1, 59, 63
3, 13532, Note_on_c, 1, 59, 0
3, 13536, Note_on_c, 1, 57, 63
3, 13556, Note_on_c, 1, 57, 0
3, 13560, Note_on_c, 1, 59, 63
3, 13580, Note_on_c, 1, 59, 0
3, 13584, Note_on_c, 1, 57, 63
3, 13604, Note_on_c, 1, 57, 0
3, 13608, Note_on_c, 1, 56, 63
3, 13628, Note_on_c, 1, 56, 0
3, 13632, Note_on_c, 1, 54, 63
3, 13652, Note_on_c, 1, 54, 0
3, 13656, Note_on_c, 1, 53, 63
3, 13676, Note_on_c, 1, 53, 0
3, 13680, Note_on_c, 1, 54, 63
3, 13700, Note_on_c, 1, 54, 0
3, 13704, Note_on_c, 1, 56, 63
3, 13724, Note_on_c, 1, 56, 0
3, 13728, Note_on_c, 1, 57, 63
3, 13748, Note_on_c, 1, 57, 0
3, 13752, Note_on_c, 1, 56, 63
3, 13772, Note_on_c, 1, 56, 0
3, 13776, Note_on_c, 1, 57, 63
3, 13796, Note_on_c, 1, 57, 0
3, 13800, Note_on_c, 1, 54, 63
3, 13820, Note_on_c, 1, 54, 0
3, 13824, Note_on_c, 1, 56, 63
3, 13844, Note_on_c, 1, 56, 0
3, 13848, Note_on_c, 1, 57, 63
3, 13868, Note_on_c, 1, 57, 0
3, 13872, Note_on_c, 1, 59, 63
3, 13892, Note_on_c, 1, 59, 0
3, 13896, Note_on_c, 1, 57, 63
3, 13916, Note_on_c, 1, 57, 0
3, 13920, Note_on_c, 1, 56, 63
3, 13940, Note_on_c, 1, 56, 0
3, 13944, Note_on_c, 1, 54, 63
3, 13964, Note_on_c, 1, 54, 0
3, 13968, Note_on_c, 1, 56, 63
3, 13988, Note_on_c, 1, 56, 0
3, 13992, Note_on_c, 1, 49, 63
3, 14012, Note_on_c, 1, 49, 0
3, 14016, Note_on_c, 1, 54, 63
3, 14036, Note_on_c, 1, 54, 0
3, 14040, Note_on_c, 1, 56, 63
3, 14060, Note_on_c, 1, 56, 0
3, 14064, Note_on_c, 1, 57, 63
3, 14084, Note_on_c, 1, 57, 0
3, 14088, Note_on_c, 1, 59, 63
3, 14108, Note_on_c, 1, 59, 0
3, 14112, Note_on_c, 1, 57, 63
3, 14132, Note_on_c, 1, 57, 0
3, 14136, Note_on_c, 1, 59, 63
3, 14156, Note_on_c, 1, 59, 0
3, 14160, Note_on_c, 1, 57, 63
3, 14180, Note_on_c, 1, 57, 0
3, 14184, Note_on_c, 1, 56, 63
3, 14204, Note_on_c, 1, 56, 0
3, 14208, Note_on_c, 1, 54, 63
3, 14228, Note_on_c, 1, 54, 0
3, 14232, Note_on_c, 1, 56, 63
3, 14252, Note_on_c, 1, 56, 0
3, 14256, Note_on_c, 1, 57, 63
3, 14276, Note_on_c, 1, 57, 0
3, 14280, Note_on_c, 1, 56, 63
3, 14300, Note_on_c, 1, 56, 0
3, 14304, Note_on_c, 1, 54, 63
3, 14324, Note_on_c, 1, 54, 0
3, 14328, Note_on_c, 1, 52, 63
3, 14348, Note_on_c, 1, 52, 0
3, 14352, Note_on_c, 1, 50, 63
3, 14372, Note_on_c, 1, 50, 0
3, 14376, Note_on_c, 1, 49, 63
3, 14396, Note_on_c, 1, 49, 0
3, 14400, Note_on_c, 1, 47, 63
3, 14420, Note_on_c, 1, 47, 0
3, 14424, Note_on_c, 1, 45, 63
3, 14444, Note_on_c, 1, 45, 0
3, 14448, Note_on_c, 1, 44, 63
3, 14468, Note_on_c, 1, 44, 0
3, 14472, Note_on_c, 1, 42, 63
3, 14492, Note_on_c, 1, 42, 0
3, 14496, Note_on_c, 1, 40, 63
3, 14516, Note_on_c, 1, 40, 0
3, 14520, Note_on_c, 1, 50, 63
3, 14540, Note_on_c, 1, 50, 0
3, 14544, Note_on_c, 1, 49, 63
3, 14564, Note_on_c, 1, 49, 0
3, 14568, Note_on_c, 1, 47, 63
3, 14588, Note_on_c, 1, 47, 0
3, 14592, Note_on_c, 1, 45, 63
3, 14612, Note_on_c, 1, 45, 0
3, 14616, Note_on_c, 1, 47, 63
3, 14636, Note_on_c, 1, 47, 0
3, 14640, Note_on_c, 1, 49, 63
3, 14660, Note_on_c, 1, 49, 0
3, 14664, Note_on_c, 1, 50, 63
3, 14684, Note_on_c, 1, 50, 0
3, 14688, Note_on_c, 1, 49, 63
3, 14708, Note_on_c, 1, 49, 0
3, 14712, Note_on_c, 1, 50, 63
3, 14732, Note_on_c, 1, 50, 0
3, 14736, Note_on_c, 1, 49, 63
3, 14756, Note_on_c, 1, 49, 0
3, 14760, Note_on_c, 1, 47, 63
3, 14780, Note_on_c, 1, 47, 0
3, 14784, Note_on_c, 1, 45, 63
3, 14804, Note_on_c, 1, 45, 0
3, 14808, Note_on_c, 1, 57, 63
3, 14828, Note_on_c, 1, 57, 0
3, 14832, Note_on_c, 1, 54, 63
3, 14852, Note_on_c, 1, 54, 0
3, 14856, Note_on_c, 1, 50, 63
3, 14876, Note_on_c, 1, 50, 0
3, 14880, Note_on_c, 1, 45, 63
3, 14900, Note_on_c, 1, 45, 0
3, 14904, Note_on_c, 1, 57, 63
3, 14924, Note_on_c, 1, 57, 0
3, 14928, Note_on_c, 1, 54, 63
3, 14948, Note_on_c, 1, 54, 0
3, 14952, Note_on_c, 1, 50, 63
3, 14972, Note_on_c, 1, 50, 0
3, 14976, Note_on_c, 1, 45, 63
3, 14996, Note_on_c, 1, 45, 0
3, 15000, Note_on_c, 1, 62, 63
3, 15020, Note_on_c, 1, 62, 0
3, 15024, Note_on_c, 1, 59, 63
3, 15044, Note_on_c, 1, 59, 0
3, 15048, Note_on_c, 1, 56, 63
3, 15068, Note_on_c, 1, 56, 0
3, 15072, Note_on_c, 1, 52, 63
3, 15092, Note_on_c, 1, 52, 0
3, 15096, Note_on_c, 1, 59, 63
3, 15116, Note_on_c, 1, 59, 0
3, 15120, Note_on_c, 1, 56, 63
3, 15140, Note_on_c, 1, 56, 0
3, 15144, Note_on_c, 1, 52, 63
3, 15164, Note_on_c, 1, 52, 0
3, 15168, Note_on_c, 1, 45, 63
3, 15208, Note_on_c, 1, 45, 0
3, 15360, Note_on_c, 1, 57, 63
3, 15380, Note_on_c, 1, 57, 0
3, 15384, Note_on_c, 1, 61, 63
3, 15404, Note_on_c, 1, 61, 0
3, 15408, Note_on_c, 1, 66, 63
3, 15428, Note_on_c, 1, 66, 0
3, 15432, Note_on_c, 1, 61, 63
3, 15452, Note_on_c, 1, 61, 0
3, 15456, Note_on_c, 1, 57, 63
3, 15476, Note_on_c, 1, 57, 0
3, 15480, Note_on_c, 1, 54, 63
3, 15500, Note_on_c, 1, 54, 0
3, 15504, Note_on_c, 1, 51, 63
3, 15524, Note_on_c, 1, 51, 0
3, 15528, Note_on_c, 1, 54, 63
3, 15548, Note_on_c, 1, 54, 0
3, 15552, Note_on_c, 1, 44, 63
3, 15592, Note_on_c, 1, 44, 0
3, 15744, Note_on_c, 1, 56, 63
3, 15764, Note_on_c, 1, 56, 0
3, 15768, Note_on_c, 1, 59, 63
3, 15788, Note_on_c, 1, 59, 0
3, 15792, Note_on_c, 1, 64, 63
3, 15812, Note_on_c, 1, 64, 0
3, 15816, Note_on_c, 1, 59, 63
3, 15836, Note_on_c, 1, 59, 0
3, 15840, Note_on_c, 1, 56, 63
3, 15860, Note_on_c, 1, 56, 0
3, 15864, Note_on_c, 1, 52, 63
3, 15884, Note_on_c, 1, 52, 0
3, 15888, Note_on_c, 1, 49, 63
3, 15908, Note_on_c, 1, 49, 0
3, 15912, Note_on_c, 1, 52, 63
3, 15932, Note_on_c, 1, 52, 0
3, 15936, Note_on_c, 1, 42, 63
3, 15976, Note_on_c, 1, 42, 0
3, 16128, Note_on_c, 1, 54, 63
3, 16148, Note_on_c, 1, 54, 0
3, 16152, Note_on_c, 1, 57, 63
3, 16172, Note_on_c, 1, 57, 0
3, 16176, Note_on_c, 1, 62, 63
3, 16196, Note_on_c, 1, 62, 0
3, 16200, Note_on_c, 1, 57, 63
3, 16220, Note_on_c, 1, 57, 0
3, 16224, Note_on_c, 1, 54, 63
3, 16244, Note_on_c, 1, 54, 0
3, 16248, Note_on_c, 1, 50, 63
3, 16268, Note_on_c, 1, 50, 0
3, 16272, Note_on_c, 1, 47, 63
3, 16292, Note_on_c, 1, 47, 0
3, 16296, Note_on_c, 1, 50, 63
3, 16316, Note_on_c, 1, 50, 0
3, 16320, Note_on_c, 1, 40, 63
3, 16360, Note_on_c, 1, 40, 0
3, 16512, Note_on_c, 1, 52, 63
3, 16532, Note_on_c, 1, 52, 0
3, 16536, Note_on_c, 1, 56, 63
3, 16556, Note_on_c, 1, 56, 0
3, 16560, Note_on_c, 1, 61, 63
3, 16580, Note_on_c, 1, 61, 0
3, 16584, Note_on_c, 1, 56, 63
3, 16604, Note_on_c, 1, 56, 0
3, 16608, Note_on_c, 1, 52, 63
3, 16628, Note_on_c, 1, 52, 0
3, 16632, Note_on_c, 1, 49, 63
3, 16652, Note_on_c, 1, 49, 0
3, 16656, Note_on_c, 1, 45, 63
3, 16676, Note_on_c, 1, 45, 0
3, 16680, Note_on_c, 1, 49, 63
3, 16700, Note_on_c, 1, 49, 0
3, 16704, Note_on_c, 1, 38, 63
3, 16744, Note_on_c, 1, 38, 0
3, 16896, Note_on_c, 1, 50, 63
3, 16916, Note_on_c, 1, 50, 0
3, 16920, Note_on_c, 1, 54, 63
3, 16940, Note_on_c, 1, 54, 0
3, 16944, Note_on_c, 1, 59, 63
3, 16964, Note_on_c, 1, 59, 0
3, 16968, Note_on_c, 1, 54, 63
3, 16988, Note_on_c, 1, 54, 0
3, 16992, Note_on_c, 1, 50, 63
3, 17012, Note_on_c, 1, 50, 0
3, 17016, Note_on_c, 1, 47, 63
3, 17036, Note_on_c, 1, 47, 0
3, 17040, Note_on_c, 1, 44, 63
3, 17060, Note_on_c, 1, 44, 0
3, 17064, Note_on_c, 1, 47, 63
3, 17084, Note_on_c, 1, 47, 0
3, 17088, Note_on_c, 1, 37, 63
3, 17128, Note_on_c, 1, 37, 0
3, 17280, Note_on_c, 1, 49, 63
3, 17300, Note_on_c, 1, 49, 0
3, 17304, Note_on_c, 1, 52, 63
3, 17324, Note_on_c, 1, 52, 0
3, 17328, Note_on_c, 1, 57, 63
3, 17348, Note_on_c, 1, 57, 0
3, 17352, Note_on_c, 1, 52, 63
3, 17372, Note_on_c, 1, 52, 0
3, 17376, Note_on_c, 1, 49, 63
3, 17396, Note_on_c, 1, 49, 0
3, 17400, Note_on_c, 1, 45, 63
3, 17420, Note_on_c, 1, 45, 0
3, 17424, Note_on_c, 1, 42, 63
3, 17444, Note_on_c, 1, 42, 0
3, 17448, Note_on_c, 1, 45, 63
3, 17468, Note_on_c, 1, 45, 0
3, 17472, Note_on_c, 1, 47, 63
3, 17512, Note_on_c, 1, 47, 0
3, 17664, Note_on_c, 1, 40, 63
3, 17684, Note_on_c, 1, 40, 0
3, 17688, Note_on_c, 1, 59, 63
3, 17708, Note_on_c, 1, 59, 0
3, 17712, Note_on_c, 1, 56, 63
3, 17732, Note_on_c, 1, 56, 0
3, 17736, Note_on_c, 1, 52, 63
3, 17756, Note_on_c, 1, 52, 0
3, 17760, Note_on_c, 1, 47, 63
3, 17780, Note_on_c, 1, 47, 0
3, 17784, Note_on_c, 1, 52, 63
3, 17804, Note_on_c, 1, 52, 0
3, 17808, Note_on_c, 1, 47, 63
3, 17828, Note_on_c, 1, 47, 0
3, 17832, Note_on_c, 1, 44, 63
3, 17852, Note_on_c, 1, 44, 0
3, 17856, Note_on_c, 1, 40, 63
3, 17876, Note_on_c, 1, 40, 0
3, 17880, Note_on_c, 1, 57, 63
3, 17900, Note_on_c, 1, 57, 0
3, 17904, Note_on_c, 1, 52, 63
3, 17924, Note_on_c, 1, 52, 0
3, 17928, Note_on_c, 1, 49, 63
3, 17948, Note_on_c, 1, 49, 0
3, 17952, Note_on_c, 1, 45, 63
3, 17972, Note_on_c, 1, 45, 0
3, 17976, Note_on_c, 1, 52, 63
3, 17996, Note_on_c, 1, 52, 0
3, 18000, Note_on_c, 1, 49, 63
3, 18020, Note_on_c, 1, 49, 0
3, 18024, Note_on_c, 1, 45, 63
3, 18044, Note_on_c, 1, 45, 0
3, 18048, Note_on_c, 1, 40, 63
3, 18068, Note_on_c, 1, 40, 0
3, 18072, Note_on_c, 1, 56, 63
3, 18092, Note_on_c, 1, 56, 0
3, 18096, Note_on_c, 1, 52, 63
3, 18116, Note_on_c, 1, 52, 0
3, 18120, Note_on_c, 1, 47, 63
3, 18140, Note_on_c, 1, 47, 0
3, 18144, Note_on_c, 1, 44, 63
3, 18164, Note_on_c, 1, 44, 0
3, 18168, Note_on_c, 1, 52, 63
3, 18188, Note_on_c, 1, 52, 0
3, 18192, Note_on_c, 1, 47, 63
3, 18212, Note_on_c, 1, 47, 0
3, 18216, Note_on_c, 1, 44, 63
3, 18236, Note_on_c, 1, 44, 0
3, 18240, Note_on_c, 1, 40, 63
3, 18260, Note_on_c, 1, 40, 0
3, 18264, Note_on_c, 1, 57, 63
3, 18284, Note_on_c, 1, 57, 0
3, 18288, Note_on_c, 1, 54, 63
3, 18308, Note_on_c, 1, 54, 0
3, 18312, Note_on_c, 1, 51, 63
3, 18332, Note_on_c, 1, 51, 0
3, 18336, Note_on_c, 1, 48, 63
3, 18356, Note_on_c, 1, 48, 0
3, 18360, Note_on_c, 1, 51, 63
3, 18380, Note_on_c, 1, 51, 0
3, 18384, Note_on_c, 1, 48, 63
3, 18404, Note_on_c, 1, 48, 0
3, 18408, Note_on_c, 1, 45, 63
3, 18428, Note_on_c, 1, 45, 0
3, 18432, Note_on_c, 1, 40, 63
3, 18452, Note_on_c, 1, 40, 0
3, 18456, Note_on_c, 1, 59, 63
3, 18476, Note_on_c, 1, 59, 0
3, 18480, Note_on_c, 1, 56, 63
3, 18500, Note_on_c, 1, 56, 0
3, 18504, Note_on_c, 1, 53, 63
3, 18524, Note_on_c, 1, 53, 0
3, 18528, Note_on_c, 1, 50, 63
3, 18548, Note_on_c, 1, 50, 0
3, 18552, Note_on_c, 1, 53, 63
3, 18572, Note_on_c, 1, 53, 0
3, 18576, Note_on_c, 1, 50, 63
3, 18596, Note_on_c, 1, 50, 0
3, 18600, Note_on_c, 1, 47, 63
3, 18620, Note_on_c, 1, 47, 0
3, 18624, Note_on_c, 1, 40, 63
3, 18644, Note_on_c, 1, 40, 0
3, 18648, Note_on_c, 1, 60, 63
3, 18668, Note_on_c, 1, 60, 0
3, 18672, Note_on_c, 1, 57, 63
3, 18692, Note_on_c, 1, 57, 0
3, 18696, Note_on_c, 1, 52, 63
3, 18716, Note_on_c, 1, 52, 0
3, 18720, Note_on_c, 1, 48, 63
3, 18740, Note_on_c, 1, 48, 0
3, 18744, Note_on_c, 1, 52, 63
3, 18764, Note_on_c, 1, 52, 0
3, 18768, Note_on_c, 1, 48, 63
3, 18788, Note_on_c, 1, 48, 0
3, 18792, Note_on_c, 1, 45, 63
3, 18812, Note_on_c, 1, 45, 0
3, 18816, Note_on_c, 1, 40, 63
3, 18836, Note_on_c, 1, 40, 0
3, 18840, Note_on_c, 1, 62, 63
3, 18860, Note_on_c, 1, 62, 0
3, 18864, Note_on_c, 1, 59, 63
3, 18884, Note_on_c, 1, 59, 0
3, 18888, Note_on_c, 1, 53, 63
3, 18908, Note_on_c, 1, 53, 0
3, 18912, Note_on_c, 1, 50, 63
3, 18932, Note_on_c, 1, 50, 0
3, 18936, Note_on_c, 1, 53, 63
3, 18956, Note_on_c, 1, 53, 0
3, 18960, Note_on_c, 1, 50, 63
3, 18980, Note_on_c, 1, 50, 0
3, 18984, Note_on_c, 1, 47, 63
3, 19004, Note_on_c, 1, 47, 0
3, 19008, Note_on_c, 1, 40, 63
3, 19028, Note_on_c, 1, 40, 0
3, 19032, Note_on_c, 1, 64, 63
3, 19052, Note_on_c, 1, 64, 0
3, 19056, Note_on_c, 1, 59, 63
3, 19076, Note_on_c, 1, 59, 0
3, 19080, Note_on_c, 1, 56, 63
3, 19100, Note_on_c, 1, 56, 0
3, 19104, Note_on_c, 1, 52, 63
3, 19124, Note_on_c, 1, 52, 0
3, 19128, Note_on_c, 1, 47, 63
3, 19148, Note_on_c, 1, 47, 0
3, 19152, Note_on_c, 1, 44, 63
3, 19172, Note_on_c, 1, 44, 0
3, 19176, Note_on_c, 1, 40, 63
3, 19196, Note_on_c, 1, 40, 0
3, 19200, Note_on_c, 1, 45, 79
3, 19240, Note_on_c, 1, 45, 0
3, 19272, Note_on_c, 1, 45, 79
3, 19292, Note_on_c, 1, 45, 0
3, 19296, Note_on_c, 1, 52, 79
3, 19316, Note_on_c, 1, 52, 0
3, 19320, Note_on_c, 1, 54, 79
3, 19340, Note_on_c, 1, 54, 0
3, 19344, Note_on_c, 1, 56, 79
3, 19364, Note_on_c, 1, 56, 0
3, 19368, Note_on_c, 1, 52, 79
3, 19388, Note_on_c, 1, 52, 0
3, 19392, Note_on_c, 1, 49, 79
3, 19412, Note_on_c, 1, 49, 0
3, 19416, Note_on_c, 1, 47, 79
3, 19436, Note_on_c, 1, 47, 0
3, 19440, Note_on_c, 1, 49, 79
3, 19460, Note_on_c, 1, 49, 0
3, 19464, Note_on_c, 1, 45, 79
3, 19484, Note_on_c, 1, 45, 0
3, 19488, Note_on_c, 1, 52, 79
3, 19508, Note_on_c, 1, 52, 0
3, 19512, Note_on_c, 1, 50, 79
3, 19532, Note_on_c, 1, 50, 0
3, 19536, Note_on_c, 1, 49, 79
3, 19556, Note_on_c, 1, 49, 0
3, 19560, Note_on_c, 1, 50, 79
3, 19570, Note_on_c, 1, 50, 0
3, 19572, Note_on_c, 1, 52, 79
3, 19582, Note_on_c, 1, 52, 0
3, 19584, Note_on_c, 1, 54, 79
3, 19604, Note_on_c, 1, 54, 0
3, 19608, Note_on_c, 1, 56, 79
3, 19618, Note_on_c, 1, 56, 0
3, 19620, Note_on_c, 1, 57, 79
3, 19630, Note_on_c, 1, 57, 0
3, 19632, Note_on_c, 1, 59, 79
3, 19652, Note_on_c, 1, 59, 0
3, 19656, Note_on_c, 1, 47, 79
3, 19676, Note_on_c, 1, 47, 0
3, 19680, Note_on_c, 1, 52, 79
3, 19700, Note_on_c, 1, 52, 0
3, 19704, Note_on_c, 1, 54, 79
3, 19714, Note_on_c, 1, 54, 0
3, 19716, Note_on_c, 1, 56, 79
3, 19726, Note_on_c, 1, 56, 0
3, 19728, Note_on_c, 1, 57, 79
3, 19748, Note_on_c, 1, 57, 0
3, 19752, Note_on_c, 1, 45, 79
3, 19772, Note_on_c, 1, 45, 0
3, 19776, Note_on_c, 1, 50, 79
3, 19796, Note_on_c, 1, 50, 0
3, 19800, Note_on_c, 1, 52, 79
3, 19810, Note_on_c, 1, 52, 0
3, 19812, Note_on_c, 1, 54, 79
3, 19822, Note_on_c, 1, 54, 0
3, 19824, Note_on_c, 1, 44, 79
3, 19844, Note_on_c, 1, 44, 0
3, 19848, Note_on_c, 1, 56, 79
3, 19868, Note_on_c, 1, 56, 0
3, 19872, Note_on_c, 1, 49, 79
3, 19892, Note_on_c, 1, 49, 0
3, 19896, Note_on_c, 1, 50, 79
3, 19906, Note_on_c, 1, 50, 0
3, 19908, Note_on_c, 1, 52, 79
3, 19918, Note_on_c, 1, 52, 0
3, 19920, Note_on_c, 1, 42, 79
3, 19940, Note_on_c, 1, 42, 0
3, 19944, Note_on_c, 1, 54, 79
3, 19964, Note_on_c, 1, 54, 0
3, 19968, Note_on_c, 1, 47, 79
3, 19988, Note_on_c, 1, 47, 0
3, 19992, Note_on_c, 1, 45, 79
3, 20012, Note_on_c, 1, 45, 0
3, 20016, Note_on_c, 1, 47, 79
3, 20036, Note_on_c, 1, 47, 0
3, 20040, Note_on_c, 1, 52, 79
3, 20060, Note_on_c, 1, 52, 0
3, 20064, Note_on_c, 1, 45, 79
3, 20084, Note_on_c, 1, 45, 0
3, 20088, Note_on_c, 1, 57, 79
3, 20108, Note_on_c, 1, 57, 0
3, 20124, Note_on_c, 1, 54, 79
3, 20134, Note_on_c, 1, 54, 0
3, 20136, Note_on_c, 1, 55, 79
3, 20146, Note_on_c, 1, 55, 0
3, 20148, Note_on_c, 1, 57, 79
3, 20158, Note_on_c, 1, 57, 0
3, 20160, Note_on_c, 1, 59, 79
3, 20180, Note_on_c, 1, 59, 0
3, 20184, Note_on_c, 1, 57, 79
3, 20204, Note_on_c, 1, 57, 0
3, 20208, Note_on_c, 1, 59, 79
3, 20228, Note_on_c, 1, 59, 0
3, 20232, Note_on_c, 1, 55, 79
3, 20252, Note_on_c, 1, 55, 0
3, 20256, Note_on_c, 1, 57, 79
3, 20276, Note_on_c, 1, 57, 0
3, 20280, Note_on_c, 1, 55, 79
3, 20300, Note_on_c, 1, 55, 0
3, 20304, Note_on_c, 1, 57, 79
3, 20324, Note_on_c, 1, 57, 0
3, 20328, Note_on_c, 1, 50, 79
3, 20348, Note_on_c, 1, 50, 0
3, 20352, Note_on_c, 1, 55, 79
3, 20372, Note_on_c, 1, 55, 0
3, 20376, Note_on_c, 1, 54, 79
3, 20396, Note_on_c, 1, 54, 0
3, 20400, Note_on_c, 1, 55, 79
3, 20420, Note_on_c, 1, 55, 0
3, 20424, Note_on_c, 1, 49, 79
3, 20444, Note_on_c, 1, 49, 0
3, 20448, Note_on_c, 1, 54, 79
3, 20468, Note_on_c, 1, 54, 0
3, 20472, Note_on_c, 1, 52, 79
3, 20492, Note_on_c, 1, 52, 0
3, 20496, Note_on_c, 1, 54, 79
3, 20516, Note_on_c, 1, 54, 0
3, 20520, Note_on_c, 1, 47, 79
3, 20540, Note_on_c, 1, 47, 0
3, 20544, Note_on_c, 1, 52, 79
3, 20564, Note_on_c, 1, 52, 0
3, 20568, Note_on_c, 1, 50, 79
3, 20588, Note_on_c, 1, 50, 0
3, 20592, Note_on_c, 1, 52, 79
3, 20612, Note_on_c, 1, 52, 0
3, 20616, Note_on_c, 1, 45, 79
3, 20636, Note_on_c, 1, 45, 0
3, 20640, Note_on_c, 1, 50, 79
3, 20660, Note_on_c, 1, 50, 0
3, 20664, Note_on_c, 1, 62, 79
3, 20684, Note_on_c, 1, 62, 0
3, 20712, Note_on_c, 1, 62, 79
3, 20732, Note_on_c, 1, 62, 0
3, 20736, Note_on_c, 1, 61, 79
3, 20756, Note_on_c, 1, 61, 0
3, 20760, Note_on_c, 1, 57, 79
3, 20780, Note_on_c, 1, 57, 0
3, 20808, Note_on_c, 1, 57, 79
3, 20828, Note_on_c, 1, 57, 0
3, 20832, Note_on_c, 1, 62, 79
3, 20842, Note_on_c, 1, 62, 0
3, 20844, Note_on_c, 1, 62, 79
3, 20854, Note_on_c, 1, 62, 0
3, 20856, Note_on_c, 1, 57, 79
3, 20866, Note_on_c, 1, 57, 0
3, 20868, Note_on_c, 1, 57, 79
3, 20878, Note_on_c, 1, 57, 0
3, 20880, Note_on_c, 1, 54, 79
3, 20890, Note_on_c, 1, 54, 0
3, 20892, Note_on_c, 1, 54, 79
3, 20902, Note_on_c, 1, 54, 0
3, 20904, Note_on_c, 1, 50, 79
3, 20914, Note_on_c, 1, 50, 0
3, 20916, Note_on_c, 1, 50, 79
3, 20926, Note_on_c, 1, 50, 0
3, 20928, Note_on_c, 1, 57, 79
3, 20938, Note_on_c, 1, 57, 0
3, 20940, Note_on_c, 1, 57, 79
3, 20950, Note_on_c, 1, 57, 0
3, 20952, Note_on_c, 1, 52, 79
3, 20962, Note_on_c, 1, 52, 0
3, 20964, Note_on_c, 1, 52, 79
3, 20974, Note_on_c, 1, 52, 0
3, 20976, Note_on_c, 1, 49, 79
3, 20986, Note_on_c, 1, 49, 0
3, 20988, Note_on_c, 1, 49, 79
3, 20998, Note_on_c, 1, 49, 0
3, 21000, Note_on_c, 1, 45, 79
3, 21010, Note_on_c, 1, 45, 0
3, 21012, Note_on_c, 1, 45, 79
3, 21022, Note_on_c, 1, 45, 0
3, 21024, Note_on_c, 1, 50, 79
3, 21064, Note_on_c, 1, 50, 0
3, 21228, Note_on_c, 1, 57, 79
3, 21238, Note_on_c, 1, 57, 0
3, 21240, Note_on_c, 1, 55, 79
3, 21250, Note_on_c, 1, 55, 0
3, 21252, Note_on_c, 1, 57, 79
3, 21262, Note_on_c, 1, 57, 0
3, 21264, Note_on_c, 1, 54, 79
3, 21274, Note_on_c, 1, 54, 0
3, 21276, Note_on_c, 1, 57, 79
3, 21286, Note_on_c, 1, 57, 0
3, 21288, Note_on_c, 1, 52, 79
3, 21298, Note_on_c, 1, 52, 0
3, 21300, Note_on_c, 1, 57, 79
3, 21310, Note_on_c, 1, 57, 0
3, 21312, Note_on_c, 1, 50, 79
3, 21332, Note_on_c, 1, 50, 0
3, 21336, Note_on_c, 1, 62, 79
3, 21346, Note_on_c, 1, 62, 0
3, 21348, Note_on_c, 1, 61, 79
3, 21358, Note_on_c, 1, 61, 0
3, 21360, Note_on_c, 1, 62, 79
3, 21380, Note_on_c, 1, 62, 0
3, 21384, Note_on_c, 1, 50, 79
3, 21404, Note_on_c, 1, 50, 0
3, 21408, Note_on_c, 1, 57, 79
3, 21428, Note_on_c, 1, 57, 0
3, 21432, Note_on_c, 1, 45, 79
3, 21452, Note_on_c, 1, 45, 0
3, 21456, Note_on_c, 1, 47, 79
3, 21476, Note_on_c, 1, 47, 0
3, 21480, Note_on_c, 1, 49, 79
3, 21500, Note_on_c, 1, 49, 0
3, 21504, Note_on_c, 1, 50, 79
3, 21544, Note_on_c, 1, 50, 0
3, 21708, Note_on_c, 1, 45, 79
3, 21718, Note_on_c, 1, 45, 0
3, 21720, Note_on_c, 1, 43, 79
3, 21730, Note_on_c, 1, 43, 0
3, 21732, Note_on_c, 1, 45, 79
3, 21742, Note_on_c, 1, 45, 0
3, 21744, Note_on_c, 1, 42, 79
3, 21754, Note_on_c, 1, 42, 0
3, 21756, Note_on_c, 1, 45, 79
3, 21766, Note_on_c, 1, 45, 0
3, 21768, Note_on_c, 1, 40, 79
3, 21778, Note_on_c, 1, 40, 0
3, 21780, Note_on_c, 1, 45, 79
3, 21790, Note_on_c, 1, 45, 0
3, 21792, Note_on_c, 1, 38, 79
3, 21812, Note_on_c, 1, 38, 0
3, 21816, Note_on_c, 1, 50, 79
3, 21826, Note_on_c, 1, 50, 0
3, 21828, Note_on_c, 1, 49, 79
3, 21838, Note_on_c, 1, 49, 0
3, 21840, Note_on_c, 1, 50, 79
3, 21860, Note_on_c, 1, 50, 0
3, 21864, Note_on_c, 1, 38, 79
3, 21884, Note_on_c, 1, 38, 0
3, 21888, Note_on_c, 1, 45, 79
3, 21908, Note_on_c, 1, 45, 0
3, 21912, Note_on_c, 1, 57, 79
3, 21932, Note_on_c, 1, 57, 0
3, 21936, Note_on_c, 1, 59, 79
3, 21956, Note_on_c, 1, 59, 0
3, 21960, Note_on_c, 1, 61, 79
3, 21980, Note_on_c, 1, 61, 0
3, 21984, Note_on_c, 1, 62, 79
3, 21994, Note_on_c, 1, 62, 0
3, 21996, Note_on_c, 1, 64, 79
3, 22006, Note_on_c, 1, 64, 0
3, 22008, Note_on_c, 1, 62, 79
3, 22018, Note_on_c, 1, 62, 0
3, 22020, Note_on_c, 1, 60, 79
3, 22030, Note_on_c, 1, 60, 0
3, 22032, Note_on_c, 1, 59, 79
3, 22042, Note_on_c, 1, 59, 0
3, 22044, Note_on_c, 1, 57, 79
3, 22054, Note_on_c, 1, 57, 0
3, 22056, Note_on_c, 1, 55, 79
3, 22066, Note_on_c, 1, 55, 0
3, 22068, Note_on_c, 1, 54, 79
3, 22078, Note_on_c, 1, 54, 0
3, 22080, Note_on_c, 1, 55, 79
3, 22090, Note_on_c, 1, 55, 0
3, 22092, Note_on_c, 1, 67, 79
3, 22102, Note_on_c, 1, 67, 0
3, 22104, Note_on_c, 1, 66, 79
3, 22114, Note_on_c, 1, 66, 0
3, 22116, Note_on_c, 1, 67, 79
3, 22126, Note_on_c, 1, 67, 0
3, 22128, Note_on_c, 1, 64, 79
3, 22138, Note_on_c, 1, 64, 0
3, 22140, Note_on_c, 1, 67, 79
3, 22150, Note_on_c, 1, 67, 0
3, 22152, Note_on_c, 1, 62, 79
3, 22162, Note_on_c, 1, 62, 0
3, 22164, Note_on_c, 1, 67, 79
3, 22174, Note_on_c, 1, 67, 0
3, 22176, Note_on_c, 1, 61, 79
3, 22186, Note_on_c, 1, 61, 0
3, 22188, Note_on_c, 1, 67, 79
3, 22198, Note_on_c, 1, 67, 0
3, 22200, Note_on_c, 1, 59, 79
3, 22210, Note_on_c, 1, 59, 0
3, 22212, Note_on_c, 1, 67, 79
3, 22222, Note_on_c, 1, 67, 0
3, 22224, Note_on_c, 1, 57, 79
3, 22234, Note_on_c, 1, 57, 0
3, 22236, Note_on_c, 1, 67, 79
3, 22246, Note_on_c, 1, 67, 0
3, 22248, Note_on_c, 1, 55, 79
3, 22258, Note_on_c, 1, 55, 0
3, 22260, Note_on_c, 1, 67, 79
3, 22270, Note_on_c, 1, 67, 0
3, 22272, Note_on_c, 1, 54, 79
3, 22282, Note_on_c, 1, 54, 0
3, 22284, Note_on_c, 1, 66, 79
3, 22294, Note_on_c, 1, 66, 0
3, 22296, Note_on_c, 1, 64, 79
3, 22306, Note_on_c, 1, 64, 0
3, 22308, Note_on_c, 1, 66, 79
3, 22318, Note_on_c, 1, 66, 0
3, 22320, Note_on_c, 1, 62, 79
3, 22330, Note_on_c, 1, 62, 0
3, 22332, Note_on_c, 1, 66, 79
3, 22342, Note_on_c, 1, 66, 0
3, 22344, Note_on_c, 1, 61, 79
3, 22354, Note_on_c, 1, 61, 0
3, 22356, Note_on_c, 1, 66, 79
3, 22366, Note_on_c, 1, 66, 0
3, 22368, Note_on_c, 1, 59, 79
3, 22378, Note_on_c, 1, 59, 0
3, 22380, Note_on_c, 1, 66, 79
3, 22390, Note_on_c, 1, 66, 0
3, 22392, Note_on_c, 1, 57, 79
3, 22402, Note_on_c, 1, 57, 0
3, 22404, Note_on_c, 1, 66, 79
3, 22414, Note_on_c, 1, 66, 0
3, 22416, Note_on_c, 1, 55, 79
3, 22426, Note_on_c, 1, 55, 0
3, 22428, Note_on_c, 1, 66, 79
3, 22438, Note_on_c, 1, 66, 0
3, 22440, Note_on_c, 1, 54, 79
3, 22450, Note_on_c, 1, 54, 0
3, 22452, Note_on_c, 1, 66, 79
3, 22462, Note_on_c, 1, 66, 0
3, 22464, Note_on_c, 1, 52, 79
3, 22474, Note_on_c, 1, 52, 0
3, 22476, Note_on_c, 1, 64, 79
3, 22486, Note_on_c, 1, 64, 0
3, 22488, Note_on_c, 1, 62, 79
3, 22498, Note_on_c, 1, 62, 0
3, 22500, Note_on_c, 1, 64, 79
3, 22510, Note_on_c, 1, 64, 0
3, 22512, Note_on_c, 1, 61, 79
3, 22522, Note_on_c, 1, 61, 0
3, 22524, Note_on_c, 1, 64, 79
3, 22534, Note_on_c, 1, 64, 0
3, 22536, Note_on_c, 1, 59, 79
3, 22546, Note_on_c, 1, 59, 0
3, 22548, Note_on_c, 1, 64, 79
3, 22558, Note_on_c, 1, 64, 0
3, 22560, Note_on_c, 1, 57, 79
3, 22570, Note_on_c, 1, 57, 0
3, 22572, Note_on_c, 1, 64, 79
3, 22582, Note_on_c, 1, 64, 0
3, 22584, Note_on_c, 1, 55, 79
3, 22594, Note_on_c, 1, 55, 0
3, 22596, Note_on_c, 1, 64, 79
3, 22606, Note_on_c, 1, 64, 0
3, 22608, Note_on_c, 1, 54, 79
3, 22618, Note_on_c, 1, 54, 0
3, 22620, Note_on_c, 1, 64, 79
3, 22630, Note_on_c, 1, 64, 0
3, 22632, Note_on_c, 1, 52, 79
3, 22642, Note_on_c, 1, 52, 0
3, 22644, Note_on_c, 1, 64, 79
3, 22654, Note_on_c, 1, 64, 0
3, 22656, Note_on_c, 1, 50, 79
3, 22666, Note_on_c, 1, 50, 0
3, 22668, Note_on_c, 1, 62, 79
3, 22678, Note_on_c, 1, 62, 0
3, 22680, Note_on_c, 1, 52, 79
3, 22690, Note_on_c, 1, 52, 0
3, 22692, Note_on_c, 1, 62, 79
3, 22702, Note_on_c, 1, 62, 0
3, 22704, Note_on_c, 1, 54, 79
3, 22714, Note_on_c, 1, 54, 0
3, 22716, Note_on_c, 1, 62, 79
3, 22726, Note_on_c, 1, 62, 0
3, 22728, Note_on_c, 1, 50, 79
3, 22738, Note_on_c, 1, 50, 0
3, 22740, Note_on_c, 1, 62, 79
3, 22750, Note_on_c, 1, 62, 0
3, 22752, Note_on_c, 1, 55, 79
3, 22762, Note_on_c, 1, 55, 0
3, 22764, Note_on_c, 1, 62, 79
3, 22774, Note_on_c, 1, 62, 0
3, 22776, Note_on_c, 1, 57, 79
3, 22786, Note_on_c, 1, 57, 0
3, 22788, Note_on_c, 1, 62, 79
3, 22798, Note_on_c, 1, 62, 0
3, 22800, Note_on_c, 1, 59, 79
3, 22810, Note_on_c, 1, 59, 0
3, 22812, Note_on_c, 1, 62, 79
3, 22822, Note_on_c, 1, 62, 0
3, 22824, Note_on_c, 1, 55, 79
3, 22834, Note_on_c, 1, 55, 0
3, 22836, Note_on_c, 1, 62, 79
3, 22846, Note_on_c, 1, 62, 0
3, 22848, Note_on_c, 1, 57, 79
3, 22868, Note_on_c, 1, 57, 0
3, 22872, Note_on_c, 1, 45, 79
3, 22892, Note_on_c, 1, 45, 0
3, 22908, Note_on_c, 1, 59, 79
3, 22918, Note_on_c, 1, 59, 0
3, 22920, Note_on_c, 1, 57, 79
3, 22930, Note_on_c, 1, 57, 0
3, 22932, Note_on_c, 1, 55, 79
3, 22942, Note_on_c, 1, 55, 0
3, 22944, Note_on_c, 1, 54, 79
3, 22964, Note_on_c, 1, 54, 0
3, 22968, Note_on_c, 1, 55, 79
3, 22988, Note_on_c, 1, 55, 0
3, 22992, Note_on_c, 1, 57, 79
3, 23012, Note_on_c, 1, 57, 0
3, 23016, Note_on_c, 1, 45, 79
3, 23036, Note_on_c, 1, 45, 0
3, 23040, Note_on_c, 1, 50, 79
3, 23080, Note_on_c, 1, 50, 0
3, 23112, Note_on_c, 1, 50, 79
3, 23132, Note_on_c, 1, 50, 0
3, 23136, Note_on_c, 1, 57, 79
3, 23156, Note_on_c, 1, 57, 0
3, 23160, Note_on_c, 1, 59, 79
3, 23180, Note_on_c, 1, 59, 0
3, 23184, Note_on_c, 1, 61, 79
3, 23204, Note_on_c, 1, 61, 0
3, 23208, Note_on_c, 1, 57, 79
3, 23228, Note_on_c, 1, 57, 0
3, 23232, Note_on_c, 1, 54, 79
3, 23252, Note_on_c, 1, 54, 0
3, 23256, Note_on_c, 1, 52, 79
3, 23276, Note_on_c, 1, 52, 0
3, 23280, Note_on_c, 1, 54, 79
3, 23300, Note_on_c, 1, 54, 0
3, 23304, Note_on_c, 1, 50, 79
3, 23324, Note_on_c, 1, 50, 0
3, 23328, Note_on_c, 1, 57, 79
3, 23348, Note_on_c, 1, 57, 0
3, 23352, Note_on_c, 1, 59, 79
3, 23372, Note_on_c, 1, 59, 0
3, 23376, Note_on_c, 1, 61, 79
3, 23396, Note_on_c, 1, 61, 0
3, 23400, Note_on_c, 1, 57, 79
3, 23420, Note_on_c, 1, 57, 0
3, 23424, Note_on_c, 1, 62, 79
3, 23444, Note_on_c, 1, 62, 0
3, 23448, Note_on_c, 1, 61, 79
3, 23468, Note_on_c, 1, 61, 0
3, 23472, Note_on_c, 1, 59, 79
3, 23492, Note_on_c, 1, 59, 0
3, 23496, Note_on_c, 1, 57, 79
3, 23516, Note_on_c, 1, 57, 0
3, 23520, Note_on_c, 1, 55, 79
3, 23540, Note_on_c, 1, 55, 0
3, 23544, Note_on_c, 1, 54, 79
3, 23564, Note_on_c, 1, 54, 0
3, 23568, Note_on_c, 1, 52, 79
3, 23588, Note_on_c, 1, 52, 0
3, 23592, Note_on_c, 1, 50, 79
3, 23612, Note_on_c, 1, 50, 0
3, 23616, Note_on_c, 1, 49, 79
3, 23636, Note_on_c, 1, 49, 0
3, 23640, Note_on_c, 1, 50, 79
3, 23660, Note_on_c, 1, 50, 0
3, 23664, Note_on_c, 1, 43, 79
3, 23684, Note_on_c, 1, 43, 0
3, 23688, Note_on_c, 1, 42, 79
3, 23708, Note_on_c, 1, 42, 0
3, 23712, Note_on_c, 1, 40, 79
3, 23732, Note_on_c, 1, 40, 0
3, 23736, Note_on_c, 1, 38, 79
3, 23756, Note_on_c, 1, 38, 0
3, 23760, Note_on_c, 1, 37, 79
3, 23780, Note_on_c, 1, 37, 0
3, 23784, Note_on_c, 1, 49, 79
3, 23804, Note_on_c, 1, 49, 0
3, 23808, Note_on_c, 1, 50, 79
3, 23828, Note_on_c, 1, 50, 0
3, 23832, Note_on_c, 1, 47, 79
3, 23852, Note_on_c, 1, 47, 0
3, 23856, Note_on_c, 1, 43, 79
3, 23876, Note_on_c, 1, 43, 0
3, 23880, Note_on_c, 1, 45, 79
3, 23900, Note_on_c, 1, 45, 0
3, 23904, Note_on_c, 1, 36, 79
3, 23904, Note_on_c, 1, 48, 79
3, 23944, Note_on_c, 1, 48, 0
3, 23944, Note_on_c, 1, 36, 0
3, 23976, Note_on_c, 1, 48, 79
3, 23996, Note_on_c, 1, 48, 0
3, 24000, Note_on_c, 1, 49, 79
3, 24020, Note_on_c, 1, 49, 0
3, 24024, Note_on_c, 1, 50, 79
3, 24044, Note_on_c, 1, 50, 0
3, 24072, Note_on_c, 1, 50, 79
3, 24092, Note_on_c, 1, 50, 0
3, 24096, Note_on_c, 1, 51, 79
3, 24116, Note_on_c, 1, 51, 0
3, 24120, Note_on_c, 1, 52, 79
3, 24140, Note_on_c, 1, 52, 0
3, 24144, Note_on_c, 1, 54, 79
3, 24154, Note_on_c, 1, 54, 0
3, 24156, Note_on_c, 1, 50, 79
3, 24166, Note_on_c, 1, 50, 0
3, 24168, Note_on_c, 1, 52, 79
3, 24178, Note_on_c, 1, 52, 0
3, 24180, Note_on_c, 1, 54, 79
3, 24190, Note_on_c, 1, 54, 0
3, 24192, Note_on_c, 1, 55, 79
3, 24212, Note_on_c, 1, 55, 0
3, 24216, Note_on_c, 1, 54, 79
3, 24236, Note_on_c, 1, 54, 0
3, 24240, Note_on_c, 1, 52, 79
3, 24260, Note_on_c, 1, 52, 0
3, 24264, Note_on_c, 1, 50, 79
3, 24284, Note_on_c, 1, 50, 0
3, 24288, Note_on_c, 1, 48, 79
3, 24328, Note_on_c, 1, 48, 0
3, 24360, Note_on_c, 1, 47, 79
3, 24380, Note_on_c, 1, 47, 0
3, 24384, Note_on_c, 1, 45, 79
3, 24404, Note_on_c, 1, 45, 0
3, 24408, Note_on_c, 1, 43, 79
3, 24428, Note_on_c, 1, 43, 0
3, 24432, Note_on_c, 1, 42, 79
3, 24452, Note_on_c, 1, 42, 0
3, 24456, Note_on_c, 1, 43, 79
3, 24476, Note_on_c, 1, 43, 0
3, 24480, Note_on_c, 1, 40, 79
3, 24500, Note_on_c, 1, 40, 0
3, 24504, Note_on_c, 1, 38, 79
3, 24524, Note_on_c, 1, 38, 0
3, 24528, Note_on_c, 1, 45, 79
3, 24548, Note_on_c, 1, 45, 0
3, 24552, Note_on_c, 1, 43, 79
3, 24572, Note_on_c, 1, 43, 0
3, 24576, Note_on_c, 1, 42, 79
3, 24596, Note_on_c, 1, 42, 0
3, 24600, Note_on_c, 1, 43, 79
3, 24620, Note_on_c, 1, 43, 0
3, 24648, Note_on_c, 1, 43, 79
3, 24668, Note_on_c, 1, 43, 0
3, 24672, Note_on_c, 1, 44, 79
3, 24692, Note_on_c, 1, 44, 0
3, 24696, Note_on_c, 1, 45, 79
3, 24716, Note_on_c, 1, 45, 0
3, 24744, Note_on_c, 1, 45, 79
3, 24764, Note_on_c, 1, 45, 0
3, 24768, Note_on_c, 1, 46, 79
3, 24788, Note_on_c, 1, 46, 0
3, 24792, Note_on_c, 1, 47, 79
3, 24812, Note_on_c, 1, 47, 0
3, 24816, Note_on_c, 1, 49, 79
3, 24826, Note_on_c, 1, 49, 0
3, 24828, Note_on_c, 1, 45, 79
3, 24838, Note_on_c, 1, 45, 0
3, 24840, Note_on_c, 1, 47, 79
3, 24850, Note_on_c, 1, 47, 0
3, 24852, Note_on_c, 1, 49, 79
3, 24862, Note_on_c, 1, 49, 0
3, 24864, Note_on_c, 1, 50, 79
3, 24884, Note_on_c, 1, 50, 0
3, 24888, Note_on_c, 1, 49, 79
3, 24908, Note_on_c, 1, 49, 0
3, 24912, Note_on_c, 1, 47, 79
3, 24932, Note_on_c, 1, 47, 0
3, 24936, Note_on_c, 1, 45, 79
3, 24956, Note_on_c, 1, 45, 0
3, 24960, Note_on_c, 1, 43, 79
3, 25000, Note_on_c, 1, 43, 0
3, 25008, Note_on_c, 1, 54, 79
3, 25028, Note_on_c, 1, 54, 0
3, 25032, Note_on_c, 1, 52, 79
3, 25052, Note_on_c, 1, 52, 0
3, 25056, Note_on_c, 1, 50, 79
3, 25076, Note_on_c, 1, 50, 0
3, 25080, Note_on_c, 1, 49, 79
3, 25100, Note_on_c, 1, 49, 0
3, 25104, Note_on_c, 1, 50, 79
3, 25124, Note_on_c, 1, 50, 0
3, 25152, Note_on_c, 1, 47, 79
3, 25172, Note_on_c, 1, 47, 0
3, 25176, Note_on_c, 1, 45, 79
3, 25196, Note_on_c, 1, 45, 0
3, 25200, Note_on_c, 1, 52, 79
3, 25220, Note_on_c, 1, 52, 0
3, 25224, Note_on_c, 1, 50, 79
3, 25244, Note_on_c, 1, 50, 0
3, 25248, Note_on_c, 1, 49, 79
3, 25268, Note_on_c, 1, 49, 0
3, 25272, Note_on_c, 1, 45, 79
3, 25292, Note_on_c, 1, 45, 0
3, 25296, Note_on_c, 1, 50, 79
3, 25316, Note_on_c, 1, 50, 0
3, 25320, Note_on_c, 1, 38, 79
3, 25340, Note_on_c, 1, 38, 0
3, 25344, Note_on_c, 1, 43, 79
3, 25364, Note_on_c, 1, 43, 0
3, 25416, Note_on_c, 1, 55, 79
3, 25436, Note_on_c, 1, 55, 0
3, 25440, Note_on_c, 1, 54, 79
3, 25460, Note_on_c, 1, 54, 0
3, 25512, Note_on_c, 1, 47, 79
3, 25532, Note_on_c, 1, 47, 0
3, 25536, Note_on_c, 1, 52, 79
3, 25556, Note_on_c, 1, 52, 0
3, 25608, Note_on_c, 1, 45, 79
3, 25628, Note_on_c, 1, 45, 0
3, 25632, Note_on_c, 1, 50, 79
3, 25652, Note_on_c, 1, 50, 0
3, 25656, Note_on_c, 1, 62, 79
3, 25676, Note_on_c, 1, 62, 0
3, 25704, Note_on_c, 1, 62, 79
3, 25724, Note_on_c, 1, 62, 0
3, 25728, Note_on_c, 1, 61, 79
3, 25748, Note_on_c, 1, 61, 0
3, 25752, Note_on_c, 1, 57, 79
3, 25772, Note_on_c, 1, 57, 0
3, 25800, Note_on_c, 1, 57, 79
3, 25820, Note_on_c, 1, 57, 0
3, 25824, Note_on_c, 1, 54, 79
3, 25844, Note_on_c, 1, 54, 0
3, 25848, Note_on_c, 1, 50, 79
3, 25868, Note_on_c, 1, 50, 0
3, 25896, Note_on_c, 1, 50, 79
3, 25916, Note_on_c, 1, 50, 0
3, 25920, Note_on_c, 1, 47, 79
3, 25940, Note_on_c, 1, 47, 0
3, 25944, Note_on_c, 1, 52, 79
3, 25964, Note_on_c, 1, 52, 0
3, 25968, Note_on_c, 1, 50, 79
3, 25988, Note_on_c, 1, 50, 0
3, 25992, Note_on_c, 1, 52, 79
3, 26012, Note_on_c, 1, 52, 0
3, 26016, Note_on_c, 1, 45, 79
3, 26036, Note_on_c, 1, 45, 0
3, 26040, Note_on_c, 1, 57, 79
3, 26050, Note_on_c, 1, 57, 0
3, 26052, Note_on_c, 1, 59, 79
3, 26062, Note_on_c, 1, 59, 0
3, 26064, Note_on_c, 1, 61, 79
3, 26074, Note_on_c, 1, 61, 0
3, 26076, Note_on_c, 1, 62, 79
3, 26086, Note_on_c, 1, 62, 0
3, 26088, Note_on_c, 1, 64, 79
3, 26098, Note_on_c, 1, 64, 0
3, 26100, Note_on_c, 1, 61, 79
3, 26110, Note_on_c, 1, 61, 0
3, 26112, Note_on_c, 1, 62, 79
3, 26132, Note_on_c, 1, 62, 0
3, 26136, Note_on_c, 1, 61, 79
3, 26156, Note_on_c, 1, 61, 0
3, 26160, Note_on_c, 1, 59, 79
3, 26180, Note_on_c, 1, 59, 0
3, 26184, Note_on_c, 1, 57, 79
3, 26204, Note_on_c, 1, 57, 0
3, 26208, Note_on_c, 1, 55, 79
3, 26228, Note_on_c, 1, 55, 0
3, 26232, Note_on_c, 1, 54, 79
3, 26252, Note_on_c, 1, 54, 0
3, 26256, Note_on_c, 1, 52, 79
3, 26276, Note_on_c, 1, 52, 0
3, 26280, Note_on_c, 1, 50, 79
3, 26300, Note_on_c, 1, 50, 0
3, 26304, Note_on_c, 1, 49, 79
3, 26324, Note_on_c, 1, 49, 0
3, 26328, Note_on_c, 1, 50, 79
3, 26348, Note_on_c, 1, 50, 0
3, 26352, Note_on_c, 1, 43, 79
3, 26372, Note_on_c, 1, 43, 0
3, 26376, Note_on_c, 1, 42, 79
3, 26396, Note_on_c, 1, 42, 0
3, 26400, Note_on_c, 1, 40, 79
3, 26420, Note_on_c, 1, 40, 0
3, 26424, Note_on_c, 1, 38, 79
3, 26444, Note_on_c, 1, 38, 0
3, 26448, Note_on_c, 1, 37, 79
3, 26468, Note_on_c, 1, 37, 0
3, 26472, Note_on_c, 1, 49, 79
3, 26492, Note_on_c, 1, 49, 0
3, 26496, Note_on_c, 1, 50, 79
3, 26516, Note_on_c, 1, 50, 0
3, 26520, Note_on_c, 1, 47, 79
3, 26540, Note_on_c, 1, 47, 0
3, 26544, Note_on_c, 1, 43, 79
3, 26564, Note_on_c, 1, 43, 0
3, 26568, Note_on_c, 1, 45, 79
3, 26588, Note_on_c, 1, 45, 0
3, 26592, Note_on_c, 1, 42, 79
3, 26597, Note_on_c, 1, 42, 0
3, 26598, Note_on_c, 1, 50, 79
3, 26603, Note_on_c, 1, 50, 0
3, 26604, Note_on_c, 1, 52, 79
3, 26609, Note_on_c, 1, 52, 0
3, 26610, Note_on_c, 1, 54, 79
3, 26615, Note_on_c, 1, 54, 0
3, 26616, Note_on_c, 1, 55, 79
3, 26621, Note_on_c, 1, 55, 0
3, 26622, Note_on_c, 1, 57, 79
3, 26627, Note_on_c, 1, 57, 0
3, 26628, Note_on_c, 1, 59, 79
3, 26633, Note_on_c, 1, 59, 0
3, 26634, Note_on_c, 1, 61, 79
3, 26639, Note_on_c, 1, 61, 0
3, 26736, Note_on_c, 1, 55, 95
3, 26741, Note_on_c, 1, 55, 0
3, 26742, Note_on_c, 1, 54, 95
3, 26747, Note_on_c, 1, 54, 0
3, 26748, Note_on_c, 1, 52, 95
3, 26753, Note_on_c, 1, 52, 0
3, 26754, Note_on_c, 1, 50, 95
3, 26759, Note_on_c, 1, 50, 0
3, 26760, Note_on_c, 1, 48, 95
3, 26765, Note_on_c, 1, 48, 0
3, 26766, Note_on_c, 1, 47, 95
3, 26771, Note_on_c, 1, 47, 0
3, 26772, Note_on_c, 1, 45, 95
3, 26777, Note_on_c, 1, 45, 0
3, 26778, Note_on_c, 1, 43, 95
3, 26783, Note_on_c, 1, 43, 0
3, 26784, Note_on_c, 1, 44, 95
3, 26789, Note_on_c, 1, 44, 0
3, 26790, Note_on_c, 1, 52, 95
3, 26795, Note_on_c, 1, 52, 0
3, 26796, Note_on_c, 1, 54, 95
3, 26801, Note_on_c, 1, 54, 0
3, 26802, Note_on_c, 1, 56, 95
3, 26807, Note_on_c, 1, 56, 0
3, 26808, Note_on_c, 1, 57, 95
3, 26813, Note_on_c, 1, 57, 0
3, 26814, Note_on_c, 1, 59, 95
3, 26819, Note_on_c, 1, 59, 0
3, 26820, Note_on_c, 1, 61, 95
3, 26825, Note_on_c, 1, 61, 0
3, 26826, Note_on_c, 1, 62, 95
3, 26831, Note_on_c, 1, 62, 0
3, 26928, Note_on_c, 1, 57, 95
3, 26933, Note_on_c, 1, 57, 0
3, 26934, Note_on_c, 1, 56, 95
3, 26939, Note_on_c, 1, 56, 0
3, 26940, Note_on_c, 1, 54, 95
3, 26945, Note_on_c, 1, 54, 0
3, 26946, Note_on_c, 1, 52, 95
3, 26951, Note_on_c, 1, 52, 0
3, 26952, Note_on_c, 1, 50, 95
3, 26957, Note_on_c, 1, 50, 0
3, 26958, Note_on_c, 1, 49, 95
3, 26963, Note_on_c, 1, 49, 0
3, 26964, Note_on_c, 1, 47, 95
3, 26969, Note_on_c, 1, 47, 0
3, 26970, Note_on_c, 1, 45, 95
3, 26975, Note_on_c, 1, 45, 0
3, 26976, Note_on_c, 1, 46, 95
3, 26981, Note_on_c, 1, 46, 0
3, 26982, Note_on_c, 1, 54, 95
3, 26987, Note_on_c, 1, 54, 0
3, 26988, Note_on_c, 1, 56, 95
3, 26993, Note_on_c, 1, 56, 0
3, 26994, Note_on_c, 1, 58, 95
3, 26999, Note_on_c, 1, 58, 0
3, 27000, Note_on_c, 1, 59, 95
3, 27005, Note_on_c, 1, 59, 0
3, 27006, Note_on_c, 1, 61, 95
3, 27011, Note_on_c, 1, 61, 0
3, 27012, Note_on_c, 1, 62, 95
3, 27017, Note_on_c, 1, 62, 0
3, 27018, Note_on_c, 1, 64, 95
3, 27023, Note_on_c, 1, 64, 0
3, 27120, Note_on_c, 1, 59, 95
3, 27125, Note_on_c, 1, 59, 0
3, 27126, Note_on_c, 1, 57, 95
3, 27131, Note_on_c, 1, 57, 0
3, 27132, Note_on_c, 1, 55, 95
3, 27137, Note_on_c, 1, 55, 0
3, 27138, Note_on_c, 1, 54, 95
3, 27143, Note_on_c, 1, 54, 0
3, 27144, Note_on_c, 1, 52, 95
3, 27149, Note_on_c, 1, 52, 0
3, 27150, Note_on_c, 1, 50, 95
3, 27155, Note_on_c, 1, 50, 0
3, 27156, Note_on_c, 1, 49, 95
3, 27161, Note_on_c, 1, 49, 0
3, 27162, Note_on_c, 1, 47, 95
3, 27167, Note_on_c, 1, 47, 0
3, 27168, Note_on_c, 1, 49, 95
3, 27173, Note_on_c, 1, 49, 0
3, 27174, Note_on_c, 1, 57, 95
3, 27179, Note_on_c, 1, 57, 0
3, 27180, Note_on_c, 1, 59, 95
3, 27185, Note_on_c, 1, 59, 0
3, 27186, Note_on_c, 1, 61, 95
3, 27191, Note_on_c, 1, 61, 0
3, 27192, Note_on_c, 1, 62, 95
3, 27197, Note_on_c, 1, 62, 0
3, 27198, Note_on_c, 1, 64, 95
3, 27203, Note_on_c, 1, 64, 0
3, 27204, Note_on_c, 1, 66, 95
3, 27209, Note_on_c, 1, 66, 0
3, 27210, Note_on_c, 1, 67, 95
3, 27215, Note_on_c, 1, 67, 0
3, 27654, Note_on_c, 1, 38, 95
3, 27659, Note_on_c, 1, 38, 0
3, 27660, Note_on_c, 1, 40, 95
3, 27665, Note_on_c, 1, 40, 0
3, 27666, Note_on_c, 1, 42, 95
3, 27671, Note_on_c, 1, 42, 0
3, 27672, Note_on_c, 1, 43, 95
3, 27677, Note_on_c, 1, 43, 0
3, 27678, Note_on_c, 1, 45, 95
3, 27683, Note_on_c, 1, 45, 0
3, 27684, Note_on_c, 1, 47, 95
3, 27689, Note_on_c, 1, 47, 0
3, 27690, Note_on_c, 1, 49, 95
3, 27695, Note_on_c, 1, 49, 0
3, 27696, Note_on_c, 1, 50, 95
3, 27701, Note_on_c, 1, 50, 0
3, 27702, Note_on_c, 1, 52, 95
3, 27707, Note_on_c, 1, 52, 0
3, 27708, Note_on_c, 1, 54, 95
3, 27713, Note_on_c, 1, 54, 0
3, 27714, Note_on_c, 1, 55, 95
3, 27719, Note_on_c, 1, 55, 0
3, 27720, Note_on_c, 1, 57, 95
3, 27725, Note_on_c, 1, 57, 0
3, 27726, Note_on_c, 1, 59, 95
3, 27731, Note_on_c, 1, 59, 0
3, 27732, Note_on_c, 1, 61, 95
3, 27737, Note_on_c, 1, 61, 0
3, 27738, Note_on_c, 1, 62, 95
3, 27743, Note_on_c, 1, 62, 0
3, 27744, Note_on_c, 1, 61, 95
3, 27749, Note_on_c, 1, 61, 0
3, 27750, Note_on_c, 1, 45, 95
3, 27755, Note_on_c, 1, 45, 0
3, 27756, Note_on_c, 1, 47, 95
3, 27761, Note_on_c, 1, 47, 0
3, 27762, Note_on_c, 1, 49, 95
3, 27767, Note_on_c, 1, 49, 0
3, 27768, Note_on_c, 1, 50, 95
3, 27773, Note_on_c, 1, 50, 0
3, 27774, Note_on_c, 1, 52, 95
3, 27779, Note_on_c, 1, 52, 0
3, 27780, Note_on_c, 1, 54, 95
3, 27785, Note_on_c, 1, 54, 0
3, 27786, Note_on_c, 1, 55, 95
3, 27791, Note_on_c, 1, 55, 0
3, 27792, Note_on_c, 1, 57, 95
3, 27797, Note_on_c, 1, 57, 0
3, 27798, Note_on_c, 1, 59, 95
3, 27803, Note_on_c, 1, 59, 0
3, 27804, Note_on_c, 1, 61, 95
3, 27809, Note_on_c, 1, 61, 0
3, 27810, Note_on_c, 1, 62, 95
3, 27815, Note_on_c, 1, 62, 0
3, 27816, Note_on_c, 1, 64, 95
3, 27821, Note_on_c, 1, 64, 0
3, 27822, Note_on_c, 1, 66, 95
3, 27827, Note_on_c, 1, 66, 0
3, 27828, Note_on_c, 1, 67, 95
3, 27833, Note_on_c, 1, 67, 0
3, 27834, Note_on_c, 1, 64, 95
3, 27839, Note_on_c, 1, 64, 0
3, 27840, Note_on_c, 1, 66, 95
3, 27845, Note_on_c, 1, 66, 0
3, 27846, Note_on_c, 1, 50, 95
3, 27851, Note_on_c, 1, 50, 0
3, 27852, Note_on_c, 1, 52, 95
3, 27857, Note_on_c, 1, 52, 0
3, 27858, Note_on_c, 1, 54, 95
3, 27863, Note_on_c, 1, 54, 0
3, 27864, Note_on_c, 1, 55, 95
3, 27869, Note_on_c, 1, 55, 0
3, 27870, Note_on_c, 1, 57, 95
3, 27875, Note_on_c, 1, 57, 0
3, 27876, Note_on_c, 1, 59, 95
3, 27881, Note_on_c, 1, 59, 0
3, 27882, Note_on_c, 1, 61, 95
3, 27887, Note_on_c, 1, 61, 0
3, 28032, Note_on_c, 1, 74, 79
3, 28048, Note_on_c, 1, 74, 0
3, 28056, Note_on_c, 1, 69, 79
3, 28072, Note_on_c, 1, 69, 0
3, 28080, Note_on_c, 1, 74, 79
3, 28096, Note_on_c, 1, 74, 0
3, 28104, Note_on_c, 1, 69, 79
3, 28120, Note_on_c, 1, 69, 0
3, 28128, Note_on_c, 1, 74, 79
3, 28144, Note_on_c, 1, 74, 0
3, 28152, Note_on_c, 1, 69, 79
3, 28168, Note_on_c, 1, 69, 0
3, 28176, Note_on_c, 1, 74, 79
3, 28192, Note_on_c, 1, 74, 0
3, 28200, Note_on_c, 1, 69, 79
3, 28216, Note_on_c, 1, 69, 0
3, 28224, Note_on_c, 1, 73, 79
3, 28240, Note_on_c, 1, 73, 0
3, 28248, Note_on_c, 1, 69, 79
3, 28264, Note_on_c, 1, 69, 0
3, 28272, Note_on_c, 1, 73, 79
3, 28288, Note_on_c, 1, 73, 0
3, 28296, Note_on_c, 1, 69, 79
3, 28312, Note_on_c, 1, 69, 0
3, 28320, Note_on_c, 1, 73, 79
3, 28336, Note_on_c, 1, 73, 0
3, 28344, Note_on_c, 1, 69, 79
3, 28360, Note_on_c, 1, 69, 0
3, 28368, Note_on_c, 1, 73, 79
3, 28384, Note_on_c, 1, 73, 0
3, 28392, Note_on_c, 1, 69, 79
3, 28408, Note_on_c, 1, 69, 0
3, 28416, Note_on_c, 1, 71, 79
3, 28432, Note_on_c, 1, 71, 0
3, 28440, Note_on_c, 1, 69, 79
3, 28456, Note_on_c, 1, 69, 0
3, 28464, Note_on_c, 1, 71, 79
3, 28480, Note_on_c, 1, 71, 0
3, 28488, Note_on_c, 1, 69, 79
3, 28504, Note_on_c, 1, 69, 0
3, 28512, Note_on_c, 1, 71, 79
3, 28528, Note_on_c, 1, 71, 0
3, 28536, Note_on_c, 1, 69, 79
3, 28552, Note_on_c, 1, 69, 0
3, 28560, Note_on_c, 1, 71, 79
3, 28576, Note_on_c, 1, 71, 0
3, 28584, Note_on_c, 1, 69, 79
3, 28600, Note_on_c, 1, 69, 0
3, 28608, Note_on_c, 1, 71, 79
3, 28624, Note_on_c, 1, 71, 0
3, 28632, Note_on_c, 1, 68, 79
3, 28648, Note_on_c, 1, 68, 0
3, 28656, Note_on_c, 1, 71, 79
3, 28672, Note_on_c, 1, 71, 0
3, 28680, Note_on_c, 1, 68, 79
3, 28696, Note_on_c, 1, 68, 0
3, 28704, Note_on_c, 1, 71, 79
3, 28720, Note_on_c, 1, 71, 0
3, 28728, Note_on_c, 1, 68, 79
3, 28744, Note_on_c, 1, 68, 0
3, 28752, Note_on_c, 1, 71, 79
3, 28768, Note_on_c, 1, 71, 0
3, 28776, Note_on_c, 1, 68, 79
3, 28792, Note_on_c, 1, 68, 0
3, 28800, Note_on_c, 1, 69, 79
3, 28804, Note_on_c, 1, 69, 0
3, 28842, Note_on_c, 1, 67, 79
3, 28846, Note_on_c, 1, 67, 0
3, 28848, Note_on_c, 1, 66, 79
3, 28852, Note_on_c, 1, 66, 0
3, 28890, Note_on_c, 1, 62, 79
3, 28894, Note_on_c, 1, 62, 0
3, 28896, Note_on_c, 1, 66, 79
3, 28900, Note_on_c, 1, 66, 0
3, 28938, Note_on_c, 1, 67, 79
3, 28942, Note_on_c, 1, 67, 0
3, 28944, Note_on_c, 1, 66, 79
3, 28948, Note_on_c, 1, 66, 0
3, 28986, Note_on_c, 1, 62, 79
3, 28990, Note_on_c, 1, 62, 0
3, 28992, Note_on_c, 1, 68, 79
3, 28996, Note_on_c, 1, 68, 0
3, 29034, Note_on_c, 1, 69, 79
3, 29038, Note_on_c, 1, 69, 0
3, 29040, Note_on_c, 1, 68, 79
3, 29044, Note_on_c, 1, 68, 0
3, 29082, Note_on_c, 1, 69, 79
3, 29086, Note_on_c, 1, 69, 0
3, 29088, Note_on_c, 1, 67, 79
3, 29092, Note_on_c, 1, 67, 0
3, 29130, Note_on_c, 1, 69, 79
3, 29134, Note_on_c, 1, 69, 0
3, 29136, Note_on_c, 1, 67, 79
3, 29140, Note_on_c, 1, 67, 0
3, 29178, Note_on_c, 1, 69, 79
3, 29182, Note_on_c, 1, 69, 0
3, 29184, Note_on_c, 1, 66, 79
3, 29188, Note_on_c, 1, 66, 0
3, 29226, Note_on_c, 1, 67, 79
3, 29230, Note_on_c, 1, 67, 0
3, 29232, Note_on_c, 1, 66, 79
3, 29236, Note_on_c, 1, 66, 0
3, 29274, Note_on_c, 1, 67, 79
3, 29278, Note_on_c, 1, 67, 0
3, 29280, Note_on_c, 1, 65, 79
3, 29284, Note_on_c, 1, 65, 0
3, 29322, Note_on_c, 1, 64, 79
3, 29326, Note_on_c, 1, 64, 0
3, 29328, Note_on_c, 1, 65, 79
3, 29332, Note_on_c, 1, 65, 0
3, 29370, Note_on_c, 1, 62, 79
3, 29374, Note_on_c, 1, 62, 0
3, 29376, Note_on_c, 1, 64, 95
3, 29386, Note_on_c, 1, 64, 0
3, 29388, Note_on_c, 1, 69, 95
3, 29393, Note_on_c, 1, 69, 0
3, 29394, Note_on_c, 1, 67, 95
3, 29399, Note_on_c, 1, 67, 0
3, 29400, Note_on_c, 1, 66, 95
3, 29410, Note_on_c, 1, 66, 0
3, 29412, Note_on_c, 1, 69, 95
3, 29422, Note_on_c, 1, 69, 0
3, 29424, Note_on_c, 1, 64, 95
3, 29434, Note_on_c, 1, 64, 0
3, 29436, Note_on_c, 1, 69, 95
3, 29446, Note_on_c, 1, 69, 0
3, 29448, Note_on_c, 1, 62, 95
3, 29458, Note_on_c, 1, 62, 0
3, 29460, Note_on_c, 1, 69, 95
3, 29470, Note_on_c, 1, 69, 0
3, 29472, Note_on_c, 1, 61, 95
3, 29482, Note_on_c, 1, 61, 0
3, 29484, Note_on_c, 1, 69, 95
3, 29494, Note_on_c, 1, 69, 0
3, 29496, Note_on_c, 1, 62, 95
3, 29506, Note_on_c, 1, 62, 0
3, 29508, Note_on_c, 1, 69, 95
3, 29518, Note_on_c, 1, 69, 0
3, 29520, Note_on_c, 1, 61, 95
3, 29530, Note_on_c, 1, 61, 0
3, 29532, Note_on_c, 1, 69, 95
3, 29542, Note_on_c, 1, 69, 0
3, 29544, Note_on_c, 1, 59, 95
3, 29554, Note_on_c, 1, 59, 0
3, 29556, Note_on_c, 1, 69, 95
3, 29566, Note_on_c, 1, 69, 0
3, 29568, Note_on_c, 1, 57, 95
3, 29578, Note_on_c, 1, 57, 0
3, 29580, Note_on_c, 1, 61, 95
3, 29590, Note_on_c, 1, 61, 0
3, 29592, Note_on_c, 1, 55, 95
3, 29602, Note_on_c, 1, 55, 0
3, 29604, Note_on_c, 1, 61, 95
3, 29614, Note_on_c, 1, 61, 0
3, 29616, Note_on_c, 1, 54, 95
3, 29626, Note_on_c, 1, 54, 0
3, 29628, Note_on_c, 1, 61, 95
3, 29638, Note_on_c, 1, 61, 0
3, 29640, Note_on_c, 1, 52, 95
3, 29650, Note_on_c, 1, 52, 0
3, 29652, Note_on_c, 1, 61, 95
3, 29662, Note_on_c, 1, 61, 0
3, 29664, Note_on_c, 1, 50, 95
3, 29674, Note_on_c, 1, 50, 0
3, 29676, Note_on_c, 1, 62, 95
3, 29686, Note_on_c, 1, 62, 0
3, 29688, Note_on_c, 1, 52, 95
3, 29698, Note_on_c, 1, 52, 0
3, 29700, Note_on_c, 1, 62, 95
3, 29710, Note_on_c, 1, 62, 0
3, 29712, Note_on_c, 1, 54, 95
3, 29722, Note_on_c, 1, 54, 0
3, 29724, Note_on_c, 1, 62, 95
3, 29734, Note_on_c, 1, 62, 0
3, 29736, Note_on_c, 1, 55, 95
3, 29746, Note_on_c, 1, 55, 0
3, 29748, Note_on_c, 1, 62, 95
3, 29758, Note_on_c, 1, 62, 0
3, 29760, Note_on_c, 1, 57, 95
3, 29780, Note_on_c, 1, 57, 0
3, 29784, Note_on_c, 1, 62, 95
3, 29804, Note_on_c, 1, 62, 0
3, 29808, Note_on_c, 1, 61, 95
3, 29828, Note_on_c, 1, 61, 0
3, 29832, Note_on_c, 1, 59, 95
3, 29852, Note_on_c, 1, 59, 0
3, 29856, Note_on_c, 1, 57, 95
3, 29880, Note_on_c, 1, 54, 95
3, 29900, Note_on_c, 1, 54, 0
3, 29904, Note_on_c, 1, 52, 95
3, 29924, Note_on_c, 1, 52, 0
3, 29928, Note_on_c, 1, 50, 95
3, 29936, Note_on_c, 1, 57, 0
3, 29948, Note_on_c, 1, 50, 0
3, 29952, Note_on_c, 1, 49, 95
3, 29976, Note_on_c, 1, 59, 95
3, 29992, Note_on_c, 1, 49, 0
3, 29996, Note_on_c, 1, 59, 0
3, 30000, Note_on_c, 1, 57, 95
3, 30020, Note_on_c, 1, 57, 0
3, 30024, Note_on_c, 1, 45, 95
3, 30024, Note_on_c, 1, 55, 95
3, 30044, Note_on_c, 1, 55, 0
3, 30044, Note_on_c, 1, 45, 0
3, 30048, Note_on_c, 1, 50, 95
3, 30048, Note_on_c, 1, 54, 95
3, 30068, Note_on_c, 1, 54, 0
3, 30072, Note_on_c, 1, 55, 95
3, 30088, Note_on_c, 1, 50, 0
3, 30092, Note_on_c, 1, 55, 0
3, 30096, Note_on_c, 1, 57, 95
3, 30116, Note_on_c, 1, 57, 0
3, 30120, Note_on_c, 1, 55, 95
3, 30130, Note_on_c, 1, 55, 0
3, 30132, Note_on_c, 1, 54, 95
3, 30142, Note_on_c, 1, 54, 0
3, 30144, Note_on_c, 1, 45, 95
3, 30144, Note_on_c, 1, 55, 95
3, 30164, Note_on_c, 1, 55, 0
3, 30168, Note_on_c, 1, 57, 95
3, 30184, Note_on_c, 1, 45, 0
3, 30188, Note_on_c, 1, 57, 0
3, 30192, Note_on_c, 1, 59, 95
3, 30212, Note_on_c, 1, 59, 0
3, 30216, Note_on_c, 1, 57, 95
3, 30226, Note_on_c, 1, 57, 0
3, 30228, Note_on_c, 1, 55, 95
3, 30238, Note_on_c, 1, 55, 0
3, 30240, Note_on_c, 1, 45, 95
3, 30240, Note_on_c, 1, 54, 95
3, 30260, Note_on_c, 1, 54, 0
3, 30264, Note_on_c, 1, 55, 95
3, 30280, Note_on_c, 1, 45, 0
3, 30284, Note_on_c, 1, 55, 0
3, 30288, Note_on_c, 1, 57, 95
3, 30308, Note_on_c, 1, 57, 0
3, 30312, Note_on_c, 1, 55, 95
3, 30322, Note_on_c, 1, 55, 0
3, 30324, Note_on_c, 1, 54, 95
3, 30334, Note_on_c, 1, 54, 0
3, 30336, Note_on_c, 1, 45, 95
3, 30336, Note_on_c, 1, 55, 95
3, 30356, Note_on_c, 1, 55, 0
3, 30360, Note_on_c, 1, 54, 95
3, 30376, Note_on_c, 1, 45, 0
3, 30380, Note_on_c, 1, 54, 0
3, 30384, Note_on_c, 1, 52, 95
3, 30404, Note_on_c, 1, 52, 0
3, 30408, Note_on_c, 1, 45, 95
3, 30428, Note_on_c, 1, 45, 0
3, 30432, Note_on_c, 1, 50, 95
3, 30452, Note_on_c, 1, 50, 0
3, 30456, Note_on_c, 1, 52, 95
3, 30476, Note_on_c, 1, 52, 0
3, 30480, Note_on_c, 1, 54, 95
3, 30500, Note_on_c, 1, 54, 0
3, 30504, Note_on_c, 1, 52, 95
3, 30514, Note_on_c, 1, 52, 0
3, 30516, Note_on_c, 1, 50, 95
3, 30526, Note_on_c, 1, 50, 0
3, 30528, Note_on_c, 1, 55, 95
3, 30538, Note_on_c, 1, 55, 0
3, 30540, Note_on_c, 1, 62, 95
3, 30550, Note_on_c, 1, 62, 0
3, 30552, Note_on_c, 1, 57, 95
3, 30562, Note_on_c, 1, 57, 0
3, 30564, Note_on_c, 1, 62, 95
3, 30574, Note_on_c, 1, 62, 0
3, 30576, Note_on_c, 1, 59, 95
3, 30586, Note_on_c, 1, 59, 0
3, 30588, Note_on_c, 1, 62, 95
3, 30598, Note_on_c, 1, 62, 0
3, 30600, Note_on_c, 1, 57, 95
3, 30610, Note_on_c, 1, 57, 0
3, 30612, Note_on_c, 1, 55, 95
3, 30622, Note_on_c, 1, 55, 0
3, 30624, Note_on_c, 1, 61, 95
3, 30644, Note_on_c, 1, 61, 0
3, 30648, Note_on_c, 1, 50, 95
3, 30668, Note_on_c, 1, 50, 0
3, 30672, Note_on_c, 1, 52, 95
3, 30692, Note_on_c, 1, 52, 0
3, 30696, Note_on_c, 1, 50, 95
3, 30706, Note_on_c, 1, 50, 0
3, 30708, Note_on_c, 1, 49, 95
3, 30718, Note_on_c, 1, 49, 0
3, 30720, Note_on_c, 1, 54, 95
3, 30730, Note_on_c, 1, 54, 0
3, 30732, Note_on_c, 1, 61, 95
3, 30742, Note_on_c, 1, 61, 0
3, 30744, Note_on_c, 1, 55, 95
3, 30754, Note_on_c, 1, 55, 0
3, 30756, Note_on_c, 1, 61, 95
3, 30766, Note_on_c, 1, 61, 0
3, 30768, Note_on_c, 1, 57, 95
3, 30778, Note_on_c, 1, 57, 0
3, 30780, Note_on_c, 1, 61, 95
3, 30790, Note_on_c, 1, 61, 0
3, 30792, Note_on_c, 1, 55, 95
3, 30802, Note_on_c, 1, 55, 0
3, 30804, Note_on_c, 1, 54, 95
3, 30814, Note_on_c, 1, 54, 0
3, 30816, Note_on_c, 1, 59, 95
3, 30836, Note_on_c, 1, 59, 0
3, 30840, Note_on_c, 1, 49, 95
3, 30860, Note_on_c, 1, 49, 0
3, 30864, Note_on_c, 1, 50, 95
3, 30884, Note_on_c, 1, 50, 0
3, 30888, Note_on_c, 1, 49, 95
3, 30898, Note_on_c, 1, 49, 0
3, 30900, Note_on_c, 1, 47, 95
3, 30910, Note_on_c, 1, 47, 0
3, 30912, Note_on_c, 1, 52, 95
3, 30922, Note_on_c, 1, 52, 0
3, 30924, Note_on_c, 1, 59, 95
3, 30934, Note_on_c, 1, 59, 0
3, 30936, Note_on_c, 1, 54, 95
3, 30946, Note_on_c, 1, 54, 0
3, 30948, Note_on_c, 1, 59, 95
3, 30958, Note_on_c, 1, 59, 0
3, 30960, Note_on_c, 1, 55, 95
3, 30970, Note_on_c, 1, 55, 0
3, 30972, Note_on_c, 1, 59, 95
3, 30982, Note_on_c, 1, 59, 0
3, 30984, Note_on_c, 1, 54, 95
3, 30994, Note_on_c, 1, 54, 0
3, 30996, Note_on_c, 1, 52, 95
3, 31006, Note_on_c, 1, 52, 0
3, 31008, Note_on_c, 1, 57, 95
3, 31028, Note_on_c, 1, 57, 0
3, 31032, Note_on_c, 1, 47, 95
3, 31052, Note_on_c, 1, 47, 0
3, 31056, Note_on_c, 1, 49, 95
3, 31076, Note_on_c, 1, 49, 0
3, 31080, Note_on_c, 1, 47, 95
3, 31090, Note_on_c, 1, 47, 0
3, 31092, Note_on_c, 1, 45, 95
3, 31102, Note_on_c, 1, 45, 0
3, 31104, Note_on_c, 1, 50, 95
3, 31124, Note_on_c, 1, 50, 0
3, 31128, Note_on_c, 1, 52, 95
3, 31148, Note_on_c, 1, 52, 0
3, 31152, Note_on_c, 1, 54, 95
3, 31172, Note_on_c, 1, 54, 0
3, 31176, Note_on_c, 1, 55, 95
3, 31196, Note_on_c, 1, 55, 0
3, 31200, Note_on_c, 1, 54, 95
3, 31220, Note_on_c, 1, 54, 0
3, 31224, Note_on_c, 1, 52, 95
3, 31244, Note_on_c, 1, 52, 0
3, 31248, Note_on_c, 1, 50, 95
3, 31268, Note_on_c, 1, 50, 0
3, 31272, Note_on_c, 1, 49, 95
3, 31292, Note_on_c, 1, 49, 0
3, 31296, Note_on_c, 1, 47, 95
3, 31316, Note_on_c, 1, 47, 0
3, 31320, Note_on_c, 1, 59, 95
3, 31330, Note_on_c, 1, 59, 0
3, 31332, Note_on_c, 1, 57, 95
3, 31342, Note_on_c, 1, 57, 0
3, 31344, Note_on_c, 1, 59, 95
3, 31364, Note_on_c, 1, 59, 0
3, 31368, Note_on_c, 1, 54, 95
3, 31388, Note_on_c, 1, 54, 0
3, 31392, Note_on_c, 1, 50, 95
3, 31412, Note_on_c, 1, 50, 0
3, 31416, Note_on_c, 1, 54, 95
3, 31426, Note_on_c, 1, 54, 0
3, 31428, Note_on_c, 1, 52, 95
3, 31438, Note_on_c, 1, 52, 0
3, 31440, Note_on_c, 1, 54, 95
3, 31460, Note_on_c, 1, 54, 0
3, 31464, Note_on_c, 1, 47, 95
3, 31484, Note_on_c, 1, 47, 0
3, 31488, Note_on_c, 1, 52, 95
3, 31508, Note_on_c, 1, 52, 0
3, 31512, Note_on_c, 1, 59, 95
3, 31522, Note_on_c, 1, 59, 0
3, 31524, Note_on_c, 1, 57, 95
3, 31534, Note_on_c, 1, 57, 0
3, 31536, Note_on_c, 1, 56, 95
3, 31556, Note_on_c, 1, 56, 0
3, 31560, Note_on_c, 1, 54, 95
3, 31580, Note_on_c, 1, 54, 0
3, 31584, Note_on_c, 1, 52, 95
3, 31604, Note_on_c, 1, 52, 0
3, 31608, Note_on_c, 1, 50, 95
3, 31628, Note_on_c, 1, 50, 0
3, 31632, Note_on_c, 1, 49, 95
3, 31652, Note_on_c, 1, 49, 0
3, 31656, Note_on_c, 1, 47, 95
3, 31676, Note_on_c, 1, 47, 0
3, 31680, Note_on_c, 1, 45, 95
3, 31700, Note_on_c, 1, 45, 0
3, 31704, Note_on_c, 1, 57, 95
3, 31724, Note_on_c, 1, 57, 0
3, 31728, Note_on_c, 1, 56, 95
3, 31748, Note_on_c, 1, 56, 0
3, 31752, Note_on_c, 1, 54, 95
3, 31772, Note_on_c, 1, 54, 0
3, 31776, Note_on_c, 1, 52, 95
3, 31800, Note_on_c, 1, 61, 95
3, 31820, Note_on_c, 1, 61, 0
3, 31824, Note_on_c, 1, 59, 95
3, 31844, Note_on_c, 1, 59, 0
3, 31848, Note_on_c, 1, 57, 95
3, 31856, Note_on_c, 1, 52, 0
3, 31868, Note_on_c, 1, 57, 0
3, 31872, Note_on_c, 1, 56, 95
3, 31882, Note_on_c, 1, 56, 0
3, 31884, Note_on_c, 1, 52, 95
3, 31894, Note_on_c, 1, 52, 0
3, 31896, Note_on_c, 1, 50, 95
3, 31906, Note_on_c, 1, 50, 0
3, 31908, Note_on_c, 1, 56, 95
3, 31918, Note_on_c, 1, 56, 0
3, 31920, Note_on_c, 1, 49, 95
3, 31930, Note_on_c, 1, 49, 0
3, 31932, Note_on_c, 1, 56, 95
3, 31942, Note_on_c, 1, 56, 0
3, 31944, Note_on_c, 1, 47, 95
3, 31954, Note_on_c, 1, 47, 0
3, 31956, Note_on_c, 1, 56, 95
3, 31966, Note_on_c, 1, 56, 0
3, 31968, Note_on_c, 1, 45, 95
3, 31978, Note_on_c, 1, 45, 0
3, 31980, Note_on_c, 1, 57, 95
3, 31990, Note_on_c, 1, 57, 0
3, 31992, Note_on_c, 1, 47, 95
3, 32002, Note_on_c, 1, 47, 0
3, 32004, Note_on_c, 1, 57, 95
3, 32014, Note_on_c, 1, 57, 0
3, 32016, Note_on_c, 1, 49, 95
3, 32026, Note_on_c, 1, 49, 0
3, 32028, Note_on_c, 1, 57, 95
3, 32038, Note_on_c, 1, 57, 0
3, 32040, Note_on_c, 1, 45, 95
3, 32050, Note_on_c, 1, 45, 0
3, 32052, Note_on_c, 1, 57, 95
3, 32062, Note_on_c, 1, 57, 0
3, 32064, Note_on_c, 1, 50, 95
3, 32074, Note_on_c, 1, 50, 0
3, 32076, Note_on_c, 1, 57, 95
3, 32086, Note_on_c, 1, 57, 0
3, 32088, Note_on_c, 1, 52, 95
3, 32098, Note_on_c, 1, 52, 0
3, 32100, Note_on_c, 1, 57, 95
3, 32110, Note_on_c, 1, 57, 0
3, 32112, Note_on_c, 1, 54, 95
3, 32122, Note_on_c, 1, 54, 0
3, 32124, Note_on_c, 1, 57, 95
3, 32134, Note_on_c, 1, 57, 0
3, 32136, Note_on_c, 1, 50, 95
3, 32146, Note_on_c, 1, 50, 0
3, 32148, Note_on_c, 1, 57, 95
3, 32158, Note_on_c, 1, 57, 0
3, 32160, Note_on_c, 1, 44, 95
3, 32170, Note_on_c, 1, 44, 0
3, 32172, Note_on_c, 1, 56, 95
3, 32182, Note_on_c, 1, 56, 0
3, 32184, Note_on_c, 1, 45, 95
3, 32194, Note_on_c, 1, 45, 0
3, 32196, Note_on_c, 1, 56, 95
3, 32206, Note_on_c, 1, 56, 0
3, 32208, Note_on_c, 1, 47, 95
3, 32218, Note_on_c, 1, 47, 0
3, 32220, Note_on_c, 1, 56, 95
3, 32230, Note_on_c, 1, 56, 0
3, 32232, Note_on_c, 1, 44, 95
3, 32242, Note_on_c, 1, 44, 0
3, 32244, Note_on_c, 1, 56, 95
3, 32254, Note_on_c, 1, 56, 0
3, 32256, Note_on_c, 1, 49, 95
3, 32266, Note_on_c, 1, 49, 0
3, 32268, Note_on_c, 1, 56, 95
3, 32278, Note_on_c, 1, 56, 0
3, 32280, Note_on_c, 1, 50, 95
3, 32290, Note_on_c, 1, 50, 0
3, 32292, Note_on_c, 1, 56, 95
3, 32302, Note_on_c, 1, 56, 0
3, 32304, Note_on_c, 1, 52, 95
3, 32314, Note_on_c, 1, 52, 0
3, 32316, Note_on_c, 1, 56, 95
3, 32326, Note_on_c, 1, 56, 0
3, 32328, Note_on_c, 1, 49, 95
3, 32338, Note_on_c, 1, 49, 0
3, 32340, Note_on_c, 1, 56, 95
3, 32350, Note_on_c, 1, 56, 0
3, 32352, Note_on_c, 1, 42, 95
3, 32362, Note_on_c, 1, 42, 0
3, 32364, Note_on_c, 1, 54, 95
3, 32374, Note_on_c, 1, 54, 0
3, 32376, Note_on_c, 1, 44, 95
3, 32386, Note_on_c, 1, 44, 0
3, 32388, Note_on_c, 1, 54, 95
3, 32398, Note_on_c, 1, 54, 0
3, 32400, Note_on_c, 1, 45, 95
3, 32410, Note_on_c, 1, 45, 0
3, 32412, Note_on_c, 1, 54, 95
3, 32422, Note_on_c, 1, 54, 0
3, 32424, Note_on_c, 1, 42, 95
3, 32434, Note_on_c, 1, 42, 0
3, 32436, Note_on_c, 1, 54, 95
3, 32446, Note_on_c, 1, 54, 0
3, 32448, Note_on_c, 1, 47, 95
3, 32458, Note_on_c, 1, 47, 0
3, 32460, Note_on_c, 1, 54, 95
3, 32470, Note_on_c, 1, 54, 0
3, 32472, Note_on_c, 1, 49, 95
3, 32482, Note_on_c, 1, 49, 0
3, 32484, Note_on_c, 1, 54, 95
3, 32494, Note_on_c, 1, 54, 0
3, 32496, Note_on_c, 1, 50, 95
3, 32506, Note_on_c, 1, 50, 0
3, 32508, Note_on_c, 1, 54, 95
3, 32518, Note_on_c, 1, 54, 0
3, 32520, Note_on_c, 1, 47, 95
3, 32530, Note_on_c, 1, 47, 0
3, 32532, Note_on_c, 1, 54, 95
3, 32542, Note_on_c, 1, 54, 0
3, 32544, Note_on_c, 1, 40, 95
3, 32554, Note_on_c, 1, 40, 0
3, 32556, Note_on_c, 1, 52, 95
3, 32566, Note_on_c, 1, 52, 0
3, 32568, Note_on_c, 1, 42, 95
3, 32578, Note_on_c, 1, 42, 0
3, 32580, Note_on_c, 1, 52, 95
3, 32590, Note_on_c, 1, 52, 0
3, 32592, Note_on_c, 1, 44, 95
3, 32602, Note_on_c, 1, 44, 0
3, 32604, Note_on_c, 1, 52, 95
3, 32614, Note_on_c, 1, 52, 0
3, 32616, Note_on_c, 1, 40, 95
3, 32626, Note_on_c, 1, 40, 0
3, 32628, Note_on_c, 1, 52, 95
3, 32638, Note_on_c, 1, 52, 0
3, 32640, Note_on_c, 1, 45, 95
3, 32650, Note_on_c, 1, 45, 0
3, 32652, Note_on_c, 1, 57, 95
3, 32662, Note_on_c, 1, 57, 0
3, 32664, Note_on_c, 1, 47, 95
3, 32674, Note_on_c, 1, 47, 0
3, 32676, Note_on_c, 1, 57, 95
3, 32686, Note_on_c, 1, 57, 0
3, 32688, Note_on_c, 1, 49, 95
3, 32698, Note_on_c, 1, 49, 0
3, 32700, Note_on_c, 1, 57, 95
3, 32710, Note_on_c, 1, 57, 0
3, 32712, Note_on_c, 1, 47, 95
3, 32722, Note_on_c, 1, 47, 0
3, 32724, Note_on_c, 1, 57, 95
3, 32734, Note_on_c, 1, 57, 0
3, 32736, Note_on_c, 1, 49, 95
3, 32746, Note_on_c, 1, 49, 0
3, 32748, Note_on_c, 1, 57, 95
3, 32758, Note_on_c, 1, 57, 0
3, 32760, Note_on_c, 1, 50, 95
3, 32770, Note_on_c, 1, 50, 0
3, 32772, Note_on_c, 1, 57, 95
3, 32782, Note_on_c, 1, 57, 0
3, 32784, Note_on_c, 1, 52, 95
3, 32794, Note_on_c, 1, 52, 0
3, 32796, Note_on_c, 1, 57, 95
3, 32806, Note_on_c, 1, 57, 0
3, 32808, Note_on_c, 1, 52, 95
3, 32818, Note_on_c, 1, 52, 0
3, 32820, Note_on_c, 1, 56, 95
3, 32830, Note_on_c, 1, 56, 0
3, 32832, Note_on_c, 1, 45, 95
3, 32842, Note_on_c, 1, 45, 0
3, 32844, Note_on_c, 1, 57, 95
3, 32849, Note_on_c, 1, 57, 0
3, 32850, Note_on_c, 1, 55, 95
3, 32855, Note_on_c, 1, 55, 0
3, 32856, Note_on_c, 1, 54, 95
3, 32866, Note_on_c, 1, 54, 0
3, 32868, Note_on_c, 1, 57, 95
3, 32878, Note_on_c, 1, 57, 0
3, 32880, Note_on_c, 1, 52, 95
3, 32890, Note_on_c, 1, 52, 0
3, 32892, Note_on_c, 1, 57, 95
3, 32902, Note_on_c, 1, 57, 0
3, 32904, Note_on_c, 1, 50, 95
3, 32914, Note_on_c, 1, 50, 0
3, 32916, Note_on_c, 1, 57, 95
3, 32926, Note_on_c, 1, 57, 0
3, 32928, Note_on_c, 1, 49, 95
3, 32940, Note_on_c, 1, 55, 95
3, 32948, Note_on_c, 1, 49, 0
3, 32950, Note_on_c, 1, 55, 0
3, 32952, Note_on_c, 1, 50, 95
3, 32952, Note_on_c, 1, 54, 95
3, 32962, Note_on_c, 1, 54, 0
3, 32964, Note_on_c, 1, 57, 95
3, 32972, Note_on_c, 1, 50, 0
3, 32974, Note_on_c, 1, 57, 0
3, 32976, Note_on_c, 1, 49, 95
3, 32976, Note_on_c, 1, 52, 95
3, 32986, Note_on_c, 1, 52, 0
3, 32988, Note_on_c, 1, 57, 95
3, 32996, Note_on_c, 1, 49, 0
3, 32998, Note_on_c, 1, 57, 0
3, 33000, Note_on_c, 1, 47, 95
3, 33000, Note_on_c, 1, 50, 95
3, 33010, Note_on_c, 1, 50, 0
3, 33012, Note_on_c, 1, 57, 95
3, 33020, Note_on_c, 1, 47, 0
3, 33022, Note_on_c, 1, 57, 0
3, 33024, Note_on_c, 1, 45, 95
3, 33024, Note_on_c, 1, 49, 95
3, 33044, Note_on_c, 1, 49, 0
3, 33048, Note_on_c, 1, 50, 95
3, 33068, Note_on_c, 1, 50, 0
3, 33072, Note_on_c, 1, 49, 95
3, 33092, Note_on_c, 1, 49, 0
3, 33096, Note_on_c, 1, 47, 95
3, 33103, Note_on_c, 1, 45, 0
3, 33116, Note_on_c, 1, 47, 0
3, 33120, Note_on_c, 1, 45, 95
3, 33199, Note_on_c, 1, 45, 0
3, 33240, Note_on_c, 1, 50, 95
3, 33260, Note_on_c, 1, 50, 0
3, 33264, Note_on_c, 1, 49, 95
3, 33284, Note_on_c, 1, 49, 0
3, 33288, Note_on_c, 1, 47, 95
3, 33308, Note_on_c, 1, 47, 0
3, 33312, Note_on_c, 1, 45, 95
3, 33332, Note_on_c, 1, 45, 0
3, 33336, Note_on_c, 1, 47, 95
3, 33356, Note_on_c, 1, 47, 0
3, 33360, Note_on_c, 1, 45, 95
3, 33380, Note_on_c, 1, 45, 0
3, 33384, Note_on_c, 1, 43, 95
3, 33404, Note_on_c, 1, 43, 0
3, 33408, Note_on_c, 1, 42, 95
3, 33428, Note_on_c, 1, 42, 0
3, 33432, Note_on_c, 1, 47, 95
3, 33452, Note_on_c, 1, 47, 0
3, 33456, Note_on_c, 1, 45, 95
3, 33476, Note_on_c, 1, 45, 0
3, 33480, Note_on_c, 1, 43, 95
3, 33500, Note_on_c, 1, 43, 0
3, 33504, Note_on_c, 1, 42, 95
3, 33524, Note_on_c, 1, 42, 0
3, 33528, Note_on_c, 1, 43, 95
3, 33548, Note_on_c, 1, 43, 0
3, 33552, Note_on_c, 1, 42, 95
3, 33572, Note_on_c, 1, 42, 0
3, 33576, Note_on_c, 1, 40, 95
3, 33596, Note_on_c, 1, 40, 0
3, 33600, Note_on_c, 1, 38, 95
3, 33610, Note_on_c, 1, 38, 0
3, 33612, Note_on_c, 1, 62, 95
3, 33617, Note_on_c, 1, 62, 0
3, 33618, Note_on_c, 1, 61, 95
3, 33623, Note_on_c, 1, 61, 0
3, 33624, Note_on_c, 1, 59, 95
3, 33634, Note_on_c, 1, 59, 0
3, 33636, Note_on_c, 1, 62, 95
3, 33646, Note_on_c, 1, 62, 0
3, 33648, Note_on_c, 1, 57, 95
3, 33658, Note_on_c, 1, 57, 0
3, 33660, Note_on_c, 1, 62, 95
3, 33670, Note_on_c, 1, 62, 0
3, 33672, Note_on_c, 1, 55, 95
3, 33682, Note_on_c, 1, 55, 0
3, 33684, Note_on_c, 1, 62, 95
3, 33694, Note_on_c, 1, 62, 0
3, 33696, Note_on_c, 1, 54, 95
3, 33708, Note_on_c, 1, 60, 95
3, 33716, Note_on_c, 1, 54, 0
3, 33718, Note_on_c, 1, 60, 0
3, 33720, Note_on_c, 1, 55, 95
3, 33720, Note_on_c, 1, 59, 95
3, 33730, Note_on_c, 1, 59, 0
3, 33732, Note_on_c, 1, 62, 95
3, 33740, Note_on_c, 1, 55, 0
3, 33742, Note_on_c, 1, 62, 0
3, 33744, Note_on_c, 1, 54, 95
3, 33744, Note_on_c, 1, 57, 95
3, 33754, Note_on_c, 1, 57, 0
3, 33756, Note_on_c, 1, 62, 95
3, 33764, Note_on_c, 1, 54, 0
3, 33766, Note_on_c, 1, 62, 0
3, 33768, Note_on_c, 1, 52, 95
3, 33768, Note_on_c, 1, 55, 95
3, 33778, Note_on_c, 1, 55, 0
3, 33780, Note_on_c, 1, 62, 95
3, 33788, Note_on_c, 1, 52, 0
3, 33790, Note_on_c, 1, 62, 0
3, 33792, Note_on_c, 1, 50, 95
3, 33792, Note_on_c, 1, 54, 95
3, 33812, Note_on_c, 1, 54, 0
3, 33816, Note_on_c, 1, 55, 95
3, 33836, Note_on_c, 1, 55, 0
3, 33840, Note_on_c, 1, 54, 95
3, 33860, Note_on_c, 1, 54, 0
3, 33864, Note_on_c, 1, 52, 95
3, 33871, Note_on_c, 1, 50, 0
3, 33884, Note_on_c, 1, 52, 0
3, 33888, Note_on_c, 1, 50, 95
3, 33984, Note_on_c, 1, 50, 0
3, 34008, Note_on_c, 1, 55, 95
3, 34028, Note_on_c, 1, 55, 0
3, 34032, Note_on_c, 1, 54, 95
3, 34052, Note_on_c, 1, 54, 0
3, 34056, Note_on_c, 1, 52, 95
3, 34076, Note_on_c, 1, 52, 0
3, 34080, Note_on_c, 1, 50, 95
3, 34100, Note_on_c, 1, 50, 0
3, 34104, Note_on_c, 1, 52, 95
3, 34124, Note_on_c, 1, 52, 0
3, 34128, Note_on_c, 1, 50, 95
3, 34148, Note_on_c, 1, 50, 0
3, 34152, Note_on_c, 1, 48, 95
3, 34172, Note_on_c, 1, 48, 0
3, 34176, Note_on_c, 1, 47, 95
3, 34196, Note_on_c, 1, 47, 0
3, 34200, Note_on_c, 1, 52, 95
3, 34220, Note_on_c, 1, 52, 0
3, 34224, Note_on_c, 1, 50, 95
3, 34244, Note_on_c, 1, 50, 0
3, 34248, Note_on_c, 1, 48, 95
3, 34268, Note_on_c, 1, 48, 0
3, 34272, Note_on_c, 1, 47, 95
3, 34292, Note_on_c, 1, 47, 0
3, 34296, Note_on_c, 1, 48, 95
3, 34316, Note_on_c, 1, 48, 0
3, 34320, Note_on_c, 1, 47, 95
3, 34340, Note_on_c, 1, 47, 0
3, 34344, Note_on_c, 1, 45, 95
3, 34364, Note_on_c, 1, 45, 0
3, 34368, Note_on_c, 1, 43, 95
3, 34373, Note_on_c, 1, 43, 0
3, 34374, Note_on_c, 1, 45, 95
3, 34379, Note_on_c, 1, 45, 0
3, 34380, Note_on_c, 1, 43, 95
3, 34385, Note_on_c, 1, 43, 0
3, 34386, Note_on_c, 1, 45, 95
3, 34391, Note_on_c, 1, 45, 0
3, 34392, Note_on_c, 1, 43, 95
3, 34397, Note_on_c, 1, 43, 0
3, 34398, Note_on_c, 1, 45, 95
3, 34403, Note_on_c, 1, 45, 0
3, 34404, Note_on_c, 1, 43, 95
3, 34409, Note_on_c, 1, 43, 0
3, 34410, Note_on_c, 1, 45, 95
3, 34415, Note_on_c, 1, 45, 0
3, 34416, Note_on_c, 1, 43, 95
3, 34421, Note_on_c, 1, 43, 0
3, 34422, Note_on_c, 1, 45, 95
3, 34427, Note_on_c, 1, 45, 0
3, 34428, Note_on_c, 1, 43, 95
3, 34433, Note_on_c, 1, 43, 0
3, 34434, Note_on_c, 1, 45, 95
3, 34439, Note_on_c, 1, 45, 0
3, 34440, Note_on_c, 1, 43, 95
3, 34445, Note_on_c, 1, 43, 0
3, 34446, Note_on_c, 1, 45, 95
3, 34451, Note_on_c, 1, 45, 0
3, 34452, Note_on_c, 1, 43, 95
3, 34457, Note_on_c, 1, 43, 0
3, 34458, Note_on_c, 1, 45, 95
3, 34463, Note_on_c, 1, 45, 0
3, 34464, Note_on_c, 1, 43, 95
3, 34469, Note_on_c, 1, 43, 0
3, 34470, Note_on_c, 1, 45, 95
3, 34475, Note_on_c, 1, 45, 0
3, 34476, Note_on_c, 1, 43, 95
3, 34481, Note_on_c, 1, 43, 0
3, 34482, Note_on_c, 1, 45, 95
3, 34487, Note_on_c, 1, 45, 0
3, 34488, Note_on_c, 1, 43, 95
3, 34493, Note_on_c, 1, 43, 0
3, 34494, Note_on_c, 1, 45, 95
3, 34499, Note_on_c, 1, 45, 0
3, 34500, Note_on_c, 1, 43, 95
3, 34505, Note_on_c, 1, 43, 0
3, 34506, Note_on_c, 1, 45, 95
3, 34511, Note_on_c, 1, 45, 0
3, 34512, Note_on_c, 1, 43, 95
3, 34517, Note_on_c, 1, 43, 0
3, 34518, Note_on_c, 1, 45, 95
3, 34523, Note_on_c, 1, 45, 0
3, 34524, Note_on_c, 1, 43, 95
3, 34529, Note_on_c, 1, 43, 0
3, 34530, Note_on_c, 1, 45, 95
3, 34535, Note_on_c, 1, 45, 0
3, 34536, Note_on_c, 1, 43, 95
3, 34541, Note_on_c, 1, 43, 0
3, 34542, Note_on_c, 1, 45, 95
3, 34547, Note_on_c, 1, 45, 0
3, 34548, Note_on_c, 1, 43, 95
3, 34553, Note_on_c, 1, 43, 0
3, 34554, Note_on_c, 1, 45, 95
3, 34559, Note_on_c, 1, 45, 0
3, 34560, Note_on_c, 1, 43, 95
3, 34570, Note_on_c, 1, 43, 0
3, 34572, Note_on_c, 1, 67, 95
3, 34582, Note_on_c, 1, 67, 0
3, 34584, Note_on_c, 1, 66, 95
3, 34594, Note_on_c, 1, 66, 0
3, 34596, Note_on_c, 1, 67, 95
3, 34606, Note_on_c, 1, 67, 0
3, 34608, Note_on_c, 1, 64, 95
3, 34618, Note_on_c, 1, 64, 0
3, 34620, Note_on_c, 1, 67, 95
3, 34630, Note_on_c, 1, 67, 0
3, 34632, Note_on_c, 1, 62, 95
3, 34642, Note_on_c, 1, 62, 0
3, 34644, Note_on_c, 1, 67, 95
3, 34654, Note_on_c, 1, 67, 0
3, 34656, Note_on_c, 1, 61, 95
3, 34666, Note_on_c, 1, 61, 0
3, 34668, Note_on_c, 1, 67, 95
3, 34678, Note_on_c, 1, 67, 0
3, 34680, Note_on_c, 1, 59, 95
3, 34690, Note_on_c, 1, 59, 0
3, 34692, Note_on_c, 1, 67, 95
3, 34702, Note_on_c, 1, 67, 0
3, 34704, Note_on_c, 1, 57, 95
3, 34714, Note_on_c, 1, 57, 0
3, 34716, Note_on_c, 1, 67, 95
3, 34726, Note_on_c, 1, 67, 0
3, 34728, Note_on_c, 1, 55, 95
3, 34738, Note_on_c, 1, 55, 0
3, 34740, Note_on_c, 1, 67, 95
3, 34750, Note_on_c, 1, 67, 0
3, 34752, Note_on_c, 1, 54, 95
3, 34772, Note_on_c, 1, 54, 0
3, 34776, Note_on_c, 1, 55, 95
3, 34796, Note_on_c, 1, 55, 0
3, 34800, Note_on_c, 1, 57, 95
3, 34820, Note_on_c, 1, 57, 0
3, 34824, Note_on_c, 1, 55, 95
3, 34834, Note_on_c, 1, 55, 0
3, 34836, Note_on_c, 1, 54, 95
3, 34846, Note_on_c, 1, 54, 0
3, 34848, Note_on_c, 1, 59, 95
3, 34858, Note_on_c, 1, 59, 0
3, 34860, Note_on_c, 1, 66, 95
3, 34870, Note_on_c, 1, 66, 0
3, 34872, Note_on_c, 1, 61, 95
3, 34882, Note_on_c, 1, 61, 0
3, 34884, Note_on_c, 1, 66, 95
3, 34894, Note_on_c, 1, 66, 0
3, 34896, Note_on_c, 1, 62, 95
3, 34906, Note_on_c, 1, 62, 0
3, 34908, Note_on_c, 1, 66, 95
3, 34918, Note_on_c, 1, 66, 0
3, 34920, Note_on_c, 1, 61, 95
3, 34930, Note_on_c, 1, 61, 0
3, 34932, Note_on_c, 1, 59, 95
3, 34942, Note_on_c, 1, 59, 0
3, 34944, Note_on_c, 1, 64, 95
3, 34964, Note_on_c, 1, 64, 0
3, 34968, Note_on_c, 1, 54, 95
3, 34988, Note_on_c, 1, 54, 0
3, 34992, Note_on_c, 1, 55, 95
3, 35012, Note_on_c, 1, 55, 0
3, 35016, Note_on_c, 1, 54, 95
3, 35026, Note_on_c, 1, 54, 0
3, 35028, Note_on_c, 1, 52, 95
3, 35038, Note_on_c, 1, 52, 0
3, 35040, Note_on_c, 1, 57, 95
3, 35050, Note_on_c, 1, 57, 0
3, 35052, Note_on_c, 1, 64, 95
3, 35062, Note_on_c, 1, 64, 0
3, 35064, Note_on_c, 1, 59, 95
3, 35074, Note_on_c, 1, 59, 0
3, 35076, Note_on_c, 1, 64, 95
3, 35086, Note_on_c, 1, 64, 0
3, 35088, Note_on_c, 1, 61, 95
3, 35098, Note_on_c, 1, 61, 0
3, 35100, Note_on_c, 1, 64, 95
3, 35110, Note_on_c, 1, 64, 0
3, 35112, Note_on_c, 1, 59, 95
3, 35122, Note_on_c, 1, 59, 0
3, 35124, Note_on_c, 1, 57, 95
3, 35134, Note_on_c, 1, 57, 0
3, 35136, Note_on_c, 1, 62, 95
3, 35156, Note_on_c, 1, 62, 0
3, 35160, Note_on_c, 1, 64, 95
3, 35180, Note_on_c, 1, 64, 0
3, 35184, Note_on_c, 1, 62, 95
3, 35204, Note_on_c, 1, 62, 0
3, 35208, Note_on_c, 1, 60, 95
3, 35228, Note_on_c, 1, 60, 0
3, 35232, Note_on_c, 1, 59, 95
3, 35252, Note_on_c, 1, 59, 0
3, 35256, Note_on_c, 1, 57, 95
3, 35276, Note_on_c, 1, 57, 0
3, 35280, Note_on_c, 1, 55, 95
3, 35300, Note_on_c, 1, 55, 0
3, 35304, Note_on_c, 1, 54, 95
3, 35324, Note_on_c, 1, 54, 0
3, 35328, Note_on_c, 1, 55, 95
3, 35348, Note_on_c, 1, 55, 0
3, 35352, Note_on_c, 1, 57, 95
3, 35372, Note_on_c, 1, 57, 0
3, 35376, Note_on_c, 1, 55, 95
3, 35396, Note_on_c, 1, 55, 0
3, 35400, Note_on_c, 1, 54, 95
3, 35420, Note_on_c, 1, 54, 0
3, 35424, Note_on_c, 1, 52, 95
3, 35444, Note_on_c, 1, 52, 0
3, 35448, Note_on_c, 1, 50, 95
3, 35468, Note_on_c, 1, 50, 0
3, 35472, Note_on_c, 1, 49, 95
3, 35492, Note_on_c, 1, 49, 0
3, 35496, Note_on_c, 1, 47, 95
3, 35516, Note_on_c, 1, 47, 0
3, 35520, Note_on_c, 1, 45, 95
3, 35540, Note_on_c, 1, 45, 0
3, 35544, Note_on_c, 1, 59, 95
3, 35564, Note_on_c, 1, 59, 0
3, 35568, Note_on_c, 1, 57, 95
3, 35588, Note_on_c, 1, 57, 0
3, 35592, Note_on_c, 1, 55, 95
3, 35612, Note_on_c, 1, 55, 0
3, 35616, Note_on_c, 1, 54, 95
3, 35636, Note_on_c, 1, 54, 0
3, 35640, Note_on_c, 1, 52, 95
3, 35660, Note_on_c, 1, 52, 0
3, 35664, Note_on_c, 1, 50, 95
3, 35684, Note_on_c, 1, 50, 0
3, 35688, Note_on_c, 1, 49, 95
3, 35708, Note_on_c, 1, 49, 0
3, 35712, Note_on_c, 1, 47, 95
3, 35732, Note_on_c, 1, 47, 0
3, 35736, Note_on_c, 1, 49, 95
3, 35756, Note_on_c, 1, 49, 0
3, 35760, Note_on_c, 1, 50, 95
3, 35780, Note_on_c, 1, 50, 0
3, 35784, Note_on_c, 1, 49, 95
3, 35804, Note_on_c, 1, 49, 0
3, 35808, Note_on_c, 1, 47, 95
3, 35828, Note_on_c, 1, 47, 0
3, 35832, Note_on_c, 1, 45, 95
3, 35852, Note_on_c, 1, 45, 0
3, 35856, Note_on_c, 1, 44, 95
3, 35876, Note_on_c, 1, 44, 0
3, 35880, Note_on_c, 1, 42, 95
3, 35900, Note_on_c, 1, 42, 0
3, 35904, Note_on_c, 1, 40, 95
3, 35924, Note_on_c, 1, 40, 0
3, 35928, Note_on_c, 1, 57, 95
3, 35948, Note_on_c, 1, 57, 0
3, 35952, Note_on_c, 1, 56, 95
3, 35972, Note_on_c, 1, 56, 0
3, 35976, Note_on_c, 1, 54, 95
3, 35996, Note_on_c, 1, 54, 0
3, 36000, Note_on_c, 1, 52, 95
3, 36020, Note_on_c, 1, 52, 0
3, 36024, Note_on_c, 1, 50, 95
3, 36044, Note_on_c, 1, 50, 0
3, 36048, Note_on_c, 1, 49, 95
3, 36068, Note_on_c, 1, 49, 0
3, 36072, Note_on_c, 1, 47, 95
3, 36092, Note_on_c, 1, 47, 0
3, 36096, Note_on_c, 1, 45, 95
3, 36120, Note_on_c, 1, 52, 95
3, 36140, Note_on_c, 1, 52, 0
3, 36144, Note_on_c, 1, 50, 95
3, 36164, Note_on_c, 1, 50, 0
3, 36168, Note_on_c, 1, 54, 95
3, 36176, Note_on_c, 1, 45, 0
3, 36188, Note_on_c, 1, 54, 0
3, 36192, Note_on_c, 1, 45, 95
3, 36216, Note_on_c, 1, 52, 95
3, 36236, Note_on_c, 1, 52, 0
3, 36240, Note_on_c, 1, 50, 95
3, 36260, Note_on_c, 1, 50, 0
3, 36264, Note_on_c, 1, 54, 95
3, 36272, Note_on_c, 1, 45, 0
3, 36284, Note_on_c, 1, 54, 0
3, 36288, Note_on_c, 1, 45, 95
3, 36312, Note_on_c, 1, 52, 95
3, 36332, Note_on_c, 1, 52, 0
3, 36336, Note_on_c, 1, 50, 95
3, 36356, Note_on_c, 1, 50, 0
3, 36360, Note_on_c, 1, 55, 95
3, 36368, Note_on_c, 1, 45, 0
3, 36380, Note_on_c, 1, 55, 0
3, 36384, Note_on_c, 1, 45, 95
3, 36408, Note_on_c, 1, 54, 95
3, 36428, Note_on_c, 1, 54, 0
3, 36432, Note_on_c, 1, 52, 95
3, 36452, Note_on_c, 1, 52, 0
3, 36456, Note_on_c, 1, 55, 95
3, 36464, Note_on_c, 1, 45, 0
3, 36476, Note_on_c, 1, 55, 0
3, 36480, Note_on_c, 1, 45, 95
3, 36504, Note_on_c, 1, 55, 95
3, 36524, Note_on_c, 1, 55, 0
3, 36528, Note_on_c, 1, 54, 95
3, 36548, Note_on_c, 1, 54, 0
3, 36552, Note_on_c, 1, 57, 95
3, 36560, Note_on_c, 1, 45, 0
3, 36572, Note_on_c, 1, 57, 0
3, 36576, Note_on_c, 1, 45, 95
3, 36600, Note_on_c, 1, 57, 95
3, 36620, Note_on_c, 1, 57, 0
3, 36624, Note_on_c, 1, 55, 95
3, 36644, Note_on_c, 1, 55, 0
3, 36648, Note_on_c, 1, 59, 95
3, 36656, Note_on_c, 1, 45, 0
3, 36668, Note_on_c, 1, 59, 0
3, 36672, Note_on_c, 1, 45, 95
3, 36696, Note_on_c, 1, 59, 95
3, 36716, Note_on_c, 1, 59, 0
3, 36720, Note_on_c, 1, 57, 95
3, 36740, Note_on_c, 1, 57, 0
3, 36744, Note_on_c, 1, 61, 95
3, 36752, Note_on_c, 1, 45, 0
3, 36764, Note_on_c, 1, 61, 0
3, 36768, Note_on_c, 1, 45, 95
3, 36792, Note_on_c, 1, 61, 95
3, 36812, Note_on_c, 1, 61, 0
3, 36816, Note_on_c, 1, 59, 95
3, 36836, Note_on_c, 1, 59, 0
3, 36840, Note_on_c, 1, 62, 95
3, 36848, Note_on_c, 1, 45, 0
3, 36860, Note_on_c, 1, 62, 0
3, 36864, Note_on_c, 1, 45, 95
3, 36888, Note_on_c, 1, 59, 95
3, 36908, Note_on_c, 1, 59, 0
3, 36912, Note_on_c, 1, 57, 95
3, 36932, Note_on_c, 1, 57, 0
3, 36936, Note_on_c, 1, 61, 95
3, 36944, Note_on_c, 1, 45, 0
3, 36956, Note_on_c, 1, 61, 0
3, 36960, Note_on_c, 1, 45, 95
3, 36984, Note_on_c, 1, 57, 95
3, 37004, Note_on_c, 1, 57, 0
3, 37008, Note_on_c, 1, 55, 95
3, 37028, Note_on_c, 1, 55, 0
3, 37032, Note_on_c, 1, 59, 95
3, 37040, Note_on_c, 1, 45, 0
3, 37052, Note_on_c, 1, 59, 0
3, 37056, Note_on_c, 1, 45, 95
3, 37080, Note_on_c, 1, 55, 95
3, 37100, Note_on_c, 1, 55, 0
3, 37104, Note_on_c, 1, 54, 95
3, 37124, Note_on_c, 1, 54, 0
3, 37128, Note_on_c, 1, 57, 95
3, 37136, Note_on_c, 1, 45, 0
3, 37148, Note_on_c, 1, 57, 0
3, 37152, Note_on_c, 1, 45, 95
3, 37176, Note_on_c, 1, 54, 95
3, 37196, Note_on_c, 1, 54, 0
3, 37200, Note_on_c, 1, 52, 95
3, 37220, Note_on_c, 1, 52, 0
3, 37224, Note_on_c, 1, 55, 95
3, 37232, Note_on_c, 1, 45, 0
3, 37244, Note_on_c, 1, 55, 0
3, 37248, Note_on_c, 1, 45, 95
3, 37253, Note_on_c, 1, 45, 0
3, 37824, Note_on_c, 1, 53, 95
3, 37829, Note_on_c, 1, 53, 0
3, 37848, Note_on_c, 1, 58, 95
3, 37853, Note_on_c, 1, 58, 0
3, 37872, Note_on_c, 1, 57, 95
3, 37877, Note_on_c, 1, 57, 0
3, 37896, Note_on_c, 1, 55, 95
3, 37901, Note_on_c, 1, 55, 0
3, 37920, Note_on_c, 1, 57, 95
3, 37925, Note_on_c, 1, 57, 0
3, 37944, Note_on_c, 1, 58, 95
3, 37949, Note_on_c, 1, 58, 0
3, 37968, Note_on_c, 1, 57, 95
3, 37973, Note_on_c, 1, 57, 0
3, 37992, Note_on_c, 1, 55, 95
3, 37997, Note_on_c, 1, 55, 0
3, 38016, Note_on_c, 1, 57, 95
3, 38021, Note_on_c, 1, 57, 0
3, 38040, Note_on_c, 1, 62, 95
3, 38045, Note_on_c, 1, 62, 0
3, 38064, Note_on_c, 1, 61, 95
3, 38069, Note_on_c, 1, 61, 0
3, 38088, Note_on_c, 1, 60, 95
3, 38093, Note_on_c, 1, 60, 0
3, 38112, Note_on_c, 1, 59, 95
3, 38117, Note_on_c, 1, 59, 0
3, 38136, Note_on_c, 1, 58, 95
3, 38141, Note_on_c, 1, 58, 0
3, 38160, Note_on_c, 1, 57, 95
3, 38165, Note_on_c, 1, 57, 0
3, 38184, Note_on_c, 1, 56, 95
3, 38189, Note_on_c, 1, 56, 0
3, 38208, Note_on_c, 1, 55, 95
3, 38213, Note_on_c, 1, 55, 0
3, 38232, Note_on_c, 1, 54, 95
3, 38237, Note_on_c, 1, 54, 0
3, 38256, Note_on_c, 1, 53, 95
3, 38261, Note_on_c, 1, 53, 0
3, 38280, Note_on_c, 1, 52, 95
3, 38285, Note_on_c, 1, 52, 0
3, 38304, Note_on_c, 1, 51, 95
3, 38309, Note_on_c, 1, 51, 0
3, 38328, Note_on_c, 1, 50, 95
3, 38333, Note_on_c, 1, 50, 0
3, 38352, Note_on_c, 1, 49, 95
3, 38357, Note_on_c, 1, 49, 0
3, 38376, Note_on_c, 1, 48, 95
3, 38381, Note_on_c, 1, 48, 0
3, 38400, Note_on_c, 1, 47, 95
3, 38405, Note_on_c, 1, 47, 0
3, 38424, Note_on_c, 1, 46, 95
3, 38429, Note_on_c, 1, 46, 0
3, 38448, Note_on_c, 1, 45, 95
3, 38453, Note_on_c, 1, 45, 0
3, 38472, Note_on_c, 1, 44, 95
3, 38477, Note_on_c, 1, 44, 0
3, 38496, Note_on_c, 1, 45, 95
3, 38501, Note_on_c, 1, 45, 0
3, 38502, Note_on_c, 1, 46, 95
3, 38507, Note_on_c, 1, 46, 0
3, 38508, Note_on_c, 1, 49, 95
3, 38513, Note_on_c, 1, 49, 0
3, 38514, Note_on_c, 1, 50, 95
3, 38519, Note_on_c, 1, 50, 0
3, 38544, Note_on_c, 1, 45, 95
3, 38549, Note_on_c, 1, 45, 0
3, 38550, Note_on_c, 1, 49, 95
3, 38555, Note_on_c, 1, 49, 0
3, 38556, Note_on_c, 1, 50, 95
3, 38561, Note_on_c, 1, 50, 0
3, 38562, Note_on_c, 1, 52, 95
3, 38567, Note_on_c, 1, 52, 0
3, 38880, Note_on_c, 1, 45, 95
3, 38901, Note_on_c, 1, 45, 0
3, 38904, Note_on_c, 1, 55, 95
3, 38925, Note_on_c, 1, 55, 0
3, 38928, Note_on_c, 1, 52, 95
3, 38949, Note_on_c, 1, 52, 0
3, 38952, Note_on_c, 1, 49, 95
3, 38973, Note_on_c, 1, 49, 0
3, 38976, Note_on_c, 1, 45, 95
3, 38997, Note_on_c, 1, 45, 0
3, 39000, Note_on_c, 1, 55, 95
3, 39021, Note_on_c, 1, 55, 0
3, 39024, Note_on_c, 1, 52, 95
3, 39045, Note_on_c, 1, 52, 0
3, 39048, Note_on_c, 1, 49, 95
3, 39069, Note_on_c, 1, 49, 0
3, 39072, Note_on_c, 1, 45, 95
3, 39093, Note_on_c, 1, 45, 0
3, 39096, Note_on_c, 1, 56, 95
3, 39117, Note_on_c, 1, 56, 0
3, 39120, Note_on_c, 1, 53, 95
3, 39141, Note_on_c, 1, 53, 0
3, 39144, Note_on_c, 1, 50, 95
3, 39165, Note_on_c, 1, 50, 0
3, 39168, Note_on_c, 1, 45, 95
3, 39189, Note_on_c, 1, 45, 0
3, 39192, Note_on_c, 1, 56, 95
3, 39213, Note_on_c, 1, 56, 0
3, 39216, Note_on_c, 1, 53, 95
3, 39237, Note_on_c, 1, 53, 0
3, 39240, Note_on_c, 1, 50, 95
3, 39261, Note_on_c, 1, 50, 0
3, 39264, Note_on_c, 1, 45, 95
3, 39285, Note_on_c, 1, 45, 0
3, 39288, Note_on_c, 1, 58, 95
3, 39309, Note_on_c, 1, 58, 0
3, 39312, Note_on_c, 1, 55, 95
3, 39333, Note_on_c, 1, 55, 0
3, 39336, Note_on_c, 1, 52, 95
3, 39357, Note_on_c, 1, 52, 0
3, 39360, Note_on_c, 1, 45, 95
3, 39381, Note_on_c, 1, 45, 0
3, 39384, Note_on_c, 1, 58, 95
3, 39405, Note_on_c, 1, 58, 0
3, 39408, Note_on_c, 1, 55, 95
3, 39429, Note_on_c, 1, 55, 0
3, 39432, Note_on_c, 1, 52, 95
3, 39453, Note_on_c, 1, 52, 0
3, 39456, Note_on_c, 1, 45, 95
3, 39477, Note_on_c, 1, 45, 0
3, 39480, Note_on_c, 1, 59, 95
3, 39501, Note_on_c, 1, 59, 0
3, 39504, Note_on_c, 1, 56, 95
3, 39525, Note_on_c, 1, 56, 0
3, 39528, Note_on_c, 1, 53, 95
3, 39549, Note_on_c, 1, 53, 0
3, 39552, Note_on_c, 1, 45, 95
3, 39573, Note_on_c, 1, 45, 0
3, 39576, Note_on_c, 1, 59, 95
3, 39597, Note_on_c, 1, 59, 0
3, 39600, Note_on_c, 1, 56, 95
3, 39621, Note_on_c, 1, 56, 0
3, 39624, Note_on_c, 1, 53, 95
3, 39645, Note_on_c, 1, 53, 0
3, 39648, Note_on_c, 1, 45, 95
3, 39669, Note_on_c, 1, 45, 0
3, 39672, Note_on_c, 1, 61, 95
3, 39693, Note_on_c, 1, 61, 0
3, 39696, Note_on_c, 1, 58, 95
3, 39717, Note_on_c, 1, 58, 0
3, 39720, Note_on_c, 1, 55, 95
3, 39741, Note_on_c, 1, 55, 0
3, 39744, Note_on_c, 1, 45, 95
3, 39765, Note_on_c, 1, 45, 0
3, 39768, Note_on_c, 1, 61, 95
3, 39789, Note_on_c, 1, 61, 0
3, 39792, Note_on_c, 1, 58, 95
3, 39813, Note_on_c, 1, 58, 0
3, 39816, Note_on_c, 1, 55, 95
3, 39837, Note_on_c, 1, 55, 0
3, 39840, Note_on_c, 1, 45, 95
3, 39861, Note_on_c, 1, 45, 0
3, 39864, Note_on_c, 1, 62, 95
3, 39885, Note_on_c, 1, 62, 0
3, 39888, Note_on_c, 1, 57, 95
3, 39909, Note_on_c, 1, 57, 0
3, 39912, Note_on_c, 1, 53, 95
3, 39933, Note_on_c, 1, 53, 0
3, 39936, Note_on_c, 1, 45, 95
3, 39957, Note_on_c, 1, 45, 0
3, 39960, Note_on_c, 1, 57, 95
3, 39981, Note_on_c, 1, 57, 0
3, 39984, Note_on_c, 1, 53, 95
3, 40005, Note_on_c, 1, 53, 0
3, 40008, Note_on_c, 1, 50, 95
3, 40029, Note_on_c, 1, 50, 0
3, 40032, Note_on_c, 1, 45, 95
3, 40053, Note_on_c, 1, 45, 0
3, 40056, Note_on_c, 1, 61, 95
3, 40077, Note_on_c, 1, 61, 0
3, 40080, Note_on_c, 1, 45, 95
3, 40101, Note_on_c, 1, 45, 0
3, 40104, Note_on_c, 1, 61, 95
3, 40125, Note_on_c, 1, 61, 0
3, 40128, Note_on_c, 1, 45, 95
3, 40149, Note_on_c, 1, 45, 0
3, 40152, Note_on_c, 1, 61, 95
3, 40173, Note_on_c, 1, 61, 0
3, 40176, Note_on_c, 1, 45, 95
3, 40197, Note_on_c, 1, 45, 0
3, 40200, Note_on_c, 1, 61, 95
3, 40221, Note_on_c, 1, 61, 0
3, 40224, Note_on_c, 1, 45, 95
3, 40245, Note_on_c, 1, 45, 0
3, 40248, Note_on_c, 1, 62, 95
3, 40269, Note_on_c, 1, 62, 0
3, 40272, Note_on_c, 1, 45, 95
3, 40293, Note_on_c, 1, 45, 0
3, 40296, Note_on_c, 1, 62, 95
3, 40317, Note_on_c, 1, 62, 0
3, 40320, Note_on_c, 1, 45, 95
3, 40341, Note_on_c, 1, 45, 0
3, 40344, Note_on_c, 1, 62, 95
3, 40365, Note_on_c, 1, 62, 0
3, 40368, Note_on_c, 1, 45, 95
3, 40389, Note_on_c, 1, 45, 0
3, 40392, Note_on_c, 1, 62, 95
3, 40413, Note_on_c, 1, 62, 0
3, 40416, Note_on_c, 1, 45, 95
3, 40437, Note_on_c, 1, 45, 0
3, 40440, Note_on_c, 1, 56, 95
3, 40461, Note_on_c, 1, 56, 0
3, 40464, Note_on_c, 1, 45, 95
3, 40485, Note_on_c, 1, 45, 0
3, 40488, Note_on_c, 1, 56, 95
3, 40509, Note_on_c, 1, 56, 0
3, 40512, Note_on_c, 1, 45, 95
3, 40533, Note_on_c, 1, 45, 0
3, 40536, Note_on_c, 1, 56, 95
3, 40557, Note_on_c, 1, 56, 0
3, 40560, Note_on_c, 1, 45, 95
3, 40581, Note_on_c, 1, 45, 0
3, 40584, Note_on_c, 1, 56, 95
3, 40605, Note_on_c, 1, 56, 0
3, 40608, Note_on_c, 1, 45, 95
3, 40629, Note_on_c, 1, 45, 0
3, 40632, Note_on_c, 1, 55, 95
3, 40653, Note_on_c, 1, 55, 0
3, 40656, Note_on_c, 1, 45, 95
3, 40677, Note_on_c, 1, 45, 0
3, 40680, Note_on_c, 1, 55, 95
3, 40701, Note_on_c, 1, 55, 0
3, 40704, Note_on_c, 1, 45, 95
3, 40725, Note_on_c, 1, 45, 0
3, 40728, Note_on_c, 1, 55, 95
3, 40749, Note_on_c, 1, 55, 0
3, 40752, Note_on_c, 1, 45, 95
3, 40773, Note_on_c, 1, 45, 0
3, 40776, Note_on_c, 1, 55, 95
3, 40797, Note_on_c, 1, 55, 0
3, 40800, Note_on_c, 1, 45, 95
3, 40821, Note_on_c, 1, 45, 0
3, 40824, Note_on_c, 1, 55, 95
3, 40845, Note_on_c, 1, 55, 0
3, 40848, Note_on_c, 1, 45, 95
3, 40869, Note_on_c, 1, 45, 0
3, 40872, Note_on_c, 1, 55, 95
3, 40893, Note_on_c, 1, 55, 0
3, 40896, Note_on_c, 1, 46, 95
3, 40917, Note_on_c, 1, 46, 0
3, 40920, Note_on_c, 1, 55, 95
3, 40941, Note_on_c, 1, 55, 0
3, 40944, Note_on_c, 1, 46, 95
3, 40965, Note_on_c, 1, 46, 0
3, 40968, Note_on_c, 1, 55, 95
3, 40989, Note_on_c, 1, 55, 0
3, 40992, Note_on_c, 1, 47, 95
3, 40999, Note_on_c, 1, 47, 0
3, 41000, Note_on_c, 1, 50, 95
3, 41007, Note_on_c, 1, 50, 0
3, 41008, Note_on_c, 1, 49, 95
3, 41015, Note_on_c, 1, 49, 0
3, 41016, Note_on_c, 1, 47, 95
3, 41016, Note_on_c, 1, 47, 95
3, 41023, Note_on_c, 1, 47, 0
3, 41024, Note_on_c, 1, 49, 95
3, 41030, Note_on_c, 1, 47, 0
3, 41031, Note_on_c, 1, 49, 0
3, 41032, Note_on_c, 1, 50, 95
3, 41039, Note_on_c, 1, 50, 0
3, 41040, Note_on_c, 1, 47, 95
3, 41040, Note_on_c, 1, 52, 95
3, 41047, Note_on_c, 1, 52, 0
3, 41048, Note_on_c, 1, 50, 95
3, 41054, Note_on_c, 1, 47, 0
3, 41055, Note_on_c, 1, 50, 0
3, 41056, Note_on_c, 1, 52, 95
3, 41063, Note_on_c, 1, 52, 0
3, 41064, Note_on_c, 1, 45, 95
3, 41064, Note_on_c, 1, 54, 95
3, 41071, Note_on_c, 1, 54, 0
3, 41072, Note_on_c, 1, 52, 95
3, 41078, Note_on_c, 1, 45, 0
3, 41079, Note_on_c, 1, 52, 0
3, 41080, Note_on_c, 1, 54, 95
3, 41087, Note_on_c, 1, 54, 0
3, 41088, Note_on_c, 1, 43, 95
3, 41098, Note_on_c, 1, 43, 0
3, 41100, Note_on_c, 1, 55, 95
3, 41110, Note_on_c, 1, 55, 0
3, 41112, Note_on_c, 1, 45, 95
3, 41122, Note_on_c, 1, 45, 0
3, 41124, Note_on_c, 1, 55, 95
3, 41134, Note_on_c, 1, 55, 0
3, 41136, Note_on_c, 1, 47, 95
3, 41146, Note_on_c, 1, 47, 0
3, 41148, Note_on_c, 1, 55, 95
3, 41158, Note_on_c, 1, 55, 0
3, 41160, Note_on_c, 1, 43, 95
3, 41170, Note_on_c, 1, 43, 0
3, 41172, Note_on_c, 1, 55, 95
3, 41182, Note_on_c, 1, 55, 0
3, 41184, Note_on_c, 1, 49, 95
3, 41194, Note_on_c, 1, 49, 0
3, 41196, Note_on_c, 1, 55, 95
3, 41206, Note_on_c, 1, 55, 0
3, 41208, Note_on_c, 1, 50, 95
3, 41218, Note_on_c, 1, 50, 0
3, 41220, Note_on_c, 1, 55, 95
3, 41230, Note_on_c, 1, 55, 0
3, 41232, Note_on_c, 1, 52, 95
3, 41242, Note_on_c, 1, 52, 0
3, 41244, Note_on_c, 1, 55, 95
3, 41254, Note_on_c, 1, 55, 0
3, 41256, Note_on_c, 1, 49, 95
3, 41266, Note_on_c, 1, 49, 0
3, 41268, Note_on_c, 1, 55, 95
3, 41278, Note_on_c, 1, 55, 0
3, 41280, Note_on_c, 1, 42, 95
3, 41290, Note_on_c, 1, 42, 0
3, 41292, Note_on_c, 1, 54, 95
3, 41302, Note_on_c, 1, 54, 0
3, 41304, Note_on_c, 1, 43, 95
3, 41314, Note_on_c, 1, 43, 0
3, 41316, Note_on_c, 1, 54, 95
3, 41326, Note_on_c, 1, 54, 0
3, 41328, Note_on_c, 1, 45, 95
3, 41338, Note_on_c, 1, 45, 0
3, 41340, Note_on_c, 1, 54, 95
3, 41350, Note_on_c, 1, 54, 0
3, 41352, Note_on_c, 1, 42, 95
3, 41362, Note_on_c, 1, 42, 0
3, 41364, Note_on_c, 1, 54, 95
3, 41374, Note_on_c, 1, 54, 0
3, 41376, Note_on_c, 1, 47, 95
3, 41386, Note_on_c, 1, 47, 0
3, 41388, Note_on_c, 1, 54, 95
3, 41398, Note_on_c, 1, 54, 0
3, 41400, Note_on_c, 1, 49, 95
3, 41410, Note_on_c, 1, 49, 0
3, 41412, Note_on_c, 1, 54, 95
3, 41422, Note_on_c, 1, 54, 0
3, 41424, Note_on_c, 1, 50, 95
3, 41434, Note_on_c, 1, 50, 0
3, 41436, Note_on_c, 1, 54, 95
3, 41446, Note_on_c, 1, 54, 0
3, 41448, Note_on_c, 1, 47, 95
3, 41458, Note_on_c, 1, 47, 0
3, 41460, Note_on_c, 1, 54, 95
3, 41470, Note_on_c, 1, 54, 0
3, 41472, Note_on_c, 1, 40, 95
3, 41482, Note_on_c, 1, 40, 0
3, 41484, Note_on_c, 1, 52, 95
3, 41494, Note_on_c, 1, 52, 0
3, 41496, Note_on_c, 1, 42, 95
3, 41506, Note_on_c, 1, 42, 0
3, 41508, Note_on_c, 1, 52, 95
3, 41518, Note_on_c, 1, 52, 0
3, 41520, Note_on_c, 1, 43, 95
3, 41530, Note_on_c, 1, 43, 0
3, 41532, Note_on_c, 1, 52, 95
3, 41542, Note_on_c, 1, 52, 0
3, 41544, Note_on_c, 1, 40, 95
3, 41554, Note_on_c, 1, 40, 0
3, 41556, Note_on_c, 1, 52, 95
3, 41566, Note_on_c, 1, 52, 0
3, 41568, Note_on_c, 1, 45, 95
3, 41578, Note_on_c, 1, 45, 0
3, 41580, Note_on_c, 1, 52, 95
3, 41590, Note_on_c, 1, 52, 0
3, 41592, Note_on_c, 1, 47, 95
3, 41602, Note_on_c, 1, 47, 0
3, 41604, Note_on_c, 1, 52, 95
3, 41614, Note_on_c, 1, 52, 0
3, 41616, Note_on_c, 1, 49, 95
3, 41626, Note_on_c, 1, 49, 0
3, 41628, Note_on_c, 1, 52, 95
3, 41638, Note_on_c, 1, 52, 0
3, 41640, Note_on_c, 1, 45, 95
3, 41650, Note_on_c, 1, 45, 0
3, 41652, Note_on_c, 1, 52, 95
3, 41662, Note_on_c, 1, 52, 0
3, 41664, Note_on_c, 1, 38, 95
3, 41674, Note_on_c, 1, 38, 0
3, 41676, Note_on_c, 1, 50, 95
3, 41686, Note_on_c, 1, 50, 0
3, 41688, Note_on_c, 1, 40, 95
3, 41698, Note_on_c, 1, 40, 0
3, 41700, Note_on_c, 1, 50, 95
3, 41710, Note_on_c, 1, 50, 0
3, 41712, Note_on_c, 1, 42, 95
3, 41722, Note_on_c, 1, 42, 0
3, 41724, Note_on_c, 1, 50, 95
3, 41734, Note_on_c, 1, 50, 0
3, 41736, Note_on_c, 1, 40, 95
3, 41746, Note_on_c, 1, 40, 0
3, 41748, Note_on_c, 1, 50, 95
3, 41758, Note_on_c, 1, 50, 0
3, 41760, Note_on_c, 1, 42, 95
3, 41770, Note_on_c, 1, 42, 0
3, 41772, Note_on_c, 1, 50, 95
3, 41782, Note_on_c, 1, 50, 0
3, 41784, Note_on_c, 1, 43, 95
3, 41794, Note_on_c, 1, 43, 0
3, 41796, Note_on_c, 1, 50, 95
3, 41806, Note_on_c, 1, 50, 0
3, 41808, Note_on_c, 1, 45, 95
3, 41818, Note_on_c, 1, 45, 0
3, 41820, Note_on_c, 1, 50, 95
3, 41830, Note_on_c, 1, 50, 0
3, 41832, Note_on_c, 1, 46, 95
3, 41842, Note_on_c, 1, 46, 0
3, 41844, Note_on_c, 1, 49, 95
3, 41854, Note_on_c, 1, 49, 0
3, 41856, Note_on_c, 1, 47, 95
3, 41866, Note_on_c, 1, 47, 0
3, 41868, Note_on_c, 1, 54, 95
3, 41878, Note_on_c, 1, 54, 0
3, 41880, Note_on_c, 1, 59, 95
3, 41890, Note_on_c, 1, 59, 0
3, 41892, Note_on_c, 1, 55, 95
3, 41902, Note_on_c, 1, 55, 0
3, 41904, Note_on_c, 1, 57, 95
3, 41924, Note_on_c, 1, 57, 0
3, 41928, Note_on_c, 1, 45, 95
3, 41948, Note_on_c, 1, 45, 0
3, 41952, Note_on_c, 1, 57, 79
3, 41952, Note_on_c, 1, 50, 79
3, 41952, Note_on_c, 1, 54, 79
3, 42000, Note_on_c, 1, 54, 0
3, 42000, Note_on_c, 1, 50, 0
3, 42000, Note_on_c, 1, 57, 0
3, 42024, Note_on_c, 1, 50, 79
3, 42040, Note_on_c, 1, 50, 0
3, 42048, Note_on_c, 1, 57, 79
3, 42064, Note_on_c, 1, 57, 0
3, 42072, Note_on_c, 1, 59, 79
3, 42088, Note_on_c, 1, 59, 0
3, 42096, Note_on_c, 1, 61, 79
3, 42112, Note_on_c, 1, 61, 0
3, 42120, Note_on_c, 1, 57, 79
3, 42136, Note_on_c, 1, 57, 0
3, 42144, Note_on_c, 1, 54, 79
3, 42160, Note_on_c, 1, 54, 0
3, 42168, Note_on_c, 1, 52, 79
3, 42184, Note_on_c, 1, 52, 0
3, 42192, Note_on_c, 1, 54, 79
3, 42208, Note_on_c, 1, 54, 0
3, 42216, Note_on_c, 1, 50, 79
3, 42232, Note_on_c, 1, 50, 0
3, 42240, Note_on_c, 1, 57, 79
3, 42256, Note_on_c, 1, 57, 0
3, 42264, Note_on_c, 1, 59, 79
3, 42280, Note_on_c, 1, 59, 0
3, 42288, Note_on_c, 1, 61, 79
3, 42304, Note_on_c, 1, 61, 0
3, 42312, Note_on_c, 1, 57, 79
3, 42328, Note_on_c, 1, 57, 0
3, 42336, Note_on_c, 1, 62, 79
3, 42352, Note_on_c, 1, 62, 0
3, 42360, Note_on_c, 1, 61, 79
3, 42376, Note_on_c, 1, 61, 0
3, 42384, Note_on_c, 1, 59, 79
3, 42400, Note_on_c, 1, 59, 0
3, 42408, Note_on_c, 1, 57, 79
3, 42424, Note_on_c, 1, 57, 0
3, 42432, Note_on_c, 1, 55, 79
3, 42448, Note_on_c, 1, 55, 0
3, 42456, Note_on_c, 1, 54, 79
3, 42472, Note_on_c, 1, 54, 0
3, 42480, Note_on_c, 1, 52, 79
3, 42496, Note_on_c, 1, 52, 0
3, 42504, Note_on_c, 1, 50, 79
3, 42520, Note_on_c, 1, 50, 0
3, 42528, Note_on_c, 1, 49, 79
3, 42544, Note_on_c, 1, 49, 0
3, 42552, Note_on_c, 1, 50, 79
3, 42568, Note_on_c, 1, 50, 0
3, 42576, Note_on_c, 1, 43, 79
3, 42592, Note_on_c, 1, 43, 0
3, 42600, Note_on_c, 1, 42, 79
3, 42616, Note_on_c, 1, 42, 0
3, 42624, Note_on_c, 1, 40, 79
3, 42640, Note_on_c, 1, 40, 0
3, 42648, Note_on_c, 1, 38, 79
3, 42664, Note_on_c, 1, 38, 0
3, 42672, Note_on_c, 1, 37, 79
3, 42688, Note_on_c, 1, 37, 0
3, 42696, Note_on_c, 1, 49, 79
3, 42712, Note_on_c, 1, 49, 0
3, 42720, Note_on_c, 1, 50, 79
3, 42736, Note_on_c, 1, 50, 0
3, 42744, Note_on_c, 1, 47, 79
3, 42760, Note_on_c, 1, 47, 0
3, 42768, Note_on_c, 1, 43, 79
3, 42784, Note_on_c, 1, 43, 0
3, 42792, Note_on_c, 1, 45, 79
3, 42808, Note_on_c, 1, 45, 0
3, 42816, Note_on_c, 1, 47, 79
3, 42824, Note_on_c, 1, 47, 0
3, 42828, Note_on_c, 1, 49, 79
3, 42836, Note_on_c, 1, 49, 0
3, 42840, Note_on_c, 1, 50, 79
3, 42848, Note_on_c, 1, 50, 0
3, 42852, Note_on_c, 1, 52, 79
3, 42860, Note_on_c, 1, 52, 0
3, 42864, Note_on_c, 1, 54, 79
3, 42872, Note_on_c, 1, 54, 0
3, 42876, Note_on_c, 1, 55, 79
3, 42884, Note_on_c, 1, 55, 0
3, 42888, Note_on_c, 1, 57, 79
3, 42896, Note_on_c, 1, 57, 0
3, 42900, Note_on_c, 1, 54, 79
3, 42908, Note_on_c, 1, 54, 0
3, 42912, Note_on_c, 1, 59, 79
3, 42928, Note_on_c, 1, 59, 0
3, 42936, Note_on_c, 1, 57, 79
3, 42952, Note_on_c, 1, 57, 0
3, 42960, Note_on_c, 1, 55, 79
3, 42976, Note_on_c, 1, 55, 0
3, 42984, Note_on_c, 1, 54, 79
3, 43000, Note_on_c, 1, 54, 0
3, 43008, Note_on_c, 1, 52, 79
3, 43024, Note_on_c, 1, 52, 0
3, 43032, Note_on_c, 1, 50, 79
3, 43048, Note_on_c, 1, 50, 0
3, 43056, Note_on_c, 1, 49, 79
3, 43072, Note_on_c, 1, 49, 0
3, 43080, Note_on_c, 1, 45, 79
3, 43096, Note_on_c, 1, 45, 0
3, 43104, Note_on_c, 1, 50, 79
3, 43120, Note_on_c, 1, 50, 0
3, 43128, Note_on_c, 1, 54, 79
3, 43144, Note_on_c, 1, 54, 0
3, 43152, Note_on_c, 1, 55, 79
3, 43168, Note_on_c, 1, 55, 0
3, 43176, Note_on_c, 1, 57, 79
3, 43184, Note_on_c, 1, 57, 0
3, 43188, Note_on_c, 1, 55, 79
3, 43196, Note_on_c, 1, 55, 0
3, 43200, Note_on_c, 1, 54, 79
3, 43216, Note_on_c, 1, 54, 0
3, 43224, Note_on_c, 1, 55, 79
3, 43240, Note_on_c, 1, 55, 0
3, 43272, Note_on_c, 1, 49, 79
3, 43280, Note_on_c, 1, 49, 0
3, 43284, Note_on_c, 1, 49, 79
3, 43292, Note_on_c, 1, 49, 0
3, 43296, Note_on_c, 1, 50, 79
3, 43304, Note_on_c, 1, 50, 0
3, 43308, Note_on_c, 1, 50, 79
3, 43316, Note_on_c, 1, 50, 0
3, 43320, Note_on_c, 1, 49, 79
3, 43328, Note_on_c, 1, 49, 0
3, 43332, Note_on_c, 1, 49, 79
3, 43340, Note_on_c, 1, 49, 0
3, 43344, Note_on_c, 1, 50, 79
3, 43352, Note_on_c, 1, 50, 0
3, 43356, Note_on_c, 1, 50, 79
3, 43364, Note_on_c, 1, 50, 0
3, 43368, Note_on_c, 1, 42, 79
3, 43376, Note_on_c, 1, 42, 0
3, 43380, Note_on_c, 1, 42, 79
3, 43388, Note_on_c, 1, 42, 0
3, 43392, Note_on_c, 1, 43, 79
3, 43408, Note_on_c, 1, 43, 0
3, 43416, Note_on_c, 1, 55, 79
3, 43432, Note_on_c, 1, 55, 0
3, 43440, Note_on_c, 1, 57, 79
3, 43456, Note_on_c, 1, 57, 0
3, 43464, Note_on_c, 1, 45, 79
3, 43480, Note_on_c, 1, 45, 0
3, 43488, Note_on_c, 1, 50, 79
3, 43520, Note_on_c, 1, 50, 0
3, 43680, Note_on_c, 1, 59, 95
3, 43728, Note_on_c, 1, 59, 0
3, 43728, Note_on_c, 1, 57, 95
3, 43776, Note_on_c, 1, 57, 0
3, 43776, Note_on_c, 1, 55, 95
3, 43824, Note_on_c, 1, 55, 0
3, 43824, Note_on_c, 1, 52, 95
3, 43872, Note_on_c, 1, 52, 0
3, 43872, Note_on_c, 1, 54, 95
3, 43920, Note_on_c, 1, 54, 0
3, 43920, Note_on_c, 1, 52, 95
3, 43968, Note_on_c, 1, 52, 0
3, 43968, Note_on_c, 1, 50, 95
3, 44016, Note_on_c, 1, 50, 0
3, 44016, Note_on_c, 1, 49, 95
3, 44052, Note_on_c, 1, 49, 0
3, 44052, Note_on_c, 1, 47, 95
3, 44064, Note_on_c, 1, 47, 0
3, 44064, Note_on_c, 1, 54, 95
3, 44112, Note_on_c, 1, 54, 0
3, 44112, Note_on_c, 1, 56, 95
3, 44148, Note_on_c, 1, 56, 0
3, 44148, Note_on_c, 1, 58, 95
3, 44160, Note_on_c, 1, 58, 0
3, 44160, Note_on_c, 1, 59, 95
3, 44208, Note_on_c, 1, 59, 0
3, 44208, Note_on_c, 1, 61, 95
3, 44244, Note_on_c, 1, 61, 0
3, 44244, Note_on_c, 1, 62, 95
3, 44256, Note_on_c, 1, 62, 0
3, 44256, Note_on_c, 1, 52, 95
3, 44304, Note_on_c, 1, 52, 0
3, 44304, Note_on_c, 1, 54, 95
3, 44340, Note_on_c, 1, 54, 0
3, 44340, Note_on_c, 1, 55, 95
3, 44352, Note_on_c, 1, 55, 0
3, 44352, Note_on_c, 1, 57, 95
3, 44400, Note_on_c, 1, 57, 0
3, 44400, Note_on_c, 1, 45, 95
3, 44448, Note_on_c, 1, 45, 0
3, 44448, Note_on_c, 1, 50, 95
3, 44496, Note_on_c, 1, 50, 0
3, 44496, Note_on_c, 1, 55, 95
3, 44544, Note_on_c, 1, 55, 0
3, 44544, Note_on_c, 1, 49, 95
3, 44592, Note_on_c, 1, 49, 0
3, 44592, Note_on_c, 1, 50, 95
3, 44628, Note_on_c, 1, 50, 0
3, 44628, Note_on_c, 1, 52, 95
3, 44640, Note_on_c, 1, 52, 0
3, 44640, Note_on_c, 1, 54, 95
3, 44688, Note_on_c, 1, 54, 0
3, 44688, Note_on_c, 1, 52, 95
3, 44736, Note_on_c, 1, 52, 0
3, 44736, Note_on_c, 1, 50, 95
3, 44784, Note_on_c, 1, 50, 0
3, 44784, Note_on_c, 1, 49, 95
3, 44832, Note_on_c, 1, 49, 0
3, 44832, Note_on_c, 1, 47, 95
3, 44880, Note_on_c, 1, 47, 0
3, 44880, Note_on_c, 1, 47, 95
3, 44928, Note_on_c, 1, 47, 0
3, 44928, Note_on_c, 1, 52, 95
3, 44976, Note_on_c, 1, 52, 0
3, 44976, Note_on_c, 1, 54, 95
3, 45012, Note_on_c, 1, 54, 0
3, 45012, Note_on_c, 1, 55, 95
3, 45024, Note_on_c, 1, 55, 0
3, 45024, Note_on_c, 1, 46, 95
3, 45072, Note_on_c, 1, 46, 0
3, 45072, Note_on_c, 1, 47, 95
3, 45120, Note_on_c, 1, 47, 0
3, 45120, Note_on_c, 1, 54, 95
3, 45168, Note_on_c, 1, 54, 0
3, 45168, Note_on_c, 1, 42, 95
3, 45216, Note_on_c, 1, 42, 0
3, 45216, Note_on_c, 1, 47, 95
3, 45264, Note_on_c, 1, 47, 0
3, 45264, Note_on_c, 1, 45, 95
3, 45312, Note_on_c, 1, 45, 0
3, 45312, Note_on_c, 1, 43, 95
3, 45318, Note_on_c, 1, 43, 0
3, 45318, Note_on_c, 1, 45, 95
3, 45324, Note_on_c, 1, 45, 0
3, 45324, Note_on_c, 1, 43, 95
3, 45330, Note_on_c, 1, 43, 0
3, 45330, Note_on_c, 1, 45, 95
3, 45336, Note_on_c, 1, 45, 0
3, 45336, Note_on_c, 1, 43, 95
3, 45342, Note_on_c, 1, 43, 0
3, 45342, Note_on_c, 1, 45, 95
3, 45348, Note_on_c, 1, 45, 0
3, 45348, Note_on_c, 1, 43, 95
3, 45354, Note_on_c, 1, 43, 0
3, 45354, Note_on_c, 1, 45, 95
3, 45360, Note_on_c, 1, 45, 0
3, 45360, Note_on_c, 1, 43, 95
3, 45366, Note_on_c, 1, 43, 0
3, 45366, Note_on_c, 1, 45, 95
3, 45372, Note_on_c, 1, 45, 0
3, 45372, Note_on_c, 1, 43, 95
3, 45378, Note_on_c, 1, 43, 0
3, 45378, Note_on_c, 1, 45, 95
3, 45384, Note_on_c, 1, 45, 0
3, 45384, Note_on_c, 1, 43, 95
3, 45390, Note_on_c, 1, 43, 0
3, 45390, Note_on_c, 1, 45, 95
3, 45396, Note_on_c, 1, 45, 0
3, 45396, Note_on_c, 1, 43, 95
3, 45402, Note_on_c, 1, 43, 0
3, 45402, Note_on_c, 1, 45, 95
3, 45408, Note_on_c, 1, 45, 0
3, 45408, Note_on_c, 1, 42, 95
3, 45600, Note_on_c, 1, 42, 0
3, 45600, Note_on_c, 1, 42, 95
3, 45792, Note_on_c, 1, 42, 0
3, 45792, Note_on_c, 1, 42, 95
3, 45840, Note_on_c, 1, 42, 0
3, 45840, Note_on_c, 1, 54, 95
3, 45888, Note_on_c, 1, 54, 0
3, 45888, Note_on_c, 1, 56, 95
3, 45936, Note_on_c, 1, 56, 0
3, 45936, Note_on_c, 1, 58, 95
3, 45984, Note_on_c, 1, 58, 0
3, 45984, Note_on_c, 1, 59, 95
3, 46032, Note_on_c, 1, 59, 0
3, 46032, Note_on_c, 1, 47, 95
3, 46068, Note_on_c, 1, 47, 0
3, 46068, Note_on_c, 1, 49, 95
3, 46080, Note_on_c, 1, 49, 0
3, 46080, Note_on_c, 1, 50, 95
3, 46128, Note_on_c, 1, 50, 0
3, 46128, Note_on_c, 1, 49, 95
3, 46164, Note_on_c, 1, 49, 0
3, 46164, Note_on_c, 1, 47, 95
3, 46176, Note_on_c, 1, 47, 0
3, 46176, Note_on_c, 1, 52, 95
3, 46224, Note_on_c, 1, 52, 0
3, 46224, Note_on_c, 1, 52, 95
3, 46272, Note_on_c, 1, 52, 0
3, 46272, Note_on_c, 1, 54, 95
3, 46320, Note_on_c, 1, 54, 0
3, 46320, Note_on_c, 1, 56, 95
3, 46368, Note_on_c, 1, 56, 0
3, 46368, Note_on_c, 1, 57, 95
3, 46416, Note_on_c, 1, 57, 0
3, 46416, Note_on_c, 1, 45, 95
3, 46452, Note_on_c, 1, 45, 0
3, 46452, Note_on_c, 1, 47, 95
3, 46464, Note_on_c, 1, 47, 0
3, 46464, Note_on_c, 1, 49, 95
3, 46512, Note_on_c, 1, 49, 0
3, 46512, Note_on_c, 1, 47, 95
3, 46548, Note_on_c, 1, 47, 0
3, 46548, Note_on_c, 1, 45, 95
3, 46560, Note_on_c, 1, 45, 0
3, 46560, Note_on_c, 1, 50, 95
3, 46608, Note_on_c, 1, 50, 0
3, 46608, Note_on_c, 1, 50, 95
3, 46656, Note_on_c, 1, 50, 0
3, 46656, Note_on_c, 1, 52, 95
3, 46704, Note_on_c, 1, 52, 0
3, 46704, Note_on_c, 1, 54, 95
3, 46752, Note_on_c, 1, 54, 0
3, 46752, Note_on_c, 1, 55, 95
3, 46776, Note_on_c, 1, 55, 0
3, 46776, Note_on_c, 1, 54, 95
3, 46800, Note_on_c, 1, 54, 0
3, 46800, Note_on_c, 1, 55, 95
3, 46824, Note_on_c, 1, 55, 0
3, 46824, Note_on_c, 1, 52, 95
3, 46848, Note_on_c, 1, 52, 0
3, 46848, Note_on_c, 1, 49, 95
3, 46896, Note_on_c, 1, 49, 0
3, 46896, Note_on_c, 1, 45, 95
3, 46944, Note_on_c, 1, 45, 0
3, 46944, Note_on_c, 1, 50, 95
3, 46992, Note_on_c, 1, 50, 0
3, 46992, Note_on_c, 1, 55, 95
3, 47040, Note_on_c, 1, 55, 0
3, 47040, Note_on_c, 1, 57, 95
3, 47088, Note_on_c, 1, 57, 0
3, 47088, Note_on_c, 1, 45, 95
3, 47136, Note_on_c, 1, 45, 0
3, 47136, Note_on_c, 1, 50, 95
3, 47184, Note_on_c, 1, 50, 0
3, 47184, Note_on_c, 1, 49, 95
3, 47232, Note_on_c, 1, 49, 0
3, 47232, Note_on_c, 1, 47, 95
3, 47280, Note_on_c, 1, 47, 0
3, 47280, Note_on_c, 1, 43, 95
3, 47328, Note_on_c, 1, 43, 0
3, 47328, Note_on_c, 1, 45, 95
3, 47376, Note_on_c, 1, 45, 0
3, 47376, Note_on_c, 1, 43, 95
3, 47424, Note_on_c, 1, 43, 0
3, 47424, Note_on_c, 1, 42, 95
3, 47472, Note_on_c, 1, 42, 0
3, 47472, Note_on_c, 1, 38, 95
3, 47520, Note_on_c, 1, 38, 0
3, 47520, Note_on_c, 1, 45, 95
3, 47568, Note_on_c, 1, 45, 0
3, 47568, Note_on_c, 1, 57, 95
3, 47616, Note_on_c, 1, 57, 0
3, 47616, Note_on_c, 1, 62, 95
3, 47664, Note_on_c, 1, 62, 0
3, 47664, Note_on_c, 1, 64, 95
3, 47700, Note_on_c, 1, 64, 0
3, 47700, Note_on_c, 1, 66, 95
3, 47712, Note_on_c, 1, 66, 0
3, 47712, Note_on_c, 1, 61, 95
3, 47760, Note_on_c, 1, 61, 0
3, 47760, Note_on_c, 1, 60, 95
3, 47808, Note_on_c, 1, 60, 0
3, 47808, Note_on_c, 1, 59, 95
3, 47856, Note_on_c, 1, 59, 0
3, 47856, Note_on_c, 1, 57, 95
3, 47892, Note_on_c, 1, 57, 0
3, 47892, Note_on_c, 1, 55, 95
3, 47904, Note_on_c, 1, 55, 0
3, 47904, Note_on_c, 1, 57, 95
3, 47952, Note_on_c, 1, 57, 0
3, 47952, Note_on_c, 1, 54, 95
3, 48000, Note_on_c, 1, 54, 0
3, 48000, Note_on_c, 1, 59, 95
3, 48048, Note_on_c, 1, 59, 0
3, 48048, Note_on_c, 1, 61, 95
3, 48084, Note_on_c, 1, 61, 0
3, 48084, Note_on_c, 1, 62, 95
3, 48096, Note_on_c, 1, 62, 0
3, 48096, Note_on_c, 1, 52, 95
3, 48144, Note_on_c, 1, 52, 0
3, 48144, Note_on_c, 1, 55, 95
3, 48192, Note_on_c, 1, 55, 0
3, 48192, Note_on_c, 1, 54, 95
3, 48240, Note_on_c, 1, 54, 0
3, 48240, Note_on_c, 1, 52, 95
3, 48276, Note_on_c, 1, 52, 0
3, 48276, Note_on_c, 1, 50, 95
3, 48288, Note_on_c, 1, 50, 0
3, 48288, Note_on_c, 1, 55, 95
3, 48432, Note_on_c, 1, 55, 0
3, 48432, Note_on_c, 1, 54, 95
3, 48468, Note_on_c, 1, 54, 0
3, 48468, Note_on_c, 1, 52, 95
3, 48480, Note_on_c, 1, 52, 0
3, 48480, Note_on_c, 1, 59, 95
3, 48528, Note_on_c, 1, 59, 0
3, 48528, Note_on_c, 1, 55, 95
3, 48576, Note_on_c, 1, 55, 0
3, 48576, Note_on_c, 1, 57, 95
3, 48624, Note_on_c, 1, 57, 0
3, 48624, Note_on_c, 1, 45, 95
3, 48672, Note_on_c, 1, 45, 0
3, 48672, Note_on_c, 1, 50, 95
3, 48720, Note_on_c, 1, 50, 0
3, 48720, Note_on_c, 1, 62, 95
3, 48768, Note_on_c, 1, 62, 0
3, 48768, Note_on_c, 1, 61, 95
3, 48816, Note_on_c, 1, 61, 0
3, 48816, Note_on_c, 1, 54, 95
3, 48864, Note_on_c, 1, 54, 0
3, 48864, Note_on_c, 1, 59, 95
3, 48912, Note_on_c, 1, 59, 0
3, 48912, Note_on_c, 1, 56, 95
3, 48960, Note_on_c, 1, 56, 0
3, 48960, Note_on_c, 1, 53, 95
3, 49008, Note_on_c, 1, 53, 0
3, 49008, Note_on_c, 1, 51, 95
3, 49044, Note_on_c, 1, 51, 0
3, 49044, Note_on_c, 1, 49, 95
3, 49056, Note_on_c, 1, 49, 0
3, 49056, Note_on_c, 1, 54, 95
3, 49104, Note_on_c, 1, 54, 0
3, 49104, Note_on_c, 1, 49, 95
3, 49152, Note_on_c, 1, 49, 0
3, 49152, Note_on_c, 1, 54, 95
3, 49200, Note_on_c, 1, 54, 0
3, 49200, Note_on_c, 1, 56, 95
3, 49236, Note_on_c, 1, 56, 0
3, 49236, Note_on_c, 1, 57, 95
3, 49248, Note_on_c, 1, 57, 0
3, 49248, Note_on_c, 1, 59, 95
3, 49296, Note_on_c, 1, 59, 0
3, 49296, Note_on_c, 1, 54, 95
3, 49344, Note_on_c, 1, 54, 0
3, 49344, Note_on_c, 1, 50, 95
3, 49392, Note_on_c, 1, 50, 0
3, 49392, Note_on_c, 1, 47, 95
3, 49440, Note_on_c, 1, 47, 0
3, 49440, Note_on_c, 1, 52, 95
3, 49488, Note_on_c, 1, 52, 0
3, 49488, Note_on_c, 1, 47, 95
3, 49536, Note_on_c, 1, 47, 0
3, 49536, Note_on_c, 1, 52, 95
3, 49584, Note_on_c, 1, 52, 0
3, 49584, Note_on_c, 1, 54, 95
3, 49620, Note_on_c, 1, 54, 0
3, 49620, Note_on_c, 1, 56, 95
3, 49632, Note_on_c, 1, 56, 0
3, 49632, Note_on_c, 1, 57, 95
3, 49680, Note_on_c, 1, 57, 0
3, 49680, Note_on_c, 1, 52, 95
3, 49728, Note_on_c, 1, 52, 0
3, 49728, Note_on_c, 1, 49, 95
3, 49776, Note_on_c, 1, 49, 0
3, 49776, Note_on_c, 1, 45, 95
3, 49824, Note_on_c, 1, 45, 0
3, 49824, Note_on_c, 1, 50, 95
3, 49920, Note_on_c, 1, 50, 0
3, 49968, Note_on_c, 1, 62, 95
3, 49992, Note_on_c, 1, 62, 0
3, 49992, Note_on_c, 1, 59, 95
3, 50016, Note_on_c, 1, 59, 0
3, 50016, Note_on_c, 1, 56, 95
3, 50040, Note_on_c, 1, 56, 0
3, 50040, Note_on_c, 1, 54, 95
3, 50064, Note_on_c, 1, 54, 0
3, 50064, Note_on_c, 1, 56, 95
3, 50088, Note_on_c, 1, 56, 0
3, 50088, Note_on_c, 1, 59, 95
3, 50112, Note_on_c, 1, 59, 0
3, 50112, Note_on_c, 1, 57, 95
3, 50136, Note_on_c, 1, 57, 0
3, 50136, Note_on_c, 1, 56, 95
3, 50160, Note_on_c, 1, 56, 0
3, 50160, Note_on_c, 1, 57, 95
3, 50184, Note_on_c, 1, 57, 0
3, 50184, Note_on_c, 1, 54, 95
3, 50208, Note_on_c, 1, 54, 0
3, 50208, Note_on_c, 1, 61, 95
3, 50256, Note_on_c, 1, 61, 0
3, 50256, Note_on_c, 1, 59, 95
3, 50304, Note_on_c, 1, 59, 0
3, 50304, Note_on_c, 1, 57, 95
3, 50352, Note_on_c, 1, 57, 0
3, 50352, Note_on_c, 1, 56, 95
3, 50388, Note_on_c, 1, 56, 0
3, 50388, Note_on_c, 1, 54, 95
3, 50400, Note_on_c, 1, 54, 0
3, 50400, Note_on_c, 1, 56, 95
3, 50448, Note_on_c, 1, 56, 0
3, 50448, Note_on_c, 1, 49, 95
3, 50496, Note_on_c, 1, 49, 0
3, 50544, Note_on_c, 1, 54, 95
3, 50592, Note_on_c, 1, 54, 0
3, 50592, Note_on_c, 1, 59, 95
3, 50640, Note_on_c, 1, 59, 0
3, 50640, Note_on_c, 1, 61, 95
3, 50676, Note_on_c, 1, 61, 0
3, 50676, Note_on_c, 1, 62, 95
3, 50688, Note_on_c, 1, 62, 0
3, 50688, Note_on_c, 1, 53, 95
3, 50736, Note_on_c, 1, 53, 0
3, 50736, Note_on_c, 1, 49, 95
3, 50784, Note_on_c, 1, 49, 0
3, 50784, Note_on_c, 1, 54, 95
3, 50832, Note_on_c, 1, 54, 0
3, 50832, Note_on_c, 1, 45, 95
3, 50868, Note_on_c, 1, 45, 0
3, 50868, Note_on_c, 1, 47, 95
3, 50880, Note_on_c, 1, 47, 0
3, 50880, Note_on_c, 1, 49, 95
3, 50928, Note_on_c, 1, 49, 0
3, 50928, Note_on_c, 1, 37, 95
3, 50976, Note_on_c, 1, 37, 0
3, 50976, Note_on_c, 1, 54, 95
3, 51024, Note_on_c, 1, 54, 0
3, 51024, Note_on_c, 1, 52, 95
3, 51072, Note_on_c, 1, 52, 0
3, 51072, Note_on_c, 1, 50, 95
3, 51120, Note_on_c, 1, 50, 0
3, 51120, Note_on_c, 1, 47, 95
3, 51168, Note_on_c, 1, 47, 0
3, 51168, Note_on_c, 1, 49, 95
3, 51216, Note_on_c, 1, 49, 0
3, 51216, Note_on_c, 1, 47, 95
3, 51264, Note_on_c, 1, 47, 0
3, 51264, Note_on_c, 1, 45, 95
3, 51312, Note_on_c, 1, 45, 0
3, 51312, Note_on_c, 1, 44, 95
3, 51348, Note_on_c, 1, 44, 0
3, 51348, Note_on_c, 1, 42, 95
3, 51360, Note_on_c, 1, 42, 0
3, 51360, Note_on_c, 1, 49, 95
3, 51408, Note_on_c, 1, 49, 0
3, 51408, Note_on_c, 1, 51, 95
3, 51444, Note_on_c, 1, 51, 0
3, 51444, Note_on_c, 1, 53, 95
3, 51456, Note_on_c, 1, 53, 0
3, 51456, Note_on_c, 1, 54, 95
3, 51504, Note_on_c, 1, 54, 0
3, 51504, Note_on_c, 1, 56, 95
3, 51540, Note_on_c, 1, 56, 0
3, 51540, Note_on_c, 1, 57, 95
3, 51552, Note_on_c, 1, 57, 0
3, 51552, Note_on_c, 1, 47, 95
3, 51600, Note_on_c, 1, 47, 0
3, 51600, Note_on_c, 1, 49, 95
3, 51636, Note_on_c, 1, 49, 0
3, 51636, Note_on_c, 1, 50, 95
3, 51648, Note_on_c, 1, 50, 0
3, 51648, Note_on_c, 1, 52, 95
3, 51696, Note_on_c, 1, 52, 0
3, 51696, Note_on_c, 1, 40, 95
3, 51744, Note_on_c, 1, 40, 0
3, 51744, Note_on_c, 1, 45, 95
3, 51792, Note_on_c, 1, 45, 0
3, 51792, Note_on_c, 1, 50, 95
3, 51840, Note_on_c, 1, 50, 0
3, 51840, Note_on_c, 1, 44, 95
3, 51888, Note_on_c, 1, 44, 0
3, 51888, Note_on_c, 1, 45, 95
3, 51924, Note_on_c, 1, 45, 0
3, 51924, Note_on_c, 1, 47, 95
3, 51936, Note_on_c, 1, 47, 0
3, 51936, Note_on_c, 1, 49, 95
3, 51984, Note_on_c, 1, 49, 0
3, 51984, Note_on_c, 1, 47, 95
3, 52032, Note_on_c, 1, 47, 0
3, 52032, Note_on_c, 1, 45, 95
3, 52080, Note_on_c, 1, 45, 0
3, 52080, Note_on_c, 1, 44, 95
3, 52128, Note_on_c, 1, 44, 0
3, 52128, Note_on_c, 1, 42, 95
3, 52176, Note_on_c, 1, 42, 0
3, 52176, Note_on_c, 1, 54, 95
3, 52224, Note_on_c, 1, 54, 0
3, 52224, Note_on_c, 1, 59, 95
3, 52272, Note_on_c, 1, 59, 0
3, 52272, Note_on_c, 1, 61, 95
3, 52308, Note_on_c, 1, 61, 0
3, 52308, Note_on_c, 1, 62, 95
3, 52320, Note_on_c, 1, 62, 0
3, 52320, Note_on_c, 1, 53, 95
3, 52368, Note_on_c, 1, 53, 0
3, 52368, Note_on_c, 1, 54, 95
3, 52416, Note_on_c, 1, 54, 0
3, 52416, Note_on_c, 1, 61, 95
3, 52464, Note_on_c, 1, 61, 0
3, 52464, Note_on_c, 1, 49, 95
3, 52512, Note_on_c, 1, 49, 0
3, 52512, Note_on_c, 1, 42, 95
3, 52560, Note_on_c, 1, 42, 0
3, 52560, Note_on_c, 1, 54, 95
3, 52596, Note_on_c, 1, 54, 0
3, 52596, Note_on_c, 1, 56, 95
3, 52608, Note_on_c, 1, 56, 0
3, 52608, Note_on_c, 1, 57, 95
3, 52656, Note_on_c, 1, 57, 0
3, 52656, Note_on_c, 1, 55, 95
3, 52692, Note_on_c, 1, 55, 0
3, 52692, Note_on_c, 1, 54, 95
3, 52704, Note_on_c, 1, 54, 0
3, 52704, Note_on_c, 1, 59, 95
3, 52752, Note_on_c, 1, 59, 0
3, 52752, Note_on_c, 1, 47, 95
3, 52788, Note_on_c, 1, 47, 0
3, 52788, Note_on_c, 1, 49, 95
3, 52800, Note_on_c, 1, 49, 0
3, 52800, Note_on_c, 1, 51, 95
3, 52848, Note_on_c, 1, 51, 0
3, 52848, Note_on_c, 1, 49, 95
3, 52884, Note_on_c, 1, 49, 0
3, 52884, Note_on_c, 1, 47, 95
3, 52896, Note_on_c, 1, 47, 0
3, 52896, Note_on_c, 1, 52, 95
3, 52944, Note_on_c, 1, 52, 0
3, 52944, Note_on_c, 1, 52, 95
3, 52980, Note_on_c, 1, 52, 0
3, 52980, Note_on_c, 1, 54, 95
3, 52992, Note_on_c, 1, 54, 0
3, 52992, Note_on_c, 1, 55, 95
3, 53040, Note_on_c, 1, 55, 0
3, 53040, Note_on_c, 1, 54, 95
3, 53076, Note_on_c, 1, 54, 0
3, 53076, Note_on_c, 1, 52, 95
3, 53088, Note_on_c, 1, 52, 0
3, 53088, Note_on_c, 1, 57, 95
3, 53136, Note_on_c, 1, 57, 0
3, 53136, Note_on_c, 1, 45, 95
3, 53172, Note_on_c, 1, 45, 0
3, 53172, Note_on_c, 1, 47, 95
3, 53184, Note_on_c, 1, 47, 0
3, 53184, Note_on_c, 1, 49, 95
3, 53232, Note_on_c, 1, 49, 0
3, 53232, Note_on_c, 1, 47, 95
3, 53268, Note_on_c, 1, 47, 0
3, 53268, Note_on_c, 1, 45, 95
3, 53280, Note_on_c, 1, 45, 0
3, 53280, Note_on_c, 1, 50, 95
3, 53328, Note_on_c, 1, 50, 0
3, 53328, Note_on_c, 1, 50, 95
3, 53352, Note_on_c, 1, 50, 0
3, 53352, Note_on_c, 1, 52, 95
3, 53376, Note_on_c, 1, 52, 0
3, 53376, Note_on_c, 1, 54, 95
3, 53424, Note_on_c, 1, 54, 0
3, 53424, Note_on_c, 1, 52, 95
3, 53460, Note_on_c, 1, 52, 0
3, 53460, Note_on_c, 1, 50, 95
3, 53472, Note_on_c, 1, 50, 0
3, 53472, Note_on_c, 1, 55, 95
3, 53520, Note_on_c, 1, 55, 0
3, 53520, Note_on_c, 1, 52, 95
3, 53544, Note_on_c, 1, 52, 0
3, 53544, Note_on_c, 1, 54, 95
3, 53568, Note_on_c, 1, 54, 0
3, 53568, Note_on_c, 1, 56, 95
3, 53616, Note_on_c, 1, 56, 0
3, 53616, Note_on_c, 1, 54, 95
3, 53652, Note_on_c, 1, 54, 0
3, 53652, Note_on_c, 1, 52, 95
3, 53664, Note_on_c, 1, 52, 0
3, 53664, Note_on_c, 1, 57, 95
3, 53760, Note_on_c, 1, 57, 0
3, 53808, Note_on_c, 1, 51, 95
3, 53856, Note_on_c, 1, 51, 0
3, 53856, Note_on_c, 1, 52, 95
3, 53904, Note_on_c, 1, 52, 0
3, 53904, Note_on_c, 1, 55, 95
3, 53952, Note_on_c, 1, 55, 0
3, 53952, Note_on_c, 1, 48, 95
3, 54000, Note_on_c, 1, 48, 0
3, 54000, Note_on_c, 1, 47, 95
3, 54036, Note_on_c, 1, 47, 0
3, 54036, Note_on_c, 1, 45, 95
3, 54048, Note_on_c, 1, 45, 0
3, 54048, Note_on_c, 1, 47, 95
3, 54144, Note_on_c, 1, 47, 0
3, 54240, Note_on_c, 1, 47, 95
3, 54336, Note_on_c, 1, 47, 0
3, 54432, Note_on_c, 1, 47, 95
3, 54480, Note_on_c, 1, 47, 0
3, 54480, Note_on_c, 1, 57, 95
3, 54504, Note_on_c, 1, 57, 0
3, 54504, Note_on_c, 1, 54, 95
3, 54528, Note_on_c, 1, 54, 0
3, 54528, Note_on_c, 1, 51, 95
3, 54576, Note_on_c, 1, 51, 0
3, 54576, Note_on_c, 1, 49, 95
3, 54612, Note_on_c, 1, 49, 0
3, 54612, Note_on_c, 1, 47, 95
3, 54624, Note_on_c, 1, 47, 0
3, 54624, Note_on_c, 1, 52, 95
3, 54672, Note_on_c, 1, 52, 0
3, 54672, Note_on_c, 1, 55, 95
3, 54708, Note_on_c, 1, 55, 0
3, 54708, Note_on_c, 1, 52, 95
3, 54720, Note_on_c, 1, 52, 0
3, 54720, Note_on_c, 1, 59, 95
3, 54768, Note_on_c, 1, 59, 0
3, 54768, Note_on_c, 1, 47, 95
3, 54816, Note_on_c, 1, 47, 0
3, 54816, Note_on_c, 1, 52, 95
3, 54912, Note_on_c, 1, 52, 0
3, 54960, Note_on_c, 1, 55, 95
3, 55008, Note_on_c, 1, 55, 0
3, 55008, Note_on_c, 1, 57, 95
3, 55104, Note_on_c, 1, 57, 0
3, 55152, Note_on_c, 1, 45, 95
3, 55200, Note_on_c, 1, 45, 0
3, 55200, Note_on_c, 1, 47, 95
3, 55296, Note_on_c, 1, 47, 0
3, 55344, Note_on_c, 1, 47, 95
3, 55392, Note_on_c, 1, 47, 0
3, 55392, Note_on_c, 1, 48, 95
3, 55440, Note_on_c, 1, 48, 0
3, 55440, Note_on_c, 1, 45, 95
3, 55488, Note_on_c, 1, 45, 0
3, 55488, Note_on_c, 1, 52, 95
3, 55536, Note_on_c, 1, 52, 0
3, 55536, Note_on_c, 1, 50, 95
3, 55572, Note_on_c, 1, 50, 0
3, 55572, Note_on_c, 1, 48, 95
3, 55584, Note_on_c, 1, 48, 0
3, 55584, Note_on_c, 1, 50, 95
3, 55632, Note_on_c, 1, 50, 0
3, 55632, Note_on_c, 1, 62, 95
3, 55668, Note_on_c, 1, 62, 0
3, 55668, Note_on_c, 1, 60, 95
3, 55680, Note_on_c, 1, 60, 0
3, 55680, Note_on_c, 1, 59, 95
3, 55728, Note_on_c, 1, 59, 0
3, 55728, Note_on_c, 1, 57, 95
3, 55764, Note_on_c, 1, 57, 0
3, 55764, Note_on_c, 1, 55, 95
3, 55776, Note_on_c, 1, 55, 0
3, 55776, Note_on_c, 1, 60, 95
3, 55824, Note_on_c, 1, 60, 0
3, 55824, Note_on_c, 1, 64, 95
3, 55860, Note_on_c, 1, 64, 0
3, 55860, Note_on_c, 1, 62, 95
3, 55872, Note_on_c, 1, 62, 0
3, 55872, Note_on_c, 1, 60, 95
3, 55920, Note_on_c, 1, 60, 0
3, 55920, Note_on_c, 1, 59, 95
3, 55956, Note_on_c, 1, 59, 0
3, 55956, Note_on_c, 1, 57, 95
3, 55968, Note_on_c, 1, 57, 0
3, 55968, Note_on_c, 1, 62, 95
3, 56016, Note_on_c, 1, 62, 0
3, 56016, Note_on_c, 1, 57, 95
3, 56052, Note_on_c, 1, 57, 0
3, 56052, Note_on_c, 1, 55, 95
3, 56064, Note_on_c, 1, 55, 0
3, 56064, Note_on_c, 1, 54, 95
3, 56112, Note_on_c, 1, 54, 0
3, 56112, Note_on_c, 1, 52, 95
3, 56148, Note_on_c, 1, 52, 0
3, 56148, Note_on_c, 1, 50, 95
3, 56160, Note_on_c, 1, 50, 0
3, 56160, Note_on_c, 1, 55, 95
3, 56208, Note_on_c, 1, 55, 0
3, 56208, Note_on_c, 1, 48, 95
3, 56256, Note_on_c, 1, 48, 0
3, 56256, Note_on_c, 1, 50, 95
3, 56304, Note_on_c, 1, 50, 0
3, 56304, Note_on_c, 1, 38, 95
3, 56352, Note_on_c, 1, 38, 0
3, 56352, Note_on_c, 1, 43, 95
3, 56400, Note_on_c, 1, 43, 0
3, 56400, Note_on_c, 1, 55, 95
3, 56448, Note_on_c, 1, 55, 0
3, 56448, Note_on_c, 1, 57, 95
3, 56496, Note_on_c, 1, 57, 0
3, 56496, Note_on_c, 1, 59, 95
3, 56544, Note_on_c, 1, 59, 0
3, 56544, Note_on_c, 1, 52, 95
3, 56592, Note_on_c, 1, 52, 0
3, 56592, Note_on_c, 1, 49, 95
3, 56640, Note_on_c, 1, 49, 0
3, 56640, Note_on_c, 1, 46, 95
3, 56688, Note_on_c, 1, 46, 0
3, 56688, Note_on_c, 1, 44, 95
3, 56724, Note_on_c, 1, 44, 0
3, 56724, Note_on_c, 1, 42, 95
3, 56736, Note_on_c, 1, 42, 0
3, 56736, Note_on_c, 1, 47, 95
3, 56784, Note_on_c, 1, 47, 0
3, 56784, Note_on_c, 1, 42, 95
3, 56832, Note_on_c, 1, 42, 0
3, 56832, Note_on_c, 1, 47, 95
3, 56880, Note_on_c, 1, 47, 0
3, 56880, Note_on_c, 1, 49, 95
3, 56916, Note_on_c, 1, 49, 0
3, 56916, Note_on_c, 1, 50, 95
3, 56928, Note_on_c, 1, 50, 0
3, 56928, Note_on_c, 1, 52, 95
3, 56976, Note_on_c, 1, 52, 0
3, 56976, Note_on_c, 1, 47, 95
3, 57024, Note_on_c, 1, 47, 0
3, 57024, Note_on_c, 1, 43, 95
3, 57072, Note_on_c, 1, 43, 0
3, 57072, Note_on_c, 1, 40, 95
3, 57120, Note_on_c, 1, 40, 0
3, 57120, Note_on_c, 1, 45, 95
3, 57168, Note_on_c, 1, 45, 0
3, 57168, Note_on_c, 1, 40, 95
3, 57216, Note_on_c, 1, 40, 0
3, 57216, Note_on_c, 1, 45, 95
3, 57264, Note_on_c, 1, 45, 0
3, 57264, Note_on_c, 1, 47, 95
3, 57300, Note_on_c, 1, 47, 0
3, 57300, Note_on_c, 1, 49, 95
3, 57312, Note_on_c, 1, 49, 0
3, 57312, Note_on_c, 1, 50, 95
3, 57360, Note_on_c, 1, 50, 0
3, 57360, Note_on_c, 1, 45, 95
3, 57408, Note_on_c, 1, 45, 0
3, 57408, Note_on_c, 1, 42, 95
3, 57456, Note_on_c, 1, 42, 0
3, 57456, Note_on_c, 1, 38, 95
3, 57504, Note_on_c, 1, 38, 0
3, 57504, Note_on_c, 1, 43, 95
3, 57600, Note_on_c, 1, 43, 0
3, 57648, Note_on_c, 1, 55, 95
3, 57672, Note_on_c, 1, 55, 0
3, 57672, Note_on_c, 1, 52, 95
3, 57696, Note_on_c, 1, 52, 0
3, 57696, Note_on_c, 1, 49, 95
3, 57720, Note_on_c, 1, 49, 0
3, 57720, Note_on_c, 1, 47, 95
3, 57744, Note_on_c, 1, 47, 0
3, 57744, Note_on_c, 1, 49, 95
3, 57768, Note_on_c, 1, 49, 0
3, 57768, Note_on_c, 1, 52, 95
3, 57792, Note_on_c, 1, 52, 0
3, 57792, Note_on_c, 1, 50, 95
3, 57816, Note_on_c, 1, 50, 0
3, 57816, Note_on_c, 1, 49, 95
3, 57840, Note_on_c, 1, 49, 0
3, 57840, Note_on_c, 1, 50, 95
3, 57864, Note_on_c, 1, 50, 0
3, 57864, Note_on_c, 1, 47, 95
3, 57888, Note_on_c, 1, 47, 0
3, 57888, Note_on_c, 1, 54, 95
3, 57936, Note_on_c, 1, 54, 0
3, 57936, Note_on_c, 1, 52, 95
3, 57984, Note_on_c, 1, 52, 0
3, 57984, Note_on_c, 1, 50, 95
3, 58032, Note_on_c, 1, 50, 0
3, 58032, Note_on_c, 1, 49, 95
3, 58068, Note_on_c, 1, 49, 0
3, 58068, Note_on_c, 1, 47, 95
3, 58080, Note_on_c, 1, 47, 0
3, 58080, Note_on_c, 1, 49, 95
3, 58128, Note_on_c, 1, 49, 0
3, 58128, Note_on_c, 1, 42, 95
3, 58176, Note_on_c, 1, 42, 0
3, 58224, Note_on_c, 1, 47, 95
3, 58272, Note_on_c, 1, 47, 0
3, 58272, Note_on_c, 1, 52, 95
3, 58320, Note_on_c, 1, 52, 0
3, 58320, Note_on_c, 1, 54, 95
3, 58356, Note_on_c, 1, 54, 0
3, 58356, Note_on_c, 1, 55, 95
3, 58368, Note_on_c, 1, 55, 0
3, 58368, Note_on_c, 1, 46, 95
3, 58416, Note_on_c, 1, 46, 0
3, 58416, Note_on_c, 1, 42, 95
3, 58464, Note_on_c, 1, 42, 0
3, 58464, Note_on_c, 1, 47, 95
3, 58488, Note_on_c, 1, 47, 0
3, 58488, Note_on_c, 1, 49, 95
3, 58512, Note_on_c, 1, 49, 0
3, 58512, Note_on_c, 1, 50, 95
3, 58536, Note_on_c, 1, 50, 0
3, 58536, Note_on_c, 1, 52, 95
3, 58560, Note_on_c, 1, 52, 0
3, 58560, Note_on_c, 1, 54, 95
3, 58608, Note_on_c, 1, 54, 0
3, 58608, Note_on_c, 1, 42, 95
3, 58656, Note_on_c, 1, 42, 0
3, 58656, Note_on_c, 1, 47, 95
3, 58704, Note_on_c, 1, 47, 0
3, 58704, Note_on_c, 1, 47, 95
3, 58740, Note_on_c, 1, 47, 0
3, 58740, Note_on_c, 1, 49, 95
3, 58752, Note_on_c, 1, 49, 0
3, 58752, Note_on_c, 1, 50, 95
3, 58800, Note_on_c, 1, 50, 0
3, 58800, Note_on_c, 1, 49, 95
3, 58836, Note_on_c, 1, 49, 0
3, 58836, Note_on_c, 1, 47, 95
3, 58848, Note_on_c, 1, 47, 0
3, 58848, Note_on_c, 1, 54, 95
3, 58896, Note_on_c, 1, 54, 0
3, 58896, Note_on_c, 1, 42, 95
3, 58944, Note_on_c, 1, 42, 0
3, 59088, Note_on_c, 1, 47, 95
3, 59124, Note_on_c, 1, 47, 0
3, 59124, Note_on_c, 1, 49, 95
3, 59136, Note_on_c, 1, 49, 0
3, 59136, Note_on_c, 1, 50, 95
3, 59184, Note_on_c, 1, 50, 0
3, 59184, Note_on_c, 1, 49, 95
3, 59220, Note_on_c, 1, 49, 0
3, 59220, Note_on_c, 1, 47, 95
3, 59232, Note_on_c, 1, 47, 0
3, 59232, Note_on_c, 1, 54, 95
3, 59280, Note_on_c, 1, 54, 0
3, 59280, Note_on_c, 1, 42, 95
3, 59328, Note_on_c, 1, 42, 0
3, 59376, Note_on_c, 1, 54, 95
3, 59424, Note_on_c, 1, 54, 0
3, 59424, Note_on_c, 1, 59, 95
3, 59472, Note_on_c, 1, 59, 0
3, 59472, Note_on_c, 1, 47, 95
3, 59508, Note_on_c, 1, 47, 0
3, 59508, Note_on_c, 1, 49, 95
3, 59520, Note_on_c, 1, 49, 0
3, 59520, Note_on_c, 1, 50, 95
3, 59568, Note_on_c, 1, 50, 0
3, 59568, Note_on_c, 1, 49, 95
3, 59604, Note_on_c, 1, 49, 0
3, 59604, Note_on_c, 1, 47, 95
3, 59616, Note_on_c, 1, 47, 0
3, 59616, Note_on_c, 1, 55, 95
3, 59688, Note_on_c, 1, 55, 0
3, 59688, Note_on_c, 1, 54, 95
3, 59712, Note_on_c, 1, 54, 0
3, 59712, Note_on_c, 1, 52, 95
3, 59736, Note_on_c, 1, 52, 0
3, 59736, Note_on_c, 1, 50, 95
3, 59760, Note_on_c, 1, 50, 0
3, 59760, Note_on_c, 1, 52, 95
3, 59784, Note_on_c, 1, 52, 0
3, 59784, Note_on_c, 1, 49, 95
3, 59808, Note_on_c, 1, 49, 0
3, 59808, Note_on_c, 1, 54, 95
3, 60000, Note_on_c, 1, 54, 0
3, 60000, Note_on_c, 1, 54, 95
3, 60192, Note_on_c, 1, 54, 0
3, 60192, Note_on_c, 1, 54, 95
3, 60240, Note_on_c, 1, 54, 0
3, 60240, Note_on_c, 1, 52, 95
3, 60264, Note_on_c, 1, 52, 0
3, 60264, Note_on_c, 1, 49, 95
3, 60288, Note_on_c, 1, 49, 0
3, 60288, Note_on_c, 1, 46, 95
3, 60336, Note_on_c, 1, 46, 0
3, 60336, Note_on_c, 1, 44, 95
3, 60372, Note_on_c, 1, 44, 0
3, 60372, Note_on_c, 1, 42, 95
3, 60384, Note_on_c, 1, 42, 0
3, 60384, Note_on_c, 1, 47, 95
3, 60432, Note_on_c, 1, 47, 0
3, 60432, Note_on_c, 1, 50, 95
3, 60468, Note_on_c, 1, 50, 0
3, 60468, Note_on_c, 1, 52, 95
3, 60480, Note_on_c, 1, 52, 0
3, 60480, Note_on_c, 1, 54, 95
3, 60528, Note_on_c, 1, 54, 0
3, 60528, Note_on_c, 1, 42, 95
3, 60576, Note_on_c, 1, 42, 0
3, 60576, Note_on_c, 1, 47, 95
3, 60624, Note_on_c, 1, 47, 0
3, 60624, Note_on_c, 1, 59, 95
3, 60648, Note_on_c, 1, 59, 0
3, 60648, Note_on_c, 1, 57, 95
3, 60672, Note_on_c, 1, 57, 0
3, 60672, Note_on_c, 1, 55, 95
3, 60720, Note_on_c, 1, 55, 0
3, 60720, Note_on_c, 1, 52, 95
3, 60768, Note_on_c, 1, 52, 0
3, 60768, Note_on_c, 1, 54, 95
3, 60816, Note_on_c, 1, 54, 0
3, 60816, Note_on_c, 1, 52, 95
3, 60864, Note_on_c, 1, 52, 0
3, 60864, Note_on_c, 1, 50, 95
3, 60912, Note_on_c, 1, 50, 0
3, 60912, Note_on_c, 1, 49, 95
3, 60948, Note_on_c, 1, 49, 0
3, 60948, Note_on_c, 1, 47, 95
3, 60960, Note_on_c, 1, 47, 0
3, 60960, Note_on_c, 1, 54, 95
3, 61008, Note_on_c, 1, 54, 0
3, 61008, Note_on_c, 1, 56, 95
3, 61044, Note_on_c, 1, 56, 0
3, 61044, Note_on_c, 1, 58, 95
3, 61056, Note_on_c, 1, 58, 0
3, 61056, Note_on_c, 1, 59, 95
3, 61104, Note_on_c, 1, 59, 0
3, 61104, Note_on_c, 1, 61, 95
3, 61140, Note_on_c, 1, 61, 0
3, 61140, Note_on_c, 1, 62, 95
3, 61152, Note_on_c, 1, 62, 0
3, 61152, Note_on_c, 1, 52, 95
3, 61200, Note_on_c, 1, 52, 0
3, 61200, Note_on_c, 1, 54, 95
3, 61236, Note_on_c, 1, 54, 0
3, 61236, Note_on_c, 1, 55, 95
3, 61248, Note_on_c, 1, 55, 0
3, 61248, Note_on_c, 1, 57, 95
3, 61296, Note_on_c, 1, 57, 0
3, 61296, Note_on_c, 1, 45, 95
3, 61344, Note_on_c, 1, 45, 0
3, 61344, Note_on_c, 1, 50, 95
3, 61392, Note_on_c, 1, 50, 0
3, 61392, Note_on_c, 1, 55, 95
3, 61440, Note_on_c, 1, 55, 0
3, 61440, Note_on_c, 1, 49, 95
3, 61488, Note_on_c, 1, 49, 0
3, 61488, Note_on_c, 1, 50, 95
3, 61524, Note_on_c, 1, 50, 0
3, 61524, Note_on_c, 1, 52, 95
3, 61536, Note_on_c, 1, 52, 0
3, 61536, Note_on_c, 1, 54, 95
3, 61584, Note_on_c, 1, 54, 0
3, 61584, Note_on_c, 1, 52, 95
3, 61632, Note_on_c, 1, 52, 0
3, 61632, Note_on_c, 1, 50, 95
3, 61680, Note_on_c, 1, 50, 0
3, 61680, Note_on_c, 1, 49, 95
3, 61728, Note_on_c, 1, 49, 0
3, 61728, Note_on_c, 1, 47, 95
3, 61776, Note_on_c, 1, 47, 0
3, 61776, Note_on_c, 1, 47, 95
3, 61824, Note_on_c, 1, 47, 0
3, 61824, Note_on_c, 1, 52, 95
3, 61872, Note_on_c, 1, 52, 0
3, 61872, Note_on_c, 1, 54, 95
3, 61908, Note_on_c, 1, 54, 0
3, 61908, Note_on_c, 1, 55, 95
3, 61920, Note_on_c, 1, 55, 0
3, 61920, Note_on_c, 1, 46, 95
3, 61968, Note_on_c, 1, 46, 0
3, 61968, Note_on_c, 1, 47, 95
3, 62016, Note_on_c, 1, 47, 0
3, 62016, Note_on_c, 1, 54, 95
3, 62064, Note_on_c, 1, 54, 0
3, 62064, Note_on_c, 1, 42, 95
3, 62112, Note_on_c, 1, 42, 0
3, 62112, Note_on_c, 1, 35, 95
3, 62112, Note_on_c, 1, 47, 95
3, 62208, Note_on_c, 1, 47, 0
3, 62208, Note_on_c, 1, 35, 0
3, 63108, Note_on_c, 1, 57, 95
3, 63116, Note_on_c, 1, 57, 0
3, 63120, Note_on_c, 1, 62, 95
3, 63144, Note_on_c, 1, 62, 0
3, 63156, Note_on_c, 1, 57, 95
3, 63164, Note_on_c, 1, 57, 0
3, 63168, Note_on_c, 1, 59, 95
3, 63179, Note_on_c, 1, 59, 0
3, 63184, Note_on_c, 1, 57, 95
3, 63195, Note_on_c, 1, 57, 0
3, 63200, Note_on_c, 1, 55, 95
3, 63211, Note_on_c, 1, 55, 0
3, 63216, Note_on_c, 1, 54, 95
3, 63227, Note_on_c, 1, 54, 0
3, 63232, Note_on_c, 1, 55, 95
3, 63243, Note_on_c, 1, 55, 0
3, 63248, Note_on_c, 1, 57, 95
3, 63259, Note_on_c, 1, 57, 0
3, 63264, Note_on_c, 1, 50, 95
3, 63280, Note_on_c, 1, 50, 0
3, 63312, Note_on_c, 1, 49, 95
3, 63328, Note_on_c, 1, 49, 0
3, 63360, Note_on_c, 1, 50, 95
3, 63376, Note_on_c, 1, 50, 0
3, 63408, Note_on_c, 1, 52, 95
3, 63424, Note_on_c, 1, 52, 0
3, 63456, Note_on_c, 1, 54, 95
3, 63480, Note_on_c, 1, 54, 0
3, 63504, Note_on_c, 1, 49, 95
3, 63528, Note_on_c, 1, 49, 0
3, 63552, Note_on_c, 1, 50, 95
3, 63576, Note_on_c, 1, 50, 0
3, 63600, Note_on_c, 1, 52, 95
3, 63624, Note_on_c, 1, 52, 0
3, 63648, Note_on_c, 1, 54, 95
3, 63672, Note_on_c, 1, 54, 0
3, 63696, Note_on_c, 1, 52, 95
3, 63720, Note_on_c, 1, 52, 0
3, 63744, Note_on_c, 1, 54, 95
3, 63768, Note_on_c, 1, 54, 0
3, 63792, Note_on_c, 1, 56, 95
3, 63816, Note_on_c, 1, 56, 0
3, 63840, Note_on_c, 1, 57, 95
3, 63853, Note_on_c, 1, 57, 0
3, 63856, Note_on_c, 1, 61, 95
3, 63869, Note_on_c, 1, 61, 0
3, 63872, Note_on_c, 1, 59, 95
3, 63885, Note_on_c, 1, 59, 0
3, 63888, Note_on_c, 1, 57, 95
3, 63901, Note_on_c, 1, 57, 0
3, 63904, Note_on_c, 1, 59, 95
3, 63917, Note_on_c, 1, 59, 0
3, 63920, Note_on_c, 1, 61, 95
3, 63933, Note_on_c, 1, 61, 0
3, 63936, Note_on_c, 1, 62, 95
3, 63956, Note_on_c, 1, 62, 0
3, 63984, Note_on_c, 1, 64, 95
3, 64004, Note_on_c, 1, 64, 0
3, 64032, Note_on_c, 1, 66, 95
3, 64037, Note_on_c, 1, 66, 0
3, 64038, Note_on_c, 1, 68, 95
3, 64043, Note_on_c, 1, 68, 0
3, 64044, Note_on_c, 1, 66, 95
3, 64049, Note_on_c, 1, 66, 0
3, 64050, Note_on_c, 1, 68, 95
3, 64055, Note_on_c, 1, 68, 0
3, 64056, Note_on_c, 1, 66, 95
3, 64061, Note_on_c, 1, 66, 0
3, 64062, Note_on_c, 1, 68, 95
3, 64067, Note_on_c, 1, 68, 0
3, 64068, Note_on_c, 1, 66, 95
3, 64073, Note_on_c, 1, 66, 0
3, 64074, Note_on_c, 1, 68, 95
3, 64079, Note_on_c, 1, 68, 0
3, 64080, Note_on_c, 1, 66, 95
3, 64085, Note_on_c, 1, 66, 0
3, 64086, Note_on_c, 1, 68, 95
3, 64091, Note_on_c, 1, 68, 0
3, 64092, Note_on_c, 1, 66, 95
3, 64097, Note_on_c, 1, 66, 0
3, 64098, Note_on_c, 1, 68, 95
3, 64103, Note_on_c, 1, 68, 0
3, 64104, Note_on_c, 1, 66, 95
3, 64109, Note_on_c, 1, 66, 0
3, 64110, Note_on_c, 1, 68, 95
3, 64115, Note_on_c, 1, 68, 0
3, 64116, Note_on_c, 1, 66, 95
3, 64121, Note_on_c, 1, 66, 0
3, 64122, Note_on_c, 1, 68, 95
3, 64127, Note_on_c, 1, 68, 0
3, 64128, Note_on_c, 1, 66, 95
3, 64141, Note_on_c, 1, 66, 0
3, 64144, Note_on_c, 1, 69, 95
3, 64157, Note_on_c, 1, 69, 0
3, 64160, Note_on_c, 1, 68, 95
3, 64173, Note_on_c, 1, 68, 0
3, 64176, Note_on_c, 1, 66, 95
3, 64189, Note_on_c, 1, 66, 0
3, 64192, Note_on_c, 1, 64, 95
3, 64205, Note_on_c, 1, 64, 0
3, 64208, Note_on_c, 1, 62, 95
3, 64221, Note_on_c, 1, 62, 0
3, 64224, Note_on_c, 1, 61, 95
3, 64229, Note_on_c, 1, 61, 0
3, 64230, Note_on_c, 1, 62, 95
3, 64235, Note_on_c, 1, 62, 0
3, 64236, Note_on_c, 1, 61, 95
3, 64241, Note_on_c, 1, 61, 0
3, 64242, Note_on_c, 1, 62, 95
3, 64247, Note_on_c, 1, 62, 0
3, 64248, Note_on_c, 1, 61, 95
3, 64253, Note_on_c, 1, 61, 0
3, 64254, Note_on_c, 1, 62, 95
3, 64259, Note_on_c, 1, 62, 0
3, 64260, Note_on_c, 1, 61, 95
3, 64265, Note_on_c, 1, 61, 0
3, 64266, Note_on_c, 1, 62, 95
3, 64271, Note_on_c, 1, 62, 0
3, 64272, Note_on_c, 1, 61, 95
3, 64277, Note_on_c, 1, 61, 0
3, 64278, Note_on_c, 1, 62, 95
3, 64283, Note_on_c, 1, 62, 0
3, 64284, Note_on_c, 1, 61, 95
3, 64289, Note_on_c, 1, 61, 0
3, 64290, Note_on_c, 1, 62, 95
3, 64295, Note_on_c, 1, 62, 0
3, 64296, Note_on_c, 1, 61, 95
3, 64301, Note_on_c, 1, 61, 0
3, 64302, Note_on_c, 1, 62, 95
3, 64307, Note_on_c, 1, 62, 0
3, 64308, Note_on_c, 1, 61, 95
3, 64313, Note_on_c, 1, 61, 0
3, 64314, Note_on_c, 1, 62, 95
3, 64319, Note_on_c, 1, 62, 0
3, 64320, Note_on_c, 1, 61, 95
3, 64333, Note_on_c, 1, 61, 0
3, 64336, Note_on_c, 1, 57, 95
3, 64349, Note_on_c, 1, 57, 0
3, 64352, Note_on_c, 1, 59, 95
3, 64365, Note_on_c, 1, 59, 0
3, 64368, Note_on_c, 1, 61, 95
3, 64381, Note_on_c, 1, 61, 0
3, 64384, Note_on_c, 1, 59, 95
3, 64397, Note_on_c, 1, 59, 0
3, 64400, Note_on_c, 1, 61, 95
3, 64413, Note_on_c, 1, 61, 0
3, 64416, Note_on_c, 1, 63, 95
3, 64429, Note_on_c, 1, 63, 0
3, 64432, Note_on_c, 1, 66, 95
3, 64445, Note_on_c, 1, 66, 0
3, 64448, Note_on_c, 1, 64, 95
3, 64461, Note_on_c, 1, 64, 0
3, 64464, Note_on_c, 1, 63, 95
3, 64477, Note_on_c, 1, 63, 0
3, 64480, Note_on_c, 1, 66, 95
3, 64493, Note_on_c, 1, 66, 0
3, 64496, Note_on_c, 1, 64, 95
3, 64509, Note_on_c, 1, 64, 0
3, 64512, Note_on_c, 1, 63, 95
3, 64528, Note_on_c, 1, 63, 0
3, 64528, Note_on_c, 1, 59, 95
3, 64544, Note_on_c, 1, 59, 0
3, 64544, Note_on_c, 1, 61, 95
3, 64560, Note_on_c, 1, 61, 0
3, 64560, Note_on_c, 1, 63, 95
3, 64573, Note_on_c, 1, 63, 0
3, 64576, Note_on_c, 1, 61, 95
3, 64589, Note_on_c, 1, 61, 0
3, 64592, Note_on_c, 1, 63, 95
3, 64605, Note_on_c, 1, 63, 0
3, 64608, Note_on_c, 1, 64, 95
3, 64615, Note_on_c, 1, 64, 0
3, 64616, Note_on_c, 1, 62, 95
3, 64623, Note_on_c, 1, 62, 0
3, 64624, Note_on_c, 1, 64, 95
3, 64631, Note_on_c, 1, 64, 0
3, 64632, Note_on_c, 1, 66, 95
3, 64639, Note_on_c, 1, 66, 0
3, 64640, Note_on_c, 1, 64, 95
3, 64647, Note_on_c, 1, 64, 0
3, 64648, Note_on_c, 1, 62, 95
3, 64655, Note_on_c, 1, 62, 0
3, 64656, Note_on_c, 1, 61, 95
3, 64663, Note_on_c, 1, 61, 0
3, 64664, Note_on_c, 1, 62, 95
3, 64671, Note_on_c, 1, 62, 0
3, 64672, Note_on_c, 1, 61, 95
3, 64679, Note_on_c, 1, 61, 0
3, 64680, Note_on_c, 1, 59, 95
3, 64687, Note_on_c, 1, 59, 0
3, 64688, Note_on_c, 1, 57, 95
3, 64695, Note_on_c, 1, 57, 0
3, 64696, Note_on_c, 1, 56, 95
3, 64703, Note_on_c, 1, 56, 0
3, 64704, Note_on_c, 1, 54, 95
3, 64711, Note_on_c, 1, 54, 0
3, 64712, Note_on_c, 1, 52, 95
3, 64719, Note_on_c, 1, 52, 0
3, 64720, Note_on_c, 1, 54, 95
3, 64727, Note_on_c, 1, 54, 0
3, 64728, Note_on_c, 1, 56, 95
3, 64735, Note_on_c, 1, 56, 0
3, 64736, Note_on_c, 1, 57, 95
3, 64743, Note_on_c, 1, 57, 0
3, 64744, Note_on_c, 1, 54, 95
3, 64751, Note_on_c, 1, 54, 0
3, 64752, Note_on_c, 1, 59, 95
3, 64759, Note_on_c, 1, 59, 0
3, 64760, Note_on_c, 1, 61, 95
3, 64767, Note_on_c, 1, 61, 0
3, 64768, Note_on_c, 1, 59, 95
3, 64775, Note_on_c, 1, 59, 0
3, 64776, Note_on_c, 1, 57, 95
3, 64783, Note_on_c, 1, 57, 0
3, 64784, Note_on_c, 1, 56, 95
3, 64791, Note_on_c, 1, 56, 0
3, 64792, Note_on_c, 1, 54, 95
3, 64799, Note_on_c, 1, 54, 0
3, 64800, Note_on_c, 1, 52, 95
3, 64807, Note_on_c, 1, 52, 0
3, 64808, Note_on_c, 1, 50, 95
3, 64815, Note_on_c, 1, 50, 0
3, 64816, Note_on_c, 1, 52, 95
3, 64823, Note_on_c, 1, 52, 0
3, 64824, Note_on_c, 1, 54, 95
3, 64831, Note_on_c, 1, 54, 0
3, 64832, Note_on_c, 1, 56, 95
3, 64839, Note_on_c, 1, 56, 0
3, 64840, Note_on_c, 1, 52, 95
3, 64847, Note_on_c, 1, 52, 0
3, 64848, Note_on_c, 1, 54, 95
3, 64855, Note_on_c, 1, 54, 0
3, 64856, Note_on_c, 1, 57, 95
3, 64863, Note_on_c, 1, 57, 0
3, 64864, Note_on_c, 1, 56, 95
3, 64871, Note_on_c, 1, 56, 0
3, 64872, Note_on_c, 1, 54, 95
3, 64879, Note_on_c, 1, 54, 0
3, 64880, Note_on_c, 1, 52, 95
3, 64887, Note_on_c, 1, 52, 0
3, 64888, Note_on_c, 1, 50, 95
3, 64895, Note_on_c, 1, 50, 0
3, 64896, Note_on_c, 1, 49, 95
3, 64909, Note_on_c, 1, 49, 0
3, 64912, Note_on_c, 1, 47, 95
3, 64925, Note_on_c, 1, 47, 0
3, 64928, Note_on_c, 1, 45, 95
3, 64941, Note_on_c, 1, 45, 0
3, 64944, Note_on_c, 1, 52, 95
3, 64974, Note_on_c, 1, 52, 0
3, 64980, Note_on_c, 1, 40, 95
3, 64990, Note_on_c, 1, 40, 0
3, 64992, Note_on_c, 1, 45, 95
3, 65016, Note_on_c, 1, 45, 0
3, 65040, Note_on_c, 1, 42, 95
3, 65064, Note_on_c, 1, 42, 0
3, 65088, Note_on_c, 1, 43, 95
3, 65112, Note_on_c, 1, 43, 0
3, 65136, Note_on_c, 1, 45, 95
3, 65160, Note_on_c, 1, 45, 0
3, 65184, Note_on_c, 1, 47, 95
3, 65208, Note_on_c, 1, 47, 0
3, 65232, Note_on_c, 1, 49, 95
3, 65256, Note_on_c, 1, 49, 0
3, 65280, Note_on_c, 1, 50, 95
3, 65304, Note_on_c, 1, 50, 0
3, 65328, Note_on_c, 1, 52, 95
3, 65352, Note_on_c, 1, 52, 0
3, 65376, Note_on_c, 1, 54, 95
3, 65400, Note_on_c, 1, 54, 0
3, 65424, Note_on_c, 1, 54, 95
3, 65448, Note_on_c, 1, 54, 0
3, 65472, Note_on_c, 1, 55, 95
3, 65496, Note_on_c, 1, 55, 0
3, 65520, Note_on_c, 1, 57, 95
3, 65544, Note_on_c, 1, 57, 0
3, 65568, Note_on_c, 1, 59, 95
3, 65592, Note_on_c, 1, 59, 0
3, 65616, Note_on_c, 1, 57, 95
3, 65640, Note_on_c, 1, 57, 0
3, 65664, Note_on_c, 1, 59, 95
3, 65688, Note_on_c, 1, 59, 0
3, 65712, Note_on_c, 1, 61, 95
3, 65736, Note_on_c, 1, 61, 0
3, 65760, Note_on_c, 1, 62, 95
3, 65784, Note_on_c, 1, 62, 0
3, 65988, Note_on_c, 1, 57, 95
3, 66000, Note_on_c, 1, 57, 0
3, 66000, Note_on_c, 1, 62, 95
3, 66036, Note_on_c, 1, 62, 0
3, 66036, Note_on_c, 1, 57, 95
3, 66048, Note_on_c, 1, 57, 0
3, 66048, Note_on_c, 1, 59, 95
3, 66064, Note_on_c, 1, 59, 0
3, 66064, Note_on_c, 1, 57, 95
3, 66080, Note_on_c, 1, 57, 0
3, 66080, Note_on_c, 1, 55, 95
3, 66096, Note_on_c, 1, 55, 0
3, 66096, Note_on_c, 1, 54, 95
3, 66112, Note_on_c, 1, 54, 0
3, 66112, Note_on_c, 1, 55, 95
3, 66128, Note_on_c, 1, 55, 0
3, 66128, Note_on_c, 1, 57, 95
3, 66144, Note_on_c, 1, 57, 0
3, 66144, Note_on_c, 1, 50, 95
3, 66168, Note_on_c, 1, 50, 0
3, 66192, Note_on_c, 1, 52, 95
3, 66216, Note_on_c, 1, 52, 0
3, 66240, Note_on_c, 1, 54, 95
3, 66264, Note_on_c, 1, 54, 0
3, 66288, Note_on_c, 1, 42, 95
3, 66312, Note_on_c, 1, 42, 0
3, 66336, Note_on_c, 1, 43, 95
3, 66360, Note_on_c, 1, 43, 0
3, 66384, Note_on_c, 1, 45, 95
3, 66408, Note_on_c, 1, 45, 0
3, 66432, Note_on_c, 1, 47, 95
3, 66456, Note_on_c, 1, 47, 0
3, 66480, Note_on_c, 1, 49, 95
3, 66504, Note_on_c, 1, 49, 0
3, 66528, Note_on_c, 1, 50, 95
3, 66552, Note_on_c, 1, 50, 0
3, 66576, Note_on_c, 1, 52, 95
3, 66600, Note_on_c, 1, 52, 0
3, 66624, Note_on_c, 1, 54, 95
3, 66648, Note_on_c, 1, 54, 0
3, 66672, Note_on_c, 1, 55, 95
3, 66696, Note_on_c, 1, 55, 0
3, 66720, Note_on_c, 1, 57, 95
3, 66744, Note_on_c, 1, 57, 0
3, 66768, Note_on_c, 1, 59, 95
3, 66792, Note_on_c, 1, 59, 0
3, 66816, Note_on_c, 1, 61, 95
3, 66852, Note_on_c, 1, 61, 0
3, 66852, Note_on_c, 1, 57, 95
3, 66864, Note_on_c, 1, 57, 0
3, 66864, Note_on_c, 1, 62, 95
3, 66900, Note_on_c, 1, 62, 0
3, 66900, Note_on_c, 1, 57, 95
3, 66912, Note_on_c, 1, 57, 0
3, 66912, Note_on_c, 1, 59, 95
3, 66928, Note_on_c, 1, 59, 0
3, 66928, Note_on_c, 1, 57, 95
3, 66944, Note_on_c, 1, 57, 0
3, 66944, Note_on_c, 1, 55, 95
3, 66960, Note_on_c, 1, 55, 0
3, 66960, Note_on_c, 1, 54, 95
3, 66976, Note_on_c, 1, 54, 0
3, 66976, Note_on_c, 1, 55, 95
3, 66992, Note_on_c, 1, 55, 0
3, 66992, Note_on_c, 1, 57, 95
3, 67008, Note_on_c, 1, 57, 0
3, 67008, Note_on_c, 1, 50, 95
3, 67024, Note_on_c, 1, 50, 0
3, 67024, Note_on_c, 1, 54, 95
3, 67040, Note_on_c, 1, 54, 0
3, 67040, Note_on_c, 1, 52, 95
3, 67056, Note_on_c, 1, 52, 0
3, 67056, Note_on_c, 1, 50, 95
3, 67072, Note_on_c, 1, 50, 0
3, 67072, Note_on_c, 1, 52, 95
3, 67088, Note_on_c, 1, 52, 0
3, 67088, Note_on_c, 1, 54, 95
3, 67104, Note_on_c, 1, 54, 0
3, 67104, Note_on_c, 1, 55, 95
3, 67128, Note_on_c, 1, 55, 0
3, 67152, Note_on_c, 1, 57, 95
3, 67176, Note_on_c, 1, 57, 0
3, 67200, Note_on_c, 1, 59, 65
3, 67205, Note_on_c, 1, 59, 0
3, 67206, Note_on_c, 1, 61, 54
3, 67211, Note_on_c, 1, 61, 0
3, 67212, Note_on_c, 1, 59, 72
3, 67217, Note_on_c, 1, 59, 0
3, 67218, Note_on_c, 1, 61, 52
3, 67223, Note_on_c, 1, 61, 0
3, 67224, Note_on_c, 1, 59, 59
3, 67229, Note_on_c, 1, 59, 0
3, 67230, Note_on_c, 1, 61, 43
3, 67235, Note_on_c, 1, 61, 0
3, 67236, Note_on_c, 1, 59, 72
3, 67241, Note_on_c, 1, 59, 0
3, 67242, Note_on_c, 1, 61, 59
3, 67247, Note_on_c, 1, 61, 0
3, 67248, Note_on_c, 1, 59, 79
3, 67253, Note_on_c, 1, 59, 0
3, 67254, Note_on_c, 1, 61, 62
3, 67259, Note_on_c, 1, 61, 0
3, 67260, Note_on_c, 1, 59, 85
3, 67265, Note_on_c, 1, 59, 0
3, 67266, Note_on_c, 1, 61, 72
3, 67271, Note_on_c, 1, 61, 0
3, 67272, Note_on_c, 1, 59, 85
3, 67277, Note_on_c, 1, 59, 0
3, 67278, Note_on_c, 1, 61, 85
3, 67283, Note_on_c, 1, 61, 0
3, 67284, Note_on_c, 1, 59, 85
3, 67289, Note_on_c, 1, 59, 0
3, 67290, Note_on_c, 1, 61, 72
3, 67295, Note_on_c, 1, 61, 0
3, 67296, Note_on_c, 1, 59, 76
3, 67312, Note_on_c, 1, 59, 0
3, 67312, Note_on_c, 1, 62, 76
3, 67328, Note_on_c, 1, 62, 0
3, 67328, Note_on_c, 1, 61, 76
3, 67344, Note_on_c, 1, 61, 0
3, 67344, Note_on_c, 1, 59, 76
3, 67360, Note_on_c, 1, 59, 0
3, 67360, Note_on_c, 1, 57, 76
3, 67376, Note_on_c, 1, 57, 0
3, 67376, Note_on_c, 1, 55, 76
3, 67392, Note_on_c, 1, 55, 0
3, 67392, Note_on_c, 1, 54, 57
3, 67397, Note_on_c, 1, 54, 0
3, 67398, Note_on_c, 1, 55, 85
3, 67403, Note_on_c, 1, 55, 0
3, 67404, Note_on_c, 1, 54, 60
3, 67409, Note_on_c, 1, 54, 0
3, 67410, Note_on_c, 1, 55, 85
3, 67415, Note_on_c, 1, 55, 0
3, 67416, Note_on_c, 1, 54, 65
3, 67421, Note_on_c, 1, 54, 0
3, 67422, Note_on_c, 1, 55, 74
3, 67427, Note_on_c, 1, 55, 0
3, 67428, Note_on_c, 1, 54, 65
3, 67433, Note_on_c, 1, 54, 0
3, 67434, Note_on_c, 1, 55, 85
3, 67439, Note_on_c, 1, 55, 0
3, 67440, Note_on_c, 1, 54, 68
3, 67445, Note_on_c, 1, 54, 0
3, 67446, Note_on_c, 1, 55, 85
3, 67451, Note_on_c, 1, 55, 0
3, 67452, Note_on_c, 1, 54, 66
3, 67457, Note_on_c, 1, 54, 0
3, 67458, Note_on_c, 1, 55, 85
3, 67463, Note_on_c, 1, 55, 0
3, 67464, Note_on_c, 1, 54, 72
3, 67469, Note_on_c, 1, 54, 0
3, 67470, Note_on_c, 1, 55, 85
3, 67475, Note_on_c, 1, 55, 0
3, 67476, Note_on_c, 1, 54, 64
3, 67481, Note_on_c, 1, 54, 0
3, 67482, Note_on_c, 1, 55, 85
3, 67487, Note_on_c, 1, 55, 0
3, 67488, Note_on_c, 1, 54, 76
3, 67504, Note_on_c, 1, 54, 0
3, 67504, Note_on_c, 1, 50, 71
3, 67520, Note_on_c, 1, 50, 0
3, 67520, Note_on_c, 1, 52, 85
3, 67536, Note_on_c, 1, 52, 0
3, 67536, Note_on_c, 1, 54, 59
3, 67552, Note_on_c, 1, 54, 0
3, 67552, Note_on_c, 1, 52, 69
3, 67568, Note_on_c, 1, 52, 0
3, 67568, Note_on_c, 1, 54, 60
3, 67584, Note_on_c, 1, 54, 0
3, 67584, Note_on_c, 1, 56, 64
3, 67600, Note_on_c, 1, 56, 0
3, 67600, Note_on_c, 1, 59, 85
3, 67616, Note_on_c, 1, 59, 0
3, 67616, Note_on_c, 1, 57, 85
3, 67632, Note_on_c, 1, 57, 0
3, 67632, Note_on_c, 1, 56, 59
3, 67648, Note_on_c, 1, 56, 0
3, 67648, Note_on_c, 1, 59, 57
3, 67664, Note_on_c, 1, 59, 0
3, 67664, Note_on_c, 1, 57, 85
3, 67680, Note_on_c, 1, 57, 0
3, 67680, Note_on_c, 1, 56, 57
3, 67696, Note_on_c, 1, 56, 0
3, 67696, Note_on_c, 1, 52, 77
3, 67712, Note_on_c, 1, 52, 0
3, 67712, Note_on_c, 1, 54, 56
3, 67728, Note_on_c, 1, 54, 0
3, 67728, Note_on_c, 1, 56, 61
3, 67744, Note_on_c, 1, 56, 0
3, 67744, Note_on_c, 1, 54, 66
3, 67760, Note_on_c, 1, 54, 0
3, 67760, Note_on_c, 1, 56, 67
3, 67776, Note_on_c, 1, 56, 0
3, 67776, Note_on_c, 1, 57, 76
3, 67784, Note_on_c, 1, 57, 0
3, 67784, Note_on_c, 1, 61, 52
3, 67792, Note_on_c, 1, 61, 0
3, 67792, Note_on_c, 1, 62, 82
3, 67800, Note_on_c, 1, 62, 0
3, 67800, Note_on_c, 1, 64, 67
3, 67808, Note_on_c, 1, 64, 0
3, 67808, Note_on_c, 1, 66, 40
3, 67816, Note_on_c, 1, 66, 0
3, 67816, Note_on_c, 1, 67, 85
3, 67824, Note_on_c, 1, 67, 0
3, 67824, Note_on_c, 1, 69, 85
3, 67840, Note_on_c, 1, 69, 0
3, 67880, Note_on_c, 1, 59, 85
3, 67888, Note_on_c, 1, 59, 0
3, 67888, Note_on_c, 1, 61, 57
3, 67896, Note_on_c, 1, 61, 0
3, 67896, Note_on_c, 1, 62, 85
3, 67904, Note_on_c, 1, 62, 0
3, 67904, Note_on_c, 1, 64, 85
3, 67912, Note_on_c, 1, 64, 0
3, 67912, Note_on_c, 1, 66, 64
3, 67920, Note_on_c, 1, 66, 0
3, 67920, Note_on_c, 1, 67, 85
3, 67936, Note_on_c, 1, 67, 0
3, 67976, Note_on_c, 1, 57, 76
3, 67984, Note_on_c, 1, 57, 0
3, 67984, Note_on_c, 1, 59, 76
3, 67992, Note_on_c, 1, 59, 0
3, 67992, Note_on_c, 1, 61, 76
3, 68000, Note_on_c, 1, 61, 0
3, 68000, Note_on_c, 1, 62, 76
3, 68008, Note_on_c, 1, 62, 0
3, 68008, Note_on_c, 1, 64, 76
3, 68016, Note_on_c, 1, 64, 0
3, 68016, Note_on_c, 1, 66, 76
3, 68032, Note_on_c, 1, 66, 0
3, 68064, Note_on_c, 1, 55, 76
3, 68080, Note_on_c, 1, 55, 0
3, 68152, Note_on_c, 1, 59, 76
3, 68160, Note_on_c, 1, 59, 0
3, 68160, Note_on_c, 1, 57, 103
3, 68165, Note_on_c, 1, 57, 0
3, 68168, Note_on_c, 1, 59, 103
3, 68173, Note_on_c, 1, 59, 0
3, 68176, Note_on_c, 1, 57, 93
3, 68181, Note_on_c, 1, 57, 0
3, 68184, Note_on_c, 1, 55, 82
3, 68189, Note_on_c, 1, 55, 0
3, 68192, Note_on_c, 1, 54, 86
3, 68197, Note_on_c, 1, 54, 0
3, 68200, Note_on_c, 1, 52, 103
3, 68205, Note_on_c, 1, 52, 0
3, 68208, Note_on_c, 1, 50, 99
3, 68213, Note_on_c, 1, 50, 0
3, 68216, Note_on_c, 1, 52, 82
3, 68221, Note_on_c, 1, 52, 0
3, 68224, Note_on_c, 1, 50, 80
3, 68229, Note_on_c, 1, 50, 0
3, 68232, Note_on_c, 1, 49, 82
3, 68237, Note_on_c, 1, 49, 0
3, 68240, Note_on_c, 1, 47, 69
3, 68245, Note_on_c, 1, 47, 0
3, 68248, Note_on_c, 1, 45, 103
3, 68253, Note_on_c, 1, 45, 0
3, 68256, Note_on_c, 1, 47, 100
3, 68267, Note_on_c, 1, 47, 0
3, 68272, Note_on_c, 1, 45, 100
3, 68283, Note_on_c, 1, 45, 0
3, 68288, Note_on_c, 1, 43, 103
3, 68299, Note_on_c, 1, 43, 0
3, 68304, Note_on_c, 1, 45, 103
3, 68328, Note_on_c, 1, 45, 0
3, 68340, Note_on_c, 1, 45, 103
3, 68348, Note_on_c, 1, 45, 0
3, 68352, Note_on_c, 1, 38, 103
3, 68368, Note_on_c, 1, 38, 0
3, 68400, Note_on_c, 1, 42, 88
3, 68416, Note_on_c, 1, 42, 0
3, 68448, Note_on_c, 1, 43, 103
3, 68464, Note_on_c, 1, 43, 0
3, 68496, Note_on_c, 1, 48, 91
3, 68512, Note_on_c, 1, 48, 0
3, 68544, Note_on_c, 1, 47, 103
3, 68568, Note_on_c, 1, 47, 0
3, 68580, Note_on_c, 1, 55, 103
3, 68588, Note_on_c, 1, 55, 0
3, 68592, Note_on_c, 1, 62, 103
3, 68616, Note_on_c, 1, 62, 0
3, 68628, Note_on_c, 1, 57, 103
3, 68636, Note_on_c, 1, 57, 0
3, 68640, Note_on_c, 1, 59, 103
3, 68651, Note_on_c, 1, 59, 0
3, 68656, Note_on_c, 1, 57, 103
3, 68667, Note_on_c, 1, 57, 0
3, 68672, Note_on_c, 1, 55, 98
3, 68683, Note_on_c, 1, 55, 0
3, 68688, Note_on_c, 1, 54, 84
3, 68699, Note_on_c, 1, 54, 0
3, 68704, Note_on_c, 1, 56, 89
3, 68715, Note_on_c, 1, 56, 0
3, 68720, Note_on_c, 1, 57, 103
3, 68731, Note_on_c, 1, 57, 0
3, 68736, Note_on_c, 1, 56, 62
3, 68741, Note_on_c, 1, 56, 0
3, 68742, Note_on_c, 1, 57, 85
3, 68747, Note_on_c, 1, 57, 0
3, 68748, Note_on_c, 1, 56, 70
3, 68753, Note_on_c, 1, 56, 0
3, 68754, Note_on_c, 1, 57, 85
3, 68759, Note_on_c, 1, 57, 0
3, 68760, Note_on_c, 1, 56, 68
3, 68765, Note_on_c, 1, 56, 0
3, 68766, Note_on_c, 1, 57, 85
3, 68771, Note_on_c, 1, 57, 0
3, 68772, Note_on_c, 1, 56, 70
3, 68777, Note_on_c, 1, 56, 0
3, 68778, Note_on_c, 1, 57, 85
3, 68783, Note_on_c, 1, 57, 0
3, 68784, Note_on_c, 1, 56, 76
3, 68789, Note_on_c, 1, 56, 0
3, 68790, Note_on_c, 1, 57, 85
3, 68795, Note_on_c, 1, 57, 0
3, 68796, Note_on_c, 1, 56, 79
3, 68801, Note_on_c, 1, 56, 0
3, 68802, Note_on_c, 1, 57, 85
3, 68807, Note_on_c, 1, 57, 0
3, 68808, Note_on_c, 1, 56, 79
3, 68813, Note_on_c, 1, 56, 0
3, 68814, Note_on_c, 1, 57, 85
3, 68819, Note_on_c, 1, 57, 0
3, 68820, Note_on_c, 1, 56, 77
3, 68825, Note_on_c, 1, 56, 0
3, 68826, Note_on_c, 1, 57, 85
3, 68831, Note_on_c, 1, 57, 0
3, 68832, Note_on_c, 1, 56, 77
3, 68843, Note_on_c, 1, 56, 0
3, 68848, Note_on_c, 1, 59, 103
3, 68859, Note_on_c, 1, 59, 0
3, 68864, Note_on_c, 1, 57, 103
3, 68875, Note_on_c, 1, 57, 0
3, 68880, Note_on_c, 1, 56, 80
3, 68891, Note_on_c, 1, 56, 0
3, 68896, Note_on_c, 1, 59, 103
3, 68907, Note_on_c, 1, 59, 0
3, 68912, Note_on_c, 1, 57, 103
3, 68923, Note_on_c, 1, 57, 0
3, 68928, Note_on_c, 1, 56, 66
3, 68933, Note_on_c, 1, 56, 0
3, 68934, Note_on_c, 1, 57, 85
3, 68939, Note_on_c, 1, 57, 0
3, 68940, Note_on_c, 1, 56, 70
3, 68945, Note_on_c, 1, 56, 0
3, 68946, Note_on_c, 1, 57, 85
3, 68951, Note_on_c, 1, 57, 0
3, 68952, Note_on_c, 1, 56, 62
3, 68957, Note_on_c, 1, 56, 0
3, 68958, Note_on_c, 1, 57, 85
3, 68963, Note_on_c, 1, 57, 0
3, 68964, Note_on_c, 1, 56, 76
3, 68969, Note_on_c, 1, 56, 0
3, 68970, Note_on_c, 1, 57, 85
3, 68975, Note_on_c, 1, 57, 0
3, 68976, Note_on_c, 1, 56, 74
3, 68981, Note_on_c, 1, 56, 0
3, 68982, Note_on_c, 1, 57, 85
3, 68987, Note_on_c, 1, 57, 0
3, 68988, Note_on_c, 1, 56, 74
3, 68993, Note_on_c, 1, 56, 0
3, 68994, Note_on_c, 1, 57, 85
3, 68999, Note_on_c, 1, 57, 0
3, 69000, Note_on_c, 1, 56, 81
3, 69005, Note_on_c, 1, 56, 0
3, 69006, Note_on_c, 1, 57, 85
3, 69011, Note_on_c, 1, 57, 0
3, 69012, Note_on_c, 1, 56, 70
3, 69017, Note_on_c, 1, 56, 0
3, 69018, Note_on_c, 1, 57, 85
3, 69023, Note_on_c, 1, 57, 0
3, 69024, Note_on_c, 1, 56, 88
3, 69035, Note_on_c, 1, 56, 0
3, 69040, Note_on_c, 1, 59, 103
3, 69051, Note_on_c, 1, 59, 0
3, 69056, Note_on_c, 1, 57, 103
3, 69067, Note_on_c, 1, 57, 0
3, 69072, Note_on_c, 1, 56, 69
3, 69083, Note_on_c, 1, 56, 0
3, 69088, Note_on_c, 1, 54, 90
3, 69099, Note_on_c, 1, 54, 0
3, 69104, Note_on_c, 1, 52, 103
3, 69115, Note_on_c, 1, 52, 0
3, 69120, Note_on_c, 1, 57, 103
3, 69131, Note_on_c, 1, 57, 0
3, 69136, Note_on_c, 1, 61, 84
3, 69147, Note_on_c, 1, 61, 0
3, 69152, Note_on_c, 1, 59, 94
3, 69163, Note_on_c, 1, 59, 0
3, 69168, Note_on_c, 1, 57, 103
3, 69179, Note_on_c, 1, 57, 0
3, 69184, Note_on_c, 1, 55, 103
3, 69195, Note_on_c, 1, 55, 0
3, 69200, Note_on_c, 1, 54, 84
3, 69211, Note_on_c, 1, 54, 0
3, 69216, Note_on_c, 1, 59, 96
3, 69227, Note_on_c, 1, 59, 0
3, 69232, Note_on_c, 1, 62, 103
3, 69243, Note_on_c, 1, 62, 0
3, 69248, Note_on_c, 1, 61, 89
3, 69259, Note_on_c, 1, 61, 0
3, 69264, Note_on_c, 1, 59, 103
3, 69275, Note_on_c, 1, 59, 0
3, 69280, Note_on_c, 1, 57, 103
3, 69291, Note_on_c, 1, 57, 0
3, 69296, Note_on_c, 1, 55, 103
3, 69307, Note_on_c, 1, 55, 0
3, 69312, Note_on_c, 1, 61, 92
3, 69323, Note_on_c, 1, 61, 0
3, 69328, Note_on_c, 1, 64, 103
3, 69339, Note_on_c, 1, 64, 0
3, 69344, Note_on_c, 1, 62, 103
3, 69355, Note_on_c, 1, 62, 0
3, 69360, Note_on_c, 1, 61, 92
3, 69371, Note_on_c, 1, 61, 0
3, 69376, Note_on_c, 1, 59, 103
3, 69387, Note_on_c, 1, 59, 0
3, 69392, Note_on_c, 1, 57, 103
3, 69403, Note_on_c, 1, 57, 0
3, 69408, Note_on_c, 1, 62, 103
3, 69424, Note_on_c, 1, 62, 0
3, 69456, Note_on_c, 1, 54, 93
3, 69472, Note_on_c, 1, 54, 0
3, 69504, Note_on_c, 1, 55, 103
3, 69520, Note_on_c, 1, 55, 0
3, 69552, Note_on_c, 1, 57, 103
3, 69568, Note_on_c, 1, 57, 0
3, 69600, Note_on_c, 1, 59, 103
3, 69611, Note_on_c, 1, 59, 0
3, 69616, Note_on_c, 1, 57, 103
3, 69627, Note_on_c, 1, 57, 0
3, 69632, Note_on_c, 1, 55, 103
3, 69643, Note_on_c, 1, 55, 0
3, 69648, Note_on_c, 1, 57, 103
3, 69672, Note_on_c, 1, 57, 0
3, 69684, Note_on_c, 1, 45, 103
3, 69692, Note_on_c, 1, 45, 0
3, 69696, Note_on_c, 1, 50, 103
3, 69707, Note_on_c, 1, 50, 0
3, 69712, Note_on_c, 1, 54, 62
3, 69723, Note_on_c, 1, 54, 0
3, 69728, Note_on_c, 1, 52, 81
3, 69739, Note_on_c, 1, 52, 0
3, 69744, Note_on_c, 1, 50, 103
3, 69755, Note_on_c, 1, 50, 0
3, 69760, Note_on_c, 1, 52, 84
3, 69771, Note_on_c, 1, 52, 0
3, 69776, Note_on_c, 1, 54, 84
3, 69787, Note_on_c, 1, 54, 0
3, 69792, Note_on_c, 1, 47, 81
3, 69808, Note_on_c, 1, 47, 0
3, 69888, Note_on_c, 1, 47, 103
3, 69904, Note_on_c, 1, 47, 0
3, 69984, Note_on_c, 1, 47, 103
3, 70000, Note_on_c, 1, 47, 0
3, 70080, Note_on_c, 1, 47, 85
3, 70096, Note_on_c, 1, 47, 0
3, 70176, Note_on_c, 1, 47, 103
3, 70192, Note_on_c, 1, 47, 0
3, 70272, Note_on_c, 1, 47, 103
3, 70288, Note_on_c, 1, 47, 0
3, 70368, Note_on_c, 1, 47, 103
3, 70384, Note_on_c, 1, 47, 0
3, 70464, Note_on_c, 1, 47, 103
3, 70488, Note_on_c, 1, 47, 0
3, 70500, Note_on_c, 1, 54, 80
3, 70508, Note_on_c, 1, 54, 0
3, 70512, Note_on_c, 1, 59, 91
3, 70523, Note_on_c, 1, 59, 0
3, 70528, Note_on_c, 1, 62, 103
3, 70539, Note_on_c, 1, 62, 0
3, 70544, Note_on_c, 1, 61, 87
3, 70555, Note_on_c, 1, 61, 0
3, 70560, Note_on_c, 1, 62, 88
3, 70571, Note_on_c, 1, 62, 0
3, 70576, Note_on_c, 1, 61, 80
3, 70587, Note_on_c, 1, 61, 0
3, 70592, Note_on_c, 1, 59, 100
3, 70603, Note_on_c, 1, 59, 0
3, 70608, Note_on_c, 1, 58, 84
3, 70619, Note_on_c, 1, 58, 0
3, 70624, Note_on_c, 1, 59, 103
3, 70635, Note_on_c, 1, 59, 0
3, 70640, Note_on_c, 1, 61, 91
3, 70651, Note_on_c, 1, 61, 0
3, 70656, Note_on_c, 1, 54, 82
3, 70688, Note_on_c, 1, 54, 0
3, 70720, Note_on_c, 1, 55, 103
3, 70731, Note_on_c, 1, 55, 0
3, 70736, Note_on_c, 1, 52, 95
3, 70747, Note_on_c, 1, 52, 0
3, 70752, Note_on_c, 1, 50, 96
3, 70763, Note_on_c, 1, 50, 0
3, 70768, Note_on_c, 1, 49, 84
3, 70779, Note_on_c, 1, 49, 0
3, 70784, Note_on_c, 1, 47, 103
3, 70795, Note_on_c, 1, 47, 0
3, 70848, Note_on_c, 1, 47, 85
3, 70864, Note_on_c, 1, 47, 0
3, 70944, Note_on_c, 1, 47, 85
3, 70960, Note_on_c, 1, 47, 0
3, 71040, Note_on_c, 1, 47, 85
3, 71056, Note_on_c, 1, 47, 0
3, 71136, Note_on_c, 1, 47, 85
3, 71152, Note_on_c, 1, 47, 0
3, 71232, Note_on_c, 1, 47, 91
3, 71248, Note_on_c, 1, 47, 0
3, 71328, Note_on_c, 1, 47, 95
3, 71344, Note_on_c, 1, 47, 0
3, 71424, Note_on_c, 1, 47, 91
3, 71448, Note_on_c, 1, 47, 0
3, 71460, Note_on_c, 1, 54, 86
3, 71468, Note_on_c, 1, 54, 0
3, 71472, Note_on_c, 1, 59, 78
3, 71483, Note_on_c, 1, 59, 0
3, 71488, Note_on_c, 1, 57, 85
3, 71499, Note_on_c, 1, 57, 0
3, 71504, Note_on_c, 1, 56, 66
3, 71515, Note_on_c, 1, 56, 0
3, 71520, Note_on_c, 1, 57, 85
3, 71531, Note_on_c, 1, 57, 0
3, 71536, Note_on_c, 1, 56, 67
3, 71547, Note_on_c, 1, 56, 0
3, 71552, Note_on_c, 1, 54, 59
3, 71563, Note_on_c, 1, 54, 0
3, 71568, Note_on_c, 1, 53, 85
3, 71579, Note_on_c, 1, 53, 0
3, 71584, Note_on_c, 1, 54, 62
3, 71595, Note_on_c, 1, 54, 0
3, 71600, Note_on_c, 1, 56, 69
3, 71611, Note_on_c, 1, 56, 0
3, 71616, Note_on_c, 1, 49, 78
3, 71665, Note_on_c, 1, 49, 0
3, 71680, Note_on_c, 1, 50, 53
3, 71691, Note_on_c, 1, 50, 0
3, 71696, Note_on_c, 1, 47, 85
3, 71707, Note_on_c, 1, 47, 0
3, 71712, Note_on_c, 1, 45, 79
3, 71723, Note_on_c, 1, 45, 0
3, 71728, Note_on_c, 1, 44, 56
3, 71739, Note_on_c, 1, 44, 0
3, 71744, Note_on_c, 1, 42, 70
3, 71755, Note_on_c, 1, 42, 0
3, 71808, Note_on_c, 1, 42, 72
3, 71824, Note_on_c, 1, 42, 0
3, 71904, Note_on_c, 1, 42, 66
3, 71920, Note_on_c, 1, 42, 0
3, 72000, Note_on_c, 1, 42, 66
3, 72016, Note_on_c, 1, 42, 0
3, 72096, Note_on_c, 1, 42, 66
3, 72112, Note_on_c, 1, 42, 0
3, 72192, Note_on_c, 1, 42, 72
3, 72208, Note_on_c, 1, 42, 0
3, 72288, Note_on_c, 1, 42, 71
3, 72304, Note_on_c, 1, 42, 0
3, 72384, Note_on_c, 1, 42, 70
3, 72408, Note_on_c, 1, 42, 0
3, 72420, Note_on_c, 1, 49, 60
3, 72428, Note_on_c, 1, 49, 0
3, 72432, Note_on_c, 1, 54, 66
3, 72443, Note_on_c, 1, 54, 0
3, 72448, Note_on_c, 1, 57, 81
3, 72459, Note_on_c, 1, 57, 0
3, 72464, Note_on_c, 1, 56, 66
3, 72475, Note_on_c, 1, 56, 0
3, 72480, Note_on_c, 1, 57, 85
3, 72496, Note_on_c, 1, 57, 0
3, 72592, Note_on_c, 1, 49, 66
3, 72603, Note_on_c, 1, 49, 0
3, 72608, Note_on_c, 1, 50, 85
3, 72619, Note_on_c, 1, 50, 0
3, 72624, Note_on_c, 1, 52, 85
3, 72635, Note_on_c, 1, 52, 0
3, 72640, Note_on_c, 1, 56, 59
3, 72651, Note_on_c, 1, 56, 0
3, 72656, Note_on_c, 1, 54, 66
3, 72667, Note_on_c, 1, 54, 0
3, 72672, Note_on_c, 1, 56, 66
3, 72688, Note_on_c, 1, 56, 0
3, 72784, Note_on_c, 1, 47, 85
3, 72795, Note_on_c, 1, 47, 0
3, 72800, Note_on_c, 1, 49, 62
3, 72811, Note_on_c, 1, 49, 0
3, 72816, Note_on_c, 1, 50, 85
3, 72827, Note_on_c, 1, 50, 0
3, 72832, Note_on_c, 1, 54, 59
3, 72843, Note_on_c, 1, 54, 0
3, 72848, Note_on_c, 1, 53, 85
3, 72859, Note_on_c, 1, 53, 0
3, 72864, Note_on_c, 1, 54, 60
3, 72875, Note_on_c, 1, 54, 0
3, 72880, Note_on_c, 1, 45, 85
3, 72891, Note_on_c, 1, 45, 0
3, 72896, Note_on_c, 1, 47, 85
3, 72907, Note_on_c, 1, 47, 0
3, 72912, Note_on_c, 1, 49, 55
3, 72923, Note_on_c, 1, 49, 0
3, 72928, Note_on_c, 1, 53, 85
3, 72939, Note_on_c, 1, 53, 0
3, 72944, Note_on_c, 1, 51, 61
3, 72955, Note_on_c, 1, 51, 0
3, 72960, Note_on_c, 1, 53, 85
3, 72971, Note_on_c, 1, 53, 0
3, 72976, Note_on_c, 1, 56, 66
3, 72987, Note_on_c, 1, 56, 0
3, 72992, Note_on_c, 1, 54, 66
3, 73003, Note_on_c, 1, 54, 0
3, 73008, Note_on_c, 1, 53, 85
3, 73019, Note_on_c, 1, 53, 0
3, 73024, Note_on_c, 1, 56, 62
3, 73035, Note_on_c, 1, 56, 0
3, 73040, Note_on_c, 1, 54, 70
3, 73051, Note_on_c, 1, 54, 0
3, 73056, Note_on_c, 1, 53, 70
3, 73059, Note_on_c, 1, 53, 0
3, 73060, Note_on_c, 1, 54, 66
3, 73063, Note_on_c, 1, 54, 0
3, 73064, Note_on_c, 1, 53, 72
3, 73067, Note_on_c, 1, 53, 0
3, 73068, Note_on_c, 1, 54, 66
3, 73071, Note_on_c, 1, 54, 0
3, 73072, Note_on_c, 1, 53, 76
3, 73075, Note_on_c, 1, 53, 0
3, 73076, Note_on_c, 1, 54, 62
3, 73079, Note_on_c, 1, 54, 0
3, 73080, Note_on_c, 1, 53, 82
3, 73083, Note_on_c, 1, 53, 0
3, 73084, Note_on_c, 1, 54, 59
3, 73087, Note_on_c, 1, 54, 0
3, 73088, Note_on_c, 1, 53, 85
3, 73091, Note_on_c, 1, 53, 0
3, 73092, Note_on_c, 1, 54, 65
3, 73095, Note_on_c, 1, 54, 0
3, 73096, Note_on_c, 1, 53, 79
3, 73099, Note_on_c, 1, 53, 0
3, 73100, Note_on_c, 1, 54, 64
3, 73103, Note_on_c, 1, 54, 0
3, 73104, Note_on_c, 1, 53, 85
3, 73107, Note_on_c, 1, 53, 0
3, 73108, Note_on_c, 1, 54, 59
3, 73111, Note_on_c, 1, 54, 0
3, 73112, Note_on_c, 1, 53, 85
3, 73115, Note_on_c, 1, 53, 0
3, 73116, Note_on_c, 1, 54, 62
3, 73119, Note_on_c, 1, 54, 0
3, 73120, Note_on_c, 1, 53, 85
3, 73123, Note_on_c, 1, 53, 0
3, 73124, Note_on_c, 1, 54, 68
3, 73127, Note_on_c, 1, 54, 0
3, 73128, Note_on_c, 1, 53, 85
3, 73131, Note_on_c, 1, 53, 0
3, 73132, Note_on_c, 1, 54, 67
3, 73135, Note_on_c, 1, 54, 0
3, 73136, Note_on_c, 1, 53, 85
3, 73139, Note_on_c, 1, 53, 0
3, 73140, Note_on_c, 1, 54, 72
3, 73143, Note_on_c, 1, 54, 0
3, 73144, Note_on_c, 1, 53, 85
3, 73147, Note_on_c, 1, 53, 0
3, 73148, Note_on_c, 1, 54, 68
3, 73151, Note_on_c, 1, 54, 0
3, 73152, Note_on_c, 1, 53, 85
3, 73163, Note_on_c, 1, 53, 0
3, 73168, Note_on_c, 1, 49, 62
3, 73179, Note_on_c, 1, 49, 0
3, 73184, Note_on_c, 1, 51, 62
3, 73195, Note_on_c, 1, 51, 0
3, 73200, Note_on_c, 1, 53, 85
3, 73211, Note_on_c, 1, 53, 0
3, 73216, Note_on_c, 1, 51, 56
3, 73227, Note_on_c, 1, 51, 0
3, 73232, Note_on_c, 1, 53, 85
3, 73243, Note_on_c, 1, 53, 0
3, 73248, Note_on_c, 1, 54, 61
3, 73259, Note_on_c, 1, 54, 0
3, 73264, Note_on_c, 1, 50, 85
3, 73275, Note_on_c, 1, 50, 0
3, 73280, Note_on_c, 1, 52, 85
3, 73291, Note_on_c, 1, 52, 0
3, 73296, Note_on_c, 1, 54, 59
3, 73307, Note_on_c, 1, 54, 0
3, 73312, Note_on_c, 1, 52, 85
3, 73323, Note_on_c, 1, 52, 0
3, 73328, Note_on_c, 1, 54, 62
3, 73339, Note_on_c, 1, 54, 0
3, 73344, Note_on_c, 1, 56, 66
3, 73355, Note_on_c, 1, 56, 0
3, 73360, Note_on_c, 1, 52, 85
3, 73371, Note_on_c, 1, 52, 0
3, 73376, Note_on_c, 1, 54, 70
3, 73387, Note_on_c, 1, 54, 0
3, 73392, Note_on_c, 1, 56, 66
3, 73403, Note_on_c, 1, 56, 0
3, 73408, Note_on_c, 1, 54, 68
3, 73419, Note_on_c, 1, 54, 0
3, 73424, Note_on_c, 1, 56, 55
3, 73435, Note_on_c, 1, 56, 0
3, 73440, Note_on_c, 1, 57, 85
3, 73451, Note_on_c, 1, 57, 0
3, 73456, Note_on_c, 1, 54, 60
3, 73467, Note_on_c, 1, 54, 0
3, 73472, Note_on_c, 1, 56, 72
3, 73483, Note_on_c, 1, 56, 0
3, 73488, Note_on_c, 1, 57, 85
3, 73499, Note_on_c, 1, 57, 0
3, 73504, Note_on_c, 1, 56, 66
3, 73515, Note_on_c, 1, 56, 0
3, 73520, Note_on_c, 1, 57, 85
3, 73531, Note_on_c, 1, 57, 0
3, 73536, Note_on_c, 1, 59, 74
3, 73547, Note_on_c, 1, 59, 0
3, 73552, Note_on_c, 1, 56, 62
3, 73563, Note_on_c, 1, 56, 0
3, 73568, Note_on_c, 1, 57, 85
3, 73579, Note_on_c, 1, 57, 0
3, 73584, Note_on_c, 1, 59, 85
3, 73595, Note_on_c, 1, 59, 0
3, 73600, Note_on_c, 1, 57, 85
3, 73611, Note_on_c, 1, 57, 0
3, 73616, Note_on_c, 1, 59, 85
3, 73627, Note_on_c, 1, 59, 0
3, 73632, Note_on_c, 1, 53, 85
3, 73643, Note_on_c, 1, 53, 0
3, 73648, Note_on_c, 1, 56, 71
3, 73659, Note_on_c, 1, 56, 0
3, 73664, Note_on_c, 1, 54, 60
3, 73675, Note_on_c, 1, 54, 0
3, 73680, Note_on_c, 1, 53, 85
3, 73691, Note_on_c, 1, 53, 0
3, 73696, Note_on_c, 1, 51, 62
3, 73707, Note_on_c, 1, 51, 0
3, 73712, Note_on_c, 1, 53, 85
3, 73723, Note_on_c, 1, 53, 0
3, 73728, Note_on_c, 1, 54, 54
3, 73739, Note_on_c, 1, 54, 0
3, 73744, Note_on_c, 1, 42, 56
3, 73755, Note_on_c, 1, 42, 0
3, 73760, Note_on_c, 1, 44, 66
3, 73771, Note_on_c, 1, 44, 0
3, 73776, Note_on_c, 1, 45, 85
3, 73787, Note_on_c, 1, 45, 0
3, 73792, Note_on_c, 1, 44, 59
3, 73803, Note_on_c, 1, 44, 0
3, 73808, Note_on_c, 1, 45, 85
3, 73819, Note_on_c, 1, 45, 0
3, 73824, Note_on_c, 1, 47, 70
3, 73835, Note_on_c, 1, 47, 0
3, 73840, Note_on_c, 1, 44, 46
3, 73851, Note_on_c, 1, 44, 0
3, 73856, Note_on_c, 1, 45, 85
3, 73867, Note_on_c, 1, 45, 0
3, 73872, Note_on_c, 1, 47, 85
3, 73883, Note_on_c, 1, 47, 0
3, 73888, Note_on_c, 1, 45, 85
3, 73899, Note_on_c, 1, 45, 0
3, 73904, Note_on_c, 1, 47, 85
3, 73915, Note_on_c, 1, 47, 0
3, 73920, Note_on_c, 1, 49, 79
3, 73969, Note_on_c, 1, 49, 0
3, 73984, Note_on_c, 1, 50, 79
3, 73995, Note_on_c, 1, 50, 0
3, 74000, Note_on_c, 1, 52, 85
3, 74011, Note_on_c, 1, 52, 0
3, 74016, Note_on_c, 1, 54, 70
3, 74065, Note_on_c, 1, 54, 0
3, 74080, Note_on_c, 1, 56, 66
3, 74091, Note_on_c, 1, 56, 0
3, 74096, Note_on_c, 1, 58, 72
3, 74107, Note_on_c, 1, 58, 0
3, 74112, Note_on_c, 1, 59, 85
3, 74123, Note_on_c, 1, 59, 0
3, 74128, Note_on_c, 1, 61, 62
3, 74139, Note_on_c, 1, 61, 0
3, 74144, Note_on_c, 1, 62, 85
3, 74155, Note_on_c, 1, 62, 0
3, 74160, Note_on_c, 1, 61, 70
3, 74171, Note_on_c, 1, 61, 0
3, 74176, Note_on_c, 1, 63, 70
3, 74187, Note_on_c, 1, 63, 0
3, 74192, Note_on_c, 1, 65, 85
3, 74203, Note_on_c, 1, 65, 0
3, 74208, Note_on_c, 1, 54, 40
3, 74219, Note_on_c, 1, 54, 0
3, 74224, Note_on_c, 1, 56, 54
3, 74235, Note_on_c, 1, 56, 0
3, 74240, Note_on_c, 1, 57, 85
3, 74251, Note_on_c, 1, 57, 0
3, 74256, Note_on_c, 1, 56, 53
3, 74267, Note_on_c, 1, 56, 0
3, 74272, Note_on_c, 1, 57, 85
3, 74283, Note_on_c, 1, 57, 0
3, 74288, Note_on_c, 1, 59, 85
3, 74299, Note_on_c, 1, 59, 0
3, 74304, Note_on_c, 1, 57, 85
3, 74315, Note_on_c, 1, 57, 0
3, 74320, Note_on_c, 1, 59, 81
3, 74331, Note_on_c, 1, 59, 0
3, 74336, Note_on_c, 1, 61, 67
3, 74347, Note_on_c, 1, 61, 0
3, 74352, Note_on_c, 1, 50, 85
3, 74368, Note_on_c, 1, 50, 0
3, 74400, Note_on_c, 1, 47, 85
3, 74416, Note_on_c, 1, 47, 0
3, 74448, Note_on_c, 1, 49, 70
3, 74464, Note_on_c, 1, 49, 0
3, 74496, Note_on_c, 1, 42, 74
3, 74512, Note_on_c, 1, 42, 0
3, 74544, Note_on_c, 1, 45, 85
3, 74560, Note_on_c, 1, 45, 0
3, 74592, Note_on_c, 1, 47, 85
3, 74608, Note_on_c, 1, 47, 0
3, 74640, Note_on_c, 1, 49, 67
3, 74656, Note_on_c, 1, 49, 0
3, 74688, Note_on_c, 1, 50, 85
3, 74704, Note_on_c, 1, 50, 0
3, 74736, Note_on_c, 1, 51, 72
3, 74752, Note_on_c, 1, 51, 0
3, 74784, Note_on_c, 1, 52, 85
3, 74800, Note_on_c, 1, 52, 0
3, 74832, Note_on_c, 1, 54, 74
3, 74848, Note_on_c, 1, 54, 0
3, 74880, Note_on_c, 1, 55, 85
3, 74896, Note_on_c, 1, 55, 0
3, 74928, Note_on_c, 1, 56, 93
3, 74944, Note_on_c, 1, 56, 0
3, 74976, Note_on_c, 1, 57, 85
3, 74992, Note_on_c, 1, 57, 0
3, 75024, Note_on_c, 1, 59, 85
3, 75040, Note_on_c, 1, 59, 0
3, 75072, Note_on_c, 1, 61, 74
3, 75088, Note_on_c, 1, 61, 0
3, 75120, Note_on_c, 1, 49, 68
3, 75136, Note_on_c, 1, 49, 0
3, 75168, Note_on_c, 1, 50, 85
3, 75184, Note_on_c, 1, 50, 0
3, 75216, Note_on_c, 1, 52, 76
3, 75232, Note_on_c, 1, 52, 0
3, 75264, Note_on_c, 1, 54, 76
3, 75280, Note_on_c, 1, 54, 0
3, 75312, Note_on_c, 1, 42, 76
3, 75328, Note_on_c, 1, 42, 0
3, 75360, Note_on_c, 1, 44, 76
3, 75376, Note_on_c, 1, 44, 0
3, 75408, Note_on_c, 1, 56, 76
3, 75424, Note_on_c, 1, 56, 0
3, 75456, Note_on_c, 1, 57, 76
3, 75472, Note_on_c, 1, 57, 0
3, 75504, Note_on_c, 1, 45, 76
3, 75520, Note_on_c, 1, 45, 0
3, 75552, Note_on_c, 1, 47, 76
3, 75568, Note_on_c, 1, 47, 0
3, 75600, Note_on_c, 1, 59, 76
3, 75616, Note_on_c, 1, 59, 0
3, 75648, Note_on_c, 1, 61, 76
3, 75664, Note_on_c, 1, 61, 0
3, 75696, Note_on_c, 1, 49, 76
3, 75712, Note_on_c, 1, 49, 0
3, 75744, Note_on_c, 1, 50, 76
3, 75760, Note_on_c, 1, 50, 0
3, 75792, Note_on_c, 1, 62, 76
3, 75808, Note_on_c, 1, 62, 0
3, 75840, Note_on_c, 1, 62, 76
3, 75856, Note_on_c, 1, 62, 0
3, 75888, Note_on_c, 1, 61, 76
3, 75904, Note_on_c, 1, 61, 0
3, 75936, Note_on_c, 1, 62, 76
3, 75952, Note_on_c, 1, 62, 0
3, 75984, Note_on_c, 1, 64, 76
3, 76000, Note_on_c, 1, 64, 0
3, 76032, Note_on_c, 1, 66, 62
3, 76043, Note_on_c, 1, 66, 0
3, 76048, Note_on_c, 1, 64, 85
3, 76059, Note_on_c, 1, 64, 0
3, 76064, Note_on_c, 1, 62, 85
3, 76075, Note_on_c, 1, 62, 0
3, 76080, Note_on_c, 1, 61, 64
3, 76091, Note_on_c, 1, 61, 0
3, 76096, Note_on_c, 1, 63, 72
3, 76107, Note_on_c, 1, 63, 0
3, 76112, Note_on_c, 1, 64, 85
3, 76123, Note_on_c, 1, 64, 0
3, 76128, Note_on_c, 1, 63, 72
3, 76161, Note_on_c, 1, 63, 0
3, 76200, Note_on_c, 1, 59, 85
3, 76216, Note_on_c, 1, 59, 0
3, 76224, Note_on_c, 1, 64, 74
3, 76248, Note_on_c, 1, 64, 0
3, 76260, Note_on_c, 1, 62, 85
3, 76268, Note_on_c, 1, 62, 0
3, 76272, Note_on_c, 1, 61, 70
3, 76296, Note_on_c, 1, 61, 0
3, 76308, Note_on_c, 1, 54, 62
3, 76316, Note_on_c, 1, 54, 0
3, 76320, Note_on_c, 1, 52, 81
3, 76344, Note_on_c, 1, 52, 0
3, 76356, Note_on_c, 1, 50, 85
3, 76364, Note_on_c, 1, 50, 0
3, 76368, Note_on_c, 1, 52, 78
3, 76392, Note_on_c, 1, 52, 0
3, 76404, Note_on_c, 1, 40, 85
3, 76412, Note_on_c, 1, 40, 0
3, 76416, Note_on_c, 1, 45, 85
3, 76432, Note_on_c, 1, 45, 0
3, 76464, Note_on_c, 1, 57, 85
3, 76480, Note_on_c, 1, 57, 0
3, 76512, Note_on_c, 1, 45, 85
3, 76528, Note_on_c, 1, 45, 0
3, 76560, Note_on_c, 1, 57, 85
3, 76576, Note_on_c, 1, 57, 0
3, 76608, Note_on_c, 1, 45, 85
3, 76624, Note_on_c, 1, 45, 0
3, 76656, Note_on_c, 1, 57, 85
3, 76672, Note_on_c, 1, 57, 0
3, 76704, Note_on_c, 1, 45, 85
3, 76720, Note_on_c, 1, 45, 0
3, 76752, Note_on_c, 1, 57, 85
3, 76768, Note_on_c, 1, 57, 0
3, 76800, Note_on_c, 1, 45, 85
3, 76816, Note_on_c, 1, 45, 0
3, 76848, Note_on_c, 1, 57, 85
3, 76864, Note_on_c, 1, 57, 0
3, 76896, Note_on_c, 1, 45, 85
3, 76912, Note_on_c, 1, 45, 0
3, 76944, Note_on_c, 1, 57, 85
3, 76960, Note_on_c, 1, 57, 0
3, 76992, Note_on_c, 1, 45, 85
3, 77008, Note_on_c, 1, 45, 0
3, 77040, Note_on_c, 1, 57, 85
3, 77056, Note_on_c, 1, 57, 0
3, 77088, Note_on_c, 1, 45, 67
3, 77099, Note_on_c, 1, 45, 0
3, 77104, Note_on_c, 1, 49, 67
3, 77115, Note_on_c, 1, 49, 0
3, 77120, Note_on_c, 1, 52, 85
3, 77131, Note_on_c, 1, 52, 0
3, 77136, Note_on_c, 1, 57, 85
3, 77147, Note_on_c, 1, 57, 0
3, 77152, Note_on_c, 1, 61, 46
3, 77163, Note_on_c, 1, 61, 0
3, 77168, Note_on_c, 1, 57, 70
3, 77179, Note_on_c, 1, 57, 0
3, 77184, Note_on_c, 1, 61, 49
3, 77195, Note_on_c, 1, 61, 0
3, 77200, Note_on_c, 1, 57, 85
3, 77211, Note_on_c, 1, 57, 0
3, 77216, Note_on_c, 1, 59, 76
3, 77227, Note_on_c, 1, 59, 0
3, 77232, Note_on_c, 1, 61, 46
3, 77243, Note_on_c, 1, 61, 0
3, 77248, Note_on_c, 1, 64, 71
3, 77259, Note_on_c, 1, 64, 0
3, 77264, Note_on_c, 1, 63, 67
3, 77275, Note_on_c, 1, 63, 0
3, 77280, Note_on_c, 1, 64, 72
3, 77285, Note_on_c, 1, 64, 0
3, 77286, Note_on_c, 1, 66, 64
3, 77291, Note_on_c, 1, 66, 0
3, 77292, Note_on_c, 1, 64, 79
3, 77297, Note_on_c, 1, 64, 0
3, 77298, Note_on_c, 1, 66, 65
3, 77303, Note_on_c, 1, 66, 0
3, 77304, Note_on_c, 1, 64, 81
3, 77309, Note_on_c, 1, 64, 0
3, 77310, Note_on_c, 1, 66, 67
3, 77315, Note_on_c, 1, 66, 0
3, 77316, Note_on_c, 1, 64, 82
3, 77321, Note_on_c, 1, 64, 0
3, 77322, Note_on_c, 1, 66, 66
3, 77327, Note_on_c, 1, 66, 0
3, 77328, Note_on_c, 1, 64, 85
3, 77333, Note_on_c, 1, 64, 0
3, 77334, Note_on_c, 1, 66, 69
3, 77339, Note_on_c, 1, 66, 0
3, 77340, Note_on_c, 1, 64, 85
3, 77345, Note_on_c, 1, 64, 0
3, 77346, Note_on_c, 1, 66, 72
3, 77351, Note_on_c, 1, 66, 0
3, 77352, Note_on_c, 1, 64, 85
3, 77357, Note_on_c, 1, 64, 0
3, 77358, Note_on_c, 1, 66, 67
3, 77363, Note_on_c, 1, 66, 0
3, 77364, Note_on_c, 1, 64, 85
3, 77369, Note_on_c, 1, 64, 0
3, 77370, Note_on_c, 1, 66, 72
3, 77375, Note_on_c, 1, 66, 0
3, 77376, Note_on_c, 1, 64, 85
3, 77381, Note_on_c, 1, 64, 0
3, 77382, Note_on_c, 1, 66, 76
3, 77387, Note_on_c, 1, 66, 0
3, 77388, Note_on_c, 1, 64, 85
3, 77393, Note_on_c, 1, 64, 0
3, 77394, Note_on_c, 1, 66, 76
3, 77399, Note_on_c, 1, 66, 0
3, 77400, Note_on_c, 1, 64, 85
3, 77405, Note_on_c, 1, 64, 0
3, 77406, Note_on_c, 1, 66, 74
3, 77411, Note_on_c, 1, 66, 0
3, 77412, Note_on_c, 1, 64, 85
3, 77417, Note_on_c, 1, 64, 0
3, 77418, Note_on_c, 1, 66, 74
3, 77423, Note_on_c, 1, 66, 0
3, 77424, Note_on_c, 1, 64, 85
3, 77429, Note_on_c, 1, 64, 0
3, 77430, Note_on_c, 1, 66, 74
3, 77435, Note_on_c, 1, 66, 0
3, 77436, Note_on_c, 1, 64, 85
3, 77441, Note_on_c, 1, 64, 0
3, 77442, Note_on_c, 1, 66, 74
3, 77447, Note_on_c, 1, 66, 0
3, 77448, Note_on_c, 1, 64, 85
3, 77453, Note_on_c, 1, 64, 0
3, 77454, Note_on_c, 1, 66, 74
3, 77459, Note_on_c, 1, 66, 0
3, 77460, Note_on_c, 1, 64, 85
3, 77465, Note_on_c, 1, 64, 0
3, 77466, Note_on_c, 1, 66, 74
3, 77471, Note_on_c, 1, 66, 0
3, 77472, Note_on_c, 1, 64, 76
3, 77483, Note_on_c, 1, 64, 0
3, 77488, Note_on_c, 1, 52, 72
3, 77499, Note_on_c, 1, 52, 0
3, 77504, Note_on_c, 1, 54, 50
3, 77515, Note_on_c, 1, 54, 0
3, 77520, Note_on_c, 1, 55, 85
3, 77531, Note_on_c, 1, 55, 0
3, 77536, Note_on_c, 1, 59, 71
3, 77547, Note_on_c, 1, 59, 0
3, 77552, Note_on_c, 1, 57, 85
3, 77563, Note_on_c, 1, 57, 0
3, 77568, Note_on_c, 1, 59, 72
3, 77579, Note_on_c, 1, 59, 0
3, 77584, Note_on_c, 1, 55, 85
3, 77595, Note_on_c, 1, 55, 0
3, 77600, Note_on_c, 1, 57, 85
3, 77611, Note_on_c, 1, 57, 0
3, 77616, Note_on_c, 1, 59, 59
3, 77627, Note_on_c, 1, 59, 0
3, 77632, Note_on_c, 1, 62, 85
3, 77643, Note_on_c, 1, 62, 0
3, 77648, Note_on_c, 1, 61, 56
3, 77659, Note_on_c, 1, 61, 0
3, 77664, Note_on_c, 1, 62, 95
3, 77669, Note_on_c, 1, 62, 0
3, 77670, Note_on_c, 1, 64, 95
3, 77675, Note_on_c, 1, 64, 0
3, 77676, Note_on_c, 1, 62, 95
3, 77681, Note_on_c, 1, 62, 0
3, 77682, Note_on_c, 1, 64, 95
3, 77687, Note_on_c, 1, 64, 0
3, 77688, Note_on_c, 1, 62, 95
3, 77693, Note_on_c, 1, 62, 0
3, 77694, Note_on_c, 1, 64, 95
3, 77699, Note_on_c, 1, 64, 0
3, 77700, Note_on_c, 1, 62, 95
3, 77705, Note_on_c, 1, 62, 0
3, 77706, Note_on_c, 1, 64, 95
3, 77711, Note_on_c, 1, 64, 0
3, 77712, Note_on_c, 1, 62, 95
3, 77717, Note_on_c, 1, 62, 0
3, 77718, Note_on_c, 1, 64, 95
3, 77723, Note_on_c, 1, 64, 0
3, 77724, Note_on_c, 1, 62, 95
3, 77729, Note_on_c, 1, 62, 0
3, 77730, Note_on_c, 1, 64, 95
3, 77735, Note_on_c, 1, 64, 0
3, 77736, Note_on_c, 1, 62, 95
3, 77741, Note_on_c, 1, 62, 0
3, 77742, Note_on_c, 1, 64, 95
3, 77747, Note_on_c, 1, 64, 0
3, 77748, Note_on_c, 1, 62, 95
3, 77753, Note_on_c, 1, 62, 0
3, 77754, Note_on_c, 1, 64, 95
3, 77759, Note_on_c, 1, 64, 0
3, 77760, Note_on_c, 1, 62, 95
3, 77765, Note_on_c, 1, 62, 0
3, 77766, Note_on_c, 1, 64, 95
3, 77771, Note_on_c, 1, 64, 0
3, 77772, Note_on_c, 1, 62, 95
3, 77777, Note_on_c, 1, 62, 0
3, 77778, Note_on_c, 1, 64, 95
3, 77783, Note_on_c, 1, 64, 0
3, 77784, Note_on_c, 1, 62, 95
3, 77789, Note_on_c, 1, 62, 0
3, 77790, Note_on_c, 1, 64, 95
3, 77795, Note_on_c, 1, 64, 0
3, 77796, Note_on_c, 1, 62, 95
3, 77801, Note_on_c, 1, 62, 0
3, 77802, Note_on_c, 1, 64, 95
3, 77807, Note_on_c, 1, 64, 0
3, 77808, Note_on_c, 1, 62, 95
3, 77813, Note_on_c, 1, 62, 0
3, 77814, Note_on_c, 1, 64, 95
3, 77819, Note_on_c, 1, 64, 0
3, 77820, Note_on_c, 1, 62, 95
3, 77825, Note_on_c, 1, 62, 0
3, 77826, Note_on_c, 1, 64, 95
3, 77831, Note_on_c, 1, 64, 0
3, 77832, Note_on_c, 1, 62, 95
3, 77837, Note_on_c, 1, 62, 0
3, 77838, Note_on_c, 1, 64, 95
3, 77843, Note_on_c, 1, 64, 0
3, 77844, Note_on_c, 1, 62, 95
3, 77849, Note_on_c, 1, 62, 0
3, 77850, Note_on_c, 1, 64, 95
3, 77855, Note_on_c, 1, 64, 0
3, 77856, Note_on_c, 1, 62, 85
3, 77872, Note_on_c, 1, 62, 0
3, 77988, Note_on_c, 1, 66, 60
3, 77996, Note_on_c, 1, 66, 0
3, 78000, Note_on_c, 1, 71, 76
3, 78024, Note_on_c, 1, 71, 0
3, 78036, Note_on_c, 1, 66, 59
3, 78044, Note_on_c, 1, 66, 0
3, 78048, Note_on_c, 1, 67, 59
3, 78059, Note_on_c, 1, 67, 0
3, 78064, Note_on_c, 1, 66, 64
3, 78075, Note_on_c, 1, 66, 0
3, 78080, Note_on_c, 1, 64, 85
3, 78091, Note_on_c, 1, 64, 0
3, 78096, Note_on_c, 1, 62, 85
3, 78107, Note_on_c, 1, 62, 0
3, 78112, Note_on_c, 1, 64, 85
3, 78123, Note_on_c, 1, 64, 0
3, 78128, Note_on_c, 1, 66, 56
3, 78139, Note_on_c, 1, 66, 0
3, 78144, Note_on_c, 1, 59, 85
3, 78168, Note_on_c, 1, 59, 0
3, 78180, Note_on_c, 1, 54, 62
3, 78188, Note_on_c, 1, 54, 0
3, 78192, Note_on_c, 1, 59, 76
3, 78203, Note_on_c, 1, 59, 0
3, 78208, Note_on_c, 1, 62, 70
3, 78219, Note_on_c, 1, 62, 0
3, 78224, Note_on_c, 1, 61, 59
3, 78235, Note_on_c, 1, 61, 0
3, 78240, Note_on_c, 1, 62, 59
3, 78251, Note_on_c, 1, 62, 0
3, 78256, Note_on_c, 1, 59, 85
3, 78267, Note_on_c, 1, 59, 0
3, 78272, Note_on_c, 1, 61, 57
3, 78283, Note_on_c, 1, 61, 0
3, 78288, Note_on_c, 1, 62, 62
3, 78299, Note_on_c, 1, 62, 0
3, 78304, Note_on_c, 1, 66, 54
3, 78315, Note_on_c, 1, 66, 0
3, 78320, Note_on_c, 1, 64, 81
3, 78331, Note_on_c, 1, 64, 0
3, 78336, Note_on_c, 1, 66, 46
3, 78360, Note_on_c, 1, 66, 0
3, 78372, Note_on_c, 1, 59, 85
3, 78380, Note_on_c, 1, 59, 0
3, 78384, Note_on_c, 1, 66, 52
3, 78408, Note_on_c, 1, 66, 0
3, 78420, Note_on_c, 1, 61, 72
3, 78428, Note_on_c, 1, 61, 0
3, 78432, Note_on_c, 1, 62, 85
3, 78443, Note_on_c, 1, 62, 0
3, 78448, Note_on_c, 1, 61, 62
3, 78459, Note_on_c, 1, 61, 0
3, 78464, Note_on_c, 1, 59, 85
3, 78475, Note_on_c, 1, 59, 0
3, 78480, Note_on_c, 1, 58, 52
3, 78491, Note_on_c, 1, 58, 0
3, 78496, Note_on_c, 1, 59, 85
3, 78507, Note_on_c, 1, 59, 0
3, 78512, Note_on_c, 1, 61, 67
3, 78523, Note_on_c, 1, 61, 0
3, 78528, Note_on_c, 1, 54, 65
3, 78560, Note_on_c, 1, 54, 0
3, 78576, Note_on_c, 1, 64, 85
3, 78636, Note_on_c, 1, 64, 0
3, 78640, Note_on_c, 1, 62, 62
3, 78653, Note_on_c, 1, 62, 0
3, 78656, Note_on_c, 1, 61, 67
3, 78669, Note_on_c, 1, 61, 0
3, 78672, Note_on_c, 1, 59, 85
3, 78685, Note_on_c, 1, 59, 0
3, 78688, Note_on_c, 1, 61, 57
3, 78701, Note_on_c, 1, 61, 0
3, 78704, Note_on_c, 1, 58, 60
3, 78717, Note_on_c, 1, 58, 0
3, 78720, Note_on_c, 1, 67, 85
3, 78733, Note_on_c, 1, 67, 0
3, 78736, Note_on_c, 1, 66, 66
3, 78749, Note_on_c, 1, 66, 0
3, 78752, Note_on_c, 1, 64, 85
3, 78765, Note_on_c, 1, 64, 0
3, 78768, Note_on_c, 1, 62, 85
3, 78781, Note_on_c, 1, 62, 0
3, 78784, Note_on_c, 1, 64, 72
3, 78797, Note_on_c, 1, 64, 0
3, 78800, Note_on_c, 1, 61, 59
3, 78813, Note_on_c, 1, 61, 0
3, 78816, Note_on_c, 1, 59, 81
3, 78846, Note_on_c, 1, 59, 0
3, 78852, Note_on_c, 1, 54, 47
3, 78862, Note_on_c, 1, 54, 0
3, 78864, Note_on_c, 1, 59, 76
3, 78894, Note_on_c, 1, 59, 0
3, 78900, Note_on_c, 1, 54, 64
3, 78910, Note_on_c, 1, 54, 0
3, 78912, Note_on_c, 1, 55, 85
3, 78925, Note_on_c, 1, 55, 0
3, 78928, Note_on_c, 1, 54, 64
3, 78941, Note_on_c, 1, 54, 0
3, 78944, Note_on_c, 1, 52, 77
3, 78957, Note_on_c, 1, 52, 0
3, 78960, Note_on_c, 1, 50, 85
3, 78973, Note_on_c, 1, 50, 0
3, 78976, Note_on_c, 1, 52, 85
3, 78989, Note_on_c, 1, 52, 0
3, 78992, Note_on_c, 1, 54, 53
3, 79005, Note_on_c, 1, 54, 0
3, 79008, Note_on_c, 1, 47, 85
3, 79038, Note_on_c, 1, 47, 0
3, 79044, Note_on_c, 1, 42, 70
3, 79054, Note_on_c, 1, 42, 0
3, 79056, Note_on_c, 1, 47, 85
3, 79069, Note_on_c, 1, 47, 0
3, 79072, Note_on_c, 1, 50, 77
3, 79085, Note_on_c, 1, 50, 0
3, 79088, Note_on_c, 1, 49, 49
3, 79101, Note_on_c, 1, 49, 0
3, 79104, Note_on_c, 1, 50, 66
3, 79117, Note_on_c, 1, 50, 0
3, 79120, Note_on_c, 1, 47, 85
3, 79133, Note_on_c, 1, 47, 0
3, 79136, Note_on_c, 1, 49, 46
3, 79149, Note_on_c, 1, 49, 0
3, 79152, Note_on_c, 1, 50, 85
3, 79165, Note_on_c, 1, 50, 0
3, 79168, Note_on_c, 1, 54, 53
3, 79181, Note_on_c, 1, 54, 0
3, 79184, Note_on_c, 1, 53, 85
3, 79197, Note_on_c, 1, 53, 0
3, 79200, Note_on_c, 1, 54, 95
3, 79205, Note_on_c, 1, 54, 0
3, 79206, Note_on_c, 1, 55, 95
3, 79211, Note_on_c, 1, 55, 0
3, 79212, Note_on_c, 1, 54, 95
3, 79217, Note_on_c, 1, 54, 0
3, 79218, Note_on_c, 1, 55, 95
3, 79223, Note_on_c, 1, 55, 0
3, 79224, Note_on_c, 1, 54, 95
3, 79229, Note_on_c, 1, 54, 0
3, 79230, Note_on_c, 1, 55, 95
3, 79235, Note_on_c, 1, 55, 0
3, 79236, Note_on_c, 1, 54, 95
3, 79241, Note_on_c, 1, 54, 0
3, 79242, Note_on_c, 1, 55, 95
3, 79247, Note_on_c, 1, 55, 0
3, 79248, Note_on_c, 1, 54, 95
3, 79253, Note_on_c, 1, 54, 0
3, 79254, Note_on_c, 1, 55, 95
3, 79259, Note_on_c, 1, 55, 0
3, 79260, Note_on_c, 1, 54, 95
3, 79265, Note_on_c, 1, 54, 0
3, 79266, Note_on_c, 1, 55, 95
3, 79271, Note_on_c, 1, 55, 0
3, 79272, Note_on_c, 1, 54, 95
3, 79277, Note_on_c, 1, 54, 0
3, 79278, Note_on_c, 1, 55, 95
3, 79283, Note_on_c, 1, 55, 0
3, 79284, Note_on_c, 1, 54, 95
3, 79289, Note_on_c, 1, 54, 0
3, 79290, Note_on_c, 1, 55, 95
3, 79295, Note_on_c, 1, 55, 0
3, 79296, Note_on_c, 1, 54, 52
3, 79309, Note_on_c, 1, 54, 0
3, 79312, Note_on_c, 1, 57, 85
3, 79325, Note_on_c, 1, 57, 0
3, 79328, Note_on_c, 1, 55, 85
3, 79341, Note_on_c, 1, 55, 0
3, 79344, Note_on_c, 1, 54, 57
3, 79357, Note_on_c, 1, 54, 0
3, 79360, Note_on_c, 1, 52, 85
3, 79373, Note_on_c, 1, 52, 0
3, 79376, Note_on_c, 1, 51, 47
3, 79389, Note_on_c, 1, 51, 0
3, 79392, Note_on_c, 1, 52, 85
3, 79395, Note_on_c, 1, 52, 0
3, 79396, Note_on_c, 1, 54, 65
3, 79399, Note_on_c, 1, 54, 0
3, 79400, Note_on_c, 1, 52, 85
3, 79403, Note_on_c, 1, 52, 0
3, 79404, Note_on_c, 1, 54, 67
3, 79407, Note_on_c, 1, 54, 0
3, 79408, Note_on_c, 1, 52, 79
3, 79411, Note_on_c, 1, 52, 0
3, 79412, Note_on_c, 1, 54, 60
3, 79415, Note_on_c, 1, 54, 0
3, 79416, Note_on_c, 1, 52, 77
3, 79419, Note_on_c, 1, 52, 0
3, 79420, Note_on_c, 1, 54, 61
3, 79423, Note_on_c, 1, 54, 0
3, 79424, Note_on_c, 1, 52, 68
3, 79427, Note_on_c, 1, 52, 0
3, 79428, Note_on_c, 1, 54, 65
3, 79431, Note_on_c, 1, 54, 0
3, 79432, Note_on_c, 1, 52, 85
3, 79435, Note_on_c, 1, 52, 0
3, 79436, Note_on_c, 1, 54, 66
3, 79439, Note_on_c, 1, 54, 0
3, 79440, Note_on_c, 1, 52, 81
3, 79443, Note_on_c, 1, 52, 0
3, 79444, Note_on_c, 1, 54, 69
3, 79447, Note_on_c, 1, 54, 0
3, 79448, Note_on_c, 1, 52, 59
3, 79451, Note_on_c, 1, 52, 0
3, 79452, Note_on_c, 1, 54, 69
3, 79455, Note_on_c, 1, 54, 0
3, 79456, Note_on_c, 1, 52, 85
3, 79459, Note_on_c, 1, 52, 0
3, 79460, Note_on_c, 1, 54, 70
3, 79463, Note_on_c, 1, 54, 0
3, 79464, Note_on_c, 1, 52, 74
3, 79467, Note_on_c, 1, 52, 0
3, 79468, Note_on_c, 1, 54, 78
3, 79471, Note_on_c, 1, 54, 0
3, 79472, Note_on_c, 1, 52, 85
3, 79475, Note_on_c, 1, 52, 0
3, 79476, Note_on_c, 1, 54, 74
3, 79479, Note_on_c, 1, 54, 0
3, 79480, Note_on_c, 1, 52, 85
3, 79483, Note_on_c, 1, 52, 0
3, 79484, Note_on_c, 1, 54, 91
3, 79487, Note_on_c, 1, 54, 0
3, 79488, Note_on_c, 1, 52, 85
3, 79501, Note_on_c, 1, 52, 0
3, 79504, Note_on_c, 1, 55, 85
3, 79517, Note_on_c, 1, 55, 0
3, 79520, Note_on_c, 1, 54, 71
3, 79533, Note_on_c, 1, 54, 0
3, 79536, Note_on_c, 1, 52, 85
3, 79549, Note_on_c, 1, 52, 0
3, 79552, Note_on_c, 1, 50, 85
3, 79565, Note_on_c, 1, 50, 0
3, 79568, Note_on_c, 1, 49, 66
3, 79581, Note_on_c, 1, 49, 0
3, 79584, Note_on_c, 1, 50, 74
3, 79587, Note_on_c, 1, 50, 0
3, 79588, Note_on_c, 1, 52, 85
3, 79591, Note_on_c, 1, 52, 0
3, 79592, Note_on_c, 1, 50, 85
3, 79595, Note_on_c, 1, 50, 0
3, 79596, Note_on_c, 1, 52, 85
3, 79599, Note_on_c, 1, 52, 0
3, 79600, Note_on_c, 1, 50, 85
3, 79603, Note_on_c, 1, 50, 0
3, 79604, Note_on_c, 1, 52, 85
3, 79607, Note_on_c, 1, 52, 0
3, 79608, Note_on_c, 1, 50, 85
3, 79611, Note_on_c, 1, 50, 0
3, 79612, Note_on_c, 1, 52, 85
3, 79615, Note_on_c, 1, 52, 0
3, 79616, Note_on_c, 1, 50, 85
3, 79619, Note_on_c, 1, 50, 0
3, 79620, Note_on_c, 1, 52, 85
3, 79623, Note_on_c, 1, 52, 0
3, 79624, Note_on_c, 1, 50, 85
3, 79627, Note_on_c, 1, 50, 0
3, 79628, Note_on_c, 1, 52, 85
3, 79631, Note_on_c, 1, 52, 0
3, 79632, Note_on_c, 1, 50, 85
3, 79635, Note_on_c, 1, 50, 0
3, 79636, Note_on_c, 1, 52, 85
3, 79639, Note_on_c, 1, 52, 0
3, 79640, Note_on_c, 1, 50, 85
3, 79643, Note_on_c, 1, 50, 0
3, 79644, Note_on_c, 1, 52, 85
3, 79647, Note_on_c, 1, 52, 0
3, 79648, Note_on_c, 1, 50, 85
3, 79651, Note_on_c, 1, 50, 0
3, 79652, Note_on_c, 1, 52, 85
3, 79655, Note_on_c, 1, 52, 0
3, 79656, Note_on_c, 1, 50, 85
3, 79659, Note_on_c, 1, 50, 0
3, 79660, Note_on_c, 1, 52, 85
3, 79663, Note_on_c, 1, 52, 0
3, 79664, Note_on_c, 1, 50, 85
3, 79667, Note_on_c, 1, 50, 0
3, 79668, Note_on_c, 1, 52, 85
3, 79671, Note_on_c, 1, 52, 0
3, 79672, Note_on_c, 1, 50, 85
3, 79675, Note_on_c, 1, 50, 0
3, 79676, Note_on_c, 1, 52, 85
3, 79679, Note_on_c, 1, 52, 0
3, 79680, Note_on_c, 1, 50, 74
3, 79683, Note_on_c, 1, 50, 0
3, 79684, Note_on_c, 1, 52, 85
3, 79687, Note_on_c, 1, 52, 0
3, 79688, Note_on_c, 1, 50, 85
3, 79691, Note_on_c, 1, 50, 0
3, 79692, Note_on_c, 1, 52, 85
3, 79695, Note_on_c, 1, 52, 0
3, 79696, Note_on_c, 1, 50, 85
3, 79699, Note_on_c, 1, 50, 0
3, 79700, Note_on_c, 1, 52, 85
3, 79703, Note_on_c, 1, 52, 0
3, 79704, Note_on_c, 1, 50, 85
3, 79707, Note_on_c, 1, 50, 0
3, 79708, Note_on_c, 1, 52, 85
3, 79711, Note_on_c, 1, 52, 0
3, 79712, Note_on_c, 1, 50, 85
3, 79715, Note_on_c, 1, 50, 0
3, 79716, Note_on_c, 1, 52, 85
3, 79719, Note_on_c, 1, 52, 0
3, 79720, Note_on_c, 1, 50, 85
3, 79723, Note_on_c, 1, 50, 0
3, 79724, Note_on_c, 1, 52, 85
3, 79727, Note_on_c, 1, 52, 0
3, 79728, Note_on_c, 1, 50, 85
3, 79731, Note_on_c, 1, 50, 0
3, 79732, Note_on_c, 1, 52, 85
3, 79735, Note_on_c, 1, 52, 0
3, 79736, Note_on_c, 1, 50, 85
3, 79739, Note_on_c, 1, 50, 0
3, 79740, Note_on_c, 1, 52, 85
3, 79743, Note_on_c, 1, 52, 0
3, 79744, Note_on_c, 1, 50, 85
3, 79747, Note_on_c, 1, 50, 0
3, 79748, Note_on_c, 1, 52, 85
3, 79751, Note_on_c, 1, 52, 0
3, 79752, Note_on_c, 1, 50, 85
3, 79755, Note_on_c, 1, 50, 0
3, 79756, Note_on_c, 1, 52, 85
3, 79759, Note_on_c, 1, 52, 0
3, 79760, Note_on_c, 1, 50, 85
3, 79763, Note_on_c, 1, 50, 0
3, 79764, Note_on_c, 1, 52, 85
3, 79767, Note_on_c, 1, 52, 0
3, 79768, Note_on_c, 1, 50, 85
3, 79771, Note_on_c, 1, 50, 0
3, 79772, Note_on_c, 1, 52, 85
3, 79775, Note_on_c, 1, 52, 0
3, 79776, Note_on_c, 1, 50, 77
3, 79789, Note_on_c, 1, 50, 0
3, 79792, Note_on_c, 1, 42, 62
3, 79805, Note_on_c, 1, 42, 0
3, 79808, Note_on_c, 1, 45, 85
3, 79821, Note_on_c, 1, 45, 0
3, 79824, Note_on_c, 1, 50, 85
3, 79837, Note_on_c, 1, 50, 0
3, 79840, Note_on_c, 1, 54, 43
3, 79853, Note_on_c, 1, 54, 0
3, 79856, Note_on_c, 1, 52, 85
3, 79869, Note_on_c, 1, 52, 0
3, 79872, Note_on_c, 1, 54, 66
3, 79885, Note_on_c, 1, 54, 0
3, 79888, Note_on_c, 1, 50, 85
3, 79901, Note_on_c, 1, 50, 0
3, 79904, Note_on_c, 1, 52, 85
3, 79917, Note_on_c, 1, 52, 0
3, 79920, Note_on_c, 1, 54, 62
3, 79933, Note_on_c, 1, 54, 0
3, 79936, Note_on_c, 1, 57, 85
3, 79949, Note_on_c, 1, 57, 0
3, 79952, Note_on_c, 1, 56, 70
3, 79965, Note_on_c, 1, 56, 0
3, 79968, Note_on_c, 1, 57, 85
3, 79971, Note_on_c, 1, 57, 0
3, 79972, Note_on_c, 1, 59, 85
3, 79975, Note_on_c, 1, 59, 0
3, 79976, Note_on_c, 1, 57, 85
3, 79979, Note_on_c, 1, 57, 0
3, 79980, Note_on_c, 1, 59, 85
3, 79983, Note_on_c, 1, 59, 0
3, 79984, Note_on_c, 1, 57, 85
3, 79987, Note_on_c, 1, 57, 0
3, 79988, Note_on_c, 1, 59, 85
3, 79991, Note_on_c, 1, 59, 0
3, 79992, Note_on_c, 1, 57, 85
3, 79995, Note_on_c, 1, 57, 0
3, 79996, Note_on_c, 1, 59, 85
3, 79999, Note_on_c, 1, 59, 0
3, 80000, Note_on_c, 1, 57, 85
3, 80003, Note_on_c, 1, 57, 0
3, 80004, Note_on_c, 1, 59, 85
3, 80007, Note_on_c, 1, 59, 0
3, 80008, Note_on_c, 1, 57, 85
3, 80011, Note_on_c, 1, 57, 0
3, 80012, Note_on_c, 1, 59, 85
3, 80015, Note_on_c, 1, 59, 0
3, 80016, Note_on_c, 1, 57, 85
3, 80019, Note_on_c, 1, 57, 0
3, 80020, Note_on_c, 1, 59, 85
3, 80023, Note_on_c, 1, 59, 0
3, 80024, Note_on_c, 1, 57, 85
3, 80027, Note_on_c, 1, 57, 0
3, 80028, Note_on_c, 1, 59, 85
3, 80031, Note_on_c, 1, 59, 0
3, 80032, Note_on_c, 1, 57, 86
3, 80035, Note_on_c, 1, 57, 0
3, 80036, Note_on_c, 1, 59, 85
3, 80039, Note_on_c, 1, 59, 0
3, 80040, Note_on_c, 1, 57, 85
3, 80043, Note_on_c, 1, 57, 0
3, 80044, Note_on_c, 1, 59, 85
3, 80047, Note_on_c, 1, 59, 0
3, 80048, Note_on_c, 1, 57, 85
3, 80051, Note_on_c, 1, 57, 0
3, 80052, Note_on_c, 1, 59, 85
3, 80055, Note_on_c, 1, 59, 0
3, 80056, Note_on_c, 1, 57, 77
3, 80059, Note_on_c, 1, 57, 0
3, 80060, Note_on_c, 1, 59, 85
3, 80063, Note_on_c, 1, 59, 0
3, 80064, Note_on_c, 1, 57, 85
3, 80067, Note_on_c, 1, 57, 0
3, 80068, Note_on_c, 1, 59, 85
3, 80071, Note_on_c, 1, 59, 0
3, 80072, Note_on_c, 1, 57, 85
3, 80075, Note_on_c, 1, 57, 0
3, 80076, Note_on_c, 1, 59, 85
3, 80079, Note_on_c, 1, 59, 0
3, 80080, Note_on_c, 1, 57, 85
3, 80083, Note_on_c, 1, 57, 0
3, 80084, Note_on_c, 1, 59, 85
3, 80087, Note_on_c, 1, 59, 0
3, 80088, Note_on_c, 1, 57, 85
3, 80091, Note_on_c, 1, 57, 0
3, 80092, Note_on_c, 1, 59, 85
3, 80095, Note_on_c, 1, 59, 0
3, 80096, Note_on_c, 1, 57, 85
3, 80099, Note_on_c, 1, 57, 0
3, 80100, Note_on_c, 1, 59, 85
3, 80103, Note_on_c, 1, 59, 0
3, 80104, Note_on_c, 1, 57, 85
3, 80107, Note_on_c, 1, 57, 0
3, 80108, Note_on_c, 1, 59, 85
3, 80111, Note_on_c, 1, 59, 0
3, 80112, Note_on_c, 1, 57, 85
3, 80115, Note_on_c, 1, 57, 0
3, 80116, Note_on_c, 1, 59, 85
3, 80119, Note_on_c, 1, 59, 0
3, 80120, Note_on_c, 1, 57, 85
3, 80123, Note_on_c, 1, 57, 0
3, 80124, Note_on_c, 1, 59, 85
3, 80127, Note_on_c, 1, 59, 0
3, 80128, Note_on_c, 1, 57, 86
3, 80131, Note_on_c, 1, 57, 0
3, 80132, Note_on_c, 1, 59, 85
3, 80135, Note_on_c, 1, 59, 0
3, 80136, Note_on_c, 1, 57, 85
3, 80139, Note_on_c, 1, 57, 0
3, 80140, Note_on_c, 1, 59, 85
3, 80143, Note_on_c, 1, 59, 0
3, 80144, Note_on_c, 1, 57, 85
3, 80147, Note_on_c, 1, 57, 0
3, 80148, Note_on_c, 1, 59, 85
3, 80151, Note_on_c, 1, 59, 0
3, 80152, Note_on_c, 1, 57, 77
3, 80155, Note_on_c, 1, 57, 0
3, 80156, Note_on_c, 1, 59, 85
3, 80159, Note_on_c, 1, 59, 0
3, 80160, Note_on_c, 1, 57, 85
3, 80173, Note_on_c, 1, 57, 0
3, 80176, Note_on_c, 1, 49, 49
3, 80189, Note_on_c, 1, 49, 0
3, 80192, Note_on_c, 1, 52, 85
3, 80205, Note_on_c, 1, 52, 0
3, 80208, Note_on_c, 1, 57, 81
3, 80221, Note_on_c, 1, 57, 0
3, 80224, Note_on_c, 1, 61, 50
3, 80237, Note_on_c, 1, 61, 0
3, 80240, Note_on_c, 1, 59, 85
3, 80253, Note_on_c, 1, 59, 0
3, 80256, Note_on_c, 1, 61, 57
3, 80269, Note_on_c, 1, 61, 0
3, 80272, Note_on_c, 1, 57, 85
3, 80285, Note_on_c, 1, 57, 0
3, 80288, Note_on_c, 1, 59, 85
3, 80301, Note_on_c, 1, 59, 0
3, 80304, Note_on_c, 1, 61, 61
3, 80317, Note_on_c, 1, 61, 0
3, 80320, Note_on_c, 1, 64, 77
3, 80333, Note_on_c, 1, 64, 0
3, 80336, Note_on_c, 1, 62, 85
3, 80349, Note_on_c, 1, 62, 0
3, 80352, Note_on_c, 1, 64, 74
3, 80355, Note_on_c, 1, 64, 0
3, 80356, Note_on_c, 1, 66, 44
3, 80359, Note_on_c, 1, 66, 0
3, 80360, Note_on_c, 1, 64, 85
3, 80363, Note_on_c, 1, 64, 0
3, 80364, Note_on_c, 1, 66, 55
3, 80367, Note_on_c, 1, 66, 0
3, 80368, Note_on_c, 1, 64, 85
3, 80371, Note_on_c, 1, 64, 0
3, 80372, Note_on_c, 1, 66, 59
3, 80375, Note_on_c, 1, 66, 0
3, 80376, Note_on_c, 1, 64, 49
3, 80379, Note_on_c, 1, 64, 0
3, 80380, Note_on_c, 1, 66, 68
3, 80383, Note_on_c, 1, 66, 0
3, 80384, Note_on_c, 1, 64, 72
3, 80387, Note_on_c, 1, 64, 0
3, 80388, Note_on_c, 1, 66, 68
3, 80391, Note_on_c, 1, 66, 0
3, 80392, Note_on_c, 1, 64, 85
3, 80395, Note_on_c, 1, 64, 0
3, 80396, Note_on_c, 1, 66, 67
3, 80399, Note_on_c, 1, 66, 0
3, 80400, Note_on_c, 1, 64, 85
3, 80403, Note_on_c, 1, 64, 0
3, 80404, Note_on_c, 1, 66, 64
3, 80407, Note_on_c, 1, 66, 0
3, 80408, Note_on_c, 1, 64, 85
3, 80411, Note_on_c, 1, 64, 0
3, 80412, Note_on_c, 1, 66, 72
3, 80415, Note_on_c, 1, 66, 0
3, 80416, Note_on_c, 1, 64, 85
3, 80419, Note_on_c, 1, 64, 0
3, 80420, Note_on_c, 1, 66, 62
3, 80423, Note_on_c, 1, 66, 0
3, 80424, Note_on_c, 1, 64, 85
3, 80427, Note_on_c, 1, 64, 0
3, 80428, Note_on_c, 1, 66, 68
3, 80431, Note_on_c, 1, 66, 0
3, 80432, Note_on_c, 1, 64, 85
3, 80435, Note_on_c, 1, 64, 0
3, 80436, Note_on_c, 1, 66, 71
3, 80439, Note_on_c, 1, 66, 0
3, 80440, Note_on_c, 1, 64, 85
3, 80443, Note_on_c, 1, 64, 0
3, 80444, Note_on_c, 1, 66, 53
3, 80447, Note_on_c, 1, 66, 0
3, 80448, Note_on_c, 1, 64, 66
3, 80461, Note_on_c, 1, 64, 0
3, 80464, Note_on_c, 1, 61, 68
3, 80477, Note_on_c, 1, 61, 0
3, 80480, Note_on_c, 1, 62, 85
3, 80493, Note_on_c, 1, 62, 0
3, 80496, Note_on_c, 1, 64, 76
3, 80509, Note_on_c, 1, 64, 0
3, 80512, Note_on_c, 1, 61, 72
3, 80525, Note_on_c, 1, 61, 0
3, 80528, Note_on_c, 1, 62, 85
3, 80541, Note_on_c, 1, 62, 0
3, 80544, Note_on_c, 1, 64, 74
3, 80547, Note_on_c, 1, 64, 0
3, 80548, Note_on_c, 1, 66, 44
3, 80551, Note_on_c, 1, 66, 0
3, 80552, Note_on_c, 1, 64, 85
3, 80555, Note_on_c, 1, 64, 0
3, 80556, Note_on_c, 1, 66, 55
3, 80559, Note_on_c, 1, 66, 0
3, 80560, Note_on_c, 1, 64, 85
3, 80563, Note_on_c, 1, 64, 0
3, 80564, Note_on_c, 1, 66, 59
3, 80567, Note_on_c, 1, 66, 0
3, 80568, Note_on_c, 1, 64, 49
3, 80571, Note_on_c, 1, 64, 0
3, 80572, Note_on_c, 1, 66, 68
3, 80575, Note_on_c, 1, 66, 0
3, 80576, Note_on_c, 1, 64, 72
3, 80579, Note_on_c, 1, 64, 0
3, 80580, Note_on_c, 1, 66, 68
3, 80583, Note_on_c, 1, 66, 0
3, 80584, Note_on_c, 1, 64, 85
3, 80587, Note_on_c, 1, 64, 0
3, 80588, Note_on_c, 1, 66, 67
3, 80591, Note_on_c, 1, 66, 0
3, 80592, Note_on_c, 1, 64, 85
3, 80595, Note_on_c, 1, 64, 0
3, 80596, Note_on_c, 1, 66, 64
3, 80599, Note_on_c, 1, 66, 0
3, 80600, Note_on_c, 1, 64, 85
3, 80603, Note_on_c, 1, 64, 0
3, 80604, Note_on_c, 1, 66, 72
3, 80607, Note_on_c, 1, 66, 0
3, 80608, Note_on_c, 1, 64, 85
3, 80611, Note_on_c, 1, 64, 0
3, 80612, Note_on_c, 1, 66, 62
3, 80615, Note_on_c, 1, 66, 0
3, 80616, Note_on_c, 1, 64, 85
3, 80619, Note_on_c, 1, 64, 0
3, 80620, Note_on_c, 1, 66, 68
3, 80623, Note_on_c, 1, 66, 0
3, 80624, Note_on_c, 1, 64, 85
3, 80627, Note_on_c, 1, 64, 0
3, 80628, Note_on_c, 1, 66, 71
3, 80631, Note_on_c, 1, 66, 0
3, 80632, Note_on_c, 1, 64, 85
3, 80635, Note_on_c, 1, 64, 0
3, 80636, Note_on_c, 1, 66, 53
3, 80639, Note_on_c, 1, 66, 0
3, 80640, Note_on_c, 1, 64, 54
3, 80653, Note_on_c, 1, 64, 0
3, 80656, Note_on_c, 1, 67, 85
3, 80669, Note_on_c, 1, 67, 0
3, 80672, Note_on_c, 1, 66, 65
3, 80685, Note_on_c, 1, 66, 0
3, 80688, Note_on_c, 1, 64, 85
3, 80701, Note_on_c, 1, 64, 0
3, 80704, Note_on_c, 1, 62, 85
3, 80717, Note_on_c, 1, 62, 0
3, 80720, Note_on_c, 1, 61, 66
3, 80733, Note_on_c, 1, 61, 0
3, 80736, Note_on_c, 1, 62, 77
3, 80749, Note_on_c, 1, 62, 0
3, 80752, Note_on_c, 1, 66, 53
3, 80765, Note_on_c, 1, 66, 0
3, 80768, Note_on_c, 1, 64, 85
3, 80781, Note_on_c, 1, 64, 0
3, 80784, Note_on_c, 1, 62, 85
3, 80797, Note_on_c, 1, 62, 0
3, 80800, Note_on_c, 1, 61, 61
3, 80813, Note_on_c, 1, 61, 0
3, 80816, Note_on_c, 1, 59, 85
3, 80829, Note_on_c, 1, 59, 0
3, 80832, Note_on_c, 1, 61, 62
3, 80845, Note_on_c, 1, 61, 0
3, 80848, Note_on_c, 1, 64, 85
3, 80861, Note_on_c, 1, 64, 0
3, 80864, Note_on_c, 1, 62, 85
3, 80877, Note_on_c, 1, 62, 0
3, 80880, Note_on_c, 1, 61, 54
3, 80893, Note_on_c, 1, 61, 0
3, 80896, Note_on_c, 1, 59, 62
3, 80909, Note_on_c, 1, 59, 0
3, 80912, Note_on_c, 1, 57, 79
3, 80925, Note_on_c, 1, 57, 0
3, 80928, Note_on_c, 1, 59, 66
3, 80941, Note_on_c, 1, 59, 0
3, 80944, Note_on_c, 1, 62, 85
3, 80957, Note_on_c, 1, 62, 0
3, 80960, Note_on_c, 1, 61, 59
3, 80973, Note_on_c, 1, 61, 0
3, 80976, Note_on_c, 1, 59, 62
3, 80989, Note_on_c, 1, 59, 0
3, 80992, Note_on_c, 1, 57, 85
3, 81005, Note_on_c, 1, 57, 0
3, 81008, Note_on_c, 1, 56, 65
3, 81021, Note_on_c, 1, 56, 0
3, 81024, Note_on_c, 1, 57, 85
3, 81037, Note_on_c, 1, 57, 0
3, 81040, Note_on_c, 1, 61, 64
3, 81053, Note_on_c, 1, 61, 0
3, 81056, Note_on_c, 1, 59, 76
3, 81069, Note_on_c, 1, 59, 0
3, 81072, Note_on_c, 1, 57, 85
3, 81085, Note_on_c, 1, 57, 0
3, 81088, Note_on_c, 1, 59, 85
3, 81101, Note_on_c, 1, 59, 0
3, 81104, Note_on_c, 1, 57, 85
3, 81117, Note_on_c, 1, 57, 0
3, 81120, Note_on_c, 1, 56, 61
3, 81133, Note_on_c, 1, 56, 0
3, 81136, Note_on_c, 1, 57, 85
3, 81149, Note_on_c, 1, 57, 0
3, 81152, Note_on_c, 1, 56, 59
3, 81165, Note_on_c, 1, 56, 0
3, 81168, Note_on_c, 1, 54, 64
3, 81181, Note_on_c, 1, 54, 0
3, 81184, Note_on_c, 1, 53, 85
3, 81197, Note_on_c, 1, 53, 0
3, 81200, Note_on_c, 1, 54, 53
3, 81213, Note_on_c, 1, 54, 0
3, 81216, Note_on_c, 1, 49, 59
3, 81229, Note_on_c, 1, 49, 0
3, 81232, Note_on_c, 1, 53, 74
3, 81245, Note_on_c, 1, 53, 0
3, 81248, Note_on_c, 1, 51, 62
3, 81261, Note_on_c, 1, 51, 0
3, 81264, Note_on_c, 1, 49, 55
3, 81277, Note_on_c, 1, 49, 0
3, 81280, Note_on_c, 1, 51, 74
3, 81293, Note_on_c, 1, 51, 0
3, 81296, Note_on_c, 1, 53, 67
3, 81309, Note_on_c, 1, 53, 0
3, 81312, Note_on_c, 1, 54, 62
3, 81325, Note_on_c, 1, 54, 0
3, 81328, Note_on_c, 1, 57, 85
3, 81341, Note_on_c, 1, 57, 0
3, 81344, Note_on_c, 1, 56, 68
3, 81357, Note_on_c, 1, 56, 0
3, 81360, Note_on_c, 1, 54, 66
3, 81373, Note_on_c, 1, 54, 0
3, 81376, Note_on_c, 1, 53, 85
3, 81389, Note_on_c, 1, 53, 0
3, 81392, Note_on_c, 1, 54, 67
3, 81405, Note_on_c, 1, 54, 0
3, 81408, Note_on_c, 1, 56, 72
3, 81421, Note_on_c, 1, 56, 0
3, 81424, Note_on_c, 1, 59, 85
3, 81437, Note_on_c, 1, 59, 0
3, 81440, Note_on_c, 1, 57, 85
3, 81453, Note_on_c, 1, 57, 0
3, 81456, Note_on_c, 1, 56, 64
3, 81469, Note_on_c, 1, 56, 0
3, 81472, Note_on_c, 1, 54, 66
3, 81485, Note_on_c, 1, 54, 0
3, 81488, Note_on_c, 1, 56, 67
3, 81501, Note_on_c, 1, 56, 0
3, 81504, Note_on_c, 1, 57, 85
3, 81517, Note_on_c, 1, 57, 0
3, 81520, Note_on_c, 1, 61, 56
3, 81533, Note_on_c, 1, 61, 0
3, 81536, Note_on_c, 1, 59, 85
3, 81549, Note_on_c, 1, 59, 0
3, 81552, Note_on_c, 1, 58, 66
3, 81565, Note_on_c, 1, 58, 0
3, 81568, Note_on_c, 1, 56, 64
3, 81581, Note_on_c, 1, 56, 0
3, 81584, Note_on_c, 1, 54, 64
3, 81597, Note_on_c, 1, 54, 0
3, 81600, Note_on_c, 1, 59, 85
3, 81613, Note_on_c, 1, 59, 0
3, 81616, Note_on_c, 1, 62, 85
3, 81629, Note_on_c, 1, 62, 0
3, 81632, Note_on_c, 1, 61, 49
3, 81645, Note_on_c, 1, 61, 0
3, 81648, Note_on_c, 1, 59, 76
3, 81661, Note_on_c, 1, 59, 0
3, 81664, Note_on_c, 1, 57, 85
3, 81677, Note_on_c, 1, 57, 0
3, 81680, Note_on_c, 1, 56, 62
3, 81693, Note_on_c, 1, 56, 0
3, 81696, Note_on_c, 1, 61, 62
3, 81715, Note_on_c, 1, 61, 0
3, 81744, Note_on_c, 1, 49, 52
3, 81763, Note_on_c, 1, 49, 0
3, 81792, Note_on_c, 1, 54, 66
3, 81811, Note_on_c, 1, 54, 0
3, 81840, Note_on_c, 1, 54, 65
3, 81859, Note_on_c, 1, 54, 0
3, 81888, Note_on_c, 1, 54, 59
3, 81907, Note_on_c, 1, 54, 0
3, 81936, Note_on_c, 1, 42, 65
3, 81955, Note_on_c, 1, 42, 0
3, 81984, Note_on_c, 1, 43, 85
3, 82003, Note_on_c, 1, 43, 0
3, 82080, Note_on_c, 1, 45, 85
3, 82099, Note_on_c, 1, 45, 0
3, 82128, Note_on_c, 1, 47, 85
3, 82147, Note_on_c, 1, 47, 0
3, 82176, Note_on_c, 1, 40, 85
3, 82189, Note_on_c, 1, 40, 0
3, 82272, Note_on_c, 1, 45, 85
3, 82291, Note_on_c, 1, 45, 0
3, 82320, Note_on_c, 1, 50, 72
3, 82339, Note_on_c, 1, 50, 0
3, 82368, Note_on_c, 1, 47, 78
3, 82387, Note_on_c, 1, 47, 0
3, 82416, Note_on_c, 1, 43, 77
3, 82435, Note_on_c, 1, 43, 0
3, 82464, Note_on_c, 1, 40, 69
3, 82464, Note_on_c, 1, 40, 78
3, 82477, Note_on_c, 1, 40, 0
3, 82480, Note_on_c, 1, 42, 70
3, 82493, Note_on_c, 1, 42, 0
3, 82496, Note_on_c, 1, 43, 85
3, 82509, Note_on_c, 1, 43, 0
3, 82512, Note_on_c, 1, 45, 85
3, 82525, Note_on_c, 1, 45, 0
3, 82527, Note_on_c, 1, 40, 0
3, 82528, Note_on_c, 1, 47, 85
3, 82541, Note_on_c, 1, 47, 0
3, 82544, Note_on_c, 1, 48, 85
3, 82557, Note_on_c, 1, 48, 0
3, 82560, Note_on_c, 1, 38, 85
3, 82579, Note_on_c, 1, 38, 0
3, 82608, Note_on_c, 1, 43, 85
3, 82627, Note_on_c, 1, 43, 0
3, 82656, Note_on_c, 1, 50, 85
3, 82675, Note_on_c, 1, 50, 0
3, 82704, Note_on_c, 1, 48, 85
3, 82723, Note_on_c, 1, 48, 0
3, 82752, Note_on_c, 1, 47, 85
3, 82848, Note_on_c, 1, 47, 0
3, 82848, Note_on_c, 1, 47, 85
3, 82877, Note_on_c, 1, 47, 0
3, 82884, Note_on_c, 1, 54, 66
3, 82894, Note_on_c, 1, 54, 0
3, 82896, Note_on_c, 1, 59, 67
3, 82925, Note_on_c, 1, 59, 0
3, 82932, Note_on_c, 1, 54, 59
3, 82942, Note_on_c, 1, 54, 0
3, 82944, Note_on_c, 1, 55, 85
3, 82973, Note_on_c, 1, 55, 0
3, 82980, Note_on_c, 1, 54, 62
3, 82992, Note_on_c, 1, 54, 0
3, 82992, Note_on_c, 1, 55, 85
3, 83021, Note_on_c, 1, 55, 0
3, 83028, Note_on_c, 1, 52, 85
3, 83038, Note_on_c, 1, 52, 0
3, 83040, Note_on_c, 1, 42, 71
3, 83040, Note_on_c, 1, 54, 67
3, 83280, Note_on_c, 1, 59, 81
3, 83293, Note_on_c, 1, 59, 0
3, 83296, Note_on_c, 1, 58, 52
3, 83309, Note_on_c, 1, 58, 0
3, 83312, Note_on_c, 1, 59, 85
3, 83318, Note_on_c, 1, 54, 0
3, 83319, Note_on_c, 1, 42, 0
3, 83325, Note_on_c, 1, 59, 0
3, 83328, Note_on_c, 1, 42, 55
3, 83328, Note_on_c, 1, 54, 56
3, 83482, Note_on_c, 1, 54, 0
3, 83482, Note_on_c, 1, 42, 0
3, 83520, Note_on_c, 1, 42, 59
3, 83520, Note_on_c, 1, 54, 52
3, 83549, Note_on_c, 1, 54, 0
3, 83549, Note_on_c, 1, 42, 0
3, 83556, Note_on_c, 1, 47, 85
3, 83566, Note_on_c, 1, 47, 0
3, 83568, Note_on_c, 1, 54, 54
3, 83597, Note_on_c, 1, 54, 0
3, 83604, Note_on_c, 1, 49, 66
3, 83614, Note_on_c, 1, 49, 0
3, 83616, Note_on_c, 1, 50, 72
3, 83629, Note_on_c, 1, 50, 0
3, 83632, Note_on_c, 1, 49, 59
3, 83645, Note_on_c, 1, 49, 0
3, 83648, Note_on_c, 1, 47, 85
3, 83661, Note_on_c, 1, 47, 0
3, 83664, Note_on_c, 1, 46, 61
3, 83677, Note_on_c, 1, 46, 0
3, 83680, Note_on_c, 1, 47, 85
3, 83693, Note_on_c, 1, 47, 0
3, 83696, Note_on_c, 1, 49, 59
3, 83709, Note_on_c, 1, 49, 0
3, 83712, Note_on_c, 1, 42, 46
3, 83770, Note_on_c, 1, 42, 0
3, 83776, Note_on_c, 1, 54, 62
3, 83789, Note_on_c, 1, 54, 0
3, 83792, Note_on_c, 1, 52, 85
3, 83805, Note_on_c, 1, 52, 0
3, 83808, Note_on_c, 1, 50, 85
3, 83821, Note_on_c, 1, 50, 0
3, 83824, Note_on_c, 1, 47, 54
3, 83837, Note_on_c, 1, 47, 0
3, 83840, Note_on_c, 1, 49, 52
3, 83853, Note_on_c, 1, 49, 0
3, 83856, Note_on_c, 1, 50, 85
3, 83869, Note_on_c, 1, 50, 0
3, 83872, Note_on_c, 1, 52, 85
3, 83885, Note_on_c, 1, 52, 0
3, 83888, Note_on_c, 1, 54, 62
3, 83901, Note_on_c, 1, 54, 0
3, 83904, Note_on_c, 1, 52, 85
3, 83917, Note_on_c, 1, 52, 0
3, 83920, Note_on_c, 1, 49, 52
3, 83933, Note_on_c, 1, 49, 0
3, 83936, Note_on_c, 1, 50, 85
3, 83949, Note_on_c, 1, 50, 0
3, 83952, Note_on_c, 1, 52, 85
3, 83965, Note_on_c, 1, 52, 0
3, 83968, Note_on_c, 1, 54, 59
3, 83981, Note_on_c, 1, 54, 0
3, 83984, Note_on_c, 1, 55, 85
3, 83997, Note_on_c, 1, 55, 0
3, 84000, Note_on_c, 1, 54, 69
3, 84013, Note_on_c, 1, 54, 0
3, 84016, Note_on_c, 1, 50, 85
3, 84029, Note_on_c, 1, 50, 0
3, 84032, Note_on_c, 1, 52, 85
3, 84045, Note_on_c, 1, 52, 0
3, 84048, Note_on_c, 1, 54, 65
3, 84061, Note_on_c, 1, 54, 0
3, 84064, Note_on_c, 1, 55, 85
3, 84077, Note_on_c, 1, 55, 0
3, 84080, Note_on_c, 1, 57, 85
3, 84093, Note_on_c, 1, 57, 0
3, 84096, Note_on_c, 1, 55, 85
3, 84109, Note_on_c, 1, 55, 0
3, 84112, Note_on_c, 1, 52, 85
3, 84125, Note_on_c, 1, 52, 0
3, 84128, Note_on_c, 1, 54, 49
3, 84141, Note_on_c, 1, 54, 0
3, 84144, Note_on_c, 1, 56, 72
3, 84157, Note_on_c, 1, 56, 0
3, 84160, Note_on_c, 1, 57, 85
3, 84173, Note_on_c, 1, 57, 0
3, 84176, Note_on_c, 1, 59, 85
3, 84189, Note_on_c, 1, 59, 0
3, 84192, Note_on_c, 1, 57, 85
3, 84205, Note_on_c, 1, 57, 0
3, 84208, Note_on_c, 1, 54, 70
3, 84221, Note_on_c, 1, 54, 0
3, 84224, Note_on_c, 1, 56, 70
3, 84237, Note_on_c, 1, 56, 0
3, 84240, Note_on_c, 1, 58, 66
3, 84253, Note_on_c, 1, 58, 0
3, 84256, Note_on_c, 1, 59, 85
3, 84269, Note_on_c, 1, 59, 0
3, 84272, Note_on_c, 1, 61, 47
3, 84285, Note_on_c, 1, 61, 0
3, 84288, Note_on_c, 1, 59, 85
3, 84317, Note_on_c, 1, 59, 0
3, 84324, Note_on_c, 1, 55, 85
3, 84334, Note_on_c, 1, 55, 0
3, 84336, Note_on_c, 1, 50, 70
3, 84365, Note_on_c, 1, 50, 0
3, 84372, Note_on_c, 1, 52, 85
3, 84382, Note_on_c, 1, 52, 0
3, 84384, Note_on_c, 1, 54, 65
3, 84413, Note_on_c, 1, 54, 0
3, 84420, Note_on_c, 1, 52, 85
3, 84430, Note_on_c, 1, 52, 0
3, 84432, Note_on_c, 1, 54, 61
3, 84461, Note_on_c, 1, 54, 0
3, 84468, Note_on_c, 1, 42, 61
3, 84478, Note_on_c, 1, 42, 0
3, 84480, Note_on_c, 1, 47, 85
3, 84519, Note_on_c, 1, 47, 0
3, 84576, Note_on_c, 1, 50, 98
3, 84576, Note_on_c, 1, 54, 98
3, 84576, Note_on_c, 1, 57, 98
3, 84624, Note_on_c, 1, 57, 0
3, 84624, Note_on_c, 1, 54, 0
3, 84624, Note_on_c, 1, 50, 0
3, 85380, Note_on_c, 1, 57, 95
3, 85392, Note_on_c, 1, 57, 0
3, 85392, Note_on_c, 1, 62, 95
3, 85428, Note_on_c, 1, 62, 0
3, 85428, Note_on_c, 1, 57, 95
3, 85440, Note_on_c, 1, 57, 0
3, 85440, Note_on_c, 1, 59, 95
3, 85456, Note_on_c, 1, 59, 0
3, 85456, Note_on_c, 1, 57, 95
3, 85472, Note_on_c, 1, 57, 0
3, 85472, Note_on_c, 1, 55, 95
3, 85488, Note_on_c, 1, 55, 0
3, 85488, Note_on_c, 1, 54, 95
3, 85504, Note_on_c, 1, 54, 0
3, 85504, Note_on_c, 1, 55, 95
3, 85520, Note_on_c, 1, 55, 0
3, 85520, Note_on_c, 1, 57, 95
3, 85536, Note_on_c, 1, 57, 0
3, 85536, Note_on_c, 1, 50, 95
3, 85560, Note_on_c, 1, 50, 0
3, 85584, Note_on_c, 1, 49, 95
3, 85608, Note_on_c, 1, 49, 0
3, 85632, Note_on_c, 1, 50, 95
3, 85656, Note_on_c, 1, 50, 0
3, 85680, Note_on_c, 1, 52, 95
3, 85704, Note_on_c, 1, 52, 0
3, 85728, Note_on_c, 1, 54, 95
3, 85752, Note_on_c, 1, 54, 0
3, 85776, Note_on_c, 1, 49, 95
3, 85800, Note_on_c, 1, 49, 0
3, 85824, Note_on_c, 1, 50, 95
3, 85848, Note_on_c, 1, 50, 0
3, 85872, Note_on_c, 1, 52, 95
3, 85896, Note_on_c, 1, 52, 0
3, 85920, Note_on_c, 1, 54, 95
3, 85944, Note_on_c, 1, 54, 0
3, 85968, Note_on_c, 1, 52, 95
3, 85992, Note_on_c, 1, 52, 0
3, 86016, Note_on_c, 1, 54, 95
3, 86040, Note_on_c, 1, 54, 0
3, 86064, Note_on_c, 1, 56, 95
3, 86088, Note_on_c, 1, 56, 0
3, 86112, Note_on_c, 1, 57, 95
3, 86128, Note_on_c, 1, 57, 0
3, 86128, Note_on_c, 1, 61, 95
3, 86144, Note_on_c, 1, 61, 0
3, 86144, Note_on_c, 1, 59, 95
3, 86160, Note_on_c, 1, 59, 0
3, 86160, Note_on_c, 1, 57, 95
3, 86176, Note_on_c, 1, 57, 0
3, 86176, Note_on_c, 1, 59, 95
3, 86192, Note_on_c, 1, 59, 0
3, 86192, Note_on_c, 1, 61, 95
3, 86208, Note_on_c, 1, 61, 0
3, 86208, Note_on_c, 1, 62, 95
3, 86232, Note_on_c, 1, 62, 0
3, 86256, Note_on_c, 1, 64, 95
3, 86280, Note_on_c, 1, 64, 0
3, 86304, Note_on_c, 1, 66, 95
3, 86310, Note_on_c, 1, 66, 0
3, 86310, Note_on_c, 1, 68, 95
3, 86316, Note_on_c, 1, 68, 0
3, 86316, Note_on_c, 1, 66, 95
3, 86322, Note_on_c, 1, 66, 0
3, 86322, Note_on_c, 1, 68, 95
3, 86328, Note_on_c, 1, 68, 0
3, 86328, Note_on_c, 1, 66, 95
3, 86334, Note_on_c, 1, 66, 0
3, 86334, Note_on_c, 1, 68, 95
3, 86340, Note_on_c, 1, 68, 0
3, 86340, Note_on_c, 1, 66, 95
3, 86346, Note_on_c, 1, 66, 0
3, 86346, Note_on_c, 1, 68, 95
3, 86352, Note_on_c, 1, 68, 0
3, 86352, Note_on_c, 1, 66, 95
3, 86358, Note_on_c, 1, 66, 0
3, 86358, Note_on_c, 1, 68, 95
3, 86364, Note_on_c, 1, 68, 0
3, 86364, Note_on_c, 1, 66, 95
3, 86370, Note_on_c, 1, 66, 0
3, 86370, Note_on_c, 1, 68, 95
3, 86376, Note_on_c, 1, 68, 0
3, 86376, Note_on_c, 1, 66, 95
3, 86382, Note_on_c, 1, 66, 0
3, 86382, Note_on_c, 1, 68, 95
3, 86388, Note_on_c, 1, 68, 0
3, 86388, Note_on_c, 1, 66, 95
3, 86394, Note_on_c, 1, 66, 0
3, 86394, Note_on_c, 1, 68, 95
3, 86400, Note_on_c, 1, 68, 0
3, 86400, Note_on_c, 1, 66, 95
3, 86416, Note_on_c, 1, 66, 0
3, 86416, Note_on_c, 1, 69, 95
3, 86432, Note_on_c, 1, 69, 0
3, 86432, Note_on_c, 1, 68, 95
3, 86448, Note_on_c, 1, 68, 0
3, 86448, Note_on_c, 1, 66, 95
3, 86464, Note_on_c, 1, 66, 0
3, 86464, Note_on_c, 1, 64, 95
3, 86480, Note_on_c, 1, 64, 0
3, 86480, Note_on_c, 1, 62, 95
3, 86496, Note_on_c, 1, 62, 0
3, 86496, Note_on_c, 1, 61, 95
3, 86502, Note_on_c, 1, 61, 0
3, 86502, Note_on_c, 1, 62, 95
3, 86508, Note_on_c, 1, 62, 0
3, 86508, Note_on_c, 1, 61, 95
3, 86514, Note_on_c, 1, 61, 0
3, 86514, Note_on_c, 1, 62, 95
3, 86520, Note_on_c, 1, 62, 0
3, 86520, Note_on_c, 1, 61, 95
3, 86526, Note_on_c, 1, 61, 0
3, 86526, Note_on_c, 1, 62, 95
3, 86532, Note_on_c, 1, 62, 0
3, 86532, Note_on_c, 1, 61, 95
3, 86538, Note_on_c, 1, 61, 0
3, 86538, Note_on_c, 1, 62, 95
3, 86544, Note_on_c, 1, 62, 0
3, 86544, Note_on_c, 1, 61, 95
3, 86550, Note_on_c, 1, 61, 0
3, 86550, Note_on_c, 1, 62, 95
3, 86556, Note_on_c, 1, 62, 0
3, 86556, Note_on_c, 1, 61, 95
3, 86562, Note_on_c, 1, 61, 0
3, 86562, Note_on_c, 1, 62, 95
3, 86568, Note_on_c, 1, 62, 0
3, 86568, Note_on_c, 1, 61, 95
3, 86574, Note_on_c, 1, 61, 0
3, 86574, Note_on_c, 1, 62, 95
3, 86580, Note_on_c, 1, 62, 0
3, 86580, Note_on_c, 1, 61, 95
3, 86586, Note_on_c, 1, 61, 0
3, 86586, Note_on_c, 1, 62, 95
3, 86592, Note_on_c, 1, 62, 0
3, 86592, Note_on_c, 1, 61, 95
3, 86608, Note_on_c, 1, 61, 0
3, 86608, Note_on_c, 1, 57, 95
3, 86624, Note_on_c, 1, 57, 0
3, 86624, Note_on_c, 1, 59, 95
3, 86640, Note_on_c, 1, 59, 0
3, 86640, Note_on_c, 1, 61, 95
3, 86656, Note_on_c, 1, 61, 0
3, 86656, Note_on_c, 1, 59, 95
3, 86672, Note_on_c, 1, 59, 0
3, 86672, Note_on_c, 1, 61, 95
3, 86688, Note_on_c, 1, 61, 0
3, 86688, Note_on_c, 1, 63, 95
3, 86704, Note_on_c, 1, 63, 0
3, 86704, Note_on_c, 1, 66, 95
3, 86720, Note_on_c, 1, 66, 0
3, 86720, Note_on_c, 1, 64, 95
3, 86736, Note_on_c, 1, 64, 0
3, 86736, Note_on_c, 1, 63, 95
3, 86752, Note_on_c, 1, 63, 0
3, 86752, Note_on_c, 1, 66, 95
3, 86768, Note_on_c, 1, 66, 0
3, 86768, Note_on_c, 1, 64, 95
3, 86784, Note_on_c, 1, 64, 0
3, 86784, Note_on_c, 1, 63, 95
3, 86800, Note_on_c, 1, 63, 0
3, 86800, Note_on_c, 1, 59, 95
3, 86816, Note_on_c, 1, 59, 0
3, 86816, Note_on_c, 1, 61, 95
3, 86832, Note_on_c, 1, 61, 0
3, 86832, Note_on_c, 1, 63, 95
3, 86848, Note_on_c, 1, 63, 0
3, 86848, Note_on_c, 1, 61, 95
3, 86864, Note_on_c, 1, 61, 0
3, 86864, Note_on_c, 1, 63, 95
3, 86880, Note_on_c, 1, 63, 0
3, 86880, Note_on_c, 1, 64, 95
3, 86888, Note_on_c, 1, 64, 0
3, 86888, Note_on_c, 1, 62, 95
3, 86896, Note_on_c, 1, 62, 0
3, 86896, Note_on_c, 1, 64, 95
3, 86904, Note_on_c, 1, 64, 0
3, 86904, Note_on_c, 1, 66, 95
3, 86912, Note_on_c, 1, 66, 0
3, 86912, Note_on_c, 1, 64, 95
3, 86920, Note_on_c, 1, 64, 0
3, 86920, Note_on_c, 1, 62, 95
3, 86928, Note_on_c, 1, 62, 0
3, 86928, Note_on_c, 1, 61, 95
3, 86936, Note_on_c, 1, 61, 0
3, 86936, Note_on_c, 1, 62, 95
3, 86944, Note_on_c, 1, 62, 0
3, 86944, Note_on_c, 1, 61, 95
3, 86952, Note_on_c, 1, 61, 0
3, 86952, Note_on_c, 1, 59, 95
3, 86960, Note_on_c, 1, 59, 0
3, 86960, Note_on_c, 1, 57, 95
3, 86968, Note_on_c, 1, 57, 0
3, 86968, Note_on_c, 1, 56, 95
3, 86976, Note_on_c, 1, 56, 0
3, 86976, Note_on_c, 1, 54, 95
3, 86984, Note_on_c, 1, 54, 0
3, 86984, Note_on_c, 1, 52, 95
3, 86992, Note_on_c, 1, 52, 0
3, 86992, Note_on_c, 1, 54, 95
3, 87000, Note_on_c, 1, 54, 0
3, 87000, Note_on_c, 1, 56, 95
3, 87008, Note_on_c, 1, 56, 0
3, 87008, Note_on_c, 1, 57, 95
3, 87016, Note_on_c, 1, 57, 0
3, 87016, Note_on_c, 1, 54, 95
3, 87024, Note_on_c, 1, 54, 0
3, 87024, Note_on_c, 1, 59, 95
3, 87032, Note_on_c, 1, 59, 0
3, 87032, Note_on_c, 1, 61, 95
3, 87040, Note_on_c, 1, 61, 0
3, 87040, Note_on_c, 1, 59, 95
3, 87048, Note_on_c, 1, 59, 0
3, 87048, Note_on_c, 1, 57, 95
3, 87056, Note_on_c, 1, 57, 0
3, 87056, Note_on_c, 1, 56, 95
3, 87064, Note_on_c, 1, 56, 0
3, 87064, Note_on_c, 1, 54, 95
3, 87072, Note_on_c, 1, 54, 0
3, 87072, Note_on_c, 1, 52, 95
3, 87080, Note_on_c, 1, 52, 0
3, 87080, Note_on_c, 1, 50, 95
3, 87088, Note_on_c, 1, 50, 0
3, 87088, Note_on_c, 1, 52, 95
3, 87096, Note_on_c, 1, 52, 0
3, 87096, Note_on_c, 1, 54, 95
3, 87104, Note_on_c, 1, 54, 0
3, 87104, Note_on_c, 1, 56, 95
3, 87112, Note_on_c, 1, 56, 0
3, 87112, Note_on_c, 1, 52, 95
3, 87120, Note_on_c, 1, 52, 0
3, 87120, Note_on_c, 1, 54, 95
3, 87128, Note_on_c, 1, 54, 0
3, 87128, Note_on_c, 1, 57, 95
3, 87136, Note_on_c, 1, 57, 0
3, 87136, Note_on_c, 1, 56, 95
3, 87144, Note_on_c, 1, 56, 0
3, 87144, Note_on_c, 1, 54, 95
3, 87152, Note_on_c, 1, 54, 0
3, 87152, Note_on_c, 1, 52, 95
3, 87160, Note_on_c, 1, 52, 0
3, 87160, Note_on_c, 1, 50, 95
3, 87168, Note_on_c, 1, 50, 0
3, 87168, Note_on_c, 1, 49, 95
3, 87184, Note_on_c, 1, 49, 0
3, 87184, Note_on_c, 1, 47, 95
3, 87200, Note_on_c, 1, 47, 0
3, 87200, Note_on_c, 1, 45, 95
3, 87216, Note_on_c, 1, 45, 0
3, 87216, Note_on_c, 1, 52, 95
3, 87252, Note_on_c, 1, 52, 0
3, 87252, Note_on_c, 1, 40, 95
3, 87264, Note_on_c, 1, 40, 0
3, 87264, Note_on_c, 1, 45, 95
3, 87288, Note_on_c, 1, 45, 0
3, 87312, Note_on_c, 1, 42, 95
3, 87336, Note_on_c, 1, 42, 0
3, 87360, Note_on_c, 1, 43, 95
3, 87384, Note_on_c, 1, 43, 0
3, 87408, Note_on_c, 1, 45, 95
3, 87432, Note_on_c, 1, 45, 0
3, 87456, Note_on_c, 1, 47, 95
3, 87480, Note_on_c, 1, 47, 0
3, 87504, Note_on_c, 1, 49, 95
3, 87528, Note_on_c, 1, 49, 0
3, 87552, Note_on_c, 1, 50, 95
3, 87576, Note_on_c, 1, 50, 0
3, 87600, Note_on_c, 1, 52, 95
3, 87624, Note_on_c, 1, 52, 0
3, 87648, Note_on_c, 1, 54, 95
3, 87672, Note_on_c, 1, 54, 0
3, 87696, Note_on_c, 1, 54, 95
3, 87720, Note_on_c, 1, 54, 0
3, 87744, Note_on_c, 1, 55, 95
3, 87768, Note_on_c, 1, 55, 0
3, 87792, Note_on_c, 1, 57, 95
3, 87816, Note_on_c, 1, 57, 0
3, 87840, Note_on_c, 1, 59, 95
3, 87864, Note_on_c, 1, 59, 0
3, 87888, Note_on_c, 1, 57, 95
3, 87912, Note_on_c, 1, 57, 0
3, 87936, Note_on_c, 1, 59, 95
3, 87960, Note_on_c, 1, 59, 0
3, 87984, Note_on_c, 1, 61, 95
3, 88008, Note_on_c, 1, 61, 0
3, 88032, Note_on_c, 1, 62, 95
3, 88056, Note_on_c, 1, 62, 0
3, 88260, Note_on_c, 1, 57, 95
3, 88272, Note_on_c, 1, 57, 0
3, 88272, Note_on_c, 1, 62, 95
3, 88308, Note_on_c, 1, 62, 0
3, 88308, Note_on_c, 1, 57, 95
3, 88320, Note_on_c, 1, 57, 0
3, 88320, Note_on_c, 1, 59, 95
3, 88336, Note_on_c, 1, 59, 0
3, 88336, Note_on_c, 1, 57, 95
3, 88352, Note_on_c, 1, 57, 0
3, 88352, Note_on_c, 1, 55, 95
3, 88368, Note_on_c, 1, 55, 0
3, 88368, Note_on_c, 1, 54, 95
3, 88384, Note_on_c, 1, 54, 0
3, 88384, Note_on_c, 1, 55, 95
3, 88400, Note_on_c, 1, 55, 0
3, 88400, Note_on_c, 1, 57, 95
3, 88416, Note_on_c, 1, 57, 0
3, 88416, Note_on_c, 1, 50, 95
3, 88440, Note_on_c, 1, 50, 0
3, 88464, Note_on_c, 1, 52, 95
3, 88488, Note_on_c, 1, 52, 0
3, 88512, Note_on_c, 1, 54, 95
3, 88536, Note_on_c, 1, 54, 0
3, 88560, Note_on_c, 1, 42, 95
3, 88584, Note_on_c, 1, 42, 0
3, 88608, Note_on_c, 1, 43, 95
3, 88632, Note_on_c, 1, 43, 0
3, 88656, Note_on_c, 1, 45, 95
3, 88680, Note_on_c, 1, 45, 0
3, 88704, Note_on_c, 1, 47, 95
3, 88728, Note_on_c, 1, 47, 0
3, 88752, Note_on_c, 1, 49, 95
3, 88776, Note_on_c, 1, 49, 0
3, 88800, Note_on_c, 1, 50, 95
3, 88824, Note_on_c, 1, 50, 0
3, 88848, Note_on_c, 1, 52, 95
3, 88872, Note_on_c, 1, 52, 0
3, 88896, Note_on_c, 1, 54, 95
3, 88920, Note_on_c, 1, 54, 0
3, 88944, Note_on_c, 1, 55, 95
3, 88968, Note_on_c, 1, 55, 0
3, 88992, Note_on_c, 1, 57, 95
3, 89016, Note_on_c, 1, 57, 0
3, 89040, Note_on_c, 1, 59, 95
3, 89064, Note_on_c, 1, 59, 0
3, 89088, Note_on_c, 1, 61, 95
3, 89124, Note_on_c, 1, 61, 0
3, 89124, Note_on_c, 1, 57, 95
3, 89136, Note_on_c, 1, 57, 0
3, 89136, Note_on_c, 1, 62, 95
3, 89172, Note_on_c, 1, 62, 0
3, 89172, Note_on_c, 1, 57, 95
3, 89184, Note_on_c, 1, 57, 0
3, 89184, Note_on_c, 1, 59, 95
3, 89200, Note_on_c, 1, 59, 0
3, 89200, Note_on_c, 1, 57, 95
3, 89216, Note_on_c, 1, 57, 0
3, 89216, Note_on_c, 1, 55, 95
3, 89232, Note_on_c, 1, 55, 0
3, 89232, Note_on_c, 1, 54, 95
3, 89248, Note_on_c, 1, 54, 0
3, 89248, Note_on_c, 1, 55, 95
3, 89264, Note_on_c, 1, 55, 0
3, 89264, Note_on_c, 1, 57, 95
3, 89280, Note_on_c, 1, 57, 0
3, 89280, Note_on_c, 1, 50, 95
3, 89296, Note_on_c, 1, 50, 0
3, 89296, Note_on_c, 1, 54, 95
3, 89312, Note_on_c, 1, 54, 0
3, 89312, Note_on_c, 1, 52, 95
3, 89328, Note_on_c, 1, 52, 0
3, 89328, Note_on_c, 1, 50, 95
3, 89344, Note_on_c, 1, 50, 0
3, 89344, Note_on_c, 1, 52, 95
3, 89360, Note_on_c, 1, 52, 0
3, 89360, Note_on_c, 1, 54, 95
3, 89376, Note_on_c, 1, 54, 0
3, 89376, Note_on_c, 1, 55, 95
3, 89400, Note_on_c, 1, 55, 0
3, 89424, Note_on_c, 1, 57, 95
3, 89448, Note_on_c, 1, 57, 0
3, 89472, Note_on_c, 1, 59, 72
3, 89476, Note_on_c, 1, 59, 0
3, 89476, Note_on_c, 1, 61, 70
3, 89480, Note_on_c, 1, 61, 0
3, 89480, Note_on_c, 1, 59, 81
3, 89484, Note_on_c, 1, 59, 0
3, 89484, Note_on_c, 1, 61, 72
3, 89488, Note_on_c, 1, 61, 0
3, 89488, Note_on_c, 1, 59, 85
3, 89492, Note_on_c, 1, 59, 0
3, 89492, Note_on_c, 1, 61, 84
3, 89496, Note_on_c, 1, 61, 0
3, 89496, Note_on_c, 1, 59, 89
3, 89500, Note_on_c, 1, 59, 0
3, 89500, Note_on_c, 1, 61, 97
3, 89504, Note_on_c, 1, 61, 0
3, 89504, Note_on_c, 1, 59, 91
3, 89508, Note_on_c, 1, 59, 0
3, 89508, Note_on_c, 1, 61, 95
3, 89512, Note_on_c, 1, 61, 0
3, 89512, Note_on_c, 1, 59, 85
3, 89516, Note_on_c, 1, 59, 0
3, 89516, Note_on_c, 1, 61, 76
3, 89520, Note_on_c, 1, 61, 0
3, 89520, Note_on_c, 1, 59, 85
3, 89524, Note_on_c, 1, 59, 0
3, 89524, Note_on_c, 1, 61, 66
3, 89528, Note_on_c, 1, 61, 0
3, 89528, Note_on_c, 1, 59, 85
3, 89532, Note_on_c, 1, 59, 0
3, 89532, Note_on_c, 1, 61, 104
3, 89536, Note_on_c, 1, 61, 0
3, 89536, Note_on_c, 1, 59, 91
3, 89540, Note_on_c, 1, 59, 0
3, 89540, Note_on_c, 1, 61, 104
3, 89544, Note_on_c, 1, 61, 0
3, 89544, Note_on_c, 1, 59, 91
3, 89548, Note_on_c, 1, 59, 0
3, 89548, Note_on_c, 1, 61, 88
3, 89552, Note_on_c, 1, 61, 0
3, 89552, Note_on_c, 1, 59, 85
3, 89556, Note_on_c, 1, 59, 0
3, 89556, Note_on_c, 1, 61, 74
3, 89560, Note_on_c, 1, 61, 0
3, 89560, Note_on_c, 1, 59, 85
3, 89564, Note_on_c, 1, 59, 0
3, 89564, Note_on_c, 1, 61, 88
3, 89568, Note_on_c, 1, 61, 0
3, 89568, Note_on_c, 1, 59, 76
3, 89584, Note_on_c, 1, 59, 0
3, 89584, Note_on_c, 1, 62, 76
3, 89600, Note_on_c, 1, 62, 0
3, 89600, Note_on_c, 1, 61, 76
3, 89616, Note_on_c, 1, 61, 0
3, 89616, Note_on_c, 1, 59, 76
3, 89632, Note_on_c, 1, 59, 0
3, 89632, Note_on_c, 1, 57, 76
3, 89648, Note_on_c, 1, 57, 0
3, 89648, Note_on_c, 1, 55, 76
3, 89664, Note_on_c, 1, 55, 0
3, 89664, Note_on_c, 1, 54, 52
3, 89668, Note_on_c, 1, 54, 0
3, 89668, Note_on_c, 1, 55, 85
3, 89672, Note_on_c, 1, 55, 0
3, 89672, Note_on_c, 1, 54, 46
3, 89676, Note_on_c, 1, 54, 0
3, 89676, Note_on_c, 1, 55, 85
3, 89680, Note_on_c, 1, 55, 0
3, 89680, Note_on_c, 1, 54, 60
3, 89684, Note_on_c, 1, 54, 0
3, 89684, Note_on_c, 1, 55, 85
3, 89688, Note_on_c, 1, 55, 0
3, 89688, Note_on_c, 1, 54, 62
3, 89692, Note_on_c, 1, 54, 0
3, 89692, Note_on_c, 1, 55, 85
3, 89696, Note_on_c, 1, 55, 0
3, 89696, Note_on_c, 1, 54, 72
3, 89700, Note_on_c, 1, 54, 0
3, 89700, Note_on_c, 1, 55, 85
3, 89704, Note_on_c, 1, 55, 0
3, 89704, Note_on_c, 1, 54, 82
3, 89708, Note_on_c, 1, 54, 0
3, 89708, Note_on_c, 1, 55, 85
3, 89712, Note_on_c, 1, 55, 0
3, 89712, Note_on_c, 1, 54, 78
3, 89716, Note_on_c, 1, 54, 0
3, 89716, Note_on_c, 1, 55, 74
3, 89720, Note_on_c, 1, 55, 0
3, 89720, Note_on_c, 1, 54, 54
3, 89724, Note_on_c, 1, 54, 0
3, 89724, Note_on_c, 1, 55, 81
3, 89728, Note_on_c, 1, 55, 0
3, 89728, Note_on_c, 1, 54, 67
3, 89732, Note_on_c, 1, 54, 0
3, 89732, Note_on_c, 1, 55, 85
3, 89736, Note_on_c, 1, 55, 0
3, 89736, Note_on_c, 1, 54, 74
3, 89740, Note_on_c, 1, 54, 0
3, 89740, Note_on_c, 1, 55, 85
3, 89744, Note_on_c, 1, 55, 0
3, 89744, Note_on_c, 1, 54, 82
3, 89748, Note_on_c, 1, 54, 0
3, 89748, Note_on_c, 1, 55, 85
3, 89752, Note_on_c, 1, 55, 0
3, 89752, Note_on_c, 1, 54, 67
3, 89756, Note_on_c, 1, 54, 0
3, 89756, Note_on_c, 1, 55, 85
3, 89760, Note_on_c, 1, 55, 0
3, 89760, Note_on_c, 1, 54, 76
3, 89776, Note_on_c, 1, 54, 0
3, 89776, Note_on_c, 1, 50, 71
3, 89792, Note_on_c, 1, 50, 0
3, 89792, Note_on_c, 1, 52, 85
3, 89808, Note_on_c, 1, 52, 0
3, 89808, Note_on_c, 1, 54, 59
3, 89824, Note_on_c, 1, 54, 0
3, 89824, Note_on_c, 1, 52, 69
3, 89840, Note_on_c, 1, 52, 0
3, 89840, Note_on_c, 1, 54, 60
3, 89856, Note_on_c, 1, 54, 0
3, 89856, Note_on_c, 1, 56, 64
3, 89872, Note_on_c, 1, 56, 0
3, 89872, Note_on_c, 1, 59, 85
3, 89888, Note_on_c, 1, 59, 0
3, 89888, Note_on_c, 1, 57, 85
3, 89904, Note_on_c, 1, 57, 0
3, 89904, Note_on_c, 1, 56, 59
3, 89920, Note_on_c, 1, 56, 0
3, 89920, Note_on_c, 1, 59, 57
3, 89936, Note_on_c, 1, 59, 0
3, 89936, Note_on_c, 1, 57, 85
3, 89952, Note_on_c, 1, 57, 0
3, 89952, Note_on_c, 1, 56, 57
3, 89968, Note_on_c, 1, 56, 0
3, 89968, Note_on_c, 1, 52, 77
3, 89984, Note_on_c, 1, 52, 0
3, 89984, Note_on_c, 1, 54, 56
3, 90000, Note_on_c, 1, 54, 0
3, 90000, Note_on_c, 1, 56, 61
3, 90016, Note_on_c, 1, 56, 0
3, 90016, Note_on_c, 1, 54, 66
3, 90032, Note_on_c, 1, 54, 0
3, 90032, Note_on_c, 1, 56, 67
3, 90048, Note_on_c, 1, 56, 0
3, 90048, Note_on_c, 1, 57, 76
3, 90056, Note_on_c, 1, 57, 0
3, 90056, Note_on_c, 1, 61, 52
3, 90064, Note_on_c, 1, 61, 0
3, 90064, Note_on_c, 1, 62, 82
3, 90072, Note_on_c, 1, 62, 0
3, 90072, Note_on_c, 1, 64, 67
3, 90080, Note_on_c, 1, 64, 0
3, 90080, Note_on_c, 1, 66, 40
3, 90088, Note_on_c, 1, 66, 0
3, 90088, Note_on_c, 1, 67, 85
3, 90096, Note_on_c, 1, 67, 0
3, 90096, Note_on_c, 1, 69, 85
3, 90112, Note_on_c, 1, 69, 0
3, 90152, Note_on_c, 1, 59, 85
3, 90160, Note_on_c, 1, 59, 0
3, 90160, Note_on_c, 1, 61, 57
3, 90168, Note_on_c, 1, 61, 0
3, 90168, Note_on_c, 1, 62, 85
3, 90176, Note_on_c, 1, 62, 0
3, 90176, Note_on_c, 1, 64, 85
3, 90184, Note_on_c, 1, 64, 0
3, 90184, Note_on_c, 1, 66, 64
3, 90192, Note_on_c, 1, 66, 0
3, 90192, Note_on_c, 1, 67, 85
3, 90208, Note_on_c, 1, 67, 0
3, 90248, Note_on_c, 1, 57, 76
3, 90256, Note_on_c, 1, 57, 0
3, 90256, Note_on_c, 1, 59, 76
3, 90264, Note_on_c, 1, 59, 0
3, 90264, Note_on_c, 1, 61, 76
3, 90272, Note_on_c, 1, 61, 0
3, 90272, Note_on_c, 1, 62, 76
3, 90280, Note_on_c, 1, 62, 0
3, 90280, Note_on_c, 1, 64, 76
3, 90288, Note_on_c, 1, 64, 0
3, 90288, Note_on_c, 1, 66, 76
3, 90304, Note_on_c, 1, 66, 0
3, 90336, Note_on_c, 1, 55, 76
3, 90352, Note_on_c, 1, 55, 0
3, 90424, Note_on_c, 1, 59, 76
3, 90432, Note_on_c, 1, 59, 0
3, 90432, Note_on_c, 1, 57, 103
3, 90437, Note_on_c, 1, 57, 0
3, 90440, Note_on_c, 1, 59, 103
3, 90445, Note_on_c, 1, 59, 0
3, 90448, Note_on_c, 1, 57, 93
3, 90453, Note_on_c, 1, 57, 0
3, 90456, Note_on_c, 1, 55, 82
3, 90461, Note_on_c, 1, 55, 0
3, 90464, Note_on_c, 1, 54, 86
3, 90469, Note_on_c, 1, 54, 0
3, 90472, Note_on_c, 1, 52, 103
3, 90477, Note_on_c, 1, 52, 0
3, 90480, Note_on_c, 1, 50, 99
3, 90485, Note_on_c, 1, 50, 0
3, 90488, Note_on_c, 1, 52, 82
3, 90493, Note_on_c, 1, 52, 0
3, 90496, Note_on_c, 1, 50, 80
3, 90501, Note_on_c, 1, 50, 0
3, 90504, Note_on_c, 1, 49, 82
3, 90509, Note_on_c, 1, 49, 0
3, 90512, Note_on_c, 1, 47, 69
3, 90517, Note_on_c, 1, 47, 0
3, 90520, Note_on_c, 1, 45, 103
3, 90525, Note_on_c, 1, 45, 0
3, 90528, Note_on_c, 1, 47, 100
3, 90539, Note_on_c, 1, 47, 0
3, 90544, Note_on_c, 1, 45, 100
3, 90555, Note_on_c, 1, 45, 0
3, 90560, Note_on_c, 1, 43, 103
3, 90571, Note_on_c, 1, 43, 0
3, 90576, Note_on_c, 1, 45, 103
3, 90600, Note_on_c, 1, 45, 0
3, 90612, Note_on_c, 1, 45, 103
3, 90620, Note_on_c, 1, 45, 0
3, 90624, Note_on_c, 1, 38, 103
3, 90640, Note_on_c, 1, 38, 0
3, 90672, Note_on_c, 1, 42, 88
3, 90688, Note_on_c, 1, 42, 0
3, 90720, Note_on_c, 1, 43, 103
3, 90736, Note_on_c, 1, 43, 0
3, 90768, Note_on_c, 1, 48, 91
3, 90784, Note_on_c, 1, 48, 0
3, 90816, Note_on_c, 1, 47, 103
3, 90840, Note_on_c, 1, 47, 0
3, 90852, Note_on_c, 1, 55, 103
3, 90860, Note_on_c, 1, 55, 0
3, 90864, Note_on_c, 1, 62, 103
3, 90888, Note_on_c, 1, 62, 0
3, 90900, Note_on_c, 1, 57, 103
3, 90908, Note_on_c, 1, 57, 0
3, 90912, Note_on_c, 1, 59, 103
3, 90923, Note_on_c, 1, 59, 0
3, 90928, Note_on_c, 1, 57, 103
3, 90939, Note_on_c, 1, 57, 0
3, 90944, Note_on_c, 1, 55, 98
3, 90955, Note_on_c, 1, 55, 0
3, 90960, Note_on_c, 1, 54, 84
3, 90971, Note_on_c, 1, 54, 0
3, 90976, Note_on_c, 1, 56, 89
3, 90987, Note_on_c, 1, 56, 0
3, 90992, Note_on_c, 1, 57, 103
3, 91003, Note_on_c, 1, 57, 0
3, 91008, Note_on_c, 1, 56, 86
3, 91010, Note_on_c, 1, 56, 0
3, 91012, Note_on_c, 1, 57, 92
3, 91014, Note_on_c, 1, 57, 0
3, 91016, Note_on_c, 1, 56, 87
3, 91018, Note_on_c, 1, 56, 0
3, 91020, Note_on_c, 1, 57, 103
3, 91022, Note_on_c, 1, 57, 0
3, 91024, Note_on_c, 1, 56, 86
3, 91026, Note_on_c, 1, 56, 0
3, 91028, Note_on_c, 1, 57, 103
3, 91030, Note_on_c, 1, 57, 0
3, 91032, Note_on_c, 1, 56, 95
3, 91034, Note_on_c, 1, 56, 0
3, 91036, Note_on_c, 1, 57, 103
3, 91038, Note_on_c, 1, 57, 0
3, 91040, Note_on_c, 1, 56, 92
3, 91042, Note_on_c, 1, 56, 0
3, 91044, Note_on_c, 1, 57, 103
3, 91046, Note_on_c, 1, 57, 0
3, 91048, Note_on_c, 1, 56, 100
3, 91050, Note_on_c, 1, 56, 0
3, 91052, Note_on_c, 1, 57, 103
3, 91054, Note_on_c, 1, 57, 0
3, 91056, Note_on_c, 1, 56, 98
3, 91058, Note_on_c, 1, 56, 0
3, 91060, Note_on_c, 1, 57, 103
3, 91062, Note_on_c, 1, 57, 0
3, 91064, Note_on_c, 1, 56, 99
3, 91066, Note_on_c, 1, 56, 0
3, 91068, Note_on_c, 1, 57, 103
3, 91070, Note_on_c, 1, 57, 0
3, 91072, Note_on_c, 1, 56, 95
3, 91074, Note_on_c, 1, 56, 0
3, 91076, Note_on_c, 1, 57, 103
3, 91078, Note_on_c, 1, 57, 0
3, 91080, Note_on_c, 1, 56, 100
3, 91082, Note_on_c, 1, 56, 0
3, 91084, Note_on_c, 1, 57, 103
3, 91086, Note_on_c, 1, 57, 0
3, 91088, Note_on_c, 1, 56, 101
3, 91090, Note_on_c, 1, 56, 0
3, 91092, Note_on_c, 1, 57, 103
3, 91094, Note_on_c, 1, 57, 0
3, 91096, Note_on_c, 1, 56, 98
3, 91098, Note_on_c, 1, 56, 0
3, 91100, Note_on_c, 1, 57, 103
3, 91102, Note_on_c, 1, 57, 0
3, 91104, Note_on_c, 1, 56, 77
3, 91115, Note_on_c, 1, 56, 0
3, 91120, Note_on_c, 1, 59, 103
3, 91131, Note_on_c, 1, 59, 0
3, 91136, Note_on_c, 1, 57, 103
3, 91147, Note_on_c, 1, 57, 0
3, 91152, Note_on_c, 1, 56, 80
3, 91163, Note_on_c, 1, 56, 0
3, 91168, Note_on_c, 1, 59, 103
3, 91179, Note_on_c, 1, 59, 0
3, 91184, Note_on_c, 1, 57, 103
3, 91195, Note_on_c, 1, 57, 0
3, 91200, Note_on_c, 1, 56, 90
3, 91202, Note_on_c, 1, 56, 0
3, 91204, Note_on_c, 1, 57, 103
3, 91206, Note_on_c, 1, 57, 0
3, 91208, Note_on_c, 1, 56, 90
3, 91210, Note_on_c, 1, 56, 0
3, 91212, Note_on_c, 1, 57, 103
3, 91214, Note_on_c, 1, 57, 0
3, 91216, Note_on_c, 1, 56, 96
3, 91218, Note_on_c, 1, 56, 0
3, 91220, Note_on_c, 1, 57, 103
3, 91222, Note_on_c, 1, 57, 0
3, 91224, Note_on_c, 1, 56, 100
3, 91226, Note_on_c, 1, 56, 0
3, 91228, Note_on_c, 1, 57, 103
3, 91230, Note_on_c, 1, 57, 0
3, 91232, Note_on_c, 1, 56, 109
3, 91234, Note_on_c, 1, 56, 0
3, 91236, Note_on_c, 1, 57, 103
3, 91238, Note_on_c, 1, 57, 0
3, 91240, Note_on_c, 1, 56, 105
3, 91242, Note_on_c, 1, 56, 0
3, 91244, Note_on_c, 1, 57, 103
3, 91246, Note_on_c, 1, 57, 0
3, 91248, Note_on_c, 1, 56, 105
3, 91250, Note_on_c, 1, 56, 0
3, 91252, Note_on_c, 1, 57, 103
3, 91254, Note_on_c, 1, 57, 0
3, 91256, Note_on_c, 1, 56, 105
3, 91258, Note_on_c, 1, 56, 0
3, 91260, Note_on_c, 1, 57, 103
3, 91262, Note_on_c, 1, 57, 0
3, 91264, Note_on_c, 1, 56, 106
3, 91266, Note_on_c, 1, 56, 0
3, 91268, Note_on_c, 1, 57, 103
3, 91270, Note_on_c, 1, 57, 0
3, 91272, Note_on_c, 1, 56, 101
3, 91274, Note_on_c, 1, 56, 0
3, 91276, Note_on_c, 1, 57, 103
3, 91278, Note_on_c, 1, 57, 0
3, 91280, Note_on_c, 1, 56, 105
3, 91282, Note_on_c, 1, 56, 0
3, 91284, Note_on_c, 1, 57, 103
3, 91286, Note_on_c, 1, 57, 0
3, 91288, Note_on_c, 1, 56, 99
3, 91290, Note_on_c, 1, 56, 0
3, 91292, Note_on_c, 1, 57, 103
3, 91294, Note_on_c, 1, 57, 0
3, 91296, Note_on_c, 1, 56, 49
3, 91312, Note_on_c, 1, 56, 0
3, 91312, Note_on_c, 1, 59, 74
3, 91328, Note_on_c, 1, 59, 0
3, 91328, Note_on_c, 1, 57, 72
3, 91344, Note_on_c, 1, 57, 0
3, 91344, Note_on_c, 1, 56, 57
3, 91360, Note_on_c, 1, 56, 0
3, 91360, Note_on_c, 1, 54, 70
3, 91376, Note_on_c, 1, 54, 0
3, 91376, Note_on_c, 1, 52, 72
3, 91392, Note_on_c, 1, 52, 0
3, 91392, Note_on_c, 1, 57, 67
3, 91408, Note_on_c, 1, 57, 0
3, 91408, Note_on_c, 1, 61, 64
3, 91424, Note_on_c, 1, 61, 0
3, 91424, Note_on_c, 1, 59, 71
3, 91440, Note_on_c, 1, 59, 0
3, 91440, Note_on_c, 1, 57, 77
3, 91456, Note_on_c, 1, 57, 0
3, 91456, Note_on_c, 1, 55, 85
3, 91472, Note_on_c, 1, 55, 0
3, 91472, Note_on_c, 1, 54, 64
3, 91488, Note_on_c, 1, 54, 0
3, 91488, Note_on_c, 1, 59, 72
3, 91504, Note_on_c, 1, 59, 0
3, 91504, Note_on_c, 1, 62, 85
3, 91520, Note_on_c, 1, 62, 0
3, 91520, Note_on_c, 1, 61, 65
3, 91536, Note_on_c, 1, 61, 0
3, 91536, Note_on_c, 1, 59, 85
3, 91552, Note_on_c, 1, 59, 0
3, 91552, Note_on_c, 1, 57, 78
3, 91568, Note_on_c, 1, 57, 0
3, 91568, Note_on_c, 1, 55, 81
3, 91584, Note_on_c, 1, 55, 0
3, 91584, Note_on_c, 1, 61, 67
3, 91600, Note_on_c, 1, 61, 0
3, 91600, Note_on_c, 1, 64, 85
3, 91616, Note_on_c, 1, 64, 0
3, 91616, Note_on_c, 1, 62, 85
3, 91632, Note_on_c, 1, 62, 0
3, 91632, Note_on_c, 1, 61, 67
3, 91648, Note_on_c, 1, 61, 0
3, 91648, Note_on_c, 1, 59, 77
3, 91664, Note_on_c, 1, 59, 0
3, 91664, Note_on_c, 1, 57, 85
3, 91680, Note_on_c, 1, 57, 0
3, 91680, Note_on_c, 1, 62, 85
3, 91704, Note_on_c, 1, 62, 0
3, 91728, Note_on_c, 1, 54, 69
3, 91752, Note_on_c, 1, 54, 0
3, 91776, Note_on_c, 1, 55, 85
3, 91800, Note_on_c, 1, 55, 0
3, 91824, Note_on_c, 1, 57, 85
3, 91848, Note_on_c, 1, 57, 0
3, 91872, Note_on_c, 1, 59, 85
3, 91888, Note_on_c, 1, 59, 0
3, 91888, Note_on_c, 1, 57, 85
3, 91904, Note_on_c, 1, 57, 0
3, 91904, Note_on_c, 1, 55, 85
3, 91920, Note_on_c, 1, 55, 0
3, 91920, Note_on_c, 1, 57, 85
3, 91956, Note_on_c, 1, 57, 0
3, 91956, Note_on_c, 1, 45, 85
3, 91968, Note_on_c, 1, 45, 0
3, 91968, Note_on_c, 1, 50, 85
3, 91968, Note_on_c, 1, 57, 85
3, 92064, Note_on_c, 1, 57, 0
3, 92064, Note_on_c, 1, 50, 0
3, 92064, End_track
4, 0, Start_track
4, 0, MIDI_port, 0
4, 0, Title_t, "Flute"
4, 0, Program_c, 2, 73
4, 0, Control_c, 2, 7, 127
4, 0, Control_c, 2, 10, 96
4, 0, Control_c, 2, 121, 0
4, 0, Control_c, 2, 91, 127
4, 0, Control_c, 2, 93, 0
4, 1560, Note_on_c, 2, 74, 95
4, 1584, Note_on_c, 2, 74, 0
4, 1584, Note_on_c, 2, 73, 95
4, 1608, Note_on_c, 2, 73, 0
4, 1608, Note_on_c, 2, 71, 95
4, 1632, Note_on_c, 2, 71, 0
4, 1632, Note_on_c, 2, 69, 95
4, 1728, Note_on_c, 2, 69, 0
4, 1752, Note_on_c, 2, 83, 95
4, 1768, Note_on_c, 2, 83, 0
4, 1776, Note_on_c, 2, 81, 95
4, 1792, Note_on_c, 2, 81, 0
4, 1800, Note_on_c, 2, 79, 95
4, 1816, Note_on_c, 2, 79, 0
4, 1824, Note_on_c, 2, 78, 95
4, 1832, Note_on_c, 2, 78, 0
4, 1836, Note_on_c, 2, 79, 95
4, 1844, Note_on_c, 2, 79, 0
4, 1848, Note_on_c, 2, 81, 95
4, 1880, Note_on_c, 2, 81, 0
4, 1896, Note_on_c, 2, 79, 95
4, 1904, Note_on_c, 2, 79, 0
4, 1908, Note_on_c, 2, 78, 95
4, 1916, Note_on_c, 2, 78, 0
4, 1920, Note_on_c, 2, 76, 95
4, 1936, Note_on_c, 2, 76, 0
4, 1944, Note_on_c, 2, 69, 95
4, 1960, Note_on_c, 2, 69, 0
4, 2136, Note_on_c, 2, 78, 95
4, 2152, Note_on_c, 2, 78, 0
4, 2160, Note_on_c, 2, 76, 95
4, 2176, Note_on_c, 2, 76, 0
4, 2184, Note_on_c, 2, 74, 95
4, 2200, Note_on_c, 2, 74, 0
4, 2208, Note_on_c, 2, 73, 95
4, 2240, Note_on_c, 2, 73, 0
4, 2280, Note_on_c, 2, 73, 95
4, 2296, Note_on_c, 2, 73, 0
4, 2304, Note_on_c, 2, 78, 95
4, 2320, Note_on_c, 2, 78, 0
4, 2328, Note_on_c, 2, 69, 95
4, 2344, Note_on_c, 2, 69, 0
4, 2352, Note_on_c, 2, 74, 95
4, 2360, Note_on_c, 2, 74, 0
4, 2364, Note_on_c, 2, 76, 95
4, 2372, Note_on_c, 2, 76, 0
4, 2376, Note_on_c, 2, 78, 95
4, 2384, Note_on_c, 2, 78, 0
4, 2388, Note_on_c, 2, 79, 95
4, 2396, Note_on_c, 2, 79, 0
4, 2400, Note_on_c, 2, 81, 95
4, 2416, Note_on_c, 2, 81, 0
4, 2424, Note_on_c, 2, 69, 95
4, 2440, Note_on_c, 2, 69, 0
4, 2520, Note_on_c, 2, 78, 95
4, 2525, Note_on_c, 2, 78, 0
4, 2528, Note_on_c, 2, 76, 95
4, 2533, Note_on_c, 2, 76, 0
4, 2536, Note_on_c, 2, 78, 95
4, 2541, Note_on_c, 2, 78, 0
4, 2544, Note_on_c, 2, 80, 95
4, 2549, Note_on_c, 2, 80, 0
4, 2552, Note_on_c, 2, 78, 95
4, 2557, Note_on_c, 2, 78, 0
4, 2560, Note_on_c, 2, 80, 95
4, 2565, Note_on_c, 2, 80, 0
4, 2568, Note_on_c, 2, 81, 95
4, 2573, Note_on_c, 2, 81, 0
4, 2576, Note_on_c, 2, 80, 95
4, 2581, Note_on_c, 2, 80, 0
4, 2584, Note_on_c, 2, 81, 95
4, 2589, Note_on_c, 2, 81, 0
4, 2592, Note_on_c, 2, 83, 95
4, 2655, Note_on_c, 2, 83, 0
4, 2712, Note_on_c, 2, 76, 95
4, 2720, Note_on_c, 2, 76, 0
4, 2720, Note_on_c, 2, 74, 95
4, 2725, Note_on_c, 2, 74, 0
4, 2728, Note_on_c, 2, 76, 95
4, 2733, Note_on_c, 2, 76, 0
4, 2736, Note_on_c, 2, 78, 95
4, 2741, Note_on_c, 2, 78, 0
4, 2744, Note_on_c, 2, 76, 95
4, 2749, Note_on_c, 2, 76, 0
4, 2752, Note_on_c, 2, 78, 95
4, 2757, Note_on_c, 2, 78, 0
4, 2760, Note_on_c, 2, 80, 95
4, 2765, Note_on_c, 2, 80, 0
4, 2768, Note_on_c, 2, 78, 95
4, 2773, Note_on_c, 2, 78, 0
4, 2776, Note_on_c, 2, 80, 95
4, 2781, Note_on_c, 2, 80, 0
4, 2784, Note_on_c, 2, 81, 95
4, 2847, Note_on_c, 2, 81, 0
4, 2904, Note_on_c, 2, 74, 95
4, 2909, Note_on_c, 2, 74, 0
4, 2912, Note_on_c, 2, 73, 95
4, 2917, Note_on_c, 2, 73, 0
4, 2920, Note_on_c, 2, 74, 95
4, 2925, Note_on_c, 2, 74, 0
4, 2928, Note_on_c, 2, 76, 95
4, 2933, Note_on_c, 2, 76, 0
4, 2936, Note_on_c, 2, 74, 95
4, 2941, Note_on_c, 2, 74, 0
4, 2944, Note_on_c, 2, 76, 95
4, 2949, Note_on_c, 2, 76, 0
4, 2952, Note_on_c, 2, 78, 95
4, 2957, Note_on_c, 2, 78, 0
4, 2960, Note_on_c, 2, 76, 95
4, 2965, Note_on_c, 2, 76, 0
4, 2968, Note_on_c, 2, 78, 95
4, 2973, Note_on_c, 2, 78, 0
4, 2976, Note_on_c, 2, 68, 95
4, 2992, Note_on_c, 2, 68, 0
4, 3000, Note_on_c, 2, 78, 95
4, 3016, Note_on_c, 2, 78, 0
4, 3024, Note_on_c, 2, 76, 95
4, 3040, Note_on_c, 2, 76, 0
4, 3048, Note_on_c, 2, 74, 95
4, 3064, Note_on_c, 2, 74, 0
4, 3072, Note_on_c, 2, 73, 95
4, 3088, Note_on_c, 2, 73, 0
4, 3096, Note_on_c, 2, 71, 95
4, 3104, Note_on_c, 2, 71, 0
4, 3108, Note_on_c, 2, 69, 95
4, 3116, Note_on_c, 2, 69, 0
4, 3120, Note_on_c, 2, 76, 95
4, 3152, Note_on_c, 2, 76, 0
4, 3180, Note_on_c, 2, 74, 95
4, 3188, Note_on_c, 2, 74, 0
4, 3192, Note_on_c, 2, 73, 95
4, 3200, Note_on_c, 2, 73, 0
4, 3204, Note_on_c, 2, 74, 95
4, 3212, Note_on_c, 2, 74, 0
4, 3216, Note_on_c, 2, 83, 95
4, 3232, Note_on_c, 2, 83, 0
4, 3240, Note_on_c, 2, 81, 95
4, 3256, Note_on_c, 2, 81, 0
4, 3264, Note_on_c, 2, 80, 95
4, 3280, Note_on_c, 2, 80, 0
4, 3288, Note_on_c, 2, 78, 95
4, 3296, Note_on_c, 2, 78, 0
4, 3300, Note_on_c, 2, 76, 95
4, 3308, Note_on_c, 2, 76, 0
4, 3312, Note_on_c, 2, 81, 95
4, 3360, Note_on_c, 2, 81, 0
4, 3396, Note_on_c, 2, 83, 95
4, 3404, Note_on_c, 2, 83, 0
4, 3408, Note_on_c, 2, 80, 95
4, 3432, Note_on_c, 2, 80, 0
4, 3444, Note_on_c, 2, 81, 95
4, 3452, Note_on_c, 2, 81, 0
4, 3456, Note_on_c, 2, 81, 95
4, 3488, Note_on_c, 2, 81, 0
4, 3816, Note_on_c, 2, 71, 79
4, 3832, Note_on_c, 2, 71, 0
4, 3840, Note_on_c, 2, 73, 79
4, 3856, Note_on_c, 2, 73, 0
4, 3864, Note_on_c, 2, 71, 79
4, 3880, Note_on_c, 2, 71, 0
4, 3888, Note_on_c, 2, 74, 79
4, 3904, Note_on_c, 2, 74, 0
4, 3912, Note_on_c, 2, 73, 79
4, 3928, Note_on_c, 2, 73, 0
4, 3936, Note_on_c, 2, 78, 79
4, 3968, Note_on_c, 2, 78, 0
4, 4008, Note_on_c, 2, 78, 79
4, 4024, Note_on_c, 2, 78, 0
4, 4032, Note_on_c, 2, 80, 79
4, 4048, Note_on_c, 2, 80, 0
4, 4056, Note_on_c, 2, 78, 79
4, 4072, Note_on_c, 2, 78, 0
4, 4080, Note_on_c, 2, 81, 79
4, 4096, Note_on_c, 2, 81, 0
4, 4104, Note_on_c, 2, 80, 79
4, 4120, Note_on_c, 2, 80, 0
4, 4128, Note_on_c, 2, 83, 79
4, 4144, Note_on_c, 2, 83, 0
4, 4152, Note_on_c, 2, 68, 79
4, 4168, Note_on_c, 2, 68, 0
4, 4176, Note_on_c, 2, 73, 79
4, 4271, Note_on_c, 2, 73, 0
4, 4320, Note_on_c, 2, 73, 79
4, 4336, Note_on_c, 2, 73, 0
4, 4344, Note_on_c, 2, 66, 79
4, 4360, Note_on_c, 2, 66, 0
4, 4368, Note_on_c, 2, 71, 79
4, 4463, Note_on_c, 2, 71, 0
4, 4524, Note_on_c, 2, 74, 79
4, 4532, Note_on_c, 2, 74, 0
4, 4536, Note_on_c, 2, 73, 79
4, 4544, Note_on_c, 2, 73, 0
4, 4548, Note_on_c, 2, 71, 79
4, 4556, Note_on_c, 2, 71, 0
4, 4560, Note_on_c, 2, 69, 79
4, 4568, Note_on_c, 2, 69, 0
4, 4572, Note_on_c, 2, 67, 79
4, 4580, Note_on_c, 2, 67, 0
4, 4584, Note_on_c, 2, 66, 79
4, 4592, Note_on_c, 2, 66, 0
4, 4596, Note_on_c, 2, 64, 79
4, 4604, Note_on_c, 2, 64, 0
4, 4608, Note_on_c, 2, 66, 79
4, 4624, Note_on_c, 2, 66, 0
4, 4632, Note_on_c, 2, 64, 79
4, 4648, Note_on_c, 2, 64, 0
4, 4656, Note_on_c, 2, 67, 79
4, 4672, Note_on_c, 2, 67, 0
4, 4680, Note_on_c, 2, 66, 79
4, 4696, Note_on_c, 2, 66, 0
4, 4704, Note_on_c, 2, 71, 79
4, 4736, Note_on_c, 2, 71, 0
4, 4776, Note_on_c, 2, 71, 79
4, 4792, Note_on_c, 2, 71, 0
4, 4800, Note_on_c, 2, 73, 79
4, 4816, Note_on_c, 2, 73, 0
4, 4824, Note_on_c, 2, 71, 79
4, 4840, Note_on_c, 2, 71, 0
4, 4848, Note_on_c, 2, 74, 79
4, 4864, Note_on_c, 2, 74, 0
4, 4872, Note_on_c, 2, 73, 79
4, 4888, Note_on_c, 2, 73, 0
4, 4896, Note_on_c, 2, 76, 79
4, 4928, Note_on_c, 2, 76, 0
4, 4968, Note_on_c, 2, 76, 79
4, 4984, Note_on_c, 2, 76, 0
4, 4992, Note_on_c, 2, 78, 79
4, 5008, Note_on_c, 2, 78, 0
4, 5016, Note_on_c, 2, 76, 79
4, 5032, Note_on_c, 2, 76, 0
4, 5040, Note_on_c, 2, 79, 79
4, 5056, Note_on_c, 2, 79, 0
4, 5064, Note_on_c, 2, 78, 79
4, 5080, Note_on_c, 2, 78, 0
4, 5088, Note_on_c, 2, 83, 79
4, 5104, Note_on_c, 2, 83, 0
4, 5112, Note_on_c, 2, 81, 79
4, 5128, Note_on_c, 2, 81, 0
4, 5136, Note_on_c, 2, 73, 79
4, 5152, Note_on_c, 2, 73, 0
4, 5160, Note_on_c, 2, 74, 79
4, 5176, Note_on_c, 2, 74, 0
4, 5184, Note_on_c, 2, 68, 79
4, 5200, Note_on_c, 2, 68, 0
4, 5208, Note_on_c, 2, 69, 79
4, 5224, Note_on_c, 2, 69, 0
4, 5232, Note_on_c, 2, 71, 79
4, 5248, Note_on_c, 2, 71, 0
4, 5256, Note_on_c, 2, 73, 79
4, 5272, Note_on_c, 2, 73, 0
4, 5280, Note_on_c, 2, 74, 79
4, 5288, Note_on_c, 2, 74, 0
4, 5292, Note_on_c, 2, 73, 79
4, 5300, Note_on_c, 2, 73, 0
4, 5304, Note_on_c, 2, 74, 79
4, 5312, Note_on_c, 2, 74, 0
4, 5316, Note_on_c, 2, 76, 79
4, 5324, Note_on_c, 2, 76, 0
4, 5328, Note_on_c, 2, 74, 79
4, 5336, Note_on_c, 2, 74, 0
4, 5340, Note_on_c, 2, 78, 79
4, 5348, Note_on_c, 2, 78, 0
4, 5352, Note_on_c, 2, 76, 79
4, 5360, Note_on_c, 2, 76, 0
4, 5364, Note_on_c, 2, 74, 79
4, 5372, Note_on_c, 2, 74, 0
4, 5376, Note_on_c, 2, 73, 79
4, 5392, Note_on_c, 2, 73, 0
4, 6000, Note_on_c, 2, 81, 95
4, 6096, Note_on_c, 2, 81, 0
4, 6096, Note_on_c, 2, 79, 95
4, 6144, Note_on_c, 2, 79, 0
4, 6192, Note_on_c, 2, 79, 95
4, 6288, Note_on_c, 2, 79, 0
4, 6288, Note_on_c, 2, 78, 95
4, 6336, Note_on_c, 2, 78, 0
4, 6384, Note_on_c, 2, 78, 95
4, 6480, Note_on_c, 2, 78, 0
4, 6480, Note_on_c, 2, 76, 95
4, 6504, Note_on_c, 2, 76, 0
4, 6504, Note_on_c, 2, 74, 95
4, 6528, Note_on_c, 2, 74, 0
4, 6528, Note_on_c, 2, 73, 95
4, 6576, Note_on_c, 2, 73, 0
4, 6576, Note_on_c, 2, 85, 95
4, 6672, Note_on_c, 2, 85, 0
4, 6672, Note_on_c, 2, 83, 95
4, 6696, Note_on_c, 2, 83, 0
4, 6696, Note_on_c, 2, 81, 95
4, 6720, Note_on_c, 2, 81, 0
4, 6720, Note_on_c, 2, 79, 95
4, 6864, Note_on_c, 2, 79, 0
4, 6864, Note_on_c, 2, 78, 95
4, 6888, Note_on_c, 2, 78, 0
4, 6888, Note_on_c, 2, 76, 95
4, 6912, Note_on_c, 2, 76, 0
4, 6912, Note_on_c, 2, 74, 95
4, 7008, Note_on_c, 2, 74, 0
4, 7032, Note_on_c, 2, 71, 95
4, 7056, Note_on_c, 2, 71, 0
4, 7056, Note_on_c, 2, 76, 95
4, 7068, Note_on_c, 2, 76, 0
4, 7068, Note_on_c, 2, 74, 95
4, 7080, Note_on_c, 2, 74, 0
4, 7080, Note_on_c, 2, 73, 95
4, 7092, Note_on_c, 2, 73, 0
4, 7092, Note_on_c, 2, 71, 95
4, 7104, Note_on_c, 2, 71, 0
4, 7104, Note_on_c, 2, 70, 95
4, 7128, Note_on_c, 2, 70, 0
4, 7128, Note_on_c, 2, 71, 95
4, 7134, Note_on_c, 2, 71, 0
4, 7134, Note_on_c, 2, 73, 95
4, 7140, Note_on_c, 2, 73, 0
4, 7140, Note_on_c, 2, 70, 95
4, 7146, Note_on_c, 2, 70, 0
4, 7146, Note_on_c, 2, 73, 95
4, 7152, Note_on_c, 2, 73, 0
4, 7152, Note_on_c, 2, 73, 95
4, 7224, Note_on_c, 2, 73, 0
4, 7224, Note_on_c, 2, 71, 95
4, 7236, Note_on_c, 2, 71, 0
4, 7236, Note_on_c, 2, 70, 95
4, 7248, Note_on_c, 2, 70, 0
4, 7248, Note_on_c, 2, 71, 95
4, 7296, Note_on_c, 2, 71, 0
4, 7332, Note_on_c, 2, 73, 95
4, 7344, Note_on_c, 2, 73, 0
4, 7344, Note_on_c, 2, 70, 95
4, 7380, Note_on_c, 2, 70, 0
4, 7380, Note_on_c, 2, 71, 95
4, 7392, Note_on_c, 2, 71, 0
4, 7392, Note_on_c, 2, 71, 95
4, 7424, Note_on_c, 2, 71, 0
4, 8088, Note_on_c, 2, 74, 95
4, 8112, Note_on_c, 2, 74, 0
4, 8112, Note_on_c, 2, 73, 95
4, 8136, Note_on_c, 2, 73, 0
4, 8136, Note_on_c, 2, 71, 95
4, 8160, Note_on_c, 2, 71, 0
4, 8160, Note_on_c, 2, 70, 95
4, 8208, Note_on_c, 2, 70, 0
4, 8232, Note_on_c, 2, 70, 95
4, 8256, Note_on_c, 2, 70, 0
4, 8256, Note_on_c, 2, 71, 95
4, 8268, Note_on_c, 2, 71, 0
4, 8268, Note_on_c, 2, 73, 95
4, 8280, Note_on_c, 2, 73, 0
4, 8280, Note_on_c, 2, 74, 95
4, 8316, Note_on_c, 2, 74, 0
4, 8316, Note_on_c, 2, 71, 95
4, 8328, Note_on_c, 2, 71, 0
4, 8328, Note_on_c, 2, 73, 95
4, 8340, Note_on_c, 2, 73, 0
4, 8340, Note_on_c, 2, 74, 95
4, 8352, Note_on_c, 2, 74, 0
4, 8352, Note_on_c, 2, 76, 95
4, 8400, Note_on_c, 2, 76, 0
4, 8412, Note_on_c, 2, 74, 95
4, 8424, Note_on_c, 2, 74, 0
4, 8424, Note_on_c, 2, 73, 95
4, 8436, Note_on_c, 2, 73, 0
4, 8436, Note_on_c, 2, 74, 95
4, 8448, Note_on_c, 2, 74, 0
4, 8448, Note_on_c, 2, 76, 95
4, 8472, Note_on_c, 2, 76, 0
4, 8472, Note_on_c, 2, 74, 95
4, 8496, Note_on_c, 2, 74, 0
4, 8496, Note_on_c, 2, 73, 95
4, 8520, Note_on_c, 2, 73, 0
4, 8520, Note_on_c, 2, 71, 95
4, 8544, Note_on_c, 2, 71, 0
4, 8544, Note_on_c, 2, 69, 95
4, 8640, Note_on_c, 2, 69, 0
4, 8664, Note_on_c, 2, 83, 95
4, 8688, Note_on_c, 2, 83, 0
4, 8688, Note_on_c, 2, 81, 95
4, 8712, Note_on_c, 2, 81, 0
4, 8712, Note_on_c, 2, 79, 95
4, 8736, Note_on_c, 2, 79, 0
4, 8736, Note_on_c, 2, 78, 95
4, 8748, Note_on_c, 2, 78, 0
4, 8748, Note_on_c, 2, 79, 95
4, 8760, Note_on_c, 2, 79, 0
4, 8760, Note_on_c, 2, 81, 95
4, 8796, Note_on_c, 2, 81, 0
4, 8796, Note_on_c, 2, 78, 95
4, 8808, Note_on_c, 2, 78, 0
4, 8808, Note_on_c, 2, 79, 95
4, 8820, Note_on_c, 2, 79, 0
4, 8820, Note_on_c, 2, 81, 95
4, 8832, Note_on_c, 2, 81, 0
4, 8832, Note_on_c, 2, 83, 95
4, 8880, Note_on_c, 2, 83, 0
4, 8904, Note_on_c, 2, 83, 95
4, 8928, Note_on_c, 2, 83, 0
4, 8928, Note_on_c, 2, 83, 95
4, 8940, Note_on_c, 2, 83, 0
4, 8940, Note_on_c, 2, 79, 95
4, 8952, Note_on_c, 2, 79, 0
4, 8952, Note_on_c, 2, 81, 95
4, 8960, Note_on_c, 2, 81, 0
4, 9000, Note_on_c, 2, 81, 95
4, 9024, Note_on_c, 2, 81, 0
4, 9024, Note_on_c, 2, 81, 95
4, 9036, Note_on_c, 2, 81, 0
4, 9036, Note_on_c, 2, 78, 95
4, 9048, Note_on_c, 2, 78, 0
4, 9048, Note_on_c, 2, 79, 95
4, 9056, Note_on_c, 2, 79, 0
4, 9096, Note_on_c, 2, 79, 95
4, 9120, Note_on_c, 2, 79, 0
4, 9120, Note_on_c, 2, 79, 95
4, 9132, Note_on_c, 2, 79, 0
4, 9132, Note_on_c, 2, 76, 95
4, 9144, Note_on_c, 2, 76, 0
4, 9144, Note_on_c, 2, 78, 95
4, 9156, Note_on_c, 2, 78, 0
4, 9156, Note_on_c, 2, 79, 95
4, 9168, Note_on_c, 2, 79, 0
4, 9168, Note_on_c, 2, 78, 95
4, 9180, Note_on_c, 2, 78, 0
4, 9180, Note_on_c, 2, 81, 95
4, 9192, Note_on_c, 2, 81, 0
4, 9192, Note_on_c, 2, 79, 95
4, 9204, Note_on_c, 2, 79, 0
4, 9204, Note_on_c, 2, 78, 95
4, 9216, Note_on_c, 2, 78, 0
4, 9216, Note_on_c, 2, 76, 95
4, 9240, Note_on_c, 2, 76, 0
4, 9240, Note_on_c, 2, 81, 95
4, 9264, Note_on_c, 2, 81, 0
4, 9288, Note_on_c, 2, 73, 95
4, 9312, Note_on_c, 2, 73, 0
4, 9312, Note_on_c, 2, 74, 95
4, 9324, Note_on_c, 2, 74, 0
4, 9324, Note_on_c, 2, 73, 95
4, 9336, Note_on_c, 2, 73, 0
4, 9336, Note_on_c, 2, 74, 95
4, 9348, Note_on_c, 2, 74, 0
4, 9348, Note_on_c, 2, 76, 95
4, 9360, Note_on_c, 2, 76, 0
4, 9360, Note_on_c, 2, 74, 95
4, 9372, Note_on_c, 2, 74, 0
4, 9372, Note_on_c, 2, 78, 95
4, 9384, Note_on_c, 2, 78, 0
4, 9384, Note_on_c, 2, 76, 95
4, 9396, Note_on_c, 2, 76, 0
4, 9396, Note_on_c, 2, 74, 95
4, 9408, Note_on_c, 2, 74, 0
4, 9408, Note_on_c, 2, 73, 95
4, 9432, Note_on_c, 2, 73, 0
4, 9432, Note_on_c, 2, 76, 95
4, 9456, Note_on_c, 2, 76, 0
4, 9456, Note_on_c, 2, 81, 95
4, 9600, Note_on_c, 2, 81, 0
4, 9600, Note_on_c, 2, 81, 95
4, 9624, Note_on_c, 2, 81, 0
4, 9624, Note_on_c, 2, 74, 95
4, 9648, Note_on_c, 2, 74, 0
4, 9648, Note_on_c, 2, 79, 95
4, 9792, Note_on_c, 2, 79, 0
4, 9792, Note_on_c, 2, 79, 95
4, 9804, Note_on_c, 2, 79, 0
4, 9804, Note_on_c, 2, 83, 95
4, 9816, Note_on_c, 2, 83, 0
4, 9816, Note_on_c, 2, 81, 95
4, 9828, Note_on_c, 2, 81, 0
4, 9828, Note_on_c, 2, 79, 95
4, 9840, Note_on_c, 2, 79, 0
4, 9840, Note_on_c, 2, 78, 95
4, 9852, Note_on_c, 2, 78, 0
4, 9852, Note_on_c, 2, 76, 95
4, 9864, Note_on_c, 2, 76, 0
4, 9864, Note_on_c, 2, 74, 95
4, 9876, Note_on_c, 2, 74, 0
4, 9876, Note_on_c, 2, 73, 95
4, 9888, Note_on_c, 2, 73, 0
4, 9888, Note_on_c, 2, 74, 95
4, 9912, Note_on_c, 2, 74, 0
4, 9912, Note_on_c, 2, 73, 95
4, 9936, Note_on_c, 2, 73, 0
4, 9936, Note_on_c, 2, 76, 95
4, 9960, Note_on_c, 2, 76, 0
4, 9960, Note_on_c, 2, 75, 95
4, 9984, Note_on_c, 2, 75, 0
4, 9984, Note_on_c, 2, 79, 95
4, 10032, Note_on_c, 2, 79, 0
4, 10056, Note_on_c, 2, 80, 95
4, 10080, Note_on_c, 2, 80, 0
4, 10080, Note_on_c, 2, 82, 95
4, 10104, Note_on_c, 2, 82, 0
4, 10104, Note_on_c, 2, 80, 95
4, 10128, Note_on_c, 2, 80, 0
4, 10128, Note_on_c, 2, 83, 95
4, 10152, Note_on_c, 2, 83, 0
4, 10152, Note_on_c, 2, 82, 95
4, 10176, Note_on_c, 2, 82, 0
4, 10176, Note_on_c, 2, 85, 95
4, 10200, Note_on_c, 2, 85, 0
4, 10200, Note_on_c, 2, 70, 95
4, 10224, Note_on_c, 2, 70, 0
4, 10224, Note_on_c, 2, 74, 95
4, 10368, Note_on_c, 2, 74, 0
4, 10368, Note_on_c, 2, 74, 95
4, 10392, Note_on_c, 2, 74, 0
4, 10392, Note_on_c, 2, 67, 95
4, 10416, Note_on_c, 2, 67, 0
4, 10416, Note_on_c, 2, 72, 95
4, 10560, Note_on_c, 2, 72, 0
4, 10560, Note_on_c, 2, 72, 95
4, 10572, Note_on_c, 2, 72, 0
4, 10572, Note_on_c, 2, 76, 95
4, 10584, Note_on_c, 2, 76, 0
4, 10584, Note_on_c, 2, 74, 95
4, 10596, Note_on_c, 2, 74, 0
4, 10596, Note_on_c, 2, 72, 95
4, 10608, Note_on_c, 2, 72, 0
4, 10608, Note_on_c, 2, 71, 95
4, 10620, Note_on_c, 2, 71, 0
4, 10620, Note_on_c, 2, 69, 95
4, 10632, Note_on_c, 2, 69, 0
4, 10632, Note_on_c, 2, 67, 95
4, 10644, Note_on_c, 2, 67, 0
4, 10644, Note_on_c, 2, 66, 95
4, 10656, Note_on_c, 2, 66, 0
4, 10656, Note_on_c, 2, 67, 95
4, 10848, Note_on_c, 2, 67, 0
4, 10848, Note_on_c, 2, 67, 95
4, 10872, Note_on_c, 2, 67, 0
4, 10872, Note_on_c, 2, 66, 95
4, 10896, Note_on_c, 2, 66, 0
4, 10896, Note_on_c, 2, 64, 95
4, 10920, Note_on_c, 2, 64, 0
4, 10920, Note_on_c, 2, 62, 95
4, 10944, Note_on_c, 2, 62, 0
4, 10944, Note_on_c, 2, 73, 95
4, 10950, Note_on_c, 2, 73, 0
4, 10950, Note_on_c, 2, 74, 95
4, 10956, Note_on_c, 2, 74, 0
4, 10956, Note_on_c, 2, 73, 95
4, 10962, Note_on_c, 2, 73, 0
4, 10962, Note_on_c, 2, 74, 95
4, 10968, Note_on_c, 2, 74, 0
4, 10968, Note_on_c, 2, 73, 95
4, 10974, Note_on_c, 2, 73, 0
4, 10974, Note_on_c, 2, 74, 95
4, 10980, Note_on_c, 2, 74, 0
4, 10980, Note_on_c, 2, 73, 95
4, 10986, Note_on_c, 2, 73, 0
4, 10986, Note_on_c, 2, 74, 95
4, 10992, Note_on_c, 2, 74, 0
4, 11496, Note_on_c, 2, 69, 95
4, 11508, Note_on_c, 2, 69, 0
4, 11508, Note_on_c, 2, 71, 95
4, 11520, Note_on_c, 2, 71, 0
4, 11520, Note_on_c, 2, 72, 95
4, 11528, Note_on_c, 2, 72, 0
4, 11532, Note_on_c, 2, 69, 95
4, 11540, Note_on_c, 2, 69, 0
4, 11544, Note_on_c, 2, 71, 95
4, 11552, Note_on_c, 2, 71, 0
4, 11556, Note_on_c, 2, 74, 95
4, 11564, Note_on_c, 2, 74, 0
4, 11568, Note_on_c, 2, 73, 95
4, 11576, Note_on_c, 2, 73, 0
4, 11580, Note_on_c, 2, 69, 95
4, 11588, Note_on_c, 2, 69, 0
4, 11592, Note_on_c, 2, 71, 95
4, 11600, Note_on_c, 2, 71, 0
4, 11604, Note_on_c, 2, 73, 95
4, 11612, Note_on_c, 2, 73, 0
4, 11616, Note_on_c, 2, 74, 95
4, 11624, Note_on_c, 2, 74, 0
4, 11628, Note_on_c, 2, 71, 95
4, 11636, Note_on_c, 2, 71, 0
4, 11640, Note_on_c, 2, 73, 95
4, 11648, Note_on_c, 2, 73, 0
4, 11652, Note_on_c, 2, 76, 95
4, 11660, Note_on_c, 2, 76, 0
4, 11664, Note_on_c, 2, 74, 95
4, 11672, Note_on_c, 2, 74, 0
4, 11676, Note_on_c, 2, 71, 95
4, 11684, Note_on_c, 2, 71, 0
4, 11688, Note_on_c, 2, 73, 95
4, 11696, Note_on_c, 2, 73, 0
4, 11700, Note_on_c, 2, 74, 95
4, 11708, Note_on_c, 2, 74, 0
4, 11712, Note_on_c, 2, 76, 95
4, 11720, Note_on_c, 2, 76, 0
4, 11724, Note_on_c, 2, 73, 95
4, 11732, Note_on_c, 2, 73, 0
4, 11736, Note_on_c, 2, 74, 95
4, 11744, Note_on_c, 2, 74, 0
4, 11748, Note_on_c, 2, 78, 95
4, 11756, Note_on_c, 2, 78, 0
4, 11760, Note_on_c, 2, 76, 95
4, 11768, Note_on_c, 2, 76, 0
4, 11772, Note_on_c, 2, 73, 95
4, 11780, Note_on_c, 2, 73, 0
4, 11784, Note_on_c, 2, 74, 95
4, 11792, Note_on_c, 2, 74, 0
4, 11796, Note_on_c, 2, 76, 95
4, 11804, Note_on_c, 2, 76, 0
4, 11808, Note_on_c, 2, 78, 95
4, 11832, Note_on_c, 2, 78, 0
4, 11832, Note_on_c, 2, 76, 95
4, 11856, Note_on_c, 2, 76, 0
4, 11856, Note_on_c, 2, 79, 95
4, 11880, Note_on_c, 2, 79, 0
4, 11880, Note_on_c, 2, 78, 95
4, 11904, Note_on_c, 2, 78, 0
4, 11904, Note_on_c, 2, 83, 95
4, 11928, Note_on_c, 2, 83, 0
4, 11928, Note_on_c, 2, 81, 95
4, 11952, Note_on_c, 2, 81, 0
4, 11952, Note_on_c, 2, 81, 95
4, 12096, Note_on_c, 2, 81, 0
4, 12096, Note_on_c, 2, 81, 95
4, 12106, Note_on_c, 2, 81, 0
4, 12108, Note_on_c, 2, 80, 95
4, 12118, Note_on_c, 2, 80, 0
4, 12120, Note_on_c, 2, 81, 95
4, 12130, Note_on_c, 2, 81, 0
4, 12132, Note_on_c, 2, 83, 95
4, 12142, Note_on_c, 2, 83, 0
4, 12144, Note_on_c, 2, 80, 95
4, 12149, Note_on_c, 2, 80, 0
4, 12150, Note_on_c, 2, 81, 95
4, 12155, Note_on_c, 2, 81, 0
4, 12156, Note_on_c, 2, 80, 95
4, 12161, Note_on_c, 2, 80, 0
4, 12162, Note_on_c, 2, 81, 95
4, 12167, Note_on_c, 2, 81, 0
4, 12168, Note_on_c, 2, 80, 95
4, 12173, Note_on_c, 2, 80, 0
4, 12174, Note_on_c, 2, 81, 95
4, 12179, Note_on_c, 2, 81, 0
4, 12180, Note_on_c, 2, 81, 95
4, 12190, Note_on_c, 2, 81, 0
4, 12192, Note_on_c, 2, 81, 95
4, 12232, Note_on_c, 2, 81, 0
4, 12312, Note_on_c, 2, 71, 95
4, 12332, Note_on_c, 2, 71, 0
4, 12336, Note_on_c, 2, 73, 95
4, 12360, Note_on_c, 2, 73, 0
4, 12360, Note_on_c, 2, 71, 95
4, 12384, Note_on_c, 2, 71, 0
4, 12384, Note_on_c, 2, 74, 95
4, 12408, Note_on_c, 2, 74, 0
4, 12408, Note_on_c, 2, 73, 95
4, 12432, Note_on_c, 2, 73, 0
4, 12432, Note_on_c, 2, 78, 95
4, 12456, Note_on_c, 2, 78, 0
4, 12456, Note_on_c, 2, 76, 95
4, 12480, Note_on_c, 2, 76, 0
4, 12480, Note_on_c, 2, 81, 95
4, 12576, Note_on_c, 2, 81, 0
4, 12576, Note_on_c, 2, 81, 95
4, 12600, Note_on_c, 2, 81, 0
4, 12600, Note_on_c, 2, 80, 95
4, 12624, Note_on_c, 2, 80, 0
4, 12624, Note_on_c, 2, 83, 95
4, 12648, Note_on_c, 2, 83, 0
4, 12648, Note_on_c, 2, 81, 95
4, 12672, Note_on_c, 2, 81, 0
4, 12672, Note_on_c, 2, 86, 95
4, 12696, Note_on_c, 2, 86, 0
4, 12696, Note_on_c, 2, 85, 95
4, 12720, Note_on_c, 2, 85, 0
4, 12720, Note_on_c, 2, 83, 95
4, 12744, Note_on_c, 2, 83, 0
4, 12744, Note_on_c, 2, 81, 95
4, 12754, Note_on_c, 2, 81, 0
4, 12756, Note_on_c, 2, 80, 95
4, 12766, Note_on_c, 2, 80, 0
4, 12768, Note_on_c, 2, 81, 95
4, 12778, Note_on_c, 2, 81, 0
4, 12780, Note_on_c, 2, 78, 95
4, 12790, Note_on_c, 2, 78, 0
4, 12792, Note_on_c, 2, 80, 95
4, 12802, Note_on_c, 2, 80, 0
4, 12804, Note_on_c, 2, 81, 95
4, 12814, Note_on_c, 2, 81, 0
4, 12816, Note_on_c, 2, 78, 95
4, 12856, Note_on_c, 2, 78, 0
4, 12876, Note_on_c, 2, 76, 95
4, 12886, Note_on_c, 2, 76, 0
4, 12888, Note_on_c, 2, 78, 95
4, 12898, Note_on_c, 2, 78, 0
4, 12900, Note_on_c, 2, 80, 95
4, 12910, Note_on_c, 2, 80, 0
4, 12912, Note_on_c, 2, 76, 95
4, 12922, Note_on_c, 2, 76, 0
4, 12924, Note_on_c, 2, 80, 95
4, 12934, Note_on_c, 2, 80, 0
4, 12936, Note_on_c, 2, 78, 95
4, 12946, Note_on_c, 2, 78, 0
4, 12948, Note_on_c, 2, 80, 95
4, 12958, Note_on_c, 2, 80, 0
4, 12960, Note_on_c, 2, 81, 95
4, 13056, Note_on_c, 2, 81, 0
4, 13068, Note_on_c, 2, 85, 95
4, 13078, Note_on_c, 2, 85, 0
4, 13080, Note_on_c, 2, 83, 95
4, 13090, Note_on_c, 2, 83, 0
4, 13092, Note_on_c, 2, 81, 95
4, 13102, Note_on_c, 2, 81, 0
4, 13104, Note_on_c, 2, 80, 95
4, 13114, Note_on_c, 2, 80, 0
4, 13116, Note_on_c, 2, 78, 95
4, 13126, Note_on_c, 2, 78, 0
4, 13128, Note_on_c, 2, 77, 95
4, 13138, Note_on_c, 2, 77, 0
4, 13140, Note_on_c, 2, 80, 95
4, 13150, Note_on_c, 2, 80, 0
4, 13152, Note_on_c, 2, 73, 95
4, 13232, Note_on_c, 2, 73, 0
4, 13260, Note_on_c, 2, 76, 95
4, 13270, Note_on_c, 2, 76, 0
4, 13272, Note_on_c, 2, 74, 95
4, 13282, Note_on_c, 2, 74, 0
4, 13284, Note_on_c, 2, 73, 95
4, 13294, Note_on_c, 2, 73, 0
4, 13296, Note_on_c, 2, 71, 95
4, 13306, Note_on_c, 2, 71, 0
4, 13308, Note_on_c, 2, 69, 95
4, 13318, Note_on_c, 2, 69, 0
4, 13320, Note_on_c, 2, 68, 95
4, 13330, Note_on_c, 2, 68, 0
4, 13332, Note_on_c, 2, 71, 95
4, 13342, Note_on_c, 2, 71, 0
4, 13344, Note_on_c, 2, 65, 95
4, 13384, Note_on_c, 2, 65, 0
4, 13416, Note_on_c, 2, 73, 63
4, 13436, Note_on_c, 2, 73, 0
4, 13440, Note_on_c, 2, 73, 63
4, 13476, Note_on_c, 2, 73, 0
4, 13476, Note_on_c, 2, 74, 63
4, 13488, Note_on_c, 2, 74, 0
4, 13488, Note_on_c, 2, 73, 63
4, 13500, Note_on_c, 2, 73, 0
4, 13500, Note_on_c, 2, 78, 63
4, 13512, Note_on_c, 2, 78, 0
4, 13512, Note_on_c, 2, 77, 63
4, 13524, Note_on_c, 2, 77, 0
4, 13524, Note_on_c, 2, 78, 63
4, 13536, Note_on_c, 2, 78, 0
4, 13536, Note_on_c, 2, 73, 63
4, 13572, Note_on_c, 2, 73, 0
4, 13572, Note_on_c, 2, 74, 63
4, 13584, Note_on_c, 2, 74, 0
4, 13584, Note_on_c, 2, 73, 63
4, 13596, Note_on_c, 2, 73, 0
4, 13596, Note_on_c, 2, 78, 63
4, 13608, Note_on_c, 2, 78, 0
4, 13608, Note_on_c, 2, 77, 63
4, 13620, Note_on_c, 2, 77, 0
4, 13620, Note_on_c, 2, 78, 63
4, 13632, Note_on_c, 2, 78, 0
4, 13632, Note_on_c, 2, 74, 63
4, 13656, Note_on_c, 2, 74, 0
4, 13680, Note_on_c, 2, 74, 63
4, 13704, Note_on_c, 2, 74, 0
4, 13728, Note_on_c, 2, 74, 63
4, 13752, Note_on_c, 2, 74, 0
4, 13776, Note_on_c, 2, 74, 63
4, 13800, Note_on_c, 2, 74, 0
4, 13824, Note_on_c, 2, 71, 63
4, 13860, Note_on_c, 2, 71, 0
4, 13860, Note_on_c, 2, 73, 63
4, 13872, Note_on_c, 2, 73, 0
4, 13872, Note_on_c, 2, 71, 63
4, 13884, Note_on_c, 2, 71, 0
4, 13884, Note_on_c, 2, 78, 63
4, 13896, Note_on_c, 2, 78, 0
4, 13896, Note_on_c, 2, 77, 63
4, 13908, Note_on_c, 2, 77, 0
4, 13908, Note_on_c, 2, 78, 63
4, 13920, Note_on_c, 2, 78, 0
4, 13920, Note_on_c, 2, 71, 63
4, 13956, Note_on_c, 2, 71, 0
4, 13956, Note_on_c, 2, 73, 63
4, 13968, Note_on_c, 2, 73, 0
4, 13968, Note_on_c, 2, 71, 63
4, 13980, Note_on_c, 2, 71, 0
4, 13980, Note_on_c, 2, 78, 63
4, 13992, Note_on_c, 2, 78, 0
4, 13992, Note_on_c, 2, 77, 63
4, 14004, Note_on_c, 2, 77, 0
4, 14004, Note_on_c, 2, 78, 63
4, 14016, Note_on_c, 2, 78, 0
4, 14016, Note_on_c, 2, 69, 63
4, 14040, Note_on_c, 2, 69, 0
4, 14064, Note_on_c, 2, 73, 63
4, 14088, Note_on_c, 2, 73, 0
4, 14112, Note_on_c, 2, 73, 63
4, 14136, Note_on_c, 2, 73, 0
4, 14160, Note_on_c, 2, 73, 63
4, 14184, Note_on_c, 2, 73, 0
4, 14208, Note_on_c, 2, 69, 63
4, 14244, Note_on_c, 2, 69, 0
4, 14244, Note_on_c, 2, 71, 63
4, 14256, Note_on_c, 2, 71, 0
4, 14256, Note_on_c, 2, 69, 63
4, 14268, Note_on_c, 2, 69, 0
4, 14268, Note_on_c, 2, 78, 63
4, 14280, Note_on_c, 2, 78, 0
4, 14280, Note_on_c, 2, 77, 63
4, 14292, Note_on_c, 2, 77, 0
4, 14292, Note_on_c, 2, 78, 63
4, 14304, Note_on_c, 2, 78, 0
4, 14304, Note_on_c, 2, 69, 63
4, 14340, Note_on_c, 2, 69, 0
4, 14340, Note_on_c, 2, 71, 63
4, 14352, Note_on_c, 2, 71, 0
4, 14352, Note_on_c, 2, 69, 63
4, 14364, Note_on_c, 2, 69, 0
4, 14364, Note_on_c, 2, 78, 63
4, 14376, Note_on_c, 2, 78, 0
4, 14376, Note_on_c, 2, 77, 63
4, 14388, Note_on_c, 2, 77, 0
4, 14388, Note_on_c, 2, 78, 63
4, 14400, Note_on_c, 2, 78, 0
4, 14400, Note_on_c, 2, 68, 63
4, 14424, Note_on_c, 2, 68, 0
4, 14448, Note_on_c, 2, 68, 63
4, 14472, Note_on_c, 2, 68, 0
4, 14496, Note_on_c, 2, 68, 63
4, 14520, Note_on_c, 2, 68, 0
4, 14544, Note_on_c, 2, 68, 63
4, 14568, Note_on_c, 2, 68, 0
4, 14592, Note_on_c, 2, 76, 63
4, 14628, Note_on_c, 2, 76, 0
4, 14628, Note_on_c, 2, 78, 63
4, 14640, Note_on_c, 2, 78, 0
4, 14640, Note_on_c, 2, 76, 63
4, 14652, Note_on_c, 2, 76, 0
4, 14652, Note_on_c, 2, 81, 63
4, 14664, Note_on_c, 2, 81, 0
4, 14664, Note_on_c, 2, 80, 63
4, 14676, Note_on_c, 2, 80, 0
4, 14676, Note_on_c, 2, 81, 63
4, 14688, Note_on_c, 2, 81, 0
4, 14688, Note_on_c, 2, 76, 63
4, 14724, Note_on_c, 2, 76, 0
4, 14724, Note_on_c, 2, 78, 63
4, 14736, Note_on_c, 2, 78, 0
4, 14736, Note_on_c, 2, 76, 63
4, 14748, Note_on_c, 2, 76, 0
4, 14748, Note_on_c, 2, 81, 63
4, 14760, Note_on_c, 2, 81, 0
4, 14760, Note_on_c, 2, 80, 63
4, 14772, Note_on_c, 2, 80, 0
4, 14772, Note_on_c, 2, 81, 63
4, 14784, Note_on_c, 2, 81, 0
4, 14784, Note_on_c, 2, 78, 63
4, 14808, Note_on_c, 2, 78, 0
4, 14832, Note_on_c, 2, 78, 63
4, 14856, Note_on_c, 2, 78, 0
4, 14880, Note_on_c, 2, 78, 63
4, 14904, Note_on_c, 2, 78, 0
4, 14928, Note_on_c, 2, 78, 63
4, 14952, Note_on_c, 2, 78, 0
4, 14976, Note_on_c, 2, 74, 63
4, 15012, Note_on_c, 2, 74, 0
4, 15012, Note_on_c, 2, 76, 63
4, 15024, Note_on_c, 2, 76, 0
4, 15024, Note_on_c, 2, 74, 63
4, 15036, Note_on_c, 2, 74, 0
4, 15036, Note_on_c, 2, 83, 63
4, 15048, Note_on_c, 2, 83, 0
4, 15048, Note_on_c, 2, 81, 63
4, 15060, Note_on_c, 2, 81, 0
4, 15060, Note_on_c, 2, 83, 63
4, 15072, Note_on_c, 2, 83, 0
4, 15072, Note_on_c, 2, 74, 63
4, 15108, Note_on_c, 2, 74, 0
4, 15108, Note_on_c, 2, 76, 63
4, 15120, Note_on_c, 2, 76, 0
4, 15120, Note_on_c, 2, 74, 63
4, 15132, Note_on_c, 2, 74, 0
4, 15132, Note_on_c, 2, 83, 63
4, 15144, Note_on_c, 2, 83, 0
4, 15144, Note_on_c, 2, 81, 63
4, 15156, Note_on_c, 2, 81, 0
4, 15156, Note_on_c, 2, 83, 63
4, 15168, Note_on_c, 2, 83, 0
4, 15168, Note_on_c, 2, 73, 63
4, 15192, Note_on_c, 2, 73, 0
4, 15216, Note_on_c, 2, 73, 63
4, 15240, Note_on_c, 2, 73, 0
4, 15264, Note_on_c, 2, 73, 63
4, 15288, Note_on_c, 2, 73, 0
4, 15312, Note_on_c, 2, 73, 63
4, 15336, Note_on_c, 2, 73, 0
4, 15384, Note_on_c, 2, 73, 63
4, 15408, Note_on_c, 2, 73, 0
4, 15408, Note_on_c, 2, 69, 63
4, 15432, Note_on_c, 2, 69, 0
4, 15432, Note_on_c, 2, 66, 63
4, 15456, Note_on_c, 2, 66, 0
4, 15480, Note_on_c, 2, 81, 63
4, 15504, Note_on_c, 2, 81, 0
4, 15504, Note_on_c, 2, 78, 63
4, 15528, Note_on_c, 2, 78, 0
4, 15528, Note_on_c, 2, 75, 63
4, 15552, Note_on_c, 2, 75, 0
4, 15576, Note_on_c, 2, 78, 63
4, 15600, Note_on_c, 2, 78, 0
4, 15600, Note_on_c, 2, 75, 63
4, 15624, Note_on_c, 2, 75, 0
4, 15624, Note_on_c, 2, 71, 63
4, 15648, Note_on_c, 2, 71, 0
4, 15672, Note_on_c, 2, 75, 63
4, 15696, Note_on_c, 2, 75, 0
4, 15696, Note_on_c, 2, 71, 63
4, 15720, Note_on_c, 2, 71, 0
4, 15720, Note_on_c, 2, 68, 63
4, 15744, Note_on_c, 2, 68, 0
4, 15768, Note_on_c, 2, 71, 63
4, 15792, Note_on_c, 2, 71, 0
4, 15792, Note_on_c, 2, 68, 63
4, 15816, Note_on_c, 2, 68, 0
4, 15816, Note_on_c, 2, 64, 63
4, 15840, Note_on_c, 2, 64, 0
4, 15864, Note_on_c, 2, 80, 63
4, 15888, Note_on_c, 2, 80, 0
4, 15888, Note_on_c, 2, 76, 63
4, 15912, Note_on_c, 2, 76, 0
4, 15912, Note_on_c, 2, 73, 63
4, 15936, Note_on_c, 2, 73, 0
4, 15960, Note_on_c, 2, 76, 63
4, 15984, Note_on_c, 2, 76, 0
4, 15984, Note_on_c, 2, 73, 63
4, 16008, Note_on_c, 2, 73, 0
4, 16008, Note_on_c, 2, 69, 63
4, 16032, Note_on_c, 2, 69, 0
4, 16056, Note_on_c, 2, 73, 63
4, 16080, Note_on_c, 2, 73, 0
4, 16080, Note_on_c, 2, 69, 63
4, 16104, Note_on_c, 2, 69, 0
4, 16104, Note_on_c, 2, 66, 63
4, 16128, Note_on_c, 2, 66, 0
4, 16152, Note_on_c, 2, 69, 63
4, 16176, Note_on_c, 2, 69, 0
4, 16176, Note_on_c, 2, 66, 63
4, 16200, Note_on_c, 2, 66, 0
4, 16200, Note_on_c, 2, 62, 63
4, 16224, Note_on_c, 2, 62, 0
4, 16248, Note_on_c, 2, 78, 63
4, 16272, Note_on_c, 2, 78, 0
4, 16272, Note_on_c, 2, 74, 63
4, 16296, Note_on_c, 2, 74, 0
4, 16296, Note_on_c, 2, 71, 63
4, 16320, Note_on_c, 2, 71, 0
4, 16344, Note_on_c, 2, 74, 63
4, 16368, Note_on_c, 2, 74, 0
4, 16368, Note_on_c, 2, 71, 63
4, 16392, Note_on_c, 2, 71, 0
4, 16392, Note_on_c, 2, 68, 63
4, 16416, Note_on_c, 2, 68, 0
4, 16440, Note_on_c, 2, 71, 63
4, 16464, Note_on_c, 2, 71, 0
4, 16464, Note_on_c, 2, 68, 63
4, 16488, Note_on_c, 2, 68, 0
4, 16488, Note_on_c, 2, 64, 63
4, 16512, Note_on_c, 2, 64, 0
4, 16536, Note_on_c, 2, 80, 63
4, 16560, Note_on_c, 2, 80, 0
4, 16560, Note_on_c, 2, 76, 63
4, 16584, Note_on_c, 2, 76, 0
4, 16584, Note_on_c, 2, 73, 63
4, 16608, Note_on_c, 2, 73, 0
4, 16632, Note_on_c, 2, 76, 63
4, 16656, Note_on_c, 2, 76, 0
4, 16656, Note_on_c, 2, 73, 63
4, 16680, Note_on_c, 2, 73, 0
4, 16680, Note_on_c, 2, 69, 63
4, 16704, Note_on_c, 2, 69, 0
4, 16728, Note_on_c, 2, 73, 63
4, 16752, Note_on_c, 2, 73, 0
4, 16752, Note_on_c, 2, 69, 63
4, 16776, Note_on_c, 2, 69, 0
4, 16776, Note_on_c, 2, 66, 63
4, 16800, Note_on_c, 2, 66, 0
4, 16824, Note_on_c, 2, 69, 63
4, 16848, Note_on_c, 2, 69, 0
4, 16848, Note_on_c, 2, 66, 63
4, 16872, Note_on_c, 2, 66, 0
4, 16872, Note_on_c, 2, 62, 63
4, 16896, Note_on_c, 2, 62, 0
4, 16920, Note_on_c, 2, 78, 63
4, 16944, Note_on_c, 2, 78, 0
4, 16944, Note_on_c, 2, 74, 63
4, 16968, Note_on_c, 2, 74, 0
4, 16968, Note_on_c, 2, 71, 63
4, 16992, Note_on_c, 2, 71, 0
4, 17016, Note_on_c, 2, 74, 63
4, 17040, Note_on_c, 2, 74, 0
4, 17040, Note_on_c, 2, 71, 63
4, 17064, Note_on_c, 2, 71, 0
4, 17064, Note_on_c, 2, 68, 63
4, 17088, Note_on_c, 2, 68, 0
4, 17112, Note_on_c, 2, 71, 63
4, 17136, Note_on_c, 2, 71, 0
4, 17136, Note_on_c, 2, 68, 63
4, 17160, Note_on_c, 2, 68, 0
4, 17160, Note_on_c, 2, 64, 63
4, 17184, Note_on_c, 2, 64, 0
4, 17208, Note_on_c, 2, 80, 63
4, 17232, Note_on_c, 2, 80, 0
4, 17232, Note_on_c, 2, 76, 63
4, 17256, Note_on_c, 2, 76, 0
4, 17256, Note_on_c, 2, 73, 63
4, 17280, Note_on_c, 2, 73, 0
4, 17304, Note_on_c, 2, 76, 63
4, 17328, Note_on_c, 2, 76, 0
4, 17328, Note_on_c, 2, 73, 63
4, 17352, Note_on_c, 2, 73, 0
4, 17352, Note_on_c, 2, 69, 63
4, 17376, Note_on_c, 2, 69, 0
4, 17400, Note_on_c, 2, 73, 63
4, 17424, Note_on_c, 2, 73, 0
4, 17424, Note_on_c, 2, 69, 63
4, 17448, Note_on_c, 2, 69, 0
4, 17448, Note_on_c, 2, 66, 63
4, 17472, Note_on_c, 2, 66, 0
4, 17496, Note_on_c, 2, 69, 63
4, 17520, Note_on_c, 2, 69, 0
4, 17520, Note_on_c, 2, 66, 63
4, 17544, Note_on_c, 2, 66, 0
4, 17544, Note_on_c, 2, 62, 63
4, 17568, Note_on_c, 2, 62, 0
4, 17592, Note_on_c, 2, 78, 63
4, 17616, Note_on_c, 2, 78, 0
4, 17616, Note_on_c, 2, 74, 63
4, 17640, Note_on_c, 2, 74, 0
4, 17640, Note_on_c, 2, 71, 63
4, 17664, Note_on_c, 2, 71, 0
4, 17664, Note_on_c, 2, 68, 63
4, 17704, Note_on_c, 2, 68, 0
4, 17856, Note_on_c, 2, 69, 63
4, 17896, Note_on_c, 2, 69, 0
4, 18048, Note_on_c, 2, 77, 63
4, 18053, Note_on_c, 2, 77, 0
4, 18054, Note_on_c, 2, 79, 63
4, 18059, Note_on_c, 2, 79, 0
4, 18060, Note_on_c, 2, 77, 63
4, 18065, Note_on_c, 2, 77, 0
4, 18066, Note_on_c, 2, 79, 63
4, 18071, Note_on_c, 2, 79, 0
4, 18072, Note_on_c, 2, 77, 63
4, 18077, Note_on_c, 2, 77, 0
4, 18078, Note_on_c, 2, 79, 63
4, 18083, Note_on_c, 2, 79, 0
4, 18084, Note_on_c, 2, 77, 63
4, 18089, Note_on_c, 2, 77, 0
4, 18090, Note_on_c, 2, 79, 63
4, 18095, Note_on_c, 2, 79, 0
4, 18096, Note_on_c, 2, 77, 63
4, 18101, Note_on_c, 2, 77, 0
4, 18102, Note_on_c, 2, 79, 63
4, 18107, Note_on_c, 2, 79, 0
4, 18108, Note_on_c, 2, 77, 63
4, 18113, Note_on_c, 2, 77, 0
4, 18114, Note_on_c, 2, 79, 63
4, 18119, Note_on_c, 2, 79, 0
4, 18120, Note_on_c, 2, 77, 63
4, 18125, Note_on_c, 2, 77, 0
4, 18126, Note_on_c, 2, 79, 63
4, 18131, Note_on_c, 2, 79, 0
4, 18132, Note_on_c, 2, 77, 63
4, 18137, Note_on_c, 2, 77, 0
4, 18138, Note_on_c, 2, 79, 63
4, 18143, Note_on_c, 2, 79, 0
4, 18144, Note_on_c, 2, 77, 63
4, 18149, Note_on_c, 2, 77, 0
4, 18150, Note_on_c, 2, 79, 63
4, 18155, Note_on_c, 2, 79, 0
4, 18156, Note_on_c, 2, 77, 63
4, 18161, Note_on_c, 2, 77, 0
4, 18162, Note_on_c, 2, 79, 63
4, 18167, Note_on_c, 2, 79, 0
4, 18168, Note_on_c, 2, 77, 63
4, 18173, Note_on_c, 2, 77, 0
4, 18174, Note_on_c, 2, 79, 63
4, 18179, Note_on_c, 2, 79, 0
4, 18180, Note_on_c, 2, 77, 63
4, 18185, Note_on_c, 2, 77, 0
4, 18186, Note_on_c, 2, 79, 63
4, 18191, Note_on_c, 2, 79, 0
4, 18192, Note_on_c, 2, 77, 63
4, 18197, Note_on_c, 2, 77, 0
4, 18198, Note_on_c, 2, 79, 63
4, 18203, Note_on_c, 2, 79, 0
4, 18204, Note_on_c, 2, 77, 63
4, 18209, Note_on_c, 2, 77, 0
4, 18210, Note_on_c, 2, 79, 63
4, 18215, Note_on_c, 2, 79, 0
4, 18216, Note_on_c, 2, 77, 63
4, 18221, Note_on_c, 2, 77, 0
4, 18222, Note_on_c, 2, 79, 63
4, 18227, Note_on_c, 2, 79, 0
4, 18228, Note_on_c, 2, 77, 63
4, 18233, Note_on_c, 2, 77, 0
4, 18234, Note_on_c, 2, 79, 63
4, 18239, Note_on_c, 2, 79, 0
4, 18240, Note_on_c, 2, 78, 63
4, 18245, Note_on_c, 2, 78, 0
4, 18246, Note_on_c, 2, 79, 63
4, 18251, Note_on_c, 2, 79, 0
4, 18252, Note_on_c, 2, 78, 63
4, 18257, Note_on_c, 2, 78, 0
4, 18258, Note_on_c, 2, 79, 63
4, 18263, Note_on_c, 2, 79, 0
4, 18264, Note_on_c, 2, 78, 63
4, 18269, Note_on_c, 2, 78, 0
4, 18270, Note_on_c, 2, 79, 63
4, 18275, Note_on_c, 2, 79, 0
4, 18276, Note_on_c, 2, 78, 63
4, 18281, Note_on_c, 2, 78, 0
4, 18282, Note_on_c, 2, 79, 63
4, 18287, Note_on_c, 2, 79, 0
4, 18288, Note_on_c, 2, 78, 63
4, 18293, Note_on_c, 2, 78, 0
4, 18294, Note_on_c, 2, 79, 63
4, 18299, Note_on_c, 2, 79, 0
4, 18300, Note_on_c, 2, 78, 63
4, 18305, Note_on_c, 2, 78, 0
4, 18306, Note_on_c, 2, 79, 63
4, 18311, Note_on_c, 2, 79, 0
4, 18312, Note_on_c, 2, 78, 63
4, 18317, Note_on_c, 2, 78, 0
4, 18318, Note_on_c, 2, 79, 63
4, 18323, Note_on_c, 2, 79, 0
4, 18324, Note_on_c, 2, 78, 63
4, 18329, Note_on_c, 2, 78, 0
4, 18330, Note_on_c, 2, 79, 63
4, 18335, Note_on_c, 2, 79, 0
4, 18336, Note_on_c, 2, 78, 63
4, 18341, Note_on_c, 2, 78, 0
4, 18342, Note_on_c, 2, 79, 63
4, 18347, Note_on_c, 2, 79, 0
4, 18348, Note_on_c, 2, 78, 63
4, 18353, Note_on_c, 2, 78, 0
4, 18354, Note_on_c, 2, 79, 63
4, 18359, Note_on_c, 2, 79, 0
4, 18360, Note_on_c, 2, 78, 63
4, 18365, Note_on_c, 2, 78, 0
4, 18366, Note_on_c, 2, 79, 63
4, 18371, Note_on_c, 2, 79, 0
4, 18372, Note_on_c, 2, 78, 63
4, 18377, Note_on_c, 2, 78, 0
4, 18378, Note_on_c, 2, 79, 63
4, 18383, Note_on_c, 2, 79, 0
4, 18384, Note_on_c, 2, 78, 63
4, 18389, Note_on_c, 2, 78, 0
4, 18390, Note_on_c, 2, 79, 63
4, 18395, Note_on_c, 2, 79, 0
4, 18396, Note_on_c, 2, 78, 63
4, 18401, Note_on_c, 2, 78, 0
4, 18402, Note_on_c, 2, 79, 63
4, 18407, Note_on_c, 2, 79, 0
4, 18408, Note_on_c, 2, 78, 63
4, 18413, Note_on_c, 2, 78, 0
4, 18414, Note_on_c, 2, 79, 63
4, 18419, Note_on_c, 2, 79, 0
4, 18420, Note_on_c, 2, 78, 63
4, 18425, Note_on_c, 2, 78, 0
4, 18426, Note_on_c, 2, 79, 63
4, 18431, Note_on_c, 2, 79, 0
4, 18432, Note_on_c, 2, 80, 63
4, 18437, Note_on_c, 2, 80, 0
4, 18438, Note_on_c, 2, 81, 63
4, 18443, Note_on_c, 2, 81, 0
4, 18444, Note_on_c, 2, 80, 63
4, 18449, Note_on_c, 2, 80, 0
4, 18450, Note_on_c, 2, 81, 63
4, 18455, Note_on_c, 2, 81, 0
4, 18456, Note_on_c, 2, 80, 63
4, 18461, Note_on_c, 2, 80, 0
4, 18462, Note_on_c, 2, 81, 63
4, 18467, Note_on_c, 2, 81, 0
4, 18468, Note_on_c, 2, 80, 63
4, 18473, Note_on_c, 2, 80, 0
4, 18474, Note_on_c, 2, 81, 63
4, 18479, Note_on_c, 2, 81, 0
4, 18480, Note_on_c, 2, 80, 63
4, 18485, Note_on_c, 2, 80, 0
4, 18486, Note_on_c, 2, 81, 63
4, 18491, Note_on_c, 2, 81, 0
4, 18492, Note_on_c, 2, 80, 63
4, 18497, Note_on_c, 2, 80, 0
4, 18498, Note_on_c, 2, 81, 63
4, 18503, Note_on_c, 2, 81, 0
4, 18504, Note_on_c, 2, 80, 63
4, 18509, Note_on_c, 2, 80, 0
4, 18510, Note_on_c, 2, 81, 63
4, 18515, Note_on_c, 2, 81, 0
4, 18516, Note_on_c, 2, 80, 63
4, 18521, Note_on_c, 2, 80, 0
4, 18522, Note_on_c, 2, 81, 63
4, 18527, Note_on_c, 2, 81, 0
4, 18528, Note_on_c, 2, 80, 63
4, 18533, Note_on_c, 2, 80, 0
4, 18534, Note_on_c, 2, 81, 63
4, 18539, Note_on_c, 2, 81, 0
4, 18540, Note_on_c, 2, 80, 63
4, 18545, Note_on_c, 2, 80, 0
4, 18546, Note_on_c, 2, 81, 63
4, 18551, Note_on_c, 2, 81, 0
4, 18552, Note_on_c, 2, 80, 63
4, 18557, Note_on_c, 2, 80, 0
4, 18558, Note_on_c, 2, 81, 63
4, 18563, Note_on_c, 2, 81, 0
4, 18564, Note_on_c, 2, 80, 63
4, 18569, Note_on_c, 2, 80, 0
4, 18570, Note_on_c, 2, 81, 63
4, 18575, Note_on_c, 2, 81, 0
4, 18576, Note_on_c, 2, 80, 63
4, 18581, Note_on_c, 2, 80, 0
4, 18582, Note_on_c, 2, 81, 63
4, 18587, Note_on_c, 2, 81, 0
4, 18588, Note_on_c, 2, 80, 63
4, 18593, Note_on_c, 2, 80, 0
4, 18594, Note_on_c, 2, 81, 63
4, 18599, Note_on_c, 2, 81, 0
4, 18600, Note_on_c, 2, 80, 63
4, 18605, Note_on_c, 2, 80, 0
4, 18606, Note_on_c, 2, 81, 63
4, 18611, Note_on_c, 2, 81, 0
4, 18612, Note_on_c, 2, 80, 63
4, 18617, Note_on_c, 2, 80, 0
4, 18618, Note_on_c, 2, 81, 63
4, 18623, Note_on_c, 2, 81, 0
4, 18624, Note_on_c, 2, 81, 63
4, 18630, Note_on_c, 2, 81, 0
4, 18630, Note_on_c, 2, 83, 63
4, 18636, Note_on_c, 2, 83, 0
4, 18636, Note_on_c, 2, 81, 63
4, 18642, Note_on_c, 2, 81, 0
4, 18642, Note_on_c, 2, 83, 63
4, 18648, Note_on_c, 2, 83, 0
4, 18648, Note_on_c, 2, 81, 63
4, 18654, Note_on_c, 2, 81, 0
4, 18654, Note_on_c, 2, 83, 63
4, 18660, Note_on_c, 2, 83, 0
4, 18660, Note_on_c, 2, 81, 63
4, 18666, Note_on_c, 2, 81, 0
4, 18666, Note_on_c, 2, 83, 63
4, 18672, Note_on_c, 2, 83, 0
4, 18672, Note_on_c, 2, 81, 63
4, 18678, Note_on_c, 2, 81, 0
4, 18678, Note_on_c, 2, 83, 63
4, 18684, Note_on_c, 2, 83, 0
4, 18684, Note_on_c, 2, 81, 63
4, 18690, Note_on_c, 2, 81, 0
4, 18690, Note_on_c, 2, 83, 63
4, 18696, Note_on_c, 2, 83, 0
4, 18696, Note_on_c, 2, 81, 63
4, 18702, Note_on_c, 2, 81, 0
4, 18702, Note_on_c, 2, 83, 63
4, 18708, Note_on_c, 2, 83, 0
4, 18708, Note_on_c, 2, 81, 63
4, 18714, Note_on_c, 2, 81, 0
4, 18714, Note_on_c, 2, 83, 63
4, 18720, Note_on_c, 2, 83, 0
4, 18720, Note_on_c, 2, 81, 63
4, 18726, Note_on_c, 2, 81, 0
4, 18726, Note_on_c, 2, 83, 63
4, 18732, Note_on_c, 2, 83, 0
4, 18732, Note_on_c, 2, 81, 63
4, 18738, Note_on_c, 2, 81, 0
4, 18738, Note_on_c, 2, 83, 63
4, 18744, Note_on_c, 2, 83, 0
4, 18744, Note_on_c, 2, 81, 63
4, 18750, Note_on_c, 2, 81, 0
4, 18750, Note_on_c, 2, 83, 63
4, 18756, Note_on_c, 2, 83, 0
4, 18756, Note_on_c, 2, 81, 63
4, 18762, Note_on_c, 2, 81, 0
4, 18762, Note_on_c, 2, 83, 63
4, 18768, Note_on_c, 2, 83, 0
4, 18768, Note_on_c, 2, 81, 63
4, 18774, Note_on_c, 2, 81, 0
4, 18774, Note_on_c, 2, 83, 63
4, 18780, Note_on_c, 2, 83, 0
4, 18780, Note_on_c, 2, 81, 63
4, 18786, Note_on_c, 2, 81, 0
4, 18786, Note_on_c, 2, 83, 63
4, 18792, Note_on_c, 2, 83, 0
4, 18792, Note_on_c, 2, 81, 63
4, 18798, Note_on_c, 2, 81, 0
4, 18798, Note_on_c, 2, 83, 63
4, 18804, Note_on_c, 2, 83, 0
4, 18804, Note_on_c, 2, 81, 63
4, 18810, Note_on_c, 2, 81, 0
4, 18810, Note_on_c, 2, 83, 63
4, 18816, Note_on_c, 2, 83, 0
4, 18816, Note_on_c, 2, 81, 63
4, 18822, Note_on_c, 2, 81, 0
4, 18822, Note_on_c, 2, 83, 63
4, 18828, Note_on_c, 2, 83, 0
4, 18828, Note_on_c, 2, 81, 63
4, 18834, Note_on_c, 2, 81, 0
4, 18834, Note_on_c, 2, 83, 63
4, 18840, Note_on_c, 2, 83, 0
4, 18840, Note_on_c, 2, 81, 63
4, 18846, Note_on_c, 2, 81, 0
4, 18846, Note_on_c, 2, 83, 63
4, 18852, Note_on_c, 2, 83, 0
4, 18852, Note_on_c, 2, 81, 63
4, 18858, Note_on_c, 2, 81, 0
4, 18858, Note_on_c, 2, 83, 63
4, 18864, Note_on_c, 2, 83, 0
4, 18864, Note_on_c, 2, 81, 63
4, 18870, Note_on_c, 2, 81, 0
4, 18870, Note_on_c, 2, 83, 63
4, 18876, Note_on_c, 2, 83, 0
4, 18876, Note_on_c, 2, 81, 63
4, 18882, Note_on_c, 2, 81, 0
4, 18882, Note_on_c, 2, 83, 63
4, 18888, Note_on_c, 2, 83, 0
4, 18888, Note_on_c, 2, 81, 63
4, 18894, Note_on_c, 2, 81, 0
4, 18894, Note_on_c, 2, 83, 63
4, 18900, Note_on_c, 2, 83, 0
4, 18900, Note_on_c, 2, 81, 63
4, 18906, Note_on_c, 2, 81, 0
4, 18906, Note_on_c, 2, 83, 63
4, 18912, Note_on_c, 2, 83, 0
4, 18912, Note_on_c, 2, 81, 63
4, 18918, Note_on_c, 2, 81, 0
4, 18918, Note_on_c, 2, 83, 63
4, 18924, Note_on_c, 2, 83, 0
4, 18924, Note_on_c, 2, 81, 63
4, 18930, Note_on_c, 2, 81, 0
4, 18930, Note_on_c, 2, 83, 63
4, 18936, Note_on_c, 2, 83, 0
4, 18936, Note_on_c, 2, 81, 63
4, 18942, Note_on_c, 2, 81, 0
4, 18942, Note_on_c, 2, 83, 63
4, 18948, Note_on_c, 2, 83, 0
4, 18948, Note_on_c, 2, 81, 63
4, 18954, Note_on_c, 2, 81, 0
4, 18954, Note_on_c, 2, 83, 63
4, 18960, Note_on_c, 2, 83, 0
4, 18960, Note_on_c, 2, 81, 63
4, 18966, Note_on_c, 2, 81, 0
4, 18966, Note_on_c, 2, 83, 63
4, 18972, Note_on_c, 2, 83, 0
4, 18972, Note_on_c, 2, 81, 63
4, 18978, Note_on_c, 2, 81, 0
4, 18978, Note_on_c, 2, 83, 63
4, 18984, Note_on_c, 2, 83, 0
4, 18984, Note_on_c, 2, 81, 63
4, 18990, Note_on_c, 2, 81, 0
4, 18990, Note_on_c, 2, 83, 63
4, 18996, Note_on_c, 2, 83, 0
4, 18996, Note_on_c, 2, 81, 63
4, 19002, Note_on_c, 2, 81, 0
4, 19002, Note_on_c, 2, 83, 63
4, 19008, Note_on_c, 2, 83, 0
4, 19008, Note_on_c, 2, 80, 63
4, 19014, Note_on_c, 2, 80, 0
4, 19014, Note_on_c, 2, 81, 63
4, 19020, Note_on_c, 2, 81, 0
4, 19020, Note_on_c, 2, 80, 63
4, 19026, Note_on_c, 2, 80, 0
4, 19026, Note_on_c, 2, 81, 63
4, 19032, Note_on_c, 2, 81, 0
4, 19032, Note_on_c, 2, 80, 63
4, 19038, Note_on_c, 2, 80, 0
4, 19038, Note_on_c, 2, 81, 63
4, 19044, Note_on_c, 2, 81, 0
4, 19044, Note_on_c, 2, 80, 63
4, 19050, Note_on_c, 2, 80, 0
4, 19050, Note_on_c, 2, 81, 63
4, 19056, Note_on_c, 2, 81, 0
4, 19056, Note_on_c, 2, 80, 63
4, 19062, Note_on_c, 2, 80, 0
4, 19062, Note_on_c, 2, 81, 63
4, 19068, Note_on_c, 2, 81, 0
4, 19068, Note_on_c, 2, 80, 63
4, 19074, Note_on_c, 2, 80, 0
4, 19074, Note_on_c, 2, 81, 63
4, 19080, Note_on_c, 2, 81, 0
4, 19080, Note_on_c, 2, 80, 63
4, 19086, Note_on_c, 2, 80, 0
4, 19086, Note_on_c, 2, 81, 63
4, 19092, Note_on_c, 2, 81, 0
4, 19092, Note_on_c, 2, 80, 63
4, 19098, Note_on_c, 2, 80, 0
4, 19098, Note_on_c, 2, 81, 63
4, 19104, Note_on_c, 2, 81, 0
4, 19104, Note_on_c, 2, 80, 63
4, 19110, Note_on_c, 2, 80, 0
4, 19110, Note_on_c, 2, 81, 63
4, 19116, Note_on_c, 2, 81, 0
4, 19116, Note_on_c, 2, 80, 63
4, 19122, Note_on_c, 2, 80, 0
4, 19122, Note_on_c, 2, 81, 63
4, 19128, Note_on_c, 2, 81, 0
4, 19128, Note_on_c, 2, 80, 63
4, 19134, Note_on_c, 2, 80, 0
4, 19134, Note_on_c, 2, 81, 63
4, 19140, Note_on_c, 2, 81, 0
4, 19140, Note_on_c, 2, 80, 63
4, 19146, Note_on_c, 2, 80, 0
4, 19146, Note_on_c, 2, 81, 63
4, 19152, Note_on_c, 2, 81, 0
4, 19152, Note_on_c, 2, 80, 63
4, 19158, Note_on_c, 2, 80, 0
4, 19158, Note_on_c, 2, 81, 63
4, 19164, Note_on_c, 2, 81, 0
4, 19164, Note_on_c, 2, 80, 63
4, 19170, Note_on_c, 2, 80, 0
4, 19170, Note_on_c, 2, 81, 63
4, 19176, Note_on_c, 2, 81, 0
4, 19176, Note_on_c, 2, 80, 63
4, 19182, Note_on_c, 2, 80, 0
4, 19182, Note_on_c, 2, 81, 63
4, 19188, Note_on_c, 2, 81, 0
4, 19188, Note_on_c, 2, 80, 63
4, 19194, Note_on_c, 2, 80, 0
4, 19194, Note_on_c, 2, 81, 63
4, 19200, Note_on_c, 2, 81, 0
4, 19200, Note_on_c, 2, 81, 63
4, 19296, Note_on_c, 2, 81, 0
4, 19500, Note_on_c, 2, 71, 95
4, 19510, Note_on_c, 2, 71, 0
4, 19512, Note_on_c, 2, 73, 95
4, 19522, Note_on_c, 2, 73, 0
4, 19524, Note_on_c, 2, 74, 95
4, 19534, Note_on_c, 2, 74, 0
4, 19536, Note_on_c, 2, 76, 95
4, 19616, Note_on_c, 2, 76, 0
4, 19632, Note_on_c, 2, 74, 95
4, 19712, Note_on_c, 2, 74, 0
4, 19740, Note_on_c, 2, 73, 95
4, 19750, Note_on_c, 2, 73, 0
4, 19752, Note_on_c, 2, 74, 95
4, 19762, Note_on_c, 2, 74, 0
4, 19764, Note_on_c, 2, 76, 95
4, 19774, Note_on_c, 2, 76, 0
4, 19776, Note_on_c, 2, 78, 95
4, 19786, Note_on_c, 2, 78, 0
4, 19788, Note_on_c, 2, 66, 95
4, 19798, Note_on_c, 2, 66, 0
4, 19800, Note_on_c, 2, 68, 95
4, 19810, Note_on_c, 2, 68, 0
4, 19812, Note_on_c, 2, 69, 95
4, 19822, Note_on_c, 2, 69, 0
4, 19824, Note_on_c, 2, 71, 95
4, 19834, Note_on_c, 2, 71, 0
4, 19836, Note_on_c, 2, 73, 95
4, 19846, Note_on_c, 2, 73, 0
4, 19848, Note_on_c, 2, 74, 95
4, 19858, Note_on_c, 2, 74, 0
4, 19860, Note_on_c, 2, 71, 95
4, 19870, Note_on_c, 2, 71, 0
4, 19872, Note_on_c, 2, 76, 95
4, 19882, Note_on_c, 2, 76, 0
4, 19884, Note_on_c, 2, 64, 95
4, 19894, Note_on_c, 2, 64, 0
4, 19896, Note_on_c, 2, 66, 95
4, 19906, Note_on_c, 2, 66, 0
4, 19908, Note_on_c, 2, 68, 95
4, 19918, Note_on_c, 2, 68, 0
4, 19920, Note_on_c, 2, 69, 95
4, 20000, Note_on_c, 2, 69, 0
4, 20016, Note_on_c, 2, 68, 95
4, 20056, Note_on_c, 2, 68, 0
4, 20064, Note_on_c, 2, 69, 95
4, 20104, Note_on_c, 2, 69, 0
4, 20124, Note_on_c, 2, 69, 95
4, 20134, Note_on_c, 2, 69, 0
4, 20136, Note_on_c, 2, 71, 95
4, 20146, Note_on_c, 2, 71, 0
4, 20148, Note_on_c, 2, 73, 95
4, 20158, Note_on_c, 2, 73, 0
4, 20160, Note_on_c, 2, 74, 95
4, 20170, Note_on_c, 2, 74, 0
4, 20172, Note_on_c, 2, 69, 95
4, 20182, Note_on_c, 2, 69, 0
4, 20184, Note_on_c, 2, 71, 95
4, 20194, Note_on_c, 2, 71, 0
4, 20196, Note_on_c, 2, 76, 95
4, 20206, Note_on_c, 2, 76, 0
4, 20208, Note_on_c, 2, 74, 95
4, 20218, Note_on_c, 2, 74, 0
4, 20220, Note_on_c, 2, 78, 95
4, 20230, Note_on_c, 2, 78, 0
4, 20232, Note_on_c, 2, 76, 95
4, 20242, Note_on_c, 2, 76, 0
4, 20244, Note_on_c, 2, 74, 95
4, 20254, Note_on_c, 2, 74, 0
4, 20256, Note_on_c, 2, 73, 95
4, 20266, Note_on_c, 2, 73, 0
4, 20268, Note_on_c, 2, 69, 95
4, 20278, Note_on_c, 2, 69, 0
4, 20280, Note_on_c, 2, 71, 95
4, 20290, Note_on_c, 2, 71, 0
4, 20292, Note_on_c, 2, 74, 95
4, 20302, Note_on_c, 2, 74, 0
4, 20304, Note_on_c, 2, 73, 95
4, 20314, Note_on_c, 2, 73, 0
4, 20316, Note_on_c, 2, 76, 95
4, 20326, Note_on_c, 2, 76, 0
4, 20328, Note_on_c, 2, 74, 95
4, 20338, Note_on_c, 2, 74, 0
4, 20340, Note_on_c, 2, 73, 95
4, 20350, Note_on_c, 2, 73, 0
4, 20352, Note_on_c, 2, 71, 95
4, 20362, Note_on_c, 2, 71, 0
4, 20364, Note_on_c, 2, 67, 95
4, 20374, Note_on_c, 2, 67, 0
4, 20376, Note_on_c, 2, 69, 95
4, 20386, Note_on_c, 2, 69, 0
4, 20388, Note_on_c, 2, 72, 95
4, 20398, Note_on_c, 2, 72, 0
4, 20400, Note_on_c, 2, 71, 95
4, 20410, Note_on_c, 2, 71, 0
4, 20412, Note_on_c, 2, 74, 95
4, 20422, Note_on_c, 2, 74, 0
4, 20424, Note_on_c, 2, 73, 95
4, 20434, Note_on_c, 2, 73, 0
4, 20436, Note_on_c, 2, 71, 95
4, 20446, Note_on_c, 2, 71, 0
4, 20448, Note_on_c, 2, 69, 95
4, 20458, Note_on_c, 2, 69, 0
4, 20460, Note_on_c, 2, 66, 95
4, 20470, Note_on_c, 2, 66, 0
4, 20472, Note_on_c, 2, 67, 95
4, 20482, Note_on_c, 2, 67, 0
4, 20484, Note_on_c, 2, 71, 95
4, 20494, Note_on_c, 2, 71, 0
4, 20496, Note_on_c, 2, 69, 95
4, 20506, Note_on_c, 2, 69, 0
4, 20508, Note_on_c, 2, 73, 95
4, 20518, Note_on_c, 2, 73, 0
4, 20520, Note_on_c, 2, 71, 95
4, 20530, Note_on_c, 2, 71, 0
4, 20532, Note_on_c, 2, 69, 95
4, 20542, Note_on_c, 2, 69, 0
4, 20544, Note_on_c, 2, 67, 95
4, 20554, Note_on_c, 2, 67, 0
4, 20556, Note_on_c, 2, 64, 95
4, 20566, Note_on_c, 2, 64, 0
4, 20568, Note_on_c, 2, 66, 95
4, 20578, Note_on_c, 2, 66, 0
4, 20580, Note_on_c, 2, 69, 95
4, 20590, Note_on_c, 2, 69, 0
4, 20592, Note_on_c, 2, 67, 95
4, 20602, Note_on_c, 2, 67, 0
4, 20604, Note_on_c, 2, 71, 95
4, 20614, Note_on_c, 2, 71, 0
4, 20616, Note_on_c, 2, 69, 95
4, 20626, Note_on_c, 2, 69, 0
4, 20628, Note_on_c, 2, 67, 95
4, 20638, Note_on_c, 2, 67, 0
4, 20640, Note_on_c, 2, 66, 95
4, 20650, Note_on_c, 2, 66, 0
4, 20652, Note_on_c, 2, 62, 95
4, 20662, Note_on_c, 2, 62, 0
4, 20664, Note_on_c, 2, 64, 95
4, 20674, Note_on_c, 2, 64, 0
4, 20676, Note_on_c, 2, 67, 95
4, 20686, Note_on_c, 2, 67, 0
4, 20688, Note_on_c, 2, 66, 95
4, 20698, Note_on_c, 2, 66, 0
4, 20700, Note_on_c, 2, 69, 95
4, 20710, Note_on_c, 2, 69, 0
4, 20712, Note_on_c, 2, 67, 95
4, 20722, Note_on_c, 2, 67, 0
4, 20724, Note_on_c, 2, 66, 95
4, 20734, Note_on_c, 2, 66, 0
4, 20736, Note_on_c, 2, 67, 95
4, 20746, Note_on_c, 2, 67, 0
4, 20748, Note_on_c, 2, 64, 95
4, 20758, Note_on_c, 2, 64, 0
4, 20760, Note_on_c, 2, 66, 95
4, 20770, Note_on_c, 2, 66, 0
4, 20772, Note_on_c, 2, 69, 95
4, 20782, Note_on_c, 2, 69, 0
4, 20784, Note_on_c, 2, 67, 95
4, 20794, Note_on_c, 2, 67, 0
4, 20796, Note_on_c, 2, 71, 95
4, 20806, Note_on_c, 2, 71, 0
4, 20808, Note_on_c, 2, 69, 95
4, 20818, Note_on_c, 2, 69, 0
4, 20820, Note_on_c, 2, 67, 95
4, 20830, Note_on_c, 2, 67, 0
4, 20832, Note_on_c, 2, 66, 95
4, 20842, Note_on_c, 2, 66, 0
4, 20844, Note_on_c, 2, 62, 95
4, 20854, Note_on_c, 2, 62, 0
4, 20856, Note_on_c, 2, 64, 95
4, 20866, Note_on_c, 2, 64, 0
4, 20868, Note_on_c, 2, 67, 95
4, 20878, Note_on_c, 2, 67, 0
4, 20880, Note_on_c, 2, 66, 95
4, 20890, Note_on_c, 2, 66, 0
4, 20892, Note_on_c, 2, 69, 95
4, 20902, Note_on_c, 2, 69, 0
4, 20904, Note_on_c, 2, 67, 95
4, 20914, Note_on_c, 2, 67, 0
4, 20916, Note_on_c, 2, 66, 95
4, 20926, Note_on_c, 2, 66, 0
4, 20928, Note_on_c, 2, 64, 95
4, 20948, Note_on_c, 2, 64, 0
4, 21144, Note_on_c, 2, 78, 95
4, 21164, Note_on_c, 2, 78, 0
4, 21168, Note_on_c, 2, 76, 95
4, 21188, Note_on_c, 2, 76, 0
4, 21192, Note_on_c, 2, 74, 95
4, 21212, Note_on_c, 2, 74, 0
4, 21216, Note_on_c, 2, 73, 95
4, 21256, Note_on_c, 2, 73, 0
4, 21288, Note_on_c, 2, 73, 95
4, 21308, Note_on_c, 2, 73, 0
4, 21312, Note_on_c, 2, 74, 95
4, 21332, Note_on_c, 2, 74, 0
4, 21336, Note_on_c, 2, 69, 95
4, 21356, Note_on_c, 2, 69, 0
4, 21360, Note_on_c, 2, 74, 95
4, 21370, Note_on_c, 2, 74, 0
4, 21372, Note_on_c, 2, 76, 95
4, 21382, Note_on_c, 2, 76, 0
4, 21384, Note_on_c, 2, 78, 95
4, 21394, Note_on_c, 2, 78, 0
4, 21396, Note_on_c, 2, 79, 95
4, 21406, Note_on_c, 2, 79, 0
4, 21408, Note_on_c, 2, 81, 95
4, 21428, Note_on_c, 2, 81, 0
4, 21432, Note_on_c, 2, 73, 95
4, 21452, Note_on_c, 2, 73, 0
4, 21456, Note_on_c, 2, 74, 95
4, 21476, Note_on_c, 2, 74, 0
4, 21480, Note_on_c, 2, 76, 95
4, 21500, Note_on_c, 2, 76, 0
4, 21504, Note_on_c, 2, 78, 95
4, 21524, Note_on_c, 2, 78, 0
4, 21528, Note_on_c, 2, 74, 95
4, 21548, Note_on_c, 2, 74, 0
4, 21552, Note_on_c, 2, 73, 95
4, 21572, Note_on_c, 2, 73, 0
4, 21576, Note_on_c, 2, 71, 95
4, 21596, Note_on_c, 2, 71, 0
4, 21600, Note_on_c, 2, 69, 95
4, 21680, Note_on_c, 2, 69, 0
4, 21720, Note_on_c, 2, 83, 95
4, 21740, Note_on_c, 2, 83, 0
4, 21744, Note_on_c, 2, 81, 95
4, 21764, Note_on_c, 2, 81, 0
4, 21768, Note_on_c, 2, 79, 95
4, 21788, Note_on_c, 2, 79, 0
4, 21792, Note_on_c, 2, 78, 95
4, 21802, Note_on_c, 2, 78, 0
4, 21804, Note_on_c, 2, 79, 95
4, 21814, Note_on_c, 2, 79, 0
4, 21816, Note_on_c, 2, 81, 95
4, 21856, Note_on_c, 2, 81, 0
4, 21864, Note_on_c, 2, 79, 95
4, 21874, Note_on_c, 2, 79, 0
4, 21876, Note_on_c, 2, 78, 95
4, 21886, Note_on_c, 2, 78, 0
4, 21888, Note_on_c, 2, 76, 95
4, 21908, Note_on_c, 2, 76, 0
4, 21912, Note_on_c, 2, 69, 95
4, 21932, Note_on_c, 2, 69, 0
4, 22008, Note_on_c, 2, 78, 95
4, 22015, Note_on_c, 2, 78, 0
4, 22016, Note_on_c, 2, 76, 95
4, 22023, Note_on_c, 2, 76, 0
4, 22024, Note_on_c, 2, 78, 95
4, 22031, Note_on_c, 2, 78, 0
4, 22032, Note_on_c, 2, 79, 95
4, 22039, Note_on_c, 2, 79, 0
4, 22040, Note_on_c, 2, 78, 95
4, 22047, Note_on_c, 2, 78, 0
4, 22048, Note_on_c, 2, 79, 95
4, 22055, Note_on_c, 2, 79, 0
4, 22056, Note_on_c, 2, 81, 95
4, 22063, Note_on_c, 2, 81, 0
4, 22064, Note_on_c, 2, 79, 95
4, 22071, Note_on_c, 2, 79, 0
4, 22072, Note_on_c, 2, 81, 95
4, 22079, Note_on_c, 2, 81, 0
4, 22080, Note_on_c, 2, 83, 95
4, 22160, Note_on_c, 2, 83, 0
4, 22200, Note_on_c, 2, 76, 95
4, 22207, Note_on_c, 2, 76, 0
4, 22208, Note_on_c, 2, 74, 95
4, 22215, Note_on_c, 2, 74, 0
4, 22216, Note_on_c, 2, 76, 95
4, 22223, Note_on_c, 2, 76, 0
4, 22224, Note_on_c, 2, 78, 95
4, 22231, Note_on_c, 2, 78, 0
4, 22232, Note_on_c, 2, 76, 95
4, 22239, Note_on_c, 2, 76, 0
4, 22240, Note_on_c, 2, 78, 95
4, 22247, Note_on_c, 2, 78, 0
4, 22248, Note_on_c, 2, 79, 95
4, 22255, Note_on_c, 2, 79, 0
4, 22256, Note_on_c, 2, 78, 95
4, 22263, Note_on_c, 2, 78, 0
4, 22264, Note_on_c, 2, 79, 95
4, 22271, Note_on_c, 2, 79, 0
4, 22272, Note_on_c, 2, 81, 95
4, 22328, Note_on_c, 2, 81, 0
4, 22392, Note_on_c, 2, 74, 95
4, 22399, Note_on_c, 2, 74, 0
4, 22400, Note_on_c, 2, 73, 95
4, 22407, Note_on_c, 2, 73, 0
4, 22408, Note_on_c, 2, 74, 95
4, 22415, Note_on_c, 2, 74, 0
4, 22416, Note_on_c, 2, 76, 95
4, 22423, Note_on_c, 2, 76, 0
4, 22424, Note_on_c, 2, 74, 95
4, 22431, Note_on_c, 2, 74, 0
4, 22432, Note_on_c, 2, 76, 95
4, 22439, Note_on_c, 2, 76, 0
4, 22440, Note_on_c, 2, 78, 95
4, 22447, Note_on_c, 2, 78, 0
4, 22448, Note_on_c, 2, 76, 95
4, 22455, Note_on_c, 2, 76, 0
4, 22456, Note_on_c, 2, 78, 95
4, 22463, Note_on_c, 2, 78, 0
4, 22464, Note_on_c, 2, 79, 95
4, 22520, Note_on_c, 2, 79, 0
4, 22584, Note_on_c, 2, 73, 95
4, 22591, Note_on_c, 2, 73, 0
4, 22592, Note_on_c, 2, 71, 95
4, 22599, Note_on_c, 2, 71, 0
4, 22600, Note_on_c, 2, 73, 95
4, 22607, Note_on_c, 2, 73, 0
4, 22608, Note_on_c, 2, 74, 95
4, 22615, Note_on_c, 2, 74, 0
4, 22616, Note_on_c, 2, 73, 95
4, 22623, Note_on_c, 2, 73, 0
4, 22624, Note_on_c, 2, 74, 95
4, 22631, Note_on_c, 2, 74, 0
4, 22632, Note_on_c, 2, 76, 95
4, 22639, Note_on_c, 2, 76, 0
4, 22640, Note_on_c, 2, 74, 95
4, 22647, Note_on_c, 2, 74, 0
4, 22648, Note_on_c, 2, 76, 95
4, 22655, Note_on_c, 2, 76, 0
4, 22656, Note_on_c, 2, 78, 95
4, 22666, Note_on_c, 2, 78, 0
4, 22668, Note_on_c, 2, 79, 95
4, 22678, Note_on_c, 2, 79, 0
4, 22680, Note_on_c, 2, 81, 95
4, 22701, Note_on_c, 2, 81, 0
4, 22728, Note_on_c, 2, 74, 95
4, 22749, Note_on_c, 2, 74, 0
4, 22752, Note_on_c, 2, 83, 95
4, 22773, Note_on_c, 2, 83, 0
4, 22776, Note_on_c, 2, 81, 95
4, 22797, Note_on_c, 2, 81, 0
4, 22800, Note_on_c, 2, 79, 95
4, 22810, Note_on_c, 2, 79, 0
4, 22812, Note_on_c, 2, 78, 95
4, 22822, Note_on_c, 2, 78, 0
4, 22824, Note_on_c, 2, 79, 95
4, 22855, Note_on_c, 2, 79, 0
4, 22860, Note_on_c, 2, 78, 95
4, 22870, Note_on_c, 2, 78, 0
4, 22872, Note_on_c, 2, 79, 95
4, 22882, Note_on_c, 2, 79, 0
4, 22884, Note_on_c, 2, 76, 95
4, 22894, Note_on_c, 2, 76, 0
4, 22896, Note_on_c, 2, 78, 95
4, 22917, Note_on_c, 2, 78, 0
4, 22920, Note_on_c, 2, 79, 95
4, 22925, Note_on_c, 2, 79, 0
4, 22926, Note_on_c, 2, 81, 95
4, 22931, Note_on_c, 2, 81, 0
4, 22932, Note_on_c, 2, 79, 95
4, 22937, Note_on_c, 2, 79, 0
4, 22938, Note_on_c, 2, 81, 95
4, 22943, Note_on_c, 2, 81, 0
4, 22944, Note_on_c, 2, 81, 95
4, 22965, Note_on_c, 2, 81, 0
4, 22968, Note_on_c, 2, 83, 95
4, 22989, Note_on_c, 2, 83, 0
4, 22992, Note_on_c, 2, 76, 95
4, 23023, Note_on_c, 2, 76, 0
4, 23028, Note_on_c, 2, 74, 95
4, 23038, Note_on_c, 2, 74, 0
4, 23040, Note_on_c, 2, 74, 95
4, 23082, Note_on_c, 2, 74, 0
4, 24024, Note_on_c, 2, 69, 95
4, 24044, Note_on_c, 2, 69, 0
4, 24048, Note_on_c, 2, 71, 95
4, 24068, Note_on_c, 2, 71, 0
4, 24072, Note_on_c, 2, 69, 95
4, 24092, Note_on_c, 2, 69, 0
4, 24096, Note_on_c, 2, 72, 95
4, 24116, Note_on_c, 2, 72, 0
4, 24120, Note_on_c, 2, 71, 95
4, 24140, Note_on_c, 2, 71, 0
4, 24144, Note_on_c, 2, 76, 95
4, 24164, Note_on_c, 2, 76, 0
4, 24168, Note_on_c, 2, 74, 95
4, 24188, Note_on_c, 2, 74, 0
4, 24192, Note_on_c, 2, 79, 95
4, 24272, Note_on_c, 2, 79, 0
4, 24312, Note_on_c, 2, 78, 95
4, 24332, Note_on_c, 2, 78, 0
4, 24336, Note_on_c, 2, 81, 95
4, 24356, Note_on_c, 2, 81, 0
4, 24360, Note_on_c, 2, 79, 95
4, 24380, Note_on_c, 2, 79, 0
4, 24384, Note_on_c, 2, 84, 95
4, 24404, Note_on_c, 2, 84, 0
4, 24408, Note_on_c, 2, 83, 95
4, 24428, Note_on_c, 2, 83, 0
4, 24432, Note_on_c, 2, 81, 95
4, 24452, Note_on_c, 2, 81, 0
4, 24456, Note_on_c, 2, 79, 95
4, 24466, Note_on_c, 2, 79, 0
4, 24468, Note_on_c, 2, 78, 95
4, 24478, Note_on_c, 2, 78, 0
4, 24480, Note_on_c, 2, 79, 95
4, 24490, Note_on_c, 2, 79, 0
4, 24492, Note_on_c, 2, 81, 95
4, 24502, Note_on_c, 2, 81, 0
4, 24504, Note_on_c, 2, 78, 95
4, 24514, Note_on_c, 2, 78, 0
4, 24516, Note_on_c, 2, 79, 95
4, 24526, Note_on_c, 2, 79, 0
4, 24528, Note_on_c, 2, 76, 95
4, 24533, Note_on_c, 2, 76, 0
4, 24534, Note_on_c, 2, 78, 95
4, 24539, Note_on_c, 2, 78, 0
4, 24540, Note_on_c, 2, 76, 95
4, 24545, Note_on_c, 2, 76, 0
4, 24546, Note_on_c, 2, 78, 95
4, 24551, Note_on_c, 2, 78, 0
4, 24552, Note_on_c, 2, 69, 95
4, 24562, Note_on_c, 2, 69, 0
4, 24564, Note_on_c, 2, 71, 95
4, 24574, Note_on_c, 2, 71, 0
4, 24576, Note_on_c, 2, 72, 95
4, 24586, Note_on_c, 2, 72, 0
4, 24588, Note_on_c, 2, 69, 95
4, 24598, Note_on_c, 2, 69, 0
4, 24600, Note_on_c, 2, 71, 95
4, 24610, Note_on_c, 2, 71, 0
4, 24612, Note_on_c, 2, 74, 95
4, 24622, Note_on_c, 2, 74, 0
4, 24624, Note_on_c, 2, 73, 95
4, 24634, Note_on_c, 2, 73, 0
4, 24636, Note_on_c, 2, 69, 95
4, 24646, Note_on_c, 2, 69, 0
4, 24648, Note_on_c, 2, 71, 95
4, 24658, Note_on_c, 2, 71, 0
4, 24660, Note_on_c, 2, 73, 95
4, 24670, Note_on_c, 2, 73, 0
4, 24672, Note_on_c, 2, 74, 95
4, 24682, Note_on_c, 2, 74, 0
4, 24684, Note_on_c, 2, 71, 95
4, 24694, Note_on_c, 2, 71, 0
4, 24696, Note_on_c, 2, 73, 95
4, 24706, Note_on_c, 2, 73, 0
4, 24708, Note_on_c, 2, 76, 95
4, 24718, Note_on_c, 2, 76, 0
4, 24720, Note_on_c, 2, 74, 95
4, 24730, Note_on_c, 2, 74, 0
4, 24732, Note_on_c, 2, 71, 95
4, 24742, Note_on_c, 2, 71, 0
4, 24744, Note_on_c, 2, 73, 95
4, 24754, Note_on_c, 2, 73, 0
4, 24756, Note_on_c, 2, 74, 95
4, 24766, Note_on_c, 2, 74, 0
4, 24768, Note_on_c, 2, 76, 95
4, 24778, Note_on_c, 2, 76, 0
4, 24780, Note_on_c, 2, 73, 95
4, 24790, Note_on_c, 2, 73, 0
4, 24792, Note_on_c, 2, 74, 95
4, 24802, Note_on_c, 2, 74, 0
4, 24804, Note_on_c, 2, 78, 95
4, 24814, Note_on_c, 2, 78, 0
4, 24816, Note_on_c, 2, 76, 95
4, 24826, Note_on_c, 2, 76, 0
4, 24828, Note_on_c, 2, 73, 95
4, 24838, Note_on_c, 2, 73, 0
4, 24840, Note_on_c, 2, 74, 95
4, 24850, Note_on_c, 2, 74, 0
4, 24852, Note_on_c, 2, 76, 95
4, 24862, Note_on_c, 2, 76, 0
4, 24864, Note_on_c, 2, 78, 95
4, 24884, Note_on_c, 2, 78, 0
4, 24888, Note_on_c, 2, 76, 95
4, 24908, Note_on_c, 2, 76, 0
4, 24912, Note_on_c, 2, 79, 95
4, 24932, Note_on_c, 2, 79, 0
4, 24936, Note_on_c, 2, 78, 95
4, 24956, Note_on_c, 2, 78, 0
4, 24960, Note_on_c, 2, 83, 95
4, 24980, Note_on_c, 2, 83, 0
4, 24984, Note_on_c, 2, 81, 95
4, 25004, Note_on_c, 2, 81, 0
4, 25008, Note_on_c, 2, 81, 95
4, 25167, Note_on_c, 2, 81, 0
4, 25200, Note_on_c, 2, 79, 95
4, 25280, Note_on_c, 2, 79, 0
4, 25296, Note_on_c, 2, 78, 95
4, 25376, Note_on_c, 2, 78, 0
4, 25392, Note_on_c, 2, 76, 95
4, 25472, Note_on_c, 2, 76, 0
4, 25500, Note_on_c, 2, 74, 95
4, 25510, Note_on_c, 2, 74, 0
4, 25512, Note_on_c, 2, 76, 95
4, 25522, Note_on_c, 2, 76, 0
4, 25524, Note_on_c, 2, 78, 95
4, 25534, Note_on_c, 2, 78, 0
4, 25536, Note_on_c, 2, 79, 95
4, 25546, Note_on_c, 2, 79, 0
4, 25548, Note_on_c, 2, 76, 95
4, 25558, Note_on_c, 2, 76, 0
4, 25560, Note_on_c, 2, 78, 95
4, 25570, Note_on_c, 2, 78, 0
4, 25572, Note_on_c, 2, 81, 95
4, 25582, Note_on_c, 2, 81, 0
4, 25584, Note_on_c, 2, 79, 95
4, 25594, Note_on_c, 2, 79, 0
4, 25596, Note_on_c, 2, 83, 95
4, 25606, Note_on_c, 2, 83, 0
4, 25608, Note_on_c, 2, 81, 95
4, 25618, Note_on_c, 2, 81, 0
4, 25620, Note_on_c, 2, 79, 95
4, 25630, Note_on_c, 2, 79, 0
4, 25632, Note_on_c, 2, 78, 95
4, 25642, Note_on_c, 2, 78, 0
4, 25644, Note_on_c, 2, 74, 95
4, 25654, Note_on_c, 2, 74, 0
4, 25656, Note_on_c, 2, 76, 95
4, 25666, Note_on_c, 2, 76, 0
4, 25668, Note_on_c, 2, 79, 95
4, 25678, Note_on_c, 2, 79, 0
4, 25680, Note_on_c, 2, 78, 95
4, 25690, Note_on_c, 2, 78, 0
4, 25692, Note_on_c, 2, 81, 95
4, 25702, Note_on_c, 2, 81, 0
4, 25704, Note_on_c, 2, 79, 95
4, 25714, Note_on_c, 2, 79, 0
4, 25716, Note_on_c, 2, 78, 95
4, 25726, Note_on_c, 2, 78, 0
4, 25728, Note_on_c, 2, 76, 95
4, 25738, Note_on_c, 2, 76, 0
4, 25740, Note_on_c, 2, 73, 95
4, 25750, Note_on_c, 2, 73, 0
4, 25752, Note_on_c, 2, 74, 95
4, 25762, Note_on_c, 2, 74, 0
4, 25764, Note_on_c, 2, 78, 95
4, 25774, Note_on_c, 2, 78, 0
4, 25776, Note_on_c, 2, 76, 95
4, 25786, Note_on_c, 2, 76, 0
4, 25788, Note_on_c, 2, 79, 95
4, 25798, Note_on_c, 2, 79, 0
4, 25800, Note_on_c, 2, 78, 95
4, 25810, Note_on_c, 2, 78, 0
4, 25812, Note_on_c, 2, 76, 95
4, 25822, Note_on_c, 2, 76, 0
4, 25824, Note_on_c, 2, 78, 95
4, 25834, Note_on_c, 2, 78, 0
4, 25836, Note_on_c, 2, 74, 95
4, 25846, Note_on_c, 2, 74, 0
4, 25848, Note_on_c, 2, 76, 95
4, 25858, Note_on_c, 2, 76, 0
4, 25860, Note_on_c, 2, 79, 95
4, 25870, Note_on_c, 2, 79, 0
4, 25872, Note_on_c, 2, 78, 95
4, 25882, Note_on_c, 2, 78, 0
4, 25884, Note_on_c, 2, 81, 95
4, 25894, Note_on_c, 2, 81, 0
4, 25896, Note_on_c, 2, 79, 95
4, 25906, Note_on_c, 2, 79, 0
4, 25908, Note_on_c, 2, 78, 95
4, 25918, Note_on_c, 2, 78, 0
4, 25920, Note_on_c, 2, 80, 95
4, 25930, Note_on_c, 2, 80, 0
4, 25932, Note_on_c, 2, 76, 95
4, 25942, Note_on_c, 2, 76, 0
4, 25944, Note_on_c, 2, 78, 95
4, 25954, Note_on_c, 2, 78, 0
4, 25956, Note_on_c, 2, 81, 95
4, 25966, Note_on_c, 2, 81, 0
4, 25968, Note_on_c, 2, 80, 95
4, 25978, Note_on_c, 2, 80, 0
4, 25980, Note_on_c, 2, 83, 95
4, 25990, Note_on_c, 2, 83, 0
4, 25992, Note_on_c, 2, 81, 95
4, 26002, Note_on_c, 2, 81, 0
4, 26004, Note_on_c, 2, 80, 95
4, 26014, Note_on_c, 2, 80, 0
4, 26016, Note_on_c, 2, 81, 95
4, 26056, Note_on_c, 2, 81, 0
4, 26664, Note_on_c, 2, 74, 95
4, 26674, Note_on_c, 2, 74, 0
4, 26676, Note_on_c, 2, 76, 95
4, 26686, Note_on_c, 2, 76, 0
4, 26688, Note_on_c, 2, 74, 95
4, 26708, Note_on_c, 2, 74, 0
4, 26808, Note_on_c, 2, 76, 95
4, 26818, Note_on_c, 2, 76, 0
4, 26820, Note_on_c, 2, 78, 95
4, 26830, Note_on_c, 2, 78, 0
4, 26832, Note_on_c, 2, 76, 95
4, 26852, Note_on_c, 2, 76, 0
4, 26904, Note_on_c, 2, 76, 95
4, 26914, Note_on_c, 2, 76, 0
4, 26916, Note_on_c, 2, 78, 95
4, 26926, Note_on_c, 2, 78, 0
4, 26928, Note_on_c, 2, 76, 95
4, 26948, Note_on_c, 2, 76, 0
4, 26952, Note_on_c, 2, 73, 95
4, 26972, Note_on_c, 2, 73, 0
4, 26976, Note_on_c, 2, 78, 95
4, 26996, Note_on_c, 2, 78, 0
4, 27048, Note_on_c, 2, 78, 95
4, 27058, Note_on_c, 2, 78, 0
4, 27060, Note_on_c, 2, 79, 95
4, 27070, Note_on_c, 2, 79, 0
4, 27072, Note_on_c, 2, 78, 95
4, 27092, Note_on_c, 2, 78, 0
4, 27192, Note_on_c, 2, 81, 95
4, 27202, Note_on_c, 2, 81, 0
4, 27204, Note_on_c, 2, 83, 95
4, 27214, Note_on_c, 2, 83, 0
4, 27216, Note_on_c, 2, 81, 95
4, 27236, Note_on_c, 2, 81, 0
4, 27288, Note_on_c, 2, 81, 95
4, 27298, Note_on_c, 2, 81, 0
4, 27300, Note_on_c, 2, 83, 95
4, 27310, Note_on_c, 2, 83, 0
4, 27312, Note_on_c, 2, 81, 95
4, 27332, Note_on_c, 2, 81, 0
4, 27336, Note_on_c, 2, 84, 95
4, 27356, Note_on_c, 2, 84, 0
4, 27360, Note_on_c, 2, 84, 95
4, 27370, Note_on_c, 2, 84, 0
4, 27372, Note_on_c, 2, 81, 95
4, 27382, Note_on_c, 2, 81, 0
4, 27384, Note_on_c, 2, 83, 95
4, 27392, Note_on_c, 2, 83, 0
4, 27432, Note_on_c, 2, 83, 95
4, 27452, Note_on_c, 2, 83, 0
4, 27456, Note_on_c, 2, 83, 95
4, 27466, Note_on_c, 2, 83, 0
4, 27468, Note_on_c, 2, 79, 95
4, 27478, Note_on_c, 2, 79, 0
4, 27480, Note_on_c, 2, 81, 95
4, 27488, Note_on_c, 2, 81, 0
4, 27528, Note_on_c, 2, 81, 95
4, 27548, Note_on_c, 2, 81, 0
4, 27552, Note_on_c, 2, 81, 95
4, 27562, Note_on_c, 2, 81, 0
4, 27564, Note_on_c, 2, 78, 95
4, 27574, Note_on_c, 2, 78, 0
4, 27576, Note_on_c, 2, 79, 95
4, 27584, Note_on_c, 2, 79, 0
4, 27624, Note_on_c, 2, 79, 95
4, 27644, Note_on_c, 2, 79, 0
4, 27648, Note_on_c, 2, 79, 95
4, 27658, Note_on_c, 2, 79, 0
4, 27660, Note_on_c, 2, 76, 95
4, 27670, Note_on_c, 2, 76, 0
4, 27672, Note_on_c, 2, 78, 95
4, 27682, Note_on_c, 2, 78, 0
4, 27684, Note_on_c, 2, 79, 95
4, 27694, Note_on_c, 2, 79, 0
4, 27696, Note_on_c, 2, 78, 95
4, 27706, Note_on_c, 2, 78, 0
4, 27708, Note_on_c, 2, 81, 95
4, 27718, Note_on_c, 2, 81, 0
4, 27720, Note_on_c, 2, 79, 95
4, 27730, Note_on_c, 2, 79, 0
4, 27732, Note_on_c, 2, 78, 95
4, 27742, Note_on_c, 2, 78, 0
4, 27744, Note_on_c, 2, 76, 95
4, 27764, Note_on_c, 2, 76, 0
4, 27768, Note_on_c, 2, 79, 95
4, 27788, Note_on_c, 2, 79, 0
4, 27816, Note_on_c, 2, 73, 95
4, 27836, Note_on_c, 2, 73, 0
4, 27840, Note_on_c, 2, 74, 95
4, 27850, Note_on_c, 2, 74, 0
4, 27852, Note_on_c, 2, 73, 95
4, 27862, Note_on_c, 2, 73, 0
4, 27864, Note_on_c, 2, 74, 95
4, 27874, Note_on_c, 2, 74, 0
4, 27876, Note_on_c, 2, 76, 95
4, 27886, Note_on_c, 2, 76, 0
4, 27888, Note_on_c, 2, 74, 95
4, 27898, Note_on_c, 2, 74, 0
4, 27900, Note_on_c, 2, 78, 95
4, 27910, Note_on_c, 2, 78, 0
4, 27912, Note_on_c, 2, 76, 95
4, 27922, Note_on_c, 2, 76, 0
4, 27924, Note_on_c, 2, 74, 95
4, 27934, Note_on_c, 2, 74, 0
4, 27936, Note_on_c, 2, 73, 95
4, 27956, Note_on_c, 2, 73, 0
4, 27960, Note_on_c, 2, 69, 95
4, 27980, Note_on_c, 2, 69, 0
4, 27984, Note_on_c, 2, 76, 95
4, 28004, Note_on_c, 2, 76, 0
4, 28008, Note_on_c, 2, 73, 95
4, 28028, Note_on_c, 2, 73, 0
4, 28080, Note_on_c, 2, 78, 56
4, 28104, Note_on_c, 2, 78, 0
4, 28104, Note_on_c, 2, 74, 56
4, 28128, Note_on_c, 2, 74, 0
4, 28176, Note_on_c, 2, 78, 56
4, 28200, Note_on_c, 2, 78, 0
4, 28200, Note_on_c, 2, 81, 56
4, 28224, Note_on_c, 2, 81, 0
4, 28272, Note_on_c, 2, 76, 56
4, 28296, Note_on_c, 2, 76, 0
4, 28296, Note_on_c, 2, 73, 56
4, 28320, Note_on_c, 2, 73, 0
4, 28368, Note_on_c, 2, 76, 56
4, 28392, Note_on_c, 2, 76, 0
4, 28392, Note_on_c, 2, 81, 56
4, 28416, Note_on_c, 2, 81, 0
4, 28464, Note_on_c, 2, 74, 56
4, 28488, Note_on_c, 2, 74, 0
4, 28488, Note_on_c, 2, 71, 56
4, 28512, Note_on_c, 2, 71, 0
4, 28560, Note_on_c, 2, 74, 56
4, 28584, Note_on_c, 2, 74, 0
4, 28584, Note_on_c, 2, 83, 56
4, 28608, Note_on_c, 2, 83, 0
4, 28656, Note_on_c, 2, 74, 56
4, 28680, Note_on_c, 2, 74, 0
4, 28680, Note_on_c, 2, 71, 56
4, 28704, Note_on_c, 2, 71, 0
4, 28752, Note_on_c, 2, 74, 56
4, 28776, Note_on_c, 2, 74, 0
4, 28776, Note_on_c, 2, 83, 56
4, 28800, Note_on_c, 2, 83, 0
4, 28800, Note_on_c, 2, 69, 56
4, 28824, Note_on_c, 2, 69, 0
4, 28824, Note_on_c, 2, 73, 56
4, 28848, Note_on_c, 2, 73, 0
4, 28848, Note_on_c, 2, 74, 56
4, 28872, Note_on_c, 2, 74, 0
4, 28872, Note_on_c, 2, 78, 56
4, 28896, Note_on_c, 2, 78, 0
4, 28896, Note_on_c, 2, 69, 56
4, 28920, Note_on_c, 2, 69, 0
4, 28920, Note_on_c, 2, 73, 56
4, 28944, Note_on_c, 2, 73, 0
4, 28944, Note_on_c, 2, 74, 56
4, 28968, Note_on_c, 2, 74, 0
4, 28968, Note_on_c, 2, 78, 56
4, 28992, Note_on_c, 2, 78, 0
4, 29280, Note_on_c, 2, 74, 56
4, 29376, Note_on_c, 2, 74, 0
4, 29376, Note_on_c, 2, 73, 56
4, 29400, Note_on_c, 2, 73, 0
4, 43920, Note_on_c, 2, 66, 95
4, 43968, Note_on_c, 2, 66, 0
4, 43968, Note_on_c, 2, 71, 95
4, 44016, Note_on_c, 2, 71, 0
4, 44016, Note_on_c, 2, 73, 95
4, 44052, Note_on_c, 2, 73, 0
4, 44052, Note_on_c, 2, 74, 95
4, 44064, Note_on_c, 2, 74, 0
4, 44064, Note_on_c, 2, 70, 95
4, 44112, Note_on_c, 2, 70, 0
4, 44112, Note_on_c, 2, 71, 95
4, 44148, Note_on_c, 2, 71, 0
4, 44148, Note_on_c, 2, 73, 95
4, 44160, Note_on_c, 2, 73, 0
4, 44160, Note_on_c, 2, 74, 95
4, 44208, Note_on_c, 2, 74, 0
4, 44208, Note_on_c, 2, 76, 95
4, 44244, Note_on_c, 2, 76, 0
4, 44244, Note_on_c, 2, 78, 95
4, 44256, Note_on_c, 2, 78, 0
4, 44256, Note_on_c, 2, 79, 95
4, 44304, Note_on_c, 2, 79, 0
4, 44304, Note_on_c, 2, 81, 95
4, 44340, Note_on_c, 2, 81, 0
4, 44340, Note_on_c, 2, 83, 95
4, 44352, Note_on_c, 2, 83, 0
4, 44352, Note_on_c, 2, 81, 95
4, 44400, Note_on_c, 2, 81, 0
4, 44400, Note_on_c, 2, 79, 95
4, 44406, Note_on_c, 2, 79, 0
4, 44406, Note_on_c, 2, 81, 95
4, 44412, Note_on_c, 2, 81, 0
4, 44412, Note_on_c, 2, 79, 95
4, 44418, Note_on_c, 2, 79, 0
4, 44418, Note_on_c, 2, 78, 95
4, 44424, Note_on_c, 2, 78, 0
4, 44424, Note_on_c, 2, 79, 95
4, 44448, Note_on_c, 2, 79, 0
4, 44448, Note_on_c, 2, 78, 95
4, 44496, Note_on_c, 2, 78, 0
4, 44496, Note_on_c, 2, 71, 95
4, 44544, Note_on_c, 2, 71, 0
4, 44544, Note_on_c, 2, 76, 95
4, 44688, Note_on_c, 2, 76, 0
4, 44688, Note_on_c, 2, 78, 95
4, 44724, Note_on_c, 2, 78, 0
4, 44724, Note_on_c, 2, 79, 95
4, 44736, Note_on_c, 2, 79, 0
4, 44736, Note_on_c, 2, 78, 95
4, 44784, Note_on_c, 2, 78, 0
4, 44784, Note_on_c, 2, 76, 95
4, 44790, Note_on_c, 2, 76, 0
4, 44790, Note_on_c, 2, 78, 95
4, 44796, Note_on_c, 2, 78, 0
4, 44796, Note_on_c, 2, 76, 95
4, 44802, Note_on_c, 2, 76, 0
4, 44802, Note_on_c, 2, 74, 95
4, 44808, Note_on_c, 2, 74, 0
4, 44808, Note_on_c, 2, 76, 95
4, 44832, Note_on_c, 2, 76, 0
4, 44832, Note_on_c, 2, 74, 95
4, 44856, Note_on_c, 2, 74, 0
4, 44856, Note_on_c, 2, 73, 95
4, 44880, Note_on_c, 2, 73, 0
4, 44880, Note_on_c, 2, 76, 95
4, 44904, Note_on_c, 2, 76, 0
4, 44904, Note_on_c, 2, 74, 95
4, 44928, Note_on_c, 2, 74, 0
4, 44928, Note_on_c, 2, 74, 95
4, 44952, Note_on_c, 2, 74, 0
4, 44952, Note_on_c, 2, 73, 95
4, 44976, Note_on_c, 2, 73, 0
4, 44976, Note_on_c, 2, 71, 95
4, 45012, Note_on_c, 2, 71, 0
4, 45012, Note_on_c, 2, 70, 95
4, 45024, Note_on_c, 2, 70, 0
4, 45024, Note_on_c, 2, 79, 95
4, 45072, Note_on_c, 2, 79, 0
4, 45072, Note_on_c, 2, 78, 95
4, 45108, Note_on_c, 2, 78, 0
4, 45108, Note_on_c, 2, 76, 95
4, 45120, Note_on_c, 2, 76, 0
4, 45120, Note_on_c, 2, 74, 95
4, 45168, Note_on_c, 2, 74, 0
4, 45168, Note_on_c, 2, 73, 95
4, 45192, Note_on_c, 2, 73, 0
4, 45192, Note_on_c, 2, 71, 95
4, 45216, Note_on_c, 2, 71, 0
4, 45216, Note_on_c, 2, 71, 95
4, 45288, Note_on_c, 2, 71, 0
4, 45288, Note_on_c, 2, 73, 95
4, 45312, Note_on_c, 2, 73, 0
4, 45312, Note_on_c, 2, 74, 95
4, 45336, Note_on_c, 2, 74, 0
4, 45336, Note_on_c, 2, 76, 95
4, 45360, Note_on_c, 2, 76, 0
4, 45360, Note_on_c, 2, 76, 95
4, 45366, Note_on_c, 2, 76, 0
4, 45366, Note_on_c, 2, 78, 95
4, 45372, Note_on_c, 2, 78, 0
4, 45372, Note_on_c, 2, 76, 95
4, 45378, Note_on_c, 2, 76, 0
4, 45378, Note_on_c, 2, 78, 95
4, 45384, Note_on_c, 2, 78, 0
4, 45384, Note_on_c, 2, 76, 95
4, 45390, Note_on_c, 2, 76, 0
4, 45390, Note_on_c, 2, 74, 95
4, 45396, Note_on_c, 2, 74, 0
4, 45396, Note_on_c, 2, 76, 95
4, 45408, Note_on_c, 2, 76, 0
4, 45408, Note_on_c, 2, 78, 95
4, 45456, Note_on_c, 2, 78, 0
4, 45456, Note_on_c, 2, 66, 63
4, 45504, Note_on_c, 2, 66, 0
4, 45504, Note_on_c, 2, 71, 63
4, 45552, Note_on_c, 2, 71, 0
4, 45552, Note_on_c, 2, 73, 63
4, 45588, Note_on_c, 2, 73, 0
4, 45588, Note_on_c, 2, 74, 63
4, 45600, Note_on_c, 2, 74, 0
4, 45600, Note_on_c, 2, 70, 63
4, 45648, Note_on_c, 2, 70, 0
4, 45648, Note_on_c, 2, 71, 63
4, 45684, Note_on_c, 2, 71, 0
4, 45684, Note_on_c, 2, 73, 63
4, 45696, Note_on_c, 2, 73, 0
4, 45696, Note_on_c, 2, 74, 63
4, 45744, Note_on_c, 2, 74, 0
4, 45744, Note_on_c, 2, 76, 63
4, 45780, Note_on_c, 2, 76, 0
4, 45780, Note_on_c, 2, 78, 63
4, 45792, Note_on_c, 2, 78, 0
4, 45792, Note_on_c, 2, 74, 63
4, 45798, Note_on_c, 2, 74, 0
4, 45798, Note_on_c, 2, 73, 63
4, 45894, Note_on_c, 2, 73, 0
4, 46032, Note_on_c, 2, 66, 63
4, 46080, Note_on_c, 2, 66, 0
4, 46080, Note_on_c, 2, 71, 63
4, 46128, Note_on_c, 2, 71, 0
4, 46128, Note_on_c, 2, 73, 63
4, 46164, Note_on_c, 2, 73, 0
4, 46164, Note_on_c, 2, 74, 63
4, 46176, Note_on_c, 2, 74, 0
4, 46176, Note_on_c, 2, 68, 63
4, 46272, Note_on_c, 2, 68, 0
4, 47184, Note_on_c, 2, 69, 95
4, 47232, Note_on_c, 2, 69, 0
4, 47232, Note_on_c, 2, 74, 95
4, 47280, Note_on_c, 2, 74, 0
4, 47280, Note_on_c, 2, 76, 95
4, 47316, Note_on_c, 2, 76, 0
4, 47316, Note_on_c, 2, 78, 95
4, 47328, Note_on_c, 2, 78, 0
4, 47328, Note_on_c, 2, 73, 95
4, 47376, Note_on_c, 2, 73, 0
4, 47376, Note_on_c, 2, 74, 95
4, 47412, Note_on_c, 2, 74, 0
4, 47412, Note_on_c, 2, 76, 95
4, 47424, Note_on_c, 2, 76, 0
4, 47424, Note_on_c, 2, 78, 95
4, 47472, Note_on_c, 2, 78, 0
4, 47472, Note_on_c, 2, 79, 95
4, 47508, Note_on_c, 2, 79, 0
4, 47508, Note_on_c, 2, 81, 95
4, 47520, Note_on_c, 2, 81, 0
4, 47520, Note_on_c, 2, 76, 95
4, 47568, Note_on_c, 2, 76, 0
4, 47568, Note_on_c, 2, 69, 95
4, 47616, Note_on_c, 2, 69, 0
4, 47616, Note_on_c, 2, 81, 95
4, 47760, Note_on_c, 2, 81, 0
4, 47760, Note_on_c, 2, 79, 95
4, 47796, Note_on_c, 2, 79, 0
4, 47796, Note_on_c, 2, 78, 95
4, 47808, Note_on_c, 2, 78, 0
4, 47808, Note_on_c, 2, 79, 95
4, 47856, Note_on_c, 2, 79, 0
4, 47856, Note_on_c, 2, 81, 95
4, 47892, Note_on_c, 2, 81, 0
4, 47892, Note_on_c, 2, 83, 95
4, 47904, Note_on_c, 2, 83, 0
4, 47904, Note_on_c, 2, 76, 95
4, 47952, Note_on_c, 2, 76, 0
4, 47952, Note_on_c, 2, 74, 95
4, 47988, Note_on_c, 2, 74, 0
4, 47988, Note_on_c, 2, 73, 95
4, 48000, Note_on_c, 2, 73, 0
4, 48000, Note_on_c, 2, 74, 95
4, 48048, Note_on_c, 2, 74, 0
4, 48048, Note_on_c, 2, 76, 95
4, 48084, Note_on_c, 2, 76, 0
4, 48084, Note_on_c, 2, 78, 95
4, 48096, Note_on_c, 2, 78, 0
4, 48096, Note_on_c, 2, 73, 95
4, 48144, Note_on_c, 2, 73, 0
4, 48144, Note_on_c, 2, 71, 95
4, 48180, Note_on_c, 2, 71, 0
4, 48180, Note_on_c, 2, 69, 95
4, 48192, Note_on_c, 2, 69, 0
4, 48192, Note_on_c, 2, 72, 95
4, 48336, Note_on_c, 2, 72, 0
4, 48336, Note_on_c, 2, 71, 95
4, 48384, Note_on_c, 2, 71, 0
4, 48384, Note_on_c, 2, 73, 95
4, 48432, Note_on_c, 2, 73, 0
4, 48432, Note_on_c, 2, 74, 95
4, 48468, Note_on_c, 2, 74, 0
4, 48468, Note_on_c, 2, 76, 95
4, 48480, Note_on_c, 2, 76, 0
4, 48480, Note_on_c, 2, 66, 95
4, 48552, Note_on_c, 2, 66, 0
4, 48552, Note_on_c, 2, 64, 95
4, 48576, Note_on_c, 2, 64, 0
4, 48576, Note_on_c, 2, 64, 95
4, 48648, Note_on_c, 2, 64, 0
4, 48648, Note_on_c, 2, 62, 95
4, 48672, Note_on_c, 2, 62, 0
4, 48672, Note_on_c, 2, 62, 95
4, 48768, Note_on_c, 2, 62, 0
4, 49488, Note_on_c, 2, 71, 63
4, 49536, Note_on_c, 2, 71, 0
4, 49536, Note_on_c, 2, 68, 63
4, 49584, Note_on_c, 2, 68, 0
4, 49584, Note_on_c, 2, 66, 63
4, 49620, Note_on_c, 2, 66, 0
4, 49620, Note_on_c, 2, 64, 63
4, 49632, Note_on_c, 2, 64, 0
4, 49632, Note_on_c, 2, 73, 63
4, 49728, Note_on_c, 2, 73, 0
4, 50256, Note_on_c, 2, 73, 63
4, 50304, Note_on_c, 2, 73, 0
4, 50304, Note_on_c, 2, 78, 63
4, 50352, Note_on_c, 2, 78, 0
4, 50352, Note_on_c, 2, 80, 63
4, 50388, Note_on_c, 2, 80, 0
4, 50388, Note_on_c, 2, 81, 63
4, 50400, Note_on_c, 2, 81, 0
4, 50400, Note_on_c, 2, 77, 63
4, 50448, Note_on_c, 2, 77, 0
4, 50448, Note_on_c, 2, 78, 63
4, 50484, Note_on_c, 2, 78, 0
4, 50484, Note_on_c, 2, 80, 63
4, 50496, Note_on_c, 2, 80, 0
4, 50496, Note_on_c, 2, 81, 63
4, 50544, Note_on_c, 2, 81, 0
4, 50544, Note_on_c, 2, 83, 63
4, 50580, Note_on_c, 2, 83, 0
4, 50580, Note_on_c, 2, 85, 63
4, 50592, Note_on_c, 2, 85, 0
4, 50592, Note_on_c, 2, 80, 63
4, 50688, Note_on_c, 2, 80, 0
4, 51024, Note_on_c, 2, 73, 95
4, 51072, Note_on_c, 2, 73, 0
4, 51072, Note_on_c, 2, 78, 95
4, 51120, Note_on_c, 2, 78, 0
4, 51120, Note_on_c, 2, 80, 95
4, 51156, Note_on_c, 2, 80, 0
4, 51156, Note_on_c, 2, 81, 95
4, 51168, Note_on_c, 2, 81, 0
4, 51168, Note_on_c, 2, 77, 95
4, 51216, Note_on_c, 2, 77, 0
4, 51216, Note_on_c, 2, 78, 95
4, 51252, Note_on_c, 2, 78, 0
4, 51252, Note_on_c, 2, 80, 95
4, 51264, Note_on_c, 2, 80, 0
4, 51264, Note_on_c, 2, 81, 95
4, 51312, Note_on_c, 2, 81, 0
4, 51312, Note_on_c, 2, 83, 95
4, 51348, Note_on_c, 2, 83, 0
4, 51348, Note_on_c, 2, 85, 95
4, 51360, Note_on_c, 2, 85, 0
4, 51360, Note_on_c, 2, 80, 95
4, 51408, Note_on_c, 2, 80, 0
4, 51408, Note_on_c, 2, 73, 95
4, 51456, Note_on_c, 2, 73, 0
4, 51456, Note_on_c, 2, 85, 95
4, 51600, Note_on_c, 2, 85, 0
4, 51600, Note_on_c, 2, 83, 95
4, 51636, Note_on_c, 2, 83, 0
4, 51636, Note_on_c, 2, 81, 95
4, 51648, Note_on_c, 2, 81, 0
4, 51648, Note_on_c, 2, 80, 95
4, 51654, Note_on_c, 2, 80, 0
4, 51654, Note_on_c, 2, 81, 95
4, 51660, Note_on_c, 2, 81, 0
4, 51660, Note_on_c, 2, 80, 95
4, 51666, Note_on_c, 2, 80, 0
4, 51666, Note_on_c, 2, 81, 95
4, 51672, Note_on_c, 2, 81, 0
4, 51672, Note_on_c, 2, 80, 95
4, 51678, Note_on_c, 2, 80, 0
4, 51678, Note_on_c, 2, 81, 95
4, 51684, Note_on_c, 2, 81, 0
4, 51684, Note_on_c, 2, 80, 95
4, 51690, Note_on_c, 2, 80, 0
4, 51690, Note_on_c, 2, 78, 95
4, 51696, Note_on_c, 2, 78, 0
4, 51696, Note_on_c, 2, 80, 95
4, 51744, Note_on_c, 2, 80, 0
4, 51744, Note_on_c, 2, 81, 95
4, 51888, Note_on_c, 2, 81, 0
4, 51888, Note_on_c, 2, 80, 95
4, 51924, Note_on_c, 2, 80, 0
4, 51924, Note_on_c, 2, 77, 95
4, 51936, Note_on_c, 2, 77, 0
4, 51936, Note_on_c, 2, 77, 95
4, 52032, Note_on_c, 2, 77, 0
4, 52080, Note_on_c, 2, 77, 95
4, 52128, Note_on_c, 2, 77, 0
4, 52128, Note_on_c, 2, 78, 95
4, 52176, Note_on_c, 2, 78, 0
4, 52176, Note_on_c, 2, 73, 95
4, 52224, Note_on_c, 2, 73, 0
4, 52224, Note_on_c, 2, 71, 95
4, 52272, Note_on_c, 2, 71, 0
4, 52272, Note_on_c, 2, 69, 95
4, 52308, Note_on_c, 2, 69, 0
4, 52308, Note_on_c, 2, 68, 95
4, 52320, Note_on_c, 2, 68, 0
4, 52320, Note_on_c, 2, 83, 95
4, 52368, Note_on_c, 2, 83, 0
4, 52368, Note_on_c, 2, 81, 95
4, 52404, Note_on_c, 2, 81, 0
4, 52404, Note_on_c, 2, 80, 95
4, 52416, Note_on_c, 2, 80, 0
4, 52416, Note_on_c, 2, 78, 95
4, 52464, Note_on_c, 2, 78, 0
4, 52464, Note_on_c, 2, 77, 95
4, 52470, Note_on_c, 2, 77, 0
4, 52470, Note_on_c, 2, 78, 95
4, 52476, Note_on_c, 2, 78, 0
4, 52476, Note_on_c, 2, 77, 95
4, 52482, Note_on_c, 2, 77, 0
4, 52482, Note_on_c, 2, 78, 95
4, 52488, Note_on_c, 2, 78, 0
4, 52488, Note_on_c, 2, 77, 95
4, 52494, Note_on_c, 2, 77, 0
4, 52494, Note_on_c, 2, 78, 95
4, 52500, Note_on_c, 2, 78, 0
4, 52500, Note_on_c, 2, 77, 95
4, 52506, Note_on_c, 2, 77, 0
4, 52506, Note_on_c, 2, 78, 95
4, 52512, Note_on_c, 2, 78, 0
4, 52512, Note_on_c, 2, 78, 95
4, 52608, Note_on_c, 2, 78, 0
4, 52752, Note_on_c, 2, 78, 95
4, 52776, Note_on_c, 2, 78, 0
4, 52776, Note_on_c, 2, 75, 95
4, 52800, Note_on_c, 2, 75, 0
4, 52800, Note_on_c, 2, 69, 95
4, 52824, Note_on_c, 2, 69, 0
4, 52824, Note_on_c, 2, 67, 95
4, 52848, Note_on_c, 2, 67, 0
4, 52848, Note_on_c, 2, 69, 95
4, 52872, Note_on_c, 2, 69, 0
4, 52872, Note_on_c, 2, 66, 95
4, 52896, Note_on_c, 2, 66, 0
4, 52896, Note_on_c, 2, 67, 95
4, 52992, Note_on_c, 2, 67, 0
4, 54096, Note_on_c, 2, 81, 95
4, 54120, Note_on_c, 2, 81, 0
4, 54120, Note_on_c, 2, 78, 95
4, 54144, Note_on_c, 2, 78, 0
4, 54144, Note_on_c, 2, 72, 95
4, 54168, Note_on_c, 2, 72, 0
4, 54168, Note_on_c, 2, 71, 95
4, 54192, Note_on_c, 2, 71, 0
4, 54192, Note_on_c, 2, 72, 95
4, 54216, Note_on_c, 2, 72, 0
4, 54216, Note_on_c, 2, 69, 95
4, 54240, Note_on_c, 2, 69, 0
4, 54240, Note_on_c, 2, 71, 95
4, 54288, Note_on_c, 2, 71, 0
4, 54288, Note_on_c, 2, 83, 95
4, 54312, Note_on_c, 2, 83, 0
4, 54312, Note_on_c, 2, 79, 95
4, 54336, Note_on_c, 2, 79, 0
4, 54336, Note_on_c, 2, 74, 95
4, 54360, Note_on_c, 2, 74, 0
4, 54360, Note_on_c, 2, 72, 95
4, 54384, Note_on_c, 2, 72, 0
4, 54384, Note_on_c, 2, 74, 95
4, 54408, Note_on_c, 2, 74, 0
4, 54408, Note_on_c, 2, 71, 95
4, 54432, Note_on_c, 2, 71, 0
4, 54432, Note_on_c, 2, 72, 95
4, 54480, Note_on_c, 2, 72, 0
4, 54480, Note_on_c, 2, 78, 95
4, 54504, Note_on_c, 2, 78, 0
4, 54504, Note_on_c, 2, 75, 95
4, 54528, Note_on_c, 2, 75, 0
4, 54528, Note_on_c, 2, 69, 95
4, 54552, Note_on_c, 2, 69, 0
4, 54552, Note_on_c, 2, 67, 95
4, 54576, Note_on_c, 2, 67, 0
4, 54576, Note_on_c, 2, 69, 95
4, 54600, Note_on_c, 2, 69, 0
4, 54600, Note_on_c, 2, 66, 95
4, 54624, Note_on_c, 2, 66, 0
4, 54624, Note_on_c, 2, 67, 95
4, 54672, Note_on_c, 2, 67, 0
4, 54864, Note_on_c, 2, 71, 95
4, 54888, Note_on_c, 2, 71, 0
4, 54888, Note_on_c, 2, 67, 95
4, 54912, Note_on_c, 2, 67, 0
4, 54912, Note_on_c, 2, 64, 95
4, 54936, Note_on_c, 2, 64, 0
4, 54936, Note_on_c, 2, 63, 95
4, 54960, Note_on_c, 2, 63, 0
4, 54960, Note_on_c, 2, 64, 95
4, 54984, Note_on_c, 2, 64, 0
4, 54984, Note_on_c, 2, 67, 95
4, 55008, Note_on_c, 2, 67, 0
4, 55008, Note_on_c, 2, 72, 95
4, 55056, Note_on_c, 2, 72, 0
4, 55056, Note_on_c, 2, 72, 95
4, 55080, Note_on_c, 2, 72, 0
4, 55080, Note_on_c, 2, 69, 95
4, 55104, Note_on_c, 2, 69, 0
4, 55104, Note_on_c, 2, 66, 95
4, 55128, Note_on_c, 2, 66, 0
4, 55128, Note_on_c, 2, 64, 95
4, 55152, Note_on_c, 2, 64, 0
4, 55152, Note_on_c, 2, 66, 95
4, 55176, Note_on_c, 2, 66, 0
4, 55176, Note_on_c, 2, 69, 95
4, 55200, Note_on_c, 2, 69, 0
4, 55200, Note_on_c, 2, 74, 95
4, 55248, Note_on_c, 2, 74, 0
4, 55248, Note_on_c, 2, 74, 95
4, 55272, Note_on_c, 2, 74, 0
4, 55272, Note_on_c, 2, 71, 95
4, 55296, Note_on_c, 2, 71, 0
4, 55296, Note_on_c, 2, 67, 95
4, 55320, Note_on_c, 2, 67, 0
4, 55320, Note_on_c, 2, 66, 95
4, 55344, Note_on_c, 2, 66, 0
4, 55344, Note_on_c, 2, 67, 95
4, 55368, Note_on_c, 2, 67, 0
4, 55368, Note_on_c, 2, 71, 95
4, 55392, Note_on_c, 2, 71, 0
4, 55392, Note_on_c, 2, 76, 95
4, 55464, Note_on_c, 2, 76, 0
4, 55464, Note_on_c, 2, 78, 95
4, 55488, Note_on_c, 2, 78, 0
4, 55488, Note_on_c, 2, 79, 95
4, 55512, Note_on_c, 2, 79, 0
4, 55512, Note_on_c, 2, 78, 95
4, 55536, Note_on_c, 2, 78, 0
4, 55536, Note_on_c, 2, 79, 95
4, 55560, Note_on_c, 2, 79, 0
4, 55560, Note_on_c, 2, 81, 95
4, 55584, Note_on_c, 2, 81, 0
4, 55584, Note_on_c, 2, 78, 95
4, 55632, Note_on_c, 2, 78, 0
4, 55632, Note_on_c, 2, 74, 95
4, 55680, Note_on_c, 2, 74, 0
4, 55680, Note_on_c, 2, 79, 95
4, 55728, Note_on_c, 2, 79, 0
4, 55728, Note_on_c, 2, 81, 95
4, 55764, Note_on_c, 2, 81, 0
4, 55764, Note_on_c, 2, 83, 95
4, 55776, Note_on_c, 2, 83, 0
4, 55776, Note_on_c, 2, 76, 95
4, 55824, Note_on_c, 2, 76, 0
4, 55824, Note_on_c, 2, 76, 95
4, 55872, Note_on_c, 2, 76, 0
4, 55872, Note_on_c, 2, 81, 95
4, 55920, Note_on_c, 2, 81, 0
4, 55920, Note_on_c, 2, 83, 95
4, 55956, Note_on_c, 2, 83, 0
4, 55956, Note_on_c, 2, 84, 95
4, 55968, Note_on_c, 2, 84, 0
4, 55968, Note_on_c, 2, 78, 95
4, 56040, Note_on_c, 2, 78, 0
4, 56040, Note_on_c, 2, 79, 95
4, 56064, Note_on_c, 2, 79, 0
4, 56064, Note_on_c, 2, 81, 95
4, 56208, Note_on_c, 2, 81, 0
4, 56208, Note_on_c, 2, 79, 95
4, 56244, Note_on_c, 2, 79, 0
4, 56244, Note_on_c, 2, 81, 95
4, 56256, Note_on_c, 2, 81, 0
4, 56256, Note_on_c, 2, 78, 95
4, 56328, Note_on_c, 2, 78, 0
4, 56328, Note_on_c, 2, 79, 95
4, 56352, Note_on_c, 2, 79, 0
4, 56352, Note_on_c, 2, 79, 95
4, 56400, Note_on_c, 2, 79, 0
4, 56400, Note_on_c, 2, 79, 95
4, 56448, Note_on_c, 2, 79, 0
4, 56448, Note_on_c, 2, 78, 95
4, 56496, Note_on_c, 2, 78, 0
4, 56496, Note_on_c, 2, 76, 95
4, 56532, Note_on_c, 2, 76, 0
4, 56532, Note_on_c, 2, 75, 95
4, 56544, Note_on_c, 2, 75, 0
4, 56544, Note_on_c, 2, 76, 95
4, 56592, Note_on_c, 2, 76, 0
4, 56784, Note_on_c, 2, 78, 95
4, 56832, Note_on_c, 2, 78, 0
4, 56832, Note_on_c, 2, 74, 95
4, 56880, Note_on_c, 2, 74, 0
4, 56880, Note_on_c, 2, 73, 95
4, 56916, Note_on_c, 2, 73, 0
4, 56916, Note_on_c, 2, 71, 95
4, 56928, Note_on_c, 2, 71, 0
4, 56928, Note_on_c, 2, 79, 95
4, 57024, Note_on_c, 2, 79, 0
4, 58128, Note_on_c, 2, 66, 95
4, 58176, Note_on_c, 2, 66, 0
4, 58176, Note_on_c, 2, 71, 95
4, 58224, Note_on_c, 2, 71, 0
4, 58224, Note_on_c, 2, 73, 95
4, 58260, Note_on_c, 2, 73, 0
4, 58260, Note_on_c, 2, 74, 95
4, 58272, Note_on_c, 2, 74, 0
4, 58272, Note_on_c, 2, 70, 95
4, 58368, Note_on_c, 2, 70, 0
4, 58704, Note_on_c, 2, 78, 95
4, 58728, Note_on_c, 2, 78, 0
4, 58728, Note_on_c, 2, 74, 95
4, 58752, Note_on_c, 2, 74, 0
4, 58752, Note_on_c, 2, 71, 95
4, 58776, Note_on_c, 2, 71, 0
4, 58776, Note_on_c, 2, 70, 95
4, 58800, Note_on_c, 2, 70, 0
4, 58800, Note_on_c, 2, 71, 95
4, 58824, Note_on_c, 2, 71, 0
4, 58824, Note_on_c, 2, 68, 95
4, 58848, Note_on_c, 2, 68, 0
4, 58848, Note_on_c, 2, 70, 95
4, 58944, Note_on_c, 2, 70, 0
4, 59088, Note_on_c, 2, 86, 95
4, 59112, Note_on_c, 2, 86, 0
4, 59112, Note_on_c, 2, 83, 95
4, 59136, Note_on_c, 2, 83, 0
4, 59136, Note_on_c, 2, 80, 95
4, 59160, Note_on_c, 2, 80, 0
4, 59160, Note_on_c, 2, 78, 95
4, 59184, Note_on_c, 2, 78, 0
4, 59184, Note_on_c, 2, 80, 95
4, 59208, Note_on_c, 2, 80, 0
4, 59208, Note_on_c, 2, 77, 95
4, 59232, Note_on_c, 2, 77, 0
4, 59232, Note_on_c, 2, 78, 95
4, 59328, Note_on_c, 2, 78, 0
4, 59856, Note_on_c, 2, 85, 95
4, 59880, Note_on_c, 2, 85, 0
4, 59880, Note_on_c, 2, 82, 95
4, 59904, Note_on_c, 2, 82, 0
4, 59904, Note_on_c, 2, 76, 95
4, 59928, Note_on_c, 2, 76, 0
4, 59928, Note_on_c, 2, 74, 95
4, 59952, Note_on_c, 2, 74, 0
4, 59952, Note_on_c, 2, 76, 95
4, 59976, Note_on_c, 2, 76, 0
4, 59976, Note_on_c, 2, 73, 95
4, 60000, Note_on_c, 2, 73, 0
4, 60000, Note_on_c, 2, 74, 95
4, 60048, Note_on_c, 2, 74, 0
4, 60048, Note_on_c, 2, 86, 95
4, 60072, Note_on_c, 2, 86, 0
4, 60072, Note_on_c, 2, 83, 95
4, 60096, Note_on_c, 2, 83, 0
4, 60096, Note_on_c, 2, 78, 95
4, 60120, Note_on_c, 2, 78, 0
4, 60120, Note_on_c, 2, 76, 95
4, 60144, Note_on_c, 2, 76, 0
4, 60144, Note_on_c, 2, 78, 95
4, 60168, Note_on_c, 2, 78, 0
4, 60168, Note_on_c, 2, 74, 95
4, 60192, Note_on_c, 2, 74, 0
4, 60192, Note_on_c, 2, 76, 95
4, 60240, Note_on_c, 2, 76, 0
4, 60240, Note_on_c, 2, 79, 95
4, 60264, Note_on_c, 2, 79, 0
4, 60264, Note_on_c, 2, 76, 95
4, 60288, Note_on_c, 2, 76, 0
4, 60288, Note_on_c, 2, 73, 95
4, 60312, Note_on_c, 2, 73, 0
4, 60312, Note_on_c, 2, 71, 95
4, 60336, Note_on_c, 2, 71, 0
4, 60336, Note_on_c, 2, 73, 95
4, 60360, Note_on_c, 2, 73, 0
4, 60360, Note_on_c, 2, 70, 95
4, 60384, Note_on_c, 2, 70, 0
4, 60384, Note_on_c, 2, 71, 95
4, 60432, Note_on_c, 2, 71, 0
4, 60816, Note_on_c, 2, 66, 95
4, 60864, Note_on_c, 2, 66, 0
4, 60864, Note_on_c, 2, 71, 95
4, 60912, Note_on_c, 2, 71, 0
4, 60912, Note_on_c, 2, 73, 95
4, 60948, Note_on_c, 2, 73, 0
4, 60948, Note_on_c, 2, 74, 95
4, 60960, Note_on_c, 2, 74, 0
4, 60960, Note_on_c, 2, 70, 95
4, 61008, Note_on_c, 2, 70, 0
4, 61008, Note_on_c, 2, 71, 95
4, 61044, Note_on_c, 2, 71, 0
4, 61044, Note_on_c, 2, 73, 95
4, 61056, Note_on_c, 2, 73, 0
4, 61056, Note_on_c, 2, 74, 95
4, 61104, Note_on_c, 2, 74, 0
4, 61104, Note_on_c, 2, 76, 95
4, 61140, Note_on_c, 2, 76, 0
4, 61140, Note_on_c, 2, 78, 95
4, 61152, Note_on_c, 2, 78, 0
4, 61152, Note_on_c, 2, 79, 95
4, 61200, Note_on_c, 2, 79, 0
4, 61200, Note_on_c, 2, 81, 95
4, 61236, Note_on_c, 2, 81, 0
4, 61236, Note_on_c, 2, 83, 95
4, 61248, Note_on_c, 2, 83, 0
4, 61248, Note_on_c, 2, 81, 95
4, 61296, Note_on_c, 2, 81, 0
4, 61296, Note_on_c, 2, 79, 95
4, 61302, Note_on_c, 2, 79, 0
4, 61302, Note_on_c, 2, 81, 95
4, 61308, Note_on_c, 2, 81, 0
4, 61308, Note_on_c, 2, 79, 95
4, 61314, Note_on_c, 2, 79, 0
4, 61314, Note_on_c, 2, 78, 95
4, 61320, Note_on_c, 2, 78, 0
4, 61320, Note_on_c, 2, 79, 95
4, 61344, Note_on_c, 2, 79, 0
4, 61344, Note_on_c, 2, 78, 95
4, 61392, Note_on_c, 2, 78, 0
4, 61392, Note_on_c, 2, 71, 95
4, 61440, Note_on_c, 2, 71, 0
4, 61440, Note_on_c, 2, 76, 95
4, 61584, Note_on_c, 2, 76, 0
4, 61584, Note_on_c, 2, 78, 95
4, 61620, Note_on_c, 2, 78, 0
4, 61620, Note_on_c, 2, 79, 95
4, 61632, Note_on_c, 2, 79, 0
4, 61632, Note_on_c, 2, 78, 95
4, 61680, Note_on_c, 2, 78, 0
4, 61680, Note_on_c, 2, 76, 95
4, 61686, Note_on_c, 2, 76, 0
4, 61686, Note_on_c, 2, 78, 95
4, 61692, Note_on_c, 2, 78, 0
4, 61692, Note_on_c, 2, 76, 95
4, 61698, Note_on_c, 2, 76, 0
4, 61698, Note_on_c, 2, 74, 95
4, 61704, Note_on_c, 2, 74, 0
4, 61704, Note_on_c, 2, 76, 95
4, 61728, Note_on_c, 2, 76, 0
4, 61728, Note_on_c, 2, 74, 95
4, 61752, Note_on_c, 2, 74, 0
4, 61752, Note_on_c, 2, 73, 95
4, 61776, Note_on_c, 2, 73, 0
4, 61776, Note_on_c, 2, 76, 95
4, 61800, Note_on_c, 2, 76, 0
4, 61800, Note_on_c, 2, 74, 95
4, 61824, Note_on_c, 2, 74, 0
4, 61824, Note_on_c, 2, 74, 95
4, 61848, Note_on_c, 2, 74, 0
4, 61848, Note_on_c, 2, 73, 95
4, 61872, Note_on_c, 2, 73, 0
4, 61872, Note_on_c, 2, 71, 95
4, 61908, Note_on_c, 2, 71, 0
4, 61908, Note_on_c, 2, 70, 95
4, 61920, Note_on_c, 2, 70, 0
4, 61920, Note_on_c, 2, 79, 95
4, 61968, Note_on_c, 2, 79, 0
4, 61968, Note_on_c, 2, 78, 95
4, 62004, Note_on_c, 2, 78, 0
4, 62004, Note_on_c, 2, 76, 95
4, 62016, Note_on_c, 2, 76, 0
4, 62016, Note_on_c, 2, 74, 95
4, 62064, Note_on_c, 2, 74, 0
4, 62064, Note_on_c, 2, 73, 79
4, 62068, Note_on_c, 2, 73, 0
4, 62070, Note_on_c, 2, 74, 79
4, 62074, Note_on_c, 2, 74, 0
4, 62076, Note_on_c, 2, 73, 79
4, 62080, Note_on_c, 2, 73, 0
4, 62082, Note_on_c, 2, 74, 79
4, 62086, Note_on_c, 2, 74, 0
4, 62088, Note_on_c, 2, 73, 95
4, 62094, Note_on_c, 2, 73, 0
4, 62094, Note_on_c, 2, 71, 95
4, 62100, Note_on_c, 2, 73, 95
4, 62106, Note_on_c, 2, 71, 0
4, 62112, Note_on_c, 2, 73, 0
4, 62112, Note_on_c, 2, 71, 63
4, 62208, Note_on_c, 2, 71, 0
4, 62532, Note_on_c, 2, 74, 95
4, 62542, Note_on_c, 2, 74, 0
4, 62544, Note_on_c, 2, 81, 95
4, 62575, Note_on_c, 2, 81, 0
4, 62580, Note_on_c, 2, 76, 95
4, 62590, Note_on_c, 2, 76, 0
4, 62592, Note_on_c, 2, 78, 95
4, 62606, Note_on_c, 2, 78, 0
4, 62608, Note_on_c, 2, 76, 95
4, 62622, Note_on_c, 2, 76, 0
4, 62624, Note_on_c, 2, 74, 95
4, 62638, Note_on_c, 2, 74, 0
4, 62640, Note_on_c, 2, 73, 95
4, 62654, Note_on_c, 2, 73, 0
4, 62656, Note_on_c, 2, 74, 95
4, 62670, Note_on_c, 2, 74, 0
4, 62672, Note_on_c, 2, 76, 95
4, 62686, Note_on_c, 2, 76, 0
4, 62688, Note_on_c, 2, 69, 95
4, 62709, Note_on_c, 2, 69, 0
4, 62736, Note_on_c, 2, 66, 95
4, 62757, Note_on_c, 2, 66, 0
4, 62784, Note_on_c, 2, 67, 95
4, 62805, Note_on_c, 2, 67, 0
4, 62832, Note_on_c, 2, 69, 95
4, 62853, Note_on_c, 2, 69, 0
4, 62880, Note_on_c, 2, 71, 95
4, 62894, Note_on_c, 2, 71, 0
4, 62896, Note_on_c, 2, 74, 95
4, 62910, Note_on_c, 2, 74, 0
4, 62912, Note_on_c, 2, 78, 95
4, 62926, Note_on_c, 2, 78, 0
4, 62928, Note_on_c, 2, 78, 95
4, 62942, Note_on_c, 2, 78, 0
4, 62944, Note_on_c, 2, 76, 95
4, 62958, Note_on_c, 2, 76, 0
4, 62960, Note_on_c, 2, 78, 95
4, 62974, Note_on_c, 2, 78, 0
4, 62976, Note_on_c, 2, 74, 95
4, 62990, Note_on_c, 2, 74, 0
4, 62992, Note_on_c, 2, 79, 95
4, 63006, Note_on_c, 2, 79, 0
4, 63008, Note_on_c, 2, 78, 95
4, 63022, Note_on_c, 2, 78, 0
4, 63024, Note_on_c, 2, 76, 95
4, 63038, Note_on_c, 2, 76, 0
4, 63040, Note_on_c, 2, 81, 95
4, 63054, Note_on_c, 2, 81, 0
4, 63056, Note_on_c, 2, 79, 95
4, 63070, Note_on_c, 2, 79, 0
4, 63072, Note_on_c, 2, 78, 95
4, 63086, Note_on_c, 2, 78, 0
4, 63088, Note_on_c, 2, 81, 95
4, 63102, Note_on_c, 2, 81, 0
4, 63104, Note_on_c, 2, 79, 95
4, 63118, Note_on_c, 2, 79, 0
4, 63120, Note_on_c, 2, 78, 95
4, 63134, Note_on_c, 2, 78, 0
4, 63136, Note_on_c, 2, 81, 95
4, 63150, Note_on_c, 2, 81, 0
4, 63152, Note_on_c, 2, 79, 95
4, 63166, Note_on_c, 2, 79, 0
4, 63168, Note_on_c, 2, 78, 95
4, 63199, Note_on_c, 2, 78, 0
4, 63204, Note_on_c, 2, 81, 95
4, 63214, Note_on_c, 2, 81, 0
4, 63216, Note_on_c, 2, 81, 95
4, 63247, Note_on_c, 2, 81, 0
4, 63252, Note_on_c, 2, 79, 95
4, 63262, Note_on_c, 2, 79, 0
4, 63264, Note_on_c, 2, 78, 95
4, 63295, Note_on_c, 2, 78, 0
4, 63300, Note_on_c, 2, 69, 95
4, 63310, Note_on_c, 2, 69, 0
4, 63312, Note_on_c, 2, 76, 95
4, 63343, Note_on_c, 2, 76, 0
4, 63348, Note_on_c, 2, 69, 95
4, 63358, Note_on_c, 2, 69, 0
4, 63360, Note_on_c, 2, 78, 95
4, 63381, Note_on_c, 2, 78, 0
4, 63408, Note_on_c, 2, 80, 95
4, 63429, Note_on_c, 2, 80, 0
4, 63456, Note_on_c, 2, 81, 95
4, 63623, Note_on_c, 2, 81, 0
4, 63648, Note_on_c, 2, 81, 95
4, 63669, Note_on_c, 2, 81, 0
4, 63696, Note_on_c, 2, 80, 95
4, 63717, Note_on_c, 2, 80, 0
4, 63744, Note_on_c, 2, 81, 95
4, 63765, Note_on_c, 2, 81, 0
4, 63792, Note_on_c, 2, 83, 95
4, 63813, Note_on_c, 2, 83, 0
4, 63840, Note_on_c, 2, 76, 95
4, 63871, Note_on_c, 2, 76, 0
4, 63876, Note_on_c, 2, 76, 95
4, 63886, Note_on_c, 2, 76, 0
4, 63888, Note_on_c, 2, 81, 95
4, 63919, Note_on_c, 2, 81, 0
4, 63924, Note_on_c, 2, 76, 95
4, 63934, Note_on_c, 2, 76, 0
4, 63936, Note_on_c, 2, 78, 95
4, 63950, Note_on_c, 2, 78, 0
4, 63952, Note_on_c, 2, 76, 95
4, 63966, Note_on_c, 2, 76, 0
4, 63968, Note_on_c, 2, 74, 95
4, 63982, Note_on_c, 2, 74, 0
4, 63984, Note_on_c, 2, 73, 95
4, 63998, Note_on_c, 2, 73, 0
4, 64000, Note_on_c, 2, 74, 95
4, 64014, Note_on_c, 2, 74, 0
4, 64016, Note_on_c, 2, 76, 95
4, 64030, Note_on_c, 2, 76, 0
4, 64032, Note_on_c, 2, 69, 95
4, 64046, Note_on_c, 2, 69, 0
4, 64048, Note_on_c, 2, 73, 95
4, 64062, Note_on_c, 2, 73, 0
4, 64064, Note_on_c, 2, 71, 95
4, 64078, Note_on_c, 2, 71, 0
4, 64080, Note_on_c, 2, 69, 95
4, 64094, Note_on_c, 2, 69, 0
4, 64096, Note_on_c, 2, 73, 95
4, 64110, Note_on_c, 2, 73, 0
4, 64112, Note_on_c, 2, 71, 95
4, 64126, Note_on_c, 2, 71, 0
4, 64128, Note_on_c, 2, 69, 95
4, 64212, Note_on_c, 2, 69, 0
4, 64224, Note_on_c, 2, 69, 95
4, 64238, Note_on_c, 2, 69, 0
4, 64240, Note_on_c, 2, 73, 95
4, 64254, Note_on_c, 2, 73, 0
4, 64256, Note_on_c, 2, 71, 95
4, 64270, Note_on_c, 2, 71, 0
4, 64272, Note_on_c, 2, 69, 95
4, 64286, Note_on_c, 2, 69, 0
4, 64288, Note_on_c, 2, 73, 95
4, 64302, Note_on_c, 2, 73, 0
4, 64304, Note_on_c, 2, 71, 95
4, 64318, Note_on_c, 2, 71, 0
4, 64320, Note_on_c, 2, 69, 95
4, 64404, Note_on_c, 2, 69, 0
4, 64416, Note_on_c, 2, 69, 95
4, 64500, Note_on_c, 2, 69, 0
4, 64512, Note_on_c, 2, 69, 95
4, 64596, Note_on_c, 2, 69, 0
4, 64608, Note_on_c, 2, 68, 95
4, 64622, Note_on_c, 2, 68, 0
4, 64624, Note_on_c, 2, 69, 95
4, 64638, Note_on_c, 2, 69, 0
4, 64640, Note_on_c, 2, 71, 95
4, 64654, Note_on_c, 2, 71, 0
4, 64656, Note_on_c, 2, 73, 95
4, 64719, Note_on_c, 2, 73, 0
4, 64720, Note_on_c, 2, 78, 95
4, 64730, Note_on_c, 2, 78, 0
4, 64736, Note_on_c, 2, 76, 95
4, 64746, Note_on_c, 2, 76, 0
4, 64752, Note_on_c, 2, 74, 95
4, 64824, Note_on_c, 2, 74, 0
4, 64836, Note_on_c, 2, 83, 95
4, 64848, Note_on_c, 2, 83, 0
4, 64848, Note_on_c, 2, 73, 95
4, 64884, Note_on_c, 2, 73, 0
4, 64884, Note_on_c, 2, 78, 95
4, 64896, Note_on_c, 2, 78, 0
4, 64896, Note_on_c, 2, 76, 95
4, 64912, Note_on_c, 2, 76, 0
4, 64912, Note_on_c, 2, 74, 95
4, 64928, Note_on_c, 2, 74, 0
4, 64928, Note_on_c, 2, 73, 95
4, 64944, Note_on_c, 2, 73, 0
4, 64944, Note_on_c, 2, 71, 95
4, 64960, Note_on_c, 2, 71, 0
4, 64960, Note_on_c, 2, 73, 95
4, 64976, Note_on_c, 2, 73, 0
4, 64976, Note_on_c, 2, 74, 95
4, 64992, Note_on_c, 2, 74, 0
4, 64992, Note_on_c, 2, 73, 95
4, 65008, Note_on_c, 2, 73, 0
4, 65008, Note_on_c, 2, 71, 95
4, 65024, Note_on_c, 2, 71, 0
4, 65024, Note_on_c, 2, 69, 95
4, 65040, Note_on_c, 2, 69, 0
4, 65040, Note_on_c, 2, 74, 95
4, 65104, Note_on_c, 2, 73, 95
4, 65112, Note_on_c, 2, 74, 0
4, 65120, Note_on_c, 2, 73, 0
4, 65120, Note_on_c, 2, 71, 95
4, 65136, Note_on_c, 2, 71, 0
4, 65136, Note_on_c, 2, 69, 95
4, 65172, Note_on_c, 2, 69, 0
4, 65172, Note_on_c, 2, 67, 95
4, 65184, Note_on_c, 2, 67, 0
4, 65184, Note_on_c, 2, 66, 95
4, 65200, Note_on_c, 2, 66, 0
4, 65200, Note_on_c, 2, 64, 95
4, 65216, Note_on_c, 2, 64, 0
4, 65216, Note_on_c, 2, 62, 95
4, 65232, Note_on_c, 2, 62, 0
4, 65232, Note_on_c, 2, 69, 95
4, 65256, Note_on_c, 2, 69, 0
4, 65412, Note_on_c, 2, 81, 95
4, 65424, Note_on_c, 2, 81, 0
4, 65424, Note_on_c, 2, 86, 95
4, 65460, Note_on_c, 2, 86, 0
4, 65460, Note_on_c, 2, 81, 95
4, 65472, Note_on_c, 2, 81, 0
4, 65472, Note_on_c, 2, 83, 95
4, 65488, Note_on_c, 2, 83, 0
4, 65488, Note_on_c, 2, 81, 95
4, 65504, Note_on_c, 2, 81, 0
4, 65504, Note_on_c, 2, 79, 95
4, 65520, Note_on_c, 2, 79, 0
4, 65520, Note_on_c, 2, 78, 95
4, 65536, Note_on_c, 2, 78, 0
4, 65536, Note_on_c, 2, 79, 95
4, 65552, Note_on_c, 2, 79, 0
4, 65552, Note_on_c, 2, 81, 95
4, 65568, Note_on_c, 2, 81, 0
4, 65568, Note_on_c, 2, 74, 95
4, 65584, Note_on_c, 2, 74, 0
4, 65616, Note_on_c, 2, 73, 95
4, 65632, Note_on_c, 2, 73, 0
4, 65664, Note_on_c, 2, 71, 95
4, 65680, Note_on_c, 2, 71, 0
4, 65712, Note_on_c, 2, 76, 95
4, 65728, Note_on_c, 2, 76, 0
4, 65760, Note_on_c, 2, 74, 95
4, 65776, Note_on_c, 2, 74, 0
4, 65776, Note_on_c, 2, 78, 95
4, 65792, Note_on_c, 2, 78, 0
4, 65792, Note_on_c, 2, 81, 95
4, 65808, Note_on_c, 2, 81, 0
4, 65808, Note_on_c, 2, 81, 95
4, 65824, Note_on_c, 2, 81, 0
4, 65824, Note_on_c, 2, 79, 95
4, 65840, Note_on_c, 2, 79, 0
4, 65840, Note_on_c, 2, 81, 95
4, 65856, Note_on_c, 2, 81, 0
4, 65856, Note_on_c, 2, 78, 95
4, 65872, Note_on_c, 2, 78, 0
4, 65872, Note_on_c, 2, 83, 95
4, 65888, Note_on_c, 2, 83, 0
4, 65888, Note_on_c, 2, 81, 95
4, 65904, Note_on_c, 2, 81, 0
4, 65904, Note_on_c, 2, 80, 95
4, 65920, Note_on_c, 2, 80, 0
4, 65920, Note_on_c, 2, 85, 95
4, 65936, Note_on_c, 2, 85, 0
4, 65936, Note_on_c, 2, 83, 95
4, 65952, Note_on_c, 2, 83, 0
4, 65952, Note_on_c, 2, 81, 95
4, 66016, Note_on_c, 2, 83, 95
4, 66024, Note_on_c, 2, 81, 0
4, 66032, Note_on_c, 2, 83, 0
4, 66032, Note_on_c, 2, 85, 95
4, 66048, Note_on_c, 2, 85, 0
4, 66048, Note_on_c, 2, 86, 95
4, 66064, Note_on_c, 2, 86, 0
4, 66064, Note_on_c, 2, 85, 95
4, 66080, Note_on_c, 2, 85, 0
4, 66080, Note_on_c, 2, 83, 95
4, 66096, Note_on_c, 2, 83, 0
4, 66096, Note_on_c, 2, 81, 95
4, 66112, Note_on_c, 2, 81, 0
4, 66112, Note_on_c, 2, 83, 95
4, 66128, Note_on_c, 2, 83, 0
4, 66128, Note_on_c, 2, 79, 95
4, 66144, Note_on_c, 2, 79, 0
4, 66144, Note_on_c, 2, 78, 95
4, 66168, Note_on_c, 2, 78, 0
4, 66192, Note_on_c, 2, 79, 95
4, 66216, Note_on_c, 2, 79, 0
4, 66240, Note_on_c, 2, 81, 85
4, 66264, Note_on_c, 2, 81, 0
4, 66288, Note_on_c, 2, 72, 85
4, 66312, Note_on_c, 2, 72, 0
4, 66336, Note_on_c, 2, 71, 85
4, 66360, Note_on_c, 2, 71, 0
4, 66384, Note_on_c, 2, 73, 85
4, 66408, Note_on_c, 2, 73, 0
4, 66432, Note_on_c, 2, 74, 85
4, 66456, Note_on_c, 2, 74, 0
4, 66480, Note_on_c, 2, 69, 85
4, 66496, Note_on_c, 2, 69, 0
4, 66496, Note_on_c, 2, 73, 85
4, 66512, Note_on_c, 2, 73, 0
4, 66512, Note_on_c, 2, 76, 85
4, 66528, Note_on_c, 2, 76, 0
4, 66528, Note_on_c, 2, 69, 85
4, 66544, Note_on_c, 2, 69, 0
4, 66544, Note_on_c, 2, 74, 85
4, 66560, Note_on_c, 2, 74, 0
4, 66560, Note_on_c, 2, 78, 85
4, 66576, Note_on_c, 2, 78, 0
4, 66576, Note_on_c, 2, 73, 85
4, 66592, Note_on_c, 2, 73, 0
4, 66592, Note_on_c, 2, 76, 85
4, 66608, Note_on_c, 2, 76, 0
4, 66608, Note_on_c, 2, 79, 85
4, 66624, Note_on_c, 2, 79, 0
4, 66624, Note_on_c, 2, 81, 95
4, 66648, Note_on_c, 2, 81, 0
4, 66672, Note_on_c, 2, 83, 85
4, 66696, Note_on_c, 2, 83, 0
4, 66720, Note_on_c, 2, 81, 78
4, 66744, Note_on_c, 2, 81, 0
4, 66768, Note_on_c, 2, 79, 85
4, 66792, Note_on_c, 2, 79, 0
4, 66816, Note_on_c, 2, 79, 85
4, 66840, Note_on_c, 2, 79, 0
4, 66864, Note_on_c, 2, 78, 64
4, 66880, Note_on_c, 2, 78, 0
4, 66880, Note_on_c, 2, 79, 85
4, 66896, Note_on_c, 2, 79, 0
4, 66896, Note_on_c, 2, 81, 85
4, 66912, Note_on_c, 2, 81, 0
4, 66912, Note_on_c, 2, 74, 72
4, 66960, Note_on_c, 2, 74, 0
4, 66976, Note_on_c, 2, 76, 76
4, 66992, Note_on_c, 2, 76, 0
4, 66992, Note_on_c, 2, 73, 56
4, 67008, Note_on_c, 2, 73, 0
4, 67008, Note_on_c, 2, 74, 85
4, 67044, Note_on_c, 2, 74, 0
4, 67044, Note_on_c, 2, 81, 91
4, 67044, Note_on_c, 2, 81, 85
4, 67056, Note_on_c, 2, 86, 84
4, 67068, Note_on_c, 2, 81, 0
4, 67092, Note_on_c, 2, 86, 0
4, 67092, Note_on_c, 2, 81, 0
4, 67092, Note_on_c, 2, 81, 85
4, 67104, Note_on_c, 2, 81, 0
4, 67104, Note_on_c, 2, 83, 64
4, 67120, Note_on_c, 2, 83, 0
4, 67120, Note_on_c, 2, 81, 74
4, 67136, Note_on_c, 2, 81, 0
4, 67136, Note_on_c, 2, 79, 85
4, 67152, Note_on_c, 2, 79, 0
4, 67152, Note_on_c, 2, 78, 56
4, 67168, Note_on_c, 2, 78, 0
4, 67168, Note_on_c, 2, 79, 77
4, 67184, Note_on_c, 2, 79, 0
4, 67184, Note_on_c, 2, 81, 85
4, 67200, Note_on_c, 2, 81, 0
4, 67200, Note_on_c, 2, 74, 76
4, 67216, Note_on_c, 2, 74, 0
4, 67216, Note_on_c, 2, 78, 62
4, 67232, Note_on_c, 2, 78, 0
4, 67232, Note_on_c, 2, 76, 84
4, 67248, Note_on_c, 2, 76, 0
4, 67248, Note_on_c, 2, 74, 72
4, 67264, Note_on_c, 2, 74, 0
4, 67264, Note_on_c, 2, 78, 56
4, 67280, Note_on_c, 2, 78, 0
4, 67280, Note_on_c, 2, 76, 78
4, 67296, Note_on_c, 2, 76, 0
4, 67296, Note_on_c, 2, 74, 78
4, 67408, Note_on_c, 2, 81, 62
4, 67424, Note_on_c, 2, 81, 0
4, 67424, Note_on_c, 2, 79, 81
4, 67440, Note_on_c, 2, 79, 0
4, 67440, Note_on_c, 2, 74, 0
4, 67440, Note_on_c, 2, 78, 56
4, 67456, Note_on_c, 2, 78, 0
4, 67456, Note_on_c, 2, 81, 65
4, 67472, Note_on_c, 2, 81, 0
4, 67472, Note_on_c, 2, 79, 78
4, 67488, Note_on_c, 2, 79, 0
4, 67488, Note_on_c, 2, 78, 78
4, 67552, Note_on_c, 2, 78, 0
4, 67584, Note_on_c, 2, 76, 78
4, 67776, Note_on_c, 2, 76, 0
4, 67776, Note_on_c, 2, 76, 78
4, 67824, Note_on_c, 2, 76, 0
4, 67840, Note_on_c, 2, 78, 78
4, 67856, Note_on_c, 2, 78, 0
4, 67856, Note_on_c, 2, 76, 78
4, 67872, Note_on_c, 2, 76, 0
4, 67872, Note_on_c, 2, 74, 78
4, 67920, Note_on_c, 2, 74, 0
4, 67936, Note_on_c, 2, 76, 78
4, 67952, Note_on_c, 2, 76, 0
4, 67952, Note_on_c, 2, 74, 78
4, 67968, Note_on_c, 2, 74, 0
4, 67968, Note_on_c, 2, 73, 78
4, 68016, Note_on_c, 2, 73, 0
4, 68032, Note_on_c, 2, 74, 78
4, 68048, Note_on_c, 2, 74, 0
4, 68048, Note_on_c, 2, 72, 78
4, 68064, Note_on_c, 2, 72, 0
4, 68064, Note_on_c, 2, 71, 78
4, 68112, Note_on_c, 2, 71, 0
4, 68112, Note_on_c, 2, 79, 78
4, 68176, Note_on_c, 2, 73, 71
4, 68184, Note_on_c, 2, 73, 0
4, 68184, Note_on_c, 2, 79, 0
4, 68192, Note_on_c, 2, 76, 93
4, 68200, Note_on_c, 2, 76, 0
4, 68208, Note_on_c, 2, 78, 78
4, 68216, Note_on_c, 2, 78, 0
4, 68224, Note_on_c, 2, 79, 100
4, 68232, Note_on_c, 2, 79, 0
4, 68240, Note_on_c, 2, 81, 103
4, 68248, Note_on_c, 2, 81, 0
4, 68256, Note_on_c, 2, 74, 85
4, 68274, Note_on_c, 2, 74, 0
4, 68292, Note_on_c, 2, 76, 96
4, 68298, Note_on_c, 2, 76, 0
4, 68304, Note_on_c, 2, 73, 87
4, 68322, Note_on_c, 2, 73, 0
4, 68340, Note_on_c, 2, 74, 96
4, 68346, Note_on_c, 2, 74, 0
4, 68352, Note_on_c, 2, 74, 94
4, 68376, Note_on_c, 2, 74, 0
4, 68400, Note_on_c, 2, 72, 84
4, 68424, Note_on_c, 2, 72, 0
4, 68448, Note_on_c, 2, 71, 101
4, 68472, Note_on_c, 2, 71, 0
4, 68496, Note_on_c, 2, 69, 103
4, 68520, Note_on_c, 2, 69, 0
4, 68544, Note_on_c, 2, 67, 98
4, 68552, Note_on_c, 2, 67, 0
4, 68560, Note_on_c, 2, 69, 103
4, 68568, Note_on_c, 2, 69, 0
4, 68576, Note_on_c, 2, 71, 103
4, 68584, Note_on_c, 2, 71, 0
4, 68592, Note_on_c, 2, 69, 103
4, 68600, Note_on_c, 2, 69, 0
4, 68608, Note_on_c, 2, 71, 98
4, 68616, Note_on_c, 2, 71, 0
4, 68624, Note_on_c, 2, 72, 74
4, 68632, Note_on_c, 2, 72, 0
4, 68640, Note_on_c, 2, 66, 73
4, 68664, Note_on_c, 2, 66, 0
4, 68688, Note_on_c, 2, 74, 101
4, 68724, Note_on_c, 2, 74, 0
4, 68752, Note_on_c, 2, 78, 71
4, 68764, Note_on_c, 2, 78, 0
4, 68768, Note_on_c, 2, 76, 100
4, 68780, Note_on_c, 2, 76, 0
4, 68784, Note_on_c, 2, 74, 103
4, 68796, Note_on_c, 2, 74, 0
4, 68800, Note_on_c, 2, 78, 74
4, 68812, Note_on_c, 2, 78, 0
4, 68816, Note_on_c, 2, 76, 103
4, 68828, Note_on_c, 2, 76, 0
4, 68832, Note_on_c, 2, 74, 103
4, 68904, Note_on_c, 2, 74, 0
4, 68928, Note_on_c, 2, 74, 98
4, 68940, Note_on_c, 2, 74, 0
4, 68944, Note_on_c, 2, 71, 103
4, 68956, Note_on_c, 2, 71, 0
4, 68960, Note_on_c, 2, 73, 78
4, 68972, Note_on_c, 2, 73, 0
4, 68976, Note_on_c, 2, 74, 103
4, 68988, Note_on_c, 2, 74, 0
4, 68992, Note_on_c, 2, 71, 103
4, 69004, Note_on_c, 2, 71, 0
4, 69008, Note_on_c, 2, 73, 84
4, 69020, Note_on_c, 2, 73, 0
4, 69024, Note_on_c, 2, 74, 103
4, 69078, Note_on_c, 2, 74, 0
4, 69108, Note_on_c, 2, 76, 78
4, 69120, Note_on_c, 2, 76, 0
4, 69120, Note_on_c, 2, 73, 66
4, 69192, Note_on_c, 2, 73, 0
4, 69216, Note_on_c, 2, 74, 103
4, 69288, Note_on_c, 2, 74, 0
4, 69312, Note_on_c, 2, 76, 90
4, 69384, Note_on_c, 2, 76, 0
4, 69408, Note_on_c, 2, 78, 84
4, 69435, Note_on_c, 2, 78, 0
4, 69444, Note_on_c, 2, 81, 96
4, 69453, Note_on_c, 2, 81, 0
4, 69456, Note_on_c, 2, 86, 103
4, 69483, Note_on_c, 2, 86, 0
4, 69492, Note_on_c, 2, 81, 103
4, 69501, Note_on_c, 2, 81, 0
4, 69504, Note_on_c, 2, 83, 103
4, 69516, Note_on_c, 2, 83, 0
4, 69520, Note_on_c, 2, 81, 103
4, 69532, Note_on_c, 2, 81, 0
4, 69536, Note_on_c, 2, 79, 99
4, 69548, Note_on_c, 2, 79, 0
4, 69552, Note_on_c, 2, 78, 84
4, 69564, Note_on_c, 2, 78, 0
4, 69568, Note_on_c, 2, 79, 103
4, 69580, Note_on_c, 2, 79, 0
4, 69584, Note_on_c, 2, 81, 103
4, 69596, Note_on_c, 2, 81, 0
4, 69600, Note_on_c, 2, 74, 103
4, 69627, Note_on_c, 2, 74, 0
4, 69636, Note_on_c, 2, 76, 88
4, 69645, Note_on_c, 2, 76, 0
4, 69648, Note_on_c, 2, 73, 82
4, 69675, Note_on_c, 2, 73, 0
4, 69684, Note_on_c, 2, 74, 96
4, 69693, Note_on_c, 2, 74, 0
4, 69696, Note_on_c, 2, 74, 91
4, 69768, Note_on_c, 2, 74, 0
4, 69828, Note_on_c, 2, 78, 88
4, 69837, Note_on_c, 2, 78, 0
4, 69840, Note_on_c, 2, 83, 98
4, 69867, Note_on_c, 2, 83, 0
4, 69876, Note_on_c, 2, 78, 82
4, 69885, Note_on_c, 2, 78, 0
4, 69888, Note_on_c, 2, 79, 103
4, 69996, Note_on_c, 2, 79, 0
4, 70020, Note_on_c, 2, 79, 103
4, 70029, Note_on_c, 2, 79, 0
4, 70032, Note_on_c, 2, 81, 85
4, 70044, Note_on_c, 2, 81, 0
4, 70048, Note_on_c, 2, 78, 77
4, 70060, Note_on_c, 2, 78, 0
4, 70064, Note_on_c, 2, 79, 103
4, 70076, Note_on_c, 2, 79, 0
4, 70080, Note_on_c, 2, 78, 84
4, 70188, Note_on_c, 2, 78, 0
4, 70212, Note_on_c, 2, 78, 77
4, 70221, Note_on_c, 2, 78, 0
4, 70224, Note_on_c, 2, 83, 84
4, 70251, Note_on_c, 2, 83, 0
4, 70260, Note_on_c, 2, 79, 103
4, 70269, Note_on_c, 2, 79, 0
4, 70272, Note_on_c, 2, 76, 103
4, 70380, Note_on_c, 2, 76, 0
4, 70384, Note_on_c, 2, 78, 73
4, 70396, Note_on_c, 2, 78, 0
4, 70400, Note_on_c, 2, 79, 84
4, 70412, Note_on_c, 2, 79, 0
4, 70416, Note_on_c, 2, 78, 80
4, 70428, Note_on_c, 2, 78, 0
4, 70432, Note_on_c, 2, 79, 95
4, 70444, Note_on_c, 2, 79, 0
4, 70448, Note_on_c, 2, 76, 103
4, 70460, Note_on_c, 2, 76, 0
4, 70464, Note_on_c, 2, 74, 92
4, 70476, Note_on_c, 2, 74, 0
4, 70480, Note_on_c, 2, 71, 91
4, 70492, Note_on_c, 2, 71, 0
4, 70496, Note_on_c, 2, 73, 85
4, 70508, Note_on_c, 2, 73, 0
4, 70512, Note_on_c, 2, 74, 100
4, 70524, Note_on_c, 2, 74, 0
4, 70528, Note_on_c, 2, 78, 77
4, 70540, Note_on_c, 2, 78, 0
4, 70544, Note_on_c, 2, 76, 103
4, 70556, Note_on_c, 2, 76, 0
4, 70560, Note_on_c, 2, 78, 80
4, 70572, Note_on_c, 2, 78, 0
4, 70576, Note_on_c, 2, 76, 103
4, 70588, Note_on_c, 2, 76, 0
4, 70592, Note_on_c, 2, 74, 103
4, 70604, Note_on_c, 2, 74, 0
4, 70608, Note_on_c, 2, 73, 88
4, 70620, Note_on_c, 2, 73, 0
4, 70624, Note_on_c, 2, 74, 88
4, 70636, Note_on_c, 2, 74, 0
4, 70640, Note_on_c, 2, 71, 80
4, 70652, Note_on_c, 2, 71, 0
4, 70656, Note_on_c, 2, 70, 91
4, 70668, Note_on_c, 2, 70, 0
4, 70672, Note_on_c, 2, 73, 86
4, 70684, Note_on_c, 2, 73, 0
4, 70688, Note_on_c, 2, 78, 82
4, 70700, Note_on_c, 2, 78, 0
4, 70704, Note_on_c, 2, 76, 101
4, 70716, Note_on_c, 2, 76, 0
4, 70720, Note_on_c, 2, 74, 103
4, 70732, Note_on_c, 2, 74, 0
4, 70736, Note_on_c, 2, 73, 84
4, 70748, Note_on_c, 2, 73, 0
4, 70752, Note_on_c, 2, 71, 103
4, 70764, Note_on_c, 2, 71, 0
4, 70768, Note_on_c, 2, 74, 103
4, 70780, Note_on_c, 2, 74, 0
4, 70784, Note_on_c, 2, 78, 84
4, 70796, Note_on_c, 2, 78, 0
4, 70800, Note_on_c, 2, 78, 88
4, 70812, Note_on_c, 2, 78, 0
4, 70816, Note_on_c, 2, 76, 103
4, 70828, Note_on_c, 2, 76, 0
4, 70832, Note_on_c, 2, 78, 87
4, 70844, Note_on_c, 2, 78, 0
4, 70848, Note_on_c, 2, 71, 85
4, 70860, Note_on_c, 2, 71, 0
4, 70864, Note_on_c, 2, 74, 76
4, 70876, Note_on_c, 2, 74, 0
4, 70880, Note_on_c, 2, 78, 59
4, 70892, Note_on_c, 2, 78, 0
4, 70896, Note_on_c, 2, 78, 56
4, 70908, Note_on_c, 2, 78, 0
4, 70912, Note_on_c, 2, 76, 71
4, 70924, Note_on_c, 2, 76, 0
4, 70928, Note_on_c, 2, 78, 56
4, 70940, Note_on_c, 2, 78, 0
4, 70944, Note_on_c, 2, 71, 64
4, 70956, Note_on_c, 2, 71, 0
4, 70960, Note_on_c, 2, 75, 66
4, 70972, Note_on_c, 2, 75, 0
4, 70976, Note_on_c, 2, 76, 74
4, 70988, Note_on_c, 2, 76, 0
4, 70992, Note_on_c, 2, 76, 85
4, 71004, Note_on_c, 2, 76, 0
4, 71008, Note_on_c, 2, 75, 62
4, 71020, Note_on_c, 2, 75, 0
4, 71024, Note_on_c, 2, 76, 85
4, 71036, Note_on_c, 2, 76, 0
4, 71040, Note_on_c, 2, 70, 57
4, 71052, Note_on_c, 2, 70, 0
4, 71056, Note_on_c, 2, 73, 56
4, 71068, Note_on_c, 2, 73, 0
4, 71072, Note_on_c, 2, 76, 85
4, 71084, Note_on_c, 2, 76, 0
4, 71088, Note_on_c, 2, 76, 85
4, 71100, Note_on_c, 2, 76, 0
4, 71104, Note_on_c, 2, 74, 85
4, 71116, Note_on_c, 2, 74, 0
4, 71120, Note_on_c, 2, 76, 76
4, 71132, Note_on_c, 2, 76, 0
4, 71136, Note_on_c, 2, 71, 85
4, 71148, Note_on_c, 2, 71, 0
4, 71152, Note_on_c, 2, 74, 85
4, 71164, Note_on_c, 2, 74, 0
4, 71168, Note_on_c, 2, 78, 67
4, 71180, Note_on_c, 2, 78, 0
4, 71184, Note_on_c, 2, 78, 61
4, 71196, Note_on_c, 2, 78, 0
4, 71200, Note_on_c, 2, 76, 85
4, 71212, Note_on_c, 2, 76, 0
4, 71216, Note_on_c, 2, 78, 60
4, 71228, Note_on_c, 2, 78, 0
4, 71232, Note_on_c, 2, 73, 59
4, 71244, Note_on_c, 2, 73, 0
4, 71248, Note_on_c, 2, 76, 85
4, 71260, Note_on_c, 2, 76, 0
4, 71264, Note_on_c, 2, 79, 85
4, 71276, Note_on_c, 2, 79, 0
4, 71280, Note_on_c, 2, 79, 85
4, 71292, Note_on_c, 2, 79, 0
4, 71296, Note_on_c, 2, 78, 56
4, 71308, Note_on_c, 2, 78, 0
4, 71312, Note_on_c, 2, 79, 85
4, 71324, Note_on_c, 2, 79, 0
4, 71328, Note_on_c, 2, 70, 70
4, 71340, Note_on_c, 2, 70, 0
4, 71344, Note_on_c, 2, 66, 66
4, 71356, Note_on_c, 2, 66, 0
4, 71360, Note_on_c, 2, 76, 85
4, 71372, Note_on_c, 2, 76, 0
4, 71376, Note_on_c, 2, 74, 74
4, 71388, Note_on_c, 2, 74, 0
4, 71392, Note_on_c, 2, 76, 74
4, 71404, Note_on_c, 2, 76, 0
4, 71408, Note_on_c, 2, 73, 56
4, 71420, Note_on_c, 2, 73, 0
4, 71424, Note_on_c, 2, 71, 85
4, 71442, Note_on_c, 2, 71, 0
4, 71472, Note_on_c, 2, 71, 85
4, 71490, Note_on_c, 2, 71, 0
4, 71520, Note_on_c, 2, 73, 84
4, 71538, Note_on_c, 2, 73, 0
4, 71568, Note_on_c, 2, 71, 79
4, 71580, Note_on_c, 2, 71, 0
4, 71584, Note_on_c, 2, 69, 85
4, 71596, Note_on_c, 2, 69, 0
4, 71600, Note_on_c, 2, 71, 85
4, 71612, Note_on_c, 2, 71, 0
4, 71616, Note_on_c, 2, 73, 65
4, 71628, Note_on_c, 2, 73, 0
4, 71632, Note_on_c, 2, 71, 85
4, 71644, Note_on_c, 2, 71, 0
4, 71648, Note_on_c, 2, 69, 69
4, 71660, Note_on_c, 2, 69, 0
4, 71664, Note_on_c, 2, 68, 56
4, 71676, Note_on_c, 2, 68, 0
4, 71680, Note_on_c, 2, 66, 70
4, 71692, Note_on_c, 2, 66, 0
4, 71696, Note_on_c, 2, 65, 85
4, 71708, Note_on_c, 2, 65, 0
4, 71712, Note_on_c, 2, 66, 61
4, 71724, Note_on_c, 2, 66, 0
4, 71728, Note_on_c, 2, 73, 66
4, 71740, Note_on_c, 2, 73, 0
4, 71744, Note_on_c, 2, 78, 62
4, 71756, Note_on_c, 2, 78, 0
4, 71760, Note_on_c, 2, 78, 67
4, 71772, Note_on_c, 2, 78, 0
4, 71776, Note_on_c, 2, 77, 85
4, 71788, Note_on_c, 2, 77, 0
4, 71792, Note_on_c, 2, 78, 64
4, 71804, Note_on_c, 2, 78, 0
4, 71808, Note_on_c, 2, 69, 85
4, 71820, Note_on_c, 2, 69, 0
4, 71824, Note_on_c, 2, 73, 67
4, 71836, Note_on_c, 2, 73, 0
4, 71840, Note_on_c, 2, 78, 70
4, 71852, Note_on_c, 2, 78, 0
4, 71856, Note_on_c, 2, 78, 66
4, 71868, Note_on_c, 2, 78, 0
4, 71872, Note_on_c, 2, 77, 85
4, 71884, Note_on_c, 2, 77, 0
4, 71888, Note_on_c, 2, 78, 64
4, 71900, Note_on_c, 2, 78, 0
4, 71904, Note_on_c, 2, 71, 66
4, 71916, Note_on_c, 2, 71, 0
4, 71920, Note_on_c, 2, 73, 65
4, 71932, Note_on_c, 2, 73, 0
4, 71936, Note_on_c, 2, 74, 85
4, 71948, Note_on_c, 2, 74, 0
4, 71952, Note_on_c, 2, 71, 59
4, 71964, Note_on_c, 2, 71, 0
4, 71968, Note_on_c, 2, 73, 56
4, 71980, Note_on_c, 2, 73, 0
4, 71984, Note_on_c, 2, 69, 85
4, 71996, Note_on_c, 2, 69, 0
4, 72000, Note_on_c, 2, 68, 72
4, 72012, Note_on_c, 2, 68, 0
4, 72016, Note_on_c, 2, 71, 85
4, 72028, Note_on_c, 2, 71, 0
4, 72032, Note_on_c, 2, 77, 85
4, 72044, Note_on_c, 2, 77, 0
4, 72048, Note_on_c, 2, 77, 85
4, 72060, Note_on_c, 2, 77, 0
4, 72064, Note_on_c, 2, 75, 65
4, 72076, Note_on_c, 2, 75, 0
4, 72080, Note_on_c, 2, 77, 85
4, 72092, Note_on_c, 2, 77, 0
4, 72096, Note_on_c, 2, 69, 85
4, 72108, Note_on_c, 2, 69, 0
4, 72112, Note_on_c, 2, 73, 64
4, 72124, Note_on_c, 2, 73, 0
4, 72128, Note_on_c, 2, 78, 70
4, 72140, Note_on_c, 2, 78, 0
4, 72144, Note_on_c, 2, 78, 66
4, 72156, Note_on_c, 2, 78, 0
4, 72160, Note_on_c, 2, 77, 85
4, 72172, Note_on_c, 2, 77, 0
4, 72176, Note_on_c, 2, 78, 65
4, 72188, Note_on_c, 2, 78, 0
4, 72192, Note_on_c, 2, 74, 85
4, 72204, Note_on_c, 2, 74, 0
4, 72208, Note_on_c, 2, 71, 85
4, 72220, Note_on_c, 2, 71, 0
4, 72224, Note_on_c, 2, 68, 61
4, 72236, Note_on_c, 2, 68, 0
4, 72240, Note_on_c, 2, 65, 85
4, 72252, Note_on_c, 2, 65, 0
4, 72256, Note_on_c, 2, 68, 62
4, 72268, Note_on_c, 2, 68, 0
4, 72272, Note_on_c, 2, 66, 56
4, 72284, Note_on_c, 2, 66, 0
4, 72288, Note_on_c, 2, 65, 84
4, 72300, Note_on_c, 2, 65, 0
4, 72304, Note_on_c, 2, 68, 67
4, 72316, Note_on_c, 2, 68, 0
4, 72320, Note_on_c, 2, 66, 60
4, 72332, Note_on_c, 2, 66, 0
4, 72336, Note_on_c, 2, 65, 85
4, 72348, Note_on_c, 2, 65, 0
4, 72352, Note_on_c, 2, 66, 62
4, 72364, Note_on_c, 2, 66, 0
4, 72368, Note_on_c, 2, 68, 69
4, 72380, Note_on_c, 2, 68, 0
4, 72384, Note_on_c, 2, 69, 85
4, 72402, Note_on_c, 2, 69, 0
4, 72496, Note_on_c, 2, 69, 95
4, 72508, Note_on_c, 2, 69, 0
4, 72512, Note_on_c, 2, 71, 95
4, 72524, Note_on_c, 2, 71, 0
4, 72528, Note_on_c, 2, 73, 95
4, 72540, Note_on_c, 2, 73, 0
4, 72544, Note_on_c, 2, 76, 95
4, 72556, Note_on_c, 2, 76, 0
4, 72560, Note_on_c, 2, 74, 95
4, 72572, Note_on_c, 2, 74, 0
4, 72576, Note_on_c, 2, 76, 95
4, 72594, Note_on_c, 2, 76, 0
4, 72688, Note_on_c, 2, 68, 95
4, 72700, Note_on_c, 2, 68, 0
4, 72704, Note_on_c, 2, 69, 95
4, 72716, Note_on_c, 2, 69, 0
4, 72720, Note_on_c, 2, 71, 95
4, 72732, Note_on_c, 2, 71, 0
4, 72736, Note_on_c, 2, 74, 95
4, 72748, Note_on_c, 2, 74, 0
4, 72752, Note_on_c, 2, 73, 95
4, 72764, Note_on_c, 2, 73, 0
4, 72768, Note_on_c, 2, 74, 95
4, 72773, Note_on_c, 2, 74, 0
4, 72774, Note_on_c, 2, 76, 95
4, 72779, Note_on_c, 2, 76, 0
4, 72780, Note_on_c, 2, 74, 95
4, 72785, Note_on_c, 2, 74, 0
4, 72786, Note_on_c, 2, 76, 95
4, 72791, Note_on_c, 2, 76, 0
4, 72792, Note_on_c, 2, 74, 95
4, 72797, Note_on_c, 2, 74, 0
4, 72798, Note_on_c, 2, 76, 95
4, 72803, Note_on_c, 2, 76, 0
4, 72804, Note_on_c, 2, 74, 95
4, 72809, Note_on_c, 2, 74, 0
4, 72810, Note_on_c, 2, 76, 95
4, 72815, Note_on_c, 2, 76, 0
4, 72816, Note_on_c, 2, 74, 95
4, 72821, Note_on_c, 2, 74, 0
4, 72822, Note_on_c, 2, 76, 95
4, 72827, Note_on_c, 2, 76, 0
4, 72828, Note_on_c, 2, 74, 95
4, 72833, Note_on_c, 2, 74, 0
4, 72834, Note_on_c, 2, 76, 95
4, 72839, Note_on_c, 2, 76, 0
4, 72840, Note_on_c, 2, 74, 95
4, 72864, Note_on_c, 2, 74, 0
4, 72864, Note_on_c, 2, 73, 95
4, 72869, Note_on_c, 2, 73, 0
4, 72870, Note_on_c, 2, 74, 95
4, 72875, Note_on_c, 2, 74, 0
4, 72876, Note_on_c, 2, 73, 95
4, 72881, Note_on_c, 2, 73, 0
4, 72882, Note_on_c, 2, 74, 95
4, 72887, Note_on_c, 2, 74, 0
4, 72888, Note_on_c, 2, 73, 95
4, 72893, Note_on_c, 2, 73, 0
4, 72894, Note_on_c, 2, 74, 95
4, 72899, Note_on_c, 2, 74, 0
4, 72900, Note_on_c, 2, 73, 95
4, 72905, Note_on_c, 2, 73, 0
4, 72906, Note_on_c, 2, 74, 95
4, 72911, Note_on_c, 2, 74, 0
4, 72912, Note_on_c, 2, 73, 95
4, 72917, Note_on_c, 2, 73, 0
4, 72918, Note_on_c, 2, 74, 95
4, 72923, Note_on_c, 2, 74, 0
4, 72924, Note_on_c, 2, 73, 95
4, 72929, Note_on_c, 2, 73, 0
4, 72930, Note_on_c, 2, 74, 95
4, 72935, Note_on_c, 2, 74, 0
4, 72936, Note_on_c, 2, 73, 95
4, 72941, Note_on_c, 2, 73, 0
4, 72942, Note_on_c, 2, 74, 95
4, 72947, Note_on_c, 2, 74, 0
4, 72948, Note_on_c, 2, 73, 95
4, 72960, Note_on_c, 2, 73, 0
4, 72960, Note_on_c, 2, 71, 95
4, 72965, Note_on_c, 2, 71, 0
4, 72966, Note_on_c, 2, 73, 95
4, 72971, Note_on_c, 2, 73, 0
4, 72972, Note_on_c, 2, 71, 95
4, 72977, Note_on_c, 2, 71, 0
4, 72978, Note_on_c, 2, 73, 95
4, 72983, Note_on_c, 2, 73, 0
4, 72984, Note_on_c, 2, 71, 95
4, 72989, Note_on_c, 2, 71, 0
4, 72990, Note_on_c, 2, 73, 95
4, 72995, Note_on_c, 2, 73, 0
4, 72996, Note_on_c, 2, 71, 95
4, 73001, Note_on_c, 2, 71, 0
4, 73002, Note_on_c, 2, 73, 95
4, 73007, Note_on_c, 2, 73, 0
4, 73008, Note_on_c, 2, 71, 95
4, 73013, Note_on_c, 2, 71, 0
4, 73014, Note_on_c, 2, 73, 95
4, 73019, Note_on_c, 2, 73, 0
4, 73020, Note_on_c, 2, 71, 95
4, 73025, Note_on_c, 2, 71, 0
4, 73026, Note_on_c, 2, 73, 95
4, 73031, Note_on_c, 2, 73, 0
4, 73032, Note_on_c, 2, 71, 95
4, 73037, Note_on_c, 2, 71, 0
4, 73038, Note_on_c, 2, 73, 95
4, 73043, Note_on_c, 2, 73, 0
4, 73044, Note_on_c, 2, 71, 95
4, 73056, Note_on_c, 2, 71, 0
4, 73056, Note_on_c, 2, 71, 85
4, 73068, Note_on_c, 2, 71, 0
4, 73072, Note_on_c, 2, 68, 56
4, 73084, Note_on_c, 2, 68, 0
4, 73088, Note_on_c, 2, 69, 85
4, 73100, Note_on_c, 2, 69, 0
4, 73104, Note_on_c, 2, 71, 85
4, 73116, Note_on_c, 2, 71, 0
4, 73120, Note_on_c, 2, 68, 68
4, 73132, Note_on_c, 2, 68, 0
4, 73136, Note_on_c, 2, 69, 85
4, 73148, Note_on_c, 2, 69, 0
4, 73152, Note_on_c, 2, 71, 85
4, 73248, Note_on_c, 2, 71, 0
4, 73248, Note_on_c, 2, 69, 85
4, 73296, Note_on_c, 2, 69, 0
4, 73296, Note_on_c, 2, 81, 85
4, 73392, Note_on_c, 2, 81, 0
4, 73392, Note_on_c, 2, 80, 67
4, 73488, Note_on_c, 2, 80, 0
4, 73488, Note_on_c, 2, 85, 88
4, 73584, Note_on_c, 2, 85, 0
4, 73584, Note_on_c, 2, 83, 85
4, 73620, Note_on_c, 2, 83, 0
4, 73620, Note_on_c, 2, 81, 85
4, 73632, Note_on_c, 2, 81, 0
4, 73632, Note_on_c, 2, 80, 57
4, 73776, Note_on_c, 2, 80, 0
4, 73776, Note_on_c, 2, 78, 59
4, 73812, Note_on_c, 2, 78, 0
4, 73812, Note_on_c, 2, 76, 81
4, 73824, Note_on_c, 2, 76, 0
4, 73824, Note_on_c, 2, 74, 85
4, 73968, Note_on_c, 2, 74, 0
4, 73968, Note_on_c, 2, 73, 66
4, 74004, Note_on_c, 2, 73, 0
4, 74004, Note_on_c, 2, 71, 85
4, 74016, Note_on_c, 2, 71, 0
4, 74016, Note_on_c, 2, 70, 61
4, 74064, Note_on_c, 2, 70, 0
4, 74148, Note_on_c, 2, 78, 72
4, 74160, Note_on_c, 2, 78, 0
4, 74160, Note_on_c, 2, 85, 95
4, 74196, Note_on_c, 2, 85, 0
4, 74196, Note_on_c, 2, 80, 72
4, 74208, Note_on_c, 2, 80, 0
4, 74208, Note_on_c, 2, 81, 67
4, 74224, Note_on_c, 2, 81, 0
4, 74224, Note_on_c, 2, 80, 62
4, 74240, Note_on_c, 2, 80, 0
4, 74240, Note_on_c, 2, 78, 56
4, 74256, Note_on_c, 2, 78, 0
4, 74256, Note_on_c, 2, 77, 56
4, 74272, Note_on_c, 2, 77, 0
4, 74272, Note_on_c, 2, 78, 56
4, 74288, Note_on_c, 2, 78, 0
4, 74288, Note_on_c, 2, 80, 61
4, 74304, Note_on_c, 2, 80, 0
4, 74304, Note_on_c, 2, 73, 66
4, 74352, Note_on_c, 2, 73, 0
4, 74352, Note_on_c, 2, 78, 76
4, 74424, Note_on_c, 2, 78, 0
4, 74436, Note_on_c, 2, 80, 62
4, 74448, Note_on_c, 2, 80, 0
4, 74448, Note_on_c, 2, 77, 85
4, 74484, Note_on_c, 2, 77, 0
4, 74484, Note_on_c, 2, 78, 57
4, 74496, Note_on_c, 2, 78, 0
4, 74496, Note_on_c, 2, 78, 89
4, 74688, Note_on_c, 2, 78, 0
4, 74724, Note_on_c, 2, 78, 70
4, 74736, Note_on_c, 2, 78, 0
4, 74736, Note_on_c, 2, 83, 85
4, 74772, Note_on_c, 2, 83, 0
4, 74772, Note_on_c, 2, 78, 85
4, 74784, Note_on_c, 2, 78, 0
4, 74784, Note_on_c, 2, 79, 85
4, 74800, Note_on_c, 2, 79, 0
4, 74800, Note_on_c, 2, 78, 85
4, 74816, Note_on_c, 2, 78, 0
4, 74816, Note_on_c, 2, 76, 85
4, 74832, Note_on_c, 2, 76, 0
4, 74832, Note_on_c, 2, 75, 85
4, 74848, Note_on_c, 2, 75, 0
4, 74848, Note_on_c, 2, 76, 85
4, 74864, Note_on_c, 2, 76, 0
4, 74864, Note_on_c, 2, 78, 85
4, 74880, Note_on_c, 2, 78, 0
4, 74880, Note_on_c, 2, 71, 85
4, 74896, Note_on_c, 2, 71, 0
4, 74896, Note_on_c, 2, 76, 85
4, 74912, Note_on_c, 2, 76, 0
4, 74912, Note_on_c, 2, 79, 85
4, 74928, Note_on_c, 2, 79, 0
4, 74928, Note_on_c, 2, 83, 85
4, 74944, Note_on_c, 2, 83, 0
4, 74944, Note_on_c, 2, 81, 85
4, 74960, Note_on_c, 2, 81, 0
4, 74960, Note_on_c, 2, 83, 85
4, 74976, Note_on_c, 2, 83, 0
4, 74976, Note_on_c, 2, 76, 85
4, 74992, Note_on_c, 2, 76, 0
4, 74992, Note_on_c, 2, 74, 85
4, 75008, Note_on_c, 2, 74, 0
4, 75008, Note_on_c, 2, 73, 85
4, 75024, Note_on_c, 2, 73, 0
4, 75024, Note_on_c, 2, 74, 85
4, 75088, Note_on_c, 2, 73, 85
4, 75096, Note_on_c, 2, 74, 0
4, 75104, Note_on_c, 2, 73, 0
4, 75104, Note_on_c, 2, 76, 85
4, 75120, Note_on_c, 2, 76, 0
4, 75120, Note_on_c, 2, 81, 85
4, 75156, Note_on_c, 2, 81, 0
4, 75156, Note_on_c, 2, 76, 85
4, 75168, Note_on_c, 2, 76, 0
4, 75168, Note_on_c, 2, 78, 85
4, 75184, Note_on_c, 2, 78, 0
4, 75184, Note_on_c, 2, 76, 85
4, 75200, Note_on_c, 2, 76, 0
4, 75200, Note_on_c, 2, 74, 85
4, 75216, Note_on_c, 2, 74, 0
4, 75216, Note_on_c, 2, 73, 85
4, 75232, Note_on_c, 2, 73, 0
4, 75232, Note_on_c, 2, 74, 85
4, 75248, Note_on_c, 2, 74, 0
4, 75248, Note_on_c, 2, 76, 85
4, 75264, Note_on_c, 2, 76, 0
4, 75264, Note_on_c, 2, 69, 85
4, 75300, Note_on_c, 2, 69, 0
4, 75300, Note_on_c, 2, 68, 85
4, 75312, Note_on_c, 2, 68, 0
4, 75312, Note_on_c, 2, 66, 85
4, 75328, Note_on_c, 2, 66, 0
4, 75328, Note_on_c, 2, 69, 85
4, 75344, Note_on_c, 2, 69, 0
4, 75344, Note_on_c, 2, 74, 85
4, 75360, Note_on_c, 2, 74, 0
4, 75360, Note_on_c, 2, 74, 85
4, 75396, Note_on_c, 2, 74, 0
4, 75396, Note_on_c, 2, 73, 85
4, 75399, Note_on_c, 2, 73, 0
4, 75400, Note_on_c, 2, 71, 85
4, 75403, Note_on_c, 2, 71, 0
4, 75404, Note_on_c, 2, 69, 85
4, 75407, Note_on_c, 2, 69, 0
4, 75408, Note_on_c, 2, 68, 85
4, 75419, Note_on_c, 2, 68, 0
4, 75424, Note_on_c, 2, 71, 85
4, 75440, Note_on_c, 2, 71, 0
4, 75440, Note_on_c, 2, 76, 85
4, 75456, Note_on_c, 2, 76, 0
4, 75456, Note_on_c, 2, 76, 85
4, 75492, Note_on_c, 2, 76, 0
4, 75492, Note_on_c, 2, 74, 85
4, 75496, Note_on_c, 2, 74, 0
4, 75496, Note_on_c, 2, 73, 85
4, 75500, Note_on_c, 2, 73, 0
4, 75500, Note_on_c, 2, 71, 85
4, 75504, Note_on_c, 2, 71, 0
4, 75504, Note_on_c, 2, 69, 85
4, 75520, Note_on_c, 2, 69, 0
4, 75520, Note_on_c, 2, 73, 85
4, 75536, Note_on_c, 2, 73, 0
4, 75536, Note_on_c, 2, 78, 85
4, 75552, Note_on_c, 2, 78, 0
4, 75552, Note_on_c, 2, 78, 85
4, 75588, Note_on_c, 2, 78, 0
4, 75588, Note_on_c, 2, 76, 85
4, 75592, Note_on_c, 2, 76, 0
4, 75592, Note_on_c, 2, 74, 85
4, 75596, Note_on_c, 2, 74, 0
4, 75596, Note_on_c, 2, 73, 85
4, 75600, Note_on_c, 2, 73, 0
4, 75600, Note_on_c, 2, 71, 85
4, 75616, Note_on_c, 2, 71, 0
4, 75616, Note_on_c, 2, 74, 85
4, 75632, Note_on_c, 2, 74, 0
4, 75632, Note_on_c, 2, 80, 85
4, 75648, Note_on_c, 2, 80, 0
4, 75648, Note_on_c, 2, 80, 85
4, 75684, Note_on_c, 2, 80, 0
4, 75684, Note_on_c, 2, 78, 85
4, 75688, Note_on_c, 2, 78, 0
4, 75688, Note_on_c, 2, 76, 85
4, 75692, Note_on_c, 2, 76, 0
4, 75692, Note_on_c, 2, 74, 85
4, 75696, Note_on_c, 2, 74, 0
4, 75696, Note_on_c, 2, 73, 85
4, 75712, Note_on_c, 2, 73, 0
4, 75712, Note_on_c, 2, 76, 85
4, 75728, Note_on_c, 2, 76, 0
4, 75728, Note_on_c, 2, 81, 85
4, 75744, Note_on_c, 2, 81, 0
4, 75744, Note_on_c, 2, 81, 85
4, 75780, Note_on_c, 2, 81, 0
4, 75780, Note_on_c, 2, 79, 85
4, 75784, Note_on_c, 2, 79, 0
4, 75784, Note_on_c, 2, 78, 85
4, 75788, Note_on_c, 2, 78, 0
4, 75788, Note_on_c, 2, 76, 85
4, 75792, Note_on_c, 2, 76, 0
4, 75792, Note_on_c, 2, 74, 85
4, 75808, Note_on_c, 2, 74, 0
4, 75808, Note_on_c, 2, 78, 85
4, 75824, Note_on_c, 2, 78, 0
4, 75824, Note_on_c, 2, 83, 85
4, 75840, Note_on_c, 2, 83, 0
4, 75840, Note_on_c, 2, 76, 85
4, 75856, Note_on_c, 2, 76, 0
4, 75856, Note_on_c, 2, 78, 85
4, 75872, Note_on_c, 2, 78, 0
4, 75872, Note_on_c, 2, 80, 85
4, 75888, Note_on_c, 2, 80, 0
4, 75888, Note_on_c, 2, 81, 85
4, 76032, Note_on_c, 2, 81, 0
4, 76032, Note_on_c, 2, 81, 85
4, 76128, Note_on_c, 2, 81, 0
4, 76128, Note_on_c, 2, 81, 85
4, 76144, Note_on_c, 2, 81, 0
4, 76144, Note_on_c, 2, 80, 85
4, 76160, Note_on_c, 2, 80, 0
4, 76160, Note_on_c, 2, 78, 85
4, 76176, Note_on_c, 2, 78, 0
4, 76176, Note_on_c, 2, 83, 85
4, 76192, Note_on_c, 2, 83, 0
4, 76192, Note_on_c, 2, 85, 85
4, 76208, Note_on_c, 2, 85, 0
4, 76208, Note_on_c, 2, 81, 85
4, 76224, Note_on_c, 2, 81, 0
4, 76224, Note_on_c, 2, 80, 85
4, 76240, Note_on_c, 2, 80, 0
4, 76240, Note_on_c, 2, 78, 85
4, 76256, Note_on_c, 2, 78, 0
4, 76256, Note_on_c, 2, 76, 85
4, 76272, Note_on_c, 2, 76, 0
4, 76272, Note_on_c, 2, 81, 85
4, 76308, Note_on_c, 2, 81, 0
4, 76308, Note_on_c, 2, 74, 85
4, 76320, Note_on_c, 2, 74, 0
4, 76320, Note_on_c, 2, 73, 85
4, 76344, Note_on_c, 2, 73, 0
4, 76368, Note_on_c, 2, 71, 85
4, 76374, Note_on_c, 2, 71, 0
4, 76374, Note_on_c, 2, 73, 85
4, 76380, Note_on_c, 2, 73, 0
4, 76380, Note_on_c, 2, 71, 85
4, 76386, Note_on_c, 2, 71, 0
4, 76386, Note_on_c, 2, 73, 85
4, 76392, Note_on_c, 2, 73, 0
4, 76392, Note_on_c, 2, 71, 85
4, 76398, Note_on_c, 2, 71, 0
4, 76416, Note_on_c, 2, 69, 85
4, 76432, Note_on_c, 2, 69, 0
4, 76432, Note_on_c, 2, 73, 85
4, 76448, Note_on_c, 2, 73, 0
4, 76448, Note_on_c, 2, 76, 85
4, 76464, Note_on_c, 2, 76, 0
4, 76464, Note_on_c, 2, 76, 85
4, 76480, Note_on_c, 2, 76, 0
4, 76480, Note_on_c, 2, 74, 85
4, 76496, Note_on_c, 2, 74, 0
4, 76496, Note_on_c, 2, 76, 85
4, 76512, Note_on_c, 2, 76, 0
4, 76512, Note_on_c, 2, 69, 85
4, 76528, Note_on_c, 2, 69, 0
4, 76528, Note_on_c, 2, 73, 85
4, 76544, Note_on_c, 2, 73, 0
4, 76544, Note_on_c, 2, 76, 85
4, 76560, Note_on_c, 2, 76, 0
4, 76560, Note_on_c, 2, 76, 85
4, 76576, Note_on_c, 2, 76, 0
4, 76576, Note_on_c, 2, 74, 85
4, 76592, Note_on_c, 2, 74, 0
4, 76592, Note_on_c, 2, 76, 85
4, 76608, Note_on_c, 2, 76, 0
4, 76608, Note_on_c, 2, 69, 85
4, 76624, Note_on_c, 2, 69, 0
4, 76624, Note_on_c, 2, 73, 56
4, 76640, Note_on_c, 2, 73, 0
4, 76640, Note_on_c, 2, 74, 85
4, 76656, Note_on_c, 2, 74, 0
4, 76656, Note_on_c, 2, 74, 85
4, 76672, Note_on_c, 2, 74, 0
4, 76672, Note_on_c, 2, 73, 56
4, 76688, Note_on_c, 2, 73, 0
4, 76688, Note_on_c, 2, 74, 85
4, 76704, Note_on_c, 2, 74, 0
4, 76704, Note_on_c, 2, 68, 62
4, 76720, Note_on_c, 2, 68, 0
4, 76720, Note_on_c, 2, 71, 67
4, 76736, Note_on_c, 2, 71, 0
4, 76736, Note_on_c, 2, 74, 85
4, 76752, Note_on_c, 2, 74, 0
4, 76752, Note_on_c, 2, 74, 85
4, 76768, Note_on_c, 2, 74, 0
4, 76768, Note_on_c, 2, 73, 66
4, 76784, Note_on_c, 2, 73, 0
4, 76784, Note_on_c, 2, 74, 85
4, 76800, Note_on_c, 2, 74, 0
4, 76800, Note_on_c, 2, 69, 85
4, 76816, Note_on_c, 2, 69, 0
4, 76816, Note_on_c, 2, 73, 56
4, 76832, Note_on_c, 2, 73, 0
4, 76832, Note_on_c, 2, 76, 85
4, 76848, Note_on_c, 2, 76, 0
4, 76848, Note_on_c, 2, 76, 62
4, 76864, Note_on_c, 2, 76, 0
4, 76864, Note_on_c, 2, 74, 85
4, 76880, Note_on_c, 2, 74, 0
4, 76880, Note_on_c, 2, 76, 85
4, 76896, Note_on_c, 2, 76, 0
4, 76896, Note_on_c, 2, 71, 74
4, 76912, Note_on_c, 2, 71, 0
4, 76912, Note_on_c, 2, 74, 76
4, 76928, Note_on_c, 2, 74, 0
4, 76928, Note_on_c, 2, 78, 69
4, 76944, Note_on_c, 2, 78, 0
4, 76944, Note_on_c, 2, 78, 64
4, 76960, Note_on_c, 2, 78, 0
4, 76960, Note_on_c, 2, 76, 76
4, 76976, Note_on_c, 2, 76, 0
4, 76976, Note_on_c, 2, 78, 56
4, 76992, Note_on_c, 2, 78, 0
4, 76992, Note_on_c, 2, 68, 59
4, 77008, Note_on_c, 2, 68, 0
4, 77008, Note_on_c, 2, 64, 56
4, 77024, Note_on_c, 2, 64, 0
4, 77024, Note_on_c, 2, 74, 85
4, 77040, Note_on_c, 2, 74, 0
4, 77040, Note_on_c, 2, 73, 61
4, 77056, Note_on_c, 2, 73, 0
4, 77056, Note_on_c, 2, 74, 85
4, 77072, Note_on_c, 2, 74, 0
4, 77072, Note_on_c, 2, 71, 85
4, 77088, Note_on_c, 2, 71, 0
4, 77088, Note_on_c, 2, 69, 85
4, 77112, Note_on_c, 2, 69, 0
4, 77316, Note_on_c, 2, 71, 85
4, 77328, Note_on_c, 2, 71, 0
4, 77328, Note_on_c, 2, 76, 85
4, 77364, Note_on_c, 2, 76, 0
4, 77364, Note_on_c, 2, 71, 72
4, 77376, Note_on_c, 2, 71, 0
4, 77376, Note_on_c, 2, 72, 61
4, 77392, Note_on_c, 2, 72, 0
4, 77392, Note_on_c, 2, 71, 70
4, 77408, Note_on_c, 2, 71, 0
4, 77408, Note_on_c, 2, 69, 85
4, 77424, Note_on_c, 2, 69, 0
4, 77424, Note_on_c, 2, 67, 84
4, 77440, Note_on_c, 2, 67, 0
4, 77440, Note_on_c, 2, 69, 76
4, 77456, Note_on_c, 2, 69, 0
4, 77456, Note_on_c, 2, 71, 85
4, 77472, Note_on_c, 2, 71, 0
4, 77472, Note_on_c, 2, 64, 85
4, 77496, Note_on_c, 2, 64, 0
4, 77700, Note_on_c, 2, 66, 62
4, 77712, Note_on_c, 2, 66, 0
4, 77712, Note_on_c, 2, 71, 56
4, 77748, Note_on_c, 2, 71, 0
4, 77748, Note_on_c, 2, 66, 66
4, 77760, Note_on_c, 2, 66, 0
4, 77760, Note_on_c, 2, 67, 79
4, 77776, Note_on_c, 2, 67, 0
4, 77776, Note_on_c, 2, 66, 56
4, 77792, Note_on_c, 2, 66, 0
4, 77792, Note_on_c, 2, 64, 76
4, 77808, Note_on_c, 2, 64, 0
4, 77808, Note_on_c, 2, 62, 85
4, 77824, Note_on_c, 2, 62, 0
4, 77824, Note_on_c, 2, 64, 85
4, 77840, Note_on_c, 2, 64, 0
4, 77840, Note_on_c, 2, 66, 62
4, 77856, Note_on_c, 2, 66, 0
4, 77856, Note_on_c, 2, 71, 85
4, 77880, Note_on_c, 2, 71, 0
4, 79236, Note_on_c, 2, 73, 65
4, 79248, Note_on_c, 2, 73, 0
4, 79248, Note_on_c, 2, 78, 59
4, 79284, Note_on_c, 2, 78, 0
4, 79284, Note_on_c, 2, 73, 68
4, 79296, Note_on_c, 2, 73, 0
4, 79296, Note_on_c, 2, 75, 70
4, 79344, Note_on_c, 2, 75, 0
4, 79428, Note_on_c, 2, 71, 85
4, 79440, Note_on_c, 2, 71, 0
4, 79440, Note_on_c, 2, 76, 85
4, 79476, Note_on_c, 2, 76, 0
4, 79476, Note_on_c, 2, 71, 85
4, 79488, Note_on_c, 2, 71, 0
4, 79488, Note_on_c, 2, 73, 66
4, 79536, Note_on_c, 2, 73, 0
4, 79620, Note_on_c, 2, 69, 85
4, 79632, Note_on_c, 2, 69, 0
4, 79632, Note_on_c, 2, 74, 85
4, 79668, Note_on_c, 2, 74, 0
4, 79668, Note_on_c, 2, 69, 85
4, 79680, Note_on_c, 2, 69, 0
4, 79680, Note_on_c, 2, 71, 56
4, 79696, Note_on_c, 2, 71, 0
4, 79696, Note_on_c, 2, 69, 85
4, 79712, Note_on_c, 2, 69, 0
4, 79712, Note_on_c, 2, 67, 74
4, 79728, Note_on_c, 2, 67, 0
4, 79728, Note_on_c, 2, 66, 56
4, 79744, Note_on_c, 2, 66, 0
4, 79744, Note_on_c, 2, 67, 85
4, 79760, Note_on_c, 2, 67, 0
4, 79760, Note_on_c, 2, 69, 85
4, 79776, Note_on_c, 2, 69, 0
4, 79776, Note_on_c, 2, 62, 85
4, 79824, Note_on_c, 2, 62, 0
4, 80352, Note_on_c, 2, 76, 57
4, 80368, Note_on_c, 2, 76, 0
4, 80368, Note_on_c, 2, 73, 56
4, 80384, Note_on_c, 2, 73, 0
4, 80384, Note_on_c, 2, 74, 88
4, 80400, Note_on_c, 2, 74, 0
4, 80400, Note_on_c, 2, 76, 80
4, 80416, Note_on_c, 2, 76, 0
4, 80416, Note_on_c, 2, 73, 56
4, 80432, Note_on_c, 2, 73, 0
4, 80432, Note_on_c, 2, 74, 77
4, 80448, Note_on_c, 2, 74, 0
4, 80448, Note_on_c, 2, 76, 60
4, 80544, Note_on_c, 2, 76, 0
4, 80544, Note_on_c, 2, 76, 66
4, 80560, Note_on_c, 2, 76, 0
4, 80560, Note_on_c, 2, 79, 88
4, 80576, Note_on_c, 2, 79, 0
4, 80576, Note_on_c, 2, 78, 56
4, 80592, Note_on_c, 2, 78, 0
4, 80592, Note_on_c, 2, 76, 59
4, 80608, Note_on_c, 2, 76, 0
4, 80608, Note_on_c, 2, 79, 72
4, 80624, Note_on_c, 2, 79, 0
4, 80624, Note_on_c, 2, 78, 62
4, 80640, Note_on_c, 2, 78, 0
4, 80640, Note_on_c, 2, 76, 80
4, 80664, Note_on_c, 2, 76, 0
4, 80772, Note_on_c, 2, 78, 65
4, 80784, Note_on_c, 2, 78, 0
4, 80784, Note_on_c, 2, 83, 76
4, 80856, Note_on_c, 2, 83, 0
4, 80868, Note_on_c, 2, 76, 85
4, 80880, Note_on_c, 2, 76, 0
4, 80880, Note_on_c, 2, 81, 88
4, 80952, Note_on_c, 2, 81, 0
4, 80964, Note_on_c, 2, 83, 88
4, 80976, Note_on_c, 2, 83, 0
4, 80976, Note_on_c, 2, 80, 74
4, 81048, Note_on_c, 2, 80, 0
4, 81060, Note_on_c, 2, 81, 88
4, 81072, Note_on_c, 2, 81, 0
4, 81072, Note_on_c, 2, 78, 63
4, 81108, Note_on_c, 2, 78, 0
4, 81108, Note_on_c, 2, 80, 71
4, 81120, Note_on_c, 2, 80, 0
4, 81120, Note_on_c, 2, 77, 88
4, 81156, Note_on_c, 2, 77, 0
4, 81156, Note_on_c, 2, 78, 66
4, 81168, Note_on_c, 2, 78, 0
4, 81168, Note_on_c, 2, 78, 60
4, 81174, Note_on_c, 2, 78, 0
4, 81174, Note_on_c, 2, 80, 56
4, 81180, Note_on_c, 2, 80, 0
4, 81180, Note_on_c, 2, 78, 56
4, 81186, Note_on_c, 2, 78, 0
4, 81186, Note_on_c, 2, 80, 56
4, 81192, Note_on_c, 2, 80, 0
4, 81192, Note_on_c, 2, 78, 56
4, 81198, Note_on_c, 2, 78, 0
4, 81198, Note_on_c, 2, 80, 56
4, 81204, Note_on_c, 2, 80, 0
4, 81204, Note_on_c, 2, 77, 57
4, 81210, Note_on_c, 2, 77, 0
4, 81210, Note_on_c, 2, 78, 56
4, 81216, Note_on_c, 2, 78, 0
4, 81216, Note_on_c, 2, 80, 66
4, 81288, Note_on_c, 2, 80, 0
4, 81300, Note_on_c, 2, 73, 57
4, 81312, Note_on_c, 2, 73, 0
4, 81312, Note_on_c, 2, 81, 88
4, 81408, Note_on_c, 2, 81, 0
4, 81408, Note_on_c, 2, 81, 74
4, 81424, Note_on_c, 2, 81, 0
4, 81424, Note_on_c, 2, 80, 62
4, 81440, Note_on_c, 2, 80, 0
4, 81440, Note_on_c, 2, 78, 56
4, 81456, Note_on_c, 2, 78, 0
4, 81456, Note_on_c, 2, 80, 65
4, 81472, Note_on_c, 2, 80, 0
4, 81472, Note_on_c, 2, 81, 88
4, 81488, Note_on_c, 2, 81, 0
4, 81488, Note_on_c, 2, 83, 88
4, 81504, Note_on_c, 2, 83, 0
4, 81504, Note_on_c, 2, 85, 65
4, 81600, Note_on_c, 2, 85, 0
4, 81600, Note_on_c, 2, 85, 66
4, 81616, Note_on_c, 2, 85, 0
4, 81616, Note_on_c, 2, 83, 80
4, 81632, Note_on_c, 2, 83, 0
4, 81632, Note_on_c, 2, 81, 56
4, 81648, Note_on_c, 2, 81, 0
4, 81648, Note_on_c, 2, 83, 88
4, 81664, Note_on_c, 2, 83, 0
4, 81664, Note_on_c, 2, 85, 59
4, 81680, Note_on_c, 2, 85, 0
4, 81680, Note_on_c, 2, 86, 88
4, 81696, Note_on_c, 2, 86, 0
4, 81696, Note_on_c, 2, 77, 81
4, 81744, Note_on_c, 2, 77, 0
4, 81744, Note_on_c, 2, 76, 88
4, 81808, Note_on_c, 2, 74, 65
4, 81816, Note_on_c, 2, 76, 0
4, 81824, Note_on_c, 2, 74, 0
4, 81824, Note_on_c, 2, 73, 60
4, 81840, Note_on_c, 2, 73, 0
4, 81840, Note_on_c, 2, 74, 77
4, 81856, Note_on_c, 2, 74, 0
4, 81856, Note_on_c, 2, 76, 80
4, 81872, Note_on_c, 2, 76, 0
4, 81872, Note_on_c, 2, 78, 62
4, 81888, Note_on_c, 2, 78, 0
4, 81888, Note_on_c, 2, 73, 59
4, 81936, Note_on_c, 2, 73, 0
4, 81936, Note_on_c, 2, 72, 88
4, 82000, Note_on_c, 2, 71, 60
4, 82008, Note_on_c, 2, 72, 0
4, 82016, Note_on_c, 2, 71, 0
4, 82016, Note_on_c, 2, 69, 76
4, 82032, Note_on_c, 2, 69, 0
4, 82032, Note_on_c, 2, 67, 80
4, 82048, Note_on_c, 2, 67, 0
4, 82048, Note_on_c, 2, 66, 63
4, 82064, Note_on_c, 2, 66, 0
4, 82064, Note_on_c, 2, 64, 71
4, 82080, Note_on_c, 2, 64, 0
4, 82080, Note_on_c, 2, 66, 74
4, 82176, Note_on_c, 2, 66, 0
4, 82176, Note_on_c, 2, 66, 59
4, 82192, Note_on_c, 2, 66, 0
4, 82192, Note_on_c, 2, 64, 62
4, 82208, Note_on_c, 2, 64, 0
4, 82208, Note_on_c, 2, 66, 56
4, 82224, Note_on_c, 2, 66, 0
4, 82224, Note_on_c, 2, 67, 56
4, 82240, Note_on_c, 2, 67, 0
4, 82240, Note_on_c, 2, 69, 69
4, 82256, Note_on_c, 2, 69, 0
4, 82256, Note_on_c, 2, 71, 80
4, 82272, Note_on_c, 2, 71, 0
4, 82272, Note_on_c, 2, 72, 88
4, 82368, Note_on_c, 2, 72, 0
4, 82368, Note_on_c, 2, 72, 78
4, 82384, Note_on_c, 2, 72, 0
4, 82384, Note_on_c, 2, 71, 74
4, 82400, Note_on_c, 2, 71, 0
4, 82400, Note_on_c, 2, 72, 81
4, 82416, Note_on_c, 2, 72, 0
4, 82416, Note_on_c, 2, 74, 78
4, 82432, Note_on_c, 2, 74, 0
4, 82432, Note_on_c, 2, 76, 87
4, 82448, Note_on_c, 2, 76, 0
4, 82448, Note_on_c, 2, 78, 65
4, 82464, Note_on_c, 2, 78, 0
4, 82464, Note_on_c, 2, 79, 88
4, 82528, Note_on_c, 2, 81, 56
4, 82536, Note_on_c, 2, 79, 0
4, 82544, Note_on_c, 2, 81, 0
4, 82544, Note_on_c, 2, 79, 80
4, 82560, Note_on_c, 2, 79, 0
4, 82560, Note_on_c, 2, 78, 56
4, 82608, Note_on_c, 2, 78, 0
4, 82608, Note_on_c, 2, 79, 88
4, 82672, Note_on_c, 2, 78, 57
4, 82680, Note_on_c, 2, 79, 0
4, 82688, Note_on_c, 2, 78, 0
4, 82688, Note_on_c, 2, 76, 80
4, 82704, Note_on_c, 2, 76, 0
4, 82704, Note_on_c, 2, 78, 57
4, 82720, Note_on_c, 2, 78, 0
4, 82720, Note_on_c, 2, 79, 56
4, 82736, Note_on_c, 2, 79, 0
4, 82736, Note_on_c, 2, 76, 88
4, 82752, Note_on_c, 2, 76, 0
4, 82752, Note_on_c, 2, 75, 69
4, 82800, Note_on_c, 2, 75, 0
4, 82800, Note_on_c, 2, 76, 78
4, 82864, Note_on_c, 2, 75, 56
4, 82872, Note_on_c, 2, 76, 0
4, 82880, Note_on_c, 2, 75, 0
4, 82880, Note_on_c, 2, 73, 56
4, 82896, Note_on_c, 2, 73, 0
4, 82896, Note_on_c, 2, 75, 63
4, 82912, Note_on_c, 2, 75, 0
4, 82912, Note_on_c, 2, 76, 88
4, 82928, Note_on_c, 2, 76, 0
4, 82928, Note_on_c, 2, 73, 57
4, 82944, Note_on_c, 2, 73, 0
4, 82944, Note_on_c, 2, 71, 88
4, 83008, Note_on_c, 2, 73, 69
4, 83016, Note_on_c, 2, 71, 0
4, 83024, Note_on_c, 2, 73, 0
4, 83024, Note_on_c, 2, 71, 88
4, 83040, Note_on_c, 2, 71, 0
4, 83040, Note_on_c, 2, 70, 56
4, 83056, Note_on_c, 2, 70, 0
4, 83056, Note_on_c, 2, 68, 67
4, 83072, Note_on_c, 2, 68, 0
4, 83072, Note_on_c, 2, 70, 56
4, 83088, Note_on_c, 2, 70, 0
4, 83088, Note_on_c, 2, 71, 66
4, 83104, Note_on_c, 2, 71, 0
4, 83104, Note_on_c, 2, 73, 69
4, 83120, Note_on_c, 2, 73, 0
4, 83120, Note_on_c, 2, 74, 88
4, 83136, Note_on_c, 2, 74, 0
4, 83136, Note_on_c, 2, 76, 78
4, 83152, Note_on_c, 2, 76, 0
4, 83152, Note_on_c, 2, 78, 60
4, 83168, Note_on_c, 2, 78, 0
4, 83168, Note_on_c, 2, 76, 59
4, 83184, Note_on_c, 2, 76, 0
4, 83184, Note_on_c, 2, 74, 88
4, 83200, Note_on_c, 2, 74, 0
4, 83200, Note_on_c, 2, 73, 56
4, 83216, Note_on_c, 2, 73, 0
4, 83216, Note_on_c, 2, 71, 88
4, 83232, Note_on_c, 2, 71, 0
4, 83232, Note_on_c, 2, 70, 57
4, 83248, Note_on_c, 2, 70, 0
4, 83248, Note_on_c, 2, 68, 63
4, 83264, Note_on_c, 2, 68, 0
4, 83264, Note_on_c, 2, 70, 65
4, 83280, Note_on_c, 2, 70, 0
4, 83280, Note_on_c, 2, 71, 83
4, 83296, Note_on_c, 2, 71, 0
4, 83296, Note_on_c, 2, 73, 65
4, 83312, Note_on_c, 2, 73, 0
4, 83312, Note_on_c, 2, 74, 80
4, 83328, Note_on_c, 2, 74, 0
4, 83328, Note_on_c, 2, 73, 60
4, 83392, Note_on_c, 2, 74, 88
4, 83400, Note_on_c, 2, 73, 0
4, 83408, Note_on_c, 2, 74, 0
4, 83408, Note_on_c, 2, 76, 88
4, 83424, Note_on_c, 2, 76, 0
4, 83424, Note_on_c, 2, 74, 88
4, 83440, Note_on_c, 2, 74, 0
4, 83440, Note_on_c, 2, 76, 71
4, 83456, Note_on_c, 2, 76, 0
4, 83456, Note_on_c, 2, 78, 62
4, 83472, Note_on_c, 2, 78, 0
4, 83472, Note_on_c, 2, 76, 88
4, 83544, Note_on_c, 2, 76, 0
4, 83556, Note_on_c, 2, 74, 88
4, 83568, Note_on_c, 2, 74, 0
4, 83568, Note_on_c, 2, 73, 60
4, 83632, Note_on_c, 2, 70, 56
4, 83640, Note_on_c, 2, 73, 0
4, 83648, Note_on_c, 2, 70, 0
4, 83648, Note_on_c, 2, 71, 78
4, 83664, Note_on_c, 2, 71, 0
4, 83664, Note_on_c, 2, 78, 56
4, 83700, Note_on_c, 2, 78, 0
4, 83700, Note_on_c, 2, 73, 56
4, 83712, Note_on_c, 2, 73, 0
4, 83712, Note_on_c, 2, 74, 83
4, 83728, Note_on_c, 2, 74, 0
4, 83728, Note_on_c, 2, 73, 65
4, 83744, Note_on_c, 2, 73, 0
4, 83744, Note_on_c, 2, 71, 88
4, 83760, Note_on_c, 2, 71, 0
4, 83760, Note_on_c, 2, 70, 70
4, 83776, Note_on_c, 2, 70, 0
4, 83776, Note_on_c, 2, 71, 88
4, 83792, Note_on_c, 2, 71, 0
4, 83792, Note_on_c, 2, 73, 70
4, 83808, Note_on_c, 2, 73, 0
4, 83808, Note_on_c, 2, 66, 57
4, 83856, Note_on_c, 2, 66, 0
4, 83856, Note_on_c, 2, 71, 88
4, 83952, Note_on_c, 2, 71, 0
4, 83952, Note_on_c, 2, 73, 62
4, 84048, Note_on_c, 2, 73, 0
4, 84048, Note_on_c, 2, 74, 88
4, 84144, Note_on_c, 2, 74, 0
4, 84144, Note_on_c, 2, 76, 80
4, 84228, Note_on_c, 2, 79, 88
4, 84240, Note_on_c, 2, 79, 0
4, 84240, Note_on_c, 2, 76, 0
4, 84240, Note_on_c, 2, 78, 69
4, 84276, Note_on_c, 2, 78, 0
4, 84276, Note_on_c, 2, 76, 88
4, 84288, Note_on_c, 2, 76, 0
4, 84288, Note_on_c, 2, 74, 88
4, 84324, Note_on_c, 2, 74, 0
4, 84324, Note_on_c, 2, 76, 88
4, 84336, Note_on_c, 2, 76, 0
4, 84336, Note_on_c, 2, 78, 57
4, 84372, Note_on_c, 2, 78, 0
4, 84372, Note_on_c, 2, 79, 76
4, 84384, Note_on_c, 2, 79, 0
4, 84384, Note_on_c, 2, 74, 88
4, 84408, Note_on_c, 2, 74, 0
4, 84432, Note_on_c, 2, 73, 60
4, 84438, Note_on_c, 2, 73, 0
4, 84438, Note_on_c, 2, 74, 82
4, 84444, Note_on_c, 2, 74, 0
4, 84444, Note_on_c, 2, 73, 56
4, 84450, Note_on_c, 2, 73, 0
4, 84450, Note_on_c, 2, 74, 80
4, 84456, Note_on_c, 2, 74, 0
4, 84480, Note_on_c, 2, 71, 88
4, 84528, Note_on_c, 2, 71, 0
4, 84804, Note_on_c, 2, 74, 95
4, 84814, Note_on_c, 2, 74, 0
4, 84816, Note_on_c, 2, 81, 95
4, 84847, Note_on_c, 2, 81, 0
4, 84852, Note_on_c, 2, 76, 95
4, 84862, Note_on_c, 2, 76, 0
4, 84864, Note_on_c, 2, 78, 95
4, 84878, Note_on_c, 2, 78, 0
4, 84880, Note_on_c, 2, 76, 95
4, 84894, Note_on_c, 2, 76, 0
4, 84896, Note_on_c, 2, 74, 95
4, 84910, Note_on_c, 2, 74, 0
4, 84912, Note_on_c, 2, 73, 95
4, 84926, Note_on_c, 2, 73, 0
4, 84928, Note_on_c, 2, 74, 95
4, 84942, Note_on_c, 2, 74, 0
4, 84944, Note_on_c, 2, 76, 95
4, 84958, Note_on_c, 2, 76, 0
4, 84960, Note_on_c, 2, 69, 95
4, 84981, Note_on_c, 2, 69, 0
4, 85008, Note_on_c, 2, 66, 95
4, 85029, Note_on_c, 2, 66, 0
4, 85056, Note_on_c, 2, 67, 95
4, 85077, Note_on_c, 2, 67, 0
4, 85104, Note_on_c, 2, 69, 95
4, 85125, Note_on_c, 2, 69, 0
4, 85152, Note_on_c, 2, 71, 95
4, 85166, Note_on_c, 2, 71, 0
4, 85168, Note_on_c, 2, 74, 95
4, 85182, Note_on_c, 2, 74, 0
4, 85184, Note_on_c, 2, 78, 95
4, 85198, Note_on_c, 2, 78, 0
4, 85200, Note_on_c, 2, 78, 95
4, 85214, Note_on_c, 2, 78, 0
4, 85216, Note_on_c, 2, 76, 95
4, 85230, Note_on_c, 2, 76, 0
4, 85232, Note_on_c, 2, 78, 95
4, 85246, Note_on_c, 2, 78, 0
4, 85248, Note_on_c, 2, 74, 95
4, 85262, Note_on_c, 2, 74, 0
4, 85264, Note_on_c, 2, 79, 95
4, 85278, Note_on_c, 2, 79, 0
4, 85280, Note_on_c, 2, 78, 95
4, 85294, Note_on_c, 2, 78, 0
4, 85296, Note_on_c, 2, 76, 95
4, 85310, Note_on_c, 2, 76, 0
4, 85312, Note_on_c, 2, 81, 95
4, 85326, Note_on_c, 2, 81, 0
4, 85328, Note_on_c, 2, 79, 95
4, 85342, Note_on_c, 2, 79, 0
4, 85344, Note_on_c, 2, 78, 95
4, 85358, Note_on_c, 2, 78, 0
4, 85360, Note_on_c, 2, 81, 95
4, 85374, Note_on_c, 2, 81, 0
4, 85376, Note_on_c, 2, 79, 95
4, 85390, Note_on_c, 2, 79, 0
4, 85392, Note_on_c, 2, 78, 95
4, 85406, Note_on_c, 2, 78, 0
4, 85408, Note_on_c, 2, 81, 95
4, 85422, Note_on_c, 2, 81, 0
4, 85424, Note_on_c, 2, 79, 95
4, 85438, Note_on_c, 2, 79, 0
4, 85440, Note_on_c, 2, 78, 95
4, 85471, Note_on_c, 2, 78, 0
4, 85476, Note_on_c, 2, 81, 95
4, 85486, Note_on_c, 2, 81, 0
4, 85488, Note_on_c, 2, 81, 95
4, 85519, Note_on_c, 2, 81, 0
4, 85524, Note_on_c, 2, 79, 95
4, 85534, Note_on_c, 2, 79, 0
4, 85536, Note_on_c, 2, 78, 95
4, 85567, Note_on_c, 2, 78, 0
4, 85572, Note_on_c, 2, 69, 95
4, 85582, Note_on_c, 2, 69, 0
4, 85584, Note_on_c, 2, 76, 95
4, 85615, Note_on_c, 2, 76, 0
4, 85620, Note_on_c, 2, 69, 95
4, 85630, Note_on_c, 2, 69, 0
4, 85632, Note_on_c, 2, 78, 95
4, 85653, Note_on_c, 2, 78, 0
4, 85680, Note_on_c, 2, 80, 95
4, 85701, Note_on_c, 2, 80, 0
4, 85728, Note_on_c, 2, 81, 95
4, 85895, Note_on_c, 2, 81, 0
4, 85920, Note_on_c, 2, 81, 95
4, 85941, Note_on_c, 2, 81, 0
4, 85968, Note_on_c, 2, 80, 95
4, 85989, Note_on_c, 2, 80, 0
4, 86016, Note_on_c, 2, 81, 95
4, 86037, Note_on_c, 2, 81, 0
4, 86064, Note_on_c, 2, 83, 95
4, 86085, Note_on_c, 2, 83, 0
4, 86112, Note_on_c, 2, 76, 95
4, 86143, Note_on_c, 2, 76, 0
4, 86148, Note_on_c, 2, 76, 95
4, 86158, Note_on_c, 2, 76, 0
4, 86160, Note_on_c, 2, 81, 95
4, 86191, Note_on_c, 2, 81, 0
4, 86196, Note_on_c, 2, 76, 95
4, 86206, Note_on_c, 2, 76, 0
4, 86208, Note_on_c, 2, 78, 95
4, 86222, Note_on_c, 2, 78, 0
4, 86224, Note_on_c, 2, 76, 95
4, 86238, Note_on_c, 2, 76, 0
4, 86240, Note_on_c, 2, 74, 95
4, 86254, Note_on_c, 2, 74, 0
4, 86256, Note_on_c, 2, 73, 95
4, 86270, Note_on_c, 2, 73, 0
4, 86272, Note_on_c, 2, 74, 95
4, 86286, Note_on_c, 2, 74, 0
4, 86288, Note_on_c, 2, 76, 95
4, 86302, Note_on_c, 2, 76, 0
4, 86304, Note_on_c, 2, 69, 95
4, 86318, Note_on_c, 2, 69, 0
4, 86320, Note_on_c, 2, 73, 95
4, 86334, Note_on_c, 2, 73, 0
4, 86336, Note_on_c, 2, 71, 95
4, 86350, Note_on_c, 2, 71, 0
4, 86352, Note_on_c, 2, 69, 95
4, 86366, Note_on_c, 2, 69, 0
4, 86368, Note_on_c, 2, 73, 95
4, 86382, Note_on_c, 2, 73, 0
4, 86384, Note_on_c, 2, 71, 95
4, 86398, Note_on_c, 2, 71, 0
4, 86400, Note_on_c, 2, 69, 95
4, 86484, Note_on_c, 2, 69, 0
4, 86496, Note_on_c, 2, 69, 95
4, 86510, Note_on_c, 2, 69, 0
4, 86512, Note_on_c, 2, 73, 95
4, 86526, Note_on_c, 2, 73, 0
4, 86528, Note_on_c, 2, 71, 95
4, 86542, Note_on_c, 2, 71, 0
4, 86544, Note_on_c, 2, 69, 95
4, 86558, Note_on_c, 2, 69, 0
4, 86560, Note_on_c, 2, 73, 95
4, 86574, Note_on_c, 2, 73, 0
4, 86576, Note_on_c, 2, 71, 95
4, 86590, Note_on_c, 2, 71, 0
4, 86592, Note_on_c, 2, 69, 95
4, 86676, Note_on_c, 2, 69, 0
4, 86688, Note_on_c, 2, 69, 95
4, 86772, Note_on_c, 2, 69, 0
4, 86784, Note_on_c, 2, 69, 95
4, 86868, Note_on_c, 2, 69, 0
4, 86880, Note_on_c, 2, 68, 95
4, 86894, Note_on_c, 2, 68, 0
4, 86896, Note_on_c, 2, 69, 95
4, 86910, Note_on_c, 2, 69, 0
4, 86912, Note_on_c, 2, 71, 95
4, 86926, Note_on_c, 2, 71, 0
4, 86928, Note_on_c, 2, 73, 95
4, 86991, Note_on_c, 2, 73, 0
4, 86992, Note_on_c, 2, 78, 95
4, 87002, Note_on_c, 2, 78, 0
4, 87008, Note_on_c, 2, 76, 95
4, 87018, Note_on_c, 2, 76, 0
4, 87024, Note_on_c, 2, 74, 95
4, 87096, Note_on_c, 2, 74, 0
4, 87108, Note_on_c, 2, 83, 95
4, 87120, Note_on_c, 2, 83, 0
4, 87120, Note_on_c, 2, 73, 95
4, 87156, Note_on_c, 2, 73, 0
4, 87156, Note_on_c, 2, 78, 95
4, 87168, Note_on_c, 2, 78, 0
4, 87168, Note_on_c, 2, 76, 95
4, 87184, Note_on_c, 2, 76, 0
4, 87184, Note_on_c, 2, 74, 95
4, 87200, Note_on_c, 2, 74, 0
4, 87200, Note_on_c, 2, 73, 95
4, 87216, Note_on_c, 2, 73, 0
4, 87216, Note_on_c, 2, 71, 95
4, 87232, Note_on_c, 2, 71, 0
4, 87232, Note_on_c, 2, 73, 95
4, 87248, Note_on_c, 2, 73, 0
4, 87248, Note_on_c, 2, 74, 95
4, 87264, Note_on_c, 2, 74, 0
4, 87264, Note_on_c, 2, 73, 95
4, 87280, Note_on_c, 2, 73, 0
4, 87280, Note_on_c, 2, 71, 95
4, 87296, Note_on_c, 2, 71, 0
4, 87296, Note_on_c, 2, 69, 95
4, 87312, Note_on_c, 2, 69, 0
4, 87312, Note_on_c, 2, 74, 95
4, 87376, Note_on_c, 2, 73, 95
4, 87384, Note_on_c, 2, 74, 0
4, 87392, Note_on_c, 2, 73, 0
4, 87392, Note_on_c, 2, 71, 95
4, 87408, Note_on_c, 2, 71, 0
4, 87408, Note_on_c, 2, 69, 95
4, 87444, Note_on_c, 2, 69, 0
4, 87444, Note_on_c, 2, 67, 95
4, 87456, Note_on_c, 2, 67, 0
4, 87456, Note_on_c, 2, 66, 95
4, 87472, Note_on_c, 2, 66, 0
4, 87472, Note_on_c, 2, 64, 95
4, 87488, Note_on_c, 2, 64, 0
4, 87488, Note_on_c, 2, 62, 95
4, 87504, Note_on_c, 2, 62, 0
4, 87504, Note_on_c, 2, 69, 95
4, 87528, Note_on_c, 2, 69, 0
4, 87684, Note_on_c, 2, 81, 95
4, 87696, Note_on_c, 2, 81, 0
4, 87696, Note_on_c, 2, 86, 95
4, 87732, Note_on_c, 2, 86, 0
4, 87732, Note_on_c, 2, 81, 95
4, 87744, Note_on_c, 2, 81, 0
4, 87744, Note_on_c, 2, 83, 95
4, 87760, Note_on_c, 2, 83, 0
4, 87760, Note_on_c, 2, 81, 95
4, 87776, Note_on_c, 2, 81, 0
4, 87776, Note_on_c, 2, 79, 95
4, 87792, Note_on_c, 2, 79, 0
4, 87792, Note_on_c, 2, 78, 95
4, 87808, Note_on_c, 2, 78, 0
4, 87808, Note_on_c, 2, 79, 95
4, 87824, Note_on_c, 2, 79, 0
4, 87824, Note_on_c, 2, 81, 95
4, 87840, Note_on_c, 2, 81, 0
4, 87840, Note_on_c, 2, 74, 95
4, 87856, Note_on_c, 2, 74, 0
4, 87888, Note_on_c, 2, 73, 95
4, 87904, Note_on_c, 2, 73, 0
4, 87936, Note_on_c, 2, 71, 95
4, 87952, Note_on_c, 2, 71, 0
4, 87984, Note_on_c, 2, 76, 95
4, 88000, Note_on_c, 2, 76, 0
4, 88032, Note_on_c, 2, 74, 95
4, 88048, Note_on_c, 2, 74, 0
4, 88048, Note_on_c, 2, 78, 95
4, 88064, Note_on_c, 2, 78, 0
4, 88064, Note_on_c, 2, 81, 95
4, 88080, Note_on_c, 2, 81, 0
4, 88080, Note_on_c, 2, 81, 95
4, 88096, Note_on_c, 2, 81, 0
4, 88096, Note_on_c, 2, 79, 95
4, 88112, Note_on_c, 2, 79, 0
4, 88112, Note_on_c, 2, 81, 95
4, 88128, Note_on_c, 2, 81, 0
4, 88128, Note_on_c, 2, 78, 95
4, 88144, Note_on_c, 2, 78, 0
4, 88144, Note_on_c, 2, 83, 95
4, 88160, Note_on_c, 2, 83, 0
4, 88160, Note_on_c, 2, 81, 95
4, 88176, Note_on_c, 2, 81, 0
4, 88176, Note_on_c, 2, 80, 95
4, 88192, Note_on_c, 2, 80, 0
4, 88192, Note_on_c, 2, 85, 95
4, 88208, Note_on_c, 2, 85, 0
4, 88208, Note_on_c, 2, 83, 95
4, 88224, Note_on_c, 2, 83, 0
4, 88224, Note_on_c, 2, 81, 95
4, 88288, Note_on_c, 2, 83, 95
4, 88296, Note_on_c, 2, 81, 0
4, 88304, Note_on_c, 2, 83, 0
4, 88304, Note_on_c, 2, 85, 95
4, 88320, Note_on_c, 2, 85, 0
4, 88320, Note_on_c, 2, 86, 95
4, 88336, Note_on_c, 2, 86, 0
4, 88336, Note_on_c, 2, 85, 95
4, 88352, Note_on_c, 2, 85, 0
4, 88352, Note_on_c, 2, 83, 95
4, 88368, Note_on_c, 2, 83, 0
4, 88368, Note_on_c, 2, 81, 95
4, 88384, Note_on_c, 2, 81, 0
4, 88384, Note_on_c, 2, 83, 95
4, 88400, Note_on_c, 2, 83, 0
4, 88400, Note_on_c, 2, 79, 95
4, 88416, Note_on_c, 2, 79, 0
4, 88416, Note_on_c, 2, 78, 95
4, 88440, Note_on_c, 2, 78, 0
4, 88464, Note_on_c, 2, 79, 95
4, 88488, Note_on_c, 2, 79, 0
4, 88512, Note_on_c, 2, 81, 85
4, 88536, Note_on_c, 2, 81, 0
4, 88560, Note_on_c, 2, 72, 85
4, 88584, Note_on_c, 2, 72, 0
4, 88608, Note_on_c, 2, 71, 85
4, 88632, Note_on_c, 2, 71, 0
4, 88656, Note_on_c, 2, 73, 85
4, 88680, Note_on_c, 2, 73, 0
4, 88704, Note_on_c, 2, 74, 85
4, 88728, Note_on_c, 2, 74, 0
4, 88752, Note_on_c, 2, 69, 85
4, 88768, Note_on_c, 2, 69, 0
4, 88768, Note_on_c, 2, 73, 85
4, 88784, Note_on_c, 2, 73, 0
4, 88784, Note_on_c, 2, 76, 85
4, 88800, Note_on_c, 2, 76, 0
4, 88800, Note_on_c, 2, 69, 85
4, 88816, Note_on_c, 2, 69, 0
4, 88816, Note_on_c, 2, 74, 85
4, 88832, Note_on_c, 2, 74, 0
4, 88832, Note_on_c, 2, 78, 85
4, 88848, Note_on_c, 2, 78, 0
4, 88848, Note_on_c, 2, 73, 85
4, 88864, Note_on_c, 2, 73, 0
4, 88864, Note_on_c, 2, 76, 85
4, 88880, Note_on_c, 2, 76, 0
4, 88880, Note_on_c, 2, 79, 85
4, 88896, Note_on_c, 2, 79, 0
4, 88896, Note_on_c, 2, 81, 95
4, 88920, Note_on_c, 2, 81, 0
4, 88944, Note_on_c, 2, 83, 85
4, 88968, Note_on_c, 2, 83, 0
4, 88992, Note_on_c, 2, 81, 78
4, 89016, Note_on_c, 2, 81, 0
4, 89040, Note_on_c, 2, 79, 85
4, 89064, Note_on_c, 2, 79, 0
4, 89088, Note_on_c, 2, 79, 85
4, 89112, Note_on_c, 2, 79, 0
4, 89136, Note_on_c, 2, 78, 64
4, 89152, Note_on_c, 2, 78, 0
4, 89152, Note_on_c, 2, 79, 85
4, 89168, Note_on_c, 2, 79, 0
4, 89168, Note_on_c, 2, 81, 85
4, 89184, Note_on_c, 2, 81, 0
4, 89184, Note_on_c, 2, 74, 72
4, 89232, Note_on_c, 2, 74, 0
4, 89248, Note_on_c, 2, 76, 76
4, 89264, Note_on_c, 2, 76, 0
4, 89264, Note_on_c, 2, 73, 56
4, 89280, Note_on_c, 2, 73, 0
4, 89280, Note_on_c, 2, 74, 85
4, 89316, Note_on_c, 2, 74, 0
4, 89316, Note_on_c, 2, 81, 91
4, 89316, Note_on_c, 2, 81, 85
4, 89328, Note_on_c, 2, 86, 84
4, 89340, Note_on_c, 2, 81, 0
4, 89340, Note_on_c, 2, 81, 0
4, 89364, Note_on_c, 2, 86, 0
4, 89364, Note_on_c, 2, 81, 85
4, 89376, Note_on_c, 2, 81, 0
4, 89376, Note_on_c, 2, 83, 64
4, 89392, Note_on_c, 2, 83, 0
4, 89392, Note_on_c, 2, 81, 74
4, 89408, Note_on_c, 2, 81, 0
4, 89408, Note_on_c, 2, 79, 85
4, 89424, Note_on_c, 2, 79, 0
4, 89424, Note_on_c, 2, 78, 56
4, 89440, Note_on_c, 2, 78, 0
4, 89440, Note_on_c, 2, 79, 77
4, 89456, Note_on_c, 2, 79, 0
4, 89456, Note_on_c, 2, 81, 85
4, 89472, Note_on_c, 2, 81, 0
4, 89472, Note_on_c, 2, 74, 76
4, 89488, Note_on_c, 2, 74, 0
4, 89488, Note_on_c, 2, 78, 62
4, 89504, Note_on_c, 2, 78, 0
4, 89504, Note_on_c, 2, 76, 84
4, 89520, Note_on_c, 2, 76, 0
4, 89520, Note_on_c, 2, 74, 72
4, 89536, Note_on_c, 2, 74, 0
4, 89536, Note_on_c, 2, 78, 56
4, 89552, Note_on_c, 2, 78, 0
4, 89552, Note_on_c, 2, 76, 78
4, 89568, Note_on_c, 2, 76, 0
4, 89568, Note_on_c, 2, 74, 78
4, 89680, Note_on_c, 2, 81, 62
4, 89696, Note_on_c, 2, 81, 0
4, 89696, Note_on_c, 2, 79, 81
4, 89712, Note_on_c, 2, 79, 0
4, 89712, Note_on_c, 2, 74, 0
4, 89712, Note_on_c, 2, 78, 56
4, 89728, Note_on_c, 2, 78, 0
4, 89728, Note_on_c, 2, 81, 65
4, 89744, Note_on_c, 2, 81, 0
4, 89744, Note_on_c, 2, 79, 78
4, 89760, Note_on_c, 2, 79, 0
4, 89760, Note_on_c, 2, 78, 78
4, 89824, Note_on_c, 2, 78, 0
4, 89856, Note_on_c, 2, 76, 78
4, 90048, Note_on_c, 2, 76, 0
4, 90048, Note_on_c, 2, 76, 78
4, 90096, Note_on_c, 2, 76, 0
4, 90112, Note_on_c, 2, 78, 78
4, 90128, Note_on_c, 2, 78, 0
4, 90128, Note_on_c, 2, 76, 78
4, 90144, Note_on_c, 2, 76, 0
4, 90144, Note_on_c, 2, 74, 78
4, 90192, Note_on_c, 2, 74, 0
4, 90208, Note_on_c, 2, 76, 78
4, 90224, Note_on_c, 2, 76, 0
4, 90224, Note_on_c, 2, 74, 78
4, 90240, Note_on_c, 2, 74, 0
4, 90240, Note_on_c, 2, 73, 78
4, 90288, Note_on_c, 2, 73, 0
4, 90304, Note_on_c, 2, 74, 78
4, 90320, Note_on_c, 2, 74, 0
4, 90320, Note_on_c, 2, 72, 78
4, 90336, Note_on_c, 2, 72, 0
4, 90336, Note_on_c, 2, 71, 78
4, 90384, Note_on_c, 2, 71, 0
4, 90384, Note_on_c, 2, 79, 78
4, 90448, Note_on_c, 2, 73, 71
4, 90456, Note_on_c, 2, 73, 0
4, 90456, Note_on_c, 2, 79, 0
4, 90464, Note_on_c, 2, 76, 93
4, 90472, Note_on_c, 2, 76, 0
4, 90480, Note_on_c, 2, 78, 78
4, 90488, Note_on_c, 2, 78, 0
4, 90496, Note_on_c, 2, 79, 100
4, 90504, Note_on_c, 2, 79, 0
4, 90512, Note_on_c, 2, 81, 103
4, 90520, Note_on_c, 2, 81, 0
4, 90528, Note_on_c, 2, 74, 85
4, 90546, Note_on_c, 2, 74, 0
4, 90564, Note_on_c, 2, 76, 96
4, 90570, Note_on_c, 2, 76, 0
4, 90576, Note_on_c, 2, 73, 87
4, 90594, Note_on_c, 2, 73, 0
4, 90612, Note_on_c, 2, 74, 96
4, 90618, Note_on_c, 2, 74, 0
4, 90624, Note_on_c, 2, 74, 94
4, 90648, Note_on_c, 2, 74, 0
4, 90672, Note_on_c, 2, 72, 84
4, 90696, Note_on_c, 2, 72, 0
4, 90720, Note_on_c, 2, 71, 101
4, 90744, Note_on_c, 2, 71, 0
4, 90768, Note_on_c, 2, 69, 103
4, 90792, Note_on_c, 2, 69, 0
4, 90816, Note_on_c, 2, 67, 98
4, 90824, Note_on_c, 2, 67, 0
4, 90832, Note_on_c, 2, 69, 103
4, 90840, Note_on_c, 2, 69, 0
4, 90848, Note_on_c, 2, 71, 103
4, 90856, Note_on_c, 2, 71, 0
4, 90864, Note_on_c, 2, 69, 103
4, 90872, Note_on_c, 2, 69, 0
4, 90880, Note_on_c, 2, 71, 98
4, 90888, Note_on_c, 2, 71, 0
4, 90896, Note_on_c, 2, 72, 74
4, 90904, Note_on_c, 2, 72, 0
4, 90912, Note_on_c, 2, 66, 73
4, 90936, Note_on_c, 2, 66, 0
4, 90960, Note_on_c, 2, 74, 101
4, 90996, Note_on_c, 2, 74, 0
4, 91024, Note_on_c, 2, 78, 71
4, 91036, Note_on_c, 2, 78, 0
4, 91040, Note_on_c, 2, 76, 100
4, 91052, Note_on_c, 2, 76, 0
4, 91056, Note_on_c, 2, 74, 103
4, 91068, Note_on_c, 2, 74, 0
4, 91072, Note_on_c, 2, 78, 74
4, 91084, Note_on_c, 2, 78, 0
4, 91088, Note_on_c, 2, 76, 103
4, 91100, Note_on_c, 2, 76, 0
4, 91104, Note_on_c, 2, 74, 103
4, 91176, Note_on_c, 2, 74, 0
4, 91200, Note_on_c, 2, 74, 98
4, 91212, Note_on_c, 2, 74, 0
4, 91216, Note_on_c, 2, 71, 103
4, 91228, Note_on_c, 2, 71, 0
4, 91232, Note_on_c, 2, 73, 78
4, 91244, Note_on_c, 2, 73, 0
4, 91248, Note_on_c, 2, 74, 103
4, 91260, Note_on_c, 2, 74, 0
4, 91264, Note_on_c, 2, 71, 103
4, 91276, Note_on_c, 2, 71, 0
4, 91280, Note_on_c, 2, 73, 84
4, 91292, Note_on_c, 2, 73, 0
4, 91296, Note_on_c, 2, 74, 98
4, 91350, Note_on_c, 2, 74, 0
4, 91380, Note_on_c, 2, 76, 98
4, 91389, Note_on_c, 2, 76, 0
4, 91392, Note_on_c, 2, 73, 98
4, 91464, Note_on_c, 2, 73, 0
4, 91488, Note_on_c, 2, 74, 98
4, 91560, Note_on_c, 2, 74, 0
4, 91584, Note_on_c, 2, 76, 98
4, 91656, Note_on_c, 2, 76, 0
4, 91680, Note_on_c, 2, 78, 98
4, 91707, Note_on_c, 2, 78, 0
4, 91716, Note_on_c, 2, 81, 98
4, 91725, Note_on_c, 2, 81, 0
4, 91728, Note_on_c, 2, 86, 98
4, 91755, Note_on_c, 2, 86, 0
4, 91764, Note_on_c, 2, 81, 98
4, 91773, Note_on_c, 2, 81, 0
4, 91776, Note_on_c, 2, 83, 98
4, 91788, Note_on_c, 2, 83, 0
4, 91792, Note_on_c, 2, 81, 98
4, 91804, Note_on_c, 2, 81, 0
4, 91808, Note_on_c, 2, 79, 98
4, 91820, Note_on_c, 2, 79, 0
4, 91824, Note_on_c, 2, 78, 98
4, 91836, Note_on_c, 2, 78, 0
4, 91840, Note_on_c, 2, 79, 98
4, 91852, Note_on_c, 2, 79, 0
4, 91856, Note_on_c, 2, 81, 98
4, 91868, Note_on_c, 2, 81, 0
4, 91872, Note_on_c, 2, 74, 98
4, 91899, Note_on_c, 2, 74, 0
4, 91908, Note_on_c, 2, 76, 98
4, 91917, Note_on_c, 2, 76, 0
4, 91920, Note_on_c, 2, 73, 98
4, 91947, Note_on_c, 2, 73, 0
4, 91956, Note_on_c, 2, 74, 98
4, 91965, Note_on_c, 2, 74, 0
4, 91968, Note_on_c, 2, 74, 98
4, 92064, Note_on_c, 2, 74, 0
4, 92064, End_track
5, 0, Start_track
5, 0, MIDI_port, 0
5, 0, Title_t, "Violin pr"
5, 0, Program_c, 3, 40
5, 0, Control_c, 3, 7, 127
5, 0, Control_c, 3, 10, 0
5, 0, Control_c, 3, 121, 0
5, 0, Control_c, 3, 91, 127
5, 0, Control_c, 3, 93, 0
5, 0, Note_on_c, 3, 62, 95
5, 8, Note_on_c, 3, 62, 0
5, 12, Note_on_c, 3, 62, 95
5, 20, Note_on_c, 3, 62, 0
5, 24, Note_on_c, 3, 66, 95
5, 32, Note_on_c, 3, 66, 0
5, 36, Note_on_c, 3, 66, 95
5, 44, Note_on_c, 3, 66, 0
5, 48, Note_on_c, 3, 69, 95
5, 56, Note_on_c, 3, 69, 0
5, 60, Note_on_c, 3, 69, 95
5, 68, Note_on_c, 3, 69, 0
5, 72, Note_on_c, 3, 74, 95
5, 80, Note_on_c, 3, 74, 0
5, 84, Note_on_c, 3, 74, 95
5, 92, Note_on_c, 3, 74, 0
5, 96, Note_on_c, 3, 73, 95
5, 104, Note_on_c, 3, 73, 0
5, 108, Note_on_c, 3, 74, 95
5, 116, Note_on_c, 3, 74, 0
5, 120, Note_on_c, 3, 73, 95
5, 128, Note_on_c, 3, 73, 0
5, 132, Note_on_c, 3, 71, 95
5, 140, Note_on_c, 3, 71, 0
5, 144, Note_on_c, 3, 69, 95
5, 152, Note_on_c, 3, 69, 0
5, 156, Note_on_c, 3, 67, 95
5, 164, Note_on_c, 3, 67, 0
5, 168, Note_on_c, 3, 66, 95
5, 176, Note_on_c, 3, 66, 0
5, 180, Note_on_c, 3, 64, 95
5, 188, Note_on_c, 3, 64, 0
5, 192, Note_on_c, 3, 62, 95
5, 200, Note_on_c, 3, 62, 0
5, 204, Note_on_c, 3, 62, 95
5, 212, Note_on_c, 3, 62, 0
5, 216, Note_on_c, 3, 66, 95
5, 224, Note_on_c, 3, 66, 0
5, 228, Note_on_c, 3, 66, 95
5, 236, Note_on_c, 3, 66, 0
5, 240, Note_on_c, 3, 69, 95
5, 248, Note_on_c, 3, 69, 0
5, 252, Note_on_c, 3, 69, 95
5, 260, Note_on_c, 3, 69, 0
5, 264, Note_on_c, 3, 74, 95
5, 272, Note_on_c, 3, 74, 0
5, 276, Note_on_c, 3, 74, 95
5, 284, Note_on_c, 3, 74, 0
5, 288, Note_on_c, 3, 76, 95
5, 304, Note_on_c, 3, 76, 0
5, 312, Note_on_c, 3, 69, 95
5, 328, Note_on_c, 3, 69, 0
5, 360, Note_on_c, 3, 76, 95
5, 376, Note_on_c, 3, 76, 0
5, 384, Note_on_c, 3, 78, 95
5, 392, Note_on_c, 3, 78, 0
5, 396, Note_on_c, 3, 78, 95
5, 404, Note_on_c, 3, 78, 0
5, 408, Note_on_c, 3, 76, 95
5, 416, Note_on_c, 3, 76, 0
5, 420, Note_on_c, 3, 76, 95
5, 428, Note_on_c, 3, 76, 0
5, 432, Note_on_c, 3, 79, 95
5, 440, Note_on_c, 3, 79, 0
5, 444, Note_on_c, 3, 79, 95
5, 452, Note_on_c, 3, 79, 0
5, 456, Note_on_c, 3, 78, 95
5, 464, Note_on_c, 3, 78, 0
5, 468, Note_on_c, 3, 78, 95
5, 476, Note_on_c, 3, 78, 0
5, 480, Note_on_c, 3, 83, 95
5, 488, Note_on_c, 3, 83, 0
5, 492, Note_on_c, 3, 83, 95
5, 500, Note_on_c, 3, 83, 0
5, 504, Note_on_c, 3, 81, 95
5, 512, Note_on_c, 3, 81, 0
5, 516, Note_on_c, 3, 81, 95
5, 524, Note_on_c, 3, 81, 0
5, 528, Note_on_c, 3, 73, 95
5, 536, Note_on_c, 3, 73, 0
5, 540, Note_on_c, 3, 73, 95
5, 548, Note_on_c, 3, 73, 0
5, 552, Note_on_c, 3, 74, 95
5, 560, Note_on_c, 3, 74, 0
5, 564, Note_on_c, 3, 74, 95
5, 572, Note_on_c, 3, 74, 0
5, 576, Note_on_c, 3, 67, 95
5, 584, Note_on_c, 3, 67, 0
5, 588, Note_on_c, 3, 67, 95
5, 596, Note_on_c, 3, 67, 0
5, 600, Note_on_c, 3, 66, 95
5, 608, Note_on_c, 3, 66, 0
5, 612, Note_on_c, 3, 66, 95
5, 620, Note_on_c, 3, 66, 0
5, 624, Note_on_c, 3, 71, 95
5, 632, Note_on_c, 3, 71, 0
5, 636, Note_on_c, 3, 71, 95
5, 644, Note_on_c, 3, 71, 0
5, 648, Note_on_c, 3, 69, 95
5, 656, Note_on_c, 3, 69, 0
5, 660, Note_on_c, 3, 69, 95
5, 668, Note_on_c, 3, 69, 0
5, 672, Note_on_c, 3, 61, 95
5, 680, Note_on_c, 3, 61, 0
5, 684, Note_on_c, 3, 61, 95
5, 692, Note_on_c, 3, 61, 0
5, 696, Note_on_c, 3, 62, 95
5, 704, Note_on_c, 3, 62, 0
5, 708, Note_on_c, 3, 62, 95
5, 716, Note_on_c, 3, 62, 0
5, 720, Note_on_c, 3, 57, 95
5, 728, Note_on_c, 3, 57, 0
5, 732, Note_on_c, 3, 57, 95
5, 740, Note_on_c, 3, 57, 0
5, 744, Note_on_c, 3, 67, 95
5, 752, Note_on_c, 3, 67, 0
5, 756, Note_on_c, 3, 67, 95
5, 764, Note_on_c, 3, 67, 0
5, 768, Note_on_c, 3, 66, 95
5, 776, Note_on_c, 3, 66, 0
5, 780, Note_on_c, 3, 64, 95
5, 788, Note_on_c, 3, 64, 0
5, 792, Note_on_c, 3, 66, 95
5, 800, Note_on_c, 3, 66, 0
5, 804, Note_on_c, 3, 62, 95
5, 812, Note_on_c, 3, 62, 0
5, 816, Note_on_c, 3, 64, 95
5, 824, Note_on_c, 3, 64, 0
5, 828, Note_on_c, 3, 64, 95
5, 836, Note_on_c, 3, 64, 0
5, 840, Note_on_c, 3, 57, 95
5, 848, Note_on_c, 3, 57, 0
5, 852, Note_on_c, 3, 57, 95
5, 860, Note_on_c, 3, 57, 0
5, 864, Note_on_c, 3, 62, 95
5, 872, Note_on_c, 3, 62, 0
5, 876, Note_on_c, 3, 64, 95
5, 884, Note_on_c, 3, 64, 0
5, 888, Note_on_c, 3, 66, 95
5, 896, Note_on_c, 3, 66, 0
5, 900, Note_on_c, 3, 67, 95
5, 908, Note_on_c, 3, 67, 0
5, 912, Note_on_c, 3, 69, 95
5, 920, Note_on_c, 3, 69, 0
5, 924, Note_on_c, 3, 71, 95
5, 932, Note_on_c, 3, 71, 0
5, 936, Note_on_c, 3, 73, 95
5, 944, Note_on_c, 3, 73, 0
5, 948, Note_on_c, 3, 69, 95
5, 956, Note_on_c, 3, 69, 0
5, 960, Note_on_c, 3, 74, 95
5, 968, Note_on_c, 3, 74, 0
5, 972, Note_on_c, 3, 74, 95
5, 980, Note_on_c, 3, 74, 0
5, 984, Note_on_c, 3, 73, 95
5, 992, Note_on_c, 3, 73, 0
5, 996, Note_on_c, 3, 73, 95
5, 1004, Note_on_c, 3, 73, 0
5, 1008, Note_on_c, 3, 76, 95
5, 1016, Note_on_c, 3, 76, 0
5, 1020, Note_on_c, 3, 76, 95
5, 1028, Note_on_c, 3, 76, 0
5, 1032, Note_on_c, 3, 74, 95
5, 1040, Note_on_c, 3, 74, 0
5, 1044, Note_on_c, 3, 74, 95
5, 1052, Note_on_c, 3, 74, 0
5, 1056, Note_on_c, 3, 79, 95
5, 1064, Note_on_c, 3, 79, 0
5, 1068, Note_on_c, 3, 79, 95
5, 1076, Note_on_c, 3, 79, 0
5, 1080, Note_on_c, 3, 78, 95
5, 1088, Note_on_c, 3, 78, 0
5, 1092, Note_on_c, 3, 78, 95
5, 1100, Note_on_c, 3, 78, 0
5, 1104, Note_on_c, 3, 83, 95
5, 1112, Note_on_c, 3, 83, 0
5, 1116, Note_on_c, 3, 83, 95
5, 1124, Note_on_c, 3, 83, 0
5, 1128, Note_on_c, 3, 81, 95
5, 1136, Note_on_c, 3, 81, 0
5, 1140, Note_on_c, 3, 81, 95
5, 1148, Note_on_c, 3, 81, 0
5, 1152, Note_on_c, 3, 79, 95
5, 1160, Note_on_c, 3, 79, 0
5, 1164, Note_on_c, 3, 78, 95
5, 1172, Note_on_c, 3, 78, 0
5, 1176, Note_on_c, 3, 76, 95
5, 1184, Note_on_c, 3, 76, 0
5, 1188, Note_on_c, 3, 74, 95
5, 1196, Note_on_c, 3, 74, 0
5, 1200, Note_on_c, 3, 76, 95
5, 1216, Note_on_c, 3, 76, 0
5, 1224, Note_on_c, 3, 69, 95
5, 1232, Note_on_c, 3, 69, 0
5, 1236, Note_on_c, 3, 71, 95
5, 1244, Note_on_c, 3, 71, 0
5, 1248, Note_on_c, 3, 72, 95
5, 1256, Note_on_c, 3, 72, 0
5, 1260, Note_on_c, 3, 69, 95
5, 1268, Note_on_c, 3, 69, 0
5, 1272, Note_on_c, 3, 71, 95
5, 1280, Note_on_c, 3, 71, 0
5, 1284, Note_on_c, 3, 74, 95
5, 1292, Note_on_c, 3, 74, 0
5, 1296, Note_on_c, 3, 73, 95
5, 1304, Note_on_c, 3, 73, 0
5, 1308, Note_on_c, 3, 76, 95
5, 1316, Note_on_c, 3, 76, 0
5, 1320, Note_on_c, 3, 69, 95
5, 1328, Note_on_c, 3, 69, 0
5, 1332, Note_on_c, 3, 67, 95
5, 1340, Note_on_c, 3, 67, 0
5, 1344, Note_on_c, 3, 66, 95
5, 1352, Note_on_c, 3, 66, 0
5, 1356, Note_on_c, 3, 62, 95
5, 1364, Note_on_c, 3, 62, 0
5, 1368, Note_on_c, 3, 64, 95
5, 1376, Note_on_c, 3, 64, 0
5, 1380, Note_on_c, 3, 67, 95
5, 1388, Note_on_c, 3, 67, 0
5, 1392, Note_on_c, 3, 66, 95
5, 1400, Note_on_c, 3, 66, 0
5, 1404, Note_on_c, 3, 69, 95
5, 1412, Note_on_c, 3, 69, 0
5, 1416, Note_on_c, 3, 62, 95
5, 1424, Note_on_c, 3, 62, 0
5, 1428, Note_on_c, 3, 61, 95
5, 1436, Note_on_c, 3, 61, 0
5, 1440, Note_on_c, 3, 59, 95
5, 1448, Note_on_c, 3, 59, 0
5, 1452, Note_on_c, 3, 67, 95
5, 1460, Note_on_c, 3, 67, 0
5, 1464, Note_on_c, 3, 66, 95
5, 1472, Note_on_c, 3, 66, 0
5, 1476, Note_on_c, 3, 64, 95
5, 1484, Note_on_c, 3, 64, 0
5, 1488, Note_on_c, 3, 64, 95
5, 1512, Note_on_c, 3, 64, 0
5, 1524, Note_on_c, 3, 62, 95
5, 1532, Note_on_c, 3, 62, 0
5, 1536, Note_on_c, 3, 62, 95
5, 1552, Note_on_c, 3, 62, 0
5, 1656, Note_on_c, 3, 78, 95
5, 1672, Note_on_c, 3, 78, 0
5, 1680, Note_on_c, 3, 76, 95
5, 1696, Note_on_c, 3, 76, 0
5, 1704, Note_on_c, 3, 74, 95
5, 1720, Note_on_c, 3, 74, 0
5, 1728, Note_on_c, 3, 73, 95
5, 1760, Note_on_c, 3, 73, 0
5, 1800, Note_on_c, 3, 73, 95
5, 1816, Note_on_c, 3, 73, 0
5, 1824, Note_on_c, 3, 74, 95
5, 1840, Note_on_c, 3, 74, 0
5, 1848, Note_on_c, 3, 69, 95
5, 1864, Note_on_c, 3, 69, 0
5, 1872, Note_on_c, 3, 74, 95
5, 1880, Note_on_c, 3, 74, 0
5, 1884, Note_on_c, 3, 76, 95
5, 1892, Note_on_c, 3, 76, 0
5, 1896, Note_on_c, 3, 78, 95
5, 1904, Note_on_c, 3, 78, 0
5, 1908, Note_on_c, 3, 79, 95
5, 1916, Note_on_c, 3, 79, 0
5, 1920, Note_on_c, 3, 81, 95
5, 1936, Note_on_c, 3, 81, 0
5, 1944, Note_on_c, 3, 73, 95
5, 1960, Note_on_c, 3, 73, 0
5, 1968, Note_on_c, 3, 74, 95
5, 1984, Note_on_c, 3, 74, 0
5, 1992, Note_on_c, 3, 76, 95
5, 2008, Note_on_c, 3, 76, 0
5, 2016, Note_on_c, 3, 78, 95
5, 2032, Note_on_c, 3, 78, 0
5, 2040, Note_on_c, 3, 74, 95
5, 2056, Note_on_c, 3, 74, 0
5, 2064, Note_on_c, 3, 73, 95
5, 2080, Note_on_c, 3, 73, 0
5, 2088, Note_on_c, 3, 71, 95
5, 2104, Note_on_c, 3, 71, 0
5, 2112, Note_on_c, 3, 69, 95
5, 2175, Note_on_c, 3, 69, 0
5, 2232, Note_on_c, 3, 83, 95
5, 2248, Note_on_c, 3, 83, 0
5, 2256, Note_on_c, 3, 81, 95
5, 2272, Note_on_c, 3, 81, 0
5, 2280, Note_on_c, 3, 79, 95
5, 2296, Note_on_c, 3, 79, 0
5, 2304, Note_on_c, 3, 78, 95
5, 2312, Note_on_c, 3, 78, 0
5, 2316, Note_on_c, 3, 79, 95
5, 2324, Note_on_c, 3, 79, 0
5, 2328, Note_on_c, 3, 81, 95
5, 2360, Note_on_c, 3, 81, 0
5, 2376, Note_on_c, 3, 79, 95
5, 2384, Note_on_c, 3, 79, 0
5, 2388, Note_on_c, 3, 78, 95
5, 2396, Note_on_c, 3, 78, 0
5, 2400, Note_on_c, 3, 76, 95
5, 2416, Note_on_c, 3, 76, 0
5, 2424, Note_on_c, 3, 73, 95
5, 2429, Note_on_c, 3, 73, 0
5, 2432, Note_on_c, 3, 71, 95
5, 2437, Note_on_c, 3, 71, 0
5, 2440, Note_on_c, 3, 73, 95
5, 2445, Note_on_c, 3, 73, 0
5, 2448, Note_on_c, 3, 74, 95
5, 2453, Note_on_c, 3, 74, 0
5, 2456, Note_on_c, 3, 73, 95
5, 2461, Note_on_c, 3, 73, 0
5, 2464, Note_on_c, 3, 74, 95
5, 2469, Note_on_c, 3, 74, 0
5, 2472, Note_on_c, 3, 76, 95
5, 2477, Note_on_c, 3, 76, 0
5, 2480, Note_on_c, 3, 74, 95
5, 2485, Note_on_c, 3, 74, 0
5, 2488, Note_on_c, 3, 76, 95
5, 2493, Note_on_c, 3, 76, 0
5, 2496, Note_on_c, 3, 78, 95
5, 2559, Note_on_c, 3, 78, 0
5, 2616, Note_on_c, 3, 71, 95
5, 2621, Note_on_c, 3, 71, 0
5, 2624, Note_on_c, 3, 69, 95
5, 2629, Note_on_c, 3, 69, 0
5, 2632, Note_on_c, 3, 71, 95
5, 2637, Note_on_c, 3, 71, 0
5, 2640, Note_on_c, 3, 73, 95
5, 2645, Note_on_c, 3, 73, 0
5, 2648, Note_on_c, 3, 71, 95
5, 2653, Note_on_c, 3, 71, 0
5, 2656, Note_on_c, 3, 73, 95
5, 2661, Note_on_c, 3, 73, 0
5, 2664, Note_on_c, 3, 74, 95
5, 2669, Note_on_c, 3, 74, 0
5, 2672, Note_on_c, 3, 73, 95
5, 2677, Note_on_c, 3, 73, 0
5, 2680, Note_on_c, 3, 74, 95
5, 2685, Note_on_c, 3, 74, 0
5, 2688, Note_on_c, 3, 76, 95
5, 2750, Note_on_c, 3, 76, 0
5, 2808, Note_on_c, 3, 69, 95
5, 2813, Note_on_c, 3, 69, 0
5, 2816, Note_on_c, 3, 68, 95
5, 2821, Note_on_c, 3, 68, 0
5, 2824, Note_on_c, 3, 69, 95
5, 2829, Note_on_c, 3, 69, 0
5, 2832, Note_on_c, 3, 71, 95
5, 2837, Note_on_c, 3, 71, 0
5, 2840, Note_on_c, 3, 69, 95
5, 2845, Note_on_c, 3, 69, 0
5, 2848, Note_on_c, 3, 71, 95
5, 2853, Note_on_c, 3, 71, 0
5, 2856, Note_on_c, 3, 73, 95
5, 2861, Note_on_c, 3, 73, 0
5, 2864, Note_on_c, 3, 71, 95
5, 2869, Note_on_c, 3, 71, 0
5, 2872, Note_on_c, 3, 73, 95
5, 2877, Note_on_c, 3, 73, 0
5, 2880, Note_on_c, 3, 74, 95
5, 2943, Note_on_c, 3, 74, 0
5, 3000, Note_on_c, 3, 68, 95
5, 3005, Note_on_c, 3, 68, 0
5, 3008, Note_on_c, 3, 66, 95
5, 3013, Note_on_c, 3, 66, 0
5, 3016, Note_on_c, 3, 68, 95
5, 3021, Note_on_c, 3, 68, 0
5, 3024, Note_on_c, 3, 69, 95
5, 3029, Note_on_c, 3, 69, 0
5, 3032, Note_on_c, 3, 68, 95
5, 3037, Note_on_c, 3, 68, 0
5, 3040, Note_on_c, 3, 69, 95
5, 3045, Note_on_c, 3, 69, 0
5, 3048, Note_on_c, 3, 71, 95
5, 3053, Note_on_c, 3, 71, 0
5, 3056, Note_on_c, 3, 69, 95
5, 3061, Note_on_c, 3, 69, 0
5, 3064, Note_on_c, 3, 71, 95
5, 3069, Note_on_c, 3, 71, 0
5, 3072, Note_on_c, 3, 64, 95
5, 3103, Note_on_c, 3, 64, 0
5, 3144, Note_on_c, 3, 69, 95
5, 3160, Note_on_c, 3, 69, 0
5, 3168, Note_on_c, 3, 78, 95
5, 3184, Note_on_c, 3, 78, 0
5, 3192, Note_on_c, 3, 76, 95
5, 3208, Note_on_c, 3, 76, 0
5, 3216, Note_on_c, 3, 74, 95
5, 3224, Note_on_c, 3, 74, 0
5, 3228, Note_on_c, 3, 73, 95
5, 3236, Note_on_c, 3, 73, 0
5, 3240, Note_on_c, 3, 74, 95
5, 3264, Note_on_c, 3, 74, 0
5, 3276, Note_on_c, 3, 73, 95
5, 3284, Note_on_c, 3, 73, 0
5, 3288, Note_on_c, 3, 74, 95
5, 3296, Note_on_c, 3, 74, 0
5, 3300, Note_on_c, 3, 71, 95
5, 3308, Note_on_c, 3, 71, 0
5, 3312, Note_on_c, 3, 73, 95
5, 3328, Note_on_c, 3, 73, 0
5, 3336, Note_on_c, 3, 74, 95
5, 3352, Note_on_c, 3, 74, 0
5, 3360, Note_on_c, 3, 76, 95
5, 3384, Note_on_c, 3, 76, 0
5, 3396, Note_on_c, 3, 78, 95
5, 3404, Note_on_c, 3, 78, 0
5, 3408, Note_on_c, 3, 71, 95
5, 3432, Note_on_c, 3, 71, 0
5, 3444, Note_on_c, 3, 69, 95
5, 3452, Note_on_c, 3, 69, 0
5, 3456, Note_on_c, 3, 69, 95
5, 3488, Note_on_c, 3, 69, 0
5, 3768, Note_on_c, 3, 71, 95
5, 3784, Note_on_c, 3, 71, 0
5, 3792, Note_on_c, 3, 76, 95
5, 3887, Note_on_c, 3, 76, 0
5, 3960, Note_on_c, 3, 69, 95
5, 3976, Note_on_c, 3, 69, 0
5, 3984, Note_on_c, 3, 74, 95
5, 4079, Note_on_c, 3, 74, 0
5, 4128, Note_on_c, 3, 74, 95
5, 4136, Note_on_c, 3, 74, 0
5, 4140, Note_on_c, 3, 78, 95
5, 4148, Note_on_c, 3, 78, 0
5, 4152, Note_on_c, 3, 76, 95
5, 4160, Note_on_c, 3, 76, 0
5, 4164, Note_on_c, 3, 74, 95
5, 4172, Note_on_c, 3, 74, 0
5, 4176, Note_on_c, 3, 73, 95
5, 4184, Note_on_c, 3, 73, 0
5, 4188, Note_on_c, 3, 71, 95
5, 4196, Note_on_c, 3, 71, 0
5, 4200, Note_on_c, 3, 69, 95
5, 4208, Note_on_c, 3, 69, 0
5, 4212, Note_on_c, 3, 68, 95
5, 4220, Note_on_c, 3, 68, 0
5, 4224, Note_on_c, 3, 69, 95
5, 4240, Note_on_c, 3, 69, 0
5, 4248, Note_on_c, 3, 68, 95
5, 4264, Note_on_c, 3, 68, 0
5, 4272, Note_on_c, 3, 71, 95
5, 4288, Note_on_c, 3, 71, 0
5, 4296, Note_on_c, 3, 70, 95
5, 4312, Note_on_c, 3, 70, 0
5, 4320, Note_on_c, 3, 74, 95
5, 4352, Note_on_c, 3, 74, 0
5, 4392, Note_on_c, 3, 75, 95
5, 4408, Note_on_c, 3, 75, 0
5, 4416, Note_on_c, 3, 77, 95
5, 4432, Note_on_c, 3, 77, 0
5, 4440, Note_on_c, 3, 75, 95
5, 4456, Note_on_c, 3, 75, 0
5, 4464, Note_on_c, 3, 78, 95
5, 4480, Note_on_c, 3, 78, 0
5, 4488, Note_on_c, 3, 77, 95
5, 4504, Note_on_c, 3, 77, 0
5, 4512, Note_on_c, 3, 80, 95
5, 4528, Note_on_c, 3, 80, 0
5, 4536, Note_on_c, 3, 65, 95
5, 4552, Note_on_c, 3, 65, 0
5, 4560, Note_on_c, 3, 69, 95
5, 4655, Note_on_c, 3, 69, 0
5, 4728, Note_on_c, 3, 62, 95
5, 4744, Note_on_c, 3, 62, 0
5, 4752, Note_on_c, 3, 67, 95
5, 4847, Note_on_c, 3, 67, 0
5, 4908, Note_on_c, 3, 71, 95
5, 4916, Note_on_c, 3, 71, 0
5, 4920, Note_on_c, 3, 69, 95
5, 4928, Note_on_c, 3, 69, 0
5, 4932, Note_on_c, 3, 67, 95
5, 4940, Note_on_c, 3, 67, 0
5, 4944, Note_on_c, 3, 66, 95
5, 4952, Note_on_c, 3, 66, 0
5, 4956, Note_on_c, 3, 64, 95
5, 4964, Note_on_c, 3, 64, 0
5, 4968, Note_on_c, 3, 62, 95
5, 4976, Note_on_c, 3, 62, 0
5, 4980, Note_on_c, 3, 61, 95
5, 4988, Note_on_c, 3, 61, 0
5, 4992, Note_on_c, 3, 62, 95
5, 5119, Note_on_c, 3, 62, 0
5, 5184, Note_on_c, 3, 62, 95
5, 5200, Note_on_c, 3, 62, 0
5, 5208, Note_on_c, 3, 61, 95
5, 5224, Note_on_c, 3, 61, 0
5, 5232, Note_on_c, 3, 59, 95
5, 5248, Note_on_c, 3, 59, 0
5, 5256, Note_on_c, 3, 57, 95
5, 5272, Note_on_c, 3, 57, 0
5, 5280, Note_on_c, 3, 56, 95
5, 5312, Note_on_c, 3, 56, 0
5, 5352, Note_on_c, 3, 71, 95
5, 5368, Note_on_c, 3, 71, 0
5, 5376, Note_on_c, 3, 73, 95
5, 5388, Note_on_c, 3, 73, 0
5, 5388, Note_on_c, 3, 73, 95
5, 5400, Note_on_c, 3, 73, 0
5, 5400, Note_on_c, 3, 71, 95
5, 5412, Note_on_c, 3, 71, 0
5, 5412, Note_on_c, 3, 71, 95
5, 5424, Note_on_c, 3, 71, 0
5, 5424, Note_on_c, 3, 74, 95
5, 5436, Note_on_c, 3, 74, 0
5, 5436, Note_on_c, 3, 74, 95
5, 5448, Note_on_c, 3, 74, 0
5, 5448, Note_on_c, 3, 73, 95
5, 5460, Note_on_c, 3, 73, 0
5, 5460, Note_on_c, 3, 73, 95
5, 5472, Note_on_c, 3, 73, 0
5, 5472, Note_on_c, 3, 78, 95
5, 5484, Note_on_c, 3, 78, 0
5, 5484, Note_on_c, 3, 78, 95
5, 5496, Note_on_c, 3, 78, 0
5, 5496, Note_on_c, 3, 76, 95
5, 5508, Note_on_c, 3, 76, 0
5, 5508, Note_on_c, 3, 76, 95
5, 5520, Note_on_c, 3, 76, 0
5, 5520, Note_on_c, 3, 68, 95
5, 5532, Note_on_c, 3, 68, 0
5, 5532, Note_on_c, 3, 68, 95
5, 5544, Note_on_c, 3, 68, 0
5, 5544, Note_on_c, 3, 69, 95
5, 5556, Note_on_c, 3, 69, 0
5, 5556, Note_on_c, 3, 69, 95
5, 5568, Note_on_c, 3, 69, 0
5, 5568, Note_on_c, 3, 62, 95
5, 5580, Note_on_c, 3, 62, 0
5, 5580, Note_on_c, 3, 62, 95
5, 5592, Note_on_c, 3, 62, 0
5, 5592, Note_on_c, 3, 61, 95
5, 5604, Note_on_c, 3, 61, 0
5, 5604, Note_on_c, 3, 61, 95
5, 5616, Note_on_c, 3, 61, 0
5, 5616, Note_on_c, 3, 66, 95
5, 5628, Note_on_c, 3, 66, 0
5, 5628, Note_on_c, 3, 66, 95
5, 5640, Note_on_c, 3, 66, 0
5, 5640, Note_on_c, 3, 64, 95
5, 5652, Note_on_c, 3, 64, 0
5, 5652, Note_on_c, 3, 64, 95
5, 5664, Note_on_c, 3, 64, 0
5, 5664, Note_on_c, 3, 56, 95
5, 5676, Note_on_c, 3, 56, 0
5, 5676, Note_on_c, 3, 56, 95
5, 5688, Note_on_c, 3, 56, 0
5, 5688, Note_on_c, 3, 57, 95
5, 5700, Note_on_c, 3, 57, 0
5, 5700, Note_on_c, 3, 57, 95
5, 5712, Note_on_c, 3, 57, 0
5, 5712, Note_on_c, 3, 62, 95
5, 5724, Note_on_c, 3, 62, 0
5, 5724, Note_on_c, 3, 62, 95
5, 5736, Note_on_c, 3, 62, 0
5, 5736, Note_on_c, 3, 71, 95
5, 5748, Note_on_c, 3, 71, 0
5, 5748, Note_on_c, 3, 71, 95
5, 5760, Note_on_c, 3, 71, 0
5, 5760, Note_on_c, 3, 61, 95
5, 5772, Note_on_c, 3, 61, 0
5, 5772, Note_on_c, 3, 61, 95
5, 5784, Note_on_c, 3, 61, 0
5, 5784, Note_on_c, 3, 69, 95
5, 5796, Note_on_c, 3, 69, 0
5, 5796, Note_on_c, 3, 69, 95
5, 5808, Note_on_c, 3, 69, 0
5, 5808, Note_on_c, 3, 59, 95
5, 5820, Note_on_c, 3, 59, 0
5, 5820, Note_on_c, 3, 59, 95
5, 5832, Note_on_c, 3, 59, 0
5, 5832, Note_on_c, 3, 68, 95
5, 5844, Note_on_c, 3, 68, 0
5, 5844, Note_on_c, 3, 68, 95
5, 5856, Note_on_c, 3, 68, 0
5, 5856, Note_on_c, 3, 69, 95
5, 5880, Note_on_c, 3, 69, 0
5, 5904, Note_on_c, 3, 76, 95
5, 6000, Note_on_c, 3, 76, 0
5, 6000, Note_on_c, 3, 74, 95
5, 6048, Note_on_c, 3, 74, 0
5, 6096, Note_on_c, 3, 74, 95
5, 6192, Note_on_c, 3, 74, 0
5, 6192, Note_on_c, 3, 73, 95
5, 6240, Note_on_c, 3, 73, 0
5, 6288, Note_on_c, 3, 73, 95
5, 6384, Note_on_c, 3, 73, 0
5, 6384, Note_on_c, 3, 71, 95
5, 6432, Note_on_c, 3, 71, 0
5, 6480, Note_on_c, 3, 79, 95
5, 6576, Note_on_c, 3, 79, 0
5, 6576, Note_on_c, 3, 78, 95
5, 6600, Note_on_c, 3, 78, 0
5, 6600, Note_on_c, 3, 76, 95
5, 6624, Note_on_c, 3, 76, 0
5, 6624, Note_on_c, 3, 74, 95
5, 6768, Note_on_c, 3, 74, 0
5, 6768, Note_on_c, 3, 73, 95
5, 6792, Note_on_c, 3, 73, 0
5, 6792, Note_on_c, 3, 71, 95
5, 6816, Note_on_c, 3, 71, 0
5, 6816, Note_on_c, 3, 70, 95
5, 6822, Note_on_c, 3, 70, 0
5, 6822, Note_on_c, 3, 71, 95
5, 6828, Note_on_c, 3, 71, 0
5, 6828, Note_on_c, 3, 70, 95
5, 6834, Note_on_c, 3, 70, 0
5, 6834, Note_on_c, 3, 71, 95
5, 6840, Note_on_c, 3, 71, 0
5, 6840, Note_on_c, 3, 70, 95
5, 6846, Note_on_c, 3, 70, 0
5, 6846, Note_on_c, 3, 71, 95
5, 6852, Note_on_c, 3, 71, 0
5, 6852, Note_on_c, 3, 70, 95
5, 6858, Note_on_c, 3, 70, 0
5, 6858, Note_on_c, 3, 71, 95
5, 6864, Note_on_c, 3, 71, 0
5, 6864, Note_on_c, 3, 70, 95
5, 6870, Note_on_c, 3, 70, 0
5, 6870, Note_on_c, 3, 71, 95
5, 6876, Note_on_c, 3, 71, 0
5, 6876, Note_on_c, 3, 70, 95
5, 6882, Note_on_c, 3, 70, 0
5, 6882, Note_on_c, 3, 71, 95
5, 6888, Note_on_c, 3, 71, 0
5, 6888, Note_on_c, 3, 70, 95
5, 6894, Note_on_c, 3, 70, 0
5, 6894, Note_on_c, 3, 71, 95
5, 6900, Note_on_c, 3, 71, 0
5, 6900, Note_on_c, 3, 70, 95
5, 6906, Note_on_c, 3, 70, 0
5, 6906, Note_on_c, 3, 71, 95
5, 6912, Note_on_c, 3, 71, 0
5, 6912, Note_on_c, 3, 71, 95
5, 6936, Note_on_c, 3, 71, 0
5, 6936, Note_on_c, 3, 78, 95
5, 6960, Note_on_c, 3, 78, 0
5, 6960, Note_on_c, 3, 83, 95
5, 6984, Note_on_c, 3, 83, 0
5, 6984, Note_on_c, 3, 81, 95
5, 7008, Note_on_c, 3, 81, 0
5, 7008, Note_on_c, 3, 79, 95
5, 7104, Note_on_c, 3, 79, 0
5, 7128, Note_on_c, 3, 79, 95
5, 7152, Note_on_c, 3, 79, 0
5, 7152, Note_on_c, 3, 78, 95
5, 7176, Note_on_c, 3, 78, 0
5, 7176, Note_on_c, 3, 76, 95
5, 7200, Note_on_c, 3, 76, 0
5, 7200, Note_on_c, 3, 74, 95
5, 7224, Note_on_c, 3, 74, 0
5, 7224, Note_on_c, 3, 76, 95
5, 7248, Note_on_c, 3, 76, 0
5, 7248, Note_on_c, 3, 78, 95
5, 7272, Note_on_c, 3, 78, 0
5, 7272, Note_on_c, 3, 79, 95
5, 7296, Note_on_c, 3, 79, 0
5, 7296, Note_on_c, 3, 74, 95
5, 7332, Note_on_c, 3, 74, 0
5, 7332, Note_on_c, 3, 76, 95
5, 7344, Note_on_c, 3, 76, 0
5, 7344, Note_on_c, 3, 73, 95
5, 7380, Note_on_c, 3, 73, 0
5, 7380, Note_on_c, 3, 71, 95
5, 7392, Note_on_c, 3, 71, 0
5, 7392, Note_on_c, 3, 71, 95
5, 7416, Note_on_c, 3, 71, 0
5, 7416, Note_on_c, 3, 62, 95
5, 7428, Note_on_c, 3, 62, 0
5, 7428, Note_on_c, 3, 64, 95
5, 7440, Note_on_c, 3, 64, 0
5, 7440, Note_on_c, 3, 66, 95
5, 7452, Note_on_c, 3, 66, 0
5, 7452, Note_on_c, 3, 68, 95
5, 7464, Note_on_c, 3, 68, 0
5, 7464, Note_on_c, 3, 70, 95
5, 7476, Note_on_c, 3, 70, 0
5, 7476, Note_on_c, 3, 66, 95
5, 7488, Note_on_c, 3, 66, 0
5, 7488, Note_on_c, 3, 71, 95
5, 7500, Note_on_c, 3, 71, 0
5, 7500, Note_on_c, 3, 71, 95
5, 7512, Note_on_c, 3, 71, 0
5, 7512, Note_on_c, 3, 70, 95
5, 7524, Note_on_c, 3, 70, 0
5, 7524, Note_on_c, 3, 70, 95
5, 7536, Note_on_c, 3, 70, 0
5, 7536, Note_on_c, 3, 74, 95
5, 7548, Note_on_c, 3, 74, 0
5, 7548, Note_on_c, 3, 74, 95
5, 7560, Note_on_c, 3, 74, 0
5, 7560, Note_on_c, 3, 73, 95
5, 7572, Note_on_c, 3, 73, 0
5, 7572, Note_on_c, 3, 73, 95
5, 7584, Note_on_c, 3, 73, 0
5, 7584, Note_on_c, 3, 76, 95
5, 7596, Note_on_c, 3, 76, 0
5, 7596, Note_on_c, 3, 76, 95
5, 7608, Note_on_c, 3, 76, 0
5, 7608, Note_on_c, 3, 75, 95
5, 7620, Note_on_c, 3, 75, 0
5, 7620, Note_on_c, 3, 75, 95
5, 7632, Note_on_c, 3, 75, 0
5, 7632, Note_on_c, 3, 79, 95
5, 7644, Note_on_c, 3, 79, 0
5, 7644, Note_on_c, 3, 79, 95
5, 7656, Note_on_c, 3, 79, 0
5, 7656, Note_on_c, 3, 78, 95
5, 7668, Note_on_c, 3, 78, 0
5, 7668, Note_on_c, 3, 78, 95
5, 7680, Note_on_c, 3, 78, 0
5, 7680, Note_on_c, 3, 82, 95
5, 7692, Note_on_c, 3, 82, 0
5, 7692, Note_on_c, 3, 82, 95
5, 7704, Note_on_c, 3, 82, 0
5, 7704, Note_on_c, 3, 83, 95
5, 7716, Note_on_c, 3, 83, 0
5, 7716, Note_on_c, 3, 83, 95
5, 7728, Note_on_c, 3, 83, 0
5, 7728, Note_on_c, 3, 77, 95
5, 7740, Note_on_c, 3, 77, 0
5, 7740, Note_on_c, 3, 77, 95
5, 7752, Note_on_c, 3, 77, 0
5, 7752, Note_on_c, 3, 78, 95
5, 7764, Note_on_c, 3, 78, 0
5, 7764, Note_on_c, 3, 78, 95
5, 7776, Note_on_c, 3, 78, 0
5, 7776, Note_on_c, 3, 76, 95
5, 7788, Note_on_c, 3, 76, 0
5, 7788, Note_on_c, 3, 74, 95
5, 7800, Note_on_c, 3, 74, 0
5, 7800, Note_on_c, 3, 73, 95
5, 7812, Note_on_c, 3, 73, 0
5, 7812, Note_on_c, 3, 71, 95
5, 7824, Note_on_c, 3, 71, 0
5, 7824, Note_on_c, 3, 74, 95
5, 7836, Note_on_c, 3, 74, 0
5, 7836, Note_on_c, 3, 73, 95
5, 7848, Note_on_c, 3, 73, 0
5, 7848, Note_on_c, 3, 71, 95
5, 7860, Note_on_c, 3, 71, 0
5, 7860, Note_on_c, 3, 70, 95
5, 7872, Note_on_c, 3, 70, 0
5, 7872, Note_on_c, 3, 71, 95
5, 7920, Note_on_c, 3, 71, 0
5, 7992, Note_on_c, 3, 71, 79
5, 8012, Note_on_c, 3, 71, 0
5, 8016, Note_on_c, 3, 70, 79
5, 8036, Note_on_c, 3, 70, 0
5, 8040, Note_on_c, 3, 68, 79
5, 8060, Note_on_c, 3, 68, 0
5, 8064, Note_on_c, 3, 66, 79
5, 8144, Note_on_c, 3, 66, 0
5, 8184, Note_on_c, 3, 79, 79
5, 8204, Note_on_c, 3, 79, 0
5, 8208, Note_on_c, 3, 78, 79
5, 8228, Note_on_c, 3, 78, 0
5, 8232, Note_on_c, 3, 76, 79
5, 8252, Note_on_c, 3, 76, 0
5, 8256, Note_on_c, 3, 74, 79
5, 8266, Note_on_c, 3, 74, 0
5, 8268, Note_on_c, 3, 76, 79
5, 8278, Note_on_c, 3, 76, 0
5, 8280, Note_on_c, 3, 78, 79
5, 8310, Note_on_c, 3, 78, 0
5, 8316, Note_on_c, 3, 74, 95
5, 8326, Note_on_c, 3, 74, 0
5, 8328, Note_on_c, 3, 76, 95
5, 8338, Note_on_c, 3, 76, 0
5, 8340, Note_on_c, 3, 78, 95
5, 8350, Note_on_c, 3, 78, 0
5, 8352, Note_on_c, 3, 79, 95
5, 8392, Note_on_c, 3, 79, 0
5, 8412, Note_on_c, 3, 78, 95
5, 8422, Note_on_c, 3, 78, 0
5, 8424, Note_on_c, 3, 76, 95
5, 8434, Note_on_c, 3, 76, 0
5, 8436, Note_on_c, 3, 78, 95
5, 8446, Note_on_c, 3, 78, 0
5, 8448, Note_on_c, 3, 79, 95
5, 8528, Note_on_c, 3, 79, 0
5, 8568, Note_on_c, 3, 78, 95
5, 8588, Note_on_c, 3, 78, 0
5, 8592, Note_on_c, 3, 76, 95
5, 8612, Note_on_c, 3, 76, 0
5, 8616, Note_on_c, 3, 74, 95
5, 8636, Note_on_c, 3, 74, 0
5, 8640, Note_on_c, 3, 73, 95
5, 8680, Note_on_c, 3, 73, 0
5, 8712, Note_on_c, 3, 73, 95
5, 8732, Note_on_c, 3, 73, 0
5, 8736, Note_on_c, 3, 74, 95
5, 8746, Note_on_c, 3, 74, 0
5, 8748, Note_on_c, 3, 76, 95
5, 8758, Note_on_c, 3, 76, 0
5, 8760, Note_on_c, 3, 78, 95
5, 8794, Note_on_c, 3, 78, 0
5, 8796, Note_on_c, 3, 74, 95
5, 8806, Note_on_c, 3, 74, 0
5, 8808, Note_on_c, 3, 76, 95
5, 8818, Note_on_c, 3, 76, 0
5, 8820, Note_on_c, 3, 78, 95
5, 8830, Note_on_c, 3, 78, 0
5, 8832, Note_on_c, 3, 79, 95
5, 8872, Note_on_c, 3, 79, 0
5, 8904, Note_on_c, 3, 79, 95
5, 8924, Note_on_c, 3, 79, 0
5, 8928, Note_on_c, 3, 79, 95
5, 8938, Note_on_c, 3, 79, 0
5, 8940, Note_on_c, 3, 76, 95
5, 8950, Note_on_c, 3, 76, 0
5, 8952, Note_on_c, 3, 78, 95
5, 8972, Note_on_c, 3, 78, 0
5, 9000, Note_on_c, 3, 78, 95
5, 9020, Note_on_c, 3, 78, 0
5, 9024, Note_on_c, 3, 78, 95
5, 9034, Note_on_c, 3, 78, 0
5, 9036, Note_on_c, 3, 74, 95
5, 9046, Note_on_c, 3, 74, 0
5, 9048, Note_on_c, 3, 76, 95
5, 9068, Note_on_c, 3, 76, 0
5, 9096, Note_on_c, 3, 76, 95
5, 9116, Note_on_c, 3, 76, 0
5, 9120, Note_on_c, 3, 76, 95
5, 9130, Note_on_c, 3, 76, 0
5, 9132, Note_on_c, 3, 73, 95
5, 9142, Note_on_c, 3, 73, 0
5, 9144, Note_on_c, 3, 74, 95
5, 9154, Note_on_c, 3, 74, 0
5, 9156, Note_on_c, 3, 76, 95
5, 9166, Note_on_c, 3, 76, 0
5, 9168, Note_on_c, 3, 74, 95
5, 9178, Note_on_c, 3, 74, 0
5, 9180, Note_on_c, 3, 78, 95
5, 9190, Note_on_c, 3, 78, 0
5, 9192, Note_on_c, 3, 76, 95
5, 9202, Note_on_c, 3, 76, 0
5, 9204, Note_on_c, 3, 74, 95
5, 9214, Note_on_c, 3, 74, 0
5, 9216, Note_on_c, 3, 73, 95
5, 9236, Note_on_c, 3, 73, 0
5, 9240, Note_on_c, 3, 69, 95
5, 9260, Note_on_c, 3, 69, 0
5, 9288, Note_on_c, 3, 64, 95
5, 9308, Note_on_c, 3, 64, 0
5, 9312, Note_on_c, 3, 66, 95
5, 9322, Note_on_c, 3, 66, 0
5, 9324, Note_on_c, 3, 64, 95
5, 9334, Note_on_c, 3, 64, 0
5, 9336, Note_on_c, 3, 66, 95
5, 9346, Note_on_c, 3, 66, 0
5, 9348, Note_on_c, 3, 67, 95
5, 9358, Note_on_c, 3, 67, 0
5, 9360, Note_on_c, 3, 66, 95
5, 9370, Note_on_c, 3, 66, 0
5, 9372, Note_on_c, 3, 69, 95
5, 9382, Note_on_c, 3, 69, 0
5, 9384, Note_on_c, 3, 67, 95
5, 9394, Note_on_c, 3, 67, 0
5, 9396, Note_on_c, 3, 66, 95
5, 9406, Note_on_c, 3, 66, 0
5, 9408, Note_on_c, 3, 64, 95
5, 9448, Note_on_c, 3, 64, 0
5, 9480, Note_on_c, 3, 64, 95
5, 9500, Note_on_c, 3, 64, 0
5, 9504, Note_on_c, 3, 66, 95
5, 9524, Note_on_c, 3, 66, 0
5, 9528, Note_on_c, 3, 64, 95
5, 9548, Note_on_c, 3, 64, 0
5, 9552, Note_on_c, 3, 67, 95
5, 9572, Note_on_c, 3, 67, 0
5, 9576, Note_on_c, 3, 66, 95
5, 9596, Note_on_c, 3, 66, 0
5, 9600, Note_on_c, 3, 71, 95
5, 9640, Note_on_c, 3, 71, 0
5, 9672, Note_on_c, 3, 71, 95
5, 9692, Note_on_c, 3, 71, 0
5, 9696, Note_on_c, 3, 73, 95
5, 9716, Note_on_c, 3, 73, 0
5, 9720, Note_on_c, 3, 71, 95
5, 9740, Note_on_c, 3, 71, 0
5, 9744, Note_on_c, 3, 74, 95
5, 9764, Note_on_c, 3, 74, 0
5, 9768, Note_on_c, 3, 73, 95
5, 9788, Note_on_c, 3, 73, 0
5, 9792, Note_on_c, 3, 76, 95
5, 9812, Note_on_c, 3, 76, 0
5, 9816, Note_on_c, 3, 69, 95
5, 9836, Note_on_c, 3, 69, 0
5, 9840, Note_on_c, 3, 78, 95
5, 9968, Note_on_c, 3, 78, 0
5, 9984, Note_on_c, 3, 78, 95
5, 10004, Note_on_c, 3, 78, 0
5, 10008, Note_on_c, 3, 71, 95
5, 10028, Note_on_c, 3, 71, 0
5, 10032, Note_on_c, 3, 76, 95
5, 10160, Note_on_c, 3, 76, 0
5, 10176, Note_on_c, 3, 76, 95
5, 10186, Note_on_c, 3, 76, 0
5, 10188, Note_on_c, 3, 79, 95
5, 10198, Note_on_c, 3, 79, 0
5, 10200, Note_on_c, 3, 78, 95
5, 10210, Note_on_c, 3, 78, 0
5, 10212, Note_on_c, 3, 76, 95
5, 10222, Note_on_c, 3, 76, 0
5, 10224, Note_on_c, 3, 74, 95
5, 10234, Note_on_c, 3, 74, 0
5, 10236, Note_on_c, 3, 72, 95
5, 10246, Note_on_c, 3, 72, 0
5, 10248, Note_on_c, 3, 71, 95
5, 10258, Note_on_c, 3, 71, 0
5, 10260, Note_on_c, 3, 69, 95
5, 10270, Note_on_c, 3, 69, 0
5, 10272, Note_on_c, 3, 71, 95
5, 10292, Note_on_c, 3, 71, 0
5, 10296, Note_on_c, 3, 69, 95
5, 10316, Note_on_c, 3, 69, 0
5, 10320, Note_on_c, 3, 72, 95
5, 10340, Note_on_c, 3, 72, 0
5, 10344, Note_on_c, 3, 71, 95
5, 10364, Note_on_c, 3, 71, 0
5, 10368, Note_on_c, 3, 76, 95
5, 10408, Note_on_c, 3, 76, 0
5, 10440, Note_on_c, 3, 76, 95
5, 10460, Note_on_c, 3, 76, 0
5, 10464, Note_on_c, 3, 78, 95
5, 10484, Note_on_c, 3, 78, 0
5, 10488, Note_on_c, 3, 76, 95
5, 10508, Note_on_c, 3, 76, 0
5, 10512, Note_on_c, 3, 79, 95
5, 10532, Note_on_c, 3, 79, 0
5, 10536, Note_on_c, 3, 78, 95
5, 10556, Note_on_c, 3, 78, 0
5, 10560, Note_on_c, 3, 81, 95
5, 10600, Note_on_c, 3, 81, 0
5, 10632, Note_on_c, 3, 69, 95
5, 10652, Note_on_c, 3, 69, 0
5, 10656, Note_on_c, 3, 71, 95
5, 10676, Note_on_c, 3, 71, 0
5, 10680, Note_on_c, 3, 69, 95
5, 10700, Note_on_c, 3, 69, 0
5, 10704, Note_on_c, 3, 72, 95
5, 10724, Note_on_c, 3, 72, 0
5, 10728, Note_on_c, 3, 71, 95
5, 10748, Note_on_c, 3, 71, 0
5, 10752, Note_on_c, 3, 76, 95
5, 10772, Note_on_c, 3, 76, 0
5, 10776, Note_on_c, 3, 74, 95
5, 10796, Note_on_c, 3, 74, 0
5, 10800, Note_on_c, 3, 66, 95
5, 10820, Note_on_c, 3, 66, 0
5, 10824, Note_on_c, 3, 67, 95
5, 10844, Note_on_c, 3, 67, 0
5, 10848, Note_on_c, 3, 61, 95
5, 10868, Note_on_c, 3, 61, 0
5, 10872, Note_on_c, 3, 62, 95
5, 10892, Note_on_c, 3, 62, 0
5, 10896, Note_on_c, 3, 64, 95
5, 10916, Note_on_c, 3, 64, 0
5, 10920, Note_on_c, 3, 66, 95
5, 10940, Note_on_c, 3, 66, 0
5, 10944, Note_on_c, 3, 67, 95
5, 10954, Note_on_c, 3, 67, 0
5, 10956, Note_on_c, 3, 66, 95
5, 10966, Note_on_c, 3, 66, 0
5, 10968, Note_on_c, 3, 64, 95
5, 10978, Note_on_c, 3, 64, 0
5, 10980, Note_on_c, 3, 66, 95
5, 10990, Note_on_c, 3, 66, 0
5, 10992, Note_on_c, 3, 67, 95
5, 11002, Note_on_c, 3, 67, 0
5, 11004, Note_on_c, 3, 71, 95
5, 11014, Note_on_c, 3, 71, 0
5, 11016, Note_on_c, 3, 69, 95
5, 11026, Note_on_c, 3, 69, 0
5, 11028, Note_on_c, 3, 67, 95
5, 11038, Note_on_c, 3, 67, 0
5, 11040, Note_on_c, 3, 66, 95
5, 11050, Note_on_c, 3, 66, 0
5, 11052, Note_on_c, 3, 66, 95
5, 11062, Note_on_c, 3, 66, 0
5, 11064, Note_on_c, 3, 69, 95
5, 11074, Note_on_c, 3, 69, 0
5, 11076, Note_on_c, 3, 69, 95
5, 11086, Note_on_c, 3, 69, 0
5, 11088, Note_on_c, 3, 74, 95
5, 11098, Note_on_c, 3, 74, 0
5, 11100, Note_on_c, 3, 74, 95
5, 11110, Note_on_c, 3, 74, 0
5, 11112, Note_on_c, 3, 78, 95
5, 11122, Note_on_c, 3, 78, 0
5, 11124, Note_on_c, 3, 78, 95
5, 11134, Note_on_c, 3, 78, 0
5, 11136, Note_on_c, 3, 83, 95
5, 11146, Note_on_c, 3, 83, 0
5, 11148, Note_on_c, 3, 83, 95
5, 11158, Note_on_c, 3, 83, 0
5, 11160, Note_on_c, 3, 81, 95
5, 11170, Note_on_c, 3, 81, 0
5, 11172, Note_on_c, 3, 81, 95
5, 11182, Note_on_c, 3, 81, 0
5, 11184, Note_on_c, 3, 73, 95
5, 11194, Note_on_c, 3, 73, 0
5, 11196, Note_on_c, 3, 73, 95
5, 11206, Note_on_c, 3, 73, 0
5, 11208, Note_on_c, 3, 74, 95
5, 11218, Note_on_c, 3, 74, 0
5, 11220, Note_on_c, 3, 74, 95
5, 11230, Note_on_c, 3, 74, 0
5, 11232, Note_on_c, 3, 67, 95
5, 11242, Note_on_c, 3, 67, 0
5, 11244, Note_on_c, 3, 67, 95
5, 11254, Note_on_c, 3, 67, 0
5, 11256, Note_on_c, 3, 66, 95
5, 11266, Note_on_c, 3, 66, 0
5, 11268, Note_on_c, 3, 66, 95
5, 11278, Note_on_c, 3, 66, 0
5, 11280, Note_on_c, 3, 71, 95
5, 11290, Note_on_c, 3, 71, 0
5, 11292, Note_on_c, 3, 71, 95
5, 11302, Note_on_c, 3, 71, 0
5, 11304, Note_on_c, 3, 69, 95
5, 11314, Note_on_c, 3, 69, 0
5, 11316, Note_on_c, 3, 69, 95
5, 11326, Note_on_c, 3, 69, 0
5, 11328, Note_on_c, 3, 61, 95
5, 11338, Note_on_c, 3, 61, 0
5, 11340, Note_on_c, 3, 61, 95
5, 11350, Note_on_c, 3, 61, 0
5, 11352, Note_on_c, 3, 62, 95
5, 11362, Note_on_c, 3, 62, 0
5, 11364, Note_on_c, 3, 62, 95
5, 11374, Note_on_c, 3, 62, 0
5, 11376, Note_on_c, 3, 57, 95
5, 11386, Note_on_c, 3, 57, 0
5, 11388, Note_on_c, 3, 57, 95
5, 11398, Note_on_c, 3, 57, 0
5, 11400, Note_on_c, 3, 67, 95
5, 11410, Note_on_c, 3, 67, 0
5, 11412, Note_on_c, 3, 67, 95
5, 11422, Note_on_c, 3, 67, 0
5, 11424, Note_on_c, 3, 66, 95
5, 11434, Note_on_c, 3, 66, 0
5, 11436, Note_on_c, 3, 64, 95
5, 11446, Note_on_c, 3, 64, 0
5, 11448, Note_on_c, 3, 66, 95
5, 11458, Note_on_c, 3, 66, 0
5, 11460, Note_on_c, 3, 62, 95
5, 11470, Note_on_c, 3, 62, 0
5, 11472, Note_on_c, 3, 64, 95
5, 11482, Note_on_c, 3, 64, 0
5, 11484, Note_on_c, 3, 64, 95
5, 11494, Note_on_c, 3, 64, 0
5, 11496, Note_on_c, 3, 57, 95
5, 11506, Note_on_c, 3, 57, 0
5, 11508, Note_on_c, 3, 57, 95
5, 11518, Note_on_c, 3, 57, 0
5, 11520, Note_on_c, 3, 62, 95
5, 11540, Note_on_c, 3, 62, 0
5, 11640, Note_on_c, 3, 64, 79
5, 11664, Note_on_c, 3, 64, 0
5, 11664, Note_on_c, 3, 66, 79
5, 11688, Note_on_c, 3, 66, 0
5, 11688, Note_on_c, 3, 64, 79
5, 11712, Note_on_c, 3, 64, 0
5, 11712, Note_on_c, 3, 67, 79
5, 11736, Note_on_c, 3, 67, 0
5, 11736, Note_on_c, 3, 66, 79
5, 11760, Note_on_c, 3, 66, 0
5, 11760, Note_on_c, 3, 71, 79
5, 11784, Note_on_c, 3, 71, 0
5, 11784, Note_on_c, 3, 69, 79
5, 11808, Note_on_c, 3, 69, 0
5, 11808, Note_on_c, 3, 74, 79
5, 11904, Note_on_c, 3, 74, 0
5, 11928, Note_on_c, 3, 73, 79
5, 11952, Note_on_c, 3, 73, 0
5, 11952, Note_on_c, 3, 76, 79
5, 11976, Note_on_c, 3, 76, 0
5, 11976, Note_on_c, 3, 74, 79
5, 12000, Note_on_c, 3, 74, 0
5, 12000, Note_on_c, 3, 79, 79
5, 12024, Note_on_c, 3, 79, 0
5, 12024, Note_on_c, 3, 78, 79
5, 12048, Note_on_c, 3, 78, 0
5, 12048, Note_on_c, 3, 76, 79
5, 12072, Note_on_c, 3, 76, 0
5, 12072, Note_on_c, 3, 74, 79
5, 12084, Note_on_c, 3, 74, 0
5, 12084, Note_on_c, 3, 73, 79
5, 12096, Note_on_c, 3, 73, 0
5, 12096, Note_on_c, 3, 74, 79
5, 12108, Note_on_c, 3, 74, 0
5, 12108, Note_on_c, 3, 76, 79
5, 12120, Note_on_c, 3, 76, 0
5, 12120, Note_on_c, 3, 73, 79
5, 12132, Note_on_c, 3, 73, 0
5, 12132, Note_on_c, 3, 74, 79
5, 12144, Note_on_c, 3, 74, 0
5, 12144, Note_on_c, 3, 71, 79
5, 12150, Note_on_c, 3, 71, 0
5, 12150, Note_on_c, 3, 73, 79
5, 12156, Note_on_c, 3, 73, 0
5, 12156, Note_on_c, 3, 71, 79
5, 12162, Note_on_c, 3, 71, 0
5, 12162, Note_on_c, 3, 73, 79
5, 12168, Note_on_c, 3, 73, 0
5, 12168, Note_on_c, 3, 64, 79
5, 12180, Note_on_c, 3, 64, 0
5, 12180, Note_on_c, 3, 66, 79
5, 12192, Note_on_c, 3, 66, 0
5, 12192, Note_on_c, 3, 67, 79
5, 12204, Note_on_c, 3, 67, 0
5, 12204, Note_on_c, 3, 64, 79
5, 12216, Note_on_c, 3, 64, 0
5, 12216, Note_on_c, 3, 66, 79
5, 12228, Note_on_c, 3, 66, 0
5, 12228, Note_on_c, 3, 69, 79
5, 12240, Note_on_c, 3, 69, 0
5, 12240, Note_on_c, 3, 68, 79
5, 12252, Note_on_c, 3, 68, 0
5, 12252, Note_on_c, 3, 64, 79
5, 12264, Note_on_c, 3, 64, 0
5, 12264, Note_on_c, 3, 66, 79
5, 12276, Note_on_c, 3, 66, 0
5, 12276, Note_on_c, 3, 68, 79
5, 12288, Note_on_c, 3, 68, 0
5, 12288, Note_on_c, 3, 69, 79
5, 12300, Note_on_c, 3, 69, 0
5, 12300, Note_on_c, 3, 66, 79
5, 12312, Note_on_c, 3, 66, 0
5, 12312, Note_on_c, 3, 68, 79
5, 12324, Note_on_c, 3, 68, 0
5, 12324, Note_on_c, 3, 71, 79
5, 12336, Note_on_c, 3, 71, 0
5, 12336, Note_on_c, 3, 69, 79
5, 12348, Note_on_c, 3, 69, 0
5, 12348, Note_on_c, 3, 66, 79
5, 12360, Note_on_c, 3, 66, 0
5, 12360, Note_on_c, 3, 68, 79
5, 12372, Note_on_c, 3, 68, 0
5, 12372, Note_on_c, 3, 69, 79
5, 12384, Note_on_c, 3, 69, 0
5, 12384, Note_on_c, 3, 71, 79
5, 12396, Note_on_c, 3, 71, 0
5, 12396, Note_on_c, 3, 68, 79
5, 12408, Note_on_c, 3, 68, 0
5, 12408, Note_on_c, 3, 69, 79
5, 12420, Note_on_c, 3, 69, 0
5, 12420, Note_on_c, 3, 73, 79
5, 12432, Note_on_c, 3, 73, 0
5, 12432, Note_on_c, 3, 71, 79
5, 12444, Note_on_c, 3, 71, 0
5, 12444, Note_on_c, 3, 68, 79
5, 12456, Note_on_c, 3, 68, 0
5, 12456, Note_on_c, 3, 69, 79
5, 12468, Note_on_c, 3, 69, 0
5, 12468, Note_on_c, 3, 71, 79
5, 12480, Note_on_c, 3, 71, 0
5, 12480, Note_on_c, 3, 73, 79
5, 12504, Note_on_c, 3, 73, 0
5, 12504, Note_on_c, 3, 71, 79
5, 12528, Note_on_c, 3, 71, 0
5, 12528, Note_on_c, 3, 74, 79
5, 12552, Note_on_c, 3, 74, 0
5, 12552, Note_on_c, 3, 73, 79
5, 12576, Note_on_c, 3, 73, 0
5, 12576, Note_on_c, 3, 78, 79
5, 12600, Note_on_c, 3, 78, 0
5, 12600, Note_on_c, 3, 76, 79
5, 12624, Note_on_c, 3, 76, 0
5, 12624, Note_on_c, 3, 76, 79
5, 12768, Note_on_c, 3, 76, 0
5, 12780, Note_on_c, 3, 75, 79
5, 12792, Note_on_c, 3, 75, 0
5, 12792, Note_on_c, 3, 76, 79
5, 12804, Note_on_c, 3, 76, 0
5, 12804, Note_on_c, 3, 78, 79
5, 12816, Note_on_c, 3, 78, 0
5, 12816, Note_on_c, 3, 75, 79
5, 12828, Note_on_c, 3, 75, 0
5, 12828, Note_on_c, 3, 78, 79
5, 12840, Note_on_c, 3, 78, 0
5, 12840, Note_on_c, 3, 76, 79
5, 12852, Note_on_c, 3, 76, 0
5, 12852, Note_on_c, 3, 78, 79
5, 12864, Note_on_c, 3, 78, 0
5, 12864, Note_on_c, 3, 80, 79
5, 12960, Note_on_c, 3, 80, 0
5, 12972, Note_on_c, 3, 78, 79
5, 12984, Note_on_c, 3, 78, 0
5, 12984, Note_on_c, 3, 80, 79
5, 12996, Note_on_c, 3, 80, 0
5, 12996, Note_on_c, 3, 81, 79
5, 13008, Note_on_c, 3, 81, 0
5, 13008, Note_on_c, 3, 78, 79
5, 13020, Note_on_c, 3, 78, 0
5, 13020, Note_on_c, 3, 81, 79
5, 13032, Note_on_c, 3, 81, 0
5, 13032, Note_on_c, 3, 80, 79
5, 13044, Note_on_c, 3, 80, 0
5, 13044, Note_on_c, 3, 81, 79
5, 13056, Note_on_c, 3, 81, 0
5, 13056, Note_on_c, 3, 83, 79
5, 13152, Note_on_c, 3, 83, 0
5, 13164, Note_on_c, 3, 86, 79
5, 13176, Note_on_c, 3, 86, 0
5, 13176, Note_on_c, 3, 85, 79
5, 13188, Note_on_c, 3, 85, 0
5, 13188, Note_on_c, 3, 83, 79
5, 13200, Note_on_c, 3, 83, 0
5, 13200, Note_on_c, 3, 81, 79
5, 13212, Note_on_c, 3, 81, 0
5, 13212, Note_on_c, 3, 80, 79
5, 13224, Note_on_c, 3, 80, 0
5, 13224, Note_on_c, 3, 78, 79
5, 13236, Note_on_c, 3, 78, 0
5, 13236, Note_on_c, 3, 81, 79
5, 13248, Note_on_c, 3, 81, 0
5, 13248, Note_on_c, 3, 74, 79
5, 13344, Note_on_c, 3, 74, 0
5, 13356, Note_on_c, 3, 73, 79
5, 13368, Note_on_c, 3, 73, 0
5, 13368, Note_on_c, 3, 71, 79
5, 13380, Note_on_c, 3, 71, 0
5, 13380, Note_on_c, 3, 74, 79
5, 13392, Note_on_c, 3, 74, 0
5, 13392, Note_on_c, 3, 73, 79
5, 13404, Note_on_c, 3, 73, 0
5, 13404, Note_on_c, 3, 71, 79
5, 13416, Note_on_c, 3, 71, 0
5, 13416, Note_on_c, 3, 69, 79
5, 13428, Note_on_c, 3, 69, 0
5, 13428, Note_on_c, 3, 68, 79
5, 13440, Note_on_c, 3, 68, 0
5, 13440, Note_on_c, 3, 69, 79
5, 13464, Note_on_c, 3, 69, 0
5, 13488, Note_on_c, 3, 78, 63
5, 13512, Note_on_c, 3, 78, 0
5, 13536, Note_on_c, 3, 78, 63
5, 13560, Note_on_c, 3, 78, 0
5, 13584, Note_on_c, 3, 78, 63
5, 13608, Note_on_c, 3, 78, 0
5, 13632, Note_on_c, 3, 69, 63
5, 13668, Note_on_c, 3, 69, 0
5, 13668, Note_on_c, 3, 71, 63
5, 13680, Note_on_c, 3, 71, 0
5, 13680, Note_on_c, 3, 69, 63
5, 13692, Note_on_c, 3, 69, 0
5, 13692, Note_on_c, 3, 74, 63
5, 13704, Note_on_c, 3, 74, 0
5, 13704, Note_on_c, 3, 73, 63
5, 13716, Note_on_c, 3, 73, 0
5, 13716, Note_on_c, 3, 74, 63
5, 13728, Note_on_c, 3, 74, 0
5, 13728, Note_on_c, 3, 69, 63
5, 13764, Note_on_c, 3, 69, 0
5, 13764, Note_on_c, 3, 71, 63
5, 13776, Note_on_c, 3, 71, 0
5, 13776, Note_on_c, 3, 69, 63
5, 13788, Note_on_c, 3, 69, 0
5, 13788, Note_on_c, 3, 74, 63
5, 13800, Note_on_c, 3, 74, 0
5, 13800, Note_on_c, 3, 73, 63
5, 13812, Note_on_c, 3, 73, 0
5, 13812, Note_on_c, 3, 74, 63
5, 13824, Note_on_c, 3, 74, 0
5, 13824, Note_on_c, 3, 65, 63
5, 13848, Note_on_c, 3, 65, 0
5, 13872, Note_on_c, 3, 65, 63
5, 13896, Note_on_c, 3, 65, 0
5, 13920, Note_on_c, 3, 65, 63
5, 13944, Note_on_c, 3, 65, 0
5, 13968, Note_on_c, 3, 65, 63
5, 13992, Note_on_c, 3, 65, 0
5, 14016, Note_on_c, 3, 69, 63
5, 14052, Note_on_c, 3, 69, 0
5, 14052, Note_on_c, 3, 71, 63
5, 14064, Note_on_c, 3, 71, 0
5, 14064, Note_on_c, 3, 69, 63
5, 14076, Note_on_c, 3, 69, 0
5, 14076, Note_on_c, 3, 78, 63
5, 14088, Note_on_c, 3, 78, 0
5, 14088, Note_on_c, 3, 77, 63
5, 14100, Note_on_c, 3, 77, 0
5, 14100, Note_on_c, 3, 78, 63
5, 14112, Note_on_c, 3, 78, 0
5, 14112, Note_on_c, 3, 69, 63
5, 14148, Note_on_c, 3, 69, 0
5, 14148, Note_on_c, 3, 71, 63
5, 14160, Note_on_c, 3, 71, 0
5, 14160, Note_on_c, 3, 69, 63
5, 14172, Note_on_c, 3, 69, 0
5, 14172, Note_on_c, 3, 78, 63
5, 14184, Note_on_c, 3, 78, 0
5, 14184, Note_on_c, 3, 77, 63
5, 14196, Note_on_c, 3, 77, 0
5, 14196, Note_on_c, 3, 78, 63
5, 14208, Note_on_c, 3, 78, 0
5, 14208, Note_on_c, 3, 74, 63
5, 14232, Note_on_c, 3, 74, 0
5, 14256, Note_on_c, 3, 74, 63
5, 14280, Note_on_c, 3, 74, 0
5, 14304, Note_on_c, 3, 74, 63
5, 14328, Note_on_c, 3, 74, 0
5, 14352, Note_on_c, 3, 74, 63
5, 14376, Note_on_c, 3, 74, 0
5, 14400, Note_on_c, 3, 74, 63
5, 14436, Note_on_c, 3, 74, 0
5, 14436, Note_on_c, 3, 76, 63
5, 14448, Note_on_c, 3, 76, 0
5, 14448, Note_on_c, 3, 74, 63
5, 14460, Note_on_c, 3, 74, 0
5, 14460, Note_on_c, 3, 83, 63
5, 14472, Note_on_c, 3, 83, 0
5, 14472, Note_on_c, 3, 81, 63
5, 14484, Note_on_c, 3, 81, 0
5, 14484, Note_on_c, 3, 83, 63
5, 14496, Note_on_c, 3, 83, 0
5, 14496, Note_on_c, 3, 74, 63
5, 14532, Note_on_c, 3, 74, 0
5, 14532, Note_on_c, 3, 76, 63
5, 14544, Note_on_c, 3, 76, 0
5, 14544, Note_on_c, 3, 74, 63
5, 14556, Note_on_c, 3, 74, 0
5, 14556, Note_on_c, 3, 83, 63
5, 14568, Note_on_c, 3, 83, 0
5, 14568, Note_on_c, 3, 81, 63
5, 14580, Note_on_c, 3, 81, 0
5, 14580, Note_on_c, 3, 83, 63
5, 14592, Note_on_c, 3, 83, 0
5, 14592, Note_on_c, 3, 73, 63
5, 14616, Note_on_c, 3, 73, 0
5, 14640, Note_on_c, 3, 81, 63
5, 14664, Note_on_c, 3, 81, 0
5, 14688, Note_on_c, 3, 81, 63
5, 14712, Note_on_c, 3, 81, 0
5, 14736, Note_on_c, 3, 81, 63
5, 14760, Note_on_c, 3, 81, 0
5, 14784, Note_on_c, 3, 74, 63
5, 14820, Note_on_c, 3, 74, 0
5, 14820, Note_on_c, 3, 76, 63
5, 14832, Note_on_c, 3, 76, 0
5, 14832, Note_on_c, 3, 74, 63
5, 14844, Note_on_c, 3, 74, 0
5, 14844, Note_on_c, 3, 78, 63
5, 14856, Note_on_c, 3, 78, 0
5, 14856, Note_on_c, 3, 76, 63
5, 14868, Note_on_c, 3, 76, 0
5, 14868, Note_on_c, 3, 78, 63
5, 14880, Note_on_c, 3, 78, 0
5, 14880, Note_on_c, 3, 74, 63
5, 14916, Note_on_c, 3, 74, 0
5, 14916, Note_on_c, 3, 76, 63
5, 14928, Note_on_c, 3, 76, 0
5, 14928, Note_on_c, 3, 74, 63
5, 14940, Note_on_c, 3, 74, 0
5, 14940, Note_on_c, 3, 78, 63
5, 14952, Note_on_c, 3, 78, 0
5, 14952, Note_on_c, 3, 76, 63
5, 14964, Note_on_c, 3, 76, 0
5, 14964, Note_on_c, 3, 78, 63
5, 14976, Note_on_c, 3, 78, 0
5, 14976, Note_on_c, 3, 71, 63
5, 15000, Note_on_c, 3, 71, 0
5, 15024, Note_on_c, 3, 71, 63
5, 15048, Note_on_c, 3, 71, 0
5, 15072, Note_on_c, 3, 71, 63
5, 15096, Note_on_c, 3, 71, 0
5, 15120, Note_on_c, 3, 71, 63
5, 15144, Note_on_c, 3, 71, 0
5, 15168, Note_on_c, 3, 76, 63
5, 15204, Note_on_c, 3, 76, 0
5, 15204, Note_on_c, 3, 78, 63
5, 15216, Note_on_c, 3, 78, 0
5, 15216, Note_on_c, 3, 76, 63
5, 15228, Note_on_c, 3, 76, 0
5, 15228, Note_on_c, 3, 81, 63
5, 15240, Note_on_c, 3, 81, 0
5, 15240, Note_on_c, 3, 80, 63
5, 15252, Note_on_c, 3, 80, 0
5, 15252, Note_on_c, 3, 81, 63
5, 15264, Note_on_c, 3, 81, 0
5, 15264, Note_on_c, 3, 76, 63
5, 15300, Note_on_c, 3, 76, 0
5, 15300, Note_on_c, 3, 78, 63
5, 15312, Note_on_c, 3, 78, 0
5, 15312, Note_on_c, 3, 76, 63
5, 15324, Note_on_c, 3, 76, 0
5, 15324, Note_on_c, 3, 81, 63
5, 15336, Note_on_c, 3, 81, 0
5, 15336, Note_on_c, 3, 80, 63
5, 15348, Note_on_c, 3, 80, 0
5, 15348, Note_on_c, 3, 81, 63
5, 15360, Note_on_c, 3, 81, 0
5, 15360, Note_on_c, 3, 73, 63
5, 15384, Note_on_c, 3, 73, 0
5, 15384, Note_on_c, 3, 69, 63
5, 15408, Note_on_c, 3, 69, 0
5, 15432, Note_on_c, 3, 81, 63
5, 15456, Note_on_c, 3, 81, 0
5, 15456, Note_on_c, 3, 78, 63
5, 15480, Note_on_c, 3, 78, 0
5, 15480, Note_on_c, 3, 75, 63
5, 15504, Note_on_c, 3, 75, 0
5, 15528, Note_on_c, 3, 78, 63
5, 15552, Note_on_c, 3, 78, 0
5, 15552, Note_on_c, 3, 75, 63
5, 15576, Note_on_c, 3, 75, 0
5, 15576, Note_on_c, 3, 71, 63
5, 15600, Note_on_c, 3, 71, 0
5, 15624, Note_on_c, 3, 75, 63
5, 15648, Note_on_c, 3, 75, 0
5, 15648, Note_on_c, 3, 71, 63
5, 15672, Note_on_c, 3, 71, 0
5, 15672, Note_on_c, 3, 68, 63
5, 15696, Note_on_c, 3, 68, 0
5, 15720, Note_on_c, 3, 71, 63
5, 15744, Note_on_c, 3, 71, 0
5, 15744, Note_on_c, 3, 68, 63
5, 15768, Note_on_c, 3, 68, 0
5, 15768, Note_on_c, 3, 64, 63
5, 15792, Note_on_c, 3, 64, 0
5, 15816, Note_on_c, 3, 80, 63
5, 15840, Note_on_c, 3, 80, 0
5, 15840, Note_on_c, 3, 76, 63
5, 15864, Note_on_c, 3, 76, 0
5, 15864, Note_on_c, 3, 73, 63
5, 15888, Note_on_c, 3, 73, 0
5, 15912, Note_on_c, 3, 76, 63
5, 15936, Note_on_c, 3, 76, 0
5, 15936, Note_on_c, 3, 73, 63
5, 15960, Note_on_c, 3, 73, 0
5, 15960, Note_on_c, 3, 69, 63
5, 15984, Note_on_c, 3, 69, 0
5, 16008, Note_on_c, 3, 73, 63
5, 16032, Note_on_c, 3, 73, 0
5, 16032, Note_on_c, 3, 69, 63
5, 16056, Note_on_c, 3, 69, 0
5, 16056, Note_on_c, 3, 66, 63
5, 16080, Note_on_c, 3, 66, 0
5, 16104, Note_on_c, 3, 69, 63
5, 16128, Note_on_c, 3, 69, 0
5, 16128, Note_on_c, 3, 66, 63
5, 16152, Note_on_c, 3, 66, 0
5, 16152, Note_on_c, 3, 62, 63
5, 16176, Note_on_c, 3, 62, 0
5, 16200, Note_on_c, 3, 78, 63
5, 16224, Note_on_c, 3, 78, 0
5, 16224, Note_on_c, 3, 74, 63
5, 16248, Note_on_c, 3, 74, 0
5, 16248, Note_on_c, 3, 71, 63
5, 16272, Note_on_c, 3, 71, 0
5, 16296, Note_on_c, 3, 74, 63
5, 16320, Note_on_c, 3, 74, 0
5, 16320, Note_on_c, 3, 71, 63
5, 16344, Note_on_c, 3, 71, 0
5, 16344, Note_on_c, 3, 68, 63
5, 16368, Note_on_c, 3, 68, 0
5, 16392, Note_on_c, 3, 71, 63
5, 16416, Note_on_c, 3, 71, 0
5, 16416, Note_on_c, 3, 68, 63
5, 16440, Note_on_c, 3, 68, 0
5, 16440, Note_on_c, 3, 64, 63
5, 16464, Note_on_c, 3, 64, 0
5, 16488, Note_on_c, 3, 68, 63
5, 16512, Note_on_c, 3, 68, 0
5, 16512, Note_on_c, 3, 64, 63
5, 16536, Note_on_c, 3, 64, 0
5, 16536, Note_on_c, 3, 61, 63
5, 16560, Note_on_c, 3, 61, 0
5, 16584, Note_on_c, 3, 76, 63
5, 16608, Note_on_c, 3, 76, 0
5, 16608, Note_on_c, 3, 73, 63
5, 16632, Note_on_c, 3, 73, 0
5, 16632, Note_on_c, 3, 69, 63
5, 16656, Note_on_c, 3, 69, 0
5, 16680, Note_on_c, 3, 73, 63
5, 16704, Note_on_c, 3, 73, 0
5, 16704, Note_on_c, 3, 69, 63
5, 16728, Note_on_c, 3, 69, 0
5, 16728, Note_on_c, 3, 66, 63
5, 16752, Note_on_c, 3, 66, 0
5, 16776, Note_on_c, 3, 69, 63
5, 16800, Note_on_c, 3, 69, 0
5, 16800, Note_on_c, 3, 66, 63
5, 16824, Note_on_c, 3, 66, 0
5, 16824, Note_on_c, 3, 62, 63
5, 16848, Note_on_c, 3, 62, 0
5, 16872, Note_on_c, 3, 66, 63
5, 16896, Note_on_c, 3, 66, 0
5, 16896, Note_on_c, 3, 62, 63
5, 16920, Note_on_c, 3, 62, 0
5, 16920, Note_on_c, 3, 59, 63
5, 16944, Note_on_c, 3, 59, 0
5, 16968, Note_on_c, 3, 74, 63
5, 16992, Note_on_c, 3, 74, 0
5, 16992, Note_on_c, 3, 71, 63
5, 17016, Note_on_c, 3, 71, 0
5, 17016, Note_on_c, 3, 68, 63
5, 17040, Note_on_c, 3, 68, 0
5, 17064, Note_on_c, 3, 71, 63
5, 17088, Note_on_c, 3, 71, 0
5, 17088, Note_on_c, 3, 68, 63
5, 17112, Note_on_c, 3, 68, 0
5, 17112, Note_on_c, 3, 64, 63
5, 17136, Note_on_c, 3, 64, 0
5, 17160, Note_on_c, 3, 68, 63
5, 17184, Note_on_c, 3, 68, 0
5, 17184, Note_on_c, 3, 64, 63
5, 17208, Note_on_c, 3, 64, 0
5, 17208, Note_on_c, 3, 61, 63
5, 17232, Note_on_c, 3, 61, 0
5, 17256, Note_on_c, 3, 64, 63
5, 17280, Note_on_c, 3, 64, 0
5, 17280, Note_on_c, 3, 61, 63
5, 17304, Note_on_c, 3, 61, 0
5, 17304, Note_on_c, 3, 57, 63
5, 17328, Note_on_c, 3, 57, 0
5, 17352, Note_on_c, 3, 73, 63
5, 17376, Note_on_c, 3, 73, 0
5, 17376, Note_on_c, 3, 69, 63
5, 17400, Note_on_c, 3, 69, 0
5, 17400, Note_on_c, 3, 66, 63
5, 17424, Note_on_c, 3, 66, 0
5, 17448, Note_on_c, 3, 69, 63
5, 17472, Note_on_c, 3, 69, 0
5, 17472, Note_on_c, 3, 66, 63
5, 17496, Note_on_c, 3, 66, 0
5, 17496, Note_on_c, 3, 62, 63
5, 17520, Note_on_c, 3, 62, 0
5, 17544, Note_on_c, 3, 66, 63
5, 17568, Note_on_c, 3, 66, 0
5, 17568, Note_on_c, 3, 62, 63
5, 17592, Note_on_c, 3, 62, 0
5, 17592, Note_on_c, 3, 59, 63
5, 17616, Note_on_c, 3, 59, 0
5, 17640, Note_on_c, 3, 62, 63
5, 17664, Note_on_c, 3, 62, 0
5, 17664, Note_on_c, 3, 62, 63
5, 17712, Note_on_c, 3, 62, 0
5, 17856, Note_on_c, 3, 61, 63
5, 17904, Note_on_c, 3, 61, 0
5, 18048, Note_on_c, 3, 74, 63
5, 18054, Note_on_c, 3, 74, 0
5, 18054, Note_on_c, 3, 76, 63
5, 18060, Note_on_c, 3, 76, 0
5, 18060, Note_on_c, 3, 74, 63
5, 18066, Note_on_c, 3, 74, 0
5, 18066, Note_on_c, 3, 76, 63
5, 18072, Note_on_c, 3, 76, 0
5, 18072, Note_on_c, 3, 74, 63
5, 18078, Note_on_c, 3, 74, 0
5, 18078, Note_on_c, 3, 76, 63
5, 18084, Note_on_c, 3, 76, 0
5, 18084, Note_on_c, 3, 74, 63
5, 18090, Note_on_c, 3, 74, 0
5, 18090, Note_on_c, 3, 76, 63
5, 18096, Note_on_c, 3, 76, 0
5, 18096, Note_on_c, 3, 74, 63
5, 18102, Note_on_c, 3, 74, 0
5, 18102, Note_on_c, 3, 76, 63
5, 18108, Note_on_c, 3, 76, 0
5, 18108, Note_on_c, 3, 74, 63
5, 18114, Note_on_c, 3, 74, 0
5, 18114, Note_on_c, 3, 76, 63
5, 18120, Note_on_c, 3, 76, 0
5, 18120, Note_on_c, 3, 74, 63
5, 18126, Note_on_c, 3, 74, 0
5, 18126, Note_on_c, 3, 76, 63
5, 18132, Note_on_c, 3, 76, 0
5, 18132, Note_on_c, 3, 74, 63
5, 18138, Note_on_c, 3, 74, 0
5, 18138, Note_on_c, 3, 76, 63
5, 18144, Note_on_c, 3, 76, 0
5, 18144, Note_on_c, 3, 74, 63
5, 18150, Note_on_c, 3, 74, 0
5, 18150, Note_on_c, 3, 76, 63
5, 18156, Note_on_c, 3, 76, 0
5, 18156, Note_on_c, 3, 74, 63
5, 18162, Note_on_c, 3, 74, 0
5, 18162, Note_on_c, 3, 76, 63
5, 18168, Note_on_c, 3, 76, 0
5, 18168, Note_on_c, 3, 74, 63
5, 18174, Note_on_c, 3, 74, 0
5, 18174, Note_on_c, 3, 76, 63
5, 18180, Note_on_c, 3, 76, 0
5, 18180, Note_on_c, 3, 74, 63
5, 18186, Note_on_c, 3, 74, 0
5, 18186, Note_on_c, 3, 76, 63
5, 18192, Note_on_c, 3, 76, 0
5, 18192, Note_on_c, 3, 74, 63
5, 18198, Note_on_c, 3, 74, 0
5, 18198, Note_on_c, 3, 76, 63
5, 18204, Note_on_c, 3, 76, 0
5, 18204, Note_on_c, 3, 74, 63
5, 18210, Note_on_c, 3, 74, 0
5, 18210, Note_on_c, 3, 76, 63
5, 18216, Note_on_c, 3, 76, 0
5, 18216, Note_on_c, 3, 74, 63
5, 18222, Note_on_c, 3, 74, 0
5, 18222, Note_on_c, 3, 76, 63
5, 18228, Note_on_c, 3, 76, 0
5, 18228, Note_on_c, 3, 74, 63
5, 18234, Note_on_c, 3, 74, 0
5, 18234, Note_on_c, 3, 76, 63
5, 18240, Note_on_c, 3, 76, 0
5, 18240, Note_on_c, 3, 75, 63
5, 18246, Note_on_c, 3, 75, 0
5, 18246, Note_on_c, 3, 76, 63
5, 18252, Note_on_c, 3, 76, 0
5, 18252, Note_on_c, 3, 75, 63
5, 18258, Note_on_c, 3, 75, 0
5, 18258, Note_on_c, 3, 76, 63
5, 18264, Note_on_c, 3, 76, 0
5, 18264, Note_on_c, 3, 75, 63
5, 18270, Note_on_c, 3, 75, 0
5, 18270, Note_on_c, 3, 76, 63
5, 18276, Note_on_c, 3, 76, 0
5, 18276, Note_on_c, 3, 75, 63
5, 18282, Note_on_c, 3, 75, 0
5, 18282, Note_on_c, 3, 76, 63
5, 18288, Note_on_c, 3, 76, 0
5, 18288, Note_on_c, 3, 75, 63
5, 18294, Note_on_c, 3, 75, 0
5, 18294, Note_on_c, 3, 76, 63
5, 18300, Note_on_c, 3, 76, 0
5, 18300, Note_on_c, 3, 75, 63
5, 18306, Note_on_c, 3, 75, 0
5, 18306, Note_on_c, 3, 76, 63
5, 18312, Note_on_c, 3, 76, 0
5, 18312, Note_on_c, 3, 75, 63
5, 18318, Note_on_c, 3, 75, 0
5, 18318, Note_on_c, 3, 76, 63
5, 18324, Note_on_c, 3, 76, 0
5, 18324, Note_on_c, 3, 75, 63
5, 18330, Note_on_c, 3, 75, 0
5, 18330, Note_on_c, 3, 76, 63
5, 18336, Note_on_c, 3, 76, 0
5, 18336, Note_on_c, 3, 75, 63
5, 18342, Note_on_c, 3, 75, 0
5, 18342, Note_on_c, 3, 76, 63
5, 18348, Note_on_c, 3, 76, 0
5, 18348, Note_on_c, 3, 75, 63
5, 18354, Note_on_c, 3, 75, 0
5, 18354, Note_on_c, 3, 76, 63
5, 18360, Note_on_c, 3, 76, 0
5, 18360, Note_on_c, 3, 75, 63
5, 18366, Note_on_c, 3, 75, 0
5, 18366, Note_on_c, 3, 76, 63
5, 18372, Note_on_c, 3, 76, 0
5, 18372, Note_on_c, 3, 75, 63
5, 18378, Note_on_c, 3, 75, 0
5, 18378, Note_on_c, 3, 76, 63
5, 18384, Note_on_c, 3, 76, 0
5, 18384, Note_on_c, 3, 75, 63
5, 18390, Note_on_c, 3, 75, 0
5, 18390, Note_on_c, 3, 76, 63
5, 18396, Note_on_c, 3, 76, 0
5, 18396, Note_on_c, 3, 75, 63
5, 18402, Note_on_c, 3, 75, 0
5, 18402, Note_on_c, 3, 76, 63
5, 18408, Note_on_c, 3, 76, 0
5, 18408, Note_on_c, 3, 75, 63
5, 18414, Note_on_c, 3, 75, 0
5, 18414, Note_on_c, 3, 76, 63
5, 18420, Note_on_c, 3, 76, 0
5, 18420, Note_on_c, 3, 75, 63
5, 18426, Note_on_c, 3, 75, 0
5, 18426, Note_on_c, 3, 76, 63
5, 18432, Note_on_c, 3, 76, 0
5, 18432, Note_on_c, 3, 74, 63
5, 18438, Note_on_c, 3, 74, 0
5, 18438, Note_on_c, 3, 76, 63
5, 18444, Note_on_c, 3, 76, 0
5, 18444, Note_on_c, 3, 74, 63
5, 18450, Note_on_c, 3, 74, 0
5, 18450, Note_on_c, 3, 76, 63
5, 18456, Note_on_c, 3, 76, 0
5, 18456, Note_on_c, 3, 74, 63
5, 18462, Note_on_c, 3, 74, 0
5, 18462, Note_on_c, 3, 76, 63
5, 18468, Note_on_c, 3, 76, 0
5, 18468, Note_on_c, 3, 74, 63
5, 18474, Note_on_c, 3, 74, 0
5, 18474, Note_on_c, 3, 76, 63
5, 18480, Note_on_c, 3, 76, 0
5, 18480, Note_on_c, 3, 74, 63
5, 18486, Note_on_c, 3, 74, 0
5, 18486, Note_on_c, 3, 76, 63
5, 18492, Note_on_c, 3, 76, 0
5, 18492, Note_on_c, 3, 74, 63
5, 18498, Note_on_c, 3, 74, 0
5, 18498, Note_on_c, 3, 76, 63
5, 18504, Note_on_c, 3, 76, 0
5, 18504, Note_on_c, 3, 74, 63
5, 18510, Note_on_c, 3, 74, 0
5, 18510, Note_on_c, 3, 76, 63
5, 18516, Note_on_c, 3, 76, 0
5, 18516, Note_on_c, 3, 74, 63
5, 18522, Note_on_c, 3, 74, 0
5, 18522, Note_on_c, 3, 76, 63
5, 18528, Note_on_c, 3, 76, 0
5, 18528, Note_on_c, 3, 74, 63
5, 18534, Note_on_c, 3, 74, 0
5, 18534, Note_on_c, 3, 76, 63
5, 18540, Note_on_c, 3, 76, 0
5, 18540, Note_on_c, 3, 74, 63
5, 18546, Note_on_c, 3, 74, 0
5, 18546, Note_on_c, 3, 76, 63
5, 18552, Note_on_c, 3, 76, 0
5, 18552, Note_on_c, 3, 74, 63
5, 18558, Note_on_c, 3, 74, 0
5, 18558, Note_on_c, 3, 76, 63
5, 18564, Note_on_c, 3, 76, 0
5, 18564, Note_on_c, 3, 74, 63
5, 18570, Note_on_c, 3, 74, 0
5, 18570, Note_on_c, 3, 76, 63
5, 18576, Note_on_c, 3, 76, 0
5, 18576, Note_on_c, 3, 74, 63
5, 18582, Note_on_c, 3, 74, 0
5, 18582, Note_on_c, 3, 76, 63
5, 18588, Note_on_c, 3, 76, 0
5, 18588, Note_on_c, 3, 74, 63
5, 18594, Note_on_c, 3, 74, 0
5, 18594, Note_on_c, 3, 76, 63
5, 18600, Note_on_c, 3, 76, 0
5, 18600, Note_on_c, 3, 74, 63
5, 18606, Note_on_c, 3, 74, 0
5, 18606, Note_on_c, 3, 76, 63
5, 18612, Note_on_c, 3, 76, 0
5, 18612, Note_on_c, 3, 74, 63
5, 18618, Note_on_c, 3, 74, 0
5, 18618, Note_on_c, 3, 76, 63
5, 18624, Note_on_c, 3, 76, 0
5, 18624, Note_on_c, 3, 73, 63
5, 18630, Note_on_c, 3, 73, 0
5, 18630, Note_on_c, 3, 74, 63
5, 18636, Note_on_c, 3, 74, 0
5, 18636, Note_on_c, 3, 73, 63
5, 18642, Note_on_c, 3, 73, 0
5, 18642, Note_on_c, 3, 74, 63
5, 18648, Note_on_c, 3, 74, 0
5, 18648, Note_on_c, 3, 73, 63
5, 18654, Note_on_c, 3, 73, 0
5, 18654, Note_on_c, 3, 74, 63
5, 18660, Note_on_c, 3, 74, 0
5, 18660, Note_on_c, 3, 73, 63
5, 18666, Note_on_c, 3, 73, 0
5, 18666, Note_on_c, 3, 74, 63
5, 18672, Note_on_c, 3, 74, 0
5, 18672, Note_on_c, 3, 73, 63
5, 18678, Note_on_c, 3, 73, 0
5, 18678, Note_on_c, 3, 74, 63
5, 18684, Note_on_c, 3, 74, 0
5, 18684, Note_on_c, 3, 73, 63
5, 18690, Note_on_c, 3, 73, 0
5, 18690, Note_on_c, 3, 74, 63
5, 18696, Note_on_c, 3, 74, 0
5, 18696, Note_on_c, 3, 73, 63
5, 18702, Note_on_c, 3, 73, 0
5, 18702, Note_on_c, 3, 74, 63
5, 18708, Note_on_c, 3, 74, 0
5, 18708, Note_on_c, 3, 73, 63
5, 18714, Note_on_c, 3, 73, 0
5, 18714, Note_on_c, 3, 74, 63
5, 18720, Note_on_c, 3, 74, 0
5, 18720, Note_on_c, 3, 73, 63
5, 18726, Note_on_c, 3, 73, 0
5, 18726, Note_on_c, 3, 74, 63
5, 18732, Note_on_c, 3, 74, 0
5, 18732, Note_on_c, 3, 73, 63
5, 18738, Note_on_c, 3, 73, 0
5, 18738, Note_on_c, 3, 74, 63
5, 18744, Note_on_c, 3, 74, 0
5, 18744, Note_on_c, 3, 73, 63
5, 18750, Note_on_c, 3, 73, 0
5, 18750, Note_on_c, 3, 74, 63
5, 18756, Note_on_c, 3, 74, 0
5, 18756, Note_on_c, 3, 73, 63
5, 18762, Note_on_c, 3, 73, 0
5, 18762, Note_on_c, 3, 74, 63
5, 18768, Note_on_c, 3, 74, 0
5, 18768, Note_on_c, 3, 73, 63
5, 18774, Note_on_c, 3, 73, 0
5, 18774, Note_on_c, 3, 74, 63
5, 18780, Note_on_c, 3, 74, 0
5, 18780, Note_on_c, 3, 73, 63
5, 18786, Note_on_c, 3, 73, 0
5, 18786, Note_on_c, 3, 74, 63
5, 18792, Note_on_c, 3, 74, 0
5, 18792, Note_on_c, 3, 73, 63
5, 18798, Note_on_c, 3, 73, 0
5, 18798, Note_on_c, 3, 74, 63
5, 18804, Note_on_c, 3, 74, 0
5, 18804, Note_on_c, 3, 73, 63
5, 18810, Note_on_c, 3, 73, 0
5, 18810, Note_on_c, 3, 74, 63
5, 18816, Note_on_c, 3, 74, 0
5, 18816, Note_on_c, 3, 71, 63
5, 18822, Note_on_c, 3, 71, 0
5, 18822, Note_on_c, 3, 73, 63
5, 18828, Note_on_c, 3, 73, 0
5, 18828, Note_on_c, 3, 71, 63
5, 18834, Note_on_c, 3, 71, 0
5, 18834, Note_on_c, 3, 73, 63
5, 18840, Note_on_c, 3, 73, 0
5, 18840, Note_on_c, 3, 71, 63
5, 18846, Note_on_c, 3, 71, 0
5, 18846, Note_on_c, 3, 73, 63
5, 18852, Note_on_c, 3, 73, 0
5, 18852, Note_on_c, 3, 71, 63
5, 18858, Note_on_c, 3, 71, 0
5, 18858, Note_on_c, 3, 73, 63
5, 18864, Note_on_c, 3, 73, 0
5, 18864, Note_on_c, 3, 71, 63
5, 18870, Note_on_c, 3, 71, 0
5, 18870, Note_on_c, 3, 73, 63
5, 18876, Note_on_c, 3, 73, 0
5, 18876, Note_on_c, 3, 71, 63
5, 18882, Note_on_c, 3, 71, 0
5, 18882, Note_on_c, 3, 73, 63
5, 18888, Note_on_c, 3, 73, 0
5, 18888, Note_on_c, 3, 71, 63
5, 18894, Note_on_c, 3, 71, 0
5, 18894, Note_on_c, 3, 73, 63
5, 18900, Note_on_c, 3, 73, 0
5, 18900, Note_on_c, 3, 71, 63
5, 18906, Note_on_c, 3, 71, 0
5, 18906, Note_on_c, 3, 73, 63
5, 18912, Note_on_c, 3, 73, 0
5, 18912, Note_on_c, 3, 71, 63
5, 18918, Note_on_c, 3, 71, 0
5, 18918, Note_on_c, 3, 73, 63
5, 18924, Note_on_c, 3, 73, 0
5, 18924, Note_on_c, 3, 71, 63
5, 18930, Note_on_c, 3, 71, 0
5, 18930, Note_on_c, 3, 73, 63
5, 18936, Note_on_c, 3, 73, 0
5, 18936, Note_on_c, 3, 71, 63
5, 18942, Note_on_c, 3, 71, 0
5, 18942, Note_on_c, 3, 73, 63
5, 18948, Note_on_c, 3, 73, 0
5, 18948, Note_on_c, 3, 71, 63
5, 18954, Note_on_c, 3, 71, 0
5, 18954, Note_on_c, 3, 73, 63
5, 18960, Note_on_c, 3, 73, 0
5, 18960, Note_on_c, 3, 71, 63
5, 18966, Note_on_c, 3, 71, 0
5, 18966, Note_on_c, 3, 73, 63
5, 18972, Note_on_c, 3, 73, 0
5, 18972, Note_on_c, 3, 71, 63
5, 18978, Note_on_c, 3, 71, 0
5, 18978, Note_on_c, 3, 73, 63
5, 18984, Note_on_c, 3, 73, 0
5, 18984, Note_on_c, 3, 71, 63
5, 18990, Note_on_c, 3, 71, 0
5, 18990, Note_on_c, 3, 73, 63
5, 18996, Note_on_c, 3, 73, 0
5, 18996, Note_on_c, 3, 71, 63
5, 19002, Note_on_c, 3, 71, 0
5, 19002, Note_on_c, 3, 73, 63
5, 19008, Note_on_c, 3, 73, 0
5, 19008, Note_on_c, 3, 71, 63
5, 19014, Note_on_c, 3, 71, 0
5, 19014, Note_on_c, 3, 73, 63
5, 19020, Note_on_c, 3, 73, 0
5, 19020, Note_on_c, 3, 71, 63
5, 19026, Note_on_c, 3, 71, 0
5, 19026, Note_on_c, 3, 73, 63
5, 19032, Note_on_c, 3, 73, 0
5, 19032, Note_on_c, 3, 71, 63
5, 19038, Note_on_c, 3, 71, 0
5, 19038, Note_on_c, 3, 73, 63
5, 19044, Note_on_c, 3, 73, 0
5, 19044, Note_on_c, 3, 71, 63
5, 19050, Note_on_c, 3, 71, 0
5, 19050, Note_on_c, 3, 73, 63
5, 19056, Note_on_c, 3, 73, 0
5, 19056, Note_on_c, 3, 71, 63
5, 19062, Note_on_c, 3, 71, 0
5, 19062, Note_on_c, 3, 73, 63
5, 19068, Note_on_c, 3, 73, 0
5, 19068, Note_on_c, 3, 71, 63
5, 19074, Note_on_c, 3, 71, 0
5, 19074, Note_on_c, 3, 73, 63
5, 19080, Note_on_c, 3, 73, 0
5, 19080, Note_on_c, 3, 71, 63
5, 19086, Note_on_c, 3, 71, 0
5, 19086, Note_on_c, 3, 73, 63
5, 19092, Note_on_c, 3, 73, 0
5, 19092, Note_on_c, 3, 71, 63
5, 19098, Note_on_c, 3, 71, 0
5, 19098, Note_on_c, 3, 73, 63
5, 19104, Note_on_c, 3, 73, 0
5, 19104, Note_on_c, 3, 71, 63
5, 19110, Note_on_c, 3, 71, 0
5, 19110, Note_on_c, 3, 73, 63
5, 19116, Note_on_c, 3, 73, 0
5, 19116, Note_on_c, 3, 71, 63
5, 19122, Note_on_c, 3, 71, 0
5, 19122, Note_on_c, 3, 73, 63
5, 19128, Note_on_c, 3, 73, 0
5, 19128, Note_on_c, 3, 71, 63
5, 19134, Note_on_c, 3, 71, 0
5, 19134, Note_on_c, 3, 73, 63
5, 19140, Note_on_c, 3, 73, 0
5, 19140, Note_on_c, 3, 71, 63
5, 19146, Note_on_c, 3, 71, 0
5, 19146, Note_on_c, 3, 73, 63
5, 19152, Note_on_c, 3, 73, 0
5, 19152, Note_on_c, 3, 71, 63
5, 19158, Note_on_c, 3, 71, 0
5, 19158, Note_on_c, 3, 73, 63
5, 19164, Note_on_c, 3, 73, 0
5, 19164, Note_on_c, 3, 71, 63
5, 19170, Note_on_c, 3, 71, 0
5, 19170, Note_on_c, 3, 73, 63
5, 19176, Note_on_c, 3, 73, 0
5, 19176, Note_on_c, 3, 71, 63
5, 19182, Note_on_c, 3, 71, 0
5, 19182, Note_on_c, 3, 73, 63
5, 19188, Note_on_c, 3, 73, 0
5, 19188, Note_on_c, 3, 71, 63
5, 19194, Note_on_c, 3, 71, 0
5, 19194, Note_on_c, 3, 73, 63
5, 19200, Note_on_c, 3, 73, 0
5, 19200, Note_on_c, 3, 69, 95
5, 19210, Note_on_c, 3, 69, 0
5, 19212, Note_on_c, 3, 69, 95
5, 19222, Note_on_c, 3, 69, 0
5, 19224, Note_on_c, 3, 73, 95
5, 19234, Note_on_c, 3, 73, 0
5, 19236, Note_on_c, 3, 73, 95
5, 19246, Note_on_c, 3, 73, 0
5, 19248, Note_on_c, 3, 76, 95
5, 19258, Note_on_c, 3, 76, 0
5, 19260, Note_on_c, 3, 76, 95
5, 19270, Note_on_c, 3, 76, 0
5, 19272, Note_on_c, 3, 81, 95
5, 19282, Note_on_c, 3, 81, 0
5, 19284, Note_on_c, 3, 81, 95
5, 19294, Note_on_c, 3, 81, 0
5, 19296, Note_on_c, 3, 80, 95
5, 19306, Note_on_c, 3, 80, 0
5, 19308, Note_on_c, 3, 81, 95
5, 19318, Note_on_c, 3, 81, 0
5, 19320, Note_on_c, 3, 80, 95
5, 19330, Note_on_c, 3, 80, 0
5, 19332, Note_on_c, 3, 78, 95
5, 19342, Note_on_c, 3, 78, 0
5, 19344, Note_on_c, 3, 76, 95
5, 19354, Note_on_c, 3, 76, 0
5, 19356, Note_on_c, 3, 74, 95
5, 19366, Note_on_c, 3, 74, 0
5, 19368, Note_on_c, 3, 73, 95
5, 19378, Note_on_c, 3, 73, 0
5, 19380, Note_on_c, 3, 71, 95
5, 19390, Note_on_c, 3, 71, 0
5, 19392, Note_on_c, 3, 69, 95
5, 19402, Note_on_c, 3, 69, 0
5, 19404, Note_on_c, 3, 69, 95
5, 19414, Note_on_c, 3, 69, 0
5, 19416, Note_on_c, 3, 73, 95
5, 19426, Note_on_c, 3, 73, 0
5, 19428, Note_on_c, 3, 73, 95
5, 19438, Note_on_c, 3, 73, 0
5, 19440, Note_on_c, 3, 76, 95
5, 19450, Note_on_c, 3, 76, 0
5, 19452, Note_on_c, 3, 76, 95
5, 19462, Note_on_c, 3, 76, 0
5, 19464, Note_on_c, 3, 81, 95
5, 19474, Note_on_c, 3, 81, 0
5, 19476, Note_on_c, 3, 81, 95
5, 19486, Note_on_c, 3, 81, 0
5, 19488, Note_on_c, 3, 83, 95
5, 19508, Note_on_c, 3, 83, 0
5, 19512, Note_on_c, 3, 76, 95
5, 19532, Note_on_c, 3, 76, 0
5, 19548, Note_on_c, 3, 76, 95
5, 19558, Note_on_c, 3, 76, 0
5, 19560, Note_on_c, 3, 78, 95
5, 19570, Note_on_c, 3, 78, 0
5, 19572, Note_on_c, 3, 80, 95
5, 19582, Note_on_c, 3, 80, 0
5, 19584, Note_on_c, 3, 81, 95
5, 19594, Note_on_c, 3, 81, 0
5, 19596, Note_on_c, 3, 69, 95
5, 19606, Note_on_c, 3, 69, 0
5, 19608, Note_on_c, 3, 71, 95
5, 19618, Note_on_c, 3, 71, 0
5, 19620, Note_on_c, 3, 73, 95
5, 19630, Note_on_c, 3, 73, 0
5, 19632, Note_on_c, 3, 74, 95
5, 19642, Note_on_c, 3, 74, 0
5, 19644, Note_on_c, 3, 76, 95
5, 19654, Note_on_c, 3, 76, 0
5, 19656, Note_on_c, 3, 78, 95
5, 19666, Note_on_c, 3, 78, 0
5, 19668, Note_on_c, 3, 74, 95
5, 19678, Note_on_c, 3, 74, 0
5, 19680, Note_on_c, 3, 80, 95
5, 19690, Note_on_c, 3, 80, 0
5, 19692, Note_on_c, 3, 68, 95
5, 19702, Note_on_c, 3, 68, 0
5, 19704, Note_on_c, 3, 69, 95
5, 19714, Note_on_c, 3, 69, 0
5, 19716, Note_on_c, 3, 71, 95
5, 19726, Note_on_c, 3, 71, 0
5, 19728, Note_on_c, 3, 73, 95
5, 19808, Note_on_c, 3, 73, 0
5, 19824, Note_on_c, 3, 71, 95
5, 19904, Note_on_c, 3, 71, 0
5, 19932, Note_on_c, 3, 69, 95
5, 19942, Note_on_c, 3, 69, 0
5, 19944, Note_on_c, 3, 71, 95
5, 19954, Note_on_c, 3, 71, 0
5, 19956, Note_on_c, 3, 73, 95
5, 19966, Note_on_c, 3, 73, 0
5, 19968, Note_on_c, 3, 74, 95
5, 19978, Note_on_c, 3, 74, 0
5, 19980, Note_on_c, 3, 71, 95
5, 19990, Note_on_c, 3, 71, 0
5, 19992, Note_on_c, 3, 73, 95
5, 20002, Note_on_c, 3, 73, 0
5, 20004, Note_on_c, 3, 76, 95
5, 20014, Note_on_c, 3, 76, 0
5, 20016, Note_on_c, 3, 74, 95
5, 20026, Note_on_c, 3, 74, 0
5, 20028, Note_on_c, 3, 78, 95
5, 20038, Note_on_c, 3, 78, 0
5, 20040, Note_on_c, 3, 76, 95
5, 20050, Note_on_c, 3, 76, 0
5, 20052, Note_on_c, 3, 74, 95
5, 20062, Note_on_c, 3, 74, 0
5, 20064, Note_on_c, 3, 73, 95
5, 20074, Note_on_c, 3, 73, 0
5, 20076, Note_on_c, 3, 76, 95
5, 20086, Note_on_c, 3, 76, 0
5, 20088, Note_on_c, 3, 78, 95
5, 20098, Note_on_c, 3, 78, 0
5, 20100, Note_on_c, 3, 79, 95
5, 20110, Note_on_c, 3, 79, 0
5, 20112, Note_on_c, 3, 81, 95
5, 20192, Note_on_c, 3, 81, 0
5, 20208, Note_on_c, 3, 79, 95
5, 20288, Note_on_c, 3, 79, 0
5, 20304, Note_on_c, 3, 78, 95
5, 20384, Note_on_c, 3, 78, 0
5, 20400, Note_on_c, 3, 76, 95
5, 20480, Note_on_c, 3, 76, 0
5, 20496, Note_on_c, 3, 74, 95
5, 20576, Note_on_c, 3, 74, 0
5, 20592, Note_on_c, 3, 73, 95
5, 20597, Note_on_c, 3, 73, 0
5, 20598, Note_on_c, 3, 74, 95
5, 20603, Note_on_c, 3, 74, 0
5, 20604, Note_on_c, 3, 73, 95
5, 20609, Note_on_c, 3, 73, 0
5, 20610, Note_on_c, 3, 74, 95
5, 20615, Note_on_c, 3, 74, 0
5, 20616, Note_on_c, 3, 73, 95
5, 20621, Note_on_c, 3, 73, 0
5, 20622, Note_on_c, 3, 74, 95
5, 20627, Note_on_c, 3, 74, 0
5, 20628, Note_on_c, 3, 71, 95
5, 20633, Note_on_c, 3, 71, 0
5, 20634, Note_on_c, 3, 73, 95
5, 20639, Note_on_c, 3, 73, 0
5, 20640, Note_on_c, 3, 74, 95
5, 20650, Note_on_c, 3, 74, 0
5, 20652, Note_on_c, 3, 71, 95
5, 20662, Note_on_c, 3, 71, 0
5, 20664, Note_on_c, 3, 73, 95
5, 20674, Note_on_c, 3, 73, 0
5, 20676, Note_on_c, 3, 76, 95
5, 20686, Note_on_c, 3, 76, 0
5, 20688, Note_on_c, 3, 74, 95
5, 20698, Note_on_c, 3, 74, 0
5, 20700, Note_on_c, 3, 78, 95
5, 20710, Note_on_c, 3, 78, 0
5, 20712, Note_on_c, 3, 76, 95
5, 20722, Note_on_c, 3, 76, 0
5, 20724, Note_on_c, 3, 74, 95
5, 20734, Note_on_c, 3, 74, 0
5, 20736, Note_on_c, 3, 76, 95
5, 20746, Note_on_c, 3, 76, 0
5, 20748, Note_on_c, 3, 73, 95
5, 20758, Note_on_c, 3, 73, 0
5, 20760, Note_on_c, 3, 74, 95
5, 20770, Note_on_c, 3, 74, 0
5, 20772, Note_on_c, 3, 78, 95
5, 20782, Note_on_c, 3, 78, 0
5, 20784, Note_on_c, 3, 76, 95
5, 20794, Note_on_c, 3, 76, 0
5, 20796, Note_on_c, 3, 79, 95
5, 20806, Note_on_c, 3, 79, 0
5, 20808, Note_on_c, 3, 78, 95
5, 20818, Note_on_c, 3, 78, 0
5, 20820, Note_on_c, 3, 76, 95
5, 20830, Note_on_c, 3, 76, 0
5, 20832, Note_on_c, 3, 74, 95
5, 20842, Note_on_c, 3, 74, 0
5, 20844, Note_on_c, 3, 71, 95
5, 20854, Note_on_c, 3, 71, 0
5, 20856, Note_on_c, 3, 73, 95
5, 20866, Note_on_c, 3, 73, 0
5, 20868, Note_on_c, 3, 76, 95
5, 20878, Note_on_c, 3, 76, 0
5, 20880, Note_on_c, 3, 74, 95
5, 20890, Note_on_c, 3, 74, 0
5, 20892, Note_on_c, 3, 78, 95
5, 20902, Note_on_c, 3, 78, 0
5, 20904, Note_on_c, 3, 76, 95
5, 20914, Note_on_c, 3, 76, 0
5, 20916, Note_on_c, 3, 74, 95
5, 20926, Note_on_c, 3, 74, 0
5, 20928, Note_on_c, 3, 73, 95
5, 20948, Note_on_c, 3, 73, 0
5, 20952, Note_on_c, 3, 69, 95
5, 20972, Note_on_c, 3, 69, 0
5, 21048, Note_on_c, 3, 74, 95
5, 21068, Note_on_c, 3, 74, 0
5, 21072, Note_on_c, 3, 73, 95
5, 21092, Note_on_c, 3, 73, 0
5, 21096, Note_on_c, 3, 71, 95
5, 21116, Note_on_c, 3, 71, 0
5, 21120, Note_on_c, 3, 69, 95
5, 21200, Note_on_c, 3, 69, 0
5, 21240, Note_on_c, 3, 83, 95
5, 21260, Note_on_c, 3, 83, 0
5, 21264, Note_on_c, 3, 81, 95
5, 21284, Note_on_c, 3, 81, 0
5, 21288, Note_on_c, 3, 79, 95
5, 21308, Note_on_c, 3, 79, 0
5, 21312, Note_on_c, 3, 78, 95
5, 21322, Note_on_c, 3, 78, 0
5, 21324, Note_on_c, 3, 79, 95
5, 21334, Note_on_c, 3, 79, 0
5, 21336, Note_on_c, 3, 81, 95
5, 21376, Note_on_c, 3, 81, 0
5, 21384, Note_on_c, 3, 79, 95
5, 21394, Note_on_c, 3, 79, 0
5, 21396, Note_on_c, 3, 78, 95
5, 21406, Note_on_c, 3, 78, 0
5, 21408, Note_on_c, 3, 76, 95
5, 21428, Note_on_c, 3, 76, 0
5, 21432, Note_on_c, 3, 69, 95
5, 21452, Note_on_c, 3, 69, 0
5, 21624, Note_on_c, 3, 78, 95
5, 21644, Note_on_c, 3, 78, 0
5, 21648, Note_on_c, 3, 76, 95
5, 21668, Note_on_c, 3, 76, 0
5, 21672, Note_on_c, 3, 74, 95
5, 21692, Note_on_c, 3, 74, 0
5, 21696, Note_on_c, 3, 73, 95
5, 21736, Note_on_c, 3, 73, 0
5, 21768, Note_on_c, 3, 73, 95
5, 21788, Note_on_c, 3, 73, 0
5, 21792, Note_on_c, 3, 74, 95
5, 21812, Note_on_c, 3, 74, 0
5, 21816, Note_on_c, 3, 69, 95
5, 21836, Note_on_c, 3, 69, 0
5, 21840, Note_on_c, 3, 74, 95
5, 21850, Note_on_c, 3, 74, 0
5, 21852, Note_on_c, 3, 76, 95
5, 21862, Note_on_c, 3, 76, 0
5, 21864, Note_on_c, 3, 78, 95
5, 21874, Note_on_c, 3, 78, 0
5, 21876, Note_on_c, 3, 79, 95
5, 21886, Note_on_c, 3, 79, 0
5, 21888, Note_on_c, 3, 81, 95
5, 21908, Note_on_c, 3, 81, 0
5, 21912, Note_on_c, 3, 73, 95
5, 21919, Note_on_c, 3, 73, 0
5, 21920, Note_on_c, 3, 71, 95
5, 21927, Note_on_c, 3, 71, 0
5, 21928, Note_on_c, 3, 73, 95
5, 21935, Note_on_c, 3, 73, 0
5, 21936, Note_on_c, 3, 74, 95
5, 21943, Note_on_c, 3, 74, 0
5, 21944, Note_on_c, 3, 73, 95
5, 21951, Note_on_c, 3, 73, 0
5, 21952, Note_on_c, 3, 74, 95
5, 21959, Note_on_c, 3, 74, 0
5, 21960, Note_on_c, 3, 76, 95
5, 21967, Note_on_c, 3, 76, 0
5, 21968, Note_on_c, 3, 74, 95
5, 21975, Note_on_c, 3, 74, 0
5, 21976, Note_on_c, 3, 76, 95
5, 21983, Note_on_c, 3, 76, 0
5, 21984, Note_on_c, 3, 78, 95
5, 22064, Note_on_c, 3, 78, 0
5, 22104, Note_on_c, 3, 71, 95
5, 22111, Note_on_c, 3, 71, 0
5, 22112, Note_on_c, 3, 69, 95
5, 22119, Note_on_c, 3, 69, 0
5, 22120, Note_on_c, 3, 71, 95
5, 22127, Note_on_c, 3, 71, 0
5, 22128, Note_on_c, 3, 73, 95
5, 22135, Note_on_c, 3, 73, 0
5, 22136, Note_on_c, 3, 71, 95
5, 22143, Note_on_c, 3, 71, 0
5, 22144, Note_on_c, 3, 73, 95
5, 22151, Note_on_c, 3, 73, 0
5, 22152, Note_on_c, 3, 74, 95
5, 22159, Note_on_c, 3, 74, 0
5, 22160, Note_on_c, 3, 73, 95
5, 22167, Note_on_c, 3, 73, 0
5, 22168, Note_on_c, 3, 74, 95
5, 22175, Note_on_c, 3, 74, 0
5, 22176, Note_on_c, 3, 76, 95
5, 22256, Note_on_c, 3, 76, 0
5, 22296, Note_on_c, 3, 69, 95
5, 22303, Note_on_c, 3, 69, 0
5, 22304, Note_on_c, 3, 67, 95
5, 22311, Note_on_c, 3, 67, 0
5, 22312, Note_on_c, 3, 69, 95
5, 22319, Note_on_c, 3, 69, 0
5, 22320, Note_on_c, 3, 71, 95
5, 22327, Note_on_c, 3, 71, 0
5, 22328, Note_on_c, 3, 69, 95
5, 22335, Note_on_c, 3, 69, 0
5, 22336, Note_on_c, 3, 71, 95
5, 22343, Note_on_c, 3, 71, 0
5, 22344, Note_on_c, 3, 73, 95
5, 22351, Note_on_c, 3, 73, 0
5, 22352, Note_on_c, 3, 71, 95
5, 22359, Note_on_c, 3, 71, 0
5, 22360, Note_on_c, 3, 73, 95
5, 22367, Note_on_c, 3, 73, 0
5, 22368, Note_on_c, 3, 74, 95
5, 22421, Note_on_c, 3, 74, 0
5, 22488, Note_on_c, 3, 67, 95
5, 22495, Note_on_c, 3, 67, 0
5, 22496, Note_on_c, 3, 66, 95
5, 22503, Note_on_c, 3, 66, 0
5, 22504, Note_on_c, 3, 67, 95
5, 22511, Note_on_c, 3, 67, 0
5, 22512, Note_on_c, 3, 69, 95
5, 22519, Note_on_c, 3, 69, 0
5, 22520, Note_on_c, 3, 67, 95
5, 22527, Note_on_c, 3, 67, 0
5, 22528, Note_on_c, 3, 69, 95
5, 22535, Note_on_c, 3, 69, 0
5, 22536, Note_on_c, 3, 71, 95
5, 22543, Note_on_c, 3, 71, 0
5, 22544, Note_on_c, 3, 69, 95
5, 22551, Note_on_c, 3, 69, 0
5, 22552, Note_on_c, 3, 71, 95
5, 22559, Note_on_c, 3, 71, 0
5, 22560, Note_on_c, 3, 61, 95
5, 22580, Note_on_c, 3, 61, 0
5, 22584, Note_on_c, 3, 71, 95
5, 22604, Note_on_c, 3, 71, 0
5, 22608, Note_on_c, 3, 69, 95
5, 22628, Note_on_c, 3, 69, 0
5, 22632, Note_on_c, 3, 67, 95
5, 22652, Note_on_c, 3, 67, 0
5, 22656, Note_on_c, 3, 66, 95
5, 22676, Note_on_c, 3, 66, 0
5, 22680, Note_on_c, 3, 64, 95
5, 22690, Note_on_c, 3, 64, 0
5, 22692, Note_on_c, 3, 62, 95
5, 22702, Note_on_c, 3, 62, 0
5, 22704, Note_on_c, 3, 69, 95
5, 22744, Note_on_c, 3, 69, 0
5, 22764, Note_on_c, 3, 67, 95
5, 22774, Note_on_c, 3, 67, 0
5, 22776, Note_on_c, 3, 66, 95
5, 22786, Note_on_c, 3, 66, 0
5, 22788, Note_on_c, 3, 67, 95
5, 22798, Note_on_c, 3, 67, 0
5, 22800, Note_on_c, 3, 76, 95
5, 22812, Note_on_c, 3, 76, 0
5, 22824, Note_on_c, 3, 74, 95
5, 22836, Note_on_c, 3, 74, 0
5, 22848, Note_on_c, 3, 73, 95
5, 22868, Note_on_c, 3, 73, 0
5, 22872, Note_on_c, 3, 71, 95
5, 22882, Note_on_c, 3, 71, 0
5, 22884, Note_on_c, 3, 69, 95
5, 22894, Note_on_c, 3, 69, 0
5, 22896, Note_on_c, 3, 74, 95
5, 22956, Note_on_c, 3, 74, 0
5, 22980, Note_on_c, 3, 76, 95
5, 22990, Note_on_c, 3, 76, 0
5, 22992, Note_on_c, 3, 73, 95
5, 22997, Note_on_c, 3, 73, 0
5, 22998, Note_on_c, 3, 74, 95
5, 23003, Note_on_c, 3, 74, 0
5, 23004, Note_on_c, 3, 73, 95
5, 23009, Note_on_c, 3, 73, 0
5, 23010, Note_on_c, 3, 74, 95
5, 23015, Note_on_c, 3, 74, 0
5, 23016, Note_on_c, 3, 73, 95
5, 23021, Note_on_c, 3, 73, 0
5, 23022, Note_on_c, 3, 74, 95
5, 23027, Note_on_c, 3, 74, 0
5, 23028, Note_on_c, 3, 74, 95
5, 23038, Note_on_c, 3, 74, 0
5, 23040, Note_on_c, 3, 74, 95
5, 23050, Note_on_c, 3, 74, 0
5, 23052, Note_on_c, 3, 62, 95
5, 23062, Note_on_c, 3, 62, 0
5, 23064, Note_on_c, 3, 66, 95
5, 23074, Note_on_c, 3, 66, 0
5, 23076, Note_on_c, 3, 66, 95
5, 23086, Note_on_c, 3, 66, 0
5, 23088, Note_on_c, 3, 69, 95
5, 23098, Note_on_c, 3, 69, 0
5, 23100, Note_on_c, 3, 69, 95
5, 23110, Note_on_c, 3, 69, 0
5, 23112, Note_on_c, 3, 74, 95
5, 23122, Note_on_c, 3, 74, 0
5, 23124, Note_on_c, 3, 74, 95
5, 23134, Note_on_c, 3, 74, 0
5, 23136, Note_on_c, 3, 73, 95
5, 23146, Note_on_c, 3, 73, 0
5, 23148, Note_on_c, 3, 74, 95
5, 23158, Note_on_c, 3, 74, 0
5, 23160, Note_on_c, 3, 73, 95
5, 23170, Note_on_c, 3, 73, 0
5, 23172, Note_on_c, 3, 71, 95
5, 23182, Note_on_c, 3, 71, 0
5, 23184, Note_on_c, 3, 69, 95
5, 23194, Note_on_c, 3, 69, 0
5, 23196, Note_on_c, 3, 67, 95
5, 23206, Note_on_c, 3, 67, 0
5, 23208, Note_on_c, 3, 66, 95
5, 23218, Note_on_c, 3, 66, 0
5, 23220, Note_on_c, 3, 64, 95
5, 23230, Note_on_c, 3, 64, 0
5, 23232, Note_on_c, 3, 62, 95
5, 23242, Note_on_c, 3, 62, 0
5, 23244, Note_on_c, 3, 62, 95
5, 23254, Note_on_c, 3, 62, 0
5, 23256, Note_on_c, 3, 66, 95
5, 23266, Note_on_c, 3, 66, 0
5, 23268, Note_on_c, 3, 66, 95
5, 23278, Note_on_c, 3, 66, 0
5, 23280, Note_on_c, 3, 69, 95
5, 23290, Note_on_c, 3, 69, 0
5, 23292, Note_on_c, 3, 69, 95
5, 23302, Note_on_c, 3, 69, 0
5, 23304, Note_on_c, 3, 74, 95
5, 23314, Note_on_c, 3, 74, 0
5, 23316, Note_on_c, 3, 74, 95
5, 23326, Note_on_c, 3, 74, 0
5, 23328, Note_on_c, 3, 76, 95
5, 23348, Note_on_c, 3, 76, 0
5, 23352, Note_on_c, 3, 69, 95
5, 23372, Note_on_c, 3, 69, 0
5, 23400, Note_on_c, 3, 76, 95
5, 23420, Note_on_c, 3, 76, 0
5, 23424, Note_on_c, 3, 78, 95
5, 23434, Note_on_c, 3, 78, 0
5, 23436, Note_on_c, 3, 78, 95
5, 23446, Note_on_c, 3, 78, 0
5, 23448, Note_on_c, 3, 76, 95
5, 23458, Note_on_c, 3, 76, 0
5, 23460, Note_on_c, 3, 76, 95
5, 23470, Note_on_c, 3, 76, 0
5, 23472, Note_on_c, 3, 79, 95
5, 23482, Note_on_c, 3, 79, 0
5, 23484, Note_on_c, 3, 79, 95
5, 23494, Note_on_c, 3, 79, 0
5, 23496, Note_on_c, 3, 78, 95
5, 23506, Note_on_c, 3, 78, 0
5, 23508, Note_on_c, 3, 78, 95
5, 23518, Note_on_c, 3, 78, 0
5, 23520, Note_on_c, 3, 83, 95
5, 23530, Note_on_c, 3, 83, 0
5, 23532, Note_on_c, 3, 83, 95
5, 23542, Note_on_c, 3, 83, 0
5, 23544, Note_on_c, 3, 81, 95
5, 23554, Note_on_c, 3, 81, 0
5, 23556, Note_on_c, 3, 81, 95
5, 23566, Note_on_c, 3, 81, 0
5, 23568, Note_on_c, 3, 73, 95
5, 23578, Note_on_c, 3, 73, 0
5, 23580, Note_on_c, 3, 73, 95
5, 23590, Note_on_c, 3, 73, 0
5, 23592, Note_on_c, 3, 74, 95
5, 23602, Note_on_c, 3, 74, 0
5, 23604, Note_on_c, 3, 74, 95
5, 23614, Note_on_c, 3, 74, 0
5, 23616, Note_on_c, 3, 67, 95
5, 23626, Note_on_c, 3, 67, 0
5, 23628, Note_on_c, 3, 67, 95
5, 23638, Note_on_c, 3, 67, 0
5, 23640, Note_on_c, 3, 66, 95
5, 23650, Note_on_c, 3, 66, 0
5, 23652, Note_on_c, 3, 66, 95
5, 23662, Note_on_c, 3, 66, 0
5, 23664, Note_on_c, 3, 71, 95
5, 23674, Note_on_c, 3, 71, 0
5, 23676, Note_on_c, 3, 71, 95
5, 23686, Note_on_c, 3, 71, 0
5, 23688, Note_on_c, 3, 69, 95
5, 23698, Note_on_c, 3, 69, 0
5, 23700, Note_on_c, 3, 69, 95
5, 23710, Note_on_c, 3, 69, 0
5, 23712, Note_on_c, 3, 61, 95
5, 23722, Note_on_c, 3, 61, 0
5, 23724, Note_on_c, 3, 61, 95
5, 23734, Note_on_c, 3, 61, 0
5, 23736, Note_on_c, 3, 62, 95
5, 23746, Note_on_c, 3, 62, 0
5, 23748, Note_on_c, 3, 62, 95
5, 23758, Note_on_c, 3, 62, 0
5, 23760, Note_on_c, 3, 57, 95
5, 23770, Note_on_c, 3, 57, 0
5, 23772, Note_on_c, 3, 57, 95
5, 23782, Note_on_c, 3, 57, 0
5, 23784, Note_on_c, 3, 67, 95
5, 23794, Note_on_c, 3, 67, 0
5, 23796, Note_on_c, 3, 67, 95
5, 23806, Note_on_c, 3, 67, 0
5, 23808, Note_on_c, 3, 66, 95
5, 23818, Note_on_c, 3, 66, 0
5, 23820, Note_on_c, 3, 64, 95
5, 23830, Note_on_c, 3, 64, 0
5, 23832, Note_on_c, 3, 66, 95
5, 23842, Note_on_c, 3, 66, 0
5, 23844, Note_on_c, 3, 62, 95
5, 23854, Note_on_c, 3, 62, 0
5, 23856, Note_on_c, 3, 64, 95
5, 23876, Note_on_c, 3, 64, 0
5, 23880, Note_on_c, 3, 64, 95
5, 23885, Note_on_c, 3, 64, 0
5, 23886, Note_on_c, 3, 66, 95
5, 23891, Note_on_c, 3, 66, 0
5, 23892, Note_on_c, 3, 64, 95
5, 23897, Note_on_c, 3, 64, 0
5, 23898, Note_on_c, 3, 66, 95
5, 23903, Note_on_c, 3, 66, 0
5, 23904, Note_on_c, 3, 66, 95
5, 23914, Note_on_c, 3, 66, 0
5, 23916, Note_on_c, 3, 62, 95
5, 23926, Note_on_c, 3, 62, 0
5, 23928, Note_on_c, 3, 64, 95
5, 23938, Note_on_c, 3, 64, 0
5, 23940, Note_on_c, 3, 67, 95
5, 23950, Note_on_c, 3, 67, 0
5, 23952, Note_on_c, 3, 66, 95
5, 23962, Note_on_c, 3, 66, 0
5, 23964, Note_on_c, 3, 62, 95
5, 23974, Note_on_c, 3, 62, 0
5, 23976, Note_on_c, 3, 64, 95
5, 23986, Note_on_c, 3, 64, 0
5, 23988, Note_on_c, 3, 66, 95
5, 23998, Note_on_c, 3, 66, 0
5, 24000, Note_on_c, 3, 67, 95
5, 24010, Note_on_c, 3, 67, 0
5, 24012, Note_on_c, 3, 64, 95
5, 24022, Note_on_c, 3, 64, 0
5, 24024, Note_on_c, 3, 66, 95
5, 24034, Note_on_c, 3, 66, 0
5, 24036, Note_on_c, 3, 69, 95
5, 24046, Note_on_c, 3, 69, 0
5, 24048, Note_on_c, 3, 67, 95
5, 24058, Note_on_c, 3, 67, 0
5, 24060, Note_on_c, 3, 64, 95
5, 24070, Note_on_c, 3, 64, 0
5, 24072, Note_on_c, 3, 66, 95
5, 24082, Note_on_c, 3, 66, 0
5, 24084, Note_on_c, 3, 67, 95
5, 24094, Note_on_c, 3, 67, 0
5, 24096, Note_on_c, 3, 69, 95
5, 24106, Note_on_c, 3, 69, 0
5, 24108, Note_on_c, 3, 66, 95
5, 24118, Note_on_c, 3, 66, 0
5, 24120, Note_on_c, 3, 67, 95
5, 24130, Note_on_c, 3, 67, 0
5, 24132, Note_on_c, 3, 71, 95
5, 24142, Note_on_c, 3, 71, 0
5, 24144, Note_on_c, 3, 69, 95
5, 24154, Note_on_c, 3, 69, 0
5, 24156, Note_on_c, 3, 66, 95
5, 24166, Note_on_c, 3, 66, 0
5, 24168, Note_on_c, 3, 67, 95
5, 24178, Note_on_c, 3, 67, 0
5, 24180, Note_on_c, 3, 69, 95
5, 24190, Note_on_c, 3, 69, 0
5, 24192, Note_on_c, 3, 71, 95
5, 24212, Note_on_c, 3, 71, 0
5, 24216, Note_on_c, 3, 69, 95
5, 24236, Note_on_c, 3, 69, 0
5, 24240, Note_on_c, 3, 72, 95
5, 24260, Note_on_c, 3, 72, 0
5, 24264, Note_on_c, 3, 71, 95
5, 24284, Note_on_c, 3, 71, 0
5, 24288, Note_on_c, 3, 76, 95
5, 24308, Note_on_c, 3, 76, 0
5, 24312, Note_on_c, 3, 74, 95
5, 24332, Note_on_c, 3, 74, 0
5, 24336, Note_on_c, 3, 74, 95
5, 24456, Note_on_c, 3, 74, 0
5, 24492, Note_on_c, 3, 73, 95
5, 24502, Note_on_c, 3, 73, 0
5, 24504, Note_on_c, 3, 74, 95
5, 24514, Note_on_c, 3, 74, 0
5, 24516, Note_on_c, 3, 76, 95
5, 24526, Note_on_c, 3, 76, 0
5, 24528, Note_on_c, 3, 73, 95
5, 24558, Note_on_c, 3, 73, 0
5, 24564, Note_on_c, 3, 74, 95
5, 24574, Note_on_c, 3, 74, 0
5, 24576, Note_on_c, 3, 74, 95
5, 24616, Note_on_c, 3, 74, 0
5, 24696, Note_on_c, 3, 64, 95
5, 24716, Note_on_c, 3, 64, 0
5, 24720, Note_on_c, 3, 66, 95
5, 24740, Note_on_c, 3, 66, 0
5, 24744, Note_on_c, 3, 64, 95
5, 24764, Note_on_c, 3, 64, 0
5, 24768, Note_on_c, 3, 67, 95
5, 24788, Note_on_c, 3, 67, 0
5, 24792, Note_on_c, 3, 66, 95
5, 24812, Note_on_c, 3, 66, 0
5, 24816, Note_on_c, 3, 71, 95
5, 24836, Note_on_c, 3, 71, 0
5, 24840, Note_on_c, 3, 69, 95
5, 24860, Note_on_c, 3, 69, 0
5, 24864, Note_on_c, 3, 74, 95
5, 24984, Note_on_c, 3, 74, 0
5, 24984, Note_on_c, 3, 73, 95
5, 25004, Note_on_c, 3, 73, 0
5, 25008, Note_on_c, 3, 76, 95
5, 25028, Note_on_c, 3, 76, 0
5, 25032, Note_on_c, 3, 74, 95
5, 25052, Note_on_c, 3, 74, 0
5, 25056, Note_on_c, 3, 79, 95
5, 25076, Note_on_c, 3, 79, 0
5, 25080, Note_on_c, 3, 78, 95
5, 25100, Note_on_c, 3, 78, 0
5, 25104, Note_on_c, 3, 76, 95
5, 25124, Note_on_c, 3, 76, 0
5, 25128, Note_on_c, 3, 74, 95
5, 25138, Note_on_c, 3, 74, 0
5, 25140, Note_on_c, 3, 73, 95
5, 25150, Note_on_c, 3, 73, 0
5, 25152, Note_on_c, 3, 74, 95
5, 25162, Note_on_c, 3, 74, 0
5, 25164, Note_on_c, 3, 76, 95
5, 25174, Note_on_c, 3, 76, 0
5, 25176, Note_on_c, 3, 73, 95
5, 25186, Note_on_c, 3, 73, 0
5, 25188, Note_on_c, 3, 74, 95
5, 25198, Note_on_c, 3, 74, 0
5, 25200, Note_on_c, 3, 71, 95
5, 25210, Note_on_c, 3, 71, 0
5, 25212, Note_on_c, 3, 76, 95
5, 25222, Note_on_c, 3, 76, 0
5, 25224, Note_on_c, 3, 78, 95
5, 25234, Note_on_c, 3, 78, 0
5, 25236, Note_on_c, 3, 79, 95
5, 25246, Note_on_c, 3, 79, 0
5, 25248, Note_on_c, 3, 81, 95
5, 25258, Note_on_c, 3, 81, 0
5, 25260, Note_on_c, 3, 69, 95
5, 25270, Note_on_c, 3, 69, 0
5, 25272, Note_on_c, 3, 71, 95
5, 25282, Note_on_c, 3, 71, 0
5, 25284, Note_on_c, 3, 73, 95
5, 25294, Note_on_c, 3, 73, 0
5, 25296, Note_on_c, 3, 74, 95
5, 25306, Note_on_c, 3, 74, 0
5, 25308, Note_on_c, 3, 78, 95
5, 25318, Note_on_c, 3, 78, 0
5, 25320, Note_on_c, 3, 79, 95
5, 25330, Note_on_c, 3, 79, 0
5, 25332, Note_on_c, 3, 81, 95
5, 25342, Note_on_c, 3, 81, 0
5, 25344, Note_on_c, 3, 83, 95
5, 25354, Note_on_c, 3, 83, 0
5, 25356, Note_on_c, 3, 71, 95
5, 25366, Note_on_c, 3, 71, 0
5, 25368, Note_on_c, 3, 73, 95
5, 25378, Note_on_c, 3, 73, 0
5, 25380, Note_on_c, 3, 74, 95
5, 25390, Note_on_c, 3, 74, 0
5, 25392, Note_on_c, 3, 76, 95
5, 25402, Note_on_c, 3, 76, 0
5, 25404, Note_on_c, 3, 78, 95
5, 25414, Note_on_c, 3, 78, 0
5, 25416, Note_on_c, 3, 79, 95
5, 25426, Note_on_c, 3, 79, 0
5, 25428, Note_on_c, 3, 76, 95
5, 25438, Note_on_c, 3, 76, 0
5, 25440, Note_on_c, 3, 81, 95
5, 25450, Note_on_c, 3, 81, 0
5, 25452, Note_on_c, 3, 69, 95
5, 25462, Note_on_c, 3, 69, 0
5, 25464, Note_on_c, 3, 71, 95
5, 25474, Note_on_c, 3, 71, 0
5, 25476, Note_on_c, 3, 73, 95
5, 25486, Note_on_c, 3, 73, 0
5, 25488, Note_on_c, 3, 74, 95
5, 25568, Note_on_c, 3, 74, 0
5, 25584, Note_on_c, 3, 73, 95
5, 25624, Note_on_c, 3, 73, 0
5, 25632, Note_on_c, 3, 74, 95
5, 25652, Note_on_c, 3, 74, 0
5, 25656, Note_on_c, 3, 69, 95
5, 25676, Note_on_c, 3, 69, 0
5, 25680, Note_on_c, 3, 74, 95
5, 25690, Note_on_c, 3, 74, 0
5, 25692, Note_on_c, 3, 78, 95
5, 25702, Note_on_c, 3, 78, 0
5, 25704, Note_on_c, 3, 76, 95
5, 25714, Note_on_c, 3, 76, 0
5, 25716, Note_on_c, 3, 74, 95
5, 25726, Note_on_c, 3, 74, 0
5, 25728, Note_on_c, 3, 76, 95
5, 25738, Note_on_c, 3, 76, 0
5, 25740, Note_on_c, 3, 69, 95
5, 25750, Note_on_c, 3, 69, 0
5, 25752, Note_on_c, 3, 71, 95
5, 25762, Note_on_c, 3, 71, 0
5, 25764, Note_on_c, 3, 74, 95
5, 25774, Note_on_c, 3, 74, 0
5, 25776, Note_on_c, 3, 73, 95
5, 25786, Note_on_c, 3, 73, 0
5, 25788, Note_on_c, 3, 76, 95
5, 25798, Note_on_c, 3, 76, 0
5, 25800, Note_on_c, 3, 74, 95
5, 25810, Note_on_c, 3, 74, 0
5, 25812, Note_on_c, 3, 73, 95
5, 25822, Note_on_c, 3, 73, 0
5, 25824, Note_on_c, 3, 74, 95
5, 25834, Note_on_c, 3, 74, 0
5, 25836, Note_on_c, 3, 71, 95
5, 25846, Note_on_c, 3, 71, 0
5, 25848, Note_on_c, 3, 73, 95
5, 25858, Note_on_c, 3, 73, 0
5, 25860, Note_on_c, 3, 76, 95
5, 25870, Note_on_c, 3, 76, 0
5, 25872, Note_on_c, 3, 74, 95
5, 25882, Note_on_c, 3, 74, 0
5, 25884, Note_on_c, 3, 73, 95
5, 25894, Note_on_c, 3, 73, 0
5, 25896, Note_on_c, 3, 71, 95
5, 25906, Note_on_c, 3, 71, 0
5, 25908, Note_on_c, 3, 69, 95
5, 25918, Note_on_c, 3, 69, 0
5, 25920, Note_on_c, 3, 71, 95
5, 25930, Note_on_c, 3, 71, 0
5, 25932, Note_on_c, 3, 68, 95
5, 25942, Note_on_c, 3, 68, 0
5, 25944, Note_on_c, 3, 69, 95
5, 25954, Note_on_c, 3, 69, 0
5, 25956, Note_on_c, 3, 73, 95
5, 25966, Note_on_c, 3, 73, 0
5, 25968, Note_on_c, 3, 71, 95
5, 25978, Note_on_c, 3, 71, 0
5, 25980, Note_on_c, 3, 74, 95
5, 25990, Note_on_c, 3, 74, 0
5, 25992, Note_on_c, 3, 73, 95
5, 26002, Note_on_c, 3, 73, 0
5, 26004, Note_on_c, 3, 71, 95
5, 26014, Note_on_c, 3, 71, 0
5, 26016, Note_on_c, 3, 73, 95
5, 26026, Note_on_c, 3, 73, 0
5, 26028, Note_on_c, 3, 71, 95
5, 26038, Note_on_c, 3, 71, 0
5, 26040, Note_on_c, 3, 73, 95
5, 26050, Note_on_c, 3, 73, 0
5, 26052, Note_on_c, 3, 74, 95
5, 26062, Note_on_c, 3, 74, 0
5, 26064, Note_on_c, 3, 76, 95
5, 26074, Note_on_c, 3, 76, 0
5, 26076, Note_on_c, 3, 78, 95
5, 26086, Note_on_c, 3, 78, 0
5, 26088, Note_on_c, 3, 79, 95
5, 26098, Note_on_c, 3, 79, 0
5, 26100, Note_on_c, 3, 76, 95
5, 26110, Note_on_c, 3, 76, 0
5, 26112, Note_on_c, 3, 78, 95
5, 26122, Note_on_c, 3, 78, 0
5, 26124, Note_on_c, 3, 78, 95
5, 26134, Note_on_c, 3, 78, 0
5, 26136, Note_on_c, 3, 76, 95
5, 26146, Note_on_c, 3, 76, 0
5, 26148, Note_on_c, 3, 76, 95
5, 26158, Note_on_c, 3, 76, 0
5, 26160, Note_on_c, 3, 79, 95
5, 26170, Note_on_c, 3, 79, 0
5, 26172, Note_on_c, 3, 79, 95
5, 26182, Note_on_c, 3, 79, 0
5, 26184, Note_on_c, 3, 78, 95
5, 26194, Note_on_c, 3, 78, 0
5, 26196, Note_on_c, 3, 78, 95
5, 26206, Note_on_c, 3, 78, 0
5, 26208, Note_on_c, 3, 83, 95
5, 26218, Note_on_c, 3, 83, 0
5, 26220, Note_on_c, 3, 83, 95
5, 26230, Note_on_c, 3, 83, 0
5, 26232, Note_on_c, 3, 81, 95
5, 26242, Note_on_c, 3, 81, 0
5, 26244, Note_on_c, 3, 81, 95
5, 26254, Note_on_c, 3, 81, 0
5, 26256, Note_on_c, 3, 73, 95
5, 26266, Note_on_c, 3, 73, 0
5, 26268, Note_on_c, 3, 73, 95
5, 26278, Note_on_c, 3, 73, 0
5, 26280, Note_on_c, 3, 74, 95
5, 26290, Note_on_c, 3, 74, 0
5, 26292, Note_on_c, 3, 74, 95
5, 26302, Note_on_c, 3, 74, 0
5, 26304, Note_on_c, 3, 67, 95
5, 26314, Note_on_c, 3, 67, 0
5, 26316, Note_on_c, 3, 67, 95
5, 26326, Note_on_c, 3, 67, 0
5, 26328, Note_on_c, 3, 66, 95
5, 26338, Note_on_c, 3, 66, 0
5, 26340, Note_on_c, 3, 66, 95
5, 26350, Note_on_c, 3, 66, 0
5, 26352, Note_on_c, 3, 71, 95
5, 26362, Note_on_c, 3, 71, 0
5, 26364, Note_on_c, 3, 71, 95
5, 26374, Note_on_c, 3, 71, 0
5, 26376, Note_on_c, 3, 69, 95
5, 26386, Note_on_c, 3, 69, 0
5, 26388, Note_on_c, 3, 69, 95
5, 26398, Note_on_c, 3, 69, 0
5, 26400, Note_on_c, 3, 61, 95
5, 26410, Note_on_c, 3, 61, 0
5, 26412, Note_on_c, 3, 61, 95
5, 26422, Note_on_c, 3, 61, 0
5, 26424, Note_on_c, 3, 62, 95
5, 26434, Note_on_c, 3, 62, 0
5, 26436, Note_on_c, 3, 62, 95
5, 26446, Note_on_c, 3, 62, 0
5, 26448, Note_on_c, 3, 57, 95
5, 26458, Note_on_c, 3, 57, 0
5, 26460, Note_on_c, 3, 57, 95
5, 26470, Note_on_c, 3, 57, 0
5, 26472, Note_on_c, 3, 67, 95
5, 26482, Note_on_c, 3, 67, 0
5, 26484, Note_on_c, 3, 67, 95
5, 26494, Note_on_c, 3, 67, 0
5, 26496, Note_on_c, 3, 66, 95
5, 26506, Note_on_c, 3, 66, 0
5, 26508, Note_on_c, 3, 64, 95
5, 26518, Note_on_c, 3, 64, 0
5, 26520, Note_on_c, 3, 66, 95
5, 26530, Note_on_c, 3, 66, 0
5, 26532, Note_on_c, 3, 62, 95
5, 26542, Note_on_c, 3, 62, 0
5, 26544, Note_on_c, 3, 64, 95
5, 26554, Note_on_c, 3, 64, 0
5, 26556, Note_on_c, 3, 64, 95
5, 26566, Note_on_c, 3, 64, 0
5, 26568, Note_on_c, 3, 57, 95
5, 26578, Note_on_c, 3, 57, 0
5, 26580, Note_on_c, 3, 57, 95
5, 26590, Note_on_c, 3, 57, 0
5, 26592, Note_on_c, 3, 62, 95
5, 26612, Note_on_c, 3, 62, 0
5, 26616, Note_on_c, 3, 74, 95
5, 26626, Note_on_c, 3, 74, 0
5, 26628, Note_on_c, 3, 76, 95
5, 26638, Note_on_c, 3, 76, 0
5, 26640, Note_on_c, 3, 74, 95
5, 26660, Note_on_c, 3, 74, 0
5, 26712, Note_on_c, 3, 74, 95
5, 26722, Note_on_c, 3, 74, 0
5, 26724, Note_on_c, 3, 76, 95
5, 26734, Note_on_c, 3, 76, 0
5, 26736, Note_on_c, 3, 74, 95
5, 26756, Note_on_c, 3, 74, 0
5, 26760, Note_on_c, 3, 71, 95
5, 26780, Note_on_c, 3, 71, 0
5, 26784, Note_on_c, 3, 76, 95
5, 26804, Note_on_c, 3, 76, 0
5, 26856, Note_on_c, 3, 76, 95
5, 26866, Note_on_c, 3, 76, 0
5, 26868, Note_on_c, 3, 78, 95
5, 26878, Note_on_c, 3, 78, 0
5, 26880, Note_on_c, 3, 76, 95
5, 26900, Note_on_c, 3, 76, 0
5, 27000, Note_on_c, 3, 78, 95
5, 27010, Note_on_c, 3, 78, 0
5, 27012, Note_on_c, 3, 79, 95
5, 27022, Note_on_c, 3, 79, 0
5, 27024, Note_on_c, 3, 78, 95
5, 27044, Note_on_c, 3, 78, 0
5, 27096, Note_on_c, 3, 78, 95
5, 27106, Note_on_c, 3, 78, 0
5, 27108, Note_on_c, 3, 79, 95
5, 27118, Note_on_c, 3, 79, 0
5, 27120, Note_on_c, 3, 78, 95
5, 27140, Note_on_c, 3, 78, 0
5, 27144, Note_on_c, 3, 74, 95
5, 27164, Note_on_c, 3, 74, 0
5, 27168, Note_on_c, 3, 81, 95
5, 27188, Note_on_c, 3, 81, 0
5, 27240, Note_on_c, 3, 81, 95
5, 27250, Note_on_c, 3, 81, 0
5, 27252, Note_on_c, 3, 83, 95
5, 27262, Note_on_c, 3, 83, 0
5, 27264, Note_on_c, 3, 81, 95
5, 27284, Note_on_c, 3, 81, 0
5, 27336, Note_on_c, 3, 81, 95
5, 27356, Note_on_c, 3, 81, 0
5, 27360, Note_on_c, 3, 81, 95
5, 27370, Note_on_c, 3, 81, 0
5, 27372, Note_on_c, 3, 78, 95
5, 27382, Note_on_c, 3, 78, 0
5, 27384, Note_on_c, 3, 79, 95
5, 27392, Note_on_c, 3, 79, 0
5, 27432, Note_on_c, 3, 79, 95
5, 27452, Note_on_c, 3, 79, 0
5, 27456, Note_on_c, 3, 79, 95
5, 27466, Note_on_c, 3, 79, 0
5, 27468, Note_on_c, 3, 76, 95
5, 27478, Note_on_c, 3, 76, 0
5, 27480, Note_on_c, 3, 78, 95
5, 27488, Note_on_c, 3, 78, 0
5, 27528, Note_on_c, 3, 78, 95
5, 27548, Note_on_c, 3, 78, 0
5, 27552, Note_on_c, 3, 78, 95
5, 27562, Note_on_c, 3, 78, 0
5, 27564, Note_on_c, 3, 74, 95
5, 27574, Note_on_c, 3, 74, 0
5, 27576, Note_on_c, 3, 76, 95
5, 27584, Note_on_c, 3, 76, 0
5, 27624, Note_on_c, 3, 76, 95
5, 27644, Note_on_c, 3, 76, 0
5, 27648, Note_on_c, 3, 76, 95
5, 27658, Note_on_c, 3, 76, 0
5, 27660, Note_on_c, 3, 73, 95
5, 27670, Note_on_c, 3, 73, 0
5, 27672, Note_on_c, 3, 74, 95
5, 27682, Note_on_c, 3, 74, 0
5, 27684, Note_on_c, 3, 76, 95
5, 27694, Note_on_c, 3, 76, 0
5, 27696, Note_on_c, 3, 74, 95
5, 27706, Note_on_c, 3, 74, 0
5, 27708, Note_on_c, 3, 78, 95
5, 27718, Note_on_c, 3, 78, 0
5, 27720, Note_on_c, 3, 76, 95
5, 27730, Note_on_c, 3, 76, 0
5, 27732, Note_on_c, 3, 74, 95
5, 27742, Note_on_c, 3, 74, 0
5, 27744, Note_on_c, 3, 73, 95
5, 27764, Note_on_c, 3, 73, 0
5, 27768, Note_on_c, 3, 76, 95
5, 27788, Note_on_c, 3, 76, 0
5, 27816, Note_on_c, 3, 64, 95
5, 27836, Note_on_c, 3, 64, 0
5, 27840, Note_on_c, 3, 66, 95
5, 27850, Note_on_c, 3, 66, 0
5, 27852, Note_on_c, 3, 64, 95
5, 27862, Note_on_c, 3, 64, 0
5, 27864, Note_on_c, 3, 66, 95
5, 27874, Note_on_c, 3, 66, 0
5, 27876, Note_on_c, 3, 67, 95
5, 27886, Note_on_c, 3, 67, 0
5, 27888, Note_on_c, 3, 66, 95
5, 27898, Note_on_c, 3, 66, 0
5, 27900, Note_on_c, 3, 69, 95
5, 27910, Note_on_c, 3, 69, 0
5, 27912, Note_on_c, 3, 67, 95
5, 27922, Note_on_c, 3, 67, 0
5, 27924, Note_on_c, 3, 66, 95
5, 27934, Note_on_c, 3, 66, 0
5, 27936, Note_on_c, 3, 64, 95
5, 27956, Note_on_c, 3, 64, 0
5, 27960, Note_on_c, 3, 76, 95
5, 27980, Note_on_c, 3, 76, 0
5, 27984, Note_on_c, 3, 73, 95
5, 28004, Note_on_c, 3, 73, 0
5, 28008, Note_on_c, 3, 69, 95
5, 28028, Note_on_c, 3, 69, 0
5, 28032, Note_on_c, 3, 78, 63
5, 28052, Note_on_c, 3, 78, 0
5, 28056, Note_on_c, 3, 74, 63
5, 28076, Note_on_c, 3, 74, 0
5, 28128, Note_on_c, 3, 78, 63
5, 28148, Note_on_c, 3, 78, 0
5, 28152, Note_on_c, 3, 81, 63
5, 28172, Note_on_c, 3, 81, 0
5, 28224, Note_on_c, 3, 76, 63
5, 28244, Note_on_c, 3, 76, 0
5, 28248, Note_on_c, 3, 73, 63
5, 28268, Note_on_c, 3, 73, 0
5, 28320, Note_on_c, 3, 76, 63
5, 28340, Note_on_c, 3, 76, 0
5, 28344, Note_on_c, 3, 81, 63
5, 28364, Note_on_c, 3, 81, 0
5, 28416, Note_on_c, 3, 74, 63
5, 28436, Note_on_c, 3, 74, 0
5, 28440, Note_on_c, 3, 71, 63
5, 28460, Note_on_c, 3, 71, 0
5, 28512, Note_on_c, 3, 74, 63
5, 28532, Note_on_c, 3, 74, 0
5, 28536, Note_on_c, 3, 83, 63
5, 28556, Note_on_c, 3, 83, 0
5, 28608, Note_on_c, 3, 74, 63
5, 28628, Note_on_c, 3, 74, 0
5, 28632, Note_on_c, 3, 71, 63
5, 28652, Note_on_c, 3, 71, 0
5, 28704, Note_on_c, 3, 74, 63
5, 28724, Note_on_c, 3, 74, 0
5, 28728, Note_on_c, 3, 83, 63
5, 28748, Note_on_c, 3, 83, 0
5, 28800, Note_on_c, 3, 64, 63
5, 28824, Note_on_c, 3, 64, 0
5, 28824, Note_on_c, 3, 67, 63
5, 28848, Note_on_c, 3, 67, 0
5, 28848, Note_on_c, 3, 69, 63
5, 28872, Note_on_c, 3, 69, 0
5, 28872, Note_on_c, 3, 74, 63
5, 28896, Note_on_c, 3, 74, 0
5, 28896, Note_on_c, 3, 64, 63
5, 28920, Note_on_c, 3, 64, 0
5, 28920, Note_on_c, 3, 67, 63
5, 28944, Note_on_c, 3, 67, 0
5, 28944, Note_on_c, 3, 69, 63
5, 28968, Note_on_c, 3, 69, 0
5, 28968, Note_on_c, 3, 74, 63
5, 28992, Note_on_c, 3, 74, 0
5, 29088, Note_on_c, 3, 64, 63
5, 29184, Note_on_c, 3, 64, 0
5, 29184, Note_on_c, 3, 66, 63
5, 29280, Note_on_c, 3, 66, 0
5, 29280, Note_on_c, 3, 68, 63
5, 29376, Note_on_c, 3, 68, 0
5, 29376, Note_on_c, 3, 69, 63
5, 29400, Note_on_c, 3, 69, 0
5, 41952, Note_on_c, 3, 62, 95
5, 41960, Note_on_c, 3, 62, 0
5, 41964, Note_on_c, 3, 62, 95
5, 41972, Note_on_c, 3, 62, 0
5, 41976, Note_on_c, 3, 66, 95
5, 41984, Note_on_c, 3, 66, 0
5, 41988, Note_on_c, 3, 66, 95
5, 41996, Note_on_c, 3, 66, 0
5, 42000, Note_on_c, 3, 69, 95
5, 42008, Note_on_c, 3, 69, 0
5, 42012, Note_on_c, 3, 69, 95
5, 42020, Note_on_c, 3, 69, 0
5, 42024, Note_on_c, 3, 74, 95
5, 42032, Note_on_c, 3, 74, 0
5, 42036, Note_on_c, 3, 74, 95
5, 42044, Note_on_c, 3, 74, 0
5, 42048, Note_on_c, 3, 73, 95
5, 42056, Note_on_c, 3, 73, 0
5, 42060, Note_on_c, 3, 74, 95
5, 42068, Note_on_c, 3, 74, 0
5, 42072, Note_on_c, 3, 73, 95
5, 42080, Note_on_c, 3, 73, 0
5, 42084, Note_on_c, 3, 71, 95
5, 42092, Note_on_c, 3, 71, 0
5, 42096, Note_on_c, 3, 69, 95
5, 42104, Note_on_c, 3, 69, 0
5, 42108, Note_on_c, 3, 67, 95
5, 42116, Note_on_c, 3, 67, 0
5, 42120, Note_on_c, 3, 66, 95
5, 42128, Note_on_c, 3, 66, 0
5, 42132, Note_on_c, 3, 64, 95
5, 42140, Note_on_c, 3, 64, 0
5, 42144, Note_on_c, 3, 62, 95
5, 42152, Note_on_c, 3, 62, 0
5, 42156, Note_on_c, 3, 62, 95
5, 42164, Note_on_c, 3, 62, 0
5, 42168, Note_on_c, 3, 66, 95
5, 42176, Note_on_c, 3, 66, 0
5, 42180, Note_on_c, 3, 66, 95
5, 42188, Note_on_c, 3, 66, 0
5, 42192, Note_on_c, 3, 69, 95
5, 42200, Note_on_c, 3, 69, 0
5, 42204, Note_on_c, 3, 69, 95
5, 42212, Note_on_c, 3, 69, 0
5, 42216, Note_on_c, 3, 74, 95
5, 42224, Note_on_c, 3, 74, 0
5, 42228, Note_on_c, 3, 74, 95
5, 42236, Note_on_c, 3, 74, 0
5, 42240, Note_on_c, 3, 76, 95
5, 42256, Note_on_c, 3, 76, 0
5, 42264, Note_on_c, 3, 69, 95
5, 42280, Note_on_c, 3, 69, 0
5, 42312, Note_on_c, 3, 76, 95
5, 42328, Note_on_c, 3, 76, 0
5, 42336, Note_on_c, 3, 78, 95
5, 42344, Note_on_c, 3, 78, 0
5, 42348, Note_on_c, 3, 78, 95
5, 42356, Note_on_c, 3, 78, 0
5, 42360, Note_on_c, 3, 76, 95
5, 42368, Note_on_c, 3, 76, 0
5, 42372, Note_on_c, 3, 76, 95
5, 42380, Note_on_c, 3, 76, 0
5, 42384, Note_on_c, 3, 79, 95
5, 42392, Note_on_c, 3, 79, 0
5, 42396, Note_on_c, 3, 79, 95
5, 42404, Note_on_c, 3, 79, 0
5, 42408, Note_on_c, 3, 78, 95
5, 42416, Note_on_c, 3, 78, 0
5, 42420, Note_on_c, 3, 78, 95
5, 42428, Note_on_c, 3, 78, 0
5, 42432, Note_on_c, 3, 83, 95
5, 42440, Note_on_c, 3, 83, 0
5, 42444, Note_on_c, 3, 83, 95
5, 42452, Note_on_c, 3, 83, 0
5, 42456, Note_on_c, 3, 81, 95
5, 42464, Note_on_c, 3, 81, 0
5, 42468, Note_on_c, 3, 81, 95
5, 42476, Note_on_c, 3, 81, 0
5, 42480, Note_on_c, 3, 73, 95
5, 42488, Note_on_c, 3, 73, 0
5, 42492, Note_on_c, 3, 73, 95
5, 42500, Note_on_c, 3, 73, 0
5, 42504, Note_on_c, 3, 74, 95
5, 42512, Note_on_c, 3, 74, 0
5, 42516, Note_on_c, 3, 74, 95
5, 42524, Note_on_c, 3, 74, 0
5, 42528, Note_on_c, 3, 67, 95
5, 42536, Note_on_c, 3, 67, 0
5, 42540, Note_on_c, 3, 67, 95
5, 42548, Note_on_c, 3, 67, 0
5, 42552, Note_on_c, 3, 66, 95
5, 42560, Note_on_c, 3, 66, 0
5, 42564, Note_on_c, 3, 66, 95
5, 42572, Note_on_c, 3, 66, 0
5, 42576, Note_on_c, 3, 71, 95
5, 42584, Note_on_c, 3, 71, 0
5, 42588, Note_on_c, 3, 71, 95
5, 42596, Note_on_c, 3, 71, 0
5, 42600, Note_on_c, 3, 69, 95
5, 42608, Note_on_c, 3, 69, 0
5, 42612, Note_on_c, 3, 69, 95
5, 42620, Note_on_c, 3, 69, 0
5, 42624, Note_on_c, 3, 61, 95
5, 42632, Note_on_c, 3, 61, 0
5, 42636, Note_on_c, 3, 61, 95
5, 42644, Note_on_c, 3, 61, 0
5, 42648, Note_on_c, 3, 62, 95
5, 42656, Note_on_c, 3, 62, 0
5, 42660, Note_on_c, 3, 62, 95
5, 42668, Note_on_c, 3, 62, 0
5, 42672, Note_on_c, 3, 57, 95
5, 42680, Note_on_c, 3, 57, 0
5, 42684, Note_on_c, 3, 57, 95
5, 42692, Note_on_c, 3, 57, 0
5, 42696, Note_on_c, 3, 67, 95
5, 42704, Note_on_c, 3, 67, 0
5, 42708, Note_on_c, 3, 67, 95
5, 42716, Note_on_c, 3, 67, 0
5, 42720, Note_on_c, 3, 66, 95
5, 42728, Note_on_c, 3, 66, 0
5, 42732, Note_on_c, 3, 64, 95
5, 42740, Note_on_c, 3, 64, 0
5, 42744, Note_on_c, 3, 66, 95
5, 42752, Note_on_c, 3, 66, 0
5, 42756, Note_on_c, 3, 62, 95
5, 42764, Note_on_c, 3, 62, 0
5, 42768, Note_on_c, 3, 64, 95
5, 42776, Note_on_c, 3, 64, 0
5, 42780, Note_on_c, 3, 64, 95
5, 42788, Note_on_c, 3, 64, 0
5, 42792, Note_on_c, 3, 57, 95
5, 42800, Note_on_c, 3, 57, 0
5, 42804, Note_on_c, 3, 57, 95
5, 42812, Note_on_c, 3, 57, 0
5, 42816, Note_on_c, 3, 62, 95
5, 42824, Note_on_c, 3, 62, 0
5, 42828, Note_on_c, 3, 64, 95
5, 42836, Note_on_c, 3, 64, 0
5, 42840, Note_on_c, 3, 66, 95
5, 42848, Note_on_c, 3, 66, 0
5, 42852, Note_on_c, 3, 67, 95
5, 42860, Note_on_c, 3, 67, 0
5, 42864, Note_on_c, 3, 69, 95
5, 42872, Note_on_c, 3, 69, 0
5, 42876, Note_on_c, 3, 71, 95
5, 42884, Note_on_c, 3, 71, 0
5, 42888, Note_on_c, 3, 73, 95
5, 42896, Note_on_c, 3, 73, 0
5, 42900, Note_on_c, 3, 69, 95
5, 42908, Note_on_c, 3, 69, 0
5, 42912, Note_on_c, 3, 74, 95
5, 42920, Note_on_c, 3, 74, 0
5, 42924, Note_on_c, 3, 74, 95
5, 42932, Note_on_c, 3, 74, 0
5, 42936, Note_on_c, 3, 73, 95
5, 42944, Note_on_c, 3, 73, 0
5, 42948, Note_on_c, 3, 73, 95
5, 42956, Note_on_c, 3, 73, 0
5, 42960, Note_on_c, 3, 76, 95
5, 42968, Note_on_c, 3, 76, 0
5, 42972, Note_on_c, 3, 76, 95
5, 42980, Note_on_c, 3, 76, 0
5, 42984, Note_on_c, 3, 74, 95
5, 42992, Note_on_c, 3, 74, 0
5, 42996, Note_on_c, 3, 74, 95
5, 43004, Note_on_c, 3, 74, 0
5, 43008, Note_on_c, 3, 79, 95
5, 43016, Note_on_c, 3, 79, 0
5, 43020, Note_on_c, 3, 79, 95
5, 43028, Note_on_c, 3, 79, 0
5, 43032, Note_on_c, 3, 78, 95
5, 43040, Note_on_c, 3, 78, 0
5, 43044, Note_on_c, 3, 78, 95
5, 43052, Note_on_c, 3, 78, 0
5, 43056, Note_on_c, 3, 83, 95
5, 43064, Note_on_c, 3, 83, 0
5, 43068, Note_on_c, 3, 83, 95
5, 43076, Note_on_c, 3, 83, 0
5, 43080, Note_on_c, 3, 81, 95
5, 43088, Note_on_c, 3, 81, 0
5, 43092, Note_on_c, 3, 81, 95
5, 43100, Note_on_c, 3, 81, 0
5, 43104, Note_on_c, 3, 79, 95
5, 43112, Note_on_c, 3, 79, 0
5, 43116, Note_on_c, 3, 78, 95
5, 43124, Note_on_c, 3, 78, 0
5, 43128, Note_on_c, 3, 76, 95
5, 43136, Note_on_c, 3, 76, 0
5, 43140, Note_on_c, 3, 74, 95
5, 43148, Note_on_c, 3, 74, 0
5, 43152, Note_on_c, 3, 76, 95
5, 43168, Note_on_c, 3, 76, 0
5, 43176, Note_on_c, 3, 69, 95
5, 43184, Note_on_c, 3, 69, 0
5, 43188, Note_on_c, 3, 71, 95
5, 43196, Note_on_c, 3, 71, 0
5, 43200, Note_on_c, 3, 72, 95
5, 43208, Note_on_c, 3, 72, 0
5, 43212, Note_on_c, 3, 69, 95
5, 43220, Note_on_c, 3, 69, 0
5, 43224, Note_on_c, 3, 71, 95
5, 43232, Note_on_c, 3, 71, 0
5, 43236, Note_on_c, 3, 74, 95
5, 43244, Note_on_c, 3, 74, 0
5, 43248, Note_on_c, 3, 73, 95
5, 43256, Note_on_c, 3, 73, 0
5, 43260, Note_on_c, 3, 76, 95
5, 43268, Note_on_c, 3, 76, 0
5, 43272, Note_on_c, 3, 69, 95
5, 43280, Note_on_c, 3, 69, 0
5, 43284, Note_on_c, 3, 67, 95
5, 43292, Note_on_c, 3, 67, 0
5, 43296, Note_on_c, 3, 66, 95
5, 43304, Note_on_c, 3, 66, 0
5, 43308, Note_on_c, 3, 62, 95
5, 43316, Note_on_c, 3, 62, 0
5, 43320, Note_on_c, 3, 64, 95
5, 43328, Note_on_c, 3, 64, 0
5, 43332, Note_on_c, 3, 67, 95
5, 43340, Note_on_c, 3, 67, 0
5, 43344, Note_on_c, 3, 66, 95
5, 43352, Note_on_c, 3, 66, 0
5, 43356, Note_on_c, 3, 69, 95
5, 43364, Note_on_c, 3, 69, 0
5, 43368, Note_on_c, 3, 62, 95
5, 43376, Note_on_c, 3, 62, 0
5, 43380, Note_on_c, 3, 61, 95
5, 43388, Note_on_c, 3, 61, 0
5, 43392, Note_on_c, 3, 59, 95
5, 43400, Note_on_c, 3, 59, 0
5, 43404, Note_on_c, 3, 67, 95
5, 43412, Note_on_c, 3, 67, 0
5, 43416, Note_on_c, 3, 66, 95
5, 43424, Note_on_c, 3, 66, 0
5, 43428, Note_on_c, 3, 64, 95
5, 43436, Note_on_c, 3, 64, 0
5, 43440, Note_on_c, 3, 64, 95
5, 43464, Note_on_c, 3, 64, 0
5, 43476, Note_on_c, 3, 62, 95
5, 43484, Note_on_c, 3, 62, 0
5, 43488, Note_on_c, 3, 62, 95
5, 43536, Note_on_c, 3, 62, 0
5, 43728, Note_on_c, 3, 66, 95
5, 43776, Note_on_c, 3, 66, 0
5, 43776, Note_on_c, 3, 71, 95
5, 43824, Note_on_c, 3, 71, 0
5, 43824, Note_on_c, 3, 73, 95
5, 43860, Note_on_c, 3, 73, 0
5, 43860, Note_on_c, 3, 74, 95
5, 43872, Note_on_c, 3, 74, 0
5, 43872, Note_on_c, 3, 70, 95
5, 43920, Note_on_c, 3, 70, 0
5, 43920, Note_on_c, 3, 71, 95
5, 43956, Note_on_c, 3, 71, 0
5, 43956, Note_on_c, 3, 73, 95
5, 43968, Note_on_c, 3, 73, 0
5, 43968, Note_on_c, 3, 74, 95
5, 44016, Note_on_c, 3, 74, 0
5, 44016, Note_on_c, 3, 76, 95
5, 44052, Note_on_c, 3, 76, 0
5, 44052, Note_on_c, 3, 78, 95
5, 44064, Note_on_c, 3, 78, 0
5, 44064, Note_on_c, 3, 73, 95
5, 44112, Note_on_c, 3, 73, 0
5, 44112, Note_on_c, 3, 66, 95
5, 44160, Note_on_c, 3, 66, 0
5, 44160, Note_on_c, 3, 78, 95
5, 44304, Note_on_c, 3, 78, 0
5, 44304, Note_on_c, 3, 76, 95
5, 44340, Note_on_c, 3, 76, 0
5, 44340, Note_on_c, 3, 74, 95
5, 44352, Note_on_c, 3, 74, 0
5, 44352, Note_on_c, 3, 73, 95
5, 44358, Note_on_c, 3, 73, 0
5, 44358, Note_on_c, 3, 74, 95
5, 44364, Note_on_c, 3, 74, 0
5, 44364, Note_on_c, 3, 73, 95
5, 44370, Note_on_c, 3, 73, 0
5, 44370, Note_on_c, 3, 74, 95
5, 44376, Note_on_c, 3, 74, 0
5, 44376, Note_on_c, 3, 73, 95
5, 44382, Note_on_c, 3, 73, 0
5, 44382, Note_on_c, 3, 74, 95
5, 44388, Note_on_c, 3, 74, 0
5, 44388, Note_on_c, 3, 73, 95
5, 44394, Note_on_c, 3, 73, 0
5, 44394, Note_on_c, 3, 71, 95
5, 44400, Note_on_c, 3, 71, 0
5, 44400, Note_on_c, 3, 73, 95
5, 44448, Note_on_c, 3, 73, 0
5, 44448, Note_on_c, 3, 74, 95
5, 44592, Note_on_c, 3, 74, 0
5, 44592, Note_on_c, 3, 73, 95
5, 44628, Note_on_c, 3, 73, 0
5, 44628, Note_on_c, 3, 71, 95
5, 44640, Note_on_c, 3, 71, 0
5, 44640, Note_on_c, 3, 70, 95
5, 44736, Note_on_c, 3, 70, 0
5, 44784, Note_on_c, 3, 70, 95
5, 44832, Note_on_c, 3, 70, 0
5, 44832, Note_on_c, 3, 71, 95
5, 44880, Note_on_c, 3, 71, 0
5, 44880, Note_on_c, 3, 66, 95
5, 44928, Note_on_c, 3, 66, 0
5, 44928, Note_on_c, 3, 64, 95
5, 44976, Note_on_c, 3, 64, 0
5, 44976, Note_on_c, 3, 62, 95
5, 45012, Note_on_c, 3, 62, 0
5, 45012, Note_on_c, 3, 61, 95
5, 45024, Note_on_c, 3, 61, 0
5, 45024, Note_on_c, 3, 76, 95
5, 45072, Note_on_c, 3, 76, 0
5, 45072, Note_on_c, 3, 74, 95
5, 45108, Note_on_c, 3, 74, 0
5, 45108, Note_on_c, 3, 73, 95
5, 45120, Note_on_c, 3, 73, 0
5, 45120, Note_on_c, 3, 71, 95
5, 45168, Note_on_c, 3, 71, 0
5, 45168, Note_on_c, 3, 70, 95
5, 45216, Note_on_c, 3, 70, 0
5, 45216, Note_on_c, 3, 71, 95
5, 45312, Note_on_c, 3, 71, 0
5, 45648, Note_on_c, 3, 66, 63
5, 45696, Note_on_c, 3, 66, 0
5, 45696, Note_on_c, 3, 71, 63
5, 45744, Note_on_c, 3, 71, 0
5, 45744, Note_on_c, 3, 73, 63
5, 45780, Note_on_c, 3, 73, 0
5, 45780, Note_on_c, 3, 74, 63
5, 45792, Note_on_c, 3, 74, 0
5, 45792, Note_on_c, 3, 70, 63
5, 45888, Note_on_c, 3, 70, 0
5, 46416, Note_on_c, 3, 64, 63
5, 46464, Note_on_c, 3, 64, 0
5, 46464, Note_on_c, 3, 69, 63
5, 46512, Note_on_c, 3, 69, 0
5, 46512, Note_on_c, 3, 71, 63
5, 46548, Note_on_c, 3, 71, 0
5, 46548, Note_on_c, 3, 73, 63
5, 46560, Note_on_c, 3, 73, 0
5, 46560, Note_on_c, 3, 66, 63
5, 46656, Note_on_c, 3, 66, 0
5, 47376, Note_on_c, 3, 69, 95
5, 47424, Note_on_c, 3, 69, 0
5, 47424, Note_on_c, 3, 74, 95
5, 47472, Note_on_c, 3, 74, 0
5, 47472, Note_on_c, 3, 76, 95
5, 47508, Note_on_c, 3, 76, 0
5, 47508, Note_on_c, 3, 78, 95
5, 47520, Note_on_c, 3, 78, 0
5, 47520, Note_on_c, 3, 73, 95
5, 47568, Note_on_c, 3, 73, 0
5, 47568, Note_on_c, 3, 74, 95
5, 47604, Note_on_c, 3, 74, 0
5, 47604, Note_on_c, 3, 76, 95
5, 47616, Note_on_c, 3, 76, 0
5, 47616, Note_on_c, 3, 78, 95
5, 47664, Note_on_c, 3, 78, 0
5, 47664, Note_on_c, 3, 79, 95
5, 47700, Note_on_c, 3, 79, 0
5, 47700, Note_on_c, 3, 81, 95
5, 47712, Note_on_c, 3, 81, 0
5, 47712, Note_on_c, 3, 76, 95
5, 47760, Note_on_c, 3, 76, 0
5, 47760, Note_on_c, 3, 69, 95
5, 47808, Note_on_c, 3, 69, 0
5, 47808, Note_on_c, 3, 74, 95
5, 47928, Note_on_c, 3, 73, 95
5, 47952, Note_on_c, 3, 73, 0
5, 47952, Note_on_c, 3, 74, 0
5, 47952, Note_on_c, 3, 71, 95
5, 47988, Note_on_c, 3, 71, 0
5, 47988, Note_on_c, 3, 69, 95
5, 48000, Note_on_c, 3, 69, 0
5, 48000, Note_on_c, 3, 67, 95
5, 48024, Note_on_c, 3, 67, 0
5, 48024, Note_on_c, 3, 66, 95
5, 48048, Note_on_c, 3, 66, 0
5, 48048, Note_on_c, 3, 67, 95
5, 48144, Note_on_c, 3, 67, 0
5, 48144, Note_on_c, 3, 64, 95
5, 48192, Note_on_c, 3, 64, 0
5, 48192, Note_on_c, 3, 69, 95
5, 48240, Note_on_c, 3, 69, 0
5, 48240, Note_on_c, 3, 66, 95
5, 48288, Note_on_c, 3, 66, 0
5, 48288, Note_on_c, 3, 62, 95
5, 48336, Note_on_c, 3, 62, 0
5, 48336, Note_on_c, 3, 67, 95
5, 48384, Note_on_c, 3, 67, 0
5, 48384, Note_on_c, 3, 64, 95
5, 48432, Note_on_c, 3, 64, 0
5, 48432, Note_on_c, 3, 62, 95
5, 48468, Note_on_c, 3, 62, 0
5, 48468, Note_on_c, 3, 61, 95
5, 48480, Note_on_c, 3, 61, 0
5, 48480, Note_on_c, 3, 62, 95
5, 48552, Note_on_c, 3, 62, 0
5, 48552, Note_on_c, 3, 64, 95
5, 48576, Note_on_c, 3, 64, 0
5, 48576, Note_on_c, 3, 61, 95
5, 48648, Note_on_c, 3, 61, 0
5, 48648, Note_on_c, 3, 62, 95
5, 48672, Note_on_c, 3, 62, 0
5, 48672, Note_on_c, 3, 62, 95
5, 48720, Note_on_c, 3, 62, 0
5, 48720, Note_on_c, 3, 74, 95
5, 48816, Note_on_c, 3, 74, 0
5, 48816, Note_on_c, 3, 70, 95
5, 48864, Note_on_c, 3, 70, 0
5, 48864, Note_on_c, 3, 71, 95
5, 48960, Note_on_c, 3, 71, 0
5, 49104, Note_on_c, 3, 73, 63
5, 49152, Note_on_c, 3, 73, 0
5, 49152, Note_on_c, 3, 69, 63
5, 49200, Note_on_c, 3, 69, 0
5, 49200, Note_on_c, 3, 68, 63
5, 49236, Note_on_c, 3, 68, 0
5, 49236, Note_on_c, 3, 66, 63
5, 49248, Note_on_c, 3, 66, 0
5, 49248, Note_on_c, 3, 74, 63
5, 49344, Note_on_c, 3, 74, 0
5, 50448, Note_on_c, 3, 73, 63
5, 50496, Note_on_c, 3, 73, 0
5, 50496, Note_on_c, 3, 78, 63
5, 50544, Note_on_c, 3, 78, 0
5, 50544, Note_on_c, 3, 80, 63
5, 50580, Note_on_c, 3, 80, 0
5, 50580, Note_on_c, 3, 81, 63
5, 50592, Note_on_c, 3, 81, 0
5, 50592, Note_on_c, 3, 77, 63
5, 50688, Note_on_c, 3, 77, 0
5, 51216, Note_on_c, 3, 61, 95
5, 51264, Note_on_c, 3, 61, 0
5, 51264, Note_on_c, 3, 66, 95
5, 51312, Note_on_c, 3, 66, 0
5, 51312, Note_on_c, 3, 68, 95
5, 51348, Note_on_c, 3, 68, 0
5, 51348, Note_on_c, 3, 69, 95
5, 51360, Note_on_c, 3, 69, 0
5, 51360, Note_on_c, 3, 65, 95
5, 51408, Note_on_c, 3, 65, 0
5, 51408, Note_on_c, 3, 66, 95
5, 51444, Note_on_c, 3, 66, 0
5, 51444, Note_on_c, 3, 68, 95
5, 51456, Note_on_c, 3, 68, 0
5, 51456, Note_on_c, 3, 69, 95
5, 51504, Note_on_c, 3, 69, 0
5, 51504, Note_on_c, 3, 71, 95
5, 51540, Note_on_c, 3, 71, 0
5, 51540, Note_on_c, 3, 73, 95
5, 51552, Note_on_c, 3, 73, 0
5, 51552, Note_on_c, 3, 74, 95
5, 51600, Note_on_c, 3, 74, 0
5, 51600, Note_on_c, 3, 76, 95
5, 51636, Note_on_c, 3, 76, 0
5, 51636, Note_on_c, 3, 78, 95
5, 51648, Note_on_c, 3, 78, 0
5, 51648, Note_on_c, 3, 76, 95
5, 51696, Note_on_c, 3, 76, 0
5, 51696, Note_on_c, 3, 74, 95
5, 51702, Note_on_c, 3, 74, 0
5, 51702, Note_on_c, 3, 76, 95
5, 51708, Note_on_c, 3, 76, 0
5, 51708, Note_on_c, 3, 74, 95
5, 51714, Note_on_c, 3, 74, 0
5, 51714, Note_on_c, 3, 76, 95
5, 51720, Note_on_c, 3, 76, 0
5, 51720, Note_on_c, 3, 73, 95
5, 51732, Note_on_c, 3, 73, 0
5, 51732, Note_on_c, 3, 74, 95
5, 51744, Note_on_c, 3, 74, 0
5, 51744, Note_on_c, 3, 73, 95
5, 51792, Note_on_c, 3, 73, 0
5, 51792, Note_on_c, 3, 66, 95
5, 51840, Note_on_c, 3, 66, 0
5, 51840, Note_on_c, 3, 71, 95
5, 51984, Note_on_c, 3, 71, 0
5, 51984, Note_on_c, 3, 73, 95
5, 52020, Note_on_c, 3, 73, 0
5, 52020, Note_on_c, 3, 74, 95
5, 52032, Note_on_c, 3, 74, 0
5, 52032, Note_on_c, 3, 73, 95
5, 52080, Note_on_c, 3, 73, 0
5, 52080, Note_on_c, 3, 71, 95
5, 52086, Note_on_c, 3, 71, 0
5, 52086, Note_on_c, 3, 73, 95
5, 52092, Note_on_c, 3, 73, 0
5, 52092, Note_on_c, 3, 71, 95
5, 52098, Note_on_c, 3, 71, 0
5, 52098, Note_on_c, 3, 73, 95
5, 52104, Note_on_c, 3, 73, 0
5, 52104, Note_on_c, 3, 71, 95
5, 52110, Note_on_c, 3, 71, 0
5, 52110, Note_on_c, 3, 69, 95
5, 52116, Note_on_c, 3, 69, 0
5, 52116, Note_on_c, 3, 71, 95
5, 52128, Note_on_c, 3, 71, 0
5, 52128, Note_on_c, 3, 69, 95
5, 52152, Note_on_c, 3, 69, 0
5, 52152, Note_on_c, 3, 68, 95
5, 52176, Note_on_c, 3, 68, 0
5, 52176, Note_on_c, 3, 71, 95
5, 52200, Note_on_c, 3, 71, 0
5, 52200, Note_on_c, 3, 69, 95
5, 52224, Note_on_c, 3, 69, 0
5, 52224, Note_on_c, 3, 69, 95
5, 52248, Note_on_c, 3, 69, 0
5, 52248, Note_on_c, 3, 68, 95
5, 52272, Note_on_c, 3, 68, 0
5, 52272, Note_on_c, 3, 66, 95
5, 52296, Note_on_c, 3, 66, 0
5, 52296, Note_on_c, 3, 65, 95
5, 52320, Note_on_c, 3, 65, 0
5, 52320, Note_on_c, 3, 74, 95
5, 52368, Note_on_c, 3, 74, 0
5, 52368, Note_on_c, 3, 73, 95
5, 52404, Note_on_c, 3, 73, 0
5, 52404, Note_on_c, 3, 71, 95
5, 52416, Note_on_c, 3, 71, 0
5, 52416, Note_on_c, 3, 69, 95
5, 52464, Note_on_c, 3, 69, 0
5, 52464, Note_on_c, 3, 68, 95
5, 52500, Note_on_c, 3, 68, 0
5, 52500, Note_on_c, 3, 66, 95
5, 52512, Note_on_c, 3, 66, 0
5, 52512, Note_on_c, 3, 66, 95
5, 52608, Note_on_c, 3, 66, 0
5, 53136, Note_on_c, 3, 76, 95
5, 53160, Note_on_c, 3, 76, 0
5, 53160, Note_on_c, 3, 73, 95
5, 53184, Note_on_c, 3, 73, 0
5, 53184, Note_on_c, 3, 67, 95
5, 53208, Note_on_c, 3, 67, 0
5, 53208, Note_on_c, 3, 66, 95
5, 53232, Note_on_c, 3, 66, 0
5, 53232, Note_on_c, 3, 67, 95
5, 53256, Note_on_c, 3, 67, 0
5, 53256, Note_on_c, 3, 64, 95
5, 53280, Note_on_c, 3, 64, 0
5, 53280, Note_on_c, 3, 66, 95
5, 53376, Note_on_c, 3, 66, 0
5, 54096, Note_on_c, 3, 78, 95
5, 54120, Note_on_c, 3, 78, 0
5, 54120, Note_on_c, 3, 75, 95
5, 54144, Note_on_c, 3, 75, 0
5, 54144, Note_on_c, 3, 72, 95
5, 54168, Note_on_c, 3, 72, 0
5, 54168, Note_on_c, 3, 71, 95
5, 54192, Note_on_c, 3, 71, 0
5, 54192, Note_on_c, 3, 72, 95
5, 54216, Note_on_c, 3, 72, 0
5, 54216, Note_on_c, 3, 69, 95
5, 54240, Note_on_c, 3, 69, 0
5, 54240, Note_on_c, 3, 67, 95
5, 54288, Note_on_c, 3, 67, 0
5, 54288, Note_on_c, 3, 79, 95
5, 54312, Note_on_c, 3, 79, 0
5, 54312, Note_on_c, 3, 76, 95
5, 54336, Note_on_c, 3, 76, 0
5, 54336, Note_on_c, 3, 71, 95
5, 54360, Note_on_c, 3, 71, 0
5, 54360, Note_on_c, 3, 69, 95
5, 54384, Note_on_c, 3, 69, 0
5, 54384, Note_on_c, 3, 71, 95
5, 54408, Note_on_c, 3, 71, 0
5, 54408, Note_on_c, 3, 67, 95
5, 54432, Note_on_c, 3, 67, 0
5, 54432, Note_on_c, 3, 69, 95
5, 54480, Note_on_c, 3, 69, 0
5, 54480, Note_on_c, 3, 72, 95
5, 54504, Note_on_c, 3, 72, 0
5, 54504, Note_on_c, 3, 69, 95
5, 54528, Note_on_c, 3, 69, 0
5, 54528, Note_on_c, 3, 66, 95
5, 54552, Note_on_c, 3, 66, 0
5, 54552, Note_on_c, 3, 64, 95
5, 54576, Note_on_c, 3, 64, 0
5, 54576, Note_on_c, 3, 66, 95
5, 54600, Note_on_c, 3, 66, 0
5, 54600, Note_on_c, 3, 63, 95
5, 54624, Note_on_c, 3, 63, 0
5, 54624, Note_on_c, 3, 64, 95
5, 54672, Note_on_c, 3, 64, 0
5, 54960, Note_on_c, 3, 71, 95
5, 54984, Note_on_c, 3, 71, 0
5, 54984, Note_on_c, 3, 67, 95
5, 55008, Note_on_c, 3, 67, 0
5, 55008, Note_on_c, 3, 64, 95
5, 55032, Note_on_c, 3, 64, 0
5, 55032, Note_on_c, 3, 63, 95
5, 55056, Note_on_c, 3, 63, 0
5, 55056, Note_on_c, 3, 64, 95
5, 55080, Note_on_c, 3, 64, 0
5, 55080, Note_on_c, 3, 69, 95
5, 55104, Note_on_c, 3, 69, 0
5, 55104, Note_on_c, 3, 72, 95
5, 55152, Note_on_c, 3, 72, 0
5, 55152, Note_on_c, 3, 72, 95
5, 55176, Note_on_c, 3, 72, 0
5, 55176, Note_on_c, 3, 69, 95
5, 55200, Note_on_c, 3, 69, 0
5, 55200, Note_on_c, 3, 66, 95
5, 55224, Note_on_c, 3, 66, 0
5, 55224, Note_on_c, 3, 64, 95
5, 55248, Note_on_c, 3, 64, 0
5, 55248, Note_on_c, 3, 66, 95
5, 55272, Note_on_c, 3, 66, 0
5, 55272, Note_on_c, 3, 71, 95
5, 55296, Note_on_c, 3, 71, 0
5, 55296, Note_on_c, 3, 74, 95
5, 55344, Note_on_c, 3, 74, 0
5, 55344, Note_on_c, 3, 74, 95
5, 55368, Note_on_c, 3, 74, 0
5, 55368, Note_on_c, 3, 71, 95
5, 55392, Note_on_c, 3, 71, 0
5, 55392, Note_on_c, 3, 67, 95
5, 55416, Note_on_c, 3, 67, 0
5, 55416, Note_on_c, 3, 66, 95
5, 55440, Note_on_c, 3, 66, 0
5, 55440, Note_on_c, 3, 67, 95
5, 55464, Note_on_c, 3, 67, 0
5, 55464, Note_on_c, 3, 69, 95
5, 55488, Note_on_c, 3, 69, 0
5, 55488, Note_on_c, 3, 71, 95
5, 55560, Note_on_c, 3, 71, 0
5, 55560, Note_on_c, 3, 72, 95
5, 55584, Note_on_c, 3, 72, 0
5, 55584, Note_on_c, 3, 69, 95
5, 55632, Note_on_c, 3, 69, 0
5, 55632, Note_on_c, 3, 67, 95
5, 55680, Note_on_c, 3, 67, 0
5, 55680, Note_on_c, 3, 72, 95
5, 55728, Note_on_c, 3, 72, 0
5, 55728, Note_on_c, 3, 74, 95
5, 55764, Note_on_c, 3, 74, 0
5, 55764, Note_on_c, 3, 74, 95
5, 55776, Note_on_c, 3, 74, 0
5, 55776, Note_on_c, 3, 69, 95
5, 55848, Note_on_c, 3, 69, 0
5, 55848, Note_on_c, 3, 71, 95
5, 55872, Note_on_c, 3, 71, 0
5, 55872, Note_on_c, 3, 72, 95
5, 56016, Note_on_c, 3, 72, 0
5, 56016, Note_on_c, 3, 71, 95
5, 56052, Note_on_c, 3, 71, 0
5, 56052, Note_on_c, 3, 72, 95
5, 56064, Note_on_c, 3, 72, 0
5, 56064, Note_on_c, 3, 69, 95
5, 56136, Note_on_c, 3, 69, 0
5, 56136, Note_on_c, 3, 67, 95
5, 56160, Note_on_c, 3, 67, 0
5, 56160, Note_on_c, 3, 67, 95
5, 56256, Note_on_c, 3, 67, 0
5, 57168, Note_on_c, 3, 76, 63
5, 57216, Note_on_c, 3, 76, 0
5, 57216, Note_on_c, 3, 73, 63
5, 57264, Note_on_c, 3, 73, 0
5, 57264, Note_on_c, 3, 71, 63
5, 57300, Note_on_c, 3, 71, 0
5, 57300, Note_on_c, 3, 69, 63
5, 57312, Note_on_c, 3, 69, 0
5, 57312, Note_on_c, 3, 78, 63
5, 57408, Note_on_c, 3, 78, 0
5, 57936, Note_on_c, 3, 66, 63
5, 57984, Note_on_c, 3, 66, 0
5, 57984, Note_on_c, 3, 71, 63
5, 58032, Note_on_c, 3, 71, 0
5, 58032, Note_on_c, 3, 73, 63
5, 58068, Note_on_c, 3, 73, 0
5, 58068, Note_on_c, 3, 74, 63
5, 58080, Note_on_c, 3, 74, 0
5, 58080, Note_on_c, 3, 70, 63
5, 58128, Note_on_c, 3, 70, 0
5, 58128, Note_on_c, 3, 71, 63
5, 58164, Note_on_c, 3, 71, 0
5, 58164, Note_on_c, 3, 73, 63
5, 58176, Note_on_c, 3, 73, 0
5, 58176, Note_on_c, 3, 74, 63
5, 58224, Note_on_c, 3, 74, 0
5, 58224, Note_on_c, 3, 76, 63
5, 58260, Note_on_c, 3, 76, 0
5, 58260, Note_on_c, 3, 78, 63
5, 58272, Note_on_c, 3, 78, 0
5, 58272, Note_on_c, 3, 73, 63
5, 58368, Note_on_c, 3, 73, 0
5, 58704, Note_on_c, 3, 78, 63
5, 58728, Note_on_c, 3, 78, 0
5, 58728, Note_on_c, 3, 71, 63
5, 58752, Note_on_c, 3, 71, 0
5, 58752, Note_on_c, 3, 68, 63
5, 58776, Note_on_c, 3, 68, 0
5, 58776, Note_on_c, 3, 66, 63
5, 58800, Note_on_c, 3, 66, 0
5, 58800, Note_on_c, 3, 68, 63
5, 58824, Note_on_c, 3, 68, 0
5, 58824, Note_on_c, 3, 65, 63
5, 58848, Note_on_c, 3, 65, 0
5, 58848, Note_on_c, 3, 66, 63
5, 58944, Note_on_c, 3, 66, 0
5, 59088, Note_on_c, 3, 78, 63
5, 59112, Note_on_c, 3, 78, 0
5, 59112, Note_on_c, 3, 74, 63
5, 59136, Note_on_c, 3, 74, 0
5, 59136, Note_on_c, 3, 71, 63
5, 59160, Note_on_c, 3, 71, 0
5, 59160, Note_on_c, 3, 70, 63
5, 59184, Note_on_c, 3, 70, 0
5, 59184, Note_on_c, 3, 71, 63
5, 59208, Note_on_c, 3, 71, 0
5, 59208, Note_on_c, 3, 70, 63
5, 59232, Note_on_c, 3, 70, 0
5, 59232, Note_on_c, 3, 70, 63
5, 59328, Note_on_c, 3, 70, 0
5, 59856, Note_on_c, 3, 76, 63
5, 59880, Note_on_c, 3, 76, 0
5, 59880, Note_on_c, 3, 73, 63
5, 59904, Note_on_c, 3, 73, 0
5, 59904, Note_on_c, 3, 67, 63
5, 59928, Note_on_c, 3, 67, 0
5, 59928, Note_on_c, 3, 66, 63
5, 59952, Note_on_c, 3, 66, 0
5, 59952, Note_on_c, 3, 67, 63
5, 59976, Note_on_c, 3, 67, 0
5, 59976, Note_on_c, 3, 64, 63
5, 60000, Note_on_c, 3, 64, 0
5, 60000, Note_on_c, 3, 66, 63
5, 60048, Note_on_c, 3, 66, 0
5, 60048, Note_on_c, 3, 78, 63
5, 60072, Note_on_c, 3, 78, 0
5, 60072, Note_on_c, 3, 74, 63
5, 60096, Note_on_c, 3, 74, 0
5, 60096, Note_on_c, 3, 69, 63
5, 60120, Note_on_c, 3, 69, 0
5, 60120, Note_on_c, 3, 67, 63
5, 60144, Note_on_c, 3, 67, 0
5, 60144, Note_on_c, 3, 69, 63
5, 60168, Note_on_c, 3, 69, 0
5, 60168, Note_on_c, 3, 66, 63
5, 60192, Note_on_c, 3, 66, 0
5, 60192, Note_on_c, 3, 67, 63
5, 60240, Note_on_c, 3, 67, 0
5, 60240, Note_on_c, 3, 73, 63
5, 60264, Note_on_c, 3, 73, 0
5, 60264, Note_on_c, 3, 70, 63
5, 60288, Note_on_c, 3, 70, 0
5, 60288, Note_on_c, 3, 64, 63
5, 60312, Note_on_c, 3, 64, 0
5, 60312, Note_on_c, 3, 62, 63
5, 60336, Note_on_c, 3, 62, 0
5, 60336, Note_on_c, 3, 64, 63
5, 60360, Note_on_c, 3, 64, 0
5, 60360, Note_on_c, 3, 61, 63
5, 60384, Note_on_c, 3, 61, 0
5, 60384, Note_on_c, 3, 62, 63
5, 60432, Note_on_c, 3, 62, 0
5, 60624, Note_on_c, 3, 66, 95
5, 60672, Note_on_c, 3, 66, 0
5, 60672, Note_on_c, 3, 71, 95
5, 60720, Note_on_c, 3, 71, 0
5, 60720, Note_on_c, 3, 73, 95
5, 60756, Note_on_c, 3, 73, 0
5, 60756, Note_on_c, 3, 74, 95
5, 60768, Note_on_c, 3, 74, 0
5, 60768, Note_on_c, 3, 70, 95
5, 60816, Note_on_c, 3, 70, 0
5, 60816, Note_on_c, 3, 71, 95
5, 60852, Note_on_c, 3, 71, 0
5, 60852, Note_on_c, 3, 73, 95
5, 60864, Note_on_c, 3, 73, 0
5, 60864, Note_on_c, 3, 74, 95
5, 60912, Note_on_c, 3, 74, 0
5, 60912, Note_on_c, 3, 76, 95
5, 60948, Note_on_c, 3, 76, 0
5, 60948, Note_on_c, 3, 78, 95
5, 60960, Note_on_c, 3, 78, 0
5, 60960, Note_on_c, 3, 73, 95
5, 61008, Note_on_c, 3, 73, 0
5, 61008, Note_on_c, 3, 66, 95
5, 61056, Note_on_c, 3, 66, 0
5, 61056, Note_on_c, 3, 78, 95
5, 61200, Note_on_c, 3, 78, 0
5, 61200, Note_on_c, 3, 76, 95
5, 61236, Note_on_c, 3, 76, 0
5, 61236, Note_on_c, 3, 74, 95
5, 61248, Note_on_c, 3, 74, 0
5, 61248, Note_on_c, 3, 73, 95
5, 61254, Note_on_c, 3, 73, 0
5, 61254, Note_on_c, 3, 74, 95
5, 61260, Note_on_c, 3, 74, 0
5, 61260, Note_on_c, 3, 73, 95
5, 61266, Note_on_c, 3, 73, 0
5, 61266, Note_on_c, 3, 74, 95
5, 61272, Note_on_c, 3, 74, 0
5, 61272, Note_on_c, 3, 73, 95
5, 61278, Note_on_c, 3, 73, 0
5, 61278, Note_on_c, 3, 74, 95
5, 61284, Note_on_c, 3, 74, 0
5, 61284, Note_on_c, 3, 73, 95
5, 61290, Note_on_c, 3, 73, 0
5, 61290, Note_on_c, 3, 71, 95
5, 61296, Note_on_c, 3, 71, 0
5, 61296, Note_on_c, 3, 73, 95
5, 61344, Note_on_c, 3, 73, 0
5, 61344, Note_on_c, 3, 74, 95
5, 61488, Note_on_c, 3, 74, 0
5, 61488, Note_on_c, 3, 73, 95
5, 61524, Note_on_c, 3, 73, 0
5, 61524, Note_on_c, 3, 71, 95
5, 61536, Note_on_c, 3, 71, 0
5, 61536, Note_on_c, 3, 70, 95
5, 61632, Note_on_c, 3, 70, 0
5, 61680, Note_on_c, 3, 70, 95
5, 61728, Note_on_c, 3, 70, 0
5, 61728, Note_on_c, 3, 71, 95
5, 61776, Note_on_c, 3, 71, 0
5, 61776, Note_on_c, 3, 66, 95
5, 61824, Note_on_c, 3, 66, 0
5, 61824, Note_on_c, 3, 64, 95
5, 61872, Note_on_c, 3, 64, 0
5, 61872, Note_on_c, 3, 62, 95
5, 61908, Note_on_c, 3, 62, 0
5, 61908, Note_on_c, 3, 61, 95
5, 61920, Note_on_c, 3, 61, 0
5, 61920, Note_on_c, 3, 76, 95
5, 61968, Note_on_c, 3, 76, 0
5, 61968, Note_on_c, 3, 74, 95
5, 62004, Note_on_c, 3, 74, 0
5, 62004, Note_on_c, 3, 73, 95
5, 62016, Note_on_c, 3, 73, 0
5, 62016, Note_on_c, 3, 71, 95
5, 62064, Note_on_c, 3, 71, 0
5, 62064, Note_on_c, 3, 70, 95
5, 62070, Note_on_c, 3, 70, 0
5, 62070, Note_on_c, 3, 71, 95
5, 62076, Note_on_c, 3, 71, 0
5, 62076, Note_on_c, 3, 70, 95
5, 62082, Note_on_c, 3, 70, 0
5, 62082, Note_on_c, 3, 71, 95
5, 62088, Note_on_c, 3, 71, 0
5, 62088, Note_on_c, 3, 70, 95
5, 62094, Note_on_c, 3, 70, 0
5, 62094, Note_on_c, 3, 71, 95
5, 62100, Note_on_c, 3, 71, 0
5, 62100, Note_on_c, 3, 70, 95
5, 62112, Note_on_c, 3, 70, 0
5, 62112, Note_on_c, 3, 71, 63
5, 62208, Note_on_c, 3, 71, 0
5, 62340, Note_on_c, 3, 69, 95
5, 62350, Note_on_c, 3, 69, 0
5, 62352, Note_on_c, 3, 74, 95
5, 62383, Note_on_c, 3, 74, 0
5, 62388, Note_on_c, 3, 69, 95
5, 62398, Note_on_c, 3, 69, 0
5, 62400, Note_on_c, 3, 71, 95
5, 62414, Note_on_c, 3, 71, 0
5, 62416, Note_on_c, 3, 69, 95
5, 62430, Note_on_c, 3, 69, 0
5, 62432, Note_on_c, 3, 67, 95
5, 62446, Note_on_c, 3, 67, 0
5, 62448, Note_on_c, 3, 66, 95
5, 62462, Note_on_c, 3, 66, 0
5, 62464, Note_on_c, 3, 67, 95
5, 62478, Note_on_c, 3, 67, 0
5, 62480, Note_on_c, 3, 69, 95
5, 62494, Note_on_c, 3, 69, 0
5, 62496, Note_on_c, 3, 62, 95
5, 62510, Note_on_c, 3, 62, 0
5, 62544, Note_on_c, 3, 61, 95
5, 62565, Note_on_c, 3, 61, 0
5, 62592, Note_on_c, 3, 62, 95
5, 62613, Note_on_c, 3, 62, 0
5, 62640, Note_on_c, 3, 64, 95
5, 62661, Note_on_c, 3, 64, 0
5, 62688, Note_on_c, 3, 66, 95
5, 62702, Note_on_c, 3, 66, 0
5, 62704, Note_on_c, 3, 69, 95
5, 62718, Note_on_c, 3, 69, 0
5, 62720, Note_on_c, 3, 74, 95
5, 62734, Note_on_c, 3, 74, 0
5, 62736, Note_on_c, 3, 74, 95
5, 62750, Note_on_c, 3, 74, 0
5, 62752, Note_on_c, 3, 73, 95
5, 62766, Note_on_c, 3, 73, 0
5, 62768, Note_on_c, 3, 74, 95
5, 62782, Note_on_c, 3, 74, 0
5, 62784, Note_on_c, 3, 71, 95
5, 62798, Note_on_c, 3, 71, 0
5, 62800, Note_on_c, 3, 76, 95
5, 62814, Note_on_c, 3, 76, 0
5, 62816, Note_on_c, 3, 74, 95
5, 62830, Note_on_c, 3, 74, 0
5, 62832, Note_on_c, 3, 73, 95
5, 62846, Note_on_c, 3, 73, 0
5, 62848, Note_on_c, 3, 78, 95
5, 62862, Note_on_c, 3, 78, 0
5, 62864, Note_on_c, 3, 76, 95
5, 62878, Note_on_c, 3, 76, 0
5, 62880, Note_on_c, 3, 74, 95
5, 62901, Note_on_c, 3, 74, 0
5, 62928, Note_on_c, 3, 69, 95
5, 62949, Note_on_c, 3, 69, 0
5, 62976, Note_on_c, 3, 71, 95
5, 62997, Note_on_c, 3, 71, 0
5, 63024, Note_on_c, 3, 73, 95
5, 63045, Note_on_c, 3, 73, 0
5, 63072, Note_on_c, 3, 74, 95
5, 63086, Note_on_c, 3, 74, 0
5, 63088, Note_on_c, 3, 78, 95
5, 63102, Note_on_c, 3, 78, 0
5, 63104, Note_on_c, 3, 76, 95
5, 63118, Note_on_c, 3, 76, 0
5, 63120, Note_on_c, 3, 74, 95
5, 63134, Note_on_c, 3, 74, 0
5, 63136, Note_on_c, 3, 78, 95
5, 63150, Note_on_c, 3, 78, 0
5, 63152, Note_on_c, 3, 76, 95
5, 63166, Note_on_c, 3, 76, 0
5, 63168, Note_on_c, 3, 74, 95
5, 63240, Note_on_c, 3, 74, 0
5, 63252, Note_on_c, 3, 73, 95
5, 63262, Note_on_c, 3, 73, 0
5, 63264, Note_on_c, 3, 74, 95
5, 63278, Note_on_c, 3, 74, 0
5, 63280, Note_on_c, 3, 76, 95
5, 63294, Note_on_c, 3, 76, 0
5, 63296, Note_on_c, 3, 78, 95
5, 63310, Note_on_c, 3, 78, 0
5, 63312, Note_on_c, 3, 76, 95
5, 63326, Note_on_c, 3, 76, 0
5, 63328, Note_on_c, 3, 78, 95
5, 63342, Note_on_c, 3, 78, 0
5, 63344, Note_on_c, 3, 79, 95
5, 63358, Note_on_c, 3, 79, 0
5, 63360, Note_on_c, 3, 78, 95
5, 63374, Note_on_c, 3, 78, 0
5, 63376, Note_on_c, 3, 79, 95
5, 63390, Note_on_c, 3, 79, 0
5, 63392, Note_on_c, 3, 78, 95
5, 63406, Note_on_c, 3, 78, 0
5, 63408, Note_on_c, 3, 76, 95
5, 63422, Note_on_c, 3, 76, 0
5, 63424, Note_on_c, 3, 78, 95
5, 63438, Note_on_c, 3, 78, 0
5, 63440, Note_on_c, 3, 74, 95
5, 63454, Note_on_c, 3, 74, 0
5, 63456, Note_on_c, 3, 73, 95
5, 63472, Note_on_c, 3, 73, 0
5, 63472, Note_on_c, 3, 76, 95
5, 63488, Note_on_c, 3, 76, 0
5, 63488, Note_on_c, 3, 74, 95
5, 63504, Note_on_c, 3, 74, 0
5, 63504, Note_on_c, 3, 73, 95
5, 63520, Note_on_c, 3, 73, 0
5, 63520, Note_on_c, 3, 74, 95
5, 63536, Note_on_c, 3, 74, 0
5, 63536, Note_on_c, 3, 76, 95
5, 63552, Note_on_c, 3, 76, 0
5, 63552, Note_on_c, 3, 71, 95
5, 63576, Note_on_c, 3, 71, 0
5, 63600, Note_on_c, 3, 73, 95
5, 63624, Note_on_c, 3, 73, 0
5, 63648, Note_on_c, 3, 74, 95
5, 63840, Note_on_c, 3, 74, 0
5, 63856, Note_on_c, 3, 76, 95
5, 63872, Note_on_c, 3, 76, 0
5, 63872, Note_on_c, 3, 74, 95
5, 63888, Note_on_c, 3, 74, 0
5, 63888, Note_on_c, 3, 73, 95
5, 63904, Note_on_c, 3, 73, 0
5, 63904, Note_on_c, 3, 74, 95
5, 63920, Note_on_c, 3, 74, 0
5, 63920, Note_on_c, 3, 76, 95
5, 63936, Note_on_c, 3, 76, 0
5, 63936, Note_on_c, 3, 69, 95
5, 63972, Note_on_c, 3, 69, 0
5, 63972, Note_on_c, 3, 78, 95
5, 63984, Note_on_c, 3, 78, 0
5, 63984, Note_on_c, 3, 76, 95
5, 64020, Note_on_c, 3, 76, 0
5, 64020, Note_on_c, 3, 74, 95
5, 64032, Note_on_c, 3, 74, 0
5, 64032, Note_on_c, 3, 73, 95
5, 64048, Note_on_c, 3, 73, 0
5, 64048, Note_on_c, 3, 76, 95
5, 64064, Note_on_c, 3, 76, 0
5, 64064, Note_on_c, 3, 74, 95
5, 64080, Note_on_c, 3, 74, 0
5, 64080, Note_on_c, 3, 73, 95
5, 64096, Note_on_c, 3, 73, 0
5, 64096, Note_on_c, 3, 76, 95
5, 64112, Note_on_c, 3, 76, 0
5, 64112, Note_on_c, 3, 74, 95
5, 64128, Note_on_c, 3, 74, 0
5, 64128, Note_on_c, 3, 73, 95
5, 64224, Note_on_c, 3, 73, 0
5, 64240, Note_on_c, 3, 64, 95
5, 64256, Note_on_c, 3, 64, 0
5, 64256, Note_on_c, 3, 62, 95
5, 64272, Note_on_c, 3, 62, 0
5, 64272, Note_on_c, 3, 61, 95
5, 64288, Note_on_c, 3, 61, 0
5, 64288, Note_on_c, 3, 64, 95
5, 64304, Note_on_c, 3, 64, 0
5, 64304, Note_on_c, 3, 62, 95
5, 64320, Note_on_c, 3, 62, 0
5, 64320, Note_on_c, 3, 61, 95
5, 64416, Note_on_c, 3, 61, 0
5, 64416, Note_on_c, 3, 59, 95
5, 64512, Note_on_c, 3, 59, 0
5, 64512, Note_on_c, 3, 78, 95
5, 64656, Note_on_c, 3, 78, 0
5, 64656, Note_on_c, 3, 76, 95
5, 64672, Note_on_c, 3, 76, 0
5, 64672, Note_on_c, 3, 78, 95
5, 64688, Note_on_c, 3, 78, 0
5, 64688, Note_on_c, 3, 80, 95
5, 64704, Note_on_c, 3, 80, 0
5, 64704, Note_on_c, 3, 81, 95
5, 64768, Note_on_c, 3, 83, 95
5, 64776, Note_on_c, 3, 81, 0
5, 64784, Note_on_c, 3, 83, 0
5, 64784, Note_on_c, 3, 81, 95
5, 64800, Note_on_c, 3, 81, 0
5, 64800, Note_on_c, 3, 80, 95
5, 64816, Note_on_c, 3, 80, 0
5, 64816, Note_on_c, 3, 78, 95
5, 64832, Note_on_c, 3, 78, 0
5, 64832, Note_on_c, 3, 76, 95
5, 64848, Note_on_c, 3, 76, 0
5, 64848, Note_on_c, 3, 81, 95
5, 64944, Note_on_c, 3, 81, 0
5, 64944, Note_on_c, 3, 80, 95
5, 64992, Note_on_c, 3, 80, 0
5, 64992, Note_on_c, 3, 81, 95
5, 65056, Note_on_c, 3, 79, 95
5, 65064, Note_on_c, 3, 81, 0
5, 65072, Note_on_c, 3, 79, 0
5, 65072, Note_on_c, 3, 78, 95
5, 65088, Note_on_c, 3, 78, 0
5, 65088, Note_on_c, 3, 76, 95
5, 65152, Note_on_c, 3, 74, 95
5, 65160, Note_on_c, 3, 76, 0
5, 65168, Note_on_c, 3, 74, 0
5, 65168, Note_on_c, 3, 73, 95
5, 65184, Note_on_c, 3, 73, 0
5, 65184, Note_on_c, 3, 74, 95
5, 65200, Note_on_c, 3, 74, 0
5, 65200, Note_on_c, 3, 73, 95
5, 65216, Note_on_c, 3, 73, 0
5, 65216, Note_on_c, 3, 71, 95
5, 65232, Note_on_c, 3, 71, 0
5, 65232, Note_on_c, 3, 69, 95
5, 65248, Note_on_c, 3, 69, 0
5, 65248, Note_on_c, 3, 73, 95
5, 65264, Note_on_c, 3, 73, 0
5, 65264, Note_on_c, 3, 79, 95
5, 65280, Note_on_c, 3, 79, 0
5, 65280, Note_on_c, 3, 78, 95
5, 65304, Note_on_c, 3, 78, 0
5, 65328, Note_on_c, 3, 80, 95
5, 65352, Note_on_c, 3, 80, 0
5, 65376, Note_on_c, 3, 81, 95
5, 65412, Note_on_c, 3, 81, 0
5, 65412, Note_on_c, 3, 81, 95
5, 65424, Note_on_c, 3, 81, 0
5, 65424, Note_on_c, 3, 86, 95
5, 65460, Note_on_c, 3, 86, 0
5, 65460, Note_on_c, 3, 81, 95
5, 65472, Note_on_c, 3, 81, 0
5, 65472, Note_on_c, 3, 83, 95
5, 65488, Note_on_c, 3, 83, 0
5, 65488, Note_on_c, 3, 81, 95
5, 65504, Note_on_c, 3, 81, 0
5, 65504, Note_on_c, 3, 79, 95
5, 65520, Note_on_c, 3, 79, 0
5, 65520, Note_on_c, 3, 78, 95
5, 65536, Note_on_c, 3, 78, 0
5, 65536, Note_on_c, 3, 79, 95
5, 65552, Note_on_c, 3, 79, 0
5, 65552, Note_on_c, 3, 81, 95
5, 65568, Note_on_c, 3, 81, 0
5, 65568, Note_on_c, 3, 74, 95
5, 65592, Note_on_c, 3, 74, 0
5, 65616, Note_on_c, 3, 73, 95
5, 65640, Note_on_c, 3, 73, 0
5, 65664, Note_on_c, 3, 71, 95
5, 65688, Note_on_c, 3, 71, 0
5, 65712, Note_on_c, 3, 76, 95
5, 65736, Note_on_c, 3, 76, 0
5, 65760, Note_on_c, 3, 74, 95
5, 65776, Note_on_c, 3, 74, 0
5, 65776, Note_on_c, 3, 78, 95
5, 65792, Note_on_c, 3, 78, 0
5, 65792, Note_on_c, 3, 81, 95
5, 65808, Note_on_c, 3, 81, 0
5, 65808, Note_on_c, 3, 81, 95
5, 65824, Note_on_c, 3, 81, 0
5, 65824, Note_on_c, 3, 79, 95
5, 65840, Note_on_c, 3, 79, 0
5, 65840, Note_on_c, 3, 81, 95
5, 65856, Note_on_c, 3, 81, 0
5, 65856, Note_on_c, 3, 78, 95
5, 65872, Note_on_c, 3, 78, 0
5, 65872, Note_on_c, 3, 83, 95
5, 65888, Note_on_c, 3, 83, 0
5, 65888, Note_on_c, 3, 81, 95
5, 65904, Note_on_c, 3, 81, 0
5, 65904, Note_on_c, 3, 80, 95
5, 65920, Note_on_c, 3, 80, 0
5, 65920, Note_on_c, 3, 85, 95
5, 65936, Note_on_c, 3, 85, 0
5, 65936, Note_on_c, 3, 83, 95
5, 65952, Note_on_c, 3, 83, 0
5, 65952, Note_on_c, 3, 81, 95
5, 66016, Note_on_c, 3, 83, 95
5, 66024, Note_on_c, 3, 81, 0
5, 66032, Note_on_c, 3, 83, 0
5, 66032, Note_on_c, 3, 85, 95
5, 66048, Note_on_c, 3, 85, 0
5, 66048, Note_on_c, 3, 86, 95
5, 66064, Note_on_c, 3, 86, 0
5, 66064, Note_on_c, 3, 85, 95
5, 66080, Note_on_c, 3, 85, 0
5, 66080, Note_on_c, 3, 83, 95
5, 66096, Note_on_c, 3, 83, 0
5, 66096, Note_on_c, 3, 81, 95
5, 66112, Note_on_c, 3, 81, 0
5, 66112, Note_on_c, 3, 83, 95
5, 66128, Note_on_c, 3, 83, 0
5, 66128, Note_on_c, 3, 79, 95
5, 66144, Note_on_c, 3, 79, 0
5, 66144, Note_on_c, 3, 78, 95
5, 66168, Note_on_c, 3, 78, 0
5, 66192, Note_on_c, 3, 79, 95
5, 66216, Note_on_c, 3, 79, 0
5, 66240, Note_on_c, 3, 81, 95
5, 66256, Note_on_c, 3, 81, 0
5, 66288, Note_on_c, 3, 72, 95
5, 66304, Note_on_c, 3, 72, 0
5, 66336, Note_on_c, 3, 71, 95
5, 66352, Note_on_c, 3, 71, 0
5, 66384, Note_on_c, 3, 73, 95
5, 66400, Note_on_c, 3, 73, 0
5, 66432, Note_on_c, 3, 74, 95
5, 66448, Note_on_c, 3, 74, 0
5, 66480, Note_on_c, 3, 64, 95
5, 66496, Note_on_c, 3, 64, 0
5, 66496, Note_on_c, 3, 69, 95
5, 66512, Note_on_c, 3, 69, 0
5, 66512, Note_on_c, 3, 73, 95
5, 66528, Note_on_c, 3, 73, 0
5, 66528, Note_on_c, 3, 66, 95
5, 66544, Note_on_c, 3, 66, 0
5, 66544, Note_on_c, 3, 69, 95
5, 66560, Note_on_c, 3, 69, 0
5, 66560, Note_on_c, 3, 74, 95
5, 66576, Note_on_c, 3, 74, 0
5, 66576, Note_on_c, 3, 64, 95
5, 66592, Note_on_c, 3, 64, 0
5, 66592, Note_on_c, 3, 69, 95
5, 66608, Note_on_c, 3, 69, 0
5, 66608, Note_on_c, 3, 73, 95
5, 66624, Note_on_c, 3, 73, 0
5, 66624, Note_on_c, 3, 74, 66
5, 66648, Note_on_c, 3, 74, 0
5, 66672, Note_on_c, 3, 79, 85
5, 66696, Note_on_c, 3, 79, 0
5, 66720, Note_on_c, 3, 78, 60
5, 66744, Note_on_c, 3, 78, 0
5, 66768, Note_on_c, 3, 74, 85
5, 66792, Note_on_c, 3, 74, 0
5, 66816, Note_on_c, 3, 69, 85
5, 66840, Note_on_c, 3, 69, 0
5, 66864, Note_on_c, 3, 69, 74
5, 66900, Note_on_c, 3, 69, 0
5, 66900, Note_on_c, 3, 67, 61
5, 66912, Note_on_c, 3, 67, 0
5, 66912, Note_on_c, 3, 66, 66
5, 66948, Note_on_c, 3, 66, 0
5, 66948, Note_on_c, 3, 67, 85
5, 66960, Note_on_c, 3, 67, 0
5, 66960, Note_on_c, 3, 69, 78
5, 67008, Note_on_c, 3, 69, 0
5, 67024, Note_on_c, 3, 69, 70
5, 67040, Note_on_c, 3, 69, 0
5, 67040, Note_on_c, 3, 67, 85
5, 67056, Note_on_c, 3, 67, 0
5, 67056, Note_on_c, 3, 66, 53
5, 67072, Note_on_c, 3, 66, 0
5, 67072, Note_on_c, 3, 67, 85
5, 67088, Note_on_c, 3, 67, 0
5, 67088, Note_on_c, 3, 69, 85
5, 67104, Note_on_c, 3, 69, 0
5, 67104, Note_on_c, 3, 62, 78
5, 67140, Note_on_c, 3, 62, 0
5, 67140, Note_on_c, 3, 71, 78
5, 67152, Note_on_c, 3, 71, 0
5, 67152, Note_on_c, 3, 69, 78
5, 67188, Note_on_c, 3, 69, 0
5, 67188, Note_on_c, 3, 67, 78
5, 67200, Note_on_c, 3, 67, 0
5, 67200, Note_on_c, 3, 66, 78
5, 67216, Note_on_c, 3, 66, 0
5, 67216, Note_on_c, 3, 69, 78
5, 67232, Note_on_c, 3, 69, 0
5, 67232, Note_on_c, 3, 67, 78
5, 67248, Note_on_c, 3, 67, 0
5, 67248, Note_on_c, 3, 66, 78
5, 67264, Note_on_c, 3, 66, 0
5, 67264, Note_on_c, 3, 69, 78
5, 67280, Note_on_c, 3, 69, 0
5, 67280, Note_on_c, 3, 67, 78
5, 67296, Note_on_c, 3, 67, 0
5, 67296, Note_on_c, 3, 66, 95
5, 67408, Note_on_c, 3, 78, 95
5, 67424, Note_on_c, 3, 78, 0
5, 67424, Note_on_c, 3, 76, 95
5, 67440, Note_on_c, 3, 76, 0
5, 67440, Note_on_c, 3, 66, 0
5, 67440, Note_on_c, 3, 74, 95
5, 67456, Note_on_c, 3, 74, 0
5, 67456, Note_on_c, 3, 78, 95
5, 67472, Note_on_c, 3, 78, 0
5, 67472, Note_on_c, 3, 76, 95
5, 67488, Note_on_c, 3, 76, 0
5, 67488, Note_on_c, 3, 74, 95
5, 67770, Note_on_c, 3, 74, 0
5, 67776, Note_on_c, 3, 73, 95
5, 67791, Note_on_c, 3, 73, 0
5, 67792, Note_on_c, 3, 71, 95
5, 67807, Note_on_c, 3, 71, 0
5, 67808, Note_on_c, 3, 69, 95
5, 67823, Note_on_c, 3, 69, 0
5, 67824, Note_on_c, 3, 81, 95
5, 67888, Note_on_c, 3, 83, 95
5, 67891, Note_on_c, 3, 81, 0
5, 67903, Note_on_c, 3, 83, 0
5, 67904, Note_on_c, 3, 81, 95
5, 67919, Note_on_c, 3, 81, 0
5, 67920, Note_on_c, 3, 79, 95
5, 67984, Note_on_c, 3, 81, 95
5, 67987, Note_on_c, 3, 79, 0
5, 67999, Note_on_c, 3, 81, 0
5, 68000, Note_on_c, 3, 79, 95
5, 68015, Note_on_c, 3, 79, 0
5, 68016, Note_on_c, 3, 78, 95
5, 68080, Note_on_c, 3, 71, 95
5, 68083, Note_on_c, 3, 78, 0
5, 68095, Note_on_c, 3, 71, 0
5, 68096, Note_on_c, 3, 74, 95
5, 68111, Note_on_c, 3, 74, 0
5, 68112, Note_on_c, 3, 76, 95
5, 68127, Note_on_c, 3, 76, 0
5, 68128, Note_on_c, 3, 78, 95
5, 68143, Note_on_c, 3, 78, 0
5, 68144, Note_on_c, 3, 79, 95
5, 68159, Note_on_c, 3, 79, 0
5, 68160, Note_on_c, 3, 73, 66
5, 68171, Note_on_c, 3, 73, 0
5, 68176, Note_on_c, 3, 76, 66
5, 68187, Note_on_c, 3, 76, 0
5, 68192, Note_on_c, 3, 73, 66
5, 68203, Note_on_c, 3, 73, 0
5, 68208, Note_on_c, 3, 69, 66
5, 68219, Note_on_c, 3, 69, 0
5, 68224, Note_on_c, 3, 71, 66
5, 68235, Note_on_c, 3, 71, 0
5, 68240, Note_on_c, 3, 73, 66
5, 68251, Note_on_c, 3, 73, 0
5, 68256, Note_on_c, 3, 66, 65
5, 68280, Note_on_c, 3, 66, 0
5, 68292, Note_on_c, 3, 67, 85
5, 68300, Note_on_c, 3, 67, 0
5, 68304, Note_on_c, 3, 64, 85
5, 68328, Note_on_c, 3, 64, 0
5, 68340, Note_on_c, 3, 62, 85
5, 68348, Note_on_c, 3, 62, 0
5, 68352, Note_on_c, 3, 62, 85
5, 68703, Note_on_c, 3, 62, 0
5, 68704, Note_on_c, 3, 64, 85
5, 68714, Note_on_c, 3, 64, 0
5, 68720, Note_on_c, 3, 66, 85
5, 68730, Note_on_c, 3, 66, 0
5, 68736, Note_on_c, 3, 64, 85
5, 69072, Note_on_c, 3, 76, 71
5, 69104, Note_on_c, 3, 64, 0
5, 69112, Note_on_c, 3, 76, 0
5, 69120, Note_on_c, 3, 76, 77
5, 69160, Note_on_c, 3, 76, 0
5, 69168, Note_on_c, 3, 78, 60
5, 69248, Note_on_c, 3, 78, 0
5, 69264, Note_on_c, 3, 79, 85
5, 69344, Note_on_c, 3, 79, 0
5, 69360, Note_on_c, 3, 81, 78
5, 69440, Note_on_c, 3, 81, 0
5, 69444, Note_on_c, 3, 81, 85
5, 69454, Note_on_c, 3, 81, 0
5, 69456, Note_on_c, 3, 86, 85
5, 69486, Note_on_c, 3, 86, 0
5, 69492, Note_on_c, 3, 81, 85
5, 69502, Note_on_c, 3, 81, 0
5, 69504, Note_on_c, 3, 83, 85
5, 69517, Note_on_c, 3, 83, 0
5, 69520, Note_on_c, 3, 81, 81
5, 69533, Note_on_c, 3, 81, 0
5, 69536, Note_on_c, 3, 79, 67
5, 69549, Note_on_c, 3, 79, 0
5, 69552, Note_on_c, 3, 78, 65
5, 69565, Note_on_c, 3, 78, 0
5, 69568, Note_on_c, 3, 79, 85
5, 69581, Note_on_c, 3, 79, 0
5, 69584, Note_on_c, 3, 81, 85
5, 69597, Note_on_c, 3, 81, 0
5, 69600, Note_on_c, 3, 74, 103
5, 69627, Note_on_c, 3, 74, 0
5, 69636, Note_on_c, 3, 76, 88
5, 69645, Note_on_c, 3, 76, 0
5, 69648, Note_on_c, 3, 73, 82
5, 69675, Note_on_c, 3, 73, 0
5, 69684, Note_on_c, 3, 74, 96
5, 69693, Note_on_c, 3, 74, 0
5, 69696, Note_on_c, 3, 74, 91
5, 69768, Note_on_c, 3, 74, 0
5, 69792, Note_on_c, 3, 71, 85
5, 69804, Note_on_c, 3, 71, 0
5, 69808, Note_on_c, 3, 74, 85
5, 69820, Note_on_c, 3, 74, 0
5, 69824, Note_on_c, 3, 78, 46
5, 69836, Note_on_c, 3, 78, 0
5, 69840, Note_on_c, 3, 78, 47
5, 69852, Note_on_c, 3, 78, 0
5, 69856, Note_on_c, 3, 76, 85
5, 69868, Note_on_c, 3, 76, 0
5, 69872, Note_on_c, 3, 78, 49
5, 69884, Note_on_c, 3, 78, 0
5, 69888, Note_on_c, 3, 71, 85
5, 69900, Note_on_c, 3, 71, 0
5, 69904, Note_on_c, 3, 74, 85
5, 69916, Note_on_c, 3, 74, 0
5, 69920, Note_on_c, 3, 78, 49
5, 69932, Note_on_c, 3, 78, 0
5, 69936, Note_on_c, 3, 78, 64
5, 69948, Note_on_c, 3, 78, 0
5, 69952, Note_on_c, 3, 76, 85
5, 69964, Note_on_c, 3, 76, 0
5, 69968, Note_on_c, 3, 78, 62
5, 69980, Note_on_c, 3, 78, 0
5, 69984, Note_on_c, 3, 71, 85
5, 69996, Note_on_c, 3, 71, 0
5, 70000, Note_on_c, 3, 75, 70
5, 70012, Note_on_c, 3, 75, 0
5, 70016, Note_on_c, 3, 76, 81
5, 70028, Note_on_c, 3, 76, 0
5, 70032, Note_on_c, 3, 76, 85
5, 70044, Note_on_c, 3, 76, 0
5, 70048, Note_on_c, 3, 75, 66
5, 70060, Note_on_c, 3, 75, 0
5, 70064, Note_on_c, 3, 76, 85
5, 70076, Note_on_c, 3, 76, 0
5, 70080, Note_on_c, 3, 70, 72
5, 70092, Note_on_c, 3, 70, 0
5, 70096, Note_on_c, 3, 73, 71
5, 70108, Note_on_c, 3, 73, 0
5, 70112, Note_on_c, 3, 76, 55
5, 70124, Note_on_c, 3, 76, 0
5, 70128, Note_on_c, 3, 76, 85
5, 70140, Note_on_c, 3, 76, 0
5, 70144, Note_on_c, 3, 74, 85
5, 70156, Note_on_c, 3, 74, 0
5, 70160, Note_on_c, 3, 76, 85
5, 70172, Note_on_c, 3, 76, 0
5, 70176, Note_on_c, 3, 71, 85
5, 70188, Note_on_c, 3, 71, 0
5, 70192, Note_on_c, 3, 74, 85
5, 70204, Note_on_c, 3, 74, 0
5, 70208, Note_on_c, 3, 78, 59
5, 70220, Note_on_c, 3, 78, 0
5, 70224, Note_on_c, 3, 78, 64
5, 70236, Note_on_c, 3, 78, 0
5, 70240, Note_on_c, 3, 76, 85
5, 70252, Note_on_c, 3, 76, 0
5, 70256, Note_on_c, 3, 78, 64
5, 70268, Note_on_c, 3, 78, 0
5, 70272, Note_on_c, 3, 69, 85
5, 70284, Note_on_c, 3, 69, 0
5, 70288, Note_on_c, 3, 76, 85
5, 70300, Note_on_c, 3, 76, 0
5, 70304, Note_on_c, 3, 79, 47
5, 70316, Note_on_c, 3, 79, 0
5, 70320, Note_on_c, 3, 79, 67
5, 70332, Note_on_c, 3, 79, 0
5, 70336, Note_on_c, 3, 78, 66
5, 70348, Note_on_c, 3, 78, 0
5, 70352, Note_on_c, 3, 79, 74
5, 70364, Note_on_c, 3, 79, 0
5, 70368, Note_on_c, 3, 68, 43
5, 70380, Note_on_c, 3, 68, 0
5, 70384, Note_on_c, 3, 66, 66
5, 70396, Note_on_c, 3, 66, 0
5, 70400, Note_on_c, 3, 76, 84
5, 70412, Note_on_c, 3, 76, 0
5, 70416, Note_on_c, 3, 74, 79
5, 70428, Note_on_c, 3, 74, 0
5, 70432, Note_on_c, 3, 76, 52
5, 70444, Note_on_c, 3, 76, 0
5, 70448, Note_on_c, 3, 73, 66
5, 70460, Note_on_c, 3, 73, 0
5, 70464, Note_on_c, 3, 71, 85
5, 70482, Note_on_c, 3, 71, 0
5, 70512, Note_on_c, 3, 66, 53
5, 70530, Note_on_c, 3, 66, 0
5, 70560, Note_on_c, 3, 71, 85
5, 70578, Note_on_c, 3, 71, 0
5, 70608, Note_on_c, 3, 73, 57
5, 70620, Note_on_c, 3, 73, 0
5, 70624, Note_on_c, 3, 74, 85
5, 70636, Note_on_c, 3, 74, 0
5, 70640, Note_on_c, 3, 76, 85
5, 70652, Note_on_c, 3, 76, 0
5, 70656, Note_on_c, 3, 78, 62
5, 70668, Note_on_c, 3, 78, 0
5, 70672, Note_on_c, 3, 76, 76
5, 70684, Note_on_c, 3, 76, 0
5, 70688, Note_on_c, 3, 74, 85
5, 70700, Note_on_c, 3, 74, 0
5, 70704, Note_on_c, 3, 73, 65
5, 70716, Note_on_c, 3, 73, 0
5, 70720, Note_on_c, 3, 71, 44
5, 70732, Note_on_c, 3, 71, 0
5, 70736, Note_on_c, 3, 70, 66
5, 70748, Note_on_c, 3, 70, 0
5, 70752, Note_on_c, 3, 71, 85
5, 70779, Note_on_c, 3, 71, 0
5, 70788, Note_on_c, 3, 78, 59
5, 70797, Note_on_c, 3, 78, 0
5, 70800, Note_on_c, 3, 83, 85
5, 70827, Note_on_c, 3, 83, 0
5, 70836, Note_on_c, 3, 78, 74
5, 70845, Note_on_c, 3, 78, 0
5, 70848, Note_on_c, 3, 79, 85
5, 70956, Note_on_c, 3, 79, 0
5, 70980, Note_on_c, 3, 79, 85
5, 70992, Note_on_c, 3, 79, 0
5, 70992, Note_on_c, 3, 81, 85
5, 71004, Note_on_c, 3, 81, 0
5, 71008, Note_on_c, 3, 78, 54
5, 71020, Note_on_c, 3, 78, 0
5, 71024, Note_on_c, 3, 79, 85
5, 71036, Note_on_c, 3, 79, 0
5, 71040, Note_on_c, 3, 78, 89
5, 71112, Note_on_c, 3, 78, 0
5, 71136, Note_on_c, 3, 78, 86
5, 71163, Note_on_c, 3, 78, 0
5, 71172, Note_on_c, 3, 78, 78
5, 71181, Note_on_c, 3, 78, 0
5, 71184, Note_on_c, 3, 83, 85
5, 71211, Note_on_c, 3, 83, 0
5, 71220, Note_on_c, 3, 79, 85
5, 71229, Note_on_c, 3, 79, 0
5, 71232, Note_on_c, 3, 76, 85
5, 71304, Note_on_c, 3, 76, 0
5, 71328, Note_on_c, 3, 76, 95
5, 71340, Note_on_c, 3, 76, 0
5, 71344, Note_on_c, 3, 78, 95
5, 71356, Note_on_c, 3, 78, 0
5, 71360, Note_on_c, 3, 79, 95
5, 71372, Note_on_c, 3, 79, 0
5, 71376, Note_on_c, 3, 78, 95
5, 71388, Note_on_c, 3, 78, 0
5, 71392, Note_on_c, 3, 79, 95
5, 71404, Note_on_c, 3, 79, 0
5, 71408, Note_on_c, 3, 76, 95
5, 71420, Note_on_c, 3, 76, 0
5, 71424, Note_on_c, 3, 74, 95
5, 71436, Note_on_c, 3, 74, 0
5, 71440, Note_on_c, 3, 71, 95
5, 71452, Note_on_c, 3, 71, 0
5, 71456, Note_on_c, 3, 73, 95
5, 71468, Note_on_c, 3, 73, 0
5, 71472, Note_on_c, 3, 74, 95
5, 71484, Note_on_c, 3, 74, 0
5, 71488, Note_on_c, 3, 78, 95
5, 71500, Note_on_c, 3, 78, 0
5, 71504, Note_on_c, 3, 77, 95
5, 71516, Note_on_c, 3, 77, 0
5, 71520, Note_on_c, 3, 78, 95
5, 71532, Note_on_c, 3, 78, 0
5, 71536, Note_on_c, 3, 80, 95
5, 71548, Note_on_c, 3, 80, 0
5, 71552, Note_on_c, 3, 81, 95
5, 71564, Note_on_c, 3, 81, 0
5, 71568, Note_on_c, 3, 80, 95
5, 71584, Note_on_c, 3, 81, 95
5, 71586, Note_on_c, 3, 80, 0
5, 71596, Note_on_c, 3, 81, 0
5, 71600, Note_on_c, 3, 78, 95
5, 71612, Note_on_c, 3, 78, 0
5, 71616, Note_on_c, 3, 77, 95
5, 71628, Note_on_c, 3, 77, 0
5, 71632, Note_on_c, 3, 80, 95
5, 71644, Note_on_c, 3, 80, 0
5, 71648, Note_on_c, 3, 85, 95
5, 71660, Note_on_c, 3, 85, 0
5, 71664, Note_on_c, 3, 83, 95
5, 71676, Note_on_c, 3, 83, 0
5, 71680, Note_on_c, 3, 81, 95
5, 71692, Note_on_c, 3, 81, 0
5, 71696, Note_on_c, 3, 80, 95
5, 71708, Note_on_c, 3, 80, 0
5, 71712, Note_on_c, 3, 78, 63
5, 71739, Note_on_c, 3, 78, 0
5, 71748, Note_on_c, 3, 73, 63
5, 71760, Note_on_c, 3, 73, 0
5, 71760, Note_on_c, 3, 73, 63
5, 71772, Note_on_c, 3, 73, 0
5, 71776, Note_on_c, 3, 71, 63
5, 71788, Note_on_c, 3, 71, 0
5, 71792, Note_on_c, 3, 73, 63
5, 71804, Note_on_c, 3, 73, 0
5, 71808, Note_on_c, 3, 66, 63
5, 71820, Note_on_c, 3, 66, 0
5, 71824, Note_on_c, 3, 69, 63
5, 71836, Note_on_c, 3, 69, 0
5, 71840, Note_on_c, 3, 73, 63
5, 71852, Note_on_c, 3, 73, 0
5, 71856, Note_on_c, 3, 73, 63
5, 71868, Note_on_c, 3, 73, 0
5, 71872, Note_on_c, 3, 71, 63
5, 71884, Note_on_c, 3, 71, 0
5, 71888, Note_on_c, 3, 73, 63
5, 71900, Note_on_c, 3, 73, 0
5, 71904, Note_on_c, 3, 66, 63
5, 71916, Note_on_c, 3, 66, 0
5, 71920, Note_on_c, 3, 70, 63
5, 71932, Note_on_c, 3, 70, 0
5, 71936, Note_on_c, 3, 71, 63
5, 71948, Note_on_c, 3, 71, 0
5, 71952, Note_on_c, 3, 71, 85
5, 71964, Note_on_c, 3, 71, 0
5, 71968, Note_on_c, 3, 70, 66
5, 71980, Note_on_c, 3, 70, 0
5, 71984, Note_on_c, 3, 71, 85
5, 71996, Note_on_c, 3, 71, 0
5, 72000, Note_on_c, 3, 65, 85
5, 72012, Note_on_c, 3, 65, 0
5, 72016, Note_on_c, 3, 68, 66
5, 72028, Note_on_c, 3, 68, 0
5, 72032, Note_on_c, 3, 71, 85
5, 72044, Note_on_c, 3, 71, 0
5, 72048, Note_on_c, 3, 71, 85
5, 72060, Note_on_c, 3, 71, 0
5, 72064, Note_on_c, 3, 69, 85
5, 72076, Note_on_c, 3, 69, 0
5, 72080, Note_on_c, 3, 71, 85
5, 72092, Note_on_c, 3, 71, 0
5, 72096, Note_on_c, 3, 66, 57
5, 72108, Note_on_c, 3, 66, 0
5, 72112, Note_on_c, 3, 69, 85
5, 72124, Note_on_c, 3, 69, 0
5, 72128, Note_on_c, 3, 73, 67
5, 72140, Note_on_c, 3, 73, 0
5, 72144, Note_on_c, 3, 73, 70
5, 72156, Note_on_c, 3, 73, 0
5, 72160, Note_on_c, 3, 71, 85
5, 72172, Note_on_c, 3, 71, 0
5, 72176, Note_on_c, 3, 73, 67
5, 72188, Note_on_c, 3, 73, 0
5, 72192, Note_on_c, 3, 65, 85
5, 72204, Note_on_c, 3, 65, 0
5, 72208, Note_on_c, 3, 71, 85
5, 72220, Note_on_c, 3, 71, 0
5, 72224, Note_on_c, 3, 74, 85
5, 72236, Note_on_c, 3, 74, 0
5, 72240, Note_on_c, 3, 74, 85
5, 72252, Note_on_c, 3, 74, 0
5, 72256, Note_on_c, 3, 73, 70
5, 72268, Note_on_c, 3, 73, 0
5, 72272, Note_on_c, 3, 74, 85
5, 72284, Note_on_c, 3, 74, 0
5, 72288, Note_on_c, 3, 65, 85
5, 72300, Note_on_c, 3, 65, 0
5, 72304, Note_on_c, 3, 61, 55
5, 72316, Note_on_c, 3, 61, 0
5, 72320, Note_on_c, 3, 71, 85
5, 72332, Note_on_c, 3, 71, 0
5, 72336, Note_on_c, 3, 69, 77
5, 72348, Note_on_c, 3, 69, 0
5, 72352, Note_on_c, 3, 71, 85
5, 72364, Note_on_c, 3, 71, 0
5, 72368, Note_on_c, 3, 68, 66
5, 72380, Note_on_c, 3, 68, 0
5, 72384, Note_on_c, 3, 66, 81
5, 72402, Note_on_c, 3, 66, 0
5, 72496, Note_on_c, 3, 66, 62
5, 72508, Note_on_c, 3, 66, 0
5, 72512, Note_on_c, 3, 68, 70
5, 72524, Note_on_c, 3, 68, 0
5, 72528, Note_on_c, 3, 69, 85
5, 72540, Note_on_c, 3, 69, 0
5, 72544, Note_on_c, 3, 73, 64
5, 72556, Note_on_c, 3, 73, 0
5, 72560, Note_on_c, 3, 71, 85
5, 72572, Note_on_c, 3, 71, 0
5, 72576, Note_on_c, 3, 73, 67
5, 72594, Note_on_c, 3, 73, 0
5, 72688, Note_on_c, 3, 64, 62
5, 72700, Note_on_c, 3, 64, 0
5, 72704, Note_on_c, 3, 66, 67
5, 72716, Note_on_c, 3, 66, 0
5, 72720, Note_on_c, 3, 68, 56
5, 72732, Note_on_c, 3, 68, 0
5, 72736, Note_on_c, 3, 71, 79
5, 72748, Note_on_c, 3, 71, 0
5, 72752, Note_on_c, 3, 69, 85
5, 72764, Note_on_c, 3, 69, 0
5, 72768, Note_on_c, 3, 71, 84
5, 72773, Note_on_c, 3, 71, 0
5, 72774, Note_on_c, 3, 73, 60
5, 72779, Note_on_c, 3, 73, 0
5, 72780, Note_on_c, 3, 71, 85
5, 72785, Note_on_c, 3, 71, 0
5, 72786, Note_on_c, 3, 73, 65
5, 72791, Note_on_c, 3, 73, 0
5, 72792, Note_on_c, 3, 71, 85
5, 72797, Note_on_c, 3, 71, 0
5, 72798, Note_on_c, 3, 73, 60
5, 72803, Note_on_c, 3, 73, 0
5, 72804, Note_on_c, 3, 71, 69
5, 72809, Note_on_c, 3, 71, 0
5, 72810, Note_on_c, 3, 73, 68
5, 72815, Note_on_c, 3, 73, 0
5, 72816, Note_on_c, 3, 71, 85
5, 72821, Note_on_c, 3, 71, 0
5, 72822, Note_on_c, 3, 73, 65
5, 72827, Note_on_c, 3, 73, 0
5, 72828, Note_on_c, 3, 71, 85
5, 72833, Note_on_c, 3, 71, 0
5, 72834, Note_on_c, 3, 73, 60
5, 72839, Note_on_c, 3, 73, 0
5, 72840, Note_on_c, 3, 71, 69
5, 72845, Note_on_c, 3, 71, 0
5, 72846, Note_on_c, 3, 73, 68
5, 72851, Note_on_c, 3, 73, 0
5, 72852, Note_on_c, 3, 71, 72
5, 72864, Note_on_c, 3, 71, 0
5, 72864, Note_on_c, 3, 69, 82
5, 72869, Note_on_c, 3, 69, 0
5, 72870, Note_on_c, 3, 71, 85
5, 72875, Note_on_c, 3, 71, 0
5, 72876, Note_on_c, 3, 69, 85
5, 72881, Note_on_c, 3, 69, 0
5, 72882, Note_on_c, 3, 71, 85
5, 72887, Note_on_c, 3, 71, 0
5, 72888, Note_on_c, 3, 69, 85
5, 72893, Note_on_c, 3, 69, 0
5, 72894, Note_on_c, 3, 71, 85
5, 72899, Note_on_c, 3, 71, 0
5, 72900, Note_on_c, 3, 69, 78
5, 72905, Note_on_c, 3, 69, 0
5, 72906, Note_on_c, 3, 71, 85
5, 72911, Note_on_c, 3, 71, 0
5, 72912, Note_on_c, 3, 69, 85
5, 72917, Note_on_c, 3, 69, 0
5, 72918, Note_on_c, 3, 71, 85
5, 72923, Note_on_c, 3, 71, 0
5, 72924, Note_on_c, 3, 69, 85
5, 72929, Note_on_c, 3, 69, 0
5, 72930, Note_on_c, 3, 71, 85
5, 72935, Note_on_c, 3, 71, 0
5, 72936, Note_on_c, 3, 69, 85
5, 72941, Note_on_c, 3, 69, 0
5, 72942, Note_on_c, 3, 71, 52
5, 72947, Note_on_c, 3, 71, 0
5, 72948, Note_on_c, 3, 69, 85
5, 72958, Note_on_c, 3, 69, 0
5, 72960, Note_on_c, 3, 68, 68
5, 72965, Note_on_c, 3, 68, 0
5, 72966, Note_on_c, 3, 69, 85
5, 72971, Note_on_c, 3, 69, 0
5, 72972, Note_on_c, 3, 68, 68
5, 72977, Note_on_c, 3, 68, 0
5, 72978, Note_on_c, 3, 69, 85
5, 72983, Note_on_c, 3, 69, 0
5, 72984, Note_on_c, 3, 68, 72
5, 72989, Note_on_c, 3, 68, 0
5, 72990, Note_on_c, 3, 69, 85
5, 72995, Note_on_c, 3, 69, 0
5, 72996, Note_on_c, 3, 68, 79
5, 73001, Note_on_c, 3, 68, 0
5, 73002, Note_on_c, 3, 69, 85
5, 73007, Note_on_c, 3, 69, 0
5, 73008, Note_on_c, 3, 68, 84
5, 73013, Note_on_c, 3, 68, 0
5, 73014, Note_on_c, 3, 69, 85
5, 73019, Note_on_c, 3, 69, 0
5, 73020, Note_on_c, 3, 68, 89
5, 73025, Note_on_c, 3, 68, 0
5, 73026, Note_on_c, 3, 69, 85
5, 73031, Note_on_c, 3, 69, 0
5, 73032, Note_on_c, 3, 68, 74
5, 73037, Note_on_c, 3, 68, 0
5, 73038, Note_on_c, 3, 69, 85
5, 73043, Note_on_c, 3, 69, 0
5, 73044, Note_on_c, 3, 68, 70
5, 73054, Note_on_c, 3, 68, 0
5, 73056, Note_on_c, 3, 68, 62
5, 73069, Note_on_c, 3, 68, 0
5, 73072, Note_on_c, 3, 65, 85
5, 73085, Note_on_c, 3, 65, 0
5, 73088, Note_on_c, 3, 66, 66
5, 73101, Note_on_c, 3, 66, 0
5, 73104, Note_on_c, 3, 68, 62
5, 73117, Note_on_c, 3, 68, 0
5, 73120, Note_on_c, 3, 65, 85
5, 73133, Note_on_c, 3, 65, 0
5, 73136, Note_on_c, 3, 66, 72
5, 73149, Note_on_c, 3, 66, 0
5, 73152, Note_on_c, 3, 68, 72
5, 73192, Note_on_c, 3, 68, 0
5, 73200, Note_on_c, 3, 80, 84
5, 73280, Note_on_c, 3, 80, 0
5, 73296, Note_on_c, 3, 78, 72
5, 73376, Note_on_c, 3, 78, 0
5, 73392, Note_on_c, 3, 83, 85
5, 73472, Note_on_c, 3, 83, 0
5, 73488, Note_on_c, 3, 81, 85
5, 73568, Note_on_c, 3, 81, 0
5, 73584, Note_on_c, 3, 86, 89
5, 73664, Note_on_c, 3, 86, 0
5, 73680, Note_on_c, 3, 85, 70
5, 73710, Note_on_c, 3, 85, 0
5, 73716, Note_on_c, 3, 83, 85
5, 73726, Note_on_c, 3, 83, 0
5, 73728, Note_on_c, 3, 81, 85
5, 73848, Note_on_c, 3, 81, 0
5, 73872, Note_on_c, 3, 80, 62
5, 73902, Note_on_c, 3, 80, 0
5, 73908, Note_on_c, 3, 78, 68
5, 73918, Note_on_c, 3, 78, 0
5, 73920, Note_on_c, 3, 77, 85
5, 73960, Note_on_c, 3, 77, 0
5, 73968, Note_on_c, 3, 76, 85
5, 74028, Note_on_c, 3, 76, 0
5, 74052, Note_on_c, 3, 73, 62
5, 74064, Note_on_c, 3, 73, 0
5, 74064, Note_on_c, 3, 78, 62
5, 74094, Note_on_c, 3, 78, 0
5, 74100, Note_on_c, 3, 73, 53
5, 74110, Note_on_c, 3, 73, 0
5, 74112, Note_on_c, 3, 74, 85
5, 74125, Note_on_c, 3, 74, 0
5, 74128, Note_on_c, 3, 73, 60
5, 74141, Note_on_c, 3, 73, 0
5, 74144, Note_on_c, 3, 71, 85
5, 74157, Note_on_c, 3, 71, 0
5, 74160, Note_on_c, 3, 69, 85
5, 74173, Note_on_c, 3, 69, 0
5, 74176, Note_on_c, 3, 71, 85
5, 74189, Note_on_c, 3, 71, 0
5, 74192, Note_on_c, 3, 73, 68
5, 74205, Note_on_c, 3, 73, 0
5, 74208, Note_on_c, 3, 66, 85
5, 74247, Note_on_c, 3, 66, 0
5, 74256, Note_on_c, 3, 74, 85
5, 74314, Note_on_c, 3, 74, 0
5, 74320, Note_on_c, 3, 69, 85
5, 74333, Note_on_c, 3, 69, 0
5, 74336, Note_on_c, 3, 68, 42
5, 74349, Note_on_c, 3, 68, 0
5, 74352, Note_on_c, 3, 69, 85
5, 74365, Note_on_c, 3, 69, 0
5, 74368, Note_on_c, 3, 71, 81
5, 74381, Note_on_c, 3, 71, 0
5, 74384, Note_on_c, 3, 73, 62
5, 74397, Note_on_c, 3, 73, 0
5, 74400, Note_on_c, 3, 74, 72
5, 74413, Note_on_c, 3, 74, 0
5, 74416, Note_on_c, 3, 71, 85
5, 74429, Note_on_c, 3, 71, 0
5, 74432, Note_on_c, 3, 69, 85
5, 74445, Note_on_c, 3, 69, 0
5, 74448, Note_on_c, 3, 68, 64
5, 74477, Note_on_c, 3, 68, 0
5, 74484, Note_on_c, 3, 66, 61
5, 74494, Note_on_c, 3, 66, 0
5, 74496, Note_on_c, 3, 66, 72
5, 74652, Note_on_c, 3, 66, 0
5, 74724, Note_on_c, 3, 78, 70
5, 74736, Note_on_c, 3, 78, 0
5, 74736, Note_on_c, 3, 83, 85
5, 74772, Note_on_c, 3, 83, 0
5, 74772, Note_on_c, 3, 78, 85
5, 74784, Note_on_c, 3, 78, 0
5, 74784, Note_on_c, 3, 79, 85
5, 74800, Note_on_c, 3, 79, 0
5, 74800, Note_on_c, 3, 78, 85
5, 74816, Note_on_c, 3, 78, 0
5, 74816, Note_on_c, 3, 76, 85
5, 74832, Note_on_c, 3, 76, 0
5, 74832, Note_on_c, 3, 75, 85
5, 74848, Note_on_c, 3, 75, 0
5, 74848, Note_on_c, 3, 76, 85
5, 74864, Note_on_c, 3, 76, 0
5, 74864, Note_on_c, 3, 78, 85
5, 74880, Note_on_c, 3, 78, 0
5, 74880, Note_on_c, 3, 71, 85
5, 74896, Note_on_c, 3, 71, 0
5, 74896, Note_on_c, 3, 76, 85
5, 74912, Note_on_c, 3, 76, 0
5, 74912, Note_on_c, 3, 79, 85
5, 74928, Note_on_c, 3, 79, 0
5, 74928, Note_on_c, 3, 83, 85
5, 74944, Note_on_c, 3, 83, 0
5, 74944, Note_on_c, 3, 81, 85
5, 74960, Note_on_c, 3, 81, 0
5, 74960, Note_on_c, 3, 83, 85
5, 74976, Note_on_c, 3, 83, 0
5, 74976, Note_on_c, 3, 76, 85
5, 74992, Note_on_c, 3, 76, 0
5, 74992, Note_on_c, 3, 74, 85
5, 75008, Note_on_c, 3, 74, 0
5, 75008, Note_on_c, 3, 73, 85
5, 75024, Note_on_c, 3, 73, 0
5, 75024, Note_on_c, 3, 74, 85
5, 75088, Note_on_c, 3, 73, 85
5, 75096, Note_on_c, 3, 74, 0
5, 75104, Note_on_c, 3, 73, 0
5, 75104, Note_on_c, 3, 76, 85
5, 75120, Note_on_c, 3, 76, 0
5, 75120, Note_on_c, 3, 81, 85
5, 75156, Note_on_c, 3, 81, 0
5, 75156, Note_on_c, 3, 76, 85
5, 75168, Note_on_c, 3, 76, 0
5, 75168, Note_on_c, 3, 78, 85
5, 75184, Note_on_c, 3, 78, 0
5, 75184, Note_on_c, 3, 76, 85
5, 75200, Note_on_c, 3, 76, 0
5, 75200, Note_on_c, 3, 74, 85
5, 75216, Note_on_c, 3, 74, 0
5, 75216, Note_on_c, 3, 73, 85
5, 75232, Note_on_c, 3, 73, 0
5, 75232, Note_on_c, 3, 74, 85
5, 75248, Note_on_c, 3, 74, 0
5, 75248, Note_on_c, 3, 76, 85
5, 75264, Note_on_c, 3, 76, 0
5, 75264, Note_on_c, 3, 69, 85
5, 75300, Note_on_c, 3, 69, 0
5, 75300, Note_on_c, 3, 68, 85
5, 75312, Note_on_c, 3, 68, 0
5, 75312, Note_on_c, 3, 66, 85
5, 75328, Note_on_c, 3, 66, 0
5, 75328, Note_on_c, 3, 69, 85
5, 75344, Note_on_c, 3, 69, 0
5, 75344, Note_on_c, 3, 74, 85
5, 75360, Note_on_c, 3, 74, 0
5, 75360, Note_on_c, 3, 74, 85
5, 75396, Note_on_c, 3, 74, 0
5, 75396, Note_on_c, 3, 73, 85
5, 75400, Note_on_c, 3, 73, 0
5, 75400, Note_on_c, 3, 71, 85
5, 75404, Note_on_c, 3, 71, 0
5, 75404, Note_on_c, 3, 69, 85
5, 75408, Note_on_c, 3, 69, 0
5, 75408, Note_on_c, 3, 68, 85
5, 75424, Note_on_c, 3, 68, 0
5, 75424, Note_on_c, 3, 71, 85
5, 75440, Note_on_c, 3, 71, 0
5, 75440, Note_on_c, 3, 76, 85
5, 75456, Note_on_c, 3, 76, 0
5, 75456, Note_on_c, 3, 76, 85
5, 75492, Note_on_c, 3, 76, 0
5, 75492, Note_on_c, 3, 74, 85
5, 75496, Note_on_c, 3, 74, 0
5, 75496, Note_on_c, 3, 73, 85
5, 75500, Note_on_c, 3, 73, 0
5, 75500, Note_on_c, 3, 71, 85
5, 75504, Note_on_c, 3, 71, 0
5, 75504, Note_on_c, 3, 69, 85
5, 75520, Note_on_c, 3, 69, 0
5, 75520, Note_on_c, 3, 73, 85
5, 75536, Note_on_c, 3, 73, 0
5, 75536, Note_on_c, 3, 78, 85
5, 75552, Note_on_c, 3, 78, 0
5, 75552, Note_on_c, 3, 78, 85
5, 75588, Note_on_c, 3, 78, 0
5, 75588, Note_on_c, 3, 76, 85
5, 75592, Note_on_c, 3, 76, 0
5, 75592, Note_on_c, 3, 74, 85
5, 75596, Note_on_c, 3, 74, 0
5, 75596, Note_on_c, 3, 73, 85
5, 75600, Note_on_c, 3, 73, 0
5, 75600, Note_on_c, 3, 71, 85
5, 75616, Note_on_c, 3, 71, 0
5, 75616, Note_on_c, 3, 74, 85
5, 75632, Note_on_c, 3, 74, 0
5, 75632, Note_on_c, 3, 80, 85
5, 75648, Note_on_c, 3, 80, 0
5, 75648, Note_on_c, 3, 80, 85
5, 75684, Note_on_c, 3, 80, 0
5, 75684, Note_on_c, 3, 78, 85
5, 75688, Note_on_c, 3, 78, 0
5, 75688, Note_on_c, 3, 76, 85
5, 75692, Note_on_c, 3, 76, 0
5, 75692, Note_on_c, 3, 74, 85
5, 75696, Note_on_c, 3, 74, 0
5, 75696, Note_on_c, 3, 73, 85
5, 75712, Note_on_c, 3, 73, 0
5, 75712, Note_on_c, 3, 76, 85
5, 75728, Note_on_c, 3, 76, 0
5, 75728, Note_on_c, 3, 81, 85
5, 75744, Note_on_c, 3, 81, 0
5, 75744, Note_on_c, 3, 81, 85
5, 75780, Note_on_c, 3, 81, 0
5, 75780, Note_on_c, 3, 79, 85
5, 75784, Note_on_c, 3, 79, 0
5, 75784, Note_on_c, 3, 78, 85
5, 75788, Note_on_c, 3, 78, 0
5, 75788, Note_on_c, 3, 76, 85
5, 75792, Note_on_c, 3, 76, 0
5, 75792, Note_on_c, 3, 74, 85
5, 75808, Note_on_c, 3, 74, 0
5, 75808, Note_on_c, 3, 78, 85
5, 75824, Note_on_c, 3, 78, 0
5, 75824, Note_on_c, 3, 83, 85
5, 75840, Note_on_c, 3, 83, 0
5, 75840, Note_on_c, 3, 76, 85
5, 75856, Note_on_c, 3, 76, 0
5, 75856, Note_on_c, 3, 78, 85
5, 75872, Note_on_c, 3, 78, 0
5, 75872, Note_on_c, 3, 80, 85
5, 75888, Note_on_c, 3, 80, 0
5, 75888, Note_on_c, 3, 81, 85
5, 76032, Note_on_c, 3, 81, 0
5, 76032, Note_on_c, 3, 81, 85
5, 76128, Note_on_c, 3, 81, 0
5, 76128, Note_on_c, 3, 81, 85
5, 76144, Note_on_c, 3, 81, 0
5, 76144, Note_on_c, 3, 80, 85
5, 76160, Note_on_c, 3, 80, 0
5, 76160, Note_on_c, 3, 78, 85
5, 76176, Note_on_c, 3, 78, 0
5, 76176, Note_on_c, 3, 83, 85
5, 76192, Note_on_c, 3, 83, 0
5, 76192, Note_on_c, 3, 85, 85
5, 76208, Note_on_c, 3, 85, 0
5, 76208, Note_on_c, 3, 81, 85
5, 76224, Note_on_c, 3, 81, 0
5, 76224, Note_on_c, 3, 80, 85
5, 76240, Note_on_c, 3, 80, 0
5, 76240, Note_on_c, 3, 78, 85
5, 76256, Note_on_c, 3, 78, 0
5, 76256, Note_on_c, 3, 76, 85
5, 76272, Note_on_c, 3, 76, 0
5, 76272, Note_on_c, 3, 81, 85
5, 76308, Note_on_c, 3, 81, 0
5, 76308, Note_on_c, 3, 74, 85
5, 76320, Note_on_c, 3, 74, 0
5, 76320, Note_on_c, 3, 73, 85
5, 76344, Note_on_c, 3, 73, 0
5, 76368, Note_on_c, 3, 71, 85
5, 76374, Note_on_c, 3, 71, 0
5, 76374, Note_on_c, 3, 73, 85
5, 76380, Note_on_c, 3, 73, 0
5, 76380, Note_on_c, 3, 71, 85
5, 76386, Note_on_c, 3, 71, 0
5, 76386, Note_on_c, 3, 73, 85
5, 76392, Note_on_c, 3, 73, 0
5, 76392, Note_on_c, 3, 71, 85
5, 76398, Note_on_c, 3, 71, 0
5, 76416, Note_on_c, 3, 69, 85
5, 76432, Note_on_c, 3, 69, 0
5, 76432, Note_on_c, 3, 73, 85
5, 76448, Note_on_c, 3, 73, 0
5, 76448, Note_on_c, 3, 76, 85
5, 76464, Note_on_c, 3, 76, 0
5, 76464, Note_on_c, 3, 76, 85
5, 76480, Note_on_c, 3, 76, 0
5, 76480, Note_on_c, 3, 74, 85
5, 76496, Note_on_c, 3, 74, 0
5, 76496, Note_on_c, 3, 76, 85
5, 76512, Note_on_c, 3, 76, 0
5, 76512, Note_on_c, 3, 64, 46
5, 76525, Note_on_c, 3, 64, 0
5, 76528, Note_on_c, 3, 69, 85
5, 76541, Note_on_c, 3, 69, 0
5, 76544, Note_on_c, 3, 73, 55
5, 76557, Note_on_c, 3, 73, 0
5, 76560, Note_on_c, 3, 73, 62
5, 76573, Note_on_c, 3, 73, 0
5, 76576, Note_on_c, 3, 71, 84
5, 76589, Note_on_c, 3, 71, 0
5, 76592, Note_on_c, 3, 73, 54
5, 76605, Note_on_c, 3, 73, 0
5, 76608, Note_on_c, 3, 66, 66
5, 76621, Note_on_c, 3, 66, 0
5, 76624, Note_on_c, 3, 67, 79
5, 76637, Note_on_c, 3, 67, 0
5, 76640, Note_on_c, 3, 69, 85
5, 76653, Note_on_c, 3, 69, 0
5, 76656, Note_on_c, 3, 71, 85
5, 76669, Note_on_c, 3, 71, 0
5, 76672, Note_on_c, 3, 73, 49
5, 76685, Note_on_c, 3, 73, 0
5, 76688, Note_on_c, 3, 69, 69
5, 76701, Note_on_c, 3, 69, 0
5, 76704, Note_on_c, 3, 62, 79
5, 76717, Note_on_c, 3, 62, 0
5, 76720, Note_on_c, 3, 65, 85
5, 76733, Note_on_c, 3, 65, 0
5, 76736, Note_on_c, 3, 71, 85
5, 76749, Note_on_c, 3, 71, 0
5, 76752, Note_on_c, 3, 71, 82
5, 76765, Note_on_c, 3, 71, 0
5, 76768, Note_on_c, 3, 69, 62
5, 76781, Note_on_c, 3, 69, 0
5, 76784, Note_on_c, 3, 71, 68
5, 76797, Note_on_c, 3, 71, 0
5, 76800, Note_on_c, 3, 64, 84
5, 76813, Note_on_c, 3, 64, 0
5, 76816, Note_on_c, 3, 69, 85
5, 76829, Note_on_c, 3, 69, 0
5, 76832, Note_on_c, 3, 73, 62
5, 76845, Note_on_c, 3, 73, 0
5, 76848, Note_on_c, 3, 73, 59
5, 76861, Note_on_c, 3, 73, 0
5, 76864, Note_on_c, 3, 71, 74
5, 76877, Note_on_c, 3, 71, 0
5, 76880, Note_on_c, 3, 73, 53
5, 76893, Note_on_c, 3, 73, 0
5, 76896, Note_on_c, 3, 62, 79
5, 76909, Note_on_c, 3, 62, 0
5, 76912, Note_on_c, 3, 66, 54
5, 76925, Note_on_c, 3, 66, 0
5, 76928, Note_on_c, 3, 71, 71
5, 76941, Note_on_c, 3, 71, 0
5, 76944, Note_on_c, 3, 71, 66
5, 76957, Note_on_c, 3, 71, 0
5, 76960, Note_on_c, 3, 68, 49
5, 76973, Note_on_c, 3, 68, 0
5, 76976, Note_on_c, 3, 69, 85
5, 76989, Note_on_c, 3, 69, 0
5, 76992, Note_on_c, 3, 71, 76
5, 77005, Note_on_c, 3, 71, 0
5, 77008, Note_on_c, 3, 68, 46
5, 77021, Note_on_c, 3, 68, 0
5, 77024, Note_on_c, 3, 69, 81
5, 77037, Note_on_c, 3, 69, 0
5, 77040, Note_on_c, 3, 64, 62
5, 77053, Note_on_c, 3, 64, 0
5, 77056, Note_on_c, 3, 69, 79
5, 77069, Note_on_c, 3, 69, 0
5, 77072, Note_on_c, 3, 68, 53
5, 77085, Note_on_c, 3, 68, 0
5, 77088, Note_on_c, 3, 69, 85
5, 77107, Note_on_c, 3, 69, 0
5, 77316, Note_on_c, 3, 71, 85
5, 77328, Note_on_c, 3, 71, 0
5, 77328, Note_on_c, 3, 76, 85
5, 77364, Note_on_c, 3, 76, 0
5, 77364, Note_on_c, 3, 71, 72
5, 77376, Note_on_c, 3, 71, 0
5, 77376, Note_on_c, 3, 72, 61
5, 77392, Note_on_c, 3, 72, 0
5, 77392, Note_on_c, 3, 71, 70
5, 77408, Note_on_c, 3, 71, 0
5, 77408, Note_on_c, 3, 69, 85
5, 77424, Note_on_c, 3, 69, 0
5, 77424, Note_on_c, 3, 67, 84
5, 77440, Note_on_c, 3, 67, 0
5, 77440, Note_on_c, 3, 69, 76
5, 77456, Note_on_c, 3, 69, 0
5, 77456, Note_on_c, 3, 71, 85
5, 77472, Note_on_c, 3, 71, 0
5, 77472, Note_on_c, 3, 64, 85
5, 77496, Note_on_c, 3, 64, 0
5, 77700, Note_on_c, 3, 66, 62
5, 77712, Note_on_c, 3, 66, 0
5, 77712, Note_on_c, 3, 71, 52
5, 77748, Note_on_c, 3, 71, 0
5, 77748, Note_on_c, 3, 66, 66
5, 77760, Note_on_c, 3, 66, 0
5, 77760, Note_on_c, 3, 67, 79
5, 77776, Note_on_c, 3, 67, 0
5, 77776, Note_on_c, 3, 66, 52
5, 77792, Note_on_c, 3, 66, 0
5, 77792, Note_on_c, 3, 64, 76
5, 77808, Note_on_c, 3, 64, 0
5, 77808, Note_on_c, 3, 62, 85
5, 77824, Note_on_c, 3, 62, 0
5, 77824, Note_on_c, 3, 64, 85
5, 77840, Note_on_c, 3, 64, 0
5, 77840, Note_on_c, 3, 66, 62
5, 77856, Note_on_c, 3, 66, 0
5, 77856, Note_on_c, 3, 59, 62
5, 77875, Note_on_c, 3, 59, 0
5, 79236, Note_on_c, 3, 69, 85
5, 79246, Note_on_c, 3, 69, 0
5, 79248, Note_on_c, 3, 73, 66
5, 79277, Note_on_c, 3, 73, 0
5, 79284, Note_on_c, 3, 69, 85
5, 79294, Note_on_c, 3, 69, 0
5, 79296, Note_on_c, 3, 66, 70
5, 79335, Note_on_c, 3, 66, 0
5, 79428, Note_on_c, 3, 67, 74
5, 79438, Note_on_c, 3, 67, 0
5, 79440, Note_on_c, 3, 71, 85
5, 79469, Note_on_c, 3, 71, 0
5, 79476, Note_on_c, 3, 67, 85
5, 79486, Note_on_c, 3, 67, 0
5, 79488, Note_on_c, 3, 64, 70
5, 79527, Note_on_c, 3, 64, 0
5, 79620, Note_on_c, 3, 69, 66
5, 79630, Note_on_c, 3, 69, 0
5, 79632, Note_on_c, 3, 74, 74
5, 79661, Note_on_c, 3, 74, 0
5, 79668, Note_on_c, 3, 69, 85
5, 79678, Note_on_c, 3, 69, 0
5, 79680, Note_on_c, 3, 71, 74
5, 79693, Note_on_c, 3, 71, 0
5, 79696, Note_on_c, 3, 69, 85
5, 79709, Note_on_c, 3, 69, 0
5, 79712, Note_on_c, 3, 67, 85
5, 79725, Note_on_c, 3, 67, 0
5, 79728, Note_on_c, 3, 66, 43
5, 79741, Note_on_c, 3, 66, 0
5, 79744, Note_on_c, 3, 67, 85
5, 79757, Note_on_c, 3, 67, 0
5, 79760, Note_on_c, 3, 69, 85
5, 79773, Note_on_c, 3, 69, 0
5, 79776, Note_on_c, 3, 62, 72
5, 79815, Note_on_c, 3, 62, 0
5, 80004, Note_on_c, 3, 64, 72
5, 80014, Note_on_c, 3, 64, 0
5, 80016, Note_on_c, 3, 69, 72
5, 80045, Note_on_c, 3, 69, 0
5, 80052, Note_on_c, 3, 64, 82
5, 80062, Note_on_c, 3, 64, 0
5, 80064, Note_on_c, 3, 66, 49
5, 80077, Note_on_c, 3, 66, 0
5, 80080, Note_on_c, 3, 64, 70
5, 80093, Note_on_c, 3, 64, 0
5, 80096, Note_on_c, 3, 62, 85
5, 80109, Note_on_c, 3, 62, 0
5, 80112, Note_on_c, 3, 61, 37
5, 80125, Note_on_c, 3, 61, 0
5, 80128, Note_on_c, 3, 62, 85
5, 80141, Note_on_c, 3, 62, 0
5, 80144, Note_on_c, 3, 64, 85
5, 80157, Note_on_c, 3, 64, 0
5, 80160, Note_on_c, 3, 57, 77
5, 80199, Note_on_c, 3, 57, 0
5, 80352, Note_on_c, 3, 73, 59
5, 80365, Note_on_c, 3, 73, 0
5, 80368, Note_on_c, 3, 69, 85
5, 80381, Note_on_c, 3, 69, 0
5, 80384, Note_on_c, 3, 71, 85
5, 80397, Note_on_c, 3, 71, 0
5, 80400, Note_on_c, 3, 73, 55
5, 80413, Note_on_c, 3, 73, 0
5, 80416, Note_on_c, 3, 69, 62
5, 80429, Note_on_c, 3, 69, 0
5, 80432, Note_on_c, 3, 71, 85
5, 80445, Note_on_c, 3, 71, 0
5, 80448, Note_on_c, 3, 73, 67
5, 80526, Note_on_c, 3, 73, 0
5, 80544, Note_on_c, 3, 73, 46
5, 80557, Note_on_c, 3, 73, 0
5, 80560, Note_on_c, 3, 76, 81
5, 80573, Note_on_c, 3, 76, 0
5, 80576, Note_on_c, 3, 74, 85
5, 80589, Note_on_c, 3, 74, 0
5, 80592, Note_on_c, 3, 73, 55
5, 80605, Note_on_c, 3, 73, 0
5, 80608, Note_on_c, 3, 76, 72
5, 80621, Note_on_c, 3, 76, 0
5, 80624, Note_on_c, 3, 74, 85
5, 80637, Note_on_c, 3, 74, 0
5, 80640, Note_on_c, 3, 73, 66
5, 80659, Note_on_c, 3, 73, 0
5, 80820, Note_on_c, 3, 71, 85
5, 80830, Note_on_c, 3, 71, 0
5, 80832, Note_on_c, 3, 76, 85
5, 80890, Note_on_c, 3, 76, 0
5, 80916, Note_on_c, 3, 73, 59
5, 80926, Note_on_c, 3, 73, 0
5, 80928, Note_on_c, 3, 74, 85
5, 80986, Note_on_c, 3, 74, 0
5, 81012, Note_on_c, 3, 76, 76
5, 81022, Note_on_c, 3, 76, 0
5, 81024, Note_on_c, 3, 73, 59
5, 81082, Note_on_c, 3, 73, 0
5, 81108, Note_on_c, 3, 73, 66
5, 81118, Note_on_c, 3, 73, 0
5, 81120, Note_on_c, 3, 74, 85
5, 81133, Note_on_c, 3, 74, 0
5, 81136, Note_on_c, 3, 73, 53
5, 81149, Note_on_c, 3, 73, 0
5, 81152, Note_on_c, 3, 71, 64
5, 81165, Note_on_c, 3, 71, 0
5, 81168, Note_on_c, 3, 69, 85
5, 81181, Note_on_c, 3, 69, 0
5, 81184, Note_on_c, 3, 68, 66
5, 81197, Note_on_c, 3, 68, 0
5, 81200, Note_on_c, 3, 66, 67
5, 81213, Note_on_c, 3, 66, 0
5, 81216, Note_on_c, 3, 64, 59
5, 81245, Note_on_c, 3, 64, 0
5, 81252, Note_on_c, 3, 73, 55
5, 81262, Note_on_c, 3, 73, 0
5, 81264, Note_on_c, 3, 80, 71
5, 81322, Note_on_c, 3, 80, 0
5, 81328, Note_on_c, 3, 78, 62
5, 81341, Note_on_c, 3, 78, 0
5, 81344, Note_on_c, 3, 77, 85
5, 81357, Note_on_c, 3, 77, 0
5, 81360, Note_on_c, 3, 78, 66
5, 81373, Note_on_c, 3, 78, 0
5, 81376, Note_on_c, 3, 80, 64
5, 81389, Note_on_c, 3, 80, 0
5, 81392, Note_on_c, 3, 81, 85
5, 81405, Note_on_c, 3, 81, 0
5, 81408, Note_on_c, 3, 83, 85
5, 81486, Note_on_c, 3, 83, 0
5, 81504, Note_on_c, 3, 83, 85
5, 81517, Note_on_c, 3, 83, 0
5, 81520, Note_on_c, 3, 81, 85
5, 81533, Note_on_c, 3, 81, 0
5, 81536, Note_on_c, 3, 80, 62
5, 81549, Note_on_c, 3, 80, 0
5, 81552, Note_on_c, 3, 81, 84
5, 81565, Note_on_c, 3, 81, 0
5, 81568, Note_on_c, 3, 83, 85
5, 81581, Note_on_c, 3, 83, 0
5, 81584, Note_on_c, 3, 85, 74
5, 81597, Note_on_c, 3, 85, 0
5, 81600, Note_on_c, 3, 86, 81
5, 81678, Note_on_c, 3, 86, 0
5, 81696, Note_on_c, 3, 86, 65
5, 81709, Note_on_c, 3, 86, 0
5, 81712, Note_on_c, 3, 85, 55
5, 81725, Note_on_c, 3, 85, 0
5, 81728, Note_on_c, 3, 83, 81
5, 81741, Note_on_c, 3, 83, 0
5, 81744, Note_on_c, 3, 85, 57
5, 81757, Note_on_c, 3, 85, 0
5, 81760, Note_on_c, 3, 86, 85
5, 81773, Note_on_c, 3, 86, 0
5, 81776, Note_on_c, 3, 88, 85
5, 81789, Note_on_c, 3, 88, 0
5, 81792, Note_on_c, 3, 82, 49
5, 81831, Note_on_c, 3, 82, 0
5, 81840, Note_on_c, 3, 83, 70
5, 81898, Note_on_c, 3, 83, 0
5, 81904, Note_on_c, 3, 81, 85
5, 81917, Note_on_c, 3, 81, 0
5, 81920, Note_on_c, 3, 80, 59
5, 81933, Note_on_c, 3, 80, 0
5, 81936, Note_on_c, 3, 81, 77
5, 81949, Note_on_c, 3, 81, 0
5, 81952, Note_on_c, 3, 83, 71
5, 81965, Note_on_c, 3, 83, 0
5, 81968, Note_on_c, 3, 84, 85
5, 81981, Note_on_c, 3, 84, 0
5, 81984, Note_on_c, 3, 75, 69
5, 82023, Note_on_c, 3, 75, 0
5, 82032, Note_on_c, 3, 76, 85
5, 82090, Note_on_c, 3, 76, 0
5, 82096, Note_on_c, 3, 78, 59
5, 82109, Note_on_c, 3, 78, 0
5, 82112, Note_on_c, 3, 76, 85
5, 82125, Note_on_c, 3, 76, 0
5, 82128, Note_on_c, 3, 75, 66
5, 82141, Note_on_c, 3, 75, 0
5, 82144, Note_on_c, 3, 73, 55
5, 82157, Note_on_c, 3, 73, 0
5, 82160, Note_on_c, 3, 71, 85
5, 82173, Note_on_c, 3, 71, 0
5, 82176, Note_on_c, 3, 79, 85
5, 82254, Note_on_c, 3, 79, 0
5, 82272, Note_on_c, 3, 79, 70
5, 82285, Note_on_c, 3, 79, 0
5, 82288, Note_on_c, 3, 66, 56
5, 82301, Note_on_c, 3, 66, 0
5, 82304, Note_on_c, 3, 67, 85
5, 82317, Note_on_c, 3, 67, 0
5, 82320, Note_on_c, 3, 69, 85
5, 82333, Note_on_c, 3, 69, 0
5, 82336, Note_on_c, 3, 71, 85
5, 82349, Note_on_c, 3, 71, 0
5, 82352, Note_on_c, 3, 72, 85
5, 82365, Note_on_c, 3, 72, 0
5, 82368, Note_on_c, 3, 74, 65
5, 82446, Note_on_c, 3, 74, 0
5, 82464, Note_on_c, 3, 74, 85
5, 82477, Note_on_c, 3, 74, 0
5, 82480, Note_on_c, 3, 72, 66
5, 82493, Note_on_c, 3, 72, 0
5, 82496, Note_on_c, 3, 71, 85
5, 82509, Note_on_c, 3, 71, 0
5, 82512, Note_on_c, 3, 72, 85
5, 82570, Note_on_c, 3, 72, 0
5, 82576, Note_on_c, 3, 71, 85
5, 82589, Note_on_c, 3, 71, 0
5, 82592, Note_on_c, 3, 69, 82
5, 82605, Note_on_c, 3, 69, 0
5, 82608, Note_on_c, 3, 71, 64
5, 82621, Note_on_c, 3, 71, 0
5, 82624, Note_on_c, 3, 72, 79
5, 82637, Note_on_c, 3, 72, 0
5, 82640, Note_on_c, 3, 71, 85
5, 82653, Note_on_c, 3, 71, 0
5, 82656, Note_on_c, 3, 69, 85
5, 82695, Note_on_c, 3, 69, 0
5, 82704, Note_on_c, 3, 81, 85
5, 82762, Note_on_c, 3, 81, 0
5, 82768, Note_on_c, 3, 79, 81
5, 82781, Note_on_c, 3, 79, 0
5, 82784, Note_on_c, 3, 78, 46
5, 82797, Note_on_c, 3, 78, 0
5, 82800, Note_on_c, 3, 79, 85
5, 82813, Note_on_c, 3, 79, 0
5, 82816, Note_on_c, 3, 81, 79
5, 82829, Note_on_c, 3, 81, 0
5, 82832, Note_on_c, 3, 79, 76
5, 82845, Note_on_c, 3, 79, 0
5, 82848, Note_on_c, 3, 78, 62
5, 82926, Note_on_c, 3, 78, 0
5, 82944, Note_on_c, 3, 78, 61
5, 82957, Note_on_c, 3, 78, 0
5, 82960, Note_on_c, 3, 76, 72
5, 82973, Note_on_c, 3, 76, 0
5, 82976, Note_on_c, 3, 74, 77
5, 82989, Note_on_c, 3, 74, 0
5, 82992, Note_on_c, 3, 76, 77
5, 83050, Note_on_c, 3, 76, 0
5, 83056, Note_on_c, 3, 78, 52
5, 83069, Note_on_c, 3, 78, 0
5, 83072, Note_on_c, 3, 76, 77
5, 83085, Note_on_c, 3, 76, 0
5, 83088, Note_on_c, 3, 74, 57
5, 83101, Note_on_c, 3, 74, 0
5, 83104, Note_on_c, 3, 73, 49
5, 83117, Note_on_c, 3, 73, 0
5, 83120, Note_on_c, 3, 71, 85
5, 83133, Note_on_c, 3, 71, 0
5, 83136, Note_on_c, 3, 70, 64
5, 83149, Note_on_c, 3, 70, 0
5, 83152, Note_on_c, 3, 68, 59
5, 83165, Note_on_c, 3, 68, 0
5, 83168, Note_on_c, 3, 70, 57
5, 83181, Note_on_c, 3, 70, 0
5, 83184, Note_on_c, 3, 71, 82
5, 83197, Note_on_c, 3, 71, 0
5, 83200, Note_on_c, 3, 73, 55
5, 83213, Note_on_c, 3, 73, 0
5, 83216, Note_on_c, 3, 74, 68
5, 83229, Note_on_c, 3, 74, 0
5, 83232, Note_on_c, 3, 76, 76
5, 83245, Note_on_c, 3, 76, 0
5, 83248, Note_on_c, 3, 78, 55
5, 83261, Note_on_c, 3, 78, 0
5, 83264, Note_on_c, 3, 76, 85
5, 83277, Note_on_c, 3, 76, 0
5, 83280, Note_on_c, 3, 74, 66
5, 83293, Note_on_c, 3, 74, 0
5, 83296, Note_on_c, 3, 73, 54
5, 83309, Note_on_c, 3, 73, 0
5, 83312, Note_on_c, 3, 71, 81
5, 83325, Note_on_c, 3, 71, 0
5, 83328, Note_on_c, 3, 70, 46
5, 83386, Note_on_c, 3, 70, 0
5, 83392, Note_on_c, 3, 71, 85
5, 83405, Note_on_c, 3, 71, 0
5, 83408, Note_on_c, 3, 73, 57
5, 83421, Note_on_c, 3, 73, 0
5, 83424, Note_on_c, 3, 71, 85
5, 83437, Note_on_c, 3, 71, 0
5, 83440, Note_on_c, 3, 73, 54
5, 83453, Note_on_c, 3, 73, 0
5, 83456, Note_on_c, 3, 74, 74
5, 83469, Note_on_c, 3, 74, 0
5, 83472, Note_on_c, 3, 73, 59
5, 83485, Note_on_c, 3, 73, 0
5, 83488, Note_on_c, 3, 74, 85
5, 83501, Note_on_c, 3, 74, 0
5, 83504, Note_on_c, 3, 76, 65
5, 83517, Note_on_c, 3, 76, 0
5, 83520, Note_on_c, 3, 70, 64
5, 83549, Note_on_c, 3, 70, 0
5, 83556, Note_on_c, 3, 71, 81
5, 83566, Note_on_c, 3, 71, 0
5, 83568, Note_on_c, 3, 73, 55
5, 83581, Note_on_c, 3, 73, 0
5, 83584, Note_on_c, 3, 74, 76
5, 83597, Note_on_c, 3, 74, 0
5, 83600, Note_on_c, 3, 76, 77
5, 83613, Note_on_c, 3, 76, 0
5, 83616, Note_on_c, 3, 78, 66
5, 83629, Note_on_c, 3, 78, 0
5, 83632, Note_on_c, 3, 70, 57
5, 83645, Note_on_c, 3, 70, 0
5, 83648, Note_on_c, 3, 71, 85
5, 83661, Note_on_c, 3, 71, 0
5, 83664, Note_on_c, 3, 78, 47
5, 83693, Note_on_c, 3, 78, 0
5, 83700, Note_on_c, 3, 73, 67
5, 83710, Note_on_c, 3, 73, 0
5, 83712, Note_on_c, 3, 74, 85
5, 83725, Note_on_c, 3, 74, 0
5, 83728, Note_on_c, 3, 73, 50
5, 83741, Note_on_c, 3, 73, 0
5, 83744, Note_on_c, 3, 71, 79
5, 83757, Note_on_c, 3, 71, 0
5, 83760, Note_on_c, 3, 70, 59
5, 83773, Note_on_c, 3, 70, 0
5, 83776, Note_on_c, 3, 71, 85
5, 83789, Note_on_c, 3, 71, 0
5, 83792, Note_on_c, 3, 73, 68
5, 83805, Note_on_c, 3, 73, 0
5, 83808, Note_on_c, 3, 66, 55
5, 83886, Note_on_c, 3, 66, 0
5, 83904, Note_on_c, 3, 68, 62
5, 83982, Note_on_c, 3, 68, 0
5, 84000, Note_on_c, 3, 70, 62
5, 84078, Note_on_c, 3, 70, 0
5, 84096, Note_on_c, 3, 71, 70
5, 84174, Note_on_c, 3, 71, 0
5, 84192, Note_on_c, 3, 73, 65
5, 84270, Note_on_c, 3, 73, 0
5, 84288, Note_on_c, 3, 74, 85
5, 84317, Note_on_c, 3, 74, 0
5, 84324, Note_on_c, 3, 76, 85
5, 84334, Note_on_c, 3, 76, 0
5, 84336, Note_on_c, 3, 78, 62
5, 84365, Note_on_c, 3, 78, 0
5, 84372, Note_on_c, 3, 79, 85
5, 84382, Note_on_c, 3, 79, 0
5, 84384, Note_on_c, 3, 71, 85
5, 84403, Note_on_c, 3, 71, 0
5, 84432, Note_on_c, 3, 73, 59
5, 84437, Note_on_c, 3, 73, 0
5, 84438, Note_on_c, 3, 74, 59
5, 84443, Note_on_c, 3, 74, 0
5, 84444, Note_on_c, 3, 73, 52
5, 84449, Note_on_c, 3, 73, 0
5, 84450, Note_on_c, 3, 74, 66
5, 84455, Note_on_c, 3, 74, 0
5, 84480, Note_on_c, 3, 71, 85
5, 84519, Note_on_c, 3, 71, 0
5, 84612, Note_on_c, 3, 69, 95
5, 84622, Note_on_c, 3, 69, 0
5, 84624, Note_on_c, 3, 74, 95
5, 84655, Note_on_c, 3, 74, 0
5, 84660, Note_on_c, 3, 69, 95
5, 84670, Note_on_c, 3, 69, 0
5, 84672, Note_on_c, 3, 71, 95
5, 84686, Note_on_c, 3, 71, 0
5, 84688, Note_on_c, 3, 69, 95
5, 84702, Note_on_c, 3, 69, 0
5, 84704, Note_on_c, 3, 67, 95
5, 84718, Note_on_c, 3, 67, 0
5, 84720, Note_on_c, 3, 66, 95
5, 84734, Note_on_c, 3, 66, 0
5, 84736, Note_on_c, 3, 67, 95
5, 84750, Note_on_c, 3, 67, 0
5, 84752, Note_on_c, 3, 69, 95
5, 84766, Note_on_c, 3, 69, 0
5, 84768, Note_on_c, 3, 62, 95
5, 84782, Note_on_c, 3, 62, 0
5, 84816, Note_on_c, 3, 61, 95
5, 84837, Note_on_c, 3, 61, 0
5, 84864, Note_on_c, 3, 62, 95
5, 84885, Note_on_c, 3, 62, 0
5, 84912, Note_on_c, 3, 64, 95
5, 84933, Note_on_c, 3, 64, 0
5, 84960, Note_on_c, 3, 66, 95
5, 84974, Note_on_c, 3, 66, 0
5, 84976, Note_on_c, 3, 69, 95
5, 84990, Note_on_c, 3, 69, 0
5, 84992, Note_on_c, 3, 74, 95
5, 85006, Note_on_c, 3, 74, 0
5, 85008, Note_on_c, 3, 74, 95
5, 85022, Note_on_c, 3, 74, 0
5, 85024, Note_on_c, 3, 73, 95
5, 85038, Note_on_c, 3, 73, 0
5, 85040, Note_on_c, 3, 74, 95
5, 85054, Note_on_c, 3, 74, 0
5, 85056, Note_on_c, 3, 71, 95
5, 85070, Note_on_c, 3, 71, 0
5, 85072, Note_on_c, 3, 76, 95
5, 85086, Note_on_c, 3, 76, 0
5, 85088, Note_on_c, 3, 74, 95
5, 85102, Note_on_c, 3, 74, 0
5, 85104, Note_on_c, 3, 73, 95
5, 85118, Note_on_c, 3, 73, 0
5, 85120, Note_on_c, 3, 78, 95
5, 85134, Note_on_c, 3, 78, 0
5, 85136, Note_on_c, 3, 76, 95
5, 85150, Note_on_c, 3, 76, 0
5, 85152, Note_on_c, 3, 74, 95
5, 85173, Note_on_c, 3, 74, 0
5, 85200, Note_on_c, 3, 69, 95
5, 85221, Note_on_c, 3, 69, 0
5, 85248, Note_on_c, 3, 71, 95
5, 85269, Note_on_c, 3, 71, 0
5, 85296, Note_on_c, 3, 73, 95
5, 85317, Note_on_c, 3, 73, 0
5, 85344, Note_on_c, 3, 74, 95
5, 85358, Note_on_c, 3, 74, 0
5, 85360, Note_on_c, 3, 78, 95
5, 85374, Note_on_c, 3, 78, 0
5, 85376, Note_on_c, 3, 76, 95
5, 85390, Note_on_c, 3, 76, 0
5, 85392, Note_on_c, 3, 74, 95
5, 85406, Note_on_c, 3, 74, 0
5, 85408, Note_on_c, 3, 78, 95
5, 85422, Note_on_c, 3, 78, 0
5, 85424, Note_on_c, 3, 76, 95
5, 85438, Note_on_c, 3, 76, 0
5, 85440, Note_on_c, 3, 74, 95
5, 85512, Note_on_c, 3, 74, 0
5, 85524, Note_on_c, 3, 73, 95
5, 85534, Note_on_c, 3, 73, 0
5, 85536, Note_on_c, 3, 74, 95
5, 85536, Note_on_c, 3, 74, 95
5, 85550, Note_on_c, 3, 74, 0
5, 85550, Note_on_c, 3, 74, 0
5, 85552, Note_on_c, 3, 76, 95
5, 85566, Note_on_c, 3, 76, 0
5, 85568, Note_on_c, 3, 78, 95
5, 85582, Note_on_c, 3, 78, 0
5, 85584, Note_on_c, 3, 76, 95
5, 85598, Note_on_c, 3, 76, 0
5, 85600, Note_on_c, 3, 78, 95
5, 85614, Note_on_c, 3, 78, 0
5, 85616, Note_on_c, 3, 79, 95
5, 85630, Note_on_c, 3, 79, 0
5, 85632, Note_on_c, 3, 78, 95
5, 85646, Note_on_c, 3, 78, 0
5, 85648, Note_on_c, 3, 79, 95
5, 85662, Note_on_c, 3, 79, 0
5, 85664, Note_on_c, 3, 78, 95
5, 85678, Note_on_c, 3, 78, 0
5, 85680, Note_on_c, 3, 76, 95
5, 85694, Note_on_c, 3, 76, 0
5, 85696, Note_on_c, 3, 78, 95
5, 85710, Note_on_c, 3, 78, 0
5, 85712, Note_on_c, 3, 74, 95
5, 85726, Note_on_c, 3, 74, 0
5, 85728, Note_on_c, 3, 73, 95
5, 85744, Note_on_c, 3, 73, 0
5, 85744, Note_on_c, 3, 76, 95
5, 85760, Note_on_c, 3, 76, 0
5, 85760, Note_on_c, 3, 74, 95
5, 85776, Note_on_c, 3, 74, 0
5, 85776, Note_on_c, 3, 73, 95
5, 85792, Note_on_c, 3, 73, 0
5, 85792, Note_on_c, 3, 74, 95
5, 85808, Note_on_c, 3, 74, 0
5, 85808, Note_on_c, 3, 76, 95
5, 85824, Note_on_c, 3, 76, 0
5, 85824, Note_on_c, 3, 71, 95
5, 85848, Note_on_c, 3, 71, 0
5, 85872, Note_on_c, 3, 73, 95
5, 85896, Note_on_c, 3, 73, 0
5, 85920, Note_on_c, 3, 74, 95
5, 86112, Note_on_c, 3, 74, 0
5, 86128, Note_on_c, 3, 76, 95
5, 86144, Note_on_c, 3, 76, 0
5, 86144, Note_on_c, 3, 74, 95
5, 86160, Note_on_c, 3, 74, 0
5, 86160, Note_on_c, 3, 73, 95
5, 86176, Note_on_c, 3, 73, 0
5, 86176, Note_on_c, 3, 74, 95
5, 86192, Note_on_c, 3, 74, 0
5, 86192, Note_on_c, 3, 76, 95
5, 86208, Note_on_c, 3, 76, 0
5, 86208, Note_on_c, 3, 69, 95
5, 86244, Note_on_c, 3, 69, 0
5, 86244, Note_on_c, 3, 78, 95
5, 86256, Note_on_c, 3, 78, 0
5, 86256, Note_on_c, 3, 76, 95
5, 86292, Note_on_c, 3, 76, 0
5, 86292, Note_on_c, 3, 74, 95
5, 86304, Note_on_c, 3, 74, 0
5, 86304, Note_on_c, 3, 73, 95
5, 86320, Note_on_c, 3, 73, 0
5, 86320, Note_on_c, 3, 76, 95
5, 86336, Note_on_c, 3, 76, 0
5, 86336, Note_on_c, 3, 74, 95
5, 86352, Note_on_c, 3, 74, 0
5, 86352, Note_on_c, 3, 73, 95
5, 86368, Note_on_c, 3, 73, 0
5, 86368, Note_on_c, 3, 76, 95
5, 86384, Note_on_c, 3, 76, 0
5, 86384, Note_on_c, 3, 74, 95
5, 86400, Note_on_c, 3, 74, 0
5, 86400, Note_on_c, 3, 73, 95
5, 86496, Note_on_c, 3, 73, 0
5, 86512, Note_on_c, 3, 64, 95
5, 86528, Note_on_c, 3, 64, 0
5, 86528, Note_on_c, 3, 62, 95
5, 86544, Note_on_c, 3, 62, 0
5, 86544, Note_on_c, 3, 61, 95
5, 86560, Note_on_c, 3, 61, 0
5, 86560, Note_on_c, 3, 64, 95
5, 86576, Note_on_c, 3, 64, 0
5, 86576, Note_on_c, 3, 62, 95
5, 86592, Note_on_c, 3, 62, 0
5, 86592, Note_on_c, 3, 61, 95
5, 86688, Note_on_c, 3, 61, 0
5, 86688, Note_on_c, 3, 59, 95
5, 86784, Note_on_c, 3, 59, 0
5, 86784, Note_on_c, 3, 78, 95
5, 86928, Note_on_c, 3, 78, 0
5, 86928, Note_on_c, 3, 76, 95
5, 86944, Note_on_c, 3, 76, 0
5, 86944, Note_on_c, 3, 78, 95
5, 86960, Note_on_c, 3, 78, 0
5, 86960, Note_on_c, 3, 80, 95
5, 86976, Note_on_c, 3, 80, 0
5, 86976, Note_on_c, 3, 81, 95
5, 87040, Note_on_c, 3, 83, 95
5, 87048, Note_on_c, 3, 81, 0
5, 87056, Note_on_c, 3, 83, 0
5, 87056, Note_on_c, 3, 81, 95
5, 87072, Note_on_c, 3, 81, 0
5, 87072, Note_on_c, 3, 80, 95
5, 87088, Note_on_c, 3, 80, 0
5, 87088, Note_on_c, 3, 78, 95
5, 87104, Note_on_c, 3, 78, 0
5, 87104, Note_on_c, 3, 76, 95
5, 87120, Note_on_c, 3, 76, 0
5, 87120, Note_on_c, 3, 81, 95
5, 87216, Note_on_c, 3, 81, 0
5, 87216, Note_on_c, 3, 80, 95
5, 87264, Note_on_c, 3, 80, 0
5, 87264, Note_on_c, 3, 81, 95
5, 87328, Note_on_c, 3, 79, 95
5, 87336, Note_on_c, 3, 81, 0
5, 87344, Note_on_c, 3, 79, 0
5, 87344, Note_on_c, 3, 78, 95
5, 87360, Note_on_c, 3, 78, 0
5, 87360, Note_on_c, 3, 76, 95
5, 87424, Note_on_c, 3, 74, 95
5, 87432, Note_on_c, 3, 76, 0
5, 87440, Note_on_c, 3, 74, 0
5, 87440, Note_on_c, 3, 73, 95
5, 87456, Note_on_c, 3, 73, 0
5, 87456, Note_on_c, 3, 74, 95
5, 87472, Note_on_c, 3, 74, 0
5, 87472, Note_on_c, 3, 73, 95
5, 87488, Note_on_c, 3, 73, 0
5, 87488, Note_on_c, 3, 71, 95
5, 87504, Note_on_c, 3, 71, 0
5, 87504, Note_on_c, 3, 69, 95
5, 87520, Note_on_c, 3, 69, 0
5, 87520, Note_on_c, 3, 73, 95
5, 87536, Note_on_c, 3, 73, 0
5, 87536, Note_on_c, 3, 79, 95
5, 87552, Note_on_c, 3, 79, 0
5, 87552, Note_on_c, 3, 78, 95
5, 87576, Note_on_c, 3, 78, 0
5, 87600, Note_on_c, 3, 80, 95
5, 87624, Note_on_c, 3, 80, 0
5, 87648, Note_on_c, 3, 81, 95
5, 87684, Note_on_c, 3, 81, 0
5, 87684, Note_on_c, 3, 81, 95
5, 87696, Note_on_c, 3, 81, 0
5, 87696, Note_on_c, 3, 86, 95
5, 87732, Note_on_c, 3, 86, 0
5, 87732, Note_on_c, 3, 81, 95
5, 87744, Note_on_c, 3, 81, 0
5, 87744, Note_on_c, 3, 83, 95
5, 87760, Note_on_c, 3, 83, 0
5, 87760, Note_on_c, 3, 81, 95
5, 87776, Note_on_c, 3, 81, 0
5, 87776, Note_on_c, 3, 79, 95
5, 87792, Note_on_c, 3, 79, 0
5, 87792, Note_on_c, 3, 78, 95
5, 87808, Note_on_c, 3, 78, 0
5, 87808, Note_on_c, 3, 79, 95
5, 87824, Note_on_c, 3, 79, 0
5, 87824, Note_on_c, 3, 81, 95
5, 87840, Note_on_c, 3, 81, 0
5, 87840, Note_on_c, 3, 74, 95
5, 87864, Note_on_c, 3, 74, 0
5, 87888, Note_on_c, 3, 73, 95
5, 87912, Note_on_c, 3, 73, 0
5, 87936, Note_on_c, 3, 71, 95
5, 87960, Note_on_c, 3, 71, 0
5, 87984, Note_on_c, 3, 76, 95
5, 88008, Note_on_c, 3, 76, 0
5, 88032, Note_on_c, 3, 74, 95
5, 88048, Note_on_c, 3, 74, 0
5, 88048, Note_on_c, 3, 78, 95
5, 88064, Note_on_c, 3, 78, 0
5, 88064, Note_on_c, 3, 81, 95
5, 88080, Note_on_c, 3, 81, 0
5, 88080, Note_on_c, 3, 81, 95
5, 88096, Note_on_c, 3, 81, 0
5, 88096, Note_on_c, 3, 79, 95
5, 88112, Note_on_c, 3, 79, 0
5, 88112, Note_on_c, 3, 81, 95
5, 88128, Note_on_c, 3, 81, 0
5, 88128, Note_on_c, 3, 78, 95
5, 88144, Note_on_c, 3, 78, 0
5, 88144, Note_on_c, 3, 83, 95
5, 88160, Note_on_c, 3, 83, 0
5, 88160, Note_on_c, 3, 81, 95
5, 88176, Note_on_c, 3, 81, 0
5, 88176, Note_on_c, 3, 80, 95
5, 88192, Note_on_c, 3, 80, 0
5, 88192, Note_on_c, 3, 85, 95
5, 88208, Note_on_c, 3, 85, 0
5, 88208, Note_on_c, 3, 83, 95
5, 88224, Note_on_c, 3, 83, 0
5, 88224, Note_on_c, 3, 81, 95
5, 88288, Note_on_c, 3, 83, 95
5, 88296, Note_on_c, 3, 81, 0
5, 88304, Note_on_c, 3, 83, 0
5, 88304, Note_on_c, 3, 85, 95
5, 88320, Note_on_c, 3, 85, 0
5, 88320, Note_on_c, 3, 86, 95
5, 88336, Note_on_c, 3, 86, 0
5, 88336, Note_on_c, 3, 85, 95
5, 88352, Note_on_c, 3, 85, 0
5, 88352, Note_on_c, 3, 83, 95
5, 88368, Note_on_c, 3, 83, 0
5, 88368, Note_on_c, 3, 81, 95
5, 88384, Note_on_c, 3, 81, 0
5, 88384, Note_on_c, 3, 83, 95
5, 88400, Note_on_c, 3, 83, 0
5, 88400, Note_on_c, 3, 79, 95
5, 88416, Note_on_c, 3, 79, 0
5, 88416, Note_on_c, 3, 78, 95
5, 88440, Note_on_c, 3, 78, 0
5, 88464, Note_on_c, 3, 79, 95
5, 88488, Note_on_c, 3, 79, 0
5, 88512, Note_on_c, 3, 81, 95
5, 88528, Note_on_c, 3, 81, 0
5, 88560, Note_on_c, 3, 72, 95
5, 88576, Note_on_c, 3, 72, 0
5, 88608, Note_on_c, 3, 71, 95
5, 88624, Note_on_c, 3, 71, 0
5, 88656, Note_on_c, 3, 73, 95
5, 88672, Note_on_c, 3, 73, 0
5, 88704, Note_on_c, 3, 74, 95
5, 88720, Note_on_c, 3, 74, 0
5, 88752, Note_on_c, 3, 64, 95
5, 88768, Note_on_c, 3, 64, 0
5, 88768, Note_on_c, 3, 69, 95
5, 88784, Note_on_c, 3, 69, 0
5, 88784, Note_on_c, 3, 73, 95
5, 88800, Note_on_c, 3, 73, 0
5, 88800, Note_on_c, 3, 66, 95
5, 88816, Note_on_c, 3, 66, 0
5, 88816, Note_on_c, 3, 69, 95
5, 88832, Note_on_c, 3, 69, 0
5, 88832, Note_on_c, 3, 74, 95
5, 88848, Note_on_c, 3, 74, 0
5, 88848, Note_on_c, 3, 64, 95
5, 88864, Note_on_c, 3, 64, 0
5, 88864, Note_on_c, 3, 69, 95
5, 88880, Note_on_c, 3, 69, 0
5, 88880, Note_on_c, 3, 73, 95
5, 88896, Note_on_c, 3, 73, 0
5, 88896, Note_on_c, 3, 74, 66
5, 88920, Note_on_c, 3, 74, 0
5, 88944, Note_on_c, 3, 79, 85
5, 88968, Note_on_c, 3, 79, 0
5, 88992, Note_on_c, 3, 78, 60
5, 89016, Note_on_c, 3, 78, 0
5, 89040, Note_on_c, 3, 74, 85
5, 89064, Note_on_c, 3, 74, 0
5, 89088, Note_on_c, 3, 69, 85
5, 89112, Note_on_c, 3, 69, 0
5, 89136, Note_on_c, 3, 69, 74
5, 89172, Note_on_c, 3, 69, 0
5, 89172, Note_on_c, 3, 67, 61
5, 89184, Note_on_c, 3, 67, 0
5, 89184, Note_on_c, 3, 66, 66
5, 89220, Note_on_c, 3, 66, 0
5, 89220, Note_on_c, 3, 67, 85
5, 89232, Note_on_c, 3, 67, 0
5, 89232, Note_on_c, 3, 69, 78
5, 89244, Note_on_c, 3, 69, 0
5, 89296, Note_on_c, 3, 69, 70
5, 89312, Note_on_c, 3, 69, 0
5, 89312, Note_on_c, 3, 67, 85
5, 89328, Note_on_c, 3, 67, 0
5, 89328, Note_on_c, 3, 66, 53
5, 89344, Note_on_c, 3, 66, 0
5, 89344, Note_on_c, 3, 67, 85
5, 89360, Note_on_c, 3, 67, 0
5, 89360, Note_on_c, 3, 69, 85
5, 89376, Note_on_c, 3, 69, 0
5, 89376, Note_on_c, 3, 62, 78
5, 89412, Note_on_c, 3, 62, 0
5, 89412, Note_on_c, 3, 71, 78
5, 89424, Note_on_c, 3, 71, 0
5, 89424, Note_on_c, 3, 69, 78
5, 89460, Note_on_c, 3, 69, 0
5, 89460, Note_on_c, 3, 67, 78
5, 89472, Note_on_c, 3, 67, 0
5, 89472, Note_on_c, 3, 66, 78
5, 89488, Note_on_c, 3, 66, 0
5, 89488, Note_on_c, 3, 69, 78
5, 89504, Note_on_c, 3, 69, 0
5, 89504, Note_on_c, 3, 67, 78
5, 89520, Note_on_c, 3, 67, 0
5, 89520, Note_on_c, 3, 66, 78
5, 89536, Note_on_c, 3, 66, 0
5, 89536, Note_on_c, 3, 69, 78
5, 89552, Note_on_c, 3, 69, 0
5, 89552, Note_on_c, 3, 67, 78
5, 89568, Note_on_c, 3, 67, 0
5, 89568, Note_on_c, 3, 66, 95
5, 89680, Note_on_c, 3, 78, 95
5, 89696, Note_on_c, 3, 78, 0
5, 89696, Note_on_c, 3, 76, 95
5, 89712, Note_on_c, 3, 76, 0
5, 89712, Note_on_c, 3, 66, 0
5, 89712, Note_on_c, 3, 74, 95
5, 89728, Note_on_c, 3, 74, 0
5, 89728, Note_on_c, 3, 78, 95
5, 89744, Note_on_c, 3, 78, 0
5, 89744, Note_on_c, 3, 76, 95
5, 89760, Note_on_c, 3, 76, 0
5, 89760, Note_on_c, 3, 74, 95
5, 90042, Note_on_c, 3, 74, 0
5, 90048, Note_on_c, 3, 73, 95
5, 90063, Note_on_c, 3, 73, 0
5, 90064, Note_on_c, 3, 71, 95
5, 90079, Note_on_c, 3, 71, 0
5, 90080, Note_on_c, 3, 69, 95
5, 90095, Note_on_c, 3, 69, 0
5, 90096, Note_on_c, 3, 81, 95
5, 90160, Note_on_c, 3, 83, 95
5, 90163, Note_on_c, 3, 81, 0
5, 90175, Note_on_c, 3, 83, 0
5, 90176, Note_on_c, 3, 81, 95
5, 90191, Note_on_c, 3, 81, 0
5, 90192, Note_on_c, 3, 79, 95
5, 90256, Note_on_c, 3, 81, 95
5, 90259, Note_on_c, 3, 79, 0
5, 90271, Note_on_c, 3, 81, 0
5, 90272, Note_on_c, 3, 79, 95
5, 90287, Note_on_c, 3, 79, 0
5, 90288, Note_on_c, 3, 78, 95
5, 90352, Note_on_c, 3, 71, 95
5, 90355, Note_on_c, 3, 78, 0
5, 90367, Note_on_c, 3, 71, 0
5, 90368, Note_on_c, 3, 74, 95
5, 90383, Note_on_c, 3, 74, 0
5, 90384, Note_on_c, 3, 76, 95
5, 90399, Note_on_c, 3, 76, 0
5, 90400, Note_on_c, 3, 78, 95
5, 90415, Note_on_c, 3, 78, 0
5, 90416, Note_on_c, 3, 79, 95
5, 90431, Note_on_c, 3, 79, 0
5, 90432, Note_on_c, 3, 73, 66
5, 90443, Note_on_c, 3, 73, 0
5, 90448, Note_on_c, 3, 76, 66
5, 90459, Note_on_c, 3, 76, 0
5, 90464, Note_on_c, 3, 73, 66
5, 90475, Note_on_c, 3, 73, 0
5, 90480, Note_on_c, 3, 69, 66
5, 90491, Note_on_c, 3, 69, 0
5, 90496, Note_on_c, 3, 71, 66
5, 90507, Note_on_c, 3, 71, 0
5, 90512, Note_on_c, 3, 73, 66
5, 90523, Note_on_c, 3, 73, 0
5, 90528, Note_on_c, 3, 66, 65
5, 90552, Note_on_c, 3, 66, 0
5, 90564, Note_on_c, 3, 67, 85
5, 90572, Note_on_c, 3, 67, 0
5, 90576, Note_on_c, 3, 64, 85
5, 90600, Note_on_c, 3, 64, 0
5, 90612, Note_on_c, 3, 62, 85
5, 90620, Note_on_c, 3, 62, 0
5, 90624, Note_on_c, 3, 62, 85
5, 90975, Note_on_c, 3, 62, 0
5, 90976, Note_on_c, 3, 64, 85
5, 90986, Note_on_c, 3, 64, 0
5, 90992, Note_on_c, 3, 66, 85
5, 91002, Note_on_c, 3, 66, 0
5, 91008, Note_on_c, 3, 64, 85
5, 91200, Note_on_c, 3, 64, 0
5, 91200, Note_on_c, 3, 64, 85
5, 91344, Note_on_c, 3, 64, 0
5, 91344, Note_on_c, 3, 76, 85
5, 91440, Note_on_c, 3, 76, 0
5, 91440, Note_on_c, 3, 78, 85
5, 91536, Note_on_c, 3, 78, 0
5, 91536, Note_on_c, 3, 79, 85
5, 91632, Note_on_c, 3, 79, 0
5, 91632, Note_on_c, 3, 81, 85
5, 91648, Note_on_c, 3, 81, 0
5, 91716, Note_on_c, 3, 81, 85
5, 91728, Note_on_c, 3, 81, 0
5, 91728, Note_on_c, 3, 86, 85
5, 91764, Note_on_c, 3, 86, 0
5, 91764, Note_on_c, 3, 81, 85
5, 91776, Note_on_c, 3, 81, 0
5, 91776, Note_on_c, 3, 83, 85
5, 91792, Note_on_c, 3, 83, 0
5, 91792, Note_on_c, 3, 81, 85
5, 91808, Note_on_c, 3, 81, 0
5, 91808, Note_on_c, 3, 79, 85
5, 91824, Note_on_c, 3, 79, 0
5, 91824, Note_on_c, 3, 78, 85
5, 91840, Note_on_c, 3, 78, 0
5, 91840, Note_on_c, 3, 79, 85
5, 91856, Note_on_c, 3, 79, 0
5, 91856, Note_on_c, 3, 81, 85
5, 91872, Note_on_c, 3, 81, 0
5, 91872, Note_on_c, 3, 74, 85
5, 91908, Note_on_c, 3, 74, 0
5, 91908, Note_on_c, 3, 76, 85
5, 91920, Note_on_c, 3, 76, 0
5, 91920, Note_on_c, 3, 73, 85
5, 91956, Note_on_c, 3, 73, 0
5, 91956, Note_on_c, 3, 74, 85
5, 91968, Note_on_c, 3, 74, 0
5, 91968, Note_on_c, 3, 74, 85
5, 92064, Note_on_c, 3, 74, 0
5, 92064, MIDI_port, 0
5, 92161, System_exclusive, 5, 126, 127, 9, 2, 247
5, 92161, MIDI_port, 0
5, 92161, End_track
6, 0, Start_track
6, 0, MIDI_port, 0
6, 0, Title_t, "2nd Violin"
6, 0, Program_c, 4, 40
6, 0, Control_c, 4, 7, 127
6, 0, Control_c, 4, 10, 48
6, 0, Control_c, 4, 121, 0
6, 0, Control_c, 4, 91, 127
6, 0, Control_c, 4, 93, 0
6, 0, Note_on_c, 4, 62, 95
6, 8, Note_on_c, 4, 62, 0
6, 12, Note_on_c, 4, 62, 95
6, 20, Note_on_c, 4, 62, 0
6, 24, Note_on_c, 4, 66, 95
6, 32, Note_on_c, 4, 66, 0
6, 36, Note_on_c, 4, 66, 95
6, 44, Note_on_c, 4, 66, 0
6, 48, Note_on_c, 4, 69, 95
6, 56, Note_on_c, 4, 69, 0
6, 60, Note_on_c, 4, 69, 95
6, 68, Note_on_c, 4, 69, 0
6, 72, Note_on_c, 4, 74, 95
6, 80, Note_on_c, 4, 74, 0
6, 84, Note_on_c, 4, 74, 95
6, 92, Note_on_c, 4, 74, 0
6, 96, Note_on_c, 4, 73, 95
6, 104, Note_on_c, 4, 73, 0
6, 108, Note_on_c, 4, 74, 95
6, 116, Note_on_c, 4, 74, 0
6, 120, Note_on_c, 4, 73, 95
6, 128, Note_on_c, 4, 73, 0
6, 132, Note_on_c, 4, 71, 95
6, 140, Note_on_c, 4, 71, 0
6, 144, Note_on_c, 4, 69, 95
6, 152, Note_on_c, 4, 69, 0
6, 156, Note_on_c, 4, 67, 95
6, 164, Note_on_c, 4, 67, 0
6, 168, Note_on_c, 4, 66, 95
6, 176, Note_on_c, 4, 66, 0
6, 180, Note_on_c, 4, 64, 95
6, 188, Note_on_c, 4, 64, 0
6, 192, Note_on_c, 4, 62, 95
6, 200, Note_on_c, 4, 62, 0
6, 204, Note_on_c, 4, 62, 95
6, 212, Note_on_c, 4, 62, 0
6, 216, Note_on_c, 4, 66, 95
6, 224, Note_on_c, 4, 66, 0
6, 228, Note_on_c, 4, 66, 95
6, 236, Note_on_c, 4, 66, 0
6, 240, Note_on_c, 4, 69, 95
6, 248, Note_on_c, 4, 69, 0
6, 252, Note_on_c, 4, 69, 95
6, 260, Note_on_c, 4, 69, 0
6, 264, Note_on_c, 4, 74, 95
6, 272, Note_on_c, 4, 74, 0
6, 276, Note_on_c, 4, 74, 95
6, 284, Note_on_c, 4, 74, 0
6, 288, Note_on_c, 4, 76, 95
6, 304, Note_on_c, 4, 76, 0
6, 312, Note_on_c, 4, 69, 95
6, 328, Note_on_c, 4, 69, 0
6, 360, Note_on_c, 4, 76, 95
6, 376, Note_on_c, 4, 76, 0
6, 384, Note_on_c, 4, 78, 95
6, 392, Note_on_c, 4, 78, 0
6, 396, Note_on_c, 4, 78, 95
6, 404, Note_on_c, 4, 78, 0
6, 408, Note_on_c, 4, 76, 95
6, 416, Note_on_c, 4, 76, 0
6, 420, Note_on_c, 4, 76, 95
6, 428, Note_on_c, 4, 76, 0
6, 432, Note_on_c, 4, 79, 95
6, 440, Note_on_c, 4, 79, 0
6, 444, Note_on_c, 4, 79, 95
6, 452, Note_on_c, 4, 79, 0
6, 456, Note_on_c, 4, 78, 95
6, 464, Note_on_c, 4, 78, 0
6, 468, Note_on_c, 4, 78, 95
6, 476, Note_on_c, 4, 78, 0
6, 480, Note_on_c, 4, 83, 95
6, 488, Note_on_c, 4, 83, 0
6, 492, Note_on_c, 4, 83, 95
6, 500, Note_on_c, 4, 83, 0
6, 504, Note_on_c, 4, 81, 95
6, 512, Note_on_c, 4, 81, 0
6, 516, Note_on_c, 4, 81, 95
6, 524, Note_on_c, 4, 81, 0
6, 528, Note_on_c, 4, 73, 95
6, 536, Note_on_c, 4, 73, 0
6, 540, Note_on_c, 4, 73, 95
6, 548, Note_on_c, 4, 73, 0
6, 552, Note_on_c, 4, 74, 95
6, 560, Note_on_c, 4, 74, 0
6, 564, Note_on_c, 4, 74, 95
6, 572, Note_on_c, 4, 74, 0
6, 576, Note_on_c, 4, 67, 95
6, 584, Note_on_c, 4, 67, 0
6, 588, Note_on_c, 4, 67, 95
6, 596, Note_on_c, 4, 67, 0
6, 600, Note_on_c, 4, 66, 95
6, 608, Note_on_c, 4, 66, 0
6, 612, Note_on_c, 4, 66, 95
6, 620, Note_on_c, 4, 66, 0
6, 624, Note_on_c, 4, 71, 95
6, 632, Note_on_c, 4, 71, 0
6, 636, Note_on_c, 4, 71, 95
6, 644, Note_on_c, 4, 71, 0
6, 648, Note_on_c, 4, 69, 95
6, 656, Note_on_c, 4, 69, 0
6, 660, Note_on_c, 4, 69, 95
6, 668, Note_on_c, 4, 69, 0
6, 672, Note_on_c, 4, 61, 95
6, 680, Note_on_c, 4, 61, 0
6, 684, Note_on_c, 4, 61, 95
6, 692, Note_on_c, 4, 61, 0
6, 696, Note_on_c, 4, 62, 95
6, 704, Note_on_c, 4, 62, 0
6, 708, Note_on_c, 4, 62, 95
6, 716, Note_on_c, 4, 62, 0
6, 720, Note_on_c, 4, 57, 95
6, 728, Note_on_c, 4, 57, 0
6, 732, Note_on_c, 4, 57, 95
6, 740, Note_on_c, 4, 57, 0
6, 744, Note_on_c, 4, 67, 95
6, 752, Note_on_c, 4, 67, 0
6, 756, Note_on_c, 4, 67, 95
6, 764, Note_on_c, 4, 67, 0
6, 768, Note_on_c, 4, 66, 95
6, 776, Note_on_c, 4, 66, 0
6, 780, Note_on_c, 4, 64, 95
6, 788, Note_on_c, 4, 64, 0
6, 792, Note_on_c, 4, 66, 95
6, 800, Note_on_c, 4, 66, 0
6, 804, Note_on_c, 4, 62, 95
6, 812, Note_on_c, 4, 62, 0
6, 816, Note_on_c, 4, 64, 95
6, 824, Note_on_c, 4, 64, 0
6, 828, Note_on_c, 4, 64, 95
6, 836, Note_on_c, 4, 64, 0
6, 840, Note_on_c, 4, 57, 95
6, 848, Note_on_c, 4, 57, 0
6, 852, Note_on_c, 4, 57, 95
6, 860, Note_on_c, 4, 57, 0
6, 864, Note_on_c, 4, 62, 95
6, 872, Note_on_c, 4, 62, 0
6, 876, Note_on_c, 4, 64, 95
6, 884, Note_on_c, 4, 64, 0
6, 888, Note_on_c, 4, 66, 95
6, 896, Note_on_c, 4, 66, 0
6, 900, Note_on_c, 4, 67, 95
6, 908, Note_on_c, 4, 67, 0
6, 912, Note_on_c, 4, 69, 95
6, 920, Note_on_c, 4, 69, 0
6, 924, Note_on_c, 4, 71, 95
6, 932, Note_on_c, 4, 71, 0
6, 936, Note_on_c, 4, 73, 95
6, 944, Note_on_c, 4, 73, 0
6, 948, Note_on_c, 4, 69, 95
6, 956, Note_on_c, 4, 69, 0
6, 960, Note_on_c, 4, 74, 95
6, 968, Note_on_c, 4, 74, 0
6, 972, Note_on_c, 4, 74, 95
6, 980, Note_on_c, 4, 74, 0
6, 984, Note_on_c, 4, 73, 95
6, 992, Note_on_c, 4, 73, 0
6, 996, Note_on_c, 4, 73, 95
6, 1004, Note_on_c, 4, 73, 0
6, 1008, Note_on_c, 4, 76, 95
6, 1016, Note_on_c, 4, 76, 0
6, 1020, Note_on_c, 4, 76, 95
6, 1028, Note_on_c, 4, 76, 0
6, 1032, Note_on_c, 4, 74, 95
6, 1040, Note_on_c, 4, 74, 0
6, 1044, Note_on_c, 4, 74, 95
6, 1052, Note_on_c, 4, 74, 0
6, 1056, Note_on_c, 4, 79, 95
6, 1064, Note_on_c, 4, 79, 0
6, 1068, Note_on_c, 4, 79, 95
6, 1076, Note_on_c, 4, 79, 0
6, 1080, Note_on_c, 4, 78, 95
6, 1088, Note_on_c, 4, 78, 0
6, 1092, Note_on_c, 4, 78, 95
6, 1100, Note_on_c, 4, 78, 0
6, 1104, Note_on_c, 4, 83, 95
6, 1112, Note_on_c, 4, 83, 0
6, 1116, Note_on_c, 4, 83, 95
6, 1124, Note_on_c, 4, 83, 0
6, 1128, Note_on_c, 4, 81, 95
6, 1136, Note_on_c, 4, 81, 0
6, 1140, Note_on_c, 4, 81, 95
6, 1148, Note_on_c, 4, 81, 0
6, 1152, Note_on_c, 4, 79, 95
6, 1160, Note_on_c, 4, 79, 0
6, 1164, Note_on_c, 4, 78, 95
6, 1172, Note_on_c, 4, 78, 0
6, 1176, Note_on_c, 4, 76, 95
6, 1184, Note_on_c, 4, 76, 0
6, 1188, Note_on_c, 4, 74, 95
6, 1196, Note_on_c, 4, 74, 0
6, 1200, Note_on_c, 4, 76, 95
6, 1216, Note_on_c, 4, 76, 0
6, 1224, Note_on_c, 4, 69, 95
6, 1232, Note_on_c, 4, 69, 0
6, 1236, Note_on_c, 4, 71, 95
6, 1244, Note_on_c, 4, 71, 0
6, 1248, Note_on_c, 4, 72, 95
6, 1256, Note_on_c, 4, 72, 0
6, 1260, Note_on_c, 4, 69, 95
6, 1268, Note_on_c, 4, 69, 0
6, 1272, Note_on_c, 4, 71, 95
6, 1280, Note_on_c, 4, 71, 0
6, 1284, Note_on_c, 4, 74, 95
6, 1292, Note_on_c, 4, 74, 0
6, 1296, Note_on_c, 4, 73, 95
6, 1304, Note_on_c, 4, 73, 0
6, 1308, Note_on_c, 4, 76, 95
6, 1316, Note_on_c, 4, 76, 0
6, 1320, Note_on_c, 4, 69, 95
6, 1328, Note_on_c, 4, 69, 0
6, 1332, Note_on_c, 4, 67, 95
6, 1340, Note_on_c, 4, 67, 0
6, 1344, Note_on_c, 4, 66, 95
6, 1352, Note_on_c, 4, 66, 0
6, 1356, Note_on_c, 4, 62, 95
6, 1364, Note_on_c, 4, 62, 0
6, 1368, Note_on_c, 4, 64, 95
6, 1376, Note_on_c, 4, 64, 0
6, 1380, Note_on_c, 4, 67, 95
6, 1388, Note_on_c, 4, 67, 0
6, 1392, Note_on_c, 4, 66, 95
6, 1400, Note_on_c, 4, 66, 0
6, 1404, Note_on_c, 4, 69, 95
6, 1412, Note_on_c, 4, 69, 0
6, 1416, Note_on_c, 4, 62, 95
6, 1424, Note_on_c, 4, 62, 0
6, 1428, Note_on_c, 4, 61, 95
6, 1436, Note_on_c, 4, 61, 0
6, 1440, Note_on_c, 4, 59, 95
6, 1448, Note_on_c, 4, 59, 0
6, 1452, Note_on_c, 4, 67, 95
6, 1460, Note_on_c, 4, 67, 0
6, 1464, Note_on_c, 4, 66, 95
6, 1472, Note_on_c, 4, 66, 0
6, 1476, Note_on_c, 4, 64, 95
6, 1484, Note_on_c, 4, 64, 0
6, 1488, Note_on_c, 4, 64, 95
6, 1512, Note_on_c, 4, 64, 0
6, 1524, Note_on_c, 4, 62, 95
6, 1532, Note_on_c, 4, 62, 0
6, 1536, Note_on_c, 4, 62, 95
6, 1552, Note_on_c, 4, 62, 0
6, 1824, Note_on_c, 4, 62, 56
6, 1832, Note_on_c, 4, 62, 0
6, 1836, Note_on_c, 4, 62, 56
6, 1844, Note_on_c, 4, 62, 0
6, 1848, Note_on_c, 4, 66, 56
6, 1856, Note_on_c, 4, 66, 0
6, 1860, Note_on_c, 4, 66, 56
6, 1868, Note_on_c, 4, 66, 0
6, 1872, Note_on_c, 4, 69, 56
6, 1880, Note_on_c, 4, 69, 0
6, 1884, Note_on_c, 4, 69, 56
6, 1892, Note_on_c, 4, 69, 0
6, 1896, Note_on_c, 4, 74, 56
6, 1904, Note_on_c, 4, 74, 0
6, 1908, Note_on_c, 4, 74, 56
6, 1916, Note_on_c, 4, 74, 0
6, 1920, Note_on_c, 4, 73, 56
6, 1928, Note_on_c, 4, 73, 0
6, 1932, Note_on_c, 4, 74, 56
6, 1940, Note_on_c, 4, 74, 0
6, 1944, Note_on_c, 4, 73, 56
6, 1952, Note_on_c, 4, 73, 0
6, 1956, Note_on_c, 4, 71, 56
6, 1964, Note_on_c, 4, 71, 0
6, 1968, Note_on_c, 4, 69, 56
6, 1976, Note_on_c, 4, 69, 0
6, 1980, Note_on_c, 4, 67, 56
6, 1988, Note_on_c, 4, 67, 0
6, 1992, Note_on_c, 4, 66, 56
6, 2000, Note_on_c, 4, 66, 0
6, 2004, Note_on_c, 4, 64, 56
6, 2012, Note_on_c, 4, 64, 0
6, 2016, Note_on_c, 4, 62, 56
6, 2032, Note_on_c, 4, 62, 0
6, 2304, Note_on_c, 4, 62, 56
6, 2312, Note_on_c, 4, 62, 0
6, 2316, Note_on_c, 4, 62, 56
6, 2324, Note_on_c, 4, 62, 0
6, 2328, Note_on_c, 4, 66, 56
6, 2336, Note_on_c, 4, 66, 0
6, 2340, Note_on_c, 4, 66, 56
6, 2348, Note_on_c, 4, 66, 0
6, 2352, Note_on_c, 4, 69, 56
6, 2360, Note_on_c, 4, 69, 0
6, 2364, Note_on_c, 4, 69, 56
6, 2372, Note_on_c, 4, 69, 0
6, 2376, Note_on_c, 4, 74, 56
6, 2384, Note_on_c, 4, 74, 0
6, 2388, Note_on_c, 4, 74, 56
6, 2396, Note_on_c, 4, 74, 0
6, 2400, Note_on_c, 4, 76, 56
6, 2416, Note_on_c, 4, 76, 0
6, 2424, Note_on_c, 4, 69, 56
6, 2440, Note_on_c, 4, 69, 0
6, 3456, Note_on_c, 4, 57, 95
6, 3464, Note_on_c, 4, 57, 0
6, 3468, Note_on_c, 4, 57, 95
6, 3476, Note_on_c, 4, 57, 0
6, 3480, Note_on_c, 4, 61, 95
6, 3488, Note_on_c, 4, 61, 0
6, 3492, Note_on_c, 4, 61, 95
6, 3500, Note_on_c, 4, 61, 0
6, 3504, Note_on_c, 4, 64, 95
6, 3512, Note_on_c, 4, 64, 0
6, 3516, Note_on_c, 4, 64, 95
6, 3524, Note_on_c, 4, 64, 0
6, 3528, Note_on_c, 4, 69, 95
6, 3536, Note_on_c, 4, 69, 0
6, 3540, Note_on_c, 4, 69, 95
6, 3548, Note_on_c, 4, 69, 0
6, 3552, Note_on_c, 4, 68, 95
6, 3560, Note_on_c, 4, 68, 0
6, 3564, Note_on_c, 4, 69, 95
6, 3572, Note_on_c, 4, 69, 0
6, 3576, Note_on_c, 4, 68, 95
6, 3584, Note_on_c, 4, 68, 0
6, 3588, Note_on_c, 4, 66, 95
6, 3596, Note_on_c, 4, 66, 0
6, 3600, Note_on_c, 4, 64, 95
6, 3608, Note_on_c, 4, 64, 0
6, 3612, Note_on_c, 4, 62, 95
6, 3620, Note_on_c, 4, 62, 0
6, 3624, Note_on_c, 4, 61, 95
6, 3632, Note_on_c, 4, 61, 0
6, 3636, Note_on_c, 4, 59, 95
6, 3644, Note_on_c, 4, 59, 0
6, 3648, Note_on_c, 4, 57, 95
6, 3656, Note_on_c, 4, 57, 0
6, 3660, Note_on_c, 4, 57, 95
6, 3668, Note_on_c, 4, 57, 0
6, 3672, Note_on_c, 4, 61, 95
6, 3680, Note_on_c, 4, 61, 0
6, 3684, Note_on_c, 4, 61, 95
6, 3692, Note_on_c, 4, 61, 0
6, 3696, Note_on_c, 4, 64, 95
6, 3704, Note_on_c, 4, 64, 0
6, 3708, Note_on_c, 4, 64, 95
6, 3716, Note_on_c, 4, 64, 0
6, 3720, Note_on_c, 4, 69, 95
6, 3728, Note_on_c, 4, 69, 0
6, 3732, Note_on_c, 4, 69, 95
6, 3740, Note_on_c, 4, 69, 0
6, 3744, Note_on_c, 4, 71, 95
6, 3760, Note_on_c, 4, 71, 0
6, 3768, Note_on_c, 4, 64, 95
6, 3784, Note_on_c, 4, 64, 0
6, 3816, Note_on_c, 4, 76, 56
6, 3832, Note_on_c, 4, 76, 0
6, 3840, Note_on_c, 4, 73, 56
6, 3856, Note_on_c, 4, 73, 0
6, 3912, Note_on_c, 4, 81, 56
6, 3928, Note_on_c, 4, 81, 0
6, 3936, Note_on_c, 4, 78, 56
6, 3952, Note_on_c, 4, 78, 0
6, 4008, Note_on_c, 4, 78, 56
6, 4024, Note_on_c, 4, 78, 0
6, 4032, Note_on_c, 4, 74, 56
6, 4048, Note_on_c, 4, 74, 0
6, 4152, Note_on_c, 4, 71, 56
6, 4168, Note_on_c, 4, 71, 0
6, 4176, Note_on_c, 4, 73, 56
6, 4192, Note_on_c, 4, 73, 0
6, 4200, Note_on_c, 4, 71, 56
6, 4216, Note_on_c, 4, 71, 0
6, 4224, Note_on_c, 4, 69, 56
6, 4240, Note_on_c, 4, 69, 0
6, 4296, Note_on_c, 4, 78, 56
6, 4312, Note_on_c, 4, 78, 0
6, 4320, Note_on_c, 4, 74, 56
6, 4336, Note_on_c, 4, 74, 0
6, 4392, Note_on_c, 4, 78, 56
6, 4408, Note_on_c, 4, 78, 0
6, 4416, Note_on_c, 4, 71, 56
6, 4432, Note_on_c, 4, 71, 0
6, 4536, Note_on_c, 4, 68, 56
6, 4552, Note_on_c, 4, 68, 0
6, 4560, Note_on_c, 4, 69, 56
6, 4576, Note_on_c, 4, 69, 0
6, 4584, Note_on_c, 4, 67, 56
6, 4600, Note_on_c, 4, 67, 0
6, 4608, Note_on_c, 4, 66, 56
6, 4624, Note_on_c, 4, 66, 0
6, 4680, Note_on_c, 4, 74, 56
6, 4696, Note_on_c, 4, 74, 0
6, 4704, Note_on_c, 4, 71, 56
6, 4720, Note_on_c, 4, 71, 0
6, 4776, Note_on_c, 4, 74, 56
6, 4792, Note_on_c, 4, 74, 0
6, 4800, Note_on_c, 4, 73, 56
6, 4816, Note_on_c, 4, 73, 0
6, 4920, Note_on_c, 4, 76, 56
6, 4936, Note_on_c, 4, 76, 0
6, 4944, Note_on_c, 4, 78, 56
6, 4960, Note_on_c, 4, 78, 0
6, 4968, Note_on_c, 4, 79, 56
6, 4984, Note_on_c, 4, 79, 0
6, 4992, Note_on_c, 4, 78, 56
6, 5008, Note_on_c, 4, 78, 0
6, 5352, Note_on_c, 4, 71, 95
6, 5368, Note_on_c, 4, 71, 0
6, 5376, Note_on_c, 4, 73, 95
6, 5388, Note_on_c, 4, 73, 0
6, 5388, Note_on_c, 4, 73, 95
6, 5400, Note_on_c, 4, 73, 0
6, 5400, Note_on_c, 4, 71, 95
6, 5412, Note_on_c, 4, 71, 0
6, 5412, Note_on_c, 4, 71, 95
6, 5424, Note_on_c, 4, 71, 0
6, 5424, Note_on_c, 4, 74, 95
6, 5436, Note_on_c, 4, 74, 0
6, 5436, Note_on_c, 4, 74, 95
6, 5448, Note_on_c, 4, 74, 0
6, 5448, Note_on_c, 4, 73, 95
6, 5460, Note_on_c, 4, 73, 0
6, 5460, Note_on_c, 4, 73, 95
6, 5472, Note_on_c, 4, 73, 0
6, 5472, Note_on_c, 4, 78, 95
6, 5484, Note_on_c, 4, 78, 0
6, 5484, Note_on_c, 4, 78, 95
6, 5496, Note_on_c, 4, 78, 0
6, 5496, Note_on_c, 4, 76, 95
6, 5508, Note_on_c, 4, 76, 0
6, 5508, Note_on_c, 4, 76, 95
6, 5520, Note_on_c, 4, 76, 0
6, 5520, Note_on_c, 4, 68, 95
6, 5532, Note_on_c, 4, 68, 0
6, 5532, Note_on_c, 4, 68, 95
6, 5544, Note_on_c, 4, 68, 0
6, 5544, Note_on_c, 4, 69, 95
6, 5556, Note_on_c, 4, 69, 0
6, 5556, Note_on_c, 4, 69, 95
6, 5568, Note_on_c, 4, 69, 0
6, 5568, Note_on_c, 4, 62, 95
6, 5580, Note_on_c, 4, 62, 0
6, 5580, Note_on_c, 4, 62, 95
6, 5592, Note_on_c, 4, 62, 0
6, 5592, Note_on_c, 4, 61, 95
6, 5604, Note_on_c, 4, 61, 0
6, 5604, Note_on_c, 4, 61, 95
6, 5616, Note_on_c, 4, 61, 0
6, 5616, Note_on_c, 4, 66, 95
6, 5628, Note_on_c, 4, 66, 0
6, 5628, Note_on_c, 4, 66, 95
6, 5640, Note_on_c, 4, 66, 0
6, 5640, Note_on_c, 4, 64, 95
6, 5652, Note_on_c, 4, 64, 0
6, 5652, Note_on_c, 4, 64, 95
6, 5664, Note_on_c, 4, 64, 0
6, 5664, Note_on_c, 4, 56, 95
6, 5676, Note_on_c, 4, 56, 0
6, 5676, Note_on_c, 4, 56, 95
6, 5688, Note_on_c, 4, 56, 0
6, 5688, Note_on_c, 4, 57, 95
6, 5700, Note_on_c, 4, 57, 0
6, 5700, Note_on_c, 4, 57, 95
6, 5712, Note_on_c, 4, 57, 0
6, 5712, Note_on_c, 4, 62, 95
6, 5724, Note_on_c, 4, 62, 0
6, 5724, Note_on_c, 4, 62, 95
6, 5736, Note_on_c, 4, 62, 0
6, 5736, Note_on_c, 4, 71, 95
6, 5748, Note_on_c, 4, 71, 0
6, 5748, Note_on_c, 4, 71, 95
6, 5760, Note_on_c, 4, 71, 0
6, 5760, Note_on_c, 4, 61, 95
6, 5772, Note_on_c, 4, 61, 0
6, 5772, Note_on_c, 4, 61, 95
6, 5784, Note_on_c, 4, 61, 0
6, 5784, Note_on_c, 4, 69, 95
6, 5796, Note_on_c, 4, 69, 0
6, 5796, Note_on_c, 4, 69, 95
6, 5808, Note_on_c, 4, 69, 0
6, 5808, Note_on_c, 4, 59, 95
6, 5820, Note_on_c, 4, 59, 0
6, 5820, Note_on_c, 4, 59, 95
6, 5832, Note_on_c, 4, 59, 0
6, 5832, Note_on_c, 4, 68, 95
6, 5844, Note_on_c, 4, 68, 0
6, 5844, Note_on_c, 4, 68, 95
6, 5856, Note_on_c, 4, 68, 0
6, 5856, Note_on_c, 4, 69, 95
6, 5880, Note_on_c, 4, 69, 0
6, 6024, Note_on_c, 4, 69, 56
6, 6040, Note_on_c, 4, 69, 0
6, 6048, Note_on_c, 4, 71, 56
6, 6064, Note_on_c, 4, 71, 0
6, 6072, Note_on_c, 4, 72, 56
6, 6088, Note_on_c, 4, 72, 0
6, 6096, Note_on_c, 4, 74, 56
6, 6112, Note_on_c, 4, 74, 0
6, 6216, Note_on_c, 4, 76, 56
6, 6232, Note_on_c, 4, 76, 0
6, 6240, Note_on_c, 4, 70, 56
6, 6256, Note_on_c, 4, 70, 0
6, 6264, Note_on_c, 4, 73, 56
6, 6272, Note_on_c, 4, 73, 0
6, 6276, Note_on_c, 4, 71, 56
6, 6284, Note_on_c, 4, 71, 0
6, 6288, Note_on_c, 4, 73, 56
6, 6304, Note_on_c, 4, 73, 0
6, 6408, Note_on_c, 4, 66, 56
6, 6424, Note_on_c, 4, 66, 0
6, 6432, Note_on_c, 4, 67, 56
6, 6448, Note_on_c, 4, 67, 0
6, 6456, Note_on_c, 4, 71, 56
6, 6472, Note_on_c, 4, 71, 0
6, 6480, Note_on_c, 4, 64, 56
6, 6512, Note_on_c, 4, 64, 0
6, 6528, Note_on_c, 4, 64, 56
6, 6536, Note_on_c, 4, 64, 0
6, 6540, Note_on_c, 4, 64, 56
6, 6548, Note_on_c, 4, 64, 0
6, 6552, Note_on_c, 4, 70, 56
6, 6560, Note_on_c, 4, 70, 0
6, 6564, Note_on_c, 4, 70, 56
6, 6572, Note_on_c, 4, 70, 0
6, 6576, Note_on_c, 4, 73, 56
6, 6584, Note_on_c, 4, 73, 0
6, 6588, Note_on_c, 4, 73, 56
6, 6596, Note_on_c, 4, 73, 0
6, 6600, Note_on_c, 4, 78, 56
6, 6608, Note_on_c, 4, 78, 0
6, 6612, Note_on_c, 4, 78, 56
6, 6620, Note_on_c, 4, 78, 0
6, 6624, Note_on_c, 4, 74, 56
6, 6640, Note_on_c, 4, 74, 0
6, 6648, Note_on_c, 4, 71, 56
6, 6664, Note_on_c, 4, 71, 0
6, 6720, Note_on_c, 4, 64, 56
6, 6728, Note_on_c, 4, 64, 0
6, 6732, Note_on_c, 4, 64, 56
6, 6740, Note_on_c, 4, 64, 0
6, 6744, Note_on_c, 4, 67, 56
6, 6752, Note_on_c, 4, 67, 0
6, 6756, Note_on_c, 4, 67, 56
6, 6764, Note_on_c, 4, 67, 0
6, 6768, Note_on_c, 4, 71, 56
6, 6776, Note_on_c, 4, 71, 0
6, 6780, Note_on_c, 4, 71, 56
6, 6788, Note_on_c, 4, 71, 0
6, 6792, Note_on_c, 4, 76, 56
6, 6800, Note_on_c, 4, 76, 0
6, 6804, Note_on_c, 4, 76, 56
6, 6812, Note_on_c, 4, 76, 0
6, 6816, Note_on_c, 4, 73, 56
6, 6832, Note_on_c, 4, 73, 0
6, 6840, Note_on_c, 4, 64, 56
6, 6856, Note_on_c, 4, 64, 0
6, 6912, Note_on_c, 4, 59, 56
6, 6920, Note_on_c, 4, 59, 0
6, 6924, Note_on_c, 4, 59, 56
6, 6932, Note_on_c, 4, 59, 0
6, 6936, Note_on_c, 4, 62, 56
6, 6944, Note_on_c, 4, 62, 0
6, 6948, Note_on_c, 4, 62, 56
6, 6956, Note_on_c, 4, 62, 0
6, 6960, Note_on_c, 4, 66, 56
6, 6968, Note_on_c, 4, 66, 0
6, 6972, Note_on_c, 4, 66, 56
6, 6980, Note_on_c, 4, 66, 0
6, 6984, Note_on_c, 4, 71, 56
6, 6992, Note_on_c, 4, 71, 0
6, 6996, Note_on_c, 4, 71, 56
6, 7004, Note_on_c, 4, 71, 0
6, 7008, Note_on_c, 4, 64, 56
6, 7016, Note_on_c, 4, 64, 0
6, 7020, Note_on_c, 4, 64, 56
6, 7028, Note_on_c, 4, 64, 0
6, 7032, Note_on_c, 4, 67, 56
6, 7040, Note_on_c, 4, 67, 0
6, 7044, Note_on_c, 4, 67, 56
6, 7052, Note_on_c, 4, 67, 0
6, 7056, Note_on_c, 4, 71, 56
6, 7064, Note_on_c, 4, 71, 0
6, 7068, Note_on_c, 4, 71, 56
6, 7076, Note_on_c, 4, 71, 0
6, 7080, Note_on_c, 4, 76, 56
6, 7088, Note_on_c, 4, 76, 0
6, 7092, Note_on_c, 4, 76, 56
6, 7100, Note_on_c, 4, 76, 0
6, 7104, Note_on_c, 4, 61, 56
6, 7136, Note_on_c, 4, 61, 0
6, 7392, Note_on_c, 4, 59, 95
6, 7400, Note_on_c, 4, 59, 0
6, 7404, Note_on_c, 4, 61, 95
6, 7412, Note_on_c, 4, 61, 0
6, 7416, Note_on_c, 4, 62, 95
6, 7424, Note_on_c, 4, 62, 0
6, 7428, Note_on_c, 4, 64, 95
6, 7436, Note_on_c, 4, 64, 0
6, 7440, Note_on_c, 4, 66, 95
6, 7448, Note_on_c, 4, 66, 0
6, 7452, Note_on_c, 4, 68, 95
6, 7460, Note_on_c, 4, 68, 0
6, 7464, Note_on_c, 4, 70, 95
6, 7472, Note_on_c, 4, 70, 0
6, 7476, Note_on_c, 4, 66, 95
6, 7484, Note_on_c, 4, 66, 0
6, 7488, Note_on_c, 4, 71, 95
6, 7496, Note_on_c, 4, 71, 0
6, 7500, Note_on_c, 4, 71, 95
6, 7508, Note_on_c, 4, 71, 0
6, 7512, Note_on_c, 4, 70, 95
6, 7520, Note_on_c, 4, 70, 0
6, 7524, Note_on_c, 4, 70, 95
6, 7532, Note_on_c, 4, 70, 0
6, 7536, Note_on_c, 4, 74, 95
6, 7544, Note_on_c, 4, 74, 0
6, 7548, Note_on_c, 4, 74, 95
6, 7556, Note_on_c, 4, 74, 0
6, 7560, Note_on_c, 4, 73, 95
6, 7568, Note_on_c, 4, 73, 0
6, 7572, Note_on_c, 4, 73, 95
6, 7580, Note_on_c, 4, 73, 0
6, 7584, Note_on_c, 4, 76, 95
6, 7592, Note_on_c, 4, 76, 0
6, 7596, Note_on_c, 4, 76, 95
6, 7604, Note_on_c, 4, 76, 0
6, 7608, Note_on_c, 4, 75, 95
6, 7616, Note_on_c, 4, 75, 0
6, 7620, Note_on_c, 4, 75, 95
6, 7628, Note_on_c, 4, 75, 0
6, 7632, Note_on_c, 4, 79, 95
6, 7640, Note_on_c, 4, 79, 0
6, 7644, Note_on_c, 4, 79, 95
6, 7652, Note_on_c, 4, 79, 0
6, 7656, Note_on_c, 4, 78, 95
6, 7664, Note_on_c, 4, 78, 0
6, 7668, Note_on_c, 4, 78, 95
6, 7676, Note_on_c, 4, 78, 0
6, 7680, Note_on_c, 4, 82, 95
6, 7692, Note_on_c, 4, 82, 0
6, 7692, Note_on_c, 4, 82, 95
6, 7704, Note_on_c, 4, 82, 0
6, 7704, Note_on_c, 4, 83, 95
6, 7716, Note_on_c, 4, 83, 0
6, 7716, Note_on_c, 4, 83, 95
6, 7728, Note_on_c, 4, 83, 0
6, 7728, Note_on_c, 4, 77, 95
6, 7740, Note_on_c, 4, 77, 0
6, 7740, Note_on_c, 4, 77, 95
6, 7752, Note_on_c, 4, 77, 0
6, 7752, Note_on_c, 4, 78, 95
6, 7764, Note_on_c, 4, 78, 0
6, 7764, Note_on_c, 4, 78, 95
6, 7776, Note_on_c, 4, 78, 0
6, 7776, Note_on_c, 4, 76, 95
6, 7788, Note_on_c, 4, 76, 0
6, 7788, Note_on_c, 4, 74, 95
6, 7800, Note_on_c, 4, 74, 0
6, 7800, Note_on_c, 4, 73, 95
6, 7812, Note_on_c, 4, 73, 0
6, 7812, Note_on_c, 4, 71, 95
6, 7824, Note_on_c, 4, 71, 0
6, 7824, Note_on_c, 4, 74, 95
6, 7836, Note_on_c, 4, 74, 0
6, 7836, Note_on_c, 4, 73, 95
6, 7848, Note_on_c, 4, 73, 0
6, 7848, Note_on_c, 4, 71, 95
6, 7860, Note_on_c, 4, 71, 0
6, 7860, Note_on_c, 4, 70, 95
6, 7872, Note_on_c, 4, 70, 0
6, 7872, Note_on_c, 4, 71, 95
6, 7920, Note_on_c, 4, 71, 0
6, 8352, Note_on_c, 4, 64, 79
6, 8362, Note_on_c, 4, 64, 0
6, 8364, Note_on_c, 4, 64, 79
6, 8374, Note_on_c, 4, 64, 0
6, 8376, Note_on_c, 4, 67, 79
6, 8386, Note_on_c, 4, 67, 0
6, 8388, Note_on_c, 4, 67, 79
6, 8398, Note_on_c, 4, 67, 0
6, 8400, Note_on_c, 4, 71, 79
6, 8410, Note_on_c, 4, 71, 0
6, 8412, Note_on_c, 4, 71, 79
6, 8422, Note_on_c, 4, 71, 0
6, 8424, Note_on_c, 4, 76, 79
6, 8434, Note_on_c, 4, 76, 0
6, 8436, Note_on_c, 4, 76, 79
6, 8446, Note_on_c, 4, 76, 0
6, 8448, Note_on_c, 4, 73, 79
6, 8468, Note_on_c, 4, 73, 0
6, 8472, Note_on_c, 4, 69, 79
6, 8492, Note_on_c, 4, 69, 0
6, 8856, Note_on_c, 4, 71, 79
6, 8864, Note_on_c, 4, 71, 0
6, 8880, Note_on_c, 4, 61, 79
6, 8888, Note_on_c, 4, 61, 0
6, 8904, Note_on_c, 4, 64, 79
6, 8912, Note_on_c, 4, 64, 0
6, 8928, Note_on_c, 4, 66, 79
6, 8936, Note_on_c, 4, 66, 0
6, 8952, Note_on_c, 4, 69, 79
6, 8960, Note_on_c, 4, 69, 0
6, 8976, Note_on_c, 4, 59, 79
6, 8984, Note_on_c, 4, 59, 0
6, 9000, Note_on_c, 4, 62, 79
6, 9008, Note_on_c, 4, 62, 0
6, 9024, Note_on_c, 4, 64, 79
6, 9044, Note_on_c, 4, 64, 0
6, 9048, Note_on_c, 4, 67, 79
6, 9068, Note_on_c, 4, 67, 0
6, 9072, Note_on_c, 4, 57, 79
6, 9092, Note_on_c, 4, 57, 0
6, 9096, Note_on_c, 4, 61, 79
6, 9116, Note_on_c, 4, 61, 0
6, 9120, Note_on_c, 4, 62, 79
6, 9140, Note_on_c, 4, 62, 0
6, 9144, Note_on_c, 4, 69, 79
6, 9164, Note_on_c, 4, 69, 0
6, 9168, Note_on_c, 4, 66, 79
6, 9188, Note_on_c, 4, 66, 0
6, 9192, Note_on_c, 4, 62, 79
6, 9212, Note_on_c, 4, 62, 0
6, 9216, Note_on_c, 4, 57, 79
6, 9226, Note_on_c, 4, 57, 0
6, 9228, Note_on_c, 4, 57, 79
6, 9238, Note_on_c, 4, 57, 0
6, 9240, Note_on_c, 4, 61, 79
6, 9250, Note_on_c, 4, 61, 0
6, 9252, Note_on_c, 4, 61, 79
6, 9262, Note_on_c, 4, 61, 0
6, 9264, Note_on_c, 4, 64, 79
6, 9274, Note_on_c, 4, 64, 0
6, 9276, Note_on_c, 4, 64, 79
6, 9286, Note_on_c, 4, 64, 0
6, 9288, Note_on_c, 4, 69, 79
6, 9298, Note_on_c, 4, 69, 0
6, 9300, Note_on_c, 4, 69, 79
6, 9310, Note_on_c, 4, 69, 0
6, 9312, Note_on_c, 4, 62, 79
6, 9322, Note_on_c, 4, 62, 0
6, 9324, Note_on_c, 4, 62, 79
6, 9334, Note_on_c, 4, 62, 0
6, 9336, Note_on_c, 4, 66, 79
6, 9346, Note_on_c, 4, 66, 0
6, 9348, Note_on_c, 4, 66, 79
6, 9358, Note_on_c, 4, 66, 0
6, 9360, Note_on_c, 4, 69, 79
6, 9370, Note_on_c, 4, 69, 0
6, 9372, Note_on_c, 4, 69, 79
6, 9382, Note_on_c, 4, 69, 0
6, 9384, Note_on_c, 4, 74, 79
6, 9394, Note_on_c, 4, 74, 0
6, 9396, Note_on_c, 4, 74, 79
6, 9406, Note_on_c, 4, 74, 0
6, 9408, Note_on_c, 4, 76, 79
6, 9428, Note_on_c, 4, 76, 0
6, 9432, Note_on_c, 4, 69, 79
6, 9452, Note_on_c, 4, 69, 0
6, 9480, Note_on_c, 4, 69, 79
6, 9500, Note_on_c, 4, 69, 0
6, 9504, Note_on_c, 4, 66, 79
6, 9524, Note_on_c, 4, 66, 0
6, 9576, Note_on_c, 4, 74, 79
6, 9596, Note_on_c, 4, 74, 0
6, 9600, Note_on_c, 4, 71, 79
6, 9620, Note_on_c, 4, 71, 0
6, 9672, Note_on_c, 4, 71, 79
6, 9692, Note_on_c, 4, 71, 0
6, 9696, Note_on_c, 4, 67, 79
6, 9716, Note_on_c, 4, 67, 0
6, 9816, Note_on_c, 4, 73, 79
6, 9836, Note_on_c, 4, 73, 0
6, 9840, Note_on_c, 4, 74, 79
6, 9860, Note_on_c, 4, 74, 0
6, 9864, Note_on_c, 4, 76, 79
6, 9884, Note_on_c, 4, 76, 0
6, 9888, Note_on_c, 4, 74, 79
6, 9908, Note_on_c, 4, 74, 0
6, 9960, Note_on_c, 4, 83, 79
6, 9980, Note_on_c, 4, 83, 0
6, 9984, Note_on_c, 4, 79, 79
6, 10004, Note_on_c, 4, 79, 0
6, 10056, Note_on_c, 4, 83, 79
6, 10076, Note_on_c, 4, 83, 0
6, 10080, Note_on_c, 4, 76, 79
6, 10100, Note_on_c, 4, 76, 0
6, 10200, Note_on_c, 4, 73, 79
6, 10220, Note_on_c, 4, 73, 0
6, 10224, Note_on_c, 4, 74, 79
6, 10244, Note_on_c, 4, 74, 0
6, 10248, Note_on_c, 4, 72, 79
6, 10268, Note_on_c, 4, 72, 0
6, 10272, Note_on_c, 4, 71, 79
6, 10292, Note_on_c, 4, 71, 0
6, 10344, Note_on_c, 4, 79, 79
6, 10364, Note_on_c, 4, 79, 0
6, 10368, Note_on_c, 4, 76, 79
6, 10388, Note_on_c, 4, 76, 0
6, 10464, Note_on_c, 4, 79, 56
6, 10484, Note_on_c, 4, 79, 0
6, 10488, Note_on_c, 4, 78, 56
6, 10508, Note_on_c, 4, 78, 0
6, 10584, Note_on_c, 4, 69, 79
6, 10604, Note_on_c, 4, 69, 0
6, 10608, Note_on_c, 4, 71, 79
6, 10628, Note_on_c, 4, 71, 0
6, 10632, Note_on_c, 4, 72, 79
6, 10652, Note_on_c, 4, 72, 0
6, 10656, Note_on_c, 4, 71, 79
6, 10676, Note_on_c, 4, 71, 0
6, 11016, Note_on_c, 4, 76, 95
6, 11036, Note_on_c, 4, 76, 0
6, 11040, Note_on_c, 4, 78, 95
6, 11050, Note_on_c, 4, 78, 0
6, 11052, Note_on_c, 4, 78, 95
6, 11062, Note_on_c, 4, 78, 0
6, 11064, Note_on_c, 4, 76, 95
6, 11074, Note_on_c, 4, 76, 0
6, 11076, Note_on_c, 4, 76, 95
6, 11086, Note_on_c, 4, 76, 0
6, 11088, Note_on_c, 4, 79, 95
6, 11098, Note_on_c, 4, 79, 0
6, 11100, Note_on_c, 4, 79, 95
6, 11110, Note_on_c, 4, 79, 0
6, 11112, Note_on_c, 4, 78, 95
6, 11122, Note_on_c, 4, 78, 0
6, 11124, Note_on_c, 4, 78, 95
6, 11134, Note_on_c, 4, 78, 0
6, 11136, Note_on_c, 4, 83, 95
6, 11146, Note_on_c, 4, 83, 0
6, 11148, Note_on_c, 4, 83, 95
6, 11158, Note_on_c, 4, 83, 0
6, 11160, Note_on_c, 4, 81, 95
6, 11170, Note_on_c, 4, 81, 0
6, 11172, Note_on_c, 4, 81, 95
6, 11182, Note_on_c, 4, 81, 0
6, 11184, Note_on_c, 4, 73, 95
6, 11194, Note_on_c, 4, 73, 0
6, 11196, Note_on_c, 4, 73, 95
6, 11206, Note_on_c, 4, 73, 0
6, 11208, Note_on_c, 4, 74, 95
6, 11218, Note_on_c, 4, 74, 0
6, 11220, Note_on_c, 4, 74, 95
6, 11230, Note_on_c, 4, 74, 0
6, 11232, Note_on_c, 4, 67, 95
6, 11242, Note_on_c, 4, 67, 0
6, 11244, Note_on_c, 4, 67, 95
6, 11254, Note_on_c, 4, 67, 0
6, 11256, Note_on_c, 4, 66, 95
6, 11266, Note_on_c, 4, 66, 0
6, 11268, Note_on_c, 4, 66, 95
6, 11278, Note_on_c, 4, 66, 0
6, 11280, Note_on_c, 4, 71, 95
6, 11290, Note_on_c, 4, 71, 0
6, 11292, Note_on_c, 4, 71, 95
6, 11302, Note_on_c, 4, 71, 0
6, 11304, Note_on_c, 4, 69, 95
6, 11314, Note_on_c, 4, 69, 0
6, 11316, Note_on_c, 4, 69, 95
6, 11326, Note_on_c, 4, 69, 0
6, 11328, Note_on_c, 4, 61, 95
6, 11338, Note_on_c, 4, 61, 0
6, 11340, Note_on_c, 4, 61, 95
6, 11350, Note_on_c, 4, 61, 0
6, 11352, Note_on_c, 4, 62, 95
6, 11362, Note_on_c, 4, 62, 0
6, 11364, Note_on_c, 4, 62, 95
6, 11374, Note_on_c, 4, 62, 0
6, 11376, Note_on_c, 4, 57, 95
6, 11386, Note_on_c, 4, 57, 0
6, 11388, Note_on_c, 4, 57, 95
6, 11398, Note_on_c, 4, 57, 0
6, 11400, Note_on_c, 4, 67, 95
6, 11410, Note_on_c, 4, 67, 0
6, 11412, Note_on_c, 4, 67, 95
6, 11422, Note_on_c, 4, 67, 0
6, 11424, Note_on_c, 4, 66, 95
6, 11434, Note_on_c, 4, 66, 0
6, 11436, Note_on_c, 4, 64, 95
6, 11446, Note_on_c, 4, 64, 0
6, 11448, Note_on_c, 4, 66, 95
6, 11458, Note_on_c, 4, 66, 0
6, 11460, Note_on_c, 4, 62, 95
6, 11470, Note_on_c, 4, 62, 0
6, 11472, Note_on_c, 4, 64, 95
6, 11482, Note_on_c, 4, 64, 0
6, 11484, Note_on_c, 4, 64, 95
6, 11494, Note_on_c, 4, 64, 0
6, 11496, Note_on_c, 4, 57, 95
6, 11506, Note_on_c, 4, 57, 0
6, 11508, Note_on_c, 4, 57, 95
6, 11518, Note_on_c, 4, 57, 0
6, 11520, Note_on_c, 4, 62, 95
6, 11540, Note_on_c, 4, 62, 0
6, 12120, Note_on_c, 4, 76, 63
6, 12140, Note_on_c, 4, 76, 0
6, 12144, Note_on_c, 4, 76, 63
6, 12164, Note_on_c, 4, 76, 0
6, 12168, Note_on_c, 4, 76, 63
6, 12188, Note_on_c, 4, 76, 0
6, 12192, Note_on_c, 4, 76, 63
6, 12212, Note_on_c, 4, 76, 0
6, 12792, Note_on_c, 4, 71, 63
6, 12812, Note_on_c, 4, 71, 0
6, 12816, Note_on_c, 4, 71, 63
6, 12836, Note_on_c, 4, 71, 0
6, 12840, Note_on_c, 4, 71, 63
6, 12860, Note_on_c, 4, 71, 0
6, 12864, Note_on_c, 4, 71, 63
6, 12884, Note_on_c, 4, 71, 0
6, 13440, Note_on_c, 4, 69, 56
6, 13464, Note_on_c, 4, 69, 0
6, 13464, Note_on_c, 4, 69, 56
6, 13488, Note_on_c, 4, 69, 0
6, 13488, Note_on_c, 4, 69, 56
6, 13512, Note_on_c, 4, 69, 0
6, 13512, Note_on_c, 4, 69, 56
6, 13536, Note_on_c, 4, 69, 0
6, 13536, Note_on_c, 4, 69, 56
6, 13560, Note_on_c, 4, 69, 0
6, 13560, Note_on_c, 4, 69, 56
6, 13584, Note_on_c, 4, 69, 0
6, 13584, Note_on_c, 4, 69, 56
6, 13608, Note_on_c, 4, 69, 0
6, 13608, Note_on_c, 4, 69, 56
6, 13632, Note_on_c, 4, 69, 0
6, 13632, Note_on_c, 4, 69, 56
6, 13656, Note_on_c, 4, 69, 0
6, 13656, Note_on_c, 4, 69, 56
6, 13680, Note_on_c, 4, 69, 0
6, 13680, Note_on_c, 4, 69, 56
6, 13704, Note_on_c, 4, 69, 0
6, 13704, Note_on_c, 4, 69, 56
6, 13728, Note_on_c, 4, 69, 0
6, 13728, Note_on_c, 4, 69, 56
6, 13752, Note_on_c, 4, 69, 0
6, 13752, Note_on_c, 4, 69, 56
6, 13776, Note_on_c, 4, 69, 0
6, 13776, Note_on_c, 4, 69, 56
6, 13800, Note_on_c, 4, 69, 0
6, 13800, Note_on_c, 4, 69, 56
6, 13824, Note_on_c, 4, 69, 0
6, 13824, Note_on_c, 4, 71, 56
6, 13848, Note_on_c, 4, 71, 0
6, 13848, Note_on_c, 4, 71, 56
6, 13872, Note_on_c, 4, 71, 0
6, 13872, Note_on_c, 4, 71, 56
6, 13896, Note_on_c, 4, 71, 0
6, 13896, Note_on_c, 4, 71, 56
6, 13920, Note_on_c, 4, 71, 0
6, 13920, Note_on_c, 4, 71, 56
6, 13944, Note_on_c, 4, 71, 0
6, 13944, Note_on_c, 4, 71, 56
6, 13968, Note_on_c, 4, 71, 0
6, 13968, Note_on_c, 4, 71, 56
6, 13992, Note_on_c, 4, 71, 0
6, 13992, Note_on_c, 4, 71, 56
6, 14016, Note_on_c, 4, 71, 0
6, 14016, Note_on_c, 4, 69, 56
6, 14040, Note_on_c, 4, 69, 0
6, 14040, Note_on_c, 4, 69, 56
6, 14064, Note_on_c, 4, 69, 0
6, 14064, Note_on_c, 4, 69, 56
6, 14088, Note_on_c, 4, 69, 0
6, 14088, Note_on_c, 4, 69, 56
6, 14112, Note_on_c, 4, 69, 0
6, 14112, Note_on_c, 4, 69, 56
6, 14136, Note_on_c, 4, 69, 0
6, 14136, Note_on_c, 4, 69, 56
6, 14160, Note_on_c, 4, 69, 0
6, 14160, Note_on_c, 4, 69, 56
6, 14184, Note_on_c, 4, 69, 0
6, 14184, Note_on_c, 4, 69, 56
6, 14208, Note_on_c, 4, 69, 0
6, 14208, Note_on_c, 4, 69, 56
6, 14232, Note_on_c, 4, 69, 0
6, 14232, Note_on_c, 4, 69, 56
6, 14256, Note_on_c, 4, 69, 0
6, 14256, Note_on_c, 4, 69, 56
6, 14280, Note_on_c, 4, 69, 0
6, 14280, Note_on_c, 4, 69, 56
6, 14304, Note_on_c, 4, 69, 0
6, 14304, Note_on_c, 4, 69, 56
6, 14328, Note_on_c, 4, 69, 0
6, 14328, Note_on_c, 4, 69, 56
6, 14352, Note_on_c, 4, 69, 0
6, 14352, Note_on_c, 4, 69, 56
6, 14376, Note_on_c, 4, 69, 0
6, 14376, Note_on_c, 4, 69, 56
6, 14400, Note_on_c, 4, 69, 0
6, 14400, Note_on_c, 4, 71, 56
6, 14424, Note_on_c, 4, 71, 0
6, 14424, Note_on_c, 4, 71, 56
6, 14448, Note_on_c, 4, 71, 0
6, 14448, Note_on_c, 4, 71, 56
6, 14472, Note_on_c, 4, 71, 0
6, 14472, Note_on_c, 4, 71, 56
6, 14496, Note_on_c, 4, 71, 0
6, 14496, Note_on_c, 4, 71, 56
6, 14520, Note_on_c, 4, 71, 0
6, 14520, Note_on_c, 4, 71, 56
6, 14544, Note_on_c, 4, 71, 0
6, 14544, Note_on_c, 4, 71, 56
6, 14568, Note_on_c, 4, 71, 0
6, 14568, Note_on_c, 4, 71, 56
6, 14592, Note_on_c, 4, 71, 0
6, 14592, Note_on_c, 4, 73, 56
6, 14616, Note_on_c, 4, 73, 0
6, 14616, Note_on_c, 4, 73, 56
6, 14640, Note_on_c, 4, 73, 0
6, 14640, Note_on_c, 4, 73, 56
6, 14664, Note_on_c, 4, 73, 0
6, 14664, Note_on_c, 4, 73, 56
6, 14688, Note_on_c, 4, 73, 0
6, 14688, Note_on_c, 4, 73, 56
6, 14712, Note_on_c, 4, 73, 0
6, 14712, Note_on_c, 4, 73, 56
6, 14736, Note_on_c, 4, 73, 0
6, 14736, Note_on_c, 4, 73, 56
6, 14760, Note_on_c, 4, 73, 0
6, 14760, Note_on_c, 4, 73, 56
6, 14784, Note_on_c, 4, 73, 0
6, 14784, Note_on_c, 4, 74, 56
6, 14808, Note_on_c, 4, 74, 0
6, 14808, Note_on_c, 4, 74, 56
6, 14832, Note_on_c, 4, 74, 0
6, 14832, Note_on_c, 4, 74, 56
6, 14856, Note_on_c, 4, 74, 0
6, 14856, Note_on_c, 4, 74, 56
6, 14880, Note_on_c, 4, 74, 0
6, 14880, Note_on_c, 4, 74, 56
6, 14904, Note_on_c, 4, 74, 0
6, 14904, Note_on_c, 4, 74, 56
6, 14928, Note_on_c, 4, 74, 0
6, 14928, Note_on_c, 4, 74, 56
6, 14952, Note_on_c, 4, 74, 0
6, 14952, Note_on_c, 4, 74, 56
6, 14976, Note_on_c, 4, 74, 0
6, 14976, Note_on_c, 4, 71, 56
6, 15000, Note_on_c, 4, 71, 0
6, 15000, Note_on_c, 4, 71, 56
6, 15024, Note_on_c, 4, 71, 0
6, 15024, Note_on_c, 4, 71, 56
6, 15048, Note_on_c, 4, 71, 0
6, 15048, Note_on_c, 4, 71, 56
6, 15072, Note_on_c, 4, 71, 0
6, 15072, Note_on_c, 4, 71, 56
6, 15096, Note_on_c, 4, 71, 0
6, 15096, Note_on_c, 4, 71, 56
6, 15120, Note_on_c, 4, 71, 0
6, 15120, Note_on_c, 4, 71, 56
6, 15144, Note_on_c, 4, 71, 0
6, 15144, Note_on_c, 4, 71, 56
6, 15168, Note_on_c, 4, 71, 0
6, 15168, Note_on_c, 4, 69, 56
6, 15192, Note_on_c, 4, 69, 0
6, 15192, Note_on_c, 4, 69, 56
6, 15216, Note_on_c, 4, 69, 0
6, 15216, Note_on_c, 4, 69, 56
6, 15240, Note_on_c, 4, 69, 0
6, 15240, Note_on_c, 4, 69, 56
6, 15264, Note_on_c, 4, 69, 0
6, 15264, Note_on_c, 4, 69, 56
6, 15288, Note_on_c, 4, 69, 0
6, 15288, Note_on_c, 4, 69, 56
6, 15312, Note_on_c, 4, 69, 0
6, 15312, Note_on_c, 4, 69, 56
6, 15336, Note_on_c, 4, 69, 0
6, 15336, Note_on_c, 4, 69, 56
6, 15360, Note_on_c, 4, 69, 0
6, 15360, Note_on_c, 4, 73, 56
6, 15408, Note_on_c, 4, 73, 0
6, 15552, Note_on_c, 4, 71, 56
6, 15576, Note_on_c, 4, 71, 0
6, 15576, Note_on_c, 4, 71, 56
6, 15600, Note_on_c, 4, 71, 0
6, 15600, Note_on_c, 4, 71, 56
6, 15624, Note_on_c, 4, 71, 0
6, 15624, Note_on_c, 4, 71, 56
6, 15648, Note_on_c, 4, 71, 0
6, 15648, Note_on_c, 4, 71, 56
6, 15672, Note_on_c, 4, 71, 0
6, 15672, Note_on_c, 4, 71, 56
6, 15696, Note_on_c, 4, 71, 0
6, 15696, Note_on_c, 4, 71, 56
6, 15720, Note_on_c, 4, 71, 0
6, 15720, Note_on_c, 4, 71, 56
6, 15744, Note_on_c, 4, 71, 0
6, 15744, Note_on_c, 4, 71, 56
6, 15792, Note_on_c, 4, 71, 0
6, 15936, Note_on_c, 4, 69, 56
6, 15960, Note_on_c, 4, 69, 0
6, 15960, Note_on_c, 4, 69, 56
6, 15984, Note_on_c, 4, 69, 0
6, 15984, Note_on_c, 4, 69, 56
6, 16008, Note_on_c, 4, 69, 0
6, 16008, Note_on_c, 4, 69, 56
6, 16032, Note_on_c, 4, 69, 0
6, 16032, Note_on_c, 4, 69, 56
6, 16056, Note_on_c, 4, 69, 0
6, 16056, Note_on_c, 4, 69, 56
6, 16080, Note_on_c, 4, 69, 0
6, 16080, Note_on_c, 4, 69, 56
6, 16104, Note_on_c, 4, 69, 0
6, 16104, Note_on_c, 4, 69, 56
6, 16128, Note_on_c, 4, 69, 0
6, 16128, Note_on_c, 4, 69, 56
6, 16176, Note_on_c, 4, 69, 0
6, 16320, Note_on_c, 4, 68, 56
6, 16344, Note_on_c, 4, 68, 0
6, 16344, Note_on_c, 4, 68, 56
6, 16368, Note_on_c, 4, 68, 0
6, 16368, Note_on_c, 4, 68, 56
6, 16392, Note_on_c, 4, 68, 0
6, 16392, Note_on_c, 4, 68, 56
6, 16416, Note_on_c, 4, 68, 0
6, 16416, Note_on_c, 4, 68, 56
6, 16440, Note_on_c, 4, 68, 0
6, 16440, Note_on_c, 4, 68, 56
6, 16464, Note_on_c, 4, 68, 0
6, 16464, Note_on_c, 4, 68, 56
6, 16488, Note_on_c, 4, 68, 0
6, 16488, Note_on_c, 4, 68, 56
6, 16512, Note_on_c, 4, 68, 0
6, 16512, Note_on_c, 4, 68, 56
6, 16560, Note_on_c, 4, 68, 0
6, 16704, Note_on_c, 4, 66, 56
6, 16728, Note_on_c, 4, 66, 0
6, 16728, Note_on_c, 4, 66, 56
6, 16752, Note_on_c, 4, 66, 0
6, 16752, Note_on_c, 4, 66, 56
6, 16776, Note_on_c, 4, 66, 0
6, 16776, Note_on_c, 4, 66, 56
6, 16800, Note_on_c, 4, 66, 0
6, 16800, Note_on_c, 4, 66, 56
6, 16824, Note_on_c, 4, 66, 0
6, 16824, Note_on_c, 4, 66, 56
6, 16848, Note_on_c, 4, 66, 0
6, 16848, Note_on_c, 4, 66, 56
6, 16872, Note_on_c, 4, 66, 0
6, 16872, Note_on_c, 4, 66, 56
6, 16896, Note_on_c, 4, 66, 0
6, 16896, Note_on_c, 4, 66, 56
6, 16944, Note_on_c, 4, 66, 0
6, 17088, Note_on_c, 4, 64, 56
6, 17112, Note_on_c, 4, 64, 0
6, 17112, Note_on_c, 4, 64, 56
6, 17136, Note_on_c, 4, 64, 0
6, 17136, Note_on_c, 4, 64, 56
6, 17160, Note_on_c, 4, 64, 0
6, 17160, Note_on_c, 4, 64, 56
6, 17184, Note_on_c, 4, 64, 0
6, 17184, Note_on_c, 4, 64, 56
6, 17208, Note_on_c, 4, 64, 0
6, 17208, Note_on_c, 4, 64, 56
6, 17232, Note_on_c, 4, 64, 0
6, 17232, Note_on_c, 4, 64, 56
6, 17256, Note_on_c, 4, 64, 0
6, 17256, Note_on_c, 4, 64, 56
6, 17280, Note_on_c, 4, 64, 0
6, 17280, Note_on_c, 4, 64, 56
6, 17328, Note_on_c, 4, 64, 0
6, 17472, Note_on_c, 4, 62, 56
6, 17496, Note_on_c, 4, 62, 0
6, 17496, Note_on_c, 4, 62, 56
6, 17520, Note_on_c, 4, 62, 0
6, 17520, Note_on_c, 4, 62, 56
6, 17544, Note_on_c, 4, 62, 0
6, 17544, Note_on_c, 4, 62, 56
6, 17568, Note_on_c, 4, 62, 0
6, 17568, Note_on_c, 4, 62, 56
6, 17592, Note_on_c, 4, 62, 0
6, 17592, Note_on_c, 4, 62, 56
6, 17616, Note_on_c, 4, 62, 0
6, 17616, Note_on_c, 4, 62, 56
6, 17640, Note_on_c, 4, 62, 0
6, 17640, Note_on_c, 4, 62, 56
6, 17664, Note_on_c, 4, 62, 0
6, 17664, Note_on_c, 4, 59, 56
6, 17712, Note_on_c, 4, 59, 0
6, 17856, Note_on_c, 4, 64, 56
6, 17904, Note_on_c, 4, 64, 0
6, 18072, Note_on_c, 4, 71, 56
6, 18096, Note_on_c, 4, 71, 0
6, 18096, Note_on_c, 4, 71, 56
6, 18120, Note_on_c, 4, 71, 0
6, 18120, Note_on_c, 4, 71, 56
6, 18144, Note_on_c, 4, 71, 0
6, 18168, Note_on_c, 4, 71, 56
6, 18192, Note_on_c, 4, 71, 0
6, 18192, Note_on_c, 4, 71, 56
6, 18216, Note_on_c, 4, 71, 0
6, 18216, Note_on_c, 4, 71, 56
6, 18240, Note_on_c, 4, 71, 0
6, 18264, Note_on_c, 4, 72, 56
6, 18288, Note_on_c, 4, 72, 0
6, 18288, Note_on_c, 4, 72, 56
6, 18312, Note_on_c, 4, 72, 0
6, 18312, Note_on_c, 4, 72, 56
6, 18336, Note_on_c, 4, 72, 0
6, 18360, Note_on_c, 4, 72, 56
6, 18384, Note_on_c, 4, 72, 0
6, 18384, Note_on_c, 4, 72, 56
6, 18408, Note_on_c, 4, 72, 0
6, 18408, Note_on_c, 4, 72, 56
6, 18432, Note_on_c, 4, 72, 0
6, 18456, Note_on_c, 4, 71, 56
6, 18480, Note_on_c, 4, 71, 0
6, 18480, Note_on_c, 4, 71, 56
6, 18504, Note_on_c, 4, 71, 0
6, 18504, Note_on_c, 4, 71, 56
6, 18528, Note_on_c, 4, 71, 0
6, 18552, Note_on_c, 4, 71, 56
6, 18576, Note_on_c, 4, 71, 0
6, 18576, Note_on_c, 4, 71, 56
6, 18600, Note_on_c, 4, 71, 0
6, 18600, Note_on_c, 4, 71, 56
6, 18624, Note_on_c, 4, 71, 0
6, 18648, Note_on_c, 4, 69, 56
6, 18672, Note_on_c, 4, 69, 0
6, 18672, Note_on_c, 4, 69, 56
6, 18696, Note_on_c, 4, 69, 0
6, 18696, Note_on_c, 4, 69, 56
6, 18720, Note_on_c, 4, 69, 0
6, 18744, Note_on_c, 4, 69, 56
6, 18768, Note_on_c, 4, 69, 0
6, 18768, Note_on_c, 4, 69, 56
6, 18792, Note_on_c, 4, 69, 0
6, 18792, Note_on_c, 4, 69, 56
6, 18816, Note_on_c, 4, 69, 0
6, 18840, Note_on_c, 4, 65, 56
6, 18864, Note_on_c, 4, 65, 0
6, 18864, Note_on_c, 4, 65, 56
6, 18888, Note_on_c, 4, 65, 0
6, 18888, Note_on_c, 4, 65, 56
6, 18912, Note_on_c, 4, 65, 0
6, 18936, Note_on_c, 4, 65, 56
6, 18960, Note_on_c, 4, 65, 0
6, 18960, Note_on_c, 4, 65, 56
6, 18984, Note_on_c, 4, 65, 0
6, 18984, Note_on_c, 4, 65, 56
6, 19008, Note_on_c, 4, 65, 0
6, 19032, Note_on_c, 4, 64, 56
6, 19056, Note_on_c, 4, 64, 0
6, 19056, Note_on_c, 4, 64, 56
6, 19080, Note_on_c, 4, 64, 0
6, 19080, Note_on_c, 4, 64, 56
6, 19104, Note_on_c, 4, 64, 0
6, 19128, Note_on_c, 4, 64, 56
6, 19152, Note_on_c, 4, 64, 0
6, 19152, Note_on_c, 4, 64, 56
6, 19176, Note_on_c, 4, 64, 0
6, 19176, Note_on_c, 4, 64, 56
6, 19200, Note_on_c, 4, 64, 0
6, 19200, Note_on_c, 4, 64, 95
6, 19212, Note_on_c, 4, 64, 0
6, 19212, Note_on_c, 4, 69, 95
6, 19224, Note_on_c, 4, 69, 0
6, 19224, Note_on_c, 4, 73, 95
6, 19236, Note_on_c, 4, 73, 0
6, 19236, Note_on_c, 4, 73, 95
6, 19248, Note_on_c, 4, 73, 0
6, 19248, Note_on_c, 4, 76, 95
6, 19258, Note_on_c, 4, 76, 0
6, 19260, Note_on_c, 4, 76, 95
6, 19270, Note_on_c, 4, 76, 0
6, 19272, Note_on_c, 4, 81, 95
6, 19282, Note_on_c, 4, 81, 0
6, 19284, Note_on_c, 4, 81, 95
6, 19294, Note_on_c, 4, 81, 0
6, 19296, Note_on_c, 4, 80, 95
6, 19306, Note_on_c, 4, 80, 0
6, 19308, Note_on_c, 4, 81, 95
6, 19318, Note_on_c, 4, 81, 0
6, 19320, Note_on_c, 4, 80, 95
6, 19330, Note_on_c, 4, 80, 0
6, 19332, Note_on_c, 4, 78, 95
6, 19342, Note_on_c, 4, 78, 0
6, 19344, Note_on_c, 4, 76, 95
6, 19354, Note_on_c, 4, 76, 0
6, 19356, Note_on_c, 4, 74, 95
6, 19366, Note_on_c, 4, 74, 0
6, 19368, Note_on_c, 4, 73, 95
6, 19378, Note_on_c, 4, 73, 0
6, 19380, Note_on_c, 4, 71, 95
6, 19390, Note_on_c, 4, 71, 0
6, 19392, Note_on_c, 4, 69, 95
6, 19402, Note_on_c, 4, 69, 0
6, 19404, Note_on_c, 4, 69, 95
6, 19414, Note_on_c, 4, 69, 0
6, 19416, Note_on_c, 4, 73, 95
6, 19426, Note_on_c, 4, 73, 0
6, 19428, Note_on_c, 4, 73, 95
6, 19438, Note_on_c, 4, 73, 0
6, 19440, Note_on_c, 4, 76, 95
6, 19450, Note_on_c, 4, 76, 0
6, 19452, Note_on_c, 4, 76, 95
6, 19462, Note_on_c, 4, 76, 0
6, 19464, Note_on_c, 4, 81, 95
6, 19474, Note_on_c, 4, 81, 0
6, 19476, Note_on_c, 4, 81, 95
6, 19486, Note_on_c, 4, 81, 0
6, 19488, Note_on_c, 4, 83, 95
6, 19508, Note_on_c, 4, 83, 0
6, 19512, Note_on_c, 4, 76, 95
6, 19532, Note_on_c, 4, 76, 0
6, 20040, Note_on_c, 4, 71, 63
6, 20060, Note_on_c, 4, 71, 0
6, 20064, Note_on_c, 4, 73, 63
6, 20084, Note_on_c, 4, 73, 0
6, 20088, Note_on_c, 4, 69, 63
6, 20108, Note_on_c, 4, 69, 0
6, 20616, Note_on_c, 4, 73, 63
6, 20636, Note_on_c, 4, 73, 0
6, 20640, Note_on_c, 4, 74, 63
6, 20660, Note_on_c, 4, 74, 0
6, 20664, Note_on_c, 4, 69, 63
6, 20684, Note_on_c, 4, 69, 0
6, 20688, Note_on_c, 4, 74, 63
6, 20708, Note_on_c, 4, 74, 0
6, 20712, Note_on_c, 4, 69, 63
6, 20732, Note_on_c, 4, 69, 0
6, 20760, Note_on_c, 4, 69, 63
6, 20780, Note_on_c, 4, 69, 0
6, 20784, Note_on_c, 4, 76, 63
6, 20804, Note_on_c, 4, 76, 0
6, 20808, Note_on_c, 4, 69, 63
6, 20828, Note_on_c, 4, 69, 0
6, 20856, Note_on_c, 4, 69, 63
6, 20876, Note_on_c, 4, 69, 0
6, 20880, Note_on_c, 4, 78, 63
6, 20900, Note_on_c, 4, 78, 0
6, 20904, Note_on_c, 4, 69, 63
6, 20924, Note_on_c, 4, 69, 0
6, 20928, Note_on_c, 4, 69, 63
6, 20938, Note_on_c, 4, 69, 0
6, 20940, Note_on_c, 4, 69, 63
6, 20950, Note_on_c, 4, 69, 0
6, 20952, Note_on_c, 4, 73, 63
6, 20962, Note_on_c, 4, 73, 0
6, 20964, Note_on_c, 4, 73, 63
6, 20974, Note_on_c, 4, 73, 0
6, 20976, Note_on_c, 4, 76, 63
6, 20986, Note_on_c, 4, 76, 0
6, 20988, Note_on_c, 4, 76, 63
6, 20998, Note_on_c, 4, 76, 0
6, 21000, Note_on_c, 4, 81, 63
6, 21010, Note_on_c, 4, 81, 0
6, 21012, Note_on_c, 4, 81, 63
6, 21022, Note_on_c, 4, 81, 0
6, 21024, Note_on_c, 4, 78, 63
6, 21044, Note_on_c, 4, 78, 0
6, 21048, Note_on_c, 4, 74, 63
6, 21068, Note_on_c, 4, 74, 0
6, 21312, Note_on_c, 4, 62, 56
6, 21322, Note_on_c, 4, 62, 0
6, 21324, Note_on_c, 4, 62, 56
6, 21334, Note_on_c, 4, 62, 0
6, 21336, Note_on_c, 4, 66, 56
6, 21346, Note_on_c, 4, 66, 0
6, 21348, Note_on_c, 4, 66, 56
6, 21358, Note_on_c, 4, 66, 0
6, 21360, Note_on_c, 4, 69, 56
6, 21370, Note_on_c, 4, 69, 0
6, 21372, Note_on_c, 4, 69, 56
6, 21382, Note_on_c, 4, 69, 0
6, 21384, Note_on_c, 4, 74, 56
6, 21394, Note_on_c, 4, 74, 0
6, 21396, Note_on_c, 4, 74, 56
6, 21406, Note_on_c, 4, 74, 0
6, 21408, Note_on_c, 4, 73, 56
6, 21418, Note_on_c, 4, 73, 0
6, 21420, Note_on_c, 4, 74, 56
6, 21430, Note_on_c, 4, 74, 0
6, 21432, Note_on_c, 4, 73, 56
6, 21442, Note_on_c, 4, 73, 0
6, 21444, Note_on_c, 4, 71, 56
6, 21454, Note_on_c, 4, 71, 0
6, 21456, Note_on_c, 4, 69, 56
6, 21466, Note_on_c, 4, 69, 0
6, 21468, Note_on_c, 4, 67, 56
6, 21478, Note_on_c, 4, 67, 0
6, 21480, Note_on_c, 4, 66, 56
6, 21490, Note_on_c, 4, 66, 0
6, 21492, Note_on_c, 4, 64, 56
6, 21502, Note_on_c, 4, 64, 0
6, 21504, Note_on_c, 4, 62, 63
6, 21524, Note_on_c, 4, 62, 0
6, 21792, Note_on_c, 4, 62, 56
6, 21802, Note_on_c, 4, 62, 0
6, 21804, Note_on_c, 4, 62, 56
6, 21814, Note_on_c, 4, 62, 0
6, 21816, Note_on_c, 4, 66, 56
6, 21826, Note_on_c, 4, 66, 0
6, 21828, Note_on_c, 4, 66, 56
6, 21838, Note_on_c, 4, 66, 0
6, 21840, Note_on_c, 4, 69, 56
6, 21850, Note_on_c, 4, 69, 0
6, 21852, Note_on_c, 4, 69, 56
6, 21862, Note_on_c, 4, 69, 0
6, 21864, Note_on_c, 4, 74, 56
6, 21874, Note_on_c, 4, 74, 0
6, 21876, Note_on_c, 4, 74, 56
6, 21886, Note_on_c, 4, 74, 0
6, 21888, Note_on_c, 4, 76, 63
6, 21908, Note_on_c, 4, 76, 0
6, 21912, Note_on_c, 4, 64, 63
6, 21932, Note_on_c, 4, 64, 0
6, 23040, Note_on_c, 4, 62, 95
6, 23050, Note_on_c, 4, 62, 0
6, 23052, Note_on_c, 4, 62, 95
6, 23062, Note_on_c, 4, 62, 0
6, 23064, Note_on_c, 4, 66, 95
6, 23074, Note_on_c, 4, 66, 0
6, 23076, Note_on_c, 4, 66, 95
6, 23086, Note_on_c, 4, 66, 0
6, 23088, Note_on_c, 4, 69, 95
6, 23098, Note_on_c, 4, 69, 0
6, 23100, Note_on_c, 4, 69, 95
6, 23110, Note_on_c, 4, 69, 0
6, 23112, Note_on_c, 4, 74, 95
6, 23122, Note_on_c, 4, 74, 0
6, 23124, Note_on_c, 4, 74, 95
6, 23134, Note_on_c, 4, 74, 0
6, 23136, Note_on_c, 4, 73, 95
6, 23146, Note_on_c, 4, 73, 0
6, 23148, Note_on_c, 4, 74, 95
6, 23158, Note_on_c, 4, 74, 0
6, 23160, Note_on_c, 4, 73, 95
6, 23170, Note_on_c, 4, 73, 0
6, 23172, Note_on_c, 4, 71, 95
6, 23182, Note_on_c, 4, 71, 0
6, 23184, Note_on_c, 4, 69, 95
6, 23194, Note_on_c, 4, 69, 0
6, 23196, Note_on_c, 4, 67, 95
6, 23206, Note_on_c, 4, 67, 0
6, 23208, Note_on_c, 4, 66, 95
6, 23218, Note_on_c, 4, 66, 0
6, 23220, Note_on_c, 4, 64, 95
6, 23230, Note_on_c, 4, 64, 0
6, 23232, Note_on_c, 4, 62, 95
6, 23242, Note_on_c, 4, 62, 0
6, 23244, Note_on_c, 4, 62, 95
6, 23254, Note_on_c, 4, 62, 0
6, 23256, Note_on_c, 4, 66, 95
6, 23266, Note_on_c, 4, 66, 0
6, 23268, Note_on_c, 4, 66, 95
6, 23278, Note_on_c, 4, 66, 0
6, 23280, Note_on_c, 4, 69, 95
6, 23290, Note_on_c, 4, 69, 0
6, 23292, Note_on_c, 4, 69, 95
6, 23302, Note_on_c, 4, 69, 0
6, 23304, Note_on_c, 4, 74, 95
6, 23314, Note_on_c, 4, 74, 0
6, 23316, Note_on_c, 4, 74, 95
6, 23326, Note_on_c, 4, 74, 0
6, 23328, Note_on_c, 4, 76, 95
6, 23348, Note_on_c, 4, 76, 0
6, 23352, Note_on_c, 4, 69, 95
6, 23372, Note_on_c, 4, 69, 0
6, 23400, Note_on_c, 4, 76, 95
6, 23420, Note_on_c, 4, 76, 0
6, 23424, Note_on_c, 4, 78, 95
6, 23434, Note_on_c, 4, 78, 0
6, 23436, Note_on_c, 4, 78, 95
6, 23446, Note_on_c, 4, 78, 0
6, 23448, Note_on_c, 4, 76, 95
6, 23458, Note_on_c, 4, 76, 0
6, 23460, Note_on_c, 4, 76, 95
6, 23470, Note_on_c, 4, 76, 0
6, 23472, Note_on_c, 4, 79, 95
6, 23482, Note_on_c, 4, 79, 0
6, 23484, Note_on_c, 4, 79, 95
6, 23494, Note_on_c, 4, 79, 0
6, 23496, Note_on_c, 4, 78, 95
6, 23506, Note_on_c, 4, 78, 0
6, 23508, Note_on_c, 4, 78, 95
6, 23518, Note_on_c, 4, 78, 0
6, 23520, Note_on_c, 4, 83, 95
6, 23530, Note_on_c, 4, 83, 0
6, 23532, Note_on_c, 4, 83, 95
6, 23542, Note_on_c, 4, 83, 0
6, 23544, Note_on_c, 4, 81, 95
6, 23554, Note_on_c, 4, 81, 0
6, 23556, Note_on_c, 4, 81, 95
6, 23566, Note_on_c, 4, 81, 0
6, 23568, Note_on_c, 4, 73, 95
6, 23578, Note_on_c, 4, 73, 0
6, 23580, Note_on_c, 4, 73, 95
6, 23590, Note_on_c, 4, 73, 0
6, 23592, Note_on_c, 4, 74, 95
6, 23602, Note_on_c, 4, 74, 0
6, 23604, Note_on_c, 4, 74, 95
6, 23614, Note_on_c, 4, 74, 0
6, 23616, Note_on_c, 4, 67, 95
6, 23626, Note_on_c, 4, 67, 0
6, 23628, Note_on_c, 4, 67, 95
6, 23638, Note_on_c, 4, 67, 0
6, 23640, Note_on_c, 4, 66, 95
6, 23650, Note_on_c, 4, 66, 0
6, 23652, Note_on_c, 4, 66, 95
6, 23662, Note_on_c, 4, 66, 0
6, 23664, Note_on_c, 4, 71, 95
6, 23674, Note_on_c, 4, 71, 0
6, 23676, Note_on_c, 4, 71, 95
6, 23686, Note_on_c, 4, 71, 0
6, 23688, Note_on_c, 4, 69, 95
6, 23698, Note_on_c, 4, 69, 0
6, 23700, Note_on_c, 4, 69, 95
6, 23710, Note_on_c, 4, 69, 0
6, 23712, Note_on_c, 4, 61, 95
6, 23722, Note_on_c, 4, 61, 0
6, 23724, Note_on_c, 4, 61, 95
6, 23734, Note_on_c, 4, 61, 0
6, 23736, Note_on_c, 4, 62, 95
6, 23746, Note_on_c, 4, 62, 0
6, 23748, Note_on_c, 4, 62, 95
6, 23758, Note_on_c, 4, 62, 0
6, 23760, Note_on_c, 4, 57, 95
6, 23770, Note_on_c, 4, 57, 0
6, 23772, Note_on_c, 4, 57, 95
6, 23782, Note_on_c, 4, 57, 0
6, 23784, Note_on_c, 4, 67, 95
6, 23794, Note_on_c, 4, 67, 0
6, 23796, Note_on_c, 4, 67, 95
6, 23806, Note_on_c, 4, 67, 0
6, 23808, Note_on_c, 4, 66, 95
6, 23818, Note_on_c, 4, 66, 0
6, 23820, Note_on_c, 4, 64, 95
6, 23830, Note_on_c, 4, 64, 0
6, 23832, Note_on_c, 4, 66, 95
6, 23842, Note_on_c, 4, 66, 0
6, 23844, Note_on_c, 4, 62, 95
6, 23854, Note_on_c, 4, 62, 0
6, 23856, Note_on_c, 4, 64, 95
6, 23866, Note_on_c, 4, 64, 0
6, 23868, Note_on_c, 4, 64, 95
6, 23878, Note_on_c, 4, 64, 0
6, 23880, Note_on_c, 4, 57, 95
6, 23890, Note_on_c, 4, 57, 0
6, 23892, Note_on_c, 4, 57, 95
6, 23902, Note_on_c, 4, 57, 0
6, 23904, Note_on_c, 4, 62, 95
6, 23944, Note_on_c, 4, 62, 0
6, 24504, Note_on_c, 4, 69, 63
6, 24524, Note_on_c, 4, 69, 0
6, 24528, Note_on_c, 4, 69, 63
6, 24548, Note_on_c, 4, 69, 0
6, 24552, Note_on_c, 4, 69, 63
6, 24572, Note_on_c, 4, 69, 0
6, 24576, Note_on_c, 4, 69, 63
6, 24596, Note_on_c, 4, 69, 0
6, 25176, Note_on_c, 4, 76, 63
6, 25196, Note_on_c, 4, 76, 0
6, 25200, Note_on_c, 4, 76, 63
6, 25220, Note_on_c, 4, 76, 0
6, 25224, Note_on_c, 4, 76, 63
6, 25244, Note_on_c, 4, 76, 0
6, 25248, Note_on_c, 4, 76, 63
6, 25268, Note_on_c, 4, 76, 0
6, 25320, Note_on_c, 4, 74, 63
6, 25340, Note_on_c, 4, 74, 0
6, 25344, Note_on_c, 4, 74, 63
6, 25364, Note_on_c, 4, 74, 0
6, 25416, Note_on_c, 4, 71, 63
6, 25436, Note_on_c, 4, 71, 0
6, 25440, Note_on_c, 4, 73, 63
6, 25460, Note_on_c, 4, 73, 0
6, 25488, Note_on_c, 4, 74, 63
6, 25508, Note_on_c, 4, 74, 0
6, 25536, Note_on_c, 4, 76, 63
6, 25556, Note_on_c, 4, 76, 0
6, 25608, Note_on_c, 4, 76, 63
6, 25628, Note_on_c, 4, 76, 0
6, 25632, Note_on_c, 4, 78, 63
6, 25652, Note_on_c, 4, 78, 0
6, 25656, Note_on_c, 4, 69, 63
6, 25676, Note_on_c, 4, 69, 0
6, 25680, Note_on_c, 4, 74, 63
6, 25700, Note_on_c, 4, 74, 0
6, 25704, Note_on_c, 4, 69, 63
6, 25724, Note_on_c, 4, 69, 0
6, 25752, Note_on_c, 4, 69, 63
6, 25772, Note_on_c, 4, 69, 0
6, 25776, Note_on_c, 4, 76, 63
6, 25796, Note_on_c, 4, 76, 0
6, 25800, Note_on_c, 4, 69, 63
6, 25820, Note_on_c, 4, 69, 0
6, 25848, Note_on_c, 4, 69, 63
6, 25868, Note_on_c, 4, 69, 0
6, 25872, Note_on_c, 4, 78, 63
6, 25892, Note_on_c, 4, 78, 0
6, 25896, Note_on_c, 4, 69, 63
6, 25916, Note_on_c, 4, 69, 0
6, 25944, Note_on_c, 4, 69, 63
6, 25964, Note_on_c, 4, 69, 0
6, 25968, Note_on_c, 4, 80, 63
6, 25988, Note_on_c, 4, 80, 0
6, 25992, Note_on_c, 4, 69, 63
6, 26012, Note_on_c, 4, 69, 0
6, 26016, Note_on_c, 4, 73, 95
6, 26026, Note_on_c, 4, 73, 0
6, 26028, Note_on_c, 4, 71, 95
6, 26038, Note_on_c, 4, 71, 0
6, 26040, Note_on_c, 4, 73, 95
6, 26050, Note_on_c, 4, 73, 0
6, 26052, Note_on_c, 4, 74, 95
6, 26062, Note_on_c, 4, 74, 0
6, 26064, Note_on_c, 4, 76, 95
6, 26074, Note_on_c, 4, 76, 0
6, 26076, Note_on_c, 4, 78, 95
6, 26086, Note_on_c, 4, 78, 0
6, 26088, Note_on_c, 4, 79, 95
6, 26098, Note_on_c, 4, 79, 0
6, 26100, Note_on_c, 4, 76, 95
6, 26110, Note_on_c, 4, 76, 0
6, 26112, Note_on_c, 4, 78, 95
6, 26122, Note_on_c, 4, 78, 0
6, 26124, Note_on_c, 4, 78, 95
6, 26134, Note_on_c, 4, 78, 0
6, 26136, Note_on_c, 4, 76, 95
6, 26146, Note_on_c, 4, 76, 0
6, 26148, Note_on_c, 4, 76, 95
6, 26158, Note_on_c, 4, 76, 0
6, 26160, Note_on_c, 4, 79, 95
6, 26170, Note_on_c, 4, 79, 0
6, 26172, Note_on_c, 4, 79, 95
6, 26182, Note_on_c, 4, 79, 0
6, 26184, Note_on_c, 4, 78, 95
6, 26194, Note_on_c, 4, 78, 0
6, 26196, Note_on_c, 4, 78, 95
6, 26206, Note_on_c, 4, 78, 0
6, 26208, Note_on_c, 4, 83, 95
6, 26218, Note_on_c, 4, 83, 0
6, 26220, Note_on_c, 4, 83, 95
6, 26230, Note_on_c, 4, 83, 0
6, 26232, Note_on_c, 4, 81, 95
6, 26242, Note_on_c, 4, 81, 0
6, 26244, Note_on_c, 4, 81, 95
6, 26254, Note_on_c, 4, 81, 0
6, 26256, Note_on_c, 4, 73, 95
6, 26266, Note_on_c, 4, 73, 0
6, 26268, Note_on_c, 4, 73, 95
6, 26278, Note_on_c, 4, 73, 0
6, 26280, Note_on_c, 4, 74, 95
6, 26290, Note_on_c, 4, 74, 0
6, 26292, Note_on_c, 4, 74, 95
6, 26302, Note_on_c, 4, 74, 0
6, 26304, Note_on_c, 4, 67, 95
6, 26314, Note_on_c, 4, 67, 0
6, 26316, Note_on_c, 4, 67, 95
6, 26326, Note_on_c, 4, 67, 0
6, 26328, Note_on_c, 4, 66, 95
6, 26338, Note_on_c, 4, 66, 0
6, 26340, Note_on_c, 4, 66, 95
6, 26350, Note_on_c, 4, 66, 0
6, 26352, Note_on_c, 4, 71, 95
6, 26362, Note_on_c, 4, 71, 0
6, 26364, Note_on_c, 4, 71, 95
6, 26374, Note_on_c, 4, 71, 0
6, 26376, Note_on_c, 4, 69, 95
6, 26386, Note_on_c, 4, 69, 0
6, 26388, Note_on_c, 4, 69, 95
6, 26398, Note_on_c, 4, 69, 0
6, 26400, Note_on_c, 4, 61, 95
6, 26410, Note_on_c, 4, 61, 0
6, 26412, Note_on_c, 4, 61, 95
6, 26422, Note_on_c, 4, 61, 0
6, 26424, Note_on_c, 4, 62, 95
6, 26434, Note_on_c, 4, 62, 0
6, 26436, Note_on_c, 4, 62, 95
6, 26446, Note_on_c, 4, 62, 0
6, 26448, Note_on_c, 4, 57, 95
6, 26458, Note_on_c, 4, 57, 0
6, 26460, Note_on_c, 4, 57, 95
6, 26470, Note_on_c, 4, 57, 0
6, 26472, Note_on_c, 4, 67, 95
6, 26482, Note_on_c, 4, 67, 0
6, 26484, Note_on_c, 4, 67, 95
6, 26494, Note_on_c, 4, 67, 0
6, 26496, Note_on_c, 4, 66, 95
6, 26506, Note_on_c, 4, 66, 0
6, 26508, Note_on_c, 4, 64, 95
6, 26518, Note_on_c, 4, 64, 0
6, 26520, Note_on_c, 4, 66, 95
6, 26530, Note_on_c, 4, 66, 0
6, 26532, Note_on_c, 4, 62, 95
6, 26542, Note_on_c, 4, 62, 0
6, 26544, Note_on_c, 4, 64, 95
6, 26554, Note_on_c, 4, 64, 0
6, 26556, Note_on_c, 4, 64, 95
6, 26566, Note_on_c, 4, 64, 0
6, 26568, Note_on_c, 4, 57, 95
6, 26578, Note_on_c, 4, 57, 0
6, 26580, Note_on_c, 4, 57, 95
6, 26590, Note_on_c, 4, 57, 0
6, 26592, Note_on_c, 4, 62, 95
6, 26612, Note_on_c, 4, 62, 0
6, 26616, Note_on_c, 4, 57, 56
6, 26636, Note_on_c, 4, 57, 0
6, 26640, Note_on_c, 4, 57, 56
6, 26660, Note_on_c, 4, 57, 0
6, 26664, Note_on_c, 4, 57, 56
6, 26684, Note_on_c, 4, 57, 0
6, 26688, Note_on_c, 4, 59, 56
6, 26708, Note_on_c, 4, 59, 0
6, 26712, Note_on_c, 4, 59, 56
6, 26732, Note_on_c, 4, 59, 0
6, 26736, Note_on_c, 4, 59, 56
6, 26756, Note_on_c, 4, 59, 0
6, 26760, Note_on_c, 4, 59, 56
6, 26780, Note_on_c, 4, 59, 0
6, 26784, Note_on_c, 4, 59, 56
6, 26804, Note_on_c, 4, 59, 0
6, 26808, Note_on_c, 4, 59, 56
6, 26828, Note_on_c, 4, 59, 0
6, 26832, Note_on_c, 4, 59, 56
6, 26852, Note_on_c, 4, 59, 0
6, 26856, Note_on_c, 4, 59, 56
6, 26876, Note_on_c, 4, 59, 0
6, 26880, Note_on_c, 4, 61, 56
6, 26900, Note_on_c, 4, 61, 0
6, 26904, Note_on_c, 4, 61, 56
6, 26924, Note_on_c, 4, 61, 0
6, 26928, Note_on_c, 4, 61, 56
6, 26948, Note_on_c, 4, 61, 0
6, 26952, Note_on_c, 4, 61, 56
6, 26972, Note_on_c, 4, 61, 0
6, 26976, Note_on_c, 4, 61, 56
6, 26996, Note_on_c, 4, 61, 0
6, 27000, Note_on_c, 4, 61, 56
6, 27020, Note_on_c, 4, 61, 0
6, 27024, Note_on_c, 4, 61, 56
6, 27044, Note_on_c, 4, 61, 0
6, 27048, Note_on_c, 4, 61, 56
6, 27068, Note_on_c, 4, 61, 0
6, 27072, Note_on_c, 4, 62, 56
6, 27092, Note_on_c, 4, 62, 0
6, 27096, Note_on_c, 4, 62, 56
6, 27116, Note_on_c, 4, 62, 0
6, 27120, Note_on_c, 4, 62, 56
6, 27140, Note_on_c, 4, 62, 0
6, 27144, Note_on_c, 4, 62, 56
6, 27164, Note_on_c, 4, 62, 0
6, 27168, Note_on_c, 4, 64, 56
6, 27188, Note_on_c, 4, 64, 0
6, 27192, Note_on_c, 4, 64, 56
6, 27212, Note_on_c, 4, 64, 0
6, 27216, Note_on_c, 4, 64, 56
6, 27236, Note_on_c, 4, 64, 0
6, 27240, Note_on_c, 4, 64, 56
6, 27260, Note_on_c, 4, 64, 0
6, 27264, Note_on_c, 4, 66, 56
6, 27284, Note_on_c, 4, 66, 0
6, 27288, Note_on_c, 4, 66, 56
6, 27308, Note_on_c, 4, 66, 0
6, 27312, Note_on_c, 4, 66, 56
6, 27332, Note_on_c, 4, 66, 0
6, 27336, Note_on_c, 4, 66, 56
6, 27356, Note_on_c, 4, 66, 0
6, 27360, Note_on_c, 4, 67, 56
6, 27380, Note_on_c, 4, 67, 0
6, 27384, Note_on_c, 4, 71, 56
6, 27404, Note_on_c, 4, 71, 0
6, 27408, Note_on_c, 4, 61, 56
6, 27428, Note_on_c, 4, 61, 0
6, 27432, Note_on_c, 4, 64, 56
6, 27452, Note_on_c, 4, 64, 0
6, 27456, Note_on_c, 4, 66, 56
6, 27476, Note_on_c, 4, 66, 0
6, 27480, Note_on_c, 4, 69, 56
6, 27500, Note_on_c, 4, 69, 0
6, 27504, Note_on_c, 4, 59, 56
6, 27524, Note_on_c, 4, 59, 0
6, 27528, Note_on_c, 4, 62, 56
6, 27548, Note_on_c, 4, 62, 0
6, 27552, Note_on_c, 4, 64, 56
6, 27572, Note_on_c, 4, 64, 0
6, 27576, Note_on_c, 4, 67, 56
6, 27596, Note_on_c, 4, 67, 0
6, 27600, Note_on_c, 4, 57, 56
6, 27620, Note_on_c, 4, 57, 0
6, 27624, Note_on_c, 4, 61, 56
6, 27644, Note_on_c, 4, 61, 0
6, 27648, Note_on_c, 4, 62, 56
6, 27668, Note_on_c, 4, 62, 0
6, 27672, Note_on_c, 4, 69, 56
6, 27692, Note_on_c, 4, 69, 0
6, 27696, Note_on_c, 4, 66, 56
6, 27716, Note_on_c, 4, 66, 0
6, 27720, Note_on_c, 4, 62, 56
6, 27740, Note_on_c, 4, 62, 0
6, 27744, Note_on_c, 4, 57, 56
6, 27754, Note_on_c, 4, 57, 0
6, 27756, Note_on_c, 4, 57, 56
6, 27766, Note_on_c, 4, 57, 0
6, 27768, Note_on_c, 4, 61, 56
6, 27778, Note_on_c, 4, 61, 0
6, 27780, Note_on_c, 4, 61, 56
6, 27790, Note_on_c, 4, 61, 0
6, 27792, Note_on_c, 4, 64, 56
6, 27802, Note_on_c, 4, 64, 0
6, 27804, Note_on_c, 4, 64, 56
6, 27814, Note_on_c, 4, 64, 0
6, 27816, Note_on_c, 4, 69, 56
6, 27826, Note_on_c, 4, 69, 0
6, 27828, Note_on_c, 4, 69, 56
6, 27838, Note_on_c, 4, 69, 0
6, 27840, Note_on_c, 4, 73, 56
6, 27850, Note_on_c, 4, 73, 0
6, 27852, Note_on_c, 4, 73, 56
6, 27862, Note_on_c, 4, 73, 0
6, 27864, Note_on_c, 4, 76, 56
6, 27874, Note_on_c, 4, 76, 0
6, 27876, Note_on_c, 4, 76, 56
6, 27886, Note_on_c, 4, 76, 0
6, 27888, Note_on_c, 4, 79, 56
6, 27898, Note_on_c, 4, 79, 0
6, 27900, Note_on_c, 4, 79, 56
6, 27910, Note_on_c, 4, 79, 0
6, 27912, Note_on_c, 4, 85, 56
6, 27922, Note_on_c, 4, 85, 0
6, 27924, Note_on_c, 4, 85, 56
6, 27934, Note_on_c, 4, 85, 0
6, 27936, Note_on_c, 4, 86, 56
6, 27956, Note_on_c, 4, 86, 0
6, 27960, Note_on_c, 4, 79, 56
6, 27980, Note_on_c, 4, 79, 0
6, 28080, Note_on_c, 4, 57, 63
6, 28128, Note_on_c, 4, 57, 0
6, 28176, Note_on_c, 4, 57, 63
6, 28224, Note_on_c, 4, 57, 0
6, 28272, Note_on_c, 4, 57, 63
6, 28320, Note_on_c, 4, 57, 0
6, 28368, Note_on_c, 4, 57, 63
6, 28416, Note_on_c, 4, 57, 0
6, 28464, Note_on_c, 4, 57, 63
6, 28512, Note_on_c, 4, 57, 0
6, 28560, Note_on_c, 4, 57, 63
6, 28608, Note_on_c, 4, 57, 0
6, 28656, Note_on_c, 4, 57, 63
6, 28704, Note_on_c, 4, 57, 0
6, 28752, Note_on_c, 4, 57, 63
6, 28800, Note_on_c, 4, 57, 0
6, 28800, Note_on_c, 4, 61, 63
6, 28824, Note_on_c, 4, 61, 0
6, 28824, Note_on_c, 4, 64, 63
6, 28848, Note_on_c, 4, 64, 0
6, 28848, Note_on_c, 4, 66, 63
6, 28872, Note_on_c, 4, 66, 0
6, 28872, Note_on_c, 4, 69, 63
6, 28896, Note_on_c, 4, 69, 0
6, 28896, Note_on_c, 4, 61, 63
6, 28920, Note_on_c, 4, 61, 0
6, 28920, Note_on_c, 4, 64, 63
6, 28944, Note_on_c, 4, 64, 0
6, 28944, Note_on_c, 4, 66, 63
6, 28968, Note_on_c, 4, 66, 0
6, 28968, Note_on_c, 4, 69, 63
6, 28992, Note_on_c, 4, 69, 0
6, 28992, Note_on_c, 4, 59, 63
6, 29088, Note_on_c, 4, 59, 0
6, 29088, Note_on_c, 4, 61, 63
6, 29184, Note_on_c, 4, 61, 0
6, 29184, Note_on_c, 4, 62, 63
6, 29376, Note_on_c, 4, 62, 0
6, 29376, Note_on_c, 4, 64, 63
6, 29400, Note_on_c, 4, 64, 0
6, 41952, Note_on_c, 4, 62, 95
6, 41960, Note_on_c, 4, 62, 0
6, 41964, Note_on_c, 4, 62, 95
6, 41972, Note_on_c, 4, 62, 0
6, 41976, Note_on_c, 4, 66, 95
6, 41984, Note_on_c, 4, 66, 0
6, 41988, Note_on_c, 4, 66, 95
6, 41996, Note_on_c, 4, 66, 0
6, 42000, Note_on_c, 4, 69, 95
6, 42008, Note_on_c, 4, 69, 0
6, 42012, Note_on_c, 4, 69, 95
6, 42020, Note_on_c, 4, 69, 0
6, 42024, Note_on_c, 4, 74, 95
6, 42032, Note_on_c, 4, 74, 0
6, 42036, Note_on_c, 4, 74, 95
6, 42044, Note_on_c, 4, 74, 0
6, 42048, Note_on_c, 4, 73, 95
6, 42056, Note_on_c, 4, 73, 0
6, 42060, Note_on_c, 4, 74, 95
6, 42068, Note_on_c, 4, 74, 0
6, 42072, Note_on_c, 4, 73, 95
6, 42080, Note_on_c, 4, 73, 0
6, 42084, Note_on_c, 4, 71, 95
6, 42092, Note_on_c, 4, 71, 0
6, 42096, Note_on_c, 4, 69, 95
6, 42104, Note_on_c, 4, 69, 0
6, 42108, Note_on_c, 4, 67, 95
6, 42116, Note_on_c, 4, 67, 0
6, 42120, Note_on_c, 4, 66, 95
6, 42128, Note_on_c, 4, 66, 0
6, 42132, Note_on_c, 4, 64, 95
6, 42140, Note_on_c, 4, 64, 0
6, 42144, Note_on_c, 4, 62, 95
6, 42152, Note_on_c, 4, 62, 0
6, 42156, Note_on_c, 4, 62, 95
6, 42164, Note_on_c, 4, 62, 0
6, 42168, Note_on_c, 4, 66, 95
6, 42176, Note_on_c, 4, 66, 0
6, 42180, Note_on_c, 4, 66, 95
6, 42188, Note_on_c, 4, 66, 0
6, 42192, Note_on_c, 4, 69, 95
6, 42200, Note_on_c, 4, 69, 0
6, 42204, Note_on_c, 4, 69, 95
6, 42212, Note_on_c, 4, 69, 0
6, 42216, Note_on_c, 4, 74, 95
6, 42224, Note_on_c, 4, 74, 0
6, 42228, Note_on_c, 4, 74, 95
6, 42236, Note_on_c, 4, 74, 0
6, 42240, Note_on_c, 4, 76, 95
6, 42256, Note_on_c, 4, 76, 0
6, 42264, Note_on_c, 4, 69, 95
6, 42280, Note_on_c, 4, 69, 0
6, 42312, Note_on_c, 4, 76, 95
6, 42328, Note_on_c, 4, 76, 0
6, 42336, Note_on_c, 4, 78, 95
6, 42344, Note_on_c, 4, 78, 0
6, 42348, Note_on_c, 4, 78, 95
6, 42356, Note_on_c, 4, 78, 0
6, 42360, Note_on_c, 4, 76, 95
6, 42368, Note_on_c, 4, 76, 0
6, 42372, Note_on_c, 4, 76, 95
6, 42380, Note_on_c, 4, 76, 0
6, 42384, Note_on_c, 4, 79, 95
6, 42392, Note_on_c, 4, 79, 0
6, 42396, Note_on_c, 4, 79, 95
6, 42404, Note_on_c, 4, 79, 0
6, 42408, Note_on_c, 4, 78, 95
6, 42416, Note_on_c, 4, 78, 0
6, 42420, Note_on_c, 4, 78, 95
6, 42428, Note_on_c, 4, 78, 0
6, 42432, Note_on_c, 4, 83, 95
6, 42440, Note_on_c, 4, 83, 0
6, 42444, Note_on_c, 4, 83, 95
6, 42452, Note_on_c, 4, 83, 0
6, 42456, Note_on_c, 4, 81, 95
6, 42464, Note_on_c, 4, 81, 0
6, 42468, Note_on_c, 4, 81, 95
6, 42476, Note_on_c, 4, 81, 0
6, 42480, Note_on_c, 4, 73, 95
6, 42488, Note_on_c, 4, 73, 0
6, 42492, Note_on_c, 4, 73, 95
6, 42500, Note_on_c, 4, 73, 0
6, 42504, Note_on_c, 4, 74, 95
6, 42512, Note_on_c, 4, 74, 0
6, 42516, Note_on_c, 4, 74, 95
6, 42524, Note_on_c, 4, 74, 0
6, 42528, Note_on_c, 4, 67, 95
6, 42536, Note_on_c, 4, 67, 0
6, 42540, Note_on_c, 4, 67, 95
6, 42548, Note_on_c, 4, 67, 0
6, 42552, Note_on_c, 4, 66, 95
6, 42560, Note_on_c, 4, 66, 0
6, 42564, Note_on_c, 4, 66, 95
6, 42572, Note_on_c, 4, 66, 0
6, 42576, Note_on_c, 4, 71, 95
6, 42584, Note_on_c, 4, 71, 0
6, 42588, Note_on_c, 4, 71, 95
6, 42596, Note_on_c, 4, 71, 0
6, 42600, Note_on_c, 4, 69, 95
6, 42608, Note_on_c, 4, 69, 0
6, 42612, Note_on_c, 4, 69, 95
6, 42620, Note_on_c, 4, 69, 0
6, 42624, Note_on_c, 4, 61, 95
6, 42632, Note_on_c, 4, 61, 0
6, 42636, Note_on_c, 4, 61, 95
6, 42644, Note_on_c, 4, 61, 0
6, 42648, Note_on_c, 4, 62, 95
6, 42656, Note_on_c, 4, 62, 0
6, 42660, Note_on_c, 4, 62, 95
6, 42668, Note_on_c, 4, 62, 0
6, 42672, Note_on_c, 4, 57, 95
6, 42680, Note_on_c, 4, 57, 0
6, 42684, Note_on_c, 4, 57, 95
6, 42692, Note_on_c, 4, 57, 0
6, 42696, Note_on_c, 4, 67, 95
6, 42704, Note_on_c, 4, 67, 0
6, 42708, Note_on_c, 4, 67, 95
6, 42716, Note_on_c, 4, 67, 0
6, 42720, Note_on_c, 4, 66, 95
6, 42728, Note_on_c, 4, 66, 0
6, 42732, Note_on_c, 4, 64, 95
6, 42740, Note_on_c, 4, 64, 0
6, 42744, Note_on_c, 4, 66, 95
6, 42752, Note_on_c, 4, 66, 0
6, 42756, Note_on_c, 4, 62, 95
6, 42764, Note_on_c, 4, 62, 0
6, 42768, Note_on_c, 4, 64, 95
6, 42776, Note_on_c, 4, 64, 0
6, 42780, Note_on_c, 4, 64, 95
6, 42788, Note_on_c, 4, 64, 0
6, 42792, Note_on_c, 4, 57, 95
6, 42800, Note_on_c, 4, 57, 0
6, 42804, Note_on_c, 4, 57, 95
6, 42812, Note_on_c, 4, 57, 0
6, 42816, Note_on_c, 4, 62, 95
6, 42824, Note_on_c, 4, 62, 0
6, 42828, Note_on_c, 4, 64, 95
6, 42836, Note_on_c, 4, 64, 0
6, 42840, Note_on_c, 4, 66, 95
6, 42848, Note_on_c, 4, 66, 0
6, 42852, Note_on_c, 4, 67, 95
6, 42860, Note_on_c, 4, 67, 0
6, 42864, Note_on_c, 4, 69, 95
6, 42872, Note_on_c, 4, 69, 0
6, 42876, Note_on_c, 4, 71, 95
6, 42884, Note_on_c, 4, 71, 0
6, 42888, Note_on_c, 4, 73, 95
6, 42896, Note_on_c, 4, 73, 0
6, 42900, Note_on_c, 4, 69, 95
6, 42908, Note_on_c, 4, 69, 0
6, 42912, Note_on_c, 4, 74, 95
6, 42920, Note_on_c, 4, 74, 0
6, 42924, Note_on_c, 4, 74, 95
6, 42932, Note_on_c, 4, 74, 0
6, 42936, Note_on_c, 4, 73, 95
6, 42944, Note_on_c, 4, 73, 0
6, 42948, Note_on_c, 4, 73, 95
6, 42956, Note_on_c, 4, 73, 0
6, 42960, Note_on_c, 4, 76, 95
6, 42968, Note_on_c, 4, 76, 0
6, 42972, Note_on_c, 4, 76, 95
6, 42980, Note_on_c, 4, 76, 0
6, 42984, Note_on_c, 4, 74, 95
6, 42992, Note_on_c, 4, 74, 0
6, 42996, Note_on_c, 4, 74, 95
6, 43004, Note_on_c, 4, 74, 0
6, 43008, Note_on_c, 4, 79, 95
6, 43016, Note_on_c, 4, 79, 0
6, 43020, Note_on_c, 4, 79, 95
6, 43028, Note_on_c, 4, 79, 0
6, 43032, Note_on_c, 4, 78, 95
6, 43040, Note_on_c, 4, 78, 0
6, 43044, Note_on_c, 4, 78, 95
6, 43052, Note_on_c, 4, 78, 0
6, 43056, Note_on_c, 4, 83, 95
6, 43064, Note_on_c, 4, 83, 0
6, 43068, Note_on_c, 4, 83, 95
6, 43076, Note_on_c, 4, 83, 0
6, 43080, Note_on_c, 4, 81, 95
6, 43088, Note_on_c, 4, 81, 0
6, 43092, Note_on_c, 4, 81, 95
6, 43100, Note_on_c, 4, 81, 0
6, 43104, Note_on_c, 4, 79, 95
6, 43112, Note_on_c, 4, 79, 0
6, 43116, Note_on_c, 4, 78, 95
6, 43124, Note_on_c, 4, 78, 0
6, 43128, Note_on_c, 4, 76, 95
6, 43136, Note_on_c, 4, 76, 0
6, 43140, Note_on_c, 4, 74, 95
6, 43148, Note_on_c, 4, 74, 0
6, 43152, Note_on_c, 4, 76, 95
6, 43168, Note_on_c, 4, 76, 0
6, 43176, Note_on_c, 4, 69, 95
6, 43184, Note_on_c, 4, 69, 0
6, 43188, Note_on_c, 4, 71, 95
6, 43196, Note_on_c, 4, 71, 0
6, 43200, Note_on_c, 4, 72, 95
6, 43208, Note_on_c, 4, 72, 0
6, 43212, Note_on_c, 4, 69, 95
6, 43220, Note_on_c, 4, 69, 0
6, 43224, Note_on_c, 4, 71, 95
6, 43232, Note_on_c, 4, 71, 0
6, 43236, Note_on_c, 4, 74, 95
6, 43244, Note_on_c, 4, 74, 0
6, 43248, Note_on_c, 4, 73, 95
6, 43256, Note_on_c, 4, 73, 0
6, 43260, Note_on_c, 4, 76, 95
6, 43268, Note_on_c, 4, 76, 0
6, 43272, Note_on_c, 4, 69, 95
6, 43280, Note_on_c, 4, 69, 0
6, 43284, Note_on_c, 4, 67, 95
6, 43292, Note_on_c, 4, 67, 0
6, 43296, Note_on_c, 4, 66, 95
6, 43304, Note_on_c, 4, 66, 0
6, 43308, Note_on_c, 4, 62, 95
6, 43316, Note_on_c, 4, 62, 0
6, 43320, Note_on_c, 4, 64, 95
6, 43328, Note_on_c, 4, 64, 0
6, 43332, Note_on_c, 4, 67, 95
6, 43340, Note_on_c, 4, 67, 0
6, 43344, Note_on_c, 4, 66, 95
6, 43352, Note_on_c, 4, 66, 0
6, 43356, Note_on_c, 4, 69, 95
6, 43364, Note_on_c, 4, 69, 0
6, 43368, Note_on_c, 4, 62, 95
6, 43376, Note_on_c, 4, 62, 0
6, 43380, Note_on_c, 4, 61, 95
6, 43388, Note_on_c, 4, 61, 0
6, 43392, Note_on_c, 4, 59, 95
6, 43400, Note_on_c, 4, 59, 0
6, 43404, Note_on_c, 4, 67, 95
6, 43412, Note_on_c, 4, 67, 0
6, 43416, Note_on_c, 4, 66, 95
6, 43424, Note_on_c, 4, 66, 0
6, 43428, Note_on_c, 4, 64, 95
6, 43436, Note_on_c, 4, 64, 0
6, 43440, Note_on_c, 4, 64, 95
6, 43464, Note_on_c, 4, 64, 0
6, 43476, Note_on_c, 4, 62, 95
6, 43484, Note_on_c, 4, 62, 0
6, 43488, Note_on_c, 4, 62, 95
6, 43536, Note_on_c, 4, 62, 0
6, 65220, Note_on_c, 4, 74, 95
6, 65232, Note_on_c, 4, 74, 0
6, 65232, Note_on_c, 4, 81, 95
6, 65268, Note_on_c, 4, 81, 0
6, 65268, Note_on_c, 4, 74, 95
6, 65280, Note_on_c, 4, 74, 0
6, 65280, Note_on_c, 4, 78, 95
6, 65296, Note_on_c, 4, 78, 0
6, 65296, Note_on_c, 4, 76, 95
6, 65312, Note_on_c, 4, 76, 0
6, 65312, Note_on_c, 4, 74, 95
6, 65328, Note_on_c, 4, 74, 0
6, 65328, Note_on_c, 4, 73, 95
6, 65344, Note_on_c, 4, 73, 0
6, 65344, Note_on_c, 4, 74, 95
6, 65360, Note_on_c, 4, 74, 0
6, 65360, Note_on_c, 4, 76, 95
6, 65376, Note_on_c, 4, 76, 0
6, 65376, Note_on_c, 4, 69, 95
6, 65392, Note_on_c, 4, 69, 0
6, 65392, Note_on_c, 4, 71, 95
6, 65408, Note_on_c, 4, 71, 0
6, 65408, Note_on_c, 4, 73, 95
6, 65424, Note_on_c, 4, 73, 0
6, 65424, Note_on_c, 4, 74, 95
6, 65440, Note_on_c, 4, 74, 0
6, 65440, Note_on_c, 4, 76, 95
6, 65456, Note_on_c, 4, 76, 0
6, 65456, Note_on_c, 4, 78, 95
6, 65472, Note_on_c, 4, 78, 0
6, 65472, Note_on_c, 4, 71, 95
6, 65496, Note_on_c, 4, 71, 0
6, 65520, Note_on_c, 4, 73, 95
6, 65544, Note_on_c, 4, 73, 0
6, 65568, Note_on_c, 4, 71, 95
6, 65584, Note_on_c, 4, 71, 0
6, 65584, Note_on_c, 4, 74, 95
6, 65600, Note_on_c, 4, 74, 0
6, 65600, Note_on_c, 4, 78, 95
6, 65616, Note_on_c, 4, 78, 0
6, 65616, Note_on_c, 4, 78, 95
6, 65632, Note_on_c, 4, 78, 0
6, 65632, Note_on_c, 4, 76, 95
6, 65648, Note_on_c, 4, 76, 0
6, 65648, Note_on_c, 4, 78, 95
6, 65664, Note_on_c, 4, 78, 0
6, 65664, Note_on_c, 4, 71, 95
6, 65680, Note_on_c, 4, 71, 0
6, 65680, Note_on_c, 4, 79, 95
6, 65696, Note_on_c, 4, 79, 0
6, 65696, Note_on_c, 4, 78, 95
6, 65712, Note_on_c, 4, 78, 0
6, 65712, Note_on_c, 4, 76, 95
6, 65728, Note_on_c, 4, 76, 0
6, 65728, Note_on_c, 4, 81, 95
6, 65744, Note_on_c, 4, 81, 0
6, 65744, Note_on_c, 4, 79, 95
6, 65760, Note_on_c, 4, 79, 0
6, 65760, Note_on_c, 4, 78, 95
6, 65784, Note_on_c, 4, 78, 0
6, 65808, Note_on_c, 4, 76, 95
6, 65832, Note_on_c, 4, 76, 0
6, 65856, Note_on_c, 4, 76, 95
6, 65880, Note_on_c, 4, 76, 0
6, 65904, Note_on_c, 4, 74, 95
6, 65928, Note_on_c, 4, 74, 0
6, 65952, Note_on_c, 4, 73, 95
6, 65968, Note_on_c, 4, 73, 0
6, 65968, Note_on_c, 4, 74, 95
6, 65984, Note_on_c, 4, 74, 0
6, 65984, Note_on_c, 4, 76, 95
6, 66000, Note_on_c, 4, 76, 0
6, 66000, Note_on_c, 4, 78, 95
6, 66016, Note_on_c, 4, 78, 0
6, 66016, Note_on_c, 4, 79, 95
6, 66032, Note_on_c, 4, 79, 0
6, 66032, Note_on_c, 4, 81, 95
6, 66048, Note_on_c, 4, 81, 0
6, 66048, Note_on_c, 4, 74, 95
6, 66120, Note_on_c, 4, 74, 0
6, 66132, Note_on_c, 4, 73, 95
6, 66144, Note_on_c, 4, 73, 0
6, 66144, Note_on_c, 4, 74, 95
6, 66168, Note_on_c, 4, 74, 0
6, 66192, Note_on_c, 4, 73, 95
6, 66216, Note_on_c, 4, 73, 0
6, 66240, Note_on_c, 4, 74, 95
6, 66264, Note_on_c, 4, 74, 0
6, 66288, Note_on_c, 4, 69, 75
6, 66304, Note_on_c, 4, 69, 0
6, 66336, Note_on_c, 4, 67, 75
6, 66352, Note_on_c, 4, 67, 0
6, 66384, Note_on_c, 4, 66, 75
6, 66400, Note_on_c, 4, 66, 0
6, 66432, Note_on_c, 4, 71, 75
6, 66448, Note_on_c, 4, 71, 0
6, 66480, Note_on_c, 4, 61, 77
6, 66496, Note_on_c, 4, 61, 0
6, 66496, Note_on_c, 4, 64, 77
6, 66512, Note_on_c, 4, 64, 0
6, 66512, Note_on_c, 4, 69, 77
6, 66528, Note_on_c, 4, 69, 0
6, 66528, Note_on_c, 4, 62, 77
6, 66544, Note_on_c, 4, 62, 0
6, 66544, Note_on_c, 4, 66, 77
6, 66560, Note_on_c, 4, 66, 0
6, 66560, Note_on_c, 4, 69, 77
6, 66576, Note_on_c, 4, 69, 0
6, 66576, Note_on_c, 4, 57, 77
6, 66592, Note_on_c, 4, 57, 0
6, 66592, Note_on_c, 4, 61, 77
6, 66608, Note_on_c, 4, 61, 0
6, 66608, Note_on_c, 4, 64, 77
6, 66624, Note_on_c, 4, 64, 0
6, 66624, Note_on_c, 4, 62, 77
6, 66640, Note_on_c, 4, 62, 0
6, 66672, Note_on_c, 4, 74, 77
6, 66688, Note_on_c, 4, 74, 0
6, 66720, Note_on_c, 4, 73, 77
6, 66736, Note_on_c, 4, 73, 0
6, 66768, Note_on_c, 4, 71, 77
6, 66784, Note_on_c, 4, 71, 0
6, 66816, Note_on_c, 4, 76, 77
6, 66832, Note_on_c, 4, 76, 0
6, 66864, Note_on_c, 4, 74, 77
6, 66888, Note_on_c, 4, 74, 0
6, 66888, Note_on_c, 4, 73, 77
6, 66896, Note_on_c, 4, 73, 0
6, 66912, Note_on_c, 4, 74, 77
6, 66948, Note_on_c, 4, 74, 0
6, 66948, Note_on_c, 4, 62, 77
6, 66960, Note_on_c, 4, 62, 0
6, 66960, Note_on_c, 4, 66, 77
6, 66996, Note_on_c, 4, 66, 0
6, 66996, Note_on_c, 4, 64, 77
6, 67008, Note_on_c, 4, 64, 0
6, 67008, Note_on_c, 4, 62, 77
6, 67032, Note_on_c, 4, 62, 0
6, 67056, Note_on_c, 4, 69, 79
6, 67080, Note_on_c, 4, 69, 0
6, 67104, Note_on_c, 4, 67, 79
6, 67128, Note_on_c, 4, 67, 0
6, 67152, Note_on_c, 4, 61, 79
6, 67176, Note_on_c, 4, 61, 0
6, 67200, Note_on_c, 4, 66, 79
6, 67216, Note_on_c, 4, 66, 0
6, 67216, Note_on_c, 4, 62, 79
6, 67232, Note_on_c, 4, 62, 0
6, 67232, Note_on_c, 4, 64, 79
6, 67248, Note_on_c, 4, 64, 0
6, 67248, Note_on_c, 4, 66, 79
6, 67264, Note_on_c, 4, 66, 0
6, 67264, Note_on_c, 4, 62, 79
6, 67280, Note_on_c, 4, 62, 0
6, 67280, Note_on_c, 4, 64, 79
6, 67296, Note_on_c, 4, 64, 0
6, 67296, Note_on_c, 4, 66, 79
6, 67408, Note_on_c, 4, 62, 79
6, 67424, Note_on_c, 4, 62, 0
6, 67424, Note_on_c, 4, 64, 79
6, 67440, Note_on_c, 4, 64, 0
6, 67440, Note_on_c, 4, 66, 0
6, 67440, Note_on_c, 4, 66, 79
6, 67456, Note_on_c, 4, 66, 0
6, 67456, Note_on_c, 4, 62, 79
6, 67472, Note_on_c, 4, 62, 0
6, 67472, Note_on_c, 4, 64, 79
6, 67488, Note_on_c, 4, 64, 0
6, 67488, Note_on_c, 4, 66, 79
6, 67524, Note_on_c, 4, 66, 0
6, 67524, Note_on_c, 4, 69, 79
6, 67536, Note_on_c, 4, 69, 0
6, 67536, Note_on_c, 4, 74, 79
6, 67552, Note_on_c, 4, 74, 0
6, 67552, Note_on_c, 4, 73, 79
6, 67568, Note_on_c, 4, 73, 0
6, 67568, Note_on_c, 4, 74, 79
6, 67584, Note_on_c, 4, 74, 0
6, 67584, Note_on_c, 4, 71, 79
6, 67776, Note_on_c, 4, 71, 0
6, 67776, Note_on_c, 4, 73, 79
6, 67800, Note_on_c, 4, 73, 0
6, 67824, Note_on_c, 4, 73, 79
6, 67848, Note_on_c, 4, 73, 0
6, 67872, Note_on_c, 4, 71, 79
6, 67896, Note_on_c, 4, 71, 0
6, 67920, Note_on_c, 4, 71, 79
6, 67944, Note_on_c, 4, 71, 0
6, 67968, Note_on_c, 4, 69, 79
6, 67992, Note_on_c, 4, 69, 0
6, 68016, Note_on_c, 4, 69, 79
6, 68040, Note_on_c, 4, 69, 0
6, 68064, Note_on_c, 4, 71, 79
6, 68112, Note_on_c, 4, 71, 0
6, 68196, Note_on_c, 4, 73, 79
6, 68205, Note_on_c, 4, 73, 0
6, 68208, Note_on_c, 4, 74, 85
6, 68235, Note_on_c, 4, 74, 0
6, 68244, Note_on_c, 4, 73, 71
6, 68253, Note_on_c, 4, 73, 0
6, 68256, Note_on_c, 4, 71, 85
6, 68283, Note_on_c, 4, 71, 0
6, 68292, Note_on_c, 4, 71, 85
6, 68301, Note_on_c, 4, 71, 0
6, 68304, Note_on_c, 4, 69, 85
6, 68331, Note_on_c, 4, 69, 0
6, 68340, Note_on_c, 4, 69, 85
6, 68349, Note_on_c, 4, 69, 0
6, 68352, Note_on_c, 4, 69, 85
6, 68370, Note_on_c, 4, 69, 0
6, 68484, Note_on_c, 4, 67, 85
6, 68493, Note_on_c, 4, 67, 0
6, 68496, Note_on_c, 4, 74, 85
6, 68523, Note_on_c, 4, 74, 0
6, 68532, Note_on_c, 4, 69, 85
6, 68541, Note_on_c, 4, 69, 0
6, 68544, Note_on_c, 4, 71, 85
6, 68556, Note_on_c, 4, 71, 0
6, 68560, Note_on_c, 4, 69, 85
6, 68572, Note_on_c, 4, 69, 0
6, 68576, Note_on_c, 4, 67, 85
6, 68588, Note_on_c, 4, 67, 0
6, 68592, Note_on_c, 4, 66, 68
6, 68604, Note_on_c, 4, 66, 0
6, 68608, Note_on_c, 4, 67, 85
6, 68620, Note_on_c, 4, 67, 0
6, 68624, Note_on_c, 4, 69, 85
6, 68636, Note_on_c, 4, 69, 0
6, 68640, Note_on_c, 4, 62, 85
6, 68658, Note_on_c, 4, 62, 0
6, 68688, Note_on_c, 4, 69, 85
6, 68706, Note_on_c, 4, 69, 0
6, 68736, Note_on_c, 4, 64, 85
6, 68808, Note_on_c, 4, 64, 0
6, 68848, Note_on_c, 4, 68, 67
6, 68860, Note_on_c, 4, 68, 0
6, 68864, Note_on_c, 4, 69, 85
6, 68876, Note_on_c, 4, 69, 0
6, 68880, Note_on_c, 4, 71, 56
6, 68892, Note_on_c, 4, 71, 0
6, 68896, Note_on_c, 4, 68, 72
6, 68908, Note_on_c, 4, 68, 0
6, 68912, Note_on_c, 4, 69, 85
6, 68924, Note_on_c, 4, 69, 0
6, 68928, Note_on_c, 4, 71, 85
6, 69000, Note_on_c, 4, 71, 0
6, 69040, Note_on_c, 4, 68, 70
6, 69052, Note_on_c, 4, 68, 0
6, 69056, Note_on_c, 4, 69, 85
6, 69068, Note_on_c, 4, 69, 0
6, 69072, Note_on_c, 4, 71, 85
6, 69099, Note_on_c, 4, 71, 0
6, 69108, Note_on_c, 4, 71, 85
6, 69117, Note_on_c, 4, 71, 0
6, 69120, Note_on_c, 4, 73, 74
6, 69138, Note_on_c, 4, 73, 0
6, 69204, Note_on_c, 4, 78, 70
6, 69213, Note_on_c, 4, 78, 0
6, 69216, Note_on_c, 4, 74, 85
6, 69234, Note_on_c, 4, 74, 0
6, 69300, Note_on_c, 4, 79, 85
6, 69309, Note_on_c, 4, 79, 0
6, 69312, Note_on_c, 4, 76, 85
6, 69330, Note_on_c, 4, 76, 0
6, 69396, Note_on_c, 4, 81, 85
6, 69408, Note_on_c, 4, 81, 0
6, 69408, Note_on_c, 4, 78, 85
6, 69426, Note_on_c, 4, 78, 0
6, 69456, Note_on_c, 4, 81, 85
6, 69474, Note_on_c, 4, 81, 0
6, 69504, Note_on_c, 4, 74, 85
6, 69522, Note_on_c, 4, 74, 0
6, 69552, Note_on_c, 4, 73, 72
6, 69570, Note_on_c, 4, 73, 0
6, 69600, Note_on_c, 4, 71, 85
6, 69627, Note_on_c, 4, 71, 0
6, 69636, Note_on_c, 4, 71, 85
6, 69645, Note_on_c, 4, 71, 0
6, 69648, Note_on_c, 4, 69, 85
6, 69675, Note_on_c, 4, 69, 0
6, 69684, Note_on_c, 4, 69, 85
6, 69693, Note_on_c, 4, 69, 0
6, 69696, Note_on_c, 4, 69, 85
6, 69768, Note_on_c, 4, 69, 0
6, 70596, Note_on_c, 4, 71, 85
6, 70605, Note_on_c, 4, 71, 0
6, 70608, Note_on_c, 4, 78, 56
6, 70635, Note_on_c, 4, 78, 0
6, 70644, Note_on_c, 4, 73, 66
6, 70653, Note_on_c, 4, 73, 0
6, 70656, Note_on_c, 4, 74, 85
6, 70668, Note_on_c, 4, 74, 0
6, 70672, Note_on_c, 4, 73, 65
6, 70684, Note_on_c, 4, 73, 0
6, 70688, Note_on_c, 4, 71, 85
6, 70700, Note_on_c, 4, 71, 0
6, 70704, Note_on_c, 4, 70, 74
6, 70716, Note_on_c, 4, 70, 0
6, 70720, Note_on_c, 4, 71, 85
6, 70732, Note_on_c, 4, 71, 0
6, 70736, Note_on_c, 4, 73, 74
6, 70748, Note_on_c, 4, 73, 0
6, 70752, Note_on_c, 4, 66, 57
6, 70764, Note_on_c, 4, 66, 0
6, 70768, Note_on_c, 4, 71, 85
6, 70780, Note_on_c, 4, 71, 0
6, 70784, Note_on_c, 4, 74, 85
6, 70796, Note_on_c, 4, 74, 0
6, 70800, Note_on_c, 4, 74, 85
6, 70812, Note_on_c, 4, 74, 0
6, 70816, Note_on_c, 4, 73, 72
6, 70828, Note_on_c, 4, 73, 0
6, 70832, Note_on_c, 4, 74, 85
6, 70844, Note_on_c, 4, 74, 0
6, 70848, Note_on_c, 4, 66, 56
6, 70861, Note_on_c, 4, 66, 0
6, 70864, Note_on_c, 4, 69, 85
6, 70877, Note_on_c, 4, 69, 0
6, 70880, Note_on_c, 4, 74, 85
6, 70893, Note_on_c, 4, 74, 0
6, 70896, Note_on_c, 4, 74, 85
6, 70909, Note_on_c, 4, 74, 0
6, 70912, Note_on_c, 4, 73, 66
6, 70925, Note_on_c, 4, 73, 0
6, 70928, Note_on_c, 4, 74, 85
6, 70941, Note_on_c, 4, 74, 0
6, 70944, Note_on_c, 4, 67, 85
6, 70957, Note_on_c, 4, 67, 0
6, 70960, Note_on_c, 4, 70, 62
6, 70973, Note_on_c, 4, 70, 0
6, 70976, Note_on_c, 4, 71, 85
6, 70989, Note_on_c, 4, 71, 0
6, 70992, Note_on_c, 4, 73, 66
6, 71005, Note_on_c, 4, 73, 0
6, 71008, Note_on_c, 4, 70, 56
6, 71021, Note_on_c, 4, 70, 0
6, 71024, Note_on_c, 4, 71, 85
6, 71037, Note_on_c, 4, 71, 0
6, 71040, Note_on_c, 4, 64, 74
6, 71053, Note_on_c, 4, 64, 0
6, 71056, Note_on_c, 4, 70, 61
6, 71069, Note_on_c, 4, 70, 0
6, 71072, Note_on_c, 4, 73, 69
6, 71085, Note_on_c, 4, 73, 0
6, 71088, Note_on_c, 4, 73, 62
6, 71101, Note_on_c, 4, 73, 0
6, 71104, Note_on_c, 4, 71, 85
6, 71117, Note_on_c, 4, 71, 0
6, 71120, Note_on_c, 4, 73, 66
6, 71133, Note_on_c, 4, 73, 0
6, 71136, Note_on_c, 4, 66, 56
6, 71149, Note_on_c, 4, 66, 0
6, 71152, Note_on_c, 4, 71, 85
6, 71165, Note_on_c, 4, 71, 0
6, 71168, Note_on_c, 4, 74, 85
6, 71181, Note_on_c, 4, 74, 0
6, 71184, Note_on_c, 4, 74, 85
6, 71197, Note_on_c, 4, 74, 0
6, 71200, Note_on_c, 4, 73, 66
6, 71213, Note_on_c, 4, 73, 0
6, 71216, Note_on_c, 4, 74, 85
6, 71229, Note_on_c, 4, 74, 0
6, 71232, Note_on_c, 4, 64, 56
6, 71245, Note_on_c, 4, 64, 0
6, 71248, Note_on_c, 4, 71, 85
6, 71261, Note_on_c, 4, 71, 0
6, 71264, Note_on_c, 4, 73, 61
6, 71277, Note_on_c, 4, 73, 0
6, 71280, Note_on_c, 4, 73, 70
6, 71293, Note_on_c, 4, 73, 0
6, 71296, Note_on_c, 4, 70, 56
6, 71309, Note_on_c, 4, 70, 0
6, 71312, Note_on_c, 4, 71, 85
6, 71325, Note_on_c, 4, 71, 0
6, 71328, Note_on_c, 4, 73, 68
6, 71341, Note_on_c, 4, 73, 0
6, 71344, Note_on_c, 4, 70, 62
6, 71357, Note_on_c, 4, 70, 0
6, 71360, Note_on_c, 4, 71, 85
6, 71373, Note_on_c, 4, 71, 0
6, 71376, Note_on_c, 4, 66, 62
6, 71389, Note_on_c, 4, 66, 0
6, 71392, Note_on_c, 4, 71, 85
6, 71405, Note_on_c, 4, 71, 0
6, 71408, Note_on_c, 4, 70, 65
6, 71421, Note_on_c, 4, 70, 0
6, 71424, Note_on_c, 4, 71, 85
6, 71444, Note_on_c, 4, 71, 0
6, 71556, Note_on_c, 4, 66, 68
6, 71566, Note_on_c, 4, 66, 0
6, 71568, Note_on_c, 4, 73, 56
6, 71598, Note_on_c, 4, 73, 0
6, 71604, Note_on_c, 4, 68, 64
6, 71614, Note_on_c, 4, 68, 0
6, 71616, Note_on_c, 4, 69, 85
6, 71629, Note_on_c, 4, 69, 0
6, 71632, Note_on_c, 4, 68, 66
6, 71645, Note_on_c, 4, 68, 0
6, 71648, Note_on_c, 4, 66, 56
6, 71661, Note_on_c, 4, 66, 0
6, 71664, Note_on_c, 4, 65, 85
6, 71677, Note_on_c, 4, 65, 0
6, 71680, Note_on_c, 4, 66, 56
6, 71693, Note_on_c, 4, 66, 0
6, 71696, Note_on_c, 4, 68, 69
6, 71709, Note_on_c, 4, 68, 0
6, 71712, Note_on_c, 4, 61, 56
6, 71725, Note_on_c, 4, 61, 0
6, 71728, Note_on_c, 4, 66, 65
6, 71741, Note_on_c, 4, 66, 0
6, 71744, Note_on_c, 4, 69, 85
6, 71757, Note_on_c, 4, 69, 0
6, 71760, Note_on_c, 4, 69, 85
6, 71773, Note_on_c, 4, 69, 0
6, 71776, Note_on_c, 4, 68, 56
6, 71789, Note_on_c, 4, 68, 0
6, 71792, Note_on_c, 4, 69, 85
6, 71805, Note_on_c, 4, 69, 0
6, 71808, Note_on_c, 4, 61, 56
6, 71821, Note_on_c, 4, 61, 0
6, 71824, Note_on_c, 4, 66, 65
6, 71837, Note_on_c, 4, 66, 0
6, 71840, Note_on_c, 4, 69, 85
6, 71853, Note_on_c, 4, 69, 0
6, 71856, Note_on_c, 4, 69, 85
6, 71869, Note_on_c, 4, 69, 0
6, 71872, Note_on_c, 4, 68, 56
6, 71885, Note_on_c, 4, 68, 0
6, 71888, Note_on_c, 4, 69, 85
6, 71901, Note_on_c, 4, 69, 0
6, 71904, Note_on_c, 4, 62, 70
6, 71917, Note_on_c, 4, 62, 0
6, 71920, Note_on_c, 4, 65, 85
6, 71933, Note_on_c, 4, 65, 0
6, 71936, Note_on_c, 4, 66, 62
6, 71949, Note_on_c, 4, 66, 0
6, 71952, Note_on_c, 4, 68, 59
6, 71965, Note_on_c, 4, 68, 0
6, 71968, Note_on_c, 4, 65, 85
6, 71981, Note_on_c, 4, 65, 0
6, 71984, Note_on_c, 4, 66, 56
6, 71997, Note_on_c, 4, 66, 0
6, 72000, Note_on_c, 4, 59, 85
6, 72013, Note_on_c, 4, 59, 0
6, 72016, Note_on_c, 4, 65, 85
6, 72029, Note_on_c, 4, 65, 0
6, 72032, Note_on_c, 4, 68, 65
6, 72045, Note_on_c, 4, 68, 0
6, 72048, Note_on_c, 4, 68, 62
6, 72061, Note_on_c, 4, 68, 0
6, 72064, Note_on_c, 4, 66, 61
6, 72077, Note_on_c, 4, 66, 0
6, 72080, Note_on_c, 4, 68, 65
6, 72093, Note_on_c, 4, 68, 0
6, 72096, Note_on_c, 4, 61, 56
6, 72109, Note_on_c, 4, 61, 0
6, 72112, Note_on_c, 4, 66, 66
6, 72125, Note_on_c, 4, 66, 0
6, 72128, Note_on_c, 4, 69, 85
6, 72141, Note_on_c, 4, 69, 0
6, 72144, Note_on_c, 4, 69, 85
6, 72157, Note_on_c, 4, 69, 0
6, 72160, Note_on_c, 4, 68, 62
6, 72173, Note_on_c, 4, 68, 0
6, 72176, Note_on_c, 4, 69, 85
6, 72189, Note_on_c, 4, 69, 0
6, 72192, Note_on_c, 4, 59, 77
6, 72205, Note_on_c, 4, 59, 0
6, 72208, Note_on_c, 4, 62, 85
6, 72221, Note_on_c, 4, 62, 0
6, 72224, Note_on_c, 4, 68, 56
6, 72237, Note_on_c, 4, 68, 0
6, 72240, Note_on_c, 4, 68, 66
6, 72253, Note_on_c, 4, 68, 0
6, 72256, Note_on_c, 4, 65, 79
6, 72269, Note_on_c, 4, 65, 0
6, 72272, Note_on_c, 4, 66, 62
6, 72285, Note_on_c, 4, 66, 0
6, 72288, Note_on_c, 4, 68, 59
6, 72301, Note_on_c, 4, 68, 0
6, 72304, Note_on_c, 4, 65, 85
6, 72317, Note_on_c, 4, 65, 0
6, 72320, Note_on_c, 4, 66, 62
6, 72333, Note_on_c, 4, 66, 0
6, 72336, Note_on_c, 4, 61, 59
6, 72349, Note_on_c, 4, 61, 0
6, 72352, Note_on_c, 4, 66, 66
6, 72365, Note_on_c, 4, 66, 0
6, 72368, Note_on_c, 4, 65, 85
6, 72381, Note_on_c, 4, 65, 0
6, 72384, Note_on_c, 4, 66, 70
6, 72403, Note_on_c, 4, 66, 0
6, 72528, Note_on_c, 4, 69, 85
6, 72547, Note_on_c, 4, 69, 0
6, 72576, Note_on_c, 4, 68, 70
6, 72595, Note_on_c, 4, 68, 0
6, 72720, Note_on_c, 4, 68, 70
6, 72739, Note_on_c, 4, 68, 0
6, 72768, Note_on_c, 4, 66, 68
6, 72787, Note_on_c, 4, 66, 0
6, 73200, Note_on_c, 4, 73, 66
6, 73224, Note_on_c, 4, 73, 0
6, 73296, Note_on_c, 4, 74, 85
6, 73320, Note_on_c, 4, 74, 0
6, 73392, Note_on_c, 4, 76, 85
6, 73416, Note_on_c, 4, 76, 0
6, 73488, Note_on_c, 4, 78, 72
6, 73512, Note_on_c, 4, 78, 0
6, 74532, Note_on_c, 4, 73, 85
6, 74542, Note_on_c, 4, 73, 0
6, 74544, Note_on_c, 4, 78, 72
6, 74574, Note_on_c, 4, 78, 0
6, 74580, Note_on_c, 4, 73, 74
6, 74590, Note_on_c, 4, 73, 0
6, 74592, Note_on_c, 4, 74, 85
6, 74605, Note_on_c, 4, 74, 0
6, 74608, Note_on_c, 4, 73, 56
6, 74621, Note_on_c, 4, 73, 0
6, 74624, Note_on_c, 4, 71, 64
6, 74637, Note_on_c, 4, 71, 0
6, 74640, Note_on_c, 4, 70, 56
6, 74653, Note_on_c, 4, 70, 0
6, 74656, Note_on_c, 4, 71, 85
6, 74669, Note_on_c, 4, 71, 0
6, 74672, Note_on_c, 4, 73, 62
6, 74685, Note_on_c, 4, 73, 0
6, 74688, Note_on_c, 4, 66, 65
6, 74701, Note_on_c, 4, 66, 0
6, 74704, Note_on_c, 4, 71, 56
6, 74717, Note_on_c, 4, 71, 0
6, 74720, Note_on_c, 4, 74, 85
6, 74733, Note_on_c, 4, 74, 0
6, 74736, Note_on_c, 4, 78, 65
6, 74749, Note_on_c, 4, 78, 0
6, 74752, Note_on_c, 4, 76, 69
6, 74765, Note_on_c, 4, 76, 0
6, 74768, Note_on_c, 4, 78, 59
6, 74781, Note_on_c, 4, 78, 0
6, 74784, Note_on_c, 4, 71, 77
6, 74797, Note_on_c, 4, 71, 0
6, 74800, Note_on_c, 4, 69, 85
6, 74813, Note_on_c, 4, 69, 0
6, 74816, Note_on_c, 4, 67, 85
6, 74829, Note_on_c, 4, 67, 0
6, 74832, Note_on_c, 4, 69, 85
6, 74892, Note_on_c, 4, 69, 0
6, 74896, Note_on_c, 4, 67, 85
6, 74909, Note_on_c, 4, 67, 0
6, 74912, Note_on_c, 4, 71, 85
6, 74925, Note_on_c, 4, 71, 0
6, 74928, Note_on_c, 4, 76, 85
6, 74958, Note_on_c, 4, 76, 0
6, 74964, Note_on_c, 4, 71, 85
6, 74974, Note_on_c, 4, 71, 0
6, 74976, Note_on_c, 4, 73, 56
6, 74989, Note_on_c, 4, 73, 0
6, 74992, Note_on_c, 4, 71, 78
6, 75005, Note_on_c, 4, 71, 0
6, 75008, Note_on_c, 4, 69, 85
6, 75021, Note_on_c, 4, 69, 0
6, 75024, Note_on_c, 4, 68, 57
6, 75037, Note_on_c, 4, 68, 0
6, 75040, Note_on_c, 4, 69, 85
6, 75053, Note_on_c, 4, 69, 0
6, 75056, Note_on_c, 4, 71, 56
6, 75069, Note_on_c, 4, 71, 0
6, 75072, Note_on_c, 4, 64, 85
6, 75085, Note_on_c, 4, 64, 0
6, 75088, Note_on_c, 4, 69, 85
6, 75101, Note_on_c, 4, 69, 0
6, 75104, Note_on_c, 4, 73, 56
6, 75117, Note_on_c, 4, 73, 0
6, 75120, Note_on_c, 4, 76, 62
6, 75133, Note_on_c, 4, 76, 0
6, 75136, Note_on_c, 4, 74, 85
6, 75149, Note_on_c, 4, 74, 0
6, 75152, Note_on_c, 4, 76, 85
6, 75165, Note_on_c, 4, 76, 0
6, 75168, Note_on_c, 4, 69, 85
6, 75181, Note_on_c, 4, 69, 0
6, 75184, Note_on_c, 4, 68, 56
6, 75197, Note_on_c, 4, 68, 0
6, 75200, Note_on_c, 4, 66, 62
6, 75213, Note_on_c, 4, 66, 0
6, 75216, Note_on_c, 4, 68, 67
6, 75276, Note_on_c, 4, 68, 0
6, 75280, Note_on_c, 4, 66, 60
6, 75293, Note_on_c, 4, 66, 0
6, 75296, Note_on_c, 4, 69, 85
6, 75309, Note_on_c, 4, 69, 0
6, 75312, Note_on_c, 4, 74, 85
6, 75342, Note_on_c, 4, 74, 0
6, 75348, Note_on_c, 4, 69, 85
6, 75358, Note_on_c, 4, 69, 0
6, 75360, Note_on_c, 4, 71, 85
6, 75373, Note_on_c, 4, 71, 0
6, 75376, Note_on_c, 4, 68, 56
6, 75389, Note_on_c, 4, 68, 0
6, 75392, Note_on_c, 4, 71, 85
6, 75405, Note_on_c, 4, 71, 0
6, 75408, Note_on_c, 4, 76, 85
6, 75438, Note_on_c, 4, 76, 0
6, 75444, Note_on_c, 4, 71, 85
6, 75454, Note_on_c, 4, 71, 0
6, 75456, Note_on_c, 4, 73, 56
6, 75469, Note_on_c, 4, 73, 0
6, 75472, Note_on_c, 4, 69, 85
6, 75485, Note_on_c, 4, 69, 0
6, 75488, Note_on_c, 4, 73, 66
6, 75501, Note_on_c, 4, 73, 0
6, 75504, Note_on_c, 4, 78, 69
6, 75534, Note_on_c, 4, 78, 0
6, 75540, Note_on_c, 4, 73, 67
6, 75550, Note_on_c, 4, 73, 0
6, 75552, Note_on_c, 4, 74, 85
6, 75565, Note_on_c, 4, 74, 0
6, 75568, Note_on_c, 4, 71, 72
6, 75581, Note_on_c, 4, 71, 0
6, 75584, Note_on_c, 4, 74, 85
6, 75597, Note_on_c, 4, 74, 0
6, 75600, Note_on_c, 4, 80, 72
6, 75630, Note_on_c, 4, 80, 0
6, 75636, Note_on_c, 4, 74, 85
6, 75646, Note_on_c, 4, 74, 0
6, 75648, Note_on_c, 4, 76, 85
6, 75661, Note_on_c, 4, 76, 0
6, 75664, Note_on_c, 4, 73, 64
6, 75677, Note_on_c, 4, 73, 0
6, 75680, Note_on_c, 4, 76, 85
6, 75693, Note_on_c, 4, 76, 0
6, 75696, Note_on_c, 4, 81, 85
6, 75726, Note_on_c, 4, 81, 0
6, 75732, Note_on_c, 4, 76, 85
6, 75742, Note_on_c, 4, 76, 0
6, 75744, Note_on_c, 4, 78, 56
6, 75757, Note_on_c, 4, 78, 0
6, 75760, Note_on_c, 4, 74, 85
6, 75773, Note_on_c, 4, 74, 0
6, 75776, Note_on_c, 4, 78, 70
6, 75789, Note_on_c, 4, 78, 0
6, 75792, Note_on_c, 4, 83, 85
6, 75822, Note_on_c, 4, 83, 0
6, 75828, Note_on_c, 4, 78, 72
6, 75838, Note_on_c, 4, 78, 0
6, 75840, Note_on_c, 4, 80, 67
6, 75853, Note_on_c, 4, 80, 0
6, 75856, Note_on_c, 4, 78, 61
6, 75869, Note_on_c, 4, 78, 0
6, 75872, Note_on_c, 4, 76, 85
6, 75885, Note_on_c, 4, 76, 0
6, 75888, Note_on_c, 4, 81, 85
6, 75918, Note_on_c, 4, 81, 0
6, 75924, Note_on_c, 4, 76, 85
6, 75934, Note_on_c, 4, 76, 0
6, 75936, Note_on_c, 4, 78, 67
6, 75949, Note_on_c, 4, 78, 0
6, 75952, Note_on_c, 4, 76, 85
6, 75965, Note_on_c, 4, 76, 0
6, 75968, Note_on_c, 4, 74, 85
6, 75981, Note_on_c, 4, 74, 0
6, 75984, Note_on_c, 4, 73, 64
6, 75997, Note_on_c, 4, 73, 0
6, 76000, Note_on_c, 4, 74, 85
6, 76013, Note_on_c, 4, 74, 0
6, 76016, Note_on_c, 4, 76, 85
6, 76029, Note_on_c, 4, 76, 0
6, 76032, Note_on_c, 4, 69, 85
6, 76052, Note_on_c, 4, 69, 0
6, 76080, Note_on_c, 4, 73, 66
6, 76100, Note_on_c, 4, 73, 0
6, 76128, Note_on_c, 4, 71, 85
6, 76148, Note_on_c, 4, 71, 0
6, 76176, Note_on_c, 4, 75, 70
6, 76196, Note_on_c, 4, 75, 0
6, 76224, Note_on_c, 4, 76, 79
6, 76254, Note_on_c, 4, 76, 0
6, 76260, Note_on_c, 4, 71, 85
6, 76270, Note_on_c, 4, 71, 0
6, 76272, Note_on_c, 4, 76, 79
6, 76285, Note_on_c, 4, 76, 0
6, 76288, Note_on_c, 4, 73, 62
6, 76301, Note_on_c, 4, 73, 0
6, 76304, Note_on_c, 4, 69, 85
6, 76317, Note_on_c, 4, 69, 0
6, 76320, Note_on_c, 4, 69, 85
6, 76340, Note_on_c, 4, 69, 0
6, 76368, Note_on_c, 4, 68, 65
6, 76388, Note_on_c, 4, 68, 0
6, 76416, Note_on_c, 4, 69, 85
6, 76446, Note_on_c, 4, 69, 0
6, 76452, Note_on_c, 4, 64, 62
6, 76462, Note_on_c, 4, 64, 0
6, 76464, Note_on_c, 4, 69, 85
6, 76494, Note_on_c, 4, 69, 0
6, 76500, Note_on_c, 4, 64, 69
6, 76510, Note_on_c, 4, 64, 0
6, 76512, Note_on_c, 4, 64, 71
6, 76524, Note_on_c, 4, 64, 0
6, 76524, Note_on_c, 4, 66, 71
6, 76641, Note_on_c, 4, 66, 0
6, 76644, Note_on_c, 4, 66, 71
6, 76656, Note_on_c, 4, 66, 0
6, 76656, Note_on_c, 4, 67, 71
6, 76669, Note_on_c, 4, 67, 0
6, 76672, Note_on_c, 4, 64, 71
6, 76685, Note_on_c, 4, 64, 0
6, 76688, Note_on_c, 4, 66, 71
6, 76701, Note_on_c, 4, 66, 0
6, 76704, Note_on_c, 4, 66, 71
6, 76714, Note_on_c, 4, 66, 0
6, 76716, Note_on_c, 4, 64, 71
6, 76836, Note_on_c, 4, 64, 0
6, 76836, Note_on_c, 4, 64, 71
6, 76848, Note_on_c, 4, 64, 0
6, 76848, Note_on_c, 4, 69, 85
6, 76878, Note_on_c, 4, 69, 0
6, 76884, Note_on_c, 4, 66, 64
6, 76894, Note_on_c, 4, 66, 0
6, 76896, Note_on_c, 4, 64, 85
6, 76906, Note_on_c, 4, 64, 0
6, 76908, Note_on_c, 4, 62, 85
6, 77008, Note_on_c, 4, 64, 85
6, 77024, Note_on_c, 4, 64, 0
6, 77024, Note_on_c, 4, 66, 56
6, 77040, Note_on_c, 4, 66, 0
6, 77040, Note_on_c, 4, 62, 0
6, 77040, Note_on_c, 4, 64, 85
6, 77056, Note_on_c, 4, 64, 0
6, 77056, Note_on_c, 4, 66, 62
6, 77072, Note_on_c, 4, 66, 0
6, 77072, Note_on_c, 4, 62, 85
6, 77088, Note_on_c, 4, 62, 0
6, 77088, Note_on_c, 4, 61, 74
6, 77112, Note_on_c, 4, 61, 0
6, 77316, Note_on_c, 4, 71, 85
6, 77328, Note_on_c, 4, 71, 0
6, 77328, Note_on_c, 4, 76, 85
6, 77364, Note_on_c, 4, 76, 0
6, 77364, Note_on_c, 4, 71, 72
6, 77376, Note_on_c, 4, 71, 0
6, 77376, Note_on_c, 4, 72, 61
6, 77392, Note_on_c, 4, 72, 0
6, 77392, Note_on_c, 4, 71, 70
6, 77408, Note_on_c, 4, 71, 0
6, 77408, Note_on_c, 4, 69, 85
6, 77424, Note_on_c, 4, 69, 0
6, 77424, Note_on_c, 4, 67, 84
6, 77440, Note_on_c, 4, 67, 0
6, 77440, Note_on_c, 4, 69, 76
6, 77456, Note_on_c, 4, 69, 0
6, 77456, Note_on_c, 4, 71, 85
6, 77472, Note_on_c, 4, 71, 0
6, 77472, Note_on_c, 4, 64, 85
6, 77496, Note_on_c, 4, 64, 0
6, 77700, Note_on_c, 4, 66, 62
6, 77712, Note_on_c, 4, 66, 0
6, 77712, Note_on_c, 4, 71, 56
6, 77748, Note_on_c, 4, 71, 0
6, 77748, Note_on_c, 4, 66, 66
6, 77760, Note_on_c, 4, 66, 0
6, 77760, Note_on_c, 4, 67, 79
6, 77776, Note_on_c, 4, 67, 0
6, 77776, Note_on_c, 4, 66, 56
6, 77792, Note_on_c, 4, 66, 0
6, 77792, Note_on_c, 4, 64, 76
6, 77808, Note_on_c, 4, 64, 0
6, 77808, Note_on_c, 4, 62, 85
6, 77824, Note_on_c, 4, 62, 0
6, 77824, Note_on_c, 4, 64, 85
6, 77840, Note_on_c, 4, 64, 0
6, 77840, Note_on_c, 4, 66, 62
6, 77856, Note_on_c, 4, 66, 0
6, 77856, Note_on_c, 4, 59, 62
6, 77875, Note_on_c, 4, 59, 0
6, 79236, Note_on_c, 4, 66, 84
6, 79248, Note_on_c, 4, 66, 0
6, 79248, Note_on_c, 4, 69, 85
6, 79284, Note_on_c, 4, 69, 0
6, 79284, Note_on_c, 4, 66, 79
6, 79296, Note_on_c, 4, 66, 0
6, 79296, Note_on_c, 4, 59, 85
6, 79344, Note_on_c, 4, 59, 0
6, 79428, Note_on_c, 4, 64, 85
6, 79440, Note_on_c, 4, 64, 0
6, 79440, Note_on_c, 4, 67, 85
6, 79476, Note_on_c, 4, 67, 0
6, 79476, Note_on_c, 4, 64, 85
6, 79488, Note_on_c, 4, 64, 0
6, 79488, Note_on_c, 4, 57, 85
6, 79536, Note_on_c, 4, 57, 0
6, 79620, Note_on_c, 4, 69, 66
6, 79630, Note_on_c, 4, 69, 0
6, 79632, Note_on_c, 4, 74, 74
6, 79661, Note_on_c, 4, 74, 0
6, 79668, Note_on_c, 4, 69, 85
6, 79678, Note_on_c, 4, 69, 0
6, 79680, Note_on_c, 4, 71, 74
6, 79693, Note_on_c, 4, 71, 0
6, 79696, Note_on_c, 4, 69, 85
6, 79709, Note_on_c, 4, 69, 0
6, 79712, Note_on_c, 4, 67, 85
6, 79725, Note_on_c, 4, 67, 0
6, 79728, Note_on_c, 4, 66, 56
6, 79741, Note_on_c, 4, 66, 0
6, 79744, Note_on_c, 4, 67, 85
6, 79757, Note_on_c, 4, 67, 0
6, 79760, Note_on_c, 4, 69, 85
6, 79773, Note_on_c, 4, 69, 0
6, 79776, Note_on_c, 4, 62, 72
6, 79815, Note_on_c, 4, 62, 0
6, 80004, Note_on_c, 4, 64, 72
6, 80014, Note_on_c, 4, 64, 0
6, 80016, Note_on_c, 4, 69, 72
6, 80045, Note_on_c, 4, 69, 0
6, 80052, Note_on_c, 4, 64, 82
6, 80062, Note_on_c, 4, 64, 0
6, 80064, Note_on_c, 4, 66, 56
6, 80077, Note_on_c, 4, 66, 0
6, 80080, Note_on_c, 4, 64, 70
6, 80093, Note_on_c, 4, 64, 0
6, 80096, Note_on_c, 4, 62, 85
6, 80109, Note_on_c, 4, 62, 0
6, 80112, Note_on_c, 4, 61, 56
6, 80125, Note_on_c, 4, 61, 0
6, 80128, Note_on_c, 4, 62, 85
6, 80141, Note_on_c, 4, 62, 0
6, 80144, Note_on_c, 4, 64, 85
6, 80157, Note_on_c, 4, 64, 0
6, 80160, Note_on_c, 4, 57, 77
6, 80199, Note_on_c, 4, 57, 0
6, 80388, Note_on_c, 4, 64, 85
6, 80400, Note_on_c, 4, 64, 0
6, 80400, Note_on_c, 4, 69, 85
6, 80436, Note_on_c, 4, 69, 0
6, 80436, Note_on_c, 4, 64, 85
6, 80448, Note_on_c, 4, 64, 0
6, 80560, Note_on_c, 4, 61, 56
6, 80573, Note_on_c, 4, 61, 0
6, 80576, Note_on_c, 4, 62, 78
6, 80589, Note_on_c, 4, 62, 0
6, 80592, Note_on_c, 4, 64, 85
6, 80605, Note_on_c, 4, 64, 0
6, 80608, Note_on_c, 4, 61, 56
6, 80621, Note_on_c, 4, 61, 0
6, 80624, Note_on_c, 4, 62, 85
6, 80637, Note_on_c, 4, 62, 0
6, 80640, Note_on_c, 4, 57, 85
6, 80664, Note_on_c, 4, 57, 0
6, 81216, Note_on_c, 4, 71, 85
6, 81236, Note_on_c, 4, 71, 0
6, 81312, Note_on_c, 4, 69, 85
6, 81332, Note_on_c, 4, 69, 0
6, 81408, Note_on_c, 4, 77, 85
6, 81428, Note_on_c, 4, 77, 0
6, 81504, Note_on_c, 4, 78, 74
6, 81524, Note_on_c, 4, 78, 0
6, 81600, Note_on_c, 4, 78, 70
6, 81620, Note_on_c, 4, 78, 0
6, 81696, Note_on_c, 4, 80, 66
6, 81716, Note_on_c, 4, 80, 0
6, 83364, Note_on_c, 4, 73, 74
6, 83374, Note_on_c, 4, 73, 0
6, 83376, Note_on_c, 4, 78, 67
6, 83406, Note_on_c, 4, 78, 0
6, 83412, Note_on_c, 4, 73, 57
6, 83422, Note_on_c, 4, 73, 0
6, 83424, Note_on_c, 4, 74, 85
6, 83437, Note_on_c, 4, 74, 0
6, 83440, Note_on_c, 4, 73, 62
6, 83453, Note_on_c, 4, 73, 0
6, 83456, Note_on_c, 4, 71, 85
6, 83469, Note_on_c, 4, 71, 0
6, 83472, Note_on_c, 4, 70, 61
6, 83485, Note_on_c, 4, 70, 0
6, 83488, Note_on_c, 4, 71, 85
6, 83496, Note_on_c, 4, 73, 57
6, 83501, Note_on_c, 4, 71, 0
6, 83509, Note_on_c, 4, 73, 0
6, 83520, Note_on_c, 4, 66, 68
6, 83580, Note_on_c, 4, 66, 0
6, 83604, Note_on_c, 4, 64, 85
6, 83614, Note_on_c, 4, 64, 0
6, 83616, Note_on_c, 4, 62, 85
6, 83646, Note_on_c, 4, 62, 0
6, 83652, Note_on_c, 4, 74, 85
6, 83662, Note_on_c, 4, 74, 0
6, 83664, Note_on_c, 4, 73, 59
6, 83677, Note_on_c, 4, 73, 0
6, 83680, Note_on_c, 4, 74, 85
6, 83693, Note_on_c, 4, 74, 0
6, 83696, Note_on_c, 4, 71, 85
6, 83709, Note_on_c, 4, 71, 0
6, 83712, Note_on_c, 4, 70, 62
6, 83741, Note_on_c, 4, 70, 0
6, 83748, Note_on_c, 4, 71, 85
6, 83758, Note_on_c, 4, 71, 0
6, 83760, Note_on_c, 4, 73, 62
6, 83773, Note_on_c, 4, 73, 0
6, 83776, Note_on_c, 4, 74, 77
6, 83789, Note_on_c, 4, 74, 0
6, 83792, Note_on_c, 4, 76, 65
6, 83805, Note_on_c, 4, 76, 0
6, 83808, Note_on_c, 4, 78, 72
6, 83827, Note_on_c, 4, 78, 0
6, 84324, Note_on_c, 4, 71, 85
6, 84334, Note_on_c, 4, 71, 0
6, 84336, Note_on_c, 4, 71, 85
6, 84365, Note_on_c, 4, 71, 0
6, 84372, Note_on_c, 4, 71, 85
6, 84382, Note_on_c, 4, 71, 0
6, 84384, Note_on_c, 4, 71, 77
6, 84403, Note_on_c, 4, 71, 0
6, 84432, Note_on_c, 4, 70, 56
6, 84437, Note_on_c, 4, 70, 0
6, 84438, Note_on_c, 4, 71, 85
6, 84443, Note_on_c, 4, 71, 0
6, 84444, Note_on_c, 4, 70, 62
6, 84449, Note_on_c, 4, 70, 0
6, 84450, Note_on_c, 4, 71, 85
6, 84455, Note_on_c, 4, 71, 0
6, 84480, Note_on_c, 4, 66, 85
6, 84519, Note_on_c, 4, 66, 0
6, 87492, Note_on_c, 4, 74, 95
6, 87504, Note_on_c, 4, 74, 0
6, 87504, Note_on_c, 4, 81, 95
6, 87540, Note_on_c, 4, 81, 0
6, 87540, Note_on_c, 4, 74, 95
6, 87552, Note_on_c, 4, 74, 0
6, 87552, Note_on_c, 4, 78, 95
6, 87568, Note_on_c, 4, 78, 0
6, 87568, Note_on_c, 4, 76, 95
6, 87584, Note_on_c, 4, 76, 0
6, 87584, Note_on_c, 4, 74, 95
6, 87600, Note_on_c, 4, 74, 0
6, 87600, Note_on_c, 4, 73, 95
6, 87616, Note_on_c, 4, 73, 0
6, 87616, Note_on_c, 4, 74, 95
6, 87632, Note_on_c, 4, 74, 0
6, 87632, Note_on_c, 4, 76, 95
6, 87648, Note_on_c, 4, 76, 0
6, 87648, Note_on_c, 4, 69, 95
6, 87664, Note_on_c, 4, 69, 0
6, 87664, Note_on_c, 4, 71, 95
6, 87680, Note_on_c, 4, 71, 0
6, 87680, Note_on_c, 4, 73, 95
6, 87696, Note_on_c, 4, 73, 0
6, 87696, Note_on_c, 4, 74, 95
6, 87712, Note_on_c, 4, 74, 0
6, 87712, Note_on_c, 4, 76, 95
6, 87728, Note_on_c, 4, 76, 0
6, 87728, Note_on_c, 4, 78, 95
6, 87744, Note_on_c, 4, 78, 0
6, 87744, Note_on_c, 4, 71, 95
6, 87768, Note_on_c, 4, 71, 0
6, 87792, Note_on_c, 4, 73, 95
6, 87816, Note_on_c, 4, 73, 0
6, 87840, Note_on_c, 4, 71, 95
6, 87856, Note_on_c, 4, 71, 0
6, 87856, Note_on_c, 4, 74, 95
6, 87872, Note_on_c, 4, 74, 0
6, 87872, Note_on_c, 4, 78, 95
6, 87888, Note_on_c, 4, 78, 0
6, 87888, Note_on_c, 4, 78, 95
6, 87904, Note_on_c, 4, 78, 0
6, 87904, Note_on_c, 4, 76, 95
6, 87920, Note_on_c, 4, 76, 0
6, 87920, Note_on_c, 4, 78, 95
6, 87936, Note_on_c, 4, 78, 0
6, 87936, Note_on_c, 4, 71, 95
6, 87952, Note_on_c, 4, 71, 0
6, 87952, Note_on_c, 4, 79, 95
6, 87968, Note_on_c, 4, 79, 0
6, 87968, Note_on_c, 4, 78, 95
6, 87984, Note_on_c, 4, 78, 0
6, 87984, Note_on_c, 4, 76, 95
6, 88000, Note_on_c, 4, 76, 0
6, 88000, Note_on_c, 4, 81, 95
6, 88016, Note_on_c, 4, 81, 0
6, 88016, Note_on_c, 4, 79, 95
6, 88032, Note_on_c, 4, 79, 0
6, 88032, Note_on_c, 4, 78, 95
6, 88056, Note_on_c, 4, 78, 0
6, 88080, Note_on_c, 4, 76, 95
6, 88104, Note_on_c, 4, 76, 0
6, 88128, Note_on_c, 4, 76, 95
6, 88152, Note_on_c, 4, 76, 0
6, 88176, Note_on_c, 4, 74, 95
6, 88200, Note_on_c, 4, 74, 0
6, 88224, Note_on_c, 4, 73, 95
6, 88240, Note_on_c, 4, 73, 0
6, 88240, Note_on_c, 4, 74, 95
6, 88256, Note_on_c, 4, 74, 0
6, 88256, Note_on_c, 4, 76, 95
6, 88272, Note_on_c, 4, 76, 0
6, 88272, Note_on_c, 4, 78, 95
6, 88288, Note_on_c, 4, 78, 0
6, 88288, Note_on_c, 4, 79, 95
6, 88304, Note_on_c, 4, 79, 0
6, 88304, Note_on_c, 4, 81, 95
6, 88320, Note_on_c, 4, 81, 0
6, 88320, Note_on_c, 4, 74, 95
6, 88392, Note_on_c, 4, 74, 0
6, 88404, Note_on_c, 4, 73, 95
6, 88416, Note_on_c, 4, 73, 0
6, 88416, Note_on_c, 4, 74, 95
6, 88440, Note_on_c, 4, 74, 0
6, 88464, Note_on_c, 4, 73, 95
6, 88488, Note_on_c, 4, 73, 0
6, 88512, Note_on_c, 4, 74, 95
6, 88536, Note_on_c, 4, 74, 0
6, 88560, Note_on_c, 4, 69, 75
6, 88576, Note_on_c, 4, 69, 0
6, 88608, Note_on_c, 4, 67, 75
6, 88624, Note_on_c, 4, 67, 0
6, 88656, Note_on_c, 4, 66, 75
6, 88672, Note_on_c, 4, 66, 0
6, 88704, Note_on_c, 4, 71, 75
6, 88720, Note_on_c, 4, 71, 0
6, 88752, Note_on_c, 4, 61, 77
6, 88768, Note_on_c, 4, 61, 0
6, 88768, Note_on_c, 4, 64, 77
6, 88784, Note_on_c, 4, 64, 0
6, 88784, Note_on_c, 4, 69, 77
6, 88800, Note_on_c, 4, 69, 0
6, 88800, Note_on_c, 4, 62, 77
6, 88816, Note_on_c, 4, 62, 0
6, 88816, Note_on_c, 4, 66, 77
6, 88832, Note_on_c, 4, 66, 0
6, 88832, Note_on_c, 4, 69, 77
6, 88848, Note_on_c, 4, 69, 0
6, 88848, Note_on_c, 4, 57, 77
6, 88864, Note_on_c, 4, 57, 0
6, 88864, Note_on_c, 4, 61, 77
6, 88880, Note_on_c, 4, 61, 0
6, 88880, Note_on_c, 4, 64, 77
6, 88896, Note_on_c, 4, 64, 0
6, 88896, Note_on_c, 4, 62, 77
6, 88912, Note_on_c, 4, 62, 0
6, 88944, Note_on_c, 4, 74, 77
6, 88960, Note_on_c, 4, 74, 0
6, 88992, Note_on_c, 4, 73, 77
6, 89008, Note_on_c, 4, 73, 0
6, 89040, Note_on_c, 4, 71, 77
6, 89056, Note_on_c, 4, 71, 0
6, 89088, Note_on_c, 4, 76, 77
6, 89104, Note_on_c, 4, 76, 0
6, 89136, Note_on_c, 4, 74, 77
6, 89160, Note_on_c, 4, 74, 0
6, 89160, Note_on_c, 4, 73, 77
6, 89168, Note_on_c, 4, 73, 0
6, 89184, Note_on_c, 4, 74, 77
6, 89220, Note_on_c, 4, 74, 0
6, 89220, Note_on_c, 4, 62, 77
6, 89232, Note_on_c, 4, 62, 0
6, 89232, Note_on_c, 4, 66, 77
6, 89268, Note_on_c, 4, 66, 0
6, 89268, Note_on_c, 4, 64, 77
6, 89280, Note_on_c, 4, 64, 0
6, 89280, Note_on_c, 4, 62, 77
6, 89304, Note_on_c, 4, 62, 0
6, 89328, Note_on_c, 4, 69, 79
6, 89352, Note_on_c, 4, 69, 0
6, 89376, Note_on_c, 4, 67, 79
6, 89400, Note_on_c, 4, 67, 0
6, 89424, Note_on_c, 4, 61, 79
6, 89448, Note_on_c, 4, 61, 0
6, 89472, Note_on_c, 4, 66, 79
6, 89488, Note_on_c, 4, 66, 0
6, 89488, Note_on_c, 4, 62, 79
6, 89504, Note_on_c, 4, 62, 0
6, 89504, Note_on_c, 4, 64, 79
6, 89520, Note_on_c, 4, 64, 0
6, 89520, Note_on_c, 4, 66, 79
6, 89536, Note_on_c, 4, 66, 0
6, 89536, Note_on_c, 4, 62, 79
6, 89552, Note_on_c, 4, 62, 0
6, 89552, Note_on_c, 4, 64, 79
6, 89568, Note_on_c, 4, 64, 0
6, 89568, Note_on_c, 4, 66, 79
6, 89680, Note_on_c, 4, 62, 79
6, 89696, Note_on_c, 4, 62, 0
6, 89696, Note_on_c, 4, 64, 79
6, 89712, Note_on_c, 4, 64, 0
6, 89712, Note_on_c, 4, 66, 0
6, 89712, Note_on_c, 4, 66, 79
6, 89728, Note_on_c, 4, 66, 0
6, 89728, Note_on_c, 4, 62, 79
6, 89744, Note_on_c, 4, 62, 0
6, 89744, Note_on_c, 4, 64, 79
6, 89760, Note_on_c, 4, 64, 0
6, 89760, Note_on_c, 4, 66, 79
6, 89796, Note_on_c, 4, 66, 0
6, 89796, Note_on_c, 4, 69, 79
6, 89808, Note_on_c, 4, 69, 0
6, 89808, Note_on_c, 4, 74, 79
6, 89824, Note_on_c, 4, 74, 0
6, 89824, Note_on_c, 4, 73, 79
6, 89840, Note_on_c, 4, 73, 0
6, 89840, Note_on_c, 4, 74, 79
6, 89856, Note_on_c, 4, 74, 0
6, 89856, Note_on_c, 4, 71, 79
6, 90048, Note_on_c, 4, 71, 0
6, 90048, Note_on_c, 4, 73, 79
6, 90072, Note_on_c, 4, 73, 0
6, 90096, Note_on_c, 4, 73, 79
6, 90120, Note_on_c, 4, 73, 0
6, 90144, Note_on_c, 4, 71, 79
6, 90168, Note_on_c, 4, 71, 0
6, 90192, Note_on_c, 4, 71, 79
6, 90216, Note_on_c, 4, 71, 0
6, 90240, Note_on_c, 4, 69, 79
6, 90264, Note_on_c, 4, 69, 0
6, 90288, Note_on_c, 4, 69, 79
6, 90312, Note_on_c, 4, 69, 0
6, 90336, Note_on_c, 4, 71, 79
6, 90384, Note_on_c, 4, 71, 0
6, 90468, Note_on_c, 4, 73, 79
6, 90477, Note_on_c, 4, 73, 0
6, 90480, Note_on_c, 4, 74, 85
6, 90507, Note_on_c, 4, 74, 0
6, 90516, Note_on_c, 4, 73, 71
6, 90525, Note_on_c, 4, 73, 0
6, 90528, Note_on_c, 4, 71, 85
6, 90555, Note_on_c, 4, 71, 0
6, 90564, Note_on_c, 4, 71, 85
6, 90573, Note_on_c, 4, 71, 0
6, 90576, Note_on_c, 4, 69, 85
6, 90603, Note_on_c, 4, 69, 0
6, 90612, Note_on_c, 4, 69, 85
6, 90621, Note_on_c, 4, 69, 0
6, 90624, Note_on_c, 4, 69, 85
6, 90642, Note_on_c, 4, 69, 0
6, 90756, Note_on_c, 4, 67, 85
6, 90765, Note_on_c, 4, 67, 0
6, 90768, Note_on_c, 4, 74, 85
6, 90795, Note_on_c, 4, 74, 0
6, 90804, Note_on_c, 4, 69, 85
6, 90813, Note_on_c, 4, 69, 0
6, 90816, Note_on_c, 4, 71, 85
6, 90828, Note_on_c, 4, 71, 0
6, 90832, Note_on_c, 4, 69, 85
6, 90844, Note_on_c, 4, 69, 0
6, 90848, Note_on_c, 4, 67, 85
6, 90860, Note_on_c, 4, 67, 0
6, 90864, Note_on_c, 4, 66, 68
6, 90876, Note_on_c, 4, 66, 0
6, 90880, Note_on_c, 4, 67, 85
6, 90892, Note_on_c, 4, 67, 0
6, 90896, Note_on_c, 4, 69, 85
6, 90908, Note_on_c, 4, 69, 0
6, 90912, Note_on_c, 4, 62, 85
6, 90930, Note_on_c, 4, 62, 0
6, 90960, Note_on_c, 4, 69, 85
6, 90978, Note_on_c, 4, 69, 0
6, 91008, Note_on_c, 4, 64, 85
6, 91080, Note_on_c, 4, 64, 0
6, 91120, Note_on_c, 4, 68, 67
6, 91132, Note_on_c, 4, 68, 0
6, 91136, Note_on_c, 4, 69, 85
6, 91148, Note_on_c, 4, 69, 0
6, 91152, Note_on_c, 4, 71, 56
6, 91164, Note_on_c, 4, 71, 0
6, 91168, Note_on_c, 4, 68, 72
6, 91180, Note_on_c, 4, 68, 0
6, 91184, Note_on_c, 4, 69, 85
6, 91196, Note_on_c, 4, 69, 0
6, 91200, Note_on_c, 4, 71, 85
6, 91272, Note_on_c, 4, 71, 0
6, 91296, Note_on_c, 4, 71, 85
6, 91312, Note_on_c, 4, 71, 0
6, 91312, Note_on_c, 4, 68, 85
6, 91328, Note_on_c, 4, 68, 0
6, 91328, Note_on_c, 4, 69, 85
6, 91344, Note_on_c, 4, 69, 0
6, 91344, Note_on_c, 4, 71, 85
6, 91380, Note_on_c, 4, 71, 0
6, 91380, Note_on_c, 4, 71, 85
6, 91392, Note_on_c, 4, 71, 0
6, 91392, Note_on_c, 4, 73, 85
6, 91416, Note_on_c, 4, 73, 0
6, 91476, Note_on_c, 4, 78, 85
6, 91488, Note_on_c, 4, 78, 0
6, 91488, Note_on_c, 4, 74, 85
6, 91512, Note_on_c, 4, 74, 0
6, 91572, Note_on_c, 4, 79, 85
6, 91584, Note_on_c, 4, 79, 0
6, 91584, Note_on_c, 4, 76, 85
6, 91608, Note_on_c, 4, 76, 0
6, 91668, Note_on_c, 4, 81, 85
6, 91680, Note_on_c, 4, 81, 0
6, 91680, Note_on_c, 4, 78, 85
6, 91704, Note_on_c, 4, 78, 0
6, 91728, Note_on_c, 4, 81, 85
6, 91752, Note_on_c, 4, 81, 0
6, 91776, Note_on_c, 4, 74, 85
6, 91800, Note_on_c, 4, 74, 0
6, 91824, Note_on_c, 4, 73, 85
6, 91848, Note_on_c, 4, 73, 0
6, 91872, Note_on_c, 4, 71, 85
6, 91908, Note_on_c, 4, 71, 0
6, 91908, Note_on_c, 4, 71, 85
6, 91920, Note_on_c, 4, 71, 0
6, 91920, Note_on_c, 4, 69, 85
6, 91956, Note_on_c, 4, 69, 0
6, 91956, Note_on_c, 4, 69, 85
6, 91968, Note_on_c, 4, 69, 0
6, 91968, Note_on_c, 4, 69, 85
6, 92064, Note_on_c, 4, 69, 0
6, 92064, End_track
7, 0, Start_track
7, 0, MIDI_port, 0
7, 0, Title_t, "Viola"
7, 0, Program_c, 5, 41
7, 0, Control_c, 5, 7, 127
7, 0, Control_c, 5, 10, 64
7, 0, Control_c, 5, 121, 0
7, 0, Control_c, 5, 91, 127
7, 0, Control_c, 5, 93, 0
7, 0, Note_on_c, 5, 66, 95
7, 48, Note_on_c, 5, 66, 0
7, 72, Note_on_c, 5, 66, 95
7, 96, Note_on_c, 5, 66, 0
7, 96, Note_on_c, 5, 64, 95
7, 120, Note_on_c, 5, 64, 0
7, 120, Note_on_c, 5, 62, 95
7, 144, Note_on_c, 5, 62, 0
7, 144, Note_on_c, 5, 64, 95
7, 168, Note_on_c, 5, 64, 0
7, 168, Note_on_c, 5, 61, 95
7, 192, Note_on_c, 5, 61, 0
7, 192, Note_on_c, 5, 62, 95
7, 216, Note_on_c, 5, 62, 0
7, 216, Note_on_c, 5, 57, 95
7, 240, Note_on_c, 5, 57, 0
7, 240, Note_on_c, 5, 62, 95
7, 264, Note_on_c, 5, 62, 0
7, 264, Note_on_c, 5, 66, 95
7, 288, Note_on_c, 5, 66, 0
7, 288, Note_on_c, 5, 61, 95
7, 312, Note_on_c, 5, 61, 0
7, 312, Note_on_c, 5, 62, 95
7, 336, Note_on_c, 5, 62, 0
7, 336, Note_on_c, 5, 64, 95
7, 360, Note_on_c, 5, 64, 0
7, 360, Note_on_c, 5, 61, 95
7, 384, Note_on_c, 5, 61, 0
7, 384, Note_on_c, 5, 62, 95
7, 408, Note_on_c, 5, 62, 0
7, 408, Note_on_c, 5, 69, 95
7, 432, Note_on_c, 5, 69, 0
7, 432, Note_on_c, 5, 74, 95
7, 456, Note_on_c, 5, 74, 0
7, 456, Note_on_c, 5, 73, 95
7, 480, Note_on_c, 5, 73, 0
7, 480, Note_on_c, 5, 74, 95
7, 504, Note_on_c, 5, 74, 0
7, 504, Note_on_c, 5, 62, 95
7, 528, Note_on_c, 5, 62, 0
7, 528, Note_on_c, 5, 67, 95
7, 552, Note_on_c, 5, 67, 0
7, 552, Note_on_c, 5, 66, 95
7, 576, Note_on_c, 5, 66, 0
7, 576, Note_on_c, 5, 64, 95
7, 600, Note_on_c, 5, 64, 0
7, 600, Note_on_c, 5, 62, 95
7, 624, Note_on_c, 5, 62, 0
7, 624, Note_on_c, 5, 62, 95
7, 648, Note_on_c, 5, 62, 0
7, 648, Note_on_c, 5, 62, 95
7, 672, Note_on_c, 5, 62, 0
7, 672, Note_on_c, 5, 67, 95
7, 696, Note_on_c, 5, 67, 0
7, 696, Note_on_c, 5, 66, 95
7, 720, Note_on_c, 5, 66, 0
7, 720, Note_on_c, 5, 64, 95
7, 744, Note_on_c, 5, 64, 0
7, 744, Note_on_c, 5, 57, 95
7, 768, Note_on_c, 5, 57, 0
7, 768, Note_on_c, 5, 57, 95
7, 792, Note_on_c, 5, 57, 0
7, 792, Note_on_c, 5, 62, 95
7, 816, Note_on_c, 5, 62, 0
7, 816, Note_on_c, 5, 59, 95
7, 840, Note_on_c, 5, 59, 0
7, 840, Note_on_c, 5, 61, 95
7, 864, Note_on_c, 5, 61, 0
7, 864, Note_on_c, 5, 62, 95
7, 876, Note_on_c, 5, 62, 0
7, 876, Note_on_c, 5, 64, 95
7, 888, Note_on_c, 5, 64, 0
7, 888, Note_on_c, 5, 66, 95
7, 900, Note_on_c, 5, 66, 0
7, 900, Note_on_c, 5, 67, 95
7, 912, Note_on_c, 5, 67, 0
7, 912, Note_on_c, 5, 69, 95
7, 924, Note_on_c, 5, 69, 0
7, 924, Note_on_c, 5, 71, 95
7, 936, Note_on_c, 5, 71, 0
7, 936, Note_on_c, 5, 73, 95
7, 948, Note_on_c, 5, 73, 0
7, 948, Note_on_c, 5, 69, 95
7, 960, Note_on_c, 5, 69, 0
7, 960, Note_on_c, 5, 74, 95
7, 984, Note_on_c, 5, 74, 0
7, 984, Note_on_c, 5, 66, 95
7, 1008, Note_on_c, 5, 66, 0
7, 1008, Note_on_c, 5, 71, 95
7, 1032, Note_on_c, 5, 71, 0
7, 1032, Note_on_c, 5, 69, 95
7, 1056, Note_on_c, 5, 69, 0
7, 1056, Note_on_c, 5, 64, 95
7, 1080, Note_on_c, 5, 64, 0
7, 1080, Note_on_c, 5, 66, 95
7, 1104, Note_on_c, 5, 66, 0
7, 1104, Note_on_c, 5, 67, 95
7, 1128, Note_on_c, 5, 67, 0
7, 1128, Note_on_c, 5, 64, 95
7, 1152, Note_on_c, 5, 64, 0
7, 1152, Note_on_c, 5, 62, 95
7, 1176, Note_on_c, 5, 62, 0
7, 1176, Note_on_c, 5, 69, 95
7, 1200, Note_on_c, 5, 69, 0
7, 1200, Note_on_c, 5, 71, 95
7, 1224, Note_on_c, 5, 71, 0
7, 1224, Note_on_c, 5, 73, 95
7, 1248, Note_on_c, 5, 73, 0
7, 1248, Note_on_c, 5, 69, 95
7, 1272, Note_on_c, 5, 69, 0
7, 1272, Note_on_c, 5, 67, 95
7, 1284, Note_on_c, 5, 67, 0
7, 1284, Note_on_c, 5, 66, 95
7, 1296, Note_on_c, 5, 66, 0
7, 1296, Note_on_c, 5, 64, 95
7, 1320, Note_on_c, 5, 64, 0
7, 1320, Note_on_c, 5, 64, 95
7, 1344, Note_on_c, 5, 64, 0
7, 1344, Note_on_c, 5, 57, 95
7, 1368, Note_on_c, 5, 57, 0
7, 1368, Note_on_c, 5, 57, 95
7, 1392, Note_on_c, 5, 57, 0
7, 1392, Note_on_c, 5, 57, 95
7, 1416, Note_on_c, 5, 57, 0
7, 1416, Note_on_c, 5, 57, 95
7, 1440, Note_on_c, 5, 57, 0
7, 1440, Note_on_c, 5, 50, 95
7, 1464, Note_on_c, 5, 50, 0
7, 1464, Note_on_c, 5, 61, 95
7, 1488, Note_on_c, 5, 61, 0
7, 1488, Note_on_c, 5, 61, 95
7, 1512, Note_on_c, 5, 61, 0
7, 1512, Note_on_c, 5, 67, 95
7, 1536, Note_on_c, 5, 67, 0
7, 1536, Note_on_c, 5, 66, 95
7, 1560, Note_on_c, 5, 66, 0
7, 1824, Note_on_c, 5, 69, 56
7, 1836, Note_on_c, 5, 69, 0
7, 1836, Note_on_c, 5, 67, 56
7, 1848, Note_on_c, 5, 67, 0
7, 1848, Note_on_c, 5, 66, 56
7, 1860, Note_on_c, 5, 66, 0
7, 1860, Note_on_c, 5, 64, 56
7, 1872, Note_on_c, 5, 64, 0
7, 1872, Note_on_c, 5, 62, 56
7, 1896, Note_on_c, 5, 62, 0
7, 1896, Note_on_c, 5, 57, 56
7, 1920, Note_on_c, 5, 57, 0
7, 1920, Note_on_c, 5, 57, 56
7, 1944, Note_on_c, 5, 57, 0
7, 1944, Note_on_c, 5, 61, 56
7, 1968, Note_on_c, 5, 61, 0
7, 1968, Note_on_c, 5, 62, 56
7, 1992, Note_on_c, 5, 62, 0
7, 1992, Note_on_c, 5, 64, 56
7, 2016, Note_on_c, 5, 64, 0
7, 2016, Note_on_c, 5, 57, 56
7, 2040, Note_on_c, 5, 57, 0
7, 2304, Note_on_c, 5, 69, 56
7, 2316, Note_on_c, 5, 69, 0
7, 2316, Note_on_c, 5, 67, 56
7, 2328, Note_on_c, 5, 67, 0
7, 2328, Note_on_c, 5, 66, 56
7, 2340, Note_on_c, 5, 66, 0
7, 2340, Note_on_c, 5, 64, 56
7, 2352, Note_on_c, 5, 64, 0
7, 2352, Note_on_c, 5, 62, 56
7, 2376, Note_on_c, 5, 62, 0
7, 2376, Note_on_c, 5, 57, 56
7, 2400, Note_on_c, 5, 57, 0
7, 2400, Note_on_c, 5, 69, 56
7, 2424, Note_on_c, 5, 69, 0
7, 2424, Note_on_c, 5, 61, 56
7, 2448, Note_on_c, 5, 61, 0
7, 3456, Note_on_c, 5, 61, 56
7, 3504, Note_on_c, 5, 61, 0
7, 3528, Note_on_c, 5, 61, 56
7, 3552, Note_on_c, 5, 61, 0
7, 3552, Note_on_c, 5, 59, 56
7, 3576, Note_on_c, 5, 59, 0
7, 3576, Note_on_c, 5, 57, 56
7, 3600, Note_on_c, 5, 57, 0
7, 3600, Note_on_c, 5, 59, 56
7, 3624, Note_on_c, 5, 59, 0
7, 3624, Note_on_c, 5, 56, 56
7, 3648, Note_on_c, 5, 56, 0
7, 3648, Note_on_c, 5, 52, 56
7, 3672, Note_on_c, 5, 52, 0
7, 3672, Note_on_c, 5, 64, 56
7, 3696, Note_on_c, 5, 64, 0
7, 3696, Note_on_c, 5, 57, 56
7, 3720, Note_on_c, 5, 57, 0
7, 3720, Note_on_c, 5, 61, 56
7, 3744, Note_on_c, 5, 61, 0
7, 3744, Note_on_c, 5, 56, 56
7, 3792, Note_on_c, 5, 56, 0
7, 3816, Note_on_c, 5, 68, 56
7, 3840, Note_on_c, 5, 68, 0
7, 3840, Note_on_c, 5, 69, 56
7, 3864, Note_on_c, 5, 69, 0
7, 3912, Note_on_c, 5, 73, 56
7, 3936, Note_on_c, 5, 73, 0
7, 3936, Note_on_c, 5, 69, 56
7, 3960, Note_on_c, 5, 69, 0
7, 4008, Note_on_c, 5, 69, 56
7, 4032, Note_on_c, 5, 69, 0
7, 4032, Note_on_c, 5, 71, 56
7, 4056, Note_on_c, 5, 71, 0
7, 4152, Note_on_c, 5, 64, 56
7, 4176, Note_on_c, 5, 64, 0
7, 4176, Note_on_c, 5, 64, 56
7, 4200, Note_on_c, 5, 64, 0
7, 4200, Note_on_c, 5, 61, 56
7, 4224, Note_on_c, 5, 61, 0
7, 4224, Note_on_c, 5, 61, 56
7, 4248, Note_on_c, 5, 61, 0
7, 4296, Note_on_c, 5, 70, 56
7, 4320, Note_on_c, 5, 70, 0
7, 4320, Note_on_c, 5, 66, 56
7, 4344, Note_on_c, 5, 66, 0
7, 4392, Note_on_c, 5, 71, 56
7, 4416, Note_on_c, 5, 71, 0
7, 4416, Note_on_c, 5, 74, 56
7, 4440, Note_on_c, 5, 74, 0
7, 4536, Note_on_c, 5, 61, 56
7, 4560, Note_on_c, 5, 61, 0
7, 4560, Note_on_c, 5, 61, 56
7, 4584, Note_on_c, 5, 61, 0
7, 4584, Note_on_c, 5, 57, 56
7, 4608, Note_on_c, 5, 57, 0
7, 4608, Note_on_c, 5, 57, 56
7, 4632, Note_on_c, 5, 57, 0
7, 4680, Note_on_c, 5, 66, 56
7, 4704, Note_on_c, 5, 66, 0
7, 4704, Note_on_c, 5, 62, 56
7, 4728, Note_on_c, 5, 62, 0
7, 4776, Note_on_c, 5, 71, 56
7, 4800, Note_on_c, 5, 71, 0
7, 4800, Note_on_c, 5, 67, 56
7, 4824, Note_on_c, 5, 67, 0
7, 4920, Note_on_c, 5, 61, 56
7, 4944, Note_on_c, 5, 61, 0
7, 4944, Note_on_c, 5, 62, 56
7, 4968, Note_on_c, 5, 62, 0
7, 4968, Note_on_c, 5, 64, 56
7, 4992, Note_on_c, 5, 64, 0
7, 4992, Note_on_c, 5, 57, 56
7, 5016, Note_on_c, 5, 57, 0
7, 5352, Note_on_c, 5, 68, 95
7, 5376, Note_on_c, 5, 68, 0
7, 5376, Note_on_c, 5, 69, 95
7, 5392, Note_on_c, 5, 69, 0
7, 5400, Note_on_c, 5, 64, 95
7, 5416, Note_on_c, 5, 64, 0
7, 5424, Note_on_c, 5, 69, 95
7, 5440, Note_on_c, 5, 69, 0
7, 5448, Note_on_c, 5, 68, 95
7, 5464, Note_on_c, 5, 68, 0
7, 5472, Note_on_c, 5, 69, 95
7, 5488, Note_on_c, 5, 69, 0
7, 5496, Note_on_c, 5, 57, 95
7, 5512, Note_on_c, 5, 57, 0
7, 5520, Note_on_c, 5, 62, 95
7, 5536, Note_on_c, 5, 62, 0
7, 5544, Note_on_c, 5, 61, 95
7, 5560, Note_on_c, 5, 61, 0
7, 5568, Note_on_c, 5, 59, 95
7, 5584, Note_on_c, 5, 59, 0
7, 5592, Note_on_c, 5, 57, 95
7, 5608, Note_on_c, 5, 57, 0
7, 5616, Note_on_c, 5, 57, 95
7, 5632, Note_on_c, 5, 57, 0
7, 5640, Note_on_c, 5, 57, 95
7, 5656, Note_on_c, 5, 57, 0
7, 5664, Note_on_c, 5, 62, 95
7, 5680, Note_on_c, 5, 62, 0
7, 5688, Note_on_c, 5, 61, 95
7, 5704, Note_on_c, 5, 61, 0
7, 5712, Note_on_c, 5, 59, 95
7, 5728, Note_on_c, 5, 59, 0
7, 5736, Note_on_c, 5, 64, 95
7, 5752, Note_on_c, 5, 64, 0
7, 5760, Note_on_c, 5, 64, 95
7, 5776, Note_on_c, 5, 64, 0
7, 5784, Note_on_c, 5, 66, 95
7, 5800, Note_on_c, 5, 66, 0
7, 5808, Note_on_c, 5, 66, 95
7, 5824, Note_on_c, 5, 66, 0
7, 5832, Note_on_c, 5, 64, 95
7, 5848, Note_on_c, 5, 64, 0
7, 5856, Note_on_c, 5, 64, 95
7, 5872, Note_on_c, 5, 64, 0
7, 5928, Note_on_c, 5, 64, 56
7, 5944, Note_on_c, 5, 64, 0
7, 5952, Note_on_c, 5, 66, 56
7, 5968, Note_on_c, 5, 66, 0
7, 5976, Note_on_c, 5, 67, 56
7, 5992, Note_on_c, 5, 67, 0
7, 6000, Note_on_c, 5, 69, 56
7, 6016, Note_on_c, 5, 69, 0
7, 6120, Note_on_c, 5, 71, 56
7, 6136, Note_on_c, 5, 71, 0
7, 6144, Note_on_c, 5, 64, 56
7, 6160, Note_on_c, 5, 64, 0
7, 6168, Note_on_c, 5, 67, 56
7, 6176, Note_on_c, 5, 67, 0
7, 6180, Note_on_c, 5, 66, 56
7, 6188, Note_on_c, 5, 66, 0
7, 6192, Note_on_c, 5, 67, 56
7, 6208, Note_on_c, 5, 67, 0
7, 6312, Note_on_c, 5, 61, 56
7, 6328, Note_on_c, 5, 61, 0
7, 6336, Note_on_c, 5, 62, 56
7, 6352, Note_on_c, 5, 62, 0
7, 6360, Note_on_c, 5, 64, 56
7, 6376, Note_on_c, 5, 64, 0
7, 6384, Note_on_c, 5, 66, 56
7, 6400, Note_on_c, 5, 66, 0
7, 6408, Note_on_c, 5, 62, 56
7, 6424, Note_on_c, 5, 62, 0
7, 6432, Note_on_c, 5, 59, 56
7, 6464, Note_on_c, 5, 59, 0
7, 6504, Note_on_c, 5, 67, 56
7, 6520, Note_on_c, 5, 67, 0
7, 6528, Note_on_c, 5, 61, 56
7, 6536, Note_on_c, 5, 61, 0
7, 6540, Note_on_c, 5, 61, 56
7, 6548, Note_on_c, 5, 61, 0
7, 6552, Note_on_c, 5, 64, 56
7, 6560, Note_on_c, 5, 64, 0
7, 6564, Note_on_c, 5, 64, 56
7, 6572, Note_on_c, 5, 64, 0
7, 6576, Note_on_c, 5, 66, 56
7, 6584, Note_on_c, 5, 66, 0
7, 6588, Note_on_c, 5, 66, 56
7, 6596, Note_on_c, 5, 66, 0
7, 6600, Note_on_c, 5, 70, 56
7, 6608, Note_on_c, 5, 70, 0
7, 6612, Note_on_c, 5, 70, 56
7, 6620, Note_on_c, 5, 70, 0
7, 6624, Note_on_c, 5, 66, 56
7, 6640, Note_on_c, 5, 66, 0
7, 6648, Note_on_c, 5, 62, 56
7, 6664, Note_on_c, 5, 62, 0
7, 6720, Note_on_c, 5, 59, 56
7, 6728, Note_on_c, 5, 59, 0
7, 6732, Note_on_c, 5, 59, 56
7, 6740, Note_on_c, 5, 59, 0
7, 6744, Note_on_c, 5, 64, 56
7, 6752, Note_on_c, 5, 64, 0
7, 6756, Note_on_c, 5, 64, 56
7, 6764, Note_on_c, 5, 64, 0
7, 6768, Note_on_c, 5, 67, 56
7, 6776, Note_on_c, 5, 67, 0
7, 6780, Note_on_c, 5, 67, 56
7, 6788, Note_on_c, 5, 67, 0
7, 6792, Note_on_c, 5, 71, 56
7, 6800, Note_on_c, 5, 71, 0
7, 6804, Note_on_c, 5, 71, 56
7, 6812, Note_on_c, 5, 71, 0
7, 6816, Note_on_c, 5, 66, 56
7, 6832, Note_on_c, 5, 66, 0
7, 6840, Note_on_c, 5, 61, 56
7, 6856, Note_on_c, 5, 61, 0
7, 6912, Note_on_c, 5, 59, 56
7, 6920, Note_on_c, 5, 59, 0
7, 6924, Note_on_c, 5, 59, 56
7, 6932, Note_on_c, 5, 59, 0
7, 6936, Note_on_c, 5, 62, 56
7, 6944, Note_on_c, 5, 62, 0
7, 6948, Note_on_c, 5, 62, 56
7, 6956, Note_on_c, 5, 62, 0
7, 6960, Note_on_c, 5, 66, 56
7, 6968, Note_on_c, 5, 66, 0
7, 6972, Note_on_c, 5, 66, 56
7, 6980, Note_on_c, 5, 66, 0
7, 6984, Note_on_c, 5, 71, 56
7, 6992, Note_on_c, 5, 71, 0
7, 6996, Note_on_c, 5, 71, 56
7, 7004, Note_on_c, 5, 71, 0
7, 7008, Note_on_c, 5, 64, 56
7, 7016, Note_on_c, 5, 64, 0
7, 7020, Note_on_c, 5, 64, 56
7, 7028, Note_on_c, 5, 64, 0
7, 7032, Note_on_c, 5, 67, 56
7, 7040, Note_on_c, 5, 67, 0
7, 7044, Note_on_c, 5, 67, 56
7, 7052, Note_on_c, 5, 67, 0
7, 7056, Note_on_c, 5, 71, 56
7, 7064, Note_on_c, 5, 71, 0
7, 7068, Note_on_c, 5, 71, 56
7, 7076, Note_on_c, 5, 71, 0
7, 7080, Note_on_c, 5, 76, 56
7, 7088, Note_on_c, 5, 76, 0
7, 7092, Note_on_c, 5, 76, 56
7, 7100, Note_on_c, 5, 76, 0
7, 7104, Note_on_c, 5, 64, 56
7, 7136, Note_on_c, 5, 64, 0
7, 7488, Note_on_c, 5, 66, 95
7, 7504, Note_on_c, 5, 66, 0
7, 7512, Note_on_c, 5, 64, 95
7, 7528, Note_on_c, 5, 64, 0
7, 7536, Note_on_c, 5, 66, 95
7, 7552, Note_on_c, 5, 66, 0
7, 7560, Note_on_c, 5, 66, 95
7, 7576, Note_on_c, 5, 66, 0
7, 7584, Note_on_c, 5, 71, 95
7, 7600, Note_on_c, 5, 71, 0
7, 7608, Note_on_c, 5, 69, 95
7, 7624, Note_on_c, 5, 69, 0
7, 7632, Note_on_c, 5, 71, 95
7, 7648, Note_on_c, 5, 71, 0
7, 7656, Note_on_c, 5, 59, 95
7, 7672, Note_on_c, 5, 59, 0
7, 7680, Note_on_c, 5, 64, 95
7, 7696, Note_on_c, 5, 64, 0
7, 7704, Note_on_c, 5, 62, 95
7, 7720, Note_on_c, 5, 62, 0
7, 7728, Note_on_c, 5, 61, 95
7, 7744, Note_on_c, 5, 61, 0
7, 7752, Note_on_c, 5, 73, 95
7, 7768, Note_on_c, 5, 73, 0
7, 7776, Note_on_c, 5, 71, 95
7, 7792, Note_on_c, 5, 71, 0
7, 7800, Note_on_c, 5, 62, 95
7, 7816, Note_on_c, 5, 62, 0
7, 7824, Note_on_c, 5, 67, 95
7, 7840, Note_on_c, 5, 67, 0
7, 7848, Note_on_c, 5, 61, 95
7, 7864, Note_on_c, 5, 61, 0
7, 7872, Note_on_c, 5, 62, 95
7, 7904, Note_on_c, 5, 62, 0
7, 8544, Note_on_c, 5, 55, 63
7, 8554, Note_on_c, 5, 55, 0
7, 8556, Note_on_c, 5, 55, 63
7, 8566, Note_on_c, 5, 55, 0
7, 8568, Note_on_c, 5, 59, 63
7, 8578, Note_on_c, 5, 59, 0
7, 8580, Note_on_c, 5, 59, 63
7, 8590, Note_on_c, 5, 59, 0
7, 8592, Note_on_c, 5, 64, 63
7, 8602, Note_on_c, 5, 64, 0
7, 8604, Note_on_c, 5, 64, 63
7, 8614, Note_on_c, 5, 64, 0
7, 8616, Note_on_c, 5, 67, 63
7, 8626, Note_on_c, 5, 67, 0
7, 8628, Note_on_c, 5, 67, 63
7, 8638, Note_on_c, 5, 67, 0
7, 8640, Note_on_c, 5, 64, 63
7, 8660, Note_on_c, 5, 64, 0
7, 8664, Note_on_c, 5, 57, 63
7, 8684, Note_on_c, 5, 57, 0
7, 9048, Note_on_c, 5, 71, 63
7, 9056, Note_on_c, 5, 71, 0
7, 9072, Note_on_c, 5, 61, 63
7, 9080, Note_on_c, 5, 61, 0
7, 9096, Note_on_c, 5, 64, 63
7, 9104, Note_on_c, 5, 64, 0
7, 9120, Note_on_c, 5, 66, 63
7, 9128, Note_on_c, 5, 66, 0
7, 9144, Note_on_c, 5, 69, 63
7, 9152, Note_on_c, 5, 69, 0
7, 9168, Note_on_c, 5, 59, 63
7, 9176, Note_on_c, 5, 59, 0
7, 9192, Note_on_c, 5, 62, 63
7, 9200, Note_on_c, 5, 62, 0
7, 9216, Note_on_c, 5, 64, 63
7, 9236, Note_on_c, 5, 64, 0
7, 9240, Note_on_c, 5, 67, 63
7, 9260, Note_on_c, 5, 67, 0
7, 9264, Note_on_c, 5, 57, 63
7, 9284, Note_on_c, 5, 57, 0
7, 9288, Note_on_c, 5, 61, 63
7, 9308, Note_on_c, 5, 61, 0
7, 9312, Note_on_c, 5, 62, 63
7, 9332, Note_on_c, 5, 62, 0
7, 9336, Note_on_c, 5, 57, 63
7, 9356, Note_on_c, 5, 57, 0
7, 9360, Note_on_c, 5, 54, 63
7, 9380, Note_on_c, 5, 54, 0
7, 9384, Note_on_c, 5, 50, 63
7, 9404, Note_on_c, 5, 50, 0
7, 9408, Note_on_c, 5, 57, 63
7, 9418, Note_on_c, 5, 57, 0
7, 9420, Note_on_c, 5, 57, 63
7, 9430, Note_on_c, 5, 57, 0
7, 9432, Note_on_c, 5, 61, 63
7, 9442, Note_on_c, 5, 61, 0
7, 9444, Note_on_c, 5, 61, 63
7, 9454, Note_on_c, 5, 61, 0
7, 9456, Note_on_c, 5, 64, 63
7, 9466, Note_on_c, 5, 64, 0
7, 9468, Note_on_c, 5, 64, 63
7, 9478, Note_on_c, 5, 64, 0
7, 9480, Note_on_c, 5, 69, 63
7, 9490, Note_on_c, 5, 69, 0
7, 9492, Note_on_c, 5, 69, 63
7, 9502, Note_on_c, 5, 69, 0
7, 9504, Note_on_c, 5, 62, 63
7, 9514, Note_on_c, 5, 62, 0
7, 9516, Note_on_c, 5, 62, 63
7, 9526, Note_on_c, 5, 62, 0
7, 9528, Note_on_c, 5, 66, 63
7, 9538, Note_on_c, 5, 66, 0
7, 9540, Note_on_c, 5, 66, 63
7, 9550, Note_on_c, 5, 66, 0
7, 9552, Note_on_c, 5, 69, 63
7, 9562, Note_on_c, 5, 69, 0
7, 9564, Note_on_c, 5, 69, 63
7, 9574, Note_on_c, 5, 69, 0
7, 9576, Note_on_c, 5, 74, 63
7, 9586, Note_on_c, 5, 74, 0
7, 9588, Note_on_c, 5, 74, 63
7, 9598, Note_on_c, 5, 74, 0
7, 9600, Note_on_c, 5, 76, 63
7, 9620, Note_on_c, 5, 76, 0
7, 9624, Note_on_c, 5, 69, 63
7, 9644, Note_on_c, 5, 69, 0
7, 9672, Note_on_c, 5, 61, 56
7, 9692, Note_on_c, 5, 61, 0
7, 9696, Note_on_c, 5, 57, 56
7, 9716, Note_on_c, 5, 57, 0
7, 9768, Note_on_c, 5, 66, 56
7, 9788, Note_on_c, 5, 66, 0
7, 9792, Note_on_c, 5, 62, 56
7, 9812, Note_on_c, 5, 62, 0
7, 9864, Note_on_c, 5, 62, 56
7, 9884, Note_on_c, 5, 62, 0
7, 9888, Note_on_c, 5, 64, 56
7, 9908, Note_on_c, 5, 64, 0
7, 10008, Note_on_c, 5, 69, 56
7, 10028, Note_on_c, 5, 69, 0
7, 10032, Note_on_c, 5, 69, 56
7, 10052, Note_on_c, 5, 69, 0
7, 10056, Note_on_c, 5, 66, 56
7, 10076, Note_on_c, 5, 66, 0
7, 10080, Note_on_c, 5, 66, 56
7, 10100, Note_on_c, 5, 66, 0
7, 10128, Note_on_c, 5, 75, 56
7, 10148, Note_on_c, 5, 75, 0
7, 10176, Note_on_c, 5, 71, 56
7, 10196, Note_on_c, 5, 71, 0
7, 10248, Note_on_c, 5, 64, 56
7, 10268, Note_on_c, 5, 64, 0
7, 10272, Note_on_c, 5, 67, 56
7, 10292, Note_on_c, 5, 67, 0
7, 10392, Note_on_c, 5, 66, 56
7, 10412, Note_on_c, 5, 66, 0
7, 10416, Note_on_c, 5, 66, 56
7, 10436, Note_on_c, 5, 66, 0
7, 10440, Note_on_c, 5, 62, 56
7, 10460, Note_on_c, 5, 62, 0
7, 10464, Note_on_c, 5, 62, 56
7, 10484, Note_on_c, 5, 62, 0
7, 10536, Note_on_c, 5, 71, 56
7, 10556, Note_on_c, 5, 71, 0
7, 10560, Note_on_c, 5, 67, 56
7, 10580, Note_on_c, 5, 67, 0
7, 10632, Note_on_c, 5, 64, 56
7, 10652, Note_on_c, 5, 64, 0
7, 10656, Note_on_c, 5, 69, 56
7, 10676, Note_on_c, 5, 69, 0
7, 10776, Note_on_c, 5, 66, 56
7, 10796, Note_on_c, 5, 66, 0
7, 10800, Note_on_c, 5, 67, 56
7, 10820, Note_on_c, 5, 67, 0
7, 10824, Note_on_c, 5, 69, 56
7, 10844, Note_on_c, 5, 69, 0
7, 10848, Note_on_c, 5, 62, 56
7, 10868, Note_on_c, 5, 62, 0
7, 11016, Note_on_c, 5, 69, 95
7, 11036, Note_on_c, 5, 69, 0
7, 11040, Note_on_c, 5, 69, 95
7, 11060, Note_on_c, 5, 69, 0
7, 11064, Note_on_c, 5, 69, 95
7, 11084, Note_on_c, 5, 69, 0
7, 11088, Note_on_c, 5, 74, 95
7, 11108, Note_on_c, 5, 74, 0
7, 11112, Note_on_c, 5, 73, 95
7, 11132, Note_on_c, 5, 73, 0
7, 11136, Note_on_c, 5, 74, 95
7, 11156, Note_on_c, 5, 74, 0
7, 11160, Note_on_c, 5, 62, 95
7, 11180, Note_on_c, 5, 62, 0
7, 11184, Note_on_c, 5, 67, 95
7, 11204, Note_on_c, 5, 67, 0
7, 11208, Note_on_c, 5, 66, 95
7, 11228, Note_on_c, 5, 66, 0
7, 11232, Note_on_c, 5, 64, 95
7, 11252, Note_on_c, 5, 64, 0
7, 11256, Note_on_c, 5, 62, 95
7, 11276, Note_on_c, 5, 62, 0
7, 11280, Note_on_c, 5, 62, 95
7, 11300, Note_on_c, 5, 62, 0
7, 11304, Note_on_c, 5, 62, 95
7, 11324, Note_on_c, 5, 62, 0
7, 11328, Note_on_c, 5, 67, 95
7, 11348, Note_on_c, 5, 67, 0
7, 11352, Note_on_c, 5, 66, 95
7, 11372, Note_on_c, 5, 66, 0
7, 11376, Note_on_c, 5, 64, 95
7, 11396, Note_on_c, 5, 64, 0
7, 11400, Note_on_c, 5, 61, 95
7, 11420, Note_on_c, 5, 61, 0
7, 11424, Note_on_c, 5, 62, 95
7, 11444, Note_on_c, 5, 62, 0
7, 11448, Note_on_c, 5, 62, 95
7, 11468, Note_on_c, 5, 62, 0
7, 11472, Note_on_c, 5, 59, 95
7, 11492, Note_on_c, 5, 59, 0
7, 11496, Note_on_c, 5, 61, 95
7, 11516, Note_on_c, 5, 61, 0
7, 11520, Note_on_c, 5, 57, 95
7, 11540, Note_on_c, 5, 57, 0
7, 12144, Note_on_c, 5, 69, 63
7, 12164, Note_on_c, 5, 69, 0
7, 12168, Note_on_c, 5, 71, 63
7, 12188, Note_on_c, 5, 71, 0
7, 12192, Note_on_c, 5, 71, 63
7, 12212, Note_on_c, 5, 71, 0
7, 12216, Note_on_c, 5, 69, 63
7, 12236, Note_on_c, 5, 69, 0
7, 12792, Note_on_c, 5, 64, 63
7, 12812, Note_on_c, 5, 64, 0
7, 12816, Note_on_c, 5, 66, 63
7, 12836, Note_on_c, 5, 66, 0
7, 12840, Note_on_c, 5, 66, 63
7, 12860, Note_on_c, 5, 66, 0
7, 12864, Note_on_c, 5, 64, 63
7, 12884, Note_on_c, 5, 64, 0
7, 13440, Note_on_c, 5, 61, 56
7, 13460, Note_on_c, 5, 61, 0
7, 13464, Note_on_c, 5, 61, 56
7, 13484, Note_on_c, 5, 61, 0
7, 13488, Note_on_c, 5, 61, 56
7, 13508, Note_on_c, 5, 61, 0
7, 13512, Note_on_c, 5, 61, 56
7, 13532, Note_on_c, 5, 61, 0
7, 13536, Note_on_c, 5, 61, 56
7, 13556, Note_on_c, 5, 61, 0
7, 13560, Note_on_c, 5, 61, 56
7, 13580, Note_on_c, 5, 61, 0
7, 13584, Note_on_c, 5, 61, 56
7, 13604, Note_on_c, 5, 61, 0
7, 13608, Note_on_c, 5, 61, 56
7, 13628, Note_on_c, 5, 61, 0
7, 13632, Note_on_c, 5, 66, 56
7, 13652, Note_on_c, 5, 66, 0
7, 13656, Note_on_c, 5, 66, 56
7, 13676, Note_on_c, 5, 66, 0
7, 13680, Note_on_c, 5, 66, 56
7, 13700, Note_on_c, 5, 66, 0
7, 13704, Note_on_c, 5, 66, 56
7, 13724, Note_on_c, 5, 66, 0
7, 13728, Note_on_c, 5, 66, 56
7, 13748, Note_on_c, 5, 66, 0
7, 13752, Note_on_c, 5, 66, 56
7, 13772, Note_on_c, 5, 66, 0
7, 13776, Note_on_c, 5, 66, 56
7, 13796, Note_on_c, 5, 66, 0
7, 13800, Note_on_c, 5, 66, 56
7, 13820, Note_on_c, 5, 66, 0
7, 13824, Note_on_c, 5, 61, 56
7, 13844, Note_on_c, 5, 61, 0
7, 13848, Note_on_c, 5, 61, 56
7, 13868, Note_on_c, 5, 61, 0
7, 13872, Note_on_c, 5, 61, 56
7, 13892, Note_on_c, 5, 61, 0
7, 13896, Note_on_c, 5, 61, 56
7, 13916, Note_on_c, 5, 61, 0
7, 13920, Note_on_c, 5, 61, 56
7, 13940, Note_on_c, 5, 61, 0
7, 13944, Note_on_c, 5, 61, 56
7, 13964, Note_on_c, 5, 61, 0
7, 13968, Note_on_c, 5, 61, 56
7, 13988, Note_on_c, 5, 61, 0
7, 13992, Note_on_c, 5, 61, 56
7, 14012, Note_on_c, 5, 61, 0
7, 14016, Note_on_c, 5, 61, 56
7, 14036, Note_on_c, 5, 61, 0
7, 14040, Note_on_c, 5, 61, 56
7, 14060, Note_on_c, 5, 61, 0
7, 14064, Note_on_c, 5, 61, 56
7, 14084, Note_on_c, 5, 61, 0
7, 14088, Note_on_c, 5, 61, 56
7, 14108, Note_on_c, 5, 61, 0
7, 14112, Note_on_c, 5, 61, 56
7, 14132, Note_on_c, 5, 61, 0
7, 14136, Note_on_c, 5, 61, 56
7, 14156, Note_on_c, 5, 61, 0
7, 14160, Note_on_c, 5, 61, 56
7, 14180, Note_on_c, 5, 61, 0
7, 14184, Note_on_c, 5, 61, 56
7, 14204, Note_on_c, 5, 61, 0
7, 14208, Note_on_c, 5, 66, 56
7, 14228, Note_on_c, 5, 66, 0
7, 14232, Note_on_c, 5, 66, 56
7, 14252, Note_on_c, 5, 66, 0
7, 14256, Note_on_c, 5, 66, 56
7, 14276, Note_on_c, 5, 66, 0
7, 14280, Note_on_c, 5, 66, 56
7, 14300, Note_on_c, 5, 66, 0
7, 14304, Note_on_c, 5, 66, 56
7, 14324, Note_on_c, 5, 66, 0
7, 14328, Note_on_c, 5, 66, 56
7, 14348, Note_on_c, 5, 66, 0
7, 14352, Note_on_c, 5, 66, 56
7, 14372, Note_on_c, 5, 66, 0
7, 14376, Note_on_c, 5, 66, 56
7, 14396, Note_on_c, 5, 66, 0
7, 14400, Note_on_c, 5, 64, 56
7, 14420, Note_on_c, 5, 64, 0
7, 14424, Note_on_c, 5, 64, 56
7, 14444, Note_on_c, 5, 64, 0
7, 14448, Note_on_c, 5, 64, 56
7, 14468, Note_on_c, 5, 64, 0
7, 14472, Note_on_c, 5, 64, 56
7, 14492, Note_on_c, 5, 64, 0
7, 14496, Note_on_c, 5, 64, 56
7, 14516, Note_on_c, 5, 64, 0
7, 14520, Note_on_c, 5, 64, 56
7, 14540, Note_on_c, 5, 64, 0
7, 14544, Note_on_c, 5, 64, 56
7, 14564, Note_on_c, 5, 64, 0
7, 14568, Note_on_c, 5, 64, 56
7, 14588, Note_on_c, 5, 64, 0
7, 14592, Note_on_c, 5, 64, 56
7, 14612, Note_on_c, 5, 64, 0
7, 14616, Note_on_c, 5, 64, 56
7, 14636, Note_on_c, 5, 64, 0
7, 14640, Note_on_c, 5, 64, 56
7, 14660, Note_on_c, 5, 64, 0
7, 14664, Note_on_c, 5, 64, 56
7, 14684, Note_on_c, 5, 64, 0
7, 14688, Note_on_c, 5, 64, 56
7, 14708, Note_on_c, 5, 64, 0
7, 14712, Note_on_c, 5, 64, 56
7, 14732, Note_on_c, 5, 64, 0
7, 14736, Note_on_c, 5, 64, 56
7, 14756, Note_on_c, 5, 64, 0
7, 14760, Note_on_c, 5, 64, 56
7, 14780, Note_on_c, 5, 64, 0
7, 14784, Note_on_c, 5, 69, 56
7, 14804, Note_on_c, 5, 69, 0
7, 14808, Note_on_c, 5, 69, 56
7, 14828, Note_on_c, 5, 69, 0
7, 14832, Note_on_c, 5, 69, 56
7, 14852, Note_on_c, 5, 69, 0
7, 14856, Note_on_c, 5, 69, 56
7, 14876, Note_on_c, 5, 69, 0
7, 14880, Note_on_c, 5, 69, 56
7, 14900, Note_on_c, 5, 69, 0
7, 14904, Note_on_c, 5, 69, 56
7, 14924, Note_on_c, 5, 69, 0
7, 14928, Note_on_c, 5, 69, 56
7, 14948, Note_on_c, 5, 69, 0
7, 14952, Note_on_c, 5, 69, 56
7, 14972, Note_on_c, 5, 69, 0
7, 14976, Note_on_c, 5, 68, 56
7, 14996, Note_on_c, 5, 68, 0
7, 15000, Note_on_c, 5, 68, 56
7, 15020, Note_on_c, 5, 68, 0
7, 15024, Note_on_c, 5, 68, 56
7, 15044, Note_on_c, 5, 68, 0
7, 15048, Note_on_c, 5, 68, 56
7, 15068, Note_on_c, 5, 68, 0
7, 15072, Note_on_c, 5, 68, 56
7, 15092, Note_on_c, 5, 68, 0
7, 15096, Note_on_c, 5, 68, 56
7, 15116, Note_on_c, 5, 68, 0
7, 15120, Note_on_c, 5, 68, 56
7, 15140, Note_on_c, 5, 68, 0
7, 15144, Note_on_c, 5, 68, 56
7, 15164, Note_on_c, 5, 68, 0
7, 15168, Note_on_c, 5, 64, 56
7, 15188, Note_on_c, 5, 64, 0
7, 15192, Note_on_c, 5, 64, 56
7, 15212, Note_on_c, 5, 64, 0
7, 15216, Note_on_c, 5, 64, 56
7, 15236, Note_on_c, 5, 64, 0
7, 15240, Note_on_c, 5, 64, 56
7, 15260, Note_on_c, 5, 64, 0
7, 15264, Note_on_c, 5, 64, 56
7, 15284, Note_on_c, 5, 64, 0
7, 15288, Note_on_c, 5, 64, 56
7, 15308, Note_on_c, 5, 64, 0
7, 15312, Note_on_c, 5, 64, 56
7, 15332, Note_on_c, 5, 64, 0
7, 15336, Note_on_c, 5, 64, 56
7, 15356, Note_on_c, 5, 64, 0
7, 15360, Note_on_c, 5, 69, 56
7, 15400, Note_on_c, 5, 69, 0
7, 15552, Note_on_c, 5, 68, 56
7, 15572, Note_on_c, 5, 68, 0
7, 15576, Note_on_c, 5, 68, 56
7, 15596, Note_on_c, 5, 68, 0
7, 15600, Note_on_c, 5, 68, 56
7, 15620, Note_on_c, 5, 68, 0
7, 15624, Note_on_c, 5, 68, 56
7, 15644, Note_on_c, 5, 68, 0
7, 15648, Note_on_c, 5, 68, 56
7, 15668, Note_on_c, 5, 68, 0
7, 15672, Note_on_c, 5, 68, 56
7, 15692, Note_on_c, 5, 68, 0
7, 15696, Note_on_c, 5, 68, 56
7, 15716, Note_on_c, 5, 68, 0
7, 15720, Note_on_c, 5, 68, 56
7, 15740, Note_on_c, 5, 68, 0
7, 15744, Note_on_c, 5, 68, 56
7, 15784, Note_on_c, 5, 68, 0
7, 15936, Note_on_c, 5, 66, 56
7, 15956, Note_on_c, 5, 66, 0
7, 15960, Note_on_c, 5, 66, 56
7, 15980, Note_on_c, 5, 66, 0
7, 15984, Note_on_c, 5, 66, 56
7, 16004, Note_on_c, 5, 66, 0
7, 16008, Note_on_c, 5, 66, 56
7, 16028, Note_on_c, 5, 66, 0
7, 16032, Note_on_c, 5, 66, 56
7, 16052, Note_on_c, 5, 66, 0
7, 16056, Note_on_c, 5, 66, 56
7, 16076, Note_on_c, 5, 66, 0
7, 16080, Note_on_c, 5, 66, 56
7, 16100, Note_on_c, 5, 66, 0
7, 16104, Note_on_c, 5, 66, 56
7, 16124, Note_on_c, 5, 66, 0
7, 16128, Note_on_c, 5, 66, 56
7, 16168, Note_on_c, 5, 66, 0
7, 16320, Note_on_c, 5, 61, 56
7, 16340, Note_on_c, 5, 61, 0
7, 16344, Note_on_c, 5, 61, 56
7, 16364, Note_on_c, 5, 61, 0
7, 16368, Note_on_c, 5, 61, 56
7, 16388, Note_on_c, 5, 61, 0
7, 16392, Note_on_c, 5, 61, 56
7, 16412, Note_on_c, 5, 61, 0
7, 16416, Note_on_c, 5, 61, 56
7, 16436, Note_on_c, 5, 61, 0
7, 16440, Note_on_c, 5, 61, 56
7, 16460, Note_on_c, 5, 61, 0
7, 16464, Note_on_c, 5, 61, 56
7, 16484, Note_on_c, 5, 61, 0
7, 16488, Note_on_c, 5, 61, 56
7, 16508, Note_on_c, 5, 61, 0
7, 16512, Note_on_c, 5, 61, 56
7, 16552, Note_on_c, 5, 61, 0
7, 16704, Note_on_c, 5, 62, 56
7, 16724, Note_on_c, 5, 62, 0
7, 16728, Note_on_c, 5, 62, 56
7, 16748, Note_on_c, 5, 62, 0
7, 16752, Note_on_c, 5, 62, 56
7, 16772, Note_on_c, 5, 62, 0
7, 16776, Note_on_c, 5, 62, 56
7, 16796, Note_on_c, 5, 62, 0
7, 16800, Note_on_c, 5, 62, 56
7, 16820, Note_on_c, 5, 62, 0
7, 16824, Note_on_c, 5, 62, 56
7, 16844, Note_on_c, 5, 62, 0
7, 16848, Note_on_c, 5, 62, 56
7, 16868, Note_on_c, 5, 62, 0
7, 16872, Note_on_c, 5, 62, 56
7, 16892, Note_on_c, 5, 62, 0
7, 16896, Note_on_c, 5, 62, 56
7, 16936, Note_on_c, 5, 62, 0
7, 17088, Note_on_c, 5, 61, 56
7, 17108, Note_on_c, 5, 61, 0
7, 17112, Note_on_c, 5, 61, 56
7, 17132, Note_on_c, 5, 61, 0
7, 17136, Note_on_c, 5, 61, 56
7, 17156, Note_on_c, 5, 61, 0
7, 17160, Note_on_c, 5, 61, 56
7, 17180, Note_on_c, 5, 61, 0
7, 17184, Note_on_c, 5, 61, 56
7, 17204, Note_on_c, 5, 61, 0
7, 17208, Note_on_c, 5, 61, 56
7, 17228, Note_on_c, 5, 61, 0
7, 17232, Note_on_c, 5, 61, 56
7, 17252, Note_on_c, 5, 61, 0
7, 17256, Note_on_c, 5, 61, 56
7, 17276, Note_on_c, 5, 61, 0
7, 17280, Note_on_c, 5, 61, 56
7, 17320, Note_on_c, 5, 61, 0
7, 17472, Note_on_c, 5, 59, 56
7, 17492, Note_on_c, 5, 59, 0
7, 17496, Note_on_c, 5, 59, 56
7, 17516, Note_on_c, 5, 59, 0
7, 17520, Note_on_c, 5, 59, 56
7, 17540, Note_on_c, 5, 59, 0
7, 17544, Note_on_c, 5, 59, 56
7, 17564, Note_on_c, 5, 59, 0
7, 17568, Note_on_c, 5, 59, 56
7, 17588, Note_on_c, 5, 59, 0
7, 17592, Note_on_c, 5, 59, 56
7, 17612, Note_on_c, 5, 59, 0
7, 17616, Note_on_c, 5, 59, 56
7, 17636, Note_on_c, 5, 59, 0
7, 17640, Note_on_c, 5, 59, 56
7, 17660, Note_on_c, 5, 59, 0
7, 17664, Note_on_c, 5, 52, 56
7, 17704, Note_on_c, 5, 52, 0
7, 17856, Note_on_c, 5, 54, 56
7, 17896, Note_on_c, 5, 54, 0
7, 18072, Note_on_c, 5, 68, 56
7, 18092, Note_on_c, 5, 68, 0
7, 18096, Note_on_c, 5, 68, 56
7, 18116, Note_on_c, 5, 68, 0
7, 18120, Note_on_c, 5, 68, 56
7, 18140, Note_on_c, 5, 68, 0
7, 18168, Note_on_c, 5, 68, 56
7, 18188, Note_on_c, 5, 68, 0
7, 18192, Note_on_c, 5, 68, 56
7, 18212, Note_on_c, 5, 68, 0
7, 18216, Note_on_c, 5, 68, 56
7, 18236, Note_on_c, 5, 68, 0
7, 18264, Note_on_c, 5, 69, 56
7, 18284, Note_on_c, 5, 69, 0
7, 18288, Note_on_c, 5, 69, 56
7, 18308, Note_on_c, 5, 69, 0
7, 18312, Note_on_c, 5, 69, 56
7, 18332, Note_on_c, 5, 69, 0
7, 18360, Note_on_c, 5, 69, 56
7, 18380, Note_on_c, 5, 69, 0
7, 18384, Note_on_c, 5, 69, 56
7, 18404, Note_on_c, 5, 69, 0
7, 18408, Note_on_c, 5, 69, 56
7, 18428, Note_on_c, 5, 69, 0
7, 18456, Note_on_c, 5, 65, 56
7, 18476, Note_on_c, 5, 65, 0
7, 18480, Note_on_c, 5, 65, 56
7, 18500, Note_on_c, 5, 65, 0
7, 18504, Note_on_c, 5, 65, 56
7, 18524, Note_on_c, 5, 65, 0
7, 18552, Note_on_c, 5, 65, 56
7, 18572, Note_on_c, 5, 65, 0
7, 18576, Note_on_c, 5, 65, 56
7, 18596, Note_on_c, 5, 65, 0
7, 18600, Note_on_c, 5, 65, 56
7, 18620, Note_on_c, 5, 65, 0
7, 18648, Note_on_c, 5, 64, 56
7, 18668, Note_on_c, 5, 64, 0
7, 18672, Note_on_c, 5, 64, 56
7, 18692, Note_on_c, 5, 64, 0
7, 18696, Note_on_c, 5, 64, 56
7, 18716, Note_on_c, 5, 64, 0
7, 18744, Note_on_c, 5, 64, 56
7, 18764, Note_on_c, 5, 64, 0
7, 18768, Note_on_c, 5, 64, 56
7, 18788, Note_on_c, 5, 64, 0
7, 18792, Note_on_c, 5, 64, 56
7, 18812, Note_on_c, 5, 64, 0
7, 18840, Note_on_c, 5, 62, 56
7, 18860, Note_on_c, 5, 62, 0
7, 18864, Note_on_c, 5, 62, 56
7, 18884, Note_on_c, 5, 62, 0
7, 18888, Note_on_c, 5, 62, 56
7, 18908, Note_on_c, 5, 62, 0
7, 18936, Note_on_c, 5, 62, 56
7, 18956, Note_on_c, 5, 62, 0
7, 18960, Note_on_c, 5, 62, 56
7, 18980, Note_on_c, 5, 62, 0
7, 18984, Note_on_c, 5, 62, 56
7, 19004, Note_on_c, 5, 62, 0
7, 19032, Note_on_c, 5, 62, 56
7, 19052, Note_on_c, 5, 62, 0
7, 19056, Note_on_c, 5, 62, 56
7, 19076, Note_on_c, 5, 62, 0
7, 19080, Note_on_c, 5, 62, 56
7, 19100, Note_on_c, 5, 62, 0
7, 19128, Note_on_c, 5, 62, 56
7, 19148, Note_on_c, 5, 62, 0
7, 19152, Note_on_c, 5, 62, 56
7, 19172, Note_on_c, 5, 62, 0
7, 19176, Note_on_c, 5, 62, 56
7, 19196, Note_on_c, 5, 62, 0
7, 19200, Note_on_c, 5, 61, 95
7, 19240, Note_on_c, 5, 61, 0
7, 19272, Note_on_c, 5, 73, 95
7, 19293, Note_on_c, 5, 73, 0
7, 19296, Note_on_c, 5, 71, 95
7, 19317, Note_on_c, 5, 71, 0
7, 19320, Note_on_c, 5, 69, 95
7, 19341, Note_on_c, 5, 69, 0
7, 19344, Note_on_c, 5, 71, 95
7, 19365, Note_on_c, 5, 71, 0
7, 19368, Note_on_c, 5, 68, 95
7, 19389, Note_on_c, 5, 68, 0
7, 19392, Note_on_c, 5, 64, 95
7, 19413, Note_on_c, 5, 64, 0
7, 19416, Note_on_c, 5, 64, 95
7, 19437, Note_on_c, 5, 64, 0
7, 19440, Note_on_c, 5, 69, 95
7, 19461, Note_on_c, 5, 69, 0
7, 19464, Note_on_c, 5, 73, 95
7, 19485, Note_on_c, 5, 73, 0
7, 19488, Note_on_c, 5, 68, 95
7, 19509, Note_on_c, 5, 68, 0
7, 20040, Note_on_c, 5, 68, 56
7, 20061, Note_on_c, 5, 68, 0
7, 20064, Note_on_c, 5, 64, 56
7, 20085, Note_on_c, 5, 64, 0
7, 20088, Note_on_c, 5, 61, 56
7, 20109, Note_on_c, 5, 61, 0
7, 20616, Note_on_c, 5, 64, 56
7, 20637, Note_on_c, 5, 64, 0
7, 20640, Note_on_c, 5, 66, 56
7, 20682, Note_on_c, 5, 66, 0
7, 20712, Note_on_c, 5, 66, 56
7, 20733, Note_on_c, 5, 66, 0
7, 20736, Note_on_c, 5, 64, 56
7, 20757, Note_on_c, 5, 64, 0
7, 20760, Note_on_c, 5, 69, 56
7, 20781, Note_on_c, 5, 69, 0
7, 20808, Note_on_c, 5, 61, 56
7, 20829, Note_on_c, 5, 61, 0
7, 20832, Note_on_c, 5, 69, 56
7, 20853, Note_on_c, 5, 69, 0
7, 20856, Note_on_c, 5, 61, 56
7, 20877, Note_on_c, 5, 61, 0
7, 20880, Note_on_c, 5, 69, 56
7, 20901, Note_on_c, 5, 69, 0
7, 20904, Note_on_c, 5, 57, 56
7, 20925, Note_on_c, 5, 57, 0
7, 20928, Note_on_c, 5, 61, 56
7, 20938, Note_on_c, 5, 61, 0
7, 20940, Note_on_c, 5, 61, 56
7, 20950, Note_on_c, 5, 61, 0
7, 20952, Note_on_c, 5, 64, 56
7, 20962, Note_on_c, 5, 64, 0
7, 20964, Note_on_c, 5, 64, 56
7, 20974, Note_on_c, 5, 64, 0
7, 20976, Note_on_c, 5, 69, 56
7, 20986, Note_on_c, 5, 69, 0
7, 20988, Note_on_c, 5, 69, 56
7, 20998, Note_on_c, 5, 69, 0
7, 21000, Note_on_c, 5, 73, 56
7, 21010, Note_on_c, 5, 73, 0
7, 21012, Note_on_c, 5, 73, 56
7, 21022, Note_on_c, 5, 73, 0
7, 21024, Note_on_c, 5, 69, 56
7, 21045, Note_on_c, 5, 69, 0
7, 21312, Note_on_c, 5, 69, 56
7, 21322, Note_on_c, 5, 69, 0
7, 21324, Note_on_c, 5, 67, 56
7, 21334, Note_on_c, 5, 67, 0
7, 21336, Note_on_c, 5, 66, 56
7, 21346, Note_on_c, 5, 66, 0
7, 21348, Note_on_c, 5, 64, 56
7, 21358, Note_on_c, 5, 64, 0
7, 21360, Note_on_c, 5, 62, 56
7, 21381, Note_on_c, 5, 62, 0
7, 21384, Note_on_c, 5, 57, 56
7, 21405, Note_on_c, 5, 57, 0
7, 21408, Note_on_c, 5, 57, 56
7, 21429, Note_on_c, 5, 57, 0
7, 21432, Note_on_c, 5, 61, 56
7, 21453, Note_on_c, 5, 61, 0
7, 21456, Note_on_c, 5, 64, 56
7, 21477, Note_on_c, 5, 64, 0
7, 21480, Note_on_c, 5, 69, 56
7, 21501, Note_on_c, 5, 69, 0
7, 21504, Note_on_c, 5, 69, 56
7, 21525, Note_on_c, 5, 69, 0
7, 21792, Note_on_c, 5, 69, 56
7, 21802, Note_on_c, 5, 69, 0
7, 21804, Note_on_c, 5, 67, 56
7, 21814, Note_on_c, 5, 67, 0
7, 21816, Note_on_c, 5, 66, 56
7, 21826, Note_on_c, 5, 66, 0
7, 21828, Note_on_c, 5, 64, 56
7, 21838, Note_on_c, 5, 64, 0
7, 21840, Note_on_c, 5, 62, 56
7, 21861, Note_on_c, 5, 62, 0
7, 21864, Note_on_c, 5, 57, 56
7, 21885, Note_on_c, 5, 57, 0
7, 21888, Note_on_c, 5, 69, 56
7, 21930, Note_on_c, 5, 69, 0
7, 23040, Note_on_c, 5, 66, 95
7, 23082, Note_on_c, 5, 66, 0
7, 23112, Note_on_c, 5, 66, 95
7, 23133, Note_on_c, 5, 66, 0
7, 23136, Note_on_c, 5, 64, 95
7, 23157, Note_on_c, 5, 64, 0
7, 23160, Note_on_c, 5, 62, 95
7, 23181, Note_on_c, 5, 62, 0
7, 23184, Note_on_c, 5, 64, 95
7, 23205, Note_on_c, 5, 64, 0
7, 23208, Note_on_c, 5, 61, 95
7, 23229, Note_on_c, 5, 61, 0
7, 23232, Note_on_c, 5, 57, 95
7, 23252, Note_on_c, 5, 57, 0
7, 23256, Note_on_c, 5, 69, 95
7, 23276, Note_on_c, 5, 69, 0
7, 23280, Note_on_c, 5, 62, 95
7, 23300, Note_on_c, 5, 62, 0
7, 23304, Note_on_c, 5, 66, 95
7, 23324, Note_on_c, 5, 66, 0
7, 23328, Note_on_c, 5, 61, 95
7, 23348, Note_on_c, 5, 61, 0
7, 23352, Note_on_c, 5, 62, 95
7, 23372, Note_on_c, 5, 62, 0
7, 23376, Note_on_c, 5, 64, 95
7, 23396, Note_on_c, 5, 64, 0
7, 23400, Note_on_c, 5, 61, 95
7, 23420, Note_on_c, 5, 61, 0
7, 23424, Note_on_c, 5, 62, 95
7, 23444, Note_on_c, 5, 62, 0
7, 23448, Note_on_c, 5, 69, 95
7, 23468, Note_on_c, 5, 69, 0
7, 23472, Note_on_c, 5, 74, 95
7, 23492, Note_on_c, 5, 74, 0
7, 23496, Note_on_c, 5, 73, 95
7, 23516, Note_on_c, 5, 73, 0
7, 23520, Note_on_c, 5, 74, 95
7, 23540, Note_on_c, 5, 74, 0
7, 23544, Note_on_c, 5, 62, 95
7, 23564, Note_on_c, 5, 62, 0
7, 23568, Note_on_c, 5, 67, 95
7, 23588, Note_on_c, 5, 67, 0
7, 23592, Note_on_c, 5, 66, 95
7, 23612, Note_on_c, 5, 66, 0
7, 23616, Note_on_c, 5, 64, 95
7, 23636, Note_on_c, 5, 64, 0
7, 23640, Note_on_c, 5, 62, 95
7, 23660, Note_on_c, 5, 62, 0
7, 23664, Note_on_c, 5, 62, 95
7, 23684, Note_on_c, 5, 62, 0
7, 23688, Note_on_c, 5, 62, 95
7, 23708, Note_on_c, 5, 62, 0
7, 23712, Note_on_c, 5, 67, 95
7, 23732, Note_on_c, 5, 67, 0
7, 23736, Note_on_c, 5, 66, 95
7, 23756, Note_on_c, 5, 66, 0
7, 23760, Note_on_c, 5, 64, 95
7, 23780, Note_on_c, 5, 64, 0
7, 23784, Note_on_c, 5, 64, 95
7, 23804, Note_on_c, 5, 64, 0
7, 23808, Note_on_c, 5, 57, 95
7, 23828, Note_on_c, 5, 57, 0
7, 23832, Note_on_c, 5, 62, 95
7, 23852, Note_on_c, 5, 62, 0
7, 23856, Note_on_c, 5, 67, 95
7, 23876, Note_on_c, 5, 67, 0
7, 23880, Note_on_c, 5, 67, 95
7, 23900, Note_on_c, 5, 67, 0
7, 23904, Note_on_c, 5, 66, 95
7, 23944, Note_on_c, 5, 66, 0
7, 24504, Note_on_c, 5, 62, 63
7, 24524, Note_on_c, 5, 62, 0
7, 24528, Note_on_c, 5, 64, 63
7, 24548, Note_on_c, 5, 64, 0
7, 24552, Note_on_c, 5, 64, 63
7, 24572, Note_on_c, 5, 64, 0
7, 24576, Note_on_c, 5, 62, 63
7, 24596, Note_on_c, 5, 62, 0
7, 25176, Note_on_c, 5, 69, 63
7, 25196, Note_on_c, 5, 69, 0
7, 25200, Note_on_c, 5, 71, 63
7, 25220, Note_on_c, 5, 71, 0
7, 25224, Note_on_c, 5, 71, 63
7, 25244, Note_on_c, 5, 71, 0
7, 25248, Note_on_c, 5, 69, 63
7, 25268, Note_on_c, 5, 69, 0
7, 25320, Note_on_c, 5, 69, 63
7, 25340, Note_on_c, 5, 69, 0
7, 25344, Note_on_c, 5, 67, 63
7, 25364, Note_on_c, 5, 67, 0
7, 25416, Note_on_c, 5, 67, 63
7, 25436, Note_on_c, 5, 67, 0
7, 25440, Note_on_c, 5, 69, 63
7, 25460, Note_on_c, 5, 69, 0
7, 25512, Note_on_c, 5, 71, 63
7, 25532, Note_on_c, 5, 71, 0
7, 25536, Note_on_c, 5, 71, 63
7, 25556, Note_on_c, 5, 71, 0
7, 25608, Note_on_c, 5, 73, 63
7, 25628, Note_on_c, 5, 73, 0
7, 25632, Note_on_c, 5, 69, 63
7, 25672, Note_on_c, 5, 69, 0
7, 25704, Note_on_c, 5, 66, 63
7, 25724, Note_on_c, 5, 66, 0
7, 25728, Note_on_c, 5, 64, 63
7, 25748, Note_on_c, 5, 64, 0
7, 25752, Note_on_c, 5, 69, 63
7, 25772, Note_on_c, 5, 69, 0
7, 25800, Note_on_c, 5, 69, 63
7, 25820, Note_on_c, 5, 69, 0
7, 25824, Note_on_c, 5, 62, 63
7, 25844, Note_on_c, 5, 62, 0
7, 25848, Note_on_c, 5, 69, 63
7, 25868, Note_on_c, 5, 69, 0
7, 25896, Note_on_c, 5, 69, 63
7, 25916, Note_on_c, 5, 69, 0
7, 25920, Note_on_c, 5, 62, 63
7, 25940, Note_on_c, 5, 62, 0
7, 25944, Note_on_c, 5, 64, 63
7, 25964, Note_on_c, 5, 64, 0
7, 25992, Note_on_c, 5, 64, 63
7, 26012, Note_on_c, 5, 64, 0
7, 26016, Note_on_c, 5, 64, 95
7, 26026, Note_on_c, 5, 64, 0
7, 26028, Note_on_c, 5, 66, 95
7, 26038, Note_on_c, 5, 66, 0
7, 26040, Note_on_c, 5, 67, 95
7, 26050, Note_on_c, 5, 67, 0
7, 26052, Note_on_c, 5, 66, 95
7, 26062, Note_on_c, 5, 66, 0
7, 26064, Note_on_c, 5, 64, 95
7, 26074, Note_on_c, 5, 64, 0
7, 26076, Note_on_c, 5, 62, 95
7, 26086, Note_on_c, 5, 62, 0
7, 26088, Note_on_c, 5, 61, 95
7, 26098, Note_on_c, 5, 61, 0
7, 26100, Note_on_c, 5, 64, 95
7, 26110, Note_on_c, 5, 64, 0
7, 26112, Note_on_c, 5, 62, 95
7, 26132, Note_on_c, 5, 62, 0
7, 26136, Note_on_c, 5, 69, 95
7, 26156, Note_on_c, 5, 69, 0
7, 26160, Note_on_c, 5, 74, 95
7, 26180, Note_on_c, 5, 74, 0
7, 26184, Note_on_c, 5, 73, 95
7, 26204, Note_on_c, 5, 73, 0
7, 26208, Note_on_c, 5, 74, 95
7, 26228, Note_on_c, 5, 74, 0
7, 26232, Note_on_c, 5, 62, 95
7, 26252, Note_on_c, 5, 62, 0
7, 26256, Note_on_c, 5, 67, 95
7, 26276, Note_on_c, 5, 67, 0
7, 26280, Note_on_c, 5, 66, 95
7, 26300, Note_on_c, 5, 66, 0
7, 26304, Note_on_c, 5, 64, 95
7, 26324, Note_on_c, 5, 64, 0
7, 26328, Note_on_c, 5, 62, 95
7, 26348, Note_on_c, 5, 62, 0
7, 26352, Note_on_c, 5, 62, 95
7, 26372, Note_on_c, 5, 62, 0
7, 26376, Note_on_c, 5, 62, 95
7, 26396, Note_on_c, 5, 62, 0
7, 26400, Note_on_c, 5, 67, 95
7, 26420, Note_on_c, 5, 67, 0
7, 26424, Note_on_c, 5, 66, 95
7, 26444, Note_on_c, 5, 66, 0
7, 26448, Note_on_c, 5, 64, 95
7, 26468, Note_on_c, 5, 64, 0
7, 26472, Note_on_c, 5, 64, 95
7, 26492, Note_on_c, 5, 64, 0
7, 26496, Note_on_c, 5, 57, 95
7, 26516, Note_on_c, 5, 57, 0
7, 26520, Note_on_c, 5, 62, 95
7, 26540, Note_on_c, 5, 62, 0
7, 26544, Note_on_c, 5, 62, 95
7, 26564, Note_on_c, 5, 62, 0
7, 26568, Note_on_c, 5, 61, 95
7, 26588, Note_on_c, 5, 61, 0
7, 26592, Note_on_c, 5, 57, 95
7, 26612, Note_on_c, 5, 57, 0
7, 26616, Note_on_c, 5, 54, 63
7, 26636, Note_on_c, 5, 54, 0
7, 26640, Note_on_c, 5, 54, 63
7, 26660, Note_on_c, 5, 54, 0
7, 26664, Note_on_c, 5, 54, 63
7, 26684, Note_on_c, 5, 54, 0
7, 26688, Note_on_c, 5, 55, 63
7, 26708, Note_on_c, 5, 55, 0
7, 26712, Note_on_c, 5, 55, 63
7, 26732, Note_on_c, 5, 55, 0
7, 26736, Note_on_c, 5, 55, 63
7, 26756, Note_on_c, 5, 55, 0
7, 26760, Note_on_c, 5, 55, 63
7, 26780, Note_on_c, 5, 55, 0
7, 26784, Note_on_c, 5, 56, 63
7, 26804, Note_on_c, 5, 56, 0
7, 26808, Note_on_c, 5, 56, 63
7, 26828, Note_on_c, 5, 56, 0
7, 26832, Note_on_c, 5, 56, 63
7, 26852, Note_on_c, 5, 56, 0
7, 26856, Note_on_c, 5, 56, 63
7, 26876, Note_on_c, 5, 56, 0
7, 26880, Note_on_c, 5, 57, 63
7, 26900, Note_on_c, 5, 57, 0
7, 26904, Note_on_c, 5, 57, 63
7, 26924, Note_on_c, 5, 57, 0
7, 26928, Note_on_c, 5, 57, 63
7, 26948, Note_on_c, 5, 57, 0
7, 26952, Note_on_c, 5, 57, 63
7, 26972, Note_on_c, 5, 57, 0
7, 26976, Note_on_c, 5, 58, 63
7, 26996, Note_on_c, 5, 58, 0
7, 27000, Note_on_c, 5, 58, 63
7, 27020, Note_on_c, 5, 58, 0
7, 27024, Note_on_c, 5, 58, 63
7, 27044, Note_on_c, 5, 58, 0
7, 27048, Note_on_c, 5, 58, 63
7, 27068, Note_on_c, 5, 58, 0
7, 27072, Note_on_c, 5, 59, 63
7, 27092, Note_on_c, 5, 59, 0
7, 27096, Note_on_c, 5, 59, 63
7, 27116, Note_on_c, 5, 59, 0
7, 27120, Note_on_c, 5, 59, 63
7, 27140, Note_on_c, 5, 59, 0
7, 27144, Note_on_c, 5, 59, 63
7, 27164, Note_on_c, 5, 59, 0
7, 27168, Note_on_c, 5, 61, 63
7, 27188, Note_on_c, 5, 61, 0
7, 27192, Note_on_c, 5, 61, 63
7, 27212, Note_on_c, 5, 61, 0
7, 27216, Note_on_c, 5, 61, 63
7, 27236, Note_on_c, 5, 61, 0
7, 27240, Note_on_c, 5, 61, 63
7, 27260, Note_on_c, 5, 61, 0
7, 27264, Note_on_c, 5, 62, 63
7, 27284, Note_on_c, 5, 62, 0
7, 27288, Note_on_c, 5, 62, 63
7, 27308, Note_on_c, 5, 62, 0
7, 27312, Note_on_c, 5, 62, 63
7, 27332, Note_on_c, 5, 62, 0
7, 27336, Note_on_c, 5, 62, 63
7, 27356, Note_on_c, 5, 62, 0
7, 27360, Note_on_c, 5, 67, 63
7, 27380, Note_on_c, 5, 67, 0
7, 27384, Note_on_c, 5, 74, 63
7, 27404, Note_on_c, 5, 74, 0
7, 27408, Note_on_c, 5, 61, 63
7, 27428, Note_on_c, 5, 61, 0
7, 27432, Note_on_c, 5, 64, 63
7, 27452, Note_on_c, 5, 64, 0
7, 27456, Note_on_c, 5, 66, 63
7, 27476, Note_on_c, 5, 66, 0
7, 27480, Note_on_c, 5, 69, 63
7, 27500, Note_on_c, 5, 69, 0
7, 27504, Note_on_c, 5, 59, 63
7, 27524, Note_on_c, 5, 59, 0
7, 27528, Note_on_c, 5, 62, 63
7, 27548, Note_on_c, 5, 62, 0
7, 27552, Note_on_c, 5, 64, 63
7, 27572, Note_on_c, 5, 64, 0
7, 27576, Note_on_c, 5, 67, 63
7, 27596, Note_on_c, 5, 67, 0
7, 27600, Note_on_c, 5, 57, 63
7, 27620, Note_on_c, 5, 57, 0
7, 27624, Note_on_c, 5, 61, 63
7, 27644, Note_on_c, 5, 61, 0
7, 27648, Note_on_c, 5, 62, 63
7, 27668, Note_on_c, 5, 62, 0
7, 27672, Note_on_c, 5, 57, 63
7, 27692, Note_on_c, 5, 57, 0
7, 27696, Note_on_c, 5, 54, 63
7, 27716, Note_on_c, 5, 54, 0
7, 27720, Note_on_c, 5, 50, 63
7, 27740, Note_on_c, 5, 50, 0
7, 27744, Note_on_c, 5, 57, 63
7, 27754, Note_on_c, 5, 57, 0
7, 27756, Note_on_c, 5, 57, 63
7, 27766, Note_on_c, 5, 57, 0
7, 27768, Note_on_c, 5, 61, 63
7, 27778, Note_on_c, 5, 61, 0
7, 27780, Note_on_c, 5, 61, 63
7, 27790, Note_on_c, 5, 61, 0
7, 27792, Note_on_c, 5, 64, 63
7, 27802, Note_on_c, 5, 64, 0
7, 27804, Note_on_c, 5, 64, 63
7, 27814, Note_on_c, 5, 64, 0
7, 27816, Note_on_c, 5, 69, 63
7, 27826, Note_on_c, 5, 69, 0
7, 27828, Note_on_c, 5, 69, 63
7, 27838, Note_on_c, 5, 69, 0
7, 27840, Note_on_c, 5, 62, 63
7, 27850, Note_on_c, 5, 62, 0
7, 27852, Note_on_c, 5, 62, 63
7, 27862, Note_on_c, 5, 62, 0
7, 27864, Note_on_c, 5, 66, 63
7, 27874, Note_on_c, 5, 66, 0
7, 27876, Note_on_c, 5, 66, 63
7, 27886, Note_on_c, 5, 66, 0
7, 27888, Note_on_c, 5, 69, 63
7, 27898, Note_on_c, 5, 69, 0
7, 27900, Note_on_c, 5, 69, 63
7, 27910, Note_on_c, 5, 69, 0
7, 27912, Note_on_c, 5, 74, 63
7, 27922, Note_on_c, 5, 74, 0
7, 27924, Note_on_c, 5, 74, 63
7, 27934, Note_on_c, 5, 74, 0
7, 27936, Note_on_c, 5, 76, 63
7, 27956, Note_on_c, 5, 76, 0
7, 27960, Note_on_c, 5, 69, 63
7, 27980, Note_on_c, 5, 69, 0
7, 28032, Note_on_c, 5, 57, 56
7, 28080, Note_on_c, 5, 57, 0
7, 28128, Note_on_c, 5, 57, 56
7, 28176, Note_on_c, 5, 57, 0
7, 28224, Note_on_c, 5, 57, 56
7, 28272, Note_on_c, 5, 57, 0
7, 28320, Note_on_c, 5, 57, 56
7, 28368, Note_on_c, 5, 57, 0
7, 28416, Note_on_c, 5, 57, 56
7, 28464, Note_on_c, 5, 57, 0
7, 28512, Note_on_c, 5, 57, 56
7, 28560, Note_on_c, 5, 57, 0
7, 28608, Note_on_c, 5, 57, 56
7, 28656, Note_on_c, 5, 57, 0
7, 28704, Note_on_c, 5, 57, 56
7, 28752, Note_on_c, 5, 57, 0
7, 28800, Note_on_c, 5, 57, 56
7, 28992, Note_on_c, 5, 57, 0
7, 28992, Note_on_c, 5, 57, 56
7, 29184, Note_on_c, 5, 57, 0
7, 29184, Note_on_c, 5, 57, 56
7, 29376, Note_on_c, 5, 57, 0
7, 29376, Note_on_c, 5, 57, 56
7, 29400, Note_on_c, 5, 57, 0
7, 41952, Note_on_c, 5, 66, 95
7, 42000, Note_on_c, 5, 66, 0
7, 42024, Note_on_c, 5, 66, 95
7, 42048, Note_on_c, 5, 66, 0
7, 42048, Note_on_c, 5, 64, 95
7, 42072, Note_on_c, 5, 64, 0
7, 42072, Note_on_c, 5, 62, 95
7, 42096, Note_on_c, 5, 62, 0
7, 42096, Note_on_c, 5, 64, 95
7, 42120, Note_on_c, 5, 64, 0
7, 42120, Note_on_c, 5, 61, 95
7, 42144, Note_on_c, 5, 61, 0
7, 42144, Note_on_c, 5, 62, 95
7, 42168, Note_on_c, 5, 62, 0
7, 42168, Note_on_c, 5, 57, 95
7, 42192, Note_on_c, 5, 57, 0
7, 42192, Note_on_c, 5, 62, 95
7, 42216, Note_on_c, 5, 62, 0
7, 42216, Note_on_c, 5, 66, 95
7, 42240, Note_on_c, 5, 66, 0
7, 42240, Note_on_c, 5, 61, 95
7, 42264, Note_on_c, 5, 61, 0
7, 42264, Note_on_c, 5, 62, 95
7, 42288, Note_on_c, 5, 62, 0
7, 42288, Note_on_c, 5, 64, 95
7, 42312, Note_on_c, 5, 64, 0
7, 42312, Note_on_c, 5, 61, 95
7, 42336, Note_on_c, 5, 61, 0
7, 42336, Note_on_c, 5, 62, 95
7, 42360, Note_on_c, 5, 62, 0
7, 42360, Note_on_c, 5, 69, 95
7, 42384, Note_on_c, 5, 69, 0
7, 42384, Note_on_c, 5, 74, 95
7, 42408, Note_on_c, 5, 74, 0
7, 42408, Note_on_c, 5, 73, 95
7, 42432, Note_on_c, 5, 73, 0
7, 42432, Note_on_c, 5, 74, 95
7, 42456, Note_on_c, 5, 74, 0
7, 42456, Note_on_c, 5, 62, 95
7, 42480, Note_on_c, 5, 62, 0
7, 42480, Note_on_c, 5, 67, 95
7, 42504, Note_on_c, 5, 67, 0
7, 42504, Note_on_c, 5, 66, 95
7, 42528, Note_on_c, 5, 66, 0
7, 42528, Note_on_c, 5, 64, 95
7, 42552, Note_on_c, 5, 64, 0
7, 42552, Note_on_c, 5, 62, 95
7, 42576, Note_on_c, 5, 62, 0
7, 42576, Note_on_c, 5, 62, 95
7, 42600, Note_on_c, 5, 62, 0
7, 42600, Note_on_c, 5, 62, 95
7, 42624, Note_on_c, 5, 62, 0
7, 42624, Note_on_c, 5, 67, 95
7, 42648, Note_on_c, 5, 67, 0
7, 42648, Note_on_c, 5, 66, 95
7, 42672, Note_on_c, 5, 66, 0
7, 42672, Note_on_c, 5, 64, 95
7, 42696, Note_on_c, 5, 64, 0
7, 42696, Note_on_c, 5, 57, 95
7, 42720, Note_on_c, 5, 57, 0
7, 42720, Note_on_c, 5, 57, 95
7, 42744, Note_on_c, 5, 57, 0
7, 42744, Note_on_c, 5, 62, 95
7, 42768, Note_on_c, 5, 62, 0
7, 42768, Note_on_c, 5, 59, 95
7, 42792, Note_on_c, 5, 59, 0
7, 42792, Note_on_c, 5, 61, 95
7, 42816, Note_on_c, 5, 61, 0
7, 42816, Note_on_c, 5, 62, 95
7, 42828, Note_on_c, 5, 62, 0
7, 42828, Note_on_c, 5, 64, 95
7, 42840, Note_on_c, 5, 64, 0
7, 42840, Note_on_c, 5, 66, 95
7, 42852, Note_on_c, 5, 66, 0
7, 42852, Note_on_c, 5, 67, 95
7, 42864, Note_on_c, 5, 67, 0
7, 42864, Note_on_c, 5, 69, 95
7, 42876, Note_on_c, 5, 69, 0
7, 42876, Note_on_c, 5, 71, 95
7, 42888, Note_on_c, 5, 71, 0
7, 42888, Note_on_c, 5, 73, 95
7, 42900, Note_on_c, 5, 73, 0
7, 42900, Note_on_c, 5, 69, 95
7, 42912, Note_on_c, 5, 69, 0
7, 42912, Note_on_c, 5, 74, 95
7, 42936, Note_on_c, 5, 74, 0
7, 42936, Note_on_c, 5, 66, 95
7, 42960, Note_on_c, 5, 66, 0
7, 42960, Note_on_c, 5, 71, 95
7, 42984, Note_on_c, 5, 71, 0
7, 42984, Note_on_c, 5, 69, 95
7, 43008, Note_on_c, 5, 69, 0
7, 43008, Note_on_c, 5, 64, 95
7, 43032, Note_on_c, 5, 64, 0
7, 43032, Note_on_c, 5, 66, 95
7, 43056, Note_on_c, 5, 66, 0
7, 43056, Note_on_c, 5, 67, 95
7, 43080, Note_on_c, 5, 67, 0
7, 43080, Note_on_c, 5, 64, 95
7, 43104, Note_on_c, 5, 64, 0
7, 43104, Note_on_c, 5, 62, 95
7, 43128, Note_on_c, 5, 62, 0
7, 43128, Note_on_c, 5, 69, 95
7, 43152, Note_on_c, 5, 69, 0
7, 43152, Note_on_c, 5, 71, 95
7, 43176, Note_on_c, 5, 71, 0
7, 43176, Note_on_c, 5, 73, 95
7, 43200, Note_on_c, 5, 73, 0
7, 43200, Note_on_c, 5, 69, 95
7, 43224, Note_on_c, 5, 69, 0
7, 43224, Note_on_c, 5, 67, 95
7, 43236, Note_on_c, 5, 67, 0
7, 43236, Note_on_c, 5, 66, 95
7, 43248, Note_on_c, 5, 66, 0
7, 43248, Note_on_c, 5, 64, 95
7, 43272, Note_on_c, 5, 64, 0
7, 43272, Note_on_c, 5, 64, 95
7, 43296, Note_on_c, 5, 64, 0
7, 43296, Note_on_c, 5, 57, 95
7, 43320, Note_on_c, 5, 57, 0
7, 43320, Note_on_c, 5, 57, 95
7, 43344, Note_on_c, 5, 57, 0
7, 43344, Note_on_c, 5, 57, 95
7, 43368, Note_on_c, 5, 57, 0
7, 43368, Note_on_c, 5, 57, 95
7, 43392, Note_on_c, 5, 57, 0
7, 43392, Note_on_c, 5, 50, 95
7, 43416, Note_on_c, 5, 50, 0
7, 43416, Note_on_c, 5, 61, 95
7, 43440, Note_on_c, 5, 61, 0
7, 43440, Note_on_c, 5, 61, 95
7, 43464, Note_on_c, 5, 61, 0
7, 43464, Note_on_c, 5, 67, 95
7, 43488, Note_on_c, 5, 67, 0
7, 43488, Note_on_c, 5, 66, 95
7, 43536, Note_on_c, 5, 66, 0
7, 65028, Note_on_c, 5, 69, 95
7, 65040, Note_on_c, 5, 69, 0
7, 65040, Note_on_c, 5, 74, 95
7, 65076, Note_on_c, 5, 74, 0
7, 65076, Note_on_c, 5, 69, 95
7, 65088, Note_on_c, 5, 69, 0
7, 65088, Note_on_c, 5, 71, 95
7, 65104, Note_on_c, 5, 71, 0
7, 65104, Note_on_c, 5, 69, 95
7, 65120, Note_on_c, 5, 69, 0
7, 65120, Note_on_c, 5, 67, 95
7, 65136, Note_on_c, 5, 67, 0
7, 65136, Note_on_c, 5, 66, 95
7, 65152, Note_on_c, 5, 66, 0
7, 65152, Note_on_c, 5, 67, 95
7, 65168, Note_on_c, 5, 67, 0
7, 65168, Note_on_c, 5, 69, 95
7, 65184, Note_on_c, 5, 69, 0
7, 65184, Note_on_c, 5, 62, 95
7, 65208, Note_on_c, 5, 62, 0
7, 65232, Note_on_c, 5, 64, 95
7, 65256, Note_on_c, 5, 64, 0
7, 65280, Note_on_c, 5, 57, 95
7, 65304, Note_on_c, 5, 57, 0
7, 65328, Note_on_c, 5, 64, 95
7, 65352, Note_on_c, 5, 64, 0
7, 65376, Note_on_c, 5, 61, 95
7, 65392, Note_on_c, 5, 61, 0
7, 65392, Note_on_c, 5, 62, 95
7, 65408, Note_on_c, 5, 62, 0
7, 65408, Note_on_c, 5, 64, 95
7, 65424, Note_on_c, 5, 64, 0
7, 65424, Note_on_c, 5, 66, 95
7, 65440, Note_on_c, 5, 66, 0
7, 65440, Note_on_c, 5, 67, 95
7, 65456, Note_on_c, 5, 67, 0
7, 65456, Note_on_c, 5, 69, 95
7, 65472, Note_on_c, 5, 69, 0
7, 65472, Note_on_c, 5, 62, 95
7, 65496, Note_on_c, 5, 62, 0
7, 65520, Note_on_c, 5, 69, 95
7, 65544, Note_on_c, 5, 69, 0
7, 65568, Note_on_c, 5, 66, 95
7, 65592, Note_on_c, 5, 66, 0
7, 65616, Note_on_c, 5, 69, 95
7, 65632, Note_on_c, 5, 69, 0
7, 65632, Note_on_c, 5, 67, 95
7, 65648, Note_on_c, 5, 67, 0
7, 65648, Note_on_c, 5, 69, 95
7, 65664, Note_on_c, 5, 69, 0
7, 65664, Note_on_c, 5, 66, 95
7, 65680, Note_on_c, 5, 66, 0
7, 65680, Note_on_c, 5, 64, 95
7, 65696, Note_on_c, 5, 64, 0
7, 65696, Note_on_c, 5, 62, 95
7, 65712, Note_on_c, 5, 62, 0
7, 65712, Note_on_c, 5, 69, 95
7, 65736, Note_on_c, 5, 69, 0
7, 65760, Note_on_c, 5, 69, 95
7, 65784, Note_on_c, 5, 69, 0
7, 65808, Note_on_c, 5, 61, 95
7, 65832, Note_on_c, 5, 61, 0
7, 65856, Note_on_c, 5, 62, 95
7, 65880, Note_on_c, 5, 62, 0
7, 65904, Note_on_c, 5, 64, 95
7, 65928, Note_on_c, 5, 64, 0
7, 65952, Note_on_c, 5, 66, 95
7, 65988, Note_on_c, 5, 66, 0
7, 65988, Note_on_c, 5, 73, 95
7, 66000, Note_on_c, 5, 73, 0
7, 66000, Note_on_c, 5, 69, 95
7, 66036, Note_on_c, 5, 69, 0
7, 66036, Note_on_c, 5, 67, 95
7, 66048, Note_on_c, 5, 67, 0
7, 66048, Note_on_c, 5, 66, 95
7, 66084, Note_on_c, 5, 66, 0
7, 66084, Note_on_c, 5, 67, 95
7, 66096, Note_on_c, 5, 67, 0
7, 66096, Note_on_c, 5, 69, 95
7, 66132, Note_on_c, 5, 69, 0
7, 66132, Note_on_c, 5, 69, 95
7, 66144, Note_on_c, 5, 69, 0
7, 66144, Note_on_c, 5, 69, 95
7, 66168, Note_on_c, 5, 69, 0
7, 66192, Note_on_c, 5, 67, 95
7, 66216, Note_on_c, 5, 67, 0
7, 66240, Note_on_c, 5, 66, 95
7, 66264, Note_on_c, 5, 66, 0
7, 66288, Note_on_c, 5, 62, 85
7, 66312, Note_on_c, 5, 62, 0
7, 66336, Note_on_c, 5, 62, 77
7, 66360, Note_on_c, 5, 62, 0
7, 66384, Note_on_c, 5, 69, 85
7, 66408, Note_on_c, 5, 69, 0
7, 66432, Note_on_c, 5, 66, 68
7, 66456, Note_on_c, 5, 66, 0
7, 66480, Note_on_c, 5, 64, 57
7, 66496, Note_on_c, 5, 64, 0
7, 66496, Note_on_c, 5, 61, 56
7, 66512, Note_on_c, 5, 61, 0
7, 66512, Note_on_c, 5, 57, 59
7, 66528, Note_on_c, 5, 57, 0
7, 66528, Note_on_c, 5, 66, 56
7, 66544, Note_on_c, 5, 66, 0
7, 66544, Note_on_c, 5, 62, 76
7, 66560, Note_on_c, 5, 62, 0
7, 66560, Note_on_c, 5, 57, 70
7, 66576, Note_on_c, 5, 57, 0
7, 66576, Note_on_c, 5, 67, 74
7, 66592, Note_on_c, 5, 67, 0
7, 66592, Note_on_c, 5, 64, 85
7, 66608, Note_on_c, 5, 64, 0
7, 66608, Note_on_c, 5, 57, 68
7, 66624, Note_on_c, 5, 57, 0
7, 66624, Note_on_c, 5, 66, 56
7, 66648, Note_on_c, 5, 66, 0
7, 66672, Note_on_c, 5, 62, 72
7, 66696, Note_on_c, 5, 62, 0
7, 66720, Note_on_c, 5, 66, 56
7, 66744, Note_on_c, 5, 66, 0
7, 66768, Note_on_c, 5, 66, 64
7, 66792, Note_on_c, 5, 66, 0
7, 66816, Note_on_c, 5, 64, 85
7, 66840, Note_on_c, 5, 64, 0
7, 66864, Note_on_c, 5, 66, 66
7, 66900, Note_on_c, 5, 66, 0
7, 66900, Note_on_c, 5, 64, 85
7, 66912, Note_on_c, 5, 64, 0
7, 66912, Note_on_c, 5, 62, 85
7, 66948, Note_on_c, 5, 62, 0
7, 66948, Note_on_c, 5, 67, 85
7, 66960, Note_on_c, 5, 67, 0
7, 66960, Note_on_c, 5, 64, 85
7, 66996, Note_on_c, 5, 64, 0
7, 66996, Note_on_c, 5, 57, 85
7, 67008, Note_on_c, 5, 57, 0
7, 67008, Note_on_c, 5, 57, 85
7, 67032, Note_on_c, 5, 57, 0
7, 67056, Note_on_c, 5, 62, 85
7, 67080, Note_on_c, 5, 62, 0
7, 67104, Note_on_c, 5, 62, 85
7, 67128, Note_on_c, 5, 62, 0
7, 67152, Note_on_c, 5, 66, 85
7, 67176, Note_on_c, 5, 66, 0
7, 67200, Note_on_c, 5, 59, 85
7, 67392, Note_on_c, 5, 59, 0
7, 67392, Note_on_c, 5, 57, 85
7, 67519, Note_on_c, 5, 57, 0
7, 67584, Note_on_c, 5, 64, 85
7, 67776, Note_on_c, 5, 64, 0
7, 67776, Note_on_c, 5, 64, 85
7, 67800, Note_on_c, 5, 64, 0
7, 67824, Note_on_c, 5, 66, 85
7, 67848, Note_on_c, 5, 66, 0
7, 67872, Note_on_c, 5, 66, 85
7, 67896, Note_on_c, 5, 66, 0
7, 67920, Note_on_c, 5, 64, 85
7, 67944, Note_on_c, 5, 64, 0
7, 67968, Note_on_c, 5, 64, 85
7, 67992, Note_on_c, 5, 64, 0
7, 68016, Note_on_c, 5, 62, 85
7, 68040, Note_on_c, 5, 62, 0
7, 68064, Note_on_c, 5, 62, 85
7, 68112, Note_on_c, 5, 62, 0
7, 68196, Note_on_c, 5, 69, 85
7, 68204, Note_on_c, 5, 69, 0
7, 68208, Note_on_c, 5, 66, 65
7, 68232, Note_on_c, 5, 66, 0
7, 68244, Note_on_c, 5, 64, 85
7, 68252, Note_on_c, 5, 64, 0
7, 68256, Note_on_c, 5, 62, 85
7, 68267, Note_on_c, 5, 62, 0
7, 68272, Note_on_c, 5, 61, 66
7, 68283, Note_on_c, 5, 61, 0
7, 68288, Note_on_c, 5, 59, 85
7, 68299, Note_on_c, 5, 59, 0
7, 68304, Note_on_c, 5, 64, 76
7, 68315, Note_on_c, 5, 64, 0
7, 68320, Note_on_c, 5, 66, 68
7, 68331, Note_on_c, 5, 66, 0
7, 68336, Note_on_c, 5, 67, 85
7, 68347, Note_on_c, 5, 67, 0
7, 68352, Note_on_c, 5, 66, 56
7, 68376, Note_on_c, 5, 66, 0
7, 68388, Note_on_c, 5, 69, 85
7, 68396, Note_on_c, 5, 69, 0
7, 68400, Note_on_c, 5, 74, 85
7, 68424, Note_on_c, 5, 74, 0
7, 68436, Note_on_c, 5, 69, 71
7, 68444, Note_on_c, 5, 69, 0
7, 68448, Note_on_c, 5, 71, 74
7, 68459, Note_on_c, 5, 71, 0
7, 68464, Note_on_c, 5, 69, 85
7, 68475, Note_on_c, 5, 69, 0
7, 68480, Note_on_c, 5, 67, 81
7, 68491, Note_on_c, 5, 67, 0
7, 68496, Note_on_c, 5, 66, 56
7, 68507, Note_on_c, 5, 66, 0
7, 68512, Note_on_c, 5, 67, 79
7, 68523, Note_on_c, 5, 67, 0
7, 68528, Note_on_c, 5, 69, 85
7, 68539, Note_on_c, 5, 69, 0
7, 68544, Note_on_c, 5, 62, 85
7, 68560, Note_on_c, 5, 62, 0
7, 68592, Note_on_c, 5, 62, 85
7, 68608, Note_on_c, 5, 62, 0
7, 68640, Note_on_c, 5, 62, 70
7, 68651, Note_on_c, 5, 62, 0
7, 68656, Note_on_c, 5, 60, 72
7, 68667, Note_on_c, 5, 60, 0
7, 68672, Note_on_c, 5, 59, 85
7, 68683, Note_on_c, 5, 59, 0
7, 68688, Note_on_c, 5, 57, 85
7, 68699, Note_on_c, 5, 57, 0
7, 68704, Note_on_c, 5, 59, 85
7, 68715, Note_on_c, 5, 59, 0
7, 68720, Note_on_c, 5, 61, 71
7, 68731, Note_on_c, 5, 61, 0
7, 68736, Note_on_c, 5, 59, 85
7, 68747, Note_on_c, 5, 59, 0
7, 68752, Note_on_c, 5, 62, 71
7, 68763, Note_on_c, 5, 62, 0
7, 68768, Note_on_c, 5, 61, 56
7, 68779, Note_on_c, 5, 61, 0
7, 68784, Note_on_c, 5, 59, 85
7, 68795, Note_on_c, 5, 59, 0
7, 68800, Note_on_c, 5, 62, 85
7, 68811, Note_on_c, 5, 62, 0
7, 68816, Note_on_c, 5, 61, 68
7, 68827, Note_on_c, 5, 61, 0
7, 68832, Note_on_c, 5, 59, 85
7, 68897, Note_on_c, 5, 59, 0
7, 68944, Note_on_c, 5, 56, 64
7, 68955, Note_on_c, 5, 56, 0
7, 68960, Note_on_c, 5, 57, 85
7, 68971, Note_on_c, 5, 57, 0
7, 68976, Note_on_c, 5, 59, 85
7, 68987, Note_on_c, 5, 59, 0
7, 68992, Note_on_c, 5, 56, 64
7, 69003, Note_on_c, 5, 56, 0
7, 69008, Note_on_c, 5, 57, 85
7, 69019, Note_on_c, 5, 57, 0
7, 69024, Note_on_c, 5, 59, 82
7, 69073, Note_on_c, 5, 59, 0
7, 69108, Note_on_c, 5, 68, 97
7, 69116, Note_on_c, 5, 68, 0
7, 69120, Note_on_c, 5, 69, 76
7, 69144, Note_on_c, 5, 69, 0
7, 69156, Note_on_c, 5, 64, 69
7, 69164, Note_on_c, 5, 64, 0
7, 69168, Note_on_c, 5, 69, 85
7, 69184, Note_on_c, 5, 69, 0
7, 69252, Note_on_c, 5, 66, 59
7, 69256, Note_on_c, 5, 66, 0
7, 69264, Note_on_c, 5, 71, 74
7, 69280, Note_on_c, 5, 71, 0
7, 69348, Note_on_c, 5, 69, 85
7, 69356, Note_on_c, 5, 69, 0
7, 69360, Note_on_c, 5, 73, 56
7, 69376, Note_on_c, 5, 73, 0
7, 69456, Note_on_c, 5, 62, 72
7, 69472, Note_on_c, 5, 62, 0
7, 69504, Note_on_c, 5, 62, 72
7, 69520, Note_on_c, 5, 62, 0
7, 69552, Note_on_c, 5, 69, 85
7, 69568, Note_on_c, 5, 69, 0
7, 69600, Note_on_c, 5, 66, 65
7, 69624, Note_on_c, 5, 66, 0
7, 69636, Note_on_c, 5, 67, 71
7, 69644, Note_on_c, 5, 67, 0
7, 69648, Note_on_c, 5, 64, 85
7, 69672, Note_on_c, 5, 64, 0
7, 69684, Note_on_c, 5, 66, 56
7, 69692, Note_on_c, 5, 66, 0
7, 69696, Note_on_c, 5, 66, 59
7, 69761, Note_on_c, 5, 66, 0
7, 70596, Note_on_c, 5, 71, 81
7, 70604, Note_on_c, 5, 71, 0
7, 70608, Note_on_c, 5, 66, 59
7, 70632, Note_on_c, 5, 66, 0
7, 70644, Note_on_c, 5, 73, 67
7, 70652, Note_on_c, 5, 73, 0
7, 70656, Note_on_c, 5, 74, 85
7, 70667, Note_on_c, 5, 74, 0
7, 70672, Note_on_c, 5, 73, 56
7, 70683, Note_on_c, 5, 73, 0
7, 70688, Note_on_c, 5, 71, 85
7, 70699, Note_on_c, 5, 71, 0
7, 70704, Note_on_c, 5, 70, 56
7, 70715, Note_on_c, 5, 70, 0
7, 70720, Note_on_c, 5, 71, 71
7, 70731, Note_on_c, 5, 71, 0
7, 70736, Note_on_c, 5, 73, 68
7, 70747, Note_on_c, 5, 73, 0
7, 70752, Note_on_c, 5, 66, 59
7, 70768, Note_on_c, 5, 66, 0
7, 71556, Note_on_c, 5, 66, 91
7, 71568, Note_on_c, 5, 66, 0
7, 71568, Note_on_c, 5, 73, 81
7, 71604, Note_on_c, 5, 73, 0
7, 71604, Note_on_c, 5, 68, 72
7, 71616, Note_on_c, 5, 68, 0
7, 71616, Note_on_c, 5, 69, 85
7, 71632, Note_on_c, 5, 69, 0
7, 71632, Note_on_c, 5, 68, 65
7, 71648, Note_on_c, 5, 68, 0
7, 71648, Note_on_c, 5, 66, 66
7, 71664, Note_on_c, 5, 66, 0
7, 71664, Note_on_c, 5, 65, 85
7, 71680, Note_on_c, 5, 65, 0
7, 71680, Note_on_c, 5, 66, 72
7, 71696, Note_on_c, 5, 66, 0
7, 71696, Note_on_c, 5, 68, 72
7, 71712, Note_on_c, 5, 68, 0
7, 71712, Note_on_c, 5, 61, 57
7, 71728, Note_on_c, 5, 61, 0
7, 71760, Note_on_c, 5, 57, 85
7, 71776, Note_on_c, 5, 57, 0
7, 71856, Note_on_c, 5, 57, 85
7, 71872, Note_on_c, 5, 57, 0
7, 71952, Note_on_c, 5, 57, 85
7, 71968, Note_on_c, 5, 57, 0
7, 72048, Note_on_c, 5, 57, 85
7, 72064, Note_on_c, 5, 57, 0
7, 72144, Note_on_c, 5, 57, 85
7, 72160, Note_on_c, 5, 57, 0
7, 72240, Note_on_c, 5, 57, 85
7, 72256, Note_on_c, 5, 57, 0
7, 72336, Note_on_c, 5, 57, 85
7, 72352, Note_on_c, 5, 57, 0
7, 72432, Note_on_c, 5, 57, 85
7, 72456, Note_on_c, 5, 57, 0
7, 72528, Note_on_c, 5, 66, 74
7, 72544, Note_on_c, 5, 66, 0
7, 72576, Note_on_c, 5, 61, 72
7, 72592, Note_on_c, 5, 61, 0
7, 72720, Note_on_c, 5, 64, 85
7, 72736, Note_on_c, 5, 64, 0
7, 72768, Note_on_c, 5, 59, 85
7, 72784, Note_on_c, 5, 59, 0
7, 74580, Note_on_c, 5, 66, 85
7, 74592, Note_on_c, 5, 66, 0
7, 74592, Note_on_c, 5, 66, 85
7, 74605, Note_on_c, 5, 66, 0
7, 74608, Note_on_c, 5, 64, 85
7, 74621, Note_on_c, 5, 64, 0
7, 74624, Note_on_c, 5, 62, 85
7, 74637, Note_on_c, 5, 62, 0
7, 74640, Note_on_c, 5, 64, 85
7, 74700, Note_on_c, 5, 64, 0
7, 74704, Note_on_c, 5, 62, 85
7, 74717, Note_on_c, 5, 62, 0
7, 74720, Note_on_c, 5, 61, 85
7, 74733, Note_on_c, 5, 61, 0
7, 74736, Note_on_c, 5, 59, 85
7, 74756, Note_on_c, 5, 59, 0
7, 74784, Note_on_c, 5, 59, 85
7, 74804, Note_on_c, 5, 59, 0
7, 74832, Note_on_c, 5, 66, 85
7, 74892, Note_on_c, 5, 66, 0
7, 74896, Note_on_c, 5, 59, 85
7, 74909, Note_on_c, 5, 59, 0
7, 74912, Note_on_c, 5, 64, 85
7, 74925, Note_on_c, 5, 64, 0
7, 74928, Note_on_c, 5, 64, 85
7, 74947, Note_on_c, 5, 64, 0
7, 74976, Note_on_c, 5, 64, 85
7, 74995, Note_on_c, 5, 64, 0
7, 75024, Note_on_c, 5, 71, 85
7, 75082, Note_on_c, 5, 71, 0
7, 75088, Note_on_c, 5, 64, 85
7, 75101, Note_on_c, 5, 64, 0
7, 75104, Note_on_c, 5, 69, 85
7, 75117, Note_on_c, 5, 69, 0
7, 75120, Note_on_c, 5, 69, 85
7, 75139, Note_on_c, 5, 69, 0
7, 75168, Note_on_c, 5, 69, 85
7, 75187, Note_on_c, 5, 69, 0
7, 75216, Note_on_c, 5, 64, 85
7, 75274, Note_on_c, 5, 64, 0
7, 75280, Note_on_c, 5, 57, 85
7, 75293, Note_on_c, 5, 57, 0
7, 75296, Note_on_c, 5, 62, 85
7, 75309, Note_on_c, 5, 62, 0
7, 75312, Note_on_c, 5, 69, 85
7, 75331, Note_on_c, 5, 69, 0
7, 75360, Note_on_c, 5, 64, 85
7, 75379, Note_on_c, 5, 64, 0
7, 75408, Note_on_c, 5, 71, 85
7, 75427, Note_on_c, 5, 71, 0
7, 75456, Note_on_c, 5, 69, 85
7, 75475, Note_on_c, 5, 69, 0
7, 75504, Note_on_c, 5, 73, 85
7, 75523, Note_on_c, 5, 73, 0
7, 75552, Note_on_c, 5, 66, 85
7, 75571, Note_on_c, 5, 66, 0
7, 75600, Note_on_c, 5, 74, 85
7, 75619, Note_on_c, 5, 74, 0
7, 75648, Note_on_c, 5, 73, 85
7, 75667, Note_on_c, 5, 73, 0
7, 75696, Note_on_c, 5, 76, 85
7, 75715, Note_on_c, 5, 76, 0
7, 75744, Note_on_c, 5, 69, 85
7, 75763, Note_on_c, 5, 69, 0
7, 75792, Note_on_c, 5, 66, 85
7, 75811, Note_on_c, 5, 66, 0
7, 75840, Note_on_c, 5, 71, 85
7, 75859, Note_on_c, 5, 71, 0
7, 75888, Note_on_c, 5, 69, 85
7, 75907, Note_on_c, 5, 69, 0
7, 75936, Note_on_c, 5, 74, 85
7, 75955, Note_on_c, 5, 74, 0
7, 75984, Note_on_c, 5, 68, 85
7, 76003, Note_on_c, 5, 68, 0
7, 76032, Note_on_c, 5, 69, 85
7, 76045, Note_on_c, 5, 69, 0
7, 76048, Note_on_c, 5, 68, 85
7, 76061, Note_on_c, 5, 68, 0
7, 76064, Note_on_c, 5, 66, 85
7, 76077, Note_on_c, 5, 66, 0
7, 76080, Note_on_c, 5, 64, 85
7, 76093, Note_on_c, 5, 64, 0
7, 76096, Note_on_c, 5, 66, 85
7, 76109, Note_on_c, 5, 66, 0
7, 76112, Note_on_c, 5, 68, 85
7, 76125, Note_on_c, 5, 68, 0
7, 76128, Note_on_c, 5, 66, 85
7, 76167, Note_on_c, 5, 66, 0
7, 76200, Note_on_c, 5, 71, 85
7, 76219, Note_on_c, 5, 71, 0
7, 76224, Note_on_c, 5, 71, 85
7, 76253, Note_on_c, 5, 71, 0
7, 76260, Note_on_c, 5, 68, 85
7, 76270, Note_on_c, 5, 68, 0
7, 76272, Note_on_c, 5, 69, 85
7, 76301, Note_on_c, 5, 69, 0
7, 76308, Note_on_c, 5, 57, 85
7, 76318, Note_on_c, 5, 57, 0
7, 76320, Note_on_c, 5, 64, 85
7, 76339, Note_on_c, 5, 64, 0
7, 76368, Note_on_c, 5, 64, 85
7, 76387, Note_on_c, 5, 64, 0
7, 76416, Note_on_c, 5, 64, 85
7, 76445, Note_on_c, 5, 64, 0
7, 76452, Note_on_c, 5, 64, 85
7, 76462, Note_on_c, 5, 64, 0
7, 76464, Note_on_c, 5, 69, 85
7, 76493, Note_on_c, 5, 69, 0
7, 76500, Note_on_c, 5, 64, 85
7, 76510, Note_on_c, 5, 64, 0
7, 76512, Note_on_c, 5, 64, 85
7, 76522, Note_on_c, 5, 64, 0
7, 76524, Note_on_c, 5, 66, 85
7, 76641, Note_on_c, 5, 66, 0
7, 76644, Note_on_c, 5, 66, 85
7, 76654, Note_on_c, 5, 66, 0
7, 76656, Note_on_c, 5, 67, 85
7, 76669, Note_on_c, 5, 67, 0
7, 76672, Note_on_c, 5, 64, 85
7, 76685, Note_on_c, 5, 64, 0
7, 76688, Note_on_c, 5, 66, 85
7, 76701, Note_on_c, 5, 66, 0
7, 76704, Note_on_c, 5, 66, 85
7, 76714, Note_on_c, 5, 66, 0
7, 76716, Note_on_c, 5, 64, 85
7, 76836, Note_on_c, 5, 64, 0
7, 76836, Note_on_c, 5, 64, 85
7, 76846, Note_on_c, 5, 64, 0
7, 76848, Note_on_c, 5, 69, 85
7, 76878, Note_on_c, 5, 69, 0
7, 76884, Note_on_c, 5, 66, 85
7, 76894, Note_on_c, 5, 66, 0
7, 76896, Note_on_c, 5, 64, 85
7, 76906, Note_on_c, 5, 64, 0
7, 76908, Note_on_c, 5, 62, 85
7, 77008, Note_on_c, 5, 64, 85
7, 77024, Note_on_c, 5, 64, 0
7, 77024, Note_on_c, 5, 66, 85
7, 77040, Note_on_c, 5, 66, 0
7, 77040, Note_on_c, 5, 62, 0
7, 77040, Note_on_c, 5, 64, 85
7, 77056, Note_on_c, 5, 64, 0
7, 77056, Note_on_c, 5, 66, 85
7, 77072, Note_on_c, 5, 66, 0
7, 77072, Note_on_c, 5, 62, 85
7, 77088, Note_on_c, 5, 62, 0
7, 77088, Note_on_c, 5, 61, 85
7, 77112, Note_on_c, 5, 61, 0
7, 77316, Note_on_c, 5, 71, 85
7, 77328, Note_on_c, 5, 71, 0
7, 77328, Note_on_c, 5, 76, 85
7, 77364, Note_on_c, 5, 76, 0
7, 77364, Note_on_c, 5, 71, 72
7, 77376, Note_on_c, 5, 71, 0
7, 77376, Note_on_c, 5, 72, 61
7, 77392, Note_on_c, 5, 72, 0
7, 77392, Note_on_c, 5, 71, 70
7, 77408, Note_on_c, 5, 71, 0
7, 77408, Note_on_c, 5, 69, 85
7, 77424, Note_on_c, 5, 69, 0
7, 77424, Note_on_c, 5, 67, 84
7, 77440, Note_on_c, 5, 67, 0
7, 77440, Note_on_c, 5, 69, 76
7, 77456, Note_on_c, 5, 69, 0
7, 77456, Note_on_c, 5, 71, 85
7, 77472, Note_on_c, 5, 71, 0
7, 77472, Note_on_c, 5, 64, 85
7, 77496, Note_on_c, 5, 64, 0
7, 77700, Note_on_c, 5, 66, 62
7, 77712, Note_on_c, 5, 66, 0
7, 77712, Note_on_c, 5, 71, 56
7, 77748, Note_on_c, 5, 71, 0
7, 77748, Note_on_c, 5, 66, 66
7, 77760, Note_on_c, 5, 66, 0
7, 77760, Note_on_c, 5, 67, 79
7, 77776, Note_on_c, 5, 67, 0
7, 77776, Note_on_c, 5, 66, 56
7, 77792, Note_on_c, 5, 66, 0
7, 77792, Note_on_c, 5, 64, 76
7, 77808, Note_on_c, 5, 64, 0
7, 77808, Note_on_c, 5, 62, 85
7, 77824, Note_on_c, 5, 62, 0
7, 77824, Note_on_c, 5, 64, 85
7, 77840, Note_on_c, 5, 64, 0
7, 77840, Note_on_c, 5, 66, 62
7, 77856, Note_on_c, 5, 66, 0
7, 77856, Note_on_c, 5, 59, 62
7, 77875, Note_on_c, 5, 59, 0
7, 79248, Note_on_c, 5, 54, 85
7, 79296, Note_on_c, 5, 54, 0
7, 79296, Note_on_c, 5, 59, 85
7, 79344, Note_on_c, 5, 59, 0
7, 79440, Note_on_c, 5, 52, 85
7, 79488, Note_on_c, 5, 52, 0
7, 79488, Note_on_c, 5, 57, 85
7, 79536, Note_on_c, 5, 57, 0
7, 79620, Note_on_c, 5, 69, 66
7, 79630, Note_on_c, 5, 69, 0
7, 79632, Note_on_c, 5, 74, 74
7, 79661, Note_on_c, 5, 74, 0
7, 79668, Note_on_c, 5, 69, 85
7, 79678, Note_on_c, 5, 69, 0
7, 79680, Note_on_c, 5, 71, 74
7, 79693, Note_on_c, 5, 71, 0
7, 79696, Note_on_c, 5, 69, 85
7, 79709, Note_on_c, 5, 69, 0
7, 79712, Note_on_c, 5, 67, 85
7, 79725, Note_on_c, 5, 67, 0
7, 79728, Note_on_c, 5, 66, 56
7, 79741, Note_on_c, 5, 66, 0
7, 79744, Note_on_c, 5, 67, 85
7, 79757, Note_on_c, 5, 67, 0
7, 79760, Note_on_c, 5, 69, 85
7, 79773, Note_on_c, 5, 69, 0
7, 79776, Note_on_c, 5, 62, 72
7, 79815, Note_on_c, 5, 62, 0
7, 80004, Note_on_c, 5, 64, 72
7, 80014, Note_on_c, 5, 64, 0
7, 80016, Note_on_c, 5, 69, 72
7, 80045, Note_on_c, 5, 69, 0
7, 80052, Note_on_c, 5, 64, 82
7, 80062, Note_on_c, 5, 64, 0
7, 80064, Note_on_c, 5, 66, 56
7, 80077, Note_on_c, 5, 66, 0
7, 80080, Note_on_c, 5, 64, 70
7, 80093, Note_on_c, 5, 64, 0
7, 80096, Note_on_c, 5, 62, 85
7, 80109, Note_on_c, 5, 62, 0
7, 80112, Note_on_c, 5, 61, 56
7, 80125, Note_on_c, 5, 61, 0
7, 80128, Note_on_c, 5, 62, 85
7, 80141, Note_on_c, 5, 62, 0
7, 80144, Note_on_c, 5, 64, 85
7, 80157, Note_on_c, 5, 64, 0
7, 80160, Note_on_c, 5, 57, 77
7, 80199, Note_on_c, 5, 57, 0
7, 80388, Note_on_c, 5, 64, 85
7, 80400, Note_on_c, 5, 64, 0
7, 80400, Note_on_c, 5, 69, 85
7, 80436, Note_on_c, 5, 69, 0
7, 80436, Note_on_c, 5, 64, 85
7, 80448, Note_on_c, 5, 64, 0
7, 80560, Note_on_c, 5, 61, 56
7, 80573, Note_on_c, 5, 61, 0
7, 80576, Note_on_c, 5, 62, 78
7, 80589, Note_on_c, 5, 62, 0
7, 80592, Note_on_c, 5, 64, 85
7, 80605, Note_on_c, 5, 64, 0
7, 80608, Note_on_c, 5, 61, 56
7, 80621, Note_on_c, 5, 61, 0
7, 80624, Note_on_c, 5, 62, 85
7, 80637, Note_on_c, 5, 62, 0
7, 80640, Note_on_c, 5, 57, 85
7, 80664, Note_on_c, 5, 57, 0
7, 81216, Note_on_c, 5, 65, 85
7, 81240, Note_on_c, 5, 65, 0
7, 81312, Note_on_c, 5, 61, 85
7, 81336, Note_on_c, 5, 61, 0
7, 81408, Note_on_c, 5, 71, 85
7, 81432, Note_on_c, 5, 71, 0
7, 81504, Note_on_c, 5, 69, 85
7, 81528, Note_on_c, 5, 69, 0
7, 81600, Note_on_c, 5, 66, 85
7, 81624, Note_on_c, 5, 66, 0
7, 81696, Note_on_c, 5, 61, 85
7, 81720, Note_on_c, 5, 61, 0
7, 83460, Note_on_c, 5, 59, 85
7, 83472, Note_on_c, 5, 59, 0
7, 83472, Note_on_c, 5, 66, 85
7, 83508, Note_on_c, 5, 66, 0
7, 83508, Note_on_c, 5, 61, 85
7, 83520, Note_on_c, 5, 61, 0
7, 83520, Note_on_c, 5, 62, 85
7, 83536, Note_on_c, 5, 62, 0
7, 83536, Note_on_c, 5, 61, 85
7, 83552, Note_on_c, 5, 61, 0
7, 83552, Note_on_c, 5, 59, 85
7, 83568, Note_on_c, 5, 59, 0
7, 83568, Note_on_c, 5, 58, 85
7, 83584, Note_on_c, 5, 58, 0
7, 83584, Note_on_c, 5, 59, 85
7, 83600, Note_on_c, 5, 59, 0
7, 83600, Note_on_c, 5, 61, 85
7, 83616, Note_on_c, 5, 61, 0
7, 83616, Note_on_c, 5, 57, 85
7, 83652, Note_on_c, 5, 57, 0
7, 83652, Note_on_c, 5, 66, 85
7, 83664, Note_on_c, 5, 66, 0
7, 83664, Note_on_c, 5, 66, 85
7, 83680, Note_on_c, 5, 66, 0
7, 83680, Note_on_c, 5, 62, 85
7, 83696, Note_on_c, 5, 62, 0
7, 83696, Note_on_c, 5, 64, 85
7, 83712, Note_on_c, 5, 64, 0
7, 83712, Note_on_c, 5, 66, 85
7, 83728, Note_on_c, 5, 66, 0
7, 83728, Note_on_c, 5, 64, 85
7, 83744, Note_on_c, 5, 64, 0
7, 83744, Note_on_c, 5, 62, 85
7, 83760, Note_on_c, 5, 62, 0
7, 83760, Note_on_c, 5, 64, 85
7, 83776, Note_on_c, 5, 64, 0
7, 83776, Note_on_c, 5, 62, 85
7, 83792, Note_on_c, 5, 62, 0
7, 83792, Note_on_c, 5, 61, 85
7, 83808, Note_on_c, 5, 61, 0
7, 83808, Note_on_c, 5, 59, 85
7, 83832, Note_on_c, 5, 59, 0
7, 84324, Note_on_c, 5, 67, 85
7, 84336, Note_on_c, 5, 67, 0
7, 84336, Note_on_c, 5, 66, 85
7, 84372, Note_on_c, 5, 66, 0
7, 84372, Note_on_c, 5, 64, 85
7, 84384, Note_on_c, 5, 64, 0
7, 84384, Note_on_c, 5, 62, 85
7, 84408, Note_on_c, 5, 62, 0
7, 84432, Note_on_c, 5, 66, 85
7, 84456, Note_on_c, 5, 66, 0
7, 84480, Note_on_c, 5, 62, 85
7, 84528, Note_on_c, 5, 62, 0
7, 87300, Note_on_c, 5, 69, 95
7, 87312, Note_on_c, 5, 69, 0
7, 87312, Note_on_c, 5, 74, 95
7, 87348, Note_on_c, 5, 74, 0
7, 87348, Note_on_c, 5, 69, 95
7, 87360, Note_on_c, 5, 69, 0
7, 87360, Note_on_c, 5, 71, 95
7, 87376, Note_on_c, 5, 71, 0
7, 87376, Note_on_c, 5, 69, 95
7, 87392, Note_on_c, 5, 69, 0
7, 87392, Note_on_c, 5, 67, 95
7, 87408, Note_on_c, 5, 67, 0
7, 87408, Note_on_c, 5, 66, 95
7, 87424, Note_on_c, 5, 66, 0
7, 87424, Note_on_c, 5, 67, 95
7, 87440, Note_on_c, 5, 67, 0
7, 87440, Note_on_c, 5, 69, 95
7, 87456, Note_on_c, 5, 69, 0
7, 87456, Note_on_c, 5, 62, 95
7, 87480, Note_on_c, 5, 62, 0
7, 87504, Note_on_c, 5, 64, 95
7, 87528, Note_on_c, 5, 64, 0
7, 87552, Note_on_c, 5, 57, 95
7, 87576, Note_on_c, 5, 57, 0
7, 87600, Note_on_c, 5, 64, 95
7, 87624, Note_on_c, 5, 64, 0
7, 87648, Note_on_c, 5, 61, 95
7, 87664, Note_on_c, 5, 61, 0
7, 87664, Note_on_c, 5, 62, 95
7, 87680, Note_on_c, 5, 62, 0
7, 87680, Note_on_c, 5, 64, 95
7, 87696, Note_on_c, 5, 64, 0
7, 87696, Note_on_c, 5, 66, 95
7, 87712, Note_on_c, 5, 66, 0
7, 87712, Note_on_c, 5, 67, 95
7, 87728, Note_on_c, 5, 67, 0
7, 87728, Note_on_c, 5, 69, 95
7, 87744, Note_on_c, 5, 69, 0
7, 87744, Note_on_c, 5, 62, 95
7, 87768, Note_on_c, 5, 62, 0
7, 87792, Note_on_c, 5, 69, 95
7, 87816, Note_on_c, 5, 69, 0
7, 87840, Note_on_c, 5, 66, 95
7, 87864, Note_on_c, 5, 66, 0
7, 87888, Note_on_c, 5, 69, 95
7, 87904, Note_on_c, 5, 69, 0
7, 87904, Note_on_c, 5, 67, 95
7, 87920, Note_on_c, 5, 67, 0
7, 87920, Note_on_c, 5, 69, 95
7, 87936, Note_on_c, 5, 69, 0
7, 87936, Note_on_c, 5, 66, 95
7, 87952, Note_on_c, 5, 66, 0
7, 87952, Note_on_c, 5, 64, 95
7, 87968, Note_on_c, 5, 64, 0
7, 87968, Note_on_c, 5, 62, 95
7, 87984, Note_on_c, 5, 62, 0
7, 87984, Note_on_c, 5, 69, 95
7, 88008, Note_on_c, 5, 69, 0
7, 88032, Note_on_c, 5, 69, 95
7, 88056, Note_on_c, 5, 69, 0
7, 88080, Note_on_c, 5, 61, 95
7, 88104, Note_on_c, 5, 61, 0
7, 88128, Note_on_c, 5, 62, 95
7, 88152, Note_on_c, 5, 62, 0
7, 88176, Note_on_c, 5, 64, 95
7, 88200, Note_on_c, 5, 64, 0
7, 88224, Note_on_c, 5, 66, 95
7, 88260, Note_on_c, 5, 66, 0
7, 88260, Note_on_c, 5, 73, 95
7, 88272, Note_on_c, 5, 73, 0
7, 88272, Note_on_c, 5, 69, 95
7, 88308, Note_on_c, 5, 69, 0
7, 88308, Note_on_c, 5, 67, 95
7, 88320, Note_on_c, 5, 67, 0
7, 88320, Note_on_c, 5, 66, 95
7, 88356, Note_on_c, 5, 66, 0
7, 88356, Note_on_c, 5, 67, 95
7, 88368, Note_on_c, 5, 67, 0
7, 88368, Note_on_c, 5, 69, 95
7, 88404, Note_on_c, 5, 69, 0
7, 88404, Note_on_c, 5, 69, 95
7, 88416, Note_on_c, 5, 69, 0
7, 88416, Note_on_c, 5, 69, 95
7, 88440, Note_on_c, 5, 69, 0
7, 88464, Note_on_c, 5, 67, 95
7, 88488, Note_on_c, 5, 67, 0
7, 88512, Note_on_c, 5, 66, 95
7, 88536, Note_on_c, 5, 66, 0
7, 88560, Note_on_c, 5, 62, 85
7, 88584, Note_on_c, 5, 62, 0
7, 88608, Note_on_c, 5, 62, 77
7, 88632, Note_on_c, 5, 62, 0
7, 88656, Note_on_c, 5, 69, 85
7, 88680, Note_on_c, 5, 69, 0
7, 88704, Note_on_c, 5, 66, 68
7, 88728, Note_on_c, 5, 66, 0
7, 88752, Note_on_c, 5, 64, 57
7, 88768, Note_on_c, 5, 64, 0
7, 88768, Note_on_c, 5, 61, 56
7, 88784, Note_on_c, 5, 61, 0
7, 88784, Note_on_c, 5, 57, 59
7, 88800, Note_on_c, 5, 57, 0
7, 88800, Note_on_c, 5, 66, 56
7, 88816, Note_on_c, 5, 66, 0
7, 88816, Note_on_c, 5, 62, 76
7, 88832, Note_on_c, 5, 62, 0
7, 88832, Note_on_c, 5, 57, 70
7, 88848, Note_on_c, 5, 57, 0
7, 88848, Note_on_c, 5, 67, 74
7, 88864, Note_on_c, 5, 67, 0
7, 88864, Note_on_c, 5, 64, 85
7, 88880, Note_on_c, 5, 64, 0
7, 88880, Note_on_c, 5, 57, 68
7, 88896, Note_on_c, 5, 57, 0
7, 88896, Note_on_c, 5, 66, 56
7, 88920, Note_on_c, 5, 66, 0
7, 88944, Note_on_c, 5, 62, 72
7, 88968, Note_on_c, 5, 62, 0
7, 88992, Note_on_c, 5, 66, 56
7, 89016, Note_on_c, 5, 66, 0
7, 89040, Note_on_c, 5, 66, 64
7, 89064, Note_on_c, 5, 66, 0
7, 89088, Note_on_c, 5, 64, 85
7, 89112, Note_on_c, 5, 64, 0
7, 89136, Note_on_c, 5, 66, 66
7, 89172, Note_on_c, 5, 66, 0
7, 89172, Note_on_c, 5, 64, 85
7, 89184, Note_on_c, 5, 64, 0
7, 89184, Note_on_c, 5, 62, 85
7, 89220, Note_on_c, 5, 62, 0
7, 89220, Note_on_c, 5, 67, 85
7, 89232, Note_on_c, 5, 67, 0
7, 89232, Note_on_c, 5, 64, 85
7, 89268, Note_on_c, 5, 64, 0
7, 89268, Note_on_c, 5, 57, 85
7, 89280, Note_on_c, 5, 57, 0
7, 89280, Note_on_c, 5, 57, 85
7, 89304, Note_on_c, 5, 57, 0
7, 89328, Note_on_c, 5, 62, 85
7, 89352, Note_on_c, 5, 62, 0
7, 89376, Note_on_c, 5, 62, 85
7, 89400, Note_on_c, 5, 62, 0
7, 89424, Note_on_c, 5, 66, 85
7, 89448, Note_on_c, 5, 66, 0
7, 89472, Note_on_c, 5, 59, 85
7, 89664, Note_on_c, 5, 59, 0
7, 89664, Note_on_c, 5, 57, 85
7, 89791, Note_on_c, 5, 57, 0
7, 89856, Note_on_c, 5, 64, 85
7, 90048, Note_on_c, 5, 64, 0
7, 90048, Note_on_c, 5, 64, 85
7, 90072, Note_on_c, 5, 64, 0
7, 90096, Note_on_c, 5, 66, 85
7, 90120, Note_on_c, 5, 66, 0
7, 90144, Note_on_c, 5, 66, 85
7, 90168, Note_on_c, 5, 66, 0
7, 90192, Note_on_c, 5, 64, 85
7, 90216, Note_on_c, 5, 64, 0
7, 90240, Note_on_c, 5, 64, 85
7, 90264, Note_on_c, 5, 64, 0
7, 90288, Note_on_c, 5, 62, 85
7, 90312, Note_on_c, 5, 62, 0
7, 90336, Note_on_c, 5, 62, 85
7, 90384, Note_on_c, 5, 62, 0
7, 90468, Note_on_c, 5, 69, 85
7, 90476, Note_on_c, 5, 69, 0
7, 90480, Note_on_c, 5, 66, 65
7, 90504, Note_on_c, 5, 66, 0
7, 90516, Note_on_c, 5, 64, 85
7, 90524, Note_on_c, 5, 64, 0
7, 90528, Note_on_c, 5, 62, 85
7, 90539, Note_on_c, 5, 62, 0
7, 90544, Note_on_c, 5, 61, 66
7, 90555, Note_on_c, 5, 61, 0
7, 90560, Note_on_c, 5, 59, 85
7, 90571, Note_on_c, 5, 59, 0
7, 90576, Note_on_c, 5, 64, 76
7, 90587, Note_on_c, 5, 64, 0
7, 90592, Note_on_c, 5, 66, 68
7, 90603, Note_on_c, 5, 66, 0
7, 90608, Note_on_c, 5, 67, 85
7, 90619, Note_on_c, 5, 67, 0
7, 90624, Note_on_c, 5, 66, 56
7, 90648, Note_on_c, 5, 66, 0
7, 90660, Note_on_c, 5, 69, 85
7, 90668, Note_on_c, 5, 69, 0
7, 90672, Note_on_c, 5, 74, 85
7, 90696, Note_on_c, 5, 74, 0
7, 90708, Note_on_c, 5, 69, 71
7, 90716, Note_on_c, 5, 69, 0
7, 90720, Note_on_c, 5, 71, 74
7, 90731, Note_on_c, 5, 71, 0
7, 90736, Note_on_c, 5, 69, 85
7, 90747, Note_on_c, 5, 69, 0
7, 90752, Note_on_c, 5, 67, 81
7, 90763, Note_on_c, 5, 67, 0
7, 90768, Note_on_c, 5, 66, 56
7, 90779, Note_on_c, 5, 66, 0
7, 90784, Note_on_c, 5, 67, 79
7, 90795, Note_on_c, 5, 67, 0
7, 90800, Note_on_c, 5, 69, 85
7, 90811, Note_on_c, 5, 69, 0
7, 90816, Note_on_c, 5, 62, 85
7, 90832, Note_on_c, 5, 62, 0
7, 90864, Note_on_c, 5, 62, 85
7, 90880, Note_on_c, 5, 62, 0
7, 90912, Note_on_c, 5, 62, 70
7, 90923, Note_on_c, 5, 62, 0
7, 90928, Note_on_c, 5, 60, 72
7, 90939, Note_on_c, 5, 60, 0
7, 90944, Note_on_c, 5, 59, 85
7, 90955, Note_on_c, 5, 59, 0
7, 90960, Note_on_c, 5, 57, 85
7, 90971, Note_on_c, 5, 57, 0
7, 90976, Note_on_c, 5, 59, 85
7, 90987, Note_on_c, 5, 59, 0
7, 90992, Note_on_c, 5, 61, 71
7, 91003, Note_on_c, 5, 61, 0
7, 91008, Note_on_c, 5, 59, 85
7, 91019, Note_on_c, 5, 59, 0
7, 91024, Note_on_c, 5, 62, 71
7, 91035, Note_on_c, 5, 62, 0
7, 91040, Note_on_c, 5, 61, 56
7, 91051, Note_on_c, 5, 61, 0
7, 91056, Note_on_c, 5, 59, 85
7, 91067, Note_on_c, 5, 59, 0
7, 91072, Note_on_c, 5, 62, 85
7, 91083, Note_on_c, 5, 62, 0
7, 91088, Note_on_c, 5, 61, 68
7, 91099, Note_on_c, 5, 61, 0
7, 91104, Note_on_c, 5, 59, 85
7, 91169, Note_on_c, 5, 59, 0
7, 91216, Note_on_c, 5, 56, 64
7, 91227, Note_on_c, 5, 56, 0
7, 91232, Note_on_c, 5, 57, 85
7, 91243, Note_on_c, 5, 57, 0
7, 91248, Note_on_c, 5, 59, 85
7, 91259, Note_on_c, 5, 59, 0
7, 91264, Note_on_c, 5, 56, 64
7, 91275, Note_on_c, 5, 56, 0
7, 91280, Note_on_c, 5, 57, 85
7, 91291, Note_on_c, 5, 57, 0
7, 91296, Note_on_c, 5, 59, 85
7, 91368, Note_on_c, 5, 59, 0
7, 91380, Note_on_c, 5, 68, 85
7, 91392, Note_on_c, 5, 68, 0
7, 91392, Note_on_c, 5, 69, 85
7, 91428, Note_on_c, 5, 69, 0
7, 91428, Note_on_c, 5, 61, 85
7, 91440, Note_on_c, 5, 61, 0
7, 91440, Note_on_c, 5, 69, 85
7, 91464, Note_on_c, 5, 69, 0
7, 91524, Note_on_c, 5, 66, 85
7, 91536, Note_on_c, 5, 66, 0
7, 91536, Note_on_c, 5, 71, 85
7, 91560, Note_on_c, 5, 71, 0
7, 91620, Note_on_c, 5, 69, 85
7, 91632, Note_on_c, 5, 69, 0
7, 91632, Note_on_c, 5, 73, 85
7, 91656, Note_on_c, 5, 73, 0
7, 91728, Note_on_c, 5, 62, 85
7, 91752, Note_on_c, 5, 62, 0
7, 91776, Note_on_c, 5, 62, 85
7, 91800, Note_on_c, 5, 62, 0
7, 91824, Note_on_c, 5, 69, 85
7, 91848, Note_on_c, 5, 69, 0
7, 91872, Note_on_c, 5, 66, 85
7, 91908, Note_on_c, 5, 66, 0
7, 91908, Note_on_c, 5, 67, 85
7, 91920, Note_on_c, 5, 67, 0
7, 91920, Note_on_c, 5, 64, 85
7, 91956, Note_on_c, 5, 64, 0
7, 91956, Note_on_c, 5, 66, 85
7, 91968, Note_on_c, 5, 66, 0
7, 91968, Note_on_c, 5, 66, 85
7, 92064, Note_on_c, 5, 66, 0
7, 92064, End_track
8, 0, Start_track
8, 0, MIDI_port, 0
8, 0, Title_t, "Cello"
8, 0, Program_c, 6, 42
8, 0, Control_c, 6, 7, 112
8, 0, Control_c, 6, 10, 112
8, 0, Control_c, 6, 121, 0
8, 0, Control_c, 6, 91, 127
8, 0, Control_c, 6, 93, 0
8, 0, Note_on_c, 6, 50, 95
8, 48, Note_on_c, 6, 50, 0
8, 72, Note_on_c, 6, 50, 95
8, 96, Note_on_c, 6, 50, 0
8, 96, Note_on_c, 6, 57, 95
8, 120, Note_on_c, 6, 57, 0
8, 120, Note_on_c, 6, 59, 95
8, 144, Note_on_c, 6, 59, 0
8, 144, Note_on_c, 6, 61, 95
8, 168, Note_on_c, 6, 61, 0
8, 168, Note_on_c, 6, 57, 95
8, 192, Note_on_c, 6, 57, 0
8, 192, Note_on_c, 6, 54, 95
8, 216, Note_on_c, 6, 54, 0
8, 216, Note_on_c, 6, 52, 95
8, 240, Note_on_c, 6, 52, 0
8, 240, Note_on_c, 6, 54, 95
8, 264, Note_on_c, 6, 54, 0
8, 264, Note_on_c, 6, 50, 95
8, 288, Note_on_c, 6, 50, 0
8, 288, Note_on_c, 6, 57, 95
8, 312, Note_on_c, 6, 57, 0
8, 312, Note_on_c, 6, 59, 95
8, 336, Note_on_c, 6, 59, 0
8, 336, Note_on_c, 6, 61, 95
8, 360, Note_on_c, 6, 61, 0
8, 360, Note_on_c, 6, 57, 95
8, 384, Note_on_c, 6, 57, 0
8, 384, Note_on_c, 6, 62, 95
8, 408, Note_on_c, 6, 62, 0
8, 408, Note_on_c, 6, 61, 95
8, 432, Note_on_c, 6, 61, 0
8, 432, Note_on_c, 6, 59, 95
8, 456, Note_on_c, 6, 59, 0
8, 456, Note_on_c, 6, 57, 95
8, 480, Note_on_c, 6, 57, 0
8, 480, Note_on_c, 6, 55, 95
8, 504, Note_on_c, 6, 55, 0
8, 504, Note_on_c, 6, 54, 95
8, 528, Note_on_c, 6, 54, 0
8, 528, Note_on_c, 6, 52, 95
8, 552, Note_on_c, 6, 52, 0
8, 552, Note_on_c, 6, 50, 95
8, 576, Note_on_c, 6, 50, 0
8, 576, Note_on_c, 6, 49, 95
8, 600, Note_on_c, 6, 49, 0
8, 600, Note_on_c, 6, 50, 95
8, 624, Note_on_c, 6, 50, 0
8, 624, Note_on_c, 6, 43, 95
8, 648, Note_on_c, 6, 43, 0
8, 648, Note_on_c, 6, 42, 95
8, 672, Note_on_c, 6, 42, 0
8, 672, Note_on_c, 6, 40, 95
8, 696, Note_on_c, 6, 40, 0
8, 696, Note_on_c, 6, 38, 95
8, 720, Note_on_c, 6, 38, 0
8, 720, Note_on_c, 6, 37, 95
8, 744, Note_on_c, 6, 37, 0
8, 744, Note_on_c, 6, 49, 95
8, 768, Note_on_c, 6, 49, 0
8, 768, Note_on_c, 6, 50, 95
8, 792, Note_on_c, 6, 50, 0
8, 792, Note_on_c, 6, 47, 95
8, 816, Note_on_c, 6, 47, 0
8, 816, Note_on_c, 6, 43, 95
8, 840, Note_on_c, 6, 43, 0
8, 840, Note_on_c, 6, 45, 95
8, 864, Note_on_c, 6, 45, 0
8, 864, Note_on_c, 6, 47, 95
8, 876, Note_on_c, 6, 47, 0
8, 876, Note_on_c, 6, 49, 95
8, 888, Note_on_c, 6, 49, 0
8, 888, Note_on_c, 6, 50, 95
8, 900, Note_on_c, 6, 50, 0
8, 900, Note_on_c, 6, 52, 95
8, 912, Note_on_c, 6, 52, 0
8, 912, Note_on_c, 6, 54, 95
8, 924, Note_on_c, 6, 54, 0
8, 924, Note_on_c, 6, 55, 95
8, 936, Note_on_c, 6, 55, 0
8, 936, Note_on_c, 6, 57, 95
8, 948, Note_on_c, 6, 57, 0
8, 948, Note_on_c, 6, 54, 95
8, 960, Note_on_c, 6, 54, 0
8, 960, Note_on_c, 6, 59, 95
8, 984, Note_on_c, 6, 59, 0
8, 984, Note_on_c, 6, 57, 95
8, 1008, Note_on_c, 6, 57, 0
8, 1008, Note_on_c, 6, 55, 95
8, 1032, Note_on_c, 6, 55, 0
8, 1032, Note_on_c, 6, 54, 95
8, 1056, Note_on_c, 6, 54, 0
8, 1056, Note_on_c, 6, 52, 95
8, 1080, Note_on_c, 6, 52, 0
8, 1080, Note_on_c, 6, 50, 95
8, 1104, Note_on_c, 6, 50, 0
8, 1104, Note_on_c, 6, 49, 95
8, 1128, Note_on_c, 6, 49, 0
8, 1128, Note_on_c, 6, 45, 95
8, 1152, Note_on_c, 6, 45, 0
8, 1152, Note_on_c, 6, 50, 95
8, 1176, Note_on_c, 6, 50, 0
8, 1176, Note_on_c, 6, 54, 95
8, 1200, Note_on_c, 6, 54, 0
8, 1200, Note_on_c, 6, 55, 95
8, 1224, Note_on_c, 6, 55, 0
8, 1224, Note_on_c, 6, 57, 95
8, 1236, Note_on_c, 6, 57, 0
8, 1236, Note_on_c, 6, 55, 95
8, 1248, Note_on_c, 6, 55, 0
8, 1248, Note_on_c, 6, 54, 95
8, 1272, Note_on_c, 6, 54, 0
8, 1272, Note_on_c, 6, 55, 95
8, 1296, Note_on_c, 6, 55, 0
8, 1320, Note_on_c, 6, 49, 95
8, 1332, Note_on_c, 6, 49, 0
8, 1332, Note_on_c, 6, 49, 95
8, 1344, Note_on_c, 6, 49, 0
8, 1344, Note_on_c, 6, 50, 95
8, 1356, Note_on_c, 6, 50, 0
8, 1356, Note_on_c, 6, 50, 95
8, 1368, Note_on_c, 6, 50, 0
8, 1368, Note_on_c, 6, 49, 95
8, 1380, Note_on_c, 6, 49, 0
8, 1380, Note_on_c, 6, 49, 95
8, 1392, Note_on_c, 6, 49, 0
8, 1392, Note_on_c, 6, 50, 95
8, 1404, Note_on_c, 6, 50, 0
8, 1404, Note_on_c, 6, 50, 95
8, 1416, Note_on_c, 6, 50, 0
8, 1416, Note_on_c, 6, 42, 95
8, 1428, Note_on_c, 6, 42, 0
8, 1428, Note_on_c, 6, 42, 95
8, 1440, Note_on_c, 6, 42, 0
8, 1440, Note_on_c, 6, 43, 95
8, 1464, Note_on_c, 6, 43, 0
8, 1464, Note_on_c, 6, 55, 95
8, 1488, Note_on_c, 6, 55, 0
8, 1488, Note_on_c, 6, 57, 95
8, 1512, Note_on_c, 6, 57, 0
8, 1512, Note_on_c, 6, 45, 95
8, 1536, Note_on_c, 6, 45, 0
8, 1536, Note_on_c, 6, 50, 95
8, 1584, Note_on_c, 6, 50, 0
8, 1824, Note_on_c, 6, 50, 56
8, 1856, Note_on_c, 6, 50, 0
8, 1872, Note_on_c, 6, 50, 56
8, 1888, Note_on_c, 6, 50, 0
8, 1920, Note_on_c, 6, 57, 56
8, 1936, Note_on_c, 6, 57, 0
8, 1944, Note_on_c, 6, 45, 56
8, 1960, Note_on_c, 6, 45, 0
8, 1968, Note_on_c, 6, 47, 56
8, 1984, Note_on_c, 6, 47, 0
8, 1992, Note_on_c, 6, 49, 56
8, 2008, Note_on_c, 6, 49, 0
8, 2016, Note_on_c, 6, 50, 56
8, 2048, Note_on_c, 6, 50, 0
8, 2304, Note_on_c, 6, 50, 56
8, 2336, Note_on_c, 6, 50, 0
8, 2376, Note_on_c, 6, 38, 56
8, 2392, Note_on_c, 6, 38, 0
8, 2400, Note_on_c, 6, 45, 56
8, 2432, Note_on_c, 6, 45, 0
8, 3456, Note_on_c, 6, 57, 95
8, 3504, Note_on_c, 6, 57, 0
8, 3528, Note_on_c, 6, 45, 95
8, 3552, Note_on_c, 6, 45, 0
8, 3552, Note_on_c, 6, 52, 95
8, 3576, Note_on_c, 6, 52, 0
8, 3576, Note_on_c, 6, 54, 95
8, 3600, Note_on_c, 6, 54, 0
8, 3600, Note_on_c, 6, 56, 95
8, 3624, Note_on_c, 6, 56, 0
8, 3624, Note_on_c, 6, 52, 95
8, 3648, Note_on_c, 6, 52, 0
8, 3648, Note_on_c, 6, 49, 95
8, 3672, Note_on_c, 6, 49, 0
8, 3672, Note_on_c, 6, 47, 95
8, 3696, Note_on_c, 6, 47, 0
8, 3696, Note_on_c, 6, 49, 95
8, 3720, Note_on_c, 6, 49, 0
8, 3720, Note_on_c, 6, 45, 95
8, 3744, Note_on_c, 6, 45, 0
8, 3744, Note_on_c, 6, 52, 95
8, 3792, Note_on_c, 6, 52, 0
8, 3816, Note_on_c, 6, 52, 95
8, 3840, Note_on_c, 6, 52, 0
8, 3840, Note_on_c, 6, 57, 56
8, 3888, Note_on_c, 6, 57, 0
8, 3912, Note_on_c, 6, 45, 56
8, 3936, Note_on_c, 6, 45, 0
8, 3936, Note_on_c, 6, 50, 56
8, 3984, Note_on_c, 6, 50, 0
8, 4008, Note_on_c, 6, 50, 56
8, 4032, Note_on_c, 6, 50, 0
8, 4032, Note_on_c, 6, 47, 56
8, 4080, Note_on_c, 6, 47, 0
8, 4152, Note_on_c, 6, 52, 56
8, 4176, Note_on_c, 6, 52, 0
8, 4176, Note_on_c, 6, 57, 56
8, 4200, Note_on_c, 6, 57, 0
8, 4200, Note_on_c, 6, 49, 56
8, 4224, Note_on_c, 6, 49, 0
8, 4224, Note_on_c, 6, 54, 56
8, 4272, Note_on_c, 6, 54, 0
8, 4296, Note_on_c, 6, 42, 56
8, 4320, Note_on_c, 6, 42, 0
8, 4320, Note_on_c, 6, 47, 56
8, 4368, Note_on_c, 6, 47, 0
8, 4392, Note_on_c, 6, 47, 56
8, 4416, Note_on_c, 6, 47, 0
8, 4416, Note_on_c, 6, 44, 56
8, 4464, Note_on_c, 6, 44, 0
8, 4536, Note_on_c, 6, 49, 56
8, 4560, Note_on_c, 6, 49, 0
8, 4560, Note_on_c, 6, 54, 56
8, 4584, Note_on_c, 6, 54, 0
8, 4584, Note_on_c, 6, 45, 56
8, 4608, Note_on_c, 6, 45, 0
8, 4608, Note_on_c, 6, 50, 56
8, 4656, Note_on_c, 6, 50, 0
8, 4680, Note_on_c, 6, 50, 56
8, 4704, Note_on_c, 6, 50, 0
8, 4704, Note_on_c, 6, 55, 56
8, 4752, Note_on_c, 6, 55, 0
8, 4776, Note_on_c, 6, 55, 56
8, 4800, Note_on_c, 6, 55, 0
8, 4800, Note_on_c, 6, 52, 56
8, 4848, Note_on_c, 6, 52, 0
8, 4920, Note_on_c, 6, 52, 56
8, 4944, Note_on_c, 6, 52, 0
8, 4944, Note_on_c, 6, 57, 56
8, 4968, Note_on_c, 6, 57, 0
8, 4968, Note_on_c, 6, 45, 56
8, 4992, Note_on_c, 6, 45, 0
8, 4992, Note_on_c, 6, 50, 56
8, 5016, Note_on_c, 6, 50, 0
8, 5352, Note_on_c, 6, 52, 95
8, 5376, Note_on_c, 6, 52, 0
8, 5376, Note_on_c, 6, 57, 95
8, 5392, Note_on_c, 6, 57, 0
8, 5400, Note_on_c, 6, 56, 95
8, 5416, Note_on_c, 6, 56, 0
8, 5424, Note_on_c, 6, 54, 95
8, 5440, Note_on_c, 6, 54, 0
8, 5448, Note_on_c, 6, 52, 95
8, 5464, Note_on_c, 6, 52, 0
8, 5472, Note_on_c, 6, 50, 95
8, 5488, Note_on_c, 6, 50, 0
8, 5496, Note_on_c, 6, 49, 95
8, 5512, Note_on_c, 6, 49, 0
8, 5520, Note_on_c, 6, 47, 95
8, 5536, Note_on_c, 6, 47, 0
8, 5544, Note_on_c, 6, 45, 95
8, 5560, Note_on_c, 6, 45, 0
8, 5568, Note_on_c, 6, 44, 95
8, 5584, Note_on_c, 6, 44, 0
8, 5592, Note_on_c, 6, 45, 95
8, 5608, Note_on_c, 6, 45, 0
8, 5616, Note_on_c, 6, 50, 95
8, 5632, Note_on_c, 6, 50, 0
8, 5640, Note_on_c, 6, 49, 95
8, 5656, Note_on_c, 6, 49, 0
8, 5664, Note_on_c, 6, 47, 95
8, 5680, Note_on_c, 6, 47, 0
8, 5688, Note_on_c, 6, 45, 95
8, 5704, Note_on_c, 6, 45, 0
8, 5712, Note_on_c, 6, 44, 95
8, 5728, Note_on_c, 6, 44, 0
8, 5736, Note_on_c, 6, 56, 95
8, 5752, Note_on_c, 6, 56, 0
8, 5760, Note_on_c, 6, 57, 95
8, 5776, Note_on_c, 6, 57, 0
8, 5784, Note_on_c, 6, 54, 95
8, 5800, Note_on_c, 6, 54, 0
8, 5808, Note_on_c, 6, 50, 95
8, 5824, Note_on_c, 6, 50, 0
8, 5832, Note_on_c, 6, 52, 95
8, 5848, Note_on_c, 6, 52, 0
8, 5856, Note_on_c, 6, 57, 95
8, 5872, Note_on_c, 6, 57, 0
8, 5880, Note_on_c, 6, 52, 56
8, 5896, Note_on_c, 6, 52, 0
8, 5904, Note_on_c, 6, 45, 56
8, 5920, Note_on_c, 6, 45, 0
8, 5928, Note_on_c, 6, 49, 56
8, 5944, Note_on_c, 6, 49, 0
8, 5952, Note_on_c, 6, 50, 56
8, 5968, Note_on_c, 6, 50, 0
8, 5976, Note_on_c, 6, 57, 56
8, 5992, Note_on_c, 6, 57, 0
8, 6000, Note_on_c, 6, 62, 56
8, 6016, Note_on_c, 6, 62, 0
8, 6024, Note_on_c, 6, 54, 56
8, 6040, Note_on_c, 6, 54, 0
8, 6048, Note_on_c, 6, 55, 56
8, 6064, Note_on_c, 6, 55, 0
8, 6072, Note_on_c, 6, 50, 56
8, 6088, Note_on_c, 6, 50, 0
8, 6096, Note_on_c, 6, 43, 56
8, 6112, Note_on_c, 6, 43, 0
8, 6120, Note_on_c, 6, 47, 56
8, 6136, Note_on_c, 6, 47, 0
8, 6144, Note_on_c, 6, 49, 56
8, 6160, Note_on_c, 6, 49, 0
8, 6168, Note_on_c, 6, 47, 56
8, 6184, Note_on_c, 6, 47, 0
8, 6192, Note_on_c, 6, 49, 56
8, 6208, Note_on_c, 6, 49, 0
8, 6216, Note_on_c, 6, 52, 56
8, 6232, Note_on_c, 6, 52, 0
8, 6240, Note_on_c, 6, 54, 56
8, 6256, Note_on_c, 6, 54, 0
8, 6264, Note_on_c, 6, 52, 56
8, 6280, Note_on_c, 6, 52, 0
8, 6288, Note_on_c, 6, 42, 56
8, 6304, Note_on_c, 6, 42, 0
8, 6312, Note_on_c, 6, 46, 56
8, 6328, Note_on_c, 6, 46, 0
8, 6336, Note_on_c, 6, 47, 56
8, 6352, Note_on_c, 6, 47, 0
8, 6360, Note_on_c, 6, 54, 56
8, 6376, Note_on_c, 6, 54, 0
8, 6384, Note_on_c, 6, 59, 56
8, 6400, Note_on_c, 6, 59, 0
8, 6408, Note_on_c, 6, 50, 56
8, 6424, Note_on_c, 6, 50, 0
8, 6432, Note_on_c, 6, 52, 56
8, 6448, Note_on_c, 6, 52, 0
8, 6456, Note_on_c, 6, 54, 56
8, 6472, Note_on_c, 6, 54, 0
8, 6480, Note_on_c, 6, 55, 56
8, 6496, Note_on_c, 6, 55, 0
8, 6504, Note_on_c, 6, 52, 56
8, 6520, Note_on_c, 6, 52, 0
8, 6528, Note_on_c, 6, 54, 56
8, 6544, Note_on_c, 6, 54, 0
8, 6552, Note_on_c, 6, 61, 56
8, 6568, Note_on_c, 6, 61, 0
8, 6576, Note_on_c, 6, 58, 56
8, 6592, Note_on_c, 6, 58, 0
8, 6600, Note_on_c, 6, 54, 56
8, 6616, Note_on_c, 6, 54, 0
8, 6624, Note_on_c, 6, 47, 56
8, 6632, Note_on_c, 6, 47, 0
8, 6636, Note_on_c, 6, 47, 56
8, 6644, Note_on_c, 6, 47, 0
8, 6648, Note_on_c, 6, 50, 56
8, 6656, Note_on_c, 6, 50, 0
8, 6660, Note_on_c, 6, 50, 56
8, 6668, Note_on_c, 6, 50, 0
8, 6672, Note_on_c, 6, 54, 56
8, 6680, Note_on_c, 6, 54, 0
8, 6684, Note_on_c, 6, 54, 56
8, 6692, Note_on_c, 6, 54, 0
8, 6696, Note_on_c, 6, 59, 56
8, 6704, Note_on_c, 6, 59, 0
8, 6708, Note_on_c, 6, 59, 56
8, 6716, Note_on_c, 6, 59, 0
8, 6720, Note_on_c, 6, 64, 56
8, 6736, Note_on_c, 6, 64, 0
8, 6744, Note_on_c, 6, 59, 56
8, 6760, Note_on_c, 6, 59, 0
8, 6768, Note_on_c, 6, 55, 56
8, 6784, Note_on_c, 6, 55, 0
8, 6792, Note_on_c, 6, 52, 56
8, 6808, Note_on_c, 6, 52, 0
8, 6816, Note_on_c, 6, 42, 56
8, 6824, Note_on_c, 6, 42, 0
8, 6828, Note_on_c, 6, 42, 56
8, 6836, Note_on_c, 6, 42, 0
8, 6840, Note_on_c, 6, 46, 56
8, 6848, Note_on_c, 6, 46, 0
8, 6852, Note_on_c, 6, 46, 56
8, 6860, Note_on_c, 6, 46, 0
8, 6864, Note_on_c, 6, 49, 56
8, 6872, Note_on_c, 6, 49, 0
8, 6876, Note_on_c, 6, 49, 56
8, 6884, Note_on_c, 6, 49, 0
8, 6888, Note_on_c, 6, 54, 56
8, 6896, Note_on_c, 6, 54, 0
8, 6900, Note_on_c, 6, 54, 56
8, 6908, Note_on_c, 6, 54, 0
8, 6912, Note_on_c, 6, 47, 56
8, 6920, Note_on_c, 6, 47, 0
8, 6924, Note_on_c, 6, 47, 56
8, 6932, Note_on_c, 6, 47, 0
8, 6936, Note_on_c, 6, 50, 56
8, 6944, Note_on_c, 6, 50, 0
8, 6948, Note_on_c, 6, 50, 56
8, 6956, Note_on_c, 6, 50, 0
8, 6960, Note_on_c, 6, 54, 56
8, 6968, Note_on_c, 6, 54, 0
8, 6972, Note_on_c, 6, 54, 56
8, 6980, Note_on_c, 6, 54, 0
8, 6984, Note_on_c, 6, 59, 56
8, 6992, Note_on_c, 6, 59, 0
8, 6996, Note_on_c, 6, 59, 56
8, 7004, Note_on_c, 6, 59, 0
8, 7008, Note_on_c, 6, 52, 56
8, 7016, Note_on_c, 6, 52, 0
8, 7020, Note_on_c, 6, 52, 56
8, 7028, Note_on_c, 6, 52, 0
8, 7032, Note_on_c, 6, 55, 56
8, 7040, Note_on_c, 6, 55, 0
8, 7044, Note_on_c, 6, 55, 56
8, 7052, Note_on_c, 6, 55, 0
8, 7056, Note_on_c, 6, 59, 56
8, 7064, Note_on_c, 6, 59, 0
8, 7068, Note_on_c, 6, 59, 56
8, 7076, Note_on_c, 6, 59, 0
8, 7080, Note_on_c, 6, 64, 56
8, 7088, Note_on_c, 6, 64, 0
8, 7092, Note_on_c, 6, 64, 56
8, 7100, Note_on_c, 6, 64, 0
8, 7104, Note_on_c, 6, 54, 56
8, 7136, Note_on_c, 6, 54, 0
8, 7488, Note_on_c, 6, 62, 95
8, 7504, Note_on_c, 6, 62, 0
8, 7512, Note_on_c, 6, 61, 95
8, 7528, Note_on_c, 6, 61, 0
8, 7536, Note_on_c, 6, 59, 95
8, 7552, Note_on_c, 6, 59, 0
8, 7560, Note_on_c, 6, 57, 95
8, 7576, Note_on_c, 6, 57, 0
8, 7584, Note_on_c, 6, 55, 95
8, 7600, Note_on_c, 6, 55, 0
8, 7608, Note_on_c, 6, 54, 95
8, 7624, Note_on_c, 6, 54, 0
8, 7632, Note_on_c, 6, 52, 95
8, 7648, Note_on_c, 6, 52, 0
8, 7656, Note_on_c, 6, 50, 95
8, 7672, Note_on_c, 6, 50, 0
8, 7680, Note_on_c, 6, 49, 95
8, 7696, Note_on_c, 6, 49, 0
8, 7704, Note_on_c, 6, 47, 95
8, 7720, Note_on_c, 6, 47, 0
8, 7728, Note_on_c, 6, 47, 95
8, 7744, Note_on_c, 6, 47, 0
8, 7752, Note_on_c, 6, 46, 95
8, 7768, Note_on_c, 6, 46, 0
8, 7776, Note_on_c, 6, 47, 95
8, 7792, Note_on_c, 6, 47, 0
8, 7800, Note_on_c, 6, 43, 95
8, 7816, Note_on_c, 6, 43, 0
8, 7824, Note_on_c, 6, 40, 95
8, 7840, Note_on_c, 6, 40, 0
8, 7848, Note_on_c, 6, 42, 95
8, 7864, Note_on_c, 6, 42, 0
8, 7872, Note_on_c, 6, 47, 95
8, 7888, Note_on_c, 6, 47, 0
8, 8352, Note_on_c, 6, 40, 63
8, 8392, Note_on_c, 6, 40, 0
8, 8448, Note_on_c, 6, 45, 63
8, 8488, Note_on_c, 6, 45, 0
8, 8736, Note_on_c, 6, 38, 63
8, 8776, Note_on_c, 6, 38, 0
8, 8832, Note_on_c, 6, 43, 63
8, 8872, Note_on_c, 6, 43, 0
8, 9408, Note_on_c, 6, 45, 63
8, 9448, Note_on_c, 6, 45, 0
8, 9456, Note_on_c, 6, 45, 63
8, 9476, Note_on_c, 6, 45, 0
8, 9480, Note_on_c, 6, 50, 63
8, 9520, Note_on_c, 6, 50, 0
8, 9576, Note_on_c, 6, 38, 63
8, 9596, Note_on_c, 6, 38, 0
8, 9600, Note_on_c, 6, 43, 63
8, 9640, Note_on_c, 6, 43, 0
8, 9672, Note_on_c, 6, 43, 63
8, 9692, Note_on_c, 6, 43, 0
8, 9696, Note_on_c, 6, 40, 63
8, 9736, Note_on_c, 6, 40, 0
8, 9816, Note_on_c, 6, 45, 63
8, 9836, Note_on_c, 6, 45, 0
8, 9840, Note_on_c, 6, 50, 63
8, 9860, Note_on_c, 6, 50, 0
8, 9864, Note_on_c, 6, 42, 63
8, 9884, Note_on_c, 6, 42, 0
8, 9888, Note_on_c, 6, 47, 63
8, 9928, Note_on_c, 6, 47, 0
8, 9960, Note_on_c, 6, 47, 63
8, 9980, Note_on_c, 6, 47, 0
8, 9984, Note_on_c, 6, 52, 63
8, 10024, Note_on_c, 6, 52, 0
8, 10056, Note_on_c, 6, 52, 63
8, 10076, Note_on_c, 6, 52, 0
8, 10080, Note_on_c, 6, 49, 63
8, 10120, Note_on_c, 6, 49, 0
8, 10200, Note_on_c, 6, 54, 63
8, 10220, Note_on_c, 6, 54, 0
8, 10224, Note_on_c, 6, 59, 63
8, 10244, Note_on_c, 6, 59, 0
8, 10248, Note_on_c, 6, 50, 63
8, 10268, Note_on_c, 6, 50, 0
8, 10272, Note_on_c, 6, 55, 63
8, 10292, Note_on_c, 6, 55, 0
8, 10344, Note_on_c, 6, 43, 63
8, 10364, Note_on_c, 6, 43, 0
8, 10368, Note_on_c, 6, 48, 63
8, 10408, Note_on_c, 6, 48, 0
8, 10440, Note_on_c, 6, 48, 63
8, 10460, Note_on_c, 6, 48, 0
8, 10464, Note_on_c, 6, 45, 63
8, 10504, Note_on_c, 6, 45, 0
8, 10584, Note_on_c, 6, 45, 63
8, 10604, Note_on_c, 6, 45, 0
8, 10608, Note_on_c, 6, 50, 63
8, 10628, Note_on_c, 6, 50, 0
8, 10632, Note_on_c, 6, 38, 63
8, 10652, Note_on_c, 6, 38, 0
8, 10656, Note_on_c, 6, 43, 63
8, 10676, Note_on_c, 6, 43, 0
8, 11016, Note_on_c, 6, 57, 95
8, 11036, Note_on_c, 6, 57, 0
8, 11040, Note_on_c, 6, 62, 95
8, 11060, Note_on_c, 6, 62, 0
8, 11064, Note_on_c, 6, 61, 95
8, 11084, Note_on_c, 6, 61, 0
8, 11088, Note_on_c, 6, 59, 95
8, 11108, Note_on_c, 6, 59, 0
8, 11112, Note_on_c, 6, 57, 95
8, 11132, Note_on_c, 6, 57, 0
8, 11136, Note_on_c, 6, 55, 95
8, 11156, Note_on_c, 6, 55, 0
8, 11160, Note_on_c, 6, 54, 95
8, 11180, Note_on_c, 6, 54, 0
8, 11184, Note_on_c, 6, 52, 95
8, 11204, Note_on_c, 6, 52, 0
8, 11208, Note_on_c, 6, 50, 95
8, 11228, Note_on_c, 6, 50, 0
8, 11232, Note_on_c, 6, 49, 95
8, 11252, Note_on_c, 6, 49, 0
8, 11256, Note_on_c, 6, 50, 95
8, 11276, Note_on_c, 6, 50, 0
8, 11280, Note_on_c, 6, 55, 95
8, 11300, Note_on_c, 6, 55, 0
8, 11304, Note_on_c, 6, 54, 95
8, 11324, Note_on_c, 6, 54, 0
8, 11328, Note_on_c, 6, 52, 95
8, 11348, Note_on_c, 6, 52, 0
8, 11352, Note_on_c, 6, 50, 95
8, 11372, Note_on_c, 6, 50, 0
8, 11376, Note_on_c, 6, 49, 95
8, 11396, Note_on_c, 6, 49, 0
8, 11400, Note_on_c, 6, 45, 95
8, 11420, Note_on_c, 6, 45, 0
8, 11424, Note_on_c, 6, 50, 95
8, 11444, Note_on_c, 6, 50, 0
8, 11448, Note_on_c, 6, 47, 95
8, 11468, Note_on_c, 6, 47, 0
8, 11472, Note_on_c, 6, 43, 95
8, 11492, Note_on_c, 6, 43, 0
8, 11496, Note_on_c, 6, 45, 95
8, 11516, Note_on_c, 6, 45, 0
8, 11520, Note_on_c, 6, 42, 95
8, 11540, Note_on_c, 6, 42, 0
8, 12120, Note_on_c, 6, 45, 63
8, 12140, Note_on_c, 6, 45, 0
8, 12144, Note_on_c, 6, 52, 63
8, 12164, Note_on_c, 6, 52, 0
8, 12168, Note_on_c, 6, 50, 63
8, 12188, Note_on_c, 6, 50, 0
8, 12192, Note_on_c, 6, 49, 63
8, 12212, Note_on_c, 6, 49, 0
8, 12792, Note_on_c, 6, 52, 63
8, 12812, Note_on_c, 6, 52, 0
8, 12816, Note_on_c, 6, 59, 63
8, 12836, Note_on_c, 6, 59, 0
8, 12840, Note_on_c, 6, 47, 63
8, 12860, Note_on_c, 6, 47, 0
8, 12864, Note_on_c, 6, 52, 63
8, 12884, Note_on_c, 6, 52, 0
8, 13440, Note_on_c, 6, 54, 63
8, 13460, Note_on_c, 6, 54, 0
8, 13464, Note_on_c, 6, 56, 63
8, 13484, Note_on_c, 6, 56, 0
8, 13488, Note_on_c, 6, 57, 63
8, 13508, Note_on_c, 6, 57, 0
8, 13512, Note_on_c, 6, 59, 63
8, 13532, Note_on_c, 6, 59, 0
8, 13536, Note_on_c, 6, 57, 63
8, 13556, Note_on_c, 6, 57, 0
8, 13560, Note_on_c, 6, 59, 63
8, 13580, Note_on_c, 6, 59, 0
8, 13584, Note_on_c, 6, 57, 63
8, 13604, Note_on_c, 6, 57, 0
8, 13608, Note_on_c, 6, 56, 63
8, 13628, Note_on_c, 6, 56, 0
8, 13632, Note_on_c, 6, 54, 63
8, 13652, Note_on_c, 6, 54, 0
8, 13656, Note_on_c, 6, 53, 63
8, 13676, Note_on_c, 6, 53, 0
8, 13680, Note_on_c, 6, 54, 63
8, 13700, Note_on_c, 6, 54, 0
8, 13704, Note_on_c, 6, 56, 63
8, 13724, Note_on_c, 6, 56, 0
8, 13728, Note_on_c, 6, 57, 63
8, 13748, Note_on_c, 6, 57, 0
8, 13752, Note_on_c, 6, 56, 63
8, 13772, Note_on_c, 6, 56, 0
8, 13776, Note_on_c, 6, 57, 63
8, 13796, Note_on_c, 6, 57, 0
8, 13800, Note_on_c, 6, 54, 63
8, 13820, Note_on_c, 6, 54, 0
8, 13824, Note_on_c, 6, 56, 63
8, 13844, Note_on_c, 6, 56, 0
8, 13848, Note_on_c, 6, 57, 63
8, 13868, Note_on_c, 6, 57, 0
8, 13872, Note_on_c, 6, 59, 63
8, 13892, Note_on_c, 6, 59, 0
8, 13896, Note_on_c, 6, 57, 63
8, 13916, Note_on_c, 6, 57, 0
8, 13920, Note_on_c, 6, 56, 63
8, 13940, Note_on_c, 6, 56, 0
8, 13944, Note_on_c, 6, 54, 63
8, 13964, Note_on_c, 6, 54, 0
8, 13968, Note_on_c, 6, 56, 63
8, 13988, Note_on_c, 6, 56, 0
8, 13992, Note_on_c, 6, 49, 63
8, 14012, Note_on_c, 6, 49, 0
8, 14016, Note_on_c, 6, 54, 63
8, 14036, Note_on_c, 6, 54, 0
8, 14040, Note_on_c, 6, 56, 63
8, 14060, Note_on_c, 6, 56, 0
8, 14064, Note_on_c, 6, 57, 63
8, 14084, Note_on_c, 6, 57, 0
8, 14088, Note_on_c, 6, 59, 63
8, 14108, Note_on_c, 6, 59, 0
8, 14112, Note_on_c, 6, 57, 63
8, 14132, Note_on_c, 6, 57, 0
8, 14136, Note_on_c, 6, 59, 63
8, 14156, Note_on_c, 6, 59, 0
8, 14160, Note_on_c, 6, 57, 63
8, 14180, Note_on_c, 6, 57, 0
8, 14184, Note_on_c, 6, 56, 63
8, 14204, Note_on_c, 6, 56, 0
8, 14208, Note_on_c, 6, 54, 63
8, 14228, Note_on_c, 6, 54, 0
8, 14232, Note_on_c, 6, 56, 63
8, 14252, Note_on_c, 6, 56, 0
8, 14256, Note_on_c, 6, 57, 63
8, 14276, Note_on_c, 6, 57, 0
8, 14280, Note_on_c, 6, 56, 63
8, 14300, Note_on_c, 6, 56, 0
8, 14304, Note_on_c, 6, 54, 63
8, 14324, Note_on_c, 6, 54, 0
8, 14328, Note_on_c, 6, 52, 63
8, 14348, Note_on_c, 6, 52, 0
8, 14352, Note_on_c, 6, 50, 63
8, 14372, Note_on_c, 6, 50, 0
8, 14376, Note_on_c, 6, 49, 63
8, 14396, Note_on_c, 6, 49, 0
8, 14400, Note_on_c, 6, 47, 63
8, 14420, Note_on_c, 6, 47, 0
8, 14424, Note_on_c, 6, 45, 63
8, 14444, Note_on_c, 6, 45, 0
8, 14448, Note_on_c, 6, 44, 63
8, 14468, Note_on_c, 6, 44, 0
8, 14472, Note_on_c, 6, 42, 63
8, 14492, Note_on_c, 6, 42, 0
8, 14496, Note_on_c, 6, 40, 63
8, 14516, Note_on_c, 6, 40, 0
8, 14520, Note_on_c, 6, 50, 63
8, 14540, Note_on_c, 6, 50, 0
8, 14544, Note_on_c, 6, 49, 63
8, 14564, Note_on_c, 6, 49, 0
8, 14568, Note_on_c, 6, 47, 63
8, 14588, Note_on_c, 6, 47, 0
8, 14592, Note_on_c, 6, 45, 63
8, 14612, Note_on_c, 6, 45, 0
8, 14616, Note_on_c, 6, 47, 63
8, 14636, Note_on_c, 6, 47, 0
8, 14640, Note_on_c, 6, 49, 63
8, 14660, Note_on_c, 6, 49, 0
8, 14664, Note_on_c, 6, 50, 63
8, 14684, Note_on_c, 6, 50, 0
8, 14688, Note_on_c, 6, 49, 63
8, 14708, Note_on_c, 6, 49, 0
8, 14712, Note_on_c, 6, 50, 63
8, 14732, Note_on_c, 6, 50, 0
8, 14736, Note_on_c, 6, 49, 63
8, 14756, Note_on_c, 6, 49, 0
8, 14760, Note_on_c, 6, 47, 63
8, 14780, Note_on_c, 6, 47, 0
8, 14784, Note_on_c, 6, 45, 63
8, 14804, Note_on_c, 6, 45, 0
8, 14808, Note_on_c, 6, 57, 63
8, 14828, Note_on_c, 6, 57, 0
8, 14832, Note_on_c, 6, 54, 63
8, 14852, Note_on_c, 6, 54, 0
8, 14856, Note_on_c, 6, 50, 63
8, 14876, Note_on_c, 6, 50, 0
8, 14880, Note_on_c, 6, 45, 63
8, 14900, Note_on_c, 6, 45, 0
8, 14904, Note_on_c, 6, 57, 63
8, 14924, Note_on_c, 6, 57, 0
8, 14928, Note_on_c, 6, 54, 63
8, 14948, Note_on_c, 6, 54, 0
8, 14952, Note_on_c, 6, 50, 63
8, 14972, Note_on_c, 6, 50, 0
8, 14976, Note_on_c, 6, 45, 63
8, 14996, Note_on_c, 6, 45, 0
8, 15000, Note_on_c, 6, 62, 63
8, 15020, Note_on_c, 6, 62, 0
8, 15024, Note_on_c, 6, 59, 63
8, 15044, Note_on_c, 6, 59, 0
8, 15048, Note_on_c, 6, 56, 63
8, 15068, Note_on_c, 6, 56, 0
8, 15072, Note_on_c, 6, 52, 63
8, 15092, Note_on_c, 6, 52, 0
8, 15096, Note_on_c, 6, 59, 63
8, 15116, Note_on_c, 6, 59, 0
8, 15120, Note_on_c, 6, 56, 63
8, 15140, Note_on_c, 6, 56, 0
8, 15144, Note_on_c, 6, 52, 63
8, 15164, Note_on_c, 6, 52, 0
8, 15168, Note_on_c, 6, 45, 63
8, 15208, Note_on_c, 6, 45, 0
8, 15360, Note_on_c, 6, 57, 63
8, 15380, Note_on_c, 6, 57, 0
8, 15384, Note_on_c, 6, 61, 63
8, 15404, Note_on_c, 6, 61, 0
8, 15408, Note_on_c, 6, 66, 63
8, 15428, Note_on_c, 6, 66, 0
8, 15432, Note_on_c, 6, 61, 63
8, 15452, Note_on_c, 6, 61, 0
8, 15456, Note_on_c, 6, 57, 63
8, 15476, Note_on_c, 6, 57, 0
8, 15480, Note_on_c, 6, 54, 63
8, 15500, Note_on_c, 6, 54, 0
8, 15504, Note_on_c, 6, 51, 63
8, 15524, Note_on_c, 6, 51, 0
8, 15528, Note_on_c, 6, 54, 63
8, 15548, Note_on_c, 6, 54, 0
8, 15552, Note_on_c, 6, 44, 63
8, 15592, Note_on_c, 6, 44, 0
8, 15744, Note_on_c, 6, 56, 63
8, 15764, Note_on_c, 6, 56, 0
8, 15768, Note_on_c, 6, 59, 63
8, 15788, Note_on_c, 6, 59, 0
8, 15792, Note_on_c, 6, 64, 63
8, 15812, Note_on_c, 6, 64, 0
8, 15816, Note_on_c, 6, 59, 63
8, 15836, Note_on_c, 6, 59, 0
8, 15840, Note_on_c, 6, 56, 63
8, 15860, Note_on_c, 6, 56, 0
8, 15864, Note_on_c, 6, 52, 63
8, 15884, Note_on_c, 6, 52, 0
8, 15888, Note_on_c, 6, 49, 63
8, 15908, Note_on_c, 6, 49, 0
8, 15912, Note_on_c, 6, 52, 63
8, 15932, Note_on_c, 6, 52, 0
8, 15936, Note_on_c, 6, 42, 63
8, 15976, Note_on_c, 6, 42, 0
8, 16128, Note_on_c, 6, 54, 63
8, 16148, Note_on_c, 6, 54, 0
8, 16152, Note_on_c, 6, 57, 63
8, 16172, Note_on_c, 6, 57, 0
8, 16176, Note_on_c, 6, 62, 63
8, 16196, Note_on_c, 6, 62, 0
8, 16200, Note_on_c, 6, 57, 63
8, 16220, Note_on_c, 6, 57, 0
8, 16224, Note_on_c, 6, 54, 63
8, 16244, Note_on_c, 6, 54, 0
8, 16248, Note_on_c, 6, 50, 63
8, 16268, Note_on_c, 6, 50, 0
8, 16272, Note_on_c, 6, 47, 63
8, 16292, Note_on_c, 6, 47, 0
8, 16296, Note_on_c, 6, 50, 63
8, 16316, Note_on_c, 6, 50, 0
8, 16320, Note_on_c, 6, 40, 63
8, 16360, Note_on_c, 6, 40, 0
8, 16512, Note_on_c, 6, 52, 63
8, 16532, Note_on_c, 6, 52, 0
8, 16536, Note_on_c, 6, 56, 63
8, 16556, Note_on_c, 6, 56, 0
8, 16560, Note_on_c, 6, 61, 63
8, 16580, Note_on_c, 6, 61, 0
8, 16584, Note_on_c, 6, 56, 63
8, 16604, Note_on_c, 6, 56, 0
8, 16608, Note_on_c, 6, 52, 63
8, 16628, Note_on_c, 6, 52, 0
8, 16632, Note_on_c, 6, 49, 63
8, 16652, Note_on_c, 6, 49, 0
8, 16656, Note_on_c, 6, 45, 63
8, 16676, Note_on_c, 6, 45, 0
8, 16680, Note_on_c, 6, 49, 63
8, 16700, Note_on_c, 6, 49, 0
8, 16704, Note_on_c, 6, 38, 63
8, 16744, Note_on_c, 6, 38, 0
8, 16896, Note_on_c, 6, 50, 63
8, 16916, Note_on_c, 6, 50, 0
8, 16920, Note_on_c, 6, 54, 63
8, 16940, Note_on_c, 6, 54, 0
8, 16944, Note_on_c, 6, 59, 63
8, 16964, Note_on_c, 6, 59, 0
8, 16968, Note_on_c, 6, 54, 63
8, 16988, Note_on_c, 6, 54, 0
8, 16992, Note_on_c, 6, 50, 63
8, 17012, Note_on_c, 6, 50, 0
8, 17016, Note_on_c, 6, 47, 63
8, 17036, Note_on_c, 6, 47, 0
8, 17040, Note_on_c, 6, 44, 63
8, 17060, Note_on_c, 6, 44, 0
8, 17064, Note_on_c, 6, 47, 63
8, 17084, Note_on_c, 6, 47, 0
8, 17088, Note_on_c, 6, 37, 63
8, 17128, Note_on_c, 6, 37, 0
8, 17280, Note_on_c, 6, 49, 63
8, 17300, Note_on_c, 6, 49, 0
8, 17304, Note_on_c, 6, 52, 63
8, 17324, Note_on_c, 6, 52, 0
8, 17328, Note_on_c, 6, 57, 63
8, 17348, Note_on_c, 6, 57, 0
8, 17352, Note_on_c, 6, 52, 63
8, 17372, Note_on_c, 6, 52, 0
8, 17376, Note_on_c, 6, 49, 63
8, 17396, Note_on_c, 6, 49, 0
8, 17400, Note_on_c, 6, 45, 63
8, 17420, Note_on_c, 6, 45, 0
8, 17424, Note_on_c, 6, 42, 63
8, 17444, Note_on_c, 6, 42, 0
8, 17448, Note_on_c, 6, 45, 63
8, 17468, Note_on_c, 6, 45, 0
8, 17472, Note_on_c, 6, 47, 63
8, 17512, Note_on_c, 6, 47, 0
8, 17664, Note_on_c, 6, 40, 63
8, 17684, Note_on_c, 6, 40, 0
8, 17688, Note_on_c, 6, 59, 63
8, 17708, Note_on_c, 6, 59, 0
8, 17712, Note_on_c, 6, 56, 63
8, 17732, Note_on_c, 6, 56, 0
8, 17736, Note_on_c, 6, 52, 63
8, 17756, Note_on_c, 6, 52, 0
8, 17760, Note_on_c, 6, 47, 63
8, 17780, Note_on_c, 6, 47, 0
8, 17784, Note_on_c, 6, 52, 63
8, 17804, Note_on_c, 6, 52, 0
8, 17808, Note_on_c, 6, 47, 63
8, 17828, Note_on_c, 6, 47, 0
8, 17832, Note_on_c, 6, 44, 63
8, 17852, Note_on_c, 6, 44, 0
8, 17856, Note_on_c, 6, 40, 63
8, 17876, Note_on_c, 6, 40, 0
8, 17880, Note_on_c, 6, 57, 63
8, 17900, Note_on_c, 6, 57, 0
8, 17904, Note_on_c, 6, 52, 63
8, 17924, Note_on_c, 6, 52, 0
8, 17928, Note_on_c, 6, 49, 63
8, 17948, Note_on_c, 6, 49, 0
8, 17952, Note_on_c, 6, 45, 63
8, 17972, Note_on_c, 6, 45, 0
8, 17976, Note_on_c, 6, 52, 63
8, 17996, Note_on_c, 6, 52, 0
8, 18000, Note_on_c, 6, 49, 63
8, 18020, Note_on_c, 6, 49, 0
8, 18024, Note_on_c, 6, 45, 63
8, 18044, Note_on_c, 6, 45, 0
8, 18048, Note_on_c, 6, 40, 63
8, 18068, Note_on_c, 6, 40, 0
8, 18072, Note_on_c, 6, 56, 63
8, 18092, Note_on_c, 6, 56, 0
8, 18096, Note_on_c, 6, 52, 63
8, 18116, Note_on_c, 6, 52, 0
8, 18120, Note_on_c, 6, 47, 63
8, 18140, Note_on_c, 6, 47, 0
8, 18144, Note_on_c, 6, 44, 63
8, 18164, Note_on_c, 6, 44, 0
8, 18168, Note_on_c, 6, 52, 63
8, 18188, Note_on_c, 6, 52, 0
8, 18192, Note_on_c, 6, 47, 63
8, 18212, Note_on_c, 6, 47, 0
8, 18216, Note_on_c, 6, 44, 63
8, 18236, Note_on_c, 6, 44, 0
8, 18240, Note_on_c, 6, 40, 63
8, 18260, Note_on_c, 6, 40, 0
8, 18264, Note_on_c, 6, 57, 63
8, 18284, Note_on_c, 6, 57, 0
8, 18288, Note_on_c, 6, 54, 63
8, 18308, Note_on_c, 6, 54, 0
8, 18312, Note_on_c, 6, 51, 63
8, 18332, Note_on_c, 6, 51, 0
8, 18336, Note_on_c, 6, 48, 63
8, 18356, Note_on_c, 6, 48, 0
8, 18360, Note_on_c, 6, 51, 63
8, 18380, Note_on_c, 6, 51, 0
8, 18384, Note_on_c, 6, 48, 63
8, 18404, Note_on_c, 6, 48, 0
8, 18408, Note_on_c, 6, 45, 63
8, 18428, Note_on_c, 6, 45, 0
8, 18432, Note_on_c, 6, 40, 63
8, 18452, Note_on_c, 6, 40, 0
8, 18456, Note_on_c, 6, 59, 63
8, 18476, Note_on_c, 6, 59, 0
8, 18480, Note_on_c, 6, 56, 63
8, 18500, Note_on_c, 6, 56, 0
8, 18504, Note_on_c, 6, 53, 63
8, 18524, Note_on_c, 6, 53, 0
8, 18528, Note_on_c, 6, 50, 63
8, 18548, Note_on_c, 6, 50, 0
8, 18552, Note_on_c, 6, 53, 63
8, 18572, Note_on_c, 6, 53, 0
8, 18576, Note_on_c, 6, 50, 63
8, 18596, Note_on_c, 6, 50, 0
8, 18600, Note_on_c, 6, 47, 63
8, 18620, Note_on_c, 6, 47, 0
8, 18624, Note_on_c, 6, 40, 63
8, 18644, Note_on_c, 6, 40, 0
8, 18648, Note_on_c, 6, 60, 63
8, 18668, Note_on_c, 6, 60, 0
8, 18672, Note_on_c, 6, 57, 63
8, 18692, Note_on_c, 6, 57, 0
8, 18696, Note_on_c, 6, 52, 63
8, 18716, Note_on_c, 6, 52, 0
8, 18720, Note_on_c, 6, 48, 63
8, 18740, Note_on_c, 6, 48, 0
8, 18744, Note_on_c, 6, 52, 63
8, 18764, Note_on_c, 6, 52, 0
8, 18768, Note_on_c, 6, 48, 63
8, 18788, Note_on_c, 6, 48, 0
8, 18792, Note_on_c, 6, 45, 63
8, 18812, Note_on_c, 6, 45, 0
8, 18816, Note_on_c, 6, 40, 63
8, 18836, Note_on_c, 6, 40, 0
8, 18840, Note_on_c, 6, 62, 63
8, 18860, Note_on_c, 6, 62, 0
8, 18864, Note_on_c, 6, 59, 63
8, 18884, Note_on_c, 6, 59, 0
8, 18888, Note_on_c, 6, 53, 63
8, 18908, Note_on_c, 6, 53, 0
8, 18912, Note_on_c, 6, 50, 63
8, 18932, Note_on_c, 6, 50, 0
8, 18936, Note_on_c, 6, 53, 63
8, 18956, Note_on_c, 6, 53, 0
8, 18960, Note_on_c, 6, 50, 63
8, 18980, Note_on_c, 6, 50, 0
8, 18984, Note_on_c, 6, 47, 63
8, 19004, Note_on_c, 6, 47, 0
8, 19008, Note_on_c, 6, 40, 63
8, 19028, Note_on_c, 6, 40, 0
8, 19032, Note_on_c, 6, 64, 63
8, 19052, Note_on_c, 6, 64, 0
8, 19056, Note_on_c, 6, 59, 63
8, 19076, Note_on_c, 6, 59, 0
8, 19080, Note_on_c, 6, 56, 63
8, 19100, Note_on_c, 6, 56, 0
8, 19104, Note_on_c, 6, 52, 63
8, 19124, Note_on_c, 6, 52, 0
8, 19128, Note_on_c, 6, 47, 63
8, 19148, Note_on_c, 6, 47, 0
8, 19152, Note_on_c, 6, 44, 63
8, 19172, Note_on_c, 6, 44, 0
8, 19176, Note_on_c, 6, 40, 63
8, 19196, Note_on_c, 6, 40, 0
8, 19200, Note_on_c, 6, 45, 95
8, 19240, Note_on_c, 6, 45, 0
8, 19272, Note_on_c, 6, 45, 95
8, 19293, Note_on_c, 6, 45, 0
8, 19296, Note_on_c, 6, 52, 95
8, 19317, Note_on_c, 6, 52, 0
8, 19320, Note_on_c, 6, 54, 95
8, 19341, Note_on_c, 6, 54, 0
8, 19344, Note_on_c, 6, 56, 95
8, 19365, Note_on_c, 6, 56, 0
8, 19368, Note_on_c, 6, 52, 95
8, 19389, Note_on_c, 6, 52, 0
8, 19392, Note_on_c, 6, 49, 95
8, 19413, Note_on_c, 6, 49, 0
8, 19416, Note_on_c, 6, 47, 95
8, 19437, Note_on_c, 6, 47, 0
8, 19440, Note_on_c, 6, 49, 95
8, 19461, Note_on_c, 6, 49, 0
8, 19464, Note_on_c, 6, 45, 95
8, 19485, Note_on_c, 6, 45, 0
8, 19488, Note_on_c, 6, 52, 95
8, 19509, Note_on_c, 6, 52, 0
8, 19512, Note_on_c, 6, 50, 63
8, 19533, Note_on_c, 6, 50, 0
8, 19536, Note_on_c, 6, 49, 63
8, 19557, Note_on_c, 6, 49, 0
8, 19560, Note_on_c, 6, 50, 63
8, 19570, Note_on_c, 6, 50, 0
8, 19572, Note_on_c, 6, 52, 63
8, 19582, Note_on_c, 6, 52, 0
8, 19584, Note_on_c, 6, 54, 63
8, 19605, Note_on_c, 6, 54, 0
8, 19608, Note_on_c, 6, 56, 63
8, 19618, Note_on_c, 6, 56, 0
8, 19620, Note_on_c, 6, 57, 63
8, 19630, Note_on_c, 6, 57, 0
8, 19632, Note_on_c, 6, 59, 63
8, 19653, Note_on_c, 6, 59, 0
8, 19656, Note_on_c, 6, 47, 63
8, 19677, Note_on_c, 6, 47, 0
8, 19680, Note_on_c, 6, 52, 63
8, 19701, Note_on_c, 6, 52, 0
8, 19704, Note_on_c, 6, 54, 63
8, 19714, Note_on_c, 6, 54, 0
8, 19716, Note_on_c, 6, 56, 63
8, 19726, Note_on_c, 6, 56, 0
8, 19728, Note_on_c, 6, 57, 63
8, 19749, Note_on_c, 6, 57, 0
8, 19752, Note_on_c, 6, 45, 63
8, 19773, Note_on_c, 6, 45, 0
8, 19776, Note_on_c, 6, 50, 63
8, 19797, Note_on_c, 6, 50, 0
8, 19800, Note_on_c, 6, 52, 63
8, 19810, Note_on_c, 6, 52, 0
8, 19812, Note_on_c, 6, 54, 63
8, 19822, Note_on_c, 6, 54, 0
8, 19824, Note_on_c, 6, 44, 63
8, 19845, Note_on_c, 6, 44, 0
8, 19848, Note_on_c, 6, 56, 63
8, 19869, Note_on_c, 6, 56, 0
8, 19872, Note_on_c, 6, 49, 63
8, 19893, Note_on_c, 6, 49, 0
8, 19896, Note_on_c, 6, 50, 63
8, 19906, Note_on_c, 6, 50, 0
8, 19908, Note_on_c, 6, 52, 63
8, 19918, Note_on_c, 6, 52, 0
8, 19920, Note_on_c, 6, 42, 63
8, 19941, Note_on_c, 6, 42, 0
8, 19944, Note_on_c, 6, 54, 63
8, 19965, Note_on_c, 6, 54, 0
8, 19968, Note_on_c, 6, 47, 63
8, 19989, Note_on_c, 6, 47, 0
8, 19992, Note_on_c, 6, 45, 63
8, 20013, Note_on_c, 6, 45, 0
8, 20016, Note_on_c, 6, 47, 63
8, 20037, Note_on_c, 6, 47, 0
8, 20040, Note_on_c, 6, 40, 63
8, 20061, Note_on_c, 6, 40, 0
8, 20064, Note_on_c, 6, 45, 63
8, 20085, Note_on_c, 6, 45, 0
8, 20088, Note_on_c, 6, 57, 63
8, 20109, Note_on_c, 6, 57, 0
8, 20124, Note_on_c, 6, 42, 63
8, 20134, Note_on_c, 6, 42, 0
8, 20136, Note_on_c, 6, 43, 63
8, 20146, Note_on_c, 6, 43, 0
8, 20148, Note_on_c, 6, 45, 63
8, 20158, Note_on_c, 6, 45, 0
8, 20160, Note_on_c, 6, 47, 63
8, 20181, Note_on_c, 6, 47, 0
8, 20184, Note_on_c, 6, 45, 63
8, 20205, Note_on_c, 6, 45, 0
8, 20208, Note_on_c, 6, 47, 63
8, 20229, Note_on_c, 6, 47, 0
8, 20232, Note_on_c, 6, 52, 63
8, 20253, Note_on_c, 6, 52, 0
8, 20256, Note_on_c, 6, 45, 63
8, 20277, Note_on_c, 6, 45, 0
8, 20280, Note_on_c, 6, 43, 63
8, 20301, Note_on_c, 6, 43, 0
8, 20304, Note_on_c, 6, 45, 63
8, 20325, Note_on_c, 6, 45, 0
8, 20328, Note_on_c, 6, 50, 63
8, 20349, Note_on_c, 6, 50, 0
8, 20352, Note_on_c, 6, 43, 63
8, 20373, Note_on_c, 6, 43, 0
8, 20376, Note_on_c, 6, 42, 63
8, 20397, Note_on_c, 6, 42, 0
8, 20400, Note_on_c, 6, 43, 63
8, 20421, Note_on_c, 6, 43, 0
8, 20424, Note_on_c, 6, 55, 63
8, 20445, Note_on_c, 6, 55, 0
8, 20448, Note_on_c, 6, 54, 63
8, 20469, Note_on_c, 6, 54, 0
8, 20472, Note_on_c, 6, 52, 63
8, 20493, Note_on_c, 6, 52, 0
8, 20496, Note_on_c, 6, 54, 63
8, 20517, Note_on_c, 6, 54, 0
8, 20520, Note_on_c, 6, 59, 63
8, 20541, Note_on_c, 6, 59, 0
8, 20544, Note_on_c, 6, 52, 63
8, 20565, Note_on_c, 6, 52, 0
8, 20568, Note_on_c, 6, 50, 63
8, 20589, Note_on_c, 6, 50, 0
8, 20592, Note_on_c, 6, 52, 63
8, 20613, Note_on_c, 6, 52, 0
8, 20616, Note_on_c, 6, 57, 63
8, 20637, Note_on_c, 6, 57, 0
8, 20640, Note_on_c, 6, 50, 63
8, 20661, Note_on_c, 6, 50, 0
8, 20664, Note_on_c, 6, 62, 63
8, 20685, Note_on_c, 6, 62, 0
8, 20712, Note_on_c, 6, 62, 63
8, 20733, Note_on_c, 6, 62, 0
8, 20736, Note_on_c, 6, 61, 63
8, 20757, Note_on_c, 6, 61, 0
8, 20760, Note_on_c, 6, 57, 63
8, 20781, Note_on_c, 6, 57, 0
8, 20808, Note_on_c, 6, 57, 63
8, 20829, Note_on_c, 6, 57, 0
8, 20832, Note_on_c, 6, 62, 63
8, 20842, Note_on_c, 6, 62, 0
8, 20844, Note_on_c, 6, 62, 63
8, 20854, Note_on_c, 6, 62, 0
8, 20856, Note_on_c, 6, 57, 63
8, 20866, Note_on_c, 6, 57, 0
8, 20868, Note_on_c, 6, 57, 63
8, 20878, Note_on_c, 6, 57, 0
8, 20880, Note_on_c, 6, 54, 63
8, 20890, Note_on_c, 6, 54, 0
8, 20892, Note_on_c, 6, 54, 63
8, 20902, Note_on_c, 6, 54, 0
8, 20904, Note_on_c, 6, 50, 63
8, 20914, Note_on_c, 6, 50, 0
8, 20916, Note_on_c, 6, 50, 63
8, 20926, Note_on_c, 6, 50, 0
8, 20928, Note_on_c, 6, 57, 63
8, 20938, Note_on_c, 6, 57, 0
8, 20940, Note_on_c, 6, 57, 63
8, 20950, Note_on_c, 6, 57, 0
8, 20952, Note_on_c, 6, 52, 63
8, 20962, Note_on_c, 6, 52, 0
8, 20964, Note_on_c, 6, 52, 63
8, 20974, Note_on_c, 6, 52, 0
8, 20976, Note_on_c, 6, 49, 63
8, 20986, Note_on_c, 6, 49, 0
8, 20988, Note_on_c, 6, 49, 63
8, 20998, Note_on_c, 6, 49, 0
8, 21000, Note_on_c, 6, 45, 63
8, 21010, Note_on_c, 6, 45, 0
8, 21012, Note_on_c, 6, 45, 63
8, 21022, Note_on_c, 6, 45, 0
8, 21024, Note_on_c, 6, 50, 63
8, 21064, Note_on_c, 6, 50, 0
8, 21312, Note_on_c, 6, 50, 63
8, 21352, Note_on_c, 6, 50, 0
8, 21384, Note_on_c, 6, 50, 63
8, 21404, Note_on_c, 6, 50, 0
8, 21408, Note_on_c, 6, 57, 63
8, 21428, Note_on_c, 6, 57, 0
8, 21432, Note_on_c, 6, 45, 63
8, 21452, Note_on_c, 6, 45, 0
8, 21456, Note_on_c, 6, 47, 63
8, 21476, Note_on_c, 6, 47, 0
8, 21480, Note_on_c, 6, 49, 63
8, 21500, Note_on_c, 6, 49, 0
8, 21504, Note_on_c, 6, 50, 63
8, 21544, Note_on_c, 6, 50, 0
8, 21792, Note_on_c, 6, 50, 63
8, 21832, Note_on_c, 6, 50, 0
8, 21864, Note_on_c, 6, 38, 63
8, 21884, Note_on_c, 6, 38, 0
8, 21888, Note_on_c, 6, 45, 63
8, 21928, Note_on_c, 6, 45, 0
8, 23040, Note_on_c, 6, 50, 95
8, 23080, Note_on_c, 6, 50, 0
8, 23112, Note_on_c, 6, 50, 95
8, 23132, Note_on_c, 6, 50, 0
8, 23136, Note_on_c, 6, 57, 95
8, 23156, Note_on_c, 6, 57, 0
8, 23160, Note_on_c, 6, 59, 95
8, 23180, Note_on_c, 6, 59, 0
8, 23184, Note_on_c, 6, 61, 95
8, 23204, Note_on_c, 6, 61, 0
8, 23208, Note_on_c, 6, 57, 95
8, 23228, Note_on_c, 6, 57, 0
8, 23232, Note_on_c, 6, 54, 95
8, 23252, Note_on_c, 6, 54, 0
8, 23256, Note_on_c, 6, 52, 95
8, 23276, Note_on_c, 6, 52, 0
8, 23280, Note_on_c, 6, 54, 95
8, 23300, Note_on_c, 6, 54, 0
8, 23304, Note_on_c, 6, 50, 95
8, 23324, Note_on_c, 6, 50, 0
8, 23328, Note_on_c, 6, 57, 95
8, 23348, Note_on_c, 6, 57, 0
8, 23352, Note_on_c, 6, 59, 95
8, 23372, Note_on_c, 6, 59, 0
8, 23376, Note_on_c, 6, 61, 95
8, 23396, Note_on_c, 6, 61, 0
8, 23400, Note_on_c, 6, 57, 95
8, 23420, Note_on_c, 6, 57, 0
8, 23424, Note_on_c, 6, 62, 95
8, 23444, Note_on_c, 6, 62, 0
8, 23448, Note_on_c, 6, 61, 95
8, 23468, Note_on_c, 6, 61, 0
8, 23472, Note_on_c, 6, 59, 95
8, 23492, Note_on_c, 6, 59, 0
8, 23496, Note_on_c, 6, 57, 95
8, 23516, Note_on_c, 6, 57, 0
8, 23520, Note_on_c, 6, 55, 95
8, 23540, Note_on_c, 6, 55, 0
8, 23544, Note_on_c, 6, 54, 95
8, 23564, Note_on_c, 6, 54, 0
8, 23568, Note_on_c, 6, 52, 95
8, 23588, Note_on_c, 6, 52, 0
8, 23592, Note_on_c, 6, 50, 95
8, 23612, Note_on_c, 6, 50, 0
8, 23616, Note_on_c, 6, 49, 95
8, 23636, Note_on_c, 6, 49, 0
8, 23640, Note_on_c, 6, 50, 95
8, 23660, Note_on_c, 6, 50, 0
8, 23664, Note_on_c, 6, 43, 95
8, 23684, Note_on_c, 6, 43, 0
8, 23688, Note_on_c, 6, 42, 95
8, 23708, Note_on_c, 6, 42, 0
8, 23712, Note_on_c, 6, 40, 95
8, 23732, Note_on_c, 6, 40, 0
8, 23736, Note_on_c, 6, 38, 95
8, 23756, Note_on_c, 6, 38, 0
8, 23760, Note_on_c, 6, 37, 95
8, 23780, Note_on_c, 6, 37, 0
8, 23784, Note_on_c, 6, 49, 95
8, 23804, Note_on_c, 6, 49, 0
8, 23808, Note_on_c, 6, 50, 95
8, 23828, Note_on_c, 6, 50, 0
8, 23832, Note_on_c, 6, 47, 95
8, 23852, Note_on_c, 6, 47, 0
8, 23856, Note_on_c, 6, 43, 95
8, 23876, Note_on_c, 6, 43, 0
8, 23880, Note_on_c, 6, 45, 95
8, 23900, Note_on_c, 6, 45, 0
8, 23904, Note_on_c, 6, 36, 95
8, 23944, Note_on_c, 6, 36, 0
8, 24504, Note_on_c, 6, 50, 63
8, 24524, Note_on_c, 6, 50, 0
8, 24528, Note_on_c, 6, 57, 63
8, 24548, Note_on_c, 6, 57, 0
8, 24552, Note_on_c, 6, 55, 63
8, 24572, Note_on_c, 6, 55, 0
8, 24576, Note_on_c, 6, 54, 63
8, 24596, Note_on_c, 6, 54, 0
8, 25176, Note_on_c, 6, 45, 63
8, 25196, Note_on_c, 6, 45, 0
8, 25200, Note_on_c, 6, 52, 63
8, 25220, Note_on_c, 6, 52, 0
8, 25224, Note_on_c, 6, 50, 63
8, 25244, Note_on_c, 6, 50, 0
8, 25248, Note_on_c, 6, 49, 63
8, 25268, Note_on_c, 6, 49, 0
8, 25320, Note_on_c, 6, 50, 63
8, 25340, Note_on_c, 6, 50, 0
8, 25344, Note_on_c, 6, 43, 63
8, 25364, Note_on_c, 6, 43, 0
8, 25416, Note_on_c, 6, 55, 63
8, 25436, Note_on_c, 6, 55, 0
8, 25440, Note_on_c, 6, 54, 63
8, 25460, Note_on_c, 6, 54, 0
8, 25512, Note_on_c, 6, 47, 63
8, 25532, Note_on_c, 6, 47, 0
8, 25536, Note_on_c, 6, 52, 63
8, 25556, Note_on_c, 6, 52, 0
8, 25608, Note_on_c, 6, 45, 63
8, 25628, Note_on_c, 6, 45, 0
8, 25632, Note_on_c, 6, 50, 63
8, 25652, Note_on_c, 6, 50, 0
8, 25704, Note_on_c, 6, 62, 63
8, 25724, Note_on_c, 6, 62, 0
8, 25728, Note_on_c, 6, 61, 63
8, 25748, Note_on_c, 6, 61, 0
8, 25752, Note_on_c, 6, 57, 63
8, 25772, Note_on_c, 6, 57, 0
8, 25800, Note_on_c, 6, 57, 63
8, 25820, Note_on_c, 6, 57, 0
8, 25824, Note_on_c, 6, 54, 63
8, 25844, Note_on_c, 6, 54, 0
8, 25848, Note_on_c, 6, 50, 63
8, 25868, Note_on_c, 6, 50, 0
8, 25896, Note_on_c, 6, 50, 63
8, 25916, Note_on_c, 6, 50, 0
8, 25920, Note_on_c, 6, 47, 63
8, 25940, Note_on_c, 6, 47, 0
8, 25944, Note_on_c, 6, 52, 63
8, 25964, Note_on_c, 6, 52, 0
8, 25968, Note_on_c, 6, 50, 63
8, 25988, Note_on_c, 6, 50, 0
8, 25992, Note_on_c, 6, 52, 63
8, 26012, Note_on_c, 6, 52, 0
8, 26016, Note_on_c, 6, 45, 63
8, 26036, Note_on_c, 6, 45, 0
8, 26040, Note_on_c, 6, 57, 95
8, 26050, Note_on_c, 6, 57, 0
8, 26052, Note_on_c, 6, 59, 95
8, 26062, Note_on_c, 6, 59, 0
8, 26064, Note_on_c, 6, 61, 95
8, 26074, Note_on_c, 6, 61, 0
8, 26076, Note_on_c, 6, 62, 95
8, 26086, Note_on_c, 6, 62, 0
8, 26088, Note_on_c, 6, 64, 95
8, 26098, Note_on_c, 6, 64, 0
8, 26100, Note_on_c, 6, 61, 95
8, 26110, Note_on_c, 6, 61, 0
8, 26112, Note_on_c, 6, 62, 95
8, 26132, Note_on_c, 6, 62, 0
8, 26136, Note_on_c, 6, 61, 95
8, 26156, Note_on_c, 6, 61, 0
8, 26160, Note_on_c, 6, 59, 95
8, 26180, Note_on_c, 6, 59, 0
8, 26184, Note_on_c, 6, 57, 95
8, 26204, Note_on_c, 6, 57, 0
8, 26208, Note_on_c, 6, 55, 95
8, 26228, Note_on_c, 6, 55, 0
8, 26232, Note_on_c, 6, 54, 95
8, 26252, Note_on_c, 6, 54, 0
8, 26256, Note_on_c, 6, 52, 95
8, 26276, Note_on_c, 6, 52, 0
8, 26280, Note_on_c, 6, 50, 95
8, 26300, Note_on_c, 6, 50, 0
8, 26304, Note_on_c, 6, 49, 95
8, 26324, Note_on_c, 6, 49, 0
8, 26328, Note_on_c, 6, 50, 95
8, 26348, Note_on_c, 6, 50, 0
8, 26352, Note_on_c, 6, 43, 95
8, 26372, Note_on_c, 6, 43, 0
8, 26376, Note_on_c, 6, 42, 95
8, 26396, Note_on_c, 6, 42, 0
8, 26400, Note_on_c, 6, 40, 95
8, 26420, Note_on_c, 6, 40, 0
8, 26424, Note_on_c, 6, 38, 95
8, 26444, Note_on_c, 6, 38, 0
8, 26448, Note_on_c, 6, 37, 95
8, 26468, Note_on_c, 6, 37, 0
8, 26472, Note_on_c, 6, 49, 95
8, 26492, Note_on_c, 6, 49, 0
8, 26496, Note_on_c, 6, 50, 95
8, 26516, Note_on_c, 6, 50, 0
8, 26520, Note_on_c, 6, 47, 95
8, 26540, Note_on_c, 6, 47, 0
8, 26544, Note_on_c, 6, 43, 95
8, 26564, Note_on_c, 6, 43, 0
8, 26568, Note_on_c, 6, 45, 95
8, 26588, Note_on_c, 6, 45, 0
8, 26592, Note_on_c, 6, 42, 95
8, 26612, Note_on_c, 6, 42, 0
8, 26664, Note_on_c, 6, 50, 63
8, 26684, Note_on_c, 6, 50, 0
8, 26688, Note_on_c, 6, 43, 63
8, 26708, Note_on_c, 6, 43, 0
8, 26760, Note_on_c, 6, 43, 63
8, 26780, Note_on_c, 6, 43, 0
8, 26784, Note_on_c, 6, 40, 63
8, 26804, Note_on_c, 6, 40, 0
8, 26856, Note_on_c, 6, 52, 63
8, 26876, Note_on_c, 6, 52, 0
8, 26880, Note_on_c, 6, 45, 63
8, 26900, Note_on_c, 6, 45, 0
8, 26952, Note_on_c, 6, 45, 63
8, 26972, Note_on_c, 6, 45, 0
8, 26976, Note_on_c, 6, 42, 63
8, 26996, Note_on_c, 6, 42, 0
8, 27048, Note_on_c, 6, 54, 63
8, 27068, Note_on_c, 6, 54, 0
8, 27072, Note_on_c, 6, 47, 63
8, 27092, Note_on_c, 6, 47, 0
8, 27144, Note_on_c, 6, 47, 63
8, 27164, Note_on_c, 6, 47, 0
8, 27168, Note_on_c, 6, 45, 63
8, 27188, Note_on_c, 6, 45, 0
8, 27240, Note_on_c, 6, 57, 63
8, 27260, Note_on_c, 6, 57, 0
8, 27264, Note_on_c, 6, 50, 63
8, 27284, Note_on_c, 6, 50, 0
8, 41952, Note_on_c, 6, 50, 95
8, 42000, Note_on_c, 6, 50, 0
8, 42024, Note_on_c, 6, 50, 95
8, 42048, Note_on_c, 6, 50, 0
8, 42048, Note_on_c, 6, 57, 95
8, 42072, Note_on_c, 6, 57, 0
8, 42072, Note_on_c, 6, 59, 95
8, 42096, Note_on_c, 6, 59, 0
8, 42096, Note_on_c, 6, 61, 95
8, 42120, Note_on_c, 6, 61, 0
8, 42120, Note_on_c, 6, 57, 95
8, 42144, Note_on_c, 6, 57, 0
8, 42144, Note_on_c, 6, 54, 95
8, 42168, Note_on_c, 6, 54, 0
8, 42168, Note_on_c, 6, 52, 95
8, 42192, Note_on_c, 6, 52, 0
8, 42192, Note_on_c, 6, 54, 95
8, 42216, Note_on_c, 6, 54, 0
8, 42216, Note_on_c, 6, 50, 95
8, 42240, Note_on_c, 6, 50, 0
8, 42240, Note_on_c, 6, 57, 95
8, 42264, Note_on_c, 6, 57, 0
8, 42264, Note_on_c, 6, 59, 95
8, 42288, Note_on_c, 6, 59, 0
8, 42288, Note_on_c, 6, 61, 95
8, 42312, Note_on_c, 6, 61, 0
8, 42312, Note_on_c, 6, 57, 95
8, 42336, Note_on_c, 6, 57, 0
8, 42336, Note_on_c, 6, 62, 95
8, 42360, Note_on_c, 6, 62, 0
8, 42360, Note_on_c, 6, 61, 95
8, 42384, Note_on_c, 6, 61, 0
8, 42384, Note_on_c, 6, 59, 95
8, 42408, Note_on_c, 6, 59, 0
8, 42408, Note_on_c, 6, 57, 95
8, 42432, Note_on_c, 6, 57, 0
8, 42432, Note_on_c, 6, 55, 95
8, 42456, Note_on_c, 6, 55, 0
8, 42456, Note_on_c, 6, 54, 95
8, 42480, Note_on_c, 6, 54, 0
8, 42480, Note_on_c, 6, 52, 95
8, 42504, Note_on_c, 6, 52, 0
8, 42504, Note_on_c, 6, 50, 95
8, 42528, Note_on_c, 6, 50, 0
8, 42528, Note_on_c, 6, 49, 95
8, 42552, Note_on_c, 6, 49, 0
8, 42552, Note_on_c, 6, 50, 95
8, 42576, Note_on_c, 6, 50, 0
8, 42576, Note_on_c, 6, 43, 95
8, 42600, Note_on_c, 6, 43, 0
8, 42600, Note_on_c, 6, 42, 95
8, 42624, Note_on_c, 6, 42, 0
8, 42624, Note_on_c, 6, 40, 95
8, 42648, Note_on_c, 6, 40, 0
8, 42648, Note_on_c, 6, 38, 95
8, 42672, Note_on_c, 6, 38, 0
8, 42672, Note_on_c, 6, 37, 95
8, 42696, Note_on_c, 6, 37, 0
8, 42696, Note_on_c, 6, 49, 95
8, 42720, Note_on_c, 6, 49, 0
8, 42720, Note_on_c, 6, 50, 95
8, 42744, Note_on_c, 6, 50, 0
8, 42744, Note_on_c, 6, 47, 95
8, 42768, Note_on_c, 6, 47, 0
8, 42768, Note_on_c, 6, 43, 95
8, 42792, Note_on_c, 6, 43, 0
8, 42792, Note_on_c, 6, 45, 95
8, 42816, Note_on_c, 6, 45, 0
8, 42816, Note_on_c, 6, 47, 95
8, 42828, Note_on_c, 6, 47, 0
8, 42828, Note_on_c, 6, 49, 95
8, 42840, Note_on_c, 6, 49, 0
8, 42840, Note_on_c, 6, 50, 95
8, 42852, Note_on_c, 6, 50, 0
8, 42852, Note_on_c, 6, 52, 95
8, 42864, Note_on_c, 6, 52, 0
8, 42864, Note_on_c, 6, 54, 95
8, 42876, Note_on_c, 6, 54, 0
8, 42876, Note_on_c, 6, 55, 95
8, 42888, Note_on_c, 6, 55, 0
8, 42888, Note_on_c, 6, 57, 95
8, 42900, Note_on_c, 6, 57, 0
8, 42900, Note_on_c, 6, 54, 95
8, 42912, Note_on_c, 6, 54, 0
8, 42912, Note_on_c, 6, 59, 95
8, 42936, Note_on_c, 6, 59, 0
8, 42936, Note_on_c, 6, 57, 95
8, 42960, Note_on_c, 6, 57, 0
8, 42960, Note_on_c, 6, 55, 95
8, 42984, Note_on_c, 6, 55, 0
8, 42984, Note_on_c, 6, 54, 95
8, 43008, Note_on_c, 6, 54, 0
8, 43008, Note_on_c, 6, 52, 95
8, 43032, Note_on_c, 6, 52, 0
8, 43032, Note_on_c, 6, 50, 95
8, 43056, Note_on_c, 6, 50, 0
8, 43056, Note_on_c, 6, 49, 95
8, 43080, Note_on_c, 6, 49, 0
8, 43080, Note_on_c, 6, 45, 95
8, 43104, Note_on_c, 6, 45, 0
8, 43104, Note_on_c, 6, 50, 95
8, 43128, Note_on_c, 6, 50, 0
8, 43128, Note_on_c, 6, 54, 95
8, 43152, Note_on_c, 6, 54, 0
8, 43152, Note_on_c, 6, 55, 95
8, 43176, Note_on_c, 6, 55, 0
8, 43176, Note_on_c, 6, 57, 95
8, 43188, Note_on_c, 6, 57, 0
8, 43188, Note_on_c, 6, 55, 95
8, 43200, Note_on_c, 6, 55, 0
8, 43200, Note_on_c, 6, 54, 95
8, 43224, Note_on_c, 6, 54, 0
8, 43224, Note_on_c, 6, 55, 95
8, 43248, Note_on_c, 6, 55, 0
8, 43272, Note_on_c, 6, 49, 95
8, 43284, Note_on_c, 6, 49, 0
8, 43284, Note_on_c, 6, 49, 95
8, 43296, Note_on_c, 6, 49, 0
8, 43296, Note_on_c, 6, 50, 95
8, 43308, Note_on_c, 6, 50, 0
8, 43308, Note_on_c, 6, 50, 95
8, 43320, Note_on_c, 6, 50, 0
8, 43320, Note_on_c, 6, 49, 95
8, 43332, Note_on_c, 6, 49, 0
8, 43332, Note_on_c, 6, 49, 95
8, 43344, Note_on_c, 6, 49, 0
8, 43344, Note_on_c, 6, 50, 95
8, 43356, Note_on_c, 6, 50, 0
8, 43356, Note_on_c, 6, 50, 95
8, 43368, Note_on_c, 6, 50, 0
8, 43368, Note_on_c, 6, 42, 95
8, 43380, Note_on_c, 6, 42, 0
8, 43380, Note_on_c, 6, 42, 95
8, 43392, Note_on_c, 6, 42, 0
8, 43392, Note_on_c, 6, 43, 95
8, 43416, Note_on_c, 6, 43, 0
8, 43416, Note_on_c, 6, 55, 95
8, 43440, Note_on_c, 6, 55, 0
8, 43440, Note_on_c, 6, 57, 95
8, 43464, Note_on_c, 6, 57, 0
8, 43464, Note_on_c, 6, 45, 95
8, 43488, Note_on_c, 6, 45, 0
8, 43488, Note_on_c, 6, 50, 95
8, 43536, Note_on_c, 6, 50, 0
8, 65040, Note_on_c, 6, 42, 95
8, 65056, Note_on_c, 6, 42, 0
8, 65088, Note_on_c, 6, 43, 95
8, 65104, Note_on_c, 6, 43, 0
8, 65136, Note_on_c, 6, 45, 95
8, 65152, Note_on_c, 6, 45, 0
8, 65184, Note_on_c, 6, 47, 95
8, 65200, Note_on_c, 6, 47, 0
8, 65232, Note_on_c, 6, 49, 95
8, 65248, Note_on_c, 6, 49, 0
8, 65280, Note_on_c, 6, 50, 95
8, 65296, Note_on_c, 6, 50, 0
8, 65328, Note_on_c, 6, 52, 95
8, 65344, Note_on_c, 6, 52, 0
8, 65376, Note_on_c, 6, 54, 95
8, 65392, Note_on_c, 6, 54, 0
8, 65424, Note_on_c, 6, 54, 95
8, 65440, Note_on_c, 6, 54, 0
8, 65472, Note_on_c, 6, 55, 95
8, 65488, Note_on_c, 6, 55, 0
8, 65520, Note_on_c, 6, 57, 95
8, 65536, Note_on_c, 6, 57, 0
8, 65568, Note_on_c, 6, 59, 95
8, 65584, Note_on_c, 6, 59, 0
8, 65616, Note_on_c, 6, 57, 95
8, 65632, Note_on_c, 6, 57, 0
8, 65664, Note_on_c, 6, 59, 95
8, 65680, Note_on_c, 6, 59, 0
8, 65712, Note_on_c, 6, 61, 95
8, 65728, Note_on_c, 6, 61, 0
8, 65760, Note_on_c, 6, 62, 95
8, 65776, Note_on_c, 6, 62, 0
8, 65988, Note_on_c, 6, 57, 95
8, 65996, Note_on_c, 6, 57, 0
8, 66000, Note_on_c, 6, 62, 95
8, 66024, Note_on_c, 6, 62, 0
8, 66036, Note_on_c, 6, 57, 95
8, 66044, Note_on_c, 6, 57, 0
8, 66048, Note_on_c, 6, 59, 95
8, 66059, Note_on_c, 6, 59, 0
8, 66064, Note_on_c, 6, 57, 95
8, 66075, Note_on_c, 6, 57, 0
8, 66080, Note_on_c, 6, 55, 95
8, 66091, Note_on_c, 6, 55, 0
8, 66096, Note_on_c, 6, 54, 95
8, 66107, Note_on_c, 6, 54, 0
8, 66112, Note_on_c, 6, 55, 95
8, 66123, Note_on_c, 6, 55, 0
8, 66128, Note_on_c, 6, 57, 95
8, 66139, Note_on_c, 6, 57, 0
8, 66144, Note_on_c, 6, 50, 95
8, 66160, Note_on_c, 6, 50, 0
8, 66192, Note_on_c, 6, 52, 95
8, 66208, Note_on_c, 6, 52, 0
8, 66240, Note_on_c, 6, 54, 95
8, 66256, Note_on_c, 6, 54, 0
8, 66288, Note_on_c, 6, 42, 85
8, 66304, Note_on_c, 6, 42, 0
8, 66336, Note_on_c, 6, 43, 85
8, 66368, Note_on_c, 6, 43, 0
8, 66384, Note_on_c, 6, 45, 85
8, 66416, Note_on_c, 6, 45, 0
8, 66432, Note_on_c, 6, 47, 85
8, 66464, Note_on_c, 6, 47, 0
8, 66480, Note_on_c, 6, 49, 67
8, 66512, Note_on_c, 6, 49, 0
8, 66528, Note_on_c, 6, 50, 85
8, 66560, Note_on_c, 6, 50, 0
8, 66576, Note_on_c, 6, 52, 85
8, 66608, Note_on_c, 6, 52, 0
8, 66624, Note_on_c, 6, 54, 74
8, 66656, Note_on_c, 6, 54, 0
8, 66672, Note_on_c, 6, 55, 85
8, 66704, Note_on_c, 6, 55, 0
8, 66720, Note_on_c, 6, 57, 85
8, 66752, Note_on_c, 6, 57, 0
8, 66768, Note_on_c, 6, 59, 85
8, 66800, Note_on_c, 6, 59, 0
8, 66816, Note_on_c, 6, 61, 66
8, 66840, Note_on_c, 6, 61, 0
8, 66852, Note_on_c, 6, 57, 85
8, 66860, Note_on_c, 6, 57, 0
8, 66864, Note_on_c, 6, 62, 85
8, 66888, Note_on_c, 6, 62, 0
8, 66900, Note_on_c, 6, 57, 85
8, 66908, Note_on_c, 6, 57, 0
8, 66912, Note_on_c, 6, 59, 69
8, 66925, Note_on_c, 6, 59, 0
8, 66928, Note_on_c, 6, 57, 81
8, 66941, Note_on_c, 6, 57, 0
8, 66944, Note_on_c, 6, 55, 77
8, 66957, Note_on_c, 6, 55, 0
8, 66960, Note_on_c, 6, 54, 62
8, 66973, Note_on_c, 6, 54, 0
8, 66976, Note_on_c, 6, 55, 85
8, 66989, Note_on_c, 6, 55, 0
8, 66992, Note_on_c, 6, 57, 85
8, 67005, Note_on_c, 6, 57, 0
8, 67008, Note_on_c, 6, 50, 85
8, 67021, Note_on_c, 6, 50, 0
8, 67024, Note_on_c, 6, 54, 68
8, 67037, Note_on_c, 6, 54, 0
8, 67040, Note_on_c, 6, 52, 85
8, 67053, Note_on_c, 6, 52, 0
8, 67056, Note_on_c, 6, 50, 85
8, 67069, Note_on_c, 6, 50, 0
8, 67072, Note_on_c, 6, 52, 85
8, 67085, Note_on_c, 6, 52, 0
8, 67088, Note_on_c, 6, 54, 85
8, 67101, Note_on_c, 6, 54, 0
8, 67104, Note_on_c, 6, 55, 77
8, 67123, Note_on_c, 6, 55, 0
8, 67152, Note_on_c, 6, 57, 85
8, 67171, Note_on_c, 6, 57, 0
8, 67200, Note_on_c, 6, 59, 85
8, 67219, Note_on_c, 6, 59, 0
8, 67248, Note_on_c, 6, 47, 74
8, 67267, Note_on_c, 6, 47, 0
8, 67344, Note_on_c, 6, 59, 74
8, 67363, Note_on_c, 6, 59, 0
8, 67392, Note_on_c, 6, 54, 69
8, 67411, Note_on_c, 6, 54, 0
8, 67440, Note_on_c, 6, 42, 74
8, 67459, Note_on_c, 6, 42, 0
8, 67536, Note_on_c, 6, 54, 66
8, 67555, Note_on_c, 6, 54, 0
8, 67584, Note_on_c, 6, 56, 67
8, 67603, Note_on_c, 6, 56, 0
8, 67632, Note_on_c, 6, 44, 60
8, 67651, Note_on_c, 6, 44, 0
8, 67728, Note_on_c, 6, 56, 56
8, 67747, Note_on_c, 6, 56, 0
8, 67776, Note_on_c, 6, 57, 74
8, 67795, Note_on_c, 6, 57, 0
8, 67824, Note_on_c, 6, 54, 74
8, 67840, Note_on_c, 6, 54, 0
8, 67872, Note_on_c, 6, 47, 85
8, 67888, Note_on_c, 6, 47, 0
8, 67920, Note_on_c, 6, 52, 78
8, 67936, Note_on_c, 6, 52, 0
8, 67968, Note_on_c, 6, 45, 85
8, 67984, Note_on_c, 6, 45, 0
8, 68016, Note_on_c, 6, 50, 85
8, 68032, Note_on_c, 6, 50, 0
8, 68064, Note_on_c, 6, 43, 85
8, 68097, Note_on_c, 6, 43, 0
8, 68196, Note_on_c, 6, 45, 85
8, 68204, Note_on_c, 6, 45, 0
8, 68208, Note_on_c, 6, 50, 56
8, 68232, Note_on_c, 6, 50, 0
8, 68244, Note_on_c, 6, 45, 85
8, 68252, Note_on_c, 6, 45, 0
8, 68256, Note_on_c, 6, 47, 60
8, 68267, Note_on_c, 6, 47, 0
8, 68272, Note_on_c, 6, 45, 85
8, 68283, Note_on_c, 6, 45, 0
8, 68288, Note_on_c, 6, 43, 85
8, 68299, Note_on_c, 6, 43, 0
8, 68304, Note_on_c, 6, 45, 85
8, 68328, Note_on_c, 6, 45, 0
8, 68340, Note_on_c, 6, 45, 85
8, 68348, Note_on_c, 6, 45, 0
8, 68352, Note_on_c, 6, 38, 85
8, 68368, Note_on_c, 6, 38, 0
8, 68400, Note_on_c, 6, 42, 65
8, 68416, Note_on_c, 6, 42, 0
8, 68448, Note_on_c, 6, 43, 56
8, 68464, Note_on_c, 6, 43, 0
8, 68496, Note_on_c, 6, 48, 85
8, 68512, Note_on_c, 6, 48, 0
8, 68544, Note_on_c, 6, 47, 85
8, 68568, Note_on_c, 6, 47, 0
8, 68580, Note_on_c, 6, 55, 91
8, 68588, Note_on_c, 6, 55, 0
8, 68592, Note_on_c, 6, 62, 98
8, 68616, Note_on_c, 6, 62, 0
8, 68628, Note_on_c, 6, 57, 85
8, 68636, Note_on_c, 6, 57, 0
8, 68640, Note_on_c, 6, 59, 85
8, 68651, Note_on_c, 6, 59, 0
8, 68656, Note_on_c, 6, 57, 85
8, 68667, Note_on_c, 6, 57, 0
8, 68672, Note_on_c, 6, 55, 85
8, 68683, Note_on_c, 6, 55, 0
8, 68688, Note_on_c, 6, 54, 72
8, 68699, Note_on_c, 6, 54, 0
8, 68704, Note_on_c, 6, 56, 72
8, 68715, Note_on_c, 6, 56, 0
8, 68720, Note_on_c, 6, 57, 85
8, 68731, Note_on_c, 6, 57, 0
8, 68736, Note_on_c, 6, 56, 67
8, 68752, Note_on_c, 6, 56, 0
8, 68784, Note_on_c, 6, 44, 64
8, 68800, Note_on_c, 6, 44, 0
8, 68880, Note_on_c, 6, 56, 60
8, 68896, Note_on_c, 6, 56, 0
8, 68928, Note_on_c, 6, 56, 56
8, 68944, Note_on_c, 6, 56, 0
8, 68976, Note_on_c, 6, 44, 74
8, 68992, Note_on_c, 6, 44, 0
8, 69072, Note_on_c, 6, 56, 62
8, 69088, Note_on_c, 6, 56, 0
8, 69120, Note_on_c, 6, 57, 85
8, 69136, Note_on_c, 6, 57, 0
8, 69204, Note_on_c, 6, 54, 85
8, 69212, Note_on_c, 6, 54, 0
8, 69216, Note_on_c, 6, 59, 85
8, 69232, Note_on_c, 6, 59, 0
8, 69300, Note_on_c, 6, 55, 85
8, 69308, Note_on_c, 6, 55, 0
8, 69312, Note_on_c, 6, 61, 82
8, 69328, Note_on_c, 6, 61, 0
8, 69396, Note_on_c, 6, 59, 85
8, 69404, Note_on_c, 6, 59, 0
8, 69408, Note_on_c, 6, 62, 85
8, 69424, Note_on_c, 6, 62, 0
8, 69456, Note_on_c, 6, 54, 97
8, 69472, Note_on_c, 6, 54, 0
8, 69504, Note_on_c, 6, 55, 89
8, 69520, Note_on_c, 6, 55, 0
8, 69552, Note_on_c, 6, 57, 85
8, 69568, Note_on_c, 6, 57, 0
8, 69600, Note_on_c, 6, 59, 62
8, 69611, Note_on_c, 6, 59, 0
8, 69616, Note_on_c, 6, 57, 85
8, 69627, Note_on_c, 6, 57, 0
8, 69632, Note_on_c, 6, 55, 85
8, 69643, Note_on_c, 6, 55, 0
8, 69648, Note_on_c, 6, 57, 85
8, 69672, Note_on_c, 6, 57, 0
8, 69684, Note_on_c, 6, 45, 85
8, 69692, Note_on_c, 6, 45, 0
8, 69696, Note_on_c, 6, 50, 85
8, 69707, Note_on_c, 6, 50, 0
8, 69712, Note_on_c, 6, 54, 68
8, 69723, Note_on_c, 6, 54, 0
8, 69728, Note_on_c, 6, 52, 85
8, 69739, Note_on_c, 6, 52, 0
8, 69744, Note_on_c, 6, 50, 85
8, 69755, Note_on_c, 6, 50, 0
8, 69760, Note_on_c, 6, 52, 85
8, 69771, Note_on_c, 6, 52, 0
8, 69776, Note_on_c, 6, 54, 70
8, 69787, Note_on_c, 6, 54, 0
8, 69792, Note_on_c, 6, 47, 91
8, 69808, Note_on_c, 6, 47, 0
8, 69888, Note_on_c, 6, 47, 85
8, 69904, Note_on_c, 6, 47, 0
8, 69984, Note_on_c, 6, 47, 88
8, 70000, Note_on_c, 6, 47, 0
8, 70080, Note_on_c, 6, 47, 85
8, 70096, Note_on_c, 6, 47, 0
8, 70176, Note_on_c, 6, 47, 98
8, 70192, Note_on_c, 6, 47, 0
8, 70272, Note_on_c, 6, 47, 106
8, 70288, Note_on_c, 6, 47, 0
8, 70368, Note_on_c, 6, 47, 101
8, 70384, Note_on_c, 6, 47, 0
8, 70500, Note_on_c, 6, 54, 84
8, 70512, Note_on_c, 6, 54, 0
8, 70512, Note_on_c, 6, 59, 85
8, 70523, Note_on_c, 6, 59, 0
8, 70528, Note_on_c, 6, 62, 85
8, 70539, Note_on_c, 6, 62, 0
8, 70544, Note_on_c, 6, 61, 67
8, 70555, Note_on_c, 6, 61, 0
8, 70560, Note_on_c, 6, 62, 85
8, 70571, Note_on_c, 6, 62, 0
8, 70576, Note_on_c, 6, 61, 70
8, 70587, Note_on_c, 6, 61, 0
8, 70592, Note_on_c, 6, 59, 85
8, 70603, Note_on_c, 6, 59, 0
8, 70608, Note_on_c, 6, 58, 72
8, 70619, Note_on_c, 6, 58, 0
8, 70624, Note_on_c, 6, 59, 85
8, 70635, Note_on_c, 6, 59, 0
8, 70640, Note_on_c, 6, 61, 72
8, 70651, Note_on_c, 6, 61, 0
8, 70656, Note_on_c, 6, 54, 67
8, 70688, Note_on_c, 6, 54, 0
8, 70720, Note_on_c, 6, 55, 85
8, 70731, Note_on_c, 6, 55, 0
8, 70736, Note_on_c, 6, 52, 85
8, 70747, Note_on_c, 6, 52, 0
8, 70752, Note_on_c, 6, 50, 85
8, 70763, Note_on_c, 6, 50, 0
8, 70768, Note_on_c, 6, 49, 64
8, 70779, Note_on_c, 6, 49, 0
8, 70784, Note_on_c, 6, 47, 85
8, 70795, Note_on_c, 6, 47, 0
8, 70848, Note_on_c, 6, 47, 103
8, 70864, Note_on_c, 6, 47, 0
8, 70944, Note_on_c, 6, 47, 103
8, 70960, Note_on_c, 6, 47, 0
8, 71040, Note_on_c, 6, 47, 103
8, 71056, Note_on_c, 6, 47, 0
8, 71136, Note_on_c, 6, 47, 103
8, 71152, Note_on_c, 6, 47, 0
8, 71232, Note_on_c, 6, 47, 103
8, 71248, Note_on_c, 6, 47, 0
8, 71328, Note_on_c, 6, 47, 103
8, 71344, Note_on_c, 6, 47, 0
8, 71460, Note_on_c, 6, 54, 86
8, 71468, Note_on_c, 6, 54, 0
8, 71472, Note_on_c, 6, 59, 85
8, 71483, Note_on_c, 6, 59, 0
8, 71488, Note_on_c, 6, 57, 85
8, 71499, Note_on_c, 6, 57, 0
8, 71504, Note_on_c, 6, 56, 74
8, 71515, Note_on_c, 6, 56, 0
8, 71520, Note_on_c, 6, 57, 85
8, 71531, Note_on_c, 6, 57, 0
8, 71536, Note_on_c, 6, 56, 70
8, 71547, Note_on_c, 6, 56, 0
8, 71552, Note_on_c, 6, 54, 68
8, 71563, Note_on_c, 6, 54, 0
8, 71568, Note_on_c, 6, 53, 85
8, 71579, Note_on_c, 6, 53, 0
8, 71584, Note_on_c, 6, 54, 68
8, 71595, Note_on_c, 6, 54, 0
8, 71600, Note_on_c, 6, 56, 70
8, 71611, Note_on_c, 6, 56, 0
8, 71616, Note_on_c, 6, 49, 70
8, 71664, Note_on_c, 6, 49, 0
8, 71680, Note_on_c, 6, 50, 85
8, 71691, Note_on_c, 6, 50, 0
8, 71696, Note_on_c, 6, 47, 85
8, 71707, Note_on_c, 6, 47, 0
8, 71712, Note_on_c, 6, 45, 56
8, 71723, Note_on_c, 6, 45, 0
8, 71728, Note_on_c, 6, 44, 74
8, 71739, Note_on_c, 6, 44, 0
8, 71744, Note_on_c, 6, 42, 76
8, 71755, Note_on_c, 6, 42, 0
8, 71808, Note_on_c, 6, 42, 88
8, 71824, Note_on_c, 6, 42, 0
8, 71904, Note_on_c, 6, 42, 88
8, 71920, Note_on_c, 6, 42, 0
8, 72000, Note_on_c, 6, 42, 88
8, 72016, Note_on_c, 6, 42, 0
8, 72096, Note_on_c, 6, 42, 88
8, 72112, Note_on_c, 6, 42, 0
8, 72192, Note_on_c, 6, 42, 88
8, 72208, Note_on_c, 6, 42, 0
8, 72288, Note_on_c, 6, 42, 88
8, 72304, Note_on_c, 6, 42, 0
8, 72384, Note_on_c, 6, 42, 88
8, 72400, Note_on_c, 6, 42, 0
8, 74544, Note_on_c, 6, 45, 85
8, 74560, Note_on_c, 6, 45, 0
8, 74592, Note_on_c, 6, 47, 85
8, 74608, Note_on_c, 6, 47, 0
8, 74640, Note_on_c, 6, 49, 67
8, 74656, Note_on_c, 6, 49, 0
8, 74688, Note_on_c, 6, 50, 85
8, 74704, Note_on_c, 6, 50, 0
8, 74736, Note_on_c, 6, 51, 72
8, 74752, Note_on_c, 6, 51, 0
8, 74784, Note_on_c, 6, 52, 85
8, 74800, Note_on_c, 6, 52, 0
8, 74832, Note_on_c, 6, 54, 74
8, 74848, Note_on_c, 6, 54, 0
8, 74880, Note_on_c, 6, 55, 85
8, 74896, Note_on_c, 6, 55, 0
8, 74928, Note_on_c, 6, 56, 93
8, 74944, Note_on_c, 6, 56, 0
8, 74976, Note_on_c, 6, 57, 85
8, 74992, Note_on_c, 6, 57, 0
8, 75024, Note_on_c, 6, 59, 85
8, 75040, Note_on_c, 6, 59, 0
8, 75072, Note_on_c, 6, 61, 74
8, 75088, Note_on_c, 6, 61, 0
8, 75120, Note_on_c, 6, 49, 68
8, 75136, Note_on_c, 6, 49, 0
8, 75168, Note_on_c, 6, 50, 85
8, 75184, Note_on_c, 6, 50, 0
8, 75216, Note_on_c, 6, 52, 76
8, 75232, Note_on_c, 6, 52, 0
8, 75264, Note_on_c, 6, 54, 76
8, 75280, Note_on_c, 6, 54, 0
8, 75312, Note_on_c, 6, 42, 76
8, 75328, Note_on_c, 6, 42, 0
8, 75360, Note_on_c, 6, 44, 76
8, 75376, Note_on_c, 6, 44, 0
8, 75408, Note_on_c, 6, 56, 76
8, 75424, Note_on_c, 6, 56, 0
8, 75456, Note_on_c, 6, 57, 76
8, 75472, Note_on_c, 6, 57, 0
8, 75504, Note_on_c, 6, 45, 76
8, 75520, Note_on_c, 6, 45, 0
8, 75552, Note_on_c, 6, 47, 76
8, 75568, Note_on_c, 6, 47, 0
8, 75600, Note_on_c, 6, 59, 76
8, 75616, Note_on_c, 6, 59, 0
8, 75648, Note_on_c, 6, 61, 76
8, 75664, Note_on_c, 6, 61, 0
8, 75696, Note_on_c, 6, 49, 76
8, 75712, Note_on_c, 6, 49, 0
8, 75744, Note_on_c, 6, 50, 76
8, 75760, Note_on_c, 6, 50, 0
8, 75792, Note_on_c, 6, 62, 76
8, 75808, Note_on_c, 6, 62, 0
8, 75840, Note_on_c, 6, 62, 76
8, 75856, Note_on_c, 6, 62, 0
8, 75888, Note_on_c, 6, 61, 76
8, 75904, Note_on_c, 6, 61, 0
8, 75936, Note_on_c, 6, 62, 76
8, 75952, Note_on_c, 6, 62, 0
8, 75984, Note_on_c, 6, 64, 76
8, 76000, Note_on_c, 6, 64, 0
8, 76032, Note_on_c, 6, 66, 62
8, 76043, Note_on_c, 6, 66, 0
8, 76048, Note_on_c, 6, 64, 85
8, 76059, Note_on_c, 6, 64, 0
8, 76064, Note_on_c, 6, 62, 85
8, 76075, Note_on_c, 6, 62, 0
8, 76080, Note_on_c, 6, 61, 64
8, 76091, Note_on_c, 6, 61, 0
8, 76096, Note_on_c, 6, 63, 72
8, 76107, Note_on_c, 6, 63, 0
8, 76112, Note_on_c, 6, 64, 85
8, 76123, Note_on_c, 6, 64, 0
8, 76128, Note_on_c, 6, 63, 72
8, 76161, Note_on_c, 6, 63, 0
8, 76200, Note_on_c, 6, 59, 85
8, 76216, Note_on_c, 6, 59, 0
8, 76224, Note_on_c, 6, 64, 74
8, 76248, Note_on_c, 6, 64, 0
8, 76260, Note_on_c, 6, 62, 85
8, 76268, Note_on_c, 6, 62, 0
8, 76272, Note_on_c, 6, 61, 70
8, 76296, Note_on_c, 6, 61, 0
8, 76308, Note_on_c, 6, 54, 62
8, 76316, Note_on_c, 6, 54, 0
8, 76320, Note_on_c, 6, 52, 81
8, 76344, Note_on_c, 6, 52, 0
8, 76356, Note_on_c, 6, 50, 85
8, 76364, Note_on_c, 6, 50, 0
8, 76368, Note_on_c, 6, 52, 78
8, 76392, Note_on_c, 6, 52, 0
8, 76404, Note_on_c, 6, 40, 85
8, 76412, Note_on_c, 6, 40, 0
8, 76416, Note_on_c, 6, 45, 85
8, 76432, Note_on_c, 6, 45, 0
8, 76464, Note_on_c, 6, 57, 85
8, 76480, Note_on_c, 6, 57, 0
8, 76512, Note_on_c, 6, 45, 85
8, 76528, Note_on_c, 6, 45, 0
8, 76560, Note_on_c, 6, 57, 85
8, 76576, Note_on_c, 6, 57, 0
8, 76608, Note_on_c, 6, 45, 85
8, 76624, Note_on_c, 6, 45, 0
8, 76656, Note_on_c, 6, 57, 76
8, 76672, Note_on_c, 6, 57, 0
8, 76704, Note_on_c, 6, 45, 82
8, 76720, Note_on_c, 6, 45, 0
8, 76740, Note_on_c, 6, 57, 85
8, 76756, Note_on_c, 6, 57, 0
8, 76800, Note_on_c, 6, 45, 56
8, 76824, Note_on_c, 6, 45, 0
8, 76848, Note_on_c, 6, 57, 56
8, 76872, Note_on_c, 6, 57, 0
8, 76896, Note_on_c, 6, 45, 66
8, 76920, Note_on_c, 6, 45, 0
8, 76944, Note_on_c, 6, 57, 56
8, 76968, Note_on_c, 6, 57, 0
8, 76992, Note_on_c, 6, 45, 85
8, 77016, Note_on_c, 6, 45, 0
8, 77040, Note_on_c, 6, 57, 56
8, 77064, Note_on_c, 6, 57, 0
8, 77088, Note_on_c, 6, 45, 85
8, 77112, Note_on_c, 6, 45, 0
8, 79344, Note_on_c, 6, 47, 85
8, 79392, Note_on_c, 6, 47, 0
8, 79392, Note_on_c, 6, 40, 65
8, 79440, Note_on_c, 6, 40, 0
8, 79536, Note_on_c, 6, 45, 65
8, 79584, Note_on_c, 6, 45, 0
8, 79584, Note_on_c, 6, 38, 65
8, 79632, Note_on_c, 6, 38, 0
8, 80712, Note_on_c, 6, 45, 85
8, 80736, Note_on_c, 6, 45, 0
8, 80736, Note_on_c, 6, 50, 59
8, 80760, Note_on_c, 6, 50, 0
8, 80832, Note_on_c, 6, 49, 74
8, 80856, Note_on_c, 6, 49, 0
8, 80928, Note_on_c, 6, 47, 85
8, 80952, Note_on_c, 6, 47, 0
8, 81024, Note_on_c, 6, 45, 85
8, 81048, Note_on_c, 6, 45, 0
8, 81120, Note_on_c, 6, 44, 66
8, 81144, Note_on_c, 6, 44, 0
8, 81168, Note_on_c, 6, 42, 64
8, 81192, Note_on_c, 6, 42, 0
8, 81216, Note_on_c, 6, 49, 62
8, 81240, Note_on_c, 6, 49, 0
8, 81312, Note_on_c, 6, 61, 67
8, 81336, Note_on_c, 6, 61, 0
8, 81408, Note_on_c, 6, 49, 56
8, 81432, Note_on_c, 6, 49, 0
8, 81504, Note_on_c, 6, 61, 56
8, 81528, Note_on_c, 6, 61, 0
8, 81600, Note_on_c, 6, 49, 64
8, 81624, Note_on_c, 6, 49, 0
8, 81696, Note_on_c, 6, 61, 68
8, 81720, Note_on_c, 6, 61, 0
8, 81744, Note_on_c, 6, 49, 61
8, 81768, Note_on_c, 6, 49, 0
8, 81792, Note_on_c, 6, 54, 66
8, 81816, Note_on_c, 6, 54, 0
8, 81888, Note_on_c, 6, 54, 57
8, 81912, Note_on_c, 6, 54, 0
8, 81936, Note_on_c, 6, 42, 62
8, 81960, Note_on_c, 6, 42, 0
8, 81984, Note_on_c, 6, 43, 85
8, 82008, Note_on_c, 6, 43, 0
8, 82080, Note_on_c, 6, 45, 85
8, 82104, Note_on_c, 6, 45, 0
8, 82128, Note_on_c, 6, 47, 85
8, 82152, Note_on_c, 6, 47, 0
8, 82176, Note_on_c, 6, 40, 64
8, 82200, Note_on_c, 6, 40, 0
8, 82272, Note_on_c, 6, 45, 85
8, 82296, Note_on_c, 6, 45, 0
8, 82320, Note_on_c, 6, 50, 85
8, 82344, Note_on_c, 6, 50, 0
8, 82368, Note_on_c, 6, 47, 85
8, 82392, Note_on_c, 6, 47, 0
8, 82416, Note_on_c, 6, 43, 85
8, 82440, Note_on_c, 6, 43, 0
8, 82464, Note_on_c, 6, 40, 79
8, 82488, Note_on_c, 6, 40, 0
8, 82512, Note_on_c, 6, 45, 85
8, 82536, Note_on_c, 6, 45, 0
8, 82560, Note_on_c, 6, 38, 56
8, 82584, Note_on_c, 6, 38, 0
8, 82608, Note_on_c, 6, 43, 85
8, 82632, Note_on_c, 6, 43, 0
8, 82656, Note_on_c, 6, 50, 85
8, 82680, Note_on_c, 6, 50, 0
8, 82704, Note_on_c, 6, 48, 85
8, 82728, Note_on_c, 6, 48, 0
8, 82752, Note_on_c, 6, 47, 85
8, 82884, Note_on_c, 6, 54, 62
8, 82896, Note_on_c, 6, 54, 0
8, 82896, Note_on_c, 6, 47, 0
8, 82896, Note_on_c, 6, 59, 85
8, 82932, Note_on_c, 6, 59, 0
8, 82932, Note_on_c, 6, 54, 56
8, 82944, Note_on_c, 6, 54, 0
8, 82944, Note_on_c, 6, 55, 79
8, 82980, Note_on_c, 6, 55, 0
8, 82980, Note_on_c, 6, 54, 56
8, 82992, Note_on_c, 6, 54, 0
8, 82992, Note_on_c, 6, 55, 85
8, 83028, Note_on_c, 6, 55, 0
8, 83028, Note_on_c, 6, 52, 85
8, 83040, Note_on_c, 6, 52, 0
8, 83040, Note_on_c, 6, 54, 85
8, 83232, Note_on_c, 6, 54, 0
8, 83232, Note_on_c, 6, 54, 85
8, 83424, Note_on_c, 6, 54, 0
8, 83424, Note_on_c, 6, 54, 85
8, 83556, Note_on_c, 6, 47, 85
8, 83568, Note_on_c, 6, 47, 0
8, 83568, Note_on_c, 6, 54, 0
8, 83568, Note_on_c, 6, 54, 56
8, 83604, Note_on_c, 6, 54, 0
8, 83604, Note_on_c, 6, 49, 70
8, 83616, Note_on_c, 6, 49, 0
8, 83616, Note_on_c, 6, 50, 72
8, 83632, Note_on_c, 6, 50, 0
8, 83632, Note_on_c, 6, 49, 60
8, 83648, Note_on_c, 6, 49, 0
8, 83648, Note_on_c, 6, 47, 85
8, 83664, Note_on_c, 6, 47, 0
8, 83664, Note_on_c, 6, 46, 70
8, 83680, Note_on_c, 6, 46, 0
8, 83680, Note_on_c, 6, 47, 85
8, 83696, Note_on_c, 6, 47, 0
8, 83696, Note_on_c, 6, 49, 66
8, 83712, Note_on_c, 6, 49, 0
8, 83712, Note_on_c, 6, 42, 56
8, 83776, Note_on_c, 6, 54, 62
8, 83784, Note_on_c, 6, 42, 0
8, 83792, Note_on_c, 6, 54, 0
8, 83792, Note_on_c, 6, 52, 85
8, 83808, Note_on_c, 6, 52, 0
8, 83808, Note_on_c, 6, 50, 85
8, 83832, Note_on_c, 6, 50, 0
8, 84324, Note_on_c, 6, 55, 85
8, 84336, Note_on_c, 6, 55, 0
8, 84336, Note_on_c, 6, 50, 85
8, 84372, Note_on_c, 6, 50, 0
8, 84372, Note_on_c, 6, 52, 85
8, 84384, Note_on_c, 6, 52, 0
8, 84384, Note_on_c, 6, 54, 65
8, 84420, Note_on_c, 6, 54, 0
8, 84420, Note_on_c, 6, 52, 85
8, 84432, Note_on_c, 6, 52, 0
8, 84432, Note_on_c, 6, 54, 67
8, 84468, Note_on_c, 6, 54, 0
8, 84468, Note_on_c, 6, 42, 67
8, 84480, Note_on_c, 6, 42, 0
8, 84480, Note_on_c, 6, 47, 85
8, 84528, Note_on_c, 6, 47, 0
8, 84576, Note_on_c, 6, 50, 98
8, 84624, Note_on_c, 6, 50, 0
8, 87312, Note_on_c, 6, 42, 95
8, 87328, Note_on_c, 6, 42, 0
8, 87360, Note_on_c, 6, 43, 95
8, 87376, Note_on_c, 6, 43, 0
8, 87408, Note_on_c, 6, 45, 95
8, 87424, Note_on_c, 6, 45, 0
8, 87456, Note_on_c, 6, 47, 95
8, 87472, Note_on_c, 6, 47, 0
8, 87504, Note_on_c, 6, 49, 95
8, 87520, Note_on_c, 6, 49, 0
8, 87552, Note_on_c, 6, 50, 95
8, 87568, Note_on_c, 6, 50, 0
8, 87600, Note_on_c, 6, 52, 95
8, 87616, Note_on_c, 6, 52, 0
8, 87648, Note_on_c, 6, 54, 95
8, 87664, Note_on_c, 6, 54, 0
8, 87696, Note_on_c, 6, 54, 95
8, 87712, Note_on_c, 6, 54, 0
8, 87744, Note_on_c, 6, 55, 95
8, 87760, Note_on_c, 6, 55, 0
8, 87792, Note_on_c, 6, 57, 95
8, 87808, Note_on_c, 6, 57, 0
8, 87840, Note_on_c, 6, 59, 95
8, 87856, Note_on_c, 6, 59, 0
8, 87888, Note_on_c, 6, 57, 95
8, 87904, Note_on_c, 6, 57, 0
8, 87936, Note_on_c, 6, 59, 95
8, 87952, Note_on_c, 6, 59, 0
8, 87984, Note_on_c, 6, 61, 95
8, 88000, Note_on_c, 6, 61, 0
8, 88032, Note_on_c, 6, 62, 95
8, 88048, Note_on_c, 6, 62, 0
8, 88260, Note_on_c, 6, 57, 95
8, 88268, Note_on_c, 6, 57, 0
8, 88272, Note_on_c, 6, 62, 95
8, 88296, Note_on_c, 6, 62, 0
8, 88308, Note_on_c, 6, 57, 95
8, 88316, Note_on_c, 6, 57, 0
8, 88320, Note_on_c, 6, 59, 95
8, 88331, Note_on_c, 6, 59, 0
8, 88336, Note_on_c, 6, 57, 95
8, 88347, Note_on_c, 6, 57, 0
8, 88352, Note_on_c, 6, 55, 95
8, 88363, Note_on_c, 6, 55, 0
8, 88368, Note_on_c, 6, 54, 95
8, 88379, Note_on_c, 6, 54, 0
8, 88384, Note_on_c, 6, 55, 95
8, 88395, Note_on_c, 6, 55, 0
8, 88400, Note_on_c, 6, 57, 95
8, 88411, Note_on_c, 6, 57, 0
8, 88416, Note_on_c, 6, 50, 95
8, 88432, Note_on_c, 6, 50, 0
8, 88464, Note_on_c, 6, 52, 95
8, 88480, Note_on_c, 6, 52, 0
8, 88512, Note_on_c, 6, 54, 95
8, 88528, Note_on_c, 6, 54, 0
8, 88560, Note_on_c, 6, 42, 85
8, 88576, Note_on_c, 6, 42, 0
8, 88608, Note_on_c, 6, 43, 85
8, 88640, Note_on_c, 6, 43, 0
8, 88656, Note_on_c, 6, 45, 85
8, 88688, Note_on_c, 6, 45, 0
8, 88704, Note_on_c, 6, 47, 85
8, 88736, Note_on_c, 6, 47, 0
8, 88752, Note_on_c, 6, 49, 67
8, 88784, Note_on_c, 6, 49, 0
8, 88800, Note_on_c, 6, 50, 85
8, 88832, Note_on_c, 6, 50, 0
8, 88848, Note_on_c, 6, 52, 85
8, 88880, Note_on_c, 6, 52, 0
8, 88896, Note_on_c, 6, 54, 74
8, 88928, Note_on_c, 6, 54, 0
8, 88944, Note_on_c, 6, 55, 85
8, 88976, Note_on_c, 6, 55, 0
8, 88992, Note_on_c, 6, 57, 85
8, 89024, Note_on_c, 6, 57, 0
8, 89040, Note_on_c, 6, 59, 85
8, 89072, Note_on_c, 6, 59, 0
8, 89088, Note_on_c, 6, 61, 66
8, 89112, Note_on_c, 6, 61, 0
8, 89124, Note_on_c, 6, 57, 85
8, 89132, Note_on_c, 6, 57, 0
8, 89136, Note_on_c, 6, 62, 85
8, 89160, Note_on_c, 6, 62, 0
8, 89172, Note_on_c, 6, 57, 85
8, 89180, Note_on_c, 6, 57, 0
8, 89184, Note_on_c, 6, 59, 69
8, 89197, Note_on_c, 6, 59, 0
8, 89200, Note_on_c, 6, 57, 81
8, 89213, Note_on_c, 6, 57, 0
8, 89216, Note_on_c, 6, 55, 77
8, 89229, Note_on_c, 6, 55, 0
8, 89232, Note_on_c, 6, 54, 62
8, 89245, Note_on_c, 6, 54, 0
8, 89248, Note_on_c, 6, 55, 85
8, 89261, Note_on_c, 6, 55, 0
8, 89264, Note_on_c, 6, 57, 85
8, 89277, Note_on_c, 6, 57, 0
8, 89280, Note_on_c, 6, 50, 85
8, 89293, Note_on_c, 6, 50, 0
8, 89296, Note_on_c, 6, 54, 68
8, 89309, Note_on_c, 6, 54, 0
8, 89312, Note_on_c, 6, 52, 85
8, 89325, Note_on_c, 6, 52, 0
8, 89328, Note_on_c, 6, 50, 85
8, 89341, Note_on_c, 6, 50, 0
8, 89344, Note_on_c, 6, 52, 85
8, 89357, Note_on_c, 6, 52, 0
8, 89360, Note_on_c, 6, 54, 85
8, 89373, Note_on_c, 6, 54, 0
8, 89376, Note_on_c, 6, 55, 77
8, 89395, Note_on_c, 6, 55, 0
8, 89424, Note_on_c, 6, 57, 85
8, 89443, Note_on_c, 6, 57, 0
8, 89472, Note_on_c, 6, 59, 85
8, 89491, Note_on_c, 6, 59, 0
8, 89520, Note_on_c, 6, 47, 74
8, 89539, Note_on_c, 6, 47, 0
8, 89616, Note_on_c, 6, 59, 74
8, 89635, Note_on_c, 6, 59, 0
8, 89664, Note_on_c, 6, 54, 69
8, 89683, Note_on_c, 6, 54, 0
8, 89712, Note_on_c, 6, 42, 74
8, 89731, Note_on_c, 6, 42, 0
8, 89808, Note_on_c, 6, 54, 66
8, 89827, Note_on_c, 6, 54, 0
8, 89856, Note_on_c, 6, 56, 67
8, 89875, Note_on_c, 6, 56, 0
8, 89904, Note_on_c, 6, 44, 60
8, 89923, Note_on_c, 6, 44, 0
8, 90000, Note_on_c, 6, 56, 56
8, 90019, Note_on_c, 6, 56, 0
8, 90048, Note_on_c, 6, 57, 74
8, 90067, Note_on_c, 6, 57, 0
8, 90096, Note_on_c, 6, 54, 74
8, 90112, Note_on_c, 6, 54, 0
8, 90144, Note_on_c, 6, 47, 85
8, 90160, Note_on_c, 6, 47, 0
8, 90192, Note_on_c, 6, 52, 78
8, 90208, Note_on_c, 6, 52, 0
8, 90240, Note_on_c, 6, 45, 85
8, 90256, Note_on_c, 6, 45, 0
8, 90288, Note_on_c, 6, 50, 85
8, 90304, Note_on_c, 6, 50, 0
8, 90336, Note_on_c, 6, 43, 85
8, 90369, Note_on_c, 6, 43, 0
8, 90468, Note_on_c, 6, 45, 85
8, 90476, Note_on_c, 6, 45, 0
8, 90480, Note_on_c, 6, 50, 56
8, 90504, Note_on_c, 6, 50, 0
8, 90516, Note_on_c, 6, 45, 85
8, 90524, Note_on_c, 6, 45, 0
8, 90528, Note_on_c, 6, 47, 60
8, 90539, Note_on_c, 6, 47, 0
8, 90544, Note_on_c, 6, 45, 85
8, 90555, Note_on_c, 6, 45, 0
8, 90560, Note_on_c, 6, 43, 85
8, 90571, Note_on_c, 6, 43, 0
8, 90576, Note_on_c, 6, 45, 85
8, 90600, Note_on_c, 6, 45, 0
8, 90612, Note_on_c, 6, 45, 85
8, 90620, Note_on_c, 6, 45, 0
8, 90624, Note_on_c, 6, 38, 85
8, 90640, Note_on_c, 6, 38, 0
8, 90672, Note_on_c, 6, 42, 65
8, 90688, Note_on_c, 6, 42, 0
8, 90720, Note_on_c, 6, 43, 56
8, 90736, Note_on_c, 6, 43, 0
8, 90768, Note_on_c, 6, 48, 85
8, 90784, Note_on_c, 6, 48, 0
8, 90816, Note_on_c, 6, 47, 85
8, 90840, Note_on_c, 6, 47, 0
8, 90852, Note_on_c, 6, 55, 91
8, 90860, Note_on_c, 6, 55, 0
8, 90864, Note_on_c, 6, 62, 98
8, 90888, Note_on_c, 6, 62, 0
8, 90900, Note_on_c, 6, 57, 85
8, 90908, Note_on_c, 6, 57, 0
8, 90912, Note_on_c, 6, 59, 85
8, 90923, Note_on_c, 6, 59, 0
8, 90928, Note_on_c, 6, 57, 85
8, 90939, Note_on_c, 6, 57, 0
8, 90944, Note_on_c, 6, 55, 85
8, 90955, Note_on_c, 6, 55, 0
8, 90960, Note_on_c, 6, 54, 72
8, 90971, Note_on_c, 6, 54, 0
8, 90976, Note_on_c, 6, 56, 72
8, 90987, Note_on_c, 6, 56, 0
8, 90992, Note_on_c, 6, 57, 85
8, 91003, Note_on_c, 6, 57, 0
8, 91008, Note_on_c, 6, 56, 67
8, 91024, Note_on_c, 6, 56, 0
8, 91056, Note_on_c, 6, 44, 64
8, 91072, Note_on_c, 6, 44, 0
8, 91152, Note_on_c, 6, 56, 60
8, 91168, Note_on_c, 6, 56, 0
8, 91200, Note_on_c, 6, 56, 56
8, 91216, Note_on_c, 6, 56, 0
8, 91248, Note_on_c, 6, 44, 74
8, 91264, Note_on_c, 6, 44, 0
8, 91344, Note_on_c, 6, 56, 85
8, 91368, Note_on_c, 6, 56, 0
8, 91392, Note_on_c, 6, 57, 85
8, 91416, Note_on_c, 6, 57, 0
8, 91476, Note_on_c, 6, 54, 85
8, 91488, Note_on_c, 6, 54, 0
8, 91488, Note_on_c, 6, 59, 85
8, 91512, Note_on_c, 6, 59, 0
8, 91572, Note_on_c, 6, 55, 85
8, 91584, Note_on_c, 6, 55, 0
8, 91584, Note_on_c, 6, 61, 85
8, 91608, Note_on_c, 6, 61, 0
8, 91668, Note_on_c, 6, 57, 85
8, 91680, Note_on_c, 6, 57, 0
8, 91680, Note_on_c, 6, 62, 85
8, 91704, Note_on_c, 6, 62, 0
8, 91728, Note_on_c, 6, 54, 85
8, 91752, Note_on_c, 6, 54, 0
8, 91776, Note_on_c, 6, 55, 85
8, 91800, Note_on_c, 6, 55, 0
8, 91824, Note_on_c, 6, 57, 85
8, 91848, Note_on_c, 6, 57, 0
8, 91872, Note_on_c, 6, 59, 85
8, 91888, Note_on_c, 6, 59, 0
8, 91888, Note_on_c, 6, 57, 85
8, 91904, Note_on_c, 6, 57, 0
8, 91904, Note_on_c, 6, 55, 85
8, 91920, Note_on_c, 6, 55, 0
8, 91920, Note_on_c, 6, 57, 85
8, 91956, Note_on_c, 6, 57, 0
8, 91956, Note_on_c, 6, 45, 85
8, 91968, Note_on_c, 6, 45, 0
8, 91968, Note_on_c, 6, 50, 85
8, 92064, Note_on_c, 6, 50, 0
8, 92064, End_track
9, 0, Start_track
9, 0, MIDI_port, 0
9, 0, Title_t, "Bass"
9, 0, Program_c, 7, 43
9, 0, Control_c, 7, 7, 112
9, 0, Control_c, 7, 10, 127
9, 0, Control_c, 7, 121, 0
9, 0, Control_c, 7, 91, 127
9, 0, Control_c, 7, 93, 0
9, 0, Note_on_c, 7, 38, 95
9, 48, Note_on_c, 7, 38, 0
9, 72, Note_on_c, 7, 38, 95
9, 96, Note_on_c, 7, 38, 0
9, 96, Note_on_c, 7, 45, 95
9, 120, Note_on_c, 7, 45, 0
9, 120, Note_on_c, 7, 47, 95
9, 144, Note_on_c, 7, 47, 0
9, 144, Note_on_c, 7, 49, 95
9, 168, Note_on_c, 7, 49, 0
9, 168, Note_on_c, 7, 45, 95
9, 192, Note_on_c, 7, 45, 0
9, 192, Note_on_c, 7, 42, 95
9, 216, Note_on_c, 7, 42, 0
9, 216, Note_on_c, 7, 40, 95
9, 240, Note_on_c, 7, 40, 0
9, 240, Note_on_c, 7, 42, 95
9, 264, Note_on_c, 7, 42, 0
9, 264, Note_on_c, 7, 38, 95
9, 288, Note_on_c, 7, 38, 0
9, 288, Note_on_c, 7, 45, 95
9, 312, Note_on_c, 7, 45, 0
9, 312, Note_on_c, 7, 47, 95
9, 336, Note_on_c, 7, 47, 0
9, 336, Note_on_c, 7, 49, 95
9, 360, Note_on_c, 7, 49, 0
9, 360, Note_on_c, 7, 45, 95
9, 384, Note_on_c, 7, 45, 0
9, 384, Note_on_c, 7, 50, 95
9, 408, Note_on_c, 7, 50, 0
9, 408, Note_on_c, 7, 49, 95
9, 432, Note_on_c, 7, 49, 0
9, 432, Note_on_c, 7, 47, 95
9, 456, Note_on_c, 7, 47, 0
9, 456, Note_on_c, 7, 45, 95
9, 480, Note_on_c, 7, 45, 0
9, 480, Note_on_c, 7, 43, 95
9, 504, Note_on_c, 7, 43, 0
9, 504, Note_on_c, 7, 42, 95
9, 528, Note_on_c, 7, 42, 0
9, 528, Note_on_c, 7, 40, 95
9, 552, Note_on_c, 7, 40, 0
9, 552, Note_on_c, 7, 38, 95
9, 576, Note_on_c, 7, 38, 0
9, 576, Note_on_c, 7, 37, 95
9, 600, Note_on_c, 7, 37, 0
9, 600, Note_on_c, 7, 38, 95
9, 624, Note_on_c, 7, 38, 0
9, 624, Note_on_c, 7, 43, 95
9, 648, Note_on_c, 7, 43, 0
9, 648, Note_on_c, 7, 42, 95
9, 672, Note_on_c, 7, 42, 0
9, 672, Note_on_c, 7, 40, 95
9, 696, Note_on_c, 7, 40, 0
9, 696, Note_on_c, 7, 38, 95
9, 720, Note_on_c, 7, 38, 0
9, 720, Note_on_c, 7, 37, 95
9, 744, Note_on_c, 7, 37, 0
9, 744, Note_on_c, 7, 33, 95
9, 768, Note_on_c, 7, 33, 0
9, 768, Note_on_c, 7, 38, 95
9, 792, Note_on_c, 7, 38, 0
9, 792, Note_on_c, 7, 35, 95
9, 816, Note_on_c, 7, 35, 0
9, 816, Note_on_c, 7, 31, 95
9, 840, Note_on_c, 7, 31, 0
9, 840, Note_on_c, 7, 33, 95
9, 864, Note_on_c, 7, 33, 0
9, 864, Note_on_c, 7, 35, 95
9, 876, Note_on_c, 7, 35, 0
9, 876, Note_on_c, 7, 37, 95
9, 888, Note_on_c, 7, 37, 0
9, 888, Note_on_c, 7, 38, 95
9, 900, Note_on_c, 7, 38, 0
9, 900, Note_on_c, 7, 40, 95
9, 912, Note_on_c, 7, 40, 0
9, 912, Note_on_c, 7, 42, 95
9, 924, Note_on_c, 7, 42, 0
9, 924, Note_on_c, 7, 43, 95
9, 936, Note_on_c, 7, 43, 0
9, 936, Note_on_c, 7, 45, 95
9, 948, Note_on_c, 7, 45, 0
9, 948, Note_on_c, 7, 42, 95
9, 960, Note_on_c, 7, 42, 0
9, 960, Note_on_c, 7, 47, 95
9, 984, Note_on_c, 7, 47, 0
9, 984, Note_on_c, 7, 45, 95
9, 1008, Note_on_c, 7, 45, 0
9, 1008, Note_on_c, 7, 43, 95
9, 1032, Note_on_c, 7, 43, 0
9, 1032, Note_on_c, 7, 42, 95
9, 1056, Note_on_c, 7, 42, 0
9, 1056, Note_on_c, 7, 40, 95
9, 1080, Note_on_c, 7, 40, 0
9, 1080, Note_on_c, 7, 38, 95
9, 1104, Note_on_c, 7, 38, 0
9, 1104, Note_on_c, 7, 37, 95
9, 1128, Note_on_c, 7, 37, 0
9, 1128, Note_on_c, 7, 33, 95
9, 1152, Note_on_c, 7, 33, 0
9, 1152, Note_on_c, 7, 38, 95
9, 1176, Note_on_c, 7, 38, 0
9, 1176, Note_on_c, 7, 42, 95
9, 1200, Note_on_c, 7, 42, 0
9, 1200, Note_on_c, 7, 43, 95
9, 1224, Note_on_c, 7, 43, 0
9, 1224, Note_on_c, 7, 45, 95
9, 1236, Note_on_c, 7, 45, 0
9, 1236, Note_on_c, 7, 43, 95
9, 1248, Note_on_c, 7, 43, 0
9, 1248, Note_on_c, 7, 42, 95
9, 1272, Note_on_c, 7, 42, 0
9, 1272, Note_on_c, 7, 43, 95
9, 1296, Note_on_c, 7, 43, 0
9, 1320, Note_on_c, 7, 37, 95
9, 1332, Note_on_c, 7, 37, 0
9, 1332, Note_on_c, 7, 37, 95
9, 1344, Note_on_c, 7, 37, 0
9, 1344, Note_on_c, 7, 38, 95
9, 1356, Note_on_c, 7, 38, 0
9, 1356, Note_on_c, 7, 38, 95
9, 1368, Note_on_c, 7, 38, 0
9, 1368, Note_on_c, 7, 37, 95
9, 1380, Note_on_c, 7, 37, 0
9, 1380, Note_on_c, 7, 37, 95
9, 1392, Note_on_c, 7, 37, 0
9, 1392, Note_on_c, 7, 38, 95
9, 1404, Note_on_c, 7, 38, 0
9, 1404, Note_on_c, 7, 38, 95
9, 1416, Note_on_c, 7, 38, 0
9, 1416, Note_on_c, 7, 30, 95
9, 1428, Note_on_c, 7, 30, 0
9, 1428, Note_on_c, 7, 30, 95
9, 1440, Note_on_c, 7, 30, 0
9, 1440, Note_on_c, 7, 31, 95
9, 1464, Note_on_c, 7, 31, 0
9, 1464, Note_on_c, 7, 43, 95
9, 1488, Note_on_c, 7, 43, 0
9, 1488, Note_on_c, 7, 45, 95
9, 1512, Note_on_c, 7, 45, 0
9, 1512, Note_on_c, 7, 33, 95
9, 1536, Note_on_c, 7, 33, 0
9, 1536, Note_on_c, 7, 38, 95
9, 1584, Note_on_c, 7, 38, 0
9, 1824, Note_on_c, 7, 38, 56
9, 1856, Note_on_c, 7, 38, 0
9, 1872, Note_on_c, 7, 38, 56
9, 1888, Note_on_c, 7, 38, 0
9, 1920, Note_on_c, 7, 45, 56
9, 1936, Note_on_c, 7, 45, 0
9, 1944, Note_on_c, 7, 33, 56
9, 1960, Note_on_c, 7, 33, 0
9, 1968, Note_on_c, 7, 35, 56
9, 1984, Note_on_c, 7, 35, 0
9, 1992, Note_on_c, 7, 37, 56
9, 2008, Note_on_c, 7, 37, 0
9, 2016, Note_on_c, 7, 38, 56
9, 2048, Note_on_c, 7, 38, 0
9, 2304, Note_on_c, 7, 38, 56
9, 2336, Note_on_c, 7, 38, 0
9, 2376, Note_on_c, 7, 26, 56
9, 2392, Note_on_c, 7, 26, 0
9, 2400, Note_on_c, 7, 33, 56
9, 2432, Note_on_c, 7, 33, 0
9, 3456, Note_on_c, 7, 45, 95
9, 3504, Note_on_c, 7, 45, 0
9, 3528, Note_on_c, 7, 33, 79
9, 3552, Note_on_c, 7, 33, 0
9, 3552, Note_on_c, 7, 40, 79
9, 3576, Note_on_c, 7, 40, 0
9, 3576, Note_on_c, 7, 42, 79
9, 3600, Note_on_c, 7, 42, 0
9, 3600, Note_on_c, 7, 44, 79
9, 3624, Note_on_c, 7, 44, 0
9, 3624, Note_on_c, 7, 40, 79
9, 3648, Note_on_c, 7, 40, 0
9, 3648, Note_on_c, 7, 37, 79
9, 3672, Note_on_c, 7, 37, 0
9, 3672, Note_on_c, 7, 35, 79
9, 3696, Note_on_c, 7, 35, 0
9, 3696, Note_on_c, 7, 37, 79
9, 3720, Note_on_c, 7, 37, 0
9, 3720, Note_on_c, 7, 33, 79
9, 3744, Note_on_c, 7, 33, 0
9, 3744, Note_on_c, 7, 40, 79
9, 3792, Note_on_c, 7, 40, 0
9, 5352, Note_on_c, 7, 40, 95
9, 5376, Note_on_c, 7, 40, 0
9, 5376, Note_on_c, 7, 45, 95
9, 5392, Note_on_c, 7, 45, 0
9, 5400, Note_on_c, 7, 44, 95
9, 5416, Note_on_c, 7, 44, 0
9, 5424, Note_on_c, 7, 42, 95
9, 5440, Note_on_c, 7, 42, 0
9, 5448, Note_on_c, 7, 40, 95
9, 5464, Note_on_c, 7, 40, 0
9, 5472, Note_on_c, 7, 38, 95
9, 5488, Note_on_c, 7, 38, 0
9, 5496, Note_on_c, 7, 37, 95
9, 5512, Note_on_c, 7, 37, 0
9, 5520, Note_on_c, 7, 35, 95
9, 5536, Note_on_c, 7, 35, 0
9, 5544, Note_on_c, 7, 33, 95
9, 5560, Note_on_c, 7, 33, 0
9, 5568, Note_on_c, 7, 32, 95
9, 5584, Note_on_c, 7, 32, 0
9, 5592, Note_on_c, 7, 33, 95
9, 5608, Note_on_c, 7, 33, 0
9, 5616, Note_on_c, 7, 38, 95
9, 5632, Note_on_c, 7, 38, 0
9, 5640, Note_on_c, 7, 37, 95
9, 5656, Note_on_c, 7, 37, 0
9, 5664, Note_on_c, 7, 35, 95
9, 5680, Note_on_c, 7, 35, 0
9, 5688, Note_on_c, 7, 33, 95
9, 5704, Note_on_c, 7, 33, 0
9, 5712, Note_on_c, 7, 32, 95
9, 5728, Note_on_c, 7, 32, 0
9, 5736, Note_on_c, 7, 44, 95
9, 5752, Note_on_c, 7, 44, 0
9, 5760, Note_on_c, 7, 45, 95
9, 5776, Note_on_c, 7, 45, 0
9, 5784, Note_on_c, 7, 42, 95
9, 5800, Note_on_c, 7, 42, 0
9, 5808, Note_on_c, 7, 38, 95
9, 5824, Note_on_c, 7, 38, 0
9, 5832, Note_on_c, 7, 40, 95
9, 5848, Note_on_c, 7, 40, 0
9, 5856, Note_on_c, 7, 45, 95
9, 5872, Note_on_c, 7, 45, 0
9, 6624, Note_on_c, 7, 35, 56
9, 6632, Note_on_c, 7, 35, 0
9, 6636, Note_on_c, 7, 35, 56
9, 6644, Note_on_c, 7, 35, 0
9, 6648, Note_on_c, 7, 38, 56
9, 6656, Note_on_c, 7, 38, 0
9, 6660, Note_on_c, 7, 38, 56
9, 6668, Note_on_c, 7, 38, 0
9, 6672, Note_on_c, 7, 42, 56
9, 6680, Note_on_c, 7, 42, 0
9, 6684, Note_on_c, 7, 42, 56
9, 6692, Note_on_c, 7, 42, 0
9, 6696, Note_on_c, 7, 47, 56
9, 6704, Note_on_c, 7, 47, 0
9, 6708, Note_on_c, 7, 47, 56
9, 6716, Note_on_c, 7, 47, 0
9, 6720, Note_on_c, 7, 40, 56
9, 6736, Note_on_c, 7, 40, 0
9, 6816, Note_on_c, 7, 30, 56
9, 6824, Note_on_c, 7, 30, 0
9, 6828, Note_on_c, 7, 30, 56
9, 6836, Note_on_c, 7, 30, 0
9, 6840, Note_on_c, 7, 34, 56
9, 6848, Note_on_c, 7, 34, 0
9, 6852, Note_on_c, 7, 34, 56
9, 6860, Note_on_c, 7, 34, 0
9, 6864, Note_on_c, 7, 37, 56
9, 6872, Note_on_c, 7, 37, 0
9, 6876, Note_on_c, 7, 37, 56
9, 6884, Note_on_c, 7, 37, 0
9, 6888, Note_on_c, 7, 42, 56
9, 6896, Note_on_c, 7, 42, 0
9, 6900, Note_on_c, 7, 42, 56
9, 6908, Note_on_c, 7, 42, 0
9, 6912, Note_on_c, 7, 35, 56
9, 6920, Note_on_c, 7, 35, 0
9, 6924, Note_on_c, 7, 35, 56
9, 6932, Note_on_c, 7, 35, 0
9, 6936, Note_on_c, 7, 38, 56
9, 6944, Note_on_c, 7, 38, 0
9, 6948, Note_on_c, 7, 38, 56
9, 6956, Note_on_c, 7, 38, 0
9, 6960, Note_on_c, 7, 42, 56
9, 6968, Note_on_c, 7, 42, 0
9, 6972, Note_on_c, 7, 42, 56
9, 6980, Note_on_c, 7, 42, 0
9, 6984, Note_on_c, 7, 47, 56
9, 6992, Note_on_c, 7, 47, 0
9, 6996, Note_on_c, 7, 47, 56
9, 7004, Note_on_c, 7, 47, 0
9, 7008, Note_on_c, 7, 40, 56
9, 7016, Note_on_c, 7, 40, 0
9, 7020, Note_on_c, 7, 40, 56
9, 7028, Note_on_c, 7, 40, 0
9, 7032, Note_on_c, 7, 43, 56
9, 7040, Note_on_c, 7, 43, 0
9, 7044, Note_on_c, 7, 43, 56
9, 7052, Note_on_c, 7, 43, 0
9, 7056, Note_on_c, 7, 47, 56
9, 7064, Note_on_c, 7, 47, 0
9, 7068, Note_on_c, 7, 47, 56
9, 7076, Note_on_c, 7, 47, 0
9, 7080, Note_on_c, 7, 52, 56
9, 7088, Note_on_c, 7, 52, 0
9, 7092, Note_on_c, 7, 52, 56
9, 7100, Note_on_c, 7, 52, 0
9, 7104, Note_on_c, 7, 42, 56
9, 7136, Note_on_c, 7, 42, 0
9, 7488, Note_on_c, 7, 50, 95
9, 7504, Note_on_c, 7, 50, 0
9, 7512, Note_on_c, 7, 49, 95
9, 7528, Note_on_c, 7, 49, 0
9, 7536, Note_on_c, 7, 47, 95
9, 7552, Note_on_c, 7, 47, 0
9, 7560, Note_on_c, 7, 45, 95
9, 7576, Note_on_c, 7, 45, 0
9, 7584, Note_on_c, 7, 43, 95
9, 7600, Note_on_c, 7, 43, 0
9, 7608, Note_on_c, 7, 42, 95
9, 7624, Note_on_c, 7, 42, 0
9, 7632, Note_on_c, 7, 40, 95
9, 7648, Note_on_c, 7, 40, 0
9, 7656, Note_on_c, 7, 38, 95
9, 7672, Note_on_c, 7, 38, 0
9, 7680, Note_on_c, 7, 37, 95
9, 7696, Note_on_c, 7, 37, 0
9, 7704, Note_on_c, 7, 35, 95
9, 7720, Note_on_c, 7, 35, 0
9, 7728, Note_on_c, 7, 35, 95
9, 7744, Note_on_c, 7, 35, 0
9, 7752, Note_on_c, 7, 34, 95
9, 7768, Note_on_c, 7, 34, 0
9, 7776, Note_on_c, 7, 35, 95
9, 7792, Note_on_c, 7, 35, 0
9, 7800, Note_on_c, 7, 31, 95
9, 7816, Note_on_c, 7, 31, 0
9, 7824, Note_on_c, 7, 28, 95
9, 7840, Note_on_c, 7, 28, 0
9, 7848, Note_on_c, 7, 30, 95
9, 7864, Note_on_c, 7, 30, 0
9, 7872, Note_on_c, 7, 35, 95
9, 7888, Note_on_c, 7, 35, 0
9, 8352, Note_on_c, 7, 28, 63
9, 8392, Note_on_c, 7, 28, 0
9, 8448, Note_on_c, 7, 33, 63
9, 8488, Note_on_c, 7, 33, 0
9, 8736, Note_on_c, 7, 26, 63
9, 8776, Note_on_c, 7, 26, 0
9, 8832, Note_on_c, 7, 31, 63
9, 8872, Note_on_c, 7, 31, 0
9, 9408, Note_on_c, 7, 33, 63
9, 9448, Note_on_c, 7, 33, 0
9, 11016, Note_on_c, 7, 45, 95
9, 11036, Note_on_c, 7, 45, 0
9, 11040, Note_on_c, 7, 50, 95
9, 11060, Note_on_c, 7, 50, 0
9, 11064, Note_on_c, 7, 49, 95
9, 11084, Note_on_c, 7, 49, 0
9, 11088, Note_on_c, 7, 47, 95
9, 11108, Note_on_c, 7, 47, 0
9, 11112, Note_on_c, 7, 45, 95
9, 11132, Note_on_c, 7, 45, 0
9, 11136, Note_on_c, 7, 43, 95
9, 11156, Note_on_c, 7, 43, 0
9, 11160, Note_on_c, 7, 42, 95
9, 11180, Note_on_c, 7, 42, 0
9, 11184, Note_on_c, 7, 40, 95
9, 11204, Note_on_c, 7, 40, 0
9, 11208, Note_on_c, 7, 38, 95
9, 11228, Note_on_c, 7, 38, 0
9, 11232, Note_on_c, 7, 37, 95
9, 11252, Note_on_c, 7, 37, 0
9, 11256, Note_on_c, 7, 38, 95
9, 11276, Note_on_c, 7, 38, 0
9, 11280, Note_on_c, 7, 43, 95
9, 11300, Note_on_c, 7, 43, 0
9, 11304, Note_on_c, 7, 42, 95
9, 11324, Note_on_c, 7, 42, 0
9, 11328, Note_on_c, 7, 40, 95
9, 11348, Note_on_c, 7, 40, 0
9, 11352, Note_on_c, 7, 38, 95
9, 11372, Note_on_c, 7, 38, 0
9, 11376, Note_on_c, 7, 37, 95
9, 11396, Note_on_c, 7, 37, 0
9, 11400, Note_on_c, 7, 33, 95
9, 11420, Note_on_c, 7, 33, 0
9, 11424, Note_on_c, 7, 38, 95
9, 11444, Note_on_c, 7, 38, 0
9, 11448, Note_on_c, 7, 35, 95
9, 11468, Note_on_c, 7, 35, 0
9, 11472, Note_on_c, 7, 31, 95
9, 11492, Note_on_c, 7, 31, 0
9, 11496, Note_on_c, 7, 33, 95
9, 11516, Note_on_c, 7, 33, 0
9, 11520, Note_on_c, 7, 30, 95
9, 11540, Note_on_c, 7, 30, 0
9, 12120, Note_on_c, 7, 33, 63
9, 12140, Note_on_c, 7, 33, 0
9, 12144, Note_on_c, 7, 40, 63
9, 12164, Note_on_c, 7, 40, 0
9, 12168, Note_on_c, 7, 38, 63
9, 12188, Note_on_c, 7, 38, 0
9, 12192, Note_on_c, 7, 37, 63
9, 12212, Note_on_c, 7, 37, 0
9, 12792, Note_on_c, 7, 40, 63
9, 12812, Note_on_c, 7, 40, 0
9, 12816, Note_on_c, 7, 47, 63
9, 12836, Note_on_c, 7, 47, 0
9, 12840, Note_on_c, 7, 35, 63
9, 12860, Note_on_c, 7, 35, 0
9, 12864, Note_on_c, 7, 40, 63
9, 12884, Note_on_c, 7, 40, 0
9, 13440, Note_on_c, 7, 42, 63
9, 13480, Note_on_c, 7, 42, 0
9, 13632, Note_on_c, 7, 42, 63
9, 13672, Note_on_c, 7, 42, 0
9, 13824, Note_on_c, 7, 44, 63
9, 13864, Note_on_c, 7, 44, 0
9, 13920, Note_on_c, 7, 37, 63
9, 13960, Note_on_c, 7, 37, 0
9, 14016, Note_on_c, 7, 42, 63
9, 14056, Note_on_c, 7, 42, 0
9, 14208, Note_on_c, 7, 42, 63
9, 14248, Note_on_c, 7, 42, 0
9, 14400, Note_on_c, 7, 47, 63
9, 14440, Note_on_c, 7, 47, 0
9, 14496, Note_on_c, 7, 40, 63
9, 14536, Note_on_c, 7, 40, 0
9, 14592, Note_on_c, 7, 45, 63
9, 14632, Note_on_c, 7, 45, 0
9, 14784, Note_on_c, 7, 33, 63
9, 14824, Note_on_c, 7, 33, 0
9, 14976, Note_on_c, 7, 33, 63
9, 15016, Note_on_c, 7, 33, 0
9, 15168, Note_on_c, 7, 33, 63
9, 15208, Note_on_c, 7, 33, 0
9, 15360, Note_on_c, 7, 45, 63
9, 15400, Note_on_c, 7, 45, 0
9, 15552, Note_on_c, 7, 44, 63
9, 15592, Note_on_c, 7, 44, 0
9, 15744, Note_on_c, 7, 44, 63
9, 15784, Note_on_c, 7, 44, 0
9, 15936, Note_on_c, 7, 42, 63
9, 15976, Note_on_c, 7, 42, 0
9, 16128, Note_on_c, 7, 42, 63
9, 16168, Note_on_c, 7, 42, 0
9, 16320, Note_on_c, 7, 40, 63
9, 16360, Note_on_c, 7, 40, 0
9, 16512, Note_on_c, 7, 40, 63
9, 16552, Note_on_c, 7, 40, 0
9, 16704, Note_on_c, 7, 38, 63
9, 16744, Note_on_c, 7, 38, 0
9, 16896, Note_on_c, 7, 38, 63
9, 16936, Note_on_c, 7, 38, 0
9, 17088, Note_on_c, 7, 37, 63
9, 17128, Note_on_c, 7, 37, 0
9, 17280, Note_on_c, 7, 37, 63
9, 17320, Note_on_c, 7, 37, 0
9, 17472, Note_on_c, 7, 35, 63
9, 17512, Note_on_c, 7, 35, 0
9, 17664, Note_on_c, 7, 28, 63
9, 17704, Note_on_c, 7, 28, 0
9, 17856, Note_on_c, 7, 28, 63
9, 17896, Note_on_c, 7, 28, 0
9, 18048, Note_on_c, 7, 28, 63
9, 18088, Note_on_c, 7, 28, 0
9, 18240, Note_on_c, 7, 28, 63
9, 18280, Note_on_c, 7, 28, 0
9, 18432, Note_on_c, 7, 28, 63
9, 18472, Note_on_c, 7, 28, 0
9, 18624, Note_on_c, 7, 28, 63
9, 18664, Note_on_c, 7, 28, 0
9, 18816, Note_on_c, 7, 28, 63
9, 18856, Note_on_c, 7, 28, 0
9, 19008, Note_on_c, 7, 28, 63
9, 19048, Note_on_c, 7, 28, 0
9, 19200, Note_on_c, 7, 33, 95
9, 19240, Note_on_c, 7, 33, 0
9, 19272, Note_on_c, 7, 33, 95
9, 19293, Note_on_c, 7, 33, 0
9, 19296, Note_on_c, 7, 40, 95
9, 19317, Note_on_c, 7, 40, 0
9, 19320, Note_on_c, 7, 42, 95
9, 19341, Note_on_c, 7, 42, 0
9, 19344, Note_on_c, 7, 44, 95
9, 19365, Note_on_c, 7, 44, 0
9, 19368, Note_on_c, 7, 40, 95
9, 19389, Note_on_c, 7, 40, 0
9, 19392, Note_on_c, 7, 37, 95
9, 19413, Note_on_c, 7, 37, 0
9, 19416, Note_on_c, 7, 35, 95
9, 19437, Note_on_c, 7, 35, 0
9, 19440, Note_on_c, 7, 37, 95
9, 19461, Note_on_c, 7, 37, 0
9, 19464, Note_on_c, 7, 33, 95
9, 19485, Note_on_c, 7, 33, 0
9, 19488, Note_on_c, 7, 40, 95
9, 19509, Note_on_c, 7, 40, 0
9, 20064, Note_on_c, 7, 28, 56
9, 20084, Note_on_c, 7, 28, 0
9, 20088, Note_on_c, 7, 33, 56
9, 20128, Note_on_c, 7, 33, 0
9, 20616, Note_on_c, 7, 33, 56
9, 20636, Note_on_c, 7, 33, 0
9, 20640, Note_on_c, 7, 38, 56
9, 20680, Note_on_c, 7, 38, 0
9, 20832, Note_on_c, 7, 50, 63
9, 20842, Note_on_c, 7, 50, 0
9, 20844, Note_on_c, 7, 50, 63
9, 20854, Note_on_c, 7, 50, 0
9, 20856, Note_on_c, 7, 45, 63
9, 20866, Note_on_c, 7, 45, 0
9, 20868, Note_on_c, 7, 45, 63
9, 20878, Note_on_c, 7, 45, 0
9, 20880, Note_on_c, 7, 42, 63
9, 20890, Note_on_c, 7, 42, 0
9, 20892, Note_on_c, 7, 42, 63
9, 20902, Note_on_c, 7, 42, 0
9, 20904, Note_on_c, 7, 38, 63
9, 20914, Note_on_c, 7, 38, 0
9, 20916, Note_on_c, 7, 38, 63
9, 20926, Note_on_c, 7, 38, 0
9, 20928, Note_on_c, 7, 45, 63
9, 20938, Note_on_c, 7, 45, 0
9, 20940, Note_on_c, 7, 45, 63
9, 20950, Note_on_c, 7, 45, 0
9, 20952, Note_on_c, 7, 40, 63
9, 20962, Note_on_c, 7, 40, 0
9, 20964, Note_on_c, 7, 40, 63
9, 20974, Note_on_c, 7, 40, 0
9, 20976, Note_on_c, 7, 37, 63
9, 20986, Note_on_c, 7, 37, 0
9, 20988, Note_on_c, 7, 37, 63
9, 20998, Note_on_c, 7, 37, 0
9, 21000, Note_on_c, 7, 33, 63
9, 21010, Note_on_c, 7, 33, 0
9, 21012, Note_on_c, 7, 33, 63
9, 21022, Note_on_c, 7, 33, 0
9, 21024, Note_on_c, 7, 38, 63
9, 21064, Note_on_c, 7, 38, 0
9, 21312, Note_on_c, 7, 38, 63
9, 21352, Note_on_c, 7, 38, 0
9, 21384, Note_on_c, 7, 38, 63
9, 21404, Note_on_c, 7, 38, 0
9, 21408, Note_on_c, 7, 45, 63
9, 21428, Note_on_c, 7, 45, 0
9, 21432, Note_on_c, 7, 33, 63
9, 21452, Note_on_c, 7, 33, 0
9, 21456, Note_on_c, 7, 35, 63
9, 21476, Note_on_c, 7, 35, 0
9, 21480, Note_on_c, 7, 37, 63
9, 21500, Note_on_c, 7, 37, 0
9, 21504, Note_on_c, 7, 38, 63
9, 21544, Note_on_c, 7, 38, 0
9, 21792, Note_on_c, 7, 38, 63
9, 21832, Note_on_c, 7, 38, 0
9, 21864, Note_on_c, 7, 26, 63
9, 21884, Note_on_c, 7, 26, 0
9, 21888, Note_on_c, 7, 33, 63
9, 21928, Note_on_c, 7, 33, 0
9, 23040, Note_on_c, 7, 38, 95
9, 23080, Note_on_c, 7, 38, 0
9, 23112, Note_on_c, 7, 38, 95
9, 23132, Note_on_c, 7, 38, 0
9, 23136, Note_on_c, 7, 45, 95
9, 23156, Note_on_c, 7, 45, 0
9, 23160, Note_on_c, 7, 47, 95
9, 23180, Note_on_c, 7, 47, 0
9, 23184, Note_on_c, 7, 49, 95
9, 23204, Note_on_c, 7, 49, 0
9, 23208, Note_on_c, 7, 45, 95
9, 23228, Note_on_c, 7, 45, 0
9, 23232, Note_on_c, 7, 42, 95
9, 23252, Note_on_c, 7, 42, 0
9, 23256, Note_on_c, 7, 40, 95
9, 23276, Note_on_c, 7, 40, 0
9, 23280, Note_on_c, 7, 42, 95
9, 23300, Note_on_c, 7, 42, 0
9, 23304, Note_on_c, 7, 38, 95
9, 23324, Note_on_c, 7, 38, 0
9, 23328, Note_on_c, 7, 45, 95
9, 23348, Note_on_c, 7, 45, 0
9, 23352, Note_on_c, 7, 47, 95
9, 23372, Note_on_c, 7, 47, 0
9, 23376, Note_on_c, 7, 49, 95
9, 23396, Note_on_c, 7, 49, 0
9, 23400, Note_on_c, 7, 45, 95
9, 23420, Note_on_c, 7, 45, 0
9, 23424, Note_on_c, 7, 50, 95
9, 23444, Note_on_c, 7, 50, 0
9, 23448, Note_on_c, 7, 49, 95
9, 23468, Note_on_c, 7, 49, 0
9, 23472, Note_on_c, 7, 47, 95
9, 23492, Note_on_c, 7, 47, 0
9, 23496, Note_on_c, 7, 45, 95
9, 23516, Note_on_c, 7, 45, 0
9, 23520, Note_on_c, 7, 43, 95
9, 23540, Note_on_c, 7, 43, 0
9, 23544, Note_on_c, 7, 42, 95
9, 23564, Note_on_c, 7, 42, 0
9, 23568, Note_on_c, 7, 40, 95
9, 23588, Note_on_c, 7, 40, 0
9, 23592, Note_on_c, 7, 38, 95
9, 23612, Note_on_c, 7, 38, 0
9, 23616, Note_on_c, 7, 37, 95
9, 23636, Note_on_c, 7, 37, 0
9, 23640, Note_on_c, 7, 38, 95
9, 23660, Note_on_c, 7, 38, 0
9, 23664, Note_on_c, 7, 43, 95
9, 23684, Note_on_c, 7, 43, 0
9, 23688, Note_on_c, 7, 42, 95
9, 23708, Note_on_c, 7, 42, 0
9, 23712, Note_on_c, 7, 40, 95
9, 23732, Note_on_c, 7, 40, 0
9, 23736, Note_on_c, 7, 38, 95
9, 23756, Note_on_c, 7, 38, 0
9, 23760, Note_on_c, 7, 37, 95
9, 23780, Note_on_c, 7, 37, 0
9, 23784, Note_on_c, 7, 33, 95
9, 23804, Note_on_c, 7, 33, 0
9, 23808, Note_on_c, 7, 38, 95
9, 23828, Note_on_c, 7, 38, 0
9, 23832, Note_on_c, 7, 35, 95
9, 23852, Note_on_c, 7, 35, 0
9, 23856, Note_on_c, 7, 31, 95
9, 23876, Note_on_c, 7, 31, 0
9, 23880, Note_on_c, 7, 33, 95
9, 23900, Note_on_c, 7, 33, 0
9, 23904, Note_on_c, 7, 36, 95
9, 23944, Note_on_c, 7, 36, 0
9, 24504, Note_on_c, 7, 38, 63
9, 24524, Note_on_c, 7, 38, 0
9, 24528, Note_on_c, 7, 45, 63
9, 24548, Note_on_c, 7, 45, 0
9, 24552, Note_on_c, 7, 43, 63
9, 24572, Note_on_c, 7, 43, 0
9, 24576, Note_on_c, 7, 42, 63
9, 24596, Note_on_c, 7, 42, 0
9, 25176, Note_on_c, 7, 33, 63
9, 25196, Note_on_c, 7, 33, 0
9, 25200, Note_on_c, 7, 40, 63
9, 25220, Note_on_c, 7, 40, 0
9, 25224, Note_on_c, 7, 38, 63
9, 25244, Note_on_c, 7, 38, 0
9, 25248, Note_on_c, 7, 37, 63
9, 25268, Note_on_c, 7, 37, 0
9, 25320, Note_on_c, 7, 38, 63
9, 25340, Note_on_c, 7, 38, 0
9, 25344, Note_on_c, 7, 31, 63
9, 25364, Note_on_c, 7, 31, 0
9, 25416, Note_on_c, 7, 43, 63
9, 25436, Note_on_c, 7, 43, 0
9, 25440, Note_on_c, 7, 42, 63
9, 25460, Note_on_c, 7, 42, 0
9, 25512, Note_on_c, 7, 35, 63
9, 25532, Note_on_c, 7, 35, 0
9, 25536, Note_on_c, 7, 40, 63
9, 25556, Note_on_c, 7, 40, 0
9, 25608, Note_on_c, 7, 33, 63
9, 25628, Note_on_c, 7, 33, 0
9, 25632, Note_on_c, 7, 38, 63
9, 25652, Note_on_c, 7, 38, 0
9, 25704, Note_on_c, 7, 38, 63
9, 25724, Note_on_c, 7, 38, 0
9, 25728, Note_on_c, 7, 45, 63
9, 25887, Note_on_c, 7, 45, 0
9, 25920, Note_on_c, 7, 45, 63
9, 26000, Note_on_c, 7, 45, 0
9, 26016, Note_on_c, 7, 33, 63
9, 26036, Note_on_c, 7, 33, 0
9, 26040, Note_on_c, 7, 45, 95
9, 26050, Note_on_c, 7, 45, 0
9, 26052, Note_on_c, 7, 47, 95
9, 26062, Note_on_c, 7, 47, 0
9, 26064, Note_on_c, 7, 49, 95
9, 26074, Note_on_c, 7, 49, 0
9, 26076, Note_on_c, 7, 50, 95
9, 26086, Note_on_c, 7, 50, 0
9, 26088, Note_on_c, 7, 52, 95
9, 26098, Note_on_c, 7, 52, 0
9, 26100, Note_on_c, 7, 49, 95
9, 26110, Note_on_c, 7, 49, 0
9, 26112, Note_on_c, 7, 50, 95
9, 26132, Note_on_c, 7, 50, 0
9, 26136, Note_on_c, 7, 49, 95
9, 26156, Note_on_c, 7, 49, 0
9, 26160, Note_on_c, 7, 47, 95
9, 26180, Note_on_c, 7, 47, 0
9, 26184, Note_on_c, 7, 45, 95
9, 26204, Note_on_c, 7, 45, 0
9, 26208, Note_on_c, 7, 43, 95
9, 26228, Note_on_c, 7, 43, 0
9, 26232, Note_on_c, 7, 42, 95
9, 26252, Note_on_c, 7, 42, 0
9, 26256, Note_on_c, 7, 40, 95
9, 26276, Note_on_c, 7, 40, 0
9, 26280, Note_on_c, 7, 38, 95
9, 26300, Note_on_c, 7, 38, 0
9, 26304, Note_on_c, 7, 49, 95
9, 26324, Note_on_c, 7, 49, 0
9, 26328, Note_on_c, 7, 50, 95
9, 26348, Note_on_c, 7, 50, 0
9, 26352, Note_on_c, 7, 43, 95
9, 26372, Note_on_c, 7, 43, 0
9, 26376, Note_on_c, 7, 42, 95
9, 26396, Note_on_c, 7, 42, 0
9, 26400, Note_on_c, 7, 40, 95
9, 26420, Note_on_c, 7, 40, 0
9, 26424, Note_on_c, 7, 38, 95
9, 26444, Note_on_c, 7, 38, 0
9, 26448, Note_on_c, 7, 37, 95
9, 26468, Note_on_c, 7, 37, 0
9, 26472, Note_on_c, 7, 49, 95
9, 26492, Note_on_c, 7, 49, 0
9, 26496, Note_on_c, 7, 50, 95
9, 26516, Note_on_c, 7, 50, 0
9, 26520, Note_on_c, 7, 47, 95
9, 26540, Note_on_c, 7, 47, 0
9, 26544, Note_on_c, 7, 43, 95
9, 26564, Note_on_c, 7, 43, 0
9, 26568, Note_on_c, 7, 45, 95
9, 26588, Note_on_c, 7, 45, 0
9, 26592, Note_on_c, 7, 42, 95
9, 26612, Note_on_c, 7, 42, 0
9, 26664, Note_on_c, 7, 50, 63
9, 26684, Note_on_c, 7, 50, 0
9, 26688, Note_on_c, 7, 31, 63
9, 26708, Note_on_c, 7, 31, 0
9, 26760, Note_on_c, 7, 31, 63
9, 26780, Note_on_c, 7, 31, 0
9, 26784, Note_on_c, 7, 28, 63
9, 26804, Note_on_c, 7, 28, 0
9, 26856, Note_on_c, 7, 40, 63
9, 26876, Note_on_c, 7, 40, 0
9, 26880, Note_on_c, 7, 33, 63
9, 26900, Note_on_c, 7, 33, 0
9, 26952, Note_on_c, 7, 33, 63
9, 26972, Note_on_c, 7, 33, 0
9, 26976, Note_on_c, 7, 30, 63
9, 26996, Note_on_c, 7, 30, 0
9, 27048, Note_on_c, 7, 42, 63
9, 27068, Note_on_c, 7, 42, 0
9, 27072, Note_on_c, 7, 35, 63
9, 27092, Note_on_c, 7, 35, 0
9, 27144, Note_on_c, 7, 35, 63
9, 27164, Note_on_c, 7, 35, 0
9, 27168, Note_on_c, 7, 33, 63
9, 27188, Note_on_c, 7, 33, 0
9, 27240, Note_on_c, 7, 45, 63
9, 27260, Note_on_c, 7, 45, 0
9, 27264, Note_on_c, 7, 38, 63
9, 27284, Note_on_c, 7, 38, 0
9, 41952, Note_on_c, 7, 38, 95
9, 42000, Note_on_c, 7, 38, 0
9, 42024, Note_on_c, 7, 38, 95
9, 42048, Note_on_c, 7, 38, 0
9, 42048, Note_on_c, 7, 45, 95
9, 42072, Note_on_c, 7, 45, 0
9, 42072, Note_on_c, 7, 47, 95
9, 42096, Note_on_c, 7, 47, 0
9, 42096, Note_on_c, 7, 49, 95
9, 42120, Note_on_c, 7, 49, 0
9, 42120, Note_on_c, 7, 45, 95
9, 42144, Note_on_c, 7, 45, 0
9, 42144, Note_on_c, 7, 42, 95
9, 42168, Note_on_c, 7, 42, 0
9, 42168, Note_on_c, 7, 40, 95
9, 42192, Note_on_c, 7, 40, 0
9, 42192, Note_on_c, 7, 42, 95
9, 42216, Note_on_c, 7, 42, 0
9, 42216, Note_on_c, 7, 38, 95
9, 42240, Note_on_c, 7, 38, 0
9, 42240, Note_on_c, 7, 45, 95
9, 42264, Note_on_c, 7, 45, 0
9, 42264, Note_on_c, 7, 47, 95
9, 42288, Note_on_c, 7, 47, 0
9, 42288, Note_on_c, 7, 49, 95
9, 42312, Note_on_c, 7, 49, 0
9, 42312, Note_on_c, 7, 45, 95
9, 42336, Note_on_c, 7, 45, 0
9, 42336, Note_on_c, 7, 50, 95
9, 42360, Note_on_c, 7, 50, 0
9, 42360, Note_on_c, 7, 49, 95
9, 42384, Note_on_c, 7, 49, 0
9, 42384, Note_on_c, 7, 47, 95
9, 42408, Note_on_c, 7, 47, 0
9, 42408, Note_on_c, 7, 45, 95
9, 42432, Note_on_c, 7, 45, 0
9, 42432, Note_on_c, 7, 43, 95
9, 42456, Note_on_c, 7, 43, 0
9, 42456, Note_on_c, 7, 42, 95
9, 42480, Note_on_c, 7, 42, 0
9, 42480, Note_on_c, 7, 40, 95
9, 42504, Note_on_c, 7, 40, 0
9, 42504, Note_on_c, 7, 38, 95
9, 42528, Note_on_c, 7, 38, 0
9, 42528, Note_on_c, 7, 37, 95
9, 42552, Note_on_c, 7, 37, 0
9, 42552, Note_on_c, 7, 38, 95
9, 42576, Note_on_c, 7, 38, 0
9, 42576, Note_on_c, 7, 43, 95
9, 42600, Note_on_c, 7, 43, 0
9, 42600, Note_on_c, 7, 42, 95
9, 42624, Note_on_c, 7, 42, 0
9, 42624, Note_on_c, 7, 40, 95
9, 42648, Note_on_c, 7, 40, 0
9, 42648, Note_on_c, 7, 38, 95
9, 42672, Note_on_c, 7, 38, 0
9, 42672, Note_on_c, 7, 37, 95
9, 42696, Note_on_c, 7, 37, 0
9, 42696, Note_on_c, 7, 33, 95
9, 42720, Note_on_c, 7, 33, 0
9, 42720, Note_on_c, 7, 38, 95
9, 42744, Note_on_c, 7, 38, 0
9, 42744, Note_on_c, 7, 35, 95
9, 42768, Note_on_c, 7, 35, 0
9, 42768, Note_on_c, 7, 31, 95
9, 42792, Note_on_c, 7, 31, 0
9, 42792, Note_on_c, 7, 33, 95
9, 42816, Note_on_c, 7, 33, 0
9, 42816, Note_on_c, 7, 35, 95
9, 42828, Note_on_c, 7, 35, 0
9, 42828, Note_on_c, 7, 37, 95
9, 42840, Note_on_c, 7, 37, 0
9, 42840, Note_on_c, 7, 38, 95
9, 42852, Note_on_c, 7, 38, 0
9, 42852, Note_on_c, 7, 40, 95
9, 42864, Note_on_c, 7, 40, 0
9, 42864, Note_on_c, 7, 42, 95
9, 42876, Note_on_c, 7, 42, 0
9, 42876, Note_on_c, 7, 43, 95
9, 42888, Note_on_c, 7, 43, 0
9, 42888, Note_on_c, 7, 45, 95
9, 42900, Note_on_c, 7, 45, 0
9, 42900, Note_on_c, 7, 42, 95
9, 42912, Note_on_c, 7, 42, 0
9, 42912, Note_on_c, 7, 47, 95
9, 42936, Note_on_c, 7, 47, 0
9, 42936, Note_on_c, 7, 45, 95
9, 42960, Note_on_c, 7, 45, 0
9, 42960, Note_on_c, 7, 43, 95
9, 42984, Note_on_c, 7, 43, 0
9, 42984, Note_on_c, 7, 42, 95
9, 43008, Note_on_c, 7, 42, 0
9, 43008, Note_on_c, 7, 40, 95
9, 43032, Note_on_c, 7, 40, 0
9, 43032, Note_on_c, 7, 38, 95
9, 43056, Note_on_c, 7, 38, 0
9, 43056, Note_on_c, 7, 37, 95
9, 43080, Note_on_c, 7, 37, 0
9, 43080, Note_on_c, 7, 33, 95
9, 43104, Note_on_c, 7, 33, 0
9, 43104, Note_on_c, 7, 38, 95
9, 43128, Note_on_c, 7, 38, 0
9, 43128, Note_on_c, 7, 42, 95
9, 43152, Note_on_c, 7, 42, 0
9, 43152, Note_on_c, 7, 43, 95
9, 43176, Note_on_c, 7, 43, 0
9, 43176, Note_on_c, 7, 45, 95
9, 43188, Note_on_c, 7, 45, 0
9, 43188, Note_on_c, 7, 43, 95
9, 43200, Note_on_c, 7, 43, 0
9, 43200, Note_on_c, 7, 42, 95
9, 43224, Note_on_c, 7, 42, 0
9, 43224, Note_on_c, 7, 43, 95
9, 43248, Note_on_c, 7, 43, 0
9, 43272, Note_on_c, 7, 37, 95
9, 43284, Note_on_c, 7, 37, 0
9, 43284, Note_on_c, 7, 37, 95
9, 43296, Note_on_c, 7, 37, 0
9, 43296, Note_on_c, 7, 38, 95
9, 43308, Note_on_c, 7, 38, 0
9, 43308, Note_on_c, 7, 38, 95
9, 43320, Note_on_c, 7, 38, 0
9, 43320, Note_on_c, 7, 37, 95
9, 43332, Note_on_c, 7, 37, 0
9, 43332, Note_on_c, 7, 37, 95
9, 43344, Note_on_c, 7, 37, 0
9, 43344, Note_on_c, 7, 38, 95
9, 43356, Note_on_c, 7, 38, 0
9, 43356, Note_on_c, 7, 38, 95
9, 43368, Note_on_c, 7, 38, 0
9, 43368, Note_on_c, 7, 30, 95
9, 43380, Note_on_c, 7, 30, 0
9, 43380, Note_on_c, 7, 30, 95
9, 43392, Note_on_c, 7, 30, 0
9, 43392, Note_on_c, 7, 31, 95
9, 43416, Note_on_c, 7, 31, 0
9, 43416, Note_on_c, 7, 43, 95
9, 43440, Note_on_c, 7, 43, 0
9, 43440, Note_on_c, 7, 45, 95
9, 43464, Note_on_c, 7, 45, 0
9, 43464, Note_on_c, 7, 33, 95
9, 43488, Note_on_c, 7, 33, 0
9, 43488, Note_on_c, 7, 38, 95
9, 43536, Note_on_c, 7, 38, 0
9, 65040, Note_on_c, 7, 30, 95
9, 65056, Note_on_c, 7, 30, 0
9, 65088, Note_on_c, 7, 31, 95
9, 65104, Note_on_c, 7, 31, 0
9, 65136, Note_on_c, 7, 33, 95
9, 65152, Note_on_c, 7, 33, 0
9, 65184, Note_on_c, 7, 35, 95
9, 65200, Note_on_c, 7, 35, 0
9, 65232, Note_on_c, 7, 37, 95
9, 65248, Note_on_c, 7, 37, 0
9, 65280, Note_on_c, 7, 38, 95
9, 65296, Note_on_c, 7, 38, 0
9, 65328, Note_on_c, 7, 40, 95
9, 65344, Note_on_c, 7, 40, 0
9, 65376, Note_on_c, 7, 42, 95
9, 65392, Note_on_c, 7, 42, 0
9, 65424, Note_on_c, 7, 42, 95
9, 65440, Note_on_c, 7, 42, 0
9, 65472, Note_on_c, 7, 43, 95
9, 65488, Note_on_c, 7, 43, 0
9, 65520, Note_on_c, 7, 45, 95
9, 65536, Note_on_c, 7, 45, 0
9, 65568, Note_on_c, 7, 47, 95
9, 65584, Note_on_c, 7, 47, 0
9, 65616, Note_on_c, 7, 45, 95
9, 65632, Note_on_c, 7, 45, 0
9, 65664, Note_on_c, 7, 47, 95
9, 65680, Note_on_c, 7, 47, 0
9, 65712, Note_on_c, 7, 49, 95
9, 65728, Note_on_c, 7, 49, 0
9, 65760, Note_on_c, 7, 50, 95
9, 65776, Note_on_c, 7, 50, 0
9, 65988, Note_on_c, 7, 45, 95
9, 65996, Note_on_c, 7, 45, 0
9, 66000, Note_on_c, 7, 50, 95
9, 66024, Note_on_c, 7, 50, 0
9, 66036, Note_on_c, 7, 45, 95
9, 66044, Note_on_c, 7, 45, 0
9, 66048, Note_on_c, 7, 47, 95
9, 66059, Note_on_c, 7, 47, 0
9, 66064, Note_on_c, 7, 45, 95
9, 66075, Note_on_c, 7, 45, 0
9, 66080, Note_on_c, 7, 43, 95
9, 66091, Note_on_c, 7, 43, 0
9, 66096, Note_on_c, 7, 42, 95
9, 66107, Note_on_c, 7, 42, 0
9, 66112, Note_on_c, 7, 43, 95
9, 66123, Note_on_c, 7, 43, 0
9, 66128, Note_on_c, 7, 45, 95
9, 66139, Note_on_c, 7, 45, 0
9, 66144, Note_on_c, 7, 38, 95
9, 66160, Note_on_c, 7, 38, 0
9, 66192, Note_on_c, 7, 40, 95
9, 66208, Note_on_c, 7, 40, 0
9, 66240, Note_on_c, 7, 42, 95
9, 66256, Note_on_c, 7, 42, 0
9, 66288, Note_on_c, 7, 30, 85
9, 66304, Note_on_c, 7, 30, 0
9, 66336, Note_on_c, 7, 31, 85
9, 66368, Note_on_c, 7, 31, 0
9, 66384, Note_on_c, 7, 33, 85
9, 66416, Note_on_c, 7, 33, 0
9, 66432, Note_on_c, 7, 35, 85
9, 66464, Note_on_c, 7, 35, 0
9, 66480, Note_on_c, 7, 37, 67
9, 66512, Note_on_c, 7, 37, 0
9, 66528, Note_on_c, 7, 38, 85
9, 66560, Note_on_c, 7, 38, 0
9, 66576, Note_on_c, 7, 40, 85
9, 66608, Note_on_c, 7, 40, 0
9, 66624, Note_on_c, 7, 42, 74
9, 66656, Note_on_c, 7, 42, 0
9, 66672, Note_on_c, 7, 43, 85
9, 66704, Note_on_c, 7, 43, 0
9, 66720, Note_on_c, 7, 45, 85
9, 66752, Note_on_c, 7, 45, 0
9, 66768, Note_on_c, 7, 47, 85
9, 66800, Note_on_c, 7, 47, 0
9, 66816, Note_on_c, 7, 49, 66
9, 66840, Note_on_c, 7, 49, 0
9, 66852, Note_on_c, 7, 45, 85
9, 66860, Note_on_c, 7, 45, 0
9, 66864, Note_on_c, 7, 50, 85
9, 66888, Note_on_c, 7, 50, 0
9, 66900, Note_on_c, 7, 45, 85
9, 66908, Note_on_c, 7, 45, 0
9, 66912, Note_on_c, 7, 47, 69
9, 66925, Note_on_c, 7, 47, 0
9, 66928, Note_on_c, 7, 45, 81
9, 66941, Note_on_c, 7, 45, 0
9, 66944, Note_on_c, 7, 43, 77
9, 66957, Note_on_c, 7, 43, 0
9, 66960, Note_on_c, 7, 42, 62
9, 66973, Note_on_c, 7, 42, 0
9, 66976, Note_on_c, 7, 43, 85
9, 66989, Note_on_c, 7, 43, 0
9, 66992, Note_on_c, 7, 45, 85
9, 67005, Note_on_c, 7, 45, 0
9, 67008, Note_on_c, 7, 38, 85
9, 67021, Note_on_c, 7, 38, 0
9, 67024, Note_on_c, 7, 42, 68
9, 67037, Note_on_c, 7, 42, 0
9, 67040, Note_on_c, 7, 40, 85
9, 67053, Note_on_c, 7, 40, 0
9, 67056, Note_on_c, 7, 38, 85
9, 67069, Note_on_c, 7, 38, 0
9, 67072, Note_on_c, 7, 40, 85
9, 67085, Note_on_c, 7, 40, 0
9, 67088, Note_on_c, 7, 42, 85
9, 67101, Note_on_c, 7, 42, 0
9, 67104, Note_on_c, 7, 43, 77
9, 67123, Note_on_c, 7, 43, 0
9, 67152, Note_on_c, 7, 45, 85
9, 67171, Note_on_c, 7, 45, 0
9, 67200, Note_on_c, 7, 47, 85
9, 67219, Note_on_c, 7, 47, 0
9, 67248, Note_on_c, 7, 35, 74
9, 67267, Note_on_c, 7, 35, 0
9, 67344, Note_on_c, 7, 47, 74
9, 67363, Note_on_c, 7, 47, 0
9, 67392, Note_on_c, 7, 42, 69
9, 67411, Note_on_c, 7, 42, 0
9, 67440, Note_on_c, 7, 30, 74
9, 67459, Note_on_c, 7, 30, 0
9, 67536, Note_on_c, 7, 42, 66
9, 67555, Note_on_c, 7, 42, 0
9, 67584, Note_on_c, 7, 44, 67
9, 67603, Note_on_c, 7, 44, 0
9, 67632, Note_on_c, 7, 32, 60
9, 67651, Note_on_c, 7, 32, 0
9, 67728, Note_on_c, 7, 44, 56
9, 67747, Note_on_c, 7, 44, 0
9, 67776, Note_on_c, 7, 45, 74
9, 67795, Note_on_c, 7, 45, 0
9, 68196, Note_on_c, 7, 45, 85
9, 68204, Note_on_c, 7, 45, 0
9, 68208, Note_on_c, 7, 50, 56
9, 68232, Note_on_c, 7, 50, 0
9, 68244, Note_on_c, 7, 45, 85
9, 68252, Note_on_c, 7, 45, 0
9, 68256, Note_on_c, 7, 47, 60
9, 68267, Note_on_c, 7, 47, 0
9, 68272, Note_on_c, 7, 45, 85
9, 68283, Note_on_c, 7, 45, 0
9, 68288, Note_on_c, 7, 43, 85
9, 68299, Note_on_c, 7, 43, 0
9, 68304, Note_on_c, 7, 45, 85
9, 68328, Note_on_c, 7, 45, 0
9, 68340, Note_on_c, 7, 45, 85
9, 68348, Note_on_c, 7, 45, 0
9, 68352, Note_on_c, 7, 38, 85
9, 68368, Note_on_c, 7, 38, 0
9, 68580, Note_on_c, 7, 43, 91
9, 68588, Note_on_c, 7, 43, 0
9, 68592, Note_on_c, 7, 50, 98
9, 68616, Note_on_c, 7, 50, 0
9, 68628, Note_on_c, 7, 45, 85
9, 68636, Note_on_c, 7, 45, 0
9, 68640, Note_on_c, 7, 47, 85
9, 68651, Note_on_c, 7, 47, 0
9, 68656, Note_on_c, 7, 45, 85
9, 68667, Note_on_c, 7, 45, 0
9, 68672, Note_on_c, 7, 43, 85
9, 68683, Note_on_c, 7, 43, 0
9, 68688, Note_on_c, 7, 42, 72
9, 68699, Note_on_c, 7, 42, 0
9, 68704, Note_on_c, 7, 44, 72
9, 68715, Note_on_c, 7, 44, 0
9, 68720, Note_on_c, 7, 45, 85
9, 68731, Note_on_c, 7, 45, 0
9, 68736, Note_on_c, 7, 44, 67
9, 68752, Note_on_c, 7, 44, 0
9, 68784, Note_on_c, 7, 32, 64
9, 68800, Note_on_c, 7, 32, 0
9, 68880, Note_on_c, 7, 44, 60
9, 68896, Note_on_c, 7, 44, 0
9, 68928, Note_on_c, 7, 44, 56
9, 68944, Note_on_c, 7, 44, 0
9, 68976, Note_on_c, 7, 32, 74
9, 68992, Note_on_c, 7, 32, 0
9, 69072, Note_on_c, 7, 44, 62
9, 69088, Note_on_c, 7, 44, 0
9, 69120, Note_on_c, 7, 45, 85
9, 69136, Note_on_c, 7, 45, 0
9, 69204, Note_on_c, 7, 42, 85
9, 69212, Note_on_c, 7, 42, 0
9, 69216, Note_on_c, 7, 47, 85
9, 69232, Note_on_c, 7, 47, 0
9, 69300, Note_on_c, 7, 43, 85
9, 69308, Note_on_c, 7, 43, 0
9, 69312, Note_on_c, 7, 49, 82
9, 69328, Note_on_c, 7, 49, 0
9, 69396, Note_on_c, 7, 47, 85
9, 69404, Note_on_c, 7, 47, 0
9, 69408, Note_on_c, 7, 50, 85
9, 69424, Note_on_c, 7, 50, 0
9, 69456, Note_on_c, 7, 42, 97
9, 69472, Note_on_c, 7, 42, 0
9, 69504, Note_on_c, 7, 43, 89
9, 69520, Note_on_c, 7, 43, 0
9, 69552, Note_on_c, 7, 45, 85
9, 69568, Note_on_c, 7, 45, 0
9, 69600, Note_on_c, 7, 47, 62
9, 69611, Note_on_c, 7, 47, 0
9, 69616, Note_on_c, 7, 45, 85
9, 69627, Note_on_c, 7, 45, 0
9, 69632, Note_on_c, 7, 43, 85
9, 69643, Note_on_c, 7, 43, 0
9, 69648, Note_on_c, 7, 45, 85
9, 69672, Note_on_c, 7, 45, 0
9, 69684, Note_on_c, 7, 33, 85
9, 69692, Note_on_c, 7, 33, 0
9, 69696, Note_on_c, 7, 38, 85
9, 69707, Note_on_c, 7, 38, 0
9, 69712, Note_on_c, 7, 42, 68
9, 69723, Note_on_c, 7, 42, 0
9, 69728, Note_on_c, 7, 40, 85
9, 69739, Note_on_c, 7, 40, 0
9, 69744, Note_on_c, 7, 38, 85
9, 69755, Note_on_c, 7, 38, 0
9, 69760, Note_on_c, 7, 40, 85
9, 69771, Note_on_c, 7, 40, 0
9, 69776, Note_on_c, 7, 42, 70
9, 69787, Note_on_c, 7, 42, 0
9, 69792, Note_on_c, 7, 35, 91
9, 69808, Note_on_c, 7, 35, 0
9, 71712, Note_on_c, 7, 30, 78
9, 71728, Note_on_c, 7, 30, 0
9, 71808, Note_on_c, 7, 30, 77
9, 71824, Note_on_c, 7, 30, 0
9, 71904, Note_on_c, 7, 30, 77
9, 71920, Note_on_c, 7, 30, 0
9, 72000, Note_on_c, 7, 30, 77
9, 72016, Note_on_c, 7, 30, 0
9, 72096, Note_on_c, 7, 30, 77
9, 72112, Note_on_c, 7, 30, 0
9, 72192, Note_on_c, 7, 30, 77
9, 72208, Note_on_c, 7, 30, 0
9, 72288, Note_on_c, 7, 30, 77
9, 72304, Note_on_c, 7, 30, 0
9, 72384, Note_on_c, 7, 30, 77
9, 72400, Note_on_c, 7, 30, 0
9, 74544, Note_on_c, 7, 33, 85
9, 74560, Note_on_c, 7, 33, 0
9, 74592, Note_on_c, 7, 35, 85
9, 74608, Note_on_c, 7, 35, 0
9, 74640, Note_on_c, 7, 37, 67
9, 74656, Note_on_c, 7, 37, 0
9, 74688, Note_on_c, 7, 38, 85
9, 74704, Note_on_c, 7, 38, 0
9, 74736, Note_on_c, 7, 39, 72
9, 74752, Note_on_c, 7, 39, 0
9, 74784, Note_on_c, 7, 40, 85
9, 74800, Note_on_c, 7, 40, 0
9, 74832, Note_on_c, 7, 42, 74
9, 74848, Note_on_c, 7, 42, 0
9, 74880, Note_on_c, 7, 43, 85
9, 74896, Note_on_c, 7, 43, 0
9, 74928, Note_on_c, 7, 44, 93
9, 74944, Note_on_c, 7, 44, 0
9, 74976, Note_on_c, 7, 45, 85
9, 74992, Note_on_c, 7, 45, 0
9, 75024, Note_on_c, 7, 47, 85
9, 75040, Note_on_c, 7, 47, 0
9, 75072, Note_on_c, 7, 49, 74
9, 75088, Note_on_c, 7, 49, 0
9, 75120, Note_on_c, 7, 37, 68
9, 75136, Note_on_c, 7, 37, 0
9, 75168, Note_on_c, 7, 38, 85
9, 75184, Note_on_c, 7, 38, 0
9, 75216, Note_on_c, 7, 40, 76
9, 75232, Note_on_c, 7, 40, 0
9, 75264, Note_on_c, 7, 42, 76
9, 75280, Note_on_c, 7, 42, 0
9, 75312, Note_on_c, 7, 30, 76
9, 75328, Note_on_c, 7, 30, 0
9, 75360, Note_on_c, 7, 32, 76
9, 75376, Note_on_c, 7, 32, 0
9, 75408, Note_on_c, 7, 44, 76
9, 75424, Note_on_c, 7, 44, 0
9, 75456, Note_on_c, 7, 45, 76
9, 75472, Note_on_c, 7, 45, 0
9, 75504, Note_on_c, 7, 33, 76
9, 75520, Note_on_c, 7, 33, 0
9, 75552, Note_on_c, 7, 35, 76
9, 75568, Note_on_c, 7, 35, 0
9, 75600, Note_on_c, 7, 47, 76
9, 75616, Note_on_c, 7, 47, 0
9, 75648, Note_on_c, 7, 49, 76
9, 75664, Note_on_c, 7, 49, 0
9, 75696, Note_on_c, 7, 37, 76
9, 75712, Note_on_c, 7, 37, 0
9, 75744, Note_on_c, 7, 38, 76
9, 75760, Note_on_c, 7, 38, 0
9, 75792, Note_on_c, 7, 50, 76
9, 75808, Note_on_c, 7, 50, 0
9, 75840, Note_on_c, 7, 50, 76
9, 75856, Note_on_c, 7, 50, 0
9, 75888, Note_on_c, 7, 49, 76
9, 75904, Note_on_c, 7, 49, 0
9, 75936, Note_on_c, 7, 50, 76
9, 75952, Note_on_c, 7, 50, 0
9, 75984, Note_on_c, 7, 52, 76
9, 76000, Note_on_c, 7, 52, 0
9, 76032, Note_on_c, 7, 54, 62
9, 76043, Note_on_c, 7, 54, 0
9, 76048, Note_on_c, 7, 52, 85
9, 76059, Note_on_c, 7, 52, 0
9, 76064, Note_on_c, 7, 50, 85
9, 76075, Note_on_c, 7, 50, 0
9, 76080, Note_on_c, 7, 49, 64
9, 76091, Note_on_c, 7, 49, 0
9, 76096, Note_on_c, 7, 51, 72
9, 76107, Note_on_c, 7, 51, 0
9, 76112, Note_on_c, 7, 52, 85
9, 76123, Note_on_c, 7, 52, 0
9, 76128, Note_on_c, 7, 51, 72
9, 76161, Note_on_c, 7, 51, 0
9, 76200, Note_on_c, 7, 47, 85
9, 76216, Note_on_c, 7, 47, 0
9, 76224, Note_on_c, 7, 52, 74
9, 76248, Note_on_c, 7, 52, 0
9, 76260, Note_on_c, 7, 50, 85
9, 76268, Note_on_c, 7, 50, 0
9, 76272, Note_on_c, 7, 49, 70
9, 76296, Note_on_c, 7, 49, 0
9, 76308, Note_on_c, 7, 42, 62
9, 76316, Note_on_c, 7, 42, 0
9, 76320, Note_on_c, 7, 40, 81
9, 76344, Note_on_c, 7, 40, 0
9, 76356, Note_on_c, 7, 38, 85
9, 76364, Note_on_c, 7, 38, 0
9, 76368, Note_on_c, 7, 40, 78
9, 76392, Note_on_c, 7, 40, 0
9, 76404, Note_on_c, 7, 28, 85
9, 76412, Note_on_c, 7, 28, 0
9, 76416, Note_on_c, 7, 33, 85
9, 76432, Note_on_c, 7, 33, 0
9, 76464, Note_on_c, 7, 45, 85
9, 76480, Note_on_c, 7, 45, 0
9, 76512, Note_on_c, 7, 33, 85
9, 76528, Note_on_c, 7, 33, 0
9, 76560, Note_on_c, 7, 45, 85
9, 76576, Note_on_c, 7, 45, 0
9, 76608, Note_on_c, 7, 33, 85
9, 76624, Note_on_c, 7, 33, 0
9, 76704, Note_on_c, 7, 33, 85
9, 76720, Note_on_c, 7, 33, 0
9, 76800, Note_on_c, 7, 33, 85
9, 76816, Note_on_c, 7, 33, 0
9, 76896, Note_on_c, 7, 33, 85
9, 76912, Note_on_c, 7, 33, 0
9, 76992, Note_on_c, 7, 33, 92
9, 77008, Note_on_c, 7, 33, 0
9, 79344, Note_on_c, 7, 35, 85
9, 79376, Note_on_c, 7, 35, 0
9, 79392, Note_on_c, 7, 28, 85
9, 79424, Note_on_c, 7, 28, 0
9, 79536, Note_on_c, 7, 33, 85
9, 79568, Note_on_c, 7, 33, 0
9, 79584, Note_on_c, 7, 26, 85
9, 79616, Note_on_c, 7, 26, 0
9, 81216, Note_on_c, 7, 37, 70
9, 81288, Note_on_c, 7, 37, 0
9, 83040, Note_on_c, 7, 30, 70
9, 83520, Note_on_c, 7, 30, 0
9, 83520, Note_on_c, 7, 42, 85
9, 83556, Note_on_c, 7, 35, 85
9, 83568, Note_on_c, 7, 35, 0
9, 83568, Note_on_c, 7, 42, 0
9, 83568, Note_on_c, 7, 42, 56
9, 83604, Note_on_c, 7, 42, 0
9, 83604, Note_on_c, 7, 37, 70
9, 83616, Note_on_c, 7, 37, 0
9, 83616, Note_on_c, 7, 38, 72
9, 83632, Note_on_c, 7, 38, 0
9, 83632, Note_on_c, 7, 37, 60
9, 83648, Note_on_c, 7, 37, 0
9, 83648, Note_on_c, 7, 35, 85
9, 83664, Note_on_c, 7, 35, 0
9, 83664, Note_on_c, 7, 34, 70
9, 83680, Note_on_c, 7, 34, 0
9, 83680, Note_on_c, 7, 35, 85
9, 83696, Note_on_c, 7, 35, 0
9, 83696, Note_on_c, 7, 37, 66
9, 83712, Note_on_c, 7, 37, 0
9, 83712, Note_on_c, 7, 30, 56
9, 83776, Note_on_c, 7, 42, 62
9, 83784, Note_on_c, 7, 30, 0
9, 83792, Note_on_c, 7, 42, 0
9, 83792, Note_on_c, 7, 40, 85
9, 83808, Note_on_c, 7, 40, 0
9, 83808, Note_on_c, 7, 38, 85
9, 83832, Note_on_c, 7, 38, 0
9, 84324, Note_on_c, 7, 43, 85
9, 84336, Note_on_c, 7, 43, 0
9, 84336, Note_on_c, 7, 38, 85
9, 84372, Note_on_c, 7, 38, 0
9, 84372, Note_on_c, 7, 40, 85
9, 84384, Note_on_c, 7, 40, 0
9, 84384, Note_on_c, 7, 42, 65
9, 84420, Note_on_c, 7, 42, 0
9, 84420, Note_on_c, 7, 40, 85
9, 84432, Note_on_c, 7, 40, 0
9, 84432, Note_on_c, 7, 42, 67
9, 84468, Note_on_c, 7, 42, 0
9, 84468, Note_on_c, 7, 30, 67
9, 84480, Note_on_c, 7, 30, 0
9, 84480, Note_on_c, 7, 35, 85
9, 84528, Note_on_c, 7, 35, 0
9, 84576, Note_on_c, 7, 38, 98
9, 84624, Note_on_c, 7, 38, 0
9, 87312, Note_on_c, 7, 30, 95
9, 87328, Note_on_c, 7, 30, 0
9, 87360, Note_on_c, 7, 31, 95
9, 87376, Note_on_c, 7, 31, 0
9, 87408, Note_on_c, 7, 33, 95
9, 87424, Note_on_c, 7, 33, 0
9, 87456, Note_on_c, 7, 35, 95
9, 87472, Note_on_c, 7, 35, 0
9, 87504, Note_on_c, 7, 37, 95
9, 87520, Note_on_c, 7, 37, 0
9, 87552, Note_on_c, 7, 38, 95
9, 87568, Note_on_c, 7, 38, 0
9, 87600, Note_on_c, 7, 40, 95
9, 87616, Note_on_c, 7, 40, 0
9, 87648, Note_on_c, 7, 42, 95
9, 87664, Note_on_c, 7, 42, 0
9, 87696, Note_on_c, 7, 42, 95
9, 87712, Note_on_c, 7, 42, 0
9, 87744, Note_on_c, 7, 43, 95
9, 87760, Note_on_c, 7, 43, 0
9, 87792, Note_on_c, 7, 45, 95
9, 87808, Note_on_c, 7, 45, 0
9, 87840, Note_on_c, 7, 47, 95
9, 87856, Note_on_c, 7, 47, 0
9, 87888, Note_on_c, 7, 45, 95
9, 87904, Note_on_c, 7, 45, 0
9, 87936, Note_on_c, 7, 47, 95
9, 87952, Note_on_c, 7, 47, 0
9, 87984, Note_on_c, 7, 49, 95
9, 88000, Note_on_c, 7, 49, 0
9, 88032, Note_on_c, 7, 50, 95
9, 88048, Note_on_c, 7, 50, 0
9, 88260, Note_on_c, 7, 45, 95
9, 88268, Note_on_c, 7, 45, 0
9, 88272, Note_on_c, 7, 50, 95
9, 88296, Note_on_c, 7, 50, 0
9, 88308, Note_on_c, 7, 45, 95
9, 88316, Note_on_c, 7, 45, 0
9, 88320, Note_on_c, 7, 47, 95
9, 88331, Note_on_c, 7, 47, 0
9, 88336, Note_on_c, 7, 45, 95
9, 88347, Note_on_c, 7, 45, 0
9, 88352, Note_on_c, 7, 43, 95
9, 88363, Note_on_c, 7, 43, 0
9, 88368, Note_on_c, 7, 42, 95
9, 88379, Note_on_c, 7, 42, 0
9, 88384, Note_on_c, 7, 43, 95
9, 88395, Note_on_c, 7, 43, 0
9, 88400, Note_on_c, 7, 45, 95
9, 88411, Note_on_c, 7, 45, 0
9, 88416, Note_on_c, 7, 38, 95
9, 88432, Note_on_c, 7, 38, 0
9, 88464, Note_on_c, 7, 40, 95
9, 88480, Note_on_c, 7, 40, 0
9, 88512, Note_on_c, 7, 42, 95
9, 88528, Note_on_c, 7, 42, 0
9, 88560, Note_on_c, 7, 30, 85
9, 88576, Note_on_c, 7, 30, 0
9, 88608, Note_on_c, 7, 31, 85
9, 88640, Note_on_c, 7, 31, 0
9, 88656, Note_on_c, 7, 33, 85
9, 88688, Note_on_c, 7, 33, 0
9, 88704, Note_on_c, 7, 35, 85
9, 88736, Note_on_c, 7, 35, 0
9, 88752, Note_on_c, 7, 37, 67
9, 88784, Note_on_c, 7, 37, 0
9, 88800, Note_on_c, 7, 38, 85
9, 88832, Note_on_c, 7, 38, 0
9, 88848, Note_on_c, 7, 40, 85
9, 88880, Note_on_c, 7, 40, 0
9, 88896, Note_on_c, 7, 42, 74
9, 88928, Note_on_c, 7, 42, 0
9, 88944, Note_on_c, 7, 43, 85
9, 88976, Note_on_c, 7, 43, 0
9, 88992, Note_on_c, 7, 45, 85
9, 89024, Note_on_c, 7, 45, 0
9, 89040, Note_on_c, 7, 47, 85
9, 89072, Note_on_c, 7, 47, 0
9, 89088, Note_on_c, 7, 49, 66
9, 89112, Note_on_c, 7, 49, 0
9, 89124, Note_on_c, 7, 45, 85
9, 89132, Note_on_c, 7, 45, 0
9, 89136, Note_on_c, 7, 50, 85
9, 89160, Note_on_c, 7, 50, 0
9, 89172, Note_on_c, 7, 45, 85
9, 89180, Note_on_c, 7, 45, 0
9, 89184, Note_on_c, 7, 47, 69
9, 89197, Note_on_c, 7, 47, 0
9, 89200, Note_on_c, 7, 45, 81
9, 89213, Note_on_c, 7, 45, 0
9, 89216, Note_on_c, 7, 43, 77
9, 89229, Note_on_c, 7, 43, 0
9, 89232, Note_on_c, 7, 42, 62
9, 89245, Note_on_c, 7, 42, 0
9, 89248, Note_on_c, 7, 43, 85
9, 89261, Note_on_c, 7, 43, 0
9, 89264, Note_on_c, 7, 45, 85
9, 89277, Note_on_c, 7, 45, 0
9, 89280, Note_on_c, 7, 38, 85
9, 89293, Note_on_c, 7, 38, 0
9, 89296, Note_on_c, 7, 42, 68
9, 89309, Note_on_c, 7, 42, 0
9, 89312, Note_on_c, 7, 40, 85
9, 89325, Note_on_c, 7, 40, 0
9, 89328, Note_on_c, 7, 38, 85
9, 89341, Note_on_c, 7, 38, 0
9, 89344, Note_on_c, 7, 40, 85
9, 89357, Note_on_c, 7, 40, 0
9, 89360, Note_on_c, 7, 42, 85
9, 89373, Note_on_c, 7, 42, 0
9, 89376, Note_on_c, 7, 43, 77
9, 89395, Note_on_c, 7, 43, 0
9, 89424, Note_on_c, 7, 45, 85
9, 89443, Note_on_c, 7, 45, 0
9, 89472, Note_on_c, 7, 47, 85
9, 89491, Note_on_c, 7, 47, 0
9, 89520, Note_on_c, 7, 35, 74
9, 89539, Note_on_c, 7, 35, 0
9, 89616, Note_on_c, 7, 47, 74
9, 89635, Note_on_c, 7, 47, 0
9, 89664, Note_on_c, 7, 42, 69
9, 89683, Note_on_c, 7, 42, 0
9, 89712, Note_on_c, 7, 30, 74
9, 89731, Note_on_c, 7, 30, 0
9, 89808, Note_on_c, 7, 42, 66
9, 89827, Note_on_c, 7, 42, 0
9, 89856, Note_on_c, 7, 44, 67
9, 89875, Note_on_c, 7, 44, 0
9, 89904, Note_on_c, 7, 32, 60
9, 89923, Note_on_c, 7, 32, 0
9, 90000, Note_on_c, 7, 44, 56
9, 90019, Note_on_c, 7, 44, 0
9, 90048, Note_on_c, 7, 45, 74
9, 90067, Note_on_c, 7, 45, 0
9, 90468, Note_on_c, 7, 45, 85
9, 90476, Note_on_c, 7, 45, 0
9, 90480, Note_on_c, 7, 50, 56
9, 90504, Note_on_c, 7, 50, 0
9, 90516, Note_on_c, 7, 45, 85
9, 90524, Note_on_c, 7, 45, 0
9, 90528, Note_on_c, 7, 47, 60
9, 90539, Note_on_c, 7, 47, 0
9, 90544, Note_on_c, 7, 45, 85
9, 90555, Note_on_c, 7, 45, 0
9, 90560, Note_on_c, 7, 43, 85
9, 90571, Note_on_c, 7, 43, 0
9, 90576, Note_on_c, 7, 45, 85
9, 90600, Note_on_c, 7, 45, 0
9, 90612, Note_on_c, 7, 45, 85
9, 90620, Note_on_c, 7, 45, 0
9, 90624, Note_on_c, 7, 38, 85
9, 90640, Note_on_c, 7, 38, 0
9, 90852, Note_on_c, 7, 43, 91
9, 90860, Note_on_c, 7, 43, 0
9, 90864, Note_on_c, 7, 50, 98
9, 90888, Note_on_c, 7, 50, 0
9, 90900, Note_on_c, 7, 45, 85
9, 90908, Note_on_c, 7, 45, 0
9, 90912, Note_on_c, 7, 47, 85
9, 90923, Note_on_c, 7, 47, 0
9, 90928, Note_on_c, 7, 45, 85
9, 90939, Note_on_c, 7, 45, 0
9, 90944, Note_on_c, 7, 43, 85
9, 90955, Note_on_c, 7, 43, 0
9, 90960, Note_on_c, 7, 42, 72
9, 90971, Note_on_c, 7, 42, 0
9, 90976, Note_on_c, 7, 44, 72
9, 90987, Note_on_c, 7, 44, 0
9, 90992, Note_on_c, 7, 45, 85
9, 91003, Note_on_c, 7, 45, 0
9, 91008, Note_on_c, 7, 44, 67
9, 91024, Note_on_c, 7, 44, 0
9, 91056, Note_on_c, 7, 32, 64
9, 91072, Note_on_c, 7, 32, 0
9, 91152, Note_on_c, 7, 44, 60
9, 91168, Note_on_c, 7, 44, 0
9, 91200, Note_on_c, 7, 44, 56
9, 91216, Note_on_c, 7, 44, 0
9, 91248, Note_on_c, 7, 32, 74
9, 91264, Note_on_c, 7, 32, 0
9, 91344, Note_on_c, 7, 44, 85
9, 91368, Note_on_c, 7, 44, 0
9, 91392, Note_on_c, 7, 45, 85
9, 91416, Note_on_c, 7, 45, 0
9, 91476, Note_on_c, 7, 42, 85
9, 91488, Note_on_c, 7, 42, 0
9, 91488, Note_on_c, 7, 47, 85
9, 91512, Note_on_c, 7, 47, 0
9, 91572, Note_on_c, 7, 43, 85
9, 91584, Note_on_c, 7, 43, 0
9, 91584, Note_on_c, 7, 49, 85
9, 91608, Note_on_c, 7, 49, 0
9, 91668, Note_on_c, 7, 45, 85
9, 91680, Note_on_c, 7, 45, 0
9, 91680, Note_on_c, 7, 50, 85
9, 91704, Note_on_c, 7, 50, 0
9, 91728, Note_on_c, 7, 42, 85
9, 91752, Note_on_c, 7, 42, 0
9, 91776, Note_on_c, 7, 43, 85
9, 91800, Note_on_c, 7, 43, 0
9, 91824, Note_on_c, 7, 45, 85
9, 91848, Note_on_c, 7, 45, 0
9, 91872, Note_on_c, 7, 47, 85
9, 91888, Note_on_c, 7, 47, 0
9, 91888, Note_on_c, 7, 45, 85
9, 91904, Note_on_c, 7, 45, 0
9, 91904, Note_on_c, 7, 43, 85
9, 91920, Note_on_c, 7, 43, 0
9, 91920, Note_on_c, 7, 45, 85
9, 91956, Note_on_c, 7, 45, 0
9, 91956, Note_on_c, 7, 33, 85
9, 91968, Note_on_c, 7, 33, 0
9, 91968, Note_on_c, 7, 38, 85
9, 92064, Note_on_c, 7, 38, 0
9, 92064, End_track
0, 0, End_of_file
