0, 0, Header, 0, 1, 48
1, 0, Start_track
1, 0, Title_t, "J.S.Bach Concert for Harpsichord and Orchestra G minor BWV1058 2. Andante"
1, 0, Time_signature, 4, 2, 24, 8
1, 0, Channel_prefix, 0
1, 0, Copyright_t, "Copyright 2002 by KCN"
1, 0, Channel_prefix, 0
1, 0, Title_t, "Violino I"
1, 0, Channel_prefix, 0
1, 0, Instrument_name_t, "String Ensemble 1"
1, 0, System_exclusive, 5, 126, 127, 9, 1, 247
1, 0, MIDI_port, 0
1, 0, Tempo, 1500000
1, 0, Program_c, 0, 48
1, 0, Control_c, 0, 7, 110
1, 0, Note_on_c, 0, 65, 96
1, 0, Channel_prefix, 1
1, 0, Title_t, "Violino II"
1, 0, Channel_prefix, 1
1, 0, Instrument_name_t, "String Ensemble 1"
1, 0, MIDI_port, 0
1, 0, Program_c, 1, 48
1, 0, Control_c, 1, 7, 110
1, 0, Note_on_c, 1, 62, 96
1, 0, Channel_prefix, 2
1, 0, Title_t, "Viola"
1, 0, Channel_prefix, 2
1, 0, Instrument_name_t, "String Ensemble 1"
1, 0, MIDI_port, 0
1, 0, Program_c, 2, 48
1, 0, Control_c, 2, 7, 110
1, 0, Note_on_c, 2, 58, 96
1, 0, Channel_prefix, 3
1, 0, Title_t, "Continuo(Violoncello)"
1, 0, Channel_prefix, 3
1, 0, Instrument_name_t, "Cello"
1, 0, MIDI_port, 0
1, 0, Program_c, 3, 42
1, 0, Note_on_c, 3, 46, 96
1, 0, Channel_prefix, 4
1, 0, Title_t, "Continuo(Violone)"
1, 0, Channel_prefix, 4
1, 0, Instrument_name_t, "Contrabass"
1, 0, MIDI_port, 0
1, 0, Program_c, 4, 43
1, 0, Note_on_c, 4, 34, 96
1, 0, Channel_prefix, 5
1, 0, Title_t, "Cembalo obbligato"
1, 0, Channel_prefix, 5
1, 0, Instrument_name_t, "Harpsichord"
1, 0, MIDI_port, 0
1, 0, Program_c, 5, 6
1, 0, Note_on_c, 5, 65, 96
1, 0, Channel_prefix, 6
1, 0, Title_t, "Cembalo obbligato"
1, 0, Channel_prefix, 6
1, 0, Instrument_name_t, "Harpsichord"
1, 0, MIDI_port, 0
1, 0, Program_c, 5, 6
1, 0, Note_on_c, 5, 62, 96
1, 0, Note_on_c, 5, 58, 96
1, 0, MIDI_port, 0
1, 0, Program_c, 6, 6
1, 0, Note_on_c, 6, 46, 96
1, 12, Note_off_c, 3, 46, 0
1, 12, Note_off_c, 4, 34, 0
1, 12, Note_off_c, 6, 46, 0
1, 21, Note_off_c, 0, 65, 0
1, 21, Note_off_c, 1, 62, 0
1, 21, Note_off_c, 2, 58, 0
1, 21, Note_off_c, 5, 65, 0
1, 21, Note_off_c, 5, 62, 0
1, 21, Note_off_c, 5, 58, 0
1, 24, Note_on_c, 3, 46, 96
1, 24, Note_on_c, 4, 34, 96
1, 24, Note_on_c, 6, 46, 96
1, 36, Note_off_c, 3, 46, 0
1, 36, Note_off_c, 4, 34, 0
1, 36, Note_off_c, 6, 46, 0
1, 48, Note_on_c, 0, 68, 96
1, 48, Note_on_c, 1, 62, 96
1, 48, Note_on_c, 2, 53, 96
1, 48, Note_on_c, 3, 46, 96
1, 48, Note_on_c, 4, 34, 96
1, 48, Note_on_c, 5, 68, 96
1, 48, Note_on_c, 5, 65, 96
1, 48, Note_on_c, 5, 62, 96
1, 48, Note_on_c, 5, 58, 96
1, 48, Note_on_c, 6, 46, 96
1, 60, Note_off_c, 3, 46, 0
1, 60, Note_off_c, 4, 34, 0
1, 60, Note_off_c, 6, 46, 0
1, 69, Note_off_c, 0, 68, 0
1, 69, Note_off_c, 1, 62, 0
1, 69, Note_off_c, 2, 53, 0
1, 69, Note_off_c, 5, 68, 0
1, 69, Note_off_c, 5, 65, 0
1, 69, Note_off_c, 5, 62, 0
1, 69, Note_off_c, 5, 58, 0
1, 72, Note_on_c, 3, 50, 96
1, 72, Note_on_c, 4, 38, 96
1, 72, Note_on_c, 6, 50, 96
1, 84, Note_off_c, 3, 50, 0
1, 84, Note_on_c, 3, 51, 96
1, 84, Note_off_c, 4, 38, 0
1, 84, Note_on_c, 4, 39, 96
1, 84, Note_off_c, 6, 50, 0
1, 84, Note_on_c, 6, 51, 96
1, 90, Note_off_c, 3, 51, 0
1, 90, Note_on_c, 3, 53, 96
1, 90, Note_off_c, 4, 39, 0
1, 90, Note_on_c, 4, 41, 96
1, 90, Note_off_c, 6, 51, 0
1, 90, Note_on_c, 6, 53, 96
1, 95, Note_off_c, 3, 53, 0
1, 95, Note_off_c, 4, 41, 0
1, 95, Note_off_c, 6, 53, 0
1, 96, Note_on_c, 0, 68, 96
1, 96, Note_on_c, 1, 63, 96
1, 96, Note_on_c, 2, 58, 96
1, 96, Note_on_c, 3, 46, 96
1, 96, Note_on_c, 4, 34, 96
1, 96, Note_on_c, 5, 68, 96
1, 96, Note_on_c, 5, 63, 96
1, 96, Note_on_c, 5, 58, 96
1, 96, Note_on_c, 6, 46, 96
1, 108, Note_off_c, 3, 46, 0
1, 108, Note_off_c, 4, 34, 0
1, 108, Note_off_c, 6, 46, 0
1, 117, Note_off_c, 0, 68, 0
1, 117, Note_off_c, 1, 63, 0
1, 117, Note_off_c, 2, 58, 0
1, 117, Note_off_c, 5, 68, 0
1, 117, Note_off_c, 5, 63, 0
1, 117, Note_off_c, 5, 58, 0
1, 120, Note_on_c, 3, 46, 96
1, 120, Note_on_c, 4, 34, 96
1, 120, Note_on_c, 6, 46, 96
1, 132, Note_off_c, 3, 46, 0
1, 132, Note_off_c, 4, 34, 0
1, 132, Note_off_c, 6, 46, 0
1, 144, Note_on_c, 0, 67, 96
1, 144, Note_on_c, 1, 63, 96
1, 144, Note_on_c, 2, 58, 96
1, 144, Note_on_c, 3, 46, 96
1, 144, Note_on_c, 4, 34, 96
1, 144, Note_on_c, 5, 67, 96
1, 144, Note_on_c, 5, 63, 96
1, 144, Note_on_c, 5, 58, 96
1, 144, Note_on_c, 6, 46, 96
1, 156, Note_off_c, 3, 46, 0
1, 156, Note_off_c, 4, 34, 0
1, 156, Note_off_c, 6, 46, 0
1, 165, Note_off_c, 0, 67, 0
1, 165, Note_off_c, 1, 63, 0
1, 165, Note_off_c, 2, 58, 0
1, 165, Note_off_c, 5, 67, 0
1, 165, Note_off_c, 5, 63, 0
1, 165, Note_off_c, 5, 58, 0
1, 168, Note_on_c, 3, 51, 96
1, 168, Note_on_c, 4, 39, 96
1, 168, Note_on_c, 6, 51, 96
1, 180, Note_off_c, 3, 51, 0
1, 180, Note_on_c, 3, 53, 96
1, 180, Note_off_c, 4, 39, 0
1, 180, Note_on_c, 4, 41, 96
1, 180, Note_off_c, 6, 51, 0
1, 180, Note_on_c, 6, 53, 96
1, 186, Note_off_c, 3, 53, 0
1, 186, Note_on_c, 3, 55, 96
1, 186, Note_off_c, 4, 41, 0
1, 186, Note_on_c, 4, 43, 96
1, 186, Note_off_c, 6, 53, 0
1, 186, Note_on_c, 6, 55, 96
1, 191, Note_off_c, 3, 55, 0
1, 191, Note_off_c, 4, 43, 0
1, 191, Note_off_c, 6, 55, 0
1, 192, Note_on_c, 0, 72, 96
1, 192, Note_on_c, 1, 63, 96
1, 192, Note_on_c, 2, 55, 96
1, 192, Note_on_c, 3, 46, 96
1, 192, Note_on_c, 4, 34, 96
1, 192, Note_on_c, 5, 72, 96
1, 192, Note_on_c, 5, 67, 96
1, 192, Note_on_c, 5, 63, 96
1, 192, Note_on_c, 6, 46, 96
1, 213, Note_off_c, 0, 72, 0
1, 213, Note_off_c, 1, 63, 0
1, 213, Note_off_c, 2, 55, 0
1, 213, Note_off_c, 3, 46, 0
1, 213, Note_off_c, 4, 34, 0
1, 213, Note_off_c, 5, 72, 0
1, 213, Note_off_c, 5, 67, 0
1, 213, Note_off_c, 5, 63, 0
1, 213, Note_off_c, 6, 46, 0
1, 216, Note_on_c, 3, 46, 96
1, 216, Note_on_c, 4, 34, 96
1, 216, Note_on_c, 6, 46, 96
1, 237, Note_off_c, 3, 46, 0
1, 237, Note_off_c, 4, 34, 0
1, 237, Note_off_c, 6, 46, 0
1, 240, Note_on_c, 0, 63, 96
1, 240, Note_on_c, 1, 60, 96
1, 240, Note_on_c, 2, 57, 96
1, 240, Note_on_c, 3, 46, 96
1, 240, Note_on_c, 4, 34, 96
1, 240, Note_on_c, 5, 63, 96
1, 240, Note_on_c, 5, 60, 96
1, 240, Note_on_c, 6, 46, 96
1, 261, Note_off_c, 0, 63, 0
1, 261, Note_off_c, 1, 60, 0
1, 261, Note_off_c, 2, 57, 0
1, 261, Note_off_c, 3, 46, 0
1, 261, Note_off_c, 4, 34, 0
1, 261, Note_off_c, 5, 63, 0
1, 261, Note_off_c, 5, 60, 0
1, 261, Note_off_c, 6, 46, 0
1, 264, Note_on_c, 3, 57, 96
1, 264, Note_on_c, 4, 45, 96
1, 264, Note_on_c, 6, 57, 96
1, 276, Note_off_c, 3, 57, 0
1, 276, Note_on_c, 3, 58, 96
1, 276, Note_off_c, 4, 45, 0
1, 276, Note_on_c, 4, 46, 96
1, 276, Note_off_c, 6, 57, 0
1, 276, Note_on_c, 6, 58, 96
1, 282, Note_off_c, 3, 58, 0
1, 282, Note_on_c, 3, 60, 96
1, 282, Note_off_c, 4, 46, 0
1, 282, Note_on_c, 4, 48, 96
1, 282, Note_off_c, 6, 58, 0
1, 282, Note_on_c, 6, 60, 96
1, 287, Note_off_c, 3, 60, 0
1, 287, Note_off_c, 4, 48, 0
1, 287, Note_off_c, 6, 60, 0
1, 288, Note_on_c, 0, 63, 96
1, 288, Note_on_c, 1, 60, 96
1, 288, Note_on_c, 2, 53, 96
1, 288, Note_on_c, 3, 46, 96
1, 288, Note_on_c, 4, 34, 96
1, 288, Note_on_c, 5, 63, 96
1, 288, Note_on_c, 5, 60, 96
1, 288, Note_on_c, 6, 46, 96
1, 309, Note_off_c, 0, 63, 0
1, 309, Note_off_c, 1, 60, 0
1, 309, Note_off_c, 2, 53, 0
1, 309, Note_off_c, 3, 46, 0
1, 309, Note_off_c, 4, 34, 0
1, 309, Note_off_c, 5, 63, 0
1, 309, Note_off_c, 5, 60, 0
1, 309, Note_off_c, 6, 46, 0
1, 312, Note_on_c, 3, 46, 96
1, 312, Note_on_c, 4, 34, 96
1, 312, Note_on_c, 6, 46, 96
1, 333, Note_off_c, 3, 46, 0
1, 333, Note_off_c, 4, 34, 0
1, 333, Note_off_c, 6, 46, 0
1, 336, Note_on_c, 0, 62, 96
1, 336, Note_on_c, 1, 58, 96
1, 336, Note_on_c, 2, 53, 96
1, 336, Note_on_c, 3, 46, 96
1, 336, Note_on_c, 4, 34, 96
1, 336, Note_on_c, 5, 62, 96
1, 336, Note_on_c, 5, 58, 96
1, 336, Note_on_c, 6, 46, 96
1, 357, Note_off_c, 0, 62, 0
1, 357, Note_off_c, 1, 58, 0
1, 357, Note_off_c, 2, 53, 0
1, 357, Note_off_c, 3, 46, 0
1, 357, Note_off_c, 4, 34, 0
1, 357, Note_off_c, 5, 62, 0
1, 357, Note_off_c, 5, 58, 0
1, 357, Note_off_c, 6, 46, 0
1, 360, Note_on_c, 3, 53, 96
1, 360, Note_on_c, 4, 41, 96
1, 360, Note_on_c, 6, 53, 96
1, 372, Note_off_c, 3, 53, 0
1, 372, Note_on_c, 3, 55, 96
1, 372, Note_off_c, 4, 41, 0
1, 372, Note_on_c, 4, 43, 96
1, 372, Note_off_c, 6, 53, 0
1, 372, Note_on_c, 6, 55, 96
1, 378, Note_off_c, 3, 55, 0
1, 378, Note_on_c, 3, 57, 96
1, 378, Note_off_c, 4, 43, 0
1, 378, Note_on_c, 4, 45, 96
1, 378, Note_off_c, 6, 55, 0
1, 378, Note_on_c, 6, 57, 96
1, 383, Note_off_c, 3, 57, 0
1, 383, Note_off_c, 4, 45, 0
1, 383, Note_off_c, 6, 57, 0
1, 384, Note_on_c, 0, 74, 96
1, 384, Note_on_c, 1, 65, 96
1, 384, Note_on_c, 2, 58, 96
1, 384, Note_on_c, 3, 46, 96
1, 384, Note_on_c, 4, 34, 96
1, 384, Note_on_c, 5, 74, 96
1, 384, Note_on_c, 5, 70, 96
1, 384, Note_on_c, 5, 65, 96
1, 384, Note_on_c, 5, 62, 96
1, 384, Note_on_c, 6, 46, 96
1, 405, Note_off_c, 0, 74, 0
1, 405, Note_off_c, 1, 65, 0
1, 405, Note_off_c, 2, 58, 0
1, 405, Note_off_c, 3, 46, 0
1, 405, Note_off_c, 4, 34, 0
1, 405, Note_off_c, 5, 74, 0
1, 405, Note_off_c, 5, 70, 0
1, 405, Note_off_c, 5, 65, 0
1, 405, Note_off_c, 5, 62, 0
1, 405, Note_off_c, 6, 46, 0
1, 408, Note_on_c, 3, 46, 96
1, 408, Note_on_c, 4, 34, 96
1, 408, Note_on_c, 6, 46, 96
1, 429, Note_off_c, 3, 46, 0
1, 429, Note_off_c, 4, 34, 0
1, 429, Note_off_c, 6, 46, 0
1, 432, Note_on_c, 0, 67, 96
1, 432, Note_on_c, 1, 67, 96
1, 432, Note_on_c, 2, 62, 96
1, 432, Note_on_c, 3, 46, 96
1, 432, Note_on_c, 4, 34, 96
1, 432, Note_on_c, 5, 67, 96
1, 432, Note_on_c, 5, 62, 96
1, 432, Note_on_c, 6, 46, 96
1, 453, Note_off_c, 0, 67, 0
1, 453, Note_off_c, 1, 67, 0
1, 453, Note_off_c, 2, 62, 0
1, 453, Note_off_c, 3, 46, 0
1, 453, Note_off_c, 4, 34, 0
1, 453, Note_off_c, 5, 67, 0
1, 453, Note_off_c, 5, 62, 0
1, 453, Note_off_c, 6, 46, 0
1, 456, Note_on_c, 3, 52, 96
1, 456, Note_on_c, 4, 40, 96
1, 456, Note_on_c, 6, 52, 96
1, 468, Note_off_c, 3, 52, 0
1, 468, Note_on_c, 3, 53, 96
1, 468, Note_off_c, 4, 40, 0
1, 468, Note_on_c, 4, 41, 96
1, 468, Note_off_c, 6, 52, 0
1, 468, Note_on_c, 6, 53, 96
1, 474, Note_off_c, 3, 53, 0
1, 474, Note_on_c, 3, 55, 96
1, 474, Note_off_c, 4, 41, 0
1, 474, Note_on_c, 4, 43, 96
1, 474, Note_off_c, 6, 53, 0
1, 474, Note_on_c, 6, 55, 96
1, 479, Note_off_c, 3, 55, 0
1, 479, Note_off_c, 4, 43, 0
1, 479, Note_off_c, 6, 55, 0
1, 480, Note_on_c, 0, 72, 96
1, 480, Note_on_c, 1, 67, 96
1, 480, Note_on_c, 2, 60, 96
1, 480, Note_on_c, 3, 45, 96
1, 480, Note_on_c, 4, 33, 96
1, 480, Note_on_c, 5, 72, 96
1, 480, Note_on_c, 5, 67, 96
1, 480, Note_on_c, 5, 60, 96
1, 480, Note_on_c, 6, 45, 96
1, 501, Note_off_c, 0, 72, 0
1, 501, Note_off_c, 1, 67, 0
1, 501, Note_off_c, 2, 60, 0
1, 501, Note_off_c, 3, 45, 0
1, 501, Note_off_c, 4, 33, 0
1, 501, Note_off_c, 5, 72, 0
1, 501, Note_off_c, 5, 67, 0
1, 501, Note_off_c, 5, 60, 0
1, 501, Note_off_c, 6, 45, 0
1, 504, Note_on_c, 3, 45, 96
1, 504, Note_on_c, 4, 33, 96
1, 504, Note_on_c, 6, 45, 96
1, 525, Note_off_c, 3, 45, 0
1, 525, Note_off_c, 4, 33, 0
1, 525, Note_off_c, 6, 45, 0
1, 528, Note_on_c, 0, 65, 96
1, 528, Note_on_c, 1, 65, 96
1, 528, Note_on_c, 2, 60, 96
1, 528, Note_on_c, 3, 45, 96
1, 528, Note_on_c, 4, 33, 96
1, 528, Note_on_c, 5, 65, 96
1, 528, Note_on_c, 5, 60, 96
1, 528, Note_on_c, 6, 45, 96
1, 549, Note_off_c, 0, 65, 0
1, 549, Note_off_c, 1, 65, 0
1, 549, Note_off_c, 2, 60, 0
1, 549, Note_off_c, 3, 45, 0
1, 549, Note_off_c, 4, 33, 0
1, 549, Note_off_c, 5, 65, 0
1, 549, Note_off_c, 5, 60, 0
1, 549, Note_off_c, 6, 45, 0
1, 552, Note_on_c, 3, 50, 96
1, 552, Note_on_c, 4, 38, 96
1, 552, Note_on_c, 6, 50, 96
1, 564, Note_off_c, 3, 50, 0
1, 564, Note_on_c, 3, 52, 96
1, 564, Note_off_c, 4, 38, 0
1, 564, Note_on_c, 4, 40, 96
1, 564, Note_off_c, 6, 50, 0
1, 564, Note_on_c, 6, 52, 96
1, 570, Note_off_c, 3, 52, 0
1, 570, Note_on_c, 3, 53, 96
1, 570, Note_off_c, 4, 40, 0
1, 570, Note_on_c, 4, 41, 96
1, 570, Note_off_c, 6, 52, 0
1, 570, Note_on_c, 6, 53, 96
1, 575, Note_off_c, 3, 53, 0
1, 575, Note_off_c, 4, 41, 0
1, 575, Note_off_c, 6, 53, 0
1, 576, Note_on_c, 0, 70, 96
1, 576, Note_on_c, 1, 65, 96
1, 576, Note_on_c, 2, 58, 96
1, 576, Note_on_c, 3, 43, 96
1, 576, Note_on_c, 4, 31, 96
1, 576, Note_on_c, 5, 70, 96
1, 576, Note_on_c, 5, 65, 96
1, 576, Note_on_c, 5, 62, 96
1, 576, Note_on_c, 6, 43, 96
1, 597, Note_off_c, 0, 70, 0
1, 597, Note_off_c, 1, 65, 0
1, 597, Note_off_c, 2, 58, 0
1, 597, Note_off_c, 3, 43, 0
1, 597, Note_off_c, 4, 31, 0
1, 597, Note_off_c, 5, 70, 0
1, 597, Note_off_c, 5, 65, 0
1, 597, Note_off_c, 5, 62, 0
1, 597, Note_off_c, 6, 43, 0
1, 600, Note_on_c, 3, 43, 96
1, 600, Note_on_c, 4, 31, 96
1, 600, Note_on_c, 6, 43, 96
1, 621, Note_off_c, 3, 43, 0
1, 621, Note_off_c, 4, 31, 0
1, 621, Note_off_c, 6, 43, 0
1, 624, Note_on_c, 0, 70, 96
1, 624, Note_on_c, 1, 64, 96
1, 624, Note_on_c, 2, 55, 96
1, 624, Note_on_c, 3, 43, 96
1, 624, Note_on_c, 4, 31, 96
1, 624, Note_on_c, 5, 70, 96
1, 624, Note_on_c, 5, 64, 96
1, 624, Note_on_c, 5, 60, 96
1, 624, Note_on_c, 6, 43, 96
1, 645, Note_off_c, 0, 70, 0
1, 645, Note_off_c, 1, 64, 0
1, 645, Note_off_c, 2, 55, 0
1, 645, Note_off_c, 3, 43, 0
1, 645, Note_off_c, 4, 31, 0
1, 645, Note_off_c, 5, 70, 0
1, 645, Note_off_c, 5, 64, 0
1, 645, Note_off_c, 5, 60, 0
1, 645, Note_off_c, 6, 43, 0
1, 648, Note_on_c, 3, 48, 96
1, 648, Note_on_c, 4, 36, 96
1, 648, Note_on_c, 6, 48, 96
1, 660, Note_off_c, 3, 48, 0
1, 660, Note_on_c, 3, 50, 96
1, 660, Note_off_c, 4, 36, 0
1, 660, Note_on_c, 4, 38, 96
1, 660, Note_off_c, 6, 48, 0
1, 660, Note_on_c, 6, 50, 96
1, 666, Note_off_c, 3, 50, 0
1, 666, Note_on_c, 3, 52, 96
1, 666, Note_off_c, 4, 38, 0
1, 666, Note_on_c, 4, 40, 96
1, 666, Note_off_c, 6, 50, 0
1, 666, Note_on_c, 6, 52, 96
1, 671, Note_off_c, 3, 52, 0
1, 671, Note_off_c, 4, 40, 0
1, 671, Note_off_c, 6, 52, 0
1, 672, Note_on_c, 0, 70, 96
1, 672, Note_on_c, 1, 65, 96
1, 672, Note_on_c, 2, 53, 96
1, 672, Note_on_c, 3, 41, 96
1, 672, Note_on_c, 4, 29, 96
1, 672, Note_on_c, 5, 70, 96
1, 672, Note_on_c, 5, 65, 96
1, 672, Note_on_c, 5, 60, 96
1, 672, Note_on_c, 6, 41, 96
1, 693, Note_off_c, 1, 65, 0
1, 693, Note_off_c, 5, 70, 0
1, 696, Note_off_c, 0, 70, 0
1, 696, Note_on_c, 0, 69, 96
1, 696, Note_on_c, 1, 60, 96
1, 696, Note_on_c, 5, 69, 96
1, 714, Note_off_c, 2, 53, 0
1, 714, Note_off_c, 3, 41, 0
1, 714, Note_off_c, 4, 29, 0
1, 714, Note_off_c, 5, 65, 0
1, 714, Note_off_c, 5, 60, 0
1, 714, Note_off_c, 6, 41, 0
1, 717, Note_off_c, 0, 69, 0
1, 717, Note_off_c, 1, 60, 0
1, 717, Note_off_c, 5, 69, 0
1, 726, Note_on_c, 5, 65, 96
1, 731, Note_off_c, 5, 65, 0
1, 732, Note_on_c, 5, 67, 96
1, 737, Note_off_c, 5, 67, 0
1, 738, Note_on_c, 5, 69, 96
1, 743, Note_off_c, 5, 69, 0
1, 744, Note_on_c, 5, 70, 96
1, 749, Note_off_c, 5, 70, 0
1, 750, Note_on_c, 5, 72, 96
1, 755, Note_off_c, 5, 72, 0
1, 756, Note_on_c, 5, 74, 96
1, 761, Note_off_c, 5, 74, 0
1, 762, Note_on_c, 5, 75, 96
1, 767, Note_off_c, 5, 75, 0
1, 768, Note_on_c, 0, 62, 80
1, 768, Note_on_c, 1, 58, 80
1, 768, Note_on_c, 2, 58, 80
1, 768, Note_on_c, 5, 77, 96
1, 768, Note_on_c, 6, 58, 96
1, 789, Note_off_c, 0, 62, 0
1, 789, Note_off_c, 1, 58, 0
1, 789, Note_off_c, 2, 58, 0
1, 789, Note_off_c, 6, 58, 0
1, 792, Note_on_c, 2, 58, 80
1, 792, Note_on_c, 6, 58, 96
1, 813, Note_off_c, 2, 58, 0
1, 813, Note_off_c, 6, 58, 0
1, 815, Note_off_c, 5, 77, 0
1, 816, Note_on_c, 0, 65, 80
1, 816, Note_on_c, 1, 62, 80
1, 816, Note_on_c, 2, 58, 80
1, 816, Note_on_c, 6, 58, 96
1, 822, Note_on_c, 5, 75, 96
1, 827, Note_off_c, 5, 75, 0
1, 828, Note_on_c, 5, 74, 96
1, 833, Note_off_c, 5, 74, 0
1, 834, Note_on_c, 5, 72, 96
1, 837, Note_off_c, 0, 65, 0
1, 837, Note_off_c, 1, 62, 0
1, 837, Note_off_c, 2, 58, 0
1, 837, Note_off_c, 6, 58, 0
1, 839, Note_off_c, 5, 72, 0
1, 840, Note_on_c, 2, 58, 80
1, 840, Note_on_c, 5, 70, 96
1, 840, Note_on_c, 6, 58, 96
1, 850, Note_off_c, 5, 70, 0
1, 852, Note_on_c, 5, 69, 96
1, 861, Note_off_c, 2, 58, 0
1, 861, Note_off_c, 6, 58, 0
1, 862, Note_off_c, 5, 69, 0
1, 864, Note_on_c, 0, 68, 80
1, 864, Note_on_c, 1, 65, 80
1, 864, Note_on_c, 2, 58, 80
1, 864, Note_on_c, 5, 70, 96
1, 864, Note_on_c, 6, 58, 96
1, 874, Note_off_c, 5, 70, 0
1, 876, Note_on_c, 5, 77, 96
1, 885, Note_off_c, 0, 68, 0
1, 885, Note_off_c, 1, 65, 0
1, 885, Note_off_c, 2, 58, 0
1, 885, Note_off_c, 6, 58, 0
1, 888, Note_on_c, 2, 58, 80
1, 888, Note_on_c, 6, 58, 96
1, 909, Note_off_c, 2, 58, 0
1, 909, Note_off_c, 6, 58, 0
1, 912, Note_on_c, 0, 74, 80
1, 912, Note_on_c, 1, 68, 80
1, 912, Note_on_c, 2, 58, 80
1, 912, Note_on_c, 6, 58, 96
1, 913, Note_off_c, 5, 77, 0
1, 918, Note_on_c, 5, 75, 96
1, 923, Note_off_c, 5, 75, 0
1, 924, Note_on_c, 5, 74, 96
1, 929, Note_off_c, 5, 74, 0
1, 930, Note_on_c, 5, 72, 96
1, 933, Note_off_c, 0, 74, 0
1, 933, Note_off_c, 1, 68, 0
1, 933, Note_off_c, 2, 58, 0
1, 933, Note_off_c, 6, 58, 0
1, 935, Note_off_c, 5, 72, 0
1, 936, Note_on_c, 2, 58, 80
1, 936, Note_on_c, 5, 70, 96
1, 936, Note_on_c, 6, 58, 96
1, 946, Note_off_c, 5, 70, 0
1, 948, Note_on_c, 5, 69, 96
1, 957, Note_off_c, 2, 58, 0
1, 957, Note_off_c, 6, 58, 0
1, 958, Note_off_c, 5, 69, 0
1, 960, Note_on_c, 0, 75, 80
1, 960, Note_on_c, 1, 67, 80
1, 960, Note_on_c, 2, 58, 80
1, 960, Note_on_c, 5, 70, 96
1, 960, Note_on_c, 6, 58, 96
1, 967, Note_off_c, 5, 70, 0
1, 968, Note_on_c, 5, 80, 96
1, 976, Note_off_c, 5, 80, 0
1, 976, Note_on_c, 5, 79, 96
1, 981, Note_off_c, 0, 75, 0
1, 981, Note_off_c, 1, 67, 0
1, 981, Note_off_c, 2, 58, 0
1, 981, Note_off_c, 6, 58, 0
1, 983, Note_off_c, 5, 79, 0
1, 984, Note_on_c, 0, 74, 80
1, 984, Note_on_c, 1, 70, 80
1, 984, Note_on_c, 2, 58, 80
1, 984, Note_on_c, 5, 70, 96
1, 984, Note_on_c, 6, 58, 96
1, 991, Note_off_c, 5, 70, 0
1, 992, Note_on_c, 5, 79, 96
1, 1000, Note_off_c, 5, 79, 0
1, 1000, Note_on_c, 5, 77, 96
1, 1005, Note_off_c, 0, 74, 0
1, 1005, Note_off_c, 1, 70, 0
1, 1005, Note_off_c, 2, 58, 0
1, 1005, Note_off_c, 6, 58, 0
1, 1007, Note_off_c, 5, 77, 0
1, 1008, Note_on_c, 0, 72, 80
1, 1008, Note_on_c, 1, 63, 80
1, 1008, Note_on_c, 2, 58, 80
1, 1008, Note_on_c, 5, 69, 96
1, 1008, Note_on_c, 6, 58, 96
1, 1015, Note_off_c, 5, 69, 0
1, 1016, Note_on_c, 5, 77, 96
1, 1024, Note_off_c, 5, 77, 0
1, 1024, Note_on_c, 5, 75, 96
1, 1029, Note_off_c, 0, 72, 0
1, 1029, Note_off_c, 1, 63, 0
1, 1029, Note_off_c, 2, 58, 0
1, 1029, Note_off_c, 6, 58, 0
1, 1031, Note_off_c, 5, 75, 0
1, 1032, Note_on_c, 0, 70, 80
1, 1032, Note_on_c, 1, 65, 80
1, 1032, Note_on_c, 2, 58, 80
1, 1032, Note_on_c, 5, 70, 96
1, 1032, Note_on_c, 6, 58, 96
1, 1039, Note_off_c, 5, 70, 0
1, 1040, Note_on_c, 5, 75, 96
1, 1048, Note_off_c, 5, 75, 0
1, 1048, Note_on_c, 5, 74, 96
1, 1053, Note_off_c, 0, 70, 0
1, 1053, Note_off_c, 1, 65, 0
1, 1053, Note_off_c, 2, 58, 0
1, 1053, Note_off_c, 6, 58, 0
1, 1055, Note_off_c, 5, 74, 0
1, 1056, Note_on_c, 0, 70, 80
1, 1056, Note_on_c, 1, 65, 80
1, 1056, Note_on_c, 2, 53, 80
1, 1056, Note_on_c, 5, 72, 96
1, 1056, Note_on_c, 6, 53, 96
1, 1064, Note_off_c, 5, 72, 0
1, 1064, Note_on_c, 5, 76, 96
1, 1072, Note_off_c, 5, 76, 0
1, 1072, Note_on_c, 5, 77, 96
1, 1077, Note_off_c, 1, 65, 0
1, 1077, Note_off_c, 2, 53, 0
1, 1079, Note_off_c, 5, 77, 0
1, 1080, Note_off_c, 0, 70, 0
1, 1080, Note_on_c, 0, 69, 80
1, 1080, Note_on_c, 1, 60, 80
1, 1080, Note_on_c, 2, 65, 80
1, 1080, Note_on_c, 5, 65, 96
1, 1087, Note_off_c, 6, 53, 0
1, 1090, Note_off_c, 2, 65, 0
1, 1092, Note_on_c, 2, 67, 80
1, 1092, Note_on_c, 6, 55, 96
1, 1101, Note_off_c, 0, 69, 0
1, 1101, Note_off_c, 1, 60, 0
1, 1101, Note_off_c, 5, 65, 0
1, 1102, Note_off_c, 2, 67, 0
1, 1102, Note_off_c, 6, 55, 0
1, 1104, Note_on_c, 0, 60, 80
1, 1104, Note_on_c, 1, 57, 80
1, 1104, Note_on_c, 2, 65, 80
1, 1104, Note_on_c, 6, 53, 96
1, 1114, Note_off_c, 2, 65, 0
1, 1114, Note_off_c, 6, 53, 0
1, 1116, Note_on_c, 2, 63, 80
1, 1116, Note_on_c, 6, 51, 96
1, 1125, Note_off_c, 0, 60, 0
1, 1125, Note_off_c, 1, 57, 0
1, 1126, Note_off_c, 2, 63, 0
1, 1126, Note_off_c, 6, 51, 0
1, 1128, Note_on_c, 0, 72, 80
1, 1128, Note_on_c, 1, 69, 80
1, 1128, Note_on_c, 2, 62, 80
1, 1128, Note_on_c, 6, 50, 96
1, 1138, Note_off_c, 2, 62, 0
1, 1138, Note_off_c, 6, 50, 0
1, 1140, Note_off_c, 0, 72, 0
1, 1140, Note_on_c, 0, 74, 80
1, 1140, Note_off_c, 1, 69, 0
1, 1140, Note_on_c, 1, 70, 80
1, 1140, Note_on_c, 2, 60, 80
1, 1140, Note_on_c, 6, 48, 96
1, 1146, Note_off_c, 0, 74, 0
1, 1146, Note_on_c, 0, 75, 80
1, 1146, Note_off_c, 1, 70, 0
1, 1146, Note_on_c, 1, 72, 80
1, 1150, Note_off_c, 2, 60, 0
1, 1150, Note_off_c, 6, 48, 0
1, 1151, Note_off_c, 0, 75, 0
1, 1151, Note_off_c, 1, 72, 0
1, 1152, Note_on_c, 0, 65, 96
1, 1152, Note_on_c, 1, 62, 96
1, 1152, Note_on_c, 2, 58, 96
1, 1152, Note_on_c, 3, 46, 96
1, 1152, Note_on_c, 4, 34, 96
1, 1152, Note_on_c, 5, 65, 96
1, 1152, Note_on_c, 5, 62, 96
1, 1152, Note_on_c, 5, 58, 96
1, 1152, Note_on_c, 6, 46, 96
1, 1173, Note_off_c, 0, 65, 0
1, 1173, Note_off_c, 1, 62, 0
1, 1173, Note_off_c, 2, 58, 0
1, 1173, Note_off_c, 3, 46, 0
1, 1173, Note_off_c, 4, 34, 0
1, 1173, Note_off_c, 5, 65, 0
1, 1173, Note_off_c, 5, 62, 0
1, 1173, Note_off_c, 5, 58, 0
1, 1173, Note_off_c, 6, 46, 0
1, 1176, Note_on_c, 3, 46, 96
1, 1176, Note_on_c, 4, 34, 96
1, 1176, Note_on_c, 6, 46, 96
1, 1197, Note_off_c, 3, 46, 0
1, 1197, Note_off_c, 4, 34, 0
1, 1197, Note_off_c, 6, 46, 0
1, 1200, Note_on_c, 0, 68, 96
1, 1200, Note_on_c, 1, 62, 96
1, 1200, Note_on_c, 2, 53, 96
1, 1200, Note_on_c, 3, 46, 96
1, 1200, Note_on_c, 4, 34, 96
1, 1200, Note_on_c, 5, 68, 96
1, 1200, Note_on_c, 5, 65, 96
1, 1200, Note_on_c, 5, 62, 96
1, 1200, Note_on_c, 5, 58, 96
1, 1200, Note_on_c, 6, 46, 96
1, 1221, Note_off_c, 0, 68, 0
1, 1221, Note_off_c, 1, 62, 0
1, 1221, Note_off_c, 2, 53, 0
1, 1221, Note_off_c, 3, 46, 0
1, 1221, Note_off_c, 4, 34, 0
1, 1221, Note_off_c, 5, 68, 0
1, 1221, Note_off_c, 5, 65, 0
1, 1221, Note_off_c, 5, 62, 0
1, 1221, Note_off_c, 5, 58, 0
1, 1221, Note_off_c, 6, 46, 0
1, 1224, Note_on_c, 3, 50, 96
1, 1224, Note_on_c, 4, 38, 96
1, 1224, Note_on_c, 6, 50, 96
1, 1236, Note_off_c, 3, 50, 0
1, 1236, Note_on_c, 3, 51, 96
1, 1236, Note_off_c, 4, 38, 0
1, 1236, Note_on_c, 4, 39, 96
1, 1236, Note_off_c, 6, 50, 0
1, 1236, Note_on_c, 6, 51, 96
1, 1242, Note_off_c, 3, 51, 0
1, 1242, Note_on_c, 3, 53, 96
1, 1242, Note_off_c, 4, 39, 0
1, 1242, Note_on_c, 4, 41, 96
1, 1242, Note_off_c, 6, 51, 0
1, 1242, Note_on_c, 6, 53, 96
1, 1247, Note_off_c, 3, 53, 0
1, 1247, Note_off_c, 4, 41, 0
1, 1247, Note_off_c, 6, 53, 0
1, 1248, Note_on_c, 0, 68, 96
1, 1248, Note_on_c, 1, 63, 96
1, 1248, Note_on_c, 2, 58, 96
1, 1248, Note_on_c, 3, 46, 96
1, 1248, Note_on_c, 4, 34, 96
1, 1248, Note_on_c, 5, 68, 96
1, 1248, Note_on_c, 5, 63, 96
1, 1248, Note_on_c, 5, 58, 96
1, 1248, Note_on_c, 6, 46, 96
1, 1269, Note_off_c, 0, 68, 0
1, 1269, Note_off_c, 1, 63, 0
1, 1269, Note_off_c, 2, 58, 0
1, 1269, Note_off_c, 3, 46, 0
1, 1269, Note_off_c, 4, 34, 0
1, 1269, Note_off_c, 5, 68, 0
1, 1269, Note_off_c, 5, 63, 0
1, 1269, Note_off_c, 5, 58, 0
1, 1269, Note_off_c, 6, 46, 0
1, 1272, Note_on_c, 3, 46, 96
1, 1272, Note_on_c, 4, 34, 96
1, 1272, Note_on_c, 6, 46, 96
1, 1293, Note_off_c, 3, 46, 0
1, 1293, Note_off_c, 4, 34, 0
1, 1293, Note_off_c, 6, 46, 0
1, 1296, Note_on_c, 0, 67, 96
1, 1296, Note_on_c, 1, 63, 96
1, 1296, Note_on_c, 2, 58, 96
1, 1296, Note_on_c, 3, 46, 96
1, 1296, Note_on_c, 4, 34, 96
1, 1296, Note_on_c, 5, 67, 96
1, 1296, Note_on_c, 5, 63, 96
1, 1296, Note_on_c, 5, 58, 96
1, 1296, Note_on_c, 6, 46, 96
1, 1317, Note_off_c, 0, 67, 0
1, 1317, Note_off_c, 1, 63, 0
1, 1317, Note_off_c, 2, 58, 0
1, 1317, Note_off_c, 3, 46, 0
1, 1317, Note_off_c, 4, 34, 0
1, 1317, Note_off_c, 5, 67, 0
1, 1317, Note_off_c, 5, 63, 0
1, 1317, Note_off_c, 5, 58, 0
1, 1317, Note_off_c, 6, 46, 0
1, 1320, Note_on_c, 3, 51, 96
1, 1320, Note_on_c, 4, 39, 96
1, 1320, Note_on_c, 6, 51, 96
1, 1332, Note_off_c, 3, 51, 0
1, 1332, Note_on_c, 3, 53, 96
1, 1332, Note_off_c, 4, 39, 0
1, 1332, Note_on_c, 4, 41, 96
1, 1332, Note_off_c, 6, 51, 0
1, 1332, Note_on_c, 6, 53, 96
1, 1338, Note_off_c, 3, 53, 0
1, 1338, Note_on_c, 3, 55, 96
1, 1338, Note_off_c, 4, 41, 0
1, 1338, Note_on_c, 4, 43, 96
1, 1338, Note_off_c, 6, 53, 0
1, 1338, Note_on_c, 6, 55, 96
1, 1343, Note_off_c, 3, 55, 0
1, 1343, Note_off_c, 4, 43, 0
1, 1343, Note_off_c, 6, 55, 0
1, 1344, Note_on_c, 0, 72, 96
1, 1344, Note_on_c, 1, 63, 96
1, 1344, Note_on_c, 2, 55, 96
1, 1344, Note_on_c, 3, 46, 96
1, 1344, Note_on_c, 4, 34, 96
1, 1344, Note_on_c, 5, 72, 96
1, 1344, Note_on_c, 5, 67, 96
1, 1344, Note_on_c, 5, 63, 96
1, 1344, Note_on_c, 6, 46, 96
1, 1365, Note_off_c, 0, 72, 0
1, 1365, Note_off_c, 1, 63, 0
1, 1365, Note_off_c, 2, 55, 0
1, 1365, Note_off_c, 3, 46, 0
1, 1365, Note_off_c, 4, 34, 0
1, 1365, Note_off_c, 5, 72, 0
1, 1365, Note_off_c, 5, 67, 0
1, 1365, Note_off_c, 5, 63, 0
1, 1365, Note_off_c, 6, 46, 0
1, 1368, Note_on_c, 3, 46, 96
1, 1368, Note_on_c, 4, 34, 96
1, 1368, Note_on_c, 6, 46, 96
1, 1389, Note_off_c, 3, 46, 0
1, 1389, Note_off_c, 4, 34, 0
1, 1389, Note_off_c, 6, 46, 0
1, 1392, Note_on_c, 0, 63, 96
1, 1392, Note_on_c, 1, 60, 96
1, 1392, Note_on_c, 2, 57, 96
1, 1392, Note_on_c, 3, 46, 96
1, 1392, Note_on_c, 4, 34, 96
1, 1392, Note_on_c, 5, 63, 96
1, 1392, Note_on_c, 5, 60, 96
1, 1392, Note_on_c, 6, 46, 96
1, 1413, Note_off_c, 0, 63, 0
1, 1413, Note_off_c, 1, 60, 0
1, 1413, Note_off_c, 2, 57, 0
1, 1413, Note_off_c, 3, 46, 0
1, 1413, Note_off_c, 4, 34, 0
1, 1413, Note_off_c, 5, 63, 0
1, 1413, Note_off_c, 5, 60, 0
1, 1413, Note_off_c, 6, 46, 0
1, 1416, Note_on_c, 3, 57, 96
1, 1416, Note_on_c, 4, 45, 96
1, 1416, Note_on_c, 6, 57, 96
1, 1428, Note_off_c, 3, 57, 0
1, 1428, Note_on_c, 3, 58, 96
1, 1428, Note_off_c, 4, 45, 0
1, 1428, Note_on_c, 4, 46, 96
1, 1428, Note_off_c, 6, 57, 0
1, 1428, Note_on_c, 6, 58, 96
1, 1434, Note_off_c, 3, 58, 0
1, 1434, Note_on_c, 3, 60, 96
1, 1434, Note_off_c, 4, 46, 0
1, 1434, Note_on_c, 4, 48, 96
1, 1434, Note_off_c, 6, 58, 0
1, 1434, Note_on_c, 6, 60, 96
1, 1439, Note_off_c, 3, 60, 0
1, 1439, Note_off_c, 4, 48, 0
1, 1439, Note_off_c, 6, 60, 0
1, 1440, Note_on_c, 0, 63, 96
1, 1440, Note_on_c, 1, 60, 96
1, 1440, Note_on_c, 2, 53, 96
1, 1440, Note_on_c, 3, 46, 96
1, 1440, Note_on_c, 4, 34, 96
1, 1440, Note_on_c, 5, 63, 96
1, 1440, Note_on_c, 5, 60, 96
1, 1440, Note_on_c, 6, 46, 96
1, 1461, Note_off_c, 0, 63, 0
1, 1461, Note_off_c, 1, 60, 0
1, 1461, Note_off_c, 2, 53, 0
1, 1461, Note_off_c, 3, 46, 0
1, 1461, Note_off_c, 4, 34, 0
1, 1461, Note_off_c, 5, 63, 0
1, 1461, Note_off_c, 5, 60, 0
1, 1461, Note_off_c, 6, 46, 0
1, 1464, Note_on_c, 3, 46, 96
1, 1464, Note_on_c, 4, 34, 96
1, 1464, Note_on_c, 6, 46, 96
1, 1485, Note_off_c, 3, 46, 0
1, 1485, Note_off_c, 4, 34, 0
1, 1485, Note_off_c, 6, 46, 0
1, 1488, Note_on_c, 0, 62, 96
1, 1488, Note_on_c, 1, 58, 96
1, 1488, Note_on_c, 2, 53, 96
1, 1488, Note_on_c, 3, 46, 96
1, 1488, Note_on_c, 4, 34, 96
1, 1488, Note_on_c, 5, 62, 96
1, 1488, Note_on_c, 5, 58, 96
1, 1488, Note_on_c, 6, 46, 96
1, 1509, Note_off_c, 0, 62, 0
1, 1509, Note_off_c, 1, 58, 0
1, 1509, Note_off_c, 2, 53, 0
1, 1509, Note_off_c, 3, 46, 0
1, 1509, Note_off_c, 4, 34, 0
1, 1509, Note_off_c, 5, 62, 0
1, 1509, Note_off_c, 5, 58, 0
1, 1509, Note_off_c, 6, 46, 0
1, 1512, Note_on_c, 3, 53, 96
1, 1512, Note_on_c, 4, 41, 96
1, 1512, Note_on_c, 6, 53, 96
1, 1524, Note_off_c, 3, 53, 0
1, 1524, Note_on_c, 3, 55, 96
1, 1524, Note_off_c, 4, 41, 0
1, 1524, Note_on_c, 4, 43, 96
1, 1524, Note_off_c, 6, 53, 0
1, 1524, Note_on_c, 6, 55, 96
1, 1530, Note_off_c, 3, 55, 0
1, 1530, Note_on_c, 3, 57, 96
1, 1530, Note_off_c, 4, 43, 0
1, 1530, Note_on_c, 4, 45, 96
1, 1530, Note_off_c, 6, 55, 0
1, 1530, Note_on_c, 6, 57, 96
1, 1535, Note_off_c, 3, 57, 0
1, 1535, Note_off_c, 4, 45, 0
1, 1535, Note_off_c, 6, 57, 0
1, 1536, Note_on_c, 0, 74, 80
1, 1536, Note_on_c, 1, 65, 80
1, 1536, Note_on_c, 2, 58, 80
1, 1536, Note_on_c, 3, 46, 80
1, 1536, Note_on_c, 4, 34, 80
1, 1536, Note_on_c, 5, 74, 96
1, 1536, Note_on_c, 6, 46, 96
1, 1557, Note_off_c, 0, 74, 0
1, 1557, Note_off_c, 1, 65, 0
1, 1557, Note_off_c, 2, 58, 0
1, 1557, Note_off_c, 3, 46, 0
1, 1557, Note_off_c, 4, 34, 0
1, 1557, Note_off_c, 6, 46, 0
1, 1560, Note_on_c, 2, 58, 80
1, 1560, Note_on_c, 6, 58, 96
1, 1581, Note_off_c, 2, 58, 0
1, 1581, Note_off_c, 6, 58, 0
1, 1584, Note_on_c, 0, 79, 80
1, 1584, Note_on_c, 1, 70, 80
1, 1584, Note_on_c, 2, 58, 80
1, 1584, Note_on_c, 6, 58, 96
1, 1585, Note_off_c, 5, 74, 0
1, 1592, Note_on_c, 5, 70, 96
1, 1599, Note_off_c, 5, 70, 0
1, 1600, Note_on_c, 5, 69, 96
1, 1605, Note_off_c, 0, 79, 0
1, 1605, Note_off_c, 1, 70, 0
1, 1605, Note_off_c, 2, 58, 0
1, 1605, Note_off_c, 6, 58, 0
1, 1607, Note_off_c, 5, 69, 0
1, 1608, Note_on_c, 2, 58, 80
1, 1608, Note_on_c, 5, 70, 96
1, 1608, Note_on_c, 6, 58, 96
1, 1615, Note_off_c, 5, 70, 0
1, 1616, Note_on_c, 5, 74, 96
1, 1623, Note_off_c, 5, 74, 0
1, 1624, Note_on_c, 5, 79, 96
1, 1629, Note_off_c, 2, 58, 0
1, 1629, Note_off_c, 6, 58, 0
1, 1631, Note_off_c, 5, 79, 0
1, 1632, Note_on_c, 0, 72, 80
1, 1632, Note_on_c, 1, 64, 80
1, 1632, Note_on_c, 2, 57, 80
1, 1632, Note_on_c, 5, 79, 96
1, 1632, Note_on_c, 6, 57, 96
1, 1653, Note_off_c, 0, 72, 0
1, 1653, Note_off_c, 1, 64, 0
1, 1653, Note_off_c, 2, 57, 0
1, 1653, Note_off_c, 5, 79, 0
1, 1653, Note_off_c, 6, 57, 0
1, 1656, Note_on_c, 2, 57, 80
1, 1656, Note_on_c, 5, 74, 96
1, 1656, Note_on_c, 6, 57, 96
1, 1659, Note_off_c, 5, 74, 0
1, 1659, Note_on_c, 5, 72, 96
1, 1662, Note_off_c, 5, 72, 0
1, 1662, Note_on_c, 5, 74, 96
1, 1665, Note_off_c, 5, 74, 0
1, 1665, Note_on_c, 5, 72, 96
1, 1668, Note_off_c, 5, 72, 0
1, 1668, Note_on_c, 5, 74, 96
1, 1671, Note_off_c, 5, 74, 0
1, 1671, Note_on_c, 5, 72, 96
1, 1674, Note_off_c, 5, 72, 0
1, 1674, Note_on_c, 5, 74, 96
1, 1677, Note_off_c, 2, 57, 0
1, 1677, Note_off_c, 5, 74, 0
1, 1677, Note_on_c, 5, 72, 96
1, 1677, Note_off_c, 6, 57, 0
1, 1680, Note_on_c, 0, 77, 80
1, 1680, Note_on_c, 1, 69, 80
1, 1680, Note_on_c, 2, 57, 80
1, 1680, Note_on_c, 6, 57, 96
1, 1687, Note_off_c, 5, 72, 0
1, 1688, Note_on_c, 5, 69, 96
1, 1695, Note_off_c, 5, 69, 0
1, 1696, Note_on_c, 5, 67, 96
1, 1701, Note_off_c, 0, 77, 0
1, 1701, Note_off_c, 1, 69, 0
1, 1701, Note_off_c, 2, 57, 0
1, 1701, Note_off_c, 6, 57, 0
1, 1703, Note_off_c, 5, 67, 0
1, 1704, Note_on_c, 2, 57, 80
1, 1704, Note_on_c, 5, 69, 96
1, 1704, Note_on_c, 6, 57, 96
1, 1711, Note_off_c, 5, 69, 0
1, 1712, Note_on_c, 5, 72, 96
1, 1719, Note_off_c, 5, 72, 0
1, 1720, Note_on_c, 5, 77, 96
1, 1725, Note_off_c, 2, 57, 0
1, 1725, Note_off_c, 6, 57, 0
1, 1727, Note_off_c, 5, 77, 0
1, 1728, Note_on_c, 0, 70, 80
1, 1728, Note_on_c, 1, 62, 80
1, 1728, Note_on_c, 2, 55, 80
1, 1728, Note_on_c, 5, 77, 96
1, 1728, Note_on_c, 6, 55, 96
1, 1735, Note_off_c, 5, 77, 0
1, 1736, Note_on_c, 5, 76, 96
1, 1743, Note_off_c, 5, 76, 0
1, 1744, Note_on_c, 5, 74, 96
1, 1749, Note_off_c, 0, 70, 0
1, 1749, Note_off_c, 1, 62, 0
1, 1749, Note_off_c, 2, 55, 0
1, 1749, Note_off_c, 6, 55, 0
1, 1751, Note_off_c, 5, 74, 0
1, 1752, Note_on_c, 2, 55, 80
1, 1752, Note_on_c, 5, 76, 96
1, 1752, Note_on_c, 6, 55, 96
1, 1759, Note_off_c, 5, 76, 0
1, 1760, Note_on_c, 5, 79, 96
1, 1767, Note_off_c, 5, 79, 0
1, 1768, Note_on_c, 5, 82, 96
1, 1773, Note_off_c, 2, 55, 0
1, 1773, Note_off_c, 6, 55, 0
1, 1775, Note_off_c, 5, 82, 0
1, 1776, Note_on_c, 0, 74, 80
1, 1776, Note_on_c, 1, 65, 80
1, 1776, Note_on_c, 2, 53, 80
1, 1776, Note_on_c, 5, 82, 96
1, 1776, Note_on_c, 6, 53, 96
1, 1783, Note_off_c, 5, 82, 0
1, 1784, Note_on_c, 5, 81, 96
1, 1791, Note_off_c, 5, 81, 0
1, 1792, Note_on_c, 5, 79, 96
1, 1797, Note_off_c, 0, 74, 0
1, 1797, Note_off_c, 1, 65, 0
1, 1797, Note_off_c, 2, 53, 0
1, 1797, Note_off_c, 6, 53, 0
1, 1799, Note_off_c, 5, 79, 0
1, 1800, Note_on_c, 2, 53, 80
1, 1800, Note_on_c, 5, 77, 96
1, 1800, Note_on_c, 6, 53, 96
1, 1807, Note_off_c, 5, 77, 0
1, 1808, Note_on_c, 5, 76, 96
1, 1815, Note_off_c, 5, 76, 0
1, 1816, Note_on_c, 5, 74, 96
1, 1821, Note_off_c, 2, 53, 0
1, 1821, Note_off_c, 6, 53, 0
1, 1823, Note_off_c, 5, 74, 0
1, 1824, Note_on_c, 0, 79, 80
1, 1824, Note_on_c, 1, 70, 80
1, 1824, Note_on_c, 2, 52, 80
1, 1824, Note_on_c, 5, 72, 96
1, 1824, Note_on_c, 6, 52, 96
1, 1845, Note_off_c, 0, 79, 0
1, 1845, Note_off_c, 1, 70, 0
1, 1845, Note_off_c, 2, 52, 0
1, 1845, Note_off_c, 6, 52, 0
1, 1848, Note_on_c, 2, 52, 80
1, 1848, Note_on_c, 6, 52, 96
1, 1869, Note_off_c, 2, 52, 0
1, 1869, Note_off_c, 6, 52, 0
1, 1872, Note_on_c, 0, 76, 80
1, 1872, Note_on_c, 1, 70, 80
1, 1872, Note_on_c, 2, 48, 80
1, 1872, Note_on_c, 6, 48, 96
1, 1873, Note_off_c, 5, 72, 0
1, 1880, Note_on_c, 5, 76, 96
1, 1887, Note_off_c, 5, 76, 0
1, 1888, Note_on_c, 5, 79, 96
1, 1893, Note_off_c, 0, 76, 0
1, 1893, Note_off_c, 1, 70, 0
1, 1893, Note_off_c, 2, 48, 0
1, 1893, Note_off_c, 6, 48, 0
1, 1895, Note_off_c, 5, 79, 0
1, 1896, Note_on_c, 2, 48, 80
1, 1896, Note_on_c, 5, 82, 96
1, 1896, Note_on_c, 6, 48, 96
1, 1903, Note_off_c, 5, 82, 0
1, 1904, Note_on_c, 5, 81, 96
1, 1911, Note_off_c, 5, 81, 0
1, 1912, Note_on_c, 5, 79, 96
1, 1917, Note_off_c, 2, 48, 0
1, 1917, Note_off_c, 6, 48, 0
1, 1919, Note_off_c, 5, 79, 0
1, 1920, Note_on_c, 0, 72, 80
1, 1920, Note_on_c, 1, 69, 80
1, 1920, Note_on_c, 2, 53, 80
1, 1920, Note_on_c, 3, 41, 80
1, 1920, Note_on_c, 4, 29, 80
1, 1920, Note_on_c, 5, 81, 96
1, 1920, Note_on_c, 6, 41, 96
1, 1927, Note_off_c, 5, 81, 0
1, 1928, Note_on_c, 5, 84, 96
1, 1935, Note_off_c, 5, 84, 0
1, 1936, Note_on_c, 5, 82, 96
1, 1941, Note_off_c, 0, 72, 0
1, 1941, Note_off_c, 1, 69, 0
1, 1941, Note_off_c, 2, 53, 0
1, 1941, Note_off_c, 3, 41, 0
1, 1941, Note_off_c, 4, 29, 0
1, 1941, Note_off_c, 6, 41, 0
1, 1943, Note_off_c, 5, 82, 0
1, 1944, Note_on_c, 3, 41, 80
1, 1944, Note_on_c, 4, 29, 80
1, 1944, Note_on_c, 5, 81, 96
1, 1944, Note_on_c, 6, 41, 96
1, 1951, Note_off_c, 5, 81, 0
1, 1952, Note_on_c, 5, 79, 96
1, 1959, Note_off_c, 5, 79, 0
1, 1960, Note_on_c, 5, 77, 96
1, 1965, Note_off_c, 3, 41, 0
1, 1965, Note_off_c, 4, 29, 0
1, 1965, Note_off_c, 6, 41, 0
1, 1967, Note_off_c, 5, 77, 0
1, 1968, Note_on_c, 0, 75, 80
1, 1968, Note_on_c, 1, 72, 80
1, 1968, Note_on_c, 2, 57, 80
1, 1968, Note_on_c, 3, 41, 80
1, 1968, Note_on_c, 4, 29, 80
1, 1968, Note_on_c, 5, 75, 96
1, 1968, Note_on_c, 6, 41, 96
1, 1976, Note_off_c, 5, 75, 0
1, 1976, Note_on_c, 5, 74, 96
1, 1984, Note_off_c, 5, 74, 0
1, 1984, Note_on_c, 5, 75, 96
1, 1989, Note_off_c, 0, 75, 0
1, 1989, Note_off_c, 1, 72, 0
1, 1989, Note_off_c, 2, 57, 0
1, 1989, Note_off_c, 3, 41, 0
1, 1989, Note_off_c, 4, 29, 0
1, 1989, Note_off_c, 6, 41, 0
1, 1991, Note_off_c, 5, 75, 0
1, 1992, Note_on_c, 3, 45, 80
1, 1992, Note_on_c, 4, 33, 80
1, 1992, Note_on_c, 5, 75, 96
1, 1992, Note_on_c, 6, 45, 96
1, 2004, Note_off_c, 3, 45, 0
1, 2004, Note_on_c, 3, 46, 80
1, 2004, Note_off_c, 4, 33, 0
1, 2004, Note_on_c, 4, 34, 80
1, 2004, Note_off_c, 6, 45, 0
1, 2004, Note_on_c, 6, 46, 96
1, 2010, Note_off_c, 3, 46, 0
1, 2010, Note_on_c, 3, 48, 80
1, 2010, Note_off_c, 4, 34, 0
1, 2010, Note_on_c, 4, 36, 80
1, 2010, Note_off_c, 6, 46, 0
1, 2010, Note_on_c, 6, 48, 96
1, 2015, Note_off_c, 3, 48, 0
1, 2015, Note_off_c, 4, 36, 0
1, 2015, Note_off_c, 6, 48, 0
1, 2016, Note_on_c, 0, 75, 80
1, 2016, Note_on_c, 1, 72, 80
1, 2016, Note_on_c, 2, 58, 80
1, 2016, Note_on_c, 3, 41, 80
1, 2016, Note_on_c, 4, 29, 80
1, 2016, Note_on_c, 6, 41, 96
1, 2020, Note_off_c, 5, 75, 0
1, 2024, Note_on_c, 5, 65, 96
1, 2031, Note_off_c, 5, 65, 0
1, 2032, Note_on_c, 5, 67, 96
1, 2037, Note_off_c, 0, 75, 0
1, 2037, Note_off_c, 1, 72, 0
1, 2037, Note_off_c, 2, 58, 0
1, 2037, Note_off_c, 3, 41, 0
1, 2037, Note_off_c, 4, 29, 0
1, 2037, Note_off_c, 6, 41, 0
1, 2039, Note_off_c, 5, 67, 0
1, 2040, Note_on_c, 3, 41, 80
1, 2040, Note_on_c, 4, 29, 80
1, 2040, Note_on_c, 5, 69, 96
1, 2040, Note_on_c, 6, 41, 96
1, 2047, Note_off_c, 5, 69, 0
1, 2048, Note_on_c, 5, 70, 96
1, 2055, Note_off_c, 5, 70, 0
1, 2056, Note_on_c, 5, 72, 96
1, 2061, Note_off_c, 3, 41, 0
1, 2061, Note_off_c, 4, 29, 0
1, 2061, Note_off_c, 6, 41, 0
1, 2063, Note_off_c, 5, 72, 0
1, 2064, Note_on_c, 0, 74, 80
1, 2064, Note_on_c, 1, 70, 80
1, 2064, Note_on_c, 2, 65, 80
1, 2064, Note_on_c, 3, 41, 80
1, 2064, Note_on_c, 4, 29, 80
1, 2064, Note_on_c, 5, 74, 96
1, 2064, Note_on_c, 6, 41, 96
1, 2071, Note_off_c, 5, 74, 0
1, 2072, Note_on_c, 5, 77, 96
1, 2079, Note_off_c, 5, 77, 0
1, 2080, Note_on_c, 5, 82, 96
1, 2085, Note_off_c, 0, 74, 0
1, 2085, Note_off_c, 1, 70, 0
1, 2085, Note_off_c, 2, 65, 0
1, 2085, Note_off_c, 3, 41, 0
1, 2085, Note_off_c, 4, 29, 0
1, 2085, Note_off_c, 6, 41, 0
1, 2087, Note_off_c, 5, 82, 0
1, 2088, Note_on_c, 3, 46, 80
1, 2088, Note_on_c, 4, 34, 80
1, 2088, Note_on_c, 5, 74, 96
1, 2088, Note_on_c, 6, 46, 96
1, 2100, Note_off_c, 3, 46, 0
1, 2100, Note_on_c, 3, 48, 80
1, 2100, Note_off_c, 4, 34, 0
1, 2100, Note_on_c, 4, 36, 80
1, 2100, Note_off_c, 6, 46, 0
1, 2100, Note_on_c, 6, 48, 96
1, 2106, Note_off_c, 3, 48, 0
1, 2106, Note_on_c, 3, 50, 80
1, 2106, Note_off_c, 4, 36, 0
1, 2106, Note_on_c, 4, 38, 80
1, 2106, Note_off_c, 6, 48, 0
1, 2106, Note_on_c, 6, 50, 96
1, 2111, Note_off_c, 3, 50, 0
1, 2111, Note_off_c, 4, 38, 0
1, 2111, Note_off_c, 6, 50, 0
1, 2112, Note_on_c, 0, 79, 80
1, 2112, Note_on_c, 1, 70, 80
1, 2112, Note_on_c, 2, 62, 80
1, 2112, Note_on_c, 3, 41, 80
1, 2112, Note_on_c, 4, 29, 80
1, 2112, Note_on_c, 6, 41, 96
1, 2116, Note_off_c, 5, 74, 0
1, 2120, Note_on_c, 5, 76, 96
1, 2127, Note_off_c, 5, 76, 0
1, 2128, Note_on_c, 5, 77, 96
1, 2133, Note_off_c, 0, 79, 0
1, 2133, Note_off_c, 1, 70, 0
1, 2133, Note_off_c, 2, 62, 0
1, 2133, Note_off_c, 3, 41, 0
1, 2133, Note_off_c, 4, 29, 0
1, 2133, Note_off_c, 6, 41, 0
1, 2135, Note_off_c, 5, 77, 0
1, 2136, Note_on_c, 3, 41, 80
1, 2136, Note_on_c, 4, 29, 80
1, 2136, Note_on_c, 5, 79, 96
1, 2136, Note_on_c, 6, 41, 96
1, 2143, Note_off_c, 5, 79, 0
1, 2144, Note_on_c, 5, 77, 96
1, 2151, Note_off_c, 5, 77, 0
1, 2152, Note_on_c, 5, 79, 96
1, 2157, Note_off_c, 3, 41, 0
1, 2157, Note_off_c, 4, 29, 0
1, 2157, Note_off_c, 6, 41, 0
1, 2159, Note_off_c, 5, 79, 0
1, 2160, Note_on_c, 0, 70, 80
1, 2160, Note_on_c, 1, 67, 80
1, 2160, Note_on_c, 2, 64, 80
1, 2160, Note_on_c, 3, 41, 80
1, 2160, Note_on_c, 4, 29, 80
1, 2160, Note_on_c, 5, 70, 96
1, 2160, Note_on_c, 6, 41, 96
1, 2167, Note_off_c, 5, 70, 0
1, 2168, Note_on_c, 5, 69, 96
1, 2175, Note_off_c, 5, 69, 0
1, 2176, Note_on_c, 5, 70, 96
1, 2181, Note_off_c, 0, 70, 0
1, 2181, Note_off_c, 1, 67, 0
1, 2181, Note_off_c, 2, 64, 0
1, 2181, Note_off_c, 3, 41, 0
1, 2181, Note_off_c, 4, 29, 0
1, 2181, Note_off_c, 6, 41, 0
1, 2183, Note_off_c, 5, 70, 0
1, 2184, Note_on_c, 3, 52, 80
1, 2184, Note_on_c, 4, 40, 80
1, 2184, Note_on_c, 5, 79, 96
1, 2184, Note_on_c, 6, 52, 96
1, 2196, Note_off_c, 3, 52, 0
1, 2196, Note_on_c, 3, 53, 80
1, 2196, Note_off_c, 4, 40, 0
1, 2196, Note_on_c, 4, 41, 80
1, 2196, Note_off_c, 6, 52, 0
1, 2196, Note_on_c, 6, 53, 96
1, 2200, Note_off_c, 5, 79, 0
1, 2202, Note_off_c, 3, 53, 0
1, 2202, Note_on_c, 3, 55, 80
1, 2202, Note_off_c, 4, 41, 0
1, 2202, Note_on_c, 4, 43, 80
1, 2202, Note_on_c, 5, 70, 96
1, 2202, Note_off_c, 6, 53, 0
1, 2202, Note_on_c, 6, 55, 96
1, 2207, Note_off_c, 3, 55, 0
1, 2207, Note_off_c, 4, 43, 0
1, 2207, Note_off_c, 5, 70, 0
1, 2207, Note_off_c, 6, 55, 0
1, 2208, Note_on_c, 0, 70, 80
1, 2208, Note_on_c, 1, 67, 80
1, 2208, Note_on_c, 2, 60, 80
1, 2208, Note_on_c, 3, 41, 80
1, 2208, Note_on_c, 4, 29, 80
1, 2208, Note_on_c, 5, 70, 96
1, 2208, Note_on_c, 6, 41, 96
1, 2215, Note_off_c, 5, 70, 0
1, 2216, Note_on_c, 5, 69, 96
1, 2223, Note_off_c, 5, 69, 0
1, 2224, Note_on_c, 5, 67, 96
1, 2229, Note_off_c, 0, 70, 0
1, 2229, Note_off_c, 1, 67, 0
1, 2229, Note_off_c, 2, 60, 0
1, 2229, Note_off_c, 6, 41, 0
1, 2231, Note_off_c, 5, 67, 0
1, 2232, Note_on_c, 0, 69, 80
1, 2232, Note_on_c, 1, 65, 80
1, 2232, Note_on_c, 2, 65, 80
1, 2232, Note_on_c, 5, 69, 96
1, 2232, Note_on_c, 6, 65, 96
1, 2242, Note_off_c, 6, 65, 0
1, 2244, Note_off_c, 0, 69, 0
1, 2244, Note_on_c, 0, 72, 80
1, 2244, Note_off_c, 1, 65, 0
1, 2244, Note_on_c, 1, 69, 80
1, 2244, Note_off_c, 2, 65, 0
1, 2244, Note_on_c, 2, 64, 80
1, 2244, Note_on_c, 6, 64, 96
1, 2250, Note_off_c, 3, 41, 0
1, 2250, Note_off_c, 4, 29, 0
1, 2254, Note_off_c, 0, 72, 0
1, 2254, Note_off_c, 1, 69, 0
1, 2254, Note_off_c, 2, 64, 0
1, 2254, Note_off_c, 6, 64, 0
1, 2256, Note_on_c, 0, 77, 80
1, 2256, Note_on_c, 1, 74, 80
1, 2256, Note_on_c, 2, 62, 80
1, 2256, Note_on_c, 6, 62, 96
1, 2260, Note_off_c, 5, 69, 0
1, 2264, Note_on_c, 5, 72, 96
1, 2271, Note_off_c, 5, 72, 0
1, 2272, Note_on_c, 5, 74, 96
1, 2277, Note_off_c, 0, 77, 0
1, 2277, Note_off_c, 1, 74, 0
1, 2277, Note_off_c, 2, 62, 0
1, 2277, Note_off_c, 6, 62, 0
1, 2279, Note_off_c, 5, 74, 0
1, 2280, Note_on_c, 2, 60, 80
1, 2280, Note_on_c, 5, 76, 96
1, 2280, Note_on_c, 6, 60, 96
1, 2287, Note_off_c, 5, 76, 0
1, 2288, Note_on_c, 5, 77, 96
1, 2295, Note_off_c, 5, 77, 0
1, 2296, Note_on_c, 5, 79, 96
1, 2301, Note_off_c, 2, 60, 0
1, 2301, Note_off_c, 6, 60, 0
1, 2303, Note_off_c, 5, 79, 0
1, 2304, Note_on_c, 0, 74, 80
1, 2304, Note_on_c, 1, 65, 80
1, 2304, Note_on_c, 2, 59, 80
1, 2304, Note_on_c, 5, 80, 96
1, 2304, Note_on_c, 6, 59, 96
1, 2325, Note_off_c, 0, 74, 0
1, 2325, Note_off_c, 1, 65, 0
1, 2325, Note_off_c, 2, 59, 0
1, 2325, Note_off_c, 6, 59, 0
1, 2328, Note_on_c, 2, 59, 80
1, 2328, Note_on_c, 6, 59, 96
1, 2349, Note_off_c, 2, 59, 0
1, 2349, Note_off_c, 6, 59, 0
1, 2352, Note_on_c, 0, 73, 80
1, 2352, Note_on_c, 1, 70, 80
1, 2352, Note_on_c, 2, 58, 80
1, 2352, Note_on_c, 6, 58, 96
1, 2353, Note_off_c, 5, 80, 0
1, 2360, Note_on_c, 5, 79, 96
1, 2367, Note_off_c, 5, 79, 0
1, 2368, Note_on_c, 5, 77, 96
1, 2373, Note_off_c, 0, 73, 0
1, 2373, Note_off_c, 1, 70, 0
1, 2373, Note_off_c, 2, 58, 0
1, 2373, Note_off_c, 6, 58, 0
1, 2375, Note_off_c, 5, 77, 0
1, 2376, Note_on_c, 2, 58, 80
1, 2376, Note_on_c, 5, 78, 96
1, 2376, Note_on_c, 6, 58, 96
1, 2397, Note_off_c, 2, 58, 0
1, 2397, Note_off_c, 6, 58, 0
1, 2400, Note_on_c, 0, 72, 80
1, 2400, Note_on_c, 1, 60, 80
1, 2400, Note_on_c, 2, 57, 80
1, 2400, Note_on_c, 6, 57, 96
1, 2404, Note_off_c, 5, 78, 0
1, 2408, Note_on_c, 5, 77, 96
1, 2415, Note_off_c, 5, 77, 0
1, 2416, Note_on_c, 5, 76, 96
1, 2421, Note_off_c, 0, 72, 0
1, 2421, Note_off_c, 1, 60, 0
1, 2421, Note_off_c, 2, 57, 0
1, 2421, Note_off_c, 6, 57, 0
1, 2423, Note_off_c, 5, 76, 0
1, 2424, Note_on_c, 2, 57, 80
1, 2424, Note_on_c, 5, 77, 96
1, 2424, Note_on_c, 6, 57, 96
1, 2445, Note_off_c, 2, 57, 0
1, 2445, Note_off_c, 6, 57, 0
1, 2448, Note_on_c, 0, 77, 80
1, 2448, Note_on_c, 1, 72, 80
1, 2448, Note_on_c, 2, 56, 80
1, 2448, Note_on_c, 6, 56, 96
1, 2452, Note_off_c, 5, 77, 0
1, 2456, Note_on_c, 5, 75, 96
1, 2463, Note_off_c, 5, 75, 0
1, 2464, Note_on_c, 5, 73, 96
1, 2469, Note_off_c, 0, 77, 0
1, 2469, Note_off_c, 1, 72, 0
1, 2469, Note_off_c, 2, 56, 0
1, 2469, Note_off_c, 6, 56, 0
1, 2471, Note_off_c, 5, 73, 0
1, 2472, Note_on_c, 2, 56, 80
1, 2472, Note_on_c, 5, 72, 96
1, 2472, Note_on_c, 6, 56, 96
1, 2479, Note_off_c, 5, 72, 0
1, 2480, Note_on_c, 5, 71, 96
1, 2487, Note_off_c, 5, 71, 0
1, 2488, Note_on_c, 5, 72, 96
1, 2493, Note_off_c, 2, 56, 0
1, 2493, Note_off_c, 6, 56, 0
1, 2495, Note_off_c, 5, 72, 0
1, 2496, Note_on_c, 0, 76, 80
1, 2496, Note_on_c, 1, 72, 80
1, 2496, Note_on_c, 2, 55, 80
1, 2496, Note_on_c, 5, 82, 96
1, 2496, Note_on_c, 6, 55, 96
1, 2503, Note_off_c, 5, 82, 0
1, 2504, Note_on_c, 5, 81, 96
1, 2511, Note_off_c, 5, 81, 0
1, 2512, Note_on_c, 5, 79, 96
1, 2517, Note_off_c, 0, 76, 0
1, 2517, Note_off_c, 1, 72, 0
1, 2517, Note_off_c, 2, 55, 0
1, 2517, Note_off_c, 6, 55, 0
1, 2519, Note_off_c, 5, 79, 0
1, 2520, Note_on_c, 0, 77, 80
1, 2520, Note_on_c, 1, 72, 80
1, 2520, Note_on_c, 2, 53, 80
1, 2520, Note_on_c, 5, 81, 96
1, 2520, Note_on_c, 6, 53, 96
1, 2536, Note_off_c, 0, 77, 0
1, 2536, Note_off_c, 5, 81, 0
1, 2538, Note_on_c, 0, 69, 80
1, 2538, Note_on_c, 5, 77, 96
1, 2541, Note_off_c, 1, 72, 0
1, 2541, Note_off_c, 2, 53, 0
1, 2541, Note_off_c, 6, 53, 0
1, 2543, Note_off_c, 0, 69, 0
1, 2543, Note_off_c, 5, 77, 0
1, 2544, Note_on_c, 0, 67, 80
1, 2544, Note_on_c, 1, 72, 80
1, 2544, Note_on_c, 2, 60, 80
1, 2544, Note_on_c, 5, 76, 96
1, 2544, Note_on_c, 6, 60, 96
1, 2565, Note_off_c, 1, 72, 0
1, 2565, Note_off_c, 2, 60, 0
1, 2565, Note_off_c, 6, 60, 0
1, 2568, Note_on_c, 1, 72, 80
1, 2568, Note_on_c, 2, 48, 80
1, 2568, Note_on_c, 6, 48, 96
1, 2575, Note_off_c, 0, 67, 0
1, 2575, Note_off_c, 5, 76, 0
1, 2580, Note_on_c, 0, 69, 80
1, 2580, Note_on_c, 5, 77, 96
1, 2589, Note_off_c, 1, 72, 0
1, 2589, Note_off_c, 2, 48, 0
1, 2589, Note_off_c, 6, 48, 0
1, 2590, Note_off_c, 0, 69, 0
1, 2590, Note_off_c, 5, 77, 0
1, 2592, Note_on_c, 0, 69, 80
1, 2592, Note_on_c, 1, 72, 80
1, 2592, Note_on_c, 2, 53, 80
1, 2592, Note_on_c, 5, 77, 96
1, 2592, Note_on_c, 6, 53, 96
1, 2599, Note_off_c, 5, 77, 0
1, 2600, Note_on_c, 5, 81, 96
1, 2607, Note_off_c, 5, 81, 0
1, 2608, Note_on_c, 5, 77, 96
1, 2615, Note_off_c, 5, 77, 0
1, 2616, Note_on_c, 5, 72, 96
1, 2623, Note_off_c, 5, 72, 0
1, 2623, Note_off_c, 6, 53, 0
1, 2624, Note_on_c, 5, 77, 96
1, 2628, Note_on_c, 6, 41, 96
1, 2631, Note_off_c, 5, 77, 0
1, 2632, Note_on_c, 5, 72, 96
1, 2633, Note_off_c, 6, 41, 0
1, 2634, Note_off_c, 0, 69, 0
1, 2634, Note_off_c, 1, 72, 0
1, 2634, Note_off_c, 2, 53, 0
1, 2634, Note_on_c, 6, 45, 96
1, 2639, Note_off_c, 5, 72, 0
1, 2639, Note_off_c, 6, 45, 0
1, 2640, Note_on_c, 5, 69, 96
1, 2640, Note_on_c, 6, 48, 96
1, 2647, Note_off_c, 5, 69, 0
1, 2647, Note_off_c, 6, 48, 0
1, 2648, Note_on_c, 5, 77, 96
1, 2648, Note_on_c, 6, 45, 96
1, 2655, Note_off_c, 5, 77, 0
1, 2655, Note_off_c, 6, 45, 0
1, 2656, Note_on_c, 5, 72, 96
1, 2656, Note_on_c, 6, 48, 96
1, 2663, Note_off_c, 5, 72, 0
1, 2663, Note_off_c, 6, 48, 0
1, 2664, Note_on_c, 5, 69, 96
1, 2664, Note_on_c, 6, 53, 96
1, 2671, Note_off_c, 5, 69, 0
1, 2671, Note_off_c, 6, 53, 0
1, 2672, Note_on_c, 5, 72, 96
1, 2672, Note_on_c, 6, 48, 96
1, 2679, Note_off_c, 5, 72, 0
1, 2679, Note_off_c, 6, 48, 0
1, 2680, Note_on_c, 5, 69, 96
1, 2680, Note_on_c, 6, 53, 96
1, 2687, Note_off_c, 5, 69, 0
1, 2687, Note_off_c, 6, 53, 0
1, 2688, Note_on_c, 0, 60, 96
1, 2688, Note_on_c, 1, 57, 96
1, 2688, Note_on_c, 2, 53, 96
1, 2688, Note_on_c, 3, 41, 96
1, 2688, Note_on_c, 4, 29, 96
1, 2688, Note_on_c, 5, 65, 96
1, 2688, Note_on_c, 5, 57, 96
1, 2688, Note_on_c, 6, 41, 96
1, 2709, Note_off_c, 0, 60, 0
1, 2709, Note_off_c, 1, 57, 0
1, 2709, Note_off_c, 2, 53, 0
1, 2709, Note_off_c, 3, 41, 0
1, 2709, Note_off_c, 4, 29, 0
1, 2709, Note_off_c, 5, 65, 0
1, 2709, Note_off_c, 5, 57, 0
1, 2709, Note_off_c, 6, 41, 0
1, 2712, Note_on_c, 3, 41, 96
1, 2712, Note_on_c, 4, 29, 96
1, 2712, Note_on_c, 6, 41, 96
1, 2733, Note_off_c, 3, 41, 0
1, 2733, Note_off_c, 4, 29, 0
1, 2733, Note_off_c, 6, 41, 0
1, 2736, Note_on_c, 0, 63, 96
1, 2736, Note_on_c, 1, 57, 96
1, 2736, Note_on_c, 2, 48, 96
1, 2736, Note_on_c, 3, 41, 96
1, 2736, Note_on_c, 4, 29, 96
1, 2736, Note_on_c, 5, 63, 96
1, 2736, Note_on_c, 5, 60, 96
1, 2736, Note_on_c, 5, 57, 96
1, 2736, Note_on_c, 6, 41, 96
1, 2757, Note_off_c, 0, 63, 0
1, 2757, Note_off_c, 1, 57, 0
1, 2757, Note_off_c, 2, 48, 0
1, 2757, Note_off_c, 3, 41, 0
1, 2757, Note_off_c, 4, 29, 0
1, 2757, Note_off_c, 5, 63, 0
1, 2757, Note_off_c, 5, 60, 0
1, 2757, Note_off_c, 5, 57, 0
1, 2757, Note_off_c, 6, 41, 0
1, 2760, Note_on_c, 3, 45, 96
1, 2760, Note_on_c, 4, 33, 96
1, 2760, Note_on_c, 6, 45, 96
1, 2772, Note_off_c, 3, 45, 0
1, 2772, Note_on_c, 3, 46, 96
1, 2772, Note_off_c, 4, 33, 0
1, 2772, Note_on_c, 4, 34, 96
1, 2772, Note_off_c, 6, 45, 0
1, 2772, Note_on_c, 6, 46, 96
1, 2778, Note_off_c, 3, 46, 0
1, 2778, Note_on_c, 3, 48, 96
1, 2778, Note_off_c, 4, 34, 0
1, 2778, Note_on_c, 4, 36, 96
1, 2778, Note_off_c, 6, 46, 0
1, 2778, Note_on_c, 6, 48, 96
1, 2783, Note_off_c, 3, 48, 0
1, 2783, Note_off_c, 4, 36, 0
1, 2783, Note_off_c, 6, 48, 0
1, 2784, Note_on_c, 0, 63, 96
1, 2784, Note_on_c, 1, 58, 96
1, 2784, Note_on_c, 2, 53, 96
1, 2784, Note_on_c, 3, 41, 96
1, 2784, Note_on_c, 4, 29, 96
1, 2784, Note_on_c, 5, 63, 96
1, 2784, Note_on_c, 5, 58, 96
1, 2784, Note_on_c, 5, 53, 96
1, 2784, Note_on_c, 6, 41, 96
1, 2805, Note_off_c, 0, 63, 0
1, 2805, Note_off_c, 1, 58, 0
1, 2805, Note_off_c, 2, 53, 0
1, 2805, Note_off_c, 3, 41, 0
1, 2805, Note_off_c, 4, 29, 0
1, 2805, Note_off_c, 5, 63, 0
1, 2805, Note_off_c, 5, 58, 0
1, 2805, Note_off_c, 5, 53, 0
1, 2805, Note_off_c, 6, 41, 0
1, 2808, Note_on_c, 3, 41, 96
1, 2808, Note_on_c, 4, 29, 96
1, 2808, Note_on_c, 6, 41, 96
1, 2829, Note_off_c, 3, 41, 0
1, 2829, Note_off_c, 4, 29, 0
1, 2829, Note_off_c, 6, 41, 0
1, 2832, Note_on_c, 0, 62, 96
1, 2832, Note_on_c, 1, 58, 96
1, 2832, Note_on_c, 2, 53, 96
1, 2832, Note_on_c, 3, 41, 96
1, 2832, Note_on_c, 4, 29, 96
1, 2832, Note_on_c, 5, 62, 96
1, 2832, Note_on_c, 5, 58, 96
1, 2832, Note_on_c, 5, 53, 96
1, 2832, Note_on_c, 6, 41, 96
1, 2853, Note_off_c, 0, 62, 0
1, 2853, Note_off_c, 1, 58, 0
1, 2853, Note_off_c, 2, 53, 0
1, 2853, Note_off_c, 3, 41, 0
1, 2853, Note_off_c, 4, 29, 0
1, 2853, Note_off_c, 5, 62, 0
1, 2853, Note_off_c, 5, 58, 0
1, 2853, Note_off_c, 5, 53, 0
1, 2853, Note_off_c, 6, 41, 0
1, 2856, Note_on_c, 3, 46, 96
1, 2856, Note_on_c, 4, 34, 96
1, 2856, Note_on_c, 6, 46, 96
1, 2868, Note_off_c, 3, 46, 0
1, 2868, Note_on_c, 3, 48, 96
1, 2868, Note_off_c, 4, 34, 0
1, 2868, Note_on_c, 4, 36, 96
1, 2868, Note_off_c, 6, 46, 0
1, 2868, Note_on_c, 6, 48, 96
1, 2874, Note_off_c, 3, 48, 0
1, 2874, Note_on_c, 3, 50, 96
1, 2874, Note_off_c, 4, 36, 0
1, 2874, Note_on_c, 4, 38, 96
1, 2874, Note_off_c, 6, 48, 0
1, 2874, Note_on_c, 6, 50, 96
1, 2879, Note_off_c, 3, 50, 0
1, 2879, Note_off_c, 4, 38, 0
1, 2879, Note_off_c, 6, 50, 0
1, 2880, Note_on_c, 0, 67, 96
1, 2880, Note_on_c, 1, 58, 96
1, 2880, Note_on_c, 2, 50, 96
1, 2880, Note_on_c, 3, 41, 96
1, 2880, Note_on_c, 4, 29, 96
1, 2880, Note_on_c, 5, 67, 96
1, 2880, Note_on_c, 5, 62, 96
1, 2880, Note_on_c, 5, 58, 96
1, 2880, Note_on_c, 6, 41, 96
1, 2901, Note_off_c, 0, 67, 0
1, 2901, Note_off_c, 1, 58, 0
1, 2901, Note_off_c, 2, 50, 0
1, 2901, Note_off_c, 3, 41, 0
1, 2901, Note_off_c, 4, 29, 0
1, 2901, Note_off_c, 5, 67, 0
1, 2901, Note_off_c, 5, 62, 0
1, 2901, Note_off_c, 5, 58, 0
1, 2901, Note_off_c, 6, 41, 0
1, 2904, Note_on_c, 3, 41, 96
1, 2904, Note_on_c, 4, 29, 96
1, 2904, Note_on_c, 6, 41, 96
1, 2925, Note_off_c, 3, 41, 0
1, 2925, Note_off_c, 4, 29, 0
1, 2925, Note_off_c, 6, 41, 0
1, 2928, Note_on_c, 0, 58, 96
1, 2928, Note_on_c, 1, 67, 96
1, 2928, Note_on_c, 2, 52, 96
1, 2928, Note_on_c, 3, 41, 96
1, 2928, Note_on_c, 4, 29, 96
1, 2928, Note_on_c, 5, 67, 96
1, 2928, Note_on_c, 5, 58, 96
1, 2928, Note_on_c, 6, 41, 96
1, 2949, Note_off_c, 0, 58, 0
1, 2949, Note_off_c, 1, 67, 0
1, 2949, Note_off_c, 2, 52, 0
1, 2949, Note_off_c, 3, 41, 0
1, 2949, Note_off_c, 4, 29, 0
1, 2949, Note_off_c, 5, 67, 0
1, 2949, Note_off_c, 5, 58, 0
1, 2949, Note_off_c, 6, 41, 0
1, 2952, Note_on_c, 3, 52, 96
1, 2952, Note_on_c, 4, 40, 96
1, 2952, Note_on_c, 6, 52, 96
1, 2964, Note_off_c, 3, 52, 0
1, 2964, Note_on_c, 3, 53, 96
1, 2964, Note_off_c, 4, 40, 0
1, 2964, Note_on_c, 4, 41, 96
1, 2964, Note_off_c, 6, 52, 0
1, 2964, Note_on_c, 6, 53, 96
1, 2970, Note_off_c, 3, 53, 0
1, 2970, Note_on_c, 3, 55, 96
1, 2970, Note_off_c, 4, 41, 0
1, 2970, Note_on_c, 4, 43, 96
1, 2970, Note_off_c, 6, 53, 0
1, 2970, Note_on_c, 6, 55, 96
1, 2975, Note_off_c, 3, 55, 0
1, 2975, Note_off_c, 4, 43, 0
1, 2975, Note_off_c, 6, 55, 0
1, 2976, Note_on_c, 0, 58, 96
1, 2976, Note_on_c, 1, 67, 96
1, 2976, Note_on_c, 2, 48, 96
1, 2976, Note_on_c, 3, 41, 96
1, 2976, Note_on_c, 4, 29, 96
1, 2976, Note_on_c, 5, 67, 96
1, 2976, Note_on_c, 5, 58, 96
1, 2976, Note_on_c, 6, 41, 96
1, 2997, Note_off_c, 0, 58, 0
1, 2997, Note_off_c, 1, 67, 0
1, 2997, Note_off_c, 2, 48, 0
1, 2997, Note_off_c, 3, 41, 0
1, 2997, Note_off_c, 4, 29, 0
1, 2997, Note_off_c, 5, 67, 0
1, 2997, Note_off_c, 5, 58, 0
1, 2997, Note_off_c, 6, 41, 0
1, 3000, Note_on_c, 3, 41, 96
1, 3000, Note_on_c, 4, 29, 96
1, 3000, Note_on_c, 6, 41, 96
1, 3021, Note_off_c, 3, 41, 0
1, 3021, Note_off_c, 4, 29, 0
1, 3021, Note_off_c, 6, 41, 0
1, 3024, Note_on_c, 0, 57, 96
1, 3024, Note_on_c, 1, 65, 96
1, 3024, Note_on_c, 2, 48, 96
1, 3024, Note_on_c, 3, 41, 96
1, 3024, Note_on_c, 4, 29, 96
1, 3024, Note_on_c, 5, 65, 96
1, 3024, Note_on_c, 5, 57, 96
1, 3024, Note_on_c, 6, 41, 96
1, 3045, Note_off_c, 0, 57, 0
1, 3045, Note_off_c, 1, 65, 0
1, 3045, Note_off_c, 2, 48, 0
1, 3045, Note_off_c, 3, 41, 0
1, 3045, Note_off_c, 4, 29, 0
1, 3045, Note_off_c, 5, 65, 0
1, 3045, Note_off_c, 5, 57, 0
1, 3045, Note_off_c, 6, 41, 0
1, 3048, Note_on_c, 3, 53, 96
1, 3048, Note_on_c, 4, 41, 96
1, 3048, Note_on_c, 6, 53, 96
1, 3060, Note_off_c, 3, 53, 0
1, 3060, Note_on_c, 3, 55, 96
1, 3060, Note_off_c, 4, 41, 0
1, 3060, Note_on_c, 4, 43, 96
1, 3060, Note_off_c, 6, 53, 0
1, 3060, Note_on_c, 6, 55, 96
1, 3066, Note_off_c, 3, 55, 0
1, 3066, Note_on_c, 3, 57, 96
1, 3066, Note_off_c, 4, 43, 0
1, 3066, Note_on_c, 4, 45, 96
1, 3066, Note_off_c, 6, 55, 0
1, 3066, Note_on_c, 6, 57, 96
1, 3071, Note_off_c, 3, 57, 0
1, 3071, Note_off_c, 4, 45, 0
1, 3071, Note_off_c, 6, 57, 0
1, 3072, Note_on_c, 0, 71, 80
1, 3072, Note_on_c, 1, 65, 80
1, 3072, Note_on_c, 2, 62, 80
1, 3072, Note_on_c, 3, 50, 80
1, 3072, Note_on_c, 4, 38, 80
1, 3072, Note_on_c, 5, 80, 96
1, 3072, Note_on_c, 6, 50, 96
1, 3093, Note_off_c, 0, 71, 0
1, 3093, Note_off_c, 1, 65, 0
1, 3093, Note_off_c, 2, 62, 0
1, 3093, Note_off_c, 3, 50, 0
1, 3093, Note_off_c, 4, 38, 0
1, 3093, Note_off_c, 6, 50, 0
1, 3096, Note_on_c, 3, 50, 80
1, 3096, Note_on_c, 4, 38, 80
1, 3096, Note_on_c, 6, 50, 96
1, 3117, Note_off_c, 3, 50, 0
1, 3117, Note_off_c, 4, 38, 0
1, 3117, Note_off_c, 6, 50, 0
1, 3120, Note_on_c, 0, 74, 80
1, 3120, Note_on_c, 1, 71, 80
1, 3120, Note_on_c, 2, 65, 80
1, 3120, Note_on_c, 3, 50, 80
1, 3120, Note_on_c, 4, 38, 80
1, 3120, Note_on_c, 6, 50, 96
1, 3141, Note_off_c, 0, 74, 0
1, 3141, Note_off_c, 1, 71, 0
1, 3141, Note_off_c, 2, 65, 0
1, 3141, Note_off_c, 3, 50, 0
1, 3141, Note_off_c, 4, 38, 0
1, 3141, Note_off_c, 6, 50, 0
1, 3144, Note_on_c, 3, 53, 80
1, 3144, Note_on_c, 4, 41, 80
1, 3144, Note_on_c, 6, 53, 96
1, 3156, Note_off_c, 3, 53, 0
1, 3156, Note_on_c, 3, 55, 80
1, 3156, Note_off_c, 4, 41, 0
1, 3156, Note_on_c, 4, 43, 80
1, 3156, Note_off_c, 6, 53, 0
1, 3156, Note_on_c, 6, 55, 96
1, 3162, Note_off_c, 3, 55, 0
1, 3162, Note_on_c, 3, 56, 80
1, 3162, Note_off_c, 4, 43, 0
1, 3162, Note_on_c, 4, 44, 80
1, 3162, Note_off_c, 6, 55, 0
1, 3162, Note_on_c, 6, 56, 96
1, 3167, Note_off_c, 3, 56, 0
1, 3167, Note_off_c, 4, 44, 0
1, 3167, Note_off_c, 6, 56, 0
1, 3168, Note_on_c, 0, 77, 80
1, 3168, Note_on_c, 1, 74, 80
1, 3168, Note_on_c, 2, 62, 80
1, 3168, Note_on_c, 3, 47, 80
1, 3168, Note_on_c, 4, 35, 80
1, 3168, Note_on_c, 6, 47, 96
1, 3189, Note_off_c, 0, 77, 0
1, 3189, Note_off_c, 1, 74, 0
1, 3189, Note_off_c, 2, 62, 0
1, 3189, Note_off_c, 3, 47, 0
1, 3189, Note_off_c, 4, 35, 0
1, 3189, Note_off_c, 6, 47, 0
1, 3192, Note_on_c, 3, 47, 80
1, 3192, Note_on_c, 4, 35, 80
1, 3192, Note_on_c, 6, 47, 96
1, 3213, Note_off_c, 3, 47, 0
1, 3213, Note_off_c, 4, 35, 0
1, 3213, Note_off_c, 6, 47, 0
1, 3216, Note_on_c, 0, 80, 80
1, 3216, Note_on_c, 1, 77, 80
1, 3216, Note_on_c, 2, 59, 80
1, 3216, Note_on_c, 3, 47, 80
1, 3216, Note_on_c, 4, 35, 80
1, 3216, Note_on_c, 6, 47, 96
1, 3237, Note_off_c, 0, 80, 0
1, 3237, Note_off_c, 1, 77, 0
1, 3237, Note_off_c, 2, 59, 0
1, 3237, Note_off_c, 3, 47, 0
1, 3237, Note_off_c, 4, 35, 0
1, 3237, Note_off_c, 6, 47, 0
1, 3240, Note_on_c, 3, 50, 80
1, 3240, Note_on_c, 4, 38, 80
1, 3240, Note_on_c, 6, 50, 96
1, 3252, Note_off_c, 3, 50, 0
1, 3252, Note_on_c, 3, 51, 80
1, 3252, Note_off_c, 4, 38, 0
1, 3252, Note_on_c, 4, 39, 80
1, 3252, Note_off_c, 6, 50, 0
1, 3252, Note_on_c, 6, 51, 96
1, 3258, Note_off_c, 3, 51, 0
1, 3258, Note_on_c, 3, 53, 80
1, 3258, Note_off_c, 4, 39, 0
1, 3258, Note_on_c, 4, 41, 80
1, 3258, Note_off_c, 6, 51, 0
1, 3258, Note_on_c, 6, 53, 96
1, 3263, Note_off_c, 3, 53, 0
1, 3263, Note_off_c, 4, 41, 0
1, 3263, Note_off_c, 6, 53, 0
1, 3264, Note_on_c, 0, 71, 80
1, 3264, Note_on_c, 1, 77, 80
1, 3264, Note_on_c, 2, 62, 80
1, 3264, Note_on_c, 3, 43, 80
1, 3264, Note_on_c, 4, 31, 80
1, 3264, Note_off_c, 5, 80, 0
1, 3264, Note_on_c, 6, 43, 96
1, 3272, Note_on_c, 5, 79, 96
1, 3279, Note_off_c, 5, 79, 0
1, 3280, Note_on_c, 5, 77, 96
1, 3285, Note_off_c, 0, 71, 0
1, 3285, Note_off_c, 1, 77, 0
1, 3285, Note_off_c, 2, 62, 0
1, 3285, Note_off_c, 3, 43, 0
1, 3285, Note_off_c, 4, 31, 0
1, 3285, Note_off_c, 6, 43, 0
1, 3287, Note_off_c, 5, 77, 0
1, 3288, Note_on_c, 3, 43, 80
1, 3288, Note_on_c, 4, 31, 80
1, 3288, Note_on_c, 5, 75, 96
1, 3288, Note_on_c, 6, 43, 96
1, 3295, Note_off_c, 5, 75, 0
1, 3296, Note_on_c, 5, 74, 96
1, 3303, Note_off_c, 5, 74, 0
1, 3304, Note_on_c, 5, 72, 96
1, 3309, Note_off_c, 3, 43, 0
1, 3309, Note_off_c, 4, 31, 0
1, 3309, Note_off_c, 6, 43, 0
1, 3311, Note_off_c, 5, 72, 0
1, 3312, Note_on_c, 0, 74, 80
1, 3312, Note_on_c, 1, 65, 80
1, 3312, Note_on_c, 2, 67, 80
1, 3312, Note_on_c, 3, 43, 80
1, 3312, Note_on_c, 4, 31, 80
1, 3312, Note_on_c, 5, 71, 96
1, 3312, Note_on_c, 6, 43, 96
1, 3319, Note_off_c, 5, 71, 0
1, 3320, Note_on_c, 5, 68, 96
1, 3327, Note_off_c, 5, 68, 0
1, 3328, Note_on_c, 5, 67, 96
1, 3333, Note_off_c, 0, 74, 0
1, 3333, Note_off_c, 1, 65, 0
1, 3333, Note_off_c, 2, 67, 0
1, 3333, Note_off_c, 3, 43, 0
1, 3333, Note_off_c, 4, 31, 0
1, 3333, Note_off_c, 6, 43, 0
1, 3335, Note_off_c, 5, 67, 0
1, 3336, Note_on_c, 3, 47, 80
1, 3336, Note_on_c, 4, 35, 80
1, 3336, Note_on_c, 5, 65, 96
1, 3336, Note_on_c, 6, 47, 96
1, 3343, Note_off_c, 5, 65, 0
1, 3344, Note_on_c, 5, 63, 96
1, 3348, Note_off_c, 3, 47, 0
1, 3348, Note_on_c, 3, 48, 80
1, 3348, Note_off_c, 4, 35, 0
1, 3348, Note_on_c, 4, 36, 80
1, 3348, Note_off_c, 6, 47, 0
1, 3348, Note_on_c, 6, 48, 96
1, 3351, Note_off_c, 5, 63, 0
1, 3352, Note_on_c, 5, 62, 96
1, 3354, Note_off_c, 3, 48, 0
1, 3354, Note_on_c, 3, 50, 80
1, 3354, Note_off_c, 4, 36, 0
1, 3354, Note_on_c, 4, 38, 80
1, 3354, Note_off_c, 6, 48, 0
1, 3354, Note_on_c, 6, 50, 96
1, 3359, Note_off_c, 3, 50, 0
1, 3359, Note_off_c, 4, 38, 0
1, 3359, Note_off_c, 5, 62, 0
1, 3359, Note_off_c, 6, 50, 0
1, 3360, Note_on_c, 0, 74, 80
1, 3360, Note_on_c, 1, 63, 80
1, 3360, Note_on_c, 2, 67, 80
1, 3360, Note_on_c, 3, 36, 80
1, 3360, Note_on_c, 4, 24, 80
1, 3360, Note_on_c, 5, 63, 96
1, 3360, Note_on_c, 6, 36, 96
1, 3367, Note_off_c, 5, 63, 0
1, 3368, Note_on_c, 5, 60, 96
1, 3375, Note_off_c, 5, 60, 0
1, 3376, Note_on_c, 5, 63, 96
1, 3381, Note_off_c, 0, 74, 0
1, 3381, Note_off_c, 1, 63, 0
1, 3381, Note_off_c, 2, 67, 0
1, 3381, Note_off_c, 6, 36, 0
1, 3383, Note_off_c, 5, 63, 0
1, 3384, Note_on_c, 0, 72, 80
1, 3384, Note_on_c, 1, 75, 80
1, 3384, Note_on_c, 2, 60, 80
1, 3384, Note_on_c, 5, 67, 96
1, 3384, Note_on_c, 6, 60, 96
1, 3391, Note_off_c, 5, 67, 0
1, 3392, Note_on_c, 5, 71, 96
1, 3399, Note_off_c, 5, 71, 0
1, 3400, Note_on_c, 5, 72, 96
1, 3402, Note_off_c, 3, 36, 0
1, 3402, Note_off_c, 4, 24, 0
1, 3405, Note_off_c, 0, 72, 0
1, 3405, Note_off_c, 1, 75, 0
1, 3405, Note_off_c, 2, 60, 0
1, 3405, Note_off_c, 6, 60, 0
1, 3407, Note_off_c, 5, 72, 0
1, 3408, Note_on_c, 0, 67, 80
1, 3408, Note_on_c, 1, 72, 80
1, 3408, Note_on_c, 2, 60, 80
1, 3408, Note_on_c, 5, 75, 96
1, 3408, Note_on_c, 6, 60, 96
1, 3411, Note_off_c, 5, 75, 0
1, 3411, Note_on_c, 5, 74, 96
1, 3414, Note_off_c, 5, 74, 0
1, 3414, Note_on_c, 5, 75, 96
1, 3429, Note_off_c, 0, 67, 0
1, 3429, Note_off_c, 1, 72, 0
1, 3429, Note_off_c, 2, 60, 0
1, 3429, Note_off_c, 6, 60, 0
1, 3432, Note_on_c, 2, 62, 80
1, 3432, Note_on_c, 6, 62, 96
1, 3442, Note_off_c, 2, 62, 0
1, 3442, Note_off_c, 6, 62, 0
1, 3444, Note_on_c, 2, 63, 80
1, 3444, Note_on_c, 6, 63, 96
1, 3454, Note_off_c, 2, 63, 0
1, 3454, Note_off_c, 6, 63, 0
1, 3456, Note_on_c, 0, 68, 80
1, 3456, Note_on_c, 1, 72, 80
1, 3456, Note_on_c, 2, 65, 80
1, 3456, Note_on_c, 6, 65, 96
1, 3458, Note_off_c, 5, 75, 0
1, 3464, Note_on_c, 5, 77, 96
1, 3471, Note_off_c, 5, 77, 0
1, 3472, Note_on_c, 5, 79, 96
1, 3477, Note_off_c, 0, 68, 0
1, 3477, Note_off_c, 1, 72, 0
1, 3477, Note_off_c, 2, 65, 0
1, 3477, Note_off_c, 6, 65, 0
1, 3479, Note_off_c, 5, 79, 0
1, 3480, Note_on_c, 2, 65, 80
1, 3480, Note_on_c, 5, 80, 96
1, 3480, Note_on_c, 6, 65, 96
1, 3487, Note_off_c, 5, 80, 0
1, 3488, Note_on_c, 5, 79, 96
1, 3495, Note_off_c, 5, 79, 0
1, 3496, Note_on_c, 5, 77, 96
1, 3501, Note_off_c, 2, 65, 0
1, 3501, Note_off_c, 6, 65, 0
1, 3503, Note_off_c, 5, 77, 0
1, 3504, Note_on_c, 0, 80, 80
1, 3504, Note_on_c, 1, 71, 80
1, 3504, Note_on_c, 2, 65, 80
1, 3504, Note_on_c, 5, 75, 96
1, 3504, Note_on_c, 6, 65, 96
1, 3511, Note_off_c, 5, 75, 0
1, 3512, Note_on_c, 5, 74, 96
1, 3519, Note_off_c, 5, 74, 0
1, 3520, Note_on_c, 5, 72, 96
1, 3525, Note_off_c, 0, 80, 0
1, 3525, Note_off_c, 1, 71, 0
1, 3525, Note_off_c, 2, 65, 0
1, 3525, Note_off_c, 6, 65, 0
1, 3527, Note_off_c, 5, 72, 0
1, 3528, Note_on_c, 2, 65, 80
1, 3528, Note_on_c, 5, 74, 96
1, 3528, Note_on_c, 6, 65, 96
1, 3549, Note_off_c, 2, 65, 0
1, 3549, Note_off_c, 6, 65, 0
1, 3552, Note_on_c, 0, 79, 80
1, 3552, Note_on_c, 1, 71, 80
1, 3552, Note_on_c, 2, 63, 80
1, 3552, Note_on_c, 6, 63, 96
1, 3556, Note_off_c, 5, 74, 0
1, 3560, Note_on_c, 5, 75, 96
1, 3567, Note_off_c, 5, 75, 0
1, 3568, Note_on_c, 5, 77, 96
1, 3573, Note_off_c, 0, 79, 0
1, 3573, Note_off_c, 1, 71, 0
1, 3573, Note_off_c, 2, 63, 0
1, 3573, Note_off_c, 6, 63, 0
1, 3575, Note_off_c, 5, 77, 0
1, 3576, Note_on_c, 2, 63, 80
1, 3576, Note_on_c, 5, 79, 96
1, 3576, Note_on_c, 6, 63, 96
1, 3583, Note_off_c, 5, 79, 0
1, 3584, Note_on_c, 5, 77, 96
1, 3591, Note_off_c, 5, 77, 0
1, 3592, Note_on_c, 5, 75, 96
1, 3597, Note_off_c, 2, 63, 0
1, 3597, Note_off_c, 6, 63, 0
1, 3599, Note_off_c, 5, 75, 0
1, 3600, Note_on_c, 0, 67, 80
1, 3600, Note_on_c, 1, 67, 80
1, 3600, Note_on_c, 2, 63, 80
1, 3600, Note_on_c, 5, 73, 96
1, 3600, Note_on_c, 6, 63, 96
1, 3607, Note_off_c, 5, 73, 0
1, 3608, Note_on_c, 5, 72, 96
1, 3615, Note_off_c, 5, 72, 0
1, 3616, Note_on_c, 5, 71, 96
1, 3621, Note_off_c, 0, 67, 0
1, 3621, Note_off_c, 1, 67, 0
1, 3621, Note_off_c, 2, 63, 0
1, 3621, Note_off_c, 6, 63, 0
1, 3623, Note_off_c, 5, 71, 0
1, 3624, Note_on_c, 2, 63, 80
1, 3624, Note_on_c, 5, 72, 96
1, 3624, Note_on_c, 6, 63, 96
1, 3645, Note_off_c, 2, 63, 0
1, 3645, Note_off_c, 6, 63, 0
1, 3648, Note_on_c, 0, 77, 80
1, 3648, Note_on_c, 1, 71, 80
1, 3648, Note_on_c, 2, 62, 80
1, 3648, Note_on_c, 6, 62, 96
1, 3652, Note_off_c, 5, 72, 0
1, 3656, Note_on_c, 5, 79, 96
1, 3663, Note_off_c, 5, 79, 0
1, 3664, Note_on_c, 5, 77, 96
1, 3669, Note_off_c, 0, 77, 0
1, 3669, Note_off_c, 1, 71, 0
1, 3669, Note_off_c, 2, 62, 0
1, 3669, Note_off_c, 6, 62, 0
1, 3671, Note_off_c, 5, 77, 0
1, 3672, Note_on_c, 0, 75, 80
1, 3672, Note_on_c, 1, 72, 80
1, 3672, Note_on_c, 2, 60, 80
1, 3672, Note_on_c, 5, 67, 96
1, 3672, Note_on_c, 6, 60, 96
1, 3679, Note_off_c, 5, 67, 0
1, 3680, Note_on_c, 5, 77, 96
1, 3687, Note_off_c, 5, 77, 0
1, 3688, Note_on_c, 5, 75, 96
1, 3693, Note_off_c, 0, 75, 0
1, 3693, Note_off_c, 1, 72, 0
1, 3693, Note_off_c, 2, 60, 0
1, 3693, Note_off_c, 6, 60, 0
1, 3695, Note_off_c, 5, 75, 0
1, 3696, Note_on_c, 0, 74, 80
1, 3696, Note_on_c, 1, 67, 80
1, 3696, Note_on_c, 2, 58, 80
1, 3696, Note_on_c, 5, 67, 96
1, 3696, Note_on_c, 6, 58, 96
1, 3703, Note_off_c, 5, 67, 0
1, 3704, Note_on_c, 5, 75, 96
1, 3711, Note_off_c, 5, 75, 0
1, 3712, Note_on_c, 5, 74, 96
1, 3717, Note_off_c, 0, 74, 0
1, 3717, Note_off_c, 1, 67, 0
1, 3717, Note_off_c, 2, 58, 0
1, 3717, Note_off_c, 6, 58, 0
1, 3719, Note_off_c, 5, 74, 0
1, 3720, Note_on_c, 0, 72, 80
1, 3720, Note_on_c, 1, 68, 80
1, 3720, Note_on_c, 2, 56, 80
1, 3720, Note_on_c, 5, 65, 96
1, 3720, Note_on_c, 6, 56, 96
1, 3727, Note_off_c, 5, 65, 0
1, 3728, Note_on_c, 5, 74, 96
1, 3735, Note_off_c, 5, 74, 0
1, 3736, Note_on_c, 5, 72, 96
1, 3741, Note_off_c, 0, 72, 0
1, 3741, Note_off_c, 1, 68, 0
1, 3741, Note_off_c, 2, 56, 0
1, 3741, Note_off_c, 6, 56, 0
1, 3743, Note_off_c, 5, 72, 0
1, 3744, Note_on_c, 0, 71, 80
1, 3744, Note_on_c, 1, 62, 80
1, 3744, Note_on_c, 2, 55, 80
1, 3744, Note_on_c, 5, 74, 96
1, 3744, Note_on_c, 6, 55, 96
1, 3751, Note_off_c, 5, 74, 0
1, 3752, Note_on_c, 5, 78, 96
1, 3759, Note_off_c, 5, 78, 0
1, 3760, Note_on_c, 5, 79, 96
1, 3765, Note_off_c, 0, 71, 0
1, 3765, Note_off_c, 1, 62, 0
1, 3765, Note_off_c, 2, 55, 0
1, 3767, Note_off_c, 5, 79, 0
1, 3768, Note_on_c, 0, 67, 80
1, 3768, Note_on_c, 1, 59, 80
1, 3768, Note_on_c, 2, 67, 80
1, 3768, Note_on_c, 5, 67, 96
1, 3775, Note_off_c, 6, 55, 0
1, 3778, Note_off_c, 2, 67, 0
1, 3780, Note_on_c, 2, 68, 80
1, 3780, Note_on_c, 6, 56, 96
1, 3789, Note_off_c, 0, 67, 0
1, 3789, Note_off_c, 1, 59, 0
1, 3789, Note_off_c, 5, 67, 0
1, 3790, Note_off_c, 2, 68, 0
1, 3790, Note_off_c, 6, 56, 0
1, 3792, Note_on_c, 0, 62, 80
1, 3792, Note_on_c, 1, 59, 80
1, 3792, Note_on_c, 2, 67, 80
1, 3792, Note_on_c, 6, 55, 96
1, 3802, Note_off_c, 2, 67, 0
1, 3802, Note_off_c, 6, 55, 0
1, 3804, Note_on_c, 2, 65, 80
1, 3804, Note_on_c, 6, 53, 96
1, 3813, Note_off_c, 0, 62, 0
1, 3813, Note_off_c, 1, 59, 0
1, 3814, Note_off_c, 2, 65, 0
1, 3814, Note_off_c, 6, 53, 0
1, 3816, Note_on_c, 0, 74, 80
1, 3816, Note_on_c, 1, 71, 80
1, 3816, Note_on_c, 2, 63, 80
1, 3816, Note_on_c, 6, 51, 96
1, 3826, Note_off_c, 2, 63, 0
1, 3826, Note_off_c, 6, 51, 0
1, 3828, Note_off_c, 0, 74, 0
1, 3828, Note_on_c, 0, 75, 80
1, 3828, Note_off_c, 1, 71, 0
1, 3828, Note_on_c, 1, 72, 80
1, 3828, Note_on_c, 2, 62, 80
1, 3828, Note_on_c, 6, 50, 96
1, 3834, Note_off_c, 0, 75, 0
1, 3834, Note_on_c, 0, 77, 80
1, 3834, Note_off_c, 1, 72, 0
1, 3834, Note_on_c, 1, 74, 80
1, 3838, Note_off_c, 2, 62, 0
1, 3838, Note_off_c, 6, 50, 0
1, 3839, Note_off_c, 0, 77, 0
1, 3839, Note_off_c, 1, 74, 0
1, 3840, Note_on_c, 0, 75, 96
1, 3840, Note_on_c, 1, 67, 96
1, 3840, Note_on_c, 2, 60, 96
1, 3840, Note_on_c, 3, 48, 96
1, 3840, Note_on_c, 4, 36, 96
1, 3840, Note_on_c, 5, 75, 96
1, 3840, Note_on_c, 5, 72, 96
1, 3840, Note_on_c, 5, 67, 96
1, 3840, Note_on_c, 6, 48, 96
1, 3861, Note_off_c, 0, 75, 0
1, 3861, Note_off_c, 1, 67, 0
1, 3861, Note_off_c, 2, 60, 0
1, 3861, Note_off_c, 3, 48, 0
1, 3861, Note_off_c, 4, 36, 0
1, 3861, Note_off_c, 5, 75, 0
1, 3861, Note_off_c, 5, 72, 0
1, 3861, Note_off_c, 5, 67, 0
1, 3861, Note_off_c, 6, 48, 0
1, 3864, Note_on_c, 3, 48, 96
1, 3864, Note_on_c, 4, 36, 96
1, 3864, Note_on_c, 6, 48, 96
1, 3885, Note_off_c, 3, 48, 0
1, 3885, Note_off_c, 4, 36, 0
1, 3885, Note_off_c, 6, 48, 0
1, 3888, Note_on_c, 0, 75, 96
1, 3888, Note_on_c, 1, 70, 96
1, 3888, Note_on_c, 2, 67, 96
1, 3888, Note_on_c, 3, 48, 96
1, 3888, Note_on_c, 4, 36, 96
1, 3888, Note_on_c, 5, 75, 96
1, 3888, Note_on_c, 5, 70, 96
1, 3888, Note_on_c, 5, 67, 96
1, 3888, Note_on_c, 6, 48, 96
1, 3909, Note_off_c, 0, 75, 0
1, 3909, Note_off_c, 1, 70, 0
1, 3909, Note_off_c, 2, 67, 0
1, 3909, Note_off_c, 3, 48, 0
1, 3909, Note_off_c, 4, 36, 0
1, 3909, Note_off_c, 5, 75, 0
1, 3909, Note_off_c, 5, 70, 0
1, 3909, Note_off_c, 5, 67, 0
1, 3909, Note_off_c, 6, 48, 0
1, 3912, Note_on_c, 3, 51, 96
1, 3912, Note_on_c, 4, 39, 96
1, 3912, Note_on_c, 6, 51, 96
1, 3924, Note_off_c, 3, 51, 0
1, 3924, Note_on_c, 3, 53, 96
1, 3924, Note_off_c, 4, 39, 0
1, 3924, Note_on_c, 4, 41, 96
1, 3924, Note_off_c, 6, 51, 0
1, 3924, Note_on_c, 6, 53, 96
1, 3930, Note_off_c, 3, 53, 0
1, 3930, Note_on_c, 3, 55, 96
1, 3930, Note_off_c, 4, 41, 0
1, 3930, Note_on_c, 4, 43, 96
1, 3930, Note_off_c, 6, 53, 0
1, 3930, Note_on_c, 6, 55, 96
1, 3935, Note_off_c, 3, 55, 0
1, 3935, Note_off_c, 4, 43, 0
1, 3935, Note_off_c, 6, 55, 0
1, 3936, Note_on_c, 0, 75, 96
1, 3936, Note_on_c, 1, 68, 96
1, 3936, Note_on_c, 2, 65, 96
1, 3936, Note_on_c, 3, 48, 96
1, 3936, Note_on_c, 4, 36, 96
1, 3936, Note_on_c, 5, 75, 96
1, 3936, Note_on_c, 5, 68, 96
1, 3936, Note_on_c, 5, 65, 96
1, 3936, Note_on_c, 6, 48, 96
1, 3957, Note_off_c, 0, 75, 0
1, 3957, Note_off_c, 1, 68, 0
1, 3957, Note_off_c, 2, 65, 0
1, 3957, Note_off_c, 3, 48, 0
1, 3957, Note_off_c, 4, 36, 0
1, 3957, Note_off_c, 5, 75, 0
1, 3957, Note_off_c, 5, 68, 0
1, 3957, Note_off_c, 5, 65, 0
1, 3957, Note_off_c, 6, 48, 0
1, 3960, Note_on_c, 3, 48, 96
1, 3960, Note_on_c, 4, 36, 96
1, 3960, Note_on_c, 6, 48, 96
1, 3981, Note_off_c, 3, 48, 0
1, 3981, Note_off_c, 4, 36, 0
1, 3981, Note_off_c, 6, 48, 0
1, 3984, Note_on_c, 0, 74, 96
1, 3984, Note_on_c, 1, 68, 96
1, 3984, Note_on_c, 2, 65, 96
1, 3984, Note_on_c, 3, 48, 96
1, 3984, Note_on_c, 4, 36, 96
1, 3984, Note_on_c, 5, 74, 96
1, 3984, Note_on_c, 5, 68, 96
1, 3984, Note_on_c, 5, 65, 96
1, 3984, Note_on_c, 6, 48, 96
1, 4005, Note_off_c, 0, 74, 0
1, 4005, Note_off_c, 1, 68, 0
1, 4005, Note_off_c, 2, 65, 0
1, 4005, Note_off_c, 3, 48, 0
1, 4005, Note_off_c, 4, 36, 0
1, 4005, Note_off_c, 5, 74, 0
1, 4005, Note_off_c, 5, 68, 0
1, 4005, Note_off_c, 5, 65, 0
1, 4005, Note_off_c, 6, 48, 0
1, 4008, Note_on_c, 3, 53, 96
1, 4008, Note_on_c, 4, 41, 96
1, 4008, Note_on_c, 6, 53, 96
1, 4020, Note_off_c, 3, 53, 0
1, 4020, Note_on_c, 3, 55, 96
1, 4020, Note_off_c, 4, 41, 0
1, 4020, Note_on_c, 4, 43, 96
1, 4020, Note_off_c, 6, 53, 0
1, 4020, Note_on_c, 6, 55, 96
1, 4026, Note_off_c, 3, 55, 0
1, 4026, Note_on_c, 3, 56, 96
1, 4026, Note_off_c, 4, 43, 0
1, 4026, Note_on_c, 4, 44, 96
1, 4026, Note_off_c, 6, 55, 0
1, 4026, Note_on_c, 6, 56, 96
1, 4031, Note_off_c, 3, 56, 0
1, 4031, Note_off_c, 4, 44, 0
1, 4031, Note_off_c, 6, 56, 0
1, 4032, Note_on_c, 0, 71, 96
1, 4032, Note_on_c, 1, 62, 96
1, 4032, Note_on_c, 2, 65, 96
1, 4032, Note_on_c, 3, 48, 96
1, 4032, Note_on_c, 4, 36, 96
1, 4032, Note_on_c, 5, 71, 96
1, 4032, Note_on_c, 5, 65, 96
1, 4032, Note_on_c, 5, 62, 96
1, 4032, Note_on_c, 6, 48, 96
1, 4053, Note_off_c, 0, 71, 0
1, 4053, Note_off_c, 1, 62, 0
1, 4053, Note_off_c, 2, 65, 0
1, 4053, Note_off_c, 3, 48, 0
1, 4053, Note_off_c, 4, 36, 0
1, 4053, Note_off_c, 5, 71, 0
1, 4053, Note_off_c, 5, 65, 0
1, 4053, Note_off_c, 5, 62, 0
1, 4053, Note_off_c, 6, 48, 0
1, 4056, Note_on_c, 3, 48, 96
1, 4056, Note_on_c, 4, 36, 96
1, 4056, Note_on_c, 6, 48, 96
1, 4077, Note_off_c, 3, 48, 0
1, 4077, Note_off_c, 4, 36, 0
1, 4077, Note_off_c, 6, 48, 0
1, 4080, Note_on_c, 0, 74, 96
1, 4080, Note_on_c, 1, 65, 96
1, 4080, Note_on_c, 2, 59, 96
1, 4080, Note_on_c, 3, 48, 96
1, 4080, Note_on_c, 4, 36, 96
1, 4080, Note_on_c, 5, 74, 96
1, 4080, Note_on_c, 5, 65, 96
1, 4080, Note_on_c, 6, 48, 96
1, 4101, Note_off_c, 0, 74, 0
1, 4101, Note_off_c, 1, 65, 0
1, 4101, Note_off_c, 2, 59, 0
1, 4101, Note_off_c, 3, 48, 0
1, 4101, Note_off_c, 4, 36, 0
1, 4101, Note_off_c, 5, 74, 0
1, 4101, Note_off_c, 5, 65, 0
1, 4101, Note_off_c, 6, 48, 0
1, 4104, Note_on_c, 3, 59, 96
1, 4104, Note_on_c, 4, 47, 96
1, 4104, Note_on_c, 6, 59, 96
1, 4116, Note_off_c, 3, 59, 0
1, 4116, Note_on_c, 3, 60, 96
1, 4116, Note_off_c, 4, 47, 0
1, 4116, Note_on_c, 4, 48, 96
1, 4116, Note_off_c, 6, 59, 0
1, 4116, Note_on_c, 6, 60, 96
1, 4122, Note_off_c, 3, 60, 0
1, 4122, Note_on_c, 3, 62, 96
1, 4122, Note_off_c, 4, 48, 0
1, 4122, Note_on_c, 4, 50, 96
1, 4122, Note_off_c, 6, 60, 0
1, 4122, Note_on_c, 6, 62, 96
1, 4127, Note_off_c, 3, 62, 0
1, 4127, Note_off_c, 4, 50, 0
1, 4127, Note_off_c, 6, 62, 0
1, 4128, Note_on_c, 0, 74, 96
1, 4128, Note_on_c, 1, 65, 96
1, 4128, Note_on_c, 2, 55, 96
1, 4128, Note_on_c, 3, 48, 96
1, 4128, Note_on_c, 4, 36, 96
1, 4128, Note_on_c, 5, 74, 96
1, 4128, Note_on_c, 5, 65, 96
1, 4128, Note_on_c, 6, 48, 96
1, 4149, Note_off_c, 0, 74, 0
1, 4149, Note_off_c, 1, 65, 0
1, 4149, Note_off_c, 2, 55, 0
1, 4149, Note_off_c, 3, 48, 0
1, 4149, Note_off_c, 4, 36, 0
1, 4149, Note_off_c, 5, 74, 0
1, 4149, Note_off_c, 5, 65, 0
1, 4149, Note_off_c, 6, 48, 0
1, 4152, Note_on_c, 3, 48, 96
1, 4152, Note_on_c, 4, 36, 96
1, 4152, Note_on_c, 6, 48, 96
1, 4173, Note_off_c, 3, 48, 0
1, 4173, Note_off_c, 4, 36, 0
1, 4173, Note_off_c, 6, 48, 0
1, 4176, Note_on_c, 0, 72, 96
1, 4176, Note_on_c, 1, 63, 96
1, 4176, Note_on_c, 2, 67, 96
1, 4176, Note_on_c, 3, 48, 96
1, 4176, Note_on_c, 4, 36, 96
1, 4176, Note_on_c, 5, 72, 96
1, 4176, Note_on_c, 5, 63, 96
1, 4176, Note_on_c, 6, 48, 96
1, 4197, Note_off_c, 0, 72, 0
1, 4197, Note_off_c, 1, 63, 0
1, 4197, Note_off_c, 2, 67, 0
1, 4197, Note_off_c, 3, 48, 0
1, 4197, Note_off_c, 4, 36, 0
1, 4197, Note_off_c, 5, 72, 0
1, 4197, Note_off_c, 5, 63, 0
1, 4197, Note_off_c, 6, 48, 0
1, 4200, Note_on_c, 3, 55, 96
1, 4200, Note_on_c, 4, 43, 96
1, 4200, Note_on_c, 6, 55, 96
1, 4212, Note_off_c, 3, 55, 0
1, 4212, Note_on_c, 3, 57, 96
1, 4212, Note_off_c, 4, 43, 0
1, 4212, Note_on_c, 4, 45, 96
1, 4212, Note_off_c, 6, 55, 0
1, 4212, Note_on_c, 6, 57, 96
1, 4218, Note_off_c, 3, 57, 0
1, 4218, Note_on_c, 3, 59, 96
1, 4218, Note_off_c, 4, 45, 0
1, 4218, Note_on_c, 4, 47, 96
1, 4218, Note_off_c, 6, 57, 0
1, 4218, Note_on_c, 6, 59, 96
1, 4223, Note_off_c, 3, 59, 0
1, 4223, Note_off_c, 4, 47, 0
1, 4223, Note_off_c, 6, 59, 0
1, 4224, Note_on_c, 0, 72, 80
1, 4224, Note_on_c, 1, 67, 80
1, 4224, Note_on_c, 2, 60, 80
1, 4224, Note_on_c, 3, 48, 80
1, 4224, Note_on_c, 4, 36, 80
1, 4224, Note_on_c, 5, 75, 96
1, 4224, Note_on_c, 6, 48, 96
1, 4245, Note_off_c, 0, 72, 0
1, 4245, Note_off_c, 1, 67, 0
1, 4245, Note_off_c, 2, 60, 0
1, 4245, Note_off_c, 6, 48, 0
1, 4248, Note_on_c, 2, 60, 80
1, 4248, Note_on_c, 6, 60, 96
1, 4266, Note_off_c, 3, 48, 0
1, 4266, Note_off_c, 4, 36, 0
1, 4269, Note_off_c, 2, 60, 0
1, 4269, Note_off_c, 6, 60, 0
1, 4272, Note_on_c, 0, 80, 80
1, 4272, Note_on_c, 1, 72, 80
1, 4272, Note_on_c, 2, 60, 80
1, 4272, Note_on_c, 6, 60, 96
1, 4273, Note_off_c, 5, 75, 0
1, 4280, Note_on_c, 5, 72, 96
1, 4287, Note_off_c, 5, 72, 0
1, 4288, Note_on_c, 5, 71, 96
1, 4293, Note_off_c, 0, 80, 0
1, 4293, Note_off_c, 1, 72, 0
1, 4293, Note_off_c, 2, 60, 0
1, 4293, Note_off_c, 6, 60, 0
1, 4295, Note_off_c, 5, 71, 0
1, 4296, Note_on_c, 2, 60, 80
1, 4296, Note_on_c, 5, 72, 96
1, 4296, Note_on_c, 6, 60, 96
1, 4303, Note_off_c, 5, 72, 0
1, 4304, Note_on_c, 5, 75, 96
1, 4311, Note_off_c, 5, 75, 0
1, 4312, Note_on_c, 5, 80, 96
1, 4317, Note_off_c, 2, 60, 0
1, 4317, Note_off_c, 6, 60, 0
1, 4319, Note_off_c, 5, 80, 0
1, 4320, Note_on_c, 0, 74, 80
1, 4320, Note_on_c, 1, 65, 80
1, 4320, Note_on_c, 2, 58, 80
1, 4320, Note_on_c, 5, 80, 96
1, 4320, Note_on_c, 6, 58, 96
1, 4341, Note_off_c, 0, 74, 0
1, 4341, Note_off_c, 1, 65, 0
1, 4341, Note_off_c, 2, 58, 0
1, 4341, Note_off_c, 5, 80, 0
1, 4341, Note_off_c, 6, 58, 0
1, 4344, Note_on_c, 2, 58, 80
1, 4344, Note_on_c, 5, 75, 96
1, 4344, Note_on_c, 6, 58, 96
1, 4347, Note_off_c, 5, 75, 0
1, 4347, Note_on_c, 5, 74, 96
1, 4350, Note_off_c, 5, 74, 0
1, 4350, Note_on_c, 5, 75, 96
1, 4353, Note_off_c, 5, 75, 0
1, 4353, Note_on_c, 5, 74, 96
1, 4356, Note_off_c, 5, 74, 0
1, 4356, Note_on_c, 5, 75, 96
1, 4359, Note_off_c, 5, 75, 0
1, 4359, Note_on_c, 5, 74, 96
1, 4362, Note_off_c, 5, 74, 0
1, 4362, Note_on_c, 5, 75, 96
1, 4365, Note_off_c, 2, 58, 0
1, 4365, Note_off_c, 5, 75, 0
1, 4365, Note_on_c, 5, 74, 96
1, 4365, Note_off_c, 6, 58, 0
1, 4368, Note_on_c, 0, 79, 80
1, 4368, Note_on_c, 1, 67, 80
1, 4368, Note_on_c, 2, 58, 80
1, 4368, Note_on_c, 6, 58, 96
1, 4375, Note_off_c, 5, 74, 0
1, 4376, Note_on_c, 5, 70, 96
1, 4383, Note_off_c, 5, 70, 0
1, 4384, Note_on_c, 5, 69, 96
1, 4389, Note_off_c, 0, 79, 0
1, 4389, Note_off_c, 1, 67, 0
1, 4389, Note_off_c, 2, 58, 0
1, 4389, Note_off_c, 6, 58, 0
1, 4391, Note_off_c, 5, 69, 0
1, 4392, Note_on_c, 2, 58, 80
1, 4392, Note_on_c, 5, 70, 96
1, 4392, Note_on_c, 6, 58, 96
1, 4399, Note_off_c, 5, 70, 0
1, 4400, Note_on_c, 5, 74, 96
1, 4407, Note_off_c, 5, 74, 0
1, 4408, Note_on_c, 5, 79, 96
1, 4413, Note_off_c, 2, 58, 0
1, 4413, Note_off_c, 6, 58, 0
1, 4415, Note_off_c, 5, 79, 0
1, 4416, Note_on_c, 0, 72, 80
1, 4416, Note_on_c, 1, 69, 80
1, 4416, Note_on_c, 2, 57, 80
1, 4416, Note_on_c, 5, 79, 96
1, 4416, Note_on_c, 6, 57, 96
1, 4424, Note_off_c, 5, 79, 0
1, 4424, Note_on_c, 5, 78, 96
1, 4432, Note_off_c, 5, 78, 0
1, 4432, Note_on_c, 5, 76, 96
1, 4437, Note_off_c, 0, 72, 0
1, 4437, Note_off_c, 1, 69, 0
1, 4437, Note_off_c, 2, 57, 0
1, 4437, Note_off_c, 6, 57, 0
1, 4439, Note_off_c, 5, 76, 0
1, 4440, Note_on_c, 2, 57, 80
1, 4440, Note_on_c, 5, 78, 96
1, 4440, Note_on_c, 6, 57, 96
1, 4448, Note_off_c, 5, 78, 0
1, 4448, Note_on_c, 5, 81, 96
1, 4456, Note_off_c, 5, 81, 0
1, 4456, Note_on_c, 5, 84, 96
1, 4461, Note_off_c, 2, 57, 0
1, 4461, Note_off_c, 6, 57, 0
1, 4463, Note_off_c, 5, 84, 0
1, 4464, Note_on_c, 0, 75, 80
1, 4464, Note_on_c, 1, 69, 80
1, 4464, Note_on_c, 2, 55, 80
1, 4464, Note_on_c, 5, 84, 96
1, 4464, Note_on_c, 6, 55, 96
1, 4472, Note_off_c, 5, 84, 0
1, 4472, Note_on_c, 5, 82, 96
1, 4480, Note_off_c, 5, 82, 0
1, 4480, Note_on_c, 5, 81, 96
1, 4485, Note_off_c, 0, 75, 0
1, 4485, Note_off_c, 1, 69, 0
1, 4485, Note_off_c, 2, 55, 0
1, 4485, Note_off_c, 6, 55, 0
1, 4487, Note_off_c, 5, 81, 0
1, 4488, Note_on_c, 2, 55, 80
1, 4488, Note_on_c, 5, 79, 96
1, 4488, Note_on_c, 6, 55, 96
1, 4496, Note_off_c, 5, 79, 0
1, 4496, Note_on_c, 5, 77, 96
1, 4504, Note_off_c, 5, 77, 0
1, 4504, Note_on_c, 5, 75, 96
1, 4509, Note_off_c, 2, 55, 0
1, 4509, Note_off_c, 6, 55, 0
1, 4511, Note_off_c, 5, 75, 0
1, 4512, Note_on_c, 0, 81, 80
1, 4512, Note_on_c, 1, 72, 80
1, 4512, Note_on_c, 2, 54, 80
1, 4512, Note_on_c, 5, 74, 96
1, 4512, Note_on_c, 6, 54, 96
1, 4533, Note_off_c, 0, 81, 0
1, 4533, Note_off_c, 1, 72, 0
1, 4533, Note_off_c, 2, 54, 0
1, 4533, Note_off_c, 6, 54, 0
1, 4536, Note_on_c, 2, 54, 80
1, 4536, Note_on_c, 6, 54, 96
1, 4557, Note_off_c, 2, 54, 0
1, 4557, Note_off_c, 6, 54, 0
1, 4560, Note_on_c, 0, 78, 80
1, 4560, Note_on_c, 1, 72, 80
1, 4560, Note_on_c, 2, 50, 80
1, 4560, Note_on_c, 6, 50, 96
1, 4561, Note_off_c, 5, 74, 0
1, 4568, Note_on_c, 5, 78, 96
1, 4575, Note_off_c, 5, 78, 0
1, 4576, Note_on_c, 5, 81, 96
1, 4581, Note_off_c, 0, 78, 0
1, 4581, Note_off_c, 1, 72, 0
1, 4581, Note_off_c, 2, 50, 0
1, 4581, Note_off_c, 6, 50, 0
1, 4583, Note_off_c, 5, 81, 0
1, 4584, Note_on_c, 2, 50, 80
1, 4584, Note_on_c, 5, 84, 96
1, 4584, Note_on_c, 6, 50, 96
1, 4591, Note_off_c, 5, 84, 0
1, 4592, Note_on_c, 5, 82, 96
1, 4599, Note_off_c, 5, 82, 0
1, 4600, Note_on_c, 5, 81, 96
1, 4605, Note_off_c, 2, 50, 0
1, 4605, Note_off_c, 6, 50, 0
1, 4607, Note_off_c, 5, 81, 0
1, 4608, Note_on_c, 0, 74, 80
1, 4608, Note_on_c, 1, 70, 80
1, 4608, Note_on_c, 2, 55, 80
1, 4608, Note_on_c, 3, 43, 80
1, 4608, Note_on_c, 4, 31, 80
1, 4608, Note_on_c, 5, 82, 96
1, 4608, Note_on_c, 6, 43, 96
1, 4615, Note_off_c, 5, 82, 0
1, 4616, Note_on_c, 5, 86, 96
1, 4623, Note_off_c, 5, 86, 0
1, 4624, Note_on_c, 5, 84, 96
1, 4629, Note_off_c, 0, 74, 0
1, 4629, Note_off_c, 1, 70, 0
1, 4629, Note_off_c, 2, 55, 0
1, 4629, Note_off_c, 3, 43, 0
1, 4629, Note_off_c, 4, 31, 0
1, 4629, Note_off_c, 6, 43, 0
1, 4631, Note_off_c, 5, 84, 0
1, 4632, Note_on_c, 3, 43, 80
1, 4632, Note_on_c, 4, 31, 80
1, 4632, Note_on_c, 5, 82, 96
1, 4632, Note_on_c, 6, 43, 96
1, 4639, Note_off_c, 5, 82, 0
1, 4640, Note_on_c, 5, 81, 96
1, 4647, Note_off_c, 5, 81, 0
1, 4648, Note_on_c, 5, 79, 96
1, 4653, Note_off_c, 3, 43, 0
1, 4653, Note_off_c, 4, 31, 0
1, 4653, Note_off_c, 6, 43, 0
1, 4655, Note_off_c, 5, 79, 0
1, 4656, Note_on_c, 0, 77, 80
1, 4656, Note_on_c, 1, 74, 80
1, 4656, Note_on_c, 2, 59, 80
1, 4656, Note_on_c, 3, 43, 80
1, 4656, Note_on_c, 4, 31, 80
1, 4656, Note_on_c, 5, 77, 96
1, 4656, Note_on_c, 6, 43, 96
1, 4663, Note_off_c, 5, 77, 0
1, 4664, Note_on_c, 5, 76, 96
1, 4671, Note_off_c, 5, 76, 0
1, 4672, Note_on_c, 5, 77, 96
1, 4677, Note_off_c, 0, 77, 0
1, 4677, Note_off_c, 1, 74, 0
1, 4677, Note_off_c, 2, 59, 0
1, 4677, Note_off_c, 3, 43, 0
1, 4677, Note_off_c, 4, 31, 0
1, 4677, Note_off_c, 6, 43, 0
1, 4679, Note_off_c, 5, 77, 0
1, 4680, Note_on_c, 3, 47, 80
1, 4680, Note_on_c, 4, 35, 80
1, 4680, Note_on_c, 5, 77, 96
1, 4680, Note_on_c, 6, 47, 96
1, 4692, Note_off_c, 3, 47, 0
1, 4692, Note_on_c, 3, 48, 80
1, 4692, Note_off_c, 4, 35, 0
1, 4692, Note_on_c, 4, 36, 80
1, 4692, Note_off_c, 6, 47, 0
1, 4692, Note_on_c, 6, 48, 96
1, 4698, Note_off_c, 3, 48, 0
1, 4698, Note_on_c, 3, 50, 80
1, 4698, Note_off_c, 4, 36, 0
1, 4698, Note_on_c, 4, 38, 80
1, 4698, Note_off_c, 6, 48, 0
1, 4698, Note_on_c, 6, 50, 96
1, 4703, Note_off_c, 3, 50, 0
1, 4703, Note_off_c, 4, 38, 0
1, 4703, Note_off_c, 6, 50, 0
1, 4704, Note_on_c, 0, 77, 80
1, 4704, Note_on_c, 1, 74, 80
1, 4704, Note_on_c, 2, 60, 80
1, 4704, Note_on_c, 3, 43, 80
1, 4704, Note_on_c, 4, 31, 80
1, 4704, Note_on_c, 6, 43, 96
1, 4708, Note_off_c, 5, 77, 0
1, 4712, Note_on_c, 5, 67, 96
1, 4719, Note_off_c, 5, 67, 0
1, 4720, Note_on_c, 5, 69, 96
1, 4725, Note_off_c, 0, 77, 0
1, 4725, Note_off_c, 1, 74, 0
1, 4725, Note_off_c, 2, 60, 0
1, 4725, Note_off_c, 3, 43, 0
1, 4725, Note_off_c, 4, 31, 0
1, 4725, Note_off_c, 6, 43, 0
1, 4727, Note_off_c, 5, 69, 0
1, 4728, Note_on_c, 3, 43, 80
1, 4728, Note_on_c, 4, 31, 80
1, 4728, Note_on_c, 5, 71, 96
1, 4728, Note_on_c, 6, 43, 96
1, 4735, Note_off_c, 5, 71, 0
1, 4736, Note_on_c, 5, 72, 96
1, 4743, Note_off_c, 5, 72, 0
1, 4744, Note_on_c, 5, 74, 96
1, 4749, Note_off_c, 3, 43, 0
1, 4749, Note_off_c, 4, 31, 0
1, 4749, Note_off_c, 6, 43, 0
1, 4751, Note_off_c, 5, 74, 0
1, 4752, Note_on_c, 0, 75, 80
1, 4752, Note_on_c, 1, 72, 80
1, 4752, Note_on_c, 2, 67, 80
1, 4752, Note_on_c, 3, 43, 80
1, 4752, Note_on_c, 4, 31, 80
1, 4752, Note_on_c, 5, 75, 96
1, 4752, Note_on_c, 6, 43, 96
1, 4759, Note_off_c, 5, 75, 0
1, 4760, Note_on_c, 5, 79, 96
1, 4767, Note_off_c, 5, 79, 0
1, 4768, Note_on_c, 5, 84, 96
1, 4773, Note_off_c, 0, 75, 0
1, 4773, Note_off_c, 1, 72, 0
1, 4773, Note_off_c, 2, 67, 0
1, 4773, Note_off_c, 3, 43, 0
1, 4773, Note_off_c, 4, 31, 0
1, 4773, Note_off_c, 6, 43, 0
1, 4775, Note_off_c, 5, 84, 0
1, 4776, Note_on_c, 3, 48, 80
1, 4776, Note_on_c, 4, 36, 80
1, 4776, Note_on_c, 5, 75, 96
1, 4776, Note_on_c, 6, 48, 96
1, 4788, Note_off_c, 3, 48, 0
1, 4788, Note_on_c, 3, 50, 80
1, 4788, Note_off_c, 4, 36, 0
1, 4788, Note_on_c, 4, 38, 80
1, 4788, Note_off_c, 6, 48, 0
1, 4788, Note_on_c, 6, 50, 96
1, 4794, Note_off_c, 3, 50, 0
1, 4794, Note_on_c, 3, 51, 80
1, 4794, Note_off_c, 4, 38, 0
1, 4794, Note_on_c, 4, 39, 80
1, 4794, Note_off_c, 6, 50, 0
1, 4794, Note_on_c, 6, 51, 96
1, 4799, Note_off_c, 3, 51, 0
1, 4799, Note_off_c, 4, 39, 0
1, 4799, Note_off_c, 6, 51, 0
1, 4800, Note_on_c, 0, 81, 80
1, 4800, Note_on_c, 1, 72, 80
1, 4800, Note_on_c, 2, 66, 80
1, 4800, Note_on_c, 3, 43, 80
1, 4800, Note_on_c, 4, 31, 80
1, 4800, Note_on_c, 6, 43, 96
1, 4804, Note_off_c, 5, 75, 0
1, 4808, Note_on_c, 5, 78, 96
1, 4815, Note_off_c, 5, 78, 0
1, 4816, Note_on_c, 5, 79, 96
1, 4821, Note_off_c, 0, 81, 0
1, 4821, Note_off_c, 1, 72, 0
1, 4821, Note_off_c, 2, 66, 0
1, 4821, Note_off_c, 3, 43, 0
1, 4821, Note_off_c, 4, 31, 0
1, 4821, Note_off_c, 6, 43, 0
1, 4823, Note_off_c, 5, 79, 0
1, 4824, Note_on_c, 3, 43, 80
1, 4824, Note_on_c, 4, 31, 80
1, 4824, Note_on_c, 5, 81, 96
1, 4824, Note_on_c, 6, 43, 96
1, 4831, Note_off_c, 5, 81, 0
1, 4832, Note_on_c, 5, 79, 96
1, 4839, Note_off_c, 5, 79, 0
1, 4840, Note_on_c, 5, 81, 96
1, 4845, Note_off_c, 3, 43, 0
1, 4845, Note_off_c, 4, 31, 0
1, 4845, Note_off_c, 6, 43, 0
1, 4847, Note_off_c, 5, 81, 0
1, 4848, Note_on_c, 0, 72, 80
1, 4848, Note_on_c, 1, 69, 80
1, 4848, Note_on_c, 2, 66, 80
1, 4848, Note_on_c, 3, 43, 80
1, 4848, Note_on_c, 4, 31, 80
1, 4848, Note_on_c, 5, 72, 96
1, 4848, Note_on_c, 6, 43, 96
1, 4855, Note_off_c, 5, 72, 0
1, 4856, Note_on_c, 5, 70, 96
1, 4863, Note_off_c, 5, 70, 0
1, 4864, Note_on_c, 5, 72, 96
1, 4869, Note_off_c, 0, 72, 0
1, 4869, Note_off_c, 1, 69, 0
1, 4869, Note_off_c, 2, 66, 0
1, 4869, Note_off_c, 3, 43, 0
1, 4869, Note_off_c, 4, 31, 0
1, 4869, Note_off_c, 6, 43, 0
1, 4871, Note_off_c, 5, 72, 0
1, 4872, Note_on_c, 3, 54, 80
1, 4872, Note_on_c, 4, 42, 80
1, 4872, Note_on_c, 5, 81, 96
1, 4872, Note_on_c, 6, 54, 96
1, 4884, Note_off_c, 3, 54, 0
1, 4884, Note_on_c, 3, 55, 80
1, 4884, Note_off_c, 4, 42, 0
1, 4884, Note_on_c, 4, 43, 80
1, 4884, Note_off_c, 6, 54, 0
1, 4884, Note_on_c, 6, 55, 96
1, 4888, Note_off_c, 5, 81, 0
1, 4890, Note_off_c, 3, 55, 0
1, 4890, Note_on_c, 3, 57, 80
1, 4890, Note_off_c, 4, 43, 0
1, 4890, Note_on_c, 4, 45, 80
1, 4890, Note_on_c, 5, 72, 96
1, 4890, Note_off_c, 6, 55, 0
1, 4890, Note_on_c, 6, 57, 96
1, 4895, Note_off_c, 3, 57, 0
1, 4895, Note_off_c, 4, 45, 0
1, 4895, Note_off_c, 5, 72, 0
1, 4895, Note_off_c, 6, 57, 0
1, 4896, Note_on_c, 0, 72, 80
1, 4896, Note_on_c, 1, 69, 80
1, 4896, Note_on_c, 2, 62, 80
1, 4896, Note_on_c, 3, 43, 80
1, 4896, Note_on_c, 4, 31, 80
1, 4896, Note_on_c, 5, 72, 96
1, 4896, Note_on_c, 6, 43, 96
1, 4903, Note_off_c, 5, 72, 0
1, 4904, Note_on_c, 5, 70, 96
1, 4911, Note_off_c, 5, 70, 0
1, 4912, Note_on_c, 5, 69, 96
1, 4917, Note_off_c, 0, 72, 0
1, 4917, Note_off_c, 1, 69, 0
1, 4917, Note_off_c, 2, 62, 0
1, 4917, Note_off_c, 6, 43, 0
1, 4919, Note_off_c, 5, 69, 0
1, 4920, Note_on_c, 0, 70, 80
1, 4920, Note_on_c, 1, 67, 80
1, 4920, Note_on_c, 2, 67, 80
1, 4920, Note_on_c, 5, 70, 96
1, 4920, Note_on_c, 6, 67, 96
1, 4930, Note_off_c, 0, 70, 0
1, 4930, Note_off_c, 1, 67, 0
1, 4930, Note_off_c, 2, 67, 0
1, 4930, Note_off_c, 6, 67, 0
1, 4932, Note_on_c, 0, 74, 80
1, 4932, Note_on_c, 1, 69, 80
1, 4932, Note_on_c, 2, 66, 80
1, 4932, Note_on_c, 6, 66, 96
1, 4938, Note_off_c, 3, 43, 0
1, 4938, Note_off_c, 4, 31, 0
1, 4942, Note_off_c, 0, 74, 0
1, 4942, Note_off_c, 1, 69, 0
1, 4942, Note_off_c, 2, 66, 0
1, 4942, Note_off_c, 6, 66, 0
1, 4944, Note_on_c, 0, 79, 80
1, 4944, Note_on_c, 1, 70, 80
1, 4944, Note_on_c, 2, 67, 80
1, 4944, Note_on_c, 6, 67, 96
1, 4948, Note_off_c, 5, 70, 0
1, 4952, Note_on_c, 5, 74, 96
1, 4959, Note_off_c, 5, 74, 0
1, 4960, Note_on_c, 5, 76, 96
1, 4965, Note_off_c, 0, 79, 0
1, 4965, Note_off_c, 1, 70, 0
1, 4965, Note_off_c, 2, 67, 0
1, 4965, Note_off_c, 6, 67, 0
1, 4967, Note_off_c, 5, 76, 0
1, 4968, Note_on_c, 2, 63, 80
1, 4968, Note_on_c, 5, 78, 96
1, 4968, Note_on_c, 6, 63, 96
1, 4975, Note_off_c, 5, 78, 0
1, 4976, Note_on_c, 5, 79, 96
1, 4983, Note_off_c, 5, 79, 0
1, 4984, Note_on_c, 5, 81, 96
1, 4989, Note_off_c, 2, 63, 0
1, 4989, Note_off_c, 6, 63, 0
1, 4991, Note_off_c, 5, 81, 0
1, 4992, Note_on_c, 0, 76, 80
1, 4992, Note_on_c, 1, 67, 80
1, 4992, Note_on_c, 2, 61, 80
1, 4992, Note_on_c, 5, 82, 96
1, 4992, Note_on_c, 6, 61, 96
1, 5013, Note_off_c, 0, 76, 0
1, 5013, Note_off_c, 1, 67, 0
1, 5013, Note_off_c, 2, 61, 0
1, 5013, Note_off_c, 6, 61, 0
1, 5016, Note_on_c, 2, 61, 80
1, 5016, Note_on_c, 6, 61, 96
1, 5037, Note_off_c, 2, 61, 0
1, 5037, Note_off_c, 6, 61, 0
1, 5040, Note_on_c, 0, 75, 80
1, 5040, Note_on_c, 1, 72, 80
1, 5040, Note_on_c, 2, 60, 80
1, 5040, Note_on_c, 6, 60, 96
1, 5041, Note_off_c, 5, 82, 0
1, 5048, Note_on_c, 5, 81, 96
1, 5055, Note_off_c, 5, 81, 0
1, 5056, Note_on_c, 5, 79, 96
1, 5061, Note_off_c, 0, 75, 0
1, 5061, Note_off_c, 1, 72, 0
1, 5061, Note_off_c, 2, 60, 0
1, 5061, Note_off_c, 6, 60, 0
1, 5063, Note_off_c, 5, 79, 0
1, 5064, Note_on_c, 2, 60, 80
1, 5064, Note_on_c, 5, 80, 96
1, 5064, Note_on_c, 6, 60, 96
1, 5085, Note_off_c, 2, 60, 0
1, 5085, Note_off_c, 6, 60, 0
1, 5088, Note_on_c, 0, 74, 80
1, 5088, Note_on_c, 1, 62, 80
1, 5088, Note_on_c, 2, 59, 80
1, 5088, Note_on_c, 6, 59, 96
1, 5092, Note_off_c, 5, 80, 0
1, 5096, Note_on_c, 5, 79, 96
1, 5103, Note_off_c, 5, 79, 0
1, 5104, Note_on_c, 5, 78, 96
1, 5109, Note_off_c, 0, 74, 0
1, 5109, Note_off_c, 1, 62, 0
1, 5109, Note_off_c, 2, 59, 0
1, 5109, Note_off_c, 6, 59, 0
1, 5111, Note_off_c, 5, 78, 0
1, 5112, Note_on_c, 2, 59, 80
1, 5112, Note_on_c, 5, 79, 96
1, 5112, Note_on_c, 6, 59, 96
1, 5133, Note_off_c, 2, 59, 0
1, 5133, Note_off_c, 6, 59, 0
1, 5136, Note_on_c, 0, 79, 80
1, 5136, Note_on_c, 1, 74, 80
1, 5136, Note_on_c, 2, 58, 80
1, 5136, Note_on_c, 6, 58, 96
1, 5140, Note_off_c, 5, 79, 0
1, 5144, Note_on_c, 5, 77, 96
1, 5151, Note_off_c, 5, 77, 0
1, 5152, Note_on_c, 5, 75, 96
1, 5157, Note_off_c, 0, 79, 0
1, 5157, Note_off_c, 1, 74, 0
1, 5157, Note_off_c, 2, 58, 0
1, 5157, Note_off_c, 6, 58, 0
1, 5159, Note_off_c, 5, 75, 0
1, 5160, Note_on_c, 2, 58, 80
1, 5160, Note_on_c, 5, 74, 96
1, 5160, Note_on_c, 6, 58, 96
1, 5167, Note_off_c, 5, 74, 0
1, 5168, Note_on_c, 5, 73, 96
1, 5175, Note_off_c, 5, 73, 0
1, 5176, Note_on_c, 5, 74, 96
1, 5181, Note_off_c, 2, 58, 0
1, 5181, Note_off_c, 6, 58, 0
1, 5183, Note_off_c, 5, 74, 0
1, 5184, Note_on_c, 0, 78, 80
1, 5184, Note_on_c, 1, 74, 80
1, 5184, Note_on_c, 2, 57, 80
1, 5184, Note_on_c, 5, 84, 96
1, 5184, Note_on_c, 6, 57, 96
1, 5191, Note_off_c, 5, 84, 0
1, 5192, Note_on_c, 5, 82, 96
1, 5199, Note_off_c, 5, 82, 0
1, 5200, Note_on_c, 5, 81, 96
1, 5205, Note_off_c, 0, 78, 0
1, 5205, Note_off_c, 1, 74, 0
1, 5205, Note_off_c, 2, 57, 0
1, 5205, Note_off_c, 6, 57, 0
1, 5207, Note_off_c, 5, 81, 0
1, 5208, Note_on_c, 0, 79, 80
1, 5208, Note_on_c, 1, 74, 80
1, 5208, Note_on_c, 2, 55, 80
1, 5208, Note_on_c, 5, 82, 96
1, 5208, Note_on_c, 6, 55, 96
1, 5224, Note_off_c, 5, 82, 0
1, 5226, Note_on_c, 5, 79, 96
1, 5229, Note_off_c, 0, 79, 0
1, 5229, Note_off_c, 1, 74, 0
1, 5229, Note_off_c, 2, 55, 0
1, 5229, Note_off_c, 6, 55, 0
1, 5231, Note_off_c, 5, 79, 0
1, 5232, Note_on_c, 0, 79, 80
1, 5232, Note_on_c, 1, 74, 80
1, 5232, Note_on_c, 2, 62, 80
1, 5232, Note_on_c, 5, 81, 96
1, 5232, Note_on_c, 6, 62, 96
1, 5253, Note_off_c, 0, 79, 0
1, 5253, Note_off_c, 1, 74, 0
1, 5253, Note_off_c, 2, 62, 0
1, 5253, Note_off_c, 6, 62, 0
1, 5256, Note_on_c, 0, 78, 80
1, 5256, Note_on_c, 1, 72, 80
1, 5256, Note_on_c, 2, 50, 80
1, 5256, Note_on_c, 6, 50, 96
1, 5263, Note_off_c, 5, 81, 0
1, 5268, Note_on_c, 5, 79, 96
1, 5277, Note_off_c, 0, 78, 0
1, 5277, Note_off_c, 1, 72, 0
1, 5277, Note_off_c, 2, 50, 0
1, 5277, Note_off_c, 6, 50, 0
1, 5278, Note_off_c, 5, 79, 0
1, 5280, Note_on_c, 0, 79, 80
1, 5280, Note_on_c, 1, 70, 80
1, 5280, Note_on_c, 2, 55, 80
1, 5280, Note_on_c, 5, 79, 96
1, 5280, Note_on_c, 6, 55, 96
1, 5301, Note_off_c, 0, 79, 0
1, 5301, Note_off_c, 1, 70, 0
1, 5301, Note_off_c, 2, 55, 0
1, 5304, Note_on_c, 3, 55, 96
1, 5304, Note_on_c, 4, 43, 96
1, 5311, Note_off_c, 6, 55, 0
1, 5314, Note_off_c, 3, 55, 0
1, 5314, Note_off_c, 4, 43, 0
1, 5316, Note_on_c, 3, 56, 96
1, 5316, Note_on_c, 4, 44, 96
1, 5316, Note_on_c, 6, 56, 96
1, 5322, Note_off_c, 5, 79, 0
1, 5326, Note_off_c, 3, 56, 0
1, 5326, Note_off_c, 4, 44, 0
1, 5326, Note_off_c, 6, 56, 0
1, 5328, Note_on_c, 0, 77, 96
1, 5328, Note_on_c, 1, 71, 96
1, 5328, Note_on_c, 2, 62, 96
1, 5328, Note_on_c, 3, 55, 96
1, 5328, Note_on_c, 4, 43, 96
1, 5328, Note_on_c, 5, 77, 96
1, 5328, Note_on_c, 5, 71, 96
1, 5328, Note_on_c, 5, 67, 96
1, 5328, Note_on_c, 6, 55, 96
1, 5338, Note_off_c, 6, 55, 0
1, 5340, Note_off_c, 3, 55, 0
1, 5340, Note_on_c, 3, 53, 96
1, 5340, Note_off_c, 4, 43, 0
1, 5340, Note_on_c, 4, 41, 96
1, 5340, Note_on_c, 6, 53, 96
1, 5349, Note_off_c, 0, 77, 0
1, 5349, Note_off_c, 1, 71, 0
1, 5349, Note_off_c, 2, 62, 0
1, 5349, Note_off_c, 5, 77, 0
1, 5349, Note_off_c, 5, 71, 0
1, 5349, Note_off_c, 5, 67, 0
1, 5350, Note_off_c, 6, 53, 0
1, 5352, Note_off_c, 3, 53, 0
1, 5352, Note_on_c, 3, 51, 96
1, 5352, Note_off_c, 4, 41, 0
1, 5352, Note_on_c, 4, 39, 96
1, 5352, Note_on_c, 6, 51, 96
1, 5362, Note_off_c, 6, 51, 0
1, 5364, Note_off_c, 3, 51, 0
1, 5364, Note_on_c, 3, 50, 96
1, 5364, Note_off_c, 4, 39, 0
1, 5364, Note_on_c, 4, 38, 96
1, 5364, Note_on_c, 6, 50, 96
1, 5374, Note_off_c, 3, 50, 0
1, 5374, Note_off_c, 4, 38, 0
1, 5374, Note_off_c, 6, 50, 0
1, 5376, Note_on_c, 0, 75, 96
1, 5376, Note_on_c, 1, 72, 96
1, 5376, Note_on_c, 2, 67, 96
1, 5376, Note_on_c, 3, 48, 96
1, 5376, Note_on_c, 4, 36, 96
1, 5376, Note_on_c, 5, 75, 96
1, 5376, Note_on_c, 5, 72, 96
1, 5376, Note_on_c, 5, 67, 96
1, 5376, Note_on_c, 6, 48, 96
1, 5397, Note_off_c, 0, 75, 0
1, 5397, Note_off_c, 1, 72, 0
1, 5397, Note_off_c, 2, 67, 0
1, 5397, Note_off_c, 3, 48, 0
1, 5397, Note_off_c, 4, 36, 0
1, 5397, Note_off_c, 5, 75, 0
1, 5397, Note_off_c, 5, 72, 0
1, 5397, Note_off_c, 5, 67, 0
1, 5397, Note_off_c, 6, 48, 0
1, 5400, Note_on_c, 3, 48, 96
1, 5400, Note_on_c, 4, 36, 96
1, 5400, Note_on_c, 6, 48, 96
1, 5421, Note_off_c, 3, 48, 0
1, 5421, Note_off_c, 4, 36, 0
1, 5421, Note_off_c, 6, 48, 0
1, 5424, Note_on_c, 0, 69, 96
1, 5424, Note_on_c, 1, 66, 96
1, 5424, Note_on_c, 2, 69, 96
1, 5424, Note_on_c, 3, 48, 96
1, 5424, Note_on_c, 4, 36, 96
1, 5424, Note_on_c, 5, 69, 96
1, 5424, Note_on_c, 5, 66, 96
1, 5424, Note_on_c, 6, 48, 96
1, 5445, Note_off_c, 0, 69, 0
1, 5445, Note_off_c, 1, 66, 0
1, 5445, Note_off_c, 2, 69, 0
1, 5445, Note_off_c, 3, 48, 0
1, 5445, Note_off_c, 4, 36, 0
1, 5445, Note_off_c, 5, 69, 0
1, 5445, Note_off_c, 5, 66, 0
1, 5445, Note_off_c, 6, 48, 0
1, 5448, Note_on_c, 3, 54, 96
1, 5448, Note_on_c, 4, 42, 96
1, 5448, Note_on_c, 6, 54, 96
1, 5460, Note_off_c, 3, 54, 0
1, 5460, Note_on_c, 3, 55, 96
1, 5460, Note_off_c, 4, 42, 0
1, 5460, Note_on_c, 4, 43, 96
1, 5460, Note_off_c, 6, 54, 0
1, 5460, Note_on_c, 6, 55, 96
1, 5466, Note_off_c, 3, 55, 0
1, 5466, Note_on_c, 3, 57, 96
1, 5466, Note_off_c, 4, 43, 0
1, 5466, Note_on_c, 4, 45, 96
1, 5466, Note_off_c, 6, 55, 0
1, 5466, Note_on_c, 6, 57, 96
1, 5471, Note_off_c, 3, 57, 0
1, 5471, Note_off_c, 4, 45, 0
1, 5471, Note_off_c, 6, 57, 0
1, 5472, Note_on_c, 0, 74, 96
1, 5472, Note_on_c, 1, 66, 96
1, 5472, Note_on_c, 2, 69, 96
1, 5472, Note_on_c, 3, 46, 96
1, 5472, Note_on_c, 4, 34, 96
1, 5472, Note_on_c, 5, 74, 96
1, 5472, Note_on_c, 5, 69, 96
1, 5472, Note_on_c, 5, 66, 96
1, 5472, Note_on_c, 6, 46, 96
1, 5493, Note_off_c, 0, 74, 0
1, 5493, Note_off_c, 1, 66, 0
1, 5493, Note_off_c, 2, 69, 0
1, 5493, Note_off_c, 3, 46, 0
1, 5493, Note_off_c, 4, 34, 0
1, 5493, Note_off_c, 5, 74, 0
1, 5493, Note_off_c, 5, 69, 0
1, 5493, Note_off_c, 5, 66, 0
1, 5493, Note_off_c, 6, 46, 0
1, 5496, Note_on_c, 3, 46, 96
1, 5496, Note_on_c, 4, 34, 96
1, 5496, Note_on_c, 6, 46, 96
1, 5517, Note_off_c, 3, 46, 0
1, 5517, Note_off_c, 4, 34, 0
1, 5517, Note_off_c, 6, 46, 0
1, 5520, Note_on_c, 0, 67, 96
1, 5520, Note_on_c, 1, 67, 96
1, 5520, Note_on_c, 2, 62, 96
1, 5520, Note_on_c, 3, 46, 96
1, 5520, Note_on_c, 4, 34, 96
1, 5520, Note_on_c, 5, 67, 96
1, 5520, Note_on_c, 5, 62, 96
1, 5520, Note_on_c, 6, 46, 96
1, 5541, Note_off_c, 0, 67, 0
1, 5541, Note_off_c, 1, 67, 0
1, 5541, Note_off_c, 2, 62, 0
1, 5541, Note_off_c, 3, 46, 0
1, 5541, Note_off_c, 4, 34, 0
1, 5541, Note_off_c, 5, 67, 0
1, 5541, Note_off_c, 5, 62, 0
1, 5541, Note_off_c, 6, 46, 0
1, 5544, Note_on_c, 3, 52, 96
1, 5544, Note_on_c, 4, 40, 96
1, 5544, Note_on_c, 6, 52, 96
1, 5556, Note_off_c, 3, 52, 0
1, 5556, Note_on_c, 3, 54, 96
1, 5556, Note_off_c, 4, 40, 0
1, 5556, Note_on_c, 4, 42, 96
1, 5556, Note_off_c, 6, 52, 0
1, 5556, Note_on_c, 6, 54, 96
1, 5562, Note_off_c, 3, 54, 0
1, 5562, Note_on_c, 3, 55, 96
1, 5562, Note_off_c, 4, 42, 0
1, 5562, Note_on_c, 4, 43, 96
1, 5562, Note_off_c, 6, 54, 0
1, 5562, Note_on_c, 6, 55, 96
1, 5567, Note_off_c, 3, 55, 0
1, 5567, Note_off_c, 4, 43, 0
1, 5567, Note_off_c, 6, 55, 0
1, 5568, Note_on_c, 0, 72, 96
1, 5568, Note_on_c, 1, 67, 96
1, 5568, Note_on_c, 2, 63, 96
1, 5568, Note_on_c, 3, 45, 96
1, 5568, Note_on_c, 4, 33, 96
1, 5568, Note_on_c, 5, 72, 96
1, 5568, Note_on_c, 5, 67, 96
1, 5568, Note_on_c, 5, 63, 96
1, 5568, Note_on_c, 6, 45, 96
1, 5589, Note_off_c, 0, 72, 0
1, 5589, Note_off_c, 1, 67, 0
1, 5589, Note_off_c, 2, 63, 0
1, 5589, Note_off_c, 3, 45, 0
1, 5589, Note_off_c, 4, 33, 0
1, 5589, Note_off_c, 5, 72, 0
1, 5589, Note_off_c, 5, 67, 0
1, 5589, Note_off_c, 5, 63, 0
1, 5589, Note_off_c, 6, 45, 0
1, 5592, Note_on_c, 3, 45, 96
1, 5592, Note_on_c, 4, 33, 96
1, 5592, Note_on_c, 6, 45, 96
1, 5613, Note_off_c, 3, 45, 0
1, 5613, Note_off_c, 4, 33, 0
1, 5613, Note_off_c, 6, 45, 0
1, 5616, Note_on_c, 0, 72, 96
1, 5616, Note_on_c, 1, 66, 96
1, 5616, Note_on_c, 2, 62, 96
1, 5616, Note_on_c, 3, 45, 96
1, 5616, Note_on_c, 4, 33, 96
1, 5616, Note_on_c, 5, 72, 96
1, 5616, Note_on_c, 5, 66, 96
1, 5616, Note_on_c, 5, 62, 96
1, 5616, Note_on_c, 6, 45, 96
1, 5637, Note_off_c, 0, 72, 0
1, 5637, Note_off_c, 1, 66, 0
1, 5637, Note_off_c, 2, 62, 0
1, 5637, Note_off_c, 3, 45, 0
1, 5637, Note_off_c, 4, 33, 0
1, 5637, Note_off_c, 5, 72, 0
1, 5637, Note_off_c, 5, 66, 0
1, 5637, Note_off_c, 5, 62, 0
1, 5637, Note_off_c, 6, 45, 0
1, 5640, Note_on_c, 3, 50, 96
1, 5640, Note_on_c, 4, 38, 96
1, 5640, Note_on_c, 6, 50, 96
1, 5652, Note_off_c, 3, 50, 0
1, 5652, Note_on_c, 3, 52, 96
1, 5652, Note_off_c, 4, 38, 0
1, 5652, Note_on_c, 4, 40, 96
1, 5652, Note_off_c, 6, 50, 0
1, 5652, Note_on_c, 6, 52, 96
1, 5658, Note_off_c, 3, 52, 0
1, 5658, Note_on_c, 3, 54, 96
1, 5658, Note_off_c, 4, 40, 0
1, 5658, Note_on_c, 4, 42, 96
1, 5658, Note_off_c, 6, 52, 0
1, 5658, Note_on_c, 6, 54, 96
1, 5663, Note_off_c, 3, 54, 0
1, 5663, Note_off_c, 4, 42, 0
1, 5663, Note_off_c, 6, 54, 0
1, 5664, Note_on_c, 0, 72, 96
1, 5664, Note_on_c, 1, 67, 96
1, 5664, Note_on_c, 2, 62, 96
1, 5664, Note_on_c, 3, 43, 96
1, 5664, Note_on_c, 4, 31, 96
1, 5664, Note_on_c, 5, 72, 96
1, 5664, Note_on_c, 6, 43, 96
1, 5672, Note_on_c, 5, 62, 96
1, 5679, Note_off_c, 5, 62, 0
1, 5680, Note_on_c, 5, 60, 96
1, 5685, Note_off_c, 1, 67, 0
1, 5685, Note_off_c, 2, 62, 0
1, 5685, Note_off_c, 3, 43, 0
1, 5685, Note_off_c, 4, 31, 0
1, 5685, Note_off_c, 5, 72, 0
1, 5685, Note_off_c, 6, 43, 0
1, 5687, Note_off_c, 5, 60, 0
1, 5688, Note_off_c, 0, 72, 0
1, 5688, Note_on_c, 0, 70, 96
1, 5688, Note_on_c, 1, 62, 96
1, 5688, Note_on_c, 2, 55, 96
1, 5688, Note_on_c, 5, 70, 96
1, 5688, Note_on_c, 5, 62, 96
1, 5695, Note_off_c, 5, 62, 0
1, 5696, Note_on_c, 5, 67, 96
1, 5703, Note_off_c, 5, 67, 0
1, 5704, Note_on_c, 5, 69, 96
1, 5709, Note_off_c, 0, 70, 0
1, 5709, Note_off_c, 1, 62, 0
1, 5709, Note_off_c, 2, 55, 0
1, 5709, Note_off_c, 5, 70, 0
1, 5711, Note_off_c, 5, 69, 0
1, 5712, Note_on_c, 5, 70, 96
1, 5719, Note_off_c, 5, 70, 0
1, 5720, Note_on_c, 5, 67, 96
1, 5727, Note_off_c, 5, 67, 0
1, 5728, Note_on_c, 5, 66, 96
1, 5735, Note_off_c, 5, 66, 0
1, 5736, Note_on_c, 5, 67, 96
1, 5743, Note_off_c, 5, 67, 0
1, 5744, Note_on_c, 5, 70, 96
1, 5751, Note_off_c, 5, 70, 0
1, 5752, Note_on_c, 5, 72, 96
1, 5759, Note_off_c, 5, 72, 0
1, 5760, Note_on_c, 0, 64, 80
1, 5760, Note_on_c, 1, 58, 80
1, 5760, Note_on_c, 2, 67, 80
1, 5760, Note_on_c, 5, 73, 96
1, 5760, Note_on_c, 6, 55, 96
1, 5781, Note_off_c, 0, 64, 0
1, 5781, Note_off_c, 1, 58, 0
1, 5781, Note_off_c, 2, 67, 0
1, 5781, Note_off_c, 6, 55, 0
1, 5784, Note_on_c, 2, 67, 80
1, 5784, Note_on_c, 6, 55, 96
1, 5805, Note_off_c, 2, 67, 0
1, 5805, Note_off_c, 6, 55, 0
1, 5808, Note_on_c, 0, 67, 80
1, 5808, Note_on_c, 1, 64, 80
1, 5808, Note_on_c, 2, 67, 80
1, 5808, Note_on_c, 6, 55, 96
1, 5829, Note_off_c, 0, 67, 0
1, 5829, Note_off_c, 1, 64, 0
1, 5829, Note_off_c, 2, 67, 0
1, 5829, Note_off_c, 6, 55, 0
1, 5832, Note_on_c, 2, 70, 80
1, 5832, Note_on_c, 6, 58, 96
1, 5844, Note_off_c, 2, 70, 0
1, 5844, Note_on_c, 2, 72, 80
1, 5844, Note_off_c, 6, 58, 0
1, 5844, Note_on_c, 6, 60, 96
1, 5850, Note_off_c, 2, 72, 0
1, 5850, Note_on_c, 2, 73, 80
1, 5850, Note_off_c, 6, 60, 0
1, 5850, Note_on_c, 6, 61, 96
1, 5855, Note_off_c, 2, 73, 0
1, 5855, Note_off_c, 6, 61, 0
1, 5856, Note_on_c, 0, 70, 80
1, 5856, Note_on_c, 1, 67, 80
1, 5856, Note_on_c, 2, 64, 80
1, 5856, Note_on_c, 6, 52, 96
1, 5877, Note_off_c, 0, 70, 0
1, 5877, Note_off_c, 1, 67, 0
1, 5877, Note_off_c, 2, 64, 0
1, 5877, Note_off_c, 6, 52, 0
1, 5880, Note_on_c, 2, 64, 80
1, 5880, Note_on_c, 6, 52, 96
1, 5901, Note_off_c, 2, 64, 0
1, 5901, Note_off_c, 6, 52, 0
1, 5904, Note_on_c, 0, 73, 80
1, 5904, Note_on_c, 1, 70, 80
1, 5904, Note_on_c, 2, 64, 80
1, 5904, Note_on_c, 6, 52, 96
1, 5925, Note_off_c, 0, 73, 0
1, 5925, Note_off_c, 1, 70, 0
1, 5925, Note_off_c, 2, 64, 0
1, 5925, Note_off_c, 6, 52, 0
1, 5928, Note_on_c, 2, 67, 80
1, 5928, Note_on_c, 6, 55, 96
1, 5940, Note_off_c, 2, 67, 0
1, 5940, Note_on_c, 2, 68, 80
1, 5940, Note_off_c, 6, 55, 0
1, 5940, Note_on_c, 6, 56, 96
1, 5946, Note_off_c, 2, 68, 0
1, 5946, Note_on_c, 2, 70, 80
1, 5946, Note_off_c, 6, 56, 0
1, 5946, Note_on_c, 6, 58, 96
1, 5951, Note_off_c, 2, 70, 0
1, 5951, Note_off_c, 6, 58, 0
1, 5952, Note_on_c, 0, 64, 80
1, 5952, Note_on_c, 1, 70, 80
1, 5952, Note_on_c, 2, 60, 80
1, 5952, Note_off_c, 5, 73, 0
1, 5952, Note_on_c, 6, 48, 96
1, 5960, Note_on_c, 5, 72, 96
1, 5967, Note_off_c, 5, 72, 0
1, 5968, Note_on_c, 5, 70, 96
1, 5973, Note_off_c, 0, 64, 0
1, 5973, Note_off_c, 1, 70, 0
1, 5973, Note_off_c, 2, 60, 0
1, 5973, Note_off_c, 6, 48, 0
1, 5975, Note_off_c, 5, 70, 0
1, 5976, Note_on_c, 2, 60, 80
1, 5976, Note_on_c, 5, 68, 96
1, 5976, Note_on_c, 6, 48, 96
1, 5983, Note_off_c, 5, 68, 0
1, 5984, Note_on_c, 5, 67, 96
1, 5991, Note_off_c, 5, 67, 0
1, 5992, Note_on_c, 5, 65, 96
1, 5997, Note_off_c, 2, 60, 0
1, 5997, Note_off_c, 6, 48, 0
1, 5999, Note_off_c, 5, 65, 0
1, 6000, Note_on_c, 0, 67, 80
1, 6000, Note_on_c, 1, 70, 80
1, 6000, Note_on_c, 2, 60, 80
1, 6000, Note_on_c, 5, 64, 96
1, 6000, Note_on_c, 6, 48, 96
1, 6007, Note_off_c, 5, 64, 0
1, 6008, Note_on_c, 5, 61, 96
1, 6015, Note_off_c, 5, 61, 0
1, 6016, Note_on_c, 5, 60, 96
1, 6021, Note_off_c, 0, 67, 0
1, 6021, Note_off_c, 1, 70, 0
1, 6021, Note_off_c, 2, 60, 0
1, 6021, Note_off_c, 6, 48, 0
1, 6023, Note_off_c, 5, 60, 0
1, 6024, Note_on_c, 2, 64, 80
1, 6024, Note_on_c, 5, 58, 96
1, 6024, Note_on_c, 6, 52, 96
1, 6031, Note_off_c, 5, 58, 0
1, 6032, Note_on_c, 5, 56, 96
1, 6036, Note_off_c, 2, 64, 0
1, 6036, Note_on_c, 2, 65, 80
1, 6036, Note_off_c, 6, 52, 0
1, 6036, Note_on_c, 6, 53, 96
1, 6039, Note_off_c, 5, 56, 0
1, 6040, Note_on_c, 5, 55, 96
1, 6042, Note_off_c, 2, 65, 0
1, 6042, Note_on_c, 2, 67, 80
1, 6042, Note_off_c, 6, 53, 0
1, 6042, Note_on_c, 6, 55, 96
1, 6047, Note_off_c, 2, 67, 0
1, 6047, Note_off_c, 5, 55, 0
1, 6047, Note_off_c, 6, 55, 0
1, 6048, Note_on_c, 0, 67, 80
1, 6048, Note_on_c, 1, 70, 80
1, 6048, Note_on_c, 2, 53, 80
1, 6048, Note_on_c, 5, 56, 96
1, 6048, Note_on_c, 6, 41, 96
1, 6055, Note_off_c, 5, 56, 0
1, 6056, Note_on_c, 5, 53, 96
1, 6063, Note_off_c, 5, 53, 0
1, 6064, Note_on_c, 5, 56, 96
1, 6069, Note_off_c, 0, 67, 0
1, 6069, Note_off_c, 1, 70, 0
1, 6071, Note_off_c, 5, 56, 0
1, 6072, Note_on_c, 0, 65, 80
1, 6072, Note_on_c, 1, 68, 80
1, 6072, Note_on_c, 5, 60, 96
1, 6079, Note_off_c, 5, 60, 0
1, 6080, Note_on_c, 5, 64, 96
1, 6087, Note_off_c, 5, 64, 0
1, 6088, Note_on_c, 5, 65, 96
1, 6090, Note_off_c, 2, 53, 0
1, 6090, Note_off_c, 6, 41, 0
1, 6093, Note_off_c, 0, 65, 0
1, 6093, Note_off_c, 1, 68, 0
1, 6095, Note_off_c, 5, 65, 0
1, 6096, Note_on_c, 5, 68, 96
1, 6103, Note_off_c, 5, 68, 0
1, 6104, Note_on_c, 5, 65, 96
1, 6111, Note_off_c, 5, 65, 0
1, 6112, Note_on_c, 5, 68, 96
1, 6119, Note_off_c, 5, 68, 0
1, 6120, Note_on_c, 5, 72, 96
1, 6127, Note_off_c, 5, 72, 0
1, 6128, Note_on_c, 5, 76, 96
1, 6135, Note_off_c, 5, 76, 0
1, 6136, Note_on_c, 5, 77, 96
1, 6143, Note_off_c, 5, 77, 0
1, 6144, Note_on_c, 0, 69, 80
1, 6144, Note_on_c, 1, 63, 80
1, 6144, Note_on_c, 2, 60, 80
1, 6144, Note_on_c, 3, 48, 80
1, 6144, Note_on_c, 4, 36, 80
1, 6144, Note_on_c, 5, 78, 96
1, 6144, Note_on_c, 6, 48, 96
1, 6165, Note_off_c, 0, 69, 0
1, 6165, Note_off_c, 1, 63, 0
1, 6165, Note_off_c, 2, 60, 0
1, 6165, Note_off_c, 3, 48, 0
1, 6165, Note_off_c, 4, 36, 0
1, 6165, Note_off_c, 6, 48, 0
1, 6168, Note_on_c, 3, 48, 80
1, 6168, Note_on_c, 4, 36, 80
1, 6168, Note_on_c, 6, 48, 96
1, 6189, Note_off_c, 3, 48, 0
1, 6189, Note_off_c, 4, 36, 0
1, 6189, Note_off_c, 6, 48, 0
1, 6192, Note_on_c, 0, 72, 80
1, 6192, Note_on_c, 1, 69, 80
1, 6192, Note_on_c, 2, 63, 80
1, 6192, Note_on_c, 3, 48, 80
1, 6192, Note_on_c, 4, 36, 80
1, 6192, Note_on_c, 6, 48, 96
1, 6213, Note_off_c, 0, 72, 0
1, 6213, Note_off_c, 1, 69, 0
1, 6213, Note_off_c, 2, 63, 0
1, 6213, Note_off_c, 3, 48, 0
1, 6213, Note_off_c, 4, 36, 0
1, 6213, Note_off_c, 6, 48, 0
1, 6216, Note_on_c, 3, 51, 80
1, 6216, Note_on_c, 4, 39, 80
1, 6216, Note_on_c, 6, 51, 96
1, 6228, Note_off_c, 3, 51, 0
1, 6228, Note_on_c, 3, 53, 80
1, 6228, Note_off_c, 4, 39, 0
1, 6228, Note_on_c, 4, 41, 80
1, 6228, Note_off_c, 6, 51, 0
1, 6228, Note_on_c, 6, 53, 96
1, 6234, Note_off_c, 3, 53, 0
1, 6234, Note_on_c, 3, 54, 80
1, 6234, Note_off_c, 4, 41, 0
1, 6234, Note_on_c, 4, 42, 80
1, 6234, Note_off_c, 6, 53, 0
1, 6234, Note_on_c, 6, 54, 96
1, 6239, Note_off_c, 3, 54, 0
1, 6239, Note_off_c, 4, 42, 0
1, 6239, Note_off_c, 6, 54, 0
1, 6240, Note_on_c, 0, 75, 80
1, 6240, Note_on_c, 1, 72, 80
1, 6240, Note_on_c, 2, 60, 80
1, 6240, Note_on_c, 3, 45, 80
1, 6240, Note_on_c, 4, 33, 80
1, 6240, Note_on_c, 6, 45, 96
1, 6261, Note_off_c, 0, 75, 0
1, 6261, Note_off_c, 1, 72, 0
1, 6261, Note_off_c, 2, 60, 0
1, 6261, Note_off_c, 3, 45, 0
1, 6261, Note_off_c, 4, 33, 0
1, 6261, Note_off_c, 6, 45, 0
1, 6264, Note_on_c, 3, 45, 80
1, 6264, Note_on_c, 4, 33, 80
1, 6264, Note_on_c, 6, 45, 96
1, 6285, Note_off_c, 3, 45, 0
1, 6285, Note_off_c, 4, 33, 0
1, 6285, Note_off_c, 6, 45, 0
1, 6288, Note_on_c, 0, 78, 80
1, 6288, Note_on_c, 1, 75, 80
1, 6288, Note_on_c, 2, 57, 80
1, 6288, Note_on_c, 3, 45, 80
1, 6288, Note_on_c, 4, 33, 80
1, 6288, Note_on_c, 6, 45, 96
1, 6309, Note_off_c, 0, 78, 0
1, 6309, Note_off_c, 1, 75, 0
1, 6309, Note_off_c, 2, 57, 0
1, 6309, Note_off_c, 3, 45, 0
1, 6309, Note_off_c, 4, 33, 0
1, 6309, Note_off_c, 6, 45, 0
1, 6312, Note_on_c, 3, 48, 80
1, 6312, Note_on_c, 4, 36, 80
1, 6312, Note_on_c, 6, 48, 96
1, 6324, Note_off_c, 3, 48, 0
1, 6324, Note_on_c, 3, 49, 80
1, 6324, Note_off_c, 4, 36, 0
1, 6324, Note_on_c, 4, 37, 80
1, 6324, Note_off_c, 6, 48, 0
1, 6324, Note_on_c, 6, 49, 96
1, 6330, Note_off_c, 3, 49, 0
1, 6330, Note_on_c, 3, 51, 80
1, 6330, Note_off_c, 4, 37, 0
1, 6330, Note_on_c, 4, 39, 80
1, 6330, Note_off_c, 6, 49, 0
1, 6330, Note_on_c, 6, 51, 96
1, 6335, Note_off_c, 3, 51, 0
1, 6335, Note_off_c, 4, 39, 0
1, 6335, Note_off_c, 6, 51, 0
1, 6336, Note_on_c, 0, 69, 80
1, 6336, Note_on_c, 1, 75, 80
1, 6336, Note_on_c, 2, 60, 80
1, 6336, Note_on_c, 3, 41, 80
1, 6336, Note_on_c, 4, 29, 80
1, 6336, Note_off_c, 5, 78, 0
1, 6336, Note_on_c, 6, 41, 96
1, 6344, Note_on_c, 5, 77, 96
1, 6351, Note_off_c, 5, 77, 0
1, 6352, Note_on_c, 5, 75, 96
1, 6357, Note_off_c, 0, 69, 0
1, 6357, Note_off_c, 1, 75, 0
1, 6357, Note_off_c, 2, 60, 0
1, 6357, Note_off_c, 3, 41, 0
1, 6357, Note_off_c, 4, 29, 0
1, 6357, Note_off_c, 6, 41, 0
1, 6359, Note_off_c, 5, 75, 0
1, 6360, Note_on_c, 3, 41, 80
1, 6360, Note_on_c, 4, 29, 80
1, 6360, Note_on_c, 5, 73, 96
1, 6360, Note_on_c, 6, 41, 96
1, 6367, Note_off_c, 5, 73, 0
1, 6368, Note_on_c, 5, 72, 96
1, 6375, Note_off_c, 5, 72, 0
1, 6376, Note_on_c, 5, 70, 96
1, 6381, Note_off_c, 3, 41, 0
1, 6381, Note_off_c, 4, 29, 0
1, 6381, Note_off_c, 6, 41, 0
1, 6383, Note_off_c, 5, 70, 0
1, 6384, Note_on_c, 0, 72, 80
1, 6384, Note_on_c, 1, 63, 80
1, 6384, Note_on_c, 2, 65, 80
1, 6384, Note_on_c, 3, 41, 80
1, 6384, Note_on_c, 4, 29, 80
1, 6384, Note_on_c, 5, 69, 96
1, 6384, Note_on_c, 6, 41, 96
1, 6391, Note_off_c, 5, 69, 0
1, 6392, Note_on_c, 5, 66, 96
1, 6399, Note_off_c, 5, 66, 0
1, 6400, Note_on_c, 5, 65, 96
1, 6405, Note_off_c, 0, 72, 0
1, 6405, Note_off_c, 1, 63, 0
1, 6405, Note_off_c, 2, 65, 0
1, 6405, Note_off_c, 3, 41, 0
1, 6405, Note_off_c, 4, 29, 0
1, 6405, Note_off_c, 6, 41, 0
1, 6407, Note_off_c, 5, 65, 0
1, 6408, Note_on_c, 3, 45, 80
1, 6408, Note_on_c, 4, 33, 80
1, 6408, Note_on_c, 5, 63, 96
1, 6408, Note_on_c, 6, 45, 96
1, 6415, Note_off_c, 5, 63, 0
1, 6416, Note_on_c, 5, 61, 96
1, 6420, Note_off_c, 3, 45, 0
1, 6420, Note_on_c, 3, 46, 80
1, 6420, Note_off_c, 4, 33, 0
1, 6420, Note_on_c, 4, 34, 80
1, 6420, Note_off_c, 6, 45, 0
1, 6420, Note_on_c, 6, 46, 96
1, 6423, Note_off_c, 5, 61, 0
1, 6424, Note_on_c, 5, 60, 96
1, 6426, Note_off_c, 3, 46, 0
1, 6426, Note_on_c, 3, 48, 80
1, 6426, Note_off_c, 4, 34, 0
1, 6426, Note_on_c, 4, 36, 80
1, 6426, Note_off_c, 6, 46, 0
1, 6426, Note_on_c, 6, 48, 96
1, 6431, Note_off_c, 3, 48, 0
1, 6431, Note_off_c, 4, 36, 0
1, 6431, Note_off_c, 5, 60, 0
1, 6431, Note_off_c, 6, 48, 0
1, 6432, Note_on_c, 0, 72, 80
1, 6432, Note_on_c, 1, 61, 80
1, 6432, Note_on_c, 2, 65, 80
1, 6432, Note_on_c, 3, 46, 80
1, 6432, Note_on_c, 4, 34, 80
1, 6432, Note_on_c, 5, 61, 96
1, 6432, Note_on_c, 6, 46, 96
1, 6439, Note_off_c, 5, 61, 0
1, 6440, Note_on_c, 5, 58, 96
1, 6447, Note_off_c, 5, 58, 0
1, 6448, Note_on_c, 5, 61, 96
1, 6453, Note_off_c, 0, 72, 0
1, 6453, Note_off_c, 1, 61, 0
1, 6453, Note_off_c, 2, 65, 0
1, 6453, Note_off_c, 6, 46, 0
1, 6455, Note_off_c, 5, 61, 0
1, 6456, Note_on_c, 0, 70, 80
1, 6456, Note_on_c, 1, 73, 80
1, 6456, Note_on_c, 2, 58, 80
1, 6456, Note_on_c, 5, 65, 96
1, 6456, Note_on_c, 6, 58, 96
1, 6463, Note_off_c, 5, 65, 0
1, 6464, Note_on_c, 5, 69, 96
1, 6471, Note_off_c, 5, 69, 0
1, 6472, Note_on_c, 5, 70, 96
1, 6474, Note_off_c, 3, 46, 0
1, 6474, Note_off_c, 4, 34, 0
1, 6477, Note_off_c, 0, 70, 0
1, 6477, Note_off_c, 1, 73, 0
1, 6477, Note_off_c, 2, 58, 0
1, 6477, Note_off_c, 6, 58, 0
1, 6479, Note_off_c, 5, 70, 0
1, 6480, Note_on_c, 0, 65, 80
1, 6480, Note_on_c, 1, 72, 80
1, 6480, Note_on_c, 2, 58, 80
1, 6480, Note_on_c, 5, 73, 96
1, 6480, Note_on_c, 6, 58, 96
1, 6501, Note_off_c, 0, 65, 0
1, 6501, Note_off_c, 1, 72, 0
1, 6501, Note_off_c, 2, 58, 0
1, 6501, Note_off_c, 6, 58, 0
1, 6504, Note_on_c, 2, 60, 80
1, 6504, Note_on_c, 6, 60, 96
1, 6514, Note_off_c, 2, 60, 0
1, 6514, Note_off_c, 6, 60, 0
1, 6516, Note_on_c, 2, 61, 80
1, 6516, Note_on_c, 6, 61, 96
1, 6526, Note_off_c, 2, 61, 0
1, 6526, Note_off_c, 6, 61, 0
1, 6528, Note_on_c, 0, 66, 80
1, 6528, Note_on_c, 1, 70, 80
1, 6528, Note_on_c, 2, 63, 80
1, 6528, Note_on_c, 6, 63, 96
1, 6529, Note_off_c, 5, 73, 0
1, 6536, Note_on_c, 5, 75, 96
1, 6543, Note_off_c, 5, 75, 0
1, 6544, Note_on_c, 5, 77, 96
1, 6549, Note_off_c, 0, 66, 0
1, 6549, Note_off_c, 1, 70, 0
1, 6549, Note_off_c, 2, 63, 0
1, 6549, Note_off_c, 6, 63, 0
1, 6551, Note_off_c, 5, 77, 0
1, 6552, Note_on_c, 2, 63, 80
1, 6552, Note_on_c, 5, 78, 96
1, 6552, Note_on_c, 6, 63, 96
1, 6559, Note_off_c, 5, 78, 0
1, 6560, Note_on_c, 5, 77, 96
1, 6567, Note_off_c, 5, 77, 0
1, 6568, Note_on_c, 5, 75, 96
1, 6573, Note_off_c, 2, 63, 0
1, 6573, Note_off_c, 6, 63, 0
1, 6575, Note_off_c, 5, 75, 0
1, 6576, Note_on_c, 0, 78, 80
1, 6576, Note_on_c, 1, 69, 80
1, 6576, Note_on_c, 2, 63, 80
1, 6576, Note_on_c, 5, 73, 96
1, 6576, Note_on_c, 6, 63, 96
1, 6583, Note_off_c, 5, 73, 0
1, 6584, Note_on_c, 5, 72, 96
1, 6591, Note_off_c, 5, 72, 0
1, 6592, Note_on_c, 5, 70, 96
1, 6597, Note_off_c, 0, 78, 0
1, 6597, Note_off_c, 1, 69, 0
1, 6597, Note_off_c, 2, 63, 0
1, 6597, Note_off_c, 6, 63, 0
1, 6599, Note_off_c, 5, 70, 0
1, 6600, Note_on_c, 2, 63, 80
1, 6600, Note_on_c, 5, 72, 96
1, 6600, Note_on_c, 6, 63, 96
1, 6621, Note_off_c, 2, 63, 0
1, 6621, Note_off_c, 6, 63, 0
1, 6624, Note_on_c, 0, 77, 80
1, 6624, Note_on_c, 1, 69, 80
1, 6624, Note_on_c, 2, 61, 80
1, 6624, Note_on_c, 6, 61, 96
1, 6628, Note_off_c, 5, 72, 0
1, 6632, Note_on_c, 5, 73, 96
1, 6639, Note_off_c, 5, 73, 0
1, 6640, Note_on_c, 5, 75, 96
1, 6645, Note_off_c, 0, 77, 0
1, 6645, Note_off_c, 1, 69, 0
1, 6645, Note_off_c, 2, 61, 0
1, 6645, Note_off_c, 6, 61, 0
1, 6647, Note_off_c, 5, 75, 0
1, 6648, Note_on_c, 2, 61, 80
1, 6648, Note_on_c, 5, 77, 96
1, 6648, Note_on_c, 6, 61, 96
1, 6655, Note_off_c, 5, 77, 0
1, 6656, Note_on_c, 5, 75, 96
1, 6663, Note_off_c, 5, 75, 0
1, 6664, Note_on_c, 5, 73, 96
1, 6669, Note_off_c, 2, 61, 0
1, 6669, Note_off_c, 6, 61, 0
1, 6671, Note_off_c, 5, 73, 0
1, 6672, Note_on_c, 0, 65, 80
1, 6672, Note_on_c, 1, 65, 80
1, 6672, Note_on_c, 2, 62, 80
1, 6672, Note_on_c, 5, 71, 96
1, 6672, Note_on_c, 6, 62, 96
1, 6679, Note_off_c, 5, 71, 0
1, 6680, Note_on_c, 5, 70, 96
1, 6687, Note_off_c, 5, 70, 0
1, 6688, Note_on_c, 5, 69, 96
1, 6693, Note_off_c, 0, 65, 0
1, 6693, Note_off_c, 1, 65, 0
1, 6693, Note_off_c, 2, 62, 0
1, 6693, Note_off_c, 6, 62, 0
1, 6695, Note_off_c, 5, 69, 0
1, 6696, Note_on_c, 2, 62, 80
1, 6696, Note_on_c, 5, 70, 96
1, 6696, Note_on_c, 6, 62, 96
1, 6717, Note_off_c, 2, 62, 0
1, 6717, Note_off_c, 6, 62, 0
1, 6720, Note_on_c, 0, 72, 80
1, 6720, Note_on_c, 1, 69, 80
1, 6720, Note_on_c, 2, 63, 80
1, 6720, Note_on_c, 6, 63, 96
1, 6724, Note_off_c, 5, 70, 0
1, 6728, Note_on_c, 5, 80, 96
1, 6736, Note_off_c, 5, 80, 0
1, 6736, Note_on_c, 5, 78, 96
1, 6741, Note_off_c, 0, 72, 0
1, 6741, Note_off_c, 1, 69, 0
1, 6741, Note_off_c, 2, 63, 0
1, 6741, Note_off_c, 6, 63, 0
1, 6743, Note_off_c, 5, 78, 0
1, 6744, Note_on_c, 0, 73, 80
1, 6744, Note_on_c, 1, 70, 80
1, 6744, Note_on_c, 2, 61, 80
1, 6744, Note_on_c, 5, 70, 96
1, 6744, Note_on_c, 6, 61, 96
1, 6751, Note_off_c, 5, 70, 0
1, 6752, Note_on_c, 5, 78, 96
1, 6760, Note_off_c, 5, 78, 0
1, 6760, Note_on_c, 5, 77, 96
1, 6765, Note_off_c, 0, 73, 0
1, 6765, Note_off_c, 1, 70, 0
1, 6765, Note_off_c, 2, 61, 0
1, 6765, Note_off_c, 6, 61, 0
1, 6767, Note_off_c, 5, 77, 0
1, 6768, Note_on_c, 0, 69, 80
1, 6768, Note_on_c, 1, 65, 80
1, 6768, Note_on_c, 2, 60, 80
1, 6768, Note_on_c, 5, 69, 96
1, 6768, Note_on_c, 6, 60, 96
1, 6775, Note_off_c, 5, 69, 0
1, 6776, Note_on_c, 5, 77, 96
1, 6784, Note_off_c, 5, 77, 0
1, 6784, Note_on_c, 5, 75, 96
1, 6789, Note_off_c, 0, 69, 0
1, 6789, Note_off_c, 1, 65, 0
1, 6789, Note_off_c, 2, 60, 0
1, 6789, Note_off_c, 6, 60, 0
1, 6791, Note_off_c, 5, 75, 0
1, 6792, Note_on_c, 0, 70, 80
1, 6792, Note_on_c, 1, 65, 80
1, 6792, Note_on_c, 2, 58, 80
1, 6792, Note_on_c, 5, 70, 96
1, 6792, Note_on_c, 6, 58, 96
1, 6799, Note_off_c, 5, 70, 0
1, 6800, Note_on_c, 5, 75, 96
1, 6808, Note_off_c, 5, 75, 0
1, 6808, Note_on_c, 5, 73, 96
1, 6813, Note_off_c, 0, 70, 0
1, 6813, Note_off_c, 1, 65, 0
1, 6813, Note_off_c, 2, 58, 0
1, 6813, Note_off_c, 6, 58, 0
1, 6815, Note_off_c, 5, 73, 0
1, 6816, Note_on_c, 0, 70, 80
1, 6816, Note_on_c, 1, 65, 80
1, 6816, Note_on_c, 2, 53, 80
1, 6816, Note_on_c, 5, 72, 96
1, 6816, Note_on_c, 6, 53, 96
1, 6824, Note_off_c, 5, 72, 0
1, 6824, Note_on_c, 5, 76, 96
1, 6832, Note_off_c, 5, 76, 0
1, 6832, Note_on_c, 5, 77, 96
1, 6837, Note_off_c, 0, 70, 0
1, 6837, Note_off_c, 1, 65, 0
1, 6837, Note_off_c, 2, 53, 0
1, 6839, Note_off_c, 5, 77, 0
1, 6840, Note_on_c, 0, 69, 80
1, 6840, Note_on_c, 1, 60, 80
1, 6840, Note_on_c, 2, 65, 80
1, 6840, Note_on_c, 3, 53, 80
1, 6840, Note_on_c, 4, 41, 80
1, 6840, Note_on_c, 5, 65, 96
1, 6847, Note_off_c, 6, 53, 0
1, 6852, Note_off_c, 3, 53, 0
1, 6852, Note_on_c, 3, 55, 80
1, 6852, Note_off_c, 4, 41, 0
1, 6852, Note_on_c, 4, 43, 80
1, 6852, Note_on_c, 6, 55, 96
1, 6861, Note_off_c, 0, 69, 0
1, 6861, Note_off_c, 1, 60, 0
1, 6861, Note_off_c, 2, 65, 0
1, 6861, Note_off_c, 5, 65, 0
1, 6862, Note_off_c, 3, 55, 0
1, 6862, Note_off_c, 4, 43, 0
1, 6862, Note_off_c, 6, 55, 0
1, 6864, Note_on_c, 0, 65, 80
1, 6864, Note_on_c, 1, 57, 80
1, 6864, Note_on_c, 2, 60, 80
1, 6864, Note_on_c, 3, 53, 80
1, 6864, Note_on_c, 4, 41, 80
1, 6864, Note_on_c, 6, 53, 96
1, 6874, Note_off_c, 6, 53, 0
1, 6876, Note_off_c, 3, 53, 0
1, 6876, Note_on_c, 3, 51, 80
1, 6876, Note_off_c, 4, 41, 0
1, 6876, Note_on_c, 4, 39, 80
1, 6876, Note_on_c, 6, 51, 96
1, 6885, Note_off_c, 0, 65, 0
1, 6885, Note_off_c, 1, 57, 0
1, 6885, Note_off_c, 2, 60, 0
1, 6886, Note_off_c, 3, 51, 0
1, 6886, Note_off_c, 4, 39, 0
1, 6886, Note_off_c, 6, 51, 0
1, 6888, Note_on_c, 0, 72, 80
1, 6888, Note_on_c, 1, 69, 80
1, 6888, Note_on_c, 2, 53, 80
1, 6888, Note_on_c, 3, 50, 80
1, 6888, Note_on_c, 4, 38, 80
1, 6888, Note_on_c, 6, 50, 96
1, 6898, Note_off_c, 6, 50, 0
1, 6900, Note_off_c, 0, 72, 0
1, 6900, Note_on_c, 0, 74, 80
1, 6900, Note_off_c, 1, 69, 0
1, 6900, Note_on_c, 1, 70, 80
1, 6900, Note_off_c, 3, 50, 0
1, 6900, Note_on_c, 3, 48, 80
1, 6900, Note_off_c, 4, 38, 0
1, 6900, Note_on_c, 4, 36, 80
1, 6900, Note_on_c, 6, 48, 96
1, 6906, Note_off_c, 0, 74, 0
1, 6906, Note_on_c, 0, 75, 80
1, 6906, Note_off_c, 1, 70, 0
1, 6906, Note_on_c, 1, 72, 80
1, 6909, Note_off_c, 2, 53, 0
1, 6910, Note_off_c, 3, 48, 0
1, 6910, Note_off_c, 4, 36, 0
1, 6910, Note_off_c, 6, 48, 0
1, 6911, Note_off_c, 0, 75, 0
1, 6911, Note_off_c, 1, 72, 0
1, 6912, Note_on_c, 0, 65, 96
1, 6912, Note_on_c, 1, 62, 96
1, 6912, Note_on_c, 2, 58, 96
1, 6912, Note_on_c, 3, 46, 96
1, 6912, Note_on_c, 4, 34, 96
1, 6912, Note_on_c, 5, 65, 96
1, 6912, Note_on_c, 5, 62, 96
1, 6912, Note_on_c, 5, 58, 96
1, 6912, Note_on_c, 6, 46, 96
1, 6933, Note_off_c, 0, 65, 0
1, 6933, Note_off_c, 1, 62, 0
1, 6933, Note_off_c, 2, 58, 0
1, 6933, Note_off_c, 3, 46, 0
1, 6933, Note_off_c, 4, 34, 0
1, 6933, Note_off_c, 5, 65, 0
1, 6933, Note_off_c, 5, 62, 0
1, 6933, Note_off_c, 5, 58, 0
1, 6933, Note_off_c, 6, 46, 0
1, 6936, Note_on_c, 3, 46, 96
1, 6936, Note_on_c, 4, 34, 96
1, 6936, Note_on_c, 6, 46, 96
1, 6957, Note_off_c, 3, 46, 0
1, 6957, Note_off_c, 4, 34, 0
1, 6957, Note_off_c, 6, 46, 0
1, 6960, Note_on_c, 0, 68, 96
1, 6960, Note_on_c, 1, 62, 96
1, 6960, Note_on_c, 2, 53, 96
1, 6960, Note_on_c, 3, 46, 96
1, 6960, Note_on_c, 4, 34, 96
1, 6960, Note_on_c, 5, 68, 96
1, 6960, Note_on_c, 5, 65, 96
1, 6960, Note_on_c, 5, 62, 96
1, 6960, Note_on_c, 5, 58, 96
1, 6960, Note_on_c, 6, 46, 96
1, 6981, Note_off_c, 0, 68, 0
1, 6981, Note_off_c, 1, 62, 0
1, 6981, Note_off_c, 2, 53, 0
1, 6981, Note_off_c, 3, 46, 0
1, 6981, Note_off_c, 4, 34, 0
1, 6981, Note_off_c, 5, 68, 0
1, 6981, Note_off_c, 5, 65, 0
1, 6981, Note_off_c, 5, 62, 0
1, 6981, Note_off_c, 5, 58, 0
1, 6981, Note_off_c, 6, 46, 0
1, 6984, Note_on_c, 3, 50, 96
1, 6984, Note_on_c, 4, 38, 96
1, 6984, Note_on_c, 6, 50, 96
1, 6996, Note_off_c, 3, 50, 0
1, 6996, Note_on_c, 3, 51, 96
1, 6996, Note_off_c, 4, 38, 0
1, 6996, Note_on_c, 4, 39, 96
1, 6996, Note_off_c, 6, 50, 0
1, 6996, Note_on_c, 6, 51, 96
1, 7002, Note_off_c, 3, 51, 0
1, 7002, Note_on_c, 3, 53, 96
1, 7002, Note_off_c, 4, 39, 0
1, 7002, Note_on_c, 4, 41, 96
1, 7002, Note_off_c, 6, 51, 0
1, 7002, Note_on_c, 6, 53, 96
1, 7007, Note_off_c, 3, 53, 0
1, 7007, Note_off_c, 4, 41, 0
1, 7007, Note_off_c, 6, 53, 0
1, 7008, Note_on_c, 0, 68, 96
1, 7008, Note_on_c, 1, 63, 96
1, 7008, Note_on_c, 2, 58, 96
1, 7008, Note_on_c, 3, 46, 96
1, 7008, Note_on_c, 4, 34, 96
1, 7008, Note_on_c, 5, 68, 96
1, 7008, Note_on_c, 5, 63, 96
1, 7008, Note_on_c, 5, 58, 96
1, 7008, Note_on_c, 6, 46, 96
1, 7029, Note_off_c, 0, 68, 0
1, 7029, Note_off_c, 1, 63, 0
1, 7029, Note_off_c, 2, 58, 0
1, 7029, Note_off_c, 3, 46, 0
1, 7029, Note_off_c, 4, 34, 0
1, 7029, Note_off_c, 5, 68, 0
1, 7029, Note_off_c, 5, 63, 0
1, 7029, Note_off_c, 5, 58, 0
1, 7029, Note_off_c, 6, 46, 0
1, 7032, Note_on_c, 3, 46, 96
1, 7032, Note_on_c, 4, 34, 96
1, 7032, Note_on_c, 6, 46, 96
1, 7053, Note_off_c, 3, 46, 0
1, 7053, Note_off_c, 4, 34, 0
1, 7053, Note_off_c, 6, 46, 0
1, 7056, Note_on_c, 0, 67, 96
1, 7056, Note_on_c, 1, 63, 96
1, 7056, Note_on_c, 2, 58, 96
1, 7056, Note_on_c, 3, 46, 96
1, 7056, Note_on_c, 4, 34, 96
1, 7056, Note_on_c, 5, 67, 96
1, 7056, Note_on_c, 5, 63, 96
1, 7056, Note_on_c, 5, 58, 96
1, 7056, Note_on_c, 6, 46, 96
1, 7077, Note_off_c, 0, 67, 0
1, 7077, Note_off_c, 1, 63, 0
1, 7077, Note_off_c, 2, 58, 0
1, 7077, Note_off_c, 3, 46, 0
1, 7077, Note_off_c, 4, 34, 0
1, 7077, Note_off_c, 5, 67, 0
1, 7077, Note_off_c, 5, 63, 0
1, 7077, Note_off_c, 5, 58, 0
1, 7077, Note_off_c, 6, 46, 0
1, 7080, Note_on_c, 3, 51, 96
1, 7080, Note_on_c, 4, 39, 96
1, 7080, Note_on_c, 6, 51, 96
1, 7092, Note_off_c, 3, 51, 0
1, 7092, Note_on_c, 3, 53, 96
1, 7092, Note_off_c, 4, 39, 0
1, 7092, Note_on_c, 4, 41, 96
1, 7092, Note_off_c, 6, 51, 0
1, 7092, Note_on_c, 6, 53, 96
1, 7098, Note_off_c, 3, 53, 0
1, 7098, Note_on_c, 3, 55, 96
1, 7098, Note_off_c, 4, 41, 0
1, 7098, Note_on_c, 4, 43, 96
1, 7098, Note_off_c, 6, 53, 0
1, 7098, Note_on_c, 6, 55, 96
1, 7103, Note_off_c, 3, 55, 0
1, 7103, Note_off_c, 4, 43, 0
1, 7103, Note_off_c, 6, 55, 0
1, 7104, Note_on_c, 0, 72, 96
1, 7104, Note_on_c, 1, 63, 96
1, 7104, Note_on_c, 2, 55, 96
1, 7104, Note_on_c, 3, 46, 96
1, 7104, Note_on_c, 4, 34, 96
1, 7104, Note_on_c, 5, 72, 96
1, 7104, Note_on_c, 5, 67, 96
1, 7104, Note_on_c, 5, 63, 96
1, 7104, Note_on_c, 6, 46, 96
1, 7125, Note_off_c, 0, 72, 0
1, 7125, Note_off_c, 1, 63, 0
1, 7125, Note_off_c, 2, 55, 0
1, 7125, Note_off_c, 3, 46, 0
1, 7125, Note_off_c, 4, 34, 0
1, 7125, Note_off_c, 5, 72, 0
1, 7125, Note_off_c, 5, 67, 0
1, 7125, Note_off_c, 5, 63, 0
1, 7125, Note_off_c, 6, 46, 0
1, 7128, Note_on_c, 3, 46, 96
1, 7128, Note_on_c, 4, 34, 96
1, 7128, Note_on_c, 6, 46, 96
1, 7149, Note_off_c, 3, 46, 0
1, 7149, Note_off_c, 4, 34, 0
1, 7149, Note_off_c, 6, 46, 0
1, 7152, Note_on_c, 0, 63, 96
1, 7152, Note_on_c, 1, 60, 96
1, 7152, Note_on_c, 2, 57, 96
1, 7152, Note_on_c, 3, 46, 96
1, 7152, Note_on_c, 4, 34, 96
1, 7152, Note_on_c, 5, 63, 96
1, 7152, Note_on_c, 5, 60, 96
1, 7152, Note_on_c, 6, 46, 96
1, 7173, Note_off_c, 0, 63, 0
1, 7173, Note_off_c, 1, 60, 0
1, 7173, Note_off_c, 2, 57, 0
1, 7173, Note_off_c, 3, 46, 0
1, 7173, Note_off_c, 4, 34, 0
1, 7173, Note_off_c, 5, 63, 0
1, 7173, Note_off_c, 5, 60, 0
1, 7173, Note_off_c, 6, 46, 0
1, 7176, Note_on_c, 3, 57, 96
1, 7176, Note_on_c, 4, 45, 96
1, 7176, Note_on_c, 6, 57, 96
1, 7188, Note_off_c, 3, 57, 0
1, 7188, Note_on_c, 3, 58, 96
1, 7188, Note_off_c, 4, 45, 0
1, 7188, Note_on_c, 4, 46, 96
1, 7188, Note_off_c, 6, 57, 0
1, 7188, Note_on_c, 6, 58, 96
1, 7194, Note_off_c, 3, 58, 0
1, 7194, Note_on_c, 3, 60, 96
1, 7194, Note_off_c, 4, 46, 0
1, 7194, Note_on_c, 4, 48, 96
1, 7194, Note_off_c, 6, 58, 0
1, 7194, Note_on_c, 6, 60, 96
1, 7199, Note_off_c, 3, 60, 0
1, 7199, Note_off_c, 4, 48, 0
1, 7199, Note_off_c, 6, 60, 0
1, 7200, Note_on_c, 0, 63, 96
1, 7200, Note_on_c, 1, 60, 96
1, 7200, Note_on_c, 2, 53, 96
1, 7200, Note_on_c, 3, 46, 96
1, 7200, Note_on_c, 4, 34, 96
1, 7200, Note_on_c, 5, 63, 96
1, 7200, Note_on_c, 5, 60, 96
1, 7200, Note_on_c, 6, 46, 96
1, 7221, Note_off_c, 0, 63, 0
1, 7221, Note_off_c, 1, 60, 0
1, 7221, Note_off_c, 2, 53, 0
1, 7221, Note_off_c, 3, 46, 0
1, 7221, Note_off_c, 4, 34, 0
1, 7221, Note_off_c, 5, 63, 0
1, 7221, Note_off_c, 5, 60, 0
1, 7221, Note_off_c, 6, 46, 0
1, 7224, Note_on_c, 3, 46, 96
1, 7224, Note_on_c, 4, 34, 96
1, 7224, Note_on_c, 6, 46, 96
1, 7245, Note_off_c, 3, 46, 0
1, 7245, Note_off_c, 4, 34, 0
1, 7245, Note_off_c, 6, 46, 0
1, 7248, Note_on_c, 0, 62, 96
1, 7248, Note_on_c, 1, 58, 96
1, 7248, Note_on_c, 2, 53, 96
1, 7248, Note_on_c, 3, 46, 96
1, 7248, Note_on_c, 4, 34, 96
1, 7248, Note_on_c, 5, 62, 96
1, 7248, Note_on_c, 5, 58, 96
1, 7248, Note_on_c, 6, 46, 96
1, 7269, Note_off_c, 0, 62, 0
1, 7269, Note_off_c, 1, 58, 0
1, 7269, Note_off_c, 2, 53, 0
1, 7269, Note_off_c, 3, 46, 0
1, 7269, Note_off_c, 4, 34, 0
1, 7269, Note_off_c, 5, 62, 0
1, 7269, Note_off_c, 5, 58, 0
1, 7269, Note_off_c, 6, 46, 0
1, 7272, Note_on_c, 3, 58, 96
1, 7272, Note_on_c, 4, 46, 96
1, 7272, Note_on_c, 6, 58, 96
1, 7284, Note_off_c, 3, 58, 0
1, 7284, Note_on_c, 3, 60, 96
1, 7284, Note_off_c, 4, 46, 0
1, 7284, Note_on_c, 4, 48, 96
1, 7284, Note_off_c, 6, 58, 0
1, 7284, Note_on_c, 6, 60, 96
1, 7290, Note_off_c, 3, 60, 0
1, 7290, Note_on_c, 3, 62, 96
1, 7290, Note_off_c, 4, 48, 0
1, 7290, Note_on_c, 4, 50, 96
1, 7290, Note_off_c, 6, 60, 0
1, 7290, Note_on_c, 6, 62, 96
1, 7295, Note_off_c, 3, 62, 0
1, 7295, Note_off_c, 4, 50, 0
1, 7295, Note_off_c, 6, 62, 0
1, 7296, Note_on_c, 0, 67, 80
1, 7296, Note_on_c, 1, 58, 80
1, 7296, Note_on_c, 2, 51, 80
1, 7296, Note_on_c, 3, 51, 80
1, 7296, Note_on_c, 4, 39, 80
1, 7296, Note_on_c, 5, 67, 96
1, 7296, Note_on_c, 6, 51, 96
1, 7317, Note_off_c, 0, 67, 0
1, 7317, Note_off_c, 1, 58, 0
1, 7317, Note_off_c, 2, 51, 0
1, 7317, Note_off_c, 6, 51, 0
1, 7320, Note_on_c, 2, 51, 80
1, 7320, Note_on_c, 6, 51, 96
1, 7338, Note_off_c, 3, 51, 0
1, 7338, Note_off_c, 4, 39, 0
1, 7341, Note_off_c, 2, 51, 0
1, 7341, Note_off_c, 6, 51, 0
1, 7344, Note_on_c, 0, 72, 80
1, 7344, Note_on_c, 1, 67, 80
1, 7344, Note_on_c, 2, 63, 80
1, 7344, Note_on_c, 6, 51, 96
1, 7345, Note_off_c, 5, 67, 0
1, 7352, Note_on_c, 5, 63, 96
1, 7359, Note_off_c, 5, 63, 0
1, 7360, Note_on_c, 5, 62, 96
1, 7365, Note_off_c, 0, 72, 0
1, 7365, Note_off_c, 1, 67, 0
1, 7365, Note_off_c, 2, 63, 0
1, 7365, Note_off_c, 6, 51, 0
1, 7367, Note_off_c, 5, 62, 0
1, 7368, Note_on_c, 2, 63, 80
1, 7368, Note_on_c, 5, 63, 96
1, 7368, Note_on_c, 6, 51, 96
1, 7375, Note_off_c, 5, 63, 0
1, 7376, Note_on_c, 5, 67, 96
1, 7383, Note_off_c, 5, 67, 0
1, 7384, Note_on_c, 5, 72, 96
1, 7389, Note_off_c, 2, 63, 0
1, 7389, Note_off_c, 6, 51, 0
1, 7391, Note_off_c, 5, 72, 0
1, 7392, Note_on_c, 0, 65, 80
1, 7392, Note_on_c, 1, 69, 80
1, 7392, Note_on_c, 2, 62, 80
1, 7392, Note_on_c, 5, 72, 96
1, 7392, Note_on_c, 6, 50, 96
1, 7413, Note_off_c, 0, 65, 0
1, 7413, Note_off_c, 1, 69, 0
1, 7413, Note_off_c, 2, 62, 0
1, 7413, Note_off_c, 5, 72, 0
1, 7413, Note_off_c, 6, 50, 0
1, 7416, Note_on_c, 2, 62, 80
1, 7416, Note_on_c, 5, 67, 96
1, 7416, Note_on_c, 6, 50, 96
1, 7419, Note_off_c, 5, 67, 0
1, 7419, Note_on_c, 5, 65, 96
1, 7422, Note_off_c, 5, 65, 0
1, 7422, Note_on_c, 5, 67, 96
1, 7425, Note_off_c, 5, 67, 0
1, 7425, Note_on_c, 5, 65, 96
1, 7428, Note_off_c, 5, 65, 0
1, 7428, Note_on_c, 5, 67, 96
1, 7431, Note_off_c, 5, 67, 0
1, 7431, Note_on_c, 5, 65, 96
1, 7434, Note_off_c, 5, 65, 0
1, 7434, Note_on_c, 5, 67, 96
1, 7437, Note_off_c, 2, 62, 0
1, 7437, Note_off_c, 5, 67, 0
1, 7437, Note_on_c, 5, 65, 96
1, 7437, Note_off_c, 6, 50, 0
1, 7440, Note_on_c, 0, 70, 80
1, 7440, Note_on_c, 1, 65, 80
1, 7440, Note_on_c, 2, 62, 80
1, 7440, Note_on_c, 6, 50, 96
1, 7447, Note_off_c, 5, 65, 0
1, 7448, Note_on_c, 5, 62, 96
1, 7455, Note_off_c, 5, 62, 0
1, 7456, Note_on_c, 5, 60, 96
1, 7461, Note_off_c, 0, 70, 0
1, 7461, Note_off_c, 1, 65, 0
1, 7461, Note_off_c, 2, 62, 0
1, 7461, Note_off_c, 6, 50, 0
1, 7463, Note_off_c, 5, 60, 0
1, 7464, Note_on_c, 2, 62, 80
1, 7464, Note_on_c, 5, 62, 96
1, 7464, Note_on_c, 6, 50, 96
1, 7471, Note_off_c, 5, 62, 0
1, 7472, Note_on_c, 5, 65, 96
1, 7479, Note_off_c, 5, 65, 0
1, 7480, Note_on_c, 5, 70, 96
1, 7485, Note_off_c, 2, 62, 0
1, 7485, Note_off_c, 6, 50, 0
1, 7487, Note_off_c, 5, 70, 0
1, 7488, Note_on_c, 0, 63, 80
1, 7488, Note_on_c, 1, 67, 80
1, 7488, Note_on_c, 2, 60, 80
1, 7488, Note_on_c, 5, 70, 96
1, 7488, Note_on_c, 6, 48, 96
1, 7495, Note_off_c, 5, 70, 0
1, 7496, Note_on_c, 5, 69, 96
1, 7503, Note_off_c, 5, 69, 0
1, 7504, Note_on_c, 5, 67, 96
1, 7509, Note_off_c, 0, 63, 0
1, 7509, Note_off_c, 1, 67, 0
1, 7509, Note_off_c, 2, 60, 0
1, 7509, Note_off_c, 6, 48, 0
1, 7511, Note_off_c, 5, 67, 0
1, 7512, Note_on_c, 2, 60, 80
1, 7512, Note_on_c, 5, 69, 96
1, 7512, Note_on_c, 6, 48, 96
1, 7519, Note_off_c, 5, 69, 0
1, 7520, Note_on_c, 5, 72, 96
1, 7527, Note_off_c, 5, 72, 0
1, 7528, Note_on_c, 5, 75, 96
1, 7533, Note_off_c, 2, 60, 0
1, 7533, Note_off_c, 6, 48, 0
1, 7535, Note_off_c, 5, 75, 0
1, 7536, Note_on_c, 0, 67, 80
1, 7536, Note_on_c, 1, 60, 80
1, 7536, Note_on_c, 2, 58, 80
1, 7536, Note_on_c, 5, 75, 96
1, 7536, Note_on_c, 6, 46, 96
1, 7543, Note_off_c, 5, 75, 0
1, 7544, Note_on_c, 5, 74, 96
1, 7551, Note_off_c, 5, 74, 0
1, 7552, Note_on_c, 5, 72, 96
1, 7557, Note_off_c, 0, 67, 0
1, 7557, Note_off_c, 1, 60, 0
1, 7557, Note_off_c, 2, 58, 0
1, 7557, Note_off_c, 6, 46, 0
1, 7559, Note_off_c, 5, 72, 0
1, 7560, Note_on_c, 2, 58, 80
1, 7560, Note_on_c, 5, 70, 96
1, 7560, Note_on_c, 6, 46, 96
1, 7567, Note_off_c, 5, 70, 0
1, 7568, Note_on_c, 5, 69, 96
1, 7575, Note_off_c, 5, 69, 0
1, 7576, Note_on_c, 5, 67, 96
1, 7581, Note_off_c, 2, 58, 0
1, 7581, Note_off_c, 6, 46, 0
1, 7583, Note_off_c, 5, 67, 0
1, 7584, Note_on_c, 0, 72, 80
1, 7584, Note_on_c, 1, 60, 80
1, 7584, Note_on_c, 2, 57, 80
1, 7584, Note_on_c, 5, 65, 96
1, 7584, Note_on_c, 6, 45, 96
1, 7605, Note_off_c, 0, 72, 0
1, 7605, Note_off_c, 1, 60, 0
1, 7605, Note_off_c, 2, 57, 0
1, 7605, Note_off_c, 6, 45, 0
1, 7608, Note_on_c, 2, 57, 80
1, 7608, Note_on_c, 6, 45, 96
1, 7629, Note_off_c, 2, 57, 0
1, 7629, Note_off_c, 6, 45, 0
1, 7632, Note_on_c, 0, 69, 80
1, 7632, Note_on_c, 1, 60, 80
1, 7632, Note_on_c, 2, 53, 80
1, 7632, Note_on_c, 6, 53, 96
1, 7633, Note_off_c, 5, 65, 0
1, 7640, Note_on_c, 5, 69, 96
1, 7647, Note_off_c, 5, 69, 0
1, 7648, Note_on_c, 5, 72, 96
1, 7653, Note_off_c, 0, 69, 0
1, 7653, Note_off_c, 1, 60, 0
1, 7653, Note_off_c, 2, 53, 0
1, 7653, Note_off_c, 6, 53, 0
1, 7655, Note_off_c, 5, 72, 0
1, 7656, Note_on_c, 2, 53, 80
1, 7656, Note_on_c, 5, 75, 96
1, 7656, Note_on_c, 6, 53, 96
1, 7663, Note_off_c, 5, 75, 0
1, 7664, Note_on_c, 5, 73, 96
1, 7671, Note_off_c, 5, 73, 0
1, 7672, Note_on_c, 5, 72, 96
1, 7677, Note_off_c, 2, 53, 0
1, 7677, Note_off_c, 6, 53, 0
1, 7679, Note_off_c, 5, 72, 0
1, 7680, Note_on_c, 0, 70, 80
1, 7680, Note_on_c, 1, 55, 80
1, 7680, Note_on_c, 2, 52, 80
1, 7680, Note_on_c, 5, 73, 96
1, 7680, Note_on_c, 6, 52, 96
1, 7701, Note_off_c, 0, 70, 0
1, 7701, Note_off_c, 1, 55, 0
1, 7701, Note_off_c, 2, 52, 0
1, 7701, Note_off_c, 6, 52, 0
1, 7704, Note_on_c, 2, 52, 80
1, 7704, Note_on_c, 6, 52, 96
1, 7725, Note_off_c, 2, 52, 0
1, 7725, Note_off_c, 6, 52, 0
1, 7728, Note_on_c, 0, 66, 80
1, 7728, Note_on_c, 1, 63, 80
1, 7728, Note_on_c, 2, 51, 80
1, 7728, Note_on_c, 6, 51, 96
1, 7729, Note_off_c, 5, 73, 0
1, 7736, Note_on_c, 5, 72, 96
1, 7743, Note_off_c, 5, 72, 0
1, 7744, Note_on_c, 5, 70, 96
1, 7749, Note_off_c, 0, 66, 0
1, 7749, Note_off_c, 1, 63, 0
1, 7749, Note_off_c, 2, 51, 0
1, 7749, Note_off_c, 6, 51, 0
1, 7751, Note_off_c, 5, 70, 0
1, 7752, Note_on_c, 2, 51, 80
1, 7752, Note_on_c, 5, 71, 96
1, 7752, Note_on_c, 6, 51, 96
1, 7773, Note_off_c, 2, 51, 0
1, 7773, Note_off_c, 6, 51, 0
1, 7776, Note_on_c, 0, 65, 80
1, 7776, Note_on_c, 1, 65, 80
1, 7776, Note_on_c, 2, 50, 80
1, 7776, Note_on_c, 6, 50, 96
1, 7780, Note_off_c, 5, 71, 0
1, 7784, Note_on_c, 5, 70, 96
1, 7791, Note_off_c, 5, 70, 0
1, 7792, Note_on_c, 5, 69, 96
1, 7797, Note_off_c, 0, 65, 0
1, 7797, Note_off_c, 1, 65, 0
1, 7797, Note_off_c, 2, 50, 0
1, 7797, Note_off_c, 6, 50, 0
1, 7799, Note_off_c, 5, 69, 0
1, 7800, Note_on_c, 2, 50, 80
1, 7800, Note_on_c, 5, 70, 96
1, 7800, Note_on_c, 6, 50, 96
1, 7821, Note_off_c, 2, 50, 0
1, 7821, Note_off_c, 6, 50, 0
1, 7824, Note_on_c, 0, 70, 80
1, 7824, Note_on_c, 1, 65, 80
1, 7824, Note_on_c, 2, 61, 80
1, 7824, Note_on_c, 6, 49, 96
1, 7828, Note_off_c, 5, 70, 0
1, 7832, Note_on_c, 5, 68, 96
1, 7839, Note_off_c, 5, 68, 0
1, 7840, Note_on_c, 5, 66, 96
1, 7845, Note_off_c, 0, 70, 0
1, 7845, Note_off_c, 1, 65, 0
1, 7845, Note_off_c, 2, 61, 0
1, 7845, Note_off_c, 6, 49, 0
1, 7847, Note_off_c, 5, 66, 0
1, 7848, Note_on_c, 2, 61, 80
1, 7848, Note_on_c, 5, 65, 96
1, 7848, Note_on_c, 6, 49, 96
1, 7855, Note_off_c, 5, 65, 0
1, 7856, Note_on_c, 5, 64, 96
1, 7863, Note_off_c, 5, 64, 0
1, 7864, Note_on_c, 5, 65, 96
1, 7869, Note_off_c, 2, 61, 0
1, 7869, Note_off_c, 6, 49, 0
1, 7871, Note_off_c, 5, 65, 0
1, 7872, Note_on_c, 0, 69, 80
1, 7872, Note_on_c, 1, 65, 80
1, 7872, Note_on_c, 2, 60, 80
1, 7872, Note_on_c, 5, 75, 96
1, 7872, Note_on_c, 6, 48, 96
1, 7879, Note_off_c, 5, 75, 0
1, 7880, Note_on_c, 5, 74, 96
1, 7887, Note_off_c, 5, 74, 0
1, 7888, Note_on_c, 5, 72, 96
1, 7893, Note_off_c, 0, 69, 0
1, 7893, Note_off_c, 1, 65, 0
1, 7893, Note_off_c, 2, 60, 0
1, 7893, Note_off_c, 6, 48, 0
1, 7895, Note_off_c, 5, 72, 0
1, 7896, Note_on_c, 0, 70, 80
1, 7896, Note_on_c, 1, 65, 80
1, 7896, Note_on_c, 2, 58, 80
1, 7896, Note_on_c, 5, 77, 96
1, 7896, Note_on_c, 6, 46, 96
1, 7912, Note_off_c, 5, 77, 0
1, 7914, Note_on_c, 5, 70, 96
1, 7917, Note_off_c, 0, 70, 0
1, 7917, Note_off_c, 1, 65, 0
1, 7917, Note_off_c, 2, 58, 0
1, 7917, Note_off_c, 6, 46, 0
1, 7919, Note_off_c, 5, 70, 0
1, 7920, Note_on_c, 0, 70, 80
1, 7920, Note_on_c, 1, 65, 80
1, 7920, Note_on_c, 2, 65, 80
1, 7920, Note_on_c, 5, 72, 96
1, 7920, Note_on_c, 6, 53, 96
1, 7941, Note_off_c, 0, 70, 0
1, 7941, Note_off_c, 1, 65, 0
1, 7941, Note_off_c, 2, 65, 0
1, 7941, Note_off_c, 6, 53, 0
1, 7944, Note_on_c, 0, 69, 80
1, 7944, Note_on_c, 1, 63, 80
1, 7944, Note_on_c, 2, 53, 80
1, 7944, Note_on_c, 6, 41, 96
1, 7951, Note_off_c, 5, 72, 0
1, 7956, Note_on_c, 5, 70, 96
1, 7965, Note_off_c, 0, 69, 0
1, 7965, Note_off_c, 1, 63, 0
1, 7965, Note_off_c, 2, 53, 0
1, 7965, Note_off_c, 6, 41, 0
1, 7966, Note_off_c, 5, 70, 0
1, 7968, Note_on_c, 0, 70, 80
1, 7968, Note_on_c, 1, 62, 80
1, 7968, Note_on_c, 2, 58, 80
1, 7968, Note_on_c, 5, 70, 96
1, 7968, Note_on_c, 6, 46, 96
1, 7978, Note_off_c, 6, 46, 0
1, 7980, Note_on_c, 3, 58, 80
1, 7980, Note_on_c, 4, 46, 80
1, 7980, Note_on_c, 6, 58, 96
1, 7989, Note_off_c, 0, 70, 0
1, 7989, Note_off_c, 1, 62, 0
1, 7989, Note_off_c, 2, 58, 0
1, 7990, Note_off_c, 6, 58, 0
1, 7992, Note_on_c, 0, 65, 80
1, 7992, Note_on_c, 1, 62, 80
1, 7992, Note_on_c, 2, 58, 80
1, 7992, Note_off_c, 3, 58, 0
1, 7992, Note_on_c, 3, 57, 80
1, 7992, Note_off_c, 4, 46, 0
1, 7992, Note_on_c, 4, 45, 80
1, 7992, Note_on_c, 6, 57, 96
1, 8002, Note_off_c, 6, 57, 0
1, 8004, Note_off_c, 3, 57, 0
1, 8004, Note_on_c, 3, 55, 80
1, 8004, Note_off_c, 4, 45, 0
1, 8004, Note_on_c, 4, 43, 80
1, 8004, Note_on_c, 6, 55, 96
1, 8010, Note_off_c, 5, 70, 0
1, 8013, Note_off_c, 0, 65, 0
1, 8013, Note_off_c, 1, 62, 0
1, 8013, Note_off_c, 2, 58, 0
1, 8014, Note_off_c, 3, 55, 0
1, 8014, Note_off_c, 4, 43, 0
1, 8014, Note_off_c, 6, 55, 0
1, 8016, Note_on_c, 0, 70, 80
1, 8016, Note_on_c, 1, 65, 80
1, 8016, Note_on_c, 2, 62, 80
1, 8016, Note_on_c, 3, 53, 80
1, 8016, Note_on_c, 4, 41, 80
1, 8016, Note_on_c, 6, 53, 96
1, 8026, Note_off_c, 6, 53, 0
1, 8028, Note_off_c, 3, 53, 0
1, 8028, Note_on_c, 3, 51, 80
1, 8028, Note_off_c, 4, 41, 0
1, 8028, Note_on_c, 4, 39, 80
1, 8028, Note_on_c, 6, 51, 96
1, 8037, Note_off_c, 0, 70, 0
1, 8037, Note_off_c, 1, 65, 0
1, 8037, Note_off_c, 2, 62, 0
1, 8038, Note_off_c, 3, 51, 0
1, 8038, Note_off_c, 4, 39, 0
1, 8038, Note_off_c, 6, 51, 0
1, 8040, Note_on_c, 0, 72, 80
1, 8040, Note_on_c, 1, 69, 80
1, 8040, Note_on_c, 2, 63, 80
1, 8040, Note_on_c, 3, 50, 80
1, 8040, Note_on_c, 4, 38, 80
1, 8040, Note_on_c, 6, 50, 96
1, 8050, Note_off_c, 6, 50, 0
1, 8052, Note_off_c, 0, 72, 0
1, 8052, Note_on_c, 0, 74, 80
1, 8052, Note_off_c, 1, 69, 0
1, 8052, Note_on_c, 1, 70, 80
1, 8052, Note_off_c, 3, 50, 0
1, 8052, Note_on_c, 3, 48, 80
1, 8052, Note_off_c, 4, 38, 0
1, 8052, Note_on_c, 4, 36, 80
1, 8052, Note_on_c, 6, 48, 96
1, 8058, Note_off_c, 0, 74, 0
1, 8058, Note_on_c, 0, 75, 80
1, 8058, Note_off_c, 1, 70, 0
1, 8058, Note_on_c, 1, 72, 80
1, 8061, Note_off_c, 2, 63, 0
1, 8062, Note_off_c, 3, 48, 0
1, 8062, Note_off_c, 4, 36, 0
1, 8062, Note_off_c, 6, 48, 0
1, 8063, Note_off_c, 0, 75, 0
1, 8063, Note_off_c, 1, 72, 0
1, 8064, Note_on_c, 0, 74, 96
1, 8064, Note_on_c, 1, 65, 96
1, 8064, Note_on_c, 2, 65, 96
1, 8064, Note_on_c, 3, 46, 96
1, 8064, Note_on_c, 4, 34, 96
1, 8064, Note_on_c, 5, 74, 96
1, 8064, Note_on_c, 5, 70, 96
1, 8064, Note_on_c, 5, 65, 96
1, 8064, Note_on_c, 6, 46, 96
1, 8085, Note_off_c, 0, 74, 0
1, 8085, Note_off_c, 1, 65, 0
1, 8085, Note_off_c, 2, 65, 0
1, 8085, Note_off_c, 3, 46, 0
1, 8085, Note_off_c, 4, 34, 0
1, 8085, Note_off_c, 5, 74, 0
1, 8085, Note_off_c, 5, 70, 0
1, 8085, Note_off_c, 5, 65, 0
1, 8085, Note_off_c, 6, 46, 0
1, 8088, Note_on_c, 3, 46, 96
1, 8088, Note_on_c, 4, 34, 96
1, 8088, Note_on_c, 6, 46, 96
1, 8109, Note_off_c, 3, 46, 0
1, 8109, Note_off_c, 4, 34, 0
1, 8109, Note_off_c, 6, 46, 0
1, 8112, Note_on_c, 0, 77, 96
1, 8112, Note_on_c, 1, 68, 96
1, 8112, Note_on_c, 2, 62, 96
1, 8112, Note_on_c, 3, 46, 96
1, 8112, Note_on_c, 4, 34, 96
1, 8112, Note_on_c, 5, 77, 96
1, 8112, Note_on_c, 5, 74, 96
1, 8112, Note_on_c, 5, 68, 96
1, 8112, Note_on_c, 6, 46, 96
1, 8133, Note_off_c, 0, 77, 0
1, 8133, Note_off_c, 1, 68, 0
1, 8133, Note_off_c, 2, 62, 0
1, 8133, Note_off_c, 3, 46, 0
1, 8133, Note_off_c, 4, 34, 0
1, 8133, Note_off_c, 5, 77, 0
1, 8133, Note_off_c, 5, 74, 0
1, 8133, Note_off_c, 5, 68, 0
1, 8133, Note_off_c, 6, 46, 0
1, 8136, Note_on_c, 3, 50, 96
1, 8136, Note_on_c, 4, 38, 96
1, 8136, Note_on_c, 6, 50, 96
1, 8148, Note_off_c, 3, 50, 0
1, 8148, Note_on_c, 3, 51, 96
1, 8148, Note_off_c, 4, 38, 0
1, 8148, Note_on_c, 4, 39, 96
1, 8148, Note_off_c, 6, 50, 0
1, 8148, Note_on_c, 6, 51, 96
1, 8154, Note_off_c, 3, 51, 0
1, 8154, Note_on_c, 3, 53, 96
1, 8154, Note_off_c, 4, 39, 0
1, 8154, Note_on_c, 4, 41, 96
1, 8154, Note_off_c, 6, 51, 0
1, 8154, Note_on_c, 6, 53, 96
1, 8159, Note_off_c, 3, 53, 0
1, 8159, Note_off_c, 4, 41, 0
1, 8159, Note_off_c, 6, 53, 0
1, 8160, Note_on_c, 0, 77, 96
1, 8160, Note_on_c, 1, 67, 96
1, 8160, Note_on_c, 2, 58, 96
1, 8160, Note_on_c, 3, 46, 96
1, 8160, Note_on_c, 4, 34, 96
1, 8160, Note_on_c, 5, 77, 96
1, 8160, Note_on_c, 5, 70, 96
1, 8160, Note_on_c, 5, 67, 96
1, 8160, Note_on_c, 6, 46, 96
1, 8181, Note_off_c, 0, 77, 0
1, 8181, Note_off_c, 1, 67, 0
1, 8181, Note_off_c, 2, 58, 0
1, 8181, Note_off_c, 3, 46, 0
1, 8181, Note_off_c, 4, 34, 0
1, 8181, Note_off_c, 5, 77, 0
1, 8181, Note_off_c, 5, 70, 0
1, 8181, Note_off_c, 5, 67, 0
1, 8181, Note_off_c, 6, 46, 0
1, 8184, Note_on_c, 3, 46, 96
1, 8184, Note_on_c, 4, 34, 96
1, 8184, Note_on_c, 6, 46, 96
1, 8205, Note_off_c, 3, 46, 0
1, 8205, Note_off_c, 4, 34, 0
1, 8205, Note_off_c, 6, 46, 0
1, 8208, Note_on_c, 0, 75, 96
1, 8208, Note_on_c, 1, 67, 96
1, 8208, Note_on_c, 2, 58, 96
1, 8208, Note_on_c, 3, 46, 96
1, 8208, Note_on_c, 4, 34, 96
1, 8208, Note_on_c, 5, 75, 96
1, 8208, Note_on_c, 5, 70, 96
1, 8208, Note_on_c, 5, 67, 96
1, 8208, Note_on_c, 6, 46, 96
1, 8229, Note_off_c, 0, 75, 0
1, 8229, Note_off_c, 1, 67, 0
1, 8229, Note_off_c, 2, 58, 0
1, 8229, Note_off_c, 3, 46, 0
1, 8229, Note_off_c, 4, 34, 0
1, 8229, Note_off_c, 5, 75, 0
1, 8229, Note_off_c, 5, 70, 0
1, 8229, Note_off_c, 5, 67, 0
1, 8229, Note_off_c, 6, 46, 0
1, 8232, Note_on_c, 3, 51, 96
1, 8232, Note_on_c, 4, 39, 96
1, 8232, Note_on_c, 6, 51, 96
1, 8244, Note_off_c, 3, 51, 0
1, 8244, Note_on_c, 3, 53, 96
1, 8244, Note_off_c, 4, 39, 0
1, 8244, Note_on_c, 4, 41, 96
1, 8244, Note_off_c, 6, 51, 0
1, 8244, Note_on_c, 6, 53, 96
1, 8250, Note_off_c, 3, 53, 0
1, 8250, Note_on_c, 3, 55, 96
1, 8250, Note_off_c, 4, 41, 0
1, 8250, Note_on_c, 4, 43, 96
1, 8250, Note_off_c, 6, 53, 0
1, 8250, Note_on_c, 6, 55, 96
1, 8255, Note_off_c, 3, 55, 0
1, 8255, Note_off_c, 4, 43, 0
1, 8255, Note_off_c, 6, 55, 0
1, 8256, Note_on_c, 0, 72, 96
1, 8256, Note_on_c, 1, 69, 96
1, 8256, Note_on_c, 2, 63, 96
1, 8256, Note_on_c, 3, 46, 96
1, 8256, Note_on_c, 4, 34, 96
1, 8256, Note_on_c, 5, 72, 96
1, 8256, Note_on_c, 5, 69, 96
1, 8256, Note_on_c, 5, 63, 96
1, 8256, Note_on_c, 6, 46, 96
1, 8277, Note_off_c, 0, 72, 0
1, 8277, Note_off_c, 1, 69, 0
1, 8277, Note_off_c, 2, 63, 0
1, 8277, Note_off_c, 3, 46, 0
1, 8277, Note_off_c, 4, 34, 0
1, 8277, Note_off_c, 5, 72, 0
1, 8277, Note_off_c, 5, 69, 0
1, 8277, Note_off_c, 5, 63, 0
1, 8277, Note_off_c, 6, 46, 0
1, 8280, Note_on_c, 3, 46, 96
1, 8280, Note_on_c, 4, 34, 96
1, 8280, Note_on_c, 6, 46, 96
1, 8301, Note_off_c, 3, 46, 0
1, 8301, Note_off_c, 4, 34, 0
1, 8301, Note_off_c, 6, 46, 0
1, 8304, Note_on_c, 0, 75, 96
1, 8304, Note_on_c, 1, 72, 96
1, 8304, Note_on_c, 2, 57, 96
1, 8304, Note_on_c, 3, 46, 96
1, 8304, Note_on_c, 4, 34, 96
1, 8304, Note_on_c, 5, 75, 96
1, 8304, Note_on_c, 5, 72, 96
1, 8304, Note_on_c, 5, 69, 96
1, 8304, Note_on_c, 5, 65, 96
1, 8304, Note_on_c, 6, 46, 96
1, 8325, Note_off_c, 0, 75, 0
1, 8325, Note_off_c, 1, 72, 0
1, 8325, Note_off_c, 2, 57, 0
1, 8325, Note_off_c, 3, 46, 0
1, 8325, Note_off_c, 4, 34, 0
1, 8325, Note_off_c, 5, 75, 0
1, 8325, Note_off_c, 5, 72, 0
1, 8325, Note_off_c, 5, 69, 0
1, 8325, Note_off_c, 5, 65, 0
1, 8325, Note_off_c, 6, 46, 0
1, 8328, Note_on_c, 3, 57, 96
1, 8328, Note_on_c, 4, 45, 96
1, 8328, Note_on_c, 6, 57, 96
1, 8340, Note_off_c, 3, 57, 0
1, 8340, Note_on_c, 3, 58, 96
1, 8340, Note_off_c, 4, 45, 0
1, 8340, Note_on_c, 4, 46, 96
1, 8340, Note_off_c, 6, 57, 0
1, 8340, Note_on_c, 6, 58, 96
1, 8346, Note_off_c, 3, 58, 0
1, 8346, Note_on_c, 3, 60, 96
1, 8346, Note_off_c, 4, 46, 0
1, 8346, Note_on_c, 4, 48, 96
1, 8346, Note_off_c, 6, 58, 0
1, 8346, Note_on_c, 6, 60, 96
1, 8351, Note_off_c, 3, 60, 0
1, 8351, Note_off_c, 4, 48, 0
1, 8351, Note_off_c, 6, 60, 0
1, 8352, Note_on_c, 0, 75, 96
1, 8352, Note_on_c, 1, 72, 96
1, 8352, Note_on_c, 2, 53, 96
1, 8352, Note_on_c, 3, 46, 96
1, 8352, Note_on_c, 4, 34, 96
1, 8352, Note_on_c, 5, 75, 96
1, 8352, Note_on_c, 5, 72, 96
1, 8352, Note_on_c, 6, 46, 96
1, 8359, Note_off_c, 5, 72, 0
1, 8360, Note_on_c, 5, 65, 96
1, 8367, Note_off_c, 5, 65, 0
1, 8368, Note_on_c, 5, 67, 96
1, 8373, Note_off_c, 0, 75, 0
1, 8373, Note_off_c, 1, 72, 0
1, 8373, Note_off_c, 2, 53, 0
1, 8373, Note_off_c, 3, 46, 0
1, 8373, Note_off_c, 4, 34, 0
1, 8373, Note_off_c, 5, 75, 0
1, 8373, Note_off_c, 6, 46, 0
1, 8375, Note_off_c, 5, 67, 0
1, 8376, Note_on_c, 3, 46, 96
1, 8376, Note_on_c, 4, 34, 96
1, 8376, Note_on_c, 5, 69, 96
1, 8376, Note_on_c, 6, 46, 96
1, 8383, Note_off_c, 5, 69, 0
1, 8384, Note_on_c, 5, 70, 96
1, 8391, Note_off_c, 5, 70, 0
1, 8392, Note_on_c, 5, 72, 96
1, 8397, Note_off_c, 3, 46, 0
1, 8397, Note_off_c, 4, 34, 0
1, 8397, Note_off_c, 6, 46, 0
1, 8399, Note_off_c, 5, 72, 0
1, 8400, Note_on_c, 0, 74, 96
1, 8400, Note_on_c, 1, 70, 96
1, 8400, Note_on_c, 2, 65, 96
1, 8400, Note_on_c, 3, 46, 96
1, 8400, Note_on_c, 4, 34, 96
1, 8400, Note_on_c, 5, 74, 96
1, 8400, Note_on_c, 6, 46, 96
1, 8407, Note_off_c, 5, 74, 0
1, 8408, Note_on_c, 5, 70, 96
1, 8415, Note_off_c, 5, 70, 0
1, 8416, Note_on_c, 5, 72, 96
1, 8421, Note_off_c, 0, 74, 0
1, 8421, Note_off_c, 1, 70, 0
1, 8421, Note_off_c, 2, 65, 0
1, 8421, Note_off_c, 3, 46, 0
1, 8421, Note_off_c, 4, 34, 0
1, 8421, Note_off_c, 6, 46, 0
1, 8423, Note_off_c, 5, 72, 0
1, 8424, Note_on_c, 3, 58, 96
1, 8424, Note_on_c, 4, 46, 96
1, 8424, Note_on_c, 5, 74, 96
1, 8424, Note_on_c, 6, 58, 96
1, 8431, Note_off_c, 5, 74, 0
1, 8432, Note_on_c, 5, 75, 96
1, 8436, Note_off_c, 3, 58, 0
1, 8436, Note_on_c, 3, 60, 96
1, 8436, Note_off_c, 4, 46, 0
1, 8436, Note_on_c, 4, 48, 96
1, 8436, Note_off_c, 6, 58, 0
1, 8436, Note_on_c, 6, 60, 96
1, 8439, Note_off_c, 5, 75, 0
1, 8440, Note_on_c, 5, 77, 96
1, 8442, Note_off_c, 3, 60, 0
1, 8442, Note_on_c, 3, 62, 96
1, 8442, Note_off_c, 4, 48, 0
1, 8442, Note_on_c, 4, 50, 96
1, 8442, Note_off_c, 6, 60, 0
1, 8442, Note_on_c, 6, 62, 96
1, 8447, Note_off_c, 3, 62, 0
1, 8447, Note_off_c, 4, 50, 0
1, 8447, Note_off_c, 5, 77, 0
1, 8447, Note_off_c, 6, 62, 0
1, 8448, Note_on_c, 0, 74, 96
1, 8448, Note_on_c, 1, 70, 96
1, 8448, Note_on_c, 2, 63, 96
1, 8448, Note_on_c, 3, 51, 96
1, 8448, Note_on_c, 4, 39, 96
1, 8448, Note_on_c, 5, 79, 96
1, 8448, Note_on_c, 6, 51, 96
1, 8455, Note_off_c, 5, 79, 0
1, 8456, Note_on_c, 5, 75, 96
1, 8463, Note_off_c, 5, 75, 0
1, 8464, Note_on_c, 5, 77, 96
1, 8469, Note_off_c, 0, 74, 0
1, 8469, Note_off_c, 1, 70, 0
1, 8469, Note_off_c, 2, 63, 0
1, 8469, Note_off_c, 3, 51, 0
1, 8469, Note_off_c, 4, 39, 0
1, 8469, Note_off_c, 6, 51, 0
1, 8471, Note_off_c, 5, 77, 0
1, 8472, Note_on_c, 3, 51, 96
1, 8472, Note_on_c, 4, 39, 96
1, 8472, Note_on_c, 5, 79, 96
1, 8472, Note_on_c, 6, 51, 96
1, 8479, Note_off_c, 5, 79, 0
1, 8480, Note_on_c, 5, 81, 96
1, 8487, Note_off_c, 5, 81, 0
1, 8488, Note_on_c, 5, 82, 96
1, 8493, Note_off_c, 3, 51, 0
1, 8493, Note_off_c, 4, 39, 0
1, 8493, Note_off_c, 6, 51, 0
1, 8495, Note_off_c, 5, 82, 0
1, 8496, Note_on_c, 0, 72, 96
1, 8496, Note_on_c, 1, 67, 96
1, 8496, Note_on_c, 2, 67, 96
1, 8496, Note_on_c, 3, 51, 96
1, 8496, Note_on_c, 4, 39, 96
1, 8496, Note_on_c, 5, 84, 96
1, 8496, Note_on_c, 6, 51, 96
1, 8503, Note_off_c, 5, 84, 0
1, 8504, Note_on_c, 5, 82, 96
1, 8511, Note_off_c, 5, 82, 0
1, 8512, Note_on_c, 5, 81, 96
1, 8517, Note_off_c, 0, 72, 0
1, 8517, Note_off_c, 1, 67, 0
1, 8517, Note_off_c, 2, 67, 0
1, 8517, Note_off_c, 3, 51, 0
1, 8517, Note_off_c, 4, 39, 0
1, 8517, Note_off_c, 6, 51, 0
1, 8519, Note_off_c, 5, 81, 0
1, 8520, Note_on_c, 3, 57, 96
1, 8520, Note_on_c, 4, 45, 96
1, 8520, Note_on_c, 5, 79, 96
1, 8520, Note_on_c, 6, 57, 96
1, 8527, Note_off_c, 5, 79, 0
1, 8528, Note_on_c, 5, 77, 96
1, 8532, Note_off_c, 3, 57, 0
1, 8532, Note_on_c, 3, 58, 96
1, 8532, Note_off_c, 4, 45, 0
1, 8532, Note_on_c, 4, 46, 96
1, 8532, Note_off_c, 6, 57, 0
1, 8532, Note_on_c, 6, 58, 96
1, 8535, Note_off_c, 5, 77, 0
1, 8536, Note_on_c, 5, 75, 96
1, 8538, Note_off_c, 3, 58, 0
1, 8538, Note_on_c, 3, 60, 96
1, 8538, Note_off_c, 4, 46, 0
1, 8538, Note_on_c, 4, 48, 96
1, 8538, Note_off_c, 6, 58, 0
1, 8538, Note_on_c, 6, 60, 96
1, 8543, Note_off_c, 3, 60, 0
1, 8543, Note_off_c, 4, 48, 0
1, 8543, Note_off_c, 5, 75, 0
1, 8543, Note_off_c, 6, 60, 0
1, 8544, Note_on_c, 0, 72, 96
1, 8544, Note_on_c, 1, 69, 96
1, 8544, Note_on_c, 2, 65, 96
1, 8544, Note_on_c, 3, 50, 96
1, 8544, Note_on_c, 4, 38, 96
1, 8544, Note_on_c, 5, 77, 96
1, 8544, Note_on_c, 6, 50, 96
1, 8551, Note_off_c, 5, 77, 0
1, 8552, Note_on_c, 5, 74, 96
1, 8559, Note_off_c, 5, 74, 0
1, 8560, Note_on_c, 5, 75, 96
1, 8565, Note_off_c, 0, 72, 0
1, 8565, Note_off_c, 1, 69, 0
1, 8565, Note_off_c, 2, 65, 0
1, 8565, Note_off_c, 3, 50, 0
1, 8565, Note_off_c, 4, 38, 0
1, 8565, Note_off_c, 6, 50, 0
1, 8567, Note_off_c, 5, 75, 0
1, 8568, Note_on_c, 3, 50, 96
1, 8568, Note_on_c, 4, 38, 96
1, 8568, Note_on_c, 5, 77, 96
1, 8568, Note_on_c, 6, 50, 96
1, 8575, Note_off_c, 5, 77, 0
1, 8576, Note_on_c, 5, 79, 96
1, 8583, Note_off_c, 5, 79, 0
1, 8584, Note_on_c, 5, 81, 96
1, 8589, Note_off_c, 3, 50, 0
1, 8589, Note_off_c, 4, 38, 0
1, 8589, Note_off_c, 6, 50, 0
1, 8591, Note_off_c, 5, 81, 0
1, 8592, Note_on_c, 0, 70, 96
1, 8592, Note_on_c, 1, 65, 96
1, 8592, Note_on_c, 2, 62, 96
1, 8592, Note_on_c, 3, 50, 96
1, 8592, Note_on_c, 4, 38, 96
1, 8592, Note_on_c, 5, 82, 96
1, 8592, Note_on_c, 6, 50, 96
1, 8599, Note_off_c, 5, 82, 0
1, 8600, Note_on_c, 5, 81, 96
1, 8607, Note_off_c, 5, 81, 0
1, 8608, Note_on_c, 5, 79, 96
1, 8613, Note_off_c, 0, 70, 0
1, 8613, Note_off_c, 1, 65, 0
1, 8613, Note_off_c, 2, 62, 0
1, 8613, Note_off_c, 3, 50, 0
1, 8613, Note_off_c, 4, 38, 0
1, 8613, Note_off_c, 6, 50, 0
1, 8615, Note_off_c, 5, 79, 0
1, 8616, Note_on_c, 3, 55, 96
1, 8616, Note_on_c, 4, 43, 96
1, 8616, Note_on_c, 5, 77, 96
1, 8616, Note_on_c, 6, 55, 96
1, 8623, Note_off_c, 5, 77, 0
1, 8624, Note_on_c, 5, 75, 96
1, 8628, Note_off_c, 3, 55, 0
1, 8628, Note_on_c, 3, 57, 96
1, 8628, Note_off_c, 4, 43, 0
1, 8628, Note_on_c, 4, 45, 96
1, 8628, Note_off_c, 6, 55, 0
1, 8628, Note_on_c, 6, 57, 96
1, 8631, Note_off_c, 5, 75, 0
1, 8632, Note_on_c, 5, 74, 96
1, 8634, Note_off_c, 3, 57, 0
1, 8634, Note_on_c, 3, 58, 96
1, 8634, Note_off_c, 4, 45, 0
1, 8634, Note_on_c, 4, 46, 96
1, 8634, Note_off_c, 6, 57, 0
1, 8634, Note_on_c, 6, 58, 96
1, 8639, Note_off_c, 3, 58, 0
1, 8639, Note_off_c, 4, 46, 0
1, 8639, Note_off_c, 5, 74, 0
1, 8639, Note_off_c, 6, 58, 0
1, 8640, Note_on_c, 0, 69, 96
1, 8640, Note_on_c, 1, 72, 96
1, 8640, Note_on_c, 2, 63, 96
1, 8640, Note_on_c, 3, 48, 96
1, 8640, Note_on_c, 4, 36, 96
1, 8640, Note_on_c, 5, 75, 96
1, 8640, Note_on_c, 6, 48, 96
1, 8647, Note_off_c, 5, 75, 0
1, 8648, Note_on_c, 5, 74, 96
1, 8655, Note_off_c, 5, 74, 0
1, 8656, Note_on_c, 5, 72, 96
1, 8661, Note_off_c, 0, 69, 0
1, 8661, Note_off_c, 1, 72, 0
1, 8661, Note_off_c, 2, 63, 0
1, 8661, Note_off_c, 3, 48, 0
1, 8661, Note_off_c, 4, 36, 0
1, 8661, Note_off_c, 6, 48, 0
1, 8663, Note_off_c, 5, 72, 0
1, 8664, Note_on_c, 0, 70, 96
1, 8664, Note_on_c, 1, 65, 96
1, 8664, Note_on_c, 2, 65, 96
1, 8664, Note_on_c, 3, 46, 96
1, 8664, Note_on_c, 4, 34, 96
1, 8664, Note_on_c, 5, 74, 96
1, 8664, Note_on_c, 6, 46, 96
1, 8671, Note_off_c, 5, 74, 0
1, 8672, Note_on_c, 5, 72, 96
1, 8679, Note_off_c, 5, 72, 0
1, 8680, Note_off_c, 2, 65, 0
1, 8680, Note_on_c, 5, 70, 96
1, 8682, Note_on_c, 2, 62, 96
1, 8685, Note_off_c, 0, 70, 0
1, 8685, Note_off_c, 1, 65, 0
1, 8685, Note_off_c, 3, 46, 0
1, 8685, Note_off_c, 4, 34, 0
1, 8685, Note_off_c, 6, 46, 0
1, 8687, Note_off_c, 2, 62, 0
1, 8687, Note_off_c, 5, 70, 0
1, 8688, Note_on_c, 0, 69, 96
1, 8688, Note_on_c, 1, 65, 96
1, 8688, Note_on_c, 2, 60, 96
1, 8688, Note_on_c, 3, 53, 96
1, 8688, Note_on_c, 4, 41, 96
1, 8688, Note_on_c, 5, 69, 96
1, 8688, Note_on_c, 6, 53, 96
1, 8709, Note_off_c, 3, 53, 0
1, 8709, Note_off_c, 4, 41, 0
1, 8709, Note_off_c, 6, 53, 0
1, 8712, Note_on_c, 3, 41, 96
1, 8712, Note_on_c, 4, 29, 96
1, 8712, Note_on_c, 6, 41, 96
1, 8719, Note_off_c, 0, 69, 0
1, 8719, Note_off_c, 1, 65, 0
1, 8719, Note_off_c, 2, 60, 0
1, 8719, Note_off_c, 5, 69, 0
1, 8724, Note_on_c, 0, 70, 96
1, 8724, Note_on_c, 1, 65, 96
1, 8724, Note_on_c, 2, 62, 96
1, 8724, Note_on_c, 5, 70, 96
1, 8733, Note_off_c, 3, 41, 0
1, 8733, Note_off_c, 4, 29, 0
1, 8733, Note_off_c, 6, 41, 0
1, 8734, Note_off_c, 0, 70, 0
1, 8734, Note_off_c, 1, 65, 0
1, 8734, Note_off_c, 2, 62, 0
1, 8734, Note_off_c, 5, 70, 0
1, 8736, Note_on_c, 0, 70, 96
1, 8736, Note_on_c, 1, 65, 96
1, 8736, Note_on_c, 2, 62, 96
1, 8736, Note_on_c, 3, 46, 96
1, 8736, Note_on_c, 4, 34, 96
1, 8736, Note_on_c, 5, 70, 96
1, 8736, Note_on_c, 6, 46, 96
1, 8832, Note_off_c, 0, 70, 0
1, 8832, Note_off_c, 1, 65, 0
1, 8832, Note_off_c, 2, 62, 0
1, 8832, Note_off_c, 3, 46, 0
1, 8832, Note_off_c, 4, 34, 0
1, 8832, Note_off_c, 5, 70, 0
1, 8832, Note_off_c, 6, 46, 0
1, 9024, End_track
0, 0, End_of_file
