0, 0, Header, 1, 17, 120
1, 0, Start_track
1, 0, Text_t, "\015\012\015\012Mass in B Minor          Johann Sebastion Bach\015\012No. 4, Chor, Gloria in excelsis Deo &  Et in terra pax\015\012\015\012seq by David Siu  dss@po.cwru.edu\015\012\015\012\015\012"
1, 0, Time_signature, 3, 3, 12, 8
1, 0, Key_signature, 2, "major"
1, 0, Tempo, 625000
1, 180, Tempo, 705882
1, 18090, Tempo, 923077
1, 18180, Time_signature, 4, 2, 24, 8
1, 18180, Tempo, 833333
1, 54033, Tempo, 923077
1, 54180, Tempo, 1000000
1, 54353, Tempo, 1714286
1, 55140, End_track
2, 0, Start_track
2, 0, MIDI_port, 0
2, 0, Title_t, "Instrument  1"
2, 0, Program_c, 0, 56
2, 55140, End_track
3, 0, Start_track
3, 0, MIDI_port, 0
3, 0, Title_t, "Trumpet"
3, 0, Program_c, 0, 56
3, 180, Note_on_c, 0, 74, 70
3, 215, Note_on_c, 0, 74, 0
3, 240, Note_on_c, 0, 69, 70
3, 275, Note_on_c, 0, 69, 0
3, 300, Note_on_c, 0, 74, 70
3, 335, Note_on_c, 0, 74, 0
3, 360, Note_on_c, 0, 76, 70
3, 395, Note_on_c, 0, 76, 0
3, 420, Note_on_c, 0, 78, 70
3, 450, Note_on_c, 0, 78, 0
3, 450, Note_on_c, 0, 76, 70
3, 480, Note_on_c, 0, 76, 0
3, 480, Note_on_c, 0, 74, 70
3, 510, Note_on_c, 0, 74, 0
3, 510, Note_on_c, 0, 76, 70
3, 540, Note_on_c, 0, 76, 0
3, 540, Note_on_c, 0, 78, 70
3, 540, Note_on_c, 0, 74, 70
3, 575, Note_on_c, 0, 74, 0
3, 575, Note_on_c, 0, 78, 0
3, 600, Note_on_c, 0, 74, 70
3, 600, Note_on_c, 0, 69, 70
3, 635, Note_on_c, 0, 69, 0
3, 635, Note_on_c, 0, 74, 0
3, 660, Note_on_c, 0, 78, 70
3, 660, Note_on_c, 0, 74, 70
3, 695, Note_on_c, 0, 74, 0
3, 695, Note_on_c, 0, 78, 0
3, 720, Note_on_c, 0, 79, 70
3, 720, Note_on_c, 0, 76, 70
3, 755, Note_on_c, 0, 76, 0
3, 755, Note_on_c, 0, 79, 0
3, 780, Note_on_c, 0, 81, 70
3, 780, Note_on_c, 0, 78, 70
3, 810, Note_on_c, 0, 78, 0
3, 810, Note_on_c, 0, 81, 0
3, 810, Note_on_c, 0, 79, 70
3, 810, Note_on_c, 0, 76, 70
3, 840, Note_on_c, 0, 76, 0
3, 840, Note_on_c, 0, 79, 0
3, 840, Note_on_c, 0, 78, 70
3, 840, Note_on_c, 0, 74, 70
3, 870, Note_on_c, 0, 74, 0
3, 870, Note_on_c, 0, 78, 0
3, 870, Note_on_c, 0, 79, 70
3, 870, Note_on_c, 0, 76, 70
3, 900, Note_on_c, 0, 76, 0
3, 900, Note_on_c, 0, 79, 0
3, 900, Note_on_c, 0, 81, 70
3, 900, Note_on_c, 0, 78, 70
3, 900, Note_on_c, 0, 74, 70
3, 935, Note_on_c, 0, 74, 0
3, 935, Note_on_c, 0, 78, 0
3, 960, Note_on_c, 0, 81, 70
3, 960, Note_on_c, 0, 69, 70
3, 995, Note_on_c, 0, 69, 0
3, 995, Note_on_c, 0, 81, 0
3, 1020, Note_on_c, 0, 79, 70
3, 1020, Note_on_c, 0, 69, 70
3, 1055, Note_on_c, 0, 69, 0
3, 1055, Note_on_c, 0, 79, 0
3, 1080, Note_on_c, 0, 78, 70
3, 1080, Note_on_c, 0, 69, 70
3, 1115, Note_on_c, 0, 69, 0
3, 1115, Note_on_c, 0, 78, 0
3, 1115, Note_on_c, 0, 81, 0
3, 1140, Note_on_c, 0, 83, 70
3, 1140, Note_on_c, 0, 74, 70
3, 1140, Note_on_c, 0, 62, 70
3, 1170, Note_on_c, 0, 83, 0
3, 1170, Note_on_c, 0, 81, 70
3, 1175, Note_on_c, 0, 62, 0
3, 1175, Note_on_c, 0, 74, 0
3, 1200, Note_on_c, 0, 81, 0
3, 1200, Note_on_c, 0, 79, 70
3, 1200, Note_on_c, 0, 74, 70
3, 1200, Note_on_c, 0, 69, 70
3, 1230, Note_on_c, 0, 79, 0
3, 1230, Note_on_c, 0, 78, 70
3, 1235, Note_on_c, 0, 69, 0
3, 1235, Note_on_c, 0, 74, 0
3, 1260, Note_on_c, 0, 78, 0
3, 1260, Note_on_c, 0, 76, 70
3, 1260, Note_on_c, 0, 76, 70
3, 1260, Note_on_c, 0, 69, 70
3, 1295, Note_on_c, 0, 69, 0
3, 1295, Note_on_c, 0, 76, 0
3, 1295, Note_on_c, 0, 76, 0
3, 1320, Note_on_c, 0, 81, 70
3, 1355, Note_on_c, 0, 81, 0
3, 1380, Note_on_c, 0, 79, 70
3, 1415, Note_on_c, 0, 79, 0
3, 1440, Note_on_c, 0, 78, 70
3, 1440, Note_on_c, 0, 74, 70
3, 1440, Note_on_c, 0, 69, 70
3, 1470, Note_on_c, 0, 78, 0
3, 1470, Note_on_c, 0, 81, 70
3, 1475, Note_on_c, 0, 69, 0
3, 1475, Note_on_c, 0, 74, 0
3, 1500, Note_on_c, 0, 81, 0
3, 1500, Note_on_c, 0, 79, 70
3, 1530, Note_on_c, 0, 79, 0
3, 1530, Note_on_c, 0, 78, 70
3, 1560, Note_on_c, 0, 78, 0
3, 1560, Note_on_c, 0, 76, 70
3, 1590, Note_on_c, 0, 76, 0
3, 1590, Note_on_c, 0, 74, 70
3, 1620, Note_on_c, 0, 74, 0
3, 1620, Note_on_c, 0, 76, 70
3, 1620, Note_on_c, 0, 81, 70
3, 1620, Note_on_c, 0, 69, 70
3, 1655, Note_on_c, 0, 69, 0
3, 1655, Note_on_c, 0, 81, 0
3, 1655, Note_on_c, 0, 76, 0
3, 1800, Note_on_c, 0, 81, 40
3, 1800, Note_on_c, 0, 78, 40
3, 1835, Note_on_c, 0, 78, 0
3, 1835, Note_on_c, 0, 81, 0
3, 1980, Note_on_c, 0, 81, 40
3, 1980, Note_on_c, 0, 78, 40
3, 2015, Note_on_c, 0, 78, 0
3, 2015, Note_on_c, 0, 81, 0
3, 2220, Note_on_c, 0, 83, 40
3, 2220, Note_on_c, 0, 79, 40
3, 2255, Note_on_c, 0, 79, 0
3, 2255, Note_on_c, 0, 83, 0
3, 2280, Note_on_c, 0, 81, 40
3, 2280, Note_on_c, 0, 78, 40
3, 2315, Note_on_c, 0, 78, 0
3, 2315, Note_on_c, 0, 81, 0
3, 2340, Note_on_c, 0, 79, 40
3, 2340, Note_on_c, 0, 76, 40
3, 2375, Note_on_c, 0, 76, 0
3, 2375, Note_on_c, 0, 79, 0
3, 2520, Note_on_c, 0, 79, 40
3, 2520, Note_on_c, 0, 76, 40
3, 2555, Note_on_c, 0, 76, 0
3, 2555, Note_on_c, 0, 79, 0
3, 2700, Note_on_c, 0, 79, 40
3, 2700, Note_on_c, 0, 76, 40
3, 2700, Note_on_c, 0, 69, 40
3, 2735, Note_on_c, 0, 69, 0
3, 2735, Note_on_c, 0, 76, 0
3, 2735, Note_on_c, 0, 79, 0
3, 2940, Note_on_c, 0, 81, 40
3, 2940, Note_on_c, 0, 78, 40
3, 2940, Note_on_c, 0, 74, 40
3, 2975, Note_on_c, 0, 74, 0
3, 2975, Note_on_c, 0, 78, 0
3, 2975, Note_on_c, 0, 81, 0
3, 3000, Note_on_c, 0, 79, 40
3, 3000, Note_on_c, 0, 76, 40
3, 3000, Note_on_c, 0, 69, 40
3, 3035, Note_on_c, 0, 69, 0
3, 3035, Note_on_c, 0, 76, 0
3, 3035, Note_on_c, 0, 79, 0
3, 3060, Note_on_c, 0, 78, 45
3, 3060, Note_on_c, 0, 74, 45
3, 3060, Note_on_c, 0, 69, 45
3, 3095, Note_on_c, 0, 69, 0
3, 3095, Note_on_c, 0, 74, 0
3, 3095, Note_on_c, 0, 78, 0
3, 3120, Note_on_c, 0, 81, 47
3, 3120, Note_on_c, 0, 78, 47
3, 3155, Note_on_c, 0, 78, 0
3, 3155, Note_on_c, 0, 81, 0
3, 3180, Note_on_c, 0, 86, 48
3, 3180, Note_on_c, 0, 83, 48
3, 3215, Note_on_c, 0, 83, 0
3, 3215, Note_on_c, 0, 86, 0
3, 3300, Note_on_c, 0, 85, 51
3, 3300, Note_on_c, 0, 81, 51
3, 3330, Note_on_c, 0, 81, 0
3, 3330, Note_on_c, 0, 85, 0
3, 3330, Note_on_c, 0, 83, 52
3, 3330, Note_on_c, 0, 79, 52
3, 3360, Note_on_c, 0, 79, 0
3, 3360, Note_on_c, 0, 83, 0
3, 3360, Note_on_c, 0, 85, 53
3, 3360, Note_on_c, 0, 81, 53
3, 3360, Note_on_c, 0, 76, 53
3, 3395, Note_on_c, 0, 76, 0
3, 3395, Note_on_c, 0, 81, 0
3, 3395, Note_on_c, 0, 85, 0
3, 3420, Note_on_c, 0, 74, 55
3, 3455, Note_on_c, 0, 74, 0
3, 3480, Note_on_c, 0, 78, 56
3, 3480, Note_on_c, 0, 74, 56
3, 3515, Note_on_c, 0, 74, 0
3, 3515, Note_on_c, 0, 78, 0
3, 3540, Note_on_c, 0, 83, 58
3, 3540, Note_on_c, 0, 79, 58
3, 3575, Note_on_c, 0, 79, 0
3, 3575, Note_on_c, 0, 83, 0
3, 3660, Note_on_c, 0, 81, 61
3, 3660, Note_on_c, 0, 78, 61
3, 3690, Note_on_c, 0, 78, 0
3, 3690, Note_on_c, 0, 81, 0
3, 3690, Note_on_c, 0, 79, 62
3, 3690, Note_on_c, 0, 76, 62
3, 3720, Note_on_c, 0, 76, 0
3, 3720, Note_on_c, 0, 79, 0
3, 3720, Note_on_c, 0, 81, 62
3, 3720, Note_on_c, 0, 78, 62
3, 3720, Note_on_c, 0, 62, 62
3, 3755, Note_on_c, 0, 62, 0
3, 3755, Note_on_c, 0, 78, 0
3, 3755, Note_on_c, 0, 81, 0
3, 3780, Note_on_c, 0, 62, 64
3, 3815, Note_on_c, 0, 62, 0
3, 3840, Note_on_c, 0, 74, 65
3, 3840, Note_on_c, 0, 74, 65
3, 3875, Note_on_c, 0, 74, 0
3, 3875, Note_on_c, 0, 74, 0
3, 3900, Note_on_c, 0, 79, 67
3, 3900, Note_on_c, 0, 76, 67
3, 3935, Note_on_c, 0, 76, 0
3, 3935, Note_on_c, 0, 79, 0
3, 4020, Note_on_c, 0, 78, 69
3, 4020, Note_on_c, 0, 74, 69
3, 4050, Note_on_c, 0, 74, 0
3, 4050, Note_on_c, 0, 78, 0
3, 4050, Note_on_c, 0, 76, 70
3, 4050, Note_on_c, 0, 73, 70
3, 4080, Note_on_c, 0, 73, 0
3, 4080, Note_on_c, 0, 76, 0
3, 4080, Note_on_c, 0, 78, 71
3, 4080, Note_on_c, 0, 74, 71
3, 4080, Note_on_c, 0, 69, 71
3, 4115, Note_on_c, 0, 69, 0
3, 4115, Note_on_c, 0, 74, 0
3, 4115, Note_on_c, 0, 78, 0
3, 4140, Note_on_c, 0, 76, 72
3, 4140, Note_on_c, 0, 74, 72
3, 4140, Note_on_c, 0, 74, 72
3, 4175, Note_on_c, 0, 74, 0
3, 4290, Note_on_c, 0, 76, 0
3, 4290, Note_on_c, 0, 78, 75
3, 4305, Note_on_c, 0, 78, 0
3, 4305, Note_on_c, 0, 79, 76
3, 4320, Note_on_c, 0, 79, 0
3, 4320, Note_on_c, 0, 78, 76
3, 4350, Note_on_c, 0, 78, 0
3, 4350, Note_on_c, 0, 76, 77
3, 4355, Note_on_c, 0, 74, 0
3, 4380, Note_on_c, 0, 76, 0
3, 4380, Note_on_c, 0, 78, 77
3, 4380, Note_on_c, 0, 69, 77
3, 4380, Note_on_c, 0, 69, 77
3, 4391, Note_on_c, 0, 78, 0
3, 4391, Note_on_c, 0, 76, 78
3, 4404, Note_on_c, 0, 76, 0
3, 4404, Note_on_c, 0, 78, 78
3, 4410, Note_on_c, 0, 69, 0
3, 4410, Note_on_c, 0, 69, 0
3, 4410, Note_on_c, 0, 69, 78
3, 4410, Note_on_c, 0, 69, 78
3, 4415, Note_on_c, 0, 78, 0
3, 4415, Note_on_c, 0, 76, 78
3, 4428, Note_on_c, 0, 76, 0
3, 4428, Note_on_c, 0, 78, 78
3, 4440, Note_on_c, 0, 78, 0
3, 4440, Note_on_c, 0, 69, 0
3, 4440, Note_on_c, 0, 69, 0
3, 4440, Note_on_c, 0, 76, 79
3, 4440, Note_on_c, 0, 69, 79
3, 4440, Note_on_c, 0, 69, 79
3, 4470, Note_on_c, 0, 69, 0
3, 4470, Note_on_c, 0, 69, 0
3, 4470, Note_on_c, 0, 76, 0
3, 4470, Note_on_c, 0, 74, 79
3, 4470, Note_on_c, 0, 69, 79
3, 4470, Note_on_c, 0, 69, 79
3, 4500, Note_on_c, 0, 69, 0
3, 4500, Note_on_c, 0, 69, 0
3, 4500, Note_on_c, 0, 74, 0
3, 4500, Note_on_c, 0, 74, 80
3, 4500, Note_on_c, 0, 69, 80
3, 4500, Note_on_c, 0, 66, 80
3, 4535, Note_on_c, 0, 66, 0
3, 4535, Note_on_c, 0, 69, 0
3, 4535, Note_on_c, 0, 74, 0
3, 4535, Control_c, 0, 7, 75
3, 4535, Control_c, 0, 7, 75
3, 4535, Control_c, 0, 7, 75
3, 4860, Note_on_c, 0, 81, 64
3, 4860, Note_on_c, 0, 78, 64
3, 4860, Note_on_c, 0, 74, 64
3, 4895, Note_on_c, 0, 74, 0
3, 4895, Note_on_c, 0, 78, 0
3, 4895, Note_on_c, 0, 81, 0
3, 5220, Note_on_c, 0, 81, 55
3, 5220, Note_on_c, 0, 78, 55
3, 5220, Note_on_c, 0, 74, 55
3, 5255, Note_on_c, 0, 74, 0
3, 5255, Note_on_c, 0, 78, 0
3, 5255, Note_on_c, 0, 81, 0
3, 5280, Note_on_c, 0, 81, 56
3, 5280, Note_on_c, 0, 78, 56
3, 5280, Note_on_c, 0, 69, 56
3, 5315, Note_on_c, 0, 69, 0
3, 5315, Note_on_c, 0, 78, 0
3, 5315, Note_on_c, 0, 81, 0
3, 5340, Note_on_c, 0, 79, 57
3, 5340, Note_on_c, 0, 76, 57
3, 5340, Note_on_c, 0, 69, 57
3, 5375, Note_on_c, 0, 69, 0
3, 5375, Note_on_c, 0, 76, 0
3, 5375, Note_on_c, 0, 79, 0
3, 5400, Note_on_c, 0, 78, 58
3, 5400, Note_on_c, 0, 74, 58
3, 5400, Note_on_c, 0, 69, 58
3, 5435, Note_on_c, 0, 69, 0
3, 5435, Note_on_c, 0, 74, 0
3, 5435, Note_on_c, 0, 78, 0
3, 5460, Note_on_c, 0, 81, 59
3, 5460, Note_on_c, 0, 76, 59
3, 5460, Note_on_c, 0, 69, 59
3, 5490, Note_on_c, 0, 69, 0
3, 5490, Note_on_c, 0, 69, 60
3, 5495, Note_on_c, 0, 76, 0
3, 5495, Note_on_c, 0, 81, 0
3, 5520, Note_on_c, 0, 69, 0
3, 5520, Note_on_c, 0, 86, 60
3, 5520, Note_on_c, 0, 78, 60
3, 5520, Note_on_c, 0, 69, 60
3, 5550, Note_on_c, 0, 69, 0
3, 5550, Note_on_c, 0, 69, 61
3, 5555, Note_on_c, 0, 78, 0
3, 5555, Note_on_c, 0, 86, 0
3, 5580, Note_on_c, 0, 69, 0
3, 5580, Note_on_c, 0, 85, 61
3, 5580, Note_on_c, 0, 76, 61
3, 5580, Note_on_c, 0, 69, 61
3, 5615, Note_on_c, 0, 69, 0
3, 5615, Note_on_c, 0, 76, 0
3, 5615, Note_on_c, 0, 85, 0
3, 5760, Note_on_c, 0, 86, 64
3, 5760, Note_on_c, 0, 81, 64
3, 5760, Note_on_c, 0, 66, 64
3, 5795, Note_on_c, 0, 66, 0
3, 5795, Note_on_c, 0, 81, 0
3, 5795, Note_on_c, 0, 86, 0
3, 5940, Note_on_c, 0, 85, 67
3, 5940, Note_on_c, 0, 76, 67
3, 5940, Note_on_c, 0, 69, 67
3, 5975, Note_on_c, 0, 69, 0
3, 5975, Note_on_c, 0, 76, 0
3, 5975, Note_on_c, 0, 85, 0
3, 6120, Note_on_c, 0, 81, 64
3, 6120, Note_on_c, 0, 76, 64
3, 6155, Note_on_c, 0, 76, 0
3, 6155, Note_on_c, 0, 81, 0
3, 6300, Note_on_c, 0, 85, 64
3, 6300, Note_on_c, 0, 76, 64
3, 6335, Note_on_c, 0, 76, 0
3, 6335, Note_on_c, 0, 85, 0
3, 6540, Note_on_c, 0, 86, 64
3, 6540, Note_on_c, 0, 78, 64
3, 6575, Note_on_c, 0, 78, 0
3, 6575, Note_on_c, 0, 86, 0
3, 6600, Note_on_c, 0, 85, 64
3, 6600, Note_on_c, 0, 76, 64
3, 6635, Note_on_c, 0, 76, 0
3, 6635, Note_on_c, 0, 85, 0
3, 6660, Note_on_c, 0, 83, 64
3, 6660, Note_on_c, 0, 74, 64
3, 6695, Note_on_c, 0, 74, 0
3, 6695, Note_on_c, 0, 83, 0
3, 6840, Note_on_c, 0, 78, 64
3, 6840, Note_on_c, 0, 74, 64
3, 6875, Note_on_c, 0, 74, 0
3, 6875, Note_on_c, 0, 78, 0
3, 7020, Note_on_c, 0, 83, 64
3, 7020, Note_on_c, 0, 74, 64
3, 7055, Note_on_c, 0, 74, 0
3, 7055, Note_on_c, 0, 83, 0
3, 7260, Note_on_c, 0, 85, 64
3, 7260, Note_on_c, 0, 76, 64
3, 7295, Note_on_c, 0, 76, 0
3, 7295, Note_on_c, 0, 85, 0
3, 7320, Note_on_c, 0, 83, 64
3, 7320, Note_on_c, 0, 76, 64
3, 7355, Note_on_c, 0, 76, 0
3, 7355, Note_on_c, 0, 83, 0
3, 7380, Control_c, 0, 7, 75
3, 7380, Control_c, 0, 7, 75
3, 7380, Control_c, 0, 7, 75
3, 7380, Note_on_c, 0, 81, 64
3, 7380, Note_on_c, 0, 76, 64
3, 7380, Note_on_c, 0, 69, 64
3, 7415, Note_on_c, 0, 69, 0
3, 7415, Note_on_c, 0, 76, 0
3, 7415, Note_on_c, 0, 81, 0
3, 7740, Note_on_c, 0, 81, 64
3, 7740, Note_on_c, 0, 76, 64
3, 7740, Note_on_c, 0, 69, 64
3, 7775, Note_on_c, 0, 69, 0
3, 7775, Note_on_c, 0, 76, 0
3, 7775, Note_on_c, 0, 81, 0
3, 8100, Note_on_c, 0, 85, 70
3, 8100, Note_on_c, 0, 81, 70
3, 8100, Note_on_c, 0, 76, 70
3, 8135, Note_on_c, 0, 76, 0
3, 8135, Note_on_c, 0, 81, 0
3, 8135, Note_on_c, 0, 85, 0
3, 8160, Note_on_c, 0, 85, 70
3, 8160, Note_on_c, 0, 81, 70
3, 8160, Note_on_c, 0, 76, 70
3, 8195, Note_on_c, 0, 76, 0
3, 8195, Note_on_c, 0, 81, 0
3, 8195, Note_on_c, 0, 85, 0
3, 8220, Note_on_c, 0, 83, 70
3, 8220, Note_on_c, 0, 80, 70
3, 8220, Note_on_c, 0, 74, 70
3, 8255, Note_on_c, 0, 74, 0
3, 8255, Note_on_c, 0, 80, 0
3, 8255, Note_on_c, 0, 83, 0
3, 8280, Note_on_c, 0, 81, 70
3, 8280, Note_on_c, 0, 81, 70
3, 8280, Note_on_c, 0, 76, 70
3, 8315, Note_on_c, 0, 76, 0
3, 8315, Note_on_c, 0, 81, 0
3, 8315, Note_on_c, 0, 81, 0
3, 11700, Control_c, 0, 7, 127
3, 11700, Control_c, 0, 7, 127
3, 11700, Control_c, 0, 7, 127
3, 11700, Note_on_c, 0, 76, 64
3, 11700, Note_on_c, 0, 85, 64
3, 11700, Note_on_c, 0, 81, 64
3, 11715, Note_on_c, 0, 76, 0
3, 11715, Note_on_c, 0, 78, 64
3, 11730, Note_on_c, 0, 78, 0
3, 11730, Note_on_c, 0, 76, 64
3, 11735, Note_on_c, 0, 81, 0
3, 11735, Note_on_c, 0, 85, 0
3, 11745, Note_on_c, 0, 76, 0
3, 11745, Note_on_c, 0, 78, 64
3, 11760, Note_on_c, 0, 78, 0
3, 11760, Note_on_c, 0, 76, 64
3, 11775, Note_on_c, 0, 76, 0
3, 11775, Note_on_c, 0, 78, 64
3, 11790, Note_on_c, 0, 78, 0
3, 11790, Note_on_c, 0, 76, 64
3, 11805, Note_on_c, 0, 76, 0
3, 11805, Note_on_c, 0, 78, 64
3, 11820, Note_on_c, 0, 78, 0
3, 11820, Note_on_c, 0, 76, 64
3, 11835, Note_on_c, 0, 76, 0
3, 11835, Note_on_c, 0, 78, 64
3, 11850, Note_on_c, 0, 78, 0
3, 11850, Note_on_c, 0, 76, 64
3, 11865, Note_on_c, 0, 76, 0
3, 11865, Note_on_c, 0, 78, 64
3, 11880, Note_on_c, 0, 78, 0
3, 11880, Note_on_c, 0, 76, 64
3, 11895, Note_on_c, 0, 76, 0
3, 11895, Note_on_c, 0, 78, 64
3, 11910, Note_on_c, 0, 78, 0
3, 11910, Note_on_c, 0, 76, 64
3, 11925, Note_on_c, 0, 76, 0
3, 11925, Note_on_c, 0, 78, 64
3, 11940, Note_on_c, 0, 78, 0
3, 11940, Note_on_c, 0, 76, 64
3, 11955, Note_on_c, 0, 76, 0
3, 11955, Note_on_c, 0, 78, 64
3, 11970, Note_on_c, 0, 78, 0
3, 11970, Note_on_c, 0, 76, 64
3, 11985, Note_on_c, 0, 76, 0
3, 11985, Note_on_c, 0, 78, 64
3, 12000, Note_on_c, 0, 78, 0
3, 12000, Note_on_c, 0, 76, 64
3, 12015, Note_on_c, 0, 76, 0
3, 12015, Note_on_c, 0, 78, 64
3, 12030, Note_on_c, 0, 78, 0
3, 12030, Note_on_c, 0, 76, 64
3, 12045, Note_on_c, 0, 76, 0
3, 12045, Note_on_c, 0, 78, 64
3, 12060, Note_on_c, 0, 78, 0
3, 12060, Note_on_c, 0, 76, 64
3, 12060, Note_on_c, 0, 81, 64
3, 12060, Note_on_c, 0, 69, 64
3, 12095, Note_on_c, 0, 69, 0
3, 12095, Note_on_c, 0, 81, 0
3, 12095, Note_on_c, 0, 76, 0
3, 12120, Note_on_c, 0, 81, 64
3, 12150, Note_on_c, 0, 81, 0
3, 12150, Note_on_c, 0, 80, 64
3, 12180, Note_on_c, 0, 80, 0
3, 12180, Note_on_c, 0, 81, 64
3, 12215, Note_on_c, 0, 81, 0
3, 12240, Note_on_c, 0, 81, 64
3, 12275, Note_on_c, 0, 81, 0
3, 12300, Note_on_c, 0, 80, 64
3, 12330, Note_on_c, 0, 80, 0
3, 12330, Note_on_c, 0, 81, 64
3, 12360, Note_on_c, 0, 81, 0
3, 12360, Note_on_c, 0, 78, 64
3, 12390, Note_on_c, 0, 78, 0
3, 12390, Note_on_c, 0, 80, 64
3, 12420, Note_on_c, 0, 80, 0
3, 12420, Note_on_c, 0, 81, 64
3, 12420, Note_on_c, 0, 76, 64
3, 12420, Note_on_c, 0, 69, 64
3, 12455, Note_on_c, 0, 69, 0
3, 12455, Note_on_c, 0, 76, 0
3, 12455, Note_on_c, 0, 81, 0
3, 13860, Control_c, 0, 7, 127
3, 13860, Control_c, 0, 7, 127
3, 13860, Control_c, 0, 7, 127
3, 13860, Note_on_c, 0, 74, 64
3, 13895, Note_on_c, 0, 74, 0
3, 13920, Note_on_c, 0, 69, 64
3, 13955, Note_on_c, 0, 69, 0
3, 13980, Note_on_c, 0, 74, 64
3, 14015, Note_on_c, 0, 74, 0
3, 14040, Note_on_c, 0, 76, 64
3, 14075, Note_on_c, 0, 76, 0
3, 14100, Note_on_c, 0, 78, 64
3, 14130, Note_on_c, 0, 78, 0
3, 14130, Note_on_c, 0, 76, 64
3, 14160, Note_on_c, 0, 76, 0
3, 14160, Note_on_c, 0, 74, 64
3, 14190, Note_on_c, 0, 74, 0
3, 14190, Note_on_c, 0, 76, 64
3, 14220, Note_on_c, 0, 76, 0
3, 14220, Note_on_c, 0, 78, 64
3, 14220, Note_on_c, 0, 74, 64
3, 14255, Note_on_c, 0, 74, 0
3, 14255, Note_on_c, 0, 78, 0
3, 14280, Note_on_c, 0, 74, 64
3, 14280, Note_on_c, 0, 69, 64
3, 14315, Note_on_c, 0, 69, 0
3, 14315, Note_on_c, 0, 74, 0
3, 14340, Note_on_c, 0, 78, 64
3, 14340, Note_on_c, 0, 74, 64
3, 14375, Note_on_c, 0, 74, 0
3, 14375, Note_on_c, 0, 78, 0
3, 14400, Note_on_c, 0, 79, 64
3, 14400, Note_on_c, 0, 76, 64
3, 14435, Note_on_c, 0, 76, 0
3, 14435, Note_on_c, 0, 79, 0
3, 14460, Note_on_c, 0, 81, 64
3, 14460, Note_on_c, 0, 78, 64
3, 14490, Note_on_c, 0, 78, 0
3, 14490, Note_on_c, 0, 81, 0
3, 14490, Note_on_c, 0, 79, 64
3, 14490, Note_on_c, 0, 76, 64
3, 14520, Note_on_c, 0, 76, 0
3, 14520, Note_on_c, 0, 79, 0
3, 14520, Note_on_c, 0, 78, 64
3, 14520, Note_on_c, 0, 74, 64
3, 14550, Note_on_c, 0, 74, 0
3, 14550, Note_on_c, 0, 78, 0
3, 14550, Note_on_c, 0, 79, 64
3, 14550, Note_on_c, 0, 76, 64
3, 14580, Note_on_c, 0, 76, 0
3, 14580, Note_on_c, 0, 79, 0
3, 14580, Note_on_c, 0, 81, 64
3, 14580, Note_on_c, 0, 78, 64
3, 14580, Note_on_c, 0, 74, 64
3, 14615, Note_on_c, 0, 74, 0
3, 14615, Note_on_c, 0, 78, 0
3, 14640, Note_on_c, 0, 81, 64
3, 14640, Note_on_c, 0, 69, 64
3, 14675, Note_on_c, 0, 69, 0
3, 14675, Note_on_c, 0, 81, 0
3, 14700, Note_on_c, 0, 79, 64
3, 14700, Note_on_c, 0, 69, 64
3, 14735, Note_on_c, 0, 69, 0
3, 14735, Note_on_c, 0, 79, 0
3, 14760, Note_on_c, 0, 78, 64
3, 14760, Note_on_c, 0, 69, 64
3, 14795, Note_on_c, 0, 69, 0
3, 14795, Note_on_c, 0, 78, 0
3, 14795, Note_on_c, 0, 81, 0
3, 14820, Note_on_c, 0, 83, 64
3, 14820, Note_on_c, 0, 74, 64
3, 14820, Note_on_c, 0, 62, 64
3, 14850, Note_on_c, 0, 83, 0
3, 14850, Note_on_c, 0, 81, 64
3, 14855, Note_on_c, 0, 62, 0
3, 14855, Note_on_c, 0, 74, 0
3, 14880, Note_on_c, 0, 81, 0
3, 14880, Note_on_c, 0, 79, 64
3, 14880, Note_on_c, 0, 74, 64
3, 14880, Note_on_c, 0, 69, 64
3, 14910, Note_on_c, 0, 79, 0
3, 14910, Note_on_c, 0, 78, 64
3, 14915, Note_on_c, 0, 69, 0
3, 14915, Note_on_c, 0, 74, 0
3, 14940, Note_on_c, 0, 78, 0
3, 14940, Note_on_c, 0, 76, 64
3, 14940, Note_on_c, 0, 76, 64
3, 14940, Note_on_c, 0, 69, 64
3, 14975, Note_on_c, 0, 69, 0
3, 14975, Note_on_c, 0, 76, 0
3, 14975, Note_on_c, 0, 76, 0
3, 15000, Note_on_c, 0, 81, 64
3, 15035, Note_on_c, 0, 81, 0
3, 15060, Note_on_c, 0, 79, 64
3, 15095, Note_on_c, 0, 79, 0
3, 15120, Note_on_c, 0, 78, 64
3, 15120, Note_on_c, 0, 74, 64
3, 15120, Note_on_c, 0, 69, 64
3, 15150, Note_on_c, 0, 78, 0
3, 15150, Note_on_c, 0, 81, 64
3, 15155, Note_on_c, 0, 69, 0
3, 15155, Note_on_c, 0, 74, 0
3, 15180, Note_on_c, 0, 81, 0
3, 15180, Note_on_c, 0, 79, 64
3, 15210, Note_on_c, 0, 79, 0
3, 15210, Note_on_c, 0, 78, 64
3, 15240, Note_on_c, 0, 78, 0
3, 15240, Note_on_c, 0, 76, 64
3, 15270, Note_on_c, 0, 76, 0
3, 15270, Note_on_c, 0, 74, 64
3, 15300, Note_on_c, 0, 74, 0
3, 15300, Note_on_c, 0, 76, 64
3, 15300, Note_on_c, 0, 81, 64
3, 15300, Note_on_c, 0, 69, 64
3, 15335, Note_on_c, 0, 69, 0
3, 15335, Note_on_c, 0, 81, 0
3, 15335, Note_on_c, 0, 76, 0
3, 15480, Control_c, 0, 7, 75
3, 15480, Control_c, 0, 7, 75
3, 15480, Control_c, 0, 7, 75
3, 15480, Note_on_c, 0, 81, 64
3, 15480, Note_on_c, 0, 78, 64
3, 15515, Note_on_c, 0, 78, 0
3, 15515, Note_on_c, 0, 81, 0
3, 15660, Note_on_c, 0, 81, 64
3, 15660, Note_on_c, 0, 78, 64
3, 15695, Note_on_c, 0, 78, 0
3, 15695, Note_on_c, 0, 81, 0
3, 15900, Note_on_c, 0, 83, 64
3, 15900, Note_on_c, 0, 79, 64
3, 15935, Note_on_c, 0, 79, 0
3, 15935, Note_on_c, 0, 83, 0
3, 15960, Note_on_c, 0, 81, 64
3, 15960, Note_on_c, 0, 78, 64
3, 15995, Note_on_c, 0, 78, 0
3, 15995, Note_on_c, 0, 81, 0
3, 16020, Note_on_c, 0, 79, 64
3, 16020, Note_on_c, 0, 76, 64
3, 16055, Note_on_c, 0, 76, 0
3, 16055, Note_on_c, 0, 79, 0
3, 16200, Note_on_c, 0, 79, 64
3, 16200, Note_on_c, 0, 76, 64
3, 16235, Note_on_c, 0, 76, 0
3, 16235, Note_on_c, 0, 79, 0
3, 16380, Note_on_c, 0, 79, 64
3, 16380, Note_on_c, 0, 76, 64
3, 16380, Note_on_c, 0, 69, 64
3, 16415, Note_on_c, 0, 69, 0
3, 16415, Note_on_c, 0, 76, 0
3, 16415, Note_on_c, 0, 79, 0
3, 16620, Note_on_c, 0, 81, 64
3, 16620, Note_on_c, 0, 78, 64
3, 16620, Note_on_c, 0, 74, 64
3, 16655, Note_on_c, 0, 74, 0
3, 16655, Note_on_c, 0, 78, 0
3, 16655, Note_on_c, 0, 81, 0
3, 16680, Note_on_c, 0, 79, 64
3, 16680, Note_on_c, 0, 76, 64
3, 16680, Note_on_c, 0, 69, 64
3, 16715, Note_on_c, 0, 69, 0
3, 16715, Note_on_c, 0, 76, 0
3, 16715, Note_on_c, 0, 79, 0
3, 16740, Control_c, 0, 7, 75
3, 16740, Control_c, 0, 7, 75
3, 16740, Control_c, 0, 7, 75
3, 16740, Note_on_c, 0, 78, 64
3, 16740, Note_on_c, 0, 74, 64
3, 16740, Note_on_c, 0, 69, 64
3, 16775, Note_on_c, 0, 69, 0
3, 16775, Note_on_c, 0, 74, 0
3, 16775, Note_on_c, 0, 78, 0
3, 16800, Note_on_c, 0, 81, 65
3, 16800, Note_on_c, 0, 78, 65
3, 16835, Note_on_c, 0, 78, 0
3, 16835, Note_on_c, 0, 81, 0
3, 16860, Note_on_c, 0, 86, 65
3, 16860, Note_on_c, 0, 83, 65
3, 16895, Note_on_c, 0, 83, 0
3, 16895, Note_on_c, 0, 86, 0
3, 16980, Note_on_c, 0, 85, 67
3, 16980, Note_on_c, 0, 81, 67
3, 17010, Note_on_c, 0, 81, 0
3, 17010, Note_on_c, 0, 85, 0
3, 17010, Note_on_c, 0, 83, 67
3, 17010, Note_on_c, 0, 79, 67
3, 17040, Note_on_c, 0, 79, 0
3, 17040, Note_on_c, 0, 83, 0
3, 17040, Note_on_c, 0, 85, 67
3, 17040, Note_on_c, 0, 81, 67
3, 17040, Note_on_c, 0, 76, 67
3, 17075, Note_on_c, 0, 76, 0
3, 17075, Note_on_c, 0, 81, 0
3, 17075, Note_on_c, 0, 85, 0
3, 17100, Note_on_c, 0, 74, 68
3, 17135, Note_on_c, 0, 74, 0
3, 17160, Note_on_c, 0, 78, 69
3, 17160, Note_on_c, 0, 74, 69
3, 17195, Note_on_c, 0, 74, 0
3, 17195, Note_on_c, 0, 78, 0
3, 17220, Note_on_c, 0, 83, 69
3, 17220, Note_on_c, 0, 79, 69
3, 17255, Note_on_c, 0, 79, 0
3, 17255, Note_on_c, 0, 83, 0
3, 17340, Note_on_c, 0, 81, 71
3, 17340, Note_on_c, 0, 78, 71
3, 17370, Note_on_c, 0, 78, 0
3, 17370, Note_on_c, 0, 81, 0
3, 17370, Note_on_c, 0, 79, 71
3, 17370, Note_on_c, 0, 76, 71
3, 17400, Note_on_c, 0, 76, 0
3, 17400, Note_on_c, 0, 79, 0
3, 17400, Note_on_c, 0, 81, 71
3, 17400, Note_on_c, 0, 78, 71
3, 17400, Note_on_c, 0, 62, 71
3, 17435, Note_on_c, 0, 62, 0
3, 17435, Note_on_c, 0, 78, 0
3, 17435, Note_on_c, 0, 81, 0
3, 17460, Note_on_c, 0, 62, 72
3, 17495, Note_on_c, 0, 62, 0
3, 17520, Note_on_c, 0, 74, 73
3, 17520, Note_on_c, 0, 74, 73
3, 17555, Note_on_c, 0, 74, 0
3, 17555, Note_on_c, 0, 74, 0
3, 17580, Note_on_c, 0, 79, 73
3, 17580, Note_on_c, 0, 76, 73
3, 17615, Note_on_c, 0, 76, 0
3, 17615, Note_on_c, 0, 79, 0
3, 17700, Note_on_c, 0, 78, 75
3, 17700, Note_on_c, 0, 74, 75
3, 17730, Note_on_c, 0, 74, 0
3, 17730, Note_on_c, 0, 78, 0
3, 17730, Note_on_c, 0, 76, 75
3, 17730, Note_on_c, 0, 73, 75
3, 17760, Note_on_c, 0, 73, 0
3, 17760, Note_on_c, 0, 76, 0
3, 17760, Note_on_c, 0, 78, 75
3, 17760, Note_on_c, 0, 74, 75
3, 17760, Note_on_c, 0, 69, 75
3, 17795, Note_on_c, 0, 69, 0
3, 17795, Note_on_c, 0, 74, 0
3, 17795, Note_on_c, 0, 78, 0
3, 17820, Note_on_c, 0, 76, 76
3, 17820, Note_on_c, 0, 74, 76
3, 17820, Note_on_c, 0, 74, 76
3, 17855, Note_on_c, 0, 74, 0
3, 17970, Note_on_c, 0, 76, 0
3, 17970, Note_on_c, 0, 78, 78
3, 17985, Note_on_c, 0, 78, 0
3, 17985, Note_on_c, 0, 79, 78
3, 18000, Note_on_c, 0, 79, 0
3, 18000, Note_on_c, 0, 78, 78
3, 18030, Note_on_c, 0, 78, 0
3, 18030, Note_on_c, 0, 76, 78
3, 18035, Note_on_c, 0, 74, 0
3, 18060, Note_on_c, 0, 76, 0
3, 18060, Note_on_c, 0, 78, 79
3, 18060, Note_on_c, 0, 69, 79
3, 18060, Note_on_c, 0, 69, 79
3, 18071, Note_on_c, 0, 78, 0
3, 18071, Note_on_c, 0, 76, 79
3, 18084, Note_on_c, 0, 76, 0
3, 18084, Note_on_c, 0, 78, 79
3, 18090, Note_on_c, 0, 69, 0
3, 18090, Note_on_c, 0, 69, 0
3, 18090, Note_on_c, 0, 69, 79
3, 18090, Note_on_c, 0, 69, 79
3, 18095, Note_on_c, 0, 78, 0
3, 18095, Note_on_c, 0, 76, 79
3, 18108, Note_on_c, 0, 76, 0
3, 18108, Note_on_c, 0, 78, 79
3, 18120, Note_on_c, 0, 78, 0
3, 18120, Note_on_c, 0, 69, 0
3, 18120, Note_on_c, 0, 69, 0
3, 18120, Note_on_c, 0, 76, 79
3, 18120, Note_on_c, 0, 69, 79
3, 18120, Note_on_c, 0, 69, 79
3, 18150, Note_on_c, 0, 69, 0
3, 18150, Note_on_c, 0, 69, 0
3, 18150, Note_on_c, 0, 76, 0
3, 18150, Note_on_c, 0, 74, 80
3, 18150, Note_on_c, 0, 69, 80
3, 18150, Note_on_c, 0, 69, 80
3, 18180, Note_on_c, 0, 69, 0
3, 18180, Note_on_c, 0, 69, 0
3, 18180, Note_on_c, 0, 74, 0
3, 18180, Note_on_c, 0, 74, 100
3, 18180, Note_on_c, 0, 66, 100
3, 18180, Note_on_c, 0, 69, 100
3, 18300, Note_on_c, 0, 69, 0
3, 18300, Note_on_c, 0, 66, 0
3, 18300, Note_on_c, 0, 74, 0
3, 36207, Control_c, 0, 7, 127
3, 36207, Control_c, 0, 7, 127
3, 36207, Control_c, 0, 7, 127
3, 36420, Control_c, 0, 7, 30
3, 36449, Control_c, 0, 7, 31
3, 36479, Control_c, 0, 7, 32
3, 36509, Control_c, 0, 7, 33
3, 36538, Control_c, 0, 7, 34
3, 36568, Control_c, 0, 7, 35
3, 36598, Control_c, 0, 7, 36
3, 36627, Control_c, 0, 7, 37
3, 36657, Control_c, 0, 7, 38
3, 36660, Note_on_c, 0, 81, 64
3, 36660, Note_on_c, 0, 78, 64
3, 36687, Control_c, 0, 7, 39
3, 36716, Control_c, 0, 7, 40
3, 36746, Control_c, 0, 7, 41
3, 36776, Control_c, 0, 7, 42
3, 36806, Control_c, 0, 7, 43
3, 36835, Control_c, 0, 7, 44
3, 36865, Control_c, 0, 7, 45
3, 36895, Control_c, 0, 7, 46
3, 36924, Control_c, 0, 7, 47
3, 36954, Control_c, 0, 7, 48
3, 36984, Control_c, 0, 7, 49
3, 37013, Control_c, 0, 7, 50
3, 37043, Control_c, 0, 7, 51
3, 37073, Control_c, 0, 7, 52
3, 37102, Control_c, 0, 7, 53
3, 37132, Control_c, 0, 7, 54
3, 37162, Control_c, 0, 7, 55
3, 37191, Control_c, 0, 7, 56
3, 37221, Control_c, 0, 7, 57
3, 37251, Control_c, 0, 7, 58
3, 37280, Control_c, 0, 7, 59
3, 37310, Control_c, 0, 7, 60
3, 37340, Control_c, 0, 7, 61
3, 37370, Control_c, 0, 7, 62
3, 37399, Control_c, 0, 7, 63
3, 37429, Control_c, 0, 7, 64
3, 37459, Control_c, 0, 7, 65
3, 37488, Control_c, 0, 7, 66
3, 37518, Control_c, 0, 7, 67
3, 37548, Control_c, 0, 7, 68
3, 37577, Control_c, 0, 7, 69
3, 37607, Control_c, 0, 7, 70
3, 37620, Note_on_c, 0, 78, 0
3, 37620, Note_on_c, 0, 81, 0
3, 37620, Note_on_c, 0, 80, 64
3, 37620, Note_on_c, 0, 76, 64
3, 37637, Control_c, 0, 7, 71
3, 37666, Control_c, 0, 7, 72
3, 37696, Control_c, 0, 7, 73
3, 37726, Control_c, 0, 7, 74
3, 37756, Control_c, 0, 7, 75
3, 37785, Control_c, 0, 7, 76
3, 37815, Control_c, 0, 7, 77
3, 37845, Control_c, 0, 7, 78
3, 37874, Control_c, 0, 7, 79
3, 37904, Control_c, 0, 7, 80
3, 37934, Control_c, 0, 7, 81
3, 37963, Control_c, 0, 7, 82
3, 37993, Control_c, 0, 7, 83
3, 38023, Control_c, 0, 7, 84
3, 38053, Control_c, 0, 7, 85
3, 38082, Control_c, 0, 7, 86
3, 38100, Note_on_c, 0, 80, 0
3, 38100, Note_on_c, 0, 79, 64
3, 38112, Control_c, 0, 7, 87
3, 38142, Control_c, 0, 7, 88
3, 38171, Control_c, 0, 7, 89
3, 38201, Control_c, 0, 7, 90
3, 38231, Control_c, 0, 7, 91
3, 38260, Control_c, 0, 7, 92
3, 38290, Control_c, 0, 7, 93
3, 38320, Control_c, 0, 7, 94
3, 38340, Note_on_c, 0, 76, 0
3, 38340, Note_on_c, 0, 76, 64
3, 38349, Control_c, 0, 7, 95
3, 38379, Control_c, 0, 7, 96
3, 38409, Control_c, 0, 7, 97
3, 38439, Control_c, 0, 7, 98
3, 38468, Control_c, 0, 7, 99
3, 38498, Control_c, 0, 7, 100
3, 38520, Note_on_c, 0, 69, 64
3, 38528, Control_c, 0, 7, 101
3, 38555, Note_on_c, 0, 69, 0
3, 38557, Control_c, 0, 7, 102
3, 38580, Note_on_c, 0, 76, 0
3, 38580, Note_on_c, 0, 79, 0
3, 38580, Note_on_c, 0, 78, 64
3, 38580, Note_on_c, 0, 74, 64
3, 38580, Note_on_c, 0, 62, 64
3, 38587, Control_c, 0, 7, 103
3, 38615, Note_on_c, 0, 62, 0
3, 38617, Control_c, 0, 7, 104
3, 38640, Note_on_c, 0, 62, 64
3, 38646, Control_c, 0, 7, 105
3, 38675, Note_on_c, 0, 62, 0
3, 38676, Control_c, 0, 7, 106
3, 38700, Note_on_c, 0, 62, 64
3, 38706, Control_c, 0, 7, 107
3, 38735, Note_on_c, 0, 62, 0
3, 38735, Control_c, 0, 7, 108
3, 38760, Note_on_c, 0, 62, 64
3, 38765, Control_c, 0, 7, 109
3, 38795, Note_on_c, 0, 62, 0
3, 38795, Control_c, 0, 7, 110
3, 38820, Note_on_c, 0, 62, 70
3, 38824, Control_c, 0, 7, 111
3, 38854, Control_c, 0, 7, 112
3, 38884, Control_c, 0, 7, 113
3, 38913, Control_c, 0, 7, 114
3, 38940, Note_on_c, 0, 62, 0
3, 38943, Control_c, 0, 7, 115
3, 38973, Control_c, 0, 7, 116
3, 39000, Note_on_c, 0, 78, 70
3, 39003, Control_c, 0, 7, 117
3, 39032, Control_c, 0, 7, 118
3, 39060, Note_on_c, 0, 78, 0
3, 39060, Note_on_c, 0, 78, 0
3, 39060, Note_on_c, 0, 76, 70
3, 39060, Note_on_c, 0, 79, 70
3, 39062, Control_c, 0, 7, 119
3, 39092, Control_c, 0, 7, 120
3, 39120, Note_on_c, 0, 79, 0
3, 39120, Note_on_c, 0, 81, 70
3, 39121, Control_c, 0, 7, 121
3, 39151, Control_c, 0, 7, 122
3, 39155, Note_on_c, 0, 81, 0
3, 39180, Note_on_c, 0, 83, 70
3, 39181, Control_c, 0, 7, 123
3, 39210, Control_c, 0, 7, 124
3, 39240, Note_on_c, 0, 83, 0
3, 39240, Note_on_c, 0, 81, 70
3, 39240, Control_c, 0, 7, 125
3, 39270, Control_c, 0, 7, 126
3, 39275, Note_on_c, 0, 81, 0
3, 39300, Note_on_c, 0, 74, 0
3, 39300, Note_on_c, 0, 69, 70
3, 39300, Note_on_c, 0, 81, 70
3, 39360, Note_on_c, 0, 76, 0
3, 39360, Note_on_c, 0, 78, 70
3, 39390, Note_on_c, 0, 78, 0
3, 39390, Note_on_c, 0, 79, 70
3, 39420, Note_on_c, 0, 79, 0
3, 39420, Note_on_c, 0, 81, 0
3, 39420, Note_on_c, 0, 69, 0
3, 39420, Note_on_c, 0, 78, 70
3, 39480, Note_on_c, 0, 78, 0
3, 39480, Note_on_c, 0, 74, 70
3, 39480, Note_on_c, 0, 74, 70
3, 39480, Note_on_c, 0, 74, 70
3, 39540, Note_on_c, 0, 74, 0
3, 39540, Note_on_c, 0, 74, 0
3, 39540, Note_on_c, 0, 74, 0
3, 39540, Note_on_c, 0, 74, 70
3, 39540, Note_on_c, 0, 74, 70
3, 39540, Note_on_c, 0, 74, 70
3, 39600, Note_on_c, 0, 74, 0
3, 39600, Note_on_c, 0, 74, 0
3, 39600, Note_on_c, 0, 74, 0
3, 39600, Note_on_c, 0, 69, 70
3, 39600, Note_on_c, 0, 69, 70
3, 39600, Note_on_c, 0, 69, 70
3, 39635, Note_on_c, 0, 69, 0
3, 39635, Note_on_c, 0, 69, 0
3, 39635, Note_on_c, 0, 69, 0
3, 39660, Note_on_c, 0, 69, 70
3, 39660, Note_on_c, 0, 69, 70
3, 39660, Note_on_c, 0, 69, 70
3, 39720, Note_on_c, 0, 69, 0
3, 39720, Note_on_c, 0, 69, 0
3, 39720, Note_on_c, 0, 69, 0
3, 39720, Note_on_c, 0, 66, 70
3, 39720, Note_on_c, 0, 66, 70
3, 39720, Note_on_c, 0, 66, 70
3, 39755, Note_on_c, 0, 66, 0
3, 39755, Note_on_c, 0, 66, 0
3, 39755, Note_on_c, 0, 66, 0
3, 39780, Note_on_c, 0, 66, 70
3, 39780, Note_on_c, 0, 66, 70
3, 39780, Note_on_c, 0, 66, 70
3, 39815, Note_on_c, 0, 66, 0
3, 39815, Note_on_c, 0, 66, 0
3, 39815, Note_on_c, 0, 66, 0
3, 39900, Note_on_c, 0, 81, 70
3, 39900, Note_on_c, 0, 78, 70
3, 39900, Note_on_c, 0, 74, 70
3, 39935, Note_on_c, 0, 74, 0
3, 39935, Note_on_c, 0, 78, 0
3, 39935, Note_on_c, 0, 81, 0
3, 40020, Note_on_c, 0, 81, 70
3, 40020, Note_on_c, 0, 78, 70
3, 40020, Note_on_c, 0, 74, 70
3, 40055, Note_on_c, 0, 74, 0
3, 40055, Note_on_c, 0, 78, 0
3, 40055, Note_on_c, 0, 81, 0
3, 40140, Note_on_c, 0, 80, 70
3, 40140, Note_on_c, 0, 76, 70
3, 40140, Note_on_c, 0, 74, 70
3, 40175, Note_on_c, 0, 74, 0
3, 40175, Note_on_c, 0, 76, 0
3, 40175, Note_on_c, 0, 80, 0
3, 40260, Note_on_c, 0, 81, 70
3, 40260, Note_on_c, 0, 76, 70
3, 40260, Note_on_c, 0, 69, 70
3, 40295, Note_on_c, 0, 69, 0
3, 40295, Note_on_c, 0, 76, 0
3, 40295, Note_on_c, 0, 81, 0
3, 45240, Note_on_c, 0, 81, 64
3, 45240, Note_on_c, 0, 76, 64
3, 45240, Note_on_c, 0, 69, 64
3, 45275, Note_on_c, 0, 69, 0
3, 45300, Note_on_c, 0, 76, 0
3, 45300, Note_on_c, 0, 81, 0
3, 45300, Note_on_c, 0, 81, 64
3, 45300, Note_on_c, 0, 78, 64
3, 45300, Note_on_c, 0, 69, 64
3, 45335, Note_on_c, 0, 69, 0
3, 45360, Note_on_c, 0, 78, 0
3, 45360, Note_on_c, 0, 81, 0
3, 45360, Note_on_c, 0, 83, 64
3, 45360, Note_on_c, 0, 79, 64
3, 45395, Note_on_c, 0, 79, 0
3, 45395, Note_on_c, 0, 83, 0
3, 45420, Note_on_c, 0, 83, 64
3, 45420, Note_on_c, 0, 79, 64
3, 45480, Note_on_c, 0, 79, 0
3, 45480, Note_on_c, 0, 83, 0
3, 45480, Note_on_c, 0, 84, 64
3, 45480, Note_on_c, 0, 81, 64
3, 45480, Note_on_c, 0, 74, 64
3, 45515, Note_on_c, 0, 74, 0
3, 45515, Note_on_c, 0, 81, 0
3, 45515, Note_on_c, 0, 84, 0
3, 45540, Note_on_c, 0, 84, 64
3, 45540, Note_on_c, 0, 81, 64
3, 45540, Note_on_c, 0, 74, 64
3, 45575, Note_on_c, 0, 74, 0
3, 45600, Note_on_c, 0, 81, 0
3, 45600, Note_on_c, 0, 84, 0
3, 45600, Note_on_c, 0, 83, 64
3, 45600, Note_on_c, 0, 79, 64
3, 45635, Note_on_c, 0, 79, 0
3, 45635, Note_on_c, 0, 83, 0
3, 45660, Note_on_c, 0, 84, 64
3, 45660, Note_on_c, 0, 81, 64
3, 45720, Note_on_c, 0, 81, 0
3, 45720, Note_on_c, 0, 84, 0
3, 45720, Note_on_c, 0, 86, 64
3, 45720, Note_on_c, 0, 83, 64
3, 45720, Note_on_c, 0, 62, 64
3, 45755, Note_on_c, 0, 62, 0
3, 45755, Note_on_c, 0, 83, 0
3, 45755, Note_on_c, 0, 86, 0
3, 45780, Note_on_c, 0, 83, 64
3, 45780, Note_on_c, 0, 79, 64
3, 45780, Note_on_c, 0, 62, 64
3, 45815, Note_on_c, 0, 62, 0
3, 45840, Note_on_c, 0, 79, 0
3, 45840, Note_on_c, 0, 83, 0
3, 45840, Note_on_c, 0, 81, 64
3, 45840, Note_on_c, 0, 78, 64
3, 45875, Note_on_c, 0, 78, 0
3, 45875, Note_on_c, 0, 81, 0
3, 45900, Note_on_c, 0, 79, 64
3, 45900, Note_on_c, 0, 76, 64
3, 45960, Note_on_c, 0, 76, 0
3, 45960, Note_on_c, 0, 79, 0
3, 45960, Note_on_c, 0, 78, 64
3, 45960, Note_on_c, 0, 74, 64
3, 45995, Note_on_c, 0, 74, 0
3, 45995, Note_on_c, 0, 78, 0
3, 46020, Note_on_c, 0, 76, 64
3, 46020, Note_on_c, 0, 69, 64
3, 46055, Note_on_c, 0, 69, 0
3, 46080, Note_on_c, 0, 76, 0
3, 46080, Note_on_c, 0, 86, 64
3, 46080, Note_on_c, 0, 69, 64
3, 46080, Note_on_c, 0, 69, 64
3, 46110, Note_on_c, 0, 69, 0
3, 46110, Note_on_c, 0, 69, 0
3, 46110, Note_on_c, 0, 86, 0
3, 46110, Note_on_c, 0, 85, 64
3, 46110, Note_on_c, 0, 69, 64
3, 46110, Note_on_c, 0, 69, 64
3, 46140, Note_on_c, 0, 69, 0
3, 46140, Note_on_c, 0, 69, 0
3, 46140, Note_on_c, 0, 85, 0
3, 46140, Note_on_c, 0, 86, 64
3, 46140, Note_on_c, 0, 69, 64
3, 46140, Note_on_c, 0, 66, 64
3, 46175, Note_on_c, 0, 66, 0
3, 46175, Note_on_c, 0, 69, 0
3, 46200, Note_on_c, 0, 86, 0
3, 46200, Note_on_c, 0, 79, 64
3, 46200, Note_on_c, 0, 74, 64
3, 46200, Note_on_c, 0, 62, 64
3, 46235, Note_on_c, 0, 62, 0
3, 46235, Note_on_c, 0, 74, 0
3, 46260, Note_on_c, 0, 79, 0
3, 46260, Note_on_c, 0, 78, 64
3, 46260, Note_on_c, 0, 74, 64
3, 46260, Note_on_c, 0, 66, 64
3, 46295, Note_on_c, 0, 66, 0
3, 46295, Note_on_c, 0, 74, 0
3, 46320, Note_on_c, 0, 69, 64
3, 46320, Note_on_c, 0, 62, 64
3, 46350, Note_on_c, 0, 69, 0
3, 46350, Note_on_c, 0, 69, 64
3, 46355, Note_on_c, 0, 62, 0
3, 46380, Note_on_c, 0, 69, 0
3, 46380, Note_on_c, 0, 78, 0
3, 46380, Note_on_c, 0, 78, 64
3, 46380, Note_on_c, 0, 69, 64
3, 46380, Note_on_c, 0, 69, 64
3, 46395, Note_on_c, 0, 78, 0
3, 46395, Note_on_c, 0, 76, 64
3, 46410, Note_on_c, 0, 76, 0
3, 46410, Note_on_c, 0, 78, 64
3, 46415, Note_on_c, 0, 69, 0
3, 46415, Note_on_c, 0, 69, 0
3, 46425, Note_on_c, 0, 78, 0
3, 46425, Note_on_c, 0, 76, 64
3, 46440, Note_on_c, 0, 76, 0
3, 46440, Note_on_c, 0, 78, 64
3, 46440, Note_on_c, 0, 69, 64
3, 46440, Note_on_c, 0, 69, 64
3, 46455, Note_on_c, 0, 78, 0
3, 46455, Note_on_c, 0, 76, 64
3, 46470, Note_on_c, 0, 76, 0
3, 46470, Note_on_c, 0, 69, 0
3, 46470, Note_on_c, 0, 74, 64
3, 46470, Note_on_c, 0, 69, 64
3, 46475, Note_on_c, 0, 69, 0
3, 46485, Note_on_c, 0, 74, 0
3, 46485, Note_on_c, 0, 76, 64
3, 46500, Note_on_c, 0, 76, 0
3, 46500, Note_on_c, 0, 69, 0
3, 46500, Note_on_c, 0, 74, 64
3, 46500, Note_on_c, 0, 69, 64
3, 46500, Note_on_c, 0, 66, 64
3, 46535, Note_on_c, 0, 69, 0
3, 46535, Note_on_c, 0, 74, 0
3, 46560, Note_on_c, 0, 74, 64
3, 46560, Note_on_c, 0, 69, 64
3, 46571, Note_on_c, 0, 66, 0
3, 46620, Note_on_c, 0, 69, 0
3, 46620, Note_on_c, 0, 74, 0
3, 46620, Note_on_c, 0, 78, 64
3, 46620, Note_on_c, 0, 81, 64
3, 46680, Note_on_c, 0, 78, 0
3, 46680, Note_on_c, 0, 81, 64
3, 46680, Note_on_c, 0, 76, 64
3, 46740, Note_on_c, 0, 76, 0
3, 46740, Note_on_c, 0, 81, 0
3, 46740, Note_on_c, 0, 86, 64
3, 46740, Note_on_c, 0, 78, 64
3, 46775, Note_on_c, 0, 78, 0
3, 46775, Note_on_c, 0, 86, 0
3, 46775, Note_on_c, 0, 81, 0
3, 46800, Note_on_c, 0, 86, 64
3, 46800, Note_on_c, 0, 83, 64
3, 46800, Note_on_c, 0, 76, 64
3, 46830, Note_on_c, 0, 83, 0
3, 46830, Note_on_c, 0, 86, 0
3, 46830, Note_on_c, 0, 85, 64
3, 46830, Note_on_c, 0, 81, 64
3, 46860, Note_on_c, 0, 81, 0
3, 46860, Note_on_c, 0, 85, 0
3, 46860, Note_on_c, 0, 76, 0
3, 46860, Note_on_c, 0, 86, 64
3, 46860, Note_on_c, 0, 80, 64
3, 46860, Note_on_c, 0, 76, 64
3, 46890, Note_on_c, 0, 80, 0
3, 46890, Note_on_c, 0, 81, 64
3, 46920, Note_on_c, 0, 81, 0
3, 46920, Note_on_c, 0, 76, 0
3, 46920, Note_on_c, 0, 86, 0
3, 46920, Note_on_c, 0, 83, 64
3, 46920, Note_on_c, 0, 78, 64
3, 46920, Note_on_c, 0, 76, 64
3, 46950, Note_on_c, 0, 78, 0
3, 46950, Note_on_c, 0, 80, 64
3, 46980, Note_on_c, 0, 80, 0
3, 46980, Note_on_c, 0, 76, 0
3, 46980, Note_on_c, 0, 83, 0
3, 46980, Note_on_c, 0, 85, 64
3, 46980, Note_on_c, 0, 81, 64
3, 46980, Note_on_c, 0, 76, 64
3, 47015, Note_on_c, 0, 76, 0
3, 47015, Note_on_c, 0, 81, 0
3, 47015, Note_on_c, 0, 85, 0
3, 47040, Note_on_c, 0, 81, 64
3, 47040, Note_on_c, 0, 76, 64
3, 47040, Note_on_c, 0, 69, 64
3, 47075, Note_on_c, 0, 69, 0
3, 47075, Note_on_c, 0, 76, 0
3, 47075, Note_on_c, 0, 81, 0
3, 48840, Note_on_c, 0, 76, 70
3, 48900, Note_on_c, 0, 76, 0
3, 48900, Note_on_c, 0, 76, 70
3, 48900, Note_on_c, 0, 69, 70
3, 48900, Note_on_c, 0, 69, 70
3, 48960, Note_on_c, 0, 69, 0
3, 48960, Note_on_c, 0, 69, 0
3, 48960, Note_on_c, 0, 76, 0
3, 48960, Note_on_c, 0, 78, 70
3, 48960, Note_on_c, 0, 74, 70
3, 48960, Note_on_c, 0, 69, 70
3, 48995, Note_on_c, 0, 74, 0
3, 48995, Note_on_c, 0, 78, 0
3, 49020, Note_on_c, 0, 69, 0
3, 49020, Note_on_c, 0, 78, 70
3, 49020, Note_on_c, 0, 74, 70
3, 49020, Note_on_c, 0, 69, 70
3, 49080, Note_on_c, 0, 69, 0
3, 49080, Note_on_c, 0, 74, 0
3, 49080, Note_on_c, 0, 78, 0
3, 49080, Note_on_c, 0, 79, 70
3, 49080, Note_on_c, 0, 76, 70
3, 49080, Note_on_c, 0, 69, 70
3, 49115, Note_on_c, 0, 76, 0
3, 49115, Note_on_c, 0, 79, 0
3, 49140, Note_on_c, 0, 69, 0
3, 49140, Note_on_c, 0, 79, 70
3, 49140, Note_on_c, 0, 76, 70
3, 49140, Note_on_c, 0, 69, 70
3, 49200, Note_on_c, 0, 69, 0
3, 49200, Note_on_c, 0, 76, 0
3, 49200, Note_on_c, 0, 79, 0
3, 49200, Note_on_c, 0, 78, 70
3, 49200, Note_on_c, 0, 74, 70
3, 49200, Note_on_c, 0, 69, 70
3, 49235, Note_on_c, 0, 74, 0
3, 49235, Note_on_c, 0, 78, 0
3, 49260, Note_on_c, 0, 69, 0
3, 49260, Note_on_c, 0, 79, 70
3, 49260, Note_on_c, 0, 76, 70
3, 49260, Note_on_c, 0, 69, 70
3, 49320, Note_on_c, 0, 69, 0
3, 49320, Note_on_c, 0, 76, 0
3, 49320, Note_on_c, 0, 79, 0
3, 49320, Note_on_c, 0, 81, 70
3, 49320, Note_on_c, 0, 78, 70
3, 49320, Note_on_c, 0, 69, 70
3, 49355, Note_on_c, 0, 78, 0
3, 49355, Note_on_c, 0, 81, 0
3, 49380, Note_on_c, 0, 69, 0
3, 49380, Note_on_c, 0, 78, 70
3, 49380, Note_on_c, 0, 74, 70
3, 49380, Note_on_c, 0, 69, 70
3, 49500, Note_on_c, 0, 69, 0
3, 49500, Note_on_c, 0, 74, 0
3, 49500, Note_on_c, 0, 78, 0
3, 49920, Note_on_c, 0, 83, 70
3, 49920, Note_on_c, 0, 79, 70
3, 49920, Note_on_c, 0, 74, 70
3, 49955, Note_on_c, 0, 74, 0
3, 49955, Note_on_c, 0, 79, 0
3, 49955, Note_on_c, 0, 83, 0
3, 49980, Note_on_c, 0, 79, 70
3, 49980, Note_on_c, 0, 74, 70
3, 49980, Note_on_c, 0, 62, 70
3, 50100, Note_on_c, 0, 62, 0
3, 50100, Note_on_c, 0, 74, 0
3, 50100, Note_on_c, 0, 79, 0
3, 50640, Note_on_c, 0, 85, 70
3, 50640, Note_on_c, 0, 81, 70
3, 50640, Note_on_c, 0, 76, 70
3, 50675, Note_on_c, 0, 76, 0
3, 50675, Note_on_c, 0, 81, 0
3, 50675, Note_on_c, 0, 85, 0
3, 50700, Note_on_c, 0, 81, 70
3, 50700, Note_on_c, 0, 76, 70
3, 50700, Note_on_c, 0, 69, 70
3, 50820, Note_on_c, 0, 69, 0
3, 50820, Note_on_c, 0, 76, 0
3, 50820, Note_on_c, 0, 81, 0
3, 51360, Note_on_c, 0, 86, 70
3, 51360, Note_on_c, 0, 83, 70
3, 51360, Note_on_c, 0, 78, 70
3, 51395, Note_on_c, 0, 78, 0
3, 51395, Note_on_c, 0, 83, 0
3, 51395, Note_on_c, 0, 86, 0
3, 51420, Note_on_c, 0, 83, 70
3, 51420, Note_on_c, 0, 78, 70
3, 51420, Note_on_c, 0, 74, 70
3, 51540, Note_on_c, 0, 74, 0
3, 51540, Note_on_c, 0, 78, 0
3, 51540, Note_on_c, 0, 83, 0
3, 53160, Note_on_c, 0, 81, 87
3, 53160, Note_on_c, 0, 76, 87
3, 53160, Note_on_c, 0, 69, 87
3, 53220, Note_on_c, 0, 69, 0
3, 53220, Note_on_c, 0, 76, 0
3, 53220, Note_on_c, 0, 81, 0
3, 53220, Note_on_c, 0, 81, 88
3, 53220, Note_on_c, 0, 78, 88
3, 53220, Note_on_c, 0, 62, 88
3, 53255, Note_on_c, 0, 62, 0
3, 53255, Note_on_c, 0, 78, 0
3, 53280, Note_on_c, 0, 81, 0
3, 53280, Note_on_c, 0, 83, 88
3, 53315, Note_on_c, 0, 83, 0
3, 53340, Note_on_c, 0, 83, 89
3, 53340, Note_on_c, 0, 79, 89
3, 53340, Note_on_c, 0, 74, 89
3, 53375, Note_on_c, 0, 74, 0
3, 53375, Note_on_c, 0, 79, 0
3, 53400, Note_on_c, 0, 83, 0
3, 53400, Note_on_c, 0, 84, 90
3, 53435, Note_on_c, 0, 84, 0
3, 53460, Note_on_c, 0, 84, 91
3, 53460, Note_on_c, 0, 81, 91
3, 53460, Note_on_c, 0, 76, 91
3, 53495, Note_on_c, 0, 76, 0
3, 53495, Note_on_c, 0, 81, 0
3, 53520, Note_on_c, 0, 84, 0
3, 53520, Note_on_c, 0, 83, 92
3, 53555, Note_on_c, 0, 83, 0
3, 53580, Note_on_c, 0, 84, 93
3, 53580, Note_on_c, 0, 81, 93
3, 53580, Note_on_c, 0, 78, 93
3, 53615, Note_on_c, 0, 78, 0
3, 53615, Note_on_c, 0, 81, 0
3, 53640, Note_on_c, 0, 84, 0
3, 53640, Note_on_c, 0, 86, 94
3, 53675, Note_on_c, 0, 86, 0
3, 53700, Note_on_c, 0, 83, 95
3, 53700, Note_on_c, 0, 79, 95
3, 53700, Note_on_c, 0, 74, 95
3, 53760, Note_on_c, 0, 79, 0
3, 53760, Note_on_c, 0, 83, 0
3, 53760, Note_on_c, 0, 81, 96
3, 53760, Note_on_c, 0, 78, 96
3, 53795, Note_on_c, 0, 78, 0
3, 53795, Note_on_c, 0, 81, 0
3, 53820, Note_on_c, 0, 74, 0
3, 53820, Note_on_c, 0, 79, 97
3, 53820, Note_on_c, 0, 76, 97
3, 53880, Note_on_c, 0, 76, 0
3, 53880, Note_on_c, 0, 79, 0
3, 53880, Note_on_c, 0, 78, 98
3, 53880, Note_on_c, 0, 74, 98
3, 53880, Note_on_c, 0, 62, 98
3, 53915, Note_on_c, 0, 62, 0
3, 53915, Note_on_c, 0, 74, 0
3, 53915, Note_on_c, 0, 78, 0
3, 53940, Note_on_c, 0, 76, 99
3, 53940, Note_on_c, 0, 69, 99
3, 53940, Note_on_c, 0, 69, 99
3, 53975, Note_on_c, 0, 69, 0
3, 53975, Note_on_c, 0, 69, 0
3, 54000, Note_on_c, 0, 76, 0
3, 54000, Note_on_c, 0, 86, 100
3, 54000, Note_on_c, 0, 74, 100
3, 54000, Note_on_c, 0, 69, 100
3, 54030, Note_on_c, 0, 69, 0
3, 54030, Note_on_c, 0, 74, 0
3, 54030, Note_on_c, 0, 86, 0
3, 54030, Note_on_c, 0, 85, 100
3, 54030, Note_on_c, 0, 76, 100
3, 54030, Note_on_c, 0, 69, 100
3, 54060, Note_on_c, 0, 69, 0
3, 54060, Note_on_c, 0, 76, 0
3, 54060, Note_on_c, 0, 85, 0
3, 54060, Note_on_c, 0, 86, 101
3, 54060, Note_on_c, 0, 74, 101
3, 54060, Note_on_c, 0, 69, 101
3, 54095, Note_on_c, 0, 69, 0
3, 54095, Note_on_c, 0, 74, 0
3, 54120, Note_on_c, 0, 86, 0
3, 54120, Note_on_c, 0, 79, 102
3, 54120, Note_on_c, 0, 74, 102
3, 54120, Note_on_c, 0, 69, 102
3, 54155, Note_on_c, 0, 69, 0
3, 54155, Note_on_c, 0, 74, 0
3, 54155, Note_on_c, 0, 79, 0
3, 54180, Note_on_c, 0, 78, 103
3, 54180, Note_on_c, 0, 74, 103
3, 54180, Note_on_c, 0, 69, 103
3, 54215, Note_on_c, 0, 69, 0
3, 54215, Note_on_c, 0, 74, 0
3, 54240, Note_on_c, 0, 69, 103
3, 54240, Note_on_c, 0, 66, 103
3, 54270, Note_on_c, 0, 66, 0
3, 54270, Note_on_c, 0, 62, 104
3, 54275, Note_on_c, 0, 69, 0
3, 54300, Note_on_c, 0, 62, 0
3, 54300, Note_on_c, 0, 78, 0
3, 54300, Note_on_c, 0, 76, 104
3, 54300, Note_on_c, 0, 69, 104
3, 54300, Note_on_c, 0, 69, 104
3, 54335, Note_on_c, 0, 69, 0
3, 54335, Note_on_c, 0, 69, 0
3, 54360, Note_on_c, 0, 69, 105
3, 54360, Note_on_c, 0, 69, 105
3, 54390, Note_on_c, 0, 69, 0
3, 54390, Note_on_c, 0, 69, 0
3, 54390, Note_on_c, 0, 69, 106
3, 54390, Note_on_c, 0, 69, 106
3, 54420, Note_on_c, 0, 69, 0
3, 54420, Note_on_c, 0, 69, 0
3, 54420, Note_on_c, 0, 76, 0
3, 54420, Note_on_c, 0, 74, 106
3, 54420, Note_on_c, 0, 69, 106
3, 54420, Note_on_c, 0, 66, 106
3, 54660, Note_on_c, 0, 66, 0
3, 54660, Note_on_c, 0, 69, 0
3, 54660, Note_on_c, 0, 74, 0
3, 55140, End_track
4, 0, Start_track
4, 0, MIDI_port, 0
4, 0, Title_t, "Timpani"
4, 0, Program_c, 1, 47
4, 180, Note_on_c, 1, 50, 70
4, 240, Note_on_c, 1, 50, 0
4, 360, Note_on_c, 1, 45, 70
4, 420, Note_on_c, 1, 45, 0
4, 540, Note_on_c, 1, 50, 70
4, 600, Note_on_c, 1, 50, 0
4, 720, Note_on_c, 1, 45, 70
4, 780, Note_on_c, 1, 45, 0
4, 900, Note_on_c, 1, 50, 70
4, 960, Note_on_c, 1, 50, 0
4, 960, Note_on_c, 1, 50, 70
4, 1020, Note_on_c, 1, 50, 0
4, 1020, Note_on_c, 1, 45, 70
4, 1080, Note_on_c, 1, 45, 0
4, 1080, Note_on_c, 1, 50, 70
4, 1140, Note_on_c, 1, 50, 0
4, 1140, Note_on_c, 1, 50, 70
4, 1170, Note_on_c, 1, 50, 0
4, 1170, Note_on_c, 1, 50, 70
4, 1200, Note_on_c, 1, 50, 0
4, 1200, Note_on_c, 1, 50, 70
4, 1230, Note_on_c, 1, 50, 0
4, 1230, Note_on_c, 1, 50, 70
4, 1260, Note_on_c, 1, 50, 0
4, 1260, Note_on_c, 1, 45, 70
4, 1320, Note_on_c, 1, 45, 0
4, 1440, Note_on_c, 1, 45, 70
4, 1500, Note_on_c, 1, 45, 0
4, 1620, Note_on_c, 1, 45, 70
4, 1680, Note_on_c, 1, 45, 0
4, 2700, Note_on_c, 1, 45, 40
4, 2760, Note_on_c, 1, 45, 0
4, 2940, Note_on_c, 1, 45, 40
4, 3000, Note_on_c, 1, 45, 0
4, 3000, Note_on_c, 1, 45, 40
4, 3060, Note_on_c, 1, 45, 0
4, 3060, Note_on_c, 1, 50, 45
4, 3120, Note_on_c, 1, 50, 0
4, 3360, Note_on_c, 1, 45, 53
4, 3420, Note_on_c, 1, 45, 0
4, 3420, Note_on_c, 1, 50, 55
4, 3480, Note_on_c, 1, 50, 0
4, 3720, Note_on_c, 1, 45, 62
4, 3780, Note_on_c, 1, 45, 0
4, 3780, Note_on_c, 1, 50, 64
4, 3840, Note_on_c, 1, 50, 0
4, 4080, Note_on_c, 1, 50, 71
4, 4140, Note_on_c, 1, 50, 0
4, 4140, Note_on_c, 1, 50, 72
4, 4200, Note_on_c, 1, 50, 0
4, 4380, Note_on_c, 1, 45, 77
4, 4410, Note_on_c, 1, 45, 0
4, 4410, Note_on_c, 1, 45, 78
4, 4440, Note_on_c, 1, 45, 0
4, 4440, Note_on_c, 1, 45, 79
4, 4470, Note_on_c, 1, 45, 0
4, 4470, Note_on_c, 1, 45, 79
4, 4500, Note_on_c, 1, 45, 0
4, 4500, Note_on_c, 1, 50, 80
4, 4535, Control_c, 1, 7, 75
4, 4560, Note_on_c, 1, 50, 0
4, 4860, Note_on_c, 1, 50, 64
4, 4920, Note_on_c, 1, 50, 0
4, 5220, Note_on_c, 1, 50, 55
4, 5280, Note_on_c, 1, 50, 0
4, 5280, Note_on_c, 1, 50, 56
4, 5340, Note_on_c, 1, 50, 0
4, 5340, Note_on_c, 1, 45, 57
4, 5400, Note_on_c, 1, 45, 0
4, 5400, Note_on_c, 1, 50, 58
4, 5460, Note_on_c, 1, 50, 0
4, 5460, Note_on_c, 1, 50, 59
4, 5490, Note_on_c, 1, 50, 0
4, 5490, Note_on_c, 1, 50, 60
4, 5520, Note_on_c, 1, 50, 0
4, 5520, Note_on_c, 1, 50, 60
4, 5550, Note_on_c, 1, 50, 0
4, 5550, Note_on_c, 1, 50, 61
4, 5580, Note_on_c, 1, 50, 0
4, 5580, Note_on_c, 1, 45, 61
4, 5640, Note_on_c, 1, 45, 0
4, 5760, Note_on_c, 1, 45, 64
4, 5820, Note_on_c, 1, 45, 0
4, 5940, Note_on_c, 1, 45, 67
4, 6000, Note_on_c, 1, 45, 0
4, 7380, Control_c, 1, 7, 75
4, 7380, Note_on_c, 1, 45, 64
4, 7440, Note_on_c, 1, 45, 0
4, 7740, Note_on_c, 1, 45, 64
4, 7800, Note_on_c, 1, 45, 0
4, 8100, Note_on_c, 1, 45, 70
4, 8160, Note_on_c, 1, 45, 0
4, 8160, Note_on_c, 1, 45, 70
4, 8220, Note_on_c, 1, 45, 0
4, 8220, Note_on_c, 1, 50, 70
4, 8280, Note_on_c, 1, 50, 0
4, 8280, Note_on_c, 1, 45, 70
4, 8340, Note_on_c, 1, 45, 0
4, 11700, Control_c, 1, 7, 127
4, 11700, Note_on_c, 1, 45, 64
4, 11760, Note_on_c, 1, 45, 0
4, 12060, Note_on_c, 1, 45, 64
4, 12120, Note_on_c, 1, 45, 0
4, 12420, Note_on_c, 1, 45, 64
4, 12480, Note_on_c, 1, 45, 0
4, 13860, Control_c, 1, 7, 127
4, 13860, Note_on_c, 1, 50, 64
4, 13920, Note_on_c, 1, 50, 0
4, 14040, Note_on_c, 1, 45, 64
4, 14100, Note_on_c, 1, 45, 0
4, 14220, Note_on_c, 1, 50, 64
4, 14280, Note_on_c, 1, 50, 0
4, 14400, Note_on_c, 1, 45, 64
4, 14460, Note_on_c, 1, 45, 0
4, 14580, Note_on_c, 1, 50, 64
4, 14640, Note_on_c, 1, 50, 0
4, 14640, Note_on_c, 1, 50, 64
4, 14700, Note_on_c, 1, 50, 0
4, 14700, Note_on_c, 1, 45, 64
4, 14760, Note_on_c, 1, 45, 0
4, 14760, Note_on_c, 1, 50, 64
4, 14820, Note_on_c, 1, 50, 0
4, 14820, Note_on_c, 1, 50, 64
4, 14850, Note_on_c, 1, 50, 0
4, 14850, Note_on_c, 1, 50, 64
4, 14880, Note_on_c, 1, 50, 0
4, 14880, Note_on_c, 1, 50, 64
4, 14910, Note_on_c, 1, 50, 0
4, 14910, Note_on_c, 1, 50, 64
4, 14940, Note_on_c, 1, 50, 0
4, 14940, Note_on_c, 1, 45, 64
4, 15000, Note_on_c, 1, 45, 0
4, 15120, Note_on_c, 1, 45, 64
4, 15180, Note_on_c, 1, 45, 0
4, 15300, Note_on_c, 1, 45, 64
4, 15360, Note_on_c, 1, 45, 0
4, 15480, Control_c, 1, 7, 75
4, 16380, Note_on_c, 1, 45, 64
4, 16440, Note_on_c, 1, 45, 0
4, 16620, Note_on_c, 1, 45, 64
4, 16680, Note_on_c, 1, 45, 0
4, 16680, Note_on_c, 1, 45, 64
4, 16740, Note_on_c, 1, 45, 0
4, 16740, Control_c, 1, 7, 75
4, 16740, Note_on_c, 1, 50, 64
4, 16800, Note_on_c, 1, 50, 0
4, 17040, Note_on_c, 1, 45, 67
4, 17100, Note_on_c, 1, 45, 0
4, 17100, Note_on_c, 1, 50, 68
4, 17160, Note_on_c, 1, 50, 0
4, 17400, Note_on_c, 1, 45, 71
4, 17460, Note_on_c, 1, 45, 0
4, 17460, Note_on_c, 1, 50, 72
4, 17520, Note_on_c, 1, 50, 0
4, 17760, Note_on_c, 1, 50, 75
4, 17820, Note_on_c, 1, 50, 0
4, 17820, Note_on_c, 1, 50, 76
4, 17880, Note_on_c, 1, 50, 0
4, 18060, Note_on_c, 1, 45, 79
4, 18090, Note_on_c, 1, 45, 0
4, 18090, Note_on_c, 1, 45, 79
4, 18120, Note_on_c, 1, 45, 0
4, 18120, Note_on_c, 1, 45, 79
4, 18150, Note_on_c, 1, 45, 0
4, 18150, Note_on_c, 1, 45, 80
4, 18180, Note_on_c, 1, 45, 0
4, 18180, Note_on_c, 1, 50, 100
4, 18300, Note_on_c, 1, 50, 0
4, 36207, Control_c, 1, 7, 127
4, 38520, Note_on_c, 1, 45, 65
4, 38580, Note_on_c, 1, 45, 0
4, 38580, Note_on_c, 1, 50, 65
4, 38700, Note_on_c, 1, 50, 0
4, 38700, Note_on_c, 1, 50, 66
4, 38820, Note_on_c, 1, 50, 0
4, 38820, Note_on_c, 1, 50, 66
4, 38940, Note_on_c, 1, 50, 0
4, 39000, Note_on_c, 1, 50, 67
4, 39060, Note_on_c, 1, 50, 0
4, 39060, Note_on_c, 1, 50, 67
4, 39180, Note_on_c, 1, 50, 0
4, 39180, Note_on_c, 1, 50, 68
4, 39300, Note_on_c, 1, 50, 0
4, 39300, Note_on_c, 1, 45, 68
4, 39420, Note_on_c, 1, 45, 0
4, 39420, Note_on_c, 1, 50, 69
4, 39480, Note_on_c, 1, 50, 0
4, 39480, Note_on_c, 1, 50, 69
4, 39540, Note_on_c, 1, 50, 0
4, 39540, Note_on_c, 1, 50, 69
4, 39600, Note_on_c, 1, 50, 0
4, 39600, Note_on_c, 1, 45, 69
4, 39635, Note_on_c, 1, 45, 0
4, 39660, Note_on_c, 1, 45, 70
4, 39720, Note_on_c, 1, 45, 0
4, 39720, Note_on_c, 1, 50, 70
4, 39755, Note_on_c, 1, 50, 0
4, 39780, Note_on_c, 1, 50, 64
4, 39815, Note_on_c, 1, 50, 0
4, 40260, Note_on_c, 1, 45, 64
4, 40295, Note_on_c, 1, 45, 0
4, 45180, Note_on_c, 1, 45, 64
4, 45215, Note_on_c, 1, 45, 0
4, 45240, Note_on_c, 1, 50, 64
4, 45255, Note_on_c, 1, 50, 0
4, 45255, Note_on_c, 1, 50, 64
4, 45270, Note_on_c, 1, 50, 0
4, 45270, Note_on_c, 1, 50, 64
4, 45285, Note_on_c, 1, 50, 0
4, 45285, Note_on_c, 1, 50, 64
4, 45300, Note_on_c, 1, 50, 0
4, 45300, Note_on_c, 1, 50, 64
4, 45315, Note_on_c, 1, 50, 0
4, 45315, Note_on_c, 1, 50, 64
4, 45330, Note_on_c, 1, 50, 0
4, 45330, Note_on_c, 1, 50, 64
4, 45345, Note_on_c, 1, 50, 0
4, 45345, Note_on_c, 1, 50, 64
4, 45360, Note_on_c, 1, 50, 0
4, 45360, Note_on_c, 1, 50, 64
4, 45375, Note_on_c, 1, 50, 0
4, 45375, Note_on_c, 1, 50, 64
4, 45390, Note_on_c, 1, 50, 0
4, 45390, Note_on_c, 1, 50, 64
4, 45405, Note_on_c, 1, 50, 0
4, 45405, Note_on_c, 1, 50, 64
4, 45420, Note_on_c, 1, 50, 0
4, 45420, Note_on_c, 1, 50, 64
4, 45435, Note_on_c, 1, 50, 0
4, 45435, Note_on_c, 1, 50, 64
4, 45450, Note_on_c, 1, 50, 0
4, 45450, Note_on_c, 1, 50, 64
4, 45465, Note_on_c, 1, 50, 0
4, 45465, Note_on_c, 1, 50, 64
4, 45480, Note_on_c, 1, 50, 0
4, 45480, Note_on_c, 1, 50, 64
4, 45495, Note_on_c, 1, 50, 0
4, 45495, Note_on_c, 1, 50, 64
4, 45510, Note_on_c, 1, 50, 0
4, 45510, Note_on_c, 1, 50, 64
4, 45525, Note_on_c, 1, 50, 0
4, 45525, Note_on_c, 1, 50, 64
4, 45540, Note_on_c, 1, 50, 0
4, 45540, Note_on_c, 1, 50, 64
4, 45555, Note_on_c, 1, 50, 0
4, 45555, Note_on_c, 1, 50, 64
4, 45570, Note_on_c, 1, 50, 0
4, 45570, Note_on_c, 1, 50, 64
4, 45585, Note_on_c, 1, 50, 0
4, 45585, Note_on_c, 1, 50, 64
4, 45600, Note_on_c, 1, 50, 0
4, 45600, Note_on_c, 1, 50, 64
4, 45615, Note_on_c, 1, 50, 0
4, 45615, Note_on_c, 1, 50, 64
4, 45630, Note_on_c, 1, 50, 0
4, 45630, Note_on_c, 1, 50, 64
4, 45645, Note_on_c, 1, 50, 0
4, 45645, Note_on_c, 1, 50, 64
4, 45660, Note_on_c, 1, 50, 0
4, 45660, Note_on_c, 1, 50, 64
4, 45675, Note_on_c, 1, 50, 0
4, 45675, Note_on_c, 1, 50, 64
4, 45690, Note_on_c, 1, 50, 0
4, 45690, Note_on_c, 1, 50, 64
4, 45705, Note_on_c, 1, 50, 0
4, 45705, Note_on_c, 1, 50, 64
4, 45720, Note_on_c, 1, 50, 0
4, 45720, Note_on_c, 1, 50, 64
4, 45735, Note_on_c, 1, 50, 0
4, 45735, Note_on_c, 1, 50, 64
4, 45750, Note_on_c, 1, 50, 0
4, 45750, Note_on_c, 1, 50, 64
4, 45765, Note_on_c, 1, 50, 0
4, 45765, Note_on_c, 1, 50, 64
4, 45780, Note_on_c, 1, 50, 0
4, 45780, Note_on_c, 1, 50, 64
4, 45795, Note_on_c, 1, 50, 0
4, 45795, Note_on_c, 1, 50, 64
4, 45810, Note_on_c, 1, 50, 0
4, 45810, Note_on_c, 1, 50, 64
4, 45825, Note_on_c, 1, 50, 0
4, 45825, Note_on_c, 1, 50, 64
4, 45840, Note_on_c, 1, 50, 0
4, 45840, Note_on_c, 1, 50, 64
4, 45855, Note_on_c, 1, 50, 0
4, 45855, Note_on_c, 1, 50, 64
4, 45870, Note_on_c, 1, 50, 0
4, 45870, Note_on_c, 1, 50, 64
4, 45885, Note_on_c, 1, 50, 0
4, 45885, Note_on_c, 1, 50, 64
4, 45900, Note_on_c, 1, 50, 0
4, 46080, Note_on_c, 1, 45, 64
4, 46110, Note_on_c, 1, 45, 0
4, 46110, Note_on_c, 1, 45, 64
4, 46140, Note_on_c, 1, 45, 0
4, 46140, Note_on_c, 1, 50, 64
4, 46175, Note_on_c, 1, 50, 0
4, 46200, Note_on_c, 1, 50, 64
4, 46235, Note_on_c, 1, 50, 0
4, 46260, Note_on_c, 1, 45, 64
4, 46295, Note_on_c, 1, 45, 0
4, 46320, Note_on_c, 1, 45, 64
4, 46350, Note_on_c, 1, 45, 0
4, 46350, Note_on_c, 1, 45, 64
4, 46380, Note_on_c, 1, 45, 0
4, 46380, Note_on_c, 1, 45, 64
4, 46415, Note_on_c, 1, 45, 0
4, 46440, Note_on_c, 1, 45, 64
4, 46475, Note_on_c, 1, 45, 0
4, 46500, Note_on_c, 1, 50, 64
4, 46620, Note_on_c, 1, 50, 0
4, 46680, Note_on_c, 1, 50, 64
4, 46740, Note_on_c, 1, 50, 0
4, 46740, Note_on_c, 1, 50, 64
4, 46860, Note_on_c, 1, 50, 0
4, 46980, Note_on_c, 1, 45, 64
4, 47040, Note_on_c, 1, 45, 0
4, 48900, Note_on_c, 1, 45, 70
4, 48915, Note_on_c, 1, 45, 0
4, 48915, Note_on_c, 1, 45, 70
4, 48930, Note_on_c, 1, 45, 0
4, 48930, Note_on_c, 1, 45, 70
4, 48945, Note_on_c, 1, 45, 0
4, 48945, Note_on_c, 1, 45, 70
4, 48960, Note_on_c, 1, 45, 0
4, 48960, Note_on_c, 1, 45, 70
4, 48975, Note_on_c, 1, 45, 0
4, 48975, Note_on_c, 1, 45, 70
4, 48990, Note_on_c, 1, 45, 0
4, 48990, Note_on_c, 1, 45, 70
4, 49005, Note_on_c, 1, 45, 0
4, 49005, Note_on_c, 1, 45, 70
4, 49020, Note_on_c, 1, 45, 0
4, 49020, Note_on_c, 1, 45, 70
4, 49035, Note_on_c, 1, 45, 0
4, 49035, Note_on_c, 1, 45, 70
4, 49050, Note_on_c, 1, 45, 0
4, 49050, Note_on_c, 1, 45, 70
4, 49065, Note_on_c, 1, 45, 0
4, 49065, Note_on_c, 1, 45, 70
4, 49080, Note_on_c, 1, 45, 0
4, 49080, Note_on_c, 1, 45, 70
4, 49095, Note_on_c, 1, 45, 0
4, 49095, Note_on_c, 1, 45, 70
4, 49110, Note_on_c, 1, 45, 0
4, 49110, Note_on_c, 1, 45, 70
4, 49125, Note_on_c, 1, 45, 0
4, 49125, Note_on_c, 1, 45, 70
4, 49140, Note_on_c, 1, 45, 0
4, 49140, Note_on_c, 1, 45, 70
4, 49155, Note_on_c, 1, 45, 0
4, 49155, Note_on_c, 1, 45, 70
4, 49170, Note_on_c, 1, 45, 0
4, 49170, Note_on_c, 1, 45, 70
4, 49185, Note_on_c, 1, 45, 0
4, 49185, Note_on_c, 1, 45, 70
4, 49200, Note_on_c, 1, 45, 0
4, 49200, Note_on_c, 1, 45, 70
4, 49215, Note_on_c, 1, 45, 0
4, 49215, Note_on_c, 1, 45, 70
4, 49230, Note_on_c, 1, 45, 0
4, 49230, Note_on_c, 1, 45, 70
4, 49245, Note_on_c, 1, 45, 0
4, 49245, Note_on_c, 1, 45, 70
4, 49260, Note_on_c, 1, 45, 0
4, 49260, Note_on_c, 1, 45, 70
4, 49275, Note_on_c, 1, 45, 0
4, 49275, Note_on_c, 1, 45, 70
4, 49290, Note_on_c, 1, 45, 0
4, 49290, Note_on_c, 1, 45, 70
4, 49305, Note_on_c, 1, 45, 0
4, 49305, Note_on_c, 1, 45, 70
4, 49320, Note_on_c, 1, 45, 0
4, 49320, Note_on_c, 1, 45, 70
4, 49335, Note_on_c, 1, 45, 0
4, 49335, Note_on_c, 1, 45, 70
4, 49350, Note_on_c, 1, 45, 0
4, 49350, Note_on_c, 1, 45, 70
4, 49365, Note_on_c, 1, 45, 0
4, 49365, Note_on_c, 1, 45, 70
4, 49380, Note_on_c, 1, 45, 0
4, 49380, Note_on_c, 1, 50, 70
4, 49500, Note_on_c, 1, 50, 0
4, 49860, Note_on_c, 1, 50, 70
4, 49980, Note_on_c, 1, 50, 0
4, 50580, Note_on_c, 1, 45, 70
4, 50700, Note_on_c, 1, 45, 0
4, 51300, Note_on_c, 1, 50, 70
4, 51420, Note_on_c, 1, 50, 0
4, 53160, Note_on_c, 1, 45, 87
4, 53220, Note_on_c, 1, 45, 0
4, 53220, Note_on_c, 1, 50, 88
4, 53340, Note_on_c, 1, 50, 0
4, 53640, Note_on_c, 1, 50, 94
4, 53700, Note_on_c, 1, 50, 0
4, 53700, Note_on_c, 1, 50, 95
4, 53820, Note_on_c, 1, 50, 0
4, 53880, Note_on_c, 1, 50, 98
4, 53940, Note_on_c, 1, 50, 0
4, 53940, Note_on_c, 1, 45, 99
4, 54000, Note_on_c, 1, 45, 0
4, 54000, Note_on_c, 1, 45, 100
4, 54030, Note_on_c, 1, 45, 0
4, 54030, Note_on_c, 1, 45, 100
4, 54060, Note_on_c, 1, 45, 0
4, 54060, Note_on_c, 1, 50, 101
4, 54120, Note_on_c, 1, 50, 0
4, 54120, Note_on_c, 1, 50, 102
4, 54155, Note_on_c, 1, 50, 0
4, 54180, Note_on_c, 1, 45, 103
4, 54240, Note_on_c, 1, 45, 0
4, 54240, Note_on_c, 1, 45, 103
4, 54270, Note_on_c, 1, 45, 0
4, 54270, Note_on_c, 1, 45, 104
4, 54300, Note_on_c, 1, 45, 0
4, 54300, Note_on_c, 1, 45, 104
4, 54360, Note_on_c, 1, 45, 0
4, 54360, Note_on_c, 1, 45, 105
4, 54420, Note_on_c, 1, 45, 0
4, 54420, Note_on_c, 1, 50, 106
4, 54660, Note_on_c, 1, 50, 0
4, 55140, End_track
5, 0, Start_track
5, 0, MIDI_port, 0
5, 0, Title_t, "Flute"
5, 0, Program_c, 2, 73
5, 210, Note_on_c, 2, 62, 70
5, 210, Note_on_c, 2, 62, 70
5, 240, Note_on_c, 2, 62, 0
5, 240, Note_on_c, 2, 62, 0
5, 240, Note_on_c, 2, 66, 70
5, 240, Note_on_c, 2, 66, 70
5, 270, Note_on_c, 2, 66, 0
5, 270, Note_on_c, 2, 66, 0
5, 270, Note_on_c, 2, 69, 70
5, 270, Note_on_c, 2, 69, 70
5, 300, Note_on_c, 2, 69, 0
5, 300, Note_on_c, 2, 69, 0
5, 300, Note_on_c, 2, 66, 70
5, 300, Note_on_c, 2, 66, 70
5, 330, Note_on_c, 2, 66, 0
5, 330, Note_on_c, 2, 66, 0
5, 330, Note_on_c, 2, 62, 70
5, 330, Note_on_c, 2, 62, 70
5, 360, Note_on_c, 2, 62, 0
5, 360, Note_on_c, 2, 62, 0
5, 360, Note_on_c, 2, 69, 70
5, 360, Note_on_c, 2, 69, 70
5, 570, Note_on_c, 2, 69, 0
5, 570, Note_on_c, 2, 69, 0
5, 570, Note_on_c, 2, 62, 70
5, 570, Note_on_c, 2, 62, 70
5, 600, Note_on_c, 2, 62, 0
5, 600, Note_on_c, 2, 62, 0
5, 600, Note_on_c, 2, 66, 70
5, 600, Note_on_c, 2, 66, 70
5, 630, Note_on_c, 2, 66, 0
5, 630, Note_on_c, 2, 66, 0
5, 630, Note_on_c, 2, 69, 70
5, 630, Note_on_c, 2, 69, 70
5, 660, Note_on_c, 2, 69, 0
5, 660, Note_on_c, 2, 69, 0
5, 660, Note_on_c, 2, 66, 70
5, 660, Note_on_c, 2, 66, 70
5, 690, Note_on_c, 2, 66, 0
5, 690, Note_on_c, 2, 66, 0
5, 690, Note_on_c, 2, 62, 70
5, 690, Note_on_c, 2, 62, 70
5, 720, Note_on_c, 2, 62, 0
5, 720, Note_on_c, 2, 62, 0
5, 720, Note_on_c, 2, 69, 70
5, 720, Note_on_c, 2, 69, 70
5, 930, Note_on_c, 2, 69, 0
5, 930, Note_on_c, 2, 69, 0
5, 930, Note_on_c, 2, 69, 70
5, 930, Note_on_c, 2, 69, 70
5, 960, Note_on_c, 2, 69, 0
5, 960, Note_on_c, 2, 69, 0
5, 960, Note_on_c, 2, 74, 70
5, 960, Note_on_c, 2, 74, 70
5, 990, Note_on_c, 2, 74, 0
5, 990, Note_on_c, 2, 74, 0
5, 990, Note_on_c, 2, 78, 70
5, 990, Note_on_c, 2, 78, 70
5, 1020, Note_on_c, 2, 78, 0
5, 1020, Note_on_c, 2, 78, 0
5, 1020, Note_on_c, 2, 81, 70
5, 1020, Note_on_c, 2, 81, 70
5, 1050, Note_on_c, 2, 81, 0
5, 1050, Note_on_c, 2, 81, 0
5, 1050, Note_on_c, 2, 73, 70
5, 1050, Note_on_c, 2, 73, 70
5, 1080, Note_on_c, 2, 73, 0
5, 1080, Note_on_c, 2, 73, 0
5, 1080, Note_on_c, 2, 74, 70
5, 1080, Note_on_c, 2, 74, 70
5, 1110, Note_on_c, 2, 74, 0
5, 1110, Note_on_c, 2, 74, 0
5, 1110, Note_on_c, 2, 78, 70
5, 1110, Note_on_c, 2, 78, 70
5, 1140, Note_on_c, 2, 78, 0
5, 1140, Note_on_c, 2, 78, 0
5, 1140, Note_on_c, 2, 83, 70
5, 1140, Note_on_c, 2, 83, 70
5, 1170, Note_on_c, 2, 83, 0
5, 1170, Note_on_c, 2, 83, 0
5, 1170, Note_on_c, 2, 81, 70
5, 1170, Note_on_c, 2, 81, 70
5, 1200, Note_on_c, 2, 81, 0
5, 1200, Note_on_c, 2, 81, 0
5, 1200, Note_on_c, 2, 79, 70
5, 1200, Note_on_c, 2, 79, 70
5, 1230, Note_on_c, 2, 79, 0
5, 1230, Note_on_c, 2, 79, 0
5, 1230, Note_on_c, 2, 78, 70
5, 1230, Note_on_c, 2, 78, 70
5, 1260, Note_on_c, 2, 78, 0
5, 1260, Note_on_c, 2, 78, 0
5, 1260, Note_on_c, 2, 76, 70
5, 1260, Note_on_c, 2, 76, 70
5, 1290, Note_on_c, 2, 76, 0
5, 1290, Note_on_c, 2, 76, 0
5, 1290, Note_on_c, 2, 73, 70
5, 1290, Note_on_c, 2, 69, 70
5, 1320, Note_on_c, 2, 69, 0
5, 1320, Note_on_c, 2, 73, 0
5, 1320, Note_on_c, 2, 76, 70
5, 1320, Note_on_c, 2, 73, 70
5, 1350, Note_on_c, 2, 73, 0
5, 1350, Note_on_c, 2, 76, 0
5, 1350, Note_on_c, 2, 79, 70
5, 1350, Note_on_c, 2, 76, 70
5, 1380, Note_on_c, 2, 76, 0
5, 1380, Note_on_c, 2, 79, 0
5, 1380, Note_on_c, 2, 76, 70
5, 1380, Note_on_c, 2, 73, 70
5, 1410, Note_on_c, 2, 73, 0
5, 1410, Note_on_c, 2, 76, 0
5, 1410, Note_on_c, 2, 73, 70
5, 1410, Note_on_c, 2, 69, 70
5, 1440, Note_on_c, 2, 69, 0
5, 1440, Note_on_c, 2, 73, 0
5, 1440, Note_on_c, 2, 74, 70
5, 1440, Note_on_c, 2, 74, 70
5, 1470, Note_on_c, 2, 74, 0
5, 1470, Note_on_c, 2, 74, 0
5, 1470, Note_on_c, 2, 78, 70
5, 1470, Note_on_c, 2, 78, 70
5, 1500, Note_on_c, 2, 78, 0
5, 1500, Note_on_c, 2, 78, 0
5, 1500, Note_on_c, 2, 76, 70
5, 1500, Note_on_c, 2, 76, 70
5, 1530, Note_on_c, 2, 76, 0
5, 1530, Note_on_c, 2, 76, 0
5, 1530, Note_on_c, 2, 74, 70
5, 1530, Note_on_c, 2, 74, 70
5, 1560, Note_on_c, 2, 74, 0
5, 1560, Note_on_c, 2, 74, 0
5, 1560, Note_on_c, 2, 73, 70
5, 1560, Note_on_c, 2, 73, 70
5, 1590, Note_on_c, 2, 73, 0
5, 1590, Note_on_c, 2, 73, 0
5, 1590, Note_on_c, 2, 71, 70
5, 1590, Note_on_c, 2, 71, 70
5, 1620, Note_on_c, 2, 71, 0
5, 1620, Note_on_c, 2, 71, 0
5, 1620, Note_on_c, 2, 73, 70
5, 1620, Note_on_c, 2, 73, 70
5, 1650, Note_on_c, 2, 73, 0
5, 1650, Note_on_c, 2, 69, 70
5, 1655, Note_on_c, 2, 73, 0
5, 1680, Note_on_c, 2, 69, 0
5, 1680, Note_on_c, 2, 73, 70
5, 1710, Note_on_c, 2, 73, 0
5, 1710, Note_on_c, 2, 76, 70
5, 1740, Note_on_c, 2, 76, 0
5, 1740, Note_on_c, 2, 73, 70
5, 1770, Note_on_c, 2, 73, 0
5, 1770, Note_on_c, 2, 69, 70
5, 1800, Note_on_c, 2, 69, 0
5, 1800, Note_on_c, 2, 81, 64
5, 1830, Note_on_c, 2, 66, 64
5, 1860, Note_on_c, 2, 66, 0
5, 1860, Note_on_c, 2, 69, 64
5, 1890, Note_on_c, 2, 69, 0
5, 1890, Note_on_c, 2, 73, 64
5, 1920, Note_on_c, 2, 73, 0
5, 1920, Note_on_c, 2, 69, 64
5, 1950, Note_on_c, 2, 69, 0
5, 1950, Note_on_c, 2, 66, 64
5, 1980, Note_on_c, 2, 66, 0
5, 1980, Note_on_c, 2, 78, 64
5, 2010, Note_on_c, 2, 81, 0
5, 2010, Note_on_c, 2, 71, 64
5, 2040, Note_on_c, 2, 71, 0
5, 2040, Note_on_c, 2, 75, 64
5, 2070, Note_on_c, 2, 75, 0
5, 2070, Note_on_c, 2, 78, 64
5, 2100, Note_on_c, 2, 78, 0
5, 2100, Note_on_c, 2, 75, 64
5, 2130, Note_on_c, 2, 75, 0
5, 2130, Note_on_c, 2, 71, 64
5, 2160, Note_on_c, 2, 71, 0
5, 2160, Note_on_c, 2, 83, 64
5, 2190, Note_on_c, 2, 83, 0
5, 2190, Note_on_c, 2, 78, 0
5, 2190, Note_on_c, 2, 84, 64
5, 2190, Note_on_c, 2, 81, 64
5, 2220, Note_on_c, 2, 81, 0
5, 2220, Note_on_c, 2, 84, 0
5, 2220, Note_on_c, 2, 83, 64
5, 2220, Note_on_c, 2, 79, 64
5, 2250, Note_on_c, 2, 79, 0
5, 2250, Note_on_c, 2, 83, 0
5, 2250, Note_on_c, 2, 81, 64
5, 2250, Note_on_c, 2, 78, 64
5, 2280, Note_on_c, 2, 78, 0
5, 2280, Note_on_c, 2, 81, 0
5, 2280, Note_on_c, 2, 79, 64
5, 2280, Note_on_c, 2, 76, 64
5, 2310, Note_on_c, 2, 76, 0
5, 2310, Note_on_c, 2, 79, 0
5, 2310, Note_on_c, 2, 78, 64
5, 2310, Note_on_c, 2, 75, 64
5, 2340, Note_on_c, 2, 75, 0
5, 2340, Note_on_c, 2, 78, 0
5, 2340, Note_on_c, 2, 79, 64
5, 2340, Note_on_c, 2, 76, 64
5, 2370, Note_on_c, 2, 79, 0
5, 2370, Note_on_c, 2, 71, 64
5, 2375, Note_on_c, 2, 76, 0
5, 2400, Note_on_c, 2, 71, 0
5, 2400, Note_on_c, 2, 76, 64
5, 2430, Note_on_c, 2, 76, 0
5, 2430, Note_on_c, 2, 79, 64
5, 2460, Note_on_c, 2, 79, 0
5, 2460, Note_on_c, 2, 76, 64
5, 2490, Note_on_c, 2, 76, 0
5, 2490, Note_on_c, 2, 71, 64
5, 2520, Note_on_c, 2, 71, 0
5, 2520, Note_on_c, 2, 79, 64
5, 2550, Note_on_c, 2, 64, 64
5, 2580, Note_on_c, 2, 64, 0
5, 2580, Note_on_c, 2, 67, 64
5, 2610, Note_on_c, 2, 67, 0
5, 2610, Note_on_c, 2, 71, 64
5, 2640, Note_on_c, 2, 71, 0
5, 2640, Note_on_c, 2, 67, 64
5, 2670, Note_on_c, 2, 67, 0
5, 2670, Note_on_c, 2, 64, 64
5, 2700, Note_on_c, 2, 64, 0
5, 2700, Note_on_c, 2, 76, 64
5, 2730, Note_on_c, 2, 79, 0
5, 2730, Note_on_c, 2, 69, 64
5, 2760, Note_on_c, 2, 69, 0
5, 2760, Note_on_c, 2, 73, 64
5, 2790, Note_on_c, 2, 73, 0
5, 2790, Note_on_c, 2, 76, 64
5, 2820, Note_on_c, 2, 76, 0
5, 2820, Note_on_c, 2, 73, 64
5, 2850, Note_on_c, 2, 73, 0
5, 2850, Note_on_c, 2, 69, 64
5, 2880, Note_on_c, 2, 69, 0
5, 2880, Note_on_c, 2, 81, 64
5, 2910, Note_on_c, 2, 81, 0
5, 2910, Note_on_c, 2, 76, 0
5, 2910, Note_on_c, 2, 83, 64
5, 2910, Note_on_c, 2, 79, 64
5, 2940, Note_on_c, 2, 79, 0
5, 2940, Note_on_c, 2, 83, 0
5, 2940, Note_on_c, 2, 81, 64
5, 2940, Note_on_c, 2, 78, 64
5, 2970, Note_on_c, 2, 78, 0
5, 2970, Note_on_c, 2, 81, 0
5, 2970, Note_on_c, 2, 79, 64
5, 2970, Note_on_c, 2, 76, 64
5, 3000, Note_on_c, 2, 76, 0
5, 3000, Note_on_c, 2, 79, 0
5, 3000, Note_on_c, 2, 78, 64
5, 3000, Note_on_c, 2, 74, 64
5, 3030, Note_on_c, 2, 74, 0
5, 3030, Note_on_c, 2, 78, 0
5, 3030, Note_on_c, 2, 76, 64
5, 3030, Note_on_c, 2, 73, 64
5, 3060, Note_on_c, 2, 73, 0
5, 3060, Note_on_c, 2, 76, 0
5, 3060, Note_on_c, 2, 78, 64
5, 3060, Note_on_c, 2, 74, 64
5, 3090, Note_on_c, 2, 78, 0
5, 3090, Note_on_c, 2, 74, 64
5, 3095, Note_on_c, 2, 74, 0
5, 3120, Note_on_c, 2, 74, 0
5, 3120, Note_on_c, 2, 78, 64
5, 3150, Note_on_c, 2, 78, 0
5, 3150, Note_on_c, 2, 81, 64
5, 3180, Note_on_c, 2, 81, 0
5, 3180, Note_on_c, 2, 86, 64
5, 3180, Note_on_c, 2, 78, 64
5, 3210, Note_on_c, 2, 86, 0
5, 3210, Note_on_c, 2, 78, 64
5, 3215, Note_on_c, 2, 78, 0
5, 3240, Note_on_c, 2, 78, 0
5, 3240, Note_on_c, 2, 76, 64
5, 3240, Note_on_c, 2, 83, 64
5, 3270, Note_on_c, 2, 76, 0
5, 3270, Note_on_c, 2, 86, 64
5, 3275, Note_on_c, 2, 83, 0
5, 3300, Note_on_c, 2, 86, 0
5, 3300, Note_on_c, 2, 85, 64
5, 3330, Note_on_c, 2, 85, 0
5, 3330, Note_on_c, 2, 83, 64
5, 3360, Note_on_c, 2, 83, 0
5, 3360, Note_on_c, 2, 85, 64
5, 3360, Note_on_c, 2, 81, 64
5, 3390, Note_on_c, 2, 85, 0
5, 3390, Note_on_c, 2, 76, 64
5, 3395, Note_on_c, 2, 81, 0
5, 3420, Note_on_c, 2, 76, 0
5, 3420, Note_on_c, 2, 74, 64
5, 3420, Note_on_c, 2, 78, 64
5, 3450, Note_on_c, 2, 74, 0
5, 3450, Note_on_c, 2, 71, 64
5, 3455, Note_on_c, 2, 78, 0
5, 3480, Note_on_c, 2, 71, 0
5, 3480, Note_on_c, 2, 74, 64
5, 3510, Note_on_c, 2, 74, 0
5, 3510, Note_on_c, 2, 78, 64
5, 3540, Note_on_c, 2, 78, 0
5, 3540, Note_on_c, 2, 83, 64
5, 3540, Note_on_c, 2, 79, 64
5, 3570, Note_on_c, 2, 83, 0
5, 3570, Note_on_c, 2, 74, 64
5, 3575, Note_on_c, 2, 79, 0
5, 3600, Note_on_c, 2, 74, 0
5, 3600, Note_on_c, 2, 73, 64
5, 3600, Note_on_c, 2, 79, 64
5, 3630, Note_on_c, 2, 73, 0
5, 3630, Note_on_c, 2, 83, 64
5, 3635, Note_on_c, 2, 79, 0
5, 3660, Note_on_c, 2, 83, 0
5, 3660, Note_on_c, 2, 81, 64
5, 3690, Note_on_c, 2, 81, 0
5, 3690, Note_on_c, 2, 79, 64
5, 3720, Note_on_c, 2, 79, 0
5, 3720, Note_on_c, 2, 81, 64
5, 3720, Note_on_c, 2, 74, 64
5, 3750, Note_on_c, 2, 81, 0
5, 3750, Note_on_c, 2, 72, 64
5, 3755, Note_on_c, 2, 74, 0
5, 3780, Note_on_c, 2, 72, 0
5, 3780, Note_on_c, 2, 71, 64
5, 3780, Note_on_c, 2, 74, 64
5, 3810, Note_on_c, 2, 71, 0
5, 3810, Note_on_c, 2, 67, 65
5, 3815, Note_on_c, 2, 74, 0
5, 3840, Note_on_c, 2, 67, 0
5, 3840, Note_on_c, 2, 71, 65
5, 3870, Note_on_c, 2, 71, 0
5, 3870, Note_on_c, 2, 74, 66
5, 3900, Note_on_c, 2, 74, 0
5, 3900, Note_on_c, 2, 79, 67
5, 3900, Note_on_c, 2, 76, 67
5, 3930, Note_on_c, 2, 79, 0
5, 3930, Note_on_c, 2, 71, 67
5, 3935, Note_on_c, 2, 76, 0
5, 3960, Note_on_c, 2, 71, 0
5, 3960, Note_on_c, 2, 69, 68
5, 3960, Note_on_c, 2, 76, 68
5, 3990, Note_on_c, 2, 69, 0
5, 3990, Note_on_c, 2, 79, 69
5, 3995, Note_on_c, 2, 76, 0
5, 4020, Note_on_c, 2, 79, 0
5, 4020, Note_on_c, 2, 78, 69
5, 4050, Note_on_c, 2, 78, 0
5, 4050, Note_on_c, 2, 76, 70
5, 4080, Note_on_c, 2, 76, 0
5, 4080, Note_on_c, 2, 78, 71
5, 4080, Note_on_c, 2, 69, 71
5, 4110, Note_on_c, 2, 78, 0
5, 4110, Note_on_c, 2, 69, 71
5, 4115, Note_on_c, 2, 69, 0
5, 4140, Note_on_c, 2, 69, 0
5, 4140, Note_on_c, 2, 71, 72
5, 4140, Note_on_c, 2, 71, 72
5, 4170, Note_on_c, 2, 71, 0
5, 4170, Note_on_c, 2, 71, 0
5, 4170, Note_on_c, 2, 69, 73
5, 4170, Note_on_c, 2, 69, 73
5, 4200, Note_on_c, 2, 69, 0
5, 4200, Note_on_c, 2, 69, 0
5, 4200, Note_on_c, 2, 67, 73
5, 4200, Note_on_c, 2, 67, 73
5, 4230, Note_on_c, 2, 67, 0
5, 4230, Note_on_c, 2, 67, 0
5, 4230, Note_on_c, 2, 66, 74
5, 4230, Note_on_c, 2, 66, 74
5, 4260, Note_on_c, 2, 66, 0
5, 4260, Note_on_c, 2, 66, 0
5, 4260, Note_on_c, 2, 64, 75
5, 4260, Note_on_c, 2, 64, 75
5, 4290, Note_on_c, 2, 64, 0
5, 4290, Note_on_c, 2, 64, 0
5, 4290, Note_on_c, 2, 73, 75
5, 4290, Note_on_c, 2, 73, 75
5, 4320, Note_on_c, 2, 73, 0
5, 4320, Note_on_c, 2, 73, 0
5, 4320, Note_on_c, 2, 74, 76
5, 4320, Note_on_c, 2, 74, 76
5, 4350, Note_on_c, 2, 74, 0
5, 4350, Note_on_c, 2, 74, 0
5, 4350, Note_on_c, 2, 76, 77
5, 4350, Note_on_c, 2, 76, 77
5, 4380, Note_on_c, 2, 76, 0
5, 4380, Note_on_c, 2, 76, 0
5, 4380, Note_on_c, 2, 73, 77
5, 4380, Note_on_c, 2, 73, 77
5, 4470, Note_on_c, 2, 73, 0
5, 4470, Note_on_c, 2, 73, 0
5, 4470, Note_on_c, 2, 74, 79
5, 4470, Note_on_c, 2, 74, 79
5, 4500, Note_on_c, 2, 74, 0
5, 4500, Note_on_c, 2, 74, 0
5, 4500, Note_on_c, 2, 74, 80
5, 4500, Note_on_c, 2, 74, 80
5, 4535, Note_on_c, 2, 74, 0
5, 4535, Note_on_c, 2, 74, 0
5, 4535, Control_c, 2, 7, 75
5, 4535, Control_c, 2, 7, 75
5, 4560, Note_on_c, 2, 62, 64
5, 4595, Note_on_c, 2, 62, 0
5, 4620, Note_on_c, 2, 74, 64
5, 4715, Note_on_c, 2, 74, 0
5, 4740, Note_on_c, 2, 73, 64
5, 4770, Note_on_c, 2, 73, 0
5, 4770, Note_on_c, 2, 74, 64
5, 4800, Note_on_c, 2, 74, 0
5, 4800, Note_on_c, 2, 71, 64
5, 4830, Note_on_c, 2, 71, 0
5, 4830, Note_on_c, 2, 73, 64
5, 4860, Note_on_c, 2, 73, 0
5, 4860, Note_on_c, 2, 74, 64
5, 4860, Note_on_c, 2, 74, 64
5, 4890, Note_on_c, 2, 74, 0
5, 4890, Note_on_c, 2, 73, 64
5, 4895, Note_on_c, 2, 74, 0
5, 4920, Note_on_c, 2, 73, 0
5, 4920, Note_on_c, 2, 74, 64
5, 4920, Note_on_c, 2, 62, 64
5, 4950, Note_on_c, 2, 74, 0
5, 4950, Note_on_c, 2, 76, 64
5, 4955, Note_on_c, 2, 62, 0
5, 4980, Note_on_c, 2, 76, 0
5, 4980, Note_on_c, 2, 78, 64
5, 4980, Note_on_c, 2, 74, 64
5, 5010, Note_on_c, 2, 78, 0
5, 5010, Note_on_c, 2, 79, 64
5, 5040, Note_on_c, 2, 79, 0
5, 5040, Note_on_c, 2, 76, 64
5, 5075, Note_on_c, 2, 76, 0
5, 5075, Note_on_c, 2, 74, 0
5, 5100, Note_on_c, 2, 69, 64
5, 5100, Note_on_c, 2, 73, 64
5, 5130, Note_on_c, 2, 73, 0
5, 5130, Note_on_c, 2, 74, 64
5, 5135, Note_on_c, 2, 69, 0
5, 5160, Note_on_c, 2, 74, 0
5, 5160, Note_on_c, 2, 79, 64
5, 5160, Note_on_c, 2, 71, 64
5, 5190, Note_on_c, 2, 71, 0
5, 5190, Note_on_c, 2, 73, 64
5, 5195, Note_on_c, 2, 79, 0
5, 5220, Note_on_c, 2, 73, 0
5, 5220, Note_on_c, 2, 78, 55
5, 5220, Note_on_c, 2, 74, 55
5, 5255, Note_on_c, 2, 74, 0
5, 5255, Note_on_c, 2, 78, 0
5, 5280, Note_on_c, 2, 74, 56
5, 5280, Note_on_c, 2, 69, 56
5, 5315, Note_on_c, 2, 74, 0
5, 5340, Note_on_c, 2, 73, 57
5, 5375, Note_on_c, 2, 73, 0
5, 5400, Note_on_c, 2, 74, 58
5, 5435, Note_on_c, 2, 74, 0
5, 5435, Note_on_c, 2, 69, 0
5, 5460, Note_on_c, 2, 76, 59
5, 5460, Note_on_c, 2, 71, 59
5, 5490, Note_on_c, 2, 71, 0
5, 5490, Note_on_c, 2, 76, 0
5, 5490, Note_on_c, 2, 74, 60
5, 5490, Note_on_c, 2, 69, 60
5, 5520, Note_on_c, 2, 69, 0
5, 5520, Note_on_c, 2, 74, 0
5, 5520, Note_on_c, 2, 73, 60
5, 5520, Note_on_c, 2, 67, 60
5, 5550, Note_on_c, 2, 67, 0
5, 5550, Note_on_c, 2, 73, 0
5, 5550, Note_on_c, 2, 74, 61
5, 5550, Note_on_c, 2, 66, 61
5, 5580, Note_on_c, 2, 66, 0
5, 5580, Note_on_c, 2, 74, 0
5, 5580, Note_on_c, 2, 76, 61
5, 5580, Note_on_c, 2, 64, 61
5, 5610, Note_on_c, 2, 76, 0
5, 5610, Note_on_c, 2, 69, 62
5, 5615, Note_on_c, 2, 64, 0
5, 5640, Note_on_c, 2, 69, 0
5, 5640, Note_on_c, 2, 73, 62
5, 5670, Note_on_c, 2, 73, 0
5, 5670, Note_on_c, 2, 76, 63
5, 5700, Note_on_c, 2, 76, 0
5, 5700, Note_on_c, 2, 73, 63
5, 5730, Note_on_c, 2, 73, 0
5, 5730, Note_on_c, 2, 69, 64
5, 5760, Note_on_c, 2, 69, 0
5, 5760, Note_on_c, 2, 81, 64
5, 5790, Note_on_c, 2, 66, 65
5, 5820, Note_on_c, 2, 66, 0
5, 5820, Note_on_c, 2, 69, 65
5, 5850, Note_on_c, 2, 69, 0
5, 5850, Note_on_c, 2, 74, 66
5, 5880, Note_on_c, 2, 74, 0
5, 5880, Note_on_c, 2, 69, 66
5, 5910, Note_on_c, 2, 69, 0
5, 5910, Note_on_c, 2, 66, 67
5, 5940, Note_on_c, 2, 66, 0
5, 5940, Note_on_c, 2, 73, 67
5, 5970, Note_on_c, 2, 73, 0
5, 5970, Note_on_c, 2, 64, 68
5, 5975, Note_on_c, 2, 81, 0
5, 6000, Note_on_c, 2, 64, 0
5, 6000, Note_on_c, 2, 69, 68
5, 6030, Note_on_c, 2, 69, 0
5, 6030, Note_on_c, 2, 73, 69
5, 6060, Note_on_c, 2, 73, 0
5, 6060, Note_on_c, 2, 69, 69
5, 6090, Note_on_c, 2, 69, 0
5, 6090, Note_on_c, 2, 64, 70
5, 6120, Note_on_c, 2, 64, 0
5, 6120, Control_c, 2, 7, 127
5, 6120, Control_c, 2, 7, 127
5, 6120, Note_on_c, 2, 76, 64
5, 6150, Note_on_c, 2, 73, 64
5, 6180, Note_on_c, 2, 73, 0
5, 6180, Note_on_c, 2, 76, 64
5, 6210, Note_on_c, 2, 76, 0
5, 6210, Note_on_c, 2, 79, 64
5, 6240, Note_on_c, 2, 79, 0
5, 6240, Note_on_c, 2, 76, 64
5, 6270, Note_on_c, 2, 76, 0
5, 6270, Note_on_c, 2, 73, 64
5, 6300, Note_on_c, 2, 73, 0
5, 6300, Note_on_c, 2, 85, 64
5, 6330, Note_on_c, 2, 76, 0
5, 6330, Note_on_c, 2, 66, 64
5, 6360, Note_on_c, 2, 66, 0
5, 6360, Note_on_c, 2, 70, 64
5, 6390, Note_on_c, 2, 70, 0
5, 6390, Note_on_c, 2, 73, 64
5, 6420, Note_on_c, 2, 73, 0
5, 6420, Note_on_c, 2, 70, 64
5, 6450, Note_on_c, 2, 70, 0
5, 6450, Note_on_c, 2, 66, 64
5, 6480, Note_on_c, 2, 66, 0
5, 6480, Note_on_c, 2, 78, 64
5, 6510, Note_on_c, 2, 78, 0
5, 6510, Note_on_c, 2, 85, 0
5, 6510, Note_on_c, 2, 88, 64
5, 6510, Note_on_c, 2, 79, 64
5, 6540, Note_on_c, 2, 79, 0
5, 6540, Note_on_c, 2, 88, 0
5, 6540, Note_on_c, 2, 86, 64
5, 6540, Note_on_c, 2, 78, 64
5, 6570, Note_on_c, 2, 78, 0
5, 6570, Note_on_c, 2, 86, 0
5, 6570, Note_on_c, 2, 85, 64
5, 6570, Note_on_c, 2, 76, 64
5, 6600, Note_on_c, 2, 76, 0
5, 6600, Note_on_c, 2, 85, 0
5, 6600, Note_on_c, 2, 83, 64
5, 6600, Note_on_c, 2, 74, 64
5, 6630, Note_on_c, 2, 74, 0
5, 6630, Note_on_c, 2, 83, 0
5, 6630, Note_on_c, 2, 82, 64
5, 6630, Note_on_c, 2, 73, 64
5, 6660, Note_on_c, 2, 73, 0
5, 6660, Note_on_c, 2, 82, 0
5, 6660, Note_on_c, 2, 83, 64
5, 6660, Note_on_c, 2, 74, 64
5, 6690, Note_on_c, 2, 74, 0
5, 6690, Note_on_c, 2, 66, 64
5, 6695, Note_on_c, 2, 83, 0
5, 6720, Note_on_c, 2, 66, 0
5, 6720, Note_on_c, 2, 71, 64
5, 6750, Note_on_c, 2, 71, 0
5, 6750, Note_on_c, 2, 74, 64
5, 6780, Note_on_c, 2, 74, 0
5, 6780, Note_on_c, 2, 71, 64
5, 6810, Note_on_c, 2, 71, 0
5, 6810, Note_on_c, 2, 66, 64
5, 6840, Note_on_c, 2, 66, 0
5, 6840, Note_on_c, 2, 74, 64
5, 6870, Note_on_c, 2, 71, 64
5, 6900, Note_on_c, 2, 71, 0
5, 6900, Note_on_c, 2, 74, 64
5, 6930, Note_on_c, 2, 74, 0
5, 6930, Note_on_c, 2, 78, 64
5, 6960, Note_on_c, 2, 78, 0
5, 6960, Note_on_c, 2, 74, 64
5, 6990, Note_on_c, 2, 74, 0
5, 6990, Note_on_c, 2, 71, 64
5, 7020, Note_on_c, 2, 71, 0
5, 7020, Note_on_c, 2, 83, 64
5, 7050, Note_on_c, 2, 74, 0
5, 7050, Note_on_c, 2, 64, 64
5, 7080, Note_on_c, 2, 64, 0
5, 7080, Note_on_c, 2, 68, 64
5, 7110, Note_on_c, 2, 68, 0
5, 7110, Note_on_c, 2, 71, 64
5, 7140, Note_on_c, 2, 71, 0
5, 7140, Note_on_c, 2, 68, 64
5, 7170, Note_on_c, 2, 68, 0
5, 7170, Note_on_c, 2, 64, 64
5, 7200, Note_on_c, 2, 64, 0
5, 7200, Note_on_c, 2, 76, 64
5, 7230, Note_on_c, 2, 76, 0
5, 7230, Note_on_c, 2, 83, 0
5, 7230, Note_on_c, 2, 86, 64
5, 7230, Note_on_c, 2, 78, 64
5, 7260, Note_on_c, 2, 78, 0
5, 7260, Note_on_c, 2, 86, 0
5, 7260, Note_on_c, 2, 85, 64
5, 7260, Note_on_c, 2, 76, 64
5, 7290, Note_on_c, 2, 76, 0
5, 7290, Note_on_c, 2, 85, 0
5, 7290, Note_on_c, 2, 83, 64
5, 7290, Note_on_c, 2, 74, 64
5, 7320, Note_on_c, 2, 74, 0
5, 7320, Note_on_c, 2, 83, 0
5, 7320, Note_on_c, 2, 81, 64
5, 7320, Note_on_c, 2, 73, 64
5, 7350, Note_on_c, 2, 73, 0
5, 7350, Note_on_c, 2, 81, 0
5, 7350, Note_on_c, 2, 80, 64
5, 7350, Note_on_c, 2, 71, 64
5, 7380, Note_on_c, 2, 71, 0
5, 7380, Note_on_c, 2, 80, 0
5, 7380, Control_c, 2, 7, 75
5, 7380, Control_c, 2, 7, 75
5, 7380, Note_on_c, 2, 81, 64
5, 7380, Note_on_c, 2, 73, 64
5, 7415, Note_on_c, 2, 73, 0
5, 7415, Note_on_c, 2, 81, 0
5, 8130, Note_on_c, 2, 64, 65
5, 8130, Note_on_c, 2, 64, 65
5, 8160, Note_on_c, 2, 64, 0
5, 8160, Note_on_c, 2, 64, 0
5, 8160, Note_on_c, 2, 69, 65
5, 8160, Note_on_c, 2, 69, 65
5, 8190, Note_on_c, 2, 69, 0
5, 8190, Note_on_c, 2, 69, 0
5, 8190, Note_on_c, 2, 73, 66
5, 8190, Note_on_c, 2, 73, 66
5, 8220, Note_on_c, 2, 73, 0
5, 8220, Note_on_c, 2, 73, 0
5, 8220, Note_on_c, 2, 76, 66
5, 8220, Note_on_c, 2, 76, 66
5, 8250, Note_on_c, 2, 76, 0
5, 8250, Note_on_c, 2, 76, 0
5, 8250, Note_on_c, 2, 68, 67
5, 8250, Note_on_c, 2, 68, 67
5, 8280, Note_on_c, 2, 68, 0
5, 8280, Note_on_c, 2, 68, 0
5, 8280, Note_on_c, 2, 69, 67
5, 8280, Note_on_c, 2, 69, 67
5, 8310, Note_on_c, 2, 69, 0
5, 8310, Note_on_c, 2, 76, 68
5, 8315, Note_on_c, 2, 69, 0
5, 8340, Note_on_c, 2, 76, 0
5, 8340, Note_on_c, 2, 78, 68
5, 8340, Note_on_c, 2, 68, 68
5, 8370, Note_on_c, 2, 78, 0
5, 8370, Note_on_c, 2, 76, 69
5, 8375, Note_on_c, 2, 68, 0
5, 8400, Note_on_c, 2, 76, 0
5, 8400, Note_on_c, 2, 74, 69
5, 8400, Note_on_c, 2, 69, 69
5, 8430, Note_on_c, 2, 74, 0
5, 8430, Note_on_c, 2, 73, 70
5, 8435, Note_on_c, 2, 69, 0
5, 8460, Note_on_c, 2, 73, 0
5, 8460, Note_on_c, 2, 71, 70
5, 8460, Note_on_c, 2, 68, 70
5, 8490, Note_on_c, 2, 68, 0
5, 8490, Note_on_c, 2, 64, 71
5, 8495, Note_on_c, 2, 71, 0
5, 8520, Note_on_c, 2, 64, 0
5, 8520, Note_on_c, 2, 68, 71
5, 8550, Note_on_c, 2, 68, 0
5, 8550, Note_on_c, 2, 71, 72
5, 8580, Note_on_c, 2, 71, 0
5, 8580, Note_on_c, 2, 68, 73
5, 8610, Note_on_c, 2, 68, 0
5, 8610, Note_on_c, 2, 64, 73
5, 8640, Note_on_c, 2, 64, 0
5, 8640, Note_on_c, 2, 76, 74
5, 8670, Note_on_c, 2, 73, 74
5, 8700, Note_on_c, 2, 73, 0
5, 8700, Note_on_c, 2, 76, 75
5, 8730, Note_on_c, 2, 76, 0
5, 8730, Note_on_c, 2, 81, 75
5, 8760, Note_on_c, 2, 81, 0
5, 8760, Note_on_c, 2, 76, 76
5, 8790, Note_on_c, 2, 76, 0
5, 8790, Note_on_c, 2, 75, 76
5, 8820, Note_on_c, 2, 75, 0
5, 8820, Note_on_c, 2, 83, 77
5, 8850, Note_on_c, 2, 76, 0
5, 8850, Note_on_c, 2, 64, 77
5, 8855, Note_on_c, 2, 83, 0
5, 8880, Note_on_c, 2, 64, 0
5, 8880, Note_on_c, 2, 68, 78
5, 8910, Note_on_c, 2, 68, 0
5, 8910, Note_on_c, 2, 71, 78
5, 8940, Note_on_c, 2, 71, 0
5, 8940, Note_on_c, 2, 68, 79
5, 8970, Note_on_c, 2, 68, 0
5, 8970, Note_on_c, 2, 64, 79
5, 9000, Note_on_c, 2, 64, 0
5, 9000, Note_on_c, 2, 76, 40
5, 9030, Note_on_c, 2, 73, 41
5, 9060, Note_on_c, 2, 73, 0
5, 9060, Note_on_c, 2, 76, 43
5, 9090, Note_on_c, 2, 76, 0
5, 9090, Note_on_c, 2, 80, 44
5, 9120, Note_on_c, 2, 80, 0
5, 9120, Note_on_c, 2, 76, 46
5, 9150, Note_on_c, 2, 76, 0
5, 9150, Note_on_c, 2, 73, 47
5, 9180, Note_on_c, 2, 73, 0
5, 9180, Note_on_c, 2, 85, 49
5, 9210, Note_on_c, 2, 76, 0
5, 9210, Note_on_c, 2, 66, 50
5, 9240, Note_on_c, 2, 66, 0
5, 9240, Note_on_c, 2, 70, 51
5, 9270, Note_on_c, 2, 70, 0
5, 9270, Note_on_c, 2, 73, 53
5, 9300, Note_on_c, 2, 73, 0
5, 9300, Note_on_c, 2, 70, 54
5, 9330, Note_on_c, 2, 70, 0
5, 9330, Note_on_c, 2, 66, 56
5, 9360, Note_on_c, 2, 66, 0
5, 9360, Note_on_c, 2, 78, 57
5, 9390, Note_on_c, 2, 78, 0
5, 9390, Note_on_c, 2, 85, 0
5, 9390, Note_on_c, 2, 88, 58
5, 9390, Note_on_c, 2, 79, 58
5, 9420, Note_on_c, 2, 79, 0
5, 9420, Note_on_c, 2, 88, 0
5, 9420, Note_on_c, 2, 86, 60
5, 9420, Note_on_c, 2, 78, 60
5, 9450, Note_on_c, 2, 78, 0
5, 9450, Note_on_c, 2, 86, 0
5, 9450, Note_on_c, 2, 85, 61
5, 9450, Note_on_c, 2, 76, 61
5, 9480, Note_on_c, 2, 76, 0
5, 9480, Note_on_c, 2, 85, 0
5, 9480, Note_on_c, 2, 83, 63
5, 9480, Note_on_c, 2, 74, 63
5, 9510, Note_on_c, 2, 74, 0
5, 9510, Note_on_c, 2, 83, 0
5, 9510, Note_on_c, 2, 82, 64
5, 9510, Note_on_c, 2, 73, 64
5, 9540, Note_on_c, 2, 73, 0
5, 9540, Note_on_c, 2, 82, 0
5, 9540, Note_on_c, 2, 83, 66
5, 9540, Note_on_c, 2, 74, 66
5, 9570, Note_on_c, 2, 74, 0
5, 9570, Note_on_c, 2, 66, 67
5, 9575, Note_on_c, 2, 83, 0
5, 9600, Note_on_c, 2, 66, 0
5, 9600, Note_on_c, 2, 71, 68
5, 9630, Note_on_c, 2, 71, 0
5, 9630, Note_on_c, 2, 74, 70
5, 9660, Note_on_c, 2, 74, 0
5, 9660, Note_on_c, 2, 71, 71
5, 9690, Note_on_c, 2, 71, 0
5, 9690, Note_on_c, 2, 66, 73
5, 9720, Note_on_c, 2, 66, 0
5, 9720, Note_on_c, 2, 74, 50
5, 9750, Note_on_c, 2, 71, 51
5, 9780, Note_on_c, 2, 71, 0
5, 9780, Note_on_c, 2, 74, 52
5, 9810, Note_on_c, 2, 74, 0
5, 9810, Note_on_c, 2, 78, 53
5, 9840, Note_on_c, 2, 78, 0
5, 9840, Note_on_c, 2, 74, 54
5, 9870, Note_on_c, 2, 74, 0
5, 9870, Note_on_c, 2, 71, 55
5, 9900, Note_on_c, 2, 71, 0
5, 9900, Note_on_c, 2, 83, 56
5, 9930, Note_on_c, 2, 74, 0
5, 9930, Note_on_c, 2, 64, 57
5, 9960, Note_on_c, 2, 64, 0
5, 9960, Note_on_c, 2, 68, 58
5, 9990, Note_on_c, 2, 68, 0
5, 9990, Note_on_c, 2, 71, 59
5, 10020, Note_on_c, 2, 71, 0
5, 10020, Note_on_c, 2, 68, 60
5, 10050, Note_on_c, 2, 68, 0
5, 10050, Note_on_c, 2, 64, 61
5, 10080, Note_on_c, 2, 64, 0
5, 10080, Note_on_c, 2, 76, 63
5, 10110, Note_on_c, 2, 76, 0
5, 10110, Note_on_c, 2, 83, 0
5, 10110, Note_on_c, 2, 86, 64
5, 10110, Note_on_c, 2, 78, 64
5, 10140, Note_on_c, 2, 78, 0
5, 10140, Note_on_c, 2, 86, 0
5, 10140, Note_on_c, 2, 85, 65
5, 10140, Note_on_c, 2, 76, 65
5, 10170, Note_on_c, 2, 76, 0
5, 10170, Note_on_c, 2, 85, 0
5, 10170, Note_on_c, 2, 83, 66
5, 10170, Note_on_c, 2, 74, 66
5, 10200, Note_on_c, 2, 74, 0
5, 10200, Note_on_c, 2, 83, 0
5, 10200, Note_on_c, 2, 81, 67
5, 10200, Note_on_c, 2, 73, 67
5, 10230, Note_on_c, 2, 73, 0
5, 10230, Note_on_c, 2, 81, 0
5, 10230, Note_on_c, 2, 80, 68
5, 10230, Note_on_c, 2, 71, 68
5, 10260, Note_on_c, 2, 71, 0
5, 10260, Note_on_c, 2, 80, 0
5, 10260, Note_on_c, 2, 81, 69
5, 10260, Note_on_c, 2, 73, 69
5, 10295, Note_on_c, 2, 73, 0
5, 10295, Note_on_c, 2, 81, 0
5, 10320, Note_on_c, 2, 76, 71
5, 10320, Note_on_c, 2, 73, 71
5, 10355, Note_on_c, 2, 73, 0
5, 10355, Note_on_c, 2, 76, 0
5, 10380, Note_on_c, 2, 81, 73
5, 10380, Note_on_c, 2, 78, 73
5, 10415, Note_on_c, 2, 78, 0
5, 10415, Note_on_c, 2, 81, 0
5, 10500, Note_on_c, 2, 80, 65
5, 10500, Note_on_c, 2, 76, 65
5, 10530, Note_on_c, 2, 76, 0
5, 10530, Note_on_c, 2, 80, 0
5, 10530, Note_on_c, 2, 78, 65
5, 10530, Note_on_c, 2, 74, 65
5, 10560, Note_on_c, 2, 74, 0
5, 10560, Note_on_c, 2, 78, 0
5, 10560, Note_on_c, 2, 80, 66
5, 10560, Note_on_c, 2, 76, 66
5, 10595, Note_on_c, 2, 76, 0
5, 10595, Note_on_c, 2, 80, 0
5, 10680, Note_on_c, 2, 73, 67
5, 10680, Note_on_c, 2, 69, 67
5, 10715, Note_on_c, 2, 69, 0
5, 10715, Note_on_c, 2, 73, 0
5, 10740, Note_on_c, 2, 78, 68
5, 10740, Note_on_c, 2, 74, 68
5, 10775, Note_on_c, 2, 74, 0
5, 10775, Note_on_c, 2, 78, 0
5, 10860, Note_on_c, 2, 76, 69
5, 10860, Note_on_c, 2, 73, 69
5, 10890, Note_on_c, 2, 73, 0
5, 10890, Note_on_c, 2, 76, 0
5, 10890, Note_on_c, 2, 74, 70
5, 10890, Note_on_c, 2, 71, 70
5, 10920, Note_on_c, 2, 71, 0
5, 10920, Note_on_c, 2, 74, 0
5, 10920, Note_on_c, 2, 76, 70
5, 10920, Note_on_c, 2, 73, 70
5, 10955, Note_on_c, 2, 73, 0
5, 10955, Note_on_c, 2, 76, 0
5, 11040, Note_on_c, 2, 69, 72
5, 11040, Note_on_c, 2, 66, 72
5, 11075, Note_on_c, 2, 66, 0
5, 11075, Note_on_c, 2, 69, 0
5, 11100, Note_on_c, 2, 74, 72
5, 11100, Note_on_c, 2, 71, 72
5, 11135, Note_on_c, 2, 71, 0
5, 11135, Note_on_c, 2, 74, 0
5, 11220, Note_on_c, 2, 73, 74
5, 11220, Note_on_c, 2, 69, 74
5, 11250, Note_on_c, 2, 69, 0
5, 11250, Note_on_c, 2, 73, 0
5, 11250, Note_on_c, 2, 71, 74
5, 11250, Note_on_c, 2, 68, 74
5, 11280, Note_on_c, 2, 68, 0
5, 11280, Note_on_c, 2, 71, 0
5, 11280, Note_on_c, 2, 73, 75
5, 11280, Note_on_c, 2, 69, 75
5, 11315, Note_on_c, 2, 69, 0
5, 11315, Note_on_c, 2, 73, 0
5, 11340, Note_on_c, 2, 71, 75
5, 11340, Note_on_c, 2, 69, 75
5, 11490, Note_on_c, 2, 71, 0
5, 11490, Note_on_c, 2, 73, 77
5, 11505, Note_on_c, 2, 73, 0
5, 11505, Note_on_c, 2, 74, 78
5, 11520, Note_on_c, 2, 74, 0
5, 11520, Note_on_c, 2, 73, 78
5, 11550, Note_on_c, 2, 73, 0
5, 11550, Note_on_c, 2, 69, 0
5, 11550, Note_on_c, 2, 71, 78
5, 11550, Note_on_c, 2, 71, 78
5, 11580, Note_on_c, 2, 71, 0
5, 11580, Note_on_c, 2, 71, 0
5, 11580, Note_on_c, 2, 71, 78
5, 11580, Note_on_c, 2, 68, 78
5, 11670, Note_on_c, 2, 68, 0
5, 11670, Note_on_c, 2, 71, 0
5, 11670, Note_on_c, 2, 69, 80
5, 11670, Note_on_c, 2, 69, 80
5, 11700, Note_on_c, 2, 69, 0
5, 11700, Note_on_c, 2, 69, 0
5, 11700, Control_c, 2, 7, 127
5, 11700, Control_c, 2, 7, 127
5, 11700, Note_on_c, 2, 69, 64
5, 11700, Note_on_c, 2, 69, 64
5, 11735, Note_on_c, 2, 69, 0
5, 11735, Note_on_c, 2, 69, 0
5, 11760, Note_on_c, 2, 64, 64
5, 11795, Note_on_c, 2, 64, 0
5, 11820, Note_on_c, 2, 69, 64
5, 11855, Note_on_c, 2, 69, 0
5, 11880, Note_on_c, 2, 71, 64
5, 11915, Note_on_c, 2, 71, 0
5, 11940, Note_on_c, 2, 73, 64
5, 11970, Note_on_c, 2, 73, 0
5, 11970, Note_on_c, 2, 71, 64
5, 12000, Note_on_c, 2, 71, 0
5, 12000, Note_on_c, 2, 69, 64
5, 12030, Note_on_c, 2, 69, 0
5, 12030, Note_on_c, 2, 71, 64
5, 12060, Note_on_c, 2, 71, 0
5, 12060, Note_on_c, 2, 73, 64
5, 12060, Note_on_c, 2, 69, 64
5, 12095, Note_on_c, 2, 69, 0
5, 12095, Note_on_c, 2, 73, 0
5, 12120, Note_on_c, 2, 69, 64
5, 12120, Note_on_c, 2, 64, 64
5, 12155, Note_on_c, 2, 64, 0
5, 12155, Note_on_c, 2, 69, 0
5, 12180, Note_on_c, 2, 73, 64
5, 12180, Note_on_c, 2, 69, 64
5, 12215, Note_on_c, 2, 69, 0
5, 12215, Note_on_c, 2, 73, 0
5, 12240, Note_on_c, 2, 74, 64
5, 12240, Note_on_c, 2, 71, 64
5, 12275, Note_on_c, 2, 71, 0
5, 12275, Note_on_c, 2, 74, 0
5, 12300, Note_on_c, 2, 76, 64
5, 12300, Note_on_c, 2, 73, 64
5, 12330, Note_on_c, 2, 73, 0
5, 12330, Note_on_c, 2, 76, 0
5, 12330, Note_on_c, 2, 74, 64
5, 12330, Note_on_c, 2, 71, 64
5, 12360, Note_on_c, 2, 71, 0
5, 12360, Note_on_c, 2, 74, 0
5, 12360, Note_on_c, 2, 73, 64
5, 12360, Note_on_c, 2, 69, 64
5, 12390, Note_on_c, 2, 69, 0
5, 12390, Note_on_c, 2, 73, 0
5, 12390, Note_on_c, 2, 74, 64
5, 12390, Note_on_c, 2, 71, 64
5, 12420, Note_on_c, 2, 71, 0
5, 12420, Note_on_c, 2, 74, 0
5, 12420, Note_on_c, 2, 76, 64
5, 12420, Note_on_c, 2, 73, 64
5, 12455, Note_on_c, 2, 73, 0
5, 12455, Note_on_c, 2, 76, 0
5, 13140, Control_c, 2, 7, 75
5, 13140, Control_c, 2, 7, 75
5, 13200, Note_on_c, 2, 74, 65
5, 13355, Note_on_c, 2, 74, 0
5, 13380, Note_on_c, 2, 73, 66
5, 13410, Note_on_c, 2, 73, 0
5, 13410, Note_on_c, 2, 74, 66
5, 13440, Note_on_c, 2, 74, 0
5, 13440, Note_on_c, 2, 71, 67
5, 13470, Note_on_c, 2, 71, 0
5, 13470, Note_on_c, 2, 73, 67
5, 13500, Note_on_c, 2, 73, 0
5, 13500, Note_on_c, 2, 74, 67
5, 13560, Note_on_c, 2, 74, 68
5, 13620, Note_on_c, 2, 74, 0
5, 13715, Note_on_c, 2, 74, 0
5, 13740, Note_on_c, 2, 73, 69
5, 13770, Note_on_c, 2, 73, 0
5, 13770, Note_on_c, 2, 74, 69
5, 13800, Note_on_c, 2, 74, 0
5, 13800, Note_on_c, 2, 71, 70
5, 13830, Note_on_c, 2, 71, 0
5, 13830, Note_on_c, 2, 73, 70
5, 13860, Note_on_c, 2, 73, 0
5, 13860, Control_c, 2, 7, 127
5, 13860, Control_c, 2, 7, 127
5, 13860, Note_on_c, 2, 74, 50
5, 13890, Note_on_c, 2, 74, 0
5, 13890, Note_on_c, 2, 62, 50
5, 13890, Note_on_c, 2, 62, 50
5, 13920, Note_on_c, 2, 62, 0
5, 13920, Note_on_c, 2, 62, 0
5, 13920, Note_on_c, 2, 66, 50
5, 13920, Note_on_c, 2, 66, 50
5, 13950, Note_on_c, 2, 66, 0
5, 13950, Note_on_c, 2, 66, 0
5, 13950, Note_on_c, 2, 69, 50
5, 13950, Note_on_c, 2, 69, 50
5, 13980, Note_on_c, 2, 69, 0
5, 13980, Note_on_c, 2, 69, 0
5, 13980, Note_on_c, 2, 66, 50
5, 13980, Note_on_c, 2, 66, 50
5, 14010, Note_on_c, 2, 66, 0
5, 14010, Note_on_c, 2, 66, 0
5, 14010, Note_on_c, 2, 62, 50
5, 14010, Note_on_c, 2, 62, 50
5, 14040, Note_on_c, 2, 62, 0
5, 14040, Note_on_c, 2, 62, 0
5, 14040, Note_on_c, 2, 69, 50
5, 14040, Note_on_c, 2, 69, 50
5, 14250, Note_on_c, 2, 69, 0
5, 14250, Note_on_c, 2, 69, 0
5, 14250, Note_on_c, 2, 62, 50
5, 14250, Note_on_c, 2, 62, 50
5, 14280, Note_on_c, 2, 62, 0
5, 14280, Note_on_c, 2, 62, 0
5, 14280, Note_on_c, 2, 66, 50
5, 14280, Note_on_c, 2, 66, 50
5, 14310, Note_on_c, 2, 66, 0
5, 14310, Note_on_c, 2, 66, 0
5, 14310, Note_on_c, 2, 69, 50
5, 14310, Note_on_c, 2, 69, 50
5, 14340, Note_on_c, 2, 69, 0
5, 14340, Note_on_c, 2, 69, 0
5, 14340, Note_on_c, 2, 66, 50
5, 14340, Note_on_c, 2, 66, 50
5, 14370, Note_on_c, 2, 66, 0
5, 14370, Note_on_c, 2, 66, 0
5, 14370, Note_on_c, 2, 62, 50
5, 14370, Note_on_c, 2, 62, 50
5, 14400, Note_on_c, 2, 62, 0
5, 14400, Note_on_c, 2, 62, 0
5, 14400, Note_on_c, 2, 69, 50
5, 14400, Note_on_c, 2, 69, 50
5, 14610, Note_on_c, 2, 69, 0
5, 14610, Note_on_c, 2, 69, 0
5, 14610, Note_on_c, 2, 69, 64
5, 14610, Note_on_c, 2, 69, 64
5, 14640, Note_on_c, 2, 69, 0
5, 14640, Note_on_c, 2, 69, 0
5, 14640, Note_on_c, 2, 74, 64
5, 14640, Note_on_c, 2, 74, 64
5, 14670, Note_on_c, 2, 74, 0
5, 14670, Note_on_c, 2, 74, 0
5, 14670, Note_on_c, 2, 78, 64
5, 14670, Note_on_c, 2, 78, 64
5, 14700, Note_on_c, 2, 78, 0
5, 14700, Note_on_c, 2, 78, 0
5, 14700, Note_on_c, 2, 81, 64
5, 14700, Note_on_c, 2, 81, 64
5, 14730, Note_on_c, 2, 81, 0
5, 14730, Note_on_c, 2, 81, 0
5, 14730, Note_on_c, 2, 73, 64
5, 14730, Note_on_c, 2, 73, 64
5, 14760, Note_on_c, 2, 73, 0
5, 14760, Note_on_c, 2, 73, 0
5, 14760, Note_on_c, 2, 74, 64
5, 14760, Note_on_c, 2, 74, 64
5, 14790, Note_on_c, 2, 74, 0
5, 14790, Note_on_c, 2, 74, 0
5, 14790, Note_on_c, 2, 78, 64
5, 14790, Note_on_c, 2, 78, 64
5, 14820, Note_on_c, 2, 78, 0
5, 14820, Note_on_c, 2, 78, 0
5, 14820, Note_on_c, 2, 83, 64
5, 14820, Note_on_c, 2, 83, 64
5, 14850, Note_on_c, 2, 83, 0
5, 14850, Note_on_c, 2, 83, 0
5, 14850, Note_on_c, 2, 81, 64
5, 14850, Note_on_c, 2, 81, 64
5, 14880, Note_on_c, 2, 81, 0
5, 14880, Note_on_c, 2, 81, 0
5, 14880, Note_on_c, 2, 79, 64
5, 14880, Note_on_c, 2, 79, 64
5, 14910, Note_on_c, 2, 79, 0
5, 14910, Note_on_c, 2, 79, 0
5, 14910, Note_on_c, 2, 78, 64
5, 14910, Note_on_c, 2, 78, 64
5, 14940, Note_on_c, 2, 78, 0
5, 14940, Note_on_c, 2, 78, 0
5, 14940, Note_on_c, 2, 76, 64
5, 14940, Note_on_c, 2, 76, 64
5, 14970, Note_on_c, 2, 76, 0
5, 14970, Note_on_c, 2, 76, 0
5, 14970, Note_on_c, 2, 73, 64
5, 14970, Note_on_c, 2, 69, 64
5, 15000, Note_on_c, 2, 69, 0
5, 15000, Note_on_c, 2, 73, 0
5, 15000, Note_on_c, 2, 76, 64
5, 15000, Note_on_c, 2, 73, 64
5, 15030, Note_on_c, 2, 73, 0
5, 15030, Note_on_c, 2, 76, 0
5, 15030, Note_on_c, 2, 79, 64
5, 15030, Note_on_c, 2, 76, 64
5, 15060, Note_on_c, 2, 76, 0
5, 15060, Note_on_c, 2, 79, 0
5, 15060, Note_on_c, 2, 76, 64
5, 15060, Note_on_c, 2, 73, 64
5, 15090, Note_on_c, 2, 73, 0
5, 15090, Note_on_c, 2, 76, 0
5, 15090, Note_on_c, 2, 73, 64
5, 15090, Note_on_c, 2, 69, 64
5, 15120, Note_on_c, 2, 69, 0
5, 15120, Note_on_c, 2, 73, 0
5, 15120, Note_on_c, 2, 74, 64
5, 15120, Note_on_c, 2, 74, 64
5, 15150, Note_on_c, 2, 74, 0
5, 15150, Note_on_c, 2, 74, 0
5, 15150, Note_on_c, 2, 78, 64
5, 15150, Note_on_c, 2, 78, 64
5, 15180, Note_on_c, 2, 78, 0
5, 15180, Note_on_c, 2, 78, 0
5, 15180, Note_on_c, 2, 76, 64
5, 15180, Note_on_c, 2, 76, 64
5, 15210, Note_on_c, 2, 76, 0
5, 15210, Note_on_c, 2, 76, 0
5, 15210, Note_on_c, 2, 74, 64
5, 15210, Note_on_c, 2, 74, 64
5, 15240, Note_on_c, 2, 74, 0
5, 15240, Note_on_c, 2, 74, 0
5, 15240, Note_on_c, 2, 73, 64
5, 15240, Note_on_c, 2, 73, 64
5, 15270, Note_on_c, 2, 73, 0
5, 15270, Note_on_c, 2, 73, 0
5, 15270, Note_on_c, 2, 71, 64
5, 15270, Note_on_c, 2, 71, 64
5, 15300, Note_on_c, 2, 71, 0
5, 15300, Note_on_c, 2, 71, 0
5, 15300, Control_c, 2, 7, 75
5, 15300, Control_c, 2, 7, 75
5, 15300, Note_on_c, 2, 73, 50
5, 15300, Note_on_c, 2, 73, 50
5, 15330, Note_on_c, 2, 73, 0
5, 15330, Note_on_c, 2, 69, 51
5, 15335, Note_on_c, 2, 73, 0
5, 15360, Note_on_c, 2, 69, 0
5, 15360, Note_on_c, 2, 73, 52
5, 15390, Note_on_c, 2, 73, 0
5, 15390, Note_on_c, 2, 76, 53
5, 15420, Note_on_c, 2, 76, 0
5, 15420, Note_on_c, 2, 73, 53
5, 15450, Note_on_c, 2, 73, 0
5, 15450, Note_on_c, 2, 69, 54
5, 15480, Note_on_c, 2, 69, 0
5, 15480, Note_on_c, 2, 81, 55
5, 15510, Note_on_c, 2, 66, 56
5, 15540, Note_on_c, 2, 66, 0
5, 15540, Note_on_c, 2, 69, 57
5, 15570, Note_on_c, 2, 69, 0
5, 15570, Note_on_c, 2, 73, 58
5, 15600, Note_on_c, 2, 73, 0
5, 15600, Note_on_c, 2, 69, 58
5, 15630, Note_on_c, 2, 69, 0
5, 15630, Note_on_c, 2, 66, 59
5, 15660, Note_on_c, 2, 66, 0
5, 15660, Note_on_c, 2, 78, 60
5, 15690, Note_on_c, 2, 81, 0
5, 15690, Note_on_c, 2, 71, 61
5, 15720, Note_on_c, 2, 71, 0
5, 15720, Note_on_c, 2, 75, 62
5, 15750, Note_on_c, 2, 75, 0
5, 15750, Note_on_c, 2, 78, 63
5, 15780, Note_on_c, 2, 78, 0
5, 15780, Note_on_c, 2, 75, 63
5, 15810, Note_on_c, 2, 75, 0
5, 15810, Note_on_c, 2, 71, 64
5, 15840, Note_on_c, 2, 71, 0
5, 15840, Note_on_c, 2, 83, 65
5, 15870, Note_on_c, 2, 83, 0
5, 15870, Note_on_c, 2, 78, 0
5, 15870, Note_on_c, 2, 84, 66
5, 15870, Note_on_c, 2, 81, 66
5, 15900, Note_on_c, 2, 81, 0
5, 15900, Note_on_c, 2, 84, 0
5, 15900, Note_on_c, 2, 83, 67
5, 15900, Note_on_c, 2, 79, 67
5, 15930, Note_on_c, 2, 79, 0
5, 15930, Note_on_c, 2, 83, 0
5, 15930, Note_on_c, 2, 81, 68
5, 15930, Note_on_c, 2, 78, 68
5, 15960, Note_on_c, 2, 78, 0
5, 15960, Note_on_c, 2, 81, 0
5, 15960, Note_on_c, 2, 79, 68
5, 15960, Note_on_c, 2, 76, 68
5, 15990, Note_on_c, 2, 76, 0
5, 15990, Note_on_c, 2, 79, 0
5, 15990, Note_on_c, 2, 78, 69
5, 15990, Note_on_c, 2, 75, 69
5, 16020, Note_on_c, 2, 75, 0
5, 16020, Note_on_c, 2, 78, 0
5, 16020, Note_on_c, 2, 79, 50
5, 16020, Note_on_c, 2, 76, 50
5, 16050, Note_on_c, 2, 79, 0
5, 16050, Note_on_c, 2, 71, 51
5, 16055, Note_on_c, 2, 76, 0
5, 16080, Note_on_c, 2, 71, 0
5, 16080, Note_on_c, 2, 76, 52
5, 16110, Note_on_c, 2, 76, 0
5, 16110, Note_on_c, 2, 79, 53
5, 16140, Note_on_c, 2, 79, 0
5, 16140, Note_on_c, 2, 76, 53
5, 16170, Note_on_c, 2, 76, 0
5, 16170, Note_on_c, 2, 71, 54
5, 16200, Note_on_c, 2, 71, 0
5, 16200, Note_on_c, 2, 79, 55
5, 16230, Note_on_c, 2, 64, 56
5, 16260, Note_on_c, 2, 64, 0
5, 16260, Note_on_c, 2, 67, 57
5, 16290, Note_on_c, 2, 67, 0
5, 16290, Note_on_c, 2, 71, 58
5, 16320, Note_on_c, 2, 71, 0
5, 16320, Note_on_c, 2, 67, 58
5, 16350, Note_on_c, 2, 67, 0
5, 16350, Note_on_c, 2, 64, 59
5, 16380, Note_on_c, 2, 64, 0
5, 16380, Note_on_c, 2, 76, 60
5, 16410, Note_on_c, 2, 79, 0
5, 16410, Note_on_c, 2, 69, 61
5, 16440, Note_on_c, 2, 69, 0
5, 16440, Note_on_c, 2, 73, 62
5, 16470, Note_on_c, 2, 73, 0
5, 16470, Note_on_c, 2, 76, 63
5, 16500, Note_on_c, 2, 76, 0
5, 16500, Note_on_c, 2, 73, 63
5, 16530, Note_on_c, 2, 73, 0
5, 16530, Note_on_c, 2, 69, 64
5, 16560, Note_on_c, 2, 69, 0
5, 16560, Note_on_c, 2, 81, 65
5, 16590, Note_on_c, 2, 81, 0
5, 16590, Note_on_c, 2, 76, 0
5, 16590, Note_on_c, 2, 83, 66
5, 16590, Note_on_c, 2, 79, 66
5, 16620, Note_on_c, 2, 79, 0
5, 16620, Note_on_c, 2, 83, 0
5, 16620, Note_on_c, 2, 81, 67
5, 16620, Note_on_c, 2, 78, 67
5, 16650, Note_on_c, 2, 78, 0
5, 16650, Note_on_c, 2, 81, 0
5, 16650, Note_on_c, 2, 79, 68
5, 16650, Note_on_c, 2, 76, 68
5, 16680, Note_on_c, 2, 76, 0
5, 16680, Note_on_c, 2, 79, 0
5, 16680, Note_on_c, 2, 78, 68
5, 16680, Note_on_c, 2, 74, 68
5, 16710, Note_on_c, 2, 74, 0
5, 16710, Note_on_c, 2, 78, 0
5, 16710, Note_on_c, 2, 76, 69
5, 16710, Note_on_c, 2, 73, 69
5, 16740, Note_on_c, 2, 73, 0
5, 16740, Note_on_c, 2, 76, 0
5, 16740, Control_c, 2, 7, 75
5, 16740, Control_c, 2, 7, 75
5, 16740, Note_on_c, 2, 78, 64
5, 16740, Note_on_c, 2, 74, 64
5, 16770, Note_on_c, 2, 78, 0
5, 16770, Note_on_c, 2, 74, 64
5, 16775, Note_on_c, 2, 74, 0
5, 16800, Note_on_c, 2, 74, 0
5, 16800, Note_on_c, 2, 78, 65
5, 16830, Note_on_c, 2, 78, 0
5, 16830, Note_on_c, 2, 81, 65
5, 16860, Note_on_c, 2, 81, 0
5, 16860, Note_on_c, 2, 86, 65
5, 16860, Note_on_c, 2, 78, 65
5, 16890, Note_on_c, 2, 86, 0
5, 16890, Note_on_c, 2, 78, 66
5, 16895, Note_on_c, 2, 78, 0
5, 16920, Note_on_c, 2, 78, 0
5, 16920, Note_on_c, 2, 76, 66
5, 16920, Note_on_c, 2, 83, 66
5, 16950, Note_on_c, 2, 76, 0
5, 16950, Note_on_c, 2, 86, 66
5, 16955, Note_on_c, 2, 83, 0
5, 16980, Note_on_c, 2, 86, 0
5, 16980, Note_on_c, 2, 85, 67
5, 17010, Note_on_c, 2, 85, 0
5, 17010, Note_on_c, 2, 83, 67
5, 17040, Note_on_c, 2, 83, 0
5, 17040, Note_on_c, 2, 85, 67
5, 17040, Note_on_c, 2, 81, 67
5, 17070, Note_on_c, 2, 85, 0
5, 17070, Note_on_c, 2, 76, 68
5, 17075, Note_on_c, 2, 81, 0
5, 17100, Note_on_c, 2, 76, 0
5, 17100, Note_on_c, 2, 74, 68
5, 17100, Note_on_c, 2, 78, 68
5, 17130, Note_on_c, 2, 74, 0
5, 17130, Note_on_c, 2, 71, 68
5, 17135, Note_on_c, 2, 78, 0
5, 17160, Note_on_c, 2, 71, 0
5, 17160, Note_on_c, 2, 74, 69
5, 17190, Note_on_c, 2, 74, 0
5, 17190, Note_on_c, 2, 78, 69
5, 17220, Note_on_c, 2, 78, 0
5, 17220, Note_on_c, 2, 83, 69
5, 17220, Note_on_c, 2, 79, 69
5, 17250, Note_on_c, 2, 83, 0
5, 17250, Note_on_c, 2, 74, 70
5, 17255, Note_on_c, 2, 79, 0
5, 17280, Note_on_c, 2, 74, 0
5, 17280, Note_on_c, 2, 73, 70
5, 17280, Note_on_c, 2, 79, 70
5, 17310, Note_on_c, 2, 73, 0
5, 17310, Note_on_c, 2, 83, 70
5, 17315, Note_on_c, 2, 79, 0
5, 17340, Note_on_c, 2, 83, 0
5, 17340, Note_on_c, 2, 81, 71
5, 17370, Note_on_c, 2, 81, 0
5, 17370, Note_on_c, 2, 79, 71
5, 17400, Note_on_c, 2, 79, 0
5, 17400, Note_on_c, 2, 81, 71
5, 17400, Note_on_c, 2, 74, 71
5, 17430, Note_on_c, 2, 81, 0
5, 17430, Note_on_c, 2, 72, 72
5, 17435, Note_on_c, 2, 74, 0
5, 17460, Note_on_c, 2, 72, 0
5, 17460, Note_on_c, 2, 71, 72
5, 17460, Note_on_c, 2, 74, 72
5, 17490, Note_on_c, 2, 71, 0
5, 17490, Note_on_c, 2, 67, 72
5, 17495, Note_on_c, 2, 74, 0
5, 17520, Note_on_c, 2, 67, 0
5, 17520, Note_on_c, 2, 71, 73
5, 17550, Note_on_c, 2, 71, 0
5, 17550, Note_on_c, 2, 74, 73
5, 17580, Note_on_c, 2, 74, 0
5, 17580, Note_on_c, 2, 79, 73
5, 17580, Note_on_c, 2, 76, 73
5, 17610, Note_on_c, 2, 79, 0
5, 17610, Note_on_c, 2, 71, 74
5, 17615, Note_on_c, 2, 76, 0
5, 17640, Note_on_c, 2, 71, 0
5, 17640, Note_on_c, 2, 69, 74
5, 17640, Note_on_c, 2, 76, 74
5, 17670, Note_on_c, 2, 69, 0
5, 17670, Note_on_c, 2, 79, 74
5, 17675, Note_on_c, 2, 76, 0
5, 17700, Note_on_c, 2, 79, 0
5, 17700, Note_on_c, 2, 78, 75
5, 17730, Note_on_c, 2, 78, 0
5, 17730, Note_on_c, 2, 76, 75
5, 17760, Note_on_c, 2, 76, 0
5, 17760, Note_on_c, 2, 78, 75
5, 17760, Note_on_c, 2, 69, 75
5, 17790, Note_on_c, 2, 78, 0
5, 17790, Note_on_c, 2, 69, 76
5, 17795, Note_on_c, 2, 69, 0
5, 17820, Note_on_c, 2, 69, 0
5, 17820, Note_on_c, 2, 71, 76
5, 17820, Note_on_c, 2, 71, 76
5, 17850, Note_on_c, 2, 71, 0
5, 17850, Note_on_c, 2, 71, 0
5, 17850, Note_on_c, 2, 69, 76
5, 17850, Note_on_c, 2, 69, 76
5, 17880, Note_on_c, 2, 69, 0
5, 17880, Note_on_c, 2, 69, 0
5, 17880, Note_on_c, 2, 67, 77
5, 17880, Note_on_c, 2, 67, 77
5, 17910, Note_on_c, 2, 67, 0
5, 17910, Note_on_c, 2, 67, 0
5, 17910, Note_on_c, 2, 66, 77
5, 17910, Note_on_c, 2, 66, 77
5, 17940, Note_on_c, 2, 66, 0
5, 17940, Note_on_c, 2, 66, 0
5, 17940, Note_on_c, 2, 64, 77
5, 17940, Note_on_c, 2, 64, 77
5, 17970, Note_on_c, 2, 64, 0
5, 17970, Note_on_c, 2, 64, 0
5, 17970, Note_on_c, 2, 73, 78
5, 17970, Note_on_c, 2, 73, 78
5, 18000, Note_on_c, 2, 73, 0
5, 18000, Note_on_c, 2, 73, 0
5, 18000, Note_on_c, 2, 74, 78
5, 18000, Note_on_c, 2, 74, 78
5, 18030, Note_on_c, 2, 74, 0
5, 18030, Note_on_c, 2, 74, 0
5, 18030, Note_on_c, 2, 76, 78
5, 18030, Note_on_c, 2, 76, 78
5, 18060, Note_on_c, 2, 76, 0
5, 18060, Note_on_c, 2, 76, 0
5, 18060, Note_on_c, 2, 73, 79
5, 18060, Note_on_c, 2, 73, 79
5, 18150, Note_on_c, 2, 73, 0
5, 18150, Note_on_c, 2, 73, 0
5, 18150, Note_on_c, 2, 74, 80
5, 18150, Note_on_c, 2, 74, 80
5, 18180, Note_on_c, 2, 74, 0
5, 18180, Note_on_c, 2, 74, 0
5, 18180, Note_on_c, 2, 74, 100
5, 18180, Note_on_c, 2, 74, 100
5, 18300, Note_on_c, 2, 74, 0
5, 18300, Note_on_c, 2, 74, 0
5, 19320, Note_on_c, 2, 67, 42
5, 19320, Note_on_c, 2, 67, 42
5, 19440, Note_on_c, 2, 67, 0
5, 19440, Note_on_c, 2, 67, 0
5, 19440, Note_on_c, 2, 69, 44
5, 19440, Note_on_c, 2, 66, 44
5, 19475, Note_on_c, 2, 66, 0
5, 19475, Note_on_c, 2, 69, 0
5, 19500, Note_on_c, 2, 69, 45
5, 19500, Note_on_c, 2, 66, 45
5, 19560, Note_on_c, 2, 66, 0
5, 19560, Note_on_c, 2, 69, 0
5, 19560, Note_on_c, 2, 71, 46
5, 19560, Note_on_c, 2, 67, 46
5, 19595, Note_on_c, 2, 67, 0
5, 19595, Note_on_c, 2, 71, 0
5, 19620, Note_on_c, 2, 71, 47
5, 19620, Note_on_c, 2, 67, 47
5, 19680, Note_on_c, 2, 67, 0
5, 19680, Note_on_c, 2, 71, 0
5, 19680, Note_on_c, 2, 69, 48
5, 19680, Note_on_c, 2, 66, 48
5, 19715, Note_on_c, 2, 66, 0
5, 19715, Note_on_c, 2, 69, 0
5, 19740, Note_on_c, 2, 71, 49
5, 19740, Note_on_c, 2, 67, 49
5, 19800, Note_on_c, 2, 67, 0
5, 19800, Note_on_c, 2, 71, 0
5, 19800, Note_on_c, 2, 72, 50
5, 19800, Note_on_c, 2, 69, 50
5, 19835, Note_on_c, 2, 69, 0
5, 19835, Note_on_c, 2, 72, 0
5, 19860, Note_on_c, 2, 72, 51
5, 19860, Note_on_c, 2, 69, 51
5, 19920, Note_on_c, 2, 69, 0
5, 19920, Note_on_c, 2, 72, 0
5, 19920, Note_on_c, 2, 71, 52
5, 19920, Note_on_c, 2, 67, 52
5, 19955, Note_on_c, 2, 67, 0
5, 19955, Note_on_c, 2, 71, 0
5, 19980, Note_on_c, 2, 71, 53
5, 19980, Note_on_c, 2, 67, 53
5, 20040, Note_on_c, 2, 67, 0
5, 20040, Note_on_c, 2, 71, 0
5, 20040, Note_on_c, 2, 69, 54
5, 20040, Note_on_c, 2, 66, 54
5, 20075, Note_on_c, 2, 66, 0
5, 20075, Note_on_c, 2, 69, 0
5, 20100, Note_on_c, 2, 69, 56
5, 20100, Note_on_c, 2, 66, 56
5, 20220, Note_on_c, 2, 66, 0
5, 20220, Note_on_c, 2, 69, 0
5, 20220, Note_on_c, 2, 78, 58
5, 20220, Note_on_c, 2, 69, 58
5, 20340, Note_on_c, 2, 69, 0
5, 20340, Note_on_c, 2, 78, 0
5, 20340, Note_on_c, 2, 79, 60
5, 20340, Note_on_c, 2, 71, 60
5, 20460, Note_on_c, 2, 71, 0
5, 20460, Note_on_c, 2, 79, 0
5, 20460, Note_on_c, 2, 76, 62
5, 20460, Note_on_c, 2, 67, 62
5, 20580, Note_on_c, 2, 67, 0
5, 20580, Note_on_c, 2, 66, 64
5, 20700, Note_on_c, 2, 66, 0
5, 20700, Note_on_c, 2, 76, 0
5, 20700, Note_on_c, 2, 75, 64
5, 20700, Note_on_c, 2, 71, 64
5, 20820, Note_on_c, 2, 75, 0
5, 20820, Note_on_c, 2, 76, 64
5, 20940, Note_on_c, 2, 71, 0
5, 20940, Note_on_c, 2, 69, 64
5, 21060, Note_on_c, 2, 69, 0
5, 21060, Note_on_c, 2, 67, 64
5, 21120, Note_on_c, 2, 67, 0
5, 21120, Note_on_c, 2, 76, 0
5, 21120, Note_on_c, 2, 75, 64
5, 21120, Note_on_c, 2, 66, 64
5, 21155, Note_on_c, 2, 66, 0
5, 21155, Note_on_c, 2, 75, 0
5, 21180, Note_on_c, 2, 75, 64
5, 21180, Note_on_c, 2, 66, 64
5, 21300, Note_on_c, 2, 66, 0
5, 21300, Note_on_c, 2, 75, 0
5, 21720, Note_on_c, 2, 71, 65
5, 21720, Note_on_c, 2, 71, 65
5, 21840, Note_on_c, 2, 71, 0
5, 21840, Note_on_c, 2, 71, 0
5, 21840, Note_on_c, 2, 73, 66
5, 21840, Note_on_c, 2, 64, 66
5, 21875, Note_on_c, 2, 64, 0
5, 21875, Note_on_c, 2, 73, 0
5, 21900, Note_on_c, 2, 73, 66
5, 21900, Note_on_c, 2, 64, 66
5, 21960, Note_on_c, 2, 64, 0
5, 21960, Note_on_c, 2, 73, 0
5, 21960, Note_on_c, 2, 74, 67
5, 21960, Note_on_c, 2, 66, 67
5, 21995, Note_on_c, 2, 66, 0
5, 21995, Note_on_c, 2, 74, 0
5, 22020, Note_on_c, 2, 74, 67
5, 22020, Note_on_c, 2, 66, 67
5, 22080, Note_on_c, 2, 66, 0
5, 22080, Note_on_c, 2, 74, 0
5, 22080, Note_on_c, 2, 73, 67
5, 22080, Note_on_c, 2, 64, 67
5, 22115, Note_on_c, 2, 64, 0
5, 22115, Note_on_c, 2, 73, 0
5, 22140, Note_on_c, 2, 74, 68
5, 22140, Note_on_c, 2, 66, 68
5, 22200, Note_on_c, 2, 66, 0
5, 22200, Note_on_c, 2, 74, 0
5, 22200, Note_on_c, 2, 76, 68
5, 22200, Note_on_c, 2, 67, 68
5, 22235, Note_on_c, 2, 67, 0
5, 22235, Note_on_c, 2, 76, 0
5, 22260, Note_on_c, 2, 73, 69
5, 22260, Note_on_c, 2, 64, 69
5, 22320, Note_on_c, 2, 64, 0
5, 22320, Note_on_c, 2, 73, 0
5, 22320, Note_on_c, 2, 75, 69
5, 22320, Note_on_c, 2, 66, 69
5, 22355, Note_on_c, 2, 66, 0
5, 22355, Note_on_c, 2, 75, 0
5, 22380, Note_on_c, 2, 75, 69
5, 22380, Note_on_c, 2, 66, 69
5, 22440, Note_on_c, 2, 66, 0
5, 22440, Note_on_c, 2, 75, 0
5, 22440, Note_on_c, 2, 76, 70
5, 22440, Note_on_c, 2, 67, 70
5, 22475, Note_on_c, 2, 67, 0
5, 22475, Note_on_c, 2, 76, 0
5, 22500, Note_on_c, 2, 76, 64
5, 22500, Note_on_c, 2, 67, 64
5, 22560, Note_on_c, 2, 67, 0
5, 22560, Note_on_c, 2, 76, 0
5, 22560, Note_on_c, 2, 75, 64
5, 22560, Note_on_c, 2, 66, 64
5, 22595, Note_on_c, 2, 66, 0
5, 22595, Note_on_c, 2, 75, 0
5, 22620, Note_on_c, 2, 76, 64
5, 22620, Note_on_c, 2, 67, 64
5, 22680, Note_on_c, 2, 67, 0
5, 22680, Note_on_c, 2, 76, 0
5, 22680, Note_on_c, 2, 78, 64
5, 22680, Note_on_c, 2, 69, 64
5, 22715, Note_on_c, 2, 69, 0
5, 22715, Note_on_c, 2, 78, 0
5, 22740, Note_on_c, 2, 75, 64
5, 22740, Note_on_c, 2, 66, 64
5, 22800, Note_on_c, 2, 66, 0
5, 22800, Note_on_c, 2, 75, 0
5, 22800, Note_on_c, 2, 71, 64
5, 22800, Note_on_c, 2, 63, 64
5, 22835, Note_on_c, 2, 63, 0
5, 22835, Note_on_c, 2, 71, 0
5, 22860, Note_on_c, 2, 71, 64
5, 22860, Note_on_c, 2, 63, 64
5, 22920, Note_on_c, 2, 63, 0
5, 22920, Note_on_c, 2, 71, 0
5, 22920, Note_on_c, 2, 75, 64
5, 22920, Note_on_c, 2, 71, 64
5, 22955, Note_on_c, 2, 71, 0
5, 22955, Note_on_c, 2, 75, 0
5, 22980, Note_on_c, 2, 76, 64
5, 22980, Note_on_c, 2, 71, 64
5, 23040, Note_on_c, 2, 71, 0
5, 23040, Note_on_c, 2, 69, 65
5, 23075, Note_on_c, 2, 69, 0
5, 23100, Note_on_c, 2, 69, 67
5, 23160, Note_on_c, 2, 69, 0
5, 23160, Note_on_c, 2, 67, 68
5, 23195, Note_on_c, 2, 67, 0
5, 23220, Note_on_c, 2, 67, 70
5, 23280, Note_on_c, 2, 67, 0
5, 23280, Note_on_c, 2, 68, 71
5, 23315, Note_on_c, 2, 68, 0
5, 23340, Note_on_c, 2, 68, 72
5, 23400, Note_on_c, 2, 68, 0
5, 23400, Note_on_c, 2, 69, 74
5, 23435, Note_on_c, 2, 69, 0
5, 23460, Note_on_c, 2, 69, 75
5, 23520, Note_on_c, 2, 69, 0
5, 23520, Note_on_c, 2, 76, 0
5, 23520, Note_on_c, 2, 75, 75
5, 23520, Note_on_c, 2, 71, 75
5, 23555, Note_on_c, 2, 71, 0
5, 23580, Note_on_c, 2, 75, 0
5, 23580, Note_on_c, 2, 76, 75
5, 23580, Note_on_c, 2, 71, 75
5, 23640, Note_on_c, 2, 71, 0
5, 23640, Note_on_c, 2, 76, 0
5, 23640, Note_on_c, 2, 79, 75
5, 23640, Note_on_c, 2, 72, 75
5, 23675, Note_on_c, 2, 72, 0
5, 23700, Note_on_c, 2, 79, 0
5, 23700, Note_on_c, 2, 78, 75
5, 23700, Note_on_c, 2, 69, 75
5, 23760, Note_on_c, 2, 69, 0
5, 23760, Note_on_c, 2, 78, 0
5, 23760, Note_on_c, 2, 76, 75
5, 23760, Note_on_c, 2, 71, 75
5, 23790, Note_on_c, 2, 71, 0
5, 23790, Note_on_c, 2, 76, 0
5, 23790, Note_on_c, 2, 75, 75
5, 23790, Note_on_c, 2, 72, 75
5, 23820, Note_on_c, 2, 72, 0
5, 23820, Note_on_c, 2, 75, 0
5, 23820, Note_on_c, 2, 76, 75
5, 23820, Note_on_c, 2, 71, 75
5, 23880, Note_on_c, 2, 71, 0
5, 23880, Note_on_c, 2, 76, 0
5, 23880, Note_on_c, 2, 69, 75
5, 23880, Note_on_c, 2, 64, 75
5, 23940, Note_on_c, 2, 64, 0
5, 23940, Note_on_c, 2, 69, 0
5, 23940, Note_on_c, 2, 67, 67
5, 23940, Note_on_c, 2, 64, 67
5, 24060, Note_on_c, 2, 64, 0
5, 24060, Note_on_c, 2, 67, 0
5, 24060, Note_on_c, 2, 66, 60
5, 24060, Note_on_c, 2, 63, 60
5, 24180, Note_on_c, 2, 63, 0
5, 24180, Note_on_c, 2, 66, 0
5, 24180, Note_on_c, 2, 64, 53
5, 24180, Note_on_c, 2, 64, 53
5, 24300, Note_on_c, 2, 64, 0
5, 24300, Note_on_c, 2, 64, 0
5, 24600, Note_on_c, 2, 76, 41
5, 24720, Note_on_c, 2, 76, 0
5, 24720, Note_on_c, 2, 78, 42
5, 24755, Note_on_c, 2, 78, 0
5, 24780, Note_on_c, 2, 78, 43
5, 24840, Note_on_c, 2, 78, 0
5, 24840, Note_on_c, 2, 79, 43
5, 24875, Note_on_c, 2, 79, 0
5, 24900, Note_on_c, 2, 79, 43
5, 24960, Note_on_c, 2, 79, 0
5, 24960, Note_on_c, 2, 78, 44
5, 24995, Note_on_c, 2, 78, 0
5, 25020, Note_on_c, 2, 79, 44
5, 25080, Note_on_c, 2, 79, 0
5, 25080, Note_on_c, 2, 78, 45
5, 25080, Note_on_c, 2, 81, 45
5, 25115, Note_on_c, 2, 81, 0
5, 25140, Note_on_c, 2, 75, 45
5, 25200, Note_on_c, 2, 75, 0
5, 25200, Note_on_c, 2, 78, 0
5, 25200, Note_on_c, 2, 79, 46
5, 25200, Note_on_c, 2, 76, 46
5, 25235, Note_on_c, 2, 76, 0
5, 25235, Note_on_c, 2, 79, 0
5, 25260, Note_on_c, 2, 79, 46
5, 25260, Note_on_c, 2, 76, 46
5, 25320, Note_on_c, 2, 76, 0
5, 25320, Note_on_c, 2, 79, 0
5, 25320, Note_on_c, 2, 81, 46
5, 25320, Note_on_c, 2, 78, 46
5, 25355, Note_on_c, 2, 78, 0
5, 25355, Note_on_c, 2, 81, 0
5, 25380, Note_on_c, 2, 81, 47
5, 25380, Note_on_c, 2, 78, 47
5, 25440, Note_on_c, 2, 78, 0
5, 25440, Note_on_c, 2, 81, 0
5, 25440, Note_on_c, 2, 79, 47
5, 25440, Note_on_c, 2, 76, 47
5, 25475, Note_on_c, 2, 76, 0
5, 25475, Note_on_c, 2, 79, 0
5, 25500, Note_on_c, 2, 81, 48
5, 25500, Note_on_c, 2, 78, 48
5, 25560, Note_on_c, 2, 78, 0
5, 25560, Note_on_c, 2, 81, 0
5, 25560, Note_on_c, 2, 83, 48
5, 25560, Note_on_c, 2, 75, 48
5, 25595, Note_on_c, 2, 75, 0
5, 25595, Note_on_c, 2, 83, 0
5, 25620, Note_on_c, 2, 80, 49
5, 25620, Note_on_c, 2, 71, 49
5, 25680, Note_on_c, 2, 71, 0
5, 25680, Note_on_c, 2, 80, 0
5, 25680, Note_on_c, 2, 82, 49
5, 25680, Note_on_c, 2, 73, 49
5, 25715, Note_on_c, 2, 73, 0
5, 25715, Note_on_c, 2, 82, 0
5, 25740, Note_on_c, 2, 82, 49
5, 25740, Note_on_c, 2, 73, 49
5, 25800, Note_on_c, 2, 73, 0
5, 25800, Note_on_c, 2, 82, 0
5, 25800, Note_on_c, 2, 83, 50
5, 25800, Note_on_c, 2, 74, 50
5, 25835, Note_on_c, 2, 74, 0
5, 25835, Note_on_c, 2, 83, 0
5, 25860, Note_on_c, 2, 83, 50
5, 25860, Note_on_c, 2, 74, 50
5, 25920, Note_on_c, 2, 74, 0
5, 25920, Note_on_c, 2, 83, 0
5, 25920, Note_on_c, 2, 82, 51
5, 25920, Note_on_c, 2, 73, 51
5, 25955, Note_on_c, 2, 73, 0
5, 25955, Note_on_c, 2, 82, 0
5, 25980, Note_on_c, 2, 83, 51
5, 25980, Note_on_c, 2, 74, 51
5, 26040, Note_on_c, 2, 74, 0
5, 26040, Note_on_c, 2, 83, 0
5, 26040, Note_on_c, 2, 85, 52
5, 26040, Note_on_c, 2, 76, 52
5, 26075, Note_on_c, 2, 76, 0
5, 26075, Note_on_c, 2, 85, 0
5, 26100, Note_on_c, 2, 82, 52
5, 26100, Note_on_c, 2, 73, 52
5, 26160, Note_on_c, 2, 73, 0
5, 26160, Note_on_c, 2, 82, 0
5, 26160, Note_on_c, 2, 78, 52
5, 26160, Note_on_c, 2, 70, 52
5, 26195, Note_on_c, 2, 70, 0
5, 26195, Note_on_c, 2, 78, 0
5, 26220, Note_on_c, 2, 78, 53
5, 26220, Note_on_c, 2, 70, 53
5, 26280, Note_on_c, 2, 70, 0
5, 26280, Note_on_c, 2, 78, 0
5, 26280, Note_on_c, 2, 82, 53
5, 26280, Note_on_c, 2, 73, 53
5, 26315, Note_on_c, 2, 73, 0
5, 26315, Note_on_c, 2, 82, 0
5, 26340, Note_on_c, 2, 83, 54
5, 26340, Note_on_c, 2, 78, 54
5, 26400, Note_on_c, 2, 78, 0
5, 26400, Note_on_c, 2, 76, 54
5, 26435, Note_on_c, 2, 76, 0
5, 26460, Note_on_c, 2, 76, 55
5, 26520, Note_on_c, 2, 76, 0
5, 26520, Note_on_c, 2, 74, 55
5, 26555, Note_on_c, 2, 74, 0
5, 26580, Note_on_c, 2, 74, 55
5, 26640, Note_on_c, 2, 74, 0
5, 26640, Note_on_c, 2, 75, 56
5, 26675, Note_on_c, 2, 75, 0
5, 26700, Note_on_c, 2, 75, 56
5, 26760, Note_on_c, 2, 75, 0
5, 26760, Note_on_c, 2, 76, 57
5, 26795, Note_on_c, 2, 76, 0
5, 26820, Note_on_c, 2, 76, 57
5, 26880, Note_on_c, 2, 76, 0
5, 26880, Note_on_c, 2, 83, 0
5, 26880, Note_on_c, 2, 82, 58
5, 26880, Note_on_c, 2, 78, 58
5, 26915, Note_on_c, 2, 78, 0
5, 26940, Note_on_c, 2, 82, 0
5, 26940, Note_on_c, 2, 83, 58
5, 26940, Note_on_c, 2, 78, 58
5, 27000, Note_on_c, 2, 78, 0
5, 27000, Note_on_c, 2, 83, 0
5, 27000, Note_on_c, 2, 86, 58
5, 27000, Note_on_c, 2, 79, 58
5, 27060, Note_on_c, 2, 79, 0
5, 27060, Note_on_c, 2, 86, 0
5, 27060, Note_on_c, 2, 85, 59
5, 27060, Note_on_c, 2, 79, 59
5, 27120, Note_on_c, 2, 79, 0
5, 27120, Note_on_c, 2, 85, 0
5, 27120, Note_on_c, 2, 83, 59
5, 27120, Note_on_c, 2, 78, 59
5, 27150, Note_on_c, 2, 78, 0
5, 27150, Note_on_c, 2, 83, 0
5, 27150, Note_on_c, 2, 82, 60
5, 27150, Note_on_c, 2, 76, 60
5, 27180, Note_on_c, 2, 76, 0
5, 27180, Note_on_c, 2, 82, 0
5, 27180, Note_on_c, 2, 83, 60
5, 27180, Note_on_c, 2, 78, 60
5, 27240, Note_on_c, 2, 78, 0
5, 27240, Note_on_c, 2, 83, 0
5, 27240, Note_on_c, 2, 76, 60
5, 27240, Note_on_c, 2, 71, 60
5, 27300, Note_on_c, 2, 71, 0
5, 27300, Note_on_c, 2, 76, 0
5, 27300, Note_on_c, 2, 74, 61
5, 27300, Note_on_c, 2, 71, 61
5, 27420, Note_on_c, 2, 71, 0
5, 27420, Note_on_c, 2, 74, 0
5, 27420, Note_on_c, 2, 74, 61
5, 27420, Note_on_c, 2, 70, 61
5, 27435, Note_on_c, 2, 74, 0
5, 27435, Note_on_c, 2, 73, 62
5, 27450, Note_on_c, 2, 73, 0
5, 27450, Note_on_c, 2, 74, 62
5, 27465, Note_on_c, 2, 74, 0
5, 27465, Note_on_c, 2, 73, 62
5, 27480, Note_on_c, 2, 73, 0
5, 27480, Note_on_c, 2, 74, 62
5, 27495, Note_on_c, 2, 74, 0
5, 27495, Note_on_c, 2, 73, 62
5, 27510, Note_on_c, 2, 73, 0
5, 27510, Note_on_c, 2, 71, 62
5, 27525, Note_on_c, 2, 71, 0
5, 27525, Note_on_c, 2, 73, 62
5, 27540, Note_on_c, 2, 73, 0
5, 27540, Note_on_c, 2, 70, 0
5, 27540, Note_on_c, 2, 71, 64
5, 27540, Note_on_c, 2, 71, 64
5, 27600, Note_on_c, 2, 71, 0
5, 27600, Note_on_c, 2, 71, 0
5, 27600, Note_on_c, 2, 73, 53
5, 27600, Note_on_c, 2, 64, 53
5, 27635, Note_on_c, 2, 64, 0
5, 27635, Note_on_c, 2, 73, 0
5, 27660, Note_on_c, 2, 73, 41
5, 27660, Note_on_c, 2, 64, 41
5, 27720, Note_on_c, 2, 64, 0
5, 27720, Note_on_c, 2, 73, 0
5, 27720, Note_on_c, 2, 74, 30
5, 27720, Note_on_c, 2, 66, 30
5, 27755, Note_on_c, 2, 66, 0
5, 27755, Note_on_c, 2, 74, 0
5, 27780, Control_c, 2, 7, 20
5, 27780, Control_c, 2, 7, 20
5, 27780, Note_on_c, 2, 74, 64
5, 27780, Note_on_c, 2, 66, 64
5, 27785, Control_c, 2, 7, 54
5, 27840, Note_on_c, 2, 66, 0
5, 27840, Note_on_c, 2, 71, 64
5, 27875, Note_on_c, 2, 71, 0
5, 27900, Note_on_c, 2, 69, 64
5, 27960, Note_on_c, 2, 69, 0
5, 27960, Note_on_c, 2, 67, 64
5, 27995, Note_on_c, 2, 67, 0
5, 28020, Note_on_c, 2, 66, 64
5, 28080, Note_on_c, 2, 66, 0
5, 28080, Note_on_c, 2, 67, 64
5, 28115, Note_on_c, 2, 67, 0
5, 28140, Note_on_c, 2, 69, 64
5, 28200, Note_on_c, 2, 69, 0
5, 28200, Note_on_c, 2, 66, 64
5, 28235, Note_on_c, 2, 66, 0
5, 28260, Note_on_c, 2, 67, 64
5, 28320, Note_on_c, 2, 67, 0
5, 28320, Note_on_c, 2, 66, 64
5, 28355, Note_on_c, 2, 66, 0
5, 28380, Note_on_c, 2, 64, 64
5, 28440, Note_on_c, 2, 64, 0
5, 28440, Note_on_c, 2, 66, 64
5, 28475, Note_on_c, 2, 66, 0
5, 28500, Note_on_c, 2, 67, 64
5, 28560, Note_on_c, 2, 67, 0
5, 28560, Note_on_c, 2, 69, 64
5, 28590, Note_on_c, 2, 69, 0
5, 28590, Note_on_c, 2, 67, 64
5, 28620, Note_on_c, 2, 67, 0
5, 28620, Note_on_c, 2, 69, 64
5, 28680, Note_on_c, 2, 69, 0
5, 28680, Note_on_c, 2, 71, 64
5, 28740, Note_on_c, 2, 71, 0
5, 28740, Note_on_c, 2, 69, 64
5, 28860, Note_on_c, 2, 69, 0
5, 28860, Note_on_c, 2, 74, 0
5, 28860, Note_on_c, 2, 73, 64
5, 28860, Note_on_c, 2, 67, 64
5, 28980, Note_on_c, 2, 67, 0
5, 28980, Note_on_c, 2, 73, 0
5, 28980, Note_on_c, 2, 74, 64
5, 28980, Note_on_c, 2, 66, 64
5, 29015, Note_on_c, 2, 66, 0
5, 29015, Note_on_c, 2, 74, 0
5, 29100, Note_on_c, 2, 74, 64
5, 29100, Note_on_c, 2, 69, 64
5, 29135, Note_on_c, 2, 69, 0
5, 29135, Note_on_c, 2, 74, 0
5, 29220, Note_on_c, 2, 74, 64
5, 29220, Note_on_c, 2, 71, 64
5, 29255, Note_on_c, 2, 71, 0
5, 29255, Note_on_c, 2, 74, 0
5, 29340, Note_on_c, 2, 74, 64
5, 29340, Note_on_c, 2, 71, 64
5, 29375, Note_on_c, 2, 71, 0
5, 29375, Note_on_c, 2, 74, 0
5, 29460, Note_on_c, 2, 73, 64
5, 29460, Note_on_c, 2, 69, 64
5, 29495, Note_on_c, 2, 69, 0
5, 29495, Note_on_c, 2, 73, 0
5, 29580, Note_on_c, 2, 78, 64
5, 29580, Note_on_c, 2, 69, 64
5, 29615, Note_on_c, 2, 69, 0
5, 29615, Note_on_c, 2, 78, 0
5, 29700, Note_on_c, 2, 78, 64
5, 29700, Note_on_c, 2, 67, 64
5, 29735, Note_on_c, 2, 67, 0
5, 29735, Note_on_c, 2, 78, 0
5, 29820, Note_on_c, 2, 76, 64
5, 29820, Note_on_c, 2, 67, 64
5, 29855, Note_on_c, 2, 67, 0
5, 29855, Note_on_c, 2, 76, 0
5, 29940, Note_on_c, 2, 76, 64
5, 29940, Note_on_c, 2, 66, 64
5, 29975, Note_on_c, 2, 66, 0
5, 29975, Note_on_c, 2, 76, 0
5, 30060, Note_on_c, 2, 74, 64
5, 30060, Note_on_c, 2, 66, 64
5, 30095, Note_on_c, 2, 66, 0
5, 30095, Note_on_c, 2, 74, 0
5, 30180, Note_on_c, 2, 78, 64
5, 30180, Note_on_c, 2, 74, 64
5, 30215, Note_on_c, 2, 74, 0
5, 30215, Note_on_c, 2, 78, 0
5, 30300, Note_on_c, 2, 81, 64
5, 30300, Note_on_c, 2, 73, 64
5, 30335, Note_on_c, 2, 73, 0
5, 30335, Note_on_c, 2, 81, 0
5, 30420, Note_on_c, 2, 81, 64
5, 30420, Note_on_c, 2, 76, 64
5, 30455, Note_on_c, 2, 76, 0
5, 30455, Note_on_c, 2, 81, 0
5, 30540, Note_on_c, 2, 74, 64
5, 30540, Note_on_c, 2, 76, 64
5, 30575, Note_on_c, 2, 76, 0
5, 30575, Note_on_c, 2, 74, 0
5, 30660, Note_on_c, 2, 73, 64
5, 30660, Note_on_c, 2, 76, 64
5, 30695, Note_on_c, 2, 76, 0
5, 30695, Note_on_c, 2, 73, 0
5, 30780, Note_on_c, 2, 81, 64
5, 30780, Note_on_c, 2, 76, 64
5, 30815, Note_on_c, 2, 76, 0
5, 30815, Note_on_c, 2, 81, 0
5, 30900, Note_on_c, 2, 79, 64
5, 30900, Note_on_c, 2, 76, 64
5, 30935, Note_on_c, 2, 76, 0
5, 30935, Note_on_c, 2, 79, 0
5, 31020, Note_on_c, 2, 79, 64
5, 31020, Note_on_c, 2, 69, 64
5, 31055, Note_on_c, 2, 69, 0
5, 31055, Note_on_c, 2, 79, 0
5, 31140, Note_on_c, 2, 78, 64
5, 31140, Note_on_c, 2, 69, 64
5, 31175, Note_on_c, 2, 69, 0
5, 31175, Note_on_c, 2, 78, 0
5, 31260, Note_on_c, 2, 76, 64
5, 31260, Note_on_c, 2, 67, 64
5, 31295, Note_on_c, 2, 67, 0
5, 31295, Note_on_c, 2, 76, 0
5, 31380, Note_on_c, 2, 76, 64
5, 31380, Note_on_c, 2, 72, 64
5, 31415, Note_on_c, 2, 72, 0
5, 31415, Note_on_c, 2, 76, 0
5, 31500, Note_on_c, 2, 74, 64
5, 31500, Note_on_c, 2, 71, 64
5, 31535, Note_on_c, 2, 71, 0
5, 31535, Note_on_c, 2, 74, 0
5, 31620, Note_on_c, 2, 74, 64
5, 31620, Note_on_c, 2, 67, 64
5, 31655, Note_on_c, 2, 67, 0
5, 31655, Note_on_c, 2, 74, 0
5, 31740, Note_on_c, 2, 76, 64
5, 31740, Note_on_c, 2, 71, 64
5, 31775, Note_on_c, 2, 71, 0
5, 31775, Note_on_c, 2, 76, 0
5, 31860, Note_on_c, 2, 76, 64
5, 31860, Note_on_c, 2, 71, 64
5, 31895, Note_on_c, 2, 71, 0
5, 31895, Note_on_c, 2, 76, 0
5, 31980, Note_on_c, 2, 78, 64
5, 31980, Note_on_c, 2, 69, 64
5, 32015, Note_on_c, 2, 69, 0
5, 32015, Note_on_c, 2, 78, 0
5, 32100, Note_on_c, 2, 81, 64
5, 32100, Note_on_c, 2, 78, 64
5, 32135, Note_on_c, 2, 78, 0
5, 32135, Note_on_c, 2, 81, 0
5, 32220, Note_on_c, 2, 79, 64
5, 32220, Note_on_c, 2, 81, 64
5, 32255, Note_on_c, 2, 81, 0
5, 32255, Note_on_c, 2, 79, 0
5, 32340, Note_on_c, 2, 78, 64
5, 32340, Note_on_c, 2, 81, 64
5, 32375, Note_on_c, 2, 81, 0
5, 32375, Note_on_c, 2, 78, 0
5, 32460, Note_on_c, 2, 78, 64
5, 32460, Note_on_c, 2, 74, 64
5, 32495, Note_on_c, 2, 74, 0
5, 32495, Note_on_c, 2, 78, 0
5, 32580, Note_on_c, 2, 78, 64
5, 32580, Note_on_c, 2, 74, 64
5, 32615, Note_on_c, 2, 74, 0
5, 32615, Note_on_c, 2, 78, 0
5, 32700, Note_on_c, 2, 76, 64
5, 32700, Note_on_c, 2, 74, 64
5, 32735, Note_on_c, 2, 74, 0
5, 32735, Note_on_c, 2, 76, 0
5, 32820, Note_on_c, 2, 76, 64
5, 32820, Note_on_c, 2, 73, 64
5, 32855, Note_on_c, 2, 73, 0
5, 32855, Note_on_c, 2, 76, 0
5, 32940, Note_on_c, 2, 74, 64
5, 32940, Note_on_c, 2, 71, 64
5, 32975, Note_on_c, 2, 71, 0
5, 32975, Note_on_c, 2, 74, 0
5, 33060, Note_on_c, 2, 79, 64
5, 33060, Note_on_c, 2, 71, 64
5, 33095, Note_on_c, 2, 71, 0
5, 33095, Note_on_c, 2, 79, 0
5, 33180, Note_on_c, 2, 76, 64
5, 33180, Note_on_c, 2, 69, 64
5, 33215, Note_on_c, 2, 69, 0
5, 33215, Note_on_c, 2, 76, 0
5, 33300, Note_on_c, 2, 78, 64
5, 33300, Note_on_c, 2, 69, 64
5, 33335, Note_on_c, 2, 69, 0
5, 33335, Note_on_c, 2, 78, 0
5, 33420, Note_on_c, 2, 78, 64
5, 33420, Note_on_c, 2, 74, 64
5, 33455, Note_on_c, 2, 74, 0
5, 33455, Note_on_c, 2, 78, 0
5, 33540, Note_on_c, 2, 78, 64
5, 33540, Note_on_c, 2, 74, 64
5, 33575, Note_on_c, 2, 74, 0
5, 33575, Note_on_c, 2, 78, 0
5, 33660, Note_on_c, 2, 81, 64
5, 33660, Note_on_c, 2, 76, 64
5, 33695, Note_on_c, 2, 76, 0
5, 33695, Note_on_c, 2, 81, 0
5, 33780, Note_on_c, 2, 81, 64
5, 33780, Note_on_c, 2, 76, 64
5, 33815, Note_on_c, 2, 76, 0
5, 33815, Note_on_c, 2, 81, 0
5, 33900, Note_on_c, 2, 74, 64
5, 33900, Note_on_c, 2, 76, 64
5, 33935, Note_on_c, 2, 76, 0
5, 33935, Note_on_c, 2, 74, 0
5, 34020, Note_on_c, 2, 73, 64
5, 34020, Note_on_c, 2, 76, 64
5, 34055, Note_on_c, 2, 76, 0
5, 34055, Note_on_c, 2, 73, 0
5, 34140, Note_on_c, 2, 73, 64
5, 34140, Note_on_c, 2, 69, 64
5, 34175, Note_on_c, 2, 69, 0
5, 34175, Note_on_c, 2, 73, 0
5, 34260, Note_on_c, 2, 78, 64
5, 34260, Note_on_c, 2, 69, 64
5, 34295, Note_on_c, 2, 69, 0
5, 34295, Note_on_c, 2, 78, 0
5, 34380, Note_on_c, 2, 78, 64
5, 34380, Note_on_c, 2, 71, 64
5, 34415, Note_on_c, 2, 71, 0
5, 34415, Note_on_c, 2, 78, 0
5, 34500, Note_on_c, 2, 76, 64
5, 34500, Note_on_c, 2, 71, 64
5, 34535, Note_on_c, 2, 71, 0
5, 34535, Note_on_c, 2, 76, 0
5, 34620, Note_on_c, 2, 81, 64
5, 34620, Note_on_c, 2, 76, 64
5, 34655, Note_on_c, 2, 76, 0
5, 34655, Note_on_c, 2, 81, 0
5, 34740, Note_on_c, 2, 74, 64
5, 34740, Note_on_c, 2, 69, 64
5, 34775, Note_on_c, 2, 69, 0
5, 34775, Note_on_c, 2, 74, 0
5, 34860, Note_on_c, 2, 74, 64
5, 34860, Note_on_c, 2, 71, 64
5, 34895, Note_on_c, 2, 71, 0
5, 34895, Note_on_c, 2, 74, 0
5, 34980, Note_on_c, 2, 72, 64
5, 34980, Note_on_c, 2, 71, 64
5, 35015, Note_on_c, 2, 71, 0
5, 35015, Note_on_c, 2, 72, 0
5, 35100, Note_on_c, 2, 76, 64
5, 35100, Note_on_c, 2, 69, 64
5, 35135, Note_on_c, 2, 69, 0
5, 35135, Note_on_c, 2, 76, 0
5, 35220, Note_on_c, 2, 78, 64
5, 35220, Note_on_c, 2, 69, 64
5, 35255, Note_on_c, 2, 69, 0
5, 35255, Note_on_c, 2, 78, 0
5, 35340, Note_on_c, 2, 76, 64
5, 35340, Note_on_c, 2, 71, 64
5, 35375, Note_on_c, 2, 71, 0
5, 35375, Note_on_c, 2, 76, 0
5, 35460, Note_on_c, 2, 76, 64
5, 35460, Note_on_c, 2, 71, 64
5, 35495, Note_on_c, 2, 71, 0
5, 35495, Note_on_c, 2, 76, 0
5, 35580, Note_on_c, 2, 69, 64
5, 35580, Note_on_c, 2, 66, 64
5, 35615, Note_on_c, 2, 66, 0
5, 35615, Note_on_c, 2, 69, 0
5, 35700, Note_on_c, 2, 67, 64
5, 35700, Note_on_c, 2, 64, 64
5, 35735, Note_on_c, 2, 64, 0
5, 35735, Note_on_c, 2, 67, 0
5, 36207, Control_c, 2, 7, 127
5, 36207, Control_c, 2, 7, 127
5, 36240, Note_on_c, 2, 71, 50
5, 36240, Note_on_c, 2, 66, 50
5, 36300, Note_on_c, 2, 66, 0
5, 36300, Note_on_c, 2, 71, 0
5, 36300, Note_on_c, 2, 74, 50
5, 36300, Note_on_c, 2, 78, 50
5, 36360, Note_on_c, 2, 74, 0
5, 36360, Note_on_c, 2, 78, 50
5, 36420, Note_on_c, 2, 78, 0
5, 36420, Note_on_c, 2, 83, 50
5, 36480, Note_on_c, 2, 83, 0
5, 36480, Note_on_c, 2, 85, 50
5, 36510, Note_on_c, 2, 85, 0
5, 36510, Note_on_c, 2, 86, 50
5, 36540, Note_on_c, 2, 86, 0
5, 36540, Note_on_c, 2, 78, 0
5, 36540, Note_on_c, 2, 85, 50
5, 36540, Note_on_c, 2, 77, 50
5, 36570, Note_on_c, 2, 85, 0
5, 36570, Note_on_c, 2, 83, 50
5, 36600, Note_on_c, 2, 83, 0
5, 36600, Note_on_c, 2, 81, 50
5, 36630, Note_on_c, 2, 81, 0
5, 36630, Note_on_c, 2, 80, 50
5, 36660, Note_on_c, 2, 80, 0
5, 36660, Note_on_c, 2, 77, 0
5, 36660, Note_on_c, 2, 81, 50
5, 36660, Note_on_c, 2, 78, 50
5, 36695, Note_on_c, 2, 78, 0
5, 36695, Note_on_c, 2, 81, 0
5, 36720, Note_on_c, 2, 78, 50
5, 36720, Note_on_c, 2, 73, 50
5, 36755, Note_on_c, 2, 73, 0
5, 36755, Note_on_c, 2, 78, 0
5, 37080, Note_on_c, 2, 78, 69
5, 37080, Note_on_c, 2, 73, 69
5, 37140, Note_on_c, 2, 73, 0
5, 37140, Note_on_c, 2, 75, 69
5, 37200, Note_on_c, 2, 75, 0
5, 37200, Note_on_c, 2, 78, 0
5, 37200, Note_on_c, 2, 80, 70
5, 37200, Note_on_c, 2, 76, 70
5, 37235, Note_on_c, 2, 76, 0
5, 37235, Note_on_c, 2, 80, 0
5, 37260, Note_on_c, 2, 80, 70
5, 37260, Note_on_c, 2, 76, 70
5, 37320, Note_on_c, 2, 76, 0
5, 37320, Note_on_c, 2, 80, 0
5, 37320, Note_on_c, 2, 81, 71
5, 37320, Note_on_c, 2, 78, 71
5, 37355, Note_on_c, 2, 78, 0
5, 37355, Note_on_c, 2, 81, 0
5, 37380, Note_on_c, 2, 81, 71
5, 37380, Note_on_c, 2, 78, 71
5, 37440, Note_on_c, 2, 78, 0
5, 37440, Note_on_c, 2, 81, 0
5, 37440, Note_on_c, 2, 80, 71
5, 37440, Note_on_c, 2, 76, 71
5, 37475, Note_on_c, 2, 76, 0
5, 37475, Note_on_c, 2, 80, 0
5, 37500, Note_on_c, 2, 81, 72
5, 37500, Note_on_c, 2, 78, 72
5, 37560, Note_on_c, 2, 78, 0
5, 37560, Note_on_c, 2, 81, 0
5, 37560, Note_on_c, 2, 83, 72
5, 37560, Note_on_c, 2, 75, 72
5, 37595, Note_on_c, 2, 75, 0
5, 37595, Note_on_c, 2, 83, 0
5, 37620, Note_on_c, 2, 80, 73
5, 37620, Note_on_c, 2, 76, 73
5, 37740, Note_on_c, 2, 76, 0
5, 37740, Note_on_c, 2, 80, 0
5, 38040, Note_on_c, 2, 76, 76
5, 38040, Note_on_c, 2, 71, 76
5, 38100, Note_on_c, 2, 71, 0
5, 38100, Note_on_c, 2, 73, 76
5, 38160, Note_on_c, 2, 73, 0
5, 38160, Note_on_c, 2, 76, 0
5, 38160, Note_on_c, 2, 78, 77
5, 38160, Note_on_c, 2, 74, 77
5, 38195, Note_on_c, 2, 74, 0
5, 38195, Note_on_c, 2, 78, 0
5, 38220, Note_on_c, 2, 78, 77
5, 38220, Note_on_c, 2, 74, 77
5, 38280, Note_on_c, 2, 74, 0
5, 38280, Note_on_c, 2, 78, 0
5, 38280, Note_on_c, 2, 79, 78
5, 38280, Note_on_c, 2, 76, 78
5, 38315, Note_on_c, 2, 76, 0
5, 38315, Note_on_c, 2, 79, 0
5, 38340, Note_on_c, 2, 79, 64
5, 38340, Note_on_c, 2, 76, 64
5, 38400, Note_on_c, 2, 76, 0
5, 38400, Note_on_c, 2, 79, 0
5, 38400, Note_on_c, 2, 78, 64
5, 38400, Note_on_c, 2, 74, 64
5, 38435, Note_on_c, 2, 74, 0
5, 38435, Note_on_c, 2, 78, 0
5, 38460, Note_on_c, 2, 79, 65
5, 38460, Note_on_c, 2, 76, 65
5, 38520, Note_on_c, 2, 76, 0
5, 38520, Note_on_c, 2, 79, 0
5, 38520, Note_on_c, 2, 81, 65
5, 38520, Note_on_c, 2, 73, 65
5, 38555, Note_on_c, 2, 73, 0
5, 38555, Note_on_c, 2, 81, 0
5, 38580, Note_on_c, 2, 78, 65
5, 38580, Note_on_c, 2, 74, 65
5, 38640, Note_on_c, 2, 74, 0
5, 38640, Note_on_c, 2, 78, 0
5, 38640, Note_on_c, 2, 79, 65
5, 38640, Note_on_c, 2, 76, 65
5, 38675, Note_on_c, 2, 76, 0
5, 38675, Note_on_c, 2, 79, 0
5, 38700, Note_on_c, 2, 79, 66
5, 38700, Note_on_c, 2, 76, 66
5, 38760, Note_on_c, 2, 76, 0
5, 38760, Note_on_c, 2, 79, 0
5, 38760, Note_on_c, 2, 81, 66
5, 38760, Note_on_c, 2, 78, 66
5, 38795, Note_on_c, 2, 78, 0
5, 38795, Note_on_c, 2, 81, 0
5, 38820, Note_on_c, 2, 81, 66
5, 38820, Note_on_c, 2, 78, 66
5, 38880, Note_on_c, 2, 78, 0
5, 38880, Note_on_c, 2, 81, 0
5, 38880, Note_on_c, 2, 79, 66
5, 38880, Note_on_c, 2, 76, 66
5, 38915, Note_on_c, 2, 76, 0
5, 38915, Note_on_c, 2, 79, 0
5, 38940, Note_on_c, 2, 81, 67
5, 38940, Note_on_c, 2, 78, 67
5, 39000, Note_on_c, 2, 78, 0
5, 39000, Note_on_c, 2, 81, 0
5, 39000, Note_on_c, 2, 83, 67
5, 39000, Note_on_c, 2, 74, 67
5, 39035, Note_on_c, 2, 74, 0
5, 39035, Note_on_c, 2, 83, 0
5, 39060, Note_on_c, 2, 79, 67
5, 39060, Note_on_c, 2, 74, 67
5, 39120, Note_on_c, 2, 79, 0
5, 39120, Note_on_c, 2, 78, 67
5, 39180, Note_on_c, 2, 78, 0
5, 39180, Note_on_c, 2, 74, 0
5, 39180, Note_on_c, 2, 76, 68
5, 39180, Note_on_c, 2, 71, 68
5, 39240, Note_on_c, 2, 76, 0
5, 39240, Note_on_c, 2, 78, 68
5, 39270, Note_on_c, 2, 78, 0
5, 39270, Note_on_c, 2, 79, 68
5, 39300, Note_on_c, 2, 79, 0
5, 39300, Note_on_c, 2, 71, 0
5, 39300, Note_on_c, 2, 73, 68
5, 39300, Note_on_c, 2, 69, 68
5, 39360, Note_on_c, 2, 73, 0
5, 39360, Note_on_c, 2, 74, 68
5, 39390, Note_on_c, 2, 74, 0
5, 39390, Note_on_c, 2, 76, 68
5, 39420, Note_on_c, 2, 76, 0
5, 39420, Note_on_c, 2, 74, 69
5, 39480, Note_on_c, 2, 69, 0
5, 39480, Note_on_c, 2, 71, 69
5, 39540, Note_on_c, 2, 71, 0
5, 39540, Note_on_c, 2, 69, 69
5, 39600, Note_on_c, 2, 69, 0
5, 39600, Note_on_c, 2, 74, 0
5, 39600, Note_on_c, 2, 76, 69
5, 39600, Note_on_c, 2, 62, 69
5, 39630, Note_on_c, 2, 76, 0
5, 39630, Note_on_c, 2, 78, 69
5, 39660, Note_on_c, 2, 78, 0
5, 39660, Note_on_c, 2, 62, 0
5, 39660, Note_on_c, 2, 69, 70
5, 39660, Note_on_c, 2, 64, 70
5, 39720, Note_on_c, 2, 64, 0
5, 39720, Note_on_c, 2, 69, 0
5, 39720, Note_on_c, 2, 73, 70
5, 39720, Note_on_c, 2, 69, 70
5, 39780, Note_on_c, 2, 69, 0
5, 39780, Note_on_c, 2, 73, 0
5, 39780, Note_on_c, 2, 74, 64
5, 39780, Note_on_c, 2, 66, 64
5, 39815, Note_on_c, 2, 66, 0
5, 39815, Note_on_c, 2, 74, 0
5, 39840, Note_on_c, 2, 62, 64
5, 39900, Note_on_c, 2, 62, 0
5, 39900, Note_on_c, 2, 66, 64
5, 39960, Note_on_c, 2, 66, 0
5, 39960, Note_on_c, 2, 69, 64
5, 40020, Note_on_c, 2, 69, 0
5, 40020, Note_on_c, 2, 74, 64
5, 40080, Note_on_c, 2, 74, 0
5, 40080, Note_on_c, 2, 76, 64
5, 40110, Note_on_c, 2, 76, 0
5, 40110, Note_on_c, 2, 78, 64
5, 40140, Note_on_c, 2, 78, 0
5, 40140, Note_on_c, 2, 76, 64
5, 40170, Note_on_c, 2, 76, 0
5, 40170, Note_on_c, 2, 74, 64
5, 40200, Note_on_c, 2, 74, 0
5, 40200, Note_on_c, 2, 73, 64
5, 40200, Note_on_c, 2, 64, 64
5, 40230, Note_on_c, 2, 73, 0
5, 40230, Note_on_c, 2, 71, 64
5, 40260, Note_on_c, 2, 71, 0
5, 40260, Note_on_c, 2, 64, 0
5, 40260, Note_on_c, 2, 73, 64
5, 40260, Note_on_c, 2, 64, 64
5, 40290, Note_on_c, 2, 73, 0
5, 40290, Note_on_c, 2, 76, 64
5, 40320, Note_on_c, 2, 76, 0
5, 40320, Note_on_c, 2, 64, 0
5, 40320, Note_on_c, 2, 81, 64
5, 40320, Note_on_c, 2, 66, 64
5, 40350, Note_on_c, 2, 81, 0
5, 40350, Note_on_c, 2, 79, 64
5, 40355, Note_on_c, 2, 66, 0
5, 40380, Note_on_c, 2, 79, 0
5, 40380, Note_on_c, 2, 78, 64
5, 40380, Note_on_c, 2, 66, 64
5, 40410, Note_on_c, 2, 78, 0
5, 40410, Note_on_c, 2, 76, 64
5, 40440, Note_on_c, 2, 76, 0
5, 40440, Note_on_c, 2, 66, 0
5, 40440, Note_on_c, 2, 74, 64
5, 40440, Note_on_c, 2, 67, 64
5, 40470, Note_on_c, 2, 74, 0
5, 40470, Note_on_c, 2, 73, 64
5, 40475, Note_on_c, 2, 67, 0
5, 40500, Note_on_c, 2, 73, 0
5, 40500, Note_on_c, 2, 71, 64
5, 40500, Note_on_c, 2, 67, 64
5, 40530, Note_on_c, 2, 71, 0
5, 40530, Note_on_c, 2, 74, 64
5, 40560, Note_on_c, 2, 74, 0
5, 40560, Note_on_c, 2, 67, 0
5, 40560, Note_on_c, 2, 79, 64
5, 40560, Note_on_c, 2, 66, 64
5, 40590, Note_on_c, 2, 79, 0
5, 40590, Note_on_c, 2, 78, 64
5, 40595, Note_on_c, 2, 66, 0
5, 40620, Note_on_c, 2, 78, 0
5, 40620, Note_on_c, 2, 76, 64
5, 40620, Note_on_c, 2, 67, 64
5, 40650, Note_on_c, 2, 76, 0
5, 40650, Note_on_c, 2, 74, 64
5, 40680, Note_on_c, 2, 74, 0
5, 40680, Note_on_c, 2, 67, 0
5, 40680, Note_on_c, 2, 73, 64
5, 40680, Note_on_c, 2, 69, 64
5, 40710, Note_on_c, 2, 73, 0
5, 40710, Note_on_c, 2, 71, 64
5, 40715, Note_on_c, 2, 69, 0
5, 40740, Note_on_c, 2, 71, 0
5, 40740, Note_on_c, 2, 69, 64
5, 40740, Note_on_c, 2, 66, 64
5, 40770, Note_on_c, 2, 69, 0
5, 40770, Note_on_c, 2, 73, 64
5, 40800, Note_on_c, 2, 73, 0
5, 40800, Note_on_c, 2, 66, 0
5, 40800, Note_on_c, 2, 74, 64
5, 40800, Note_on_c, 2, 64, 64
5, 40830, Note_on_c, 2, 74, 0
5, 40830, Note_on_c, 2, 76, 64
5, 40860, Note_on_c, 2, 76, 0
5, 40860, Note_on_c, 2, 64, 0
5, 40860, Note_on_c, 2, 78, 64
5, 40860, Note_on_c, 2, 62, 64
5, 40890, Note_on_c, 2, 78, 0
5, 40890, Note_on_c, 2, 79, 64
5, 40920, Note_on_c, 2, 79, 0
5, 40920, Note_on_c, 2, 62, 0
5, 40920, Note_on_c, 2, 78, 64
5, 40920, Note_on_c, 2, 61, 64
5, 40950, Note_on_c, 2, 78, 0
5, 40950, Note_on_c, 2, 76, 64
5, 40980, Note_on_c, 2, 76, 0
5, 40980, Note_on_c, 2, 61, 0
5, 40980, Note_on_c, 2, 74, 64
5, 40980, Note_on_c, 2, 59, 64
5, 41010, Note_on_c, 2, 74, 0
5, 41010, Note_on_c, 2, 73, 64
5, 41015, Note_on_c, 2, 59, 0
5, 41040, Note_on_c, 2, 73, 0
5, 41040, Note_on_c, 2, 71, 64
5, 41040, Note_on_c, 2, 69, 64
5, 41070, Note_on_c, 2, 69, 0
5, 41070, Note_on_c, 2, 71, 0
5, 41070, Note_on_c, 2, 74, 64
5, 41070, Note_on_c, 2, 68, 64
5, 41100, Note_on_c, 2, 68, 0
5, 41100, Note_on_c, 2, 74, 0
5, 41100, Note_on_c, 2, 73, 64
5, 41100, Note_on_c, 2, 69, 64
5, 41130, Note_on_c, 2, 73, 0
5, 41130, Note_on_c, 2, 71, 64
5, 41160, Note_on_c, 2, 71, 0
5, 41160, Note_on_c, 2, 69, 0
5, 41160, Note_on_c, 2, 69, 64
5, 41160, Note_on_c, 2, 62, 64
5, 41190, Note_on_c, 2, 69, 0
5, 41190, Note_on_c, 2, 68, 64
5, 41220, Note_on_c, 2, 68, 0
5, 41220, Note_on_c, 2, 62, 0
5, 41220, Note_on_c, 2, 76, 64
5, 41220, Note_on_c, 2, 68, 64
5, 41280, Note_on_c, 2, 68, 0
5, 41280, Note_on_c, 2, 76, 0
5, 41280, Note_on_c, 2, 69, 64
5, 41280, Note_on_c, 2, 69, 64
5, 41340, Note_on_c, 2, 69, 0
5, 41340, Note_on_c, 2, 64, 64
5, 41400, Note_on_c, 2, 69, 0
5, 41400, Note_on_c, 2, 68, 64
5, 41460, Note_on_c, 2, 68, 0
5, 41460, Note_on_c, 2, 64, 0
5, 41460, Note_on_c, 2, 69, 64
5, 41460, Note_on_c, 2, 64, 64
5, 41490, Note_on_c, 2, 69, 0
5, 41490, Note_on_c, 2, 71, 64
5, 41495, Note_on_c, 2, 64, 0
5, 41520, Note_on_c, 2, 71, 0
5, 41520, Note_on_c, 2, 73, 64
5, 41520, Note_on_c, 2, 69, 64
5, 41550, Note_on_c, 2, 73, 0
5, 41550, Note_on_c, 2, 74, 64
5, 41580, Note_on_c, 2, 74, 0
5, 41580, Note_on_c, 2, 69, 0
5, 41580, Note_on_c, 2, 76, 64
5, 41580, Note_on_c, 2, 67, 64
5, 41610, Note_on_c, 2, 67, 0
5, 41610, Note_on_c, 2, 76, 0
5, 41610, Note_on_c, 2, 78, 64
5, 41610, Note_on_c, 2, 66, 64
5, 41640, Note_on_c, 2, 66, 0
5, 41640, Note_on_c, 2, 78, 0
5, 41640, Note_on_c, 2, 79, 64
5, 41640, Note_on_c, 2, 64, 64
5, 41670, Note_on_c, 2, 64, 0
5, 41670, Note_on_c, 2, 79, 0
5, 41670, Note_on_c, 2, 81, 64
5, 41670, Note_on_c, 2, 66, 64
5, 41700, Note_on_c, 2, 66, 0
5, 41700, Note_on_c, 2, 81, 0
5, 41700, Note_on_c, 2, 71, 64
5, 41700, Note_on_c, 2, 67, 64
5, 41760, Note_on_c, 2, 67, 0
5, 41760, Note_on_c, 2, 71, 0
5, 41760, Note_on_c, 2, 73, 64
5, 41760, Note_on_c, 2, 69, 64
5, 41790, Note_on_c, 2, 69, 0
5, 41790, Note_on_c, 2, 73, 0
5, 41790, Note_on_c, 2, 74, 64
5, 41790, Note_on_c, 2, 71, 64
5, 41820, Note_on_c, 2, 71, 0
5, 41820, Note_on_c, 2, 74, 0
5, 41820, Note_on_c, 2, 76, 64
5, 41820, Note_on_c, 2, 69, 64
5, 41850, Note_on_c, 2, 69, 0
5, 41850, Note_on_c, 2, 67, 64
5, 41880, Note_on_c, 2, 67, 0
5, 41880, Note_on_c, 2, 66, 64
5, 41910, Note_on_c, 2, 66, 0
5, 41910, Note_on_c, 2, 64, 64
5, 41940, Note_on_c, 2, 64, 0
5, 41940, Note_on_c, 2, 66, 64
5, 41970, Note_on_c, 2, 66, 0
5, 41970, Note_on_c, 2, 69, 64
5, 42000, Note_on_c, 2, 69, 0
5, 42000, Note_on_c, 2, 76, 0
5, 42000, Note_on_c, 2, 74, 64
5, 42000, Note_on_c, 2, 74, 64
5, 42030, Note_on_c, 2, 74, 0
5, 42030, Note_on_c, 2, 72, 64
5, 42035, Note_on_c, 2, 74, 0
5, 42060, Note_on_c, 2, 72, 0
5, 42060, Note_on_c, 2, 74, 64
5, 42060, Note_on_c, 2, 71, 64
5, 42090, Note_on_c, 2, 71, 0
5, 42090, Note_on_c, 2, 69, 64
5, 42120, Note_on_c, 2, 69, 0
5, 42120, Note_on_c, 2, 74, 0
5, 42120, Note_on_c, 2, 76, 64
5, 42120, Note_on_c, 2, 67, 64
5, 42150, Note_on_c, 2, 67, 0
5, 42150, Note_on_c, 2, 66, 64
5, 42180, Note_on_c, 2, 66, 0
5, 42180, Note_on_c, 2, 64, 64
5, 42210, Note_on_c, 2, 64, 0
5, 42210, Note_on_c, 2, 76, 0
5, 42210, Note_on_c, 2, 78, 64
5, 42210, Note_on_c, 2, 67, 64
5, 42240, Note_on_c, 2, 67, 0
5, 42240, Note_on_c, 2, 78, 0
5, 42240, Note_on_c, 2, 76, 64
5, 42240, Note_on_c, 2, 72, 64
5, 42270, Note_on_c, 2, 72, 0
5, 42270, Note_on_c, 2, 76, 0
5, 42270, Note_on_c, 2, 78, 64
5, 42270, Note_on_c, 2, 71, 64
5, 42300, Note_on_c, 2, 71, 0
5, 42300, Note_on_c, 2, 78, 0
5, 42300, Note_on_c, 2, 79, 64
5, 42300, Note_on_c, 2, 69, 64
5, 42315, Note_on_c, 2, 79, 0
5, 42315, Note_on_c, 2, 78, 64
5, 42330, Note_on_c, 2, 78, 0
5, 42330, Note_on_c, 2, 69, 0
5, 42330, Note_on_c, 2, 79, 64
5, 42330, Note_on_c, 2, 67, 64
5, 42345, Note_on_c, 2, 79, 0
5, 42345, Note_on_c, 2, 78, 64
5, 42360, Note_on_c, 2, 78, 0
5, 42360, Note_on_c, 2, 67, 0
5, 42360, Note_on_c, 2, 79, 64
5, 42360, Note_on_c, 2, 66, 64
5, 42375, Note_on_c, 2, 79, 0
5, 42375, Note_on_c, 2, 78, 64
5, 42390, Note_on_c, 2, 78, 0
5, 42390, Note_on_c, 2, 66, 0
5, 42390, Note_on_c, 2, 76, 64
5, 42390, Note_on_c, 2, 64, 64
5, 42405, Note_on_c, 2, 76, 0
5, 42405, Note_on_c, 2, 78, 64
5, 42420, Note_on_c, 2, 78, 0
5, 42420, Note_on_c, 2, 64, 0
5, 42420, Note_on_c, 2, 79, 64
5, 42420, Note_on_c, 2, 62, 64
5, 42450, Note_on_c, 2, 62, 0
5, 42450, Note_on_c, 2, 66, 64
5, 42480, Note_on_c, 2, 66, 0
5, 42480, Note_on_c, 2, 67, 64
5, 42510, Note_on_c, 2, 67, 0
5, 42510, Note_on_c, 2, 69, 64
5, 42540, Note_on_c, 2, 69, 0
5, 42540, Note_on_c, 2, 79, 0
5, 42540, Note_on_c, 2, 71, 64
5, 42570, Note_on_c, 2, 71, 0
5, 42570, Note_on_c, 2, 72, 64
5, 42600, Note_on_c, 2, 72, 0
5, 42600, Note_on_c, 2, 62, 64
5, 42600, Note_on_c, 2, 71, 64
5, 42630, Note_on_c, 2, 71, 0
5, 42630, Note_on_c, 2, 69, 64
5, 42660, Note_on_c, 2, 69, 0
5, 42660, Note_on_c, 2, 62, 0
5, 42660, Note_on_c, 2, 71, 64
5, 42660, Note_on_c, 2, 67, 64
5, 42690, Note_on_c, 2, 67, 0
5, 42690, Note_on_c, 2, 66, 64
5, 42720, Note_on_c, 2, 66, 0
5, 42720, Note_on_c, 2, 71, 0
5, 42720, Note_on_c, 2, 69, 64
5, 42720, Note_on_c, 2, 64, 64
5, 42750, Note_on_c, 2, 64, 0
5, 42750, Note_on_c, 2, 67, 64
5, 42755, Note_on_c, 2, 69, 0
5, 42780, Note_on_c, 2, 67, 0
5, 42780, Note_on_c, 2, 69, 64
5, 42780, Note_on_c, 2, 66, 64
5, 42810, Note_on_c, 2, 66, 0
5, 42810, Note_on_c, 2, 64, 64
5, 42840, Note_on_c, 2, 64, 0
5, 42840, Note_on_c, 2, 69, 0
5, 42840, Note_on_c, 2, 74, 64
5, 42840, Note_on_c, 2, 62, 64
5, 42870, Note_on_c, 2, 62, 0
5, 42870, Note_on_c, 2, 64, 64
5, 42900, Note_on_c, 2, 64, 0
5, 42900, Note_on_c, 2, 66, 64
5, 42930, Note_on_c, 2, 66, 0
5, 42930, Note_on_c, 2, 67, 64
5, 42960, Note_on_c, 2, 67, 0
5, 42960, Note_on_c, 2, 74, 0
5, 42960, Note_on_c, 2, 73, 64
5, 42960, Note_on_c, 2, 69, 64
5, 42990, Note_on_c, 2, 73, 0
5, 42990, Note_on_c, 2, 71, 64
5, 43020, Note_on_c, 2, 71, 0
5, 43020, Note_on_c, 2, 69, 64
5, 43080, Note_on_c, 2, 69, 0
5, 43080, Note_on_c, 2, 69, 0
5, 43080, Note_on_c, 2, 67, 64
5, 43080, Note_on_c, 2, 64, 64
5, 43140, Note_on_c, 2, 64, 0
5, 43140, Note_on_c, 2, 67, 0
5, 43140, Note_on_c, 2, 66, 64
5, 43140, Note_on_c, 2, 66, 64
5, 43170, Note_on_c, 2, 66, 0
5, 43170, Note_on_c, 2, 67, 64
5, 43175, Note_on_c, 2, 66, 0
5, 43200, Note_on_c, 2, 67, 0
5, 43200, Note_on_c, 2, 66, 64
5, 43200, Note_on_c, 2, 69, 64
5, 43230, Note_on_c, 2, 66, 0
5, 43230, Note_on_c, 2, 67, 64
5, 43260, Note_on_c, 2, 67, 0
5, 43260, Note_on_c, 2, 69, 0
5, 43260, Note_on_c, 2, 69, 64
5, 43260, Note_on_c, 2, 74, 64
5, 43320, Note_on_c, 2, 74, 0
5, 43320, Note_on_c, 2, 62, 64
5, 43380, Note_on_c, 2, 62, 0
5, 43380, Note_on_c, 2, 64, 64
5, 43440, Note_on_c, 2, 64, 0
5, 43440, Note_on_c, 2, 69, 0
5, 43440, Note_on_c, 2, 72, 64
5, 43440, Note_on_c, 2, 66, 64
5, 43470, Note_on_c, 2, 66, 0
5, 43470, Note_on_c, 2, 72, 0
5, 43470, Note_on_c, 2, 71, 64
5, 43470, Note_on_c, 2, 67, 64
5, 43500, Note_on_c, 2, 67, 0
5, 43500, Note_on_c, 2, 71, 0
5, 43500, Note_on_c, 2, 72, 64
5, 43500, Note_on_c, 2, 69, 64
5, 43560, Note_on_c, 2, 72, 0
5, 43560, Note_on_c, 2, 74, 64
5, 43620, Note_on_c, 2, 74, 0
5, 43620, Note_on_c, 2, 71, 64
5, 43680, Note_on_c, 2, 71, 0
5, 43680, Note_on_c, 2, 69, 0
5, 43680, Note_on_c, 2, 67, 50
5, 43680, Note_on_c, 2, 67, 50
5, 43715, Note_on_c, 2, 67, 0
5, 43715, Note_on_c, 2, 67, 0
5, 43740, Note_on_c, 2, 67, 64
5, 43800, Note_on_c, 2, 67, 0
5, 43800, Note_on_c, 2, 72, 64
5, 43800, Note_on_c, 2, 69, 64
5, 43860, Note_on_c, 2, 69, 0
5, 43860, Note_on_c, 2, 72, 0
5, 43860, Note_on_c, 2, 77, 64
5, 43860, Note_on_c, 2, 69, 64
5, 43890, Note_on_c, 2, 69, 0
5, 43890, Note_on_c, 2, 71, 64
5, 43920, Note_on_c, 2, 71, 0
5, 43920, Note_on_c, 2, 69, 64
5, 43950, Note_on_c, 2, 69, 0
5, 43950, Note_on_c, 2, 71, 64
5, 43980, Note_on_c, 2, 71, 0
5, 43980, Note_on_c, 2, 77, 0
5, 43980, Note_on_c, 2, 72, 64
5, 43995, Note_on_c, 2, 72, 0
5, 43995, Note_on_c, 2, 71, 64
5, 44010, Note_on_c, 2, 71, 0
5, 44010, Note_on_c, 2, 72, 64
5, 44025, Note_on_c, 2, 72, 0
5, 44025, Note_on_c, 2, 71, 64
5, 44040, Note_on_c, 2, 71, 0
5, 44040, Note_on_c, 2, 74, 64
5, 44040, Note_on_c, 2, 72, 64
5, 44055, Note_on_c, 2, 72, 0
5, 44055, Note_on_c, 2, 71, 64
5, 44070, Note_on_c, 2, 71, 0
5, 44070, Note_on_c, 2, 72, 64
5, 44100, Note_on_c, 2, 72, 0
5, 44100, Note_on_c, 2, 74, 0
5, 44100, Note_on_c, 2, 76, 64
5, 44100, Note_on_c, 2, 72, 64
5, 44220, Note_on_c, 2, 72, 0
5, 44220, Note_on_c, 2, 76, 0
5, 44280, Note_on_c, 2, 67, 64
5, 44280, Note_on_c, 2, 67, 64
5, 44340, Note_on_c, 2, 67, 0
5, 44340, Note_on_c, 2, 67, 0
5, 44340, Note_on_c, 2, 69, 64
5, 44340, Note_on_c, 2, 64, 64
5, 44370, Note_on_c, 2, 69, 0
5, 44370, Note_on_c, 2, 71, 64
5, 44400, Note_on_c, 2, 71, 0
5, 44400, Note_on_c, 2, 64, 0
5, 44400, Note_on_c, 2, 72, 64
5, 44400, Note_on_c, 2, 62, 64
5, 44430, Note_on_c, 2, 72, 0
5, 44430, Note_on_c, 2, 69, 64
5, 44460, Note_on_c, 2, 69, 0
5, 44460, Note_on_c, 2, 71, 64
5, 44520, Note_on_c, 2, 71, 0
5, 44520, Note_on_c, 2, 62, 0
5, 44520, Note_on_c, 2, 72, 64
5, 44520, Note_on_c, 2, 67, 64
5, 44580, Note_on_c, 2, 67, 0
5, 44580, Note_on_c, 2, 72, 0
5, 44580, Note_on_c, 2, 74, 64
5, 44580, Note_on_c, 2, 67, 64
5, 44615, Note_on_c, 2, 67, 0
5, 44640, Note_on_c, 2, 66, 65
5, 44670, Note_on_c, 2, 66, 0
5, 44670, Note_on_c, 2, 64, 65
5, 44700, Note_on_c, 2, 64, 0
5, 44700, Note_on_c, 2, 62, 65
5, 44760, Note_on_c, 2, 62, 0
5, 44760, Note_on_c, 2, 60, 66
5, 44820, Note_on_c, 2, 60, 0
5, 44820, Note_on_c, 2, 59, 66
5, 44855, Note_on_c, 2, 59, 0
5, 44855, Note_on_c, 2, 74, 0
5, 44880, Note_on_c, 2, 62, 67
5, 44880, Note_on_c, 2, 74, 67
5, 44910, Note_on_c, 2, 74, 0
5, 44910, Note_on_c, 2, 73, 67
5, 44940, Note_on_c, 2, 73, 0
5, 44940, Note_on_c, 2, 62, 0
5, 44940, Note_on_c, 2, 74, 67
5, 44940, Note_on_c, 2, 71, 67
5, 44970, Note_on_c, 2, 71, 0
5, 44970, Note_on_c, 2, 69, 67
5, 45000, Note_on_c, 2, 69, 0
5, 45000, Note_on_c, 2, 67, 68
5, 45030, Note_on_c, 2, 67, 0
5, 45030, Note_on_c, 2, 66, 68
5, 45060, Note_on_c, 2, 66, 0
5, 45060, Note_on_c, 2, 64, 68
5, 45120, Note_on_c, 2, 64, 0
5, 45120, Note_on_c, 2, 74, 0
5, 45120, Note_on_c, 2, 73, 69
5, 45120, Note_on_c, 2, 66, 69
5, 45150, Note_on_c, 2, 66, 0
5, 45150, Note_on_c, 2, 73, 0
5, 45150, Note_on_c, 2, 71, 69
5, 45150, Note_on_c, 2, 67, 69
5, 45180, Note_on_c, 2, 67, 0
5, 45180, Note_on_c, 2, 71, 0
5, 45180, Note_on_c, 2, 73, 69
5, 45180, Note_on_c, 2, 69, 69
5, 45240, Note_on_c, 2, 69, 0
5, 45240, Note_on_c, 2, 67, 70
5, 45300, Note_on_c, 2, 67, 0
5, 45300, Note_on_c, 2, 73, 0
5, 45300, Note_on_c, 2, 74, 70
5, 45300, Note_on_c, 2, 66, 70
5, 45420, Note_on_c, 2, 66, 0
5, 45480, Note_on_c, 2, 62, 72
5, 45540, Note_on_c, 2, 62, 0
5, 45540, Note_on_c, 2, 69, 72
5, 45660, Note_on_c, 2, 69, 0
5, 45720, Note_on_c, 2, 66, 74
5, 45780, Note_on_c, 2, 66, 0
5, 45780, Note_on_c, 2, 67, 74
5, 45840, Note_on_c, 2, 74, 0
5, 45840, Note_on_c, 2, 71, 75
5, 45900, Note_on_c, 2, 71, 0
5, 45900, Note_on_c, 2, 67, 0
5, 45900, Note_on_c, 2, 76, 75
5, 45960, Note_on_c, 2, 71, 76
5, 46020, Note_on_c, 2, 71, 0
5, 46020, Note_on_c, 2, 73, 76
5, 46080, Note_on_c, 2, 73, 0
5, 46080, Note_on_c, 2, 76, 0
5, 46080, Note_on_c, 2, 81, 77
5, 46080, Note_on_c, 2, 76, 77
5, 46110, Note_on_c, 2, 81, 0
5, 46110, Note_on_c, 2, 79, 77
5, 46140, Note_on_c, 2, 79, 0
5, 46140, Note_on_c, 2, 76, 0
5, 46140, Note_on_c, 2, 81, 77
5, 46140, Note_on_c, 2, 74, 77
5, 46200, Note_on_c, 2, 74, 0
5, 46200, Note_on_c, 2, 81, 0
5, 46200, Note_on_c, 2, 74, 78
5, 46200, Note_on_c, 2, 71, 78
5, 46260, Note_on_c, 2, 71, 0
5, 46260, Note_on_c, 2, 69, 78
5, 46320, Note_on_c, 2, 74, 0
5, 46320, Note_on_c, 2, 76, 79
5, 46350, Note_on_c, 2, 76, 0
5, 46350, Note_on_c, 2, 78, 79
5, 46380, Note_on_c, 2, 78, 0
5, 46380, Note_on_c, 2, 79, 79
5, 46440, Note_on_c, 2, 79, 0
5, 46440, Note_on_c, 2, 78, 80
5, 46470, Note_on_c, 2, 78, 0
5, 46470, Note_on_c, 2, 76, 80
5, 46500, Note_on_c, 2, 76, 0
5, 46500, Note_on_c, 2, 78, 64
5, 46535, Note_on_c, 2, 78, 0
5, 46535, Note_on_c, 2, 69, 0
5, 46560, Note_on_c, 2, 74, 64
5, 46560, Note_on_c, 2, 66, 64
5, 46595, Note_on_c, 2, 66, 0
5, 46595, Note_on_c, 2, 74, 0
5, 47040, Note_on_c, 2, 69, 40
5, 47040, Note_on_c, 2, 64, 40
5, 47100, Note_on_c, 2, 64, 0
5, 47100, Note_on_c, 2, 69, 0
5, 47100, Note_on_c, 2, 73, 40
5, 47100, Note_on_c, 2, 76, 40
5, 47160, Note_on_c, 2, 73, 0
5, 47160, Note_on_c, 2, 76, 40
5, 47220, Note_on_c, 2, 76, 0
5, 47220, Note_on_c, 2, 81, 40
5, 47280, Note_on_c, 2, 81, 0
5, 47280, Note_on_c, 2, 76, 0
5, 47280, Note_on_c, 2, 83, 40
5, 47280, Note_on_c, 2, 75, 40
5, 47310, Note_on_c, 2, 75, 0
5, 47310, Note_on_c, 2, 83, 0
5, 47310, Note_on_c, 2, 84, 40
5, 47310, Note_on_c, 2, 76, 40
5, 47340, Note_on_c, 2, 76, 0
5, 47340, Note_on_c, 2, 84, 0
5, 47340, Note_on_c, 2, 83, 40
5, 47340, Note_on_c, 2, 78, 40
5, 47370, Note_on_c, 2, 83, 0
5, 47370, Note_on_c, 2, 81, 40
5, 47400, Note_on_c, 2, 81, 0
5, 47400, Note_on_c, 2, 78, 0
5, 47400, Note_on_c, 2, 79, 40
5, 47400, Note_on_c, 2, 76, 40
5, 47430, Note_on_c, 2, 76, 0
5, 47430, Note_on_c, 2, 79, 0
5, 47430, Note_on_c, 2, 78, 40
5, 47430, Note_on_c, 2, 75, 40
5, 47460, Note_on_c, 2, 75, 0
5, 47460, Note_on_c, 2, 78, 0
5, 47460, Note_on_c, 2, 79, 40
5, 47460, Note_on_c, 2, 76, 40
5, 47495, Note_on_c, 2, 76, 0
5, 47495, Note_on_c, 2, 79, 0
5, 47520, Note_on_c, 2, 76, 40
5, 47520, Note_on_c, 2, 71, 40
5, 47555, Note_on_c, 2, 71, 0
5, 47555, Note_on_c, 2, 76, 0
5, 47880, Note_on_c, 2, 66, 64
5, 48000, Note_on_c, 2, 66, 0
5, 48000, Note_on_c, 2, 68, 32
5, 48035, Note_on_c, 2, 68, 0
5, 48060, Note_on_c, 2, 68, 34
5, 48120, Note_on_c, 2, 68, 0
5, 48120, Note_on_c, 2, 69, 36
5, 48155, Note_on_c, 2, 69, 0
5, 48180, Note_on_c, 2, 69, 38
5, 48240, Note_on_c, 2, 69, 0
5, 48240, Note_on_c, 2, 68, 40
5, 48275, Note_on_c, 2, 68, 0
5, 48300, Note_on_c, 2, 69, 43
5, 48360, Note_on_c, 2, 69, 0
5, 48360, Note_on_c, 2, 71, 45
5, 48360, Note_on_c, 2, 71, 45
5, 48395, Note_on_c, 2, 71, 0
5, 48420, Note_on_c, 2, 68, 47
5, 48480, Note_on_c, 2, 68, 0
5, 48480, Note_on_c, 2, 71, 0
5, 48480, Note_on_c, 2, 73, 49
5, 48480, Note_on_c, 2, 69, 49
5, 48515, Note_on_c, 2, 69, 0
5, 48515, Note_on_c, 2, 73, 0
5, 48540, Note_on_c, 2, 73, 51
5, 48540, Note_on_c, 2, 69, 51
5, 48600, Note_on_c, 2, 69, 0
5, 48600, Note_on_c, 2, 73, 0
5, 48600, Note_on_c, 2, 74, 53
5, 48600, Note_on_c, 2, 71, 53
5, 48635, Note_on_c, 2, 71, 0
5, 48635, Note_on_c, 2, 74, 0
5, 48660, Note_on_c, 2, 74, 55
5, 48660, Note_on_c, 2, 71, 55
5, 48720, Note_on_c, 2, 71, 0
5, 48720, Note_on_c, 2, 74, 0
5, 48720, Note_on_c, 2, 73, 57
5, 48720, Note_on_c, 2, 69, 57
5, 48755, Note_on_c, 2, 69, 0
5, 48755, Note_on_c, 2, 73, 0
5, 48780, Note_on_c, 2, 74, 59
5, 48780, Note_on_c, 2, 71, 59
5, 48840, Note_on_c, 2, 71, 0
5, 48840, Note_on_c, 2, 74, 0
5, 48840, Note_on_c, 2, 76, 61
5, 48840, Note_on_c, 2, 68, 61
5, 48875, Note_on_c, 2, 68, 0
5, 48875, Note_on_c, 2, 76, 0
5, 48900, Note_on_c, 2, 73, 63
5, 48900, Note_on_c, 2, 69, 63
5, 48935, Note_on_c, 2, 69, 0
5, 48935, Note_on_c, 2, 73, 0
5, 49020, Note_on_c, 2, 81, 68
5, 49020, Note_on_c, 2, 78, 68
5, 49055, Note_on_c, 2, 78, 0
5, 49055, Note_on_c, 2, 81, 0
5, 49140, Note_on_c, 2, 79, 72
5, 49140, Note_on_c, 2, 76, 72
5, 49175, Note_on_c, 2, 76, 0
5, 49175, Note_on_c, 2, 79, 0
5, 49260, Note_on_c, 2, 76, 76
5, 49260, Note_on_c, 2, 73, 76
5, 49295, Note_on_c, 2, 73, 0
5, 49295, Note_on_c, 2, 76, 0
5, 49380, Control_c, 2, 7, 70
5, 49380, Note_on_c, 2, 78, 80
5, 49380, Note_on_c, 2, 74, 80
5, 49413, Control_c, 2, 7, 71
5, 49415, Note_on_c, 2, 74, 0
5, 49415, Note_on_c, 2, 78, 0
5, 49447, Control_c, 2, 7, 72
5, 49481, Control_c, 2, 7, 73
5, 49514, Control_c, 2, 7, 74
5, 49548, Control_c, 2, 7, 75
5, 49582, Control_c, 2, 7, 76
5, 49615, Control_c, 2, 7, 77
5, 49620, Note_on_c, 2, 74, 81
5, 49620, Note_on_c, 2, 74, 81
5, 49649, Control_c, 2, 7, 78
5, 49683, Control_c, 2, 7, 79
5, 49716, Control_c, 2, 7, 80
5, 49750, Control_c, 2, 7, 81
5, 49784, Control_c, 2, 7, 82
5, 49817, Control_c, 2, 7, 83
5, 49851, Control_c, 2, 7, 84
5, 49885, Control_c, 2, 7, 85
5, 49918, Control_c, 2, 7, 86
5, 49952, Control_c, 2, 7, 87
5, 49980, Note_on_c, 2, 74, 0
5, 49980, Note_on_c, 2, 74, 0
5, 49986, Control_c, 2, 7, 88
5, 50019, Control_c, 2, 7, 89
5, 50040, Note_on_c, 2, 71, 83
5, 50040, Note_on_c, 2, 71, 83
5, 50053, Control_c, 2, 7, 90
5, 50075, Note_on_c, 2, 71, 0
5, 50075, Note_on_c, 2, 71, 0
5, 50087, Control_c, 2, 7, 91
5, 50100, Note_on_c, 2, 76, 84
5, 50100, Note_on_c, 2, 76, 84
5, 50121, Control_c, 2, 7, 92
5, 50154, Control_c, 2, 7, 93
5, 50188, Control_c, 2, 7, 94
5, 50222, Control_c, 2, 7, 95
5, 50255, Control_c, 2, 7, 96
5, 50289, Control_c, 2, 7, 97
5, 50323, Control_c, 2, 7, 98
5, 50356, Control_c, 2, 7, 99
5, 50390, Control_c, 2, 7, 100
5, 50424, Control_c, 2, 7, 101
5, 50457, Control_c, 2, 7, 102
5, 50491, Control_c, 2, 7, 103
5, 50525, Control_c, 2, 7, 104
5, 50558, Control_c, 2, 7, 105
5, 50592, Control_c, 2, 7, 106
5, 50626, Control_c, 2, 7, 107
5, 50660, Control_c, 2, 7, 108
5, 50693, Control_c, 2, 7, 109
5, 50700, Note_on_c, 2, 76, 0
5, 50700, Note_on_c, 2, 76, 0
5, 50727, Control_c, 2, 7, 110
5, 50760, Note_on_c, 2, 73, 87
5, 50760, Note_on_c, 2, 73, 87
5, 50761, Control_c, 2, 7, 111
5, 50794, Control_c, 2, 7, 112
5, 50795, Note_on_c, 2, 73, 0
5, 50795, Note_on_c, 2, 73, 0
5, 50820, Note_on_c, 2, 78, 88
5, 50820, Note_on_c, 2, 78, 88
5, 50828, Control_c, 2, 7, 113
5, 50862, Control_c, 2, 7, 114
5, 50895, Control_c, 2, 7, 115
5, 50929, Control_c, 2, 7, 116
5, 50963, Control_c, 2, 7, 117
5, 50996, Control_c, 2, 7, 118
5, 51030, Control_c, 2, 7, 119
5, 51064, Control_c, 2, 7, 120
5, 51097, Control_c, 2, 7, 121
5, 51131, Control_c, 2, 7, 122
5, 51165, Control_c, 2, 7, 123
5, 51198, Control_c, 2, 7, 124
5, 51232, Control_c, 2, 7, 125
5, 51266, Control_c, 2, 7, 126
5, 51360, Note_on_c, 2, 78, 0
5, 51360, Note_on_c, 2, 66, 81
5, 51420, Note_on_c, 2, 66, 0
5, 51420, Note_on_c, 2, 78, 0
5, 51420, Note_on_c, 2, 74, 81
5, 51480, Note_on_c, 2, 64, 82
5, 51600, Note_on_c, 2, 64, 0
5, 51600, Note_on_c, 2, 66, 84
5, 51635, Note_on_c, 2, 66, 0
5, 51660, Note_on_c, 2, 66, 84
5, 51720, Note_on_c, 2, 66, 0
5, 51720, Note_on_c, 2, 67, 85
5, 51755, Note_on_c, 2, 67, 0
5, 51780, Note_on_c, 2, 67, 86
5, 51840, Note_on_c, 2, 67, 0
5, 51840, Note_on_c, 2, 66, 86
5, 51875, Note_on_c, 2, 66, 0
5, 51900, Note_on_c, 2, 74, 0
5, 51900, Note_on_c, 2, 73, 87
5, 51900, Note_on_c, 2, 67, 87
5, 51960, Note_on_c, 2, 67, 0
5, 51960, Note_on_c, 2, 69, 88
5, 51995, Note_on_c, 2, 69, 0
5, 52020, Note_on_c, 2, 66, 89
5, 52080, Note_on_c, 2, 66, 0
5, 52080, Note_on_c, 2, 64, 89
5, 52115, Note_on_c, 2, 64, 0
5, 52140, Note_on_c, 2, 73, 0
5, 52140, Note_on_c, 2, 71, 90
5, 52140, Note_on_c, 2, 62, 90
5, 52200, Note_on_c, 2, 62, 0
5, 52200, Note_on_c, 2, 71, 0
5, 52200, Note_on_c, 2, 69, 91
5, 52200, Note_on_c, 2, 61, 91
5, 52235, Note_on_c, 2, 61, 0
5, 52260, Note_on_c, 2, 69, 0
5, 52260, Note_on_c, 2, 68, 91
5, 52260, Note_on_c, 2, 59, 91
5, 52320, Note_on_c, 2, 59, 0
5, 52320, Note_on_c, 2, 68, 0
5, 52320, Note_on_c, 2, 69, 92
5, 52320, Note_on_c, 2, 69, 92
5, 52350, Note_on_c, 2, 69, 0
5, 52350, Note_on_c, 2, 69, 0
5, 52350, Note_on_c, 2, 71, 93
5, 52350, Note_on_c, 2, 68, 93
5, 52380, Note_on_c, 2, 68, 0
5, 52380, Note_on_c, 2, 71, 0
5, 52380, Note_on_c, 2, 64, 93
5, 52380, Note_on_c, 2, 69, 93
5, 52440, Note_on_c, 2, 69, 0
5, 52440, Note_on_c, 2, 64, 0
5, 52440, Note_on_c, 2, 69, 94
5, 52440, Note_on_c, 2, 62, 94
5, 52500, Note_on_c, 2, 62, 0
5, 52500, Note_on_c, 2, 64, 94
5, 52560, Note_on_c, 2, 69, 0
5, 52560, Note_on_c, 2, 68, 95
5, 52590, Note_on_c, 2, 68, 0
5, 52590, Note_on_c, 2, 66, 95
5, 52620, Note_on_c, 2, 66, 0
5, 52620, Note_on_c, 2, 68, 96
5, 52740, Note_on_c, 2, 68, 0
5, 52740, Note_on_c, 2, 69, 97
5, 52775, Note_on_c, 2, 69, 0
5, 52800, Note_on_c, 2, 64, 0
5, 52800, Note_on_c, 2, 76, 98
5, 52800, Note_on_c, 2, 69, 98
5, 52860, Note_on_c, 2, 69, 0
5, 52860, Note_on_c, 2, 76, 0
5, 52860, Note_on_c, 2, 81, 99
5, 52860, Note_on_c, 2, 67, 99
5, 52890, Note_on_c, 2, 67, 0
5, 52890, Note_on_c, 2, 66, 99
5, 52920, Note_on_c, 2, 66, 0
5, 52920, Note_on_c, 2, 81, 0
5, 52920, Note_on_c, 2, 69, 99
5, 52920, Note_on_c, 2, 64, 99
5, 52950, Note_on_c, 2, 64, 0
5, 52950, Note_on_c, 2, 66, 100
5, 52980, Note_on_c, 2, 66, 0
5, 52980, Note_on_c, 2, 69, 0
5, 52980, Note_on_c, 2, 71, 100
5, 52980, Note_on_c, 2, 67, 100
5, 53040, Note_on_c, 2, 67, 0
5, 53040, Note_on_c, 2, 71, 0
5, 53040, Note_on_c, 2, 73, 101
5, 53040, Note_on_c, 2, 69, 101
5, 53070, Note_on_c, 2, 69, 0
5, 53070, Note_on_c, 2, 73, 0
5, 53070, Note_on_c, 2, 74, 101
5, 53070, Note_on_c, 2, 71, 101
5, 53100, Note_on_c, 2, 71, 0
5, 53100, Note_on_c, 2, 74, 0
5, 53100, Note_on_c, 2, 76, 101
5, 53100, Note_on_c, 2, 69, 101
5, 53160, Note_on_c, 2, 69, 0
5, 53160, Note_on_c, 2, 76, 0
5, 53160, Note_on_c, 2, 81, 102
5, 53160, Note_on_c, 2, 76, 102
5, 53280, Note_on_c, 2, 76, 0
5, 53280, Note_on_c, 2, 81, 0
5, 53280, Note_on_c, 2, 83, 104
5, 53280, Note_on_c, 2, 74, 104
5, 53315, Note_on_c, 2, 83, 0
5, 53340, Note_on_c, 2, 83, 104
5, 53400, Note_on_c, 2, 83, 0
5, 53400, Note_on_c, 2, 74, 0
5, 53400, Note_on_c, 2, 84, 105
5, 53400, Note_on_c, 2, 76, 105
5, 53435, Note_on_c, 2, 84, 0
5, 53460, Note_on_c, 2, 84, 106
5, 53520, Note_on_c, 2, 84, 0
5, 53520, Note_on_c, 2, 83, 106
5, 53550, Note_on_c, 2, 76, 0
5, 53550, Note_on_c, 2, 78, 107
5, 53555, Note_on_c, 2, 83, 0
5, 53580, Note_on_c, 2, 78, 0
5, 53580, Note_on_c, 2, 84, 107
5, 53580, Note_on_c, 2, 79, 107
5, 53595, Note_on_c, 2, 79, 0
5, 53595, Note_on_c, 2, 78, 107
5, 53610, Note_on_c, 2, 78, 0
5, 53610, Note_on_c, 2, 79, 108
5, 53625, Note_on_c, 2, 79, 0
5, 53625, Note_on_c, 2, 78, 108
5, 53640, Note_on_c, 2, 78, 0
5, 53640, Note_on_c, 2, 84, 0
5, 53640, Note_on_c, 2, 86, 108
5, 53640, Note_on_c, 2, 79, 108
5, 53655, Note_on_c, 2, 79, 0
5, 53655, Note_on_c, 2, 78, 108
5, 53670, Note_on_c, 2, 78, 0
5, 53670, Note_on_c, 2, 76, 108
5, 53675, Note_on_c, 2, 86, 0
5, 53685, Note_on_c, 2, 76, 0
5, 53685, Note_on_c, 2, 78, 108
5, 53700, Note_on_c, 2, 78, 0
5, 53700, Note_on_c, 2, 83, 109
5, 53700, Note_on_c, 2, 79, 109
5, 53760, Note_on_c, 2, 79, 0
5, 53760, Note_on_c, 2, 83, 0
5, 53760, Note_on_c, 2, 81, 109
5, 53760, Note_on_c, 2, 78, 109
5, 53820, Note_on_c, 2, 78, 0
5, 53820, Note_on_c, 2, 81, 0
5, 53820, Note_on_c, 2, 79, 110
5, 53820, Note_on_c, 2, 76, 110
5, 53880, Note_on_c, 2, 76, 0
5, 53880, Note_on_c, 2, 79, 0
5, 53880, Note_on_c, 2, 78, 111
5, 53880, Note_on_c, 2, 74, 111
5, 53940, Note_on_c, 2, 74, 0
5, 53940, Note_on_c, 2, 78, 0
5, 53940, Note_on_c, 2, 76, 111
5, 53940, Note_on_c, 2, 73, 111
5, 53975, Note_on_c, 2, 76, 0
5, 54000, Note_on_c, 2, 73, 0
5, 54000, Note_on_c, 2, 86, 112
5, 54000, Note_on_c, 2, 71, 112
5, 54030, Note_on_c, 2, 71, 0
5, 54030, Note_on_c, 2, 86, 0
5, 54030, Note_on_c, 2, 85, 113
5, 54030, Note_on_c, 2, 69, 113
5, 54060, Note_on_c, 2, 69, 0
5, 54060, Note_on_c, 2, 85, 0
5, 54060, Note_on_c, 2, 86, 113
5, 54060, Note_on_c, 2, 81, 113
5, 54095, Note_on_c, 2, 81, 0
5, 54095, Note_on_c, 2, 86, 0
5, 54120, Note_on_c, 2, 79, 114
5, 54120, Note_on_c, 2, 74, 114
5, 54155, Note_on_c, 2, 74, 0
5, 54155, Note_on_c, 2, 79, 0
5, 54180, Note_on_c, 2, 78, 114
5, 54180, Note_on_c, 2, 74, 114
5, 54300, Note_on_c, 2, 74, 0
5, 54300, Note_on_c, 2, 78, 0
5, 54300, Note_on_c, 2, 76, 116
5, 54300, Note_on_c, 2, 73, 116
5, 54420, Note_on_c, 2, 73, 0
5, 54420, Note_on_c, 2, 76, 0
5, 54420, Note_on_c, 2, 74, 117
5, 54420, Note_on_c, 2, 74, 117
5, 54660, Note_on_c, 2, 74, 0
5, 54660, Note_on_c, 2, 74, 0
5, 55140, End_track
6, 0, Start_track
6, 0, MIDI_port, 0
6, 0, Title_t, "Bassoon"
6, 0, Program_c, 4, 70
6, 180, Note_on_c, 4, 62, 70
6, 215, Note_on_c, 4, 62, 0
6, 240, Note_on_c, 4, 50, 70
6, 275, Note_on_c, 4, 50, 0
6, 300, Note_on_c, 4, 62, 70
6, 395, Note_on_c, 4, 62, 0
6, 420, Note_on_c, 4, 61, 70
6, 455, Note_on_c, 4, 61, 0
6, 480, Note_on_c, 4, 57, 70
6, 515, Note_on_c, 4, 57, 0
6, 540, Note_on_c, 4, 62, 70
6, 575, Note_on_c, 4, 62, 0
6, 600, Note_on_c, 4, 50, 70
6, 635, Note_on_c, 4, 50, 0
6, 660, Note_on_c, 4, 62, 70
6, 755, Note_on_c, 4, 62, 0
6, 780, Note_on_c, 4, 61, 70
6, 815, Note_on_c, 4, 61, 0
6, 840, Note_on_c, 4, 57, 70
6, 875, Note_on_c, 4, 57, 0
6, 900, Note_on_c, 4, 50, 70
6, 935, Note_on_c, 4, 50, 0
6, 960, Note_on_c, 4, 50, 70
6, 995, Note_on_c, 4, 50, 0
6, 1020, Note_on_c, 4, 52, 70
6, 1055, Note_on_c, 4, 52, 0
6, 1080, Note_on_c, 4, 54, 70
6, 1115, Note_on_c, 4, 54, 0
6, 1140, Note_on_c, 4, 55, 70
6, 1170, Note_on_c, 4, 55, 0
6, 1170, Note_on_c, 4, 54, 70
6, 1200, Note_on_c, 4, 54, 0
6, 1200, Note_on_c, 4, 52, 70
6, 1230, Note_on_c, 4, 52, 0
6, 1230, Note_on_c, 4, 50, 70
6, 1260, Note_on_c, 4, 50, 0
6, 1260, Note_on_c, 4, 57, 70
6, 1295, Note_on_c, 4, 57, 0
6, 1440, Note_on_c, 4, 45, 70
6, 1475, Note_on_c, 4, 45, 0
6, 1680, Note_on_c, 4, 57, 70
6, 1715, Note_on_c, 4, 57, 0
6, 1740, Note_on_c, 4, 55, 70
6, 1775, Note_on_c, 4, 55, 0
6, 1800, Note_on_c, 4, 54, 64
6, 1835, Note_on_c, 4, 54, 0
6, 1860, Note_on_c, 4, 54, 64
6, 1895, Note_on_c, 4, 54, 0
6, 1920, Note_on_c, 4, 52, 64
6, 1955, Note_on_c, 4, 52, 0
6, 1980, Note_on_c, 4, 51, 64
6, 2015, Note_on_c, 4, 51, 0
6, 2040, Note_on_c, 4, 59, 64
6, 2075, Note_on_c, 4, 59, 0
6, 2100, Note_on_c, 4, 57, 64
6, 2135, Note_on_c, 4, 57, 0
6, 2160, Note_on_c, 4, 55, 64
6, 2190, Note_on_c, 4, 55, 0
6, 2190, Note_on_c, 4, 54, 64
6, 2220, Note_on_c, 4, 54, 0
6, 2220, Note_on_c, 4, 55, 64
6, 2250, Note_on_c, 4, 55, 0
6, 2250, Note_on_c, 4, 57, 64
6, 2280, Note_on_c, 4, 57, 0
6, 2280, Note_on_c, 4, 59, 64
6, 2315, Note_on_c, 4, 59, 0
6, 2340, Note_on_c, 4, 52, 64
6, 2375, Note_on_c, 4, 52, 0
6, 2400, Note_on_c, 4, 55, 64
6, 2435, Note_on_c, 4, 55, 0
6, 2460, Note_on_c, 4, 54, 64
6, 2495, Note_on_c, 4, 54, 0
6, 2520, Note_on_c, 4, 52, 64
6, 2555, Note_on_c, 4, 52, 0
6, 2580, Note_on_c, 4, 52, 64
6, 2615, Note_on_c, 4, 52, 0
6, 2640, Note_on_c, 4, 50, 64
6, 2675, Note_on_c, 4, 50, 0
6, 2700, Note_on_c, 4, 49, 64
6, 2735, Note_on_c, 4, 49, 0
6, 2760, Note_on_c, 4, 57, 64
6, 2795, Note_on_c, 4, 57, 0
6, 2820, Note_on_c, 4, 55, 64
6, 2855, Note_on_c, 4, 55, 0
6, 2880, Note_on_c, 4, 54, 64
6, 2910, Note_on_c, 4, 54, 0
6, 2910, Note_on_c, 4, 52, 64
6, 2940, Note_on_c, 4, 52, 0
6, 2940, Note_on_c, 4, 54, 64
6, 2970, Note_on_c, 4, 54, 0
6, 2970, Note_on_c, 4, 55, 64
6, 3000, Note_on_c, 4, 55, 0
6, 3000, Note_on_c, 4, 57, 64
6, 3035, Note_on_c, 4, 57, 0
6, 3060, Note_on_c, 4, 50, 64
6, 3095, Note_on_c, 4, 50, 0
6, 3120, Note_on_c, 4, 62, 64
6, 3155, Note_on_c, 4, 62, 0
6, 3180, Note_on_c, 4, 59, 64
6, 3215, Note_on_c, 4, 59, 0
6, 3240, Note_on_c, 4, 55, 64
6, 3275, Note_on_c, 4, 55, 0
6, 3300, Note_on_c, 4, 52, 64
6, 3335, Note_on_c, 4, 52, 0
6, 3360, Note_on_c, 4, 57, 64
6, 3395, Note_on_c, 4, 57, 0
6, 3420, Note_on_c, 4, 47, 64
6, 3455, Note_on_c, 4, 47, 0
6, 3480, Note_on_c, 4, 59, 64
6, 3515, Note_on_c, 4, 59, 0
6, 3540, Note_on_c, 4, 55, 64
6, 3575, Note_on_c, 4, 55, 0
6, 3600, Note_on_c, 4, 52, 64
6, 3635, Note_on_c, 4, 52, 0
6, 3660, Note_on_c, 4, 49, 64
6, 3695, Note_on_c, 4, 49, 0
6, 3720, Note_on_c, 4, 54, 64
6, 3755, Note_on_c, 4, 54, 0
6, 3780, Note_on_c, 4, 43, 64
6, 3815, Note_on_c, 4, 43, 0
6, 3840, Note_on_c, 4, 55, 65
6, 3875, Note_on_c, 4, 55, 0
6, 3900, Note_on_c, 4, 52, 67
6, 3935, Note_on_c, 4, 52, 0
6, 3960, Note_on_c, 4, 49, 68
6, 3995, Note_on_c, 4, 49, 0
6, 4020, Note_on_c, 4, 45, 69
6, 4055, Note_on_c, 4, 45, 0
6, 4080, Note_on_c, 4, 50, 71
6, 4115, Note_on_c, 4, 50, 0
6, 4140, Note_on_c, 4, 43, 72
6, 4175, Note_on_c, 4, 43, 0
6, 4200, Note_on_c, 4, 45, 73
6, 4235, Note_on_c, 4, 45, 0
6, 4260, Note_on_c, 4, 47, 75
6, 4295, Note_on_c, 4, 47, 0
6, 4320, Note_on_c, 4, 45, 76
6, 4350, Note_on_c, 4, 45, 0
6, 4350, Note_on_c, 4, 43, 77
6, 4380, Note_on_c, 4, 43, 0
6, 4380, Note_on_c, 4, 45, 77
6, 4415, Note_on_c, 4, 45, 0
6, 4440, Note_on_c, 4, 45, 79
6, 4475, Note_on_c, 4, 45, 0
6, 4500, Note_on_c, 4, 38, 64
6, 4535, Note_on_c, 4, 38, 0
6, 4535, Control_c, 4, 7, 75
6, 5220, Note_on_c, 4, 50, 55
6, 5231, Note_on_c, 4, 50, 0
6, 5280, Note_on_c, 4, 50, 56
6, 5291, Note_on_c, 4, 50, 0
6, 5340, Note_on_c, 4, 52, 57
6, 5351, Note_on_c, 4, 52, 0
6, 5400, Note_on_c, 4, 54, 58
6, 5411, Note_on_c, 4, 54, 0
6, 5460, Note_on_c, 4, 55, 59
6, 5490, Note_on_c, 4, 55, 0
6, 5490, Note_on_c, 4, 54, 60
6, 5520, Note_on_c, 4, 54, 0
6, 5520, Note_on_c, 4, 52, 60
6, 5550, Note_on_c, 4, 52, 0
6, 5550, Note_on_c, 4, 50, 61
6, 5580, Note_on_c, 4, 50, 0
6, 5580, Note_on_c, 4, 57, 61
6, 5591, Note_on_c, 4, 57, 0
6, 5760, Note_on_c, 4, 45, 64
6, 5795, Note_on_c, 4, 45, 0
6, 5940, Note_on_c, 4, 57, 67
6, 5975, Note_on_c, 4, 57, 0
6, 6000, Note_on_c, 4, 52, 68
6, 6035, Note_on_c, 4, 52, 0
6, 6060, Note_on_c, 4, 49, 69
6, 6095, Note_on_c, 4, 49, 0
6, 6120, Control_c, 4, 7, 127
6, 6120, Note_on_c, 4, 45, 64
6, 6155, Note_on_c, 4, 45, 0
6, 6180, Note_on_c, 4, 49, 64
6, 6215, Note_on_c, 4, 49, 0
6, 6240, Note_on_c, 4, 52, 64
6, 6275, Note_on_c, 4, 52, 0
6, 6300, Note_on_c, 4, 46, 64
6, 6335, Note_on_c, 4, 46, 0
6, 6360, Note_on_c, 4, 54, 64
6, 6395, Note_on_c, 4, 54, 0
6, 6420, Note_on_c, 4, 52, 64
6, 6455, Note_on_c, 4, 52, 0
6, 6480, Note_on_c, 4, 50, 64
6, 6510, Note_on_c, 4, 50, 0
6, 6510, Note_on_c, 4, 49, 64
6, 6540, Note_on_c, 4, 49, 0
6, 6540, Note_on_c, 4, 50, 64
6, 6570, Note_on_c, 4, 50, 0
6, 6570, Note_on_c, 4, 52, 64
6, 6600, Note_on_c, 4, 52, 0
6, 6600, Note_on_c, 4, 54, 64
6, 6635, Note_on_c, 4, 54, 0
6, 6660, Note_on_c, 4, 47, 64
6, 6695, Note_on_c, 4, 47, 0
6, 6720, Note_on_c, 4, 50, 64
6, 6755, Note_on_c, 4, 50, 0
6, 6780, Note_on_c, 4, 49, 64
6, 6815, Note_on_c, 4, 49, 0
6, 6840, Note_on_c, 4, 47, 64
6, 6875, Note_on_c, 4, 47, 0
6, 6900, Note_on_c, 4, 47, 64
6, 6935, Note_on_c, 4, 47, 0
6, 6960, Note_on_c, 4, 45, 64
6, 6995, Note_on_c, 4, 45, 0
6, 7020, Note_on_c, 4, 44, 64
6, 7055, Note_on_c, 4, 44, 0
6, 7080, Note_on_c, 4, 52, 64
6, 7115, Note_on_c, 4, 52, 0
6, 7140, Note_on_c, 4, 50, 64
6, 7175, Note_on_c, 4, 50, 0
6, 7200, Note_on_c, 4, 49, 64
6, 7230, Note_on_c, 4, 49, 0
6, 7230, Note_on_c, 4, 47, 64
6, 7260, Note_on_c, 4, 47, 0
6, 7260, Note_on_c, 4, 49, 64
6, 7290, Note_on_c, 4, 49, 0
6, 7290, Note_on_c, 4, 50, 64
6, 7320, Note_on_c, 4, 50, 0
6, 7320, Note_on_c, 4, 52, 64
6, 7355, Note_on_c, 4, 52, 0
6, 7380, Note_on_c, 4, 45, 64
6, 7415, Note_on_c, 4, 45, 0
6, 8100, Note_on_c, 4, 45, 64
6, 8111, Note_on_c, 4, 45, 0
6, 8160, Note_on_c, 4, 45, 65
6, 8171, Note_on_c, 4, 45, 0
6, 8220, Note_on_c, 4, 47, 66
6, 8231, Note_on_c, 4, 47, 0
6, 8280, Note_on_c, 4, 49, 67
6, 8291, Note_on_c, 4, 49, 0
6, 8340, Note_on_c, 4, 50, 68
6, 8370, Note_on_c, 4, 50, 0
6, 8370, Note_on_c, 4, 49, 69
6, 8400, Note_on_c, 4, 49, 0
6, 8400, Note_on_c, 4, 47, 69
6, 8430, Note_on_c, 4, 47, 0
6, 8430, Note_on_c, 4, 45, 70
6, 8460, Note_on_c, 4, 45, 0
6, 8460, Note_on_c, 4, 52, 70
6, 8471, Note_on_c, 4, 52, 0
6, 8640, Note_on_c, 4, 40, 74
6, 8675, Note_on_c, 4, 40, 0
6, 8820, Note_on_c, 4, 52, 77
6, 8855, Note_on_c, 4, 52, 0
6, 8880, Note_on_c, 4, 52, 78
6, 8915, Note_on_c, 4, 52, 0
6, 8940, Note_on_c, 4, 50, 79
6, 8975, Note_on_c, 4, 50, 0
6, 9000, Note_on_c, 4, 49, 40
6, 9035, Note_on_c, 4, 49, 0
6, 9060, Note_on_c, 4, 49, 43
6, 9095, Note_on_c, 4, 49, 0
6, 9120, Note_on_c, 4, 47, 46
6, 9155, Note_on_c, 4, 47, 0
6, 9180, Note_on_c, 4, 46, 49
6, 9215, Note_on_c, 4, 46, 0
6, 9240, Note_on_c, 4, 54, 51
6, 9275, Note_on_c, 4, 54, 0
6, 9300, Note_on_c, 4, 52, 54
6, 9335, Note_on_c, 4, 52, 0
6, 9360, Note_on_c, 4, 50, 57
6, 9390, Note_on_c, 4, 50, 0
6, 9390, Note_on_c, 4, 49, 58
6, 9420, Note_on_c, 4, 49, 0
6, 9420, Note_on_c, 4, 50, 60
6, 9450, Note_on_c, 4, 50, 0
6, 9450, Note_on_c, 4, 52, 61
6, 9480, Note_on_c, 4, 52, 0
6, 9480, Note_on_c, 4, 54, 63
6, 9515, Note_on_c, 4, 54, 0
6, 9540, Note_on_c, 4, 47, 66
6, 9575, Note_on_c, 4, 47, 0
6, 9600, Note_on_c, 4, 50, 68
6, 9635, Note_on_c, 4, 50, 0
6, 9660, Note_on_c, 4, 49, 71
6, 9695, Note_on_c, 4, 49, 0
6, 9720, Note_on_c, 4, 47, 50
6, 9755, Note_on_c, 4, 47, 0
6, 9780, Note_on_c, 4, 47, 52
6, 9815, Note_on_c, 4, 47, 0
6, 9840, Note_on_c, 4, 45, 54
6, 9875, Note_on_c, 4, 45, 0
6, 9900, Note_on_c, 4, 44, 56
6, 9935, Note_on_c, 4, 44, 0
6, 9960, Note_on_c, 4, 52, 58
6, 9995, Note_on_c, 4, 52, 0
6, 10020, Note_on_c, 4, 50, 60
6, 10055, Note_on_c, 4, 50, 0
6, 10080, Note_on_c, 4, 49, 63
6, 10110, Note_on_c, 4, 49, 0
6, 10110, Note_on_c, 4, 47, 64
6, 10140, Note_on_c, 4, 47, 0
6, 10140, Note_on_c, 4, 49, 65
6, 10170, Note_on_c, 4, 49, 0
6, 10170, Note_on_c, 4, 50, 66
6, 10200, Note_on_c, 4, 50, 0
6, 10200, Note_on_c, 4, 52, 67
6, 10235, Note_on_c, 4, 52, 0
6, 10260, Note_on_c, 4, 45, 69
6, 10295, Note_on_c, 4, 45, 0
6, 10320, Note_on_c, 4, 57, 71
6, 10355, Note_on_c, 4, 57, 0
6, 10380, Note_on_c, 4, 54, 73
6, 10415, Note_on_c, 4, 54, 0
6, 10440, Note_on_c, 4, 50, 64
6, 10475, Note_on_c, 4, 50, 0
6, 10500, Note_on_c, 4, 47, 65
6, 10535, Note_on_c, 4, 47, 0
6, 10560, Note_on_c, 4, 52, 66
6, 10595, Note_on_c, 4, 52, 0
6, 10620, Note_on_c, 4, 42, 66
6, 10655, Note_on_c, 4, 42, 0
6, 10680, Note_on_c, 4, 54, 67
6, 10715, Note_on_c, 4, 54, 0
6, 10740, Note_on_c, 4, 50, 68
6, 10775, Note_on_c, 4, 50, 0
6, 10800, Note_on_c, 4, 47, 69
6, 10835, Note_on_c, 4, 47, 0
6, 10860, Note_on_c, 4, 44, 69
6, 10895, Note_on_c, 4, 44, 0
6, 10920, Note_on_c, 4, 49, 70
6, 10955, Note_on_c, 4, 49, 0
6, 10980, Note_on_c, 4, 38, 71
6, 11015, Note_on_c, 4, 38, 0
6, 11040, Note_on_c, 4, 50, 72
6, 11075, Note_on_c, 4, 50, 0
6, 11100, Note_on_c, 4, 47, 72
6, 11135, Note_on_c, 4, 47, 0
6, 11160, Note_on_c, 4, 44, 73
6, 11195, Note_on_c, 4, 44, 0
6, 11220, Note_on_c, 4, 40, 74
6, 11255, Note_on_c, 4, 40, 0
6, 11280, Note_on_c, 4, 45, 75
6, 11315, Note_on_c, 4, 45, 0
6, 11340, Note_on_c, 4, 50, 75
6, 11351, Note_on_c, 4, 50, 0
6, 11400, Note_on_c, 4, 52, 76
6, 11411, Note_on_c, 4, 52, 0
6, 11460, Note_on_c, 4, 54, 77
6, 11471, Note_on_c, 4, 54, 0
6, 11520, Note_on_c, 4, 52, 78
6, 11550, Note_on_c, 4, 52, 0
6, 11550, Note_on_c, 4, 50, 78
6, 11580, Note_on_c, 4, 50, 0
6, 11580, Note_on_c, 4, 52, 78
6, 11615, Note_on_c, 4, 52, 0
6, 11640, Note_on_c, 4, 40, 79
6, 11675, Note_on_c, 4, 40, 0
6, 11700, Control_c, 4, 7, 127
6, 11700, Note_on_c, 4, 45, 64
6, 11735, Note_on_c, 4, 45, 0
6, 11760, Note_on_c, 4, 57, 64
6, 11790, Note_on_c, 4, 57, 0
6, 11790, Note_on_c, 4, 56, 64
6, 11820, Note_on_c, 4, 56, 0
6, 11820, Note_on_c, 4, 57, 64
6, 11915, Note_on_c, 4, 57, 0
6, 11940, Note_on_c, 4, 56, 64
6, 11975, Note_on_c, 4, 56, 0
6, 12000, Note_on_c, 4, 52, 64
6, 12035, Note_on_c, 4, 52, 0
6, 12060, Note_on_c, 4, 57, 64
6, 12095, Note_on_c, 4, 57, 0
6, 13140, Control_c, 4, 7, 75
6, 13860, Control_c, 4, 7, 127
6, 13860, Note_on_c, 4, 50, 50
6, 13895, Note_on_c, 4, 50, 0
6, 13920, Note_on_c, 4, 38, 50
6, 13955, Note_on_c, 4, 38, 0
6, 13980, Note_on_c, 4, 50, 50
6, 14075, Note_on_c, 4, 50, 0
6, 14100, Note_on_c, 4, 49, 50
6, 14135, Note_on_c, 4, 49, 0
6, 14160, Note_on_c, 4, 45, 50
6, 14195, Note_on_c, 4, 45, 0
6, 14220, Note_on_c, 4, 50, 50
6, 14255, Note_on_c, 4, 50, 0
6, 14280, Note_on_c, 4, 62, 50
6, 14310, Note_on_c, 4, 62, 0
6, 14310, Note_on_c, 4, 61, 50
6, 14340, Note_on_c, 4, 61, 0
6, 14340, Note_on_c, 4, 62, 50
6, 14435, Note_on_c, 4, 62, 0
6, 14460, Note_on_c, 4, 61, 50
6, 14495, Note_on_c, 4, 61, 0
6, 14520, Note_on_c, 4, 57, 50
6, 14555, Note_on_c, 4, 57, 0
6, 14580, Note_on_c, 4, 50, 64
6, 14591, Note_on_c, 4, 50, 0
6, 14640, Note_on_c, 4, 50, 64
6, 14651, Note_on_c, 4, 50, 0
6, 14700, Note_on_c, 4, 52, 64
6, 14711, Note_on_c, 4, 52, 0
6, 14760, Note_on_c, 4, 54, 64
6, 14795, Note_on_c, 4, 54, 0
6, 14820, Note_on_c, 4, 55, 64
6, 14850, Note_on_c, 4, 55, 0
6, 14850, Note_on_c, 4, 54, 64
6, 14880, Note_on_c, 4, 54, 0
6, 14880, Note_on_c, 4, 52, 64
6, 14910, Note_on_c, 4, 52, 0
6, 14910, Note_on_c, 4, 50, 64
6, 14940, Note_on_c, 4, 50, 0
6, 14940, Note_on_c, 4, 57, 64
6, 14951, Note_on_c, 4, 57, 0
6, 15120, Note_on_c, 4, 45, 64
6, 15155, Note_on_c, 4, 45, 0
6, 15300, Note_on_c, 4, 57, 50
6, 15335, Note_on_c, 4, 57, 0
6, 15360, Note_on_c, 4, 57, 52
6, 15395, Note_on_c, 4, 57, 0
6, 15420, Note_on_c, 4, 55, 53
6, 15455, Note_on_c, 4, 55, 0
6, 15480, Control_c, 4, 7, 75
6, 15480, Note_on_c, 4, 54, 55
6, 15515, Note_on_c, 4, 54, 0
6, 15540, Note_on_c, 4, 54, 57
6, 15575, Note_on_c, 4, 54, 0
6, 15600, Note_on_c, 4, 52, 58
6, 15635, Note_on_c, 4, 52, 0
6, 15660, Note_on_c, 4, 51, 60
6, 15695, Note_on_c, 4, 51, 0
6, 15720, Note_on_c, 4, 59, 62
6, 15755, Note_on_c, 4, 59, 0
6, 15780, Note_on_c, 4, 54, 63
6, 15815, Note_on_c, 4, 54, 0
6, 15840, Note_on_c, 4, 55, 65
6, 15870, Note_on_c, 4, 55, 0
6, 15870, Note_on_c, 4, 54, 66
6, 15900, Note_on_c, 4, 54, 0
6, 15900, Note_on_c, 4, 55, 67
6, 15930, Note_on_c, 4, 55, 0
6, 15930, Note_on_c, 4, 57, 68
6, 15960, Note_on_c, 4, 57, 0
6, 15960, Note_on_c, 4, 59, 68
6, 15971, Note_on_c, 4, 59, 0
6, 16020, Note_on_c, 4, 52, 50
6, 16031, Note_on_c, 4, 52, 0
6, 16080, Note_on_c, 4, 55, 52
6, 16115, Note_on_c, 4, 55, 0
6, 16140, Note_on_c, 4, 54, 53
6, 16175, Note_on_c, 4, 54, 0
6, 16200, Note_on_c, 4, 52, 55
6, 16235, Note_on_c, 4, 52, 0
6, 16260, Note_on_c, 4, 52, 57
6, 16295, Note_on_c, 4, 52, 0
6, 16320, Note_on_c, 4, 50, 58
6, 16355, Note_on_c, 4, 50, 0
6, 16380, Note_on_c, 4, 49, 60
6, 16415, Note_on_c, 4, 49, 0
6, 16440, Note_on_c, 4, 57, 62
6, 16475, Note_on_c, 4, 57, 0
6, 16500, Note_on_c, 4, 52, 63
6, 16535, Note_on_c, 4, 52, 0
6, 16560, Note_on_c, 4, 54, 65
6, 16590, Note_on_c, 4, 54, 0
6, 16590, Note_on_c, 4, 52, 66
6, 16620, Note_on_c, 4, 52, 0
6, 16620, Note_on_c, 4, 54, 67
6, 16650, Note_on_c, 4, 54, 0
6, 16650, Note_on_c, 4, 55, 68
6, 16680, Note_on_c, 4, 55, 0
6, 16680, Note_on_c, 4, 57, 68
6, 16691, Note_on_c, 4, 57, 0
6, 16740, Control_c, 4, 7, 75
6, 16740, Note_on_c, 4, 50, 64
6, 16751, Note_on_c, 4, 50, 0
6, 16800, Note_on_c, 4, 62, 65
6, 16835, Note_on_c, 4, 62, 0
6, 16860, Note_on_c, 4, 59, 65
6, 16895, Note_on_c, 4, 59, 0
6, 16920, Note_on_c, 4, 55, 66
6, 16955, Note_on_c, 4, 55, 0
6, 16980, Note_on_c, 4, 52, 67
6, 17015, Note_on_c, 4, 52, 0
6, 17040, Note_on_c, 4, 57, 67
6, 17075, Note_on_c, 4, 57, 0
6, 17100, Note_on_c, 4, 47, 68
6, 17111, Note_on_c, 4, 47, 0
6, 17160, Note_on_c, 4, 59, 69
6, 17195, Note_on_c, 4, 59, 0
6, 17220, Note_on_c, 4, 55, 69
6, 17255, Note_on_c, 4, 55, 0
6, 17280, Note_on_c, 4, 52, 70
6, 17315, Note_on_c, 4, 52, 0
6, 17340, Note_on_c, 4, 49, 71
6, 17375, Note_on_c, 4, 49, 0
6, 17400, Note_on_c, 4, 54, 71
6, 17435, Note_on_c, 4, 54, 0
6, 17460, Note_on_c, 4, 43, 72
6, 17471, Note_on_c, 4, 43, 0
6, 17520, Note_on_c, 4, 55, 73
6, 17555, Note_on_c, 4, 55, 0
6, 17580, Note_on_c, 4, 52, 73
6, 17615, Note_on_c, 4, 52, 0
6, 17640, Note_on_c, 4, 49, 74
6, 17675, Note_on_c, 4, 49, 0
6, 17700, Note_on_c, 4, 45, 75
6, 17735, Note_on_c, 4, 45, 0
6, 17760, Note_on_c, 4, 50, 75
6, 17795, Note_on_c, 4, 50, 0
6, 17820, Note_on_c, 4, 43, 76
6, 17831, Note_on_c, 4, 43, 0
6, 17880, Note_on_c, 4, 45, 77
6, 17891, Note_on_c, 4, 45, 0
6, 17940, Note_on_c, 4, 47, 77
6, 17951, Note_on_c, 4, 47, 0
6, 18000, Note_on_c, 4, 45, 78
6, 18030, Note_on_c, 4, 45, 0
6, 18030, Note_on_c, 4, 43, 78
6, 18060, Note_on_c, 4, 43, 0
6, 18060, Note_on_c, 4, 45, 79
6, 18180, Note_on_c, 4, 45, 0
6, 18180, Note_on_c, 4, 38, 100
6, 18300, Note_on_c, 4, 38, 0
6, 19740, Note_on_c, 4, 55, 49
6, 20400, Note_on_c, 4, 55, 0
6, 20400, Note_on_c, 4, 43, 61
6, 20435, Note_on_c, 4, 43, 0
6, 20460, Note_on_c, 4, 43, 62
6, 20520, Note_on_c, 4, 43, 0
6, 20520, Note_on_c, 4, 45, 63
6, 20640, Note_on_c, 4, 45, 0
6, 20640, Note_on_c, 4, 47, 64
6, 20675, Note_on_c, 4, 47, 0
6, 20700, Note_on_c, 4, 47, 64
6, 20760, Note_on_c, 4, 47, 0
6, 20760, Note_on_c, 4, 48, 64
6, 20795, Note_on_c, 4, 48, 0
6, 20820, Note_on_c, 4, 48, 64
6, 20880, Note_on_c, 4, 48, 0
6, 20880, Note_on_c, 4, 47, 64
6, 20915, Note_on_c, 4, 47, 0
6, 20940, Note_on_c, 4, 48, 64
6, 21000, Note_on_c, 4, 48, 0
6, 21000, Note_on_c, 4, 50, 64
6, 21035, Note_on_c, 4, 50, 0
6, 21060, Note_on_c, 4, 47, 64
6, 22320, Note_on_c, 4, 47, 0
6, 22320, Note_on_c, 4, 45, 69
6, 22355, Note_on_c, 4, 45, 0
6, 22380, Note_on_c, 4, 45, 69
6, 22440, Note_on_c, 4, 45, 0
6, 22440, Note_on_c, 4, 43, 70
6, 22475, Note_on_c, 4, 43, 0
6, 22500, Note_on_c, 4, 45, 64
6, 22800, Note_on_c, 4, 45, 0
6, 22800, Note_on_c, 4, 47, 64
6, 22835, Note_on_c, 4, 47, 0
6, 22860, Note_on_c, 4, 47, 64
6, 22920, Note_on_c, 4, 47, 0
6, 22920, Note_on_c, 4, 45, 64
6, 22955, Note_on_c, 4, 45, 0
6, 22980, Note_on_c, 4, 43, 64
6, 23040, Note_on_c, 4, 43, 0
6, 23040, Note_on_c, 4, 42, 65
6, 23075, Note_on_c, 4, 42, 0
6, 23100, Note_on_c, 4, 42, 67
6, 23160, Note_on_c, 4, 42, 0
6, 23160, Note_on_c, 4, 40, 68
6, 23195, Note_on_c, 4, 40, 0
6, 23220, Note_on_c, 4, 52, 70
6, 23280, Note_on_c, 4, 52, 0
6, 23280, Note_on_c, 4, 50, 71
6, 23315, Note_on_c, 4, 50, 0
6, 23340, Note_on_c, 4, 50, 72
6, 23400, Note_on_c, 4, 50, 0
6, 23400, Note_on_c, 4, 48, 74
6, 23435, Note_on_c, 4, 48, 0
6, 23460, Note_on_c, 4, 48, 75
6, 23520, Note_on_c, 4, 48, 0
6, 23520, Note_on_c, 4, 47, 75
6, 23580, Note_on_c, 4, 47, 0
6, 23580, Note_on_c, 4, 47, 75
6, 23640, Note_on_c, 4, 47, 0
6, 23640, Note_on_c, 4, 45, 75
6, 23700, Note_on_c, 4, 45, 0
6, 23700, Note_on_c, 4, 45, 75
6, 23760, Note_on_c, 4, 45, 0
6, 23760, Note_on_c, 4, 43, 75
6, 23790, Note_on_c, 4, 43, 0
6, 23790, Note_on_c, 4, 42, 75
6, 23820, Note_on_c, 4, 42, 0
6, 23820, Note_on_c, 4, 43, 75
6, 23880, Note_on_c, 4, 43, 0
6, 23880, Note_on_c, 4, 45, 75
6, 23940, Note_on_c, 4, 45, 0
6, 23940, Note_on_c, 4, 47, 67
6, 24180, Note_on_c, 4, 47, 0
6, 24180, Note_on_c, 4, 40, 53
6, 26160, Note_on_c, 4, 40, 0
6, 26160, Note_on_c, 4, 54, 52
6, 26195, Note_on_c, 4, 54, 0
6, 26220, Note_on_c, 4, 54, 53
6, 26280, Note_on_c, 4, 54, 0
6, 26280, Note_on_c, 4, 52, 53
6, 26315, Note_on_c, 4, 52, 0
6, 26340, Note_on_c, 4, 50, 54
6, 26400, Note_on_c, 4, 50, 0
6, 26400, Note_on_c, 4, 49, 54
6, 26435, Note_on_c, 4, 49, 0
6, 26460, Note_on_c, 4, 49, 55
6, 26520, Note_on_c, 4, 49, 0
6, 26520, Note_on_c, 4, 47, 55
6, 26555, Note_on_c, 4, 47, 0
6, 26580, Note_on_c, 4, 47, 55
6, 26640, Note_on_c, 4, 47, 0
6, 26640, Note_on_c, 4, 45, 56
6, 26675, Note_on_c, 4, 45, 0
6, 26700, Note_on_c, 4, 45, 56
6, 26760, Note_on_c, 4, 45, 0
6, 26760, Note_on_c, 4, 43, 57
6, 26795, Note_on_c, 4, 43, 0
6, 26820, Note_on_c, 4, 43, 57
6, 26880, Note_on_c, 4, 43, 0
6, 26880, Note_on_c, 4, 42, 58
6, 26915, Note_on_c, 4, 42, 0
6, 26940, Note_on_c, 4, 42, 58
6, 27000, Note_on_c, 4, 42, 0
6, 27000, Note_on_c, 4, 40, 58
6, 27035, Note_on_c, 4, 40, 0
6, 27060, Note_on_c, 4, 40, 59
6, 27120, Note_on_c, 4, 40, 0
6, 27120, Note_on_c, 4, 50, 59
6, 27150, Note_on_c, 4, 50, 0
6, 27150, Note_on_c, 4, 49, 60
6, 27180, Note_on_c, 4, 49, 0
6, 27180, Note_on_c, 4, 50, 60
6, 27240, Note_on_c, 4, 50, 0
6, 27240, Note_on_c, 4, 52, 60
6, 27300, Note_on_c, 4, 52, 0
6, 27300, Note_on_c, 4, 54, 61
6, 27420, Note_on_c, 4, 54, 0
6, 27420, Note_on_c, 4, 42, 61
6, 27540, Note_on_c, 4, 42, 0
6, 27540, Note_on_c, 4, 47, 62
6, 27660, Note_on_c, 4, 47, 0
6, 27780, Control_c, 4, 7, 20
6, 27785, Control_c, 4, 7, 56
6, 36207, Control_c, 4, 7, 127
6, 36240, Note_on_c, 4, 62, 50
6, 36270, Note_on_c, 4, 62, 0
6, 36270, Note_on_c, 4, 61, 50
6, 36300, Note_on_c, 4, 61, 0
6, 36300, Note_on_c, 4, 59, 50
6, 36360, Note_on_c, 4, 59, 0
6, 36360, Note_on_c, 4, 57, 50
6, 36420, Note_on_c, 4, 57, 0
6, 36420, Note_on_c, 4, 56, 50
6, 36480, Note_on_c, 4, 56, 0
6, 36480, Note_on_c, 4, 57, 50
6, 36510, Note_on_c, 4, 57, 0
6, 36510, Note_on_c, 4, 59, 50
6, 36540, Note_on_c, 4, 59, 0
6, 36540, Note_on_c, 4, 61, 50
6, 36600, Note_on_c, 4, 61, 0
6, 36600, Note_on_c, 4, 49, 50
6, 36660, Note_on_c, 4, 49, 0
6, 36660, Note_on_c, 4, 54, 50
6, 36780, Note_on_c, 4, 54, 0
6, 36900, Note_on_c, 4, 42, 68
6, 37020, Note_on_c, 4, 42, 0
6, 37140, Note_on_c, 4, 47, 69
6, 37260, Note_on_c, 4, 47, 0
6, 37380, Note_on_c, 4, 47, 71
6, 37500, Note_on_c, 4, 47, 0
6, 37620, Note_on_c, 4, 52, 73
6, 37740, Note_on_c, 4, 52, 0
6, 37860, Note_on_c, 4, 40, 75
6, 37980, Note_on_c, 4, 40, 0
6, 38100, Note_on_c, 4, 45, 76
6, 38220, Note_on_c, 4, 45, 0
6, 38340, Note_on_c, 4, 45, 64
6, 38460, Note_on_c, 4, 45, 0
6, 38580, Note_on_c, 4, 50, 65
6, 38700, Note_on_c, 4, 50, 0
6, 38820, Note_on_c, 4, 38, 66
6, 38940, Note_on_c, 4, 38, 0
6, 39060, Note_on_c, 4, 43, 67
6, 39180, Note_on_c, 4, 43, 0
6, 39180, Note_on_c, 4, 55, 68
6, 39360, Note_on_c, 4, 55, 0
6, 39360, Note_on_c, 4, 54, 68
6, 39390, Note_on_c, 4, 54, 0
6, 39390, Note_on_c, 4, 52, 68
6, 39420, Note_on_c, 4, 52, 0
6, 39420, Note_on_c, 4, 54, 69
6, 39480, Note_on_c, 4, 54, 0
6, 39480, Note_on_c, 4, 55, 69
6, 39540, Note_on_c, 4, 55, 0
6, 39540, Note_on_c, 4, 57, 69
6, 39660, Note_on_c, 4, 57, 0
6, 39660, Note_on_c, 4, 45, 70
6, 39780, Note_on_c, 4, 45, 0
6, 39780, Note_on_c, 4, 50, 64
6, 39815, Note_on_c, 4, 50, 0
6, 39840, Note_on_c, 4, 54, 64
6, 39870, Note_on_c, 4, 54, 0
6, 39870, Note_on_c, 4, 52, 64
6, 39900, Note_on_c, 4, 52, 0
6, 39900, Note_on_c, 4, 50, 64
6, 39960, Note_on_c, 4, 50, 0
6, 39960, Note_on_c, 4, 49, 64
6, 40020, Note_on_c, 4, 49, 0
6, 40020, Note_on_c, 4, 47, 64
6, 40080, Note_on_c, 4, 47, 0
6, 40080, Note_on_c, 4, 49, 64
6, 40110, Note_on_c, 4, 49, 0
6, 40110, Note_on_c, 4, 50, 64
6, 40140, Note_on_c, 4, 50, 0
6, 40140, Note_on_c, 4, 52, 64
6, 40200, Note_on_c, 4, 52, 0
6, 40200, Note_on_c, 4, 40, 64
6, 40260, Note_on_c, 4, 40, 0
6, 40260, Note_on_c, 4, 45, 64
6, 40380, Note_on_c, 4, 45, 0
6, 43560, Note_on_c, 4, 50, 64
6, 43680, Note_on_c, 4, 50, 0
6, 43680, Note_on_c, 4, 52, 50
6, 43715, Note_on_c, 4, 52, 0
6, 43740, Note_on_c, 4, 52, 64
6, 43800, Note_on_c, 4, 52, 0
6, 43800, Note_on_c, 4, 53, 64
6, 43835, Note_on_c, 4, 53, 0
6, 43860, Note_on_c, 4, 53, 64
6, 43920, Note_on_c, 4, 53, 0
6, 43920, Note_on_c, 4, 52, 64
6, 43955, Note_on_c, 4, 52, 0
6, 43980, Note_on_c, 4, 53, 64
6, 44040, Note_on_c, 4, 53, 0
6, 44040, Note_on_c, 4, 55, 64
6, 44075, Note_on_c, 4, 55, 0
6, 44100, Note_on_c, 4, 52, 64
6, 44160, Note_on_c, 4, 52, 0
6, 44160, Note_on_c, 4, 50, 64
6, 44220, Note_on_c, 4, 50, 0
6, 44220, Note_on_c, 4, 48, 64
6, 44280, Note_on_c, 4, 48, 0
6, 44280, Note_on_c, 4, 47, 64
6, 44340, Note_on_c, 4, 47, 0
6, 44340, Note_on_c, 4, 45, 64
6, 44375, Note_on_c, 4, 45, 0
6, 44400, Note_on_c, 4, 55, 64
6, 44430, Note_on_c, 4, 55, 0
6, 44430, Note_on_c, 4, 54, 64
6, 44460, Note_on_c, 4, 54, 0
6, 44460, Note_on_c, 4, 55, 64
6, 44520, Note_on_c, 4, 55, 0
6, 44520, Note_on_c, 4, 48, 64
6, 44580, Note_on_c, 4, 48, 0
6, 44580, Note_on_c, 4, 47, 64
6, 44700, Note_on_c, 4, 47, 0
6, 44700, Note_on_c, 4, 47, 65
6, 44715, Note_on_c, 4, 47, 0
6, 44715, Note_on_c, 4, 45, 65
6, 44730, Note_on_c, 4, 45, 0
6, 44730, Note_on_c, 4, 47, 65
6, 44745, Note_on_c, 4, 47, 0
6, 44745, Note_on_c, 4, 45, 65
6, 44760, Note_on_c, 4, 45, 0
6, 44760, Note_on_c, 4, 47, 66
6, 44775, Note_on_c, 4, 47, 0
6, 44775, Note_on_c, 4, 45, 66
6, 44790, Note_on_c, 4, 45, 0
6, 44790, Note_on_c, 4, 43, 66
6, 44805, Note_on_c, 4, 43, 0
6, 44805, Note_on_c, 4, 45, 66
6, 44820, Note_on_c, 4, 45, 0
6, 44820, Note_on_c, 4, 43, 66
6, 44940, Note_on_c, 4, 43, 0
6, 45000, Note_on_c, 4, 47, 68
6, 45060, Note_on_c, 4, 47, 0
6, 45060, Note_on_c, 4, 43, 68
6, 45120, Note_on_c, 4, 43, 0
6, 45120, Note_on_c, 4, 40, 69
6, 45180, Note_on_c, 4, 40, 0
6, 45180, Note_on_c, 4, 45, 69
6, 45215, Note_on_c, 4, 45, 0
6, 45240, Note_on_c, 4, 45, 70
6, 45275, Note_on_c, 4, 45, 0
6, 45300, Note_on_c, 4, 38, 70
6, 45420, Note_on_c, 4, 38, 0
6, 45480, Note_on_c, 4, 50, 72
6, 45540, Note_on_c, 4, 50, 0
6, 45540, Note_on_c, 4, 45, 72
6, 45660, Note_on_c, 4, 45, 0
6, 45720, Note_on_c, 4, 38, 74
6, 45780, Note_on_c, 4, 38, 0
6, 45780, Note_on_c, 4, 43, 74
6, 45900, Note_on_c, 4, 43, 0
6, 45960, Note_on_c, 4, 55, 76
6, 46080, Note_on_c, 4, 55, 0
6, 46080, Note_on_c, 4, 52, 77
6, 46140, Note_on_c, 4, 52, 0
6, 46140, Note_on_c, 4, 54, 77
6, 46200, Note_on_c, 4, 54, 0
6, 46200, Note_on_c, 4, 55, 78
6, 46260, Note_on_c, 4, 55, 0
6, 46260, Note_on_c, 4, 57, 78
6, 46290, Note_on_c, 4, 57, 0
6, 46290, Note_on_c, 4, 55, 78
6, 46320, Note_on_c, 4, 55, 0
6, 46320, Note_on_c, 4, 57, 79
6, 46355, Note_on_c, 4, 57, 0
6, 46380, Note_on_c, 4, 45, 79
6, 46440, Note_on_c, 4, 45, 0
6, 46440, Note_on_c, 4, 57, 80
6, 46475, Note_on_c, 4, 57, 0
6, 46500, Note_on_c, 4, 50, 64
6, 46511, Note_on_c, 4, 50, 0
6, 47040, Note_on_c, 4, 61, 40
6, 47070, Note_on_c, 4, 61, 0
6, 47070, Note_on_c, 4, 59, 40
6, 47100, Note_on_c, 4, 59, 0
6, 47100, Note_on_c, 4, 57, 40
6, 47135, Note_on_c, 4, 57, 0
6, 47160, Note_on_c, 4, 61, 40
6, 47195, Note_on_c, 4, 61, 0
6, 47220, Note_on_c, 4, 54, 40
6, 47255, Note_on_c, 4, 54, 0
6, 47280, Note_on_c, 4, 57, 40
6, 47315, Note_on_c, 4, 57, 0
6, 47340, Note_on_c, 4, 51, 40
6, 47375, Note_on_c, 4, 51, 0
6, 47400, Note_on_c, 4, 47, 40
6, 47435, Note_on_c, 4, 47, 0
6, 47460, Note_on_c, 4, 52, 40
6, 47495, Note_on_c, 4, 52, 0
6, 47880, Note_on_c, 4, 42, 40
6, 47915, Note_on_c, 4, 42, 0
6, 47940, Note_on_c, 4, 47, 30
6, 48060, Note_on_c, 4, 47, 0
6, 48180, Note_on_c, 4, 59, 38
6, 48300, Note_on_c, 4, 59, 0
6, 48420, Note_on_c, 4, 52, 47
6, 48540, Note_on_c, 4, 52, 0
6, 48660, Note_on_c, 4, 40, 55
6, 48780, Note_on_c, 4, 40, 0
6, 48900, Note_on_c, 4, 45, 63
6, 49020, Note_on_c, 4, 45, 0
6, 49140, Note_on_c, 4, 57, 72
6, 49260, Note_on_c, 4, 57, 0
6, 49380, Note_on_c, 4, 50, 80
6, 49500, Note_on_c, 4, 50, 0
6, 49620, Note_on_c, 4, 38, 81
6, 49740, Note_on_c, 4, 38, 0
6, 49860, Note_on_c, 4, 43, 83
6, 49980, Note_on_c, 4, 43, 0
6, 50100, Note_on_c, 4, 52, 84
6, 50220, Note_on_c, 4, 52, 0
6, 50340, Note_on_c, 4, 40, 85
6, 50460, Note_on_c, 4, 40, 0
6, 50580, Note_on_c, 4, 45, 86
6, 50700, Note_on_c, 4, 45, 0
6, 50820, Note_on_c, 4, 54, 88
6, 50940, Note_on_c, 4, 54, 0
6, 51060, Note_on_c, 4, 42, 89
6, 51180, Note_on_c, 4, 42, 0
6, 51240, Note_on_c, 4, 54, 90
6, 51300, Note_on_c, 4, 54, 0
6, 51300, Note_on_c, 4, 59, 80
6, 51360, Note_on_c, 4, 59, 0
6, 51360, Note_on_c, 4, 57, 81
6, 51395, Note_on_c, 4, 57, 0
6, 51420, Note_on_c, 4, 57, 81
6, 51480, Note_on_c, 4, 57, 0
6, 51480, Note_on_c, 4, 55, 82
6, 51515, Note_on_c, 4, 55, 0
6, 51540, Note_on_c, 4, 55, 83
6, 51600, Note_on_c, 4, 55, 0
6, 51600, Note_on_c, 4, 54, 84
6, 51635, Note_on_c, 4, 54, 0
6, 51660, Note_on_c, 4, 54, 84
6, 51720, Note_on_c, 4, 54, 0
6, 51720, Note_on_c, 4, 52, 85
6, 51755, Note_on_c, 4, 52, 0
6, 51780, Note_on_c, 4, 52, 86
6, 51840, Note_on_c, 4, 52, 0
6, 51840, Note_on_c, 4, 50, 86
6, 51875, Note_on_c, 4, 50, 0
6, 51900, Note_on_c, 4, 52, 87
6, 51960, Note_on_c, 4, 52, 0
6, 51960, Note_on_c, 4, 45, 88
6, 51995, Note_on_c, 4, 45, 0
6, 52020, Note_on_c, 4, 50, 89
6, 52080, Note_on_c, 4, 50, 0
6, 52080, Note_on_c, 4, 52, 89
6, 52115, Note_on_c, 4, 52, 0
6, 52140, Note_on_c, 4, 54, 90
6, 52200, Note_on_c, 4, 54, 0
6, 52200, Note_on_c, 4, 50, 91
6, 52235, Note_on_c, 4, 50, 0
6, 52260, Note_on_c, 4, 52, 91
6, 52320, Note_on_c, 4, 52, 0
6, 52320, Note_on_c, 4, 50, 92
6, 52355, Note_on_c, 4, 50, 0
6, 52380, Note_on_c, 4, 49, 93
6, 52440, Note_on_c, 4, 49, 0
6, 52440, Note_on_c, 4, 54, 94
6, 52475, Note_on_c, 4, 54, 0
6, 52500, Note_on_c, 4, 52, 94
6, 52560, Note_on_c, 4, 52, 0
6, 52560, Note_on_c, 4, 50, 95
6, 52595, Note_on_c, 4, 50, 0
6, 52620, Note_on_c, 4, 52, 96
6, 52680, Note_on_c, 4, 52, 0
6, 52680, Note_on_c, 4, 40, 96
6, 52740, Note_on_c, 4, 40, 0
6, 52740, Note_on_c, 4, 45, 97
6, 52775, Note_on_c, 4, 45, 0
6, 52800, Note_on_c, 4, 57, 98
6, 52920, Note_on_c, 4, 57, 0
6, 52920, Note_on_c, 4, 55, 99
6, 52950, Note_on_c, 4, 55, 0
6, 52950, Note_on_c, 4, 54, 100
6, 52980, Note_on_c, 4, 54, 0
6, 52980, Note_on_c, 4, 52, 100
6, 53040, Note_on_c, 4, 52, 0
6, 53040, Note_on_c, 4, 50, 101
6, 53100, Note_on_c, 4, 50, 0
6, 53100, Note_on_c, 4, 49, 101
6, 53160, Note_on_c, 4, 49, 0
6, 53160, Note_on_c, 4, 45, 102
6, 53220, Note_on_c, 4, 45, 0
6, 53220, Note_on_c, 4, 50, 103
6, 53280, Note_on_c, 4, 50, 0
6, 53280, Note_on_c, 4, 47, 104
6, 53315, Note_on_c, 4, 47, 0
6, 53340, Note_on_c, 4, 43, 104
6, 53400, Note_on_c, 4, 43, 0
6, 53400, Note_on_c, 4, 40, 105
6, 53435, Note_on_c, 4, 40, 0
6, 53460, Note_on_c, 4, 45, 106
6, 53580, Note_on_c, 4, 45, 0
6, 53640, Note_on_c, 4, 38, 108
6, 53700, Note_on_c, 4, 38, 0
6, 53700, Note_on_c, 4, 43, 109
6, 53735, Note_on_c, 4, 43, 0
6, 53760, Note_on_c, 4, 50, 109
6, 53820, Note_on_c, 4, 50, 0
6, 53820, Note_on_c, 4, 55, 110
6, 54000, Note_on_c, 4, 55, 0
6, 54000, Note_on_c, 4, 54, 112
6, 54030, Note_on_c, 4, 54, 0
6, 54030, Note_on_c, 4, 52, 113
6, 54060, Note_on_c, 4, 52, 0
6, 54060, Note_on_c, 4, 54, 113
6, 54095, Note_on_c, 4, 54, 0
6, 54120, Note_on_c, 4, 55, 114
6, 54155, Note_on_c, 4, 55, 0
6, 54180, Note_on_c, 4, 57, 114
6, 54300, Note_on_c, 4, 57, 0
6, 54300, Note_on_c, 4, 45, 116
6, 54420, Note_on_c, 4, 45, 0
6, 54420, Note_on_c, 4, 38, 117
6, 54660, Note_on_c, 4, 38, 0
6, 55140, End_track
7, 0, Start_track
7, 0, MIDI_port, 0
7, 0, Title_t, "Violin I"
7, 0, Program_c, 5, 48
7, 210, Note_on_c, 5, 62, 70
7, 240, Note_on_c, 5, 62, 0
7, 240, Note_on_c, 5, 66, 70
7, 270, Note_on_c, 5, 66, 0
7, 270, Note_on_c, 5, 69, 70
7, 300, Note_on_c, 5, 69, 0
7, 300, Note_on_c, 5, 66, 70
7, 330, Note_on_c, 5, 66, 0
7, 330, Note_on_c, 5, 62, 70
7, 360, Note_on_c, 5, 62, 0
7, 360, Note_on_c, 5, 69, 70
7, 570, Note_on_c, 5, 69, 0
7, 570, Note_on_c, 5, 62, 70
7, 600, Note_on_c, 5, 62, 0
7, 600, Note_on_c, 5, 66, 70
7, 630, Note_on_c, 5, 66, 0
7, 630, Note_on_c, 5, 69, 70
7, 660, Note_on_c, 5, 69, 0
7, 660, Note_on_c, 5, 66, 70
7, 690, Note_on_c, 5, 66, 0
7, 690, Note_on_c, 5, 62, 70
7, 720, Note_on_c, 5, 62, 0
7, 720, Note_on_c, 5, 69, 70
7, 930, Note_on_c, 5, 69, 0
7, 930, Note_on_c, 5, 69, 70
7, 960, Note_on_c, 5, 69, 0
7, 960, Note_on_c, 5, 74, 70
7, 990, Note_on_c, 5, 74, 0
7, 990, Note_on_c, 5, 78, 70
7, 1020, Note_on_c, 5, 78, 0
7, 1020, Note_on_c, 5, 81, 70
7, 1050, Note_on_c, 5, 81, 0
7, 1050, Note_on_c, 5, 73, 70
7, 1080, Note_on_c, 5, 73, 0
7, 1080, Note_on_c, 5, 74, 70
7, 1110, Note_on_c, 5, 74, 0
7, 1110, Note_on_c, 5, 78, 70
7, 1140, Note_on_c, 5, 78, 0
7, 1140, Note_on_c, 5, 83, 70
7, 1170, Note_on_c, 5, 83, 0
7, 1170, Note_on_c, 5, 81, 70
7, 1200, Note_on_c, 5, 81, 0
7, 1200, Note_on_c, 5, 79, 70
7, 1230, Note_on_c, 5, 79, 0
7, 1230, Note_on_c, 5, 78, 70
7, 1260, Note_on_c, 5, 78, 0
7, 1260, Note_on_c, 5, 76, 70
7, 1295, Note_on_c, 5, 76, 0
7, 1470, Note_on_c, 5, 62, 70
7, 1500, Note_on_c, 5, 62, 0
7, 1500, Note_on_c, 5, 66, 70
7, 1530, Note_on_c, 5, 66, 0
7, 1530, Note_on_c, 5, 69, 70
7, 1560, Note_on_c, 5, 69, 0
7, 1560, Note_on_c, 5, 66, 70
7, 1590, Note_on_c, 5, 66, 0
7, 1590, Note_on_c, 5, 62, 70
7, 1620, Note_on_c, 5, 62, 0
7, 1620, Note_on_c, 5, 69, 70
7, 1650, Note_on_c, 5, 69, 0
7, 1650, Note_on_c, 5, 69, 70
7, 1680, Note_on_c, 5, 69, 0
7, 1680, Note_on_c, 5, 73, 70
7, 1710, Note_on_c, 5, 73, 0
7, 1710, Note_on_c, 5, 76, 70
7, 1740, Note_on_c, 5, 76, 0
7, 1740, Note_on_c, 5, 73, 70
7, 1770, Note_on_c, 5, 73, 0
7, 1770, Note_on_c, 5, 69, 70
7, 1800, Note_on_c, 5, 69, 0
7, 1800, Note_on_c, 5, 81, 64
7, 2010, Note_on_c, 5, 81, 0
7, 2010, Note_on_c, 5, 71, 64
7, 2040, Note_on_c, 5, 71, 0
7, 2040, Note_on_c, 5, 75, 64
7, 2070, Note_on_c, 5, 75, 0
7, 2070, Note_on_c, 5, 78, 64
7, 2100, Note_on_c, 5, 78, 0
7, 2100, Note_on_c, 5, 75, 64
7, 2130, Note_on_c, 5, 75, 0
7, 2130, Note_on_c, 5, 71, 64
7, 2160, Note_on_c, 5, 71, 0
7, 2160, Note_on_c, 5, 83, 64
7, 2190, Note_on_c, 5, 83, 0
7, 2190, Note_on_c, 5, 84, 64
7, 2220, Note_on_c, 5, 84, 0
7, 2220, Note_on_c, 5, 83, 64
7, 2250, Note_on_c, 5, 83, 0
7, 2250, Note_on_c, 5, 81, 64
7, 2280, Note_on_c, 5, 81, 0
7, 2280, Note_on_c, 5, 79, 64
7, 2310, Note_on_c, 5, 79, 0
7, 2310, Note_on_c, 5, 78, 64
7, 2340, Note_on_c, 5, 78, 0
7, 2340, Note_on_c, 5, 79, 64
7, 2370, Note_on_c, 5, 79, 0
7, 2370, Note_on_c, 5, 71, 64
7, 2400, Note_on_c, 5, 71, 0
7, 2400, Note_on_c, 5, 76, 64
7, 2430, Note_on_c, 5, 76, 0
7, 2430, Note_on_c, 5, 79, 64
7, 2460, Note_on_c, 5, 79, 0
7, 2460, Note_on_c, 5, 76, 64
7, 2490, Note_on_c, 5, 76, 0
7, 2490, Note_on_c, 5, 71, 64
7, 2520, Note_on_c, 5, 71, 0
7, 2520, Note_on_c, 5, 79, 64
7, 2730, Note_on_c, 5, 79, 0
7, 2730, Note_on_c, 5, 69, 64
7, 2760, Note_on_c, 5, 69, 0
7, 2760, Note_on_c, 5, 73, 64
7, 2790, Note_on_c, 5, 73, 0
7, 2790, Note_on_c, 5, 76, 64
7, 2820, Note_on_c, 5, 76, 0
7, 2820, Note_on_c, 5, 73, 64
7, 2850, Note_on_c, 5, 73, 0
7, 2850, Note_on_c, 5, 69, 64
7, 2880, Note_on_c, 5, 69, 0
7, 2880, Note_on_c, 5, 81, 64
7, 2910, Note_on_c, 5, 81, 0
7, 2910, Note_on_c, 5, 83, 64
7, 2940, Note_on_c, 5, 83, 0
7, 2940, Note_on_c, 5, 81, 64
7, 2970, Note_on_c, 5, 81, 0
7, 2970, Note_on_c, 5, 79, 64
7, 3000, Note_on_c, 5, 79, 0
7, 3000, Note_on_c, 5, 78, 64
7, 3030, Note_on_c, 5, 78, 0
7, 3030, Note_on_c, 5, 76, 64
7, 3060, Note_on_c, 5, 76, 0
7, 3060, Note_on_c, 5, 78, 64
7, 3090, Note_on_c, 5, 78, 0
7, 3090, Note_on_c, 5, 74, 64
7, 3120, Note_on_c, 5, 74, 0
7, 3120, Note_on_c, 5, 78, 64
7, 3150, Note_on_c, 5, 78, 0
7, 3150, Note_on_c, 5, 81, 64
7, 3180, Note_on_c, 5, 81, 0
7, 3180, Note_on_c, 5, 86, 64
7, 3210, Note_on_c, 5, 86, 0
7, 3210, Note_on_c, 5, 78, 64
7, 3240, Note_on_c, 5, 78, 0
7, 3240, Note_on_c, 5, 76, 64
7, 3270, Note_on_c, 5, 76, 0
7, 3270, Note_on_c, 5, 86, 64
7, 3300, Note_on_c, 5, 86, 0
7, 3300, Note_on_c, 5, 85, 64
7, 3330, Note_on_c, 5, 85, 0
7, 3330, Note_on_c, 5, 83, 64
7, 3360, Note_on_c, 5, 83, 0
7, 3360, Note_on_c, 5, 85, 64
7, 3390, Note_on_c, 5, 85, 0
7, 3390, Note_on_c, 5, 76, 64
7, 3420, Note_on_c, 5, 76, 0
7, 3420, Note_on_c, 5, 74, 64
7, 3450, Note_on_c, 5, 74, 0
7, 3450, Note_on_c, 5, 71, 64
7, 3480, Note_on_c, 5, 71, 0
7, 3480, Note_on_c, 5, 74, 64
7, 3510, Note_on_c, 5, 74, 0
7, 3510, Note_on_c, 5, 78, 64
7, 3540, Note_on_c, 5, 78, 0
7, 3540, Note_on_c, 5, 83, 64
7, 3570, Note_on_c, 5, 83, 0
7, 3570, Note_on_c, 5, 74, 64
7, 3600, Note_on_c, 5, 74, 0
7, 3600, Note_on_c, 5, 73, 64
7, 3630, Note_on_c, 5, 73, 0
7, 3630, Note_on_c, 5, 83, 64
7, 3660, Note_on_c, 5, 83, 0
7, 3660, Note_on_c, 5, 81, 64
7, 3690, Note_on_c, 5, 81, 0
7, 3690, Note_on_c, 5, 79, 64
7, 3720, Note_on_c, 5, 79, 0
7, 3720, Note_on_c, 5, 81, 64
7, 3750, Note_on_c, 5, 81, 0
7, 3750, Note_on_c, 5, 72, 64
7, 3780, Note_on_c, 5, 72, 0
7, 3780, Note_on_c, 5, 71, 64
7, 3810, Note_on_c, 5, 71, 0
7, 3810, Note_on_c, 5, 67, 65
7, 3840, Note_on_c, 5, 67, 0
7, 3840, Note_on_c, 5, 71, 65
7, 3870, Note_on_c, 5, 71, 0
7, 3870, Note_on_c, 5, 74, 66
7, 3900, Note_on_c, 5, 74, 0
7, 3900, Note_on_c, 5, 79, 67
7, 3930, Note_on_c, 5, 79, 0
7, 3930, Note_on_c, 5, 71, 67
7, 3960, Note_on_c, 5, 71, 0
7, 3960, Note_on_c, 5, 69, 68
7, 3990, Note_on_c, 5, 69, 0
7, 3990, Note_on_c, 5, 79, 69
7, 4020, Note_on_c, 5, 79, 0
7, 4020, Note_on_c, 5, 78, 69
7, 4050, Note_on_c, 5, 78, 0
7, 4050, Note_on_c, 5, 76, 70
7, 4080, Note_on_c, 5, 76, 0
7, 4080, Note_on_c, 5, 78, 71
7, 4110, Note_on_c, 5, 78, 0
7, 4110, Note_on_c, 5, 69, 71
7, 4140, Note_on_c, 5, 69, 0
7, 4140, Note_on_c, 5, 71, 72
7, 4170, Note_on_c, 5, 71, 0
7, 4170, Note_on_c, 5, 69, 73
7, 4200, Note_on_c, 5, 69, 0
7, 4200, Note_on_c, 5, 67, 73
7, 4230, Note_on_c, 5, 67, 0
7, 4230, Note_on_c, 5, 66, 74
7, 4260, Note_on_c, 5, 66, 0
7, 4260, Note_on_c, 5, 64, 75
7, 4290, Note_on_c, 5, 64, 0
7, 4290, Note_on_c, 5, 73, 75
7, 4320, Note_on_c, 5, 73, 0
7, 4320, Note_on_c, 5, 74, 76
7, 4350, Note_on_c, 5, 74, 0
7, 4350, Note_on_c, 5, 76, 77
7, 4380, Note_on_c, 5, 76, 0
7, 4380, Note_on_c, 5, 73, 77
7, 4470, Note_on_c, 5, 73, 0
7, 4470, Note_on_c, 5, 74, 79
7, 4500, Note_on_c, 5, 74, 0
7, 4500, Note_on_c, 5, 74, 80
7, 4535, Note_on_c, 5, 74, 0
7, 4535, Control_c, 5, 7, 75
7, 5250, Note_on_c, 5, 69, 56
7, 5280, Note_on_c, 5, 69, 0
7, 5280, Note_on_c, 5, 74, 56
7, 5310, Note_on_c, 5, 74, 0
7, 5310, Note_on_c, 5, 78, 57
7, 5340, Note_on_c, 5, 78, 0
7, 5340, Note_on_c, 5, 81, 57
7, 5370, Note_on_c, 5, 81, 0
7, 5370, Note_on_c, 5, 73, 58
7, 5400, Note_on_c, 5, 73, 0
7, 5400, Note_on_c, 5, 74, 58
7, 5430, Note_on_c, 5, 74, 0
7, 5430, Note_on_c, 5, 78, 59
7, 5460, Note_on_c, 5, 78, 0
7, 5460, Note_on_c, 5, 76, 59
7, 5490, Note_on_c, 5, 76, 0
7, 5490, Note_on_c, 5, 74, 60
7, 5520, Note_on_c, 5, 74, 0
7, 5520, Note_on_c, 5, 73, 60
7, 5550, Note_on_c, 5, 73, 0
7, 5550, Note_on_c, 5, 74, 61
7, 5580, Note_on_c, 5, 74, 0
7, 5580, Note_on_c, 5, 76, 61
7, 5610, Note_on_c, 5, 76, 0
7, 5610, Note_on_c, 5, 69, 62
7, 5640, Note_on_c, 5, 69, 0
7, 5640, Note_on_c, 5, 73, 62
7, 5670, Note_on_c, 5, 73, 0
7, 5670, Note_on_c, 5, 76, 63
7, 5700, Note_on_c, 5, 76, 0
7, 5700, Note_on_c, 5, 73, 63
7, 5730, Note_on_c, 5, 73, 0
7, 5730, Note_on_c, 5, 69, 64
7, 5760, Note_on_c, 5, 69, 0
7, 5760, Note_on_c, 5, 81, 64
7, 5975, Note_on_c, 5, 81, 0
7, 6120, Control_c, 5, 7, 127
7, 6150, Note_on_c, 5, 73, 64
7, 6180, Note_on_c, 5, 73, 0
7, 6180, Note_on_c, 5, 76, 64
7, 6210, Note_on_c, 5, 76, 0
7, 6210, Note_on_c, 5, 79, 64
7, 6240, Note_on_c, 5, 79, 0
7, 6240, Note_on_c, 5, 76, 64
7, 6270, Note_on_c, 5, 76, 0
7, 6270, Note_on_c, 5, 73, 64
7, 6300, Note_on_c, 5, 73, 0
7, 6300, Note_on_c, 5, 85, 64
7, 6510, Note_on_c, 5, 85, 0
7, 6510, Note_on_c, 5, 88, 64
7, 6540, Note_on_c, 5, 88, 0
7, 6540, Note_on_c, 5, 86, 64
7, 6570, Note_on_c, 5, 86, 0
7, 6570, Note_on_c, 5, 85, 64
7, 6600, Note_on_c, 5, 85, 0
7, 6600, Note_on_c, 5, 83, 64
7, 6630, Note_on_c, 5, 83, 0
7, 6630, Note_on_c, 5, 82, 64
7, 6660, Note_on_c, 5, 82, 0
7, 6660, Note_on_c, 5, 83, 64
7, 6695, Note_on_c, 5, 83, 0
7, 6870, Note_on_c, 5, 71, 64
7, 6900, Note_on_c, 5, 71, 0
7, 6900, Note_on_c, 5, 74, 64
7, 6930, Note_on_c, 5, 74, 0
7, 6930, Note_on_c, 5, 78, 64
7, 6960, Note_on_c, 5, 78, 0
7, 6960, Note_on_c, 5, 74, 64
7, 6990, Note_on_c, 5, 74, 0
7, 6990, Note_on_c, 5, 71, 64
7, 7020, Note_on_c, 5, 71, 0
7, 7020, Note_on_c, 5, 83, 64
7, 7230, Note_on_c, 5, 83, 0
7, 7230, Note_on_c, 5, 86, 64
7, 7260, Note_on_c, 5, 86, 0
7, 7260, Note_on_c, 5, 85, 64
7, 7290, Note_on_c, 5, 85, 0
7, 7290, Note_on_c, 5, 83, 64
7, 7320, Note_on_c, 5, 83, 0
7, 7320, Note_on_c, 5, 81, 64
7, 7350, Note_on_c, 5, 81, 0
7, 7350, Note_on_c, 5, 80, 64
7, 7380, Note_on_c, 5, 80, 0
7, 7380, Control_c, 5, 7, 75
7, 7380, Note_on_c, 5, 81, 64
7, 7415, Note_on_c, 5, 81, 0
7, 7440, Note_on_c, 5, 57, 64
7, 7475, Note_on_c, 5, 57, 0
7, 7500, Note_on_c, 5, 69, 64
7, 7595, Note_on_c, 5, 69, 0
7, 7620, Note_on_c, 5, 68, 64
7, 7650, Note_on_c, 5, 68, 0
7, 7650, Note_on_c, 5, 69, 64
7, 7680, Note_on_c, 5, 69, 0
7, 7680, Note_on_c, 5, 66, 64
7, 7710, Note_on_c, 5, 66, 0
7, 7710, Note_on_c, 5, 68, 64
7, 7740, Note_on_c, 5, 68, 0
7, 7740, Note_on_c, 5, 69, 64
7, 7770, Note_on_c, 5, 69, 0
7, 7770, Note_on_c, 5, 68, 64
7, 7800, Note_on_c, 5, 68, 0
7, 7800, Note_on_c, 5, 69, 64
7, 7830, Note_on_c, 5, 69, 0
7, 7830, Note_on_c, 5, 71, 64
7, 7860, Note_on_c, 5, 71, 0
7, 7860, Note_on_c, 5, 73, 64
7, 7890, Note_on_c, 5, 73, 0
7, 7890, Note_on_c, 5, 74, 64
7, 7920, Note_on_c, 5, 74, 0
7, 7920, Note_on_c, 5, 71, 64
7, 7955, Note_on_c, 5, 71, 0
7, 7980, Note_on_c, 5, 64, 64
7, 8015, Note_on_c, 5, 64, 0
7, 8040, Note_on_c, 5, 74, 64
7, 8075, Note_on_c, 5, 74, 0
7, 8100, Note_on_c, 5, 73, 64
7, 8130, Note_on_c, 5, 73, 0
7, 8130, Note_on_c, 5, 74, 65
7, 8160, Note_on_c, 5, 74, 0
7, 8160, Note_on_c, 5, 76, 65
7, 8315, Note_on_c, 5, 76, 0
7, 8340, Note_on_c, 5, 78, 68
7, 8370, Note_on_c, 5, 78, 0
7, 8370, Note_on_c, 5, 76, 69
7, 8400, Note_on_c, 5, 76, 0
7, 8400, Note_on_c, 5, 74, 69
7, 8430, Note_on_c, 5, 74, 0
7, 8430, Note_on_c, 5, 73, 70
7, 8460, Note_on_c, 5, 73, 0
7, 8460, Note_on_c, 5, 71, 70
7, 8495, Note_on_c, 5, 71, 0
7, 8670, Note_on_c, 5, 73, 74
7, 8700, Note_on_c, 5, 73, 0
7, 8700, Note_on_c, 5, 76, 75
7, 8730, Note_on_c, 5, 76, 0
7, 8730, Note_on_c, 5, 81, 75
7, 8760, Note_on_c, 5, 81, 0
7, 8760, Note_on_c, 5, 76, 76
7, 8790, Note_on_c, 5, 76, 0
7, 8790, Note_on_c, 5, 75, 76
7, 8820, Note_on_c, 5, 75, 0
7, 8820, Note_on_c, 5, 83, 77
7, 8855, Note_on_c, 5, 83, 0
7, 9030, Note_on_c, 5, 73, 41
7, 9060, Note_on_c, 5, 73, 0
7, 9060, Note_on_c, 5, 76, 43
7, 9090, Note_on_c, 5, 76, 0
7, 9090, Note_on_c, 5, 80, 44
7, 9120, Note_on_c, 5, 80, 0
7, 9120, Note_on_c, 5, 76, 46
7, 9150, Note_on_c, 5, 76, 0
7, 9150, Note_on_c, 5, 73, 47
7, 9180, Note_on_c, 5, 73, 0
7, 9180, Note_on_c, 5, 85, 49
7, 9390, Note_on_c, 5, 85, 0
7, 9390, Note_on_c, 5, 88, 58
7, 9420, Note_on_c, 5, 88, 0
7, 9420, Note_on_c, 5, 86, 60
7, 9450, Note_on_c, 5, 86, 0
7, 9450, Note_on_c, 5, 85, 61
7, 9480, Note_on_c, 5, 85, 0
7, 9480, Note_on_c, 5, 83, 63
7, 9510, Note_on_c, 5, 83, 0
7, 9510, Note_on_c, 5, 82, 64
7, 9540, Note_on_c, 5, 82, 0
7, 9540, Note_on_c, 5, 83, 66
7, 9575, Note_on_c, 5, 83, 0
7, 9750, Note_on_c, 5, 71, 51
7, 9780, Note_on_c, 5, 71, 0
7, 9780, Note_on_c, 5, 74, 52
7, 9810, Note_on_c, 5, 74, 0
7, 9810, Note_on_c, 5, 78, 53
7, 9840, Note_on_c, 5, 78, 0
7, 9840, Note_on_c, 5, 74, 54
7, 9870, Note_on_c, 5, 74, 0
7, 9870, Note_on_c, 5, 71, 55
7, 9900, Note_on_c, 5, 71, 0
7, 9900, Note_on_c, 5, 83, 56
7, 10110, Note_on_c, 5, 83, 0
7, 10110, Note_on_c, 5, 86, 64
7, 10140, Note_on_c, 5, 86, 0
7, 10140, Note_on_c, 5, 85, 65
7, 10170, Note_on_c, 5, 85, 0
7, 10170, Note_on_c, 5, 83, 66
7, 10200, Note_on_c, 5, 83, 0
7, 10200, Note_on_c, 5, 81, 67
7, 10230, Note_on_c, 5, 81, 0
7, 10230, Note_on_c, 5, 80, 68
7, 10260, Note_on_c, 5, 80, 0
7, 10260, Note_on_c, 5, 81, 69
7, 10290, Note_on_c, 5, 81, 0
7, 10290, Note_on_c, 5, 69, 70
7, 10320, Note_on_c, 5, 69, 0
7, 10320, Note_on_c, 5, 73, 71
7, 10350, Note_on_c, 5, 73, 0
7, 10350, Note_on_c, 5, 76, 72
7, 10380, Note_on_c, 5, 76, 0
7, 10380, Note_on_c, 5, 81, 73
7, 10410, Note_on_c, 5, 81, 0
7, 10410, Note_on_c, 5, 73, 74
7, 10440, Note_on_c, 5, 73, 0
7, 10440, Note_on_c, 5, 71, 64
7, 10470, Note_on_c, 5, 71, 0
7, 10470, Note_on_c, 5, 81, 64
7, 10500, Note_on_c, 5, 81, 0
7, 10500, Note_on_c, 5, 80, 65
7, 10530, Note_on_c, 5, 80, 0
7, 10530, Note_on_c, 5, 78, 65
7, 10560, Note_on_c, 5, 78, 0
7, 10560, Note_on_c, 5, 80, 66
7, 10590, Note_on_c, 5, 80, 0
7, 10590, Note_on_c, 5, 71, 66
7, 10620, Note_on_c, 5, 71, 0
7, 10620, Note_on_c, 5, 69, 66
7, 10650, Note_on_c, 5, 69, 0
7, 10650, Note_on_c, 5, 66, 67
7, 10680, Note_on_c, 5, 66, 0
7, 10680, Note_on_c, 5, 69, 67
7, 10710, Note_on_c, 5, 69, 0
7, 10710, Note_on_c, 5, 73, 67
7, 10740, Note_on_c, 5, 73, 0
7, 10740, Note_on_c, 5, 78, 68
7, 10770, Note_on_c, 5, 78, 0
7, 10770, Note_on_c, 5, 69, 68
7, 10800, Note_on_c, 5, 69, 0
7, 10800, Note_on_c, 5, 68, 69
7, 10830, Note_on_c, 5, 68, 0
7, 10830, Note_on_c, 5, 78, 69
7, 10860, Note_on_c, 5, 78, 0
7, 10860, Note_on_c, 5, 76, 69
7, 10890, Note_on_c, 5, 76, 0
7, 10890, Note_on_c, 5, 74, 70
7, 10920, Note_on_c, 5, 74, 0
7, 10920, Note_on_c, 5, 76, 70
7, 10950, Note_on_c, 5, 76, 0
7, 10950, Note_on_c, 5, 67, 70
7, 10980, Note_on_c, 5, 67, 0
7, 10980, Note_on_c, 5, 66, 71
7, 11010, Note_on_c, 5, 66, 0
7, 11010, Note_on_c, 5, 62, 71
7, 11040, Note_on_c, 5, 62, 0
7, 11040, Note_on_c, 5, 66, 72
7, 11070, Note_on_c, 5, 66, 0
7, 11070, Note_on_c, 5, 69, 72
7, 11100, Note_on_c, 5, 69, 0
7, 11100, Note_on_c, 5, 74, 72
7, 11130, Note_on_c, 5, 74, 0
7, 11130, Note_on_c, 5, 66, 73
7, 11160, Note_on_c, 5, 66, 0
7, 11160, Note_on_c, 5, 64, 73
7, 11190, Note_on_c, 5, 64, 0
7, 11190, Note_on_c, 5, 74, 74
7, 11220, Note_on_c, 5, 74, 0
7, 11220, Note_on_c, 5, 73, 74
7, 11250, Note_on_c, 5, 73, 0
7, 11250, Note_on_c, 5, 71, 74
7, 11280, Note_on_c, 5, 71, 0
7, 11280, Note_on_c, 5, 73, 75
7, 11310, Note_on_c, 5, 73, 0
7, 11310, Note_on_c, 5, 64, 75
7, 11340, Note_on_c, 5, 64, 0
7, 11340, Note_on_c, 5, 66, 75
7, 11370, Note_on_c, 5, 66, 0
7, 11370, Note_on_c, 5, 64, 76
7, 11400, Note_on_c, 5, 64, 0
7, 11400, Note_on_c, 5, 62, 76
7, 11430, Note_on_c, 5, 62, 0
7, 11430, Note_on_c, 5, 61, 77
7, 11460, Note_on_c, 5, 61, 0
7, 11460, Note_on_c, 5, 59, 77
7, 11490, Note_on_c, 5, 59, 0
7, 11490, Note_on_c, 5, 68, 77
7, 11520, Note_on_c, 5, 68, 0
7, 11520, Note_on_c, 5, 69, 78
7, 11550, Note_on_c, 5, 69, 0
7, 11550, Note_on_c, 5, 71, 78
7, 11580, Note_on_c, 5, 71, 0
7, 11580, Note_on_c, 5, 71, 78
7, 11670, Note_on_c, 5, 71, 0
7, 11670, Note_on_c, 5, 69, 80
7, 11700, Note_on_c, 5, 69, 0
7, 11700, Control_c, 5, 7, 127
7, 11700, Note_on_c, 5, 69, 64
7, 11730, Note_on_c, 5, 69, 0
7, 11730, Note_on_c, 5, 57, 64
7, 11760, Note_on_c, 5, 57, 0
7, 11760, Note_on_c, 5, 61, 64
7, 11790, Note_on_c, 5, 61, 0
7, 11790, Note_on_c, 5, 64, 64
7, 11820, Note_on_c, 5, 64, 0
7, 11820, Note_on_c, 5, 61, 64
7, 11850, Note_on_c, 5, 61, 0
7, 11850, Note_on_c, 5, 57, 64
7, 11880, Note_on_c, 5, 57, 0
7, 11880, Note_on_c, 5, 64, 64
7, 11915, Note_on_c, 5, 64, 0
7, 12090, Note_on_c, 5, 57, 64
7, 12120, Note_on_c, 5, 57, 0
7, 12120, Note_on_c, 5, 61, 64
7, 12150, Note_on_c, 5, 61, 0
7, 12150, Note_on_c, 5, 64, 64
7, 12180, Note_on_c, 5, 64, 0
7, 12180, Note_on_c, 5, 61, 64
7, 12210, Note_on_c, 5, 61, 0
7, 12210, Note_on_c, 5, 57, 64
7, 12240, Note_on_c, 5, 57, 0
7, 12240, Note_on_c, 5, 64, 64
7, 12275, Note_on_c, 5, 64, 0
7, 12420, Control_c, 5, 7, 75
7, 12480, Note_on_c, 5, 76, 41
7, 12660, Note_on_c, 5, 76, 0
7, 12660, Note_on_c, 5, 75, 45
7, 12690, Note_on_c, 5, 75, 0
7, 12690, Note_on_c, 5, 76, 46
7, 12720, Note_on_c, 5, 76, 0
7, 12720, Note_on_c, 5, 73, 46
7, 12750, Note_on_c, 5, 73, 0
7, 12750, Note_on_c, 5, 75, 47
7, 12780, Note_on_c, 5, 75, 0
7, 12780, Note_on_c, 5, 76, 48
7, 12810, Note_on_c, 5, 76, 0
7, 12810, Note_on_c, 5, 64, 48
7, 12840, Note_on_c, 5, 64, 0
7, 12840, Note_on_c, 5, 67, 49
7, 12870, Note_on_c, 5, 67, 0
7, 12870, Note_on_c, 5, 71, 49
7, 12900, Note_on_c, 5, 71, 0
7, 12900, Note_on_c, 5, 67, 50
7, 12930, Note_on_c, 5, 67, 0
7, 12930, Note_on_c, 5, 64, 51
7, 12960, Note_on_c, 5, 64, 0
7, 12960, Note_on_c, 5, 76, 51
7, 12995, Note_on_c, 5, 76, 0
7, 13860, Control_c, 5, 7, 127
7, 13890, Note_on_c, 5, 62, 50
7, 13920, Note_on_c, 5, 62, 0
7, 13920, Note_on_c, 5, 66, 50
7, 13950, Note_on_c, 5, 66, 0
7, 13950, Note_on_c, 5, 69, 50
7, 13980, Note_on_c, 5, 69, 0
7, 13980, Note_on_c, 5, 66, 50
7, 14010, Note_on_c, 5, 66, 0
7, 14010, Note_on_c, 5, 62, 50
7, 14040, Note_on_c, 5, 62, 0
7, 14040, Note_on_c, 5, 69, 50
7, 14250, Note_on_c, 5, 69, 0
7, 14250, Note_on_c, 5, 62, 50
7, 14280, Note_on_c, 5, 62, 0
7, 14280, Note_on_c, 5, 66, 50
7, 14310, Note_on_c, 5, 66, 0
7, 14310, Note_on_c, 5, 69, 50
7, 14340, Note_on_c, 5, 69, 0
7, 14340, Note_on_c, 5, 66, 50
7, 14370, Note_on_c, 5, 66, 0
7, 14370, Note_on_c, 5, 62, 50
7, 14400, Note_on_c, 5, 62, 0
7, 14400, Note_on_c, 5, 69, 50
7, 14610, Note_on_c, 5, 69, 0
7, 14610, Note_on_c, 5, 69, 64
7, 14640, Note_on_c, 5, 69, 0
7, 14640, Note_on_c, 5, 74, 64
7, 14670, Note_on_c, 5, 74, 0
7, 14670, Note_on_c, 5, 78, 64
7, 14700, Note_on_c, 5, 78, 0
7, 14700, Note_on_c, 5, 81, 64
7, 14730, Note_on_c, 5, 81, 0
7, 14730, Note_on_c, 5, 73, 64
7, 14760, Note_on_c, 5, 73, 0
7, 14760, Note_on_c, 5, 74, 64
7, 14790, Note_on_c, 5, 74, 0
7, 14790, Note_on_c, 5, 78, 64
7, 14820, Note_on_c, 5, 78, 0
7, 14820, Note_on_c, 5, 83, 64
7, 14850, Note_on_c, 5, 83, 0
7, 14850, Note_on_c, 5, 81, 64
7, 14880, Note_on_c, 5, 81, 0
7, 14880, Note_on_c, 5, 79, 64
7, 14910, Note_on_c, 5, 79, 0
7, 14910, Note_on_c, 5, 78, 64
7, 14940, Note_on_c, 5, 78, 0
7, 14940, Note_on_c, 5, 76, 64
7, 14975, Note_on_c, 5, 76, 0
7, 15150, Note_on_c, 5, 62, 64
7, 15180, Note_on_c, 5, 62, 0
7, 15180, Note_on_c, 5, 66, 64
7, 15210, Note_on_c, 5, 66, 0
7, 15210, Note_on_c, 5, 69, 64
7, 15240, Note_on_c, 5, 69, 0
7, 15240, Note_on_c, 5, 66, 64
7, 15270, Note_on_c, 5, 66, 0
7, 15270, Note_on_c, 5, 62, 64
7, 15300, Note_on_c, 5, 62, 0
7, 15300, Control_c, 5, 7, 75
7, 15300, Note_on_c, 5, 69, 50
7, 15330, Note_on_c, 5, 69, 0
7, 15330, Note_on_c, 5, 69, 51
7, 15360, Note_on_c, 5, 69, 0
7, 15360, Note_on_c, 5, 73, 52
7, 15390, Note_on_c, 5, 73, 0
7, 15390, Note_on_c, 5, 76, 53
7, 15420, Note_on_c, 5, 76, 0
7, 15420, Note_on_c, 5, 73, 53
7, 15450, Note_on_c, 5, 73, 0
7, 15450, Note_on_c, 5, 69, 54
7, 15480, Note_on_c, 5, 69, 0
7, 15480, Note_on_c, 5, 81, 55
7, 15690, Note_on_c, 5, 81, 0
7, 15690, Note_on_c, 5, 71, 61
7, 15720, Note_on_c, 5, 71, 0
7, 15720, Note_on_c, 5, 75, 62
7, 15750, Note_on_c, 5, 75, 0
7, 15750, Note_on_c, 5, 78, 63
7, 15780, Note_on_c, 5, 78, 0
7, 15780, Note_on_c, 5, 75, 63
7, 15810, Note_on_c, 5, 75, 0
7, 15810, Note_on_c, 5, 71, 64
7, 15840, Note_on_c, 5, 71, 0
7, 15840, Note_on_c, 5, 83, 65
7, 15870, Note_on_c, 5, 83, 0
7, 15870, Note_on_c, 5, 84, 66
7, 15900, Note_on_c, 5, 84, 0
7, 15900, Note_on_c, 5, 83, 67
7, 15930, Note_on_c, 5, 83, 0
7, 15930, Note_on_c, 5, 81, 68
7, 15960, Note_on_c, 5, 81, 0
7, 15960, Note_on_c, 5, 79, 68
7, 15990, Note_on_c, 5, 79, 0
7, 15990, Note_on_c, 5, 78, 69
7, 16020, Note_on_c, 5, 78, 0
7, 16020, Note_on_c, 5, 79, 50
7, 16050, Note_on_c, 5, 79, 0
7, 16050, Note_on_c, 5, 71, 51
7, 16080, Note_on_c, 5, 71, 0
7, 16080, Note_on_c, 5, 76, 52
7, 16110, Note_on_c, 5, 76, 0
7, 16110, Note_on_c, 5, 79, 53
7, 16140, Note_on_c, 5, 79, 0
7, 16140, Note_on_c, 5, 76, 53
7, 16170, Note_on_c, 5, 76, 0
7, 16170, Note_on_c, 5, 71, 54
7, 16200, Note_on_c, 5, 71, 0
7, 16200, Note_on_c, 5, 79, 55
7, 16410, Note_on_c, 5, 79, 0
7, 16410, Note_on_c, 5, 69, 61
7, 16440, Note_on_c, 5, 69, 0
7, 16440, Note_on_c, 5, 73, 62
7, 16470, Note_on_c, 5, 73, 0
7, 16470, Note_on_c, 5, 76, 63
7, 16500, Note_on_c, 5, 76, 0
7, 16500, Note_on_c, 5, 73, 63
7, 16530, Note_on_c, 5, 73, 0
7, 16530, Note_on_c, 5, 69, 64
7, 16560, Note_on_c, 5, 69, 0
7, 16560, Note_on_c, 5, 81, 65
7, 16590, Note_on_c, 5, 81, 0
7, 16590, Note_on_c, 5, 83, 66
7, 16620, Note_on_c, 5, 83, 0
7, 16620, Note_on_c, 5, 81, 67
7, 16650, Note_on_c, 5, 81, 0
7, 16650, Note_on_c, 5, 79, 68
7, 16680, Note_on_c, 5, 79, 0
7, 16680, Note_on_c, 5, 78, 68
7, 16710, Note_on_c, 5, 78, 0
7, 16710, Note_on_c, 5, 76, 69
7, 16740, Note_on_c, 5, 76, 0
7, 16740, Control_c, 5, 7, 75
7, 16740, Note_on_c, 5, 78, 64
7, 16770, Note_on_c, 5, 78, 0
7, 16770, Note_on_c, 5, 74, 64
7, 16800, Note_on_c, 5, 74, 0
7, 16800, Note_on_c, 5, 78, 65
7, 16830, Note_on_c, 5, 78, 0
7, 16830, Note_on_c, 5, 81, 65
7, 16860, Note_on_c, 5, 81, 0
7, 16860, Note_on_c, 5, 86, 65
7, 16890, Note_on_c, 5, 86, 0
7, 16890, Note_on_c, 5, 78, 66
7, 16920, Note_on_c, 5, 78, 0
7, 16920, Note_on_c, 5, 76, 66
7, 16950, Note_on_c, 5, 76, 0
7, 16950, Note_on_c, 5, 86, 66
7, 16980, Note_on_c, 5, 86, 0
7, 16980, Note_on_c, 5, 85, 67
7, 17010, Note_on_c, 5, 85, 0
7, 17010, Note_on_c, 5, 83, 67
7, 17040, Note_on_c, 5, 83, 0
7, 17040, Note_on_c, 5, 85, 67
7, 17070, Note_on_c, 5, 85, 0
7, 17070, Note_on_c, 5, 76, 68
7, 17100, Note_on_c, 5, 76, 0
7, 17100, Note_on_c, 5, 74, 68
7, 17130, Note_on_c, 5, 74, 0
7, 17130, Note_on_c, 5, 71, 68
7, 17160, Note_on_c, 5, 71, 0
7, 17160, Note_on_c, 5, 74, 69
7, 17190, Note_on_c, 5, 74, 0
7, 17190, Note_on_c, 5, 78, 69
7, 17220, Note_on_c, 5, 78, 0
7, 17220, Note_on_c, 5, 83, 69
7, 17250, Note_on_c, 5, 83, 0
7, 17250, Note_on_c, 5, 74, 70
7, 17280, Note_on_c, 5, 74, 0
7, 17280, Note_on_c, 5, 73, 70
7, 17310, Note_on_c, 5, 73, 0
7, 17310, Note_on_c, 5, 83, 70
7, 17340, Note_on_c, 5, 83, 0
7, 17340, Note_on_c, 5, 81, 71
7, 17370, Note_on_c, 5, 81, 0
7, 17370, Note_on_c, 5, 79, 71
7, 17400, Note_on_c, 5, 79, 0
7, 17400, Note_on_c, 5, 81, 71
7, 17430, Note_on_c, 5, 81, 0
7, 17430, Note_on_c, 5, 72, 72
7, 17460, Note_on_c, 5, 72, 0
7, 17460, Note_on_c, 5, 71, 72
7, 17490, Note_on_c, 5, 71, 0
7, 17490, Note_on_c, 5, 67, 72
7, 17520, Note_on_c, 5, 67, 0
7, 17520, Note_on_c, 5, 71, 73
7, 17550, Note_on_c, 5, 71, 0
7, 17550, Note_on_c, 5, 74, 73
7, 17580, Note_on_c, 5, 74, 0
7, 17580, Note_on_c, 5, 79, 73
7, 17610, Note_on_c, 5, 79, 0
7, 17610, Note_on_c, 5, 71, 74
7, 17640, Note_on_c, 5, 71, 0
7, 17640, Note_on_c, 5, 69, 74
7, 17670, Note_on_c, 5, 69, 0
7, 17670, Note_on_c, 5, 79, 74
7, 17700, Note_on_c, 5, 79, 0
7, 17700, Note_on_c, 5, 78, 75
7, 17730, Note_on_c, 5, 78, 0
7, 17730, Note_on_c, 5, 76, 75
7, 17760, Note_on_c, 5, 76, 0
7, 17760, Note_on_c, 5, 78, 75
7, 17790, Note_on_c, 5, 78, 0
7, 17790, Note_on_c, 5, 69, 76
7, 17820, Note_on_c, 5, 69, 0
7, 17820, Note_on_c, 5, 71, 76
7, 17850, Note_on_c, 5, 71, 0
7, 17850, Note_on_c, 5, 69, 76
7, 17880, Note_on_c, 5, 69, 0
7, 17880, Note_on_c, 5, 67, 77
7, 17910, Note_on_c, 5, 67, 0
7, 17910, Note_on_c, 5, 66, 77
7, 17940, Note_on_c, 5, 66, 0
7, 17940, Note_on_c, 5, 64, 77
7, 17970, Note_on_c, 5, 64, 0
7, 17970, Note_on_c, 5, 73, 78
7, 18000, Note_on_c, 5, 73, 0
7, 18000, Note_on_c, 5, 74, 78
7, 18030, Note_on_c, 5, 74, 0
7, 18030, Note_on_c, 5, 76, 78
7, 18060, Note_on_c, 5, 76, 0
7, 18060, Note_on_c, 5, 73, 79
7, 18150, Note_on_c, 5, 73, 0
7, 18150, Note_on_c, 5, 74, 80
7, 18180, Note_on_c, 5, 74, 0
7, 18180, Note_on_c, 5, 74, 100
7, 18300, Note_on_c, 5, 74, 0
7, 18840, Note_on_c, 5, 62, 33
7, 18960, Note_on_c, 5, 62, 0
7, 18960, Note_on_c, 5, 64, 35
7, 18995, Note_on_c, 5, 64, 0
7, 19020, Note_on_c, 5, 64, 36
7, 19080, Note_on_c, 5, 64, 0
7, 19080, Note_on_c, 5, 65, 37
7, 19115, Note_on_c, 5, 65, 0
7, 19140, Note_on_c, 5, 65, 39
7, 19200, Note_on_c, 5, 65, 0
7, 19200, Note_on_c, 5, 64, 40
7, 19235, Note_on_c, 5, 64, 0
7, 19260, Note_on_c, 5, 65, 41
7, 19320, Note_on_c, 5, 65, 0
7, 19320, Note_on_c, 5, 67, 42
7, 19355, Note_on_c, 5, 67, 0
7, 19380, Note_on_c, 5, 64, 43
7, 19440, Note_on_c, 5, 64, 0
7, 19440, Note_on_c, 5, 60, 44
7, 19475, Note_on_c, 5, 60, 0
7, 19500, Note_on_c, 5, 60, 45
7, 19560, Note_on_c, 5, 60, 0
7, 19560, Note_on_c, 5, 62, 46
7, 19595, Note_on_c, 5, 62, 0
7, 19620, Note_on_c, 5, 62, 47
7, 19680, Note_on_c, 5, 62, 0
7, 19680, Note_on_c, 5, 60, 48
7, 19715, Note_on_c, 5, 60, 0
7, 19740, Note_on_c, 5, 62, 49
7, 19800, Note_on_c, 5, 62, 0
7, 19800, Note_on_c, 5, 64, 50
7, 19835, Note_on_c, 5, 64, 0
7, 19860, Note_on_c, 5, 66, 51
7, 19920, Note_on_c, 5, 66, 0
7, 19920, Note_on_c, 5, 74, 52
7, 19955, Note_on_c, 5, 74, 0
7, 19980, Note_on_c, 5, 74, 53
7, 20040, Note_on_c, 5, 74, 0
7, 20040, Note_on_c, 5, 72, 54
7, 20075, Note_on_c, 5, 72, 0
7, 20100, Note_on_c, 5, 72, 56
7, 20160, Note_on_c, 5, 72, 0
7, 20160, Note_on_c, 5, 71, 57
7, 20195, Note_on_c, 5, 71, 0
7, 20220, Note_on_c, 5, 72, 58
7, 20280, Note_on_c, 5, 72, 0
7, 20280, Note_on_c, 5, 74, 59
7, 20315, Note_on_c, 5, 74, 0
7, 20340, Note_on_c, 5, 71, 60
7, 20460, Note_on_c, 5, 71, 0
7, 20460, Note_on_c, 5, 76, 62
7, 20700, Note_on_c, 5, 76, 0
7, 20700, Note_on_c, 5, 75, 64
7, 20820, Note_on_c, 5, 75, 0
7, 20820, Note_on_c, 5, 76, 64
7, 21120, Note_on_c, 5, 76, 0
7, 21120, Note_on_c, 5, 75, 64
7, 21155, Note_on_c, 5, 75, 0
7, 21180, Note_on_c, 5, 75, 64
7, 21300, Note_on_c, 5, 75, 0
7, 21300, Note_on_c, 5, 72, 64
7, 21420, Note_on_c, 5, 72, 0
7, 21420, Note_on_c, 5, 71, 64
7, 21540, Note_on_c, 5, 71, 0
7, 21540, Note_on_c, 5, 69, 64
7, 21720, Note_on_c, 5, 69, 0
7, 21720, Note_on_c, 5, 66, 65
7, 21780, Note_on_c, 5, 66, 0
7, 21780, Note_on_c, 5, 67, 66
7, 22020, Note_on_c, 5, 67, 0
7, 22020, Note_on_c, 5, 66, 67
7, 22260, Note_on_c, 5, 66, 0
7, 22260, Note_on_c, 5, 67, 69
7, 22380, Note_on_c, 5, 67, 0
7, 22380, Note_on_c, 5, 66, 69
7, 22440, Note_on_c, 5, 66, 0
7, 22440, Note_on_c, 5, 64, 70
7, 22500, Note_on_c, 5, 64, 0
7, 22500, Note_on_c, 5, 72, 64
7, 22740, Note_on_c, 5, 72, 0
7, 22740, Note_on_c, 5, 66, 64
7, 22860, Note_on_c, 5, 66, 0
7, 22920, Note_on_c, 5, 66, 64
7, 22980, Note_on_c, 5, 66, 0
7, 22980, Note_on_c, 5, 67, 64
7, 23100, Note_on_c, 5, 67, 0
7, 23100, Note_on_c, 5, 69, 67
7, 23220, Note_on_c, 5, 69, 0
7, 23220, Note_on_c, 5, 71, 70
7, 23460, Note_on_c, 5, 71, 0
7, 23460, Note_on_c, 5, 72, 75
7, 23580, Note_on_c, 5, 72, 0
7, 23580, Note_on_c, 5, 67, 75
7, 23640, Note_on_c, 5, 67, 0
7, 23640, Note_on_c, 5, 79, 75
7, 23700, Note_on_c, 5, 79, 0
7, 23700, Note_on_c, 5, 78, 75
7, 23760, Note_on_c, 5, 78, 0
7, 23760, Note_on_c, 5, 76, 75
7, 23790, Note_on_c, 5, 76, 0
7, 23790, Note_on_c, 5, 75, 75
7, 23820, Note_on_c, 5, 75, 0
7, 23820, Note_on_c, 5, 76, 75
7, 23880, Note_on_c, 5, 76, 0
7, 23880, Note_on_c, 5, 69, 75
7, 23940, Note_on_c, 5, 69, 0
7, 23940, Note_on_c, 5, 67, 67
7, 24060, Note_on_c, 5, 67, 0
7, 24060, Note_on_c, 5, 66, 60
7, 24120, Note_on_c, 5, 66, 0
7, 24120, Note_on_c, 5, 71, 57
7, 24240, Note_on_c, 5, 71, 0
7, 24240, Note_on_c, 5, 72, 50
7, 24275, Note_on_c, 5, 72, 0
7, 24300, Note_on_c, 5, 72, 47
7, 24360, Note_on_c, 5, 72, 0
7, 24360, Note_on_c, 5, 74, 43
7, 24395, Note_on_c, 5, 74, 0
7, 24420, Note_on_c, 5, 74, 40
7, 24480, Note_on_c, 5, 74, 0
7, 24480, Note_on_c, 5, 72, 40
7, 24515, Note_on_c, 5, 72, 0
7, 24540, Note_on_c, 5, 74, 41
7, 24600, Note_on_c, 5, 74, 0
7, 24600, Note_on_c, 5, 76, 41
7, 24635, Note_on_c, 5, 76, 0
7, 24660, Note_on_c, 5, 72, 42
7, 24720, Note_on_c, 5, 72, 0
7, 24720, Note_on_c, 5, 69, 42
7, 24755, Note_on_c, 5, 69, 0
7, 24780, Note_on_c, 5, 69, 43
7, 24840, Note_on_c, 5, 69, 0
7, 24840, Note_on_c, 5, 71, 43
7, 24875, Note_on_c, 5, 71, 0
7, 24900, Note_on_c, 5, 71, 43
7, 24960, Note_on_c, 5, 71, 0
7, 24960, Note_on_c, 5, 69, 44
7, 24995, Note_on_c, 5, 69, 0
7, 25020, Note_on_c, 5, 71, 44
7, 25080, Note_on_c, 5, 71, 0
7, 25080, Note_on_c, 5, 72, 45
7, 25115, Note_on_c, 5, 72, 0
7, 25140, Note_on_c, 5, 69, 45
7, 25200, Note_on_c, 5, 69, 0
7, 25200, Note_on_c, 5, 71, 46
7, 25235, Note_on_c, 5, 71, 0
7, 25260, Note_on_c, 5, 71, 46
7, 25320, Note_on_c, 5, 71, 0
7, 25320, Note_on_c, 5, 72, 46
7, 25355, Note_on_c, 5, 72, 0
7, 25380, Note_on_c, 5, 72, 47
7, 25440, Note_on_c, 5, 72, 0
7, 25440, Note_on_c, 5, 71, 47
7, 25475, Note_on_c, 5, 71, 0
7, 25500, Note_on_c, 5, 72, 48
7, 25560, Note_on_c, 5, 72, 0
7, 25560, Note_on_c, 5, 69, 48
7, 25595, Note_on_c, 5, 69, 0
7, 25620, Note_on_c, 5, 76, 49
7, 25680, Note_on_c, 5, 76, 0
7, 25680, Note_on_c, 5, 78, 49
7, 25715, Note_on_c, 5, 78, 0
7, 25740, Note_on_c, 5, 78, 49
7, 25800, Note_on_c, 5, 78, 0
7, 25800, Note_on_c, 5, 79, 50
7, 25835, Note_on_c, 5, 79, 0
7, 25860, Note_on_c, 5, 79, 50
7, 26100, Note_on_c, 5, 79, 0
7, 26100, Note_on_c, 5, 78, 52
7, 26220, Note_on_c, 5, 78, 0
7, 26280, Note_on_c, 5, 73, 53
7, 26340, Note_on_c, 5, 73, 0
7, 26340, Note_on_c, 5, 74, 54
7, 26460, Note_on_c, 5, 74, 0
7, 26460, Note_on_c, 5, 76, 55
7, 26580, Note_on_c, 5, 76, 0
7, 26580, Note_on_c, 5, 78, 55
7, 26820, Note_on_c, 5, 78, 0
7, 26820, Note_on_c, 5, 79, 57
7, 26880, Note_on_c, 5, 79, 0
7, 26880, Note_on_c, 5, 73, 58
7, 26915, Note_on_c, 5, 73, 0
7, 26940, Note_on_c, 5, 74, 58
7, 27000, Note_on_c, 5, 74, 0
7, 27000, Note_on_c, 5, 86, 58
7, 27060, Note_on_c, 5, 86, 0
7, 27060, Note_on_c, 5, 85, 59
7, 27120, Note_on_c, 5, 85, 0
7, 27120, Note_on_c, 5, 83, 59
7, 27150, Note_on_c, 5, 83, 0
7, 27150, Note_on_c, 5, 82, 60
7, 27180, Note_on_c, 5, 82, 0
7, 27180, Note_on_c, 5, 83, 60
7, 27240, Note_on_c, 5, 83, 0
7, 27240, Note_on_c, 5, 76, 60
7, 27300, Note_on_c, 5, 76, 0
7, 27300, Note_on_c, 5, 74, 61
7, 27420, Note_on_c, 5, 74, 0
7, 27420, Note_on_c, 5, 74, 61
7, 27435, Note_on_c, 5, 74, 0
7, 27435, Note_on_c, 5, 73, 62
7, 27450, Note_on_c, 5, 73, 0
7, 27450, Note_on_c, 5, 74, 62
7, 27465, Note_on_c, 5, 74, 0
7, 27465, Note_on_c, 5, 73, 62
7, 27480, Note_on_c, 5, 73, 0
7, 27480, Note_on_c, 5, 74, 62
7, 27495, Note_on_c, 5, 74, 0
7, 27495, Note_on_c, 5, 73, 62
7, 27510, Note_on_c, 5, 73, 0
7, 27510, Note_on_c, 5, 71, 62
7, 27525, Note_on_c, 5, 71, 0
7, 27525, Note_on_c, 5, 73, 62
7, 27540, Note_on_c, 5, 73, 0
7, 27540, Note_on_c, 5, 71, 64
7, 27600, Note_on_c, 5, 71, 0
7, 27600, Note_on_c, 5, 73, 53
7, 27635, Note_on_c, 5, 73, 0
7, 27660, Note_on_c, 5, 73, 41
7, 27720, Note_on_c, 5, 73, 0
7, 27720, Note_on_c, 5, 74, 30
7, 27755, Note_on_c, 5, 74, 0
7, 27780, Control_c, 5, 7, 20
7, 27780, Note_on_c, 5, 74, 64
7, 27785, Control_c, 5, 7, 60
7, 28860, Note_on_c, 5, 74, 0
7, 28860, Note_on_c, 5, 73, 64
7, 28980, Note_on_c, 5, 73, 0
7, 28980, Note_on_c, 5, 74, 64
7, 29015, Note_on_c, 5, 74, 0
7, 29100, Note_on_c, 5, 74, 64
7, 29135, Note_on_c, 5, 74, 0
7, 29220, Note_on_c, 5, 74, 64
7, 29255, Note_on_c, 5, 74, 0
7, 29340, Note_on_c, 5, 74, 64
7, 29375, Note_on_c, 5, 74, 0
7, 29460, Note_on_c, 5, 73, 64
7, 29495, Note_on_c, 5, 73, 0
7, 29580, Note_on_c, 5, 78, 64
7, 29615, Note_on_c, 5, 78, 0
7, 29700, Note_on_c, 5, 78, 64
7, 29735, Note_on_c, 5, 78, 0
7, 29820, Note_on_c, 5, 76, 64
7, 29855, Note_on_c, 5, 76, 0
7, 29940, Note_on_c, 5, 76, 64
7, 29975, Note_on_c, 5, 76, 0
7, 30060, Note_on_c, 5, 74, 64
7, 30095, Note_on_c, 5, 74, 0
7, 30180, Note_on_c, 5, 78, 64
7, 30215, Note_on_c, 5, 78, 0
7, 30300, Note_on_c, 5, 81, 64
7, 30335, Note_on_c, 5, 81, 0
7, 30420, Note_on_c, 5, 81, 64
7, 30455, Note_on_c, 5, 81, 0
7, 30540, Note_on_c, 5, 74, 64
7, 30575, Note_on_c, 5, 74, 0
7, 30660, Note_on_c, 5, 73, 64
7, 30695, Note_on_c, 5, 73, 0
7, 30780, Note_on_c, 5, 81, 64
7, 30815, Note_on_c, 5, 81, 0
7, 30900, Note_on_c, 5, 79, 64
7, 30935, Note_on_c, 5, 79, 0
7, 31020, Note_on_c, 5, 79, 64
7, 31055, Note_on_c, 5, 79, 0
7, 31140, Note_on_c, 5, 78, 64
7, 31175, Note_on_c, 5, 78, 0
7, 31260, Note_on_c, 5, 76, 64
7, 31295, Note_on_c, 5, 76, 0
7, 31380, Note_on_c, 5, 76, 64
7, 31415, Note_on_c, 5, 76, 0
7, 31500, Note_on_c, 5, 74, 64
7, 31535, Note_on_c, 5, 74, 0
7, 31620, Note_on_c, 5, 74, 64
7, 31655, Note_on_c, 5, 74, 0
7, 31740, Note_on_c, 5, 76, 64
7, 31775, Note_on_c, 5, 76, 0
7, 31860, Note_on_c, 5, 76, 64
7, 31895, Note_on_c, 5, 76, 0
7, 31980, Note_on_c, 5, 78, 64
7, 32015, Note_on_c, 5, 78, 0
7, 32100, Note_on_c, 5, 81, 64
7, 32135, Note_on_c, 5, 81, 0
7, 32220, Note_on_c, 5, 79, 64
7, 32255, Note_on_c, 5, 79, 0
7, 32340, Note_on_c, 5, 78, 64
7, 32375, Note_on_c, 5, 78, 0
7, 32460, Note_on_c, 5, 78, 64
7, 32495, Note_on_c, 5, 78, 0
7, 32580, Note_on_c, 5, 78, 64
7, 32615, Note_on_c, 5, 78, 0
7, 32700, Note_on_c, 5, 76, 64
7, 32735, Note_on_c, 5, 76, 0
7, 32820, Note_on_c, 5, 76, 64
7, 32855, Note_on_c, 5, 76, 0
7, 32940, Note_on_c, 5, 74, 64
7, 32975, Note_on_c, 5, 74, 0
7, 33060, Note_on_c, 5, 79, 64
7, 33095, Note_on_c, 5, 79, 0
7, 33180, Note_on_c, 5, 76, 64
7, 33215, Note_on_c, 5, 76, 0
7, 33300, Note_on_c, 5, 78, 64
7, 33335, Note_on_c, 5, 78, 0
7, 33420, Note_on_c, 5, 78, 64
7, 33455, Note_on_c, 5, 78, 0
7, 33540, Note_on_c, 5, 78, 64
7, 33575, Note_on_c, 5, 78, 0
7, 33660, Note_on_c, 5, 81, 64
7, 33695, Note_on_c, 5, 81, 0
7, 33780, Note_on_c, 5, 81, 64
7, 33815, Note_on_c, 5, 81, 0
7, 33900, Note_on_c, 5, 74, 64
7, 33935, Note_on_c, 5, 74, 0
7, 34020, Note_on_c, 5, 73, 64
7, 34055, Note_on_c, 5, 73, 0
7, 34140, Note_on_c, 5, 73, 64
7, 34175, Note_on_c, 5, 73, 0
7, 34260, Note_on_c, 5, 78, 64
7, 34295, Note_on_c, 5, 78, 0
7, 34380, Note_on_c, 5, 78, 64
7, 34415, Note_on_c, 5, 78, 0
7, 34500, Note_on_c, 5, 76, 64
7, 34535, Note_on_c, 5, 76, 0
7, 34620, Note_on_c, 5, 81, 64
7, 34655, Note_on_c, 5, 81, 0
7, 34740, Note_on_c, 5, 74, 64
7, 34775, Note_on_c, 5, 74, 0
7, 34860, Note_on_c, 5, 74, 64
7, 34895, Note_on_c, 5, 74, 0
7, 34980, Note_on_c, 5, 72, 64
7, 35015, Note_on_c, 5, 72, 0
7, 35100, Note_on_c, 5, 76, 64
7, 35135, Note_on_c, 5, 76, 0
7, 35220, Note_on_c, 5, 78, 64
7, 35255, Note_on_c, 5, 78, 0
7, 35340, Note_on_c, 5, 76, 64
7, 35375, Note_on_c, 5, 76, 0
7, 35460, Note_on_c, 5, 76, 64
7, 35495, Note_on_c, 5, 76, 0
7, 35580, Note_on_c, 5, 69, 64
7, 35615, Note_on_c, 5, 69, 0
7, 35700, Note_on_c, 5, 67, 64
7, 35735, Note_on_c, 5, 67, 0
7, 36207, Control_c, 5, 7, 127
7, 36240, Note_on_c, 5, 71, 50
7, 36300, Note_on_c, 5, 71, 0
7, 36300, Note_on_c, 5, 74, 50
7, 36360, Note_on_c, 5, 74, 0
7, 36360, Note_on_c, 5, 78, 50
7, 36420, Note_on_c, 5, 78, 0
7, 36420, Note_on_c, 5, 83, 50
7, 36480, Note_on_c, 5, 83, 0
7, 36480, Note_on_c, 5, 85, 50
7, 36510, Note_on_c, 5, 85, 0
7, 36510, Note_on_c, 5, 86, 50
7, 36540, Note_on_c, 5, 86, 0
7, 36540, Note_on_c, 5, 85, 50
7, 36570, Note_on_c, 5, 85, 0
7, 36570, Note_on_c, 5, 83, 50
7, 36600, Note_on_c, 5, 83, 0
7, 36600, Note_on_c, 5, 81, 50
7, 36630, Note_on_c, 5, 81, 0
7, 36630, Note_on_c, 5, 80, 50
7, 36660, Note_on_c, 5, 80, 0
7, 36660, Note_on_c, 5, 81, 50
7, 36695, Note_on_c, 5, 81, 0
7, 36720, Note_on_c, 5, 78, 50
7, 36755, Note_on_c, 5, 78, 0
7, 37080, Note_on_c, 5, 78, 69
7, 37140, Note_on_c, 5, 78, 0
7, 37140, Note_on_c, 5, 78, 69
7, 37200, Note_on_c, 5, 78, 0
7, 37200, Note_on_c, 5, 80, 70
7, 37235, Note_on_c, 5, 80, 0
7, 37260, Note_on_c, 5, 80, 70
7, 37320, Note_on_c, 5, 80, 0
7, 37320, Note_on_c, 5, 81, 71
7, 37355, Note_on_c, 5, 81, 0
7, 37380, Note_on_c, 5, 81, 71
7, 37440, Note_on_c, 5, 81, 0
7, 37440, Note_on_c, 5, 80, 71
7, 37475, Note_on_c, 5, 80, 0
7, 37500, Note_on_c, 5, 81, 72
7, 37560, Note_on_c, 5, 81, 0
7, 37560, Note_on_c, 5, 83, 72
7, 37595, Note_on_c, 5, 83, 0
7, 37620, Note_on_c, 5, 80, 73
7, 37740, Note_on_c, 5, 80, 0
7, 38040, Note_on_c, 5, 76, 76
7, 38100, Note_on_c, 5, 76, 0
7, 38100, Note_on_c, 5, 76, 76
7, 38160, Note_on_c, 5, 76, 0
7, 38160, Note_on_c, 5, 78, 77
7, 38195, Note_on_c, 5, 78, 0
7, 38220, Note_on_c, 5, 78, 77
7, 38280, Note_on_c, 5, 78, 0
7, 38280, Note_on_c, 5, 79, 78
7, 38315, Note_on_c, 5, 79, 0
7, 38340, Note_on_c, 5, 79, 64
7, 38400, Note_on_c, 5, 79, 0
7, 38400, Note_on_c, 5, 78, 64
7, 38435, Note_on_c, 5, 78, 0
7, 38460, Note_on_c, 5, 79, 65
7, 38520, Note_on_c, 5, 79, 0
7, 38520, Note_on_c, 5, 81, 65
7, 38555, Note_on_c, 5, 81, 0
7, 38580, Note_on_c, 5, 78, 65
7, 38640, Note_on_c, 5, 78, 0
7, 38640, Note_on_c, 5, 79, 65
7, 38675, Note_on_c, 5, 79, 0
7, 38700, Note_on_c, 5, 79, 66
7, 38760, Note_on_c, 5, 79, 0
7, 38760, Note_on_c, 5, 81, 66
7, 38795, Note_on_c, 5, 81, 0
7, 38820, Note_on_c, 5, 81, 66
7, 38880, Note_on_c, 5, 81, 0
7, 38880, Note_on_c, 5, 79, 66
7, 38915, Note_on_c, 5, 79, 0
7, 38940, Note_on_c, 5, 81, 67
7, 39000, Note_on_c, 5, 81, 0
7, 39000, Note_on_c, 5, 83, 67
7, 39035, Note_on_c, 5, 83, 0
7, 39060, Note_on_c, 5, 79, 67
7, 39120, Note_on_c, 5, 79, 0
7, 39120, Note_on_c, 5, 78, 67
7, 39180, Note_on_c, 5, 78, 0
7, 39180, Note_on_c, 5, 76, 68
7, 39240, Note_on_c, 5, 76, 0
7, 39240, Note_on_c, 5, 78, 68
7, 39270, Note_on_c, 5, 78, 0
7, 39270, Note_on_c, 5, 79, 68
7, 39300, Note_on_c, 5, 79, 0
7, 39300, Note_on_c, 5, 73, 68
7, 39360, Note_on_c, 5, 73, 0
7, 39360, Note_on_c, 5, 74, 68
7, 39390, Note_on_c, 5, 74, 0
7, 39390, Note_on_c, 5, 76, 68
7, 39420, Note_on_c, 5, 76, 0
7, 39420, Note_on_c, 5, 74, 69
7, 39600, Note_on_c, 5, 74, 0
7, 39600, Note_on_c, 5, 76, 69
7, 39630, Note_on_c, 5, 76, 0
7, 39630, Note_on_c, 5, 78, 69
7, 39660, Note_on_c, 5, 78, 0
7, 39660, Note_on_c, 5, 69, 70
7, 39720, Note_on_c, 5, 69, 0
7, 39720, Note_on_c, 5, 73, 70
7, 39780, Note_on_c, 5, 73, 0
7, 39780, Note_on_c, 5, 74, 64
7, 39815, Note_on_c, 5, 74, 0
7, 39840, Note_on_c, 5, 62, 64
7, 39900, Note_on_c, 5, 62, 0
7, 39900, Note_on_c, 5, 66, 64
7, 39960, Note_on_c, 5, 66, 0
7, 39960, Note_on_c, 5, 69, 64
7, 40020, Note_on_c, 5, 69, 0
7, 40020, Note_on_c, 5, 74, 64
7, 40080, Note_on_c, 5, 74, 0
7, 40080, Note_on_c, 5, 76, 64
7, 40110, Note_on_c, 5, 76, 0
7, 40110, Note_on_c, 5, 78, 64
7, 40140, Note_on_c, 5, 78, 0
7, 40140, Note_on_c, 5, 76, 64
7, 40170, Note_on_c, 5, 76, 0
7, 40170, Note_on_c, 5, 74, 64
7, 40200, Note_on_c, 5, 74, 0
7, 40200, Note_on_c, 5, 73, 64
7, 40230, Note_on_c, 5, 73, 0
7, 40230, Note_on_c, 5, 71, 64
7, 40260, Note_on_c, 5, 71, 0
7, 40260, Note_on_c, 5, 73, 64
7, 40290, Note_on_c, 5, 73, 0
7, 40290, Note_on_c, 5, 76, 64
7, 40320, Note_on_c, 5, 76, 0
7, 40320, Note_on_c, 5, 81, 64
7, 40350, Note_on_c, 5, 81, 0
7, 40350, Note_on_c, 5, 79, 64
7, 40380, Note_on_c, 5, 79, 0
7, 40380, Note_on_c, 5, 78, 64
7, 40410, Note_on_c, 5, 78, 0
7, 40410, Note_on_c, 5, 76, 64
7, 40440, Note_on_c, 5, 76, 0
7, 40440, Note_on_c, 5, 74, 64
7, 40470, Note_on_c, 5, 74, 0
7, 40470, Note_on_c, 5, 73, 64
7, 40500, Note_on_c, 5, 73, 0
7, 40500, Note_on_c, 5, 71, 64
7, 40530, Note_on_c, 5, 71, 0
7, 40530, Note_on_c, 5, 74, 64
7, 40560, Note_on_c, 5, 74, 0
7, 40560, Note_on_c, 5, 79, 64
7, 40590, Note_on_c, 5, 79, 0
7, 40590, Note_on_c, 5, 78, 64
7, 40620, Note_on_c, 5, 78, 0
7, 40620, Note_on_c, 5, 76, 64
7, 40650, Note_on_c, 5, 76, 0
7, 40650, Note_on_c, 5, 74, 64
7, 40680, Note_on_c, 5, 74, 0
7, 40680, Note_on_c, 5, 73, 64
7, 40710, Note_on_c, 5, 73, 0
7, 40710, Note_on_c, 5, 71, 64
7, 40740, Note_on_c, 5, 71, 0
7, 40740, Note_on_c, 5, 69, 64
7, 40770, Note_on_c, 5, 69, 0
7, 40770, Note_on_c, 5, 73, 64
7, 40800, Note_on_c, 5, 73, 0
7, 40800, Note_on_c, 5, 74, 64
7, 40830, Note_on_c, 5, 74, 0
7, 40830, Note_on_c, 5, 76, 64
7, 40860, Note_on_c, 5, 76, 0
7, 40860, Note_on_c, 5, 78, 64
7, 40890, Note_on_c, 5, 78, 0
7, 40890, Note_on_c, 5, 79, 64
7, 40920, Note_on_c, 5, 79, 0
7, 40920, Note_on_c, 5, 78, 64
7, 40950, Note_on_c, 5, 78, 0
7, 40950, Note_on_c, 5, 76, 64
7, 40980, Note_on_c, 5, 76, 0
7, 40980, Note_on_c, 5, 74, 64
7, 41010, Note_on_c, 5, 74, 0
7, 41010, Note_on_c, 5, 73, 64
7, 41040, Note_on_c, 5, 73, 0
7, 41040, Note_on_c, 5, 71, 64
7, 41070, Note_on_c, 5, 71, 0
7, 41070, Note_on_c, 5, 74, 64
7, 41100, Note_on_c, 5, 74, 0
7, 41100, Note_on_c, 5, 73, 64
7, 41130, Note_on_c, 5, 73, 0
7, 41130, Note_on_c, 5, 71, 64
7, 41160, Note_on_c, 5, 71, 0
7, 41160, Note_on_c, 5, 69, 64
7, 41190, Note_on_c, 5, 69, 0
7, 41190, Note_on_c, 5, 68, 64
7, 41220, Note_on_c, 5, 68, 0
7, 41220, Note_on_c, 5, 76, 64
7, 41280, Note_on_c, 5, 76, 0
7, 41280, Note_on_c, 5, 69, 64
7, 41400, Note_on_c, 5, 69, 0
7, 41400, Note_on_c, 5, 68, 64
7, 41460, Note_on_c, 5, 68, 0
7, 41460, Note_on_c, 5, 69, 64
7, 41495, Note_on_c, 5, 69, 0
7, 41520, Note_on_c, 5, 76, 64
7, 41580, Note_on_c, 5, 76, 0
7, 41580, Note_on_c, 5, 81, 64
7, 41640, Note_on_c, 5, 81, 0
7, 41640, Note_on_c, 5, 69, 64
7, 41700, Note_on_c, 5, 69, 0
7, 41700, Note_on_c, 5, 71, 64
7, 41760, Note_on_c, 5, 71, 0
7, 41760, Note_on_c, 5, 73, 64
7, 41790, Note_on_c, 5, 73, 0
7, 41790, Note_on_c, 5, 74, 64
7, 41820, Note_on_c, 5, 74, 0
7, 41820, Note_on_c, 5, 76, 64
7, 42000, Note_on_c, 5, 76, 0
7, 42000, Note_on_c, 5, 74, 64
7, 42035, Note_on_c, 5, 74, 0
7, 42060, Note_on_c, 5, 74, 64
7, 42120, Note_on_c, 5, 74, 0
7, 42120, Note_on_c, 5, 76, 64
7, 42210, Note_on_c, 5, 76, 0
7, 42210, Note_on_c, 5, 78, 64
7, 42240, Note_on_c, 5, 78, 0
7, 42240, Note_on_c, 5, 76, 64
7, 42270, Note_on_c, 5, 76, 0
7, 42270, Note_on_c, 5, 78, 64
7, 42300, Note_on_c, 5, 78, 0
7, 42300, Note_on_c, 5, 79, 64
7, 42315, Note_on_c, 5, 79, 0
7, 42315, Note_on_c, 5, 78, 64
7, 42330, Note_on_c, 5, 78, 0
7, 42330, Note_on_c, 5, 79, 64
7, 42345, Note_on_c, 5, 79, 0
7, 42345, Note_on_c, 5, 78, 64
7, 42360, Note_on_c, 5, 78, 0
7, 42360, Note_on_c, 5, 79, 64
7, 42375, Note_on_c, 5, 79, 0
7, 42375, Note_on_c, 5, 78, 64
7, 42390, Note_on_c, 5, 78, 0
7, 42390, Note_on_c, 5, 76, 64
7, 42405, Note_on_c, 5, 76, 0
7, 42405, Note_on_c, 5, 78, 64
7, 42420, Note_on_c, 5, 78, 0
7, 42420, Note_on_c, 5, 79, 64
7, 42540, Note_on_c, 5, 79, 0
7, 42600, Note_on_c, 5, 62, 64
7, 42660, Note_on_c, 5, 62, 0
7, 42660, Note_on_c, 5, 71, 64
7, 42720, Note_on_c, 5, 71, 0
7, 42720, Note_on_c, 5, 69, 64
7, 42755, Note_on_c, 5, 69, 0
7, 42780, Note_on_c, 5, 69, 64
7, 42840, Note_on_c, 5, 69, 0
7, 42840, Note_on_c, 5, 74, 64
7, 42960, Note_on_c, 5, 74, 0
7, 42960, Note_on_c, 5, 73, 64
7, 42990, Note_on_c, 5, 73, 0
7, 42990, Note_on_c, 5, 71, 64
7, 43020, Note_on_c, 5, 71, 0
7, 43020, Note_on_c, 5, 69, 64
7, 43080, Note_on_c, 5, 69, 0
7, 43080, Note_on_c, 5, 67, 64
7, 43140, Note_on_c, 5, 67, 0
7, 43140, Note_on_c, 5, 66, 64
7, 43170, Note_on_c, 5, 66, 0
7, 43170, Note_on_c, 5, 67, 64
7, 43200, Note_on_c, 5, 67, 0
7, 43200, Note_on_c, 5, 66, 64
7, 43230, Note_on_c, 5, 66, 0
7, 43230, Note_on_c, 5, 67, 64
7, 43260, Note_on_c, 5, 67, 0
7, 43260, Note_on_c, 5, 69, 64
7, 43440, Note_on_c, 5, 69, 0
7, 43440, Note_on_c, 5, 72, 64
7, 43470, Note_on_c, 5, 72, 0
7, 43470, Note_on_c, 5, 71, 64
7, 43500, Note_on_c, 5, 71, 0
7, 43500, Note_on_c, 5, 72, 64
7, 43560, Note_on_c, 5, 72, 0
7, 43560, Note_on_c, 5, 74, 64
7, 43620, Note_on_c, 5, 74, 0
7, 43620, Note_on_c, 5, 71, 64
7, 43680, Note_on_c, 5, 71, 0
7, 43680, Note_on_c, 5, 67, 50
7, 43715, Note_on_c, 5, 67, 0
7, 43800, Note_on_c, 5, 72, 64
7, 43860, Note_on_c, 5, 72, 0
7, 43860, Note_on_c, 5, 77, 64
7, 43980, Note_on_c, 5, 77, 0
7, 44040, Note_on_c, 5, 74, 64
7, 44100, Note_on_c, 5, 74, 0
7, 44100, Note_on_c, 5, 76, 64
7, 44220, Note_on_c, 5, 76, 0
7, 44280, Note_on_c, 5, 67, 64
7, 44340, Note_on_c, 5, 67, 0
7, 44340, Note_on_c, 5, 69, 64
7, 44370, Note_on_c, 5, 69, 0
7, 44370, Note_on_c, 5, 71, 64
7, 44400, Note_on_c, 5, 71, 0
7, 44400, Note_on_c, 5, 72, 64
7, 44430, Note_on_c, 5, 72, 0
7, 44430, Note_on_c, 5, 69, 64
7, 44460, Note_on_c, 5, 69, 0
7, 44460, Note_on_c, 5, 71, 64
7, 44520, Note_on_c, 5, 71, 0
7, 44520, Note_on_c, 5, 72, 64
7, 44580, Note_on_c, 5, 72, 0
7, 44580, Note_on_c, 5, 74, 64
7, 44855, Note_on_c, 5, 74, 0
7, 44880, Note_on_c, 5, 62, 67
7, 44940, Note_on_c, 5, 62, 0
7, 44940, Note_on_c, 5, 74, 67
7, 45120, Note_on_c, 5, 74, 0
7, 45120, Note_on_c, 5, 73, 69
7, 45150, Note_on_c, 5, 73, 0
7, 45150, Note_on_c, 5, 71, 69
7, 45180, Note_on_c, 5, 71, 0
7, 45180, Note_on_c, 5, 74, 69
7, 45195, Note_on_c, 5, 74, 0
7, 45195, Note_on_c, 5, 73, 69
7, 45210, Note_on_c, 5, 73, 0
7, 45210, Note_on_c, 5, 74, 69
7, 45225, Note_on_c, 5, 74, 0
7, 45225, Note_on_c, 5, 73, 69
7, 45240, Note_on_c, 5, 73, 0
7, 45240, Note_on_c, 5, 74, 70
7, 45255, Note_on_c, 5, 74, 0
7, 45255, Note_on_c, 5, 73, 70
7, 45270, Note_on_c, 5, 73, 0
7, 45270, Note_on_c, 5, 71, 70
7, 45285, Note_on_c, 5, 71, 0
7, 45285, Note_on_c, 5, 73, 70
7, 45300, Note_on_c, 5, 73, 0
7, 45300, Note_on_c, 5, 74, 70
7, 45840, Note_on_c, 5, 74, 0
7, 45840, Note_on_c, 5, 71, 75
7, 45900, Note_on_c, 5, 71, 0
7, 45900, Note_on_c, 5, 76, 75
7, 46080, Note_on_c, 5, 76, 0
7, 46080, Note_on_c, 5, 81, 77
7, 46110, Note_on_c, 5, 81, 0
7, 46110, Note_on_c, 5, 79, 77
7, 46140, Note_on_c, 5, 79, 0
7, 46140, Note_on_c, 5, 81, 77
7, 46200, Note_on_c, 5, 81, 0
7, 46200, Note_on_c, 5, 74, 78
7, 46320, Note_on_c, 5, 74, 0
7, 46320, Note_on_c, 5, 73, 79
7, 46350, Note_on_c, 5, 73, 0
7, 46350, Note_on_c, 5, 71, 79
7, 46380, Note_on_c, 5, 71, 0
7, 46380, Note_on_c, 5, 74, 79
7, 46395, Note_on_c, 5, 74, 0
7, 46395, Note_on_c, 5, 73, 79
7, 46410, Note_on_c, 5, 73, 0
7, 46410, Note_on_c, 5, 74, 79
7, 46425, Note_on_c, 5, 74, 0
7, 46425, Note_on_c, 5, 73, 79
7, 46440, Note_on_c, 5, 73, 0
7, 46440, Note_on_c, 5, 74, 80
7, 46455, Note_on_c, 5, 74, 0
7, 46455, Note_on_c, 5, 73, 80
7, 46470, Note_on_c, 5, 73, 0
7, 46470, Note_on_c, 5, 71, 80
7, 46485, Note_on_c, 5, 71, 0
7, 46485, Note_on_c, 5, 73, 80
7, 46500, Note_on_c, 5, 73, 0
7, 46500, Note_on_c, 5, 74, 64
7, 46620, Note_on_c, 5, 74, 0
7, 48360, Note_on_c, 5, 71, 45
7, 48480, Note_on_c, 5, 71, 0
7, 48480, Note_on_c, 5, 73, 49
7, 48515, Note_on_c, 5, 73, 0
7, 48540, Note_on_c, 5, 73, 51
7, 48600, Note_on_c, 5, 73, 0
7, 48600, Note_on_c, 5, 74, 53
7, 48635, Note_on_c, 5, 74, 0
7, 48660, Note_on_c, 5, 74, 55
7, 48720, Note_on_c, 5, 74, 0
7, 48720, Note_on_c, 5, 73, 57
7, 48755, Note_on_c, 5, 73, 0
7, 48780, Note_on_c, 5, 74, 59
7, 48840, Note_on_c, 5, 74, 0
7, 48840, Note_on_c, 5, 76, 61
7, 48875, Note_on_c, 5, 76, 0
7, 48900, Note_on_c, 5, 73, 63
7, 48935, Note_on_c, 5, 73, 0
7, 49020, Note_on_c, 5, 81, 68
7, 49055, Note_on_c, 5, 81, 0
7, 49140, Note_on_c, 5, 79, 72
7, 49175, Note_on_c, 5, 79, 0
7, 49260, Note_on_c, 5, 76, 76
7, 49295, Note_on_c, 5, 76, 0
7, 49380, Note_on_c, 5, 78, 80
7, 49415, Note_on_c, 5, 78, 0
7, 49560, Note_on_c, 5, 69, 81
7, 49595, Note_on_c, 5, 69, 0
7, 49620, Note_on_c, 5, 74, 81
7, 49655, Note_on_c, 5, 74, 0
7, 49800, Note_on_c, 5, 69, 82
7, 49835, Note_on_c, 5, 69, 0
7, 49860, Note_on_c, 5, 71, 83
7, 49895, Note_on_c, 5, 71, 0
7, 50280, Note_on_c, 5, 71, 85
7, 50315, Note_on_c, 5, 71, 0
7, 50340, Note_on_c, 5, 76, 85
7, 50375, Note_on_c, 5, 76, 0
7, 50520, Note_on_c, 5, 71, 86
7, 50555, Note_on_c, 5, 71, 0
7, 50580, Note_on_c, 5, 73, 86
7, 50615, Note_on_c, 5, 73, 0
7, 51000, Note_on_c, 5, 73, 88
7, 51035, Note_on_c, 5, 73, 0
7, 51060, Note_on_c, 5, 78, 89
7, 51095, Note_on_c, 5, 78, 0
7, 51240, Note_on_c, 5, 73, 90
7, 51275, Note_on_c, 5, 73, 0
7, 51300, Note_on_c, 5, 74, 80
7, 51360, Note_on_c, 5, 74, 0
7, 51360, Note_on_c, 5, 66, 81
7, 51420, Note_on_c, 5, 66, 0
7, 51420, Note_on_c, 5, 74, 81
7, 51900, Note_on_c, 5, 74, 0
7, 51900, Note_on_c, 5, 73, 87
7, 52140, Note_on_c, 5, 73, 0
7, 52140, Note_on_c, 5, 71, 90
7, 52200, Note_on_c, 5, 71, 0
7, 52200, Note_on_c, 5, 69, 91
7, 52260, Note_on_c, 5, 69, 0
7, 52260, Note_on_c, 5, 68, 91
7, 52320, Note_on_c, 5, 68, 0
7, 52320, Note_on_c, 5, 69, 92
7, 52350, Note_on_c, 5, 69, 0
7, 52350, Note_on_c, 5, 71, 93
7, 52380, Note_on_c, 5, 71, 0
7, 52380, Note_on_c, 5, 64, 93
7, 52440, Note_on_c, 5, 64, 0
7, 52440, Note_on_c, 5, 69, 94
7, 52560, Note_on_c, 5, 69, 0
7, 52560, Note_on_c, 5, 68, 95
7, 52590, Note_on_c, 5, 68, 0
7, 52590, Note_on_c, 5, 66, 95
7, 52620, Note_on_c, 5, 66, 0
7, 52620, Note_on_c, 5, 69, 96
7, 52635, Note_on_c, 5, 69, 0
7, 52635, Note_on_c, 5, 68, 96
7, 52650, Note_on_c, 5, 68, 0
7, 52650, Note_on_c, 5, 69, 96
7, 52665, Note_on_c, 5, 69, 0
7, 52665, Note_on_c, 5, 68, 96
7, 52680, Note_on_c, 5, 68, 0
7, 52680, Note_on_c, 5, 69, 96
7, 52695, Note_on_c, 5, 69, 0
7, 52695, Note_on_c, 5, 68, 97
7, 52710, Note_on_c, 5, 68, 0
7, 52710, Note_on_c, 5, 66, 97
7, 52725, Note_on_c, 5, 66, 0
7, 52725, Note_on_c, 5, 68, 97
7, 52740, Note_on_c, 5, 68, 0
7, 52740, Note_on_c, 5, 69, 97
7, 52770, Note_on_c, 5, 69, 0
7, 52770, Note_on_c, 5, 71, 98
7, 52800, Note_on_c, 5, 71, 0
7, 52800, Note_on_c, 5, 73, 98
7, 52830, Note_on_c, 5, 73, 0
7, 52830, Note_on_c, 5, 74, 98
7, 52860, Note_on_c, 5, 74, 0
7, 52860, Note_on_c, 5, 76, 99
7, 52890, Note_on_c, 5, 76, 0
7, 52890, Note_on_c, 5, 78, 99
7, 52920, Note_on_c, 5, 78, 0
7, 52920, Note_on_c, 5, 79, 99
7, 52950, Note_on_c, 5, 79, 0
7, 52950, Note_on_c, 5, 81, 100
7, 52980, Note_on_c, 5, 81, 0
7, 52980, Note_on_c, 5, 79, 100
7, 53010, Note_on_c, 5, 79, 0
7, 53010, Note_on_c, 5, 71, 100
7, 53040, Note_on_c, 5, 71, 0
7, 53040, Note_on_c, 5, 73, 101
7, 53070, Note_on_c, 5, 73, 0
7, 53070, Note_on_c, 5, 74, 101
7, 53100, Note_on_c, 5, 74, 0
7, 53100, Note_on_c, 5, 76, 101
7, 53280, Note_on_c, 5, 76, 0
7, 53280, Note_on_c, 5, 74, 104
7, 53400, Note_on_c, 5, 74, 0
7, 53400, Note_on_c, 5, 76, 105
7, 53550, Note_on_c, 5, 76, 0
7, 53550, Note_on_c, 5, 78, 107
7, 53580, Note_on_c, 5, 78, 0
7, 53580, Note_on_c, 5, 79, 107
7, 53595, Note_on_c, 5, 79, 0
7, 53595, Note_on_c, 5, 78, 107
7, 53610, Note_on_c, 5, 78, 0
7, 53610, Note_on_c, 5, 79, 108
7, 53625, Note_on_c, 5, 79, 0
7, 53625, Note_on_c, 5, 78, 108
7, 53640, Note_on_c, 5, 78, 0
7, 53640, Note_on_c, 5, 79, 108
7, 53655, Note_on_c, 5, 79, 0
7, 53655, Note_on_c, 5, 78, 108
7, 53670, Note_on_c, 5, 78, 0
7, 53670, Note_on_c, 5, 76, 108
7, 53685, Note_on_c, 5, 76, 0
7, 53685, Note_on_c, 5, 78, 108
7, 53700, Note_on_c, 5, 78, 0
7, 53700, Note_on_c, 5, 79, 109
7, 53760, Note_on_c, 5, 79, 0
7, 53760, Note_on_c, 5, 78, 109
7, 53820, Note_on_c, 5, 78, 0
7, 53820, Note_on_c, 5, 76, 110
7, 53880, Note_on_c, 5, 76, 0
7, 53880, Note_on_c, 5, 74, 111
7, 53940, Note_on_c, 5, 74, 0
7, 53940, Note_on_c, 5, 73, 111
7, 54000, Note_on_c, 5, 73, 0
7, 54000, Note_on_c, 5, 71, 112
7, 54030, Note_on_c, 5, 71, 0
7, 54030, Note_on_c, 5, 69, 113
7, 54060, Note_on_c, 5, 69, 0
7, 54060, Note_on_c, 5, 81, 113
7, 54095, Note_on_c, 5, 81, 0
7, 54120, Note_on_c, 5, 79, 114
7, 54155, Note_on_c, 5, 79, 0
7, 54180, Note_on_c, 5, 78, 114
7, 54300, Note_on_c, 5, 78, 0
7, 54300, Note_on_c, 5, 76, 116
7, 54420, Note_on_c, 5, 76, 0
7, 54420, Note_on_c, 5, 74, 117
7, 54660, Note_on_c, 5, 74, 0
7, 55140, End_track
8, 0, Start_track
8, 0, MIDI_port, 0
8, 0, Title_t, "Violin II"
8, 0, Program_c, 6, 48
8, 210, Note_on_c, 6, 62, 70
8, 240, Note_on_c, 6, 62, 0
8, 240, Note_on_c, 6, 66, 70
8, 270, Note_on_c, 6, 66, 0
8, 270, Note_on_c, 6, 69, 70
8, 300, Note_on_c, 6, 69, 0
8, 300, Note_on_c, 6, 66, 70
8, 330, Note_on_c, 6, 66, 0
8, 330, Note_on_c, 6, 62, 70
8, 360, Note_on_c, 6, 62, 0
8, 360, Note_on_c, 6, 69, 70
8, 570, Note_on_c, 6, 69, 0
8, 570, Note_on_c, 6, 62, 70
8, 600, Note_on_c, 6, 62, 0
8, 600, Note_on_c, 6, 66, 70
8, 630, Note_on_c, 6, 66, 0
8, 630, Note_on_c, 6, 69, 70
8, 660, Note_on_c, 6, 69, 0
8, 660, Note_on_c, 6, 66, 70
8, 690, Note_on_c, 6, 66, 0
8, 690, Note_on_c, 6, 62, 70
8, 720, Note_on_c, 6, 62, 0
8, 720, Note_on_c, 6, 69, 70
8, 935, Note_on_c, 6, 69, 0
8, 960, Note_on_c, 6, 69, 70
8, 995, Note_on_c, 6, 69, 0
8, 1020, Note_on_c, 6, 73, 70
8, 1055, Note_on_c, 6, 73, 0
8, 1080, Note_on_c, 6, 69, 70
8, 1115, Note_on_c, 6, 69, 0
8, 1140, Note_on_c, 6, 69, 70
8, 1175, Note_on_c, 6, 69, 0
8, 1200, Note_on_c, 6, 74, 70
8, 1235, Note_on_c, 6, 74, 0
8, 1260, Note_on_c, 6, 73, 70
8, 1295, Note_on_c, 6, 73, 0
8, 1470, Note_on_c, 6, 62, 70
8, 1500, Note_on_c, 6, 62, 0
8, 1500, Note_on_c, 6, 66, 70
8, 1530, Note_on_c, 6, 66, 0
8, 1530, Note_on_c, 6, 69, 70
8, 1560, Note_on_c, 6, 69, 0
8, 1560, Note_on_c, 6, 66, 70
8, 1590, Note_on_c, 6, 66, 0
8, 1590, Note_on_c, 6, 62, 70
8, 1620, Note_on_c, 6, 62, 0
8, 1620, Note_on_c, 6, 69, 70
8, 1655, Note_on_c, 6, 69, 0
8, 1830, Note_on_c, 6, 66, 64
8, 1860, Note_on_c, 6, 66, 0
8, 1860, Note_on_c, 6, 69, 64
8, 1890, Note_on_c, 6, 69, 0
8, 1890, Note_on_c, 6, 73, 64
8, 1920, Note_on_c, 6, 73, 0
8, 1920, Note_on_c, 6, 69, 64
8, 1950, Note_on_c, 6, 69, 0
8, 1950, Note_on_c, 6, 66, 64
8, 1980, Note_on_c, 6, 66, 0
8, 1980, Note_on_c, 6, 78, 64
8, 2190, Note_on_c, 6, 78, 0
8, 2190, Note_on_c, 6, 81, 64
8, 2220, Note_on_c, 6, 81, 0
8, 2220, Note_on_c, 6, 79, 64
8, 2250, Note_on_c, 6, 79, 0
8, 2250, Note_on_c, 6, 78, 64
8, 2280, Note_on_c, 6, 78, 0
8, 2280, Note_on_c, 6, 76, 64
8, 2310, Note_on_c, 6, 76, 0
8, 2310, Note_on_c, 6, 75, 64
8, 2340, Note_on_c, 6, 75, 0
8, 2340, Note_on_c, 6, 76, 64
8, 2375, Note_on_c, 6, 76, 0
8, 2550, Note_on_c, 6, 64, 64
8, 2580, Note_on_c, 6, 64, 0
8, 2580, Note_on_c, 6, 67, 64
8, 2610, Note_on_c, 6, 67, 0
8, 2610, Note_on_c, 6, 71, 64
8, 2640, Note_on_c, 6, 71, 0
8, 2640, Note_on_c, 6, 67, 64
8, 2670, Note_on_c, 6, 67, 0
8, 2670, Note_on_c, 6, 64, 64
8, 2700, Note_on_c, 6, 64, 0
8, 2700, Note_on_c, 6, 76, 64
8, 2910, Note_on_c, 6, 76, 0
8, 2910, Note_on_c, 6, 79, 64
8, 2940, Note_on_c, 6, 79, 0
8, 2940, Note_on_c, 6, 78, 64
8, 2970, Note_on_c, 6, 78, 0
8, 2970, Note_on_c, 6, 76, 64
8, 3000, Note_on_c, 6, 76, 0
8, 3000, Note_on_c, 6, 74, 64
8, 3030, Note_on_c, 6, 74, 0
8, 3030, Note_on_c, 6, 73, 64
8, 3060, Note_on_c, 6, 73, 0
8, 3060, Note_on_c, 6, 74, 64
8, 3095, Note_on_c, 6, 74, 0
8, 3180, Note_on_c, 6, 78, 64
8, 3215, Note_on_c, 6, 78, 0
8, 3240, Note_on_c, 6, 83, 64
8, 3275, Note_on_c, 6, 83, 0
8, 3360, Note_on_c, 6, 81, 64
8, 3395, Note_on_c, 6, 81, 0
8, 3420, Note_on_c, 6, 78, 64
8, 3455, Note_on_c, 6, 78, 0
8, 3540, Note_on_c, 6, 79, 64
8, 3575, Note_on_c, 6, 79, 0
8, 3600, Note_on_c, 6, 79, 64
8, 3635, Note_on_c, 6, 79, 0
8, 3720, Note_on_c, 6, 74, 64
8, 3755, Note_on_c, 6, 74, 0
8, 3780, Note_on_c, 6, 74, 64
8, 3815, Note_on_c, 6, 74, 0
8, 3900, Note_on_c, 6, 76, 67
8, 3935, Note_on_c, 6, 76, 0
8, 3960, Note_on_c, 6, 76, 68
8, 3995, Note_on_c, 6, 76, 0
8, 4080, Note_on_c, 6, 69, 71
8, 4115, Note_on_c, 6, 69, 0
8, 4140, Note_on_c, 6, 67, 72
8, 4170, Note_on_c, 6, 67, 0
8, 4170, Note_on_c, 6, 66, 73
8, 4200, Note_on_c, 6, 66, 0
8, 4200, Note_on_c, 6, 64, 73
8, 4230, Note_on_c, 6, 64, 0
8, 4230, Note_on_c, 6, 62, 74
8, 4260, Note_on_c, 6, 62, 0
8, 4260, Note_on_c, 6, 67, 75
8, 4295, Note_on_c, 6, 67, 0
8, 4320, Note_on_c, 6, 69, 76
8, 4350, Note_on_c, 6, 69, 0
8, 4350, Note_on_c, 6, 71, 77
8, 4380, Note_on_c, 6, 71, 0
8, 4380, Note_on_c, 6, 69, 77
8, 4415, Note_on_c, 6, 69, 0
8, 4440, Note_on_c, 6, 69, 79
8, 4475, Note_on_c, 6, 69, 0
8, 4500, Note_on_c, 6, 69, 80
8, 4535, Note_on_c, 6, 69, 0
8, 4535, Control_c, 6, 7, 75
8, 5250, Note_on_c, 6, 69, 56
8, 5280, Note_on_c, 6, 69, 0
8, 5280, Note_on_c, 6, 74, 56
8, 5310, Note_on_c, 6, 74, 0
8, 5310, Note_on_c, 6, 78, 57
8, 5340, Note_on_c, 6, 78, 0
8, 5340, Note_on_c, 6, 81, 57
8, 5370, Note_on_c, 6, 81, 0
8, 5370, Note_on_c, 6, 73, 58
8, 5400, Note_on_c, 6, 73, 0
8, 5400, Note_on_c, 6, 74, 58
8, 5430, Note_on_c, 6, 74, 0
8, 5430, Note_on_c, 6, 73, 59
8, 5460, Note_on_c, 6, 73, 0
8, 5460, Note_on_c, 6, 71, 59
8, 5490, Note_on_c, 6, 71, 0
8, 5490, Note_on_c, 6, 69, 60
8, 5520, Note_on_c, 6, 69, 0
8, 5520, Note_on_c, 6, 67, 60
8, 5550, Note_on_c, 6, 67, 0
8, 5550, Note_on_c, 6, 66, 61
8, 5580, Note_on_c, 6, 66, 0
8, 5580, Note_on_c, 6, 64, 61
8, 5615, Note_on_c, 6, 64, 0
8, 5790, Note_on_c, 6, 66, 65
8, 5820, Note_on_c, 6, 66, 0
8, 5820, Note_on_c, 6, 69, 65
8, 5850, Note_on_c, 6, 69, 0
8, 5850, Note_on_c, 6, 74, 66
8, 5880, Note_on_c, 6, 74, 0
8, 5880, Note_on_c, 6, 69, 66
8, 5910, Note_on_c, 6, 69, 0
8, 5910, Note_on_c, 6, 66, 67
8, 5940, Note_on_c, 6, 66, 0
8, 5940, Note_on_c, 6, 73, 67
8, 5970, Note_on_c, 6, 73, 0
8, 5970, Note_on_c, 6, 64, 68
8, 6000, Note_on_c, 6, 64, 0
8, 6000, Note_on_c, 6, 69, 68
8, 6030, Note_on_c, 6, 69, 0
8, 6030, Note_on_c, 6, 73, 69
8, 6060, Note_on_c, 6, 73, 0
8, 6060, Note_on_c, 6, 69, 69
8, 6090, Note_on_c, 6, 69, 0
8, 6090, Note_on_c, 6, 64, 70
8, 6120, Note_on_c, 6, 64, 0
8, 6120, Control_c, 6, 7, 127
8, 6120, Note_on_c, 6, 76, 64
8, 6330, Note_on_c, 6, 76, 0
8, 6330, Note_on_c, 6, 66, 64
8, 6360, Note_on_c, 6, 66, 0
8, 6360, Note_on_c, 6, 70, 64
8, 6390, Note_on_c, 6, 70, 0
8, 6390, Note_on_c, 6, 73, 64
8, 6420, Note_on_c, 6, 73, 0
8, 6420, Note_on_c, 6, 70, 64
8, 6450, Note_on_c, 6, 70, 0
8, 6450, Note_on_c, 6, 66, 64
8, 6480, Note_on_c, 6, 66, 0
8, 6480, Note_on_c, 6, 78, 64
8, 6510, Note_on_c, 6, 78, 0
8, 6510, Note_on_c, 6, 79, 64
8, 6540, Note_on_c, 6, 79, 0
8, 6540, Note_on_c, 6, 78, 64
8, 6570, Note_on_c, 6, 78, 0
8, 6570, Note_on_c, 6, 76, 64
8, 6600, Note_on_c, 6, 76, 0
8, 6600, Note_on_c, 6, 74, 64
8, 6630, Note_on_c, 6, 74, 0
8, 6630, Note_on_c, 6, 73, 64
8, 6660, Note_on_c, 6, 73, 0
8, 6660, Note_on_c, 6, 74, 64
8, 6690, Note_on_c, 6, 74, 0
8, 6690, Note_on_c, 6, 66, 64
8, 6720, Note_on_c, 6, 66, 0
8, 6720, Note_on_c, 6, 71, 64
8, 6750, Note_on_c, 6, 71, 0
8, 6750, Note_on_c, 6, 74, 64
8, 6780, Note_on_c, 6, 74, 0
8, 6780, Note_on_c, 6, 71, 64
8, 6810, Note_on_c, 6, 71, 0
8, 6810, Note_on_c, 6, 66, 64
8, 6840, Note_on_c, 6, 66, 0
8, 6840, Note_on_c, 6, 74, 64
8, 7050, Note_on_c, 6, 74, 0
8, 7050, Note_on_c, 6, 64, 64
8, 7080, Note_on_c, 6, 64, 0
8, 7080, Note_on_c, 6, 68, 64
8, 7110, Note_on_c, 6, 68, 0
8, 7110, Note_on_c, 6, 71, 64
8, 7140, Note_on_c, 6, 71, 0
8, 7140, Note_on_c, 6, 68, 64
8, 7170, Note_on_c, 6, 68, 0
8, 7170, Note_on_c, 6, 64, 64
8, 7200, Note_on_c, 6, 64, 0
8, 7200, Note_on_c, 6, 76, 64
8, 7230, Note_on_c, 6, 76, 0
8, 7230, Note_on_c, 6, 78, 64
8, 7260, Note_on_c, 6, 78, 0
8, 7260, Note_on_c, 6, 76, 64
8, 7290, Note_on_c, 6, 76, 0
8, 7290, Note_on_c, 6, 74, 64
8, 7320, Note_on_c, 6, 74, 0
8, 7320, Note_on_c, 6, 73, 64
8, 7350, Note_on_c, 6, 73, 0
8, 7350, Note_on_c, 6, 71, 64
8, 7380, Note_on_c, 6, 71, 0
8, 7380, Control_c, 6, 7, 75
8, 7380, Note_on_c, 6, 73, 64
8, 7415, Note_on_c, 6, 73, 0
8, 7740, Note_on_c, 6, 69, 64
8, 7775, Note_on_c, 6, 69, 0
8, 7800, Note_on_c, 6, 57, 64
8, 7835, Note_on_c, 6, 57, 0
8, 7860, Note_on_c, 6, 69, 64
8, 7931, Note_on_c, 6, 69, 0
8, 7980, Note_on_c, 6, 68, 64
8, 8010, Note_on_c, 6, 68, 0
8, 8010, Note_on_c, 6, 69, 64
8, 8040, Note_on_c, 6, 69, 0
8, 8040, Note_on_c, 6, 66, 64
8, 8070, Note_on_c, 6, 66, 0
8, 8070, Note_on_c, 6, 68, 64
8, 8100, Note_on_c, 6, 68, 0
8, 8100, Note_on_c, 6, 69, 64
8, 8130, Note_on_c, 6, 69, 0
8, 8130, Note_on_c, 6, 71, 65
8, 8160, Note_on_c, 6, 71, 0
8, 8160, Note_on_c, 6, 73, 65
8, 8195, Note_on_c, 6, 73, 0
8, 8220, Note_on_c, 6, 68, 66
8, 8255, Note_on_c, 6, 68, 0
8, 8280, Note_on_c, 6, 69, 67
8, 8315, Note_on_c, 6, 69, 0
8, 8340, Note_on_c, 6, 68, 68
8, 8375, Note_on_c, 6, 68, 0
8, 8400, Note_on_c, 6, 69, 69
8, 8435, Note_on_c, 6, 69, 0
8, 8460, Note_on_c, 6, 68, 70
8, 8490, Note_on_c, 6, 68, 0
8, 8490, Note_on_c, 6, 64, 71
8, 8520, Note_on_c, 6, 64, 0
8, 8520, Note_on_c, 6, 68, 71
8, 8550, Note_on_c, 6, 68, 0
8, 8550, Note_on_c, 6, 71, 72
8, 8580, Note_on_c, 6, 71, 0
8, 8580, Note_on_c, 6, 68, 73
8, 8610, Note_on_c, 6, 68, 0
8, 8610, Note_on_c, 6, 64, 73
8, 8640, Note_on_c, 6, 64, 0
8, 8640, Note_on_c, 6, 76, 74
8, 8850, Note_on_c, 6, 76, 0
8, 8850, Note_on_c, 6, 64, 77
8, 8880, Note_on_c, 6, 64, 0
8, 8880, Note_on_c, 6, 68, 78
8, 8910, Note_on_c, 6, 68, 0
8, 8910, Note_on_c, 6, 71, 78
8, 8940, Note_on_c, 6, 71, 0
8, 8940, Note_on_c, 6, 68, 79
8, 8970, Note_on_c, 6, 68, 0
8, 8970, Note_on_c, 6, 64, 79
8, 9000, Note_on_c, 6, 64, 0
8, 9000, Note_on_c, 6, 76, 40
8, 9210, Note_on_c, 6, 76, 0
8, 9210, Note_on_c, 6, 66, 50
8, 9240, Note_on_c, 6, 66, 0
8, 9240, Note_on_c, 6, 70, 51
8, 9270, Note_on_c, 6, 70, 0
8, 9270, Note_on_c, 6, 73, 53
8, 9300, Note_on_c, 6, 73, 0
8, 9300, Note_on_c, 6, 70, 54
8, 9330, Note_on_c, 6, 70, 0
8, 9330, Note_on_c, 6, 66, 56
8, 9360, Note_on_c, 6, 66, 0
8, 9360, Note_on_c, 6, 78, 57
8, 9390, Note_on_c, 6, 78, 0
8, 9390, Note_on_c, 6, 79, 58
8, 9420, Note_on_c, 6, 79, 0
8, 9420, Note_on_c, 6, 78, 60
8, 9450, Note_on_c, 6, 78, 0
8, 9450, Note_on_c, 6, 76, 61
8, 9480, Note_on_c, 6, 76, 0
8, 9480, Note_on_c, 6, 74, 63
8, 9510, Note_on_c, 6, 74, 0
8, 9510, Note_on_c, 6, 73, 64
8, 9540, Note_on_c, 6, 73, 0
8, 9540, Note_on_c, 6, 74, 66
8, 9570, Note_on_c, 6, 74, 0
8, 9570, Note_on_c, 6, 66, 67
8, 9600, Note_on_c, 6, 66, 0
8, 9600, Note_on_c, 6, 71, 68
8, 9630, Note_on_c, 6, 71, 0
8, 9630, Note_on_c, 6, 74, 70
8, 9660, Note_on_c, 6, 74, 0
8, 9660, Note_on_c, 6, 71, 71
8, 9690, Note_on_c, 6, 71, 0
8, 9690, Note_on_c, 6, 66, 73
8, 9720, Note_on_c, 6, 66, 0
8, 9720, Note_on_c, 6, 74, 50
8, 9930, Note_on_c, 6, 74, 0
8, 9930, Note_on_c, 6, 64, 57
8, 9960, Note_on_c, 6, 64, 0
8, 9960, Note_on_c, 6, 68, 58
8, 9990, Note_on_c, 6, 68, 0
8, 9990, Note_on_c, 6, 71, 59
8, 10020, Note_on_c, 6, 71, 0
8, 10020, Note_on_c, 6, 68, 60
8, 10050, Note_on_c, 6, 68, 0
8, 10050, Note_on_c, 6, 64, 61
8, 10080, Note_on_c, 6, 64, 0
8, 10080, Note_on_c, 6, 76, 63
8, 10110, Note_on_c, 6, 76, 0
8, 10110, Note_on_c, 6, 78, 64
8, 10140, Note_on_c, 6, 78, 0
8, 10140, Note_on_c, 6, 76, 65
8, 10170, Note_on_c, 6, 76, 0
8, 10170, Note_on_c, 6, 74, 66
8, 10200, Note_on_c, 6, 74, 0
8, 10200, Note_on_c, 6, 73, 67
8, 10230, Note_on_c, 6, 73, 0
8, 10230, Note_on_c, 6, 71, 68
8, 10260, Note_on_c, 6, 71, 0
8, 10260, Note_on_c, 6, 73, 69
8, 10295, Note_on_c, 6, 73, 0
8, 10380, Note_on_c, 6, 73, 73
8, 10415, Note_on_c, 6, 73, 0
8, 10440, Note_on_c, 6, 78, 64
8, 10475, Note_on_c, 6, 78, 0
8, 10560, Note_on_c, 6, 76, 66
8, 10595, Note_on_c, 6, 76, 0
8, 10620, Note_on_c, 6, 73, 66
8, 10655, Note_on_c, 6, 73, 0
8, 10740, Note_on_c, 6, 74, 68
8, 10775, Note_on_c, 6, 74, 0
8, 10800, Note_on_c, 6, 74, 69
8, 10835, Note_on_c, 6, 74, 0
8, 10920, Note_on_c, 6, 69, 70
8, 10955, Note_on_c, 6, 69, 0
8, 10980, Note_on_c, 6, 69, 71
8, 11015, Note_on_c, 6, 69, 0
8, 11100, Note_on_c, 6, 71, 72
8, 11135, Note_on_c, 6, 71, 0
8, 11160, Note_on_c, 6, 71, 73
8, 11195, Note_on_c, 6, 71, 0
8, 11280, Note_on_c, 6, 64, 75
8, 11315, Note_on_c, 6, 64, 0
8, 11340, Note_on_c, 6, 62, 75
8, 11370, Note_on_c, 6, 62, 0
8, 11370, Note_on_c, 6, 61, 76
8, 11400, Note_on_c, 6, 61, 0
8, 11400, Note_on_c, 6, 59, 76
8, 11430, Note_on_c, 6, 59, 0
8, 11430, Note_on_c, 6, 57, 77
8, 11460, Note_on_c, 6, 57, 0
8, 11460, Note_on_c, 6, 62, 77
8, 11495, Note_on_c, 6, 62, 0
8, 11520, Note_on_c, 6, 64, 78
8, 11550, Note_on_c, 6, 64, 0
8, 11550, Note_on_c, 6, 66, 78
8, 11580, Note_on_c, 6, 66, 0
8, 11580, Note_on_c, 6, 69, 78
8, 11595, Note_on_c, 6, 69, 0
8, 11595, Note_on_c, 6, 68, 79
8, 11610, Note_on_c, 6, 68, 0
8, 11610, Note_on_c, 6, 69, 79
8, 11625, Note_on_c, 6, 69, 0
8, 11625, Note_on_c, 6, 68, 79
8, 11640, Note_on_c, 6, 68, 0
8, 11640, Note_on_c, 6, 69, 79
8, 11655, Note_on_c, 6, 69, 0
8, 11655, Note_on_c, 6, 68, 79
8, 11670, Note_on_c, 6, 68, 0
8, 11670, Note_on_c, 6, 69, 80
8, 11700, Note_on_c, 6, 69, 0
8, 11700, Control_c, 6, 7, 127
8, 11700, Note_on_c, 6, 69, 64
8, 11730, Note_on_c, 6, 69, 0
8, 11730, Note_on_c, 6, 57, 64
8, 11760, Note_on_c, 6, 57, 0
8, 11760, Note_on_c, 6, 61, 64
8, 11790, Note_on_c, 6, 61, 0
8, 11790, Note_on_c, 6, 64, 64
8, 11820, Note_on_c, 6, 64, 0
8, 11820, Note_on_c, 6, 61, 64
8, 11850, Note_on_c, 6, 61, 0
8, 11850, Note_on_c, 6, 57, 64
8, 11880, Note_on_c, 6, 57, 0
8, 11880, Note_on_c, 6, 64, 64
8, 11915, Note_on_c, 6, 64, 0
8, 12090, Note_on_c, 6, 57, 64
8, 12120, Note_on_c, 6, 57, 0
8, 12120, Note_on_c, 6, 61, 64
8, 12150, Note_on_c, 6, 61, 0
8, 12150, Note_on_c, 6, 64, 64
8, 12180, Note_on_c, 6, 64, 0
8, 12180, Note_on_c, 6, 61, 64
8, 12210, Note_on_c, 6, 61, 0
8, 12210, Note_on_c, 6, 57, 64
8, 12240, Note_on_c, 6, 57, 0
8, 12240, Note_on_c, 6, 64, 64
8, 12275, Note_on_c, 6, 64, 0
8, 12420, Control_c, 6, 7, 75
8, 12450, Note_on_c, 6, 57, 41
8, 12480, Note_on_c, 6, 57, 0
8, 12480, Note_on_c, 6, 61, 41
8, 12510, Note_on_c, 6, 61, 0
8, 12510, Note_on_c, 6, 64, 42
8, 12540, Note_on_c, 6, 64, 0
8, 12540, Note_on_c, 6, 61, 43
8, 12570, Note_on_c, 6, 61, 0
8, 12570, Note_on_c, 6, 57, 43
8, 12600, Note_on_c, 6, 57, 0
8, 12600, Note_on_c, 6, 69, 44
8, 12635, Note_on_c, 6, 69, 0
8, 12840, Note_on_c, 6, 71, 49
8, 13020, Note_on_c, 6, 71, 0
8, 13020, Note_on_c, 6, 70, 53
8, 13050, Note_on_c, 6, 70, 0
8, 13050, Note_on_c, 6, 71, 53
8, 13080, Note_on_c, 6, 71, 0
8, 13080, Note_on_c, 6, 68, 54
8, 13110, Note_on_c, 6, 68, 0
8, 13110, Note_on_c, 6, 70, 54
8, 13140, Note_on_c, 6, 70, 0
8, 13140, Note_on_c, 6, 71, 55
8, 13175, Note_on_c, 6, 71, 0
8, 13860, Control_c, 6, 7, 127
8, 13890, Note_on_c, 6, 62, 50
8, 13920, Note_on_c, 6, 62, 0
8, 13920, Note_on_c, 6, 66, 50
8, 13950, Note_on_c, 6, 66, 0
8, 13950, Note_on_c, 6, 69, 50
8, 13980, Note_on_c, 6, 69, 0
8, 13980, Note_on_c, 6, 66, 50
8, 14010, Note_on_c, 6, 66, 0
8, 14010, Note_on_c, 6, 62, 50
8, 14040, Note_on_c, 6, 62, 0
8, 14040, Note_on_c, 6, 69, 50
8, 14250, Note_on_c, 6, 69, 0
8, 14250, Note_on_c, 6, 62, 50
8, 14280, Note_on_c, 6, 62, 0
8, 14280, Note_on_c, 6, 66, 50
8, 14310, Note_on_c, 6, 66, 0
8, 14310, Note_on_c, 6, 69, 50
8, 14340, Note_on_c, 6, 69, 0
8, 14340, Note_on_c, 6, 66, 50
8, 14370, Note_on_c, 6, 66, 0
8, 14370, Note_on_c, 6, 62, 50
8, 14400, Note_on_c, 6, 62, 0
8, 14400, Note_on_c, 6, 69, 50
8, 14615, Note_on_c, 6, 69, 0
8, 14640, Note_on_c, 6, 69, 64
8, 14675, Note_on_c, 6, 69, 0
8, 14700, Note_on_c, 6, 73, 64
8, 14735, Note_on_c, 6, 73, 0
8, 14760, Note_on_c, 6, 69, 64
8, 14795, Note_on_c, 6, 69, 0
8, 14820, Note_on_c, 6, 69, 64
8, 14855, Note_on_c, 6, 69, 0
8, 14880, Note_on_c, 6, 74, 64
8, 14915, Note_on_c, 6, 74, 0
8, 14940, Note_on_c, 6, 73, 64
8, 14975, Note_on_c, 6, 73, 0
8, 15150, Note_on_c, 6, 62, 64
8, 15180, Note_on_c, 6, 62, 0
8, 15180, Note_on_c, 6, 66, 64
8, 15210, Note_on_c, 6, 66, 0
8, 15210, Note_on_c, 6, 69, 64
8, 15240, Note_on_c, 6, 69, 0
8, 15240, Note_on_c, 6, 66, 64
8, 15270, Note_on_c, 6, 66, 0
8, 15270, Note_on_c, 6, 62, 64
8, 15300, Note_on_c, 6, 62, 0
8, 15300, Control_c, 6, 7, 75
8, 15300, Note_on_c, 6, 69, 50
8, 15335, Note_on_c, 6, 69, 0
8, 15510, Note_on_c, 6, 66, 56
8, 15540, Note_on_c, 6, 66, 0
8, 15540, Note_on_c, 6, 69, 57
8, 15570, Note_on_c, 6, 69, 0
8, 15570, Note_on_c, 6, 73, 58
8, 15600, Note_on_c, 6, 73, 0
8, 15600, Note_on_c, 6, 69, 58
8, 15630, Note_on_c, 6, 69, 0
8, 15630, Note_on_c, 6, 66, 59
8, 15660, Note_on_c, 6, 66, 0
8, 15660, Note_on_c, 6, 78, 60
8, 15870, Note_on_c, 6, 78, 0
8, 15870, Note_on_c, 6, 81, 66
8, 15900, Note_on_c, 6, 81, 0
8, 15900, Note_on_c, 6, 79, 67
8, 15930, Note_on_c, 6, 79, 0
8, 15930, Note_on_c, 6, 78, 68
8, 15960, Note_on_c, 6, 78, 0
8, 15960, Note_on_c, 6, 76, 68
8, 15990, Note_on_c, 6, 76, 0
8, 15990, Note_on_c, 6, 75, 69
8, 16020, Note_on_c, 6, 75, 0
8, 16020, Note_on_c, 6, 76, 50
8, 16055, Note_on_c, 6, 76, 0
8, 16230, Note_on_c, 6, 64, 56
8, 16260, Note_on_c, 6, 64, 0
8, 16260, Note_on_c, 6, 67, 57
8, 16290, Note_on_c, 6, 67, 0
8, 16290, Note_on_c, 6, 71, 58
8, 16320, Note_on_c, 6, 71, 0
8, 16320, Note_on_c, 6, 67, 58
8, 16350, Note_on_c, 6, 67, 0
8, 16350, Note_on_c, 6, 64, 59
8, 16380, Note_on_c, 6, 64, 0
8, 16380, Note_on_c, 6, 76, 60
8, 16590, Note_on_c, 6, 76, 0
8, 16590, Note_on_c, 6, 79, 66
8, 16620, Note_on_c, 6, 79, 0
8, 16620, Note_on_c, 6, 78, 67
8, 16650, Note_on_c, 6, 78, 0
8, 16650, Note_on_c, 6, 76, 68
8, 16680, Note_on_c, 6, 76, 0
8, 16680, Note_on_c, 6, 74, 68
8, 16710, Note_on_c, 6, 74, 0
8, 16710, Note_on_c, 6, 73, 69
8, 16740, Note_on_c, 6, 73, 0
8, 16740, Control_c, 6, 7, 75
8, 16740, Note_on_c, 6, 74, 64
8, 16775, Note_on_c, 6, 74, 0
8, 16860, Note_on_c, 6, 78, 65
8, 16895, Note_on_c, 6, 78, 0
8, 16920, Note_on_c, 6, 83, 66
8, 16955, Note_on_c, 6, 83, 0
8, 17040, Note_on_c, 6, 81, 67
8, 17075, Note_on_c, 6, 81, 0
8, 17100, Note_on_c, 6, 78, 68
8, 17135, Note_on_c, 6, 78, 0
8, 17220, Note_on_c, 6, 79, 69
8, 17255, Note_on_c, 6, 79, 0
8, 17280, Note_on_c, 6, 79, 70
8, 17315, Note_on_c, 6, 79, 0
8, 17400, Note_on_c, 6, 74, 71
8, 17435, Note_on_c, 6, 74, 0
8, 17460, Note_on_c, 6, 74, 72
8, 17495, Note_on_c, 6, 74, 0
8, 17580, Note_on_c, 6, 76, 73
8, 17615, Note_on_c, 6, 76, 0
8, 17640, Note_on_c, 6, 76, 74
8, 17675, Note_on_c, 6, 76, 0
8, 17760, Note_on_c, 6, 69, 75
8, 17795, Note_on_c, 6, 69, 0
8, 17820, Note_on_c, 6, 67, 76
8, 17850, Note_on_c, 6, 67, 0
8, 17850, Note_on_c, 6, 66, 76
8, 17880, Note_on_c, 6, 66, 0
8, 17880, Note_on_c, 6, 64, 77
8, 17910, Note_on_c, 6, 64, 0
8, 17910, Note_on_c, 6, 62, 77
8, 17940, Note_on_c, 6, 62, 0
8, 17940, Note_on_c, 6, 67, 77
8, 17975, Note_on_c, 6, 67, 0
8, 18000, Note_on_c, 6, 69, 78
8, 18030, Note_on_c, 6, 69, 0
8, 18030, Note_on_c, 6, 71, 78
8, 18060, Note_on_c, 6, 71, 0
8, 18060, Note_on_c, 6, 69, 79
8, 18095, Note_on_c, 6, 69, 0
8, 18120, Note_on_c, 6, 69, 79
8, 18155, Note_on_c, 6, 69, 0
8, 18180, Note_on_c, 6, 69, 100
8, 18300, Note_on_c, 6, 69, 0
8, 18840, Note_on_c, 6, 57, 33
8, 18900, Note_on_c, 6, 57, 0
8, 18900, Note_on_c, 6, 59, 34
8, 18960, Note_on_c, 6, 59, 0
8, 18960, Note_on_c, 6, 60, 35
8, 18995, Note_on_c, 6, 60, 0
8, 19020, Note_on_c, 6, 60, 36
8, 19080, Note_on_c, 6, 60, 0
8, 19080, Note_on_c, 6, 62, 37
8, 19115, Note_on_c, 6, 62, 0
8, 19140, Note_on_c, 6, 62, 39
8, 19200, Note_on_c, 6, 62, 0
8, 19200, Note_on_c, 6, 60, 40
8, 19235, Note_on_c, 6, 60, 0
8, 19260, Note_on_c, 6, 62, 41
8, 19320, Note_on_c, 6, 62, 0
8, 19320, Note_on_c, 6, 64, 42
8, 19355, Note_on_c, 6, 64, 0
8, 19380, Note_on_c, 6, 60, 43
8, 19440, Note_on_c, 6, 60, 0
8, 19440, Note_on_c, 6, 57, 44
8, 19475, Note_on_c, 6, 57, 0
8, 19500, Note_on_c, 6, 57, 45
8, 19560, Note_on_c, 6, 57, 0
8, 19560, Note_on_c, 6, 55, 46
8, 19595, Note_on_c, 6, 55, 0
8, 19620, Note_on_c, 6, 55, 47
8, 19680, Note_on_c, 6, 55, 0
8, 19680, Note_on_c, 6, 57, 48
8, 19715, Note_on_c, 6, 57, 0
8, 19740, Note_on_c, 6, 55, 49
8, 19800, Note_on_c, 6, 55, 0
8, 19800, Note_on_c, 6, 60, 50
8, 19835, Note_on_c, 6, 60, 0
8, 19860, Note_on_c, 6, 57, 51
8, 19920, Note_on_c, 6, 57, 0
8, 19920, Note_on_c, 6, 62, 52
8, 19955, Note_on_c, 6, 62, 0
8, 19980, Note_on_c, 6, 71, 53
8, 20040, Note_on_c, 6, 71, 0
8, 20040, Note_on_c, 6, 66, 54
8, 20075, Note_on_c, 6, 66, 0
8, 20100, Note_on_c, 6, 66, 56
8, 20160, Note_on_c, 6, 66, 0
8, 20160, Note_on_c, 6, 67, 57
8, 20195, Note_on_c, 6, 67, 0
8, 20220, Note_on_c, 6, 69, 58
8, 20280, Note_on_c, 6, 69, 0
8, 20280, Note_on_c, 6, 71, 59
8, 20315, Note_on_c, 6, 71, 0
8, 20340, Note_on_c, 6, 67, 60
8, 20580, Note_on_c, 6, 67, 0
8, 20580, Note_on_c, 6, 66, 64
8, 20820, Note_on_c, 6, 66, 0
8, 20820, Note_on_c, 6, 64, 64
8, 21060, Note_on_c, 6, 64, 0
8, 21060, Note_on_c, 6, 71, 64
8, 21300, Note_on_c, 6, 71, 0
8, 21300, Note_on_c, 6, 69, 64
8, 21420, Note_on_c, 6, 69, 0
8, 21420, Note_on_c, 6, 67, 64
8, 21540, Note_on_c, 6, 67, 0
8, 21540, Note_on_c, 6, 66, 64
8, 21720, Note_on_c, 6, 66, 0
8, 21720, Note_on_c, 6, 63, 65
8, 21780, Note_on_c, 6, 63, 0
8, 21780, Note_on_c, 6, 64, 66
8, 22020, Note_on_c, 6, 64, 0
8, 22020, Note_on_c, 6, 62, 67
8, 22260, Note_on_c, 6, 62, 0
8, 22260, Note_on_c, 6, 64, 69
8, 22380, Note_on_c, 6, 64, 0
8, 22380, Note_on_c, 6, 59, 69
8, 22500, Note_on_c, 6, 59, 0
8, 22500, Note_on_c, 6, 64, 64
8, 22740, Note_on_c, 6, 64, 0
8, 22740, Note_on_c, 6, 71, 64
8, 22860, Note_on_c, 6, 71, 0
8, 22920, Note_on_c, 6, 59, 64
8, 22980, Note_on_c, 6, 59, 0
8, 22980, Note_on_c, 6, 64, 64
8, 23100, Note_on_c, 6, 64, 0
8, 23100, Note_on_c, 6, 66, 67
8, 23220, Note_on_c, 6, 66, 0
8, 23220, Note_on_c, 6, 67, 70
8, 23340, Note_on_c, 6, 67, 0
8, 23340, Note_on_c, 6, 64, 72
8, 23460, Note_on_c, 6, 64, 0
8, 23460, Note_on_c, 6, 69, 75
8, 23580, Note_on_c, 6, 69, 0
8, 23580, Note_on_c, 6, 64, 75
8, 23640, Note_on_c, 6, 64, 0
8, 23640, Note_on_c, 6, 69, 75
8, 23700, Note_on_c, 6, 69, 0
8, 23700, Note_on_c, 6, 69, 75
8, 23760, Note_on_c, 6, 69, 0
8, 23760, Note_on_c, 6, 71, 75
8, 23790, Note_on_c, 6, 71, 0
8, 23790, Note_on_c, 6, 72, 75
8, 23820, Note_on_c, 6, 72, 0
8, 23820, Note_on_c, 6, 71, 75
8, 23880, Note_on_c, 6, 71, 0
8, 23880, Note_on_c, 6, 64, 75
8, 23940, Note_on_c, 6, 64, 0
8, 23940, Note_on_c, 6, 64, 67
8, 24060, Note_on_c, 6, 64, 0
8, 24060, Note_on_c, 6, 63, 60
8, 24120, Note_on_c, 6, 63, 0
8, 24120, Note_on_c, 6, 66, 57
8, 24180, Note_on_c, 6, 66, 0
8, 24180, Note_on_c, 6, 67, 53
8, 24240, Note_on_c, 6, 67, 0
8, 24240, Note_on_c, 6, 64, 50
8, 24275, Note_on_c, 6, 64, 0
8, 24300, Note_on_c, 6, 64, 47
8, 24360, Note_on_c, 6, 64, 0
8, 24360, Note_on_c, 6, 71, 43
8, 24395, Note_on_c, 6, 71, 0
8, 24420, Note_on_c, 6, 71, 40
8, 24480, Note_on_c, 6, 71, 0
8, 24480, Note_on_c, 6, 69, 40
8, 24515, Note_on_c, 6, 69, 0
8, 24540, Note_on_c, 6, 71, 41
8, 24600, Note_on_c, 6, 71, 0
8, 24600, Note_on_c, 6, 72, 41
8, 24635, Note_on_c, 6, 72, 0
8, 24660, Note_on_c, 6, 69, 42
8, 24720, Note_on_c, 6, 69, 0
8, 24720, Note_on_c, 6, 66, 42
8, 24755, Note_on_c, 6, 66, 0
8, 24780, Note_on_c, 6, 66, 43
8, 24840, Note_on_c, 6, 66, 0
8, 24840, Note_on_c, 6, 64, 43
8, 24875, Note_on_c, 6, 64, 0
8, 24900, Note_on_c, 6, 64, 43
8, 24960, Note_on_c, 6, 64, 0
8, 24960, Note_on_c, 6, 75, 44
8, 24995, Note_on_c, 6, 75, 0
8, 25020, Note_on_c, 6, 76, 44
8, 25080, Note_on_c, 6, 76, 0
8, 25080, Note_on_c, 6, 78, 45
8, 25115, Note_on_c, 6, 78, 0
8, 25140, Note_on_c, 6, 78, 45
8, 25200, Note_on_c, 6, 78, 0
8, 25200, Note_on_c, 6, 76, 46
8, 25235, Note_on_c, 6, 76, 0
8, 25260, Note_on_c, 6, 76, 46
8, 25320, Note_on_c, 6, 76, 0
8, 25320, Note_on_c, 6, 75, 46
8, 25355, Note_on_c, 6, 75, 0
8, 25380, Note_on_c, 6, 75, 47
8, 25440, Note_on_c, 6, 75, 0
8, 25440, Note_on_c, 6, 76, 47
8, 25475, Note_on_c, 6, 76, 0
8, 25500, Note_on_c, 6, 75, 48
8, 25560, Note_on_c, 6, 75, 0
8, 25560, Note_on_c, 6, 78, 48
8, 25595, Note_on_c, 6, 78, 0
8, 25620, Note_on_c, 6, 76, 49
8, 25680, Note_on_c, 6, 76, 0
8, 25680, Note_on_c, 6, 73, 49
8, 25715, Note_on_c, 6, 73, 0
8, 25740, Note_on_c, 6, 73, 49
8, 25800, Note_on_c, 6, 73, 0
8, 25800, Note_on_c, 6, 71, 50
8, 25835, Note_on_c, 6, 71, 0
8, 25860, Note_on_c, 6, 71, 50
8, 26100, Note_on_c, 6, 71, 0
8, 26100, Note_on_c, 6, 73, 52
8, 26220, Note_on_c, 6, 73, 0
8, 26280, Note_on_c, 6, 66, 53
8, 26340, Note_on_c, 6, 66, 0
8, 26340, Note_on_c, 6, 71, 54
8, 26460, Note_on_c, 6, 71, 0
8, 26460, Note_on_c, 6, 73, 55
8, 26580, Note_on_c, 6, 73, 0
8, 26580, Note_on_c, 6, 74, 55
8, 26700, Note_on_c, 6, 74, 0
8, 26700, Note_on_c, 6, 71, 56
8, 26820, Note_on_c, 6, 71, 0
8, 26820, Note_on_c, 6, 76, 57
8, 26940, Note_on_c, 6, 76, 0
8, 26940, Note_on_c, 6, 74, 58
8, 27000, Note_on_c, 6, 74, 0
8, 27000, Note_on_c, 6, 79, 58
8, 27060, Note_on_c, 6, 79, 0
8, 27060, Note_on_c, 6, 79, 59
8, 27120, Note_on_c, 6, 79, 0
8, 27120, Note_on_c, 6, 78, 59
8, 27150, Note_on_c, 6, 78, 0
8, 27150, Note_on_c, 6, 76, 60
8, 27180, Note_on_c, 6, 76, 0
8, 27180, Note_on_c, 6, 78, 60
8, 27240, Note_on_c, 6, 78, 0
8, 27240, Note_on_c, 6, 71, 60
8, 27300, Note_on_c, 6, 71, 0
8, 27300, Note_on_c, 6, 71, 61
8, 27420, Note_on_c, 6, 71, 0
8, 27420, Note_on_c, 6, 70, 61
8, 27540, Note_on_c, 6, 70, 0
8, 27540, Note_on_c, 6, 66, 64
8, 27600, Note_on_c, 6, 66, 0
8, 27600, Note_on_c, 6, 67, 53
8, 27635, Note_on_c, 6, 67, 0
8, 27660, Note_on_c, 6, 67, 41
8, 27720, Note_on_c, 6, 67, 0
8, 27720, Note_on_c, 6, 69, 30
8, 27755, Note_on_c, 6, 69, 0
8, 27780, Control_c, 6, 7, 20
8, 27780, Note_on_c, 6, 69, 64
8, 27785, Control_c, 6, 7, 60
8, 27840, Note_on_c, 6, 69, 0
8, 27840, Note_on_c, 6, 62, 64
8, 27875, Note_on_c, 6, 62, 0
8, 27900, Note_on_c, 6, 62, 64
8, 27960, Note_on_c, 6, 62, 0
8, 27960, Note_on_c, 6, 64, 64
8, 27995, Note_on_c, 6, 64, 0
8, 28020, Note_on_c, 6, 66, 64
8, 28080, Note_on_c, 6, 66, 0
8, 28080, Note_on_c, 6, 67, 64
8, 28115, Note_on_c, 6, 67, 0
8, 28140, Note_on_c, 6, 69, 64
8, 28200, Note_on_c, 6, 69, 0
8, 28200, Note_on_c, 6, 66, 64
8, 28235, Note_on_c, 6, 66, 0
8, 28260, Note_on_c, 6, 67, 64
8, 28320, Note_on_c, 6, 67, 0
8, 28320, Note_on_c, 6, 66, 64
8, 28355, Note_on_c, 6, 66, 0
8, 28380, Note_on_c, 6, 64, 64
8, 28440, Note_on_c, 6, 64, 0
8, 28440, Note_on_c, 6, 66, 64
8, 28475, Note_on_c, 6, 66, 0
8, 28500, Note_on_c, 6, 67, 64
8, 28560, Note_on_c, 6, 67, 0
8, 28560, Note_on_c, 6, 69, 64
8, 28590, Note_on_c, 6, 69, 0
8, 28590, Note_on_c, 6, 67, 64
8, 28620, Note_on_c, 6, 67, 0
8, 28620, Note_on_c, 6, 69, 64
8, 28680, Note_on_c, 6, 69, 0
8, 28680, Note_on_c, 6, 71, 64
8, 28740, Note_on_c, 6, 71, 0
8, 28740, Note_on_c, 6, 69, 64
8, 28860, Note_on_c, 6, 69, 0
8, 28860, Note_on_c, 6, 67, 64
8, 28980, Note_on_c, 6, 67, 0
8, 28980, Note_on_c, 6, 66, 64
8, 29015, Note_on_c, 6, 66, 0
8, 29100, Note_on_c, 6, 69, 64
8, 29135, Note_on_c, 6, 69, 0
8, 29220, Note_on_c, 6, 71, 64
8, 29255, Note_on_c, 6, 71, 0
8, 29340, Note_on_c, 6, 71, 64
8, 29375, Note_on_c, 6, 71, 0
8, 29460, Note_on_c, 6, 69, 64
8, 29495, Note_on_c, 6, 69, 0
8, 29580, Note_on_c, 6, 69, 64
8, 29615, Note_on_c, 6, 69, 0
8, 29700, Note_on_c, 6, 67, 64
8, 29735, Note_on_c, 6, 67, 0
8, 29820, Note_on_c, 6, 67, 64
8, 29855, Note_on_c, 6, 67, 0
8, 29940, Note_on_c, 6, 66, 64
8, 29975, Note_on_c, 6, 66, 0
8, 30060, Note_on_c, 6, 66, 64
8, 30095, Note_on_c, 6, 66, 0
8, 30180, Note_on_c, 6, 74, 64
8, 30215, Note_on_c, 6, 74, 0
8, 30300, Note_on_c, 6, 73, 64
8, 30335, Note_on_c, 6, 73, 0
8, 30420, Note_on_c, 6, 76, 64
8, 30455, Note_on_c, 6, 76, 0
8, 30540, Note_on_c, 6, 76, 64
8, 30575, Note_on_c, 6, 76, 0
8, 30660, Note_on_c, 6, 76, 64
8, 30695, Note_on_c, 6, 76, 0
8, 30780, Note_on_c, 6, 76, 64
8, 30815, Note_on_c, 6, 76, 0
8, 30900, Note_on_c, 6, 76, 64
8, 30935, Note_on_c, 6, 76, 0
8, 31020, Note_on_c, 6, 69, 64
8, 31055, Note_on_c, 6, 69, 0
8, 31140, Note_on_c, 6, 69, 64
8, 31175, Note_on_c, 6, 69, 0
8, 31260, Note_on_c, 6, 67, 64
8, 31295, Note_on_c, 6, 67, 0
8, 31380, Note_on_c, 6, 72, 64
8, 31415, Note_on_c, 6, 72, 0
8, 31500, Note_on_c, 6, 71, 64
8, 31535, Note_on_c, 6, 71, 0
8, 31620, Note_on_c, 6, 67, 64
8, 31655, Note_on_c, 6, 67, 0
8, 31740, Note_on_c, 6, 71, 64
8, 31775, Note_on_c, 6, 71, 0
8, 31860, Note_on_c, 6, 71, 64
8, 31895, Note_on_c, 6, 71, 0
8, 31980, Note_on_c, 6, 69, 64
8, 32015, Note_on_c, 6, 69, 0
8, 32100, Note_on_c, 6, 78, 64
8, 32135, Note_on_c, 6, 78, 0
8, 32220, Note_on_c, 6, 81, 64
8, 32255, Note_on_c, 6, 81, 0
8, 32340, Note_on_c, 6, 81, 64
8, 32375, Note_on_c, 6, 81, 0
8, 32460, Note_on_c, 6, 74, 64
8, 32495, Note_on_c, 6, 74, 0
8, 32580, Note_on_c, 6, 74, 64
8, 32615, Note_on_c, 6, 74, 0
8, 32700, Note_on_c, 6, 74, 64
8, 32735, Note_on_c, 6, 74, 0
8, 32820, Note_on_c, 6, 73, 64
8, 32855, Note_on_c, 6, 73, 0
8, 32940, Note_on_c, 6, 71, 64
8, 32975, Note_on_c, 6, 71, 0
8, 33060, Note_on_c, 6, 71, 64
8, 33095, Note_on_c, 6, 71, 0
8, 33180, Note_on_c, 6, 69, 64
8, 33215, Note_on_c, 6, 69, 0
8, 33300, Note_on_c, 6, 69, 64
8, 33335, Note_on_c, 6, 69, 0
8, 33420, Note_on_c, 6, 74, 64
8, 33455, Note_on_c, 6, 74, 0
8, 33540, Note_on_c, 6, 74, 64
8, 33575, Note_on_c, 6, 74, 0
8, 33660, Note_on_c, 6, 76, 64
8, 33695, Note_on_c, 6, 76, 0
8, 33780, Note_on_c, 6, 76, 64
8, 33815, Note_on_c, 6, 76, 0
8, 33900, Note_on_c, 6, 76, 64
8, 33935, Note_on_c, 6, 76, 0
8, 34020, Note_on_c, 6, 76, 64
8, 34055, Note_on_c, 6, 76, 0
8, 34140, Note_on_c, 6, 69, 64
8, 34175, Note_on_c, 6, 69, 0
8, 34260, Note_on_c, 6, 69, 64
8, 34295, Note_on_c, 6, 69, 0
8, 34380, Note_on_c, 6, 71, 64
8, 34415, Note_on_c, 6, 71, 0
8, 34500, Note_on_c, 6, 71, 64
8, 34535, Note_on_c, 6, 71, 0
8, 34620, Note_on_c, 6, 76, 64
8, 34655, Note_on_c, 6, 76, 0
8, 34740, Note_on_c, 6, 69, 64
8, 34775, Note_on_c, 6, 69, 0
8, 34860, Note_on_c, 6, 71, 64
8, 34895, Note_on_c, 6, 71, 0
8, 34980, Note_on_c, 6, 71, 64
8, 35015, Note_on_c, 6, 71, 0
8, 35100, Note_on_c, 6, 69, 64
8, 35135, Note_on_c, 6, 69, 0
8, 35220, Note_on_c, 6, 69, 64
8, 35255, Note_on_c, 6, 69, 0
8, 35340, Note_on_c, 6, 71, 64
8, 35375, Note_on_c, 6, 71, 0
8, 35460, Note_on_c, 6, 71, 64
8, 35495, Note_on_c, 6, 71, 0
8, 35580, Note_on_c, 6, 66, 64
8, 35615, Note_on_c, 6, 66, 0
8, 35700, Note_on_c, 6, 64, 64
8, 35735, Note_on_c, 6, 64, 0
8, 36207, Control_c, 6, 7, 127
8, 36240, Note_on_c, 6, 66, 50
8, 36300, Note_on_c, 6, 66, 0
8, 36300, Note_on_c, 6, 78, 50
8, 36540, Note_on_c, 6, 78, 0
8, 36540, Note_on_c, 6, 77, 50
8, 36660, Note_on_c, 6, 77, 0
8, 36660, Note_on_c, 6, 78, 50
8, 36695, Note_on_c, 6, 78, 0
8, 36720, Note_on_c, 6, 73, 50
8, 36755, Note_on_c, 6, 73, 0
8, 37080, Note_on_c, 6, 73, 69
8, 37140, Note_on_c, 6, 73, 0
8, 37140, Note_on_c, 6, 75, 69
8, 37200, Note_on_c, 6, 75, 0
8, 37200, Note_on_c, 6, 76, 70
8, 37235, Note_on_c, 6, 76, 0
8, 37260, Note_on_c, 6, 76, 70
8, 37320, Note_on_c, 6, 76, 0
8, 37320, Note_on_c, 6, 78, 71
8, 37355, Note_on_c, 6, 78, 0
8, 37380, Note_on_c, 6, 78, 71
8, 37440, Note_on_c, 6, 78, 0
8, 37440, Note_on_c, 6, 76, 71
8, 37475, Note_on_c, 6, 76, 0
8, 37500, Note_on_c, 6, 78, 72
8, 37560, Note_on_c, 6, 78, 0
8, 37560, Note_on_c, 6, 75, 72
8, 37595, Note_on_c, 6, 75, 0
8, 37620, Note_on_c, 6, 76, 73
8, 37740, Note_on_c, 6, 76, 0
8, 38040, Note_on_c, 6, 71, 76
8, 38100, Note_on_c, 6, 71, 0
8, 38100, Note_on_c, 6, 73, 76
8, 38160, Note_on_c, 6, 73, 0
8, 38160, Note_on_c, 6, 74, 77
8, 38195, Note_on_c, 6, 74, 0
8, 38220, Note_on_c, 6, 74, 77
8, 38280, Note_on_c, 6, 74, 0
8, 38280, Note_on_c, 6, 76, 78
8, 38315, Note_on_c, 6, 76, 0
8, 38340, Note_on_c, 6, 76, 64
8, 38400, Note_on_c, 6, 76, 0
8, 38400, Note_on_c, 6, 74, 64
8, 38435, Note_on_c, 6, 74, 0
8, 38460, Note_on_c, 6, 76, 65
8, 38520, Note_on_c, 6, 76, 0
8, 38520, Note_on_c, 6, 73, 65
8, 38555, Note_on_c, 6, 73, 0
8, 38580, Note_on_c, 6, 74, 65
8, 38640, Note_on_c, 6, 74, 0
8, 38640, Note_on_c, 6, 76, 65
8, 38675, Note_on_c, 6, 76, 0
8, 38700, Note_on_c, 6, 76, 66
8, 38760, Note_on_c, 6, 76, 0
8, 38760, Note_on_c, 6, 78, 66
8, 38795, Note_on_c, 6, 78, 0
8, 38820, Note_on_c, 6, 78, 66
8, 38880, Note_on_c, 6, 78, 0
8, 38880, Note_on_c, 6, 76, 66
8, 38915, Note_on_c, 6, 76, 0
8, 38940, Note_on_c, 6, 78, 67
8, 39000, Note_on_c, 6, 78, 0
8, 39000, Note_on_c, 6, 74, 67
8, 39035, Note_on_c, 6, 74, 0
8, 39060, Note_on_c, 6, 74, 67
8, 39180, Note_on_c, 6, 74, 0
8, 39180, Note_on_c, 6, 71, 68
8, 39300, Note_on_c, 6, 71, 0
8, 39300, Note_on_c, 6, 69, 68
8, 39480, Note_on_c, 6, 69, 0
8, 39480, Note_on_c, 6, 71, 69
8, 39540, Note_on_c, 6, 71, 0
8, 39540, Note_on_c, 6, 69, 69
8, 39780, Note_on_c, 6, 69, 0
8, 39780, Note_on_c, 6, 69, 64
8, 39815, Note_on_c, 6, 69, 0
8, 39840, Note_on_c, 6, 57, 64
8, 39900, Note_on_c, 6, 57, 0
8, 39900, Note_on_c, 6, 62, 64
8, 39960, Note_on_c, 6, 62, 0
8, 39960, Note_on_c, 6, 64, 64
8, 40020, Note_on_c, 6, 64, 0
8, 40020, Note_on_c, 6, 66, 64
8, 40080, Note_on_c, 6, 66, 0
8, 40080, Note_on_c, 6, 71, 64
8, 40140, Note_on_c, 6, 71, 0
8, 40140, Note_on_c, 6, 71, 64
8, 40200, Note_on_c, 6, 71, 0
8, 40200, Note_on_c, 6, 68, 64
8, 40260, Note_on_c, 6, 68, 0
8, 40260, Note_on_c, 6, 64, 64
8, 40320, Note_on_c, 6, 64, 0
8, 40320, Note_on_c, 6, 66, 64
8, 40355, Note_on_c, 6, 66, 0
8, 40380, Note_on_c, 6, 66, 64
8, 40440, Note_on_c, 6, 66, 0
8, 40440, Note_on_c, 6, 67, 64
8, 40475, Note_on_c, 6, 67, 0
8, 40500, Note_on_c, 6, 67, 64
8, 40560, Note_on_c, 6, 67, 0
8, 40560, Note_on_c, 6, 66, 64
8, 40595, Note_on_c, 6, 66, 0
8, 40620, Note_on_c, 6, 67, 64
8, 40680, Note_on_c, 6, 67, 0
8, 40680, Note_on_c, 6, 69, 64
8, 40715, Note_on_c, 6, 69, 0
8, 40740, Note_on_c, 6, 66, 64
8, 40800, Note_on_c, 6, 66, 0
8, 40800, Note_on_c, 6, 64, 64
8, 40860, Note_on_c, 6, 64, 0
8, 40860, Note_on_c, 6, 62, 64
8, 40920, Note_on_c, 6, 62, 0
8, 40920, Note_on_c, 6, 61, 64
8, 40980, Note_on_c, 6, 61, 0
8, 40980, Note_on_c, 6, 59, 64
8, 41015, Note_on_c, 6, 59, 0
8, 41040, Note_on_c, 6, 69, 64
8, 41070, Note_on_c, 6, 69, 0
8, 41070, Note_on_c, 6, 68, 64
8, 41100, Note_on_c, 6, 68, 0
8, 41100, Note_on_c, 6, 69, 64
8, 41160, Note_on_c, 6, 69, 0
8, 41160, Note_on_c, 6, 62, 64
8, 41220, Note_on_c, 6, 62, 0
8, 41220, Note_on_c, 6, 61, 64
8, 41340, Note_on_c, 6, 61, 0
8, 41340, Note_on_c, 6, 59, 64
8, 41460, Note_on_c, 6, 59, 0
8, 41460, Note_on_c, 6, 57, 64
8, 41490, Note_on_c, 6, 57, 0
8, 41490, Note_on_c, 6, 56, 64
8, 41520, Note_on_c, 6, 56, 0
8, 41520, Note_on_c, 6, 57, 64
8, 41550, Note_on_c, 6, 57, 0
8, 41550, Note_on_c, 6, 59, 64
8, 41580, Note_on_c, 6, 59, 0
8, 41580, Note_on_c, 6, 61, 64
8, 41610, Note_on_c, 6, 61, 0
8, 41610, Note_on_c, 6, 62, 64
8, 41640, Note_on_c, 6, 62, 0
8, 41640, Note_on_c, 6, 64, 64
8, 41670, Note_on_c, 6, 64, 0
8, 41670, Note_on_c, 6, 66, 64
8, 41700, Note_on_c, 6, 66, 0
8, 41700, Note_on_c, 6, 67, 64
8, 41760, Note_on_c, 6, 67, 0
8, 41760, Note_on_c, 6, 69, 64
8, 41790, Note_on_c, 6, 69, 0
8, 41790, Note_on_c, 6, 71, 64
8, 41820, Note_on_c, 6, 71, 0
8, 41820, Note_on_c, 6, 69, 64
8, 41850, Note_on_c, 6, 69, 0
8, 41850, Note_on_c, 6, 67, 64
8, 41880, Note_on_c, 6, 67, 0
8, 41880, Note_on_c, 6, 66, 64
8, 41910, Note_on_c, 6, 66, 0
8, 41910, Note_on_c, 6, 64, 64
8, 41940, Note_on_c, 6, 64, 0
8, 41940, Note_on_c, 6, 66, 64
8, 41970, Note_on_c, 6, 66, 0
8, 41970, Note_on_c, 6, 69, 64
8, 42000, Note_on_c, 6, 69, 0
8, 42000, Note_on_c, 6, 74, 64
8, 42030, Note_on_c, 6, 74, 0
8, 42030, Note_on_c, 6, 72, 64
8, 42060, Note_on_c, 6, 72, 0
8, 42060, Note_on_c, 6, 71, 64
8, 42090, Note_on_c, 6, 71, 0
8, 42090, Note_on_c, 6, 69, 64
8, 42120, Note_on_c, 6, 69, 0
8, 42120, Note_on_c, 6, 67, 64
8, 42150, Note_on_c, 6, 67, 0
8, 42150, Note_on_c, 6, 66, 64
8, 42180, Note_on_c, 6, 66, 0
8, 42180, Note_on_c, 6, 64, 64
8, 42210, Note_on_c, 6, 64, 0
8, 42210, Note_on_c, 6, 67, 64
8, 42240, Note_on_c, 6, 67, 0
8, 42240, Note_on_c, 6, 72, 64
8, 42270, Note_on_c, 6, 72, 0
8, 42270, Note_on_c, 6, 71, 64
8, 42300, Note_on_c, 6, 71, 0
8, 42300, Note_on_c, 6, 69, 64
8, 42330, Note_on_c, 6, 69, 0
8, 42330, Note_on_c, 6, 67, 64
8, 42360, Note_on_c, 6, 67, 0
8, 42360, Note_on_c, 6, 66, 64
8, 42390, Note_on_c, 6, 66, 0
8, 42390, Note_on_c, 6, 64, 64
8, 42420, Note_on_c, 6, 64, 0
8, 42420, Note_on_c, 6, 62, 64
8, 42450, Note_on_c, 6, 62, 0
8, 42450, Note_on_c, 6, 66, 64
8, 42480, Note_on_c, 6, 66, 0
8, 42480, Note_on_c, 6, 67, 64
8, 42510, Note_on_c, 6, 67, 0
8, 42510, Note_on_c, 6, 69, 64
8, 42540, Note_on_c, 6, 69, 0
8, 42540, Note_on_c, 6, 71, 64
8, 42570, Note_on_c, 6, 71, 0
8, 42570, Note_on_c, 6, 72, 64
8, 42600, Note_on_c, 6, 72, 0
8, 42600, Note_on_c, 6, 71, 64
8, 42630, Note_on_c, 6, 71, 0
8, 42630, Note_on_c, 6, 69, 64
8, 42660, Note_on_c, 6, 69, 0
8, 42660, Note_on_c, 6, 67, 64
8, 42690, Note_on_c, 6, 67, 0
8, 42690, Note_on_c, 6, 66, 64
8, 42720, Note_on_c, 6, 66, 0
8, 42720, Note_on_c, 6, 64, 64
8, 42750, Note_on_c, 6, 64, 0
8, 42750, Note_on_c, 6, 67, 64
8, 42780, Note_on_c, 6, 67, 0
8, 42780, Note_on_c, 6, 66, 64
8, 42810, Note_on_c, 6, 66, 0
8, 42810, Note_on_c, 6, 64, 64
8, 42840, Note_on_c, 6, 64, 0
8, 42840, Note_on_c, 6, 62, 64
8, 42870, Note_on_c, 6, 62, 0
8, 42870, Note_on_c, 6, 61, 64
8, 42900, Note_on_c, 6, 61, 0
8, 42900, Note_on_c, 6, 69, 64
8, 42960, Note_on_c, 6, 69, 0
8, 42960, Note_on_c, 6, 62, 64
8, 43080, Note_on_c, 6, 62, 0
8, 43080, Note_on_c, 6, 61, 64
8, 43140, Note_on_c, 6, 61, 0
8, 43140, Note_on_c, 6, 62, 64
8, 43175, Note_on_c, 6, 62, 0
8, 43200, Note_on_c, 6, 69, 64
8, 43260, Note_on_c, 6, 69, 0
8, 43260, Note_on_c, 6, 74, 64
8, 43320, Note_on_c, 6, 74, 0
8, 43320, Note_on_c, 6, 62, 64
8, 43380, Note_on_c, 6, 62, 0
8, 43380, Note_on_c, 6, 64, 64
8, 43440, Note_on_c, 6, 64, 0
8, 43440, Note_on_c, 6, 66, 64
8, 43470, Note_on_c, 6, 66, 0
8, 43470, Note_on_c, 6, 67, 64
8, 43500, Note_on_c, 6, 67, 0
8, 43500, Note_on_c, 6, 69, 64
8, 43680, Note_on_c, 6, 69, 0
8, 43680, Note_on_c, 6, 67, 50
8, 43715, Note_on_c, 6, 67, 0
8, 43740, Note_on_c, 6, 67, 64
8, 43800, Note_on_c, 6, 67, 0
8, 43800, Note_on_c, 6, 69, 64
8, 43860, Note_on_c, 6, 69, 0
8, 43860, Note_on_c, 6, 69, 64
8, 43890, Note_on_c, 6, 69, 0
8, 43890, Note_on_c, 6, 71, 64
8, 43920, Note_on_c, 6, 71, 0
8, 43920, Note_on_c, 6, 69, 64
8, 43950, Note_on_c, 6, 69, 0
8, 43950, Note_on_c, 6, 71, 64
8, 43980, Note_on_c, 6, 71, 0
8, 43980, Note_on_c, 6, 72, 64
8, 43995, Note_on_c, 6, 72, 0
8, 43995, Note_on_c, 6, 71, 64
8, 44010, Note_on_c, 6, 71, 0
8, 44010, Note_on_c, 6, 72, 64
8, 44025, Note_on_c, 6, 72, 0
8, 44025, Note_on_c, 6, 71, 64
8, 44040, Note_on_c, 6, 71, 0
8, 44040, Note_on_c, 6, 72, 64
8, 44055, Note_on_c, 6, 72, 0
8, 44055, Note_on_c, 6, 71, 64
8, 44070, Note_on_c, 6, 71, 0
8, 44070, Note_on_c, 6, 72, 64
8, 44100, Note_on_c, 6, 72, 0
8, 44100, Note_on_c, 6, 72, 64
8, 44220, Note_on_c, 6, 72, 0
8, 44280, Note_on_c, 6, 55, 64
8, 44340, Note_on_c, 6, 55, 0
8, 44340, Note_on_c, 6, 64, 64
8, 44400, Note_on_c, 6, 64, 0
8, 44400, Note_on_c, 6, 62, 64
8, 44520, Note_on_c, 6, 62, 0
8, 44520, Note_on_c, 6, 67, 64
8, 44580, Note_on_c, 6, 67, 0
8, 44580, Note_on_c, 6, 67, 64
8, 44615, Note_on_c, 6, 67, 0
8, 44640, Note_on_c, 6, 66, 65
8, 44670, Note_on_c, 6, 66, 0
8, 44670, Note_on_c, 6, 64, 65
8, 44700, Note_on_c, 6, 64, 0
8, 44700, Note_on_c, 6, 62, 65
8, 44760, Note_on_c, 6, 62, 0
8, 44760, Note_on_c, 6, 60, 66
8, 44820, Note_on_c, 6, 60, 0
8, 44820, Note_on_c, 6, 59, 66
8, 44855, Note_on_c, 6, 59, 0
8, 44880, Note_on_c, 6, 74, 67
8, 44910, Note_on_c, 6, 74, 0
8, 44910, Note_on_c, 6, 73, 67
8, 44940, Note_on_c, 6, 73, 0
8, 44940, Note_on_c, 6, 71, 67
8, 44970, Note_on_c, 6, 71, 0
8, 44970, Note_on_c, 6, 69, 67
8, 45000, Note_on_c, 6, 69, 0
8, 45000, Note_on_c, 6, 67, 68
8, 45030, Note_on_c, 6, 67, 0
8, 45030, Note_on_c, 6, 66, 68
8, 45060, Note_on_c, 6, 66, 0
8, 45060, Note_on_c, 6, 64, 68
8, 45120, Note_on_c, 6, 64, 0
8, 45120, Note_on_c, 6, 66, 69
8, 45150, Note_on_c, 6, 66, 0
8, 45150, Note_on_c, 6, 67, 69
8, 45180, Note_on_c, 6, 67, 0
8, 45180, Note_on_c, 6, 69, 69
8, 45240, Note_on_c, 6, 69, 0
8, 45240, Note_on_c, 6, 67, 70
8, 45300, Note_on_c, 6, 67, 0
8, 45300, Note_on_c, 6, 66, 70
8, 45420, Note_on_c, 6, 66, 0
8, 45480, Note_on_c, 6, 62, 72
8, 45540, Note_on_c, 6, 62, 0
8, 45540, Note_on_c, 6, 69, 72
8, 45660, Note_on_c, 6, 69, 0
8, 45720, Note_on_c, 6, 66, 74
8, 45780, Note_on_c, 6, 66, 0
8, 45780, Note_on_c, 6, 67, 74
8, 45900, Note_on_c, 6, 67, 0
8, 45960, Note_on_c, 6, 71, 76
8, 46020, Note_on_c, 6, 71, 0
8, 46020, Note_on_c, 6, 73, 76
8, 46080, Note_on_c, 6, 73, 0
8, 46080, Note_on_c, 6, 76, 77
8, 46140, Note_on_c, 6, 76, 0
8, 46140, Note_on_c, 6, 74, 77
8, 46200, Note_on_c, 6, 74, 0
8, 46200, Note_on_c, 6, 71, 78
8, 46260, Note_on_c, 6, 71, 0
8, 46260, Note_on_c, 6, 69, 78
8, 46500, Note_on_c, 6, 69, 0
8, 46500, Note_on_c, 6, 69, 64
8, 46620, Note_on_c, 6, 69, 0
8, 47880, Note_on_c, 6, 66, 64
8, 48000, Note_on_c, 6, 66, 0
8, 48000, Note_on_c, 6, 68, 32
8, 48035, Note_on_c, 6, 68, 0
8, 48060, Note_on_c, 6, 68, 34
8, 48120, Note_on_c, 6, 68, 0
8, 48120, Note_on_c, 6, 69, 36
8, 48155, Note_on_c, 6, 69, 0
8, 48180, Note_on_c, 6, 69, 38
8, 48240, Note_on_c, 6, 69, 0
8, 48240, Note_on_c, 6, 68, 40
8, 48275, Note_on_c, 6, 68, 0
8, 48300, Note_on_c, 6, 69, 43
8, 48360, Note_on_c, 6, 69, 0
8, 48360, Note_on_c, 6, 71, 45
8, 48395, Note_on_c, 6, 71, 0
8, 48420, Note_on_c, 6, 68, 47
8, 48480, Note_on_c, 6, 68, 0
8, 48480, Note_on_c, 6, 69, 49
8, 48515, Note_on_c, 6, 69, 0
8, 48540, Note_on_c, 6, 69, 51
8, 48600, Note_on_c, 6, 69, 0
8, 48600, Note_on_c, 6, 71, 53
8, 48635, Note_on_c, 6, 71, 0
8, 48660, Note_on_c, 6, 71, 55
8, 48720, Note_on_c, 6, 71, 0
8, 48720, Note_on_c, 6, 69, 57
8, 48755, Note_on_c, 6, 69, 0
8, 48780, Note_on_c, 6, 71, 59
8, 48840, Note_on_c, 6, 71, 0
8, 48840, Note_on_c, 6, 68, 61
8, 48875, Note_on_c, 6, 68, 0
8, 48900, Note_on_c, 6, 69, 63
8, 48935, Note_on_c, 6, 69, 0
8, 49020, Note_on_c, 6, 78, 68
8, 49055, Note_on_c, 6, 78, 0
8, 49140, Note_on_c, 6, 76, 72
8, 49175, Note_on_c, 6, 76, 0
8, 49260, Note_on_c, 6, 73, 76
8, 49295, Note_on_c, 6, 73, 0
8, 49380, Note_on_c, 6, 74, 80
8, 49415, Note_on_c, 6, 74, 0
8, 49560, Note_on_c, 6, 66, 81
8, 49595, Note_on_c, 6, 66, 0
8, 49620, Note_on_c, 6, 69, 81
8, 49655, Note_on_c, 6, 69, 0
8, 49800, Note_on_c, 6, 66, 82
8, 49835, Note_on_c, 6, 66, 0
8, 49860, Note_on_c, 6, 67, 83
8, 49895, Note_on_c, 6, 67, 0
8, 50280, Note_on_c, 6, 68, 85
8, 50315, Note_on_c, 6, 68, 0
8, 50340, Note_on_c, 6, 71, 85
8, 50375, Note_on_c, 6, 71, 0
8, 50520, Note_on_c, 6, 68, 86
8, 50555, Note_on_c, 6, 68, 0
8, 50580, Note_on_c, 6, 69, 86
8, 50615, Note_on_c, 6, 69, 0
8, 51000, Note_on_c, 6, 70, 88
8, 51035, Note_on_c, 6, 70, 0
8, 51060, Note_on_c, 6, 73, 89
8, 51095, Note_on_c, 6, 73, 0
8, 51240, Note_on_c, 6, 70, 90
8, 51275, Note_on_c, 6, 70, 0
8, 51300, Note_on_c, 6, 71, 80
8, 51420, Note_on_c, 6, 71, 0
8, 51480, Note_on_c, 6, 64, 82
8, 51600, Note_on_c, 6, 64, 0
8, 51600, Note_on_c, 6, 66, 84
8, 51635, Note_on_c, 6, 66, 0
8, 51660, Note_on_c, 6, 66, 84
8, 51720, Note_on_c, 6, 66, 0
8, 51720, Note_on_c, 6, 67, 85
8, 51755, Note_on_c, 6, 67, 0
8, 51780, Note_on_c, 6, 67, 86
8, 51840, Note_on_c, 6, 67, 0
8, 51840, Note_on_c, 6, 66, 86
8, 51875, Note_on_c, 6, 66, 0
8, 51900, Note_on_c, 6, 67, 87
8, 51960, Note_on_c, 6, 67, 0
8, 51960, Note_on_c, 6, 69, 88
8, 51995, Note_on_c, 6, 69, 0
8, 52020, Note_on_c, 6, 66, 89
8, 52080, Note_on_c, 6, 66, 0
8, 52080, Note_on_c, 6, 64, 89
8, 52115, Note_on_c, 6, 64, 0
8, 52140, Note_on_c, 6, 62, 90
8, 52200, Note_on_c, 6, 62, 0
8, 52200, Note_on_c, 6, 61, 91
8, 52235, Note_on_c, 6, 61, 0
8, 52260, Note_on_c, 6, 59, 91
8, 52320, Note_on_c, 6, 59, 0
8, 52320, Note_on_c, 6, 69, 92
8, 52350, Note_on_c, 6, 69, 0
8, 52350, Note_on_c, 6, 68, 93
8, 52380, Note_on_c, 6, 68, 0
8, 52380, Note_on_c, 6, 69, 93
8, 52440, Note_on_c, 6, 69, 0
8, 52440, Note_on_c, 6, 62, 94
8, 52500, Note_on_c, 6, 62, 0
8, 52500, Note_on_c, 6, 61, 94
8, 52620, Note_on_c, 6, 61, 0
8, 52620, Note_on_c, 6, 59, 96
8, 52740, Note_on_c, 6, 59, 0
8, 52740, Note_on_c, 6, 57, 97
8, 52770, Note_on_c, 6, 57, 0
8, 52770, Note_on_c, 6, 55, 98
8, 52800, Note_on_c, 6, 55, 0
8, 52800, Note_on_c, 6, 57, 98
8, 52830, Note_on_c, 6, 57, 0
8, 52830, Note_on_c, 6, 59, 98
8, 52860, Note_on_c, 6, 59, 0
8, 52860, Note_on_c, 6, 61, 99
8, 52890, Note_on_c, 6, 61, 0
8, 52890, Note_on_c, 6, 62, 99
8, 52920, Note_on_c, 6, 62, 0
8, 52920, Note_on_c, 6, 64, 99
8, 52950, Note_on_c, 6, 64, 0
8, 52950, Note_on_c, 6, 66, 100
8, 52980, Note_on_c, 6, 66, 0
8, 52980, Note_on_c, 6, 67, 100
8, 53040, Note_on_c, 6, 67, 0
8, 53040, Note_on_c, 6, 69, 101
8, 53070, Note_on_c, 6, 69, 0
8, 53070, Note_on_c, 6, 71, 101
8, 53100, Note_on_c, 6, 71, 0
8, 53100, Note_on_c, 6, 69, 101
8, 53130, Note_on_c, 6, 69, 0
8, 53130, Note_on_c, 6, 67, 102
8, 53160, Note_on_c, 6, 67, 0
8, 53160, Note_on_c, 6, 66, 102
8, 53190, Note_on_c, 6, 66, 0
8, 53190, Note_on_c, 6, 64, 103
8, 53220, Note_on_c, 6, 64, 0
8, 53220, Note_on_c, 6, 66, 103
8, 53250, Note_on_c, 6, 66, 0
8, 53250, Note_on_c, 6, 69, 103
8, 53280, Note_on_c, 6, 69, 0
8, 53280, Note_on_c, 6, 74, 104
8, 53310, Note_on_c, 6, 74, 0
8, 53310, Note_on_c, 6, 72, 104
8, 53340, Note_on_c, 6, 72, 0
8, 53340, Note_on_c, 6, 71, 104
8, 53370, Note_on_c, 6, 71, 0
8, 53370, Note_on_c, 6, 69, 105
8, 53400, Note_on_c, 6, 69, 0
8, 53400, Note_on_c, 6, 67, 105
8, 53430, Note_on_c, 6, 67, 0
8, 53430, Note_on_c, 6, 66, 105
8, 53460, Note_on_c, 6, 66, 0
8, 53460, Note_on_c, 6, 64, 106
8, 53490, Note_on_c, 6, 64, 0
8, 53490, Note_on_c, 6, 67, 106
8, 53520, Note_on_c, 6, 67, 0
8, 53520, Note_on_c, 6, 72, 106
8, 53550, Note_on_c, 6, 72, 0
8, 53550, Note_on_c, 6, 71, 107
8, 53580, Note_on_c, 6, 71, 0
8, 53580, Note_on_c, 6, 69, 107
8, 53610, Note_on_c, 6, 69, 0
8, 53610, Note_on_c, 6, 67, 108
8, 53640, Note_on_c, 6, 67, 0
8, 53640, Note_on_c, 6, 66, 108
8, 53670, Note_on_c, 6, 66, 0
8, 53670, Note_on_c, 6, 64, 108
8, 53700, Note_on_c, 6, 64, 0
8, 53700, Note_on_c, 6, 62, 109
8, 53730, Note_on_c, 6, 62, 0
8, 53730, Note_on_c, 6, 66, 109
8, 53760, Note_on_c, 6, 66, 0
8, 53760, Note_on_c, 6, 67, 109
8, 53790, Note_on_c, 6, 67, 0
8, 53790, Note_on_c, 6, 69, 110
8, 53820, Note_on_c, 6, 69, 0
8, 53820, Note_on_c, 6, 71, 110
8, 53850, Note_on_c, 6, 71, 0
8, 53850, Note_on_c, 6, 67, 110
8, 53880, Note_on_c, 6, 67, 0
8, 53880, Note_on_c, 6, 69, 111
8, 53910, Note_on_c, 6, 69, 0
8, 53910, Note_on_c, 6, 71, 111
8, 53940, Note_on_c, 6, 71, 0
8, 53940, Note_on_c, 6, 64, 111
8, 54000, Note_on_c, 6, 64, 0
8, 54000, Note_on_c, 6, 66, 112
8, 54030, Note_on_c, 6, 66, 0
8, 54030, Note_on_c, 6, 67, 113
8, 54060, Note_on_c, 6, 67, 0
8, 54060, Note_on_c, 6, 69, 113
8, 54095, Note_on_c, 6, 69, 0
8, 54120, Note_on_c, 6, 71, 114
8, 54155, Note_on_c, 6, 71, 0
8, 54180, Note_on_c, 6, 69, 114
8, 54420, Note_on_c, 6, 69, 0
8, 54420, Note_on_c, 6, 69, 117
8, 54660, Note_on_c, 6, 69, 0
8, 55140, End_track
9, 0, Start_track
9, 0, MIDI_port, 0
9, 0, Title_t, "Viola"
9, 0, Program_c, 7, 48
9, 210, Note_on_c, 7, 62, 70
9, 240, Note_on_c, 7, 62, 0
9, 240, Note_on_c, 7, 66, 70
9, 270, Note_on_c, 7, 66, 0
9, 270, Note_on_c, 7, 69, 70
9, 300, Note_on_c, 7, 69, 0
9, 300, Note_on_c, 7, 66, 70
9, 330, Note_on_c, 7, 66, 0
9, 330, Note_on_c, 7, 62, 70
9, 360, Note_on_c, 7, 62, 0
9, 360, Note_on_c, 7, 69, 70
9, 570, Note_on_c, 7, 69, 0
9, 570, Note_on_c, 7, 62, 70
9, 600, Note_on_c, 7, 62, 0
9, 600, Note_on_c, 7, 66, 70
9, 630, Note_on_c, 7, 66, 0
9, 630, Note_on_c, 7, 69, 70
9, 660, Note_on_c, 7, 69, 0
9, 660, Note_on_c, 7, 66, 70
9, 690, Note_on_c, 7, 66, 0
9, 690, Note_on_c, 7, 62, 70
9, 720, Note_on_c, 7, 62, 0
9, 720, Note_on_c, 7, 69, 70
9, 935, Note_on_c, 7, 69, 0
9, 960, Note_on_c, 7, 66, 70
9, 995, Note_on_c, 7, 66, 0
9, 1020, Note_on_c, 7, 64, 70
9, 1055, Note_on_c, 7, 64, 0
9, 1080, Note_on_c, 7, 62, 70
9, 1115, Note_on_c, 7, 62, 0
9, 1140, Note_on_c, 7, 62, 70
9, 1175, Note_on_c, 7, 62, 0
9, 1200, Note_on_c, 7, 69, 70
9, 1235, Note_on_c, 7, 69, 0
9, 1260, Note_on_c, 7, 69, 70
9, 1295, Note_on_c, 7, 69, 0
9, 1470, Note_on_c, 7, 62, 70
9, 1500, Note_on_c, 7, 62, 0
9, 1500, Note_on_c, 7, 66, 70
9, 1530, Note_on_c, 7, 66, 0
9, 1530, Note_on_c, 7, 69, 70
9, 1560, Note_on_c, 7, 69, 0
9, 1560, Note_on_c, 7, 66, 70
9, 1590, Note_on_c, 7, 66, 0
9, 1590, Note_on_c, 7, 62, 70
9, 1620, Note_on_c, 7, 62, 0
9, 1620, Note_on_c, 7, 69, 70
9, 1655, Note_on_c, 7, 69, 0
9, 1680, Note_on_c, 7, 64, 70
9, 1715, Note_on_c, 7, 64, 0
9, 1740, Note_on_c, 7, 64, 70
9, 1775, Note_on_c, 7, 64, 0
9, 1800, Note_on_c, 7, 66, 64
9, 1835, Note_on_c, 7, 66, 0
9, 1860, Note_on_c, 7, 61, 64
9, 1895, Note_on_c, 7, 61, 0
9, 1920, Note_on_c, 7, 61, 64
9, 1955, Note_on_c, 7, 61, 0
9, 1980, Note_on_c, 7, 59, 64
9, 2015, Note_on_c, 7, 59, 0
9, 2040, Note_on_c, 7, 66, 64
9, 2075, Note_on_c, 7, 66, 0
9, 2100, Note_on_c, 7, 66, 64
9, 2135, Note_on_c, 7, 66, 0
9, 2160, Note_on_c, 7, 59, 64
9, 2195, Note_on_c, 7, 59, 0
9, 2220, Note_on_c, 7, 64, 64
9, 2255, Note_on_c, 7, 64, 0
9, 2280, Note_on_c, 7, 71, 64
9, 2315, Note_on_c, 7, 71, 0
9, 2340, Note_on_c, 7, 71, 64
9, 2375, Note_on_c, 7, 71, 0
9, 2400, Note_on_c, 7, 59, 64
9, 2435, Note_on_c, 7, 59, 0
9, 2460, Note_on_c, 7, 59, 64
9, 2495, Note_on_c, 7, 59, 0
9, 2520, Note_on_c, 7, 59, 64
9, 2555, Note_on_c, 7, 59, 0
9, 2580, Note_on_c, 7, 71, 64
9, 2615, Note_on_c, 7, 71, 0
9, 2640, Note_on_c, 7, 71, 64
9, 2675, Note_on_c, 7, 71, 0
9, 2700, Note_on_c, 7, 69, 64
9, 2735, Note_on_c, 7, 69, 0
9, 2760, Note_on_c, 7, 64, 64
9, 2795, Note_on_c, 7, 64, 0
9, 2820, Note_on_c, 7, 64, 64
9, 2855, Note_on_c, 7, 64, 0
9, 2880, Note_on_c, 7, 57, 64
9, 2915, Note_on_c, 7, 57, 0
9, 2940, Note_on_c, 7, 62, 64
9, 2975, Note_on_c, 7, 62, 0
9, 3000, Note_on_c, 7, 69, 64
9, 3035, Note_on_c, 7, 69, 0
9, 3060, Note_on_c, 7, 69, 64
9, 3095, Note_on_c, 7, 69, 0
9, 3180, Note_on_c, 7, 71, 64
9, 3215, Note_on_c, 7, 71, 0
9, 3240, Note_on_c, 7, 71, 64
9, 3275, Note_on_c, 7, 71, 0
9, 3360, Note_on_c, 7, 64, 64
9, 3395, Note_on_c, 7, 64, 0
9, 3420, Note_on_c, 7, 71, 64
9, 3455, Note_on_c, 7, 71, 0
9, 3540, Note_on_c, 7, 74, 64
9, 3575, Note_on_c, 7, 74, 0
9, 3600, Note_on_c, 7, 76, 64
9, 3635, Note_on_c, 7, 76, 0
9, 3720, Note_on_c, 7, 69, 64
9, 3755, Note_on_c, 7, 69, 0
9, 3780, Note_on_c, 7, 71, 64
9, 3815, Note_on_c, 7, 71, 0
9, 3900, Note_on_c, 7, 71, 67
9, 3935, Note_on_c, 7, 71, 0
9, 3960, Note_on_c, 7, 64, 68
9, 3995, Note_on_c, 7, 64, 0
9, 4080, Note_on_c, 7, 62, 71
9, 4115, Note_on_c, 7, 62, 0
9, 4140, Note_on_c, 7, 59, 72
9, 4175, Note_on_c, 7, 59, 0
9, 4200, Note_on_c, 7, 61, 73
9, 4235, Note_on_c, 7, 61, 0
9, 4260, Note_on_c, 7, 62, 75
9, 4350, Note_on_c, 7, 62, 0
9, 4350, Note_on_c, 7, 59, 77
9, 4380, Note_on_c, 7, 59, 0
9, 4380, Note_on_c, 7, 64, 77
9, 4415, Note_on_c, 7, 64, 0
9, 4440, Note_on_c, 7, 64, 79
9, 4475, Note_on_c, 7, 64, 0
9, 4500, Note_on_c, 7, 66, 80
9, 4535, Note_on_c, 7, 66, 0
9, 4535, Control_c, 7, 7, 75
9, 5220, Note_on_c, 7, 66, 55
9, 5255, Note_on_c, 7, 66, 0
9, 5280, Note_on_c, 7, 66, 56
9, 5315, Note_on_c, 7, 66, 0
9, 5340, Note_on_c, 7, 67, 57
9, 5375, Note_on_c, 7, 67, 0
9, 5400, Note_on_c, 7, 69, 58
9, 5435, Note_on_c, 7, 69, 0
9, 5460, Note_on_c, 7, 71, 59
9, 5495, Note_on_c, 7, 71, 0
9, 5520, Note_on_c, 7, 69, 60
9, 5555, Note_on_c, 7, 69, 0
9, 5580, Note_on_c, 7, 57, 61
9, 5615, Note_on_c, 7, 57, 0
9, 5760, Note_on_c, 7, 62, 64
9, 5795, Note_on_c, 7, 62, 0
9, 5940, Note_on_c, 7, 64, 67
9, 5975, Note_on_c, 7, 64, 0
9, 6120, Control_c, 7, 7, 127
9, 6180, Note_on_c, 7, 69, 64
9, 6215, Note_on_c, 7, 69, 0
9, 6240, Note_on_c, 7, 67, 64
9, 6275, Note_on_c, 7, 67, 0
9, 6300, Note_on_c, 7, 66, 64
9, 6335, Note_on_c, 7, 66, 0
9, 6360, Note_on_c, 7, 61, 64
9, 6395, Note_on_c, 7, 61, 0
9, 6420, Note_on_c, 7, 61, 64
9, 6455, Note_on_c, 7, 61, 0
9, 6480, Note_on_c, 7, 54, 64
9, 6515, Note_on_c, 7, 54, 0
9, 6540, Note_on_c, 7, 59, 64
9, 6575, Note_on_c, 7, 59, 0
9, 6600, Note_on_c, 7, 66, 64
9, 6635, Note_on_c, 7, 66, 0
9, 6660, Note_on_c, 7, 66, 64
9, 6695, Note_on_c, 7, 66, 0
9, 6720, Note_on_c, 7, 66, 64
9, 6755, Note_on_c, 7, 66, 0
9, 6780, Note_on_c, 7, 66, 64
9, 6815, Note_on_c, 7, 66, 0
9, 6840, Note_on_c, 7, 66, 64
9, 6875, Note_on_c, 7, 66, 0
9, 6900, Note_on_c, 7, 66, 64
9, 6935, Note_on_c, 7, 66, 0
9, 6960, Note_on_c, 7, 66, 64
9, 6995, Note_on_c, 7, 66, 0
9, 7020, Note_on_c, 7, 64, 64
9, 7055, Note_on_c, 7, 64, 0
9, 7080, Note_on_c, 7, 59, 64
9, 7115, Note_on_c, 7, 59, 0
9, 7140, Note_on_c, 7, 59, 64
9, 7175, Note_on_c, 7, 59, 0
9, 7200, Note_on_c, 7, 52, 64
9, 7235, Note_on_c, 7, 52, 0
9, 7260, Note_on_c, 7, 59, 64
9, 7295, Note_on_c, 7, 59, 0
9, 7320, Note_on_c, 7, 64, 64
9, 7355, Note_on_c, 7, 64, 0
9, 7380, Control_c, 7, 7, 75
9, 7380, Note_on_c, 7, 64, 64
9, 7415, Note_on_c, 7, 64, 0
9, 8100, Note_on_c, 7, 64, 64
9, 8135, Note_on_c, 7, 64, 0
9, 8160, Note_on_c, 7, 61, 65
9, 8195, Note_on_c, 7, 61, 0
9, 8220, Note_on_c, 7, 62, 66
9, 8255, Note_on_c, 7, 62, 0
9, 8280, Note_on_c, 7, 69, 67
9, 8315, Note_on_c, 7, 69, 0
9, 8340, Note_on_c, 7, 59, 68
9, 8375, Note_on_c, 7, 59, 0
9, 8400, Note_on_c, 7, 64, 69
9, 8435, Note_on_c, 7, 64, 0
9, 8460, Note_on_c, 7, 64, 70
9, 8495, Note_on_c, 7, 64, 0
9, 8640, Note_on_c, 7, 69, 74
9, 8675, Note_on_c, 7, 69, 0
9, 8820, Note_on_c, 7, 68, 77
9, 8855, Note_on_c, 7, 68, 0
9, 8880, Note_on_c, 7, 64, 78
9, 8915, Note_on_c, 7, 64, 0
9, 8940, Note_on_c, 7, 59, 79
9, 8975, Note_on_c, 7, 59, 0
9, 9000, Note_on_c, 7, 61, 40
9, 9035, Note_on_c, 7, 61, 0
9, 9060, Note_on_c, 7, 68, 43
9, 9095, Note_on_c, 7, 68, 0
9, 9120, Note_on_c, 7, 68, 46
9, 9155, Note_on_c, 7, 68, 0
9, 9180, Note_on_c, 7, 66, 49
9, 9215, Note_on_c, 7, 66, 0
9, 9240, Note_on_c, 7, 61, 51
9, 9275, Note_on_c, 7, 61, 0
9, 9300, Note_on_c, 7, 61, 54
9, 9335, Note_on_c, 7, 61, 0
9, 9360, Note_on_c, 7, 54, 57
9, 9395, Note_on_c, 7, 54, 0
9, 9420, Note_on_c, 7, 59, 60
9, 9455, Note_on_c, 7, 59, 0
9, 9480, Note_on_c, 7, 66, 63
9, 9515, Note_on_c, 7, 66, 0
9, 9540, Note_on_c, 7, 66, 66
9, 9575, Note_on_c, 7, 66, 0
9, 9600, Note_on_c, 7, 62, 68
9, 9635, Note_on_c, 7, 62, 0
9, 9660, Note_on_c, 7, 64, 71
9, 9695, Note_on_c, 7, 64, 0
9, 9720, Note_on_c, 7, 66, 50
9, 9755, Note_on_c, 7, 66, 0
9, 9780, Note_on_c, 7, 66, 52
9, 9815, Note_on_c, 7, 66, 0
9, 9840, Note_on_c, 7, 66, 54
9, 9875, Note_on_c, 7, 66, 0
9, 9900, Note_on_c, 7, 64, 56
9, 9935, Note_on_c, 7, 64, 0
9, 9960, Note_on_c, 7, 59, 58
9, 9995, Note_on_c, 7, 59, 0
9, 10020, Note_on_c, 7, 59, 60
9, 10055, Note_on_c, 7, 59, 0
9, 10080, Note_on_c, 7, 52, 63
9, 10115, Note_on_c, 7, 52, 0
9, 10140, Note_on_c, 7, 57, 65
9, 10175, Note_on_c, 7, 57, 0
9, 10200, Note_on_c, 7, 64, 67
9, 10235, Note_on_c, 7, 64, 0
9, 10260, Note_on_c, 7, 64, 69
9, 10295, Note_on_c, 7, 64, 0
9, 10380, Note_on_c, 7, 66, 73
9, 10415, Note_on_c, 7, 66, 0
9, 10440, Note_on_c, 7, 66, 64
9, 10475, Note_on_c, 7, 66, 0
9, 10560, Note_on_c, 7, 59, 66
9, 10595, Note_on_c, 7, 59, 0
9, 10620, Note_on_c, 7, 66, 66
9, 10655, Note_on_c, 7, 66, 0
9, 10740, Note_on_c, 7, 69, 68
9, 10775, Note_on_c, 7, 69, 0
9, 10800, Note_on_c, 7, 71, 69
9, 10835, Note_on_c, 7, 71, 0
9, 10920, Note_on_c, 7, 64, 70
9, 10955, Note_on_c, 7, 64, 0
9, 10980, Note_on_c, 7, 66, 71
9, 11015, Note_on_c, 7, 66, 0
9, 11100, Note_on_c, 7, 66, 72
9, 11135, Note_on_c, 7, 66, 0
9, 11160, Note_on_c, 7, 59, 73
9, 11195, Note_on_c, 7, 59, 0
9, 11280, Note_on_c, 7, 57, 75
9, 11315, Note_on_c, 7, 57, 0
9, 11340, Note_on_c, 7, 66, 75
9, 11375, Note_on_c, 7, 66, 0
9, 11400, Note_on_c, 7, 68, 76
9, 11435, Note_on_c, 7, 68, 0
9, 11460, Note_on_c, 7, 69, 77
9, 11550, Note_on_c, 7, 69, 0
9, 11550, Note_on_c, 7, 66, 78
9, 11580, Note_on_c, 7, 66, 0
9, 11580, Note_on_c, 7, 59, 78
9, 11615, Note_on_c, 7, 59, 0
9, 11640, Note_on_c, 7, 64, 79
9, 11675, Note_on_c, 7, 64, 0
9, 11700, Control_c, 7, 7, 127
9, 11700, Note_on_c, 7, 61, 64
9, 11730, Note_on_c, 7, 61, 0
9, 11730, Note_on_c, 7, 57, 64
9, 11760, Note_on_c, 7, 57, 0
9, 11760, Note_on_c, 7, 61, 64
9, 11790, Note_on_c, 7, 61, 0
9, 11790, Note_on_c, 7, 64, 64
9, 11820, Note_on_c, 7, 64, 0
9, 11820, Note_on_c, 7, 61, 64
9, 11850, Note_on_c, 7, 61, 0
9, 11850, Note_on_c, 7, 57, 64
9, 11880, Note_on_c, 7, 57, 0
9, 11880, Note_on_c, 7, 64, 64
9, 11915, Note_on_c, 7, 64, 0
9, 12090, Note_on_c, 7, 57, 64
9, 12120, Note_on_c, 7, 57, 0
9, 12120, Note_on_c, 7, 61, 64
9, 12150, Note_on_c, 7, 61, 0
9, 12150, Note_on_c, 7, 64, 64
9, 12180, Note_on_c, 7, 64, 0
9, 12180, Note_on_c, 7, 61, 64
9, 12210, Note_on_c, 7, 61, 0
9, 12210, Note_on_c, 7, 57, 64
9, 12240, Note_on_c, 7, 57, 0
9, 12240, Note_on_c, 7, 64, 64
9, 12275, Note_on_c, 7, 64, 0
9, 12420, Control_c, 7, 7, 75
9, 12450, Note_on_c, 7, 57, 41
9, 12480, Note_on_c, 7, 57, 0
9, 12480, Note_on_c, 7, 61, 41
9, 12510, Note_on_c, 7, 61, 0
9, 12510, Note_on_c, 7, 64, 42
9, 12540, Note_on_c, 7, 64, 0
9, 12540, Note_on_c, 7, 61, 43
9, 12570, Note_on_c, 7, 61, 0
9, 12570, Note_on_c, 7, 57, 43
9, 12600, Note_on_c, 7, 57, 0
9, 12600, Note_on_c, 7, 69, 44
9, 12635, Note_on_c, 7, 69, 0
9, 12810, Note_on_c, 7, 64, 48
9, 12840, Note_on_c, 7, 64, 0
9, 12840, Note_on_c, 7, 67, 49
9, 12870, Note_on_c, 7, 67, 0
9, 12870, Note_on_c, 7, 71, 49
9, 12900, Note_on_c, 7, 71, 0
9, 12900, Note_on_c, 7, 67, 50
9, 12930, Note_on_c, 7, 67, 0
9, 12930, Note_on_c, 7, 64, 51
9, 12960, Note_on_c, 7, 64, 0
9, 12960, Note_on_c, 7, 76, 51
9, 12995, Note_on_c, 7, 76, 0
9, 13860, Control_c, 7, 7, 127
9, 13890, Note_on_c, 7, 62, 50
9, 13920, Note_on_c, 7, 62, 0
9, 13920, Note_on_c, 7, 66, 50
9, 13950, Note_on_c, 7, 66, 0
9, 13950, Note_on_c, 7, 69, 50
9, 13980, Note_on_c, 7, 69, 0
9, 13980, Note_on_c, 7, 66, 50
9, 14010, Note_on_c, 7, 66, 0
9, 14010, Note_on_c, 7, 62, 50
9, 14040, Note_on_c, 7, 62, 0
9, 14040, Note_on_c, 7, 69, 50
9, 14250, Note_on_c, 7, 69, 0
9, 14250, Note_on_c, 7, 62, 50
9, 14280, Note_on_c, 7, 62, 0
9, 14280, Note_on_c, 7, 66, 50
9, 14310, Note_on_c, 7, 66, 0
9, 14310, Note_on_c, 7, 69, 50
9, 14340, Note_on_c, 7, 69, 0
9, 14340, Note_on_c, 7, 66, 50
9, 14370, Note_on_c, 7, 66, 0
9, 14370, Note_on_c, 7, 62, 50
9, 14400, Note_on_c, 7, 62, 0
9, 14400, Note_on_c, 7, 69, 50
9, 14615, Note_on_c, 7, 69, 0
9, 14640, Note_on_c, 7, 66, 64
9, 14675, Note_on_c, 7, 66, 0
9, 14700, Note_on_c, 7, 64, 64
9, 14735, Note_on_c, 7, 64, 0
9, 14760, Note_on_c, 7, 62, 64
9, 14795, Note_on_c, 7, 62, 0
9, 14820, Note_on_c, 7, 62, 64
9, 14855, Note_on_c, 7, 62, 0
9, 14880, Note_on_c, 7, 69, 64
9, 14915, Note_on_c, 7, 69, 0
9, 14940, Note_on_c, 7, 69, 64
9, 14975, Note_on_c, 7, 69, 0
9, 15150, Note_on_c, 7, 62, 64
9, 15180, Note_on_c, 7, 62, 0
9, 15180, Note_on_c, 7, 66, 64
9, 15210, Note_on_c, 7, 66, 0
9, 15210, Note_on_c, 7, 69, 64
9, 15240, Note_on_c, 7, 69, 0
9, 15240, Note_on_c, 7, 66, 64
9, 15270, Note_on_c, 7, 66, 0
9, 15270, Note_on_c, 7, 62, 64
9, 15300, Note_on_c, 7, 62, 0
9, 15300, Control_c, 7, 7, 75
9, 15300, Note_on_c, 7, 69, 50
9, 15335, Note_on_c, 7, 69, 0
9, 15360, Note_on_c, 7, 64, 52
9, 15395, Note_on_c, 7, 64, 0
9, 15420, Note_on_c, 7, 64, 53
9, 15455, Note_on_c, 7, 64, 0
9, 15480, Note_on_c, 7, 66, 55
9, 15515, Note_on_c, 7, 66, 0
9, 15540, Note_on_c, 7, 61, 57
9, 15575, Note_on_c, 7, 61, 0
9, 15600, Note_on_c, 7, 61, 58
9, 15635, Note_on_c, 7, 61, 0
9, 15660, Note_on_c, 7, 59, 60
9, 15695, Note_on_c, 7, 59, 0
9, 15720, Note_on_c, 7, 66, 62
9, 15755, Note_on_c, 7, 66, 0
9, 15780, Note_on_c, 7, 66, 63
9, 15815, Note_on_c, 7, 66, 0
9, 15840, Note_on_c, 7, 59, 65
9, 15875, Note_on_c, 7, 59, 0
9, 15900, Note_on_c, 7, 64, 67
9, 15935, Note_on_c, 7, 64, 0
9, 15960, Note_on_c, 7, 71, 68
9, 15995, Note_on_c, 7, 71, 0
9, 16020, Note_on_c, 7, 71, 50
9, 16055, Note_on_c, 7, 71, 0
9, 16080, Note_on_c, 7, 59, 52
9, 16115, Note_on_c, 7, 59, 0
9, 16140, Note_on_c, 7, 59, 53
9, 16175, Note_on_c, 7, 59, 0
9, 16200, Note_on_c, 7, 59, 55
9, 16235, Note_on_c, 7, 59, 0
9, 16260, Note_on_c, 7, 71, 57
9, 16295, Note_on_c, 7, 71, 0
9, 16320, Note_on_c, 7, 71, 58
9, 16355, Note_on_c, 7, 71, 0
9, 16380, Note_on_c, 7, 69, 60
9, 16415, Note_on_c, 7, 69, 0
9, 16440, Note_on_c, 7, 64, 62
9, 16475, Note_on_c, 7, 64, 0
9, 16500, Note_on_c, 7, 64, 63
9, 16535, Note_on_c, 7, 64, 0
9, 16560, Note_on_c, 7, 57, 65
9, 16595, Note_on_c, 7, 57, 0
9, 16620, Note_on_c, 7, 62, 67
9, 16655, Note_on_c, 7, 62, 0
9, 16680, Note_on_c, 7, 69, 68
9, 16715, Note_on_c, 7, 69, 0
9, 16740, Control_c, 7, 7, 75
9, 16740, Note_on_c, 7, 69, 64
9, 16775, Note_on_c, 7, 69, 0
9, 16860, Note_on_c, 7, 71, 65
9, 16895, Note_on_c, 7, 71, 0
9, 16920, Note_on_c, 7, 71, 66
9, 16955, Note_on_c, 7, 71, 0
9, 17040, Note_on_c, 7, 64, 67
9, 17075, Note_on_c, 7, 64, 0
9, 17100, Note_on_c, 7, 71, 68
9, 17135, Note_on_c, 7, 71, 0
9, 17220, Note_on_c, 7, 74, 69
9, 17255, Note_on_c, 7, 74, 0
9, 17280, Note_on_c, 7, 76, 70
9, 17315, Note_on_c, 7, 76, 0
9, 17400, Note_on_c, 7, 69, 71
9, 17435, Note_on_c, 7, 69, 0
9, 17460, Note_on_c, 7, 71, 72
9, 17495, Note_on_c, 7, 71, 0
9, 17580, Note_on_c, 7, 71, 73
9, 17615, Note_on_c, 7, 71, 0
9, 17640, Note_on_c, 7, 64, 74
9, 17675, Note_on_c, 7, 64, 0
9, 17760, Note_on_c, 7, 62, 75
9, 17795, Note_on_c, 7, 62, 0
9, 17820, Note_on_c, 7, 59, 76
9, 17855, Note_on_c, 7, 59, 0
9, 17880, Note_on_c, 7, 61, 77
9, 17915, Note_on_c, 7, 61, 0
9, 17940, Note_on_c, 7, 62, 77
9, 18030, Note_on_c, 7, 62, 0
9, 18030, Note_on_c, 7, 59, 78
9, 18060, Note_on_c, 7, 59, 0
9, 18060, Note_on_c, 7, 64, 79
9, 18095, Note_on_c, 7, 64, 0
9, 18120, Note_on_c, 7, 69, 79
9, 18155, Note_on_c, 7, 69, 0
9, 18180, Note_on_c, 7, 66, 100
9, 18300, Note_on_c, 7, 66, 0
9, 18840, Note_on_c, 7, 62, 33
9, 18960, Note_on_c, 7, 62, 0
9, 18960, Note_on_c, 7, 60, 35
9, 18995, Note_on_c, 7, 60, 0
9, 19020, Note_on_c, 7, 60, 36
9, 19260, Note_on_c, 7, 60, 0
9, 19260, Note_on_c, 7, 59, 41
9, 19380, Note_on_c, 7, 59, 0
9, 19380, Note_on_c, 7, 55, 43
9, 19440, Note_on_c, 7, 55, 0
9, 19440, Note_on_c, 7, 60, 44
9, 19475, Note_on_c, 7, 60, 0
9, 19500, Note_on_c, 7, 60, 45
9, 19560, Note_on_c, 7, 60, 0
9, 19560, Note_on_c, 7, 59, 46
9, 19595, Note_on_c, 7, 59, 0
9, 19620, Note_on_c, 7, 59, 47
9, 19680, Note_on_c, 7, 59, 0
9, 19680, Note_on_c, 7, 60, 48
9, 19715, Note_on_c, 7, 60, 0
9, 19740, Note_on_c, 7, 59, 49
9, 19800, Note_on_c, 7, 59, 0
9, 19800, Note_on_c, 7, 57, 50
9, 19835, Note_on_c, 7, 57, 0
9, 19860, Note_on_c, 7, 57, 51
9, 19920, Note_on_c, 7, 57, 0
9, 19920, Note_on_c, 7, 50, 52
9, 19955, Note_on_c, 7, 50, 0
9, 19980, Note_on_c, 7, 50, 53
9, 20040, Note_on_c, 7, 50, 0
9, 20040, Note_on_c, 7, 57, 54
9, 20075, Note_on_c, 7, 57, 0
9, 20100, Note_on_c, 7, 57, 56
9, 20220, Note_on_c, 7, 57, 0
9, 20220, Note_on_c, 7, 62, 58
9, 20400, Note_on_c, 7, 62, 0
9, 20400, Note_on_c, 7, 59, 61
9, 20435, Note_on_c, 7, 59, 0
9, 20460, Note_on_c, 7, 59, 62
9, 20520, Note_on_c, 7, 59, 0
9, 20520, Note_on_c, 7, 60, 63
9, 20555, Note_on_c, 7, 60, 0
9, 20580, Note_on_c, 7, 60, 64
9, 20700, Note_on_c, 7, 60, 0
9, 20700, Note_on_c, 7, 59, 64
9, 20760, Note_on_c, 7, 59, 0
9, 20760, Note_on_c, 7, 57, 64
9, 20795, Note_on_c, 7, 57, 0
9, 20820, Note_on_c, 7, 55, 64
9, 20880, Note_on_c, 7, 55, 0
9, 20880, Note_on_c, 7, 59, 64
9, 20915, Note_on_c, 7, 59, 0
9, 20940, Note_on_c, 7, 52, 64
9, 21000, Note_on_c, 7, 52, 0
9, 21000, Note_on_c, 7, 54, 64
9, 21035, Note_on_c, 7, 54, 0
9, 21060, Note_on_c, 7, 55, 64
9, 21120, Note_on_c, 7, 55, 0
9, 21120, Note_on_c, 7, 57, 64
9, 21155, Note_on_c, 7, 57, 0
9, 21180, Note_on_c, 7, 59, 64
9, 21240, Note_on_c, 7, 59, 0
9, 21240, Note_on_c, 7, 61, 64
9, 21275, Note_on_c, 7, 61, 0
9, 21300, Note_on_c, 7, 63, 64
9, 21420, Note_on_c, 7, 63, 0
9, 21420, Note_on_c, 7, 64, 64
9, 21660, Note_on_c, 7, 64, 0
9, 21660, Note_on_c, 7, 63, 65
9, 21780, Note_on_c, 7, 63, 0
9, 21780, Note_on_c, 7, 59, 66
9, 21900, Note_on_c, 7, 59, 0
9, 21900, Note_on_c, 7, 58, 66
9, 22020, Note_on_c, 7, 58, 0
9, 22020, Note_on_c, 7, 59, 67
9, 22140, Note_on_c, 7, 59, 0
9, 22140, Note_on_c, 7, 54, 68
9, 22260, Note_on_c, 7, 54, 0
9, 22260, Note_on_c, 7, 61, 69
9, 22380, Note_on_c, 7, 61, 0
9, 22380, Note_on_c, 7, 66, 69
9, 22440, Note_on_c, 7, 66, 0
9, 22440, Note_on_c, 7, 71, 70
9, 22500, Note_on_c, 7, 71, 0
9, 22500, Note_on_c, 7, 69, 64
9, 22740, Note_on_c, 7, 69, 0
9, 22740, Note_on_c, 7, 63, 64
9, 22860, Note_on_c, 7, 63, 0
9, 22980, Note_on_c, 7, 59, 64
9, 23220, Note_on_c, 7, 59, 0
9, 23220, Note_on_c, 7, 64, 70
9, 23340, Note_on_c, 7, 64, 0
9, 23340, Note_on_c, 7, 59, 72
9, 23460, Note_on_c, 7, 59, 0
9, 23460, Note_on_c, 7, 64, 75
9, 23580, Note_on_c, 7, 64, 0
9, 23580, Note_on_c, 7, 67, 75
9, 23640, Note_on_c, 7, 67, 0
9, 23640, Note_on_c, 7, 60, 75
9, 23700, Note_on_c, 7, 60, 0
9, 23700, Note_on_c, 7, 59, 75
9, 23760, Note_on_c, 7, 59, 0
9, 23760, Note_on_c, 7, 57, 75
9, 23790, Note_on_c, 7, 57, 0
9, 23790, Note_on_c, 7, 55, 75
9, 23820, Note_on_c, 7, 55, 0
9, 23820, Note_on_c, 7, 57, 75
9, 23880, Note_on_c, 7, 57, 0
9, 23880, Note_on_c, 7, 59, 75
9, 23940, Note_on_c, 7, 59, 0
9, 23940, Note_on_c, 7, 59, 67
9, 24000, Note_on_c, 7, 59, 0
9, 24000, Note_on_c, 7, 57, 64
9, 24030, Note_on_c, 7, 57, 0
9, 24030, Note_on_c, 7, 55, 62
9, 24060, Note_on_c, 7, 55, 0
9, 24060, Note_on_c, 7, 57, 60
9, 24120, Note_on_c, 7, 57, 0
9, 24120, Note_on_c, 7, 63, 57
9, 24180, Note_on_c, 7, 63, 0
9, 24180, Note_on_c, 7, 64, 53
9, 24240, Note_on_c, 7, 64, 0
9, 24240, Note_on_c, 7, 69, 50
9, 24275, Note_on_c, 7, 69, 0
9, 24300, Note_on_c, 7, 69, 47
9, 24360, Note_on_c, 7, 69, 0
9, 24360, Note_on_c, 7, 68, 43
9, 24395, Note_on_c, 7, 68, 0
9, 24420, Note_on_c, 7, 68, 40
9, 24480, Note_on_c, 7, 68, 0
9, 24480, Note_on_c, 7, 69, 40
9, 24515, Note_on_c, 7, 69, 0
9, 24540, Note_on_c, 7, 69, 41
9, 24600, Note_on_c, 7, 69, 0
9, 24600, Note_on_c, 7, 68, 41
9, 24635, Note_on_c, 7, 68, 0
9, 24660, Note_on_c, 7, 64, 42
9, 24720, Note_on_c, 7, 64, 0
9, 24720, Note_on_c, 7, 63, 42
9, 24755, Note_on_c, 7, 63, 0
9, 24780, Note_on_c, 7, 63, 43
9, 24840, Note_on_c, 7, 63, 0
9, 24840, Note_on_c, 7, 59, 43
9, 24875, Note_on_c, 7, 59, 0
9, 24900, Note_on_c, 7, 59, 43
9, 24960, Note_on_c, 7, 59, 0
9, 24960, Note_on_c, 7, 60, 44
9, 24995, Note_on_c, 7, 60, 0
9, 25020, Note_on_c, 7, 59, 44
9, 25080, Note_on_c, 7, 59, 0
9, 25080, Note_on_c, 7, 57, 45
9, 25115, Note_on_c, 7, 57, 0
9, 25140, Note_on_c, 7, 57, 45
9, 25200, Note_on_c, 7, 57, 0
9, 25200, Note_on_c, 7, 55, 46
9, 25235, Note_on_c, 7, 55, 0
9, 25260, Note_on_c, 7, 55, 46
9, 25320, Note_on_c, 7, 55, 0
9, 25320, Note_on_c, 7, 54, 46
9, 25355, Note_on_c, 7, 54, 0
9, 25380, Note_on_c, 7, 54, 47
9, 25440, Note_on_c, 7, 54, 0
9, 25440, Note_on_c, 7, 55, 47
9, 25475, Note_on_c, 7, 55, 0
9, 25500, Note_on_c, 7, 54, 48
9, 25560, Note_on_c, 7, 54, 0
9, 25560, Note_on_c, 7, 54, 48
9, 25595, Note_on_c, 7, 54, 0
9, 25620, Note_on_c, 7, 59, 49
9, 25680, Note_on_c, 7, 59, 0
9, 25680, Note_on_c, 7, 54, 49
9, 25715, Note_on_c, 7, 54, 0
9, 25740, Note_on_c, 7, 54, 49
9, 25800, Note_on_c, 7, 54, 0
9, 25800, Note_on_c, 7, 59, 50
9, 25835, Note_on_c, 7, 59, 0
9, 25860, Note_on_c, 7, 64, 50
9, 25980, Note_on_c, 7, 64, 0
9, 25980, Note_on_c, 7, 59, 51
9, 26100, Note_on_c, 7, 59, 0
9, 26100, Note_on_c, 7, 66, 52
9, 26220, Note_on_c, 7, 66, 0
9, 26280, Note_on_c, 7, 73, 53
9, 26340, Note_on_c, 7, 73, 0
9, 26340, Note_on_c, 7, 66, 54
9, 26460, Note_on_c, 7, 66, 0
9, 26460, Note_on_c, 7, 73, 55
9, 26580, Note_on_c, 7, 73, 0
9, 26580, Note_on_c, 7, 66, 55
9, 26820, Note_on_c, 7, 66, 0
9, 26820, Note_on_c, 7, 59, 57
9, 26880, Note_on_c, 7, 59, 0
9, 26880, Note_on_c, 7, 66, 58
9, 26940, Note_on_c, 7, 66, 0
9, 26940, Note_on_c, 7, 71, 58
9, 27000, Note_on_c, 7, 71, 0
9, 27000, Note_on_c, 7, 59, 58
9, 27060, Note_on_c, 7, 59, 0
9, 27060, Note_on_c, 7, 64, 59
9, 27120, Note_on_c, 7, 64, 0
9, 27120, Note_on_c, 7, 66, 59
9, 27150, Note_on_c, 7, 66, 0
9, 27150, Note_on_c, 7, 67, 60
9, 27180, Note_on_c, 7, 67, 0
9, 27180, Note_on_c, 7, 66, 60
9, 27240, Note_on_c, 7, 66, 0
9, 27240, Note_on_c, 7, 67, 60
9, 27300, Note_on_c, 7, 67, 0
9, 27300, Note_on_c, 7, 66, 61
9, 27420, Note_on_c, 7, 66, 0
9, 27420, Note_on_c, 7, 64, 61
9, 27540, Note_on_c, 7, 64, 0
9, 27540, Note_on_c, 7, 62, 64
9, 27600, Note_on_c, 7, 62, 0
9, 27600, Note_on_c, 7, 64, 53
9, 27635, Note_on_c, 7, 64, 0
9, 27660, Note_on_c, 7, 64, 41
9, 27720, Note_on_c, 7, 64, 0
9, 27720, Note_on_c, 7, 66, 30
9, 27755, Note_on_c, 7, 66, 0
9, 27777, Control_c, 7, 7, 62
9, 27780, Control_c, 7, 7, 20
9, 27780, Note_on_c, 7, 66, 64
9, 27785, Control_c, 7, 7, 54
9, 27840, Note_on_c, 7, 66, 0
9, 27840, Note_on_c, 7, 62, 64
9, 27875, Note_on_c, 7, 62, 0
9, 27900, Note_on_c, 7, 62, 64
9, 27960, Note_on_c, 7, 62, 0
9, 27960, Note_on_c, 7, 67, 64
9, 27995, Note_on_c, 7, 67, 0
9, 28020, Note_on_c, 7, 69, 64
9, 28080, Note_on_c, 7, 69, 0
9, 28080, Note_on_c, 7, 67, 64
9, 28115, Note_on_c, 7, 67, 0
9, 28140, Note_on_c, 7, 66, 64
9, 28200, Note_on_c, 7, 66, 0
9, 28200, Note_on_c, 7, 69, 64
9, 28235, Note_on_c, 7, 69, 0
9, 28260, Note_on_c, 7, 62, 64
9, 28320, Note_on_c, 7, 62, 0
9, 28320, Note_on_c, 7, 66, 64
9, 28355, Note_on_c, 7, 66, 0
9, 28380, Note_on_c, 7, 67, 64
9, 28440, Note_on_c, 7, 67, 0
9, 28440, Note_on_c, 7, 69, 64
9, 28475, Note_on_c, 7, 69, 0
9, 28500, Note_on_c, 7, 71, 64
9, 28560, Note_on_c, 7, 71, 0
9, 28560, Note_on_c, 7, 69, 64
9, 28595, Note_on_c, 7, 69, 0
9, 28620, Note_on_c, 7, 69, 64
9, 28680, Note_on_c, 7, 69, 0
9, 28680, Note_on_c, 7, 64, 64
9, 28715, Note_on_c, 7, 64, 0
9, 28740, Note_on_c, 7, 66, 64
9, 28800, Note_on_c, 7, 66, 0
9, 28800, Note_on_c, 7, 62, 64
9, 28860, Note_on_c, 7, 62, 0
9, 28860, Note_on_c, 7, 57, 64
9, 28980, Note_on_c, 7, 57, 0
9, 28980, Note_on_c, 7, 57, 64
9, 29040, Note_on_c, 7, 57, 0
9, 29100, Note_on_c, 7, 66, 64
9, 29160, Note_on_c, 7, 66, 0
9, 29220, Note_on_c, 7, 66, 64
9, 29255, Note_on_c, 7, 66, 0
9, 29340, Note_on_c, 7, 64, 64
9, 29375, Note_on_c, 7, 64, 0
9, 29460, Note_on_c, 7, 64, 64
9, 29495, Note_on_c, 7, 64, 0
9, 29580, Note_on_c, 7, 62, 64
9, 29615, Note_on_c, 7, 62, 0
9, 29700, Note_on_c, 7, 59, 64
9, 29735, Note_on_c, 7, 59, 0
9, 29820, Note_on_c, 7, 69, 64
9, 29855, Note_on_c, 7, 69, 0
9, 29940, Note_on_c, 7, 69, 64
9, 29975, Note_on_c, 7, 69, 0
9, 30060, Note_on_c, 7, 71, 64
9, 30095, Note_on_c, 7, 71, 0
9, 30180, Note_on_c, 7, 71, 64
9, 30215, Note_on_c, 7, 71, 0
9, 30300, Note_on_c, 7, 69, 64
9, 30335, Note_on_c, 7, 69, 0
9, 30420, Note_on_c, 7, 61, 64
9, 30455, Note_on_c, 7, 61, 0
9, 30540, Note_on_c, 7, 59, 64
9, 30575, Note_on_c, 7, 59, 0
9, 30660, Note_on_c, 7, 57, 64
9, 30695, Note_on_c, 7, 57, 0
9, 30780, Note_on_c, 7, 61, 64
9, 30815, Note_on_c, 7, 61, 0
9, 30900, Note_on_c, 7, 59, 64
9, 30935, Note_on_c, 7, 59, 0
9, 31020, Note_on_c, 7, 64, 64
9, 31055, Note_on_c, 7, 64, 0
9, 31140, Note_on_c, 7, 62, 64
9, 31175, Note_on_c, 7, 62, 0
9, 31260, Note_on_c, 7, 71, 64
9, 31295, Note_on_c, 7, 71, 0
9, 31380, Note_on_c, 7, 69, 64
9, 31415, Note_on_c, 7, 69, 0
9, 31500, Note_on_c, 7, 62, 64
9, 31535, Note_on_c, 7, 62, 0
9, 31620, Note_on_c, 7, 59, 64
9, 31655, Note_on_c, 7, 59, 0
9, 31740, Note_on_c, 7, 67, 64
9, 31775, Note_on_c, 7, 67, 0
9, 31860, Note_on_c, 7, 64, 64
9, 31895, Note_on_c, 7, 64, 0
9, 31980, Note_on_c, 7, 74, 64
9, 32015, Note_on_c, 7, 74, 0
9, 32100, Note_on_c, 7, 74, 64
9, 32135, Note_on_c, 7, 74, 0
9, 32220, Note_on_c, 7, 69, 64
9, 32255, Note_on_c, 7, 69, 0
9, 32340, Note_on_c, 7, 74, 64
9, 32375, Note_on_c, 7, 74, 0
9, 32460, Note_on_c, 7, 69, 64
9, 32495, Note_on_c, 7, 69, 0
9, 32580, Note_on_c, 7, 71, 64
9, 32615, Note_on_c, 7, 71, 0
9, 32700, Note_on_c, 7, 71, 64
9, 32735, Note_on_c, 7, 71, 0
9, 32820, Note_on_c, 7, 69, 64
9, 32855, Note_on_c, 7, 69, 0
9, 32940, Note_on_c, 7, 66, 64
9, 32975, Note_on_c, 7, 66, 0
9, 33060, Note_on_c, 7, 64, 64
9, 33095, Note_on_c, 7, 64, 0
9, 33180, Note_on_c, 7, 64, 64
9, 33215, Note_on_c, 7, 64, 0
9, 33300, Note_on_c, 7, 62, 64
9, 33335, Note_on_c, 7, 62, 0
9, 33420, Note_on_c, 7, 71, 64
9, 33455, Note_on_c, 7, 71, 0
9, 33540, Note_on_c, 7, 71, 64
9, 33575, Note_on_c, 7, 71, 0
9, 33660, Note_on_c, 7, 73, 64
9, 33695, Note_on_c, 7, 73, 0
9, 33780, Note_on_c, 7, 73, 64
9, 33815, Note_on_c, 7, 73, 0
9, 33900, Note_on_c, 7, 64, 64
9, 33935, Note_on_c, 7, 64, 0
9, 34020, Note_on_c, 7, 64, 64
9, 34055, Note_on_c, 7, 64, 0
9, 34140, Note_on_c, 7, 64, 64
9, 34175, Note_on_c, 7, 64, 0
9, 34260, Note_on_c, 7, 73, 64
9, 34295, Note_on_c, 7, 73, 0
9, 34380, Note_on_c, 7, 66, 64
9, 34415, Note_on_c, 7, 66, 0
9, 34500, Note_on_c, 7, 67, 64
9, 34535, Note_on_c, 7, 67, 0
9, 34620, Note_on_c, 7, 69, 64
9, 34655, Note_on_c, 7, 69, 0
9, 34740, Note_on_c, 7, 69, 64
9, 34775, Note_on_c, 7, 69, 0
9, 34860, Note_on_c, 7, 69, 64
9, 34895, Note_on_c, 7, 69, 0
9, 34980, Note_on_c, 7, 68, 64
9, 35015, Note_on_c, 7, 68, 0
9, 35100, Note_on_c, 7, 64, 64
9, 35135, Note_on_c, 7, 64, 0
9, 35220, Note_on_c, 7, 60, 64
9, 35255, Note_on_c, 7, 60, 0
9, 35340, Note_on_c, 7, 59, 64
9, 35375, Note_on_c, 7, 59, 0
9, 35460, Note_on_c, 7, 67, 64
9, 35495, Note_on_c, 7, 67, 0
9, 35580, Note_on_c, 7, 63, 64
9, 35615, Note_on_c, 7, 63, 0
9, 35700, Note_on_c, 7, 59, 64
9, 35735, Note_on_c, 7, 59, 0
9, 36207, Control_c, 7, 7, 127
9, 36240, Note_on_c, 7, 66, 50
9, 36270, Note_on_c, 7, 66, 0
9, 36270, Note_on_c, 7, 64, 50
9, 36300, Note_on_c, 7, 64, 0
9, 36300, Note_on_c, 7, 62, 50
9, 36360, Note_on_c, 7, 62, 0
9, 36360, Note_on_c, 7, 61, 50
9, 36420, Note_on_c, 7, 61, 0
9, 36420, Note_on_c, 7, 59, 50
9, 36480, Note_on_c, 7, 59, 0
9, 36480, Note_on_c, 7, 57, 50
9, 36540, Note_on_c, 7, 57, 0
9, 36540, Note_on_c, 7, 56, 50
9, 36600, Note_on_c, 7, 56, 0
9, 36600, Note_on_c, 7, 61, 50
9, 36660, Note_on_c, 7, 61, 0
9, 36660, Note_on_c, 7, 61, 50
9, 36695, Note_on_c, 7, 61, 0
9, 36720, Note_on_c, 7, 69, 50
9, 36755, Note_on_c, 7, 69, 0
9, 37080, Note_on_c, 7, 69, 69
9, 37140, Note_on_c, 7, 69, 0
9, 37140, Note_on_c, 7, 69, 69
9, 37200, Note_on_c, 7, 69, 0
9, 37200, Note_on_c, 7, 68, 70
9, 37235, Note_on_c, 7, 68, 0
9, 37260, Note_on_c, 7, 68, 70
9, 37320, Note_on_c, 7, 68, 0
9, 37320, Note_on_c, 7, 64, 71
9, 37355, Note_on_c, 7, 64, 0
9, 37380, Note_on_c, 7, 63, 71
9, 37440, Note_on_c, 7, 63, 0
9, 37440, Note_on_c, 7, 59, 71
9, 37475, Note_on_c, 7, 59, 0
9, 37500, Note_on_c, 7, 63, 72
9, 37560, Note_on_c, 7, 63, 0
9, 37560, Note_on_c, 7, 66, 72
9, 37595, Note_on_c, 7, 66, 0
9, 37620, Note_on_c, 7, 59, 73
9, 37740, Note_on_c, 7, 59, 0
9, 38040, Note_on_c, 7, 68, 76
9, 38100, Note_on_c, 7, 68, 0
9, 38100, Note_on_c, 7, 64, 76
9, 38160, Note_on_c, 7, 64, 0
9, 38160, Note_on_c, 7, 69, 77
9, 38195, Note_on_c, 7, 69, 0
9, 38220, Note_on_c, 7, 69, 77
9, 38280, Note_on_c, 7, 69, 0
9, 38280, Note_on_c, 7, 61, 78
9, 38315, Note_on_c, 7, 61, 0
9, 38340, Note_on_c, 7, 61, 64
9, 38400, Note_on_c, 7, 61, 0
9, 38400, Note_on_c, 7, 57, 64
9, 38435, Note_on_c, 7, 57, 0
9, 38460, Note_on_c, 7, 61, 65
9, 38520, Note_on_c, 7, 61, 0
9, 38520, Note_on_c, 7, 64, 65
9, 38555, Note_on_c, 7, 64, 0
9, 38580, Note_on_c, 7, 57, 65
9, 38640, Note_on_c, 7, 57, 0
9, 38640, Note_on_c, 7, 55, 65
9, 38675, Note_on_c, 7, 55, 0
9, 38700, Note_on_c, 7, 59, 66
9, 38760, Note_on_c, 7, 59, 0
9, 38760, Note_on_c, 7, 57, 66
9, 38795, Note_on_c, 7, 57, 0
9, 38820, Note_on_c, 7, 62, 66
9, 38940, Note_on_c, 7, 62, 0
9, 38940, Note_on_c, 7, 62, 67
9, 39000, Note_on_c, 7, 62, 0
9, 39000, Note_on_c, 7, 66, 67
9, 39035, Note_on_c, 7, 66, 0
9, 39060, Note_on_c, 7, 71, 67
9, 39120, Note_on_c, 7, 71, 0
9, 39120, Note_on_c, 7, 69, 67
9, 39180, Note_on_c, 7, 69, 0
9, 39180, Note_on_c, 7, 67, 68
9, 39240, Note_on_c, 7, 67, 0
9, 39240, Note_on_c, 7, 66, 68
9, 39300, Note_on_c, 7, 66, 0
9, 39300, Note_on_c, 7, 64, 68
9, 39360, Note_on_c, 7, 64, 0
9, 39360, Note_on_c, 7, 57, 68
9, 39420, Note_on_c, 7, 57, 0
9, 39420, Note_on_c, 7, 62, 69
9, 39480, Note_on_c, 7, 62, 0
9, 39480, Note_on_c, 7, 67, 69
9, 39540, Note_on_c, 7, 67, 0
9, 39540, Note_on_c, 7, 66, 69
9, 39600, Note_on_c, 7, 66, 0
9, 39600, Note_on_c, 7, 67, 69
9, 39630, Note_on_c, 7, 67, 0
9, 39630, Note_on_c, 7, 66, 69
9, 39660, Note_on_c, 7, 66, 0
9, 39660, Note_on_c, 7, 64, 70
9, 39720, Note_on_c, 7, 64, 0
9, 39720, Note_on_c, 7, 67, 70
9, 39780, Note_on_c, 7, 67, 0
9, 39780, Note_on_c, 7, 66, 64
9, 39815, Note_on_c, 7, 66, 0
9, 39840, Note_on_c, 7, 54, 64
9, 39900, Note_on_c, 7, 54, 0
9, 39900, Note_on_c, 7, 57, 64
9, 39960, Note_on_c, 7, 57, 0
9, 39960, Note_on_c, 7, 61, 64
9, 40020, Note_on_c, 7, 61, 0
9, 40020, Note_on_c, 7, 62, 64
9, 40080, Note_on_c, 7, 62, 0
9, 40080, Note_on_c, 7, 59, 64
9, 40140, Note_on_c, 7, 59, 0
9, 40140, Note_on_c, 7, 59, 64
9, 40200, Note_on_c, 7, 59, 0
9, 40200, Note_on_c, 7, 64, 64
9, 40260, Note_on_c, 7, 64, 0
9, 40260, Note_on_c, 7, 64, 64
9, 40320, Note_on_c, 7, 64, 0
9, 41880, Note_on_c, 7, 57, 64
9, 42000, Note_on_c, 7, 57, 0
9, 42000, Note_on_c, 7, 59, 64
9, 42035, Note_on_c, 7, 59, 0
9, 42060, Note_on_c, 7, 59, 64
9, 42120, Note_on_c, 7, 59, 0
9, 42120, Note_on_c, 7, 60, 64
9, 42155, Note_on_c, 7, 60, 0
9, 42180, Note_on_c, 7, 60, 64
9, 42240, Note_on_c, 7, 60, 0
9, 42240, Note_on_c, 7, 59, 64
9, 42275, Note_on_c, 7, 59, 0
9, 42300, Note_on_c, 7, 60, 64
9, 42360, Note_on_c, 7, 60, 0
9, 42360, Note_on_c, 7, 62, 64
9, 42395, Note_on_c, 7, 62, 0
9, 42420, Note_on_c, 7, 59, 64
9, 42480, Note_on_c, 7, 59, 0
9, 42480, Note_on_c, 7, 57, 64
9, 42540, Note_on_c, 7, 57, 0
9, 42540, Note_on_c, 7, 55, 64
9, 42600, Note_on_c, 7, 55, 0
9, 42600, Note_on_c, 7, 54, 64
9, 42660, Note_on_c, 7, 54, 0
9, 42660, Note_on_c, 7, 52, 64
9, 42695, Note_on_c, 7, 52, 0
9, 42720, Note_on_c, 7, 62, 64
9, 42750, Note_on_c, 7, 62, 0
9, 42750, Note_on_c, 7, 61, 64
9, 42780, Note_on_c, 7, 61, 0
9, 42780, Note_on_c, 7, 62, 64
9, 42840, Note_on_c, 7, 62, 0
9, 42840, Note_on_c, 7, 55, 64
9, 42900, Note_on_c, 7, 55, 0
9, 42900, Note_on_c, 7, 54, 64
9, 43020, Note_on_c, 7, 54, 0
9, 43020, Note_on_c, 7, 52, 64
9, 43140, Note_on_c, 7, 52, 0
9, 43140, Note_on_c, 7, 50, 64
9, 43175, Note_on_c, 7, 50, 0
9, 43200, Note_on_c, 7, 50, 64
9, 43260, Note_on_c, 7, 50, 0
9, 43260, Note_on_c, 7, 54, 64
9, 43320, Note_on_c, 7, 54, 0
9, 43320, Note_on_c, 7, 57, 64
9, 43380, Note_on_c, 7, 57, 0
9, 43380, Note_on_c, 7, 60, 64
9, 43440, Note_on_c, 7, 60, 0
9, 43440, Note_on_c, 7, 62, 64
9, 43470, Note_on_c, 7, 62, 0
9, 43470, Note_on_c, 7, 64, 64
9, 43500, Note_on_c, 7, 64, 0
9, 43500, Note_on_c, 7, 62, 64
9, 43530, Note_on_c, 7, 62, 0
9, 43530, Note_on_c, 7, 60, 64
9, 43560, Note_on_c, 7, 60, 0
9, 43560, Note_on_c, 7, 59, 64
9, 43590, Note_on_c, 7, 59, 0
9, 43590, Note_on_c, 7, 57, 64
9, 43620, Note_on_c, 7, 57, 0
9, 43620, Note_on_c, 7, 59, 64
9, 43650, Note_on_c, 7, 59, 0
9, 43650, Note_on_c, 7, 62, 64
9, 43680, Note_on_c, 7, 62, 0
9, 43680, Note_on_c, 7, 67, 64
9, 43710, Note_on_c, 7, 67, 0
9, 43710, Note_on_c, 7, 65, 64
9, 43740, Note_on_c, 7, 65, 0
9, 43740, Note_on_c, 7, 64, 64
9, 43770, Note_on_c, 7, 64, 0
9, 43770, Note_on_c, 7, 62, 64
9, 43800, Note_on_c, 7, 62, 0
9, 43800, Note_on_c, 7, 60, 64
9, 43830, Note_on_c, 7, 60, 0
9, 43830, Note_on_c, 7, 59, 64
9, 43860, Note_on_c, 7, 59, 0
9, 43860, Note_on_c, 7, 57, 64
9, 43890, Note_on_c, 7, 57, 0
9, 43890, Note_on_c, 7, 60, 64
9, 43920, Note_on_c, 7, 60, 0
9, 43920, Note_on_c, 7, 65, 64
9, 43950, Note_on_c, 7, 65, 0
9, 43950, Note_on_c, 7, 64, 64
9, 43980, Note_on_c, 7, 64, 0
9, 43980, Note_on_c, 7, 62, 64
9, 44010, Note_on_c, 7, 62, 0
9, 44010, Note_on_c, 7, 60, 64
9, 44040, Note_on_c, 7, 60, 0
9, 44040, Note_on_c, 7, 59, 64
9, 44070, Note_on_c, 7, 59, 0
9, 44070, Note_on_c, 7, 57, 64
9, 44100, Note_on_c, 7, 57, 0
9, 44100, Note_on_c, 7, 55, 64
9, 44130, Note_on_c, 7, 55, 0
9, 44130, Note_on_c, 7, 59, 64
9, 44160, Note_on_c, 7, 59, 0
9, 44160, Note_on_c, 7, 60, 64
9, 44190, Note_on_c, 7, 60, 0
9, 44190, Note_on_c, 7, 62, 64
9, 44220, Note_on_c, 7, 62, 0
9, 44220, Note_on_c, 7, 64, 64
9, 44250, Note_on_c, 7, 64, 0
9, 44250, Note_on_c, 7, 65, 64
9, 44280, Note_on_c, 7, 65, 0
9, 44280, Note_on_c, 7, 64, 64
9, 44310, Note_on_c, 7, 64, 0
9, 44310, Note_on_c, 7, 62, 64
9, 44340, Note_on_c, 7, 62, 0
9, 44340, Note_on_c, 7, 60, 64
9, 44370, Note_on_c, 7, 60, 0
9, 44370, Note_on_c, 7, 59, 64
9, 44400, Note_on_c, 7, 59, 0
9, 44400, Note_on_c, 7, 57, 64
9, 44430, Note_on_c, 7, 57, 0
9, 44430, Note_on_c, 7, 60, 64
9, 44460, Note_on_c, 7, 60, 0
9, 44460, Note_on_c, 7, 59, 64
9, 44490, Note_on_c, 7, 59, 0
9, 44490, Note_on_c, 7, 57, 64
9, 44520, Note_on_c, 7, 57, 0
9, 44520, Note_on_c, 7, 55, 64
9, 44550, Note_on_c, 7, 55, 0
9, 44550, Note_on_c, 7, 54, 64
9, 44580, Note_on_c, 7, 54, 0
9, 44580, Note_on_c, 7, 62, 64
9, 44640, Note_on_c, 7, 62, 0
9, 44640, Note_on_c, 7, 55, 65
9, 44760, Note_on_c, 7, 55, 0
9, 44760, Note_on_c, 7, 54, 66
9, 44820, Note_on_c, 7, 54, 0
9, 44820, Note_on_c, 7, 55, 66
9, 44855, Note_on_c, 7, 55, 0
9, 44880, Note_on_c, 7, 59, 67
9, 44940, Note_on_c, 7, 59, 0
9, 44940, Note_on_c, 7, 62, 67
9, 45000, Note_on_c, 7, 62, 0
9, 45000, Note_on_c, 7, 67, 68
9, 45060, Note_on_c, 7, 67, 0
9, 45060, Note_on_c, 7, 59, 68
9, 45120, Note_on_c, 7, 59, 0
9, 45120, Note_on_c, 7, 61, 69
9, 45150, Note_on_c, 7, 61, 0
9, 45150, Note_on_c, 7, 62, 69
9, 45180, Note_on_c, 7, 62, 0
9, 45180, Note_on_c, 7, 64, 69
9, 45300, Note_on_c, 7, 64, 0
9, 45300, Note_on_c, 7, 62, 70
9, 45420, Note_on_c, 7, 62, 0
9, 45480, Note_on_c, 7, 66, 72
9, 45540, Note_on_c, 7, 66, 0
9, 45540, Note_on_c, 7, 66, 72
9, 45660, Note_on_c, 7, 66, 0
9, 45720, Note_on_c, 7, 62, 74
9, 45780, Note_on_c, 7, 62, 0
9, 45780, Note_on_c, 7, 71, 74
9, 45900, Note_on_c, 7, 71, 0
9, 45960, Note_on_c, 7, 67, 76
9, 46020, Note_on_c, 7, 67, 0
9, 46020, Note_on_c, 7, 69, 76
9, 46140, Note_on_c, 7, 69, 0
9, 46140, Note_on_c, 7, 69, 77
9, 46200, Note_on_c, 7, 69, 0
9, 46200, Note_on_c, 7, 71, 78
9, 46260, Note_on_c, 7, 71, 0
9, 46260, Note_on_c, 7, 66, 78
9, 46320, Note_on_c, 7, 66, 0
9, 46320, Note_on_c, 7, 64, 79
9, 46350, Note_on_c, 7, 64, 0
9, 46350, Note_on_c, 7, 62, 79
9, 46380, Note_on_c, 7, 62, 0
9, 46380, Note_on_c, 7, 66, 79
9, 46395, Note_on_c, 7, 66, 0
9, 46395, Note_on_c, 7, 64, 79
9, 46410, Note_on_c, 7, 64, 0
9, 46410, Note_on_c, 7, 66, 79
9, 46425, Note_on_c, 7, 66, 0
9, 46425, Note_on_c, 7, 64, 79
9, 46440, Note_on_c, 7, 64, 0
9, 46440, Note_on_c, 7, 66, 80
9, 46455, Note_on_c, 7, 66, 0
9, 46455, Note_on_c, 7, 64, 80
9, 46470, Note_on_c, 7, 64, 0
9, 46470, Note_on_c, 7, 62, 80
9, 46485, Note_on_c, 7, 62, 0
9, 46485, Note_on_c, 7, 64, 80
9, 46500, Note_on_c, 7, 64, 0
9, 46500, Note_on_c, 7, 66, 64
9, 46620, Note_on_c, 7, 66, 0
9, 47880, Note_on_c, 7, 66, 64
9, 47940, Note_on_c, 7, 66, 0
9, 47940, Note_on_c, 7, 62, 30
9, 48000, Note_on_c, 7, 62, 0
9, 48000, Note_on_c, 7, 62, 32
9, 48035, Note_on_c, 7, 62, 0
9, 48060, Note_on_c, 7, 59, 34
9, 48120, Note_on_c, 7, 59, 0
9, 48120, Note_on_c, 7, 59, 36
9, 48155, Note_on_c, 7, 59, 0
9, 48180, Note_on_c, 7, 66, 38
9, 48240, Note_on_c, 7, 66, 0
9, 48240, Note_on_c, 7, 64, 40
9, 48275, Note_on_c, 7, 64, 0
9, 48300, Note_on_c, 7, 66, 43
9, 48360, Note_on_c, 7, 66, 0
9, 48360, Note_on_c, 7, 62, 45
9, 48395, Note_on_c, 7, 62, 0
9, 48420, Note_on_c, 7, 59, 47
9, 48480, Note_on_c, 7, 59, 0
9, 48480, Note_on_c, 7, 64, 49
9, 48515, Note_on_c, 7, 64, 0
9, 48540, Note_on_c, 7, 64, 51
9, 48600, Note_on_c, 7, 64, 0
9, 48600, Note_on_c, 7, 68, 53
9, 48635, Note_on_c, 7, 68, 0
9, 48660, Note_on_c, 7, 68, 55
9, 48720, Note_on_c, 7, 68, 0
9, 48720, Note_on_c, 7, 64, 57
9, 48755, Note_on_c, 7, 64, 0
9, 48780, Note_on_c, 7, 68, 59
9, 48840, Note_on_c, 7, 68, 0
9, 48840, Note_on_c, 7, 64, 61
9, 48875, Note_on_c, 7, 64, 0
9, 48900, Note_on_c, 7, 64, 63
9, 48935, Note_on_c, 7, 64, 0
9, 49020, Note_on_c, 7, 62, 68
9, 49055, Note_on_c, 7, 62, 0
9, 49140, Note_on_c, 7, 69, 72
9, 49175, Note_on_c, 7, 69, 0
9, 49260, Note_on_c, 7, 69, 76
9, 49295, Note_on_c, 7, 69, 0
9, 49380, Note_on_c, 7, 69, 80
9, 49415, Note_on_c, 7, 69, 0
9, 49560, Note_on_c, 7, 62, 81
9, 49595, Note_on_c, 7, 62, 0
9, 49620, Note_on_c, 7, 66, 81
9, 49655, Note_on_c, 7, 66, 0
9, 49800, Note_on_c, 7, 62, 82
9, 49835, Note_on_c, 7, 62, 0
9, 49860, Note_on_c, 7, 62, 83
9, 49895, Note_on_c, 7, 62, 0
9, 50280, Note_on_c, 7, 64, 85
9, 50315, Note_on_c, 7, 64, 0
9, 50340, Note_on_c, 7, 68, 85
9, 50375, Note_on_c, 7, 68, 0
9, 50520, Note_on_c, 7, 64, 86
9, 50555, Note_on_c, 7, 64, 0
9, 50580, Note_on_c, 7, 64, 86
9, 50615, Note_on_c, 7, 64, 0
9, 51000, Note_on_c, 7, 66, 88
9, 51035, Note_on_c, 7, 66, 0
9, 51060, Note_on_c, 7, 70, 89
9, 51095, Note_on_c, 7, 70, 0
9, 51240, Note_on_c, 7, 66, 90
9, 51275, Note_on_c, 7, 66, 0
9, 51300, Note_on_c, 7, 66, 80
9, 51330, Note_on_c, 7, 66, 0
9, 51330, Note_on_c, 7, 64, 80
9, 51360, Note_on_c, 7, 64, 0
9, 51360, Note_on_c, 7, 62, 81
9, 51390, Note_on_c, 7, 62, 0
9, 51390, Note_on_c, 7, 61, 81
9, 51420, Note_on_c, 7, 61, 0
9, 51420, Note_on_c, 7, 59, 81
9, 51450, Note_on_c, 7, 59, 0
9, 51450, Note_on_c, 7, 66, 82
9, 51480, Note_on_c, 7, 66, 0
9, 51480, Note_on_c, 7, 67, 82
9, 51510, Note_on_c, 7, 67, 0
9, 51510, Note_on_c, 7, 69, 83
9, 51540, Note_on_c, 7, 69, 0
9, 51540, Note_on_c, 7, 71, 83
9, 51570, Note_on_c, 7, 71, 0
9, 51570, Note_on_c, 7, 55, 83
9, 51600, Note_on_c, 7, 55, 0
9, 51600, Note_on_c, 7, 57, 84
9, 51630, Note_on_c, 7, 57, 0
9, 51630, Note_on_c, 7, 59, 84
9, 51660, Note_on_c, 7, 59, 0
9, 51660, Note_on_c, 7, 57, 84
9, 51690, Note_on_c, 7, 57, 0
9, 51690, Note_on_c, 7, 69, 85
9, 51720, Note_on_c, 7, 69, 0
9, 51720, Note_on_c, 7, 67, 85
9, 51750, Note_on_c, 7, 67, 0
9, 51750, Note_on_c, 7, 66, 85
9, 51780, Note_on_c, 7, 66, 0
9, 51780, Note_on_c, 7, 67, 86
9, 51810, Note_on_c, 7, 67, 0
9, 51810, Note_on_c, 7, 69, 86
9, 51840, Note_on_c, 7, 69, 0
9, 51840, Note_on_c, 7, 71, 86
9, 51870, Note_on_c, 7, 71, 0
9, 51870, Note_on_c, 7, 69, 87
9, 51900, Note_on_c, 7, 69, 0
9, 51900, Note_on_c, 7, 67, 87
9, 51930, Note_on_c, 7, 67, 0
9, 51930, Note_on_c, 7, 66, 88
9, 51960, Note_on_c, 7, 66, 0
9, 51960, Note_on_c, 7, 64, 88
9, 51990, Note_on_c, 7, 64, 0
9, 51990, Note_on_c, 7, 69, 88
9, 52020, Note_on_c, 7, 69, 0
9, 52020, Note_on_c, 7, 69, 89
9, 52050, Note_on_c, 7, 69, 0
9, 52050, Note_on_c, 7, 71, 89
9, 52080, Note_on_c, 7, 71, 0
9, 52080, Note_on_c, 7, 69, 89
9, 52110, Note_on_c, 7, 69, 0
9, 52110, Note_on_c, 7, 67, 90
9, 52140, Note_on_c, 7, 67, 0
9, 52140, Note_on_c, 7, 66, 90
9, 52170, Note_on_c, 7, 66, 0
9, 52170, Note_on_c, 7, 64, 90
9, 52200, Note_on_c, 7, 64, 0
9, 52200, Note_on_c, 7, 66, 91
9, 52230, Note_on_c, 7, 66, 0
9, 52230, Note_on_c, 7, 69, 91
9, 52260, Note_on_c, 7, 69, 0
9, 52260, Note_on_c, 7, 64, 91
9, 52290, Note_on_c, 7, 64, 0
9, 52290, Note_on_c, 7, 62, 92
9, 52320, Note_on_c, 7, 62, 0
9, 52320, Note_on_c, 7, 61, 92
9, 52350, Note_on_c, 7, 61, 0
9, 52350, Note_on_c, 7, 59, 93
9, 52380, Note_on_c, 7, 59, 0
9, 52380, Note_on_c, 7, 57, 93
9, 52410, Note_on_c, 7, 57, 0
9, 52410, Note_on_c, 7, 59, 93
9, 52440, Note_on_c, 7, 59, 0
9, 52440, Note_on_c, 7, 61, 94
9, 52470, Note_on_c, 7, 61, 0
9, 52470, Note_on_c, 7, 62, 94
9, 52500, Note_on_c, 7, 62, 0
9, 52500, Note_on_c, 7, 64, 94
9, 52530, Note_on_c, 7, 64, 0
9, 52530, Note_on_c, 7, 62, 95
9, 52560, Note_on_c, 7, 62, 0
9, 52560, Note_on_c, 7, 64, 95
9, 52590, Note_on_c, 7, 64, 0
9, 52590, Note_on_c, 7, 66, 95
9, 52620, Note_on_c, 7, 66, 0
9, 52620, Note_on_c, 7, 64, 96
9, 52650, Note_on_c, 7, 64, 0
9, 52650, Note_on_c, 7, 66, 96
9, 52680, Note_on_c, 7, 66, 0
9, 52680, Note_on_c, 7, 64, 96
9, 52710, Note_on_c, 7, 64, 0
9, 52710, Note_on_c, 7, 62, 97
9, 52740, Note_on_c, 7, 62, 0
9, 52740, Note_on_c, 7, 61, 97
9, 52800, Note_on_c, 7, 61, 0
9, 52800, Note_on_c, 7, 57, 98
9, 52860, Note_on_c, 7, 57, 0
9, 52920, Note_on_c, 7, 61, 99
9, 52980, Note_on_c, 7, 61, 0
9, 52980, Note_on_c, 7, 64, 100
9, 53040, Note_on_c, 7, 64, 0
9, 53040, Note_on_c, 7, 55, 101
9, 53070, Note_on_c, 7, 55, 0
9, 53070, Note_on_c, 7, 54, 101
9, 53100, Note_on_c, 7, 54, 0
9, 53100, Note_on_c, 7, 55, 101
9, 53160, Note_on_c, 7, 55, 0
9, 53160, Note_on_c, 7, 57, 102
9, 53220, Note_on_c, 7, 57, 0
9, 53220, Note_on_c, 7, 54, 103
9, 53280, Note_on_c, 7, 54, 0
9, 53280, Note_on_c, 7, 50, 104
9, 53340, Note_on_c, 7, 50, 0
9, 53400, Note_on_c, 7, 55, 105
9, 53460, Note_on_c, 7, 55, 0
9, 53460, Note_on_c, 7, 60, 106
9, 53580, Note_on_c, 7, 60, 0
9, 53640, Note_on_c, 7, 57, 108
9, 53700, Note_on_c, 7, 57, 0
9, 53700, Note_on_c, 7, 59, 109
9, 53820, Note_on_c, 7, 59, 0
9, 53880, Note_on_c, 7, 55, 111
9, 53940, Note_on_c, 7, 55, 0
9, 53940, Note_on_c, 7, 57, 111
9, 54060, Note_on_c, 7, 57, 0
9, 54060, Note_on_c, 7, 50, 113
9, 54095, Note_on_c, 7, 50, 0
9, 54120, Note_on_c, 7, 62, 114
9, 54240, Note_on_c, 7, 62, 0
9, 54240, Note_on_c, 7, 64, 115
9, 54270, Note_on_c, 7, 64, 0
9, 54270, Note_on_c, 7, 66, 115
9, 54300, Note_on_c, 7, 66, 0
9, 54300, Note_on_c, 7, 67, 116
9, 54360, Note_on_c, 7, 67, 0
9, 54360, Note_on_c, 7, 64, 116
9, 54420, Note_on_c, 7, 64, 0
9, 54420, Note_on_c, 7, 66, 117
9, 54660, Note_on_c, 7, 66, 0
9, 55140, End_track
10, 0, Start_track
10, 0, MIDI_port, 0
10, 0, Title_t, "Cello"
10, 0, Program_c, 8, 48
10, 180, Note_on_c, 8, 62, 70
10, 215, Note_on_c, 8, 62, 0
10, 240, Note_on_c, 8, 50, 70
10, 275, Note_on_c, 8, 50, 0
10, 300, Note_on_c, 8, 62, 70
10, 395, Note_on_c, 8, 62, 0
10, 420, Note_on_c, 8, 61, 70
10, 455, Note_on_c, 8, 61, 0
10, 480, Note_on_c, 8, 57, 70
10, 515, Note_on_c, 8, 57, 0
10, 540, Note_on_c, 8, 62, 70
10, 575, Note_on_c, 8, 62, 0
10, 600, Note_on_c, 8, 50, 70
10, 635, Note_on_c, 8, 50, 0
10, 660, Note_on_c, 8, 62, 70
10, 755, Note_on_c, 8, 62, 0
10, 780, Note_on_c, 8, 61, 70
10, 815, Note_on_c, 8, 61, 0
10, 840, Note_on_c, 8, 57, 70
10, 875, Note_on_c, 8, 57, 0
10, 900, Note_on_c, 8, 50, 70
10, 935, Note_on_c, 8, 50, 0
10, 960, Note_on_c, 8, 50, 70
10, 995, Note_on_c, 8, 50, 0
10, 1020, Note_on_c, 8, 52, 70
10, 1055, Note_on_c, 8, 52, 0
10, 1080, Note_on_c, 8, 54, 70
10, 1115, Note_on_c, 8, 54, 0
10, 1140, Note_on_c, 8, 55, 70
10, 1170, Note_on_c, 8, 55, 0
10, 1170, Note_on_c, 8, 54, 70
10, 1200, Note_on_c, 8, 54, 0
10, 1200, Note_on_c, 8, 52, 70
10, 1230, Note_on_c, 8, 52, 0
10, 1230, Note_on_c, 8, 50, 70
10, 1260, Note_on_c, 8, 50, 0
10, 1260, Note_on_c, 8, 57, 70
10, 1295, Note_on_c, 8, 57, 0
10, 1440, Note_on_c, 8, 45, 70
10, 1475, Note_on_c, 8, 45, 0
10, 1680, Note_on_c, 8, 57, 70
10, 1715, Note_on_c, 8, 57, 0
10, 1740, Note_on_c, 8, 55, 70
10, 1775, Note_on_c, 8, 55, 0
10, 1800, Note_on_c, 8, 54, 64
10, 1835, Note_on_c, 8, 54, 0
10, 1860, Note_on_c, 8, 54, 64
10, 1895, Note_on_c, 8, 54, 0
10, 1920, Note_on_c, 8, 52, 64
10, 1955, Note_on_c, 8, 52, 0
10, 1980, Note_on_c, 8, 51, 64
10, 2015, Note_on_c, 8, 51, 0
10, 2040, Note_on_c, 8, 59, 64
10, 2075, Note_on_c, 8, 59, 0
10, 2100, Note_on_c, 8, 57, 64
10, 2135, Note_on_c, 8, 57, 0
10, 2160, Note_on_c, 8, 55, 64
10, 2190, Note_on_c, 8, 55, 0
10, 2190, Note_on_c, 8, 54, 64
10, 2220, Note_on_c, 8, 54, 0
10, 2220, Note_on_c, 8, 55, 64
10, 2250, Note_on_c, 8, 55, 0
10, 2250, Note_on_c, 8, 57, 64
10, 2280, Note_on_c, 8, 57, 0
10, 2280, Note_on_c, 8, 59, 64
10, 2315, Note_on_c, 8, 59, 0
10, 2340, Note_on_c, 8, 52, 64
10, 2375, Note_on_c, 8, 52, 0
10, 2400, Note_on_c, 8, 55, 64
10, 2435, Note_on_c, 8, 55, 0
10, 2460, Note_on_c, 8, 54, 64
10, 2495, Note_on_c, 8, 54, 0
10, 2520, Note_on_c, 8, 52, 64
10, 2555, Note_on_c, 8, 52, 0
10, 2580, Note_on_c, 8, 52, 64
10, 2615, Note_on_c, 8, 52, 0
10, 2640, Note_on_c, 8, 50, 64
10, 2675, Note_on_c, 8, 50, 0
10, 2700, Note_on_c, 8, 49, 64
10, 2735, Note_on_c, 8, 49, 0
10, 2760, Note_on_c, 8, 57, 64
10, 2795, Note_on_c, 8, 57, 0
10, 2820, Note_on_c, 8, 55, 64
10, 2855, Note_on_c, 8, 55, 0
10, 2880, Note_on_c, 8, 54, 64
10, 2910, Note_on_c, 8, 54, 0
10, 2910, Note_on_c, 8, 52, 64
10, 2940, Note_on_c, 8, 52, 0
10, 2940, Note_on_c, 8, 54, 64
10, 2970, Note_on_c, 8, 54, 0
10, 2970, Note_on_c, 8, 55, 64
10, 3000, Note_on_c, 8, 55, 0
10, 3000, Note_on_c, 8, 57, 64
10, 3035, Note_on_c, 8, 57, 0
10, 3060, Note_on_c, 8, 50, 64
10, 3095, Note_on_c, 8, 50, 0
10, 3120, Note_on_c, 8, 62, 64
10, 3155, Note_on_c, 8, 62, 0
10, 3180, Note_on_c, 8, 59, 64
10, 3215, Note_on_c, 8, 59, 0
10, 3240, Note_on_c, 8, 55, 64
10, 3275, Note_on_c, 8, 55, 0
10, 3300, Note_on_c, 8, 52, 64
10, 3335, Note_on_c, 8, 52, 0
10, 3360, Note_on_c, 8, 57, 64
10, 3395, Note_on_c, 8, 57, 0
10, 3420, Note_on_c, 8, 47, 64
10, 3455, Note_on_c, 8, 47, 0
10, 3480, Note_on_c, 8, 59, 64
10, 3515, Note_on_c, 8, 59, 0
10, 3540, Note_on_c, 8, 55, 64
10, 3575, Note_on_c, 8, 55, 0
10, 3600, Note_on_c, 8, 52, 64
10, 3635, Note_on_c, 8, 52, 0
10, 3660, Note_on_c, 8, 49, 64
10, 3695, Note_on_c, 8, 49, 0
10, 3720, Note_on_c, 8, 54, 64
10, 3755, Note_on_c, 8, 54, 0
10, 3780, Note_on_c, 8, 43, 64
10, 3815, Note_on_c, 8, 43, 0
10, 3840, Note_on_c, 8, 55, 65
10, 3875, Note_on_c, 8, 55, 0
10, 3900, Note_on_c, 8, 52, 67
10, 3935, Note_on_c, 8, 52, 0
10, 3960, Note_on_c, 8, 49, 68
10, 3995, Note_on_c, 8, 49, 0
10, 4020, Note_on_c, 8, 45, 69
10, 4055, Note_on_c, 8, 45, 0
10, 4080, Note_on_c, 8, 50, 71
10, 4115, Note_on_c, 8, 50, 0
10, 4140, Note_on_c, 8, 43, 72
10, 4175, Note_on_c, 8, 43, 0
10, 4200, Note_on_c, 8, 45, 73
10, 4235, Note_on_c, 8, 45, 0
10, 4260, Note_on_c, 8, 47, 75
10, 4295, Note_on_c, 8, 47, 0
10, 4320, Note_on_c, 8, 45, 76
10, 4350, Note_on_c, 8, 45, 0
10, 4350, Note_on_c, 8, 43, 77
10, 4380, Note_on_c, 8, 43, 0
10, 4380, Note_on_c, 8, 45, 77
10, 4415, Note_on_c, 8, 45, 0
10, 4440, Note_on_c, 8, 45, 79
10, 4475, Note_on_c, 8, 45, 0
10, 4500, Note_on_c, 8, 38, 80
10, 4530, Note_on_c, 8, 38, 0
10, 4530, Note_on_c, 8, 50, 64
10, 4535, Control_c, 8, 7, 75
10, 4560, Note_on_c, 8, 50, 0
10, 4560, Note_on_c, 8, 54, 64
10, 4590, Note_on_c, 8, 54, 0
10, 4590, Note_on_c, 8, 57, 64
10, 4620, Note_on_c, 8, 57, 0
10, 4620, Note_on_c, 8, 54, 64
10, 4650, Note_on_c, 8, 54, 0
10, 4650, Note_on_c, 8, 50, 64
10, 4680, Note_on_c, 8, 50, 0
10, 4680, Note_on_c, 8, 57, 64
10, 4715, Note_on_c, 8, 57, 0
10, 4890, Note_on_c, 8, 50, 64
10, 4920, Note_on_c, 8, 50, 0
10, 4920, Note_on_c, 8, 54, 64
10, 4950, Note_on_c, 8, 54, 0
10, 4950, Note_on_c, 8, 57, 64
10, 4980, Note_on_c, 8, 57, 0
10, 4980, Note_on_c, 8, 54, 64
10, 5010, Note_on_c, 8, 54, 0
10, 5010, Note_on_c, 8, 50, 64
10, 5040, Note_on_c, 8, 50, 0
10, 5040, Note_on_c, 8, 57, 64
10, 5075, Note_on_c, 8, 57, 0
10, 5220, Note_on_c, 8, 50, 55
10, 5231, Note_on_c, 8, 50, 0
10, 5280, Note_on_c, 8, 50, 56
10, 5291, Note_on_c, 8, 50, 0
10, 5340, Note_on_c, 8, 52, 57
10, 5351, Note_on_c, 8, 52, 0
10, 5400, Note_on_c, 8, 54, 58
10, 5411, Note_on_c, 8, 54, 0
10, 5460, Note_on_c, 8, 55, 59
10, 5490, Note_on_c, 8, 55, 0
10, 5490, Note_on_c, 8, 54, 60
10, 5520, Note_on_c, 8, 54, 0
10, 5520, Note_on_c, 8, 52, 60
10, 5550, Note_on_c, 8, 52, 0
10, 5550, Note_on_c, 8, 50, 61
10, 5580, Note_on_c, 8, 50, 0
10, 5580, Note_on_c, 8, 57, 61
10, 5591, Note_on_c, 8, 57, 0
10, 5760, Note_on_c, 8, 45, 64
10, 5795, Note_on_c, 8, 45, 0
10, 5940, Note_on_c, 8, 57, 67
10, 5975, Note_on_c, 8, 57, 0
10, 6000, Note_on_c, 8, 52, 68
10, 6035, Note_on_c, 8, 52, 0
10, 6060, Note_on_c, 8, 49, 69
10, 6095, Note_on_c, 8, 49, 0
10, 6120, Control_c, 8, 7, 127
10, 6120, Note_on_c, 8, 45, 64
10, 6155, Note_on_c, 8, 45, 0
10, 6180, Note_on_c, 8, 49, 64
10, 6215, Note_on_c, 8, 49, 0
10, 6240, Note_on_c, 8, 52, 64
10, 6275, Note_on_c, 8, 52, 0
10, 6300, Note_on_c, 8, 46, 64
10, 6335, Note_on_c, 8, 46, 0
10, 6360, Note_on_c, 8, 54, 64
10, 6395, Note_on_c, 8, 54, 0
10, 6420, Note_on_c, 8, 52, 64
10, 6455, Note_on_c, 8, 52, 0
10, 6480, Note_on_c, 8, 50, 64
10, 6510, Note_on_c, 8, 50, 0
10, 6510, Note_on_c, 8, 49, 64
10, 6540, Note_on_c, 8, 49, 0
10, 6540, Note_on_c, 8, 50, 64
10, 6570, Note_on_c, 8, 50, 0
10, 6570, Note_on_c, 8, 52, 64
10, 6600, Note_on_c, 8, 52, 0
10, 6600, Note_on_c, 8, 54, 64
10, 6635, Note_on_c, 8, 54, 0
10, 6660, Note_on_c, 8, 47, 64
10, 6695, Note_on_c, 8, 47, 0
10, 6720, Note_on_c, 8, 50, 64
10, 6755, Note_on_c, 8, 50, 0
10, 6780, Note_on_c, 8, 49, 64
10, 6815, Note_on_c, 8, 49, 0
10, 6840, Note_on_c, 8, 47, 64
10, 6875, Note_on_c, 8, 47, 0
10, 6900, Note_on_c, 8, 47, 64
10, 6935, Note_on_c, 8, 47, 0
10, 6960, Note_on_c, 8, 45, 64
10, 6995, Note_on_c, 8, 45, 0
10, 7020, Note_on_c, 8, 44, 64
10, 7055, Note_on_c, 8, 44, 0
10, 7080, Note_on_c, 8, 52, 64
10, 7115, Note_on_c, 8, 52, 0
10, 7140, Note_on_c, 8, 50, 64
10, 7175, Note_on_c, 8, 50, 0
10, 7200, Note_on_c, 8, 49, 64
10, 7230, Note_on_c, 8, 49, 0
10, 7230, Note_on_c, 8, 47, 64
10, 7260, Note_on_c, 8, 47, 0
10, 7260, Note_on_c, 8, 49, 64
10, 7290, Note_on_c, 8, 49, 0
10, 7290, Note_on_c, 8, 50, 64
10, 7320, Note_on_c, 8, 50, 0
10, 7320, Note_on_c, 8, 52, 64
10, 7355, Note_on_c, 8, 52, 0
10, 7380, Control_c, 8, 7, 75
10, 7380, Note_on_c, 8, 45, 64
10, 7410, Note_on_c, 8, 45, 0
10, 7410, Note_on_c, 8, 57, 64
10, 7440, Note_on_c, 8, 57, 0
10, 7440, Note_on_c, 8, 61, 64
10, 7470, Note_on_c, 8, 61, 0
10, 7470, Note_on_c, 8, 64, 64
10, 7500, Note_on_c, 8, 64, 0
10, 7500, Note_on_c, 8, 61, 64
10, 7530, Note_on_c, 8, 61, 0
10, 7530, Note_on_c, 8, 57, 64
10, 7560, Note_on_c, 8, 57, 0
10, 7560, Note_on_c, 8, 64, 64
10, 7595, Note_on_c, 8, 64, 0
10, 7770, Note_on_c, 8, 57, 64
10, 7800, Note_on_c, 8, 57, 0
10, 7800, Note_on_c, 8, 61, 64
10, 7830, Note_on_c, 8, 61, 0
10, 7830, Note_on_c, 8, 64, 64
10, 7860, Note_on_c, 8, 64, 0
10, 7860, Note_on_c, 8, 61, 64
10, 7890, Note_on_c, 8, 61, 0
10, 7890, Note_on_c, 8, 57, 64
10, 7920, Note_on_c, 8, 57, 0
10, 7920, Note_on_c, 8, 64, 64
10, 7955, Note_on_c, 8, 64, 0
10, 8100, Note_on_c, 8, 45, 64
10, 8111, Note_on_c, 8, 45, 0
10, 8160, Note_on_c, 8, 45, 65
10, 8171, Note_on_c, 8, 45, 0
10, 8220, Note_on_c, 8, 47, 66
10, 8231, Note_on_c, 8, 47, 0
10, 8280, Note_on_c, 8, 49, 67
10, 8291, Note_on_c, 8, 49, 0
10, 8340, Note_on_c, 8, 50, 68
10, 8370, Note_on_c, 8, 50, 0
10, 8370, Note_on_c, 8, 49, 69
10, 8400, Note_on_c, 8, 49, 0
10, 8400, Note_on_c, 8, 47, 69
10, 8430, Note_on_c, 8, 47, 0
10, 8430, Note_on_c, 8, 45, 70
10, 8460, Note_on_c, 8, 45, 0
10, 8460, Note_on_c, 8, 52, 70
10, 8471, Note_on_c, 8, 52, 0
10, 8640, Note_on_c, 8, 40, 74
10, 8675, Note_on_c, 8, 40, 0
10, 8820, Note_on_c, 8, 52, 77
10, 8855, Note_on_c, 8, 52, 0
10, 8880, Note_on_c, 8, 52, 78
10, 8915, Note_on_c, 8, 52, 0
10, 8940, Note_on_c, 8, 50, 79
10, 8975, Note_on_c, 8, 50, 0
10, 9000, Note_on_c, 8, 49, 40
10, 9035, Note_on_c, 8, 49, 0
10, 9060, Note_on_c, 8, 49, 43
10, 9095, Note_on_c, 8, 49, 0
10, 9120, Note_on_c, 8, 47, 46
10, 9155, Note_on_c, 8, 47, 0
10, 9180, Note_on_c, 8, 46, 49
10, 9215, Note_on_c, 8, 46, 0
10, 9240, Note_on_c, 8, 54, 51
10, 9275, Note_on_c, 8, 54, 0
10, 9300, Note_on_c, 8, 52, 54
10, 9335, Note_on_c, 8, 52, 0
10, 9360, Note_on_c, 8, 50, 57
10, 9390, Note_on_c, 8, 50, 0
10, 9390, Note_on_c, 8, 49, 58
10, 9420, Note_on_c, 8, 49, 0
10, 9420, Note_on_c, 8, 50, 60
10, 9450, Note_on_c, 8, 50, 0
10, 9450, Note_on_c, 8, 52, 61
10, 9480, Note_on_c, 8, 52, 0
10, 9480, Note_on_c, 8, 54, 63
10, 9515, Note_on_c, 8, 54, 0
10, 9540, Note_on_c, 8, 47, 66
10, 9575, Note_on_c, 8, 47, 0
10, 9600, Note_on_c, 8, 50, 68
10, 9635, Note_on_c, 8, 50, 0
10, 9660, Note_on_c, 8, 49, 71
10, 9695, Note_on_c, 8, 49, 0
10, 9720, Note_on_c, 8, 47, 50
10, 9755, Note_on_c, 8, 47, 0
10, 9780, Note_on_c, 8, 47, 52
10, 9815, Note_on_c, 8, 47, 0
10, 9840, Note_on_c, 8, 45, 54
10, 9875, Note_on_c, 8, 45, 0
10, 9900, Note_on_c, 8, 44, 56
10, 9935, Note_on_c, 8, 44, 0
10, 9960, Note_on_c, 8, 52, 58
10, 9995, Note_on_c, 8, 52, 0
10, 10020, Note_on_c, 8, 50, 60
10, 10055, Note_on_c, 8, 50, 0
10, 10080, Note_on_c, 8, 49, 63
10, 10110, Note_on_c, 8, 49, 0
10, 10110, Note_on_c, 8, 47, 64
10, 10140, Note_on_c, 8, 47, 0
10, 10140, Note_on_c, 8, 49, 65
10, 10170, Note_on_c, 8, 49, 0
10, 10170, Note_on_c, 8, 50, 66
10, 10200, Note_on_c, 8, 50, 0
10, 10200, Note_on_c, 8, 52, 67
10, 10235, Note_on_c, 8, 52, 0
10, 10260, Note_on_c, 8, 45, 69
10, 10295, Note_on_c, 8, 45, 0
10, 10320, Note_on_c, 8, 57, 71
10, 10355, Note_on_c, 8, 57, 0
10, 10380, Note_on_c, 8, 54, 73
10, 10415, Note_on_c, 8, 54, 0
10, 10440, Note_on_c, 8, 50, 64
10, 10475, Note_on_c, 8, 50, 0
10, 10500, Note_on_c, 8, 47, 65
10, 10535, Note_on_c, 8, 47, 0
10, 10560, Note_on_c, 8, 52, 66
10, 10595, Note_on_c, 8, 52, 0
10, 10620, Note_on_c, 8, 42, 66
10, 10655, Note_on_c, 8, 42, 0
10, 10680, Note_on_c, 8, 54, 67
10, 10715, Note_on_c, 8, 54, 0
10, 10740, Note_on_c, 8, 50, 68
10, 10775, Note_on_c, 8, 50, 0
10, 10800, Note_on_c, 8, 47, 69
10, 10835, Note_on_c, 8, 47, 0
10, 10860, Note_on_c, 8, 44, 69
10, 10895, Note_on_c, 8, 44, 0
10, 10920, Note_on_c, 8, 49, 70
10, 10955, Note_on_c, 8, 49, 0
10, 10980, Note_on_c, 8, 38, 71
10, 11015, Note_on_c, 8, 38, 0
10, 11040, Note_on_c, 8, 50, 72
10, 11075, Note_on_c, 8, 50, 0
10, 11100, Note_on_c, 8, 47, 72
10, 11135, Note_on_c, 8, 47, 0
10, 11160, Note_on_c, 8, 44, 73
10, 11195, Note_on_c, 8, 44, 0
10, 11220, Note_on_c, 8, 40, 74
10, 11255, Note_on_c, 8, 40, 0
10, 11280, Note_on_c, 8, 45, 75
10, 11315, Note_on_c, 8, 45, 0
10, 11340, Note_on_c, 8, 50, 75
10, 11351, Note_on_c, 8, 50, 0
10, 11400, Note_on_c, 8, 52, 76
10, 11411, Note_on_c, 8, 52, 0
10, 11460, Note_on_c, 8, 54, 77
10, 11471, Note_on_c, 8, 54, 0
10, 11520, Note_on_c, 8, 52, 78
10, 11550, Note_on_c, 8, 52, 0
10, 11550, Note_on_c, 8, 50, 78
10, 11580, Note_on_c, 8, 50, 0
10, 11580, Note_on_c, 8, 52, 78
10, 11615, Note_on_c, 8, 52, 0
10, 11640, Note_on_c, 8, 40, 79
10, 11675, Note_on_c, 8, 40, 0
10, 11700, Control_c, 8, 7, 127
10, 11700, Note_on_c, 8, 45, 64
10, 11735, Note_on_c, 8, 45, 0
10, 11760, Note_on_c, 8, 57, 64
10, 11790, Note_on_c, 8, 57, 0
10, 11790, Note_on_c, 8, 56, 64
10, 11820, Note_on_c, 8, 56, 0
10, 11820, Note_on_c, 8, 57, 64
10, 11915, Note_on_c, 8, 57, 0
10, 11940, Note_on_c, 8, 56, 64
10, 11975, Note_on_c, 8, 56, 0
10, 12000, Note_on_c, 8, 52, 64
10, 12035, Note_on_c, 8, 52, 0
10, 12060, Note_on_c, 8, 57, 64
10, 12095, Note_on_c, 8, 57, 0
10, 12420, Control_c, 8, 7, 75
10, 12420, Note_on_c, 8, 45, 40
10, 12455, Note_on_c, 8, 45, 0
10, 12480, Note_on_c, 8, 57, 41
10, 12515, Note_on_c, 8, 57, 0
10, 12540, Note_on_c, 8, 55, 43
10, 12575, Note_on_c, 8, 55, 0
10, 12600, Note_on_c, 8, 54, 44
10, 12635, Note_on_c, 8, 54, 0
10, 12660, Note_on_c, 8, 59, 45
10, 12695, Note_on_c, 8, 59, 0
10, 12720, Note_on_c, 8, 47, 46
10, 12755, Note_on_c, 8, 47, 0
10, 12780, Note_on_c, 8, 52, 48
10, 12815, Note_on_c, 8, 52, 0
10, 12840, Note_on_c, 8, 64, 49
10, 12875, Note_on_c, 8, 64, 0
10, 12900, Note_on_c, 8, 62, 50
10, 12935, Note_on_c, 8, 62, 0
10, 12960, Note_on_c, 8, 61, 51
10, 12995, Note_on_c, 8, 61, 0
10, 13020, Note_on_c, 8, 66, 53
10, 13055, Note_on_c, 8, 66, 0
10, 13080, Note_on_c, 8, 54, 54
10, 13115, Note_on_c, 8, 54, 0
10, 13140, Note_on_c, 8, 59, 55
10, 13170, Note_on_c, 8, 59, 0
10, 13170, Note_on_c, 8, 54, 56
10, 13200, Note_on_c, 8, 54, 0
10, 13200, Note_on_c, 8, 59, 56
10, 13230, Note_on_c, 8, 59, 0
10, 13230, Note_on_c, 8, 62, 57
10, 13260, Note_on_c, 8, 62, 0
10, 13260, Note_on_c, 8, 59, 58
10, 13290, Note_on_c, 8, 59, 0
10, 13290, Note_on_c, 8, 54, 58
10, 13320, Note_on_c, 8, 54, 0
10, 13320, Note_on_c, 8, 55, 59
10, 13350, Note_on_c, 8, 55, 0
10, 13350, Note_on_c, 8, 52, 59
10, 13380, Note_on_c, 8, 52, 0
10, 13380, Note_on_c, 8, 57, 60
10, 13415, Note_on_c, 8, 57, 0
10, 13440, Note_on_c, 8, 45, 61
10, 13475, Note_on_c, 8, 45, 0
10, 13500, Note_on_c, 8, 38, 63
10, 13530, Note_on_c, 8, 38, 0
10, 13530, Note_on_c, 8, 50, 63
10, 13560, Note_on_c, 8, 50, 0
10, 13560, Note_on_c, 8, 54, 64
10, 13590, Note_on_c, 8, 54, 0
10, 13590, Note_on_c, 8, 57, 64
10, 13620, Note_on_c, 8, 57, 0
10, 13620, Note_on_c, 8, 54, 65
10, 13650, Note_on_c, 8, 54, 0
10, 13650, Note_on_c, 8, 50, 66
10, 13680, Note_on_c, 8, 50, 0
10, 13680, Note_on_c, 8, 55, 66
10, 13715, Note_on_c, 8, 55, 0
10, 13740, Note_on_c, 8, 57, 68
10, 13775, Note_on_c, 8, 57, 0
10, 13800, Note_on_c, 8, 45, 69
10, 13835, Note_on_c, 8, 45, 0
10, 13860, Control_c, 8, 7, 127
10, 13860, Note_on_c, 8, 50, 64
10, 13895, Note_on_c, 8, 50, 0
10, 13920, Note_on_c, 8, 38, 64
10, 13955, Note_on_c, 8, 38, 0
10, 13980, Note_on_c, 8, 50, 64
10, 14075, Note_on_c, 8, 50, 0
10, 14100, Note_on_c, 8, 49, 64
10, 14135, Note_on_c, 8, 49, 0
10, 14160, Note_on_c, 8, 45, 64
10, 14195, Note_on_c, 8, 45, 0
10, 14220, Note_on_c, 8, 50, 64
10, 14255, Note_on_c, 8, 50, 0
10, 14280, Note_on_c, 8, 62, 64
10, 14310, Note_on_c, 8, 62, 0
10, 14310, Note_on_c, 8, 61, 64
10, 14340, Note_on_c, 8, 61, 0
10, 14340, Note_on_c, 8, 62, 64
10, 14435, Note_on_c, 8, 62, 0
10, 14460, Note_on_c, 8, 61, 64
10, 14495, Note_on_c, 8, 61, 0
10, 14520, Note_on_c, 8, 57, 64
10, 14555, Note_on_c, 8, 57, 0
10, 14580, Note_on_c, 8, 50, 64
10, 14591, Note_on_c, 8, 50, 0
10, 14640, Note_on_c, 8, 50, 64
10, 14651, Note_on_c, 8, 50, 0
10, 14700, Note_on_c, 8, 52, 64
10, 14711, Note_on_c, 8, 52, 0
10, 14760, Note_on_c, 8, 54, 64
10, 14795, Note_on_c, 8, 54, 0
10, 14820, Note_on_c, 8, 55, 64
10, 14850, Note_on_c, 8, 55, 0
10, 14850, Note_on_c, 8, 54, 64
10, 14880, Note_on_c, 8, 54, 0
10, 14880, Note_on_c, 8, 52, 64
10, 14910, Note_on_c, 8, 52, 0
10, 14910, Note_on_c, 8, 50, 64
10, 14940, Note_on_c, 8, 50, 0
10, 14940, Note_on_c, 8, 57, 64
10, 14951, Note_on_c, 8, 57, 0
10, 15120, Note_on_c, 8, 45, 64
10, 15155, Note_on_c, 8, 45, 0
10, 15300, Control_c, 8, 7, 75
10, 15300, Note_on_c, 8, 57, 50
10, 15335, Note_on_c, 8, 57, 0
10, 15360, Note_on_c, 8, 57, 52
10, 15395, Note_on_c, 8, 57, 0
10, 15420, Note_on_c, 8, 55, 53
10, 15455, Note_on_c, 8, 55, 0
10, 15480, Note_on_c, 8, 54, 55
10, 15515, Note_on_c, 8, 54, 0
10, 15540, Note_on_c, 8, 54, 57
10, 15575, Note_on_c, 8, 54, 0
10, 15600, Note_on_c, 8, 52, 58
10, 15635, Note_on_c, 8, 52, 0
10, 15660, Note_on_c, 8, 51, 60
10, 15695, Note_on_c, 8, 51, 0
10, 15720, Note_on_c, 8, 59, 62
10, 15755, Note_on_c, 8, 59, 0
10, 15780, Note_on_c, 8, 54, 63
10, 15815, Note_on_c, 8, 54, 0
10, 15840, Note_on_c, 8, 55, 65
10, 15870, Note_on_c, 8, 55, 0
10, 15870, Note_on_c, 8, 54, 66
10, 15900, Note_on_c, 8, 54, 0
10, 15900, Note_on_c, 8, 55, 67
10, 15930, Note_on_c, 8, 55, 0
10, 15930, Note_on_c, 8, 57, 68
10, 15960, Note_on_c, 8, 57, 0
10, 15960, Note_on_c, 8, 59, 68
10, 15971, Note_on_c, 8, 59, 0
10, 16020, Note_on_c, 8, 52, 50
10, 16031, Note_on_c, 8, 52, 0
10, 16080, Note_on_c, 8, 55, 52
10, 16115, Note_on_c, 8, 55, 0
10, 16140, Note_on_c, 8, 54, 53
10, 16175, Note_on_c, 8, 54, 0
10, 16200, Note_on_c, 8, 52, 55
10, 16235, Note_on_c, 8, 52, 0
10, 16260, Note_on_c, 8, 52, 57
10, 16295, Note_on_c, 8, 52, 0
10, 16320, Note_on_c, 8, 50, 58
10, 16355, Note_on_c, 8, 50, 0
10, 16380, Note_on_c, 8, 49, 60
10, 16415, Note_on_c, 8, 49, 0
10, 16440, Note_on_c, 8, 57, 62
10, 16475, Note_on_c, 8, 57, 0
10, 16500, Note_on_c, 8, 52, 63
10, 16535, Note_on_c, 8, 52, 0
10, 16560, Note_on_c, 8, 54, 65
10, 16590, Note_on_c, 8, 54, 0
10, 16590, Note_on_c, 8, 52, 66
10, 16620, Note_on_c, 8, 52, 0
10, 16620, Note_on_c, 8, 54, 67
10, 16650, Note_on_c, 8, 54, 0
10, 16650, Note_on_c, 8, 55, 68
10, 16680, Note_on_c, 8, 55, 0
10, 16680, Note_on_c, 8, 57, 68
10, 16691, Note_on_c, 8, 57, 0
10, 16740, Control_c, 8, 7, 75
10, 16740, Note_on_c, 8, 50, 64
10, 16751, Note_on_c, 8, 50, 0
10, 16800, Note_on_c, 8, 62, 65
10, 16835, Note_on_c, 8, 62, 0
10, 16860, Note_on_c, 8, 59, 65
10, 16895, Note_on_c, 8, 59, 0
10, 16920, Note_on_c, 8, 55, 66
10, 16955, Note_on_c, 8, 55, 0
10, 16980, Note_on_c, 8, 52, 67
10, 17015, Note_on_c, 8, 52, 0
10, 17040, Note_on_c, 8, 57, 67
10, 17075, Note_on_c, 8, 57, 0
10, 17100, Note_on_c, 8, 47, 68
10, 17111, Note_on_c, 8, 47, 0
10, 17160, Note_on_c, 8, 59, 69
10, 17195, Note_on_c, 8, 59, 0
10, 17220, Note_on_c, 8, 55, 69
10, 17255, Note_on_c, 8, 55, 0
10, 17280, Note_on_c, 8, 52, 70
10, 17315, Note_on_c, 8, 52, 0
10, 17340, Note_on_c, 8, 49, 71
10, 17375, Note_on_c, 8, 49, 0
10, 17400, Note_on_c, 8, 54, 71
10, 17435, Note_on_c, 8, 54, 0
10, 17460, Note_on_c, 8, 43, 72
10, 17471, Note_on_c, 8, 43, 0
10, 17520, Note_on_c, 8, 55, 73
10, 17555, Note_on_c, 8, 55, 0
10, 17580, Note_on_c, 8, 52, 73
10, 17615, Note_on_c, 8, 52, 0
10, 17640, Note_on_c, 8, 49, 74
10, 17675, Note_on_c, 8, 49, 0
10, 17700, Note_on_c, 8, 45, 75
10, 17735, Note_on_c, 8, 45, 0
10, 17760, Note_on_c, 8, 50, 75
10, 17795, Note_on_c, 8, 50, 0
10, 17820, Note_on_c, 8, 43, 76
10, 17831, Note_on_c, 8, 43, 0
10, 17880, Note_on_c, 8, 45, 77
10, 17891, Note_on_c, 8, 45, 0
10, 17940, Note_on_c, 8, 47, 77
10, 17951, Note_on_c, 8, 47, 0
10, 18000, Note_on_c, 8, 45, 78
10, 18030, Note_on_c, 8, 45, 0
10, 18030, Note_on_c, 8, 43, 78
10, 18060, Note_on_c, 8, 43, 0
10, 18060, Note_on_c, 8, 45, 79
10, 18180, Note_on_c, 8, 45, 0
10, 18180, Note_on_c, 8, 38, 100
10, 18300, Note_on_c, 8, 38, 0
10, 18300, Note_on_c, 8, 50, 30
10, 18420, Note_on_c, 8, 50, 0
10, 18420, Note_on_c, 8, 48, 30
10, 18540, Note_on_c, 8, 48, 0
10, 18540, Note_on_c, 8, 47, 30
10, 18660, Note_on_c, 8, 47, 0
10, 18660, Note_on_c, 8, 45, 30
10, 18780, Note_on_c, 8, 45, 0
10, 18780, Note_on_c, 8, 38, 32
10, 18900, Note_on_c, 8, 38, 0
10, 18900, Note_on_c, 8, 43, 34
10, 20400, Note_on_c, 8, 43, 0
10, 20400, Note_on_c, 8, 43, 61
10, 20435, Note_on_c, 8, 43, 0
10, 20460, Note_on_c, 8, 43, 62
10, 20520, Note_on_c, 8, 43, 0
10, 20520, Note_on_c, 8, 45, 63
10, 20640, Note_on_c, 8, 45, 0
10, 20640, Note_on_c, 8, 47, 64
10, 20675, Note_on_c, 8, 47, 0
10, 20700, Note_on_c, 8, 47, 64
10, 20760, Note_on_c, 8, 47, 0
10, 20760, Note_on_c, 8, 48, 64
10, 20795, Note_on_c, 8, 48, 0
10, 20820, Note_on_c, 8, 48, 64
10, 20880, Note_on_c, 8, 48, 0
10, 20880, Note_on_c, 8, 47, 64
10, 20915, Note_on_c, 8, 47, 0
10, 20940, Note_on_c, 8, 48, 64
10, 21000, Note_on_c, 8, 48, 0
10, 21000, Note_on_c, 8, 50, 64
10, 21035, Note_on_c, 8, 50, 0
10, 21060, Note_on_c, 8, 47, 64
10, 22320, Note_on_c, 8, 47, 0
10, 22320, Note_on_c, 8, 45, 69
10, 22355, Note_on_c, 8, 45, 0
10, 22380, Note_on_c, 8, 45, 69
10, 22440, Note_on_c, 8, 45, 0
10, 22440, Note_on_c, 8, 43, 70
10, 22475, Note_on_c, 8, 43, 0
10, 22500, Note_on_c, 8, 45, 64
10, 22800, Note_on_c, 8, 45, 0
10, 22800, Note_on_c, 8, 47, 64
10, 22835, Note_on_c, 8, 47, 0
10, 22860, Note_on_c, 8, 47, 64
10, 22920, Note_on_c, 8, 47, 0
10, 22920, Note_on_c, 8, 45, 64
10, 22955, Note_on_c, 8, 45, 0
10, 22980, Note_on_c, 8, 43, 64
10, 23040, Note_on_c, 8, 43, 0
10, 23040, Note_on_c, 8, 42, 65
10, 23075, Note_on_c, 8, 42, 0
10, 23100, Note_on_c, 8, 42, 67
10, 23160, Note_on_c, 8, 42, 0
10, 23160, Note_on_c, 8, 40, 68
10, 23195, Note_on_c, 8, 40, 0
10, 23220, Note_on_c, 8, 52, 70
10, 23280, Note_on_c, 8, 52, 0
10, 23280, Note_on_c, 8, 50, 71
10, 23315, Note_on_c, 8, 50, 0
10, 23340, Note_on_c, 8, 50, 72
10, 23400, Note_on_c, 8, 50, 0
10, 23400, Note_on_c, 8, 48, 74
10, 23435, Note_on_c, 8, 48, 0
10, 23460, Note_on_c, 8, 48, 75
10, 23520, Note_on_c, 8, 48, 0
10, 23520, Note_on_c, 8, 47, 75
10, 23580, Note_on_c, 8, 47, 0
10, 23580, Note_on_c, 8, 47, 75
10, 23640, Note_on_c, 8, 47, 0
10, 23640, Note_on_c, 8, 45, 75
10, 23700, Note_on_c, 8, 45, 0
10, 23700, Note_on_c, 8, 45, 75
10, 23760, Note_on_c, 8, 45, 0
10, 23760, Note_on_c, 8, 43, 75
10, 23790, Note_on_c, 8, 43, 0
10, 23790, Note_on_c, 8, 42, 75
10, 23820, Note_on_c, 8, 42, 0
10, 23820, Note_on_c, 8, 43, 75
10, 23880, Note_on_c, 8, 43, 0
10, 23880, Note_on_c, 8, 45, 75
10, 23940, Note_on_c, 8, 45, 0
10, 23940, Note_on_c, 8, 47, 67
10, 24180, Note_on_c, 8, 47, 0
10, 24180, Note_on_c, 8, 40, 53
10, 26160, Note_on_c, 8, 40, 0
10, 26160, Note_on_c, 8, 54, 52
10, 26195, Note_on_c, 8, 54, 0
10, 26220, Note_on_c, 8, 54, 53
10, 26280, Note_on_c, 8, 54, 0
10, 26280, Note_on_c, 8, 52, 53
10, 26315, Note_on_c, 8, 52, 0
10, 26340, Note_on_c, 8, 50, 54
10, 26400, Note_on_c, 8, 50, 0
10, 26400, Note_on_c, 8, 49, 54
10, 26435, Note_on_c, 8, 49, 0
10, 26460, Note_on_c, 8, 49, 55
10, 26520, Note_on_c, 8, 49, 0
10, 26520, Note_on_c, 8, 47, 55
10, 26555, Note_on_c, 8, 47, 0
10, 26580, Note_on_c, 8, 47, 55
10, 26640, Note_on_c, 8, 47, 0
10, 26640, Note_on_c, 8, 45, 56
10, 26675, Note_on_c, 8, 45, 0
10, 26700, Note_on_c, 8, 45, 56
10, 26760, Note_on_c, 8, 45, 0
10, 26760, Note_on_c, 8, 43, 57
10, 26795, Note_on_c, 8, 43, 0
10, 26820, Note_on_c, 8, 43, 57
10, 26880, Note_on_c, 8, 43, 0
10, 26880, Note_on_c, 8, 42, 58
10, 26915, Note_on_c, 8, 42, 0
10, 26940, Note_on_c, 8, 42, 58
10, 27000, Note_on_c, 8, 42, 0
10, 27000, Note_on_c, 8, 40, 58
10, 27035, Note_on_c, 8, 40, 0
10, 27060, Note_on_c, 8, 40, 59
10, 27120, Note_on_c, 8, 40, 0
10, 27120, Note_on_c, 8, 38, 59
10, 27150, Note_on_c, 8, 38, 0
10, 27150, Note_on_c, 8, 37, 60
10, 27180, Note_on_c, 8, 37, 0
10, 27180, Note_on_c, 8, 38, 60
10, 27240, Note_on_c, 8, 38, 0
10, 27240, Note_on_c, 8, 40, 60
10, 27300, Note_on_c, 8, 40, 0
10, 27300, Note_on_c, 8, 42, 61
10, 27540, Note_on_c, 8, 42, 0
10, 27540, Note_on_c, 8, 47, 64
10, 27600, Note_on_c, 8, 47, 0
10, 27600, Note_on_c, 8, 59, 53
10, 27635, Note_on_c, 8, 59, 0
10, 27660, Note_on_c, 8, 57, 41
10, 27720, Note_on_c, 8, 57, 0
10, 27720, Note_on_c, 8, 55, 30
10, 27755, Note_on_c, 8, 55, 0
10, 27780, Control_c, 8, 7, 20
10, 27780, Note_on_c, 8, 54, 64
10, 27785, Control_c, 8, 7, 51
10, 27840, Note_on_c, 8, 54, 0
10, 27840, Note_on_c, 8, 55, 64
10, 27875, Note_on_c, 8, 55, 0
10, 27900, Note_on_c, 8, 54, 64
10, 27960, Note_on_c, 8, 54, 0
10, 27960, Note_on_c, 8, 52, 64
10, 27995, Note_on_c, 8, 52, 0
10, 28020, Note_on_c, 8, 50, 64
10, 28140, Note_on_c, 8, 50, 0
10, 28200, Note_on_c, 8, 50, 64
10, 28260, Note_on_c, 8, 50, 0
10, 28260, Note_on_c, 8, 55, 64
10, 28320, Note_on_c, 8, 55, 0
10, 28320, Note_on_c, 8, 57, 64
10, 28355, Note_on_c, 8, 57, 0
10, 28380, Note_on_c, 8, 59, 64
10, 28440, Note_on_c, 8, 59, 0
10, 28440, Note_on_c, 8, 57, 64
10, 28475, Note_on_c, 8, 57, 0
10, 28500, Note_on_c, 8, 55, 64
10, 28560, Note_on_c, 8, 55, 0
10, 28560, Note_on_c, 8, 54, 64
10, 28590, Note_on_c, 8, 54, 0
10, 28590, Note_on_c, 8, 52, 64
10, 28620, Note_on_c, 8, 52, 0
10, 28620, Note_on_c, 8, 54, 64
10, 28680, Note_on_c, 8, 54, 0
10, 28680, Note_on_c, 8, 55, 64
10, 28740, Note_on_c, 8, 55, 0
10, 28740, Note_on_c, 8, 57, 64
10, 28800, Note_on_c, 8, 57, 0
10, 28800, Note_on_c, 8, 55, 64
10, 28835, Note_on_c, 8, 55, 0
10, 28860, Note_on_c, 8, 57, 64
10, 28920, Note_on_c, 8, 57, 0
10, 28920, Note_on_c, 8, 45, 64
10, 28955, Note_on_c, 8, 45, 0
10, 28980, Note_on_c, 8, 50, 64
10, 29040, Note_on_c, 8, 50, 0
10, 29040, Note_on_c, 8, 62, 64
10, 29160, Note_on_c, 8, 62, 0
10, 29160, Note_on_c, 8, 61, 64
10, 29220, Note_on_c, 8, 61, 0
10, 29220, Note_on_c, 8, 59, 64
10, 29255, Note_on_c, 8, 59, 0
10, 29280, Note_on_c, 8, 57, 64
10, 29291, Note_on_c, 8, 57, 0
10, 29340, Note_on_c, 8, 56, 64
10, 29375, Note_on_c, 8, 56, 0
10, 29400, Note_on_c, 8, 52, 64
10, 29411, Note_on_c, 8, 52, 0
10, 29460, Note_on_c, 8, 57, 64
10, 29495, Note_on_c, 8, 57, 0
10, 29520, Note_on_c, 8, 54, 64
10, 29531, Note_on_c, 8, 54, 0
10, 29580, Note_on_c, 8, 50, 64
10, 29615, Note_on_c, 8, 50, 0
10, 29640, Note_on_c, 8, 47, 64
10, 29651, Note_on_c, 8, 47, 0
10, 29700, Note_on_c, 8, 52, 64
10, 29820, Note_on_c, 8, 52, 0
10, 29820, Note_on_c, 8, 49, 64
10, 29855, Note_on_c, 8, 49, 0
10, 29880, Note_on_c, 8, 45, 64
10, 29915, Note_on_c, 8, 45, 0
10, 29940, Note_on_c, 8, 50, 64
10, 29975, Note_on_c, 8, 50, 0
10, 30000, Note_on_c, 8, 49, 64
10, 30035, Note_on_c, 8, 49, 0
10, 30060, Note_on_c, 8, 47, 64
10, 30095, Note_on_c, 8, 47, 0
10, 30120, Note_on_c, 8, 49, 64
10, 30155, Note_on_c, 8, 49, 0
10, 30180, Note_on_c, 8, 50, 64
10, 30215, Note_on_c, 8, 50, 0
10, 30240, Note_on_c, 8, 52, 64
10, 30275, Note_on_c, 8, 52, 0
10, 30300, Note_on_c, 8, 54, 64
10, 30335, Note_on_c, 8, 54, 0
10, 30360, Note_on_c, 8, 42, 64
10, 30395, Note_on_c, 8, 42, 0
10, 30420, Note_on_c, 8, 40, 64
10, 30455, Note_on_c, 8, 40, 0
10, 30480, Note_on_c, 8, 38, 64
10, 30515, Note_on_c, 8, 38, 0
10, 30540, Note_on_c, 8, 40, 64
10, 30575, Note_on_c, 8, 40, 0
10, 30600, Note_on_c, 8, 52, 64
10, 30635, Note_on_c, 8, 52, 0
10, 30660, Note_on_c, 8, 45, 64
10, 30695, Note_on_c, 8, 45, 0
10, 30720, Note_on_c, 8, 57, 64
10, 30840, Note_on_c, 8, 57, 0
10, 30840, Note_on_c, 8, 55, 64
10, 30870, Note_on_c, 8, 55, 0
10, 30870, Note_on_c, 8, 54, 64
10, 30900, Note_on_c, 8, 54, 0
10, 30900, Note_on_c, 8, 52, 64
10, 30935, Note_on_c, 8, 52, 0
10, 30960, Note_on_c, 8, 50, 64
10, 30995, Note_on_c, 8, 50, 0
10, 31020, Note_on_c, 8, 49, 64
10, 31055, Note_on_c, 8, 49, 0
10, 31080, Note_on_c, 8, 45, 64
10, 31115, Note_on_c, 8, 45, 0
10, 31140, Note_on_c, 8, 50, 64
10, 31175, Note_on_c, 8, 50, 0
10, 31200, Note_on_c, 8, 47, 64
10, 31235, Note_on_c, 8, 47, 0
10, 31260, Note_on_c, 8, 43, 64
10, 31295, Note_on_c, 8, 43, 0
10, 31320, Note_on_c, 8, 40, 64
10, 31355, Note_on_c, 8, 40, 0
10, 31380, Note_on_c, 8, 45, 64
10, 31500, Note_on_c, 8, 45, 0
10, 31500, Note_on_c, 8, 42, 64
10, 31535, Note_on_c, 8, 42, 0
10, 31560, Note_on_c, 8, 38, 64
10, 31595, Note_on_c, 8, 38, 0
10, 31620, Note_on_c, 8, 43, 64
10, 31655, Note_on_c, 8, 43, 0
10, 31680, Note_on_c, 8, 42, 64
10, 31715, Note_on_c, 8, 42, 0
10, 31740, Note_on_c, 8, 40, 64
10, 31775, Note_on_c, 8, 40, 0
10, 31800, Note_on_c, 8, 42, 64
10, 31835, Note_on_c, 8, 42, 0
10, 31860, Note_on_c, 8, 43, 64
10, 31895, Note_on_c, 8, 43, 0
10, 31920, Note_on_c, 8, 45, 64
10, 31955, Note_on_c, 8, 45, 0
10, 31980, Note_on_c, 8, 50, 64
10, 32015, Note_on_c, 8, 50, 0
10, 32040, Note_on_c, 8, 47, 64
10, 32075, Note_on_c, 8, 47, 0
10, 32100, Note_on_c, 8, 45, 64
10, 32135, Note_on_c, 8, 45, 0
10, 32160, Note_on_c, 8, 43, 64
10, 32195, Note_on_c, 8, 43, 0
10, 32220, Note_on_c, 8, 45, 64
10, 32255, Note_on_c, 8, 45, 0
10, 32280, Note_on_c, 8, 57, 64
10, 32315, Note_on_c, 8, 57, 0
10, 32340, Note_on_c, 8, 50, 64
10, 32375, Note_on_c, 8, 50, 0
10, 32400, Note_on_c, 8, 54, 64
10, 32430, Note_on_c, 8, 54, 0
10, 32430, Note_on_c, 8, 52, 64
10, 32460, Note_on_c, 8, 52, 0
10, 32460, Note_on_c, 8, 50, 64
10, 32495, Note_on_c, 8, 50, 0
10, 32520, Note_on_c, 8, 49, 64
10, 32555, Note_on_c, 8, 49, 0
10, 32580, Note_on_c, 8, 47, 64
10, 32615, Note_on_c, 8, 47, 0
10, 32640, Note_on_c, 8, 45, 64
10, 32675, Note_on_c, 8, 45, 0
10, 32700, Note_on_c, 8, 44, 64
10, 32735, Note_on_c, 8, 44, 0
10, 32760, Note_on_c, 8, 40, 64
10, 32795, Note_on_c, 8, 40, 0
10, 32820, Note_on_c, 8, 45, 64
10, 32855, Note_on_c, 8, 45, 0
10, 32880, Note_on_c, 8, 42, 64
10, 32915, Note_on_c, 8, 42, 0
10, 32940, Note_on_c, 8, 50, 64
10, 32975, Note_on_c, 8, 50, 0
10, 33000, Note_on_c, 8, 47, 64
10, 33035, Note_on_c, 8, 47, 0
10, 33060, Note_on_c, 8, 52, 64
10, 33180, Note_on_c, 8, 52, 0
10, 33180, Note_on_c, 8, 49, 64
10, 33215, Note_on_c, 8, 49, 0
10, 33240, Note_on_c, 8, 45, 64
10, 33275, Note_on_c, 8, 45, 0
10, 33300, Note_on_c, 8, 50, 64
10, 33335, Note_on_c, 8, 50, 0
10, 33360, Note_on_c, 8, 49, 64
10, 33395, Note_on_c, 8, 49, 0
10, 33420, Note_on_c, 8, 47, 64
10, 33455, Note_on_c, 8, 47, 0
10, 33480, Note_on_c, 8, 49, 64
10, 33515, Note_on_c, 8, 49, 0
10, 33540, Note_on_c, 8, 50, 64
10, 33575, Note_on_c, 8, 50, 0
10, 33600, Note_on_c, 8, 52, 64
10, 33635, Note_on_c, 8, 52, 0
10, 33660, Note_on_c, 8, 45, 64
10, 33695, Note_on_c, 8, 45, 0
10, 33720, Note_on_c, 8, 42, 64
10, 33755, Note_on_c, 8, 42, 0
10, 33780, Note_on_c, 8, 40, 64
10, 33815, Note_on_c, 8, 40, 0
10, 33840, Note_on_c, 8, 38, 64
10, 33875, Note_on_c, 8, 38, 0
10, 33900, Note_on_c, 8, 40, 64
10, 33935, Note_on_c, 8, 40, 0
10, 33960, Note_on_c, 8, 52, 64
10, 33995, Note_on_c, 8, 52, 0
10, 34020, Note_on_c, 8, 45, 64
10, 34055, Note_on_c, 8, 45, 0
10, 34080, Note_on_c, 8, 49, 64
10, 34110, Note_on_c, 8, 49, 0
10, 34110, Note_on_c, 8, 47, 64
10, 34140, Note_on_c, 8, 47, 0
10, 34140, Note_on_c, 8, 45, 64
10, 34175, Note_on_c, 8, 45, 0
10, 34200, Note_on_c, 8, 43, 64
10, 34235, Note_on_c, 8, 43, 0
10, 34260, Note_on_c, 8, 42, 64
10, 34295, Note_on_c, 8, 42, 0
10, 34320, Note_on_c, 8, 52, 64
10, 34355, Note_on_c, 8, 52, 0
10, 34380, Note_on_c, 8, 51, 64
10, 34415, Note_on_c, 8, 51, 0
10, 34440, Note_on_c, 8, 47, 64
10, 34475, Note_on_c, 8, 47, 0
10, 34500, Note_on_c, 8, 40, 64
10, 34530, Note_on_c, 8, 40, 0
10, 34530, Note_on_c, 8, 47, 64
10, 34560, Note_on_c, 8, 47, 0
10, 34560, Note_on_c, 8, 52, 64
10, 34590, Note_on_c, 8, 52, 0
10, 34590, Note_on_c, 8, 50, 64
10, 34620, Note_on_c, 8, 50, 0
10, 34620, Note_on_c, 8, 48, 64
10, 34650, Note_on_c, 8, 48, 0
10, 34650, Note_on_c, 8, 47, 64
10, 34680, Note_on_c, 8, 47, 0
10, 34680, Note_on_c, 8, 45, 64
10, 34710, Note_on_c, 8, 45, 0
10, 34710, Note_on_c, 8, 43, 64
10, 34740, Note_on_c, 8, 43, 0
10, 34740, Note_on_c, 8, 41, 64
10, 34770, Note_on_c, 8, 41, 0
10, 34770, Note_on_c, 8, 45, 64
10, 34800, Note_on_c, 8, 45, 0
10, 34800, Note_on_c, 8, 50, 64
10, 34830, Note_on_c, 8, 50, 0
10, 34830, Note_on_c, 8, 48, 64
10, 34860, Note_on_c, 8, 48, 0
10, 34860, Note_on_c, 8, 47, 64
10, 34890, Note_on_c, 8, 47, 0
10, 34890, Note_on_c, 8, 45, 64
10, 34920, Note_on_c, 8, 45, 0
10, 34920, Note_on_c, 8, 44, 64
10, 34950, Note_on_c, 8, 44, 0
10, 34950, Note_on_c, 8, 41, 64
10, 34980, Note_on_c, 8, 41, 0
10, 34980, Note_on_c, 8, 40, 64
10, 35010, Note_on_c, 8, 40, 0
10, 35010, Note_on_c, 8, 44, 64
10, 35040, Note_on_c, 8, 44, 0
10, 35040, Note_on_c, 8, 45, 64
10, 35070, Note_on_c, 8, 45, 0
10, 35070, Note_on_c, 8, 47, 64
10, 35100, Note_on_c, 8, 47, 0
10, 35100, Note_on_c, 8, 48, 64
10, 35130, Note_on_c, 8, 48, 0
10, 35130, Note_on_c, 8, 50, 64
10, 35160, Note_on_c, 8, 50, 0
10, 35160, Note_on_c, 8, 48, 64
10, 35190, Note_on_c, 8, 48, 0
10, 35190, Note_on_c, 8, 47, 64
10, 35220, Note_on_c, 8, 47, 0
10, 35220, Note_on_c, 8, 45, 64
10, 35250, Note_on_c, 8, 45, 0
10, 35250, Note_on_c, 8, 43, 64
10, 35280, Note_on_c, 8, 43, 0
10, 35280, Note_on_c, 8, 42, 64
10, 35310, Note_on_c, 8, 42, 0
10, 35310, Note_on_c, 8, 45, 64
10, 35340, Note_on_c, 8, 45, 0
10, 35340, Note_on_c, 8, 43, 64
10, 35375, Note_on_c, 8, 43, 0
10, 35400, Note_on_c, 8, 48, 64
10, 35435, Note_on_c, 8, 48, 0
10, 35460, Note_on_c, 8, 47, 64
10, 35520, Note_on_c, 8, 47, 0
10, 35520, Note_on_c, 8, 45, 64
10, 35555, Note_on_c, 8, 45, 0
10, 35580, Note_on_c, 8, 47, 64
10, 35585, Control_c, 8, 7, 53
10, 35604, Control_c, 8, 7, 55
10, 35615, Note_on_c, 8, 47, 0
10, 35623, Control_c, 8, 7, 57
10, 35640, Note_on_c, 8, 47, 64
10, 35642, Control_c, 8, 7, 59
10, 35661, Control_c, 8, 7, 62
10, 35675, Note_on_c, 8, 47, 0
10, 35680, Control_c, 8, 7, 64
10, 35699, Control_c, 8, 7, 66
10, 35700, Note_on_c, 8, 52, 64
10, 35718, Control_c, 8, 7, 68
10, 35735, Note_on_c, 8, 52, 0
10, 35737, Control_c, 8, 7, 71
10, 35756, Control_c, 8, 7, 73
10, 35760, Note_on_c, 8, 55, 64
10, 35775, Control_c, 8, 7, 75
10, 35790, Note_on_c, 8, 55, 0
10, 35790, Note_on_c, 8, 54, 64
10, 35794, Control_c, 8, 7, 78
10, 35813, Control_c, 8, 7, 80
10, 35820, Note_on_c, 8, 54, 0
10, 35820, Note_on_c, 8, 52, 64
10, 35832, Control_c, 8, 7, 82
10, 35851, Control_c, 8, 7, 84
10, 35855, Note_on_c, 8, 52, 0
10, 35870, Control_c, 8, 7, 87
10, 35880, Note_on_c, 8, 50, 64
10, 35889, Control_c, 8, 7, 89
10, 35908, Control_c, 8, 7, 91
10, 35915, Note_on_c, 8, 50, 0
10, 35927, Control_c, 8, 7, 94
10, 35940, Note_on_c, 8, 49, 64
10, 35946, Control_c, 8, 7, 96
10, 35965, Control_c, 8, 7, 98
10, 35984, Control_c, 8, 7, 100
10, 36000, Note_on_c, 8, 49, 0
10, 36000, Note_on_c, 8, 50, 64
10, 36003, Control_c, 8, 7, 103
10, 36022, Control_c, 8, 7, 105
10, 36030, Note_on_c, 8, 50, 0
10, 36030, Note_on_c, 8, 52, 64
10, 36041, Control_c, 8, 7, 107
10, 36060, Note_on_c, 8, 52, 0
10, 36060, Note_on_c, 8, 54, 64
10, 36060, Control_c, 8, 7, 110
10, 36079, Control_c, 8, 7, 112
10, 36095, Note_on_c, 8, 54, 0
10, 36098, Control_c, 8, 7, 114
10, 36117, Control_c, 8, 7, 116
10, 36120, Note_on_c, 8, 42, 64
10, 36136, Control_c, 8, 7, 119
10, 36155, Note_on_c, 8, 42, 0
10, 36155, Control_c, 8, 7, 121
10, 36174, Control_c, 8, 7, 123
10, 36180, Note_on_c, 8, 47, 64
10, 36193, Control_c, 8, 7, 126
10, 36207, Control_c, 8, 7, 127
10, 36240, Note_on_c, 8, 47, 0
10, 36240, Note_on_c, 8, 62, 64
10, 36270, Note_on_c, 8, 62, 0
10, 36270, Note_on_c, 8, 61, 64
10, 36300, Note_on_c, 8, 61, 0
10, 36300, Note_on_c, 8, 59, 64
10, 36360, Note_on_c, 8, 59, 0
10, 36360, Note_on_c, 8, 57, 64
10, 36420, Note_on_c, 8, 57, 0
10, 36420, Note_on_c, 8, 56, 64
10, 36480, Note_on_c, 8, 56, 0
10, 36480, Note_on_c, 8, 57, 64
10, 36510, Note_on_c, 8, 57, 0
10, 36510, Note_on_c, 8, 59, 65
10, 36540, Note_on_c, 8, 59, 0
10, 36540, Note_on_c, 8, 61, 65
10, 36600, Note_on_c, 8, 61, 0
10, 36600, Note_on_c, 8, 49, 65
10, 36660, Note_on_c, 8, 49, 0
10, 36660, Note_on_c, 8, 54, 66
10, 36780, Note_on_c, 8, 54, 0
10, 36900, Note_on_c, 8, 42, 68
10, 37020, Note_on_c, 8, 42, 0
10, 37140, Note_on_c, 8, 47, 69
10, 37260, Note_on_c, 8, 47, 0
10, 37380, Note_on_c, 8, 47, 71
10, 37500, Note_on_c, 8, 47, 0
10, 37620, Note_on_c, 8, 52, 73
10, 37740, Note_on_c, 8, 52, 0
10, 37860, Note_on_c, 8, 40, 75
10, 37980, Note_on_c, 8, 40, 0
10, 38100, Note_on_c, 8, 45, 76
10, 38220, Note_on_c, 8, 45, 0
10, 38340, Note_on_c, 8, 45, 64
10, 38460, Note_on_c, 8, 45, 0
10, 38580, Note_on_c, 8, 50, 65
10, 38700, Note_on_c, 8, 50, 0
10, 38820, Note_on_c, 8, 38, 66
10, 38940, Note_on_c, 8, 38, 0
10, 39060, Note_on_c, 8, 43, 67
10, 39180, Note_on_c, 8, 43, 0
10, 39180, Note_on_c, 8, 55, 68
10, 39360, Note_on_c, 8, 55, 0
10, 39360, Note_on_c, 8, 54, 68
10, 39390, Note_on_c, 8, 54, 0
10, 39390, Note_on_c, 8, 52, 68
10, 39420, Note_on_c, 8, 52, 0
10, 39420, Note_on_c, 8, 54, 69
10, 39480, Note_on_c, 8, 54, 0
10, 39480, Note_on_c, 8, 55, 69
10, 39540, Note_on_c, 8, 55, 0
10, 39540, Note_on_c, 8, 57, 69
10, 39660, Note_on_c, 8, 57, 0
10, 39660, Note_on_c, 8, 45, 70
10, 39780, Note_on_c, 8, 45, 0
10, 39780, Note_on_c, 8, 50, 64
10, 39815, Note_on_c, 8, 50, 0
10, 39840, Note_on_c, 8, 54, 64
10, 39870, Note_on_c, 8, 54, 0
10, 39870, Note_on_c, 8, 52, 64
10, 39900, Note_on_c, 8, 52, 0
10, 39900, Note_on_c, 8, 50, 64
10, 39960, Note_on_c, 8, 50, 0
10, 39960, Note_on_c, 8, 49, 64
10, 40020, Note_on_c, 8, 49, 0
10, 40020, Note_on_c, 8, 47, 64
10, 40080, Note_on_c, 8, 47, 0
10, 40080, Note_on_c, 8, 49, 64
10, 40110, Note_on_c, 8, 49, 0
10, 40110, Note_on_c, 8, 50, 64
10, 40140, Note_on_c, 8, 50, 0
10, 40140, Note_on_c, 8, 52, 64
10, 40200, Note_on_c, 8, 52, 0
10, 40200, Note_on_c, 8, 40, 64
10, 40260, Note_on_c, 8, 40, 0
10, 40260, Note_on_c, 8, 45, 64
10, 40380, Note_on_c, 8, 45, 0
10, 40380, Note_on_c, 8, 50, 64
10, 40440, Note_on_c, 8, 50, 0
10, 40440, Note_on_c, 8, 47, 64
10, 40500, Note_on_c, 8, 47, 0
10, 40500, Note_on_c, 8, 52, 64
10, 40620, Note_on_c, 8, 52, 0
10, 40620, Note_on_c, 8, 49, 64
10, 40680, Note_on_c, 8, 49, 0
10, 40680, Note_on_c, 8, 45, 64
10, 40740, Note_on_c, 8, 45, 0
10, 40740, Note_on_c, 8, 50, 64
10, 40800, Note_on_c, 8, 50, 0
10, 40800, Note_on_c, 8, 49, 64
10, 40835, Note_on_c, 8, 49, 0
10, 40860, Note_on_c, 8, 47, 64
10, 40920, Note_on_c, 8, 47, 0
10, 40920, Note_on_c, 8, 49, 64
10, 40955, Note_on_c, 8, 49, 0
10, 40980, Note_on_c, 8, 50, 64
10, 41040, Note_on_c, 8, 50, 0
10, 41040, Note_on_c, 8, 52, 64
10, 41075, Note_on_c, 8, 52, 0
10, 41100, Note_on_c, 8, 54, 64
10, 41160, Note_on_c, 8, 54, 0
10, 41160, Note_on_c, 8, 42, 64
10, 41195, Note_on_c, 8, 42, 0
10, 41220, Note_on_c, 8, 40, 64
10, 41280, Note_on_c, 8, 40, 0
10, 41280, Note_on_c, 8, 38, 64
10, 41340, Note_on_c, 8, 38, 0
10, 41340, Note_on_c, 8, 40, 64
10, 41375, Note_on_c, 8, 40, 0
10, 41400, Note_on_c, 8, 52, 64
10, 41435, Note_on_c, 8, 52, 0
10, 41460, Note_on_c, 8, 45, 64
10, 41520, Note_on_c, 8, 45, 0
10, 41520, Note_on_c, 8, 57, 64
10, 41640, Note_on_c, 8, 57, 0
10, 41640, Note_on_c, 8, 55, 64
10, 41670, Note_on_c, 8, 55, 0
10, 41670, Note_on_c, 8, 54, 64
10, 41700, Note_on_c, 8, 54, 0
10, 41700, Note_on_c, 8, 52, 64
10, 41735, Note_on_c, 8, 52, 0
10, 41760, Note_on_c, 8, 50, 64
10, 41795, Note_on_c, 8, 50, 0
10, 41820, Note_on_c, 8, 49, 64
10, 41855, Note_on_c, 8, 49, 0
10, 41880, Note_on_c, 8, 45, 64
10, 41915, Note_on_c, 8, 45, 0
10, 41940, Note_on_c, 8, 50, 64
10, 41975, Note_on_c, 8, 50, 0
10, 42000, Note_on_c, 8, 47, 64
10, 42035, Note_on_c, 8, 47, 0
10, 42060, Note_on_c, 8, 43, 64
10, 42095, Note_on_c, 8, 43, 0
10, 42120, Note_on_c, 8, 40, 64
10, 42155, Note_on_c, 8, 40, 0
10, 42180, Note_on_c, 8, 45, 64
10, 42300, Note_on_c, 8, 45, 0
10, 42300, Note_on_c, 8, 42, 64
10, 42335, Note_on_c, 8, 42, 0
10, 42360, Note_on_c, 8, 38, 64
10, 42395, Note_on_c, 8, 38, 0
10, 42420, Note_on_c, 8, 43, 64
10, 42455, Note_on_c, 8, 43, 0
10, 42480, Note_on_c, 8, 42, 64
10, 42515, Note_on_c, 8, 42, 0
10, 42540, Note_on_c, 8, 40, 64
10, 42575, Note_on_c, 8, 40, 0
10, 42600, Note_on_c, 8, 42, 64
10, 42635, Note_on_c, 8, 42, 0
10, 42660, Note_on_c, 8, 43, 64
10, 42695, Note_on_c, 8, 43, 0
10, 42720, Note_on_c, 8, 45, 64
10, 42755, Note_on_c, 8, 45, 0
10, 42780, Note_on_c, 8, 38, 64
10, 42815, Note_on_c, 8, 38, 0
10, 42840, Note_on_c, 8, 47, 64
10, 42875, Note_on_c, 8, 47, 0
10, 42900, Note_on_c, 8, 45, 64
10, 42935, Note_on_c, 8, 45, 0
10, 42960, Note_on_c, 8, 43, 64
10, 42995, Note_on_c, 8, 43, 0
10, 43020, Note_on_c, 8, 45, 64
10, 43055, Note_on_c, 8, 45, 0
10, 43080, Note_on_c, 8, 57, 64
10, 43115, Note_on_c, 8, 57, 0
10, 43140, Note_on_c, 8, 50, 64
10, 43175, Note_on_c, 8, 50, 0
10, 43200, Note_on_c, 8, 54, 64
10, 43230, Note_on_c, 8, 54, 0
10, 43230, Note_on_c, 8, 52, 64
10, 43260, Note_on_c, 8, 52, 0
10, 43260, Note_on_c, 8, 50, 64
10, 43295, Note_on_c, 8, 50, 0
10, 43320, Note_on_c, 8, 54, 64
10, 43355, Note_on_c, 8, 54, 0
10, 43380, Note_on_c, 8, 57, 64
10, 43415, Note_on_c, 8, 57, 0
10, 43440, Note_on_c, 8, 55, 64
10, 43475, Note_on_c, 8, 55, 0
10, 43500, Note_on_c, 8, 54, 64
10, 43535, Note_on_c, 8, 54, 0
10, 43560, Note_on_c, 8, 50, 64
10, 43595, Note_on_c, 8, 50, 0
10, 43620, Note_on_c, 8, 43, 64
10, 43655, Note_on_c, 8, 43, 0
10, 43680, Note_on_c, 8, 40, 64
10, 43715, Note_on_c, 8, 40, 0
10, 43740, Note_on_c, 8, 48, 64
10, 43775, Note_on_c, 8, 48, 0
10, 43800, Note_on_c, 8, 45, 64
10, 43835, Note_on_c, 8, 45, 0
10, 43860, Note_on_c, 8, 50, 64
10, 43980, Note_on_c, 8, 50, 0
10, 43980, Note_on_c, 8, 47, 64
10, 44015, Note_on_c, 8, 47, 0
10, 44040, Note_on_c, 8, 43, 64
10, 44075, Note_on_c, 8, 43, 0
10, 44100, Note_on_c, 8, 48, 64
10, 44135, Note_on_c, 8, 48, 0
10, 44160, Note_on_c, 8, 47, 64
10, 44195, Note_on_c, 8, 47, 0
10, 44220, Note_on_c, 8, 45, 64
10, 44255, Note_on_c, 8, 45, 0
10, 44280, Note_on_c, 8, 47, 64
10, 44315, Note_on_c, 8, 47, 0
10, 44340, Note_on_c, 8, 48, 64
10, 44375, Note_on_c, 8, 48, 0
10, 44400, Note_on_c, 8, 50, 64
10, 44435, Note_on_c, 8, 50, 0
10, 44460, Note_on_c, 8, 43, 64
10, 44495, Note_on_c, 8, 43, 0
10, 44520, Note_on_c, 8, 40, 64
10, 44555, Note_on_c, 8, 40, 0
10, 44580, Note_on_c, 8, 38, 64
10, 44640, Note_on_c, 8, 38, 0
10, 44640, Note_on_c, 8, 36, 65
10, 44700, Note_on_c, 8, 36, 0
10, 44700, Note_on_c, 8, 38, 65
10, 44735, Note_on_c, 8, 38, 0
10, 44760, Note_on_c, 8, 38, 66
10, 44795, Note_on_c, 8, 38, 0
10, 44820, Note_on_c, 8, 43, 66
10, 44940, Note_on_c, 8, 43, 0
10, 45000, Note_on_c, 8, 47, 68
10, 45060, Note_on_c, 8, 47, 0
10, 45060, Note_on_c, 8, 43, 68
10, 45120, Note_on_c, 8, 43, 0
10, 45120, Note_on_c, 8, 40, 69
10, 45180, Note_on_c, 8, 40, 0
10, 45180, Note_on_c, 8, 45, 69
10, 45215, Note_on_c, 8, 45, 0
10, 45240, Note_on_c, 8, 45, 70
10, 45275, Note_on_c, 8, 45, 0
10, 45300, Note_on_c, 8, 38, 70
10, 45420, Note_on_c, 8, 38, 0
10, 45480, Note_on_c, 8, 50, 72
10, 45540, Note_on_c, 8, 50, 0
10, 45540, Note_on_c, 8, 45, 72
10, 45660, Note_on_c, 8, 45, 0
10, 45720, Note_on_c, 8, 38, 74
10, 45780, Note_on_c, 8, 38, 0
10, 45780, Note_on_c, 8, 43, 74
10, 45900, Note_on_c, 8, 43, 0
10, 45960, Note_on_c, 8, 55, 76
10, 46080, Note_on_c, 8, 55, 0
10, 46080, Note_on_c, 8, 52, 77
10, 46140, Note_on_c, 8, 52, 0
10, 46140, Note_on_c, 8, 54, 77
10, 46200, Note_on_c, 8, 54, 0
10, 46200, Note_on_c, 8, 55, 78
10, 46260, Note_on_c, 8, 55, 0
10, 46260, Note_on_c, 8, 57, 78
10, 46290, Note_on_c, 8, 57, 0
10, 46290, Note_on_c, 8, 55, 78
10, 46320, Note_on_c, 8, 55, 0
10, 46320, Note_on_c, 8, 57, 79
10, 46355, Note_on_c, 8, 57, 0
10, 46380, Note_on_c, 8, 45, 79
10, 46440, Note_on_c, 8, 45, 0
10, 46440, Note_on_c, 8, 57, 80
10, 46475, Note_on_c, 8, 57, 0
10, 46500, Note_on_c, 8, 50, 64
10, 46511, Note_on_c, 8, 50, 0
10, 46560, Note_on_c, 8, 54, 64
10, 46590, Note_on_c, 8, 54, 0
10, 46590, Note_on_c, 8, 52, 64
10, 46620, Note_on_c, 8, 52, 0
10, 46620, Note_on_c, 8, 50, 64
10, 46655, Note_on_c, 8, 50, 0
10, 46680, Note_on_c, 8, 49, 64
10, 46715, Note_on_c, 8, 49, 0
10, 46740, Note_on_c, 8, 47, 64
10, 46775, Note_on_c, 8, 47, 0
10, 46800, Note_on_c, 8, 52, 64
10, 46835, Note_on_c, 8, 52, 0
10, 46860, Note_on_c, 8, 40, 64
10, 46895, Note_on_c, 8, 40, 0
10, 46920, Note_on_c, 8, 52, 64
10, 46955, Note_on_c, 8, 52, 0
10, 46980, Note_on_c, 8, 45, 40
10, 47015, Note_on_c, 8, 45, 0
10, 47040, Note_on_c, 8, 61, 40
10, 47070, Note_on_c, 8, 61, 0
10, 47070, Note_on_c, 8, 59, 40
10, 47100, Note_on_c, 8, 59, 0
10, 47100, Note_on_c, 8, 57, 40
10, 47135, Note_on_c, 8, 57, 0
10, 47160, Note_on_c, 8, 61, 40
10, 47195, Note_on_c, 8, 61, 0
10, 47220, Note_on_c, 8, 54, 40
10, 47255, Note_on_c, 8, 54, 0
10, 47280, Note_on_c, 8, 57, 40
10, 47315, Note_on_c, 8, 57, 0
10, 47340, Note_on_c, 8, 51, 40
10, 47375, Note_on_c, 8, 51, 0
10, 47400, Note_on_c, 8, 47, 40
10, 47435, Note_on_c, 8, 47, 0
10, 47460, Note_on_c, 8, 52, 40
10, 47495, Note_on_c, 8, 52, 0
10, 47520, Note_on_c, 8, 55, 40
10, 47550, Note_on_c, 8, 55, 0
10, 47550, Note_on_c, 8, 54, 40
10, 47580, Note_on_c, 8, 54, 0
10, 47580, Note_on_c, 8, 52, 40
10, 47615, Note_on_c, 8, 52, 0
10, 47640, Note_on_c, 8, 50, 40
10, 47675, Note_on_c, 8, 50, 0
10, 47700, Note_on_c, 8, 49, 40
10, 47735, Note_on_c, 8, 49, 0
10, 47760, Note_on_c, 8, 50, 40
10, 47790, Note_on_c, 8, 50, 0
10, 47790, Note_on_c, 8, 52, 40
10, 47820, Note_on_c, 8, 52, 0
10, 47820, Note_on_c, 8, 54, 40
10, 47855, Note_on_c, 8, 54, 0
10, 47880, Note_on_c, 8, 42, 40
10, 47915, Note_on_c, 8, 42, 0
10, 47940, Note_on_c, 8, 47, 30
10, 48060, Note_on_c, 8, 47, 0
10, 48180, Note_on_c, 8, 59, 38
10, 48300, Note_on_c, 8, 59, 0
10, 48420, Note_on_c, 8, 52, 47
10, 48540, Note_on_c, 8, 52, 0
10, 48660, Note_on_c, 8, 40, 55
10, 48780, Note_on_c, 8, 40, 0
10, 48900, Note_on_c, 8, 45, 63
10, 49020, Note_on_c, 8, 45, 0
10, 49140, Note_on_c, 8, 57, 72
10, 49260, Note_on_c, 8, 57, 0
10, 49380, Note_on_c, 8, 50, 80
10, 49500, Note_on_c, 8, 50, 0
10, 49620, Note_on_c, 8, 38, 81
10, 49740, Note_on_c, 8, 38, 0
10, 49860, Note_on_c, 8, 43, 83
10, 49980, Note_on_c, 8, 43, 0
10, 50100, Note_on_c, 8, 52, 84
10, 50220, Note_on_c, 8, 52, 0
10, 50340, Note_on_c, 8, 40, 85
10, 50460, Note_on_c, 8, 40, 0
10, 50580, Note_on_c, 8, 45, 86
10, 50700, Note_on_c, 8, 45, 0
10, 50820, Note_on_c, 8, 54, 88
10, 50940, Note_on_c, 8, 54, 0
10, 51060, Note_on_c, 8, 42, 89
10, 51180, Note_on_c, 8, 42, 0
10, 51240, Note_on_c, 8, 54, 90
10, 51300, Note_on_c, 8, 54, 0
10, 51300, Note_on_c, 8, 59, 80
10, 51360, Note_on_c, 8, 59, 0
10, 51360, Note_on_c, 8, 57, 81
10, 51395, Note_on_c, 8, 57, 0
10, 51420, Note_on_c, 8, 57, 81
10, 51480, Note_on_c, 8, 57, 0
10, 51480, Note_on_c, 8, 55, 82
10, 51515, Note_on_c, 8, 55, 0
10, 51540, Note_on_c, 8, 55, 83
10, 51600, Note_on_c, 8, 55, 0
10, 51600, Note_on_c, 8, 54, 84
10, 51635, Note_on_c, 8, 54, 0
10, 51660, Note_on_c, 8, 54, 84
10, 51720, Note_on_c, 8, 54, 0
10, 51720, Note_on_c, 8, 52, 85
10, 51755, Note_on_c, 8, 52, 0
10, 51780, Note_on_c, 8, 52, 86
10, 51840, Note_on_c, 8, 52, 0
10, 51840, Note_on_c, 8, 50, 86
10, 51875, Note_on_c, 8, 50, 0
10, 51900, Note_on_c, 8, 52, 87
10, 51960, Note_on_c, 8, 52, 0
10, 51960, Note_on_c, 8, 45, 88
10, 51995, Note_on_c, 8, 45, 0
10, 52020, Note_on_c, 8, 50, 89
10, 52080, Note_on_c, 8, 50, 0
10, 52080, Note_on_c, 8, 52, 89
10, 52115, Note_on_c, 8, 52, 0
10, 52140, Note_on_c, 8, 54, 90
10, 52200, Note_on_c, 8, 54, 0
10, 52200, Note_on_c, 8, 50, 91
10, 52235, Note_on_c, 8, 50, 0
10, 52260, Note_on_c, 8, 52, 91
10, 52320, Note_on_c, 8, 52, 0
10, 52320, Note_on_c, 8, 50, 92
10, 52355, Note_on_c, 8, 50, 0
10, 52380, Note_on_c, 8, 49, 93
10, 52440, Note_on_c, 8, 49, 0
10, 52440, Note_on_c, 8, 54, 94
10, 52475, Note_on_c, 8, 54, 0
10, 52500, Note_on_c, 8, 52, 94
10, 52560, Note_on_c, 8, 52, 0
10, 52560, Note_on_c, 8, 50, 95
10, 52595, Note_on_c, 8, 50, 0
10, 52620, Note_on_c, 8, 52, 96
10, 52680, Note_on_c, 8, 52, 0
10, 52680, Note_on_c, 8, 40, 96
10, 52740, Note_on_c, 8, 40, 0
10, 52740, Note_on_c, 8, 45, 97
10, 52775, Note_on_c, 8, 45, 0
10, 52800, Note_on_c, 8, 57, 98
10, 52920, Note_on_c, 8, 57, 0
10, 52920, Note_on_c, 8, 55, 99
10, 52950, Note_on_c, 8, 55, 0
10, 52950, Note_on_c, 8, 54, 100
10, 52980, Note_on_c, 8, 54, 0
10, 52980, Note_on_c, 8, 52, 100
10, 53040, Note_on_c, 8, 52, 0
10, 53040, Note_on_c, 8, 50, 101
10, 53100, Note_on_c, 8, 50, 0
10, 53100, Note_on_c, 8, 49, 101
10, 53160, Note_on_c, 8, 49, 0
10, 53160, Note_on_c, 8, 45, 102
10, 53220, Note_on_c, 8, 45, 0
10, 53220, Note_on_c, 8, 50, 103
10, 53280, Note_on_c, 8, 50, 0
10, 53280, Note_on_c, 8, 47, 104
10, 53315, Note_on_c, 8, 47, 0
10, 53340, Note_on_c, 8, 43, 104
10, 53400, Note_on_c, 8, 43, 0
10, 53400, Note_on_c, 8, 40, 105
10, 53435, Note_on_c, 8, 40, 0
10, 53460, Note_on_c, 8, 45, 106
10, 53580, Note_on_c, 8, 45, 0
10, 53640, Note_on_c, 8, 38, 108
10, 53700, Note_on_c, 8, 38, 0
10, 53700, Note_on_c, 8, 43, 109
10, 53735, Note_on_c, 8, 43, 0
10, 53760, Note_on_c, 8, 50, 109
10, 53820, Note_on_c, 8, 50, 0
10, 53820, Note_on_c, 8, 55, 110
10, 54000, Note_on_c, 8, 55, 0
10, 54000, Note_on_c, 8, 54, 112
10, 54030, Note_on_c, 8, 54, 0
10, 54030, Note_on_c, 8, 52, 113
10, 54060, Note_on_c, 8, 52, 0
10, 54060, Note_on_c, 8, 54, 113
10, 54095, Note_on_c, 8, 54, 0
10, 54120, Note_on_c, 8, 55, 114
10, 54155, Note_on_c, 8, 55, 0
10, 54180, Note_on_c, 8, 57, 114
10, 54300, Note_on_c, 8, 57, 0
10, 54300, Note_on_c, 8, 45, 116
10, 54420, Note_on_c, 8, 45, 0
10, 54420, Note_on_c, 8, 38, 117
10, 54660, Note_on_c, 8, 38, 0
10, 55140, End_track
11, 0, Start_track
11, 0, MIDI_port, 0
11, 0, Title_t, "Soprano I"
11, 0, Program_c, 10, 52
11, 4500, Control_c, 10, 7, 127
11, 5220, Note_on_c, 10, 78, 76
11, 5255, Note_on_c, 10, 78, 0
11, 5280, Note_on_c, 10, 74, 77
11, 5315, Note_on_c, 10, 74, 0
11, 5340, Note_on_c, 10, 73, 77
11, 5375, Note_on_c, 10, 73, 0
11, 5400, Note_on_c, 10, 74, 78
11, 5435, Note_on_c, 10, 74, 0
11, 5460, Note_on_c, 10, 76, 79
11, 5490, Note_on_c, 10, 76, 0
11, 5490, Note_on_c, 10, 74, 80
11, 5520, Note_on_c, 10, 74, 0
11, 5520, Note_on_c, 10, 73, 80
11, 5550, Note_on_c, 10, 73, 0
11, 5550, Note_on_c, 10, 74, 81
11, 5580, Note_on_c, 10, 74, 0
11, 5580, Note_on_c, 10, 76, 81
11, 5615, Note_on_c, 10, 76, 0
11, 5640, Note_on_c, 10, 73, 82
11, 5675, Note_on_c, 10, 73, 0
11, 5700, Note_on_c, 10, 76, 83
11, 5735, Note_on_c, 10, 76, 0
11, 5760, Note_on_c, 10, 74, 84
11, 5795, Note_on_c, 10, 74, 0
11, 5820, Note_on_c, 10, 76, 85
11, 5850, Note_on_c, 10, 76, 0
11, 5850, Note_on_c, 10, 74, 86
11, 5880, Note_on_c, 10, 74, 0
11, 5880, Note_on_c, 10, 73, 86
11, 5910, Note_on_c, 10, 73, 0
11, 5910, Note_on_c, 10, 71, 87
11, 5940, Note_on_c, 10, 71, 0
11, 5940, Note_on_c, 10, 73, 87
11, 6060, Note_on_c, 10, 73, 0
11, 6060, Note_on_c, 10, 73, 89
11, 6095, Note_on_c, 10, 73, 0
11, 7380, Note_on_c, 10, 69, 64
11, 7440, Note_on_c, 10, 69, 0
11, 7440, Note_on_c, 10, 64, 65
11, 7500, Note_on_c, 10, 64, 0
11, 7500, Note_on_c, 10, 69, 65
11, 7560, Note_on_c, 10, 69, 0
11, 7560, Note_on_c, 10, 71, 66
11, 7620, Note_on_c, 10, 71, 0
11, 7620, Note_on_c, 10, 73, 66
11, 7650, Note_on_c, 10, 73, 0
11, 7650, Note_on_c, 10, 71, 67
11, 7680, Note_on_c, 10, 71, 0
11, 7680, Note_on_c, 10, 69, 67
11, 7710, Note_on_c, 10, 69, 0
11, 7710, Note_on_c, 10, 71, 67
11, 7740, Note_on_c, 10, 71, 0
11, 7740, Note_on_c, 10, 73, 68
11, 7775, Note_on_c, 10, 73, 0
11, 7800, Note_on_c, 10, 76, 68
11, 7830, Note_on_c, 10, 76, 0
11, 7830, Note_on_c, 10, 74, 68
11, 7860, Note_on_c, 10, 74, 0
11, 7860, Note_on_c, 10, 76, 69
11, 7890, Note_on_c, 10, 76, 0
11, 7890, Note_on_c, 10, 73, 69
11, 7920, Note_on_c, 10, 73, 0
11, 7920, Note_on_c, 10, 74, 69
11, 7980, Note_on_c, 10, 74, 0
11, 7980, Note_on_c, 10, 76, 70
11, 8015, Note_on_c, 10, 76, 0
11, 8040, Note_on_c, 10, 78, 71
11, 8075, Note_on_c, 10, 78, 0
11, 8100, Note_on_c, 10, 76, 71
11, 8340, Note_on_c, 10, 76, 0
11, 8340, Note_on_c, 10, 78, 73
11, 8370, Note_on_c, 10, 78, 0
11, 8370, Note_on_c, 10, 76, 74
11, 8400, Note_on_c, 10, 76, 0
11, 8400, Note_on_c, 10, 74, 74
11, 8430, Note_on_c, 10, 74, 0
11, 8430, Note_on_c, 10, 73, 74
11, 8460, Note_on_c, 10, 73, 0
11, 8460, Note_on_c, 10, 71, 75
11, 8520, Note_on_c, 10, 71, 0
11, 8520, Note_on_c, 10, 76, 75
11, 8580, Note_on_c, 10, 76, 0
11, 8580, Note_on_c, 10, 74, 76
11, 8640, Note_on_c, 10, 74, 0
11, 8640, Note_on_c, 10, 73, 76
11, 8675, Note_on_c, 10, 73, 0
11, 8700, Note_on_c, 10, 74, 77
11, 8730, Note_on_c, 10, 74, 0
11, 8730, Note_on_c, 10, 73, 77
11, 8760, Note_on_c, 10, 73, 0
11, 8760, Note_on_c, 10, 71, 78
11, 8790, Note_on_c, 10, 71, 0
11, 8790, Note_on_c, 10, 69, 78
11, 8820, Note_on_c, 10, 69, 0
11, 8820, Note_on_c, 10, 76, 78
11, 8855, Note_on_c, 10, 76, 0
11, 8880, Note_on_c, 10, 71, 79
11, 8915, Note_on_c, 10, 71, 0
11, 8940, Note_on_c, 10, 71, 79
11, 8975, Note_on_c, 10, 71, 0
11, 9000, Note_on_c, 10, 76, 40
11, 9390, Note_on_c, 10, 76, 0
11, 9390, Note_on_c, 10, 79, 58
11, 9420, Note_on_c, 10, 79, 0
11, 9420, Note_on_c, 10, 78, 60
11, 9450, Note_on_c, 10, 78, 0
11, 9450, Note_on_c, 10, 76, 61
11, 9480, Note_on_c, 10, 76, 0
11, 9480, Note_on_c, 10, 74, 63
11, 9510, Note_on_c, 10, 74, 0
11, 9510, Note_on_c, 10, 73, 64
11, 9540, Note_on_c, 10, 73, 0
11, 9540, Note_on_c, 10, 74, 66
11, 9575, Note_on_c, 10, 74, 0
11, 9600, Note_on_c, 10, 71, 68
11, 9635, Note_on_c, 10, 71, 0
11, 9960, Note_on_c, 10, 71, 58
11, 9995, Note_on_c, 10, 71, 0
11, 10020, Note_on_c, 10, 71, 60
11, 10055, Note_on_c, 10, 71, 0
11, 10080, Note_on_c, 10, 76, 63
11, 10290, Note_on_c, 10, 76, 0
11, 10290, Note_on_c, 10, 69, 70
11, 10320, Note_on_c, 10, 69, 0
11, 10320, Note_on_c, 10, 73, 71
11, 10350, Note_on_c, 10, 73, 0
11, 10350, Note_on_c, 10, 76, 72
11, 10380, Note_on_c, 10, 76, 0
11, 10380, Note_on_c, 10, 81, 73
11, 10500, Note_on_c, 10, 81, 0
11, 10500, Note_on_c, 10, 80, 65
11, 10530, Note_on_c, 10, 80, 0
11, 10530, Note_on_c, 10, 78, 65
11, 10560, Note_on_c, 10, 78, 0
11, 10560, Note_on_c, 10, 80, 66
11, 10595, Note_on_c, 10, 80, 0
11, 10620, Note_on_c, 10, 73, 66
11, 10680, Note_on_c, 10, 73, 0
11, 10680, Note_on_c, 10, 78, 67
11, 10860, Note_on_c, 10, 78, 0
11, 10860, Note_on_c, 10, 76, 69
11, 10890, Note_on_c, 10, 76, 0
11, 10890, Note_on_c, 10, 74, 70
11, 10920, Note_on_c, 10, 74, 0
11, 10920, Note_on_c, 10, 76, 70
11, 10980, Note_on_c, 10, 76, 0
11, 10980, Note_on_c, 10, 69, 71
11, 11010, Note_on_c, 10, 69, 0
11, 11010, Note_on_c, 10, 66, 71
11, 11040, Note_on_c, 10, 66, 0
11, 11040, Note_on_c, 10, 69, 72
11, 11070, Note_on_c, 10, 69, 0
11, 11070, Note_on_c, 10, 73, 72
11, 11100, Note_on_c, 10, 73, 0
11, 11100, Note_on_c, 10, 74, 72
11, 11220, Note_on_c, 10, 74, 0
11, 11220, Note_on_c, 10, 73, 74
11, 11250, Note_on_c, 10, 73, 0
11, 11250, Note_on_c, 10, 71, 74
11, 11280, Note_on_c, 10, 71, 0
11, 11280, Note_on_c, 10, 73, 75
11, 11315, Note_on_c, 10, 73, 0
11, 11340, Note_on_c, 10, 71, 75
11, 11375, Note_on_c, 10, 71, 0
11, 11400, Note_on_c, 10, 73, 76
11, 11435, Note_on_c, 10, 73, 0
11, 11460, Note_on_c, 10, 74, 77
11, 11495, Note_on_c, 10, 74, 0
11, 11520, Note_on_c, 10, 73, 78
11, 11550, Note_on_c, 10, 73, 0
11, 11550, Note_on_c, 10, 71, 78
11, 11580, Note_on_c, 10, 71, 0
11, 11580, Note_on_c, 10, 71, 78
11, 11670, Note_on_c, 10, 71, 0
11, 11670, Note_on_c, 10, 69, 80
11, 11700, Note_on_c, 10, 69, 0
11, 11700, Control_c, 10, 7, 127
11, 11700, Note_on_c, 10, 69, 64
11, 11820, Note_on_c, 10, 69, 0
11, 12420, Control_c, 10, 7, 127
11, 13500, Note_on_c, 10, 74, 63
11, 13560, Note_on_c, 10, 74, 0
11, 13560, Note_on_c, 10, 69, 64
11, 13620, Note_on_c, 10, 69, 0
11, 13620, Note_on_c, 10, 74, 65
11, 13680, Note_on_c, 10, 74, 0
11, 13680, Note_on_c, 10, 76, 66
11, 13740, Note_on_c, 10, 76, 0
11, 13740, Note_on_c, 10, 78, 68
11, 13770, Note_on_c, 10, 78, 0
11, 13770, Note_on_c, 10, 76, 68
11, 13800, Note_on_c, 10, 76, 0
11, 13800, Note_on_c, 10, 74, 69
11, 13830, Note_on_c, 10, 74, 0
11, 13830, Note_on_c, 10, 76, 69
11, 13860, Note_on_c, 10, 76, 0
11, 13860, Control_c, 10, 7, 127
11, 13860, Note_on_c, 10, 78, 79
11, 13920, Note_on_c, 10, 78, 0
11, 13920, Note_on_c, 10, 74, 80
11, 13980, Note_on_c, 10, 74, 0
11, 13980, Note_on_c, 10, 78, 81
11, 14040, Note_on_c, 10, 78, 0
11, 14040, Note_on_c, 10, 79, 82
11, 14100, Note_on_c, 10, 79, 0
11, 14100, Note_on_c, 10, 81, 83
11, 14130, Note_on_c, 10, 81, 0
11, 14130, Note_on_c, 10, 79, 84
11, 14160, Note_on_c, 10, 79, 0
11, 14160, Note_on_c, 10, 78, 85
11, 14190, Note_on_c, 10, 78, 0
11, 14190, Note_on_c, 10, 76, 85
11, 14220, Note_on_c, 10, 76, 0
11, 14220, Note_on_c, 10, 74, 86
11, 14255, Note_on_c, 10, 74, 0
11, 14580, Note_on_c, 10, 78, 79
11, 14615, Note_on_c, 10, 78, 0
11, 14640, Note_on_c, 10, 74, 80
11, 14675, Note_on_c, 10, 74, 0
11, 14700, Note_on_c, 10, 73, 81
11, 14735, Note_on_c, 10, 73, 0
11, 14760, Note_on_c, 10, 74, 83
11, 14850, Note_on_c, 10, 74, 0
11, 14850, Note_on_c, 10, 76, 85
11, 14880, Note_on_c, 10, 76, 0
11, 14880, Note_on_c, 10, 78, 85
11, 14910, Note_on_c, 10, 78, 0
11, 14910, Note_on_c, 10, 79, 86
11, 14940, Note_on_c, 10, 79, 0
11, 14940, Note_on_c, 10, 81, 86
11, 14975, Note_on_c, 10, 81, 0
11, 15360, Note_on_c, 10, 73, 42
11, 15395, Note_on_c, 10, 73, 0
11, 15420, Note_on_c, 10, 73, 44
11, 15455, Note_on_c, 10, 73, 0
11, 15480, Note_on_c, 10, 78, 46
11, 15870, Note_on_c, 10, 78, 0
11, 15870, Note_on_c, 10, 81, 59
11, 15900, Note_on_c, 10, 81, 0
11, 15900, Note_on_c, 10, 79, 60
11, 15930, Note_on_c, 10, 79, 0
11, 15930, Note_on_c, 10, 78, 61
11, 15960, Note_on_c, 10, 78, 0
11, 15960, Note_on_c, 10, 76, 62
11, 15990, Note_on_c, 10, 76, 0
11, 15990, Note_on_c, 10, 75, 63
11, 16020, Note_on_c, 10, 75, 0
11, 16020, Note_on_c, 10, 76, 64
11, 16055, Note_on_c, 10, 76, 0
11, 16080, Note_on_c, 10, 71, 66
11, 16115, Note_on_c, 10, 71, 0
11, 16440, Note_on_c, 10, 73, 64
11, 16475, Note_on_c, 10, 73, 0
11, 16500, Note_on_c, 10, 73, 64
11, 16535, Note_on_c, 10, 73, 0
11, 16560, Note_on_c, 10, 73, 64
11, 16620, Note_on_c, 10, 73, 0
11, 16620, Note_on_c, 10, 74, 64
11, 16655, Note_on_c, 10, 74, 0
11, 16680, Note_on_c, 10, 69, 64
11, 16715, Note_on_c, 10, 69, 0
11, 16740, Control_c, 10, 7, 127
11, 16800, Note_on_c, 10, 78, 77
11, 16835, Note_on_c, 10, 78, 0
11, 16860, Note_on_c, 10, 74, 78
11, 16895, Note_on_c, 10, 74, 0
11, 16920, Note_on_c, 10, 83, 79
11, 16980, Note_on_c, 10, 83, 0
11, 16980, Note_on_c, 10, 81, 80
11, 17010, Note_on_c, 10, 81, 0
11, 17010, Note_on_c, 10, 79, 81
11, 17040, Note_on_c, 10, 79, 0
11, 17040, Note_on_c, 10, 78, 81
11, 17070, Note_on_c, 10, 78, 0
11, 17070, Note_on_c, 10, 76, 82
11, 17100, Note_on_c, 10, 76, 0
11, 17100, Note_on_c, 10, 74, 82
11, 17280, Note_on_c, 10, 74, 0
11, 17280, Note_on_c, 10, 73, 85
11, 17400, Note_on_c, 10, 73, 0
11, 17460, Note_on_c, 10, 71, 88
11, 17490, Note_on_c, 10, 71, 0
11, 17490, Note_on_c, 10, 67, 89
11, 17520, Note_on_c, 10, 67, 0
11, 17520, Note_on_c, 10, 71, 89
11, 17550, Note_on_c, 10, 71, 0
11, 17550, Note_on_c, 10, 74, 90
11, 17580, Note_on_c, 10, 74, 0
11, 17580, Note_on_c, 10, 79, 90
11, 17700, Note_on_c, 10, 79, 0
11, 17700, Note_on_c, 10, 78, 92
11, 17730, Note_on_c, 10, 78, 0
11, 17730, Note_on_c, 10, 76, 93
11, 17760, Note_on_c, 10, 76, 0
11, 17760, Note_on_c, 10, 78, 93
11, 17795, Note_on_c, 10, 78, 0
11, 17820, Note_on_c, 10, 76, 94
11, 17855, Note_on_c, 10, 76, 0
11, 17880, Note_on_c, 10, 78, 95
11, 17915, Note_on_c, 10, 78, 0
11, 17940, Note_on_c, 10, 79, 96
11, 17975, Note_on_c, 10, 79, 0
11, 18000, Note_on_c, 10, 78, 97
11, 18030, Note_on_c, 10, 78, 0
11, 18030, Note_on_c, 10, 76, 98
11, 18060, Note_on_c, 10, 76, 0
11, 18060, Note_on_c, 10, 76, 98
11, 18150, Note_on_c, 10, 76, 0
11, 18150, Note_on_c, 10, 74, 100
11, 18180, Note_on_c, 10, 74, 0
11, 18180, Note_on_c, 10, 74, 110
11, 18300, Note_on_c, 10, 74, 0
11, 18360, Note_on_c, 10, 69, 40
11, 18480, Note_on_c, 10, 69, 0
11, 18480, Note_on_c, 10, 71, 40
11, 18515, Note_on_c, 10, 71, 0
11, 18540, Note_on_c, 10, 71, 40
11, 18600, Note_on_c, 10, 71, 0
11, 18600, Note_on_c, 10, 72, 40
11, 18635, Note_on_c, 10, 72, 0
11, 18660, Note_on_c, 10, 72, 30
11, 18720, Note_on_c, 10, 72, 0
11, 18720, Note_on_c, 10, 71, 31
11, 18755, Note_on_c, 10, 71, 0
11, 18780, Note_on_c, 10, 72, 32
11, 18840, Note_on_c, 10, 72, 0
11, 18840, Note_on_c, 10, 74, 33
11, 18875, Note_on_c, 10, 74, 0
11, 18900, Note_on_c, 10, 71, 34
11, 19020, Note_on_c, 10, 71, 0
11, 19800, Note_on_c, 10, 69, 50
11, 19920, Note_on_c, 10, 69, 0
11, 19920, Note_on_c, 10, 71, 52
11, 19955, Note_on_c, 10, 71, 0
11, 19980, Note_on_c, 10, 71, 53
11, 20040, Note_on_c, 10, 71, 0
11, 20040, Note_on_c, 10, 72, 54
11, 20075, Note_on_c, 10, 72, 0
11, 20100, Note_on_c, 10, 72, 56
11, 20160, Note_on_c, 10, 72, 0
11, 20160, Note_on_c, 10, 71, 57
11, 20195, Note_on_c, 10, 71, 0
11, 20220, Note_on_c, 10, 72, 58
11, 20280, Note_on_c, 10, 72, 0
11, 20280, Note_on_c, 10, 74, 59
11, 20315, Note_on_c, 10, 74, 0
11, 20340, Note_on_c, 10, 71, 60
11, 20460, Note_on_c, 10, 71, 0
11, 20460, Note_on_c, 10, 76, 62
11, 20700, Note_on_c, 10, 76, 0
11, 20700, Note_on_c, 10, 75, 64
11, 20820, Note_on_c, 10, 75, 0
11, 20820, Note_on_c, 10, 76, 64
11, 21120, Note_on_c, 10, 76, 0
11, 21120, Note_on_c, 10, 75, 64
11, 21155, Note_on_c, 10, 75, 0
11, 21180, Note_on_c, 10, 75, 64
11, 21300, Note_on_c, 10, 75, 0
11, 21720, Note_on_c, 10, 71, 65
11, 21840, Note_on_c, 10, 71, 0
11, 21840, Note_on_c, 10, 73, 66
11, 21875, Note_on_c, 10, 73, 0
11, 21900, Note_on_c, 10, 73, 66
11, 21960, Note_on_c, 10, 73, 0
11, 21960, Note_on_c, 10, 74, 67
11, 21995, Note_on_c, 10, 74, 0
11, 22020, Note_on_c, 10, 74, 67
11, 22080, Note_on_c, 10, 74, 0
11, 22080, Note_on_c, 10, 73, 67
11, 22115, Note_on_c, 10, 73, 0
11, 22140, Note_on_c, 10, 74, 68
11, 22200, Note_on_c, 10, 74, 0
11, 22200, Note_on_c, 10, 76, 68
11, 22235, Note_on_c, 10, 76, 0
11, 22260, Note_on_c, 10, 73, 69
11, 22320, Note_on_c, 10, 73, 0
11, 22320, Note_on_c, 10, 75, 69
11, 22355, Note_on_c, 10, 75, 0
11, 22380, Note_on_c, 10, 75, 69
11, 22440, Note_on_c, 10, 75, 0
11, 22440, Note_on_c, 10, 76, 70
11, 22475, Note_on_c, 10, 76, 0
11, 22500, Note_on_c, 10, 76, 64
11, 22560, Note_on_c, 10, 76, 0
11, 22560, Note_on_c, 10, 75, 64
11, 22595, Note_on_c, 10, 75, 0
11, 22620, Note_on_c, 10, 76, 64
11, 22680, Note_on_c, 10, 76, 0
11, 22680, Note_on_c, 10, 78, 64
11, 22715, Note_on_c, 10, 78, 0
11, 22740, Note_on_c, 10, 75, 64
11, 22860, Note_on_c, 10, 75, 0
11, 22980, Note_on_c, 10, 76, 64
11, 23340, Note_on_c, 10, 76, 0
11, 23340, Note_on_c, 10, 76, 72
11, 23460, Note_on_c, 10, 76, 0
11, 23460, Note_on_c, 10, 76, 75
11, 23520, Note_on_c, 10, 76, 0
11, 23520, Note_on_c, 10, 75, 75
11, 23580, Note_on_c, 10, 75, 0
11, 23580, Note_on_c, 10, 76, 75
11, 23640, Note_on_c, 10, 76, 0
11, 23640, Note_on_c, 10, 79, 75
11, 23700, Note_on_c, 10, 79, 0
11, 23700, Note_on_c, 10, 78, 75
11, 23760, Note_on_c, 10, 78, 0
11, 23760, Note_on_c, 10, 76, 75
11, 23790, Note_on_c, 10, 76, 0
11, 23790, Note_on_c, 10, 75, 75
11, 23820, Note_on_c, 10, 75, 0
11, 23820, Note_on_c, 10, 76, 75
11, 23880, Note_on_c, 10, 76, 0
11, 23880, Note_on_c, 10, 69, 75
11, 23940, Note_on_c, 10, 69, 0
11, 23940, Note_on_c, 10, 67, 67
11, 24060, Note_on_c, 10, 67, 0
11, 24060, Note_on_c, 10, 66, 60
11, 24180, Note_on_c, 10, 66, 0
11, 24180, Note_on_c, 10, 64, 53
11, 24300, Note_on_c, 10, 64, 0
11, 27720, Note_on_c, 10, 69, 40
11, 27840, Note_on_c, 10, 69, 0
11, 27840, Note_on_c, 10, 71, 40
11, 27875, Note_on_c, 10, 71, 0
11, 27900, Note_on_c, 10, 71, 40
11, 27960, Note_on_c, 10, 71, 0
11, 27960, Note_on_c, 10, 72, 40
11, 27995, Note_on_c, 10, 72, 0
11, 28020, Note_on_c, 10, 72, 40
11, 28080, Note_on_c, 10, 72, 0
11, 28080, Note_on_c, 10, 71, 40
11, 28115, Note_on_c, 10, 71, 0
11, 28140, Note_on_c, 10, 72, 40
11, 28200, Note_on_c, 10, 72, 0
11, 28200, Note_on_c, 10, 74, 40
11, 28260, Note_on_c, 10, 74, 0
11, 28260, Note_on_c, 10, 71, 40
11, 28295, Note_on_c, 10, 71, 0
11, 28320, Note_on_c, 10, 69, 40
11, 28380, Note_on_c, 10, 69, 0
11, 28380, Note_on_c, 10, 67, 40
11, 28440, Note_on_c, 10, 67, 0
11, 28440, Note_on_c, 10, 66, 40
11, 28500, Note_on_c, 10, 66, 0
11, 28500, Note_on_c, 10, 64, 40
11, 28535, Note_on_c, 10, 64, 0
11, 28560, Note_on_c, 10, 74, 40
11, 28590, Note_on_c, 10, 74, 0
11, 28590, Note_on_c, 10, 73, 40
11, 28620, Note_on_c, 10, 73, 0
11, 28620, Note_on_c, 10, 74, 40
11, 28680, Note_on_c, 10, 74, 0
11, 28680, Note_on_c, 10, 67, 40
11, 28740, Note_on_c, 10, 67, 0
11, 28740, Note_on_c, 10, 66, 40
11, 28860, Note_on_c, 10, 66, 0
11, 28860, Note_on_c, 10, 64, 40
11, 28980, Note_on_c, 10, 64, 0
11, 28980, Note_on_c, 10, 62, 40
11, 29015, Note_on_c, 10, 62, 0
11, 29040, Note_on_c, 10, 62, 40
11, 29100, Note_on_c, 10, 62, 0
11, 29100, Note_on_c, 10, 66, 40
11, 29160, Note_on_c, 10, 66, 0
11, 29160, Note_on_c, 10, 69, 40
11, 29220, Note_on_c, 10, 69, 0
11, 29220, Note_on_c, 10, 74, 30
11, 29280, Note_on_c, 10, 74, 0
11, 29280, Note_on_c, 10, 76, 30
11, 29310, Note_on_c, 10, 76, 0
11, 29310, Note_on_c, 10, 78, 30
11, 29340, Note_on_c, 10, 78, 0
11, 29340, Note_on_c, 10, 76, 30
11, 29370, Note_on_c, 10, 76, 0
11, 29370, Note_on_c, 10, 74, 30
11, 29400, Note_on_c, 10, 74, 0
11, 29400, Note_on_c, 10, 73, 30
11, 29430, Note_on_c, 10, 73, 0
11, 29430, Note_on_c, 10, 71, 30
11, 29460, Note_on_c, 10, 71, 0
11, 29460, Note_on_c, 10, 73, 30
11, 29490, Note_on_c, 10, 73, 0
11, 29490, Note_on_c, 10, 76, 30
11, 29520, Note_on_c, 10, 76, 0
11, 29520, Note_on_c, 10, 81, 30
11, 29550, Note_on_c, 10, 81, 0
11, 29550, Note_on_c, 10, 79, 30
11, 29580, Note_on_c, 10, 79, 0
11, 29580, Note_on_c, 10, 78, 30
11, 29610, Note_on_c, 10, 78, 0
11, 29610, Note_on_c, 10, 76, 30
11, 29640, Note_on_c, 10, 76, 0
11, 29640, Note_on_c, 10, 74, 30
11, 29670, Note_on_c, 10, 74, 0
11, 29670, Note_on_c, 10, 73, 30
11, 29700, Note_on_c, 10, 73, 0
11, 29700, Note_on_c, 10, 71, 30
11, 29730, Note_on_c, 10, 71, 0
11, 29730, Note_on_c, 10, 74, 30
11, 29760, Note_on_c, 10, 74, 0
11, 29760, Note_on_c, 10, 79, 30
11, 29790, Note_on_c, 10, 79, 0
11, 29790, Note_on_c, 10, 78, 30
11, 29820, Note_on_c, 10, 78, 0
11, 29820, Note_on_c, 10, 76, 30
11, 29850, Note_on_c, 10, 76, 0
11, 29850, Note_on_c, 10, 74, 30
11, 29880, Note_on_c, 10, 74, 0
11, 29880, Note_on_c, 10, 73, 30
11, 29910, Note_on_c, 10, 73, 0
11, 29910, Note_on_c, 10, 71, 30
11, 29940, Note_on_c, 10, 71, 0
11, 29940, Note_on_c, 10, 69, 30
11, 29970, Note_on_c, 10, 69, 0
11, 29970, Note_on_c, 10, 73, 30
11, 30000, Note_on_c, 10, 73, 0
11, 30000, Note_on_c, 10, 74, 30
11, 30030, Note_on_c, 10, 74, 0
11, 30030, Note_on_c, 10, 76, 30
11, 30060, Note_on_c, 10, 76, 0
11, 30060, Note_on_c, 10, 78, 30
11, 30090, Note_on_c, 10, 78, 0
11, 30090, Note_on_c, 10, 79, 30
11, 30120, Note_on_c, 10, 79, 0
11, 30120, Note_on_c, 10, 78, 30
11, 30150, Note_on_c, 10, 78, 0
11, 30150, Note_on_c, 10, 76, 30
11, 30180, Note_on_c, 10, 76, 0
11, 30180, Note_on_c, 10, 74, 30
11, 30210, Note_on_c, 10, 74, 0
11, 30210, Note_on_c, 10, 73, 30
11, 30240, Note_on_c, 10, 73, 0
11, 30240, Note_on_c, 10, 71, 30
11, 30270, Note_on_c, 10, 71, 0
11, 30270, Note_on_c, 10, 74, 30
11, 30300, Note_on_c, 10, 74, 0
11, 30300, Note_on_c, 10, 73, 30
11, 30330, Note_on_c, 10, 73, 0
11, 30330, Note_on_c, 10, 71, 30
11, 30360, Note_on_c, 10, 71, 0
11, 30360, Note_on_c, 10, 69, 30
11, 30390, Note_on_c, 10, 69, 0
11, 30390, Note_on_c, 10, 68, 30
11, 30420, Note_on_c, 10, 68, 0
11, 30420, Note_on_c, 10, 76, 30
11, 30480, Note_on_c, 10, 76, 0
11, 30480, Note_on_c, 10, 69, 30
11, 30600, Note_on_c, 10, 69, 0
11, 30600, Note_on_c, 10, 68, 30
11, 30660, Note_on_c, 10, 68, 0
11, 30660, Note_on_c, 10, 69, 30
11, 30695, Note_on_c, 10, 69, 0
11, 30720, Note_on_c, 10, 76, 30
11, 30780, Note_on_c, 10, 76, 0
11, 30780, Note_on_c, 10, 81, 30
11, 30840, Note_on_c, 10, 81, 0
11, 30840, Note_on_c, 10, 69, 30
11, 30900, Note_on_c, 10, 69, 0
11, 30900, Note_on_c, 10, 71, 30
11, 30960, Note_on_c, 10, 71, 0
11, 30960, Note_on_c, 10, 73, 30
11, 30990, Note_on_c, 10, 73, 0
11, 30990, Note_on_c, 10, 74, 30
11, 31020, Note_on_c, 10, 74, 0
11, 31020, Note_on_c, 10, 76, 30
11, 31200, Note_on_c, 10, 76, 0
11, 31200, Note_on_c, 10, 74, 30
11, 31235, Note_on_c, 10, 74, 0
11, 31260, Note_on_c, 10, 74, 30
11, 31320, Note_on_c, 10, 74, 0
11, 31320, Note_on_c, 10, 76, 30
11, 31380, Note_on_c, 10, 76, 0
11, 31380, Note_on_c, 10, 76, 30
11, 31470, Note_on_c, 10, 76, 0
11, 31470, Note_on_c, 10, 78, 30
11, 31500, Note_on_c, 10, 78, 0
11, 31500, Note_on_c, 10, 78, 30
11, 31620, Note_on_c, 10, 78, 0
11, 31620, Note_on_c, 10, 79, 30
11, 31740, Note_on_c, 10, 79, 0
11, 31800, Note_on_c, 10, 62, 30
11, 31860, Note_on_c, 10, 62, 0
11, 31860, Note_on_c, 10, 71, 30
11, 31920, Note_on_c, 10, 71, 0
11, 31920, Note_on_c, 10, 69, 30
11, 31955, Note_on_c, 10, 69, 0
11, 31980, Note_on_c, 10, 69, 30
11, 32040, Note_on_c, 10, 69, 0
11, 32040, Note_on_c, 10, 74, 30
11, 32075, Note_on_c, 10, 74, 0
11, 32100, Note_on_c, 10, 74, 30
11, 32160, Note_on_c, 10, 74, 0
11, 32160, Note_on_c, 10, 73, 30
11, 32190, Note_on_c, 10, 73, 0
11, 32190, Note_on_c, 10, 71, 30
11, 32220, Note_on_c, 10, 71, 0
11, 32220, Note_on_c, 10, 69, 30
11, 32280, Note_on_c, 10, 69, 0
11, 32280, Note_on_c, 10, 67, 30
11, 32340, Note_on_c, 10, 67, 0
11, 32340, Note_on_c, 10, 66, 30
11, 32400, Note_on_c, 10, 66, 0
11, 32400, Note_on_c, 10, 66, 30
11, 32430, Note_on_c, 10, 66, 0
11, 32430, Note_on_c, 10, 67, 30
11, 32460, Note_on_c, 10, 67, 0
11, 32460, Note_on_c, 10, 69, 30
11, 32640, Note_on_c, 10, 69, 0
11, 32640, Note_on_c, 10, 74, 30
11, 32670, Note_on_c, 10, 74, 0
11, 32670, Note_on_c, 10, 73, 30
11, 32700, Note_on_c, 10, 73, 0
11, 32700, Note_on_c, 10, 74, 30
11, 32760, Note_on_c, 10, 74, 0
11, 32760, Note_on_c, 10, 76, 30
11, 32820, Note_on_c, 10, 76, 0
11, 32820, Note_on_c, 10, 73, 30
11, 32880, Note_on_c, 10, 73, 0
11, 32880, Note_on_c, 10, 69, 30
11, 32940, Note_on_c, 10, 69, 0
11, 33000, Note_on_c, 10, 74, 30
11, 33060, Note_on_c, 10, 74, 0
11, 33060, Note_on_c, 10, 79, 30
11, 33180, Note_on_c, 10, 79, 0
11, 33240, Note_on_c, 10, 76, 30
11, 33300, Note_on_c, 10, 76, 0
11, 33300, Note_on_c, 10, 78, 30
11, 33360, Note_on_c, 10, 78, 0
11, 33480, Note_on_c, 10, 69, 30
11, 33540, Note_on_c, 10, 69, 0
11, 33540, Note_on_c, 10, 71, 30
11, 33570, Note_on_c, 10, 71, 0
11, 33570, Note_on_c, 10, 73, 30
11, 33600, Note_on_c, 10, 73, 0
11, 33600, Note_on_c, 10, 74, 30
11, 33630, Note_on_c, 10, 74, 0
11, 33630, Note_on_c, 10, 71, 30
11, 33660, Note_on_c, 10, 71, 0
11, 33660, Note_on_c, 10, 73, 30
11, 33720, Note_on_c, 10, 73, 0
11, 33720, Note_on_c, 10, 74, 30
11, 33780, Note_on_c, 10, 74, 0
11, 33780, Note_on_c, 10, 76, 30
11, 34260, Note_on_c, 10, 76, 0
11, 34320, Note_on_c, 10, 78, 30
11, 34440, Note_on_c, 10, 78, 0
11, 34440, Note_on_c, 10, 75, 30
11, 34500, Note_on_c, 10, 75, 0
11, 34500, Note_on_c, 10, 79, 35
11, 34680, Note_on_c, 10, 79, 0
11, 34680, Note_on_c, 10, 78, 38
11, 34710, Note_on_c, 10, 78, 0
11, 34710, Note_on_c, 10, 76, 38
11, 34740, Note_on_c, 10, 76, 0
11, 34740, Note_on_c, 10, 81, 39
11, 34800, Note_on_c, 10, 81, 0
11, 34800, Note_on_c, 10, 69, 40
11, 34860, Note_on_c, 10, 69, 0
11, 34860, Note_on_c, 10, 71, 40
11, 35010, Note_on_c, 10, 71, 0
11, 35010, Note_on_c, 10, 68, 43
11, 35040, Note_on_c, 10, 68, 0
11, 35040, Note_on_c, 10, 66, 43
11, 35070, Note_on_c, 10, 66, 0
11, 35070, Note_on_c, 10, 64, 44
11, 35100, Note_on_c, 10, 64, 0
11, 35100, Note_on_c, 10, 76, 44
11, 35280, Note_on_c, 10, 76, 0
11, 35280, Note_on_c, 10, 78, 47
11, 35340, Note_on_c, 10, 78, 0
11, 35340, Note_on_c, 10, 71, 48
11, 35375, Note_on_c, 10, 71, 0
11, 35400, Note_on_c, 10, 76, 49
11, 35490, Note_on_c, 10, 76, 0
11, 35490, Note_on_c, 10, 74, 50
11, 35520, Note_on_c, 10, 74, 0
11, 35520, Note_on_c, 10, 72, 50
11, 35640, Note_on_c, 10, 72, 0
11, 35640, Note_on_c, 10, 71, 52
11, 35670, Note_on_c, 10, 71, 0
11, 35670, Note_on_c, 10, 69, 53
11, 35700, Note_on_c, 10, 69, 0
11, 35700, Note_on_c, 10, 67, 53
11, 35735, Note_on_c, 10, 67, 0
11, 35760, Note_on_c, 10, 64, 54
11, 35820, Note_on_c, 10, 64, 0
11, 35820, Note_on_c, 10, 67, 55
11, 35880, Note_on_c, 10, 67, 0
11, 35880, Note_on_c, 10, 71, 56
11, 35940, Note_on_c, 10, 71, 0
11, 35940, Note_on_c, 10, 76, 57
11, 36000, Note_on_c, 10, 76, 0
11, 36000, Note_on_c, 10, 78, 58
11, 36030, Note_on_c, 10, 78, 0
11, 36030, Note_on_c, 10, 79, 58
11, 36060, Note_on_c, 10, 79, 0
11, 36060, Note_on_c, 10, 78, 59
11, 36090, Note_on_c, 10, 78, 0
11, 36090, Note_on_c, 10, 76, 59
11, 36120, Note_on_c, 10, 76, 0
11, 36120, Note_on_c, 10, 74, 59
11, 36150, Note_on_c, 10, 74, 0
11, 36150, Note_on_c, 10, 73, 60
11, 36180, Note_on_c, 10, 73, 0
11, 36180, Note_on_c, 10, 74, 60
11, 36240, Note_on_c, 10, 74, 0
11, 36240, Note_on_c, 10, 71, 61
11, 36300, Note_on_c, 10, 71, 0
11, 36600, Note_on_c, 10, 73, 65
11, 36720, Note_on_c, 10, 73, 0
11, 36720, Note_on_c, 10, 75, 66
11, 36755, Note_on_c, 10, 75, 0
11, 36780, Note_on_c, 10, 75, 67
11, 36840, Note_on_c, 10, 75, 0
11, 36840, Note_on_c, 10, 76, 67
11, 36875, Note_on_c, 10, 76, 0
11, 36900, Note_on_c, 10, 76, 68
11, 36960, Note_on_c, 10, 76, 0
11, 36960, Note_on_c, 10, 75, 68
11, 36995, Note_on_c, 10, 75, 0
11, 37020, Note_on_c, 10, 76, 68
11, 37080, Note_on_c, 10, 76, 0
11, 37080, Note_on_c, 10, 78, 69
11, 37115, Note_on_c, 10, 78, 0
11, 37140, Note_on_c, 10, 75, 69
11, 37260, Note_on_c, 10, 75, 0
11, 37560, Note_on_c, 10, 71, 72
11, 37680, Note_on_c, 10, 71, 0
11, 37680, Note_on_c, 10, 73, 73
11, 37715, Note_on_c, 10, 73, 0
11, 37740, Note_on_c, 10, 73, 74
11, 37800, Note_on_c, 10, 73, 0
11, 37800, Note_on_c, 10, 74, 74
11, 37835, Note_on_c, 10, 74, 0
11, 37860, Note_on_c, 10, 74, 75
11, 37920, Note_on_c, 10, 74, 0
11, 37920, Note_on_c, 10, 73, 75
11, 37955, Note_on_c, 10, 73, 0
11, 37980, Note_on_c, 10, 74, 75
11, 38040, Note_on_c, 10, 74, 0
11, 38040, Note_on_c, 10, 76, 76
11, 38075, Note_on_c, 10, 76, 0
11, 38100, Note_on_c, 10, 73, 76
11, 38220, Note_on_c, 10, 73, 0
11, 38520, Note_on_c, 10, 69, 65
11, 38640, Note_on_c, 10, 69, 0
11, 38640, Note_on_c, 10, 71, 65
11, 38675, Note_on_c, 10, 71, 0
11, 38700, Note_on_c, 10, 71, 66
11, 38760, Note_on_c, 10, 71, 0
11, 38760, Note_on_c, 10, 72, 66
11, 38795, Note_on_c, 10, 72, 0
11, 38820, Note_on_c, 10, 72, 66
11, 38880, Note_on_c, 10, 72, 0
11, 38880, Note_on_c, 10, 71, 66
11, 38915, Note_on_c, 10, 71, 0
11, 38940, Note_on_c, 10, 72, 67
11, 39000, Note_on_c, 10, 72, 0
11, 39000, Note_on_c, 10, 74, 67
11, 39060, Note_on_c, 10, 74, 0
11, 39060, Note_on_c, 10, 71, 67
11, 39095, Note_on_c, 10, 71, 0
11, 39120, Note_on_c, 10, 69, 67
11, 39180, Note_on_c, 10, 69, 0
11, 39180, Note_on_c, 10, 67, 68
11, 39240, Note_on_c, 10, 67, 0
11, 39240, Note_on_c, 10, 66, 68
11, 39300, Note_on_c, 10, 66, 0
11, 39300, Note_on_c, 10, 64, 68
11, 39335, Note_on_c, 10, 64, 0
11, 39360, Note_on_c, 10, 74, 68
11, 39390, Note_on_c, 10, 74, 0
11, 39390, Note_on_c, 10, 73, 68
11, 39420, Note_on_c, 10, 73, 0
11, 39420, Note_on_c, 10, 74, 69
11, 39480, Note_on_c, 10, 74, 0
11, 39480, Note_on_c, 10, 67, 69
11, 39540, Note_on_c, 10, 67, 0
11, 39540, Note_on_c, 10, 66, 69
11, 39660, Note_on_c, 10, 66, 0
11, 39660, Note_on_c, 10, 64, 70
11, 39780, Note_on_c, 10, 64, 0
11, 39780, Note_on_c, 10, 62, 64
11, 39815, Note_on_c, 10, 62, 0
11, 39840, Note_on_c, 10, 62, 64
11, 39900, Note_on_c, 10, 62, 0
11, 39900, Note_on_c, 10, 66, 64
11, 39960, Note_on_c, 10, 66, 0
11, 39960, Note_on_c, 10, 69, 64
11, 40020, Note_on_c, 10, 69, 0
11, 40020, Note_on_c, 10, 74, 64
11, 40080, Note_on_c, 10, 74, 0
11, 40080, Note_on_c, 10, 76, 64
11, 40110, Note_on_c, 10, 76, 0
11, 40110, Note_on_c, 10, 78, 64
11, 40140, Note_on_c, 10, 78, 0
11, 40140, Note_on_c, 10, 76, 64
11, 40170, Note_on_c, 10, 76, 0
11, 40170, Note_on_c, 10, 74, 64
11, 40200, Note_on_c, 10, 74, 0
11, 40200, Note_on_c, 10, 73, 64
11, 40230, Note_on_c, 10, 73, 0
11, 40230, Note_on_c, 10, 71, 64
11, 40260, Note_on_c, 10, 71, 0
11, 40260, Note_on_c, 10, 73, 64
11, 40290, Note_on_c, 10, 73, 0
11, 40290, Note_on_c, 10, 76, 64
11, 40320, Note_on_c, 10, 76, 0
11, 40320, Note_on_c, 10, 81, 64
11, 40350, Note_on_c, 10, 81, 0
11, 40350, Note_on_c, 10, 79, 64
11, 40380, Note_on_c, 10, 79, 0
11, 40380, Note_on_c, 10, 78, 64
11, 40410, Note_on_c, 10, 78, 0
11, 40410, Note_on_c, 10, 76, 64
11, 40440, Note_on_c, 10, 76, 0
11, 40440, Note_on_c, 10, 74, 64
11, 40470, Note_on_c, 10, 74, 0
11, 40470, Note_on_c, 10, 73, 64
11, 40500, Note_on_c, 10, 73, 0
11, 40500, Note_on_c, 10, 71, 64
11, 40530, Note_on_c, 10, 71, 0
11, 40530, Note_on_c, 10, 74, 64
11, 40560, Note_on_c, 10, 74, 0
11, 40560, Note_on_c, 10, 79, 64
11, 40590, Note_on_c, 10, 79, 0
11, 40590, Note_on_c, 10, 78, 64
11, 40620, Note_on_c, 10, 78, 0
11, 40620, Note_on_c, 10, 76, 64
11, 40650, Note_on_c, 10, 76, 0
11, 40650, Note_on_c, 10, 74, 64
11, 40680, Note_on_c, 10, 74, 0
11, 40680, Note_on_c, 10, 73, 64
11, 40710, Note_on_c, 10, 73, 0
11, 40710, Note_on_c, 10, 71, 64
11, 40740, Note_on_c, 10, 71, 0
11, 40740, Note_on_c, 10, 69, 64
11, 40770, Note_on_c, 10, 69, 0
11, 40770, Note_on_c, 10, 73, 64
11, 40800, Note_on_c, 10, 73, 0
11, 40800, Note_on_c, 10, 74, 64
11, 40830, Note_on_c, 10, 74, 0
11, 40830, Note_on_c, 10, 76, 64
11, 40860, Note_on_c, 10, 76, 0
11, 40860, Note_on_c, 10, 78, 64
11, 40890, Note_on_c, 10, 78, 0
11, 40890, Note_on_c, 10, 79, 64
11, 40920, Note_on_c, 10, 79, 0
11, 40920, Note_on_c, 10, 78, 64
11, 40950, Note_on_c, 10, 78, 0
11, 40950, Note_on_c, 10, 76, 64
11, 40980, Note_on_c, 10, 76, 0
11, 40980, Note_on_c, 10, 74, 64
11, 41010, Note_on_c, 10, 74, 0
11, 41010, Note_on_c, 10, 73, 64
11, 41040, Note_on_c, 10, 73, 0
11, 41040, Note_on_c, 10, 71, 64
11, 41070, Note_on_c, 10, 71, 0
11, 41070, Note_on_c, 10, 74, 64
11, 41100, Note_on_c, 10, 74, 0
11, 41100, Note_on_c, 10, 73, 64
11, 41130, Note_on_c, 10, 73, 0
11, 41130, Note_on_c, 10, 71, 64
11, 41160, Note_on_c, 10, 71, 0
11, 41160, Note_on_c, 10, 69, 64
11, 41190, Note_on_c, 10, 69, 0
11, 41190, Note_on_c, 10, 68, 64
11, 41220, Note_on_c, 10, 68, 0
11, 41220, Note_on_c, 10, 76, 64
11, 41280, Note_on_c, 10, 76, 0
11, 41280, Note_on_c, 10, 69, 64
11, 41400, Note_on_c, 10, 69, 0
11, 41400, Note_on_c, 10, 68, 64
11, 41460, Note_on_c, 10, 68, 0
11, 41460, Note_on_c, 10, 69, 64
11, 41495, Note_on_c, 10, 69, 0
11, 41520, Note_on_c, 10, 76, 64
11, 41580, Note_on_c, 10, 76, 0
11, 41580, Note_on_c, 10, 81, 64
11, 41640, Note_on_c, 10, 81, 0
11, 41640, Note_on_c, 10, 69, 64
11, 41700, Note_on_c, 10, 69, 0
11, 41700, Note_on_c, 10, 71, 64
11, 41760, Note_on_c, 10, 71, 0
11, 41760, Note_on_c, 10, 73, 64
11, 41790, Note_on_c, 10, 73, 0
11, 41790, Note_on_c, 10, 74, 64
11, 41820, Note_on_c, 10, 74, 0
11, 41820, Note_on_c, 10, 76, 64
11, 42000, Note_on_c, 10, 76, 0
11, 42000, Note_on_c, 10, 74, 64
11, 42035, Note_on_c, 10, 74, 0
11, 42060, Note_on_c, 10, 74, 64
11, 42120, Note_on_c, 10, 74, 0
11, 42120, Note_on_c, 10, 76, 64
11, 42155, Note_on_c, 10, 76, 0
11, 42180, Note_on_c, 10, 76, 64
11, 42270, Note_on_c, 10, 76, 0
11, 42270, Note_on_c, 10, 78, 64
11, 42300, Note_on_c, 10, 78, 0
11, 42300, Note_on_c, 10, 78, 64
11, 42420, Note_on_c, 10, 78, 0
11, 42420, Note_on_c, 10, 79, 64
11, 42540, Note_on_c, 10, 79, 0
11, 42600, Note_on_c, 10, 62, 64
11, 42660, Note_on_c, 10, 62, 0
11, 42660, Note_on_c, 10, 71, 64
11, 42720, Note_on_c, 10, 71, 0
11, 42720, Note_on_c, 10, 69, 64
11, 42755, Note_on_c, 10, 69, 0
11, 42780, Note_on_c, 10, 69, 64
11, 42840, Note_on_c, 10, 69, 0
11, 42840, Note_on_c, 10, 74, 64
11, 42875, Note_on_c, 10, 74, 0
11, 42900, Note_on_c, 10, 74, 64
11, 42960, Note_on_c, 10, 74, 0
11, 42960, Note_on_c, 10, 73, 64
11, 42990, Note_on_c, 10, 73, 0
11, 42990, Note_on_c, 10, 71, 64
11, 43020, Note_on_c, 10, 71, 0
11, 43020, Note_on_c, 10, 69, 64
11, 43080, Note_on_c, 10, 69, 0
11, 43080, Note_on_c, 10, 67, 64
11, 43140, Note_on_c, 10, 67, 0
11, 43140, Note_on_c, 10, 66, 64
11, 43200, Note_on_c, 10, 66, 0
11, 43200, Note_on_c, 10, 66, 64
11, 43230, Note_on_c, 10, 66, 0
11, 43230, Note_on_c, 10, 67, 64
11, 43260, Note_on_c, 10, 67, 0
11, 43260, Note_on_c, 10, 69, 64
11, 43440, Note_on_c, 10, 69, 0
11, 43440, Note_on_c, 10, 72, 64
11, 43470, Note_on_c, 10, 72, 0
11, 43470, Note_on_c, 10, 71, 64
11, 43500, Note_on_c, 10, 71, 0
11, 43500, Note_on_c, 10, 72, 64
11, 43560, Note_on_c, 10, 72, 0
11, 43560, Note_on_c, 10, 74, 64
11, 43620, Note_on_c, 10, 74, 0
11, 43620, Note_on_c, 10, 71, 64
11, 43680, Note_on_c, 10, 71, 0
11, 43680, Note_on_c, 10, 67, 50
11, 43715, Note_on_c, 10, 67, 0
11, 43800, Note_on_c, 10, 72, 64
11, 43860, Note_on_c, 10, 72, 0
11, 43860, Note_on_c, 10, 77, 64
11, 43980, Note_on_c, 10, 77, 0
11, 44040, Note_on_c, 10, 74, 64
11, 44100, Note_on_c, 10, 74, 0
11, 44100, Note_on_c, 10, 76, 64
11, 44220, Note_on_c, 10, 76, 0
11, 44280, Note_on_c, 10, 67, 64
11, 44340, Note_on_c, 10, 67, 0
11, 44340, Note_on_c, 10, 69, 64
11, 44370, Note_on_c, 10, 69, 0
11, 44370, Note_on_c, 10, 71, 64
11, 44400, Note_on_c, 10, 71, 0
11, 44400, Note_on_c, 10, 72, 64
11, 44430, Note_on_c, 10, 72, 0
11, 44430, Note_on_c, 10, 69, 64
11, 44460, Note_on_c, 10, 69, 0
11, 44460, Note_on_c, 10, 71, 64
11, 44520, Note_on_c, 10, 71, 0
11, 44520, Note_on_c, 10, 72, 64
11, 44580, Note_on_c, 10, 72, 0
11, 44580, Note_on_c, 10, 74, 64
11, 44880, Note_on_c, 10, 74, 0
11, 44880, Note_on_c, 10, 62, 67
11, 44940, Note_on_c, 10, 62, 0
11, 44940, Note_on_c, 10, 74, 67
11, 45120, Note_on_c, 10, 74, 0
11, 45120, Note_on_c, 10, 73, 69
11, 45150, Note_on_c, 10, 73, 0
11, 45150, Note_on_c, 10, 71, 69
11, 45180, Note_on_c, 10, 71, 0
11, 45180, Note_on_c, 10, 73, 69
11, 45270, Note_on_c, 10, 73, 0
11, 45270, Note_on_c, 10, 74, 70
11, 45300, Note_on_c, 10, 74, 0
11, 45300, Note_on_c, 10, 74, 70
11, 45420, Note_on_c, 10, 74, 0
11, 45420, Note_on_c, 10, 74, 71
11, 45815, Note_on_c, 10, 74, 0
11, 45840, Note_on_c, 10, 71, 75
11, 45900, Note_on_c, 10, 71, 0
11, 45900, Note_on_c, 10, 76, 75
11, 46080, Note_on_c, 10, 76, 0
11, 46080, Note_on_c, 10, 81, 77
11, 46110, Note_on_c, 10, 81, 0
11, 46110, Note_on_c, 10, 79, 77
11, 46140, Note_on_c, 10, 79, 0
11, 46140, Note_on_c, 10, 81, 77
11, 46200, Note_on_c, 10, 81, 0
11, 46200, Note_on_c, 10, 74, 78
11, 46235, Note_on_c, 10, 74, 0
11, 46260, Note_on_c, 10, 74, 78
11, 46320, Note_on_c, 10, 74, 0
11, 46320, Note_on_c, 10, 73, 79
11, 46350, Note_on_c, 10, 73, 0
11, 46350, Note_on_c, 10, 71, 79
11, 46380, Note_on_c, 10, 71, 0
11, 46380, Note_on_c, 10, 73, 79
11, 46500, Note_on_c, 10, 73, 0
11, 46500, Note_on_c, 10, 74, 85
11, 46620, Note_on_c, 10, 74, 0
11, 47520, Note_on_c, 10, 64, 65
11, 47580, Note_on_c, 10, 64, 0
11, 47580, Note_on_c, 10, 67, 66
11, 47640, Note_on_c, 10, 67, 0
11, 47640, Note_on_c, 10, 71, 66
11, 47700, Note_on_c, 10, 71, 0
11, 47700, Note_on_c, 10, 76, 67
11, 47760, Note_on_c, 10, 76, 0
11, 47760, Note_on_c, 10, 78, 68
11, 47790, Note_on_c, 10, 78, 0
11, 47790, Note_on_c, 10, 79, 68
11, 47820, Note_on_c, 10, 79, 0
11, 47820, Note_on_c, 10, 78, 69
11, 47850, Note_on_c, 10, 78, 0
11, 47850, Note_on_c, 10, 76, 69
11, 47880, Note_on_c, 10, 76, 0
11, 47880, Note_on_c, 10, 74, 69
11, 47910, Note_on_c, 10, 74, 0
11, 47910, Note_on_c, 10, 73, 70
11, 47940, Note_on_c, 10, 73, 0
11, 47940, Note_on_c, 10, 74, 70
11, 48000, Note_on_c, 10, 74, 0
11, 48000, Note_on_c, 10, 71, 70
11, 48035, Note_on_c, 10, 71, 0
11, 48060, Note_on_c, 10, 74, 40
11, 48480, Note_on_c, 10, 74, 0
11, 48480, Note_on_c, 10, 73, 33
11, 48515, Note_on_c, 10, 73, 0
11, 48540, Note_on_c, 10, 73, 36
11, 48600, Note_on_c, 10, 73, 0
11, 48600, Note_on_c, 10, 71, 39
11, 48635, Note_on_c, 10, 71, 0
11, 48660, Note_on_c, 10, 71, 43
11, 48720, Note_on_c, 10, 71, 0
11, 48720, Note_on_c, 10, 78, 46
11, 48755, Note_on_c, 10, 78, 0
11, 48780, Note_on_c, 10, 76, 49
11, 48840, Note_on_c, 10, 76, 0
11, 48840, Note_on_c, 10, 74, 52
11, 48875, Note_on_c, 10, 74, 0
11, 48900, Note_on_c, 10, 73, 55
11, 48960, Note_on_c, 10, 73, 0
11, 48960, Note_on_c, 10, 78, 58
11, 49020, Note_on_c, 10, 78, 0
11, 49020, Note_on_c, 10, 78, 61
11, 49080, Note_on_c, 10, 78, 0
11, 49080, Note_on_c, 10, 76, 64
11, 49110, Note_on_c, 10, 76, 0
11, 49110, Note_on_c, 10, 74, 66
11, 49140, Note_on_c, 10, 74, 0
11, 49140, Note_on_c, 10, 73, 68
11, 49230, Note_on_c, 10, 73, 0
11, 49230, Note_on_c, 10, 74, 72
11, 49245, Note_on_c, 10, 74, 0
11, 49245, Note_on_c, 10, 76, 73
11, 49260, Note_on_c, 10, 76, 0
11, 49260, Note_on_c, 10, 69, 74
11, 49320, Note_on_c, 10, 69, 0
11, 49320, Note_on_c, 10, 69, 77
11, 49440, Note_on_c, 10, 69, 0
11, 49440, Note_on_c, 10, 71, 80
11, 49475, Note_on_c, 10, 71, 0
11, 49500, Note_on_c, 10, 71, 81
11, 49560, Note_on_c, 10, 71, 0
11, 49560, Note_on_c, 10, 72, 81
11, 49595, Note_on_c, 10, 72, 0
11, 49620, Note_on_c, 10, 72, 81
11, 49680, Note_on_c, 10, 72, 0
11, 49680, Note_on_c, 10, 71, 82
11, 49715, Note_on_c, 10, 71, 0
11, 49740, Note_on_c, 10, 72, 82
11, 49800, Note_on_c, 10, 72, 0
11, 49800, Note_on_c, 10, 74, 82
11, 49835, Note_on_c, 10, 74, 0
11, 49860, Note_on_c, 10, 71, 83
11, 49980, Note_on_c, 10, 71, 0
11, 50040, Note_on_c, 10, 71, 83
11, 50160, Note_on_c, 10, 71, 0
11, 50160, Note_on_c, 10, 73, 84
11, 50195, Note_on_c, 10, 73, 0
11, 50220, Note_on_c, 10, 73, 84
11, 50280, Note_on_c, 10, 73, 0
11, 50280, Note_on_c, 10, 74, 85
11, 50315, Note_on_c, 10, 74, 0
11, 50340, Note_on_c, 10, 74, 85
11, 50400, Note_on_c, 10, 74, 0
11, 50400, Note_on_c, 10, 73, 85
11, 50435, Note_on_c, 10, 73, 0
11, 50460, Note_on_c, 10, 74, 86
11, 50520, Note_on_c, 10, 74, 0
11, 50520, Note_on_c, 10, 76, 86
11, 50555, Note_on_c, 10, 76, 0
11, 50580, Note_on_c, 10, 73, 86
11, 50700, Note_on_c, 10, 73, 0
11, 50760, Note_on_c, 10, 73, 87
11, 50880, Note_on_c, 10, 73, 0
11, 50880, Note_on_c, 10, 74, 88
11, 50915, Note_on_c, 10, 74, 0
11, 50940, Note_on_c, 10, 74, 88
11, 51000, Note_on_c, 10, 74, 0
11, 51000, Note_on_c, 10, 76, 88
11, 51035, Note_on_c, 10, 76, 0
11, 51060, Note_on_c, 10, 76, 89
11, 51120, Note_on_c, 10, 76, 0
11, 51120, Note_on_c, 10, 74, 89
11, 51155, Note_on_c, 10, 74, 0
11, 51180, Note_on_c, 10, 76, 89
11, 51240, Note_on_c, 10, 76, 0
11, 51240, Note_on_c, 10, 78, 90
11, 51275, Note_on_c, 10, 78, 0
11, 51300, Note_on_c, 10, 74, 80
11, 51900, Note_on_c, 10, 74, 0
11, 51900, Note_on_c, 10, 73, 87
11, 52020, Note_on_c, 10, 73, 0
11, 52020, Note_on_c, 10, 73, 89
11, 52140, Note_on_c, 10, 73, 0
11, 52140, Note_on_c, 10, 71, 90
11, 52200, Note_on_c, 10, 71, 0
11, 52200, Note_on_c, 10, 69, 91
11, 52260, Note_on_c, 10, 69, 0
11, 52260, Note_on_c, 10, 68, 91
11, 52320, Note_on_c, 10, 68, 0
11, 52320, Note_on_c, 10, 69, 92
11, 52350, Note_on_c, 10, 69, 0
11, 52350, Note_on_c, 10, 71, 93
11, 52380, Note_on_c, 10, 71, 0
11, 52380, Note_on_c, 10, 64, 93
11, 52440, Note_on_c, 10, 64, 0
11, 52440, Note_on_c, 10, 69, 94
11, 52500, Note_on_c, 10, 69, 0
11, 52500, Note_on_c, 10, 69, 94
11, 52620, Note_on_c, 10, 69, 0
11, 52620, Note_on_c, 10, 68, 96
11, 52740, Note_on_c, 10, 68, 0
11, 52740, Note_on_c, 10, 69, 97
11, 52775, Note_on_c, 10, 69, 0
11, 52800, Note_on_c, 10, 76, 98
11, 52860, Note_on_c, 10, 76, 0
11, 52860, Note_on_c, 10, 81, 99
11, 52920, Note_on_c, 10, 81, 0
11, 52920, Note_on_c, 10, 69, 99
11, 52980, Note_on_c, 10, 69, 0
11, 52980, Note_on_c, 10, 71, 100
11, 53040, Note_on_c, 10, 71, 0
11, 53040, Note_on_c, 10, 73, 101
11, 53070, Note_on_c, 10, 73, 0
11, 53070, Note_on_c, 10, 74, 101
11, 53100, Note_on_c, 10, 74, 0
11, 53100, Note_on_c, 10, 76, 101
11, 53280, Note_on_c, 10, 76, 0
11, 53280, Note_on_c, 10, 74, 104
11, 53315, Note_on_c, 10, 74, 0
11, 53340, Note_on_c, 10, 74, 104
11, 53400, Note_on_c, 10, 74, 0
11, 53400, Note_on_c, 10, 76, 105
11, 53460, Note_on_c, 10, 76, 0
11, 53460, Note_on_c, 10, 76, 106
11, 53550, Note_on_c, 10, 76, 0
11, 53550, Note_on_c, 10, 78, 107
11, 53580, Note_on_c, 10, 78, 0
11, 53580, Note_on_c, 10, 78, 107
11, 53700, Note_on_c, 10, 78, 0
11, 53700, Note_on_c, 10, 79, 109
11, 53735, Note_on_c, 10, 79, 0
11, 53760, Note_on_c, 10, 78, 109
11, 53820, Note_on_c, 10, 78, 0
11, 53820, Note_on_c, 10, 76, 110
11, 53880, Note_on_c, 10, 76, 0
11, 53880, Note_on_c, 10, 74, 111
11, 53940, Note_on_c, 10, 74, 0
11, 53940, Note_on_c, 10, 73, 111
11, 54000, Note_on_c, 10, 73, 0
11, 54000, Note_on_c, 10, 71, 112
11, 54030, Note_on_c, 10, 71, 0
11, 54030, Note_on_c, 10, 69, 113
11, 54060, Note_on_c, 10, 69, 0
11, 54060, Note_on_c, 10, 81, 113
11, 54095, Note_on_c, 10, 81, 0
11, 54120, Note_on_c, 10, 79, 114
11, 54155, Note_on_c, 10, 79, 0
11, 54180, Note_on_c, 10, 78, 114
11, 54300, Note_on_c, 10, 78, 0
11, 54300, Note_on_c, 10, 76, 116
11, 54420, Note_on_c, 10, 76, 0
11, 54420, Note_on_c, 10, 74, 117
11, 54660, Note_on_c, 10, 74, 0
11, 55140, End_track
12, 0, Start_track
12, 0, MIDI_port, 0
12, 0, Title_t, "Soprano II"
12, 0, Program_c, 11, 52
12, 4500, Control_c, 11, 7, 127
12, 5220, Note_on_c, 11, 74, 76
12, 5255, Note_on_c, 11, 74, 0
12, 5280, Note_on_c, 11, 69, 77
12, 5315, Note_on_c, 11, 69, 0
12, 5340, Note_on_c, 11, 67, 77
12, 5375, Note_on_c, 11, 67, 0
12, 5400, Note_on_c, 11, 66, 78
12, 5460, Note_on_c, 11, 66, 0
12, 5460, Note_on_c, 11, 64, 79
12, 5495, Note_on_c, 11, 64, 0
12, 5520, Note_on_c, 11, 69, 80
12, 5555, Note_on_c, 11, 69, 0
12, 5580, Note_on_c, 11, 73, 81
12, 5615, Note_on_c, 11, 73, 0
12, 5640, Note_on_c, 11, 69, 82
12, 5675, Note_on_c, 11, 69, 0
12, 5700, Note_on_c, 11, 73, 83
12, 5735, Note_on_c, 11, 73, 0
12, 5760, Note_on_c, 11, 74, 84
12, 5795, Note_on_c, 11, 74, 0
12, 5820, Note_on_c, 11, 69, 85
12, 5855, Note_on_c, 11, 69, 0
12, 5880, Note_on_c, 11, 69, 86
12, 5915, Note_on_c, 11, 69, 0
12, 5940, Note_on_c, 11, 69, 87
12, 6060, Note_on_c, 11, 69, 0
12, 6060, Note_on_c, 11, 69, 89
12, 6095, Note_on_c, 11, 69, 0
12, 7740, Note_on_c, 11, 69, 68
12, 7800, Note_on_c, 11, 69, 0
12, 7800, Note_on_c, 11, 64, 68
12, 7860, Note_on_c, 11, 64, 0
12, 7860, Note_on_c, 11, 69, 69
12, 7920, Note_on_c, 11, 69, 0
12, 7920, Note_on_c, 11, 71, 69
12, 7980, Note_on_c, 11, 71, 0
12, 7980, Note_on_c, 11, 73, 70
12, 8010, Note_on_c, 11, 73, 0
12, 8010, Note_on_c, 11, 71, 70
12, 8040, Note_on_c, 11, 71, 0
12, 8040, Note_on_c, 11, 69, 71
12, 8070, Note_on_c, 11, 69, 0
12, 8070, Note_on_c, 11, 71, 71
12, 8100, Note_on_c, 11, 71, 0
12, 8100, Note_on_c, 11, 73, 71
12, 8111, Note_on_c, 11, 73, 0
12, 8160, Note_on_c, 11, 73, 72
12, 8195, Note_on_c, 11, 73, 0
12, 8220, Note_on_c, 11, 71, 72
12, 8255, Note_on_c, 11, 71, 0
12, 8280, Note_on_c, 11, 69, 73
12, 8340, Note_on_c, 11, 69, 0
12, 8340, Note_on_c, 11, 68, 73
12, 8375, Note_on_c, 11, 68, 0
12, 8400, Note_on_c, 11, 69, 74
12, 8460, Note_on_c, 11, 69, 0
12, 8460, Note_on_c, 11, 64, 75
12, 8520, Note_on_c, 11, 64, 0
12, 8520, Note_on_c, 11, 71, 75
12, 8550, Note_on_c, 11, 71, 0
12, 8550, Note_on_c, 11, 69, 76
12, 8580, Note_on_c, 11, 69, 0
12, 8580, Note_on_c, 11, 71, 76
12, 8610, Note_on_c, 11, 71, 0
12, 8610, Note_on_c, 11, 68, 76
12, 8640, Note_on_c, 11, 68, 0
12, 8640, Note_on_c, 11, 64, 76
12, 8675, Note_on_c, 11, 64, 0
12, 8700, Note_on_c, 11, 76, 77
12, 8735, Note_on_c, 11, 76, 0
12, 8760, Note_on_c, 11, 64, 78
12, 8795, Note_on_c, 11, 64, 0
12, 8820, Note_on_c, 11, 71, 78
12, 8855, Note_on_c, 11, 71, 0
12, 8880, Note_on_c, 11, 68, 79
12, 8915, Note_on_c, 11, 68, 0
12, 8940, Note_on_c, 11, 68, 79
12, 8975, Note_on_c, 11, 68, 0
12, 9000, Note_on_c, 11, 73, 40
12, 9390, Note_on_c, 11, 73, 0
12, 9390, Note_on_c, 11, 76, 58
12, 9420, Note_on_c, 11, 76, 0
12, 9420, Note_on_c, 11, 74, 60
12, 9450, Note_on_c, 11, 74, 0
12, 9450, Note_on_c, 11, 73, 61
12, 9480, Note_on_c, 11, 73, 0
12, 9480, Note_on_c, 11, 71, 63
12, 9510, Note_on_c, 11, 71, 0
12, 9510, Note_on_c, 11, 70, 64
12, 9540, Note_on_c, 11, 70, 0
12, 9540, Note_on_c, 11, 71, 66
12, 9575, Note_on_c, 11, 71, 0
12, 9600, Note_on_c, 11, 66, 68
12, 9635, Note_on_c, 11, 66, 0
12, 9960, Note_on_c, 11, 68, 58
12, 9995, Note_on_c, 11, 68, 0
12, 10020, Note_on_c, 11, 68, 60
12, 10055, Note_on_c, 11, 68, 0
12, 10080, Note_on_c, 11, 68, 63
12, 10140, Note_on_c, 11, 68, 0
12, 10140, Note_on_c, 11, 69, 65
12, 10200, Note_on_c, 11, 69, 0
12, 10200, Note_on_c, 11, 64, 67
12, 10235, Note_on_c, 11, 64, 0
12, 10320, Note_on_c, 11, 73, 71
12, 10355, Note_on_c, 11, 73, 0
12, 10380, Note_on_c, 11, 69, 73
12, 10415, Note_on_c, 11, 69, 0
12, 10440, Note_on_c, 11, 78, 64
12, 10500, Note_on_c, 11, 78, 0
12, 10500, Note_on_c, 11, 76, 65
12, 10530, Note_on_c, 11, 76, 0
12, 10530, Note_on_c, 11, 74, 65
12, 10560, Note_on_c, 11, 74, 0
12, 10560, Note_on_c, 11, 73, 66
12, 10590, Note_on_c, 11, 73, 0
12, 10590, Note_on_c, 11, 71, 66
12, 10620, Note_on_c, 11, 71, 0
12, 10620, Note_on_c, 11, 69, 66
12, 10800, Note_on_c, 11, 69, 0
12, 10800, Note_on_c, 11, 68, 69
12, 10920, Note_on_c, 11, 68, 0
12, 11040, Note_on_c, 11, 78, 72
12, 11070, Note_on_c, 11, 78, 0
12, 11070, Note_on_c, 11, 76, 72
12, 11100, Note_on_c, 11, 76, 0
12, 11100, Note_on_c, 11, 78, 72
12, 11130, Note_on_c, 11, 78, 0
12, 11130, Note_on_c, 11, 74, 73
12, 11160, Note_on_c, 11, 74, 0
12, 11160, Note_on_c, 11, 76, 73
12, 11195, Note_on_c, 11, 76, 0
12, 11220, Note_on_c, 11, 64, 74
12, 11250, Note_on_c, 11, 64, 0
12, 11250, Note_on_c, 11, 62, 74
12, 11280, Note_on_c, 11, 62, 0
12, 11280, Note_on_c, 11, 64, 75
12, 11315, Note_on_c, 11, 64, 0
12, 11340, Note_on_c, 11, 66, 75
12, 11375, Note_on_c, 11, 66, 0
12, 11400, Note_on_c, 11, 68, 76
12, 11435, Note_on_c, 11, 68, 0
12, 11460, Note_on_c, 11, 69, 77
12, 11550, Note_on_c, 11, 69, 0
12, 11550, Note_on_c, 11, 71, 78
12, 11580, Note_on_c, 11, 71, 0
12, 11580, Note_on_c, 11, 68, 78
12, 11670, Note_on_c, 11, 68, 0
12, 11670, Note_on_c, 11, 69, 80
12, 11700, Note_on_c, 11, 69, 0
12, 11700, Control_c, 11, 7, 127
12, 11700, Note_on_c, 11, 69, 64
12, 11820, Note_on_c, 11, 69, 0
12, 12420, Control_c, 11, 7, 127
12, 13860, Control_c, 11, 7, 127
12, 13860, Note_on_c, 11, 74, 79
12, 13920, Note_on_c, 11, 74, 0
12, 13920, Note_on_c, 11, 69, 80
12, 13980, Note_on_c, 11, 69, 0
12, 13980, Note_on_c, 11, 74, 81
12, 14040, Note_on_c, 11, 74, 0
12, 14040, Note_on_c, 11, 76, 82
12, 14100, Note_on_c, 11, 76, 0
12, 14100, Note_on_c, 11, 78, 83
12, 14130, Note_on_c, 11, 78, 0
12, 14130, Note_on_c, 11, 76, 84
12, 14160, Note_on_c, 11, 76, 0
12, 14160, Note_on_c, 11, 74, 85
12, 14190, Note_on_c, 11, 74, 0
12, 14190, Note_on_c, 11, 76, 85
12, 14220, Note_on_c, 11, 76, 0
12, 14220, Note_on_c, 11, 78, 86
12, 14255, Note_on_c, 11, 78, 0
12, 14580, Note_on_c, 11, 74, 79
12, 14615, Note_on_c, 11, 74, 0
12, 14640, Note_on_c, 11, 69, 80
12, 14675, Note_on_c, 11, 69, 0
12, 14700, Note_on_c, 11, 67, 81
12, 14735, Note_on_c, 11, 67, 0
12, 14760, Note_on_c, 11, 66, 83
12, 14850, Note_on_c, 11, 66, 0
12, 14850, Note_on_c, 11, 67, 85
12, 14880, Note_on_c, 11, 67, 0
12, 14880, Note_on_c, 11, 69, 85
12, 14910, Note_on_c, 11, 69, 0
12, 14910, Note_on_c, 11, 71, 86
12, 14940, Note_on_c, 11, 71, 0
12, 14940, Note_on_c, 11, 73, 86
12, 14975, Note_on_c, 11, 73, 0
12, 15360, Note_on_c, 11, 64, 42
12, 15395, Note_on_c, 11, 64, 0
12, 15420, Note_on_c, 11, 64, 44
12, 15455, Note_on_c, 11, 64, 0
12, 15480, Note_on_c, 11, 69, 46
12, 15870, Note_on_c, 11, 69, 0
12, 15870, Note_on_c, 11, 72, 59
12, 15900, Note_on_c, 11, 72, 0
12, 15900, Note_on_c, 11, 71, 60
12, 15930, Note_on_c, 11, 71, 0
12, 15930, Note_on_c, 11, 69, 61
12, 15960, Note_on_c, 11, 69, 0
12, 15960, Note_on_c, 11, 67, 62
12, 15990, Note_on_c, 11, 67, 0
12, 15990, Note_on_c, 11, 66, 63
12, 16020, Note_on_c, 11, 66, 0
12, 16020, Note_on_c, 11, 67, 64
12, 16055, Note_on_c, 11, 67, 0
12, 16080, Note_on_c, 11, 64, 66
12, 16115, Note_on_c, 11, 64, 0
12, 16440, Note_on_c, 11, 64, 64
12, 16475, Note_on_c, 11, 64, 0
12, 16500, Note_on_c, 11, 64, 64
12, 16535, Note_on_c, 11, 64, 0
12, 16560, Note_on_c, 11, 69, 64
12, 16740, Control_c, 11, 7, 127
12, 16770, Note_on_c, 11, 69, 0
12, 16770, Note_on_c, 11, 62, 77
12, 16800, Note_on_c, 11, 62, 0
12, 16800, Note_on_c, 11, 66, 77
12, 16830, Note_on_c, 11, 66, 0
12, 16830, Note_on_c, 11, 69, 78
12, 16860, Note_on_c, 11, 69, 0
12, 16860, Note_on_c, 11, 74, 78
12, 16980, Note_on_c, 11, 74, 0
12, 16980, Note_on_c, 11, 73, 80
12, 17010, Note_on_c, 11, 73, 0
12, 17010, Note_on_c, 11, 71, 81
12, 17040, Note_on_c, 11, 71, 0
12, 17040, Note_on_c, 11, 73, 81
12, 17075, Note_on_c, 11, 73, 0
12, 17100, Note_on_c, 11, 66, 82
12, 17160, Note_on_c, 11, 66, 0
12, 17160, Note_on_c, 11, 71, 83
12, 17340, Note_on_c, 11, 71, 0
12, 17340, Note_on_c, 11, 69, 86
12, 17370, Note_on_c, 11, 69, 0
12, 17370, Note_on_c, 11, 67, 87
12, 17400, Note_on_c, 11, 67, 0
12, 17400, Note_on_c, 11, 69, 87
12, 17435, Note_on_c, 11, 69, 0
12, 17520, Note_on_c, 11, 71, 89
12, 17550, Note_on_c, 11, 71, 0
12, 17550, Note_on_c, 11, 69, 90
12, 17580, Note_on_c, 11, 69, 0
12, 17580, Note_on_c, 11, 71, 90
12, 17610, Note_on_c, 11, 71, 0
12, 17610, Note_on_c, 11, 67, 91
12, 17640, Note_on_c, 11, 67, 0
12, 17640, Note_on_c, 11, 69, 91
12, 17700, Note_on_c, 11, 69, 0
12, 17700, Note_on_c, 11, 69, 92
12, 17730, Note_on_c, 11, 69, 0
12, 17730, Note_on_c, 11, 67, 93
12, 17760, Note_on_c, 11, 67, 0
12, 17760, Note_on_c, 11, 69, 93
12, 17795, Note_on_c, 11, 69, 0
12, 17820, Note_on_c, 11, 71, 94
12, 17855, Note_on_c, 11, 71, 0
12, 17880, Note_on_c, 11, 73, 95
12, 17915, Note_on_c, 11, 73, 0
12, 17940, Note_on_c, 11, 74, 96
12, 18030, Note_on_c, 11, 74, 0
12, 18030, Note_on_c, 11, 76, 98
12, 18060, Note_on_c, 11, 76, 0
12, 18060, Note_on_c, 11, 73, 98
12, 18150, Note_on_c, 11, 73, 0
12, 18150, Note_on_c, 11, 74, 100
12, 18180, Note_on_c, 11, 74, 0
12, 18180, Note_on_c, 11, 74, 110
12, 18300, Note_on_c, 11, 74, 0
12, 18360, Note_on_c, 11, 66, 40
12, 18480, Note_on_c, 11, 66, 0
12, 18480, Note_on_c, 11, 67, 40
12, 18515, Note_on_c, 11, 67, 0
12, 18540, Note_on_c, 11, 67, 40
12, 18600, Note_on_c, 11, 67, 0
12, 18600, Note_on_c, 11, 69, 40
12, 18635, Note_on_c, 11, 69, 0
12, 18660, Note_on_c, 11, 69, 30
12, 18720, Note_on_c, 11, 69, 0
12, 18720, Note_on_c, 11, 67, 31
12, 18755, Note_on_c, 11, 67, 0
12, 18780, Note_on_c, 11, 69, 32
12, 18840, Note_on_c, 11, 69, 0
12, 18840, Note_on_c, 11, 71, 33
12, 18875, Note_on_c, 11, 71, 0
12, 18900, Note_on_c, 11, 67, 34
12, 19020, Note_on_c, 11, 67, 0
12, 19800, Note_on_c, 11, 66, 50
12, 19920, Note_on_c, 11, 66, 0
12, 19920, Note_on_c, 11, 67, 52
12, 19955, Note_on_c, 11, 67, 0
12, 19980, Note_on_c, 11, 67, 53
12, 20040, Note_on_c, 11, 67, 0
12, 20040, Note_on_c, 11, 69, 54
12, 20075, Note_on_c, 11, 69, 0
12, 20100, Note_on_c, 11, 69, 56
12, 20160, Note_on_c, 11, 69, 0
12, 20160, Note_on_c, 11, 67, 57
12, 20195, Note_on_c, 11, 67, 0
12, 20220, Note_on_c, 11, 69, 58
12, 20280, Note_on_c, 11, 69, 0
12, 20280, Note_on_c, 11, 71, 59
12, 20315, Note_on_c, 11, 71, 0
12, 20340, Note_on_c, 11, 67, 60
12, 20460, Note_on_c, 11, 67, 0
12, 20700, Note_on_c, 11, 71, 64
12, 20940, Note_on_c, 11, 71, 0
12, 20940, Note_on_c, 11, 69, 64
12, 21060, Note_on_c, 11, 69, 0
12, 21060, Note_on_c, 11, 67, 64
12, 21120, Note_on_c, 11, 67, 0
12, 21120, Note_on_c, 11, 66, 64
12, 21155, Note_on_c, 11, 66, 0
12, 21180, Note_on_c, 11, 66, 64
12, 21300, Note_on_c, 11, 66, 0
12, 21720, Note_on_c, 11, 71, 65
12, 21840, Note_on_c, 11, 71, 0
12, 21840, Note_on_c, 11, 64, 66
12, 21875, Note_on_c, 11, 64, 0
12, 21900, Note_on_c, 11, 64, 66
12, 21960, Note_on_c, 11, 64, 0
12, 21960, Note_on_c, 11, 66, 67
12, 21995, Note_on_c, 11, 66, 0
12, 22020, Note_on_c, 11, 66, 67
12, 22080, Note_on_c, 11, 66, 0
12, 22080, Note_on_c, 11, 64, 67
12, 22115, Note_on_c, 11, 64, 0
12, 22140, Note_on_c, 11, 66, 68
12, 22200, Note_on_c, 11, 66, 0
12, 22200, Note_on_c, 11, 67, 68
12, 22235, Note_on_c, 11, 67, 0
12, 22260, Note_on_c, 11, 64, 69
12, 22320, Note_on_c, 11, 64, 0
12, 22320, Note_on_c, 11, 66, 69
12, 22355, Note_on_c, 11, 66, 0
12, 22380, Note_on_c, 11, 66, 69
12, 22440, Note_on_c, 11, 66, 0
12, 22440, Note_on_c, 11, 67, 70
12, 22475, Note_on_c, 11, 67, 0
12, 22500, Note_on_c, 11, 67, 64
12, 22560, Note_on_c, 11, 67, 0
12, 22560, Note_on_c, 11, 66, 64
12, 22595, Note_on_c, 11, 66, 0
12, 22620, Note_on_c, 11, 67, 64
12, 22680, Note_on_c, 11, 67, 0
12, 22680, Note_on_c, 11, 69, 64
12, 22715, Note_on_c, 11, 69, 0
12, 22740, Note_on_c, 11, 66, 64
12, 22860, Note_on_c, 11, 66, 0
12, 23160, Note_on_c, 11, 67, 68
12, 23280, Note_on_c, 11, 67, 0
12, 23280, Note_on_c, 11, 68, 71
12, 23315, Note_on_c, 11, 68, 0
12, 23340, Note_on_c, 11, 68, 72
12, 23400, Note_on_c, 11, 68, 0
12, 23400, Note_on_c, 11, 69, 74
12, 23435, Note_on_c, 11, 69, 0
12, 23460, Note_on_c, 11, 69, 75
12, 23520, Note_on_c, 11, 69, 0
12, 23520, Note_on_c, 11, 71, 75
12, 23580, Note_on_c, 11, 71, 0
12, 23580, Note_on_c, 11, 71, 75
12, 23640, Note_on_c, 11, 71, 0
12, 23640, Note_on_c, 11, 72, 75
12, 23700, Note_on_c, 11, 72, 0
12, 23700, Note_on_c, 11, 66, 75
12, 23760, Note_on_c, 11, 66, 0
12, 23760, Note_on_c, 11, 67, 75
12, 23790, Note_on_c, 11, 67, 0
12, 23790, Note_on_c, 11, 69, 75
12, 23820, Note_on_c, 11, 69, 0
12, 23820, Note_on_c, 11, 67, 75
12, 23880, Note_on_c, 11, 67, 0
12, 23880, Note_on_c, 11, 64, 75
12, 23940, Note_on_c, 11, 64, 0
12, 23940, Note_on_c, 11, 64, 67
12, 24060, Note_on_c, 11, 64, 0
12, 24060, Note_on_c, 11, 63, 60
12, 24180, Note_on_c, 11, 63, 0
12, 24180, Note_on_c, 11, 64, 53
12, 24300, Note_on_c, 11, 64, 0
12, 34440, Note_on_c, 11, 71, 30
12, 34560, Note_on_c, 11, 71, 0
12, 34560, Note_on_c, 11, 72, 36
12, 34595, Note_on_c, 11, 72, 0
12, 34620, Note_on_c, 11, 72, 37
12, 34680, Note_on_c, 11, 72, 0
12, 34680, Note_on_c, 11, 74, 38
12, 34715, Note_on_c, 11, 74, 0
12, 34740, Note_on_c, 11, 74, 39
12, 34800, Note_on_c, 11, 74, 0
12, 34800, Note_on_c, 11, 72, 40
12, 34835, Note_on_c, 11, 72, 0
12, 34860, Note_on_c, 11, 74, 40
12, 34920, Note_on_c, 11, 74, 0
12, 34920, Note_on_c, 11, 76, 41
12, 34980, Note_on_c, 11, 76, 0
12, 34980, Note_on_c, 11, 72, 42
12, 35015, Note_on_c, 11, 72, 0
12, 35040, Note_on_c, 11, 71, 43
12, 35100, Note_on_c, 11, 71, 0
12, 35100, Note_on_c, 11, 69, 44
12, 35160, Note_on_c, 11, 69, 0
12, 35160, Note_on_c, 11, 67, 45
12, 35220, Note_on_c, 11, 67, 0
12, 35220, Note_on_c, 11, 66, 46
12, 35255, Note_on_c, 11, 66, 0
12, 35280, Note_on_c, 11, 76, 47
12, 35310, Note_on_c, 11, 76, 0
12, 35310, Note_on_c, 11, 75, 47
12, 35340, Note_on_c, 11, 75, 0
12, 35340, Note_on_c, 11, 76, 48
12, 35400, Note_on_c, 11, 76, 0
12, 35400, Note_on_c, 11, 69, 49
12, 35460, Note_on_c, 11, 69, 0
12, 35460, Note_on_c, 11, 67, 50
12, 35580, Note_on_c, 11, 67, 0
12, 35580, Note_on_c, 11, 66, 51
12, 35700, Note_on_c, 11, 66, 0
12, 35700, Note_on_c, 11, 64, 53
12, 35771, Note_on_c, 11, 64, 0
12, 35880, Note_on_c, 11, 71, 56
12, 36000, Note_on_c, 11, 71, 0
12, 36000, Note_on_c, 11, 71, 58
12, 36060, Note_on_c, 11, 71, 0
12, 36060, Note_on_c, 11, 70, 59
12, 36120, Note_on_c, 11, 70, 0
12, 36120, Note_on_c, 11, 70, 59
12, 36180, Note_on_c, 11, 70, 0
12, 36180, Note_on_c, 11, 71, 60
12, 36240, Note_on_c, 11, 71, 0
12, 36240, Note_on_c, 11, 66, 61
12, 36300, Note_on_c, 11, 66, 0
12, 36600, Note_on_c, 11, 73, 65
12, 36720, Note_on_c, 11, 73, 0
12, 36720, Note_on_c, 11, 69, 66
12, 36755, Note_on_c, 11, 69, 0
12, 36780, Note_on_c, 11, 69, 67
12, 36840, Note_on_c, 11, 69, 0
12, 36840, Note_on_c, 11, 68, 67
12, 36875, Note_on_c, 11, 68, 0
12, 36900, Note_on_c, 11, 66, 68
12, 37020, Note_on_c, 11, 66, 0
12, 37020, Note_on_c, 11, 66, 68
12, 37140, Note_on_c, 11, 66, 0
12, 37140, Note_on_c, 11, 66, 69
12, 37260, Note_on_c, 11, 66, 0
12, 37560, Note_on_c, 11, 71, 72
12, 37680, Note_on_c, 11, 71, 0
12, 37680, Note_on_c, 11, 69, 73
12, 37715, Note_on_c, 11, 69, 0
12, 37740, Note_on_c, 11, 68, 74
12, 37800, Note_on_c, 11, 68, 0
12, 37800, Note_on_c, 11, 66, 74
12, 37835, Note_on_c, 11, 66, 0
12, 37860, Note_on_c, 11, 64, 75
12, 37980, Note_on_c, 11, 64, 0
12, 37980, Note_on_c, 11, 64, 75
12, 38100, Note_on_c, 11, 64, 0
12, 38100, Note_on_c, 11, 64, 76
12, 38220, Note_on_c, 11, 64, 0
12, 38520, Note_on_c, 11, 73, 65
12, 38580, Note_on_c, 11, 73, 0
12, 38580, Note_on_c, 11, 74, 65
12, 38640, Note_on_c, 11, 74, 0
12, 38640, Note_on_c, 11, 76, 65
12, 38675, Note_on_c, 11, 76, 0
12, 38700, Note_on_c, 11, 76, 66
12, 38760, Note_on_c, 11, 76, 0
12, 38760, Note_on_c, 11, 78, 66
12, 38795, Note_on_c, 11, 78, 0
12, 38820, Note_on_c, 11, 69, 66
12, 38880, Note_on_c, 11, 69, 0
12, 38880, Note_on_c, 11, 67, 66
12, 38915, Note_on_c, 11, 67, 0
12, 38940, Note_on_c, 11, 69, 67
12, 39000, Note_on_c, 11, 69, 0
12, 39000, Note_on_c, 11, 71, 67
12, 39060, Note_on_c, 11, 71, 0
12, 39060, Note_on_c, 11, 67, 67
12, 39095, Note_on_c, 11, 67, 0
12, 39120, Note_on_c, 11, 71, 67
12, 39180, Note_on_c, 11, 71, 0
12, 39180, Note_on_c, 11, 76, 68
12, 39240, Note_on_c, 11, 76, 0
12, 39240, Note_on_c, 11, 78, 68
12, 39270, Note_on_c, 11, 78, 0
12, 39270, Note_on_c, 11, 79, 68
12, 39300, Note_on_c, 11, 79, 0
12, 39300, Note_on_c, 11, 73, 68
12, 39335, Note_on_c, 11, 73, 0
12, 39360, Note_on_c, 11, 74, 68
12, 39390, Note_on_c, 11, 74, 0
12, 39390, Note_on_c, 11, 76, 68
12, 39420, Note_on_c, 11, 76, 0
12, 39420, Note_on_c, 11, 74, 69
12, 39600, Note_on_c, 11, 74, 0
12, 39600, Note_on_c, 11, 76, 69
12, 39630, Note_on_c, 11, 76, 0
12, 39630, Note_on_c, 11, 78, 69
12, 39660, Note_on_c, 11, 78, 0
12, 39660, Note_on_c, 11, 69, 70
12, 39720, Note_on_c, 11, 69, 0
12, 39720, Note_on_c, 11, 73, 70
12, 39780, Note_on_c, 11, 73, 0
12, 39780, Note_on_c, 11, 74, 64
12, 39815, Note_on_c, 11, 74, 0
12, 39840, Note_on_c, 11, 74, 64
12, 39870, Note_on_c, 11, 74, 0
12, 39870, Note_on_c, 11, 73, 64
12, 39900, Note_on_c, 11, 73, 0
12, 39900, Note_on_c, 11, 74, 64
12, 39960, Note_on_c, 11, 74, 0
12, 39960, Note_on_c, 11, 69, 64
12, 40020, Note_on_c, 11, 69, 0
12, 40020, Note_on_c, 11, 69, 64
12, 40080, Note_on_c, 11, 69, 0
12, 40080, Note_on_c, 11, 68, 64
12, 40110, Note_on_c, 11, 68, 0
12, 40110, Note_on_c, 11, 66, 64
12, 40140, Note_on_c, 11, 66, 0
12, 40140, Note_on_c, 11, 68, 64
12, 40260, Note_on_c, 11, 68, 0
12, 40260, Note_on_c, 11, 69, 64
12, 40380, Note_on_c, 11, 69, 0
12, 45240, Note_on_c, 11, 69, 70
12, 45360, Note_on_c, 11, 69, 0
12, 45360, Note_on_c, 11, 71, 71
12, 45395, Note_on_c, 11, 71, 0
12, 45420, Note_on_c, 11, 71, 71
12, 45480, Note_on_c, 11, 71, 0
12, 45480, Note_on_c, 11, 72, 72
12, 45515, Note_on_c, 11, 72, 0
12, 45540, Note_on_c, 11, 72, 72
12, 45600, Note_on_c, 11, 72, 0
12, 45600, Note_on_c, 11, 71, 73
12, 45635, Note_on_c, 11, 71, 0
12, 45660, Note_on_c, 11, 72, 73
12, 45720, Note_on_c, 11, 72, 0
12, 45720, Note_on_c, 11, 74, 74
12, 45755, Note_on_c, 11, 74, 0
12, 45780, Note_on_c, 11, 71, 74
12, 45840, Note_on_c, 11, 71, 0
12, 45840, Note_on_c, 11, 69, 75
12, 45875, Note_on_c, 11, 69, 0
12, 45900, Note_on_c, 11, 67, 75
12, 45960, Note_on_c, 11, 67, 0
12, 45960, Note_on_c, 11, 66, 76
12, 45995, Note_on_c, 11, 66, 0
12, 46020, Note_on_c, 11, 64, 76
12, 46080, Note_on_c, 11, 64, 0
12, 46080, Note_on_c, 11, 64, 77
12, 46110, Note_on_c, 11, 64, 0
12, 46110, Note_on_c, 11, 64, 77
12, 46140, Note_on_c, 11, 64, 0
12, 46140, Note_on_c, 11, 69, 77
12, 46200, Note_on_c, 11, 69, 0
12, 46200, Note_on_c, 11, 67, 78
12, 46235, Note_on_c, 11, 67, 0
12, 46260, Note_on_c, 11, 66, 78
12, 46380, Note_on_c, 11, 66, 0
12, 46380, Note_on_c, 11, 64, 79
12, 46500, Note_on_c, 11, 64, 0
12, 46500, Note_on_c, 11, 62, 85
12, 46620, Note_on_c, 11, 62, 0
12, 47580, Note_on_c, 11, 71, 66
12, 47760, Note_on_c, 11, 71, 0
12, 47760, Note_on_c, 11, 71, 68
12, 47820, Note_on_c, 11, 71, 0
12, 47820, Note_on_c, 11, 70, 69
12, 47880, Note_on_c, 11, 70, 0
12, 47880, Note_on_c, 11, 70, 69
12, 47940, Note_on_c, 11, 70, 0
12, 47940, Note_on_c, 11, 71, 70
12, 48000, Note_on_c, 11, 71, 0
12, 48000, Note_on_c, 11, 66, 70
12, 48035, Note_on_c, 11, 66, 0
12, 48060, Note_on_c, 11, 71, 40
12, 48480, Note_on_c, 11, 71, 0
12, 48480, Note_on_c, 11, 69, 33
12, 48515, Note_on_c, 11, 69, 0
12, 48540, Note_on_c, 11, 69, 36
12, 48600, Note_on_c, 11, 69, 0
12, 48600, Note_on_c, 11, 68, 39
12, 48635, Note_on_c, 11, 68, 0
12, 48660, Note_on_c, 11, 68, 43
12, 48720, Note_on_c, 11, 68, 0
12, 48720, Note_on_c, 11, 69, 46
12, 48755, Note_on_c, 11, 69, 0
12, 48780, Note_on_c, 11, 71, 49
12, 48840, Note_on_c, 11, 71, 0
12, 48840, Note_on_c, 11, 68, 52
12, 48875, Note_on_c, 11, 68, 0
12, 48900, Note_on_c, 11, 69, 55
12, 48960, Note_on_c, 11, 69, 0
12, 48960, Note_on_c, 11, 69, 58
12, 49020, Note_on_c, 11, 69, 0
12, 49020, Note_on_c, 11, 69, 61
12, 49080, Note_on_c, 11, 69, 0
12, 49080, Note_on_c, 11, 67, 64
12, 49110, Note_on_c, 11, 67, 0
12, 49110, Note_on_c, 11, 66, 66
12, 49140, Note_on_c, 11, 66, 0
12, 49140, Note_on_c, 11, 64, 68
12, 49260, Note_on_c, 11, 64, 0
12, 49260, Note_on_c, 11, 64, 74
12, 49320, Note_on_c, 11, 64, 0
12, 49380, Note_on_c, 11, 66, 80
12, 49440, Note_on_c, 11, 66, 0
12, 49440, Note_on_c, 11, 67, 80
12, 49475, Note_on_c, 11, 67, 0
12, 49500, Note_on_c, 11, 67, 81
12, 49560, Note_on_c, 11, 67, 0
12, 49560, Note_on_c, 11, 69, 81
12, 49595, Note_on_c, 11, 69, 0
12, 49620, Note_on_c, 11, 69, 81
12, 49680, Note_on_c, 11, 69, 0
12, 49680, Note_on_c, 11, 67, 82
12, 49715, Note_on_c, 11, 67, 0
12, 49740, Note_on_c, 11, 69, 82
12, 49800, Note_on_c, 11, 69, 0
12, 49800, Note_on_c, 11, 66, 82
12, 49835, Note_on_c, 11, 66, 0
12, 49860, Note_on_c, 11, 67, 83
12, 49980, Note_on_c, 11, 67, 0
12, 50100, Note_on_c, 11, 68, 84
12, 50160, Note_on_c, 11, 68, 0
12, 50160, Note_on_c, 11, 69, 84
12, 50195, Note_on_c, 11, 69, 0
12, 50220, Note_on_c, 11, 69, 84
12, 50280, Note_on_c, 11, 69, 0
12, 50280, Note_on_c, 11, 71, 85
12, 50315, Note_on_c, 11, 71, 0
12, 50340, Note_on_c, 11, 71, 85
12, 50400, Note_on_c, 11, 71, 0
12, 50400, Note_on_c, 11, 69, 85
12, 50435, Note_on_c, 11, 69, 0
12, 50460, Note_on_c, 11, 71, 86
12, 50520, Note_on_c, 11, 71, 0
12, 50520, Note_on_c, 11, 68, 86
12, 50555, Note_on_c, 11, 68, 0
12, 50580, Note_on_c, 11, 69, 86
12, 50700, Note_on_c, 11, 69, 0
12, 50820, Note_on_c, 11, 70, 88
12, 50880, Note_on_c, 11, 70, 0
12, 50880, Note_on_c, 11, 71, 88
12, 50915, Note_on_c, 11, 71, 0
12, 50940, Note_on_c, 11, 71, 88
12, 51000, Note_on_c, 11, 71, 0
12, 51000, Note_on_c, 11, 73, 88
12, 51035, Note_on_c, 11, 73, 0
12, 51060, Note_on_c, 11, 73, 89
12, 51120, Note_on_c, 11, 73, 0
12, 51120, Note_on_c, 11, 71, 89
12, 51155, Note_on_c, 11, 71, 0
12, 51180, Note_on_c, 11, 73, 89
12, 51240, Note_on_c, 11, 73, 0
12, 51240, Note_on_c, 11, 70, 90
12, 51275, Note_on_c, 11, 70, 0
12, 51300, Note_on_c, 11, 71, 80
12, 51600, Note_on_c, 11, 71, 0
12, 51600, Note_on_c, 11, 69, 84
12, 51660, Note_on_c, 11, 69, 0
12, 51660, Note_on_c, 11, 69, 84
12, 51720, Note_on_c, 11, 69, 0
12, 51720, Note_on_c, 11, 71, 85
12, 51780, Note_on_c, 11, 71, 0
12, 51780, Note_on_c, 11, 71, 86
12, 51900, Note_on_c, 11, 71, 0
12, 51900, Note_on_c, 11, 69, 87
12, 52020, Note_on_c, 11, 69, 0
12, 52020, Note_on_c, 11, 69, 89
12, 52140, Note_on_c, 11, 69, 0
12, 52140, Note_on_c, 11, 71, 90
12, 52320, Note_on_c, 11, 71, 0
12, 52320, Note_on_c, 11, 73, 92
12, 52350, Note_on_c, 11, 73, 0
12, 52350, Note_on_c, 11, 74, 93
12, 52380, Note_on_c, 11, 74, 0
12, 52380, Note_on_c, 11, 76, 93
12, 52440, Note_on_c, 11, 76, 0
12, 52440, Note_on_c, 11, 74, 94
12, 52500, Note_on_c, 11, 74, 0
12, 52500, Note_on_c, 11, 76, 94
12, 52530, Note_on_c, 11, 76, 0
12, 52530, Note_on_c, 11, 74, 95
12, 52560, Note_on_c, 11, 74, 0
12, 52560, Note_on_c, 11, 76, 95
12, 52590, Note_on_c, 11, 76, 0
12, 52590, Note_on_c, 11, 78, 95
12, 52620, Note_on_c, 11, 78, 0
12, 52620, Note_on_c, 11, 76, 96
12, 52650, Note_on_c, 11, 76, 0
12, 52650, Note_on_c, 11, 78, 96
12, 52680, Note_on_c, 11, 78, 0
12, 52680, Note_on_c, 11, 76, 96
12, 52710, Note_on_c, 11, 76, 0
12, 52710, Note_on_c, 11, 74, 97
12, 52740, Note_on_c, 11, 74, 0
12, 52740, Note_on_c, 11, 73, 97
12, 52800, Note_on_c, 11, 73, 0
12, 52800, Note_on_c, 11, 69, 98
12, 52860, Note_on_c, 11, 69, 0
12, 53160, Note_on_c, 11, 69, 102
12, 53280, Note_on_c, 11, 69, 0
12, 53280, Note_on_c, 11, 71, 104
12, 53315, Note_on_c, 11, 71, 0
12, 53340, Note_on_c, 11, 71, 104
12, 53400, Note_on_c, 11, 71, 0
12, 53400, Note_on_c, 11, 72, 105
12, 53435, Note_on_c, 11, 72, 0
12, 53460, Note_on_c, 11, 72, 106
12, 53520, Note_on_c, 11, 72, 0
12, 53520, Note_on_c, 11, 71, 106
12, 53555, Note_on_c, 11, 71, 0
12, 53580, Note_on_c, 11, 72, 107
12, 53640, Note_on_c, 11, 72, 0
12, 53640, Note_on_c, 11, 74, 108
12, 53675, Note_on_c, 11, 74, 0
12, 53700, Note_on_c, 11, 71, 109
12, 53760, Note_on_c, 11, 71, 0
12, 53760, Note_on_c, 11, 69, 109
12, 53820, Note_on_c, 11, 69, 0
12, 53820, Note_on_c, 11, 67, 110
12, 53880, Note_on_c, 11, 67, 0
12, 53880, Note_on_c, 11, 66, 111
12, 53940, Note_on_c, 11, 66, 0
12, 53940, Note_on_c, 11, 64, 111
12, 53975, Note_on_c, 11, 64, 0
12, 54000, Note_on_c, 11, 74, 112
12, 54030, Note_on_c, 11, 74, 0
12, 54030, Note_on_c, 11, 73, 113
12, 54060, Note_on_c, 11, 73, 0
12, 54060, Note_on_c, 11, 74, 113
12, 54095, Note_on_c, 11, 74, 0
12, 54120, Note_on_c, 11, 74, 114
12, 54155, Note_on_c, 11, 74, 0
12, 54180, Note_on_c, 11, 74, 114
12, 54300, Note_on_c, 11, 74, 0
12, 54300, Note_on_c, 11, 73, 116
12, 54420, Note_on_c, 11, 73, 0
12, 54420, Note_on_c, 11, 74, 117
12, 54660, Note_on_c, 11, 74, 0
12, 55140, End_track
13, 0, Start_track
13, 0, MIDI_port, 0
13, 0, Title_t, "Alto"
13, 0, Program_c, 12, 52
13, 4500, Control_c, 12, 7, 127
13, 4500, Note_on_c, 12, 62, 64
13, 4560, Note_on_c, 12, 62, 0
13, 4560, Note_on_c, 12, 57, 65
13, 4620, Note_on_c, 12, 57, 0
13, 4620, Note_on_c, 12, 62, 66
13, 4680, Note_on_c, 12, 62, 0
13, 4680, Note_on_c, 12, 64, 67
13, 4740, Note_on_c, 12, 64, 0
13, 4740, Note_on_c, 12, 66, 68
13, 4770, Note_on_c, 12, 66, 0
13, 4770, Note_on_c, 12, 64, 68
13, 4800, Note_on_c, 12, 64, 0
13, 4800, Note_on_c, 12, 62, 69
13, 4830, Note_on_c, 12, 62, 0
13, 4830, Note_on_c, 12, 64, 69
13, 4860, Note_on_c, 12, 64, 0
13, 4860, Note_on_c, 12, 66, 70
13, 4895, Note_on_c, 12, 66, 0
13, 4920, Note_on_c, 12, 69, 71
13, 4950, Note_on_c, 12, 69, 0
13, 4950, Note_on_c, 12, 67, 71
13, 4980, Note_on_c, 12, 67, 0
13, 4980, Note_on_c, 12, 69, 72
13, 5010, Note_on_c, 12, 69, 0
13, 5010, Note_on_c, 12, 66, 72
13, 5040, Note_on_c, 12, 66, 0
13, 5040, Note_on_c, 12, 67, 73
13, 5100, Note_on_c, 12, 67, 0
13, 5100, Note_on_c, 12, 69, 74
13, 5135, Note_on_c, 12, 69, 0
13, 5160, Note_on_c, 12, 71, 75
13, 5220, Note_on_c, 12, 71, 0
13, 5220, Note_on_c, 12, 69, 76
13, 5460, Note_on_c, 12, 69, 0
13, 5460, Note_on_c, 12, 71, 79
13, 5490, Note_on_c, 12, 71, 0
13, 5490, Note_on_c, 12, 69, 80
13, 5520, Note_on_c, 12, 69, 0
13, 5520, Note_on_c, 12, 67, 80
13, 5550, Note_on_c, 12, 67, 0
13, 5550, Note_on_c, 12, 66, 81
13, 5580, Note_on_c, 12, 66, 0
13, 5580, Note_on_c, 12, 64, 81
13, 5615, Note_on_c, 12, 64, 0
13, 5640, Note_on_c, 12, 69, 82
13, 5675, Note_on_c, 12, 69, 0
13, 5700, Note_on_c, 12, 67, 83
13, 5735, Note_on_c, 12, 67, 0
13, 5760, Note_on_c, 12, 66, 84
13, 5795, Note_on_c, 12, 66, 0
13, 5820, Note_on_c, 12, 67, 85
13, 5850, Note_on_c, 12, 67, 0
13, 5850, Note_on_c, 12, 66, 86
13, 5880, Note_on_c, 12, 66, 0
13, 5880, Note_on_c, 12, 64, 86
13, 5910, Note_on_c, 12, 64, 0
13, 5910, Note_on_c, 12, 62, 87
13, 5940, Note_on_c, 12, 62, 0
13, 5940, Note_on_c, 12, 69, 87
13, 6060, Note_on_c, 12, 69, 0
13, 6060, Note_on_c, 12, 69, 89
13, 6095, Note_on_c, 12, 69, 0
13, 8100, Note_on_c, 12, 69, 71
13, 8135, Note_on_c, 12, 69, 0
13, 8160, Note_on_c, 12, 64, 72
13, 8195, Note_on_c, 12, 64, 0
13, 8220, Note_on_c, 12, 62, 72
13, 8255, Note_on_c, 12, 62, 0
13, 8280, Note_on_c, 12, 61, 73
13, 8340, Note_on_c, 12, 61, 0
13, 8340, Note_on_c, 12, 59, 73
13, 8375, Note_on_c, 12, 59, 0
13, 8400, Note_on_c, 12, 64, 74
13, 8460, Note_on_c, 12, 64, 0
13, 8460, Note_on_c, 12, 68, 75
13, 8495, Note_on_c, 12, 68, 0
13, 8520, Note_on_c, 12, 64, 75
13, 8555, Note_on_c, 12, 64, 0
13, 8580, Note_on_c, 12, 68, 76
13, 8615, Note_on_c, 12, 68, 0
13, 8640, Note_on_c, 12, 69, 76
13, 8675, Note_on_c, 12, 69, 0
13, 8700, Note_on_c, 12, 64, 77
13, 8735, Note_on_c, 12, 64, 0
13, 8760, Note_on_c, 12, 64, 78
13, 8795, Note_on_c, 12, 64, 0
13, 8820, Note_on_c, 12, 64, 78
13, 8940, Note_on_c, 12, 64, 0
13, 8940, Note_on_c, 12, 64, 79
13, 8975, Note_on_c, 12, 64, 0
13, 9240, Note_on_c, 12, 70, 51
13, 9275, Note_on_c, 12, 70, 0
13, 9300, Note_on_c, 12, 70, 54
13, 9335, Note_on_c, 12, 70, 0
13, 9360, Note_on_c, 12, 70, 57
13, 9420, Note_on_c, 12, 70, 0
13, 9420, Note_on_c, 12, 71, 60
13, 9480, Note_on_c, 12, 71, 0
13, 9480, Note_on_c, 12, 66, 63
13, 9515, Note_on_c, 12, 66, 0
13, 9600, Note_on_c, 12, 66, 68
13, 9635, Note_on_c, 12, 66, 0
13, 9660, Note_on_c, 12, 66, 71
13, 9695, Note_on_c, 12, 66, 0
13, 9720, Note_on_c, 12, 71, 50
13, 10110, Note_on_c, 12, 71, 0
13, 10110, Note_on_c, 12, 74, 64
13, 10140, Note_on_c, 12, 74, 0
13, 10140, Note_on_c, 12, 73, 65
13, 10170, Note_on_c, 12, 73, 0
13, 10170, Note_on_c, 12, 71, 66
13, 10200, Note_on_c, 12, 71, 0
13, 10200, Note_on_c, 12, 69, 67
13, 10230, Note_on_c, 12, 69, 0
13, 10230, Note_on_c, 12, 68, 68
13, 10260, Note_on_c, 12, 68, 0
13, 10260, Note_on_c, 12, 69, 69
13, 10295, Note_on_c, 12, 69, 0
13, 10320, Note_on_c, 12, 64, 71
13, 10355, Note_on_c, 12, 64, 0
13, 10440, Note_on_c, 12, 71, 64
13, 10475, Note_on_c, 12, 71, 0
13, 10500, Note_on_c, 12, 71, 65
13, 10535, Note_on_c, 12, 71, 0
13, 10560, Note_on_c, 12, 68, 66
13, 10595, Note_on_c, 12, 68, 0
13, 10620, Note_on_c, 12, 73, 66
13, 10680, Note_on_c, 12, 73, 0
13, 10680, Note_on_c, 12, 69, 67
13, 10715, Note_on_c, 12, 69, 0
13, 10740, Note_on_c, 12, 66, 68
13, 10775, Note_on_c, 12, 66, 0
13, 10800, Note_on_c, 12, 74, 69
13, 10860, Note_on_c, 12, 74, 0
13, 10860, Note_on_c, 12, 71, 69
13, 10895, Note_on_c, 12, 71, 0
13, 10920, Note_on_c, 12, 73, 70
13, 10955, Note_on_c, 12, 73, 0
13, 10980, Note_on_c, 12, 73, 71
13, 11010, Note_on_c, 12, 73, 0
13, 11010, Note_on_c, 12, 69, 71
13, 11040, Note_on_c, 12, 69, 0
13, 11040, Note_on_c, 12, 66, 72
13, 11075, Note_on_c, 12, 66, 0
13, 11100, Note_on_c, 12, 66, 72
13, 11130, Note_on_c, 12, 66, 0
13, 11130, Note_on_c, 12, 71, 73
13, 11160, Note_on_c, 12, 71, 0
13, 11160, Note_on_c, 12, 71, 73
13, 11220, Note_on_c, 12, 71, 0
13, 11220, Note_on_c, 12, 69, 74
13, 11250, Note_on_c, 12, 69, 0
13, 11250, Note_on_c, 12, 68, 74
13, 11280, Note_on_c, 12, 68, 0
13, 11280, Note_on_c, 12, 69, 75
13, 11550, Note_on_c, 12, 69, 0
13, 11550, Note_on_c, 12, 66, 78
13, 11580, Note_on_c, 12, 66, 0
13, 11580, Note_on_c, 12, 64, 78
13, 11700, Note_on_c, 12, 64, 0
13, 11700, Control_c, 12, 7, 127
13, 11700, Note_on_c, 12, 64, 64
13, 11820, Note_on_c, 12, 64, 0
13, 12420, Control_c, 12, 7, 127
13, 12780, Note_on_c, 12, 71, 48
13, 12840, Note_on_c, 12, 71, 0
13, 12840, Note_on_c, 12, 64, 49
13, 12900, Note_on_c, 12, 64, 0
13, 12900, Note_on_c, 12, 71, 50
13, 12960, Note_on_c, 12, 71, 0
13, 12960, Note_on_c, 12, 73, 51
13, 13020, Note_on_c, 12, 73, 0
13, 13020, Note_on_c, 12, 74, 53
13, 13050, Note_on_c, 12, 74, 0
13, 13050, Note_on_c, 12, 73, 53
13, 13080, Note_on_c, 12, 73, 0
13, 13080, Note_on_c, 12, 71, 54
13, 13110, Note_on_c, 12, 71, 0
13, 13110, Note_on_c, 12, 73, 54
13, 13140, Note_on_c, 12, 73, 0
13, 13140, Note_on_c, 12, 74, 55
13, 13380, Note_on_c, 12, 74, 0
13, 13380, Note_on_c, 12, 73, 60
13, 13410, Note_on_c, 12, 73, 0
13, 13410, Note_on_c, 12, 71, 61
13, 13440, Note_on_c, 12, 71, 0
13, 13440, Note_on_c, 12, 69, 61
13, 13470, Note_on_c, 12, 69, 0
13, 13470, Note_on_c, 12, 67, 62
13, 13500, Note_on_c, 12, 67, 0
13, 13500, Note_on_c, 12, 66, 63
13, 13535, Note_on_c, 12, 66, 0
13, 13560, Note_on_c, 12, 62, 64
13, 13595, Note_on_c, 12, 62, 0
13, 13620, Note_on_c, 12, 69, 65
13, 13655, Note_on_c, 12, 69, 0
13, 13680, Note_on_c, 12, 71, 66
13, 13740, Note_on_c, 12, 71, 0
13, 13740, Note_on_c, 12, 69, 68
13, 13775, Note_on_c, 12, 69, 0
13, 13800, Note_on_c, 12, 69, 69
13, 13835, Note_on_c, 12, 69, 0
13, 13860, Control_c, 12, 7, 127
13, 13860, Note_on_c, 12, 69, 79
13, 13920, Note_on_c, 12, 69, 0
13, 13920, Note_on_c, 12, 66, 80
13, 13980, Note_on_c, 12, 66, 0
13, 13980, Note_on_c, 12, 69, 81
13, 14040, Note_on_c, 12, 69, 0
13, 14040, Note_on_c, 12, 64, 82
13, 14100, Note_on_c, 12, 64, 0
13, 14100, Note_on_c, 12, 69, 83
13, 14135, Note_on_c, 12, 69, 0
13, 14160, Note_on_c, 12, 69, 85
13, 14195, Note_on_c, 12, 69, 0
13, 14220, Note_on_c, 12, 69, 86
13, 14255, Note_on_c, 12, 69, 0
13, 14580, Note_on_c, 12, 69, 79
13, 14820, Note_on_c, 12, 69, 0
13, 14820, Note_on_c, 12, 71, 84
13, 14850, Note_on_c, 12, 71, 0
13, 14850, Note_on_c, 12, 69, 85
13, 14880, Note_on_c, 12, 69, 0
13, 14880, Note_on_c, 12, 67, 85
13, 14910, Note_on_c, 12, 67, 0
13, 14910, Note_on_c, 12, 66, 86
13, 14940, Note_on_c, 12, 66, 0
13, 14940, Note_on_c, 12, 64, 86
13, 14975, Note_on_c, 12, 64, 0
13, 15720, Note_on_c, 12, 66, 54
13, 15755, Note_on_c, 12, 66, 0
13, 15780, Note_on_c, 12, 66, 56
13, 15815, Note_on_c, 12, 66, 0
13, 15840, Note_on_c, 12, 71, 58
13, 16050, Note_on_c, 12, 71, 0
13, 16050, Note_on_c, 12, 69, 41
13, 16080, Note_on_c, 12, 69, 0
13, 16080, Note_on_c, 12, 71, 43
13, 16110, Note_on_c, 12, 71, 0
13, 16110, Note_on_c, 12, 72, 44
13, 16140, Note_on_c, 12, 72, 0
13, 16140, Note_on_c, 12, 71, 45
13, 16170, Note_on_c, 12, 71, 0
13, 16170, Note_on_c, 12, 69, 46
13, 16200, Note_on_c, 12, 69, 0
13, 16200, Note_on_c, 12, 67, 48
13, 16590, Note_on_c, 12, 67, 0
13, 16590, Note_on_c, 12, 71, 64
13, 16620, Note_on_c, 12, 71, 0
13, 16620, Note_on_c, 12, 69, 65
13, 16650, Note_on_c, 12, 69, 0
13, 16650, Note_on_c, 12, 67, 66
13, 16680, Note_on_c, 12, 67, 0
13, 16680, Note_on_c, 12, 66, 68
13, 16710, Note_on_c, 12, 66, 0
13, 16710, Note_on_c, 12, 64, 69
13, 16740, Note_on_c, 12, 64, 0
13, 16740, Control_c, 12, 7, 127
13, 16740, Note_on_c, 12, 66, 76
13, 16775, Note_on_c, 12, 66, 0
13, 16800, Note_on_c, 12, 62, 77
13, 16835, Note_on_c, 12, 62, 0
13, 17100, Note_on_c, 12, 66, 82
13, 17135, Note_on_c, 12, 66, 0
13, 17160, Note_on_c, 12, 66, 83
13, 17195, Note_on_c, 12, 66, 0
13, 17220, Note_on_c, 12, 62, 84
13, 17255, Note_on_c, 12, 62, 0
13, 17280, Note_on_c, 12, 64, 85
13, 17315, Note_on_c, 12, 64, 0
13, 17340, Note_on_c, 12, 73, 86
13, 17370, Note_on_c, 12, 73, 0
13, 17370, Note_on_c, 12, 71, 87
13, 17400, Note_on_c, 12, 71, 0
13, 17400, Note_on_c, 12, 69, 87
13, 17435, Note_on_c, 12, 69, 0
13, 17460, Note_on_c, 12, 71, 88
13, 17580, Note_on_c, 12, 71, 0
13, 17580, Note_on_c, 12, 67, 90
13, 17615, Note_on_c, 12, 67, 0
13, 17640, Note_on_c, 12, 64, 91
13, 17700, Note_on_c, 12, 64, 0
13, 17700, Note_on_c, 12, 69, 92
13, 17735, Note_on_c, 12, 69, 0
13, 17760, Note_on_c, 12, 66, 93
13, 17795, Note_on_c, 12, 66, 0
13, 17820, Note_on_c, 12, 67, 94
13, 17850, Note_on_c, 12, 67, 0
13, 17850, Note_on_c, 12, 66, 95
13, 17880, Note_on_c, 12, 66, 0
13, 17880, Note_on_c, 12, 64, 95
13, 17910, Note_on_c, 12, 64, 0
13, 17910, Note_on_c, 12, 62, 96
13, 17940, Note_on_c, 12, 62, 0
13, 17940, Note_on_c, 12, 71, 96
13, 17970, Note_on_c, 12, 71, 0
13, 17970, Note_on_c, 12, 73, 97
13, 18000, Note_on_c, 12, 73, 0
13, 18000, Note_on_c, 12, 74, 97
13, 18030, Note_on_c, 12, 74, 0
13, 18030, Note_on_c, 12, 67, 98
13, 18060, Note_on_c, 12, 67, 0
13, 18060, Note_on_c, 12, 64, 98
13, 18180, Note_on_c, 12, 64, 0
13, 18180, Note_on_c, 12, 66, 110
13, 18300, Note_on_c, 12, 66, 0
13, 18360, Note_on_c, 12, 69, 40
13, 18480, Note_on_c, 12, 69, 0
13, 18480, Note_on_c, 12, 67, 40
13, 18515, Note_on_c, 12, 67, 0
13, 18540, Note_on_c, 12, 67, 40
13, 18660, Note_on_c, 12, 67, 0
13, 18660, Note_on_c, 12, 67, 30
13, 18780, Note_on_c, 12, 67, 0
13, 18780, Note_on_c, 12, 66, 32
13, 18900, Note_on_c, 12, 66, 0
13, 18900, Note_on_c, 12, 67, 34
13, 19020, Note_on_c, 12, 67, 0
13, 19800, Note_on_c, 12, 60, 50
13, 19920, Note_on_c, 12, 60, 0
13, 19920, Note_on_c, 12, 62, 52
13, 19955, Note_on_c, 12, 62, 0
13, 19980, Note_on_c, 12, 62, 53
13, 20040, Note_on_c, 12, 62, 0
13, 20040, Note_on_c, 12, 66, 54
13, 20075, Note_on_c, 12, 66, 0
13, 20100, Note_on_c, 12, 66, 56
13, 20160, Note_on_c, 12, 66, 0
13, 20160, Note_on_c, 12, 67, 57
13, 20195, Note_on_c, 12, 67, 0
13, 20220, Note_on_c, 12, 66, 58
13, 20280, Note_on_c, 12, 66, 0
13, 20280, Note_on_c, 12, 64, 59
13, 20315, Note_on_c, 12, 64, 0
13, 20340, Note_on_c, 12, 62, 60
13, 20460, Note_on_c, 12, 62, 0
13, 20460, Note_on_c, 12, 67, 62
13, 20580, Note_on_c, 12, 67, 0
13, 20580, Note_on_c, 12, 66, 64
13, 20700, Note_on_c, 12, 66, 0
13, 20700, Note_on_c, 12, 66, 64
13, 20820, Note_on_c, 12, 66, 0
13, 20820, Note_on_c, 12, 64, 64
13, 20940, Note_on_c, 12, 64, 0
13, 20940, Note_on_c, 12, 64, 64
13, 21060, Note_on_c, 12, 64, 0
13, 21060, Note_on_c, 12, 71, 64
13, 21150, Note_on_c, 12, 71, 0
13, 21150, Note_on_c, 12, 71, 64
13, 21180, Note_on_c, 12, 71, 0
13, 21180, Note_on_c, 12, 71, 64
13, 21215, Note_on_c, 12, 71, 0
13, 21240, Note_on_c, 12, 66, 64
13, 21360, Note_on_c, 12, 66, 0
13, 21360, Note_on_c, 12, 67, 64
13, 21395, Note_on_c, 12, 67, 0
13, 21420, Note_on_c, 12, 67, 64
13, 21480, Note_on_c, 12, 67, 0
13, 21480, Note_on_c, 12, 69, 64
13, 21515, Note_on_c, 12, 69, 0
13, 21540, Note_on_c, 12, 69, 64
13, 21600, Note_on_c, 12, 69, 0
13, 21600, Note_on_c, 12, 67, 64
13, 21635, Note_on_c, 12, 67, 0
13, 21660, Note_on_c, 12, 69, 65
13, 21720, Note_on_c, 12, 69, 0
13, 21720, Note_on_c, 12, 71, 65
13, 21755, Note_on_c, 12, 71, 0
13, 21780, Note_on_c, 12, 67, 66
13, 21900, Note_on_c, 12, 67, 0
13, 22020, Note_on_c, 12, 66, 67
13, 22140, Note_on_c, 12, 66, 0
13, 22260, Note_on_c, 12, 67, 69
13, 22380, Note_on_c, 12, 67, 0
13, 22380, Note_on_c, 12, 66, 69
13, 22440, Note_on_c, 12, 66, 0
13, 22440, Note_on_c, 12, 64, 70
13, 22500, Note_on_c, 12, 64, 0
13, 22500, Note_on_c, 12, 64, 64
13, 22560, Note_on_c, 12, 64, 0
13, 22560, Note_on_c, 12, 72, 64
13, 22680, Note_on_c, 12, 72, 0
13, 22680, Note_on_c, 12, 69, 64
13, 22740, Note_on_c, 12, 69, 0
13, 22740, Note_on_c, 12, 71, 64
13, 22860, Note_on_c, 12, 71, 0
13, 22920, Note_on_c, 12, 71, 64
13, 23040, Note_on_c, 12, 71, 0
13, 23040, Note_on_c, 12, 69, 65
13, 23075, Note_on_c, 12, 69, 0
13, 23100, Note_on_c, 12, 69, 67
13, 23160, Note_on_c, 12, 69, 0
13, 23160, Note_on_c, 12, 67, 68
13, 23195, Note_on_c, 12, 67, 0
13, 23220, Note_on_c, 12, 67, 70
13, 23280, Note_on_c, 12, 67, 0
13, 23280, Note_on_c, 12, 71, 71
13, 23340, Note_on_c, 12, 71, 0
13, 23340, Note_on_c, 12, 68, 72
13, 23400, Note_on_c, 12, 68, 0
13, 23400, Note_on_c, 12, 64, 74
13, 23460, Note_on_c, 12, 64, 0
13, 23460, Note_on_c, 12, 76, 75
13, 23520, Note_on_c, 12, 76, 0
13, 23640, Note_on_c, 12, 69, 75
13, 23760, Note_on_c, 12, 69, 0
13, 23760, Note_on_c, 12, 71, 75
13, 23790, Note_on_c, 12, 71, 0
13, 23790, Note_on_c, 12, 72, 75
13, 23820, Note_on_c, 12, 72, 0
13, 23820, Note_on_c, 12, 71, 75
13, 23880, Note_on_c, 12, 71, 0
13, 23880, Note_on_c, 12, 64, 75
13, 23940, Note_on_c, 12, 64, 0
13, 23940, Note_on_c, 12, 67, 67
13, 24000, Note_on_c, 12, 67, 0
13, 24000, Note_on_c, 12, 64, 64
13, 24060, Note_on_c, 12, 64, 0
13, 24060, Note_on_c, 12, 59, 60
13, 24180, Note_on_c, 12, 59, 0
13, 24180, Note_on_c, 12, 59, 53
13, 24300, Note_on_c, 12, 59, 0
13, 29400, Note_on_c, 12, 64, 40
13, 29520, Note_on_c, 12, 64, 0
13, 29520, Note_on_c, 12, 66, 40
13, 29555, Note_on_c, 12, 66, 0
13, 29580, Note_on_c, 12, 66, 40
13, 29640, Note_on_c, 12, 66, 0
13, 29640, Note_on_c, 12, 67, 40
13, 29675, Note_on_c, 12, 67, 0
13, 29700, Note_on_c, 12, 67, 40
13, 29760, Note_on_c, 12, 67, 0
13, 29760, Note_on_c, 12, 66, 40
13, 29795, Note_on_c, 12, 66, 0
13, 29820, Note_on_c, 12, 67, 40
13, 29880, Note_on_c, 12, 67, 0
13, 29880, Note_on_c, 12, 69, 40
13, 29940, Note_on_c, 12, 69, 0
13, 29940, Note_on_c, 12, 66, 40
13, 29975, Note_on_c, 12, 66, 0
13, 30000, Note_on_c, 12, 64, 40
13, 30060, Note_on_c, 12, 64, 0
13, 30060, Note_on_c, 12, 62, 40
13, 30120, Note_on_c, 12, 62, 0
13, 30120, Note_on_c, 12, 61, 40
13, 30180, Note_on_c, 12, 61, 0
13, 30180, Note_on_c, 12, 59, 40
13, 30215, Note_on_c, 12, 59, 0
13, 30240, Note_on_c, 12, 69, 40
13, 30270, Note_on_c, 12, 69, 0
13, 30270, Note_on_c, 12, 68, 40
13, 30300, Note_on_c, 12, 68, 0
13, 30300, Note_on_c, 12, 69, 40
13, 30360, Note_on_c, 12, 69, 0
13, 30360, Note_on_c, 12, 62, 40
13, 30420, Note_on_c, 12, 62, 0
13, 30420, Note_on_c, 12, 61, 40
13, 30540, Note_on_c, 12, 61, 0
13, 30540, Note_on_c, 12, 59, 40
13, 30660, Note_on_c, 12, 59, 0
13, 30660, Note_on_c, 12, 57, 40
13, 30695, Note_on_c, 12, 57, 0
13, 30720, Note_on_c, 12, 57, 40
13, 30780, Note_on_c, 12, 57, 0
13, 30780, Note_on_c, 12, 61, 40
13, 30840, Note_on_c, 12, 61, 0
13, 30840, Note_on_c, 12, 64, 40
13, 30900, Note_on_c, 12, 64, 0
13, 30900, Note_on_c, 12, 67, 40
13, 30960, Note_on_c, 12, 67, 0
13, 30960, Note_on_c, 12, 69, 40
13, 30990, Note_on_c, 12, 69, 0
13, 30990, Note_on_c, 12, 71, 40
13, 31020, Note_on_c, 12, 71, 0
13, 31020, Note_on_c, 12, 69, 40
13, 31050, Note_on_c, 12, 69, 0
13, 31050, Note_on_c, 12, 67, 40
13, 31080, Note_on_c, 12, 67, 0
13, 31080, Note_on_c, 12, 66, 40
13, 31110, Note_on_c, 12, 66, 0
13, 31110, Note_on_c, 12, 64, 40
13, 31140, Note_on_c, 12, 64, 0
13, 31140, Note_on_c, 12, 66, 30
13, 31170, Note_on_c, 12, 66, 0
13, 31170, Note_on_c, 12, 69, 30
13, 31200, Note_on_c, 12, 69, 0
13, 31200, Note_on_c, 12, 74, 30
13, 31230, Note_on_c, 12, 74, 0
13, 31230, Note_on_c, 12, 73, 30
13, 31260, Note_on_c, 12, 73, 0
13, 31260, Note_on_c, 12, 71, 30
13, 31290, Note_on_c, 12, 71, 0
13, 31290, Note_on_c, 12, 69, 30
13, 31320, Note_on_c, 12, 69, 0
13, 31320, Note_on_c, 12, 67, 30
13, 31350, Note_on_c, 12, 67, 0
13, 31350, Note_on_c, 12, 66, 30
13, 31380, Note_on_c, 12, 66, 0
13, 31380, Note_on_c, 12, 64, 30
13, 31410, Note_on_c, 12, 64, 0
13, 31410, Note_on_c, 12, 67, 30
13, 31440, Note_on_c, 12, 67, 0
13, 31440, Note_on_c, 12, 72, 30
13, 31470, Note_on_c, 12, 72, 0
13, 31470, Note_on_c, 12, 71, 30
13, 31500, Note_on_c, 12, 71, 0
13, 31500, Note_on_c, 12, 69, 30
13, 31530, Note_on_c, 12, 69, 0
13, 31530, Note_on_c, 12, 67, 30
13, 31560, Note_on_c, 12, 67, 0
13, 31560, Note_on_c, 12, 66, 30
13, 31590, Note_on_c, 12, 66, 0
13, 31590, Note_on_c, 12, 64, 30
13, 31620, Note_on_c, 12, 64, 0
13, 31620, Note_on_c, 12, 62, 30
13, 31650, Note_on_c, 12, 62, 0
13, 31650, Note_on_c, 12, 66, 30
13, 31680, Note_on_c, 12, 66, 0
13, 31680, Note_on_c, 12, 67, 30
13, 31710, Note_on_c, 12, 67, 0
13, 31710, Note_on_c, 12, 69, 30
13, 31740, Note_on_c, 12, 69, 0
13, 31740, Note_on_c, 12, 71, 30
13, 31770, Note_on_c, 12, 71, 0
13, 31770, Note_on_c, 12, 72, 30
13, 31800, Note_on_c, 12, 72, 0
13, 31800, Note_on_c, 12, 71, 30
13, 31830, Note_on_c, 12, 71, 0
13, 31830, Note_on_c, 12, 69, 30
13, 31860, Note_on_c, 12, 69, 0
13, 31860, Note_on_c, 12, 67, 30
13, 31890, Note_on_c, 12, 67, 0
13, 31890, Note_on_c, 12, 66, 30
13, 31920, Note_on_c, 12, 66, 0
13, 31920, Note_on_c, 12, 64, 30
13, 31950, Note_on_c, 12, 64, 0
13, 31950, Note_on_c, 12, 67, 30
13, 31980, Note_on_c, 12, 67, 0
13, 31980, Note_on_c, 12, 66, 30
13, 32010, Note_on_c, 12, 66, 0
13, 32010, Note_on_c, 12, 64, 30
13, 32040, Note_on_c, 12, 64, 0
13, 32040, Note_on_c, 12, 62, 30
13, 32070, Note_on_c, 12, 62, 0
13, 32070, Note_on_c, 12, 61, 30
13, 32100, Note_on_c, 12, 61, 0
13, 32100, Note_on_c, 12, 69, 30
13, 32160, Note_on_c, 12, 69, 0
13, 32160, Note_on_c, 12, 62, 30
13, 32280, Note_on_c, 12, 62, 0
13, 32280, Note_on_c, 12, 61, 30
13, 32340, Note_on_c, 12, 61, 0
13, 32340, Note_on_c, 12, 62, 30
13, 32375, Note_on_c, 12, 62, 0
13, 32400, Note_on_c, 12, 69, 30
13, 32460, Note_on_c, 12, 69, 0
13, 32460, Note_on_c, 12, 74, 30
13, 32520, Note_on_c, 12, 74, 0
13, 32520, Note_on_c, 12, 64, 30
13, 32580, Note_on_c, 12, 64, 0
13, 32580, Note_on_c, 12, 66, 30
13, 32640, Note_on_c, 12, 66, 0
13, 32640, Note_on_c, 12, 68, 30
13, 32670, Note_on_c, 12, 68, 0
13, 32670, Note_on_c, 12, 69, 30
13, 32700, Note_on_c, 12, 69, 0
13, 32700, Note_on_c, 12, 71, 30
13, 32880, Note_on_c, 12, 71, 0
13, 32880, Note_on_c, 12, 69, 30
13, 32915, Note_on_c, 12, 69, 0
13, 32940, Note_on_c, 12, 69, 30
13, 33000, Note_on_c, 12, 69, 0
13, 33000, Note_on_c, 12, 71, 30
13, 33060, Note_on_c, 12, 71, 0
13, 33060, Note_on_c, 12, 71, 30
13, 33150, Note_on_c, 12, 71, 0
13, 33150, Note_on_c, 12, 73, 30
13, 33180, Note_on_c, 12, 73, 0
13, 33180, Note_on_c, 12, 74, 30
13, 33195, Note_on_c, 12, 74, 0
13, 33195, Note_on_c, 12, 73, 30
13, 33210, Note_on_c, 12, 73, 0
13, 33210, Note_on_c, 12, 74, 30
13, 33225, Note_on_c, 12, 74, 0
13, 33225, Note_on_c, 12, 73, 30
13, 33240, Note_on_c, 12, 73, 0
13, 33240, Note_on_c, 12, 74, 30
13, 33255, Note_on_c, 12, 74, 0
13, 33255, Note_on_c, 12, 73, 30
13, 33270, Note_on_c, 12, 73, 0
13, 33270, Note_on_c, 12, 71, 30
13, 33285, Note_on_c, 12, 71, 0
13, 33285, Note_on_c, 12, 73, 30
13, 33300, Note_on_c, 12, 73, 0
13, 33300, Note_on_c, 12, 74, 30
13, 33420, Note_on_c, 12, 74, 0
13, 33480, Note_on_c, 12, 57, 30
13, 33540, Note_on_c, 12, 57, 0
13, 33540, Note_on_c, 12, 66, 30
13, 33600, Note_on_c, 12, 66, 0
13, 33600, Note_on_c, 12, 64, 30
13, 33720, Note_on_c, 12, 64, 0
13, 33720, Note_on_c, 12, 69, 30
13, 33755, Note_on_c, 12, 69, 0
13, 33780, Note_on_c, 12, 69, 30
13, 33840, Note_on_c, 12, 69, 0
13, 33840, Note_on_c, 12, 68, 30
13, 33870, Note_on_c, 12, 68, 0
13, 33870, Note_on_c, 12, 66, 30
13, 33900, Note_on_c, 12, 66, 0
13, 33900, Note_on_c, 12, 64, 30
13, 33960, Note_on_c, 12, 64, 0
13, 33960, Note_on_c, 12, 62, 30
13, 34020, Note_on_c, 12, 62, 0
13, 34020, Note_on_c, 12, 61, 30
13, 34080, Note_on_c, 12, 61, 0
13, 34080, Note_on_c, 12, 61, 30
13, 34110, Note_on_c, 12, 61, 0
13, 34110, Note_on_c, 12, 62, 30
13, 34140, Note_on_c, 12, 62, 0
13, 34140, Note_on_c, 12, 64, 30
13, 34320, Note_on_c, 12, 64, 0
13, 34320, Note_on_c, 12, 69, 30
13, 34350, Note_on_c, 12, 69, 0
13, 34350, Note_on_c, 12, 67, 30
13, 34380, Note_on_c, 12, 67, 0
13, 34380, Note_on_c, 12, 69, 30
13, 34440, Note_on_c, 12, 69, 0
13, 34440, Note_on_c, 12, 69, 30
13, 34500, Note_on_c, 12, 69, 0
13, 34500, Note_on_c, 12, 67, 35
13, 34620, Note_on_c, 12, 67, 0
13, 34620, Note_on_c, 12, 69, 37
13, 34749, Note_on_c, 12, 69, 0
13, 34749, Note_on_c, 12, 71, 39
13, 34760, Note_on_c, 12, 71, 0
13, 34760, Note_on_c, 12, 69, 39
13, 34770, Note_on_c, 12, 69, 0
13, 34770, Note_on_c, 12, 68, 39
13, 34800, Note_on_c, 12, 68, 0
13, 34800, Note_on_c, 12, 69, 40
13, 34860, Note_on_c, 12, 69, 0
13, 34860, Note_on_c, 12, 74, 40
13, 34920, Note_on_c, 12, 74, 0
13, 34920, Note_on_c, 12, 64, 41
13, 34955, Note_on_c, 12, 64, 0
13, 34980, Note_on_c, 12, 64, 42
13, 35100, Note_on_c, 12, 64, 0
13, 35160, Note_on_c, 12, 64, 45
13, 35220, Note_on_c, 12, 64, 0
13, 35220, Note_on_c, 12, 66, 46
13, 35280, Note_on_c, 12, 66, 0
13, 35280, Note_on_c, 12, 66, 47
13, 35310, Note_on_c, 12, 66, 0
13, 35310, Note_on_c, 12, 66, 47
13, 35340, Note_on_c, 12, 66, 0
13, 35340, Note_on_c, 12, 67, 48
13, 35400, Note_on_c, 12, 67, 0
13, 35400, Note_on_c, 12, 69, 49
13, 35460, Note_on_c, 12, 69, 0
13, 35460, Note_on_c, 12, 71, 50
13, 35520, Note_on_c, 12, 71, 0
13, 35520, Note_on_c, 12, 72, 50
13, 35580, Note_on_c, 12, 72, 0
13, 35580, Note_on_c, 12, 66, 51
13, 35700, Note_on_c, 12, 66, 0
13, 35700, Note_on_c, 12, 67, 53
13, 35735, Note_on_c, 12, 67, 0
13, 35760, Note_on_c, 12, 71, 54
13, 35790, Note_on_c, 12, 71, 0
13, 35790, Note_on_c, 12, 69, 54
13, 35820, Note_on_c, 12, 69, 0
13, 35820, Note_on_c, 12, 67, 55
13, 35880, Note_on_c, 12, 67, 0
13, 35880, Note_on_c, 12, 66, 56
13, 35940, Note_on_c, 12, 66, 0
13, 35940, Note_on_c, 12, 64, 57
13, 36000, Note_on_c, 12, 64, 0
13, 36000, Note_on_c, 12, 62, 58
13, 36060, Note_on_c, 12, 62, 0
13, 36060, Note_on_c, 12, 61, 59
13, 36180, Note_on_c, 12, 61, 0
13, 36180, Note_on_c, 12, 59, 60
13, 36300, Note_on_c, 12, 59, 0
13, 36600, Note_on_c, 12, 71, 65
13, 36660, Note_on_c, 12, 71, 0
13, 36660, Note_on_c, 12, 69, 66
13, 36720, Note_on_c, 12, 69, 0
13, 36720, Note_on_c, 12, 66, 66
13, 36755, Note_on_c, 12, 66, 0
13, 36780, Note_on_c, 12, 66, 67
13, 36840, Note_on_c, 12, 66, 0
13, 36840, Note_on_c, 12, 68, 67
13, 36875, Note_on_c, 12, 68, 0
13, 36900, Note_on_c, 12, 69, 68
13, 36960, Note_on_c, 12, 69, 0
13, 36960, Note_on_c, 12, 71, 68
13, 36995, Note_on_c, 12, 71, 0
13, 37020, Note_on_c, 12, 73, 68
13, 37140, Note_on_c, 12, 73, 0
13, 37140, Note_on_c, 12, 71, 69
13, 37260, Note_on_c, 12, 71, 0
13, 37560, Note_on_c, 12, 69, 72
13, 37620, Note_on_c, 12, 69, 0
13, 37620, Note_on_c, 12, 68, 73
13, 37680, Note_on_c, 12, 68, 0
13, 37680, Note_on_c, 12, 64, 73
13, 37715, Note_on_c, 12, 64, 0
13, 37740, Note_on_c, 12, 64, 74
13, 37800, Note_on_c, 12, 64, 0
13, 37800, Note_on_c, 12, 66, 74
13, 37835, Note_on_c, 12, 66, 0
13, 37860, Note_on_c, 12, 68, 75
13, 37920, Note_on_c, 12, 68, 0
13, 37920, Note_on_c, 12, 69, 75
13, 37955, Note_on_c, 12, 69, 0
13, 37980, Note_on_c, 12, 71, 75
13, 38100, Note_on_c, 12, 71, 0
13, 38100, Note_on_c, 12, 69, 76
13, 38220, Note_on_c, 12, 69, 0
13, 38520, Note_on_c, 12, 67, 65
13, 38580, Note_on_c, 12, 67, 0
13, 38580, Note_on_c, 12, 66, 65
13, 38640, Note_on_c, 12, 66, 0
13, 38640, Note_on_c, 12, 67, 65
13, 38675, Note_on_c, 12, 67, 0
13, 38700, Note_on_c, 12, 67, 66
13, 38760, Note_on_c, 12, 67, 0
13, 38760, Note_on_c, 12, 69, 66
13, 38795, Note_on_c, 12, 69, 0
13, 38820, Note_on_c, 12, 62, 66
13, 38940, Note_on_c, 12, 62, 0
13, 38940, Note_on_c, 12, 62, 67
13, 39060, Note_on_c, 12, 62, 0
13, 39060, Note_on_c, 12, 62, 67
13, 39180, Note_on_c, 12, 62, 0
13, 39240, Note_on_c, 12, 62, 68
13, 39300, Note_on_c, 12, 62, 0
13, 39300, Note_on_c, 12, 69, 68
13, 39360, Note_on_c, 12, 69, 0
13, 39360, Note_on_c, 12, 69, 68
13, 39390, Note_on_c, 12, 69, 0
13, 39390, Note_on_c, 12, 67, 68
13, 39420, Note_on_c, 12, 67, 0
13, 39420, Note_on_c, 12, 69, 69
13, 39480, Note_on_c, 12, 69, 0
13, 39480, Note_on_c, 12, 62, 69
13, 39540, Note_on_c, 12, 62, 0
13, 39540, Note_on_c, 12, 69, 69
13, 39600, Note_on_c, 12, 69, 0
13, 39600, Note_on_c, 12, 67, 69
13, 39630, Note_on_c, 12, 67, 0
13, 39630, Note_on_c, 12, 66, 69
13, 39660, Note_on_c, 12, 66, 0
13, 39660, Note_on_c, 12, 67, 70
13, 39780, Note_on_c, 12, 67, 0
13, 39780, Note_on_c, 12, 66, 64
13, 39815, Note_on_c, 12, 66, 0
13, 39840, Note_on_c, 12, 69, 64
13, 39870, Note_on_c, 12, 69, 0
13, 39870, Note_on_c, 12, 67, 64
13, 39900, Note_on_c, 12, 67, 0
13, 39900, Note_on_c, 12, 66, 64
13, 39960, Note_on_c, 12, 66, 0
13, 39960, Note_on_c, 12, 64, 64
13, 40020, Note_on_c, 12, 64, 0
13, 40020, Note_on_c, 12, 66, 64
13, 40080, Note_on_c, 12, 66, 0
13, 40080, Note_on_c, 12, 59, 64
13, 40140, Note_on_c, 12, 59, 0
13, 40140, Note_on_c, 12, 59, 64
13, 40200, Note_on_c, 12, 59, 0
13, 40200, Note_on_c, 12, 64, 64
13, 40320, Note_on_c, 12, 64, 0
13, 40320, Note_on_c, 12, 66, 64
13, 40355, Note_on_c, 12, 66, 0
13, 40380, Note_on_c, 12, 66, 64
13, 40440, Note_on_c, 12, 66, 0
13, 40440, Note_on_c, 12, 67, 64
13, 40475, Note_on_c, 12, 67, 0
13, 40500, Note_on_c, 12, 67, 64
13, 40560, Note_on_c, 12, 67, 0
13, 40560, Note_on_c, 12, 66, 64
13, 40595, Note_on_c, 12, 66, 0
13, 40620, Note_on_c, 12, 67, 64
13, 40680, Note_on_c, 12, 67, 0
13, 40680, Note_on_c, 12, 69, 64
13, 40715, Note_on_c, 12, 69, 0
13, 40740, Note_on_c, 12, 66, 64
13, 40800, Note_on_c, 12, 66, 0
13, 40800, Note_on_c, 12, 64, 64
13, 40860, Note_on_c, 12, 64, 0
13, 40860, Note_on_c, 12, 62, 64
13, 40920, Note_on_c, 12, 62, 0
13, 40920, Note_on_c, 12, 61, 64
13, 40980, Note_on_c, 12, 61, 0
13, 40980, Note_on_c, 12, 59, 64
13, 41015, Note_on_c, 12, 59, 0
13, 41040, Note_on_c, 12, 69, 64
13, 41070, Note_on_c, 12, 69, 0
13, 41070, Note_on_c, 12, 68, 64
13, 41100, Note_on_c, 12, 68, 0
13, 41100, Note_on_c, 12, 69, 64
13, 41160, Note_on_c, 12, 69, 0
13, 41160, Note_on_c, 12, 62, 64
13, 41220, Note_on_c, 12, 62, 0
13, 41220, Note_on_c, 12, 61, 64
13, 41340, Note_on_c, 12, 61, 0
13, 41340, Note_on_c, 12, 59, 64
13, 41460, Note_on_c, 12, 59, 0
13, 41460, Note_on_c, 12, 57, 64
13, 41495, Note_on_c, 12, 57, 0
13, 41520, Note_on_c, 12, 57, 64
13, 41580, Note_on_c, 12, 57, 0
13, 41580, Note_on_c, 12, 61, 64
13, 41640, Note_on_c, 12, 61, 0
13, 41640, Note_on_c, 12, 64, 64
13, 41700, Note_on_c, 12, 64, 0
13, 41700, Note_on_c, 12, 67, 64
13, 41760, Note_on_c, 12, 67, 0
13, 41760, Note_on_c, 12, 69, 64
13, 41790, Note_on_c, 12, 69, 0
13, 41790, Note_on_c, 12, 71, 64
13, 41820, Note_on_c, 12, 71, 0
13, 41820, Note_on_c, 12, 69, 64
13, 41850, Note_on_c, 12, 69, 0
13, 41850, Note_on_c, 12, 67, 64
13, 41880, Note_on_c, 12, 67, 0
13, 41880, Note_on_c, 12, 66, 64
13, 41910, Note_on_c, 12, 66, 0
13, 41910, Note_on_c, 12, 64, 64
13, 41940, Note_on_c, 12, 64, 0
13, 41940, Note_on_c, 12, 66, 64
13, 41970, Note_on_c, 12, 66, 0
13, 41970, Note_on_c, 12, 69, 64
13, 42000, Note_on_c, 12, 69, 0
13, 42000, Note_on_c, 12, 74, 64
13, 42030, Note_on_c, 12, 74, 0
13, 42030, Note_on_c, 12, 72, 64
13, 42060, Note_on_c, 12, 72, 0
13, 42060, Note_on_c, 12, 71, 64
13, 42090, Note_on_c, 12, 71, 0
13, 42090, Note_on_c, 12, 69, 64
13, 42120, Note_on_c, 12, 69, 0
13, 42120, Note_on_c, 12, 67, 64
13, 42150, Note_on_c, 12, 67, 0
13, 42150, Note_on_c, 12, 66, 64
13, 42180, Note_on_c, 12, 66, 0
13, 42180, Note_on_c, 12, 64, 64
13, 42210, Note_on_c, 12, 64, 0
13, 42210, Note_on_c, 12, 67, 64
13, 42240, Note_on_c, 12, 67, 0
13, 42240, Note_on_c, 12, 72, 64
13, 42270, Note_on_c, 12, 72, 0
13, 42270, Note_on_c, 12, 71, 64
13, 42300, Note_on_c, 12, 71, 0
13, 42300, Note_on_c, 12, 69, 64
13, 42330, Note_on_c, 12, 69, 0
13, 42330, Note_on_c, 12, 67, 64
13, 42360, Note_on_c, 12, 67, 0
13, 42360, Note_on_c, 12, 66, 64
13, 42390, Note_on_c, 12, 66, 0
13, 42390, Note_on_c, 12, 64, 64
13, 42420, Note_on_c, 12, 64, 0
13, 42420, Note_on_c, 12, 62, 64
13, 42450, Note_on_c, 12, 62, 0
13, 42450, Note_on_c, 12, 66, 64
13, 42480, Note_on_c, 12, 66, 0
13, 42480, Note_on_c, 12, 67, 64
13, 42510, Note_on_c, 12, 67, 0
13, 42510, Note_on_c, 12, 69, 64
13, 42540, Note_on_c, 12, 69, 0
13, 42540, Note_on_c, 12, 71, 64
13, 42570, Note_on_c, 12, 71, 0
13, 42570, Note_on_c, 12, 72, 64
13, 42600, Note_on_c, 12, 72, 0
13, 42600, Note_on_c, 12, 71, 64
13, 42630, Note_on_c, 12, 71, 0
13, 42630, Note_on_c, 12, 69, 64
13, 42660, Note_on_c, 12, 69, 0
13, 42660, Note_on_c, 12, 67, 64
13, 42690, Note_on_c, 12, 67, 0
13, 42690, Note_on_c, 12, 66, 64
13, 42720, Note_on_c, 12, 66, 0
13, 42720, Note_on_c, 12, 64, 64
13, 42750, Note_on_c, 12, 64, 0
13, 42750, Note_on_c, 12, 67, 64
13, 42780, Note_on_c, 12, 67, 0
13, 42780, Note_on_c, 12, 66, 64
13, 42810, Note_on_c, 12, 66, 0
13, 42810, Note_on_c, 12, 64, 64
13, 42840, Note_on_c, 12, 64, 0
13, 42840, Note_on_c, 12, 62, 64
13, 42870, Note_on_c, 12, 62, 0
13, 42870, Note_on_c, 12, 61, 64
13, 42900, Note_on_c, 12, 61, 0
13, 42900, Note_on_c, 12, 69, 64
13, 42960, Note_on_c, 12, 69, 0
13, 42960, Note_on_c, 12, 62, 64
13, 43080, Note_on_c, 12, 62, 0
13, 43080, Note_on_c, 12, 61, 64
13, 43140, Note_on_c, 12, 61, 0
13, 43140, Note_on_c, 12, 62, 64
13, 43175, Note_on_c, 12, 62, 0
13, 43200, Note_on_c, 12, 69, 64
13, 43260, Note_on_c, 12, 69, 0
13, 43260, Note_on_c, 12, 74, 64
13, 43320, Note_on_c, 12, 74, 0
13, 43320, Note_on_c, 12, 62, 64
13, 43380, Note_on_c, 12, 62, 0
13, 43380, Note_on_c, 12, 64, 64
13, 43440, Note_on_c, 12, 64, 0
13, 43440, Note_on_c, 12, 66, 64
13, 43470, Note_on_c, 12, 66, 0
13, 43470, Note_on_c, 12, 67, 64
13, 43500, Note_on_c, 12, 67, 0
13, 43500, Note_on_c, 12, 69, 64
13, 43680, Note_on_c, 12, 69, 0
13, 43680, Note_on_c, 12, 67, 50
13, 43715, Note_on_c, 12, 67, 0
13, 43740, Note_on_c, 12, 67, 64
13, 43800, Note_on_c, 12, 67, 0
13, 43800, Note_on_c, 12, 69, 64
13, 43860, Note_on_c, 12, 69, 0
13, 43860, Note_on_c, 12, 69, 64
13, 43890, Note_on_c, 12, 69, 0
13, 43890, Note_on_c, 12, 71, 64
13, 43920, Note_on_c, 12, 71, 0
13, 43920, Note_on_c, 12, 69, 64
13, 43950, Note_on_c, 12, 69, 0
13, 43950, Note_on_c, 12, 71, 64
13, 43980, Note_on_c, 12, 71, 0
13, 43980, Note_on_c, 12, 72, 64
13, 43995, Note_on_c, 12, 72, 0
13, 43995, Note_on_c, 12, 71, 64
13, 44010, Note_on_c, 12, 71, 0
13, 44010, Note_on_c, 12, 72, 64
13, 44025, Note_on_c, 12, 72, 0
13, 44025, Note_on_c, 12, 71, 64
13, 44040, Note_on_c, 12, 71, 0
13, 44040, Note_on_c, 12, 72, 64
13, 44055, Note_on_c, 12, 72, 0
13, 44055, Note_on_c, 12, 71, 64
13, 44070, Note_on_c, 12, 71, 0
13, 44070, Note_on_c, 12, 72, 64
13, 44100, Note_on_c, 12, 72, 0
13, 44100, Note_on_c, 12, 72, 64
13, 44220, Note_on_c, 12, 72, 0
13, 44280, Note_on_c, 12, 55, 64
13, 44340, Note_on_c, 12, 55, 0
13, 44340, Note_on_c, 12, 64, 64
13, 44400, Note_on_c, 12, 64, 0
13, 44400, Note_on_c, 12, 62, 64
13, 44520, Note_on_c, 12, 62, 0
13, 44520, Note_on_c, 12, 67, 64
13, 44580, Note_on_c, 12, 67, 0
13, 44580, Note_on_c, 12, 67, 64
13, 44640, Note_on_c, 12, 67, 0
13, 44640, Note_on_c, 12, 66, 65
13, 44670, Note_on_c, 12, 66, 0
13, 44670, Note_on_c, 12, 64, 65
13, 44700, Note_on_c, 12, 64, 0
13, 44700, Note_on_c, 12, 62, 65
13, 44760, Note_on_c, 12, 62, 0
13, 44760, Note_on_c, 12, 69, 66
13, 44820, Note_on_c, 12, 69, 0
13, 44820, Note_on_c, 12, 71, 66
13, 44855, Note_on_c, 12, 71, 0
13, 44880, Note_on_c, 12, 74, 67
13, 44910, Note_on_c, 12, 74, 0
13, 44910, Note_on_c, 12, 73, 67
13, 44940, Note_on_c, 12, 73, 0
13, 44940, Note_on_c, 12, 71, 67
13, 44970, Note_on_c, 12, 71, 0
13, 44970, Note_on_c, 12, 69, 67
13, 45000, Note_on_c, 12, 69, 0
13, 45000, Note_on_c, 12, 67, 68
13, 45030, Note_on_c, 12, 67, 0
13, 45030, Note_on_c, 12, 66, 68
13, 45060, Note_on_c, 12, 66, 0
13, 45060, Note_on_c, 12, 64, 68
13, 45120, Note_on_c, 12, 64, 0
13, 45120, Note_on_c, 12, 66, 69
13, 45150, Note_on_c, 12, 66, 0
13, 45150, Note_on_c, 12, 67, 69
13, 45180, Note_on_c, 12, 67, 0
13, 45180, Note_on_c, 12, 69, 69
13, 45240, Note_on_c, 12, 69, 0
13, 45240, Note_on_c, 12, 67, 70
13, 45300, Note_on_c, 12, 67, 0
13, 45300, Note_on_c, 12, 66, 70
13, 45420, Note_on_c, 12, 66, 0
13, 45480, Note_on_c, 12, 62, 72
13, 45540, Note_on_c, 12, 62, 0
13, 45540, Note_on_c, 12, 69, 72
13, 45660, Note_on_c, 12, 69, 0
13, 45720, Note_on_c, 12, 66, 74
13, 45780, Note_on_c, 12, 66, 0
13, 45780, Note_on_c, 12, 67, 74
13, 45900, Note_on_c, 12, 67, 0
13, 45960, Note_on_c, 12, 71, 76
13, 46020, Note_on_c, 12, 71, 0
13, 46020, Note_on_c, 12, 73, 76
13, 46050, Note_on_c, 12, 73, 0
13, 46050, Note_on_c, 12, 74, 76
13, 46080, Note_on_c, 12, 74, 0
13, 46080, Note_on_c, 12, 76, 77
13, 46140, Note_on_c, 12, 76, 0
13, 46140, Note_on_c, 12, 74, 77
13, 46200, Note_on_c, 12, 74, 0
13, 46200, Note_on_c, 12, 71, 78
13, 46235, Note_on_c, 12, 71, 0
13, 46260, Note_on_c, 12, 69, 78
13, 46320, Note_on_c, 12, 69, 0
13, 46320, Note_on_c, 12, 69, 79
13, 46380, Note_on_c, 12, 69, 0
13, 46380, Note_on_c, 12, 69, 79
13, 46500, Note_on_c, 12, 69, 0
13, 46500, Note_on_c, 12, 69, 85
13, 46620, Note_on_c, 12, 69, 0
13, 47520, Note_on_c, 12, 71, 65
13, 47550, Note_on_c, 12, 71, 0
13, 47550, Note_on_c, 12, 69, 65
13, 47580, Note_on_c, 12, 69, 0
13, 47580, Note_on_c, 12, 67, 66
13, 47640, Note_on_c, 12, 67, 0
13, 47640, Note_on_c, 12, 66, 66
13, 47700, Note_on_c, 12, 66, 0
13, 47700, Note_on_c, 12, 64, 67
13, 47760, Note_on_c, 12, 64, 0
13, 47760, Note_on_c, 12, 62, 68
13, 47820, Note_on_c, 12, 62, 0
13, 47820, Note_on_c, 12, 61, 69
13, 47940, Note_on_c, 12, 61, 0
13, 47940, Note_on_c, 12, 59, 70
13, 48060, Note_on_c, 12, 59, 0
13, 48060, Note_on_c, 12, 66, 40
13, 48420, Note_on_c, 12, 66, 0
13, 48420, Note_on_c, 12, 68, 30
13, 48540, Note_on_c, 12, 68, 0
13, 48540, Note_on_c, 12, 64, 36
13, 48660, Note_on_c, 12, 64, 0
13, 48660, Note_on_c, 12, 64, 43
13, 48780, Note_on_c, 12, 64, 0
13, 48780, Note_on_c, 12, 68, 49
13, 48840, Note_on_c, 12, 68, 0
13, 48840, Note_on_c, 12, 71, 52
13, 48900, Note_on_c, 12, 71, 0
13, 48900, Note_on_c, 12, 69, 55
13, 48960, Note_on_c, 12, 69, 0
13, 48960, Note_on_c, 12, 69, 58
13, 49020, Note_on_c, 12, 69, 0
13, 49020, Note_on_c, 12, 69, 61
13, 49080, Note_on_c, 12, 69, 0
13, 49080, Note_on_c, 12, 67, 64
13, 49110, Note_on_c, 12, 67, 0
13, 49110, Note_on_c, 12, 66, 66
13, 49140, Note_on_c, 12, 66, 0
13, 49140, Note_on_c, 12, 64, 68
13, 49260, Note_on_c, 12, 64, 0
13, 49260, Note_on_c, 12, 64, 74
13, 49320, Note_on_c, 12, 64, 0
13, 49680, Note_on_c, 12, 62, 82
13, 49740, Note_on_c, 12, 62, 0
13, 49740, Note_on_c, 12, 66, 82
13, 49800, Note_on_c, 12, 66, 0
13, 49800, Note_on_c, 12, 69, 82
13, 49860, Note_on_c, 12, 69, 0
13, 49860, Note_on_c, 12, 71, 83
13, 49980, Note_on_c, 12, 71, 0
13, 50400, Note_on_c, 12, 64, 85
13, 50460, Note_on_c, 12, 64, 0
13, 50460, Note_on_c, 12, 68, 86
13, 50520, Note_on_c, 12, 68, 0
13, 50520, Note_on_c, 12, 71, 86
13, 50580, Note_on_c, 12, 71, 0
13, 50580, Note_on_c, 12, 73, 86
13, 50700, Note_on_c, 12, 73, 0
13, 51120, Note_on_c, 12, 71, 89
13, 51180, Note_on_c, 12, 71, 0
13, 51180, Note_on_c, 12, 70, 89
13, 51240, Note_on_c, 12, 70, 0
13, 51240, Note_on_c, 12, 66, 90
13, 51300, Note_on_c, 12, 66, 0
13, 51300, Note_on_c, 12, 66, 80
13, 51420, Note_on_c, 12, 66, 0
13, 51480, Note_on_c, 12, 64, 82
13, 51600, Note_on_c, 12, 64, 0
13, 51600, Note_on_c, 12, 66, 84
13, 51635, Note_on_c, 12, 66, 0
13, 51660, Note_on_c, 12, 66, 84
13, 51720, Note_on_c, 12, 66, 0
13, 51720, Note_on_c, 12, 67, 85
13, 51755, Note_on_c, 12, 67, 0
13, 51780, Note_on_c, 12, 67, 86
13, 51840, Note_on_c, 12, 67, 0
13, 51840, Note_on_c, 12, 66, 86
13, 51875, Note_on_c, 12, 66, 0
13, 51900, Note_on_c, 12, 67, 87
13, 51960, Note_on_c, 12, 67, 0
13, 51960, Note_on_c, 12, 69, 88
13, 51995, Note_on_c, 12, 69, 0
13, 52020, Note_on_c, 12, 66, 89
13, 52080, Note_on_c, 12, 66, 0
13, 52080, Note_on_c, 12, 64, 89
13, 52115, Note_on_c, 12, 64, 0
13, 52140, Note_on_c, 12, 62, 90
13, 52200, Note_on_c, 12, 62, 0
13, 52200, Note_on_c, 12, 61, 91
13, 52235, Note_on_c, 12, 61, 0
13, 52260, Note_on_c, 12, 59, 91
13, 52320, Note_on_c, 12, 59, 0
13, 52320, Note_on_c, 12, 69, 92
13, 52350, Note_on_c, 12, 69, 0
13, 52350, Note_on_c, 12, 68, 93
13, 52380, Note_on_c, 12, 68, 0
13, 52380, Note_on_c, 12, 69, 93
13, 52440, Note_on_c, 12, 69, 0
13, 52440, Note_on_c, 12, 62, 94
13, 52500, Note_on_c, 12, 62, 0
13, 52500, Note_on_c, 12, 61, 94
13, 52620, Note_on_c, 12, 61, 0
13, 52620, Note_on_c, 12, 59, 96
13, 52740, Note_on_c, 12, 59, 0
13, 52740, Note_on_c, 12, 57, 97
13, 52775, Note_on_c, 12, 57, 0
13, 52800, Note_on_c, 12, 57, 98
13, 52860, Note_on_c, 12, 57, 0
13, 52860, Note_on_c, 12, 61, 99
13, 52920, Note_on_c, 12, 61, 0
13, 52920, Note_on_c, 12, 64, 99
13, 52980, Note_on_c, 12, 64, 0
13, 52980, Note_on_c, 12, 67, 100
13, 53040, Note_on_c, 12, 67, 0
13, 53040, Note_on_c, 12, 69, 101
13, 53070, Note_on_c, 12, 69, 0
13, 53070, Note_on_c, 12, 71, 101
13, 53100, Note_on_c, 12, 71, 0
13, 53100, Note_on_c, 12, 69, 101
13, 53130, Note_on_c, 12, 69, 0
13, 53130, Note_on_c, 12, 67, 102
13, 53160, Note_on_c, 12, 67, 0
13, 53160, Note_on_c, 12, 66, 102
13, 53190, Note_on_c, 12, 66, 0
13, 53190, Note_on_c, 12, 64, 103
13, 53220, Note_on_c, 12, 64, 0
13, 53220, Note_on_c, 12, 66, 103
13, 53250, Note_on_c, 12, 66, 0
13, 53250, Note_on_c, 12, 69, 103
13, 53280, Note_on_c, 12, 69, 0
13, 53280, Note_on_c, 12, 74, 104
13, 53310, Note_on_c, 12, 74, 0
13, 53310, Note_on_c, 12, 72, 104
13, 53340, Note_on_c, 12, 72, 0
13, 53340, Note_on_c, 12, 71, 104
13, 53370, Note_on_c, 12, 71, 0
13, 53370, Note_on_c, 12, 69, 105
13, 53400, Note_on_c, 12, 69, 0
13, 53400, Note_on_c, 12, 67, 105
13, 53430, Note_on_c, 12, 67, 0
13, 53430, Note_on_c, 12, 66, 105
13, 53460, Note_on_c, 12, 66, 0
13, 53460, Note_on_c, 12, 64, 106
13, 53490, Note_on_c, 12, 64, 0
13, 53490, Note_on_c, 12, 67, 106
13, 53520, Note_on_c, 12, 67, 0
13, 53520, Note_on_c, 12, 72, 106
13, 53550, Note_on_c, 12, 72, 0
13, 53550, Note_on_c, 12, 71, 107
13, 53580, Note_on_c, 12, 71, 0
13, 53580, Note_on_c, 12, 69, 107
13, 53610, Note_on_c, 12, 69, 0
13, 53610, Note_on_c, 12, 67, 108
13, 53640, Note_on_c, 12, 67, 0
13, 53640, Note_on_c, 12, 66, 108
13, 53670, Note_on_c, 12, 66, 0
13, 53670, Note_on_c, 12, 64, 108
13, 53700, Note_on_c, 12, 64, 0
13, 53700, Note_on_c, 12, 62, 109
13, 53730, Note_on_c, 12, 62, 0
13, 53730, Note_on_c, 12, 66, 109
13, 53760, Note_on_c, 12, 66, 0
13, 53760, Note_on_c, 12, 67, 109
13, 53790, Note_on_c, 12, 67, 0
13, 53790, Note_on_c, 12, 69, 110
13, 53820, Note_on_c, 12, 69, 0
13, 53820, Note_on_c, 12, 71, 110
13, 53850, Note_on_c, 12, 71, 0
13, 53850, Note_on_c, 12, 67, 110
13, 53880, Note_on_c, 12, 67, 0
13, 53880, Note_on_c, 12, 69, 111
13, 53910, Note_on_c, 12, 69, 0
13, 53910, Note_on_c, 12, 71, 111
13, 53940, Note_on_c, 12, 71, 0
13, 53940, Note_on_c, 12, 64, 111
13, 54000, Note_on_c, 12, 64, 0
13, 54000, Note_on_c, 12, 66, 112
13, 54030, Note_on_c, 12, 66, 0
13, 54030, Note_on_c, 12, 67, 113
13, 54060, Note_on_c, 12, 67, 0
13, 54060, Note_on_c, 12, 69, 113
13, 54095, Note_on_c, 12, 69, 0
13, 54120, Note_on_c, 12, 71, 114
13, 54155, Note_on_c, 12, 71, 0
13, 54180, Note_on_c, 12, 69, 114
13, 54420, Note_on_c, 12, 69, 0
13, 54420, Note_on_c, 12, 69, 117
13, 54660, Note_on_c, 12, 69, 0
13, 55140, End_track
14, 0, Start_track
14, 0, MIDI_port, 0
14, 0, Title_t, "Tenor"
14, 0, Program_c, 13, 52
14, 4500, Control_c, 13, 7, 127
14, 4860, Note_on_c, 13, 62, 70
14, 4920, Note_on_c, 13, 62, 0
14, 4920, Note_on_c, 13, 57, 71
14, 4980, Note_on_c, 13, 57, 0
14, 4980, Note_on_c, 13, 62, 72
14, 5040, Note_on_c, 13, 62, 0
14, 5040, Note_on_c, 13, 64, 73
14, 5100, Note_on_c, 13, 64, 0
14, 5100, Note_on_c, 13, 66, 74
14, 5130, Note_on_c, 13, 66, 0
14, 5130, Note_on_c, 13, 64, 74
14, 5160, Note_on_c, 13, 64, 0
14, 5160, Note_on_c, 13, 62, 75
14, 5190, Note_on_c, 13, 62, 0
14, 5190, Note_on_c, 13, 64, 75
14, 5220, Note_on_c, 13, 64, 0
14, 5220, Note_on_c, 13, 66, 76
14, 5255, Note_on_c, 13, 66, 0
14, 5280, Note_on_c, 13, 66, 77
14, 5315, Note_on_c, 13, 66, 0
14, 5340, Note_on_c, 13, 64, 77
14, 5375, Note_on_c, 13, 64, 0
14, 5400, Note_on_c, 13, 62, 78
14, 5460, Note_on_c, 13, 62, 0
14, 5460, Note_on_c, 13, 61, 79
14, 5495, Note_on_c, 13, 61, 0
14, 5520, Note_on_c, 13, 62, 80
14, 5580, Note_on_c, 13, 62, 0
14, 5580, Note_on_c, 13, 57, 81
14, 5640, Note_on_c, 13, 57, 0
14, 5640, Note_on_c, 13, 64, 82
14, 5670, Note_on_c, 13, 64, 0
14, 5670, Note_on_c, 13, 62, 83
14, 5700, Note_on_c, 13, 62, 0
14, 5700, Note_on_c, 13, 64, 83
14, 5730, Note_on_c, 13, 64, 0
14, 5730, Note_on_c, 13, 61, 84
14, 5760, Note_on_c, 13, 61, 0
14, 5760, Note_on_c, 13, 57, 84
14, 5820, Note_on_c, 13, 57, 0
14, 5820, Note_on_c, 13, 69, 85
14, 5855, Note_on_c, 13, 69, 0
14, 5880, Note_on_c, 13, 57, 86
14, 5915, Note_on_c, 13, 57, 0
14, 5940, Note_on_c, 13, 64, 87
14, 6060, Note_on_c, 13, 64, 0
14, 6060, Note_on_c, 13, 64, 89
14, 6095, Note_on_c, 13, 64, 0
14, 8100, Note_on_c, 13, 52, 71
14, 8135, Note_on_c, 13, 52, 0
14, 8160, Note_on_c, 13, 57, 72
14, 8195, Note_on_c, 13, 57, 0
14, 8220, Note_on_c, 13, 56, 72
14, 8255, Note_on_c, 13, 56, 0
14, 8280, Note_on_c, 13, 57, 73
14, 8340, Note_on_c, 13, 57, 0
14, 8340, Note_on_c, 13, 62, 73
14, 8375, Note_on_c, 13, 62, 0
14, 8400, Note_on_c, 13, 64, 74
14, 8460, Note_on_c, 13, 64, 0
14, 8460, Note_on_c, 13, 64, 75
14, 8495, Note_on_c, 13, 64, 0
14, 8520, Note_on_c, 13, 59, 75
14, 8555, Note_on_c, 13, 59, 0
14, 8580, Note_on_c, 13, 59, 76
14, 8615, Note_on_c, 13, 59, 0
14, 8640, Note_on_c, 13, 61, 76
14, 8675, Note_on_c, 13, 61, 0
14, 8700, Note_on_c, 13, 59, 77
14, 8735, Note_on_c, 13, 59, 0
14, 8760, Note_on_c, 13, 61, 78
14, 8795, Note_on_c, 13, 61, 0
14, 8820, Note_on_c, 13, 59, 78
14, 8940, Note_on_c, 13, 59, 0
14, 8940, Note_on_c, 13, 59, 79
14, 8975, Note_on_c, 13, 59, 0
14, 9240, Note_on_c, 13, 61, 51
14, 9275, Note_on_c, 13, 61, 0
14, 9300, Note_on_c, 13, 61, 54
14, 9335, Note_on_c, 13, 61, 0
14, 9360, Note_on_c, 13, 66, 57
14, 9570, Note_on_c, 13, 66, 0
14, 9570, Note_on_c, 13, 64, 67
14, 9600, Note_on_c, 13, 64, 0
14, 9600, Note_on_c, 13, 66, 68
14, 9630, Note_on_c, 13, 66, 0
14, 9630, Note_on_c, 13, 67, 70
14, 9660, Note_on_c, 13, 67, 0
14, 9660, Note_on_c, 13, 66, 71
14, 9690, Note_on_c, 13, 66, 0
14, 9690, Note_on_c, 13, 64, 73
14, 9720, Note_on_c, 13, 64, 0
14, 9720, Note_on_c, 13, 62, 50
14, 10110, Note_on_c, 13, 62, 0
14, 10110, Note_on_c, 13, 66, 64
14, 10140, Note_on_c, 13, 66, 0
14, 10140, Note_on_c, 13, 64, 65
14, 10170, Note_on_c, 13, 64, 0
14, 10170, Note_on_c, 13, 62, 66
14, 10200, Note_on_c, 13, 62, 0
14, 10200, Note_on_c, 13, 61, 67
14, 10230, Note_on_c, 13, 61, 0
14, 10230, Note_on_c, 13, 59, 68
14, 10260, Note_on_c, 13, 59, 0
14, 10260, Note_on_c, 13, 61, 69
14, 10295, Note_on_c, 13, 61, 0
14, 10320, Note_on_c, 13, 57, 71
14, 10355, Note_on_c, 13, 57, 0
14, 10620, Note_on_c, 13, 61, 66
14, 10655, Note_on_c, 13, 61, 0
14, 10680, Note_on_c, 13, 61, 67
14, 10715, Note_on_c, 13, 61, 0
14, 10740, Note_on_c, 13, 57, 68
14, 10775, Note_on_c, 13, 57, 0
14, 10800, Note_on_c, 13, 59, 69
14, 10835, Note_on_c, 13, 59, 0
14, 10860, Note_on_c, 13, 68, 69
14, 10890, Note_on_c, 13, 68, 0
14, 10890, Note_on_c, 13, 66, 70
14, 10920, Note_on_c, 13, 66, 0
14, 10920, Note_on_c, 13, 64, 70
14, 10955, Note_on_c, 13, 64, 0
14, 10980, Note_on_c, 13, 66, 71
14, 11100, Note_on_c, 13, 66, 0
14, 11100, Note_on_c, 13, 62, 72
14, 11135, Note_on_c, 13, 62, 0
14, 11160, Note_on_c, 13, 59, 73
14, 11220, Note_on_c, 13, 59, 0
14, 11220, Note_on_c, 13, 64, 74
14, 11255, Note_on_c, 13, 64, 0
14, 11280, Note_on_c, 13, 61, 75
14, 11315, Note_on_c, 13, 61, 0
14, 11340, Note_on_c, 13, 62, 75
14, 11370, Note_on_c, 13, 62, 0
14, 11370, Note_on_c, 13, 61, 76
14, 11400, Note_on_c, 13, 61, 0
14, 11400, Note_on_c, 13, 59, 76
14, 11430, Note_on_c, 13, 59, 0
14, 11430, Note_on_c, 13, 57, 77
14, 11460, Note_on_c, 13, 57, 0
14, 11460, Note_on_c, 13, 66, 77
14, 11490, Note_on_c, 13, 66, 0
14, 11490, Note_on_c, 13, 68, 77
14, 11520, Note_on_c, 13, 68, 0
14, 11520, Note_on_c, 13, 69, 78
14, 11550, Note_on_c, 13, 69, 0
14, 11550, Note_on_c, 13, 62, 78
14, 11580, Note_on_c, 13, 62, 0
14, 11580, Note_on_c, 13, 59, 78
14, 11700, Note_on_c, 13, 59, 0
14, 11700, Control_c, 13, 7, 127
14, 11700, Note_on_c, 13, 61, 64
14, 11820, Note_on_c, 13, 61, 0
14, 12420, Control_c, 13, 7, 127
14, 12420, Note_on_c, 13, 64, 40
14, 12480, Note_on_c, 13, 64, 0
14, 12480, Note_on_c, 13, 57, 41
14, 12540, Note_on_c, 13, 57, 0
14, 12540, Note_on_c, 13, 64, 43
14, 12600, Note_on_c, 13, 64, 0
14, 12600, Note_on_c, 13, 66, 44
14, 12660, Note_on_c, 13, 66, 0
14, 12660, Note_on_c, 13, 67, 45
14, 12690, Note_on_c, 13, 67, 0
14, 12690, Note_on_c, 13, 66, 46
14, 12720, Note_on_c, 13, 66, 0
14, 12720, Note_on_c, 13, 64, 46
14, 12750, Note_on_c, 13, 64, 0
14, 12750, Note_on_c, 13, 66, 47
14, 12780, Note_on_c, 13, 66, 0
14, 12780, Note_on_c, 13, 67, 48
14, 13020, Note_on_c, 13, 67, 0
14, 13020, Note_on_c, 13, 66, 53
14, 13050, Note_on_c, 13, 66, 0
14, 13050, Note_on_c, 13, 64, 53
14, 13080, Note_on_c, 13, 64, 0
14, 13080, Note_on_c, 13, 62, 54
14, 13110, Note_on_c, 13, 62, 0
14, 13110, Note_on_c, 13, 61, 54
14, 13140, Note_on_c, 13, 61, 0
14, 13140, Note_on_c, 13, 59, 55
14, 13175, Note_on_c, 13, 59, 0
14, 13200, Note_on_c, 13, 66, 56
14, 13235, Note_on_c, 13, 66, 0
14, 13260, Note_on_c, 13, 62, 58
14, 13295, Note_on_c, 13, 62, 0
14, 13320, Note_on_c, 13, 64, 59
14, 13440, Note_on_c, 13, 64, 0
14, 13440, Note_on_c, 13, 64, 61
14, 13475, Note_on_c, 13, 64, 0
14, 13500, Note_on_c, 13, 62, 63
14, 13590, Note_on_c, 13, 62, 0
14, 13590, Note_on_c, 13, 64, 64
14, 13620, Note_on_c, 13, 64, 0
14, 13620, Note_on_c, 13, 66, 65
14, 13655, Note_on_c, 13, 66, 0
14, 13680, Note_on_c, 13, 64, 66
14, 13770, Note_on_c, 13, 64, 0
14, 13770, Note_on_c, 13, 66, 68
14, 13800, Note_on_c, 13, 66, 0
14, 13800, Note_on_c, 13, 67, 69
14, 13860, Note_on_c, 13, 67, 0
14, 13860, Control_c, 13, 7, 127
14, 13860, Note_on_c, 13, 66, 79
14, 13920, Note_on_c, 13, 66, 0
14, 13920, Note_on_c, 13, 69, 80
14, 13955, Note_on_c, 13, 69, 0
14, 13980, Note_on_c, 13, 62, 81
14, 14015, Note_on_c, 13, 62, 0
14, 14040, Note_on_c, 13, 57, 82
14, 14160, Note_on_c, 13, 57, 0
14, 14160, Note_on_c, 13, 57, 85
14, 14195, Note_on_c, 13, 57, 0
14, 14220, Note_on_c, 13, 50, 86
14, 14255, Note_on_c, 13, 50, 0
14, 14580, Note_on_c, 13, 57, 79
14, 14615, Note_on_c, 13, 57, 0
14, 14640, Note_on_c, 13, 66, 80
14, 14675, Note_on_c, 13, 66, 0
14, 14700, Note_on_c, 13, 64, 81
14, 14735, Note_on_c, 13, 64, 0
14, 14760, Note_on_c, 13, 57, 83
14, 14880, Note_on_c, 13, 57, 0
14, 14880, Note_on_c, 13, 62, 85
14, 14940, Note_on_c, 13, 62, 0
14, 14940, Note_on_c, 13, 61, 86
14, 14975, Note_on_c, 13, 61, 0
14, 15720, Note_on_c, 13, 63, 54
14, 15755, Note_on_c, 13, 63, 0
14, 15780, Note_on_c, 13, 63, 56
14, 15815, Note_on_c, 13, 63, 0
14, 15840, Note_on_c, 13, 63, 58
14, 15900, Note_on_c, 13, 63, 0
14, 15900, Note_on_c, 13, 64, 60
14, 15935, Note_on_c, 13, 64, 0
14, 15960, Note_on_c, 13, 59, 62
14, 15995, Note_on_c, 13, 59, 0
14, 16080, Note_on_c, 13, 59, 43
14, 16115, Note_on_c, 13, 59, 0
14, 16140, Note_on_c, 13, 59, 45
14, 16175, Note_on_c, 13, 59, 0
14, 16200, Note_on_c, 13, 64, 48
14, 16590, Note_on_c, 13, 64, 0
14, 16590, Note_on_c, 13, 67, 64
14, 16620, Note_on_c, 13, 67, 0
14, 16620, Note_on_c, 13, 66, 65
14, 16650, Note_on_c, 13, 66, 0
14, 16650, Note_on_c, 13, 64, 66
14, 16680, Note_on_c, 13, 64, 0
14, 16680, Note_on_c, 13, 62, 68
14, 16710, Note_on_c, 13, 62, 0
14, 16710, Note_on_c, 13, 61, 69
14, 16740, Note_on_c, 13, 61, 0
14, 16740, Control_c, 13, 7, 127
14, 16740, Note_on_c, 13, 62, 76
14, 16775, Note_on_c, 13, 62, 0
14, 16800, Note_on_c, 13, 57, 77
14, 16835, Note_on_c, 13, 57, 0
14, 16920, Note_on_c, 13, 64, 79
14, 16955, Note_on_c, 13, 64, 0
14, 16980, Note_on_c, 13, 64, 80
14, 17015, Note_on_c, 13, 64, 0
14, 17040, Note_on_c, 13, 61, 81
14, 17075, Note_on_c, 13, 61, 0
14, 17100, Note_on_c, 13, 66, 82
14, 17160, Note_on_c, 13, 66, 0
14, 17160, Note_on_c, 13, 62, 83
14, 17195, Note_on_c, 13, 62, 0
14, 17220, Note_on_c, 13, 59, 84
14, 17255, Note_on_c, 13, 59, 0
14, 17280, Note_on_c, 13, 67, 85
14, 17340, Note_on_c, 13, 67, 0
14, 17340, Note_on_c, 13, 64, 86
14, 17375, Note_on_c, 13, 64, 0
14, 17400, Note_on_c, 13, 66, 87
14, 17435, Note_on_c, 13, 66, 0
14, 17460, Note_on_c, 13, 66, 88
14, 17490, Note_on_c, 13, 66, 0
14, 17490, Note_on_c, 13, 62, 89
14, 17520, Note_on_c, 13, 62, 0
14, 17520, Note_on_c, 13, 59, 89
14, 17555, Note_on_c, 13, 59, 0
14, 17580, Note_on_c, 13, 59, 90
14, 17610, Note_on_c, 13, 59, 0
14, 17610, Note_on_c, 13, 64, 91
14, 17640, Note_on_c, 13, 64, 0
14, 17640, Note_on_c, 13, 64, 91
14, 17700, Note_on_c, 13, 64, 0
14, 17700, Note_on_c, 13, 62, 92
14, 17730, Note_on_c, 13, 62, 0
14, 17730, Note_on_c, 13, 61, 93
14, 17760, Note_on_c, 13, 61, 0
14, 17760, Note_on_c, 13, 62, 93
14, 18030, Note_on_c, 13, 62, 0
14, 18030, Note_on_c, 13, 59, 98
14, 18060, Note_on_c, 13, 59, 0
14, 18060, Note_on_c, 13, 57, 98
14, 18180, Note_on_c, 13, 57, 0
14, 18180, Note_on_c, 13, 57, 100
14, 18300, Note_on_c, 13, 57, 0
14, 18540, Note_on_c, 13, 62, 40
14, 18600, Note_on_c, 13, 62, 0
14, 18600, Note_on_c, 13, 62, 40
14, 18660, Note_on_c, 13, 62, 0
14, 18660, Note_on_c, 13, 64, 30
14, 18780, Note_on_c, 13, 64, 0
14, 18780, Note_on_c, 13, 62, 32
14, 18900, Note_on_c, 13, 62, 0
14, 18900, Note_on_c, 13, 62, 34
14, 19020, Note_on_c, 13, 62, 0
14, 19980, Note_on_c, 13, 62, 53
14, 20460, Note_on_c, 13, 62, 0
14, 20460, Note_on_c, 13, 59, 62
14, 20520, Note_on_c, 13, 59, 0
14, 20520, Note_on_c, 13, 60, 63
14, 20555, Note_on_c, 13, 60, 0
14, 20580, Note_on_c, 13, 60, 64
14, 20640, Note_on_c, 13, 60, 0
14, 20640, Note_on_c, 13, 59, 64
14, 20675, Note_on_c, 13, 59, 0
14, 20700, Note_on_c, 13, 59, 64
14, 20760, Note_on_c, 13, 59, 0
14, 20760, Note_on_c, 13, 57, 64
14, 20795, Note_on_c, 13, 57, 0
14, 20820, Note_on_c, 13, 55, 64
14, 20880, Note_on_c, 13, 55, 0
14, 20880, Note_on_c, 13, 59, 64
14, 20915, Note_on_c, 13, 59, 0
14, 20940, Note_on_c, 13, 52, 64
14, 21000, Note_on_c, 13, 52, 0
14, 21000, Note_on_c, 13, 54, 64
14, 21035, Note_on_c, 13, 54, 0
14, 21060, Note_on_c, 13, 55, 64
14, 21120, Note_on_c, 13, 55, 0
14, 21120, Note_on_c, 13, 57, 64
14, 21180, Note_on_c, 13, 57, 0
14, 21180, Note_on_c, 13, 59, 64
14, 21240, Note_on_c, 13, 59, 0
14, 21240, Note_on_c, 13, 61, 64
14, 21300, Note_on_c, 13, 61, 0
14, 21300, Note_on_c, 13, 63, 64
14, 21360, Note_on_c, 13, 63, 0
14, 21360, Note_on_c, 13, 64, 64
14, 21480, Note_on_c, 13, 64, 0
14, 21480, Note_on_c, 13, 66, 64
14, 21515, Note_on_c, 13, 66, 0
14, 21540, Note_on_c, 13, 66, 64
14, 21600, Note_on_c, 13, 66, 0
14, 21600, Note_on_c, 13, 64, 64
14, 21635, Note_on_c, 13, 64, 0
14, 21660, Note_on_c, 13, 66, 65
14, 21720, Note_on_c, 13, 66, 0
14, 21720, Note_on_c, 13, 67, 65
14, 21755, Note_on_c, 13, 67, 0
14, 21780, Note_on_c, 13, 64, 66
14, 21900, Note_on_c, 13, 64, 0
14, 22020, Note_on_c, 13, 62, 67
14, 22140, Note_on_c, 13, 62, 0
14, 22260, Note_on_c, 13, 64, 69
14, 22380, Note_on_c, 13, 64, 0
14, 22380, Note_on_c, 13, 59, 69
14, 22500, Note_on_c, 13, 59, 0
14, 22500, Note_on_c, 13, 60, 64
14, 22560, Note_on_c, 13, 60, 0
14, 22560, Note_on_c, 13, 57, 64
14, 22620, Note_on_c, 13, 57, 0
14, 22620, Note_on_c, 13, 52, 64
14, 22680, Note_on_c, 13, 52, 0
14, 22680, Note_on_c, 13, 60, 64
14, 22740, Note_on_c, 13, 60, 0
14, 22740, Note_on_c, 13, 59, 64
14, 22860, Note_on_c, 13, 59, 0
14, 23280, Note_on_c, 13, 59, 71
14, 23400, Note_on_c, 13, 59, 0
14, 23400, Note_on_c, 13, 57, 74
14, 23460, Note_on_c, 13, 57, 0
14, 23460, Note_on_c, 13, 57, 75
14, 23520, Note_on_c, 13, 57, 0
14, 23520, Note_on_c, 13, 55, 75
14, 23555, Note_on_c, 13, 55, 0
14, 23580, Note_on_c, 13, 55, 75
14, 23640, Note_on_c, 13, 55, 0
14, 23640, Note_on_c, 13, 52, 75
14, 23700, Note_on_c, 13, 52, 0
14, 23700, Note_on_c, 13, 60, 75
14, 23760, Note_on_c, 13, 60, 0
14, 23760, Note_on_c, 13, 59, 75
14, 23790, Note_on_c, 13, 59, 0
14, 23790, Note_on_c, 13, 57, 75
14, 23820, Note_on_c, 13, 57, 0
14, 23820, Note_on_c, 13, 59, 75
14, 23880, Note_on_c, 13, 59, 0
14, 23880, Note_on_c, 13, 60, 75
14, 23940, Note_on_c, 13, 60, 0
14, 23940, Note_on_c, 13, 59, 67
14, 24000, Note_on_c, 13, 59, 0
14, 24000, Note_on_c, 13, 57, 64
14, 24030, Note_on_c, 13, 57, 0
14, 24030, Note_on_c, 13, 55, 62
14, 24060, Note_on_c, 13, 55, 0
14, 24060, Note_on_c, 13, 57, 60
14, 24180, Note_on_c, 13, 57, 0
14, 24180, Note_on_c, 13, 55, 53
14, 24300, Note_on_c, 13, 55, 0
14, 31080, Note_on_c, 13, 57, 40
14, 31200, Note_on_c, 13, 57, 0
14, 31200, Note_on_c, 13, 59, 40
14, 31235, Note_on_c, 13, 59, 0
14, 31260, Note_on_c, 13, 59, 40
14, 31320, Note_on_c, 13, 59, 0
14, 31320, Note_on_c, 13, 60, 40
14, 31380, Note_on_c, 13, 60, 0
14, 31380, Note_on_c, 13, 60, 40
14, 31415, Note_on_c, 13, 60, 0
14, 31440, Note_on_c, 13, 59, 40
14, 31500, Note_on_c, 13, 59, 0
14, 31500, Note_on_c, 13, 60, 40
14, 31560, Note_on_c, 13, 60, 0
14, 31560, Note_on_c, 13, 62, 40
14, 31620, Note_on_c, 13, 62, 0
14, 31620, Note_on_c, 13, 59, 40
14, 31655, Note_on_c, 13, 59, 0
14, 31680, Note_on_c, 13, 57, 40
14, 31740, Note_on_c, 13, 57, 0
14, 31740, Note_on_c, 13, 55, 40
14, 31800, Note_on_c, 13, 55, 0
14, 31800, Note_on_c, 13, 54, 40
14, 31860, Note_on_c, 13, 54, 0
14, 31860, Note_on_c, 13, 52, 40
14, 31895, Note_on_c, 13, 52, 0
14, 31920, Note_on_c, 13, 62, 40
14, 31950, Note_on_c, 13, 62, 0
14, 31950, Note_on_c, 13, 61, 40
14, 31980, Note_on_c, 13, 61, 0
14, 31980, Note_on_c, 13, 62, 40
14, 32040, Note_on_c, 13, 62, 0
14, 32040, Note_on_c, 13, 55, 40
14, 32100, Note_on_c, 13, 55, 0
14, 32100, Note_on_c, 13, 54, 40
14, 32220, Note_on_c, 13, 54, 0
14, 32220, Note_on_c, 13, 52, 40
14, 32340, Note_on_c, 13, 52, 0
14, 32340, Note_on_c, 13, 50, 40
14, 32375, Note_on_c, 13, 50, 0
14, 32400, Note_on_c, 13, 50, 40
14, 32460, Note_on_c, 13, 50, 0
14, 32460, Note_on_c, 13, 54, 40
14, 32520, Note_on_c, 13, 54, 0
14, 32520, Note_on_c, 13, 57, 40
14, 32580, Note_on_c, 13, 57, 0
14, 32580, Note_on_c, 13, 62, 30
14, 32640, Note_on_c, 13, 62, 0
14, 32640, Note_on_c, 13, 64, 30
14, 32670, Note_on_c, 13, 64, 0
14, 32670, Note_on_c, 13, 66, 30
14, 32700, Note_on_c, 13, 66, 0
14, 32700, Note_on_c, 13, 64, 30
14, 32730, Note_on_c, 13, 64, 0
14, 32730, Note_on_c, 13, 62, 30
14, 32760, Note_on_c, 13, 62, 0
14, 32760, Note_on_c, 13, 61, 30
14, 32790, Note_on_c, 13, 61, 0
14, 32790, Note_on_c, 13, 59, 30
14, 32820, Note_on_c, 13, 59, 0
14, 32820, Note_on_c, 13, 61, 30
14, 32850, Note_on_c, 13, 61, 0
14, 32850, Note_on_c, 13, 64, 30
14, 32880, Note_on_c, 13, 64, 0
14, 32880, Note_on_c, 13, 69, 30
14, 32910, Note_on_c, 13, 69, 0
14, 32910, Note_on_c, 13, 67, 30
14, 32940, Note_on_c, 13, 67, 0
14, 32940, Note_on_c, 13, 66, 30
14, 32970, Note_on_c, 13, 66, 0
14, 32970, Note_on_c, 13, 64, 30
14, 33000, Note_on_c, 13, 64, 0
14, 33000, Note_on_c, 13, 62, 30
14, 33030, Note_on_c, 13, 62, 0
14, 33030, Note_on_c, 13, 61, 30
14, 33060, Note_on_c, 13, 61, 0
14, 33060, Note_on_c, 13, 59, 30
14, 33090, Note_on_c, 13, 59, 0
14, 33090, Note_on_c, 13, 62, 30
14, 33120, Note_on_c, 13, 62, 0
14, 33120, Note_on_c, 13, 67, 30
14, 33150, Note_on_c, 13, 67, 0
14, 33150, Note_on_c, 13, 66, 30
14, 33180, Note_on_c, 13, 66, 0
14, 33180, Note_on_c, 13, 64, 30
14, 33210, Note_on_c, 13, 64, 0
14, 33210, Note_on_c, 13, 62, 30
14, 33240, Note_on_c, 13, 62, 0
14, 33240, Note_on_c, 13, 61, 30
14, 33270, Note_on_c, 13, 61, 0
14, 33270, Note_on_c, 13, 59, 30
14, 33300, Note_on_c, 13, 59, 0
14, 33300, Note_on_c, 13, 57, 30
14, 33330, Note_on_c, 13, 57, 0
14, 33330, Note_on_c, 13, 61, 30
14, 33360, Note_on_c, 13, 61, 0
14, 33360, Note_on_c, 13, 62, 30
14, 33390, Note_on_c, 13, 62, 0
14, 33390, Note_on_c, 13, 64, 30
14, 33420, Note_on_c, 13, 64, 0
14, 33420, Note_on_c, 13, 66, 30
14, 33450, Note_on_c, 13, 66, 0
14, 33450, Note_on_c, 13, 67, 30
14, 33480, Note_on_c, 13, 67, 0
14, 33480, Note_on_c, 13, 66, 30
14, 33510, Note_on_c, 13, 66, 0
14, 33510, Note_on_c, 13, 64, 30
14, 33540, Note_on_c, 13, 64, 0
14, 33540, Note_on_c, 13, 62, 30
14, 33570, Note_on_c, 13, 62, 0
14, 33570, Note_on_c, 13, 61, 30
14, 33600, Note_on_c, 13, 61, 0
14, 33600, Note_on_c, 13, 59, 30
14, 33630, Note_on_c, 13, 59, 0
14, 33630, Note_on_c, 13, 62, 30
14, 33660, Note_on_c, 13, 62, 0
14, 33660, Note_on_c, 13, 61, 30
14, 33690, Note_on_c, 13, 61, 0
14, 33690, Note_on_c, 13, 59, 30
14, 33720, Note_on_c, 13, 59, 0
14, 33720, Note_on_c, 13, 57, 30
14, 33750, Note_on_c, 13, 57, 0
14, 33750, Note_on_c, 13, 56, 30
14, 33780, Note_on_c, 13, 56, 0
14, 33780, Note_on_c, 13, 64, 30
14, 33840, Note_on_c, 13, 64, 0
14, 33840, Note_on_c, 13, 57, 30
14, 33960, Note_on_c, 13, 57, 0
14, 33960, Note_on_c, 13, 56, 30
14, 34020, Note_on_c, 13, 56, 0
14, 34020, Note_on_c, 13, 57, 30
14, 34055, Note_on_c, 13, 57, 0
14, 34080, Note_on_c, 13, 64, 30
14, 34140, Note_on_c, 13, 64, 0
14, 34140, Note_on_c, 13, 69, 30
14, 34200, Note_on_c, 13, 69, 0
14, 34200, Note_on_c, 13, 59, 30
14, 34260, Note_on_c, 13, 59, 0
14, 34260, Note_on_c, 13, 61, 30
14, 34320, Note_on_c, 13, 61, 0
14, 34320, Note_on_c, 13, 63, 30
14, 34350, Note_on_c, 13, 63, 0
14, 34350, Note_on_c, 13, 64, 30
14, 34380, Note_on_c, 13, 64, 0
14, 34380, Note_on_c, 13, 66, 30
14, 34560, Note_on_c, 13, 66, 0
14, 34560, Note_on_c, 13, 64, 36
14, 34595, Note_on_c, 13, 64, 0
14, 34620, Note_on_c, 13, 64, 37
14, 34680, Note_on_c, 13, 64, 0
14, 34680, Note_on_c, 13, 64, 38
14, 34740, Note_on_c, 13, 64, 0
14, 34740, Note_on_c, 13, 65, 39
14, 34830, Note_on_c, 13, 65, 0
14, 34830, Note_on_c, 13, 64, 40
14, 34860, Note_on_c, 13, 64, 0
14, 34860, Note_on_c, 13, 62, 40
14, 34890, Note_on_c, 13, 62, 0
14, 34890, Note_on_c, 13, 60, 41
14, 34920, Note_on_c, 13, 60, 0
14, 34920, Note_on_c, 13, 59, 41
14, 34950, Note_on_c, 13, 59, 0
14, 34950, Note_on_c, 13, 57, 42
14, 34980, Note_on_c, 13, 57, 0
14, 34980, Note_on_c, 13, 56, 42
14, 35010, Note_on_c, 13, 56, 0
14, 35010, Note_on_c, 13, 52, 43
14, 35040, Note_on_c, 13, 52, 0
14, 35040, Note_on_c, 13, 54, 43
14, 35070, Note_on_c, 13, 54, 0
14, 35070, Note_on_c, 13, 56, 44
14, 35100, Note_on_c, 13, 56, 0
14, 35100, Note_on_c, 13, 57, 44
14, 35130, Note_on_c, 13, 57, 0
14, 35130, Note_on_c, 13, 59, 45
14, 35160, Note_on_c, 13, 59, 0
14, 35160, Note_on_c, 13, 60, 45
14, 35190, Note_on_c, 13, 60, 0
14, 35190, Note_on_c, 13, 62, 45
14, 35220, Note_on_c, 13, 62, 0
14, 35220, Note_on_c, 13, 60, 46
14, 35250, Note_on_c, 13, 60, 0
14, 35250, Note_on_c, 13, 59, 46
14, 35280, Note_on_c, 13, 59, 0
14, 35280, Note_on_c, 13, 57, 47
14, 35310, Note_on_c, 13, 57, 0
14, 35310, Note_on_c, 13, 60, 47
14, 35340, Note_on_c, 13, 60, 0
14, 35340, Note_on_c, 13, 59, 48
14, 35400, Note_on_c, 13, 59, 0
14, 35400, Note_on_c, 13, 52, 49
14, 35430, Note_on_c, 13, 52, 0
14, 35430, Note_on_c, 13, 54, 49
14, 35460, Note_on_c, 13, 54, 0
14, 35460, Note_on_c, 13, 55, 50
14, 35490, Note_on_c, 13, 55, 0
14, 35490, Note_on_c, 13, 59, 50
14, 35520, Note_on_c, 13, 59, 0
14, 35520, Note_on_c, 13, 64, 50
14, 35640, Note_on_c, 13, 64, 0
14, 35640, Note_on_c, 13, 63, 52
14, 35700, Note_on_c, 13, 63, 0
14, 35700, Note_on_c, 13, 64, 53
14, 35735, Note_on_c, 13, 64, 0
14, 35760, Note_on_c, 13, 59, 54
14, 35820, Note_on_c, 13, 59, 0
14, 35820, Note_on_c, 13, 64, 55
14, 35880, Note_on_c, 13, 64, 0
14, 35880, Note_on_c, 13, 66, 56
14, 35940, Note_on_c, 13, 66, 0
14, 35940, Note_on_c, 13, 67, 57
14, 36000, Note_on_c, 13, 67, 0
14, 36000, Note_on_c, 13, 59, 58
14, 36060, Note_on_c, 13, 59, 0
14, 36060, Note_on_c, 13, 66, 59
14, 36180, Note_on_c, 13, 66, 0
14, 36180, Note_on_c, 13, 66, 60
14, 36300, Note_on_c, 13, 66, 0
14, 36600, Note_on_c, 13, 61, 65
14, 36720, Note_on_c, 13, 61, 0
14, 36720, Note_on_c, 13, 66, 66
14, 36755, Note_on_c, 13, 66, 0
14, 36780, Note_on_c, 13, 57, 67
14, 36840, Note_on_c, 13, 57, 0
14, 36840, Note_on_c, 13, 59, 67
14, 36875, Note_on_c, 13, 59, 0
14, 36900, Note_on_c, 13, 61, 68
14, 36960, Note_on_c, 13, 61, 0
14, 36960, Note_on_c, 13, 59, 68
14, 36995, Note_on_c, 13, 59, 0
14, 37020, Note_on_c, 13, 57, 68
14, 37140, Note_on_c, 13, 57, 0
14, 37140, Note_on_c, 13, 59, 69
14, 37260, Note_on_c, 13, 59, 0
14, 37560, Note_on_c, 13, 59, 72
14, 37680, Note_on_c, 13, 59, 0
14, 37680, Note_on_c, 13, 64, 73
14, 37715, Note_on_c, 13, 64, 0
14, 37740, Note_on_c, 13, 56, 74
14, 37800, Note_on_c, 13, 56, 0
14, 37800, Note_on_c, 13, 57, 74
14, 37835, Note_on_c, 13, 57, 0
14, 37860, Note_on_c, 13, 59, 75
14, 37920, Note_on_c, 13, 59, 0
14, 37920, Note_on_c, 13, 57, 75
14, 37955, Note_on_c, 13, 57, 0
14, 37980, Note_on_c, 13, 56, 75
14, 38100, Note_on_c, 13, 56, 0
14, 38100, Note_on_c, 13, 57, 76
14, 38220, Note_on_c, 13, 57, 0
14, 38520, Note_on_c, 13, 64, 65
14, 38580, Note_on_c, 13, 64, 0
14, 38580, Note_on_c, 13, 62, 65
14, 38940, Note_on_c, 13, 62, 0
14, 38940, Note_on_c, 13, 57, 67
14, 39060, Note_on_c, 13, 57, 0
14, 39060, Note_on_c, 13, 59, 67
14, 39180, Note_on_c, 13, 59, 0
14, 39240, Note_on_c, 13, 59, 68
14, 39300, Note_on_c, 13, 59, 0
14, 39300, Note_on_c, 13, 64, 68
14, 39360, Note_on_c, 13, 64, 0
14, 39360, Note_on_c, 13, 57, 68
14, 39390, Note_on_c, 13, 57, 0
14, 39390, Note_on_c, 13, 57, 68
14, 39420, Note_on_c, 13, 57, 0
14, 39420, Note_on_c, 13, 62, 69
14, 39480, Note_on_c, 13, 62, 0
14, 39480, Note_on_c, 13, 59, 69
14, 39540, Note_on_c, 13, 59, 0
14, 39540, Note_on_c, 13, 54, 69
14, 39600, Note_on_c, 13, 54, 0
14, 39600, Note_on_c, 13, 52, 69
14, 39630, Note_on_c, 13, 52, 0
14, 39630, Note_on_c, 13, 50, 69
14, 39660, Note_on_c, 13, 50, 0
14, 39660, Note_on_c, 13, 57, 70
14, 39780, Note_on_c, 13, 57, 0
14, 39780, Note_on_c, 13, 57, 64
14, 39851, Note_on_c, 13, 57, 0
14, 39900, Note_on_c, 13, 57, 64
14, 39960, Note_on_c, 13, 57, 0
14, 39960, Note_on_c, 13, 61, 64
14, 40020, Note_on_c, 13, 61, 0
14, 40020, Note_on_c, 13, 54, 64
14, 40080, Note_on_c, 13, 54, 0
14, 40080, Note_on_c, 13, 62, 64
14, 40140, Note_on_c, 13, 62, 0
14, 40140, Note_on_c, 13, 59, 64
14, 40260, Note_on_c, 13, 59, 0
14, 40260, Note_on_c, 13, 57, 64
14, 40320, Note_on_c, 13, 57, 0
14, 41880, Note_on_c, 13, 57, 64
14, 42000, Note_on_c, 13, 57, 0
14, 42000, Note_on_c, 13, 59, 64
14, 42035, Note_on_c, 13, 59, 0
14, 42060, Note_on_c, 13, 59, 64
14, 42120, Note_on_c, 13, 59, 0
14, 42120, Note_on_c, 13, 60, 64
14, 42155, Note_on_c, 13, 60, 0
14, 42180, Note_on_c, 13, 60, 64
14, 42240, Note_on_c, 13, 60, 0
14, 42240, Note_on_c, 13, 59, 64
14, 42275, Note_on_c, 13, 59, 0
14, 42300, Note_on_c, 13, 60, 64
14, 42360, Note_on_c, 13, 60, 0
14, 42360, Note_on_c, 13, 62, 64
14, 42395, Note_on_c, 13, 62, 0
14, 42420, Note_on_c, 13, 59, 64
14, 42480, Note_on_c, 13, 59, 0
14, 42480, Note_on_c, 13, 57, 64
14, 42540, Note_on_c, 13, 57, 0
14, 42540, Note_on_c, 13, 55, 64
14, 42600, Note_on_c, 13, 55, 0
14, 42600, Note_on_c, 13, 54, 64
14, 42660, Note_on_c, 13, 54, 0
14, 42660, Note_on_c, 13, 52, 64
14, 42695, Note_on_c, 13, 52, 0
14, 42720, Note_on_c, 13, 62, 64
14, 42750, Note_on_c, 13, 62, 0
14, 42750, Note_on_c, 13, 61, 64
14, 42780, Note_on_c, 13, 61, 0
14, 42780, Note_on_c, 13, 62, 64
14, 42840, Note_on_c, 13, 62, 0
14, 42840, Note_on_c, 13, 55, 64
14, 42900, Note_on_c, 13, 55, 0
14, 42900, Note_on_c, 13, 54, 64
14, 43020, Note_on_c, 13, 54, 0
14, 43020, Note_on_c, 13, 52, 64
14, 43140, Note_on_c, 13, 52, 0
14, 43140, Note_on_c, 13, 50, 64
14, 43175, Note_on_c, 13, 50, 0
14, 43200, Note_on_c, 13, 50, 64
14, 43260, Note_on_c, 13, 50, 0
14, 43260, Note_on_c, 13, 54, 64
14, 43320, Note_on_c, 13, 54, 0
14, 43320, Note_on_c, 13, 57, 64
14, 43380, Note_on_c, 13, 57, 0
14, 43380, Note_on_c, 13, 60, 64
14, 43440, Note_on_c, 13, 60, 0
14, 43440, Note_on_c, 13, 62, 64
14, 43470, Note_on_c, 13, 62, 0
14, 43470, Note_on_c, 13, 64, 64
14, 43500, Note_on_c, 13, 64, 0
14, 43500, Note_on_c, 13, 62, 64
14, 43530, Note_on_c, 13, 62, 0
14, 43530, Note_on_c, 13, 60, 64
14, 43560, Note_on_c, 13, 60, 0
14, 43560, Note_on_c, 13, 59, 64
14, 43590, Note_on_c, 13, 59, 0
14, 43590, Note_on_c, 13, 57, 64
14, 43620, Note_on_c, 13, 57, 0
14, 43620, Note_on_c, 13, 59, 64
14, 43650, Note_on_c, 13, 59, 0
14, 43650, Note_on_c, 13, 62, 64
14, 43680, Note_on_c, 13, 62, 0
14, 43680, Note_on_c, 13, 67, 64
14, 43710, Note_on_c, 13, 67, 0
14, 43710, Note_on_c, 13, 65, 64
14, 43740, Note_on_c, 13, 65, 0
14, 43740, Note_on_c, 13, 64, 64
14, 43770, Note_on_c, 13, 64, 0
14, 43770, Note_on_c, 13, 62, 64
14, 43800, Note_on_c, 13, 62, 0
14, 43800, Note_on_c, 13, 60, 64
14, 43830, Note_on_c, 13, 60, 0
14, 43830, Note_on_c, 13, 59, 64
14, 43860, Note_on_c, 13, 59, 0
14, 43860, Note_on_c, 13, 57, 64
14, 43890, Note_on_c, 13, 57, 0
14, 43890, Note_on_c, 13, 60, 64
14, 43920, Note_on_c, 13, 60, 0
14, 43920, Note_on_c, 13, 65, 64
14, 43950, Note_on_c, 13, 65, 0
14, 43950, Note_on_c, 13, 64, 64
14, 43980, Note_on_c, 13, 64, 0
14, 43980, Note_on_c, 13, 62, 64
14, 44010, Note_on_c, 13, 62, 0
14, 44010, Note_on_c, 13, 60, 64
14, 44040, Note_on_c, 13, 60, 0
14, 44040, Note_on_c, 13, 59, 64
14, 44070, Note_on_c, 13, 59, 0
14, 44070, Note_on_c, 13, 57, 64
14, 44100, Note_on_c, 13, 57, 0
14, 44100, Note_on_c, 13, 55, 64
14, 44130, Note_on_c, 13, 55, 0
14, 44130, Note_on_c, 13, 59, 64
14, 44160, Note_on_c, 13, 59, 0
14, 44160, Note_on_c, 13, 60, 64
14, 44190, Note_on_c, 13, 60, 0
14, 44190, Note_on_c, 13, 62, 64
14, 44220, Note_on_c, 13, 62, 0
14, 44220, Note_on_c, 13, 64, 64
14, 44250, Note_on_c, 13, 64, 0
14, 44250, Note_on_c, 13, 65, 64
14, 44280, Note_on_c, 13, 65, 0
14, 44280, Note_on_c, 13, 64, 64
14, 44310, Note_on_c, 13, 64, 0
14, 44310, Note_on_c, 13, 62, 64
14, 44340, Note_on_c, 13, 62, 0
14, 44340, Note_on_c, 13, 60, 64
14, 44370, Note_on_c, 13, 60, 0
14, 44370, Note_on_c, 13, 59, 64
14, 44400, Note_on_c, 13, 59, 0
14, 44400, Note_on_c, 13, 57, 64
14, 44430, Note_on_c, 13, 57, 0
14, 44430, Note_on_c, 13, 60, 64
14, 44460, Note_on_c, 13, 60, 0
14, 44460, Note_on_c, 13, 59, 64
14, 44490, Note_on_c, 13, 59, 0
14, 44490, Note_on_c, 13, 57, 64
14, 44520, Note_on_c, 13, 57, 0
14, 44520, Note_on_c, 13, 55, 64
14, 44550, Note_on_c, 13, 55, 0
14, 44550, Note_on_c, 13, 54, 64
14, 44580, Note_on_c, 13, 54, 0
14, 44580, Note_on_c, 13, 62, 64
14, 44640, Note_on_c, 13, 62, 0
14, 44640, Note_on_c, 13, 55, 65
14, 44760, Note_on_c, 13, 55, 0
14, 44760, Note_on_c, 13, 54, 66
14, 44820, Note_on_c, 13, 54, 0
14, 44820, Note_on_c, 13, 55, 66
14, 44855, Note_on_c, 13, 55, 0
14, 44880, Note_on_c, 13, 59, 67
14, 44940, Note_on_c, 13, 59, 0
14, 44940, Note_on_c, 13, 62, 67
14, 45000, Note_on_c, 13, 62, 0
14, 45000, Note_on_c, 13, 67, 68
14, 45060, Note_on_c, 13, 67, 0
14, 45060, Note_on_c, 13, 59, 68
14, 45120, Note_on_c, 13, 59, 0
14, 45120, Note_on_c, 13, 61, 69
14, 45150, Note_on_c, 13, 61, 0
14, 45150, Note_on_c, 13, 62, 69
14, 45180, Note_on_c, 13, 62, 0
14, 45180, Note_on_c, 13, 64, 69
14, 45300, Note_on_c, 13, 64, 0
14, 45300, Note_on_c, 13, 62, 70
14, 45420, Note_on_c, 13, 62, 0
14, 45480, Note_on_c, 13, 66, 72
14, 45540, Note_on_c, 13, 66, 0
14, 45540, Note_on_c, 13, 66, 72
14, 45660, Note_on_c, 13, 66, 0
14, 45720, Note_on_c, 13, 62, 74
14, 45780, Note_on_c, 13, 62, 0
14, 45780, Note_on_c, 13, 62, 74
14, 45900, Note_on_c, 13, 62, 0
14, 45960, Note_on_c, 13, 59, 76
14, 46020, Note_on_c, 13, 59, 0
14, 46020, Note_on_c, 13, 64, 76
14, 46080, Note_on_c, 13, 64, 0
14, 46080, Note_on_c, 13, 57, 77
14, 46140, Note_on_c, 13, 57, 0
14, 46140, Note_on_c, 13, 57, 77
14, 46200, Note_on_c, 13, 57, 0
14, 46200, Note_on_c, 13, 62, 78
14, 46230, Note_on_c, 13, 62, 0
14, 46230, Note_on_c, 13, 64, 78
14, 46260, Note_on_c, 13, 64, 0
14, 46260, Note_on_c, 13, 66, 78
14, 46320, Note_on_c, 13, 66, 0
14, 46320, Note_on_c, 13, 64, 79
14, 46350, Note_on_c, 13, 64, 0
14, 46350, Note_on_c, 13, 62, 79
14, 46380, Note_on_c, 13, 62, 0
14, 46380, Note_on_c, 13, 64, 79
14, 46440, Note_on_c, 13, 64, 0
14, 46440, Note_on_c, 13, 67, 80
14, 46500, Note_on_c, 13, 67, 0
14, 46500, Note_on_c, 13, 66, 85
14, 46620, Note_on_c, 13, 66, 0
14, 47520, Note_on_c, 13, 59, 65
14, 47580, Note_on_c, 13, 59, 0
14, 47580, Note_on_c, 13, 64, 66
14, 47640, Note_on_c, 13, 64, 0
14, 47640, Note_on_c, 13, 66, 66
14, 47700, Note_on_c, 13, 66, 0
14, 47700, Note_on_c, 13, 67, 67
14, 47760, Note_on_c, 13, 67, 0
14, 47760, Note_on_c, 13, 59, 68
14, 47820, Note_on_c, 13, 59, 0
14, 47820, Note_on_c, 13, 66, 69
14, 47940, Note_on_c, 13, 66, 0
14, 47940, Note_on_c, 13, 66, 70
14, 48060, Note_on_c, 13, 66, 0
14, 48060, Note_on_c, 13, 62, 40
14, 48300, Note_on_c, 13, 62, 0
14, 48300, Note_on_c, 13, 59, 40
14, 48420, Note_on_c, 13, 59, 0
14, 48420, Note_on_c, 13, 64, 30
14, 48600, Note_on_c, 13, 64, 0
14, 48600, Note_on_c, 13, 64, 39
14, 48660, Note_on_c, 13, 64, 0
14, 48660, Note_on_c, 13, 64, 43
14, 48780, Note_on_c, 13, 64, 0
14, 48780, Note_on_c, 13, 64, 49
14, 48840, Note_on_c, 13, 64, 0
14, 48840, Note_on_c, 13, 64, 52
14, 48900, Note_on_c, 13, 64, 0
14, 48900, Note_on_c, 13, 64, 55
14, 48960, Note_on_c, 13, 64, 0
14, 48960, Note_on_c, 13, 62, 58
14, 49020, Note_on_c, 13, 62, 0
14, 49020, Note_on_c, 13, 62, 61
14, 49080, Note_on_c, 13, 62, 0
14, 49080, Note_on_c, 13, 57, 64
14, 49140, Note_on_c, 13, 57, 0
14, 49140, Note_on_c, 13, 57, 68
14, 49260, Note_on_c, 13, 57, 0
14, 49260, Note_on_c, 13, 57, 74
14, 49320, Note_on_c, 13, 57, 0
14, 49500, Note_on_c, 13, 62, 81
14, 49560, Note_on_c, 13, 62, 0
14, 49560, Note_on_c, 13, 57, 81
14, 49620, Note_on_c, 13, 57, 0
14, 49620, Note_on_c, 13, 54, 81
14, 49680, Note_on_c, 13, 54, 0
14, 49680, Note_on_c, 13, 50, 82
14, 49740, Note_on_c, 13, 50, 0
14, 49740, Note_on_c, 13, 62, 82
14, 49860, Note_on_c, 13, 62, 0
14, 49860, Note_on_c, 13, 62, 83
14, 49980, Note_on_c, 13, 62, 0
14, 50220, Note_on_c, 13, 64, 84
14, 50280, Note_on_c, 13, 64, 0
14, 50280, Note_on_c, 13, 59, 85
14, 50340, Note_on_c, 13, 59, 0
14, 50340, Note_on_c, 13, 56, 85
14, 50400, Note_on_c, 13, 56, 0
14, 50400, Note_on_c, 13, 52, 85
14, 50460, Note_on_c, 13, 52, 0
14, 50460, Note_on_c, 13, 64, 86
14, 50580, Note_on_c, 13, 64, 0
14, 50580, Note_on_c, 13, 64, 86
14, 50700, Note_on_c, 13, 64, 0
14, 50940, Note_on_c, 13, 66, 88
14, 51000, Note_on_c, 13, 66, 0
14, 51000, Note_on_c, 13, 61, 88
14, 51060, Note_on_c, 13, 61, 0
14, 51060, Note_on_c, 13, 58, 89
14, 51120, Note_on_c, 13, 58, 0
14, 51120, Note_on_c, 13, 54, 89
14, 51180, Note_on_c, 13, 54, 0
14, 51180, Note_on_c, 13, 66, 89
14, 51240, Note_on_c, 13, 66, 0
14, 51240, Note_on_c, 13, 61, 90
14, 51300, Note_on_c, 13, 61, 0
14, 51300, Note_on_c, 13, 62, 80
14, 51420, Note_on_c, 13, 62, 0
14, 51480, Note_on_c, 13, 59, 82
14, 51600, Note_on_c, 13, 59, 0
14, 51600, Note_on_c, 13, 62, 84
14, 51635, Note_on_c, 13, 62, 0
14, 51660, Note_on_c, 13, 62, 84
14, 51720, Note_on_c, 13, 62, 0
14, 51720, Note_on_c, 13, 64, 85
14, 51755, Note_on_c, 13, 64, 0
14, 51780, Note_on_c, 13, 64, 86
14, 51900, Note_on_c, 13, 64, 0
14, 51900, Note_on_c, 13, 64, 87
14, 52020, Note_on_c, 13, 64, 0
14, 52020, Note_on_c, 13, 62, 89
14, 52055, Note_on_c, 13, 62, 0
14, 52080, Note_on_c, 13, 57, 89
14, 52140, Note_on_c, 13, 57, 0
14, 52140, Note_on_c, 13, 62, 90
14, 52320, Note_on_c, 13, 62, 0
14, 52320, Note_on_c, 13, 61, 92
14, 52350, Note_on_c, 13, 61, 0
14, 52350, Note_on_c, 13, 59, 93
14, 52380, Note_on_c, 13, 59, 0
14, 52380, Note_on_c, 13, 57, 93
14, 52440, Note_on_c, 13, 57, 0
14, 52440, Note_on_c, 13, 57, 94
14, 52470, Note_on_c, 13, 57, 0
14, 52470, Note_on_c, 13, 59, 94
14, 52500, Note_on_c, 13, 59, 0
14, 52500, Note_on_c, 13, 61, 94
14, 52560, Note_on_c, 13, 61, 0
14, 52560, Note_on_c, 13, 57, 95
14, 52620, Note_on_c, 13, 57, 0
14, 52620, Note_on_c, 13, 64, 96
14, 52740, Note_on_c, 13, 64, 0
14, 52740, Note_on_c, 13, 64, 97
14, 52811, Note_on_c, 13, 64, 0
14, 52920, Note_on_c, 13, 61, 99
14, 52980, Note_on_c, 13, 61, 0
14, 52980, Note_on_c, 13, 64, 100
14, 53040, Note_on_c, 13, 64, 0
14, 53040, Note_on_c, 13, 55, 101
14, 53070, Note_on_c, 13, 55, 0
14, 53070, Note_on_c, 13, 54, 101
14, 53100, Note_on_c, 13, 54, 0
14, 53100, Note_on_c, 13, 55, 101
14, 53160, Note_on_c, 13, 55, 0
14, 53160, Note_on_c, 13, 57, 102
14, 53220, Note_on_c, 13, 57, 0
14, 53220, Note_on_c, 13, 54, 103
14, 53280, Note_on_c, 13, 54, 0
14, 53400, Note_on_c, 13, 55, 105
14, 53460, Note_on_c, 13, 55, 0
14, 53460, Note_on_c, 13, 60, 106
14, 53580, Note_on_c, 13, 60, 0
14, 53640, Note_on_c, 13, 57, 108
14, 53700, Note_on_c, 13, 57, 0
14, 53700, Note_on_c, 13, 59, 109
14, 53880, Note_on_c, 13, 59, 0
14, 53880, Note_on_c, 13, 57, 111
14, 53910, Note_on_c, 13, 57, 0
14, 53910, Note_on_c, 13, 55, 111
14, 53940, Note_on_c, 13, 55, 0
14, 53940, Note_on_c, 13, 57, 111
14, 54000, Note_on_c, 13, 57, 0
14, 54000, Note_on_c, 13, 57, 112
14, 54060, Note_on_c, 13, 57, 0
14, 54060, Note_on_c, 13, 50, 113
14, 54095, Note_on_c, 13, 50, 0
14, 54120, Note_on_c, 13, 62, 114
14, 54155, Note_on_c, 13, 62, 0
14, 54180, Note_on_c, 13, 62, 114
14, 54240, Note_on_c, 13, 62, 0
14, 54240, Note_on_c, 13, 64, 115
14, 54270, Note_on_c, 13, 64, 0
14, 54270, Note_on_c, 13, 66, 115
14, 54300, Note_on_c, 13, 66, 0
14, 54300, Note_on_c, 13, 67, 116
14, 54360, Note_on_c, 13, 67, 0
14, 54360, Note_on_c, 13, 64, 116
14, 54420, Note_on_c, 13, 64, 0
14, 54420, Note_on_c, 13, 66, 117
14, 54660, Note_on_c, 13, 66, 0
14, 55140, End_track
15, 0, Start_track
15, 0, MIDI_port, 0
15, 0, Title_t, "Bass"
15, 0, Program_c, 14, 52
15, 4500, Control_c, 14, 7, 127
15, 5220, Note_on_c, 14, 50, 76
15, 5255, Note_on_c, 14, 50, 0
15, 5280, Note_on_c, 14, 50, 77
15, 5315, Note_on_c, 14, 50, 0
15, 5340, Note_on_c, 14, 52, 77
15, 5375, Note_on_c, 14, 52, 0
15, 5400, Note_on_c, 14, 54, 78
15, 5435, Note_on_c, 14, 54, 0
15, 5460, Note_on_c, 14, 55, 79
15, 5490, Note_on_c, 14, 55, 0
15, 5490, Note_on_c, 14, 54, 80
15, 5520, Note_on_c, 14, 54, 0
15, 5520, Note_on_c, 14, 52, 80
15, 5550, Note_on_c, 14, 52, 0
15, 5550, Note_on_c, 14, 50, 81
15, 5580, Note_on_c, 14, 50, 0
15, 5580, Note_on_c, 14, 57, 81
15, 5615, Note_on_c, 14, 57, 0
15, 5640, Note_on_c, 14, 45, 82
15, 5675, Note_on_c, 14, 45, 0
15, 5700, Note_on_c, 14, 57, 83
15, 5735, Note_on_c, 14, 57, 0
15, 5760, Note_on_c, 14, 62, 84
15, 5795, Note_on_c, 14, 62, 0
15, 5820, Note_on_c, 14, 61, 85
15, 5855, Note_on_c, 14, 61, 0
15, 5880, Note_on_c, 14, 62, 86
15, 5915, Note_on_c, 14, 62, 0
15, 5940, Note_on_c, 14, 57, 87
15, 6060, Note_on_c, 14, 57, 0
15, 6060, Note_on_c, 14, 57, 89
15, 6095, Note_on_c, 14, 57, 0
15, 8100, Note_on_c, 14, 45, 71
15, 8135, Note_on_c, 14, 45, 0
15, 8160, Note_on_c, 14, 45, 72
15, 8195, Note_on_c, 14, 45, 0
15, 8220, Note_on_c, 14, 47, 72
15, 8255, Note_on_c, 14, 47, 0
15, 8280, Note_on_c, 14, 49, 73
15, 8340, Note_on_c, 14, 49, 0
15, 8340, Note_on_c, 14, 50, 73
15, 8370, Note_on_c, 14, 50, 0
15, 8370, Note_on_c, 14, 49, 74
15, 8400, Note_on_c, 14, 49, 0
15, 8400, Note_on_c, 14, 47, 74
15, 8430, Note_on_c, 14, 47, 0
15, 8430, Note_on_c, 14, 45, 74
15, 8460, Note_on_c, 14, 45, 0
15, 8460, Note_on_c, 14, 52, 75
15, 8495, Note_on_c, 14, 52, 0
15, 8520, Note_on_c, 14, 52, 75
15, 8555, Note_on_c, 14, 52, 0
15, 8580, Note_on_c, 14, 52, 76
15, 8615, Note_on_c, 14, 52, 0
15, 8640, Note_on_c, 14, 57, 76
15, 8675, Note_on_c, 14, 57, 0
15, 8700, Note_on_c, 14, 56, 77
15, 8735, Note_on_c, 14, 56, 0
15, 8760, Note_on_c, 14, 57, 78
15, 8795, Note_on_c, 14, 57, 0
15, 8820, Note_on_c, 14, 52, 78
15, 8940, Note_on_c, 14, 52, 0
15, 8940, Note_on_c, 14, 52, 79
15, 8975, Note_on_c, 14, 52, 0
15, 9060, Note_on_c, 14, 49, 43
15, 9095, Note_on_c, 14, 49, 0
15, 9120, Note_on_c, 14, 49, 46
15, 9155, Note_on_c, 14, 49, 0
15, 9180, Note_on_c, 14, 54, 49
15, 9300, Note_on_c, 14, 54, 0
15, 9300, Note_on_c, 14, 52, 54
15, 9335, Note_on_c, 14, 52, 0
15, 9360, Note_on_c, 14, 50, 57
15, 9390, Note_on_c, 14, 50, 0
15, 9390, Note_on_c, 14, 49, 58
15, 9420, Note_on_c, 14, 49, 0
15, 9420, Note_on_c, 14, 50, 60
15, 9450, Note_on_c, 14, 50, 0
15, 9450, Note_on_c, 14, 52, 61
15, 9480, Note_on_c, 14, 52, 0
15, 9480, Note_on_c, 14, 54, 63
15, 9515, Note_on_c, 14, 54, 0
15, 9540, Note_on_c, 14, 47, 66
15, 9575, Note_on_c, 14, 47, 0
15, 9780, Note_on_c, 14, 47, 52
15, 9815, Note_on_c, 14, 47, 0
15, 9840, Note_on_c, 14, 47, 54
15, 9875, Note_on_c, 14, 47, 0
15, 9900, Note_on_c, 14, 52, 56
15, 10020, Note_on_c, 14, 52, 0
15, 10020, Note_on_c, 14, 50, 60
15, 10055, Note_on_c, 14, 50, 0
15, 10080, Note_on_c, 14, 49, 63
15, 10110, Note_on_c, 14, 49, 0
15, 10110, Note_on_c, 14, 47, 64
15, 10140, Note_on_c, 14, 47, 0
15, 10140, Note_on_c, 14, 49, 65
15, 10170, Note_on_c, 14, 49, 0
15, 10170, Note_on_c, 14, 50, 66
15, 10200, Note_on_c, 14, 50, 0
15, 10200, Note_on_c, 14, 52, 67
15, 10235, Note_on_c, 14, 52, 0
15, 10260, Note_on_c, 14, 45, 69
15, 10295, Note_on_c, 14, 45, 0
15, 10320, Note_on_c, 14, 57, 71
15, 10350, Note_on_c, 14, 57, 0
15, 10350, Note_on_c, 14, 59, 72
15, 10380, Note_on_c, 14, 59, 0
15, 10380, Note_on_c, 14, 61, 73
15, 10410, Note_on_c, 14, 61, 0
15, 10410, Note_on_c, 14, 57, 74
15, 10440, Note_on_c, 14, 57, 0
15, 10440, Note_on_c, 14, 62, 64
15, 10475, Note_on_c, 14, 62, 0
15, 10500, Note_on_c, 14, 59, 65
15, 10535, Note_on_c, 14, 59, 0
15, 10560, Note_on_c, 14, 64, 66
15, 10595, Note_on_c, 14, 64, 0
15, 10620, Note_on_c, 14, 54, 66
15, 10680, Note_on_c, 14, 54, 0
15, 10680, Note_on_c, 14, 57, 67
15, 10715, Note_on_c, 14, 57, 0
15, 10740, Note_on_c, 14, 62, 68
15, 10775, Note_on_c, 14, 62, 0
15, 10800, Note_on_c, 14, 59, 69
15, 10860, Note_on_c, 14, 59, 0
15, 10860, Note_on_c, 14, 56, 69
15, 10895, Note_on_c, 14, 56, 0
15, 10920, Note_on_c, 14, 61, 70
15, 10980, Note_on_c, 14, 61, 0
15, 10980, Note_on_c, 14, 50, 71
15, 11040, Note_on_c, 14, 50, 0
15, 11040, Note_on_c, 14, 54, 72
15, 11075, Note_on_c, 14, 54, 0
15, 11100, Note_on_c, 14, 59, 72
15, 11135, Note_on_c, 14, 59, 0
15, 11160, Note_on_c, 14, 56, 73
15, 11195, Note_on_c, 14, 56, 0
15, 11220, Note_on_c, 14, 52, 74
15, 11255, Note_on_c, 14, 52, 0
15, 11280, Note_on_c, 14, 57, 75
15, 11315, Note_on_c, 14, 57, 0
15, 11340, Note_on_c, 14, 50, 75
15, 11375, Note_on_c, 14, 50, 0
15, 11400, Note_on_c, 14, 52, 76
15, 11435, Note_on_c, 14, 52, 0
15, 11460, Note_on_c, 14, 54, 77
15, 11495, Note_on_c, 14, 54, 0
15, 11520, Note_on_c, 14, 52, 78
15, 11550, Note_on_c, 14, 52, 0
15, 11550, Note_on_c, 14, 50, 78
15, 11580, Note_on_c, 14, 50, 0
15, 11580, Note_on_c, 14, 52, 78
15, 11700, Note_on_c, 14, 52, 0
15, 11700, Control_c, 14, 7, 127
15, 11700, Note_on_c, 14, 45, 64
15, 11820, Note_on_c, 14, 45, 0
15, 12420, Control_c, 14, 7, 127
15, 13140, Note_on_c, 14, 54, 55
15, 13200, Note_on_c, 14, 54, 0
15, 13200, Note_on_c, 14, 47, 56
15, 13260, Note_on_c, 14, 47, 0
15, 13260, Note_on_c, 14, 54, 58
15, 13320, Note_on_c, 14, 54, 0
15, 13320, Note_on_c, 14, 55, 59
15, 13380, Note_on_c, 14, 55, 0
15, 13380, Note_on_c, 14, 57, 60
15, 13410, Note_on_c, 14, 57, 0
15, 13410, Note_on_c, 14, 55, 61
15, 13440, Note_on_c, 14, 55, 0
15, 13440, Note_on_c, 14, 54, 61
15, 13470, Note_on_c, 14, 54, 0
15, 13470, Note_on_c, 14, 55, 62
15, 13500, Note_on_c, 14, 55, 0
15, 13500, Note_on_c, 14, 57, 63
15, 13535, Note_on_c, 14, 57, 0
15, 13560, Note_on_c, 14, 62, 64
15, 13595, Note_on_c, 14, 62, 0
15, 13620, Note_on_c, 14, 54, 65
15, 13655, Note_on_c, 14, 54, 0
15, 13680, Note_on_c, 14, 55, 66
15, 13740, Note_on_c, 14, 55, 0
15, 13740, Note_on_c, 14, 57, 68
15, 13775, Note_on_c, 14, 57, 0
15, 13800, Note_on_c, 14, 45, 69
15, 13835, Note_on_c, 14, 45, 0
15, 13860, Control_c, 14, 7, 127
15, 13860, Note_on_c, 14, 50, 79
15, 13920, Note_on_c, 14, 50, 0
15, 13920, Note_on_c, 14, 62, 80
15, 13950, Note_on_c, 14, 62, 0
15, 13950, Note_on_c, 14, 61, 81
15, 13980, Note_on_c, 14, 61, 0
15, 13980, Note_on_c, 14, 62, 81
15, 14100, Note_on_c, 14, 62, 0
15, 14100, Note_on_c, 14, 61, 83
15, 14220, Note_on_c, 14, 61, 0
15, 14220, Note_on_c, 14, 62, 86
15, 14255, Note_on_c, 14, 62, 0
15, 14580, Note_on_c, 14, 50, 79
15, 14615, Note_on_c, 14, 50, 0
15, 14640, Note_on_c, 14, 50, 80
15, 14675, Note_on_c, 14, 50, 0
15, 14700, Note_on_c, 14, 52, 81
15, 14735, Note_on_c, 14, 52, 0
15, 14760, Note_on_c, 14, 54, 83
15, 14820, Note_on_c, 14, 54, 0
15, 14820, Note_on_c, 14, 55, 84
15, 14850, Note_on_c, 14, 55, 0
15, 14850, Note_on_c, 14, 54, 85
15, 14880, Note_on_c, 14, 54, 0
15, 14880, Note_on_c, 14, 52, 85
15, 14910, Note_on_c, 14, 52, 0
15, 14910, Note_on_c, 14, 50, 86
15, 14940, Note_on_c, 14, 50, 0
15, 14940, Note_on_c, 14, 57, 86
15, 14975, Note_on_c, 14, 57, 0
15, 15540, Note_on_c, 14, 54, 48
15, 15575, Note_on_c, 14, 54, 0
15, 15600, Note_on_c, 14, 54, 50
15, 15635, Note_on_c, 14, 54, 0
15, 15660, Note_on_c, 14, 59, 52
15, 15780, Note_on_c, 14, 59, 0
15, 15780, Note_on_c, 14, 57, 56
15, 15815, Note_on_c, 14, 57, 0
15, 15840, Note_on_c, 14, 55, 58
15, 15870, Note_on_c, 14, 55, 0
15, 15870, Note_on_c, 14, 54, 59
15, 15900, Note_on_c, 14, 54, 0
15, 15900, Note_on_c, 14, 55, 60
15, 15930, Note_on_c, 14, 55, 0
15, 15930, Note_on_c, 14, 57, 61
15, 15960, Note_on_c, 14, 57, 0
15, 15960, Note_on_c, 14, 59, 62
15, 15995, Note_on_c, 14, 59, 0
15, 16020, Note_on_c, 14, 52, 40
15, 16055, Note_on_c, 14, 52, 0
15, 16260, Note_on_c, 14, 52, 50
15, 16295, Note_on_c, 14, 52, 0
15, 16320, Note_on_c, 14, 52, 53
15, 16355, Note_on_c, 14, 52, 0
15, 16380, Note_on_c, 14, 57, 55
15, 16500, Note_on_c, 14, 57, 0
15, 16500, Note_on_c, 14, 55, 60
15, 16535, Note_on_c, 14, 55, 0
15, 16560, Note_on_c, 14, 54, 63
15, 16590, Note_on_c, 14, 54, 0
15, 16590, Note_on_c, 14, 52, 64
15, 16620, Note_on_c, 14, 52, 0
15, 16620, Note_on_c, 14, 54, 65
15, 16650, Note_on_c, 14, 54, 0
15, 16650, Note_on_c, 14, 55, 66
15, 16680, Note_on_c, 14, 55, 0
15, 16680, Note_on_c, 14, 57, 68
15, 16740, Note_on_c, 14, 57, 0
15, 16740, Control_c, 14, 7, 127
15, 16740, Note_on_c, 14, 50, 76
15, 16775, Note_on_c, 14, 50, 0
15, 16800, Note_on_c, 14, 50, 77
15, 16830, Note_on_c, 14, 50, 0
15, 16830, Note_on_c, 14, 52, 78
15, 16860, Note_on_c, 14, 52, 0
15, 16860, Note_on_c, 14, 54, 78
15, 16890, Note_on_c, 14, 54, 0
15, 16890, Note_on_c, 14, 50, 79
15, 16920, Note_on_c, 14, 50, 0
15, 16920, Note_on_c, 14, 55, 79
15, 16955, Note_on_c, 14, 55, 0
15, 16980, Note_on_c, 14, 52, 80
15, 17015, Note_on_c, 14, 52, 0
15, 17040, Note_on_c, 14, 57, 81
15, 17075, Note_on_c, 14, 57, 0
15, 17100, Note_on_c, 14, 47, 82
15, 17160, Note_on_c, 14, 47, 0
15, 17160, Note_on_c, 14, 50, 83
15, 17195, Note_on_c, 14, 50, 0
15, 17220, Note_on_c, 14, 55, 84
15, 17255, Note_on_c, 14, 55, 0
15, 17280, Note_on_c, 14, 52, 85
15, 17340, Note_on_c, 14, 52, 0
15, 17340, Note_on_c, 14, 49, 86
15, 17375, Note_on_c, 14, 49, 0
15, 17400, Note_on_c, 14, 54, 87
15, 17435, Note_on_c, 14, 54, 0
15, 17460, Note_on_c, 14, 55, 88
15, 17520, Note_on_c, 14, 55, 0
15, 17520, Note_on_c, 14, 59, 89
15, 17555, Note_on_c, 14, 59, 0
15, 17580, Note_on_c, 14, 64, 90
15, 17615, Note_on_c, 14, 64, 0
15, 17640, Note_on_c, 14, 61, 91
15, 17675, Note_on_c, 14, 61, 0
15, 17700, Note_on_c, 14, 57, 92
15, 17735, Note_on_c, 14, 57, 0
15, 17760, Note_on_c, 14, 62, 93
15, 17795, Note_on_c, 14, 62, 0
15, 17820, Note_on_c, 14, 55, 94
15, 17855, Note_on_c, 14, 55, 0
15, 17880, Note_on_c, 14, 57, 95
15, 17915, Note_on_c, 14, 57, 0
15, 17940, Note_on_c, 14, 59, 96
15, 17975, Note_on_c, 14, 59, 0
15, 18000, Note_on_c, 14, 57, 97
15, 18030, Note_on_c, 14, 57, 0
15, 18030, Note_on_c, 14, 55, 98
15, 18060, Note_on_c, 14, 55, 0
15, 18060, Note_on_c, 14, 57, 98
15, 18180, Note_on_c, 14, 57, 0
15, 18180, Note_on_c, 14, 50, 100
15, 18300, Note_on_c, 14, 50, 0
15, 18300, Note_on_c, 14, 62, 40
15, 18360, Note_on_c, 14, 62, 0
15, 18360, Note_on_c, 14, 50, 40
15, 18420, Note_on_c, 14, 50, 0
15, 18420, Note_on_c, 14, 48, 40
15, 18540, Note_on_c, 14, 48, 0
15, 18540, Note_on_c, 14, 47, 40
15, 18600, Note_on_c, 14, 47, 0
15, 18600, Note_on_c, 14, 47, 40
15, 18660, Note_on_c, 14, 47, 0
15, 18660, Note_on_c, 14, 45, 30
15, 18780, Note_on_c, 14, 45, 0
15, 18780, Note_on_c, 14, 50, 32
15, 18900, Note_on_c, 14, 50, 0
15, 18900, Note_on_c, 14, 43, 34
15, 19020, Note_on_c, 14, 43, 0
15, 19740, Note_on_c, 14, 55, 49
15, 20460, Note_on_c, 14, 55, 0
15, 20520, Note_on_c, 14, 45, 63
15, 20640, Note_on_c, 14, 45, 0
15, 20640, Note_on_c, 14, 47, 64
15, 20675, Note_on_c, 14, 47, 0
15, 20700, Note_on_c, 14, 47, 64
15, 20760, Note_on_c, 14, 47, 0
15, 20760, Note_on_c, 14, 48, 64
15, 20795, Note_on_c, 14, 48, 0
15, 20820, Note_on_c, 14, 48, 64
15, 20880, Note_on_c, 14, 48, 0
15, 20880, Note_on_c, 14, 47, 64
15, 20915, Note_on_c, 14, 47, 0
15, 20940, Note_on_c, 14, 48, 64
15, 21000, Note_on_c, 14, 48, 0
15, 21000, Note_on_c, 14, 50, 64
15, 21035, Note_on_c, 14, 50, 0
15, 21060, Note_on_c, 14, 47, 64
15, 22020, Note_on_c, 14, 47, 0
15, 22200, Note_on_c, 14, 59, 68
15, 22320, Note_on_c, 14, 59, 0
15, 22320, Note_on_c, 14, 57, 69
15, 22355, Note_on_c, 14, 57, 0
15, 22380, Note_on_c, 14, 57, 69
15, 22440, Note_on_c, 14, 57, 0
15, 22440, Note_on_c, 14, 55, 70
15, 22475, Note_on_c, 14, 55, 0
15, 22500, Note_on_c, 14, 57, 64
15, 22800, Note_on_c, 14, 57, 0
15, 22800, Note_on_c, 14, 59, 64
15, 22835, Note_on_c, 14, 59, 0
15, 22860, Note_on_c, 14, 59, 64
15, 22920, Note_on_c, 14, 59, 0
15, 22920, Note_on_c, 14, 57, 64
15, 22955, Note_on_c, 14, 57, 0
15, 22980, Note_on_c, 14, 55, 64
15, 23040, Note_on_c, 14, 55, 0
15, 23040, Note_on_c, 14, 54, 65
15, 23075, Note_on_c, 14, 54, 0
15, 23100, Note_on_c, 14, 54, 67
15, 23160, Note_on_c, 14, 54, 0
15, 23160, Note_on_c, 14, 52, 68
15, 23195, Note_on_c, 14, 52, 0
15, 23220, Note_on_c, 14, 52, 70
15, 23280, Note_on_c, 14, 52, 0
15, 23280, Note_on_c, 14, 50, 71
15, 23315, Note_on_c, 14, 50, 0
15, 23340, Note_on_c, 14, 50, 72
15, 23400, Note_on_c, 14, 50, 0
15, 23400, Note_on_c, 14, 48, 74
15, 23435, Note_on_c, 14, 48, 0
15, 23460, Note_on_c, 14, 48, 75
15, 23520, Note_on_c, 14, 48, 0
15, 23520, Note_on_c, 14, 47, 75
15, 23640, Note_on_c, 14, 47, 0
15, 23640, Note_on_c, 14, 45, 75
15, 23760, Note_on_c, 14, 45, 0
15, 23760, Note_on_c, 14, 43, 75
15, 23790, Note_on_c, 14, 43, 0
15, 23790, Note_on_c, 14, 42, 75
15, 23820, Note_on_c, 14, 42, 0
15, 23820, Note_on_c, 14, 43, 75
15, 23880, Note_on_c, 14, 43, 0
15, 23880, Note_on_c, 14, 45, 75
15, 23940, Note_on_c, 14, 45, 0
15, 23940, Note_on_c, 14, 47, 67
15, 24180, Note_on_c, 14, 47, 0
15, 24180, Note_on_c, 14, 52, 53
15, 24300, Note_on_c, 14, 52, 0
15, 32760, Note_on_c, 14, 52, 40
15, 32880, Note_on_c, 14, 52, 0
15, 32880, Note_on_c, 14, 54, 40
15, 32915, Note_on_c, 14, 54, 0
15, 32940, Note_on_c, 14, 54, 40
15, 33000, Note_on_c, 14, 54, 0
15, 33000, Note_on_c, 14, 55, 40
15, 33035, Note_on_c, 14, 55, 0
15, 33060, Note_on_c, 14, 55, 40
15, 33120, Note_on_c, 14, 55, 0
15, 33120, Note_on_c, 14, 54, 40
15, 33155, Note_on_c, 14, 54, 0
15, 33180, Note_on_c, 14, 55, 40
15, 33240, Note_on_c, 14, 55, 0
15, 33240, Note_on_c, 14, 57, 40
15, 33300, Note_on_c, 14, 57, 0
15, 33300, Note_on_c, 14, 54, 40
15, 33335, Note_on_c, 14, 54, 0
15, 33360, Note_on_c, 14, 52, 40
15, 33420, Note_on_c, 14, 52, 0
15, 33420, Note_on_c, 14, 50, 40
15, 33480, Note_on_c, 14, 50, 0
15, 33480, Note_on_c, 14, 49, 40
15, 33540, Note_on_c, 14, 49, 0
15, 33540, Note_on_c, 14, 47, 40
15, 33575, Note_on_c, 14, 47, 0
15, 33600, Note_on_c, 14, 57, 40
15, 33630, Note_on_c, 14, 57, 0
15, 33630, Note_on_c, 14, 56, 40
15, 33660, Note_on_c, 14, 56, 0
15, 33660, Note_on_c, 14, 57, 40
15, 33720, Note_on_c, 14, 57, 0
15, 33720, Note_on_c, 14, 50, 40
15, 33780, Note_on_c, 14, 50, 0
15, 33780, Note_on_c, 14, 49, 40
15, 33900, Note_on_c, 14, 49, 0
15, 33900, Note_on_c, 14, 47, 40
15, 34020, Note_on_c, 14, 47, 0
15, 34020, Note_on_c, 14, 45, 40
15, 34055, Note_on_c, 14, 45, 0
15, 34080, Note_on_c, 14, 45, 40
15, 34140, Note_on_c, 14, 45, 0
15, 34140, Note_on_c, 14, 49, 40
15, 34200, Note_on_c, 14, 49, 0
15, 34200, Note_on_c, 14, 52, 40
15, 34260, Note_on_c, 14, 52, 0
15, 34260, Note_on_c, 14, 57, 40
15, 34320, Note_on_c, 14, 57, 0
15, 34320, Note_on_c, 14, 59, 40
15, 34350, Note_on_c, 14, 59, 0
15, 34350, Note_on_c, 14, 60, 40
15, 34380, Note_on_c, 14, 60, 0
15, 34380, Note_on_c, 14, 59, 40
15, 34410, Note_on_c, 14, 59, 0
15, 34410, Note_on_c, 14, 57, 40
15, 34440, Note_on_c, 14, 57, 0
15, 34440, Note_on_c, 14, 55, 40
15, 34470, Note_on_c, 14, 55, 0
15, 34470, Note_on_c, 14, 54, 40
15, 34500, Note_on_c, 14, 54, 0
15, 34500, Note_on_c, 14, 55, 35
15, 34530, Note_on_c, 14, 55, 0
15, 34530, Note_on_c, 14, 59, 35
15, 34560, Note_on_c, 14, 59, 0
15, 34560, Note_on_c, 14, 64, 36
15, 34590, Note_on_c, 14, 64, 0
15, 34590, Note_on_c, 14, 62, 36
15, 34620, Note_on_c, 14, 62, 0
15, 34620, Note_on_c, 14, 60, 37
15, 34650, Note_on_c, 14, 60, 0
15, 34650, Note_on_c, 14, 59, 37
15, 34680, Note_on_c, 14, 59, 0
15, 34680, Note_on_c, 14, 57, 38
15, 34710, Note_on_c, 14, 57, 0
15, 34710, Note_on_c, 14, 55, 38
15, 34740, Note_on_c, 14, 55, 0
15, 34740, Note_on_c, 14, 53, 39
15, 34770, Note_on_c, 14, 53, 0
15, 34770, Note_on_c, 14, 57, 39
15, 34800, Note_on_c, 14, 57, 0
15, 34800, Note_on_c, 14, 62, 40
15, 34830, Note_on_c, 14, 62, 0
15, 34830, Note_on_c, 14, 60, 40
15, 34860, Note_on_c, 14, 60, 0
15, 34860, Note_on_c, 14, 59, 40
15, 34890, Note_on_c, 14, 59, 0
15, 34890, Note_on_c, 14, 57, 41
15, 34920, Note_on_c, 14, 57, 0
15, 34920, Note_on_c, 14, 56, 41
15, 34950, Note_on_c, 14, 56, 0
15, 34950, Note_on_c, 14, 53, 42
15, 34980, Note_on_c, 14, 53, 0
15, 34980, Note_on_c, 14, 52, 42
15, 35010, Note_on_c, 14, 52, 0
15, 35010, Note_on_c, 14, 56, 43
15, 35040, Note_on_c, 14, 56, 0
15, 35040, Note_on_c, 14, 57, 43
15, 35070, Note_on_c, 14, 57, 0
15, 35070, Note_on_c, 14, 59, 44
15, 35100, Note_on_c, 14, 59, 0
15, 35100, Note_on_c, 14, 60, 44
15, 35130, Note_on_c, 14, 60, 0
15, 35130, Note_on_c, 14, 62, 45
15, 35160, Note_on_c, 14, 62, 0
15, 35160, Note_on_c, 14, 60, 45
15, 35190, Note_on_c, 14, 60, 0
15, 35190, Note_on_c, 14, 59, 45
15, 35220, Note_on_c, 14, 59, 0
15, 35220, Note_on_c, 14, 57, 46
15, 35250, Note_on_c, 14, 57, 0
15, 35250, Note_on_c, 14, 55, 46
15, 35280, Note_on_c, 14, 55, 0
15, 35280, Note_on_c, 14, 54, 47
15, 35310, Note_on_c, 14, 54, 0
15, 35310, Note_on_c, 14, 57, 47
15, 35340, Note_on_c, 14, 57, 0
15, 35340, Note_on_c, 14, 55, 48
15, 35370, Note_on_c, 14, 55, 0
15, 35370, Note_on_c, 14, 54, 48
15, 35400, Note_on_c, 14, 54, 0
15, 35400, Note_on_c, 14, 52, 49
15, 35430, Note_on_c, 14, 52, 0
15, 35430, Note_on_c, 14, 51, 49
15, 35460, Note_on_c, 14, 51, 0
15, 35460, Note_on_c, 14, 59, 50
15, 35520, Note_on_c, 14, 59, 0
15, 35520, Note_on_c, 14, 52, 50
15, 35580, Note_on_c, 14, 52, 0
15, 35580, Note_on_c, 14, 47, 51
15, 35700, Note_on_c, 14, 47, 0
15, 35700, Note_on_c, 14, 52, 53
15, 35735, Note_on_c, 14, 52, 0
15, 35760, Note_on_c, 14, 55, 54
15, 35790, Note_on_c, 14, 55, 0
15, 35790, Note_on_c, 14, 54, 54
15, 35820, Note_on_c, 14, 54, 0
15, 35820, Note_on_c, 14, 52, 55
15, 35880, Note_on_c, 14, 52, 0
15, 35880, Note_on_c, 14, 50, 56
15, 35940, Note_on_c, 14, 50, 0
15, 35940, Note_on_c, 14, 49, 57
15, 36000, Note_on_c, 14, 49, 0
15, 36000, Note_on_c, 14, 50, 58
15, 36030, Note_on_c, 14, 50, 0
15, 36030, Note_on_c, 14, 52, 58
15, 36060, Note_on_c, 14, 52, 0
15, 36060, Note_on_c, 14, 54, 59
15, 36180, Note_on_c, 14, 54, 0
15, 36180, Note_on_c, 14, 47, 60
15, 36300, Note_on_c, 14, 47, 0
15, 36600, Note_on_c, 14, 49, 65
15, 36660, Note_on_c, 14, 49, 0
15, 36660, Note_on_c, 14, 54, 66
15, 36780, Note_on_c, 14, 54, 0
15, 36780, Note_on_c, 14, 54, 67
15, 37020, Note_on_c, 14, 54, 0
15, 37020, Note_on_c, 14, 54, 68
15, 37140, Note_on_c, 14, 54, 0
15, 37140, Note_on_c, 14, 47, 69
15, 37260, Note_on_c, 14, 47, 0
15, 37560, Note_on_c, 14, 47, 72
15, 37620, Note_on_c, 14, 47, 0
15, 37620, Note_on_c, 14, 52, 73
15, 37740, Note_on_c, 14, 52, 0
15, 37740, Note_on_c, 14, 52, 74
15, 37980, Note_on_c, 14, 52, 0
15, 37980, Note_on_c, 14, 52, 75
15, 38100, Note_on_c, 14, 52, 0
15, 38100, Note_on_c, 14, 45, 76
15, 38220, Note_on_c, 14, 45, 0
15, 38520, Note_on_c, 14, 45, 65
15, 38580, Note_on_c, 14, 45, 0
15, 38580, Note_on_c, 14, 50, 65
15, 38700, Note_on_c, 14, 50, 0
15, 38700, Note_on_c, 14, 50, 66
15, 38940, Note_on_c, 14, 50, 0
15, 38940, Note_on_c, 14, 50, 67
15, 39060, Note_on_c, 14, 50, 0
15, 39060, Note_on_c, 14, 43, 67
15, 39180, Note_on_c, 14, 43, 0
15, 39240, Note_on_c, 14, 55, 68
15, 39300, Note_on_c, 14, 55, 0
15, 39300, Note_on_c, 14, 55, 68
15, 39360, Note_on_c, 14, 55, 0
15, 39360, Note_on_c, 14, 54, 68
15, 39390, Note_on_c, 14, 54, 0
15, 39390, Note_on_c, 14, 52, 68
15, 39420, Note_on_c, 14, 52, 0
15, 39420, Note_on_c, 14, 54, 69
15, 39480, Note_on_c, 14, 54, 0
15, 39480, Note_on_c, 14, 55, 69
15, 39540, Note_on_c, 14, 55, 0
15, 39540, Note_on_c, 14, 57, 69
15, 39660, Note_on_c, 14, 57, 0
15, 39660, Note_on_c, 14, 45, 70
15, 39780, Note_on_c, 14, 45, 0
15, 39780, Note_on_c, 14, 50, 64
15, 39840, Note_on_c, 14, 50, 0
15, 39840, Note_on_c, 14, 54, 64
15, 39870, Note_on_c, 14, 54, 0
15, 39870, Note_on_c, 14, 52, 64
15, 39900, Note_on_c, 14, 52, 0
15, 39900, Note_on_c, 14, 50, 64
15, 39960, Note_on_c, 14, 50, 0
15, 39960, Note_on_c, 14, 49, 64
15, 40020, Note_on_c, 14, 49, 0
15, 40020, Note_on_c, 14, 47, 64
15, 40080, Note_on_c, 14, 47, 0
15, 40080, Note_on_c, 14, 49, 64
15, 40110, Note_on_c, 14, 49, 0
15, 40110, Note_on_c, 14, 50, 64
15, 40140, Note_on_c, 14, 50, 0
15, 40140, Note_on_c, 14, 52, 64
15, 40260, Note_on_c, 14, 52, 0
15, 40260, Note_on_c, 14, 45, 64
15, 40320, Note_on_c, 14, 45, 0
15, 43560, Note_on_c, 14, 50, 64
15, 43680, Note_on_c, 14, 50, 0
15, 43680, Note_on_c, 14, 52, 64
15, 43715, Note_on_c, 14, 52, 0
15, 43740, Note_on_c, 14, 52, 64
15, 43800, Note_on_c, 14, 52, 0
15, 43800, Note_on_c, 14, 53, 64
15, 43835, Note_on_c, 14, 53, 0
15, 43860, Note_on_c, 14, 53, 64
15, 43920, Note_on_c, 14, 53, 0
15, 43920, Note_on_c, 14, 52, 64
15, 43955, Note_on_c, 14, 52, 0
15, 43980, Note_on_c, 14, 53, 64
15, 44040, Note_on_c, 14, 53, 0
15, 44040, Note_on_c, 14, 55, 64
15, 44075, Note_on_c, 14, 55, 0
15, 44100, Note_on_c, 14, 52, 64
15, 44160, Note_on_c, 14, 52, 0
15, 44160, Note_on_c, 14, 50, 64
15, 44220, Note_on_c, 14, 50, 0
15, 44220, Note_on_c, 14, 48, 64
15, 44280, Note_on_c, 14, 48, 0
15, 44280, Note_on_c, 14, 47, 64
15, 44340, Note_on_c, 14, 47, 0
15, 44340, Note_on_c, 14, 45, 64
15, 44375, Note_on_c, 14, 45, 0
15, 44400, Note_on_c, 14, 55, 64
15, 44430, Note_on_c, 14, 55, 0
15, 44430, Note_on_c, 14, 54, 64
15, 44460, Note_on_c, 14, 54, 0
15, 44460, Note_on_c, 14, 55, 64
15, 44520, Note_on_c, 14, 55, 0
15, 44520, Note_on_c, 14, 48, 64
15, 44580, Note_on_c, 14, 48, 0
15, 44580, Note_on_c, 14, 47, 64
15, 44700, Note_on_c, 14, 47, 0
15, 44700, Note_on_c, 14, 45, 65
15, 44820, Note_on_c, 14, 45, 0
15, 44820, Note_on_c, 14, 43, 66
15, 44855, Note_on_c, 14, 43, 0
15, 44880, Note_on_c, 14, 43, 67
15, 44940, Note_on_c, 14, 43, 0
15, 44940, Note_on_c, 14, 47, 67
15, 45000, Note_on_c, 14, 47, 0
15, 45000, Note_on_c, 14, 50, 68
15, 45060, Note_on_c, 14, 50, 0
15, 45060, Note_on_c, 14, 55, 68
15, 45120, Note_on_c, 14, 55, 0
15, 45120, Note_on_c, 14, 57, 69
15, 45150, Note_on_c, 14, 57, 0
15, 45150, Note_on_c, 14, 59, 69
15, 45180, Note_on_c, 14, 59, 0
15, 45180, Note_on_c, 14, 57, 69
15, 45210, Note_on_c, 14, 57, 0
15, 45210, Note_on_c, 14, 55, 69
15, 45240, Note_on_c, 14, 55, 0
15, 45240, Note_on_c, 14, 54, 70
15, 45270, Note_on_c, 14, 54, 0
15, 45270, Note_on_c, 14, 52, 70
15, 45300, Note_on_c, 14, 52, 0
15, 45300, Note_on_c, 14, 54, 70
15, 45330, Note_on_c, 14, 54, 0
15, 45330, Note_on_c, 14, 57, 70
15, 45360, Note_on_c, 14, 57, 0
15, 45360, Note_on_c, 14, 62, 71
15, 45390, Note_on_c, 14, 62, 0
15, 45390, Note_on_c, 14, 60, 71
15, 45420, Note_on_c, 14, 60, 0
15, 45420, Note_on_c, 14, 59, 71
15, 45450, Note_on_c, 14, 59, 0
15, 45450, Note_on_c, 14, 57, 71
15, 45480, Note_on_c, 14, 57, 0
15, 45480, Note_on_c, 14, 55, 72
15, 45510, Note_on_c, 14, 55, 0
15, 45510, Note_on_c, 14, 54, 72
15, 45540, Note_on_c, 14, 54, 0
15, 45540, Note_on_c, 14, 54, 72
15, 45570, Note_on_c, 14, 54, 0
15, 45570, Note_on_c, 14, 57, 72
15, 45600, Note_on_c, 14, 57, 0
15, 45600, Note_on_c, 14, 60, 73
15, 45630, Note_on_c, 14, 60, 0
15, 45630, Note_on_c, 14, 59, 73
15, 45660, Note_on_c, 14, 59, 0
15, 45660, Note_on_c, 14, 57, 73
15, 45690, Note_on_c, 14, 57, 0
15, 45690, Note_on_c, 14, 55, 73
15, 45720, Note_on_c, 14, 55, 0
15, 45720, Note_on_c, 14, 54, 74
15, 45750, Note_on_c, 14, 54, 0
15, 45750, Note_on_c, 14, 52, 74
15, 45780, Note_on_c, 14, 52, 0
15, 45780, Note_on_c, 14, 50, 74
15, 45810, Note_on_c, 14, 50, 0
15, 45810, Note_on_c, 14, 54, 74
15, 45840, Note_on_c, 14, 54, 0
15, 45840, Note_on_c, 14, 55, 75
15, 45870, Note_on_c, 14, 55, 0
15, 45870, Note_on_c, 14, 57, 75
15, 45900, Note_on_c, 14, 57, 0
15, 45900, Note_on_c, 14, 59, 75
15, 45930, Note_on_c, 14, 59, 0
15, 45930, Note_on_c, 14, 60, 75
15, 45960, Note_on_c, 14, 60, 0
15, 45960, Note_on_c, 14, 59, 76
15, 45990, Note_on_c, 14, 59, 0
15, 45990, Note_on_c, 14, 57, 76
15, 46020, Note_on_c, 14, 57, 0
15, 46020, Note_on_c, 14, 55, 76
15, 46050, Note_on_c, 14, 55, 0
15, 46050, Note_on_c, 14, 54, 76
15, 46080, Note_on_c, 14, 54, 0
15, 46080, Note_on_c, 14, 52, 77
15, 46110, Note_on_c, 14, 52, 0
15, 46110, Note_on_c, 14, 55, 77
15, 46140, Note_on_c, 14, 55, 0
15, 46140, Note_on_c, 14, 54, 77
15, 46170, Note_on_c, 14, 54, 0
15, 46170, Note_on_c, 14, 52, 77
15, 46200, Note_on_c, 14, 52, 0
15, 46200, Note_on_c, 14, 50, 78
15, 46230, Note_on_c, 14, 50, 0
15, 46230, Note_on_c, 14, 49, 78
15, 46260, Note_on_c, 14, 49, 0
15, 46260, Note_on_c, 14, 57, 78
15, 46320, Note_on_c, 14, 57, 0
15, 46320, Note_on_c, 14, 50, 79
15, 46380, Note_on_c, 14, 50, 0
15, 46380, Note_on_c, 14, 45, 79
15, 46500, Note_on_c, 14, 45, 0
15, 46500, Note_on_c, 14, 50, 85
15, 46620, Note_on_c, 14, 50, 0
15, 47520, Note_on_c, 14, 52, 65
15, 47640, Note_on_c, 14, 52, 0
15, 47640, Note_on_c, 14, 50, 66
15, 47700, Note_on_c, 14, 50, 0
15, 47700, Note_on_c, 14, 49, 67
15, 47760, Note_on_c, 14, 49, 0
15, 47760, Note_on_c, 14, 50, 68
15, 47790, Note_on_c, 14, 50, 0
15, 47790, Note_on_c, 14, 52, 68
15, 47820, Note_on_c, 14, 52, 0
15, 47820, Note_on_c, 14, 54, 69
15, 47940, Note_on_c, 14, 54, 0
15, 47940, Note_on_c, 14, 47, 70
15, 48060, Note_on_c, 14, 47, 0
15, 48060, Note_on_c, 14, 47, 40
15, 48420, Note_on_c, 14, 47, 0
15, 48540, Note_on_c, 14, 52, 36
15, 48900, Note_on_c, 14, 52, 0
15, 49020, Note_on_c, 14, 57, 61
15, 49380, Note_on_c, 14, 57, 0
15, 49380, Note_on_c, 14, 62, 80
15, 49500, Note_on_c, 14, 62, 0
15, 49500, Note_on_c, 14, 50, 81
15, 49620, Note_on_c, 14, 50, 0
15, 49620, Note_on_c, 14, 50, 81
15, 49740, Note_on_c, 14, 50, 0
15, 49740, Note_on_c, 14, 50, 82
15, 49860, Note_on_c, 14, 50, 0
15, 49860, Note_on_c, 14, 55, 83
15, 49980, Note_on_c, 14, 55, 0
15, 50100, Note_on_c, 14, 52, 84
15, 50220, Note_on_c, 14, 52, 0
15, 50220, Note_on_c, 14, 52, 84
15, 50340, Note_on_c, 14, 52, 0
15, 50340, Note_on_c, 14, 52, 85
15, 50460, Note_on_c, 14, 52, 0
15, 50460, Note_on_c, 14, 52, 86
15, 50580, Note_on_c, 14, 52, 0
15, 50580, Note_on_c, 14, 57, 86
15, 50700, Note_on_c, 14, 57, 0
15, 50820, Note_on_c, 14, 54, 88
15, 50940, Note_on_c, 14, 54, 0
15, 50940, Note_on_c, 14, 54, 88
15, 51060, Note_on_c, 14, 54, 0
15, 51060, Note_on_c, 14, 54, 89
15, 51180, Note_on_c, 14, 54, 0
15, 51180, Note_on_c, 14, 54, 89
15, 51300, Note_on_c, 14, 54, 0
15, 51300, Note_on_c, 14, 59, 80
15, 51360, Note_on_c, 14, 59, 0
15, 51360, Note_on_c, 14, 57, 81
15, 51395, Note_on_c, 14, 57, 0
15, 51420, Note_on_c, 14, 57, 81
15, 51480, Note_on_c, 14, 57, 0
15, 51480, Note_on_c, 14, 55, 82
15, 51515, Note_on_c, 14, 55, 0
15, 51540, Note_on_c, 14, 55, 83
15, 51600, Note_on_c, 14, 55, 0
15, 51600, Note_on_c, 14, 54, 84
15, 51635, Note_on_c, 14, 54, 0
15, 51660, Note_on_c, 14, 54, 84
15, 51720, Note_on_c, 14, 54, 0
15, 51720, Note_on_c, 14, 52, 85
15, 51755, Note_on_c, 14, 52, 0
15, 51780, Note_on_c, 14, 52, 86
15, 51840, Note_on_c, 14, 52, 0
15, 51840, Note_on_c, 14, 50, 86
15, 51875, Note_on_c, 14, 50, 0
15, 51900, Note_on_c, 14, 52, 87
15, 51960, Note_on_c, 14, 52, 0
15, 51960, Note_on_c, 14, 45, 88
15, 51995, Note_on_c, 14, 45, 0
15, 52020, Note_on_c, 14, 50, 89
15, 52080, Note_on_c, 14, 50, 0
15, 52080, Note_on_c, 14, 52, 89
15, 52115, Note_on_c, 14, 52, 0
15, 52140, Note_on_c, 14, 54, 90
15, 52200, Note_on_c, 14, 54, 0
15, 52200, Note_on_c, 14, 50, 91
15, 52235, Note_on_c, 14, 50, 0
15, 52260, Note_on_c, 14, 52, 91
15, 52320, Note_on_c, 14, 52, 0
15, 52320, Note_on_c, 14, 50, 92
15, 52355, Note_on_c, 14, 50, 0
15, 52380, Note_on_c, 14, 49, 93
15, 52440, Note_on_c, 14, 49, 0
15, 52440, Note_on_c, 14, 54, 94
15, 52475, Note_on_c, 14, 54, 0
15, 52500, Note_on_c, 14, 52, 94
15, 52560, Note_on_c, 14, 52, 0
15, 52560, Note_on_c, 14, 50, 95
15, 52595, Note_on_c, 14, 50, 0
15, 52620, Note_on_c, 14, 52, 96
15, 52740, Note_on_c, 14, 52, 0
15, 52740, Note_on_c, 14, 45, 97
15, 52775, Note_on_c, 14, 45, 0
15, 52800, Note_on_c, 14, 57, 98
15, 52920, Note_on_c, 14, 57, 0
15, 52920, Note_on_c, 14, 55, 99
15, 52950, Note_on_c, 14, 55, 0
15, 52950, Note_on_c, 14, 54, 100
15, 52980, Note_on_c, 14, 54, 0
15, 52980, Note_on_c, 14, 52, 100
15, 53040, Note_on_c, 14, 52, 0
15, 53040, Note_on_c, 14, 50, 101
15, 53100, Note_on_c, 14, 50, 0
15, 53100, Note_on_c, 14, 49, 101
15, 53160, Note_on_c, 14, 49, 0
15, 53160, Note_on_c, 14, 45, 102
15, 53220, Note_on_c, 14, 45, 0
15, 53220, Note_on_c, 14, 50, 103
15, 53255, Note_on_c, 14, 50, 0
15, 53280, Note_on_c, 14, 50, 104
15, 53340, Note_on_c, 14, 50, 0
15, 53340, Note_on_c, 14, 55, 104
15, 53400, Note_on_c, 14, 55, 0
15, 53400, Note_on_c, 14, 52, 105
15, 53460, Note_on_c, 14, 52, 0
15, 53460, Note_on_c, 14, 57, 106
15, 53580, Note_on_c, 14, 57, 0
15, 53640, Note_on_c, 14, 50, 108
15, 53700, Note_on_c, 14, 50, 0
15, 53700, Note_on_c, 14, 55, 109
15, 53760, Note_on_c, 14, 55, 0
15, 53760, Note_on_c, 14, 50, 109
15, 53820, Note_on_c, 14, 50, 0
15, 53820, Note_on_c, 14, 55, 110
15, 54000, Note_on_c, 14, 55, 0
15, 54000, Note_on_c, 14, 54, 112
15, 54030, Note_on_c, 14, 54, 0
15, 54030, Note_on_c, 14, 52, 113
15, 54060, Note_on_c, 14, 52, 0
15, 54060, Note_on_c, 14, 54, 113
15, 54095, Note_on_c, 14, 54, 0
15, 54120, Note_on_c, 14, 55, 114
15, 54155, Note_on_c, 14, 55, 0
15, 54180, Note_on_c, 14, 57, 114
15, 54300, Note_on_c, 14, 57, 0
15, 54300, Note_on_c, 14, 45, 116
15, 54420, Note_on_c, 14, 45, 0
15, 54420, Note_on_c, 14, 50, 117
15, 54660, Note_on_c, 14, 50, 0
15, 55140, End_track
16, 0, Start_track
16, 0, MIDI_port, 0
16, 0, Title_t, "Organ"
16, 0, Program_c, 15, 19
16, 180, Note_on_c, 15, 62, 70
16, 215, Note_on_c, 15, 62, 0
16, 240, Note_on_c, 15, 50, 70
16, 275, Note_on_c, 15, 50, 0
16, 300, Note_on_c, 15, 62, 70
16, 395, Note_on_c, 15, 62, 0
16, 420, Note_on_c, 15, 61, 70
16, 455, Note_on_c, 15, 61, 0
16, 480, Note_on_c, 15, 57, 70
16, 515, Note_on_c, 15, 57, 0
16, 540, Note_on_c, 15, 62, 70
16, 575, Note_on_c, 15, 62, 0
16, 600, Note_on_c, 15, 50, 70
16, 635, Note_on_c, 15, 50, 0
16, 660, Note_on_c, 15, 62, 70
16, 755, Note_on_c, 15, 62, 0
16, 780, Note_on_c, 15, 61, 70
16, 815, Note_on_c, 15, 61, 0
16, 840, Note_on_c, 15, 57, 70
16, 875, Note_on_c, 15, 57, 0
16, 900, Note_on_c, 15, 50, 70
16, 935, Note_on_c, 15, 50, 0
16, 960, Note_on_c, 15, 50, 70
16, 995, Note_on_c, 15, 50, 0
16, 1020, Note_on_c, 15, 52, 70
16, 1055, Note_on_c, 15, 52, 0
16, 1080, Note_on_c, 15, 54, 70
16, 1115, Note_on_c, 15, 54, 0
16, 1140, Note_on_c, 15, 55, 70
16, 1170, Note_on_c, 15, 55, 0
16, 1170, Note_on_c, 15, 54, 70
16, 1200, Note_on_c, 15, 54, 0
16, 1200, Note_on_c, 15, 52, 70
16, 1230, Note_on_c, 15, 52, 0
16, 1230, Note_on_c, 15, 50, 70
16, 1260, Note_on_c, 15, 50, 0
16, 1260, Note_on_c, 15, 57, 70
16, 1295, Note_on_c, 15, 57, 0
16, 1440, Note_on_c, 15, 45, 70
16, 1475, Note_on_c, 15, 45, 0
16, 1680, Note_on_c, 15, 57, 70
16, 1715, Note_on_c, 15, 57, 0
16, 1740, Note_on_c, 15, 55, 70
16, 1775, Note_on_c, 15, 55, 0
16, 1800, Note_on_c, 15, 54, 64
16, 1835, Note_on_c, 15, 54, 0
16, 1860, Note_on_c, 15, 54, 64
16, 1895, Note_on_c, 15, 54, 0
16, 1920, Note_on_c, 15, 52, 64
16, 1955, Note_on_c, 15, 52, 0
16, 1980, Note_on_c, 15, 51, 64
16, 2015, Note_on_c, 15, 51, 0
16, 2040, Note_on_c, 15, 59, 64
16, 2075, Note_on_c, 15, 59, 0
16, 2100, Note_on_c, 15, 57, 64
16, 2135, Note_on_c, 15, 57, 0
16, 2160, Note_on_c, 15, 55, 64
16, 2190, Note_on_c, 15, 55, 0
16, 2190, Note_on_c, 15, 54, 64
16, 2220, Note_on_c, 15, 54, 0
16, 2220, Note_on_c, 15, 55, 64
16, 2250, Note_on_c, 15, 55, 0
16, 2250, Note_on_c, 15, 57, 64
16, 2280, Note_on_c, 15, 57, 0
16, 2280, Note_on_c, 15, 59, 64
16, 2315, Note_on_c, 15, 59, 0
16, 2340, Note_on_c, 15, 52, 64
16, 2375, Note_on_c, 15, 52, 0
16, 2400, Note_on_c, 15, 55, 64
16, 2435, Note_on_c, 15, 55, 0
16, 2460, Note_on_c, 15, 54, 64
16, 2495, Note_on_c, 15, 54, 0
16, 2520, Note_on_c, 15, 52, 64
16, 2555, Note_on_c, 15, 52, 0
16, 2580, Note_on_c, 15, 52, 64
16, 2615, Note_on_c, 15, 52, 0
16, 2640, Note_on_c, 15, 50, 64
16, 2675, Note_on_c, 15, 50, 0
16, 2700, Note_on_c, 15, 49, 64
16, 2735, Note_on_c, 15, 49, 0
16, 2760, Note_on_c, 15, 57, 64
16, 2795, Note_on_c, 15, 57, 0
16, 2820, Note_on_c, 15, 55, 64
16, 2855, Note_on_c, 15, 55, 0
16, 2880, Note_on_c, 15, 54, 64
16, 2910, Note_on_c, 15, 54, 0
16, 2910, Note_on_c, 15, 52, 64
16, 2940, Note_on_c, 15, 52, 0
16, 2940, Note_on_c, 15, 54, 64
16, 2970, Note_on_c, 15, 54, 0
16, 2970, Note_on_c, 15, 55, 64
16, 3000, Note_on_c, 15, 55, 0
16, 3000, Note_on_c, 15, 57, 64
16, 3035, Note_on_c, 15, 57, 0
16, 3060, Note_on_c, 15, 50, 64
16, 3095, Note_on_c, 15, 50, 0
16, 3120, Note_on_c, 15, 62, 64
16, 3155, Note_on_c, 15, 62, 0
16, 3180, Note_on_c, 15, 59, 64
16, 3215, Note_on_c, 15, 59, 0
16, 3240, Note_on_c, 15, 55, 64
16, 3275, Note_on_c, 15, 55, 0
16, 3300, Note_on_c, 15, 52, 64
16, 3335, Note_on_c, 15, 52, 0
16, 3360, Note_on_c, 15, 57, 64
16, 3395, Note_on_c, 15, 57, 0
16, 3420, Note_on_c, 15, 47, 64
16, 3455, Note_on_c, 15, 47, 0
16, 3480, Note_on_c, 15, 59, 64
16, 3515, Note_on_c, 15, 59, 0
16, 3540, Note_on_c, 15, 55, 64
16, 3575, Note_on_c, 15, 55, 0
16, 3600, Note_on_c, 15, 52, 64
16, 3635, Note_on_c, 15, 52, 0
16, 3660, Note_on_c, 15, 49, 64
16, 3695, Note_on_c, 15, 49, 0
16, 3720, Note_on_c, 15, 54, 64
16, 3755, Note_on_c, 15, 54, 0
16, 3780, Note_on_c, 15, 43, 64
16, 3815, Note_on_c, 15, 43, 0
16, 3840, Note_on_c, 15, 55, 65
16, 3875, Note_on_c, 15, 55, 0
16, 3900, Note_on_c, 15, 52, 67
16, 3935, Note_on_c, 15, 52, 0
16, 3960, Note_on_c, 15, 49, 68
16, 3995, Note_on_c, 15, 49, 0
16, 4020, Note_on_c, 15, 45, 69
16, 4055, Note_on_c, 15, 45, 0
16, 4080, Note_on_c, 15, 50, 71
16, 4115, Note_on_c, 15, 50, 0
16, 4140, Note_on_c, 15, 43, 72
16, 4175, Note_on_c, 15, 43, 0
16, 4200, Note_on_c, 15, 45, 73
16, 4235, Note_on_c, 15, 45, 0
16, 4260, Note_on_c, 15, 47, 75
16, 4295, Note_on_c, 15, 47, 0
16, 4320, Note_on_c, 15, 45, 76
16, 4350, Note_on_c, 15, 45, 0
16, 4350, Note_on_c, 15, 43, 77
16, 4380, Note_on_c, 15, 43, 0
16, 4380, Note_on_c, 15, 45, 77
16, 4415, Note_on_c, 15, 45, 0
16, 4440, Note_on_c, 15, 45, 79
16, 4475, Note_on_c, 15, 45, 0
16, 4500, Note_on_c, 15, 38, 64
16, 4530, Note_on_c, 15, 38, 0
16, 4530, Note_on_c, 15, 50, 64
16, 4560, Note_on_c, 15, 50, 0
16, 4560, Note_on_c, 15, 54, 64
16, 4590, Note_on_c, 15, 54, 0
16, 4590, Note_on_c, 15, 57, 64
16, 4620, Note_on_c, 15, 57, 0
16, 4620, Note_on_c, 15, 54, 64
16, 4650, Note_on_c, 15, 54, 0
16, 4650, Note_on_c, 15, 50, 64
16, 4680, Note_on_c, 15, 50, 0
16, 4680, Note_on_c, 15, 57, 64
16, 4715, Note_on_c, 15, 57, 0
16, 4890, Note_on_c, 15, 50, 64
16, 4920, Note_on_c, 15, 50, 0
16, 4920, Note_on_c, 15, 54, 64
16, 4950, Note_on_c, 15, 54, 0
16, 4950, Note_on_c, 15, 57, 64
16, 4980, Note_on_c, 15, 57, 0
16, 4980, Note_on_c, 15, 54, 64
16, 5010, Note_on_c, 15, 54, 0
16, 5010, Note_on_c, 15, 50, 64
16, 5040, Note_on_c, 15, 50, 0
16, 5040, Note_on_c, 15, 57, 64
16, 5075, Note_on_c, 15, 57, 0
16, 5220, Note_on_c, 15, 50, 64
16, 5231, Note_on_c, 15, 50, 0
16, 5280, Note_on_c, 15, 50, 64
16, 5291, Note_on_c, 15, 50, 0
16, 5340, Note_on_c, 15, 52, 64
16, 5351, Note_on_c, 15, 52, 0
16, 5400, Note_on_c, 15, 54, 64
16, 5411, Note_on_c, 15, 54, 0
16, 5460, Note_on_c, 15, 55, 64
16, 5490, Note_on_c, 15, 55, 0
16, 5490, Note_on_c, 15, 54, 64
16, 5520, Note_on_c, 15, 54, 0
16, 5520, Note_on_c, 15, 52, 64
16, 5550, Note_on_c, 15, 52, 0
16, 5550, Note_on_c, 15, 50, 64
16, 5580, Note_on_c, 15, 50, 0
16, 5580, Note_on_c, 15, 57, 64
16, 5591, Note_on_c, 15, 57, 0
16, 5760, Note_on_c, 15, 45, 64
16, 5795, Note_on_c, 15, 45, 0
16, 5940, Note_on_c, 15, 57, 64
16, 5975, Note_on_c, 15, 57, 0
16, 6000, Note_on_c, 15, 52, 64
16, 6035, Note_on_c, 15, 52, 0
16, 6060, Note_on_c, 15, 49, 64
16, 6095, Note_on_c, 15, 49, 0
16, 6120, Control_c, 15, 7, 127
16, 6120, Note_on_c, 15, 45, 64
16, 6155, Note_on_c, 15, 45, 0
16, 6180, Note_on_c, 15, 49, 64
16, 6215, Note_on_c, 15, 49, 0
16, 6240, Note_on_c, 15, 52, 64
16, 6275, Note_on_c, 15, 52, 0
16, 6300, Note_on_c, 15, 46, 64
16, 6335, Note_on_c, 15, 46, 0
16, 6360, Note_on_c, 15, 54, 64
16, 6395, Note_on_c, 15, 54, 0
16, 6420, Note_on_c, 15, 52, 64
16, 6455, Note_on_c, 15, 52, 0
16, 6480, Note_on_c, 15, 50, 64
16, 6510, Note_on_c, 15, 50, 0
16, 6510, Note_on_c, 15, 49, 64
16, 6540, Note_on_c, 15, 49, 0
16, 6540, Note_on_c, 15, 50, 64
16, 6570, Note_on_c, 15, 50, 0
16, 6570, Note_on_c, 15, 52, 64
16, 6600, Note_on_c, 15, 52, 0
16, 6600, Note_on_c, 15, 54, 64
16, 6635, Note_on_c, 15, 54, 0
16, 6660, Note_on_c, 15, 47, 64
16, 6695, Note_on_c, 15, 47, 0
16, 6720, Note_on_c, 15, 50, 64
16, 6755, Note_on_c, 15, 50, 0
16, 6780, Note_on_c, 15, 49, 64
16, 6815, Note_on_c, 15, 49, 0
16, 6840, Note_on_c, 15, 47, 64
16, 6875, Note_on_c, 15, 47, 0
16, 6900, Note_on_c, 15, 47, 64
16, 6935, Note_on_c, 15, 47, 0
16, 6960, Note_on_c, 15, 45, 64
16, 6995, Note_on_c, 15, 45, 0
16, 7020, Note_on_c, 15, 44, 64
16, 7055, Note_on_c, 15, 44, 0
16, 7080, Note_on_c, 15, 52, 64
16, 7115, Note_on_c, 15, 52, 0
16, 7140, Note_on_c, 15, 50, 64
16, 7175, Note_on_c, 15, 50, 0
16, 7200, Note_on_c, 15, 49, 64
16, 7230, Note_on_c, 15, 49, 0
16, 7230, Note_on_c, 15, 47, 64
16, 7260, Note_on_c, 15, 47, 0
16, 7260, Note_on_c, 15, 49, 64
16, 7290, Note_on_c, 15, 49, 0
16, 7290, Note_on_c, 15, 50, 64
16, 7320, Note_on_c, 15, 50, 0
16, 7320, Note_on_c, 15, 52, 64
16, 7355, Note_on_c, 15, 52, 0
16, 7380, Control_c, 15, 7, 75
16, 7380, Note_on_c, 15, 45, 64
16, 7410, Note_on_c, 15, 45, 0
16, 7410, Note_on_c, 15, 57, 64
16, 7440, Note_on_c, 15, 57, 0
16, 7440, Note_on_c, 15, 61, 64
16, 7470, Note_on_c, 15, 61, 0
16, 7470, Note_on_c, 15, 64, 64
16, 7500, Note_on_c, 15, 64, 0
16, 7500, Note_on_c, 15, 61, 64
16, 7530, Note_on_c, 15, 61, 0
16, 7530, Note_on_c, 15, 57, 64
16, 7560, Note_on_c, 15, 57, 0
16, 7560, Note_on_c, 15, 64, 64
16, 7595, Note_on_c, 15, 64, 0
16, 7770, Note_on_c, 15, 57, 64
16, 7800, Note_on_c, 15, 57, 0
16, 7800, Note_on_c, 15, 61, 64
16, 7830, Note_on_c, 15, 61, 0
16, 7830, Note_on_c, 15, 64, 64
16, 7860, Note_on_c, 15, 64, 0
16, 7860, Note_on_c, 15, 61, 64
16, 7890, Note_on_c, 15, 61, 0
16, 7890, Note_on_c, 15, 57, 64
16, 7920, Note_on_c, 15, 57, 0
16, 7920, Note_on_c, 15, 64, 64
16, 7955, Note_on_c, 15, 64, 0
16, 8100, Note_on_c, 15, 45, 64
16, 8111, Note_on_c, 15, 45, 0
16, 8160, Note_on_c, 15, 45, 64
16, 8171, Note_on_c, 15, 45, 0
16, 8220, Note_on_c, 15, 47, 64
16, 8231, Note_on_c, 15, 47, 0
16, 8280, Note_on_c, 15, 49, 64
16, 8291, Note_on_c, 15, 49, 0
16, 8340, Note_on_c, 15, 50, 64
16, 8370, Note_on_c, 15, 50, 0
16, 8370, Note_on_c, 15, 49, 64
16, 8400, Note_on_c, 15, 49, 0
16, 8400, Note_on_c, 15, 47, 64
16, 8430, Note_on_c, 15, 47, 0
16, 8430, Note_on_c, 15, 45, 64
16, 8460, Note_on_c, 15, 45, 0
16, 8460, Note_on_c, 15, 52, 64
16, 8471, Note_on_c, 15, 52, 0
16, 8640, Note_on_c, 15, 40, 64
16, 8675, Note_on_c, 15, 40, 0
16, 8820, Note_on_c, 15, 52, 64
16, 8855, Note_on_c, 15, 52, 0
16, 8880, Note_on_c, 15, 52, 64
16, 8915, Note_on_c, 15, 52, 0
16, 8940, Note_on_c, 15, 50, 64
16, 8975, Note_on_c, 15, 50, 0
16, 9000, Note_on_c, 15, 49, 64
16, 9035, Note_on_c, 15, 49, 0
16, 9060, Note_on_c, 15, 49, 64
16, 9095, Note_on_c, 15, 49, 0
16, 9120, Note_on_c, 15, 47, 64
16, 9155, Note_on_c, 15, 47, 0
16, 9180, Note_on_c, 15, 46, 64
16, 9215, Note_on_c, 15, 46, 0
16, 9240, Note_on_c, 15, 54, 64
16, 9275, Note_on_c, 15, 54, 0
16, 9300, Note_on_c, 15, 52, 64
16, 9335, Note_on_c, 15, 52, 0
16, 9360, Note_on_c, 15, 50, 64
16, 9390, Note_on_c, 15, 50, 0
16, 9390, Note_on_c, 15, 49, 64
16, 9420, Note_on_c, 15, 49, 0
16, 9420, Note_on_c, 15, 50, 64
16, 9450, Note_on_c, 15, 50, 0
16, 9450, Note_on_c, 15, 52, 64
16, 9480, Note_on_c, 15, 52, 0
16, 9480, Note_on_c, 15, 54, 64
16, 9515, Note_on_c, 15, 54, 0
16, 9540, Note_on_c, 15, 47, 64
16, 9575, Note_on_c, 15, 47, 0
16, 9600, Note_on_c, 15, 50, 64
16, 9635, Note_on_c, 15, 50, 0
16, 9660, Note_on_c, 15, 49, 64
16, 9695, Note_on_c, 15, 49, 0
16, 9720, Note_on_c, 15, 47, 64
16, 9755, Note_on_c, 15, 47, 0
16, 9780, Note_on_c, 15, 47, 64
16, 9815, Note_on_c, 15, 47, 0
16, 9840, Note_on_c, 15, 45, 64
16, 9875, Note_on_c, 15, 45, 0
16, 9900, Note_on_c, 15, 44, 64
16, 9935, Note_on_c, 15, 44, 0
16, 9960, Note_on_c, 15, 52, 64
16, 9995, Note_on_c, 15, 52, 0
16, 10020, Note_on_c, 15, 50, 64
16, 10055, Note_on_c, 15, 50, 0
16, 10080, Note_on_c, 15, 49, 64
16, 10110, Note_on_c, 15, 49, 0
16, 10110, Note_on_c, 15, 47, 64
16, 10140, Note_on_c, 15, 47, 0
16, 10140, Note_on_c, 15, 49, 64
16, 10170, Note_on_c, 15, 49, 0
16, 10170, Note_on_c, 15, 50, 64
16, 10200, Note_on_c, 15, 50, 0
16, 10200, Note_on_c, 15, 52, 64
16, 10235, Note_on_c, 15, 52, 0
16, 10260, Note_on_c, 15, 45, 64
16, 10295, Note_on_c, 15, 45, 0
16, 10320, Note_on_c, 15, 57, 64
16, 10355, Note_on_c, 15, 57, 0
16, 10380, Note_on_c, 15, 54, 64
16, 10415, Note_on_c, 15, 54, 0
16, 10440, Note_on_c, 15, 50, 64
16, 10475, Note_on_c, 15, 50, 0
16, 10500, Note_on_c, 15, 47, 65
16, 10535, Note_on_c, 15, 47, 0
16, 10560, Note_on_c, 15, 52, 66
16, 10595, Note_on_c, 15, 52, 0
16, 10620, Note_on_c, 15, 42, 66
16, 10655, Note_on_c, 15, 42, 0
16, 10680, Note_on_c, 15, 54, 67
16, 10715, Note_on_c, 15, 54, 0
16, 10740, Note_on_c, 15, 50, 68
16, 10775, Note_on_c, 15, 50, 0
16, 10800, Note_on_c, 15, 47, 69
16, 10835, Note_on_c, 15, 47, 0
16, 10860, Note_on_c, 15, 44, 69
16, 10895, Note_on_c, 15, 44, 0
16, 10920, Note_on_c, 15, 49, 70
16, 10955, Note_on_c, 15, 49, 0
16, 10980, Note_on_c, 15, 38, 71
16, 11015, Note_on_c, 15, 38, 0
16, 11040, Note_on_c, 15, 50, 72
16, 11075, Note_on_c, 15, 50, 0
16, 11100, Note_on_c, 15, 47, 72
16, 11135, Note_on_c, 15, 47, 0
16, 11160, Note_on_c, 15, 44, 73
16, 11195, Note_on_c, 15, 44, 0
16, 11220, Note_on_c, 15, 40, 74
16, 11255, Note_on_c, 15, 40, 0
16, 11280, Note_on_c, 15, 45, 75
16, 11315, Note_on_c, 15, 45, 0
16, 11340, Note_on_c, 15, 50, 75
16, 11351, Note_on_c, 15, 50, 0
16, 11400, Note_on_c, 15, 52, 76
16, 11411, Note_on_c, 15, 52, 0
16, 11460, Note_on_c, 15, 54, 77
16, 11471, Note_on_c, 15, 54, 0
16, 11520, Note_on_c, 15, 52, 78
16, 11550, Note_on_c, 15, 52, 0
16, 11550, Note_on_c, 15, 50, 78
16, 11580, Note_on_c, 15, 50, 0
16, 11580, Note_on_c, 15, 52, 78
16, 11615, Note_on_c, 15, 52, 0
16, 11640, Note_on_c, 15, 40, 79
16, 11675, Note_on_c, 15, 40, 0
16, 11700, Control_c, 15, 7, 127
16, 11700, Note_on_c, 15, 45, 64
16, 11735, Note_on_c, 15, 45, 0
16, 11760, Note_on_c, 15, 57, 64
16, 11790, Note_on_c, 15, 57, 0
16, 11790, Note_on_c, 15, 56, 64
16, 11820, Note_on_c, 15, 56, 0
16, 11820, Note_on_c, 15, 57, 64
16, 11915, Note_on_c, 15, 57, 0
16, 11940, Note_on_c, 15, 56, 64
16, 11975, Note_on_c, 15, 56, 0
16, 12000, Note_on_c, 15, 52, 64
16, 12035, Note_on_c, 15, 52, 0
16, 12060, Note_on_c, 15, 57, 64
16, 12095, Note_on_c, 15, 57, 0
16, 12420, Control_c, 15, 7, 75
16, 12420, Note_on_c, 15, 45, 40
16, 12455, Note_on_c, 15, 45, 0
16, 12480, Note_on_c, 15, 57, 41
16, 12515, Note_on_c, 15, 57, 0
16, 12540, Note_on_c, 15, 55, 43
16, 12575, Note_on_c, 15, 55, 0
16, 12600, Note_on_c, 15, 54, 44
16, 12635, Note_on_c, 15, 54, 0
16, 12660, Note_on_c, 15, 59, 45
16, 12695, Note_on_c, 15, 59, 0
16, 12720, Note_on_c, 15, 47, 46
16, 12755, Note_on_c, 15, 47, 0
16, 12780, Note_on_c, 15, 52, 48
16, 12815, Note_on_c, 15, 52, 0
16, 12840, Note_on_c, 15, 64, 49
16, 12875, Note_on_c, 15, 64, 0
16, 12900, Note_on_c, 15, 62, 50
16, 12935, Note_on_c, 15, 62, 0
16, 12960, Note_on_c, 15, 61, 51
16, 12995, Note_on_c, 15, 61, 0
16, 13020, Note_on_c, 15, 66, 53
16, 13055, Note_on_c, 15, 66, 0
16, 13080, Note_on_c, 15, 54, 54
16, 13115, Note_on_c, 15, 54, 0
16, 13140, Note_on_c, 15, 59, 55
16, 13170, Note_on_c, 15, 59, 0
16, 13170, Note_on_c, 15, 54, 56
16, 13200, Note_on_c, 15, 54, 0
16, 13200, Note_on_c, 15, 59, 56
16, 13230, Note_on_c, 15, 59, 0
16, 13230, Note_on_c, 15, 62, 57
16, 13260, Note_on_c, 15, 62, 0
16, 13260, Note_on_c, 15, 59, 58
16, 13290, Note_on_c, 15, 59, 0
16, 13290, Note_on_c, 15, 54, 58
16, 13320, Note_on_c, 15, 54, 0
16, 13320, Note_on_c, 15, 55, 59
16, 13350, Note_on_c, 15, 55, 0
16, 13350, Note_on_c, 15, 52, 59
16, 13380, Note_on_c, 15, 52, 0
16, 13380, Note_on_c, 15, 57, 60
16, 13415, Note_on_c, 15, 57, 0
16, 13440, Note_on_c, 15, 45, 61
16, 13475, Note_on_c, 15, 45, 0
16, 13500, Note_on_c, 15, 38, 63
16, 13530, Note_on_c, 15, 38, 0
16, 13530, Note_on_c, 15, 50, 63
16, 13560, Note_on_c, 15, 50, 0
16, 13560, Note_on_c, 15, 54, 64
16, 13590, Note_on_c, 15, 54, 0
16, 13590, Note_on_c, 15, 57, 64
16, 13620, Note_on_c, 15, 57, 0
16, 13620, Note_on_c, 15, 54, 65
16, 13650, Note_on_c, 15, 54, 0
16, 13650, Note_on_c, 15, 50, 66
16, 13680, Note_on_c, 15, 50, 0
16, 13680, Note_on_c, 15, 55, 66
16, 13715, Note_on_c, 15, 55, 0
16, 13740, Note_on_c, 15, 57, 68
16, 13775, Note_on_c, 15, 57, 0
16, 13800, Note_on_c, 15, 45, 69
16, 13835, Note_on_c, 15, 45, 0
16, 13860, Control_c, 15, 7, 127
16, 13860, Note_on_c, 15, 50, 64
16, 13895, Note_on_c, 15, 50, 0
16, 13920, Note_on_c, 15, 38, 64
16, 13955, Note_on_c, 15, 38, 0
16, 13980, Note_on_c, 15, 50, 64
16, 14075, Note_on_c, 15, 50, 0
16, 14100, Note_on_c, 15, 49, 64
16, 14135, Note_on_c, 15, 49, 0
16, 14160, Note_on_c, 15, 45, 64
16, 14195, Note_on_c, 15, 45, 0
16, 14220, Note_on_c, 15, 50, 64
16, 14255, Note_on_c, 15, 50, 0
16, 14280, Note_on_c, 15, 62, 64
16, 14310, Note_on_c, 15, 62, 0
16, 14310, Note_on_c, 15, 61, 64
16, 14340, Note_on_c, 15, 61, 0
16, 14340, Note_on_c, 15, 62, 64
16, 14435, Note_on_c, 15, 62, 0
16, 14460, Note_on_c, 15, 61, 64
16, 14495, Note_on_c, 15, 61, 0
16, 14520, Note_on_c, 15, 57, 64
16, 14555, Note_on_c, 15, 57, 0
16, 14580, Note_on_c, 15, 50, 64
16, 14591, Note_on_c, 15, 50, 0
16, 14640, Note_on_c, 15, 50, 64
16, 14651, Note_on_c, 15, 50, 0
16, 14700, Note_on_c, 15, 52, 64
16, 14711, Note_on_c, 15, 52, 0
16, 14760, Note_on_c, 15, 54, 64
16, 14795, Note_on_c, 15, 54, 0
16, 14820, Note_on_c, 15, 55, 64
16, 14850, Note_on_c, 15, 55, 0
16, 14850, Note_on_c, 15, 54, 64
16, 14880, Note_on_c, 15, 54, 0
16, 14880, Note_on_c, 15, 52, 64
16, 14910, Note_on_c, 15, 52, 0
16, 14910, Note_on_c, 15, 50, 64
16, 14940, Note_on_c, 15, 50, 0
16, 14940, Note_on_c, 15, 57, 64
16, 14951, Note_on_c, 15, 57, 0
16, 15120, Note_on_c, 15, 45, 64
16, 15155, Note_on_c, 15, 45, 0
16, 15300, Note_on_c, 15, 57, 64
16, 15335, Note_on_c, 15, 57, 0
16, 15360, Note_on_c, 15, 57, 64
16, 15395, Note_on_c, 15, 57, 0
16, 15420, Note_on_c, 15, 55, 64
16, 15455, Note_on_c, 15, 55, 0
16, 15480, Control_c, 15, 7, 75
16, 15480, Note_on_c, 15, 54, 64
16, 15515, Note_on_c, 15, 54, 0
16, 15540, Note_on_c, 15, 54, 64
16, 15575, Note_on_c, 15, 54, 0
16, 15600, Note_on_c, 15, 52, 64
16, 15635, Note_on_c, 15, 52, 0
16, 15660, Note_on_c, 15, 51, 64
16, 15695, Note_on_c, 15, 51, 0
16, 15720, Note_on_c, 15, 59, 64
16, 15755, Note_on_c, 15, 59, 0
16, 15780, Note_on_c, 15, 54, 64
16, 15815, Note_on_c, 15, 54, 0
16, 15840, Note_on_c, 15, 55, 64
16, 15870, Note_on_c, 15, 55, 0
16, 15870, Note_on_c, 15, 54, 64
16, 15900, Note_on_c, 15, 54, 0
16, 15900, Note_on_c, 15, 55, 64
16, 15930, Note_on_c, 15, 55, 0
16, 15930, Note_on_c, 15, 57, 64
16, 15960, Note_on_c, 15, 57, 0
16, 15960, Note_on_c, 15, 59, 64
16, 15971, Note_on_c, 15, 59, 0
16, 16020, Note_on_c, 15, 52, 64
16, 16031, Note_on_c, 15, 52, 0
16, 16080, Note_on_c, 15, 55, 64
16, 16115, Note_on_c, 15, 55, 0
16, 16140, Note_on_c, 15, 54, 64
16, 16175, Note_on_c, 15, 54, 0
16, 16200, Note_on_c, 15, 52, 64
16, 16235, Note_on_c, 15, 52, 0
16, 16260, Note_on_c, 15, 52, 64
16, 16295, Note_on_c, 15, 52, 0
16, 16320, Note_on_c, 15, 50, 64
16, 16355, Note_on_c, 15, 50, 0
16, 16380, Note_on_c, 15, 49, 64
16, 16415, Note_on_c, 15, 49, 0
16, 16440, Note_on_c, 15, 57, 64
16, 16475, Note_on_c, 15, 57, 0
16, 16500, Note_on_c, 15, 52, 64
16, 16535, Note_on_c, 15, 52, 0
16, 16560, Note_on_c, 15, 54, 64
16, 16590, Note_on_c, 15, 54, 0
16, 16590, Note_on_c, 15, 52, 64
16, 16620, Note_on_c, 15, 52, 0
16, 16620, Note_on_c, 15, 54, 64
16, 16650, Note_on_c, 15, 54, 0
16, 16650, Note_on_c, 15, 55, 64
16, 16680, Note_on_c, 15, 55, 0
16, 16680, Note_on_c, 15, 57, 64
16, 16691, Note_on_c, 15, 57, 0
16, 16740, Control_c, 15, 7, 75
16, 16740, Note_on_c, 15, 50, 64
16, 16751, Note_on_c, 15, 50, 0
16, 16800, Note_on_c, 15, 62, 65
16, 16835, Note_on_c, 15, 62, 0
16, 16860, Note_on_c, 15, 59, 65
16, 16895, Note_on_c, 15, 59, 0
16, 16920, Note_on_c, 15, 55, 66
16, 16955, Note_on_c, 15, 55, 0
16, 16980, Note_on_c, 15, 52, 67
16, 17015, Note_on_c, 15, 52, 0
16, 17040, Note_on_c, 15, 57, 67
16, 17075, Note_on_c, 15, 57, 0
16, 17100, Note_on_c, 15, 47, 68
16, 17111, Note_on_c, 15, 47, 0
16, 17160, Note_on_c, 15, 59, 69
16, 17195, Note_on_c, 15, 59, 0
16, 17220, Note_on_c, 15, 55, 69
16, 17255, Note_on_c, 15, 55, 0
16, 17280, Note_on_c, 15, 52, 70
16, 17315, Note_on_c, 15, 52, 0
16, 17340, Note_on_c, 15, 49, 71
16, 17375, Note_on_c, 15, 49, 0
16, 17400, Note_on_c, 15, 54, 71
16, 17435, Note_on_c, 15, 54, 0
16, 17460, Note_on_c, 15, 43, 72
16, 17471, Note_on_c, 15, 43, 0
16, 17520, Note_on_c, 15, 55, 73
16, 17555, Note_on_c, 15, 55, 0
16, 17580, Note_on_c, 15, 52, 73
16, 17615, Note_on_c, 15, 52, 0
16, 17640, Note_on_c, 15, 49, 74
16, 17675, Note_on_c, 15, 49, 0
16, 17700, Note_on_c, 15, 45, 75
16, 17735, Note_on_c, 15, 45, 0
16, 17760, Note_on_c, 15, 50, 75
16, 17795, Note_on_c, 15, 50, 0
16, 17820, Note_on_c, 15, 43, 76
16, 17831, Note_on_c, 15, 43, 0
16, 17880, Note_on_c, 15, 45, 77
16, 17891, Note_on_c, 15, 45, 0
16, 17940, Note_on_c, 15, 47, 77
16, 17951, Note_on_c, 15, 47, 0
16, 18000, Note_on_c, 15, 45, 78
16, 18030, Note_on_c, 15, 45, 0
16, 18030, Note_on_c, 15, 43, 78
16, 18060, Note_on_c, 15, 43, 0
16, 18060, Note_on_c, 15, 45, 79
16, 18180, Note_on_c, 15, 45, 0
16, 18180, Note_on_c, 15, 38, 100
16, 18300, Note_on_c, 15, 38, 0
16, 18300, Note_on_c, 15, 50, 30
16, 18420, Note_on_c, 15, 50, 0
16, 18420, Note_on_c, 15, 48, 30
16, 18540, Note_on_c, 15, 48, 0
16, 18540, Note_on_c, 15, 47, 30
16, 18660, Note_on_c, 15, 47, 0
16, 18660, Note_on_c, 15, 45, 30
16, 18780, Note_on_c, 15, 45, 0
16, 18780, Note_on_c, 15, 38, 32
16, 18900, Note_on_c, 15, 38, 0
16, 18900, Note_on_c, 15, 43, 34
16, 20400, Note_on_c, 15, 43, 0
16, 20400, Note_on_c, 15, 43, 61
16, 20435, Note_on_c, 15, 43, 0
16, 20460, Note_on_c, 15, 43, 62
16, 20520, Note_on_c, 15, 43, 0
16, 20520, Note_on_c, 15, 45, 63
16, 20640, Note_on_c, 15, 45, 0
16, 20640, Note_on_c, 15, 47, 64
16, 20675, Note_on_c, 15, 47, 0
16, 20700, Note_on_c, 15, 47, 64
16, 20760, Note_on_c, 15, 47, 0
16, 20760, Note_on_c, 15, 48, 64
16, 20795, Note_on_c, 15, 48, 0
16, 20820, Note_on_c, 15, 48, 64
16, 20880, Note_on_c, 15, 48, 0
16, 20880, Note_on_c, 15, 47, 64
16, 20915, Note_on_c, 15, 47, 0
16, 20940, Note_on_c, 15, 48, 64
16, 21000, Note_on_c, 15, 48, 0
16, 21000, Note_on_c, 15, 50, 64
16, 21035, Note_on_c, 15, 50, 0
16, 21060, Note_on_c, 15, 47, 64
16, 22320, Note_on_c, 15, 47, 0
16, 22320, Note_on_c, 15, 45, 64
16, 22355, Note_on_c, 15, 45, 0
16, 22380, Note_on_c, 15, 45, 64
16, 22440, Note_on_c, 15, 45, 0
16, 22440, Note_on_c, 15, 43, 64
16, 22475, Note_on_c, 15, 43, 0
16, 22500, Note_on_c, 15, 45, 64
16, 22800, Note_on_c, 15, 45, 0
16, 22800, Note_on_c, 15, 47, 64
16, 22835, Note_on_c, 15, 47, 0
16, 22860, Note_on_c, 15, 47, 64
16, 22920, Note_on_c, 15, 47, 0
16, 22920, Note_on_c, 15, 45, 64
16, 22955, Note_on_c, 15, 45, 0
16, 22980, Note_on_c, 15, 43, 64
16, 23040, Note_on_c, 15, 43, 0
16, 23040, Note_on_c, 15, 42, 65
16, 23075, Note_on_c, 15, 42, 0
16, 23100, Note_on_c, 15, 42, 67
16, 23160, Note_on_c, 15, 42, 0
16, 23160, Note_on_c, 15, 40, 68
16, 23195, Note_on_c, 15, 40, 0
16, 23220, Note_on_c, 15, 52, 70
16, 23280, Note_on_c, 15, 52, 0
16, 23280, Note_on_c, 15, 50, 71
16, 23315, Note_on_c, 15, 50, 0
16, 23340, Note_on_c, 15, 50, 72
16, 23400, Note_on_c, 15, 50, 0
16, 23400, Note_on_c, 15, 48, 74
16, 23435, Note_on_c, 15, 48, 0
16, 23460, Note_on_c, 15, 48, 75
16, 23520, Note_on_c, 15, 48, 0
16, 23520, Note_on_c, 15, 47, 75
16, 23580, Note_on_c, 15, 47, 0
16, 23580, Note_on_c, 15, 47, 75
16, 23640, Note_on_c, 15, 47, 0
16, 23640, Note_on_c, 15, 45, 75
16, 23700, Note_on_c, 15, 45, 0
16, 23700, Note_on_c, 15, 45, 75
16, 23760, Note_on_c, 15, 45, 0
16, 23760, Note_on_c, 15, 43, 75
16, 23790, Note_on_c, 15, 43, 0
16, 23790, Note_on_c, 15, 42, 75
16, 23820, Note_on_c, 15, 42, 0
16, 23820, Note_on_c, 15, 43, 75
16, 23880, Note_on_c, 15, 43, 0
16, 23880, Note_on_c, 15, 45, 75
16, 23940, Note_on_c, 15, 45, 0
16, 23940, Note_on_c, 15, 47, 67
16, 24180, Note_on_c, 15, 47, 0
16, 24180, Note_on_c, 15, 40, 53
16, 24300, Note_on_c, 15, 40, 0
16, 26100, Note_on_c, 15, 40, 52
16, 26160, Note_on_c, 15, 40, 0
16, 26160, Note_on_c, 15, 54, 52
16, 26195, Note_on_c, 15, 54, 0
16, 26220, Note_on_c, 15, 54, 53
16, 26280, Note_on_c, 15, 54, 0
16, 26280, Note_on_c, 15, 52, 53
16, 26315, Note_on_c, 15, 52, 0
16, 26340, Note_on_c, 15, 50, 54
16, 26400, Note_on_c, 15, 50, 0
16, 26400, Note_on_c, 15, 49, 54
16, 26435, Note_on_c, 15, 49, 0
16, 26460, Note_on_c, 15, 49, 55
16, 26520, Note_on_c, 15, 49, 0
16, 26520, Note_on_c, 15, 47, 55
16, 26555, Note_on_c, 15, 47, 0
16, 26580, Note_on_c, 15, 47, 55
16, 26640, Note_on_c, 15, 47, 0
16, 26640, Note_on_c, 15, 45, 56
16, 26675, Note_on_c, 15, 45, 0
16, 26700, Note_on_c, 15, 45, 56
16, 26760, Note_on_c, 15, 45, 0
16, 26760, Note_on_c, 15, 43, 57
16, 26795, Note_on_c, 15, 43, 0
16, 26820, Note_on_c, 15, 43, 57
16, 26880, Note_on_c, 15, 43, 0
16, 26880, Note_on_c, 15, 42, 58
16, 26915, Note_on_c, 15, 42, 0
16, 26940, Note_on_c, 15, 42, 58
16, 27000, Note_on_c, 15, 42, 0
16, 27000, Note_on_c, 15, 40, 58
16, 27035, Note_on_c, 15, 40, 0
16, 27060, Note_on_c, 15, 40, 59
16, 27120, Note_on_c, 15, 40, 0
16, 27120, Note_on_c, 15, 38, 59
16, 27150, Note_on_c, 15, 38, 0
16, 27150, Note_on_c, 15, 37, 60
16, 27180, Note_on_c, 15, 37, 0
16, 27180, Note_on_c, 15, 38, 60
16, 27240, Note_on_c, 15, 38, 0
16, 27240, Note_on_c, 15, 40, 60
16, 27300, Note_on_c, 15, 40, 0
16, 27300, Note_on_c, 15, 42, 61
16, 27540, Note_on_c, 15, 42, 0
16, 27540, Note_on_c, 15, 47, 64
16, 27600, Note_on_c, 15, 47, 0
16, 27600, Note_on_c, 15, 59, 53
16, 27635, Note_on_c, 15, 59, 0
16, 27660, Note_on_c, 15, 57, 41
16, 27720, Note_on_c, 15, 57, 0
16, 27720, Note_on_c, 15, 55, 30
16, 27755, Note_on_c, 15, 55, 0
16, 27780, Note_on_c, 15, 54, 64
16, 27785, Control_c, 15, 7, 55
16, 27840, Note_on_c, 15, 54, 0
16, 27840, Note_on_c, 15, 55, 64
16, 27875, Note_on_c, 15, 55, 0
16, 27900, Note_on_c, 15, 54, 64
16, 27960, Note_on_c, 15, 54, 0
16, 27960, Note_on_c, 15, 52, 64
16, 27995, Note_on_c, 15, 52, 0
16, 28020, Note_on_c, 15, 50, 64
16, 28140, Note_on_c, 15, 50, 0
16, 28200, Note_on_c, 15, 50, 64
16, 28260, Note_on_c, 15, 50, 0
16, 28260, Note_on_c, 15, 55, 64
16, 28320, Note_on_c, 15, 55, 0
16, 28320, Note_on_c, 15, 57, 64
16, 28355, Note_on_c, 15, 57, 0
16, 28380, Note_on_c, 15, 59, 64
16, 28440, Note_on_c, 15, 59, 0
16, 28440, Note_on_c, 15, 57, 64
16, 28475, Note_on_c, 15, 57, 0
16, 28500, Note_on_c, 15, 55, 64
16, 28560, Note_on_c, 15, 55, 0
16, 28560, Note_on_c, 15, 54, 64
16, 28590, Note_on_c, 15, 54, 0
16, 28590, Note_on_c, 15, 52, 64
16, 28620, Note_on_c, 15, 52, 0
16, 28620, Note_on_c, 15, 54, 64
16, 28680, Note_on_c, 15, 54, 0
16, 28680, Note_on_c, 15, 55, 64
16, 28740, Note_on_c, 15, 55, 0
16, 28740, Note_on_c, 15, 57, 64
16, 28800, Note_on_c, 15, 57, 0
16, 28800, Note_on_c, 15, 55, 64
16, 28835, Note_on_c, 15, 55, 0
16, 28860, Note_on_c, 15, 57, 64
16, 28920, Note_on_c, 15, 57, 0
16, 28920, Note_on_c, 15, 45, 64
16, 28955, Note_on_c, 15, 45, 0
16, 28980, Note_on_c, 15, 50, 64
16, 29040, Note_on_c, 15, 50, 0
16, 29040, Note_on_c, 15, 62, 64
16, 29160, Note_on_c, 15, 62, 0
16, 29160, Note_on_c, 15, 61, 64
16, 29220, Note_on_c, 15, 61, 0
16, 29220, Note_on_c, 15, 59, 64
16, 29255, Note_on_c, 15, 59, 0
16, 29280, Note_on_c, 15, 57, 64
16, 29291, Note_on_c, 15, 57, 0
16, 29340, Note_on_c, 15, 56, 64
16, 29375, Note_on_c, 15, 56, 0
16, 29400, Note_on_c, 15, 52, 64
16, 29411, Note_on_c, 15, 52, 0
16, 29460, Note_on_c, 15, 57, 64
16, 29495, Note_on_c, 15, 57, 0
16, 29520, Note_on_c, 15, 54, 64
16, 29531, Note_on_c, 15, 54, 0
16, 29580, Note_on_c, 15, 50, 64
16, 29615, Note_on_c, 15, 50, 0
16, 29640, Note_on_c, 15, 47, 64
16, 29651, Note_on_c, 15, 47, 0
16, 29700, Note_on_c, 15, 52, 64
16, 29820, Note_on_c, 15, 52, 0
16, 29820, Note_on_c, 15, 49, 64
16, 29855, Note_on_c, 15, 49, 0
16, 29880, Note_on_c, 15, 45, 64
16, 29915, Note_on_c, 15, 45, 0
16, 29940, Note_on_c, 15, 50, 64
16, 29975, Note_on_c, 15, 50, 0
16, 30000, Note_on_c, 15, 49, 64
16, 30035, Note_on_c, 15, 49, 0
16, 30060, Note_on_c, 15, 47, 64
16, 30095, Note_on_c, 15, 47, 0
16, 30120, Note_on_c, 15, 49, 64
16, 30155, Note_on_c, 15, 49, 0
16, 30180, Note_on_c, 15, 50, 64
16, 30215, Note_on_c, 15, 50, 0
16, 30240, Note_on_c, 15, 52, 64
16, 30275, Note_on_c, 15, 52, 0
16, 30300, Note_on_c, 15, 54, 64
16, 30335, Note_on_c, 15, 54, 0
16, 30360, Note_on_c, 15, 42, 64
16, 30395, Note_on_c, 15, 42, 0
16, 30420, Note_on_c, 15, 40, 64
16, 30455, Note_on_c, 15, 40, 0
16, 30480, Note_on_c, 15, 38, 64
16, 30515, Note_on_c, 15, 38, 0
16, 30540, Note_on_c, 15, 40, 64
16, 30575, Note_on_c, 15, 40, 0
16, 30600, Note_on_c, 15, 52, 64
16, 30635, Note_on_c, 15, 52, 0
16, 30660, Note_on_c, 15, 45, 64
16, 30695, Note_on_c, 15, 45, 0
16, 30720, Note_on_c, 15, 57, 64
16, 30840, Note_on_c, 15, 57, 0
16, 30840, Note_on_c, 15, 55, 64
16, 30870, Note_on_c, 15, 55, 0
16, 30870, Note_on_c, 15, 54, 64
16, 30900, Note_on_c, 15, 54, 0
16, 30900, Note_on_c, 15, 52, 64
16, 30935, Note_on_c, 15, 52, 0
16, 30960, Note_on_c, 15, 50, 64
16, 30995, Note_on_c, 15, 50, 0
16, 31020, Note_on_c, 15, 49, 64
16, 31055, Note_on_c, 15, 49, 0
16, 31080, Note_on_c, 15, 45, 64
16, 31115, Note_on_c, 15, 45, 0
16, 31140, Note_on_c, 15, 50, 64
16, 31175, Note_on_c, 15, 50, 0
16, 31200, Note_on_c, 15, 47, 64
16, 31235, Note_on_c, 15, 47, 0
16, 31260, Note_on_c, 15, 43, 64
16, 31295, Note_on_c, 15, 43, 0
16, 31320, Note_on_c, 15, 40, 64
16, 31355, Note_on_c, 15, 40, 0
16, 31380, Note_on_c, 15, 45, 64
16, 31500, Note_on_c, 15, 45, 0
16, 31500, Note_on_c, 15, 42, 64
16, 31535, Note_on_c, 15, 42, 0
16, 31560, Note_on_c, 15, 38, 64
16, 31595, Note_on_c, 15, 38, 0
16, 31620, Note_on_c, 15, 43, 64
16, 31655, Note_on_c, 15, 43, 0
16, 31680, Note_on_c, 15, 42, 64
16, 31715, Note_on_c, 15, 42, 0
16, 31740, Note_on_c, 15, 40, 64
16, 31775, Note_on_c, 15, 40, 0
16, 31800, Note_on_c, 15, 42, 64
16, 31835, Note_on_c, 15, 42, 0
16, 31860, Note_on_c, 15, 43, 64
16, 31895, Note_on_c, 15, 43, 0
16, 31920, Note_on_c, 15, 45, 64
16, 31955, Note_on_c, 15, 45, 0
16, 31980, Note_on_c, 15, 50, 64
16, 32015, Note_on_c, 15, 50, 0
16, 32040, Note_on_c, 15, 47, 64
16, 32075, Note_on_c, 15, 47, 0
16, 32100, Note_on_c, 15, 45, 64
16, 32135, Note_on_c, 15, 45, 0
16, 32160, Note_on_c, 15, 43, 64
16, 32195, Note_on_c, 15, 43, 0
16, 32220, Note_on_c, 15, 45, 64
16, 32255, Note_on_c, 15, 45, 0
16, 32280, Note_on_c, 15, 57, 64
16, 32315, Note_on_c, 15, 57, 0
16, 32340, Note_on_c, 15, 50, 64
16, 32375, Note_on_c, 15, 50, 0
16, 32400, Note_on_c, 15, 54, 64
16, 32430, Note_on_c, 15, 54, 0
16, 32430, Note_on_c, 15, 52, 64
16, 32460, Note_on_c, 15, 52, 0
16, 32460, Note_on_c, 15, 50, 64
16, 32495, Note_on_c, 15, 50, 0
16, 32520, Note_on_c, 15, 49, 64
16, 32555, Note_on_c, 15, 49, 0
16, 32580, Note_on_c, 15, 47, 64
16, 32615, Note_on_c, 15, 47, 0
16, 32640, Note_on_c, 15, 45, 64
16, 32675, Note_on_c, 15, 45, 0
16, 32700, Note_on_c, 15, 44, 64
16, 32735, Note_on_c, 15, 44, 0
16, 32760, Note_on_c, 15, 40, 64
16, 32795, Note_on_c, 15, 40, 0
16, 32820, Note_on_c, 15, 45, 64
16, 32855, Note_on_c, 15, 45, 0
16, 32880, Note_on_c, 15, 42, 64
16, 32915, Note_on_c, 15, 42, 0
16, 32940, Note_on_c, 15, 50, 64
16, 32975, Note_on_c, 15, 50, 0
16, 33000, Note_on_c, 15, 47, 64
16, 33035, Note_on_c, 15, 47, 0
16, 33060, Note_on_c, 15, 52, 64
16, 33180, Note_on_c, 15, 52, 0
16, 33180, Note_on_c, 15, 49, 64
16, 33215, Note_on_c, 15, 49, 0
16, 33240, Note_on_c, 15, 45, 64
16, 33275, Note_on_c, 15, 45, 0
16, 33300, Note_on_c, 15, 50, 64
16, 33335, Note_on_c, 15, 50, 0
16, 33360, Note_on_c, 15, 49, 64
16, 33395, Note_on_c, 15, 49, 0
16, 33420, Note_on_c, 15, 47, 64
16, 33455, Note_on_c, 15, 47, 0
16, 33480, Note_on_c, 15, 49, 64
16, 33515, Note_on_c, 15, 49, 0
16, 33540, Note_on_c, 15, 50, 64
16, 33575, Note_on_c, 15, 50, 0
16, 33600, Note_on_c, 15, 52, 64
16, 33635, Note_on_c, 15, 52, 0
16, 33660, Note_on_c, 15, 45, 64
16, 33695, Note_on_c, 15, 45, 0
16, 33720, Note_on_c, 15, 42, 64
16, 33755, Note_on_c, 15, 42, 0
16, 33780, Note_on_c, 15, 40, 64
16, 33815, Note_on_c, 15, 40, 0
16, 33840, Note_on_c, 15, 38, 64
16, 33875, Note_on_c, 15, 38, 0
16, 33900, Note_on_c, 15, 40, 64
16, 33935, Note_on_c, 15, 40, 0
16, 33960, Note_on_c, 15, 52, 64
16, 33995, Note_on_c, 15, 52, 0
16, 34020, Note_on_c, 15, 45, 64
16, 34055, Note_on_c, 15, 45, 0
16, 34080, Note_on_c, 15, 49, 64
16, 34110, Note_on_c, 15, 49, 0
16, 34110, Note_on_c, 15, 47, 64
16, 34140, Note_on_c, 15, 47, 0
16, 34140, Note_on_c, 15, 45, 64
16, 34175, Note_on_c, 15, 45, 0
16, 34200, Note_on_c, 15, 43, 64
16, 34235, Note_on_c, 15, 43, 0
16, 34260, Note_on_c, 15, 42, 64
16, 34295, Note_on_c, 15, 42, 0
16, 34320, Note_on_c, 15, 52, 64
16, 34355, Note_on_c, 15, 52, 0
16, 34380, Note_on_c, 15, 51, 64
16, 34415, Note_on_c, 15, 51, 0
16, 34440, Note_on_c, 15, 47, 64
16, 34475, Note_on_c, 15, 47, 0
16, 34500, Note_on_c, 15, 40, 64
16, 34530, Note_on_c, 15, 40, 0
16, 34530, Note_on_c, 15, 47, 64
16, 34560, Note_on_c, 15, 47, 0
16, 34560, Note_on_c, 15, 52, 64
16, 34590, Note_on_c, 15, 52, 0
16, 34590, Note_on_c, 15, 50, 64
16, 34620, Note_on_c, 15, 50, 0
16, 34620, Note_on_c, 15, 48, 64
16, 34650, Note_on_c, 15, 48, 0
16, 34650, Note_on_c, 15, 47, 64
16, 34680, Note_on_c, 15, 47, 0
16, 34680, Note_on_c, 15, 45, 64
16, 34710, Note_on_c, 15, 45, 0
16, 34710, Note_on_c, 15, 43, 64
16, 34740, Note_on_c, 15, 43, 0
16, 34740, Note_on_c, 15, 41, 64
16, 34770, Note_on_c, 15, 41, 0
16, 34770, Note_on_c, 15, 45, 64
16, 34800, Note_on_c, 15, 45, 0
16, 34800, Note_on_c, 15, 50, 64
16, 34830, Note_on_c, 15, 50, 0
16, 34830, Note_on_c, 15, 48, 64
16, 34860, Note_on_c, 15, 48, 0
16, 34860, Note_on_c, 15, 47, 64
16, 34890, Note_on_c, 15, 47, 0
16, 34890, Note_on_c, 15, 45, 64
16, 34920, Note_on_c, 15, 45, 0
16, 34920, Note_on_c, 15, 44, 64
16, 34950, Note_on_c, 15, 44, 0
16, 34950, Note_on_c, 15, 41, 64
16, 34980, Note_on_c, 15, 41, 0
16, 34980, Note_on_c, 15, 40, 64
16, 35010, Note_on_c, 15, 40, 0
16, 35010, Note_on_c, 15, 44, 64
16, 35040, Note_on_c, 15, 44, 0
16, 35040, Note_on_c, 15, 45, 64
16, 35070, Note_on_c, 15, 45, 0
16, 35070, Note_on_c, 15, 47, 64
16, 35100, Note_on_c, 15, 47, 0
16, 35100, Note_on_c, 15, 48, 64
16, 35130, Note_on_c, 15, 48, 0
16, 35130, Note_on_c, 15, 50, 64
16, 35160, Note_on_c, 15, 50, 0
16, 35160, Note_on_c, 15, 48, 64
16, 35190, Note_on_c, 15, 48, 0
16, 35190, Note_on_c, 15, 47, 64
16, 35220, Note_on_c, 15, 47, 0
16, 35220, Note_on_c, 15, 45, 64
16, 35250, Note_on_c, 15, 45, 0
16, 35250, Note_on_c, 15, 43, 64
16, 35280, Note_on_c, 15, 43, 0
16, 35280, Note_on_c, 15, 42, 64
16, 35310, Note_on_c, 15, 42, 0
16, 35310, Note_on_c, 15, 45, 64
16, 35340, Note_on_c, 15, 45, 0
16, 35340, Note_on_c, 15, 43, 64
16, 35375, Note_on_c, 15, 43, 0
16, 35400, Note_on_c, 15, 48, 64
16, 35435, Note_on_c, 15, 48, 0
16, 35460, Note_on_c, 15, 47, 64
16, 35520, Note_on_c, 15, 47, 0
16, 35520, Note_on_c, 15, 45, 64
16, 35555, Note_on_c, 15, 45, 0
16, 35580, Note_on_c, 15, 47, 64
16, 35593, Control_c, 15, 7, 56
16, 35612, Control_c, 15, 7, 57
16, 35615, Note_on_c, 15, 47, 0
16, 35631, Control_c, 15, 7, 59
16, 35640, Note_on_c, 15, 47, 64
16, 35650, Control_c, 15, 7, 61
16, 35669, Control_c, 15, 7, 63
16, 35675, Note_on_c, 15, 47, 0
16, 35688, Control_c, 15, 7, 65
16, 35700, Note_on_c, 15, 52, 64
16, 35707, Control_c, 15, 7, 67
16, 35726, Control_c, 15, 7, 69
16, 35735, Note_on_c, 15, 52, 0
16, 35745, Control_c, 15, 7, 71
16, 35760, Note_on_c, 15, 55, 64
16, 35764, Control_c, 15, 7, 73
16, 35783, Control_c, 15, 7, 75
16, 35790, Note_on_c, 15, 55, 0
16, 35790, Note_on_c, 15, 54, 64
16, 35802, Control_c, 15, 7, 77
16, 35820, Note_on_c, 15, 54, 0
16, 35820, Note_on_c, 15, 52, 64
16, 35821, Control_c, 15, 7, 79
16, 35840, Control_c, 15, 7, 81
16, 35855, Note_on_c, 15, 52, 0
16, 35859, Control_c, 15, 7, 83
16, 35878, Control_c, 15, 7, 85
16, 35880, Note_on_c, 15, 50, 64
16, 35897, Control_c, 15, 7, 87
16, 35915, Note_on_c, 15, 50, 0
16, 35916, Control_c, 15, 7, 89
16, 35935, Control_c, 15, 7, 91
16, 35940, Note_on_c, 15, 49, 64
16, 35954, Control_c, 15, 7, 93
16, 35973, Control_c, 15, 7, 95
16, 35992, Control_c, 15, 7, 97
16, 36000, Note_on_c, 15, 49, 0
16, 36000, Note_on_c, 15, 50, 64
16, 36011, Control_c, 15, 7, 99
16, 36030, Note_on_c, 15, 50, 0
16, 36030, Control_c, 15, 7, 101
16, 36030, Note_on_c, 15, 52, 64
16, 36049, Control_c, 15, 7, 103
16, 36060, Note_on_c, 15, 52, 0
16, 36060, Note_on_c, 15, 54, 64
16, 36068, Control_c, 15, 7, 105
16, 36087, Control_c, 15, 7, 107
16, 36095, Note_on_c, 15, 54, 0
16, 36106, Control_c, 15, 7, 109
16, 36120, Note_on_c, 15, 42, 64
16, 36125, Control_c, 15, 7, 111
16, 36144, Control_c, 15, 7, 113
16, 36155, Note_on_c, 15, 42, 0
16, 36163, Control_c, 15, 7, 115
16, 36180, Note_on_c, 15, 47, 64
16, 36182, Control_c, 15, 7, 117
16, 36201, Control_c, 15, 7, 119
16, 36207, Control_c, 15, 7, 127
16, 36240, Note_on_c, 15, 47, 0
16, 36240, Note_on_c, 15, 62, 64
16, 36270, Note_on_c, 15, 62, 0
16, 36270, Note_on_c, 15, 61, 64
16, 36300, Note_on_c, 15, 61, 0
16, 36300, Note_on_c, 15, 59, 64
16, 36360, Note_on_c, 15, 59, 0
16, 36360, Note_on_c, 15, 57, 64
16, 36420, Note_on_c, 15, 57, 0
16, 36420, Note_on_c, 15, 56, 64
16, 36480, Note_on_c, 15, 56, 0
16, 36480, Note_on_c, 15, 57, 64
16, 36510, Note_on_c, 15, 57, 0
16, 36510, Note_on_c, 15, 59, 65
16, 36540, Note_on_c, 15, 59, 0
16, 36540, Note_on_c, 15, 61, 65
16, 36600, Note_on_c, 15, 61, 0
16, 36600, Note_on_c, 15, 49, 65
16, 36660, Note_on_c, 15, 49, 0
16, 36660, Note_on_c, 15, 54, 66
16, 36780, Note_on_c, 15, 54, 0
16, 36900, Note_on_c, 15, 42, 68
16, 37020, Note_on_c, 15, 42, 0
16, 37140, Note_on_c, 15, 47, 69
16, 37260, Note_on_c, 15, 47, 0
16, 37380, Note_on_c, 15, 47, 71
16, 37500, Note_on_c, 15, 47, 0
16, 37620, Note_on_c, 15, 52, 73
16, 37740, Note_on_c, 15, 52, 0
16, 37860, Note_on_c, 15, 40, 75
16, 37980, Note_on_c, 15, 40, 0
16, 38100, Note_on_c, 15, 45, 76
16, 38220, Note_on_c, 15, 45, 0
16, 38340, Note_on_c, 15, 45, 64
16, 38460, Note_on_c, 15, 45, 0
16, 38580, Note_on_c, 15, 50, 65
16, 38700, Note_on_c, 15, 50, 0
16, 38820, Note_on_c, 15, 38, 66
16, 38940, Note_on_c, 15, 38, 0
16, 39060, Note_on_c, 15, 43, 67
16, 39180, Note_on_c, 15, 43, 0
16, 39180, Note_on_c, 15, 55, 68
16, 39360, Note_on_c, 15, 55, 0
16, 39360, Note_on_c, 15, 54, 68
16, 39390, Note_on_c, 15, 54, 0
16, 39390, Note_on_c, 15, 52, 68
16, 39420, Note_on_c, 15, 52, 0
16, 39420, Note_on_c, 15, 54, 69
16, 39480, Note_on_c, 15, 54, 0
16, 39480, Note_on_c, 15, 55, 69
16, 39540, Note_on_c, 15, 55, 0
16, 39540, Note_on_c, 15, 57, 69
16, 39660, Note_on_c, 15, 57, 0
16, 39660, Note_on_c, 15, 45, 70
16, 39780, Note_on_c, 15, 45, 0
16, 39780, Note_on_c, 15, 50, 64
16, 39815, Note_on_c, 15, 50, 0
16, 39840, Note_on_c, 15, 54, 64
16, 39870, Note_on_c, 15, 54, 0
16, 39870, Note_on_c, 15, 52, 64
16, 39900, Note_on_c, 15, 52, 0
16, 39900, Note_on_c, 15, 50, 64
16, 39960, Note_on_c, 15, 50, 0
16, 39960, Note_on_c, 15, 49, 64
16, 40020, Note_on_c, 15, 49, 0
16, 40020, Note_on_c, 15, 47, 64
16, 40080, Note_on_c, 15, 47, 0
16, 40080, Note_on_c, 15, 49, 64
16, 40110, Note_on_c, 15, 49, 0
16, 40110, Note_on_c, 15, 50, 64
16, 40140, Note_on_c, 15, 50, 0
16, 40140, Note_on_c, 15, 52, 64
16, 40200, Note_on_c, 15, 52, 0
16, 40200, Note_on_c, 15, 40, 64
16, 40260, Note_on_c, 15, 40, 0
16, 40260, Note_on_c, 15, 45, 64
16, 40380, Note_on_c, 15, 45, 0
16, 40380, Note_on_c, 15, 50, 64
16, 40440, Note_on_c, 15, 50, 0
16, 40440, Note_on_c, 15, 47, 64
16, 40500, Note_on_c, 15, 47, 0
16, 40500, Note_on_c, 15, 52, 64
16, 40620, Note_on_c, 15, 52, 0
16, 40620, Note_on_c, 15, 49, 64
16, 40680, Note_on_c, 15, 49, 0
16, 40680, Note_on_c, 15, 45, 64
16, 40740, Note_on_c, 15, 45, 0
16, 40740, Note_on_c, 15, 50, 64
16, 40800, Note_on_c, 15, 50, 0
16, 40800, Note_on_c, 15, 49, 64
16, 40835, Note_on_c, 15, 49, 0
16, 40860, Note_on_c, 15, 47, 64
16, 40920, Note_on_c, 15, 47, 0
16, 40920, Note_on_c, 15, 49, 64
16, 40955, Note_on_c, 15, 49, 0
16, 40980, Note_on_c, 15, 50, 64
16, 41040, Note_on_c, 15, 50, 0
16, 41040, Note_on_c, 15, 52, 64
16, 41075, Note_on_c, 15, 52, 0
16, 41100, Note_on_c, 15, 54, 64
16, 41160, Note_on_c, 15, 54, 0
16, 41160, Note_on_c, 15, 42, 64
16, 41195, Note_on_c, 15, 42, 0
16, 41220, Note_on_c, 15, 40, 64
16, 41280, Note_on_c, 15, 40, 0
16, 41280, Note_on_c, 15, 38, 64
16, 41340, Note_on_c, 15, 38, 0
16, 41340, Note_on_c, 15, 40, 64
16, 41375, Note_on_c, 15, 40, 0
16, 41400, Note_on_c, 15, 52, 64
16, 41435, Note_on_c, 15, 52, 0
16, 41460, Note_on_c, 15, 45, 64
16, 41520, Note_on_c, 15, 45, 0
16, 41520, Note_on_c, 15, 57, 64
16, 41640, Note_on_c, 15, 57, 0
16, 41640, Note_on_c, 15, 55, 64
16, 41670, Note_on_c, 15, 55, 0
16, 41670, Note_on_c, 15, 54, 64
16, 41700, Note_on_c, 15, 54, 0
16, 43620, Note_on_c, 15, 43, 64
16, 43655, Note_on_c, 15, 43, 0
16, 43680, Note_on_c, 15, 40, 64
16, 43715, Note_on_c, 15, 40, 0
16, 43740, Note_on_c, 15, 48, 64
16, 43775, Note_on_c, 15, 48, 0
16, 43800, Note_on_c, 15, 45, 64
16, 43835, Note_on_c, 15, 45, 0
16, 43860, Note_on_c, 15, 50, 64
16, 43980, Note_on_c, 15, 50, 0
16, 43980, Note_on_c, 15, 47, 64
16, 44015, Note_on_c, 15, 47, 0
16, 44040, Note_on_c, 15, 43, 64
16, 44075, Note_on_c, 15, 43, 0
16, 44100, Note_on_c, 15, 48, 64
16, 44135, Note_on_c, 15, 48, 0
16, 44160, Note_on_c, 15, 47, 64
16, 44195, Note_on_c, 15, 47, 0
16, 44220, Note_on_c, 15, 45, 64
16, 44255, Note_on_c, 15, 45, 0
16, 44280, Note_on_c, 15, 47, 64
16, 44315, Note_on_c, 15, 47, 0
16, 44340, Note_on_c, 15, 48, 64
16, 44375, Note_on_c, 15, 48, 0
16, 44400, Note_on_c, 15, 50, 64
16, 44435, Note_on_c, 15, 50, 0
16, 44460, Note_on_c, 15, 43, 64
16, 44495, Note_on_c, 15, 43, 0
16, 44520, Note_on_c, 15, 40, 64
16, 44555, Note_on_c, 15, 40, 0
16, 44580, Note_on_c, 15, 38, 64
16, 44640, Note_on_c, 15, 38, 0
16, 44640, Note_on_c, 15, 36, 65
16, 44700, Note_on_c, 15, 36, 0
16, 44700, Note_on_c, 15, 38, 65
16, 44735, Note_on_c, 15, 38, 0
16, 44760, Note_on_c, 15, 38, 66
16, 44795, Note_on_c, 15, 38, 0
16, 44820, Note_on_c, 15, 43, 66
16, 44940, Note_on_c, 15, 43, 0
16, 45000, Note_on_c, 15, 47, 68
16, 45060, Note_on_c, 15, 47, 0
16, 45060, Note_on_c, 15, 43, 68
16, 45120, Note_on_c, 15, 43, 0
16, 45120, Note_on_c, 15, 40, 69
16, 45180, Note_on_c, 15, 40, 0
16, 45180, Note_on_c, 15, 45, 69
16, 45215, Note_on_c, 15, 45, 0
16, 45240, Note_on_c, 15, 45, 70
16, 45275, Note_on_c, 15, 45, 0
16, 45300, Note_on_c, 15, 38, 70
16, 45420, Note_on_c, 15, 38, 0
16, 45480, Note_on_c, 15, 50, 72
16, 45540, Note_on_c, 15, 50, 0
16, 45540, Note_on_c, 15, 45, 72
16, 45660, Note_on_c, 15, 45, 0
16, 45720, Note_on_c, 15, 38, 74
16, 45780, Note_on_c, 15, 38, 0
16, 45780, Note_on_c, 15, 43, 74
16, 45900, Note_on_c, 15, 43, 0
16, 45960, Note_on_c, 15, 55, 76
16, 46080, Note_on_c, 15, 55, 0
16, 46080, Note_on_c, 15, 52, 77
16, 46140, Note_on_c, 15, 52, 0
16, 46140, Note_on_c, 15, 54, 77
16, 46200, Note_on_c, 15, 54, 0
16, 46200, Note_on_c, 15, 55, 78
16, 46260, Note_on_c, 15, 55, 0
16, 46260, Note_on_c, 15, 57, 78
16, 46290, Note_on_c, 15, 57, 0
16, 46290, Note_on_c, 15, 55, 78
16, 46320, Note_on_c, 15, 55, 0
16, 46320, Note_on_c, 15, 57, 79
16, 46355, Note_on_c, 15, 57, 0
16, 46380, Note_on_c, 15, 45, 79
16, 46440, Note_on_c, 15, 45, 0
16, 46440, Note_on_c, 15, 57, 80
16, 46475, Note_on_c, 15, 57, 0
16, 46500, Note_on_c, 15, 50, 64
16, 46511, Note_on_c, 15, 50, 0
16, 46560, Note_on_c, 15, 54, 64
16, 46590, Note_on_c, 15, 54, 0
16, 46590, Note_on_c, 15, 52, 64
16, 46620, Note_on_c, 15, 52, 0
16, 46620, Note_on_c, 15, 50, 64
16, 46655, Note_on_c, 15, 50, 0
16, 46680, Note_on_c, 15, 49, 64
16, 46715, Note_on_c, 15, 49, 0
16, 46740, Note_on_c, 15, 47, 64
16, 46775, Note_on_c, 15, 47, 0
16, 46800, Note_on_c, 15, 52, 64
16, 46835, Note_on_c, 15, 52, 0
16, 46860, Note_on_c, 15, 40, 64
16, 46895, Note_on_c, 15, 40, 0
16, 46920, Note_on_c, 15, 52, 64
16, 46955, Note_on_c, 15, 52, 0
16, 46980, Note_on_c, 15, 45, 40
16, 47015, Note_on_c, 15, 45, 0
16, 47040, Note_on_c, 15, 61, 40
16, 47070, Note_on_c, 15, 61, 0
16, 47070, Note_on_c, 15, 59, 40
16, 47100, Note_on_c, 15, 59, 0
16, 47100, Note_on_c, 15, 57, 40
16, 47135, Note_on_c, 15, 57, 0
16, 47160, Note_on_c, 15, 61, 40
16, 47195, Note_on_c, 15, 61, 0
16, 47220, Note_on_c, 15, 54, 40
16, 47255, Note_on_c, 15, 54, 0
16, 47280, Note_on_c, 15, 57, 40
16, 47315, Note_on_c, 15, 57, 0
16, 47340, Note_on_c, 15, 51, 40
16, 47375, Note_on_c, 15, 51, 0
16, 47400, Note_on_c, 15, 47, 40
16, 47435, Note_on_c, 15, 47, 0
16, 47460, Note_on_c, 15, 52, 40
16, 47495, Note_on_c, 15, 52, 0
16, 47520, Note_on_c, 15, 55, 40
16, 47550, Note_on_c, 15, 55, 0
16, 47550, Note_on_c, 15, 54, 40
16, 47580, Note_on_c, 15, 54, 0
16, 47580, Note_on_c, 15, 52, 40
16, 47615, Note_on_c, 15, 52, 0
16, 47640, Note_on_c, 15, 50, 40
16, 47675, Note_on_c, 15, 50, 0
16, 47700, Note_on_c, 15, 49, 40
16, 47735, Note_on_c, 15, 49, 0
16, 47760, Note_on_c, 15, 50, 40
16, 47790, Note_on_c, 15, 50, 0
16, 47790, Note_on_c, 15, 52, 40
16, 47820, Note_on_c, 15, 52, 0
16, 47820, Note_on_c, 15, 54, 40
16, 47855, Note_on_c, 15, 54, 0
16, 47880, Note_on_c, 15, 42, 40
16, 47915, Note_on_c, 15, 42, 0
16, 47940, Note_on_c, 15, 47, 30
16, 48060, Note_on_c, 15, 47, 0
16, 48180, Note_on_c, 15, 59, 38
16, 48300, Note_on_c, 15, 59, 0
16, 48420, Note_on_c, 15, 52, 47
16, 48540, Note_on_c, 15, 52, 0
16, 48660, Note_on_c, 15, 40, 55
16, 48780, Note_on_c, 15, 40, 0
16, 48900, Note_on_c, 15, 45, 63
16, 49020, Note_on_c, 15, 45, 0
16, 49140, Note_on_c, 15, 57, 72
16, 49260, Note_on_c, 15, 57, 0
16, 49380, Note_on_c, 15, 50, 80
16, 49500, Note_on_c, 15, 50, 0
16, 49620, Note_on_c, 15, 38, 81
16, 49740, Note_on_c, 15, 38, 0
16, 49860, Note_on_c, 15, 43, 83
16, 49980, Note_on_c, 15, 43, 0
16, 50100, Note_on_c, 15, 52, 84
16, 50220, Note_on_c, 15, 52, 0
16, 50340, Note_on_c, 15, 40, 85
16, 50460, Note_on_c, 15, 40, 0
16, 50580, Note_on_c, 15, 45, 86
16, 50700, Note_on_c, 15, 45, 0
16, 50820, Note_on_c, 15, 54, 88
16, 50940, Note_on_c, 15, 54, 0
16, 51060, Note_on_c, 15, 42, 89
16, 51180, Note_on_c, 15, 42, 0
16, 51240, Note_on_c, 15, 54, 90
16, 51300, Note_on_c, 15, 54, 0
16, 51300, Note_on_c, 15, 59, 80
16, 51360, Note_on_c, 15, 59, 0
16, 51360, Note_on_c, 15, 57, 81
16, 51395, Note_on_c, 15, 57, 0
16, 51420, Note_on_c, 15, 57, 81
16, 51480, Note_on_c, 15, 57, 0
16, 51480, Note_on_c, 15, 55, 82
16, 51515, Note_on_c, 15, 55, 0
16, 51540, Note_on_c, 15, 55, 83
16, 51600, Note_on_c, 15, 55, 0
16, 51600, Note_on_c, 15, 54, 84
16, 51635, Note_on_c, 15, 54, 0
16, 51660, Note_on_c, 15, 54, 84
16, 51720, Note_on_c, 15, 54, 0
16, 51720, Note_on_c, 15, 52, 85
16, 51755, Note_on_c, 15, 52, 0
16, 51780, Note_on_c, 15, 52, 86
16, 51840, Note_on_c, 15, 52, 0
16, 51840, Note_on_c, 15, 50, 86
16, 51875, Note_on_c, 15, 50, 0
16, 51900, Note_on_c, 15, 52, 87
16, 51960, Note_on_c, 15, 52, 0
16, 51960, Note_on_c, 15, 45, 88
16, 51995, Note_on_c, 15, 45, 0
16, 52020, Note_on_c, 15, 50, 89
16, 52080, Note_on_c, 15, 50, 0
16, 52080, Note_on_c, 15, 52, 89
16, 52115, Note_on_c, 15, 52, 0
16, 52140, Note_on_c, 15, 54, 90
16, 52200, Note_on_c, 15, 54, 0
16, 52200, Note_on_c, 15, 50, 91
16, 52235, Note_on_c, 15, 50, 0
16, 52260, Note_on_c, 15, 52, 91
16, 52320, Note_on_c, 15, 52, 0
16, 52320, Note_on_c, 15, 50, 92
16, 52355, Note_on_c, 15, 50, 0
16, 52380, Note_on_c, 15, 49, 93
16, 52440, Note_on_c, 15, 49, 0
16, 52440, Note_on_c, 15, 54, 94
16, 52475, Note_on_c, 15, 54, 0
16, 52500, Note_on_c, 15, 52, 94
16, 52560, Note_on_c, 15, 52, 0
16, 52560, Note_on_c, 15, 50, 95
16, 52595, Note_on_c, 15, 50, 0
16, 52620, Note_on_c, 15, 52, 96
16, 52680, Note_on_c, 15, 52, 0
16, 52680, Note_on_c, 15, 40, 96
16, 52740, Note_on_c, 15, 40, 0
16, 52740, Note_on_c, 15, 45, 97
16, 52775, Note_on_c, 15, 45, 0
16, 52800, Note_on_c, 15, 57, 98
16, 52920, Note_on_c, 15, 57, 0
16, 52920, Note_on_c, 15, 55, 99
16, 52950, Note_on_c, 15, 55, 0
16, 52950, Note_on_c, 15, 54, 100
16, 52980, Note_on_c, 15, 54, 0
16, 52980, Note_on_c, 15, 52, 100
16, 53040, Note_on_c, 15, 52, 0
16, 53040, Note_on_c, 15, 50, 101
16, 53100, Note_on_c, 15, 50, 0
16, 53100, Note_on_c, 15, 49, 101
16, 53160, Note_on_c, 15, 49, 0
16, 53160, Note_on_c, 15, 45, 102
16, 53220, Note_on_c, 15, 45, 0
16, 53220, Note_on_c, 15, 50, 103
16, 53280, Note_on_c, 15, 50, 0
16, 53280, Note_on_c, 15, 47, 104
16, 53315, Note_on_c, 15, 47, 0
16, 53340, Note_on_c, 15, 43, 104
16, 53400, Note_on_c, 15, 43, 0
16, 53400, Note_on_c, 15, 40, 105
16, 53435, Note_on_c, 15, 40, 0
16, 53460, Note_on_c, 15, 45, 106
16, 53580, Note_on_c, 15, 45, 0
16, 53640, Note_on_c, 15, 38, 108
16, 53700, Note_on_c, 15, 38, 0
16, 53700, Note_on_c, 15, 43, 109
16, 53735, Note_on_c, 15, 43, 0
16, 53760, Note_on_c, 15, 50, 109
16, 53820, Note_on_c, 15, 50, 0
16, 53820, Note_on_c, 15, 55, 110
16, 54000, Note_on_c, 15, 55, 0
16, 54000, Note_on_c, 15, 54, 112
16, 54030, Note_on_c, 15, 54, 0
16, 54030, Note_on_c, 15, 52, 113
16, 54060, Note_on_c, 15, 52, 0
16, 54060, Note_on_c, 15, 54, 113
16, 54095, Note_on_c, 15, 54, 0
16, 54120, Note_on_c, 15, 55, 114
16, 54155, Note_on_c, 15, 55, 0
16, 54180, Note_on_c, 15, 57, 114
16, 54300, Note_on_c, 15, 57, 0
16, 54300, Note_on_c, 15, 45, 116
16, 54420, Note_on_c, 15, 45, 0
16, 54420, Note_on_c, 15, 38, 117
16, 54660, Note_on_c, 15, 38, 0
16, 55140, End_track
17, 0, Start_track
17, 0, MIDI_port, 0
17, 0, Title_t, "Oboe"
17, 0, Program_c, 3, 68
17, 210, Note_on_c, 3, 62, 70
17, 210, Note_on_c, 3, 62, 70
17, 240, Note_on_c, 3, 62, 0
17, 240, Note_on_c, 3, 62, 0
17, 240, Note_on_c, 3, 66, 70
17, 240, Note_on_c, 3, 66, 70
17, 270, Note_on_c, 3, 66, 0
17, 270, Note_on_c, 3, 66, 0
17, 270, Note_on_c, 3, 69, 70
17, 270, Note_on_c, 3, 69, 70
17, 300, Note_on_c, 3, 69, 0
17, 300, Note_on_c, 3, 69, 0
17, 300, Note_on_c, 3, 66, 70
17, 300, Note_on_c, 3, 66, 70
17, 330, Note_on_c, 3, 66, 0
17, 330, Note_on_c, 3, 66, 0
17, 330, Note_on_c, 3, 62, 70
17, 330, Note_on_c, 3, 62, 70
17, 360, Note_on_c, 3, 62, 0
17, 360, Note_on_c, 3, 62, 0
17, 360, Note_on_c, 3, 69, 70
17, 360, Note_on_c, 3, 69, 70
17, 570, Note_on_c, 3, 69, 0
17, 570, Note_on_c, 3, 69, 0
17, 570, Note_on_c, 3, 62, 70
17, 570, Note_on_c, 3, 62, 70
17, 600, Note_on_c, 3, 62, 0
17, 600, Note_on_c, 3, 62, 0
17, 600, Note_on_c, 3, 66, 70
17, 600, Note_on_c, 3, 66, 70
17, 630, Note_on_c, 3, 66, 0
17, 630, Note_on_c, 3, 66, 0
17, 630, Note_on_c, 3, 69, 70
17, 630, Note_on_c, 3, 69, 70
17, 660, Note_on_c, 3, 69, 0
17, 660, Note_on_c, 3, 69, 0
17, 660, Note_on_c, 3, 66, 70
17, 660, Note_on_c, 3, 66, 70
17, 690, Note_on_c, 3, 66, 0
17, 690, Note_on_c, 3, 66, 0
17, 690, Note_on_c, 3, 62, 70
17, 690, Note_on_c, 3, 62, 70
17, 720, Note_on_c, 3, 62, 0
17, 720, Note_on_c, 3, 62, 0
17, 720, Note_on_c, 3, 69, 70
17, 720, Note_on_c, 3, 69, 70
17, 930, Note_on_c, 3, 69, 0
17, 930, Note_on_c, 3, 69, 0
17, 930, Note_on_c, 3, 69, 70
17, 930, Note_on_c, 3, 69, 70
17, 960, Note_on_c, 3, 69, 0
17, 960, Note_on_c, 3, 69, 0
17, 960, Note_on_c, 3, 74, 70
17, 960, Note_on_c, 3, 74, 70
17, 990, Note_on_c, 3, 74, 0
17, 990, Note_on_c, 3, 74, 0
17, 990, Note_on_c, 3, 78, 70
17, 990, Note_on_c, 3, 78, 70
17, 1020, Note_on_c, 3, 78, 0
17, 1020, Note_on_c, 3, 78, 0
17, 1020, Note_on_c, 3, 81, 70
17, 1020, Note_on_c, 3, 81, 70
17, 1050, Note_on_c, 3, 81, 0
17, 1050, Note_on_c, 3, 81, 0
17, 1050, Note_on_c, 3, 73, 70
17, 1050, Note_on_c, 3, 73, 70
17, 1080, Note_on_c, 3, 73, 0
17, 1080, Note_on_c, 3, 73, 0
17, 1080, Note_on_c, 3, 74, 70
17, 1080, Note_on_c, 3, 74, 70
17, 1110, Note_on_c, 3, 74, 0
17, 1110, Note_on_c, 3, 74, 0
17, 1110, Note_on_c, 3, 78, 70
17, 1110, Note_on_c, 3, 78, 70
17, 1140, Note_on_c, 3, 78, 0
17, 1140, Note_on_c, 3, 78, 0
17, 1140, Note_on_c, 3, 83, 70
17, 1140, Note_on_c, 3, 83, 70
17, 1170, Note_on_c, 3, 83, 0
17, 1170, Note_on_c, 3, 83, 0
17, 1170, Note_on_c, 3, 81, 70
17, 1170, Note_on_c, 3, 81, 70
17, 1200, Note_on_c, 3, 81, 0
17, 1200, Note_on_c, 3, 81, 0
17, 1200, Note_on_c, 3, 79, 70
17, 1200, Note_on_c, 3, 79, 70
17, 1230, Note_on_c, 3, 79, 0
17, 1230, Note_on_c, 3, 79, 0
17, 1230, Note_on_c, 3, 78, 70
17, 1230, Note_on_c, 3, 78, 70
17, 1260, Note_on_c, 3, 78, 0
17, 1260, Note_on_c, 3, 78, 0
17, 1260, Note_on_c, 3, 76, 70
17, 1260, Note_on_c, 3, 76, 70
17, 1290, Note_on_c, 3, 76, 0
17, 1290, Note_on_c, 3, 76, 0
17, 1290, Note_on_c, 3, 73, 70
17, 1290, Note_on_c, 3, 69, 70
17, 1320, Note_on_c, 3, 69, 0
17, 1320, Note_on_c, 3, 73, 0
17, 1320, Note_on_c, 3, 76, 70
17, 1320, Note_on_c, 3, 73, 70
17, 1350, Note_on_c, 3, 73, 0
17, 1350, Note_on_c, 3, 76, 0
17, 1350, Note_on_c, 3, 79, 70
17, 1350, Note_on_c, 3, 76, 70
17, 1380, Note_on_c, 3, 76, 0
17, 1380, Note_on_c, 3, 79, 0
17, 1380, Note_on_c, 3, 76, 70
17, 1380, Note_on_c, 3, 73, 70
17, 1410, Note_on_c, 3, 73, 0
17, 1410, Note_on_c, 3, 76, 0
17, 1410, Note_on_c, 3, 73, 70
17, 1410, Note_on_c, 3, 69, 70
17, 1440, Note_on_c, 3, 69, 0
17, 1440, Note_on_c, 3, 73, 0
17, 1440, Note_on_c, 3, 74, 70
17, 1440, Note_on_c, 3, 74, 70
17, 1470, Note_on_c, 3, 74, 0
17, 1470, Note_on_c, 3, 74, 0
17, 1470, Note_on_c, 3, 78, 70
17, 1470, Note_on_c, 3, 78, 70
17, 1500, Note_on_c, 3, 78, 0
17, 1500, Note_on_c, 3, 78, 0
17, 1500, Note_on_c, 3, 76, 70
17, 1500, Note_on_c, 3, 76, 70
17, 1530, Note_on_c, 3, 76, 0
17, 1530, Note_on_c, 3, 76, 0
17, 1530, Note_on_c, 3, 74, 70
17, 1530, Note_on_c, 3, 74, 70
17, 1560, Note_on_c, 3, 74, 0
17, 1560, Note_on_c, 3, 74, 0
17, 1560, Note_on_c, 3, 73, 70
17, 1560, Note_on_c, 3, 73, 70
17, 1590, Note_on_c, 3, 73, 0
17, 1590, Note_on_c, 3, 73, 0
17, 1590, Note_on_c, 3, 71, 70
17, 1590, Note_on_c, 3, 71, 70
17, 1620, Note_on_c, 3, 71, 0
17, 1620, Note_on_c, 3, 71, 0
17, 1620, Note_on_c, 3, 73, 70
17, 1620, Note_on_c, 3, 73, 70
17, 1650, Note_on_c, 3, 73, 0
17, 1650, Note_on_c, 3, 69, 70
17, 1655, Note_on_c, 3, 73, 0
17, 1680, Note_on_c, 3, 69, 0
17, 1680, Note_on_c, 3, 73, 70
17, 1710, Note_on_c, 3, 73, 0
17, 1710, Note_on_c, 3, 76, 70
17, 1740, Note_on_c, 3, 76, 0
17, 1740, Note_on_c, 3, 73, 70
17, 1770, Note_on_c, 3, 73, 0
17, 1770, Note_on_c, 3, 69, 70
17, 1800, Note_on_c, 3, 69, 0
17, 1800, Note_on_c, 3, 81, 64
17, 1830, Note_on_c, 3, 66, 64
17, 1860, Note_on_c, 3, 66, 0
17, 1860, Note_on_c, 3, 69, 64
17, 1890, Note_on_c, 3, 69, 0
17, 1890, Note_on_c, 3, 73, 64
17, 1920, Note_on_c, 3, 73, 0
17, 1920, Note_on_c, 3, 69, 64
17, 1950, Note_on_c, 3, 69, 0
17, 1950, Note_on_c, 3, 66, 64
17, 1980, Note_on_c, 3, 66, 0
17, 1980, Note_on_c, 3, 78, 64
17, 2010, Note_on_c, 3, 81, 0
17, 2010, Note_on_c, 3, 71, 64
17, 2040, Note_on_c, 3, 71, 0
17, 2040, Note_on_c, 3, 75, 64
17, 2070, Note_on_c, 3, 75, 0
17, 2070, Note_on_c, 3, 78, 64
17, 2100, Note_on_c, 3, 78, 0
17, 2100, Note_on_c, 3, 75, 64
17, 2130, Note_on_c, 3, 75, 0
17, 2130, Note_on_c, 3, 71, 64
17, 2160, Note_on_c, 3, 71, 0
17, 2160, Note_on_c, 3, 83, 64
17, 2190, Note_on_c, 3, 83, 0
17, 2190, Note_on_c, 3, 78, 0
17, 2190, Note_on_c, 3, 84, 64
17, 2190, Note_on_c, 3, 81, 64
17, 2220, Note_on_c, 3, 81, 0
17, 2220, Note_on_c, 3, 84, 0
17, 2220, Note_on_c, 3, 83, 64
17, 2220, Note_on_c, 3, 79, 64
17, 2250, Note_on_c, 3, 79, 0
17, 2250, Note_on_c, 3, 83, 0
17, 2250, Note_on_c, 3, 81, 64
17, 2250, Note_on_c, 3, 78, 64
17, 2280, Note_on_c, 3, 78, 0
17, 2280, Note_on_c, 3, 81, 0
17, 2280, Note_on_c, 3, 79, 64
17, 2280, Note_on_c, 3, 76, 64
17, 2310, Note_on_c, 3, 76, 0
17, 2310, Note_on_c, 3, 79, 0
17, 2310, Note_on_c, 3, 78, 64
17, 2310, Note_on_c, 3, 75, 64
17, 2340, Note_on_c, 3, 75, 0
17, 2340, Note_on_c, 3, 78, 0
17, 2340, Note_on_c, 3, 79, 64
17, 2340, Note_on_c, 3, 76, 64
17, 2370, Note_on_c, 3, 79, 0
17, 2370, Note_on_c, 3, 71, 64
17, 2375, Note_on_c, 3, 76, 0
17, 2400, Note_on_c, 3, 71, 0
17, 2400, Note_on_c, 3, 76, 64
17, 2430, Note_on_c, 3, 76, 0
17, 2430, Note_on_c, 3, 79, 64
17, 2460, Note_on_c, 3, 79, 0
17, 2460, Note_on_c, 3, 76, 64
17, 2490, Note_on_c, 3, 76, 0
17, 2490, Note_on_c, 3, 71, 64
17, 2520, Note_on_c, 3, 71, 0
17, 2520, Note_on_c, 3, 79, 64
17, 2550, Note_on_c, 3, 64, 64
17, 2580, Note_on_c, 3, 64, 0
17, 2580, Note_on_c, 3, 67, 64
17, 2610, Note_on_c, 3, 67, 0
17, 2610, Note_on_c, 3, 71, 64
17, 2640, Note_on_c, 3, 71, 0
17, 2640, Note_on_c, 3, 67, 64
17, 2670, Note_on_c, 3, 67, 0
17, 2670, Note_on_c, 3, 64, 64
17, 2700, Note_on_c, 3, 64, 0
17, 2700, Note_on_c, 3, 76, 64
17, 2730, Note_on_c, 3, 79, 0
17, 2730, Note_on_c, 3, 69, 64
17, 2760, Note_on_c, 3, 69, 0
17, 2760, Note_on_c, 3, 73, 64
17, 2790, Note_on_c, 3, 73, 0
17, 2790, Note_on_c, 3, 76, 64
17, 2820, Note_on_c, 3, 76, 0
17, 2820, Note_on_c, 3, 73, 64
17, 2850, Note_on_c, 3, 73, 0
17, 2850, Note_on_c, 3, 69, 64
17, 2880, Note_on_c, 3, 69, 0
17, 2880, Note_on_c, 3, 81, 64
17, 2910, Note_on_c, 3, 81, 0
17, 2910, Note_on_c, 3, 76, 0
17, 2910, Note_on_c, 3, 83, 64
17, 2910, Note_on_c, 3, 79, 64
17, 2940, Note_on_c, 3, 79, 0
17, 2940, Note_on_c, 3, 83, 0
17, 2940, Note_on_c, 3, 81, 64
17, 2940, Note_on_c, 3, 78, 64
17, 2970, Note_on_c, 3, 78, 0
17, 2970, Note_on_c, 3, 81, 0
17, 2970, Note_on_c, 3, 79, 64
17, 2970, Note_on_c, 3, 76, 64
17, 3000, Note_on_c, 3, 76, 0
17, 3000, Note_on_c, 3, 79, 0
17, 3000, Note_on_c, 3, 78, 64
17, 3000, Note_on_c, 3, 74, 64
17, 3030, Note_on_c, 3, 74, 0
17, 3030, Note_on_c, 3, 78, 0
17, 3030, Note_on_c, 3, 76, 64
17, 3030, Note_on_c, 3, 73, 64
17, 3060, Note_on_c, 3, 73, 0
17, 3060, Note_on_c, 3, 76, 0
17, 3060, Note_on_c, 3, 78, 64
17, 3060, Note_on_c, 3, 74, 64
17, 3090, Note_on_c, 3, 78, 0
17, 3090, Note_on_c, 3, 74, 64
17, 3095, Note_on_c, 3, 74, 0
17, 3120, Note_on_c, 3, 74, 0
17, 3120, Note_on_c, 3, 78, 64
17, 3150, Note_on_c, 3, 78, 0
17, 3150, Note_on_c, 3, 81, 64
17, 3180, Note_on_c, 3, 81, 0
17, 3180, Note_on_c, 3, 86, 64
17, 3180, Note_on_c, 3, 78, 64
17, 3210, Note_on_c, 3, 86, 0
17, 3210, Note_on_c, 3, 78, 64
17, 3215, Note_on_c, 3, 78, 0
17, 3240, Note_on_c, 3, 78, 0
17, 3240, Note_on_c, 3, 76, 64
17, 3240, Note_on_c, 3, 83, 64
17, 3270, Note_on_c, 3, 76, 0
17, 3270, Note_on_c, 3, 86, 64
17, 3275, Note_on_c, 3, 83, 0
17, 3300, Note_on_c, 3, 86, 0
17, 3300, Note_on_c, 3, 85, 64
17, 3330, Note_on_c, 3, 85, 0
17, 3330, Note_on_c, 3, 83, 64
17, 3360, Note_on_c, 3, 83, 0
17, 3360, Note_on_c, 3, 85, 64
17, 3360, Note_on_c, 3, 81, 64
17, 3390, Note_on_c, 3, 85, 0
17, 3390, Note_on_c, 3, 76, 64
17, 3395, Note_on_c, 3, 81, 0
17, 3420, Note_on_c, 3, 76, 0
17, 3420, Note_on_c, 3, 74, 64
17, 3420, Note_on_c, 3, 78, 64
17, 3450, Note_on_c, 3, 74, 0
17, 3450, Note_on_c, 3, 71, 64
17, 3455, Note_on_c, 3, 78, 0
17, 3480, Note_on_c, 3, 71, 0
17, 3480, Note_on_c, 3, 74, 64
17, 3510, Note_on_c, 3, 74, 0
17, 3510, Note_on_c, 3, 78, 64
17, 3540, Note_on_c, 3, 78, 0
17, 3540, Note_on_c, 3, 83, 64
17, 3540, Note_on_c, 3, 79, 64
17, 3570, Note_on_c, 3, 83, 0
17, 3570, Note_on_c, 3, 74, 64
17, 3575, Note_on_c, 3, 79, 0
17, 3600, Note_on_c, 3, 74, 0
17, 3600, Note_on_c, 3, 73, 64
17, 3600, Note_on_c, 3, 79, 64
17, 3630, Note_on_c, 3, 73, 0
17, 3630, Note_on_c, 3, 83, 64
17, 3635, Note_on_c, 3, 79, 0
17, 3660, Note_on_c, 3, 83, 0
17, 3660, Note_on_c, 3, 81, 64
17, 3690, Note_on_c, 3, 81, 0
17, 3690, Note_on_c, 3, 79, 64
17, 3720, Note_on_c, 3, 79, 0
17, 3720, Note_on_c, 3, 81, 64
17, 3720, Note_on_c, 3, 74, 64
17, 3750, Note_on_c, 3, 81, 0
17, 3750, Note_on_c, 3, 72, 64
17, 3755, Note_on_c, 3, 74, 0
17, 3780, Note_on_c, 3, 72, 0
17, 3780, Note_on_c, 3, 71, 64
17, 3780, Note_on_c, 3, 74, 64
17, 3810, Note_on_c, 3, 71, 0
17, 3810, Note_on_c, 3, 67, 65
17, 3815, Note_on_c, 3, 74, 0
17, 3840, Note_on_c, 3, 67, 0
17, 3840, Note_on_c, 3, 71, 65
17, 3870, Note_on_c, 3, 71, 0
17, 3870, Note_on_c, 3, 74, 66
17, 3900, Note_on_c, 3, 74, 0
17, 3900, Note_on_c, 3, 79, 67
17, 3900, Note_on_c, 3, 76, 67
17, 3930, Note_on_c, 3, 79, 0
17, 3930, Note_on_c, 3, 71, 67
17, 3935, Note_on_c, 3, 76, 0
17, 3960, Note_on_c, 3, 71, 0
17, 3960, Note_on_c, 3, 69, 68
17, 3960, Note_on_c, 3, 76, 68
17, 3990, Note_on_c, 3, 69, 0
17, 3990, Note_on_c, 3, 79, 69
17, 3995, Note_on_c, 3, 76, 0
17, 4020, Note_on_c, 3, 79, 0
17, 4020, Note_on_c, 3, 78, 69
17, 4050, Note_on_c, 3, 78, 0
17, 4050, Note_on_c, 3, 76, 70
17, 4080, Note_on_c, 3, 76, 0
17, 4080, Note_on_c, 3, 78, 71
17, 4080, Note_on_c, 3, 69, 71
17, 4110, Note_on_c, 3, 78, 0
17, 4110, Note_on_c, 3, 69, 71
17, 4115, Note_on_c, 3, 69, 0
17, 4140, Note_on_c, 3, 69, 0
17, 4140, Note_on_c, 3, 71, 72
17, 4140, Note_on_c, 3, 71, 72
17, 4170, Note_on_c, 3, 71, 0
17, 4170, Note_on_c, 3, 71, 0
17, 4170, Note_on_c, 3, 69, 73
17, 4170, Note_on_c, 3, 69, 73
17, 4200, Note_on_c, 3, 69, 0
17, 4200, Note_on_c, 3, 69, 0
17, 4200, Note_on_c, 3, 67, 73
17, 4200, Note_on_c, 3, 67, 73
17, 4230, Note_on_c, 3, 67, 0
17, 4230, Note_on_c, 3, 67, 0
17, 4230, Note_on_c, 3, 66, 74
17, 4230, Note_on_c, 3, 66, 74
17, 4260, Note_on_c, 3, 66, 0
17, 4260, Note_on_c, 3, 66, 0
17, 4260, Note_on_c, 3, 64, 75
17, 4260, Note_on_c, 3, 64, 75
17, 4290, Note_on_c, 3, 64, 0
17, 4290, Note_on_c, 3, 64, 0
17, 4290, Note_on_c, 3, 73, 75
17, 4290, Note_on_c, 3, 73, 75
17, 4320, Note_on_c, 3, 73, 0
17, 4320, Note_on_c, 3, 73, 0
17, 4320, Note_on_c, 3, 74, 76
17, 4320, Note_on_c, 3, 74, 76
17, 4350, Note_on_c, 3, 74, 0
17, 4350, Note_on_c, 3, 74, 0
17, 4350, Note_on_c, 3, 76, 77
17, 4350, Note_on_c, 3, 76, 77
17, 4380, Note_on_c, 3, 76, 0
17, 4380, Note_on_c, 3, 76, 0
17, 4380, Note_on_c, 3, 73, 77
17, 4380, Note_on_c, 3, 73, 77
17, 4470, Note_on_c, 3, 73, 0
17, 4470, Note_on_c, 3, 73, 0
17, 4470, Note_on_c, 3, 74, 79
17, 4470, Note_on_c, 3, 74, 79
17, 4500, Note_on_c, 3, 74, 0
17, 4500, Note_on_c, 3, 74, 0
17, 4500, Note_on_c, 3, 74, 80
17, 4500, Note_on_c, 3, 74, 80
17, 4535, Note_on_c, 3, 74, 0
17, 4535, Note_on_c, 3, 74, 0
17, 4535, Control_c, 3, 7, 75
17, 4535, Control_c, 3, 7, 75
17, 4560, Note_on_c, 3, 62, 64
17, 4595, Note_on_c, 3, 62, 0
17, 4620, Note_on_c, 3, 74, 64
17, 4715, Note_on_c, 3, 74, 0
17, 4740, Note_on_c, 3, 73, 64
17, 4770, Note_on_c, 3, 73, 0
17, 4770, Note_on_c, 3, 74, 64
17, 4800, Note_on_c, 3, 74, 0
17, 4800, Note_on_c, 3, 71, 64
17, 4830, Note_on_c, 3, 71, 0
17, 4830, Note_on_c, 3, 73, 64
17, 4860, Note_on_c, 3, 73, 0
17, 4860, Note_on_c, 3, 74, 64
17, 4860, Note_on_c, 3, 74, 64
17, 4890, Note_on_c, 3, 74, 0
17, 4890, Note_on_c, 3, 73, 64
17, 4895, Note_on_c, 3, 74, 0
17, 4920, Note_on_c, 3, 73, 0
17, 4920, Note_on_c, 3, 74, 64
17, 4920, Note_on_c, 3, 62, 64
17, 4950, Note_on_c, 3, 74, 0
17, 4950, Note_on_c, 3, 76, 64
17, 4955, Note_on_c, 3, 62, 0
17, 4980, Note_on_c, 3, 76, 0
17, 4980, Note_on_c, 3, 78, 64
17, 4980, Note_on_c, 3, 74, 64
17, 5010, Note_on_c, 3, 78, 0
17, 5010, Note_on_c, 3, 79, 64
17, 5040, Note_on_c, 3, 79, 0
17, 5040, Note_on_c, 3, 76, 64
17, 5075, Note_on_c, 3, 76, 0
17, 5075, Note_on_c, 3, 74, 0
17, 5100, Note_on_c, 3, 69, 64
17, 5100, Note_on_c, 3, 73, 64
17, 5130, Note_on_c, 3, 73, 0
17, 5130, Note_on_c, 3, 74, 64
17, 5135, Note_on_c, 3, 69, 0
17, 5160, Note_on_c, 3, 74, 0
17, 5160, Note_on_c, 3, 79, 64
17, 5160, Note_on_c, 3, 71, 64
17, 5190, Note_on_c, 3, 71, 0
17, 5190, Note_on_c, 3, 73, 64
17, 5195, Note_on_c, 3, 79, 0
17, 5220, Note_on_c, 3, 73, 0
17, 5220, Note_on_c, 3, 78, 55
17, 5220, Note_on_c, 3, 74, 55
17, 5255, Note_on_c, 3, 74, 0
17, 5255, Note_on_c, 3, 78, 0
17, 5280, Note_on_c, 3, 74, 56
17, 5280, Note_on_c, 3, 69, 56
17, 5315, Note_on_c, 3, 74, 0
17, 5340, Note_on_c, 3, 73, 57
17, 5375, Note_on_c, 3, 73, 0
17, 5400, Note_on_c, 3, 74, 58
17, 5435, Note_on_c, 3, 74, 0
17, 5435, Note_on_c, 3, 69, 0
17, 5460, Note_on_c, 3, 76, 59
17, 5460, Note_on_c, 3, 71, 59
17, 5490, Note_on_c, 3, 71, 0
17, 5490, Note_on_c, 3, 76, 0
17, 5490, Note_on_c, 3, 74, 60
17, 5490, Note_on_c, 3, 69, 60
17, 5520, Note_on_c, 3, 69, 0
17, 5520, Note_on_c, 3, 74, 0
17, 5520, Note_on_c, 3, 73, 60
17, 5520, Note_on_c, 3, 67, 60
17, 5550, Note_on_c, 3, 67, 0
17, 5550, Note_on_c, 3, 73, 0
17, 5550, Note_on_c, 3, 74, 61
17, 5550, Note_on_c, 3, 66, 61
17, 5580, Note_on_c, 3, 66, 0
17, 5580, Note_on_c, 3, 74, 0
17, 5580, Note_on_c, 3, 76, 61
17, 5580, Note_on_c, 3, 64, 61
17, 5610, Note_on_c, 3, 76, 0
17, 5610, Note_on_c, 3, 69, 62
17, 5615, Note_on_c, 3, 64, 0
17, 5640, Note_on_c, 3, 69, 0
17, 5640, Note_on_c, 3, 73, 62
17, 5670, Note_on_c, 3, 73, 0
17, 5670, Note_on_c, 3, 76, 63
17, 5700, Note_on_c, 3, 76, 0
17, 5700, Note_on_c, 3, 73, 63
17, 5730, Note_on_c, 3, 73, 0
17, 5730, Note_on_c, 3, 69, 64
17, 5760, Note_on_c, 3, 69, 0
17, 5760, Note_on_c, 3, 81, 64
17, 5790, Note_on_c, 3, 66, 65
17, 5820, Note_on_c, 3, 66, 0
17, 5820, Note_on_c, 3, 69, 65
17, 5850, Note_on_c, 3, 69, 0
17, 5850, Note_on_c, 3, 74, 66
17, 5880, Note_on_c, 3, 74, 0
17, 5880, Note_on_c, 3, 69, 66
17, 5910, Note_on_c, 3, 69, 0
17, 5910, Note_on_c, 3, 66, 67
17, 5940, Note_on_c, 3, 66, 0
17, 5940, Note_on_c, 3, 73, 67
17, 5970, Note_on_c, 3, 73, 0
17, 5970, Note_on_c, 3, 64, 68
17, 5975, Note_on_c, 3, 81, 0
17, 6000, Note_on_c, 3, 64, 0
17, 6000, Note_on_c, 3, 69, 68
17, 6030, Note_on_c, 3, 69, 0
17, 6030, Note_on_c, 3, 73, 69
17, 6060, Note_on_c, 3, 73, 0
17, 6060, Note_on_c, 3, 69, 69
17, 6090, Note_on_c, 3, 69, 0
17, 6090, Note_on_c, 3, 64, 70
17, 6120, Note_on_c, 3, 64, 0
17, 6120, Control_c, 3, 7, 127
17, 6120, Control_c, 3, 7, 127
17, 6120, Note_on_c, 3, 76, 64
17, 6150, Note_on_c, 3, 73, 64
17, 6180, Note_on_c, 3, 73, 0
17, 6180, Note_on_c, 3, 76, 64
17, 6210, Note_on_c, 3, 76, 0
17, 6210, Note_on_c, 3, 79, 64
17, 6240, Note_on_c, 3, 79, 0
17, 6240, Note_on_c, 3, 76, 64
17, 6270, Note_on_c, 3, 76, 0
17, 6270, Note_on_c, 3, 73, 64
17, 6300, Note_on_c, 3, 73, 0
17, 6300, Note_on_c, 3, 85, 64
17, 6330, Note_on_c, 3, 76, 0
17, 6330, Note_on_c, 3, 66, 64
17, 6360, Note_on_c, 3, 66, 0
17, 6360, Note_on_c, 3, 70, 64
17, 6390, Note_on_c, 3, 70, 0
17, 6390, Note_on_c, 3, 73, 64
17, 6420, Note_on_c, 3, 73, 0
17, 6420, Note_on_c, 3, 70, 64
17, 6450, Note_on_c, 3, 70, 0
17, 6450, Note_on_c, 3, 66, 64
17, 6480, Note_on_c, 3, 66, 0
17, 6480, Note_on_c, 3, 78, 64
17, 6510, Note_on_c, 3, 78, 0
17, 6510, Note_on_c, 3, 85, 0
17, 6510, Note_on_c, 3, 88, 64
17, 6510, Note_on_c, 3, 79, 64
17, 6540, Note_on_c, 3, 79, 0
17, 6540, Note_on_c, 3, 88, 0
17, 6540, Note_on_c, 3, 86, 64
17, 6540, Note_on_c, 3, 78, 64
17, 6570, Note_on_c, 3, 78, 0
17, 6570, Note_on_c, 3, 86, 0
17, 6570, Note_on_c, 3, 85, 64
17, 6570, Note_on_c, 3, 76, 64
17, 6600, Note_on_c, 3, 76, 0
17, 6600, Note_on_c, 3, 85, 0
17, 6600, Note_on_c, 3, 83, 64
17, 6600, Note_on_c, 3, 74, 64
17, 6630, Note_on_c, 3, 74, 0
17, 6630, Note_on_c, 3, 83, 0
17, 6630, Note_on_c, 3, 82, 64
17, 6630, Note_on_c, 3, 73, 64
17, 6660, Note_on_c, 3, 73, 0
17, 6660, Note_on_c, 3, 82, 0
17, 6660, Note_on_c, 3, 83, 64
17, 6660, Note_on_c, 3, 74, 64
17, 6690, Note_on_c, 3, 74, 0
17, 6690, Note_on_c, 3, 66, 64
17, 6695, Note_on_c, 3, 83, 0
17, 6720, Note_on_c, 3, 66, 0
17, 6720, Note_on_c, 3, 71, 64
17, 6750, Note_on_c, 3, 71, 0
17, 6750, Note_on_c, 3, 74, 64
17, 6780, Note_on_c, 3, 74, 0
17, 6780, Note_on_c, 3, 71, 64
17, 6810, Note_on_c, 3, 71, 0
17, 6810, Note_on_c, 3, 66, 64
17, 6840, Note_on_c, 3, 66, 0
17, 6840, Note_on_c, 3, 74, 64
17, 6870, Note_on_c, 3, 71, 64
17, 6900, Note_on_c, 3, 71, 0
17, 6900, Note_on_c, 3, 74, 64
17, 6930, Note_on_c, 3, 74, 0
17, 6930, Note_on_c, 3, 78, 64
17, 6960, Note_on_c, 3, 78, 0
17, 6960, Note_on_c, 3, 74, 64
17, 6990, Note_on_c, 3, 74, 0
17, 6990, Note_on_c, 3, 71, 64
17, 7020, Note_on_c, 3, 71, 0
17, 7020, Note_on_c, 3, 83, 64
17, 7050, Note_on_c, 3, 74, 0
17, 7050, Note_on_c, 3, 64, 64
17, 7080, Note_on_c, 3, 64, 0
17, 7080, Note_on_c, 3, 68, 64
17, 7110, Note_on_c, 3, 68, 0
17, 7110, Note_on_c, 3, 71, 64
17, 7140, Note_on_c, 3, 71, 0
17, 7140, Note_on_c, 3, 68, 64
17, 7170, Note_on_c, 3, 68, 0
17, 7170, Note_on_c, 3, 64, 64
17, 7200, Note_on_c, 3, 64, 0
17, 7200, Note_on_c, 3, 76, 64
17, 7230, Note_on_c, 3, 76, 0
17, 7230, Note_on_c, 3, 83, 0
17, 7230, Note_on_c, 3, 86, 64
17, 7230, Note_on_c, 3, 78, 64
17, 7260, Note_on_c, 3, 78, 0
17, 7260, Note_on_c, 3, 86, 0
17, 7260, Note_on_c, 3, 85, 64
17, 7260, Note_on_c, 3, 76, 64
17, 7290, Note_on_c, 3, 76, 0
17, 7290, Note_on_c, 3, 85, 0
17, 7290, Note_on_c, 3, 83, 64
17, 7290, Note_on_c, 3, 74, 64
17, 7320, Note_on_c, 3, 74, 0
17, 7320, Note_on_c, 3, 83, 0
17, 7320, Note_on_c, 3, 81, 64
17, 7320, Note_on_c, 3, 73, 64
17, 7350, Note_on_c, 3, 73, 0
17, 7350, Note_on_c, 3, 81, 0
17, 7350, Note_on_c, 3, 80, 64
17, 7350, Note_on_c, 3, 71, 64
17, 7380, Note_on_c, 3, 71, 0
17, 7380, Note_on_c, 3, 80, 0
17, 7380, Control_c, 3, 7, 75
17, 7380, Control_c, 3, 7, 75
17, 7380, Note_on_c, 3, 81, 64
17, 7380, Note_on_c, 3, 73, 64
17, 7415, Note_on_c, 3, 73, 0
17, 7415, Note_on_c, 3, 81, 0
17, 8130, Note_on_c, 3, 64, 65
17, 8130, Note_on_c, 3, 64, 65
17, 8160, Note_on_c, 3, 64, 0
17, 8160, Note_on_c, 3, 64, 0
17, 8160, Note_on_c, 3, 69, 65
17, 8160, Note_on_c, 3, 69, 65
17, 8190, Note_on_c, 3, 69, 0
17, 8190, Note_on_c, 3, 69, 0
17, 8190, Note_on_c, 3, 73, 66
17, 8190, Note_on_c, 3, 73, 66
17, 8220, Note_on_c, 3, 73, 0
17, 8220, Note_on_c, 3, 73, 0
17, 8220, Note_on_c, 3, 76, 66
17, 8220, Note_on_c, 3, 76, 66
17, 8250, Note_on_c, 3, 76, 0
17, 8250, Note_on_c, 3, 76, 0
17, 8250, Note_on_c, 3, 68, 67
17, 8250, Note_on_c, 3, 68, 67
17, 8280, Note_on_c, 3, 68, 0
17, 8280, Note_on_c, 3, 68, 0
17, 8280, Note_on_c, 3, 69, 67
17, 8280, Note_on_c, 3, 69, 67
17, 8310, Note_on_c, 3, 69, 0
17, 8310, Note_on_c, 3, 76, 68
17, 8315, Note_on_c, 3, 69, 0
17, 8340, Note_on_c, 3, 76, 0
17, 8340, Note_on_c, 3, 78, 68
17, 8340, Note_on_c, 3, 68, 68
17, 8370, Note_on_c, 3, 78, 0
17, 8370, Note_on_c, 3, 76, 69
17, 8375, Note_on_c, 3, 68, 0
17, 8400, Note_on_c, 3, 76, 0
17, 8400, Note_on_c, 3, 74, 69
17, 8400, Note_on_c, 3, 69, 69
17, 8430, Note_on_c, 3, 74, 0
17, 8430, Note_on_c, 3, 73, 70
17, 8435, Note_on_c, 3, 69, 0
17, 8460, Note_on_c, 3, 73, 0
17, 8460, Note_on_c, 3, 71, 70
17, 8460, Note_on_c, 3, 68, 70
17, 8490, Note_on_c, 3, 68, 0
17, 8490, Note_on_c, 3, 64, 71
17, 8495, Note_on_c, 3, 71, 0
17, 8520, Note_on_c, 3, 64, 0
17, 8520, Note_on_c, 3, 68, 71
17, 8550, Note_on_c, 3, 68, 0
17, 8550, Note_on_c, 3, 71, 72
17, 8580, Note_on_c, 3, 71, 0
17, 8580, Note_on_c, 3, 68, 73
17, 8610, Note_on_c, 3, 68, 0
17, 8610, Note_on_c, 3, 64, 73
17, 8640, Note_on_c, 3, 64, 0
17, 8640, Note_on_c, 3, 76, 74
17, 8670, Note_on_c, 3, 73, 74
17, 8700, Note_on_c, 3, 73, 0
17, 8700, Note_on_c, 3, 76, 75
17, 8730, Note_on_c, 3, 76, 0
17, 8730, Note_on_c, 3, 81, 75
17, 8760, Note_on_c, 3, 81, 0
17, 8760, Note_on_c, 3, 76, 76
17, 8790, Note_on_c, 3, 76, 0
17, 8790, Note_on_c, 3, 75, 76
17, 8820, Note_on_c, 3, 75, 0
17, 8820, Note_on_c, 3, 83, 77
17, 8850, Note_on_c, 3, 76, 0
17, 8850, Note_on_c, 3, 64, 77
17, 8855, Note_on_c, 3, 83, 0
17, 8880, Note_on_c, 3, 64, 0
17, 8880, Note_on_c, 3, 68, 78
17, 8910, Note_on_c, 3, 68, 0
17, 8910, Note_on_c, 3, 71, 78
17, 8940, Note_on_c, 3, 71, 0
17, 8940, Note_on_c, 3, 68, 79
17, 8970, Note_on_c, 3, 68, 0
17, 8970, Note_on_c, 3, 64, 79
17, 9000, Note_on_c, 3, 64, 0
17, 9000, Note_on_c, 3, 76, 40
17, 9030, Note_on_c, 3, 73, 41
17, 9060, Note_on_c, 3, 73, 0
17, 9060, Note_on_c, 3, 76, 43
17, 9090, Note_on_c, 3, 76, 0
17, 9090, Note_on_c, 3, 80, 44
17, 9120, Note_on_c, 3, 80, 0
17, 9120, Note_on_c, 3, 76, 46
17, 9150, Note_on_c, 3, 76, 0
17, 9150, Note_on_c, 3, 73, 47
17, 9180, Note_on_c, 3, 73, 0
17, 9180, Note_on_c, 3, 85, 49
17, 9210, Note_on_c, 3, 76, 0
17, 9210, Note_on_c, 3, 66, 50
17, 9240, Note_on_c, 3, 66, 0
17, 9240, Note_on_c, 3, 70, 51
17, 9270, Note_on_c, 3, 70, 0
17, 9270, Note_on_c, 3, 73, 53
17, 9300, Note_on_c, 3, 73, 0
17, 9300, Note_on_c, 3, 70, 54
17, 9330, Note_on_c, 3, 70, 0
17, 9330, Note_on_c, 3, 66, 56
17, 9360, Note_on_c, 3, 66, 0
17, 9360, Note_on_c, 3, 78, 57
17, 9390, Note_on_c, 3, 78, 0
17, 9390, Note_on_c, 3, 85, 0
17, 9390, Note_on_c, 3, 88, 58
17, 9390, Note_on_c, 3, 79, 58
17, 9420, Note_on_c, 3, 79, 0
17, 9420, Note_on_c, 3, 88, 0
17, 9420, Note_on_c, 3, 86, 60
17, 9420, Note_on_c, 3, 78, 60
17, 9450, Note_on_c, 3, 78, 0
17, 9450, Note_on_c, 3, 86, 0
17, 9450, Note_on_c, 3, 85, 61
17, 9450, Note_on_c, 3, 76, 61
17, 9480, Note_on_c, 3, 76, 0
17, 9480, Note_on_c, 3, 85, 0
17, 9480, Note_on_c, 3, 83, 63
17, 9480, Note_on_c, 3, 74, 63
17, 9510, Note_on_c, 3, 74, 0
17, 9510, Note_on_c, 3, 83, 0
17, 9510, Note_on_c, 3, 82, 64
17, 9510, Note_on_c, 3, 73, 64
17, 9540, Note_on_c, 3, 73, 0
17, 9540, Note_on_c, 3, 82, 0
17, 9540, Note_on_c, 3, 83, 66
17, 9540, Note_on_c, 3, 74, 66
17, 9570, Note_on_c, 3, 74, 0
17, 9570, Note_on_c, 3, 66, 67
17, 9575, Note_on_c, 3, 83, 0
17, 9600, Note_on_c, 3, 66, 0
17, 9600, Note_on_c, 3, 71, 68
17, 9630, Note_on_c, 3, 71, 0
17, 9630, Note_on_c, 3, 74, 70
17, 9660, Note_on_c, 3, 74, 0
17, 9660, Note_on_c, 3, 71, 71
17, 9690, Note_on_c, 3, 71, 0
17, 9690, Note_on_c, 3, 66, 73
17, 9720, Note_on_c, 3, 66, 0
17, 9720, Note_on_c, 3, 74, 50
17, 9750, Note_on_c, 3, 71, 51
17, 9780, Note_on_c, 3, 71, 0
17, 9780, Note_on_c, 3, 74, 52
17, 9810, Note_on_c, 3, 74, 0
17, 9810, Note_on_c, 3, 78, 53
17, 9840, Note_on_c, 3, 78, 0
17, 9840, Note_on_c, 3, 74, 54
17, 9870, Note_on_c, 3, 74, 0
17, 9870, Note_on_c, 3, 71, 55
17, 9900, Note_on_c, 3, 71, 0
17, 9900, Note_on_c, 3, 83, 56
17, 9930, Note_on_c, 3, 74, 0
17, 9930, Note_on_c, 3, 64, 57
17, 9960, Note_on_c, 3, 64, 0
17, 9960, Note_on_c, 3, 68, 58
17, 9990, Note_on_c, 3, 68, 0
17, 9990, Note_on_c, 3, 71, 59
17, 10020, Note_on_c, 3, 71, 0
17, 10020, Note_on_c, 3, 68, 60
17, 10050, Note_on_c, 3, 68, 0
17, 10050, Note_on_c, 3, 64, 61
17, 10080, Note_on_c, 3, 64, 0
17, 10080, Note_on_c, 3, 76, 63
17, 10110, Note_on_c, 3, 76, 0
17, 10110, Note_on_c, 3, 83, 0
17, 10110, Note_on_c, 3, 86, 64
17, 10110, Note_on_c, 3, 78, 64
17, 10140, Note_on_c, 3, 78, 0
17, 10140, Note_on_c, 3, 86, 0
17, 10140, Note_on_c, 3, 85, 65
17, 10140, Note_on_c, 3, 76, 65
17, 10170, Note_on_c, 3, 76, 0
17, 10170, Note_on_c, 3, 85, 0
17, 10170, Note_on_c, 3, 83, 66
17, 10170, Note_on_c, 3, 74, 66
17, 10200, Note_on_c, 3, 74, 0
17, 10200, Note_on_c, 3, 83, 0
17, 10200, Note_on_c, 3, 81, 67
17, 10200, Note_on_c, 3, 73, 67
17, 10230, Note_on_c, 3, 73, 0
17, 10230, Note_on_c, 3, 81, 0
17, 10230, Note_on_c, 3, 80, 68
17, 10230, Note_on_c, 3, 71, 68
17, 10260, Note_on_c, 3, 71, 0
17, 10260, Note_on_c, 3, 80, 0
17, 10260, Note_on_c, 3, 81, 69
17, 10260, Note_on_c, 3, 73, 69
17, 10295, Note_on_c, 3, 73, 0
17, 10295, Note_on_c, 3, 81, 0
17, 10320, Note_on_c, 3, 76, 71
17, 10320, Note_on_c, 3, 73, 71
17, 10355, Note_on_c, 3, 73, 0
17, 10355, Note_on_c, 3, 76, 0
17, 10380, Note_on_c, 3, 81, 73
17, 10380, Note_on_c, 3, 78, 73
17, 10415, Note_on_c, 3, 78, 0
17, 10415, Note_on_c, 3, 81, 0
17, 10500, Note_on_c, 3, 80, 65
17, 10500, Note_on_c, 3, 76, 65
17, 10530, Note_on_c, 3, 76, 0
17, 10530, Note_on_c, 3, 80, 0
17, 10530, Note_on_c, 3, 78, 65
17, 10530, Note_on_c, 3, 74, 65
17, 10560, Note_on_c, 3, 74, 0
17, 10560, Note_on_c, 3, 78, 0
17, 10560, Note_on_c, 3, 80, 66
17, 10560, Note_on_c, 3, 76, 66
17, 10595, Note_on_c, 3, 76, 0
17, 10595, Note_on_c, 3, 80, 0
17, 10680, Note_on_c, 3, 73, 67
17, 10680, Note_on_c, 3, 69, 67
17, 10715, Note_on_c, 3, 69, 0
17, 10715, Note_on_c, 3, 73, 0
17, 10740, Note_on_c, 3, 78, 68
17, 10740, Note_on_c, 3, 74, 68
17, 10775, Note_on_c, 3, 74, 0
17, 10775, Note_on_c, 3, 78, 0
17, 10860, Note_on_c, 3, 76, 69
17, 10860, Note_on_c, 3, 73, 69
17, 10890, Note_on_c, 3, 73, 0
17, 10890, Note_on_c, 3, 76, 0
17, 10890, Note_on_c, 3, 74, 70
17, 10890, Note_on_c, 3, 71, 70
17, 10920, Note_on_c, 3, 71, 0
17, 10920, Note_on_c, 3, 74, 0
17, 10920, Note_on_c, 3, 76, 70
17, 10920, Note_on_c, 3, 73, 70
17, 10955, Note_on_c, 3, 73, 0
17, 10955, Note_on_c, 3, 76, 0
17, 11040, Note_on_c, 3, 69, 72
17, 11040, Note_on_c, 3, 66, 72
17, 11075, Note_on_c, 3, 66, 0
17, 11075, Note_on_c, 3, 69, 0
17, 11100, Note_on_c, 3, 74, 72
17, 11100, Note_on_c, 3, 71, 72
17, 11135, Note_on_c, 3, 71, 0
17, 11135, Note_on_c, 3, 74, 0
17, 11220, Note_on_c, 3, 73, 74
17, 11220, Note_on_c, 3, 69, 74
17, 11250, Note_on_c, 3, 69, 0
17, 11250, Note_on_c, 3, 73, 0
17, 11250, Note_on_c, 3, 71, 74
17, 11250, Note_on_c, 3, 68, 74
17, 11280, Note_on_c, 3, 68, 0
17, 11280, Note_on_c, 3, 71, 0
17, 11280, Note_on_c, 3, 73, 75
17, 11280, Note_on_c, 3, 69, 75
17, 11315, Note_on_c, 3, 69, 0
17, 11315, Note_on_c, 3, 73, 0
17, 11340, Note_on_c, 3, 71, 75
17, 11340, Note_on_c, 3, 69, 75
17, 11490, Note_on_c, 3, 71, 0
17, 11490, Note_on_c, 3, 73, 77
17, 11505, Note_on_c, 3, 73, 0
17, 11505, Note_on_c, 3, 74, 78
17, 11520, Note_on_c, 3, 74, 0
17, 11520, Note_on_c, 3, 73, 78
17, 11550, Note_on_c, 3, 73, 0
17, 11550, Note_on_c, 3, 69, 0
17, 11550, Note_on_c, 3, 71, 78
17, 11550, Note_on_c, 3, 71, 78
17, 11580, Note_on_c, 3, 71, 0
17, 11580, Note_on_c, 3, 71, 0
17, 11580, Note_on_c, 3, 71, 78
17, 11580, Note_on_c, 3, 68, 78
17, 11670, Note_on_c, 3, 68, 0
17, 11670, Note_on_c, 3, 71, 0
17, 11670, Note_on_c, 3, 69, 80
17, 11670, Note_on_c, 3, 69, 80
17, 11700, Note_on_c, 3, 69, 0
17, 11700, Note_on_c, 3, 69, 0
17, 11700, Control_c, 3, 7, 127
17, 11700, Control_c, 3, 7, 127
17, 11700, Note_on_c, 3, 69, 64
17, 11700, Note_on_c, 3, 69, 64
17, 11735, Note_on_c, 3, 69, 0
17, 11735, Note_on_c, 3, 69, 0
17, 11760, Note_on_c, 3, 64, 64
17, 11795, Note_on_c, 3, 64, 0
17, 11820, Note_on_c, 3, 69, 64
17, 11855, Note_on_c, 3, 69, 0
17, 11880, Note_on_c, 3, 71, 64
17, 11915, Note_on_c, 3, 71, 0
17, 11940, Note_on_c, 3, 73, 64
17, 11970, Note_on_c, 3, 73, 0
17, 11970, Note_on_c, 3, 71, 64
17, 12000, Note_on_c, 3, 71, 0
17, 12000, Note_on_c, 3, 69, 64
17, 12030, Note_on_c, 3, 69, 0
17, 12030, Note_on_c, 3, 71, 64
17, 12060, Note_on_c, 3, 71, 0
17, 12060, Note_on_c, 3, 73, 64
17, 12060, Note_on_c, 3, 69, 64
17, 12095, Note_on_c, 3, 69, 0
17, 12095, Note_on_c, 3, 73, 0
17, 12120, Note_on_c, 3, 69, 64
17, 12120, Note_on_c, 3, 64, 64
17, 12155, Note_on_c, 3, 64, 0
17, 12155, Note_on_c, 3, 69, 0
17, 12180, Note_on_c, 3, 73, 64
17, 12180, Note_on_c, 3, 69, 64
17, 12215, Note_on_c, 3, 69, 0
17, 12215, Note_on_c, 3, 73, 0
17, 12240, Note_on_c, 3, 74, 64
17, 12240, Note_on_c, 3, 71, 64
17, 12275, Note_on_c, 3, 71, 0
17, 12275, Note_on_c, 3, 74, 0
17, 12300, Note_on_c, 3, 76, 64
17, 12300, Note_on_c, 3, 73, 64
17, 12330, Note_on_c, 3, 73, 0
17, 12330, Note_on_c, 3, 76, 0
17, 12330, Note_on_c, 3, 74, 64
17, 12330, Note_on_c, 3, 71, 64
17, 12360, Note_on_c, 3, 71, 0
17, 12360, Note_on_c, 3, 74, 0
17, 12360, Note_on_c, 3, 73, 64
17, 12360, Note_on_c, 3, 69, 64
17, 12390, Note_on_c, 3, 69, 0
17, 12390, Note_on_c, 3, 73, 0
17, 12390, Note_on_c, 3, 74, 64
17, 12390, Note_on_c, 3, 71, 64
17, 12420, Note_on_c, 3, 71, 0
17, 12420, Note_on_c, 3, 74, 0
17, 12420, Note_on_c, 3, 76, 64
17, 12420, Note_on_c, 3, 73, 64
17, 12455, Note_on_c, 3, 73, 0
17, 12455, Note_on_c, 3, 76, 0
17, 13140, Control_c, 3, 7, 75
17, 13140, Control_c, 3, 7, 75
17, 13200, Note_on_c, 3, 74, 65
17, 13355, Note_on_c, 3, 74, 0
17, 13380, Note_on_c, 3, 73, 66
17, 13410, Note_on_c, 3, 73, 0
17, 13410, Note_on_c, 3, 74, 66
17, 13440, Note_on_c, 3, 74, 0
17, 13440, Note_on_c, 3, 71, 67
17, 13470, Note_on_c, 3, 71, 0
17, 13470, Note_on_c, 3, 73, 67
17, 13500, Note_on_c, 3, 73, 0
17, 13500, Note_on_c, 3, 74, 67
17, 13560, Note_on_c, 3, 74, 68
17, 13620, Note_on_c, 3, 74, 0
17, 13715, Note_on_c, 3, 74, 0
17, 13740, Note_on_c, 3, 73, 69
17, 13770, Note_on_c, 3, 73, 0
17, 13770, Note_on_c, 3, 74, 69
17, 13800, Note_on_c, 3, 74, 0
17, 13800, Note_on_c, 3, 71, 70
17, 13830, Note_on_c, 3, 71, 0
17, 13830, Note_on_c, 3, 73, 70
17, 13860, Note_on_c, 3, 73, 0
17, 13860, Control_c, 3, 7, 127
17, 13860, Control_c, 3, 7, 127
17, 13860, Note_on_c, 3, 74, 50
17, 13890, Note_on_c, 3, 74, 0
17, 13890, Note_on_c, 3, 62, 50
17, 13890, Note_on_c, 3, 62, 50
17, 13920, Note_on_c, 3, 62, 0
17, 13920, Note_on_c, 3, 62, 0
17, 13920, Note_on_c, 3, 66, 50
17, 13920, Note_on_c, 3, 66, 50
17, 13950, Note_on_c, 3, 66, 0
17, 13950, Note_on_c, 3, 66, 0
17, 13950, Note_on_c, 3, 69, 50
17, 13950, Note_on_c, 3, 69, 50
17, 13980, Note_on_c, 3, 69, 0
17, 13980, Note_on_c, 3, 69, 0
17, 13980, Note_on_c, 3, 66, 50
17, 13980, Note_on_c, 3, 66, 50
17, 14010, Note_on_c, 3, 66, 0
17, 14010, Note_on_c, 3, 66, 0
17, 14010, Note_on_c, 3, 62, 50
17, 14010, Note_on_c, 3, 62, 50
17, 14040, Note_on_c, 3, 62, 0
17, 14040, Note_on_c, 3, 62, 0
17, 14040, Note_on_c, 3, 69, 50
17, 14040, Note_on_c, 3, 69, 50
17, 14250, Note_on_c, 3, 69, 0
17, 14250, Note_on_c, 3, 69, 0
17, 14250, Note_on_c, 3, 62, 50
17, 14250, Note_on_c, 3, 62, 50
17, 14280, Note_on_c, 3, 62, 0
17, 14280, Note_on_c, 3, 62, 0
17, 14280, Note_on_c, 3, 66, 50
17, 14280, Note_on_c, 3, 66, 50
17, 14310, Note_on_c, 3, 66, 0
17, 14310, Note_on_c, 3, 66, 0
17, 14310, Note_on_c, 3, 69, 50
17, 14310, Note_on_c, 3, 69, 50
17, 14340, Note_on_c, 3, 69, 0
17, 14340, Note_on_c, 3, 69, 0
17, 14340, Note_on_c, 3, 66, 50
17, 14340, Note_on_c, 3, 66, 50
17, 14370, Note_on_c, 3, 66, 0
17, 14370, Note_on_c, 3, 66, 0
17, 14370, Note_on_c, 3, 62, 50
17, 14370, Note_on_c, 3, 62, 50
17, 14400, Note_on_c, 3, 62, 0
17, 14400, Note_on_c, 3, 62, 0
17, 14400, Note_on_c, 3, 69, 50
17, 14400, Note_on_c, 3, 69, 50
17, 14610, Note_on_c, 3, 69, 0
17, 14610, Note_on_c, 3, 69, 0
17, 14610, Note_on_c, 3, 69, 64
17, 14610, Note_on_c, 3, 69, 64
17, 14640, Note_on_c, 3, 69, 0
17, 14640, Note_on_c, 3, 69, 0
17, 14640, Note_on_c, 3, 74, 64
17, 14640, Note_on_c, 3, 74, 64
17, 14670, Note_on_c, 3, 74, 0
17, 14670, Note_on_c, 3, 74, 0
17, 14670, Note_on_c, 3, 78, 64
17, 14670, Note_on_c, 3, 78, 64
17, 14700, Note_on_c, 3, 78, 0
17, 14700, Note_on_c, 3, 78, 0
17, 14700, Note_on_c, 3, 81, 64
17, 14700, Note_on_c, 3, 81, 64
17, 14730, Note_on_c, 3, 81, 0
17, 14730, Note_on_c, 3, 81, 0
17, 14730, Note_on_c, 3, 73, 64
17, 14730, Note_on_c, 3, 73, 64
17, 14760, Note_on_c, 3, 73, 0
17, 14760, Note_on_c, 3, 73, 0
17, 14760, Note_on_c, 3, 74, 64
17, 14760, Note_on_c, 3, 74, 64
17, 14790, Note_on_c, 3, 74, 0
17, 14790, Note_on_c, 3, 74, 0
17, 14790, Note_on_c, 3, 78, 64
17, 14790, Note_on_c, 3, 78, 64
17, 14820, Note_on_c, 3, 78, 0
17, 14820, Note_on_c, 3, 78, 0
17, 14820, Note_on_c, 3, 83, 64
17, 14820, Note_on_c, 3, 83, 64
17, 14850, Note_on_c, 3, 83, 0
17, 14850, Note_on_c, 3, 83, 0
17, 14850, Note_on_c, 3, 81, 64
17, 14850, Note_on_c, 3, 81, 64
17, 14880, Note_on_c, 3, 81, 0
17, 14880, Note_on_c, 3, 81, 0
17, 14880, Note_on_c, 3, 79, 64
17, 14880, Note_on_c, 3, 79, 64
17, 14910, Note_on_c, 3, 79, 0
17, 14910, Note_on_c, 3, 79, 0
17, 14910, Note_on_c, 3, 78, 64
17, 14910, Note_on_c, 3, 78, 64
17, 14940, Note_on_c, 3, 78, 0
17, 14940, Note_on_c, 3, 78, 0
17, 14940, Note_on_c, 3, 76, 64
17, 14940, Note_on_c, 3, 76, 64
17, 14970, Note_on_c, 3, 76, 0
17, 14970, Note_on_c, 3, 76, 0
17, 14970, Note_on_c, 3, 73, 64
17, 14970, Note_on_c, 3, 69, 64
17, 15000, Note_on_c, 3, 69, 0
17, 15000, Note_on_c, 3, 73, 0
17, 15000, Note_on_c, 3, 76, 64
17, 15000, Note_on_c, 3, 73, 64
17, 15030, Note_on_c, 3, 73, 0
17, 15030, Note_on_c, 3, 76, 0
17, 15030, Note_on_c, 3, 79, 64
17, 15030, Note_on_c, 3, 76, 64
17, 15060, Note_on_c, 3, 76, 0
17, 15060, Note_on_c, 3, 79, 0
17, 15060, Note_on_c, 3, 76, 64
17, 15060, Note_on_c, 3, 73, 64
17, 15090, Note_on_c, 3, 73, 0
17, 15090, Note_on_c, 3, 76, 0
17, 15090, Note_on_c, 3, 73, 64
17, 15090, Note_on_c, 3, 69, 64
17, 15120, Note_on_c, 3, 69, 0
17, 15120, Note_on_c, 3, 73, 0
17, 15120, Note_on_c, 3, 74, 64
17, 15120, Note_on_c, 3, 74, 64
17, 15150, Note_on_c, 3, 74, 0
17, 15150, Note_on_c, 3, 74, 0
17, 15150, Note_on_c, 3, 78, 64
17, 15150, Note_on_c, 3, 78, 64
17, 15180, Note_on_c, 3, 78, 0
17, 15180, Note_on_c, 3, 78, 0
17, 15180, Note_on_c, 3, 76, 64
17, 15180, Note_on_c, 3, 76, 64
17, 15210, Note_on_c, 3, 76, 0
17, 15210, Note_on_c, 3, 76, 0
17, 15210, Note_on_c, 3, 74, 64
17, 15210, Note_on_c, 3, 74, 64
17, 15240, Note_on_c, 3, 74, 0
17, 15240, Note_on_c, 3, 74, 0
17, 15240, Note_on_c, 3, 73, 64
17, 15240, Note_on_c, 3, 73, 64
17, 15270, Note_on_c, 3, 73, 0
17, 15270, Note_on_c, 3, 73, 0
17, 15270, Note_on_c, 3, 71, 64
17, 15270, Note_on_c, 3, 71, 64
17, 15300, Note_on_c, 3, 71, 0
17, 15300, Note_on_c, 3, 71, 0
17, 15300, Control_c, 3, 7, 75
17, 15300, Control_c, 3, 7, 75
17, 15300, Note_on_c, 3, 73, 50
17, 15300, Note_on_c, 3, 73, 50
17, 15330, Note_on_c, 3, 73, 0
17, 15330, Note_on_c, 3, 69, 51
17, 15335, Note_on_c, 3, 73, 0
17, 15360, Note_on_c, 3, 69, 0
17, 15360, Note_on_c, 3, 73, 52
17, 15390, Note_on_c, 3, 73, 0
17, 15390, Note_on_c, 3, 76, 53
17, 15420, Note_on_c, 3, 76, 0
17, 15420, Note_on_c, 3, 73, 53
17, 15450, Note_on_c, 3, 73, 0
17, 15450, Note_on_c, 3, 69, 54
17, 15480, Note_on_c, 3, 69, 0
17, 15480, Note_on_c, 3, 81, 55
17, 15510, Note_on_c, 3, 66, 56
17, 15540, Note_on_c, 3, 66, 0
17, 15540, Note_on_c, 3, 69, 57
17, 15570, Note_on_c, 3, 69, 0
17, 15570, Note_on_c, 3, 73, 58
17, 15600, Note_on_c, 3, 73, 0
17, 15600, Note_on_c, 3, 69, 58
17, 15630, Note_on_c, 3, 69, 0
17, 15630, Note_on_c, 3, 66, 59
17, 15660, Note_on_c, 3, 66, 0
17, 15660, Note_on_c, 3, 78, 60
17, 15690, Note_on_c, 3, 81, 0
17, 15690, Note_on_c, 3, 71, 61
17, 15720, Note_on_c, 3, 71, 0
17, 15720, Note_on_c, 3, 75, 62
17, 15750, Note_on_c, 3, 75, 0
17, 15750, Note_on_c, 3, 78, 63
17, 15780, Note_on_c, 3, 78, 0
17, 15780, Note_on_c, 3, 75, 63
17, 15810, Note_on_c, 3, 75, 0
17, 15810, Note_on_c, 3, 71, 64
17, 15840, Note_on_c, 3, 71, 0
17, 15840, Note_on_c, 3, 83, 65
17, 15870, Note_on_c, 3, 83, 0
17, 15870, Note_on_c, 3, 78, 0
17, 15870, Note_on_c, 3, 84, 66
17, 15870, Note_on_c, 3, 81, 66
17, 15900, Note_on_c, 3, 81, 0
17, 15900, Note_on_c, 3, 84, 0
17, 15900, Note_on_c, 3, 83, 67
17, 15900, Note_on_c, 3, 79, 67
17, 15930, Note_on_c, 3, 79, 0
17, 15930, Note_on_c, 3, 83, 0
17, 15930, Note_on_c, 3, 81, 68
17, 15930, Note_on_c, 3, 78, 68
17, 15960, Note_on_c, 3, 78, 0
17, 15960, Note_on_c, 3, 81, 0
17, 15960, Note_on_c, 3, 79, 68
17, 15960, Note_on_c, 3, 76, 68
17, 15990, Note_on_c, 3, 76, 0
17, 15990, Note_on_c, 3, 79, 0
17, 15990, Note_on_c, 3, 78, 69
17, 15990, Note_on_c, 3, 75, 69
17, 16020, Note_on_c, 3, 75, 0
17, 16020, Note_on_c, 3, 78, 0
17, 16020, Note_on_c, 3, 79, 50
17, 16020, Note_on_c, 3, 76, 50
17, 16050, Note_on_c, 3, 79, 0
17, 16050, Note_on_c, 3, 71, 51
17, 16055, Note_on_c, 3, 76, 0
17, 16080, Note_on_c, 3, 71, 0
17, 16080, Note_on_c, 3, 76, 52
17, 16110, Note_on_c, 3, 76, 0
17, 16110, Note_on_c, 3, 79, 53
17, 16140, Note_on_c, 3, 79, 0
17, 16140, Note_on_c, 3, 76, 53
17, 16170, Note_on_c, 3, 76, 0
17, 16170, Note_on_c, 3, 71, 54
17, 16200, Note_on_c, 3, 71, 0
17, 16200, Note_on_c, 3, 79, 55
17, 16230, Note_on_c, 3, 64, 56
17, 16260, Note_on_c, 3, 64, 0
17, 16260, Note_on_c, 3, 67, 57
17, 16290, Note_on_c, 3, 67, 0
17, 16290, Note_on_c, 3, 71, 58
17, 16320, Note_on_c, 3, 71, 0
17, 16320, Note_on_c, 3, 67, 58
17, 16350, Note_on_c, 3, 67, 0
17, 16350, Note_on_c, 3, 64, 59
17, 16380, Note_on_c, 3, 64, 0
17, 16380, Note_on_c, 3, 76, 60
17, 16410, Note_on_c, 3, 79, 0
17, 16410, Note_on_c, 3, 69, 61
17, 16440, Note_on_c, 3, 69, 0
17, 16440, Note_on_c, 3, 73, 62
17, 16470, Note_on_c, 3, 73, 0
17, 16470, Note_on_c, 3, 76, 63
17, 16500, Note_on_c, 3, 76, 0
17, 16500, Note_on_c, 3, 73, 63
17, 16530, Note_on_c, 3, 73, 0
17, 16530, Note_on_c, 3, 69, 64
17, 16560, Note_on_c, 3, 69, 0
17, 16560, Note_on_c, 3, 81, 65
17, 16590, Note_on_c, 3, 81, 0
17, 16590, Note_on_c, 3, 76, 0
17, 16590, Note_on_c, 3, 83, 66
17, 16590, Note_on_c, 3, 79, 66
17, 16620, Note_on_c, 3, 79, 0
17, 16620, Note_on_c, 3, 83, 0
17, 16620, Note_on_c, 3, 81, 67
17, 16620, Note_on_c, 3, 78, 67
17, 16650, Note_on_c, 3, 78, 0
17, 16650, Note_on_c, 3, 81, 0
17, 16650, Note_on_c, 3, 79, 68
17, 16650, Note_on_c, 3, 76, 68
17, 16680, Note_on_c, 3, 76, 0
17, 16680, Note_on_c, 3, 79, 0
17, 16680, Note_on_c, 3, 78, 68
17, 16680, Note_on_c, 3, 74, 68
17, 16710, Note_on_c, 3, 74, 0
17, 16710, Note_on_c, 3, 78, 0
17, 16710, Note_on_c, 3, 76, 69
17, 16710, Note_on_c, 3, 73, 69
17, 16740, Note_on_c, 3, 73, 0
17, 16740, Note_on_c, 3, 76, 0
17, 16740, Control_c, 3, 7, 75
17, 16740, Control_c, 3, 7, 75
17, 16740, Note_on_c, 3, 78, 64
17, 16740, Note_on_c, 3, 74, 64
17, 16770, Note_on_c, 3, 78, 0
17, 16770, Note_on_c, 3, 74, 64
17, 16775, Note_on_c, 3, 74, 0
17, 16800, Note_on_c, 3, 74, 0
17, 16800, Note_on_c, 3, 78, 65
17, 16830, Note_on_c, 3, 78, 0
17, 16830, Note_on_c, 3, 81, 65
17, 16860, Note_on_c, 3, 81, 0
17, 16860, Note_on_c, 3, 86, 65
17, 16860, Note_on_c, 3, 78, 65
17, 16890, Note_on_c, 3, 86, 0
17, 16890, Note_on_c, 3, 78, 66
17, 16895, Note_on_c, 3, 78, 0
17, 16920, Note_on_c, 3, 78, 0
17, 16920, Note_on_c, 3, 76, 66
17, 16920, Note_on_c, 3, 83, 66
17, 16950, Note_on_c, 3, 76, 0
17, 16950, Note_on_c, 3, 86, 66
17, 16955, Note_on_c, 3, 83, 0
17, 16980, Note_on_c, 3, 86, 0
17, 16980, Note_on_c, 3, 85, 67
17, 17010, Note_on_c, 3, 85, 0
17, 17010, Note_on_c, 3, 83, 67
17, 17040, Note_on_c, 3, 83, 0
17, 17040, Note_on_c, 3, 85, 67
17, 17040, Note_on_c, 3, 81, 67
17, 17070, Note_on_c, 3, 85, 0
17, 17070, Note_on_c, 3, 76, 68
17, 17075, Note_on_c, 3, 81, 0
17, 17100, Note_on_c, 3, 76, 0
17, 17100, Note_on_c, 3, 74, 68
17, 17100, Note_on_c, 3, 78, 68
17, 17130, Note_on_c, 3, 74, 0
17, 17130, Note_on_c, 3, 71, 68
17, 17135, Note_on_c, 3, 78, 0
17, 17160, Note_on_c, 3, 71, 0
17, 17160, Note_on_c, 3, 74, 69
17, 17190, Note_on_c, 3, 74, 0
17, 17190, Note_on_c, 3, 78, 69
17, 17220, Note_on_c, 3, 78, 0
17, 17220, Note_on_c, 3, 83, 69
17, 17220, Note_on_c, 3, 79, 69
17, 17250, Note_on_c, 3, 83, 0
17, 17250, Note_on_c, 3, 74, 70
17, 17255, Note_on_c, 3, 79, 0
17, 17280, Note_on_c, 3, 74, 0
17, 17280, Note_on_c, 3, 73, 70
17, 17280, Note_on_c, 3, 79, 70
17, 17310, Note_on_c, 3, 73, 0
17, 17310, Note_on_c, 3, 83, 70
17, 17315, Note_on_c, 3, 79, 0
17, 17340, Note_on_c, 3, 83, 0
17, 17340, Note_on_c, 3, 81, 71
17, 17370, Note_on_c, 3, 81, 0
17, 17370, Note_on_c, 3, 79, 71
17, 17400, Note_on_c, 3, 79, 0
17, 17400, Note_on_c, 3, 81, 71
17, 17400, Note_on_c, 3, 74, 71
17, 17430, Note_on_c, 3, 81, 0
17, 17430, Note_on_c, 3, 72, 72
17, 17435, Note_on_c, 3, 74, 0
17, 17460, Note_on_c, 3, 72, 0
17, 17460, Note_on_c, 3, 71, 72
17, 17460, Note_on_c, 3, 74, 72
17, 17490, Note_on_c, 3, 71, 0
17, 17490, Note_on_c, 3, 67, 72
17, 17495, Note_on_c, 3, 74, 0
17, 17520, Note_on_c, 3, 67, 0
17, 17520, Note_on_c, 3, 71, 73
17, 17550, Note_on_c, 3, 71, 0
17, 17550, Note_on_c, 3, 74, 73
17, 17580, Note_on_c, 3, 74, 0
17, 17580, Note_on_c, 3, 79, 73
17, 17580, Note_on_c, 3, 76, 73
17, 17610, Note_on_c, 3, 79, 0
17, 17610, Note_on_c, 3, 71, 74
17, 17615, Note_on_c, 3, 76, 0
17, 17640, Note_on_c, 3, 71, 0
17, 17640, Note_on_c, 3, 69, 74
17, 17640, Note_on_c, 3, 76, 74
17, 17670, Note_on_c, 3, 69, 0
17, 17670, Note_on_c, 3, 79, 74
17, 17675, Note_on_c, 3, 76, 0
17, 17700, Note_on_c, 3, 79, 0
17, 17700, Note_on_c, 3, 78, 75
17, 17730, Note_on_c, 3, 78, 0
17, 17730, Note_on_c, 3, 76, 75
17, 17760, Note_on_c, 3, 76, 0
17, 17760, Note_on_c, 3, 78, 75
17, 17760, Note_on_c, 3, 69, 75
17, 17790, Note_on_c, 3, 78, 0
17, 17790, Note_on_c, 3, 69, 76
17, 17795, Note_on_c, 3, 69, 0
17, 17820, Note_on_c, 3, 69, 0
17, 17820, Note_on_c, 3, 71, 76
17, 17820, Note_on_c, 3, 71, 76
17, 17850, Note_on_c, 3, 71, 0
17, 17850, Note_on_c, 3, 71, 0
17, 17850, Note_on_c, 3, 69, 76
17, 17850, Note_on_c, 3, 69, 76
17, 17880, Note_on_c, 3, 69, 0
17, 17880, Note_on_c, 3, 69, 0
17, 17880, Note_on_c, 3, 67, 77
17, 17880, Note_on_c, 3, 67, 77
17, 17910, Note_on_c, 3, 67, 0
17, 17910, Note_on_c, 3, 67, 0
17, 17910, Note_on_c, 3, 66, 77
17, 17910, Note_on_c, 3, 66, 77
17, 17940, Note_on_c, 3, 66, 0
17, 17940, Note_on_c, 3, 66, 0
17, 17940, Note_on_c, 3, 64, 77
17, 17940, Note_on_c, 3, 64, 77
17, 17970, Note_on_c, 3, 64, 0
17, 17970, Note_on_c, 3, 64, 0
17, 17970, Note_on_c, 3, 73, 78
17, 17970, Note_on_c, 3, 73, 78
17, 18000, Note_on_c, 3, 73, 0
17, 18000, Note_on_c, 3, 73, 0
17, 18000, Note_on_c, 3, 74, 78
17, 18000, Note_on_c, 3, 74, 78
17, 18030, Note_on_c, 3, 74, 0
17, 18030, Note_on_c, 3, 74, 0
17, 18030, Note_on_c, 3, 76, 78
17, 18030, Note_on_c, 3, 76, 78
17, 18060, Note_on_c, 3, 76, 0
17, 18060, Note_on_c, 3, 76, 0
17, 18060, Note_on_c, 3, 73, 79
17, 18060, Note_on_c, 3, 73, 79
17, 18150, Note_on_c, 3, 73, 0
17, 18150, Note_on_c, 3, 73, 0
17, 18150, Note_on_c, 3, 74, 80
17, 18150, Note_on_c, 3, 74, 80
17, 18180, Note_on_c, 3, 74, 0
17, 18180, Note_on_c, 3, 74, 0
17, 18180, Note_on_c, 3, 74, 100
17, 18180, Note_on_c, 3, 74, 100
17, 18300, Note_on_c, 3, 74, 0
17, 18300, Note_on_c, 3, 74, 0
17, 19320, Note_on_c, 3, 67, 42
17, 19320, Note_on_c, 3, 67, 42
17, 19440, Note_on_c, 3, 67, 0
17, 19440, Note_on_c, 3, 67, 0
17, 19440, Note_on_c, 3, 69, 44
17, 19440, Note_on_c, 3, 66, 44
17, 19475, Note_on_c, 3, 66, 0
17, 19475, Note_on_c, 3, 69, 0
17, 19500, Note_on_c, 3, 69, 45
17, 19500, Note_on_c, 3, 66, 45
17, 19560, Note_on_c, 3, 66, 0
17, 19560, Note_on_c, 3, 69, 0
17, 19560, Note_on_c, 3, 71, 46
17, 19560, Note_on_c, 3, 67, 46
17, 19595, Note_on_c, 3, 67, 0
17, 19595, Note_on_c, 3, 71, 0
17, 19620, Note_on_c, 3, 71, 47
17, 19620, Note_on_c, 3, 67, 47
17, 19680, Note_on_c, 3, 67, 0
17, 19680, Note_on_c, 3, 71, 0
17, 19680, Note_on_c, 3, 69, 48
17, 19680, Note_on_c, 3, 66, 48
17, 19715, Note_on_c, 3, 66, 0
17, 19715, Note_on_c, 3, 69, 0
17, 19740, Note_on_c, 3, 71, 49
17, 19740, Note_on_c, 3, 67, 49
17, 19800, Note_on_c, 3, 67, 0
17, 19800, Note_on_c, 3, 71, 0
17, 19800, Note_on_c, 3, 72, 50
17, 19800, Note_on_c, 3, 69, 50
17, 19835, Note_on_c, 3, 69, 0
17, 19835, Note_on_c, 3, 72, 0
17, 19860, Note_on_c, 3, 72, 51
17, 19860, Note_on_c, 3, 69, 51
17, 19920, Note_on_c, 3, 69, 0
17, 19920, Note_on_c, 3, 72, 0
17, 19920, Note_on_c, 3, 71, 52
17, 19920, Note_on_c, 3, 67, 52
17, 19955, Note_on_c, 3, 67, 0
17, 19955, Note_on_c, 3, 71, 0
17, 19980, Note_on_c, 3, 71, 53
17, 19980, Note_on_c, 3, 67, 53
17, 20040, Note_on_c, 3, 67, 0
17, 20040, Note_on_c, 3, 71, 0
17, 20040, Note_on_c, 3, 69, 54
17, 20040, Note_on_c, 3, 66, 54
17, 20075, Note_on_c, 3, 66, 0
17, 20075, Note_on_c, 3, 69, 0
17, 20100, Note_on_c, 3, 69, 56
17, 20100, Note_on_c, 3, 66, 56
17, 20220, Note_on_c, 3, 66, 0
17, 20220, Note_on_c, 3, 69, 0
17, 20220, Note_on_c, 3, 78, 58
17, 20220, Note_on_c, 3, 69, 58
17, 20340, Note_on_c, 3, 69, 0
17, 20340, Note_on_c, 3, 78, 0
17, 20340, Note_on_c, 3, 79, 60
17, 20340, Note_on_c, 3, 71, 60
17, 20460, Note_on_c, 3, 71, 0
17, 20460, Note_on_c, 3, 79, 0
17, 20460, Note_on_c, 3, 76, 62
17, 20460, Note_on_c, 3, 67, 62
17, 20580, Note_on_c, 3, 67, 0
17, 20580, Note_on_c, 3, 66, 64
17, 20700, Note_on_c, 3, 66, 0
17, 20700, Note_on_c, 3, 76, 0
17, 20700, Note_on_c, 3, 75, 64
17, 20700, Note_on_c, 3, 71, 64
17, 20820, Note_on_c, 3, 75, 0
17, 20820, Note_on_c, 3, 76, 64
17, 20940, Note_on_c, 3, 71, 0
17, 20940, Note_on_c, 3, 69, 64
17, 21060, Note_on_c, 3, 69, 0
17, 21060, Note_on_c, 3, 67, 64
17, 21120, Note_on_c, 3, 67, 0
17, 21120, Note_on_c, 3, 76, 0
17, 21120, Note_on_c, 3, 75, 64
17, 21120, Note_on_c, 3, 66, 64
17, 21155, Note_on_c, 3, 66, 0
17, 21155, Note_on_c, 3, 75, 0
17, 21180, Note_on_c, 3, 75, 64
17, 21180, Note_on_c, 3, 66, 64
17, 21300, Note_on_c, 3, 66, 0
17, 21300, Note_on_c, 3, 75, 0
17, 21720, Note_on_c, 3, 71, 65
17, 21720, Note_on_c, 3, 71, 65
17, 21840, Note_on_c, 3, 71, 0
17, 21840, Note_on_c, 3, 71, 0
17, 21840, Note_on_c, 3, 73, 66
17, 21840, Note_on_c, 3, 64, 66
17, 21875, Note_on_c, 3, 64, 0
17, 21875, Note_on_c, 3, 73, 0
17, 21900, Note_on_c, 3, 73, 66
17, 21900, Note_on_c, 3, 64, 66
17, 21960, Note_on_c, 3, 64, 0
17, 21960, Note_on_c, 3, 73, 0
17, 21960, Note_on_c, 3, 74, 67
17, 21960, Note_on_c, 3, 66, 67
17, 21995, Note_on_c, 3, 66, 0
17, 21995, Note_on_c, 3, 74, 0
17, 22020, Note_on_c, 3, 74, 67
17, 22020, Note_on_c, 3, 66, 67
17, 22080, Note_on_c, 3, 66, 0
17, 22080, Note_on_c, 3, 74, 0
17, 22080, Note_on_c, 3, 73, 67
17, 22080, Note_on_c, 3, 64, 67
17, 22115, Note_on_c, 3, 64, 0
17, 22115, Note_on_c, 3, 73, 0
17, 22140, Note_on_c, 3, 74, 68
17, 22140, Note_on_c, 3, 66, 68
17, 22200, Note_on_c, 3, 66, 0
17, 22200, Note_on_c, 3, 74, 0
17, 22200, Note_on_c, 3, 76, 68
17, 22200, Note_on_c, 3, 67, 68
17, 22235, Note_on_c, 3, 67, 0
17, 22235, Note_on_c, 3, 76, 0
17, 22260, Note_on_c, 3, 73, 69
17, 22260, Note_on_c, 3, 64, 69
17, 22320, Note_on_c, 3, 64, 0
17, 22320, Note_on_c, 3, 73, 0
17, 22320, Note_on_c, 3, 75, 69
17, 22320, Note_on_c, 3, 66, 69
17, 22355, Note_on_c, 3, 66, 0
17, 22355, Note_on_c, 3, 75, 0
17, 22380, Note_on_c, 3, 75, 69
17, 22380, Note_on_c, 3, 66, 69
17, 22440, Note_on_c, 3, 66, 0
17, 22440, Note_on_c, 3, 75, 0
17, 22440, Note_on_c, 3, 76, 70
17, 22440, Note_on_c, 3, 67, 70
17, 22475, Note_on_c, 3, 67, 0
17, 22475, Note_on_c, 3, 76, 0
17, 22500, Note_on_c, 3, 76, 64
17, 22500, Note_on_c, 3, 67, 64
17, 22560, Note_on_c, 3, 67, 0
17, 22560, Note_on_c, 3, 76, 0
17, 22560, Note_on_c, 3, 75, 64
17, 22560, Note_on_c, 3, 66, 64
17, 22595, Note_on_c, 3, 66, 0
17, 22595, Note_on_c, 3, 75, 0
17, 22620, Note_on_c, 3, 76, 64
17, 22620, Note_on_c, 3, 67, 64
17, 22680, Note_on_c, 3, 67, 0
17, 22680, Note_on_c, 3, 76, 0
17, 22680, Note_on_c, 3, 78, 64
17, 22680, Note_on_c, 3, 69, 64
17, 22715, Note_on_c, 3, 69, 0
17, 22715, Note_on_c, 3, 78, 0
17, 22740, Note_on_c, 3, 75, 64
17, 22740, Note_on_c, 3, 66, 64
17, 22800, Note_on_c, 3, 66, 0
17, 22800, Note_on_c, 3, 75, 0
17, 22800, Note_on_c, 3, 71, 64
17, 22800, Note_on_c, 3, 63, 64
17, 22835, Note_on_c, 3, 63, 0
17, 22835, Note_on_c, 3, 71, 0
17, 22860, Note_on_c, 3, 71, 64
17, 22860, Note_on_c, 3, 63, 64
17, 22920, Note_on_c, 3, 63, 0
17, 22920, Note_on_c, 3, 71, 0
17, 22920, Note_on_c, 3, 75, 64
17, 22920, Note_on_c, 3, 71, 64
17, 22955, Note_on_c, 3, 71, 0
17, 22955, Note_on_c, 3, 75, 0
17, 22980, Note_on_c, 3, 76, 64
17, 22980, Note_on_c, 3, 71, 64
17, 23040, Note_on_c, 3, 71, 0
17, 23040, Note_on_c, 3, 69, 65
17, 23075, Note_on_c, 3, 69, 0
17, 23100, Note_on_c, 3, 69, 67
17, 23160, Note_on_c, 3, 69, 0
17, 23160, Note_on_c, 3, 67, 68
17, 23195, Note_on_c, 3, 67, 0
17, 23220, Note_on_c, 3, 67, 70
17, 23280, Note_on_c, 3, 67, 0
17, 23280, Note_on_c, 3, 68, 71
17, 23315, Note_on_c, 3, 68, 0
17, 23340, Note_on_c, 3, 68, 72
17, 23400, Note_on_c, 3, 68, 0
17, 23400, Note_on_c, 3, 69, 74
17, 23435, Note_on_c, 3, 69, 0
17, 23460, Note_on_c, 3, 69, 75
17, 23520, Note_on_c, 3, 69, 0
17, 23520, Note_on_c, 3, 76, 0
17, 23520, Note_on_c, 3, 75, 75
17, 23520, Note_on_c, 3, 71, 75
17, 23555, Note_on_c, 3, 71, 0
17, 23580, Note_on_c, 3, 75, 0
17, 23580, Note_on_c, 3, 76, 75
17, 23580, Note_on_c, 3, 71, 75
17, 23640, Note_on_c, 3, 71, 0
17, 23640, Note_on_c, 3, 76, 0
17, 23640, Note_on_c, 3, 79, 75
17, 23640, Note_on_c, 3, 72, 75
17, 23675, Note_on_c, 3, 72, 0
17, 23700, Note_on_c, 3, 79, 0
17, 23700, Note_on_c, 3, 78, 75
17, 23700, Note_on_c, 3, 69, 75
17, 23760, Note_on_c, 3, 69, 0
17, 23760, Note_on_c, 3, 78, 0
17, 23760, Note_on_c, 3, 76, 75
17, 23760, Note_on_c, 3, 71, 75
17, 23790, Note_on_c, 3, 71, 0
17, 23790, Note_on_c, 3, 76, 0
17, 23790, Note_on_c, 3, 75, 75
17, 23790, Note_on_c, 3, 72, 75
17, 23820, Note_on_c, 3, 72, 0
17, 23820, Note_on_c, 3, 75, 0
17, 23820, Note_on_c, 3, 76, 75
17, 23820, Note_on_c, 3, 71, 75
17, 23880, Note_on_c, 3, 71, 0
17, 23880, Note_on_c, 3, 76, 0
17, 23880, Note_on_c, 3, 69, 75
17, 23880, Note_on_c, 3, 64, 75
17, 23940, Note_on_c, 3, 64, 0
17, 23940, Note_on_c, 3, 69, 0
17, 23940, Note_on_c, 3, 67, 67
17, 23940, Note_on_c, 3, 64, 67
17, 24060, Note_on_c, 3, 64, 0
17, 24060, Note_on_c, 3, 67, 0
17, 24060, Note_on_c, 3, 66, 60
17, 24060, Note_on_c, 3, 63, 60
17, 24180, Note_on_c, 3, 63, 0
17, 24180, Note_on_c, 3, 66, 0
17, 24180, Note_on_c, 3, 64, 53
17, 24180, Note_on_c, 3, 64, 53
17, 24300, Note_on_c, 3, 64, 0
17, 24300, Note_on_c, 3, 64, 0
17, 24600, Note_on_c, 3, 76, 41
17, 24720, Note_on_c, 3, 76, 0
17, 24720, Note_on_c, 3, 78, 42
17, 24755, Note_on_c, 3, 78, 0
17, 24780, Note_on_c, 3, 78, 43
17, 24840, Note_on_c, 3, 78, 0
17, 24840, Note_on_c, 3, 79, 43
17, 24875, Note_on_c, 3, 79, 0
17, 24900, Note_on_c, 3, 79, 43
17, 24960, Note_on_c, 3, 79, 0
17, 24960, Note_on_c, 3, 78, 44
17, 24995, Note_on_c, 3, 78, 0
17, 25020, Note_on_c, 3, 79, 44
17, 25080, Note_on_c, 3, 79, 0
17, 25080, Note_on_c, 3, 78, 45
17, 25080, Note_on_c, 3, 81, 45
17, 25115, Note_on_c, 3, 81, 0
17, 25140, Note_on_c, 3, 75, 45
17, 25200, Note_on_c, 3, 75, 0
17, 25200, Note_on_c, 3, 78, 0
17, 25200, Note_on_c, 3, 79, 46
17, 25200, Note_on_c, 3, 76, 46
17, 25235, Note_on_c, 3, 76, 0
17, 25235, Note_on_c, 3, 79, 0
17, 25260, Note_on_c, 3, 79, 46
17, 25260, Note_on_c, 3, 76, 46
17, 25320, Note_on_c, 3, 76, 0
17, 25320, Note_on_c, 3, 79, 0
17, 25320, Note_on_c, 3, 81, 46
17, 25320, Note_on_c, 3, 78, 46
17, 25355, Note_on_c, 3, 78, 0
17, 25355, Note_on_c, 3, 81, 0
17, 25380, Note_on_c, 3, 81, 47
17, 25380, Note_on_c, 3, 78, 47
17, 25440, Note_on_c, 3, 78, 0
17, 25440, Note_on_c, 3, 81, 0
17, 25440, Note_on_c, 3, 79, 47
17, 25440, Note_on_c, 3, 76, 47
17, 25475, Note_on_c, 3, 76, 0
17, 25475, Note_on_c, 3, 79, 0
17, 25500, Note_on_c, 3, 81, 48
17, 25500, Note_on_c, 3, 78, 48
17, 25560, Note_on_c, 3, 78, 0
17, 25560, Note_on_c, 3, 81, 0
17, 25560, Note_on_c, 3, 83, 48
17, 25560, Note_on_c, 3, 75, 48
17, 25595, Note_on_c, 3, 75, 0
17, 25595, Note_on_c, 3, 83, 0
17, 25620, Note_on_c, 3, 80, 49
17, 25620, Note_on_c, 3, 71, 49
17, 25680, Note_on_c, 3, 71, 0
17, 25680, Note_on_c, 3, 80, 0
17, 25680, Note_on_c, 3, 82, 49
17, 25680, Note_on_c, 3, 73, 49
17, 25715, Note_on_c, 3, 73, 0
17, 25715, Note_on_c, 3, 82, 0
17, 25740, Note_on_c, 3, 82, 49
17, 25740, Note_on_c, 3, 73, 49
17, 25800, Note_on_c, 3, 73, 0
17, 25800, Note_on_c, 3, 82, 0
17, 25800, Note_on_c, 3, 83, 50
17, 25800, Note_on_c, 3, 74, 50
17, 25835, Note_on_c, 3, 74, 0
17, 25835, Note_on_c, 3, 83, 0
17, 25860, Note_on_c, 3, 83, 50
17, 25860, Note_on_c, 3, 74, 50
17, 25920, Note_on_c, 3, 74, 0
17, 25920, Note_on_c, 3, 83, 0
17, 25920, Note_on_c, 3, 82, 51
17, 25920, Note_on_c, 3, 73, 51
17, 25955, Note_on_c, 3, 73, 0
17, 25955, Note_on_c, 3, 82, 0
17, 25980, Note_on_c, 3, 83, 51
17, 25980, Note_on_c, 3, 74, 51
17, 26040, Note_on_c, 3, 74, 0
17, 26040, Note_on_c, 3, 83, 0
17, 26040, Note_on_c, 3, 85, 52
17, 26040, Note_on_c, 3, 76, 52
17, 26075, Note_on_c, 3, 76, 0
17, 26075, Note_on_c, 3, 85, 0
17, 26100, Note_on_c, 3, 82, 52
17, 26100, Note_on_c, 3, 73, 52
17, 26160, Note_on_c, 3, 73, 0
17, 26160, Note_on_c, 3, 82, 0
17, 26160, Note_on_c, 3, 78, 52
17, 26160, Note_on_c, 3, 70, 52
17, 26195, Note_on_c, 3, 70, 0
17, 26195, Note_on_c, 3, 78, 0
17, 26220, Note_on_c, 3, 78, 53
17, 26220, Note_on_c, 3, 70, 53
17, 26280, Note_on_c, 3, 70, 0
17, 26280, Note_on_c, 3, 78, 0
17, 26280, Note_on_c, 3, 82, 53
17, 26280, Note_on_c, 3, 73, 53
17, 26315, Note_on_c, 3, 73, 0
17, 26315, Note_on_c, 3, 82, 0
17, 26340, Note_on_c, 3, 83, 54
17, 26340, Note_on_c, 3, 78, 54
17, 26400, Note_on_c, 3, 78, 0
17, 26400, Note_on_c, 3, 76, 54
17, 26435, Note_on_c, 3, 76, 0
17, 26460, Note_on_c, 3, 76, 55
17, 26520, Note_on_c, 3, 76, 0
17, 26520, Note_on_c, 3, 74, 55
17, 26555, Note_on_c, 3, 74, 0
17, 26580, Note_on_c, 3, 74, 55
17, 26640, Note_on_c, 3, 74, 0
17, 26640, Note_on_c, 3, 75, 56
17, 26675, Note_on_c, 3, 75, 0
17, 26700, Note_on_c, 3, 75, 56
17, 26760, Note_on_c, 3, 75, 0
17, 26760, Note_on_c, 3, 76, 57
17, 26795, Note_on_c, 3, 76, 0
17, 26820, Note_on_c, 3, 76, 57
17, 26880, Note_on_c, 3, 76, 0
17, 26880, Note_on_c, 3, 83, 0
17, 26880, Note_on_c, 3, 82, 58
17, 26880, Note_on_c, 3, 78, 58
17, 26915, Note_on_c, 3, 78, 0
17, 26940, Note_on_c, 3, 82, 0
17, 26940, Note_on_c, 3, 83, 58
17, 26940, Note_on_c, 3, 78, 58
17, 27000, Note_on_c, 3, 78, 0
17, 27000, Note_on_c, 3, 83, 0
17, 27000, Note_on_c, 3, 86, 58
17, 27000, Note_on_c, 3, 79, 58
17, 27060, Note_on_c, 3, 79, 0
17, 27060, Note_on_c, 3, 86, 0
17, 27060, Note_on_c, 3, 85, 59
17, 27060, Note_on_c, 3, 79, 59
17, 27120, Note_on_c, 3, 79, 0
17, 27120, Note_on_c, 3, 85, 0
17, 27120, Note_on_c, 3, 83, 59
17, 27120, Note_on_c, 3, 78, 59
17, 27150, Note_on_c, 3, 78, 0
17, 27150, Note_on_c, 3, 83, 0
17, 27150, Note_on_c, 3, 82, 60
17, 27150, Note_on_c, 3, 76, 60
17, 27180, Note_on_c, 3, 76, 0
17, 27180, Note_on_c, 3, 82, 0
17, 27180, Note_on_c, 3, 83, 60
17, 27180, Note_on_c, 3, 78, 60
17, 27240, Note_on_c, 3, 78, 0
17, 27240, Note_on_c, 3, 83, 0
17, 27240, Note_on_c, 3, 76, 60
17, 27240, Note_on_c, 3, 71, 60
17, 27300, Note_on_c, 3, 71, 0
17, 27300, Note_on_c, 3, 76, 0
17, 27300, Note_on_c, 3, 74, 61
17, 27300, Note_on_c, 3, 71, 61
17, 27420, Note_on_c, 3, 71, 0
17, 27420, Note_on_c, 3, 74, 0
17, 27420, Note_on_c, 3, 74, 61
17, 27420, Note_on_c, 3, 70, 61
17, 27435, Note_on_c, 3, 74, 0
17, 27435, Note_on_c, 3, 73, 62
17, 27450, Note_on_c, 3, 73, 0
17, 27450, Note_on_c, 3, 74, 62
17, 27465, Note_on_c, 3, 74, 0
17, 27465, Note_on_c, 3, 73, 62
17, 27480, Note_on_c, 3, 73, 0
17, 27480, Note_on_c, 3, 74, 62
17, 27495, Note_on_c, 3, 74, 0
17, 27495, Note_on_c, 3, 73, 62
17, 27510, Note_on_c, 3, 73, 0
17, 27510, Note_on_c, 3, 71, 62
17, 27525, Note_on_c, 3, 71, 0
17, 27525, Note_on_c, 3, 73, 62
17, 27540, Note_on_c, 3, 73, 0
17, 27540, Note_on_c, 3, 70, 0
17, 27540, Note_on_c, 3, 71, 64
17, 27540, Note_on_c, 3, 71, 64
17, 27600, Note_on_c, 3, 71, 0
17, 27600, Note_on_c, 3, 71, 0
17, 27600, Note_on_c, 3, 73, 53
17, 27600, Note_on_c, 3, 64, 53
17, 27635, Note_on_c, 3, 64, 0
17, 27635, Note_on_c, 3, 73, 0
17, 27660, Note_on_c, 3, 73, 41
17, 27660, Note_on_c, 3, 64, 41
17, 27720, Note_on_c, 3, 64, 0
17, 27720, Note_on_c, 3, 73, 0
17, 27720, Note_on_c, 3, 74, 30
17, 27720, Note_on_c, 3, 66, 30
17, 27755, Note_on_c, 3, 66, 0
17, 27755, Note_on_c, 3, 74, 0
17, 27780, Control_c, 3, 7, 20
17, 27780, Control_c, 3, 7, 20
17, 27780, Note_on_c, 3, 74, 64
17, 27780, Note_on_c, 3, 66, 64
17, 27785, Control_c, 3, 7, 48
17, 27840, Note_on_c, 3, 66, 0
17, 27840, Note_on_c, 3, 71, 64
17, 27875, Note_on_c, 3, 71, 0
17, 27900, Note_on_c, 3, 69, 64
17, 27960, Note_on_c, 3, 69, 0
17, 27960, Note_on_c, 3, 67, 64
17, 27995, Note_on_c, 3, 67, 0
17, 28020, Note_on_c, 3, 66, 64
17, 28080, Note_on_c, 3, 66, 0
17, 28080, Note_on_c, 3, 67, 64
17, 28115, Note_on_c, 3, 67, 0
17, 28140, Note_on_c, 3, 69, 64
17, 28200, Note_on_c, 3, 69, 0
17, 28200, Note_on_c, 3, 66, 64
17, 28235, Note_on_c, 3, 66, 0
17, 28260, Note_on_c, 3, 67, 64
17, 28320, Note_on_c, 3, 67, 0
17, 28320, Note_on_c, 3, 66, 64
17, 28355, Note_on_c, 3, 66, 0
17, 28380, Note_on_c, 3, 64, 64
17, 28440, Note_on_c, 3, 64, 0
17, 28440, Note_on_c, 3, 66, 64
17, 28475, Note_on_c, 3, 66, 0
17, 28500, Note_on_c, 3, 67, 64
17, 28560, Note_on_c, 3, 67, 0
17, 28560, Note_on_c, 3, 69, 64
17, 28590, Note_on_c, 3, 69, 0
17, 28590, Note_on_c, 3, 67, 64
17, 28620, Note_on_c, 3, 67, 0
17, 28620, Note_on_c, 3, 69, 64
17, 28680, Note_on_c, 3, 69, 0
17, 28680, Note_on_c, 3, 71, 64
17, 28740, Note_on_c, 3, 71, 0
17, 28740, Note_on_c, 3, 69, 64
17, 28860, Note_on_c, 3, 69, 0
17, 28860, Note_on_c, 3, 74, 0
17, 28860, Note_on_c, 3, 73, 64
17, 28860, Note_on_c, 3, 67, 64
17, 28980, Note_on_c, 3, 67, 0
17, 28980, Note_on_c, 3, 73, 0
17, 28980, Note_on_c, 3, 74, 64
17, 28980, Note_on_c, 3, 66, 64
17, 29015, Note_on_c, 3, 66, 0
17, 29015, Note_on_c, 3, 74, 0
17, 29100, Note_on_c, 3, 74, 64
17, 29100, Note_on_c, 3, 69, 64
17, 29135, Note_on_c, 3, 69, 0
17, 29135, Note_on_c, 3, 74, 0
17, 29220, Note_on_c, 3, 74, 64
17, 29220, Note_on_c, 3, 71, 64
17, 29255, Note_on_c, 3, 71, 0
17, 29255, Note_on_c, 3, 74, 0
17, 29340, Note_on_c, 3, 74, 64
17, 29340, Note_on_c, 3, 71, 64
17, 29375, Note_on_c, 3, 71, 0
17, 29375, Note_on_c, 3, 74, 0
17, 29460, Note_on_c, 3, 73, 64
17, 29460, Note_on_c, 3, 69, 64
17, 29495, Note_on_c, 3, 69, 0
17, 29495, Note_on_c, 3, 73, 0
17, 29580, Note_on_c, 3, 78, 64
17, 29580, Note_on_c, 3, 69, 64
17, 29615, Note_on_c, 3, 69, 0
17, 29615, Note_on_c, 3, 78, 0
17, 29700, Note_on_c, 3, 78, 64
17, 29700, Note_on_c, 3, 67, 64
17, 29735, Note_on_c, 3, 67, 0
17, 29735, Note_on_c, 3, 78, 0
17, 29820, Note_on_c, 3, 76, 64
17, 29820, Note_on_c, 3, 67, 64
17, 29855, Note_on_c, 3, 67, 0
17, 29855, Note_on_c, 3, 76, 0
17, 29940, Note_on_c, 3, 76, 64
17, 29940, Note_on_c, 3, 66, 64
17, 29975, Note_on_c, 3, 66, 0
17, 29975, Note_on_c, 3, 76, 0
17, 30060, Note_on_c, 3, 74, 64
17, 30060, Note_on_c, 3, 66, 64
17, 30095, Note_on_c, 3, 66, 0
17, 30095, Note_on_c, 3, 74, 0
17, 30180, Note_on_c, 3, 78, 64
17, 30180, Note_on_c, 3, 74, 64
17, 30215, Note_on_c, 3, 74, 0
17, 30215, Note_on_c, 3, 78, 0
17, 30300, Note_on_c, 3, 81, 64
17, 30300, Note_on_c, 3, 73, 64
17, 30335, Note_on_c, 3, 73, 0
17, 30335, Note_on_c, 3, 81, 0
17, 30420, Note_on_c, 3, 81, 64
17, 30420, Note_on_c, 3, 76, 64
17, 30455, Note_on_c, 3, 76, 0
17, 30455, Note_on_c, 3, 81, 0
17, 30540, Note_on_c, 3, 74, 64
17, 30540, Note_on_c, 3, 76, 64
17, 30575, Note_on_c, 3, 76, 0
17, 30575, Note_on_c, 3, 74, 0
17, 30660, Note_on_c, 3, 73, 64
17, 30660, Note_on_c, 3, 76, 64
17, 30695, Note_on_c, 3, 76, 0
17, 30695, Note_on_c, 3, 73, 0
17, 30780, Note_on_c, 3, 81, 64
17, 30780, Note_on_c, 3, 76, 64
17, 30815, Note_on_c, 3, 76, 0
17, 30815, Note_on_c, 3, 81, 0
17, 30900, Note_on_c, 3, 79, 64
17, 30900, Note_on_c, 3, 76, 64
17, 30935, Note_on_c, 3, 76, 0
17, 30935, Note_on_c, 3, 79, 0
17, 31020, Note_on_c, 3, 79, 64
17, 31020, Note_on_c, 3, 69, 64
17, 31055, Note_on_c, 3, 69, 0
17, 31055, Note_on_c, 3, 79, 0
17, 31140, Note_on_c, 3, 78, 64
17, 31140, Note_on_c, 3, 69, 64
17, 31175, Note_on_c, 3, 69, 0
17, 31175, Note_on_c, 3, 78, 0
17, 31260, Note_on_c, 3, 76, 64
17, 31260, Note_on_c, 3, 67, 64
17, 31295, Note_on_c, 3, 67, 0
17, 31295, Note_on_c, 3, 76, 0
17, 31380, Note_on_c, 3, 76, 64
17, 31380, Note_on_c, 3, 72, 64
17, 31415, Note_on_c, 3, 72, 0
17, 31415, Note_on_c, 3, 76, 0
17, 31500, Note_on_c, 3, 74, 64
17, 31500, Note_on_c, 3, 71, 64
17, 31535, Note_on_c, 3, 71, 0
17, 31535, Note_on_c, 3, 74, 0
17, 31620, Note_on_c, 3, 74, 64
17, 31620, Note_on_c, 3, 67, 64
17, 31655, Note_on_c, 3, 67, 0
17, 31655, Note_on_c, 3, 74, 0
17, 31740, Note_on_c, 3, 76, 64
17, 31740, Note_on_c, 3, 71, 64
17, 31775, Note_on_c, 3, 71, 0
17, 31775, Note_on_c, 3, 76, 0
17, 31860, Note_on_c, 3, 76, 64
17, 31860, Note_on_c, 3, 71, 64
17, 31895, Note_on_c, 3, 71, 0
17, 31895, Note_on_c, 3, 76, 0
17, 31980, Note_on_c, 3, 78, 64
17, 31980, Note_on_c, 3, 69, 64
17, 32015, Note_on_c, 3, 69, 0
17, 32015, Note_on_c, 3, 78, 0
17, 32100, Note_on_c, 3, 81, 64
17, 32100, Note_on_c, 3, 78, 64
17, 32135, Note_on_c, 3, 78, 0
17, 32135, Note_on_c, 3, 81, 0
17, 32220, Note_on_c, 3, 79, 64
17, 32220, Note_on_c, 3, 81, 64
17, 32255, Note_on_c, 3, 81, 0
17, 32255, Note_on_c, 3, 79, 0
17, 32340, Note_on_c, 3, 78, 64
17, 32340, Note_on_c, 3, 81, 64
17, 32375, Note_on_c, 3, 81, 0
17, 32375, Note_on_c, 3, 78, 0
17, 32460, Note_on_c, 3, 78, 64
17, 32460, Note_on_c, 3, 74, 64
17, 32495, Note_on_c, 3, 74, 0
17, 32495, Note_on_c, 3, 78, 0
17, 32580, Note_on_c, 3, 78, 64
17, 32580, Note_on_c, 3, 74, 64
17, 32615, Note_on_c, 3, 74, 0
17, 32615, Note_on_c, 3, 78, 0
17, 32700, Note_on_c, 3, 76, 64
17, 32700, Note_on_c, 3, 74, 64
17, 32735, Note_on_c, 3, 74, 0
17, 32735, Note_on_c, 3, 76, 0
17, 32820, Note_on_c, 3, 76, 64
17, 32820, Note_on_c, 3, 73, 64
17, 32855, Note_on_c, 3, 73, 0
17, 32855, Note_on_c, 3, 76, 0
17, 32940, Note_on_c, 3, 74, 64
17, 32940, Note_on_c, 3, 71, 64
17, 32975, Note_on_c, 3, 71, 0
17, 32975, Note_on_c, 3, 74, 0
17, 33060, Note_on_c, 3, 79, 64
17, 33060, Note_on_c, 3, 71, 64
17, 33095, Note_on_c, 3, 71, 0
17, 33095, Note_on_c, 3, 79, 0
17, 33180, Note_on_c, 3, 76, 64
17, 33180, Note_on_c, 3, 69, 64
17, 33215, Note_on_c, 3, 69, 0
17, 33215, Note_on_c, 3, 76, 0
17, 33300, Note_on_c, 3, 78, 64
17, 33300, Note_on_c, 3, 69, 64
17, 33335, Note_on_c, 3, 69, 0
17, 33335, Note_on_c, 3, 78, 0
17, 33420, Note_on_c, 3, 78, 64
17, 33420, Note_on_c, 3, 74, 64
17, 33455, Note_on_c, 3, 74, 0
17, 33455, Note_on_c, 3, 78, 0
17, 33540, Note_on_c, 3, 78, 64
17, 33540, Note_on_c, 3, 74, 64
17, 33575, Note_on_c, 3, 74, 0
17, 33575, Note_on_c, 3, 78, 0
17, 33660, Note_on_c, 3, 81, 64
17, 33660, Note_on_c, 3, 76, 64
17, 33695, Note_on_c, 3, 76, 0
17, 33695, Note_on_c, 3, 81, 0
17, 33780, Note_on_c, 3, 81, 64
17, 33780, Note_on_c, 3, 76, 64
17, 33815, Note_on_c, 3, 76, 0
17, 33815, Note_on_c, 3, 81, 0
17, 33900, Note_on_c, 3, 74, 64
17, 33900, Note_on_c, 3, 76, 64
17, 33935, Note_on_c, 3, 76, 0
17, 33935, Note_on_c, 3, 74, 0
17, 34020, Note_on_c, 3, 73, 64
17, 34020, Note_on_c, 3, 76, 64
17, 34055, Note_on_c, 3, 76, 0
17, 34055, Note_on_c, 3, 73, 0
17, 34140, Note_on_c, 3, 73, 64
17, 34140, Note_on_c, 3, 69, 64
17, 34175, Note_on_c, 3, 69, 0
17, 34175, Note_on_c, 3, 73, 0
17, 34260, Note_on_c, 3, 78, 64
17, 34260, Note_on_c, 3, 69, 64
17, 34295, Note_on_c, 3, 69, 0
17, 34295, Note_on_c, 3, 78, 0
17, 34380, Note_on_c, 3, 78, 64
17, 34380, Note_on_c, 3, 71, 64
17, 34415, Note_on_c, 3, 71, 0
17, 34415, Note_on_c, 3, 78, 0
17, 34500, Note_on_c, 3, 76, 64
17, 34500, Note_on_c, 3, 71, 64
17, 34535, Note_on_c, 3, 71, 0
17, 34535, Note_on_c, 3, 76, 0
17, 34620, Note_on_c, 3, 81, 64
17, 34620, Note_on_c, 3, 76, 64
17, 34655, Note_on_c, 3, 76, 0
17, 34655, Note_on_c, 3, 81, 0
17, 34740, Note_on_c, 3, 74, 64
17, 34740, Note_on_c, 3, 69, 64
17, 34775, Note_on_c, 3, 69, 0
17, 34775, Note_on_c, 3, 74, 0
17, 34860, Note_on_c, 3, 74, 64
17, 34860, Note_on_c, 3, 71, 64
17, 34895, Note_on_c, 3, 71, 0
17, 34895, Note_on_c, 3, 74, 0
17, 34980, Note_on_c, 3, 72, 64
17, 34980, Note_on_c, 3, 71, 64
17, 35015, Note_on_c, 3, 71, 0
17, 35015, Note_on_c, 3, 72, 0
17, 35100, Note_on_c, 3, 76, 64
17, 35100, Note_on_c, 3, 69, 64
17, 35135, Note_on_c, 3, 69, 0
17, 35135, Note_on_c, 3, 76, 0
17, 35220, Note_on_c, 3, 78, 64
17, 35220, Note_on_c, 3, 69, 64
17, 35255, Note_on_c, 3, 69, 0
17, 35255, Note_on_c, 3, 78, 0
17, 35340, Note_on_c, 3, 76, 64
17, 35340, Note_on_c, 3, 71, 64
17, 35375, Note_on_c, 3, 71, 0
17, 35375, Note_on_c, 3, 76, 0
17, 35460, Note_on_c, 3, 76, 64
17, 35460, Note_on_c, 3, 71, 64
17, 35495, Note_on_c, 3, 71, 0
17, 35495, Note_on_c, 3, 76, 0
17, 35580, Note_on_c, 3, 69, 64
17, 35580, Note_on_c, 3, 66, 64
17, 35585, Control_c, 3, 7, 49
17, 35604, Control_c, 3, 7, 51
17, 35615, Note_on_c, 3, 66, 0
17, 35615, Note_on_c, 3, 69, 0
17, 35623, Control_c, 3, 7, 53
17, 35642, Control_c, 3, 7, 56
17, 35661, Control_c, 3, 7, 58
17, 35680, Control_c, 3, 7, 60
17, 35699, Control_c, 3, 7, 63
17, 35700, Note_on_c, 3, 67, 64
17, 35700, Note_on_c, 3, 64, 64
17, 35718, Control_c, 3, 7, 65
17, 35735, Note_on_c, 3, 64, 0
17, 35735, Note_on_c, 3, 67, 0
17, 35737, Control_c, 3, 7, 68
17, 35756, Control_c, 3, 7, 70
17, 35775, Control_c, 3, 7, 72
17, 35794, Control_c, 3, 7, 75
17, 35813, Control_c, 3, 7, 77
17, 35832, Control_c, 3, 7, 79
17, 35851, Control_c, 3, 7, 82
17, 35870, Control_c, 3, 7, 84
17, 35889, Control_c, 3, 7, 87
17, 35908, Control_c, 3, 7, 89
17, 35927, Control_c, 3, 7, 91
17, 35946, Control_c, 3, 7, 94
17, 35965, Control_c, 3, 7, 96
17, 35984, Control_c, 3, 7, 98
17, 36003, Control_c, 3, 7, 101
17, 36022, Control_c, 3, 7, 103
17, 36041, Control_c, 3, 7, 106
17, 36060, Control_c, 3, 7, 108
17, 36079, Control_c, 3, 7, 110
17, 36098, Control_c, 3, 7, 113
17, 36117, Control_c, 3, 7, 115
17, 36136, Control_c, 3, 7, 117
17, 36155, Control_c, 3, 7, 120
17, 36174, Control_c, 3, 7, 122
17, 36193, Control_c, 3, 7, 125
17, 36207, Control_c, 3, 7, 127
17, 36207, Control_c, 3, 7, 127
17, 36240, Note_on_c, 3, 71, 50
17, 36240, Note_on_c, 3, 66, 50
17, 36300, Note_on_c, 3, 66, 0
17, 36300, Note_on_c, 3, 71, 0
17, 36300, Note_on_c, 3, 74, 50
17, 36300, Note_on_c, 3, 78, 50
17, 36360, Note_on_c, 3, 74, 0
17, 36360, Note_on_c, 3, 78, 50
17, 36420, Note_on_c, 3, 78, 0
17, 36420, Note_on_c, 3, 83, 50
17, 36480, Note_on_c, 3, 83, 0
17, 36480, Note_on_c, 3, 85, 50
17, 36510, Note_on_c, 3, 85, 0
17, 36510, Note_on_c, 3, 86, 50
17, 36540, Note_on_c, 3, 86, 0
17, 36540, Note_on_c, 3, 78, 0
17, 36540, Note_on_c, 3, 85, 50
17, 36540, Note_on_c, 3, 77, 50
17, 36570, Note_on_c, 3, 85, 0
17, 36570, Note_on_c, 3, 83, 50
17, 36600, Note_on_c, 3, 83, 0
17, 36600, Note_on_c, 3, 81, 50
17, 36630, Note_on_c, 3, 81, 0
17, 36630, Note_on_c, 3, 80, 50
17, 36660, Note_on_c, 3, 80, 0
17, 36660, Note_on_c, 3, 77, 0
17, 36660, Note_on_c, 3, 81, 50
17, 36660, Note_on_c, 3, 78, 50
17, 36695, Note_on_c, 3, 78, 0
17, 36695, Note_on_c, 3, 81, 0
17, 36720, Note_on_c, 3, 78, 50
17, 36720, Note_on_c, 3, 73, 50
17, 36755, Note_on_c, 3, 73, 0
17, 36755, Note_on_c, 3, 78, 0
17, 37080, Note_on_c, 3, 78, 69
17, 37080, Note_on_c, 3, 73, 69
17, 37140, Note_on_c, 3, 73, 0
17, 37140, Note_on_c, 3, 75, 69
17, 37200, Note_on_c, 3, 75, 0
17, 37200, Note_on_c, 3, 78, 0
17, 37200, Note_on_c, 3, 80, 70
17, 37200, Note_on_c, 3, 76, 70
17, 37235, Note_on_c, 3, 76, 0
17, 37235, Note_on_c, 3, 80, 0
17, 37260, Note_on_c, 3, 80, 70
17, 37260, Note_on_c, 3, 76, 70
17, 37320, Note_on_c, 3, 76, 0
17, 37320, Note_on_c, 3, 80, 0
17, 37320, Note_on_c, 3, 81, 71
17, 37320, Note_on_c, 3, 78, 71
17, 37355, Note_on_c, 3, 78, 0
17, 37355, Note_on_c, 3, 81, 0
17, 37380, Note_on_c, 3, 81, 71
17, 37380, Note_on_c, 3, 78, 71
17, 37440, Note_on_c, 3, 78, 0
17, 37440, Note_on_c, 3, 81, 0
17, 37440, Note_on_c, 3, 80, 71
17, 37440, Note_on_c, 3, 76, 71
17, 37475, Note_on_c, 3, 76, 0
17, 37475, Note_on_c, 3, 80, 0
17, 37500, Note_on_c, 3, 81, 72
17, 37500, Note_on_c, 3, 78, 72
17, 37560, Note_on_c, 3, 78, 0
17, 37560, Note_on_c, 3, 81, 0
17, 37560, Note_on_c, 3, 83, 72
17, 37560, Note_on_c, 3, 75, 72
17, 37595, Note_on_c, 3, 75, 0
17, 37595, Note_on_c, 3, 83, 0
17, 37620, Note_on_c, 3, 80, 73
17, 37620, Note_on_c, 3, 76, 73
17, 37740, Note_on_c, 3, 76, 0
17, 37740, Note_on_c, 3, 80, 0
17, 38040, Note_on_c, 3, 76, 76
17, 38040, Note_on_c, 3, 71, 76
17, 38100, Note_on_c, 3, 71, 0
17, 38100, Note_on_c, 3, 73, 76
17, 38160, Note_on_c, 3, 73, 0
17, 38160, Note_on_c, 3, 76, 0
17, 38160, Note_on_c, 3, 78, 77
17, 38160, Note_on_c, 3, 74, 77
17, 38195, Note_on_c, 3, 74, 0
17, 38195, Note_on_c, 3, 78, 0
17, 38220, Note_on_c, 3, 78, 77
17, 38220, Note_on_c, 3, 74, 77
17, 38280, Note_on_c, 3, 74, 0
17, 38280, Note_on_c, 3, 78, 0
17, 38280, Note_on_c, 3, 79, 78
17, 38280, Note_on_c, 3, 76, 78
17, 38315, Note_on_c, 3, 76, 0
17, 38315, Note_on_c, 3, 79, 0
17, 38340, Note_on_c, 3, 79, 64
17, 38340, Note_on_c, 3, 76, 64
17, 38400, Note_on_c, 3, 76, 0
17, 38400, Note_on_c, 3, 79, 0
17, 38400, Note_on_c, 3, 78, 64
17, 38400, Note_on_c, 3, 74, 64
17, 38435, Note_on_c, 3, 74, 0
17, 38435, Note_on_c, 3, 78, 0
17, 38460, Note_on_c, 3, 79, 65
17, 38460, Note_on_c, 3, 76, 65
17, 38520, Note_on_c, 3, 76, 0
17, 38520, Note_on_c, 3, 79, 0
17, 38520, Note_on_c, 3, 81, 65
17, 38520, Note_on_c, 3, 73, 65
17, 38555, Note_on_c, 3, 73, 0
17, 38555, Note_on_c, 3, 81, 0
17, 38580, Note_on_c, 3, 78, 65
17, 38580, Note_on_c, 3, 74, 65
17, 38640, Note_on_c, 3, 74, 0
17, 38640, Note_on_c, 3, 78, 0
17, 38640, Note_on_c, 3, 79, 65
17, 38640, Note_on_c, 3, 76, 65
17, 38675, Note_on_c, 3, 76, 0
17, 38675, Note_on_c, 3, 79, 0
17, 38700, Note_on_c, 3, 79, 66
17, 38700, Note_on_c, 3, 76, 66
17, 38760, Note_on_c, 3, 76, 0
17, 38760, Note_on_c, 3, 79, 0
17, 38760, Note_on_c, 3, 81, 66
17, 38760, Note_on_c, 3, 78, 66
17, 38795, Note_on_c, 3, 78, 0
17, 38795, Note_on_c, 3, 81, 0
17, 38820, Note_on_c, 3, 81, 66
17, 38820, Note_on_c, 3, 78, 66
17, 38880, Note_on_c, 3, 78, 0
17, 38880, Note_on_c, 3, 81, 0
17, 38880, Note_on_c, 3, 79, 66
17, 38880, Note_on_c, 3, 76, 66
17, 38915, Note_on_c, 3, 76, 0
17, 38915, Note_on_c, 3, 79, 0
17, 38940, Note_on_c, 3, 81, 67
17, 38940, Note_on_c, 3, 78, 67
17, 39000, Note_on_c, 3, 78, 0
17, 39000, Note_on_c, 3, 81, 0
17, 39000, Note_on_c, 3, 83, 67
17, 39000, Note_on_c, 3, 74, 67
17, 39035, Note_on_c, 3, 74, 0
17, 39035, Note_on_c, 3, 83, 0
17, 39060, Note_on_c, 3, 79, 67
17, 39060, Note_on_c, 3, 74, 67
17, 39120, Note_on_c, 3, 79, 0
17, 39120, Note_on_c, 3, 78, 67
17, 39180, Note_on_c, 3, 78, 0
17, 39180, Note_on_c, 3, 74, 0
17, 39180, Note_on_c, 3, 76, 68
17, 39180, Note_on_c, 3, 71, 68
17, 39240, Note_on_c, 3, 76, 0
17, 39240, Note_on_c, 3, 78, 68
17, 39270, Note_on_c, 3, 78, 0
17, 39270, Note_on_c, 3, 79, 68
17, 39300, Note_on_c, 3, 79, 0
17, 39300, Note_on_c, 3, 71, 0
17, 39300, Note_on_c, 3, 73, 68
17, 39300, Note_on_c, 3, 69, 68
17, 39360, Note_on_c, 3, 73, 0
17, 39360, Note_on_c, 3, 74, 68
17, 39390, Note_on_c, 3, 74, 0
17, 39390, Note_on_c, 3, 76, 68
17, 39420, Note_on_c, 3, 76, 0
17, 39420, Note_on_c, 3, 74, 69
17, 39480, Note_on_c, 3, 69, 0
17, 39480, Note_on_c, 3, 71, 69
17, 39540, Note_on_c, 3, 71, 0
17, 39540, Note_on_c, 3, 69, 69
17, 39600, Note_on_c, 3, 69, 0
17, 39600, Note_on_c, 3, 74, 0
17, 39600, Note_on_c, 3, 76, 69
17, 39600, Note_on_c, 3, 62, 69
17, 39630, Note_on_c, 3, 76, 0
17, 39630, Note_on_c, 3, 78, 69
17, 39660, Note_on_c, 3, 78, 0
17, 39660, Note_on_c, 3, 62, 0
17, 39660, Note_on_c, 3, 69, 70
17, 39660, Note_on_c, 3, 64, 70
17, 39720, Note_on_c, 3, 64, 0
17, 39720, Note_on_c, 3, 69, 0
17, 39720, Note_on_c, 3, 73, 70
17, 39720, Note_on_c, 3, 69, 70
17, 39780, Note_on_c, 3, 69, 0
17, 39780, Note_on_c, 3, 73, 0
17, 39780, Note_on_c, 3, 74, 64
17, 39780, Note_on_c, 3, 66, 64
17, 39815, Note_on_c, 3, 66, 0
17, 39815, Note_on_c, 3, 74, 0
17, 39840, Note_on_c, 3, 62, 64
17, 39900, Note_on_c, 3, 62, 0
17, 39900, Note_on_c, 3, 66, 64
17, 39960, Note_on_c, 3, 66, 0
17, 39960, Note_on_c, 3, 69, 64
17, 40020, Note_on_c, 3, 69, 0
17, 40020, Note_on_c, 3, 74, 64
17, 40080, Note_on_c, 3, 74, 0
17, 40080, Note_on_c, 3, 76, 64
17, 40110, Note_on_c, 3, 76, 0
17, 40110, Note_on_c, 3, 78, 64
17, 40140, Note_on_c, 3, 78, 0
17, 40140, Note_on_c, 3, 76, 64
17, 40170, Note_on_c, 3, 76, 0
17, 40170, Note_on_c, 3, 74, 64
17, 40200, Note_on_c, 3, 74, 0
17, 40200, Note_on_c, 3, 73, 64
17, 40200, Note_on_c, 3, 64, 64
17, 40230, Note_on_c, 3, 73, 0
17, 40230, Note_on_c, 3, 71, 64
17, 40260, Note_on_c, 3, 71, 0
17, 40260, Note_on_c, 3, 64, 0
17, 40260, Note_on_c, 3, 73, 64
17, 40260, Note_on_c, 3, 64, 64
17, 40290, Note_on_c, 3, 73, 0
17, 40290, Note_on_c, 3, 76, 64
17, 40320, Note_on_c, 3, 76, 0
17, 40320, Note_on_c, 3, 64, 0
17, 40320, Note_on_c, 3, 81, 64
17, 40320, Note_on_c, 3, 66, 64
17, 40350, Note_on_c, 3, 81, 0
17, 40350, Note_on_c, 3, 79, 64
17, 40355, Note_on_c, 3, 66, 0
17, 40380, Note_on_c, 3, 79, 0
17, 40380, Note_on_c, 3, 78, 64
17, 40380, Note_on_c, 3, 66, 64
17, 40410, Note_on_c, 3, 78, 0
17, 40410, Note_on_c, 3, 76, 64
17, 40440, Note_on_c, 3, 76, 0
17, 40440, Note_on_c, 3, 66, 0
17, 40440, Note_on_c, 3, 74, 64
17, 40440, Note_on_c, 3, 67, 64
17, 40470, Note_on_c, 3, 74, 0
17, 40470, Note_on_c, 3, 73, 64
17, 40475, Note_on_c, 3, 67, 0
17, 40500, Note_on_c, 3, 73, 0
17, 40500, Note_on_c, 3, 71, 64
17, 40500, Note_on_c, 3, 67, 64
17, 40530, Note_on_c, 3, 71, 0
17, 40530, Note_on_c, 3, 74, 64
17, 40560, Note_on_c, 3, 74, 0
17, 40560, Note_on_c, 3, 67, 0
17, 40560, Note_on_c, 3, 79, 64
17, 40560, Note_on_c, 3, 66, 64
17, 40590, Note_on_c, 3, 79, 0
17, 40590, Note_on_c, 3, 78, 64
17, 40595, Note_on_c, 3, 66, 0
17, 40620, Note_on_c, 3, 78, 0
17, 40620, Note_on_c, 3, 76, 64
17, 40620, Note_on_c, 3, 67, 64
17, 40650, Note_on_c, 3, 76, 0
17, 40650, Note_on_c, 3, 74, 64
17, 40680, Note_on_c, 3, 74, 0
17, 40680, Note_on_c, 3, 67, 0
17, 40680, Note_on_c, 3, 73, 64
17, 40680, Note_on_c, 3, 69, 64
17, 40710, Note_on_c, 3, 73, 0
17, 40710, Note_on_c, 3, 71, 64
17, 40715, Note_on_c, 3, 69, 0
17, 40740, Note_on_c, 3, 71, 0
17, 40740, Note_on_c, 3, 69, 64
17, 40740, Note_on_c, 3, 66, 64
17, 40770, Note_on_c, 3, 69, 0
17, 40770, Note_on_c, 3, 73, 64
17, 40800, Note_on_c, 3, 73, 0
17, 40800, Note_on_c, 3, 66, 0
17, 40800, Note_on_c, 3, 74, 64
17, 40800, Note_on_c, 3, 64, 64
17, 40830, Note_on_c, 3, 74, 0
17, 40830, Note_on_c, 3, 76, 64
17, 40860, Note_on_c, 3, 76, 0
17, 40860, Note_on_c, 3, 64, 0
17, 40860, Note_on_c, 3, 78, 64
17, 40860, Note_on_c, 3, 62, 64
17, 40890, Note_on_c, 3, 78, 0
17, 40890, Note_on_c, 3, 79, 64
17, 40920, Note_on_c, 3, 79, 0
17, 40920, Note_on_c, 3, 62, 0
17, 40920, Note_on_c, 3, 78, 64
17, 40920, Note_on_c, 3, 61, 64
17, 40950, Note_on_c, 3, 78, 0
17, 40950, Note_on_c, 3, 76, 64
17, 40980, Note_on_c, 3, 76, 0
17, 40980, Note_on_c, 3, 61, 0
17, 40980, Note_on_c, 3, 74, 64
17, 40980, Note_on_c, 3, 59, 64
17, 41010, Note_on_c, 3, 74, 0
17, 41010, Note_on_c, 3, 73, 64
17, 41015, Note_on_c, 3, 59, 0
17, 41040, Note_on_c, 3, 73, 0
17, 41040, Note_on_c, 3, 71, 64
17, 41040, Note_on_c, 3, 69, 64
17, 41070, Note_on_c, 3, 69, 0
17, 41070, Note_on_c, 3, 71, 0
17, 41070, Note_on_c, 3, 74, 64
17, 41070, Note_on_c, 3, 68, 64
17, 41100, Note_on_c, 3, 68, 0
17, 41100, Note_on_c, 3, 74, 0
17, 41100, Note_on_c, 3, 73, 64
17, 41100, Note_on_c, 3, 69, 64
17, 41130, Note_on_c, 3, 73, 0
17, 41130, Note_on_c, 3, 71, 64
17, 41160, Note_on_c, 3, 71, 0
17, 41160, Note_on_c, 3, 69, 0
17, 41160, Note_on_c, 3, 69, 64
17, 41160, Note_on_c, 3, 62, 64
17, 41190, Note_on_c, 3, 69, 0
17, 41190, Note_on_c, 3, 68, 64
17, 41220, Note_on_c, 3, 68, 0
17, 41220, Note_on_c, 3, 62, 0
17, 41220, Note_on_c, 3, 76, 64
17, 41220, Note_on_c, 3, 68, 64
17, 41280, Note_on_c, 3, 68, 0
17, 41280, Note_on_c, 3, 76, 0
17, 41280, Note_on_c, 3, 69, 64
17, 41280, Note_on_c, 3, 69, 64
17, 41340, Note_on_c, 3, 69, 0
17, 41340, Note_on_c, 3, 64, 64
17, 41400, Note_on_c, 3, 69, 0
17, 41400, Note_on_c, 3, 68, 64
17, 41460, Note_on_c, 3, 68, 0
17, 41460, Note_on_c, 3, 64, 0
17, 41460, Note_on_c, 3, 69, 64
17, 41460, Note_on_c, 3, 64, 64
17, 41490, Note_on_c, 3, 69, 0
17, 41490, Note_on_c, 3, 71, 64
17, 41495, Note_on_c, 3, 64, 0
17, 41520, Note_on_c, 3, 71, 0
17, 41520, Note_on_c, 3, 73, 64
17, 41520, Note_on_c, 3, 69, 64
17, 41550, Note_on_c, 3, 73, 0
17, 41550, Note_on_c, 3, 74, 64
17, 41580, Note_on_c, 3, 74, 0
17, 41580, Note_on_c, 3, 69, 0
17, 41580, Note_on_c, 3, 76, 64
17, 41580, Note_on_c, 3, 67, 64
17, 41610, Note_on_c, 3, 67, 0
17, 41610, Note_on_c, 3, 76, 0
17, 41610, Note_on_c, 3, 78, 64
17, 41610, Note_on_c, 3, 66, 64
17, 41640, Note_on_c, 3, 66, 0
17, 41640, Note_on_c, 3, 78, 0
17, 41640, Note_on_c, 3, 79, 64
17, 41640, Note_on_c, 3, 64, 64
17, 41670, Note_on_c, 3, 64, 0
17, 41670, Note_on_c, 3, 79, 0
17, 41670, Note_on_c, 3, 81, 64
17, 41670, Note_on_c, 3, 66, 64
17, 41700, Note_on_c, 3, 66, 0
17, 41700, Note_on_c, 3, 81, 0
17, 41700, Note_on_c, 3, 71, 64
17, 41700, Note_on_c, 3, 67, 64
17, 41760, Note_on_c, 3, 67, 0
17, 41760, Note_on_c, 3, 71, 0
17, 41760, Note_on_c, 3, 73, 64
17, 41760, Note_on_c, 3, 69, 64
17, 41790, Note_on_c, 3, 69, 0
17, 41790, Note_on_c, 3, 73, 0
17, 41790, Note_on_c, 3, 74, 64
17, 41790, Note_on_c, 3, 71, 64
17, 41820, Note_on_c, 3, 71, 0
17, 41820, Note_on_c, 3, 74, 0
17, 41820, Note_on_c, 3, 76, 64
17, 41820, Note_on_c, 3, 69, 64
17, 41850, Note_on_c, 3, 69, 0
17, 41850, Note_on_c, 3, 67, 64
17, 41880, Note_on_c, 3, 67, 0
17, 41880, Note_on_c, 3, 66, 64
17, 41910, Note_on_c, 3, 66, 0
17, 41910, Note_on_c, 3, 64, 64
17, 41940, Note_on_c, 3, 64, 0
17, 41940, Note_on_c, 3, 66, 64
17, 41970, Note_on_c, 3, 66, 0
17, 41970, Note_on_c, 3, 69, 64
17, 42000, Note_on_c, 3, 69, 0
17, 42000, Note_on_c, 3, 76, 0
17, 42000, Note_on_c, 3, 74, 64
17, 42000, Note_on_c, 3, 74, 64
17, 42030, Note_on_c, 3, 74, 0
17, 42030, Note_on_c, 3, 72, 64
17, 42035, Note_on_c, 3, 74, 0
17, 42060, Note_on_c, 3, 72, 0
17, 42060, Note_on_c, 3, 74, 64
17, 42060, Note_on_c, 3, 71, 64
17, 42090, Note_on_c, 3, 71, 0
17, 42090, Note_on_c, 3, 69, 64
17, 42120, Note_on_c, 3, 69, 0
17, 42120, Note_on_c, 3, 74, 0
17, 42120, Note_on_c, 3, 76, 64
17, 42120, Note_on_c, 3, 67, 64
17, 42150, Note_on_c, 3, 67, 0
17, 42150, Note_on_c, 3, 66, 64
17, 42180, Note_on_c, 3, 66, 0
17, 42180, Note_on_c, 3, 64, 64
17, 42210, Note_on_c, 3, 64, 0
17, 42210, Note_on_c, 3, 76, 0
17, 42210, Note_on_c, 3, 78, 64
17, 42210, Note_on_c, 3, 67, 64
17, 42240, Note_on_c, 3, 67, 0
17, 42240, Note_on_c, 3, 78, 0
17, 42240, Note_on_c, 3, 76, 64
17, 42240, Note_on_c, 3, 72, 64
17, 42270, Note_on_c, 3, 72, 0
17, 42270, Note_on_c, 3, 76, 0
17, 42270, Note_on_c, 3, 78, 64
17, 42270, Note_on_c, 3, 71, 64
17, 42300, Note_on_c, 3, 71, 0
17, 42300, Note_on_c, 3, 78, 0
17, 42300, Note_on_c, 3, 79, 64
17, 42300, Note_on_c, 3, 69, 64
17, 42315, Note_on_c, 3, 79, 0
17, 42315, Note_on_c, 3, 78, 64
17, 42330, Note_on_c, 3, 78, 0
17, 42330, Note_on_c, 3, 69, 0
17, 42330, Note_on_c, 3, 79, 64
17, 42330, Note_on_c, 3, 67, 64
17, 42345, Note_on_c, 3, 79, 0
17, 42345, Note_on_c, 3, 78, 64
17, 42360, Note_on_c, 3, 78, 0
17, 42360, Note_on_c, 3, 67, 0
17, 42360, Note_on_c, 3, 79, 64
17, 42360, Note_on_c, 3, 66, 64
17, 42375, Note_on_c, 3, 79, 0
17, 42375, Note_on_c, 3, 78, 64
17, 42390, Note_on_c, 3, 78, 0
17, 42390, Note_on_c, 3, 66, 0
17, 42390, Note_on_c, 3, 76, 64
17, 42390, Note_on_c, 3, 64, 64
17, 42405, Note_on_c, 3, 76, 0
17, 42405, Note_on_c, 3, 78, 64
17, 42420, Note_on_c, 3, 78, 0
17, 42420, Note_on_c, 3, 64, 0
17, 42420, Note_on_c, 3, 79, 64
17, 42420, Note_on_c, 3, 62, 64
17, 42450, Note_on_c, 3, 62, 0
17, 42450, Note_on_c, 3, 66, 64
17, 42480, Note_on_c, 3, 66, 0
17, 42480, Note_on_c, 3, 67, 64
17, 42510, Note_on_c, 3, 67, 0
17, 42510, Note_on_c, 3, 69, 64
17, 42540, Note_on_c, 3, 69, 0
17, 42540, Note_on_c, 3, 79, 0
17, 42540, Note_on_c, 3, 71, 64
17, 42570, Note_on_c, 3, 71, 0
17, 42570, Note_on_c, 3, 72, 64
17, 42600, Note_on_c, 3, 72, 0
17, 42600, Note_on_c, 3, 62, 64
17, 42600, Note_on_c, 3, 71, 64
17, 42630, Note_on_c, 3, 71, 0
17, 42630, Note_on_c, 3, 69, 64
17, 42660, Note_on_c, 3, 69, 0
17, 42660, Note_on_c, 3, 62, 0
17, 42660, Note_on_c, 3, 71, 64
17, 42660, Note_on_c, 3, 67, 64
17, 42690, Note_on_c, 3, 67, 0
17, 42690, Note_on_c, 3, 66, 64
17, 42720, Note_on_c, 3, 66, 0
17, 42720, Note_on_c, 3, 71, 0
17, 42720, Note_on_c, 3, 69, 64
17, 42720, Note_on_c, 3, 64, 64
17, 42750, Note_on_c, 3, 64, 0
17, 42750, Note_on_c, 3, 67, 64
17, 42755, Note_on_c, 3, 69, 0
17, 42780, Note_on_c, 3, 67, 0
17, 42780, Note_on_c, 3, 69, 64
17, 42780, Note_on_c, 3, 66, 64
17, 42810, Note_on_c, 3, 66, 0
17, 42810, Note_on_c, 3, 64, 64
17, 42840, Note_on_c, 3, 64, 0
17, 42840, Note_on_c, 3, 69, 0
17, 42840, Note_on_c, 3, 74, 64
17, 42840, Note_on_c, 3, 62, 64
17, 42870, Note_on_c, 3, 62, 0
17, 42870, Note_on_c, 3, 64, 64
17, 42900, Note_on_c, 3, 64, 0
17, 42900, Note_on_c, 3, 66, 64
17, 42930, Note_on_c, 3, 66, 0
17, 42930, Note_on_c, 3, 67, 64
17, 42960, Note_on_c, 3, 67, 0
17, 42960, Note_on_c, 3, 74, 0
17, 42960, Note_on_c, 3, 73, 64
17, 42960, Note_on_c, 3, 69, 64
17, 42990, Note_on_c, 3, 73, 0
17, 42990, Note_on_c, 3, 71, 64
17, 43020, Note_on_c, 3, 71, 0
17, 43020, Note_on_c, 3, 69, 64
17, 43080, Note_on_c, 3, 69, 0
17, 43080, Note_on_c, 3, 69, 0
17, 43080, Note_on_c, 3, 67, 64
17, 43080, Note_on_c, 3, 64, 64
17, 43140, Note_on_c, 3, 64, 0
17, 43140, Note_on_c, 3, 67, 0
17, 43140, Note_on_c, 3, 66, 64
17, 43140, Note_on_c, 3, 66, 64
17, 43170, Note_on_c, 3, 66, 0
17, 43170, Note_on_c, 3, 67, 64
17, 43175, Note_on_c, 3, 66, 0
17, 43200, Note_on_c, 3, 67, 0
17, 43200, Note_on_c, 3, 66, 64
17, 43200, Note_on_c, 3, 69, 64
17, 43230, Note_on_c, 3, 66, 0
17, 43230, Note_on_c, 3, 67, 64
17, 43260, Note_on_c, 3, 67, 0
17, 43260, Note_on_c, 3, 69, 0
17, 43260, Note_on_c, 3, 69, 64
17, 43260, Note_on_c, 3, 74, 64
17, 43320, Note_on_c, 3, 74, 0
17, 43320, Note_on_c, 3, 62, 64
17, 43380, Note_on_c, 3, 62, 0
17, 43380, Note_on_c, 3, 64, 64
17, 43440, Note_on_c, 3, 64, 0
17, 43440, Note_on_c, 3, 69, 0
17, 43440, Note_on_c, 3, 72, 64
17, 43440, Note_on_c, 3, 66, 64
17, 43470, Note_on_c, 3, 66, 0
17, 43470, Note_on_c, 3, 72, 0
17, 43470, Note_on_c, 3, 71, 64
17, 43470, Note_on_c, 3, 67, 64
17, 43500, Note_on_c, 3, 67, 0
17, 43500, Note_on_c, 3, 71, 0
17, 43500, Note_on_c, 3, 72, 64
17, 43500, Note_on_c, 3, 69, 64
17, 43560, Note_on_c, 3, 72, 0
17, 43560, Note_on_c, 3, 74, 64
17, 43620, Note_on_c, 3, 74, 0
17, 43620, Note_on_c, 3, 71, 64
17, 43680, Note_on_c, 3, 71, 0
17, 43680, Note_on_c, 3, 69, 0
17, 43680, Note_on_c, 3, 67, 50
17, 43680, Note_on_c, 3, 67, 50
17, 43715, Note_on_c, 3, 67, 0
17, 43715, Note_on_c, 3, 67, 0
17, 43740, Note_on_c, 3, 67, 64
17, 43800, Note_on_c, 3, 67, 0
17, 43800, Note_on_c, 3, 72, 64
17, 43800, Note_on_c, 3, 69, 64
17, 43860, Note_on_c, 3, 69, 0
17, 43860, Note_on_c, 3, 72, 0
17, 43860, Note_on_c, 3, 77, 64
17, 43860, Note_on_c, 3, 69, 64
17, 43890, Note_on_c, 3, 69, 0
17, 43890, Note_on_c, 3, 71, 64
17, 43920, Note_on_c, 3, 71, 0
17, 43920, Note_on_c, 3, 69, 64
17, 43950, Note_on_c, 3, 69, 0
17, 43950, Note_on_c, 3, 71, 64
17, 43980, Note_on_c, 3, 71, 0
17, 43980, Note_on_c, 3, 77, 0
17, 43980, Note_on_c, 3, 72, 64
17, 43995, Note_on_c, 3, 72, 0
17, 43995, Note_on_c, 3, 71, 64
17, 44010, Note_on_c, 3, 71, 0
17, 44010, Note_on_c, 3, 72, 64
17, 44025, Note_on_c, 3, 72, 0
17, 44025, Note_on_c, 3, 71, 64
17, 44040, Note_on_c, 3, 71, 0
17, 44040, Note_on_c, 3, 74, 64
17, 44040, Note_on_c, 3, 72, 64
17, 44055, Note_on_c, 3, 72, 0
17, 44055, Note_on_c, 3, 71, 64
17, 44070, Note_on_c, 3, 71, 0
17, 44070, Note_on_c, 3, 72, 64
17, 44100, Note_on_c, 3, 72, 0
17, 44100, Note_on_c, 3, 74, 0
17, 44100, Note_on_c, 3, 76, 64
17, 44100, Note_on_c, 3, 72, 64
17, 44220, Note_on_c, 3, 72, 0
17, 44220, Note_on_c, 3, 76, 0
17, 44280, Note_on_c, 3, 67, 64
17, 44280, Note_on_c, 3, 67, 64
17, 44340, Note_on_c, 3, 67, 0
17, 44340, Note_on_c, 3, 67, 0
17, 44340, Note_on_c, 3, 69, 64
17, 44340, Note_on_c, 3, 64, 64
17, 44370, Note_on_c, 3, 69, 0
17, 44370, Note_on_c, 3, 71, 64
17, 44400, Note_on_c, 3, 71, 0
17, 44400, Note_on_c, 3, 64, 0
17, 44400, Note_on_c, 3, 72, 64
17, 44400, Note_on_c, 3, 62, 64
17, 44430, Note_on_c, 3, 72, 0
17, 44430, Note_on_c, 3, 69, 64
17, 44460, Note_on_c, 3, 69, 0
17, 44460, Note_on_c, 3, 71, 64
17, 44520, Note_on_c, 3, 71, 0
17, 44520, Note_on_c, 3, 62, 0
17, 44520, Note_on_c, 3, 72, 64
17, 44520, Note_on_c, 3, 67, 64
17, 44580, Note_on_c, 3, 67, 0
17, 44580, Note_on_c, 3, 72, 0
17, 44580, Note_on_c, 3, 74, 64
17, 44580, Note_on_c, 3, 67, 64
17, 44615, Note_on_c, 3, 67, 0
17, 44640, Note_on_c, 3, 66, 65
17, 44670, Note_on_c, 3, 66, 0
17, 44670, Note_on_c, 3, 64, 65
17, 44700, Note_on_c, 3, 64, 0
17, 44700, Note_on_c, 3, 62, 65
17, 44760, Note_on_c, 3, 62, 0
17, 44760, Note_on_c, 3, 60, 66
17, 44820, Note_on_c, 3, 60, 0
17, 44820, Note_on_c, 3, 59, 66
17, 44855, Note_on_c, 3, 59, 0
17, 44855, Note_on_c, 3, 74, 0
17, 44880, Note_on_c, 3, 62, 67
17, 44880, Note_on_c, 3, 74, 67
17, 44910, Note_on_c, 3, 74, 0
17, 44910, Note_on_c, 3, 73, 67
17, 44940, Note_on_c, 3, 73, 0
17, 44940, Note_on_c, 3, 62, 0
17, 44940, Note_on_c, 3, 74, 67
17, 44940, Note_on_c, 3, 71, 67
17, 44970, Note_on_c, 3, 71, 0
17, 44970, Note_on_c, 3, 69, 67
17, 45000, Note_on_c, 3, 69, 0
17, 45000, Note_on_c, 3, 67, 68
17, 45030, Note_on_c, 3, 67, 0
17, 45030, Note_on_c, 3, 66, 68
17, 45060, Note_on_c, 3, 66, 0
17, 45060, Note_on_c, 3, 64, 68
17, 45120, Note_on_c, 3, 64, 0
17, 45120, Note_on_c, 3, 74, 0
17, 45120, Note_on_c, 3, 73, 69
17, 45120, Note_on_c, 3, 66, 69
17, 45150, Note_on_c, 3, 66, 0
17, 45150, Note_on_c, 3, 73, 0
17, 45150, Note_on_c, 3, 71, 69
17, 45150, Note_on_c, 3, 67, 69
17, 45180, Note_on_c, 3, 67, 0
17, 45180, Note_on_c, 3, 71, 0
17, 45180, Note_on_c, 3, 73, 69
17, 45180, Note_on_c, 3, 69, 69
17, 45240, Note_on_c, 3, 69, 0
17, 45240, Note_on_c, 3, 67, 70
17, 45300, Note_on_c, 3, 67, 0
17, 45300, Note_on_c, 3, 73, 0
17, 45300, Note_on_c, 3, 74, 70
17, 45300, Note_on_c, 3, 66, 70
17, 45420, Note_on_c, 3, 66, 0
17, 45480, Note_on_c, 3, 62, 72
17, 45540, Note_on_c, 3, 62, 0
17, 45540, Note_on_c, 3, 69, 72
17, 45660, Note_on_c, 3, 69, 0
17, 45720, Note_on_c, 3, 66, 74
17, 45780, Note_on_c, 3, 66, 0
17, 45780, Note_on_c, 3, 67, 74
17, 45840, Note_on_c, 3, 74, 0
17, 45840, Note_on_c, 3, 71, 75
17, 45900, Note_on_c, 3, 71, 0
17, 45900, Note_on_c, 3, 67, 0
17, 45900, Note_on_c, 3, 76, 75
17, 45960, Note_on_c, 3, 71, 76
17, 46020, Note_on_c, 3, 71, 0
17, 46020, Note_on_c, 3, 73, 76
17, 46080, Note_on_c, 3, 73, 0
17, 46080, Note_on_c, 3, 76, 0
17, 46080, Note_on_c, 3, 81, 77
17, 46080, Note_on_c, 3, 76, 77
17, 46110, Note_on_c, 3, 81, 0
17, 46110, Note_on_c, 3, 79, 77
17, 46140, Note_on_c, 3, 79, 0
17, 46140, Note_on_c, 3, 76, 0
17, 46140, Note_on_c, 3, 81, 77
17, 46140, Note_on_c, 3, 74, 77
17, 46200, Note_on_c, 3, 74, 0
17, 46200, Note_on_c, 3, 81, 0
17, 46200, Note_on_c, 3, 74, 78
17, 46200, Note_on_c, 3, 71, 78
17, 46260, Note_on_c, 3, 71, 0
17, 46260, Note_on_c, 3, 69, 78
17, 46320, Note_on_c, 3, 74, 0
17, 46320, Note_on_c, 3, 76, 79
17, 46350, Note_on_c, 3, 76, 0
17, 46350, Note_on_c, 3, 78, 79
17, 46380, Note_on_c, 3, 78, 0
17, 46380, Note_on_c, 3, 79, 79
17, 46440, Note_on_c, 3, 79, 0
17, 46440, Note_on_c, 3, 78, 80
17, 46470, Note_on_c, 3, 78, 0
17, 46470, Note_on_c, 3, 76, 80
17, 46500, Note_on_c, 3, 76, 0
17, 46500, Note_on_c, 3, 78, 64
17, 46535, Note_on_c, 3, 78, 0
17, 46535, Note_on_c, 3, 69, 0
17, 46560, Note_on_c, 3, 74, 64
17, 46560, Note_on_c, 3, 66, 64
17, 46595, Note_on_c, 3, 66, 0
17, 46595, Note_on_c, 3, 74, 0
17, 47040, Note_on_c, 3, 69, 40
17, 47040, Note_on_c, 3, 64, 40
17, 47100, Note_on_c, 3, 64, 0
17, 47100, Note_on_c, 3, 69, 0
17, 47100, Note_on_c, 3, 73, 40
17, 47100, Note_on_c, 3, 76, 40
17, 47160, Note_on_c, 3, 73, 0
17, 47160, Note_on_c, 3, 76, 40
17, 47220, Note_on_c, 3, 76, 0
17, 47220, Note_on_c, 3, 81, 40
17, 47280, Note_on_c, 3, 81, 0
17, 47280, Note_on_c, 3, 76, 0
17, 47280, Note_on_c, 3, 83, 40
17, 47280, Note_on_c, 3, 75, 40
17, 47310, Note_on_c, 3, 75, 0
17, 47310, Note_on_c, 3, 83, 0
17, 47310, Note_on_c, 3, 84, 40
17, 47310, Note_on_c, 3, 76, 40
17, 47340, Note_on_c, 3, 76, 0
17, 47340, Note_on_c, 3, 84, 0
17, 47340, Note_on_c, 3, 83, 40
17, 47340, Note_on_c, 3, 78, 40
17, 47370, Note_on_c, 3, 83, 0
17, 47370, Note_on_c, 3, 81, 40
17, 47400, Note_on_c, 3, 81, 0
17, 47400, Note_on_c, 3, 78, 0
17, 47400, Note_on_c, 3, 79, 40
17, 47400, Note_on_c, 3, 76, 40
17, 47430, Note_on_c, 3, 76, 0
17, 47430, Note_on_c, 3, 79, 0
17, 47430, Note_on_c, 3, 78, 40
17, 47430, Note_on_c, 3, 75, 40
17, 47460, Note_on_c, 3, 75, 0
17, 47460, Note_on_c, 3, 78, 0
17, 47460, Note_on_c, 3, 79, 40
17, 47460, Note_on_c, 3, 76, 40
17, 47495, Note_on_c, 3, 76, 0
17, 47495, Note_on_c, 3, 79, 0
17, 47520, Note_on_c, 3, 76, 40
17, 47520, Note_on_c, 3, 71, 40
17, 47555, Note_on_c, 3, 71, 0
17, 47555, Note_on_c, 3, 76, 0
17, 47880, Note_on_c, 3, 66, 64
17, 48000, Note_on_c, 3, 66, 0
17, 48000, Note_on_c, 3, 68, 32
17, 48035, Note_on_c, 3, 68, 0
17, 48060, Note_on_c, 3, 68, 34
17, 48120, Note_on_c, 3, 68, 0
17, 48120, Note_on_c, 3, 69, 36
17, 48155, Note_on_c, 3, 69, 0
17, 48180, Note_on_c, 3, 69, 38
17, 48240, Note_on_c, 3, 69, 0
17, 48240, Note_on_c, 3, 68, 40
17, 48275, Note_on_c, 3, 68, 0
17, 48300, Note_on_c, 3, 69, 43
17, 48360, Note_on_c, 3, 69, 0
17, 48360, Note_on_c, 3, 71, 45
17, 48360, Note_on_c, 3, 71, 45
17, 48395, Note_on_c, 3, 71, 0
17, 48420, Note_on_c, 3, 68, 47
17, 48480, Note_on_c, 3, 68, 0
17, 48480, Note_on_c, 3, 71, 0
17, 48480, Note_on_c, 3, 73, 49
17, 48480, Note_on_c, 3, 69, 49
17, 48515, Note_on_c, 3, 69, 0
17, 48515, Note_on_c, 3, 73, 0
17, 48540, Note_on_c, 3, 73, 51
17, 48540, Note_on_c, 3, 69, 51
17, 48600, Note_on_c, 3, 69, 0
17, 48600, Note_on_c, 3, 73, 0
17, 48600, Note_on_c, 3, 74, 53
17, 48600, Note_on_c, 3, 71, 53
17, 48635, Note_on_c, 3, 71, 0
17, 48635, Note_on_c, 3, 74, 0
17, 48660, Note_on_c, 3, 74, 55
17, 48660, Note_on_c, 3, 71, 55
17, 48720, Note_on_c, 3, 71, 0
17, 48720, Note_on_c, 3, 74, 0
17, 48720, Note_on_c, 3, 73, 57
17, 48720, Note_on_c, 3, 69, 57
17, 48755, Note_on_c, 3, 69, 0
17, 48755, Note_on_c, 3, 73, 0
17, 48780, Note_on_c, 3, 74, 59
17, 48780, Note_on_c, 3, 71, 59
17, 48840, Note_on_c, 3, 71, 0
17, 48840, Note_on_c, 3, 74, 0
17, 48840, Note_on_c, 3, 76, 61
17, 48840, Note_on_c, 3, 68, 61
17, 48875, Note_on_c, 3, 68, 0
17, 48875, Note_on_c, 3, 76, 0
17, 48900, Note_on_c, 3, 73, 63
17, 48900, Note_on_c, 3, 69, 63
17, 48935, Note_on_c, 3, 69, 0
17, 48935, Note_on_c, 3, 73, 0
17, 49020, Note_on_c, 3, 81, 68
17, 49020, Note_on_c, 3, 78, 68
17, 49055, Note_on_c, 3, 78, 0
17, 49055, Note_on_c, 3, 81, 0
17, 49140, Note_on_c, 3, 79, 72
17, 49140, Note_on_c, 3, 76, 72
17, 49175, Note_on_c, 3, 76, 0
17, 49175, Note_on_c, 3, 79, 0
17, 49260, Note_on_c, 3, 76, 76
17, 49260, Note_on_c, 3, 73, 76
17, 49295, Note_on_c, 3, 73, 0
17, 49295, Note_on_c, 3, 76, 0
17, 49380, Note_on_c, 3, 78, 80
17, 49380, Note_on_c, 3, 74, 80
17, 49415, Note_on_c, 3, 74, 0
17, 49415, Note_on_c, 3, 78, 0
17, 49620, Note_on_c, 3, 74, 81
17, 49620, Note_on_c, 3, 74, 81
17, 49980, Note_on_c, 3, 74, 0
17, 49980, Note_on_c, 3, 74, 0
17, 50040, Note_on_c, 3, 71, 83
17, 50040, Note_on_c, 3, 71, 83
17, 50075, Note_on_c, 3, 71, 0
17, 50075, Note_on_c, 3, 71, 0
17, 50100, Note_on_c, 3, 76, 84
17, 50100, Note_on_c, 3, 76, 84
17, 50700, Note_on_c, 3, 76, 0
17, 50700, Note_on_c, 3, 76, 0
17, 50760, Note_on_c, 3, 73, 87
17, 50760, Note_on_c, 3, 73, 87
17, 50795, Note_on_c, 3, 73, 0
17, 50795, Note_on_c, 3, 73, 0
17, 50820, Note_on_c, 3, 78, 88
17, 50820, Note_on_c, 3, 78, 88
17, 51360, Note_on_c, 3, 78, 0
17, 51360, Note_on_c, 3, 66, 81
17, 51420, Note_on_c, 3, 66, 0
17, 51420, Note_on_c, 3, 78, 0
17, 51420, Note_on_c, 3, 74, 81
17, 51480, Note_on_c, 3, 64, 82
17, 51600, Note_on_c, 3, 64, 0
17, 51600, Note_on_c, 3, 66, 84
17, 51635, Note_on_c, 3, 66, 0
17, 51660, Note_on_c, 3, 66, 84
17, 51720, Note_on_c, 3, 66, 0
17, 51720, Note_on_c, 3, 67, 85
17, 51755, Note_on_c, 3, 67, 0
17, 51780, Note_on_c, 3, 67, 86
17, 51840, Note_on_c, 3, 67, 0
17, 51840, Note_on_c, 3, 66, 86
17, 51875, Note_on_c, 3, 66, 0
17, 51900, Note_on_c, 3, 74, 0
17, 51900, Note_on_c, 3, 73, 87
17, 51900, Note_on_c, 3, 67, 87
17, 51960, Note_on_c, 3, 67, 0
17, 51960, Note_on_c, 3, 69, 88
17, 51995, Note_on_c, 3, 69, 0
17, 52020, Note_on_c, 3, 66, 89
17, 52080, Note_on_c, 3, 66, 0
17, 52080, Note_on_c, 3, 64, 89
17, 52115, Note_on_c, 3, 64, 0
17, 52140, Note_on_c, 3, 73, 0
17, 52140, Note_on_c, 3, 71, 90
17, 52140, Note_on_c, 3, 62, 90
17, 52200, Note_on_c, 3, 62, 0
17, 52200, Note_on_c, 3, 71, 0
17, 52200, Note_on_c, 3, 69, 91
17, 52200, Note_on_c, 3, 61, 91
17, 52235, Note_on_c, 3, 61, 0
17, 52260, Note_on_c, 3, 69, 0
17, 52260, Note_on_c, 3, 68, 91
17, 52260, Note_on_c, 3, 59, 91
17, 52320, Note_on_c, 3, 59, 0
17, 52320, Note_on_c, 3, 68, 0
17, 52320, Note_on_c, 3, 69, 92
17, 52320, Note_on_c, 3, 69, 92
17, 52350, Note_on_c, 3, 69, 0
17, 52350, Note_on_c, 3, 69, 0
17, 52350, Note_on_c, 3, 71, 93
17, 52350, Note_on_c, 3, 68, 93
17, 52380, Note_on_c, 3, 68, 0
17, 52380, Note_on_c, 3, 71, 0
17, 52380, Note_on_c, 3, 64, 93
17, 52380, Note_on_c, 3, 69, 93
17, 52440, Note_on_c, 3, 69, 0
17, 52440, Note_on_c, 3, 64, 0
17, 52440, Note_on_c, 3, 69, 94
17, 52440, Note_on_c, 3, 62, 94
17, 52500, Note_on_c, 3, 62, 0
17, 52500, Note_on_c, 3, 64, 94
17, 52560, Note_on_c, 3, 69, 0
17, 52560, Note_on_c, 3, 68, 95
17, 52590, Note_on_c, 3, 68, 0
17, 52590, Note_on_c, 3, 66, 95
17, 52620, Note_on_c, 3, 66, 0
17, 52620, Note_on_c, 3, 68, 96
17, 52740, Note_on_c, 3, 68, 0
17, 52740, Note_on_c, 3, 69, 97
17, 52775, Note_on_c, 3, 69, 0
17, 52800, Note_on_c, 3, 64, 0
17, 52800, Note_on_c, 3, 76, 98
17, 52800, Note_on_c, 3, 69, 98
17, 52860, Note_on_c, 3, 69, 0
17, 52860, Note_on_c, 3, 76, 0
17, 52860, Note_on_c, 3, 81, 99
17, 52860, Note_on_c, 3, 67, 99
17, 52890, Note_on_c, 3, 67, 0
17, 52890, Note_on_c, 3, 66, 99
17, 52920, Note_on_c, 3, 66, 0
17, 52920, Note_on_c, 3, 81, 0
17, 52920, Note_on_c, 3, 69, 99
17, 52920, Note_on_c, 3, 64, 99
17, 52950, Note_on_c, 3, 64, 0
17, 52950, Note_on_c, 3, 66, 100
17, 52980, Note_on_c, 3, 66, 0
17, 52980, Note_on_c, 3, 69, 0
17, 52980, Note_on_c, 3, 71, 100
17, 52980, Note_on_c, 3, 67, 100
17, 53040, Note_on_c, 3, 67, 0
17, 53040, Note_on_c, 3, 71, 0
17, 53040, Note_on_c, 3, 73, 101
17, 53040, Note_on_c, 3, 69, 101
17, 53070, Note_on_c, 3, 69, 0
17, 53070, Note_on_c, 3, 73, 0
17, 53070, Note_on_c, 3, 74, 101
17, 53070, Note_on_c, 3, 71, 101
17, 53100, Note_on_c, 3, 71, 0
17, 53100, Note_on_c, 3, 74, 0
17, 53100, Note_on_c, 3, 76, 101
17, 53100, Note_on_c, 3, 69, 101
17, 53160, Note_on_c, 3, 69, 0
17, 53160, Note_on_c, 3, 76, 0
17, 53160, Note_on_c, 3, 81, 102
17, 53160, Note_on_c, 3, 76, 102
17, 53280, Note_on_c, 3, 76, 0
17, 53280, Note_on_c, 3, 81, 0
17, 53280, Note_on_c, 3, 83, 104
17, 53280, Note_on_c, 3, 74, 104
17, 53315, Note_on_c, 3, 83, 0
17, 53340, Note_on_c, 3, 83, 104
17, 53400, Note_on_c, 3, 83, 0
17, 53400, Note_on_c, 3, 74, 0
17, 53400, Note_on_c, 3, 84, 105
17, 53400, Note_on_c, 3, 76, 105
17, 53435, Note_on_c, 3, 84, 0
17, 53460, Note_on_c, 3, 84, 106
17, 53520, Note_on_c, 3, 84, 0
17, 53520, Note_on_c, 3, 83, 106
17, 53550, Note_on_c, 3, 76, 0
17, 53550, Note_on_c, 3, 78, 107
17, 53555, Note_on_c, 3, 83, 0
17, 53580, Note_on_c, 3, 78, 0
17, 53580, Note_on_c, 3, 84, 107
17, 53580, Note_on_c, 3, 79, 107
17, 53595, Note_on_c, 3, 79, 0
17, 53595, Note_on_c, 3, 78, 107
17, 53610, Note_on_c, 3, 78, 0
17, 53610, Note_on_c, 3, 79, 108
17, 53625, Note_on_c, 3, 79, 0
17, 53625, Note_on_c, 3, 78, 108
17, 53640, Note_on_c, 3, 78, 0
17, 53640, Note_on_c, 3, 84, 0
17, 53640, Note_on_c, 3, 86, 108
17, 53640, Note_on_c, 3, 79, 108
17, 53655, Note_on_c, 3, 79, 0
17, 53655, Note_on_c, 3, 78, 108
17, 53670, Note_on_c, 3, 78, 0
17, 53670, Note_on_c, 3, 76, 108
17, 53675, Note_on_c, 3, 86, 0
17, 53685, Note_on_c, 3, 76, 0
17, 53685, Note_on_c, 3, 78, 108
17, 53700, Note_on_c, 3, 78, 0
17, 53700, Note_on_c, 3, 83, 109
17, 53700, Note_on_c, 3, 79, 109
17, 53760, Note_on_c, 3, 79, 0
17, 53760, Note_on_c, 3, 83, 0
17, 53760, Note_on_c, 3, 81, 109
17, 53760, Note_on_c, 3, 78, 109
17, 53820, Note_on_c, 3, 78, 0
17, 53820, Note_on_c, 3, 81, 0
17, 53820, Note_on_c, 3, 79, 110
17, 53820, Note_on_c, 3, 76, 110
17, 53880, Note_on_c, 3, 76, 0
17, 53880, Note_on_c, 3, 79, 0
17, 53880, Note_on_c, 3, 78, 111
17, 53880, Note_on_c, 3, 74, 111
17, 53940, Note_on_c, 3, 74, 0
17, 53940, Note_on_c, 3, 78, 0
17, 53940, Note_on_c, 3, 76, 111
17, 53940, Note_on_c, 3, 73, 111
17, 53975, Note_on_c, 3, 76, 0
17, 54000, Note_on_c, 3, 73, 0
17, 54000, Note_on_c, 3, 86, 112
17, 54000, Note_on_c, 3, 71, 112
17, 54030, Note_on_c, 3, 71, 0
17, 54030, Note_on_c, 3, 86, 0
17, 54030, Note_on_c, 3, 85, 113
17, 54030, Note_on_c, 3, 69, 113
17, 54060, Note_on_c, 3, 69, 0
17, 54060, Note_on_c, 3, 85, 0
17, 54060, Note_on_c, 3, 86, 113
17, 54060, Note_on_c, 3, 81, 113
17, 54095, Note_on_c, 3, 81, 0
17, 54095, Note_on_c, 3, 86, 0
17, 54120, Note_on_c, 3, 79, 114
17, 54120, Note_on_c, 3, 74, 114
17, 54155, Note_on_c, 3, 74, 0
17, 54155, Note_on_c, 3, 79, 0
17, 54180, Note_on_c, 3, 78, 114
17, 54180, Note_on_c, 3, 74, 114
17, 54300, Note_on_c, 3, 74, 0
17, 54300, Note_on_c, 3, 78, 0
17, 54300, Note_on_c, 3, 76, 116
17, 54300, Note_on_c, 3, 73, 116
17, 54420, Note_on_c, 3, 73, 0
17, 54420, Note_on_c, 3, 76, 0
17, 54420, Note_on_c, 3, 74, 117
17, 54420, Note_on_c, 3, 74, 117
17, 54660, Note_on_c, 3, 74, 0
17, 54660, Note_on_c, 3, 74, 0
17, 55140, End_track
0, 0, End_of_file
