0, 0, Header, 1, 3, 192
1, 0, Start_track
1, 0, Title_t, "Preludiul nr.1 in Do major, BWV 933"
1, 0, Copyright_t, "Copyright © 1999 by Gabriel Mihai Dragomir"
1, 0, Text_t, "Prelude in C major /Praeludium C-dur, BWV 933\012"
1, 0, Text_t, "By Johann Sebastian Bach (1685 - 1750)\012"
1, 0, Text_t, "Sequenced: 12 mai - 11 septembrie 1999, Bucuresti\012"
1, 0, Text_t, "by Gabriel Mihai Dragomir <gmd@k.ro>\012"
1, 0, Text_t, "http://gmd.iwarp.com\012"
1, 0, Text_t, "http://homestead.com/bachmidipage/files\012"
1, 0, Time_signature, 4, 2, 24, 8
1, 0, Key_signature, 0, "major"
1, 0, Tempo, 681818
1, 0, Marker_t, "Allegro"
1, 0, Marker_t, "A"
1, 6144, Marker_t, "A"
1, 12288, Marker_t, "B"
1, 18432, Marker_t, "B"
1, 18432, End_track
2, 0, Start_track
2, 0, MIDI_port, 0
2, 0, Title_t, "Right Hand"
2, 0, Program_c, 0, 0
2, 0, Control_c, 0, 7, 127
2, 0, Control_c, 0, 10, 63
2, 0, Note_on_c, 0, 55, 100
2, 0, Control_c, 0, 91, 63
2, 0, Control_c, 0, 93, 0
2, 0, Program_c, 0, 0
2, 0, Note_on_c, 0, 60, 105
2, 0, Note_on_c, 0, 64, 105
2, 22, Note_on_c, 0, 60, 0
2, 24, Note_on_c, 0, 59, 105
2, 46, Note_on_c, 0, 59, 0
2, 48, Note_on_c, 0, 60, 105
2, 160, Note_on_c, 0, 64, 0
2, 190, Note_on_c, 0, 60, 0
2, 192, Note_on_c, 0, 55, 0
2, 288, Note_on_c, 0, 62, 105
2, 288, Note_on_c, 0, 65, 105
2, 320, Note_on_c, 0, 65, 0
2, 320, Note_on_c, 0, 62, 0
2, 384, Note_on_c, 0, 60, 100
2, 384, Note_on_c, 0, 64, 105
2, 384, Note_on_c, 0, 67, 105
2, 406, Note_on_c, 0, 64, 0
2, 408, Note_on_c, 0, 62, 105
2, 430, Note_on_c, 0, 62, 0
2, 432, Note_on_c, 0, 64, 105
2, 544, Note_on_c, 0, 67, 0
2, 574, Note_on_c, 0, 64, 0
2, 576, Note_on_c, 0, 60, 0
2, 672, Note_on_c, 0, 64, 105
2, 672, Note_on_c, 0, 72, 105
2, 704, Note_on_c, 0, 72, 0
2, 704, Note_on_c, 0, 64, 0
2, 768, Note_on_c, 0, 62, 105
2, 768, Note_on_c, 0, 65, 105
2, 792, Note_on_c, 0, 65, 0
2, 792, Note_on_c, 0, 64, 105
2, 816, Note_on_c, 0, 64, 0
2, 816, Note_on_c, 0, 65, 105
2, 862, Note_on_c, 0, 65, 0
2, 862, Note_on_c, 0, 62, 0
2, 864, Note_on_c, 0, 62, 105
2, 864, Note_on_c, 0, 65, 105
2, 958, Note_on_c, 0, 65, 0
2, 958, Note_on_c, 0, 62, 0
2, 960, Note_on_c, 0, 74, 105
2, 1054, Note_on_c, 0, 74, 0
2, 1056, Note_on_c, 0, 62, 105
2, 1056, Note_on_c, 0, 65, 105
2, 1150, Note_on_c, 0, 65, 0
2, 1150, Note_on_c, 0, 62, 0
2, 1152, Note_on_c, 0, 62, 127
2, 1152, Note_on_c, 0, 65, 127
2, 1248, Note_on_c, 0, 65, 0
2, 1248, Note_on_c, 0, 62, 0
2, 1248, Note_on_c, 0, 60, 105
2, 1248, Note_on_c, 0, 64, 105
2, 1342, Note_on_c, 0, 64, 0
2, 1342, Note_on_c, 0, 60, 0
2, 1536, Note_on_c, 0, 59, 105
2, 1536, Note_on_c, 0, 62, 105
2, 1560, Note_on_c, 0, 62, 0
2, 1560, Note_on_c, 0, 60, 105
2, 1584, Note_on_c, 0, 60, 0
2, 1584, Note_on_c, 0, 62, 105
2, 1696, Note_on_c, 0, 59, 0
2, 1728, Note_on_c, 0, 62, 0
2, 1824, Note_on_c, 0, 60, 105
2, 1824, Note_on_c, 0, 64, 105
2, 1856, Note_on_c, 0, 64, 0
2, 1856, Note_on_c, 0, 60, 0
2, 1920, Note_on_c, 0, 62, 105
2, 1920, Note_on_c, 0, 65, 105
2, 2112, Note_on_c, 0, 65, 0
2, 2112, Note_on_c, 0, 62, 0
2, 2208, Note_on_c, 0, 62, 105
2, 2208, Note_on_c, 0, 65, 105
2, 2240, Note_on_c, 0, 65, 0
2, 2240, Note_on_c, 0, 62, 0
2, 2304, Note_on_c, 0, 60, 105
2, 2304, Note_on_c, 0, 64, 105
2, 2336, Note_on_c, 0, 64, 0
2, 2336, Note_on_c, 0, 60, 0
2, 2400, Note_on_c, 0, 64, 105
2, 2400, Note_on_c, 0, 67, 105
2, 2432, Note_on_c, 0, 67, 0
2, 2432, Note_on_c, 0, 64, 0
2, 2496, Note_on_c, 0, 60, 105
2, 2496, Note_on_c, 0, 67, 105
2, 2542, Note_on_c, 0, 67, 0
2, 2544, Note_on_c, 0, 65, 105
2, 2590, Note_on_c, 0, 65, 0
2, 2590, Note_on_c, 0, 60, 0
2, 2592, Note_on_c, 0, 60, 105
2, 2592, Note_on_c, 0, 67, 105
2, 2638, Note_on_c, 0, 67, 0
2, 2640, Note_on_c, 0, 69, 105
2, 2686, Note_on_c, 0, 69, 0
2, 2686, Note_on_c, 0, 60, 0
2, 2688, Note_on_c, 0, 60, 105
2, 2688, Note_on_c, 0, 64, 105
2, 2782, Note_on_c, 0, 64, 0
2, 2782, Note_on_c, 0, 60, 0
2, 2784, Note_on_c, 0, 59, 105
2, 2784, Note_on_c, 0, 62, 105
2, 2796, Note_on_c, 0, 62, 0
2, 2796, Note_on_c, 0, 64, 105
2, 2808, Note_on_c, 0, 64, 0
2, 2808, Note_on_c, 0, 62, 105
2, 2820, Note_on_c, 0, 62, 0
2, 2820, Note_on_c, 0, 60, 105
2, 2832, Note_on_c, 0, 60, 0
2, 2832, Note_on_c, 0, 62, 105
2, 2878, Note_on_c, 0, 62, 0
2, 2878, Note_on_c, 0, 59, 0
2, 2928, Note_on_c, 0, 67, 63
2, 2976, Note_on_c, 0, 67, 0
2, 2976, Note_on_c, 0, 71, 63
2, 3024, Note_on_c, 0, 71, 0
2, 3024, Note_on_c, 0, 74, 63
2, 3072, Note_on_c, 0, 74, 0
2, 3072, Note_on_c, 0, 76, 63
2, 3120, Note_on_c, 0, 76, 0
2, 3120, Note_on_c, 0, 74, 63
2, 3168, Note_on_c, 0, 74, 0
2, 3168, Note_on_c, 0, 72, 63
2, 3216, Note_on_c, 0, 72, 0
2, 3216, Note_on_c, 0, 71, 63
2, 3264, Note_on_c, 0, 71, 0
2, 3264, Note_on_c, 0, 69, 63
2, 3312, Note_on_c, 0, 69, 0
2, 3312, Note_on_c, 0, 67, 63
2, 3360, Note_on_c, 0, 67, 0
2, 3360, Note_on_c, 0, 66, 63
2, 3408, Note_on_c, 0, 66, 0
2, 3408, Note_on_c, 0, 64, 63
2, 3456, Note_on_c, 0, 64, 0
2, 3456, Note_on_c, 0, 66, 63
2, 3504, Note_on_c, 0, 66, 0
2, 3504, Note_on_c, 0, 62, 63
2, 3552, Note_on_c, 0, 62, 0
2, 3552, Note_on_c, 0, 66, 63
2, 3600, Note_on_c, 0, 66, 0
2, 3600, Note_on_c, 0, 69, 63
2, 3648, Note_on_c, 0, 69, 0
2, 3648, Note_on_c, 0, 66, 63
2, 3696, Note_on_c, 0, 66, 0
2, 3696, Note_on_c, 0, 62, 63
2, 3744, Note_on_c, 0, 62, 0
2, 3744, Note_on_c, 0, 66, 63
2, 3792, Note_on_c, 0, 66, 0
2, 3792, Note_on_c, 0, 69, 63
2, 3840, Note_on_c, 0, 69, 0
2, 3840, Note_on_c, 0, 74, 63
2, 3888, Note_on_c, 0, 74, 0
2, 3888, Note_on_c, 0, 72, 63
2, 3936, Note_on_c, 0, 72, 0
2, 3936, Note_on_c, 0, 71, 63
2, 3984, Note_on_c, 0, 71, 0
2, 3984, Note_on_c, 0, 69, 63
2, 4032, Note_on_c, 0, 69, 0
2, 4032, Note_on_c, 0, 67, 63
2, 4080, Note_on_c, 0, 67, 0
2, 4080, Note_on_c, 0, 66, 63
2, 4128, Note_on_c, 0, 66, 0
2, 4128, Note_on_c, 0, 64, 63
2, 4176, Note_on_c, 0, 64, 0
2, 4176, Note_on_c, 0, 62, 63
2, 4224, Note_on_c, 0, 62, 0
2, 4224, Note_on_c, 0, 64, 63
2, 4272, Note_on_c, 0, 64, 0
2, 4272, Note_on_c, 0, 60, 63
2, 4320, Note_on_c, 0, 60, 0
2, 4320, Note_on_c, 0, 64, 63
2, 4368, Note_on_c, 0, 64, 0
2, 4368, Note_on_c, 0, 67, 63
2, 4416, Note_on_c, 0, 67, 0
2, 4416, Note_on_c, 0, 64, 63
2, 4464, Note_on_c, 0, 64, 0
2, 4464, Note_on_c, 0, 60, 63
2, 4512, Note_on_c, 0, 60, 0
2, 4512, Note_on_c, 0, 64, 63
2, 4560, Note_on_c, 0, 64, 0
2, 4560, Note_on_c, 0, 67, 63
2, 4608, Note_on_c, 0, 67, 0
2, 4608, Note_on_c, 0, 72, 63
2, 4656, Note_on_c, 0, 72, 0
2, 4656, Note_on_c, 0, 71, 65
2, 4704, Note_on_c, 0, 71, 0
2, 4704, Note_on_c, 0, 69, 67
2, 4752, Note_on_c, 0, 69, 0
2, 4752, Note_on_c, 0, 67, 69
2, 4800, Note_on_c, 0, 67, 0
2, 4800, Note_on_c, 0, 66, 71
2, 4848, Note_on_c, 0, 66, 0
2, 4848, Note_on_c, 0, 67, 73
2, 4896, Note_on_c, 0, 67, 0
2, 4896, Note_on_c, 0, 69, 75
2, 4944, Note_on_c, 0, 69, 0
2, 4944, Note_on_c, 0, 66, 78
2, 4992, Note_on_c, 0, 66, 0
2, 4992, Note_on_c, 0, 62, 81
2, 5040, Note_on_c, 0, 62, 0
2, 5040, Note_on_c, 0, 64, 84
2, 5088, Note_on_c, 0, 64, 0
2, 5088, Note_on_c, 0, 66, 87
2, 5136, Note_on_c, 0, 66, 0
2, 5136, Note_on_c, 0, 67, 90
2, 5184, Note_on_c, 0, 67, 0
2, 5184, Note_on_c, 0, 69, 93
2, 5232, Note_on_c, 0, 69, 0
2, 5232, Note_on_c, 0, 71, 96
2, 5280, Note_on_c, 0, 71, 0
2, 5280, Note_on_c, 0, 72, 99
2, 5328, Note_on_c, 0, 72, 0
2, 5328, Note_on_c, 0, 69, 102
2, 5376, Note_on_c, 0, 69, 0
2, 5376, Note_on_c, 0, 74, 105
2, 5408, Note_on_c, 0, 74, 0
2, 5472, Note_on_c, 0, 67, 105
2, 5504, Note_on_c, 0, 67, 0
2, 5568, Note_on_c, 0, 71, 105
2, 5616, Note_on_c, 0, 71, 0
2, 5616, Note_on_c, 0, 69, 105
2, 5664, Note_on_c, 0, 69, 0
2, 5664, Note_on_c, 0, 67, 105
2, 5712, Note_on_c, 0, 67, 0
2, 5712, Note_on_c, 0, 66, 105
2, 5760, Note_on_c, 0, 66, 0
2, 5760, Note_on_c, 0, 67, 105
2, 5808, Note_on_c, 0, 67, 0
2, 5808, Note_on_c, 0, 62, 105
2, 5856, Note_on_c, 0, 62, 0
2, 5856, Note_on_c, 0, 59, 105
2, 5950, Note_on_c, 0, 59, 0
2, 6144, Note_on_c, 0, 55, 100
2, 6144, Note_on_c, 0, 60, 105
2, 6144, Note_on_c, 0, 64, 105
2, 6166, Note_on_c, 0, 60, 0
2, 6168, Note_on_c, 0, 59, 105
2, 6190, Note_on_c, 0, 59, 0
2, 6192, Note_on_c, 0, 60, 105
2, 6304, Note_on_c, 0, 64, 0
2, 6334, Note_on_c, 0, 60, 0
2, 6336, Note_on_c, 0, 55, 0
2, 6432, Note_on_c, 0, 62, 105
2, 6432, Note_on_c, 0, 65, 105
2, 6464, Note_on_c, 0, 65, 0
2, 6464, Note_on_c, 0, 62, 0
2, 6528, Note_on_c, 0, 60, 100
2, 6528, Note_on_c, 0, 64, 105
2, 6528, Note_on_c, 0, 67, 105
2, 6550, Note_on_c, 0, 64, 0
2, 6552, Note_on_c, 0, 62, 105
2, 6574, Note_on_c, 0, 62, 0
2, 6576, Note_on_c, 0, 64, 105
2, 6688, Note_on_c, 0, 67, 0
2, 6718, Note_on_c, 0, 64, 0
2, 6720, Note_on_c, 0, 60, 0
2, 6816, Note_on_c, 0, 64, 105
2, 6816, Note_on_c, 0, 72, 105
2, 6848, Note_on_c, 0, 72, 0
2, 6848, Note_on_c, 0, 64, 0
2, 6912, Note_on_c, 0, 62, 105
2, 6912, Note_on_c, 0, 65, 105
2, 6936, Note_on_c, 0, 65, 0
2, 6936, Note_on_c, 0, 64, 105
2, 6960, Note_on_c, 0, 64, 0
2, 6960, Note_on_c, 0, 65, 105
2, 7006, Note_on_c, 0, 65, 0
2, 7006, Note_on_c, 0, 62, 0
2, 7008, Note_on_c, 0, 62, 105
2, 7008, Note_on_c, 0, 65, 105
2, 7102, Note_on_c, 0, 65, 0
2, 7102, Note_on_c, 0, 62, 0
2, 7104, Note_on_c, 0, 74, 105
2, 7198, Note_on_c, 0, 74, 0
2, 7200, Note_on_c, 0, 62, 105
2, 7200, Note_on_c, 0, 65, 105
2, 7294, Note_on_c, 0, 65, 0
2, 7294, Note_on_c, 0, 62, 0
2, 7296, Note_on_c, 0, 62, 127
2, 7296, Note_on_c, 0, 65, 127
2, 7392, Note_on_c, 0, 65, 0
2, 7392, Note_on_c, 0, 62, 0
2, 7392, Note_on_c, 0, 60, 105
2, 7392, Note_on_c, 0, 64, 105
2, 7486, Note_on_c, 0, 64, 0
2, 7486, Note_on_c, 0, 60, 0
2, 7680, Note_on_c, 0, 59, 105
2, 7680, Note_on_c, 0, 62, 105
2, 7704, Note_on_c, 0, 62, 0
2, 7704, Note_on_c, 0, 60, 105
2, 7728, Note_on_c, 0, 60, 0
2, 7728, Note_on_c, 0, 62, 105
2, 7840, Note_on_c, 0, 59, 0
2, 7872, Note_on_c, 0, 62, 0
2, 7968, Note_on_c, 0, 60, 105
2, 7968, Note_on_c, 0, 64, 105
2, 8000, Note_on_c, 0, 64, 0
2, 8000, Note_on_c, 0, 60, 0
2, 8064, Note_on_c, 0, 62, 105
2, 8064, Note_on_c, 0, 65, 105
2, 8256, Note_on_c, 0, 65, 0
2, 8256, Note_on_c, 0, 62, 0
2, 8352, Note_on_c, 0, 62, 105
2, 8352, Note_on_c, 0, 65, 105
2, 8384, Note_on_c, 0, 65, 0
2, 8384, Note_on_c, 0, 62, 0
2, 8448, Note_on_c, 0, 60, 105
2, 8448, Note_on_c, 0, 64, 105
2, 8480, Note_on_c, 0, 64, 0
2, 8480, Note_on_c, 0, 60, 0
2, 8544, Note_on_c, 0, 64, 105
2, 8544, Note_on_c, 0, 67, 105
2, 8576, Note_on_c, 0, 67, 0
2, 8576, Note_on_c, 0, 64, 0
2, 8640, Note_on_c, 0, 60, 105
2, 8640, Note_on_c, 0, 67, 105
2, 8686, Note_on_c, 0, 67, 0
2, 8688, Note_on_c, 0, 65, 105
2, 8734, Note_on_c, 0, 65, 0
2, 8734, Note_on_c, 0, 60, 0
2, 8736, Note_on_c, 0, 60, 105
2, 8736, Note_on_c, 0, 67, 105
2, 8782, Note_on_c, 0, 67, 0
2, 8784, Note_on_c, 0, 69, 105
2, 8830, Note_on_c, 0, 69, 0
2, 8830, Note_on_c, 0, 60, 0
2, 8832, Note_on_c, 0, 60, 105
2, 8832, Note_on_c, 0, 64, 105
2, 8926, Note_on_c, 0, 64, 0
2, 8926, Note_on_c, 0, 60, 0
2, 8928, Note_on_c, 0, 59, 105
2, 8928, Note_on_c, 0, 62, 105
2, 8940, Note_on_c, 0, 62, 0
2, 8940, Note_on_c, 0, 64, 105
2, 8952, Note_on_c, 0, 64, 0
2, 8952, Note_on_c, 0, 62, 105
2, 8964, Note_on_c, 0, 62, 0
2, 8964, Note_on_c, 0, 60, 105
2, 8976, Note_on_c, 0, 60, 0
2, 8976, Note_on_c, 0, 62, 105
2, 9022, Note_on_c, 0, 62, 0
2, 9022, Note_on_c, 0, 59, 0
2, 9072, Note_on_c, 0, 67, 63
2, 9120, Note_on_c, 0, 67, 0
2, 9120, Note_on_c, 0, 71, 63
2, 9168, Note_on_c, 0, 71, 0
2, 9168, Note_on_c, 0, 74, 63
2, 9216, Note_on_c, 0, 74, 0
2, 9216, Note_on_c, 0, 76, 63
2, 9264, Note_on_c, 0, 76, 0
2, 9264, Note_on_c, 0, 74, 63
2, 9312, Note_on_c, 0, 74, 0
2, 9312, Note_on_c, 0, 72, 63
2, 9360, Note_on_c, 0, 72, 0
2, 9360, Note_on_c, 0, 71, 63
2, 9408, Note_on_c, 0, 71, 0
2, 9408, Note_on_c, 0, 69, 63
2, 9456, Note_on_c, 0, 69, 0
2, 9456, Note_on_c, 0, 67, 63
2, 9504, Note_on_c, 0, 67, 0
2, 9504, Note_on_c, 0, 66, 63
2, 9552, Note_on_c, 0, 66, 0
2, 9552, Note_on_c, 0, 64, 63
2, 9600, Note_on_c, 0, 64, 0
2, 9600, Note_on_c, 0, 66, 63
2, 9648, Note_on_c, 0, 66, 0
2, 9648, Note_on_c, 0, 62, 63
2, 9696, Note_on_c, 0, 62, 0
2, 9696, Note_on_c, 0, 66, 63
2, 9744, Note_on_c, 0, 66, 0
2, 9744, Note_on_c, 0, 69, 63
2, 9792, Note_on_c, 0, 69, 0
2, 9792, Note_on_c, 0, 66, 63
2, 9840, Note_on_c, 0, 66, 0
2, 9840, Note_on_c, 0, 62, 63
2, 9888, Note_on_c, 0, 62, 0
2, 9888, Note_on_c, 0, 66, 63
2, 9936, Note_on_c, 0, 66, 0
2, 9936, Note_on_c, 0, 69, 63
2, 9984, Note_on_c, 0, 69, 0
2, 9984, Note_on_c, 0, 74, 63
2, 10032, Note_on_c, 0, 74, 0
2, 10032, Note_on_c, 0, 72, 63
2, 10080, Note_on_c, 0, 72, 0
2, 10080, Note_on_c, 0, 71, 63
2, 10128, Note_on_c, 0, 71, 0
2, 10128, Note_on_c, 0, 69, 63
2, 10176, Note_on_c, 0, 69, 0
2, 10176, Note_on_c, 0, 67, 63
2, 10224, Note_on_c, 0, 67, 0
2, 10224, Note_on_c, 0, 66, 63
2, 10272, Note_on_c, 0, 66, 0
2, 10272, Note_on_c, 0, 64, 63
2, 10320, Note_on_c, 0, 64, 0
2, 10320, Note_on_c, 0, 62, 63
2, 10368, Note_on_c, 0, 62, 0
2, 10368, Note_on_c, 0, 64, 63
2, 10416, Note_on_c, 0, 64, 0
2, 10416, Note_on_c, 0, 60, 63
2, 10464, Note_on_c, 0, 60, 0
2, 10464, Note_on_c, 0, 64, 63
2, 10512, Note_on_c, 0, 64, 0
2, 10512, Note_on_c, 0, 67, 63
2, 10560, Note_on_c, 0, 67, 0
2, 10560, Note_on_c, 0, 64, 63
2, 10608, Note_on_c, 0, 64, 0
2, 10608, Note_on_c, 0, 60, 63
2, 10656, Note_on_c, 0, 60, 0
2, 10656, Note_on_c, 0, 64, 63
2, 10704, Note_on_c, 0, 64, 0
2, 10704, Note_on_c, 0, 67, 63
2, 10752, Note_on_c, 0, 67, 0
2, 10752, Note_on_c, 0, 72, 63
2, 10800, Note_on_c, 0, 72, 0
2, 10800, Note_on_c, 0, 71, 65
2, 10848, Note_on_c, 0, 71, 0
2, 10848, Note_on_c, 0, 69, 67
2, 10896, Note_on_c, 0, 69, 0
2, 10896, Note_on_c, 0, 67, 69
2, 10944, Note_on_c, 0, 67, 0
2, 10944, Note_on_c, 0, 66, 71
2, 10992, Note_on_c, 0, 66, 0
2, 10992, Note_on_c, 0, 67, 73
2, 11040, Note_on_c, 0, 67, 0
2, 11040, Note_on_c, 0, 69, 75
2, 11088, Note_on_c, 0, 69, 0
2, 11088, Note_on_c, 0, 66, 78
2, 11136, Note_on_c, 0, 66, 0
2, 11136, Note_on_c, 0, 62, 81
2, 11184, Note_on_c, 0, 62, 0
2, 11184, Note_on_c, 0, 64, 84
2, 11232, Note_on_c, 0, 64, 0
2, 11232, Note_on_c, 0, 66, 87
2, 11280, Note_on_c, 0, 66, 0
2, 11280, Note_on_c, 0, 67, 90
2, 11328, Note_on_c, 0, 67, 0
2, 11328, Note_on_c, 0, 69, 93
2, 11376, Note_on_c, 0, 69, 0
2, 11376, Note_on_c, 0, 71, 96
2, 11424, Note_on_c, 0, 71, 0
2, 11424, Note_on_c, 0, 72, 99
2, 11472, Note_on_c, 0, 72, 0
2, 11472, Note_on_c, 0, 69, 102
2, 11520, Note_on_c, 0, 69, 0
2, 11520, Note_on_c, 0, 74, 105
2, 11552, Note_on_c, 0, 74, 0
2, 11616, Note_on_c, 0, 67, 105
2, 11648, Note_on_c, 0, 67, 0
2, 11712, Note_on_c, 0, 71, 105
2, 11760, Note_on_c, 0, 71, 0
2, 11760, Note_on_c, 0, 69, 105
2, 11808, Note_on_c, 0, 69, 0
2, 11808, Note_on_c, 0, 67, 105
2, 11856, Note_on_c, 0, 67, 0
2, 11856, Note_on_c, 0, 66, 105
2, 11904, Note_on_c, 0, 66, 0
2, 11904, Note_on_c, 0, 67, 105
2, 11952, Note_on_c, 0, 67, 0
2, 11952, Note_on_c, 0, 62, 105
2, 12000, Note_on_c, 0, 62, 0
2, 12000, Note_on_c, 0, 59, 105
2, 12094, Note_on_c, 0, 59, 0
2, 12288, Note_on_c, 0, 62, 100
2, 12288, Note_on_c, 0, 67, 105
2, 12288, Note_on_c, 0, 71, 105
2, 12310, Note_on_c, 0, 67, 0
2, 12312, Note_on_c, 0, 66, 105
2, 12334, Note_on_c, 0, 66, 0
2, 12336, Note_on_c, 0, 67, 105
2, 12448, Note_on_c, 0, 71, 0
2, 12478, Note_on_c, 0, 67, 0
2, 12480, Note_on_c, 0, 62, 0
2, 12576, Note_on_c, 0, 69, 105
2, 12576, Note_on_c, 0, 72, 105
2, 12608, Note_on_c, 0, 72, 0
2, 12608, Note_on_c, 0, 69, 0
2, 12672, Note_on_c, 0, 67, 105
2, 12672, Note_on_c, 0, 71, 105
2, 12672, Note_on_c, 0, 74, 105
2, 12694, Note_on_c, 0, 71, 0
2, 12696, Note_on_c, 0, 69, 105
2, 12718, Note_on_c, 0, 69, 0
2, 12720, Note_on_c, 0, 71, 105
2, 12816, Note_on_c, 0, 67, 0
2, 12832, Note_on_c, 0, 74, 0
2, 12862, Note_on_c, 0, 71, 0
2, 12960, Note_on_c, 0, 72, 105
2, 12960, Note_on_c, 0, 76, 105
2, 12992, Note_on_c, 0, 76, 0
2, 12992, Note_on_c, 0, 72, 0
2, 13056, Note_on_c, 0, 74, 105
2, 13056, Note_on_c, 0, 77, 105
2, 13150, Note_on_c, 0, 77, 0
2, 13150, Note_on_c, 0, 74, 0
2, 13152, Note_on_c, 0, 74, 105
2, 13152, Note_on_c, 0, 77, 105
2, 13246, Note_on_c, 0, 77, 0
2, 13246, Note_on_c, 0, 74, 0
2, 13248, Note_on_c, 0, 74, 105
2, 13248, Note_on_c, 0, 77, 105
2, 13280, Note_on_c, 0, 77, 0
2, 13280, Note_on_c, 0, 74, 0
2, 13344, Note_on_c, 0, 72, 105
2, 13344, Note_on_c, 0, 76, 105
2, 13376, Note_on_c, 0, 76, 0
2, 13376, Note_on_c, 0, 72, 0
2, 13440, Note_on_c, 0, 71, 127
2, 13440, Note_on_c, 0, 74, 127
2, 13536, Note_on_c, 0, 74, 0
2, 13536, Note_on_c, 0, 71, 0
2, 13536, Note_on_c, 0, 69, 105
2, 13536, Note_on_c, 0, 72, 105
2, 13630, Note_on_c, 0, 72, 0
2, 13630, Note_on_c, 0, 69, 0
2, 13824, Note_on_c, 0, 67, 105
2, 13824, Note_on_c, 0, 72, 105
2, 13824, Note_on_c, 0, 79, 105
2, 13984, Note_on_c, 0, 79, 0
2, 13984, Note_on_c, 0, 72, 0
2, 13984, Note_on_c, 0, 67, 0
2, 14112, Note_on_c, 0, 67, 105
2, 14112, Note_on_c, 0, 70, 105
2, 14144, Note_on_c, 0, 70, 0
2, 14144, Note_on_c, 0, 67, 0
2, 14208, Note_on_c, 0, 65, 105
2, 14208, Note_on_c, 0, 69, 105
2, 14232, Note_on_c, 0, 69, 0
2, 14232, Note_on_c, 0, 67, 105
2, 14256, Note_on_c, 0, 67, 0
2, 14256, Note_on_c, 0, 69, 105
2, 14368, Note_on_c, 0, 65, 0
2, 14398, Note_on_c, 0, 69, 0
2, 14496, Note_on_c, 0, 72, 105
2, 14496, Note_on_c, 0, 81, 105
2, 14528, Note_on_c, 0, 81, 0
2, 14528, Note_on_c, 0, 72, 0
2, 14592, Note_on_c, 0, 77, 105
2, 14592, Note_on_c, 0, 83, 105
2, 14624, Note_on_c, 0, 83, 0
2, 14624, Note_on_c, 0, 77, 0
2, 14688, Note_on_c, 0, 76, 105
2, 14688, Note_on_c, 0, 84, 105
2, 14720, Note_on_c, 0, 84, 0
2, 14720, Note_on_c, 0, 76, 0
2, 14784, Note_on_c, 0, 74, 105
2, 14784, Note_on_c, 0, 77, 105
2, 14816, Note_on_c, 0, 77, 0
2, 14816, Note_on_c, 0, 74, 0
2, 14880, Note_on_c, 0, 72, 105
2, 14880, Note_on_c, 0, 76, 105
2, 14912, Note_on_c, 0, 76, 0
2, 14912, Note_on_c, 0, 72, 0
2, 14976, Note_on_c, 0, 72, 105
2, 14976, Note_on_c, 0, 77, 105
2, 14998, Note_on_c, 0, 77, 0
2, 15000, Note_on_c, 0, 76, 105
2, 15070, Note_on_c, 0, 76, 0
2, 15070, Note_on_c, 0, 72, 0
2, 15072, Note_on_c, 0, 71, 105
2, 15072, Note_on_c, 0, 74, 105
2, 15166, Note_on_c, 0, 74, 0
2, 15166, Note_on_c, 0, 71, 0
2, 15216, Note_on_c, 0, 67, 63
2, 15264, Note_on_c, 0, 67, 0
2, 15264, Note_on_c, 0, 71, 63
2, 15312, Note_on_c, 0, 71, 0
2, 15312, Note_on_c, 0, 74, 63
2, 15360, Note_on_c, 0, 74, 0
2, 15360, Note_on_c, 0, 79, 63
2, 15408, Note_on_c, 0, 79, 0
2, 15408, Note_on_c, 0, 77, 63
2, 15456, Note_on_c, 0, 77, 0
2, 15456, Note_on_c, 0, 76, 63
2, 15504, Note_on_c, 0, 76, 0
2, 15504, Note_on_c, 0, 74, 63
2, 15552, Note_on_c, 0, 74, 0
2, 15552, Note_on_c, 0, 72, 63
2, 15600, Note_on_c, 0, 72, 0
2, 15600, Note_on_c, 0, 70, 63
2, 15648, Note_on_c, 0, 70, 0
2, 15648, Note_on_c, 0, 69, 63
2, 15696, Note_on_c, 0, 69, 0
2, 15696, Note_on_c, 0, 67, 63
2, 15744, Note_on_c, 0, 67, 0
2, 15744, Note_on_c, 0, 69, 63
2, 15792, Note_on_c, 0, 69, 0
2, 15792, Note_on_c, 0, 65, 63
2, 15840, Note_on_c, 0, 65, 0
2, 15840, Note_on_c, 0, 69, 63
2, 15888, Note_on_c, 0, 69, 0
2, 15888, Note_on_c, 0, 72, 63
2, 15936, Note_on_c, 0, 72, 0
2, 15936, Note_on_c, 0, 69, 63
2, 15984, Note_on_c, 0, 69, 0
2, 15984, Note_on_c, 0, 65, 63
2, 16032, Note_on_c, 0, 65, 0
2, 16032, Note_on_c, 0, 69, 63
2, 16080, Note_on_c, 0, 69, 0
2, 16080, Note_on_c, 0, 72, 63
2, 16128, Note_on_c, 0, 72, 0
2, 16128, Note_on_c, 0, 77, 63
2, 16176, Note_on_c, 0, 77, 0
2, 16176, Note_on_c, 0, 76, 63
2, 16224, Note_on_c, 0, 76, 0
2, 16224, Note_on_c, 0, 74, 63
2, 16272, Note_on_c, 0, 74, 0
2, 16272, Note_on_c, 0, 72, 63
2, 16320, Note_on_c, 0, 72, 0
2, 16320, Note_on_c, 0, 71, 63
2, 16368, Note_on_c, 0, 71, 0
2, 16368, Note_on_c, 0, 69, 63
2, 16416, Note_on_c, 0, 69, 0
2, 16416, Note_on_c, 0, 67, 63
2, 16464, Note_on_c, 0, 67, 0
2, 16464, Note_on_c, 0, 65, 63
2, 16512, Note_on_c, 0, 65, 0
2, 16512, Note_on_c, 0, 67, 63
2, 16560, Note_on_c, 0, 67, 0
2, 16560, Note_on_c, 0, 65, 63
2, 16608, Note_on_c, 0, 65, 0
2, 16608, Note_on_c, 0, 67, 63
2, 16656, Note_on_c, 0, 67, 0
2, 16656, Note_on_c, 0, 74, 63
2, 16704, Note_on_c, 0, 74, 0
2, 16704, Note_on_c, 0, 67, 63
2, 16752, Note_on_c, 0, 67, 0
2, 16752, Note_on_c, 0, 65, 63
2, 16800, Note_on_c, 0, 65, 0
2, 16800, Note_on_c, 0, 67, 63
2, 16848, Note_on_c, 0, 67, 0
2, 16848, Note_on_c, 0, 74, 63
2, 16896, Note_on_c, 0, 74, 0
2, 16896, Note_on_c, 0, 76, 63
2, 16944, Note_on_c, 0, 76, 0
2, 16944, Note_on_c, 0, 74, 65
2, 16992, Note_on_c, 0, 74, 0
2, 16992, Note_on_c, 0, 72, 67
2, 17040, Note_on_c, 0, 72, 0
2, 17040, Note_on_c, 0, 71, 69
2, 17088, Note_on_c, 0, 71, 0
2, 17088, Note_on_c, 0, 69, 71
2, 17136, Note_on_c, 0, 69, 0
2, 17136, Note_on_c, 0, 67, 73
2, 17184, Note_on_c, 0, 67, 0
2, 17184, Note_on_c, 0, 65, 75
2, 17232, Note_on_c, 0, 65, 0
2, 17232, Note_on_c, 0, 64, 78
2, 17280, Note_on_c, 0, 64, 0
2, 17280, Note_on_c, 0, 62, 81
2, 17328, Note_on_c, 0, 62, 0
2, 17328, Note_on_c, 0, 65, 84
2, 17376, Note_on_c, 0, 65, 0
2, 17376, Note_on_c, 0, 69, 87
2, 17424, Note_on_c, 0, 69, 0
2, 17424, Note_on_c, 0, 72, 90
2, 17472, Note_on_c, 0, 72, 0
2, 17472, Note_on_c, 0, 71, 93
2, 17520, Note_on_c, 0, 71, 0
2, 17520, Note_on_c, 0, 67, 96
2, 17568, Note_on_c, 0, 67, 0
2, 17568, Note_on_c, 0, 71, 99
2, 17616, Note_on_c, 0, 71, 0
2, 17616, Note_on_c, 0, 74, 102
2, 17664, Note_on_c, 0, 74, 0
2, 17664, Note_on_c, 0, 79, 105
2, 17696, Note_on_c, 0, 79, 0
2, 17760, Note_on_c, 0, 72, 105
2, 17792, Note_on_c, 0, 72, 0
2, 17856, Note_on_c, 0, 76, 105
2, 17904, Note_on_c, 0, 76, 0
2, 17904, Note_on_c, 0, 74, 105
2, 17952, Note_on_c, 0, 74, 0
2, 17952, Note_on_c, 0, 72, 105
2, 18000, Note_on_c, 0, 72, 0
2, 18000, Note_on_c, 0, 71, 105
2, 18048, Note_on_c, 0, 71, 0
2, 18048, Note_on_c, 0, 72, 105
2, 18096, Note_on_c, 0, 72, 0
2, 18096, Note_on_c, 0, 67, 105
2, 18144, Note_on_c, 0, 67, 0
2, 18144, Note_on_c, 0, 64, 105
2, 18192, Note_on_c, 0, 64, 0
2, 18192, Note_on_c, 0, 60, 105
2, 18238, Note_on_c, 0, 60, 0
2, 18432, Note_on_c, 0, 62, 100
2, 18432, Note_on_c, 0, 67, 105
2, 18432, Note_on_c, 0, 71, 105
2, 18454, Note_on_c, 0, 67, 0
2, 18456, Note_on_c, 0, 66, 105
2, 18478, Note_on_c, 0, 66, 0
2, 18480, Note_on_c, 0, 67, 105
2, 18592, Note_on_c, 0, 71, 0
2, 18622, Note_on_c, 0, 67, 0
2, 18624, Note_on_c, 0, 62, 0
2, 18720, Note_on_c, 0, 69, 105
2, 18720, Note_on_c, 0, 72, 105
2, 18752, Note_on_c, 0, 72, 0
2, 18752, Note_on_c, 0, 69, 0
2, 18816, Note_on_c, 0, 67, 100
2, 18816, Note_on_c, 0, 71, 105
2, 18816, Note_on_c, 0, 74, 105
2, 18838, Note_on_c, 0, 71, 0
2, 18840, Note_on_c, 0, 69, 105
2, 18862, Note_on_c, 0, 69, 0
2, 18864, Note_on_c, 0, 71, 105
2, 18976, Note_on_c, 0, 74, 0
2, 19006, Note_on_c, 0, 71, 0
2, 19008, Note_on_c, 0, 67, 0
2, 19104, Note_on_c, 0, 72, 105
2, 19104, Note_on_c, 0, 76, 105
2, 19136, Note_on_c, 0, 76, 0
2, 19136, Note_on_c, 0, 72, 0
2, 19200, Note_on_c, 0, 74, 105
2, 19200, Note_on_c, 0, 77, 105
2, 19294, Note_on_c, 0, 77, 0
2, 19294, Note_on_c, 0, 74, 0
2, 19296, Note_on_c, 0, 74, 105
2, 19296, Note_on_c, 0, 77, 105
2, 19390, Note_on_c, 0, 77, 0
2, 19390, Note_on_c, 0, 74, 0
2, 19392, Note_on_c, 0, 74, 105
2, 19392, Note_on_c, 0, 77, 105
2, 19424, Note_on_c, 0, 77, 0
2, 19424, Note_on_c, 0, 74, 0
2, 19488, Note_on_c, 0, 72, 105
2, 19488, Note_on_c, 0, 76, 105
2, 19520, Note_on_c, 0, 76, 0
2, 19520, Note_on_c, 0, 72, 0
2, 19584, Note_on_c, 0, 71, 127
2, 19584, Note_on_c, 0, 74, 127
2, 19680, Note_on_c, 0, 74, 0
2, 19680, Note_on_c, 0, 71, 0
2, 19680, Note_on_c, 0, 69, 105
2, 19680, Note_on_c, 0, 72, 105
2, 19774, Note_on_c, 0, 72, 0
2, 19774, Note_on_c, 0, 69, 0
2, 19968, Note_on_c, 0, 67, 105
2, 19968, Note_on_c, 0, 72, 105
2, 19968, Note_on_c, 0, 79, 105
2, 20128, Note_on_c, 0, 79, 0
2, 20128, Note_on_c, 0, 72, 0
2, 20128, Note_on_c, 0, 67, 0
2, 20256, Note_on_c, 0, 67, 105
2, 20256, Note_on_c, 0, 70, 105
2, 20288, Note_on_c, 0, 70, 0
2, 20288, Note_on_c, 0, 67, 0
2, 20352, Note_on_c, 0, 65, 105
2, 20352, Note_on_c, 0, 69, 105
2, 20376, Note_on_c, 0, 69, 0
2, 20376, Note_on_c, 0, 67, 105
2, 20400, Note_on_c, 0, 67, 0
2, 20400, Note_on_c, 0, 69, 105
2, 20512, Note_on_c, 0, 65, 0
2, 20542, Note_on_c, 0, 69, 0
2, 20640, Note_on_c, 0, 72, 105
2, 20640, Note_on_c, 0, 81, 105
2, 20672, Note_on_c, 0, 81, 0
2, 20672, Note_on_c, 0, 72, 0
2, 20736, Note_on_c, 0, 77, 105
2, 20736, Note_on_c, 0, 83, 105
2, 20768, Note_on_c, 0, 83, 0
2, 20768, Note_on_c, 0, 77, 0
2, 20832, Note_on_c, 0, 76, 105
2, 20832, Note_on_c, 0, 84, 105
2, 20864, Note_on_c, 0, 84, 0
2, 20864, Note_on_c, 0, 76, 0
2, 20928, Note_on_c, 0, 74, 105
2, 20928, Note_on_c, 0, 77, 105
2, 20960, Note_on_c, 0, 77, 0
2, 20960, Note_on_c, 0, 74, 0
2, 21024, Note_on_c, 0, 72, 105
2, 21024, Note_on_c, 0, 76, 105
2, 21056, Note_on_c, 0, 76, 0
2, 21056, Note_on_c, 0, 72, 0
2, 21120, Note_on_c, 0, 72, 105
2, 21120, Note_on_c, 0, 77, 105
2, 21142, Note_on_c, 0, 77, 0
2, 21144, Note_on_c, 0, 76, 105
2, 21214, Note_on_c, 0, 76, 0
2, 21214, Note_on_c, 0, 72, 0
2, 21216, Note_on_c, 0, 71, 105
2, 21216, Note_on_c, 0, 74, 105
2, 21310, Note_on_c, 0, 74, 0
2, 21310, Note_on_c, 0, 71, 0
2, 21360, Note_on_c, 0, 67, 63
2, 21408, Note_on_c, 0, 67, 0
2, 21408, Note_on_c, 0, 71, 63
2, 21456, Note_on_c, 0, 71, 0
2, 21456, Note_on_c, 0, 74, 63
2, 21504, Note_on_c, 0, 74, 0
2, 21504, Note_on_c, 0, 79, 63
2, 21552, Note_on_c, 0, 79, 0
2, 21552, Note_on_c, 0, 77, 63
2, 21600, Note_on_c, 0, 77, 0
2, 21600, Note_on_c, 0, 76, 63
2, 21648, Note_on_c, 0, 76, 0
2, 21648, Note_on_c, 0, 74, 63
2, 21696, Note_on_c, 0, 74, 0
2, 21696, Note_on_c, 0, 72, 63
2, 21744, Note_on_c, 0, 72, 0
2, 21744, Note_on_c, 0, 70, 63
2, 21792, Note_on_c, 0, 70, 0
2, 21792, Note_on_c, 0, 69, 63
2, 21840, Note_on_c, 0, 69, 0
2, 21840, Note_on_c, 0, 67, 63
2, 21888, Note_on_c, 0, 67, 0
2, 21888, Note_on_c, 0, 69, 63
2, 21936, Note_on_c, 0, 69, 0
2, 21936, Note_on_c, 0, 65, 63
2, 21984, Note_on_c, 0, 65, 0
2, 21984, Note_on_c, 0, 69, 63
2, 22032, Note_on_c, 0, 69, 0
2, 22032, Note_on_c, 0, 72, 63
2, 22080, Note_on_c, 0, 72, 0
2, 22080, Note_on_c, 0, 69, 63
2, 22128, Note_on_c, 0, 69, 0
2, 22128, Note_on_c, 0, 65, 63
2, 22176, Note_on_c, 0, 65, 0
2, 22176, Note_on_c, 0, 69, 63
2, 22224, Note_on_c, 0, 69, 0
2, 22224, Note_on_c, 0, 72, 63
2, 22272, Note_on_c, 0, 72, 0
2, 22272, Note_on_c, 0, 77, 63
2, 22320, Note_on_c, 0, 77, 0
2, 22320, Note_on_c, 0, 76, 63
2, 22368, Note_on_c, 0, 76, 0
2, 22368, Note_on_c, 0, 74, 63
2, 22416, Note_on_c, 0, 74, 0
2, 22416, Note_on_c, 0, 72, 63
2, 22464, Note_on_c, 0, 72, 0
2, 22464, Note_on_c, 0, 71, 63
2, 22512, Note_on_c, 0, 71, 0
2, 22512, Note_on_c, 0, 69, 63
2, 22560, Note_on_c, 0, 69, 0
2, 22560, Note_on_c, 0, 67, 63
2, 22608, Note_on_c, 0, 67, 0
2, 22608, Note_on_c, 0, 65, 63
2, 22656, Note_on_c, 0, 65, 0
2, 22656, Note_on_c, 0, 67, 63
2, 22704, Note_on_c, 0, 67, 0
2, 22704, Note_on_c, 0, 65, 63
2, 22752, Note_on_c, 0, 65, 0
2, 22752, Note_on_c, 0, 67, 63
2, 22800, Note_on_c, 0, 67, 0
2, 22800, Note_on_c, 0, 74, 63
2, 22848, Note_on_c, 0, 74, 0
2, 22848, Note_on_c, 0, 67, 63
2, 22896, Note_on_c, 0, 67, 0
2, 22896, Note_on_c, 0, 65, 63
2, 22944, Note_on_c, 0, 65, 0
2, 22944, Note_on_c, 0, 67, 63
2, 22992, Note_on_c, 0, 67, 0
2, 22992, Note_on_c, 0, 74, 63
2, 23040, Note_on_c, 0, 74, 0
2, 23040, Note_on_c, 0, 76, 63
2, 23088, Note_on_c, 0, 76, 0
2, 23088, Note_on_c, 0, 74, 65
2, 23136, Note_on_c, 0, 74, 0
2, 23136, Note_on_c, 0, 72, 67
2, 23184, Note_on_c, 0, 72, 0
2, 23184, Note_on_c, 0, 71, 69
2, 23232, Note_on_c, 0, 71, 0
2, 23232, Note_on_c, 0, 69, 71
2, 23280, Note_on_c, 0, 69, 0
2, 23280, Note_on_c, 0, 67, 73
2, 23328, Note_on_c, 0, 67, 0
2, 23328, Note_on_c, 0, 65, 75
2, 23376, Note_on_c, 0, 65, 0
2, 23376, Note_on_c, 0, 64, 78
2, 23424, Note_on_c, 0, 64, 0
2, 23424, Note_on_c, 0, 62, 81
2, 23472, Note_on_c, 0, 62, 0
2, 23472, Note_on_c, 0, 65, 84
2, 23520, Note_on_c, 0, 65, 0
2, 23520, Note_on_c, 0, 69, 87
2, 23568, Note_on_c, 0, 69, 0
2, 23568, Note_on_c, 0, 72, 90
2, 23616, Note_on_c, 0, 72, 0
2, 23616, Note_on_c, 0, 71, 93
2, 23664, Note_on_c, 0, 71, 0
2, 23664, Note_on_c, 0, 67, 96
2, 23712, Note_on_c, 0, 67, 0
2, 23712, Note_on_c, 0, 71, 99
2, 23760, Note_on_c, 0, 71, 0
2, 23760, Note_on_c, 0, 74, 102
2, 23808, Note_on_c, 0, 74, 0
2, 23808, Note_on_c, 0, 79, 105
2, 23840, Note_on_c, 0, 79, 0
2, 23904, Note_on_c, 0, 72, 105
2, 23936, Note_on_c, 0, 72, 0
2, 24000, Note_on_c, 0, 76, 105
2, 24048, Note_on_c, 0, 76, 0
2, 24048, Note_on_c, 0, 74, 105
2, 24096, Note_on_c, 0, 74, 0
2, 24096, Note_on_c, 0, 72, 105
2, 24144, Note_on_c, 0, 72, 0
2, 24144, Note_on_c, 0, 71, 105
2, 24192, Note_on_c, 0, 71, 0
2, 24192, Note_on_c, 0, 72, 105
2, 24240, Note_on_c, 0, 72, 0
2, 24240, Note_on_c, 0, 67, 105
2, 24288, Note_on_c, 0, 67, 0
2, 24288, Note_on_c, 0, 64, 105
2, 24336, Note_on_c, 0, 64, 0
2, 24336, Note_on_c, 0, 60, 105
2, 24382, Note_on_c, 0, 60, 0
2, 24382, End_track
3, 0, Start_track
3, 0, MIDI_port, 0
3, 0, Title_t, "Left Hand"
3, 0, Program_c, 1, 0
3, 0, Control_c, 1, 7, 127
3, 0, Control_c, 1, 10, 63
3, 0, Control_c, 1, 91, 63
3, 0, Control_c, 1, 93, 0
3, 0, Program_c, 1, 0
3, 48, Note_on_c, 1, 36, 105
3, 96, Note_on_c, 1, 36, 0
3, 96, Note_on_c, 1, 40, 112
3, 144, Note_on_c, 1, 40, 0
3, 144, Note_on_c, 1, 43, 119
3, 192, Note_on_c, 1, 43, 0
3, 192, Note_on_c, 1, 48, 126
3, 384, Note_on_c, 1, 48, 0
3, 432, Note_on_c, 1, 36, 105
3, 480, Note_on_c, 1, 36, 0
3, 480, Note_on_c, 1, 40, 112
3, 528, Note_on_c, 1, 40, 0
3, 528, Note_on_c, 1, 43, 119
3, 576, Note_on_c, 1, 43, 0
3, 576, Note_on_c, 1, 48, 126
3, 768, Note_on_c, 1, 48, 0
3, 816, Note_on_c, 1, 48, 126
3, 864, Note_on_c, 1, 48, 0
3, 864, Note_on_c, 1, 50, 126
3, 912, Note_on_c, 1, 50, 0
3, 912, Note_on_c, 1, 48, 126
3, 960, Note_on_c, 1, 48, 0
3, 960, Note_on_c, 1, 47, 123
3, 1008, Note_on_c, 1, 47, 0
3, 1008, Note_on_c, 1, 50, 120
3, 1056, Note_on_c, 1, 50, 0
3, 1056, Note_on_c, 1, 43, 117
3, 1104, Note_on_c, 1, 43, 0
3, 1104, Note_on_c, 1, 47, 113
3, 1152, Note_on_c, 1, 47, 0
3, 1152, Note_on_c, 1, 48, 109
3, 1198, Note_on_c, 1, 48, 0
3, 1200, Note_on_c, 1, 36, 105
3, 1248, Note_on_c, 1, 36, 0
3, 1248, Note_on_c, 1, 40, 105
3, 1296, Note_on_c, 1, 40, 0
3, 1296, Note_on_c, 1, 43, 105
3, 1344, Note_on_c, 1, 43, 0
3, 1344, Note_on_c, 1, 48, 105
3, 1392, Note_on_c, 1, 48, 0
3, 1392, Note_on_c, 1, 50, 110
3, 1440, Note_on_c, 1, 50, 0
3, 1440, Note_on_c, 1, 52, 115
3, 1488, Note_on_c, 1, 52, 0
3, 1488, Note_on_c, 1, 53, 120
3, 1536, Note_on_c, 1, 53, 0
3, 1536, Note_on_c, 1, 55, 126
3, 1582, Note_on_c, 1, 55, 0
3, 1584, Note_on_c, 1, 43, 105
3, 1632, Note_on_c, 1, 43, 0
3, 1632, Note_on_c, 1, 47, 112
3, 1680, Note_on_c, 1, 47, 0
3, 1680, Note_on_c, 1, 50, 119
3, 1728, Note_on_c, 1, 50, 0
3, 1728, Note_on_c, 1, 55, 126
3, 1920, Note_on_c, 1, 55, 0
3, 1968, Note_on_c, 1, 43, 105
3, 2016, Note_on_c, 1, 43, 0
3, 2016, Note_on_c, 1, 47, 112
3, 2064, Note_on_c, 1, 47, 0
3, 2064, Note_on_c, 1, 50, 119
3, 2112, Note_on_c, 1, 50, 0
3, 2112, Note_on_c, 1, 55, 126
3, 2304, Note_on_c, 1, 55, 0
3, 2352, Note_on_c, 1, 43, 105
3, 2400, Note_on_c, 1, 43, 0
3, 2400, Note_on_c, 1, 48, 105
3, 2448, Note_on_c, 1, 48, 0
3, 2448, Note_on_c, 1, 52, 105
3, 2496, Note_on_c, 1, 52, 0
3, 2496, Note_on_c, 1, 40, 105
3, 2528, Note_on_c, 1, 40, 0
3, 2592, Note_on_c, 1, 41, 105
3, 2624, Note_on_c, 1, 41, 0
3, 2688, Note_on_c, 1, 43, 105
3, 2736, Note_on_c, 1, 43, 0
3, 2736, Note_on_c, 1, 55, 105
3, 2784, Note_on_c, 1, 55, 0
3, 2784, Note_on_c, 1, 50, 105
3, 2832, Note_on_c, 1, 50, 0
3, 2832, Note_on_c, 1, 47, 105
3, 2880, Note_on_c, 1, 47, 0
3, 2880, Note_on_c, 1, 43, 105
3, 2912, Note_on_c, 1, 43, 0
3, 2976, Note_on_c, 1, 55, 63
3, 3008, Note_on_c, 1, 55, 0
3, 3072, Note_on_c, 1, 48, 63
3, 3104, Note_on_c, 1, 48, 0
3, 3168, Note_on_c, 1, 55, 63
3, 3200, Note_on_c, 1, 55, 0
3, 3264, Note_on_c, 1, 48, 63
3, 3296, Note_on_c, 1, 48, 0
3, 3360, Note_on_c, 1, 57, 63
3, 3392, Note_on_c, 1, 57, 0
3, 3456, Note_on_c, 1, 50, 63
3, 3488, Note_on_c, 1, 50, 0
3, 3552, Note_on_c, 1, 57, 63
3, 3584, Note_on_c, 1, 57, 0
3, 3648, Note_on_c, 1, 48, 63
3, 3680, Note_on_c, 1, 48, 0
3, 3744, Note_on_c, 1, 57, 63
3, 3776, Note_on_c, 1, 57, 0
3, 3840, Note_on_c, 1, 47, 63
3, 3872, Note_on_c, 1, 47, 0
3, 3936, Note_on_c, 1, 57, 63
3, 3968, Note_on_c, 1, 57, 0
3, 4032, Note_on_c, 1, 47, 63
3, 4064, Note_on_c, 1, 47, 0
3, 4128, Note_on_c, 1, 55, 63
3, 4160, Note_on_c, 1, 55, 0
3, 4224, Note_on_c, 1, 48, 63
3, 4256, Note_on_c, 1, 48, 0
3, 4320, Note_on_c, 1, 55, 63
3, 4352, Note_on_c, 1, 55, 0
3, 4416, Note_on_c, 1, 47, 63
3, 4448, Note_on_c, 1, 47, 0
3, 4512, Note_on_c, 1, 55, 63
3, 4544, Note_on_c, 1, 55, 0
3, 4608, Note_on_c, 1, 45, 63
3, 4640, Note_on_c, 1, 45, 0
3, 4704, Note_on_c, 1, 55, 68
3, 4736, Note_on_c, 1, 55, 0
3, 4800, Note_on_c, 1, 45, 73
3, 4832, Note_on_c, 1, 45, 0
3, 4896, Note_on_c, 1, 55, 78
3, 4928, Note_on_c, 1, 55, 0
3, 4992, Note_on_c, 1, 54, 83
3, 5086, Note_on_c, 1, 54, 0
3, 5088, Note_on_c, 1, 57, 88
3, 5182, Note_on_c, 1, 57, 0
3, 5184, Note_on_c, 1, 54, 93
3, 5278, Note_on_c, 1, 54, 0
3, 5280, Note_on_c, 1, 50, 99
3, 5374, Note_on_c, 1, 50, 0
3, 5376, Note_on_c, 1, 47, 105
3, 5470, Note_on_c, 1, 47, 0
3, 5472, Note_on_c, 1, 52, 105
3, 5566, Note_on_c, 1, 52, 0
3, 5568, Note_on_c, 1, 48, 105
3, 5664, Note_on_c, 1, 48, 0
3, 5664, Note_on_c, 1, 50, 105
3, 5758, Note_on_c, 1, 50, 0
3, 5760, Note_on_c, 1, 55, 105
3, 5854, Note_on_c, 1, 55, 0
3, 5904, Note_on_c, 1, 55, 105
3, 5952, Note_on_c, 1, 55, 0
3, 5952, Note_on_c, 1, 43, 105
3, 6046, Note_on_c, 1, 43, 0
3, 6192, Note_on_c, 1, 36, 105
3, 6240, Note_on_c, 1, 36, 0
3, 6240, Note_on_c, 1, 40, 112
3, 6288, Note_on_c, 1, 40, 0
3, 6288, Note_on_c, 1, 43, 119
3, 6336, Note_on_c, 1, 43, 0
3, 6336, Note_on_c, 1, 48, 126
3, 6528, Note_on_c, 1, 48, 0
3, 6576, Note_on_c, 1, 36, 105
3, 6624, Note_on_c, 1, 36, 0
3, 6624, Note_on_c, 1, 40, 112
3, 6672, Note_on_c, 1, 40, 0
3, 6672, Note_on_c, 1, 43, 119
3, 6720, Note_on_c, 1, 43, 0
3, 6720, Note_on_c, 1, 48, 126
3, 6912, Note_on_c, 1, 48, 0
3, 6960, Note_on_c, 1, 48, 126
3, 7008, Note_on_c, 1, 48, 0
3, 7008, Note_on_c, 1, 50, 126
3, 7056, Note_on_c, 1, 50, 0
3, 7056, Note_on_c, 1, 48, 126
3, 7104, Note_on_c, 1, 48, 0
3, 7104, Note_on_c, 1, 47, 123
3, 7152, Note_on_c, 1, 47, 0
3, 7152, Note_on_c, 1, 50, 120
3, 7200, Note_on_c, 1, 50, 0
3, 7200, Note_on_c, 1, 43, 117
3, 7248, Note_on_c, 1, 43, 0
3, 7248, Note_on_c, 1, 47, 113
3, 7296, Note_on_c, 1, 47, 0
3, 7296, Note_on_c, 1, 48, 109
3, 7342, Note_on_c, 1, 48, 0
3, 7344, Note_on_c, 1, 36, 105
3, 7392, Note_on_c, 1, 36, 0
3, 7392, Note_on_c, 1, 40, 105
3, 7440, Note_on_c, 1, 40, 0
3, 7440, Note_on_c, 1, 43, 105
3, 7488, Note_on_c, 1, 43, 0
3, 7488, Note_on_c, 1, 48, 105
3, 7536, Note_on_c, 1, 48, 0
3, 7536, Note_on_c, 1, 50, 110
3, 7584, Note_on_c, 1, 50, 0
3, 7584, Note_on_c, 1, 52, 115
3, 7632, Note_on_c, 1, 52, 0
3, 7632, Note_on_c, 1, 53, 120
3, 7680, Note_on_c, 1, 53, 0
3, 7680, Note_on_c, 1, 55, 126
3, 7726, Note_on_c, 1, 55, 0
3, 7728, Note_on_c, 1, 43, 105
3, 7776, Note_on_c, 1, 43, 0
3, 7776, Note_on_c, 1, 47, 112
3, 7824, Note_on_c, 1, 47, 0
3, 7824, Note_on_c, 1, 50, 119
3, 7872, Note_on_c, 1, 50, 0
3, 7872, Note_on_c, 1, 55, 126
3, 8064, Note_on_c, 1, 55, 0
3, 8112, Note_on_c, 1, 43, 105
3, 8160, Note_on_c, 1, 43, 0
3, 8160, Note_on_c, 1, 47, 112
3, 8208, Note_on_c, 1, 47, 0
3, 8208, Note_on_c, 1, 50, 119
3, 8256, Note_on_c, 1, 50, 0
3, 8256, Note_on_c, 1, 55, 126
3, 8448, Note_on_c, 1, 55, 0
3, 8496, Note_on_c, 1, 43, 105
3, 8544, Note_on_c, 1, 43, 0
3, 8544, Note_on_c, 1, 48, 105
3, 8592, Note_on_c, 1, 48, 0
3, 8592, Note_on_c, 1, 52, 105
3, 8640, Note_on_c, 1, 52, 0
3, 8640, Note_on_c, 1, 40, 105
3, 8672, Note_on_c, 1, 40, 0
3, 8736, Note_on_c, 1, 41, 105
3, 8768, Note_on_c, 1, 41, 0
3, 8832, Note_on_c, 1, 43, 105
3, 8880, Note_on_c, 1, 43, 0
3, 8880, Note_on_c, 1, 55, 105
3, 8928, Note_on_c, 1, 55, 0
3, 8928, Note_on_c, 1, 50, 105
3, 8976, Note_on_c, 1, 50, 0
3, 8976, Note_on_c, 1, 47, 105
3, 9024, Note_on_c, 1, 47, 0
3, 9024, Note_on_c, 1, 43, 105
3, 9056, Note_on_c, 1, 43, 0
3, 9120, Note_on_c, 1, 55, 63
3, 9152, Note_on_c, 1, 55, 0
3, 9216, Note_on_c, 1, 48, 63
3, 9248, Note_on_c, 1, 48, 0
3, 9312, Note_on_c, 1, 55, 63
3, 9344, Note_on_c, 1, 55, 0
3, 9408, Note_on_c, 1, 48, 63
3, 9440, Note_on_c, 1, 48, 0
3, 9504, Note_on_c, 1, 57, 63
3, 9536, Note_on_c, 1, 57, 0
3, 9600, Note_on_c, 1, 50, 63
3, 9632, Note_on_c, 1, 50, 0
3, 9696, Note_on_c, 1, 57, 63
3, 9728, Note_on_c, 1, 57, 0
3, 9792, Note_on_c, 1, 48, 63
3, 9824, Note_on_c, 1, 48, 0
3, 9888, Note_on_c, 1, 57, 63
3, 9920, Note_on_c, 1, 57, 0
3, 9984, Note_on_c, 1, 47, 63
3, 10016, Note_on_c, 1, 47, 0
3, 10080, Note_on_c, 1, 57, 63
3, 10112, Note_on_c, 1, 57, 0
3, 10176, Note_on_c, 1, 47, 63
3, 10208, Note_on_c, 1, 47, 0
3, 10272, Note_on_c, 1, 55, 63
3, 10304, Note_on_c, 1, 55, 0
3, 10368, Note_on_c, 1, 48, 63
3, 10400, Note_on_c, 1, 48, 0
3, 10464, Note_on_c, 1, 55, 63
3, 10496, Note_on_c, 1, 55, 0
3, 10560, Note_on_c, 1, 47, 63
3, 10592, Note_on_c, 1, 47, 0
3, 10656, Note_on_c, 1, 55, 63
3, 10688, Note_on_c, 1, 55, 0
3, 10752, Note_on_c, 1, 45, 63
3, 10784, Note_on_c, 1, 45, 0
3, 10848, Note_on_c, 1, 55, 68
3, 10880, Note_on_c, 1, 55, 0
3, 10944, Note_on_c, 1, 45, 73
3, 10976, Note_on_c, 1, 45, 0
3, 11040, Note_on_c, 1, 55, 78
3, 11072, Note_on_c, 1, 55, 0
3, 11136, Note_on_c, 1, 54, 83
3, 11230, Note_on_c, 1, 54, 0
3, 11232, Note_on_c, 1, 57, 88
3, 11326, Note_on_c, 1, 57, 0
3, 11328, Note_on_c, 1, 54, 93
3, 11422, Note_on_c, 1, 54, 0
3, 11424, Note_on_c, 1, 50, 99
3, 11518, Note_on_c, 1, 50, 0
3, 11520, Note_on_c, 1, 47, 105
3, 11614, Note_on_c, 1, 47, 0
3, 11616, Note_on_c, 1, 52, 105
3, 11710, Note_on_c, 1, 52, 0
3, 11712, Note_on_c, 1, 48, 105
3, 11808, Note_on_c, 1, 48, 0
3, 11808, Note_on_c, 1, 50, 105
3, 11902, Note_on_c, 1, 50, 0
3, 11904, Note_on_c, 1, 55, 105
3, 11998, Note_on_c, 1, 55, 0
3, 12048, Note_on_c, 1, 55, 105
3, 12096, Note_on_c, 1, 55, 0
3, 12096, Note_on_c, 1, 43, 105
3, 12190, Note_on_c, 1, 43, 0
3, 12336, Note_on_c, 1, 43, 105
3, 12382, Note_on_c, 1, 43, 0
3, 12384, Note_on_c, 1, 47, 112
3, 12430, Note_on_c, 1, 47, 0
3, 12432, Note_on_c, 1, 50, 119
3, 12478, Note_on_c, 1, 50, 0
3, 12480, Note_on_c, 1, 55, 126
3, 12672, Note_on_c, 1, 55, 0
3, 12720, Note_on_c, 1, 43, 105
3, 12766, Note_on_c, 1, 43, 0
3, 12768, Note_on_c, 1, 47, 112
3, 12814, Note_on_c, 1, 47, 0
3, 12816, Note_on_c, 1, 50, 119
3, 12862, Note_on_c, 1, 50, 0
3, 12864, Note_on_c, 1, 55, 126
3, 13056, Note_on_c, 1, 55, 0
3, 13104, Note_on_c, 1, 57, 105
3, 13150, Note_on_c, 1, 57, 0
3, 13152, Note_on_c, 1, 59, 105
3, 13198, Note_on_c, 1, 59, 0
3, 13200, Note_on_c, 1, 57, 105
3, 13246, Note_on_c, 1, 57, 0
3, 13248, Note_on_c, 1, 56, 105
3, 13294, Note_on_c, 1, 56, 0
3, 13296, Note_on_c, 1, 59, 105
3, 13342, Note_on_c, 1, 59, 0
3, 13344, Note_on_c, 1, 52, 105
3, 13390, Note_on_c, 1, 52, 0
3, 13392, Note_on_c, 1, 56, 105
3, 13438, Note_on_c, 1, 56, 0
3, 13440, Note_on_c, 1, 57, 105
3, 13486, Note_on_c, 1, 57, 0
3, 13488, Note_on_c, 1, 45, 105
3, 13534, Note_on_c, 1, 45, 0
3, 13536, Note_on_c, 1, 48, 105
3, 13582, Note_on_c, 1, 48, 0
3, 13584, Note_on_c, 1, 52, 105
3, 13630, Note_on_c, 1, 52, 0
3, 13632, Note_on_c, 1, 57, 105
3, 13678, Note_on_c, 1, 57, 0
3, 13680, Note_on_c, 1, 59, 110
3, 13726, Note_on_c, 1, 59, 0
3, 13728, Note_on_c, 1, 60, 115
3, 13774, Note_on_c, 1, 60, 0
3, 13776, Note_on_c, 1, 62, 120
3, 13822, Note_on_c, 1, 62, 0
3, 13824, Note_on_c, 1, 64, 126
3, 13870, Note_on_c, 1, 64, 0
3, 13872, Note_on_c, 1, 52, 105
3, 13918, Note_on_c, 1, 52, 0
3, 13920, Note_on_c, 1, 55, 112
3, 13966, Note_on_c, 1, 55, 0
3, 13968, Note_on_c, 1, 60, 119
3, 14014, Note_on_c, 1, 60, 0
3, 14016, Note_on_c, 1, 64, 126
3, 14208, Note_on_c, 1, 64, 0
3, 14256, Note_on_c, 1, 53, 105
3, 14302, Note_on_c, 1, 53, 0
3, 14304, Note_on_c, 1, 57, 105
3, 14350, Note_on_c, 1, 57, 0
3, 14352, Note_on_c, 1, 60, 105
3, 14398, Note_on_c, 1, 60, 0
3, 14400, Note_on_c, 1, 65, 105
3, 14446, Note_on_c, 1, 65, 0
3, 14448, Note_on_c, 1, 64, 105
3, 14494, Note_on_c, 1, 64, 0
3, 14496, Note_on_c, 1, 65, 105
3, 14542, Note_on_c, 1, 65, 0
3, 14544, Note_on_c, 1, 64, 105
3, 14590, Note_on_c, 1, 64, 0
3, 14592, Note_on_c, 1, 62, 105
3, 14638, Note_on_c, 1, 62, 0
3, 14640, Note_on_c, 1, 60, 105
3, 14686, Note_on_c, 1, 60, 0
3, 14688, Note_on_c, 1, 62, 105
3, 14734, Note_on_c, 1, 62, 0
3, 14736, Note_on_c, 1, 60, 105
3, 14782, Note_on_c, 1, 60, 0
3, 14784, Note_on_c, 1, 59, 105
3, 14830, Note_on_c, 1, 59, 0
3, 14832, Note_on_c, 1, 55, 105
3, 14878, Note_on_c, 1, 55, 0
3, 14880, Note_on_c, 1, 60, 105
3, 14926, Note_on_c, 1, 60, 0
3, 14928, Note_on_c, 1, 64, 105
3, 14974, Note_on_c, 1, 64, 0
3, 14976, Note_on_c, 1, 67, 105
3, 15022, Note_on_c, 1, 67, 0
3, 15024, Note_on_c, 1, 66, 105
3, 15070, Note_on_c, 1, 66, 0
3, 15072, Note_on_c, 1, 67, 105
3, 15118, Note_on_c, 1, 67, 0
3, 15120, Note_on_c, 1, 62, 105
3, 15166, Note_on_c, 1, 62, 0
3, 15168, Note_on_c, 1, 59, 105
3, 15214, Note_on_c, 1, 59, 0
3, 15216, Note_on_c, 1, 62, 63
3, 15262, Note_on_c, 1, 62, 0
3, 15264, Note_on_c, 1, 55, 63
3, 15310, Note_on_c, 1, 55, 0
3, 15312, Note_on_c, 1, 59, 63
3, 15358, Note_on_c, 1, 59, 0
3, 15360, Note_on_c, 1, 52, 63
3, 15392, Note_on_c, 1, 52, 0
3, 15456, Note_on_c, 1, 60, 63
3, 15488, Note_on_c, 1, 60, 0
3, 15552, Note_on_c, 1, 52, 63
3, 15584, Note_on_c, 1, 52, 0
3, 15648, Note_on_c, 1, 60, 63
3, 15680, Note_on_c, 1, 60, 0
3, 15744, Note_on_c, 1, 53, 63
3, 15776, Note_on_c, 1, 53, 0
3, 15840, Note_on_c, 1, 60, 63
3, 15872, Note_on_c, 1, 60, 0
3, 15936, Note_on_c, 1, 52, 63
3, 15968, Note_on_c, 1, 52, 0
3, 16032, Note_on_c, 1, 60, 63
3, 16064, Note_on_c, 1, 60, 0
3, 16128, Note_on_c, 1, 50, 63
3, 16160, Note_on_c, 1, 50, 0
3, 16224, Note_on_c, 1, 59, 63
3, 16256, Note_on_c, 1, 59, 0
3, 16320, Note_on_c, 1, 48, 63
3, 16352, Note_on_c, 1, 48, 0
3, 16416, Note_on_c, 1, 57, 63
3, 16448, Note_on_c, 1, 57, 0
3, 16512, Note_on_c, 1, 47, 63
3, 16544, Note_on_c, 1, 47, 0
3, 16608, Note_on_c, 1, 53, 63
3, 16640, Note_on_c, 1, 53, 0
3, 16704, Note_on_c, 1, 52, 63
3, 16736, Note_on_c, 1, 52, 0
3, 16800, Note_on_c, 1, 50, 63
3, 16832, Note_on_c, 1, 50, 0
3, 16896, Note_on_c, 1, 48, 63
3, 16990, Note_on_c, 1, 48, 0
3, 16992, Note_on_c, 1, 52, 68
3, 17086, Note_on_c, 1, 52, 0
3, 17088, Note_on_c, 1, 53, 73
3, 17182, Note_on_c, 1, 53, 0
3, 17184, Note_on_c, 1, 57, 78
3, 17278, Note_on_c, 1, 57, 0
3, 17280, Note_on_c, 1, 53, 83
3, 17376, Note_on_c, 1, 53, 0
3, 17376, Note_on_c, 1, 50, 88
3, 17472, Note_on_c, 1, 50, 0
3, 17472, Note_on_c, 1, 55, 93
3, 17568, Note_on_c, 1, 55, 0
3, 17568, Note_on_c, 1, 53, 99
3, 17664, Note_on_c, 1, 53, 0
3, 17664, Note_on_c, 1, 52, 105
3, 17696, Note_on_c, 1, 52, 0
3, 17760, Note_on_c, 1, 57, 105
3, 17828, Note_on_c, 1, 57, 0
3, 17856, Note_on_c, 1, 53, 105
3, 17952, Note_on_c, 1, 53, 0
3, 17952, Note_on_c, 1, 55, 105
3, 18046, Note_on_c, 1, 55, 0
3, 18048, Note_on_c, 1, 48, 127
3, 18240, Note_on_c, 1, 48, 0
3, 18240, Note_on_c, 1, 36, 105
3, 18400, Note_on_c, 1, 36, 0
3, 18480, Note_on_c, 1, 43, 105
3, 18526, Note_on_c, 1, 43, 0
3, 18528, Note_on_c, 1, 47, 112
3, 18574, Note_on_c, 1, 47, 0
3, 18576, Note_on_c, 1, 50, 119
3, 18622, Note_on_c, 1, 50, 0
3, 18624, Note_on_c, 1, 55, 126
3, 18816, Note_on_c, 1, 55, 0
3, 18864, Note_on_c, 1, 43, 105
3, 18910, Note_on_c, 1, 43, 0
3, 18912, Note_on_c, 1, 47, 112
3, 18958, Note_on_c, 1, 47, 0
3, 18960, Note_on_c, 1, 50, 119
3, 19006, Note_on_c, 1, 50, 0
3, 19008, Note_on_c, 1, 55, 126
3, 19200, Note_on_c, 1, 55, 0
3, 19248, Note_on_c, 1, 57, 105
3, 19294, Note_on_c, 1, 57, 0
3, 19296, Note_on_c, 1, 59, 105
3, 19342, Note_on_c, 1, 59, 0
3, 19344, Note_on_c, 1, 57, 105
3, 19390, Note_on_c, 1, 57, 0
3, 19392, Note_on_c, 1, 56, 105
3, 19438, Note_on_c, 1, 56, 0
3, 19440, Note_on_c, 1, 59, 105
3, 19486, Note_on_c, 1, 59, 0
3, 19488, Note_on_c, 1, 52, 105
3, 19534, Note_on_c, 1, 52, 0
3, 19536, Note_on_c, 1, 56, 105
3, 19582, Note_on_c, 1, 56, 0
3, 19584, Note_on_c, 1, 57, 105
3, 19630, Note_on_c, 1, 57, 0
3, 19632, Note_on_c, 1, 45, 105
3, 19678, Note_on_c, 1, 45, 0
3, 19680, Note_on_c, 1, 48, 105
3, 19726, Note_on_c, 1, 48, 0
3, 19728, Note_on_c, 1, 52, 105
3, 19774, Note_on_c, 1, 52, 0
3, 19776, Note_on_c, 1, 57, 105
3, 19822, Note_on_c, 1, 57, 0
3, 19824, Note_on_c, 1, 59, 110
3, 19870, Note_on_c, 1, 59, 0
3, 19872, Note_on_c, 1, 60, 115
3, 19918, Note_on_c, 1, 60, 0
3, 19920, Note_on_c, 1, 62, 120
3, 19966, Note_on_c, 1, 62, 0
3, 19968, Note_on_c, 1, 64, 126
3, 20014, Note_on_c, 1, 64, 0
3, 20016, Note_on_c, 1, 52, 105
3, 20062, Note_on_c, 1, 52, 0
3, 20064, Note_on_c, 1, 55, 112
3, 20110, Note_on_c, 1, 55, 0
3, 20112, Note_on_c, 1, 60, 119
3, 20158, Note_on_c, 1, 60, 0
3, 20160, Note_on_c, 1, 64, 126
3, 20352, Note_on_c, 1, 64, 0
3, 20400, Note_on_c, 1, 53, 105
3, 20446, Note_on_c, 1, 53, 0
3, 20448, Note_on_c, 1, 57, 105
3, 20494, Note_on_c, 1, 57, 0
3, 20496, Note_on_c, 1, 60, 105
3, 20542, Note_on_c, 1, 60, 0
3, 20544, Note_on_c, 1, 65, 105
3, 20590, Note_on_c, 1, 65, 0
3, 20592, Note_on_c, 1, 64, 105
3, 20638, Note_on_c, 1, 64, 0
3, 20640, Note_on_c, 1, 65, 105
3, 20686, Note_on_c, 1, 65, 0
3, 20688, Note_on_c, 1, 64, 105
3, 20734, Note_on_c, 1, 64, 0
3, 20736, Note_on_c, 1, 62, 105
3, 20782, Note_on_c, 1, 62, 0
3, 20784, Note_on_c, 1, 60, 105
3, 20830, Note_on_c, 1, 60, 0
3, 20832, Note_on_c, 1, 62, 105
3, 20878, Note_on_c, 1, 62, 0
3, 20880, Note_on_c, 1, 60, 105
3, 20926, Note_on_c, 1, 60, 0
3, 20928, Note_on_c, 1, 59, 105
3, 20974, Note_on_c, 1, 59, 0
3, 20976, Note_on_c, 1, 55, 105
3, 21022, Note_on_c, 1, 55, 0
3, 21024, Note_on_c, 1, 60, 105
3, 21070, Note_on_c, 1, 60, 0
3, 21072, Note_on_c, 1, 64, 105
3, 21118, Note_on_c, 1, 64, 0
3, 21120, Note_on_c, 1, 67, 105
3, 21166, Note_on_c, 1, 67, 0
3, 21168, Note_on_c, 1, 66, 105
3, 21214, Note_on_c, 1, 66, 0
3, 21216, Note_on_c, 1, 67, 105
3, 21262, Note_on_c, 1, 67, 0
3, 21264, Note_on_c, 1, 62, 105
3, 21310, Note_on_c, 1, 62, 0
3, 21312, Note_on_c, 1, 59, 105
3, 21358, Note_on_c, 1, 59, 0
3, 21360, Note_on_c, 1, 62, 63
3, 21406, Note_on_c, 1, 62, 0
3, 21408, Note_on_c, 1, 55, 63
3, 21454, Note_on_c, 1, 55, 0
3, 21456, Note_on_c, 1, 59, 63
3, 21502, Note_on_c, 1, 59, 0
3, 21504, Note_on_c, 1, 52, 63
3, 21536, Note_on_c, 1, 52, 0
3, 21600, Note_on_c, 1, 60, 63
3, 21632, Note_on_c, 1, 60, 0
3, 21696, Note_on_c, 1, 52, 63
3, 21728, Note_on_c, 1, 52, 0
3, 21792, Note_on_c, 1, 60, 63
3, 21824, Note_on_c, 1, 60, 0
3, 21888, Note_on_c, 1, 53, 63
3, 21920, Note_on_c, 1, 53, 0
3, 21984, Note_on_c, 1, 60, 63
3, 22016, Note_on_c, 1, 60, 0
3, 22080, Note_on_c, 1, 52, 63
3, 22112, Note_on_c, 1, 52, 0
3, 22176, Note_on_c, 1, 60, 63
3, 22208, Note_on_c, 1, 60, 0
3, 22272, Note_on_c, 1, 50, 63
3, 22304, Note_on_c, 1, 50, 0
3, 22368, Note_on_c, 1, 59, 63
3, 22400, Note_on_c, 1, 59, 0
3, 22464, Note_on_c, 1, 48, 63
3, 22496, Note_on_c, 1, 48, 0
3, 22560, Note_on_c, 1, 57, 63
3, 22592, Note_on_c, 1, 57, 0
3, 22656, Note_on_c, 1, 47, 63
3, 22688, Note_on_c, 1, 47, 0
3, 22752, Note_on_c, 1, 53, 63
3, 22784, Note_on_c, 1, 53, 0
3, 22848, Note_on_c, 1, 52, 63
3, 22880, Note_on_c, 1, 52, 0
3, 22944, Note_on_c, 1, 50, 63
3, 22976, Note_on_c, 1, 50, 0
3, 23040, Note_on_c, 1, 48, 63
3, 23134, Note_on_c, 1, 48, 0
3, 23136, Note_on_c, 1, 52, 68
3, 23230, Note_on_c, 1, 52, 0
3, 23232, Note_on_c, 1, 53, 73
3, 23326, Note_on_c, 1, 53, 0
3, 23328, Note_on_c, 1, 57, 78
3, 23422, Note_on_c, 1, 57, 0
3, 23424, Note_on_c, 1, 53, 83
3, 23520, Note_on_c, 1, 53, 0
3, 23520, Note_on_c, 1, 50, 88
3, 23616, Note_on_c, 1, 50, 0
3, 23616, Note_on_c, 1, 55, 93
3, 23712, Note_on_c, 1, 55, 0
3, 23712, Note_on_c, 1, 53, 99
3, 23808, Note_on_c, 1, 53, 0
3, 23808, Note_on_c, 1, 52, 105
3, 23840, Note_on_c, 1, 52, 0
3, 23904, Note_on_c, 1, 57, 105
3, 23972, Note_on_c, 1, 57, 0
3, 24000, Note_on_c, 1, 53, 105
3, 24096, Note_on_c, 1, 53, 0
3, 24096, Note_on_c, 1, 55, 105
3, 24190, Note_on_c, 1, 55, 0
3, 24192, Note_on_c, 1, 48, 127
3, 24384, Note_on_c, 1, 48, 0
3, 24384, Note_on_c, 1, 36, 105
3, 24544, Note_on_c, 1, 36, 0
3, 24544, End_track
0, 0, End_of_file
