0, 0, Header, 1, 5, 1024
1, 0, Start_track
1, 0, Time_signature, 4, 2, 24, 8
1, 0, Key_signature, 1, "major"
1, 0, Tempo, 300000
1, 122881, End_track
2, 0, Start_track
2, 0, Title_t, "Instrument 1"
2, 0, Note_on_c, 0, 74, 96
2, 2048, Note_off_c, 0, 74, 0
2, 2048, Note_on_c, 0, 74, 96
2, 4096, Note_off_c, 0, 74, 0
2, 4096, Note_on_c, 0, 74, 96
2, 6144, Note_off_c, 0, 74, 0
2, 6144, Note_on_c, 0, 76, 96
2, 8192, Note_off_c, 0, 76, 0
2, 8192, Note_on_c, 0, 76, 96
2, 10240, Note_off_c, 0, 76, 0
2, 10240, Note_on_c, 0, 74, 96
2, 14336, Note_off_c, 0, 74, 0
2, 14336, Note_on_c, 0, 71, 96
2, 16384, Note_off_c, 0, 71, 0
2, 16384, Note_on_c, 0, 72, 96
2, 18432, Note_off_c, 0, 72, 0
2, 18432, Note_on_c, 0, 71, 96
2, 20480, Note_off_c, 0, 71, 0
2, 20480, Note_on_c, 0, 69, 96
2, 22528, Note_off_c, 0, 69, 0
2, 22528, Note_on_c, 0, 71, 96
2, 24576, Note_off_c, 0, 71, 0
2, 24576, Note_on_c, 0, 69, 96
2, 28672, Note_off_c, 0, 69, 0
2, 28672, Note_on_c, 0, 67, 96
2, 32768, Note_off_c, 0, 67, 0
2, 32768, Note_on_c, 0, 74, 96
2, 34816, Note_off_c, 0, 74, 0
2, 34816, Note_on_c, 0, 74, 96
2, 36864, Note_off_c, 0, 74, 0
2, 36864, Note_on_c, 0, 74, 96
2, 38912, Note_off_c, 0, 74, 0
2, 38912, Note_on_c, 0, 76, 96
2, 40960, Note_off_c, 0, 76, 0
2, 40960, Note_on_c, 0, 76, 96
2, 43008, Note_off_c, 0, 76, 0
2, 43008, Note_on_c, 0, 74, 96
2, 47104, Note_off_c, 0, 74, 0
2, 47104, Note_on_c, 0, 71, 96
2, 49152, Note_off_c, 0, 71, 0
2, 49152, Note_on_c, 0, 72, 96
2, 51200, Note_off_c, 0, 72, 0
2, 51200, Note_on_c, 0, 71, 96
2, 53248, Note_off_c, 0, 71, 0
2, 53248, Note_on_c, 0, 69, 96
2, 55296, Note_off_c, 0, 69, 0
2, 55296, Note_on_c, 0, 71, 96
2, 57344, Note_off_c, 0, 71, 0
2, 57344, Note_on_c, 0, 69, 96
2, 61440, Note_off_c, 0, 69, 0
2, 61440, Note_on_c, 0, 67, 96
2, 65536, Note_off_c, 0, 67, 0
2, 65536, Note_on_c, 0, 69, 96
2, 67584, Note_off_c, 0, 69, 0
2, 67584, Note_on_c, 0, 69, 96
2, 69632, Note_off_c, 0, 69, 0
2, 69632, Note_on_c, 0, 69, 96
2, 71680, Note_off_c, 0, 69, 0
2, 71680, Note_on_c, 0, 71, 96
2, 73728, Note_off_c, 0, 71, 0
2, 73728, Note_on_c, 0, 71, 96
2, 75776, Note_off_c, 0, 71, 0
2, 75776, Note_on_c, 0, 69, 96
2, 79872, Note_off_c, 0, 69, 0
2, 79872, Note_on_c, 0, 69, 96
2, 81920, Note_off_c, 0, 69, 0
2, 81920, Note_on_c, 0, 71, 96
2, 82944, Note_off_c, 0, 71, 0
2, 82944, Note_on_c, 0, 73, 96
2, 83968, Note_off_c, 0, 73, 0
2, 83968, Note_on_c, 0, 74, 96
2, 86016, Note_off_c, 0, 74, 0
2, 86016, Note_on_c, 0, 74, 96
2, 88064, Note_off_c, 0, 74, 0
2, 88064, Note_on_c, 0, 73, 96
2, 90112, Note_off_c, 0, 73, 0
2, 90112, Note_on_c, 0, 74, 96
2, 94208, Note_off_c, 0, 74, 0
2, 94208, Note_on_c, 0, 74, 96
2, 96256, Note_off_c, 0, 74, 0
2, 96256, Note_on_c, 0, 76, 96
2, 98304, Note_off_c, 0, 76, 0
2, 98304, Note_on_c, 0, 74, 96
2, 100352, Note_off_c, 0, 74, 0
2, 100352, Note_on_c, 0, 72, 96
2, 102400, Note_off_c, 0, 72, 0
2, 102400, Note_on_c, 0, 71, 96
2, 104448, Note_off_c, 0, 71, 0
2, 104448, Note_on_c, 0, 72, 96
2, 108544, Note_off_c, 0, 72, 0
2, 108544, Note_on_c, 0, 71, 96
2, 110592, Note_off_c, 0, 71, 0
2, 110592, Note_on_c, 0, 69, 96
2, 112640, Note_off_c, 0, 69, 0
2, 112640, Note_on_c, 0, 71, 96
2, 114688, Note_off_c, 0, 71, 0
2, 114688, Note_on_c, 0, 69, 96
2, 116736, Note_off_c, 0, 69, 0
2, 116736, Note_on_c, 0, 69, 96
2, 118784, Note_off_c, 0, 69, 0
2, 118784, Note_on_c, 0, 67, 96
2, 122880, Note_off_c, 0, 67, 0
2, 122881, End_track
3, 0, Start_track
3, 0, Title_t, "Instrument 2"
3, 0, Note_on_c, 1, 67, 96
3, 2048, Note_off_c, 1, 67, 0
3, 2048, Note_on_c, 1, 67, 96
3, 4096, Note_off_c, 1, 67, 0
3, 4096, Note_on_c, 1, 71, 96
3, 6144, Note_off_c, 1, 71, 0
3, 6144, Note_on_c, 1, 72, 96
3, 8192, Note_off_c, 1, 72, 0
3, 8192, Note_on_c, 1, 72, 96
3, 10240, Note_off_c, 1, 72, 0
3, 10240, Note_on_c, 1, 71, 96
3, 14336, Note_off_c, 1, 71, 0
3, 14336, Note_on_c, 1, 67, 96
3, 16384, Note_off_c, 1, 67, 0
3, 16384, Note_on_c, 1, 69, 96
3, 18432, Note_off_c, 1, 69, 0
3, 18432, Note_on_c, 1, 67, 96
3, 20480, Note_off_c, 1, 67, 0
3, 20480, Note_on_c, 1, 66, 96
3, 22528, Note_off_c, 1, 66, 0
3, 22528, Note_on_c, 1, 67, 96
3, 24576, Note_off_c, 1, 67, 0
3, 24576, Note_on_c, 1, 67, 96
3, 26624, Note_off_c, 1, 67, 0
3, 26624, Note_on_c, 1, 66, 96
3, 28672, Note_off_c, 1, 66, 0
3, 28672, Note_on_c, 1, 62, 96
3, 32768, Note_off_c, 1, 62, 0
3, 32768, Note_on_c, 1, 67, 96
3, 34816, Note_off_c, 1, 67, 0
3, 34816, Note_on_c, 1, 67, 96
3, 36864, Note_off_c, 1, 67, 0
3, 36864, Note_on_c, 1, 71, 96
3, 38912, Note_off_c, 1, 71, 0
3, 38912, Note_on_c, 1, 72, 96
3, 40960, Note_off_c, 1, 72, 0
3, 40960, Note_on_c, 1, 72, 96
3, 43008, Note_off_c, 1, 72, 0
3, 43008, Note_on_c, 1, 71, 96
3, 47104, Note_off_c, 1, 71, 0
3, 47104, Note_on_c, 1, 67, 96
3, 49152, Note_off_c, 1, 67, 0
3, 49152, Note_on_c, 1, 69, 96
3, 51200, Note_off_c, 1, 69, 0
3, 51200, Note_on_c, 1, 67, 96
3, 53248, Note_off_c, 1, 67, 0
3, 53248, Note_on_c, 1, 66, 96
3, 55296, Note_off_c, 1, 66, 0
3, 55296, Note_on_c, 1, 67, 96
3, 57344, Note_off_c, 1, 67, 0
3, 57344, Note_on_c, 1, 67, 96
3, 59392, Note_off_c, 1, 67, 0
3, 59392, Note_on_c, 1, 66, 96
3, 61440, Note_off_c, 1, 66, 0
3, 61440, Note_on_c, 1, 62, 96
3, 65536, Note_off_c, 1, 62, 0
3, 65536, Note_on_c, 1, 66, 96
3, 67584, Note_off_c, 1, 66, 0
3, 67584, Note_on_c, 1, 66, 96
3, 69632, Note_off_c, 1, 66, 0
3, 69632, Note_on_c, 1, 66, 96
3, 71680, Note_off_c, 1, 66, 0
3, 71680, Note_on_c, 1, 67, 96
3, 73728, Note_off_c, 1, 67, 0
3, 73728, Note_on_c, 1, 67, 96
3, 75776, Note_off_c, 1, 67, 0
3, 75776, Note_on_c, 1, 69, 96
3, 79872, Note_off_c, 1, 69, 0
3, 79872, Note_on_c, 1, 69, 96
3, 81920, Note_off_c, 1, 69, 0
3, 81920, Note_on_c, 1, 67, 96
3, 83968, Note_off_c, 1, 67, 0
3, 83968, Note_on_c, 1, 69, 96
3, 86016, Note_off_c, 1, 69, 0
3, 86016, Note_on_c, 1, 69, 96
3, 88064, Note_off_c, 1, 69, 0
3, 88064, Note_on_c, 1, 69, 96
3, 90112, Note_off_c, 1, 69, 0
3, 90112, Note_on_c, 1, 69, 96
3, 94208, Note_off_c, 1, 69, 0
3, 94208, Note_on_c, 1, 71, 96
3, 96256, Note_off_c, 1, 71, 0
3, 96256, Note_on_c, 1, 72, 96
3, 98304, Note_off_c, 1, 72, 0
3, 98304, Note_on_c, 1, 71, 96
3, 100352, Note_off_c, 1, 71, 0
3, 100352, Note_on_c, 1, 67, 96
3, 102400, Note_off_c, 1, 67, 0
3, 102400, Note_on_c, 1, 67, 96
3, 104448, Note_off_c, 1, 67, 0
3, 104448, Note_on_c, 1, 67, 96
3, 108544, Note_off_c, 1, 67, 0
3, 108544, Note_on_c, 1, 67, 96
3, 110592, Note_off_c, 1, 67, 0
3, 110592, Note_on_c, 1, 66, 96
3, 112640, Note_off_c, 1, 66, 0
3, 112640, Note_on_c, 1, 67, 96
3, 114688, Note_off_c, 1, 67, 0
3, 114688, Note_on_c, 1, 67, 96
3, 116736, Note_off_c, 1, 67, 0
3, 116736, Note_on_c, 1, 66, 96
3, 118784, Note_off_c, 1, 66, 0
3, 118784, Note_on_c, 1, 62, 96
3, 122880, Note_off_c, 1, 62, 0
3, 122881, End_track
4, 0, Start_track
4, 0, Title_t, "Instrument 3"
4, 0, Note_on_c, 2, 59, 96
4, 2048, Note_off_c, 2, 59, 0
4, 2048, Note_on_c, 2, 59, 96
4, 3072, Note_off_c, 2, 59, 0
4, 3072, Note_on_c, 2, 62, 96
4, 4096, Note_off_c, 2, 62, 0
4, 4096, Note_on_c, 2, 67, 96
4, 6144, Note_off_c, 2, 67, 0
4, 6144, Note_on_c, 2, 67, 96
4, 8192, Note_off_c, 2, 67, 0
4, 8192, Note_on_c, 2, 67, 96
4, 10240, Note_off_c, 2, 67, 0
4, 10240, Note_on_c, 2, 67, 96
4, 14336, Note_off_c, 2, 67, 0
4, 14336, Note_on_c, 2, 62, 96
4, 16384, Note_off_c, 2, 62, 0
4, 16384, Note_on_c, 2, 62, 96
4, 18432, Note_off_c, 2, 62, 0
4, 18432, Note_on_c, 2, 62, 96
4, 20480, Note_off_c, 2, 62, 0
4, 20480, Note_on_c, 2, 62, 96
4, 22528, Note_off_c, 2, 62, 0
4, 22528, Note_on_c, 2, 62, 96
4, 24576, Note_off_c, 2, 62, 0
4, 24576, Note_on_c, 2, 62, 96
4, 27648, Note_off_c, 2, 62, 0
4, 27648, Note_on_c, 2, 57, 96
4, 28672, Note_off_c, 2, 57, 0
4, 28672, Note_on_c, 2, 59, 96
4, 32768, Note_off_c, 2, 59, 0
4, 32768, Note_on_c, 2, 59, 96
4, 34816, Note_off_c, 2, 59, 0
4, 34816, Note_on_c, 2, 59, 96
4, 35840, Note_off_c, 2, 59, 0
4, 35840, Note_on_c, 2, 62, 96
4, 36864, Note_off_c, 2, 62, 0
4, 36864, Note_on_c, 2, 67, 96
4, 38912, Note_off_c, 2, 67, 0
4, 38912, Note_on_c, 2, 67, 96
4, 40960, Note_off_c, 2, 67, 0
4, 40960, Note_on_c, 2, 67, 96
4, 43008, Note_off_c, 2, 67, 0
4, 43008, Note_on_c, 2, 67, 96
4, 47104, Note_off_c, 2, 67, 0
4, 47104, Note_on_c, 2, 62, 96
4, 49152, Note_off_c, 2, 62, 0
4, 49152, Note_on_c, 2, 62, 96
4, 51200, Note_off_c, 2, 62, 0
4, 51200, Note_on_c, 2, 62, 96
4, 53248, Note_off_c, 2, 62, 0
4, 53248, Note_on_c, 2, 62, 96
4, 55296, Note_off_c, 2, 62, 0
4, 55296, Note_on_c, 2, 62, 96
4, 57344, Note_off_c, 2, 62, 0
4, 57344, Note_on_c, 2, 62, 96
4, 60416, Note_off_c, 2, 62, 0
4, 60416, Note_on_c, 2, 57, 96
4, 61440, Note_off_c, 2, 57, 0
4, 61440, Note_on_c, 2, 59, 96
4, 65536, Note_off_c, 2, 59, 0
4, 65536, Note_on_c, 2, 62, 96
4, 67584, Note_off_c, 2, 62, 0
4, 67584, Note_on_c, 2, 62, 96
4, 69632, Note_off_c, 2, 62, 0
4, 69632, Note_on_c, 2, 62, 96
4, 71680, Note_off_c, 2, 62, 0
4, 71680, Note_on_c, 2, 62, 96
4, 73728, Note_off_c, 2, 62, 0
4, 73728, Note_on_c, 2, 62, 96
4, 74752, Note_off_c, 2, 62, 0
4, 74752, Note_on_c, 2, 64, 96
4, 75776, Note_off_c, 2, 64, 0
4, 75776, Note_on_c, 2, 66, 96
4, 79872, Note_off_c, 2, 66, 0
4, 79872, Note_on_c, 2, 62, 96
4, 81920, Note_off_c, 2, 62, 0
4, 81920, Note_on_c, 2, 62, 96
4, 82944, Note_off_c, 2, 62, 0
4, 82944, Note_on_c, 2, 64, 96
4, 83968, Note_off_c, 2, 64, 0
4, 83968, Note_on_c, 2, 66, 96
4, 86016, Note_off_c, 2, 66, 0
4, 86016, Note_on_c, 2, 64, 96
4, 88064, Note_off_c, 2, 64, 0
4, 88064, Note_on_c, 2, 64, 96
4, 90112, Note_off_c, 2, 64, 0
4, 90112, Note_on_c, 2, 66, 96
4, 94208, Note_off_c, 2, 66, 0
4, 94208, Note_on_c, 2, 67, 96
4, 96256, Note_off_c, 2, 67, 0
4, 96256, Note_on_c, 2, 67, 96
4, 98304, Note_off_c, 2, 67, 0
4, 98304, Note_on_c, 2, 65, 96
4, 100352, Note_off_c, 2, 65, 0
4, 100352, Note_on_c, 2, 64, 96
4, 102400, Note_off_c, 2, 64, 0
4, 102400, Note_on_c, 2, 62, 96
4, 104448, Note_off_c, 2, 62, 0
4, 104448, Note_on_c, 2, 64, 96
4, 108544, Note_off_c, 2, 64, 0
4, 108544, Note_on_c, 2, 62, 96
4, 110592, Note_off_c, 2, 62, 0
4, 110592, Note_on_c, 2, 62, 96
4, 112640, Note_off_c, 2, 62, 0
4, 112640, Note_on_c, 2, 62, 96
4, 114688, Note_off_c, 2, 62, 0
4, 114688, Note_on_c, 2, 62, 96
4, 116736, Note_off_c, 2, 62, 0
4, 116736, Note_on_c, 2, 62, 96
4, 118784, Note_off_c, 2, 62, 0
4, 118784, Note_on_c, 2, 59, 96
4, 122880, Note_off_c, 2, 59, 0
4, 122881, End_track
5, 0, Start_track
5, 0, Title_t, "Instrument 4"
5, 0, Note_on_c, 3, 55, 96
5, 2048, Note_off_c, 3, 55, 0
5, 2048, Note_on_c, 3, 55, 96
5, 4096, Note_off_c, 3, 55, 0
5, 4096, Note_on_c, 3, 55, 96
5, 6144, Note_off_c, 3, 55, 0
5, 6144, Note_on_c, 3, 60, 96
5, 8192, Note_off_c, 3, 60, 0
5, 8192, Note_on_c, 3, 48, 96
5, 10240, Note_off_c, 3, 48, 0
5, 10240, Note_on_c, 3, 55, 96
5, 14336, Note_off_c, 3, 55, 0
5, 14336, Note_on_c, 3, 55, 96
5, 16384, Note_off_c, 3, 55, 0
5, 16384, Note_on_c, 3, 54, 96
5, 18432, Note_off_c, 3, 54, 0
5, 18432, Note_on_c, 3, 55, 96
5, 20480, Note_off_c, 3, 55, 0
5, 20480, Note_on_c, 3, 50, 96
5, 21504, Note_off_c, 3, 50, 0
5, 21504, Note_on_c, 3, 48, 96
5, 22528, Note_off_c, 3, 48, 0
5, 22528, Note_on_c, 3, 47, 96
5, 23552, Note_off_c, 3, 47, 0
5, 23552, Note_on_c, 3, 43, 96
5, 24576, Note_off_c, 3, 43, 0
5, 24576, Note_on_c, 3, 50, 96
5, 28672, Note_off_c, 3, 50, 0
5, 28672, Note_on_c, 3, 43, 96
5, 32768, Note_off_c, 3, 43, 0
5, 32768, Note_on_c, 3, 55, 96
5, 34816, Note_off_c, 3, 55, 0
5, 34816, Note_on_c, 3, 55, 96
5, 36864, Note_off_c, 3, 55, 0
5, 36864, Note_on_c, 3, 55, 96
5, 38912, Note_off_c, 3, 55, 0
5, 38912, Note_on_c, 3, 60, 96
5, 40960, Note_off_c, 3, 60, 0
5, 40960, Note_on_c, 3, 48, 96
5, 43008, Note_off_c, 3, 48, 0
5, 43008, Note_on_c, 3, 55, 96
5, 47104, Note_off_c, 3, 55, 0
5, 47104, Note_on_c, 3, 55, 96
5, 49152, Note_off_c, 3, 55, 0
5, 49152, Note_on_c, 3, 54, 96
5, 51200, Note_off_c, 3, 54, 0
5, 51200, Note_on_c, 3, 55, 96
5, 53248, Note_off_c, 3, 55, 0
5, 53248, Note_on_c, 3, 50, 96
5, 54272, Note_off_c, 3, 50, 0
5, 54272, Note_on_c, 3, 48, 96
5, 55296, Note_off_c, 3, 48, 0
5, 55296, Note_on_c, 3, 47, 96
5, 56320, Note_off_c, 3, 47, 0
5, 56320, Note_on_c, 3, 43, 96
5, 57344, Note_off_c, 3, 43, 0
5, 57344, Note_on_c, 3, 50, 96
5, 61440, Note_off_c, 3, 50, 0
5, 61440, Note_on_c, 3, 43, 96
5, 65536, Note_off_c, 3, 43, 0
5, 65536, Note_on_c, 3, 50, 96
5, 67584, Note_off_c, 3, 50, 0
5, 67584, Note_on_c, 3, 50, 96
5, 69632, Note_off_c, 3, 50, 0
5, 69632, Note_on_c, 3, 50, 96
5, 71680, Note_off_c, 3, 50, 0
5, 71680, Note_on_c, 3, 55, 96
5, 73728, Note_off_c, 3, 55, 0
5, 73728, Note_on_c, 3, 43, 96
5, 75776, Note_off_c, 3, 43, 0
5, 75776, Note_on_c, 3, 50, 96
5, 79872, Note_off_c, 3, 50, 0
5, 79872, Note_on_c, 3, 54, 96
5, 81920, Note_off_c, 3, 54, 0
5, 81920, Note_on_c, 3, 55, 96
5, 83968, Note_off_c, 3, 55, 0
5, 83968, Note_on_c, 3, 54, 96
5, 84992, Note_off_c, 3, 54, 0
5, 84992, Note_on_c, 3, 55, 96
5, 86016, Note_off_c, 3, 55, 0
5, 86016, Note_on_c, 3, 57, 96
5, 88064, Note_off_c, 3, 57, 0
5, 88064, Note_on_c, 3, 45, 96
5, 90112, Note_off_c, 3, 45, 0
5, 90112, Note_on_c, 3, 50, 96
5, 94208, Note_off_c, 3, 50, 0
5, 94208, Note_on_c, 3, 55, 96
5, 96256, Note_off_c, 3, 55, 0
5, 96256, Note_on_c, 3, 48, 96
5, 98304, Note_off_c, 3, 48, 0
5, 98304, Note_on_c, 3, 50, 96
5, 100352, Note_off_c, 3, 50, 0
5, 100352, Note_on_c, 3, 52, 96
5, 101376, Note_off_c, 3, 52, 0
5, 101376, Note_on_c, 3, 53, 96
5, 102400, Note_off_c, 3, 53, 0
5, 102400, Note_on_c, 3, 55, 96
5, 104448, Note_off_c, 3, 55, 0
5, 104448, Note_on_c, 3, 48, 96
5, 108544, Note_off_c, 3, 48, 0
5, 108544, Note_on_c, 3, 55, 96
5, 110592, Note_off_c, 3, 55, 0
5, 110592, Note_on_c, 3, 62, 96
5, 112640, Note_off_c, 3, 62, 0
5, 112640, Note_on_c, 3, 55, 96
5, 114688, Note_off_c, 3, 55, 0
5, 114688, Note_on_c, 3, 50, 96
5, 116736, Note_off_c, 3, 50, 0
5, 116736, Note_on_c, 3, 50, 96
5, 118784, Note_off_c, 3, 50, 0
5, 118784, Note_on_c, 3, 55, 96
5, 122880, Note_off_c, 3, 55, 0
5, 122881, End_track
0, 0, End_of_file
