0, 0, Header, 1, 4, 120
1, 0, Start_track
1, 0, Title_t, "Marche in G"
1, 0, Title_t, "from ""Anna Magdalena's Notebook"""
1, 0, Text_t, "Possibly composed by Carl Philipp Emanuel Bach\012"
1, 0, Text_t, "Compiled for Magdalena's Notebook by Johann Sebastian Bach\012"
1, 0, Text_t, "Programmed for MIDI by Lory Werths\012"
1, 0, Time_signature, 4, 2, 24, 8
1, 0, Key_signature, 1, "major"
1, 0, Tempo, 535714
1, 0, End_track
2, 0, Start_track
2, 0, Control_c, 0, 0, 127
2, 0, Control_c, 0, 7, 105
2, 0, Control_c, 0, 10, 32
2, 0, Program_c, 0, 20
2, 3, Control_c, 0, 0, 127
2, 4, Program_c, 0, 20
2, 480, Note_on_c, 0, 74, 100
2, 505, Note_on_c, 0, 74, 0
2, 540, Note_on_c, 0, 67, 100
2, 565, Note_on_c, 0, 67, 0
2, 600, Note_on_c, 0, 67, 100
2, 625, Note_on_c, 0, 67, 0
2, 660, Note_on_c, 0, 67, 100
2, 685, Note_on_c, 0, 67, 0
2, 720, Note_on_c, 0, 67, 100
2, 745, Note_on_c, 0, 67, 0
2, 780, Note_on_c, 0, 78, 100
2, 780, Note_on_c, 0, 69, 100
2, 839, Note_on_c, 0, 69, 0
2, 839, Note_on_c, 0, 78, 0
2, 840, Note_on_c, 0, 79, 100
2, 840, Note_on_c, 0, 71, 100
2, 899, Note_on_c, 0, 71, 0
2, 899, Note_on_c, 0, 79, 0
2, 900, Note_on_c, 0, 76, 100
2, 900, Note_on_c, 0, 72, 100
2, 959, Note_on_c, 0, 72, 0
2, 959, Note_on_c, 0, 76, 0
2, 960, Note_on_c, 0, 74, 100
2, 960, Note_on_c, 0, 71, 100
2, 985, Note_on_c, 0, 71, 0
2, 985, Note_on_c, 0, 74, 0
2, 1020, Note_on_c, 0, 67, 100
2, 1045, Note_on_c, 0, 67, 0
2, 1080, Note_on_c, 0, 67, 100
2, 1105, Note_on_c, 0, 67, 0
2, 1140, Note_on_c, 0, 67, 100
2, 1165, Note_on_c, 0, 67, 0
2, 1200, Note_on_c, 0, 67, 100
2, 1225, Note_on_c, 0, 67, 0
2, 1260, Note_on_c, 0, 74, 100
2, 1260, Note_on_c, 0, 71, 100
2, 1319, Note_on_c, 0, 71, 0
2, 1319, Note_on_c, 0, 74, 0
2, 1320, Note_on_c, 0, 76, 100
2, 1320, Note_on_c, 0, 72, 100
2, 1379, Note_on_c, 0, 72, 0
2, 1379, Note_on_c, 0, 76, 0
2, 1380, Note_on_c, 0, 72, 100
2, 1380, Note_on_c, 0, 69, 100
2, 1439, Note_on_c, 0, 69, 0
2, 1439, Note_on_c, 0, 72, 0
2, 1440, Note_on_c, 0, 71, 100
2, 1440, Note_on_c, 0, 67, 100
2, 1465, Note_on_c, 0, 67, 0
2, 1465, Note_on_c, 0, 71, 0
2, 1500, Note_on_c, 0, 67, 100
2, 1525, Note_on_c, 0, 67, 0
2, 1560, Note_on_c, 0, 71, 100
2, 1585, Note_on_c, 0, 71, 0
2, 1620, Note_on_c, 0, 74, 100
2, 1645, Note_on_c, 0, 74, 0
2, 1680, Note_on_c, 0, 79, 100
2, 1705, Note_on_c, 0, 79, 0
2, 1740, Note_on_c, 0, 74, 100
2, 1765, Note_on_c, 0, 74, 0
2, 1800, Note_on_c, 0, 79, 100
2, 1859, Note_on_c, 0, 79, 0
2, 1860, Note_on_c, 0, 81, 100
2, 1889, Note_on_c, 0, 81, 0
2, 1890, Note_on_c, 0, 83, 100
2, 1919, Note_on_c, 0, 83, 0
2, 1920, Note_on_c, 0, 81, 100
2, 1945, Note_on_c, 0, 81, 0
2, 1980, Note_on_c, 0, 79, 100
2, 2005, Note_on_c, 0, 79, 0
2, 2040, Note_on_c, 0, 78, 100
2, 2065, Note_on_c, 0, 78, 0
2, 2100, Note_on_c, 0, 76, 100
2, 2125, Note_on_c, 0, 76, 0
2, 2160, Note_on_c, 0, 74, 100
2, 2279, Note_on_c, 0, 74, 0
2, 2280, Note_on_c, 0, 72, 100
2, 2399, Note_on_c, 0, 72, 0
2, 2400, Note_on_c, 0, 71, 100
2, 2459, Note_on_c, 0, 71, 0
2, 2460, Note_on_c, 0, 67, 100
2, 2485, Note_on_c, 0, 67, 0
2, 2520, Note_on_c, 0, 67, 100
2, 2545, Note_on_c, 0, 67, 0
2, 2580, Note_on_c, 0, 79, 100
2, 2605, Note_on_c, 0, 79, 0
2, 2640, Note_on_c, 0, 79, 100
2, 2699, Note_on_c, 0, 79, 0
2, 2700, Note_on_c, 0, 67, 100
2, 2725, Note_on_c, 0, 67, 0
2, 2760, Note_on_c, 0, 67, 100
2, 2785, Note_on_c, 0, 67, 0
2, 2820, Note_on_c, 0, 79, 100
2, 2845, Note_on_c, 0, 79, 0
2, 2880, Note_on_c, 0, 79, 100
2, 2939, Note_on_c, 0, 79, 0
2, 2940, Note_on_c, 0, 72, 100
2, 2965, Note_on_c, 0, 72, 0
2, 3000, Note_on_c, 0, 72, 100
2, 3025, Note_on_c, 0, 72, 0
2, 3060, Note_on_c, 0, 79, 100
2, 3119, Note_on_c, 0, 79, 0
2, 3120, Note_on_c, 0, 79, 100
2, 3179, Note_on_c, 0, 79, 0
2, 3180, Note_on_c, 0, 69, 100
2, 3205, Note_on_c, 0, 69, 0
2, 3240, Note_on_c, 0, 69, 100
2, 3265, Note_on_c, 0, 69, 0
2, 3300, Note_on_c, 0, 79, 100
2, 3359, Note_on_c, 0, 79, 0
2, 3360, Note_on_c, 0, 78, 100
2, 3479, Note_on_c, 0, 78, 0
2, 3480, Note_on_c, 0, 76, 100
2, 3539, Note_on_c, 0, 76, 0
2, 3540, Note_on_c, 0, 74, 100
2, 3599, Note_on_c, 0, 74, 0
2, 3600, Note_on_c, 0, 73, 100
2, 3620, Note_on_c, 0, 73, 0
2, 3620, Note_on_c, 0, 74, 100
2, 3640, Note_on_c, 0, 74, 0
2, 3640, Note_on_c, 0, 73, 100
2, 3660, Note_on_c, 0, 73, 0
2, 3660, Note_on_c, 0, 74, 100
2, 3680, Note_on_c, 0, 74, 0
2, 3680, Note_on_c, 0, 73, 100
2, 3700, Note_on_c, 0, 73, 0
2, 3700, Note_on_c, 0, 74, 100
2, 3720, Note_on_c, 0, 74, 0
2, 3720, Note_on_c, 0, 73, 100
2, 3740, Note_on_c, 0, 73, 0
2, 3740, Note_on_c, 0, 74, 100
2, 3760, Note_on_c, 0, 74, 0
2, 3760, Note_on_c, 0, 73, 100
2, 3780, Note_on_c, 0, 73, 0
2, 3780, Note_on_c, 0, 74, 100
2, 3839, Note_on_c, 0, 74, 0
2, 3840, Note_on_c, 0, 74, 100
2, 3899, Note_on_c, 0, 74, 0
2, 3900, Note_on_c, 0, 69, 100
2, 3925, Note_on_c, 0, 69, 0
2, 3960, Note_on_c, 0, 69, 100
2, 3985, Note_on_c, 0, 69, 0
2, 4020, Note_on_c, 0, 66, 100
2, 4045, Note_on_c, 0, 66, 0
2, 4080, Note_on_c, 0, 66, 100
2, 4139, Note_on_c, 0, 66, 0
2, 4140, Note_on_c, 0, 69, 100
2, 4165, Note_on_c, 0, 69, 0
2, 4200, Note_on_c, 0, 69, 100
2, 4225, Note_on_c, 0, 69, 0
2, 4260, Note_on_c, 0, 66, 100
2, 4285, Note_on_c, 0, 66, 0
2, 4320, Note_on_c, 0, 62, 100
2, 4799, Note_on_c, 0, 62, 0
2, 4800, Note_on_c, 0, 74, 100
2, 4825, Note_on_c, 0, 74, 0
2, 4860, Note_on_c, 0, 67, 100
2, 4885, Note_on_c, 0, 67, 0
2, 4920, Note_on_c, 0, 67, 100
2, 4945, Note_on_c, 0, 67, 0
2, 4980, Note_on_c, 0, 67, 100
2, 5005, Note_on_c, 0, 67, 0
2, 5040, Note_on_c, 0, 67, 100
2, 5065, Note_on_c, 0, 67, 0
2, 5100, Note_on_c, 0, 78, 100
2, 5100, Note_on_c, 0, 69, 100
2, 5159, Note_on_c, 0, 69, 0
2, 5159, Note_on_c, 0, 78, 0
2, 5160, Note_on_c, 0, 79, 100
2, 5160, Note_on_c, 0, 71, 100
2, 5219, Note_on_c, 0, 71, 0
2, 5219, Note_on_c, 0, 79, 0
2, 5220, Note_on_c, 0, 76, 100
2, 5220, Note_on_c, 0, 72, 100
2, 5279, Note_on_c, 0, 72, 0
2, 5279, Note_on_c, 0, 76, 0
2, 5280, Note_on_c, 0, 74, 100
2, 5280, Note_on_c, 0, 71, 100
2, 5305, Note_on_c, 0, 71, 0
2, 5305, Note_on_c, 0, 74, 0
2, 5340, Note_on_c, 0, 67, 100
2, 5365, Note_on_c, 0, 67, 0
2, 5400, Note_on_c, 0, 67, 100
2, 5425, Note_on_c, 0, 67, 0
2, 5460, Note_on_c, 0, 67, 100
2, 5485, Note_on_c, 0, 67, 0
2, 5520, Note_on_c, 0, 67, 100
2, 5545, Note_on_c, 0, 67, 0
2, 5580, Note_on_c, 0, 74, 100
2, 5580, Note_on_c, 0, 71, 100
2, 5639, Note_on_c, 0, 71, 0
2, 5639, Note_on_c, 0, 74, 0
2, 5640, Note_on_c, 0, 76, 100
2, 5640, Note_on_c, 0, 72, 100
2, 5699, Note_on_c, 0, 72, 0
2, 5699, Note_on_c, 0, 76, 0
2, 5700, Note_on_c, 0, 72, 100
2, 5700, Note_on_c, 0, 69, 100
2, 5759, Note_on_c, 0, 69, 0
2, 5759, Note_on_c, 0, 72, 0
2, 5760, Note_on_c, 0, 71, 100
2, 5760, Note_on_c, 0, 67, 100
2, 5785, Note_on_c, 0, 67, 0
2, 5785, Note_on_c, 0, 71, 0
2, 5820, Note_on_c, 0, 67, 100
2, 5845, Note_on_c, 0, 67, 0
2, 5880, Note_on_c, 0, 71, 100
2, 5905, Note_on_c, 0, 71, 0
2, 5940, Note_on_c, 0, 74, 100
2, 5965, Note_on_c, 0, 74, 0
2, 6000, Note_on_c, 0, 79, 100
2, 6025, Note_on_c, 0, 79, 0
2, 6060, Note_on_c, 0, 74, 100
2, 6085, Note_on_c, 0, 74, 0
2, 6120, Note_on_c, 0, 79, 100
2, 6179, Note_on_c, 0, 79, 0
2, 6180, Note_on_c, 0, 81, 100
2, 6209, Note_on_c, 0, 81, 0
2, 6210, Note_on_c, 0, 83, 100
2, 6239, Note_on_c, 0, 83, 0
2, 6240, Note_on_c, 0, 81, 100
2, 6265, Note_on_c, 0, 81, 0
2, 6300, Note_on_c, 0, 79, 100
2, 6325, Note_on_c, 0, 79, 0
2, 6360, Note_on_c, 0, 78, 100
2, 6385, Note_on_c, 0, 78, 0
2, 6420, Note_on_c, 0, 76, 100
2, 6445, Note_on_c, 0, 76, 0
2, 6480, Note_on_c, 0, 74, 100
2, 6599, Note_on_c, 0, 74, 0
2, 6600, Note_on_c, 0, 72, 100
2, 6719, Note_on_c, 0, 72, 0
2, 6720, Note_on_c, 0, 71, 100
2, 6779, Note_on_c, 0, 71, 0
2, 6780, Note_on_c, 0, 67, 100
2, 6805, Note_on_c, 0, 67, 0
2, 6840, Note_on_c, 0, 67, 100
2, 6865, Note_on_c, 0, 67, 0
2, 6900, Note_on_c, 0, 79, 100
2, 6925, Note_on_c, 0, 79, 0
2, 6960, Note_on_c, 0, 79, 100
2, 7019, Note_on_c, 0, 79, 0
2, 7020, Note_on_c, 0, 67, 100
2, 7045, Note_on_c, 0, 67, 0
2, 7080, Note_on_c, 0, 67, 100
2, 7105, Note_on_c, 0, 67, 0
2, 7140, Note_on_c, 0, 79, 100
2, 7165, Note_on_c, 0, 79, 0
2, 7200, Note_on_c, 0, 79, 100
2, 7259, Note_on_c, 0, 79, 0
2, 7260, Note_on_c, 0, 72, 100
2, 7285, Note_on_c, 0, 72, 0
2, 7320, Note_on_c, 0, 72, 100
2, 7345, Note_on_c, 0, 72, 0
2, 7380, Note_on_c, 0, 79, 100
2, 7439, Note_on_c, 0, 79, 0
2, 7440, Note_on_c, 0, 79, 100
2, 7499, Note_on_c, 0, 79, 0
2, 7500, Note_on_c, 0, 69, 100
2, 7525, Note_on_c, 0, 69, 0
2, 7560, Note_on_c, 0, 69, 100
2, 7585, Note_on_c, 0, 69, 0
2, 7620, Note_on_c, 0, 79, 100
2, 7679, Note_on_c, 0, 79, 0
2, 7680, Note_on_c, 0, 78, 100
2, 7799, Note_on_c, 0, 78, 0
2, 7800, Note_on_c, 0, 76, 100
2, 7859, Note_on_c, 0, 76, 0
2, 7860, Note_on_c, 0, 74, 100
2, 7919, Note_on_c, 0, 74, 0
2, 7920, Note_on_c, 0, 73, 100
2, 7940, Note_on_c, 0, 73, 0
2, 7940, Note_on_c, 0, 74, 100
2, 7960, Note_on_c, 0, 74, 0
2, 7960, Note_on_c, 0, 73, 100
2, 7980, Note_on_c, 0, 73, 0
2, 7980, Note_on_c, 0, 74, 100
2, 8000, Note_on_c, 0, 74, 0
2, 8000, Note_on_c, 0, 73, 100
2, 8020, Note_on_c, 0, 73, 0
2, 8020, Note_on_c, 0, 74, 100
2, 8040, Note_on_c, 0, 74, 0
2, 8040, Note_on_c, 0, 73, 100
2, 8060, Note_on_c, 0, 73, 0
2, 8060, Note_on_c, 0, 74, 100
2, 8080, Note_on_c, 0, 74, 0
2, 8080, Note_on_c, 0, 73, 100
2, 8100, Note_on_c, 0, 73, 0
2, 8100, Note_on_c, 0, 74, 100
2, 8159, Note_on_c, 0, 74, 0
2, 8160, Note_on_c, 0, 74, 100
2, 8219, Note_on_c, 0, 74, 0
2, 8220, Note_on_c, 0, 69, 100
2, 8245, Note_on_c, 0, 69, 0
2, 8280, Note_on_c, 0, 69, 100
2, 8305, Note_on_c, 0, 69, 0
2, 8340, Note_on_c, 0, 66, 100
2, 8365, Note_on_c, 0, 66, 0
2, 8400, Note_on_c, 0, 66, 100
2, 8459, Note_on_c, 0, 66, 0
2, 8460, Note_on_c, 0, 69, 100
2, 8485, Note_on_c, 0, 69, 0
2, 8520, Note_on_c, 0, 69, 100
2, 8545, Note_on_c, 0, 69, 0
2, 8580, Note_on_c, 0, 66, 100
2, 8605, Note_on_c, 0, 66, 0
2, 8640, Note_on_c, 0, 62, 100
2, 9119, Note_on_c, 0, 62, 0
2, 9120, Note_on_c, 0, 74, 100
2, 9179, Note_on_c, 0, 74, 0
2, 9180, Note_on_c, 0, 69, 100
2, 9205, Note_on_c, 0, 69, 0
2, 9240, Note_on_c, 0, 69, 100
2, 9265, Note_on_c, 0, 69, 0
2, 9300, Note_on_c, 0, 69, 100
2, 9325, Note_on_c, 0, 69, 0
2, 9360, Note_on_c, 0, 74, 100
2, 9419, Note_on_c, 0, 74, 0
2, 9420, Note_on_c, 0, 66, 100
2, 9445, Note_on_c, 0, 66, 0
2, 9480, Note_on_c, 0, 66, 100
2, 9505, Note_on_c, 0, 66, 0
2, 9540, Note_on_c, 0, 66, 100
2, 9565, Note_on_c, 0, 66, 0
2, 9600, Note_on_c, 0, 74, 100
2, 9659, Note_on_c, 0, 74, 0
2, 9660, Note_on_c, 0, 62, 100
2, 9685, Note_on_c, 0, 62, 0
2, 9720, Note_on_c, 0, 62, 100
2, 9745, Note_on_c, 0, 62, 0
2, 9780, Note_on_c, 0, 62, 100
2, 9805, Note_on_c, 0, 62, 0
2, 9840, Note_on_c, 0, 62, 100
2, 9899, Note_on_c, 0, 62, 0
2, 9900, Note_on_c, 0, 64, 100
2, 9959, Note_on_c, 0, 64, 0
2, 9960, Note_on_c, 0, 66, 100
2, 10019, Note_on_c, 0, 66, 0
2, 10020, Note_on_c, 0, 67, 100
2, 10079, Note_on_c, 0, 67, 0
2, 10080, Note_on_c, 0, 69, 100
2, 10139, Note_on_c, 0, 69, 0
2, 10140, Note_on_c, 0, 67, 100
2, 10199, Note_on_c, 0, 67, 0
2, 10200, Note_on_c, 0, 69, 100
2, 10259, Note_on_c, 0, 69, 0
2, 10260, Note_on_c, 0, 71, 100
2, 10319, Note_on_c, 0, 71, 0
2, 10320, Note_on_c, 0, 72, 100
2, 10379, Note_on_c, 0, 72, 0
2, 10380, Note_on_c, 0, 71, 100
2, 10439, Note_on_c, 0, 71, 0
2, 10440, Note_on_c, 0, 72, 100
2, 10499, Note_on_c, 0, 72, 0
2, 10500, Note_on_c, 0, 74, 100
2, 10559, Note_on_c, 0, 74, 0
2, 10560, Note_on_c, 0, 72, 100
2, 10619, Note_on_c, 0, 72, 0
2, 10620, Note_on_c, 0, 71, 100
2, 10679, Note_on_c, 0, 71, 0
2, 10680, Note_on_c, 0, 69, 100
2, 10739, Note_on_c, 0, 69, 0
2, 10740, Note_on_c, 0, 71, 100
2, 10799, Note_on_c, 0, 71, 0
2, 10800, Note_on_c, 0, 67, 100
2, 10859, Note_on_c, 0, 67, 0
2, 10860, Note_on_c, 0, 74, 100
2, 10919, Note_on_c, 0, 74, 0
2, 10920, Note_on_c, 0, 76, 100
2, 10979, Note_on_c, 0, 76, 0
2, 10980, Note_on_c, 0, 78, 100
2, 11039, Note_on_c, 0, 78, 0
2, 11040, Note_on_c, 0, 79, 100
2, 11099, Note_on_c, 0, 79, 0
2, 11100, Note_on_c, 0, 74, 100
2, 11125, Note_on_c, 0, 74, 0
2, 11160, Note_on_c, 0, 74, 100
2, 11185, Note_on_c, 0, 74, 0
2, 11220, Note_on_c, 0, 74, 100
2, 11245, Note_on_c, 0, 74, 0
2, 11280, Note_on_c, 0, 79, 100
2, 11339, Note_on_c, 0, 79, 0
2, 11340, Note_on_c, 0, 71, 100
2, 11365, Note_on_c, 0, 71, 0
2, 11400, Note_on_c, 0, 71, 100
2, 11425, Note_on_c, 0, 71, 0
2, 11460, Note_on_c, 0, 71, 100
2, 11485, Note_on_c, 0, 71, 0
2, 11520, Note_on_c, 0, 79, 100
2, 11579, Note_on_c, 0, 79, 0
2, 11580, Note_on_c, 0, 67, 100
2, 11605, Note_on_c, 0, 67, 0
2, 11640, Note_on_c, 0, 67, 100
2, 11665, Note_on_c, 0, 67, 0
2, 11700, Note_on_c, 0, 67, 100
2, 11725, Note_on_c, 0, 67, 0
2, 11760, Note_on_c, 0, 67, 100
2, 11819, Note_on_c, 0, 67, 0
2, 11820, Note_on_c, 0, 69, 100
2, 11879, Note_on_c, 0, 69, 0
2, 11880, Note_on_c, 0, 71, 100
2, 11939, Note_on_c, 0, 71, 0
2, 11940, Note_on_c, 0, 72, 100
2, 11999, Note_on_c, 0, 72, 0
2, 12000, Note_on_c, 0, 74, 100
2, 12059, Note_on_c, 0, 74, 0
2, 12060, Note_on_c, 0, 72, 100
2, 12119, Note_on_c, 0, 72, 0
2, 12120, Note_on_c, 0, 74, 100
2, 12179, Note_on_c, 0, 74, 0
2, 12180, Note_on_c, 0, 76, 100
2, 12239, Note_on_c, 0, 76, 0
2, 12240, Note_on_c, 0, 77, 100
2, 12299, Note_on_c, 0, 77, 0
2, 12300, Note_on_c, 0, 76, 100
2, 12359, Note_on_c, 0, 76, 0
2, 12360, Note_on_c, 0, 77, 100
2, 12419, Note_on_c, 0, 77, 0
2, 12420, Note_on_c, 0, 79, 100
2, 12479, Note_on_c, 0, 79, 0
2, 12480, Note_on_c, 0, 77, 100
2, 12539, Note_on_c, 0, 77, 0
2, 12540, Note_on_c, 0, 76, 100
2, 12599, Note_on_c, 0, 76, 0
2, 12600, Note_on_c, 0, 74, 100
2, 12659, Note_on_c, 0, 74, 0
2, 12660, Note_on_c, 0, 76, 100
2, 12719, Note_on_c, 0, 76, 0
2, 12720, Note_on_c, 0, 72, 100
2, 12779, Note_on_c, 0, 72, 0
2, 12780, Note_on_c, 0, 71, 100
2, 12839, Note_on_c, 0, 71, 0
2, 12840, Note_on_c, 0, 72, 100
2, 12899, Note_on_c, 0, 72, 0
2, 12900, Note_on_c, 0, 74, 100
2, 12959, Note_on_c, 0, 74, 0
2, 12960, Note_on_c, 0, 76, 100
2, 13019, Note_on_c, 0, 76, 0
2, 13020, Note_on_c, 0, 72, 100
2, 13045, Note_on_c, 0, 72, 0
2, 13080, Note_on_c, 0, 72, 100
2, 13105, Note_on_c, 0, 72, 0
2, 13140, Note_on_c, 0, 69, 100
2, 13165, Note_on_c, 0, 69, 0
2, 13200, Note_on_c, 0, 69, 100
2, 13259, Note_on_c, 0, 69, 0
2, 13260, Note_on_c, 0, 78, 100
2, 13285, Note_on_c, 0, 78, 0
2, 13320, Note_on_c, 0, 78, 100
2, 13345, Note_on_c, 0, 78, 0
2, 13380, Note_on_c, 0, 79, 100
2, 13405, Note_on_c, 0, 79, 0
2, 13440, Note_on_c, 0, 74, 100
2, 13499, Note_on_c, 0, 74, 0
2, 13500, Note_on_c, 0, 71, 100
2, 13525, Note_on_c, 0, 71, 0
2, 13560, Note_on_c, 0, 71, 100
2, 13585, Note_on_c, 0, 71, 0
2, 13620, Note_on_c, 0, 67, 100
2, 13645, Note_on_c, 0, 67, 0
2, 13680, Note_on_c, 0, 67, 100
2, 13739, Note_on_c, 0, 67, 0
2, 13740, Note_on_c, 0, 78, 100
2, 13765, Note_on_c, 0, 78, 0
2, 13800, Note_on_c, 0, 78, 100
2, 13825, Note_on_c, 0, 78, 0
2, 13860, Note_on_c, 0, 79, 100
2, 13885, Note_on_c, 0, 79, 0
2, 13920, Note_on_c, 0, 72, 100
2, 14039, Note_on_c, 0, 72, 0
2, 14040, Note_on_c, 0, 71, 100
2, 14099, Note_on_c, 0, 71, 0
2, 14100, Note_on_c, 0, 69, 100
2, 14159, Note_on_c, 0, 69, 0
2, 14160, Note_on_c, 0, 71, 100
2, 14180, Note_on_c, 0, 71, 0
2, 14180, Note_on_c, 0, 69, 100
2, 14200, Note_on_c, 0, 69, 0
2, 14200, Note_on_c, 0, 71, 100
2, 14220, Note_on_c, 0, 71, 0
2, 14220, Note_on_c, 0, 69, 100
2, 14240, Note_on_c, 0, 69, 0
2, 14240, Note_on_c, 0, 71, 100
2, 14260, Note_on_c, 0, 71, 0
2, 14260, Note_on_c, 0, 69, 100
2, 14280, Note_on_c, 0, 69, 0
2, 14280, Note_on_c, 0, 71, 100
2, 14300, Note_on_c, 0, 71, 0
2, 14300, Note_on_c, 0, 69, 100
2, 14339, Note_on_c, 0, 69, 0
2, 14340, Note_on_c, 0, 67, 100
2, 14399, Note_on_c, 0, 67, 0
2, 14400, Note_on_c, 0, 67, 100
2, 14459, Note_on_c, 0, 67, 0
2, 14460, Note_on_c, 0, 62, 100
2, 14485, Note_on_c, 0, 62, 0
2, 14520, Note_on_c, 0, 62, 100
2, 14545, Note_on_c, 0, 62, 0
2, 14580, Note_on_c, 0, 59, 100
2, 14605, Note_on_c, 0, 59, 0
2, 14640, Note_on_c, 0, 59, 100
2, 14699, Note_on_c, 0, 59, 0
2, 14700, Note_on_c, 0, 62, 100
2, 14725, Note_on_c, 0, 62, 0
2, 14760, Note_on_c, 0, 62, 100
2, 14785, Note_on_c, 0, 62, 0
2, 14820, Note_on_c, 0, 59, 100
2, 14845, Note_on_c, 0, 59, 0
2, 14880, Note_on_c, 0, 55, 100
2, 15359, Note_on_c, 0, 55, 0
2, 15360, Note_on_c, 0, 74, 100
2, 15419, Note_on_c, 0, 74, 0
2, 15420, Note_on_c, 0, 69, 100
2, 15445, Note_on_c, 0, 69, 0
2, 15480, Note_on_c, 0, 69, 100
2, 15505, Note_on_c, 0, 69, 0
2, 15540, Note_on_c, 0, 69, 100
2, 15565, Note_on_c, 0, 69, 0
2, 15600, Note_on_c, 0, 74, 100
2, 15659, Note_on_c, 0, 74, 0
2, 15660, Note_on_c, 0, 66, 100
2, 15685, Note_on_c, 0, 66, 0
2, 15720, Note_on_c, 0, 66, 100
2, 15745, Note_on_c, 0, 66, 0
2, 15780, Note_on_c, 0, 66, 100
2, 15805, Note_on_c, 0, 66, 0
2, 15840, Note_on_c, 0, 74, 100
2, 15899, Note_on_c, 0, 74, 0
2, 15900, Note_on_c, 0, 62, 100
2, 15925, Note_on_c, 0, 62, 0
2, 15960, Note_on_c, 0, 62, 100
2, 15985, Note_on_c, 0, 62, 0
2, 16020, Note_on_c, 0, 62, 100
2, 16045, Note_on_c, 0, 62, 0
2, 16080, Note_on_c, 0, 62, 100
2, 16139, Note_on_c, 0, 62, 0
2, 16140, Note_on_c, 0, 64, 100
2, 16199, Note_on_c, 0, 64, 0
2, 16200, Note_on_c, 0, 66, 100
2, 16259, Note_on_c, 0, 66, 0
2, 16260, Note_on_c, 0, 67, 100
2, 16319, Note_on_c, 0, 67, 0
2, 16320, Note_on_c, 0, 69, 100
2, 16379, Note_on_c, 0, 69, 0
2, 16380, Note_on_c, 0, 67, 100
2, 16439, Note_on_c, 0, 67, 0
2, 16440, Note_on_c, 0, 69, 100
2, 16499, Note_on_c, 0, 69, 0
2, 16500, Note_on_c, 0, 71, 100
2, 16559, Note_on_c, 0, 71, 0
2, 16560, Note_on_c, 0, 72, 100
2, 16619, Note_on_c, 0, 72, 0
2, 16620, Note_on_c, 0, 71, 100
2, 16679, Note_on_c, 0, 71, 0
2, 16680, Note_on_c, 0, 72, 100
2, 16739, Note_on_c, 0, 72, 0
2, 16740, Note_on_c, 0, 74, 100
2, 16799, Note_on_c, 0, 74, 0
2, 16800, Note_on_c, 0, 72, 100
2, 16859, Note_on_c, 0, 72, 0
2, 16860, Note_on_c, 0, 71, 100
2, 16919, Note_on_c, 0, 71, 0
2, 16920, Note_on_c, 0, 69, 100
2, 16979, Note_on_c, 0, 69, 0
2, 16980, Note_on_c, 0, 71, 100
2, 17039, Note_on_c, 0, 71, 0
2, 17040, Note_on_c, 0, 67, 100
2, 17099, Note_on_c, 0, 67, 0
2, 17100, Note_on_c, 0, 74, 100
2, 17159, Note_on_c, 0, 74, 0
2, 17160, Note_on_c, 0, 76, 100
2, 17219, Note_on_c, 0, 76, 0
2, 17220, Note_on_c, 0, 78, 100
2, 17279, Note_on_c, 0, 78, 0
2, 17280, Note_on_c, 0, 79, 100
2, 17339, Note_on_c, 0, 79, 0
2, 17340, Note_on_c, 0, 74, 100
2, 17365, Note_on_c, 0, 74, 0
2, 17400, Note_on_c, 0, 74, 100
2, 17425, Note_on_c, 0, 74, 0
2, 17460, Note_on_c, 0, 74, 100
2, 17485, Note_on_c, 0, 74, 0
2, 17520, Note_on_c, 0, 79, 100
2, 17579, Note_on_c, 0, 79, 0
2, 17580, Note_on_c, 0, 71, 100
2, 17605, Note_on_c, 0, 71, 0
2, 17640, Note_on_c, 0, 71, 100
2, 17665, Note_on_c, 0, 71, 0
2, 17700, Note_on_c, 0, 71, 100
2, 17725, Note_on_c, 0, 71, 0
2, 17760, Note_on_c, 0, 79, 100
2, 17819, Note_on_c, 0, 79, 0
2, 17820, Note_on_c, 0, 67, 100
2, 17845, Note_on_c, 0, 67, 0
2, 17880, Note_on_c, 0, 67, 100
2, 17905, Note_on_c, 0, 67, 0
2, 17940, Note_on_c, 0, 67, 100
2, 17965, Note_on_c, 0, 67, 0
2, 18000, Note_on_c, 0, 67, 100
2, 18059, Note_on_c, 0, 67, 0
2, 18060, Note_on_c, 0, 69, 100
2, 18119, Note_on_c, 0, 69, 0
2, 18120, Note_on_c, 0, 71, 100
2, 18179, Note_on_c, 0, 71, 0
2, 18180, Note_on_c, 0, 72, 100
2, 18239, Note_on_c, 0, 72, 0
2, 18240, Note_on_c, 0, 74, 100
2, 18299, Note_on_c, 0, 74, 0
2, 18300, Note_on_c, 0, 72, 100
2, 18359, Note_on_c, 0, 72, 0
2, 18360, Note_on_c, 0, 74, 100
2, 18419, Note_on_c, 0, 74, 0
2, 18420, Note_on_c, 0, 76, 100
2, 18479, Note_on_c, 0, 76, 0
2, 18480, Note_on_c, 0, 77, 100
2, 18539, Note_on_c, 0, 77, 0
2, 18540, Note_on_c, 0, 76, 100
2, 18599, Note_on_c, 0, 76, 0
2, 18600, Note_on_c, 0, 77, 100
2, 18659, Note_on_c, 0, 77, 0
2, 18660, Note_on_c, 0, 79, 100
2, 18719, Note_on_c, 0, 79, 0
2, 18720, Note_on_c, 0, 77, 100
2, 18779, Note_on_c, 0, 77, 0
2, 18780, Note_on_c, 0, 76, 100
2, 18839, Note_on_c, 0, 76, 0
2, 18840, Note_on_c, 0, 74, 100
2, 18899, Note_on_c, 0, 74, 0
2, 18900, Note_on_c, 0, 76, 100
2, 18959, Note_on_c, 0, 76, 0
2, 18960, Note_on_c, 0, 72, 100
2, 19019, Note_on_c, 0, 72, 0
2, 19020, Note_on_c, 0, 71, 100
2, 19079, Note_on_c, 0, 71, 0
2, 19080, Note_on_c, 0, 72, 100
2, 19139, Note_on_c, 0, 72, 0
2, 19140, Note_on_c, 0, 74, 100
2, 19199, Note_on_c, 0, 74, 0
2, 19200, Note_on_c, 0, 76, 100
2, 19259, Note_on_c, 0, 76, 0
2, 19260, Note_on_c, 0, 72, 100
2, 19285, Note_on_c, 0, 72, 0
2, 19320, Note_on_c, 0, 72, 100
2, 19345, Note_on_c, 0, 72, 0
2, 19380, Note_on_c, 0, 69, 100
2, 19405, Note_on_c, 0, 69, 0
2, 19440, Note_on_c, 0, 69, 100
2, 19499, Note_on_c, 0, 69, 0
2, 19500, Note_on_c, 0, 78, 100
2, 19525, Note_on_c, 0, 78, 0
2, 19560, Note_on_c, 0, 78, 100
2, 19585, Note_on_c, 0, 78, 0
2, 19620, Note_on_c, 0, 79, 100
2, 19645, Note_on_c, 0, 79, 0
2, 19680, Note_on_c, 0, 74, 100
2, 19739, Note_on_c, 0, 74, 0
2, 19740, Note_on_c, 0, 71, 100
2, 19765, Note_on_c, 0, 71, 0
2, 19800, Note_on_c, 0, 71, 100
2, 19825, Note_on_c, 0, 71, 0
2, 19860, Note_on_c, 0, 67, 100
2, 19885, Note_on_c, 0, 67, 0
2, 19920, Note_on_c, 0, 67, 100
2, 19979, Note_on_c, 0, 67, 0
2, 19980, Note_on_c, 0, 78, 100
2, 20005, Note_on_c, 0, 78, 0
2, 20040, Note_on_c, 0, 78, 100
2, 20065, Note_on_c, 0, 78, 0
2, 20100, Note_on_c, 0, 79, 100
2, 20125, Note_on_c, 0, 79, 0
2, 20160, Note_on_c, 0, 72, 100
2, 20279, Note_on_c, 0, 72, 0
2, 20280, Note_on_c, 0, 71, 100
2, 20339, Note_on_c, 0, 71, 0
2, 20340, Note_on_c, 0, 69, 100
2, 20399, Note_on_c, 0, 69, 0
2, 20400, Note_on_c, 0, 71, 100
2, 20420, Note_on_c, 0, 71, 0
2, 20420, Note_on_c, 0, 69, 100
2, 20440, Note_on_c, 0, 69, 0
2, 20440, Note_on_c, 0, 71, 100
2, 20460, Note_on_c, 0, 71, 0
2, 20460, Note_on_c, 0, 69, 100
2, 20480, Note_on_c, 0, 69, 0
2, 20480, Note_on_c, 0, 71, 100
2, 20500, Note_on_c, 0, 71, 0
2, 20500, Note_on_c, 0, 69, 100
2, 20520, Note_on_c, 0, 69, 0
2, 20520, Note_on_c, 0, 71, 100
2, 20540, Note_on_c, 0, 71, 0
2, 20540, Note_on_c, 0, 69, 100
2, 20579, Note_on_c, 0, 69, 0
2, 20580, Note_on_c, 0, 67, 100
2, 20639, Note_on_c, 0, 67, 0
2, 20640, Note_on_c, 0, 67, 100
2, 20699, Note_on_c, 0, 67, 0
2, 20700, Note_on_c, 0, 62, 100
2, 20725, Note_on_c, 0, 62, 0
2, 20760, Note_on_c, 0, 62, 100
2, 20785, Note_on_c, 0, 62, 0
2, 20820, Note_on_c, 0, 59, 100
2, 20845, Note_on_c, 0, 59, 0
2, 20880, Note_on_c, 0, 59, 100
2, 20939, Note_on_c, 0, 59, 0
2, 20940, Note_on_c, 0, 62, 100
2, 20965, Note_on_c, 0, 62, 0
2, 21000, Note_on_c, 0, 62, 100
2, 21025, Note_on_c, 0, 62, 0
2, 21060, Note_on_c, 0, 59, 100
2, 21085, Note_on_c, 0, 59, 0
2, 21120, Note_on_c, 0, 55, 100
2, 21599, Note_on_c, 0, 55, 0
2, 21599, End_track
3, 0, Start_track
3, 0, Control_c, 1, 0, 127
3, 0, Control_c, 1, 7, 100
3, 0, Control_c, 1, 10, 95
3, 0, Program_c, 1, 20
3, 3, Control_c, 1, 0, 127
3, 4, Program_c, 1, 20
3, 540, Note_on_c, 1, 43, 100
3, 565, Note_on_c, 1, 43, 0
3, 600, Note_on_c, 1, 43, 100
3, 625, Note_on_c, 1, 43, 0
3, 660, Note_on_c, 1, 43, 100
3, 685, Note_on_c, 1, 43, 0
3, 720, Note_on_c, 1, 43, 100
3, 745, Note_on_c, 1, 43, 0
3, 1020, Note_on_c, 1, 43, 100
3, 1045, Note_on_c, 1, 43, 0
3, 1080, Note_on_c, 1, 43, 100
3, 1105, Note_on_c, 1, 43, 0
3, 1140, Note_on_c, 1, 43, 100
3, 1165, Note_on_c, 1, 43, 0
3, 1200, Note_on_c, 1, 43, 100
3, 1225, Note_on_c, 1, 43, 0
3, 1560, Note_on_c, 1, 43, 100
3, 1679, Note_on_c, 1, 43, 0
3, 1680, Note_on_c, 1, 47, 100
3, 1799, Note_on_c, 1, 47, 0
3, 1800, Note_on_c, 1, 43, 100
3, 1919, Note_on_c, 1, 43, 0
3, 1920, Note_on_c, 1, 50, 100
3, 2039, Note_on_c, 1, 50, 0
3, 2040, Note_on_c, 1, 52, 100
3, 2159, Note_on_c, 1, 52, 0
3, 2160, Note_on_c, 1, 54, 100
3, 2279, Note_on_c, 1, 54, 0
3, 2280, Note_on_c, 1, 50, 100
3, 2399, Note_on_c, 1, 50, 0
3, 2400, Note_on_c, 1, 50, 100
3, 2450, Note_on_c, 1, 50, 0
3, 2520, Note_on_c, 1, 43, 100
3, 2759, Note_on_c, 1, 43, 0
3, 2760, Note_on_c, 1, 50, 100
3, 2810, Note_on_c, 1, 50, 0
3, 2880, Note_on_c, 1, 52, 100
3, 2930, Note_on_c, 1, 52, 0
3, 3000, Note_on_c, 1, 45, 100
3, 3239, Note_on_c, 1, 45, 0
3, 3240, Note_on_c, 1, 49, 100
3, 3290, Note_on_c, 1, 49, 0
3, 3360, Note_on_c, 1, 50, 100
3, 3479, Note_on_c, 1, 50, 0
3, 3480, Note_on_c, 1, 54, 100
3, 3599, Note_on_c, 1, 54, 0
3, 3600, Note_on_c, 1, 57, 100
3, 3719, Note_on_c, 1, 57, 0
3, 3720, Note_on_c, 1, 45, 100
3, 3839, Note_on_c, 1, 45, 0
3, 3840, Note_on_c, 1, 50, 100
3, 3899, Note_on_c, 1, 50, 0
3, 3900, Note_on_c, 1, 57, 100
3, 3925, Note_on_c, 1, 57, 0
3, 3960, Note_on_c, 1, 57, 100
3, 3985, Note_on_c, 1, 57, 0
3, 4020, Note_on_c, 1, 54, 100
3, 4045, Note_on_c, 1, 54, 0
3, 4080, Note_on_c, 1, 54, 100
3, 4139, Note_on_c, 1, 54, 0
3, 4140, Note_on_c, 1, 57, 100
3, 4165, Note_on_c, 1, 57, 0
3, 4200, Note_on_c, 1, 57, 100
3, 4225, Note_on_c, 1, 57, 0
3, 4260, Note_on_c, 1, 54, 100
3, 4285, Note_on_c, 1, 54, 0
3, 4320, Note_on_c, 1, 50, 100
3, 4799, Note_on_c, 1, 50, 0
3, 4860, Note_on_c, 1, 43, 100
3, 4885, Note_on_c, 1, 43, 0
3, 4920, Note_on_c, 1, 43, 100
3, 4945, Note_on_c, 1, 43, 0
3, 4980, Note_on_c, 1, 43, 100
3, 5005, Note_on_c, 1, 43, 0
3, 5040, Note_on_c, 1, 43, 100
3, 5065, Note_on_c, 1, 43, 0
3, 5340, Note_on_c, 1, 43, 100
3, 5365, Note_on_c, 1, 43, 0
3, 5400, Note_on_c, 1, 43, 100
3, 5425, Note_on_c, 1, 43, 0
3, 5460, Note_on_c, 1, 43, 100
3, 5485, Note_on_c, 1, 43, 0
3, 5520, Note_on_c, 1, 43, 100
3, 5545, Note_on_c, 1, 43, 0
3, 5880, Note_on_c, 1, 43, 100
3, 5999, Note_on_c, 1, 43, 0
3, 6000, Note_on_c, 1, 47, 100
3, 6119, Note_on_c, 1, 47, 0
3, 6120, Note_on_c, 1, 43, 100
3, 6239, Note_on_c, 1, 43, 0
3, 6240, Note_on_c, 1, 50, 100
3, 6359, Note_on_c, 1, 50, 0
3, 6360, Note_on_c, 1, 52, 100
3, 6479, Note_on_c, 1, 52, 0
3, 6480, Note_on_c, 1, 54, 100
3, 6599, Note_on_c, 1, 54, 0
3, 6600, Note_on_c, 1, 50, 100
3, 6719, Note_on_c, 1, 50, 0
3, 6720, Note_on_c, 1, 50, 100
3, 6770, Note_on_c, 1, 50, 0
3, 6840, Note_on_c, 1, 43, 100
3, 7079, Note_on_c, 1, 43, 0
3, 7080, Note_on_c, 1, 50, 100
3, 7130, Note_on_c, 1, 50, 0
3, 7200, Note_on_c, 1, 52, 100
3, 7250, Note_on_c, 1, 52, 0
3, 7320, Note_on_c, 1, 45, 100
3, 7559, Note_on_c, 1, 45, 0
3, 7560, Note_on_c, 1, 49, 100
3, 7610, Note_on_c, 1, 49, 0
3, 7680, Note_on_c, 1, 50, 100
3, 7799, Note_on_c, 1, 50, 0
3, 7800, Note_on_c, 1, 54, 100
3, 7919, Note_on_c, 1, 54, 0
3, 7920, Note_on_c, 1, 57, 100
3, 8039, Note_on_c, 1, 57, 0
3, 8040, Note_on_c, 1, 45, 100
3, 8159, Note_on_c, 1, 45, 0
3, 8160, Note_on_c, 1, 50, 100
3, 8219, Note_on_c, 1, 50, 0
3, 8220, Note_on_c, 1, 57, 100
3, 8245, Note_on_c, 1, 57, 0
3, 8280, Note_on_c, 1, 57, 100
3, 8305, Note_on_c, 1, 57, 0
3, 8340, Note_on_c, 1, 54, 100
3, 8365, Note_on_c, 1, 54, 0
3, 8400, Note_on_c, 1, 54, 100
3, 8459, Note_on_c, 1, 54, 0
3, 8460, Note_on_c, 1, 57, 100
3, 8485, Note_on_c, 1, 57, 0
3, 8520, Note_on_c, 1, 57, 100
3, 8545, Note_on_c, 1, 57, 0
3, 8580, Note_on_c, 1, 54, 100
3, 8605, Note_on_c, 1, 54, 0
3, 8640, Note_on_c, 1, 50, 100
3, 9119, Note_on_c, 1, 50, 0
3, 9120, Note_on_c, 1, 38, 100
3, 9239, Note_on_c, 1, 38, 0
3, 9240, Note_on_c, 1, 38, 100
3, 9359, Note_on_c, 1, 38, 0
3, 9360, Note_on_c, 1, 38, 100
3, 9479, Note_on_c, 1, 38, 0
3, 9480, Note_on_c, 1, 38, 100
3, 9599, Note_on_c, 1, 38, 0
3, 9600, Note_on_c, 1, 38, 100
3, 9625, Note_on_c, 1, 38, 0
3, 9660, Note_on_c, 1, 38, 100
3, 9685, Note_on_c, 1, 38, 0
3, 9720, Note_on_c, 1, 38, 100
3, 9745, Note_on_c, 1, 38, 0
3, 9780, Note_on_c, 1, 38, 100
3, 9805, Note_on_c, 1, 38, 0
3, 9840, Note_on_c, 1, 38, 100
3, 9959, Note_on_c, 1, 38, 0
3, 9960, Note_on_c, 1, 40, 100
3, 10079, Note_on_c, 1, 40, 0
3, 10080, Note_on_c, 1, 42, 100
3, 10199, Note_on_c, 1, 42, 0
3, 10200, Note_on_c, 1, 38, 100
3, 10439, Note_on_c, 1, 38, 0
3, 10440, Note_on_c, 1, 40, 100
3, 10499, Note_on_c, 1, 40, 0
3, 10500, Note_on_c, 1, 42, 100
3, 10559, Note_on_c, 1, 42, 0
3, 10560, Note_on_c, 1, 43, 100
3, 10610, Note_on_c, 1, 43, 0
3, 10680, Note_on_c, 1, 50, 100
3, 10730, Note_on_c, 1, 50, 0
3, 10800, Note_on_c, 1, 55, 100
3, 10850, Note_on_c, 1, 55, 0
3, 10920, Note_on_c, 1, 50, 100
3, 10970, Note_on_c, 1, 50, 0
3, 11040, Note_on_c, 1, 43, 100
3, 11159, Note_on_c, 1, 43, 0
3, 11160, Note_on_c, 1, 43, 100
3, 11279, Note_on_c, 1, 43, 0
3, 11280, Note_on_c, 1, 43, 100
3, 11399, Note_on_c, 1, 43, 0
3, 11400, Note_on_c, 1, 43, 100
3, 11519, Note_on_c, 1, 43, 0
3, 11520, Note_on_c, 1, 43, 100
3, 11545, Note_on_c, 1, 43, 0
3, 11580, Note_on_c, 1, 43, 100
3, 11605, Note_on_c, 1, 43, 0
3, 11640, Note_on_c, 1, 43, 100
3, 11665, Note_on_c, 1, 43, 0
3, 11700, Note_on_c, 1, 43, 100
3, 11725, Note_on_c, 1, 43, 0
3, 11760, Note_on_c, 1, 43, 100
3, 11879, Note_on_c, 1, 43, 0
3, 11880, Note_on_c, 1, 45, 100
3, 11999, Note_on_c, 1, 45, 0
3, 12000, Note_on_c, 1, 47, 100
3, 12119, Note_on_c, 1, 47, 0
3, 12120, Note_on_c, 1, 43, 100
3, 12359, Note_on_c, 1, 43, 0
3, 12360, Note_on_c, 1, 45, 100
3, 12419, Note_on_c, 1, 45, 0
3, 12420, Note_on_c, 1, 47, 100
3, 12479, Note_on_c, 1, 47, 0
3, 12480, Note_on_c, 1, 48, 100
3, 12530, Note_on_c, 1, 48, 0
3, 12600, Note_on_c, 1, 55, 100
3, 12650, Note_on_c, 1, 55, 0
3, 12720, Note_on_c, 1, 60, 100
3, 12770, Note_on_c, 1, 60, 0
3, 12840, Note_on_c, 1, 55, 100
3, 12890, Note_on_c, 1, 55, 0
3, 12960, Note_on_c, 1, 48, 100
3, 13199, Note_on_c, 1, 48, 0
3, 13320, Note_on_c, 1, 48, 100
3, 13370, Note_on_c, 1, 48, 0
3, 13440, Note_on_c, 1, 47, 100
3, 13679, Note_on_c, 1, 47, 0
3, 13800, Note_on_c, 1, 47, 100
3, 13919, Note_on_c, 1, 47, 0
3, 13920, Note_on_c, 1, 45, 100
3, 14039, Note_on_c, 1, 45, 0
3, 14040, Note_on_c, 1, 43, 100
3, 14159, Note_on_c, 1, 43, 0
3, 14160, Note_on_c, 1, 50, 100
3, 14279, Note_on_c, 1, 50, 0
3, 14280, Note_on_c, 1, 38, 100
3, 14399, Note_on_c, 1, 38, 0
3, 14400, Note_on_c, 1, 43, 100
3, 14459, Note_on_c, 1, 43, 0
3, 14460, Note_on_c, 1, 50, 100
3, 14485, Note_on_c, 1, 50, 0
3, 14520, Note_on_c, 1, 50, 100
3, 14545, Note_on_c, 1, 50, 0
3, 14580, Note_on_c, 1, 47, 100
3, 14605, Note_on_c, 1, 47, 0
3, 14640, Note_on_c, 1, 47, 100
3, 14699, Note_on_c, 1, 47, 0
3, 14700, Note_on_c, 1, 50, 100
3, 14725, Note_on_c, 1, 50, 0
3, 14760, Note_on_c, 1, 50, 100
3, 14785, Note_on_c, 1, 50, 0
3, 14820, Note_on_c, 1, 47, 100
3, 14845, Note_on_c, 1, 47, 0
3, 14880, Note_on_c, 1, 43, 100
3, 15359, Note_on_c, 1, 43, 0
3, 15360, Note_on_c, 1, 38, 100
3, 15479, Note_on_c, 1, 38, 0
3, 15480, Note_on_c, 1, 38, 100
3, 15599, Note_on_c, 1, 38, 0
3, 15600, Note_on_c, 1, 38, 100
3, 15719, Note_on_c, 1, 38, 0
3, 15720, Note_on_c, 1, 38, 100
3, 15839, Note_on_c, 1, 38, 0
3, 15840, Note_on_c, 1, 38, 100
3, 15865, Note_on_c, 1, 38, 0
3, 15900, Note_on_c, 1, 38, 100
3, 15925, Note_on_c, 1, 38, 0
3, 15960, Note_on_c, 1, 38, 100
3, 15985, Note_on_c, 1, 38, 0
3, 16020, Note_on_c, 1, 38, 100
3, 16045, Note_on_c, 1, 38, 0
3, 16080, Note_on_c, 1, 38, 100
3, 16199, Note_on_c, 1, 38, 0
3, 16200, Note_on_c, 1, 40, 100
3, 16319, Note_on_c, 1, 40, 0
3, 16320, Note_on_c, 1, 42, 100
3, 16439, Note_on_c, 1, 42, 0
3, 16440, Note_on_c, 1, 38, 100
3, 16679, Note_on_c, 1, 38, 0
3, 16680, Note_on_c, 1, 40, 100
3, 16739, Note_on_c, 1, 40, 0
3, 16740, Note_on_c, 1, 42, 100
3, 16799, Note_on_c, 1, 42, 0
3, 16800, Note_on_c, 1, 43, 100
3, 16850, Note_on_c, 1, 43, 0
3, 16920, Note_on_c, 1, 50, 100
3, 16970, Note_on_c, 1, 50, 0
3, 17040, Note_on_c, 1, 55, 100
3, 17090, Note_on_c, 1, 55, 0
3, 17160, Note_on_c, 1, 50, 100
3, 17210, Note_on_c, 1, 50, 0
3, 17280, Note_on_c, 1, 43, 100
3, 17399, Note_on_c, 1, 43, 0
3, 17400, Note_on_c, 1, 43, 100
3, 17519, Note_on_c, 1, 43, 0
3, 17520, Note_on_c, 1, 43, 100
3, 17639, Note_on_c, 1, 43, 0
3, 17640, Note_on_c, 1, 43, 100
3, 17759, Note_on_c, 1, 43, 0
3, 17760, Note_on_c, 1, 43, 100
3, 17785, Note_on_c, 1, 43, 0
3, 17820, Note_on_c, 1, 43, 100
3, 17845, Note_on_c, 1, 43, 0
3, 17880, Note_on_c, 1, 43, 100
3, 17905, Note_on_c, 1, 43, 0
3, 17940, Note_on_c, 1, 43, 100
3, 17965, Note_on_c, 1, 43, 0
3, 18000, Note_on_c, 1, 43, 100
3, 18119, Note_on_c, 1, 43, 0
3, 18120, Note_on_c, 1, 45, 100
3, 18239, Note_on_c, 1, 45, 0
3, 18240, Note_on_c, 1, 47, 100
3, 18359, Note_on_c, 1, 47, 0
3, 18360, Note_on_c, 1, 43, 100
3, 18599, Note_on_c, 1, 43, 0
3, 18600, Note_on_c, 1, 45, 100
3, 18659, Note_on_c, 1, 45, 0
3, 18660, Note_on_c, 1, 47, 100
3, 18719, Note_on_c, 1, 47, 0
3, 18720, Note_on_c, 1, 48, 100
3, 18770, Note_on_c, 1, 48, 0
3, 18840, Note_on_c, 1, 55, 100
3, 18890, Note_on_c, 1, 55, 0
3, 18960, Note_on_c, 1, 60, 100
3, 19010, Note_on_c, 1, 60, 0
3, 19080, Note_on_c, 1, 55, 100
3, 19130, Note_on_c, 1, 55, 0
3, 19200, Note_on_c, 1, 48, 100
3, 19439, Note_on_c, 1, 48, 0
3, 19560, Note_on_c, 1, 48, 100
3, 19610, Note_on_c, 1, 48, 0
3, 19680, Note_on_c, 1, 47, 100
3, 19919, Note_on_c, 1, 47, 0
3, 20040, Note_on_c, 1, 47, 100
3, 20159, Note_on_c, 1, 47, 0
3, 20160, Note_on_c, 1, 45, 100
3, 20279, Note_on_c, 1, 45, 0
3, 20280, Note_on_c, 1, 43, 100
3, 20399, Note_on_c, 1, 43, 0
3, 20400, Note_on_c, 1, 50, 100
3, 20519, Note_on_c, 1, 50, 0
3, 20520, Note_on_c, 1, 38, 100
3, 20639, Note_on_c, 1, 38, 0
3, 20640, Note_on_c, 1, 43, 100
3, 20699, Note_on_c, 1, 43, 0
3, 20700, Note_on_c, 1, 50, 100
3, 20725, Note_on_c, 1, 50, 0
3, 20760, Note_on_c, 1, 50, 100
3, 20785, Note_on_c, 1, 50, 0
3, 20820, Note_on_c, 1, 47, 100
3, 20845, Note_on_c, 1, 47, 0
3, 20880, Note_on_c, 1, 47, 100
3, 20939, Note_on_c, 1, 47, 0
3, 20940, Note_on_c, 1, 50, 100
3, 20965, Note_on_c, 1, 50, 0
3, 21000, Note_on_c, 1, 50, 100
3, 21025, Note_on_c, 1, 50, 0
3, 21060, Note_on_c, 1, 47, 100
3, 21085, Note_on_c, 1, 47, 0
3, 21120, Note_on_c, 1, 43, 100
3, 21599, Note_on_c, 1, 43, 0
3, 21599, End_track
4, 0, Start_track
4, 0, End_track
0, 0, End_of_file
