0, 0, Header, 1, 6, 1024
1, 0, Start_track
1, 0, Time_signature, 3, 2, 24, 8
1, 0, Key_signature, 0, "minor"
1, 0, Tempo, 833333
1, 125953, End_track
2, 0, Start_track
2, 0, Title_t, "Instrument 1"
2, 2304, Note_on_c, 0, 64, 96
2, 2560, Note_off_c, 0, 64, 0
2, 2560, Note_on_c, 0, 66, 96
2, 2816, Note_off_c, 0, 66, 0
2, 2816, Note_on_c, 0, 68, 96
2, 3072, Note_off_c, 0, 68, 0
2, 3072, Note_on_c, 0, 69, 96
2, 5120, Note_off_c, 0, 69, 0
2, 5120, Note_on_c, 0, 71, 96
2, 6144, Note_off_c, 0, 71, 0
2, 6144, Note_on_c, 0, 72, 96
2, 8192, Note_off_c, 0, 72, 0
2, 8192, Note_on_c, 0, 71, 96
2, 9216, Note_off_c, 0, 71, 0
2, 9472, Note_on_c, 0, 71, 96
2, 9728, Note_off_c, 0, 71, 0
2, 9728, Note_on_c, 0, 72, 96
2, 9984, Note_off_c, 0, 72, 0
2, 9984, Note_on_c, 0, 71, 96
2, 10240, Note_off_c, 0, 71, 0
2, 10240, Note_on_c, 0, 69, 96
2, 11520, Note_off_c, 0, 69, 0
2, 11520, Note_on_c, 0, 72, 96
2, 11776, Note_off_c, 0, 72, 0
2, 11776, Note_on_c, 0, 71, 96
2, 12032, Note_off_c, 0, 71, 0
2, 12032, Note_on_c, 0, 69, 96
2, 12288, Note_off_c, 0, 69, 0
2, 12288, Note_on_c, 0, 68, 96
2, 12544, Note_off_c, 0, 68, 0
2, 12544, Note_on_c, 0, 66, 96
2, 12800, Note_off_c, 0, 66, 0
2, 12800, Note_on_c, 0, 64, 96
2, 17408, Note_off_c, 0, 64, 0
2, 17408, Note_on_c, 0, 67, 96
2, 18432, Note_off_c, 0, 67, 0
2, 18432, Note_on_c, 0, 67, 96
2, 20480, Note_off_c, 0, 67, 0
2, 20480, Note_on_c, 0, 65, 96
2, 21504, Note_off_c, 0, 65, 0
2, 21504, Note_on_c, 0, 64, 96
2, 23552, Note_off_c, 0, 64, 0
2, 23552, Note_on_c, 0, 69, 96
2, 25088, Note_off_c, 0, 69, 0
2, 25088, Note_on_c, 0, 71, 96
2, 26112, Note_off_c, 0, 71, 0
2, 26112, Note_on_c, 0, 69, 96
2, 27392, Note_off_c, 0, 69, 0
2, 27392, Note_on_c, 0, 68, 96
2, 27648, Note_off_c, 0, 68, 0
2, 27648, Note_on_c, 0, 69, 96
2, 30464, Note_off_c, 0, 69, 0
2, 30464, Note_on_c, 0, 68, 96
2, 30720, Note_off_c, 0, 68, 0
2, 30720, Note_on_c, 0, 69, 96
2, 32768, Note_off_c, 0, 69, 0
2, 33024, Note_on_c, 0, 64, 96
2, 33280, Note_off_c, 0, 64, 0
2, 33280, Note_on_c, 0, 66, 96
2, 33536, Note_off_c, 0, 66, 0
2, 33536, Note_on_c, 0, 68, 96
2, 33792, Note_off_c, 0, 68, 0
2, 33792, Note_on_c, 0, 69, 96
2, 35840, Note_off_c, 0, 69, 0
2, 35840, Note_on_c, 0, 71, 96
2, 36864, Note_off_c, 0, 71, 0
2, 36864, Note_on_c, 0, 72, 96
2, 38912, Note_off_c, 0, 72, 0
2, 38912, Note_on_c, 0, 71, 96
2, 39936, Note_off_c, 0, 71, 0
2, 40192, Note_on_c, 0, 71, 96
2, 40448, Note_off_c, 0, 71, 0
2, 40448, Note_on_c, 0, 72, 96
2, 40704, Note_off_c, 0, 72, 0
2, 40704, Note_on_c, 0, 71, 96
2, 40960, Note_off_c, 0, 71, 0
2, 40960, Note_on_c, 0, 69, 96
2, 42240, Note_off_c, 0, 69, 0
2, 42240, Note_on_c, 0, 72, 96
2, 42496, Note_off_c, 0, 72, 0
2, 42496, Note_on_c, 0, 71, 96
2, 42752, Note_off_c, 0, 71, 0
2, 42752, Note_on_c, 0, 69, 96
2, 43008, Note_off_c, 0, 69, 0
2, 43008, Note_on_c, 0, 68, 96
2, 43264, Note_off_c, 0, 68, 0
2, 43264, Note_on_c, 0, 66, 96
2, 43520, Note_off_c, 0, 66, 0
2, 43520, Note_on_c, 0, 64, 96
2, 48128, Note_off_c, 0, 64, 0
2, 48128, Note_on_c, 0, 67, 96
2, 49152, Note_off_c, 0, 67, 0
2, 49152, Note_on_c, 0, 67, 96
2, 51200, Note_off_c, 0, 67, 0
2, 51200, Note_on_c, 0, 65, 96
2, 52224, Note_off_c, 0, 65, 0
2, 52224, Note_on_c, 0, 64, 96
2, 54272, Note_off_c, 0, 64, 0
2, 54272, Note_on_c, 0, 69, 96
2, 55808, Note_off_c, 0, 69, 0
2, 55808, Note_on_c, 0, 71, 96
2, 56832, Note_off_c, 0, 71, 0
2, 56832, Note_on_c, 0, 69, 96
2, 58112, Note_off_c, 0, 69, 0
2, 58112, Note_on_c, 0, 68, 96
2, 58368, Note_off_c, 0, 68, 0
2, 58368, Note_on_c, 0, 69, 96
2, 61184, Note_off_c, 0, 69, 0
2, 61184, Note_on_c, 0, 68, 96
2, 61440, Note_off_c, 0, 68, 0
2, 61440, Note_on_c, 0, 69, 96
2, 63488, Note_off_c, 0, 69, 0
2, 63744, Note_on_c, 0, 71, 96
2, 64000, Note_off_c, 0, 71, 0
2, 64000, Note_on_c, 0, 72, 96
2, 64256, Note_off_c, 0, 72, 0
2, 64256, Note_on_c, 0, 74, 96
2, 64512, Note_off_c, 0, 74, 0
2, 64512, Note_on_c, 0, 72, 96
2, 66560, Note_off_c, 0, 72, 0
2, 66560, Note_on_c, 0, 74, 96
2, 67584, Note_off_c, 0, 74, 0
2, 67584, Note_on_c, 0, 76, 96
2, 69632, Note_off_c, 0, 76, 0
2, 69632, Note_on_c, 0, 76, 96
2, 70912, Note_off_c, 0, 76, 0
2, 70912, Note_on_c, 0, 76, 96
2, 71168, Note_off_c, 0, 76, 0
2, 71168, Note_on_c, 0, 74, 96
2, 71424, Note_off_c, 0, 74, 0
2, 71424, Note_on_c, 0, 72, 96
2, 71680, Note_off_c, 0, 72, 0
2, 71680, Note_on_c, 0, 71, 96
2, 72960, Note_off_c, 0, 71, 0
2, 72960, Note_on_c, 0, 72, 96
2, 73472, Note_off_c, 0, 72, 0
2, 73472, Note_on_c, 0, 71, 96
2, 73728, Note_off_c, 0, 71, 0
2, 73728, Note_on_c, 0, 72, 96
2, 78336, Note_off_c, 0, 72, 0
2, 78336, Note_on_c, 0, 74, 96
2, 78848, Note_off_c, 0, 74, 0
2, 78848, Note_on_c, 0, 76, 96
2, 79872, Note_off_c, 0, 76, 0
2, 79872, Note_on_c, 0, 74, 96
2, 81920, Note_off_c, 0, 74, 0
2, 81920, Note_on_c, 0, 72, 96
2, 82944, Note_off_c, 0, 72, 0
2, 82944, Note_on_c, 0, 71, 96
2, 84480, Note_off_c, 0, 71, 0
2, 84480, Note_on_c, 0, 76, 96
2, 84992, Note_off_c, 0, 76, 0
2, 84992, Note_on_c, 0, 69, 96
2, 85504, Note_off_c, 0, 69, 0
2, 85504, Note_on_c, 0, 71, 96
2, 86016, Note_off_c, 0, 71, 0
2, 86016, Note_on_c, 0, 72, 96
2, 86528, Note_off_c, 0, 72, 0
2, 86528, Note_on_c, 0, 74, 96
2, 87040, Note_off_c, 0, 74, 0
2, 87040, Note_on_c, 0, 71, 96
2, 89088, Note_off_c, 0, 71, 0
2, 89088, Note_on_c, 0, 69, 96
2, 90880, Note_off_c, 0, 69, 0
2, 90880, Note_on_c, 0, 68, 96
2, 91136, Note_off_c, 0, 68, 0
2, 91136, Note_on_c, 0, 69, 96
2, 94208, Note_off_c, 0, 69, 0
2, 94464, Note_on_c, 0, 71, 96
2, 94720, Note_off_c, 0, 71, 0
2, 94720, Note_on_c, 0, 72, 96
2, 94976, Note_off_c, 0, 72, 0
2, 94976, Note_on_c, 0, 74, 96
2, 95232, Note_off_c, 0, 74, 0
2, 95232, Note_on_c, 0, 72, 96
2, 97280, Note_off_c, 0, 72, 0
2, 97280, Note_on_c, 0, 74, 96
2, 98304, Note_off_c, 0, 74, 0
2, 98304, Note_on_c, 0, 76, 96
2, 100352, Note_off_c, 0, 76, 0
2, 100352, Note_on_c, 0, 76, 96
2, 101632, Note_off_c, 0, 76, 0
2, 101632, Note_on_c, 0, 76, 96
2, 101888, Note_off_c, 0, 76, 0
2, 101888, Note_on_c, 0, 74, 96
2, 102144, Note_off_c, 0, 74, 0
2, 102144, Note_on_c, 0, 72, 96
2, 102400, Note_off_c, 0, 72, 0
2, 102400, Note_on_c, 0, 71, 96
2, 103680, Note_off_c, 0, 71, 0
2, 103680, Note_on_c, 0, 72, 96
2, 104192, Note_off_c, 0, 72, 0
2, 104192, Note_on_c, 0, 71, 96
2, 104448, Note_off_c, 0, 71, 0
2, 104448, Note_on_c, 0, 72, 96
2, 109056, Note_off_c, 0, 72, 0
2, 109056, Note_on_c, 0, 74, 96
2, 109568, Note_off_c, 0, 74, 0
2, 109568, Note_on_c, 0, 76, 96
2, 110592, Note_off_c, 0, 76, 0
2, 110592, Note_on_c, 0, 74, 96
2, 112640, Note_off_c, 0, 74, 0
2, 112640, Note_on_c, 0, 72, 96
2, 113664, Note_off_c, 0, 72, 0
2, 113664, Note_on_c, 0, 71, 96
2, 115200, Note_off_c, 0, 71, 0
2, 115200, Note_on_c, 0, 76, 96
2, 115712, Note_off_c, 0, 76, 0
2, 115712, Note_on_c, 0, 69, 96
2, 116224, Note_off_c, 0, 69, 0
2, 116224, Note_on_c, 0, 71, 96
2, 116736, Note_off_c, 0, 71, 0
2, 116736, Note_on_c, 0, 72, 96
2, 117248, Note_off_c, 0, 72, 0
2, 117248, Note_on_c, 0, 74, 96
2, 117760, Note_off_c, 0, 74, 0
2, 117760, Note_on_c, 0, 71, 96
2, 119808, Note_off_c, 0, 71, 0
2, 119808, Note_on_c, 0, 69, 96
2, 121600, Note_off_c, 0, 69, 0
2, 121600, Note_on_c, 0, 68, 96
2, 121856, Note_off_c, 0, 68, 0
2, 121856, Note_on_c, 0, 69, 96
2, 125952, Note_off_c, 0, 69, 0
2, 125953, End_track
3, 0, Start_track
3, 0, Title_t, "Instrument 2"
3, 2304, Note_on_c, 1, 64, 96
3, 2560, Note_off_c, 1, 64, 0
3, 2560, Note_on_c, 1, 66, 96
3, 2816, Note_off_c, 1, 66, 0
3, 2816, Note_on_c, 1, 68, 96
3, 3072, Note_off_c, 1, 68, 0
3, 3072, Note_on_c, 1, 69, 96
3, 5120, Note_off_c, 1, 69, 0
3, 5120, Note_on_c, 1, 71, 96
3, 6144, Note_off_c, 1, 71, 0
3, 6144, Note_on_c, 1, 72, 96
3, 8192, Note_off_c, 1, 72, 0
3, 8192, Note_on_c, 1, 71, 96
3, 9216, Note_off_c, 1, 71, 0
3, 9472, Note_on_c, 1, 71, 96
3, 9728, Note_off_c, 1, 71, 0
3, 9728, Note_on_c, 1, 72, 96
3, 9984, Note_off_c, 1, 72, 0
3, 9984, Note_on_c, 1, 71, 96
3, 10240, Note_off_c, 1, 71, 0
3, 10240, Note_on_c, 1, 69, 96
3, 11520, Note_off_c, 1, 69, 0
3, 11520, Note_on_c, 1, 72, 96
3, 11776, Note_off_c, 1, 72, 0
3, 11776, Note_on_c, 1, 71, 96
3, 12032, Note_off_c, 1, 71, 0
3, 12032, Note_on_c, 1, 69, 96
3, 12288, Note_off_c, 1, 69, 0
3, 12288, Note_on_c, 1, 68, 96
3, 12544, Note_off_c, 1, 68, 0
3, 12544, Note_on_c, 1, 66, 96
3, 12800, Note_off_c, 1, 66, 0
3, 12800, Note_on_c, 1, 64, 96
3, 17408, Note_off_c, 1, 64, 0
3, 17408, Note_on_c, 1, 67, 96
3, 18432, Note_off_c, 1, 67, 0
3, 18432, Note_on_c, 1, 67, 96
3, 20480, Note_off_c, 1, 67, 0
3, 20480, Note_on_c, 1, 65, 96
3, 21504, Note_off_c, 1, 65, 0
3, 21504, Note_on_c, 1, 64, 96
3, 23552, Note_off_c, 1, 64, 0
3, 23552, Note_on_c, 1, 69, 96
3, 25088, Note_off_c, 1, 69, 0
3, 25088, Note_on_c, 1, 71, 96
3, 26112, Note_off_c, 1, 71, 0
3, 26112, Note_on_c, 1, 69, 96
3, 27392, Note_off_c, 1, 69, 0
3, 27392, Note_on_c, 1, 68, 96
3, 27648, Note_off_c, 1, 68, 0
3, 27648, Note_on_c, 1, 69, 96
3, 30464, Note_off_c, 1, 69, 0
3, 30464, Note_on_c, 1, 68, 96
3, 30720, Note_off_c, 1, 68, 0
3, 30720, Note_on_c, 1, 69, 96
3, 32768, Note_off_c, 1, 69, 0
3, 33024, Note_on_c, 1, 64, 96
3, 33280, Note_off_c, 1, 64, 0
3, 33280, Note_on_c, 1, 66, 96
3, 33536, Note_off_c, 1, 66, 0
3, 33536, Note_on_c, 1, 68, 96
3, 33792, Note_off_c, 1, 68, 0
3, 33792, Note_on_c, 1, 69, 96
3, 35840, Note_off_c, 1, 69, 0
3, 35840, Note_on_c, 1, 71, 96
3, 36864, Note_off_c, 1, 71, 0
3, 36864, Note_on_c, 1, 72, 96
3, 38912, Note_off_c, 1, 72, 0
3, 38912, Note_on_c, 1, 71, 96
3, 39936, Note_off_c, 1, 71, 0
3, 40192, Note_on_c, 1, 71, 96
3, 40448, Note_off_c, 1, 71, 0
3, 40448, Note_on_c, 1, 72, 96
3, 40704, Note_off_c, 1, 72, 0
3, 40704, Note_on_c, 1, 71, 96
3, 40960, Note_off_c, 1, 71, 0
3, 40960, Note_on_c, 1, 69, 96
3, 42240, Note_off_c, 1, 69, 0
3, 42240, Note_on_c, 1, 72, 96
3, 42496, Note_off_c, 1, 72, 0
3, 42496, Note_on_c, 1, 71, 96
3, 42752, Note_off_c, 1, 71, 0
3, 42752, Note_on_c, 1, 69, 96
3, 43008, Note_off_c, 1, 69, 0
3, 43008, Note_on_c, 1, 68, 96
3, 43264, Note_off_c, 1, 68, 0
3, 43264, Note_on_c, 1, 66, 96
3, 43520, Note_off_c, 1, 66, 0
3, 43520, Note_on_c, 1, 64, 96
3, 48128, Note_off_c, 1, 64, 0
3, 48128, Note_on_c, 1, 67, 96
3, 49152, Note_off_c, 1, 67, 0
3, 49152, Note_on_c, 1, 67, 96
3, 51200, Note_off_c, 1, 67, 0
3, 51200, Note_on_c, 1, 65, 96
3, 52224, Note_off_c, 1, 65, 0
3, 52224, Note_on_c, 1, 64, 96
3, 54272, Note_off_c, 1, 64, 0
3, 54272, Note_on_c, 1, 69, 96
3, 55808, Note_off_c, 1, 69, 0
3, 55808, Note_on_c, 1, 71, 96
3, 56832, Note_off_c, 1, 71, 0
3, 56832, Note_on_c, 1, 69, 96
3, 58112, Note_off_c, 1, 69, 0
3, 58112, Note_on_c, 1, 68, 96
3, 58368, Note_off_c, 1, 68, 0
3, 58368, Note_on_c, 1, 69, 96
3, 61184, Note_off_c, 1, 69, 0
3, 61184, Note_on_c, 1, 68, 96
3, 61440, Note_off_c, 1, 68, 0
3, 61440, Note_on_c, 1, 69, 96
3, 63488, Note_off_c, 1, 69, 0
3, 63744, Note_on_c, 1, 71, 96
3, 64000, Note_off_c, 1, 71, 0
3, 64000, Note_on_c, 1, 72, 96
3, 64256, Note_off_c, 1, 72, 0
3, 64256, Note_on_c, 1, 74, 96
3, 64512, Note_off_c, 1, 74, 0
3, 64512, Note_on_c, 1, 72, 96
3, 66560, Note_off_c, 1, 72, 0
3, 66560, Note_on_c, 1, 74, 96
3, 67584, Note_off_c, 1, 74, 0
3, 67584, Note_on_c, 1, 76, 96
3, 69632, Note_off_c, 1, 76, 0
3, 69632, Note_on_c, 1, 76, 96
3, 70912, Note_off_c, 1, 76, 0
3, 70912, Note_on_c, 1, 76, 96
3, 71168, Note_off_c, 1, 76, 0
3, 71168, Note_on_c, 1, 74, 96
3, 71424, Note_off_c, 1, 74, 0
3, 71424, Note_on_c, 1, 72, 96
3, 71680, Note_off_c, 1, 72, 0
3, 71680, Note_on_c, 1, 71, 96
3, 72960, Note_off_c, 1, 71, 0
3, 72960, Note_on_c, 1, 72, 96
3, 73472, Note_off_c, 1, 72, 0
3, 73472, Note_on_c, 1, 71, 96
3, 73728, Note_off_c, 1, 71, 0
3, 73728, Note_on_c, 1, 72, 96
3, 78336, Note_off_c, 1, 72, 0
3, 78336, Note_on_c, 1, 74, 96
3, 78848, Note_off_c, 1, 74, 0
3, 78848, Note_on_c, 1, 76, 96
3, 79872, Note_off_c, 1, 76, 0
3, 79872, Note_on_c, 1, 74, 96
3, 81920, Note_off_c, 1, 74, 0
3, 81920, Note_on_c, 1, 72, 96
3, 82944, Note_off_c, 1, 72, 0
3, 82944, Note_on_c, 1, 71, 96
3, 84480, Note_off_c, 1, 71, 0
3, 84480, Note_on_c, 1, 76, 96
3, 84992, Note_off_c, 1, 76, 0
3, 84992, Note_on_c, 1, 69, 96
3, 85504, Note_off_c, 1, 69, 0
3, 85504, Note_on_c, 1, 71, 96
3, 86016, Note_off_c, 1, 71, 0
3, 86016, Note_on_c, 1, 72, 96
3, 86528, Note_off_c, 1, 72, 0
3, 86528, Note_on_c, 1, 74, 96
3, 87040, Note_off_c, 1, 74, 0
3, 87040, Note_on_c, 1, 71, 96
3, 89088, Note_off_c, 1, 71, 0
3, 89088, Note_on_c, 1, 69, 96
3, 90880, Note_off_c, 1, 69, 0
3, 90880, Note_on_c, 1, 68, 96
3, 91136, Note_off_c, 1, 68, 0
3, 91136, Note_on_c, 1, 69, 96
3, 94208, Note_off_c, 1, 69, 0
3, 94464, Note_on_c, 1, 71, 96
3, 94720, Note_off_c, 1, 71, 0
3, 94720, Note_on_c, 1, 72, 96
3, 94976, Note_off_c, 1, 72, 0
3, 94976, Note_on_c, 1, 74, 96
3, 95232, Note_off_c, 1, 74, 0
3, 95232, Note_on_c, 1, 72, 96
3, 97280, Note_off_c, 1, 72, 0
3, 97280, Note_on_c, 1, 74, 96
3, 98304, Note_off_c, 1, 74, 0
3, 98304, Note_on_c, 1, 76, 96
3, 100352, Note_off_c, 1, 76, 0
3, 100352, Note_on_c, 1, 76, 96
3, 101632, Note_off_c, 1, 76, 0
3, 101632, Note_on_c, 1, 76, 96
3, 101888, Note_off_c, 1, 76, 0
3, 101888, Note_on_c, 1, 74, 96
3, 102144, Note_off_c, 1, 74, 0
3, 102144, Note_on_c, 1, 72, 96
3, 102400, Note_off_c, 1, 72, 0
3, 102400, Note_on_c, 1, 71, 96
3, 103680, Note_off_c, 1, 71, 0
3, 103680, Note_on_c, 1, 72, 96
3, 104192, Note_off_c, 1, 72, 0
3, 104192, Note_on_c, 1, 71, 96
3, 104448, Note_off_c, 1, 71, 0
3, 104448, Note_on_c, 1, 72, 96
3, 109056, Note_off_c, 1, 72, 0
3, 109056, Note_on_c, 1, 74, 96
3, 109568, Note_off_c, 1, 74, 0
3, 109568, Note_on_c, 1, 76, 96
3, 110592, Note_off_c, 1, 76, 0
3, 110592, Note_on_c, 1, 74, 96
3, 112640, Note_off_c, 1, 74, 0
3, 112640, Note_on_c, 1, 72, 96
3, 113664, Note_off_c, 1, 72, 0
3, 113664, Note_on_c, 1, 71, 96
3, 115200, Note_off_c, 1, 71, 0
3, 115200, Note_on_c, 1, 76, 96
3, 115712, Note_off_c, 1, 76, 0
3, 115712, Note_on_c, 1, 69, 96
3, 116224, Note_off_c, 1, 69, 0
3, 116224, Note_on_c, 1, 71, 96
3, 116736, Note_off_c, 1, 71, 0
3, 116736, Note_on_c, 1, 72, 96
3, 117248, Note_off_c, 1, 72, 0
3, 117248, Note_on_c, 1, 74, 96
3, 117760, Note_off_c, 1, 74, 0
3, 117760, Note_on_c, 1, 71, 96
3, 119808, Note_off_c, 1, 71, 0
3, 119808, Note_on_c, 1, 69, 96
3, 121600, Note_off_c, 1, 69, 0
3, 121600, Note_on_c, 1, 68, 96
3, 121856, Note_off_c, 1, 68, 0
3, 121856, Note_on_c, 1, 69, 96
3, 125952, Note_off_c, 1, 69, 0
3, 125953, End_track
4, 0, Start_track
4, 0, Title_t, "Instrument 3"
4, 3328, Note_on_c, 2, 65, 96
4, 3584, Note_off_c, 2, 65, 0
4, 3584, Note_on_c, 2, 64, 96
4, 3840, Note_off_c, 2, 64, 0
4, 3840, Note_on_c, 2, 62, 96
4, 4096, Note_off_c, 2, 62, 0
4, 4096, Note_on_c, 2, 60, 96
4, 4608, Note_off_c, 2, 60, 0
4, 5120, Note_on_c, 2, 67, 96
4, 6144, Note_off_c, 2, 67, 0
4, 6144, Note_on_c, 2, 69, 96
4, 7168, Note_off_c, 2, 69, 0
4, 7424, Note_on_c, 2, 59, 96
4, 7680, Note_off_c, 2, 59, 0
4, 7680, Note_on_c, 2, 60, 96
4, 7936, Note_off_c, 2, 60, 0
4, 7936, Note_on_c, 2, 62, 96
4, 8192, Note_off_c, 2, 62, 0
4, 8192, Note_on_c, 2, 64, 96
4, 8448, Note_off_c, 2, 64, 0
4, 8448, Note_on_c, 2, 65, 96
4, 8704, Note_off_c, 2, 65, 0
4, 8704, Note_on_c, 2, 67, 96
4, 8960, Note_off_c, 2, 67, 0
4, 8960, Note_on_c, 2, 64, 96
4, 9216, Note_off_c, 2, 64, 0
4, 9216, Note_on_c, 2, 69, 96
4, 10240, Note_off_c, 2, 69, 0
4, 10496, Note_on_c, 2, 67, 96
4, 10752, Note_off_c, 2, 67, 0
4, 10752, Note_on_c, 2, 65, 96
4, 11008, Note_off_c, 2, 65, 0
4, 11008, Note_on_c, 2, 64, 96
4, 11264, Note_off_c, 2, 64, 0
4, 11264, Note_on_c, 2, 62, 96
4, 13056, Note_off_c, 2, 62, 0
4, 13056, Note_on_c, 2, 62, 96
4, 13312, Note_off_c, 2, 62, 0
4, 13312, Note_on_c, 2, 60, 96
4, 15616, Note_off_c, 2, 60, 0
4, 15616, Note_on_c, 2, 60, 96
4, 15872, Note_off_c, 2, 60, 0
4, 15872, Note_on_c, 2, 59, 96
4, 16128, Note_off_c, 2, 59, 0
4, 16128, Note_on_c, 2, 57, 96
4, 16384, Note_off_c, 2, 57, 0
4, 16384, Note_on_c, 2, 59, 96
4, 17408, Note_off_c, 2, 59, 0
4, 17408, Note_on_c, 2, 59, 96
4, 17408, Note_on_c, 2, 64, 96
4, 18432, Note_off_c, 2, 59, 0
4, 18432, Note_off_c, 2, 64, 0
4, 18432, Note_on_c, 2, 61, 96
4, 19456, Note_off_c, 2, 61, 0
4, 19712, Note_on_c, 2, 61, 96
4, 19968, Note_off_c, 2, 61, 0
4, 19968, Note_on_c, 2, 62, 96
4, 20224, Note_off_c, 2, 62, 0
4, 20224, Note_on_c, 2, 64, 96
4, 20480, Note_off_c, 2, 64, 0
4, 20480, Note_on_c, 2, 65, 96
4, 20736, Note_off_c, 2, 65, 0
4, 20736, Note_on_c, 2, 64, 96
4, 20992, Note_off_c, 2, 64, 0
4, 20992, Note_on_c, 2, 62, 96
4, 21248, Note_off_c, 2, 62, 0
4, 21248, Note_on_c, 2, 60, 96
4, 21504, Note_off_c, 2, 60, 0
4, 21504, Note_on_c, 2, 59, 96
4, 22528, Note_off_c, 2, 59, 0
4, 22528, Note_on_c, 2, 60, 96
4, 23552, Note_off_c, 2, 60, 0
4, 23808, Note_on_c, 2, 60, 96
4, 24064, Note_off_c, 2, 60, 0
4, 24064, Note_on_c, 2, 62, 96
4, 24320, Note_off_c, 2, 62, 0
4, 24320, Note_on_c, 2, 64, 96
4, 24576, Note_off_c, 2, 64, 0
4, 24576, Note_on_c, 2, 65, 96
4, 25600, Note_off_c, 2, 65, 0
4, 25600, Note_on_c, 2, 60, 96
4, 26624, Note_off_c, 2, 60, 0
4, 26624, Note_on_c, 2, 59, 96
4, 26880, Note_off_c, 2, 59, 0
4, 26880, Note_on_c, 2, 60, 96
4, 27136, Note_off_c, 2, 60, 0
4, 27136, Note_on_c, 2, 62, 96
4, 28160, Note_off_c, 2, 62, 0
4, 28160, Note_on_c, 2, 61, 96
4, 28416, Note_off_c, 2, 61, 0
4, 28416, Note_on_c, 2, 62, 96
4, 28672, Note_off_c, 2, 62, 0
4, 28672, Note_on_c, 2, 64, 96
4, 29952, Note_off_c, 2, 64, 0
4, 29952, Note_on_c, 2, 57, 96
4, 30208, Note_off_c, 2, 57, 0
4, 30208, Note_on_c, 2, 62, 96
4, 30976, Note_off_c, 2, 62, 0
4, 30976, Note_on_c, 2, 62, 96
4, 31232, Note_off_c, 2, 62, 0
4, 31232, Note_on_c, 2, 60, 96
4, 31488, Note_off_c, 2, 60, 0
4, 31488, Note_on_c, 2, 59, 96
4, 31744, Note_off_c, 2, 59, 0
4, 31744, Note_on_c, 2, 60, 96
4, 32768, Note_off_c, 2, 60, 0
4, 34048, Note_on_c, 2, 65, 96
4, 34304, Note_off_c, 2, 65, 0
4, 34304, Note_on_c, 2, 64, 96
4, 34560, Note_off_c, 2, 64, 0
4, 34560, Note_on_c, 2, 62, 96
4, 34816, Note_off_c, 2, 62, 0
4, 34816, Note_on_c, 2, 60, 96
4, 35328, Note_off_c, 2, 60, 0
4, 35840, Note_on_c, 2, 67, 96
4, 36864, Note_off_c, 2, 67, 0
4, 36864, Note_on_c, 2, 69, 96
4, 37888, Note_off_c, 2, 69, 0
4, 38144, Note_on_c, 2, 59, 96
4, 38400, Note_off_c, 2, 59, 0
4, 38400, Note_on_c, 2, 60, 96
4, 38656, Note_off_c, 2, 60, 0
4, 38656, Note_on_c, 2, 62, 96
4, 38912, Note_off_c, 2, 62, 0
4, 38912, Note_on_c, 2, 64, 96
4, 39168, Note_off_c, 2, 64, 0
4, 39168, Note_on_c, 2, 65, 96
4, 39424, Note_off_c, 2, 65, 0
4, 39424, Note_on_c, 2, 67, 96
4, 39680, Note_off_c, 2, 67, 0
4, 39680, Note_on_c, 2, 64, 96
4, 39936, Note_off_c, 2, 64, 0
4, 39936, Note_on_c, 2, 69, 96
4, 40960, Note_off_c, 2, 69, 0
4, 41216, Note_on_c, 2, 67, 96
4, 41472, Note_off_c, 2, 67, 0
4, 41472, Note_on_c, 2, 65, 96
4, 41728, Note_off_c, 2, 65, 0
4, 41728, Note_on_c, 2, 64, 96
4, 41984, Note_off_c, 2, 64, 0
4, 41984, Note_on_c, 2, 62, 96
4, 43776, Note_off_c, 2, 62, 0
4, 43776, Note_on_c, 2, 62, 96
4, 44032, Note_off_c, 2, 62, 0
4, 44032, Note_on_c, 2, 60, 96
4, 46336, Note_off_c, 2, 60, 0
4, 46336, Note_on_c, 2, 60, 96
4, 46592, Note_off_c, 2, 60, 0
4, 46592, Note_on_c, 2, 59, 96
4, 46848, Note_off_c, 2, 59, 0
4, 46848, Note_on_c, 2, 57, 96
4, 47104, Note_off_c, 2, 57, 0
4, 47104, Note_on_c, 2, 59, 96
4, 48128, Note_off_c, 2, 59, 0
4, 48128, Note_on_c, 2, 59, 96
4, 48128, Note_on_c, 2, 64, 96
4, 49152, Note_off_c, 2, 59, 0
4, 49152, Note_off_c, 2, 64, 0
4, 49152, Note_on_c, 2, 61, 96
4, 50176, Note_off_c, 2, 61, 0
4, 50432, Note_on_c, 2, 61, 96
4, 50688, Note_off_c, 2, 61, 0
4, 50688, Note_on_c, 2, 62, 96
4, 50944, Note_off_c, 2, 62, 0
4, 50944, Note_on_c, 2, 64, 96
4, 51200, Note_off_c, 2, 64, 0
4, 51200, Note_on_c, 2, 65, 96
4, 51456, Note_off_c, 2, 65, 0
4, 51456, Note_on_c, 2, 64, 96
4, 51712, Note_off_c, 2, 64, 0
4, 51712, Note_on_c, 2, 62, 96
4, 51968, Note_off_c, 2, 62, 0
4, 51968, Note_on_c, 2, 60, 96
4, 52224, Note_off_c, 2, 60, 0
4, 52224, Note_on_c, 2, 59, 96
4, 53248, Note_off_c, 2, 59, 0
4, 53248, Note_on_c, 2, 60, 96
4, 54272, Note_off_c, 2, 60, 0
4, 54528, Note_on_c, 2, 60, 96
4, 54784, Note_off_c, 2, 60, 0
4, 54784, Note_on_c, 2, 62, 96
4, 55040, Note_off_c, 2, 62, 0
4, 55040, Note_on_c, 2, 64, 96
4, 55296, Note_off_c, 2, 64, 0
4, 55296, Note_on_c, 2, 65, 96
4, 56320, Note_off_c, 2, 65, 0
4, 56320, Note_on_c, 2, 60, 96
4, 57344, Note_off_c, 2, 60, 0
4, 57344, Note_on_c, 2, 59, 96
4, 57600, Note_off_c, 2, 59, 0
4, 57600, Note_on_c, 2, 60, 96
4, 57856, Note_off_c, 2, 60, 0
4, 57856, Note_on_c, 2, 62, 96
4, 58880, Note_off_c, 2, 62, 0
4, 58880, Note_on_c, 2, 61, 96
4, 59136, Note_off_c, 2, 61, 0
4, 59136, Note_on_c, 2, 62, 96
4, 59392, Note_off_c, 2, 62, 0
4, 59392, Note_on_c, 2, 64, 96
4, 60672, Note_off_c, 2, 64, 0
4, 60672, Note_on_c, 2, 57, 96
4, 60928, Note_off_c, 2, 57, 0
4, 60928, Note_on_c, 2, 62, 96
4, 61696, Note_off_c, 2, 62, 0
4, 61696, Note_on_c, 2, 62, 96
4, 61952, Note_off_c, 2, 62, 0
4, 61952, Note_on_c, 2, 60, 96
4, 62208, Note_off_c, 2, 60, 0
4, 62208, Note_on_c, 2, 59, 96
4, 62464, Note_off_c, 2, 59, 0
4, 62464, Note_on_c, 2, 60, 96
4, 63488, Note_off_c, 2, 60, 0
4, 64768, Note_on_c, 2, 69, 96
4, 65024, Note_off_c, 2, 69, 0
4, 65024, Note_on_c, 2, 67, 96
4, 65280, Note_off_c, 2, 67, 0
4, 65280, Note_on_c, 2, 65, 96
4, 65536, Note_off_c, 2, 65, 0
4, 65536, Note_on_c, 2, 64, 96
4, 66048, Note_off_c, 2, 64, 0
4, 66560, Note_on_c, 2, 71, 96
4, 67584, Note_off_c, 2, 71, 0
4, 67584, Note_on_c, 2, 72, 96
4, 68608, Note_off_c, 2, 72, 0
4, 68864, Note_on_c, 2, 62, 96
4, 69120, Note_off_c, 2, 62, 0
4, 69120, Note_on_c, 2, 64, 96
4, 69376, Note_off_c, 2, 64, 0
4, 69376, Note_on_c, 2, 65, 96
4, 69632, Note_off_c, 2, 65, 0
4, 69632, Note_on_c, 2, 67, 96
4, 69888, Note_off_c, 2, 67, 0
4, 69888, Note_on_c, 2, 69, 96
4, 70144, Note_off_c, 2, 69, 0
4, 70144, Note_on_c, 2, 70, 96
4, 70400, Note_off_c, 2, 70, 0
4, 70400, Note_on_c, 2, 67, 96
4, 70656, Note_off_c, 2, 67, 0
4, 70656, Note_on_c, 2, 69, 96
4, 71680, Note_off_c, 2, 69, 0
4, 73216, Note_on_c, 2, 65, 96
4, 73728, Note_off_c, 2, 65, 0
4, 73728, Note_on_c, 2, 64, 96
4, 74240, Note_off_c, 2, 64, 0
4, 74240, Note_on_c, 2, 65, 96
4, 74752, Note_off_c, 2, 65, 0
4, 74752, Note_on_c, 2, 67, 96
4, 75264, Note_off_c, 2, 67, 0
4, 75264, Note_on_c, 2, 69, 96
4, 75776, Note_off_c, 2, 69, 0
4, 75776, Note_on_c, 2, 70, 96
4, 76288, Note_off_c, 2, 70, 0
4, 76288, Note_on_c, 2, 64, 96
4, 76800, Note_off_c, 2, 64, 0
4, 76800, Note_on_c, 2, 69, 96
4, 78336, Note_off_c, 2, 69, 0
4, 78336, Note_on_c, 2, 71, 96
4, 78848, Note_off_c, 2, 71, 0
4, 78848, Note_on_c, 2, 72, 96
4, 81408, Note_off_c, 2, 72, 0
4, 81408, Note_on_c, 2, 71, 96
4, 82432, Note_off_c, 2, 71, 0
4, 82432, Note_on_c, 2, 69, 96
4, 83200, Note_off_c, 2, 69, 0
4, 83200, Note_on_c, 2, 69, 96
4, 83456, Note_off_c, 2, 69, 0
4, 83456, Note_on_c, 2, 68, 96
4, 83712, Note_off_c, 2, 68, 0
4, 83712, Note_on_c, 2, 66, 96
4, 83968, Note_off_c, 2, 66, 0
4, 83968, Note_on_c, 2, 68, 96
4, 84480, Note_off_c, 2, 68, 0
4, 84480, Note_on_c, 2, 67, 96
4, 84992, Note_off_c, 2, 67, 0
4, 84992, Note_on_c, 2, 66, 96
4, 85504, Note_off_c, 2, 66, 0
4, 85504, Note_on_c, 2, 65, 96
4, 86016, Note_off_c, 2, 65, 0
4, 86016, Note_on_c, 2, 64, 96
4, 86528, Note_off_c, 2, 64, 0
4, 86528, Note_on_c, 2, 65, 96
4, 87040, Note_off_c, 2, 65, 0
4, 87040, Note_on_c, 2, 64, 96
4, 88320, Note_off_c, 2, 64, 0
4, 88320, Note_on_c, 2, 65, 96
4, 88576, Note_off_c, 2, 65, 0
4, 88576, Note_on_c, 2, 64, 96
4, 88832, Note_off_c, 2, 64, 0
4, 88832, Note_on_c, 2, 62, 96
4, 89088, Note_off_c, 2, 62, 0
4, 89088, Note_on_c, 2, 61, 96
4, 89600, Note_off_c, 2, 61, 0
4, 89600, Note_on_c, 2, 64, 96
4, 90368, Note_off_c, 2, 64, 0
4, 90368, Note_on_c, 2, 57, 96
4, 90624, Note_off_c, 2, 57, 0
4, 90624, Note_on_c, 2, 62, 96
4, 92416, Note_off_c, 2, 62, 0
4, 92416, Note_on_c, 2, 62, 96
4, 92672, Note_off_c, 2, 62, 0
4, 92672, Note_on_c, 2, 60, 96
4, 92928, Note_off_c, 2, 60, 0
4, 92928, Note_on_c, 2, 59, 96
4, 93184, Note_off_c, 2, 59, 0
4, 93184, Note_on_c, 2, 60, 96
4, 94208, Note_off_c, 2, 60, 0
4, 95488, Note_on_c, 2, 69, 96
4, 95744, Note_off_c, 2, 69, 0
4, 95744, Note_on_c, 2, 67, 96
4, 96000, Note_off_c, 2, 67, 0
4, 96000, Note_on_c, 2, 65, 96
4, 96256, Note_off_c, 2, 65, 0
4, 96256, Note_on_c, 2, 64, 96
4, 96768, Note_off_c, 2, 64, 0
4, 97280, Note_on_c, 2, 71, 96
4, 98304, Note_off_c, 2, 71, 0
4, 98304, Note_on_c, 2, 72, 96
4, 99328, Note_off_c, 2, 72, 0
4, 99584, Note_on_c, 2, 62, 96
4, 99840, Note_off_c, 2, 62, 0
4, 99840, Note_on_c, 2, 64, 96
4, 100096, Note_off_c, 2, 64, 0
4, 100096, Note_on_c, 2, 65, 96
4, 100352, Note_off_c, 2, 65, 0
4, 100352, Note_on_c, 2, 67, 96
4, 100608, Note_off_c, 2, 67, 0
4, 100608, Note_on_c, 2, 69, 96
4, 100864, Note_off_c, 2, 69, 0
4, 100864, Note_on_c, 2, 70, 96
4, 101120, Note_off_c, 2, 70, 0
4, 101120, Note_on_c, 2, 67, 96
4, 101376, Note_off_c, 2, 67, 0
4, 101376, Note_on_c, 2, 69, 96
4, 102400, Note_off_c, 2, 69, 0
4, 103936, Note_on_c, 2, 65, 96
4, 104448, Note_off_c, 2, 65, 0
4, 104448, Note_on_c, 2, 64, 96
4, 104960, Note_off_c, 2, 64, 0
4, 104960, Note_on_c, 2, 65, 96
4, 105472, Note_off_c, 2, 65, 0
4, 105472, Note_on_c, 2, 67, 96
4, 105984, Note_off_c, 2, 67, 0
4, 105984, Note_on_c, 2, 69, 96
4, 106496, Note_off_c, 2, 69, 0
4, 106496, Note_on_c, 2, 70, 96
4, 107008, Note_off_c, 2, 70, 0
4, 107008, Note_on_c, 2, 64, 96
4, 107520, Note_off_c, 2, 64, 0
4, 107520, Note_on_c, 2, 69, 96
4, 109056, Note_off_c, 2, 69, 0
4, 109056, Note_on_c, 2, 71, 96
4, 109568, Note_off_c, 2, 71, 0
4, 109568, Note_on_c, 2, 72, 96
4, 112128, Note_off_c, 2, 72, 0
4, 112128, Note_on_c, 2, 71, 96
4, 113152, Note_off_c, 2, 71, 0
4, 113152, Note_on_c, 2, 69, 96
4, 113920, Note_off_c, 2, 69, 0
4, 113920, Note_on_c, 2, 69, 96
4, 114176, Note_off_c, 2, 69, 0
4, 114176, Note_on_c, 2, 68, 96
4, 114432, Note_off_c, 2, 68, 0
4, 114432, Note_on_c, 2, 66, 96
4, 114688, Note_off_c, 2, 66, 0
4, 114688, Note_on_c, 2, 68, 96
4, 115200, Note_off_c, 2, 68, 0
4, 115200, Note_on_c, 2, 67, 96
4, 115712, Note_off_c, 2, 67, 0
4, 115712, Note_on_c, 2, 66, 96
4, 116224, Note_off_c, 2, 66, 0
4, 116224, Note_on_c, 2, 65, 96
4, 116736, Note_off_c, 2, 65, 0
4, 116736, Note_on_c, 2, 64, 96
4, 117248, Note_off_c, 2, 64, 0
4, 117248, Note_on_c, 2, 65, 96
4, 117760, Note_off_c, 2, 65, 0
4, 117760, Note_on_c, 2, 64, 96
4, 119040, Note_off_c, 2, 64, 0
4, 119040, Note_on_c, 2, 65, 96
4, 119296, Note_off_c, 2, 65, 0
4, 119296, Note_on_c, 2, 64, 96
4, 119552, Note_off_c, 2, 64, 0
4, 119552, Note_on_c, 2, 62, 96
4, 119808, Note_off_c, 2, 62, 0
4, 119808, Note_on_c, 2, 61, 96
4, 120320, Note_off_c, 2, 61, 0
4, 120320, Note_on_c, 2, 64, 96
4, 121088, Note_off_c, 2, 64, 0
4, 121088, Note_on_c, 2, 57, 96
4, 121344, Note_off_c, 2, 57, 0
4, 121344, Note_on_c, 2, 62, 96
4, 123136, Note_off_c, 2, 62, 0
4, 123136, Note_on_c, 2, 62, 96
4, 123392, Note_off_c, 2, 62, 0
4, 123392, Note_on_c, 2, 60, 96
4, 123648, Note_off_c, 2, 60, 0
4, 123648, Note_on_c, 2, 59, 96
4, 123904, Note_off_c, 2, 59, 0
4, 123904, Note_on_c, 2, 60, 96
4, 125952, Note_off_c, 2, 60, 0
4, 125953, End_track
5, 0, Start_track
5, 0, Title_t, "Instrument 4"
5, 13568, Note_on_c, 3, 59, 96
5, 13824, Note_off_c, 3, 59, 0
5, 13824, Note_on_c, 3, 57, 96
5, 14080, Note_off_c, 3, 57, 0
5, 14080, Note_on_c, 3, 56, 96
5, 14336, Note_off_c, 3, 56, 0
5, 14336, Note_on_c, 3, 57, 96
5, 16640, Note_off_c, 3, 57, 0
5, 16640, Note_on_c, 3, 57, 96
5, 16896, Note_off_c, 3, 57, 0
5, 16896, Note_on_c, 3, 55, 96
5, 17152, Note_off_c, 3, 55, 0
5, 17152, Note_on_c, 3, 54, 96
5, 17408, Note_off_c, 3, 54, 0
5, 17408, Note_on_c, 3, 52, 96
5, 18688, Note_off_c, 3, 52, 0
5, 18688, Note_on_c, 3, 52, 96
5, 18944, Note_off_c, 3, 52, 0
5, 18944, Note_on_c, 3, 53, 96
5, 19200, Note_off_c, 3, 53, 0
5, 19200, Note_on_c, 3, 55, 96
5, 19456, Note_off_c, 3, 55, 0
5, 19456, Note_on_c, 3, 57, 96
5, 20736, Note_off_c, 3, 57, 0
5, 20736, Note_on_c, 3, 60, 96
5, 20992, Note_off_c, 3, 60, 0
5, 20992, Note_on_c, 3, 59, 96
5, 21248, Note_off_c, 3, 59, 0
5, 21248, Note_on_c, 3, 57, 96
5, 21504, Note_off_c, 3, 57, 0
5, 21504, Note_on_c, 3, 56, 96
5, 22528, Note_off_c, 3, 56, 0
5, 22528, Note_on_c, 3, 57, 96
5, 23552, Note_off_c, 3, 57, 0
5, 23808, Note_on_c, 3, 45, 96
5, 24064, Note_off_c, 3, 45, 0
5, 24064, Note_on_c, 3, 47, 96
5, 24320, Note_off_c, 3, 47, 0
5, 24320, Note_on_c, 3, 48, 96
5, 24576, Note_off_c, 3, 48, 0
5, 24576, Note_on_c, 3, 50, 96
5, 25600, Note_off_c, 3, 50, 0
5, 25856, Note_on_c, 3, 47, 96
5, 26112, Note_off_c, 3, 47, 0
5, 26112, Note_on_c, 3, 48, 96
5, 26368, Note_off_c, 3, 48, 0
5, 26368, Note_on_c, 3, 50, 96
5, 26624, Note_off_c, 3, 50, 0
5, 26624, Note_on_c, 3, 52, 96
5, 27904, Note_off_c, 3, 52, 0
5, 27904, Note_on_c, 3, 53, 96
5, 28160, Note_off_c, 3, 53, 0
5, 28160, Note_on_c, 3, 55, 96
5, 28928, Note_off_c, 3, 55, 0
5, 28928, Note_on_c, 3, 55, 96
5, 29184, Note_off_c, 3, 55, 0
5, 29184, Note_on_c, 3, 54, 96
5, 29440, Note_off_c, 3, 54, 0
5, 29440, Note_on_c, 3, 52, 96
5, 29696, Note_off_c, 3, 52, 0
5, 29696, Note_on_c, 3, 54, 96
5, 30208, Note_off_c, 3, 54, 0
5, 30208, Note_on_c, 3, 53, 96
5, 30720, Note_off_c, 3, 53, 0
5, 30720, Note_on_c, 3, 52, 96
5, 32000, Note_off_c, 3, 52, 0
5, 32000, Note_on_c, 3, 57, 96
5, 32256, Note_off_c, 3, 57, 0
5, 32256, Note_on_c, 3, 52, 96
5, 32512, Note_off_c, 3, 52, 0
5, 32512, Note_on_c, 3, 48, 96
5, 32768, Note_off_c, 3, 48, 0
5, 32768, Note_on_c, 3, 45, 96
5, 33792, Note_off_c, 3, 45, 0
5, 44288, Note_on_c, 3, 59, 96
5, 44544, Note_off_c, 3, 59, 0
5, 44544, Note_on_c, 3, 57, 96
5, 44800, Note_off_c, 3, 57, 0
5, 44800, Note_on_c, 3, 56, 96
5, 45056, Note_off_c, 3, 56, 0
5, 45056, Note_on_c, 3, 57, 96
5, 47360, Note_off_c, 3, 57, 0
5, 47360, Note_on_c, 3, 57, 96
5, 47616, Note_off_c, 3, 57, 0
5, 47616, Note_on_c, 3, 55, 96
5, 47872, Note_off_c, 3, 55, 0
5, 47872, Note_on_c, 3, 54, 96
5, 48128, Note_off_c, 3, 54, 0
5, 48128, Note_on_c, 3, 52, 96
5, 49408, Note_off_c, 3, 52, 0
5, 49408, Note_on_c, 3, 52, 96
5, 49664, Note_off_c, 3, 52, 0
5, 49664, Note_on_c, 3, 53, 96
5, 49920, Note_off_c, 3, 53, 0
5, 49920, Note_on_c, 3, 55, 96
5, 50176, Note_off_c, 3, 55, 0
5, 50176, Note_on_c, 3, 57, 96
5, 51456, Note_off_c, 3, 57, 0
5, 51456, Note_on_c, 3, 60, 96
5, 51712, Note_off_c, 3, 60, 0
5, 51712, Note_on_c, 3, 59, 96
5, 51968, Note_off_c, 3, 59, 0
5, 51968, Note_on_c, 3, 57, 96
5, 52224, Note_off_c, 3, 57, 0
5, 52224, Note_on_c, 3, 56, 96
5, 53248, Note_off_c, 3, 56, 0
5, 53248, Note_on_c, 3, 57, 96
5, 54272, Note_off_c, 3, 57, 0
5, 54528, Note_on_c, 3, 45, 96
5, 54784, Note_off_c, 3, 45, 0
5, 54784, Note_on_c, 3, 47, 96
5, 55040, Note_off_c, 3, 47, 0
5, 55040, Note_on_c, 3, 48, 96
5, 55296, Note_off_c, 3, 48, 0
5, 55296, Note_on_c, 3, 50, 96
5, 56320, Note_off_c, 3, 50, 0
5, 56576, Note_on_c, 3, 47, 96
5, 56832, Note_off_c, 3, 47, 0
5, 56832, Note_on_c, 3, 48, 96
5, 57088, Note_off_c, 3, 48, 0
5, 57088, Note_on_c, 3, 50, 96
5, 57344, Note_off_c, 3, 50, 0
5, 57344, Note_on_c, 3, 52, 96
5, 58624, Note_off_c, 3, 52, 0
5, 58624, Note_on_c, 3, 53, 96
5, 58880, Note_off_c, 3, 53, 0
5, 58880, Note_on_c, 3, 55, 96
5, 59648, Note_off_c, 3, 55, 0
5, 59648, Note_on_c, 3, 55, 96
5, 59904, Note_off_c, 3, 55, 0
5, 59904, Note_on_c, 3, 54, 96
5, 60160, Note_off_c, 3, 54, 0
5, 60160, Note_on_c, 3, 52, 96
5, 60416, Note_off_c, 3, 52, 0
5, 60416, Note_on_c, 3, 54, 96
5, 60928, Note_off_c, 3, 54, 0
5, 60928, Note_on_c, 3, 53, 96
5, 61440, Note_off_c, 3, 53, 0
5, 61440, Note_on_c, 3, 52, 96
5, 62720, Note_off_c, 3, 52, 0
5, 62720, Note_on_c, 3, 57, 96
5, 62976, Note_off_c, 3, 57, 0
5, 62976, Note_on_c, 3, 52, 96
5, 63232, Note_off_c, 3, 52, 0
5, 63232, Note_on_c, 3, 48, 96
5, 63488, Note_off_c, 3, 48, 0
5, 63488, Note_on_c, 3, 45, 96
5, 64512, Note_off_c, 3, 45, 0
5, 64512, Note_on_c, 3, 45, 96
5, 65536, Note_off_c, 3, 45, 0
5, 71936, Note_on_c, 3, 69, 96
5, 72192, Note_off_c, 3, 69, 0
5, 72192, Note_on_c, 3, 67, 96
5, 72448, Note_off_c, 3, 67, 0
5, 72448, Note_on_c, 3, 65, 96
5, 72704, Note_off_c, 3, 65, 0
5, 72704, Note_on_c, 3, 64, 96
5, 73216, Note_off_c, 3, 64, 0
5, 73216, Note_on_c, 3, 62, 96
5, 73728, Note_off_c, 3, 62, 0
5, 73728, Note_on_c, 3, 60, 96
5, 74240, Note_off_c, 3, 60, 0
5, 74240, Note_on_c, 3, 62, 96
5, 74752, Note_off_c, 3, 62, 0
5, 74752, Note_on_c, 3, 64, 96
5, 75264, Note_off_c, 3, 64, 0
5, 75264, Note_on_c, 3, 65, 96
5, 75776, Note_off_c, 3, 65, 0
5, 75776, Note_on_c, 3, 67, 96
5, 77312, Note_off_c, 3, 67, 0
5, 77312, Note_on_c, 3, 60, 96
5, 77824, Note_off_c, 3, 60, 0
5, 77824, Note_on_c, 3, 65, 96
5, 78848, Note_off_c, 3, 65, 0
5, 78848, Note_on_c, 3, 67, 96
5, 79360, Note_off_c, 3, 67, 0
5, 79360, Note_on_c, 3, 68, 96
5, 79872, Note_off_c, 3, 68, 0
5, 79872, Note_on_c, 3, 69, 96
5, 80128, Note_off_c, 3, 69, 0
5, 80128, Note_on_c, 3, 57, 96
5, 80384, Note_off_c, 3, 57, 0
5, 80384, Note_on_c, 3, 59, 96
5, 80640, Note_off_c, 3, 59, 0
5, 80640, Note_on_c, 3, 60, 96
5, 80896, Note_off_c, 3, 60, 0
5, 80896, Note_on_c, 3, 62, 96
5, 81408, Note_off_c, 3, 62, 0
5, 81408, Note_on_c, 3, 64, 96
5, 82944, Note_off_c, 3, 64, 0
5, 84224, Note_on_c, 3, 65, 96
5, 84480, Note_off_c, 3, 65, 0
5, 84480, Note_on_c, 3, 64, 96
5, 84736, Note_off_c, 3, 64, 0
5, 84736, Note_on_c, 3, 62, 96
5, 84992, Note_off_c, 3, 62, 0
5, 84992, Note_on_c, 3, 60, 96
5, 85248, Note_off_c, 3, 60, 0
5, 85248, Note_on_c, 3, 59, 96
5, 85504, Note_off_c, 3, 59, 0
5, 85504, Note_on_c, 3, 57, 96
5, 85760, Note_off_c, 3, 57, 0
5, 85760, Note_on_c, 3, 56, 96
5, 86016, Note_off_c, 3, 56, 0
5, 86016, Note_on_c, 3, 57, 96
5, 87296, Note_off_c, 3, 57, 0
5, 87296, Note_on_c, 3, 57, 96
5, 87552, Note_off_c, 3, 57, 0
5, 87552, Note_on_c, 3, 56, 96
5, 87808, Note_off_c, 3, 56, 0
5, 87808, Note_on_c, 3, 54, 96
5, 88064, Note_off_c, 3, 54, 0
5, 88064, Note_on_c, 3, 56, 96
5, 88576, Note_off_c, 3, 56, 0
5, 88576, Note_on_c, 3, 55, 96
5, 89344, Note_off_c, 3, 55, 0
5, 89344, Note_on_c, 3, 55, 96
5, 89600, Note_off_c, 3, 55, 0
5, 89600, Note_on_c, 3, 54, 96
5, 89856, Note_off_c, 3, 54, 0
5, 89856, Note_on_c, 3, 52, 96
5, 90112, Note_off_c, 3, 52, 0
5, 90112, Note_on_c, 3, 54, 96
5, 90624, Note_off_c, 3, 54, 0
5, 90624, Note_on_c, 3, 53, 96
5, 91392, Note_off_c, 3, 53, 0
5, 91392, Note_on_c, 3, 53, 96
5, 91648, Note_off_c, 3, 53, 0
5, 91648, Note_on_c, 3, 52, 96
5, 91904, Note_off_c, 3, 52, 0
5, 91904, Note_on_c, 3, 50, 96
5, 92160, Note_off_c, 3, 50, 0
5, 92160, Note_on_c, 3, 52, 96
5, 92928, Note_off_c, 3, 52, 0
5, 92928, Note_on_c, 3, 48, 96
5, 93184, Note_off_c, 3, 48, 0
5, 93184, Note_on_c, 3, 47, 96
5, 93440, Note_off_c, 3, 47, 0
5, 93440, Note_on_c, 3, 45, 96
5, 93696, Note_off_c, 3, 45, 0
5, 93696, Note_on_c, 3, 44, 96
5, 94208, Note_off_c, 3, 44, 0
5, 94208, Note_on_c, 3, 40, 96
5, 94720, Note_off_c, 3, 40, 0
5, 95232, Note_on_c, 3, 45, 96
5, 96256, Note_off_c, 3, 45, 0
5, 102656, Note_on_c, 3, 69, 96
5, 102912, Note_off_c, 3, 69, 0
5, 102912, Note_on_c, 3, 67, 96
5, 103168, Note_off_c, 3, 67, 0
5, 103168, Note_on_c, 3, 65, 96
5, 103424, Note_off_c, 3, 65, 0
5, 103424, Note_on_c, 3, 64, 96
5, 103936, Note_off_c, 3, 64, 0
5, 103936, Note_on_c, 3, 62, 96
5, 104448, Note_off_c, 3, 62, 0
5, 104448, Note_on_c, 3, 60, 96
5, 104960, Note_off_c, 3, 60, 0
5, 104960, Note_on_c, 3, 62, 96
5, 105472, Note_off_c, 3, 62, 0
5, 105472, Note_on_c, 3, 64, 96
5, 105984, Note_off_c, 3, 64, 0
5, 105984, Note_on_c, 3, 65, 96
5, 106496, Note_off_c, 3, 65, 0
5, 106496, Note_on_c, 3, 67, 96
5, 108032, Note_off_c, 3, 67, 0
5, 108032, Note_on_c, 3, 60, 96
5, 108544, Note_off_c, 3, 60, 0
5, 108544, Note_on_c, 3, 65, 96
5, 109568, Note_off_c, 3, 65, 0
5, 109568, Note_on_c, 3, 67, 96
5, 110080, Note_off_c, 3, 67, 0
5, 110080, Note_on_c, 3, 68, 96
5, 110592, Note_off_c, 3, 68, 0
5, 110592, Note_on_c, 3, 69, 96
5, 110848, Note_off_c, 3, 69, 0
5, 110848, Note_on_c, 3, 57, 96
5, 111104, Note_off_c, 3, 57, 0
5, 111104, Note_on_c, 3, 59, 96
5, 111360, Note_off_c, 3, 59, 0
5, 111360, Note_on_c, 3, 60, 96
5, 111616, Note_off_c, 3, 60, 0
5, 111616, Note_on_c, 3, 62, 96
5, 112128, Note_off_c, 3, 62, 0
5, 112128, Note_on_c, 3, 64, 96
5, 113664, Note_off_c, 3, 64, 0
5, 114944, Note_on_c, 3, 65, 96
5, 115200, Note_off_c, 3, 65, 0
5, 115200, Note_on_c, 3, 64, 96
5, 115456, Note_off_c, 3, 64, 0
5, 115456, Note_on_c, 3, 62, 96
5, 115712, Note_off_c, 3, 62, 0
5, 115712, Note_on_c, 3, 60, 96
5, 115968, Note_off_c, 3, 60, 0
5, 115968, Note_on_c, 3, 59, 96
5, 116224, Note_off_c, 3, 59, 0
5, 116224, Note_on_c, 3, 57, 96
5, 116480, Note_off_c, 3, 57, 0
5, 116480, Note_on_c, 3, 56, 96
5, 116736, Note_off_c, 3, 56, 0
5, 116736, Note_on_c, 3, 57, 96
5, 118016, Note_off_c, 3, 57, 0
5, 118016, Note_on_c, 3, 57, 96
5, 118272, Note_off_c, 3, 57, 0
5, 118272, Note_on_c, 3, 56, 96
5, 118528, Note_off_c, 3, 56, 0
5, 118528, Note_on_c, 3, 54, 96
5, 118784, Note_off_c, 3, 54, 0
5, 118784, Note_on_c, 3, 56, 96
5, 119296, Note_off_c, 3, 56, 0
5, 119296, Note_on_c, 3, 55, 96
5, 120064, Note_off_c, 3, 55, 0
5, 120064, Note_on_c, 3, 55, 96
5, 120320, Note_off_c, 3, 55, 0
5, 120320, Note_on_c, 3, 54, 96
5, 120576, Note_off_c, 3, 54, 0
5, 120576, Note_on_c, 3, 52, 96
5, 120832, Note_off_c, 3, 52, 0
5, 120832, Note_on_c, 3, 54, 96
5, 121344, Note_off_c, 3, 54, 0
5, 121344, Note_on_c, 3, 53, 96
5, 122112, Note_off_c, 3, 53, 0
5, 122112, Note_on_c, 3, 53, 96
5, 122368, Note_off_c, 3, 53, 0
5, 122368, Note_on_c, 3, 52, 96
5, 122624, Note_off_c, 3, 52, 0
5, 122624, Note_on_c, 3, 50, 96
5, 122880, Note_off_c, 3, 50, 0
5, 122880, Note_on_c, 3, 52, 96
5, 125952, Note_off_c, 3, 52, 0
5, 125953, End_track
6, 0, Start_track
6, 0, Title_t, "Instrument 5"
6, 4352, Note_on_c, 4, 57, 96
6, 4608, Note_off_c, 4, 57, 0
6, 4608, Note_on_c, 4, 55, 96
6, 4864, Note_off_c, 4, 55, 0
6, 4864, Note_on_c, 4, 53, 96
6, 5120, Note_off_c, 4, 53, 0
6, 5120, Note_on_c, 4, 52, 96
6, 5376, Note_off_c, 4, 52, 0
6, 5376, Note_on_c, 4, 50, 96
6, 5632, Note_off_c, 4, 50, 0
6, 5632, Note_on_c, 4, 48, 96
6, 5888, Note_off_c, 4, 48, 0
6, 5888, Note_on_c, 4, 47, 96
6, 6144, Note_off_c, 4, 47, 0
6, 6144, Note_on_c, 4, 45, 96
6, 6400, Note_off_c, 4, 45, 0
6, 6400, Note_on_c, 4, 52, 96
6, 6656, Note_off_c, 4, 52, 0
6, 6656, Note_on_c, 4, 53, 96
6, 6912, Note_off_c, 4, 53, 0
6, 6912, Note_on_c, 4, 55, 96
6, 7168, Note_off_c, 4, 55, 0
6, 7168, Note_on_c, 4, 57, 96
6, 8192, Note_off_c, 4, 57, 0
6, 8192, Note_on_c, 4, 55, 96
6, 9216, Note_off_c, 4, 55, 0
6, 9216, Note_on_c, 4, 53, 96
6, 9728, Note_off_c, 4, 53, 0
6, 9728, Note_on_c, 4, 52, 96
6, 10240, Note_off_c, 4, 52, 0
6, 10240, Note_on_c, 4, 53, 96
6, 10752, Note_off_c, 4, 53, 0
6, 10752, Note_on_c, 4, 57, 96
6, 11264, Note_off_c, 4, 57, 0
6, 11264, Note_on_c, 4, 53, 96
6, 11776, Note_off_c, 4, 53, 0
6, 11776, Note_on_c, 4, 50, 96
6, 12288, Note_off_c, 4, 50, 0
6, 12288, Note_on_c, 4, 52, 96
6, 14592, Note_off_c, 4, 52, 0
6, 14592, Note_on_c, 4, 54, 96
6, 14848, Note_off_c, 4, 54, 0
6, 14848, Note_on_c, 4, 52, 96
6, 15104, Note_off_c, 4, 52, 0
6, 15104, Note_on_c, 4, 51, 96
6, 15360, Note_off_c, 4, 51, 0
6, 15360, Note_on_c, 4, 52, 96
6, 17664, Note_off_c, 4, 52, 0
6, 17664, Note_on_c, 4, 50, 96
6, 17920, Note_off_c, 4, 50, 0
6, 17920, Note_on_c, 4, 49, 96
6, 18176, Note_off_c, 4, 49, 0
6, 18176, Note_on_c, 4, 47, 96
6, 18432, Note_off_c, 4, 47, 0
6, 18432, Note_on_c, 4, 45, 96
6, 19456, Note_off_c, 4, 45, 0
6, 19712, Note_on_c, 4, 45, 96
6, 19968, Note_off_c, 4, 45, 0
6, 19968, Note_on_c, 4, 47, 96
6, 20224, Note_off_c, 4, 47, 0
6, 20224, Note_on_c, 4, 49, 96
6, 20480, Note_off_c, 4, 49, 0
6, 20480, Note_on_c, 4, 50, 96
6, 21760, Note_off_c, 4, 50, 0
6, 21760, Note_on_c, 4, 53, 96
6, 22016, Note_off_c, 4, 53, 0
6, 22016, Note_on_c, 4, 52, 96
6, 22272, Note_off_c, 4, 52, 0
6, 22272, Note_on_c, 4, 50, 96
6, 22528, Note_off_c, 4, 50, 0
6, 22528, Note_on_c, 4, 48, 96
6, 22784, Note_off_c, 4, 48, 0
6, 22784, Note_on_c, 4, 47, 96
6, 23040, Note_off_c, 4, 47, 0
6, 23040, Note_on_c, 4, 45, 96
6, 23296, Note_off_c, 4, 45, 0
6, 23296, Note_on_c, 4, 43, 96
6, 23552, Note_off_c, 4, 43, 0
6, 23552, Note_on_c, 4, 41, 96
6, 24576, Note_off_c, 4, 41, 0
6, 24832, Note_on_c, 4, 41, 96
6, 25088, Note_off_c, 4, 41, 0
6, 25088, Note_on_c, 4, 40, 96
6, 25344, Note_off_c, 4, 40, 0
6, 25344, Note_on_c, 4, 38, 96
6, 25600, Note_off_c, 4, 38, 0
6, 25600, Note_on_c, 4, 40, 96
6, 27648, Note_off_c, 4, 40, 0
6, 27648, Note_on_c, 4, 45, 96
6, 33792, Note_off_c, 4, 45, 0
6, 35072, Note_on_c, 4, 57, 96
6, 35328, Note_off_c, 4, 57, 0
6, 35328, Note_on_c, 4, 55, 96
6, 35584, Note_off_c, 4, 55, 0
6, 35584, Note_on_c, 4, 53, 96
6, 35840, Note_off_c, 4, 53, 0
6, 35840, Note_on_c, 4, 52, 96
6, 36096, Note_off_c, 4, 52, 0
6, 36096, Note_on_c, 4, 50, 96
6, 36352, Note_off_c, 4, 50, 0
6, 36352, Note_on_c, 4, 48, 96
6, 36608, Note_off_c, 4, 48, 0
6, 36608, Note_on_c, 4, 47, 96
6, 36864, Note_off_c, 4, 47, 0
6, 36864, Note_on_c, 4, 45, 96
6, 37120, Note_off_c, 4, 45, 0
6, 37120, Note_on_c, 4, 52, 96
6, 37376, Note_off_c, 4, 52, 0
6, 37376, Note_on_c, 4, 53, 96
6, 37632, Note_off_c, 4, 53, 0
6, 37632, Note_on_c, 4, 55, 96
6, 37888, Note_off_c, 4, 55, 0
6, 37888, Note_on_c, 4, 57, 96
6, 38912, Note_off_c, 4, 57, 0
6, 38912, Note_on_c, 4, 55, 96
6, 39936, Note_off_c, 4, 55, 0
6, 39936, Note_on_c, 4, 53, 96
6, 40448, Note_off_c, 4, 53, 0
6, 40448, Note_on_c, 4, 52, 96
6, 40960, Note_off_c, 4, 52, 0
6, 40960, Note_on_c, 4, 53, 96
6, 41472, Note_off_c, 4, 53, 0
6, 41472, Note_on_c, 4, 57, 96
6, 41984, Note_off_c, 4, 57, 0
6, 41984, Note_on_c, 4, 53, 96
6, 42496, Note_off_c, 4, 53, 0
6, 42496, Note_on_c, 4, 50, 96
6, 43008, Note_off_c, 4, 50, 0
6, 43008, Note_on_c, 4, 52, 96
6, 45312, Note_off_c, 4, 52, 0
6, 45312, Note_on_c, 4, 54, 96
6, 45568, Note_off_c, 4, 54, 0
6, 45568, Note_on_c, 4, 52, 96
6, 45824, Note_off_c, 4, 52, 0
6, 45824, Note_on_c, 4, 51, 96
6, 46080, Note_off_c, 4, 51, 0
6, 46080, Note_on_c, 4, 52, 96
6, 48384, Note_off_c, 4, 52, 0
6, 48384, Note_on_c, 4, 50, 96
6, 48640, Note_off_c, 4, 50, 0
6, 48640, Note_on_c, 4, 49, 96
6, 48896, Note_off_c, 4, 49, 0
6, 48896, Note_on_c, 4, 47, 96
6, 49152, Note_off_c, 4, 47, 0
6, 49152, Note_on_c, 4, 45, 96
6, 50432, Note_off_c, 4, 45, 0
6, 50432, Note_on_c, 4, 45, 96
6, 50688, Note_off_c, 4, 45, 0
6, 50688, Note_on_c, 4, 47, 96
6, 50944, Note_off_c, 4, 47, 0
6, 50944, Note_on_c, 4, 49, 96
6, 51200, Note_off_c, 4, 49, 0
6, 51200, Note_on_c, 4, 50, 96
6, 52480, Note_off_c, 4, 50, 0
6, 52480, Note_on_c, 4, 53, 96
6, 52736, Note_off_c, 4, 53, 0
6, 52736, Note_on_c, 4, 52, 96
6, 52992, Note_off_c, 4, 52, 0
6, 52992, Note_on_c, 4, 50, 96
6, 53248, Note_off_c, 4, 50, 0
6, 53248, Note_on_c, 4, 48, 96
6, 53504, Note_off_c, 4, 48, 0
6, 53504, Note_on_c, 4, 47, 96
6, 53760, Note_off_c, 4, 47, 0
6, 53760, Note_on_c, 4, 45, 96
6, 54016, Note_off_c, 4, 45, 0
6, 54016, Note_on_c, 4, 43, 96
6, 54272, Note_off_c, 4, 43, 0
6, 54272, Note_on_c, 4, 41, 96
6, 55296, Note_off_c, 4, 41, 0
6, 55552, Note_on_c, 4, 41, 96
6, 55808, Note_off_c, 4, 41, 0
6, 55808, Note_on_c, 4, 40, 96
6, 56064, Note_off_c, 4, 40, 0
6, 56064, Note_on_c, 4, 38, 96
6, 56320, Note_off_c, 4, 38, 0
6, 56320, Note_on_c, 4, 40, 96
6, 58368, Note_off_c, 4, 40, 0
6, 58368, Note_on_c, 4, 45, 96
6, 63488, Note_off_c, 4, 45, 0
6, 65792, Note_on_c, 4, 60, 96
6, 66048, Note_off_c, 4, 60, 0
6, 66048, Note_on_c, 4, 59, 96
6, 66304, Note_off_c, 4, 59, 0
6, 66304, Note_on_c, 4, 57, 96
6, 66560, Note_off_c, 4, 57, 0
6, 66560, Note_on_c, 4, 55, 96
6, 66816, Note_off_c, 4, 55, 0
6, 66816, Note_on_c, 4, 53, 96
6, 67072, Note_off_c, 4, 53, 0
6, 67072, Note_on_c, 4, 52, 96
6, 67328, Note_off_c, 4, 52, 0
6, 67328, Note_on_c, 4, 50, 96
6, 67584, Note_off_c, 4, 50, 0
6, 67584, Note_on_c, 4, 48, 96
6, 67840, Note_off_c, 4, 48, 0
6, 67840, Note_on_c, 4, 55, 96
6, 68096, Note_off_c, 4, 55, 0
6, 68096, Note_on_c, 4, 57, 96
6, 68352, Note_off_c, 4, 57, 0
6, 68352, Note_on_c, 4, 59, 96
6, 68608, Note_off_c, 4, 59, 0
6, 68608, Note_on_c, 4, 60, 96
6, 69632, Note_off_c, 4, 60, 0
6, 69632, Note_on_c, 4, 48, 96
6, 70656, Note_off_c, 4, 48, 0
6, 70656, Note_on_c, 4, 53, 96
6, 71168, Note_off_c, 4, 53, 0
6, 71168, Note_on_c, 4, 47, 96
6, 71680, Note_off_c, 4, 47, 0
6, 71680, Note_on_c, 4, 52, 96
6, 72192, Note_off_c, 4, 52, 0
6, 72192, Note_on_c, 4, 53, 96
6, 72704, Note_off_c, 4, 53, 0
6, 72704, Note_on_c, 4, 55, 96
6, 73216, Note_off_c, 4, 55, 0
6, 73216, Note_on_c, 4, 56, 96
6, 73728, Note_off_c, 4, 56, 0
6, 73728, Note_on_c, 4, 57, 96
6, 73984, Note_off_c, 4, 57, 0
6, 73984, Note_on_c, 4, 60, 96
6, 74240, Note_off_c, 4, 60, 0
6, 74240, Note_on_c, 4, 59, 96
6, 74496, Note_off_c, 4, 59, 0
6, 74496, Note_on_c, 4, 57, 96
6, 74752, Note_off_c, 4, 57, 0
6, 74752, Note_on_c, 4, 55, 96
6, 75008, Note_off_c, 4, 55, 0
6, 75008, Note_on_c, 4, 53, 96
6, 75264, Note_off_c, 4, 53, 0
6, 75264, Note_on_c, 4, 52, 96
6, 75520, Note_off_c, 4, 52, 0
6, 75520, Note_on_c, 4, 50, 96
6, 75776, Note_off_c, 4, 50, 0
6, 75776, Note_on_c, 4, 48, 96
6, 76032, Note_off_c, 4, 48, 0
6, 76032, Note_on_c, 4, 46, 96
6, 76288, Note_off_c, 4, 46, 0
6, 76288, Note_on_c, 4, 45, 96
6, 76544, Note_off_c, 4, 45, 0
6, 76544, Note_on_c, 4, 43, 96
6, 76800, Note_off_c, 4, 43, 0
6, 76800, Note_on_c, 4, 41, 96
6, 77056, Note_off_c, 4, 41, 0
6, 77056, Note_on_c, 4, 48, 96
6, 77312, Note_off_c, 4, 48, 0
6, 77312, Note_on_c, 4, 47, 96
6, 77568, Note_off_c, 4, 47, 0
6, 77568, Note_on_c, 4, 45, 96
6, 77824, Note_off_c, 4, 45, 0
6, 77824, Note_on_c, 4, 43, 96
6, 78080, Note_off_c, 4, 43, 0
6, 78080, Note_on_c, 4, 41, 96
6, 78336, Note_off_c, 4, 41, 0
6, 78336, Note_on_c, 4, 40, 96
6, 78592, Note_off_c, 4, 40, 0
6, 78592, Note_on_c, 4, 38, 96
6, 78848, Note_off_c, 4, 38, 0
6, 78848, Note_on_c, 4, 36, 96
6, 79104, Note_off_c, 4, 36, 0
6, 79104, Note_on_c, 4, 48, 96
6, 79360, Note_off_c, 4, 48, 0
6, 79360, Note_on_c, 4, 50, 96
6, 79616, Note_off_c, 4, 50, 0
6, 79616, Note_on_c, 4, 52, 96
6, 79872, Note_off_c, 4, 52, 0
6, 79872, Note_on_c, 4, 53, 96
6, 80896, Note_off_c, 4, 53, 0
6, 81152, Note_on_c, 4, 52, 96
6, 81408, Note_off_c, 4, 52, 0
6, 81408, Note_on_c, 4, 54, 96
6, 81664, Note_off_c, 4, 54, 0
6, 81664, Note_on_c, 4, 56, 96
6, 81920, Note_off_c, 4, 56, 0
6, 81920, Note_on_c, 4, 57, 96
6, 82176, Note_off_c, 4, 57, 0
6, 82176, Note_on_c, 4, 59, 96
6, 82432, Note_off_c, 4, 59, 0
6, 82432, Note_on_c, 4, 60, 96
6, 82688, Note_off_c, 4, 60, 0
6, 82688, Note_on_c, 4, 62, 96
6, 82944, Note_off_c, 4, 62, 0
6, 82944, Note_on_c, 4, 64, 96
6, 83456, Note_off_c, 4, 64, 0
6, 83456, Note_on_c, 4, 52, 96
6, 83968, Note_off_c, 4, 52, 0
6, 86272, Note_on_c, 4, 53, 96
6, 86528, Note_off_c, 4, 53, 0
6, 86528, Note_on_c, 4, 52, 96
6, 86784, Note_off_c, 4, 52, 0
6, 86784, Note_on_c, 4, 50, 96
6, 87040, Note_off_c, 4, 50, 0
6, 87040, Note_on_c, 4, 52, 96
6, 89088, Note_off_c, 4, 52, 0
6, 89088, Note_on_c, 4, 45, 96
6, 94208, Note_off_c, 4, 45, 0
6, 96512, Note_on_c, 4, 60, 96
6, 96768, Note_off_c, 4, 60, 0
6, 96768, Note_on_c, 4, 59, 96
6, 97024, Note_off_c, 4, 59, 0
6, 97024, Note_on_c, 4, 57, 96
6, 97280, Note_off_c, 4, 57, 0
6, 97280, Note_on_c, 4, 55, 96
6, 97536, Note_off_c, 4, 55, 0
6, 97536, Note_on_c, 4, 53, 96
6, 97792, Note_off_c, 4, 53, 0
6, 97792, Note_on_c, 4, 52, 96
6, 98048, Note_off_c, 4, 52, 0
6, 98048, Note_on_c, 4, 50, 96
6, 98304, Note_off_c, 4, 50, 0
6, 98304, Note_on_c, 4, 48, 96
6, 98560, Note_off_c, 4, 48, 0
6, 98560, Note_on_c, 4, 55, 96
6, 98816, Note_off_c, 4, 55, 0
6, 98816, Note_on_c, 4, 57, 96
6, 99072, Note_off_c, 4, 57, 0
6, 99072, Note_on_c, 4, 59, 96
6, 99328, Note_off_c, 4, 59, 0
6, 99328, Note_on_c, 4, 60, 96
6, 100352, Note_off_c, 4, 60, 0
6, 100352, Note_on_c, 4, 48, 96
6, 101376, Note_off_c, 4, 48, 0
6, 101376, Note_on_c, 4, 53, 96
6, 101888, Note_off_c, 4, 53, 0
6, 101888, Note_on_c, 4, 47, 96
6, 102400, Note_off_c, 4, 47, 0
6, 102400, Note_on_c, 4, 52, 96
6, 102912, Note_off_c, 4, 52, 0
6, 102912, Note_on_c, 4, 53, 96
6, 103424, Note_off_c, 4, 53, 0
6, 103424, Note_on_c, 4, 55, 96
6, 103936, Note_off_c, 4, 55, 0
6, 103936, Note_on_c, 4, 56, 96
6, 104448, Note_off_c, 4, 56, 0
6, 104448, Note_on_c, 4, 57, 96
6, 104704, Note_off_c, 4, 57, 0
6, 104704, Note_on_c, 4, 60, 96
6, 104960, Note_off_c, 4, 60, 0
6, 104960, Note_on_c, 4, 59, 96
6, 105216, Note_off_c, 4, 59, 0
6, 105216, Note_on_c, 4, 57, 96
6, 105472, Note_off_c, 4, 57, 0
6, 105472, Note_on_c, 4, 55, 96
6, 105728, Note_off_c, 4, 55, 0
6, 105728, Note_on_c, 4, 53, 96
6, 105984, Note_off_c, 4, 53, 0
6, 105984, Note_on_c, 4, 52, 96
6, 106240, Note_off_c, 4, 52, 0
6, 106240, Note_on_c, 4, 50, 96
6, 106496, Note_off_c, 4, 50, 0
6, 106496, Note_on_c, 4, 48, 96
6, 106752, Note_off_c, 4, 48, 0
6, 106752, Note_on_c, 4, 46, 96
6, 107008, Note_off_c, 4, 46, 0
6, 107008, Note_on_c, 4, 45, 96
6, 107264, Note_off_c, 4, 45, 0
6, 107264, Note_on_c, 4, 43, 96
6, 107520, Note_off_c, 4, 43, 0
6, 107520, Note_on_c, 4, 41, 96
6, 107776, Note_off_c, 4, 41, 0
6, 107776, Note_on_c, 4, 48, 96
6, 108032, Note_off_c, 4, 48, 0
6, 108032, Note_on_c, 4, 47, 96
6, 108288, Note_off_c, 4, 47, 0
6, 108288, Note_on_c, 4, 45, 96
6, 108544, Note_off_c, 4, 45, 0
6, 108544, Note_on_c, 4, 43, 96
6, 108800, Note_off_c, 4, 43, 0
6, 108800, Note_on_c, 4, 41, 96
6, 109056, Note_off_c, 4, 41, 0
6, 109056, Note_on_c, 4, 40, 96
6, 109312, Note_off_c, 4, 40, 0
6, 109312, Note_on_c, 4, 38, 96
6, 109568, Note_off_c, 4, 38, 0
6, 109568, Note_on_c, 4, 36, 96
6, 109824, Note_off_c, 4, 36, 0
6, 109824, Note_on_c, 4, 48, 96
6, 110080, Note_off_c, 4, 48, 0
6, 110080, Note_on_c, 4, 50, 96
6, 110336, Note_off_c, 4, 50, 0
6, 110336, Note_on_c, 4, 52, 96
6, 110592, Note_off_c, 4, 52, 0
6, 110592, Note_on_c, 4, 53, 96
6, 111616, Note_off_c, 4, 53, 0
6, 111872, Note_on_c, 4, 52, 96
6, 112128, Note_off_c, 4, 52, 0
6, 112128, Note_on_c, 4, 54, 96
6, 112384, Note_off_c, 4, 54, 0
6, 112384, Note_on_c, 4, 56, 96
6, 112640, Note_off_c, 4, 56, 0
6, 112640, Note_on_c, 4, 57, 96
6, 112896, Note_off_c, 4, 57, 0
6, 112896, Note_on_c, 4, 59, 96
6, 113152, Note_off_c, 4, 59, 0
6, 113152, Note_on_c, 4, 60, 96
6, 113408, Note_off_c, 4, 60, 0
6, 113408, Note_on_c, 4, 62, 96
6, 113664, Note_off_c, 4, 62, 0
6, 113664, Note_on_c, 4, 64, 96
6, 114176, Note_off_c, 4, 64, 0
6, 114176, Note_on_c, 4, 52, 96
6, 114688, Note_off_c, 4, 52, 0
6, 116992, Note_on_c, 4, 53, 96
6, 117248, Note_off_c, 4, 53, 0
6, 117248, Note_on_c, 4, 52, 96
6, 117504, Note_off_c, 4, 52, 0
6, 117504, Note_on_c, 4, 50, 96
6, 117760, Note_off_c, 4, 50, 0
6, 117760, Note_on_c, 4, 52, 96
6, 119808, Note_off_c, 4, 52, 0
6, 119808, Note_on_c, 4, 45, 96
6, 125952, Note_off_c, 4, 45, 0
6, 125953, End_track
0, 0, End_of_file
