0, 0, Header, 1, 2, 120
1, 0, Start_track
1, 0, Key_signature, 0, "major"
1, 0, SMPTE_offset, 96, 0, 0, 0, 0
1, 0, Sequencer_specific, 17, 0, 0, 0, 106, 0, 3, 68, 69, 70, 65, 85, 76, 84, 46, 87, 86, 66
1, 0, System_exclusive, 10, 65, 16, 66, 18, 64, 0, 127, 0, 65, 247
1, 0, System_exclusive, 10, 65, 16, 66, 18, 64, 1, 51, 127, 13, 247
1, 0, System_exclusive, 10, 65, 16, 66, 18, 64, 1, 52, 127, 12, 247
1, 0, System_exclusive, 11, 65, 16, 66, 18, 64, 20, 0, 8, 19, 17, 247
1, 0, System_exclusive, 10, 65, 16, 66, 18, 64, 20, 25, 127, 20, 247
1, 0, System_exclusive, 10, 65, 16, 66, 18, 64, 20, 34, 127, 11, 247
1, 0, System_exclusive, 11, 65, 16, 66, 18, 64, 20, 0, 8, 19, 17, 247
1, 0, Tempo, 1200000
1, 0, Time_signature, 4, 2, 24, 8
1, 164, Tempo, 1500000
1, 216, Tempo, 1200000
1, 241, Tempo, 2142857
1, 244, Tempo, 1875000
1, 279, Tempo, 1428571
1, 283, Tempo, 1764705
1, 330, Tempo, 1200000
1, 416, Tempo, 1500000
1, 456, Tempo, 1200000
1, 481, Tempo, 1764705
1, 517, Tempo, 1200000
1, 540, Tempo, 1666666
1, 545, Tempo, 1875000
1, 586, Tempo, 1200000
1, 590, Tempo, 1132075
1, 770, Tempo, 1304347
1, 815, Tempo, 1714285
1, 900, Tempo, 1200000
1, 920, Tempo, 1132075
1, 5781, Tempo, 1764705
1, 5868, Tempo, 1200000
1, 5880, Tempo, 1000000
1, 5893, Tempo, 1090909
1, 5948, Tempo, 681818
1, 5952, Tempo, 1090909
1, 6000, Tempo, 1250000
1, 6001, Tempo, 1428571
1, 6055, Tempo, 1818181
1, 6060, Tempo, 2142857
1, 6130, Tempo, 1090909
1, 6135, Tempo, 1016949
1, 6136, Tempo, 937500
1, 6268, Tempo, 967741
1, 6273, Tempo, 937500
1, 6320, Tempo, 937500
1, 6360, Tempo, 923076
1, 6386, Tempo, 937500
1, 6406, Tempo, 923076
1, 6423, Tempo, 937500
1, 6498, Tempo, 1090909
1, 6502, Tempo, 1153846
1, 6506, Tempo, 1250000
1, 6546, Tempo, 2857142
1, 6600, Tempo, 923076
1, 6646, Tempo, 1071428
1, 6696, Tempo, 937500
1, 6698, Tempo, 1016949
1, 6703, Tempo, 937500
1, 6782, Tempo, 983606
1, 6872, Tempo, 1090909
1, 6874, Tempo, 1200000
1, 6876, Tempo, 1304347
1, 6878, Tempo, 1428571
1, 6905, Tempo, 2857142
1, 6960, Tempo, 895522
1, 6996, Tempo, 1071428
1, 7024, Tempo, 1000000
1, 7027, Tempo, 967741
1, 7330, Tempo, 1090909
1, 7342, Tempo, 1153846
1, 7348, Tempo, 1250000
1, 7352, Tempo, 1428571
1, 7383, Tempo, 2307692
1, 7386, Tempo, 3000000
1, 7441, Tempo, 869565
1, 7478, Tempo, 1071428
1, 7485, Tempo, 967741
1, 7486, Tempo, 1016949
1, 7490, Tempo, 967741
1, 7700, Tempo, 1090909
1, 7702, Tempo, 1250000
1, 7708, Tempo, 1428571
1, 7745, Tempo, 2727272
1, 7748, Tempo, 3000000
1, 7801, Tempo, 869565
1, 7843, Tempo, 1071428
1, 7861, Tempo, 1000000
1, 7865, Tempo, 983606
1, 7873, Tempo, 967741
1, 8546, Tempo, 1132075
1, 8548, Tempo, 1304347
1, 8581, Tempo, 2727272
1, 8584, Tempo, 3000000
1, 8641, Tempo, 845070
1, 8643, Tempo, 689655
1, 8711, Tempo, 1052631
1, 8714, Tempo, 1000000
1, 8715, Tempo, 967741
1, 8910, Tempo, 1200000
1, 8912, Tempo, 1333333
1, 8943, Tempo, 2500000
1, 8946, Tempo, 3000000
1, 9001, Tempo, 689655
1, 9090, Tempo, 1052631
1, 9110, Tempo, 967741
1, 9120, Tempo, 1000000
1, 9150, Tempo, 967741
1, 9165, Tempo, 937500
1, 11522, Tempo, 1111111
1, 11608, Tempo, 1016949
1, 11620, Tempo, 967741
1, 11650, Tempo, 937500
1, 12847, Tempo, 1000000
1, 12960, Tempo, 967741
1, 12962, Tempo, 731707
1, 13032, Tempo, 6000000
1, 13047, Tempo, 937500
1, 13050, Tempo, 1000000
1, 13067, Tempo, 983606
1, 13080, Tempo, 1000000
1, 13092, Tempo, 983606
1, 13107, Tempo, 1000000
1, 13115, Tempo, 983606
1, 13120, Tempo, 967741
1, 13125, Tempo, 983606
1, 13135, Tempo, 967741
1, 13152, Tempo, 937500
1, 14298, Tempo, 1250000
1, 14370, Tempo, 1016949
1, 14760, Tempo, 1250000
1, 14983, Tempo, 983606
1, 35130, Tempo, 1090909
1, 35143, Tempo, 1052631
1, 35150, Tempo, 1090909
1, 35156, Tempo, 1071428
1, 35170, Tempo, 1052631
1, 35223, Tempo, 1016949
1, 35243, Tempo, 1052631
1, 35290, Tempo, 1016949
1, 35296, Tempo, 1052631
1, 35370, Tempo, 1016949
1, 35390, Tempo, 1052631
1, 35443, Tempo, 1016949
1, 35460, Tempo, 1052631
1, 35503, Tempo, 1016949
1, 35510, Tempo, 1052631
1, 35516, Tempo, 1016949
1, 35533, Tempo, 1052631
1, 35550, Tempo, 1090909
1, 35563, Tempo, 1071428
1, 35570, Tempo, 1052631
1, 35580, Tempo, 1071428
1, 35593, Tempo, 1052631
1, 35616, Tempo, 1071428
1, 35623, Tempo, 1052631
1, 35636, Tempo, 1090909
1, 35640, Tempo, 1578947
1, 35730, Tempo, 2400000
1, 35766, Tempo, 983606
1, 38640, Tempo, 1000000
1, 38660, Tempo, 1000000
1, 38666, Tempo, 983606
1, 38673, Tempo, 1000000
1, 38676, Tempo, 1000000
1, 38693, Tempo, 1000000
1, 38700, Tempo, 1016949
1, 38706, Tempo, 1052631
1, 38713, Tempo, 1016949
1, 38753, Tempo, 1052631
1, 38760, Tempo, 1016949
1, 38766, Tempo, 1000000
1, 38780, Tempo, 1000000
1, 38790, Tempo, 1000000
1, 38800, Tempo, 1016949
1, 38813, Tempo, 1052631
1, 38833, Tempo, 1016949
1, 38840, Tempo, 1000000
1, 38846, Tempo, 1016949
1, 38856, Tempo, 1000000
1, 38926, Tempo, 1016949
1, 38953, Tempo, 1000000
1, 38966, Tempo, 1016949
1, 38970, Tempo, 1052631
1, 38973, Tempo, 1016949
1, 38980, Tempo, 1000000
1, 39000, Tempo, 1016949
1, 39020, Tempo, 1000000
1, 39026, Tempo, 1016949
1, 39046, Tempo, 1052631
1, 39066, Tempo, 1016949
1, 39106, Tempo, 1052631
1, 39113, Tempo, 1016949
1, 39120, Tempo, 1052631
1, 39123, Tempo, 1016949
1, 39133, Tempo, 1071428
1, 39140, Tempo, 1016949
1, 39146, Tempo, 1000000
1, 39153, Tempo, 1016949
1, 39163, Tempo, 1052631
1, 39166, Tempo, 1000000
1, 39206, Tempo, 1052631
1, 39213, Tempo, 1016949
1, 39226, Tempo, 1000000
1, 39240, Tempo, 1016949
1, 39246, Tempo, 1052631
1, 39250, Tempo, 1071428
1, 39286, Tempo, 1016949
1, 39313, Tempo, 1052631
1, 39326, Tempo, 1071428
1, 39340, Tempo, 1090909
1, 39350, Tempo, 1071428
1, 39353, Tempo, 1052631
1, 39356, Tempo, 1052631
1, 39373, Tempo, 1071428
1, 39400, Tempo, 1090909
1, 39406, Tempo, 1090909
1, 39410, Tempo, 1090909
1, 39416, Tempo, 1071428
1, 39443, Tempo, 1090909
1, 39483, Tempo, 1071428
1, 39516, Tempo, 1090909
1, 39526, Tempo, 1071428
1, 39543, Tempo, 1090909
1, 39556, Tempo, 1071428
1, 39570, Tempo, 1090909
1, 39576, Tempo, 1071428
1, 39583, Tempo, 1090909
1, 39630, Tempo, 1090909
1, 39636, Tempo, 1111111
1, 39643, Tempo, 1090909
1, 39650, Tempo, 1132075
1, 39676, Tempo, 1111111
1, 39696, Tempo, 1090909
1, 39700, Tempo, 1111111
1, 39710, Tempo, 1111111
1, 39716, Tempo, 1132075
1, 39723, Tempo, 1153846
1, 39730, Tempo, 1200000
1, 39733, Tempo, 1153846
1, 39736, Tempo, 1132075
1, 39743, Tempo, 1153846
1, 39756, Tempo, 1200000
1, 39783, Tempo, 1200000
1, 39796, Tempo, 1250000
1, 39803, Tempo, 1250000
1, 39840, Tempo, 1428571
1, 39930, Tempo, 3333333
1, 39970, Tempo, 2400000
1, 40080, Tempo, 1666666
1, 40105, Tempo, 1200000
1, 40125, Tempo, 1052631
1, 40326, Tempo, 333333
1, 40800, Tempo, 550458
1, 79323, Tempo, 576923
1, 80270, Tempo, 612244
1, 81120, Tempo, 659340
1, 81850, Tempo, 594059
1, 82320, Tempo, 535714
1, 82330, Tempo, 535714
1, 82340, Tempo, 545454
1, 82420, Tempo, 550458
1, 82460, Tempo, 555555
1, 82580, Tempo, 560747
1, 82600, Tempo, 566037
1, 82620, Tempo, 571428
1, 82720, Tempo, 566037
1, 82820, Tempo, 571428
1, 82860, Tempo, 576923
1, 82970, Tempo, 576923
1, 83140, Tempo, 582524
1, 83200, Tempo, 576923
1, 83240, Tempo, 582524
1, 83320, Tempo, 588235
1, 83370, Tempo, 594059
1, 83540, Tempo, 600000
1, 83560, Tempo, 612244
1, 83600, Tempo, 618556
1, 83650, Tempo, 625000
1, 83740, Tempo, 625000
1, 83760, Tempo, 638297
1, 83870, Tempo, 681818
1, 83990, Tempo, 789473
1, 84030, Tempo, 1000000
1, 84250, Tempo, 545454
1, 98160, Tempo, 645161
1, 98280, Tempo, 731707
1, 98400, Tempo, 983606
1, 98640, Tempo, 530973
1, 99360, Tempo, 674157
1, 100800, Tempo, 674157
1, 148130, Tempo, 722891
1, 148685, Tempo, 789473
1, 148840, Tempo, 869565
1, 148853, Tempo, 1000000
1, 149040, Tempo, 833333
1, 149210, Tempo, 697674
1, 149400, Tempo, 731707
1, 149570, Tempo, 769230
1, 149700, Tempo, 800000
1, 149910, Tempo, 722891
1, 150250, Tempo, 750000
1, 150650, Tempo, 789473
1, 151030, Tempo, 821917
1, 151150, Tempo, 869565
1, 151200, Tempo, 1000000
1, 151236, Tempo, 1428571
1, 151260, Tempo, 2727272
1, 151290, Tempo, 4285714
1, 151290, End_track
2, 0, Start_track
2, 0, MIDI_port, 0
2, 0, Title_t, "Toccata, Adagio & Fugue"
2, 0, Program_c, 3, 19
2, 0, Control_c, 3, 93, 0
2, 0, Control_c, 3, 7, 127
2, 0, Control_c, 3, 10, 64
2, 0, Control_c, 3, 91, 127
2, 150, Note_on_c, 3, 72, 127
2, 173, Note_on_c, 3, 72, 0
2, 180, Note_on_c, 3, 76, 127
2, 203, Note_on_c, 3, 76, 0
2, 210, Note_on_c, 3, 79, 127
2, 222, Note_on_c, 3, 79, 0
2, 225, Note_on_c, 3, 71, 127
2, 237, Note_on_c, 3, 71, 0
2, 240, Note_on_c, 3, 77, 127
2, 263, Note_on_c, 3, 77, 0
2, 390, Note_on_c, 3, 69, 127
2, 413, Note_on_c, 3, 69, 0
2, 420, Note_on_c, 3, 71, 127
2, 443, Note_on_c, 3, 71, 0
2, 450, Note_on_c, 3, 74, 127
2, 462, Note_on_c, 3, 74, 0
2, 465, Note_on_c, 3, 67, 127
2, 477, Note_on_c, 3, 67, 0
2, 480, Note_on_c, 3, 76, 127
2, 503, Note_on_c, 3, 76, 0
2, 600, Note_on_c, 3, 72, 127
2, 612, Note_on_c, 3, 72, 0
2, 615, Note_on_c, 3, 71, 127
2, 627, Note_on_c, 3, 71, 0
2, 630, Note_on_c, 3, 69, 127
2, 642, Note_on_c, 3, 69, 0
2, 645, Note_on_c, 3, 67, 127
2, 657, Note_on_c, 3, 67, 0
2, 660, Note_on_c, 3, 65, 127
2, 672, Note_on_c, 3, 65, 0
2, 675, Note_on_c, 3, 64, 127
2, 687, Note_on_c, 3, 64, 0
2, 690, Note_on_c, 3, 62, 127
2, 702, Note_on_c, 3, 62, 0
2, 705, Note_on_c, 3, 60, 127
2, 717, Note_on_c, 3, 60, 0
2, 720, Note_on_c, 3, 59, 127
2, 732, Note_on_c, 3, 59, 0
2, 735, Note_on_c, 3, 62, 127
2, 747, Note_on_c, 3, 62, 0
2, 750, Note_on_c, 3, 65, 127
2, 762, Note_on_c, 3, 65, 0
2, 765, Note_on_c, 3, 59, 127
2, 777, Note_on_c, 3, 59, 0
2, 780, Note_on_c, 3, 60, 127
2, 803, Note_on_c, 3, 60, 0
2, 810, Note_on_c, 3, 48, 127
2, 833, Note_on_c, 3, 48, 0
2, 975, Note_on_c, 3, 60, 127
2, 987, Note_on_c, 3, 60, 0
2, 990, Note_on_c, 3, 62, 127
2, 1002, Note_on_c, 3, 62, 0
2, 1005, Note_on_c, 3, 64, 127
2, 1017, Note_on_c, 3, 64, 0
2, 1020, Note_on_c, 3, 65, 127
2, 1032, Note_on_c, 3, 65, 0
2, 1035, Note_on_c, 3, 64, 127
2, 1047, Note_on_c, 3, 64, 0
2, 1050, Note_on_c, 3, 62, 127
2, 1062, Note_on_c, 3, 62, 0
2, 1065, Note_on_c, 3, 60, 127
2, 1077, Note_on_c, 3, 60, 0
2, 1080, Note_on_c, 3, 62, 127
2, 1092, Note_on_c, 3, 62, 0
2, 1095, Note_on_c, 3, 60, 127
2, 1107, Note_on_c, 3, 60, 0
2, 1110, Note_on_c, 3, 59, 127
2, 1122, Note_on_c, 3, 59, 0
2, 1125, Note_on_c, 3, 57, 127
2, 1137, Note_on_c, 3, 57, 0
2, 1140, Note_on_c, 3, 59, 127
2, 1152, Note_on_c, 3, 59, 0
2, 1155, Note_on_c, 3, 55, 127
2, 1167, Note_on_c, 3, 55, 0
2, 1170, Note_on_c, 3, 57, 127
2, 1182, Note_on_c, 3, 57, 0
2, 1185, Note_on_c, 3, 59, 127
2, 1197, Note_on_c, 3, 59, 0
2, 1200, Note_on_c, 3, 60, 127
2, 1212, Note_on_c, 3, 60, 0
2, 1215, Note_on_c, 3, 62, 127
2, 1227, Note_on_c, 3, 62, 0
2, 1230, Note_on_c, 3, 64, 127
2, 1242, Note_on_c, 3, 64, 0
2, 1245, Note_on_c, 3, 65, 127
2, 1257, Note_on_c, 3, 65, 0
2, 1260, Note_on_c, 3, 67, 127
2, 1272, Note_on_c, 3, 67, 0
2, 1275, Note_on_c, 3, 65, 127
2, 1287, Note_on_c, 3, 65, 0
2, 1290, Note_on_c, 3, 64, 127
2, 1302, Note_on_c, 3, 64, 0
2, 1305, Note_on_c, 3, 62, 127
2, 1317, Note_on_c, 3, 62, 0
2, 1320, Note_on_c, 3, 64, 127
2, 1332, Note_on_c, 3, 64, 0
2, 1335, Note_on_c, 3, 60, 127
2, 1347, Note_on_c, 3, 60, 0
2, 1350, Note_on_c, 3, 62, 127
2, 1362, Note_on_c, 3, 62, 0
2, 1365, Note_on_c, 3, 64, 127
2, 1377, Note_on_c, 3, 64, 0
2, 1380, Note_on_c, 3, 65, 127
2, 1392, Note_on_c, 3, 65, 0
2, 1395, Note_on_c, 3, 67, 127
2, 1407, Note_on_c, 3, 67, 0
2, 1410, Note_on_c, 3, 69, 127
2, 1422, Note_on_c, 3, 69, 0
2, 1425, Note_on_c, 3, 71, 127
2, 1437, Note_on_c, 3, 71, 0
2, 1440, Note_on_c, 3, 72, 127
2, 1452, Note_on_c, 3, 72, 0
2, 1455, Note_on_c, 3, 71, 127
2, 1467, Note_on_c, 3, 71, 0
2, 1470, Note_on_c, 3, 69, 127
2, 1482, Note_on_c, 3, 69, 0
2, 1485, Note_on_c, 3, 67, 127
2, 1497, Note_on_c, 3, 67, 0
2, 1500, Note_on_c, 3, 69, 127
2, 1512, Note_on_c, 3, 69, 0
2, 1515, Note_on_c, 3, 67, 127
2, 1527, Note_on_c, 3, 67, 0
2, 1530, Note_on_c, 3, 65, 127
2, 1542, Note_on_c, 3, 65, 0
2, 1545, Note_on_c, 3, 64, 127
2, 1557, Note_on_c, 3, 64, 0
2, 1560, Note_on_c, 3, 77, 127
2, 1572, Note_on_c, 3, 77, 0
2, 1575, Note_on_c, 3, 76, 127
2, 1587, Note_on_c, 3, 76, 0
2, 1590, Note_on_c, 3, 74, 127
2, 1602, Note_on_c, 3, 74, 0
2, 1605, Note_on_c, 3, 72, 127
2, 1617, Note_on_c, 3, 72, 0
2, 1620, Note_on_c, 3, 74, 127
2, 1632, Note_on_c, 3, 74, 0
2, 1635, Note_on_c, 3, 72, 127
2, 1647, Note_on_c, 3, 72, 0
2, 1650, Note_on_c, 3, 71, 127
2, 1662, Note_on_c, 3, 71, 0
2, 1665, Note_on_c, 3, 69, 127
2, 1677, Note_on_c, 3, 69, 0
2, 1680, Note_on_c, 3, 71, 127
2, 1692, Note_on_c, 3, 71, 0
2, 1695, Note_on_c, 3, 67, 127
2, 1707, Note_on_c, 3, 67, 0
2, 1710, Note_on_c, 3, 69, 127
2, 1722, Note_on_c, 3, 69, 0
2, 1725, Note_on_c, 3, 71, 127
2, 1737, Note_on_c, 3, 71, 0
2, 1740, Note_on_c, 3, 72, 127
2, 1752, Note_on_c, 3, 72, 0
2, 1755, Note_on_c, 3, 74, 127
2, 1767, Note_on_c, 3, 74, 0
2, 1770, Note_on_c, 3, 76, 127
2, 1782, Note_on_c, 3, 76, 0
2, 1785, Note_on_c, 3, 77, 127
2, 1797, Note_on_c, 3, 77, 0
2, 1800, Note_on_c, 3, 79, 127
2, 1812, Note_on_c, 3, 79, 0
2, 1815, Note_on_c, 3, 77, 127
2, 1827, Note_on_c, 3, 77, 0
2, 1830, Note_on_c, 3, 76, 127
2, 1842, Note_on_c, 3, 76, 0
2, 1845, Note_on_c, 3, 74, 127
2, 1857, Note_on_c, 3, 74, 0
2, 1860, Note_on_c, 3, 76, 127
2, 1872, Note_on_c, 3, 76, 0
2, 1875, Note_on_c, 3, 74, 127
2, 1887, Note_on_c, 3, 74, 0
2, 1890, Note_on_c, 3, 72, 127
2, 1902, Note_on_c, 3, 72, 0
2, 1905, Note_on_c, 3, 71, 127
2, 1917, Note_on_c, 3, 71, 0
2, 1920, Note_on_c, 3, 81, 127
2, 1932, Note_on_c, 3, 81, 0
2, 1935, Note_on_c, 3, 79, 127
2, 1947, Note_on_c, 3, 79, 0
2, 1950, Note_on_c, 3, 77, 127
2, 1962, Note_on_c, 3, 77, 0
2, 1965, Note_on_c, 3, 76, 127
2, 1977, Note_on_c, 3, 76, 0
2, 1980, Note_on_c, 3, 77, 127
2, 1992, Note_on_c, 3, 77, 0
2, 1995, Note_on_c, 3, 76, 127
2, 2007, Note_on_c, 3, 76, 0
2, 2010, Note_on_c, 3, 74, 127
2, 2022, Note_on_c, 3, 74, 0
2, 2025, Note_on_c, 3, 72, 127
2, 2037, Note_on_c, 3, 72, 0
2, 2040, Note_on_c, 3, 82, 127
2, 2052, Note_on_c, 3, 82, 0
2, 2055, Note_on_c, 3, 81, 127
2, 2067, Note_on_c, 3, 81, 0
2, 2070, Note_on_c, 3, 79, 127
2, 2082, Note_on_c, 3, 79, 0
2, 2085, Note_on_c, 3, 77, 127
2, 2097, Note_on_c, 3, 77, 0
2, 2100, Note_on_c, 3, 79, 127
2, 2112, Note_on_c, 3, 79, 0
2, 2115, Note_on_c, 3, 77, 127
2, 2127, Note_on_c, 3, 77, 0
2, 2130, Note_on_c, 3, 76, 127
2, 2142, Note_on_c, 3, 76, 0
2, 2145, Note_on_c, 3, 74, 127
2, 2157, Note_on_c, 3, 74, 0
2, 2160, Note_on_c, 3, 82, 127
2, 2172, Note_on_c, 3, 82, 0
2, 2175, Note_on_c, 3, 81, 127
2, 2187, Note_on_c, 3, 81, 0
2, 2190, Note_on_c, 3, 79, 127
2, 2202, Note_on_c, 3, 79, 0
2, 2205, Note_on_c, 3, 77, 127
2, 2217, Note_on_c, 3, 77, 0
2, 2220, Note_on_c, 3, 79, 127
2, 2232, Note_on_c, 3, 79, 0
2, 2235, Note_on_c, 3, 77, 127
2, 2247, Note_on_c, 3, 77, 0
2, 2250, Note_on_c, 3, 76, 127
2, 2262, Note_on_c, 3, 76, 0
2, 2265, Note_on_c, 3, 74, 127
2, 2277, Note_on_c, 3, 74, 0
2, 2280, Note_on_c, 3, 77, 127
2, 2292, Note_on_c, 3, 77, 0
2, 2295, Note_on_c, 3, 76, 127
2, 2307, Note_on_c, 3, 76, 0
2, 2310, Note_on_c, 3, 74, 127
2, 2322, Note_on_c, 3, 74, 0
2, 2325, Note_on_c, 3, 72, 127
2, 2337, Note_on_c, 3, 72, 0
2, 2340, Note_on_c, 3, 74, 127
2, 2352, Note_on_c, 3, 74, 0
2, 2355, Note_on_c, 3, 72, 127
2, 2367, Note_on_c, 3, 72, 0
2, 2370, Note_on_c, 3, 71, 127
2, 2382, Note_on_c, 3, 71, 0
2, 2385, Note_on_c, 3, 69, 127
2, 2397, Note_on_c, 3, 69, 0
2, 2400, Note_on_c, 3, 77, 127
2, 2412, Note_on_c, 3, 77, 0
2, 2415, Note_on_c, 3, 76, 127
2, 2427, Note_on_c, 3, 76, 0
2, 2430, Note_on_c, 3, 74, 127
2, 2442, Note_on_c, 3, 74, 0
2, 2445, Note_on_c, 3, 72, 127
2, 2457, Note_on_c, 3, 72, 0
2, 2460, Note_on_c, 3, 74, 127
2, 2472, Note_on_c, 3, 74, 0
2, 2475, Note_on_c, 3, 72, 127
2, 2487, Note_on_c, 3, 72, 0
2, 2490, Note_on_c, 3, 71, 127
2, 2502, Note_on_c, 3, 71, 0
2, 2505, Note_on_c, 3, 69, 127
2, 2517, Note_on_c, 3, 69, 0
2, 2520, Note_on_c, 3, 79, 127
2, 2532, Note_on_c, 3, 79, 0
2, 2535, Note_on_c, 3, 77, 127
2, 2547, Note_on_c, 3, 77, 0
2, 2550, Note_on_c, 3, 76, 127
2, 2562, Note_on_c, 3, 76, 0
2, 2565, Note_on_c, 3, 74, 127
2, 2577, Note_on_c, 3, 74, 0
2, 2580, Note_on_c, 3, 76, 127
2, 2592, Note_on_c, 3, 76, 0
2, 2595, Note_on_c, 3, 74, 127
2, 2607, Note_on_c, 3, 74, 0
2, 2610, Note_on_c, 3, 72, 127
2, 2622, Note_on_c, 3, 72, 0
2, 2625, Note_on_c, 3, 71, 127
2, 2637, Note_on_c, 3, 71, 0
2, 2640, Note_on_c, 3, 72, 127
2, 2652, Note_on_c, 3, 72, 0
2, 2655, Note_on_c, 3, 71, 127
2, 2667, Note_on_c, 3, 71, 0
2, 2670, Note_on_c, 3, 69, 127
2, 2682, Note_on_c, 3, 69, 0
2, 2685, Note_on_c, 3, 67, 127
2, 2697, Note_on_c, 3, 67, 0
2, 2700, Note_on_c, 3, 69, 127
2, 2712, Note_on_c, 3, 69, 0
2, 2715, Note_on_c, 3, 67, 127
2, 2727, Note_on_c, 3, 67, 0
2, 2730, Note_on_c, 3, 65, 127
2, 2742, Note_on_c, 3, 65, 0
2, 2745, Note_on_c, 3, 64, 127
2, 2757, Note_on_c, 3, 64, 0
2, 2760, Note_on_c, 3, 65, 127
2, 2772, Note_on_c, 3, 65, 0
2, 2775, Note_on_c, 3, 64, 127
2, 2787, Note_on_c, 3, 64, 0
2, 2790, Note_on_c, 3, 62, 127
2, 2802, Note_on_c, 3, 62, 0
2, 2805, Note_on_c, 3, 60, 127
2, 2817, Note_on_c, 3, 60, 0
2, 2820, Note_on_c, 3, 59, 127
2, 2832, Note_on_c, 3, 59, 0
2, 2835, Note_on_c, 3, 60, 127
2, 2847, Note_on_c, 3, 60, 0
2, 2850, Note_on_c, 3, 62, 127
2, 2862, Note_on_c, 3, 62, 0
2, 2865, Note_on_c, 3, 64, 127
2, 2877, Note_on_c, 3, 64, 0
2, 2880, Note_on_c, 3, 65, 127
2, 2892, Note_on_c, 3, 65, 0
2, 2895, Note_on_c, 3, 64, 127
2, 2907, Note_on_c, 3, 64, 0
2, 2910, Note_on_c, 3, 62, 127
2, 2922, Note_on_c, 3, 62, 0
2, 2925, Note_on_c, 3, 60, 127
2, 2937, Note_on_c, 3, 60, 0
2, 2940, Note_on_c, 3, 59, 127
2, 2952, Note_on_c, 3, 59, 0
2, 2955, Note_on_c, 3, 57, 127
2, 2967, Note_on_c, 3, 57, 0
2, 2970, Note_on_c, 3, 55, 127
2, 2982, Note_on_c, 3, 55, 0
2, 2985, Note_on_c, 3, 53, 127
2, 2997, Note_on_c, 3, 53, 0
2, 3000, Note_on_c, 3, 52, 127
2, 3012, Note_on_c, 3, 52, 0
2, 3015, Note_on_c, 3, 60, 127
2, 3027, Note_on_c, 3, 60, 0
2, 3030, Note_on_c, 3, 59, 127
2, 3042, Note_on_c, 3, 59, 0
2, 3045, Note_on_c, 3, 57, 127
2, 3057, Note_on_c, 3, 57, 0
2, 3060, Note_on_c, 3, 55, 127
2, 3072, Note_on_c, 3, 55, 0
2, 3075, Note_on_c, 3, 53, 127
2, 3087, Note_on_c, 3, 53, 0
2, 3090, Note_on_c, 3, 52, 127
2, 3102, Note_on_c, 3, 52, 0
2, 3105, Note_on_c, 3, 50, 127
2, 3117, Note_on_c, 3, 50, 0
2, 3120, Note_on_c, 3, 52, 127
2, 3132, Note_on_c, 3, 52, 0
2, 3135, Note_on_c, 3, 53, 127
2, 3147, Note_on_c, 3, 53, 0
2, 3150, Note_on_c, 3, 55, 127
2, 3162, Note_on_c, 3, 55, 0
2, 3165, Note_on_c, 3, 53, 127
2, 3177, Note_on_c, 3, 53, 0
2, 3180, Note_on_c, 3, 52, 127
2, 3192, Note_on_c, 3, 52, 0
2, 3195, Note_on_c, 3, 50, 127
2, 3207, Note_on_c, 3, 50, 0
2, 3210, Note_on_c, 3, 48, 127
2, 3222, Note_on_c, 3, 48, 0
2, 3225, Note_on_c, 3, 47, 127
2, 3237, Note_on_c, 3, 47, 0
2, 3240, Note_on_c, 3, 48, 127
2, 3252, Note_on_c, 3, 48, 0
2, 3255, Note_on_c, 3, 43, 127
2, 3267, Note_on_c, 3, 43, 0
2, 3270, Note_on_c, 3, 45, 127
2, 3282, Note_on_c, 3, 45, 0
2, 3285, Note_on_c, 3, 47, 127
2, 3297, Note_on_c, 3, 47, 0
2, 3300, Note_on_c, 3, 48, 127
2, 3312, Note_on_c, 3, 48, 0
2, 3315, Note_on_c, 3, 50, 127
2, 3327, Note_on_c, 3, 50, 0
2, 3330, Note_on_c, 3, 52, 127
2, 3342, Note_on_c, 3, 52, 0
2, 3345, Note_on_c, 3, 53, 127
2, 3357, Note_on_c, 3, 53, 0
2, 3360, Note_on_c, 3, 55, 127
2, 3372, Note_on_c, 3, 55, 0
2, 3375, Note_on_c, 3, 53, 127
2, 3387, Note_on_c, 3, 53, 0
2, 3390, Note_on_c, 3, 52, 127
2, 3402, Note_on_c, 3, 52, 0
2, 3405, Note_on_c, 3, 50, 127
2, 3417, Note_on_c, 3, 50, 0
2, 3420, Note_on_c, 3, 52, 127
2, 3432, Note_on_c, 3, 52, 0
2, 3435, Note_on_c, 3, 53, 127
2, 3447, Note_on_c, 3, 53, 0
2, 3450, Note_on_c, 3, 55, 127
2, 3462, Note_on_c, 3, 55, 0
2, 3465, Note_on_c, 3, 57, 127
2, 3477, Note_on_c, 3, 57, 0
2, 3480, Note_on_c, 3, 58, 127
2, 3492, Note_on_c, 3, 58, 0
2, 3495, Note_on_c, 3, 55, 127
2, 3507, Note_on_c, 3, 55, 0
2, 3510, Note_on_c, 3, 57, 127
2, 3522, Note_on_c, 3, 57, 0
2, 3525, Note_on_c, 3, 58, 127
2, 3537, Note_on_c, 3, 58, 0
2, 3540, Note_on_c, 3, 60, 127
2, 3552, Note_on_c, 3, 60, 0
2, 3555, Note_on_c, 3, 62, 127
2, 3567, Note_on_c, 3, 62, 0
2, 3570, Note_on_c, 3, 64, 127
2, 3582, Note_on_c, 3, 64, 0
2, 3585, Note_on_c, 3, 65, 127
2, 3597, Note_on_c, 3, 65, 0
2, 3600, Note_on_c, 3, 67, 127
2, 3612, Note_on_c, 3, 67, 0
2, 3615, Note_on_c, 3, 65, 127
2, 3627, Note_on_c, 3, 65, 0
2, 3630, Note_on_c, 3, 64, 127
2, 3642, Note_on_c, 3, 64, 0
2, 3645, Note_on_c, 3, 62, 127
2, 3657, Note_on_c, 3, 62, 0
2, 3660, Note_on_c, 3, 64, 127
2, 3672, Note_on_c, 3, 64, 0
2, 3675, Note_on_c, 3, 65, 127
2, 3687, Note_on_c, 3, 65, 0
2, 3690, Note_on_c, 3, 67, 127
2, 3702, Note_on_c, 3, 67, 0
2, 3705, Note_on_c, 3, 69, 127
2, 3717, Note_on_c, 3, 69, 0
2, 3720, Note_on_c, 3, 70, 127
2, 3720, Note_on_c, 3, 36, 127
2, 3732, Note_on_c, 3, 70, 0
2, 3735, Note_on_c, 3, 67, 127
2, 3747, Note_on_c, 3, 67, 0
2, 3750, Note_on_c, 3, 64, 127
2, 3762, Note_on_c, 3, 64, 0
2, 3765, Note_on_c, 3, 60, 127
2, 3777, Note_on_c, 3, 60, 0
2, 3780, Note_on_c, 3, 55, 127
2, 3792, Note_on_c, 3, 36, 0
2, 3792, Note_on_c, 3, 55, 0
2, 3795, Note_on_c, 3, 52, 127
2, 3807, Note_on_c, 3, 52, 0
2, 3810, Note_on_c, 3, 48, 127
2, 3833, Note_on_c, 3, 48, 0
2, 3960, Note_on_c, 3, 48, 127
2, 3972, Note_on_c, 3, 48, 0
2, 3975, Note_on_c, 3, 50, 127
2, 3987, Note_on_c, 3, 50, 0
2, 3990, Note_on_c, 3, 52, 127
2, 4002, Note_on_c, 3, 52, 0
2, 4005, Note_on_c, 3, 53, 127
2, 4017, Note_on_c, 3, 53, 0
2, 4020, Note_on_c, 3, 52, 127
2, 4032, Note_on_c, 3, 52, 0
2, 4035, Note_on_c, 3, 50, 127
2, 4047, Note_on_c, 3, 50, 0
2, 4050, Note_on_c, 3, 48, 127
2, 4062, Note_on_c, 3, 48, 0
2, 4065, Note_on_c, 3, 50, 127
2, 4077, Note_on_c, 3, 50, 0
2, 4080, Note_on_c, 3, 52, 127
2, 4092, Note_on_c, 3, 52, 0
2, 4095, Note_on_c, 3, 53, 127
2, 4107, Note_on_c, 3, 53, 0
2, 4110, Note_on_c, 3, 52, 127
2, 4122, Note_on_c, 3, 52, 0
2, 4125, Note_on_c, 3, 50, 127
2, 4137, Note_on_c, 3, 50, 0
2, 4140, Note_on_c, 3, 48, 127
2, 4152, Note_on_c, 3, 48, 0
2, 4155, Note_on_c, 3, 50, 127
2, 4167, Note_on_c, 3, 50, 0
2, 4170, Note_on_c, 3, 52, 127
2, 4182, Note_on_c, 3, 52, 0
2, 4185, Note_on_c, 3, 53, 127
2, 4197, Note_on_c, 3, 53, 0
2, 4200, Note_on_c, 3, 55, 127
2, 4212, Note_on_c, 3, 55, 0
2, 4215, Note_on_c, 3, 53, 127
2, 4227, Note_on_c, 3, 53, 0
2, 4230, Note_on_c, 3, 52, 127
2, 4242, Note_on_c, 3, 52, 0
2, 4245, Note_on_c, 3, 53, 127
2, 4257, Note_on_c, 3, 53, 0
2, 4260, Note_on_c, 3, 55, 127
2, 4272, Note_on_c, 3, 55, 0
2, 4275, Note_on_c, 3, 57, 127
2, 4287, Note_on_c, 3, 57, 0
2, 4290, Note_on_c, 3, 55, 127
2, 4302, Note_on_c, 3, 55, 0
2, 4305, Note_on_c, 3, 53, 127
2, 4317, Note_on_c, 3, 53, 0
2, 4320, Note_on_c, 3, 52, 127
2, 4332, Note_on_c, 3, 52, 0
2, 4335, Note_on_c, 3, 53, 127
2, 4347, Note_on_c, 3, 53, 0
2, 4350, Note_on_c, 3, 55, 127
2, 4362, Note_on_c, 3, 55, 0
2, 4365, Note_on_c, 3, 57, 127
2, 4377, Note_on_c, 3, 57, 0
2, 4380, Note_on_c, 3, 55, 127
2, 4392, Note_on_c, 3, 55, 0
2, 4395, Note_on_c, 3, 53, 127
2, 4407, Note_on_c, 3, 53, 0
2, 4410, Note_on_c, 3, 52, 127
2, 4422, Note_on_c, 3, 52, 0
2, 4425, Note_on_c, 3, 53, 127
2, 4437, Note_on_c, 3, 53, 0
2, 4440, Note_on_c, 3, 55, 127
2, 4452, Note_on_c, 3, 55, 0
2, 4455, Note_on_c, 3, 57, 127
2, 4467, Note_on_c, 3, 57, 0
2, 4470, Note_on_c, 3, 58, 127
2, 4482, Note_on_c, 3, 58, 0
2, 4485, Note_on_c, 3, 57, 127
2, 4497, Note_on_c, 3, 57, 0
2, 4500, Note_on_c, 3, 55, 127
2, 4512, Note_on_c, 3, 55, 0
2, 4515, Note_on_c, 3, 57, 127
2, 4527, Note_on_c, 3, 57, 0
2, 4530, Note_on_c, 3, 58, 127
2, 4542, Note_on_c, 3, 58, 0
2, 4545, Note_on_c, 3, 60, 127
2, 4557, Note_on_c, 3, 60, 0
2, 4560, Note_on_c, 3, 58, 127
2, 4572, Note_on_c, 3, 58, 0
2, 4575, Note_on_c, 3, 57, 127
2, 4587, Note_on_c, 3, 57, 0
2, 4590, Note_on_c, 3, 55, 127
2, 4602, Note_on_c, 3, 55, 0
2, 4605, Note_on_c, 3, 57, 127
2, 4617, Note_on_c, 3, 57, 0
2, 4620, Note_on_c, 3, 58, 127
2, 4632, Note_on_c, 3, 58, 0
2, 4635, Note_on_c, 3, 60, 127
2, 4647, Note_on_c, 3, 60, 0
2, 4650, Note_on_c, 3, 62, 127
2, 4662, Note_on_c, 3, 62, 0
2, 4665, Note_on_c, 3, 64, 127
2, 4677, Note_on_c, 3, 64, 0
2, 4680, Note_on_c, 3, 65, 127
2, 4680, Note_on_c, 3, 36, 127
2, 4692, Note_on_c, 3, 65, 0
2, 4695, Note_on_c, 3, 67, 127
2, 4707, Note_on_c, 3, 67, 0
2, 4710, Note_on_c, 3, 69, 127
2, 4722, Note_on_c, 3, 69, 0
2, 4725, Note_on_c, 3, 64, 127
2, 4737, Note_on_c, 3, 64, 0
2, 4740, Note_on_c, 3, 65, 127
2, 4748, Note_on_c, 3, 36, 0
2, 4752, Note_on_c, 3, 65, 0
2, 4755, Note_on_c, 3, 60, 127
2, 4767, Note_on_c, 3, 60, 0
2, 4770, Note_on_c, 3, 57, 127
2, 4782, Note_on_c, 3, 57, 0
2, 4785, Note_on_c, 3, 53, 127
2, 4797, Note_on_c, 3, 53, 0
2, 4920, Note_on_c, 3, 77, 127
2, 4932, Note_on_c, 3, 77, 0
2, 4935, Note_on_c, 3, 76, 127
2, 4947, Note_on_c, 3, 76, 0
2, 4950, Note_on_c, 3, 74, 127
2, 4962, Note_on_c, 3, 74, 0
2, 4965, Note_on_c, 3, 72, 127
2, 4977, Note_on_c, 3, 72, 0
2, 4980, Note_on_c, 3, 71, 127
2, 4992, Note_on_c, 3, 71, 0
2, 4995, Note_on_c, 3, 69, 127
2, 5007, Note_on_c, 3, 69, 0
2, 5010, Note_on_c, 3, 67, 127
2, 5022, Note_on_c, 3, 67, 0
2, 5025, Note_on_c, 3, 65, 127
2, 5037, Note_on_c, 3, 65, 0
2, 5040, Note_on_c, 3, 64, 127
2, 5052, Note_on_c, 3, 64, 0
2, 5055, Note_on_c, 3, 62, 127
2, 5067, Note_on_c, 3, 62, 0
2, 5070, Note_on_c, 3, 60, 127
2, 5082, Note_on_c, 3, 60, 0
2, 5085, Note_on_c, 3, 59, 127
2, 5097, Note_on_c, 3, 59, 0
2, 5100, Note_on_c, 3, 79, 127
2, 5112, Note_on_c, 3, 79, 0
2, 5115, Note_on_c, 3, 77, 127
2, 5127, Note_on_c, 3, 77, 0
2, 5130, Note_on_c, 3, 76, 127
2, 5142, Note_on_c, 3, 76, 0
2, 5145, Note_on_c, 3, 74, 127
2, 5157, Note_on_c, 3, 74, 0
2, 5160, Note_on_c, 3, 77, 127
2, 5172, Note_on_c, 3, 77, 0
2, 5175, Note_on_c, 3, 76, 127
2, 5187, Note_on_c, 3, 76, 0
2, 5190, Note_on_c, 3, 74, 127
2, 5202, Note_on_c, 3, 74, 0
2, 5205, Note_on_c, 3, 72, 127
2, 5217, Note_on_c, 3, 72, 0
2, 5220, Note_on_c, 3, 71, 127
2, 5232, Note_on_c, 3, 71, 0
2, 5235, Note_on_c, 3, 69, 127
2, 5247, Note_on_c, 3, 69, 0
2, 5250, Note_on_c, 3, 67, 127
2, 5262, Note_on_c, 3, 67, 0
2, 5265, Note_on_c, 3, 65, 127
2, 5277, Note_on_c, 3, 65, 0
2, 5280, Note_on_c, 3, 64, 127
2, 5292, Note_on_c, 3, 64, 0
2, 5295, Note_on_c, 3, 62, 127
2, 5307, Note_on_c, 3, 62, 0
2, 5310, Note_on_c, 3, 60, 127
2, 5322, Note_on_c, 3, 60, 0
2, 5325, Note_on_c, 3, 59, 127
2, 5340, Note_on_c, 3, 74, 127
2, 5352, Note_on_c, 3, 74, 0
2, 5355, Note_on_c, 3, 69, 127
2, 5367, Note_on_c, 3, 69, 0
2, 5370, Note_on_c, 3, 67, 127
2, 5382, Note_on_c, 3, 67, 0
2, 5385, Note_on_c, 3, 65, 127
2, 5391, Note_on_c, 3, 59, 0
2, 5397, Note_on_c, 3, 65, 0
2, 5400, Note_on_c, 3, 60, 127
2, 5400, Note_on_c, 3, 64, 127
2, 5400, Note_on_c, 3, 36, 127
2, 5412, Note_on_c, 3, 64, 0
2, 5415, Note_on_c, 3, 67, 127
2, 5425, Note_on_c, 3, 60, 0
2, 5427, Note_on_c, 3, 67, 0
2, 5430, Note_on_c, 3, 72, 127
2, 5442, Note_on_c, 3, 72, 0
2, 5445, Note_on_c, 3, 67, 127
2, 5457, Note_on_c, 3, 67, 0
2, 5459, Note_on_c, 3, 36, 0
2, 5460, Note_on_c, 3, 64, 127
2, 5472, Note_on_c, 3, 64, 0
2, 5475, Note_on_c, 3, 67, 127
2, 5487, Note_on_c, 3, 67, 0
2, 5490, Note_on_c, 3, 64, 127
2, 5502, Note_on_c, 3, 64, 0
2, 5505, Note_on_c, 3, 59, 127
2, 5517, Note_on_c, 3, 59, 0
2, 5520, Note_on_c, 3, 60, 127
2, 5532, Note_on_c, 3, 60, 0
2, 5535, Note_on_c, 3, 64, 127
2, 5547, Note_on_c, 3, 64, 0
2, 5550, Note_on_c, 3, 60, 127
2, 5562, Note_on_c, 3, 60, 0
2, 5565, Note_on_c, 3, 55, 127
2, 5577, Note_on_c, 3, 55, 0
2, 5580, Note_on_c, 3, 52, 127
2, 5592, Note_on_c, 3, 52, 0
2, 5595, Note_on_c, 3, 55, 127
2, 5607, Note_on_c, 3, 55, 0
2, 5610, Note_on_c, 3, 52, 127
2, 5622, Note_on_c, 3, 52, 0
2, 5625, Note_on_c, 3, 48, 127
2, 5637, Note_on_c, 3, 48, 0
2, 5640, Note_on_c, 3, 52, 127
2, 5652, Note_on_c, 3, 52, 0
2, 5655, Note_on_c, 3, 55, 127
2, 5667, Note_on_c, 3, 55, 0
2, 5670, Note_on_c, 3, 60, 127
2, 5682, Note_on_c, 3, 60, 0
2, 5685, Note_on_c, 3, 55, 127
2, 5697, Note_on_c, 3, 55, 0
2, 5700, Note_on_c, 3, 52, 127
2, 5712, Note_on_c, 3, 52, 0
2, 5715, Note_on_c, 3, 48, 127
2, 5727, Note_on_c, 3, 48, 0
2, 5730, Note_on_c, 3, 43, 127
2, 5742, Note_on_c, 3, 43, 0
2, 5745, Note_on_c, 3, 48, 127
2, 5757, Note_on_c, 3, 48, 0
2, 5760, Note_on_c, 3, 36, 127
2, 5807, Note_on_c, 3, 36, 0
2, 5910, Note_on_c, 3, 48, 127
2, 5933, Note_on_c, 3, 48, 0
2, 5940, Note_on_c, 3, 55, 127
2, 5963, Note_on_c, 3, 55, 0
2, 5970, Note_on_c, 3, 43, 127
2, 5993, Note_on_c, 3, 43, 0
2, 6000, Note_on_c, 3, 48, 127
2, 6047, Note_on_c, 3, 48, 0
2, 6120, Note_on_c, 3, 48, 127
2, 6143, Note_on_c, 3, 48, 0
2, 6150, Note_on_c, 3, 52, 127
2, 6173, Note_on_c, 3, 52, 0
2, 6180, Note_on_c, 3, 50, 127
2, 6203, Note_on_c, 3, 50, 0
2, 6210, Note_on_c, 3, 53, 127
2, 6233, Note_on_c, 3, 53, 0
2, 6240, Note_on_c, 3, 52, 127
2, 6263, Note_on_c, 3, 52, 0
2, 6270, Note_on_c, 3, 55, 127
2, 6293, Note_on_c, 3, 55, 0
2, 6300, Note_on_c, 3, 54, 127
2, 6323, Note_on_c, 3, 54, 0
2, 6330, Note_on_c, 3, 57, 127
2, 6353, Note_on_c, 3, 57, 0
2, 6360, Note_on_c, 3, 55, 127
2, 6383, Note_on_c, 3, 55, 0
2, 6390, Note_on_c, 3, 59, 127
2, 6413, Note_on_c, 3, 59, 0
2, 6420, Note_on_c, 3, 57, 127
2, 6443, Note_on_c, 3, 57, 0
2, 6450, Note_on_c, 3, 60, 127
2, 6473, Note_on_c, 3, 60, 0
2, 6480, Note_on_c, 3, 59, 127
2, 6503, Note_on_c, 3, 59, 0
2, 6510, Note_on_c, 3, 62, 127
2, 6533, Note_on_c, 3, 62, 0
2, 6540, Note_on_c, 3, 43, 127
2, 6540, Note_on_c, 3, 55, 127
2, 6563, Note_on_c, 3, 43, 0
2, 6563, Note_on_c, 3, 55, 0
2, 6690, Note_on_c, 3, 60, 127
2, 6713, Note_on_c, 3, 60, 0
2, 6720, Note_on_c, 3, 59, 127
2, 6743, Note_on_c, 3, 59, 0
2, 6750, Note_on_c, 3, 62, 127
2, 6773, Note_on_c, 3, 62, 0
2, 6780, Note_on_c, 3, 57, 127
2, 6803, Note_on_c, 3, 57, 0
2, 6810, Note_on_c, 3, 60, 127
2, 6833, Note_on_c, 3, 60, 0
2, 6840, Note_on_c, 3, 59, 127
2, 6863, Note_on_c, 3, 59, 0
2, 6870, Note_on_c, 3, 62, 127
2, 6893, Note_on_c, 3, 62, 0
2, 6900, Note_on_c, 3, 43, 127
2, 6900, Note_on_c, 3, 55, 127
2, 6923, Note_on_c, 3, 43, 0
2, 6923, Note_on_c, 3, 55, 0
2, 7050, Note_on_c, 3, 60, 127
2, 7073, Note_on_c, 3, 60, 0
2, 7080, Note_on_c, 3, 59, 127
2, 7103, Note_on_c, 3, 59, 0
2, 7110, Note_on_c, 3, 62, 127
2, 7133, Note_on_c, 3, 62, 0
2, 7140, Note_on_c, 3, 55, 127
2, 7163, Note_on_c, 3, 55, 0
2, 7170, Note_on_c, 3, 59, 127
2, 7193, Note_on_c, 3, 59, 0
2, 7200, Note_on_c, 3, 57, 127
2, 7223, Note_on_c, 3, 57, 0
2, 7230, Note_on_c, 3, 60, 127
2, 7253, Note_on_c, 3, 60, 0
2, 7260, Note_on_c, 3, 54, 127
2, 7283, Note_on_c, 3, 54, 0
2, 7290, Note_on_c, 3, 57, 127
2, 7313, Note_on_c, 3, 57, 0
2, 7320, Note_on_c, 3, 55, 127
2, 7343, Note_on_c, 3, 55, 0
2, 7350, Note_on_c, 3, 57, 127
2, 7373, Note_on_c, 3, 57, 0
2, 7380, Note_on_c, 3, 47, 127
2, 7380, Note_on_c, 3, 59, 127
2, 7403, Note_on_c, 3, 47, 0
2, 7403, Note_on_c, 3, 59, 0
2, 7530, Note_on_c, 3, 57, 127
2, 7553, Note_on_c, 3, 57, 0
2, 7560, Note_on_c, 3, 55, 127
2, 7583, Note_on_c, 3, 55, 0
2, 7590, Note_on_c, 3, 59, 127
2, 7613, Note_on_c, 3, 59, 0
2, 7620, Note_on_c, 3, 54, 127
2, 7643, Note_on_c, 3, 54, 0
2, 7650, Note_on_c, 3, 57, 127
2, 7673, Note_on_c, 3, 57, 0
2, 7680, Note_on_c, 3, 55, 127
2, 7703, Note_on_c, 3, 55, 0
2, 7710, Note_on_c, 3, 57, 127
2, 7733, Note_on_c, 3, 57, 0
2, 7740, Note_on_c, 3, 47, 127
2, 7740, Note_on_c, 3, 59, 127
2, 7763, Note_on_c, 3, 47, 0
2, 7763, Note_on_c, 3, 59, 0
2, 7890, Note_on_c, 3, 55, 127
2, 7913, Note_on_c, 3, 55, 0
2, 7920, Note_on_c, 3, 53, 127
2, 7943, Note_on_c, 3, 53, 0
2, 7950, Note_on_c, 3, 55, 127
2, 7973, Note_on_c, 3, 55, 0
2, 7980, Note_on_c, 3, 52, 127
2, 8003, Note_on_c, 3, 52, 0
2, 8010, Note_on_c, 3, 55, 127
2, 8033, Note_on_c, 3, 55, 0
2, 8040, Note_on_c, 3, 53, 127
2, 8063, Note_on_c, 3, 53, 0
2, 8070, Note_on_c, 3, 55, 127
2, 8093, Note_on_c, 3, 55, 0
2, 8100, Note_on_c, 3, 47, 127
2, 8123, Note_on_c, 3, 47, 0
2, 8130, Note_on_c, 3, 55, 127
2, 8153, Note_on_c, 3, 55, 0
2, 8160, Note_on_c, 3, 53, 127
2, 8183, Note_on_c, 3, 53, 0
2, 8190, Note_on_c, 3, 55, 127
2, 8213, Note_on_c, 3, 55, 0
2, 8220, Note_on_c, 3, 52, 127
2, 8243, Note_on_c, 3, 52, 0
2, 8250, Note_on_c, 3, 55, 127
2, 8273, Note_on_c, 3, 55, 0
2, 8280, Note_on_c, 3, 53, 127
2, 8303, Note_on_c, 3, 53, 0
2, 8310, Note_on_c, 3, 55, 127
2, 8333, Note_on_c, 3, 55, 0
2, 8340, Note_on_c, 3, 47, 127
2, 8363, Note_on_c, 3, 47, 0
2, 8370, Note_on_c, 3, 53, 127
2, 8393, Note_on_c, 3, 53, 0
2, 8400, Note_on_c, 3, 52, 127
2, 8423, Note_on_c, 3, 52, 0
2, 8430, Note_on_c, 3, 53, 127
2, 8453, Note_on_c, 3, 53, 0
2, 8460, Note_on_c, 3, 50, 127
2, 8483, Note_on_c, 3, 50, 0
2, 8490, Note_on_c, 3, 53, 127
2, 8513, Note_on_c, 3, 53, 0
2, 8520, Note_on_c, 3, 52, 127
2, 8543, Note_on_c, 3, 52, 0
2, 8550, Note_on_c, 3, 55, 127
2, 8573, Note_on_c, 3, 55, 0
2, 8580, Note_on_c, 3, 48, 127
2, 8603, Note_on_c, 3, 48, 0
2, 8730, Note_on_c, 3, 53, 127
2, 8753, Note_on_c, 3, 53, 0
2, 8760, Note_on_c, 3, 52, 127
2, 8783, Note_on_c, 3, 52, 0
2, 8790, Note_on_c, 3, 53, 127
2, 8813, Note_on_c, 3, 53, 0
2, 8820, Note_on_c, 3, 50, 127
2, 8843, Note_on_c, 3, 50, 0
2, 8850, Note_on_c, 3, 53, 127
2, 8873, Note_on_c, 3, 53, 0
2, 8880, Note_on_c, 3, 52, 127
2, 8903, Note_on_c, 3, 52, 0
2, 8910, Note_on_c, 3, 55, 127
2, 8933, Note_on_c, 3, 55, 0
2, 8940, Note_on_c, 3, 48, 127
2, 8963, Note_on_c, 3, 48, 0
2, 9090, Note_on_c, 3, 58, 127
2, 9113, Note_on_c, 3, 58, 0
2, 9120, Note_on_c, 3, 57, 127
2, 9143, Note_on_c, 3, 57, 0
2, 9150, Note_on_c, 3, 58, 127
2, 9173, Note_on_c, 3, 58, 0
2, 9180, Note_on_c, 3, 55, 127
2, 9203, Note_on_c, 3, 55, 0
2, 9210, Note_on_c, 3, 58, 127
2, 9233, Note_on_c, 3, 58, 0
2, 9240, Note_on_c, 3, 57, 127
2, 9263, Note_on_c, 3, 57, 0
2, 9270, Note_on_c, 3, 60, 127
2, 9293, Note_on_c, 3, 60, 0
2, 9300, Note_on_c, 3, 53, 127
2, 9323, Note_on_c, 3, 53, 0
2, 9330, Note_on_c, 3, 57, 127
2, 9353, Note_on_c, 3, 57, 0
2, 9360, Note_on_c, 3, 55, 127
2, 9383, Note_on_c, 3, 55, 0
2, 9390, Note_on_c, 3, 57, 127
2, 9413, Note_on_c, 3, 57, 0
2, 9420, Note_on_c, 3, 52, 127
2, 9443, Note_on_c, 3, 52, 0
2, 9450, Note_on_c, 3, 55, 127
2, 9473, Note_on_c, 3, 55, 0
2, 9480, Note_on_c, 3, 53, 127
2, 9503, Note_on_c, 3, 53, 0
2, 9510, Note_on_c, 3, 57, 127
2, 9533, Note_on_c, 3, 57, 0
2, 9540, Note_on_c, 3, 50, 127
2, 9563, Note_on_c, 3, 50, 0
2, 9570, Note_on_c, 3, 53, 127
2, 9593, Note_on_c, 3, 53, 0
2, 9600, Note_on_c, 3, 52, 127
2, 9623, Note_on_c, 3, 52, 0
2, 9630, Note_on_c, 3, 53, 127
2, 9653, Note_on_c, 3, 53, 0
2, 9660, Note_on_c, 3, 48, 127
2, 9683, Note_on_c, 3, 48, 0
2, 9690, Note_on_c, 3, 52, 127
2, 9713, Note_on_c, 3, 52, 0
2, 9720, Note_on_c, 3, 50, 127
2, 9743, Note_on_c, 3, 50, 0
2, 9750, Note_on_c, 3, 53, 127
2, 9773, Note_on_c, 3, 53, 0
2, 9780, Note_on_c, 3, 47, 127
2, 9803, Note_on_c, 3, 47, 0
2, 9810, Note_on_c, 3, 55, 127
2, 9833, Note_on_c, 3, 55, 0
2, 9840, Note_on_c, 3, 53, 127
2, 9863, Note_on_c, 3, 53, 0
2, 9870, Note_on_c, 3, 55, 127
2, 9893, Note_on_c, 3, 55, 0
2, 9900, Note_on_c, 3, 50, 127
2, 9923, Note_on_c, 3, 50, 0
2, 9930, Note_on_c, 3, 53, 127
2, 9953, Note_on_c, 3, 53, 0
2, 9960, Note_on_c, 3, 52, 127
2, 9983, Note_on_c, 3, 52, 0
2, 9990, Note_on_c, 3, 55, 127
2, 10013, Note_on_c, 3, 55, 0
2, 10020, Note_on_c, 3, 48, 127
2, 10043, Note_on_c, 3, 48, 0
2, 10050, Note_on_c, 3, 60, 127
2, 10073, Note_on_c, 3, 60, 0
2, 10080, Note_on_c, 3, 54, 127
2, 10103, Note_on_c, 3, 54, 0
2, 10110, Note_on_c, 3, 57, 127
2, 10133, Note_on_c, 3, 57, 0
2, 10140, Note_on_c, 3, 50, 127
2, 10163, Note_on_c, 3, 50, 0
2, 10170, Note_on_c, 3, 60, 127
2, 10193, Note_on_c, 3, 60, 0
2, 10200, Note_on_c, 3, 54, 127
2, 10223, Note_on_c, 3, 54, 0
2, 10230, Note_on_c, 3, 57, 127
2, 10253, Note_on_c, 3, 57, 0
2, 10260, Note_on_c, 3, 50, 127
2, 10283, Note_on_c, 3, 50, 0
2, 10290, Note_on_c, 3, 60, 127
2, 10313, Note_on_c, 3, 60, 0
2, 10320, Note_on_c, 3, 57, 127
2, 10343, Note_on_c, 3, 57, 0
2, 10350, Note_on_c, 3, 60, 127
2, 10373, Note_on_c, 3, 60, 0
2, 10380, Note_on_c, 3, 54, 127
2, 10403, Note_on_c, 3, 54, 0
2, 10410, Note_on_c, 3, 57, 127
2, 10433, Note_on_c, 3, 57, 0
2, 10440, Note_on_c, 3, 55, 127
2, 10463, Note_on_c, 3, 55, 0
2, 10470, Note_on_c, 3, 59, 127
2, 10493, Note_on_c, 3, 59, 0
2, 10500, Note_on_c, 3, 50, 127
2, 10523, Note_on_c, 3, 50, 0
2, 10530, Note_on_c, 3, 62, 127
2, 10553, Note_on_c, 3, 62, 0
2, 10560, Note_on_c, 3, 55, 127
2, 10583, Note_on_c, 3, 55, 0
2, 10590, Note_on_c, 3, 59, 127
2, 10613, Note_on_c, 3, 59, 0
2, 10620, Note_on_c, 3, 50, 127
2, 10643, Note_on_c, 3, 50, 0
2, 10650, Note_on_c, 3, 62, 127
2, 10673, Note_on_c, 3, 62, 0
2, 10680, Note_on_c, 3, 59, 127
2, 10703, Note_on_c, 3, 59, 0
2, 10710, Note_on_c, 3, 62, 127
2, 10733, Note_on_c, 3, 62, 0
2, 10740, Note_on_c, 3, 55, 127
2, 10763, Note_on_c, 3, 55, 0
2, 10770, Note_on_c, 3, 59, 127
2, 10793, Note_on_c, 3, 59, 0
2, 10800, Note_on_c, 3, 50, 127
2, 10823, Note_on_c, 3, 50, 0
2, 10830, Note_on_c, 3, 55, 127
2, 10853, Note_on_c, 3, 55, 0
2, 10860, Note_on_c, 3, 43, 127
2, 10883, Note_on_c, 3, 43, 0
2, 10890, Note_on_c, 3, 62, 127
2, 10913, Note_on_c, 3, 62, 0
2, 10920, Note_on_c, 3, 59, 127
2, 10943, Note_on_c, 3, 59, 0
2, 10950, Note_on_c, 3, 62, 127
2, 10973, Note_on_c, 3, 62, 0
2, 10980, Note_on_c, 3, 55, 127
2, 11003, Note_on_c, 3, 55, 0
2, 11010, Note_on_c, 3, 59, 127
2, 11033, Note_on_c, 3, 59, 0
2, 11040, Note_on_c, 3, 50, 127
2, 11063, Note_on_c, 3, 50, 0
2, 11070, Note_on_c, 3, 55, 127
2, 11093, Note_on_c, 3, 55, 0
2, 11100, Note_on_c, 3, 43, 127
2, 11123, Note_on_c, 3, 43, 0
2, 11130, Note_on_c, 3, 55, 127
2, 11153, Note_on_c, 3, 55, 0
2, 11160, Note_on_c, 3, 53, 127
2, 11175, Note_on_c, 3, 53, 0
2, 11179, Note_on_c, 3, 55, 127
2, 11195, Note_on_c, 3, 55, 0
2, 11199, Note_on_c, 3, 53, 127
2, 11215, Note_on_c, 3, 53, 0
2, 11220, Note_on_c, 3, 52, 127
2, 11235, Note_on_c, 3, 52, 0
2, 11239, Note_on_c, 3, 53, 127
2, 11255, Note_on_c, 3, 53, 0
2, 11259, Note_on_c, 3, 52, 127
2, 11275, Note_on_c, 3, 52, 0
2, 11280, Note_on_c, 3, 50, 127
2, 11303, Note_on_c, 3, 50, 0
2, 11310, Note_on_c, 3, 53, 127
2, 11333, Note_on_c, 3, 53, 0
2, 11340, Note_on_c, 3, 52, 127
2, 11363, Note_on_c, 3, 52, 0
2, 11370, Note_on_c, 3, 53, 127
2, 11393, Note_on_c, 3, 53, 0
2, 11400, Note_on_c, 3, 50, 127
2, 11415, Note_on_c, 3, 50, 0
2, 11419, Note_on_c, 3, 52, 127
2, 11435, Note_on_c, 3, 52, 0
2, 11439, Note_on_c, 3, 50, 127
2, 11455, Note_on_c, 3, 50, 0
2, 11460, Note_on_c, 3, 48, 127
2, 11475, Note_on_c, 3, 48, 0
2, 11479, Note_on_c, 3, 50, 127
2, 11495, Note_on_c, 3, 50, 0
2, 11499, Note_on_c, 3, 48, 127
2, 11515, Note_on_c, 3, 48, 0
2, 11520, Note_on_c, 3, 47, 127
2, 11532, Note_on_c, 3, 47, 0
2, 11535, Note_on_c, 3, 48, 127
2, 11540, Note_on_c, 3, 48, 0
2, 11542, Note_on_c, 3, 47, 127
2, 11548, Note_on_c, 3, 47, 0
2, 11550, Note_on_c, 3, 48, 127
2, 11555, Note_on_c, 3, 48, 0
2, 11557, Note_on_c, 3, 47, 127
2, 11563, Note_on_c, 3, 47, 0
2, 11565, Note_on_c, 3, 48, 127
2, 11577, Note_on_c, 3, 48, 0
2, 11580, Note_on_c, 3, 47, 127
2, 11603, Note_on_c, 3, 47, 0
2, 11610, Note_on_c, 3, 50, 127
2, 11633, Note_on_c, 3, 50, 0
2, 11640, Note_on_c, 3, 48, 127
2, 11663, Note_on_c, 3, 48, 0
2, 11670, Note_on_c, 3, 52, 127
2, 11693, Note_on_c, 3, 52, 0
2, 11700, Note_on_c, 3, 50, 127
2, 11723, Note_on_c, 3, 50, 0
2, 11730, Note_on_c, 3, 53, 127
2, 11753, Note_on_c, 3, 53, 0
2, 11760, Note_on_c, 3, 52, 127
2, 11783, Note_on_c, 3, 52, 0
2, 11790, Note_on_c, 3, 55, 127
2, 11813, Note_on_c, 3, 55, 0
2, 11820, Note_on_c, 3, 47, 127
2, 11843, Note_on_c, 3, 47, 0
2, 11850, Note_on_c, 3, 50, 127
2, 11873, Note_on_c, 3, 50, 0
2, 11880, Note_on_c, 3, 48, 127
2, 11907, Note_on_c, 3, 48, 0
2, 11910, Note_on_c, 3, 50, 127
2, 11924, Note_on_c, 3, 50, 0
2, 11925, Note_on_c, 3, 52, 127
2, 11937, Note_on_c, 3, 52, 0
2, 11940, Note_on_c, 3, 50, 127
2, 11967, Note_on_c, 3, 50, 0
2, 11970, Note_on_c, 3, 52, 127
2, 11984, Note_on_c, 3, 52, 0
2, 11985, Note_on_c, 3, 53, 127
2, 11997, Note_on_c, 3, 53, 0
2, 12000, Note_on_c, 3, 52, 127
2, 12023, Note_on_c, 3, 52, 0
2, 12030, Note_on_c, 3, 55, 127
2, 12053, Note_on_c, 3, 55, 0
2, 12060, Note_on_c, 3, 48, 127
2, 12083, Note_on_c, 3, 48, 0
2, 12090, Note_on_c, 3, 52, 127
2, 12113, Note_on_c, 3, 52, 0
2, 12120, Note_on_c, 3, 50, 127
2, 12143, Note_on_c, 3, 50, 0
2, 12150, Note_on_c, 3, 53, 127
2, 12173, Note_on_c, 3, 53, 0
2, 12180, Note_on_c, 3, 52, 127
2, 12203, Note_on_c, 3, 52, 0
2, 12210, Note_on_c, 3, 55, 127
2, 12233, Note_on_c, 3, 55, 0
2, 12240, Note_on_c, 3, 53, 127
2, 12263, Note_on_c, 3, 53, 0
2, 12270, Note_on_c, 3, 57, 127
2, 12293, Note_on_c, 3, 57, 0
2, 12300, Note_on_c, 3, 49, 127
2, 12323, Note_on_c, 3, 49, 0
2, 12330, Note_on_c, 3, 52, 127
2, 12353, Note_on_c, 3, 52, 0
2, 12360, Note_on_c, 3, 50, 127
2, 12387, Note_on_c, 3, 50, 0
2, 12390, Note_on_c, 3, 52, 127
2, 12404, Note_on_c, 3, 52, 0
2, 12405, Note_on_c, 3, 53, 127
2, 12417, Note_on_c, 3, 53, 0
2, 12420, Note_on_c, 3, 52, 127
2, 12447, Note_on_c, 3, 52, 0
2, 12450, Note_on_c, 3, 53, 127
2, 12464, Note_on_c, 3, 53, 0
2, 12465, Note_on_c, 3, 55, 127
2, 12477, Note_on_c, 3, 55, 0
2, 12480, Note_on_c, 3, 53, 127
2, 12503, Note_on_c, 3, 53, 0
2, 12510, Note_on_c, 3, 57, 127
2, 12533, Note_on_c, 3, 57, 0
2, 12540, Note_on_c, 3, 50, 127
2, 12563, Note_on_c, 3, 50, 0
2, 12570, Note_on_c, 3, 53, 127
2, 12593, Note_on_c, 3, 53, 0
2, 12600, Note_on_c, 3, 52, 127
2, 12627, Note_on_c, 3, 52, 0
2, 12630, Note_on_c, 3, 53, 127
2, 12644, Note_on_c, 3, 53, 0
2, 12645, Note_on_c, 3, 55, 127
2, 12657, Note_on_c, 3, 55, 0
2, 12660, Note_on_c, 3, 53, 127
2, 12687, Note_on_c, 3, 53, 0
2, 12690, Note_on_c, 3, 55, 127
2, 12704, Note_on_c, 3, 55, 0
2, 12705, Note_on_c, 3, 57, 127
2, 12717, Note_on_c, 3, 57, 0
2, 12720, Note_on_c, 3, 47, 127
2, 12743, Note_on_c, 3, 47, 0
2, 12750, Note_on_c, 3, 55, 127
2, 12773, Note_on_c, 3, 55, 0
2, 12780, Note_on_c, 3, 48, 127
2, 12803, Note_on_c, 3, 48, 0
2, 12810, Note_on_c, 3, 50, 127
2, 12833, Note_on_c, 3, 50, 0
2, 12840, Note_on_c, 3, 43, 127
2, 12863, Note_on_c, 3, 43, 0
2, 12870, Note_on_c, 3, 52, 127
2, 12893, Note_on_c, 3, 52, 0
2, 12900, Note_on_c, 3, 50, 127
2, 12905, Note_on_c, 3, 50, 0
2, 12907, Note_on_c, 3, 52, 127
2, 12913, Note_on_c, 3, 52, 0
2, 12915, Note_on_c, 3, 50, 127
2, 12920, Note_on_c, 3, 50, 0
2, 12922, Note_on_c, 3, 52, 127
2, 12928, Note_on_c, 3, 52, 0
2, 12930, Note_on_c, 3, 50, 127
2, 12935, Note_on_c, 3, 50, 0
2, 12937, Note_on_c, 3, 52, 127
2, 12943, Note_on_c, 3, 52, 0
2, 12945, Note_on_c, 3, 50, 127
2, 12957, Note_on_c, 3, 50, 0
2, 12960, Note_on_c, 3, 48, 127
2, 13030, Note_on_c, 3, 48, 0
2, 13050, Note_on_c, 3, 58, 127
2, 13073, Note_on_c, 3, 58, 0
2, 13080, Note_on_c, 3, 52, 127
2, 13103, Note_on_c, 3, 52, 0
2, 13110, Note_on_c, 3, 55, 127
2, 13133, Note_on_c, 3, 55, 0
2, 13140, Note_on_c, 3, 48, 127
2, 13163, Note_on_c, 3, 48, 0
2, 13170, Note_on_c, 3, 58, 127
2, 13193, Note_on_c, 3, 58, 0
2, 13200, Note_on_c, 3, 52, 127
2, 13223, Note_on_c, 3, 52, 0
2, 13230, Note_on_c, 3, 55, 127
2, 13253, Note_on_c, 3, 55, 0
2, 13260, Note_on_c, 3, 48, 127
2, 13283, Note_on_c, 3, 48, 0
2, 13290, Note_on_c, 3, 58, 127
2, 13313, Note_on_c, 3, 58, 0
2, 13320, Note_on_c, 3, 57, 127
2, 13343, Note_on_c, 3, 57, 0
2, 13350, Note_on_c, 3, 60, 127
2, 13373, Note_on_c, 3, 60, 0
2, 13380, Note_on_c, 3, 53, 127
2, 13403, Note_on_c, 3, 53, 0
2, 13410, Note_on_c, 3, 55, 127
2, 13433, Note_on_c, 3, 55, 0
2, 13440, Note_on_c, 3, 52, 127
2, 13463, Note_on_c, 3, 52, 0
2, 13470, Note_on_c, 3, 55, 127
2, 13493, Note_on_c, 3, 55, 0
2, 13500, Note_on_c, 3, 48, 127
2, 13523, Note_on_c, 3, 48, 0
2, 13530, Note_on_c, 3, 60, 127
2, 13553, Note_on_c, 3, 60, 0
2, 13560, Note_on_c, 3, 58, 127
2, 13575, Note_on_c, 3, 58, 0
2, 13579, Note_on_c, 3, 60, 127
2, 13595, Note_on_c, 3, 60, 0
2, 13599, Note_on_c, 3, 58, 127
2, 13615, Note_on_c, 3, 58, 0
2, 13620, Note_on_c, 3, 57, 127
2, 13635, Note_on_c, 3, 57, 0
2, 13639, Note_on_c, 3, 58, 127
2, 13655, Note_on_c, 3, 58, 0
2, 13659, Note_on_c, 3, 57, 127
2, 13675, Note_on_c, 3, 57, 0
2, 13680, Note_on_c, 3, 55, 127
2, 13695, Note_on_c, 3, 55, 0
2, 13699, Note_on_c, 3, 57, 127
2, 13715, Note_on_c, 3, 57, 0
2, 13719, Note_on_c, 3, 55, 127
2, 13735, Note_on_c, 3, 55, 0
2, 13740, Note_on_c, 3, 53, 127
2, 13755, Note_on_c, 3, 53, 0
2, 13759, Note_on_c, 3, 55, 127
2, 13775, Note_on_c, 3, 55, 0
2, 13779, Note_on_c, 3, 53, 127
2, 13795, Note_on_c, 3, 53, 0
2, 13800, Note_on_c, 3, 52, 127
2, 13815, Note_on_c, 3, 52, 0
2, 13819, Note_on_c, 3, 53, 127
2, 13835, Note_on_c, 3, 53, 0
2, 13839, Note_on_c, 3, 52, 127
2, 13855, Note_on_c, 3, 52, 0
2, 13860, Note_on_c, 3, 50, 127
2, 13875, Note_on_c, 3, 50, 0
2, 13879, Note_on_c, 3, 52, 127
2, 13895, Note_on_c, 3, 52, 0
2, 13899, Note_on_c, 3, 50, 127
2, 13915, Note_on_c, 3, 50, 0
2, 13920, Note_on_c, 3, 48, 127
2, 13935, Note_on_c, 3, 48, 0
2, 13939, Note_on_c, 3, 50, 127
2, 13955, Note_on_c, 3, 50, 0
2, 13959, Note_on_c, 3, 48, 127
2, 13975, Note_on_c, 3, 48, 0
2, 13980, Note_on_c, 3, 46, 127
2, 13995, Note_on_c, 3, 46, 0
2, 13999, Note_on_c, 3, 48, 127
2, 14015, Note_on_c, 3, 48, 0
2, 14019, Note_on_c, 3, 46, 127
2, 14035, Note_on_c, 3, 46, 0
2, 14040, Note_on_c, 3, 45, 127
2, 14055, Note_on_c, 3, 45, 0
2, 14059, Note_on_c, 3, 46, 127
2, 14075, Note_on_c, 3, 46, 0
2, 14079, Note_on_c, 3, 45, 127
2, 14095, Note_on_c, 3, 45, 0
2, 14100, Note_on_c, 3, 43, 127
2, 14115, Note_on_c, 3, 43, 0
2, 14119, Note_on_c, 3, 45, 127
2, 14135, Note_on_c, 3, 45, 0
2, 14139, Note_on_c, 3, 43, 127
2, 14155, Note_on_c, 3, 43, 0
2, 14160, Note_on_c, 3, 41, 127
2, 14183, Note_on_c, 3, 41, 0
2, 14190, Note_on_c, 3, 43, 127
2, 14202, Note_on_c, 3, 43, 0
2, 14205, Note_on_c, 3, 41, 127
2, 14217, Note_on_c, 3, 41, 0
2, 14220, Note_on_c, 3, 40, 127
2, 14243, Note_on_c, 3, 40, 0
2, 14250, Note_on_c, 3, 41, 127
2, 14273, Note_on_c, 3, 41, 0
2, 14280, Note_on_c, 3, 43, 127
2, 14350, Note_on_c, 3, 43, 0
2, 14370, Note_on_c, 3, 54, 127
2, 14393, Note_on_c, 3, 54, 0
2, 14400, Note_on_c, 3, 55, 127
2, 14435, Note_on_c, 3, 55, 0
2, 14445, Note_on_c, 3, 54, 127
2, 14457, Note_on_c, 3, 54, 0
2, 14460, Note_on_c, 3, 55, 127
2, 14495, Note_on_c, 3, 55, 0
2, 14505, Note_on_c, 3, 54, 127
2, 14517, Note_on_c, 3, 54, 0
2, 14520, Note_on_c, 3, 55, 127
2, 14555, Note_on_c, 3, 55, 0
2, 14565, Note_on_c, 3, 54, 127
2, 14577, Note_on_c, 3, 54, 0
2, 14580, Note_on_c, 3, 55, 127
2, 14615, Note_on_c, 3, 55, 0
2, 14625, Note_on_c, 3, 54, 127
2, 14637, Note_on_c, 3, 54, 0
2, 14640, Note_on_c, 3, 55, 127
2, 14652, Note_on_c, 3, 55, 0
2, 14655, Note_on_c, 3, 53, 127
2, 14667, Note_on_c, 3, 53, 0
2, 14670, Note_on_c, 3, 52, 127
2, 14682, Note_on_c, 3, 52, 0
2, 14685, Note_on_c, 3, 53, 127
2, 14697, Note_on_c, 3, 53, 0
2, 14700, Note_on_c, 3, 55, 127
2, 14712, Note_on_c, 3, 55, 0
2, 14715, Note_on_c, 3, 53, 127
2, 14727, Note_on_c, 3, 53, 0
2, 14730, Note_on_c, 3, 52, 127
2, 14742, Note_on_c, 3, 52, 0
2, 14745, Note_on_c, 3, 53, 127
2, 14757, Note_on_c, 3, 53, 0
2, 14760, Note_on_c, 3, 55, 127
2, 14795, Note_on_c, 3, 55, 0
2, 14805, Note_on_c, 3, 47, 127
2, 14817, Note_on_c, 3, 47, 0
2, 14820, Note_on_c, 3, 48, 127
2, 14855, Note_on_c, 3, 48, 0
2, 14865, Note_on_c, 3, 41, 127
2, 14877, Note_on_c, 3, 41, 0
2, 14880, Note_on_c, 3, 43, 127
2, 14950, Note_on_c, 3, 43, 0
2, 14970, Note_on_c, 3, 77, 127
2, 14970, Note_on_c, 3, 67, 127
2, 14970, Note_on_c, 3, 71, 127
2, 14970, Note_on_c, 3, 55, 127
2, 14970, Note_on_c, 3, 62, 127
2, 14970, Note_on_c, 3, 43, 127
2, 14993, Note_on_c, 3, 77, 0
2, 14993, Note_on_c, 3, 67, 0
2, 14993, Note_on_c, 3, 71, 0
2, 14993, Note_on_c, 3, 55, 0
2, 14993, Note_on_c, 3, 62, 0
2, 14993, Note_on_c, 3, 43, 0
2, 15000, Note_on_c, 3, 76, 127
2, 15000, Note_on_c, 3, 67, 127
2, 15000, Note_on_c, 3, 72, 127
2, 15000, Note_on_c, 3, 55, 127
2, 15000, Note_on_c, 3, 60, 127
2, 15000, Note_on_c, 3, 48, 127
2, 15047, Note_on_c, 3, 67, 0
2, 15047, Note_on_c, 3, 72, 0
2, 15047, Note_on_c, 3, 55, 0
2, 15047, Note_on_c, 3, 48, 0
2, 15060, Note_on_c, 3, 36, 127
2, 15070, Note_on_c, 3, 76, 0
2, 15070, Note_on_c, 3, 60, 0
2, 15090, Note_on_c, 3, 67, 127
2, 15090, Note_on_c, 3, 64, 127
2, 15113, Note_on_c, 3, 67, 0
2, 15113, Note_on_c, 3, 64, 0
2, 15114, Note_on_c, 3, 36, 0
2, 15120, Note_on_c, 3, 69, 127
2, 15120, Note_on_c, 3, 65, 127
2, 15143, Note_on_c, 3, 69, 0
2, 15150, Note_on_c, 3, 71, 127
2, 15162, Note_on_c, 3, 71, 0
2, 15165, Note_on_c, 3, 72, 127
2, 15167, Note_on_c, 3, 65, 0
2, 15177, Note_on_c, 3, 72, 0
2, 15180, Note_on_c, 3, 71, 127
2, 15180, Note_on_c, 3, 62, 127
2, 15203, Note_on_c, 3, 71, 0
2, 15210, Note_on_c, 3, 72, 127
2, 15222, Note_on_c, 3, 72, 0
2, 15225, Note_on_c, 3, 74, 127
2, 15227, Note_on_c, 3, 62, 0
2, 15237, Note_on_c, 3, 74, 0
2, 15240, Note_on_c, 3, 72, 127
2, 15240, Note_on_c, 3, 64, 127
2, 15263, Note_on_c, 3, 72, 0
2, 15270, Note_on_c, 3, 74, 127
2, 15282, Note_on_c, 3, 74, 0
2, 15285, Note_on_c, 3, 76, 127
2, 15287, Note_on_c, 3, 64, 0
2, 15297, Note_on_c, 3, 76, 0
2, 15300, Note_on_c, 3, 74, 127
2, 15300, Note_on_c, 3, 59, 127
2, 15323, Note_on_c, 3, 74, 0
2, 15330, Note_on_c, 3, 76, 127
2, 15342, Note_on_c, 3, 76, 0
2, 15345, Note_on_c, 3, 77, 127
2, 15347, Note_on_c, 3, 59, 0
2, 15357, Note_on_c, 3, 77, 0
2, 15360, Note_on_c, 3, 76, 127
2, 15360, Note_on_c, 3, 60, 127
2, 15383, Note_on_c, 3, 76, 0
2, 15390, Note_on_c, 3, 77, 127
2, 15402, Note_on_c, 3, 77, 0
2, 15405, Note_on_c, 3, 79, 127
2, 15407, Note_on_c, 3, 60, 0
2, 15417, Note_on_c, 3, 79, 0
2, 15420, Note_on_c, 3, 77, 127
2, 15420, Note_on_c, 3, 62, 127
2, 15443, Note_on_c, 3, 77, 0
2, 15450, Note_on_c, 3, 79, 127
2, 15462, Note_on_c, 3, 79, 0
2, 15465, Note_on_c, 3, 81, 127
2, 15467, Note_on_c, 3, 62, 0
2, 15477, Note_on_c, 3, 81, 0
2, 15480, Note_on_c, 3, 79, 127
2, 15480, Note_on_c, 3, 64, 127
2, 15480, Note_on_c, 3, 48, 127
2, 15510, Note_on_c, 3, 67, 127
2, 15527, Note_on_c, 3, 79, 0
2, 15533, Note_on_c, 3, 67, 0
2, 15534, Note_on_c, 3, 48, 0
2, 15540, Note_on_c, 3, 72, 127
2, 15550, Note_on_c, 3, 64, 0
2, 15570, Note_on_c, 3, 52, 127
2, 15587, Note_on_c, 3, 72, 0
2, 15593, Note_on_c, 3, 52, 0
2, 15600, Note_on_c, 3, 53, 127
2, 15630, Note_on_c, 3, 69, 127
2, 15653, Note_on_c, 3, 69, 0
2, 15660, Note_on_c, 3, 77, 127
2, 15660, Note_on_c, 3, 74, 127
2, 15670, Note_on_c, 3, 53, 0
2, 15683, Note_on_c, 3, 74, 0
2, 15690, Note_on_c, 3, 69, 127
2, 15690, Note_on_c, 3, 50, 127
2, 15713, Note_on_c, 3, 69, 0
2, 15713, Note_on_c, 3, 50, 0
2, 15720, Note_on_c, 3, 71, 127
2, 15720, Note_on_c, 3, 55, 127
2, 15750, Note_on_c, 3, 62, 127
2, 15761, Note_on_c, 3, 77, 0
2, 15767, Note_on_c, 3, 71, 0
2, 15767, Note_on_c, 3, 55, 0
2, 15773, Note_on_c, 3, 62, 0
2, 15780, Note_on_c, 3, 76, 127
2, 15780, Note_on_c, 3, 72, 127
2, 15780, Note_on_c, 3, 64, 127
2, 15803, Note_on_c, 3, 64, 0
2, 15810, Note_on_c, 3, 60, 127
2, 15827, Note_on_c, 3, 76, 0
2, 15833, Note_on_c, 3, 60, 0
2, 15840, Note_on_c, 3, 74, 127
2, 15840, Note_on_c, 3, 67, 127
2, 15857, Note_on_c, 3, 72, 0
2, 15870, Note_on_c, 3, 69, 127
2, 15893, Note_on_c, 3, 69, 0
2, 15900, Note_on_c, 3, 71, 127
2, 15900, Note_on_c, 3, 55, 127
2, 15910, Note_on_c, 3, 67, 0
2, 15930, Note_on_c, 3, 65, 127
2, 15935, Note_on_c, 3, 74, 0
2, 15947, Note_on_c, 3, 71, 0
2, 15947, Note_on_c, 3, 55, 0
2, 15953, Note_on_c, 3, 65, 0
2, 15960, Note_on_c, 3, 72, 127
2, 15960, Note_on_c, 3, 67, 127
2, 15960, Note_on_c, 3, 60, 127
2, 15960, Note_on_c, 3, 60, 127
2, 15960, Note_on_c, 3, 48, 127
2, 15983, Note_on_c, 3, 60, 0
2, 15990, Note_on_c, 3, 55, 127
2, 16007, Note_on_c, 3, 72, 0
2, 16007, Note_on_c, 3, 67, 0
2, 16007, Note_on_c, 3, 60, 0
2, 16013, Note_on_c, 3, 55, 0
2, 16020, Note_on_c, 3, 48, 127
2, 16023, Note_on_c, 3, 48, 0
2, 16043, Note_on_c, 3, 48, 0
2, 16050, Note_on_c, 3, 76, 127
2, 16050, Note_on_c, 3, 71, 127
2, 16050, Note_on_c, 3, 55, 127
2, 16073, Note_on_c, 3, 76, 0
2, 16073, Note_on_c, 3, 71, 0
2, 16073, Note_on_c, 3, 55, 0
2, 16080, Note_on_c, 3, 77, 127
2, 16080, Note_on_c, 3, 72, 127
2, 16080, Note_on_c, 3, 57, 127
2, 16103, Note_on_c, 3, 57, 0
2, 16110, Note_on_c, 3, 59, 127
2, 16122, Note_on_c, 3, 59, 0
2, 16125, Note_on_c, 3, 60, 127
2, 16127, Note_on_c, 3, 77, 0
2, 16127, Note_on_c, 3, 72, 0
2, 16137, Note_on_c, 3, 60, 0
2, 16140, Note_on_c, 3, 74, 127
2, 16140, Note_on_c, 3, 67, 127
2, 16140, Note_on_c, 3, 59, 127
2, 16163, Note_on_c, 3, 59, 0
2, 16170, Note_on_c, 3, 60, 127
2, 16182, Note_on_c, 3, 60, 0
2, 16185, Note_on_c, 3, 62, 127
2, 16187, Note_on_c, 3, 74, 0
2, 16187, Note_on_c, 3, 67, 0
2, 16197, Note_on_c, 3, 62, 0
2, 16200, Note_on_c, 3, 76, 127
2, 16200, Note_on_c, 3, 67, 127
2, 16200, Note_on_c, 3, 60, 127
2, 16223, Note_on_c, 3, 60, 0
2, 16230, Note_on_c, 3, 62, 127
2, 16242, Note_on_c, 3, 62, 0
2, 16245, Note_on_c, 3, 64, 127
2, 16247, Note_on_c, 3, 76, 0
2, 16247, Note_on_c, 3, 67, 0
2, 16257, Note_on_c, 3, 64, 0
2, 16260, Note_on_c, 3, 71, 127
2, 16260, Note_on_c, 3, 65, 127
2, 16260, Note_on_c, 3, 62, 127
2, 16283, Note_on_c, 3, 62, 0
2, 16290, Note_on_c, 3, 64, 127
2, 16302, Note_on_c, 3, 64, 0
2, 16305, Note_on_c, 3, 65, 127
2, 16307, Note_on_c, 3, 71, 0
2, 16307, Note_on_c, 3, 65, 0
2, 16317, Note_on_c, 3, 65, 0
2, 16320, Note_on_c, 3, 72, 127
2, 16320, Note_on_c, 3, 67, 127
2, 16320, Note_on_c, 3, 64, 127
2, 16343, Note_on_c, 3, 64, 0
2, 16350, Note_on_c, 3, 65, 127
2, 16362, Note_on_c, 3, 65, 0
2, 16365, Note_on_c, 3, 67, 127
2, 16367, Note_on_c, 3, 72, 0
2, 16367, Note_on_c, 3, 67, 0
2, 16377, Note_on_c, 3, 67, 0
2, 16380, Note_on_c, 3, 74, 127
2, 16380, Note_on_c, 3, 71, 127
2, 16380, Note_on_c, 3, 65, 127
2, 16403, Note_on_c, 3, 65, 0
2, 16410, Note_on_c, 3, 67, 127
2, 16422, Note_on_c, 3, 67, 0
2, 16425, Note_on_c, 3, 69, 127
2, 16427, Note_on_c, 3, 74, 0
2, 16427, Note_on_c, 3, 71, 0
2, 16437, Note_on_c, 3, 69, 0
2, 16440, Note_on_c, 3, 76, 127
2, 16440, Note_on_c, 3, 72, 127
2, 16440, Note_on_c, 3, 67, 127
2, 16440, Note_on_c, 3, 48, 127
2, 16463, Note_on_c, 3, 76, 0
2, 16470, Note_on_c, 3, 79, 127
2, 16487, Note_on_c, 3, 72, 0
2, 16487, Note_on_c, 3, 67, 0
2, 16493, Note_on_c, 3, 79, 0
2, 16500, Note_on_c, 3, 84, 127
2, 16503, Note_on_c, 3, 48, 0
2, 16530, Note_on_c, 3, 76, 127
2, 16547, Note_on_c, 3, 84, 0
2, 16553, Note_on_c, 3, 76, 0
2, 16560, Note_on_c, 3, 77, 127
2, 16590, Note_on_c, 3, 81, 127
2, 16613, Note_on_c, 3, 81, 0
2, 16620, Note_on_c, 3, 86, 127
2, 16620, Note_on_c, 3, 65, 127
2, 16630, Note_on_c, 3, 77, 0
2, 16643, Note_on_c, 3, 86, 0
2, 16650, Note_on_c, 3, 81, 127
2, 16650, Note_on_c, 3, 74, 127
2, 16673, Note_on_c, 3, 81, 0
2, 16673, Note_on_c, 3, 74, 0
2, 16680, Note_on_c, 3, 79, 127
2, 16680, Note_on_c, 3, 83, 127
2, 16710, Note_on_c, 3, 74, 127
2, 16721, Note_on_c, 3, 65, 0
2, 16727, Note_on_c, 3, 79, 0
2, 16727, Note_on_c, 3, 83, 0
2, 16733, Note_on_c, 3, 74, 0
2, 16740, Note_on_c, 3, 79, 127
2, 16740, Note_on_c, 3, 84, 127
2, 16740, Note_on_c, 3, 76, 127
2, 16740, Note_on_c, 3, 64, 127
2, 16763, Note_on_c, 3, 76, 0
2, 16770, Note_on_c, 3, 72, 127
2, 16787, Note_on_c, 3, 79, 0
2, 16787, Note_on_c, 3, 84, 0
2, 16787, Note_on_c, 3, 64, 0
2, 16793, Note_on_c, 3, 72, 0
2, 16800, Note_on_c, 3, 77, 127
2, 16800, Note_on_c, 3, 74, 127
2, 16800, Note_on_c, 3, 62, 127
2, 16830, Note_on_c, 3, 81, 127
2, 16847, Note_on_c, 3, 74, 0
2, 16847, Note_on_c, 3, 62, 0
2, 16853, Note_on_c, 3, 81, 0
2, 16860, Note_on_c, 3, 83, 127
2, 16860, Note_on_c, 3, 74, 127
2, 16860, Note_on_c, 3, 67, 127
2, 16877, Note_on_c, 3, 77, 0
2, 16883, Note_on_c, 3, 83, 0
2, 16890, Note_on_c, 3, 77, 127
2, 16907, Note_on_c, 3, 74, 0
2, 16907, Note_on_c, 3, 67, 0
2, 16913, Note_on_c, 3, 77, 0
2, 16920, Note_on_c, 3, 79, 127
2, 16920, Note_on_c, 3, 84, 127
2, 16920, Note_on_c, 3, 76, 127
2, 16920, Note_on_c, 3, 60, 127
2, 16920, Note_on_c, 3, 48, 127
2, 16943, Note_on_c, 3, 60, 0
2, 16950, Note_on_c, 3, 67, 127
2, 16967, Note_on_c, 3, 79, 0
2, 16967, Note_on_c, 3, 84, 0
2, 16967, Note_on_c, 3, 76, 0
2, 16973, Note_on_c, 3, 67, 0
2, 16979, Note_on_c, 3, 48, 0
2, 16980, Note_on_c, 3, 72, 127
2, 17003, Note_on_c, 3, 72, 0
2, 17010, Note_on_c, 3, 77, 127
2, 17033, Note_on_c, 3, 77, 0
2, 17040, Note_on_c, 3, 76, 127
2, 17063, Note_on_c, 3, 76, 0
2, 17070, Note_on_c, 3, 79, 127
2, 17093, Note_on_c, 3, 79, 0
2, 17100, Note_on_c, 3, 72, 127
2, 17123, Note_on_c, 3, 72, 0
2, 17130, Note_on_c, 3, 76, 127
2, 17153, Note_on_c, 3, 76, 0
2, 17160, Note_on_c, 3, 71, 127
2, 17183, Note_on_c, 3, 71, 0
2, 17190, Note_on_c, 3, 74, 127
2, 17213, Note_on_c, 3, 74, 0
2, 17220, Note_on_c, 3, 67, 127
2, 17243, Note_on_c, 3, 67, 0
2, 17250, Note_on_c, 3, 65, 127
2, 17273, Note_on_c, 3, 65, 0
2, 17280, Note_on_c, 3, 72, 127
2, 17280, Note_on_c, 3, 67, 127
2, 17280, Note_on_c, 3, 64, 127
2, 17303, Note_on_c, 3, 64, 0
2, 17310, Note_on_c, 3, 67, 127
2, 17330, Note_on_c, 3, 67, 0
2, 17340, Note_on_c, 3, 60, 127
2, 17350, Note_on_c, 3, 72, 0
2, 17353, Note_on_c, 3, 67, 0
2, 17363, Note_on_c, 3, 60, 0
2, 17370, Note_on_c, 3, 72, 127
2, 17370, Note_on_c, 3, 67, 127
2, 17370, Note_on_c, 3, 64, 127
2, 17393, Note_on_c, 3, 72, 0
2, 17393, Note_on_c, 3, 67, 0
2, 17393, Note_on_c, 3, 64, 0
2, 17400, Note_on_c, 3, 74, 127
2, 17400, Note_on_c, 3, 67, 127
2, 17400, Note_on_c, 3, 59, 127
2, 17423, Note_on_c, 3, 59, 0
2, 17430, Note_on_c, 3, 62, 127
2, 17447, Note_on_c, 3, 74, 0
2, 17447, Note_on_c, 3, 67, 0
2, 17453, Note_on_c, 3, 62, 0
2, 17460, Note_on_c, 3, 55, 127
2, 17483, Note_on_c, 3, 55, 0
2, 17490, Note_on_c, 3, 53, 127
2, 17513, Note_on_c, 3, 53, 0
2, 17520, Note_on_c, 3, 76, 127
2, 17520, Note_on_c, 3, 67, 127
2, 17520, Note_on_c, 3, 60, 127
2, 17520, Note_on_c, 3, 52, 127
2, 17543, Note_on_c, 3, 52, 0
2, 17550, Note_on_c, 3, 55, 127
2, 17573, Note_on_c, 3, 55, 0
2, 17580, Note_on_c, 3, 48, 127
2, 17590, Note_on_c, 3, 76, 0
2, 17590, Note_on_c, 3, 67, 0
2, 17590, Note_on_c, 3, 60, 0
2, 17603, Note_on_c, 3, 48, 0
2, 17610, Note_on_c, 3, 74, 127
2, 17610, Note_on_c, 3, 67, 127
2, 17610, Note_on_c, 3, 59, 127
2, 17610, Note_on_c, 3, 52, 127
2, 17633, Note_on_c, 3, 74, 0
2, 17633, Note_on_c, 3, 67, 0
2, 17633, Note_on_c, 3, 59, 0
2, 17633, Note_on_c, 3, 52, 0
2, 17640, Note_on_c, 3, 72, 127
2, 17640, Note_on_c, 3, 67, 127
2, 17640, Note_on_c, 3, 57, 127
2, 17640, Note_on_c, 3, 45, 127
2, 17663, Note_on_c, 3, 67, 0
2, 17663, Note_on_c, 3, 45, 0
2, 17670, Note_on_c, 3, 66, 127
2, 17670, Note_on_c, 3, 50, 127
2, 17687, Note_on_c, 3, 72, 0
2, 17687, Note_on_c, 3, 57, 0
2, 17693, Note_on_c, 3, 66, 0
2, 17693, Note_on_c, 3, 50, 0
2, 17700, Note_on_c, 3, 71, 127
2, 17700, Note_on_c, 3, 67, 127
2, 17700, Note_on_c, 3, 59, 127
2, 17700, Note_on_c, 3, 43, 127
2, 17723, Note_on_c, 3, 59, 0
2, 17730, Note_on_c, 3, 60, 127
2, 17747, Note_on_c, 3, 71, 0
2, 17747, Note_on_c, 3, 43, 0
2, 17753, Note_on_c, 3, 60, 0
2, 17760, Note_on_c, 3, 69, 127
2, 17760, Note_on_c, 3, 62, 127
2, 17760, Note_on_c, 3, 50, 127
2, 17777, Note_on_c, 3, 67, 0
2, 17790, Note_on_c, 3, 64, 127
2, 17807, Note_on_c, 3, 50, 0
2, 17813, Note_on_c, 3, 64, 0
2, 17820, Note_on_c, 3, 66, 127
2, 17820, Note_on_c, 3, 38, 127
2, 17830, Note_on_c, 3, 62, 0
2, 17850, Note_on_c, 3, 60, 127
2, 17855, Note_on_c, 3, 69, 0
2, 17867, Note_on_c, 3, 66, 0
2, 17867, Note_on_c, 3, 38, 0
2, 17873, Note_on_c, 3, 60, 0
2, 17880, Note_on_c, 3, 67, 127
2, 17880, Note_on_c, 3, 62, 127
2, 17880, Note_on_c, 3, 59, 127
2, 17880, Note_on_c, 3, 43, 127
2, 17927, Note_on_c, 3, 62, 0
2, 17927, Note_on_c, 3, 43, 0
2, 17950, Note_on_c, 3, 67, 0
2, 17950, Note_on_c, 3, 59, 0
2, 17970, Note_on_c, 3, 62, 127
2, 17970, Note_on_c, 3, 59, 127
2, 17993, Note_on_c, 3, 62, 0
2, 17993, Note_on_c, 3, 59, 0
2, 18000, Note_on_c, 3, 64, 127
2, 18000, Note_on_c, 3, 60, 127
2, 18023, Note_on_c, 3, 64, 0
2, 18030, Note_on_c, 3, 66, 127
2, 18042, Note_on_c, 3, 66, 0
2, 18045, Note_on_c, 3, 67, 127
2, 18047, Note_on_c, 3, 60, 0
2, 18057, Note_on_c, 3, 67, 0
2, 18060, Note_on_c, 3, 66, 127
2, 18060, Note_on_c, 3, 57, 127
2, 18083, Note_on_c, 3, 66, 0
2, 18090, Note_on_c, 3, 67, 127
2, 18102, Note_on_c, 3, 67, 0
2, 18105, Note_on_c, 3, 69, 127
2, 18107, Note_on_c, 3, 57, 0
2, 18117, Note_on_c, 3, 69, 0
2, 18120, Note_on_c, 3, 67, 127
2, 18120, Note_on_c, 3, 59, 127
2, 18143, Note_on_c, 3, 67, 0
2, 18150, Note_on_c, 3, 69, 127
2, 18162, Note_on_c, 3, 69, 0
2, 18165, Note_on_c, 3, 71, 127
2, 18167, Note_on_c, 3, 59, 0
2, 18177, Note_on_c, 3, 71, 0
2, 18180, Note_on_c, 3, 69, 127
2, 18180, Note_on_c, 3, 54, 127
2, 18203, Note_on_c, 3, 69, 0
2, 18210, Note_on_c, 3, 71, 127
2, 18222, Note_on_c, 3, 71, 0
2, 18225, Note_on_c, 3, 72, 127
2, 18227, Note_on_c, 3, 54, 0
2, 18237, Note_on_c, 3, 72, 0
2, 18240, Note_on_c, 3, 71, 127
2, 18240, Note_on_c, 3, 55, 127
2, 18263, Note_on_c, 3, 71, 0
2, 18270, Note_on_c, 3, 72, 127
2, 18282, Note_on_c, 3, 72, 0
2, 18285, Note_on_c, 3, 74, 127
2, 18287, Note_on_c, 3, 55, 0
2, 18297, Note_on_c, 3, 74, 0
2, 18300, Note_on_c, 3, 72, 127
2, 18300, Note_on_c, 3, 57, 127
2, 18323, Note_on_c, 3, 72, 0
2, 18330, Note_on_c, 3, 74, 127
2, 18342, Note_on_c, 3, 74, 0
2, 18345, Note_on_c, 3, 76, 127
2, 18347, Note_on_c, 3, 57, 0
2, 18357, Note_on_c, 3, 76, 0
2, 18360, Note_on_c, 3, 74, 127
2, 18360, Note_on_c, 3, 59, 127
2, 18360, Note_on_c, 3, 43, 127
2, 18390, Note_on_c, 3, 62, 127
2, 18407, Note_on_c, 3, 74, 0
2, 18413, Note_on_c, 3, 62, 0
2, 18419, Note_on_c, 3, 43, 0
2, 18420, Note_on_c, 3, 67, 127
2, 18430, Note_on_c, 3, 59, 0
2, 18450, Note_on_c, 3, 47, 127
2, 18467, Note_on_c, 3, 67, 0
2, 18473, Note_on_c, 3, 47, 0
2, 18480, Note_on_c, 3, 48, 127
2, 18510, Note_on_c, 3, 64, 127
2, 18533, Note_on_c, 3, 64, 0
2, 18540, Note_on_c, 3, 72, 127
2, 18540, Note_on_c, 3, 69, 127
2, 18550, Note_on_c, 3, 48, 0
2, 18563, Note_on_c, 3, 69, 0
2, 18570, Note_on_c, 3, 64, 127
2, 18570, Note_on_c, 3, 45, 127
2, 18593, Note_on_c, 3, 64, 0
2, 18593, Note_on_c, 3, 45, 0
2, 18600, Note_on_c, 3, 66, 127
2, 18600, Note_on_c, 3, 50, 127
2, 18630, Note_on_c, 3, 57, 127
2, 18641, Note_on_c, 3, 72, 0
2, 18647, Note_on_c, 3, 66, 0
2, 18647, Note_on_c, 3, 50, 0
2, 18653, Note_on_c, 3, 57, 0
2, 18660, Note_on_c, 3, 71, 127
2, 18660, Note_on_c, 3, 67, 127
2, 18660, Note_on_c, 3, 59, 127
2, 18683, Note_on_c, 3, 59, 0
2, 18690, Note_on_c, 3, 55, 127
2, 18707, Note_on_c, 3, 71, 0
2, 18713, Note_on_c, 3, 55, 0
2, 18720, Note_on_c, 3, 69, 127
2, 18720, Note_on_c, 3, 62, 127
2, 18737, Note_on_c, 3, 67, 0
2, 18750, Note_on_c, 3, 64, 127
2, 18773, Note_on_c, 3, 64, 0
2, 18780, Note_on_c, 3, 66, 127
2, 18780, Note_on_c, 3, 50, 127
2, 18790, Note_on_c, 3, 62, 0
2, 18810, Note_on_c, 3, 60, 127
2, 18815, Note_on_c, 3, 69, 0
2, 18827, Note_on_c, 3, 66, 0
2, 18827, Note_on_c, 3, 50, 0
2, 18833, Note_on_c, 3, 60, 0
2, 18840, Note_on_c, 3, 67, 127
2, 18840, Note_on_c, 3, 62, 127
2, 18840, Note_on_c, 3, 59, 127
2, 18840, Note_on_c, 3, 55, 127
2, 18840, Note_on_c, 3, 43, 127
2, 18863, Note_on_c, 3, 55, 0
2, 18870, Note_on_c, 3, 50, 127
2, 18887, Note_on_c, 3, 67, 0
2, 18887, Note_on_c, 3, 62, 0
2, 18887, Note_on_c, 3, 59, 0
2, 18893, Note_on_c, 3, 50, 0
2, 18899, Note_on_c, 3, 43, 0
2, 18900, Note_on_c, 3, 43, 127
2, 18923, Note_on_c, 3, 43, 0
2, 18930, Note_on_c, 3, 71, 127
2, 18930, Note_on_c, 3, 66, 127
2, 18930, Note_on_c, 3, 50, 127
2, 18953, Note_on_c, 3, 71, 0
2, 18953, Note_on_c, 3, 66, 0
2, 18953, Note_on_c, 3, 50, 0
2, 18960, Note_on_c, 3, 72, 127
2, 18960, Note_on_c, 3, 67, 127
2, 18960, Note_on_c, 3, 52, 127
2, 18983, Note_on_c, 3, 52, 0
2, 18990, Note_on_c, 3, 54, 127
2, 19002, Note_on_c, 3, 54, 0
2, 19005, Note_on_c, 3, 55, 127
2, 19007, Note_on_c, 3, 72, 0
2, 19007, Note_on_c, 3, 67, 0
2, 19017, Note_on_c, 3, 55, 0
2, 19020, Note_on_c, 3, 69, 127
2, 19020, Note_on_c, 3, 62, 127
2, 19020, Note_on_c, 3, 54, 127
2, 19043, Note_on_c, 3, 54, 0
2, 19050, Note_on_c, 3, 55, 127
2, 19062, Note_on_c, 3, 55, 0
2, 19065, Note_on_c, 3, 57, 127
2, 19067, Note_on_c, 3, 69, 0
2, 19067, Note_on_c, 3, 62, 0
2, 19077, Note_on_c, 3, 57, 0
2, 19080, Note_on_c, 3, 71, 127
2, 19080, Note_on_c, 3, 62, 127
2, 19080, Note_on_c, 3, 55, 127
2, 19103, Note_on_c, 3, 55, 0
2, 19110, Note_on_c, 3, 57, 127
2, 19122, Note_on_c, 3, 57, 0
2, 19125, Note_on_c, 3, 59, 127
2, 19127, Note_on_c, 3, 71, 0
2, 19127, Note_on_c, 3, 62, 0
2, 19137, Note_on_c, 3, 59, 0
2, 19140, Note_on_c, 3, 66, 127
2, 19140, Note_on_c, 3, 60, 127
2, 19140, Note_on_c, 3, 57, 127
2, 19163, Note_on_c, 3, 57, 0
2, 19170, Note_on_c, 3, 59, 127
2, 19182, Note_on_c, 3, 59, 0
2, 19185, Note_on_c, 3, 60, 127
2, 19187, Note_on_c, 3, 66, 0
2, 19187, Note_on_c, 3, 60, 0
2, 19197, Note_on_c, 3, 60, 0
2, 19200, Note_on_c, 3, 67, 127
2, 19200, Note_on_c, 3, 62, 127
2, 19200, Note_on_c, 3, 59, 127
2, 19223, Note_on_c, 3, 59, 0
2, 19230, Note_on_c, 3, 60, 127
2, 19242, Note_on_c, 3, 60, 0
2, 19245, Note_on_c, 3, 62, 127
2, 19247, Note_on_c, 3, 67, 0
2, 19247, Note_on_c, 3, 62, 0
2, 19257, Note_on_c, 3, 62, 0
2, 19260, Note_on_c, 3, 69, 127
2, 19260, Note_on_c, 3, 66, 127
2, 19260, Note_on_c, 3, 60, 127
2, 19283, Note_on_c, 3, 60, 0
2, 19290, Note_on_c, 3, 62, 127
2, 19302, Note_on_c, 3, 62, 0
2, 19305, Note_on_c, 3, 64, 127
2, 19307, Note_on_c, 3, 69, 0
2, 19307, Note_on_c, 3, 66, 0
2, 19317, Note_on_c, 3, 64, 0
2, 19320, Note_on_c, 3, 71, 127
2, 19320, Note_on_c, 3, 67, 127
2, 19320, Note_on_c, 3, 62, 127
2, 19320, Note_on_c, 3, 43, 127
2, 19343, Note_on_c, 3, 71, 0
2, 19350, Note_on_c, 3, 74, 127
2, 19367, Note_on_c, 3, 67, 0
2, 19367, Note_on_c, 3, 62, 0
2, 19373, Note_on_c, 3, 74, 0
2, 19380, Note_on_c, 3, 79, 127
2, 19383, Note_on_c, 3, 43, 0
2, 19410, Note_on_c, 3, 71, 127
2, 19427, Note_on_c, 3, 79, 0
2, 19433, Note_on_c, 3, 71, 0
2, 19440, Note_on_c, 3, 72, 127
2, 19470, Note_on_c, 3, 76, 127
2, 19493, Note_on_c, 3, 76, 0
2, 19500, Note_on_c, 3, 81, 127
2, 19500, Note_on_c, 3, 60, 127
2, 19510, Note_on_c, 3, 72, 0
2, 19523, Note_on_c, 3, 81, 0
2, 19530, Note_on_c, 3, 76, 127
2, 19530, Note_on_c, 3, 69, 127
2, 19547, Note_on_c, 3, 60, 0
2, 19553, Note_on_c, 3, 76, 0
2, 19553, Note_on_c, 3, 69, 0
2, 19560, Note_on_c, 3, 74, 127
2, 19560, Note_on_c, 3, 78, 127
2, 19560, Note_on_c, 3, 60, 127
2, 19590, Note_on_c, 3, 69, 127
2, 19607, Note_on_c, 3, 74, 0
2, 19607, Note_on_c, 3, 78, 0
2, 19607, Note_on_c, 3, 60, 0
2, 19613, Note_on_c, 3, 69, 0
2, 19620, Note_on_c, 3, 74, 127
2, 19620, Note_on_c, 3, 79, 127
2, 19620, Note_on_c, 3, 71, 127
2, 19620, Note_on_c, 3, 59, 127
2, 19643, Note_on_c, 3, 71, 0
2, 19650, Note_on_c, 3, 67, 127
2, 19667, Note_on_c, 3, 74, 0
2, 19667, Note_on_c, 3, 79, 0
2, 19667, Note_on_c, 3, 59, 0
2, 19673, Note_on_c, 3, 67, 0
2, 19680, Note_on_c, 3, 69, 127
2, 19680, Note_on_c, 3, 72, 127
2, 19680, Note_on_c, 3, 57, 127
2, 19710, Note_on_c, 3, 76, 127
2, 19727, Note_on_c, 3, 69, 0
2, 19727, Note_on_c, 3, 57, 0
2, 19733, Note_on_c, 3, 76, 0
2, 19740, Note_on_c, 3, 78, 127
2, 19740, Note_on_c, 3, 69, 127
2, 19740, Note_on_c, 3, 62, 127
2, 19757, Note_on_c, 3, 72, 0
2, 19770, Note_on_c, 3, 72, 127
2, 19787, Note_on_c, 3, 62, 0
2, 19790, Note_on_c, 3, 78, 0
2, 19790, Note_on_c, 3, 69, 0
2, 19793, Note_on_c, 3, 72, 0
2, 19800, Note_on_c, 3, 74, 127
2, 19800, Note_on_c, 3, 79, 127
2, 19800, Note_on_c, 3, 71, 127
2, 19800, Note_on_c, 3, 55, 127
2, 19800, Note_on_c, 3, 43, 127
2, 19823, Note_on_c, 3, 55, 0
2, 19830, Note_on_c, 3, 62, 127
2, 19847, Note_on_c, 3, 74, 0
2, 19847, Note_on_c, 3, 79, 0
2, 19847, Note_on_c, 3, 71, 0
2, 19853, Note_on_c, 3, 62, 0
2, 19860, Note_on_c, 3, 67, 127
2, 19868, Note_on_c, 3, 43, 0
2, 19883, Note_on_c, 3, 67, 0
2, 19890, Note_on_c, 3, 72, 127
2, 19913, Note_on_c, 3, 72, 0
2, 19920, Note_on_c, 3, 71, 127
2, 19943, Note_on_c, 3, 71, 0
2, 19950, Note_on_c, 3, 74, 127
2, 19973, Note_on_c, 3, 74, 0
2, 19980, Note_on_c, 3, 67, 127
2, 20003, Note_on_c, 3, 67, 0
2, 20010, Note_on_c, 3, 71, 127
2, 20033, Note_on_c, 3, 71, 0
2, 20040, Note_on_c, 3, 66, 127
2, 20063, Note_on_c, 3, 66, 0
2, 20070, Note_on_c, 3, 69, 127
2, 20093, Note_on_c, 3, 69, 0
2, 20100, Note_on_c, 3, 62, 127
2, 20123, Note_on_c, 3, 62, 0
2, 20130, Note_on_c, 3, 60, 127
2, 20153, Note_on_c, 3, 60, 0
2, 20160, Note_on_c, 3, 67, 127
2, 20160, Note_on_c, 3, 62, 127
2, 20160, Note_on_c, 3, 59, 127
2, 20183, Note_on_c, 3, 59, 0
2, 20190, Note_on_c, 3, 62, 127
2, 20210, Note_on_c, 3, 62, 0
2, 20220, Note_on_c, 3, 55, 127
2, 20230, Note_on_c, 3, 67, 0
2, 20233, Note_on_c, 3, 62, 0
2, 20243, Note_on_c, 3, 55, 0
2, 20250, Note_on_c, 3, 67, 127
2, 20250, Note_on_c, 3, 62, 127
2, 20250, Note_on_c, 3, 59, 127
2, 20273, Note_on_c, 3, 67, 0
2, 20273, Note_on_c, 3, 62, 0
2, 20273, Note_on_c, 3, 59, 0
2, 20280, Note_on_c, 3, 69, 127
2, 20280, Note_on_c, 3, 62, 127
2, 20280, Note_on_c, 3, 54, 127
2, 20303, Note_on_c, 3, 54, 0
2, 20310, Note_on_c, 3, 57, 127
2, 20327, Note_on_c, 3, 69, 0
2, 20327, Note_on_c, 3, 62, 0
2, 20333, Note_on_c, 3, 57, 0
2, 20340, Note_on_c, 3, 50, 127
2, 20363, Note_on_c, 3, 50, 0
2, 20370, Note_on_c, 3, 60, 127
2, 20393, Note_on_c, 3, 60, 0
2, 20400, Note_on_c, 3, 71, 127
2, 20400, Note_on_c, 3, 62, 127
2, 20400, Note_on_c, 3, 55, 127
2, 20400, Note_on_c, 3, 59, 127
2, 20423, Note_on_c, 3, 59, 0
2, 20430, Note_on_c, 3, 62, 127
2, 20450, Note_on_c, 3, 62, 0
2, 20460, Note_on_c, 3, 55, 127
2, 20470, Note_on_c, 3, 71, 0
2, 20470, Note_on_c, 3, 55, 0
2, 20473, Note_on_c, 3, 62, 0
2, 20483, Note_on_c, 3, 55, 0
2, 20490, Note_on_c, 3, 71, 127
2, 20490, Note_on_c, 3, 62, 127
2, 20490, Note_on_c, 3, 55, 127
2, 20490, Note_on_c, 3, 59, 127
2, 20513, Note_on_c, 3, 71, 0
2, 20513, Note_on_c, 3, 62, 0
2, 20513, Note_on_c, 3, 55, 0
2, 20513, Note_on_c, 3, 59, 0
2, 20520, Note_on_c, 3, 72, 127
2, 20520, Note_on_c, 3, 64, 127
2, 20520, Note_on_c, 3, 55, 127
2, 20520, Note_on_c, 3, 52, 127
2, 20567, Note_on_c, 3, 72, 0
2, 20567, Note_on_c, 3, 64, 0
2, 20567, Note_on_c, 3, 55, 0
2, 20567, Note_on_c, 3, 52, 0
2, 20580, Note_on_c, 3, 74, 127
2, 20580, Note_on_c, 3, 64, 127
2, 20580, Note_on_c, 3, 55, 127
2, 20580, Note_on_c, 3, 48, 127
2, 20603, Note_on_c, 3, 74, 0
2, 20610, Note_on_c, 3, 76, 127
2, 20627, Note_on_c, 3, 64, 0
2, 20627, Note_on_c, 3, 55, 0
2, 20627, Note_on_c, 3, 48, 0
2, 20633, Note_on_c, 3, 76, 0
2, 20640, Note_on_c, 3, 71, 127
2, 20640, Note_on_c, 3, 62, 127
2, 20640, Note_on_c, 3, 55, 127
2, 20640, Note_on_c, 3, 50, 127
2, 20687, Note_on_c, 3, 71, 0
2, 20687, Note_on_c, 3, 62, 0
2, 20687, Note_on_c, 3, 55, 0
2, 20687, Note_on_c, 3, 50, 0
2, 20700, Note_on_c, 3, 69, 127
2, 20700, Note_on_c, 3, 60, 127
2, 20700, Note_on_c, 3, 54, 127
2, 20700, Note_on_c, 3, 38, 127
2, 20723, Note_on_c, 3, 69, 0
2, 20730, Note_on_c, 3, 67, 127
2, 20747, Note_on_c, 3, 60, 0
2, 20747, Note_on_c, 3, 54, 0
2, 20747, Note_on_c, 3, 38, 0
2, 20753, Note_on_c, 3, 67, 0
2, 20760, Note_on_c, 3, 67, 127
2, 20760, Note_on_c, 3, 59, 127
2, 20760, Note_on_c, 3, 55, 127
2, 20760, Note_on_c, 3, 43, 127
2, 20807, Note_on_c, 3, 67, 0
2, 20807, Note_on_c, 3, 59, 0
2, 20807, Note_on_c, 3, 55, 0
2, 20807, Note_on_c, 3, 43, 0
2, 20850, Note_on_c, 3, 72, 127
2, 20873, Note_on_c, 3, 72, 0
2, 20880, Note_on_c, 3, 71, 127
2, 20903, Note_on_c, 3, 71, 0
2, 20910, Note_on_c, 3, 74, 127
2, 20933, Note_on_c, 3, 74, 0
2, 20940, Note_on_c, 3, 67, 127
2, 20963, Note_on_c, 3, 67, 0
2, 20970, Note_on_c, 3, 71, 127
2, 20993, Note_on_c, 3, 71, 0
2, 21000, Note_on_c, 3, 66, 127
2, 21023, Note_on_c, 3, 66, 0
2, 21030, Note_on_c, 3, 69, 127
2, 21053, Note_on_c, 3, 69, 0
2, 21060, Note_on_c, 3, 62, 127
2, 21083, Note_on_c, 3, 62, 0
2, 21090, Note_on_c, 3, 60, 127
2, 21113, Note_on_c, 3, 60, 0
2, 21120, Note_on_c, 3, 67, 127
2, 21120, Note_on_c, 3, 62, 127
2, 21120, Note_on_c, 3, 59, 127
2, 21143, Note_on_c, 3, 59, 0
2, 21150, Note_on_c, 3, 62, 127
2, 21170, Note_on_c, 3, 62, 0
2, 21180, Note_on_c, 3, 55, 127
2, 21190, Note_on_c, 3, 67, 0
2, 21193, Note_on_c, 3, 62, 0
2, 21203, Note_on_c, 3, 55, 0
2, 21210, Note_on_c, 3, 67, 127
2, 21210, Note_on_c, 3, 62, 127
2, 21210, Note_on_c, 3, 59, 127
2, 21233, Note_on_c, 3, 67, 0
2, 21233, Note_on_c, 3, 62, 0
2, 21233, Note_on_c, 3, 59, 0
2, 21240, Note_on_c, 3, 69, 127
2, 21240, Note_on_c, 3, 62, 127
2, 21240, Note_on_c, 3, 54, 127
2, 21263, Note_on_c, 3, 54, 0
2, 21270, Note_on_c, 3, 57, 127
2, 21287, Note_on_c, 3, 69, 0
2, 21287, Note_on_c, 3, 62, 0
2, 21293, Note_on_c, 3, 57, 0
2, 21300, Note_on_c, 3, 50, 127
2, 21323, Note_on_c, 3, 50, 0
2, 21330, Note_on_c, 3, 48, 127
2, 21353, Note_on_c, 3, 48, 0
2, 21360, Note_on_c, 3, 71, 127
2, 21360, Note_on_c, 3, 62, 127
2, 21360, Note_on_c, 3, 55, 127
2, 21360, Note_on_c, 3, 47, 127
2, 21383, Note_on_c, 3, 47, 0
2, 21390, Note_on_c, 3, 50, 127
2, 21407, Note_on_c, 3, 71, 0
2, 21407, Note_on_c, 3, 62, 0
2, 21407, Note_on_c, 3, 55, 0
2, 21413, Note_on_c, 3, 50, 0
2, 21420, Note_on_c, 3, 43, 127
2, 21443, Note_on_c, 3, 43, 0
2, 21450, Note_on_c, 3, 47, 127
2, 21473, Note_on_c, 3, 47, 0
2, 21480, Note_on_c, 3, 40, 127
2, 21527, Note_on_c, 3, 40, 0
2, 21540, Note_on_c, 3, 67, 127
2, 21540, Note_on_c, 3, 71, 127
2, 21540, Note_on_c, 3, 64, 127
2, 21540, Note_on_c, 3, 59, 127
2, 21540, Note_on_c, 3, 52, 127
2, 21587, Note_on_c, 3, 67, 0
2, 21587, Note_on_c, 3, 71, 0
2, 21587, Note_on_c, 3, 64, 0
2, 21587, Note_on_c, 3, 59, 0
2, 21587, Note_on_c, 3, 52, 0
2, 21600, Note_on_c, 3, 67, 127
2, 21600, Note_on_c, 3, 76, 127
2, 21600, Note_on_c, 3, 64, 127
2, 21600, Note_on_c, 3, 57, 127
2, 21600, Note_on_c, 3, 49, 127
2, 21614, Note_on_c, 3, 49, 0
2, 21615, Note_on_c, 3, 52, 127
2, 21629, Note_on_c, 3, 52, 0
2, 21630, Note_on_c, 3, 49, 127
2, 21644, Note_on_c, 3, 49, 0
2, 21645, Note_on_c, 3, 52, 127
2, 21659, Note_on_c, 3, 52, 0
2, 21660, Note_on_c, 3, 49, 127
2, 21670, Note_on_c, 3, 67, 0
2, 21670, Note_on_c, 3, 76, 0
2, 21670, Note_on_c, 3, 64, 0
2, 21670, Note_on_c, 3, 57, 0
2, 21674, Note_on_c, 3, 49, 0
2, 21675, Note_on_c, 3, 52, 127
2, 21689, Note_on_c, 3, 52, 0
2, 21690, Note_on_c, 3, 67, 127
2, 21690, Note_on_c, 3, 76, 127
2, 21690, Note_on_c, 3, 64, 127
2, 21690, Note_on_c, 3, 57, 127
2, 21690, Note_on_c, 3, 49, 127
2, 21713, Note_on_c, 3, 67, 0
2, 21713, Note_on_c, 3, 76, 0
2, 21713, Note_on_c, 3, 64, 0
2, 21713, Note_on_c, 3, 57, 0
2, 21713, Note_on_c, 3, 49, 0
2, 21720, Note_on_c, 3, 65, 127
2, 21720, Note_on_c, 3, 69, 127
2, 21720, Note_on_c, 3, 62, 127
2, 21720, Note_on_c, 3, 57, 127
2, 21720, Note_on_c, 3, 50, 127
2, 21767, Note_on_c, 3, 65, 0
2, 21767, Note_on_c, 3, 69, 0
2, 21767, Note_on_c, 3, 62, 0
2, 21767, Note_on_c, 3, 57, 0
2, 21767, Note_on_c, 3, 50, 0
2, 21780, Note_on_c, 3, 38, 127
2, 21810, Note_on_c, 3, 79, 127
2, 21833, Note_on_c, 3, 79, 0
2, 21839, Note_on_c, 3, 38, 0
2, 21840, Note_on_c, 3, 77, 127
2, 21863, Note_on_c, 3, 77, 0
2, 21870, Note_on_c, 3, 81, 127
2, 21893, Note_on_c, 3, 81, 0
2, 21900, Note_on_c, 3, 74, 127
2, 21923, Note_on_c, 3, 74, 0
2, 21930, Note_on_c, 3, 77, 127
2, 21953, Note_on_c, 3, 77, 0
2, 21960, Note_on_c, 3, 73, 127
2, 21983, Note_on_c, 3, 73, 0
2, 21990, Note_on_c, 3, 76, 127
2, 22013, Note_on_c, 3, 76, 0
2, 22020, Note_on_c, 3, 69, 127
2, 22043, Note_on_c, 3, 69, 0
2, 22050, Note_on_c, 3, 67, 127
2, 22073, Note_on_c, 3, 67, 0
2, 22080, Note_on_c, 3, 74, 127
2, 22080, Note_on_c, 3, 69, 127
2, 22080, Note_on_c, 3, 65, 127
2, 22103, Note_on_c, 3, 65, 0
2, 22110, Note_on_c, 3, 69, 127
2, 22130, Note_on_c, 3, 69, 0
2, 22140, Note_on_c, 3, 62, 127
2, 22150, Note_on_c, 3, 74, 0
2, 22153, Note_on_c, 3, 69, 0
2, 22163, Note_on_c, 3, 62, 0
2, 22170, Note_on_c, 3, 74, 127
2, 22170, Note_on_c, 3, 69, 127
2, 22170, Note_on_c, 3, 65, 127
2, 22193, Note_on_c, 3, 74, 0
2, 22193, Note_on_c, 3, 69, 0
2, 22193, Note_on_c, 3, 65, 0
2, 22200, Note_on_c, 3, 76, 127
2, 22200, Note_on_c, 3, 69, 127
2, 22200, Note_on_c, 3, 61, 127
2, 22223, Note_on_c, 3, 61, 0
2, 22230, Note_on_c, 3, 64, 127
2, 22247, Note_on_c, 3, 76, 0
2, 22247, Note_on_c, 3, 69, 0
2, 22253, Note_on_c, 3, 64, 0
2, 22260, Note_on_c, 3, 57, 127
2, 22283, Note_on_c, 3, 57, 0
2, 22290, Note_on_c, 3, 55, 127
2, 22313, Note_on_c, 3, 55, 0
2, 22320, Note_on_c, 3, 77, 127
2, 22320, Note_on_c, 3, 69, 127
2, 22320, Note_on_c, 3, 62, 127
2, 22320, Note_on_c, 3, 53, 127
2, 22343, Note_on_c, 3, 53, 0
2, 22350, Note_on_c, 3, 57, 127
2, 22367, Note_on_c, 3, 77, 0
2, 22367, Note_on_c, 3, 69, 0
2, 22367, Note_on_c, 3, 62, 0
2, 22373, Note_on_c, 3, 57, 0
2, 22380, Note_on_c, 3, 50, 127
2, 22403, Note_on_c, 3, 50, 0
2, 22410, Note_on_c, 3, 53, 127
2, 22433, Note_on_c, 3, 53, 0
2, 22440, Note_on_c, 3, 46, 127
2, 22487, Note_on_c, 3, 46, 0
2, 22500, Note_on_c, 3, 77, 127
2, 22500, Note_on_c, 3, 70, 127
2, 22500, Note_on_c, 3, 74, 127
2, 22500, Note_on_c, 3, 62, 127
2, 22500, Note_on_c, 3, 58, 127
2, 22547, Note_on_c, 3, 77, 0
2, 22547, Note_on_c, 3, 70, 0
2, 22547, Note_on_c, 3, 74, 0
2, 22547, Note_on_c, 3, 62, 0
2, 22547, Note_on_c, 3, 58, 0
2, 22560, Note_on_c, 3, 76, 127
2, 22560, Note_on_c, 3, 71, 127
2, 22560, Note_on_c, 3, 74, 127
2, 22560, Note_on_c, 3, 64, 127
2, 22560, Note_on_c, 3, 56, 127
2, 22574, Note_on_c, 3, 56, 0
2, 22575, Note_on_c, 3, 59, 127
2, 22589, Note_on_c, 3, 59, 0
2, 22590, Note_on_c, 3, 56, 127
2, 22604, Note_on_c, 3, 56, 0
2, 22605, Note_on_c, 3, 59, 127
2, 22607, Note_on_c, 3, 76, 0
2, 22619, Note_on_c, 3, 59, 0
2, 22620, Note_on_c, 3, 83, 127
2, 22620, Note_on_c, 3, 56, 127
2, 22630, Note_on_c, 3, 71, 0
2, 22630, Note_on_c, 3, 74, 0
2, 22630, Note_on_c, 3, 64, 0
2, 22634, Note_on_c, 3, 56, 0
2, 22635, Note_on_c, 3, 59, 127
2, 22643, Note_on_c, 3, 83, 0
2, 22649, Note_on_c, 3, 59, 0
2, 22650, Note_on_c, 3, 76, 127
2, 22650, Note_on_c, 3, 71, 127
2, 22650, Note_on_c, 3, 74, 127
2, 22650, Note_on_c, 3, 64, 127
2, 22650, Note_on_c, 3, 56, 127
2, 22673, Note_on_c, 3, 76, 0
2, 22673, Note_on_c, 3, 71, 0
2, 22673, Note_on_c, 3, 74, 0
2, 22673, Note_on_c, 3, 64, 0
2, 22673, Note_on_c, 3, 56, 0
2, 22680, Note_on_c, 3, 72, 127
2, 22680, Note_on_c, 3, 76, 127
2, 22680, Note_on_c, 3, 69, 127
2, 22680, Note_on_c, 3, 64, 127
2, 22680, Note_on_c, 3, 57, 127
2, 22727, Note_on_c, 3, 72, 0
2, 22727, Note_on_c, 3, 76, 0
2, 22727, Note_on_c, 3, 69, 0
2, 22727, Note_on_c, 3, 64, 0
2, 22727, Note_on_c, 3, 57, 0
2, 22740, Note_on_c, 3, 45, 127
2, 22770, Note_on_c, 3, 74, 127
2, 22793, Note_on_c, 3, 74, 0
2, 22794, Note_on_c, 3, 45, 0
2, 22800, Note_on_c, 3, 72, 127
2, 22823, Note_on_c, 3, 72, 0
2, 22830, Note_on_c, 3, 76, 127
2, 22853, Note_on_c, 3, 76, 0
2, 22860, Note_on_c, 3, 69, 127
2, 22883, Note_on_c, 3, 69, 0
2, 22890, Note_on_c, 3, 72, 127
2, 22913, Note_on_c, 3, 72, 0
2, 22920, Note_on_c, 3, 68, 127
2, 22943, Note_on_c, 3, 68, 0
2, 22950, Note_on_c, 3, 71, 127
2, 22973, Note_on_c, 3, 71, 0
2, 22980, Note_on_c, 3, 64, 127
2, 23003, Note_on_c, 3, 64, 0
2, 23010, Note_on_c, 3, 62, 127
2, 23033, Note_on_c, 3, 62, 0
2, 23040, Note_on_c, 3, 69, 127
2, 23040, Note_on_c, 3, 64, 127
2, 23040, Note_on_c, 3, 60, 127
2, 23063, Note_on_c, 3, 60, 0
2, 23070, Note_on_c, 3, 64, 127
2, 23090, Note_on_c, 3, 64, 0
2, 23100, Note_on_c, 3, 57, 127
2, 23110, Note_on_c, 3, 69, 0
2, 23113, Note_on_c, 3, 64, 0
2, 23123, Note_on_c, 3, 57, 0
2, 23130, Note_on_c, 3, 69, 127
2, 23130, Note_on_c, 3, 64, 127
2, 23130, Note_on_c, 3, 60, 127
2, 23153, Note_on_c, 3, 69, 0
2, 23153, Note_on_c, 3, 64, 0
2, 23153, Note_on_c, 3, 60, 0
2, 23160, Note_on_c, 3, 71, 127
2, 23160, Note_on_c, 3, 64, 127
2, 23160, Note_on_c, 3, 56, 127
2, 23183, Note_on_c, 3, 56, 0
2, 23190, Note_on_c, 3, 59, 127
2, 23207, Note_on_c, 3, 71, 0
2, 23207, Note_on_c, 3, 64, 0
2, 23213, Note_on_c, 3, 59, 0
2, 23220, Note_on_c, 3, 52, 127
2, 23243, Note_on_c, 3, 52, 0
2, 23250, Note_on_c, 3, 50, 127
2, 23273, Note_on_c, 3, 50, 0
2, 23280, Note_on_c, 3, 72, 127
2, 23280, Note_on_c, 3, 64, 127
2, 23280, Note_on_c, 3, 57, 127
2, 23280, Note_on_c, 3, 48, 127
2, 23303, Note_on_c, 3, 48, 0
2, 23310, Note_on_c, 3, 52, 127
2, 23327, Note_on_c, 3, 72, 0
2, 23327, Note_on_c, 3, 64, 0
2, 23327, Note_on_c, 3, 57, 0
2, 23333, Note_on_c, 3, 52, 0
2, 23340, Note_on_c, 3, 45, 127
2, 23363, Note_on_c, 3, 45, 0
2, 23370, Note_on_c, 3, 48, 127
2, 23393, Note_on_c, 3, 48, 0
2, 23400, Note_on_c, 3, 41, 127
2, 23447, Note_on_c, 3, 41, 0
2, 23460, Note_on_c, 3, 69, 127
2, 23460, Note_on_c, 3, 72, 127
2, 23460, Note_on_c, 3, 65, 127
2, 23460, Note_on_c, 3, 57, 127
2, 23460, Note_on_c, 3, 53, 127
2, 23507, Note_on_c, 3, 69, 0
2, 23507, Note_on_c, 3, 72, 0
2, 23507, Note_on_c, 3, 65, 0
2, 23507, Note_on_c, 3, 57, 0
2, 23507, Note_on_c, 3, 53, 0
2, 23520, Note_on_c, 3, 71, 127
2, 23520, Note_on_c, 3, 66, 127
2, 23520, Note_on_c, 3, 69, 127
2, 23520, Note_on_c, 3, 59, 127
2, 23520, Note_on_c, 3, 51, 127
2, 23534, Note_on_c, 3, 51, 0
2, 23535, Note_on_c, 3, 54, 127
2, 23549, Note_on_c, 3, 54, 0
2, 23550, Note_on_c, 3, 51, 127
2, 23564, Note_on_c, 3, 51, 0
2, 23565, Note_on_c, 3, 54, 127
2, 23567, Note_on_c, 3, 71, 0
2, 23579, Note_on_c, 3, 54, 0
2, 23580, Note_on_c, 3, 78, 127
2, 23580, Note_on_c, 3, 51, 127
2, 23590, Note_on_c, 3, 66, 0
2, 23590, Note_on_c, 3, 69, 0
2, 23590, Note_on_c, 3, 59, 0
2, 23594, Note_on_c, 3, 51, 0
2, 23595, Note_on_c, 3, 54, 127
2, 23603, Note_on_c, 3, 78, 0
2, 23609, Note_on_c, 3, 54, 0
2, 23610, Note_on_c, 3, 71, 127
2, 23610, Note_on_c, 3, 66, 127
2, 23610, Note_on_c, 3, 69, 127
2, 23610, Note_on_c, 3, 59, 127
2, 23610, Note_on_c, 3, 51, 127
2, 23633, Note_on_c, 3, 71, 0
2, 23633, Note_on_c, 3, 66, 0
2, 23633, Note_on_c, 3, 69, 0
2, 23633, Note_on_c, 3, 59, 0
2, 23633, Note_on_c, 3, 51, 0
2, 23640, Note_on_c, 3, 68, 127
2, 23640, Note_on_c, 3, 71, 127
2, 23640, Note_on_c, 3, 64, 127
2, 23640, Note_on_c, 3, 59, 127
2, 23640, Note_on_c, 3, 52, 127
2, 23687, Note_on_c, 3, 68, 0
2, 23687, Note_on_c, 3, 71, 0
2, 23687, Note_on_c, 3, 64, 0
2, 23687, Note_on_c, 3, 59, 0
2, 23687, Note_on_c, 3, 52, 0
2, 23700, Note_on_c, 3, 40, 127
2, 23730, Note_on_c, 3, 64, 127
2, 23730, Note_on_c, 3, 60, 127
2, 23753, Note_on_c, 3, 64, 0
2, 23753, Note_on_c, 3, 60, 0
2, 23759, Note_on_c, 3, 40, 0
2, 23760, Note_on_c, 3, 66, 127
2, 23760, Note_on_c, 3, 62, 127
2, 23783, Note_on_c, 3, 66, 0
2, 23790, Note_on_c, 3, 68, 127
2, 23802, Note_on_c, 3, 68, 0
2, 23805, Note_on_c, 3, 69, 127
2, 23807, Note_on_c, 3, 62, 0
2, 23817, Note_on_c, 3, 69, 0
2, 23820, Note_on_c, 3, 68, 127
2, 23820, Note_on_c, 3, 59, 127
2, 23843, Note_on_c, 3, 68, 0
2, 23850, Note_on_c, 3, 69, 127
2, 23862, Note_on_c, 3, 69, 0
2, 23865, Note_on_c, 3, 71, 127
2, 23867, Note_on_c, 3, 59, 0
2, 23877, Note_on_c, 3, 71, 0
2, 23880, Note_on_c, 3, 69, 127
2, 23880, Note_on_c, 3, 60, 127
2, 23903, Note_on_c, 3, 69, 0
2, 23910, Note_on_c, 3, 71, 127
2, 23922, Note_on_c, 3, 71, 0
2, 23925, Note_on_c, 3, 72, 127
2, 23927, Note_on_c, 3, 60, 0
2, 23937, Note_on_c, 3, 72, 0
2, 23940, Note_on_c, 3, 71, 127
2, 23940, Note_on_c, 3, 56, 127
2, 23963, Note_on_c, 3, 71, 0
2, 23970, Note_on_c, 3, 72, 127
2, 23982, Note_on_c, 3, 72, 0
2, 23985, Note_on_c, 3, 74, 127
2, 23987, Note_on_c, 3, 56, 0
2, 23997, Note_on_c, 3, 74, 0
2, 24000, Note_on_c, 3, 72, 127
2, 24000, Note_on_c, 3, 57, 127
2, 24023, Note_on_c, 3, 72, 0
2, 24030, Note_on_c, 3, 74, 127
2, 24042, Note_on_c, 3, 74, 0
2, 24045, Note_on_c, 3, 76, 127
2, 24047, Note_on_c, 3, 57, 0
2, 24057, Note_on_c, 3, 76, 0
2, 24060, Note_on_c, 3, 74, 127
2, 24060, Note_on_c, 3, 59, 127
2, 24083, Note_on_c, 3, 74, 0
2, 24090, Note_on_c, 3, 76, 127
2, 24102, Note_on_c, 3, 76, 0
2, 24105, Note_on_c, 3, 77, 127
2, 24107, Note_on_c, 3, 59, 0
2, 24117, Note_on_c, 3, 77, 0
2, 24120, Note_on_c, 3, 76, 127
2, 24120, Note_on_c, 3, 60, 127
2, 24120, Note_on_c, 3, 45, 127
2, 24150, Note_on_c, 3, 64, 127
2, 24167, Note_on_c, 3, 76, 0
2, 24173, Note_on_c, 3, 64, 0
2, 24179, Note_on_c, 3, 45, 0
2, 24180, Note_on_c, 3, 69, 127
2, 24190, Note_on_c, 3, 60, 0
2, 24210, Note_on_c, 3, 48, 127
2, 24227, Note_on_c, 3, 69, 0
2, 24233, Note_on_c, 3, 48, 0
2, 24240, Note_on_c, 3, 50, 127
2, 24270, Note_on_c, 3, 66, 127
2, 24293, Note_on_c, 3, 66, 0
2, 24300, Note_on_c, 3, 74, 127
2, 24300, Note_on_c, 3, 71, 127
2, 24310, Note_on_c, 3, 50, 0
2, 24323, Note_on_c, 3, 71, 0
2, 24330, Note_on_c, 3, 66, 127
2, 24330, Note_on_c, 3, 47, 127
2, 24353, Note_on_c, 3, 66, 0
2, 24353, Note_on_c, 3, 47, 0
2, 24360, Note_on_c, 3, 68, 127
2, 24360, Note_on_c, 3, 52, 127
2, 24390, Note_on_c, 3, 59, 127
2, 24401, Note_on_c, 3, 74, 0
2, 24407, Note_on_c, 3, 68, 0
2, 24407, Note_on_c, 3, 52, 0
2, 24413, Note_on_c, 3, 59, 0
2, 24420, Note_on_c, 3, 72, 127
2, 24420, Note_on_c, 3, 69, 127
2, 24420, Note_on_c, 3, 60, 127
2, 24443, Note_on_c, 3, 60, 0
2, 24450, Note_on_c, 3, 57, 127
2, 24467, Note_on_c, 3, 72, 0
2, 24473, Note_on_c, 3, 57, 0
2, 24480, Note_on_c, 3, 71, 127
2, 24480, Note_on_c, 3, 64, 127
2, 24497, Note_on_c, 3, 69, 0
2, 24510, Note_on_c, 3, 66, 127
2, 24533, Note_on_c, 3, 66, 0
2, 24540, Note_on_c, 3, 68, 127
2, 24540, Note_on_c, 3, 52, 127
2, 24550, Note_on_c, 3, 64, 0
2, 24570, Note_on_c, 3, 62, 127
2, 24575, Note_on_c, 3, 71, 0
2, 24587, Note_on_c, 3, 68, 0
2, 24587, Note_on_c, 3, 52, 0
2, 24593, Note_on_c, 3, 62, 0
2, 24600, Note_on_c, 3, 69, 127
2, 24600, Note_on_c, 3, 64, 127
2, 24600, Note_on_c, 3, 60, 127
2, 24600, Note_on_c, 3, 57, 127
2, 24600, Note_on_c, 3, 45, 127
2, 24623, Note_on_c, 3, 57, 0
2, 24630, Note_on_c, 3, 52, 127
2, 24647, Note_on_c, 3, 69, 0
2, 24647, Note_on_c, 3, 64, 0
2, 24647, Note_on_c, 3, 60, 0
2, 24653, Note_on_c, 3, 52, 0
2, 24659, Note_on_c, 3, 45, 0
2, 24660, Note_on_c, 3, 45, 127
2, 24683, Note_on_c, 3, 45, 0
2, 24690, Note_on_c, 3, 72, 127
2, 24690, Note_on_c, 3, 68, 127
2, 24690, Note_on_c, 3, 52, 127
2, 24713, Note_on_c, 3, 72, 0
2, 24713, Note_on_c, 3, 68, 0
2, 24713, Note_on_c, 3, 52, 0
2, 24720, Note_on_c, 3, 74, 127
2, 24720, Note_on_c, 3, 69, 127
2, 24720, Note_on_c, 3, 54, 127
2, 24743, Note_on_c, 3, 54, 0
2, 24750, Note_on_c, 3, 56, 127
2, 24762, Note_on_c, 3, 56, 0
2, 24765, Note_on_c, 3, 57, 127
2, 24767, Note_on_c, 3, 74, 0
2, 24767, Note_on_c, 3, 69, 0
2, 24777, Note_on_c, 3, 57, 0
2, 24780, Note_on_c, 3, 71, 127
2, 24780, Note_on_c, 3, 64, 127
2, 24780, Note_on_c, 3, 56, 127
2, 24803, Note_on_c, 3, 56, 0
2, 24810, Note_on_c, 3, 57, 127
2, 24822, Note_on_c, 3, 57, 0
2, 24825, Note_on_c, 3, 59, 127
2, 24827, Note_on_c, 3, 71, 0
2, 24827, Note_on_c, 3, 64, 0
2, 24837, Note_on_c, 3, 59, 0
2, 24840, Note_on_c, 3, 72, 127
2, 24840, Note_on_c, 3, 64, 127
2, 24840, Note_on_c, 3, 57, 127
2, 24863, Note_on_c, 3, 57, 0
2, 24870, Note_on_c, 3, 59, 127
2, 24882, Note_on_c, 3, 59, 0
2, 24885, Note_on_c, 3, 60, 127
2, 24887, Note_on_c, 3, 72, 0
2, 24887, Note_on_c, 3, 64, 0
2, 24897, Note_on_c, 3, 60, 0
2, 24900, Note_on_c, 3, 68, 127
2, 24900, Note_on_c, 3, 62, 127
2, 24900, Note_on_c, 3, 59, 127
2, 24923, Note_on_c, 3, 59, 0
2, 24930, Note_on_c, 3, 60, 127
2, 24942, Note_on_c, 3, 60, 0
2, 24945, Note_on_c, 3, 62, 127
2, 24947, Note_on_c, 3, 68, 0
2, 24947, Note_on_c, 3, 62, 0
2, 24957, Note_on_c, 3, 62, 0
2, 24960, Note_on_c, 3, 69, 127
2, 24960, Note_on_c, 3, 64, 127
2, 24960, Note_on_c, 3, 60, 127
2, 24983, Note_on_c, 3, 60, 0
2, 24990, Note_on_c, 3, 62, 127
2, 25002, Note_on_c, 3, 62, 0
2, 25005, Note_on_c, 3, 64, 127
2, 25007, Note_on_c, 3, 69, 0
2, 25007, Note_on_c, 3, 64, 0
2, 25017, Note_on_c, 3, 64, 0
2, 25020, Note_on_c, 3, 71, 127
2, 25020, Note_on_c, 3, 68, 127
2, 25020, Note_on_c, 3, 62, 127
2, 25043, Note_on_c, 3, 62, 0
2, 25050, Note_on_c, 3, 64, 127
2, 25062, Note_on_c, 3, 64, 0
2, 25065, Note_on_c, 3, 65, 127
2, 25067, Note_on_c, 3, 71, 0
2, 25067, Note_on_c, 3, 68, 0
2, 25077, Note_on_c, 3, 65, 0
2, 25080, Note_on_c, 3, 72, 127
2, 25080, Note_on_c, 3, 69, 127
2, 25080, Note_on_c, 3, 64, 127
2, 25080, Note_on_c, 3, 45, 127
2, 25103, Note_on_c, 3, 72, 0
2, 25110, Note_on_c, 3, 76, 127
2, 25127, Note_on_c, 3, 69, 0
2, 25127, Note_on_c, 3, 64, 0
2, 25133, Note_on_c, 3, 76, 0
2, 25139, Note_on_c, 3, 45, 0
2, 25140, Note_on_c, 3, 81, 127
2, 25170, Note_on_c, 3, 72, 127
2, 25187, Note_on_c, 3, 81, 0
2, 25193, Note_on_c, 3, 72, 0
2, 25200, Note_on_c, 3, 74, 127
2, 25230, Note_on_c, 3, 78, 127
2, 25253, Note_on_c, 3, 78, 0
2, 25260, Note_on_c, 3, 83, 127
2, 25260, Note_on_c, 3, 62, 127
2, 25270, Note_on_c, 3, 74, 0
2, 25283, Note_on_c, 3, 83, 0
2, 25290, Note_on_c, 3, 78, 127
2, 25290, Note_on_c, 3, 71, 127
2, 25313, Note_on_c, 3, 78, 0
2, 25313, Note_on_c, 3, 71, 0
2, 25320, Note_on_c, 3, 76, 127
2, 25320, Note_on_c, 3, 80, 127
2, 25350, Note_on_c, 3, 71, 127
2, 25361, Note_on_c, 3, 62, 0
2, 25367, Note_on_c, 3, 76, 0
2, 25367, Note_on_c, 3, 80, 0
2, 25373, Note_on_c, 3, 71, 0
2, 25380, Note_on_c, 3, 76, 127
2, 25380, Note_on_c, 3, 81, 127
2, 25380, Note_on_c, 3, 72, 127
2, 25380, Note_on_c, 3, 60, 127
2, 25403, Note_on_c, 3, 72, 0
2, 25410, Note_on_c, 3, 69, 127
2, 25427, Note_on_c, 3, 76, 0
2, 25427, Note_on_c, 3, 81, 0
2, 25427, Note_on_c, 3, 60, 0
2, 25433, Note_on_c, 3, 69, 0
2, 25440, Note_on_c, 3, 71, 127
2, 25440, Note_on_c, 3, 74, 127
2, 25440, Note_on_c, 3, 59, 127
2, 25470, Note_on_c, 3, 78, 127
2, 25487, Note_on_c, 3, 71, 0
2, 25487, Note_on_c, 3, 59, 0
2, 25493, Note_on_c, 3, 78, 0
2, 25500, Note_on_c, 3, 80, 127
2, 25500, Note_on_c, 3, 71, 127
2, 25500, Note_on_c, 3, 64, 127
2, 25517, Note_on_c, 3, 74, 0
2, 25530, Note_on_c, 3, 74, 127
2, 25547, Note_on_c, 3, 64, 0
2, 25550, Note_on_c, 3, 80, 0
2, 25550, Note_on_c, 3, 71, 0
2, 25553, Note_on_c, 3, 74, 0
2, 25560, Note_on_c, 3, 76, 127
2, 25560, Note_on_c, 3, 81, 127
2, 25560, Note_on_c, 3, 72, 127
2, 25560, Note_on_c, 3, 57, 127
2, 25560, Note_on_c, 3, 45, 127
2, 25583, Note_on_c, 3, 57, 0
2, 25590, Note_on_c, 3, 64, 127
2, 25607, Note_on_c, 3, 76, 0
2, 25607, Note_on_c, 3, 81, 0
2, 25607, Note_on_c, 3, 72, 0
2, 25613, Note_on_c, 3, 64, 0
2, 25619, Note_on_c, 3, 45, 0
2, 25620, Note_on_c, 3, 69, 127
2, 25643, Note_on_c, 3, 69, 0
2, 25650, Note_on_c, 3, 74, 127
2, 25673, Note_on_c, 3, 74, 0
2, 25680, Note_on_c, 3, 72, 127
2, 25703, Note_on_c, 3, 72, 0
2, 25710, Note_on_c, 3, 76, 127
2, 25733, Note_on_c, 3, 76, 0
2, 25740, Note_on_c, 3, 69, 127
2, 25763, Note_on_c, 3, 69, 0
2, 25770, Note_on_c, 3, 72, 127
2, 25793, Note_on_c, 3, 72, 0
2, 25800, Note_on_c, 3, 68, 127
2, 25823, Note_on_c, 3, 68, 0
2, 25830, Note_on_c, 3, 71, 127
2, 25853, Note_on_c, 3, 71, 0
2, 25860, Note_on_c, 3, 64, 127
2, 25883, Note_on_c, 3, 64, 0
2, 25890, Note_on_c, 3, 62, 127
2, 25913, Note_on_c, 3, 62, 0
2, 25920, Note_on_c, 3, 69, 127
2, 25920, Note_on_c, 3, 64, 127
2, 25920, Note_on_c, 3, 60, 127
2, 25943, Note_on_c, 3, 60, 0
2, 25950, Note_on_c, 3, 64, 127
2, 25970, Note_on_c, 3, 64, 0
2, 25980, Note_on_c, 3, 57, 127
2, 25990, Note_on_c, 3, 69, 0
2, 25993, Note_on_c, 3, 64, 0
2, 26003, Note_on_c, 3, 57, 0
2, 26010, Note_on_c, 3, 69, 127
2, 26010, Note_on_c, 3, 64, 127
2, 26010, Note_on_c, 3, 60, 127
2, 26033, Note_on_c, 3, 69, 0
2, 26033, Note_on_c, 3, 64, 0
2, 26033, Note_on_c, 3, 60, 0
2, 26040, Note_on_c, 3, 71, 127
2, 26040, Note_on_c, 3, 64, 127
2, 26040, Note_on_c, 3, 56, 127
2, 26063, Note_on_c, 3, 56, 0
2, 26070, Note_on_c, 3, 59, 127
2, 26087, Note_on_c, 3, 71, 0
2, 26087, Note_on_c, 3, 64, 0
2, 26093, Note_on_c, 3, 59, 0
2, 26100, Note_on_c, 3, 52, 127
2, 26123, Note_on_c, 3, 52, 0
2, 26130, Note_on_c, 3, 50, 127
2, 26153, Note_on_c, 3, 50, 0
2, 26160, Note_on_c, 3, 72, 127
2, 26160, Note_on_c, 3, 64, 127
2, 26160, Note_on_c, 3, 57, 127
2, 26160, Note_on_c, 3, 48, 127
2, 26183, Note_on_c, 3, 48, 0
2, 26190, Note_on_c, 3, 52, 127
2, 26207, Note_on_c, 3, 72, 0
2, 26207, Note_on_c, 3, 64, 0
2, 26207, Note_on_c, 3, 57, 0
2, 26213, Note_on_c, 3, 52, 0
2, 26220, Note_on_c, 3, 45, 127
2, 26243, Note_on_c, 3, 45, 0
2, 26250, Note_on_c, 3, 48, 127
2, 26273, Note_on_c, 3, 48, 0
2, 26280, Note_on_c, 3, 38, 127
2, 26310, Note_on_c, 3, 72, 127
2, 26327, Note_on_c, 3, 38, 0
2, 26333, Note_on_c, 3, 72, 0
2, 26340, Note_on_c, 3, 74, 127
2, 26363, Note_on_c, 3, 74, 0
2, 26370, Note_on_c, 3, 76, 127
2, 26393, Note_on_c, 3, 76, 0
2, 26400, Note_on_c, 3, 77, 127
2, 26430, Note_on_c, 3, 72, 127
2, 26430, Note_on_c, 3, 64, 127
2, 26447, Note_on_c, 3, 77, 0
2, 26453, Note_on_c, 3, 72, 0
2, 26453, Note_on_c, 3, 64, 0
2, 26460, Note_on_c, 3, 71, 127
2, 26460, Note_on_c, 3, 62, 127
2, 26460, Note_on_c, 3, 50, 127
2, 26483, Note_on_c, 3, 71, 0
2, 26483, Note_on_c, 3, 62, 0
2, 26490, Note_on_c, 3, 69, 127
2, 26490, Note_on_c, 3, 60, 127
2, 26510, Note_on_c, 3, 50, 0
2, 26513, Note_on_c, 3, 69, 0
2, 26513, Note_on_c, 3, 60, 0
2, 26520, Note_on_c, 3, 68, 127
2, 26520, Note_on_c, 3, 59, 127
2, 26520, Note_on_c, 3, 52, 127
2, 26550, Note_on_c, 3, 71, 127
2, 26567, Note_on_c, 3, 68, 0
2, 26567, Note_on_c, 3, 59, 0
2, 26567, Note_on_c, 3, 52, 0
2, 26573, Note_on_c, 3, 71, 0
2, 26580, Note_on_c, 3, 72, 127
2, 26603, Note_on_c, 3, 72, 0
2, 26610, Note_on_c, 3, 74, 127
2, 26633, Note_on_c, 3, 74, 0
2, 26640, Note_on_c, 3, 76, 127
2, 26670, Note_on_c, 3, 68, 127
2, 26670, Note_on_c, 3, 62, 127
2, 26687, Note_on_c, 3, 76, 0
2, 26693, Note_on_c, 3, 68, 0
2, 26693, Note_on_c, 3, 62, 0
2, 26700, Note_on_c, 3, 69, 127
2, 26700, Note_on_c, 3, 60, 127
2, 26700, Note_on_c, 3, 52, 127
2, 26723, Note_on_c, 3, 69, 0
2, 26723, Note_on_c, 3, 60, 0
2, 26730, Note_on_c, 3, 71, 127
2, 26730, Note_on_c, 3, 59, 127
2, 26753, Note_on_c, 3, 71, 0
2, 26753, Note_on_c, 3, 59, 0
2, 26754, Note_on_c, 3, 52, 0
2, 26760, Note_on_c, 3, 72, 127
2, 26760, Note_on_c, 3, 57, 127
2, 26760, Note_on_c, 3, 57, 127
2, 26790, Note_on_c, 3, 76, 127
2, 26807, Note_on_c, 3, 72, 0
2, 26807, Note_on_c, 3, 57, 0
2, 26807, Note_on_c, 3, 57, 0
2, 26813, Note_on_c, 3, 76, 0
2, 26820, Note_on_c, 3, 78, 127
2, 26843, Note_on_c, 3, 78, 0
2, 26850, Note_on_c, 3, 80, 127
2, 26873, Note_on_c, 3, 80, 0
2, 26880, Note_on_c, 3, 81, 127
2, 26910, Note_on_c, 3, 73, 127
2, 26910, Note_on_c, 3, 67, 127
2, 26927, Note_on_c, 3, 81, 0
2, 26933, Note_on_c, 3, 73, 0
2, 26933, Note_on_c, 3, 67, 0
2, 26940, Note_on_c, 3, 74, 127
2, 26940, Note_on_c, 3, 65, 127
2, 26940, Note_on_c, 3, 57, 127
2, 26963, Note_on_c, 3, 74, 0
2, 26963, Note_on_c, 3, 65, 0
2, 26970, Note_on_c, 3, 76, 127
2, 26970, Note_on_c, 3, 64, 127
2, 26993, Note_on_c, 3, 76, 0
2, 26993, Note_on_c, 3, 64, 0
2, 26994, Note_on_c, 3, 57, 0
2, 27000, Note_on_c, 3, 77, 127
2, 27000, Note_on_c, 3, 62, 127
2, 27000, Note_on_c, 3, 62, 127
2, 27030, Note_on_c, 3, 83, 127
2, 27047, Note_on_c, 3, 77, 0
2, 27047, Note_on_c, 3, 62, 0
2, 27047, Note_on_c, 3, 62, 0
2, 27053, Note_on_c, 3, 83, 0
2, 27060, Note_on_c, 3, 81, 127
2, 27083, Note_on_c, 3, 81, 0
2, 27090, Note_on_c, 3, 80, 127
2, 27113, Note_on_c, 3, 80, 0
2, 27120, Note_on_c, 3, 81, 127
2, 27150, Note_on_c, 3, 74, 127
2, 27150, Note_on_c, 3, 65, 127
2, 27167, Note_on_c, 3, 81, 0
2, 27173, Note_on_c, 3, 74, 0
2, 27173, Note_on_c, 3, 65, 0
2, 27180, Note_on_c, 3, 72, 127
2, 27180, Note_on_c, 3, 64, 127
2, 27180, Note_on_c, 3, 52, 127
2, 27203, Note_on_c, 3, 72, 0
2, 27203, Note_on_c, 3, 64, 0
2, 27210, Note_on_c, 3, 80, 127
2, 27210, Note_on_c, 3, 71, 127
2, 27210, Note_on_c, 3, 62, 127
2, 27233, Note_on_c, 3, 80, 0
2, 27233, Note_on_c, 3, 71, 0
2, 27233, Note_on_c, 3, 62, 0
2, 27239, Note_on_c, 3, 52, 0
2, 27240, Note_on_c, 3, 81, 127
2, 27240, Note_on_c, 3, 72, 127
2, 27240, Note_on_c, 3, 64, 127
2, 27240, Note_on_c, 3, 57, 127
2, 27287, Note_on_c, 3, 81, 0
2, 27287, Note_on_c, 3, 72, 0
2, 27287, Note_on_c, 3, 64, 0
2, 27287, Note_on_c, 3, 57, 0
2, 27300, Note_on_c, 3, 77, 127
2, 27300, Note_on_c, 3, 69, 127
2, 27300, Note_on_c, 3, 65, 127
2, 27300, Note_on_c, 3, 50, 127
2, 27323, Note_on_c, 3, 77, 0
2, 27330, Note_on_c, 3, 71, 127
2, 27347, Note_on_c, 3, 69, 0
2, 27347, Note_on_c, 3, 65, 0
2, 27353, Note_on_c, 3, 71, 0
2, 27359, Note_on_c, 3, 50, 0
2, 27360, Note_on_c, 3, 72, 127
2, 27360, Note_on_c, 3, 69, 127
2, 27360, Note_on_c, 3, 64, 127
2, 27360, Note_on_c, 3, 52, 127
2, 27407, Note_on_c, 3, 72, 0
2, 27407, Note_on_c, 3, 69, 0
2, 27407, Note_on_c, 3, 64, 0
2, 27407, Note_on_c, 3, 52, 0
2, 27420, Note_on_c, 3, 71, 127
2, 27420, Note_on_c, 3, 68, 127
2, 27420, Note_on_c, 3, 62, 127
2, 27420, Note_on_c, 3, 40, 127
2, 27443, Note_on_c, 3, 71, 0
2, 27450, Note_on_c, 3, 69, 127
2, 27467, Note_on_c, 3, 68, 0
2, 27467, Note_on_c, 3, 62, 0
2, 27473, Note_on_c, 3, 69, 0
2, 27479, Note_on_c, 3, 40, 0
2, 27480, Note_on_c, 3, 69, 127
2, 27480, Note_on_c, 3, 64, 127
2, 27480, Note_on_c, 3, 60, 127
2, 27480, Note_on_c, 3, 45, 127
2, 27527, Note_on_c, 3, 69, 0
2, 27527, Note_on_c, 3, 64, 0
2, 27527, Note_on_c, 3, 60, 0
2, 27527, Note_on_c, 3, 45, 0
2, 27570, Note_on_c, 3, 62, 127
2, 27593, Note_on_c, 3, 62, 0
2, 27600, Note_on_c, 3, 60, 127
2, 27623, Note_on_c, 3, 60, 0
2, 27630, Note_on_c, 3, 64, 127
2, 27653, Note_on_c, 3, 64, 0
2, 27660, Note_on_c, 3, 57, 127
2, 27683, Note_on_c, 3, 57, 0
2, 27690, Note_on_c, 3, 69, 127
2, 27713, Note_on_c, 3, 69, 0
2, 27720, Note_on_c, 3, 68, 127
2, 27720, Note_on_c, 3, 64, 127
2, 27743, Note_on_c, 3, 68, 0
2, 27750, Note_on_c, 3, 71, 127
2, 27767, Note_on_c, 3, 64, 0
2, 27773, Note_on_c, 3, 71, 0
2, 27780, Note_on_c, 3, 64, 127
2, 27780, Note_on_c, 3, 56, 127
2, 27803, Note_on_c, 3, 64, 0
2, 27810, Note_on_c, 3, 74, 127
2, 27827, Note_on_c, 3, 56, 0
2, 27833, Note_on_c, 3, 74, 0
2, 27840, Note_on_c, 3, 72, 127
2, 27840, Note_on_c, 3, 64, 127
2, 27840, Note_on_c, 3, 57, 127
2, 27863, Note_on_c, 3, 72, 0
2, 27870, Note_on_c, 3, 76, 127
2, 27887, Note_on_c, 3, 64, 0
2, 27887, Note_on_c, 3, 57, 0
2, 27893, Note_on_c, 3, 76, 0
2, 27900, Note_on_c, 3, 69, 127
2, 27900, Note_on_c, 3, 62, 127
2, 27900, Note_on_c, 3, 53, 127
2, 27923, Note_on_c, 3, 69, 0
2, 27930, Note_on_c, 3, 81, 127
2, 27947, Note_on_c, 3, 62, 0
2, 27947, Note_on_c, 3, 53, 0
2, 27953, Note_on_c, 3, 81, 0
2, 27960, Note_on_c, 3, 80, 127
2, 27960, Note_on_c, 3, 64, 127
2, 27960, Note_on_c, 3, 52, 127
2, 27983, Note_on_c, 3, 80, 0
2, 27990, Note_on_c, 3, 83, 127
2, 28007, Note_on_c, 3, 64, 0
2, 28007, Note_on_c, 3, 52, 0
2, 28013, Note_on_c, 3, 83, 0
2, 28020, Note_on_c, 3, 76, 127
2, 28020, Note_on_c, 3, 76, 127
2, 28043, Note_on_c, 3, 76, 0
2, 28050, Note_on_c, 3, 62, 127
2, 28073, Note_on_c, 3, 62, 0
2, 28080, Note_on_c, 3, 81, 127
2, 28080, Note_on_c, 3, 61, 127
2, 28103, Note_on_c, 3, 61, 0
2, 28110, Note_on_c, 3, 64, 127
2, 28133, Note_on_c, 3, 64, 0
2, 28140, Note_on_c, 3, 57, 127
2, 28150, Note_on_c, 3, 81, 0
2, 28163, Note_on_c, 3, 57, 0
2, 28169, Note_on_c, 3, 76, 0
2, 28170, Note_on_c, 3, 79, 127
2, 28193, Note_on_c, 3, 79, 0
2, 28200, Note_on_c, 3, 77, 127
2, 28200, Note_on_c, 3, 62, 127
2, 28223, Note_on_c, 3, 77, 0
2, 28230, Note_on_c, 3, 81, 127
2, 28247, Note_on_c, 3, 62, 0
2, 28253, Note_on_c, 3, 81, 0
2, 28260, Note_on_c, 3, 74, 127
2, 28260, Note_on_c, 3, 65, 127
2, 28283, Note_on_c, 3, 74, 0
2, 28290, Note_on_c, 3, 72, 127
2, 28307, Note_on_c, 3, 65, 0
2, 28313, Note_on_c, 3, 72, 0
2, 28320, Note_on_c, 3, 71, 127
2, 28320, Note_on_c, 3, 67, 127
2, 28343, Note_on_c, 3, 71, 0
2, 28350, Note_on_c, 3, 74, 127
2, 28367, Note_on_c, 3, 67, 0
2, 28373, Note_on_c, 3, 74, 0
2, 28380, Note_on_c, 3, 67, 127
2, 28403, Note_on_c, 3, 67, 0
2, 28410, Note_on_c, 3, 65, 127
2, 28433, Note_on_c, 3, 65, 0
2, 28440, Note_on_c, 3, 72, 127
2, 28440, Note_on_c, 3, 67, 127
2, 28440, Note_on_c, 3, 64, 127
2, 28463, Note_on_c, 3, 64, 0
2, 28470, Note_on_c, 3, 67, 127
2, 28487, Note_on_c, 3, 72, 0
2, 28487, Note_on_c, 3, 67, 0
2, 28493, Note_on_c, 3, 67, 0
2, 28500, Note_on_c, 3, 60, 127
2, 28523, Note_on_c, 3, 60, 0
2, 28530, Note_on_c, 3, 59, 127
2, 28553, Note_on_c, 3, 59, 0
2, 28560, Note_on_c, 3, 72, 127
2, 28560, Note_on_c, 3, 69, 127
2, 28560, Note_on_c, 3, 57, 127
2, 28583, Note_on_c, 3, 57, 0
2, 28590, Note_on_c, 3, 60, 127
2, 28607, Note_on_c, 3, 72, 0
2, 28607, Note_on_c, 3, 69, 0
2, 28613, Note_on_c, 3, 60, 0
2, 28620, Note_on_c, 3, 54, 127
2, 28643, Note_on_c, 3, 54, 0
2, 28650, Note_on_c, 3, 67, 127
2, 28650, Note_on_c, 3, 52, 127
2, 28673, Note_on_c, 3, 67, 0
2, 28673, Note_on_c, 3, 52, 0
2, 28680, Note_on_c, 3, 66, 127
2, 28680, Note_on_c, 3, 51, 127
2, 28710, Note_on_c, 3, 71, 127
2, 28727, Note_on_c, 3, 66, 0
2, 28727, Note_on_c, 3, 51, 0
2, 28733, Note_on_c, 3, 71, 0
2, 28740, Note_on_c, 3, 67, 127
2, 28740, Note_on_c, 3, 52, 127
2, 28770, Note_on_c, 3, 76, 127
2, 28787, Note_on_c, 3, 67, 0
2, 28787, Note_on_c, 3, 52, 0
2, 28800, Note_on_c, 3, 72, 127
2, 28800, Note_on_c, 3, 45, 127
2, 28823, Note_on_c, 3, 72, 0
2, 28830, Note_on_c, 3, 69, 127
2, 28844, Note_on_c, 3, 76, 0
2, 28847, Note_on_c, 3, 45, 0
2, 28853, Note_on_c, 3, 69, 0
2, 28860, Note_on_c, 3, 75, 127
2, 28860, Note_on_c, 3, 66, 127
2, 28860, Note_on_c, 3, 47, 127
2, 28883, Note_on_c, 3, 66, 0
2, 28890, Note_on_c, 3, 69, 127
2, 28907, Note_on_c, 3, 75, 0
2, 28907, Note_on_c, 3, 47, 0
2, 28913, Note_on_c, 3, 69, 0
2, 28920, Note_on_c, 3, 76, 127
2, 28920, Note_on_c, 3, 67, 127
2, 28920, Note_on_c, 3, 40, 127
2, 28920, Note_on_c, 3, 40, 127
2, 28943, Note_on_c, 3, 67, 0
2, 28950, Note_on_c, 3, 71, 127
2, 28967, Note_on_c, 3, 76, 0
2, 28967, Note_on_c, 3, 40, 0
2, 28973, Note_on_c, 3, 71, 0
2, 28979, Note_on_c, 3, 40, 0
2, 28980, Note_on_c, 3, 64, 127
2, 29003, Note_on_c, 3, 64, 0
2, 29010, Note_on_c, 3, 59, 127
2, 29010, Note_on_c, 3, 55, 127
2, 29033, Note_on_c, 3, 59, 0
2, 29033, Note_on_c, 3, 55, 0
2, 29040, Note_on_c, 3, 61, 127
2, 29040, Note_on_c, 3, 57, 127
2, 29063, Note_on_c, 3, 61, 0
2, 29070, Note_on_c, 3, 63, 127
2, 29082, Note_on_c, 3, 63, 0
2, 29085, Note_on_c, 3, 64, 127
2, 29087, Note_on_c, 3, 57, 0
2, 29097, Note_on_c, 3, 64, 0
2, 29100, Note_on_c, 3, 63, 127
2, 29100, Note_on_c, 3, 54, 127
2, 29123, Note_on_c, 3, 63, 0
2, 29130, Note_on_c, 3, 64, 127
2, 29142, Note_on_c, 3, 64, 0
2, 29145, Note_on_c, 3, 66, 127
2, 29147, Note_on_c, 3, 54, 0
2, 29157, Note_on_c, 3, 66, 0
2, 29160, Note_on_c, 3, 64, 127
2, 29160, Note_on_c, 3, 55, 127
2, 29183, Note_on_c, 3, 64, 0
2, 29190, Note_on_c, 3, 66, 127
2, 29202, Note_on_c, 3, 66, 0
2, 29205, Note_on_c, 3, 67, 127
2, 29207, Note_on_c, 3, 55, 0
2, 29217, Note_on_c, 3, 67, 0
2, 29220, Note_on_c, 3, 66, 127
2, 29220, Note_on_c, 3, 51, 127
2, 29243, Note_on_c, 3, 66, 0
2, 29250, Note_on_c, 3, 67, 127
2, 29262, Note_on_c, 3, 67, 0
2, 29265, Note_on_c, 3, 69, 127
2, 29267, Note_on_c, 3, 51, 0
2, 29277, Note_on_c, 3, 69, 0
2, 29280, Note_on_c, 3, 67, 127
2, 29280, Note_on_c, 3, 52, 127
2, 29303, Note_on_c, 3, 67, 0
2, 29310, Note_on_c, 3, 69, 127
2, 29322, Note_on_c, 3, 69, 0
2, 29325, Note_on_c, 3, 71, 127
2, 29327, Note_on_c, 3, 52, 0
2, 29337, Note_on_c, 3, 71, 0
2, 29340, Note_on_c, 3, 69, 127
2, 29340, Note_on_c, 3, 54, 127
2, 29363, Note_on_c, 3, 69, 0
2, 29370, Note_on_c, 3, 71, 127
2, 29382, Note_on_c, 3, 71, 0
2, 29385, Note_on_c, 3, 72, 127
2, 29387, Note_on_c, 3, 54, 0
2, 29397, Note_on_c, 3, 72, 0
2, 29400, Note_on_c, 3, 71, 127
2, 29400, Note_on_c, 3, 55, 127
2, 29400, Note_on_c, 3, 40, 127
2, 29430, Note_on_c, 3, 59, 127
2, 29447, Note_on_c, 3, 71, 0
2, 29453, Note_on_c, 3, 59, 0
2, 29459, Note_on_c, 3, 40, 0
2, 29460, Note_on_c, 3, 64, 127
2, 29470, Note_on_c, 3, 55, 0
2, 29490, Note_on_c, 3, 43, 127
2, 29507, Note_on_c, 3, 64, 0
2, 29513, Note_on_c, 3, 43, 0
2, 29520, Note_on_c, 3, 45, 127
2, 29550, Note_on_c, 3, 61, 127
2, 29573, Note_on_c, 3, 61, 0
2, 29580, Note_on_c, 3, 69, 127
2, 29580, Note_on_c, 3, 66, 127
2, 29590, Note_on_c, 3, 45, 0
2, 29603, Note_on_c, 3, 66, 0
2, 29610, Note_on_c, 3, 61, 127
2, 29610, Note_on_c, 3, 42, 127
2, 29633, Note_on_c, 3, 61, 0
2, 29633, Note_on_c, 3, 42, 0
2, 29640, Note_on_c, 3, 63, 127
2, 29640, Note_on_c, 3, 47, 127
2, 29670, Note_on_c, 3, 54, 127
2, 29681, Note_on_c, 3, 69, 0
2, 29687, Note_on_c, 3, 63, 0
2, 29687, Note_on_c, 3, 47, 0
2, 29693, Note_on_c, 3, 54, 0
2, 29700, Note_on_c, 3, 67, 127
2, 29700, Note_on_c, 3, 64, 127
2, 29700, Note_on_c, 3, 55, 127
2, 29723, Note_on_c, 3, 55, 0
2, 29730, Note_on_c, 3, 52, 127
2, 29747, Note_on_c, 3, 67, 0
2, 29753, Note_on_c, 3, 52, 0
2, 29760, Note_on_c, 3, 66, 127
2, 29760, Note_on_c, 3, 59, 127
2, 29777, Note_on_c, 3, 64, 0
2, 29790, Note_on_c, 3, 61, 127
2, 29813, Note_on_c, 3, 61, 0
2, 29820, Note_on_c, 3, 63, 127
2, 29820, Note_on_c, 3, 47, 127
2, 29830, Note_on_c, 3, 59, 0
2, 29850, Note_on_c, 3, 57, 127
2, 29855, Note_on_c, 3, 66, 0
2, 29867, Note_on_c, 3, 63, 0
2, 29867, Note_on_c, 3, 47, 0
2, 29873, Note_on_c, 3, 57, 0
2, 29880, Note_on_c, 3, 64, 127
2, 29880, Note_on_c, 3, 59, 127
2, 29880, Note_on_c, 3, 55, 127
2, 29880, Note_on_c, 3, 52, 127
2, 29880, Note_on_c, 3, 40, 127
2, 29903, Note_on_c, 3, 52, 0
2, 29910, Note_on_c, 3, 47, 127
2, 29927, Note_on_c, 3, 64, 0
2, 29927, Note_on_c, 3, 59, 0
2, 29927, Note_on_c, 3, 55, 0
2, 29933, Note_on_c, 3, 47, 0
2, 29939, Note_on_c, 3, 40, 0
2, 29940, Note_on_c, 3, 40, 127
2, 29963, Note_on_c, 3, 40, 0
2, 29970, Note_on_c, 3, 67, 127
2, 29970, Note_on_c, 3, 63, 127
2, 29970, Note_on_c, 3, 47, 127
2, 29993, Note_on_c, 3, 67, 0
2, 29993, Note_on_c, 3, 63, 0
2, 29993, Note_on_c, 3, 47, 0
2, 30000, Note_on_c, 3, 69, 127
2, 30000, Note_on_c, 3, 64, 127
2, 30000, Note_on_c, 3, 49, 127
2, 30023, Note_on_c, 3, 49, 0
2, 30030, Note_on_c, 3, 51, 127
2, 30042, Note_on_c, 3, 51, 0
2, 30045, Note_on_c, 3, 52, 127
2, 30047, Note_on_c, 3, 69, 0
2, 30047, Note_on_c, 3, 64, 0
2, 30057, Note_on_c, 3, 52, 0
2, 30060, Note_on_c, 3, 66, 127
2, 30060, Note_on_c, 3, 59, 127
2, 30060, Note_on_c, 3, 51, 127
2, 30083, Note_on_c, 3, 51, 0
2, 30090, Note_on_c, 3, 52, 127
2, 30102, Note_on_c, 3, 52, 0
2, 30105, Note_on_c, 3, 54, 127
2, 30107, Note_on_c, 3, 66, 0
2, 30107, Note_on_c, 3, 59, 0
2, 30117, Note_on_c, 3, 54, 0
2, 30120, Note_on_c, 3, 67, 127
2, 30120, Note_on_c, 3, 59, 127
2, 30120, Note_on_c, 3, 52, 127
2, 30143, Note_on_c, 3, 52, 0
2, 30150, Note_on_c, 3, 54, 127
2, 30162, Note_on_c, 3, 54, 0
2, 30165, Note_on_c, 3, 55, 127
2, 30167, Note_on_c, 3, 67, 0
2, 30167, Note_on_c, 3, 59, 0
2, 30177, Note_on_c, 3, 55, 0
2, 30180, Note_on_c, 3, 63, 127
2, 30180, Note_on_c, 3, 57, 127
2, 30180, Note_on_c, 3, 54, 127
2, 30203, Note_on_c, 3, 54, 0
2, 30210, Note_on_c, 3, 55, 127
2, 30222, Note_on_c, 3, 55, 0
2, 30225, Note_on_c, 3, 57, 127
2, 30227, Note_on_c, 3, 63, 0
2, 30227, Note_on_c, 3, 57, 0
2, 30237, Note_on_c, 3, 57, 0
2, 30240, Note_on_c, 3, 64, 127
2, 30240, Note_on_c, 3, 59, 127
2, 30240, Note_on_c, 3, 55, 127
2, 30263, Note_on_c, 3, 55, 0
2, 30270, Note_on_c, 3, 57, 127
2, 30282, Note_on_c, 3, 57, 0
2, 30285, Note_on_c, 3, 59, 127
2, 30287, Note_on_c, 3, 64, 0
2, 30287, Note_on_c, 3, 59, 0
2, 30297, Note_on_c, 3, 59, 0
2, 30300, Note_on_c, 3, 66, 127
2, 30300, Note_on_c, 3, 63, 127
2, 30300, Note_on_c, 3, 57, 127
2, 30323, Note_on_c, 3, 57, 0
2, 30330, Note_on_c, 3, 59, 127
2, 30342, Note_on_c, 3, 59, 0
2, 30345, Note_on_c, 3, 60, 127
2, 30347, Note_on_c, 3, 66, 0
2, 30347, Note_on_c, 3, 63, 0
2, 30357, Note_on_c, 3, 60, 0
2, 30360, Note_on_c, 3, 67, 127
2, 30360, Note_on_c, 3, 64, 127
2, 30360, Note_on_c, 3, 59, 127
2, 30360, Note_on_c, 3, 40, 127
2, 30383, Note_on_c, 3, 67, 0
2, 30390, Note_on_c, 3, 71, 127
2, 30407, Note_on_c, 3, 64, 0
2, 30407, Note_on_c, 3, 59, 0
2, 30413, Note_on_c, 3, 71, 0
2, 30420, Note_on_c, 3, 76, 127
2, 30423, Note_on_c, 3, 40, 0
2, 30450, Note_on_c, 3, 67, 127
2, 30467, Note_on_c, 3, 76, 0
2, 30473, Note_on_c, 3, 67, 0
2, 30480, Note_on_c, 3, 69, 127
2, 30510, Note_on_c, 3, 73, 127
2, 30533, Note_on_c, 3, 73, 0
2, 30540, Note_on_c, 3, 78, 127
2, 30540, Note_on_c, 3, 57, 127
2, 30550, Note_on_c, 3, 69, 0
2, 30563, Note_on_c, 3, 78, 0
2, 30570, Note_on_c, 3, 73, 127
2, 30570, Note_on_c, 3, 66, 127
2, 30593, Note_on_c, 3, 73, 0
2, 30593, Note_on_c, 3, 66, 0
2, 30600, Note_on_c, 3, 71, 127
2, 30600, Note_on_c, 3, 75, 127
2, 30630, Note_on_c, 3, 66, 127
2, 30641, Note_on_c, 3, 57, 0
2, 30647, Note_on_c, 3, 71, 0
2, 30647, Note_on_c, 3, 75, 0
2, 30653, Note_on_c, 3, 66, 0
2, 30660, Note_on_c, 3, 71, 127
2, 30660, Note_on_c, 3, 76, 127
2, 30660, Note_on_c, 3, 67, 127
2, 30660, Note_on_c, 3, 55, 127
2, 30683, Note_on_c, 3, 67, 0
2, 30690, Note_on_c, 3, 64, 127
2, 30707, Note_on_c, 3, 71, 0
2, 30707, Note_on_c, 3, 76, 0
2, 30707, Note_on_c, 3, 55, 0
2, 30713, Note_on_c, 3, 64, 0
2, 30720, Note_on_c, 3, 66, 127
2, 30720, Note_on_c, 3, 69, 127
2, 30720, Note_on_c, 3, 54, 127
2, 30750, Note_on_c, 3, 73, 127
2, 30767, Note_on_c, 3, 66, 0
2, 30767, Note_on_c, 3, 54, 0
2, 30773, Note_on_c, 3, 73, 0
2, 30780, Note_on_c, 3, 75, 127
2, 30780, Note_on_c, 3, 66, 127
2, 30780, Note_on_c, 3, 59, 127
2, 30797, Note_on_c, 3, 69, 0
2, 30810, Note_on_c, 3, 69, 127
2, 30827, Note_on_c, 3, 59, 0
2, 30830, Note_on_c, 3, 75, 0
2, 30830, Note_on_c, 3, 66, 0
2, 30833, Note_on_c, 3, 69, 0
2, 30840, Note_on_c, 3, 71, 127
2, 30840, Note_on_c, 3, 76, 127
2, 30840, Note_on_c, 3, 67, 127
2, 30840, Note_on_c, 3, 52, 127
2, 30840, Note_on_c, 3, 40, 127
2, 30863, Note_on_c, 3, 52, 0
2, 30870, Note_on_c, 3, 59, 127
2, 30887, Note_on_c, 3, 71, 0
2, 30887, Note_on_c, 3, 76, 0
2, 30887, Note_on_c, 3, 67, 0
2, 30893, Note_on_c, 3, 59, 0
2, 30899, Note_on_c, 3, 40, 0
2, 30900, Note_on_c, 3, 64, 127
2, 30923, Note_on_c, 3, 64, 0
2, 30930, Note_on_c, 3, 81, 127
2, 30953, Note_on_c, 3, 81, 0
2, 30960, Note_on_c, 3, 79, 127
2, 30983, Note_on_c, 3, 79, 0
2, 30990, Note_on_c, 3, 83, 127
2, 31013, Note_on_c, 3, 83, 0
2, 31020, Note_on_c, 3, 76, 127
2, 31043, Note_on_c, 3, 76, 0
2, 31050, Note_on_c, 3, 79, 127
2, 31073, Note_on_c, 3, 79, 0
2, 31080, Note_on_c, 3, 75, 127
2, 31103, Note_on_c, 3, 75, 0
2, 31110, Note_on_c, 3, 78, 127
2, 31133, Note_on_c, 3, 78, 0
2, 31140, Note_on_c, 3, 71, 127
2, 31163, Note_on_c, 3, 71, 0
2, 31170, Note_on_c, 3, 69, 127
2, 31193, Note_on_c, 3, 69, 0
2, 31200, Note_on_c, 3, 76, 127
2, 31200, Note_on_c, 3, 71, 127
2, 31200, Note_on_c, 3, 67, 127
2, 31223, Note_on_c, 3, 67, 0
2, 31230, Note_on_c, 3, 71, 127
2, 31250, Note_on_c, 3, 71, 0
2, 31260, Note_on_c, 3, 64, 127
2, 31270, Note_on_c, 3, 76, 0
2, 31273, Note_on_c, 3, 71, 0
2, 31283, Note_on_c, 3, 64, 0
2, 31290, Note_on_c, 3, 76, 127
2, 31290, Note_on_c, 3, 71, 127
2, 31290, Note_on_c, 3, 67, 127
2, 31313, Note_on_c, 3, 76, 0
2, 31313, Note_on_c, 3, 71, 0
2, 31313, Note_on_c, 3, 67, 0
2, 31320, Note_on_c, 3, 78, 127
2, 31320, Note_on_c, 3, 71, 127
2, 31320, Note_on_c, 3, 63, 127
2, 31343, Note_on_c, 3, 63, 0
2, 31350, Note_on_c, 3, 66, 127
2, 31367, Note_on_c, 3, 78, 0
2, 31367, Note_on_c, 3, 71, 0
2, 31373, Note_on_c, 3, 66, 0
2, 31380, Note_on_c, 3, 59, 127
2, 31403, Note_on_c, 3, 59, 0
2, 31410, Note_on_c, 3, 57, 127
2, 31433, Note_on_c, 3, 57, 0
2, 31440, Note_on_c, 3, 79, 127
2, 31440, Note_on_c, 3, 71, 127
2, 31440, Note_on_c, 3, 64, 127
2, 31440, Note_on_c, 3, 55, 127
2, 31463, Note_on_c, 3, 55, 0
2, 31470, Note_on_c, 3, 59, 127
2, 31493, Note_on_c, 3, 59, 0
2, 31500, Note_on_c, 3, 52, 127
2, 31510, Note_on_c, 3, 79, 0
2, 31510, Note_on_c, 3, 71, 0
2, 31510, Note_on_c, 3, 64, 0
2, 31523, Note_on_c, 3, 52, 0
2, 31530, Note_on_c, 3, 79, 127
2, 31530, Note_on_c, 3, 71, 127
2, 31530, Note_on_c, 3, 64, 127
2, 31530, Note_on_c, 3, 55, 127
2, 31553, Note_on_c, 3, 79, 0
2, 31553, Note_on_c, 3, 71, 0
2, 31553, Note_on_c, 3, 64, 0
2, 31553, Note_on_c, 3, 55, 0
2, 31560, Note_on_c, 3, 81, 127
2, 31560, Note_on_c, 3, 69, 127
2, 31560, Note_on_c, 3, 64, 127
2, 31560, Note_on_c, 3, 48, 127
2, 31607, Note_on_c, 3, 81, 0
2, 31607, Note_on_c, 3, 69, 0
2, 31607, Note_on_c, 3, 64, 0
2, 31607, Note_on_c, 3, 48, 0
2, 31620, Note_on_c, 3, 79, 127
2, 31620, Note_on_c, 3, 72, 127
2, 31620, Note_on_c, 3, 64, 127
2, 31620, Note_on_c, 3, 57, 127
2, 31643, Note_on_c, 3, 79, 0
2, 31650, Note_on_c, 3, 78, 127
2, 31667, Note_on_c, 3, 72, 0
2, 31667, Note_on_c, 3, 64, 0
2, 31667, Note_on_c, 3, 57, 0
2, 31673, Note_on_c, 3, 78, 0
2, 31680, Note_on_c, 3, 79, 127
2, 31680, Note_on_c, 3, 71, 127
2, 31680, Note_on_c, 3, 64, 127
2, 31680, Note_on_c, 3, 59, 127
2, 31727, Note_on_c, 3, 79, 0
2, 31727, Note_on_c, 3, 71, 0
2, 31727, Note_on_c, 3, 64, 0
2, 31727, Note_on_c, 3, 59, 0
2, 31740, Note_on_c, 3, 78, 127
2, 31740, Note_on_c, 3, 69, 127
2, 31740, Note_on_c, 3, 63, 127
2, 31740, Note_on_c, 3, 47, 127
2, 31763, Note_on_c, 3, 78, 0
2, 31770, Note_on_c, 3, 76, 127
2, 31787, Note_on_c, 3, 69, 0
2, 31787, Note_on_c, 3, 63, 0
2, 31787, Note_on_c, 3, 47, 0
2, 31793, Note_on_c, 3, 76, 0
2, 31800, Note_on_c, 3, 76, 127
2, 31800, Note_on_c, 3, 67, 127
2, 31800, Note_on_c, 3, 64, 127
2, 31800, Note_on_c, 3, 52, 127
2, 31847, Note_on_c, 3, 76, 0
2, 31847, Note_on_c, 3, 67, 0
2, 31847, Note_on_c, 3, 64, 0
2, 31847, Note_on_c, 3, 52, 0
2, 31860, Note_on_c, 3, 40, 127
2, 31890, Note_on_c, 3, 78, 127
2, 31890, Note_on_c, 3, 63, 127
2, 31907, Note_on_c, 3, 40, 0
2, 31913, Note_on_c, 3, 78, 0
2, 31913, Note_on_c, 3, 63, 0
2, 31920, Note_on_c, 3, 79, 127
2, 31920, Note_on_c, 3, 64, 127
2, 31943, Note_on_c, 3, 79, 0
2, 31943, Note_on_c, 3, 64, 0
2, 31950, Note_on_c, 3, 83, 127
2, 31950, Note_on_c, 3, 67, 127
2, 31973, Note_on_c, 3, 83, 0
2, 31973, Note_on_c, 3, 67, 0
2, 31980, Note_on_c, 3, 75, 127
2, 31980, Note_on_c, 3, 66, 127
2, 32003, Note_on_c, 3, 75, 0
2, 32003, Note_on_c, 3, 66, 0
2, 32010, Note_on_c, 3, 78, 127
2, 32010, Note_on_c, 3, 69, 127
2, 32033, Note_on_c, 3, 78, 0
2, 32033, Note_on_c, 3, 69, 0
2, 32040, Note_on_c, 3, 76, 127
2, 32040, Note_on_c, 3, 71, 127
2, 32040, Note_on_c, 3, 67, 127
2, 32070, Note_on_c, 3, 52, 127
2, 32087, Note_on_c, 3, 76, 0
2, 32087, Note_on_c, 3, 71, 0
2, 32087, Note_on_c, 3, 67, 0
2, 32093, Note_on_c, 3, 52, 0
2, 32100, Note_on_c, 3, 40, 127
2, 32123, Note_on_c, 3, 40, 0
2, 32130, Note_on_c, 3, 75, 127
2, 32130, Note_on_c, 3, 66, 127
2, 32153, Note_on_c, 3, 75, 0
2, 32153, Note_on_c, 3, 66, 0
2, 32160, Note_on_c, 3, 76, 127
2, 32160, Note_on_c, 3, 67, 127
2, 32183, Note_on_c, 3, 76, 0
2, 32183, Note_on_c, 3, 67, 0
2, 32190, Note_on_c, 3, 79, 127
2, 32190, Note_on_c, 3, 71, 127
2, 32213, Note_on_c, 3, 79, 0
2, 32213, Note_on_c, 3, 71, 0
2, 32220, Note_on_c, 3, 78, 127
2, 32220, Note_on_c, 3, 63, 127
2, 32243, Note_on_c, 3, 78, 0
2, 32243, Note_on_c, 3, 63, 0
2, 32250, Note_on_c, 3, 81, 127
2, 32250, Note_on_c, 3, 66, 127
2, 32273, Note_on_c, 3, 81, 0
2, 32273, Note_on_c, 3, 66, 0
2, 32280, Note_on_c, 3, 79, 127
2, 32280, Note_on_c, 3, 71, 127
2, 32280, Note_on_c, 3, 64, 127
2, 32310, Note_on_c, 3, 52, 127
2, 32327, Note_on_c, 3, 79, 0
2, 32327, Note_on_c, 3, 71, 0
2, 32327, Note_on_c, 3, 64, 0
2, 32333, Note_on_c, 3, 52, 0
2, 32340, Note_on_c, 3, 40, 127
2, 32363, Note_on_c, 3, 40, 0
2, 32370, Note_on_c, 3, 78, 127
2, 32370, Note_on_c, 3, 63, 127
2, 32393, Note_on_c, 3, 78, 0
2, 32393, Note_on_c, 3, 63, 0
2, 32400, Note_on_c, 3, 80, 127
2, 32400, Note_on_c, 3, 64, 127
2, 32423, Note_on_c, 3, 80, 0
2, 32423, Note_on_c, 3, 64, 0
2, 32430, Note_on_c, 3, 81, 127
2, 32430, Note_on_c, 3, 65, 127
2, 32453, Note_on_c, 3, 81, 0
2, 32453, Note_on_c, 3, 65, 0
2, 32460, Note_on_c, 3, 80, 127
2, 32460, Note_on_c, 3, 59, 127
2, 32483, Note_on_c, 3, 80, 0
2, 32483, Note_on_c, 3, 59, 0
2, 32490, Note_on_c, 3, 83, 127
2, 32490, Note_on_c, 3, 62, 127
2, 32513, Note_on_c, 3, 83, 0
2, 32513, Note_on_c, 3, 62, 0
2, 32520, Note_on_c, 3, 81, 127
2, 32520, Note_on_c, 3, 64, 127
2, 32520, Note_on_c, 3, 60, 127
2, 32550, Note_on_c, 3, 57, 127
2, 32567, Note_on_c, 3, 81, 0
2, 32567, Note_on_c, 3, 64, 0
2, 32567, Note_on_c, 3, 60, 0
2, 32573, Note_on_c, 3, 57, 0
2, 32580, Note_on_c, 3, 45, 127
2, 32603, Note_on_c, 3, 45, 0
2, 32610, Note_on_c, 3, 71, 127
2, 32610, Note_on_c, 3, 56, 127
2, 32633, Note_on_c, 3, 71, 0
2, 32633, Note_on_c, 3, 56, 0
2, 32640, Note_on_c, 3, 72, 127
2, 32640, Note_on_c, 3, 57, 127
2, 32663, Note_on_c, 3, 72, 0
2, 32663, Note_on_c, 3, 57, 0
2, 32670, Note_on_c, 3, 76, 127
2, 32670, Note_on_c, 3, 60, 127
2, 32693, Note_on_c, 3, 76, 0
2, 32693, Note_on_c, 3, 60, 0
2, 32700, Note_on_c, 3, 68, 127
2, 32700, Note_on_c, 3, 59, 127
2, 32723, Note_on_c, 3, 68, 0
2, 32723, Note_on_c, 3, 59, 0
2, 32730, Note_on_c, 3, 71, 127
2, 32730, Note_on_c, 3, 62, 127
2, 32753, Note_on_c, 3, 71, 0
2, 32753, Note_on_c, 3, 62, 0
2, 32760, Note_on_c, 3, 69, 127
2, 32760, Note_on_c, 3, 64, 127
2, 32760, Note_on_c, 3, 60, 127
2, 32790, Note_on_c, 3, 57, 127
2, 32807, Note_on_c, 3, 69, 0
2, 32807, Note_on_c, 3, 64, 0
2, 32807, Note_on_c, 3, 60, 0
2, 32813, Note_on_c, 3, 57, 0
2, 32820, Note_on_c, 3, 45, 127
2, 32843, Note_on_c, 3, 45, 0
2, 32850, Note_on_c, 3, 68, 127
2, 32850, Note_on_c, 3, 59, 127
2, 32873, Note_on_c, 3, 68, 0
2, 32873, Note_on_c, 3, 59, 0
2, 32880, Note_on_c, 3, 69, 127
2, 32880, Note_on_c, 3, 60, 127
2, 32903, Note_on_c, 3, 69, 0
2, 32903, Note_on_c, 3, 60, 0
2, 32910, Note_on_c, 3, 72, 127
2, 32910, Note_on_c, 3, 64, 127
2, 32933, Note_on_c, 3, 72, 0
2, 32933, Note_on_c, 3, 64, 0
2, 32940, Note_on_c, 3, 71, 127
2, 32940, Note_on_c, 3, 56, 127
2, 32963, Note_on_c, 3, 71, 0
2, 32963, Note_on_c, 3, 56, 0
2, 32970, Note_on_c, 3, 74, 127
2, 32970, Note_on_c, 3, 59, 127
2, 32993, Note_on_c, 3, 74, 0
2, 32993, Note_on_c, 3, 59, 0
2, 33000, Note_on_c, 3, 72, 127
2, 33000, Note_on_c, 3, 64, 127
2, 33000, Note_on_c, 3, 57, 127
2, 33030, Note_on_c, 3, 57, 127
2, 33047, Note_on_c, 3, 72, 0
2, 33047, Note_on_c, 3, 64, 0
2, 33047, Note_on_c, 3, 57, 0
2, 33053, Note_on_c, 3, 57, 0
2, 33060, Note_on_c, 3, 45, 127
2, 33083, Note_on_c, 3, 45, 0
2, 33090, Note_on_c, 3, 71, 127
2, 33090, Note_on_c, 3, 56, 127
2, 33113, Note_on_c, 3, 71, 0
2, 33113, Note_on_c, 3, 56, 0
2, 33120, Note_on_c, 3, 72, 127
2, 33120, Note_on_c, 3, 57, 127
2, 33143, Note_on_c, 3, 72, 0
2, 33143, Note_on_c, 3, 57, 0
2, 33150, Note_on_c, 3, 76, 127
2, 33150, Note_on_c, 3, 60, 127
2, 33173, Note_on_c, 3, 76, 0
2, 33173, Note_on_c, 3, 60, 0
2, 33180, Note_on_c, 3, 74, 127
2, 33180, Note_on_c, 3, 59, 127
2, 33203, Note_on_c, 3, 74, 0
2, 33203, Note_on_c, 3, 59, 0
2, 33210, Note_on_c, 3, 77, 127
2, 33210, Note_on_c, 3, 62, 127
2, 33233, Note_on_c, 3, 77, 0
2, 33233, Note_on_c, 3, 62, 0
2, 33240, Note_on_c, 3, 76, 127
2, 33240, Note_on_c, 3, 60, 127
2, 33263, Note_on_c, 3, 76, 0
2, 33263, Note_on_c, 3, 60, 0
2, 33270, Note_on_c, 3, 79, 127
2, 33270, Note_on_c, 3, 64, 127
2, 33293, Note_on_c, 3, 79, 0
2, 33293, Note_on_c, 3, 64, 0
2, 33300, Note_on_c, 3, 77, 127
2, 33300, Note_on_c, 3, 62, 127
2, 33300, Note_on_c, 3, 57, 127
2, 33323, Note_on_c, 3, 77, 0
2, 33323, Note_on_c, 3, 62, 0
2, 33330, Note_on_c, 3, 81, 127
2, 33330, Note_on_c, 3, 65, 127
2, 33347, Note_on_c, 3, 57, 0
2, 33353, Note_on_c, 3, 81, 0
2, 33353, Note_on_c, 3, 65, 0
2, 33360, Note_on_c, 3, 79, 127
2, 33360, Note_on_c, 3, 64, 127
2, 33360, Note_on_c, 3, 52, 127
2, 33383, Note_on_c, 3, 79, 0
2, 33383, Note_on_c, 3, 64, 0
2, 33390, Note_on_c, 3, 81, 127
2, 33390, Note_on_c, 3, 65, 127
2, 33407, Note_on_c, 3, 52, 0
2, 33413, Note_on_c, 3, 81, 0
2, 33413, Note_on_c, 3, 65, 0
2, 33420, Note_on_c, 3, 77, 127
2, 33420, Note_on_c, 3, 62, 127
2, 33420, Note_on_c, 3, 53, 127
2, 33443, Note_on_c, 3, 77, 0
2, 33443, Note_on_c, 3, 62, 0
2, 33450, Note_on_c, 3, 76, 127
2, 33450, Note_on_c, 3, 60, 127
2, 33467, Note_on_c, 3, 53, 0
2, 33473, Note_on_c, 3, 76, 0
2, 33473, Note_on_c, 3, 60, 0
2, 33480, Note_on_c, 3, 74, 127
2, 33480, Note_on_c, 3, 67, 127
2, 33480, Note_on_c, 3, 59, 127
2, 33510, Note_on_c, 3, 55, 127
2, 33527, Note_on_c, 3, 74, 0
2, 33527, Note_on_c, 3, 67, 0
2, 33527, Note_on_c, 3, 59, 0
2, 33533, Note_on_c, 3, 55, 0
2, 33540, Note_on_c, 3, 43, 127
2, 33563, Note_on_c, 3, 43, 0
2, 33570, Note_on_c, 3, 66, 127
2, 33570, Note_on_c, 3, 57, 127
2, 33593, Note_on_c, 3, 66, 0
2, 33593, Note_on_c, 3, 57, 0
2, 33600, Note_on_c, 3, 67, 127
2, 33600, Note_on_c, 3, 59, 127
2, 33623, Note_on_c, 3, 67, 0
2, 33623, Note_on_c, 3, 59, 0
2, 33630, Note_on_c, 3, 71, 127
2, 33630, Note_on_c, 3, 62, 127
2, 33653, Note_on_c, 3, 71, 0
2, 33653, Note_on_c, 3, 62, 0
2, 33660, Note_on_c, 3, 69, 127
2, 33660, Note_on_c, 3, 54, 127
2, 33683, Note_on_c, 3, 69, 0
2, 33683, Note_on_c, 3, 54, 0
2, 33690, Note_on_c, 3, 72, 127
2, 33690, Note_on_c, 3, 57, 127
2, 33713, Note_on_c, 3, 72, 0
2, 33713, Note_on_c, 3, 57, 0
2, 33720, Note_on_c, 3, 71, 127
2, 33720, Note_on_c, 3, 55, 127
2, 33750, Note_on_c, 3, 55, 127
2, 33767, Note_on_c, 3, 71, 0
2, 33767, Note_on_c, 3, 55, 0
2, 33773, Note_on_c, 3, 55, 0
2, 33780, Note_on_c, 3, 43, 127
2, 33803, Note_on_c, 3, 43, 0
2, 33810, Note_on_c, 3, 69, 127
2, 33810, Note_on_c, 3, 62, 127
2, 33810, Note_on_c, 3, 54, 127
2, 33833, Note_on_c, 3, 69, 0
2, 33833, Note_on_c, 3, 62, 0
2, 33833, Note_on_c, 3, 54, 0
2, 33840, Note_on_c, 3, 71, 127
2, 33840, Note_on_c, 3, 62, 127
2, 33840, Note_on_c, 3, 55, 127
2, 33863, Note_on_c, 3, 62, 0
2, 33863, Note_on_c, 3, 55, 0
2, 33870, Note_on_c, 3, 67, 127
2, 33870, Note_on_c, 3, 59, 127
2, 33887, Note_on_c, 3, 71, 0
2, 33893, Note_on_c, 3, 67, 0
2, 33893, Note_on_c, 3, 59, 0
2, 33900, Note_on_c, 3, 72, 127
2, 33900, Note_on_c, 3, 66, 127
2, 33900, Note_on_c, 3, 57, 127
2, 33923, Note_on_c, 3, 66, 0
2, 33923, Note_on_c, 3, 57, 0
2, 33930, Note_on_c, 3, 69, 127
2, 33930, Note_on_c, 3, 60, 127
2, 33947, Note_on_c, 3, 72, 0
2, 33953, Note_on_c, 3, 69, 0
2, 33953, Note_on_c, 3, 60, 0
2, 33960, Note_on_c, 3, 74, 127
2, 33960, Note_on_c, 3, 67, 127
2, 33960, Note_on_c, 3, 59, 127
2, 33990, Note_on_c, 3, 55, 127
2, 34007, Note_on_c, 3, 74, 0
2, 34007, Note_on_c, 3, 67, 0
2, 34007, Note_on_c, 3, 59, 0
2, 34013, Note_on_c, 3, 55, 0
2, 34020, Note_on_c, 3, 43, 127
2, 34043, Note_on_c, 3, 43, 0
2, 34050, Note_on_c, 3, 55, 127
2, 34073, Note_on_c, 3, 55, 0
2, 34080, Note_on_c, 3, 52, 127
2, 34103, Note_on_c, 3, 52, 0
2, 34110, Note_on_c, 3, 53, 127
2, 34133, Note_on_c, 3, 53, 0
2, 34140, Note_on_c, 3, 50, 127
2, 34163, Note_on_c, 3, 50, 0
2, 34170, Note_on_c, 3, 52, 127
2, 34193, Note_on_c, 3, 52, 0
2, 34200, Note_on_c, 3, 49, 127
2, 34223, Note_on_c, 3, 49, 0
2, 34230, Note_on_c, 3, 50, 127
2, 34253, Note_on_c, 3, 50, 0
2, 34260, Note_on_c, 3, 76, 127
2, 34260, Note_on_c, 3, 79, 127
2, 34260, Note_on_c, 3, 69, 127
2, 34260, Note_on_c, 3, 64, 127
2, 34260, Note_on_c, 3, 57, 127
2, 34260, Note_on_c, 3, 47, 127
2, 34283, Note_on_c, 3, 47, 0
2, 34290, Note_on_c, 3, 50, 127
2, 34307, Note_on_c, 3, 76, 0
2, 34307, Note_on_c, 3, 79, 0
2, 34307, Note_on_c, 3, 69, 0
2, 34307, Note_on_c, 3, 64, 0
2, 34307, Note_on_c, 3, 57, 0
2, 34313, Note_on_c, 3, 50, 0
2, 34320, Note_on_c, 3, 76, 127
2, 34320, Note_on_c, 3, 79, 127
2, 34320, Note_on_c, 3, 69, 127
2, 34320, Note_on_c, 3, 64, 127
2, 34320, Note_on_c, 3, 57, 127
2, 34320, Note_on_c, 3, 49, 127
2, 34343, Note_on_c, 3, 49, 0
2, 34350, Note_on_c, 3, 50, 127
2, 34373, Note_on_c, 3, 50, 0
2, 34380, Note_on_c, 3, 47, 127
2, 34390, Note_on_c, 3, 76, 0
2, 34390, Note_on_c, 3, 79, 0
2, 34390, Note_on_c, 3, 69, 0
2, 34390, Note_on_c, 3, 64, 0
2, 34390, Note_on_c, 3, 57, 0
2, 34403, Note_on_c, 3, 47, 0
2, 34410, Note_on_c, 3, 76, 127
2, 34410, Note_on_c, 3, 79, 127
2, 34410, Note_on_c, 3, 69, 127
2, 34410, Note_on_c, 3, 64, 127
2, 34410, Note_on_c, 3, 57, 127
2, 34410, Note_on_c, 3, 49, 127
2, 34433, Note_on_c, 3, 76, 0
2, 34433, Note_on_c, 3, 79, 0
2, 34433, Note_on_c, 3, 69, 0
2, 34433, Note_on_c, 3, 64, 0
2, 34433, Note_on_c, 3, 57, 0
2, 34433, Note_on_c, 3, 49, 0
2, 34440, Note_on_c, 3, 74, 127
2, 34440, Note_on_c, 3, 77, 127
2, 34440, Note_on_c, 3, 69, 127
2, 34440, Note_on_c, 3, 65, 127
2, 34440, Note_on_c, 3, 62, 127
2, 34440, Note_on_c, 3, 50, 127
2, 34463, Note_on_c, 3, 50, 0
2, 34470, Note_on_c, 3, 53, 127
2, 34487, Note_on_c, 3, 74, 0
2, 34487, Note_on_c, 3, 77, 0
2, 34487, Note_on_c, 3, 69, 0
2, 34487, Note_on_c, 3, 65, 0
2, 34487, Note_on_c, 3, 62, 0
2, 34493, Note_on_c, 3, 53, 0
2, 34500, Note_on_c, 3, 52, 127
2, 34523, Note_on_c, 3, 52, 0
2, 34530, Note_on_c, 3, 53, 127
2, 34553, Note_on_c, 3, 53, 0
2, 34560, Note_on_c, 3, 50, 127
2, 34583, Note_on_c, 3, 50, 0
2, 34590, Note_on_c, 3, 52, 127
2, 34613, Note_on_c, 3, 52, 0
2, 34620, Note_on_c, 3, 48, 127
2, 34643, Note_on_c, 3, 48, 0
2, 34650, Note_on_c, 3, 50, 127
2, 34673, Note_on_c, 3, 50, 0
2, 34680, Note_on_c, 3, 47, 127
2, 34703, Note_on_c, 3, 47, 0
2, 34710, Note_on_c, 3, 50, 127
2, 34733, Note_on_c, 3, 50, 0
2, 34740, Note_on_c, 3, 74, 127
2, 34740, Note_on_c, 3, 77, 127
2, 34740, Note_on_c, 3, 67, 127
2, 34740, Note_on_c, 3, 62, 127
2, 34740, Note_on_c, 3, 55, 127
2, 34740, Note_on_c, 3, 48, 127
2, 34763, Note_on_c, 3, 48, 0
2, 34770, Note_on_c, 3, 50, 127
2, 34787, Note_on_c, 3, 74, 0
2, 34787, Note_on_c, 3, 77, 0
2, 34787, Note_on_c, 3, 67, 0
2, 34787, Note_on_c, 3, 62, 0
2, 34787, Note_on_c, 3, 55, 0
2, 34793, Note_on_c, 3, 50, 0
2, 34800, Note_on_c, 3, 74, 127
2, 34800, Note_on_c, 3, 77, 127
2, 34800, Note_on_c, 3, 67, 127
2, 34800, Note_on_c, 3, 62, 127
2, 34800, Note_on_c, 3, 55, 127
2, 34800, Note_on_c, 3, 47, 127
2, 34823, Note_on_c, 3, 47, 0
2, 34830, Note_on_c, 3, 48, 127
2, 34853, Note_on_c, 3, 48, 0
2, 34860, Note_on_c, 3, 45, 127
2, 34870, Note_on_c, 3, 74, 0
2, 34870, Note_on_c, 3, 77, 0
2, 34870, Note_on_c, 3, 67, 0
2, 34870, Note_on_c, 3, 62, 0
2, 34870, Note_on_c, 3, 55, 0
2, 34883, Note_on_c, 3, 45, 0
2, 34890, Note_on_c, 3, 74, 127
2, 34890, Note_on_c, 3, 77, 127
2, 34890, Note_on_c, 3, 67, 127
2, 34890, Note_on_c, 3, 62, 127
2, 34890, Note_on_c, 3, 55, 127
2, 34890, Note_on_c, 3, 47, 127
2, 34913, Note_on_c, 3, 74, 0
2, 34913, Note_on_c, 3, 77, 0
2, 34913, Note_on_c, 3, 67, 0
2, 34913, Note_on_c, 3, 62, 0
2, 34913, Note_on_c, 3, 55, 0
2, 34913, Note_on_c, 3, 47, 0
2, 34920, Note_on_c, 3, 72, 127
2, 34920, Note_on_c, 3, 76, 127
2, 34920, Note_on_c, 3, 67, 127
2, 34920, Note_on_c, 3, 64, 127
2, 34920, Note_on_c, 3, 60, 127
2, 34920, Note_on_c, 3, 48, 127
2, 34943, Note_on_c, 3, 48, 0
2, 34950, Note_on_c, 3, 52, 127
2, 34967, Note_on_c, 3, 72, 0
2, 34967, Note_on_c, 3, 76, 0
2, 34967, Note_on_c, 3, 67, 0
2, 34967, Note_on_c, 3, 64, 0
2, 34967, Note_on_c, 3, 60, 0
2, 34973, Note_on_c, 3, 52, 0
2, 34980, Note_on_c, 3, 50, 127
2, 35003, Note_on_c, 3, 50, 0
2, 35010, Note_on_c, 3, 52, 127
2, 35033, Note_on_c, 3, 52, 0
2, 35040, Note_on_c, 3, 48, 127
2, 35063, Note_on_c, 3, 48, 0
2, 35070, Note_on_c, 3, 50, 127
2, 35093, Note_on_c, 3, 50, 0
2, 35100, Note_on_c, 3, 72, 127
2, 35100, Note_on_c, 3, 76, 127
2, 35100, Note_on_c, 3, 67, 127
2, 35100, Note_on_c, 3, 60, 127
2, 35100, Note_on_c, 3, 47, 127
2, 35123, Note_on_c, 3, 47, 0
2, 35130, Note_on_c, 3, 48, 127
2, 35147, Note_on_c, 3, 72, 0
2, 35147, Note_on_c, 3, 76, 0
2, 35147, Note_on_c, 3, 67, 0
2, 35147, Note_on_c, 3, 60, 0
2, 35153, Note_on_c, 3, 48, 0
2, 35160, Note_on_c, 3, 77, 127
2, 35160, Note_on_c, 3, 72, 127
2, 35160, Note_on_c, 3, 65, 127
2, 35160, Note_on_c, 3, 60, 127
2, 35160, Note_on_c, 3, 45, 127
2, 35183, Note_on_c, 3, 45, 0
2, 35190, Note_on_c, 3, 57, 127
2, 35207, Note_on_c, 3, 77, 0
2, 35207, Note_on_c, 3, 72, 0
2, 35207, Note_on_c, 3, 65, 0
2, 35207, Note_on_c, 3, 60, 0
2, 35213, Note_on_c, 3, 57, 0
2, 35220, Note_on_c, 3, 76, 127
2, 35220, Note_on_c, 3, 71, 127
2, 35220, Note_on_c, 3, 67, 127
2, 35220, Note_on_c, 3, 64, 127
2, 35220, Note_on_c, 3, 55, 127
2, 35243, Note_on_c, 3, 55, 0
2, 35250, Note_on_c, 3, 57, 127
2, 35267, Note_on_c, 3, 76, 0
2, 35267, Note_on_c, 3, 71, 0
2, 35267, Note_on_c, 3, 67, 0
2, 35267, Note_on_c, 3, 64, 0
2, 35273, Note_on_c, 3, 57, 0
2, 35280, Note_on_c, 3, 74, 127
2, 35280, Note_on_c, 3, 69, 127
2, 35280, Note_on_c, 3, 62, 127
2, 35280, Note_on_c, 3, 57, 127
2, 35280, Note_on_c, 3, 53, 127
2, 35303, Note_on_c, 3, 53, 0
2, 35310, Note_on_c, 3, 55, 127
2, 35327, Note_on_c, 3, 74, 0
2, 35327, Note_on_c, 3, 69, 0
2, 35327, Note_on_c, 3, 62, 0
2, 35327, Note_on_c, 3, 57, 0
2, 35333, Note_on_c, 3, 55, 0
2, 35340, Note_on_c, 3, 72, 127
2, 35340, Note_on_c, 3, 67, 127
2, 35340, Note_on_c, 3, 64, 127
2, 35340, Note_on_c, 3, 60, 127
2, 35340, Note_on_c, 3, 52, 127
2, 35363, Note_on_c, 3, 52, 0
2, 35370, Note_on_c, 3, 53, 127
2, 35387, Note_on_c, 3, 72, 0
2, 35387, Note_on_c, 3, 67, 0
2, 35387, Note_on_c, 3, 64, 0
2, 35387, Note_on_c, 3, 60, 0
2, 35393, Note_on_c, 3, 53, 0
2, 35400, Note_on_c, 3, 77, 127
2, 35400, Note_on_c, 3, 71, 127
2, 35400, Note_on_c, 3, 65, 127
2, 35400, Note_on_c, 3, 62, 127
2, 35400, Note_on_c, 3, 50, 127
2, 35423, Note_on_c, 3, 50, 0
2, 35430, Note_on_c, 3, 52, 127
2, 35447, Note_on_c, 3, 77, 0
2, 35447, Note_on_c, 3, 71, 0
2, 35447, Note_on_c, 3, 65, 0
2, 35447, Note_on_c, 3, 62, 0
2, 35453, Note_on_c, 3, 52, 0
2, 35460, Note_on_c, 3, 76, 127
2, 35460, Note_on_c, 3, 72, 127
2, 35460, Note_on_c, 3, 67, 127
2, 35460, Note_on_c, 3, 64, 127
2, 35460, Note_on_c, 3, 48, 127
2, 35483, Note_on_c, 3, 48, 0
2, 35490, Note_on_c, 3, 50, 127
2, 35507, Note_on_c, 3, 76, 0
2, 35507, Note_on_c, 3, 72, 0
2, 35507, Note_on_c, 3, 67, 0
2, 35507, Note_on_c, 3, 64, 0
2, 35513, Note_on_c, 3, 50, 0
2, 35520, Note_on_c, 3, 74, 127
2, 35520, Note_on_c, 3, 67, 127
2, 35520, Note_on_c, 3, 62, 127
2, 35520, Note_on_c, 3, 59, 127
2, 35520, Note_on_c, 3, 47, 127
2, 35543, Note_on_c, 3, 47, 0
2, 35550, Note_on_c, 3, 48, 127
2, 35567, Note_on_c, 3, 74, 0
2, 35567, Note_on_c, 3, 67, 0
2, 35567, Note_on_c, 3, 62, 0
2, 35567, Note_on_c, 3, 59, 0
2, 35573, Note_on_c, 3, 48, 0
2, 35580, Note_on_c, 3, 72, 127
2, 35580, Note_on_c, 3, 69, 127
2, 35580, Note_on_c, 3, 65, 127
2, 35580, Note_on_c, 3, 60, 127
2, 35580, Note_on_c, 3, 45, 127
2, 35603, Note_on_c, 3, 45, 0
2, 35610, Note_on_c, 3, 47, 127
2, 35627, Note_on_c, 3, 72, 0
2, 35627, Note_on_c, 3, 69, 0
2, 35627, Note_on_c, 3, 65, 0
2, 35627, Note_on_c, 3, 60, 0
2, 35633, Note_on_c, 3, 47, 0
2, 35640, Note_on_c, 3, 74, 127
2, 35640, Note_on_c, 3, 77, 127
2, 35640, Note_on_c, 3, 71, 127
2, 35640, Note_on_c, 3, 62, 127
2, 35640, Note_on_c, 3, 43, 127
2, 35735, Note_on_c, 3, 74, 0
2, 35735, Note_on_c, 3, 77, 0
2, 35735, Note_on_c, 3, 71, 0
2, 35735, Note_on_c, 3, 62, 0
2, 35735, Note_on_c, 3, 43, 0
2, 35790, Note_on_c, 3, 74, 127
2, 35790, Note_on_c, 3, 59, 127
2, 35813, Note_on_c, 3, 74, 0
2, 35813, Note_on_c, 3, 59, 0
2, 35820, Note_on_c, 3, 76, 127
2, 35820, Note_on_c, 3, 60, 127
2, 35843, Note_on_c, 3, 76, 0
2, 35843, Note_on_c, 3, 60, 0
2, 35850, Note_on_c, 3, 77, 127
2, 35850, Note_on_c, 3, 62, 127
2, 35873, Note_on_c, 3, 77, 0
2, 35873, Note_on_c, 3, 62, 0
2, 35880, Note_on_c, 3, 79, 127
2, 35880, Note_on_c, 3, 64, 127
2, 35910, Note_on_c, 3, 50, 127
2, 35927, Note_on_c, 3, 79, 0
2, 35927, Note_on_c, 3, 64, 0
2, 35933, Note_on_c, 3, 50, 0
2, 35940, Note_on_c, 3, 72, 127
2, 35940, Note_on_c, 3, 64, 127
2, 35940, Note_on_c, 3, 52, 127
2, 35963, Note_on_c, 3, 72, 0
2, 35963, Note_on_c, 3, 64, 0
2, 35963, Note_on_c, 3, 52, 0
2, 35970, Note_on_c, 3, 74, 127
2, 35970, Note_on_c, 3, 65, 127
2, 35970, Note_on_c, 3, 48, 127
2, 35993, Note_on_c, 3, 74, 0
2, 35993, Note_on_c, 3, 65, 0
2, 35993, Note_on_c, 3, 48, 0
2, 36000, Note_on_c, 3, 71, 127
2, 36000, Note_on_c, 3, 62, 127
2, 36000, Note_on_c, 3, 55, 127
2, 36023, Note_on_c, 3, 71, 0
2, 36023, Note_on_c, 3, 62, 0
2, 36030, Note_on_c, 3, 74, 127
2, 36030, Note_on_c, 3, 65, 127
2, 36047, Note_on_c, 3, 55, 0
2, 36053, Note_on_c, 3, 74, 0
2, 36053, Note_on_c, 3, 65, 0
2, 36060, Note_on_c, 3, 72, 127
2, 36060, Note_on_c, 3, 64, 127
2, 36060, Note_on_c, 3, 43, 127
2, 36083, Note_on_c, 3, 72, 0
2, 36083, Note_on_c, 3, 64, 0
2, 36090, Note_on_c, 3, 71, 127
2, 36090, Note_on_c, 3, 65, 127
2, 36090, Note_on_c, 3, 62, 127
2, 36107, Note_on_c, 3, 43, 0
2, 36113, Note_on_c, 3, 71, 0
2, 36113, Note_on_c, 3, 65, 0
2, 36113, Note_on_c, 3, 62, 0
2, 36120, Note_on_c, 3, 67, 127
2, 36120, Note_on_c, 3, 72, 127
2, 36120, Note_on_c, 3, 64, 127
2, 36120, Note_on_c, 3, 60, 127
2, 36150, Note_on_c, 3, 48, 127
2, 36167, Note_on_c, 3, 67, 0
2, 36167, Note_on_c, 3, 72, 0
2, 36167, Note_on_c, 3, 64, 0
2, 36167, Note_on_c, 3, 60, 0
2, 36173, Note_on_c, 3, 48, 0
2, 36180, Note_on_c, 3, 36, 127
2, 36203, Note_on_c, 3, 36, 0
2, 36210, Note_on_c, 3, 71, 127
2, 36210, Note_on_c, 3, 62, 127
2, 36233, Note_on_c, 3, 71, 0
2, 36233, Note_on_c, 3, 62, 0
2, 36240, Note_on_c, 3, 72, 127
2, 36240, Note_on_c, 3, 64, 127
2, 36263, Note_on_c, 3, 72, 0
2, 36263, Note_on_c, 3, 64, 0
2, 36270, Note_on_c, 3, 76, 127
2, 36270, Note_on_c, 3, 67, 127
2, 36293, Note_on_c, 3, 76, 0
2, 36293, Note_on_c, 3, 67, 0
2, 36300, Note_on_c, 3, 74, 127
2, 36300, Note_on_c, 3, 59, 127
2, 36323, Note_on_c, 3, 74, 0
2, 36323, Note_on_c, 3, 59, 0
2, 36330, Note_on_c, 3, 77, 127
2, 36330, Note_on_c, 3, 62, 127
2, 36353, Note_on_c, 3, 77, 0
2, 36353, Note_on_c, 3, 62, 0
2, 36360, Note_on_c, 3, 76, 127
2, 36360, Note_on_c, 3, 67, 127
2, 36360, Note_on_c, 3, 60, 127
2, 36390, Note_on_c, 3, 48, 127
2, 36407, Note_on_c, 3, 76, 0
2, 36407, Note_on_c, 3, 67, 0
2, 36407, Note_on_c, 3, 60, 0
2, 36413, Note_on_c, 3, 48, 0
2, 36420, Note_on_c, 3, 36, 127
2, 36443, Note_on_c, 3, 36, 0
2, 36450, Note_on_c, 3, 74, 127
2, 36450, Note_on_c, 3, 59, 127
2, 36473, Note_on_c, 3, 74, 0
2, 36473, Note_on_c, 3, 59, 0
2, 36480, Note_on_c, 3, 76, 127
2, 36480, Note_on_c, 3, 60, 127
2, 36503, Note_on_c, 3, 76, 0
2, 36503, Note_on_c, 3, 60, 0
2, 36510, Note_on_c, 3, 79, 127
2, 36510, Note_on_c, 3, 64, 127
2, 36533, Note_on_c, 3, 79, 0
2, 36533, Note_on_c, 3, 64, 0
2, 36540, Note_on_c, 3, 71, 127
2, 36540, Note_on_c, 3, 62, 127
2, 36563, Note_on_c, 3, 71, 0
2, 36563, Note_on_c, 3, 62, 0
2, 36570, Note_on_c, 3, 74, 127
2, 36570, Note_on_c, 3, 65, 127
2, 36593, Note_on_c, 3, 74, 0
2, 36593, Note_on_c, 3, 65, 0
2, 36600, Note_on_c, 3, 72, 127
2, 36600, Note_on_c, 3, 67, 127
2, 36600, Note_on_c, 3, 64, 127
2, 36630, Note_on_c, 3, 48, 127
2, 36647, Note_on_c, 3, 72, 0
2, 36647, Note_on_c, 3, 67, 0
2, 36647, Note_on_c, 3, 64, 0
2, 36653, Note_on_c, 3, 48, 0
2, 36660, Note_on_c, 3, 36, 127
2, 36683, Note_on_c, 3, 36, 0
2, 36690, Note_on_c, 3, 67, 127
2, 36690, Note_on_c, 3, 64, 127
2, 36713, Note_on_c, 3, 67, 0
2, 36713, Note_on_c, 3, 64, 0
2, 36720, Note_on_c, 3, 69, 127
2, 36720, Note_on_c, 3, 65, 127
2, 36743, Note_on_c, 3, 69, 0
2, 36750, Note_on_c, 3, 71, 127
2, 36762, Note_on_c, 3, 71, 0
2, 36765, Note_on_c, 3, 72, 127
2, 36767, Note_on_c, 3, 65, 0
2, 36777, Note_on_c, 3, 72, 0
2, 36780, Note_on_c, 3, 71, 127
2, 36780, Note_on_c, 3, 62, 127
2, 36803, Note_on_c, 3, 71, 0
2, 36810, Note_on_c, 3, 72, 127
2, 36822, Note_on_c, 3, 72, 0
2, 36825, Note_on_c, 3, 74, 127
2, 36827, Note_on_c, 3, 62, 0
2, 36837, Note_on_c, 3, 74, 0
2, 36840, Note_on_c, 3, 72, 127
2, 36840, Note_on_c, 3, 64, 127
2, 36863, Note_on_c, 3, 72, 0
2, 36870, Note_on_c, 3, 74, 127
2, 36882, Note_on_c, 3, 74, 0
2, 36885, Note_on_c, 3, 76, 127
2, 36887, Note_on_c, 3, 64, 0
2, 36897, Note_on_c, 3, 76, 0
2, 36900, Note_on_c, 3, 74, 127
2, 36900, Note_on_c, 3, 59, 127
2, 36923, Note_on_c, 3, 74, 0
2, 36930, Note_on_c, 3, 76, 127
2, 36942, Note_on_c, 3, 76, 0
2, 36945, Note_on_c, 3, 77, 127
2, 36947, Note_on_c, 3, 59, 0
2, 36957, Note_on_c, 3, 77, 0
2, 36960, Note_on_c, 3, 76, 127
2, 36960, Note_on_c, 3, 60, 127
2, 36983, Note_on_c, 3, 76, 0
2, 36990, Note_on_c, 3, 77, 127
2, 37002, Note_on_c, 3, 77, 0
2, 37005, Note_on_c, 3, 79, 127
2, 37007, Note_on_c, 3, 60, 0
2, 37017, Note_on_c, 3, 79, 0
2, 37020, Note_on_c, 3, 77, 127
2, 37020, Note_on_c, 3, 62, 127
2, 37043, Note_on_c, 3, 77, 0
2, 37050, Note_on_c, 3, 79, 127
2, 37062, Note_on_c, 3, 79, 0
2, 37065, Note_on_c, 3, 81, 127
2, 37067, Note_on_c, 3, 62, 0
2, 37077, Note_on_c, 3, 81, 0
2, 37080, Note_on_c, 3, 79, 127
2, 37080, Note_on_c, 3, 64, 127
2, 37080, Note_on_c, 3, 36, 127
2, 37110, Note_on_c, 3, 67, 127
2, 37127, Note_on_c, 3, 79, 0
2, 37133, Note_on_c, 3, 67, 0
2, 37139, Note_on_c, 3, 36, 0
2, 37140, Note_on_c, 3, 72, 127
2, 37150, Note_on_c, 3, 64, 0
2, 37170, Note_on_c, 3, 52, 127
2, 37187, Note_on_c, 3, 72, 0
2, 37193, Note_on_c, 3, 52, 0
2, 37200, Note_on_c, 3, 53, 127
2, 37230, Note_on_c, 3, 69, 127
2, 37253, Note_on_c, 3, 69, 0
2, 37260, Note_on_c, 3, 77, 127
2, 37260, Note_on_c, 3, 74, 127
2, 37270, Note_on_c, 3, 53, 0
2, 37283, Note_on_c, 3, 74, 0
2, 37290, Note_on_c, 3, 69, 127
2, 37290, Note_on_c, 3, 50, 127
2, 37313, Note_on_c, 3, 69, 0
2, 37313, Note_on_c, 3, 50, 0
2, 37320, Note_on_c, 3, 71, 127
2, 37320, Note_on_c, 3, 55, 127
2, 37350, Note_on_c, 3, 62, 127
2, 37361, Note_on_c, 3, 77, 0
2, 37367, Note_on_c, 3, 71, 0
2, 37367, Note_on_c, 3, 55, 0
2, 37373, Note_on_c, 3, 62, 0
2, 37380, Note_on_c, 3, 76, 127
2, 37380, Note_on_c, 3, 72, 127
2, 37380, Note_on_c, 3, 64, 127
2, 37403, Note_on_c, 3, 64, 0
2, 37410, Note_on_c, 3, 60, 127
2, 37427, Note_on_c, 3, 76, 0
2, 37433, Note_on_c, 3, 60, 0
2, 37440, Note_on_c, 3, 74, 127
2, 37440, Note_on_c, 3, 67, 127
2, 37457, Note_on_c, 3, 72, 0
2, 37470, Note_on_c, 3, 69, 127
2, 37493, Note_on_c, 3, 69, 0
2, 37500, Note_on_c, 3, 71, 127
2, 37500, Note_on_c, 3, 55, 127
2, 37510, Note_on_c, 3, 67, 0
2, 37530, Note_on_c, 3, 65, 127
2, 37535, Note_on_c, 3, 74, 0
2, 37547, Note_on_c, 3, 71, 0
2, 37547, Note_on_c, 3, 55, 0
2, 37553, Note_on_c, 3, 65, 0
2, 37560, Note_on_c, 3, 72, 127
2, 37560, Note_on_c, 3, 67, 127
2, 37560, Note_on_c, 3, 64, 127
2, 37560, Note_on_c, 3, 60, 127
2, 37560, Note_on_c, 3, 36, 127
2, 37583, Note_on_c, 3, 60, 0
2, 37590, Note_on_c, 3, 55, 127
2, 37607, Note_on_c, 3, 72, 0
2, 37607, Note_on_c, 3, 67, 0
2, 37607, Note_on_c, 3, 64, 0
2, 37613, Note_on_c, 3, 55, 0
2, 37619, Note_on_c, 3, 36, 0
2, 37620, Note_on_c, 3, 48, 127
2, 37643, Note_on_c, 3, 48, 0
2, 37650, Note_on_c, 3, 76, 127
2, 37650, Note_on_c, 3, 71, 127
2, 37650, Note_on_c, 3, 55, 127
2, 37673, Note_on_c, 3, 76, 0
2, 37673, Note_on_c, 3, 71, 0
2, 37673, Note_on_c, 3, 55, 0
2, 37680, Note_on_c, 3, 77, 127
2, 37680, Note_on_c, 3, 72, 127
2, 37680, Note_on_c, 3, 57, 127
2, 37703, Note_on_c, 3, 57, 0
2, 37710, Note_on_c, 3, 59, 127
2, 37722, Note_on_c, 3, 59, 0
2, 37725, Note_on_c, 3, 60, 127
2, 37727, Note_on_c, 3, 77, 0
2, 37727, Note_on_c, 3, 72, 0
2, 37737, Note_on_c, 3, 60, 0
2, 37740, Note_on_c, 3, 74, 127
2, 37740, Note_on_c, 3, 67, 127
2, 37740, Note_on_c, 3, 59, 127
2, 37763, Note_on_c, 3, 59, 0
2, 37770, Note_on_c, 3, 60, 127
2, 37782, Note_on_c, 3, 60, 0
2, 37785, Note_on_c, 3, 62, 127
2, 37787, Note_on_c, 3, 74, 0
2, 37787, Note_on_c, 3, 67, 0
2, 37797, Note_on_c, 3, 62, 0
2, 37800, Note_on_c, 3, 76, 127
2, 37800, Note_on_c, 3, 67, 127
2, 37800, Note_on_c, 3, 60, 127
2, 37823, Note_on_c, 3, 60, 0
2, 37830, Note_on_c, 3, 62, 127
2, 37842, Note_on_c, 3, 62, 0
2, 37845, Note_on_c, 3, 64, 127
2, 37847, Note_on_c, 3, 76, 0
2, 37847, Note_on_c, 3, 67, 0
2, 37857, Note_on_c, 3, 64, 0
2, 37860, Note_on_c, 3, 71, 127
2, 37860, Note_on_c, 3, 65, 127
2, 37860, Note_on_c, 3, 62, 127
2, 37883, Note_on_c, 3, 62, 0
2, 37890, Note_on_c, 3, 64, 127
2, 37902, Note_on_c, 3, 64, 0
2, 37905, Note_on_c, 3, 65, 127
2, 37907, Note_on_c, 3, 71, 0
2, 37907, Note_on_c, 3, 65, 0
2, 37917, Note_on_c, 3, 65, 0
2, 37920, Note_on_c, 3, 72, 127
2, 37920, Note_on_c, 3, 67, 127
2, 37920, Note_on_c, 3, 64, 127
2, 37943, Note_on_c, 3, 64, 0
2, 37950, Note_on_c, 3, 65, 127
2, 37962, Note_on_c, 3, 65, 0
2, 37965, Note_on_c, 3, 67, 127
2, 37967, Note_on_c, 3, 72, 0
2, 37967, Note_on_c, 3, 67, 0
2, 37977, Note_on_c, 3, 67, 0
2, 37980, Note_on_c, 3, 74, 127
2, 37980, Note_on_c, 3, 71, 127
2, 37980, Note_on_c, 3, 65, 127
2, 38003, Note_on_c, 3, 65, 0
2, 38010, Note_on_c, 3, 67, 127
2, 38022, Note_on_c, 3, 67, 0
2, 38025, Note_on_c, 3, 69, 127
2, 38027, Note_on_c, 3, 74, 0
2, 38027, Note_on_c, 3, 71, 0
2, 38037, Note_on_c, 3, 69, 0
2, 38040, Note_on_c, 3, 76, 127
2, 38040, Note_on_c, 3, 72, 127
2, 38040, Note_on_c, 3, 67, 127
2, 38040, Note_on_c, 3, 36, 127
2, 38063, Note_on_c, 3, 76, 0
2, 38070, Note_on_c, 3, 79, 127
2, 38087, Note_on_c, 3, 72, 0
2, 38087, Note_on_c, 3, 67, 0
2, 38093, Note_on_c, 3, 79, 0
2, 38099, Note_on_c, 3, 36, 0
2, 38100, Note_on_c, 3, 84, 127
2, 38130, Note_on_c, 3, 76, 127
2, 38147, Note_on_c, 3, 84, 0
2, 38153, Note_on_c, 3, 76, 0
2, 38160, Note_on_c, 3, 77, 127
2, 38190, Note_on_c, 3, 81, 127
2, 38213, Note_on_c, 3, 81, 0
2, 38220, Note_on_c, 3, 86, 127
2, 38220, Note_on_c, 3, 65, 127
2, 38230, Note_on_c, 3, 77, 0
2, 38243, Note_on_c, 3, 86, 0
2, 38250, Note_on_c, 3, 81, 127
2, 38250, Note_on_c, 3, 74, 127
2, 38273, Note_on_c, 3, 81, 0
2, 38273, Note_on_c, 3, 74, 0
2, 38280, Note_on_c, 3, 79, 127
2, 38280, Note_on_c, 3, 83, 127
2, 38310, Note_on_c, 3, 74, 127
2, 38321, Note_on_c, 3, 65, 0
2, 38327, Note_on_c, 3, 79, 0
2, 38327, Note_on_c, 3, 83, 0
2, 38333, Note_on_c, 3, 74, 0
2, 38340, Note_on_c, 3, 79, 127
2, 38340, Note_on_c, 3, 84, 127
2, 38340, Note_on_c, 3, 76, 127
2, 38340, Note_on_c, 3, 64, 127
2, 38363, Note_on_c, 3, 76, 0
2, 38370, Note_on_c, 3, 72, 127
2, 38387, Note_on_c, 3, 79, 0
2, 38387, Note_on_c, 3, 84, 0
2, 38387, Note_on_c, 3, 64, 0
2, 38393, Note_on_c, 3, 72, 0
2, 38400, Note_on_c, 3, 74, 127
2, 38400, Note_on_c, 3, 77, 127
2, 38400, Note_on_c, 3, 62, 127
2, 38430, Note_on_c, 3, 81, 127
2, 38447, Note_on_c, 3, 74, 0
2, 38447, Note_on_c, 3, 62, 0
2, 38453, Note_on_c, 3, 81, 0
2, 38460, Note_on_c, 3, 83, 127
2, 38460, Note_on_c, 3, 74, 127
2, 38460, Note_on_c, 3, 67, 127
2, 38477, Note_on_c, 3, 77, 0
2, 38490, Note_on_c, 3, 77, 127
2, 38507, Note_on_c, 3, 67, 0
2, 38510, Note_on_c, 3, 83, 0
2, 38510, Note_on_c, 3, 74, 0
2, 38513, Note_on_c, 3, 77, 0
2, 38520, Note_on_c, 3, 79, 127
2, 38520, Note_on_c, 3, 84, 127
2, 38520, Note_on_c, 3, 76, 127
2, 38520, Note_on_c, 3, 60, 127
2, 38520, Note_on_c, 3, 36, 127
2, 38543, Note_on_c, 3, 60, 0
2, 38550, Note_on_c, 3, 67, 127
2, 38567, Note_on_c, 3, 79, 0
2, 38567, Note_on_c, 3, 84, 0
2, 38567, Note_on_c, 3, 76, 0
2, 38573, Note_on_c, 3, 67, 0
2, 38580, Note_on_c, 3, 72, 127
2, 38583, Note_on_c, 3, 36, 0
2, 38603, Note_on_c, 3, 72, 0
2, 38610, Note_on_c, 3, 82, 127
2, 38633, Note_on_c, 3, 82, 0
2, 38640, Note_on_c, 3, 81, 127
2, 38663, Note_on_c, 3, 81, 0
2, 38670, Note_on_c, 3, 84, 127
2, 38693, Note_on_c, 3, 84, 0
2, 38700, Note_on_c, 3, 77, 127
2, 38723, Note_on_c, 3, 77, 0
2, 38730, Note_on_c, 3, 81, 127
2, 38753, Note_on_c, 3, 81, 0
2, 38760, Note_on_c, 3, 76, 127
2, 38783, Note_on_c, 3, 76, 0
2, 38790, Note_on_c, 3, 79, 127
2, 38813, Note_on_c, 3, 79, 0
2, 38820, Note_on_c, 3, 72, 127
2, 38843, Note_on_c, 3, 72, 0
2, 38850, Note_on_c, 3, 70, 127
2, 38873, Note_on_c, 3, 70, 0
2, 38880, Note_on_c, 3, 77, 127
2, 38880, Note_on_c, 3, 72, 127
2, 38880, Note_on_c, 3, 69, 127
2, 38903, Note_on_c, 3, 69, 0
2, 38910, Note_on_c, 3, 72, 127
2, 38930, Note_on_c, 3, 72, 0
2, 38940, Note_on_c, 3, 65, 127
2, 38950, Note_on_c, 3, 77, 0
2, 38953, Note_on_c, 3, 72, 0
2, 38963, Note_on_c, 3, 65, 0
2, 38970, Note_on_c, 3, 77, 127
2, 38970, Note_on_c, 3, 72, 127
2, 38970, Note_on_c, 3, 69, 127
2, 38993, Note_on_c, 3, 77, 0
2, 38993, Note_on_c, 3, 72, 0
2, 38993, Note_on_c, 3, 69, 0
2, 39000, Note_on_c, 3, 79, 127
2, 39000, Note_on_c, 3, 72, 127
2, 39000, Note_on_c, 3, 64, 127
2, 39000, Note_on_c, 3, 36, 127
2, 39023, Note_on_c, 3, 64, 0
2, 39030, Note_on_c, 3, 67, 127
2, 39047, Note_on_c, 3, 79, 0
2, 39047, Note_on_c, 3, 72, 0
2, 39053, Note_on_c, 3, 67, 0
2, 39059, Note_on_c, 3, 36, 0
2, 39060, Note_on_c, 3, 60, 127
2, 39083, Note_on_c, 3, 60, 0
2, 39090, Note_on_c, 3, 70, 127
2, 39113, Note_on_c, 3, 70, 0
2, 39120, Note_on_c, 3, 68, 127
2, 39143, Note_on_c, 3, 68, 0
2, 39150, Note_on_c, 3, 72, 127
2, 39173, Note_on_c, 3, 72, 0
2, 39180, Note_on_c, 3, 65, 127
2, 39203, Note_on_c, 3, 65, 0
2, 39210, Note_on_c, 3, 68, 127
2, 39233, Note_on_c, 3, 68, 0
2, 39240, Note_on_c, 3, 64, 127
2, 39263, Note_on_c, 3, 64, 0
2, 39270, Note_on_c, 3, 67, 127
2, 39293, Note_on_c, 3, 67, 0
2, 39300, Note_on_c, 3, 60, 127
2, 39323, Note_on_c, 3, 60, 0
2, 39330, Note_on_c, 3, 58, 127
2, 39353, Note_on_c, 3, 58, 0
2, 39360, Note_on_c, 3, 56, 127
2, 39383, Note_on_c, 3, 56, 0
2, 39390, Note_on_c, 3, 60, 127
2, 39413, Note_on_c, 3, 60, 0
2, 39420, Note_on_c, 3, 53, 127
2, 39443, Note_on_c, 3, 53, 0
2, 39450, Note_on_c, 3, 56, 127
2, 39473, Note_on_c, 3, 56, 0
2, 39480, Note_on_c, 3, 52, 127
2, 39503, Note_on_c, 3, 52, 0
2, 39510, Note_on_c, 3, 55, 127
2, 39533, Note_on_c, 3, 55, 0
2, 39540, Note_on_c, 3, 48, 127
2, 39563, Note_on_c, 3, 48, 0
2, 39570, Note_on_c, 3, 46, 127
2, 39593, Note_on_c, 3, 46, 0
2, 39600, Note_on_c, 3, 44, 127
2, 39623, Note_on_c, 3, 44, 0
2, 39630, Note_on_c, 3, 48, 127
2, 39653, Note_on_c, 3, 48, 0
2, 39660, Note_on_c, 3, 41, 127
2, 39683, Note_on_c, 3, 41, 0
2, 39690, Note_on_c, 3, 44, 127
2, 39713, Note_on_c, 3, 44, 0
2, 39720, Note_on_c, 3, 36, 127
2, 39780, Note_on_c, 3, 72, 127
2, 39780, Note_on_c, 3, 77, 127
2, 39780, Note_on_c, 3, 68, 127
2, 39780, Note_on_c, 3, 65, 127
2, 39780, Note_on_c, 3, 60, 127
2, 39827, Note_on_c, 3, 72, 0
2, 39827, Note_on_c, 3, 77, 0
2, 39827, Note_on_c, 3, 68, 0
2, 39827, Note_on_c, 3, 65, 0
2, 39827, Note_on_c, 3, 60, 0
2, 39840, Note_on_c, 3, 71, 127
2, 39840, Note_on_c, 3, 68, 127
2, 39840, Note_on_c, 3, 65, 127
2, 39840, Note_on_c, 3, 62, 127
2, 39887, Note_on_c, 3, 68, 0
2, 39887, Note_on_c, 3, 65, 0
2, 39887, Note_on_c, 3, 62, 0
2, 39900, Note_on_c, 3, 67, 127
2, 39900, Note_on_c, 3, 62, 127
2, 39900, Note_on_c, 3, 55, 127
2, 39910, Note_on_c, 3, 71, 0
2, 39923, Note_on_c, 3, 36, 0
2, 39923, Note_on_c, 3, 67, 0
2, 39930, Note_on_c, 3, 71, 127
2, 39930, Note_on_c, 3, 65, 127
2, 39947, Note_on_c, 3, 62, 0
2, 39947, Note_on_c, 3, 55, 0
2, 39953, Note_on_c, 3, 71, 0
2, 39953, Note_on_c, 3, 65, 0
2, 39960, Note_on_c, 3, 67, 127
2, 39960, Note_on_c, 3, 72, 127
2, 39960, Note_on_c, 3, 64, 127
2, 39960, Note_on_c, 3, 67, 127
2, 39960, Note_on_c, 3, 60, 127
2, 39960, Note_on_c, 3, 55, 127
2, 39960, Note_on_c, 3, 36, 127
2, 40379, Note_on_c, 3, 67, 0
2, 40379, Note_on_c, 3, 72, 0
2, 40379, Note_on_c, 3, 64, 0
2, 40379, Note_on_c, 3, 67, 0
2, 40379, Note_on_c, 3, 60, 0
2, 40379, Note_on_c, 3, 55, 0
2, 40379, Note_on_c, 3, 36, 0
2, 40800, Control_c, 3, 7, 90
2, 40800, Control_c, 3, 7, 90
2, 40800, Control_c, 3, 7, 90
2, 40920, Note_on_c, 3, 76, 127
2, 40920, Note_on_c, 3, 69, 127
2, 40920, Note_on_c, 3, 60, 127
2, 40920, Note_on_c, 3, 45, 127
2, 40943, Note_on_c, 3, 76, 0
2, 40950, Note_on_c, 3, 74, 127
2, 40973, Note_on_c, 3, 74, 0
2, 40980, Note_on_c, 3, 76, 127
2, 41123, Note_on_c, 3, 45, 0
2, 41160, Note_on_c, 3, 57, 127
2, 41352, Note_on_c, 3, 69, 0
2, 41363, Note_on_c, 3, 57, 0
2, 41370, Note_on_c, 3, 60, 0
2, 41372, Note_on_c, 3, 76, 0
2, 41400, Note_on_c, 3, 57, 127
2, 41603, Note_on_c, 3, 57, 0
2, 41640, Note_on_c, 3, 76, 127
2, 41640, Note_on_c, 3, 69, 127
2, 41640, Note_on_c, 3, 60, 127
2, 41640, Note_on_c, 3, 45, 127
2, 41843, Note_on_c, 3, 76, 0
2, 41843, Note_on_c, 3, 45, 0
2, 41856, Note_on_c, 3, 69, 0
2, 41865, Note_on_c, 3, 60, 0
2, 41880, Note_on_c, 3, 76, 127
2, 41880, Note_on_c, 3, 71, 127
2, 41880, Note_on_c, 3, 59, 127
2, 41880, Note_on_c, 3, 44, 127
2, 42029, Note_on_c, 3, 76, 0
2, 42060, Note_on_c, 3, 83, 127
2, 42083, Note_on_c, 3, 44, 0
2, 42119, Note_on_c, 3, 83, 0
2, 42120, Note_on_c, 3, 80, 127
2, 42120, Note_on_c, 3, 56, 127
2, 42269, Note_on_c, 3, 80, 0
2, 42300, Note_on_c, 3, 83, 127
2, 42312, Note_on_c, 3, 71, 0
2, 42323, Note_on_c, 3, 56, 0
2, 42330, Note_on_c, 3, 59, 0
2, 42359, Note_on_c, 3, 83, 0
2, 42360, Note_on_c, 3, 76, 127
2, 42360, Note_on_c, 3, 56, 127
2, 42383, Note_on_c, 3, 76, 0
2, 42390, Note_on_c, 3, 74, 127
2, 42413, Note_on_c, 3, 74, 0
2, 42420, Note_on_c, 3, 76, 127
2, 42432, Note_on_c, 3, 76, 0
2, 42435, Note_on_c, 3, 74, 127
2, 42447, Note_on_c, 3, 74, 0
2, 42450, Note_on_c, 3, 76, 127
2, 42462, Note_on_c, 3, 76, 0
2, 42465, Note_on_c, 3, 74, 127
2, 42477, Note_on_c, 3, 74, 0
2, 42480, Note_on_c, 3, 72, 127
2, 42492, Note_on_c, 3, 72, 0
2, 42495, Note_on_c, 3, 74, 127
2, 42563, Note_on_c, 3, 56, 0
2, 42600, Note_on_c, 3, 71, 127
2, 42600, Note_on_c, 3, 64, 127
2, 42600, Note_on_c, 3, 44, 127
2, 42684, Note_on_c, 3, 74, 0
2, 42720, Note_on_c, 3, 74, 127
2, 42803, Note_on_c, 3, 71, 0
2, 42803, Note_on_c, 3, 64, 0
2, 42803, Note_on_c, 3, 44, 0
2, 42815, Note_on_c, 3, 74, 0
2, 42840, Note_on_c, 3, 74, 127
2, 42840, Note_on_c, 3, 71, 127
2, 42840, Note_on_c, 3, 64, 127
2, 42840, Note_on_c, 3, 45, 127
2, 42935, Note_on_c, 3, 74, 0
2, 42960, Note_on_c, 3, 72, 127
2, 43043, Note_on_c, 3, 45, 0
2, 43055, Note_on_c, 3, 72, 0
2, 43061, Note_on_c, 3, 71, 0
2, 43080, Note_on_c, 3, 72, 127
2, 43080, Note_on_c, 3, 69, 127
2, 43080, Note_on_c, 3, 57, 127
2, 43283, Note_on_c, 3, 57, 0
2, 43295, Note_on_c, 3, 64, 0
2, 43296, Note_on_c, 3, 69, 0
2, 43310, Note_on_c, 3, 72, 0
2, 43320, Note_on_c, 3, 57, 127
2, 43523, Note_on_c, 3, 57, 0
2, 43560, Note_on_c, 3, 72, 127
2, 43560, Note_on_c, 3, 69, 127
2, 43560, Note_on_c, 3, 64, 127
2, 43560, Note_on_c, 3, 45, 127
2, 43763, Note_on_c, 3, 72, 0
2, 43763, Note_on_c, 3, 45, 0
2, 43781, Note_on_c, 3, 69, 0
2, 43781, Note_on_c, 3, 64, 0
2, 43800, Note_on_c, 3, 72, 127
2, 43800, Note_on_c, 3, 65, 127
2, 43800, Note_on_c, 3, 62, 127
2, 43800, Note_on_c, 3, 50, 127
2, 43949, Note_on_c, 3, 72, 0
2, 43980, Note_on_c, 3, 77, 127
2, 44003, Note_on_c, 3, 50, 0
2, 44039, Note_on_c, 3, 77, 0
2, 44040, Note_on_c, 3, 74, 127
2, 44040, Note_on_c, 3, 62, 127
2, 44202, Note_on_c, 3, 74, 0
2, 44219, Note_on_c, 3, 62, 0
2, 44220, Note_on_c, 3, 77, 127
2, 44232, Note_on_c, 3, 65, 0
2, 44274, Note_on_c, 3, 77, 0
2, 44279, Note_on_c, 3, 62, 0
2, 44280, Note_on_c, 3, 70, 127
2, 44280, Note_on_c, 3, 62, 127
2, 44483, Note_on_c, 3, 62, 0
2, 44520, Note_on_c, 3, 65, 127
2, 44520, Note_on_c, 3, 62, 127
2, 44520, Note_on_c, 3, 50, 127
2, 44591, Note_on_c, 3, 70, 0
2, 44640, Note_on_c, 3, 74, 127
2, 44723, Note_on_c, 3, 50, 0
2, 44741, Note_on_c, 3, 65, 0
2, 44741, Note_on_c, 3, 62, 0
2, 44753, Note_on_c, 3, 74, 0
2, 44760, Note_on_c, 3, 68, 127
2, 44760, Note_on_c, 3, 64, 127
2, 44760, Note_on_c, 3, 59, 127
2, 44760, Note_on_c, 3, 50, 127
2, 44868, Note_on_c, 3, 68, 0
2, 44880, Note_on_c, 3, 66, 127
2, 44963, Note_on_c, 3, 50, 0
2, 44988, Note_on_c, 3, 66, 0
2, 45000, Note_on_c, 3, 68, 127
2, 45000, Note_on_c, 3, 62, 127
2, 45203, Note_on_c, 3, 62, 0
2, 45206, Note_on_c, 3, 64, 0
2, 45210, Note_on_c, 3, 59, 0
2, 45230, Note_on_c, 3, 68, 0
2, 45240, Note_on_c, 3, 62, 127
2, 45360, Note_on_c, 3, 68, 127
2, 45443, Note_on_c, 3, 62, 0
2, 45468, Note_on_c, 3, 68, 0
2, 45480, Note_on_c, 3, 76, 127
2, 45480, Note_on_c, 3, 64, 127
2, 45480, Note_on_c, 3, 59, 127
2, 45480, Note_on_c, 3, 50, 127
2, 45629, Note_on_c, 3, 76, 0
2, 45660, Note_on_c, 3, 68, 127
2, 45683, Note_on_c, 3, 64, 0
2, 45683, Note_on_c, 3, 50, 0
2, 45705, Note_on_c, 3, 59, 0
2, 45719, Note_on_c, 3, 68, 0
2, 45720, Note_on_c, 3, 69, 127
2, 45720, Note_on_c, 3, 64, 127
2, 45720, Note_on_c, 3, 57, 127
2, 45720, Note_on_c, 3, 48, 127
2, 45833, Note_on_c, 3, 69, 0
2, 45840, Note_on_c, 3, 68, 127
2, 45923, Note_on_c, 3, 48, 0
2, 45948, Note_on_c, 3, 68, 0
2, 45960, Note_on_c, 3, 69, 127
2, 45960, Note_on_c, 3, 60, 127
2, 46161, Note_on_c, 3, 64, 0
2, 46163, Note_on_c, 3, 60, 0
2, 46170, Note_on_c, 3, 57, 0
2, 46190, Note_on_c, 3, 69, 0
2, 46200, Note_on_c, 3, 60, 127
2, 46320, Note_on_c, 3, 69, 127
2, 46403, Note_on_c, 3, 60, 0
2, 46433, Note_on_c, 3, 69, 0
2, 46440, Note_on_c, 3, 71, 127
2, 46440, Note_on_c, 3, 69, 127
2, 46440, Note_on_c, 3, 64, 127
2, 46440, Note_on_c, 3, 48, 127
2, 46607, Note_on_c, 3, 71, 0
2, 46620, Note_on_c, 3, 72, 127
2, 46643, Note_on_c, 3, 69, 0
2, 46643, Note_on_c, 3, 48, 0
2, 46665, Note_on_c, 3, 64, 0
2, 46679, Note_on_c, 3, 72, 0
2, 46680, Note_on_c, 3, 74, 127
2, 46680, Note_on_c, 3, 69, 127
2, 46680, Note_on_c, 3, 62, 127
2, 46680, Note_on_c, 3, 47, 127
2, 46775, Note_on_c, 3, 74, 0
2, 46800, Note_on_c, 3, 76, 127
2, 46859, Note_on_c, 3, 76, 0
2, 46860, Note_on_c, 3, 77, 127
2, 46883, Note_on_c, 3, 47, 0
2, 46914, Note_on_c, 3, 77, 0
2, 46920, Note_on_c, 3, 71, 127
2, 46920, Note_on_c, 3, 59, 127
2, 47015, Note_on_c, 3, 71, 0
2, 47040, Note_on_c, 3, 72, 127
2, 47099, Note_on_c, 3, 72, 0
2, 47100, Note_on_c, 3, 74, 127
2, 47121, Note_on_c, 3, 69, 0
2, 47123, Note_on_c, 3, 59, 0
2, 47130, Note_on_c, 3, 62, 0
2, 47159, Note_on_c, 3, 74, 0
2, 47160, Note_on_c, 3, 68, 127
2, 47160, Note_on_c, 3, 59, 127
2, 47309, Note_on_c, 3, 68, 0
2, 47340, Note_on_c, 3, 74, 127
2, 47363, Note_on_c, 3, 59, 0
2, 47394, Note_on_c, 3, 74, 0
2, 47400, Note_on_c, 3, 68, 127
2, 47400, Note_on_c, 3, 64, 127
2, 47400, Note_on_c, 3, 59, 127
2, 47400, Note_on_c, 3, 52, 127
2, 47549, Note_on_c, 3, 68, 0
2, 47580, Note_on_c, 3, 74, 127
2, 47603, Note_on_c, 3, 64, 0
2, 47603, Note_on_c, 3, 52, 0
2, 47621, Note_on_c, 3, 59, 0
2, 47627, Note_on_c, 3, 74, 0
2, 47640, Note_on_c, 3, 74, 127
2, 47640, Note_on_c, 3, 64, 127
2, 47640, Note_on_c, 3, 57, 127
2, 47640, Note_on_c, 3, 45, 127
2, 47735, Note_on_c, 3, 74, 0
2, 47760, Note_on_c, 3, 72, 127
2, 47843, Note_on_c, 3, 45, 0
2, 47855, Note_on_c, 3, 72, 0
2, 47880, Note_on_c, 3, 72, 127
2, 47880, Note_on_c, 3, 57, 127
2, 47939, Note_on_c, 3, 72, 0
2, 47940, Note_on_c, 3, 71, 127
2, 47999, Note_on_c, 3, 71, 0
2, 48000, Note_on_c, 3, 69, 127
2, 48059, Note_on_c, 3, 57, 0
2, 48081, Note_on_c, 3, 64, 0
2, 48113, Note_on_c, 3, 69, 0
2, 48120, Note_on_c, 3, 78, 127
2, 48120, Note_on_c, 3, 57, 127
2, 48123, Note_on_c, 3, 57, 0
2, 48228, Note_on_c, 3, 78, 0
2, 48240, Note_on_c, 3, 79, 127
2, 48294, Note_on_c, 3, 79, 0
2, 48300, Note_on_c, 3, 81, 127
2, 48323, Note_on_c, 3, 57, 0
2, 48359, Note_on_c, 3, 81, 0
2, 48360, Note_on_c, 3, 78, 127
2, 48360, Note_on_c, 3, 72, 127
2, 48360, Note_on_c, 3, 69, 127
2, 48360, Note_on_c, 3, 45, 127
2, 48468, Note_on_c, 3, 78, 0
2, 48480, Note_on_c, 3, 79, 127
2, 48539, Note_on_c, 3, 79, 0
2, 48540, Note_on_c, 3, 81, 127
2, 48563, Note_on_c, 3, 45, 0
2, 48576, Note_on_c, 3, 72, 0
2, 48576, Note_on_c, 3, 69, 0
2, 48594, Note_on_c, 3, 81, 0
2, 48600, Note_on_c, 3, 75, 127
2, 48600, Note_on_c, 3, 71, 127
2, 48600, Note_on_c, 3, 66, 127
2, 48600, Note_on_c, 3, 45, 127
2, 48713, Note_on_c, 3, 75, 0
2, 48720, Note_on_c, 3, 73, 127
2, 48803, Note_on_c, 3, 45, 0
2, 48833, Note_on_c, 3, 73, 0
2, 48840, Note_on_c, 3, 75, 127
2, 48840, Note_on_c, 3, 57, 127
2, 49037, Note_on_c, 3, 71, 0
2, 49043, Note_on_c, 3, 57, 0
2, 49050, Note_on_c, 3, 66, 0
2, 49070, Note_on_c, 3, 75, 0
2, 49080, Note_on_c, 3, 57, 127
2, 49200, Note_on_c, 3, 75, 127
2, 49283, Note_on_c, 3, 57, 0
2, 49313, Note_on_c, 3, 75, 0
2, 49320, Note_on_c, 3, 83, 127
2, 49320, Note_on_c, 3, 71, 127
2, 49320, Note_on_c, 3, 66, 127
2, 49320, Note_on_c, 3, 45, 127
2, 49469, Note_on_c, 3, 83, 0
2, 49500, Note_on_c, 3, 75, 127
2, 49523, Note_on_c, 3, 71, 0
2, 49523, Note_on_c, 3, 45, 0
2, 49536, Note_on_c, 3, 66, 0
2, 49554, Note_on_c, 3, 75, 0
2, 49560, Note_on_c, 3, 76, 127
2, 49560, Note_on_c, 3, 71, 127
2, 49560, Note_on_c, 3, 64, 127
2, 49560, Note_on_c, 3, 43, 127
2, 49668, Note_on_c, 3, 76, 0
2, 49680, Note_on_c, 3, 75, 127
2, 49763, Note_on_c, 3, 43, 0
2, 49793, Note_on_c, 3, 75, 0
2, 49800, Note_on_c, 3, 76, 127
2, 49800, Note_on_c, 3, 55, 127
2, 49997, Note_on_c, 3, 71, 0
2, 50003, Note_on_c, 3, 76, 0
2, 50003, Note_on_c, 3, 55, 0
2, 50010, Note_on_c, 3, 64, 0
2, 50040, Note_on_c, 3, 76, 127
2, 50040, Note_on_c, 3, 55, 127
2, 50144, Note_on_c, 3, 76, 0
2, 50160, Note_on_c, 3, 78, 127
2, 50219, Note_on_c, 3, 78, 0
2, 50220, Note_on_c, 3, 79, 127
2, 50243, Note_on_c, 3, 55, 0
2, 50279, Note_on_c, 3, 79, 0
2, 50280, Note_on_c, 3, 76, 127
2, 50280, Note_on_c, 3, 71, 127
2, 50280, Note_on_c, 3, 64, 127
2, 50280, Note_on_c, 3, 43, 127
2, 50451, Note_on_c, 3, 76, 0
2, 50460, Note_on_c, 3, 79, 127
2, 50483, Note_on_c, 3, 64, 0
2, 50483, Note_on_c, 3, 43, 0
2, 50501, Note_on_c, 3, 71, 0
2, 50514, Note_on_c, 3, 79, 0
2, 50520, Note_on_c, 3, 73, 127
2, 50520, Note_on_c, 3, 69, 127
2, 50520, Note_on_c, 3, 64, 127
2, 50520, Note_on_c, 3, 43, 127
2, 50628, Note_on_c, 3, 73, 0
2, 50640, Note_on_c, 3, 71, 127
2, 50723, Note_on_c, 3, 43, 0
2, 50748, Note_on_c, 3, 71, 0
2, 50760, Note_on_c, 3, 73, 127
2, 50760, Note_on_c, 3, 55, 127
2, 50963, Note_on_c, 3, 73, 0
2, 50963, Note_on_c, 3, 55, 0
2, 50966, Note_on_c, 3, 69, 0
2, 50970, Note_on_c, 3, 64, 0
2, 51000, Note_on_c, 3, 81, 127
2, 51000, Note_on_c, 3, 55, 127
2, 51203, Note_on_c, 3, 55, 0
2, 51240, Note_on_c, 3, 73, 127
2, 51240, Note_on_c, 3, 64, 127
2, 51240, Note_on_c, 3, 43, 127
2, 51443, Note_on_c, 3, 43, 0
2, 51456, Note_on_c, 3, 73, 0
2, 51461, Note_on_c, 3, 64, 0
2, 51480, Note_on_c, 3, 75, 127
2, 51480, Note_on_c, 3, 66, 127
2, 51480, Note_on_c, 3, 42, 127
2, 51540, Note_on_c, 3, 81, 0
2, 51600, Note_on_c, 3, 83, 127
2, 51659, Note_on_c, 3, 83, 0
2, 51660, Note_on_c, 3, 84, 127
2, 51683, Note_on_c, 3, 42, 0
2, 51714, Note_on_c, 3, 84, 0
2, 51720, Note_on_c, 3, 81, 127
2, 51720, Note_on_c, 3, 54, 127
2, 51882, Note_on_c, 3, 81, 0
2, 51900, Note_on_c, 3, 84, 127
2, 51923, Note_on_c, 3, 54, 0
2, 51926, Note_on_c, 3, 75, 0
2, 51926, Note_on_c, 3, 66, 0
2, 51959, Note_on_c, 3, 84, 0
2, 51960, Note_on_c, 3, 75, 127
2, 51960, Note_on_c, 3, 87, 127
2, 51960, Note_on_c, 3, 54, 127
2, 52109, Note_on_c, 3, 75, 0
2, 52118, Note_on_c, 3, 87, 0
2, 52140, Note_on_c, 3, 81, 127
2, 52163, Note_on_c, 3, 54, 0
2, 52194, Note_on_c, 3, 81, 0
2, 52200, Note_on_c, 3, 79, 127
2, 52200, Note_on_c, 3, 75, 127
2, 52200, Note_on_c, 3, 66, 127
2, 52200, Note_on_c, 3, 47, 127
2, 52362, Note_on_c, 3, 79, 0
2, 52380, Note_on_c, 3, 78, 127
2, 52403, Note_on_c, 3, 47, 0
2, 52421, Note_on_c, 3, 75, 0
2, 52421, Note_on_c, 3, 66, 0
2, 52439, Note_on_c, 3, 78, 0
2, 52440, Note_on_c, 3, 79, 127
2, 52440, Note_on_c, 3, 76, 127
2, 52440, Note_on_c, 3, 64, 127
2, 52440, Note_on_c, 3, 40, 127
2, 52643, Note_on_c, 3, 40, 0
2, 52680, Note_on_c, 3, 52, 127
2, 52883, Note_on_c, 3, 52, 0
2, 52890, Note_on_c, 3, 79, 0
2, 52895, Note_on_c, 3, 64, 0
2, 52920, Note_on_c, 3, 52, 127
2, 52989, Note_on_c, 3, 76, 0
2, 53040, Note_on_c, 3, 78, 127
2, 53123, Note_on_c, 3, 52, 0
2, 53148, Note_on_c, 3, 78, 0
2, 53160, Note_on_c, 3, 79, 127
2, 53160, Note_on_c, 3, 71, 127
2, 53160, Note_on_c, 3, 64, 127
2, 53160, Note_on_c, 3, 40, 127
2, 53327, Note_on_c, 3, 79, 0
2, 53340, Note_on_c, 3, 81, 127
2, 53363, Note_on_c, 3, 40, 0
2, 53381, Note_on_c, 3, 71, 0
2, 53381, Note_on_c, 3, 64, 0
2, 53387, Note_on_c, 3, 81, 0
2, 53400, Note_on_c, 3, 77, 127
2, 53400, Note_on_c, 3, 69, 127
2, 53400, Note_on_c, 3, 60, 127
2, 53400, Note_on_c, 3, 45, 127
2, 53412, Note_on_c, 3, 77, 0
2, 53415, Note_on_c, 3, 76, 127
2, 53427, Note_on_c, 3, 76, 0
2, 53430, Note_on_c, 3, 77, 127
2, 53552, Note_on_c, 3, 77, 0
2, 53580, Note_on_c, 3, 76, 127
2, 53603, Note_on_c, 3, 45, 0
2, 53627, Note_on_c, 3, 76, 0
2, 53640, Note_on_c, 3, 77, 127
2, 53640, Note_on_c, 3, 57, 127
2, 53652, Note_on_c, 3, 77, 0
2, 53655, Note_on_c, 3, 76, 127
2, 53667, Note_on_c, 3, 76, 0
2, 53670, Note_on_c, 3, 77, 127
2, 53792, Note_on_c, 3, 77, 0
2, 53820, Note_on_c, 3, 76, 127
2, 53843, Note_on_c, 3, 57, 0
2, 53846, Note_on_c, 3, 69, 0
2, 53850, Note_on_c, 3, 60, 0
2, 53867, Note_on_c, 3, 76, 0
2, 53880, Note_on_c, 3, 77, 127
2, 53880, Note_on_c, 3, 57, 127
2, 53903, Note_on_c, 3, 77, 0
2, 53910, Note_on_c, 3, 76, 127
2, 53933, Note_on_c, 3, 76, 0
2, 53940, Note_on_c, 3, 77, 127
2, 53952, Note_on_c, 3, 77, 0
2, 53955, Note_on_c, 3, 76, 127
2, 53967, Note_on_c, 3, 76, 0
2, 53970, Note_on_c, 3, 77, 127
2, 53982, Note_on_c, 3, 77, 0
2, 53985, Note_on_c, 3, 76, 127
2, 53997, Note_on_c, 3, 76, 0
2, 54000, Note_on_c, 3, 77, 127
2, 54047, Note_on_c, 3, 77, 0
2, 54060, Note_on_c, 3, 76, 127
2, 54083, Note_on_c, 3, 57, 0
2, 54119, Note_on_c, 3, 76, 0
2, 54120, Note_on_c, 3, 77, 127
2, 54120, Note_on_c, 3, 69, 127
2, 54120, Note_on_c, 3, 60, 127
2, 54120, Note_on_c, 3, 45, 127
2, 54180, Note_on_c, 3, 79, 127
2, 54183, Note_on_c, 3, 77, 0
2, 54234, Note_on_c, 3, 79, 0
2, 54240, Note_on_c, 3, 81, 127
2, 54299, Note_on_c, 3, 81, 0
2, 54300, Note_on_c, 3, 75, 127
2, 54323, Note_on_c, 3, 45, 0
2, 54341, Note_on_c, 3, 69, 0
2, 54345, Note_on_c, 3, 60, 0
2, 54347, Note_on_c, 3, 75, 0
2, 54360, Note_on_c, 3, 76, 127
2, 54360, Note_on_c, 3, 67, 127
2, 54360, Note_on_c, 3, 61, 127
2, 54360, Note_on_c, 3, 46, 127
2, 54509, Note_on_c, 3, 76, 0
2, 54540, Note_on_c, 3, 75, 127
2, 54563, Note_on_c, 3, 46, 0
2, 54587, Note_on_c, 3, 75, 0
2, 54600, Note_on_c, 3, 76, 127
2, 54600, Note_on_c, 3, 58, 127
2, 54749, Note_on_c, 3, 76, 0
2, 54780, Note_on_c, 3, 75, 127
2, 54803, Note_on_c, 3, 58, 0
2, 54806, Note_on_c, 3, 67, 0
2, 54810, Note_on_c, 3, 61, 0
2, 54827, Note_on_c, 3, 75, 0
2, 54840, Note_on_c, 3, 76, 127
2, 54840, Note_on_c, 3, 58, 127
2, 54989, Note_on_c, 3, 76, 0
2, 55020, Note_on_c, 3, 75, 127
2, 55043, Note_on_c, 3, 58, 0
2, 55067, Note_on_c, 3, 75, 0
2, 55080, Note_on_c, 3, 76, 127
2, 55080, Note_on_c, 3, 67, 127
2, 55080, Note_on_c, 3, 61, 127
2, 55080, Note_on_c, 3, 46, 127
2, 55229, Note_on_c, 3, 76, 0
2, 55260, Note_on_c, 3, 75, 127
2, 55283, Note_on_c, 3, 67, 0
2, 55283, Note_on_c, 3, 46, 0
2, 55305, Note_on_c, 3, 61, 0
2, 55307, Note_on_c, 3, 75, 0
2, 55320, Note_on_c, 3, 76, 127
2, 55320, Note_on_c, 3, 67, 127
2, 55320, Note_on_c, 3, 59, 127
2, 55320, Note_on_c, 3, 47, 127
2, 55428, Note_on_c, 3, 67, 0
2, 55433, Note_on_c, 3, 76, 0
2, 55440, Note_on_c, 3, 78, 127
2, 55440, Note_on_c, 3, 71, 127
2, 55490, Note_on_c, 3, 78, 0
2, 55500, Note_on_c, 3, 79, 127
2, 55523, Note_on_c, 3, 47, 0
2, 55553, Note_on_c, 3, 71, 0
2, 55554, Note_on_c, 3, 79, 0
2, 55560, Note_on_c, 3, 78, 127
2, 55560, Note_on_c, 3, 69, 127
2, 55560, Note_on_c, 3, 59, 127
2, 55668, Note_on_c, 3, 78, 0
2, 55673, Note_on_c, 3, 69, 0
2, 55680, Note_on_c, 3, 79, 127
2, 55680, Note_on_c, 3, 72, 127
2, 55739, Note_on_c, 3, 59, 0
2, 55739, Note_on_c, 3, 79, 0
2, 55740, Note_on_c, 3, 81, 127
2, 55799, Note_on_c, 3, 59, 0
2, 55799, Note_on_c, 3, 81, 0
2, 55800, Note_on_c, 3, 75, 127
2, 55800, Note_on_c, 3, 66, 127
2, 55800, Note_on_c, 3, 59, 127
2, 55802, Note_on_c, 3, 72, 0
2, 55854, Note_on_c, 3, 75, 0
2, 55860, Note_on_c, 3, 76, 127
2, 55887, Note_on_c, 3, 76, 0
2, 55890, Note_on_c, 3, 75, 127
2, 55902, Note_on_c, 3, 75, 0
2, 55905, Note_on_c, 3, 76, 127
2, 55917, Note_on_c, 3, 76, 0
2, 55920, Note_on_c, 3, 75, 127
2, 55932, Note_on_c, 3, 75, 0
2, 55935, Note_on_c, 3, 76, 127
2, 55947, Note_on_c, 3, 76, 0
2, 55950, Note_on_c, 3, 75, 127
2, 55962, Note_on_c, 3, 75, 0
2, 55965, Note_on_c, 3, 76, 127
2, 55977, Note_on_c, 3, 76, 0
2, 55980, Note_on_c, 3, 75, 127
2, 56003, Note_on_c, 3, 66, 0
2, 56003, Note_on_c, 3, 59, 0
2, 56040, Note_on_c, 3, 66, 127
2, 56040, Note_on_c, 3, 59, 127
2, 56040, Note_on_c, 3, 47, 127
2, 56129, Note_on_c, 3, 75, 0
2, 56160, Note_on_c, 3, 76, 127
2, 56241, Note_on_c, 3, 76, 0
2, 56243, Note_on_c, 3, 59, 0
2, 56243, Note_on_c, 3, 47, 0
2, 56270, Note_on_c, 3, 66, 0
2, 56280, Note_on_c, 3, 76, 127
2, 56280, Note_on_c, 3, 68, 127
2, 56280, Note_on_c, 3, 59, 127
2, 56280, Note_on_c, 3, 40, 127
2, 56483, Note_on_c, 3, 40, 0
2, 56520, Note_on_c, 3, 52, 127
2, 56721, Note_on_c, 3, 68, 0
2, 56723, Note_on_c, 3, 52, 0
2, 56726, Note_on_c, 3, 59, 0
2, 56730, Note_on_c, 3, 76, 0
2, 56760, Note_on_c, 3, 52, 127
2, 56880, Note_on_c, 3, 78, 127
2, 56963, Note_on_c, 3, 52, 0
2, 56993, Note_on_c, 3, 78, 0
2, 57000, Note_on_c, 3, 79, 127
2, 57000, Note_on_c, 3, 71, 127
2, 57000, Note_on_c, 3, 64, 127
2, 57000, Note_on_c, 3, 50, 127
2, 57167, Note_on_c, 3, 79, 0
2, 57180, Note_on_c, 3, 78, 127
2, 57203, Note_on_c, 3, 64, 0
2, 57203, Note_on_c, 3, 50, 0
2, 57225, Note_on_c, 3, 71, 0
2, 57234, Note_on_c, 3, 78, 0
2, 57240, Note_on_c, 3, 79, 127
2, 57240, Note_on_c, 3, 69, 127
2, 57240, Note_on_c, 3, 64, 127
2, 57240, Note_on_c, 3, 49, 127
2, 57407, Note_on_c, 3, 79, 0
2, 57420, Note_on_c, 3, 76, 127
2, 57443, Note_on_c, 3, 49, 0
2, 57474, Note_on_c, 3, 76, 0
2, 57480, Note_on_c, 3, 69, 127
2, 57480, Note_on_c, 3, 61, 127
2, 57618, Note_on_c, 3, 69, 0
2, 57660, Note_on_c, 3, 76, 127
2, 57683, Note_on_c, 3, 61, 0
2, 57690, Note_on_c, 3, 64, 0
2, 57714, Note_on_c, 3, 76, 0
2, 57720, Note_on_c, 3, 79, 127
2, 57720, Note_on_c, 3, 61, 127
2, 57723, Note_on_c, 3, 69, 0
2, 57828, Note_on_c, 3, 79, 0
2, 57840, Note_on_c, 3, 81, 127
2, 57894, Note_on_c, 3, 81, 0
2, 57900, Note_on_c, 3, 82, 127
2, 57923, Note_on_c, 3, 61, 0
2, 57959, Note_on_c, 3, 82, 0
2, 57960, Note_on_c, 3, 81, 127
2, 57960, Note_on_c, 3, 69, 127
2, 57960, Note_on_c, 3, 64, 127
2, 57960, Note_on_c, 3, 49, 127
2, 58100, Note_on_c, 3, 81, 0
2, 58140, Note_on_c, 3, 79, 127
2, 58163, Note_on_c, 3, 69, 0
2, 58163, Note_on_c, 3, 64, 0
2, 58163, Note_on_c, 3, 49, 0
2, 58187, Note_on_c, 3, 79, 0
2, 58200, Note_on_c, 3, 79, 127
2, 58200, Note_on_c, 3, 69, 127
2, 58200, Note_on_c, 3, 64, 127
2, 58200, Note_on_c, 3, 50, 127
2, 58308, Note_on_c, 3, 79, 0
2, 58320, Note_on_c, 3, 77, 127
2, 58403, Note_on_c, 3, 50, 0
2, 58415, Note_on_c, 3, 77, 0
2, 58430, Note_on_c, 3, 64, 0
2, 58440, Note_on_c, 3, 77, 127
2, 58440, Note_on_c, 3, 62, 127
2, 58440, Note_on_c, 3, 62, 127
2, 58641, Note_on_c, 3, 69, 0
2, 58643, Note_on_c, 3, 62, 0
2, 58674, Note_on_c, 3, 77, 0
2, 58674, Note_on_c, 3, 62, 0
2, 58680, Note_on_c, 3, 62, 127
2, 58800, Note_on_c, 3, 76, 127
2, 58883, Note_on_c, 3, 62, 0
2, 58913, Note_on_c, 3, 76, 0
2, 58920, Note_on_c, 3, 77, 127
2, 58920, Note_on_c, 3, 69, 127
2, 58920, Note_on_c, 3, 62, 127
2, 58920, Note_on_c, 3, 50, 127
2, 59087, Note_on_c, 3, 77, 0
2, 59100, Note_on_c, 3, 76, 127
2, 59123, Note_on_c, 3, 62, 0
2, 59123, Note_on_c, 3, 50, 0
2, 59150, Note_on_c, 3, 69, 0
2, 59159, Note_on_c, 3, 76, 0
2, 59160, Note_on_c, 3, 77, 127
2, 59160, Note_on_c, 3, 67, 127
2, 59160, Note_on_c, 3, 62, 127
2, 59160, Note_on_c, 3, 47, 127
2, 59331, Note_on_c, 3, 77, 0
2, 59340, Note_on_c, 3, 74, 127
2, 59363, Note_on_c, 3, 47, 0
2, 59399, Note_on_c, 3, 74, 0
2, 59400, Note_on_c, 3, 67, 127
2, 59400, Note_on_c, 3, 59, 127
2, 59543, Note_on_c, 3, 67, 0
2, 59580, Note_on_c, 3, 74, 127
2, 59603, Note_on_c, 3, 59, 0
2, 59625, Note_on_c, 3, 67, 0
2, 59628, Note_on_c, 3, 62, 0
2, 59634, Note_on_c, 3, 74, 0
2, 59640, Note_on_c, 3, 77, 127
2, 59640, Note_on_c, 3, 59, 127
2, 59748, Note_on_c, 3, 77, 0
2, 59760, Note_on_c, 3, 79, 127
2, 59819, Note_on_c, 3, 79, 0
2, 59820, Note_on_c, 3, 81, 127
2, 59843, Note_on_c, 3, 59, 0
2, 59874, Note_on_c, 3, 81, 0
2, 59880, Note_on_c, 3, 79, 127
2, 59880, Note_on_c, 3, 67, 127
2, 59880, Note_on_c, 3, 62, 127
2, 59880, Note_on_c, 3, 47, 127
2, 60029, Note_on_c, 3, 79, 0
2, 60060, Note_on_c, 3, 77, 127
2, 60083, Note_on_c, 3, 67, 0
2, 60083, Note_on_c, 3, 62, 0
2, 60083, Note_on_c, 3, 47, 0
2, 60107, Note_on_c, 3, 77, 0
2, 60120, Note_on_c, 3, 77, 127
2, 60120, Note_on_c, 3, 67, 127
2, 60120, Note_on_c, 3, 62, 127
2, 60120, Note_on_c, 3, 48, 127
2, 60228, Note_on_c, 3, 77, 0
2, 60240, Note_on_c, 3, 76, 127
2, 60323, Note_on_c, 3, 48, 0
2, 60335, Note_on_c, 3, 76, 0
2, 60341, Note_on_c, 3, 62, 0
2, 60360, Note_on_c, 3, 76, 127
2, 60360, Note_on_c, 3, 60, 127
2, 60360, Note_on_c, 3, 60, 127
2, 60563, Note_on_c, 3, 60, 0
2, 60575, Note_on_c, 3, 67, 0
2, 60590, Note_on_c, 3, 76, 0
2, 60590, Note_on_c, 3, 60, 0
2, 60600, Note_on_c, 3, 60, 127
2, 60720, Note_on_c, 3, 76, 127
2, 60803, Note_on_c, 3, 60, 0
2, 60833, Note_on_c, 3, 76, 0
2, 60840, Note_on_c, 3, 77, 127
2, 60840, Note_on_c, 3, 69, 127
2, 60840, Note_on_c, 3, 64, 127
2, 60840, Note_on_c, 3, 48, 127
2, 61007, Note_on_c, 3, 77, 0
2, 61020, Note_on_c, 3, 76, 127
2, 61043, Note_on_c, 3, 64, 0
2, 61043, Note_on_c, 3, 48, 0
2, 61061, Note_on_c, 3, 69, 0
2, 61079, Note_on_c, 3, 76, 0
2, 61080, Note_on_c, 3, 74, 127
2, 61080, Note_on_c, 3, 71, 127
2, 61080, Note_on_c, 3, 64, 127
2, 61080, Note_on_c, 3, 44, 127
2, 61247, Note_on_c, 3, 74, 0
2, 61260, Note_on_c, 3, 71, 127
2, 61283, Note_on_c, 3, 44, 0
2, 61301, Note_on_c, 3, 71, 0
2, 61320, Note_on_c, 3, 64, 127
2, 61320, Note_on_c, 3, 56, 127
2, 61463, Note_on_c, 3, 64, 0
2, 61500, Note_on_c, 3, 71, 127
2, 61523, Note_on_c, 3, 56, 0
2, 61535, Note_on_c, 3, 71, 0
2, 61554, Note_on_c, 3, 64, 0
2, 61560, Note_on_c, 3, 74, 127
2, 61560, Note_on_c, 3, 56, 127
2, 61568, Note_on_c, 3, 71, 0
2, 61673, Note_on_c, 3, 74, 0
2, 61680, Note_on_c, 3, 76, 127
2, 61739, Note_on_c, 3, 76, 0
2, 61740, Note_on_c, 3, 77, 127
2, 61763, Note_on_c, 3, 56, 0
2, 61787, Note_on_c, 3, 77, 0
2, 61800, Note_on_c, 3, 76, 127
2, 61800, Note_on_c, 3, 71, 127
2, 61800, Note_on_c, 3, 64, 127
2, 61800, Note_on_c, 3, 44, 127
2, 61812, Note_on_c, 3, 76, 0
2, 61815, Note_on_c, 3, 74, 127
2, 61827, Note_on_c, 3, 74, 0
2, 61830, Note_on_c, 3, 76, 127
2, 61842, Note_on_c, 3, 76, 0
2, 61845, Note_on_c, 3, 74, 127
2, 61953, Note_on_c, 3, 74, 0
2, 61980, Note_on_c, 3, 74, 127
2, 62003, Note_on_c, 3, 71, 0
2, 62003, Note_on_c, 3, 64, 0
2, 62003, Note_on_c, 3, 44, 0
2, 62027, Note_on_c, 3, 74, 0
2, 62040, Note_on_c, 3, 74, 127
2, 62040, Note_on_c, 3, 71, 127
2, 62040, Note_on_c, 3, 64, 127
2, 62040, Note_on_c, 3, 45, 127
2, 62148, Note_on_c, 3, 74, 0
2, 62160, Note_on_c, 3, 72, 127
2, 62228, Note_on_c, 3, 72, 0
2, 62243, Note_on_c, 3, 45, 0
2, 62274, Note_on_c, 3, 71, 0
2, 62280, Note_on_c, 3, 72, 127
2, 62280, Note_on_c, 3, 69, 127
2, 62280, Note_on_c, 3, 57, 127
2, 62483, Note_on_c, 3, 57, 0
2, 62495, Note_on_c, 3, 64, 0
2, 62505, Note_on_c, 3, 69, 0
2, 62510, Note_on_c, 3, 72, 0
2, 62520, Note_on_c, 3, 57, 127
2, 62640, Note_on_c, 3, 72, 127
2, 62723, Note_on_c, 3, 57, 0
2, 62753, Note_on_c, 3, 72, 0
2, 62760, Note_on_c, 3, 74, 127
2, 62760, Note_on_c, 3, 69, 127
2, 62760, Note_on_c, 3, 64, 127
2, 62760, Note_on_c, 3, 45, 127
2, 62931, Note_on_c, 3, 74, 0
2, 62940, Note_on_c, 3, 72, 127
2, 62963, Note_on_c, 3, 45, 0
2, 62976, Note_on_c, 3, 64, 0
2, 62990, Note_on_c, 3, 69, 0
2, 62999, Note_on_c, 3, 72, 0
2, 63000, Note_on_c, 3, 70, 127
2, 63000, Note_on_c, 3, 67, 127
2, 63000, Note_on_c, 3, 60, 127
2, 63000, Note_on_c, 3, 40, 127
2, 63167, Note_on_c, 3, 70, 0
2, 63180, Note_on_c, 3, 67, 127
2, 63203, Note_on_c, 3, 40, 0
2, 63221, Note_on_c, 3, 67, 0
2, 63240, Note_on_c, 3, 60, 127
2, 63240, Note_on_c, 3, 52, 127
2, 63387, Note_on_c, 3, 60, 0
2, 63420, Note_on_c, 3, 67, 127
2, 63443, Note_on_c, 3, 52, 0
2, 63450, Note_on_c, 3, 67, 0
2, 63470, Note_on_c, 3, 60, 0
2, 63480, Note_on_c, 3, 70, 127
2, 63480, Note_on_c, 3, 52, 127
2, 63497, Note_on_c, 3, 67, 0
2, 63588, Note_on_c, 3, 70, 0
2, 63600, Note_on_c, 3, 72, 127
2, 63659, Note_on_c, 3, 72, 0
2, 63660, Note_on_c, 3, 74, 127
2, 63683, Note_on_c, 3, 52, 0
2, 63714, Note_on_c, 3, 74, 0
2, 63720, Note_on_c, 3, 70, 127
2, 63720, Note_on_c, 3, 67, 127
2, 63720, Note_on_c, 3, 60, 127
2, 63720, Note_on_c, 3, 40, 127
2, 63869, Note_on_c, 3, 70, 0
2, 63900, Note_on_c, 3, 70, 127
2, 63923, Note_on_c, 3, 67, 0
2, 63923, Note_on_c, 3, 60, 0
2, 63923, Note_on_c, 3, 40, 0
2, 63947, Note_on_c, 3, 70, 0
2, 63960, Note_on_c, 3, 70, 127
2, 63960, Note_on_c, 3, 67, 127
2, 63960, Note_on_c, 3, 60, 127
2, 63960, Note_on_c, 3, 41, 127
2, 64068, Note_on_c, 3, 70, 0
2, 64080, Note_on_c, 3, 69, 127
2, 64163, Note_on_c, 3, 41, 0
2, 64175, Note_on_c, 3, 69, 0
2, 64176, Note_on_c, 3, 67, 0
2, 64200, Note_on_c, 3, 69, 127
2, 64200, Note_on_c, 3, 65, 127
2, 64200, Note_on_c, 3, 53, 127
2, 64403, Note_on_c, 3, 53, 0
2, 64424, Note_on_c, 3, 60, 0
2, 64430, Note_on_c, 3, 69, 0
2, 64430, Note_on_c, 3, 65, 0
2, 64440, Note_on_c, 3, 53, 127
2, 64560, Note_on_c, 3, 69, 127
2, 64643, Note_on_c, 3, 53, 0
2, 64668, Note_on_c, 3, 69, 0
2, 64680, Note_on_c, 3, 70, 127
2, 64680, Note_on_c, 3, 62, 127
2, 64680, Note_on_c, 3, 57, 127
2, 64680, Note_on_c, 3, 41, 127
2, 64847, Note_on_c, 3, 70, 0
2, 64860, Note_on_c, 3, 69, 127
2, 64883, Note_on_c, 3, 57, 0
2, 64883, Note_on_c, 3, 41, 0
2, 64910, Note_on_c, 3, 62, 0
2, 64919, Note_on_c, 3, 69, 0
2, 64920, Note_on_c, 3, 67, 127
2, 64920, Note_on_c, 3, 64, 127
2, 64920, Note_on_c, 3, 57, 127
2, 64920, Note_on_c, 3, 49, 127
2, 65087, Note_on_c, 3, 67, 0
2, 65100, Note_on_c, 3, 64, 127
2, 65123, Note_on_c, 3, 49, 0
2, 65141, Note_on_c, 3, 64, 0
2, 65160, Note_on_c, 3, 57, 127
2, 65160, Note_on_c, 3, 61, 127
2, 65307, Note_on_c, 3, 57, 0
2, 65340, Note_on_c, 3, 64, 127
2, 65363, Note_on_c, 3, 61, 0
2, 65375, Note_on_c, 3, 64, 0
2, 65399, Note_on_c, 3, 57, 0
2, 65400, Note_on_c, 3, 67, 127
2, 65400, Note_on_c, 3, 61, 127
2, 65403, Note_on_c, 3, 64, 0
2, 65508, Note_on_c, 3, 67, 0
2, 65520, Note_on_c, 3, 69, 127
2, 65579, Note_on_c, 3, 69, 0
2, 65580, Note_on_c, 3, 70, 127
2, 65603, Note_on_c, 3, 61, 0
2, 65639, Note_on_c, 3, 70, 0
2, 65640, Note_on_c, 3, 67, 127
2, 65640, Note_on_c, 3, 64, 127
2, 65640, Note_on_c, 3, 57, 127
2, 65640, Note_on_c, 3, 49, 127
2, 65789, Note_on_c, 3, 67, 0
2, 65820, Note_on_c, 3, 67, 127
2, 65843, Note_on_c, 3, 64, 0
2, 65843, Note_on_c, 3, 57, 0
2, 65843, Note_on_c, 3, 49, 0
2, 65867, Note_on_c, 3, 67, 0
2, 65880, Note_on_c, 3, 67, 127
2, 65880, Note_on_c, 3, 64, 127
2, 65880, Note_on_c, 3, 57, 127
2, 65880, Note_on_c, 3, 50, 127
2, 65988, Note_on_c, 3, 67, 0
2, 66000, Note_on_c, 3, 65, 127
2, 66083, Note_on_c, 3, 50, 0
2, 66095, Note_on_c, 3, 65, 0
2, 66105, Note_on_c, 3, 64, 0
2, 66120, Note_on_c, 3, 65, 127
2, 66120, Note_on_c, 3, 62, 127
2, 66120, Note_on_c, 3, 62, 127
2, 66323, Note_on_c, 3, 65, 0
2, 66323, Note_on_c, 3, 62, 0
2, 66335, Note_on_c, 3, 57, 0
2, 66350, Note_on_c, 3, 62, 0
2, 66360, Note_on_c, 3, 65, 127
2, 66360, Note_on_c, 3, 62, 127
2, 66419, Note_on_c, 3, 65, 0
2, 66420, Note_on_c, 3, 64, 127
2, 66474, Note_on_c, 3, 64, 0
2, 66480, Note_on_c, 3, 62, 127
2, 66563, Note_on_c, 3, 62, 0
2, 66575, Note_on_c, 3, 62, 0
2, 66600, Note_on_c, 3, 69, 127
2, 66600, Note_on_c, 3, 65, 127
2, 66600, Note_on_c, 3, 62, 127
2, 66600, Note_on_c, 3, 50, 127
2, 66660, Note_on_c, 3, 67, 127
2, 66668, Note_on_c, 3, 69, 0
2, 66719, Note_on_c, 3, 67, 0
2, 66720, Note_on_c, 3, 65, 127
2, 66803, Note_on_c, 3, 65, 0
2, 66803, Note_on_c, 3, 62, 0
2, 66803, Note_on_c, 3, 50, 0
2, 66833, Note_on_c, 3, 65, 0
2, 66840, Note_on_c, 3, 70, 127
2, 66840, Note_on_c, 3, 67, 127
2, 66840, Note_on_c, 3, 62, 127
2, 66840, Note_on_c, 3, 43, 127
2, 66899, Note_on_c, 3, 70, 0
2, 66900, Note_on_c, 3, 69, 127
2, 66959, Note_on_c, 3, 69, 0
2, 66960, Note_on_c, 3, 67, 127
2, 67043, Note_on_c, 3, 67, 0
2, 67043, Note_on_c, 3, 43, 0
2, 67080, Note_on_c, 3, 74, 127
2, 67080, Note_on_c, 3, 55, 127
2, 67140, Note_on_c, 3, 72, 127
2, 67148, Note_on_c, 3, 74, 0
2, 67199, Note_on_c, 3, 72, 0
2, 67200, Note_on_c, 3, 70, 127
2, 67283, Note_on_c, 3, 55, 0
2, 67286, Note_on_c, 3, 62, 0
2, 67295, Note_on_c, 3, 70, 0
2, 67302, Note_on_c, 3, 67, 0
2, 67320, Note_on_c, 3, 79, 127
2, 67320, Note_on_c, 3, 55, 127
2, 67433, Note_on_c, 3, 79, 0
2, 67440, Note_on_c, 3, 81, 127
2, 67499, Note_on_c, 3, 81, 0
2, 67500, Note_on_c, 3, 82, 127
2, 67523, Note_on_c, 3, 55, 0
2, 67559, Note_on_c, 3, 82, 0
2, 67560, Note_on_c, 3, 75, 127
2, 67560, Note_on_c, 3, 70, 127
2, 67560, Note_on_c, 3, 67, 127
2, 67560, Note_on_c, 3, 43, 127
2, 67709, Note_on_c, 3, 75, 0
2, 67740, Note_on_c, 3, 79, 127
2, 67763, Note_on_c, 3, 43, 0
2, 67781, Note_on_c, 3, 67, 0
2, 67785, Note_on_c, 3, 70, 0
2, 67787, Note_on_c, 3, 79, 0
2, 67800, Note_on_c, 3, 79, 127
2, 67800, Note_on_c, 3, 69, 127
2, 67800, Note_on_c, 3, 64, 127
2, 67800, Note_on_c, 3, 43, 127
2, 67913, Note_on_c, 3, 79, 0
2, 67920, Note_on_c, 3, 73, 127
2, 67997, Note_on_c, 3, 73, 0
2, 68003, Note_on_c, 3, 43, 0
2, 68040, Note_on_c, 3, 73, 127
2, 68040, Note_on_c, 3, 55, 127
2, 68243, Note_on_c, 3, 55, 0
2, 68246, Note_on_c, 3, 69, 0
2, 68255, Note_on_c, 3, 64, 0
2, 68274, Note_on_c, 3, 73, 0
2, 68280, Note_on_c, 3, 55, 127
2, 68400, Note_on_c, 3, 73, 127
2, 68483, Note_on_c, 3, 55, 0
2, 68513, Note_on_c, 3, 73, 0
2, 68520, Note_on_c, 3, 81, 127
2, 68520, Note_on_c, 3, 69, 127
2, 68520, Note_on_c, 3, 64, 127
2, 68520, Note_on_c, 3, 43, 127
2, 68687, Note_on_c, 3, 81, 0
2, 68700, Note_on_c, 3, 73, 127
2, 68723, Note_on_c, 3, 69, 0
2, 68723, Note_on_c, 3, 43, 0
2, 68741, Note_on_c, 3, 64, 0
2, 68759, Note_on_c, 3, 73, 0
2, 68760, Note_on_c, 3, 74, 127
2, 68760, Note_on_c, 3, 69, 127
2, 68760, Note_on_c, 3, 62, 127
2, 68760, Note_on_c, 3, 41, 127
2, 68909, Note_on_c, 3, 74, 0
2, 68940, Note_on_c, 3, 76, 127
2, 68963, Note_on_c, 3, 62, 0
2, 68963, Note_on_c, 3, 41, 0
2, 68976, Note_on_c, 3, 69, 0
2, 68999, Note_on_c, 3, 76, 0
2, 69000, Note_on_c, 3, 74, 127
2, 69000, Note_on_c, 3, 70, 127
2, 69000, Note_on_c, 3, 62, 127
2, 69000, Note_on_c, 3, 43, 127
2, 69054, Note_on_c, 3, 74, 0
2, 69060, Note_on_c, 3, 73, 127
2, 69114, Note_on_c, 3, 73, 0
2, 69120, Note_on_c, 3, 74, 127
2, 69179, Note_on_c, 3, 74, 0
2, 69180, Note_on_c, 3, 76, 127
2, 69203, Note_on_c, 3, 62, 0
2, 69203, Note_on_c, 3, 43, 0
2, 69225, Note_on_c, 3, 70, 0
2, 69227, Note_on_c, 3, 76, 0
2, 69240, Note_on_c, 3, 76, 127
2, 69240, Note_on_c, 3, 69, 127
2, 69240, Note_on_c, 3, 62, 127
2, 69240, Note_on_c, 3, 45, 127
2, 69263, Note_on_c, 3, 76, 0
2, 69270, Note_on_c, 3, 77, 127
2, 69293, Note_on_c, 3, 77, 0
2, 69300, Note_on_c, 3, 76, 127
2, 69312, Note_on_c, 3, 76, 0
2, 69315, Note_on_c, 3, 77, 127
2, 69327, Note_on_c, 3, 77, 0
2, 69330, Note_on_c, 3, 76, 127
2, 69342, Note_on_c, 3, 76, 0
2, 69345, Note_on_c, 3, 77, 127
2, 69357, Note_on_c, 3, 77, 0
2, 69360, Note_on_c, 3, 76, 127
2, 69372, Note_on_c, 3, 76, 0
2, 69375, Note_on_c, 3, 77, 127
2, 69387, Note_on_c, 3, 77, 0
2, 69390, Note_on_c, 3, 76, 127
2, 69402, Note_on_c, 3, 76, 0
2, 69405, Note_on_c, 3, 77, 127
2, 69417, Note_on_c, 3, 77, 0
2, 69420, Note_on_c, 3, 76, 127
2, 69443, Note_on_c, 3, 45, 0
2, 69461, Note_on_c, 3, 69, 0
2, 69470, Note_on_c, 3, 62, 0
2, 69480, Note_on_c, 3, 67, 127
2, 69480, Note_on_c, 3, 61, 127
2, 69480, Note_on_c, 3, 45, 127
2, 69569, Note_on_c, 3, 76, 0
2, 69600, Note_on_c, 3, 74, 127
2, 69683, Note_on_c, 3, 45, 0
2, 69695, Note_on_c, 3, 74, 0
2, 69705, Note_on_c, 3, 61, 0
2, 69714, Note_on_c, 3, 67, 0
2, 69720, Note_on_c, 3, 74, 127
2, 69720, Note_on_c, 3, 65, 127
2, 69720, Note_on_c, 3, 62, 127
2, 69720, Note_on_c, 3, 38, 127
2, 69923, Note_on_c, 3, 38, 0
2, 69960, Note_on_c, 3, 50, 127
2, 70163, Note_on_c, 3, 50, 0
2, 70170, Note_on_c, 3, 74, 0
2, 70170, Note_on_c, 3, 62, 0
2, 70184, Note_on_c, 3, 65, 0
2, 70200, Note_on_c, 3, 50, 127
2, 70320, Note_on_c, 3, 74, 127
2, 70403, Note_on_c, 3, 50, 0
2, 70433, Note_on_c, 3, 74, 0
2, 70440, Note_on_c, 3, 76, 127
2, 70440, Note_on_c, 3, 69, 127
2, 70440, Note_on_c, 3, 62, 127
2, 70440, Note_on_c, 3, 38, 127
2, 70611, Note_on_c, 3, 76, 0
2, 70620, Note_on_c, 3, 77, 127
2, 70643, Note_on_c, 3, 62, 0
2, 70643, Note_on_c, 3, 38, 0
2, 70661, Note_on_c, 3, 69, 0
2, 70679, Note_on_c, 3, 77, 0
2, 70680, Note_on_c, 3, 71, 127
2, 70680, Note_on_c, 3, 67, 127
2, 70680, Note_on_c, 3, 62, 127
2, 70680, Note_on_c, 3, 43, 127
2, 70829, Note_on_c, 3, 71, 0
2, 70860, Note_on_c, 3, 77, 127
2, 70883, Note_on_c, 3, 43, 0
2, 70919, Note_on_c, 3, 77, 0
2, 70920, Note_on_c, 3, 71, 127
2, 70920, Note_on_c, 3, 55, 127
2, 71069, Note_on_c, 3, 71, 0
2, 71100, Note_on_c, 3, 77, 127
2, 71123, Note_on_c, 3, 55, 0
2, 71126, Note_on_c, 3, 67, 0
2, 71126, Note_on_c, 3, 62, 0
2, 71159, Note_on_c, 3, 77, 0
2, 71160, Note_on_c, 3, 67, 127
2, 71160, Note_on_c, 3, 55, 127
2, 71309, Note_on_c, 3, 67, 0
2, 71340, Note_on_c, 3, 77, 127
2, 71363, Note_on_c, 3, 55, 0
2, 71399, Note_on_c, 3, 77, 0
2, 71400, Note_on_c, 3, 76, 127
2, 71400, Note_on_c, 3, 67, 127
2, 71400, Note_on_c, 3, 62, 127
2, 71400, Note_on_c, 3, 43, 127
2, 71567, Note_on_c, 3, 76, 0
2, 71580, Note_on_c, 3, 74, 127
2, 71603, Note_on_c, 3, 67, 0
2, 71603, Note_on_c, 3, 43, 0
2, 71621, Note_on_c, 3, 62, 0
2, 71639, Note_on_c, 3, 74, 0
2, 71640, Note_on_c, 3, 76, 127
2, 71640, Note_on_c, 3, 67, 127
2, 71640, Note_on_c, 3, 60, 127
2, 71640, Note_on_c, 3, 48, 127
2, 71843, Note_on_c, 3, 48, 0
2, 71880, Note_on_c, 3, 60, 127
2, 71951, Note_on_c, 3, 76, 0
2, 72000, Note_on_c, 3, 74, 127
2, 72059, Note_on_c, 3, 60, 0
2, 72095, Note_on_c, 3, 67, 0
2, 72113, Note_on_c, 3, 74, 0
2, 72114, Note_on_c, 3, 60, 0
2, 72120, Note_on_c, 3, 72, 127
2, 72120, Note_on_c, 3, 60, 127
2, 72287, Note_on_c, 3, 72, 0
2, 72300, Note_on_c, 3, 71, 127
2, 72323, Note_on_c, 3, 60, 0
2, 72359, Note_on_c, 3, 71, 0
2, 72360, Note_on_c, 3, 69, 127
2, 72360, Note_on_c, 3, 64, 127
2, 72360, Note_on_c, 3, 60, 127
2, 72360, Note_on_c, 3, 48, 127
2, 72522, Note_on_c, 3, 69, 0
2, 72540, Note_on_c, 3, 67, 127
2, 72563, Note_on_c, 3, 48, 0
2, 72581, Note_on_c, 3, 64, 0
2, 72590, Note_on_c, 3, 60, 0
2, 72594, Note_on_c, 3, 67, 0
2, 72600, Note_on_c, 3, 66, 127
2, 72600, Note_on_c, 3, 62, 127
2, 72600, Note_on_c, 3, 57, 127
2, 72600, Note_on_c, 3, 48, 127
2, 72749, Note_on_c, 3, 66, 0
2, 72780, Note_on_c, 3, 74, 127
2, 72803, Note_on_c, 3, 48, 0
2, 72839, Note_on_c, 3, 74, 0
2, 72840, Note_on_c, 3, 66, 127
2, 72840, Note_on_c, 3, 60, 127
2, 72989, Note_on_c, 3, 66, 0
2, 73020, Note_on_c, 3, 74, 127
2, 73043, Note_on_c, 3, 60, 0
2, 73050, Note_on_c, 3, 62, 0
2, 73050, Note_on_c, 3, 57, 0
2, 73079, Note_on_c, 3, 74, 0
2, 73080, Note_on_c, 3, 68, 127
2, 73080, Note_on_c, 3, 59, 127
2, 73229, Note_on_c, 3, 68, 0
2, 73260, Note_on_c, 3, 74, 127
2, 73283, Note_on_c, 3, 59, 0
2, 73319, Note_on_c, 3, 74, 0
2, 73320, Note_on_c, 3, 72, 127
2, 73320, Note_on_c, 3, 64, 127
2, 73320, Note_on_c, 3, 56, 127
2, 73320, Note_on_c, 3, 52, 127
2, 73491, Note_on_c, 3, 72, 0
2, 73500, Note_on_c, 3, 71, 127
2, 73523, Note_on_c, 3, 64, 0
2, 73523, Note_on_c, 3, 52, 0
2, 73545, Note_on_c, 3, 56, 0
2, 73559, Note_on_c, 3, 71, 0
2, 73560, Note_on_c, 3, 72, 127
2, 73560, Note_on_c, 3, 64, 127
2, 73560, Note_on_c, 3, 57, 127
2, 73560, Note_on_c, 3, 45, 127
2, 73763, Note_on_c, 3, 45, 0
2, 73800, Note_on_c, 3, 57, 127
2, 73979, Note_on_c, 3, 57, 0
2, 74006, Note_on_c, 3, 72, 0
2, 74006, Note_on_c, 3, 64, 0
2, 74034, Note_on_c, 3, 57, 0
2, 74040, Note_on_c, 3, 57, 127
2, 74160, Note_on_c, 3, 81, 127
2, 74243, Note_on_c, 3, 57, 0
2, 74268, Note_on_c, 3, 81, 0
2, 74280, Note_on_c, 3, 79, 127
2, 74280, Note_on_c, 3, 64, 127
2, 74280, Note_on_c, 3, 64, 127
2, 74280, Note_on_c, 3, 45, 127
2, 74447, Note_on_c, 3, 79, 0
2, 74460, Note_on_c, 3, 81, 127
2, 74483, Note_on_c, 3, 45, 0
2, 74501, Note_on_c, 3, 64, 0
2, 74501, Note_on_c, 3, 64, 0
2, 74519, Note_on_c, 3, 81, 0
2, 74520, Note_on_c, 3, 82, 127
2, 74520, Note_on_c, 3, 65, 127
2, 74520, Note_on_c, 3, 65, 127
2, 74520, Note_on_c, 3, 38, 127
2, 74691, Note_on_c, 3, 82, 0
2, 74700, Note_on_c, 3, 77, 127
2, 74723, Note_on_c, 3, 38, 0
2, 74759, Note_on_c, 3, 77, 0
2, 74760, Note_on_c, 3, 74, 127
2, 74760, Note_on_c, 3, 50, 127
2, 74927, Note_on_c, 3, 74, 0
2, 74940, Note_on_c, 3, 77, 127
2, 74963, Note_on_c, 3, 50, 0
2, 74966, Note_on_c, 3, 65, 0
2, 74970, Note_on_c, 3, 65, 0
2, 74999, Note_on_c, 3, 77, 0
2, 75000, Note_on_c, 3, 70, 127
2, 75000, Note_on_c, 3, 50, 127
2, 75149, Note_on_c, 3, 70, 0
2, 75180, Note_on_c, 3, 77, 127
2, 75203, Note_on_c, 3, 50, 0
2, 75239, Note_on_c, 3, 77, 0
2, 75240, Note_on_c, 3, 82, 127
2, 75240, Note_on_c, 3, 65, 127
2, 75240, Note_on_c, 3, 62, 127
2, 75240, Note_on_c, 3, 38, 127
2, 75402, Note_on_c, 3, 82, 0
2, 75420, Note_on_c, 3, 69, 127
2, 75443, Note_on_c, 3, 38, 0
2, 75461, Note_on_c, 3, 65, 0
2, 75465, Note_on_c, 3, 62, 0
2, 75479, Note_on_c, 3, 69, 0
2, 75480, Note_on_c, 3, 68, 127
2, 75480, Note_on_c, 3, 64, 127
2, 75480, Note_on_c, 3, 59, 127
2, 75480, Note_on_c, 3, 38, 127
2, 75539, Note_on_c, 3, 68, 0
2, 75540, Note_on_c, 3, 66, 127
2, 75600, Note_on_c, 3, 64, 127
2, 75603, Note_on_c, 3, 66, 0
2, 75683, Note_on_c, 3, 64, 0
2, 75683, Note_on_c, 3, 38, 0
2, 75705, Note_on_c, 3, 59, 0
2, 75717, Note_on_c, 3, 64, 0
2, 75720, Note_on_c, 3, 69, 127
2, 75720, Note_on_c, 3, 54, 127
2, 75720, Note_on_c, 3, 50, 127
2, 75779, Note_on_c, 3, 69, 0
2, 75780, Note_on_c, 3, 68, 127
2, 75839, Note_on_c, 3, 68, 0
2, 75840, Note_on_c, 3, 66, 127
2, 75923, Note_on_c, 3, 50, 0
2, 75935, Note_on_c, 3, 66, 0
2, 75936, Note_on_c, 3, 54, 0
2, 75960, Note_on_c, 3, 71, 127
2, 75960, Note_on_c, 3, 56, 127
2, 75960, Note_on_c, 3, 50, 127
2, 76019, Note_on_c, 3, 71, 0
2, 76020, Note_on_c, 3, 69, 127
2, 76079, Note_on_c, 3, 69, 0
2, 76080, Note_on_c, 3, 68, 127
2, 76163, Note_on_c, 3, 50, 0
2, 76175, Note_on_c, 3, 68, 0
2, 76181, Note_on_c, 3, 56, 0
2, 76200, Note_on_c, 3, 72, 127
2, 76200, Note_on_c, 3, 64, 127
2, 76200, Note_on_c, 3, 57, 127
2, 76200, Note_on_c, 3, 48, 127
2, 76260, Note_on_c, 3, 71, 127
2, 76263, Note_on_c, 3, 72, 0
2, 76308, Note_on_c, 3, 64, 0
2, 76314, Note_on_c, 3, 71, 0
2, 76320, Note_on_c, 3, 69, 127
2, 76320, Note_on_c, 3, 66, 127
2, 76403, Note_on_c, 3, 48, 0
2, 76415, Note_on_c, 3, 69, 0
2, 76421, Note_on_c, 3, 57, 0
2, 76437, Note_on_c, 3, 66, 0
2, 76440, Note_on_c, 3, 74, 127
2, 76440, Note_on_c, 3, 68, 127
2, 76440, Note_on_c, 3, 59, 127
2, 76440, Note_on_c, 3, 47, 127
2, 76607, Note_on_c, 3, 74, 0
2, 76620, Note_on_c, 3, 76, 127
2, 76643, Note_on_c, 3, 47, 0
2, 76665, Note_on_c, 3, 59, 0
2, 76670, Note_on_c, 3, 68, 0
2, 76679, Note_on_c, 3, 76, 0
2, 76680, Note_on_c, 3, 72, 127
2, 76680, Note_on_c, 3, 69, 127
2, 76680, Note_on_c, 3, 60, 127
2, 76680, Note_on_c, 3, 45, 127
2, 76847, Note_on_c, 3, 72, 0
2, 76851, Note_on_c, 3, 60, 0
2, 76860, Note_on_c, 3, 71, 127
2, 76860, Note_on_c, 3, 62, 127
2, 76883, Note_on_c, 3, 69, 0
2, 76883, Note_on_c, 3, 45, 0
2, 76901, Note_on_c, 3, 71, 0
2, 76919, Note_on_c, 3, 62, 0
2, 76920, Note_on_c, 3, 71, 127
2, 76920, Note_on_c, 3, 69, 127
2, 76920, Note_on_c, 3, 64, 127
2, 76920, Note_on_c, 3, 52, 127
2, 76974, Note_on_c, 3, 71, 0
2, 76980, Note_on_c, 3, 72, 127
2, 77007, Note_on_c, 3, 72, 0
2, 77010, Note_on_c, 3, 71, 127
2, 77033, Note_on_c, 3, 71, 0
2, 77040, Note_on_c, 3, 72, 127
2, 77063, Note_on_c, 3, 72, 0
2, 77070, Note_on_c, 3, 71, 127
2, 77082, Note_on_c, 3, 71, 0
2, 77085, Note_on_c, 3, 72, 127
2, 77097, Note_on_c, 3, 72, 0
2, 77100, Note_on_c, 3, 71, 127
2, 77112, Note_on_c, 3, 71, 0
2, 77115, Note_on_c, 3, 72, 127
2, 77123, Note_on_c, 3, 52, 0
2, 77127, Note_on_c, 3, 72, 0
2, 77130, Note_on_c, 3, 71, 127
2, 77141, Note_on_c, 3, 69, 0
2, 77142, Note_on_c, 3, 71, 0
2, 77145, Note_on_c, 3, 72, 127
2, 77150, Note_on_c, 3, 64, 0
2, 77157, Note_on_c, 3, 72, 0
2, 77160, Note_on_c, 3, 71, 127
2, 77160, Note_on_c, 3, 68, 127
2, 77160, Note_on_c, 3, 62, 127
2, 77160, Note_on_c, 3, 40, 127
2, 77273, Note_on_c, 3, 71, 0
2, 77280, Note_on_c, 3, 69, 127
2, 77363, Note_on_c, 3, 40, 0
2, 77375, Note_on_c, 3, 69, 0
2, 77381, Note_on_c, 3, 68, 0
2, 77381, Note_on_c, 3, 62, 0
2, 77400, Note_on_c, 3, 69, 127
2, 77400, Note_on_c, 3, 69, 127
2, 77400, Note_on_c, 3, 60, 127
2, 77400, Note_on_c, 3, 45, 127
2, 77640, Note_on_c, 3, 57, 127
2, 77819, Note_on_c, 3, 45, 0
2, 77841, Note_on_c, 3, 69, 0
2, 77843, Note_on_c, 3, 57, 0
2, 77850, Note_on_c, 3, 69, 0
2, 77850, Note_on_c, 3, 60, 0
2, 77880, Note_on_c, 3, 57, 127
2, 78000, Note_on_c, 3, 81, 127
2, 78083, Note_on_c, 3, 57, 0
2, 78108, Note_on_c, 3, 81, 0
2, 78120, Note_on_c, 3, 79, 127
2, 78120, Note_on_c, 3, 72, 127
2, 78120, Note_on_c, 3, 64, 127
2, 78120, Note_on_c, 3, 45, 127
2, 78291, Note_on_c, 3, 79, 0
2, 78300, Note_on_c, 3, 81, 127
2, 78323, Note_on_c, 3, 45, 0
2, 78341, Note_on_c, 3, 64, 0
2, 78345, Note_on_c, 3, 72, 0
2, 78354, Note_on_c, 3, 81, 0
2, 78360, Note_on_c, 3, 82, 127
2, 78360, Note_on_c, 3, 74, 127
2, 78360, Note_on_c, 3, 65, 127
2, 78360, Note_on_c, 3, 38, 127
2, 78527, Note_on_c, 3, 82, 0
2, 78540, Note_on_c, 3, 77, 127
2, 78563, Note_on_c, 3, 38, 0
2, 78594, Note_on_c, 3, 77, 0
2, 78600, Note_on_c, 3, 74, 127
2, 78600, Note_on_c, 3, 50, 127
2, 78761, Note_on_c, 3, 74, 0
2, 78780, Note_on_c, 3, 77, 127
2, 78803, Note_on_c, 3, 50, 0
2, 78815, Note_on_c, 3, 65, 0
2, 78830, Note_on_c, 3, 74, 0
2, 78839, Note_on_c, 3, 77, 0
2, 78840, Note_on_c, 3, 70, 127
2, 78840, Note_on_c, 3, 50, 127
2, 79002, Note_on_c, 3, 70, 0
2, 79020, Note_on_c, 3, 77, 127
2, 79043, Note_on_c, 3, 50, 0
2, 79074, Note_on_c, 3, 77, 0
2, 79080, Note_on_c, 3, 82, 127
2, 79080, Note_on_c, 3, 65, 127
2, 79080, Note_on_c, 3, 62, 127
2, 79080, Note_on_c, 3, 38, 127
2, 79242, Note_on_c, 3, 82, 0
2, 79260, Note_on_c, 3, 69, 127
2, 79283, Note_on_c, 3, 38, 0
2, 79301, Note_on_c, 3, 65, 0
2, 79301, Note_on_c, 3, 62, 0
2, 79310, Note_on_c, 3, 69, 0
2, 79320, Note_on_c, 3, 68, 127
2, 79320, Note_on_c, 3, 64, 127
2, 79320, Note_on_c, 3, 59, 127
2, 79320, Note_on_c, 3, 38, 127
2, 79380, Note_on_c, 3, 66, 127
2, 79388, Note_on_c, 3, 68, 0
2, 79439, Note_on_c, 3, 66, 0
2, 79440, Note_on_c, 3, 64, 127
2, 79523, Note_on_c, 3, 64, 0
2, 79523, Note_on_c, 3, 38, 0
2, 79541, Note_on_c, 3, 59, 0
2, 79560, Note_on_c, 3, 69, 127
2, 79560, Note_on_c, 3, 54, 127
2, 79560, Note_on_c, 3, 50, 127
2, 79566, Note_on_c, 3, 64, 0
2, 79619, Note_on_c, 3, 69, 0
2, 79620, Note_on_c, 3, 68, 127
2, 79679, Note_on_c, 3, 68, 0
2, 79680, Note_on_c, 3, 66, 127
2, 79763, Note_on_c, 3, 50, 0
2, 79775, Note_on_c, 3, 66, 0
2, 79781, Note_on_c, 3, 54, 0
2, 79800, Note_on_c, 3, 71, 127
2, 79800, Note_on_c, 3, 56, 127
2, 79800, Note_on_c, 3, 50, 127
2, 79859, Note_on_c, 3, 71, 0
2, 79860, Note_on_c, 3, 69, 127
2, 79919, Note_on_c, 3, 69, 0
2, 79920, Note_on_c, 3, 68, 127
2, 80003, Note_on_c, 3, 50, 0
2, 80015, Note_on_c, 3, 68, 0
2, 80016, Note_on_c, 3, 56, 0
2, 80040, Note_on_c, 3, 72, 127
2, 80040, Note_on_c, 3, 64, 127
2, 80040, Note_on_c, 3, 57, 127
2, 80040, Note_on_c, 3, 48, 127
2, 80099, Note_on_c, 3, 72, 0
2, 80100, Note_on_c, 3, 71, 127
2, 80154, Note_on_c, 3, 71, 0
2, 80157, Note_on_c, 3, 64, 0
2, 80160, Note_on_c, 3, 69, 127
2, 80160, Note_on_c, 3, 66, 127
2, 80243, Note_on_c, 3, 48, 0
2, 80255, Note_on_c, 3, 69, 0
2, 80265, Note_on_c, 3, 57, 0
2, 80273, Note_on_c, 3, 66, 0
2, 80280, Note_on_c, 3, 74, 127
2, 80280, Note_on_c, 3, 68, 127
2, 80280, Note_on_c, 3, 59, 127
2, 80280, Note_on_c, 3, 47, 127
2, 80429, Note_on_c, 3, 74, 0
2, 80460, Note_on_c, 3, 76, 127
2, 80483, Note_on_c, 3, 47, 0
2, 80496, Note_on_c, 3, 59, 0
2, 80501, Note_on_c, 3, 68, 0
2, 80519, Note_on_c, 3, 76, 0
2, 80520, Note_on_c, 3, 72, 127
2, 80520, Note_on_c, 3, 69, 127
2, 80520, Note_on_c, 3, 60, 127
2, 80520, Note_on_c, 3, 45, 127
2, 80691, Note_on_c, 3, 72, 0
2, 80691, Note_on_c, 3, 60, 0
2, 80700, Note_on_c, 3, 71, 127
2, 80700, Note_on_c, 3, 62, 127
2, 80723, Note_on_c, 3, 69, 0
2, 80723, Note_on_c, 3, 45, 0
2, 80741, Note_on_c, 3, 71, 0
2, 80760, Note_on_c, 3, 71, 127
2, 80760, Note_on_c, 3, 69, 127
2, 80760, Note_on_c, 3, 64, 127
2, 80760, Note_on_c, 3, 52, 127
2, 80763, Note_on_c, 3, 62, 0
2, 80814, Note_on_c, 3, 71, 0
2, 80820, Note_on_c, 3, 72, 127
2, 80874, Note_on_c, 3, 72, 0
2, 80880, Note_on_c, 3, 71, 127
2, 80907, Note_on_c, 3, 71, 0
2, 80910, Note_on_c, 3, 72, 127
2, 80922, Note_on_c, 3, 72, 0
2, 80925, Note_on_c, 3, 71, 127
2, 80937, Note_on_c, 3, 71, 0
2, 80940, Note_on_c, 3, 72, 127
2, 80952, Note_on_c, 3, 72, 0
2, 80955, Note_on_c, 3, 71, 127
2, 80963, Note_on_c, 3, 52, 0
2, 80967, Note_on_c, 3, 71, 0
2, 80970, Note_on_c, 3, 72, 127
2, 80982, Note_on_c, 3, 72, 0
2, 80985, Note_on_c, 3, 69, 0
2, 80985, Note_on_c, 3, 71, 127
2, 80990, Note_on_c, 3, 64, 0
2, 80997, Note_on_c, 3, 71, 0
2, 81000, Note_on_c, 3, 72, 127
2, 81000, Note_on_c, 3, 68, 127
2, 81000, Note_on_c, 3, 62, 127
2, 81000, Note_on_c, 3, 40, 127
2, 81012, Note_on_c, 3, 72, 0
2, 81015, Note_on_c, 3, 71, 127
2, 81027, Note_on_c, 3, 71, 0
2, 81030, Note_on_c, 3, 72, 127
2, 81042, Note_on_c, 3, 72, 0
2, 81045, Note_on_c, 3, 71, 127
2, 81105, Note_on_c, 3, 71, 0
2, 81120, Note_on_c, 3, 69, 127
2, 81203, Note_on_c, 3, 40, 0
2, 81212, Note_on_c, 3, 68, 0
2, 81215, Note_on_c, 3, 69, 0
2, 81225, Note_on_c, 3, 62, 0
2, 81240, Note_on_c, 3, 69, 127
2, 81240, Note_on_c, 3, 69, 127
2, 81240, Note_on_c, 3, 60, 127
2, 81240, Note_on_c, 3, 45, 127
2, 81659, Note_on_c, 3, 45, 0
2, 81695, Note_on_c, 3, 60, 0
2, 81699, Note_on_c, 3, 69, 0
2, 81789, Note_on_c, 3, 69, 0
2, 81840, Note_on_c, 3, 71, 127
2, 81935, Note_on_c, 3, 71, 0
2, 81960, Note_on_c, 3, 72, 127
2, 81987, Note_on_c, 3, 72, 0
2, 81990, Note_on_c, 3, 71, 127
2, 82002, Note_on_c, 3, 71, 0
2, 82005, Note_on_c, 3, 72, 127
2, 82017, Note_on_c, 3, 72, 0
2, 82020, Note_on_c, 3, 71, 127
2, 82032, Note_on_c, 3, 71, 0
2, 82035, Note_on_c, 3, 72, 127
2, 82047, Note_on_c, 3, 72, 0
2, 82050, Note_on_c, 3, 71, 127
2, 82062, Note_on_c, 3, 71, 0
2, 82065, Note_on_c, 3, 72, 127
2, 82077, Note_on_c, 3, 72, 0
2, 82080, Note_on_c, 3, 71, 127
2, 82092, Note_on_c, 3, 71, 0
2, 82095, Note_on_c, 3, 72, 127
2, 82107, Note_on_c, 3, 72, 0
2, 82110, Note_on_c, 3, 71, 127
2, 82137, Note_on_c, 3, 71, 0
2, 82140, Note_on_c, 3, 69, 127
2, 82167, Note_on_c, 3, 69, 0
2, 82170, Note_on_c, 3, 71, 127
2, 82197, Note_on_c, 3, 71, 0
2, 82200, Note_on_c, 3, 72, 127
2, 82524, Note_on_c, 3, 72, 0
2, 82560, Note_on_c, 3, 70, 127
2, 82668, Note_on_c, 3, 70, 0
2, 82680, Note_on_c, 3, 69, 127
2, 82788, Note_on_c, 3, 69, 0
2, 82800, Note_on_c, 3, 67, 127
2, 82908, Note_on_c, 3, 67, 0
2, 82920, Note_on_c, 3, 66, 127
2, 83028, Note_on_c, 3, 66, 0
2, 83040, Note_on_c, 3, 64, 127
2, 83148, Note_on_c, 3, 64, 0
2, 83160, Note_on_c, 3, 62, 127
2, 83268, Note_on_c, 3, 62, 0
2, 83280, Note_on_c, 3, 60, 127
2, 83388, Note_on_c, 3, 60, 0
2, 83400, Note_on_c, 3, 58, 127
2, 83508, Note_on_c, 3, 58, 0
2, 83520, Note_on_c, 3, 57, 127
2, 83628, Note_on_c, 3, 57, 0
2, 83640, Note_on_c, 3, 55, 127
2, 83748, Note_on_c, 3, 55, 0
2, 83760, Note_on_c, 3, 54, 127
2, 83868, Note_on_c, 3, 54, 0
2, 83880, Note_on_c, 3, 52, 127
2, 83988, Note_on_c, 3, 52, 0
2, 84000, Note_on_c, 3, 50, 127
2, 84108, Note_on_c, 3, 50, 0
2, 84120, Control_c, 3, 7, 110
2, 84120, Note_on_c, 3, 72, 127
2, 84120, Control_c, 3, 7, 110
2, 84120, Note_on_c, 3, 57, 127
2, 84120, Note_on_c, 3, 54, 127
2, 84120, Note_on_c, 3, 69, 127
2, 84120, Note_on_c, 3, 63, 127
2, 84120, Control_c, 3, 7, 110
2, 84120, Note_on_c, 3, 42, 127
2, 84971, Note_on_c, 3, 42, 0
2, 85080, Note_on_c, 3, 46, 127
2, 85403, Note_on_c, 3, 69, 0
2, 85560, Note_on_c, 3, 67, 127
2, 85763, Note_on_c, 3, 67, 0
2, 85800, Note_on_c, 3, 66, 127
2, 85835, Note_on_c, 3, 72, 0
2, 85835, Note_on_c, 3, 63, 0
2, 85853, Note_on_c, 3, 54, 0
2, 85857, Note_on_c, 3, 57, 0
2, 86003, Note_on_c, 3, 66, 0
2, 86040, Note_on_c, 3, 70, 127
2, 86040, Note_on_c, 3, 58, 127
2, 86040, Note_on_c, 3, 55, 127
2, 86040, Note_on_c, 3, 67, 127
2, 86040, Note_on_c, 3, 62, 127
2, 86363, Note_on_c, 3, 46, 0
2, 86520, Note_on_c, 3, 58, 127
2, 86640, Note_on_c, 3, 74, 127
2, 86748, Note_on_c, 3, 74, 0
2, 86760, Note_on_c, 3, 76, 127
2, 86891, Note_on_c, 3, 58, 0
2, 86891, Note_on_c, 3, 55, 0
2, 86891, Note_on_c, 3, 67, 0
2, 86891, Note_on_c, 3, 62, 0
2, 86922, Note_on_c, 3, 76, 0
2, 86940, Note_on_c, 3, 77, 127
2, 86961, Note_on_c, 3, 58, 0
2, 86994, Note_on_c, 3, 77, 0
2, 87000, Note_on_c, 3, 79, 127
2, 87000, Note_on_c, 3, 61, 127
2, 87000, Note_on_c, 3, 55, 127
2, 87000, Note_on_c, 3, 76, 127
2, 87000, Note_on_c, 3, 64, 127
2, 87000, Note_on_c, 3, 49, 127
2, 87323, Note_on_c, 3, 70, 0
2, 87437, Note_on_c, 3, 55, 0
2, 87480, Note_on_c, 3, 69, 127
2, 87480, Note_on_c, 3, 57, 127
2, 87683, Note_on_c, 3, 69, 0
2, 87720, Note_on_c, 3, 67, 127
2, 87851, Note_on_c, 3, 64, 0
2, 87851, Note_on_c, 3, 49, 0
2, 87899, Note_on_c, 3, 57, 0
2, 87923, Note_on_c, 3, 67, 0
2, 87960, Note_on_c, 3, 69, 127
2, 87960, Note_on_c, 3, 57, 127
2, 87960, Note_on_c, 3, 65, 127
2, 87960, Note_on_c, 3, 41, 127
2, 88283, Note_on_c, 3, 76, 0
2, 88296, Note_on_c, 3, 79, 0
2, 88301, Note_on_c, 3, 61, 0
2, 88379, Note_on_c, 3, 41, 0
2, 88440, Note_on_c, 3, 77, 127
2, 88440, Note_on_c, 3, 62, 127
2, 88440, Note_on_c, 3, 74, 127
2, 88440, Note_on_c, 3, 53, 127
2, 88643, Note_on_c, 3, 74, 0
2, 88680, Note_on_c, 3, 72, 127
2, 88811, Note_on_c, 3, 69, 0
2, 88811, Note_on_c, 3, 65, 0
2, 88838, Note_on_c, 3, 57, 0
2, 88859, Note_on_c, 3, 53, 0
2, 88883, Note_on_c, 3, 72, 0
2, 88920, Control_c, 3, 7, 127
2, 88920, Note_on_c, 3, 71, 127
2, 88920, Control_c, 3, 7, 127
2, 88920, Note_on_c, 3, 56, 127
2, 88920, Note_on_c, 3, 74, 127
2, 88920, Note_on_c, 3, 59, 127
2, 88920, Control_c, 3, 7, 127
2, 88920, Note_on_c, 3, 44, 127
2, 89304, Note_on_c, 3, 77, 0
2, 89309, Note_on_c, 3, 62, 0
2, 89400, Note_on_c, 3, 76, 127
2, 89400, Note_on_c, 3, 64, 127
2, 89555, Note_on_c, 3, 74, 0
2, 89640, Note_on_c, 3, 74, 127
2, 89771, Note_on_c, 3, 59, 0
2, 89771, Note_on_c, 3, 44, 0
2, 89880, Note_on_c, 3, 60, 127
2, 89880, Note_on_c, 3, 48, 127
2, 90203, Note_on_c, 3, 71, 0
2, 90221, Note_on_c, 3, 56, 0
2, 90275, Note_on_c, 3, 74, 0
2, 90299, Note_on_c, 3, 48, 0
2, 90360, Note_on_c, 3, 69, 127
2, 90360, Note_on_c, 3, 57, 127
2, 90360, Note_on_c, 3, 72, 127
2, 90360, Note_on_c, 3, 60, 127
2, 90563, Note_on_c, 3, 69, 0
2, 90600, Note_on_c, 3, 67, 127
2, 90701, Note_on_c, 3, 76, 0
2, 90705, Note_on_c, 3, 64, 0
2, 90731, Note_on_c, 3, 60, 0
2, 90779, Note_on_c, 3, 60, 0
2, 90803, Note_on_c, 3, 67, 0
2, 90840, Note_on_c, 3, 78, 127
2, 90840, Note_on_c, 3, 66, 127
2, 90840, Note_on_c, 3, 54, 127
2, 90840, Note_on_c, 3, 63, 127
2, 90840, Note_on_c, 3, 51, 127
2, 91211, Note_on_c, 3, 72, 0
2, 91233, Note_on_c, 3, 57, 0
2, 91320, Note_on_c, 3, 59, 127
2, 91320, Note_on_c, 3, 71, 127
2, 91523, Note_on_c, 3, 71, 0
2, 91560, Note_on_c, 3, 69, 127
2, 91691, Note_on_c, 3, 66, 0
2, 91691, Note_on_c, 3, 51, 0
2, 91713, Note_on_c, 3, 54, 0
2, 91739, Note_on_c, 3, 59, 0
2, 91763, Note_on_c, 3, 69, 0
2, 91800, Note_on_c, 3, 67, 127
2, 91800, Note_on_c, 3, 55, 127
2, 91800, Note_on_c, 3, 59, 127
2, 91800, Note_on_c, 3, 71, 127
2, 91800, Note_on_c, 3, 43, 127
2, 92123, Note_on_c, 3, 63, 0
2, 92141, Note_on_c, 3, 78, 0
2, 92219, Note_on_c, 3, 43, 0
2, 92280, Note_on_c, 3, 76, 127
2, 92280, Note_on_c, 3, 64, 127
2, 92280, Note_on_c, 3, 55, 127
2, 92435, Note_on_c, 3, 71, 0
2, 92520, Note_on_c, 3, 71, 127
2, 92651, Note_on_c, 3, 67, 0
2, 92651, Note_on_c, 3, 55, 0
2, 92669, Note_on_c, 3, 59, 0
2, 92699, Note_on_c, 3, 64, 0
2, 92717, Note_on_c, 3, 55, 0
2, 92723, Note_on_c, 3, 71, 0
2, 92760, Note_on_c, 3, 69, 127
2, 92760, Note_on_c, 3, 60, 127
2, 92760, Note_on_c, 3, 64, 127
2, 92760, Note_on_c, 3, 72, 127
2, 92760, Note_on_c, 3, 67, 127
2, 92760, Note_on_c, 3, 57, 127
2, 93179, Note_on_c, 3, 67, 0
2, 93197, Note_on_c, 3, 64, 0
2, 93240, Note_on_c, 3, 65, 127
2, 93338, Note_on_c, 3, 76, 0
2, 93480, Note_on_c, 3, 76, 127
2, 93611, Note_on_c, 3, 57, 0
2, 93624, Note_on_c, 3, 60, 0
2, 93696, Note_on_c, 3, 76, 0
2, 93720, Note_on_c, 3, 74, 127
2, 93720, Note_on_c, 3, 62, 127
2, 93720, Note_on_c, 3, 59, 127
2, 93827, Note_on_c, 3, 72, 0
2, 93960, Note_on_c, 3, 72, 127
2, 94043, Note_on_c, 3, 69, 0
2, 94091, Note_on_c, 3, 65, 0
2, 94163, Note_on_c, 3, 72, 0
2, 94200, Note_on_c, 3, 71, 127
2, 94200, Note_on_c, 3, 67, 127
2, 94403, Note_on_c, 3, 71, 0
2, 94403, Note_on_c, 3, 67, 0
2, 94440, Note_on_c, 3, 69, 127
2, 94440, Note_on_c, 3, 65, 127
2, 94571, Note_on_c, 3, 59, 0
2, 94589, Note_on_c, 3, 62, 0
2, 94643, Note_on_c, 3, 69, 0
2, 94680, Note_on_c, 3, 62, 127
2, 94680, Note_on_c, 3, 59, 127
2, 94680, Note_on_c, 3, 55, 127
2, 94680, Note_on_c, 3, 67, 127
2, 94680, Note_on_c, 3, 52, 127
2, 94859, Note_on_c, 3, 65, 0
2, 94920, Note_on_c, 3, 65, 127
2, 95016, Note_on_c, 3, 74, 0
2, 95099, Note_on_c, 3, 62, 0
2, 95121, Note_on_c, 3, 59, 0
2, 95123, Note_on_c, 3, 65, 0
2, 95160, Note_on_c, 3, 72, 127
2, 95160, Note_on_c, 3, 64, 127
2, 95160, Note_on_c, 3, 60, 127
2, 95160, Note_on_c, 3, 64, 127
2, 95363, Note_on_c, 3, 64, 0
2, 95400, Note_on_c, 3, 62, 127
2, 95531, Note_on_c, 3, 52, 0
2, 95544, Note_on_c, 3, 55, 0
2, 95579, Note_on_c, 3, 72, 0
2, 95601, Note_on_c, 3, 60, 0
2, 95603, Note_on_c, 3, 62, 0
2, 95640, Note_on_c, 3, 72, 127
2, 95640, Note_on_c, 3, 56, 127
2, 95640, Note_on_c, 3, 60, 127
2, 95880, Note_on_c, 3, 48, 127
2, 95963, Note_on_c, 3, 67, 0
2, 96011, Note_on_c, 3, 64, 0
2, 96083, Note_on_c, 3, 48, 0
2, 96120, Note_on_c, 3, 65, 127
2, 96120, Note_on_c, 3, 65, 127
2, 96120, Note_on_c, 3, 53, 127
2, 96288, Note_on_c, 3, 56, 0
2, 96360, Note_on_c, 3, 47, 127
2, 96539, Note_on_c, 3, 65, 0
2, 96539, Note_on_c, 3, 65, 0
2, 96539, Note_on_c, 3, 53, 0
2, 96576, Note_on_c, 3, 47, 0
2, 96600, Note_on_c, 3, 64, 127
2, 96600, Note_on_c, 3, 48, 127
2, 96600, Note_on_c, 3, 56, 127
2, 96600, Note_on_c, 3, 48, 127
2, 96803, Note_on_c, 3, 64, 0
2, 96840, Note_on_c, 3, 60, 127
2, 96923, Note_on_c, 3, 60, 0
2, 97080, Note_on_c, 3, 65, 127
2, 97235, Note_on_c, 3, 56, 0
2, 97320, Note_on_c, 3, 55, 127
2, 97368, Note_on_c, 3, 72, 0
2, 97464, Note_on_c, 3, 48, 0
2, 97475, Note_on_c, 3, 60, 0
2, 97523, Note_on_c, 3, 55, 0
2, 97560, Note_on_c, 3, 71, 127
2, 97560, Note_on_c, 3, 50, 127
2, 97560, Note_on_c, 3, 53, 127
2, 97560, Note_on_c, 3, 62, 127
2, 98039, Note_on_c, 3, 65, 0
2, 98160, Note_on_c, 3, 68, 127
2, 98255, Note_on_c, 3, 68, 0
2, 98280, Note_on_c, 3, 67, 127
2, 98315, Note_on_c, 3, 48, 0
2, 98375, Note_on_c, 3, 67, 0
2, 98393, Note_on_c, 3, 71, 0
2, 98393, Note_on_c, 3, 50, 0
2, 98400, Note_on_c, 3, 65, 127
2, 98411, Note_on_c, 3, 53, 0
2, 98411, Note_on_c, 3, 62, 0
2, 98495, Note_on_c, 3, 65, 0
2, 98520, Note_on_c, 3, 72, 127
2, 98520, Note_on_c, 3, 64, 127
2, 98520, Note_on_c, 3, 55, 127
2, 98520, Note_on_c, 3, 48, 127
2, 98520, Note_on_c, 3, 52, 127
2, 98520, Note_on_c, 3, 60, 127
2, 98520, Note_on_c, 3, 36, 127
2, 100235, Note_on_c, 3, 72, 0
2, 100235, Note_on_c, 3, 64, 0
2, 100235, Note_on_c, 3, 55, 0
2, 100235, Note_on_c, 3, 48, 0
2, 100235, Note_on_c, 3, 52, 0
2, 100235, Note_on_c, 3, 60, 0
2, 100235, Note_on_c, 3, 36, 0
2, 100920, Note_on_c, 3, 60, 127
2, 100967, Note_on_c, 3, 60, 0
2, 100980, Note_on_c, 3, 64, 127
2, 101003, Note_on_c, 3, 64, 0
2, 101010, Note_on_c, 3, 62, 127
2, 101033, Note_on_c, 3, 62, 0
2, 101040, Note_on_c, 3, 64, 127
2, 101087, Note_on_c, 3, 64, 0
2, 101100, Note_on_c, 3, 60, 127
2, 101147, Note_on_c, 3, 60, 0
2, 101160, Note_on_c, 3, 64, 127
2, 101207, Note_on_c, 3, 64, 0
2, 101220, Note_on_c, 3, 60, 127
2, 101267, Note_on_c, 3, 60, 0
2, 101280, Note_on_c, 3, 67, 127
2, 101327, Note_on_c, 3, 67, 0
2, 101580, Note_on_c, 3, 67, 127
2, 101627, Note_on_c, 3, 67, 0
2, 101640, Note_on_c, 3, 64, 127
2, 101687, Note_on_c, 3, 64, 0
2, 101700, Note_on_c, 3, 67, 127
2, 101723, Note_on_c, 3, 67, 0
2, 101730, Note_on_c, 3, 65, 127
2, 101753, Note_on_c, 3, 65, 0
2, 101760, Note_on_c, 3, 67, 127
2, 101807, Note_on_c, 3, 67, 0
2, 101820, Note_on_c, 3, 64, 127
2, 101867, Note_on_c, 3, 64, 0
2, 101880, Note_on_c, 3, 67, 127
2, 101927, Note_on_c, 3, 67, 0
2, 101940, Note_on_c, 3, 64, 127
2, 101987, Note_on_c, 3, 64, 0
2, 102000, Note_on_c, 3, 69, 127
2, 102047, Note_on_c, 3, 69, 0
2, 102300, Note_on_c, 3, 69, 127
2, 102347, Note_on_c, 3, 69, 0
2, 102360, Note_on_c, 3, 65, 127
2, 102407, Note_on_c, 3, 65, 0
2, 102420, Note_on_c, 3, 69, 127
2, 102443, Note_on_c, 3, 69, 0
2, 102450, Note_on_c, 3, 67, 127
2, 102473, Note_on_c, 3, 67, 0
2, 102480, Note_on_c, 3, 69, 127
2, 102527, Note_on_c, 3, 69, 0
2, 102540, Note_on_c, 3, 65, 127
2, 102587, Note_on_c, 3, 65, 0
2, 102600, Note_on_c, 3, 69, 127
2, 102647, Note_on_c, 3, 69, 0
2, 102660, Note_on_c, 3, 65, 127
2, 102707, Note_on_c, 3, 65, 0
2, 102720, Note_on_c, 3, 72, 127
2, 102767, Note_on_c, 3, 72, 0
2, 103020, Note_on_c, 3, 72, 127
2, 103067, Note_on_c, 3, 72, 0
2, 103080, Note_on_c, 3, 71, 127
2, 103103, Note_on_c, 3, 71, 0
2, 103110, Note_on_c, 3, 74, 127
2, 103133, Note_on_c, 3, 74, 0
2, 103140, Note_on_c, 3, 67, 127
2, 103163, Note_on_c, 3, 67, 0
2, 103170, Note_on_c, 3, 74, 127
2, 103193, Note_on_c, 3, 74, 0
2, 103200, Note_on_c, 3, 69, 127
2, 103223, Note_on_c, 3, 69, 0
2, 103230, Note_on_c, 3, 74, 127
2, 103253, Note_on_c, 3, 74, 0
2, 103260, Note_on_c, 3, 71, 127
2, 103283, Note_on_c, 3, 71, 0
2, 103290, Note_on_c, 3, 74, 127
2, 103313, Note_on_c, 3, 74, 0
2, 103320, Note_on_c, 3, 69, 127
2, 103343, Note_on_c, 3, 69, 0
2, 103350, Note_on_c, 3, 74, 127
2, 103373, Note_on_c, 3, 74, 0
2, 103380, Note_on_c, 3, 71, 127
2, 103403, Note_on_c, 3, 71, 0
2, 103410, Note_on_c, 3, 74, 127
2, 103433, Note_on_c, 3, 74, 0
2, 103440, Note_on_c, 3, 72, 127
2, 103463, Note_on_c, 3, 72, 0
2, 103470, Note_on_c, 3, 74, 127
2, 103493, Note_on_c, 3, 74, 0
2, 103500, Note_on_c, 3, 71, 127
2, 103523, Note_on_c, 3, 71, 0
2, 103530, Note_on_c, 3, 74, 127
2, 103553, Note_on_c, 3, 74, 0
2, 103560, Note_on_c, 3, 69, 127
2, 103583, Note_on_c, 3, 69, 0
2, 103590, Note_on_c, 3, 74, 127
2, 103613, Note_on_c, 3, 74, 0
2, 103620, Note_on_c, 3, 71, 127
2, 103643, Note_on_c, 3, 71, 0
2, 103650, Note_on_c, 3, 74, 127
2, 103673, Note_on_c, 3, 74, 0
2, 103680, Note_on_c, 3, 67, 127
2, 103703, Note_on_c, 3, 67, 0
2, 103710, Note_on_c, 3, 74, 127
2, 103733, Note_on_c, 3, 74, 0
2, 103740, Note_on_c, 3, 65, 127
2, 103763, Note_on_c, 3, 65, 0
2, 103770, Note_on_c, 3, 74, 127
2, 103793, Note_on_c, 3, 74, 0
2, 103800, Note_on_c, 3, 64, 127
2, 103847, Note_on_c, 3, 64, 0
2, 103860, Note_on_c, 3, 72, 127
2, 103907, Note_on_c, 3, 72, 0
2, 103920, Note_on_c, 3, 66, 127
2, 103967, Note_on_c, 3, 66, 0
2, 103980, Note_on_c, 3, 67, 127
2, 104027, Note_on_c, 3, 67, 0
2, 104040, Note_on_c, 3, 69, 127
2, 104054, Note_on_c, 3, 69, 0
2, 104055, Note_on_c, 3, 67, 127
2, 104069, Note_on_c, 3, 67, 0
2, 104070, Note_on_c, 3, 69, 127
2, 104084, Note_on_c, 3, 69, 0
2, 104085, Note_on_c, 3, 67, 127
2, 104085, Note_on_c, 3, 67, 127
2, 104126, Note_on_c, 3, 67, 0
2, 104126, Note_on_c, 3, 67, 0
2, 104130, Note_on_c, 3, 66, 127
2, 104153, Note_on_c, 3, 66, 0
2, 104160, Note_on_c, 3, 67, 127
2, 104160, Note_on_c, 3, 55, 127
2, 104207, Note_on_c, 3, 67, 0
2, 104207, Note_on_c, 3, 55, 0
2, 104220, Note_on_c, 3, 59, 127
2, 104243, Note_on_c, 3, 59, 0
2, 104250, Note_on_c, 3, 57, 127
2, 104273, Note_on_c, 3, 57, 0
2, 104280, Note_on_c, 3, 59, 127
2, 104327, Note_on_c, 3, 59, 0
2, 104340, Note_on_c, 3, 55, 127
2, 104387, Note_on_c, 3, 55, 0
2, 104400, Note_on_c, 3, 59, 127
2, 104447, Note_on_c, 3, 59, 0
2, 104460, Note_on_c, 3, 79, 127
2, 104460, Note_on_c, 3, 55, 127
2, 104507, Note_on_c, 3, 79, 0
2, 104507, Note_on_c, 3, 55, 0
2, 104520, Note_on_c, 3, 76, 127
2, 104520, Note_on_c, 3, 60, 127
2, 104543, Note_on_c, 3, 76, 0
2, 104550, Note_on_c, 3, 77, 127
2, 104567, Note_on_c, 3, 60, 0
2, 104573, Note_on_c, 3, 77, 0
2, 104580, Note_on_c, 3, 79, 127
2, 104603, Note_on_c, 3, 79, 0
2, 104610, Note_on_c, 3, 77, 127
2, 104633, Note_on_c, 3, 77, 0
2, 104640, Note_on_c, 3, 76, 127
2, 104663, Note_on_c, 3, 76, 0
2, 104670, Note_on_c, 3, 74, 127
2, 104693, Note_on_c, 3, 74, 0
2, 104700, Note_on_c, 3, 76, 127
2, 104723, Note_on_c, 3, 76, 0
2, 104730, Note_on_c, 3, 77, 127
2, 104753, Note_on_c, 3, 77, 0
2, 104760, Note_on_c, 3, 79, 127
2, 104783, Note_on_c, 3, 79, 0
2, 104790, Note_on_c, 3, 77, 127
2, 104813, Note_on_c, 3, 77, 0
2, 104820, Note_on_c, 3, 76, 127
2, 104820, Note_on_c, 3, 60, 127
2, 104843, Note_on_c, 3, 76, 0
2, 104850, Note_on_c, 3, 77, 127
2, 104867, Note_on_c, 3, 60, 0
2, 104873, Note_on_c, 3, 77, 0
2, 104880, Note_on_c, 3, 74, 127
2, 104880, Note_on_c, 3, 59, 127
2, 104927, Note_on_c, 3, 74, 0
2, 104927, Note_on_c, 3, 59, 0
2, 104940, Note_on_c, 3, 62, 127
2, 104963, Note_on_c, 3, 62, 0
2, 104970, Note_on_c, 3, 60, 127
2, 104993, Note_on_c, 3, 60, 0
2, 105000, Note_on_c, 3, 62, 127
2, 105047, Note_on_c, 3, 62, 0
2, 105060, Note_on_c, 3, 59, 127
2, 105107, Note_on_c, 3, 59, 0
2, 105120, Note_on_c, 3, 62, 127
2, 105167, Note_on_c, 3, 62, 0
2, 105180, Note_on_c, 3, 74, 127
2, 105180, Note_on_c, 3, 59, 127
2, 105227, Note_on_c, 3, 74, 0
2, 105227, Note_on_c, 3, 59, 0
2, 105240, Note_on_c, 3, 79, 127
2, 105240, Note_on_c, 3, 64, 127
2, 105263, Note_on_c, 3, 79, 0
2, 105270, Note_on_c, 3, 81, 127
2, 105287, Note_on_c, 3, 64, 0
2, 105293, Note_on_c, 3, 81, 0
2, 105300, Note_on_c, 3, 83, 127
2, 105323, Note_on_c, 3, 83, 0
2, 105330, Note_on_c, 3, 81, 127
2, 105353, Note_on_c, 3, 81, 0
2, 105360, Note_on_c, 3, 79, 127
2, 105383, Note_on_c, 3, 79, 0
2, 105390, Note_on_c, 3, 78, 127
2, 105413, Note_on_c, 3, 78, 0
2, 105420, Note_on_c, 3, 79, 127
2, 105443, Note_on_c, 3, 79, 0
2, 105450, Note_on_c, 3, 81, 127
2, 105473, Note_on_c, 3, 81, 0
2, 105480, Note_on_c, 3, 83, 127
2, 105503, Note_on_c, 3, 83, 0
2, 105510, Note_on_c, 3, 81, 127
2, 105533, Note_on_c, 3, 81, 0
2, 105540, Note_on_c, 3, 79, 127
2, 105540, Note_on_c, 3, 64, 127
2, 105563, Note_on_c, 3, 79, 0
2, 105570, Note_on_c, 3, 77, 127
2, 105587, Note_on_c, 3, 64, 0
2, 105593, Note_on_c, 3, 77, 0
2, 105600, Note_on_c, 3, 76, 127
2, 105600, Note_on_c, 3, 60, 127
2, 105647, Note_on_c, 3, 76, 0
2, 105647, Note_on_c, 3, 60, 0
2, 105660, Note_on_c, 3, 64, 127
2, 105683, Note_on_c, 3, 64, 0
2, 105690, Note_on_c, 3, 62, 127
2, 105713, Note_on_c, 3, 62, 0
2, 105720, Note_on_c, 3, 64, 127
2, 105767, Note_on_c, 3, 64, 0
2, 105780, Note_on_c, 3, 60, 127
2, 105827, Note_on_c, 3, 60, 0
2, 105840, Note_on_c, 3, 64, 127
2, 105887, Note_on_c, 3, 64, 0
2, 105900, Note_on_c, 3, 76, 127
2, 105900, Note_on_c, 3, 60, 127
2, 105947, Note_on_c, 3, 76, 0
2, 105947, Note_on_c, 3, 60, 0
2, 105960, Note_on_c, 3, 71, 127
2, 105960, Note_on_c, 3, 67, 127
2, 105983, Note_on_c, 3, 71, 0
2, 105990, Note_on_c, 3, 72, 127
2, 106007, Note_on_c, 3, 67, 0
2, 106013, Note_on_c, 3, 72, 0
2, 106020, Note_on_c, 3, 74, 127
2, 106043, Note_on_c, 3, 74, 0
2, 106050, Note_on_c, 3, 72, 127
2, 106073, Note_on_c, 3, 72, 0
2, 106080, Note_on_c, 3, 71, 127
2, 106103, Note_on_c, 3, 71, 0
2, 106110, Note_on_c, 3, 69, 127
2, 106133, Note_on_c, 3, 69, 0
2, 106140, Note_on_c, 3, 71, 127
2, 106163, Note_on_c, 3, 71, 0
2, 106170, Note_on_c, 3, 72, 127
2, 106193, Note_on_c, 3, 72, 0
2, 106200, Note_on_c, 3, 74, 127
2, 106223, Note_on_c, 3, 74, 0
2, 106230, Note_on_c, 3, 72, 127
2, 106253, Note_on_c, 3, 72, 0
2, 106260, Note_on_c, 3, 74, 127
2, 106260, Note_on_c, 3, 67, 127
2, 106283, Note_on_c, 3, 74, 0
2, 106290, Note_on_c, 3, 71, 127
2, 106307, Note_on_c, 3, 67, 0
2, 106313, Note_on_c, 3, 71, 0
2, 106320, Note_on_c, 3, 72, 127
2, 106320, Note_on_c, 3, 64, 127
2, 106343, Note_on_c, 3, 64, 0
2, 106350, Note_on_c, 3, 67, 127
2, 106367, Note_on_c, 3, 72, 0
2, 106373, Note_on_c, 3, 67, 0
2, 106380, Note_on_c, 3, 60, 127
2, 106403, Note_on_c, 3, 60, 0
2, 106410, Note_on_c, 3, 67, 127
2, 106433, Note_on_c, 3, 67, 0
2, 106440, Note_on_c, 3, 71, 127
2, 106440, Note_on_c, 3, 62, 127
2, 106463, Note_on_c, 3, 62, 0
2, 106470, Note_on_c, 3, 67, 127
2, 106487, Note_on_c, 3, 71, 0
2, 106493, Note_on_c, 3, 67, 0
2, 106500, Note_on_c, 3, 72, 127
2, 106500, Note_on_c, 3, 64, 127
2, 106523, Note_on_c, 3, 64, 0
2, 106530, Note_on_c, 3, 67, 127
2, 106547, Note_on_c, 3, 72, 0
2, 106553, Note_on_c, 3, 67, 0
2, 106560, Note_on_c, 3, 71, 127
2, 106560, Note_on_c, 3, 62, 127
2, 106583, Note_on_c, 3, 62, 0
2, 106590, Note_on_c, 3, 67, 127
2, 106607, Note_on_c, 3, 71, 0
2, 106613, Note_on_c, 3, 67, 0
2, 106620, Note_on_c, 3, 72, 127
2, 106620, Note_on_c, 3, 64, 127
2, 106643, Note_on_c, 3, 64, 0
2, 106650, Note_on_c, 3, 67, 127
2, 106667, Note_on_c, 3, 72, 0
2, 106673, Note_on_c, 3, 67, 0
2, 106680, Note_on_c, 3, 74, 127
2, 106680, Note_on_c, 3, 65, 127
2, 106703, Note_on_c, 3, 65, 0
2, 106710, Note_on_c, 3, 67, 127
2, 106727, Note_on_c, 3, 74, 0
2, 106733, Note_on_c, 3, 67, 0
2, 106740, Note_on_c, 3, 72, 127
2, 106740, Note_on_c, 3, 64, 127
2, 106763, Note_on_c, 3, 64, 0
2, 106770, Note_on_c, 3, 67, 127
2, 106787, Note_on_c, 3, 72, 0
2, 106793, Note_on_c, 3, 67, 0
2, 106800, Note_on_c, 3, 71, 127
2, 106800, Note_on_c, 3, 62, 127
2, 106823, Note_on_c, 3, 62, 0
2, 106830, Note_on_c, 3, 67, 127
2, 106847, Note_on_c, 3, 71, 0
2, 106853, Note_on_c, 3, 67, 0
2, 106860, Note_on_c, 3, 72, 127
2, 106860, Note_on_c, 3, 64, 127
2, 106883, Note_on_c, 3, 64, 0
2, 106890, Note_on_c, 3, 67, 127
2, 106907, Note_on_c, 3, 72, 0
2, 106913, Note_on_c, 3, 67, 0
2, 106920, Note_on_c, 3, 76, 127
2, 106920, Note_on_c, 3, 60, 127
2, 106943, Note_on_c, 3, 60, 0
2, 106950, Note_on_c, 3, 67, 127
2, 106967, Note_on_c, 3, 76, 0
2, 106973, Note_on_c, 3, 67, 0
2, 106980, Note_on_c, 3, 72, 127
2, 106980, Note_on_c, 3, 58, 127
2, 107003, Note_on_c, 3, 58, 0
2, 107010, Note_on_c, 3, 67, 127
2, 107027, Note_on_c, 3, 72, 0
2, 107033, Note_on_c, 3, 67, 0
2, 107040, Note_on_c, 3, 77, 127
2, 107040, Note_on_c, 3, 57, 127
2, 107063, Note_on_c, 3, 77, 0
2, 107070, Note_on_c, 3, 79, 127
2, 107087, Note_on_c, 3, 57, 0
2, 107093, Note_on_c, 3, 79, 0
2, 107100, Note_on_c, 3, 81, 127
2, 107100, Note_on_c, 3, 65, 127
2, 107123, Note_on_c, 3, 81, 0
2, 107130, Note_on_c, 3, 79, 127
2, 107147, Note_on_c, 3, 65, 0
2, 107153, Note_on_c, 3, 79, 0
2, 107160, Note_on_c, 3, 77, 127
2, 107160, Note_on_c, 3, 59, 127
2, 107183, Note_on_c, 3, 77, 0
2, 107190, Note_on_c, 3, 79, 127
2, 107207, Note_on_c, 3, 59, 0
2, 107213, Note_on_c, 3, 79, 0
2, 107220, Note_on_c, 3, 76, 127
2, 107220, Note_on_c, 3, 60, 127
2, 107243, Note_on_c, 3, 76, 0
2, 107250, Note_on_c, 3, 77, 127
2, 107267, Note_on_c, 3, 60, 0
2, 107273, Note_on_c, 3, 77, 0
2, 107280, Note_on_c, 3, 74, 127
2, 107280, Note_on_c, 3, 62, 127
2, 107294, Note_on_c, 3, 62, 0
2, 107295, Note_on_c, 3, 60, 127
2, 107303, Note_on_c, 3, 74, 0
2, 107309, Note_on_c, 3, 60, 0
2, 107310, Note_on_c, 3, 77, 127
2, 107310, Note_on_c, 3, 62, 127
2, 107324, Note_on_c, 3, 62, 0
2, 107325, Note_on_c, 3, 60, 127
2, 107333, Note_on_c, 3, 77, 0
2, 107340, Note_on_c, 3, 76, 127
2, 107363, Note_on_c, 3, 76, 0
2, 107366, Note_on_c, 3, 60, 0
2, 107370, Note_on_c, 3, 74, 127
2, 107370, Note_on_c, 3, 59, 127
2, 107393, Note_on_c, 3, 74, 0
2, 107393, Note_on_c, 3, 59, 0
2, 107400, Note_on_c, 3, 76, 127
2, 107400, Note_on_c, 3, 60, 127
2, 107400, Note_on_c, 3, 48, 127
2, 107447, Note_on_c, 3, 76, 0
2, 107447, Note_on_c, 3, 60, 0
2, 107447, Note_on_c, 3, 48, 0
2, 107460, Note_on_c, 3, 79, 127
2, 107460, Note_on_c, 3, 52, 127
2, 107483, Note_on_c, 3, 79, 0
2, 107483, Note_on_c, 3, 52, 0
2, 107490, Note_on_c, 3, 77, 127
2, 107490, Note_on_c, 3, 50, 127
2, 107513, Note_on_c, 3, 77, 0
2, 107513, Note_on_c, 3, 50, 0
2, 107520, Note_on_c, 3, 79, 127
2, 107520, Note_on_c, 3, 52, 127
2, 107567, Note_on_c, 3, 79, 0
2, 107567, Note_on_c, 3, 52, 0
2, 107580, Note_on_c, 3, 76, 127
2, 107580, Note_on_c, 3, 48, 127
2, 107627, Note_on_c, 3, 76, 0
2, 107627, Note_on_c, 3, 48, 0
2, 107640, Note_on_c, 3, 79, 127
2, 107640, Note_on_c, 3, 52, 127
2, 107687, Note_on_c, 3, 79, 0
2, 107687, Note_on_c, 3, 52, 0
2, 107700, Note_on_c, 3, 76, 127
2, 107700, Note_on_c, 3, 72, 127
2, 107700, Note_on_c, 3, 48, 127
2, 107747, Note_on_c, 3, 76, 0
2, 107747, Note_on_c, 3, 72, 0
2, 107747, Note_on_c, 3, 48, 0
2, 107760, Note_on_c, 3, 74, 127
2, 107760, Note_on_c, 3, 71, 127
2, 107760, Note_on_c, 3, 55, 127
2, 107783, Note_on_c, 3, 71, 0
2, 107790, Note_on_c, 3, 72, 127
2, 107807, Note_on_c, 3, 74, 0
2, 107807, Note_on_c, 3, 55, 0
2, 107813, Note_on_c, 3, 72, 0
2, 107820, Note_on_c, 3, 74, 127
2, 107843, Note_on_c, 3, 74, 0
2, 107850, Note_on_c, 3, 72, 127
2, 107873, Note_on_c, 3, 72, 0
2, 107880, Note_on_c, 3, 71, 127
2, 107903, Note_on_c, 3, 71, 0
2, 107910, Note_on_c, 3, 69, 127
2, 107933, Note_on_c, 3, 69, 0
2, 107940, Note_on_c, 3, 71, 127
2, 107963, Note_on_c, 3, 71, 0
2, 107970, Note_on_c, 3, 72, 127
2, 107993, Note_on_c, 3, 72, 0
2, 108000, Note_on_c, 3, 74, 127
2, 108023, Note_on_c, 3, 74, 0
2, 108030, Note_on_c, 3, 72, 127
2, 108053, Note_on_c, 3, 72, 0
2, 108060, Note_on_c, 3, 74, 127
2, 108060, Note_on_c, 3, 71, 127
2, 108060, Note_on_c, 3, 55, 127
2, 108083, Note_on_c, 3, 71, 0
2, 108090, Note_on_c, 3, 69, 127
2, 108107, Note_on_c, 3, 74, 0
2, 108107, Note_on_c, 3, 55, 0
2, 108113, Note_on_c, 3, 69, 0
2, 108120, Note_on_c, 3, 79, 127
2, 108120, Note_on_c, 3, 67, 127
2, 108120, Note_on_c, 3, 52, 127
2, 108167, Note_on_c, 3, 79, 0
2, 108167, Note_on_c, 3, 67, 0
2, 108167, Note_on_c, 3, 52, 0
2, 108180, Note_on_c, 3, 83, 127
2, 108180, Note_on_c, 3, 55, 127
2, 108203, Note_on_c, 3, 83, 0
2, 108203, Note_on_c, 3, 55, 0
2, 108210, Note_on_c, 3, 81, 127
2, 108210, Note_on_c, 3, 53, 127
2, 108233, Note_on_c, 3, 81, 0
2, 108233, Note_on_c, 3, 53, 0
2, 108240, Note_on_c, 3, 83, 127
2, 108240, Note_on_c, 3, 55, 127
2, 108287, Note_on_c, 3, 83, 0
2, 108287, Note_on_c, 3, 55, 0
2, 108300, Note_on_c, 3, 79, 127
2, 108300, Note_on_c, 3, 52, 127
2, 108347, Note_on_c, 3, 79, 0
2, 108347, Note_on_c, 3, 52, 0
2, 108360, Note_on_c, 3, 83, 127
2, 108360, Note_on_c, 3, 55, 127
2, 108407, Note_on_c, 3, 83, 0
2, 108407, Note_on_c, 3, 55, 0
2, 108420, Note_on_c, 3, 79, 127
2, 108420, Note_on_c, 3, 76, 127
2, 108420, Note_on_c, 3, 52, 127
2, 108467, Note_on_c, 3, 79, 0
2, 108467, Note_on_c, 3, 76, 0
2, 108467, Note_on_c, 3, 52, 0
2, 108480, Note_on_c, 3, 76, 127
2, 108480, Note_on_c, 3, 72, 127
2, 108480, Note_on_c, 3, 57, 127
2, 108503, Note_on_c, 3, 72, 0
2, 108510, Note_on_c, 3, 74, 127
2, 108527, Note_on_c, 3, 76, 0
2, 108527, Note_on_c, 3, 57, 0
2, 108533, Note_on_c, 3, 74, 0
2, 108540, Note_on_c, 3, 76, 127
2, 108563, Note_on_c, 3, 76, 0
2, 108570, Note_on_c, 3, 74, 127
2, 108593, Note_on_c, 3, 74, 0
2, 108600, Note_on_c, 3, 72, 127
2, 108623, Note_on_c, 3, 72, 0
2, 108630, Note_on_c, 3, 71, 127
2, 108653, Note_on_c, 3, 71, 0
2, 108660, Note_on_c, 3, 72, 127
2, 108683, Note_on_c, 3, 72, 0
2, 108690, Note_on_c, 3, 74, 127
2, 108713, Note_on_c, 3, 74, 0
2, 108720, Note_on_c, 3, 76, 127
2, 108743, Note_on_c, 3, 76, 0
2, 108750, Note_on_c, 3, 74, 127
2, 108773, Note_on_c, 3, 74, 0
2, 108780, Note_on_c, 3, 76, 127
2, 108780, Note_on_c, 3, 72, 127
2, 108780, Note_on_c, 3, 57, 127
2, 108803, Note_on_c, 3, 72, 0
2, 108810, Note_on_c, 3, 71, 127
2, 108827, Note_on_c, 3, 76, 0
2, 108827, Note_on_c, 3, 57, 0
2, 108833, Note_on_c, 3, 71, 0
2, 108840, Note_on_c, 3, 81, 127
2, 108840, Note_on_c, 3, 69, 127
2, 108840, Note_on_c, 3, 53, 127
2, 108887, Note_on_c, 3, 81, 0
2, 108887, Note_on_c, 3, 69, 0
2, 108887, Note_on_c, 3, 53, 0
2, 108900, Note_on_c, 3, 84, 127
2, 108900, Note_on_c, 3, 57, 127
2, 108923, Note_on_c, 3, 84, 0
2, 108923, Note_on_c, 3, 57, 0
2, 108930, Note_on_c, 3, 82, 127
2, 108930, Note_on_c, 3, 55, 127
2, 108953, Note_on_c, 3, 82, 0
2, 108953, Note_on_c, 3, 55, 0
2, 108960, Note_on_c, 3, 84, 127
2, 108960, Note_on_c, 3, 57, 127
2, 109007, Note_on_c, 3, 84, 0
2, 109007, Note_on_c, 3, 57, 0
2, 109020, Note_on_c, 3, 81, 127
2, 109020, Note_on_c, 3, 53, 127
2, 109067, Note_on_c, 3, 81, 0
2, 109067, Note_on_c, 3, 53, 0
2, 109080, Note_on_c, 3, 84, 127
2, 109080, Note_on_c, 3, 57, 127
2, 109127, Note_on_c, 3, 84, 0
2, 109127, Note_on_c, 3, 57, 0
2, 109140, Note_on_c, 3, 81, 127
2, 109140, Note_on_c, 3, 65, 127
2, 109140, Note_on_c, 3, 53, 127
2, 109187, Note_on_c, 3, 81, 0
2, 109187, Note_on_c, 3, 65, 0
2, 109187, Note_on_c, 3, 53, 0
2, 109200, Note_on_c, 3, 79, 127
2, 109200, Note_on_c, 3, 64, 127
2, 109200, Note_on_c, 3, 60, 127
2, 109223, Note_on_c, 3, 64, 0
2, 109230, Note_on_c, 3, 65, 127
2, 109247, Note_on_c, 3, 79, 0
2, 109247, Note_on_c, 3, 60, 0
2, 109253, Note_on_c, 3, 65, 0
2, 109260, Note_on_c, 3, 67, 127
2, 109283, Note_on_c, 3, 67, 0
2, 109290, Note_on_c, 3, 65, 127
2, 109313, Note_on_c, 3, 65, 0
2, 109320, Note_on_c, 3, 64, 127
2, 109343, Note_on_c, 3, 64, 0
2, 109350, Note_on_c, 3, 62, 127
2, 109373, Note_on_c, 3, 62, 0
2, 109380, Note_on_c, 3, 64, 127
2, 109403, Note_on_c, 3, 64, 0
2, 109410, Note_on_c, 3, 65, 127
2, 109433, Note_on_c, 3, 65, 0
2, 109440, Note_on_c, 3, 67, 127
2, 109463, Note_on_c, 3, 67, 0
2, 109470, Note_on_c, 3, 65, 127
2, 109493, Note_on_c, 3, 65, 0
2, 109500, Note_on_c, 3, 79, 127
2, 109500, Note_on_c, 3, 64, 127
2, 109500, Note_on_c, 3, 60, 127
2, 109523, Note_on_c, 3, 64, 0
2, 109530, Note_on_c, 3, 65, 127
2, 109547, Note_on_c, 3, 79, 0
2, 109547, Note_on_c, 3, 60, 0
2, 109553, Note_on_c, 3, 65, 0
2, 109560, Note_on_c, 3, 79, 127
2, 109560, Note_on_c, 3, 62, 127
2, 109560, Note_on_c, 3, 59, 127
2, 109583, Note_on_c, 3, 59, 0
2, 109590, Note_on_c, 3, 62, 127
2, 109607, Note_on_c, 3, 79, 0
2, 109607, Note_on_c, 3, 62, 0
2, 109613, Note_on_c, 3, 62, 0
2, 109620, Note_on_c, 3, 71, 127
2, 109620, Note_on_c, 3, 55, 127
2, 109643, Note_on_c, 3, 55, 0
2, 109650, Note_on_c, 3, 62, 127
2, 109667, Note_on_c, 3, 71, 0
2, 109673, Note_on_c, 3, 62, 0
2, 109680, Note_on_c, 3, 72, 127
2, 109680, Note_on_c, 3, 66, 127
2, 109680, Note_on_c, 3, 57, 127
2, 109703, Note_on_c, 3, 57, 0
2, 109710, Note_on_c, 3, 62, 127
2, 109727, Note_on_c, 3, 72, 0
2, 109727, Note_on_c, 3, 66, 0
2, 109733, Note_on_c, 3, 62, 0
2, 109740, Note_on_c, 3, 74, 127
2, 109740, Note_on_c, 3, 67, 127
2, 109740, Note_on_c, 3, 59, 127
2, 109763, Note_on_c, 3, 59, 0
2, 109770, Note_on_c, 3, 62, 127
2, 109787, Note_on_c, 3, 74, 0
2, 109787, Note_on_c, 3, 67, 0
2, 109793, Note_on_c, 3, 62, 0
2, 109800, Note_on_c, 3, 72, 127
2, 109800, Note_on_c, 3, 66, 127
2, 109800, Note_on_c, 3, 57, 127
2, 109823, Note_on_c, 3, 57, 0
2, 109830, Note_on_c, 3, 62, 127
2, 109847, Note_on_c, 3, 72, 0
2, 109847, Note_on_c, 3, 66, 0
2, 109853, Note_on_c, 3, 62, 0
2, 109860, Note_on_c, 3, 74, 127
2, 109860, Note_on_c, 3, 67, 127
2, 109860, Note_on_c, 3, 59, 127
2, 109883, Note_on_c, 3, 59, 0
2, 109890, Note_on_c, 3, 62, 127
2, 109907, Note_on_c, 3, 74, 0
2, 109907, Note_on_c, 3, 67, 0
2, 109913, Note_on_c, 3, 62, 0
2, 109920, Note_on_c, 3, 76, 127
2, 109920, Note_on_c, 3, 67, 127
2, 109920, Note_on_c, 3, 60, 127
2, 109943, Note_on_c, 3, 60, 0
2, 109950, Note_on_c, 3, 62, 127
2, 109967, Note_on_c, 3, 76, 0
2, 109967, Note_on_c, 3, 67, 0
2, 109973, Note_on_c, 3, 62, 0
2, 109980, Note_on_c, 3, 74, 127
2, 109980, Note_on_c, 3, 67, 127
2, 109980, Note_on_c, 3, 59, 127
2, 110003, Note_on_c, 3, 59, 0
2, 110010, Note_on_c, 3, 62, 127
2, 110027, Note_on_c, 3, 74, 0
2, 110027, Note_on_c, 3, 67, 0
2, 110033, Note_on_c, 3, 62, 0
2, 110040, Note_on_c, 3, 72, 127
2, 110040, Note_on_c, 3, 66, 127
2, 110040, Note_on_c, 3, 57, 127
2, 110063, Note_on_c, 3, 57, 0
2, 110070, Note_on_c, 3, 62, 127
2, 110087, Note_on_c, 3, 72, 0
2, 110087, Note_on_c, 3, 66, 0
2, 110093, Note_on_c, 3, 62, 0
2, 110100, Note_on_c, 3, 74, 127
2, 110100, Note_on_c, 3, 67, 127
2, 110100, Note_on_c, 3, 59, 127
2, 110123, Note_on_c, 3, 59, 0
2, 110130, Note_on_c, 3, 62, 127
2, 110147, Note_on_c, 3, 74, 0
2, 110153, Note_on_c, 3, 62, 0
2, 110160, Note_on_c, 3, 71, 127
2, 110160, Note_on_c, 3, 55, 127
2, 110183, Note_on_c, 3, 55, 0
2, 110190, Note_on_c, 3, 62, 127
2, 110195, Note_on_c, 3, 67, 0
2, 110213, Note_on_c, 3, 62, 0
2, 110220, Note_on_c, 3, 67, 127
2, 110220, Note_on_c, 3, 53, 127
2, 110243, Note_on_c, 3, 53, 0
2, 110250, Note_on_c, 3, 62, 127
2, 110255, Note_on_c, 3, 71, 0
2, 110267, Note_on_c, 3, 67, 0
2, 110273, Note_on_c, 3, 62, 0
2, 110280, Note_on_c, 3, 72, 127
2, 110280, Note_on_c, 3, 67, 127
2, 110280, Note_on_c, 3, 52, 127
2, 110303, Note_on_c, 3, 67, 0
2, 110310, Note_on_c, 3, 65, 127
2, 110327, Note_on_c, 3, 72, 0
2, 110327, Note_on_c, 3, 52, 0
2, 110333, Note_on_c, 3, 65, 0
2, 110340, Note_on_c, 3, 64, 127
2, 110340, Note_on_c, 3, 60, 127
2, 110370, Note_on_c, 3, 67, 127
2, 110387, Note_on_c, 3, 64, 0
2, 110387, Note_on_c, 3, 60, 0
2, 110393, Note_on_c, 3, 67, 0
2, 110400, Note_on_c, 3, 69, 127
2, 110400, Note_on_c, 3, 54, 127
2, 110430, Note_on_c, 3, 62, 127
2, 110447, Note_on_c, 3, 69, 0
2, 110447, Note_on_c, 3, 54, 0
2, 110453, Note_on_c, 3, 62, 0
2, 110460, Note_on_c, 3, 71, 127
2, 110460, Note_on_c, 3, 55, 127
2, 110490, Note_on_c, 3, 67, 127
2, 110507, Note_on_c, 3, 71, 0
2, 110507, Note_on_c, 3, 55, 0
2, 110513, Note_on_c, 3, 67, 0
2, 110520, Note_on_c, 3, 72, 127
2, 110520, Note_on_c, 3, 57, 127
2, 110534, Note_on_c, 3, 57, 0
2, 110535, Note_on_c, 3, 55, 127
2, 110549, Note_on_c, 3, 55, 0
2, 110550, Note_on_c, 3, 69, 127
2, 110550, Note_on_c, 3, 57, 127
2, 110564, Note_on_c, 3, 57, 0
2, 110565, Note_on_c, 3, 55, 127
2, 110567, Note_on_c, 3, 72, 0
2, 110573, Note_on_c, 3, 69, 0
2, 110580, Note_on_c, 3, 74, 127
2, 110606, Note_on_c, 3, 55, 0
2, 110610, Note_on_c, 3, 69, 127
2, 110610, Note_on_c, 3, 54, 127
2, 110627, Note_on_c, 3, 74, 0
2, 110633, Note_on_c, 3, 69, 0
2, 110633, Note_on_c, 3, 54, 0
2, 110640, Note_on_c, 3, 71, 127
2, 110640, Note_on_c, 3, 67, 127
2, 110640, Note_on_c, 3, 55, 127
2, 110640, Note_on_c, 3, 43, 127
2, 110687, Note_on_c, 3, 71, 0
2, 110687, Note_on_c, 3, 67, 0
2, 110687, Note_on_c, 3, 55, 0
2, 110687, Note_on_c, 3, 43, 0
2, 110700, Note_on_c, 3, 74, 127
2, 110700, Note_on_c, 3, 47, 127
2, 110723, Note_on_c, 3, 74, 0
2, 110723, Note_on_c, 3, 47, 0
2, 110730, Note_on_c, 3, 72, 127
2, 110730, Note_on_c, 3, 45, 127
2, 110753, Note_on_c, 3, 72, 0
2, 110753, Note_on_c, 3, 45, 0
2, 110760, Note_on_c, 3, 74, 127
2, 110760, Note_on_c, 3, 47, 127
2, 110807, Note_on_c, 3, 74, 0
2, 110807, Note_on_c, 3, 47, 0
2, 110820, Note_on_c, 3, 71, 127
2, 110820, Note_on_c, 3, 43, 127
2, 110867, Note_on_c, 3, 71, 0
2, 110867, Note_on_c, 3, 43, 0
2, 110880, Note_on_c, 3, 74, 127
2, 110880, Note_on_c, 3, 47, 127
2, 110927, Note_on_c, 3, 74, 0
2, 110927, Note_on_c, 3, 47, 0
2, 110940, Note_on_c, 3, 74, 127
2, 110940, Note_on_c, 3, 71, 127
2, 110940, Note_on_c, 3, 67, 127
2, 110940, Note_on_c, 3, 43, 127
2, 110987, Note_on_c, 3, 74, 0
2, 110987, Note_on_c, 3, 71, 0
2, 110987, Note_on_c, 3, 67, 0
2, 110987, Note_on_c, 3, 43, 0
2, 111000, Note_on_c, 3, 72, 127
2, 111000, Note_on_c, 3, 67, 127
2, 111000, Note_on_c, 3, 64, 127
2, 111000, Note_on_c, 3, 48, 127
2, 111023, Note_on_c, 3, 72, 0
2, 111023, Note_on_c, 3, 64, 0
2, 111030, Note_on_c, 3, 74, 127
2, 111030, Note_on_c, 3, 65, 127
2, 111047, Note_on_c, 3, 67, 0
2, 111047, Note_on_c, 3, 48, 0
2, 111053, Note_on_c, 3, 74, 0
2, 111053, Note_on_c, 3, 65, 0
2, 111060, Note_on_c, 3, 76, 127
2, 111060, Note_on_c, 3, 67, 127
2, 111083, Note_on_c, 3, 76, 0
2, 111083, Note_on_c, 3, 67, 0
2, 111090, Note_on_c, 3, 74, 127
2, 111090, Note_on_c, 3, 65, 127
2, 111113, Note_on_c, 3, 74, 0
2, 111113, Note_on_c, 3, 65, 0
2, 111120, Note_on_c, 3, 72, 127
2, 111120, Note_on_c, 3, 64, 127
2, 111143, Note_on_c, 3, 72, 0
2, 111143, Note_on_c, 3, 64, 0
2, 111150, Note_on_c, 3, 71, 127
2, 111150, Note_on_c, 3, 62, 127
2, 111173, Note_on_c, 3, 71, 0
2, 111173, Note_on_c, 3, 62, 0
2, 111180, Note_on_c, 3, 72, 127
2, 111180, Note_on_c, 3, 64, 127
2, 111203, Note_on_c, 3, 64, 0
2, 111210, Note_on_c, 3, 65, 127
2, 111227, Note_on_c, 3, 72, 0
2, 111233, Note_on_c, 3, 65, 0
2, 111240, Note_on_c, 3, 76, 127
2, 111240, Note_on_c, 3, 67, 127
2, 111263, Note_on_c, 3, 67, 0
2, 111270, Note_on_c, 3, 65, 127
2, 111287, Note_on_c, 3, 76, 0
2, 111293, Note_on_c, 3, 65, 0
2, 111300, Note_on_c, 3, 72, 127
2, 111300, Note_on_c, 3, 67, 127
2, 111300, Note_on_c, 3, 64, 127
2, 111300, Note_on_c, 3, 48, 127
2, 111323, Note_on_c, 3, 64, 0
2, 111330, Note_on_c, 3, 65, 127
2, 111347, Note_on_c, 3, 72, 0
2, 111347, Note_on_c, 3, 67, 0
2, 111347, Note_on_c, 3, 48, 0
2, 111353, Note_on_c, 3, 65, 0
2, 111360, Note_on_c, 3, 79, 127
2, 111360, Note_on_c, 3, 74, 127
2, 111360, Note_on_c, 3, 62, 127
2, 111360, Note_on_c, 3, 47, 127
2, 111407, Note_on_c, 3, 79, 0
2, 111407, Note_on_c, 3, 74, 0
2, 111407, Note_on_c, 3, 62, 0
2, 111407, Note_on_c, 3, 47, 0
2, 111420, Note_on_c, 3, 77, 127
2, 111420, Note_on_c, 3, 50, 127
2, 111443, Note_on_c, 3, 77, 0
2, 111443, Note_on_c, 3, 50, 0
2, 111450, Note_on_c, 3, 76, 127
2, 111450, Note_on_c, 3, 48, 127
2, 111473, Note_on_c, 3, 76, 0
2, 111473, Note_on_c, 3, 48, 0
2, 111480, Note_on_c, 3, 77, 127
2, 111480, Note_on_c, 3, 50, 127
2, 111527, Note_on_c, 3, 77, 0
2, 111527, Note_on_c, 3, 50, 0
2, 111540, Note_on_c, 3, 74, 127
2, 111540, Note_on_c, 3, 47, 127
2, 111587, Note_on_c, 3, 74, 0
2, 111587, Note_on_c, 3, 47, 0
2, 111600, Note_on_c, 3, 77, 127
2, 111600, Note_on_c, 3, 50, 127
2, 111647, Note_on_c, 3, 77, 0
2, 111647, Note_on_c, 3, 50, 0
2, 111660, Note_on_c, 3, 79, 127
2, 111660, Note_on_c, 3, 74, 127
2, 111660, Note_on_c, 3, 62, 127
2, 111660, Note_on_c, 3, 47, 127
2, 111707, Note_on_c, 3, 79, 0
2, 111707, Note_on_c, 3, 74, 0
2, 111707, Note_on_c, 3, 62, 0
2, 111707, Note_on_c, 3, 47, 0
2, 111720, Note_on_c, 3, 76, 127
2, 111720, Note_on_c, 3, 72, 127
2, 111720, Note_on_c, 3, 67, 127
2, 111720, Note_on_c, 3, 52, 127
2, 111743, Note_on_c, 3, 76, 0
2, 111743, Note_on_c, 3, 67, 0
2, 111750, Note_on_c, 3, 77, 127
2, 111750, Note_on_c, 3, 69, 127
2, 111767, Note_on_c, 3, 72, 0
2, 111767, Note_on_c, 3, 52, 0
2, 111773, Note_on_c, 3, 77, 0
2, 111773, Note_on_c, 3, 69, 0
2, 111780, Note_on_c, 3, 79, 127
2, 111780, Note_on_c, 3, 71, 127
2, 111803, Note_on_c, 3, 79, 0
2, 111803, Note_on_c, 3, 71, 0
2, 111810, Note_on_c, 3, 77, 127
2, 111810, Note_on_c, 3, 69, 127
2, 111833, Note_on_c, 3, 77, 0
2, 111833, Note_on_c, 3, 69, 0
2, 111840, Note_on_c, 3, 76, 127
2, 111840, Note_on_c, 3, 67, 127
2, 111863, Note_on_c, 3, 76, 0
2, 111863, Note_on_c, 3, 67, 0
2, 111870, Note_on_c, 3, 74, 127
2, 111870, Note_on_c, 3, 65, 127
2, 111893, Note_on_c, 3, 74, 0
2, 111893, Note_on_c, 3, 65, 0
2, 111900, Note_on_c, 3, 76, 127
2, 111900, Note_on_c, 3, 67, 127
2, 111923, Note_on_c, 3, 67, 0
2, 111930, Note_on_c, 3, 69, 127
2, 111947, Note_on_c, 3, 76, 0
2, 111953, Note_on_c, 3, 69, 0
2, 111960, Note_on_c, 3, 79, 127
2, 111960, Note_on_c, 3, 71, 127
2, 111983, Note_on_c, 3, 71, 0
2, 111990, Note_on_c, 3, 69, 127
2, 112007, Note_on_c, 3, 79, 0
2, 112013, Note_on_c, 3, 69, 0
2, 112020, Note_on_c, 3, 76, 127
2, 112020, Note_on_c, 3, 72, 127
2, 112020, Note_on_c, 3, 67, 127
2, 112020, Note_on_c, 3, 52, 127
2, 112043, Note_on_c, 3, 67, 0
2, 112050, Note_on_c, 3, 65, 127
2, 112067, Note_on_c, 3, 76, 0
2, 112067, Note_on_c, 3, 72, 0
2, 112067, Note_on_c, 3, 52, 0
2, 112073, Note_on_c, 3, 65, 0
2, 112080, Note_on_c, 3, 84, 127
2, 112080, Note_on_c, 3, 76, 127
2, 112080, Note_on_c, 3, 64, 127
2, 112080, Note_on_c, 3, 48, 127
2, 112127, Note_on_c, 3, 84, 0
2, 112127, Note_on_c, 3, 76, 0
2, 112127, Note_on_c, 3, 64, 0
2, 112127, Note_on_c, 3, 48, 0
2, 112140, Note_on_c, 3, 79, 127
2, 112140, Note_on_c, 3, 52, 127
2, 112163, Note_on_c, 3, 79, 0
2, 112163, Note_on_c, 3, 52, 0
2, 112170, Note_on_c, 3, 77, 127
2, 112170, Note_on_c, 3, 50, 127
2, 112193, Note_on_c, 3, 77, 0
2, 112193, Note_on_c, 3, 50, 0
2, 112200, Note_on_c, 3, 79, 127
2, 112200, Note_on_c, 3, 52, 127
2, 112247, Note_on_c, 3, 79, 0
2, 112247, Note_on_c, 3, 52, 0
2, 112260, Note_on_c, 3, 76, 127
2, 112260, Note_on_c, 3, 48, 127
2, 112307, Note_on_c, 3, 76, 0
2, 112307, Note_on_c, 3, 48, 0
2, 112320, Note_on_c, 3, 79, 127
2, 112320, Note_on_c, 3, 52, 127
2, 112367, Note_on_c, 3, 79, 0
2, 112367, Note_on_c, 3, 52, 0
2, 112380, Note_on_c, 3, 79, 127
2, 112380, Note_on_c, 3, 76, 127
2, 112380, Note_on_c, 3, 60, 127
2, 112380, Note_on_c, 3, 48, 127
2, 112427, Note_on_c, 3, 79, 0
2, 112427, Note_on_c, 3, 76, 0
2, 112427, Note_on_c, 3, 60, 0
2, 112427, Note_on_c, 3, 48, 0
2, 112440, Note_on_c, 3, 79, 127
2, 112440, Note_on_c, 3, 74, 127
2, 112440, Note_on_c, 3, 59, 127
2, 112440, Note_on_c, 3, 55, 127
2, 112463, Note_on_c, 3, 79, 0
2, 112463, Note_on_c, 3, 59, 0
2, 112470, Note_on_c, 3, 81, 127
2, 112470, Note_on_c, 3, 60, 127
2, 112487, Note_on_c, 3, 74, 0
2, 112487, Note_on_c, 3, 55, 0
2, 112493, Note_on_c, 3, 81, 0
2, 112493, Note_on_c, 3, 60, 0
2, 112500, Note_on_c, 3, 83, 127
2, 112500, Note_on_c, 3, 62, 127
2, 112523, Note_on_c, 3, 83, 0
2, 112523, Note_on_c, 3, 62, 0
2, 112530, Note_on_c, 3, 81, 127
2, 112530, Note_on_c, 3, 60, 127
2, 112553, Note_on_c, 3, 81, 0
2, 112553, Note_on_c, 3, 60, 0
2, 112560, Note_on_c, 3, 79, 127
2, 112560, Note_on_c, 3, 59, 127
2, 112583, Note_on_c, 3, 79, 0
2, 112583, Note_on_c, 3, 59, 0
2, 112590, Note_on_c, 3, 78, 127
2, 112590, Note_on_c, 3, 57, 127
2, 112613, Note_on_c, 3, 78, 0
2, 112613, Note_on_c, 3, 57, 0
2, 112620, Note_on_c, 3, 79, 127
2, 112620, Note_on_c, 3, 59, 127
2, 112643, Note_on_c, 3, 59, 0
2, 112650, Note_on_c, 3, 60, 127
2, 112667, Note_on_c, 3, 79, 0
2, 112673, Note_on_c, 3, 60, 0
2, 112680, Note_on_c, 3, 83, 127
2, 112680, Note_on_c, 3, 62, 127
2, 112703, Note_on_c, 3, 62, 0
2, 112710, Note_on_c, 3, 60, 127
2, 112727, Note_on_c, 3, 83, 0
2, 112733, Note_on_c, 3, 60, 0
2, 112740, Note_on_c, 3, 79, 127
2, 112740, Note_on_c, 3, 74, 127
2, 112740, Note_on_c, 3, 59, 127
2, 112740, Note_on_c, 3, 55, 127
2, 112763, Note_on_c, 3, 59, 0
2, 112770, Note_on_c, 3, 57, 127
2, 112787, Note_on_c, 3, 79, 0
2, 112787, Note_on_c, 3, 74, 0
2, 112787, Note_on_c, 3, 55, 0
2, 112793, Note_on_c, 3, 57, 0
2, 112800, Note_on_c, 3, 84, 127
2, 112800, Note_on_c, 3, 76, 127
2, 112800, Note_on_c, 3, 55, 127
2, 112800, Note_on_c, 3, 52, 127
2, 112823, Note_on_c, 3, 52, 0
2, 112830, Note_on_c, 3, 55, 127
2, 112847, Note_on_c, 3, 84, 0
2, 112847, Note_on_c, 3, 76, 0
2, 112847, Note_on_c, 3, 55, 0
2, 112853, Note_on_c, 3, 55, 0
2, 112860, Note_on_c, 3, 48, 127
2, 112883, Note_on_c, 3, 48, 0
2, 112890, Note_on_c, 3, 55, 127
2, 112913, Note_on_c, 3, 55, 0
2, 112920, Note_on_c, 3, 71, 127
2, 112920, Note_on_c, 3, 65, 127
2, 112920, Note_on_c, 3, 62, 127
2, 112920, Note_on_c, 3, 50, 127
2, 112943, Note_on_c, 3, 50, 0
2, 112950, Note_on_c, 3, 55, 127
2, 112967, Note_on_c, 3, 71, 0
2, 112967, Note_on_c, 3, 65, 0
2, 112967, Note_on_c, 3, 62, 0
2, 112973, Note_on_c, 3, 55, 0
2, 112980, Note_on_c, 3, 72, 127
2, 112980, Note_on_c, 3, 67, 127
2, 112980, Note_on_c, 3, 60, 127
2, 112980, Note_on_c, 3, 52, 127
2, 113003, Note_on_c, 3, 52, 0
2, 113010, Note_on_c, 3, 55, 127
2, 113027, Note_on_c, 3, 72, 0
2, 113027, Note_on_c, 3, 67, 0
2, 113027, Note_on_c, 3, 60, 0
2, 113033, Note_on_c, 3, 55, 0
2, 113040, Note_on_c, 3, 71, 127
2, 113040, Note_on_c, 3, 65, 127
2, 113040, Note_on_c, 3, 62, 127
2, 113040, Note_on_c, 3, 50, 127
2, 113063, Note_on_c, 3, 50, 0
2, 113070, Note_on_c, 3, 55, 127
2, 113087, Note_on_c, 3, 71, 0
2, 113087, Note_on_c, 3, 65, 0
2, 113087, Note_on_c, 3, 62, 0
2, 113093, Note_on_c, 3, 55, 0
2, 113100, Note_on_c, 3, 72, 127
2, 113100, Note_on_c, 3, 67, 127
2, 113100, Note_on_c, 3, 60, 127
2, 113100, Note_on_c, 3, 52, 127
2, 113123, Note_on_c, 3, 52, 0
2, 113130, Note_on_c, 3, 55, 127
2, 113147, Note_on_c, 3, 72, 0
2, 113147, Note_on_c, 3, 67, 0
2, 113147, Note_on_c, 3, 60, 0
2, 113153, Note_on_c, 3, 55, 0
2, 113160, Note_on_c, 3, 74, 127
2, 113160, Note_on_c, 3, 69, 127
2, 113160, Note_on_c, 3, 57, 127
2, 113160, Note_on_c, 3, 53, 127
2, 113183, Note_on_c, 3, 53, 0
2, 113190, Note_on_c, 3, 55, 127
2, 113207, Note_on_c, 3, 74, 0
2, 113207, Note_on_c, 3, 69, 0
2, 113207, Note_on_c, 3, 57, 0
2, 113213, Note_on_c, 3, 55, 0
2, 113220, Note_on_c, 3, 72, 127
2, 113220, Note_on_c, 3, 67, 127
2, 113220, Note_on_c, 3, 60, 127
2, 113220, Note_on_c, 3, 52, 127
2, 113243, Note_on_c, 3, 52, 0
2, 113250, Note_on_c, 3, 55, 127
2, 113267, Note_on_c, 3, 72, 0
2, 113267, Note_on_c, 3, 67, 0
2, 113267, Note_on_c, 3, 60, 0
2, 113273, Note_on_c, 3, 55, 0
2, 113280, Note_on_c, 3, 71, 127
2, 113280, Note_on_c, 3, 65, 127
2, 113280, Note_on_c, 3, 62, 127
2, 113280, Note_on_c, 3, 50, 127
2, 113303, Note_on_c, 3, 50, 0
2, 113310, Note_on_c, 3, 55, 127
2, 113327, Note_on_c, 3, 71, 0
2, 113327, Note_on_c, 3, 65, 0
2, 113327, Note_on_c, 3, 62, 0
2, 113333, Note_on_c, 3, 55, 0
2, 113340, Note_on_c, 3, 72, 127
2, 113340, Note_on_c, 3, 67, 127
2, 113340, Note_on_c, 3, 60, 127
2, 113340, Note_on_c, 3, 52, 127
2, 113363, Note_on_c, 3, 52, 0
2, 113370, Note_on_c, 3, 55, 127
2, 113387, Note_on_c, 3, 72, 0
2, 113387, Note_on_c, 3, 67, 0
2, 113387, Note_on_c, 3, 60, 0
2, 113393, Note_on_c, 3, 55, 0
2, 113400, Note_on_c, 3, 76, 127
2, 113400, Note_on_c, 3, 67, 127
2, 113400, Note_on_c, 3, 60, 127
2, 113400, Note_on_c, 3, 48, 127
2, 113423, Note_on_c, 3, 48, 0
2, 113430, Note_on_c, 3, 55, 127
2, 113447, Note_on_c, 3, 76, 0
2, 113447, Note_on_c, 3, 67, 0
2, 113447, Note_on_c, 3, 60, 0
2, 113453, Note_on_c, 3, 55, 0
2, 113460, Note_on_c, 3, 72, 127
2, 113460, Note_on_c, 3, 67, 127
2, 113460, Note_on_c, 3, 64, 127
2, 113460, Note_on_c, 3, 46, 127
2, 113483, Note_on_c, 3, 46, 0
2, 113490, Note_on_c, 3, 55, 127
2, 113507, Note_on_c, 3, 72, 0
2, 113507, Note_on_c, 3, 67, 0
2, 113507, Note_on_c, 3, 64, 0
2, 113513, Note_on_c, 3, 55, 0
2, 113520, Note_on_c, 3, 77, 127
2, 113520, Note_on_c, 3, 65, 127
2, 113520, Note_on_c, 3, 60, 127
2, 113520, Note_on_c, 3, 45, 127
2, 113543, Note_on_c, 3, 60, 0
2, 113550, Note_on_c, 3, 58, 127
2, 113567, Note_on_c, 3, 77, 0
2, 113567, Note_on_c, 3, 65, 0
2, 113567, Note_on_c, 3, 45, 0
2, 113573, Note_on_c, 3, 58, 0
2, 113580, Note_on_c, 3, 65, 127
2, 113580, Note_on_c, 3, 57, 127
2, 113580, Note_on_c, 3, 53, 127
2, 113610, Note_on_c, 3, 60, 127
2, 113627, Note_on_c, 3, 65, 0
2, 113627, Note_on_c, 3, 57, 0
2, 113627, Note_on_c, 3, 53, 0
2, 113633, Note_on_c, 3, 60, 0
2, 113640, Note_on_c, 3, 67, 127
2, 113640, Note_on_c, 3, 62, 127
2, 113640, Note_on_c, 3, 47, 127
2, 113670, Note_on_c, 3, 55, 127
2, 113687, Note_on_c, 3, 67, 0
2, 113687, Note_on_c, 3, 62, 0
2, 113687, Note_on_c, 3, 47, 0
2, 113693, Note_on_c, 3, 55, 0
2, 113700, Note_on_c, 3, 67, 127
2, 113700, Note_on_c, 3, 64, 127
2, 113700, Note_on_c, 3, 48, 127
2, 113730, Note_on_c, 3, 60, 127
2, 113747, Note_on_c, 3, 67, 0
2, 113747, Note_on_c, 3, 64, 0
2, 113747, Note_on_c, 3, 48, 0
2, 113753, Note_on_c, 3, 60, 0
2, 113760, Note_on_c, 3, 65, 127
2, 113760, Note_on_c, 3, 57, 127
2, 113760, Note_on_c, 3, 50, 127
2, 113774, Note_on_c, 3, 50, 0
2, 113775, Note_on_c, 3, 48, 127
2, 113789, Note_on_c, 3, 48, 0
2, 113790, Note_on_c, 3, 62, 127
2, 113790, Note_on_c, 3, 50, 127
2, 113804, Note_on_c, 3, 50, 0
2, 113805, Note_on_c, 3, 48, 127
2, 113807, Note_on_c, 3, 65, 0
2, 113807, Note_on_c, 3, 57, 0
2, 113813, Note_on_c, 3, 62, 0
2, 113820, Note_on_c, 3, 67, 127
2, 113820, Note_on_c, 3, 55, 127
2, 113846, Note_on_c, 3, 48, 0
2, 113850, Note_on_c, 3, 62, 127
2, 113850, Note_on_c, 3, 47, 127
2, 113867, Note_on_c, 3, 67, 0
2, 113867, Note_on_c, 3, 55, 0
2, 113873, Note_on_c, 3, 62, 0
2, 113873, Note_on_c, 3, 47, 0
2, 113880, Note_on_c, 3, 64, 127
2, 113880, Note_on_c, 3, 60, 127
2, 113880, Note_on_c, 3, 55, 127
2, 113880, Note_on_c, 3, 48, 127
2, 113903, Note_on_c, 3, 64, 0
2, 113910, Note_on_c, 3, 65, 127
2, 113927, Note_on_c, 3, 60, 0
2, 113927, Note_on_c, 3, 55, 0
2, 113927, Note_on_c, 3, 48, 0
2, 113933, Note_on_c, 3, 65, 0
2, 113940, Note_on_c, 3, 67, 127
2, 113940, Note_on_c, 3, 52, 127
2, 113963, Note_on_c, 3, 67, 0
2, 113970, Note_on_c, 3, 65, 127
2, 113987, Note_on_c, 3, 52, 0
2, 113993, Note_on_c, 3, 65, 0
2, 114000, Note_on_c, 3, 64, 127
2, 114000, Note_on_c, 3, 62, 127
2, 114000, Note_on_c, 3, 55, 127
2, 114000, Note_on_c, 3, 47, 127
2, 114023, Note_on_c, 3, 64, 0
2, 114030, Note_on_c, 3, 62, 127
2, 114047, Note_on_c, 3, 62, 0
2, 114047, Note_on_c, 3, 55, 0
2, 114047, Note_on_c, 3, 47, 0
2, 114053, Note_on_c, 3, 62, 0
2, 114060, Note_on_c, 3, 64, 127
2, 114060, Note_on_c, 3, 60, 127
2, 114060, Note_on_c, 3, 55, 127
2, 114060, Note_on_c, 3, 48, 127
2, 114083, Note_on_c, 3, 64, 0
2, 114090, Note_on_c, 3, 67, 127
2, 114107, Note_on_c, 3, 60, 0
2, 114107, Note_on_c, 3, 55, 0
2, 114107, Note_on_c, 3, 48, 0
2, 114113, Note_on_c, 3, 67, 0
2, 114120, Note_on_c, 3, 72, 127
2, 114120, Note_on_c, 3, 52, 127
2, 114143, Note_on_c, 3, 72, 0
2, 114150, Note_on_c, 3, 71, 127
2, 114167, Note_on_c, 3, 52, 0
2, 114173, Note_on_c, 3, 71, 0
2, 114180, Note_on_c, 3, 69, 127
2, 114180, Note_on_c, 3, 64, 127
2, 114180, Note_on_c, 3, 60, 127
2, 114180, Note_on_c, 3, 48, 127
2, 114203, Note_on_c, 3, 69, 0
2, 114210, Note_on_c, 3, 67, 127
2, 114227, Note_on_c, 3, 64, 0
2, 114227, Note_on_c, 3, 60, 0
2, 114227, Note_on_c, 3, 48, 0
2, 114233, Note_on_c, 3, 67, 0
2, 114240, Note_on_c, 3, 65, 127
2, 114240, Note_on_c, 3, 62, 127
2, 114240, Note_on_c, 3, 57, 127
2, 114240, Note_on_c, 3, 50, 127
2, 114263, Note_on_c, 3, 65, 0
2, 114270, Note_on_c, 3, 67, 127
2, 114287, Note_on_c, 3, 62, 0
2, 114287, Note_on_c, 3, 57, 0
2, 114287, Note_on_c, 3, 50, 0
2, 114293, Note_on_c, 3, 67, 0
2, 114300, Note_on_c, 3, 69, 127
2, 114300, Note_on_c, 3, 53, 127
2, 114323, Note_on_c, 3, 69, 0
2, 114330, Note_on_c, 3, 67, 127
2, 114347, Note_on_c, 3, 53, 0
2, 114353, Note_on_c, 3, 67, 0
2, 114360, Note_on_c, 3, 65, 127
2, 114360, Note_on_c, 3, 64, 127
2, 114360, Note_on_c, 3, 57, 127
2, 114360, Note_on_c, 3, 49, 127
2, 114383, Note_on_c, 3, 65, 0
2, 114390, Note_on_c, 3, 64, 127
2, 114407, Note_on_c, 3, 64, 0
2, 114407, Note_on_c, 3, 57, 0
2, 114407, Note_on_c, 3, 49, 0
2, 114413, Note_on_c, 3, 64, 0
2, 114420, Note_on_c, 3, 65, 127
2, 114420, Note_on_c, 3, 62, 127
2, 114420, Note_on_c, 3, 57, 127
2, 114420, Note_on_c, 3, 50, 127
2, 114443, Note_on_c, 3, 65, 0
2, 114450, Note_on_c, 3, 69, 127
2, 114467, Note_on_c, 3, 62, 0
2, 114467, Note_on_c, 3, 57, 0
2, 114467, Note_on_c, 3, 50, 0
2, 114473, Note_on_c, 3, 69, 0
2, 114480, Note_on_c, 3, 74, 127
2, 114480, Note_on_c, 3, 53, 127
2, 114503, Note_on_c, 3, 74, 0
2, 114510, Note_on_c, 3, 72, 127
2, 114527, Note_on_c, 3, 53, 0
2, 114533, Note_on_c, 3, 72, 0
2, 114540, Note_on_c, 3, 71, 127
2, 114540, Note_on_c, 3, 65, 127
2, 114540, Note_on_c, 3, 62, 127
2, 114540, Note_on_c, 3, 50, 127
2, 114563, Note_on_c, 3, 71, 0
2, 114570, Note_on_c, 3, 69, 127
2, 114587, Note_on_c, 3, 65, 0
2, 114587, Note_on_c, 3, 62, 0
2, 114587, Note_on_c, 3, 50, 0
2, 114593, Note_on_c, 3, 69, 0
2, 114600, Note_on_c, 3, 67, 127
2, 114600, Note_on_c, 3, 64, 127
2, 114600, Note_on_c, 3, 59, 127
2, 114600, Note_on_c, 3, 52, 127
2, 114623, Note_on_c, 3, 67, 0
2, 114630, Note_on_c, 3, 69, 127
2, 114647, Note_on_c, 3, 64, 0
2, 114647, Note_on_c, 3, 59, 0
2, 114647, Note_on_c, 3, 52, 0
2, 114653, Note_on_c, 3, 69, 0
2, 114660, Note_on_c, 3, 71, 127
2, 114660, Note_on_c, 3, 55, 127
2, 114683, Note_on_c, 3, 71, 0
2, 114690, Note_on_c, 3, 69, 127
2, 114707, Note_on_c, 3, 55, 0
2, 114713, Note_on_c, 3, 69, 0
2, 114720, Note_on_c, 3, 67, 127
2, 114720, Note_on_c, 3, 66, 127
2, 114720, Note_on_c, 3, 59, 127
2, 114720, Note_on_c, 3, 51, 127
2, 114743, Note_on_c, 3, 67, 0
2, 114750, Note_on_c, 3, 66, 127
2, 114767, Note_on_c, 3, 66, 0
2, 114767, Note_on_c, 3, 59, 0
2, 114767, Note_on_c, 3, 51, 0
2, 114773, Note_on_c, 3, 66, 0
2, 114780, Note_on_c, 3, 67, 127
2, 114780, Note_on_c, 3, 64, 127
2, 114780, Note_on_c, 3, 59, 127
2, 114780, Note_on_c, 3, 52, 127
2, 114803, Note_on_c, 3, 67, 0
2, 114810, Note_on_c, 3, 71, 127
2, 114827, Note_on_c, 3, 64, 0
2, 114827, Note_on_c, 3, 59, 0
2, 114827, Note_on_c, 3, 52, 0
2, 114833, Note_on_c, 3, 71, 0
2, 114840, Note_on_c, 3, 76, 127
2, 114840, Note_on_c, 3, 55, 127
2, 114863, Note_on_c, 3, 76, 0
2, 114870, Note_on_c, 3, 74, 127
2, 114887, Note_on_c, 3, 55, 0
2, 114893, Note_on_c, 3, 74, 0
2, 114900, Note_on_c, 3, 72, 127
2, 114900, Note_on_c, 3, 67, 127
2, 114900, Note_on_c, 3, 64, 127
2, 114900, Note_on_c, 3, 52, 127
2, 114923, Note_on_c, 3, 72, 0
2, 114930, Note_on_c, 3, 71, 127
2, 114947, Note_on_c, 3, 67, 0
2, 114947, Note_on_c, 3, 64, 0
2, 114947, Note_on_c, 3, 52, 0
2, 114953, Note_on_c, 3, 71, 0
2, 114960, Note_on_c, 3, 69, 127
2, 114960, Note_on_c, 3, 65, 127
2, 114960, Note_on_c, 3, 60, 127
2, 114960, Note_on_c, 3, 53, 127
2, 114983, Note_on_c, 3, 69, 0
2, 114990, Note_on_c, 3, 70, 127
2, 115007, Note_on_c, 3, 65, 0
2, 115007, Note_on_c, 3, 60, 0
2, 115007, Note_on_c, 3, 53, 0
2, 115013, Note_on_c, 3, 70, 0
2, 115020, Note_on_c, 3, 72, 127
2, 115020, Note_on_c, 3, 57, 127
2, 115043, Note_on_c, 3, 72, 0
2, 115050, Note_on_c, 3, 71, 127
2, 115067, Note_on_c, 3, 57, 0
2, 115073, Note_on_c, 3, 71, 0
2, 115080, Note_on_c, 3, 69, 127
2, 115080, Note_on_c, 3, 67, 127
2, 115080, Note_on_c, 3, 60, 127
2, 115080, Note_on_c, 3, 52, 127
2, 115103, Note_on_c, 3, 69, 0
2, 115110, Note_on_c, 3, 67, 127
2, 115127, Note_on_c, 3, 67, 0
2, 115127, Note_on_c, 3, 60, 0
2, 115127, Note_on_c, 3, 52, 0
2, 115133, Note_on_c, 3, 67, 0
2, 115140, Note_on_c, 3, 69, 127
2, 115140, Note_on_c, 3, 65, 127
2, 115140, Note_on_c, 3, 60, 127
2, 115140, Note_on_c, 3, 53, 127
2, 115163, Note_on_c, 3, 69, 0
2, 115170, Note_on_c, 3, 72, 127
2, 115187, Note_on_c, 3, 65, 0
2, 115187, Note_on_c, 3, 60, 0
2, 115187, Note_on_c, 3, 53, 0
2, 115193, Note_on_c, 3, 72, 0
2, 115200, Note_on_c, 3, 77, 127
2, 115200, Note_on_c, 3, 57, 127
2, 115223, Note_on_c, 3, 77, 0
2, 115230, Note_on_c, 3, 76, 127
2, 115247, Note_on_c, 3, 57, 0
2, 115253, Note_on_c, 3, 76, 0
2, 115260, Note_on_c, 3, 74, 127
2, 115260, Note_on_c, 3, 69, 127
2, 115260, Note_on_c, 3, 65, 127
2, 115260, Note_on_c, 3, 53, 127
2, 115283, Note_on_c, 3, 74, 0
2, 115290, Note_on_c, 3, 72, 127
2, 115307, Note_on_c, 3, 69, 0
2, 115307, Note_on_c, 3, 65, 0
2, 115307, Note_on_c, 3, 53, 0
2, 115313, Note_on_c, 3, 72, 0
2, 115320, Note_on_c, 3, 71, 127
2, 115320, Note_on_c, 3, 67, 127
2, 115320, Note_on_c, 3, 62, 127
2, 115320, Note_on_c, 3, 55, 127
2, 115343, Note_on_c, 3, 67, 0
2, 115350, Note_on_c, 3, 69, 127
2, 115367, Note_on_c, 3, 71, 0
2, 115367, Note_on_c, 3, 62, 0
2, 115367, Note_on_c, 3, 55, 0
2, 115373, Note_on_c, 3, 69, 0
2, 115380, Note_on_c, 3, 71, 127
2, 115403, Note_on_c, 3, 71, 0
2, 115410, Note_on_c, 3, 69, 127
2, 115433, Note_on_c, 3, 69, 0
2, 115440, Note_on_c, 3, 71, 127
2, 115440, Note_on_c, 3, 67, 127
2, 115440, Note_on_c, 3, 62, 127
2, 115440, Note_on_c, 3, 55, 127
2, 115463, Note_on_c, 3, 67, 0
2, 115470, Note_on_c, 3, 65, 127
2, 115487, Note_on_c, 3, 71, 0
2, 115487, Note_on_c, 3, 62, 0
2, 115487, Note_on_c, 3, 55, 0
2, 115493, Note_on_c, 3, 65, 0
2, 115500, Note_on_c, 3, 72, 127
2, 115500, Note_on_c, 3, 64, 127
2, 115500, Note_on_c, 3, 60, 127
2, 115500, Note_on_c, 3, 57, 127
2, 115523, Note_on_c, 3, 60, 0
2, 115530, Note_on_c, 3, 62, 127
2, 115547, Note_on_c, 3, 72, 0
2, 115547, Note_on_c, 3, 64, 0
2, 115547, Note_on_c, 3, 57, 0
2, 115553, Note_on_c, 3, 62, 0
2, 115560, Note_on_c, 3, 64, 127
2, 115583, Note_on_c, 3, 64, 0
2, 115590, Note_on_c, 3, 62, 127
2, 115613, Note_on_c, 3, 62, 0
2, 115620, Note_on_c, 3, 72, 127
2, 115620, Note_on_c, 3, 64, 127
2, 115620, Note_on_c, 3, 60, 127
2, 115620, Note_on_c, 3, 57, 127
2, 115643, Note_on_c, 3, 60, 0
2, 115650, Note_on_c, 3, 59, 127
2, 115667, Note_on_c, 3, 72, 0
2, 115667, Note_on_c, 3, 64, 0
2, 115667, Note_on_c, 3, 57, 0
2, 115673, Note_on_c, 3, 59, 0
2, 115680, Note_on_c, 3, 62, 127
2, 115680, Note_on_c, 3, 57, 127
2, 115680, Note_on_c, 3, 54, 127
2, 115710, Note_on_c, 3, 72, 127
2, 115727, Note_on_c, 3, 62, 0
2, 115727, Note_on_c, 3, 57, 0
2, 115727, Note_on_c, 3, 54, 0
2, 115733, Note_on_c, 3, 72, 0
2, 115740, Note_on_c, 3, 71, 127
2, 115740, Note_on_c, 3, 55, 127
2, 115740, Note_on_c, 3, 55, 127
2, 115770, Note_on_c, 3, 62, 127
2, 115787, Note_on_c, 3, 71, 0
2, 115787, Note_on_c, 3, 55, 0
2, 115787, Note_on_c, 3, 55, 0
2, 115793, Note_on_c, 3, 62, 0
2, 115800, Note_on_c, 3, 60, 127
2, 115800, Note_on_c, 3, 52, 127
2, 115800, Note_on_c, 3, 48, 127
2, 115830, Note_on_c, 3, 69, 127
2, 115847, Note_on_c, 3, 60, 0
2, 115847, Note_on_c, 3, 52, 0
2, 115847, Note_on_c, 3, 48, 0
2, 115853, Note_on_c, 3, 69, 0
2, 115860, Note_on_c, 3, 59, 127
2, 115860, Note_on_c, 3, 50, 127
2, 115860, Note_on_c, 3, 50, 127
2, 115890, Note_on_c, 3, 62, 127
2, 115907, Note_on_c, 3, 59, 0
2, 115907, Note_on_c, 3, 50, 0
2, 115907, Note_on_c, 3, 50, 0
2, 115913, Note_on_c, 3, 62, 0
2, 115920, Note_on_c, 3, 67, 127
2, 115920, Note_on_c, 3, 48, 127
2, 115950, Note_on_c, 3, 59, 127
2, 115967, Note_on_c, 3, 67, 0
2, 115967, Note_on_c, 3, 48, 0
2, 115973, Note_on_c, 3, 59, 0
2, 115980, Note_on_c, 3, 57, 127
2, 115980, Note_on_c, 3, 50, 127
2, 116010, Note_on_c, 3, 66, 127
2, 116027, Note_on_c, 3, 57, 0
2, 116027, Note_on_c, 3, 50, 0
2, 116033, Note_on_c, 3, 66, 0
2, 116040, Note_on_c, 3, 67, 127
2, 116040, Note_on_c, 3, 59, 127
2, 116040, Note_on_c, 3, 55, 127
2, 116040, Note_on_c, 3, 43, 127
2, 116087, Note_on_c, 3, 67, 0
2, 116087, Note_on_c, 3, 59, 0
2, 116087, Note_on_c, 3, 55, 0
2, 116087, Note_on_c, 3, 43, 0
2, 116100, Note_on_c, 3, 59, 127
2, 116123, Note_on_c, 3, 59, 0
2, 116130, Note_on_c, 3, 57, 127
2, 116153, Note_on_c, 3, 57, 0
2, 116160, Note_on_c, 3, 59, 127
2, 116207, Note_on_c, 3, 59, 0
2, 116220, Note_on_c, 3, 55, 127
2, 116267, Note_on_c, 3, 55, 0
2, 116280, Note_on_c, 3, 59, 127
2, 116327, Note_on_c, 3, 59, 0
2, 116340, Note_on_c, 3, 79, 127
2, 116340, Note_on_c, 3, 71, 127
2, 116340, Note_on_c, 3, 55, 127
2, 116387, Note_on_c, 3, 79, 0
2, 116387, Note_on_c, 3, 71, 0
2, 116387, Note_on_c, 3, 55, 0
2, 116400, Note_on_c, 3, 76, 127
2, 116400, Note_on_c, 3, 67, 127
2, 116400, Note_on_c, 3, 60, 127
2, 116423, Note_on_c, 3, 76, 0
2, 116430, Note_on_c, 3, 77, 127
2, 116447, Note_on_c, 3, 67, 0
2, 116447, Note_on_c, 3, 60, 0
2, 116453, Note_on_c, 3, 77, 0
2, 116460, Note_on_c, 3, 79, 127
2, 116460, Note_on_c, 3, 64, 127
2, 116483, Note_on_c, 3, 79, 0
2, 116490, Note_on_c, 3, 77, 127
2, 116507, Note_on_c, 3, 64, 0
2, 116513, Note_on_c, 3, 77, 0
2, 116520, Note_on_c, 3, 76, 127
2, 116520, Note_on_c, 3, 65, 127
2, 116543, Note_on_c, 3, 76, 0
2, 116550, Note_on_c, 3, 74, 127
2, 116567, Note_on_c, 3, 65, 0
2, 116573, Note_on_c, 3, 74, 0
2, 116580, Note_on_c, 3, 76, 127
2, 116580, Note_on_c, 3, 67, 127
2, 116603, Note_on_c, 3, 76, 0
2, 116610, Note_on_c, 3, 77, 127
2, 116627, Note_on_c, 3, 67, 0
2, 116633, Note_on_c, 3, 77, 0
2, 116640, Note_on_c, 3, 79, 127
2, 116640, Note_on_c, 3, 64, 127
2, 116663, Note_on_c, 3, 79, 0
2, 116670, Note_on_c, 3, 77, 127
2, 116687, Note_on_c, 3, 64, 0
2, 116693, Note_on_c, 3, 77, 0
2, 116700, Note_on_c, 3, 76, 127
2, 116700, Note_on_c, 3, 66, 127
2, 116700, Note_on_c, 3, 60, 127
2, 116723, Note_on_c, 3, 76, 0
2, 116730, Note_on_c, 3, 77, 127
2, 116747, Note_on_c, 3, 66, 0
2, 116747, Note_on_c, 3, 60, 0
2, 116753, Note_on_c, 3, 77, 0
2, 116760, Note_on_c, 3, 74, 127
2, 116760, Note_on_c, 3, 67, 127
2, 116760, Note_on_c, 3, 59, 127
2, 116807, Note_on_c, 3, 74, 0
2, 116807, Note_on_c, 3, 67, 0
2, 116807, Note_on_c, 3, 59, 0
2, 116820, Note_on_c, 3, 62, 127
2, 116843, Note_on_c, 3, 62, 0
2, 116850, Note_on_c, 3, 60, 127
2, 116873, Note_on_c, 3, 60, 0
2, 116880, Note_on_c, 3, 62, 127
2, 116927, Note_on_c, 3, 62, 0
2, 116940, Note_on_c, 3, 59, 127
2, 116987, Note_on_c, 3, 59, 0
2, 117000, Note_on_c, 3, 62, 127
2, 117047, Note_on_c, 3, 62, 0
2, 117060, Note_on_c, 3, 74, 127
2, 117060, Note_on_c, 3, 74, 127
2, 117060, Note_on_c, 3, 59, 127
2, 117107, Note_on_c, 3, 74, 0
2, 117107, Note_on_c, 3, 74, 0
2, 117107, Note_on_c, 3, 59, 0
2, 117120, Note_on_c, 3, 79, 127
2, 117120, Note_on_c, 3, 71, 127
2, 117120, Note_on_c, 3, 64, 127
2, 117143, Note_on_c, 3, 79, 0
2, 117150, Note_on_c, 3, 81, 127
2, 117167, Note_on_c, 3, 71, 0
2, 117167, Note_on_c, 3, 64, 0
2, 117173, Note_on_c, 3, 81, 0
2, 117180, Note_on_c, 3, 83, 127
2, 117180, Note_on_c, 3, 67, 127
2, 117203, Note_on_c, 3, 83, 0
2, 117210, Note_on_c, 3, 81, 127
2, 117227, Note_on_c, 3, 67, 0
2, 117233, Note_on_c, 3, 81, 0
2, 117240, Note_on_c, 3, 79, 127
2, 117240, Note_on_c, 3, 69, 127
2, 117263, Note_on_c, 3, 79, 0
2, 117270, Note_on_c, 3, 78, 127
2, 117287, Note_on_c, 3, 69, 0
2, 117293, Note_on_c, 3, 78, 0
2, 117300, Note_on_c, 3, 79, 127
2, 117300, Note_on_c, 3, 71, 127
2, 117323, Note_on_c, 3, 79, 0
2, 117330, Note_on_c, 3, 81, 127
2, 117347, Note_on_c, 3, 71, 0
2, 117353, Note_on_c, 3, 81, 0
2, 117360, Note_on_c, 3, 83, 127
2, 117360, Note_on_c, 3, 67, 127
2, 117383, Note_on_c, 3, 83, 0
2, 117390, Note_on_c, 3, 81, 127
2, 117407, Note_on_c, 3, 67, 0
2, 117413, Note_on_c, 3, 81, 0
2, 117420, Note_on_c, 3, 79, 127
2, 117420, Note_on_c, 3, 71, 127
2, 117420, Note_on_c, 3, 64, 127
2, 117443, Note_on_c, 3, 79, 0
2, 117450, Note_on_c, 3, 78, 127
2, 117467, Note_on_c, 3, 71, 0
2, 117467, Note_on_c, 3, 64, 0
2, 117473, Note_on_c, 3, 78, 0
2, 117480, Note_on_c, 3, 76, 127
2, 117480, Note_on_c, 3, 72, 127
2, 117480, Note_on_c, 3, 60, 127
2, 117527, Note_on_c, 3, 76, 0
2, 117527, Note_on_c, 3, 72, 0
2, 117527, Note_on_c, 3, 60, 0
2, 117540, Note_on_c, 3, 64, 127
2, 117563, Note_on_c, 3, 64, 0
2, 117570, Note_on_c, 3, 62, 127
2, 117593, Note_on_c, 3, 62, 0
2, 117600, Note_on_c, 3, 64, 127
2, 117647, Note_on_c, 3, 64, 0
2, 117660, Note_on_c, 3, 60, 127
2, 117707, Note_on_c, 3, 60, 0
2, 117720, Note_on_c, 3, 64, 127
2, 117767, Note_on_c, 3, 64, 0
2, 117780, Note_on_c, 3, 76, 127
2, 117780, Note_on_c, 3, 72, 127
2, 117780, Note_on_c, 3, 60, 127
2, 117827, Note_on_c, 3, 76, 0
2, 117827, Note_on_c, 3, 72, 0
2, 117827, Note_on_c, 3, 60, 0
2, 117840, Note_on_c, 3, 79, 127
2, 117840, Note_on_c, 3, 71, 127
2, 117840, Note_on_c, 3, 67, 127
2, 117863, Note_on_c, 3, 79, 0
2, 117863, Note_on_c, 3, 71, 0
2, 117870, Note_on_c, 3, 81, 127
2, 117870, Note_on_c, 3, 72, 127
2, 117887, Note_on_c, 3, 67, 0
2, 117893, Note_on_c, 3, 81, 0
2, 117893, Note_on_c, 3, 72, 0
2, 117900, Note_on_c, 3, 83, 127
2, 117900, Note_on_c, 3, 74, 127
2, 117923, Note_on_c, 3, 83, 0
2, 117923, Note_on_c, 3, 74, 0
2, 117930, Note_on_c, 3, 81, 127
2, 117930, Note_on_c, 3, 72, 127
2, 117953, Note_on_c, 3, 81, 0
2, 117953, Note_on_c, 3, 72, 0
2, 117960, Note_on_c, 3, 79, 127
2, 117960, Note_on_c, 3, 71, 127
2, 117983, Note_on_c, 3, 79, 0
2, 117983, Note_on_c, 3, 71, 0
2, 117990, Note_on_c, 3, 78, 127
2, 117990, Note_on_c, 3, 69, 127
2, 118013, Note_on_c, 3, 78, 0
2, 118013, Note_on_c, 3, 69, 0
2, 118020, Note_on_c, 3, 79, 127
2, 118020, Note_on_c, 3, 71, 127
2, 118043, Note_on_c, 3, 79, 0
2, 118043, Note_on_c, 3, 71, 0
2, 118050, Note_on_c, 3, 81, 127
2, 118050, Note_on_c, 3, 72, 127
2, 118073, Note_on_c, 3, 81, 0
2, 118073, Note_on_c, 3, 72, 0
2, 118080, Note_on_c, 3, 83, 127
2, 118080, Note_on_c, 3, 74, 127
2, 118103, Note_on_c, 3, 83, 0
2, 118103, Note_on_c, 3, 74, 0
2, 118110, Note_on_c, 3, 81, 127
2, 118110, Note_on_c, 3, 72, 127
2, 118133, Note_on_c, 3, 81, 0
2, 118133, Note_on_c, 3, 72, 0
2, 118140, Note_on_c, 3, 83, 127
2, 118140, Note_on_c, 3, 74, 127
2, 118140, Note_on_c, 3, 67, 127
2, 118163, Note_on_c, 3, 83, 0
2, 118163, Note_on_c, 3, 74, 0
2, 118170, Note_on_c, 3, 79, 127
2, 118170, Note_on_c, 3, 71, 127
2, 118187, Note_on_c, 3, 67, 0
2, 118193, Note_on_c, 3, 79, 0
2, 118193, Note_on_c, 3, 71, 0
2, 118200, Note_on_c, 3, 84, 127
2, 118200, Note_on_c, 3, 72, 127
2, 118200, Note_on_c, 3, 64, 127
2, 118223, Note_on_c, 3, 64, 0
2, 118230, Note_on_c, 3, 67, 127
2, 118247, Note_on_c, 3, 84, 0
2, 118247, Note_on_c, 3, 72, 0
2, 118253, Note_on_c, 3, 67, 0
2, 118260, Note_on_c, 3, 76, 127
2, 118260, Note_on_c, 3, 60, 127
2, 118283, Note_on_c, 3, 60, 0
2, 118290, Note_on_c, 3, 67, 127
2, 118307, Note_on_c, 3, 76, 0
2, 118313, Note_on_c, 3, 67, 0
2, 118320, Note_on_c, 3, 77, 127
2, 118320, Note_on_c, 3, 71, 127
2, 118320, Note_on_c, 3, 62, 127
2, 118343, Note_on_c, 3, 62, 0
2, 118350, Note_on_c, 3, 67, 127
2, 118367, Note_on_c, 3, 77, 0
2, 118367, Note_on_c, 3, 71, 0
2, 118373, Note_on_c, 3, 67, 0
2, 118380, Note_on_c, 3, 79, 127
2, 118380, Note_on_c, 3, 72, 127
2, 118380, Note_on_c, 3, 64, 127
2, 118403, Note_on_c, 3, 64, 0
2, 118410, Note_on_c, 3, 67, 127
2, 118427, Note_on_c, 3, 79, 0
2, 118427, Note_on_c, 3, 72, 0
2, 118433, Note_on_c, 3, 67, 0
2, 118440, Note_on_c, 3, 77, 127
2, 118440, Note_on_c, 3, 71, 127
2, 118440, Note_on_c, 3, 62, 127
2, 118463, Note_on_c, 3, 62, 0
2, 118470, Note_on_c, 3, 67, 127
2, 118487, Note_on_c, 3, 77, 0
2, 118487, Note_on_c, 3, 71, 0
2, 118493, Note_on_c, 3, 67, 0
2, 118500, Note_on_c, 3, 79, 127
2, 118500, Note_on_c, 3, 72, 127
2, 118500, Note_on_c, 3, 64, 127
2, 118523, Note_on_c, 3, 64, 0
2, 118530, Note_on_c, 3, 67, 127
2, 118547, Note_on_c, 3, 79, 0
2, 118547, Note_on_c, 3, 72, 0
2, 118553, Note_on_c, 3, 67, 0
2, 118560, Note_on_c, 3, 81, 127
2, 118560, Note_on_c, 3, 72, 127
2, 118560, Note_on_c, 3, 65, 127
2, 118583, Note_on_c, 3, 65, 0
2, 118590, Note_on_c, 3, 67, 127
2, 118607, Note_on_c, 3, 81, 0
2, 118607, Note_on_c, 3, 72, 0
2, 118613, Note_on_c, 3, 67, 0
2, 118620, Note_on_c, 3, 79, 127
2, 118620, Note_on_c, 3, 72, 127
2, 118620, Note_on_c, 3, 64, 127
2, 118643, Note_on_c, 3, 64, 0
2, 118650, Note_on_c, 3, 67, 127
2, 118667, Note_on_c, 3, 79, 0
2, 118667, Note_on_c, 3, 72, 0
2, 118673, Note_on_c, 3, 67, 0
2, 118680, Note_on_c, 3, 77, 127
2, 118680, Note_on_c, 3, 71, 127
2, 118680, Note_on_c, 3, 62, 127
2, 118703, Note_on_c, 3, 62, 0
2, 118710, Note_on_c, 3, 67, 127
2, 118727, Note_on_c, 3, 77, 0
2, 118727, Note_on_c, 3, 71, 0
2, 118733, Note_on_c, 3, 67, 0
2, 118740, Note_on_c, 3, 79, 127
2, 118740, Note_on_c, 3, 72, 127
2, 118740, Note_on_c, 3, 64, 127
2, 118763, Note_on_c, 3, 64, 0
2, 118770, Note_on_c, 3, 67, 127
2, 118787, Note_on_c, 3, 79, 0
2, 118787, Note_on_c, 3, 72, 0
2, 118793, Note_on_c, 3, 67, 0
2, 118800, Note_on_c, 3, 76, 127
2, 118800, Note_on_c, 3, 72, 127
2, 118800, Note_on_c, 3, 60, 127
2, 118823, Note_on_c, 3, 60, 0
2, 118830, Note_on_c, 3, 67, 127
2, 118847, Note_on_c, 3, 76, 0
2, 118847, Note_on_c, 3, 72, 0
2, 118853, Note_on_c, 3, 67, 0
2, 118860, Note_on_c, 3, 72, 127
2, 118860, Note_on_c, 3, 64, 127
2, 118860, Note_on_c, 3, 58, 127
2, 118883, Note_on_c, 3, 58, 0
2, 118890, Note_on_c, 3, 67, 127
2, 118907, Note_on_c, 3, 72, 0
2, 118907, Note_on_c, 3, 64, 0
2, 118913, Note_on_c, 3, 67, 0
2, 118920, Note_on_c, 3, 77, 127
2, 118920, Note_on_c, 3, 65, 127
2, 118920, Note_on_c, 3, 57, 127
2, 118943, Note_on_c, 3, 65, 0
2, 118950, Note_on_c, 3, 67, 127
2, 118967, Note_on_c, 3, 77, 0
2, 118967, Note_on_c, 3, 57, 0
2, 118973, Note_on_c, 3, 67, 0
2, 118980, Note_on_c, 3, 69, 127
2, 118980, Note_on_c, 3, 65, 127
2, 119003, Note_on_c, 3, 69, 0
2, 119010, Note_on_c, 3, 67, 127
2, 119027, Note_on_c, 3, 65, 0
2, 119033, Note_on_c, 3, 67, 0
2, 119040, Note_on_c, 3, 65, 127
2, 119040, Note_on_c, 3, 59, 127
2, 119063, Note_on_c, 3, 65, 0
2, 119070, Note_on_c, 3, 67, 127
2, 119087, Note_on_c, 3, 59, 0
2, 119093, Note_on_c, 3, 67, 0
2, 119100, Note_on_c, 3, 64, 127
2, 119100, Note_on_c, 3, 60, 127
2, 119130, Note_on_c, 3, 72, 127
2, 119147, Note_on_c, 3, 64, 0
2, 119147, Note_on_c, 3, 60, 0
2, 119153, Note_on_c, 3, 72, 0
2, 119160, Note_on_c, 3, 74, 127
2, 119160, Note_on_c, 3, 62, 127
2, 119174, Note_on_c, 3, 62, 0
2, 119175, Note_on_c, 3, 60, 127
2, 119189, Note_on_c, 3, 60, 0
2, 119190, Note_on_c, 3, 65, 127
2, 119190, Note_on_c, 3, 62, 127
2, 119204, Note_on_c, 3, 62, 0
2, 119205, Note_on_c, 3, 60, 127
2, 119213, Note_on_c, 3, 65, 0
2, 119220, Note_on_c, 3, 67, 127
2, 119243, Note_on_c, 3, 67, 0
2, 119246, Note_on_c, 3, 60, 0
2, 119250, Note_on_c, 3, 62, 127
2, 119250, Note_on_c, 3, 59, 127
2, 119255, Note_on_c, 3, 74, 0
2, 119273, Note_on_c, 3, 62, 0
2, 119273, Note_on_c, 3, 59, 0
2, 119280, Note_on_c, 3, 64, 127
2, 119280, Note_on_c, 3, 60, 127
2, 119310, Note_on_c, 3, 67, 127
2, 119327, Note_on_c, 3, 64, 0
2, 119327, Note_on_c, 3, 60, 0
2, 119333, Note_on_c, 3, 67, 0
2, 119340, Note_on_c, 3, 72, 127
2, 119340, Note_on_c, 3, 57, 127
2, 119370, Note_on_c, 3, 62, 127
2, 119387, Note_on_c, 3, 72, 0
2, 119387, Note_on_c, 3, 57, 0
2, 119393, Note_on_c, 3, 62, 0
2, 119400, Note_on_c, 3, 67, 127
2, 119400, Note_on_c, 3, 64, 127
2, 119400, Note_on_c, 3, 52, 127
2, 119423, Note_on_c, 3, 64, 0
2, 119430, Note_on_c, 3, 60, 127
2, 119447, Note_on_c, 3, 67, 0
2, 119447, Note_on_c, 3, 52, 0
2, 119453, Note_on_c, 3, 60, 0
2, 119460, Note_on_c, 3, 69, 127
2, 119460, Note_on_c, 3, 53, 127
2, 119490, Note_on_c, 3, 60, 127
2, 119507, Note_on_c, 3, 69, 0
2, 119507, Note_on_c, 3, 53, 0
2, 119513, Note_on_c, 3, 60, 0
2, 119520, Note_on_c, 3, 59, 127
2, 119520, Note_on_c, 3, 55, 127
2, 119550, Note_on_c, 3, 67, 127
2, 119567, Note_on_c, 3, 55, 0
2, 119573, Note_on_c, 3, 67, 0
2, 119580, Note_on_c, 3, 62, 127
2, 119580, Note_on_c, 3, 43, 127
2, 119603, Note_on_c, 3, 62, 0
2, 119610, Note_on_c, 3, 65, 127
2, 119615, Note_on_c, 3, 59, 0
2, 119627, Note_on_c, 3, 43, 0
2, 119633, Note_on_c, 3, 65, 0
2, 119640, Note_on_c, 3, 64, 127
2, 119640, Note_on_c, 3, 60, 127
2, 119640, Note_on_c, 3, 48, 127
2, 119640, Note_on_c, 3, 48, 127
2, 119687, Note_on_c, 3, 64, 0
2, 119687, Note_on_c, 3, 60, 0
2, 119687, Note_on_c, 3, 48, 0
2, 119687, Note_on_c, 3, 48, 0
2, 119700, Note_on_c, 3, 36, 127
2, 119700, Note_on_c, 3, 52, 127
2, 119723, Note_on_c, 3, 52, 0
2, 119730, Note_on_c, 3, 50, 127
2, 119747, Note_on_c, 3, 36, 0
2, 119753, Note_on_c, 3, 50, 0
2, 119760, Note_on_c, 3, 52, 127
2, 119807, Note_on_c, 3, 52, 0
2, 119820, Note_on_c, 3, 48, 127
2, 119867, Note_on_c, 3, 48, 0
2, 119880, Note_on_c, 3, 52, 127
2, 119927, Note_on_c, 3, 52, 0
2, 119940, Note_on_c, 3, 64, 127
2, 119940, Note_on_c, 3, 60, 127
2, 119940, Note_on_c, 3, 48, 127
2, 119987, Note_on_c, 3, 64, 0
2, 119987, Note_on_c, 3, 60, 0
2, 119987, Note_on_c, 3, 48, 0
2, 120000, Note_on_c, 3, 62, 127
2, 120000, Note_on_c, 3, 59, 127
2, 120000, Note_on_c, 3, 55, 127
2, 120023, Note_on_c, 3, 62, 0
2, 120023, Note_on_c, 3, 59, 0
2, 120030, Note_on_c, 3, 67, 127
2, 120030, Note_on_c, 3, 60, 127
2, 120047, Note_on_c, 3, 55, 0
2, 120053, Note_on_c, 3, 67, 0
2, 120053, Note_on_c, 3, 60, 0
2, 120060, Note_on_c, 3, 71, 127
2, 120060, Note_on_c, 3, 62, 127
2, 120083, Note_on_c, 3, 71, 0
2, 120083, Note_on_c, 3, 62, 0
2, 120090, Note_on_c, 3, 69, 127
2, 120090, Note_on_c, 3, 60, 127
2, 120113, Note_on_c, 3, 69, 0
2, 120113, Note_on_c, 3, 60, 0
2, 120120, Note_on_c, 3, 67, 127
2, 120120, Note_on_c, 3, 59, 127
2, 120143, Note_on_c, 3, 67, 0
2, 120143, Note_on_c, 3, 59, 0
2, 120150, Note_on_c, 3, 66, 127
2, 120150, Note_on_c, 3, 57, 127
2, 120173, Note_on_c, 3, 66, 0
2, 120173, Note_on_c, 3, 57, 0
2, 120180, Note_on_c, 3, 67, 127
2, 120180, Note_on_c, 3, 59, 127
2, 120203, Note_on_c, 3, 59, 0
2, 120210, Note_on_c, 3, 60, 127
2, 120227, Note_on_c, 3, 67, 0
2, 120233, Note_on_c, 3, 60, 0
2, 120240, Note_on_c, 3, 71, 127
2, 120240, Note_on_c, 3, 62, 127
2, 120263, Note_on_c, 3, 62, 0
2, 120270, Note_on_c, 3, 60, 127
2, 120287, Note_on_c, 3, 71, 0
2, 120293, Note_on_c, 3, 60, 0
2, 120300, Note_on_c, 3, 67, 127
2, 120300, Note_on_c, 3, 59, 127
2, 120300, Note_on_c, 3, 55, 127
2, 120323, Note_on_c, 3, 59, 0
2, 120330, Note_on_c, 3, 57, 127
2, 120347, Note_on_c, 3, 67, 0
2, 120347, Note_on_c, 3, 55, 0
2, 120353, Note_on_c, 3, 57, 0
2, 120360, Note_on_c, 3, 72, 127
2, 120360, Note_on_c, 3, 55, 127
2, 120360, Note_on_c, 3, 52, 127
2, 120407, Note_on_c, 3, 72, 0
2, 120407, Note_on_c, 3, 55, 0
2, 120407, Note_on_c, 3, 52, 0
2, 120420, Note_on_c, 3, 55, 127
2, 120443, Note_on_c, 3, 55, 0
2, 120450, Note_on_c, 3, 53, 127
2, 120473, Note_on_c, 3, 53, 0
2, 120480, Note_on_c, 3, 55, 127
2, 120527, Note_on_c, 3, 55, 0
2, 120540, Note_on_c, 3, 52, 127
2, 120587, Note_on_c, 3, 52, 0
2, 120600, Note_on_c, 3, 55, 127
2, 120647, Note_on_c, 3, 55, 0
2, 120660, Note_on_c, 3, 72, 127
2, 120660, Note_on_c, 3, 64, 127
2, 120660, Note_on_c, 3, 52, 127
2, 120707, Note_on_c, 3, 72, 0
2, 120707, Note_on_c, 3, 64, 0
2, 120707, Note_on_c, 3, 52, 0
2, 120720, Note_on_c, 3, 69, 127
2, 120720, Note_on_c, 3, 60, 127
2, 120720, Note_on_c, 3, 57, 127
2, 120743, Note_on_c, 3, 69, 0
2, 120743, Note_on_c, 3, 60, 0
2, 120750, Note_on_c, 3, 71, 127
2, 120750, Note_on_c, 3, 62, 127
2, 120767, Note_on_c, 3, 57, 0
2, 120773, Note_on_c, 3, 71, 0
2, 120773, Note_on_c, 3, 62, 0
2, 120780, Note_on_c, 3, 72, 127
2, 120780, Note_on_c, 3, 64, 127
2, 120803, Note_on_c, 3, 72, 0
2, 120803, Note_on_c, 3, 64, 0
2, 120810, Note_on_c, 3, 71, 127
2, 120810, Note_on_c, 3, 62, 127
2, 120833, Note_on_c, 3, 71, 0
2, 120833, Note_on_c, 3, 62, 0
2, 120840, Note_on_c, 3, 69, 127
2, 120840, Note_on_c, 3, 60, 127
2, 120863, Note_on_c, 3, 69, 0
2, 120863, Note_on_c, 3, 60, 0
2, 120870, Note_on_c, 3, 68, 127
2, 120870, Note_on_c, 3, 59, 127
2, 120893, Note_on_c, 3, 68, 0
2, 120893, Note_on_c, 3, 59, 0
2, 120900, Note_on_c, 3, 69, 127
2, 120900, Note_on_c, 3, 60, 127
2, 120923, Note_on_c, 3, 60, 0
2, 120930, Note_on_c, 3, 62, 127
2, 120947, Note_on_c, 3, 69, 0
2, 120953, Note_on_c, 3, 62, 0
2, 120960, Note_on_c, 3, 72, 127
2, 120960, Note_on_c, 3, 64, 127
2, 120983, Note_on_c, 3, 64, 0
2, 120990, Note_on_c, 3, 62, 127
2, 121007, Note_on_c, 3, 72, 0
2, 121013, Note_on_c, 3, 62, 0
2, 121020, Note_on_c, 3, 64, 127
2, 121020, Note_on_c, 3, 60, 127
2, 121020, Note_on_c, 3, 57, 127
2, 121043, Note_on_c, 3, 60, 0
2, 121050, Note_on_c, 3, 58, 127
2, 121067, Note_on_c, 3, 64, 0
2, 121067, Note_on_c, 3, 57, 0
2, 121073, Note_on_c, 3, 58, 0
2, 121080, Note_on_c, 3, 65, 127
2, 121080, Note_on_c, 3, 57, 127
2, 121080, Note_on_c, 3, 53, 127
2, 121127, Note_on_c, 3, 65, 0
2, 121127, Note_on_c, 3, 57, 0
2, 121127, Note_on_c, 3, 53, 0
2, 121140, Note_on_c, 3, 57, 127
2, 121163, Note_on_c, 3, 57, 0
2, 121170, Note_on_c, 3, 55, 127
2, 121193, Note_on_c, 3, 55, 0
2, 121200, Note_on_c, 3, 57, 127
2, 121247, Note_on_c, 3, 57, 0
2, 121260, Note_on_c, 3, 53, 127
2, 121307, Note_on_c, 3, 53, 0
2, 121320, Note_on_c, 3, 57, 127
2, 121367, Note_on_c, 3, 57, 0
2, 121380, Note_on_c, 3, 65, 127
2, 121380, Note_on_c, 3, 57, 127
2, 121380, Note_on_c, 3, 53, 127
2, 121427, Note_on_c, 3, 65, 0
2, 121427, Note_on_c, 3, 57, 0
2, 121427, Note_on_c, 3, 53, 0
2, 121440, Note_on_c, 3, 64, 127
2, 121440, Note_on_c, 3, 55, 127
2, 121440, Note_on_c, 3, 60, 127
2, 121463, Note_on_c, 3, 64, 0
2, 121470, Note_on_c, 3, 65, 127
2, 121487, Note_on_c, 3, 55, 0
2, 121487, Note_on_c, 3, 60, 0
2, 121493, Note_on_c, 3, 65, 0
2, 121500, Note_on_c, 3, 67, 127
2, 121500, Note_on_c, 3, 52, 127
2, 121523, Note_on_c, 3, 67, 0
2, 121530, Note_on_c, 3, 65, 127
2, 121547, Note_on_c, 3, 52, 0
2, 121553, Note_on_c, 3, 65, 0
2, 121560, Note_on_c, 3, 64, 127
2, 121560, Note_on_c, 3, 53, 127
2, 121583, Note_on_c, 3, 64, 0
2, 121590, Note_on_c, 3, 62, 127
2, 121607, Note_on_c, 3, 53, 0
2, 121613, Note_on_c, 3, 62, 0
2, 121620, Note_on_c, 3, 64, 127
2, 121620, Note_on_c, 3, 55, 127
2, 121643, Note_on_c, 3, 64, 0
2, 121650, Note_on_c, 3, 65, 127
2, 121667, Note_on_c, 3, 55, 0
2, 121673, Note_on_c, 3, 65, 0
2, 121680, Note_on_c, 3, 67, 127
2, 121680, Note_on_c, 3, 52, 127
2, 121703, Note_on_c, 3, 67, 0
2, 121710, Note_on_c, 3, 65, 127
2, 121727, Note_on_c, 3, 52, 0
2, 121733, Note_on_c, 3, 65, 0
2, 121740, Note_on_c, 3, 64, 127
2, 121740, Note_on_c, 3, 54, 127
2, 121740, Note_on_c, 3, 60, 127
2, 121763, Note_on_c, 3, 64, 0
2, 121770, Note_on_c, 3, 66, 127
2, 121787, Note_on_c, 3, 54, 0
2, 121787, Note_on_c, 3, 60, 0
2, 121793, Note_on_c, 3, 66, 0
2, 121800, Note_on_c, 3, 62, 127
2, 121800, Note_on_c, 3, 55, 127
2, 121800, Note_on_c, 3, 59, 127
2, 121823, Note_on_c, 3, 59, 0
2, 121830, Note_on_c, 3, 62, 127
2, 121847, Note_on_c, 3, 62, 0
2, 121847, Note_on_c, 3, 55, 0
2, 121853, Note_on_c, 3, 62, 0
2, 121860, Note_on_c, 3, 67, 127
2, 121860, Note_on_c, 3, 59, 127
2, 121860, Note_on_c, 3, 55, 127
2, 121883, Note_on_c, 3, 55, 0
2, 121890, Note_on_c, 3, 62, 127
2, 121907, Note_on_c, 3, 67, 0
2, 121907, Note_on_c, 3, 59, 0
2, 121913, Note_on_c, 3, 62, 0
2, 121920, Note_on_c, 3, 66, 127
2, 121920, Note_on_c, 3, 60, 127
2, 121920, Note_on_c, 3, 57, 127
2, 121943, Note_on_c, 3, 57, 0
2, 121950, Note_on_c, 3, 62, 127
2, 121967, Note_on_c, 3, 66, 0
2, 121967, Note_on_c, 3, 60, 0
2, 121973, Note_on_c, 3, 62, 0
2, 121980, Note_on_c, 3, 67, 127
2, 121980, Note_on_c, 3, 62, 127
2, 121980, Note_on_c, 3, 59, 127
2, 122003, Note_on_c, 3, 59, 0
2, 122010, Note_on_c, 3, 62, 127
2, 122027, Note_on_c, 3, 67, 0
2, 122027, Note_on_c, 3, 62, 0
2, 122033, Note_on_c, 3, 62, 0
2, 122040, Note_on_c, 3, 66, 127
2, 122040, Note_on_c, 3, 60, 127
2, 122040, Note_on_c, 3, 57, 127
2, 122063, Note_on_c, 3, 57, 0
2, 122070, Note_on_c, 3, 62, 127
2, 122087, Note_on_c, 3, 66, 0
2, 122087, Note_on_c, 3, 60, 0
2, 122093, Note_on_c, 3, 62, 0
2, 122100, Note_on_c, 3, 67, 127
2, 122100, Note_on_c, 3, 62, 127
2, 122100, Note_on_c, 3, 59, 127
2, 122123, Note_on_c, 3, 59, 0
2, 122130, Note_on_c, 3, 62, 127
2, 122147, Note_on_c, 3, 67, 0
2, 122147, Note_on_c, 3, 62, 0
2, 122153, Note_on_c, 3, 62, 0
2, 122160, Note_on_c, 3, 69, 127
2, 122160, Note_on_c, 3, 64, 127
2, 122160, Note_on_c, 3, 60, 127
2, 122183, Note_on_c, 3, 60, 0
2, 122190, Note_on_c, 3, 62, 127
2, 122207, Note_on_c, 3, 69, 0
2, 122207, Note_on_c, 3, 64, 0
2, 122213, Note_on_c, 3, 62, 0
2, 122220, Note_on_c, 3, 67, 127
2, 122220, Note_on_c, 3, 62, 127
2, 122220, Note_on_c, 3, 59, 127
2, 122243, Note_on_c, 3, 59, 0
2, 122250, Note_on_c, 3, 62, 127
2, 122267, Note_on_c, 3, 67, 0
2, 122267, Note_on_c, 3, 62, 0
2, 122273, Note_on_c, 3, 62, 0
2, 122280, Note_on_c, 3, 66, 127
2, 122280, Note_on_c, 3, 60, 127
2, 122280, Note_on_c, 3, 57, 127
2, 122303, Note_on_c, 3, 57, 0
2, 122310, Note_on_c, 3, 62, 127
2, 122327, Note_on_c, 3, 66, 0
2, 122327, Note_on_c, 3, 60, 0
2, 122333, Note_on_c, 3, 62, 0
2, 122340, Note_on_c, 3, 67, 127
2, 122340, Note_on_c, 3, 62, 127
2, 122340, Note_on_c, 3, 59, 127
2, 122363, Note_on_c, 3, 59, 0
2, 122370, Note_on_c, 3, 62, 127
2, 122387, Note_on_c, 3, 67, 0
2, 122387, Note_on_c, 3, 62, 0
2, 122393, Note_on_c, 3, 62, 0
2, 122400, Note_on_c, 3, 71, 127
2, 122400, Note_on_c, 3, 62, 127
2, 122400, Note_on_c, 3, 55, 127
2, 122423, Note_on_c, 3, 55, 0
2, 122430, Note_on_c, 3, 62, 127
2, 122447, Note_on_c, 3, 71, 0
2, 122447, Note_on_c, 3, 62, 0
2, 122453, Note_on_c, 3, 62, 0
2, 122460, Note_on_c, 3, 67, 127
2, 122460, Note_on_c, 3, 59, 127
2, 122460, Note_on_c, 3, 53, 127
2, 122483, Note_on_c, 3, 53, 0
2, 122490, Note_on_c, 3, 62, 127
2, 122507, Note_on_c, 3, 67, 0
2, 122507, Note_on_c, 3, 59, 0
2, 122513, Note_on_c, 3, 62, 0
2, 122520, Note_on_c, 3, 72, 127
2, 122520, Note_on_c, 3, 55, 127
2, 122520, Note_on_c, 3, 52, 127
2, 122543, Note_on_c, 3, 72, 0
2, 122550, Note_on_c, 3, 67, 127
2, 122567, Note_on_c, 3, 55, 0
2, 122567, Note_on_c, 3, 52, 0
2, 122573, Note_on_c, 3, 67, 0
2, 122580, Note_on_c, 3, 72, 127
2, 122580, Note_on_c, 3, 60, 127
2, 122610, Note_on_c, 3, 64, 127
2, 122627, Note_on_c, 3, 72, 0
2, 122627, Note_on_c, 3, 60, 0
2, 122633, Note_on_c, 3, 64, 0
2, 122640, Note_on_c, 3, 62, 127
2, 122640, Note_on_c, 3, 54, 127
2, 122670, Note_on_c, 3, 72, 127
2, 122687, Note_on_c, 3, 62, 0
2, 122687, Note_on_c, 3, 54, 0
2, 122693, Note_on_c, 3, 72, 0
2, 122700, Note_on_c, 3, 62, 127
2, 122700, Note_on_c, 3, 55, 127
2, 122730, Note_on_c, 3, 71, 127
2, 122747, Note_on_c, 3, 62, 0
2, 122747, Note_on_c, 3, 55, 0
2, 122753, Note_on_c, 3, 71, 0
2, 122760, Note_on_c, 3, 69, 127
2, 122760, Note_on_c, 3, 57, 127
2, 122774, Note_on_c, 3, 57, 0
2, 122775, Note_on_c, 3, 55, 127
2, 122789, Note_on_c, 3, 55, 0
2, 122790, Note_on_c, 3, 60, 127
2, 122790, Note_on_c, 3, 57, 127
2, 122804, Note_on_c, 3, 57, 0
2, 122805, Note_on_c, 3, 55, 127
2, 122813, Note_on_c, 3, 60, 0
2, 122820, Note_on_c, 3, 62, 127
2, 122843, Note_on_c, 3, 62, 0
2, 122846, Note_on_c, 3, 55, 0
2, 122850, Note_on_c, 3, 57, 127
2, 122850, Note_on_c, 3, 54, 127
2, 122855, Note_on_c, 3, 69, 0
2, 122873, Note_on_c, 3, 57, 0
2, 122873, Note_on_c, 3, 54, 0
2, 122880, Note_on_c, 3, 59, 127
2, 122880, Note_on_c, 3, 55, 127
2, 122910, Note_on_c, 3, 62, 127
2, 122927, Note_on_c, 3, 59, 0
2, 122933, Note_on_c, 3, 62, 0
2, 122940, Note_on_c, 3, 67, 127
2, 122950, Note_on_c, 3, 55, 0
2, 122970, Note_on_c, 3, 57, 127
2, 122970, Note_on_c, 3, 54, 127
2, 122987, Note_on_c, 3, 67, 0
2, 122993, Note_on_c, 3, 57, 0
2, 122993, Note_on_c, 3, 54, 0
2, 123000, Note_on_c, 3, 59, 127
2, 123000, Note_on_c, 3, 55, 127
2, 123023, Note_on_c, 3, 55, 0
2, 123030, Note_on_c, 3, 66, 127
2, 123030, Note_on_c, 3, 50, 127
2, 123047, Note_on_c, 3, 59, 0
2, 123053, Note_on_c, 3, 66, 0
2, 123053, Note_on_c, 3, 50, 0
2, 123060, Note_on_c, 3, 67, 127
2, 123060, Note_on_c, 3, 52, 127
2, 123083, Note_on_c, 3, 52, 0
2, 123090, Note_on_c, 3, 62, 127
2, 123090, Note_on_c, 3, 47, 127
2, 123107, Note_on_c, 3, 67, 0
2, 123113, Note_on_c, 3, 62, 0
2, 123113, Note_on_c, 3, 47, 0
2, 123120, Note_on_c, 3, 67, 127
2, 123120, Note_on_c, 3, 64, 127
2, 123120, Note_on_c, 3, 48, 127
2, 123143, Note_on_c, 3, 64, 0
2, 123143, Note_on_c, 3, 48, 0
2, 123150, Note_on_c, 3, 60, 127
2, 123150, Note_on_c, 3, 45, 127
2, 123173, Note_on_c, 3, 60, 0
2, 123173, Note_on_c, 3, 45, 0
2, 123180, Note_on_c, 3, 57, 127
2, 123180, Note_on_c, 3, 50, 127
2, 123190, Note_on_c, 3, 67, 0
2, 123203, Note_on_c, 3, 57, 0
2, 123210, Note_on_c, 3, 66, 127
2, 123210, Note_on_c, 3, 62, 127
2, 123227, Note_on_c, 3, 50, 0
2, 123233, Note_on_c, 3, 66, 0
2, 123233, Note_on_c, 3, 62, 0
2, 123240, Note_on_c, 3, 67, 127
2, 123240, Note_on_c, 3, 59, 127
2, 123240, Note_on_c, 3, 43, 127
2, 123287, Note_on_c, 3, 67, 0
2, 123287, Note_on_c, 3, 59, 0
2, 123287, Note_on_c, 3, 43, 0
2, 123300, Note_on_c, 3, 71, 127
2, 123300, Note_on_c, 3, 62, 127
2, 123323, Note_on_c, 3, 71, 0
2, 123323, Note_on_c, 3, 62, 0
2, 123330, Note_on_c, 3, 69, 127
2, 123330, Note_on_c, 3, 60, 127
2, 123353, Note_on_c, 3, 69, 0
2, 123353, Note_on_c, 3, 60, 0
2, 123360, Note_on_c, 3, 71, 127
2, 123360, Note_on_c, 3, 62, 127
2, 123407, Note_on_c, 3, 71, 0
2, 123407, Note_on_c, 3, 62, 0
2, 123420, Note_on_c, 3, 67, 127
2, 123420, Note_on_c, 3, 59, 127
2, 123467, Note_on_c, 3, 67, 0
2, 123467, Note_on_c, 3, 59, 0
2, 123480, Note_on_c, 3, 71, 127
2, 123480, Note_on_c, 3, 62, 127
2, 123527, Note_on_c, 3, 71, 0
2, 123527, Note_on_c, 3, 62, 0
2, 123540, Note_on_c, 3, 67, 127
2, 123540, Note_on_c, 3, 62, 127
2, 123540, Note_on_c, 3, 59, 127
2, 123587, Note_on_c, 3, 67, 0
2, 123587, Note_on_c, 3, 62, 0
2, 123587, Note_on_c, 3, 59, 0
2, 123600, Note_on_c, 3, 72, 127
2, 123600, Note_on_c, 3, 67, 127
2, 123600, Note_on_c, 3, 64, 127
2, 123630, Note_on_c, 3, 52, 127
2, 123647, Note_on_c, 3, 72, 0
2, 123647, Note_on_c, 3, 67, 0
2, 123647, Note_on_c, 3, 64, 0
2, 123653, Note_on_c, 3, 52, 0
2, 123660, Note_on_c, 3, 55, 127
2, 123683, Note_on_c, 3, 55, 0
2, 123690, Note_on_c, 3, 50, 127
2, 123713, Note_on_c, 3, 50, 0
2, 123720, Note_on_c, 3, 52, 127
2, 123743, Note_on_c, 3, 52, 0
2, 123750, Note_on_c, 3, 47, 127
2, 123773, Note_on_c, 3, 47, 0
2, 123780, Note_on_c, 3, 48, 127
2, 123810, Note_on_c, 3, 64, 127
2, 123827, Note_on_c, 3, 48, 0
2, 123833, Note_on_c, 3, 64, 0
2, 123840, Note_on_c, 3, 67, 127
2, 123840, Note_on_c, 3, 52, 127
2, 123863, Note_on_c, 3, 67, 0
2, 123870, Note_on_c, 3, 62, 127
2, 123887, Note_on_c, 3, 52, 0
2, 123893, Note_on_c, 3, 62, 0
2, 123900, Note_on_c, 3, 72, 127
2, 123900, Note_on_c, 3, 67, 127
2, 123900, Note_on_c, 3, 64, 127
2, 123900, Note_on_c, 3, 48, 127
2, 123923, Note_on_c, 3, 64, 0
2, 123930, Note_on_c, 3, 60, 127
2, 123947, Note_on_c, 3, 72, 0
2, 123947, Note_on_c, 3, 67, 0
2, 123947, Note_on_c, 3, 48, 0
2, 123953, Note_on_c, 3, 60, 0
2, 123960, Note_on_c, 3, 71, 127
2, 123960, Note_on_c, 3, 67, 127
2, 123960, Note_on_c, 3, 62, 127
2, 123960, Note_on_c, 3, 55, 127
2, 124007, Note_on_c, 3, 71, 0
2, 124007, Note_on_c, 3, 67, 0
2, 124007, Note_on_c, 3, 62, 0
2, 124007, Note_on_c, 3, 55, 0
2, 124020, Note_on_c, 3, 74, 127
2, 124020, Note_on_c, 3, 71, 127
2, 124043, Note_on_c, 3, 74, 0
2, 124043, Note_on_c, 3, 71, 0
2, 124050, Note_on_c, 3, 72, 127
2, 124050, Note_on_c, 3, 69, 127
2, 124073, Note_on_c, 3, 72, 0
2, 124073, Note_on_c, 3, 69, 0
2, 124080, Note_on_c, 3, 74, 127
2, 124080, Note_on_c, 3, 71, 127
2, 124127, Note_on_c, 3, 74, 0
2, 124127, Note_on_c, 3, 71, 0
2, 124140, Note_on_c, 3, 71, 127
2, 124140, Note_on_c, 3, 67, 127
2, 124187, Note_on_c, 3, 71, 0
2, 124187, Note_on_c, 3, 67, 0
2, 124200, Note_on_c, 3, 74, 127
2, 124200, Note_on_c, 3, 67, 127
2, 124200, Note_on_c, 3, 59, 127
2, 124247, Note_on_c, 3, 74, 0
2, 124247, Note_on_c, 3, 67, 0
2, 124247, Note_on_c, 3, 59, 0
2, 124260, Note_on_c, 3, 71, 127
2, 124260, Note_on_c, 3, 71, 127
2, 124260, Note_on_c, 3, 55, 127
2, 124307, Note_on_c, 3, 71, 0
2, 124307, Note_on_c, 3, 71, 0
2, 124307, Note_on_c, 3, 55, 0
2, 124320, Note_on_c, 3, 76, 127
2, 124320, Note_on_c, 3, 67, 127
2, 124320, Note_on_c, 3, 52, 127
2, 124350, Note_on_c, 3, 55, 127
2, 124367, Note_on_c, 3, 76, 0
2, 124367, Note_on_c, 3, 67, 0
2, 124367, Note_on_c, 3, 52, 0
2, 124373, Note_on_c, 3, 55, 0
2, 124380, Note_on_c, 3, 57, 127
2, 124403, Note_on_c, 3, 57, 0
2, 124410, Note_on_c, 3, 54, 127
2, 124433, Note_on_c, 3, 54, 0
2, 124440, Note_on_c, 3, 55, 127
2, 124463, Note_on_c, 3, 55, 0
2, 124470, Note_on_c, 3, 51, 127
2, 124493, Note_on_c, 3, 51, 0
2, 124500, Note_on_c, 3, 52, 127
2, 124530, Note_on_c, 3, 67, 127
2, 124547, Note_on_c, 3, 52, 0
2, 124553, Note_on_c, 3, 67, 0
2, 124560, Note_on_c, 3, 71, 127
2, 124560, Note_on_c, 3, 55, 127
2, 124583, Note_on_c, 3, 71, 0
2, 124590, Note_on_c, 3, 66, 127
2, 124607, Note_on_c, 3, 55, 0
2, 124613, Note_on_c, 3, 66, 0
2, 124620, Note_on_c, 3, 76, 127
2, 124620, Note_on_c, 3, 71, 127
2, 124620, Note_on_c, 3, 67, 127
2, 124620, Note_on_c, 3, 52, 127
2, 124643, Note_on_c, 3, 67, 0
2, 124650, Note_on_c, 3, 64, 127
2, 124667, Note_on_c, 3, 76, 0
2, 124667, Note_on_c, 3, 71, 0
2, 124667, Note_on_c, 3, 52, 0
2, 124680, Note_on_c, 3, 72, 127
2, 124680, Note_on_c, 3, 69, 127
2, 124680, Note_on_c, 3, 57, 127
2, 124724, Note_on_c, 3, 64, 0
2, 124727, Note_on_c, 3, 72, 0
2, 124727, Note_on_c, 3, 69, 0
2, 124727, Note_on_c, 3, 57, 0
2, 124740, Note_on_c, 3, 76, 127
2, 124740, Note_on_c, 3, 60, 127
2, 124763, Note_on_c, 3, 76, 0
2, 124763, Note_on_c, 3, 60, 0
2, 124770, Note_on_c, 3, 74, 127
2, 124770, Note_on_c, 3, 59, 127
2, 124793, Note_on_c, 3, 74, 0
2, 124793, Note_on_c, 3, 59, 0
2, 124800, Note_on_c, 3, 76, 127
2, 124800, Note_on_c, 3, 60, 127
2, 124847, Note_on_c, 3, 76, 0
2, 124847, Note_on_c, 3, 60, 0
2, 124860, Note_on_c, 3, 72, 127
2, 124860, Note_on_c, 3, 57, 127
2, 124907, Note_on_c, 3, 72, 0
2, 124907, Note_on_c, 3, 57, 0
2, 124920, Note_on_c, 3, 76, 127
2, 124920, Note_on_c, 3, 60, 127
2, 124967, Note_on_c, 3, 76, 0
2, 124967, Note_on_c, 3, 60, 0
2, 124980, Note_on_c, 3, 72, 127
2, 124980, Note_on_c, 3, 64, 127
2, 124980, Note_on_c, 3, 57, 127
2, 125027, Note_on_c, 3, 72, 0
2, 125027, Note_on_c, 3, 64, 0
2, 125027, Note_on_c, 3, 57, 0
2, 125040, Note_on_c, 3, 79, 127
2, 125040, Note_on_c, 3, 62, 127
2, 125040, Note_on_c, 3, 59, 127
2, 125070, Note_on_c, 3, 59, 127
2, 125087, Note_on_c, 3, 79, 0
2, 125087, Note_on_c, 3, 62, 0
2, 125087, Note_on_c, 3, 59, 0
2, 125093, Note_on_c, 3, 59, 0
2, 125100, Note_on_c, 3, 62, 127
2, 125123, Note_on_c, 3, 62, 0
2, 125130, Note_on_c, 3, 57, 127
2, 125153, Note_on_c, 3, 57, 0
2, 125160, Note_on_c, 3, 59, 127
2, 125183, Note_on_c, 3, 59, 0
2, 125190, Note_on_c, 3, 54, 127
2, 125213, Note_on_c, 3, 54, 0
2, 125220, Note_on_c, 3, 55, 127
2, 125250, Note_on_c, 3, 71, 127
2, 125267, Note_on_c, 3, 55, 0
2, 125273, Note_on_c, 3, 71, 0
2, 125280, Note_on_c, 3, 74, 127
2, 125280, Note_on_c, 3, 59, 127
2, 125303, Note_on_c, 3, 74, 0
2, 125310, Note_on_c, 3, 69, 127
2, 125327, Note_on_c, 3, 59, 0
2, 125333, Note_on_c, 3, 69, 0
2, 125340, Note_on_c, 3, 79, 127
2, 125340, Note_on_c, 3, 74, 127
2, 125340, Note_on_c, 3, 71, 127
2, 125340, Note_on_c, 3, 55, 127
2, 125363, Note_on_c, 3, 71, 0
2, 125370, Note_on_c, 3, 67, 127
2, 125387, Note_on_c, 3, 79, 0
2, 125387, Note_on_c, 3, 74, 0
2, 125387, Note_on_c, 3, 55, 0
2, 125400, Note_on_c, 3, 76, 127
2, 125400, Note_on_c, 3, 72, 127
2, 125400, Note_on_c, 3, 60, 127
2, 125423, Note_on_c, 3, 76, 0
2, 125430, Note_on_c, 3, 79, 127
2, 125444, Note_on_c, 3, 67, 0
2, 125447, Note_on_c, 3, 72, 0
2, 125447, Note_on_c, 3, 60, 0
2, 125453, Note_on_c, 3, 79, 0
2, 125460, Note_on_c, 3, 72, 127
2, 125460, Note_on_c, 3, 67, 127
2, 125460, Note_on_c, 3, 64, 127
2, 125483, Note_on_c, 3, 72, 0
2, 125490, Note_on_c, 3, 79, 127
2, 125507, Note_on_c, 3, 67, 0
2, 125507, Note_on_c, 3, 64, 0
2, 125513, Note_on_c, 3, 79, 0
2, 125520, Note_on_c, 3, 74, 127
2, 125520, Note_on_c, 3, 71, 127
2, 125520, Note_on_c, 3, 65, 127
2, 125520, Note_on_c, 3, 60, 127
2, 125543, Note_on_c, 3, 74, 0
2, 125550, Note_on_c, 3, 79, 127
2, 125567, Note_on_c, 3, 71, 0
2, 125567, Note_on_c, 3, 65, 0
2, 125567, Note_on_c, 3, 60, 0
2, 125573, Note_on_c, 3, 79, 0
2, 125580, Note_on_c, 3, 76, 127
2, 125580, Note_on_c, 3, 72, 127
2, 125580, Note_on_c, 3, 67, 127
2, 125580, Note_on_c, 3, 60, 127
2, 125603, Note_on_c, 3, 76, 0
2, 125610, Note_on_c, 3, 79, 127
2, 125627, Note_on_c, 3, 72, 0
2, 125627, Note_on_c, 3, 67, 0
2, 125627, Note_on_c, 3, 60, 0
2, 125633, Note_on_c, 3, 79, 0
2, 125640, Note_on_c, 3, 74, 127
2, 125640, Note_on_c, 3, 71, 127
2, 125640, Note_on_c, 3, 65, 127
2, 125640, Note_on_c, 3, 48, 127
2, 125663, Note_on_c, 3, 74, 0
2, 125670, Note_on_c, 3, 79, 127
2, 125687, Note_on_c, 3, 71, 0
2, 125687, Note_on_c, 3, 65, 0
2, 125687, Note_on_c, 3, 48, 0
2, 125693, Note_on_c, 3, 79, 0
2, 125700, Note_on_c, 3, 76, 127
2, 125700, Note_on_c, 3, 72, 127
2, 125700, Note_on_c, 3, 67, 127
2, 125700, Note_on_c, 3, 60, 127
2, 125723, Note_on_c, 3, 76, 0
2, 125730, Note_on_c, 3, 79, 127
2, 125747, Note_on_c, 3, 72, 0
2, 125747, Note_on_c, 3, 67, 0
2, 125747, Note_on_c, 3, 60, 0
2, 125753, Note_on_c, 3, 79, 0
2, 125760, Note_on_c, 3, 77, 127
2, 125760, Note_on_c, 3, 72, 127
2, 125760, Note_on_c, 3, 69, 127
2, 125760, Note_on_c, 3, 60, 127
2, 125783, Note_on_c, 3, 77, 0
2, 125790, Note_on_c, 3, 79, 127
2, 125807, Note_on_c, 3, 72, 0
2, 125807, Note_on_c, 3, 69, 0
2, 125807, Note_on_c, 3, 60, 0
2, 125813, Note_on_c, 3, 79, 0
2, 125820, Note_on_c, 3, 76, 127
2, 125820, Note_on_c, 3, 72, 127
2, 125820, Note_on_c, 3, 67, 127
2, 125820, Note_on_c, 3, 48, 127
2, 125843, Note_on_c, 3, 76, 0
2, 125850, Note_on_c, 3, 79, 127
2, 125867, Note_on_c, 3, 72, 0
2, 125867, Note_on_c, 3, 67, 0
2, 125867, Note_on_c, 3, 48, 0
2, 125873, Note_on_c, 3, 79, 0
2, 125880, Note_on_c, 3, 74, 127
2, 125880, Note_on_c, 3, 71, 127
2, 125880, Note_on_c, 3, 65, 127
2, 125880, Note_on_c, 3, 60, 127
2, 125903, Note_on_c, 3, 74, 0
2, 125910, Note_on_c, 3, 79, 127
2, 125927, Note_on_c, 3, 71, 0
2, 125927, Note_on_c, 3, 65, 0
2, 125927, Note_on_c, 3, 60, 0
2, 125933, Note_on_c, 3, 79, 0
2, 125940, Note_on_c, 3, 76, 127
2, 125940, Note_on_c, 3, 72, 127
2, 125940, Note_on_c, 3, 67, 127
2, 125940, Note_on_c, 3, 60, 127
2, 125963, Note_on_c, 3, 76, 0
2, 125970, Note_on_c, 3, 79, 127
2, 125987, Note_on_c, 3, 72, 0
2, 125987, Note_on_c, 3, 67, 0
2, 125987, Note_on_c, 3, 60, 0
2, 125993, Note_on_c, 3, 79, 0
2, 126000, Note_on_c, 3, 72, 127
2, 126000, Note_on_c, 3, 67, 127
2, 126000, Note_on_c, 3, 64, 127
2, 126000, Note_on_c, 3, 48, 127
2, 126023, Note_on_c, 3, 72, 0
2, 126030, Note_on_c, 3, 79, 127
2, 126047, Note_on_c, 3, 67, 0
2, 126047, Note_on_c, 3, 64, 0
2, 126047, Note_on_c, 3, 48, 0
2, 126053, Note_on_c, 3, 79, 0
2, 126060, Note_on_c, 3, 70, 127
2, 126060, Note_on_c, 3, 67, 127
2, 126060, Note_on_c, 3, 60, 127
2, 126060, Note_on_c, 3, 52, 127
2, 126083, Note_on_c, 3, 70, 0
2, 126090, Note_on_c, 3, 79, 127
2, 126107, Note_on_c, 3, 67, 0
2, 126107, Note_on_c, 3, 60, 0
2, 126107, Note_on_c, 3, 52, 0
2, 126113, Note_on_c, 3, 79, 0
2, 126120, Note_on_c, 3, 69, 127
2, 126120, Note_on_c, 3, 65, 127
2, 126120, Note_on_c, 3, 60, 127
2, 126120, Note_on_c, 3, 53, 127
2, 126143, Note_on_c, 3, 65, 0
2, 126150, Note_on_c, 3, 67, 127
2, 126167, Note_on_c, 3, 69, 0
2, 126167, Note_on_c, 3, 60, 0
2, 126167, Note_on_c, 3, 53, 0
2, 126173, Note_on_c, 3, 67, 0
2, 126180, Note_on_c, 3, 77, 127
2, 126180, Note_on_c, 3, 65, 127
2, 126180, Note_on_c, 3, 62, 127
2, 126180, Note_on_c, 3, 50, 127
2, 126203, Note_on_c, 3, 65, 0
2, 126210, Note_on_c, 3, 64, 127
2, 126227, Note_on_c, 3, 77, 0
2, 126227, Note_on_c, 3, 62, 0
2, 126227, Note_on_c, 3, 50, 0
2, 126233, Note_on_c, 3, 64, 0
2, 126240, Note_on_c, 3, 71, 127
2, 126240, Note_on_c, 3, 62, 127
2, 126240, Note_on_c, 3, 62, 127
2, 126240, Note_on_c, 3, 55, 127
2, 126263, Note_on_c, 3, 62, 0
2, 126270, Note_on_c, 3, 65, 127
2, 126287, Note_on_c, 3, 71, 0
2, 126287, Note_on_c, 3, 62, 0
2, 126287, Note_on_c, 3, 55, 0
2, 126293, Note_on_c, 3, 65, 0
2, 126300, Note_on_c, 3, 72, 127
2, 126300, Note_on_c, 3, 64, 127
2, 126300, Note_on_c, 3, 60, 127
2, 126300, Note_on_c, 3, 48, 127
2, 126323, Note_on_c, 3, 64, 0
2, 126330, Note_on_c, 3, 65, 127
2, 126347, Note_on_c, 3, 72, 0
2, 126347, Note_on_c, 3, 60, 0
2, 126347, Note_on_c, 3, 48, 0
2, 126353, Note_on_c, 3, 65, 0
2, 126360, Note_on_c, 3, 74, 127
2, 126360, Note_on_c, 3, 67, 127
2, 126360, Note_on_c, 3, 62, 127
2, 126360, Note_on_c, 3, 55, 127
2, 126374, Note_on_c, 3, 74, 0
2, 126375, Note_on_c, 3, 72, 127
2, 126383, Note_on_c, 3, 62, 0
2, 126389, Note_on_c, 3, 72, 0
2, 126390, Note_on_c, 3, 74, 127
2, 126390, Note_on_c, 3, 65, 127
2, 126404, Note_on_c, 3, 74, 0
2, 126405, Note_on_c, 3, 72, 127
2, 126407, Note_on_c, 3, 55, 0
2, 126413, Note_on_c, 3, 65, 0
2, 126420, Note_on_c, 3, 64, 127
2, 126420, Note_on_c, 3, 43, 127
2, 126443, Note_on_c, 3, 64, 0
2, 126446, Note_on_c, 3, 72, 0
2, 126450, Note_on_c, 3, 71, 127
2, 126450, Note_on_c, 3, 62, 127
2, 126455, Note_on_c, 3, 67, 0
2, 126467, Note_on_c, 3, 43, 0
2, 126473, Note_on_c, 3, 71, 0
2, 126473, Note_on_c, 3, 62, 0
2, 126480, Note_on_c, 3, 72, 127
2, 126480, Note_on_c, 3, 67, 127
2, 126480, Note_on_c, 3, 64, 127
2, 126480, Note_on_c, 3, 48, 127
2, 126503, Note_on_c, 3, 64, 0
2, 126510, Note_on_c, 3, 65, 127
2, 126527, Note_on_c, 3, 72, 0
2, 126527, Note_on_c, 3, 67, 0
2, 126527, Note_on_c, 3, 48, 0
2, 126533, Note_on_c, 3, 65, 0
2, 126540, Note_on_c, 3, 76, 127
2, 126540, Note_on_c, 3, 67, 127
2, 126563, Note_on_c, 3, 67, 0
2, 126570, Note_on_c, 3, 65, 127
2, 126587, Note_on_c, 3, 76, 0
2, 126593, Note_on_c, 3, 65, 0
2, 126600, Note_on_c, 3, 71, 127
2, 126600, Note_on_c, 3, 64, 127
2, 126600, Note_on_c, 3, 55, 127
2, 126623, Note_on_c, 3, 64, 0
2, 126630, Note_on_c, 3, 62, 127
2, 126647, Note_on_c, 3, 71, 0
2, 126647, Note_on_c, 3, 55, 0
2, 126653, Note_on_c, 3, 62, 0
2, 126660, Note_on_c, 3, 72, 127
2, 126660, Note_on_c, 3, 64, 127
2, 126660, Note_on_c, 3, 48, 127
2, 126683, Note_on_c, 3, 64, 0
2, 126690, Note_on_c, 3, 67, 127
2, 126707, Note_on_c, 3, 72, 0
2, 126707, Note_on_c, 3, 48, 0
2, 126713, Note_on_c, 3, 67, 0
2, 126720, Note_on_c, 3, 76, 127
2, 126720, Note_on_c, 3, 72, 127
2, 126743, Note_on_c, 3, 72, 0
2, 126750, Note_on_c, 3, 71, 127
2, 126767, Note_on_c, 3, 76, 0
2, 126773, Note_on_c, 3, 71, 0
2, 126780, Note_on_c, 3, 73, 127
2, 126780, Note_on_c, 3, 69, 127
2, 126780, Note_on_c, 3, 57, 127
2, 126803, Note_on_c, 3, 69, 0
2, 126810, Note_on_c, 3, 67, 127
2, 126827, Note_on_c, 3, 73, 0
2, 126827, Note_on_c, 3, 57, 0
2, 126833, Note_on_c, 3, 67, 0
2, 126840, Note_on_c, 3, 74, 127
2, 126840, Note_on_c, 3, 65, 127
2, 126840, Note_on_c, 3, 50, 127
2, 126863, Note_on_c, 3, 65, 0
2, 126870, Note_on_c, 3, 67, 127
2, 126887, Note_on_c, 3, 74, 0
2, 126887, Note_on_c, 3, 50, 0
2, 126893, Note_on_c, 3, 67, 0
2, 126900, Note_on_c, 3, 77, 127
2, 126900, Note_on_c, 3, 69, 127
2, 126923, Note_on_c, 3, 69, 0
2, 126930, Note_on_c, 3, 67, 127
2, 126947, Note_on_c, 3, 77, 0
2, 126953, Note_on_c, 3, 67, 0
2, 126960, Note_on_c, 3, 73, 127
2, 126960, Note_on_c, 3, 65, 127
2, 126960, Note_on_c, 3, 57, 127
2, 126983, Note_on_c, 3, 65, 0
2, 126990, Note_on_c, 3, 64, 127
2, 127007, Note_on_c, 3, 73, 0
2, 127007, Note_on_c, 3, 57, 0
2, 127013, Note_on_c, 3, 64, 0
2, 127020, Note_on_c, 3, 74, 127
2, 127020, Note_on_c, 3, 65, 127
2, 127020, Note_on_c, 3, 50, 127
2, 127043, Note_on_c, 3, 65, 0
2, 127050, Note_on_c, 3, 69, 127
2, 127067, Note_on_c, 3, 74, 0
2, 127067, Note_on_c, 3, 50, 0
2, 127073, Note_on_c, 3, 69, 0
2, 127080, Note_on_c, 3, 77, 127
2, 127080, Note_on_c, 3, 74, 127
2, 127103, Note_on_c, 3, 74, 0
2, 127110, Note_on_c, 3, 72, 127
2, 127127, Note_on_c, 3, 77, 0
2, 127133, Note_on_c, 3, 72, 0
2, 127140, Note_on_c, 3, 75, 127
2, 127140, Note_on_c, 3, 71, 127
2, 127140, Note_on_c, 3, 59, 127
2, 127163, Note_on_c, 3, 71, 0
2, 127170, Note_on_c, 3, 69, 127
2, 127187, Note_on_c, 3, 75, 0
2, 127187, Note_on_c, 3, 59, 0
2, 127193, Note_on_c, 3, 69, 0
2, 127200, Note_on_c, 3, 76, 127
2, 127200, Note_on_c, 3, 67, 127
2, 127200, Note_on_c, 3, 52, 127
2, 127223, Note_on_c, 3, 67, 0
2, 127230, Note_on_c, 3, 69, 127
2, 127247, Note_on_c, 3, 76, 0
2, 127247, Note_on_c, 3, 52, 0
2, 127253, Note_on_c, 3, 69, 0
2, 127260, Note_on_c, 3, 79, 127
2, 127260, Note_on_c, 3, 71, 127
2, 127283, Note_on_c, 3, 71, 0
2, 127290, Note_on_c, 3, 69, 127
2, 127307, Note_on_c, 3, 79, 0
2, 127313, Note_on_c, 3, 69, 0
2, 127320, Note_on_c, 3, 75, 127
2, 127320, Note_on_c, 3, 67, 127
2, 127320, Note_on_c, 3, 59, 127
2, 127343, Note_on_c, 3, 67, 0
2, 127350, Note_on_c, 3, 66, 127
2, 127367, Note_on_c, 3, 75, 0
2, 127367, Note_on_c, 3, 59, 0
2, 127373, Note_on_c, 3, 66, 0
2, 127380, Note_on_c, 3, 76, 127
2, 127380, Note_on_c, 3, 67, 127
2, 127380, Note_on_c, 3, 52, 127
2, 127403, Note_on_c, 3, 67, 0
2, 127410, Note_on_c, 3, 71, 127
2, 127427, Note_on_c, 3, 76, 0
2, 127427, Note_on_c, 3, 52, 0
2, 127433, Note_on_c, 3, 71, 0
2, 127440, Note_on_c, 3, 79, 127
2, 127440, Note_on_c, 3, 76, 127
2, 127463, Note_on_c, 3, 76, 0
2, 127470, Note_on_c, 3, 74, 127
2, 127487, Note_on_c, 3, 79, 0
2, 127493, Note_on_c, 3, 74, 0
2, 127500, Note_on_c, 3, 76, 127
2, 127500, Note_on_c, 3, 72, 127
2, 127500, Note_on_c, 3, 55, 127
2, 127523, Note_on_c, 3, 72, 0
2, 127530, Note_on_c, 3, 71, 127
2, 127547, Note_on_c, 3, 76, 0
2, 127547, Note_on_c, 3, 55, 0
2, 127553, Note_on_c, 3, 71, 0
2, 127560, Note_on_c, 3, 78, 127
2, 127560, Note_on_c, 3, 69, 127
2, 127560, Note_on_c, 3, 57, 127
2, 127583, Note_on_c, 3, 78, 0
2, 127583, Note_on_c, 3, 69, 0
2, 127590, Note_on_c, 3, 79, 127
2, 127590, Note_on_c, 3, 71, 127
2, 127607, Note_on_c, 3, 57, 0
2, 127613, Note_on_c, 3, 79, 0
2, 127613, Note_on_c, 3, 71, 0
2, 127620, Note_on_c, 3, 81, 127
2, 127620, Note_on_c, 3, 72, 127
2, 127643, Note_on_c, 3, 81, 0
2, 127643, Note_on_c, 3, 72, 0
2, 127650, Note_on_c, 3, 79, 127
2, 127650, Note_on_c, 3, 71, 127
2, 127673, Note_on_c, 3, 79, 0
2, 127673, Note_on_c, 3, 71, 0
2, 127680, Note_on_c, 3, 78, 127
2, 127680, Note_on_c, 3, 69, 127
2, 127680, Note_on_c, 3, 57, 127
2, 127703, Note_on_c, 3, 78, 0
2, 127703, Note_on_c, 3, 69, 0
2, 127710, Note_on_c, 3, 76, 127
2, 127710, Note_on_c, 3, 67, 127
2, 127727, Note_on_c, 3, 57, 0
2, 127733, Note_on_c, 3, 76, 0
2, 127733, Note_on_c, 3, 67, 0
2, 127740, Note_on_c, 3, 75, 127
2, 127740, Note_on_c, 3, 66, 127
2, 127740, Note_on_c, 3, 59, 127
2, 127763, Note_on_c, 3, 59, 0
2, 127770, Note_on_c, 3, 60, 127
2, 127787, Note_on_c, 3, 75, 0
2, 127787, Note_on_c, 3, 66, 0
2, 127793, Note_on_c, 3, 60, 0
2, 127800, Note_on_c, 3, 57, 127
2, 127823, Note_on_c, 3, 57, 0
2, 127830, Note_on_c, 3, 59, 127
2, 127853, Note_on_c, 3, 59, 0
2, 127860, Note_on_c, 3, 76, 127
2, 127860, Note_on_c, 3, 71, 127
2, 127860, Note_on_c, 3, 55, 127
2, 127883, Note_on_c, 3, 55, 0
2, 127890, Note_on_c, 3, 59, 127
2, 127907, Note_on_c, 3, 76, 0
2, 127907, Note_on_c, 3, 71, 0
2, 127913, Note_on_c, 3, 59, 0
2, 127920, Note_on_c, 3, 77, 127
2, 127920, Note_on_c, 3, 72, 127
2, 127920, Note_on_c, 3, 57, 127
2, 127943, Note_on_c, 3, 57, 0
2, 127950, Note_on_c, 3, 59, 127
2, 127967, Note_on_c, 3, 77, 0
2, 127967, Note_on_c, 3, 72, 0
2, 127973, Note_on_c, 3, 59, 0
2, 127980, Note_on_c, 3, 76, 127
2, 127980, Note_on_c, 3, 71, 127
2, 127980, Note_on_c, 3, 55, 127
2, 128003, Note_on_c, 3, 55, 0
2, 128010, Note_on_c, 3, 57, 127
2, 128027, Note_on_c, 3, 76, 0
2, 128027, Note_on_c, 3, 71, 0
2, 128033, Note_on_c, 3, 57, 0
2, 128040, Note_on_c, 3, 75, 127
2, 128040, Note_on_c, 3, 69, 127
2, 128040, Note_on_c, 3, 54, 127
2, 128063, Note_on_c, 3, 54, 0
2, 128070, Note_on_c, 3, 57, 127
2, 128087, Note_on_c, 3, 75, 0
2, 128087, Note_on_c, 3, 69, 0
2, 128093, Note_on_c, 3, 57, 0
2, 128100, Note_on_c, 3, 76, 127
2, 128100, Note_on_c, 3, 71, 127
2, 128100, Note_on_c, 3, 55, 127
2, 128123, Note_on_c, 3, 55, 0
2, 128130, Note_on_c, 3, 57, 127
2, 128147, Note_on_c, 3, 76, 0
2, 128147, Note_on_c, 3, 71, 0
2, 128153, Note_on_c, 3, 57, 0
2, 128160, Note_on_c, 3, 75, 127
2, 128160, Note_on_c, 3, 69, 127
2, 128160, Note_on_c, 3, 54, 127
2, 128183, Note_on_c, 3, 69, 0
2, 128183, Note_on_c, 3, 54, 0
2, 128190, Note_on_c, 3, 72, 127
2, 128190, Note_on_c, 3, 57, 127
2, 128207, Note_on_c, 3, 75, 0
2, 128213, Note_on_c, 3, 72, 0
2, 128213, Note_on_c, 3, 57, 0
2, 128220, Note_on_c, 3, 76, 127
2, 128220, Note_on_c, 3, 71, 127
2, 128220, Note_on_c, 3, 55, 127
2, 128243, Note_on_c, 3, 76, 0
2, 128243, Note_on_c, 3, 55, 0
2, 128250, Note_on_c, 3, 79, 127
2, 128250, Note_on_c, 3, 59, 127
2, 128267, Note_on_c, 3, 71, 0
2, 128273, Note_on_c, 3, 79, 0
2, 128273, Note_on_c, 3, 59, 0
2, 128280, Note_on_c, 3, 78, 127
2, 128280, Note_on_c, 3, 72, 127
2, 128280, Note_on_c, 3, 57, 127
2, 128303, Note_on_c, 3, 78, 0
2, 128303, Note_on_c, 3, 57, 0
2, 128310, Note_on_c, 3, 81, 127
2, 128310, Note_on_c, 3, 60, 127
2, 128327, Note_on_c, 3, 72, 0
2, 128333, Note_on_c, 3, 81, 0
2, 128333, Note_on_c, 3, 60, 0
2, 128340, Note_on_c, 3, 75, 127
2, 128340, Note_on_c, 3, 66, 127
2, 128340, Note_on_c, 3, 59, 127
2, 128363, Note_on_c, 3, 59, 0
2, 128370, Note_on_c, 3, 60, 127
2, 128393, Note_on_c, 3, 60, 0
2, 128400, Note_on_c, 3, 57, 127
2, 128410, Note_on_c, 3, 75, 0
2, 128410, Note_on_c, 3, 66, 0
2, 128423, Note_on_c, 3, 57, 0
2, 128430, Note_on_c, 3, 75, 127
2, 128430, Note_on_c, 3, 66, 127
2, 128430, Note_on_c, 3, 59, 127
2, 128453, Note_on_c, 3, 75, 0
2, 128453, Note_on_c, 3, 66, 0
2, 128453, Note_on_c, 3, 59, 0
2, 128460, Note_on_c, 3, 76, 127
2, 128460, Note_on_c, 3, 71, 127
2, 128460, Note_on_c, 3, 55, 127
2, 128483, Note_on_c, 3, 76, 0
2, 128483, Note_on_c, 3, 71, 0
2, 128483, Note_on_c, 3, 55, 0
2, 128490, Note_on_c, 3, 78, 127
2, 128490, Note_on_c, 3, 72, 127
2, 128490, Note_on_c, 3, 57, 127
2, 128513, Note_on_c, 3, 78, 0
2, 128513, Note_on_c, 3, 72, 0
2, 128513, Note_on_c, 3, 57, 0
2, 128520, Note_on_c, 3, 75, 127
2, 128520, Note_on_c, 3, 66, 127
2, 128520, Note_on_c, 3, 59, 127
2, 128567, Note_on_c, 3, 59, 0
2, 128580, Note_on_c, 3, 47, 127
2, 128590, Note_on_c, 3, 75, 0
2, 128590, Note_on_c, 3, 66, 0
2, 128610, Note_on_c, 3, 76, 127
2, 128610, Note_on_c, 3, 64, 127
2, 128627, Note_on_c, 3, 47, 0
2, 128633, Note_on_c, 3, 76, 0
2, 128633, Note_on_c, 3, 64, 0
2, 128640, Note_on_c, 3, 76, 127
2, 128640, Note_on_c, 3, 64, 127
2, 128640, Note_on_c, 3, 64, 127
2, 128640, Note_on_c, 3, 52, 127
2, 128663, Note_on_c, 3, 76, 0
2, 128670, Note_on_c, 3, 78, 127
2, 128687, Note_on_c, 3, 64, 0
2, 128687, Note_on_c, 3, 64, 0
2, 128687, Note_on_c, 3, 52, 0
2, 128693, Note_on_c, 3, 78, 0
2, 128700, Note_on_c, 3, 76, 127
2, 128700, Note_on_c, 3, 67, 127
2, 128723, Note_on_c, 3, 76, 0
2, 128723, Note_on_c, 3, 67, 0
2, 128730, Note_on_c, 3, 75, 127
2, 128730, Note_on_c, 3, 66, 127
2, 128753, Note_on_c, 3, 75, 0
2, 128753, Note_on_c, 3, 66, 0
2, 128760, Note_on_c, 3, 76, 127
2, 128760, Note_on_c, 3, 67, 127
2, 128783, Note_on_c, 3, 76, 0
2, 128790, Note_on_c, 3, 78, 127
2, 128807, Note_on_c, 3, 67, 0
2, 128813, Note_on_c, 3, 78, 0
2, 128820, Note_on_c, 3, 79, 127
2, 128820, Note_on_c, 3, 64, 127
2, 128843, Note_on_c, 3, 79, 0
2, 128850, Note_on_c, 3, 78, 127
2, 128867, Note_on_c, 3, 64, 0
2, 128873, Note_on_c, 3, 78, 0
2, 128880, Note_on_c, 3, 76, 127
2, 128880, Note_on_c, 3, 67, 127
2, 128903, Note_on_c, 3, 76, 0
2, 128910, Note_on_c, 3, 75, 127
2, 128927, Note_on_c, 3, 67, 0
2, 128933, Note_on_c, 3, 75, 0
2, 128940, Note_on_c, 3, 76, 127
2, 128940, Note_on_c, 3, 64, 127
2, 128963, Note_on_c, 3, 76, 0
2, 128970, Note_on_c, 3, 78, 127
2, 128987, Note_on_c, 3, 64, 0
2, 128993, Note_on_c, 3, 78, 0
2, 129000, Note_on_c, 3, 75, 127
2, 129000, Note_on_c, 3, 71, 127
2, 129023, Note_on_c, 3, 75, 0
2, 129030, Note_on_c, 3, 76, 127
2, 129047, Note_on_c, 3, 71, 0
2, 129053, Note_on_c, 3, 76, 0
2, 129060, Note_on_c, 3, 78, 127
2, 129083, Note_on_c, 3, 78, 0
2, 129090, Note_on_c, 3, 76, 127
2, 129113, Note_on_c, 3, 76, 0
2, 129120, Note_on_c, 3, 75, 127
2, 129143, Note_on_c, 3, 75, 0
2, 129150, Note_on_c, 3, 73, 127
2, 129173, Note_on_c, 3, 73, 0
2, 129180, Note_on_c, 3, 75, 127
2, 129203, Note_on_c, 3, 75, 0
2, 129210, Note_on_c, 3, 76, 127
2, 129233, Note_on_c, 3, 76, 0
2, 129240, Note_on_c, 3, 78, 127
2, 129263, Note_on_c, 3, 78, 0
2, 129270, Note_on_c, 3, 76, 127
2, 129293, Note_on_c, 3, 76, 0
2, 129300, Note_on_c, 3, 78, 127
2, 129300, Note_on_c, 3, 71, 127
2, 129323, Note_on_c, 3, 78, 0
2, 129330, Note_on_c, 3, 75, 127
2, 129347, Note_on_c, 3, 71, 0
2, 129353, Note_on_c, 3, 75, 0
2, 129360, Note_on_c, 3, 76, 127
2, 129360, Note_on_c, 3, 67, 127
2, 129383, Note_on_c, 3, 76, 0
2, 129390, Note_on_c, 3, 78, 127
2, 129407, Note_on_c, 3, 67, 0
2, 129413, Note_on_c, 3, 78, 0
2, 129420, Note_on_c, 3, 79, 127
2, 129420, Note_on_c, 3, 71, 127
2, 129443, Note_on_c, 3, 79, 0
2, 129443, Note_on_c, 3, 71, 0
2, 129450, Note_on_c, 3, 78, 127
2, 129450, Note_on_c, 3, 69, 127
2, 129473, Note_on_c, 3, 78, 0
2, 129473, Note_on_c, 3, 69, 0
2, 129480, Note_on_c, 3, 76, 127
2, 129480, Note_on_c, 3, 71, 127
2, 129503, Note_on_c, 3, 76, 0
2, 129510, Note_on_c, 3, 75, 127
2, 129527, Note_on_c, 3, 71, 0
2, 129533, Note_on_c, 3, 75, 0
2, 129540, Note_on_c, 3, 76, 127
2, 129540, Note_on_c, 3, 67, 127
2, 129563, Note_on_c, 3, 76, 0
2, 129570, Note_on_c, 3, 78, 127
2, 129587, Note_on_c, 3, 67, 0
2, 129593, Note_on_c, 3, 78, 0
2, 129600, Note_on_c, 3, 79, 127
2, 129600, Note_on_c, 3, 71, 127
2, 129623, Note_on_c, 3, 79, 0
2, 129630, Note_on_c, 3, 78, 127
2, 129647, Note_on_c, 3, 71, 0
2, 129653, Note_on_c, 3, 78, 0
2, 129660, Note_on_c, 3, 76, 127
2, 129660, Note_on_c, 3, 67, 127
2, 129683, Note_on_c, 3, 76, 0
2, 129690, Note_on_c, 3, 75, 127
2, 129707, Note_on_c, 3, 67, 0
2, 129713, Note_on_c, 3, 75, 0
2, 129720, Note_on_c, 3, 76, 127
2, 129720, Note_on_c, 3, 72, 127
2, 129743, Note_on_c, 3, 76, 0
2, 129750, Note_on_c, 3, 78, 127
2, 129767, Note_on_c, 3, 72, 0
2, 129773, Note_on_c, 3, 78, 0
2, 129780, Note_on_c, 3, 79, 127
2, 129803, Note_on_c, 3, 79, 0
2, 129810, Note_on_c, 3, 78, 127
2, 129833, Note_on_c, 3, 78, 0
2, 129840, Note_on_c, 3, 76, 127
2, 129863, Note_on_c, 3, 76, 0
2, 129870, Note_on_c, 3, 75, 127
2, 129893, Note_on_c, 3, 75, 0
2, 129900, Note_on_c, 3, 76, 127
2, 129923, Note_on_c, 3, 76, 0
2, 129930, Note_on_c, 3, 78, 127
2, 129953, Note_on_c, 3, 78, 0
2, 129960, Note_on_c, 3, 79, 127
2, 129983, Note_on_c, 3, 79, 0
2, 129990, Note_on_c, 3, 78, 127
2, 130013, Note_on_c, 3, 78, 0
2, 130020, Note_on_c, 3, 79, 127
2, 130020, Note_on_c, 3, 72, 127
2, 130043, Note_on_c, 3, 79, 0
2, 130050, Note_on_c, 3, 76, 127
2, 130067, Note_on_c, 3, 72, 0
2, 130073, Note_on_c, 3, 76, 0
2, 130080, Note_on_c, 3, 78, 127
2, 130080, Note_on_c, 3, 69, 127
2, 130103, Note_on_c, 3, 78, 0
2, 130110, Note_on_c, 3, 79, 127
2, 130127, Note_on_c, 3, 69, 0
2, 130133, Note_on_c, 3, 79, 0
2, 130140, Note_on_c, 3, 81, 127
2, 130140, Note_on_c, 3, 72, 127
2, 130163, Note_on_c, 3, 81, 0
2, 130163, Note_on_c, 3, 72, 0
2, 130170, Note_on_c, 3, 79, 127
2, 130170, Note_on_c, 3, 71, 127
2, 130193, Note_on_c, 3, 79, 0
2, 130193, Note_on_c, 3, 71, 0
2, 130200, Note_on_c, 3, 78, 127
2, 130200, Note_on_c, 3, 72, 127
2, 130223, Note_on_c, 3, 78, 0
2, 130230, Note_on_c, 3, 76, 127
2, 130247, Note_on_c, 3, 72, 0
2, 130253, Note_on_c, 3, 76, 0
2, 130260, Note_on_c, 3, 78, 127
2, 130260, Note_on_c, 3, 69, 127
2, 130283, Note_on_c, 3, 78, 0
2, 130290, Note_on_c, 3, 79, 127
2, 130307, Note_on_c, 3, 69, 0
2, 130313, Note_on_c, 3, 79, 0
2, 130320, Note_on_c, 3, 81, 127
2, 130320, Note_on_c, 3, 72, 127
2, 130343, Note_on_c, 3, 81, 0
2, 130350, Note_on_c, 3, 79, 127
2, 130367, Note_on_c, 3, 72, 0
2, 130373, Note_on_c, 3, 79, 0
2, 130380, Note_on_c, 3, 81, 127
2, 130380, Note_on_c, 3, 69, 127
2, 130403, Note_on_c, 3, 81, 0
2, 130410, Note_on_c, 3, 78, 127
2, 130427, Note_on_c, 3, 69, 0
2, 130433, Note_on_c, 3, 78, 0
2, 130440, Note_on_c, 3, 79, 127
2, 130440, Note_on_c, 3, 76, 127
2, 130463, Note_on_c, 3, 79, 0
2, 130470, Note_on_c, 3, 81, 127
2, 130487, Note_on_c, 3, 76, 0
2, 130493, Note_on_c, 3, 81, 0
2, 130500, Note_on_c, 3, 83, 127
2, 130523, Note_on_c, 3, 83, 0
2, 130530, Note_on_c, 3, 81, 127
2, 130553, Note_on_c, 3, 81, 0
2, 130560, Note_on_c, 3, 79, 127
2, 130583, Note_on_c, 3, 79, 0
2, 130590, Note_on_c, 3, 78, 127
2, 130613, Note_on_c, 3, 78, 0
2, 130620, Note_on_c, 3, 79, 127
2, 130643, Note_on_c, 3, 79, 0
2, 130650, Note_on_c, 3, 81, 127
2, 130673, Note_on_c, 3, 81, 0
2, 130680, Note_on_c, 3, 83, 127
2, 130703, Note_on_c, 3, 83, 0
2, 130710, Note_on_c, 3, 81, 127
2, 130733, Note_on_c, 3, 81, 0
2, 130740, Note_on_c, 3, 79, 127
2, 130740, Note_on_c, 3, 76, 127
2, 130763, Note_on_c, 3, 79, 0
2, 130770, Note_on_c, 3, 81, 127
2, 130787, Note_on_c, 3, 76, 0
2, 130793, Note_on_c, 3, 81, 0
2, 130800, Note_on_c, 3, 78, 127
2, 130800, Note_on_c, 3, 74, 127
2, 130823, Note_on_c, 3, 74, 0
2, 130830, Note_on_c, 3, 78, 127
2, 130847, Note_on_c, 3, 78, 0
2, 130853, Note_on_c, 3, 78, 0
2, 130860, Note_on_c, 3, 83, 127
2, 130860, Note_on_c, 3, 71, 127
2, 130883, Note_on_c, 3, 71, 0
2, 130890, Note_on_c, 3, 78, 127
2, 130907, Note_on_c, 3, 83, 0
2, 130913, Note_on_c, 3, 78, 0
2, 130920, Note_on_c, 3, 82, 127
2, 130920, Note_on_c, 3, 73, 127
2, 130943, Note_on_c, 3, 73, 0
2, 130950, Note_on_c, 3, 78, 127
2, 130967, Note_on_c, 3, 82, 0
2, 130973, Note_on_c, 3, 78, 0
2, 130980, Note_on_c, 3, 83, 127
2, 130980, Note_on_c, 3, 74, 127
2, 131003, Note_on_c, 3, 74, 0
2, 131010, Note_on_c, 3, 78, 127
2, 131027, Note_on_c, 3, 83, 0
2, 131033, Note_on_c, 3, 78, 0
2, 131040, Note_on_c, 3, 71, 127
2, 131040, Note_on_c, 3, 73, 127
2, 131063, Note_on_c, 3, 73, 0
2, 131070, Note_on_c, 3, 78, 127
2, 131087, Note_on_c, 3, 71, 0
2, 131093, Note_on_c, 3, 78, 0
2, 131100, Note_on_c, 3, 83, 127
2, 131100, Note_on_c, 3, 74, 127
2, 131123, Note_on_c, 3, 74, 0
2, 131130, Note_on_c, 3, 78, 127
2, 131147, Note_on_c, 3, 83, 0
2, 131153, Note_on_c, 3, 78, 0
2, 131160, Note_on_c, 3, 73, 127
2, 131160, Note_on_c, 3, 76, 127
2, 131183, Note_on_c, 3, 76, 0
2, 131190, Note_on_c, 3, 78, 127
2, 131207, Note_on_c, 3, 73, 0
2, 131213, Note_on_c, 3, 78, 0
2, 131220, Note_on_c, 3, 83, 127
2, 131220, Note_on_c, 3, 74, 127
2, 131243, Note_on_c, 3, 74, 0
2, 131250, Note_on_c, 3, 78, 127
2, 131267, Note_on_c, 3, 83, 0
2, 131273, Note_on_c, 3, 78, 0
2, 131280, Note_on_c, 3, 82, 127
2, 131280, Note_on_c, 3, 73, 127
2, 131303, Note_on_c, 3, 73, 0
2, 131310, Note_on_c, 3, 78, 127
2, 131327, Note_on_c, 3, 82, 0
2, 131333, Note_on_c, 3, 78, 0
2, 131340, Note_on_c, 3, 83, 127
2, 131340, Note_on_c, 3, 74, 127
2, 131363, Note_on_c, 3, 74, 0
2, 131370, Note_on_c, 3, 78, 127
2, 131387, Note_on_c, 3, 83, 0
2, 131393, Note_on_c, 3, 78, 0
2, 131400, Note_on_c, 3, 74, 127
2, 131400, Note_on_c, 3, 71, 127
2, 131423, Note_on_c, 3, 71, 0
2, 131430, Note_on_c, 3, 78, 127
2, 131447, Note_on_c, 3, 74, 0
2, 131453, Note_on_c, 3, 78, 0
2, 131460, Note_on_c, 3, 73, 127
2, 131460, Note_on_c, 3, 69, 127
2, 131483, Note_on_c, 3, 69, 0
2, 131490, Note_on_c, 3, 78, 127
2, 131507, Note_on_c, 3, 73, 0
2, 131513, Note_on_c, 3, 78, 0
2, 131520, Note_on_c, 3, 71, 127
2, 131520, Note_on_c, 3, 68, 127
2, 131543, Note_on_c, 3, 71, 0
2, 131550, Note_on_c, 3, 78, 127
2, 131567, Note_on_c, 3, 68, 0
2, 131573, Note_on_c, 3, 78, 0
2, 131580, Note_on_c, 3, 76, 127
2, 131580, Note_on_c, 3, 76, 127
2, 131603, Note_on_c, 3, 76, 0
2, 131610, Note_on_c, 3, 79, 127
2, 131627, Note_on_c, 3, 76, 0
2, 131633, Note_on_c, 3, 79, 0
2, 131640, Note_on_c, 3, 78, 127
2, 131640, Note_on_c, 3, 70, 127
2, 131663, Note_on_c, 3, 78, 0
2, 131670, Note_on_c, 3, 76, 127
2, 131687, Note_on_c, 3, 70, 0
2, 131693, Note_on_c, 3, 76, 0
2, 131700, Note_on_c, 3, 74, 127
2, 131700, Note_on_c, 3, 71, 127
2, 131723, Note_on_c, 3, 74, 0
2, 131730, Note_on_c, 3, 76, 127
2, 131747, Note_on_c, 3, 71, 0
2, 131753, Note_on_c, 3, 76, 0
2, 131760, Note_on_c, 3, 73, 127
2, 131760, Note_on_c, 3, 71, 127
2, 131783, Note_on_c, 3, 73, 0
2, 131787, Note_on_c, 3, 71, 0
2, 131790, Note_on_c, 3, 76, 127
2, 131790, Note_on_c, 3, 72, 127
2, 131804, Note_on_c, 3, 72, 0
2, 131805, Note_on_c, 3, 71, 127
2, 131813, Note_on_c, 3, 76, 0
2, 131819, Note_on_c, 3, 71, 0
2, 131820, Note_on_c, 3, 74, 127
2, 131820, Note_on_c, 3, 69, 127
2, 131843, Note_on_c, 3, 74, 0
2, 131850, Note_on_c, 3, 73, 127
2, 131867, Note_on_c, 3, 69, 0
2, 131873, Note_on_c, 3, 73, 0
2, 131880, Note_on_c, 3, 75, 127
2, 131880, Note_on_c, 3, 69, 127
2, 131880, Note_on_c, 3, 59, 127
2, 131903, Note_on_c, 3, 75, 0
2, 131910, Note_on_c, 3, 76, 127
2, 131927, Note_on_c, 3, 69, 0
2, 131927, Note_on_c, 3, 59, 0
2, 131933, Note_on_c, 3, 76, 0
2, 131940, Note_on_c, 3, 78, 127
2, 131940, Note_on_c, 3, 63, 127
2, 131963, Note_on_c, 3, 78, 0
2, 131963, Note_on_c, 3, 63, 0
2, 131970, Note_on_c, 3, 76, 127
2, 131970, Note_on_c, 3, 61, 127
2, 131993, Note_on_c, 3, 76, 0
2, 131993, Note_on_c, 3, 61, 0
2, 132000, Note_on_c, 3, 75, 127
2, 132000, Note_on_c, 3, 63, 127
2, 132023, Note_on_c, 3, 75, 0
2, 132030, Note_on_c, 3, 73, 127
2, 132047, Note_on_c, 3, 63, 0
2, 132053, Note_on_c, 3, 73, 0
2, 132060, Note_on_c, 3, 75, 127
2, 132060, Note_on_c, 3, 59, 127
2, 132083, Note_on_c, 3, 75, 0
2, 132090, Note_on_c, 3, 76, 127
2, 132107, Note_on_c, 3, 59, 0
2, 132113, Note_on_c, 3, 76, 0
2, 132120, Note_on_c, 3, 78, 127
2, 132120, Note_on_c, 3, 63, 127
2, 132143, Note_on_c, 3, 78, 0
2, 132150, Note_on_c, 3, 76, 127
2, 132167, Note_on_c, 3, 63, 0
2, 132173, Note_on_c, 3, 76, 0
2, 132180, Note_on_c, 3, 78, 127
2, 132180, Note_on_c, 3, 69, 127
2, 132180, Note_on_c, 3, 59, 127
2, 132203, Note_on_c, 3, 78, 0
2, 132210, Note_on_c, 3, 75, 127
2, 132227, Note_on_c, 3, 69, 0
2, 132227, Note_on_c, 3, 59, 0
2, 132233, Note_on_c, 3, 75, 0
2, 132240, Note_on_c, 3, 76, 127
2, 132240, Note_on_c, 3, 67, 127
2, 132240, Note_on_c, 3, 64, 127
2, 132263, Note_on_c, 3, 76, 0
2, 132270, Note_on_c, 3, 78, 127
2, 132287, Note_on_c, 3, 67, 0
2, 132287, Note_on_c, 3, 64, 0
2, 132293, Note_on_c, 3, 78, 0
2, 132300, Note_on_c, 3, 79, 127
2, 132300, Note_on_c, 3, 71, 127
2, 132323, Note_on_c, 3, 79, 0
2, 132323, Note_on_c, 3, 71, 0
2, 132330, Note_on_c, 3, 78, 127
2, 132330, Note_on_c, 3, 69, 127
2, 132353, Note_on_c, 3, 78, 0
2, 132353, Note_on_c, 3, 69, 0
2, 132360, Note_on_c, 3, 76, 127
2, 132360, Note_on_c, 3, 71, 127
2, 132383, Note_on_c, 3, 76, 0
2, 132390, Note_on_c, 3, 75, 127
2, 132407, Note_on_c, 3, 71, 0
2, 132413, Note_on_c, 3, 75, 0
2, 132420, Note_on_c, 3, 76, 127
2, 132420, Note_on_c, 3, 67, 127
2, 132443, Note_on_c, 3, 76, 0
2, 132450, Note_on_c, 3, 78, 127
2, 132467, Note_on_c, 3, 67, 0
2, 132473, Note_on_c, 3, 78, 0
2, 132480, Note_on_c, 3, 79, 127
2, 132480, Note_on_c, 3, 71, 127
2, 132503, Note_on_c, 3, 79, 0
2, 132510, Note_on_c, 3, 78, 127
2, 132527, Note_on_c, 3, 71, 0
2, 132533, Note_on_c, 3, 78, 0
2, 132540, Note_on_c, 3, 76, 127
2, 132540, Note_on_c, 3, 67, 127
2, 132540, Note_on_c, 3, 64, 127
2, 132563, Note_on_c, 3, 76, 0
2, 132570, Note_on_c, 3, 79, 127
2, 132587, Note_on_c, 3, 67, 0
2, 132587, Note_on_c, 3, 64, 0
2, 132593, Note_on_c, 3, 79, 0
2, 132600, Note_on_c, 3, 78, 127
2, 132600, Note_on_c, 3, 71, 127
2, 132600, Note_on_c, 3, 63, 127
2, 132623, Note_on_c, 3, 78, 0
2, 132630, Note_on_c, 3, 79, 127
2, 132647, Note_on_c, 3, 71, 0
2, 132647, Note_on_c, 3, 63, 0
2, 132653, Note_on_c, 3, 79, 0
2, 132660, Note_on_c, 3, 81, 127
2, 132660, Note_on_c, 3, 66, 127
2, 132683, Note_on_c, 3, 81, 0
2, 132683, Note_on_c, 3, 66, 0
2, 132690, Note_on_c, 3, 79, 127
2, 132690, Note_on_c, 3, 64, 127
2, 132713, Note_on_c, 3, 79, 0
2, 132713, Note_on_c, 3, 64, 0
2, 132720, Note_on_c, 3, 78, 127
2, 132720, Note_on_c, 3, 66, 127
2, 132743, Note_on_c, 3, 78, 0
2, 132750, Note_on_c, 3, 76, 127
2, 132767, Note_on_c, 3, 66, 0
2, 132773, Note_on_c, 3, 76, 0
2, 132780, Note_on_c, 3, 78, 127
2, 132780, Note_on_c, 3, 63, 127
2, 132803, Note_on_c, 3, 78, 0
2, 132810, Note_on_c, 3, 79, 127
2, 132827, Note_on_c, 3, 63, 0
2, 132833, Note_on_c, 3, 79, 0
2, 132840, Note_on_c, 3, 81, 127
2, 132840, Note_on_c, 3, 66, 127
2, 132863, Note_on_c, 3, 81, 0
2, 132870, Note_on_c, 3, 79, 127
2, 132887, Note_on_c, 3, 66, 0
2, 132893, Note_on_c, 3, 79, 0
2, 132900, Note_on_c, 3, 78, 127
2, 132900, Note_on_c, 3, 71, 127
2, 132900, Note_on_c, 3, 63, 127
2, 132923, Note_on_c, 3, 78, 0
2, 132930, Note_on_c, 3, 79, 127
2, 132947, Note_on_c, 3, 71, 0
2, 132947, Note_on_c, 3, 63, 0
2, 132953, Note_on_c, 3, 79, 0
2, 132960, Note_on_c, 3, 76, 127
2, 132960, Note_on_c, 3, 71, 127
2, 132960, Note_on_c, 3, 67, 127
2, 132983, Note_on_c, 3, 76, 0
2, 132990, Note_on_c, 3, 78, 127
2, 133007, Note_on_c, 3, 71, 0
2, 133007, Note_on_c, 3, 67, 0
2, 133013, Note_on_c, 3, 78, 0
2, 133020, Note_on_c, 3, 79, 127
2, 133020, Note_on_c, 3, 76, 127
2, 133043, Note_on_c, 3, 79, 0
2, 133043, Note_on_c, 3, 76, 0
2, 133050, Note_on_c, 3, 78, 127
2, 133050, Note_on_c, 3, 75, 127
2, 133073, Note_on_c, 3, 78, 0
2, 133073, Note_on_c, 3, 75, 0
2, 133080, Note_on_c, 3, 76, 127
2, 133080, Note_on_c, 3, 76, 127
2, 133103, Note_on_c, 3, 76, 0
2, 133110, Note_on_c, 3, 78, 127
2, 133127, Note_on_c, 3, 76, 0
2, 133133, Note_on_c, 3, 78, 0
2, 133140, Note_on_c, 3, 79, 127
2, 133140, Note_on_c, 3, 71, 127
2, 133163, Note_on_c, 3, 79, 0
2, 133170, Note_on_c, 3, 81, 127
2, 133187, Note_on_c, 3, 71, 0
2, 133193, Note_on_c, 3, 81, 0
2, 133200, Note_on_c, 3, 79, 127
2, 133200, Note_on_c, 3, 76, 127
2, 133223, Note_on_c, 3, 79, 0
2, 133230, Note_on_c, 3, 78, 127
2, 133247, Note_on_c, 3, 76, 0
2, 133253, Note_on_c, 3, 78, 0
2, 133260, Note_on_c, 3, 76, 127
2, 133260, Note_on_c, 3, 71, 127
2, 133260, Note_on_c, 3, 67, 127
2, 133283, Note_on_c, 3, 76, 0
2, 133290, Note_on_c, 3, 75, 127
2, 133307, Note_on_c, 3, 71, 0
2, 133307, Note_on_c, 3, 67, 0
2, 133313, Note_on_c, 3, 75, 0
2, 133320, Note_on_c, 3, 76, 127
2, 133320, Note_on_c, 3, 67, 127
2, 133320, Note_on_c, 3, 64, 127
2, 133343, Note_on_c, 3, 76, 0
2, 133350, Note_on_c, 3, 79, 127
2, 133367, Note_on_c, 3, 67, 0
2, 133367, Note_on_c, 3, 64, 0
2, 133373, Note_on_c, 3, 79, 0
2, 133380, Note_on_c, 3, 83, 127
2, 133380, Note_on_c, 3, 67, 127
2, 133403, Note_on_c, 3, 83, 0
2, 133403, Note_on_c, 3, 67, 0
2, 133410, Note_on_c, 3, 81, 127
2, 133410, Note_on_c, 3, 66, 127
2, 133433, Note_on_c, 3, 81, 0
2, 133433, Note_on_c, 3, 66, 0
2, 133440, Note_on_c, 3, 79, 127
2, 133440, Note_on_c, 3, 67, 127
2, 133463, Note_on_c, 3, 79, 0
2, 133470, Note_on_c, 3, 78, 127
2, 133487, Note_on_c, 3, 67, 0
2, 133493, Note_on_c, 3, 78, 0
2, 133500, Note_on_c, 3, 79, 127
2, 133500, Note_on_c, 3, 64, 127
2, 133523, Note_on_c, 3, 79, 0
2, 133530, Note_on_c, 3, 81, 127
2, 133547, Note_on_c, 3, 64, 0
2, 133553, Note_on_c, 3, 81, 0
2, 133560, Note_on_c, 3, 83, 127
2, 133560, Note_on_c, 3, 67, 127
2, 133583, Note_on_c, 3, 83, 0
2, 133590, Note_on_c, 3, 81, 127
2, 133607, Note_on_c, 3, 67, 0
2, 133613, Note_on_c, 3, 81, 0
2, 133620, Note_on_c, 3, 79, 127
2, 133620, Note_on_c, 3, 76, 127
2, 133620, Note_on_c, 3, 64, 127
2, 133643, Note_on_c, 3, 79, 0
2, 133650, Note_on_c, 3, 81, 127
2, 133667, Note_on_c, 3, 76, 0
2, 133667, Note_on_c, 3, 64, 0
2, 133673, Note_on_c, 3, 81, 0
2, 133680, Note_on_c, 3, 78, 127
2, 133680, Note_on_c, 3, 75, 127
2, 133680, Note_on_c, 3, 71, 127
2, 133703, Note_on_c, 3, 78, 0
2, 133710, Note_on_c, 3, 79, 127
2, 133727, Note_on_c, 3, 75, 0
2, 133727, Note_on_c, 3, 71, 0
2, 133733, Note_on_c, 3, 79, 0
2, 133740, Note_on_c, 3, 81, 127
2, 133740, Note_on_c, 3, 78, 127
2, 133763, Note_on_c, 3, 81, 0
2, 133770, Note_on_c, 3, 83, 127
2, 133787, Note_on_c, 3, 78, 0
2, 133793, Note_on_c, 3, 83, 0
2, 133800, Note_on_c, 3, 79, 127
2, 133800, Note_on_c, 3, 76, 127
2, 133823, Note_on_c, 3, 79, 0
2, 133830, Note_on_c, 3, 81, 127
2, 133847, Note_on_c, 3, 76, 0
2, 133853, Note_on_c, 3, 81, 0
2, 133860, Note_on_c, 3, 78, 127
2, 133860, Note_on_c, 3, 75, 127
2, 133883, Note_on_c, 3, 78, 0
2, 133890, Note_on_c, 3, 79, 127
2, 133907, Note_on_c, 3, 75, 0
2, 133913, Note_on_c, 3, 79, 0
2, 133920, Note_on_c, 3, 81, 127
2, 133920, Note_on_c, 3, 78, 127
2, 133943, Note_on_c, 3, 81, 0
2, 133950, Note_on_c, 3, 79, 127
2, 133967, Note_on_c, 3, 78, 0
2, 133973, Note_on_c, 3, 79, 0
2, 133980, Note_on_c, 3, 78, 127
2, 133980, Note_on_c, 3, 75, 127
2, 133980, Note_on_c, 3, 71, 127
2, 134003, Note_on_c, 3, 78, 0
2, 134010, Note_on_c, 3, 79, 127
2, 134027, Note_on_c, 3, 75, 0
2, 134027, Note_on_c, 3, 71, 0
2, 134033, Note_on_c, 3, 79, 0
2, 134040, Note_on_c, 3, 76, 127
2, 134040, Note_on_c, 3, 76, 127
2, 134040, Note_on_c, 3, 67, 127
2, 134063, Note_on_c, 3, 67, 0
2, 134070, Note_on_c, 3, 71, 127
2, 134087, Note_on_c, 3, 76, 0
2, 134087, Note_on_c, 3, 76, 0
2, 134093, Note_on_c, 3, 71, 0
2, 134100, Note_on_c, 3, 79, 127
2, 134100, Note_on_c, 3, 76, 127
2, 134100, Note_on_c, 3, 64, 127
2, 134123, Note_on_c, 3, 64, 0
2, 134130, Note_on_c, 3, 71, 127
2, 134147, Note_on_c, 3, 79, 0
2, 134147, Note_on_c, 3, 76, 0
2, 134153, Note_on_c, 3, 71, 0
2, 134160, Note_on_c, 3, 81, 127
2, 134160, Note_on_c, 3, 75, 127
2, 134160, Note_on_c, 3, 66, 127
2, 134183, Note_on_c, 3, 66, 0
2, 134190, Note_on_c, 3, 71, 127
2, 134207, Note_on_c, 3, 81, 0
2, 134207, Note_on_c, 3, 75, 0
2, 134213, Note_on_c, 3, 71, 0
2, 134220, Note_on_c, 3, 83, 127
2, 134220, Note_on_c, 3, 76, 127
2, 134220, Note_on_c, 3, 67, 127
2, 134243, Note_on_c, 3, 67, 0
2, 134250, Note_on_c, 3, 71, 127
2, 134267, Note_on_c, 3, 83, 0
2, 134267, Note_on_c, 3, 76, 0
2, 134273, Note_on_c, 3, 71, 0
2, 134280, Note_on_c, 3, 81, 127
2, 134280, Note_on_c, 3, 75, 127
2, 134280, Note_on_c, 3, 66, 127
2, 134303, Note_on_c, 3, 66, 0
2, 134310, Note_on_c, 3, 71, 127
2, 134327, Note_on_c, 3, 81, 0
2, 134327, Note_on_c, 3, 75, 0
2, 134333, Note_on_c, 3, 71, 0
2, 134340, Note_on_c, 3, 83, 127
2, 134340, Note_on_c, 3, 76, 127
2, 134340, Note_on_c, 3, 67, 127
2, 134363, Note_on_c, 3, 67, 0
2, 134370, Note_on_c, 3, 71, 127
2, 134387, Note_on_c, 3, 83, 0
2, 134387, Note_on_c, 3, 76, 0
2, 134393, Note_on_c, 3, 71, 0
2, 134400, Note_on_c, 3, 84, 127
2, 134400, Note_on_c, 3, 76, 127
2, 134400, Note_on_c, 3, 69, 127
2, 134423, Note_on_c, 3, 69, 0
2, 134430, Note_on_c, 3, 71, 127
2, 134447, Note_on_c, 3, 84, 0
2, 134447, Note_on_c, 3, 76, 0
2, 134453, Note_on_c, 3, 71, 0
2, 134460, Note_on_c, 3, 83, 127
2, 134460, Note_on_c, 3, 76, 127
2, 134460, Note_on_c, 3, 67, 127
2, 134483, Note_on_c, 3, 67, 0
2, 134490, Note_on_c, 3, 71, 127
2, 134507, Note_on_c, 3, 83, 0
2, 134507, Note_on_c, 3, 76, 0
2, 134513, Note_on_c, 3, 71, 0
2, 134520, Note_on_c, 3, 81, 127
2, 134520, Note_on_c, 3, 75, 127
2, 134520, Note_on_c, 3, 66, 127
2, 134543, Note_on_c, 3, 66, 0
2, 134550, Note_on_c, 3, 71, 127
2, 134567, Note_on_c, 3, 81, 0
2, 134567, Note_on_c, 3, 75, 0
2, 134573, Note_on_c, 3, 71, 0
2, 134580, Note_on_c, 3, 83, 127
2, 134580, Note_on_c, 3, 76, 127
2, 134580, Note_on_c, 3, 67, 127
2, 134603, Note_on_c, 3, 67, 0
2, 134610, Note_on_c, 3, 71, 127
2, 134627, Note_on_c, 3, 83, 0
2, 134627, Note_on_c, 3, 76, 0
2, 134633, Note_on_c, 3, 71, 0
2, 134640, Note_on_c, 3, 79, 127
2, 134640, Note_on_c, 3, 64, 127
2, 134663, Note_on_c, 3, 64, 0
2, 134670, Note_on_c, 3, 71, 127
2, 134687, Note_on_c, 3, 79, 0
2, 134693, Note_on_c, 3, 71, 0
2, 134700, Note_on_c, 3, 77, 127
2, 134700, Note_on_c, 3, 62, 127
2, 134723, Note_on_c, 3, 62, 0
2, 134730, Note_on_c, 3, 71, 127
2, 134747, Note_on_c, 3, 77, 0
2, 134753, Note_on_c, 3, 71, 0
2, 134760, Note_on_c, 3, 76, 127
2, 134760, Note_on_c, 3, 61, 127
2, 134790, Note_on_c, 3, 79, 127
2, 134807, Note_on_c, 3, 76, 0
2, 134807, Note_on_c, 3, 61, 0
2, 134813, Note_on_c, 3, 79, 0
2, 134820, Note_on_c, 3, 78, 127
2, 134820, Note_on_c, 3, 69, 127
2, 134843, Note_on_c, 3, 78, 0
2, 134850, Note_on_c, 3, 76, 127
2, 134867, Note_on_c, 3, 69, 0
2, 134873, Note_on_c, 3, 76, 0
2, 134880, Note_on_c, 3, 78, 127
2, 134880, Note_on_c, 3, 69, 127
2, 134880, Note_on_c, 3, 63, 127
2, 134903, Note_on_c, 3, 78, 0
2, 134910, Note_on_c, 3, 79, 127
2, 134927, Note_on_c, 3, 69, 0
2, 134927, Note_on_c, 3, 63, 0
2, 134933, Note_on_c, 3, 79, 0
2, 134940, Note_on_c, 3, 76, 127
2, 134940, Note_on_c, 3, 67, 127
2, 134940, Note_on_c, 3, 64, 127
2, 134963, Note_on_c, 3, 76, 0
2, 134970, Note_on_c, 3, 79, 127
2, 134987, Note_on_c, 3, 67, 0
2, 134987, Note_on_c, 3, 64, 0
2, 134993, Note_on_c, 3, 79, 0
2, 135000, Note_on_c, 3, 81, 127
2, 135000, Note_on_c, 3, 66, 127
2, 135000, Note_on_c, 3, 64, 127
2, 135023, Note_on_c, 3, 81, 0
2, 135030, Note_on_c, 3, 84, 127
2, 135030, Note_on_c, 3, 65, 127
2, 135031, Note_on_c, 3, 64, 0
2, 135044, Note_on_c, 3, 65, 0
2, 135045, Note_on_c, 3, 64, 127
2, 135047, Note_on_c, 3, 66, 0
2, 135053, Note_on_c, 3, 84, 0
2, 135059, Note_on_c, 3, 64, 0
2, 135060, Note_on_c, 3, 78, 127
2, 135060, Note_on_c, 3, 71, 127
2, 135060, Note_on_c, 3, 63, 127
2, 135083, Note_on_c, 3, 78, 0
2, 135090, Note_on_c, 3, 81, 127
2, 135107, Note_on_c, 3, 71, 0
2, 135107, Note_on_c, 3, 63, 0
2, 135113, Note_on_c, 3, 81, 0
2, 135120, Note_on_c, 3, 79, 127
2, 135120, Note_on_c, 3, 64, 127
2, 135150, Note_on_c, 3, 71, 127
2, 135167, Note_on_c, 3, 79, 0
2, 135167, Note_on_c, 3, 64, 0
2, 135173, Note_on_c, 3, 71, 0
2, 135180, Note_on_c, 3, 76, 127
2, 135203, Note_on_c, 3, 76, 0
2, 135210, Note_on_c, 3, 77, 127
2, 135233, Note_on_c, 3, 77, 0
2, 135240, Note_on_c, 3, 80, 127
2, 135240, Note_on_c, 3, 71, 127
2, 135240, Note_on_c, 3, 64, 127
2, 135263, Note_on_c, 3, 71, 0
2, 135270, Note_on_c, 3, 74, 127
2, 135287, Note_on_c, 3, 80, 0
2, 135287, Note_on_c, 3, 64, 0
2, 135293, Note_on_c, 3, 74, 0
2, 135300, Note_on_c, 3, 81, 127
2, 135300, Note_on_c, 3, 72, 127
2, 135300, Note_on_c, 3, 57, 127
2, 135323, Note_on_c, 3, 57, 0
2, 135330, Note_on_c, 3, 64, 127
2, 135347, Note_on_c, 3, 81, 0
2, 135347, Note_on_c, 3, 72, 0
2, 135353, Note_on_c, 3, 64, 0
2, 135360, Note_on_c, 3, 67, 127
2, 135383, Note_on_c, 3, 67, 0
2, 135390, Note_on_c, 3, 69, 127
2, 135413, Note_on_c, 3, 69, 0
2, 135420, Note_on_c, 3, 81, 127
2, 135420, Note_on_c, 3, 73, 127
2, 135420, Note_on_c, 3, 64, 127
2, 135443, Note_on_c, 3, 64, 0
2, 135450, Note_on_c, 3, 67, 127
2, 135467, Note_on_c, 3, 81, 0
2, 135467, Note_on_c, 3, 73, 0
2, 135473, Note_on_c, 3, 67, 0
2, 135480, Note_on_c, 3, 81, 127
2, 135480, Note_on_c, 3, 74, 127
2, 135480, Note_on_c, 3, 66, 127
2, 135503, Note_on_c, 3, 74, 0
2, 135510, Note_on_c, 3, 69, 127
2, 135527, Note_on_c, 3, 81, 0
2, 135527, Note_on_c, 3, 66, 0
2, 135533, Note_on_c, 3, 69, 0
2, 135540, Note_on_c, 3, 72, 127
2, 135563, Note_on_c, 3, 72, 0
2, 135570, Note_on_c, 3, 74, 127
2, 135593, Note_on_c, 3, 74, 0
2, 135600, Note_on_c, 3, 69, 127
2, 135600, Note_on_c, 3, 66, 127
2, 135623, Note_on_c, 3, 69, 0
2, 135630, Note_on_c, 3, 72, 127
2, 135647, Note_on_c, 3, 66, 0
2, 135653, Note_on_c, 3, 72, 0
2, 135660, Note_on_c, 3, 71, 127
2, 135660, Note_on_c, 3, 67, 127
2, 135690, Note_on_c, 3, 74, 127
2, 135707, Note_on_c, 3, 71, 0
2, 135707, Note_on_c, 3, 67, 0
2, 135713, Note_on_c, 3, 74, 0
2, 135720, Note_on_c, 3, 79, 127
2, 135743, Note_on_c, 3, 79, 0
2, 135750, Note_on_c, 3, 81, 127
2, 135773, Note_on_c, 3, 81, 0
2, 135780, Note_on_c, 3, 74, 127
2, 135780, Note_on_c, 3, 71, 127
2, 135780, Note_on_c, 3, 67, 127
2, 135803, Note_on_c, 3, 74, 0
2, 135810, Note_on_c, 3, 77, 127
2, 135827, Note_on_c, 3, 71, 0
2, 135827, Note_on_c, 3, 67, 0
2, 135833, Note_on_c, 3, 77, 0
2, 135840, Note_on_c, 3, 76, 127
2, 135840, Note_on_c, 3, 60, 127
2, 135870, Note_on_c, 3, 67, 127
2, 135887, Note_on_c, 3, 76, 0
2, 135887, Note_on_c, 3, 60, 0
2, 135893, Note_on_c, 3, 67, 0
2, 135900, Note_on_c, 3, 69, 127
2, 135923, Note_on_c, 3, 69, 0
2, 135930, Note_on_c, 3, 71, 127
2, 135953, Note_on_c, 3, 71, 0
2, 135960, Note_on_c, 3, 72, 127
2, 135960, Note_on_c, 3, 64, 127
2, 135960, Note_on_c, 3, 57, 127
2, 135983, Note_on_c, 3, 64, 0
2, 135990, Note_on_c, 3, 67, 127
2, 136007, Note_on_c, 3, 72, 0
2, 136007, Note_on_c, 3, 57, 0
2, 136013, Note_on_c, 3, 67, 0
2, 136020, Note_on_c, 3, 66, 127
2, 136020, Note_on_c, 3, 62, 127
2, 136050, Note_on_c, 3, 72, 127
2, 136067, Note_on_c, 3, 66, 0
2, 136067, Note_on_c, 3, 62, 0
2, 136073, Note_on_c, 3, 72, 0
2, 136080, Note_on_c, 3, 74, 127
2, 136103, Note_on_c, 3, 74, 0
2, 136110, Note_on_c, 3, 76, 127
2, 136133, Note_on_c, 3, 76, 0
2, 136140, Note_on_c, 3, 69, 127
2, 136140, Note_on_c, 3, 66, 127
2, 136140, Note_on_c, 3, 62, 127
2, 136163, Note_on_c, 3, 69, 0
2, 136170, Note_on_c, 3, 72, 127
2, 136187, Note_on_c, 3, 66, 0
2, 136187, Note_on_c, 3, 62, 0
2, 136193, Note_on_c, 3, 72, 0
2, 136200, Note_on_c, 3, 71, 127
2, 136200, Note_on_c, 3, 55, 127
2, 136230, Note_on_c, 3, 66, 127
2, 136247, Note_on_c, 3, 71, 0
2, 136247, Note_on_c, 3, 55, 0
2, 136253, Note_on_c, 3, 66, 0
2, 136260, Note_on_c, 3, 67, 127
2, 136283, Note_on_c, 3, 67, 0
2, 136290, Note_on_c, 3, 69, 127
2, 136313, Note_on_c, 3, 69, 0
2, 136320, Note_on_c, 3, 71, 127
2, 136320, Note_on_c, 3, 62, 127
2, 136320, Note_on_c, 3, 55, 127
2, 136343, Note_on_c, 3, 62, 0
2, 136350, Note_on_c, 3, 65, 127
2, 136367, Note_on_c, 3, 71, 0
2, 136367, Note_on_c, 3, 55, 0
2, 136373, Note_on_c, 3, 65, 0
2, 136380, Note_on_c, 3, 64, 127
2, 136380, Note_on_c, 3, 60, 127
2, 136410, Note_on_c, 3, 67, 127
2, 136427, Note_on_c, 3, 64, 0
2, 136427, Note_on_c, 3, 60, 0
2, 136433, Note_on_c, 3, 67, 0
2, 136440, Note_on_c, 3, 69, 127
2, 136463, Note_on_c, 3, 69, 0
2, 136470, Note_on_c, 3, 71, 127
2, 136493, Note_on_c, 3, 71, 0
2, 136500, Note_on_c, 3, 64, 127
2, 136500, Note_on_c, 3, 64, 127
2, 136500, Note_on_c, 3, 60, 127
2, 136523, Note_on_c, 3, 64, 0
2, 136530, Note_on_c, 3, 67, 127
2, 136547, Note_on_c, 3, 64, 0
2, 136547, Note_on_c, 3, 60, 0
2, 136553, Note_on_c, 3, 67, 0
2, 136560, Note_on_c, 3, 66, 127
2, 136560, Note_on_c, 3, 62, 127
2, 136560, Note_on_c, 3, 60, 127
2, 136560, Note_on_c, 3, 50, 127
2, 136607, Note_on_c, 3, 66, 0
2, 136607, Note_on_c, 3, 62, 0
2, 136607, Note_on_c, 3, 60, 0
2, 136607, Note_on_c, 3, 50, 0
2, 136620, Note_on_c, 3, 69, 127
2, 136620, Note_on_c, 3, 54, 127
2, 136643, Note_on_c, 3, 69, 0
2, 136643, Note_on_c, 3, 54, 0
2, 136650, Note_on_c, 3, 67, 127
2, 136650, Note_on_c, 3, 52, 127
2, 136673, Note_on_c, 3, 67, 0
2, 136673, Note_on_c, 3, 52, 0
2, 136680, Note_on_c, 3, 69, 127
2, 136680, Note_on_c, 3, 54, 127
2, 136727, Note_on_c, 3, 69, 0
2, 136727, Note_on_c, 3, 54, 0
2, 136740, Note_on_c, 3, 66, 127
2, 136740, Note_on_c, 3, 50, 127
2, 136787, Note_on_c, 3, 66, 0
2, 136787, Note_on_c, 3, 50, 0
2, 136800, Note_on_c, 3, 69, 127
2, 136800, Note_on_c, 3, 54, 127
2, 136847, Note_on_c, 3, 69, 0
2, 136847, Note_on_c, 3, 54, 0
2, 136860, Note_on_c, 3, 66, 127
2, 136860, Note_on_c, 3, 62, 127
2, 136860, Note_on_c, 3, 60, 127
2, 136860, Note_on_c, 3, 50, 127
2, 136907, Note_on_c, 3, 66, 0
2, 136907, Note_on_c, 3, 62, 0
2, 136907, Note_on_c, 3, 60, 0
2, 136907, Note_on_c, 3, 50, 0
2, 136920, Note_on_c, 3, 67, 127
2, 136920, Note_on_c, 3, 62, 127
2, 136920, Note_on_c, 3, 59, 127
2, 136920, Note_on_c, 3, 55, 127
2, 136943, Note_on_c, 3, 67, 0
2, 136943, Note_on_c, 3, 59, 0
2, 136950, Note_on_c, 3, 69, 127
2, 136950, Note_on_c, 3, 60, 127
2, 136967, Note_on_c, 3, 62, 0
2, 136967, Note_on_c, 3, 55, 0
2, 136973, Note_on_c, 3, 69, 0
2, 136973, Note_on_c, 3, 60, 0
2, 136980, Note_on_c, 3, 71, 127
2, 136980, Note_on_c, 3, 62, 127
2, 137003, Note_on_c, 3, 71, 0
2, 137003, Note_on_c, 3, 62, 0
2, 137010, Note_on_c, 3, 69, 127
2, 137010, Note_on_c, 3, 60, 127
2, 137033, Note_on_c, 3, 69, 0
2, 137033, Note_on_c, 3, 60, 0
2, 137040, Note_on_c, 3, 67, 127
2, 137040, Note_on_c, 3, 59, 127
2, 137063, Note_on_c, 3, 67, 0
2, 137063, Note_on_c, 3, 59, 0
2, 137070, Note_on_c, 3, 66, 127
2, 137070, Note_on_c, 3, 57, 127
2, 137093, Note_on_c, 3, 66, 0
2, 137093, Note_on_c, 3, 57, 0
2, 137100, Note_on_c, 3, 67, 127
2, 137100, Note_on_c, 3, 59, 127
2, 137123, Note_on_c, 3, 59, 0
2, 137130, Note_on_c, 3, 60, 127
2, 137147, Note_on_c, 3, 67, 0
2, 137153, Note_on_c, 3, 60, 0
2, 137160, Note_on_c, 3, 71, 127
2, 137160, Note_on_c, 3, 62, 127
2, 137183, Note_on_c, 3, 62, 0
2, 137190, Note_on_c, 3, 60, 127
2, 137207, Note_on_c, 3, 71, 0
2, 137213, Note_on_c, 3, 60, 0
2, 137220, Note_on_c, 3, 67, 127
2, 137220, Note_on_c, 3, 62, 127
2, 137220, Note_on_c, 3, 59, 127
2, 137220, Note_on_c, 3, 55, 127
2, 137243, Note_on_c, 3, 59, 0
2, 137250, Note_on_c, 3, 60, 127
2, 137267, Note_on_c, 3, 67, 0
2, 137267, Note_on_c, 3, 62, 0
2, 137267, Note_on_c, 3, 55, 0
2, 137273, Note_on_c, 3, 60, 0
2, 137280, Note_on_c, 3, 74, 127
2, 137280, Note_on_c, 3, 62, 127
2, 137280, Note_on_c, 3, 57, 127
2, 137280, Note_on_c, 3, 54, 127
2, 137327, Note_on_c, 3, 74, 0
2, 137327, Note_on_c, 3, 62, 0
2, 137327, Note_on_c, 3, 57, 0
2, 137327, Note_on_c, 3, 54, 0
2, 137340, Note_on_c, 3, 66, 127
2, 137340, Note_on_c, 3, 57, 127
2, 137363, Note_on_c, 3, 66, 0
2, 137363, Note_on_c, 3, 57, 0
2, 137370, Note_on_c, 3, 64, 127
2, 137370, Note_on_c, 3, 55, 127
2, 137393, Note_on_c, 3, 64, 0
2, 137393, Note_on_c, 3, 55, 0
2, 137400, Note_on_c, 3, 66, 127
2, 137400, Note_on_c, 3, 57, 127
2, 137447, Note_on_c, 3, 66, 0
2, 137447, Note_on_c, 3, 57, 0
2, 137460, Note_on_c, 3, 62, 127
2, 137460, Note_on_c, 3, 54, 127
2, 137507, Note_on_c, 3, 62, 0
2, 137507, Note_on_c, 3, 54, 0
2, 137520, Note_on_c, 3, 66, 127
2, 137520, Note_on_c, 3, 57, 127
2, 137567, Note_on_c, 3, 66, 0
2, 137567, Note_on_c, 3, 57, 0
2, 137580, Note_on_c, 3, 74, 127
2, 137580, Note_on_c, 3, 62, 127
2, 137580, Note_on_c, 3, 57, 127
2, 137580, Note_on_c, 3, 54, 127
2, 137627, Note_on_c, 3, 74, 0
2, 137627, Note_on_c, 3, 62, 0
2, 137627, Note_on_c, 3, 57, 0
2, 137627, Note_on_c, 3, 54, 0
2, 137640, Note_on_c, 3, 79, 127
2, 137640, Note_on_c, 3, 62, 127
2, 137640, Note_on_c, 3, 59, 127
2, 137640, Note_on_c, 3, 59, 127
2, 137663, Note_on_c, 3, 79, 0
2, 137663, Note_on_c, 3, 59, 0
2, 137670, Note_on_c, 3, 81, 127
2, 137670, Note_on_c, 3, 60, 127
2, 137687, Note_on_c, 3, 62, 0
2, 137687, Note_on_c, 3, 59, 0
2, 137693, Note_on_c, 3, 81, 0
2, 137693, Note_on_c, 3, 60, 0
2, 137700, Note_on_c, 3, 83, 127
2, 137700, Note_on_c, 3, 62, 127
2, 137723, Note_on_c, 3, 83, 0
2, 137723, Note_on_c, 3, 62, 0
2, 137730, Note_on_c, 3, 81, 127
2, 137730, Note_on_c, 3, 60, 127
2, 137753, Note_on_c, 3, 81, 0
2, 137753, Note_on_c, 3, 60, 0
2, 137760, Note_on_c, 3, 79, 127
2, 137760, Note_on_c, 3, 59, 127
2, 137783, Note_on_c, 3, 79, 0
2, 137783, Note_on_c, 3, 59, 0
2, 137790, Note_on_c, 3, 78, 127
2, 137790, Note_on_c, 3, 57, 127
2, 137813, Note_on_c, 3, 78, 0
2, 137813, Note_on_c, 3, 57, 0
2, 137820, Note_on_c, 3, 79, 127
2, 137820, Note_on_c, 3, 59, 127
2, 137843, Note_on_c, 3, 79, 0
2, 137843, Note_on_c, 3, 59, 0
2, 137850, Note_on_c, 3, 81, 127
2, 137850, Note_on_c, 3, 60, 127
2, 137873, Note_on_c, 3, 81, 0
2, 137873, Note_on_c, 3, 60, 0
2, 137880, Note_on_c, 3, 83, 127
2, 137880, Note_on_c, 3, 62, 127
2, 137903, Note_on_c, 3, 83, 0
2, 137903, Note_on_c, 3, 62, 0
2, 137910, Note_on_c, 3, 81, 127
2, 137910, Note_on_c, 3, 60, 127
2, 137933, Note_on_c, 3, 81, 0
2, 137933, Note_on_c, 3, 60, 0
2, 137940, Note_on_c, 3, 79, 127
2, 137940, Note_on_c, 3, 62, 127
2, 137940, Note_on_c, 3, 59, 127
2, 137940, Note_on_c, 3, 59, 127
2, 137963, Note_on_c, 3, 79, 0
2, 137963, Note_on_c, 3, 59, 0
2, 137970, Note_on_c, 3, 78, 127
2, 137970, Note_on_c, 3, 57, 127
2, 137987, Note_on_c, 3, 62, 0
2, 137987, Note_on_c, 3, 59, 0
2, 137993, Note_on_c, 3, 78, 0
2, 137993, Note_on_c, 3, 57, 0
2, 138000, Note_on_c, 3, 76, 127
2, 138000, Note_on_c, 3, 71, 127
2, 138000, Note_on_c, 3, 59, 127
2, 138000, Note_on_c, 3, 55, 127
2, 138023, Note_on_c, 3, 76, 0
2, 138030, Note_on_c, 3, 78, 127
2, 138047, Note_on_c, 3, 71, 0
2, 138047, Note_on_c, 3, 59, 0
2, 138047, Note_on_c, 3, 55, 0
2, 138053, Note_on_c, 3, 78, 0
2, 138060, Note_on_c, 3, 79, 127
2, 138060, Note_on_c, 3, 59, 127
2, 138083, Note_on_c, 3, 79, 0
2, 138083, Note_on_c, 3, 59, 0
2, 138090, Note_on_c, 3, 78, 127
2, 138090, Note_on_c, 3, 57, 127
2, 138113, Note_on_c, 3, 78, 0
2, 138113, Note_on_c, 3, 57, 0
2, 138120, Note_on_c, 3, 76, 127
2, 138120, Note_on_c, 3, 59, 127
2, 138143, Note_on_c, 3, 76, 0
2, 138150, Note_on_c, 3, 74, 127
2, 138167, Note_on_c, 3, 59, 0
2, 138173, Note_on_c, 3, 74, 0
2, 138180, Note_on_c, 3, 76, 127
2, 138180, Note_on_c, 3, 71, 127
2, 138180, Note_on_c, 3, 67, 127
2, 138180, Note_on_c, 3, 55, 127
2, 138203, Note_on_c, 3, 76, 0
2, 138210, Note_on_c, 3, 78, 127
2, 138227, Note_on_c, 3, 71, 0
2, 138227, Note_on_c, 3, 67, 0
2, 138227, Note_on_c, 3, 55, 0
2, 138233, Note_on_c, 3, 78, 0
2, 138240, Note_on_c, 3, 79, 127
2, 138240, Note_on_c, 3, 59, 127
2, 138263, Note_on_c, 3, 79, 0
2, 138270, Note_on_c, 3, 78, 127
2, 138287, Note_on_c, 3, 59, 0
2, 138293, Note_on_c, 3, 78, 0
2, 138300, Note_on_c, 3, 76, 127
2, 138300, Note_on_c, 3, 73, 127
2, 138300, Note_on_c, 3, 67, 127
2, 138300, Note_on_c, 3, 55, 127
2, 138323, Note_on_c, 3, 76, 0
2, 138330, Note_on_c, 3, 79, 127
2, 138347, Note_on_c, 3, 73, 0
2, 138347, Note_on_c, 3, 67, 0
2, 138347, Note_on_c, 3, 55, 0
2, 138353, Note_on_c, 3, 79, 0
2, 138360, Note_on_c, 3, 78, 127
2, 138360, Note_on_c, 3, 74, 127
2, 138360, Note_on_c, 3, 69, 127
2, 138360, Note_on_c, 3, 62, 127
2, 138383, Note_on_c, 3, 78, 0
2, 138383, Note_on_c, 3, 69, 0
2, 138390, Note_on_c, 3, 79, 127
2, 138390, Note_on_c, 3, 71, 127
2, 138407, Note_on_c, 3, 74, 0
2, 138407, Note_on_c, 3, 62, 0
2, 138413, Note_on_c, 3, 79, 0
2, 138413, Note_on_c, 3, 71, 0
2, 138420, Note_on_c, 3, 81, 127
2, 138420, Note_on_c, 3, 72, 127
2, 138443, Note_on_c, 3, 81, 0
2, 138443, Note_on_c, 3, 72, 0
2, 138450, Note_on_c, 3, 79, 127
2, 138450, Note_on_c, 3, 71, 127
2, 138473, Note_on_c, 3, 79, 0
2, 138473, Note_on_c, 3, 71, 0
2, 138480, Note_on_c, 3, 78, 127
2, 138480, Note_on_c, 3, 69, 127
2, 138503, Note_on_c, 3, 78, 0
2, 138503, Note_on_c, 3, 69, 0
2, 138510, Note_on_c, 3, 76, 127
2, 138510, Note_on_c, 3, 67, 127
2, 138533, Note_on_c, 3, 76, 0
2, 138533, Note_on_c, 3, 67, 0
2, 138540, Note_on_c, 3, 78, 127
2, 138540, Note_on_c, 3, 74, 127
2, 138540, Note_on_c, 3, 69, 127
2, 138563, Note_on_c, 3, 78, 0
2, 138570, Note_on_c, 3, 79, 127
2, 138587, Note_on_c, 3, 74, 0
2, 138587, Note_on_c, 3, 69, 0
2, 138593, Note_on_c, 3, 79, 0
2, 138600, Note_on_c, 3, 81, 127
2, 138600, Note_on_c, 3, 66, 127
2, 138600, Note_on_c, 3, 62, 127
2, 138623, Note_on_c, 3, 81, 0
2, 138630, Note_on_c, 3, 79, 127
2, 138647, Note_on_c, 3, 66, 0
2, 138647, Note_on_c, 3, 62, 0
2, 138653, Note_on_c, 3, 79, 0
2, 138660, Note_on_c, 3, 78, 127
2, 138660, Note_on_c, 3, 69, 127
2, 138660, Note_on_c, 3, 66, 127
2, 138660, Note_on_c, 3, 62, 127
2, 138683, Note_on_c, 3, 78, 0
2, 138690, Note_on_c, 3, 76, 127
2, 138707, Note_on_c, 3, 69, 0
2, 138707, Note_on_c, 3, 66, 0
2, 138707, Note_on_c, 3, 62, 0
2, 138713, Note_on_c, 3, 76, 0
2, 138720, Note_on_c, 3, 74, 127
2, 138720, Note_on_c, 3, 71, 127
2, 138720, Note_on_c, 3, 67, 127
2, 138720, Note_on_c, 3, 59, 127
2, 138743, Note_on_c, 3, 74, 0
2, 138743, Note_on_c, 3, 59, 0
2, 138750, Note_on_c, 3, 79, 127
2, 138750, Note_on_c, 3, 62, 127
2, 138767, Note_on_c, 3, 71, 0
2, 138767, Note_on_c, 3, 67, 0
2, 138773, Note_on_c, 3, 79, 0
2, 138773, Note_on_c, 3, 62, 0
2, 138780, Note_on_c, 3, 71, 127
2, 138780, Note_on_c, 3, 55, 127
2, 138803, Note_on_c, 3, 71, 0
2, 138803, Note_on_c, 3, 55, 0
2, 138810, Note_on_c, 3, 79, 127
2, 138810, Note_on_c, 3, 62, 127
2, 138833, Note_on_c, 3, 79, 0
2, 138833, Note_on_c, 3, 62, 0
2, 138840, Note_on_c, 3, 72, 127
2, 138840, Note_on_c, 3, 57, 127
2, 138863, Note_on_c, 3, 72, 0
2, 138863, Note_on_c, 3, 57, 0
2, 138870, Note_on_c, 3, 79, 127
2, 138870, Note_on_c, 3, 62, 127
2, 138893, Note_on_c, 3, 79, 0
2, 138893, Note_on_c, 3, 62, 0
2, 138900, Note_on_c, 3, 74, 127
2, 138900, Note_on_c, 3, 67, 127
2, 138900, Note_on_c, 3, 62, 127
2, 138900, Note_on_c, 3, 59, 127
2, 138923, Note_on_c, 3, 74, 0
2, 138923, Note_on_c, 3, 59, 0
2, 138930, Note_on_c, 3, 79, 127
2, 138930, Note_on_c, 3, 62, 127
2, 138947, Note_on_c, 3, 67, 0
2, 138947, Note_on_c, 3, 62, 0
2, 138953, Note_on_c, 3, 79, 0
2, 138953, Note_on_c, 3, 62, 0
2, 138960, Note_on_c, 3, 72, 127
2, 138960, Note_on_c, 3, 57, 127
2, 138983, Note_on_c, 3, 72, 0
2, 138983, Note_on_c, 3, 57, 0
2, 138990, Note_on_c, 3, 79, 127
2, 138990, Note_on_c, 3, 62, 127
2, 139013, Note_on_c, 3, 79, 0
2, 139013, Note_on_c, 3, 62, 0
2, 139020, Note_on_c, 3, 74, 127
2, 139020, Note_on_c, 3, 67, 127
2, 139020, Note_on_c, 3, 62, 127
2, 139020, Note_on_c, 3, 59, 127
2, 139043, Note_on_c, 3, 74, 0
2, 139043, Note_on_c, 3, 59, 0
2, 139050, Note_on_c, 3, 79, 127
2, 139050, Note_on_c, 3, 62, 127
2, 139067, Note_on_c, 3, 67, 0
2, 139067, Note_on_c, 3, 62, 0
2, 139073, Note_on_c, 3, 79, 0
2, 139073, Note_on_c, 3, 62, 0
2, 139080, Note_on_c, 3, 76, 127
2, 139080, Note_on_c, 3, 67, 127
2, 139080, Note_on_c, 3, 60, 127
2, 139080, Note_on_c, 3, 60, 127
2, 139103, Note_on_c, 3, 76, 0
2, 139103, Note_on_c, 3, 60, 0
2, 139110, Note_on_c, 3, 79, 127
2, 139110, Note_on_c, 3, 62, 127
2, 139127, Note_on_c, 3, 67, 0
2, 139127, Note_on_c, 3, 60, 0
2, 139133, Note_on_c, 3, 79, 0
2, 139133, Note_on_c, 3, 62, 0
2, 139140, Note_on_c, 3, 74, 127
2, 139140, Note_on_c, 3, 67, 127
2, 139140, Note_on_c, 3, 62, 127
2, 139140, Note_on_c, 3, 59, 127
2, 139163, Note_on_c, 3, 74, 0
2, 139163, Note_on_c, 3, 59, 0
2, 139170, Note_on_c, 3, 79, 127
2, 139170, Note_on_c, 3, 62, 127
2, 139187, Note_on_c, 3, 67, 0
2, 139187, Note_on_c, 3, 62, 0
2, 139193, Note_on_c, 3, 79, 0
2, 139193, Note_on_c, 3, 62, 0
2, 139200, Note_on_c, 3, 72, 127
2, 139200, Note_on_c, 3, 69, 127
2, 139200, Note_on_c, 3, 66, 127
2, 139200, Note_on_c, 3, 57, 127
2, 139223, Note_on_c, 3, 72, 0
2, 139223, Note_on_c, 3, 57, 0
2, 139230, Note_on_c, 3, 79, 127
2, 139230, Note_on_c, 3, 62, 127
2, 139247, Note_on_c, 3, 69, 0
2, 139247, Note_on_c, 3, 66, 0
2, 139253, Note_on_c, 3, 79, 0
2, 139253, Note_on_c, 3, 62, 0
2, 139260, Note_on_c, 3, 74, 127
2, 139260, Note_on_c, 3, 67, 127
2, 139260, Note_on_c, 3, 62, 127
2, 139260, Note_on_c, 3, 59, 127
2, 139283, Note_on_c, 3, 74, 0
2, 139283, Note_on_c, 3, 59, 0
2, 139290, Note_on_c, 3, 79, 127
2, 139290, Note_on_c, 3, 62, 127
2, 139307, Note_on_c, 3, 67, 0
2, 139307, Note_on_c, 3, 62, 0
2, 139313, Note_on_c, 3, 79, 0
2, 139313, Note_on_c, 3, 62, 0
2, 139320, Note_on_c, 3, 71, 127
2, 139320, Note_on_c, 3, 67, 127
2, 139320, Note_on_c, 3, 62, 127
2, 139320, Note_on_c, 3, 55, 127
2, 139343, Note_on_c, 3, 71, 0
2, 139343, Note_on_c, 3, 55, 0
2, 139350, Note_on_c, 3, 79, 127
2, 139350, Note_on_c, 3, 62, 127
2, 139367, Note_on_c, 3, 67, 0
2, 139367, Note_on_c, 3, 62, 0
2, 139373, Note_on_c, 3, 79, 0
2, 139373, Note_on_c, 3, 62, 0
2, 139380, Note_on_c, 3, 67, 127
2, 139380, Note_on_c, 3, 62, 127
2, 139380, Note_on_c, 3, 59, 127
2, 139380, Note_on_c, 3, 53, 127
2, 139403, Note_on_c, 3, 67, 0
2, 139403, Note_on_c, 3, 53, 0
2, 139410, Note_on_c, 3, 79, 127
2, 139410, Note_on_c, 3, 62, 127
2, 139427, Note_on_c, 3, 62, 0
2, 139427, Note_on_c, 3, 59, 0
2, 139433, Note_on_c, 3, 79, 0
2, 139433, Note_on_c, 3, 62, 0
2, 139440, Note_on_c, 3, 72, 127
2, 139440, Note_on_c, 3, 64, 127
2, 139440, Note_on_c, 3, 55, 127
2, 139440, Note_on_c, 3, 52, 127
2, 139463, Note_on_c, 3, 72, 0
2, 139470, Note_on_c, 3, 74, 127
2, 139487, Note_on_c, 3, 64, 0
2, 139487, Note_on_c, 3, 55, 0
2, 139487, Note_on_c, 3, 52, 0
2, 139493, Note_on_c, 3, 74, 0
2, 139500, Note_on_c, 3, 76, 127
2, 139500, Note_on_c, 3, 67, 127
2, 139500, Note_on_c, 3, 55, 127
2, 139500, Note_on_c, 3, 60, 127
2, 139523, Note_on_c, 3, 76, 0
2, 139530, Note_on_c, 3, 74, 127
2, 139547, Note_on_c, 3, 67, 0
2, 139547, Note_on_c, 3, 55, 0
2, 139547, Note_on_c, 3, 60, 0
2, 139553, Note_on_c, 3, 74, 0
2, 139560, Note_on_c, 3, 72, 127
2, 139560, Note_on_c, 3, 69, 127
2, 139560, Note_on_c, 3, 62, 127
2, 139560, Note_on_c, 3, 54, 127
2, 139583, Note_on_c, 3, 72, 0
2, 139590, Note_on_c, 3, 74, 127
2, 139607, Note_on_c, 3, 69, 0
2, 139607, Note_on_c, 3, 62, 0
2, 139607, Note_on_c, 3, 54, 0
2, 139613, Note_on_c, 3, 74, 0
2, 139620, Note_on_c, 3, 71, 127
2, 139620, Note_on_c, 3, 67, 127
2, 139620, Note_on_c, 3, 62, 127
2, 139620, Note_on_c, 3, 55, 127
2, 139643, Note_on_c, 3, 71, 0
2, 139650, Note_on_c, 3, 72, 127
2, 139667, Note_on_c, 3, 67, 0
2, 139667, Note_on_c, 3, 62, 0
2, 139667, Note_on_c, 3, 55, 0
2, 139673, Note_on_c, 3, 72, 0
2, 139680, Note_on_c, 3, 69, 127
2, 139680, Note_on_c, 3, 64, 127
2, 139680, Note_on_c, 3, 60, 127
2, 139680, Note_on_c, 3, 57, 127
2, 139694, Note_on_c, 3, 57, 0
2, 139695, Note_on_c, 3, 55, 127
2, 139703, Note_on_c, 3, 69, 0
2, 139709, Note_on_c, 3, 55, 0
2, 139710, Note_on_c, 3, 72, 127
2, 139710, Note_on_c, 3, 57, 127
2, 139724, Note_on_c, 3, 57, 0
2, 139725, Note_on_c, 3, 55, 127
2, 139727, Note_on_c, 3, 64, 0
2, 139727, Note_on_c, 3, 60, 0
2, 139733, Note_on_c, 3, 72, 0
2, 139740, Note_on_c, 3, 71, 127
2, 139740, Note_on_c, 3, 62, 127
2, 139740, Note_on_c, 3, 57, 127
2, 139763, Note_on_c, 3, 71, 0
2, 139766, Note_on_c, 3, 55, 0
2, 139770, Note_on_c, 3, 69, 127
2, 139770, Note_on_c, 3, 54, 127
2, 139787, Note_on_c, 3, 62, 0
2, 139787, Note_on_c, 3, 57, 0
2, 139793, Note_on_c, 3, 69, 0
2, 139793, Note_on_c, 3, 54, 0
2, 139800, Note_on_c, 3, 67, 127
2, 139800, Note_on_c, 3, 62, 127
2, 139800, Note_on_c, 3, 59, 127
2, 139800, Note_on_c, 3, 55, 127
2, 139823, Note_on_c, 3, 67, 0
2, 139830, Note_on_c, 3, 69, 127
2, 139847, Note_on_c, 3, 62, 0
2, 139847, Note_on_c, 3, 59, 0
2, 139847, Note_on_c, 3, 55, 0
2, 139853, Note_on_c, 3, 69, 0
2, 139860, Note_on_c, 3, 71, 127
2, 139860, Note_on_c, 3, 62, 127
2, 139883, Note_on_c, 3, 71, 0
2, 139890, Note_on_c, 3, 69, 127
2, 139907, Note_on_c, 3, 62, 0
2, 139913, Note_on_c, 3, 69, 0
2, 139920, Note_on_c, 3, 67, 127
2, 139920, Note_on_c, 3, 60, 127
2, 139920, Note_on_c, 3, 57, 127
2, 139943, Note_on_c, 3, 67, 0
2, 139950, Note_on_c, 3, 66, 127
2, 139967, Note_on_c, 3, 60, 0
2, 139967, Note_on_c, 3, 57, 0
2, 139973, Note_on_c, 3, 66, 0
2, 139980, Note_on_c, 3, 67, 127
2, 139980, Note_on_c, 3, 62, 127
2, 139980, Note_on_c, 3, 59, 127
2, 140003, Note_on_c, 3, 67, 0
2, 140010, Note_on_c, 3, 71, 127
2, 140027, Note_on_c, 3, 62, 0
2, 140027, Note_on_c, 3, 59, 0
2, 140033, Note_on_c, 3, 71, 0
2, 140040, Note_on_c, 3, 76, 127
2, 140040, Note_on_c, 3, 59, 127
2, 140040, Note_on_c, 3, 55, 127
2, 140063, Note_on_c, 3, 76, 0
2, 140070, Note_on_c, 3, 74, 127
2, 140087, Note_on_c, 3, 59, 0
2, 140087, Note_on_c, 3, 55, 0
2, 140093, Note_on_c, 3, 74, 0
2, 140100, Note_on_c, 3, 72, 127
2, 140100, Note_on_c, 3, 64, 127
2, 140100, Note_on_c, 3, 59, 127
2, 140100, Note_on_c, 3, 43, 127
2, 140123, Note_on_c, 3, 72, 0
2, 140130, Note_on_c, 3, 71, 127
2, 140147, Note_on_c, 3, 64, 0
2, 140147, Note_on_c, 3, 59, 0
2, 140147, Note_on_c, 3, 43, 0
2, 140153, Note_on_c, 3, 71, 0
2, 140160, Note_on_c, 3, 69, 127
2, 140160, Note_on_c, 3, 64, 127
2, 140160, Note_on_c, 3, 60, 127
2, 140160, Note_on_c, 3, 45, 127
2, 140183, Note_on_c, 3, 69, 0
2, 140190, Note_on_c, 3, 71, 127
2, 140207, Note_on_c, 3, 64, 0
2, 140207, Note_on_c, 3, 60, 0
2, 140207, Note_on_c, 3, 45, 0
2, 140213, Note_on_c, 3, 71, 0
2, 140220, Note_on_c, 3, 72, 127
2, 140220, Note_on_c, 3, 64, 127
2, 140243, Note_on_c, 3, 72, 0
2, 140250, Note_on_c, 3, 71, 127
2, 140267, Note_on_c, 3, 64, 0
2, 140273, Note_on_c, 3, 71, 0
2, 140280, Note_on_c, 3, 69, 127
2, 140280, Note_on_c, 3, 62, 127
2, 140280, Note_on_c, 3, 59, 127
2, 140303, Note_on_c, 3, 69, 0
2, 140310, Note_on_c, 3, 68, 127
2, 140327, Note_on_c, 3, 62, 0
2, 140327, Note_on_c, 3, 59, 0
2, 140333, Note_on_c, 3, 68, 0
2, 140340, Note_on_c, 3, 69, 127
2, 140340, Note_on_c, 3, 64, 127
2, 140340, Note_on_c, 3, 60, 127
2, 140363, Note_on_c, 3, 69, 0
2, 140370, Note_on_c, 3, 72, 127
2, 140387, Note_on_c, 3, 64, 0
2, 140387, Note_on_c, 3, 60, 0
2, 140393, Note_on_c, 3, 72, 0
2, 140400, Note_on_c, 3, 78, 127
2, 140400, Note_on_c, 3, 60, 127
2, 140400, Note_on_c, 3, 57, 127
2, 140423, Note_on_c, 3, 78, 0
2, 140430, Note_on_c, 3, 76, 127
2, 140447, Note_on_c, 3, 60, 0
2, 140447, Note_on_c, 3, 57, 0
2, 140453, Note_on_c, 3, 76, 0
2, 140460, Note_on_c, 3, 74, 127
2, 140460, Note_on_c, 3, 66, 127
2, 140460, Note_on_c, 3, 60, 127
2, 140460, Note_on_c, 3, 45, 127
2, 140483, Note_on_c, 3, 74, 0
2, 140490, Note_on_c, 3, 72, 127
2, 140507, Note_on_c, 3, 66, 0
2, 140507, Note_on_c, 3, 60, 0
2, 140507, Note_on_c, 3, 45, 0
2, 140513, Note_on_c, 3, 72, 0
2, 140520, Note_on_c, 3, 71, 127
2, 140520, Note_on_c, 3, 67, 127
2, 140520, Note_on_c, 3, 62, 127
2, 140520, Note_on_c, 3, 47, 127
2, 140543, Note_on_c, 3, 71, 0
2, 140550, Note_on_c, 3, 72, 127
2, 140567, Note_on_c, 3, 67, 0
2, 140567, Note_on_c, 3, 62, 0
2, 140567, Note_on_c, 3, 47, 0
2, 140573, Note_on_c, 3, 72, 0
2, 140580, Note_on_c, 3, 74, 127
2, 140580, Note_on_c, 3, 59, 127
2, 140603, Note_on_c, 3, 74, 0
2, 140610, Note_on_c, 3, 72, 127
2, 140627, Note_on_c, 3, 59, 0
2, 140633, Note_on_c, 3, 72, 0
2, 140640, Note_on_c, 3, 71, 127
2, 140640, Note_on_c, 3, 66, 127
2, 140640, Note_on_c, 3, 60, 127
2, 140663, Note_on_c, 3, 71, 0
2, 140670, Note_on_c, 3, 69, 127
2, 140687, Note_on_c, 3, 66, 0
2, 140687, Note_on_c, 3, 60, 0
2, 140693, Note_on_c, 3, 69, 0
2, 140700, Note_on_c, 3, 71, 127
2, 140700, Note_on_c, 3, 67, 127
2, 140700, Note_on_c, 3, 62, 127
2, 140723, Note_on_c, 3, 71, 0
2, 140730, Note_on_c, 3, 74, 127
2, 140747, Note_on_c, 3, 67, 0
2, 140747, Note_on_c, 3, 62, 0
2, 140753, Note_on_c, 3, 74, 0
2, 140760, Note_on_c, 3, 79, 127
2, 140760, Note_on_c, 3, 62, 127
2, 140760, Note_on_c, 3, 59, 127
2, 140783, Note_on_c, 3, 79, 0
2, 140790, Note_on_c, 3, 77, 127
2, 140807, Note_on_c, 3, 62, 0
2, 140807, Note_on_c, 3, 59, 0
2, 140813, Note_on_c, 3, 77, 0
2, 140820, Note_on_c, 3, 76, 127
2, 140820, Note_on_c, 3, 67, 127
2, 140820, Note_on_c, 3, 62, 127
2, 140820, Note_on_c, 3, 47, 127
2, 140843, Note_on_c, 3, 76, 0
2, 140850, Note_on_c, 3, 74, 127
2, 140867, Note_on_c, 3, 67, 0
2, 140867, Note_on_c, 3, 62, 0
2, 140867, Note_on_c, 3, 47, 0
2, 140873, Note_on_c, 3, 74, 0
2, 140880, Note_on_c, 3, 72, 127
2, 140880, Note_on_c, 3, 67, 127
2, 140880, Note_on_c, 3, 64, 127
2, 140880, Note_on_c, 3, 48, 127
2, 140903, Note_on_c, 3, 72, 0
2, 140910, Note_on_c, 3, 74, 127
2, 140927, Note_on_c, 3, 67, 0
2, 140927, Note_on_c, 3, 64, 0
2, 140927, Note_on_c, 3, 48, 0
2, 140933, Note_on_c, 3, 74, 0
2, 140940, Note_on_c, 3, 76, 127
2, 140940, Note_on_c, 3, 67, 127
2, 140963, Note_on_c, 3, 76, 0
2, 140970, Note_on_c, 3, 74, 127
2, 140987, Note_on_c, 3, 67, 0
2, 140993, Note_on_c, 3, 74, 0
2, 141000, Note_on_c, 3, 72, 127
2, 141000, Note_on_c, 3, 65, 127
2, 141000, Note_on_c, 3, 62, 127
2, 141023, Note_on_c, 3, 72, 0
2, 141030, Note_on_c, 3, 71, 127
2, 141047, Note_on_c, 3, 65, 0
2, 141047, Note_on_c, 3, 62, 0
2, 141053, Note_on_c, 3, 71, 0
2, 141060, Note_on_c, 3, 72, 127
2, 141060, Note_on_c, 3, 67, 127
2, 141060, Note_on_c, 3, 64, 127
2, 141083, Note_on_c, 3, 72, 0
2, 141090, Note_on_c, 3, 76, 127
2, 141107, Note_on_c, 3, 67, 0
2, 141107, Note_on_c, 3, 64, 0
2, 141113, Note_on_c, 3, 76, 0
2, 141120, Note_on_c, 3, 81, 127
2, 141120, Note_on_c, 3, 64, 127
2, 141120, Note_on_c, 3, 60, 127
2, 141143, Note_on_c, 3, 81, 0
2, 141150, Note_on_c, 3, 79, 127
2, 141167, Note_on_c, 3, 64, 0
2, 141167, Note_on_c, 3, 60, 0
2, 141173, Note_on_c, 3, 79, 0
2, 141180, Note_on_c, 3, 78, 127
2, 141180, Note_on_c, 3, 69, 127
2, 141180, Note_on_c, 3, 64, 127
2, 141180, Note_on_c, 3, 48, 127
2, 141203, Note_on_c, 3, 78, 0
2, 141210, Note_on_c, 3, 76, 127
2, 141227, Note_on_c, 3, 69, 0
2, 141227, Note_on_c, 3, 64, 0
2, 141227, Note_on_c, 3, 48, 0
2, 141233, Note_on_c, 3, 76, 0
2, 141240, Note_on_c, 3, 74, 127
2, 141240, Note_on_c, 3, 69, 127
2, 141240, Note_on_c, 3, 66, 127
2, 141240, Note_on_c, 3, 60, 127
2, 141263, Note_on_c, 3, 66, 0
2, 141270, Note_on_c, 3, 64, 127
2, 141287, Note_on_c, 3, 74, 0
2, 141287, Note_on_c, 3, 69, 0
2, 141287, Note_on_c, 3, 60, 0
2, 141293, Note_on_c, 3, 64, 0
2, 141300, Note_on_c, 3, 62, 127
2, 141323, Note_on_c, 3, 62, 0
2, 141330, Note_on_c, 3, 60, 127
2, 141353, Note_on_c, 3, 60, 0
2, 141360, Note_on_c, 3, 74, 127
2, 141360, Note_on_c, 3, 66, 127
2, 141360, Note_on_c, 3, 59, 127
2, 141360, Note_on_c, 3, 60, 127
2, 141383, Note_on_c, 3, 59, 0
2, 141390, Note_on_c, 3, 57, 127
2, 141407, Note_on_c, 3, 74, 0
2, 141407, Note_on_c, 3, 66, 0
2, 141407, Note_on_c, 3, 60, 0
2, 141413, Note_on_c, 3, 57, 0
2, 141420, Note_on_c, 3, 74, 127
2, 141420, Note_on_c, 3, 67, 127
2, 141420, Note_on_c, 3, 55, 127
2, 141420, Note_on_c, 3, 59, 127
2, 141443, Note_on_c, 3, 55, 0
2, 141450, Note_on_c, 3, 54, 127
2, 141467, Note_on_c, 3, 74, 0
2, 141467, Note_on_c, 3, 67, 0
2, 141467, Note_on_c, 3, 59, 0
2, 141473, Note_on_c, 3, 54, 0
2, 141480, Note_on_c, 3, 52, 127
2, 141503, Note_on_c, 3, 52, 0
2, 141510, Note_on_c, 3, 50, 127
2, 141533, Note_on_c, 3, 50, 0
2, 141540, Note_on_c, 3, 74, 127
2, 141540, Note_on_c, 3, 67, 127
2, 141540, Note_on_c, 3, 48, 127
2, 141540, Note_on_c, 3, 55, 127
2, 141563, Note_on_c, 3, 48, 0
2, 141570, Note_on_c, 3, 47, 127
2, 141587, Note_on_c, 3, 74, 0
2, 141587, Note_on_c, 3, 67, 0
2, 141587, Note_on_c, 3, 55, 0
2, 141593, Note_on_c, 3, 47, 0
2, 141600, Note_on_c, 3, 72, 127
2, 141600, Note_on_c, 3, 64, 127
2, 141600, Note_on_c, 3, 45, 127
2, 141600, Note_on_c, 3, 55, 127
2, 141623, Note_on_c, 3, 45, 0
2, 141630, Note_on_c, 3, 43, 127
2, 141647, Note_on_c, 3, 64, 0
2, 141647, Note_on_c, 3, 55, 0
2, 141653, Note_on_c, 3, 43, 0
2, 141660, Note_on_c, 3, 62, 127
2, 141660, Note_on_c, 3, 45, 127
2, 141660, Note_on_c, 3, 54, 127
2, 141683, Note_on_c, 3, 45, 0
2, 141690, Note_on_c, 3, 42, 127
2, 141695, Note_on_c, 3, 72, 0
2, 141707, Note_on_c, 3, 54, 0
2, 141713, Note_on_c, 3, 42, 0
2, 141720, Note_on_c, 3, 71, 127
2, 141720, Note_on_c, 3, 43, 127
2, 141720, Note_on_c, 3, 55, 127
2, 141755, Note_on_c, 3, 62, 0
2, 141767, Note_on_c, 3, 71, 0
2, 141767, Note_on_c, 3, 43, 0
2, 141780, Note_on_c, 3, 69, 127
2, 141780, Note_on_c, 3, 64, 127
2, 141780, Note_on_c, 3, 48, 127
2, 141803, Note_on_c, 3, 48, 0
2, 141810, Note_on_c, 3, 47, 127
2, 141821, Note_on_c, 3, 55, 0
2, 141821, Note_on_c, 3, 47, 0
2, 141825, Note_on_c, 3, 48, 127
2, 141827, Note_on_c, 3, 69, 0
2, 141827, Note_on_c, 3, 64, 0
2, 141836, Note_on_c, 3, 48, 0
2, 141840, Note_on_c, 3, 62, 127
2, 141840, Note_on_c, 3, 50, 127
2, 141840, Note_on_c, 3, 54, 127
2, 141870, Note_on_c, 3, 71, 127
2, 141887, Note_on_c, 3, 50, 0
2, 141893, Note_on_c, 3, 71, 0
2, 141900, Note_on_c, 3, 67, 127
2, 141900, Note_on_c, 3, 38, 127
2, 141923, Note_on_c, 3, 67, 0
2, 141930, Note_on_c, 3, 69, 127
2, 141935, Note_on_c, 3, 62, 0
2, 141935, Note_on_c, 3, 54, 0
2, 141947, Note_on_c, 3, 38, 0
2, 141953, Note_on_c, 3, 69, 0
2, 141960, Note_on_c, 3, 71, 127
2, 141960, Note_on_c, 3, 43, 127
2, 141960, Note_on_c, 3, 55, 127
2, 141990, Note_on_c, 3, 62, 127
2, 142007, Note_on_c, 3, 71, 0
2, 142007, Note_on_c, 3, 43, 0
2, 142007, Note_on_c, 3, 55, 0
2, 142013, Note_on_c, 3, 62, 0
2, 142020, Note_on_c, 3, 67, 127
2, 142043, Note_on_c, 3, 67, 0
2, 142050, Note_on_c, 3, 65, 127
2, 142073, Note_on_c, 3, 65, 0
2, 142080, Note_on_c, 3, 64, 127
2, 142080, Note_on_c, 3, 55, 127
2, 142103, Note_on_c, 3, 64, 0
2, 142110, Note_on_c, 3, 62, 127
2, 142127, Note_on_c, 3, 55, 0
2, 142133, Note_on_c, 3, 62, 0
2, 142140, Note_on_c, 3, 60, 127
2, 142140, Note_on_c, 3, 57, 127
2, 142170, Note_on_c, 3, 71, 127
2, 142187, Note_on_c, 3, 60, 0
2, 142187, Note_on_c, 3, 57, 0
2, 142193, Note_on_c, 3, 71, 0
2, 142200, Note_on_c, 3, 69, 127
2, 142223, Note_on_c, 3, 69, 0
2, 142230, Note_on_c, 3, 67, 127
2, 142253, Note_on_c, 3, 67, 0
2, 142260, Note_on_c, 3, 65, 127
2, 142260, Note_on_c, 3, 45, 127
2, 142283, Note_on_c, 3, 65, 0
2, 142290, Note_on_c, 3, 64, 127
2, 142307, Note_on_c, 3, 45, 0
2, 142313, Note_on_c, 3, 64, 0
2, 142320, Note_on_c, 3, 65, 127
2, 142320, Note_on_c, 3, 50, 127
2, 142350, Note_on_c, 3, 60, 127
2, 142367, Note_on_c, 3, 65, 0
2, 142367, Note_on_c, 3, 50, 0
2, 142373, Note_on_c, 3, 60, 0
2, 142380, Note_on_c, 3, 65, 127
2, 142403, Note_on_c, 3, 65, 0
2, 142410, Note_on_c, 3, 64, 127
2, 142433, Note_on_c, 3, 64, 0
2, 142440, Note_on_c, 3, 62, 127
2, 142440, Note_on_c, 3, 50, 127
2, 142463, Note_on_c, 3, 62, 0
2, 142470, Note_on_c, 3, 60, 127
2, 142487, Note_on_c, 3, 50, 0
2, 142493, Note_on_c, 3, 60, 0
2, 142500, Note_on_c, 3, 59, 127
2, 142500, Note_on_c, 3, 55, 127
2, 142530, Note_on_c, 3, 69, 127
2, 142547, Note_on_c, 3, 59, 0
2, 142547, Note_on_c, 3, 55, 0
2, 142553, Note_on_c, 3, 69, 0
2, 142560, Note_on_c, 3, 67, 127
2, 142583, Note_on_c, 3, 67, 0
2, 142590, Note_on_c, 3, 65, 127
2, 142613, Note_on_c, 3, 65, 0
2, 142620, Note_on_c, 3, 64, 127
2, 142620, Note_on_c, 3, 59, 127
2, 142620, Note_on_c, 3, 55, 127
2, 142643, Note_on_c, 3, 64, 0
2, 142650, Note_on_c, 3, 62, 127
2, 142667, Note_on_c, 3, 59, 0
2, 142667, Note_on_c, 3, 55, 0
2, 142673, Note_on_c, 3, 62, 0
2, 142680, Note_on_c, 3, 64, 127
2, 142680, Note_on_c, 3, 60, 127
2, 142710, Note_on_c, 3, 74, 127
2, 142727, Note_on_c, 3, 64, 0
2, 142727, Note_on_c, 3, 60, 0
2, 142733, Note_on_c, 3, 74, 0
2, 142740, Note_on_c, 3, 72, 127
2, 142763, Note_on_c, 3, 72, 0
2, 142770, Note_on_c, 3, 70, 127
2, 142793, Note_on_c, 3, 70, 0
2, 142800, Note_on_c, 3, 69, 127
2, 142800, Note_on_c, 3, 64, 127
2, 142800, Note_on_c, 3, 60, 127
2, 142823, Note_on_c, 3, 69, 0
2, 142830, Note_on_c, 3, 67, 127
2, 142847, Note_on_c, 3, 64, 0
2, 142847, Note_on_c, 3, 60, 0
2, 142853, Note_on_c, 3, 67, 0
2, 142860, Note_on_c, 3, 69, 127
2, 142860, Note_on_c, 3, 65, 127
2, 142890, Note_on_c, 3, 79, 127
2, 142907, Note_on_c, 3, 69, 0
2, 142907, Note_on_c, 3, 65, 0
2, 142913, Note_on_c, 3, 79, 0
2, 142920, Note_on_c, 3, 77, 127
2, 142943, Note_on_c, 3, 77, 0
2, 142950, Note_on_c, 3, 76, 127
2, 142973, Note_on_c, 3, 76, 0
2, 142980, Note_on_c, 3, 74, 127
2, 142980, Note_on_c, 3, 69, 127
2, 142980, Note_on_c, 3, 65, 127
2, 143003, Note_on_c, 3, 74, 0
2, 143010, Note_on_c, 3, 72, 127
2, 143027, Note_on_c, 3, 69, 0
2, 143027, Note_on_c, 3, 65, 0
2, 143033, Note_on_c, 3, 72, 0
2, 143040, Note_on_c, 3, 71, 127
2, 143040, Note_on_c, 3, 71, 127
2, 143040, Note_on_c, 3, 65, 127
2, 143063, Note_on_c, 3, 71, 0
2, 143070, Note_on_c, 3, 74, 127
2, 143087, Note_on_c, 3, 71, 0
2, 143093, Note_on_c, 3, 74, 0
2, 143100, Note_on_c, 3, 79, 127
2, 143130, Note_on_c, 3, 71, 127
2, 143135, Note_on_c, 3, 65, 0
2, 143147, Note_on_c, 3, 79, 0
2, 143153, Note_on_c, 3, 71, 0
2, 143160, Note_on_c, 3, 72, 127
2, 143160, Note_on_c, 3, 64, 127
2, 143190, Note_on_c, 3, 79, 127
2, 143207, Note_on_c, 3, 72, 0
2, 143207, Note_on_c, 3, 64, 0
2, 143213, Note_on_c, 3, 79, 0
2, 143220, Note_on_c, 3, 69, 127
2, 143220, Note_on_c, 3, 65, 127
2, 143250, Note_on_c, 3, 79, 127
2, 143267, Note_on_c, 3, 69, 0
2, 143267, Note_on_c, 3, 65, 0
2, 143273, Note_on_c, 3, 79, 0
2, 143280, Note_on_c, 3, 77, 127
2, 143280, Note_on_c, 3, 62, 127
2, 143310, Note_on_c, 3, 69, 127
2, 143327, Note_on_c, 3, 77, 0
2, 143327, Note_on_c, 3, 62, 0
2, 143333, Note_on_c, 3, 69, 0
2, 143340, Note_on_c, 3, 67, 127
2, 143340, Note_on_c, 3, 59, 127
2, 143370, Note_on_c, 3, 77, 127
2, 143387, Note_on_c, 3, 67, 0
2, 143387, Note_on_c, 3, 59, 0
2, 143393, Note_on_c, 3, 77, 0
2, 143400, Note_on_c, 3, 67, 127
2, 143400, Note_on_c, 3, 60, 127
2, 143430, Note_on_c, 3, 77, 127
2, 143447, Note_on_c, 3, 67, 0
2, 143447, Note_on_c, 3, 60, 0
2, 143453, Note_on_c, 3, 77, 0
2, 143460, Note_on_c, 3, 76, 127
2, 143460, Note_on_c, 3, 48, 127
2, 143490, Note_on_c, 3, 67, 127
2, 143507, Note_on_c, 3, 76, 0
2, 143507, Note_on_c, 3, 48, 0
2, 143513, Note_on_c, 3, 67, 0
2, 143520, Note_on_c, 3, 65, 127
2, 143520, Note_on_c, 3, 45, 127
2, 143550, Note_on_c, 3, 76, 127
2, 143567, Note_on_c, 3, 65, 0
2, 143567, Note_on_c, 3, 45, 0
2, 143573, Note_on_c, 3, 76, 0
2, 143580, Note_on_c, 3, 74, 127
2, 143580, Note_on_c, 3, 47, 127
2, 143610, Note_on_c, 3, 65, 127
2, 143627, Note_on_c, 3, 74, 0
2, 143627, Note_on_c, 3, 47, 0
2, 143633, Note_on_c, 3, 65, 0
2, 143640, Note_on_c, 3, 64, 127
2, 143640, Note_on_c, 3, 48, 127
2, 143670, Note_on_c, 3, 67, 127
2, 143687, Note_on_c, 3, 64, 0
2, 143687, Note_on_c, 3, 48, 0
2, 143693, Note_on_c, 3, 67, 0
2, 143700, Note_on_c, 3, 72, 127
2, 143700, Note_on_c, 3, 52, 127
2, 143730, Note_on_c, 3, 64, 127
2, 143747, Note_on_c, 3, 72, 0
2, 143747, Note_on_c, 3, 52, 0
2, 143753, Note_on_c, 3, 64, 0
2, 143760, Note_on_c, 3, 62, 127
2, 143760, Note_on_c, 3, 53, 127
2, 143790, Note_on_c, 3, 72, 127
2, 143807, Note_on_c, 3, 62, 0
2, 143807, Note_on_c, 3, 53, 0
2, 143813, Note_on_c, 3, 72, 0
2, 143820, Note_on_c, 3, 70, 127
2, 143820, Note_on_c, 3, 55, 127
2, 143850, Note_on_c, 3, 62, 127
2, 143867, Note_on_c, 3, 70, 0
2, 143867, Note_on_c, 3, 55, 0
2, 143873, Note_on_c, 3, 62, 0
2, 143880, Note_on_c, 3, 64, 127
2, 143880, Note_on_c, 3, 48, 127
2, 143910, Note_on_c, 3, 70, 127
2, 143927, Note_on_c, 3, 48, 0
2, 143933, Note_on_c, 3, 70, 0
2, 143940, Note_on_c, 3, 69, 127
2, 143940, Note_on_c, 3, 53, 127
2, 143957, Note_on_c, 3, 64, 0
2, 143970, Note_on_c, 3, 57, 127
2, 143987, Note_on_c, 3, 53, 0
2, 143993, Note_on_c, 3, 57, 0
2, 144000, Note_on_c, 3, 62, 127
2, 144010, Note_on_c, 3, 69, 0
2, 144030, Note_on_c, 3, 69, 127
2, 144053, Note_on_c, 3, 69, 0
2, 144060, Note_on_c, 3, 67, 127
2, 144060, Note_on_c, 3, 52, 127
2, 144070, Note_on_c, 3, 62, 0
2, 144090, Note_on_c, 3, 62, 127
2, 144107, Note_on_c, 3, 52, 0
2, 144113, Note_on_c, 3, 62, 0
2, 144120, Note_on_c, 3, 60, 127
2, 144120, Note_on_c, 3, 57, 127
2, 144137, Note_on_c, 3, 67, 0
2, 144150, Note_on_c, 3, 67, 127
2, 144167, Note_on_c, 3, 57, 0
2, 144173, Note_on_c, 3, 67, 0
2, 144180, Note_on_c, 3, 65, 127
2, 144180, Note_on_c, 3, 50, 127
2, 144190, Note_on_c, 3, 60, 0
2, 144210, Note_on_c, 3, 60, 127
2, 144227, Note_on_c, 3, 50, 0
2, 144233, Note_on_c, 3, 60, 0
2, 144240, Note_on_c, 3, 59, 127
2, 144240, Note_on_c, 3, 55, 127
2, 144250, Note_on_c, 3, 65, 0
2, 144270, Note_on_c, 3, 65, 127
2, 144287, Note_on_c, 3, 59, 0
2, 144287, Note_on_c, 3, 55, 0
2, 144293, Note_on_c, 3, 65, 0
2, 144300, Note_on_c, 3, 60, 127
2, 144300, Note_on_c, 3, 48, 127
2, 144330, Note_on_c, 3, 65, 127
2, 144347, Note_on_c, 3, 60, 0
2, 144347, Note_on_c, 3, 48, 0
2, 144353, Note_on_c, 3, 65, 0
2, 144360, Note_on_c, 3, 55, 127
2, 144390, Note_on_c, 3, 64, 127
2, 144407, Note_on_c, 3, 55, 0
2, 144413, Note_on_c, 3, 64, 0
2, 144420, Note_on_c, 3, 58, 127
2, 144420, Note_on_c, 3, 48, 127
2, 144450, Note_on_c, 3, 64, 127
2, 144467, Note_on_c, 3, 58, 0
2, 144467, Note_on_c, 3, 48, 0
2, 144473, Note_on_c, 3, 64, 0
2, 144480, Note_on_c, 3, 57, 127
2, 144480, Note_on_c, 3, 53, 127
2, 144510, Note_on_c, 3, 64, 127
2, 144527, Note_on_c, 3, 53, 0
2, 144533, Note_on_c, 3, 64, 0
2, 144540, Note_on_c, 3, 62, 127
2, 144540, Note_on_c, 3, 41, 127
2, 144563, Note_on_c, 3, 62, 0
2, 144570, Note_on_c, 3, 65, 127
2, 144575, Note_on_c, 3, 57, 0
2, 144587, Note_on_c, 3, 41, 0
2, 144593, Note_on_c, 3, 65, 0
2, 144600, Note_on_c, 3, 57, 127
2, 144600, Note_on_c, 3, 57, 127
2, 144600, Note_on_c, 3, 53, 127
2, 144623, Note_on_c, 3, 57, 0
2, 144630, Note_on_c, 3, 60, 127
2, 144647, Note_on_c, 3, 57, 0
2, 144653, Note_on_c, 3, 60, 0
2, 144660, Note_on_c, 3, 59, 127
2, 144660, Note_on_c, 3, 55, 127
2, 144677, Note_on_c, 3, 53, 0
2, 144690, Note_on_c, 3, 53, 127
2, 144707, Note_on_c, 3, 59, 0
2, 144713, Note_on_c, 3, 53, 0
2, 144720, Note_on_c, 3, 52, 127
2, 144750, Note_on_c, 3, 60, 127
2, 144755, Note_on_c, 3, 55, 0
2, 144767, Note_on_c, 3, 52, 0
2, 144780, Note_on_c, 3, 57, 127
2, 144780, Note_on_c, 3, 51, 127
2, 144803, Note_on_c, 3, 57, 0
2, 144810, Note_on_c, 3, 54, 127
2, 144824, Note_on_c, 3, 60, 0
2, 144827, Note_on_c, 3, 51, 0
2, 144833, Note_on_c, 3, 54, 0
2, 144840, Note_on_c, 3, 59, 127
2, 144840, Note_on_c, 3, 55, 127
2, 144840, Note_on_c, 3, 50, 127
2, 144840, Note_on_c, 3, 43, 127
2, 144887, Note_on_c, 3, 59, 0
2, 144887, Note_on_c, 3, 55, 0
2, 144887, Note_on_c, 3, 50, 0
2, 144887, Note_on_c, 3, 43, 0
2, 144900, Note_on_c, 3, 47, 127
2, 144923, Note_on_c, 3, 47, 0
2, 144930, Note_on_c, 3, 45, 127
2, 144953, Note_on_c, 3, 45, 0
2, 144960, Note_on_c, 3, 47, 127
2, 145007, Note_on_c, 3, 47, 0
2, 145020, Note_on_c, 3, 43, 127
2, 145050, Note_on_c, 3, 60, 127
2, 145067, Note_on_c, 3, 43, 0
2, 145073, Note_on_c, 3, 60, 0
2, 145080, Note_on_c, 3, 62, 127
2, 145080, Note_on_c, 3, 47, 127
2, 145110, Note_on_c, 3, 57, 127
2, 145127, Note_on_c, 3, 62, 0
2, 145127, Note_on_c, 3, 47, 0
2, 145133, Note_on_c, 3, 57, 0
2, 145140, Note_on_c, 3, 59, 127
2, 145140, Note_on_c, 3, 43, 127
2, 145170, Note_on_c, 3, 53, 127
2, 145187, Note_on_c, 3, 59, 0
2, 145187, Note_on_c, 3, 43, 0
2, 145193, Note_on_c, 3, 53, 0
2, 145200, Note_on_c, 3, 60, 127
2, 145200, Note_on_c, 3, 55, 127
2, 145200, Note_on_c, 3, 52, 127
2, 145200, Note_on_c, 3, 48, 127
2, 145223, Note_on_c, 3, 60, 0
2, 145230, Note_on_c, 3, 65, 127
2, 145247, Note_on_c, 3, 55, 0
2, 145247, Note_on_c, 3, 52, 0
2, 145247, Note_on_c, 3, 48, 0
2, 145253, Note_on_c, 3, 65, 0
2, 145260, Note_on_c, 3, 67, 127
2, 145290, Note_on_c, 3, 62, 127
2, 145307, Note_on_c, 3, 67, 0
2, 145313, Note_on_c, 3, 62, 0
2, 145320, Note_on_c, 3, 64, 127
2, 145350, Note_on_c, 3, 59, 127
2, 145367, Note_on_c, 3, 64, 0
2, 145373, Note_on_c, 3, 59, 0
2, 145380, Note_on_c, 3, 60, 127
2, 145410, Note_on_c, 3, 67, 127
2, 145427, Note_on_c, 3, 60, 0
2, 145433, Note_on_c, 3, 67, 0
2, 145440, Note_on_c, 3, 69, 127
2, 145470, Note_on_c, 3, 64, 127
2, 145487, Note_on_c, 3, 69, 0
2, 145493, Note_on_c, 3, 64, 0
2, 145500, Note_on_c, 3, 66, 127
2, 145500, Note_on_c, 3, 48, 127
2, 145530, Note_on_c, 3, 62, 127
2, 145547, Note_on_c, 3, 66, 0
2, 145547, Note_on_c, 3, 48, 0
2, 145560, Note_on_c, 3, 71, 127
2, 145560, Note_on_c, 3, 67, 127
2, 145560, Note_on_c, 3, 47, 127
2, 145583, Note_on_c, 3, 71, 0
2, 145590, Note_on_c, 3, 72, 127
2, 145604, Note_on_c, 3, 62, 0
2, 145607, Note_on_c, 3, 67, 0
2, 145607, Note_on_c, 3, 47, 0
2, 145613, Note_on_c, 3, 72, 0
2, 145620, Note_on_c, 3, 71, 127
2, 145620, Note_on_c, 3, 50, 127
2, 145643, Note_on_c, 3, 71, 0
2, 145643, Note_on_c, 3, 50, 0
2, 145650, Note_on_c, 3, 69, 127
2, 145650, Note_on_c, 3, 48, 127
2, 145673, Note_on_c, 3, 69, 0
2, 145673, Note_on_c, 3, 48, 0
2, 145680, Note_on_c, 3, 71, 127
2, 145680, Note_on_c, 3, 50, 127
2, 145703, Note_on_c, 3, 71, 0
2, 145710, Note_on_c, 3, 66, 127
2, 145727, Note_on_c, 3, 50, 0
2, 145733, Note_on_c, 3, 66, 0
2, 145740, Note_on_c, 3, 67, 127
2, 145740, Note_on_c, 3, 47, 127
2, 145763, Note_on_c, 3, 67, 0
2, 145770, Note_on_c, 3, 69, 127
2, 145787, Note_on_c, 3, 47, 0
2, 145793, Note_on_c, 3, 69, 0
2, 145800, Note_on_c, 3, 71, 127
2, 145800, Note_on_c, 3, 50, 127
2, 145830, Note_on_c, 3, 66, 127
2, 145847, Note_on_c, 3, 71, 0
2, 145847, Note_on_c, 3, 50, 0
2, 145853, Note_on_c, 3, 66, 0
2, 145860, Note_on_c, 3, 67, 127
2, 145860, Note_on_c, 3, 47, 127
2, 145890, Note_on_c, 3, 62, 127
2, 145907, Note_on_c, 3, 47, 0
2, 145913, Note_on_c, 3, 62, 0
2, 145920, Note_on_c, 3, 59, 127
2, 145920, Note_on_c, 3, 52, 127
2, 145950, Note_on_c, 3, 78, 127
2, 145961, Note_on_c, 3, 67, 0
2, 145967, Note_on_c, 3, 59, 0
2, 145967, Note_on_c, 3, 52, 0
2, 145973, Note_on_c, 3, 78, 0
2, 145980, Note_on_c, 3, 79, 127
2, 146010, Note_on_c, 3, 74, 127
2, 146027, Note_on_c, 3, 79, 0
2, 146033, Note_on_c, 3, 74, 0
2, 146040, Note_on_c, 3, 76, 127
2, 146070, Note_on_c, 3, 71, 127
2, 146087, Note_on_c, 3, 76, 0
2, 146093, Note_on_c, 3, 71, 0
2, 146100, Note_on_c, 3, 72, 127
2, 146130, Note_on_c, 3, 74, 127
2, 146147, Note_on_c, 3, 72, 0
2, 146153, Note_on_c, 3, 74, 0
2, 146160, Note_on_c, 3, 76, 127
2, 146190, Note_on_c, 3, 71, 127
2, 146213, Note_on_c, 3, 71, 0
2, 146220, Note_on_c, 3, 72, 127
2, 146220, Note_on_c, 3, 52, 127
2, 146250, Note_on_c, 3, 66, 127
2, 146267, Note_on_c, 3, 52, 0
2, 146273, Note_on_c, 3, 66, 0
2, 146280, Note_on_c, 3, 67, 127
2, 146280, Note_on_c, 3, 48, 127
2, 146291, Note_on_c, 3, 76, 0
2, 146310, Note_on_c, 3, 74, 127
2, 146321, Note_on_c, 3, 72, 0
2, 146327, Note_on_c, 3, 67, 0
2, 146327, Note_on_c, 3, 48, 0
2, 146333, Note_on_c, 3, 74, 0
2, 146340, Note_on_c, 3, 72, 127
2, 146340, Note_on_c, 3, 52, 127
2, 146363, Note_on_c, 3, 72, 0
2, 146363, Note_on_c, 3, 52, 0
2, 146370, Note_on_c, 3, 71, 127
2, 146370, Note_on_c, 3, 50, 127
2, 146393, Note_on_c, 3, 71, 0
2, 146393, Note_on_c, 3, 50, 0
2, 146400, Note_on_c, 3, 72, 127
2, 146400, Note_on_c, 3, 52, 127
2, 146423, Note_on_c, 3, 72, 0
2, 146430, Note_on_c, 3, 67, 127
2, 146447, Note_on_c, 3, 52, 0
2, 146453, Note_on_c, 3, 67, 0
2, 146460, Note_on_c, 3, 69, 127
2, 146460, Note_on_c, 3, 48, 127
2, 146483, Note_on_c, 3, 69, 0
2, 146490, Note_on_c, 3, 71, 127
2, 146507, Note_on_c, 3, 48, 0
2, 146513, Note_on_c, 3, 71, 0
2, 146520, Note_on_c, 3, 72, 127
2, 146520, Note_on_c, 3, 52, 127
2, 146550, Note_on_c, 3, 67, 127
2, 146567, Note_on_c, 3, 72, 0
2, 146567, Note_on_c, 3, 52, 0
2, 146573, Note_on_c, 3, 67, 0
2, 146580, Note_on_c, 3, 69, 127
2, 146580, Note_on_c, 3, 48, 127
2, 146610, Note_on_c, 3, 66, 127
2, 146627, Note_on_c, 3, 69, 0
2, 146627, Note_on_c, 3, 48, 0
2, 146633, Note_on_c, 3, 66, 0
2, 146640, Note_on_c, 3, 67, 127
2, 146640, Note_on_c, 3, 62, 127
2, 146640, Note_on_c, 3, 55, 127
2, 146670, Note_on_c, 3, 72, 127
2, 146687, Note_on_c, 3, 67, 0
2, 146687, Note_on_c, 3, 62, 0
2, 146687, Note_on_c, 3, 55, 0
2, 146693, Note_on_c, 3, 72, 0
2, 146700, Note_on_c, 3, 74, 127
2, 146730, Note_on_c, 3, 69, 127
2, 146747, Note_on_c, 3, 74, 0
2, 146753, Note_on_c, 3, 69, 0
2, 146760, Note_on_c, 3, 71, 127
2, 146790, Note_on_c, 3, 66, 127
2, 146807, Note_on_c, 3, 71, 0
2, 146813, Note_on_c, 3, 66, 0
2, 146820, Note_on_c, 3, 67, 127
2, 146850, Note_on_c, 3, 69, 127
2, 146867, Note_on_c, 3, 67, 0
2, 146873, Note_on_c, 3, 69, 0
2, 146880, Note_on_c, 3, 71, 127
2, 146910, Note_on_c, 3, 66, 127
2, 146933, Note_on_c, 3, 66, 0
2, 146940, Note_on_c, 3, 67, 127
2, 146940, Note_on_c, 3, 55, 127
2, 146970, Note_on_c, 3, 62, 127
2, 146975, Note_on_c, 3, 71, 0
2, 146987, Note_on_c, 3, 67, 0
2, 146987, Note_on_c, 3, 55, 0
2, 146993, Note_on_c, 3, 62, 0
2, 147000, Note_on_c, 3, 72, 127
2, 147000, Note_on_c, 3, 67, 127
2, 147000, Note_on_c, 3, 64, 127
2, 147000, Note_on_c, 3, 52, 127
2, 147023, Note_on_c, 3, 52, 0
2, 147030, Note_on_c, 3, 55, 127
2, 147047, Note_on_c, 3, 72, 0
2, 147047, Note_on_c, 3, 67, 0
2, 147047, Note_on_c, 3, 64, 0
2, 147053, Note_on_c, 3, 55, 0
2, 147060, Note_on_c, 3, 48, 127
2, 147083, Note_on_c, 3, 48, 0
2, 147090, Note_on_c, 3, 55, 127
2, 147113, Note_on_c, 3, 55, 0
2, 147120, Note_on_c, 3, 71, 127
2, 147120, Note_on_c, 3, 65, 127
2, 147120, Note_on_c, 3, 62, 127
2, 147120, Note_on_c, 3, 50, 127
2, 147143, Note_on_c, 3, 50, 0
2, 147150, Note_on_c, 3, 55, 127
2, 147167, Note_on_c, 3, 71, 0
2, 147167, Note_on_c, 3, 65, 0
2, 147167, Note_on_c, 3, 62, 0
2, 147173, Note_on_c, 3, 55, 0
2, 147180, Note_on_c, 3, 72, 127
2, 147180, Note_on_c, 3, 67, 127
2, 147180, Note_on_c, 3, 60, 127
2, 147180, Note_on_c, 3, 52, 127
2, 147203, Note_on_c, 3, 52, 0
2, 147210, Note_on_c, 3, 55, 127
2, 147227, Note_on_c, 3, 72, 0
2, 147227, Note_on_c, 3, 67, 0
2, 147227, Note_on_c, 3, 60, 0
2, 147233, Note_on_c, 3, 55, 0
2, 147240, Note_on_c, 3, 71, 127
2, 147240, Note_on_c, 3, 65, 127
2, 147240, Note_on_c, 3, 62, 127
2, 147240, Note_on_c, 3, 50, 127
2, 147263, Note_on_c, 3, 50, 0
2, 147270, Note_on_c, 3, 55, 127
2, 147287, Note_on_c, 3, 71, 0
2, 147287, Note_on_c, 3, 65, 0
2, 147287, Note_on_c, 3, 62, 0
2, 147293, Note_on_c, 3, 55, 0
2, 147300, Note_on_c, 3, 72, 127
2, 147300, Note_on_c, 3, 67, 127
2, 147300, Note_on_c, 3, 60, 127
2, 147300, Note_on_c, 3, 52, 127
2, 147323, Note_on_c, 3, 52, 0
2, 147330, Note_on_c, 3, 55, 127
2, 147347, Note_on_c, 3, 72, 0
2, 147347, Note_on_c, 3, 67, 0
2, 147347, Note_on_c, 3, 60, 0
2, 147353, Note_on_c, 3, 55, 0
2, 147360, Note_on_c, 3, 74, 127
2, 147360, Note_on_c, 3, 69, 127
2, 147360, Note_on_c, 3, 57, 127
2, 147360, Note_on_c, 3, 53, 127
2, 147383, Note_on_c, 3, 53, 0
2, 147390, Note_on_c, 3, 55, 127
2, 147407, Note_on_c, 3, 74, 0
2, 147407, Note_on_c, 3, 69, 0
2, 147407, Note_on_c, 3, 57, 0
2, 147413, Note_on_c, 3, 55, 0
2, 147420, Note_on_c, 3, 72, 127
2, 147420, Note_on_c, 3, 67, 127
2, 147420, Note_on_c, 3, 60, 127
2, 147420, Note_on_c, 3, 52, 127
2, 147443, Note_on_c, 3, 52, 0
2, 147450, Note_on_c, 3, 55, 127
2, 147467, Note_on_c, 3, 72, 0
2, 147467, Note_on_c, 3, 67, 0
2, 147467, Note_on_c, 3, 60, 0
2, 147473, Note_on_c, 3, 55, 0
2, 147480, Note_on_c, 3, 71, 127
2, 147480, Note_on_c, 3, 65, 127
2, 147480, Note_on_c, 3, 62, 127
2, 147480, Note_on_c, 3, 50, 127
2, 147503, Note_on_c, 3, 50, 0
2, 147510, Note_on_c, 3, 55, 127
2, 147527, Note_on_c, 3, 71, 0
2, 147527, Note_on_c, 3, 65, 0
2, 147527, Note_on_c, 3, 62, 0
2, 147533, Note_on_c, 3, 55, 0
2, 147540, Note_on_c, 3, 72, 127
2, 147540, Note_on_c, 3, 67, 127
2, 147540, Note_on_c, 3, 60, 127
2, 147540, Note_on_c, 3, 52, 127
2, 147563, Note_on_c, 3, 52, 0
2, 147570, Note_on_c, 3, 55, 127
2, 147587, Note_on_c, 3, 72, 0
2, 147587, Note_on_c, 3, 67, 0
2, 147587, Note_on_c, 3, 60, 0
2, 147593, Note_on_c, 3, 55, 0
2, 147600, Note_on_c, 3, 48, 127
2, 147623, Note_on_c, 3, 48, 0
2, 147630, Note_on_c, 3, 55, 127
2, 147653, Note_on_c, 3, 55, 0
2, 147660, Note_on_c, 3, 46, 127
2, 147683, Note_on_c, 3, 46, 0
2, 147690, Note_on_c, 3, 55, 127
2, 147713, Note_on_c, 3, 55, 0
2, 147720, Note_on_c, 3, 45, 127
2, 147750, Note_on_c, 3, 67, 127
2, 147767, Note_on_c, 3, 45, 0
2, 147773, Note_on_c, 3, 67, 0
2, 147780, Note_on_c, 3, 69, 127
2, 147780, Note_on_c, 3, 53, 127
2, 147803, Note_on_c, 3, 69, 0
2, 147810, Note_on_c, 3, 65, 127
2, 147827, Note_on_c, 3, 53, 0
2, 147833, Note_on_c, 3, 65, 0
2, 147840, Note_on_c, 3, 67, 127
2, 147840, Note_on_c, 3, 47, 127
2, 147870, Note_on_c, 3, 62, 127
2, 147887, Note_on_c, 3, 47, 0
2, 147893, Note_on_c, 3, 62, 0
2, 147900, Note_on_c, 3, 64, 127
2, 147900, Note_on_c, 3, 48, 127
2, 147930, Note_on_c, 3, 55, 127
2, 147941, Note_on_c, 3, 67, 0
2, 147947, Note_on_c, 3, 64, 0
2, 147947, Note_on_c, 3, 48, 0
2, 147953, Note_on_c, 3, 55, 0
2, 147960, Note_on_c, 3, 65, 127
2, 147960, Note_on_c, 3, 62, 127
2, 147960, Note_on_c, 3, 57, 127
2, 147960, Note_on_c, 3, 50, 127
2, 147974, Note_on_c, 3, 50, 0
2, 147975, Note_on_c, 3, 48, 127
2, 147983, Note_on_c, 3, 57, 0
2, 147989, Note_on_c, 3, 48, 0
2, 147990, Note_on_c, 3, 53, 127
2, 147990, Note_on_c, 3, 50, 127
2, 148004, Note_on_c, 3, 50, 0
2, 148005, Note_on_c, 3, 48, 127
2, 148013, Note_on_c, 3, 53, 0
2, 148020, Note_on_c, 3, 55, 127
2, 148046, Note_on_c, 3, 48, 0
2, 148050, Note_on_c, 3, 50, 127
2, 148050, Note_on_c, 3, 47, 127
2, 148073, Note_on_c, 3, 50, 0
2, 148073, Note_on_c, 3, 47, 0
2, 148080, Note_on_c, 3, 52, 127
2, 148080, Note_on_c, 3, 48, 127
2, 148091, Note_on_c, 3, 65, 0
2, 148091, Note_on_c, 3, 62, 0
2, 148097, Note_on_c, 3, 55, 0
2, 148103, Note_on_c, 3, 52, 0
2, 148110, Note_on_c, 3, 65, 127
2, 148127, Note_on_c, 3, 48, 0
2, 148133, Note_on_c, 3, 65, 0
2, 148140, Note_on_c, 3, 67, 127
2, 148163, Note_on_c, 3, 67, 0
2, 148170, Note_on_c, 3, 62, 127
2, 148193, Note_on_c, 3, 62, 0
2, 148200, Note_on_c, 3, 64, 127
2, 148230, Note_on_c, 3, 59, 127
2, 148253, Note_on_c, 3, 59, 0
2, 148260, Note_on_c, 3, 60, 127
2, 148277, Note_on_c, 3, 64, 0
2, 148283, Note_on_c, 3, 60, 0
2, 148290, Note_on_c, 3, 59, 127
2, 148313, Note_on_c, 3, 59, 0
2, 148320, Note_on_c, 3, 60, 127
2, 148343, Note_on_c, 3, 60, 0
2, 148350, Note_on_c, 3, 55, 127
2, 148373, Note_on_c, 3, 55, 0
2, 148380, Note_on_c, 3, 57, 127
2, 148403, Note_on_c, 3, 57, 0
2, 148410, Note_on_c, 3, 54, 127
2, 148433, Note_on_c, 3, 54, 0
2, 148440, Note_on_c, 3, 55, 127
2, 148463, Note_on_c, 3, 55, 0
2, 148470, Note_on_c, 3, 54, 127
2, 148493, Note_on_c, 3, 54, 0
2, 148500, Note_on_c, 3, 55, 127
2, 148523, Note_on_c, 3, 55, 0
2, 148530, Note_on_c, 3, 50, 127
2, 148553, Note_on_c, 3, 50, 0
2, 148560, Note_on_c, 3, 52, 127
2, 148583, Note_on_c, 3, 52, 0
2, 148590, Note_on_c, 3, 47, 127
2, 148613, Note_on_c, 3, 47, 0
2, 148620, Note_on_c, 3, 48, 127
2, 148643, Note_on_c, 3, 48, 0
2, 148650, Note_on_c, 3, 47, 127
2, 148673, Note_on_c, 3, 47, 0
2, 148680, Note_on_c, 3, 48, 127
2, 148703, Note_on_c, 3, 48, 0
2, 148710, Note_on_c, 3, 43, 127
2, 148733, Note_on_c, 3, 43, 0
2, 148740, Note_on_c, 3, 45, 127
2, 148763, Note_on_c, 3, 45, 0
2, 148770, Note_on_c, 3, 42, 127
2, 148793, Note_on_c, 3, 42, 0
2, 148800, Note_on_c, 3, 43, 127
2, 148815, Note_on_c, 3, 55, 127
2, 148826, Note_on_c, 3, 55, 0
2, 148830, Note_on_c, 3, 57, 127
2, 148841, Note_on_c, 3, 57, 0
2, 148845, Note_on_c, 3, 59, 127
2, 148856, Note_on_c, 3, 59, 0
2, 148860, Note_on_c, 3, 60, 127
2, 148871, Note_on_c, 3, 60, 0
2, 148875, Note_on_c, 3, 62, 127
2, 148886, Note_on_c, 3, 62, 0
2, 148890, Note_on_c, 3, 64, 127
2, 148901, Note_on_c, 3, 64, 0
2, 148905, Note_on_c, 3, 65, 127
2, 148916, Note_on_c, 3, 65, 0
2, 148920, Note_on_c, 3, 67, 127
2, 148931, Note_on_c, 3, 67, 0
2, 148935, Note_on_c, 3, 69, 127
2, 148946, Note_on_c, 3, 69, 0
2, 148950, Note_on_c, 3, 71, 127
2, 148961, Note_on_c, 3, 71, 0
2, 148965, Note_on_c, 3, 67, 127
2, 148976, Note_on_c, 3, 67, 0
2, 148980, Note_on_c, 3, 72, 127
2, 149010, Note_on_c, 3, 67, 127
2, 149010, Note_on_c, 3, 64, 127
2, 149010, Note_on_c, 3, 60, 127
2, 149033, Note_on_c, 3, 67, 0
2, 149033, Note_on_c, 3, 64, 0
2, 149033, Note_on_c, 3, 60, 0
2, 149040, Note_on_c, 3, 65, 127
2, 149040, Note_on_c, 3, 62, 127
2, 149040, Note_on_c, 3, 55, 127
2, 149075, Note_on_c, 3, 72, 0
2, 149100, Note_on_c, 3, 71, 127
2, 149111, Note_on_c, 3, 43, 0
2, 149135, Note_on_c, 3, 65, 0
2, 149135, Note_on_c, 3, 62, 0
2, 149135, Note_on_c, 3, 55, 0
2, 149147, Note_on_c, 3, 71, 0
2, 149160, Note_on_c, 3, 72, 127
2, 149160, Note_on_c, 3, 67, 127
2, 149160, Note_on_c, 3, 64, 127
2, 149160, Note_on_c, 3, 60, 127
2, 149160, Note_on_c, 3, 36, 127
2, 149183, Note_on_c, 3, 72, 0
2, 149190, Note_on_c, 3, 74, 127
2, 149213, Note_on_c, 3, 74, 0
2, 149220, Note_on_c, 3, 76, 127
2, 149243, Note_on_c, 3, 76, 0
2, 149250, Note_on_c, 3, 71, 127
2, 149255, Note_on_c, 3, 67, 0
2, 149255, Note_on_c, 3, 64, 0
2, 149255, Note_on_c, 3, 60, 0
2, 149273, Note_on_c, 3, 71, 0
2, 149280, Note_on_c, 3, 72, 127
2, 149280, Note_on_c, 3, 65, 127
2, 149280, Note_on_c, 3, 60, 127
2, 149280, Note_on_c, 3, 57, 127
2, 149303, Note_on_c, 3, 72, 0
2, 149310, Note_on_c, 3, 69, 127
2, 149327, Note_on_c, 3, 65, 0
2, 149327, Note_on_c, 3, 60, 0
2, 149327, Note_on_c, 3, 57, 0
2, 149333, Note_on_c, 3, 69, 0
2, 149340, Note_on_c, 3, 70, 127
2, 149340, Note_on_c, 3, 65, 127
2, 149340, Note_on_c, 3, 62, 127
2, 149340, Note_on_c, 3, 57, 127
2, 149363, Note_on_c, 3, 70, 0
2, 149370, Note_on_c, 3, 72, 127
2, 149393, Note_on_c, 3, 72, 0
2, 149400, Note_on_c, 3, 74, 127
2, 149423, Note_on_c, 3, 74, 0
2, 149430, Note_on_c, 3, 69, 127
2, 149435, Note_on_c, 3, 65, 0
2, 149435, Note_on_c, 3, 62, 0
2, 149435, Note_on_c, 3, 57, 0
2, 149453, Note_on_c, 3, 69, 0
2, 149460, Note_on_c, 3, 70, 127
2, 149460, Note_on_c, 3, 64, 127
2, 149460, Note_on_c, 3, 58, 127
2, 149460, Note_on_c, 3, 55, 127
2, 149483, Note_on_c, 3, 70, 0
2, 149490, Note_on_c, 3, 67, 127
2, 149507, Note_on_c, 3, 64, 0
2, 149507, Note_on_c, 3, 58, 0
2, 149507, Note_on_c, 3, 55, 0
2, 149513, Note_on_c, 3, 67, 0
2, 149520, Note_on_c, 3, 69, 127
2, 149520, Note_on_c, 3, 64, 127
2, 149520, Note_on_c, 3, 60, 127
2, 149520, Note_on_c, 3, 55, 127
2, 149543, Note_on_c, 3, 69, 0
2, 149550, Note_on_c, 3, 70, 127
2, 149573, Note_on_c, 3, 70, 0
2, 149580, Note_on_c, 3, 72, 127
2, 149603, Note_on_c, 3, 72, 0
2, 149610, Note_on_c, 3, 67, 127
2, 149615, Note_on_c, 3, 64, 0
2, 149615, Note_on_c, 3, 60, 0
2, 149615, Note_on_c, 3, 55, 0
2, 149633, Note_on_c, 3, 67, 0
2, 149640, Note_on_c, 3, 69, 127
2, 149640, Note_on_c, 3, 62, 127
2, 149640, Note_on_c, 3, 57, 127
2, 149640, Note_on_c, 3, 53, 127
2, 149663, Note_on_c, 3, 69, 0
2, 149670, Note_on_c, 3, 65, 127
2, 149687, Note_on_c, 3, 62, 0
2, 149687, Note_on_c, 3, 57, 0
2, 149687, Note_on_c, 3, 53, 0
2, 149693, Note_on_c, 3, 65, 0
2, 149700, Note_on_c, 3, 67, 127
2, 149700, Note_on_c, 3, 62, 127
2, 149700, Note_on_c, 3, 59, 127
2, 149700, Note_on_c, 3, 53, 127
2, 149723, Note_on_c, 3, 67, 0
2, 149730, Note_on_c, 3, 69, 127
2, 149753, Note_on_c, 3, 69, 0
2, 149760, Note_on_c, 3, 71, 127
2, 149783, Note_on_c, 3, 71, 0
2, 149790, Note_on_c, 3, 65, 127
2, 149795, Note_on_c, 3, 62, 0
2, 149795, Note_on_c, 3, 59, 0
2, 149795, Note_on_c, 3, 53, 0
2, 149813, Note_on_c, 3, 65, 0
2, 149820, Note_on_c, 3, 67, 127
2, 149820, Note_on_c, 3, 60, 127
2, 149820, Note_on_c, 3, 55, 127
2, 149820, Note_on_c, 3, 52, 127
2, 149843, Note_on_c, 3, 67, 0
2, 149850, Note_on_c, 3, 64, 127
2, 149867, Note_on_c, 3, 60, 0
2, 149867, Note_on_c, 3, 55, 0
2, 149867, Note_on_c, 3, 52, 0
2, 149873, Note_on_c, 3, 64, 0
2, 149880, Note_on_c, 3, 65, 127
2, 149880, Note_on_c, 3, 60, 127
2, 149880, Note_on_c, 3, 57, 127
2, 149880, Note_on_c, 3, 52, 127
2, 149903, Note_on_c, 3, 65, 0
2, 149910, Note_on_c, 3, 67, 127
2, 149933, Note_on_c, 3, 67, 0
2, 149940, Note_on_c, 3, 69, 127
2, 149963, Note_on_c, 3, 69, 0
2, 149970, Note_on_c, 3, 64, 127
2, 149975, Note_on_c, 3, 60, 0
2, 149975, Note_on_c, 3, 57, 0
2, 149975, Note_on_c, 3, 52, 0
2, 149993, Note_on_c, 3, 64, 0
2, 150000, Note_on_c, 3, 65, 127
2, 150023, Note_on_c, 3, 65, 0
2, 150030, Note_on_c, 3, 67, 127
2, 150053, Note_on_c, 3, 67, 0
2, 150060, Note_on_c, 3, 69, 127
2, 150083, Note_on_c, 3, 69, 0
2, 150090, Note_on_c, 3, 64, 127
2, 150113, Note_on_c, 3, 64, 0
2, 150120, Note_on_c, 3, 65, 127
2, 150143, Note_on_c, 3, 65, 0
2, 150150, Note_on_c, 3, 60, 127
2, 150173, Note_on_c, 3, 60, 0
2, 150180, Note_on_c, 3, 62, 127
2, 150203, Note_on_c, 3, 62, 0
2, 150210, Note_on_c, 3, 57, 127
2, 150233, Note_on_c, 3, 57, 0
2, 150240, Note_on_c, 3, 55, 127
2, 150240, Note_on_c, 3, 59, 127
2, 150240, Note_on_c, 3, 53, 127
2, 150240, Note_on_c, 3, 50, 127
2, 150263, Note_on_c, 3, 59, 0
2, 150270, Note_on_c, 3, 60, 127
2, 150293, Note_on_c, 3, 60, 0
2, 150300, Note_on_c, 3, 62, 127
2, 150323, Note_on_c, 3, 62, 0
2, 150330, Note_on_c, 3, 57, 127
2, 150335, Note_on_c, 3, 55, 0
2, 150335, Note_on_c, 3, 53, 0
2, 150335, Note_on_c, 3, 50, 0
2, 150353, Note_on_c, 3, 57, 0
2, 150360, Note_on_c, 3, 59, 127
2, 150383, Note_on_c, 3, 59, 0
2, 150390, Note_on_c, 3, 60, 127
2, 150413, Note_on_c, 3, 60, 0
2, 150420, Note_on_c, 3, 62, 127
2, 150443, Note_on_c, 3, 62, 0
2, 150450, Note_on_c, 3, 57, 127
2, 150473, Note_on_c, 3, 57, 0
2, 150480, Note_on_c, 3, 59, 127
2, 150503, Note_on_c, 3, 59, 0
2, 150510, Note_on_c, 3, 54, 127
2, 150533, Note_on_c, 3, 54, 0
2, 150540, Note_on_c, 3, 55, 127
2, 150551, Note_on_c, 3, 36, 0
2, 150563, Note_on_c, 3, 55, 0
2, 150570, Note_on_c, 3, 50, 127
2, 150593, Note_on_c, 3, 50, 0
2, 150600, Note_on_c, 3, 48, 127
2, 150600, Note_on_c, 3, 52, 127
2, 150623, Note_on_c, 3, 52, 0
2, 150630, Note_on_c, 3, 55, 127
2, 150653, Note_on_c, 3, 55, 0
2, 150660, Note_on_c, 3, 60, 127
2, 150683, Note_on_c, 3, 60, 0
2, 150690, Note_on_c, 3, 54, 127
2, 150695, Note_on_c, 3, 48, 0
2, 150713, Note_on_c, 3, 54, 0
2, 150720, Note_on_c, 3, 55, 127
2, 150743, Note_on_c, 3, 55, 0
2, 150750, Note_on_c, 3, 50, 127
2, 150773, Note_on_c, 3, 50, 0
2, 150780, Note_on_c, 3, 52, 127
2, 150803, Note_on_c, 3, 52, 0
2, 150810, Note_on_c, 3, 53, 127
2, 150833, Note_on_c, 3, 53, 0
2, 150840, Note_on_c, 3, 55, 127
2, 150863, Note_on_c, 3, 55, 0
2, 150870, Note_on_c, 3, 50, 127
2, 150893, Note_on_c, 3, 50, 0
2, 150900, Note_on_c, 3, 52, 127
2, 150923, Note_on_c, 3, 52, 0
2, 150930, Note_on_c, 3, 47, 127
2, 150953, Note_on_c, 3, 47, 0
2, 150960, Note_on_c, 3, 48, 127
2, 150983, Note_on_c, 3, 48, 0
2, 150990, Note_on_c, 3, 50, 127
2, 151013, Note_on_c, 3, 50, 0
2, 151020, Note_on_c, 3, 52, 127
2, 151043, Note_on_c, 3, 52, 0
2, 151050, Note_on_c, 3, 47, 127
2, 151073, Note_on_c, 3, 47, 0
2, 151080, Note_on_c, 3, 48, 127
2, 151103, Note_on_c, 3, 48, 0
2, 151110, Note_on_c, 3, 42, 127
2, 151133, Note_on_c, 3, 42, 0
2, 151140, Note_on_c, 3, 43, 127
2, 151163, Note_on_c, 3, 43, 0
2, 151170, Note_on_c, 3, 48, 127
2, 151193, Note_on_c, 3, 48, 0
2, 151200, Note_on_c, 3, 43, 127
2, 151223, Note_on_c, 3, 43, 0
2, 151230, Note_on_c, 3, 38, 127
2, 151253, Note_on_c, 3, 38, 0
2, 151260, Note_on_c, 3, 40, 127
2, 151283, Note_on_c, 3, 40, 0
2, 151290, Note_on_c, 3, 36, 127
2, 151320, Note_on_c, 3, 64, 127
2, 151320, Note_on_c, 3, 60, 127
2, 151320, Note_on_c, 3, 55, 127
2, 151320, Note_on_c, 3, 48, 127
2, 151412, Note_on_c, 3, 36, 0
2, 151415, Note_on_c, 3, 64, 0
2, 151415, Note_on_c, 3, 60, 0
2, 151415, Note_on_c, 3, 55, 0
2, 151415, Note_on_c, 3, 48, 0
2, 151415, End_track
0, 0, End_of_file
