0, 0, Header, 1, 4, 120
1, 0, Start_track
1, 0, Title_t, "untitled"
1, 0, Time_signature, 4, 2, 24, 8
1, 0, Key_signature, -3, "major"
1, 0, Tempo, 857143
1, 0, Marker_t, "tpinven5.pc"
1, 0, Marker_t, "Staff:0 "
1, 14400, Tempo, 882353
1, 14420, Tempo, 854944
1, 14440, Tempo, 861079
1, 14450, Tempo, 867303
1, 14470, Tempo, 873617
1, 14480, Tempo, 880023
1, 14500, Tempo, 886525
1, 14510, Tempo, 893123
1, 14530, Tempo, 899820
1, 14540, Tempo, 906618
1, 14560, Tempo, 913520
1, 14570, Tempo, 920528
1, 14580, Tempo, 927644
1, 14600, Tempo, 934871
1, 14610, Tempo, 942211
1, 14630, Tempo, 949668
1, 14640, Tempo, 957243
1, 14660, Tempo, 964940
1, 14670, Tempo, 972763
1, 14690, Tempo, 980713
1, 14700, Tempo, 988794
1, 14720, Tempo, 997009
1, 14730, Tempo, 1005362
1, 14740, Tempo, 1013856
1, 14760, Tempo, 1022495
1, 14770, Tempo, 1031282
1, 14790, Tempo, 1040222
1, 14800, Tempo, 1049318
1, 14820, Tempo, 1058574
1, 14830, Tempo, 1067996
1, 14850, Tempo, 1077586
1, 14860, Tempo, 1087350
1, 14880, Tempo, 1097293
1, 14890, Tempo, 1107420
1, 14900, Tempo, 1117735
1, 14920, Tempo, 1128244
1, 14930, Tempo, 1138952
1, 14950, Tempo, 1149866
1, 14960, Tempo, 1160991
1, 14980, Tempo, 1172333
1, 14990, Tempo, 1183899
1, 15010, Tempo, 1195695
1, 15020, Tempo, 1207729
1, 15040, Tempo, 1220008
1, 15050, Tempo, 1232539
1, 15060, Tempo, 1245330
1, 15080, Tempo, 1258389
1, 15090, Tempo, 1271725
1, 15110, Tempo, 1285347
1, 15120, Tempo, 1299264
1, 15140, Tempo, 1313485
1, 15150, Tempo, 1328021
1, 15170, Tempo, 1342883
1, 15180, Tempo, 1358081
1, 15200, Tempo, 1373626
1, 15210, Tempo, 1389532
1, 15220, Tempo, 1405811
1, 15240, Tempo, 1422475
1, 15250, Tempo, 1439539
1, 15270, Tempo, 1457018
1, 15280, Tempo, 1474926
1, 15300, Tempo, 1493280
1, 15310, Tempo, 1512097
1, 15330, Tempo, 1531394
1, 15340, Tempo, 1551189
1, 15350, Tempo, 1571503
1, 15360, Tempo, 1893939
1, 15370, Tempo, 1924310
1, 15400, Tempo, 1571503
1, 16530, Tempo, 1551189
1, 16530, End_track
2, 0, Start_track
2, 0, Title_t, "Track 2"
2, 0, Program_c, 0, 0
2, 0, Control_c, 0, 7, 100
2, 0, Control_c, 0, 10, 31
2, 20, Control_c, 0, 7, 108
2, 60, Note_on_c, 0, 63, 64
2, 90, Note_on_c, 0, 63, 0
2, 90, Note_on_c, 0, 62, 64
2, 110, Control_c, 0, 7, 109
2, 120, Note_on_c, 0, 62, 0
2, 120, Note_on_c, 0, 63, 64
2, 150, Note_on_c, 0, 63, 0
2, 180, Note_on_c, 0, 65, 64
2, 210, Note_on_c, 0, 65, 0
2, 240, Note_on_c, 0, 67, 90
2, 255, Note_on_c, 0, 67, 0
2, 255, Note_on_c, 0, 65, 64
2, 270, Note_on_c, 0, 65, 0
2, 270, Note_on_c, 0, 67, 64
2, 359, Note_on_c, 0, 68, 90
2, 360, Note_on_c, 0, 67, 0
2, 479, Note_on_c, 0, 68, 0
2, 540, Note_on_c, 0, 65, 64
2, 570, Note_on_c, 0, 65, 0
2, 570, Note_on_c, 0, 63, 64
2, 600, Note_on_c, 0, 63, 0
2, 600, Note_on_c, 0, 65, 64
2, 630, Note_on_c, 0, 65, 0
2, 660, Note_on_c, 0, 67, 64
2, 690, Note_on_c, 0, 67, 0
2, 720, Note_on_c, 0, 68, 90
2, 735, Note_on_c, 0, 68, 0
2, 735, Note_on_c, 0, 67, 64
2, 750, Note_on_c, 0, 67, 0
2, 750, Note_on_c, 0, 68, 64
2, 840, Note_on_c, 0, 68, 0
2, 840, Note_on_c, 0, 70, 90
2, 960, Note_on_c, 0, 70, 0
2, 960, Note_on_c, 0, 67, 64
2, 1020, Note_on_c, 0, 67, 0
2, 1020, Note_on_c, 0, 72, 64
2, 1080, Note_on_c, 0, 72, 0
2, 1080, Note_on_c, 0, 70, 64
2, 1095, Note_on_c, 0, 70, 0
2, 1095, Note_on_c, 0, 72, 64
2, 1110, Note_on_c, 0, 72, 0
2, 1110, Note_on_c, 0, 70, 64
2, 1140, Note_on_c, 0, 70, 0
2, 1140, Note_on_c, 0, 68, 64
2, 1140, Control_c, 0, 7, 108
2, 1160, Control_c, 0, 7, 107
2, 1180, Control_c, 0, 7, 106
2, 1200, Note_on_c, 0, 68, 0
2, 1200, Note_on_c, 0, 67, 64
2, 1200, Control_c, 0, 7, 105
2, 1220, Control_c, 0, 7, 104
2, 1230, Note_on_c, 0, 67, 0
2, 1230, Note_on_c, 0, 68, 64
2, 1240, Control_c, 0, 7, 103
2, 1260, Note_on_c, 0, 68, 0
2, 1260, Note_on_c, 0, 70, 64
2, 1260, Control_c, 0, 7, 102
2, 1280, Control_c, 0, 7, 101
2, 1290, Note_on_c, 0, 70, 0
2, 1290, Note_on_c, 0, 68, 64
2, 1290, Control_c, 0, 7, 100
2, 1310, Control_c, 0, 7, 99
2, 1320, Note_on_c, 0, 68, 0
2, 1321, Note_on_c, 0, 67, 64
2, 1330, Control_c, 0, 7, 98
2, 1350, Control_c, 0, 7, 97
2, 1370, Control_c, 0, 7, 96
2, 1380, Note_on_c, 0, 65, 64
2, 1381, Note_on_c, 0, 67, 0
2, 1390, Control_c, 0, 7, 95
2, 1410, Control_c, 0, 7, 94
2, 1420, Control_c, 0, 7, 93
2, 1440, Note_on_c, 0, 65, 0
2, 1440, Note_on_c, 0, 63, 64
2, 1440, Control_c, 0, 7, 92
2, 1460, Control_c, 0, 7, 91
2, 1480, Control_c, 0, 7, 90
2, 1500, Note_on_c, 0, 63, 0
2, 1500, Note_on_c, 0, 67, 64
2, 1500, Control_c, 0, 7, 89
2, 1520, Control_c, 0, 7, 88
2, 1540, Control_c, 0, 7, 87
2, 1550, Control_c, 0, 7, 86
2, 1560, Note_on_c, 0, 67, 0
2, 1560, Note_on_c, 0, 70, 64
2, 1620, Note_on_c, 0, 70, 0
2, 1620, Note_on_c, 0, 75, 64
2, 1710, Note_on_c, 0, 75, 0
2, 1710, Note_on_c, 0, 72, 64
2, 1740, Note_on_c, 0, 72, 0
2, 1740, Note_on_c, 0, 74, 64
2, 1770, Note_on_c, 0, 74, 0
2, 1770, Note_on_c, 0, 75, 64
2, 1800, Note_on_c, 0, 75, 0
2, 1800, Note_on_c, 0, 77, 64
2, 1860, Note_on_c, 0, 77, 0
2, 1860, Note_on_c, 0, 75, 64
2, 1920, Note_on_c, 0, 75, 0
2, 1920, Note_on_c, 0, 74, 64
2, 1950, Note_on_c, 0, 74, 0
2, 1950, Note_on_c, 0, 75, 64
2, 1980, Note_on_c, 0, 75, 0
2, 1980, Note_on_c, 0, 74, 64
2, 2010, Note_on_c, 0, 74, 0
2, 2010, Note_on_c, 0, 72, 64
2, 2040, Note_on_c, 0, 72, 0
2, 2040, Note_on_c, 0, 74, 64
2, 2070, Note_on_c, 0, 74, 0
2, 2070, Note_on_c, 0, 75, 64
2, 2100, Note_on_c, 0, 75, 0
2, 2100, Note_on_c, 0, 72, 64
2, 2130, Note_on_c, 0, 72, 0
2, 2130, Note_on_c, 0, 74, 64
2, 2160, Note_on_c, 0, 74, 0
2, 2160, Note_on_c, 0, 70, 64
2, 2170, Control_c, 0, 7, 112
2, 2190, Note_on_c, 0, 70, 0
2, 2190, Note_on_c, 0, 82, 64
2, 2190, Control_c, 0, 7, 110
2, 2220, Note_on_c, 0, 82, 0
2, 2220, Note_on_c, 0, 81, 64
2, 2230, Control_c, 0, 7, 109
2, 2250, Note_on_c, 0, 81, 0
2, 2250, Note_on_c, 0, 82, 64
2, 2260, Control_c, 0, 7, 108
2, 2280, Note_on_c, 0, 82, 0
2, 2280, Note_on_c, 0, 79, 64
2, 2290, Control_c, 0, 7, 107
2, 2310, Note_on_c, 0, 79, 0
2, 2310, Note_on_c, 0, 81, 64
2, 2320, Control_c, 0, 7, 106
2, 2340, Note_on_c, 0, 81, 0
2, 2340, Note_on_c, 0, 77, 64
2, 2360, Control_c, 0, 7, 105
2, 2370, Note_on_c, 0, 77, 0
2, 2370, Note_on_c, 0, 79, 64
2, 2390, Control_c, 0, 7, 104
2, 2400, Note_on_c, 0, 79, 0
2, 2400, Note_on_c, 0, 75, 64
2, 2420, Control_c, 0, 7, 103
2, 2430, Note_on_c, 0, 75, 0
2, 2430, Note_on_c, 0, 79, 64
2, 2450, Control_c, 0, 7, 102
2, 2460, Note_on_c, 0, 79, 0
2, 2460, Note_on_c, 0, 77, 64
2, 2490, Note_on_c, 0, 77, 0
2, 2490, Note_on_c, 0, 79, 64
2, 2490, Control_c, 0, 7, 101
2, 2520, Note_on_c, 0, 79, 0
2, 2520, Note_on_c, 0, 75, 64
2, 2520, Control_c, 0, 7, 100
2, 2550, Note_on_c, 0, 75, 0
2, 2550, Note_on_c, 0, 77, 64
2, 2550, Control_c, 0, 7, 99
2, 2580, Note_on_c, 0, 77, 0
2, 2580, Note_on_c, 0, 74, 64
2, 2580, Control_c, 0, 7, 98
2, 2610, Note_on_c, 0, 74, 0
2, 2610, Note_on_c, 0, 75, 64
2, 2620, Control_c, 0, 7, 97
2, 2640, Note_on_c, 0, 75, 0
2, 2640, Note_on_c, 0, 72, 64
2, 2650, Control_c, 0, 7, 96
2, 2670, Note_on_c, 0, 72, 0
2, 2670, Note_on_c, 0, 82, 64
2, 2680, Control_c, 0, 7, 95
2, 2700, Note_on_c, 0, 82, 0
2, 2700, Note_on_c, 0, 81, 64
2, 2710, Control_c, 0, 7, 94
2, 2730, Note_on_c, 0, 81, 0
2, 2730, Note_on_c, 0, 79, 64
2, 2740, Control_c, 0, 7, 93
2, 2760, Note_on_c, 0, 79, 0
2, 2760, Note_on_c, 0, 81, 64
2, 2790, Note_on_c, 0, 81, 0
2, 2790, Note_on_c, 0, 82, 64
2, 2820, Note_on_c, 0, 82, 0
2, 2820, Note_on_c, 0, 79, 64
2, 2850, Note_on_c, 0, 79, 0
2, 2850, Note_on_c, 0, 81, 64
2, 2880, Note_on_c, 0, 81, 0
2, 2880, Note_on_c, 0, 70, 64
2, 2910, Note_on_c, 0, 70, 0
2, 2910, Note_on_c, 0, 82, 64
2, 2940, Note_on_c, 0, 82, 0
2, 2940, Note_on_c, 0, 81, 64
2, 2970, Note_on_c, 0, 81, 0
2, 2970, Note_on_c, 0, 79, 64
2, 3000, Note_on_c, 0, 79, 0
2, 3000, Note_on_c, 0, 81, 64
2, 3030, Note_on_c, 0, 81, 0
2, 3030, Note_on_c, 0, 82, 64
2, 3060, Note_on_c, 0, 82, 0
2, 3060, Note_on_c, 0, 79, 64
2, 3090, Note_on_c, 0, 79, 0
2, 3090, Note_on_c, 0, 81, 64
2, 3120, Note_on_c, 0, 81, 0
2, 3120, Note_on_c, 0, 77, 64
2, 3150, Note_on_c, 0, 77, 0
2, 3150, Note_on_c, 0, 82, 64
2, 3180, Note_on_c, 0, 82, 0
2, 3180, Note_on_c, 0, 80, 64
2, 3210, Note_on_c, 0, 80, 0
2, 3210, Note_on_c, 0, 79, 64
2, 3240, Note_on_c, 0, 79, 0
2, 3240, Note_on_c, 0, 77, 64
2, 3270, Note_on_c, 0, 77, 0
2, 3270, Note_on_c, 0, 79, 64
2, 3300, Note_on_c, 0, 79, 0
2, 3300, Note_on_c, 0, 75, 64
2, 3330, Note_on_c, 0, 75, 0
2, 3330, Note_on_c, 0, 77, 64
2, 3360, Note_on_c, 0, 77, 0
2, 3360, Note_on_c, 0, 74, 64
2, 3390, Note_on_c, 0, 74, 0
2, 3390, Note_on_c, 0, 79, 64
2, 3420, Note_on_c, 0, 79, 0
2, 3420, Note_on_c, 0, 77, 64
2, 3450, Note_on_c, 0, 77, 0
2, 3450, Note_on_c, 0, 75, 64
2, 3480, Note_on_c, 0, 75, 0
2, 3480, Note_on_c, 0, 74, 64
2, 3510, Note_on_c, 0, 74, 0
2, 3510, Note_on_c, 0, 75, 64
2, 3540, Note_on_c, 0, 75, 0
2, 3540, Note_on_c, 0, 72, 64
2, 3570, Note_on_c, 0, 72, 0
2, 3570, Note_on_c, 0, 74, 64
2, 3600, Note_on_c, 0, 74, 0
2, 3600, Note_on_c, 0, 65, 64
2, 3630, Note_on_c, 0, 65, 0
2, 3630, Note_on_c, 0, 75, 64
2, 3660, Note_on_c, 0, 75, 0
2, 3660, Note_on_c, 0, 74, 64
2, 3690, Note_on_c, 0, 74, 0
2, 3690, Note_on_c, 0, 72, 64
2, 3720, Note_on_c, 0, 72, 0
2, 3720, Note_on_c, 0, 74, 64
2, 3750, Note_on_c, 0, 74, 0
2, 3750, Note_on_c, 0, 75, 64
2, 3780, Note_on_c, 0, 75, 0
2, 3780, Note_on_c, 0, 72, 64
2, 3810, Note_on_c, 0, 72, 0
2, 3810, Note_on_c, 0, 74, 64
2, 3840, Note_on_c, 0, 74, 0
2, 3840, Note_on_c, 0, 75, 64
2, 3900, Note_on_c, 0, 75, 0
2, 3900, Note_on_c, 0, 70, 64
2, 3930, Note_on_c, 0, 70, 0
2, 3930, Note_on_c, 0, 68, 64
2, 3960, Note_on_c, 0, 68, 0
2, 3960, Note_on_c, 0, 70, 64
2, 3990, Note_on_c, 0, 70, 0
2, 4020, Note_on_c, 0, 72, 64
2, 4050, Note_on_c, 0, 72, 0
2, 4080, Note_on_c, 0, 73, 90
2, 4095, Note_on_c, 0, 73, 0
2, 4095, Note_on_c, 0, 72, 64
2, 4110, Note_on_c, 0, 72, 0
2, 4110, Note_on_c, 0, 73, 64
2, 4200, Note_on_c, 0, 73, 0
2, 4200, Note_on_c, 0, 75, 90
2, 4320, Note_on_c, 0, 75, 0
2, 4380, Note_on_c, 0, 72, 64
2, 4410, Note_on_c, 0, 72, 0
2, 4410, Note_on_c, 0, 70, 64
2, 4440, Note_on_c, 0, 70, 0
2, 4440, Note_on_c, 0, 72, 64
2, 4470, Note_on_c, 0, 72, 0
2, 4500, Note_on_c, 0, 74, 64
2, 4530, Note_on_c, 0, 74, 0
2, 4560, Note_on_c, 0, 75, 90
2, 4575, Note_on_c, 0, 75, 0
2, 4575, Note_on_c, 0, 74, 64
2, 4590, Note_on_c, 0, 74, 0
2, 4590, Note_on_c, 0, 75, 64
2, 4680, Note_on_c, 0, 75, 0
2, 4680, Note_on_c, 0, 77, 90
2, 4800, Note_on_c, 0, 77, 0
2, 4860, Note_on_c, 0, 74, 64
2, 4890, Note_on_c, 0, 74, 0
2, 4890, Note_on_c, 0, 72, 64
2, 4920, Note_on_c, 0, 72, 0
2, 4920, Note_on_c, 0, 74, 64
2, 4950, Note_on_c, 0, 74, 0
2, 4980, Note_on_c, 0, 75, 64
2, 5010, Note_on_c, 0, 75, 0
2, 5040, Note_on_c, 0, 77, 90
2, 5055, Note_on_c, 0, 77, 0
2, 5055, Note_on_c, 0, 75, 64
2, 5070, Note_on_c, 0, 75, 0
2, 5070, Note_on_c, 0, 77, 64
2, 5160, Note_on_c, 0, 77, 0
2, 5160, Note_on_c, 0, 79, 90
2, 5280, Note_on_c, 0, 79, 0
2, 5280, Note_on_c, 0, 75, 64
2, 5290, Control_c, 0, 7, 112
2, 5310, Note_on_c, 0, 75, 0
2, 5310, Note_on_c, 0, 77, 64
2, 5320, Control_c, 0, 7, 111
2, 5340, Note_on_c, 0, 77, 0
2, 5340, Note_on_c, 0, 75, 64
2, 5340, Control_c, 0, 7, 110
2, 5360, Control_c, 0, 7, 109
2, 5370, Note_on_c, 0, 75, 0
2, 5370, Note_on_c, 0, 74, 64
2, 5380, Control_c, 0, 7, 108
2, 5400, Note_on_c, 0, 74, 0
2, 5400, Note_on_c, 0, 75, 64
2, 5400, Control_c, 0, 7, 107
2, 5420, Control_c, 0, 7, 106
2, 5430, Note_on_c, 0, 75, 0
2, 5430, Note_on_c, 0, 77, 64
2, 5440, Control_c, 0, 7, 105
2, 5460, Note_on_c, 0, 77, 0
2, 5460, Note_on_c, 0, 74, 64
2, 5460, Control_c, 0, 7, 104
2, 5480, Control_c, 0, 7, 103
2, 5490, Note_on_c, 0, 74, 0
2, 5490, Note_on_c, 0, 75, 64
2, 5500, Control_c, 0, 7, 102
2, 5520, Note_on_c, 0, 75, 0
2, 5520, Note_on_c, 0, 72, 64
2, 5520, Control_c, 0, 7, 101
2, 5540, Control_c, 0, 7, 100
2, 5550, Note_on_c, 0, 72, 0
2, 5550, Note_on_c, 0, 84, 64
2, 5570, Control_c, 0, 7, 99
2, 5580, Note_on_c, 0, 84, 0
2, 5580, Note_on_c, 0, 82, 64
2, 5590, Control_c, 0, 7, 98
2, 5610, Note_on_c, 0, 82, 0
2, 5610, Note_on_c, 0, 84, 64
2, 5610, Control_c, 0, 7, 97
2, 5630, Control_c, 0, 7, 96
2, 5640, Note_on_c, 0, 84, 0
2, 5640, Note_on_c, 0, 80, 64
2, 5650, Control_c, 0, 7, 95
2, 5670, Note_on_c, 0, 80, 0
2, 5670, Note_on_c, 0, 82, 64
2, 5670, Control_c, 0, 7, 94
2, 5690, Control_c, 0, 7, 93
2, 5700, Note_on_c, 0, 82, 0
2, 5700, Note_on_c, 0, 79, 64
2, 5710, Control_c, 0, 7, 92
2, 5730, Note_on_c, 0, 79, 0
2, 5730, Note_on_c, 0, 80, 64
2, 5730, Control_c, 0, 7, 91
2, 5750, Control_c, 0, 7, 90
2, 5760, Note_on_c, 0, 80, 0
2, 5760, Note_on_c, 0, 77, 64
2, 5770, Control_c, 0, 7, 89
2, 5790, Note_on_c, 0, 77, 0
2, 5790, Note_on_c, 0, 80, 64
2, 5790, Control_c, 0, 7, 88
2, 5820, Note_on_c, 0, 80, 0
2, 5820, Note_on_c, 0, 79, 64
2, 5850, Note_on_c, 0, 79, 0
2, 5850, Note_on_c, 0, 80, 64
2, 5880, Note_on_c, 0, 80, 0
2, 5880, Note_on_c, 0, 77, 64
2, 5910, Note_on_c, 0, 77, 0
2, 5910, Note_on_c, 0, 79, 64
2, 5940, Note_on_c, 0, 79, 0
2, 5940, Note_on_c, 0, 75, 64
2, 5970, Note_on_c, 0, 75, 0
2, 5970, Note_on_c, 0, 77, 64
2, 6000, Note_on_c, 0, 77, 0
2, 6000, Note_on_c, 0, 74, 64
2, 6030, Note_on_c, 0, 74, 0
2, 6030, Note_on_c, 0, 84, 64
2, 6060, Note_on_c, 0, 84, 0
2, 6060, Note_on_c, 0, 83, 64
2, 6090, Note_on_c, 0, 83, 0
2, 6090, Note_on_c, 0, 81, 64
2, 6120, Note_on_c, 0, 81, 0
2, 6120, Note_on_c, 0, 83, 64
2, 6150, Note_on_c, 0, 83, 0
2, 6150, Note_on_c, 0, 84, 64
2, 6180, Note_on_c, 0, 84, 0
2, 6180, Note_on_c, 0, 81, 64
2, 6210, Note_on_c, 0, 81, 0
2, 6210, Note_on_c, 0, 83, 64
2, 6240, Note_on_c, 0, 83, 0
2, 6240, Note_on_c, 0, 72, 64
2, 6270, Note_on_c, 0, 72, 0
2, 6270, Note_on_c, 0, 84, 64
2, 6300, Note_on_c, 0, 84, 0
2, 6300, Note_on_c, 0, 82, 64
2, 6330, Note_on_c, 0, 82, 0
2, 6330, Note_on_c, 0, 80, 64
2, 6360, Note_on_c, 0, 80, 0
2, 6360, Note_on_c, 0, 82, 64
2, 6390, Note_on_c, 0, 82, 0
2, 6390, Note_on_c, 0, 84, 64
2, 6420, Note_on_c, 0, 84, 0
2, 6420, Note_on_c, 0, 80, 64
2, 6450, Note_on_c, 0, 80, 0
2, 6450, Note_on_c, 0, 82, 64
2, 6480, Note_on_c, 0, 82, 0
2, 6480, Note_on_c, 0, 79, 64
2, 6510, Note_on_c, 0, 79, 0
2, 6510, Note_on_c, 0, 84, 64
2, 6540, Note_on_c, 0, 84, 0
2, 6540, Note_on_c, 0, 82, 64
2, 6570, Note_on_c, 0, 82, 0
2, 6570, Note_on_c, 0, 80, 64
2, 6600, Note_on_c, 0, 80, 0
2, 6600, Note_on_c, 0, 79, 64
2, 6630, Note_on_c, 0, 79, 0
2, 6630, Note_on_c, 0, 80, 64
2, 6660, Note_on_c, 0, 80, 0
2, 6660, Note_on_c, 0, 77, 64
2, 6690, Note_on_c, 0, 77, 0
2, 6690, Note_on_c, 0, 79, 64
2, 6720, Note_on_c, 0, 79, 0
2, 6720, Note_on_c, 0, 76, 64
2, 6750, Note_on_c, 0, 76, 0
2, 6750, Note_on_c, 0, 80, 64
2, 6780, Note_on_c, 0, 80, 0
2, 6780, Note_on_c, 0, 79, 64
2, 6810, Note_on_c, 0, 79, 0
2, 6810, Note_on_c, 0, 77, 64
2, 6840, Note_on_c, 0, 77, 0
2, 6840, Note_on_c, 0, 76, 64
2, 6870, Note_on_c, 0, 76, 0
2, 6870, Note_on_c, 0, 77, 64
2, 6900, Note_on_c, 0, 77, 0
2, 6900, Note_on_c, 0, 74, 64
2, 6930, Note_on_c, 0, 74, 0
2, 6930, Note_on_c, 0, 76, 64
2, 6960, Note_on_c, 0, 76, 0
2, 6960, Note_on_c, 0, 67, 64
2, 6990, Note_on_c, 0, 67, 0
2, 6990, Note_on_c, 0, 77, 64
2, 7020, Note_on_c, 0, 77, 0
2, 7020, Note_on_c, 0, 76, 64
2, 7050, Note_on_c, 0, 76, 0
2, 7050, Note_on_c, 0, 74, 64
2, 7060, Control_c, 0, 7, 113
2, 7080, Note_on_c, 0, 74, 0
2, 7080, Note_on_c, 0, 76, 64
2, 7110, Note_on_c, 0, 76, 0
2, 7110, Note_on_c, 0, 77, 64
2, 7140, Note_on_c, 0, 77, 0
2, 7140, Note_on_c, 0, 74, 64
2, 7170, Note_on_c, 0, 74, 0
2, 7170, Note_on_c, 0, 76, 64
2, 7200, Note_on_c, 0, 76, 0
2, 7200, Note_on_c, 0, 77, 64
2, 7260, Note_on_c, 0, 77, 0
2, 7260, Note_on_c, 0, 65, 64
2, 7290, Note_on_c, 0, 65, 0
2, 7290, Note_on_c, 0, 64, 64
2, 7320, Note_on_c, 0, 64, 0
2, 7320, Note_on_c, 0, 65, 64
2, 7350, Note_on_c, 0, 65, 0
2, 7380, Note_on_c, 0, 67, 64
2, 7400, Control_c, 0, 7, 114
2, 7410, Note_on_c, 0, 67, 0
2, 7440, Note_on_c, 0, 68, 90
2, 7455, Note_on_c, 0, 68, 0
2, 7455, Note_on_c, 0, 67, 64
2, 7460, Control_c, 0, 7, 97
2, 7470, Note_on_c, 0, 67, 0
2, 7470, Note_on_c, 0, 68, 64
2, 7560, Note_on_c, 0, 68, 0
2, 7560, Note_on_c, 0, 70, 90
2, 7560, Control_c, 0, 7, 98
2, 7650, Control_c, 0, 7, 99
2, 7680, Note_on_c, 0, 70, 0
2, 7680, Control_c, 0, 7, 114
2, 7740, Note_on_c, 0, 67, 64
2, 7770, Note_on_c, 0, 67, 0
2, 7770, Note_on_c, 0, 65, 64
2, 7800, Note_on_c, 0, 65, 0
2, 7800, Note_on_c, 0, 67, 64
2, 7830, Note_on_c, 0, 67, 0
2, 7840, Control_c, 0, 7, 113
2, 7860, Note_on_c, 0, 68, 64
2, 7890, Note_on_c, 0, 68, 0
2, 7920, Note_on_c, 0, 70, 90
2, 7935, Note_on_c, 0, 70, 0
2, 7935, Note_on_c, 0, 68, 64
2, 7950, Note_on_c, 0, 68, 0
2, 7950, Note_on_c, 0, 70, 64
2, 8000, Control_c, 0, 7, 96
2, 8040, Note_on_c, 0, 70, 0
2, 8040, Note_on_c, 0, 72, 90
2, 8160, Note_on_c, 0, 72, 0
2, 8160, Note_on_c, 0, 68, 64
2, 8160, Control_c, 0, 7, 97
2, 8220, Note_on_c, 0, 68, 0
2, 8220, Note_on_c, 0, 73, 64
2, 8280, Note_on_c, 0, 73, 0
2, 8280, Note_on_c, 0, 72, 64
2, 8295, Note_on_c, 0, 72, 0
2, 8295, Note_on_c, 0, 74, 64
2, 8310, Note_on_c, 0, 74, 0
2, 8310, Note_on_c, 0, 72, 64
2, 8340, Note_on_c, 0, 72, 0
2, 8340, Note_on_c, 0, 70, 64
2, 8400, Note_on_c, 0, 70, 0
2, 8400, Note_on_c, 0, 69, 64
2, 8430, Note_on_c, 0, 69, 0
2, 8430, Note_on_c, 0, 70, 64
2, 8460, Note_on_c, 0, 70, 0
2, 8460, Note_on_c, 0, 72, 64
2, 8490, Note_on_c, 0, 72, 0
2, 8490, Note_on_c, 0, 70, 64
2, 8520, Note_on_c, 0, 70, 0
2, 8520, Note_on_c, 0, 69, 64
2, 8580, Note_on_c, 0, 69, 0
2, 8580, Note_on_c, 0, 67, 64
2, 8640, Note_on_c, 0, 67, 0
2, 8640, Note_on_c, 0, 65, 64
2, 8700, Note_on_c, 0, 65, 0
2, 8700, Note_on_c, 0, 69, 64
2, 8760, Note_on_c, 0, 69, 0
2, 8760, Note_on_c, 0, 72, 64
2, 8820, Note_on_c, 0, 72, 0
2, 8820, Note_on_c, 0, 75, 64
2, 8910, Note_on_c, 0, 75, 0
2, 8910, Note_on_c, 0, 72, 64
2, 8940, Note_on_c, 0, 72, 0
2, 8940, Note_on_c, 0, 73, 64
2, 8970, Note_on_c, 0, 73, 0
2, 8970, Note_on_c, 0, 75, 64
2, 9000, Note_on_c, 0, 75, 0
2, 9000, Note_on_c, 0, 77, 64
2, 9060, Note_on_c, 0, 77, 0
2, 9060, Note_on_c, 0, 75, 64
2, 9120, Note_on_c, 0, 75, 0
2, 9120, Note_on_c, 0, 73, 64
2, 9150, Note_on_c, 0, 73, 0
2, 9150, Note_on_c, 0, 75, 64
2, 9180, Note_on_c, 0, 75, 0
2, 9180, Note_on_c, 0, 73, 64
2, 9210, Note_on_c, 0, 73, 0
2, 9210, Note_on_c, 0, 72, 64
2, 9240, Note_on_c, 0, 72, 0
2, 9240, Note_on_c, 0, 73, 64
2, 9270, Note_on_c, 0, 73, 0
2, 9270, Note_on_c, 0, 75, 64
2, 9300, Note_on_c, 0, 75, 0
2, 9300, Note_on_c, 0, 72, 64
2, 9330, Note_on_c, 0, 72, 0
2, 9330, Note_on_c, 0, 73, 64
2, 9360, Note_on_c, 0, 73, 0
2, 9360, Note_on_c, 0, 70, 64
2, 9390, Note_on_c, 0, 70, 0
2, 9390, Note_on_c, 0, 80, 64
2, 9420, Note_on_c, 0, 80, 0
2, 9420, Note_on_c, 0, 79, 64
2, 9450, Note_on_c, 0, 79, 0
2, 9450, Note_on_c, 0, 77, 64
2, 9480, Note_on_c, 0, 77, 0
2, 9480, Note_on_c, 0, 79, 64
2, 9510, Note_on_c, 0, 79, 0
2, 9510, Note_on_c, 0, 80, 64
2, 9540, Note_on_c, 0, 80, 0
2, 9540, Note_on_c, 0, 77, 64
2, 9570, Note_on_c, 0, 77, 0
2, 9570, Note_on_c, 0, 79, 64
2, 9600, Note_on_c, 0, 79, 0
2, 9600, Note_on_c, 0, 80, 64
2, 9630, Note_on_c, 0, 80, 0
2, 9630, Note_on_c, 0, 73, 64
2, 9660, Note_on_c, 0, 73, 0
2, 9660, Note_on_c, 0, 72, 64
2, 9690, Note_on_c, 0, 72, 0
2, 9690, Note_on_c, 0, 70, 64
2, 9720, Note_on_c, 0, 70, 0
2, 9720, Note_on_c, 0, 72, 64
2, 9750, Note_on_c, 0, 72, 0
2, 9750, Note_on_c, 0, 73, 64
2, 9780, Note_on_c, 0, 73, 0
2, 9780, Note_on_c, 0, 70, 64
2, 9810, Note_on_c, 0, 70, 0
2, 9810, Note_on_c, 0, 72, 64
2, 9840, Note_on_c, 0, 72, 0
2, 9840, Note_on_c, 0, 68, 64
2, 9870, Note_on_c, 0, 68, 0
2, 9870, Note_on_c, 0, 79, 64
2, 9900, Note_on_c, 0, 79, 0
2, 9900, Note_on_c, 0, 77, 64
2, 9930, Note_on_c, 0, 77, 0
2, 9930, Note_on_c, 0, 76, 64
2, 9960, Note_on_c, 0, 76, 0
2, 9960, Note_on_c, 0, 77, 64
2, 9990, Note_on_c, 0, 77, 0
2, 9990, Note_on_c, 0, 79, 64
2, 10020, Note_on_c, 0, 79, 0
2, 10020, Note_on_c, 0, 76, 64
2, 10050, Note_on_c, 0, 76, 0
2, 10050, Note_on_c, 0, 77, 64
2, 10080, Note_on_c, 0, 77, 0
2, 10080, Note_on_c, 0, 79, 64
2, 10110, Note_on_c, 0, 79, 0
2, 10110, Note_on_c, 0, 72, 64
2, 10140, Note_on_c, 0, 72, 0
2, 10140, Note_on_c, 0, 70, 64
2, 10170, Note_on_c, 0, 70, 0
2, 10170, Note_on_c, 0, 68, 64
2, 10200, Note_on_c, 0, 68, 0
2, 10200, Note_on_c, 0, 70, 64
2, 10230, Note_on_c, 0, 70, 0
2, 10230, Note_on_c, 0, 72, 64
2, 10260, Note_on_c, 0, 72, 0
2, 10260, Note_on_c, 0, 68, 64
2, 10290, Note_on_c, 0, 68, 0
2, 10290, Note_on_c, 0, 70, 64
2, 10320, Note_on_c, 0, 70, 0
2, 10320, Note_on_c, 0, 67, 64
2, 10350, Note_on_c, 0, 67, 0
2, 10350, Note_on_c, 0, 77, 64
2, 10380, Note_on_c, 0, 77, 0
2, 10380, Note_on_c, 0, 76, 64
2, 10410, Note_on_c, 0, 76, 0
2, 10410, Note_on_c, 0, 74, 64
2, 10440, Note_on_c, 0, 74, 0
2, 10440, Note_on_c, 0, 76, 64
2, 10470, Note_on_c, 0, 76, 0
2, 10470, Note_on_c, 0, 77, 64
2, 10500, Note_on_c, 0, 77, 0
2, 10500, Note_on_c, 0, 74, 64
2, 10530, Note_on_c, 0, 74, 0
2, 10530, Note_on_c, 0, 76, 64
2, 10560, Note_on_c, 0, 76, 0
2, 10560, Note_on_c, 0, 77, 64
2, 10620, Note_on_c, 0, 77, 0
2, 10620, Note_on_c, 0, 68, 64
2, 10650, Note_on_c, 0, 68, 0
2, 10650, Note_on_c, 0, 67, 64
2, 10680, Note_on_c, 0, 67, 0
2, 10680, Note_on_c, 0, 68, 64
2, 10710, Note_on_c, 0, 68, 0
2, 10740, Note_on_c, 0, 70, 64
2, 10770, Note_on_c, 0, 70, 0
2, 10800, Note_on_c, 0, 72, 90
2, 10815, Note_on_c, 0, 72, 0
2, 10815, Note_on_c, 0, 70, 64
2, 10830, Note_on_c, 0, 70, 0
2, 10830, Note_on_c, 0, 72, 64
2, 10920, Note_on_c, 0, 72, 0
2, 10920, Note_on_c, 0, 73, 90
2, 11040, Note_on_c, 0, 73, 0
2, 11100, Note_on_c, 0, 70, 64
2, 11130, Note_on_c, 0, 70, 0
2, 11130, Note_on_c, 0, 68, 64
2, 11160, Note_on_c, 0, 68, 0
2, 11160, Note_on_c, 0, 70, 64
2, 11190, Note_on_c, 0, 70, 0
2, 11220, Note_on_c, 0, 72, 64
2, 11250, Note_on_c, 0, 72, 0
2, 11280, Note_on_c, 0, 73, 90
2, 11295, Note_on_c, 0, 73, 0
2, 11295, Note_on_c, 0, 72, 64
2, 11310, Note_on_c, 0, 72, 0
2, 11310, Note_on_c, 0, 73, 64
2, 11400, Note_on_c, 0, 73, 0
2, 11400, Note_on_c, 0, 75, 90
2, 11520, Note_on_c, 0, 75, 0
2, 11520, Note_on_c, 0, 72, 64
2, 11550, Note_on_c, 0, 72, 0
2, 11550, Note_on_c, 0, 80, 64
2, 11580, Note_on_c, 0, 80, 0
2, 11580, Note_on_c, 0, 79, 64
2, 11610, Note_on_c, 0, 79, 0
2, 11610, Note_on_c, 0, 80, 64
2, 11640, Note_on_c, 0, 80, 0
2, 11640, Note_on_c, 0, 77, 64
2, 11670, Note_on_c, 0, 77, 0
2, 11670, Note_on_c, 0, 79, 64
2, 11700, Note_on_c, 0, 79, 0
2, 11700, Note_on_c, 0, 75, 64
2, 11730, Note_on_c, 0, 75, 0
2, 11730, Note_on_c, 0, 77, 64
2, 11760, Note_on_c, 0, 77, 0
2, 11760, Note_on_c, 0, 73, 64
2, 11790, Note_on_c, 0, 73, 0
2, 11790, Note_on_c, 0, 82, 64
2, 11820, Note_on_c, 0, 82, 0
2, 11820, Note_on_c, 0, 80, 64
2, 11850, Note_on_c, 0, 80, 0
2, 11850, Note_on_c, 0, 82, 64
2, 11880, Note_on_c, 0, 82, 0
2, 11880, Note_on_c, 0, 72, 64
2, 11910, Note_on_c, 0, 72, 0
2, 11910, Note_on_c, 0, 73, 64
2, 11940, Note_on_c, 0, 73, 0
2, 11940, Note_on_c, 0, 70, 64
2, 11970, Note_on_c, 0, 70, 0
2, 11970, Note_on_c, 0, 72, 64
2, 12000, Note_on_c, 0, 72, 0
2, 12000, Note_on_c, 0, 68, 64
2, 12030, Note_on_c, 0, 68, 0
2, 12030, Note_on_c, 0, 72, 64
2, 12060, Note_on_c, 0, 72, 0
2, 12060, Note_on_c, 0, 70, 64
2, 12090, Note_on_c, 0, 70, 0
2, 12090, Note_on_c, 0, 72, 64
2, 12120, Note_on_c, 0, 72, 0
2, 12120, Note_on_c, 0, 68, 64
2, 12150, Note_on_c, 0, 68, 0
2, 12150, Note_on_c, 0, 70, 64
2, 12180, Note_on_c, 0, 70, 0
2, 12180, Note_on_c, 0, 67, 64
2, 12210, Note_on_c, 0, 67, 0
2, 12210, Note_on_c, 0, 68, 64
2, 12240, Note_on_c, 0, 68, 0
2, 12240, Note_on_c, 0, 65, 64
2, 12270, Note_on_c, 0, 65, 0
2, 12270, Note_on_c, 0, 75, 64
2, 12300, Note_on_c, 0, 75, 0
2, 12300, Note_on_c, 0, 74, 64
2, 12330, Note_on_c, 0, 74, 0
2, 12330, Note_on_c, 0, 72, 64
2, 12360, Note_on_c, 0, 72, 0
2, 12360, Note_on_c, 0, 74, 64
2, 12390, Note_on_c, 0, 74, 0
2, 12390, Note_on_c, 0, 75, 64
2, 12420, Note_on_c, 0, 75, 0
2, 12420, Note_on_c, 0, 72, 64
2, 12450, Note_on_c, 0, 72, 0
2, 12450, Note_on_c, 0, 74, 64
2, 12480, Note_on_c, 0, 74, 0
2, 12480, Note_on_c, 0, 75, 64
2, 12480, Control_c, 0, 7, 110
2, 12540, Note_on_c, 0, 75, 0
2, 12540, Note_on_c, 0, 63, 64
2, 12550, Control_c, 0, 7, 111
2, 12570, Note_on_c, 0, 63, 0
2, 12570, Note_on_c, 0, 62, 64
2, 12600, Note_on_c, 0, 62, 0
2, 12600, Note_on_c, 0, 63, 64
2, 12610, Control_c, 0, 7, 112
2, 12630, Note_on_c, 0, 63, 0
2, 12660, Note_on_c, 0, 65, 64
2, 12670, Control_c, 0, 7, 113
2, 12690, Note_on_c, 0, 65, 0
2, 12720, Note_on_c, 0, 67, 64
2, 12720, Control_c, 0, 7, 96
2, 12735, Note_on_c, 0, 67, 0
2, 12735, Note_on_c, 0, 65, 64
2, 12750, Note_on_c, 0, 65, 0
2, 12750, Note_on_c, 0, 67, 64
2, 12840, Note_on_c, 0, 67, 0
2, 12840, Note_on_c, 0, 68, 64
2, 12950, Control_c, 0, 7, 97
2, 12960, Note_on_c, 0, 68, 0
2, 13020, Note_on_c, 0, 65, 64
2, 13050, Note_on_c, 0, 65, 0
2, 13050, Note_on_c, 0, 63, 64
2, 13080, Note_on_c, 0, 63, 0
2, 13080, Note_on_c, 0, 65, 64
2, 13110, Note_on_c, 0, 65, 0
2, 13140, Note_on_c, 0, 67, 64
2, 13170, Note_on_c, 0, 67, 0
2, 13200, Note_on_c, 0, 68, 64
2, 13215, Note_on_c, 0, 68, 0
2, 13215, Note_on_c, 0, 67, 64
2, 13230, Note_on_c, 0, 67, 0
2, 13230, Note_on_c, 0, 68, 64
2, 13320, Note_on_c, 0, 68, 0
2, 13320, Note_on_c, 0, 70, 64
2, 13440, Note_on_c, 0, 70, 0
2, 13440, Note_on_c, 0, 67, 64
2, 13500, Note_on_c, 0, 67, 0
2, 13500, Note_on_c, 0, 72, 64
2, 13560, Note_on_c, 0, 72, 0
2, 13560, Note_on_c, 0, 70, 64
2, 13575, Note_on_c, 0, 70, 0
2, 13575, Note_on_c, 0, 72, 64
2, 13590, Note_on_c, 0, 72, 0
2, 13590, Note_on_c, 0, 70, 64
2, 13620, Note_on_c, 0, 70, 0
2, 13620, Note_on_c, 0, 68, 64
2, 13680, Note_on_c, 0, 68, 0
2, 13680, Note_on_c, 0, 67, 64
2, 13710, Note_on_c, 0, 67, 0
2, 13710, Note_on_c, 0, 68, 64
2, 13740, Note_on_c, 0, 68, 0
2, 13740, Note_on_c, 0, 70, 64
2, 13770, Note_on_c, 0, 70, 0
2, 13770, Note_on_c, 0, 68, 64
2, 13800, Note_on_c, 0, 68, 0
2, 13800, Note_on_c, 0, 67, 64
2, 13860, Note_on_c, 0, 67, 0
2, 13860, Note_on_c, 0, 65, 64
2, 13920, Note_on_c, 0, 65, 0
2, 13920, Note_on_c, 0, 63, 64
2, 13980, Note_on_c, 0, 63, 0
2, 13980, Note_on_c, 0, 77, 64
2, 14040, Note_on_c, 0, 77, 0
2, 14040, Note_on_c, 0, 75, 64
2, 14100, Note_on_c, 0, 75, 0
2, 14100, Note_on_c, 0, 73, 64
2, 14160, Note_on_c, 0, 73, 0
2, 14160, Note_on_c, 0, 72, 64
2, 14190, Note_on_c, 0, 72, 0
2, 14190, Note_on_c, 0, 73, 64
2, 14220, Note_on_c, 0, 73, 0
2, 14220, Note_on_c, 0, 75, 64
2, 14250, Note_on_c, 0, 75, 0
2, 14250, Note_on_c, 0, 73, 64
2, 14280, Note_on_c, 0, 73, 0
2, 14280, Note_on_c, 0, 72, 64
2, 14340, Note_on_c, 0, 72, 0
2, 14340, Note_on_c, 0, 70, 64
2, 14400, Note_on_c, 0, 70, 0
2, 14400, Note_on_c, 0, 68, 64
2, 14460, Note_on_c, 0, 68, 0
2, 14460, Note_on_c, 0, 72, 64
2, 14520, Note_on_c, 0, 72, 0
2, 14520, Note_on_c, 0, 75, 64
2, 14580, Note_on_c, 0, 75, 0
2, 14580, Note_on_c, 0, 80, 64
2, 14670, Note_on_c, 0, 80, 0
2, 14670, Note_on_c, 0, 77, 64
2, 14700, Note_on_c, 0, 77, 0
2, 14700, Note_on_c, 0, 79, 64
2, 14730, Note_on_c, 0, 79, 0
2, 14730, Note_on_c, 0, 80, 64
2, 14760, Note_on_c, 0, 80, 0
2, 14760, Note_on_c, 0, 82, 64
2, 14820, Note_on_c, 0, 82, 0
2, 14820, Note_on_c, 0, 80, 64
2, 14880, Note_on_c, 0, 80, 0
2, 14880, Note_on_c, 0, 80, 64
2, 14895, Note_on_c, 0, 80, 0
2, 14895, Note_on_c, 0, 79, 64
2, 14955, Note_on_c, 0, 79, 0
2, 14955, Note_on_c, 0, 77, 64
2, 14970, Note_on_c, 0, 77, 0
2, 14970, Note_on_c, 0, 75, 64
2, 14985, Note_on_c, 0, 75, 0
2, 14985, Note_on_c, 0, 77, 64
2, 15000, Note_on_c, 0, 77, 0
2, 15000, Note_on_c, 0, 79, 64
2, 15015, Note_on_c, 0, 79, 0
2, 15015, Note_on_c, 0, 77, 64
2, 15030, Note_on_c, 0, 77, 0
2, 15030, Note_on_c, 0, 79, 64
2, 15045, Note_on_c, 0, 79, 0
2, 15045, Note_on_c, 0, 77, 64
2, 15060, Note_on_c, 0, 77, 0
2, 15060, Note_on_c, 0, 79, 64
2, 15075, Note_on_c, 0, 79, 0
2, 15075, Note_on_c, 0, 77, 64
2, 15090, Note_on_c, 0, 77, 0
2, 15090, Note_on_c, 0, 75, 64
2, 15105, Note_on_c, 0, 75, 0
2, 15105, Note_on_c, 0, 77, 64
2, 15120, Note_on_c, 0, 77, 0
2, 15121, Note_on_c, 0, 75, 64
2, 15361, Note_on_c, 0, 75, 0
2, 15361, End_track
3, 0, Start_track
3, 0, Title_t, "Track 4"
3, 0, Program_c, 2, 0
3, 0, Control_c, 2, 7, 100
3, 0, Control_c, 2, 10, 93
3, 0, Note_on_c, 2, 51, 64
3, 15, Note_on_c, 2, 51, 0
3, 15, Note_on_c, 2, 50, 64
3, 30, Note_on_c, 2, 50, 0
3, 30, Note_on_c, 2, 51, 64
3, 50, Control_c, 2, 7, 112
3, 120, Note_on_c, 2, 51, 0
3, 120, Note_on_c, 2, 39, 64
3, 160, Control_c, 2, 7, 113
3, 240, Note_on_c, 2, 39, 0
3, 270, Note_on_c, 2, 51, 64
3, 300, Note_on_c, 2, 51, 0
3, 300, Note_on_c, 2, 50, 64
3, 330, Note_on_c, 2, 50, 0
3, 330, Note_on_c, 2, 51, 64
3, 360, Note_on_c, 2, 51, 0
3, 360, Note_on_c, 2, 48, 64
3, 390, Note_on_c, 2, 48, 0
3, 390, Note_on_c, 2, 50, 64
3, 420, Note_on_c, 2, 50, 0
3, 420, Note_on_c, 2, 46, 64
3, 450, Note_on_c, 2, 46, 0
3, 450, Note_on_c, 2, 48, 64
3, 480, Note_on_c, 2, 48, 0
3, 480, Note_on_c, 2, 44, 64
3, 510, Note_on_c, 2, 44, 0
3, 510, Note_on_c, 2, 48, 64
3, 540, Note_on_c, 2, 48, 0
3, 540, Note_on_c, 2, 46, 64
3, 570, Note_on_c, 2, 46, 0
3, 570, Note_on_c, 2, 48, 64
3, 600, Note_on_c, 2, 48, 0
3, 600, Note_on_c, 2, 44, 64
3, 630, Note_on_c, 2, 44, 0
3, 630, Note_on_c, 2, 46, 64
3, 660, Note_on_c, 2, 46, 0
3, 660, Note_on_c, 2, 43, 64
3, 690, Note_on_c, 2, 43, 0
3, 690, Note_on_c, 2, 44, 64
3, 720, Note_on_c, 2, 44, 0
3, 720, Note_on_c, 2, 41, 64
3, 750, Note_on_c, 2, 41, 0
3, 750, Note_on_c, 2, 51, 64
3, 780, Note_on_c, 2, 51, 0
3, 780, Note_on_c, 2, 50, 64
3, 810, Note_on_c, 2, 50, 0
3, 810, Note_on_c, 2, 48, 64
3, 840, Note_on_c, 2, 48, 0
3, 840, Note_on_c, 2, 50, 64
3, 870, Note_on_c, 2, 50, 0
3, 870, Note_on_c, 2, 51, 64
3, 900, Note_on_c, 2, 51, 0
3, 900, Note_on_c, 2, 48, 64
3, 930, Note_on_c, 2, 48, 0
3, 930, Note_on_c, 2, 50, 64
3, 960, Note_on_c, 2, 50, 0
3, 960, Note_on_c, 2, 39, 64
3, 990, Note_on_c, 2, 39, 0
3, 990, Note_on_c, 2, 51, 64
3, 1020, Note_on_c, 2, 51, 0
3, 1020, Note_on_c, 2, 50, 64
3, 1050, Note_on_c, 2, 50, 0
3, 1050, Note_on_c, 2, 48, 64
3, 1080, Note_on_c, 2, 48, 0
3, 1080, Note_on_c, 2, 50, 64
3, 1110, Note_on_c, 2, 50, 0
3, 1110, Note_on_c, 2, 51, 64
3, 1140, Note_on_c, 2, 51, 0
3, 1140, Note_on_c, 2, 48, 64
3, 1170, Note_on_c, 2, 48, 0
3, 1170, Note_on_c, 2, 50, 64
3, 1200, Note_on_c, 2, 50, 0
3, 1200, Note_on_c, 2, 46, 64
3, 1230, Note_on_c, 2, 46, 0
3, 1230, Note_on_c, 2, 51, 64
3, 1250, Control_c, 2, 7, 107
3, 1260, Note_on_c, 2, 51, 0
3, 1260, Note_on_c, 2, 50, 64
3, 1260, Control_c, 2, 7, 106
3, 1270, Control_c, 2, 7, 104
3, 1280, Control_c, 2, 7, 103
3, 1290, Note_on_c, 2, 50, 0
3, 1290, Note_on_c, 2, 48, 64
3, 1290, Control_c, 2, 7, 101
3, 1300, Control_c, 2, 7, 100
3, 1310, Control_c, 2, 7, 98
3, 1320, Note_on_c, 2, 48, 0
3, 1320, Note_on_c, 2, 46, 64
3, 1320, Control_c, 2, 7, 96
3, 1330, Control_c, 2, 7, 95
3, 1340, Control_c, 2, 7, 93
3, 1350, Note_on_c, 2, 46, 0
3, 1350, Note_on_c, 2, 48, 64
3, 1350, Control_c, 2, 7, 92
3, 1360, Control_c, 2, 7, 90
3, 1370, Control_c, 2, 7, 88
3, 1380, Note_on_c, 2, 48, 0
3, 1380, Note_on_c, 2, 44, 64
3, 1380, Control_c, 2, 7, 87
3, 1390, Control_c, 2, 7, 85
3, 1400, Control_c, 2, 7, 84
3, 1410, Note_on_c, 2, 44, 0
3, 1410, Note_on_c, 2, 46, 64
3, 1410, Control_c, 2, 7, 82
3, 1420, Control_c, 2, 7, 80
3, 1440, Note_on_c, 2, 46, 0
3, 1440, Note_on_c, 2, 43, 64
3, 1470, Note_on_c, 2, 43, 0
3, 1470, Note_on_c, 2, 48, 64
3, 1500, Note_on_c, 2, 48, 0
3, 1500, Note_on_c, 2, 46, 64
3, 1530, Note_on_c, 2, 46, 0
3, 1530, Note_on_c, 2, 44, 64
3, 1560, Note_on_c, 2, 44, 0
3, 1560, Note_on_c, 2, 43, 64
3, 1590, Note_on_c, 2, 43, 0
3, 1590, Note_on_c, 2, 44, 64
3, 1620, Note_on_c, 2, 44, 0
3, 1620, Note_on_c, 2, 41, 64
3, 1650, Note_on_c, 2, 41, 0
3, 1650, Note_on_c, 2, 43, 64
3, 1680, Note_on_c, 2, 43, 0
3, 1680, Note_on_c, 2, 36, 64
3, 1710, Note_on_c, 2, 36, 0
3, 1710, Note_on_c, 2, 46, 64
3, 1740, Note_on_c, 2, 46, 0
3, 1740, Note_on_c, 2, 45, 64
3, 1770, Note_on_c, 2, 45, 0
3, 1770, Note_on_c, 2, 43, 64
3, 1800, Note_on_c, 2, 43, 0
3, 1800, Note_on_c, 2, 45, 64
3, 1830, Note_on_c, 2, 45, 0
3, 1830, Note_on_c, 2, 46, 64
3, 1860, Note_on_c, 2, 46, 0
3, 1860, Note_on_c, 2, 43, 64
3, 1890, Note_on_c, 2, 43, 0
3, 1890, Note_on_c, 2, 45, 64
3, 1920, Note_on_c, 2, 45, 0
3, 1920, Note_on_c, 2, 46, 64
3, 1930, Control_c, 2, 7, 112
3, 1960, Control_c, 2, 7, 110
3, 1980, Note_on_c, 2, 46, 0
3, 1980, Note_on_c, 2, 46, 64
3, 2010, Note_on_c, 2, 46, 0
3, 2010, Note_on_c, 2, 45, 64
3, 2040, Note_on_c, 2, 45, 0
3, 2040, Note_on_c, 2, 46, 64
3, 2070, Note_on_c, 2, 46, 0
3, 2100, Note_on_c, 2, 48, 64
3, 2130, Note_on_c, 2, 48, 0
3, 2160, Note_on_c, 2, 50, 90
3, 2160, Control_c, 2, 7, 87
3, 2175, Note_on_c, 2, 50, 0
3, 2175, Note_on_c, 2, 49, 64
3, 2190, Note_on_c, 2, 49, 0
3, 2190, Note_on_c, 2, 50, 64
3, 2280, Note_on_c, 2, 50, 0
3, 2280, Note_on_c, 2, 51, 90
3, 2400, Note_on_c, 2, 51, 0
3, 2460, Note_on_c, 2, 48, 64
3, 2490, Note_on_c, 2, 48, 0
3, 2490, Note_on_c, 2, 46, 64
3, 2520, Note_on_c, 2, 46, 0
3, 2520, Note_on_c, 2, 48, 64
3, 2550, Note_on_c, 2, 48, 0
3, 2580, Note_on_c, 2, 50, 64
3, 2610, Note_on_c, 2, 50, 0
3, 2640, Note_on_c, 2, 51, 90
3, 2655, Note_on_c, 2, 51, 0
3, 2655, Note_on_c, 2, 50, 64
3, 2670, Note_on_c, 2, 50, 0
3, 2670, Note_on_c, 2, 51, 64
3, 2760, Note_on_c, 2, 51, 0
3, 2760, Note_on_c, 2, 53, 90
3, 2880, Note_on_c, 2, 53, 0
3, 2880, Note_on_c, 2, 50, 64
3, 2940, Note_on_c, 2, 50, 0
3, 2940, Note_on_c, 2, 55, 64
3, 3000, Note_on_c, 2, 55, 0
3, 3000, Note_on_c, 2, 53, 64
3, 3015, Note_on_c, 2, 53, 0
3, 3015, Note_on_c, 2, 55, 64
3, 3030, Note_on_c, 2, 55, 0
3, 3030, Note_on_c, 2, 53, 64
3, 3060, Note_on_c, 2, 53, 0
3, 3060, Note_on_c, 2, 51, 64
3, 3120, Note_on_c, 2, 51, 0
3, 3120, Note_on_c, 2, 50, 64
3, 3150, Note_on_c, 2, 50, 0
3, 3150, Note_on_c, 2, 51, 64
3, 3180, Note_on_c, 2, 51, 0
3, 3180, Note_on_c, 2, 53, 64
3, 3210, Note_on_c, 2, 53, 0
3, 3210, Note_on_c, 2, 51, 64
3, 3240, Note_on_c, 2, 51, 0
3, 3240, Note_on_c, 2, 50, 64
3, 3300, Note_on_c, 2, 50, 0
3, 3300, Note_on_c, 2, 48, 64
3, 3360, Note_on_c, 2, 48, 0
3, 3360, Note_on_c, 2, 46, 64
3, 3420, Note_on_c, 2, 46, 0
3, 3420, Note_on_c, 2, 50, 64
3, 3480, Note_on_c, 2, 50, 0
3, 3480, Note_on_c, 2, 53, 64
3, 3540, Note_on_c, 2, 53, 0
3, 3540, Note_on_c, 2, 56, 64
3, 3630, Note_on_c, 2, 56, 0
3, 3630, Note_on_c, 2, 53, 64
3, 3660, Note_on_c, 2, 53, 0
3, 3660, Note_on_c, 2, 55, 64
3, 3690, Note_on_c, 2, 55, 0
3, 3690, Note_on_c, 2, 56, 64
3, 3720, Note_on_c, 2, 56, 0
3, 3720, Note_on_c, 2, 58, 64
3, 3780, Note_on_c, 2, 58, 0
3, 3780, Note_on_c, 2, 56, 64
3, 3840, Note_on_c, 2, 56, 0
3, 3840, Note_on_c, 2, 55, 64
3, 3870, Note_on_c, 2, 55, 0
3, 3870, Note_on_c, 2, 56, 64
3, 3900, Note_on_c, 2, 56, 0
3, 3900, Note_on_c, 2, 55, 64
3, 3930, Note_on_c, 2, 55, 0
3, 3930, Note_on_c, 2, 53, 64
3, 3960, Note_on_c, 2, 53, 0
3, 3960, Note_on_c, 2, 55, 64
3, 3990, Note_on_c, 2, 55, 0
3, 3990, Note_on_c, 2, 56, 64
3, 4020, Note_on_c, 2, 56, 0
3, 4020, Note_on_c, 2, 53, 64
3, 4050, Note_on_c, 2, 53, 0
3, 4050, Note_on_c, 2, 55, 64
3, 4080, Note_on_c, 2, 55, 0
3, 4080, Note_on_c, 2, 51, 64
3, 4110, Note_on_c, 2, 51, 0
3, 4110, Note_on_c, 2, 51, 64
3, 4140, Note_on_c, 2, 51, 0
3, 4140, Note_on_c, 2, 49, 64
3, 4170, Note_on_c, 2, 49, 0
3, 4170, Note_on_c, 2, 51, 64
3, 4200, Note_on_c, 2, 51, 0
3, 4200, Note_on_c, 2, 48, 64
3, 4230, Note_on_c, 2, 48, 0
3, 4230, Note_on_c, 2, 49, 64
3, 4260, Note_on_c, 2, 49, 0
3, 4260, Note_on_c, 2, 46, 64
3, 4290, Note_on_c, 2, 46, 0
3, 4290, Note_on_c, 2, 48, 64
3, 4320, Note_on_c, 2, 48, 0
3, 4320, Note_on_c, 2, 44, 64
3, 4350, Note_on_c, 2, 44, 0
3, 4350, Note_on_c, 2, 46, 64
3, 4380, Note_on_c, 2, 46, 0
3, 4380, Note_on_c, 2, 44, 64
3, 4410, Note_on_c, 2, 44, 0
3, 4410, Note_on_c, 2, 43, 64
3, 4440, Note_on_c, 2, 43, 0
3, 4440, Note_on_c, 2, 44, 64
3, 4470, Note_on_c, 2, 44, 0
3, 4470, Note_on_c, 2, 46, 64
3, 4500, Note_on_c, 2, 46, 0
3, 4500, Note_on_c, 2, 43, 64
3, 4530, Note_on_c, 2, 43, 0
3, 4530, Note_on_c, 2, 44, 64
3, 4560, Note_on_c, 2, 44, 0
3, 4560, Note_on_c, 2, 41, 64
3, 4590, Note_on_c, 2, 41, 0
3, 4590, Note_on_c, 2, 53, 64
3, 4620, Note_on_c, 2, 53, 0
3, 4620, Note_on_c, 2, 51, 64
3, 4650, Note_on_c, 2, 51, 0
3, 4650, Note_on_c, 2, 53, 64
3, 4680, Note_on_c, 2, 53, 0
3, 4680, Note_on_c, 2, 50, 64
3, 4710, Note_on_c, 2, 50, 0
3, 4710, Note_on_c, 2, 51, 64
3, 4740, Note_on_c, 2, 51, 0
3, 4740, Note_on_c, 2, 48, 64
3, 4770, Note_on_c, 2, 48, 0
3, 4770, Note_on_c, 2, 50, 64
3, 4800, Note_on_c, 2, 50, 0
3, 4800, Note_on_c, 2, 46, 64
3, 4830, Note_on_c, 2, 46, 0
3, 4830, Note_on_c, 2, 48, 64
3, 4860, Note_on_c, 2, 48, 0
3, 4860, Note_on_c, 2, 46, 64
3, 4890, Note_on_c, 2, 46, 0
3, 4890, Note_on_c, 2, 45, 64
3, 4920, Note_on_c, 2, 45, 0
3, 4920, Note_on_c, 2, 46, 64
3, 4950, Note_on_c, 2, 46, 0
3, 4950, Note_on_c, 2, 48, 64
3, 4980, Note_on_c, 2, 48, 0
3, 4980, Note_on_c, 2, 44, 64
3, 5010, Note_on_c, 2, 44, 0
3, 5010, Note_on_c, 2, 46, 64
3, 5040, Note_on_c, 2, 46, 0
3, 5040, Note_on_c, 2, 43, 64
3, 5070, Note_on_c, 2, 43, 0
3, 5070, Note_on_c, 2, 44, 64
3, 5100, Note_on_c, 2, 44, 0
3, 5100, Note_on_c, 2, 41, 64
3, 5130, Note_on_c, 2, 41, 0
3, 5130, Note_on_c, 2, 43, 64
3, 5160, Note_on_c, 2, 43, 0
3, 5160, Note_on_c, 2, 39, 64
3, 5190, Note_on_c, 2, 39, 0
3, 5190, Note_on_c, 2, 41, 64
3, 5220, Note_on_c, 2, 41, 0
3, 5220, Note_on_c, 2, 38, 64
3, 5250, Note_on_c, 2, 38, 0
3, 5250, Note_on_c, 2, 39, 64
3, 5280, Note_on_c, 2, 39, 0
3, 5280, Note_on_c, 2, 36, 64
3, 5280, Control_c, 2, 7, 112
3, 5340, Note_on_c, 2, 36, 0
3, 5340, Note_on_c, 2, 48, 64
3, 5370, Note_on_c, 2, 48, 0
3, 5370, Note_on_c, 2, 47, 64
3, 5400, Note_on_c, 2, 47, 0
3, 5400, Note_on_c, 2, 48, 64
3, 5430, Note_on_c, 2, 48, 0
3, 5460, Note_on_c, 2, 50, 64
3, 5490, Note_on_c, 2, 50, 0
3, 5510, Control_c, 2, 7, 94
3, 5520, Note_on_c, 2, 51, 90
3, 5535, Note_on_c, 2, 51, 0
3, 5535, Note_on_c, 2, 50, 64
3, 5550, Note_on_c, 2, 50, 0
3, 5550, Note_on_c, 2, 51, 64
3, 5640, Note_on_c, 2, 51, 0
3, 5640, Note_on_c, 2, 53, 90
3, 5760, Note_on_c, 2, 53, 0
3, 5820, Note_on_c, 2, 50, 64
3, 5850, Note_on_c, 2, 50, 0
3, 5850, Note_on_c, 2, 48, 64
3, 5880, Note_on_c, 2, 48, 0
3, 5880, Note_on_c, 2, 50, 64
3, 5910, Note_on_c, 2, 50, 0
3, 5940, Note_on_c, 2, 51, 64
3, 5970, Note_on_c, 2, 51, 0
3, 6000, Note_on_c, 2, 53, 90
3, 6015, Note_on_c, 2, 53, 0
3, 6015, Note_on_c, 2, 52, 64
3, 6030, Note_on_c, 2, 52, 0
3, 6030, Note_on_c, 2, 53, 64
3, 6120, Note_on_c, 2, 53, 0
3, 6120, Note_on_c, 2, 55, 90
3, 6240, Note_on_c, 2, 55, 0
3, 6240, Note_on_c, 2, 51, 64
3, 6300, Note_on_c, 2, 51, 0
3, 6300, Note_on_c, 2, 56, 64
3, 6360, Note_on_c, 2, 56, 0
3, 6360, Note_on_c, 2, 55, 64
3, 6375, Note_on_c, 2, 55, 0
3, 6375, Note_on_c, 2, 56, 64
3, 6390, Note_on_c, 2, 56, 0
3, 6390, Note_on_c, 2, 55, 64
3, 6420, Note_on_c, 2, 55, 0
3, 6420, Note_on_c, 2, 53, 64
3, 6480, Note_on_c, 2, 53, 0
3, 6480, Note_on_c, 2, 52, 64
3, 6510, Note_on_c, 2, 52, 0
3, 6510, Note_on_c, 2, 53, 64
3, 6540, Note_on_c, 2, 53, 0
3, 6540, Note_on_c, 2, 55, 64
3, 6570, Note_on_c, 2, 55, 0
3, 6570, Note_on_c, 2, 53, 64
3, 6600, Note_on_c, 2, 53, 0
3, 6600, Note_on_c, 2, 52, 64
3, 6660, Note_on_c, 2, 52, 0
3, 6660, Note_on_c, 2, 50, 64
3, 6720, Note_on_c, 2, 50, 0
3, 6720, Note_on_c, 2, 48, 64
3, 6780, Note_on_c, 2, 48, 0
3, 6780, Note_on_c, 2, 52, 64
3, 6840, Note_on_c, 2, 52, 0
3, 6840, Note_on_c, 2, 55, 64
3, 6900, Note_on_c, 2, 55, 0
3, 6900, Note_on_c, 2, 58, 64
3, 6990, Note_on_c, 2, 58, 0
3, 6990, Note_on_c, 2, 55, 64
3, 7020, Note_on_c, 2, 55, 0
3, 7020, Note_on_c, 2, 56, 64
3, 7050, Note_on_c, 2, 56, 0
3, 7050, Note_on_c, 2, 58, 64
3, 7080, Note_on_c, 2, 58, 0
3, 7080, Note_on_c, 2, 60, 64
3, 7140, Note_on_c, 2, 60, 0
3, 7140, Note_on_c, 2, 58, 64
3, 7200, Note_on_c, 2, 58, 0
3, 7200, Note_on_c, 2, 56, 64
3, 7230, Note_on_c, 2, 56, 0
3, 7230, Note_on_c, 2, 58, 64
3, 7260, Note_on_c, 2, 58, 0
3, 7260, Note_on_c, 2, 56, 64
3, 7290, Note_on_c, 2, 56, 0
3, 7290, Note_on_c, 2, 55, 64
3, 7320, Note_on_c, 2, 55, 0
3, 7320, Note_on_c, 2, 56, 64
3, 7350, Note_on_c, 2, 56, 0
3, 7350, Note_on_c, 2, 58, 64
3, 7380, Note_on_c, 2, 58, 0
3, 7380, Note_on_c, 2, 55, 64
3, 7410, Note_on_c, 2, 55, 0
3, 7410, Note_on_c, 2, 56, 64
3, 7440, Note_on_c, 2, 56, 0
3, 7440, Note_on_c, 2, 53, 64
3, 7470, Note_on_c, 2, 53, 0
3, 7470, Note_on_c, 2, 53, 64
3, 7500, Note_on_c, 2, 53, 0
3, 7500, Note_on_c, 2, 51, 64
3, 7530, Note_on_c, 2, 51, 0
3, 7530, Note_on_c, 2, 53, 64
3, 7560, Note_on_c, 2, 53, 0
3, 7560, Note_on_c, 2, 49, 64
3, 7590, Note_on_c, 2, 49, 0
3, 7590, Note_on_c, 2, 51, 64
3, 7620, Note_on_c, 2, 51, 0
3, 7620, Note_on_c, 2, 48, 64
3, 7650, Note_on_c, 2, 48, 0
3, 7650, Note_on_c, 2, 49, 64
3, 7680, Note_on_c, 2, 49, 0
3, 7680, Note_on_c, 2, 46, 64
3, 7710, Note_on_c, 2, 46, 0
3, 7710, Note_on_c, 2, 49, 64
3, 7740, Note_on_c, 2, 49, 0
3, 7740, Note_on_c, 2, 48, 64
3, 7770, Note_on_c, 2, 48, 0
3, 7770, Note_on_c, 2, 49, 64
3, 7800, Note_on_c, 2, 49, 0
3, 7800, Note_on_c, 2, 46, 64
3, 7830, Note_on_c, 2, 46, 0
3, 7830, Note_on_c, 2, 48, 64
3, 7860, Note_on_c, 2, 48, 0
3, 7860, Note_on_c, 2, 44, 64
3, 7890, Note_on_c, 2, 44, 0
3, 7890, Note_on_c, 2, 46, 64
3, 7920, Note_on_c, 2, 46, 0
3, 7920, Note_on_c, 2, 43, 64
3, 7950, Note_on_c, 2, 43, 0
3, 7950, Note_on_c, 2, 53, 64
3, 7980, Note_on_c, 2, 53, 0
3, 7980, Note_on_c, 2, 52, 64
3, 8010, Note_on_c, 2, 52, 0
3, 8010, Note_on_c, 2, 50, 64
3, 8040, Note_on_c, 2, 50, 0
3, 8040, Note_on_c, 2, 52, 64
3, 8070, Note_on_c, 2, 52, 0
3, 8070, Note_on_c, 2, 53, 64
3, 8100, Note_on_c, 2, 53, 0
3, 8100, Note_on_c, 2, 50, 64
3, 8130, Note_on_c, 2, 50, 0
3, 8130, Note_on_c, 2, 52, 64
3, 8160, Note_on_c, 2, 52, 0
3, 8160, Note_on_c, 2, 41, 64
3, 8190, Note_on_c, 2, 41, 0
3, 8190, Note_on_c, 2, 53, 64
3, 8220, Note_on_c, 2, 53, 0
3, 8220, Note_on_c, 2, 51, 64
3, 8250, Note_on_c, 2, 51, 0
3, 8250, Note_on_c, 2, 49, 64
3, 8280, Note_on_c, 2, 49, 0
3, 8280, Note_on_c, 2, 51, 64
3, 8310, Note_on_c, 2, 51, 0
3, 8310, Note_on_c, 2, 53, 64
3, 8340, Note_on_c, 2, 53, 0
3, 8340, Note_on_c, 2, 49, 64
3, 8370, Note_on_c, 2, 49, 0
3, 8370, Note_on_c, 2, 51, 64
3, 8400, Note_on_c, 2, 51, 0
3, 8400, Note_on_c, 2, 48, 64
3, 8430, Note_on_c, 2, 48, 0
3, 8430, Note_on_c, 2, 53, 64
3, 8460, Note_on_c, 2, 53, 0
3, 8460, Note_on_c, 2, 51, 64
3, 8490, Note_on_c, 2, 51, 0
3, 8490, Note_on_c, 2, 49, 64
3, 8520, Note_on_c, 2, 49, 0
3, 8520, Note_on_c, 2, 48, 64
3, 8550, Note_on_c, 2, 48, 0
3, 8550, Note_on_c, 2, 49, 64
3, 8580, Note_on_c, 2, 49, 0
3, 8580, Note_on_c, 2, 46, 64
3, 8610, Note_on_c, 2, 46, 0
3, 8610, Note_on_c, 2, 48, 64
3, 8640, Note_on_c, 2, 48, 0
3, 8640, Note_on_c, 2, 45, 64
3, 8670, Note_on_c, 2, 45, 0
3, 8670, Note_on_c, 2, 49, 64
3, 8700, Note_on_c, 2, 49, 0
3, 8700, Note_on_c, 2, 48, 64
3, 8730, Note_on_c, 2, 48, 0
3, 8730, Note_on_c, 2, 46, 64
3, 8760, Note_on_c, 2, 46, 0
3, 8760, Note_on_c, 2, 45, 64
3, 8790, Note_on_c, 2, 45, 0
3, 8790, Note_on_c, 2, 46, 64
3, 8820, Note_on_c, 2, 46, 0
3, 8820, Note_on_c, 2, 43, 64
3, 8850, Note_on_c, 2, 43, 0
3, 8850, Note_on_c, 2, 45, 64
3, 8880, Note_on_c, 2, 45, 0
3, 8880, Note_on_c, 2, 36, 64
3, 8910, Note_on_c, 2, 36, 0
3, 8910, Note_on_c, 2, 46, 64
3, 8940, Note_on_c, 2, 46, 0
3, 8940, Note_on_c, 2, 45, 64
3, 8970, Note_on_c, 2, 45, 0
3, 8970, Note_on_c, 2, 43, 64
3, 9000, Note_on_c, 2, 43, 0
3, 9000, Note_on_c, 2, 45, 64
3, 9030, Note_on_c, 2, 45, 0
3, 9030, Note_on_c, 2, 46, 64
3, 9060, Note_on_c, 2, 46, 0
3, 9060, Note_on_c, 2, 43, 64
3, 9090, Note_on_c, 2, 43, 0
3, 9090, Note_on_c, 2, 45, 64
3, 9120, Note_on_c, 2, 45, 0
3, 9120, Note_on_c, 2, 46, 64
3, 9130, Control_c, 2, 7, 110
3, 9180, Note_on_c, 2, 46, 0
3, 9180, Note_on_c, 2, 46, 64
3, 9200, Control_c, 2, 7, 111
3, 9210, Note_on_c, 2, 46, 0
3, 9210, Note_on_c, 2, 45, 64
3, 9240, Note_on_c, 2, 45, 0
3, 9240, Note_on_c, 2, 46, 64
3, 9270, Note_on_c, 2, 46, 0
3, 9270, Control_c, 2, 7, 112
3, 9300, Note_on_c, 2, 48, 64
3, 9330, Note_on_c, 2, 48, 0
3, 9340, Control_c, 2, 7, 113
3, 9360, Note_on_c, 2, 49, 90
3, 9375, Note_on_c, 2, 49, 0
3, 9375, Note_on_c, 2, 48, 64
3, 9380, Control_c, 2, 7, 97
3, 9390, Note_on_c, 2, 48, 0
3, 9390, Note_on_c, 2, 49, 64
3, 9480, Note_on_c, 2, 49, 0
3, 9480, Note_on_c, 2, 51, 90
3, 9510, Control_c, 2, 7, 96
3, 9600, Note_on_c, 2, 51, 0
3, 9660, Note_on_c, 2, 44, 64
3, 9690, Note_on_c, 2, 44, 0
3, 9690, Note_on_c, 2, 43, 64
3, 9720, Note_on_c, 2, 43, 0
3, 9720, Note_on_c, 2, 44, 64
3, 9750, Note_on_c, 2, 44, 0
3, 9780, Note_on_c, 2, 46, 64
3, 9810, Note_on_c, 2, 46, 0
3, 9840, Note_on_c, 2, 48, 90
3, 9855, Note_on_c, 2, 48, 0
3, 9855, Note_on_c, 2, 47, 64
3, 9870, Note_on_c, 2, 47, 0
3, 9870, Note_on_c, 2, 48, 64
3, 9960, Note_on_c, 2, 48, 0
3, 9960, Note_on_c, 2, 49, 90
3, 10080, Note_on_c, 2, 49, 0
3, 10140, Note_on_c, 2, 43, 64
3, 10170, Note_on_c, 2, 43, 0
3, 10170, Note_on_c, 2, 41, 64
3, 10200, Note_on_c, 2, 41, 0
3, 10200, Note_on_c, 2, 43, 64
3, 10230, Note_on_c, 2, 43, 0
3, 10260, Note_on_c, 2, 44, 64
3, 10290, Note_on_c, 2, 44, 0
3, 10320, Note_on_c, 2, 46, 90
3, 10335, Note_on_c, 2, 46, 0
3, 10335, Note_on_c, 2, 45, 64
3, 10350, Note_on_c, 2, 45, 0
3, 10350, Note_on_c, 2, 46, 64
3, 10440, Note_on_c, 2, 46, 0
3, 10440, Note_on_c, 2, 48, 90
3, 10560, Note_on_c, 2, 48, 0
3, 10560, Note_on_c, 2, 41, 64
3, 10590, Note_on_c, 2, 41, 0
3, 10590, Note_on_c, 2, 60, 64
3, 10620, Note_on_c, 2, 60, 0
3, 10620, Note_on_c, 2, 58, 64
3, 10650, Note_on_c, 2, 58, 0
3, 10650, Note_on_c, 2, 60, 64
3, 10680, Note_on_c, 2, 60, 0
3, 10680, Note_on_c, 2, 56, 64
3, 10710, Note_on_c, 2, 56, 0
3, 10710, Note_on_c, 2, 58, 64
3, 10740, Note_on_c, 2, 58, 0
3, 10740, Note_on_c, 2, 55, 64
3, 10770, Note_on_c, 2, 55, 0
3, 10770, Note_on_c, 2, 56, 64
3, 10800, Note_on_c, 2, 56, 0
3, 10800, Note_on_c, 2, 53, 64
3, 10830, Note_on_c, 2, 53, 0
3, 10830, Note_on_c, 2, 56, 64
3, 10860, Note_on_c, 2, 56, 0
3, 10860, Note_on_c, 2, 55, 64
3, 10890, Note_on_c, 2, 55, 0
3, 10890, Note_on_c, 2, 56, 64
3, 10920, Note_on_c, 2, 56, 0
3, 10920, Note_on_c, 2, 53, 64
3, 10950, Note_on_c, 2, 53, 0
3, 10950, Note_on_c, 2, 55, 64
3, 10980, Note_on_c, 2, 55, 0
3, 10980, Note_on_c, 2, 51, 64
3, 11010, Note_on_c, 2, 51, 0
3, 11010, Note_on_c, 2, 53, 64
3, 11040, Note_on_c, 2, 53, 0
3, 11040, Note_on_c, 2, 49, 64
3, 11070, Note_on_c, 2, 49, 0
3, 11070, Note_on_c, 2, 53, 64
3, 11100, Note_on_c, 2, 53, 0
3, 11100, Note_on_c, 2, 51, 64
3, 11130, Note_on_c, 2, 51, 0
3, 11130, Note_on_c, 2, 53, 64
3, 11160, Note_on_c, 2, 53, 0
3, 11160, Note_on_c, 2, 49, 64
3, 11190, Note_on_c, 2, 49, 0
3, 11190, Note_on_c, 2, 51, 64
3, 11220, Note_on_c, 2, 51, 0
3, 11220, Note_on_c, 2, 48, 64
3, 11250, Note_on_c, 2, 48, 0
3, 11250, Note_on_c, 2, 49, 64
3, 11280, Note_on_c, 2, 49, 0
3, 11280, Note_on_c, 2, 46, 64
3, 11310, Note_on_c, 2, 46, 0
3, 11310, Note_on_c, 2, 56, 64
3, 11340, Note_on_c, 2, 56, 0
3, 11340, Note_on_c, 2, 55, 64
3, 11370, Note_on_c, 2, 55, 0
3, 11370, Note_on_c, 2, 53, 64
3, 11400, Note_on_c, 2, 53, 0
3, 11400, Note_on_c, 2, 55, 64
3, 11430, Note_on_c, 2, 55, 0
3, 11430, Note_on_c, 2, 56, 64
3, 11460, Note_on_c, 2, 56, 0
3, 11460, Note_on_c, 2, 53, 64
3, 11490, Note_on_c, 2, 53, 0
3, 11490, Note_on_c, 2, 55, 64
3, 11520, Note_on_c, 2, 55, 0
3, 11520, Note_on_c, 2, 56, 64
3, 11520, Control_c, 2, 7, 111
3, 11580, Note_on_c, 2, 56, 0
3, 11580, Note_on_c, 2, 51, 64
3, 11610, Note_on_c, 2, 51, 0
3, 11610, Note_on_c, 2, 50, 64
3, 11640, Note_on_c, 2, 50, 0
3, 11640, Note_on_c, 2, 51, 64
3, 11640, Control_c, 2, 7, 112
3, 11670, Note_on_c, 2, 51, 0
3, 11700, Note_on_c, 2, 53, 64
3, 11730, Note_on_c, 2, 53, 0
3, 11750, Control_c, 2, 7, 113
3, 11760, Note_on_c, 2, 55, 90
3, 11775, Note_on_c, 2, 55, 0
3, 11775, Note_on_c, 2, 54, 64
3, 11780, Control_c, 2, 7, 96
3, 11790, Note_on_c, 2, 54, 0
3, 11790, Note_on_c, 2, 55, 64
3, 11830, Control_c, 2, 7, 97
3, 11880, Note_on_c, 2, 55, 0
3, 11880, Note_on_c, 2, 56, 90
3, 11880, Control_c, 2, 7, 98
3, 11920, Control_c, 2, 7, 99
3, 12000, Note_on_c, 2, 56, 0
3, 12060, Note_on_c, 2, 53, 64
3, 12090, Note_on_c, 2, 53, 0
3, 12090, Note_on_c, 2, 51, 64
3, 12120, Note_on_c, 2, 51, 0
3, 12120, Note_on_c, 2, 53, 64
3, 12150, Note_on_c, 2, 53, 0
3, 12180, Note_on_c, 2, 55, 64
3, 12210, Note_on_c, 2, 55, 0
3, 12240, Note_on_c, 2, 56, 90
3, 12255, Note_on_c, 2, 56, 0
3, 12255, Note_on_c, 2, 55, 64
3, 12270, Note_on_c, 2, 55, 0
3, 12270, Note_on_c, 2, 56, 64
3, 12360, Note_on_c, 2, 56, 0
3, 12360, Note_on_c, 2, 58, 90
3, 12480, Note_on_c, 2, 58, 0
3, 12480, Note_on_c, 2, 55, 64
3, 12510, Note_on_c, 2, 55, 0
3, 12510, Note_on_c, 2, 56, 64
3, 12540, Note_on_c, 2, 56, 0
3, 12540, Note_on_c, 2, 55, 64
3, 12570, Note_on_c, 2, 55, 0
3, 12570, Note_on_c, 2, 53, 64
3, 12600, Note_on_c, 2, 53, 0
3, 12600, Note_on_c, 2, 55, 64
3, 12630, Note_on_c, 2, 55, 0
3, 12630, Note_on_c, 2, 56, 64
3, 12660, Note_on_c, 2, 56, 0
3, 12660, Note_on_c, 2, 53, 64
3, 12690, Note_on_c, 2, 53, 0
3, 12690, Note_on_c, 2, 55, 64
3, 12720, Note_on_c, 2, 55, 0
3, 12720, Note_on_c, 2, 51, 64
3, 12750, Note_on_c, 2, 51, 0
3, 12750, Note_on_c, 2, 51, 64
3, 12780, Note_on_c, 2, 51, 0
3, 12780, Note_on_c, 2, 50, 64
3, 12810, Note_on_c, 2, 50, 0
3, 12810, Note_on_c, 2, 51, 64
3, 12840, Note_on_c, 2, 51, 0
3, 12840, Note_on_c, 2, 48, 64
3, 12870, Note_on_c, 2, 48, 0
3, 12870, Note_on_c, 2, 50, 64
3, 12900, Note_on_c, 2, 50, 0
3, 12900, Note_on_c, 2, 46, 64
3, 12930, Note_on_c, 2, 46, 0
3, 12930, Note_on_c, 2, 48, 64
3, 12960, Note_on_c, 2, 48, 0
3, 12960, Note_on_c, 2, 44, 64
3, 12990, Note_on_c, 2, 44, 0
3, 12990, Note_on_c, 2, 48, 64
3, 13020, Note_on_c, 2, 48, 0
3, 13020, Note_on_c, 2, 46, 64
3, 13050, Note_on_c, 2, 46, 0
3, 13050, Note_on_c, 2, 48, 64
3, 13080, Note_on_c, 2, 48, 0
3, 13080, Note_on_c, 2, 44, 64
3, 13110, Note_on_c, 2, 44, 0
3, 13110, Note_on_c, 2, 46, 64
3, 13140, Note_on_c, 2, 46, 0
3, 13140, Note_on_c, 2, 43, 64
3, 13170, Note_on_c, 2, 43, 0
3, 13170, Note_on_c, 2, 44, 64
3, 13200, Note_on_c, 2, 44, 0
3, 13200, Note_on_c, 2, 41, 64
3, 13230, Note_on_c, 2, 41, 0
3, 13230, Note_on_c, 2, 51, 64
3, 13260, Note_on_c, 2, 51, 0
3, 13260, Note_on_c, 2, 50, 64
3, 13290, Note_on_c, 2, 50, 0
3, 13290, Note_on_c, 2, 48, 64
3, 13320, Note_on_c, 2, 48, 0
3, 13320, Note_on_c, 2, 50, 64
3, 13350, Note_on_c, 2, 50, 0
3, 13350, Note_on_c, 2, 51, 64
3, 13380, Note_on_c, 2, 51, 0
3, 13380, Note_on_c, 2, 48, 64
3, 13410, Note_on_c, 2, 48, 0
3, 13410, Note_on_c, 2, 50, 64
3, 13440, Note_on_c, 2, 50, 0
3, 13440, Note_on_c, 2, 39, 64
3, 13470, Note_on_c, 2, 39, 0
3, 13470, Note_on_c, 2, 51, 64
3, 13500, Note_on_c, 2, 51, 0
3, 13500, Note_on_c, 2, 50, 64
3, 13530, Note_on_c, 2, 50, 0
3, 13530, Note_on_c, 2, 48, 64
3, 13560, Note_on_c, 2, 48, 0
3, 13560, Note_on_c, 2, 50, 64
3, 13590, Note_on_c, 2, 50, 0
3, 13590, Note_on_c, 2, 51, 64
3, 13620, Note_on_c, 2, 51, 0
3, 13620, Note_on_c, 2, 48, 64
3, 13650, Note_on_c, 2, 48, 0
3, 13650, Note_on_c, 2, 50, 64
3, 13680, Note_on_c, 2, 50, 0
3, 13680, Note_on_c, 2, 46, 64
3, 13710, Note_on_c, 2, 46, 0
3, 13710, Note_on_c, 2, 51, 64
3, 13740, Note_on_c, 2, 51, 0
3, 13740, Note_on_c, 2, 50, 64
3, 13770, Note_on_c, 2, 50, 0
3, 13770, Note_on_c, 2, 48, 64
3, 13800, Note_on_c, 2, 48, 0
3, 13800, Note_on_c, 2, 46, 64
3, 13830, Note_on_c, 2, 46, 0
3, 13830, Note_on_c, 2, 48, 64
3, 13860, Note_on_c, 2, 48, 0
3, 13860, Note_on_c, 2, 44, 64
3, 13890, Note_on_c, 2, 44, 0
3, 13890, Note_on_c, 2, 46, 64
3, 13920, Note_on_c, 2, 46, 0
3, 13920, Note_on_c, 2, 43, 64
3, 13950, Note_on_c, 2, 43, 0
3, 13950, Note_on_c, 2, 60, 64
3, 13980, Note_on_c, 2, 60, 0
3, 13980, Note_on_c, 2, 58, 64
3, 14010, Note_on_c, 2, 58, 0
3, 14010, Note_on_c, 2, 56, 64
3, 14040, Note_on_c, 2, 56, 0
3, 14040, Note_on_c, 2, 55, 64
3, 14070, Note_on_c, 2, 55, 0
3, 14070, Note_on_c, 2, 56, 64
3, 14100, Note_on_c, 2, 56, 0
3, 14100, Note_on_c, 2, 53, 64
3, 14130, Note_on_c, 2, 53, 0
3, 14130, Note_on_c, 2, 55, 64
3, 14160, Note_on_c, 2, 55, 0
3, 14160, Note_on_c, 2, 51, 64
3, 14190, Note_on_c, 2, 51, 0
3, 14190, Note_on_c, 2, 56, 64
3, 14220, Note_on_c, 2, 56, 0
3, 14220, Note_on_c, 2, 55, 64
3, 14250, Note_on_c, 2, 55, 0
3, 14250, Note_on_c, 2, 53, 64
3, 14280, Note_on_c, 2, 53, 0
3, 14280, Note_on_c, 2, 51, 64
3, 14310, Note_on_c, 2, 51, 0
3, 14310, Note_on_c, 2, 53, 64
3, 14340, Note_on_c, 2, 53, 0
3, 14340, Note_on_c, 2, 49, 64
3, 14370, Note_on_c, 2, 49, 0
3, 14370, Note_on_c, 2, 51, 64
3, 14400, Note_on_c, 2, 51, 0
3, 14400, Note_on_c, 2, 48, 64
3, 14430, Note_on_c, 2, 48, 0
3, 14430, Note_on_c, 2, 53, 64
3, 14460, Note_on_c, 2, 53, 0
3, 14460, Note_on_c, 2, 51, 64
3, 14490, Note_on_c, 2, 51, 0
3, 14490, Note_on_c, 2, 49, 64
3, 14520, Note_on_c, 2, 49, 0
3, 14520, Note_on_c, 2, 48, 64
3, 14550, Note_on_c, 2, 48, 0
3, 14550, Note_on_c, 2, 49, 64
3, 14580, Note_on_c, 2, 49, 0
3, 14580, Note_on_c, 2, 46, 64
3, 14610, Note_on_c, 2, 46, 0
3, 14610, Note_on_c, 2, 48, 64
3, 14640, Note_on_c, 2, 48, 0
3, 14640, Note_on_c, 2, 41, 64
3, 14670, Note_on_c, 2, 41, 0
3, 14670, Note_on_c, 2, 51, 64
3, 14700, Note_on_c, 2, 51, 0
3, 14700, Note_on_c, 2, 50, 64
3, 14730, Note_on_c, 2, 50, 0
3, 14730, Note_on_c, 2, 48, 64
3, 14760, Note_on_c, 2, 48, 0
3, 14760, Note_on_c, 2, 50, 64
3, 14790, Note_on_c, 2, 50, 0
3, 14790, Note_on_c, 2, 51, 64
3, 14820, Note_on_c, 2, 51, 0
3, 14820, Note_on_c, 2, 48, 64
3, 14850, Note_on_c, 2, 48, 0
3, 14850, Note_on_c, 2, 50, 64
3, 14880, Note_on_c, 2, 50, 0
3, 14880, Note_on_c, 2, 51, 64
3, 14940, Note_on_c, 2, 51, 0
3, 14940, Note_on_c, 2, 43, 64
3, 15000, Note_on_c, 2, 43, 0
3, 15000, Note_on_c, 2, 44, 64
3, 15060, Note_on_c, 2, 44, 0
3, 15060, Note_on_c, 2, 46, 64
3, 15120, Note_on_c, 2, 46, 0
3, 15120, Note_on_c, 2, 39, 64
3, 15360, Note_on_c, 2, 39, 0
3, 15360, End_track
4, 0, Start_track
4, 0, End_track
0, 0, End_of_file
