0, 0, Header, 1, 4, 384
1, 0, Start_track
1, 0, Tempo, 750000
1, 0, Time_signature, 4, 2, 24, 8
1, 115200, Tempo, 769230
1, 116736, Tempo, 800000
1, 118272, Tempo, 857140
1, 119040, Tempo, 1500000
1, 119808, Tempo, 1333330
1, 121344, Time_signature, 3, 2, 24, 8
1, 172032, Tempo, 1363630
1, 173184, Tempo, 1463410
1, 174336, Tempo, 1538460
1, 177792, Time_signature, 4, 2, 24, 8
1, 177792, Tempo, 461530
1, 435840, Tempo, 480000
1, 437376, Tempo, 500000
1, 438912, Tempo, 521730
1, 439680, Tempo, 923070
1, 441984, End_track
2, 0, Start_track
2, 0, Title_t, "Track 1"
2, 0, Program_c, 0, 19
2, 0, Note_on_c, 0, 79, 92
2, 384, Note_off_c, 0, 79, 64
2, 384, Note_on_c, 0, 63, 92
2, 480, Note_off_c, 0, 63, 64
2, 480, Note_on_c, 0, 62, 92
2, 576, Note_off_c, 0, 62, 64
2, 576, Note_on_c, 0, 63, 92
2, 672, Note_off_c, 0, 63, 64
2, 672, Note_on_c, 0, 65, 92
2, 768, Note_off_c, 0, 65, 64
2, 768, Note_on_c, 0, 67, 92
2, 960, Note_off_c, 0, 67, 64
2, 960, Note_on_c, 0, 79, 92
2, 1152, Note_off_c, 0, 79, 64
2, 1152, Note_on_c, 0, 77, 92
2, 1200, Note_off_c, 0, 77, 64
2, 1200, Note_on_c, 0, 79, 92
2, 1248, Note_off_c, 0, 79, 64
2, 1248, Note_on_c, 0, 77, 92
2, 1344, Note_off_c, 0, 77, 64
2, 1344, Note_on_c, 0, 75, 92
2, 1536, Note_off_c, 0, 75, 64
2, 1536, Note_on_c, 0, 77, 92
2, 1920, Note_off_c, 0, 77, 64
2, 1920, Note_on_c, 0, 62, 92
2, 2016, Note_off_c, 0, 62, 64
2, 2016, Note_on_c, 0, 60, 92
2, 2112, Note_off_c, 0, 60, 64
2, 2112, Note_on_c, 0, 62, 92
2, 2208, Note_off_c, 0, 62, 64
2, 2208, Note_on_c, 0, 63, 92
2, 2304, Note_off_c, 0, 63, 64
2, 2304, Note_on_c, 0, 65, 92
2, 2496, Note_off_c, 0, 65, 64
2, 2496, Note_on_c, 0, 77, 92
2, 2688, Note_off_c, 0, 77, 64
2, 2688, Note_on_c, 0, 75, 92
2, 2736, Note_off_c, 0, 75, 64
2, 2736, Note_on_c, 0, 77, 92
2, 2784, Note_off_c, 0, 77, 64
2, 2784, Note_on_c, 0, 75, 92
2, 2880, Note_off_c, 0, 75, 64
2, 2880, Note_on_c, 0, 74, 92
2, 3072, Note_off_c, 0, 74, 64
2, 3072, Note_on_c, 0, 75, 92
2, 3168, Note_off_c, 0, 75, 64
2, 3168, Note_on_c, 0, 74, 92
2, 3264, Note_off_c, 0, 74, 64
2, 3264, Note_on_c, 0, 72, 92
2, 3360, Note_off_c, 0, 72, 64
2, 3360, Note_on_c, 0, 70, 92
2, 3456, Note_off_c, 0, 70, 64
2, 3456, Note_on_c, 0, 68, 92
2, 3552, Note_off_c, 0, 68, 64
2, 3552, Note_on_c, 0, 72, 92
2, 3648, Note_off_c, 0, 72, 64
2, 3648, Note_on_c, 0, 65, 92
2, 3744, Note_off_c, 0, 65, 64
2, 3744, Note_on_c, 0, 75, 92
2, 3840, Note_off_c, 0, 75, 64
2, 3840, Note_on_c, 0, 74, 92
2, 3936, Note_off_c, 0, 74, 64
2, 3936, Note_on_c, 0, 72, 92
2, 4032, Note_off_c, 0, 72, 64
2, 4032, Note_on_c, 0, 70, 92
2, 4128, Note_off_c, 0, 70, 64
2, 4128, Note_on_c, 0, 68, 92
2, 4224, Note_off_c, 0, 68, 64
2, 4224, Note_on_c, 0, 67, 92
2, 4320, Note_off_c, 0, 67, 64
2, 4320, Note_on_c, 0, 70, 92
2, 4416, Note_off_c, 0, 70, 64
2, 4416, Note_on_c, 0, 63, 92
2, 4512, Note_off_c, 0, 63, 64
2, 4512, Note_on_c, 0, 73, 92
2, 4608, Note_off_c, 0, 73, 64
2, 4608, Note_on_c, 0, 72, 92
2, 4704, Note_off_c, 0, 72, 64
2, 4704, Note_on_c, 0, 70, 92
2, 4800, Note_off_c, 0, 70, 64
2, 4800, Note_on_c, 0, 68, 92
2, 4896, Note_off_c, 0, 68, 64
2, 4896, Note_on_c, 0, 67, 92
2, 4992, Note_off_c, 0, 67, 64
2, 4992, Note_on_c, 0, 65, 92
2, 5088, Note_off_c, 0, 65, 64
2, 5088, Note_on_c, 0, 68, 92
2, 5184, Note_off_c, 0, 68, 64
2, 5184, Note_on_c, 0, 62, 92
2, 5280, Note_off_c, 0, 62, 64
2, 5280, Note_on_c, 0, 72, 92
2, 5376, Note_off_c, 0, 72, 64
2, 5376, Note_on_c, 0, 71, 92
2, 5568, Note_off_c, 0, 71, 64
2, 5568, Note_on_c, 0, 72, 92
2, 5664, Note_off_c, 0, 72, 64
2, 5664, Note_on_c, 0, 74, 92
2, 5760, Note_off_c, 0, 74, 64
2, 5760, Note_on_c, 0, 75, 92
2, 5856, Note_off_c, 0, 75, 64
2, 5856, Note_on_c, 0, 77, 92
2, 5952, Note_off_c, 0, 77, 64
2, 5952, Note_on_c, 0, 79, 92
2, 6048, Note_off_c, 0, 79, 64
2, 6048, Note_on_c, 0, 80, 92
2, 6144, Note_off_c, 0, 80, 64
2, 6144, Note_on_c, 0, 82, 92
2, 6528, Note_off_c, 0, 82, 64
2, 6528, Note_on_c, 0, 67, 92
2, 6624, Note_off_c, 0, 67, 64
2, 6624, Note_on_c, 0, 65, 92
2, 6720, Note_off_c, 0, 65, 64
2, 6720, Note_on_c, 0, 67, 92
2, 6816, Note_off_c, 0, 67, 64
2, 6816, Note_on_c, 0, 68, 92
2, 6912, Note_off_c, 0, 68, 64
2, 6912, Note_on_c, 0, 70, 92
2, 7008, Note_off_c, 0, 70, 64
2, 7008, Note_on_c, 0, 72, 92
2, 7104, Note_off_c, 0, 72, 64
2, 7104, Note_on_c, 0, 73, 92
2, 7200, Note_off_c, 0, 73, 64
2, 7200, Note_on_c, 0, 82, 92
2, 7296, Note_off_c, 0, 82, 64
2, 7296, Note_on_c, 0, 80, 92
2, 7392, Note_off_c, 0, 80, 64
2, 7392, Note_on_c, 0, 73, 92
2, 7488, Note_off_c, 0, 73, 64
2, 7488, Note_on_c, 0, 79, 92
2, 7584, Note_off_c, 0, 79, 64
2, 7584, Note_on_c, 0, 73, 92
2, 7680, Note_off_c, 0, 73, 64
2, 7680, Note_on_c, 0, 80, 92
2, 8064, Note_off_c, 0, 80, 64
2, 8064, Note_on_c, 0, 68, 92
2, 8160, Note_off_c, 0, 68, 64
2, 8160, Note_on_c, 0, 67, 92
2, 8256, Note_off_c, 0, 67, 64
2, 8256, Note_on_c, 0, 68, 92
2, 8352, Note_off_c, 0, 68, 64
2, 8352, Note_on_c, 0, 70, 92
2, 8448, Note_off_c, 0, 70, 64
2, 8448, Note_on_c, 0, 72, 92
2, 8544, Note_off_c, 0, 72, 64
2, 8544, Note_on_c, 0, 74, 92
2, 8640, Note_off_c, 0, 74, 64
2, 8640, Note_on_c, 0, 75, 92
2, 8736, Note_off_c, 0, 75, 64
2, 8736, Note_on_c, 0, 80, 92
2, 8832, Note_off_c, 0, 80, 64
2, 8832, Note_on_c, 0, 74, 92
2, 8928, Note_off_c, 0, 74, 64
2, 8928, Note_on_c, 0, 80, 92
2, 9024, Note_off_c, 0, 80, 64
2, 9024, Note_on_c, 0, 72, 92
2, 9120, Note_off_c, 0, 72, 64
2, 9120, Note_on_c, 0, 80, 92
2, 9216, Note_off_c, 0, 80, 64
2, 9216, Note_on_c, 0, 71, 92
2, 9408, Note_off_c, 0, 71, 64
2, 9408, Note_on_c, 0, 80, 92
2, 9600, Note_off_c, 0, 80, 64
2, 9600, Note_on_c, 0, 79, 92
2, 9648, Note_off_c, 0, 79, 64
2, 9648, Note_on_c, 0, 80, 92
2, 9696, Note_off_c, 0, 80, 64
2, 9696, Note_on_c, 0, 79, 92
2, 9792, Note_off_c, 0, 79, 64
2, 9792, Note_on_c, 0, 77, 92
2, 9984, Note_off_c, 0, 77, 64
2, 9984, Note_on_c, 0, 67, 92
2, 10176, Note_off_c, 0, 67, 64
2, 10176, Note_on_c, 0, 77, 92
2, 10368, Note_off_c, 0, 77, 64
2, 10368, Note_on_c, 0, 75, 92
2, 10416, Note_off_c, 0, 75, 64
2, 10416, Note_on_c, 0, 77, 92
2, 10464, Note_off_c, 0, 77, 64
2, 10464, Note_on_c, 0, 75, 92
2, 10560, Note_off_c, 0, 75, 64
2, 10560, Note_on_c, 0, 74, 92
2, 10752, Note_off_c, 0, 74, 64
2, 10752, Note_on_c, 0, 72, 92
2, 10944, Note_off_c, 0, 72, 64
2, 10944, Note_on_c, 0, 74, 92
2, 11136, Note_off_c, 0, 74, 64
2, 11136, Note_on_c, 0, 67, 92
2, 11328, Note_off_c, 0, 67, 64
2, 11328, Note_on_c, 0, 71, 92
2, 11520, Note_off_c, 0, 71, 64
2, 11520, Note_on_c, 0, 72, 92
2, 11616, Note_off_c, 0, 72, 64
2, 11616, Note_on_c, 0, 60, 92
2, 11712, Note_off_c, 0, 60, 64
2, 11712, Note_on_c, 0, 59, 92
2, 11808, Note_off_c, 0, 59, 64
2, 11808, Note_on_c, 0, 60, 92
2, 11904, Note_off_c, 0, 60, 64
2, 11904, Note_on_c, 0, 63, 92
2, 12000, Note_off_c, 0, 63, 64
2, 12000, Note_on_c, 0, 60, 92
2, 12096, Note_off_c, 0, 60, 64
2, 12096, Note_on_c, 0, 67, 92
2, 12192, Note_off_c, 0, 67, 64
2, 12192, Note_on_c, 0, 60, 92
2, 12288, Note_off_c, 0, 60, 64
2, 12288, Note_on_c, 0, 72, 92
2, 12384, Note_off_c, 0, 72, 64
2, 12384, Note_on_c, 0, 67, 92
2, 12480, Note_off_c, 0, 67, 64
2, 12480, Note_on_c, 0, 63, 92
2, 12576, Note_off_c, 0, 63, 64
2, 12576, Note_on_c, 0, 67, 92
2, 12672, Note_off_c, 0, 67, 64
2, 12672, Note_on_c, 0, 72, 92
2, 12768, Note_off_c, 0, 72, 64
2, 12768, Note_on_c, 0, 62, 92
2, 12864, Note_off_c, 0, 62, 64
2, 12864, Note_on_c, 0, 66, 92
2, 12960, Note_off_c, 0, 66, 64
2, 12960, Note_on_c, 0, 69, 92
2, 13056, Note_off_c, 0, 69, 64
2, 13056, Note_on_c, 0, 71, 92
2, 13152, Note_off_c, 0, 71, 64
2, 13152, Note_on_c, 0, 67, 92
2, 13248, Note_off_c, 0, 67, 64
2, 13248, Note_on_c, 0, 62, 92
2, 13344, Note_off_c, 0, 62, 64
2, 13344, Note_on_c, 0, 67, 92
2, 13440, Note_off_c, 0, 67, 64
2, 13440, Note_on_c, 0, 70, 92
2, 13536, Note_off_c, 0, 70, 64
2, 13536, Note_on_c, 0, 60, 92
2, 13632, Note_off_c, 0, 60, 64
2, 13632, Note_on_c, 0, 64, 92
2, 13728, Note_off_c, 0, 64, 64
2, 13728, Note_on_c, 0, 67, 92
2, 13824, Note_off_c, 0, 67, 64
2, 13824, Note_on_c, 0, 69, 92
2, 13920, Note_off_c, 0, 69, 64
2, 13920, Note_on_c, 0, 65, 92
2, 14016, Note_off_c, 0, 65, 64
2, 14016, Note_on_c, 0, 60, 92
2, 14112, Note_off_c, 0, 60, 64
2, 14112, Note_on_c, 0, 65, 92
2, 14208, Note_off_c, 0, 65, 64
2, 14208, Note_on_c, 0, 68, 92
2, 14304, Note_off_c, 0, 68, 64
2, 14304, Note_on_c, 0, 58, 92
2, 14400, Note_off_c, 0, 58, 64
2, 14400, Note_on_c, 0, 62, 92
2, 14496, Note_off_c, 0, 62, 64
2, 14496, Note_on_c, 0, 65, 92
2, 14592, Note_off_c, 0, 65, 64
2, 14592, Note_on_c, 0, 67, 92
2, 14784, Note_off_c, 0, 67, 64
2, 14784, Note_on_c, 0, 72, 92
2, 14976, Note_off_c, 0, 72, 64
2, 14976, Note_on_c, 0, 70, 92
2, 15168, Note_off_c, 0, 70, 64
2, 15168, Note_on_c, 0, 69, 92
2, 15216, Note_off_c, 0, 69, 64
2, 15216, Note_on_c, 0, 70, 92
2, 15264, Note_off_c, 0, 70, 64
2, 15264, Note_on_c, 0, 69, 92
2, 15360, Note_off_c, 0, 69, 64
2, 15360, Note_on_c, 0, 67, 92
2, 15456, Note_off_c, 0, 67, 64
2, 15456, Note_on_c, 0, 66, 92
2, 15552, Note_off_c, 0, 66, 64
2, 15552, Note_on_c, 0, 67, 92
2, 15648, Note_off_c, 0, 67, 64
2, 15648, Note_on_c, 0, 70, 92
2, 15744, Note_off_c, 0, 70, 64
2, 15744, Note_on_c, 0, 76, 92
2, 16224, Note_off_c, 0, 76, 64
2, 16224, Note_on_c, 0, 69, 92
2, 16320, Note_off_c, 0, 69, 64
2, 16320, Note_on_c, 0, 66, 92
2, 16416, Note_off_c, 0, 66, 64
2, 16416, Note_on_c, 0, 69, 92
2, 16512, Note_off_c, 0, 69, 64
2, 16512, Note_on_c, 0, 74, 92
2, 16992, Note_off_c, 0, 74, 64
2, 16992, Note_on_c, 0, 67, 92
2, 17088, Note_off_c, 0, 67, 64
2, 17088, Note_on_c, 0, 64, 92
2, 17184, Note_off_c, 0, 64, 64
2, 17184, Note_on_c, 0, 67, 92
2, 17280, Note_off_c, 0, 67, 64
2, 17280, Note_on_c, 0, 72, 92
2, 17760, Note_off_c, 0, 72, 64
2, 17760, Note_on_c, 0, 62, 92
2, 17856, Note_off_c, 0, 62, 64
2, 17856, Note_on_c, 0, 66, 92
2, 17952, Note_off_c, 0, 66, 64
2, 17952, Note_on_c, 0, 69, 92
2, 18048, Note_off_c, 0, 69, 64
2, 18048, Note_on_c, 0, 74, 92
2, 18144, Note_off_c, 0, 74, 64
2, 18144, Note_on_c, 0, 64, 92
2, 18240, Note_off_c, 0, 64, 64
2, 18240, Note_on_c, 0, 65, 92
2, 18336, Note_off_c, 0, 65, 64
2, 18336, Note_on_c, 0, 72, 92
2, 18432, Note_off_c, 0, 72, 64
2, 18432, Note_on_c, 0, 70, 92
2, 18624, Note_off_c, 0, 70, 64
2, 18624, Note_on_c, 0, 67, 92
2, 18816, Note_off_c, 0, 67, 64
2, 19296, Note_on_c, 0, 60, 92
2, 19392, Note_off_c, 0, 60, 64
2, 19392, Note_on_c, 0, 63, 92
2, 19488, Note_off_c, 0, 63, 64
2, 19488, Note_on_c, 0, 67, 92
2, 19584, Note_off_c, 0, 67, 64
2, 19584, Note_on_c, 0, 72, 92
2, 19680, Note_off_c, 0, 72, 64
2, 19680, Note_on_c, 0, 62, 92
2, 19776, Note_off_c, 0, 62, 64
2, 19776, Note_on_c, 0, 64, 92
2, 19872, Note_off_c, 0, 64, 64
2, 19872, Note_on_c, 0, 70, 92
2, 19968, Note_off_c, 0, 70, 64
2, 19968, Note_on_c, 0, 68, 92
2, 20160, Note_off_c, 0, 68, 64
2, 20160, Note_on_c, 0, 65, 92
2, 20352, Note_off_c, 0, 65, 64
2, 20832, Note_on_c, 0, 70, 92
2, 20928, Note_off_c, 0, 70, 64
2, 20928, Note_on_c, 0, 74, 92
2, 21024, Note_off_c, 0, 74, 64
2, 21024, Note_on_c, 0, 77, 92
2, 21120, Note_off_c, 0, 77, 64
2, 21120, Note_on_c, 0, 82, 92
2, 21216, Note_off_c, 0, 82, 64
2, 21216, Note_on_c, 0, 72, 92
2, 21312, Note_off_c, 0, 72, 64
2, 21312, Note_on_c, 0, 74, 92
2, 21408, Note_off_c, 0, 74, 64
2, 21408, Note_on_c, 0, 80, 92
2, 21504, Note_off_c, 0, 80, 64
2, 21504, Note_on_c, 0, 79, 92
2, 22368, Note_off_c, 0, 79, 64
2, 22368, Note_on_c, 0, 72, 92
2, 22464, Note_off_c, 0, 72, 64
2, 22464, Note_on_c, 0, 70, 92
2, 22560, Note_off_c, 0, 70, 64
2, 22560, Note_on_c, 0, 72, 92
2, 22656, Note_off_c, 0, 72, 64
2, 22656, Note_on_c, 0, 77, 92
2, 22752, Note_off_c, 0, 77, 64
2, 22752, Note_on_c, 0, 72, 92
2, 22848, Note_off_c, 0, 72, 64
2, 22848, Note_on_c, 0, 80, 92
2, 22944, Note_off_c, 0, 80, 64
2, 22944, Note_on_c, 0, 72, 92
2, 23040, Note_off_c, 0, 72, 64
2, 23040, Note_on_c, 0, 74, 92
2, 23232, Note_off_c, 0, 74, 64
2, 23232, Note_on_c, 0, 77, 92
2, 23424, Note_off_c, 0, 77, 64
2, 23424, Note_on_c, 0, 82, 92
2, 23616, Note_off_c, 0, 82, 64
2, 23616, Note_on_c, 0, 74, 92
2, 23808, Note_off_c, 0, 74, 64
2, 23808, Note_on_c, 0, 75, 92
2, 24096, Note_off_c, 0, 75, 64
2, 24096, Note_on_c, 0, 77, 92
2, 24192, Note_off_c, 0, 77, 64
2, 24192, Note_on_c, 0, 74, 92
2, 24480, Note_off_c, 0, 74, 64
2, 24480, Note_on_c, 0, 75, 92
2, 24576, Note_off_c, 0, 75, 64
2, 24576, Note_on_c, 0, 75, 92
2, 24960, Note_off_c, 0, 75, 64
2, 24960, Note_on_c, 0, 63, 92
2, 25056, Note_off_c, 0, 63, 64
2, 25056, Note_on_c, 0, 62, 92
2, 25152, Note_off_c, 0, 62, 64
2, 25152, Note_on_c, 0, 63, 92
2, 25248, Note_off_c, 0, 63, 64
2, 25248, Note_on_c, 0, 65, 92
2, 25344, Note_off_c, 0, 65, 64
2, 25344, Note_on_c, 0, 67, 92
2, 25536, Note_off_c, 0, 67, 64
2, 25536, Note_on_c, 0, 79, 92
2, 25728, Note_off_c, 0, 79, 64
2, 25728, Note_on_c, 0, 77, 92
2, 25776, Note_off_c, 0, 77, 64
2, 25776, Note_on_c, 0, 79, 92
2, 25824, Note_off_c, 0, 79, 64
2, 25824, Note_on_c, 0, 77, 92
2, 25920, Note_off_c, 0, 77, 64
2, 25920, Note_on_c, 0, 75, 92
2, 26112, Note_off_c, 0, 75, 64
2, 26112, Note_on_c, 0, 77, 92
2, 26496, Note_off_c, 0, 77, 64
2, 26496, Note_on_c, 0, 62, 92
2, 26592, Note_off_c, 0, 62, 64
2, 26592, Note_on_c, 0, 60, 92
2, 26688, Note_off_c, 0, 60, 64
2, 26688, Note_on_c, 0, 62, 92
2, 26784, Note_off_c, 0, 62, 64
2, 26784, Note_on_c, 0, 63, 92
2, 26880, Note_off_c, 0, 63, 64
2, 26880, Note_on_c, 0, 65, 92
2, 27072, Note_off_c, 0, 65, 64
2, 27072, Note_on_c, 0, 77, 92
2, 27264, Note_off_c, 0, 77, 64
2, 27264, Note_on_c, 0, 75, 92
2, 27312, Note_off_c, 0, 75, 64
2, 27312, Note_on_c, 0, 77, 92
2, 27360, Note_off_c, 0, 77, 64
2, 27360, Note_on_c, 0, 75, 92
2, 27456, Note_off_c, 0, 75, 64
2, 27456, Note_on_c, 0, 74, 92
2, 27648, Note_off_c, 0, 74, 64
2, 27648, Note_on_c, 0, 75, 92
2, 27840, Note_off_c, 0, 75, 64
2, 27840, Note_on_c, 0, 79, 92
2, 28224, Note_off_c, 0, 79, 64
2, 28224, Note_on_c, 0, 72, 92
2, 28608, Note_off_c, 0, 72, 64
2, 28608, Note_on_c, 0, 77, 92
2, 28992, Note_off_c, 0, 77, 64
2, 28992, Note_on_c, 0, 70, 92
2, 29376, Note_off_c, 0, 70, 64
2, 29376, Note_on_c, 0, 75, 92
2, 29760, Note_off_c, 0, 75, 64
2, 29760, Note_on_c, 0, 69, 92
2, 29952, Note_off_c, 0, 69, 64
2, 29952, Note_on_c, 0, 72, 92
2, 30000, Note_off_c, 0, 72, 64
2, 30000, Note_on_c, 0, 70, 92
2, 30048, Note_off_c, 0, 70, 64
2, 30048, Note_on_c, 0, 72, 92
2, 30096, Note_off_c, 0, 72, 64
2, 30096, Note_on_c, 0, 70, 92
2, 30144, Note_off_c, 0, 70, 64
2, 30144, Note_on_c, 0, 72, 92
2, 30192, Note_off_c, 0, 72, 64
2, 30192, Note_on_c, 0, 70, 92
2, 30240, Note_off_c, 0, 70, 64
2, 30240, Note_on_c, 0, 72, 92
2, 30288, Note_off_c, 0, 72, 64
2, 30288, Note_on_c, 0, 70, 92
2, 30336, Note_off_c, 0, 70, 64
2, 30336, Note_on_c, 0, 72, 92
2, 30384, Note_off_c, 0, 72, 64
2, 30384, Note_on_c, 0, 70, 92
2, 30432, Note_off_c, 0, 70, 64
2, 30432, Note_on_c, 0, 72, 92
2, 30480, Note_off_c, 0, 72, 64
2, 30480, Note_on_c, 0, 70, 92
2, 30528, Note_off_c, 0, 70, 64
2, 30528, Note_on_c, 0, 72, 92
2, 30576, Note_off_c, 0, 72, 64
2, 30576, Note_on_c, 0, 70, 92
2, 30624, Note_off_c, 0, 70, 64
2, 30624, Note_on_c, 0, 72, 92
2, 30672, Note_off_c, 0, 72, 64
2, 30672, Note_on_c, 0, 70, 92
2, 30720, Note_off_c, 0, 70, 64
2, 30720, Note_on_c, 0, 72, 92
2, 30768, Note_off_c, 0, 72, 64
2, 30768, Note_on_c, 0, 71, 92
2, 30816, Note_off_c, 0, 71, 64
2, 30816, Note_on_c, 0, 72, 92
2, 30864, Note_off_c, 0, 72, 64
2, 30864, Note_on_c, 0, 71, 92
2, 30912, Note_off_c, 0, 71, 64
2, 30912, Note_on_c, 0, 72, 92
2, 30960, Note_off_c, 0, 72, 64
2, 30960, Note_on_c, 0, 71, 92
2, 31008, Note_off_c, 0, 71, 64
2, 31008, Note_on_c, 0, 72, 92
2, 31056, Note_off_c, 0, 72, 64
2, 31056, Note_on_c, 0, 71, 92
2, 31104, Note_off_c, 0, 71, 64
2, 31104, Note_on_c, 0, 72, 92
2, 31152, Note_off_c, 0, 72, 64
2, 31152, Note_on_c, 0, 71, 92
2, 31200, Note_off_c, 0, 71, 64
2, 31200, Note_on_c, 0, 72, 92
2, 31248, Note_off_c, 0, 72, 64
2, 31248, Note_on_c, 0, 71, 92
2, 31296, Note_off_c, 0, 71, 64
2, 31296, Note_on_c, 0, 72, 92
2, 31344, Note_off_c, 0, 72, 64
2, 31344, Note_on_c, 0, 71, 92
2, 31392, Note_off_c, 0, 71, 64
2, 31392, Note_on_c, 0, 72, 92
2, 31440, Note_off_c, 0, 72, 64
2, 31440, Note_on_c, 0, 71, 92
2, 31488, Note_off_c, 0, 71, 64
2, 31488, Note_on_c, 0, 72, 92
2, 31584, Note_off_c, 0, 72, 64
2, 31584, Note_on_c, 0, 71, 92
2, 31680, Note_off_c, 0, 71, 64
2, 31680, Note_on_c, 0, 72, 92
2, 31776, Note_off_c, 0, 72, 64
2, 31776, Note_on_c, 0, 74, 92
2, 31872, Note_off_c, 0, 74, 64
2, 31872, Note_on_c, 0, 75, 92
2, 31968, Note_off_c, 0, 75, 64
2, 31968, Note_on_c, 0, 77, 92
2, 32064, Note_off_c, 0, 77, 64
2, 32064, Note_on_c, 0, 79, 92
2, 32160, Note_off_c, 0, 79, 64
2, 32160, Note_on_c, 0, 80, 92
2, 32256, Note_off_c, 0, 80, 64
2, 32256, Note_on_c, 0, 82, 92
2, 32352, Note_off_c, 0, 82, 64
2, 32352, Note_on_c, 0, 79, 92
2, 32448, Note_off_c, 0, 79, 64
2, 32448, Note_on_c, 0, 73, 92
2, 32544, Note_off_c, 0, 73, 64
2, 32544, Note_on_c, 0, 82, 92
2, 32640, Note_off_c, 0, 82, 64
2, 32640, Note_on_c, 0, 72, 92
2, 32736, Note_off_c, 0, 72, 64
2, 32736, Note_on_c, 0, 80, 92
2, 32832, Note_off_c, 0, 80, 64
2, 32832, Note_on_c, 0, 70, 92
2, 32928, Note_off_c, 0, 70, 64
2, 32928, Note_on_c, 0, 79, 92
2, 33024, Note_off_c, 0, 79, 64
2, 33024, Note_on_c, 0, 68, 92
2, 33216, Note_off_c, 0, 68, 64
2, 33216, Note_on_c, 0, 70, 92
2, 33264, Note_off_c, 0, 70, 64
2, 33264, Note_on_c, 0, 72, 92
2, 33312, Note_off_c, 0, 72, 64
2, 33312, Note_on_c, 0, 70, 92
2, 33408, Note_off_c, 0, 70, 64
2, 33408, Note_on_c, 0, 72, 92
2, 33984, Note_off_c, 0, 72, 64
2, 33984, Note_on_c, 0, 77, 92
2, 34080, Note_off_c, 0, 77, 64
2, 34080, Note_on_c, 0, 74, 92
2, 34176, Note_off_c, 0, 74, 64
2, 34176, Note_on_c, 0, 67, 92
2, 34656, Note_off_c, 0, 67, 64
2, 34656, Note_on_c, 0, 72, 92
2, 34752, Note_off_c, 0, 72, 64
2, 34752, Note_on_c, 0, 76, 92
2, 34848, Note_off_c, 0, 76, 64
2, 34848, Note_on_c, 0, 72, 92
2, 34944, Note_off_c, 0, 72, 64
2, 34944, Note_on_c, 0, 65, 92
2, 35424, Note_off_c, 0, 65, 64
2, 35424, Note_on_c, 0, 70, 92
2, 35520, Note_off_c, 0, 70, 64
2, 35520, Note_on_c, 0, 74, 92
2, 35616, Note_off_c, 0, 74, 64
2, 35616, Note_on_c, 0, 70, 92
2, 35712, Note_off_c, 0, 70, 64
2, 35712, Note_on_c, 0, 63, 92
2, 36192, Note_off_c, 0, 63, 64
2, 36192, Note_on_c, 0, 60, 92
2, 36288, Note_off_c, 0, 60, 64
2, 36288, Note_on_c, 0, 59, 92
2, 36384, Note_off_c, 0, 59, 64
2, 36384, Note_on_c, 0, 60, 92
2, 36480, Note_off_c, 0, 60, 64
2, 36480, Note_on_c, 0, 63, 92
2, 36576, Note_off_c, 0, 63, 64
2, 36576, Note_on_c, 0, 60, 92
2, 36672, Note_off_c, 0, 60, 64
2, 36672, Note_on_c, 0, 67, 92
2, 36768, Note_off_c, 0, 67, 64
2, 36768, Note_on_c, 0, 60, 92
2, 36864, Note_off_c, 0, 60, 64
2, 36864, Note_on_c, 0, 72, 92
2, 36960, Note_off_c, 0, 72, 64
2, 36960, Note_on_c, 0, 67, 92
2, 37056, Note_off_c, 0, 67, 64
2, 37056, Note_on_c, 0, 63, 92
2, 37152, Note_off_c, 0, 63, 64
2, 37152, Note_on_c, 0, 67, 92
2, 37248, Note_off_c, 0, 67, 64
2, 37248, Note_on_c, 0, 72, 92
2, 37344, Note_off_c, 0, 72, 64
2, 37344, Note_on_c, 0, 62, 92
2, 37440, Note_off_c, 0, 62, 64
2, 37440, Note_on_c, 0, 66, 92
2, 37536, Note_off_c, 0, 66, 64
2, 37536, Note_on_c, 0, 69, 92
2, 37632, Note_off_c, 0, 69, 64
2, 37632, Note_on_c, 0, 71, 92
2, 37728, Note_off_c, 0, 71, 64
2, 37728, Note_on_c, 0, 67, 92
2, 37824, Note_off_c, 0, 67, 64
2, 37824, Note_on_c, 0, 62, 92
2, 37920, Note_off_c, 0, 62, 64
2, 37920, Note_on_c, 0, 67, 92
2, 38016, Note_off_c, 0, 67, 64
2, 38016, Note_on_c, 0, 70, 92
2, 38112, Note_off_c, 0, 70, 64
2, 38112, Note_on_c, 0, 60, 92
2, 38208, Note_off_c, 0, 60, 64
2, 38208, Note_on_c, 0, 64, 92
2, 38304, Note_off_c, 0, 64, 64
2, 38304, Note_on_c, 0, 67, 92
2, 38400, Note_off_c, 0, 67, 64
2, 38400, Note_on_c, 0, 69, 92
2, 38496, Note_off_c, 0, 69, 64
2, 38496, Note_on_c, 0, 65, 92
2, 38592, Note_off_c, 0, 65, 64
2, 38592, Note_on_c, 0, 60, 92
2, 38688, Note_off_c, 0, 60, 64
2, 38688, Note_on_c, 0, 65, 92
2, 38784, Note_off_c, 0, 65, 64
2, 38784, Note_on_c, 0, 68, 92
2, 38880, Note_off_c, 0, 68, 64
2, 38880, Note_on_c, 0, 59, 92
2, 38976, Note_off_c, 0, 59, 64
2, 38976, Note_on_c, 0, 62, 92
2, 39072, Note_off_c, 0, 62, 64
2, 39072, Note_on_c, 0, 65, 92
2, 39168, Note_off_c, 0, 65, 64
2, 39168, Note_on_c, 0, 67, 92
2, 39552, Note_off_c, 0, 67, 64
2, 40032, Note_on_c, 0, 60, 92
2, 40128, Note_off_c, 0, 60, 64
2, 40128, Note_on_c, 0, 63, 92
2, 40224, Note_off_c, 0, 63, 64
2, 40224, Note_on_c, 0, 67, 92
2, 40320, Note_off_c, 0, 67, 64
2, 40320, Note_on_c, 0, 72, 92
2, 40416, Note_off_c, 0, 72, 64
2, 40416, Note_on_c, 0, 62, 92
2, 40512, Note_off_c, 0, 62, 64
2, 40512, Note_on_c, 0, 64, 92
2, 40608, Note_off_c, 0, 64, 64
2, 40608, Note_on_c, 0, 70, 92
2, 40704, Note_off_c, 0, 70, 64
2, 40704, Note_on_c, 0, 68, 92
2, 40896, Note_off_c, 0, 68, 64
2, 40896, Note_on_c, 0, 65, 92
2, 41088, Note_off_c, 0, 65, 64
2, 41568, Note_on_c, 0, 58, 92
2, 41664, Note_off_c, 0, 58, 64
2, 41664, Note_on_c, 0, 62, 92
2, 41760, Note_off_c, 0, 62, 64
2, 41760, Note_on_c, 0, 65, 92
2, 41856, Note_off_c, 0, 65, 64
2, 41856, Note_on_c, 0, 70, 92
2, 41952, Note_off_c, 0, 70, 64
2, 41952, Note_on_c, 0, 60, 92
2, 42048, Note_off_c, 0, 60, 64
2, 42048, Note_on_c, 0, 62, 92
2, 42144, Note_off_c, 0, 62, 64
2, 42144, Note_on_c, 0, 68, 92
2, 42240, Note_off_c, 0, 68, 64
2, 42240, Note_on_c, 0, 67, 92
2, 42432, Note_off_c, 0, 67, 64
2, 42432, Note_on_c, 0, 63, 92
2, 42624, Note_off_c, 0, 63, 64
2, 43104, Note_on_c, 0, 72, 92
2, 43200, Note_off_c, 0, 72, 64
2, 43200, Note_on_c, 0, 75, 92
2, 43296, Note_off_c, 0, 75, 64
2, 43296, Note_on_c, 0, 79, 92
2, 43392, Note_off_c, 0, 79, 64
2, 43392, Note_on_c, 0, 84, 92
2, 43488, Note_off_c, 0, 84, 64
2, 43488, Note_on_c, 0, 78, 92
2, 43584, Note_off_c, 0, 78, 64
2, 43584, Note_on_c, 0, 79, 92
2, 43680, Note_off_c, 0, 79, 64
2, 43680, Note_on_c, 0, 82, 92
2, 43776, Note_off_c, 0, 82, 64
2, 43776, Note_on_c, 0, 75, 92
2, 44640, Note_off_c, 0, 75, 64
2, 44640, Note_on_c, 0, 74, 92
2, 44736, Note_off_c, 0, 74, 64
2, 44736, Note_on_c, 0, 72, 92
2, 44832, Note_off_c, 0, 72, 64
2, 44832, Note_on_c, 0, 74, 92
2, 44928, Note_off_c, 0, 74, 64
2, 44928, Note_on_c, 0, 78, 92
2, 45024, Note_off_c, 0, 78, 64
2, 45024, Note_on_c, 0, 72, 92
2, 45120, Note_off_c, 0, 72, 64
2, 45120, Note_on_c, 0, 81, 92
2, 45216, Note_off_c, 0, 81, 64
2, 45216, Note_on_c, 0, 72, 92
2, 45312, Note_off_c, 0, 72, 64
2, 45312, Note_on_c, 0, 70, 92
2, 45600, Note_off_c, 0, 70, 64
2, 45600, Note_on_c, 0, 72, 92
2, 45696, Note_off_c, 0, 72, 64
2, 45696, Note_on_c, 0, 69, 92
2, 45984, Note_off_c, 0, 69, 64
2, 45984, Note_on_c, 0, 67, 92
2, 46080, Note_off_c, 0, 67, 64
2, 46080, Note_on_c, 0, 67, 92
2, 46464, Note_off_c, 0, 67, 64
2, 46464, Note_on_c, 0, 79, 92
2, 46560, Note_off_c, 0, 79, 64
2, 46560, Note_on_c, 0, 78, 92
2, 46656, Note_off_c, 0, 78, 64
2, 46656, Note_on_c, 0, 79, 92
2, 46752, Note_off_c, 0, 79, 64
2, 46752, Note_on_c, 0, 81, 92
2, 46848, Note_off_c, 0, 81, 64
2, 46848, Note_on_c, 0, 82, 92
2, 47040, Note_off_c, 0, 82, 64
2, 47040, Note_on_c, 0, 74, 92
2, 47232, Note_off_c, 0, 74, 64
2, 47232, Note_on_c, 0, 72, 92
2, 47280, Note_off_c, 0, 72, 64
2, 47280, Note_on_c, 0, 74, 92
2, 47328, Note_off_c, 0, 74, 64
2, 47328, Note_on_c, 0, 72, 92
2, 47424, Note_off_c, 0, 72, 64
2, 47424, Note_on_c, 0, 70, 92
2, 47616, Note_off_c, 0, 70, 64
2, 47616, Note_on_c, 0, 72, 92
2, 48000, Note_off_c, 0, 72, 64
2, 48000, Note_on_c, 0, 78, 92
2, 48096, Note_off_c, 0, 78, 64
2, 48096, Note_on_c, 0, 76, 92
2, 48192, Note_off_c, 0, 76, 64
2, 48192, Note_on_c, 0, 78, 92
2, 48288, Note_off_c, 0, 78, 64
2, 48288, Note_on_c, 0, 79, 92
2, 48384, Note_off_c, 0, 79, 64
2, 48384, Note_on_c, 0, 81, 92
2, 48576, Note_off_c, 0, 81, 64
2, 48576, Note_on_c, 0, 72, 92
2, 48768, Note_off_c, 0, 72, 64
2, 48768, Note_on_c, 0, 70, 92
2, 48816, Note_off_c, 0, 70, 64
2, 48816, Note_on_c, 0, 72, 92
2, 48864, Note_off_c, 0, 72, 64
2, 48864, Note_on_c, 0, 70, 92
2, 48960, Note_off_c, 0, 70, 64
2, 48960, Note_on_c, 0, 69, 92
2, 49152, Note_off_c, 0, 69, 64
2, 49152, Note_on_c, 0, 70, 92
2, 49344, Note_off_c, 0, 70, 64
2, 49344, Note_on_c, 0, 82, 92
2, 49728, Note_off_c, 0, 82, 64
2, 49728, Note_on_c, 0, 75, 92
2, 50112, Note_off_c, 0, 75, 64
2, 50112, Note_on_c, 0, 81, 92
2, 50496, Note_off_c, 0, 81, 64
2, 50496, Note_on_c, 0, 74, 92
2, 50880, Note_off_c, 0, 74, 64
2, 50880, Note_on_c, 0, 79, 92
2, 51264, Note_off_c, 0, 79, 64
2, 51264, Note_on_c, 0, 72, 92
2, 51552, Note_off_c, 0, 72, 64
2, 51552, Note_on_c, 0, 69, 92
2, 51648, Note_off_c, 0, 69, 64
2, 51648, Note_on_c, 0, 70, 92
2, 51744, Note_off_c, 0, 70, 64
2, 51744, Note_on_c, 0, 72, 92
2, 51840, Note_off_c, 0, 72, 64
2, 51840, Note_on_c, 0, 74, 92
2, 51936, Note_off_c, 0, 74, 64
2, 51936, Note_on_c, 0, 75, 92
2, 52032, Note_off_c, 0, 75, 64
2, 52032, Note_on_c, 0, 77, 92
2, 52128, Note_off_c, 0, 77, 64
2, 52128, Note_on_c, 0, 79, 92
2, 52224, Note_off_c, 0, 79, 64
2, 52224, Note_on_c, 0, 80, 92
2, 52608, Note_off_c, 0, 80, 64
2, 52608, Note_on_c, 0, 71, 92
2, 52704, Note_off_c, 0, 71, 64
2, 52704, Note_on_c, 0, 69, 92
2, 52800, Note_off_c, 0, 69, 64
2, 52800, Note_on_c, 0, 71, 92
2, 52896, Note_off_c, 0, 71, 64
2, 52896, Note_on_c, 0, 72, 92
2, 52992, Note_off_c, 0, 72, 64
2, 52992, Note_on_c, 0, 74, 92
2, 53184, Note_off_c, 0, 74, 64
2, 53184, Note_on_c, 0, 77, 92
2, 53376, Note_off_c, 0, 77, 64
2, 53376, Note_on_c, 0, 75, 92
2, 53568, Note_off_c, 0, 75, 64
2, 53568, Note_on_c, 0, 74, 92
2, 53760, Note_off_c, 0, 74, 64
2, 53760, Note_on_c, 0, 75, 92
2, 54144, Note_off_c, 0, 75, 64
2, 54144, Note_on_c, 0, 72, 92
2, 54240, Note_off_c, 0, 72, 64
2, 54240, Note_on_c, 0, 71, 92
2, 54336, Note_off_c, 0, 71, 64
2, 54336, Note_on_c, 0, 72, 92
2, 54432, Note_off_c, 0, 72, 64
2, 54432, Note_on_c, 0, 74, 92
2, 54528, Note_off_c, 0, 74, 64
2, 54528, Note_on_c, 0, 75, 92
2, 54720, Note_off_c, 0, 75, 64
2, 54720, Note_on_c, 0, 74, 92
2, 54912, Note_off_c, 0, 74, 64
2, 54912, Note_on_c, 0, 72, 92
2, 55104, Note_off_c, 0, 72, 64
2, 55104, Note_on_c, 0, 70, 92
2, 55296, Note_off_c, 0, 70, 64
2, 55296, Note_on_c, 0, 72, 92
2, 55392, Note_off_c, 0, 72, 64
2, 55392, Note_on_c, 0, 70, 92
2, 55488, Note_off_c, 0, 70, 64
2, 55488, Note_on_c, 0, 69, 92
2, 55584, Note_off_c, 0, 69, 64
2, 55584, Note_on_c, 0, 67, 92
2, 55680, Note_off_c, 0, 67, 64
2, 55680, Note_on_c, 0, 66, 92
2, 55776, Note_off_c, 0, 66, 64
2, 55776, Note_on_c, 0, 69, 92
2, 55872, Note_off_c, 0, 69, 64
2, 55872, Note_on_c, 0, 62, 92
2, 55968, Note_off_c, 0, 62, 64
2, 55968, Note_on_c, 0, 69, 92
2, 56064, Note_off_c, 0, 69, 64
2, 56064, Note_on_c, 0, 70, 92
2, 56160, Note_off_c, 0, 70, 64
2, 56160, Note_on_c, 0, 72, 92
2, 56256, Note_off_c, 0, 72, 64
2, 56256, Note_on_c, 0, 74, 92
2, 56352, Note_off_c, 0, 74, 64
2, 56352, Note_on_c, 0, 76, 92
2, 56448, Note_off_c, 0, 76, 64
2, 56448, Note_on_c, 0, 78, 92
2, 56544, Note_off_c, 0, 78, 64
2, 56544, Note_on_c, 0, 81, 92
2, 56640, Note_off_c, 0, 81, 64
2, 56640, Note_on_c, 0, 74, 92
2, 56736, Note_off_c, 0, 74, 64
2, 56736, Note_on_c, 0, 78, 92
2, 56832, Note_off_c, 0, 78, 64
2, 56832, Note_on_c, 0, 79, 92
2, 56928, Note_off_c, 0, 79, 64
2, 56928, Note_on_c, 0, 70, 92
2, 57024, Note_off_c, 0, 70, 64
2, 57024, Note_on_c, 0, 75, 92
2, 57120, Note_off_c, 0, 75, 64
2, 57120, Note_on_c, 0, 74, 92
2, 57216, Note_off_c, 0, 74, 64
2, 57216, Note_on_c, 0, 72, 92
2, 57312, Note_off_c, 0, 72, 64
2, 57312, Note_on_c, 0, 70, 92
2, 57408, Note_off_c, 0, 70, 64
2, 57408, Note_on_c, 0, 69, 92
2, 57504, Note_off_c, 0, 69, 64
2, 57504, Note_on_c, 0, 67, 92
2, 57600, Note_off_c, 0, 67, 64
2, 57600, Note_on_c, 0, 67, 92
2, 57984, Note_off_c, 0, 67, 64
2, 58464, Note_on_c, 0, 79, 92
2, 58560, Note_off_c, 0, 79, 64
2, 58560, Note_on_c, 0, 77, 92
2, 58656, Note_off_c, 0, 77, 64
2, 58656, Note_on_c, 0, 75, 92
2, 58752, Note_off_c, 0, 75, 64
2, 58752, Note_on_c, 0, 74, 92
2, 58848, Note_off_c, 0, 74, 64
2, 58848, Note_on_c, 0, 75, 92
2, 58944, Note_off_c, 0, 75, 64
2, 58944, Note_on_c, 0, 74, 92
2, 59040, Note_off_c, 0, 74, 64
2, 59040, Note_on_c, 0, 72, 92
2, 59136, Note_off_c, 0, 72, 64
2, 59136, Note_on_c, 0, 70, 92
2, 59328, Note_off_c, 0, 70, 64
2, 59328, Note_on_c, 0, 67, 92
2, 59520, Note_off_c, 0, 67, 64
2, 59520, Note_on_c, 0, 70, 92
2, 59712, Note_off_c, 0, 70, 64
2, 59712, Note_on_c, 0, 74, 92
2, 59904, Note_off_c, 0, 74, 64
2, 59904, Note_on_c, 0, 79, 92
2, 60000, Note_off_c, 0, 79, 64
2, 60000, Note_on_c, 0, 75, 92
2, 60096, Note_off_c, 0, 75, 64
2, 60096, Note_on_c, 0, 74, 92
2, 60192, Note_off_c, 0, 74, 64
2, 60192, Note_on_c, 0, 72, 92
2, 60288, Note_off_c, 0, 72, 64
2, 60288, Note_on_c, 0, 70, 92
2, 60384, Note_off_c, 0, 70, 64
2, 60384, Note_on_c, 0, 72, 92
2, 60480, Note_off_c, 0, 72, 64
2, 60480, Note_on_c, 0, 70, 92
2, 60576, Note_off_c, 0, 70, 64
2, 60576, Note_on_c, 0, 69, 92
2, 60672, Note_off_c, 0, 69, 64
2, 60672, Note_on_c, 0, 67, 92
2, 60864, Note_off_c, 0, 67, 64
2, 60864, Note_on_c, 0, 70, 92
2, 61056, Note_off_c, 0, 70, 64
2, 61056, Note_on_c, 0, 67, 92
2, 61248, Note_off_c, 0, 67, 64
2, 61248, Note_on_c, 0, 63, 92
2, 61440, Note_off_c, 0, 63, 64
2, 61440, Note_on_c, 0, 58, 92
2, 61536, Note_off_c, 0, 58, 64
2, 61536, Note_on_c, 0, 57, 92
2, 61632, Note_off_c, 0, 57, 64
2, 61632, Note_on_c, 0, 55, 92
2, 61728, Note_off_c, 0, 55, 64
2, 61728, Note_on_c, 0, 57, 92
2, 61824, Note_off_c, 0, 57, 64
2, 61824, Note_on_c, 0, 58, 92
2, 61920, Note_off_c, 0, 58, 64
2, 61920, Note_on_c, 0, 57, 92
2, 62016, Note_off_c, 0, 57, 64
2, 62016, Note_on_c, 0, 58, 92
2, 62112, Note_off_c, 0, 58, 64
2, 62112, Note_on_c, 0, 60, 92
2, 62208, Note_off_c, 0, 60, 64
2, 62208, Note_on_c, 0, 62, 92
2, 62304, Note_off_c, 0, 62, 64
2, 62304, Note_on_c, 0, 63, 92
2, 62400, Note_off_c, 0, 63, 64
2, 62400, Note_on_c, 0, 62, 92
2, 62496, Note_off_c, 0, 62, 64
2, 62496, Note_on_c, 0, 60, 92
2, 62592, Note_off_c, 0, 60, 64
2, 62592, Note_on_c, 0, 58, 92
2, 62688, Note_off_c, 0, 58, 64
2, 62688, Note_on_c, 0, 60, 92
2, 62784, Note_off_c, 0, 60, 64
2, 62784, Note_on_c, 0, 58, 92
2, 62880, Note_off_c, 0, 58, 64
2, 62880, Note_on_c, 0, 57, 92
2, 62976, Note_off_c, 0, 57, 64
2, 62976, Note_on_c, 0, 55, 92
2, 63072, Note_off_c, 0, 55, 64
2, 63072, Note_on_c, 0, 62, 92
2, 63168, Note_off_c, 0, 62, 64
2, 63168, Note_on_c, 0, 64, 92
2, 63264, Note_off_c, 0, 64, 64
2, 63264, Note_on_c, 0, 66, 92
2, 63360, Note_off_c, 0, 66, 64
2, 63360, Note_on_c, 0, 67, 92
2, 63456, Note_off_c, 0, 67, 64
2, 63456, Note_on_c, 0, 66, 92
2, 63552, Note_off_c, 0, 66, 64
2, 63552, Note_on_c, 0, 67, 92
2, 63648, Note_off_c, 0, 67, 64
2, 63648, Note_on_c, 0, 69, 92
2, 63744, Note_off_c, 0, 69, 64
2, 63744, Note_on_c, 0, 70, 92
2, 63936, Note_off_c, 0, 70, 64
2, 63936, Note_on_c, 0, 79, 92
2, 64128, Note_off_c, 0, 79, 64
2, 64128, Note_on_c, 0, 77, 92
2, 64176, Note_off_c, 0, 77, 64
2, 64176, Note_on_c, 0, 79, 92
2, 64224, Note_off_c, 0, 79, 64
2, 64224, Note_on_c, 0, 77, 92
2, 64320, Note_off_c, 0, 77, 64
2, 64320, Note_on_c, 0, 75, 92
2, 64512, Note_off_c, 0, 75, 64
2, 64512, Note_on_c, 0, 77, 92
2, 64896, Note_off_c, 0, 77, 64
2, 64896, Note_on_c, 0, 67, 92
2, 64992, Note_off_c, 0, 67, 64
2, 64992, Note_on_c, 0, 66, 92
2, 65088, Note_off_c, 0, 66, 64
2, 65088, Note_on_c, 0, 67, 92
2, 65184, Note_off_c, 0, 67, 64
2, 65184, Note_on_c, 0, 69, 92
2, 65280, Note_off_c, 0, 69, 64
2, 65280, Note_on_c, 0, 71, 92
2, 65472, Note_off_c, 0, 71, 64
2, 65472, Note_on_c, 0, 77, 92
2, 65664, Note_off_c, 0, 77, 64
2, 65664, Note_on_c, 0, 75, 92
2, 65712, Note_off_c, 0, 75, 64
2, 65712, Note_on_c, 0, 77, 92
2, 65760, Note_off_c, 0, 77, 64
2, 65760, Note_on_c, 0, 75, 92
2, 65856, Note_off_c, 0, 75, 64
2, 65856, Note_on_c, 0, 74, 92
2, 66048, Note_off_c, 0, 74, 64
2, 66048, Note_on_c, 0, 75, 92
2, 66240, Note_off_c, 0, 75, 64
2, 66240, Note_on_c, 0, 71, 92
2, 66432, Note_off_c, 0, 71, 64
2, 66432, Note_on_c, 0, 72, 92
2, 66624, Note_off_c, 0, 72, 64
2, 66624, Note_on_c, 0, 68, 92
2, 66816, Note_off_c, 0, 68, 64
2, 66816, Note_on_c, 0, 65, 92
2, 67008, Note_off_c, 0, 65, 64
2, 67008, Note_on_c, 0, 75, 92
2, 67200, Note_off_c, 0, 75, 64
2, 67200, Note_on_c, 0, 74, 92
2, 67392, Note_off_c, 0, 74, 64
2, 67392, Note_on_c, 0, 80, 92
2, 67584, Note_off_c, 0, 80, 64
2, 67584, Note_on_c, 0, 79, 92
2, 67776, Note_off_c, 0, 79, 64
2, 67776, Note_on_c, 0, 71, 92
2, 67968, Note_off_c, 0, 71, 64
2, 67968, Note_on_c, 0, 72, 92
2, 68160, Note_off_c, 0, 72, 64
2, 68160, Note_on_c, 0, 63, 92
2, 68352, Note_off_c, 0, 63, 64
2, 68352, Note_on_c, 0, 62, 92
2, 68544, Note_off_c, 0, 62, 64
2, 68544, Note_on_c, 0, 72, 92
2, 68736, Note_off_c, 0, 72, 64
2, 68736, Note_on_c, 0, 77, 92
2, 68928, Note_off_c, 0, 77, 64
2, 68928, Note_on_c, 0, 69, 92
2, 69120, Note_off_c, 0, 69, 64
2, 69120, Note_on_c, 0, 71, 92
2, 69216, Note_off_c, 0, 71, 64
2, 69216, Note_on_c, 0, 72, 92
2, 69312, Note_off_c, 0, 72, 64
2, 69312, Note_on_c, 0, 74, 92
2, 69408, Note_off_c, 0, 74, 64
2, 69408, Note_on_c, 0, 75, 92
2, 69504, Note_off_c, 0, 75, 64
2, 69504, Note_on_c, 0, 77, 92
2, 69600, Note_off_c, 0, 77, 64
2, 69600, Note_on_c, 0, 80, 92
2, 69696, Note_off_c, 0, 80, 64
2, 69696, Note_on_c, 0, 79, 92
2, 69792, Note_off_c, 0, 79, 64
2, 69792, Note_on_c, 0, 77, 92
2, 69888, Note_off_c, 0, 77, 64
2, 69888, Note_on_c, 0, 75, 92
2, 69984, Note_off_c, 0, 75, 64
2, 69984, Note_on_c, 0, 84, 92
2, 70080, Note_off_c, 0, 84, 64
2, 70080, Note_on_c, 0, 82, 92
2, 70176, Note_off_c, 0, 82, 64
2, 70176, Note_on_c, 0, 80, 92
2, 70272, Note_off_c, 0, 80, 64
2, 70272, Note_on_c, 0, 79, 92
2, 70368, Note_off_c, 0, 79, 64
2, 70368, Note_on_c, 0, 80, 92
2, 70464, Note_off_c, 0, 80, 64
2, 70464, Note_on_c, 0, 79, 92
2, 70560, Note_off_c, 0, 79, 64
2, 70560, Note_on_c, 0, 77, 92
2, 70656, Note_off_c, 0, 77, 64
2, 70656, Note_on_c, 0, 75, 92
2, 70848, Note_off_c, 0, 75, 64
2, 70848, Note_on_c, 0, 72, 92
2, 71040, Note_off_c, 0, 72, 64
2, 71040, Note_on_c, 0, 75, 92
2, 71232, Note_off_c, 0, 75, 64
2, 71232, Note_on_c, 0, 79, 92
2, 71424, Note_off_c, 0, 79, 64
2, 71424, Note_on_c, 0, 84, 92
2, 71520, Note_off_c, 0, 84, 64
2, 71520, Note_on_c, 0, 80, 92
2, 71616, Note_off_c, 0, 80, 64
2, 71616, Note_on_c, 0, 79, 92
2, 71712, Note_off_c, 0, 79, 64
2, 71712, Note_on_c, 0, 77, 92
2, 71808, Note_off_c, 0, 77, 64
2, 71808, Note_on_c, 0, 75, 92
2, 71904, Note_off_c, 0, 75, 64
2, 71904, Note_on_c, 0, 77, 92
2, 72000, Note_off_c, 0, 77, 64
2, 72000, Note_on_c, 0, 75, 92
2, 72096, Note_off_c, 0, 75, 64
2, 72096, Note_on_c, 0, 74, 92
2, 72192, Note_off_c, 0, 74, 64
2, 72192, Note_on_c, 0, 72, 92
2, 72384, Note_off_c, 0, 72, 64
2, 72384, Note_on_c, 0, 75, 92
2, 72576, Note_off_c, 0, 75, 64
2, 72576, Note_on_c, 0, 72, 92
2, 72768, Note_off_c, 0, 72, 64
2, 72768, Note_on_c, 0, 67, 92
2, 72960, Note_off_c, 0, 67, 64
2, 72960, Note_on_c, 0, 63, 92
2, 73056, Note_off_c, 0, 63, 64
2, 73056, Note_on_c, 0, 62, 92
2, 73152, Note_off_c, 0, 62, 64
2, 73152, Note_on_c, 0, 60, 92
2, 73248, Note_off_c, 0, 60, 64
2, 73248, Note_on_c, 0, 62, 92
2, 73344, Note_off_c, 0, 62, 64
2, 73344, Note_on_c, 0, 63, 92
2, 73440, Note_off_c, 0, 63, 64
2, 73440, Note_on_c, 0, 62, 92
2, 73536, Note_off_c, 0, 62, 64
2, 73536, Note_on_c, 0, 63, 92
2, 73632, Note_off_c, 0, 63, 64
2, 73632, Note_on_c, 0, 65, 92
2, 73728, Note_off_c, 0, 65, 64
2, 73728, Note_on_c, 0, 67, 92
2, 73824, Note_off_c, 0, 67, 64
2, 73824, Note_on_c, 0, 65, 92
2, 73920, Note_off_c, 0, 65, 64
2, 73920, Note_on_c, 0, 63, 92
2, 74016, Note_off_c, 0, 63, 64
2, 74016, Note_on_c, 0, 65, 92
2, 74112, Note_off_c, 0, 65, 64
2, 74112, Note_on_c, 0, 67, 92
2, 74208, Note_off_c, 0, 67, 64
2, 74208, Note_on_c, 0, 68, 92
2, 74304, Note_off_c, 0, 68, 64
2, 74304, Note_on_c, 0, 67, 92
2, 74400, Note_off_c, 0, 67, 64
2, 74400, Note_on_c, 0, 65, 92
2, 74496, Note_off_c, 0, 65, 64
2, 74496, Note_on_c, 0, 63, 92
2, 74592, Note_off_c, 0, 63, 64
2, 74592, Note_on_c, 0, 65, 92
2, 74688, Note_off_c, 0, 65, 64
2, 74688, Note_on_c, 0, 63, 92
2, 74784, Note_off_c, 0, 63, 64
2, 74784, Note_on_c, 0, 62, 92
2, 74880, Note_off_c, 0, 62, 64
2, 74880, Note_on_c, 0, 60, 92
2, 74976, Note_off_c, 0, 60, 64
2, 74976, Note_on_c, 0, 67, 92
2, 75072, Note_off_c, 0, 67, 64
2, 75072, Note_on_c, 0, 69, 92
2, 75168, Note_off_c, 0, 69, 64
2, 75168, Note_on_c, 0, 71, 92
2, 75264, Note_off_c, 0, 71, 64
2, 75264, Note_on_c, 0, 72, 92
2, 75360, Note_off_c, 0, 72, 64
2, 75360, Note_on_c, 0, 71, 92
2, 75456, Note_off_c, 0, 71, 64
2, 75456, Note_on_c, 0, 72, 92
2, 75552, Note_off_c, 0, 72, 64
2, 75552, Note_on_c, 0, 74, 92
2, 75648, Note_off_c, 0, 74, 64
2, 75648, Note_on_c, 0, 75, 92
2, 75744, Note_off_c, 0, 75, 64
2, 75744, Note_on_c, 0, 74, 92
2, 75840, Note_off_c, 0, 74, 64
2, 75840, Note_on_c, 0, 75, 92
2, 75936, Note_off_c, 0, 75, 64
2, 75936, Note_on_c, 0, 77, 92
2, 76032, Note_off_c, 0, 77, 64
2, 76032, Note_on_c, 0, 79, 92
2, 76128, Note_off_c, 0, 79, 64
2, 76128, Note_on_c, 0, 77, 92
2, 76224, Note_off_c, 0, 77, 64
2, 76224, Note_on_c, 0, 79, 92
2, 76320, Note_off_c, 0, 79, 64
2, 76320, Note_on_c, 0, 80, 92
2, 76416, Note_off_c, 0, 80, 64
2, 76416, Note_on_c, 0, 72, 92
2, 76512, Note_off_c, 0, 72, 64
2, 76512, Note_on_c, 0, 80, 92
2, 76608, Note_off_c, 0, 80, 64
2, 76608, Note_on_c, 0, 79, 92
2, 76704, Note_off_c, 0, 79, 64
2, 76704, Note_on_c, 0, 77, 92
2, 76800, Note_off_c, 0, 77, 64
2, 76800, Note_on_c, 0, 76, 92
2, 76896, Note_off_c, 0, 76, 64
2, 76896, Note_on_c, 0, 74, 92
2, 76992, Note_off_c, 0, 74, 64
2, 76992, Note_on_c, 0, 72, 92
2, 77088, Note_off_c, 0, 72, 64
2, 77088, Note_on_c, 0, 74, 92
2, 77184, Note_off_c, 0, 74, 64
2, 77184, Note_on_c, 0, 76, 92
2, 77280, Note_off_c, 0, 76, 64
2, 77280, Note_on_c, 0, 74, 92
2, 77376, Note_off_c, 0, 74, 64
2, 77376, Note_on_c, 0, 76, 92
2, 77472, Note_off_c, 0, 76, 64
2, 77472, Note_on_c, 0, 77, 92
2, 77568, Note_off_c, 0, 77, 64
2, 77568, Note_on_c, 0, 79, 92
2, 77664, Note_off_c, 0, 79, 64
2, 77664, Note_on_c, 0, 76, 92
2, 77760, Note_off_c, 0, 76, 64
2, 77760, Note_on_c, 0, 77, 92
2, 77856, Note_off_c, 0, 77, 64
2, 77856, Note_on_c, 0, 79, 92
2, 77952, Note_off_c, 0, 79, 64
2, 77952, Note_on_c, 0, 72, 92
2, 78048, Note_off_c, 0, 72, 64
2, 78048, Note_on_c, 0, 79, 92
2, 78144, Note_off_c, 0, 79, 64
2, 78144, Note_on_c, 0, 77, 92
2, 78240, Note_off_c, 0, 77, 64
2, 78240, Note_on_c, 0, 76, 92
2, 78336, Note_off_c, 0, 76, 64
2, 78336, Note_on_c, 0, 77, 92
2, 78432, Note_off_c, 0, 77, 64
2, 78432, Note_on_c, 0, 80, 92
2, 78528, Note_off_c, 0, 80, 64
2, 78528, Note_on_c, 0, 79, 92
2, 78624, Note_off_c, 0, 79, 64
2, 78624, Note_on_c, 0, 82, 92
2, 78720, Note_off_c, 0, 82, 64
2, 78720, Note_on_c, 0, 80, 92
2, 78816, Note_off_c, 0, 80, 64
2, 78816, Note_on_c, 0, 84, 92
2, 78912, Note_off_c, 0, 84, 64
2, 78912, Note_on_c, 0, 82, 92
2, 79008, Note_off_c, 0, 82, 64
2, 79008, Note_on_c, 0, 80, 92
2, 79104, Note_off_c, 0, 80, 64
2, 79104, Note_on_c, 0, 79, 92
2, 79200, Note_off_c, 0, 79, 64
2, 79200, Note_on_c, 0, 80, 92
2, 79296, Note_off_c, 0, 80, 64
2, 79296, Note_on_c, 0, 79, 92
2, 79392, Note_off_c, 0, 79, 64
2, 79392, Note_on_c, 0, 77, 92
2, 79488, Note_off_c, 0, 77, 64
2, 79488, Note_on_c, 0, 76, 92
2, 79584, Note_off_c, 0, 76, 64
2, 79584, Note_on_c, 0, 73, 92
2, 79680, Note_off_c, 0, 73, 64
2, 79680, Note_on_c, 0, 72, 92
2, 79776, Note_off_c, 0, 72, 64
2, 79776, Note_on_c, 0, 70, 92
2, 79872, Note_off_c, 0, 70, 64
2, 79872, Note_on_c, 0, 68, 92
2, 79968, Note_off_c, 0, 68, 64
2, 79968, Note_on_c, 0, 70, 92
2, 80064, Note_off_c, 0, 70, 64
2, 80064, Note_on_c, 0, 72, 92
2, 80160, Note_off_c, 0, 72, 64
2, 80160, Note_on_c, 0, 70, 92
2, 80256, Note_off_c, 0, 70, 64
2, 80256, Note_on_c, 0, 68, 92
2, 80352, Note_off_c, 0, 68, 64
2, 80352, Note_on_c, 0, 67, 92
2, 80448, Note_off_c, 0, 67, 64
2, 80448, Note_on_c, 0, 65, 92
2, 80544, Note_off_c, 0, 65, 64
2, 80544, Note_on_c, 0, 63, 92
2, 80640, Note_off_c, 0, 63, 64
2, 80640, Note_on_c, 0, 61, 92
2, 80736, Note_off_c, 0, 61, 64
2, 80736, Note_on_c, 0, 72, 92
2, 80832, Note_off_c, 0, 72, 64
2, 80832, Note_on_c, 0, 70, 92
2, 80928, Note_off_c, 0, 70, 64
2, 80928, Note_on_c, 0, 68, 92
2, 81024, Note_off_c, 0, 68, 64
2, 81024, Note_on_c, 0, 67, 92
2, 81120, Note_off_c, 0, 67, 64
2, 81120, Note_on_c, 0, 68, 92
2, 81216, Note_off_c, 0, 68, 64
2, 81216, Note_on_c, 0, 70, 92
2, 81312, Note_off_c, 0, 70, 64
2, 81312, Note_on_c, 0, 68, 92
2, 81408, Note_off_c, 0, 68, 64
2, 81408, Note_on_c, 0, 67, 92
2, 81504, Note_off_c, 0, 67, 64
2, 81504, Note_on_c, 0, 65, 92
2, 81600, Note_off_c, 0, 65, 64
2, 81600, Note_on_c, 0, 64, 92
2, 81696, Note_off_c, 0, 64, 64
2, 81696, Note_on_c, 0, 62, 92
2, 81792, Note_off_c, 0, 62, 64
2, 81792, Note_on_c, 0, 60, 92
2, 81888, Note_off_c, 0, 60, 64
2, 81888, Note_on_c, 0, 58, 92
2, 81984, Note_off_c, 0, 58, 64
2, 81984, Note_on_c, 0, 56, 92
2, 82080, Note_off_c, 0, 56, 64
2, 82080, Note_on_c, 0, 55, 92
2, 82176, Note_off_c, 0, 55, 64
2, 82176, Note_on_c, 0, 53, 92
2, 82368, Note_off_c, 0, 53, 64
2, 82656, Note_on_c, 0, 72, 92
2, 82752, Note_off_c, 0, 72, 64
2, 82752, Note_on_c, 0, 74, 92
2, 82848, Note_off_c, 0, 74, 64
2, 82848, Note_on_c, 0, 76, 92
2, 82944, Note_off_c, 0, 76, 64
2, 82944, Note_on_c, 0, 77, 92
2, 83040, Note_off_c, 0, 77, 64
2, 83040, Note_on_c, 0, 76, 92
2, 83136, Note_off_c, 0, 76, 64
2, 83136, Note_on_c, 0, 77, 92
2, 83232, Note_off_c, 0, 77, 64
2, 83232, Note_on_c, 0, 72, 92
2, 83328, Note_off_c, 0, 72, 64
2, 83328, Note_on_c, 0, 70, 92
2, 83424, Note_off_c, 0, 70, 64
2, 83424, Note_on_c, 0, 77, 92
2, 83520, Note_off_c, 0, 77, 64
2, 83520, Note_on_c, 0, 68, 92
2, 83616, Note_off_c, 0, 68, 64
2, 83616, Note_on_c, 0, 72, 92
2, 83712, Note_off_c, 0, 72, 64
2, 83712, Note_on_c, 0, 77, 92
2, 83808, Note_off_c, 0, 77, 64
2, 83808, Note_on_c, 0, 76, 92
2, 83904, Note_off_c, 0, 76, 64
2, 83904, Note_on_c, 0, 77, 92
2, 84000, Note_off_c, 0, 77, 64
2, 84000, Note_on_c, 0, 72, 92
2, 84096, Note_off_c, 0, 72, 64
2, 84096, Note_on_c, 0, 74, 92
2, 84192, Note_off_c, 0, 74, 64
2, 84192, Note_on_c, 0, 77, 92
2, 84288, Note_off_c, 0, 77, 64
2, 84288, Note_on_c, 0, 75, 92
2, 84384, Note_off_c, 0, 75, 64
2, 84384, Note_on_c, 0, 77, 92
2, 84480, Note_off_c, 0, 77, 64
2, 84480, Note_on_c, 0, 74, 92
2, 86112, Note_off_c, 0, 74, 64
2, 86112, Note_on_c, 0, 72, 92
2, 86208, Note_off_c, 0, 72, 64
2, 86208, Note_on_c, 0, 74, 92
2, 86304, Note_off_c, 0, 74, 64
2, 86304, Note_on_c, 0, 70, 92
2, 86400, Note_off_c, 0, 70, 64
2, 86400, Note_on_c, 0, 68, 92
2, 86496, Note_off_c, 0, 68, 64
2, 86496, Note_on_c, 0, 74, 92
2, 86592, Note_off_c, 0, 74, 64
2, 86592, Note_on_c, 0, 67, 92
2, 86688, Note_off_c, 0, 67, 64
2, 86688, Note_on_c, 0, 70, 92
2, 86784, Note_off_c, 0, 70, 64
2, 86784, Note_on_c, 0, 75, 92
2, 86880, Note_off_c, 0, 75, 64
2, 86880, Note_on_c, 0, 74, 92
2, 86976, Note_off_c, 0, 74, 64
2, 86976, Note_on_c, 0, 75, 92
2, 87072, Note_off_c, 0, 75, 64
2, 87072, Note_on_c, 0, 71, 92
2, 87168, Note_off_c, 0, 71, 64
2, 87168, Note_on_c, 0, 72, 92
2, 87264, Note_off_c, 0, 72, 64
2, 87264, Note_on_c, 0, 75, 92
2, 87360, Note_off_c, 0, 75, 64
2, 87360, Note_on_c, 0, 74, 92
2, 87456, Note_off_c, 0, 74, 64
2, 87456, Note_on_c, 0, 75, 92
2, 87552, Note_off_c, 0, 75, 64
2, 87552, Note_on_c, 0, 72, 92
2, 89184, Note_off_c, 0, 72, 64
2, 89184, Note_on_c, 0, 71, 92
2, 89280, Note_off_c, 0, 71, 64
2, 89280, Note_on_c, 0, 72, 92
2, 89376, Note_off_c, 0, 72, 64
2, 89376, Note_on_c, 0, 68, 92
2, 89472, Note_off_c, 0, 68, 64
2, 89472, Note_on_c, 0, 67, 92
2, 89568, Note_off_c, 0, 67, 64
2, 89568, Note_on_c, 0, 72, 92
2, 89664, Note_off_c, 0, 72, 64
2, 89664, Note_on_c, 0, 65, 92
2, 89760, Note_off_c, 0, 65, 64
2, 89760, Note_on_c, 0, 72, 92
2, 89856, Note_off_c, 0, 72, 64
2, 89856, Note_on_c, 0, 74, 92
2, 89952, Note_off_c, 0, 74, 64
2, 89952, Note_on_c, 0, 72, 92
2, 90048, Note_off_c, 0, 72, 64
2, 90048, Note_on_c, 0, 74, 92
2, 90144, Note_off_c, 0, 74, 64
2, 90144, Note_on_c, 0, 69, 92
2, 90240, Note_off_c, 0, 69, 64
2, 90240, Note_on_c, 0, 71, 92
2, 90336, Note_off_c, 0, 71, 64
2, 90336, Note_on_c, 0, 74, 92
2, 90432, Note_off_c, 0, 74, 64
2, 90432, Note_on_c, 0, 72, 92
2, 90528, Note_off_c, 0, 72, 64
2, 90528, Note_on_c, 0, 74, 92
2, 90624, Note_off_c, 0, 74, 64
2, 90624, Note_on_c, 0, 71, 92
2, 90816, Note_off_c, 0, 71, 64
2, 90816, Note_on_c, 0, 74, 92
2, 91008, Note_off_c, 0, 74, 64
2, 91008, Note_on_c, 0, 79, 92
2, 91200, Note_off_c, 0, 79, 64
2, 91200, Note_on_c, 0, 77, 92
2, 91584, Note_off_c, 0, 77, 64
2, 91584, Note_on_c, 0, 68, 92
2, 91776, Note_off_c, 0, 68, 64
2, 91776, Note_on_c, 0, 67, 92
2, 91968, Note_off_c, 0, 67, 64
2, 91968, Note_on_c, 0, 77, 92
2, 92160, Note_off_c, 0, 77, 64
2, 92160, Note_on_c, 0, 75, 92
2, 92256, Note_off_c, 0, 75, 64
2, 92256, Note_on_c, 0, 74, 92
2, 92352, Note_off_c, 0, 74, 64
2, 92352, Note_on_c, 0, 72, 92
2, 92448, Note_off_c, 0, 72, 64
2, 92448, Note_on_c, 0, 70, 92
2, 92544, Note_off_c, 0, 70, 64
2, 92544, Note_on_c, 0, 68, 92
2, 92640, Note_off_c, 0, 68, 64
2, 92640, Note_on_c, 0, 72, 92
2, 92736, Note_off_c, 0, 72, 64
2, 92736, Note_on_c, 0, 65, 92
2, 92832, Note_off_c, 0, 65, 64
2, 92832, Note_on_c, 0, 75, 92
2, 92928, Note_off_c, 0, 75, 64
2, 92928, Note_on_c, 0, 74, 92
2, 93024, Note_off_c, 0, 74, 64
2, 93024, Note_on_c, 0, 72, 92
2, 93120, Note_off_c, 0, 72, 64
2, 93120, Note_on_c, 0, 70, 92
2, 93216, Note_off_c, 0, 70, 64
2, 93216, Note_on_c, 0, 68, 92
2, 93312, Note_off_c, 0, 68, 64
2, 93312, Note_on_c, 0, 67, 92
2, 93408, Note_off_c, 0, 67, 64
2, 93408, Note_on_c, 0, 70, 92
2, 93504, Note_off_c, 0, 70, 64
2, 93504, Note_on_c, 0, 63, 92
2, 93600, Note_off_c, 0, 63, 64
2, 93600, Note_on_c, 0, 73, 92
2, 93696, Note_off_c, 0, 73, 64
2, 93696, Note_on_c, 0, 72, 92
2, 93792, Note_off_c, 0, 72, 64
2, 93792, Note_on_c, 0, 70, 92
2, 93888, Note_off_c, 0, 70, 64
2, 93888, Note_on_c, 0, 68, 92
2, 93984, Note_off_c, 0, 68, 64
2, 93984, Note_on_c, 0, 67, 92
2, 94080, Note_off_c, 0, 67, 64
2, 94080, Note_on_c, 0, 65, 92
2, 94176, Note_off_c, 0, 65, 64
2, 94176, Note_on_c, 0, 68, 92
2, 94272, Note_off_c, 0, 68, 64
2, 94272, Note_on_c, 0, 62, 92
2, 94368, Note_off_c, 0, 62, 64
2, 94368, Note_on_c, 0, 72, 92
2, 94464, Note_off_c, 0, 72, 64
2, 94464, Note_on_c, 0, 71, 92
2, 94560, Note_off_c, 0, 71, 64
2, 94560, Note_on_c, 0, 67, 92
2, 94656, Note_off_c, 0, 67, 64
2, 94656, Note_on_c, 0, 66, 92
2, 94752, Note_off_c, 0, 66, 64
2, 94752, Note_on_c, 0, 67, 92
2, 94848, Note_off_c, 0, 67, 64
2, 94848, Note_on_c, 0, 71, 92
2, 94944, Note_off_c, 0, 71, 64
2, 94944, Note_on_c, 0, 67, 92
2, 95040, Note_off_c, 0, 67, 64
2, 95040, Note_on_c, 0, 74, 92
2, 95136, Note_off_c, 0, 74, 64
2, 95136, Note_on_c, 0, 67, 92
2, 95232, Note_off_c, 0, 67, 64
2, 95232, Note_on_c, 0, 79, 92
2, 96096, Note_off_c, 0, 79, 64
2, 96096, Note_on_c, 0, 77, 92
2, 96192, Note_off_c, 0, 77, 64
2, 96192, Note_on_c, 0, 76, 92
2, 96288, Note_off_c, 0, 76, 64
2, 96288, Note_on_c, 0, 74, 92
2, 96384, Note_off_c, 0, 74, 64
2, 96384, Note_on_c, 0, 72, 92
2, 96480, Note_off_c, 0, 72, 64
2, 96480, Note_on_c, 0, 77, 92
2, 96576, Note_off_c, 0, 77, 64
2, 96576, Note_on_c, 0, 70, 92
2, 96672, Note_off_c, 0, 70, 64
2, 96672, Note_on_c, 0, 77, 92
2, 96768, Note_off_c, 0, 77, 64
2, 96768, Note_on_c, 0, 68, 92
2, 97632, Note_off_c, 0, 68, 64
2, 97632, Note_on_c, 0, 67, 92
2, 97728, Note_off_c, 0, 67, 64
2, 97728, Note_on_c, 0, 65, 92
2, 97824, Note_off_c, 0, 65, 64
2, 97824, Note_on_c, 0, 63, 92
2, 97920, Note_off_c, 0, 63, 64
2, 97920, Note_on_c, 0, 62, 92
2, 98016, Note_off_c, 0, 62, 64
2, 98016, Note_on_c, 0, 65, 92
2, 98112, Note_off_c, 0, 65, 64
2, 98112, Note_on_c, 0, 60, 92
2, 98208, Note_off_c, 0, 60, 64
2, 98208, Note_on_c, 0, 65, 92
2, 98304, Note_off_c, 0, 65, 64
2, 98304, Note_on_c, 0, 59, 92
2, 98688, Note_off_c, 0, 59, 64
2, 98880, Note_on_c, 0, 71, 92
2, 99072, Note_off_c, 0, 71, 64
2, 99072, Note_on_c, 0, 72, 92
2, 99168, Note_off_c, 0, 72, 64
2, 99168, Note_on_c, 0, 67, 92
2, 99264, Note_off_c, 0, 67, 64
2, 99264, Note_on_c, 0, 69, 92
2, 99360, Note_off_c, 0, 69, 64
2, 99360, Note_on_c, 0, 71, 92
2, 99456, Note_off_c, 0, 71, 64
2, 99456, Note_on_c, 0, 72, 92
2, 99552, Note_off_c, 0, 72, 64
2, 99552, Note_on_c, 0, 71, 92
2, 99648, Note_off_c, 0, 71, 64
2, 99648, Note_on_c, 0, 72, 92
2, 99744, Note_off_c, 0, 72, 64
2, 99744, Note_on_c, 0, 74, 92
2, 99840, Note_off_c, 0, 74, 64
2, 99840, Note_on_c, 0, 75, 92
2, 100032, Note_off_c, 0, 75, 64
2, 100032, Note_on_c, 0, 79, 92
2, 100224, Note_off_c, 0, 79, 64
2, 100224, Note_on_c, 0, 72, 92
2, 100416, Note_off_c, 0, 72, 64
2, 100416, Note_on_c, 0, 76, 92
2, 100608, Note_off_c, 0, 76, 64
2, 100608, Note_on_c, 0, 77, 92
2, 100704, Note_off_c, 0, 77, 64
2, 100704, Note_on_c, 0, 64, 92
2, 100800, Note_off_c, 0, 64, 64
2, 100800, Note_on_c, 0, 65, 92
2, 100896, Note_off_c, 0, 65, 64
2, 100896, Note_on_c, 0, 67, 92
2, 100992, Note_off_c, 0, 67, 64
2, 100992, Note_on_c, 0, 68, 92
2, 101088, Note_off_c, 0, 68, 64
2, 101088, Note_on_c, 0, 70, 92
2, 101184, Note_off_c, 0, 70, 64
2, 101184, Note_on_c, 0, 72, 92
2, 101280, Note_off_c, 0, 72, 64
2, 101280, Note_on_c, 0, 73, 92
2, 101376, Note_off_c, 0, 73, 64
2, 101376, Note_on_c, 0, 75, 92
2, 101472, Note_off_c, 0, 75, 64
2, 101472, Note_on_c, 0, 72, 92
2, 101568, Note_off_c, 0, 72, 64
2, 101568, Note_on_c, 0, 67, 92
2, 101664, Note_off_c, 0, 67, 64
2, 101664, Note_on_c, 0, 75, 92
2, 101760, Note_off_c, 0, 75, 64
2, 101760, Note_on_c, 0, 65, 92
2, 101856, Note_off_c, 0, 65, 64
2, 101856, Note_on_c, 0, 73, 92
2, 101952, Note_off_c, 0, 73, 64
2, 101952, Note_on_c, 0, 63, 92
2, 102048, Note_off_c, 0, 63, 64
2, 102048, Note_on_c, 0, 72, 92
2, 102144, Note_off_c, 0, 72, 64
2, 102144, Note_on_c, 0, 61, 92
2, 102240, Note_off_c, 0, 61, 64
2, 102240, Note_on_c, 0, 65, 92
2, 102336, Note_off_c, 0, 65, 64
2, 102336, Note_on_c, 0, 67, 92
2, 102432, Note_off_c, 0, 67, 64
2, 102432, Note_on_c, 0, 69, 92
2, 102528, Note_off_c, 0, 69, 64
2, 102528, Note_on_c, 0, 70, 92
2, 102624, Note_off_c, 0, 70, 64
2, 102624, Note_on_c, 0, 72, 92
2, 102720, Note_off_c, 0, 72, 64
2, 102720, Note_on_c, 0, 74, 92
2, 102816, Note_off_c, 0, 74, 64
2, 102816, Note_on_c, 0, 75, 92
2, 102912, Note_off_c, 0, 75, 64
2, 102912, Note_on_c, 0, 77, 92
2, 103008, Note_off_c, 0, 77, 64
2, 103008, Note_on_c, 0, 74, 92
2, 103104, Note_off_c, 0, 74, 64
2, 103104, Note_on_c, 0, 68, 92
2, 103200, Note_off_c, 0, 68, 64
2, 103200, Note_on_c, 0, 77, 92
2, 103296, Note_off_c, 0, 77, 64
2, 103296, Note_on_c, 0, 67, 92
2, 103392, Note_off_c, 0, 67, 64
2, 103392, Note_on_c, 0, 71, 92
2, 103488, Note_off_c, 0, 71, 64
2, 103488, Note_on_c, 0, 74, 92
2, 103584, Note_off_c, 0, 74, 64
2, 103584, Note_on_c, 0, 77, 92
2, 103680, Note_off_c, 0, 77, 64
2, 103680, Note_on_c, 0, 77, 92
2, 103728, Note_off_c, 0, 77, 64
2, 103728, Note_on_c, 0, 75, 92
2, 103776, Note_off_c, 0, 75, 64
2, 103776, Note_on_c, 0, 77, 92
2, 103824, Note_off_c, 0, 77, 64
2, 103824, Note_on_c, 0, 75, 92
2, 103872, Note_off_c, 0, 75, 64
2, 103872, Note_on_c, 0, 77, 92
2, 103920, Note_off_c, 0, 77, 64
2, 103920, Note_on_c, 0, 75, 92
2, 103968, Note_off_c, 0, 75, 64
2, 103968, Note_on_c, 0, 77, 92
2, 104016, Note_off_c, 0, 77, 64
2, 104016, Note_on_c, 0, 75, 92
2, 104064, Note_off_c, 0, 75, 64
2, 104064, Note_on_c, 0, 77, 92
2, 104112, Note_off_c, 0, 77, 64
2, 104112, Note_on_c, 0, 75, 92
2, 104160, Note_off_c, 0, 75, 64
2, 104160, Note_on_c, 0, 77, 92
2, 104208, Note_off_c, 0, 77, 64
2, 104208, Note_on_c, 0, 75, 92
2, 104256, Note_off_c, 0, 75, 64
2, 104256, Note_on_c, 0, 77, 92
2, 104304, Note_off_c, 0, 77, 64
2, 104304, Note_on_c, 0, 75, 92
2, 104352, Note_off_c, 0, 75, 64
2, 104352, Note_on_c, 0, 77, 92
2, 104400, Note_off_c, 0, 77, 64
2, 104400, Note_on_c, 0, 75, 92
2, 104448, Note_off_c, 0, 75, 64
2, 104448, Note_on_c, 0, 77, 92
2, 104496, Note_off_c, 0, 77, 64
2, 104496, Note_on_c, 0, 76, 92
2, 104544, Note_off_c, 0, 76, 64
2, 104544, Note_on_c, 0, 77, 92
2, 104592, Note_off_c, 0, 77, 64
2, 104592, Note_on_c, 0, 76, 92
2, 104640, Note_off_c, 0, 76, 64
2, 104640, Note_on_c, 0, 77, 92
2, 104688, Note_off_c, 0, 77, 64
2, 104688, Note_on_c, 0, 76, 92
2, 104736, Note_off_c, 0, 76, 64
2, 104736, Note_on_c, 0, 77, 92
2, 104784, Note_off_c, 0, 77, 64
2, 104784, Note_on_c, 0, 76, 92
2, 104832, Note_off_c, 0, 76, 64
2, 104832, Note_on_c, 0, 77, 92
2, 104880, Note_off_c, 0, 77, 64
2, 104880, Note_on_c, 0, 76, 92
2, 104928, Note_off_c, 0, 76, 64
2, 104928, Note_on_c, 0, 77, 92
2, 104976, Note_off_c, 0, 77, 64
2, 104976, Note_on_c, 0, 76, 92
2, 105024, Note_off_c, 0, 76, 64
2, 105024, Note_on_c, 0, 77, 92
2, 105072, Note_off_c, 0, 77, 64
2, 105072, Note_on_c, 0, 76, 92
2, 105120, Note_off_c, 0, 76, 64
2, 105120, Note_on_c, 0, 77, 92
2, 105168, Note_off_c, 0, 77, 64
2, 105168, Note_on_c, 0, 76, 92
2, 105216, Note_off_c, 0, 76, 64
2, 105216, Note_on_c, 0, 79, 92
2, 105264, Note_off_c, 0, 79, 64
2, 105264, Note_on_c, 0, 77, 92
2, 105312, Note_off_c, 0, 77, 64
2, 105312, Note_on_c, 0, 79, 92
2, 105360, Note_off_c, 0, 79, 64
2, 105360, Note_on_c, 0, 77, 92
2, 105408, Note_off_c, 0, 77, 64
2, 105408, Note_on_c, 0, 79, 92
2, 105456, Note_off_c, 0, 79, 64
2, 105456, Note_on_c, 0, 77, 92
2, 105504, Note_off_c, 0, 77, 64
2, 105504, Note_on_c, 0, 79, 92
2, 105552, Note_off_c, 0, 79, 64
2, 105552, Note_on_c, 0, 77, 92
2, 105600, Note_off_c, 0, 77, 64
2, 105600, Note_on_c, 0, 79, 92
2, 105648, Note_off_c, 0, 79, 64
2, 105648, Note_on_c, 0, 77, 92
2, 105696, Note_off_c, 0, 77, 64
2, 105696, Note_on_c, 0, 79, 92
2, 105744, Note_off_c, 0, 79, 64
2, 105744, Note_on_c, 0, 77, 92
2, 105792, Note_off_c, 0, 77, 64
2, 105792, Note_on_c, 0, 79, 92
2, 105840, Note_off_c, 0, 79, 64
2, 105840, Note_on_c, 0, 77, 92
2, 105888, Note_off_c, 0, 77, 64
2, 105888, Note_on_c, 0, 79, 92
2, 105936, Note_off_c, 0, 79, 64
2, 105936, Note_on_c, 0, 77, 92
2, 105984, Note_off_c, 0, 77, 64
2, 105984, Note_on_c, 0, 79, 92
2, 106032, Note_off_c, 0, 79, 64
2, 106032, Note_on_c, 0, 78, 92
2, 106080, Note_off_c, 0, 78, 64
2, 106080, Note_on_c, 0, 79, 92
2, 106128, Note_off_c, 0, 79, 64
2, 106128, Note_on_c, 0, 78, 92
2, 106176, Note_off_c, 0, 78, 64
2, 106176, Note_on_c, 0, 79, 92
2, 106224, Note_off_c, 0, 79, 64
2, 106224, Note_on_c, 0, 78, 92
2, 106272, Note_off_c, 0, 78, 64
2, 106272, Note_on_c, 0, 79, 92
2, 106320, Note_off_c, 0, 79, 64
2, 106320, Note_on_c, 0, 78, 92
2, 106368, Note_off_c, 0, 78, 64
2, 106368, Note_on_c, 0, 79, 92
2, 106416, Note_off_c, 0, 79, 64
2, 106416, Note_on_c, 0, 78, 92
2, 106464, Note_off_c, 0, 78, 64
2, 106464, Note_on_c, 0, 79, 92
2, 106512, Note_off_c, 0, 79, 64
2, 106512, Note_on_c, 0, 78, 92
2, 106560, Note_off_c, 0, 78, 64
2, 106560, Note_on_c, 0, 79, 92
2, 106608, Note_off_c, 0, 79, 64
2, 106608, Note_on_c, 0, 78, 92
2, 106656, Note_off_c, 0, 78, 64
2, 106656, Note_on_c, 0, 79, 92
2, 106704, Note_off_c, 0, 79, 64
2, 106704, Note_on_c, 0, 78, 92
2, 106752, Note_off_c, 0, 78, 64
2, 106752, Note_on_c, 0, 79, 92
2, 107136, Note_off_c, 0, 79, 64
2, 107520, Note_on_c, 0, 79, 92
2, 107904, Note_off_c, 0, 79, 64
2, 107904, Note_on_c, 0, 63, 92
2, 108000, Note_off_c, 0, 63, 64
2, 108000, Note_on_c, 0, 62, 92
2, 108096, Note_off_c, 0, 62, 64
2, 108096, Note_on_c, 0, 63, 92
2, 108192, Note_off_c, 0, 63, 64
2, 108192, Note_on_c, 0, 65, 92
2, 108288, Note_off_c, 0, 65, 64
2, 108288, Note_on_c, 0, 67, 92
2, 108480, Note_off_c, 0, 67, 64
2, 108480, Note_on_c, 0, 79, 92
2, 108672, Note_off_c, 0, 79, 64
2, 108672, Note_on_c, 0, 77, 92
2, 108720, Note_off_c, 0, 77, 64
2, 108720, Note_on_c, 0, 79, 92
2, 108768, Note_off_c, 0, 79, 64
2, 108768, Note_on_c, 0, 77, 92
2, 108864, Note_off_c, 0, 77, 64
2, 108864, Note_on_c, 0, 75, 92
2, 109056, Note_off_c, 0, 75, 64
2, 109056, Note_on_c, 0, 77, 92
2, 109440, Note_off_c, 0, 77, 64
2, 109440, Note_on_c, 0, 62, 92
2, 109536, Note_off_c, 0, 62, 64
2, 109536, Note_on_c, 0, 60, 92
2, 109632, Note_off_c, 0, 60, 64
2, 109632, Note_on_c, 0, 62, 92
2, 109728, Note_off_c, 0, 62, 64
2, 109728, Note_on_c, 0, 63, 92
2, 109824, Note_off_c, 0, 63, 64
2, 109824, Note_on_c, 0, 65, 92
2, 110016, Note_off_c, 0, 65, 64
2, 110016, Note_on_c, 0, 77, 92
2, 110208, Note_off_c, 0, 77, 64
2, 110208, Note_on_c, 0, 75, 92
2, 110256, Note_off_c, 0, 75, 64
2, 110256, Note_on_c, 0, 77, 92
2, 110304, Note_off_c, 0, 77, 64
2, 110304, Note_on_c, 0, 75, 92
2, 110400, Note_off_c, 0, 75, 64
2, 110400, Note_on_c, 0, 74, 92
2, 110592, Note_off_c, 0, 74, 64
2, 110592, Note_on_c, 0, 75, 92
2, 110688, Note_off_c, 0, 75, 64
2, 110688, Note_on_c, 0, 74, 92
2, 110784, Note_off_c, 0, 74, 64
2, 110784, Note_on_c, 0, 72, 92
2, 110880, Note_off_c, 0, 72, 64
2, 110880, Note_on_c, 0, 70, 92
2, 110976, Note_off_c, 0, 70, 64
2, 110976, Note_on_c, 0, 68, 92
2, 111072, Note_off_c, 0, 68, 64
2, 111072, Note_on_c, 0, 72, 92
2, 111168, Note_off_c, 0, 72, 64
2, 111168, Note_on_c, 0, 65, 92
2, 111264, Note_off_c, 0, 65, 64
2, 111264, Note_on_c, 0, 75, 92
2, 111360, Note_off_c, 0, 75, 64
2, 111360, Note_on_c, 0, 74, 92
2, 111456, Note_off_c, 0, 74, 64
2, 111456, Note_on_c, 0, 72, 92
2, 111552, Note_off_c, 0, 72, 64
2, 111552, Note_on_c, 0, 70, 92
2, 111648, Note_off_c, 0, 70, 64
2, 111648, Note_on_c, 0, 68, 92
2, 111744, Note_off_c, 0, 68, 64
2, 111744, Note_on_c, 0, 67, 92
2, 111840, Note_off_c, 0, 67, 64
2, 111840, Note_on_c, 0, 70, 92
2, 111936, Note_off_c, 0, 70, 64
2, 111936, Note_on_c, 0, 63, 92
2, 112032, Note_off_c, 0, 63, 64
2, 112032, Note_on_c, 0, 73, 92
2, 112128, Note_off_c, 0, 73, 64
2, 112128, Note_on_c, 0, 72, 92
2, 112224, Note_off_c, 0, 72, 64
2, 112224, Note_on_c, 0, 70, 92
2, 112320, Note_off_c, 0, 70, 64
2, 112320, Note_on_c, 0, 68, 92
2, 112416, Note_off_c, 0, 68, 64
2, 112416, Note_on_c, 0, 67, 92
2, 112512, Note_off_c, 0, 67, 64
2, 112512, Note_on_c, 0, 65, 92
2, 112608, Note_off_c, 0, 65, 64
2, 112608, Note_on_c, 0, 68, 92
2, 112704, Note_off_c, 0, 68, 64
2, 112704, Note_on_c, 0, 62, 92
2, 112800, Note_off_c, 0, 62, 64
2, 112800, Note_on_c, 0, 72, 92
2, 112896, Note_off_c, 0, 72, 64
2, 112896, Note_on_c, 0, 71, 92
2, 113088, Note_off_c, 0, 71, 64
2, 113088, Note_on_c, 0, 72, 92
2, 113184, Note_off_c, 0, 72, 64
2, 113184, Note_on_c, 0, 74, 92
2, 113280, Note_off_c, 0, 74, 64
2, 113280, Note_on_c, 0, 75, 92
2, 113376, Note_off_c, 0, 75, 64
2, 113376, Note_on_c, 0, 77, 92
2, 113472, Note_off_c, 0, 77, 64
2, 113472, Note_on_c, 0, 79, 92
2, 113568, Note_off_c, 0, 79, 64
2, 113568, Note_on_c, 0, 80, 92
2, 113664, Note_off_c, 0, 80, 64
2, 113664, Note_on_c, 0, 82, 92
2, 114048, Note_off_c, 0, 82, 64
2, 114048, Note_on_c, 0, 67, 92
2, 114144, Note_off_c, 0, 67, 64
2, 114144, Note_on_c, 0, 65, 92
2, 114240, Note_off_c, 0, 65, 64
2, 114240, Note_on_c, 0, 67, 92
2, 114336, Note_off_c, 0, 67, 64
2, 114336, Note_on_c, 0, 68, 92
2, 114432, Note_off_c, 0, 68, 64
2, 114432, Note_on_c, 0, 70, 92
2, 114528, Note_off_c, 0, 70, 64
2, 114528, Note_on_c, 0, 72, 92
2, 114624, Note_off_c, 0, 72, 64
2, 114624, Note_on_c, 0, 73, 92
2, 114720, Note_off_c, 0, 73, 64
2, 114720, Note_on_c, 0, 82, 92
2, 114816, Note_off_c, 0, 82, 64
2, 114816, Note_on_c, 0, 80, 92
2, 114912, Note_off_c, 0, 80, 64
2, 114912, Note_on_c, 0, 73, 92
2, 115008, Note_off_c, 0, 73, 64
2, 115008, Note_on_c, 0, 79, 92
2, 115104, Note_off_c, 0, 79, 64
2, 115104, Note_on_c, 0, 73, 92
2, 115200, Note_off_c, 0, 73, 64
2, 115200, Note_on_c, 0, 80, 92
2, 115200, Note_on_c, 0, 72, 92
2, 115584, Note_off_c, 0, 72, 64
2, 115584, Note_off_c, 0, 80, 64
2, 115584, Note_on_c, 0, 68, 92
2, 115680, Note_off_c, 0, 68, 64
2, 115680, Note_on_c, 0, 67, 92
2, 115776, Note_off_c, 0, 67, 64
2, 115776, Note_on_c, 0, 68, 92
2, 115872, Note_off_c, 0, 68, 64
2, 115872, Note_on_c, 0, 70, 92
2, 115968, Note_off_c, 0, 70, 64
2, 115968, Note_on_c, 0, 72, 92
2, 116064, Note_off_c, 0, 72, 64
2, 116064, Note_on_c, 0, 74, 92
2, 116160, Note_off_c, 0, 74, 64
2, 116160, Note_on_c, 0, 75, 92
2, 116256, Note_off_c, 0, 75, 64
2, 116256, Note_on_c, 0, 80, 92
2, 116352, Note_off_c, 0, 80, 64
2, 116352, Note_on_c, 0, 74, 92
2, 116448, Note_off_c, 0, 74, 64
2, 116448, Note_on_c, 0, 80, 92
2, 116544, Note_off_c, 0, 80, 64
2, 116544, Note_on_c, 0, 72, 92
2, 116640, Note_off_c, 0, 72, 64
2, 116640, Note_on_c, 0, 80, 92
2, 116736, Note_off_c, 0, 80, 64
2, 116736, Note_on_c, 0, 71, 92
2, 116928, Note_off_c, 0, 71, 64
2, 116928, Note_on_c, 0, 80, 92
2, 117120, Note_off_c, 0, 80, 64
2, 117120, Note_on_c, 0, 79, 92
2, 117168, Note_off_c, 0, 79, 64
2, 117168, Note_on_c, 0, 80, 92
2, 117216, Note_off_c, 0, 80, 64
2, 117216, Note_on_c, 0, 79, 92
2, 117312, Note_off_c, 0, 79, 64
2, 117312, Note_on_c, 0, 77, 92
2, 117504, Note_off_c, 0, 77, 64
2, 117504, Note_on_c, 0, 67, 92
2, 117696, Note_off_c, 0, 67, 64
2, 117696, Note_on_c, 0, 77, 92
2, 117888, Note_off_c, 0, 77, 64
2, 117888, Note_on_c, 0, 75, 92
2, 117936, Note_off_c, 0, 75, 64
2, 117936, Note_on_c, 0, 77, 92
2, 117984, Note_off_c, 0, 77, 64
2, 117984, Note_on_c, 0, 75, 92
2, 118080, Note_off_c, 0, 75, 64
2, 118080, Note_on_c, 0, 74, 92
2, 118272, Note_off_c, 0, 74, 64
2, 118272, Note_on_c, 0, 72, 92
2, 118464, Note_off_c, 0, 72, 64
2, 118464, Note_on_c, 0, 74, 92
2, 118656, Note_off_c, 0, 74, 64
2, 118656, Note_on_c, 0, 67, 92
2, 118848, Note_off_c, 0, 67, 64
2, 118848, Note_on_c, 0, 71, 92
2, 119040, Note_off_c, 0, 71, 64
2, 119040, Note_on_c, 0, 72, 92
2, 119808, Note_off_c, 0, 72, 64
2, 121730, Note_on_c, 0, 70, 92
2, 124034, Note_on_c, 0, 68, 92
2, 124036, Note_off_c, 0, 70, 64
2, 125186, Note_on_c, 0, 67, 92
2, 125188, Note_off_c, 0, 68, 64
2, 126050, Note_on_c, 0, 63, 92
2, 126052, Note_off_c, 0, 67, 64
2, 126146, Note_on_c, 0, 65, 92
2, 126148, Note_off_c, 0, 63, 64
2, 126242, Note_on_c, 0, 67, 92
2, 126244, Note_off_c, 0, 65, 64
2, 126338, Note_on_c, 0, 68, 92
2, 126340, Note_off_c, 0, 67, 64
2, 126434, Note_on_c, 0, 70, 92
2, 126436, Note_off_c, 0, 68, 64
2, 126530, Note_on_c, 0, 72, 92
2, 126532, Note_off_c, 0, 70, 64
2, 126626, Note_on_c, 0, 75, 92
2, 126628, Note_off_c, 0, 72, 64
2, 126722, Note_on_c, 0, 73, 92
2, 126724, Note_off_c, 0, 75, 64
2, 126818, Note_on_c, 0, 72, 92
2, 126820, Note_off_c, 0, 73, 64
2, 126914, Note_on_c, 0, 70, 92
2, 126916, Note_off_c, 0, 72, 64
2, 127010, Note_on_c, 0, 68, 92
2, 127012, Note_off_c, 0, 70, 64
2, 127106, Note_on_c, 0, 77, 92
2, 127108, Note_off_c, 0, 68, 64
2, 127298, Note_on_c, 0, 74, 92
2, 127300, Note_off_c, 0, 77, 64
2, 127490, Note_on_c, 0, 80, 92
2, 127492, Note_off_c, 0, 74, 64
2, 127682, Note_on_c, 0, 77, 92
2, 127684, Note_off_c, 0, 80, 64
2, 127874, Note_on_c, 0, 82, 92
2, 127876, Note_off_c, 0, 77, 64
2, 127970, Note_on_c, 0, 70, 92
2, 127972, Note_off_c, 0, 82, 64
2, 128066, Note_on_c, 0, 72, 92
2, 128068, Note_off_c, 0, 70, 64
2, 128162, Note_on_c, 0, 73, 92
2, 128164, Note_off_c, 0, 72, 64
2, 128258, Note_on_c, 0, 72, 92
2, 128260, Note_off_c, 0, 73, 64
2, 128450, Note_on_c, 0, 68, 92
2, 128452, Note_off_c, 0, 72, 64
2, 128642, Note_on_c, 0, 65, 92
2, 128644, Note_off_c, 0, 68, 64
2, 128834, Note_on_c, 0, 75, 92
2, 128836, Note_off_c, 0, 65, 64
2, 129122, Note_on_c, 0, 74, 92
2, 129124, Note_off_c, 0, 75, 64
2, 129218, Note_on_c, 0, 72, 92
2, 129220, Note_off_c, 0, 74, 64
2, 129314, Note_on_c, 0, 74, 92
2, 129316, Note_off_c, 0, 72, 64
2, 129410, Note_on_c, 0, 75, 92
2, 129412, Note_off_c, 0, 74, 64
2, 130180, Note_off_c, 0, 75, 64
2, 130562, Note_on_c, 0, 74, 92
2, 130658, Note_on_c, 0, 77, 92
2, 130660, Note_off_c, 0, 74, 64
2, 130754, Note_on_c, 0, 82, 92
2, 130756, Note_off_c, 0, 77, 64
2, 130850, Note_on_c, 0, 81, 92
2, 130852, Note_off_c, 0, 82, 64
2, 130946, Note_on_c, 0, 82, 92
2, 130948, Note_off_c, 0, 81, 64
2, 131042, Note_on_c, 0, 77, 92
2, 131044, Note_off_c, 0, 82, 64
2, 131138, Note_on_c, 0, 77, 92
2, 131140, Note_off_c, 0, 77, 64
2, 131234, Note_on_c, 0, 75, 92
2, 131236, Note_off_c, 0, 77, 64
2, 131330, Note_on_c, 0, 75, 92
2, 131332, Note_off_c, 0, 75, 64
2, 131426, Note_on_c, 0, 74, 92
2, 131428, Note_off_c, 0, 75, 64
2, 131522, Note_on_c, 0, 74, 92
2, 131524, Note_off_c, 0, 74, 64
2, 131618, Note_on_c, 0, 72, 92
2, 131620, Note_off_c, 0, 74, 64
2, 131714, Note_on_c, 0, 72, 92
2, 131716, Note_off_c, 0, 72, 64
2, 131810, Note_on_c, 0, 75, 92
2, 131812, Note_off_c, 0, 72, 64
2, 131906, Note_on_c, 0, 81, 92
2, 131908, Note_off_c, 0, 75, 64
2, 132002, Note_on_c, 0, 79, 92
2, 132004, Note_off_c, 0, 81, 64
2, 132098, Note_on_c, 0, 81, 92
2, 132100, Note_off_c, 0, 79, 64
2, 132194, Note_on_c, 0, 75, 92
2, 132196, Note_off_c, 0, 81, 64
2, 132290, Note_on_c, 0, 75, 92
2, 132292, Note_off_c, 0, 75, 64
2, 132386, Note_on_c, 0, 74, 92
2, 132388, Note_off_c, 0, 75, 64
2, 132482, Note_on_c, 0, 74, 92
2, 132484, Note_off_c, 0, 74, 64
2, 132578, Note_on_c, 0, 72, 92
2, 132580, Note_off_c, 0, 74, 64
2, 132674, Note_on_c, 0, 72, 92
2, 132676, Note_off_c, 0, 72, 64
2, 132770, Note_on_c, 0, 70, 92
2, 132772, Note_off_c, 0, 72, 64
2, 132866, Note_on_c, 0, 70, 92
2, 132868, Note_off_c, 0, 70, 64
2, 132962, Note_on_c, 0, 74, 92
2, 132964, Note_off_c, 0, 70, 64
2, 133058, Note_on_c, 0, 79, 92
2, 133060, Note_off_c, 0, 74, 64
2, 133154, Note_on_c, 0, 77, 92
2, 133156, Note_off_c, 0, 79, 64
2, 133250, Note_on_c, 0, 79, 92
2, 133252, Note_off_c, 0, 77, 64
2, 133346, Note_on_c, 0, 74, 92
2, 133348, Note_off_c, 0, 79, 64
2, 133442, Note_on_c, 0, 74, 92
2, 133444, Note_off_c, 0, 74, 64
2, 133538, Note_on_c, 0, 72, 92
2, 133540, Note_off_c, 0, 74, 64
2, 133634, Note_on_c, 0, 72, 92
2, 133636, Note_off_c, 0, 72, 64
2, 133730, Note_on_c, 0, 70, 92
2, 133732, Note_off_c, 0, 72, 64
2, 133826, Note_on_c, 0, 70, 92
2, 133828, Note_off_c, 0, 70, 64
2, 133922, Note_on_c, 0, 69, 92
2, 133924, Note_off_c, 0, 70, 64
2, 134018, Note_on_c, 0, 69, 92
2, 134020, Note_off_c, 0, 69, 64
2, 134114, Note_on_c, 0, 72, 92
2, 134116, Note_off_c, 0, 69, 64
2, 134210, Note_on_c, 0, 77, 92
2, 134212, Note_off_c, 0, 72, 64
2, 134306, Note_on_c, 0, 75, 92
2, 134308, Note_off_c, 0, 77, 64
2, 134402, Note_on_c, 0, 77, 92
2, 134404, Note_off_c, 0, 75, 64
2, 134498, Note_on_c, 0, 72, 92
2, 134500, Note_off_c, 0, 77, 64
2, 134594, Note_on_c, 0, 72, 92
2, 134596, Note_off_c, 0, 72, 64
2, 134690, Note_on_c, 0, 70, 92
2, 134692, Note_off_c, 0, 72, 64
2, 134786, Note_on_c, 0, 70, 92
2, 134788, Note_off_c, 0, 70, 64
2, 134882, Note_on_c, 0, 68, 92
2, 134884, Note_off_c, 0, 70, 64
2, 134978, Note_on_c, 0, 68, 92
2, 134980, Note_off_c, 0, 68, 64
2, 135074, Note_on_c, 0, 67, 92
2, 135076, Note_off_c, 0, 68, 64
2, 135170, Note_on_c, 0, 67, 92
2, 135172, Note_off_c, 0, 67, 64
2, 135362, Note_on_c, 0, 79, 92
2, 135364, Note_off_c, 0, 67, 64
2, 135746, Note_on_c, 0, 84, 92
2, 135748, Note_off_c, 0, 79, 64
2, 136034, Note_on_c, 0, 75, 92
2, 136036, Note_off_c, 0, 84, 64
2, 136130, Note_on_c, 0, 74, 92
2, 136132, Note_off_c, 0, 75, 64
2, 136226, Note_on_c, 0, 72, 92
2, 136228, Note_off_c, 0, 74, 64
2, 136322, Note_on_c, 0, 82, 92
2, 136324, Note_off_c, 0, 72, 64
2, 136418, Note_on_c, 0, 81, 92
2, 136420, Note_off_c, 0, 82, 64
2, 136514, Note_on_c, 0, 79, 92
2, 136516, Note_off_c, 0, 81, 64
2, 136610, Note_on_c, 0, 77, 92
2, 136612, Note_off_c, 0, 79, 64
2, 136706, Note_on_c, 0, 79, 92
2, 136708, Note_off_c, 0, 77, 64
2, 136802, Note_on_c, 0, 82, 92
2, 136804, Note_off_c, 0, 79, 64
2, 136898, Note_on_c, 0, 81, 92
2, 136900, Note_off_c, 0, 82, 64
2, 136994, Note_on_c, 0, 84, 92
2, 136996, Note_off_c, 0, 81, 64
2, 137090, Note_on_c, 0, 82, 92
2, 137092, Note_off_c, 0, 84, 64
2, 137570, Note_on_c, 0, 81, 92
2, 137572, Note_off_c, 0, 82, 64
2, 137666, Note_on_c, 0, 84, 92
2, 137668, Note_off_c, 0, 81, 64
2, 137762, Note_on_c, 0, 82, 92
2, 137764, Note_off_c, 0, 84, 64
2, 137858, Note_on_c, 0, 81, 92
2, 137860, Note_off_c, 0, 82, 64
2, 137954, Note_on_c, 0, 79, 92
2, 137956, Note_off_c, 0, 81, 64
2, 138050, Note_on_c, 0, 77, 92
2, 138052, Note_off_c, 0, 79, 64
2, 138146, Note_on_c, 0, 75, 92
2, 138148, Note_off_c, 0, 77, 64
2, 138242, Note_on_c, 0, 84, 92
2, 138244, Note_off_c, 0, 75, 64
2, 138434, Note_on_c, 0, 75, 92
2, 138436, Note_off_c, 0, 84, 64
2, 138626, Note_on_c, 0, 74, 92
2, 138628, Note_off_c, 0, 75, 64
2, 138722, Note_on_c, 0, 72, 92
2, 138724, Note_off_c, 0, 74, 64
2, 138818, Note_on_c, 0, 70, 92
2, 138820, Note_off_c, 0, 72, 64
2, 138914, Note_on_c, 0, 72, 92
2, 138916, Note_off_c, 0, 70, 64
2, 139010, Note_on_c, 0, 74, 92
2, 139012, Note_off_c, 0, 72, 64
2, 139106, Note_on_c, 0, 76, 92
2, 139108, Note_off_c, 0, 74, 64
2, 139202, Note_on_c, 0, 77, 92
2, 139204, Note_off_c, 0, 76, 64
2, 139298, Note_on_c, 0, 79, 92
2, 139300, Note_off_c, 0, 77, 64
2, 139394, Note_on_c, 0, 77, 92
2, 139396, Note_off_c, 0, 79, 64
2, 139490, Note_on_c, 0, 76, 92
2, 139492, Note_off_c, 0, 77, 64
2, 139586, Note_on_c, 0, 74, 92
2, 139588, Note_off_c, 0, 76, 64
2, 139682, Note_on_c, 0, 76, 92
2, 139684, Note_off_c, 0, 74, 64
2, 139778, Note_on_c, 0, 77, 92
2, 139780, Note_off_c, 0, 76, 64
2, 139970, Note_on_c, 0, 72, 92
2, 139972, Note_off_c, 0, 77, 64
2, 140162, Note_on_c, 0, 77, 92
2, 140164, Note_off_c, 0, 72, 64
2, 140354, Note_on_c, 0, 80, 92
2, 140356, Note_off_c, 0, 77, 64
2, 140546, Note_on_c, 0, 79, 92
2, 140548, Note_off_c, 0, 80, 64
2, 140738, Note_on_c, 0, 77, 92
2, 140740, Note_off_c, 0, 79, 64
2, 140930, Note_on_c, 0, 75, 92
2, 140932, Note_off_c, 0, 77, 64
2, 141026, Note_on_c, 0, 74, 92
2, 141028, Note_off_c, 0, 75, 64
2, 141122, Note_on_c, 0, 72, 92
2, 141124, Note_off_c, 0, 74, 64
2, 141218, Note_on_c, 0, 74, 92
2, 141220, Note_off_c, 0, 72, 64
2, 141314, Note_on_c, 0, 75, 92
2, 141316, Note_off_c, 0, 74, 64
2, 141410, Note_on_c, 0, 77, 92
2, 141412, Note_off_c, 0, 75, 64
2, 141506, Note_on_c, 0, 79, 92
2, 141508, Note_off_c, 0, 77, 64
2, 141602, Note_on_c, 0, 80, 92
2, 141604, Note_off_c, 0, 79, 64
2, 141698, Note_on_c, 0, 79, 92
2, 141700, Note_off_c, 0, 80, 64
2, 141794, Note_on_c, 0, 77, 92
2, 141796, Note_off_c, 0, 79, 64
2, 141890, Note_on_c, 0, 79, 92
2, 141892, Note_off_c, 0, 77, 64
2, 141986, Note_on_c, 0, 80, 92
2, 141988, Note_off_c, 0, 79, 64
2, 142082, Note_on_c, 0, 71, 92
2, 142084, Note_off_c, 0, 80, 64
2, 142178, Note_on_c, 0, 72, 92
2, 142180, Note_off_c, 0, 71, 64
2, 142274, Note_on_c, 0, 74, 92
2, 142276, Note_off_c, 0, 72, 64
2, 142370, Note_on_c, 0, 71, 92
2, 142372, Note_off_c, 0, 74, 64
2, 142466, Note_on_c, 0, 67, 92
2, 142468, Note_off_c, 0, 71, 64
2, 143330, Note_on_c, 0, 71, 92
2, 143332, Note_off_c, 0, 67, 64
2, 143426, Note_on_c, 0, 74, 92
2, 143428, Note_off_c, 0, 71, 64
2, 143522, Note_on_c, 0, 77, 92
2, 143524, Note_off_c, 0, 74, 64
2, 143618, Note_on_c, 0, 75, 92
2, 143620, Note_off_c, 0, 77, 64
2, 143714, Note_on_c, 0, 74, 92
2, 143716, Note_off_c, 0, 75, 64
2, 143810, Note_on_c, 0, 72, 92
2, 143812, Note_off_c, 0, 74, 64
2, 143906, Note_on_c, 0, 70, 92
2, 143908, Note_off_c, 0, 72, 64
2, 144002, Note_on_c, 0, 68, 92
2, 144004, Note_off_c, 0, 70, 64
2, 144482, Note_on_c, 0, 72, 92
2, 144484, Note_off_c, 0, 68, 64
2, 144578, Note_on_c, 0, 75, 92
2, 144580, Note_off_c, 0, 72, 64
2, 144674, Note_on_c, 0, 79, 92
2, 144676, Note_off_c, 0, 75, 64
2, 144770, Note_on_c, 0, 77, 92
2, 144772, Note_off_c, 0, 79, 64
2, 144866, Note_on_c, 0, 75, 92
2, 144868, Note_off_c, 0, 77, 64
2, 144962, Note_on_c, 0, 74, 92
2, 144964, Note_off_c, 0, 75, 64
2, 145058, Note_on_c, 0, 72, 92
2, 145060, Note_off_c, 0, 74, 64
2, 145154, Note_on_c, 0, 70, 92
2, 145156, Note_off_c, 0, 72, 64
2, 145634, Note_on_c, 0, 73, 92
2, 145636, Note_off_c, 0, 70, 64
2, 145730, Note_on_c, 0, 77, 92
2, 145732, Note_off_c, 0, 73, 64
2, 145826, Note_on_c, 0, 80, 92
2, 145828, Note_off_c, 0, 77, 64
2, 145922, Note_on_c, 0, 79, 92
2, 145924, Note_off_c, 0, 80, 64
2, 146018, Note_on_c, 0, 77, 92
2, 146020, Note_off_c, 0, 79, 64
2, 146114, Note_on_c, 0, 76, 92
2, 146116, Note_off_c, 0, 77, 64
2, 146210, Note_on_c, 0, 74, 92
2, 146212, Note_off_c, 0, 76, 64
2, 146306, Note_on_c, 0, 72, 92
2, 146308, Note_off_c, 0, 74, 64
2, 146786, Note_on_c, 0, 76, 92
2, 146788, Note_off_c, 0, 72, 64
2, 146882, Note_on_c, 0, 79, 92
2, 146884, Note_off_c, 0, 76, 64
2, 146978, Note_on_c, 0, 82, 92
2, 146980, Note_off_c, 0, 79, 64
2, 147074, Note_on_c, 0, 80, 92
2, 147076, Note_off_c, 0, 82, 64
2, 147170, Note_on_c, 0, 79, 92
2, 147172, Note_off_c, 0, 80, 64
2, 147266, Note_on_c, 0, 77, 92
2, 147268, Note_off_c, 0, 79, 64
2, 147362, Note_on_c, 0, 80, 92
2, 147364, Note_off_c, 0, 77, 64
2, 147458, Note_on_c, 0, 74, 92
2, 147460, Note_off_c, 0, 80, 64
2, 148034, Note_on_c, 0, 72, 92
2, 148036, Note_off_c, 0, 74, 64
2, 148130, Note_on_c, 0, 71, 92
2, 148132, Note_off_c, 0, 72, 64
2, 148226, Note_on_c, 0, 72, 92
2, 148228, Note_off_c, 0, 71, 64
2, 148322, Note_on_c, 0, 74, 92
2, 148324, Note_off_c, 0, 72, 64
2, 148418, Note_on_c, 0, 75, 92
2, 148420, Note_off_c, 0, 74, 64
2, 148706, Note_on_c, 0, 77, 92
2, 148708, Note_off_c, 0, 75, 64
2, 148802, Note_on_c, 0, 79, 92
2, 148804, Note_off_c, 0, 77, 64
2, 148898, Note_on_c, 0, 80, 92
2, 148900, Note_off_c, 0, 79, 64
2, 148994, Note_on_c, 0, 70, 92
2, 148996, Note_off_c, 0, 80, 64
2, 149090, Note_on_c, 0, 72, 92
2, 149092, Note_off_c, 0, 70, 64
2, 149186, Note_on_c, 0, 70, 92
2, 149188, Note_off_c, 0, 72, 64
2, 149282, Note_on_c, 0, 69, 92
2, 149284, Note_off_c, 0, 70, 64
2, 149378, Note_on_c, 0, 70, 92
2, 149380, Note_off_c, 0, 69, 64
2, 149474, Note_on_c, 0, 72, 92
2, 149476, Note_off_c, 0, 70, 64
2, 149570, Note_on_c, 0, 74, 92
2, 149572, Note_off_c, 0, 72, 64
2, 149858, Note_on_c, 0, 75, 92
2, 149860, Note_off_c, 0, 74, 64
2, 149954, Note_on_c, 0, 77, 92
2, 149956, Note_off_c, 0, 75, 64
2, 150050, Note_on_c, 0, 79, 92
2, 150052, Note_off_c, 0, 77, 64
2, 150146, Note_on_c, 0, 68, 92
2, 150148, Note_off_c, 0, 79, 64
2, 150242, Note_on_c, 0, 70, 92
2, 150244, Note_off_c, 0, 68, 64
2, 150338, Note_on_c, 0, 68, 92
2, 150340, Note_off_c, 0, 70, 64
2, 150434, Note_on_c, 0, 67, 92
2, 150436, Note_off_c, 0, 68, 64
2, 150530, Note_on_c, 0, 68, 92
2, 150532, Note_off_c, 0, 67, 64
2, 150626, Note_on_c, 0, 70, 92
2, 150628, Note_off_c, 0, 68, 64
2, 150722, Note_on_c, 0, 72, 92
2, 150724, Note_off_c, 0, 70, 64
2, 151010, Note_on_c, 0, 74, 92
2, 151012, Note_off_c, 0, 72, 64
2, 151106, Note_on_c, 0, 75, 92
2, 151108, Note_off_c, 0, 74, 64
2, 151202, Note_on_c, 0, 77, 92
2, 151204, Note_off_c, 0, 75, 64
2, 151298, Note_on_c, 0, 67, 92
2, 151300, Note_off_c, 0, 77, 64
2, 152546, Note_on_c, 0, 72, 92
2, 152548, Note_off_c, 0, 67, 64
2, 152642, Note_on_c, 0, 70, 92
2, 152644, Note_off_c, 0, 72, 64
2, 152738, Note_on_c, 0, 68, 92
2, 152740, Note_off_c, 0, 70, 64
2, 152834, Note_on_c, 0, 67, 92
2, 152836, Note_off_c, 0, 68, 64
2, 152930, Note_on_c, 0, 65, 92
2, 152932, Note_off_c, 0, 67, 64
2, 153026, Note_on_c, 0, 63, 92
2, 153028, Note_off_c, 0, 65, 64
2, 153122, Note_on_c, 0, 62, 92
2, 153124, Note_off_c, 0, 63, 64
2, 153218, Note_on_c, 0, 60, 92
2, 153220, Note_off_c, 0, 62, 64
2, 153314, Note_on_c, 0, 63, 92
2, 153316, Note_off_c, 0, 60, 64
2, 153410, Note_on_c, 0, 67, 92
2, 153412, Note_off_c, 0, 63, 64
2, 153506, Note_on_c, 0, 70, 92
2, 153508, Note_off_c, 0, 67, 64
2, 153602, Note_on_c, 0, 69, 92
2, 153604, Note_off_c, 0, 70, 64
2, 153698, Note_on_c, 0, 70, 92
2, 153700, Note_off_c, 0, 69, 64
2, 153794, Note_on_c, 0, 69, 92
2, 153796, Note_off_c, 0, 70, 64
2, 153890, Note_on_c, 0, 67, 92
2, 153892, Note_off_c, 0, 69, 64
2, 153986, Note_on_c, 0, 65, 92
2, 153988, Note_off_c, 0, 67, 64
2, 154082, Note_on_c, 0, 63, 92
2, 154084, Note_off_c, 0, 65, 64
2, 154178, Note_on_c, 0, 62, 92
2, 154180, Note_off_c, 0, 63, 64
2, 154274, Note_on_c, 0, 60, 92
2, 154276, Note_off_c, 0, 62, 64
2, 154370, Note_on_c, 0, 58, 92
2, 154372, Note_off_c, 0, 60, 64
2, 154466, Note_on_c, 0, 62, 92
2, 154468, Note_off_c, 0, 58, 64
2, 154562, Note_on_c, 0, 65, 92
2, 154564, Note_off_c, 0, 62, 64
2, 154658, Note_on_c, 0, 68, 92
2, 154660, Note_off_c, 0, 65, 64
2, 154754, Note_on_c, 0, 67, 92
2, 154756, Note_off_c, 0, 68, 64
2, 154850, Note_on_c, 0, 69, 92
2, 154852, Note_off_c, 0, 67, 64
2, 154946, Note_on_c, 0, 67, 92
2, 154948, Note_off_c, 0, 69, 64
2, 155042, Note_on_c, 0, 66, 92
2, 155044, Note_off_c, 0, 67, 64
2, 155138, Note_on_c, 0, 67, 92
2, 155140, Note_off_c, 0, 66, 64
2, 155234, Note_on_c, 0, 64, 92
2, 155236, Note_off_c, 0, 67, 64
2, 155330, Note_on_c, 0, 66, 92
2, 155332, Note_off_c, 0, 64, 64
2, 155426, Note_on_c, 0, 67, 92
2, 155428, Note_off_c, 0, 66, 64
2, 155522, Note_on_c, 0, 69, 92
2, 155524, Note_off_c, 0, 67, 64
2, 155618, Note_on_c, 0, 70, 92
2, 155620, Note_off_c, 0, 69, 64
2, 155714, Note_on_c, 0, 72, 92
2, 155716, Note_off_c, 0, 70, 64
2, 155810, Note_on_c, 0, 69, 92
2, 155812, Note_off_c, 0, 72, 64
2, 155906, Note_on_c, 0, 66, 92
2, 155908, Note_off_c, 0, 69, 64
2, 156002, Note_on_c, 0, 62, 92
2, 156004, Note_off_c, 0, 66, 64
2, 156098, Note_on_c, 0, 64, 92
2, 156100, Note_off_c, 0, 62, 64
2, 156194, Note_on_c, 0, 66, 92
2, 156196, Note_off_c, 0, 64, 64
2, 156290, Note_on_c, 0, 67, 92
2, 156292, Note_off_c, 0, 66, 64
2, 156386, Note_on_c, 0, 69, 92
2, 156388, Note_off_c, 0, 67, 64
2, 156482, Note_on_c, 0, 70, 92
2, 156484, Note_off_c, 0, 69, 64
2, 156578, Note_on_c, 0, 72, 92
2, 156580, Note_off_c, 0, 70, 64
2, 156674, Note_on_c, 0, 74, 92
2, 156676, Note_off_c, 0, 72, 64
2, 156770, Note_on_c, 0, 75, 92
2, 156772, Note_off_c, 0, 74, 64
2, 156866, Note_on_c, 0, 77, 92
2, 156868, Note_off_c, 0, 75, 64
2, 156962, Note_on_c, 0, 74, 92
2, 156964, Note_off_c, 0, 77, 64
2, 157058, Note_on_c, 0, 75, 92
2, 157060, Note_off_c, 0, 74, 64
2, 157154, Note_on_c, 0, 74, 92
2, 157156, Note_off_c, 0, 75, 64
2, 157250, Note_on_c, 0, 72, 92
2, 157252, Note_off_c, 0, 74, 64
2, 157346, Note_on_c, 0, 74, 92
2, 157348, Note_off_c, 0, 72, 64
2, 157442, Note_on_c, 0, 75, 92
2, 157444, Note_off_c, 0, 74, 64
2, 157634, Note_on_c, 0, 72, 92
2, 157636, Note_off_c, 0, 75, 64
2, 157826, Note_on_c, 0, 69, 92
2, 157828, Note_off_c, 0, 72, 64
2, 158018, Note_on_c, 0, 84, 92
2, 158020, Note_off_c, 0, 69, 64
2, 158210, Note_on_c, 0, 79, 92
2, 158212, Note_off_c, 0, 84, 64
2, 158306, Note_on_c, 0, 78, 92
2, 158308, Note_off_c, 0, 79, 64
2, 158402, Note_on_c, 0, 76, 92
2, 158404, Note_off_c, 0, 78, 64
2, 158498, Note_on_c, 0, 74, 92
2, 158500, Note_off_c, 0, 76, 64
2, 158594, Note_on_c, 0, 76, 92
2, 158596, Note_off_c, 0, 74, 64
2, 158690, Note_on_c, 0, 79, 92
2, 158692, Note_off_c, 0, 76, 64
2, 158786, Note_on_c, 0, 78, 92
2, 158788, Note_off_c, 0, 79, 64
2, 158882, Note_on_c, 0, 81, 92
2, 158884, Note_off_c, 0, 78, 64
2, 158978, Note_on_c, 0, 79, 92
2, 158980, Note_off_c, 0, 81, 64
2, 159458, Note_on_c, 0, 78, 92
2, 159460, Note_off_c, 0, 79, 64
2, 159554, Note_on_c, 0, 81, 92
2, 159556, Note_off_c, 0, 78, 64
2, 159650, Note_on_c, 0, 79, 92
2, 159652, Note_off_c, 0, 81, 64
2, 159746, Note_on_c, 0, 78, 92
2, 159748, Note_off_c, 0, 79, 64
2, 159842, Note_on_c, 0, 76, 92
2, 159844, Note_off_c, 0, 78, 64
2, 159938, Note_on_c, 0, 74, 92
2, 159940, Note_off_c, 0, 76, 64
2, 160034, Note_on_c, 0, 72, 92
2, 160036, Note_off_c, 0, 74, 64
2, 160130, Note_on_c, 0, 81, 92
2, 160132, Note_off_c, 0, 72, 64
2, 160322, Note_on_c, 0, 72, 92
2, 160324, Note_off_c, 0, 81, 64
2, 160514, Note_on_c, 0, 70, 92
2, 160516, Note_off_c, 0, 72, 64
2, 160994, Note_on_c, 0, 72, 92
2, 160996, Note_off_c, 0, 70, 64
2, 161090, Note_on_c, 0, 70, 92
2, 161092, Note_off_c, 0, 72, 64
2, 161186, Note_on_c, 0, 68, 92
2, 161188, Note_off_c, 0, 70, 64
2, 161282, Note_on_c, 0, 70, 92
2, 161284, Note_off_c, 0, 68, 64
2, 161378, Note_on_c, 0, 73, 92
2, 161380, Note_off_c, 0, 70, 64
2, 161474, Note_on_c, 0, 72, 92
2, 161476, Note_off_c, 0, 73, 64
2, 161570, Note_on_c, 0, 70, 92
2, 161572, Note_off_c, 0, 72, 64
2, 161666, Note_on_c, 0, 72, 92
2, 161668, Note_off_c, 0, 70, 64
2, 162146, Note_on_c, 0, 74, 92
2, 162148, Note_off_c, 0, 72, 64
2, 162242, Note_on_c, 0, 72, 92
2, 162244, Note_off_c, 0, 74, 64
2, 162338, Note_on_c, 0, 71, 92
2, 162340, Note_off_c, 0, 72, 64
2, 162434, Note_on_c, 0, 72, 92
2, 162436, Note_off_c, 0, 71, 64
2, 162530, Note_on_c, 0, 75, 92
2, 162532, Note_off_c, 0, 72, 64
2, 162626, Note_on_c, 0, 74, 92
2, 162628, Note_off_c, 0, 75, 64
2, 162722, Note_on_c, 0, 72, 92
2, 162724, Note_off_c, 0, 74, 64
2, 162818, Note_on_c, 0, 74, 92
2, 162820, Note_off_c, 0, 72, 64
2, 163298, Note_on_c, 0, 75, 92
2, 163300, Note_off_c, 0, 74, 64
2, 163394, Note_on_c, 0, 74, 92
2, 163396, Note_off_c, 0, 75, 64
2, 163490, Note_on_c, 0, 72, 92
2, 163492, Note_off_c, 0, 74, 64
2, 163586, Note_on_c, 0, 74, 92
2, 163588, Note_off_c, 0, 72, 64
2, 163682, Note_on_c, 0, 77, 92
2, 163684, Note_off_c, 0, 74, 64
2, 163778, Note_on_c, 0, 75, 92
2, 163780, Note_off_c, 0, 77, 64
2, 163874, Note_on_c, 0, 74, 92
2, 163876, Note_off_c, 0, 75, 64
2, 163970, Note_on_c, 0, 75, 92
2, 163972, Note_off_c, 0, 74, 64
2, 164066, Note_on_c, 0, 77, 92
2, 164068, Note_off_c, 0, 75, 64
2, 164162, Note_on_c, 0, 75, 92
2, 164164, Note_off_c, 0, 77, 64
2, 164258, Note_on_c, 0, 74, 92
2, 164260, Note_off_c, 0, 75, 64
2, 164354, Note_on_c, 0, 75, 92
2, 164356, Note_off_c, 0, 74, 64
2, 164450, Note_on_c, 0, 77, 92
2, 164452, Note_off_c, 0, 75, 64
2, 164546, Note_on_c, 0, 79, 92
2, 164548, Note_off_c, 0, 77, 64
2, 164642, Note_on_c, 0, 82, 92
2, 164644, Note_off_c, 0, 79, 64
2, 164738, Note_on_c, 0, 80, 92
2, 164740, Note_off_c, 0, 82, 64
2, 165506, Note_on_c, 0, 79, 92
2, 165508, Note_off_c, 0, 80, 64
2, 166658, Note_on_c, 0, 77, 92
2, 166660, Note_off_c, 0, 79, 64
2, 167810, Note_on_c, 0, 75, 92
2, 167812, Note_off_c, 0, 77, 64
2, 168674, Note_on_c, 0, 72, 92
2, 168676, Note_off_c, 0, 75, 64
2, 168770, Note_on_c, 0, 74, 92
2, 168772, Note_off_c, 0, 72, 64
2, 168866, Note_on_c, 0, 75, 92
2, 168868, Note_off_c, 0, 74, 64
2, 168962, Note_on_c, 0, 77, 92
2, 168964, Note_off_c, 0, 75, 64
2, 169058, Note_on_c, 0, 79, 92
2, 169060, Note_off_c, 0, 77, 64
2, 169154, Note_on_c, 0, 80, 92
2, 169156, Note_off_c, 0, 79, 64
2, 169250, Note_on_c, 0, 84, 92
2, 169252, Note_off_c, 0, 80, 64
2, 169346, Note_on_c, 0, 82, 92
2, 169348, Note_off_c, 0, 84, 64
2, 169442, Note_on_c, 0, 80, 92
2, 169444, Note_off_c, 0, 82, 64
2, 169538, Note_on_c, 0, 79, 92
2, 169540, Note_off_c, 0, 80, 64
2, 169634, Note_on_c, 0, 77, 92
2, 169636, Note_off_c, 0, 79, 64
2, 169730, Note_on_c, 0, 75, 92
2, 169732, Note_off_c, 0, 77, 64
2, 169826, Note_on_c, 0, 74, 92
2, 169828, Note_off_c, 0, 75, 64
2, 169922, Note_on_c, 0, 72, 92
2, 169924, Note_off_c, 0, 74, 64
2, 170018, Note_on_c, 0, 71, 92
2, 170020, Note_off_c, 0, 72, 64
2, 170114, Note_on_c, 0, 77, 92
2, 170116, Note_off_c, 0, 71, 64
2, 170306, Note_on_c, 0, 74, 92
2, 170308, Note_off_c, 0, 77, 64
2, 170498, Note_on_c, 0, 79, 92
2, 170500, Note_off_c, 0, 74, 64
2, 170594, Note_on_c, 0, 67, 92
2, 170596, Note_off_c, 0, 79, 64
2, 170690, Note_on_c, 0, 68, 92
2, 170692, Note_off_c, 0, 67, 64
2, 170786, Note_on_c, 0, 70, 92
2, 170788, Note_off_c, 0, 68, 64
2, 170882, Note_on_c, 0, 68, 92
2, 170884, Note_off_c, 0, 70, 64
2, 171074, Note_on_c, 0, 65, 92
2, 171076, Note_off_c, 0, 68, 64
2, 171266, Note_on_c, 0, 62, 92
2, 171268, Note_off_c, 0, 65, 64
2, 171458, Note_on_c, 0, 72, 92
2, 171460, Note_off_c, 0, 62, 64
2, 171746, Note_on_c, 0, 71, 92
2, 171748, Note_off_c, 0, 72, 64
2, 171842, Note_on_c, 0, 69, 92
2, 171844, Note_off_c, 0, 71, 64
2, 171938, Note_on_c, 0, 71, 92
2, 171940, Note_off_c, 0, 69, 64
2, 172034, Note_on_c, 0, 72, 92
2, 172036, Note_off_c, 0, 71, 64
2, 172130, Note_on_c, 0, 75, 92
2, 172132, Note_off_c, 0, 72, 64
2, 172226, Note_on_c, 0, 74, 92
2, 172228, Note_off_c, 0, 75, 64
2, 172322, Note_on_c, 0, 77, 92
2, 172324, Note_off_c, 0, 74, 64
2, 172418, Note_on_c, 0, 75, 92
2, 172420, Note_off_c, 0, 77, 64
2, 173282, Note_on_c, 0, 72, 92
2, 173284, Note_off_c, 0, 75, 64
2, 173378, Note_on_c, 0, 74, 92
2, 173380, Note_off_c, 0, 72, 64
2, 173474, Note_on_c, 0, 71, 92
2, 173476, Note_off_c, 0, 74, 64
2, 173570, Note_on_c, 0, 72, 92
2, 173572, Note_off_c, 0, 71, 64
2, 174434, Note_on_c, 0, 74, 92
2, 174436, Note_off_c, 0, 72, 64
2, 174530, Note_on_c, 0, 75, 92
2, 174532, Note_off_c, 0, 74, 64
2, 174626, Note_on_c, 0, 78, 92
2, 174628, Note_off_c, 0, 75, 64
2, 174722, Note_on_c, 0, 81, 92
2, 174724, Note_off_c, 0, 78, 64
2, 174818, Note_on_c, 0, 79, 92
2, 174820, Note_off_c, 0, 81, 64
2, 174914, Note_on_c, 0, 78, 92
2, 174916, Note_off_c, 0, 79, 64
2, 175010, Note_on_c, 0, 75, 92
2, 175012, Note_off_c, 0, 78, 64
2, 175106, Note_on_c, 0, 74, 92
2, 175108, Note_off_c, 0, 75, 64
2, 175202, Note_on_c, 0, 72, 92
2, 175204, Note_off_c, 0, 74, 64
2, 175298, Note_on_c, 0, 71, 92
2, 175300, Note_off_c, 0, 72, 64
2, 175394, Note_on_c, 0, 72, 92
2, 175396, Note_off_c, 0, 71, 64
2, 175490, Note_on_c, 0, 71, 92
2, 175492, Note_off_c, 0, 72, 64
2, 176644, Note_off_c, 0, 71, 64
2, 177794, Note_on_c, 0, 67, 92
2, 179330, Note_on_c, 0, 72, 92
2, 179332, Note_off_c, 0, 67, 64
2, 180866, Note_on_c, 0, 70, 92
2, 180868, Note_off_c, 0, 72, 64
2, 181250, Note_on_c, 0, 72, 92
2, 181252, Note_off_c, 0, 70, 64
2, 181442, Note_on_c, 0, 74, 92
2, 181444, Note_off_c, 0, 72, 64
2, 181634, Note_on_c, 0, 75, 92
2, 181636, Note_off_c, 0, 74, 64
2, 182018, Note_on_c, 0, 63, 92
2, 182020, Note_off_c, 0, 75, 64
2, 182402, Note_on_c, 0, 68, 92
2, 182404, Note_off_c, 0, 63, 64
2, 182786, Note_on_c, 0, 67, 92
2, 182788, Note_off_c, 0, 68, 64
2, 183170, Note_on_c, 0, 65, 92
2, 183172, Note_off_c, 0, 67, 64
2, 183554, Note_on_c, 0, 74, 92
2, 183556, Note_off_c, 0, 65, 64
2, 183938, Note_on_c, 0, 67, 92
2, 183940, Note_off_c, 0, 74, 64
2, 184322, Note_on_c, 0, 69, 92
2, 184324, Note_off_c, 0, 67, 64
2, 184514, Note_on_c, 0, 71, 92
2, 184516, Note_off_c, 0, 69, 64
2, 184706, Note_on_c, 0, 72, 92
2, 184708, Note_off_c, 0, 71, 64
2, 185090, Note_on_c, 0, 60, 92
2, 185092, Note_off_c, 0, 72, 64
2, 185474, Note_on_c, 0, 65, 92
2, 185476, Note_off_c, 0, 60, 64
2, 185666, Note_on_c, 0, 67, 92
2, 185668, Note_off_c, 0, 65, 64
2, 185858, Note_on_c, 0, 65, 92
2, 185860, Note_off_c, 0, 67, 64
2, 186050, Note_on_c, 0, 63, 92
2, 186052, Note_off_c, 0, 65, 64
2, 186242, Note_on_c, 0, 62, 92
2, 186244, Note_off_c, 0, 63, 64
2, 186434, Note_on_c, 0, 63, 92
2, 186436, Note_off_c, 0, 62, 64
2, 186626, Note_on_c, 0, 65, 92
2, 186628, Note_off_c, 0, 63, 64
2, 186818, Note_on_c, 0, 62, 92
2, 186820, Note_off_c, 0, 65, 64
2, 187010, Note_on_c, 0, 63, 92
2, 187012, Note_off_c, 0, 62, 64
2, 187202, Note_on_c, 0, 65, 92
2, 187204, Note_off_c, 0, 63, 64
2, 187394, Note_on_c, 0, 63, 92
2, 187396, Note_off_c, 0, 65, 64
2, 187586, Note_on_c, 0, 62, 92
2, 187588, Note_off_c, 0, 63, 64
2, 187778, Note_on_c, 0, 60, 92
2, 187780, Note_off_c, 0, 62, 64
2, 187970, Note_on_c, 0, 62, 92
2, 187972, Note_off_c, 0, 60, 64
2, 188162, Note_on_c, 0, 63, 92
2, 188164, Note_off_c, 0, 62, 64
2, 188354, Note_on_c, 0, 60, 92
2, 188356, Note_off_c, 0, 63, 64
2, 188546, Note_on_c, 0, 62, 92
2, 188548, Note_off_c, 0, 60, 64
2, 188930, Note_on_c, 0, 72, 92
2, 188932, Note_off_c, 0, 62, 64
2, 189314, Note_on_c, 0, 71, 92
2, 189316, Note_off_c, 0, 72, 64
2, 189698, Note_on_c, 0, 74, 92
2, 189700, Note_off_c, 0, 71, 64
2, 190082, Note_on_c, 0, 67, 92
2, 190084, Note_off_c, 0, 74, 64
2, 190466, Note_on_c, 0, 77, 92
2, 190468, Note_off_c, 0, 67, 64
2, 191042, Note_on_c, 0, 75, 92
2, 191044, Note_off_c, 0, 77, 64
2, 191234, Note_on_c, 0, 74, 92
2, 191236, Note_off_c, 0, 75, 64
2, 191426, Note_on_c, 0, 72, 92
2, 191428, Note_off_c, 0, 74, 64
2, 191618, Note_on_c, 0, 74, 92
2, 191620, Note_off_c, 0, 72, 64
2, 192002, Note_on_c, 0, 67, 92
2, 192004, Note_off_c, 0, 74, 64
2, 192386, Note_on_c, 0, 72, 92
2, 192388, Note_off_c, 0, 67, 64
2, 193922, Note_on_c, 0, 70, 92
2, 193924, Note_off_c, 0, 72, 64
2, 195458, Note_on_c, 0, 69, 92
2, 195460, Note_off_c, 0, 70, 64
2, 196994, Note_on_c, 0, 67, 92
2, 196996, Note_off_c, 0, 69, 64
2, 198530, Note_on_c, 0, 66, 92
2, 198532, Note_off_c, 0, 67, 64
2, 199298, Note_on_c, 0, 67, 92
2, 199300, Note_off_c, 0, 66, 64
2, 199682, Note_on_c, 0, 62, 92
2, 199684, Note_off_c, 0, 67, 64
2, 200066, Note_on_c, 0, 70, 92
2, 200068, Note_off_c, 0, 62, 64
2, 200450, Note_on_c, 0, 67, 92
2, 200452, Note_off_c, 0, 70, 64
2, 200834, Note_on_c, 0, 72, 92
2, 200836, Note_off_c, 0, 67, 64
2, 201026, Note_on_c, 0, 74, 92
2, 201028, Note_off_c, 0, 72, 64
2, 201218, Note_on_c, 0, 72, 92
2, 201220, Note_off_c, 0, 74, 64
2, 201410, Note_on_c, 0, 70, 92
2, 201412, Note_off_c, 0, 72, 64
2, 201602, Note_on_c, 0, 69, 92
2, 201604, Note_off_c, 0, 70, 64
2, 201794, Note_on_c, 0, 70, 92
2, 201796, Note_off_c, 0, 69, 64
2, 201986, Note_on_c, 0, 72, 92
2, 201988, Note_off_c, 0, 70, 64
2, 202178, Note_on_c, 0, 69, 92
2, 202180, Note_off_c, 0, 72, 64
2, 202370, Note_on_c, 0, 70, 92
2, 202372, Note_off_c, 0, 69, 64
2, 202562, Note_on_c, 0, 72, 92
2, 202564, Note_off_c, 0, 70, 64
2, 202754, Note_on_c, 0, 70, 92
2, 202756, Note_off_c, 0, 72, 64
2, 202946, Note_on_c, 0, 69, 92
2, 202948, Note_off_c, 0, 70, 64
2, 203138, Note_on_c, 0, 67, 92
2, 203140, Note_off_c, 0, 69, 64
2, 203522, Note_on_c, 0, 79, 92
2, 203524, Note_off_c, 0, 67, 64
2, 203906, Note_on_c, 0, 72, 92
2, 203908, Note_off_c, 0, 79, 64
2, 204290, Note_on_c, 0, 74, 92
2, 204292, Note_off_c, 0, 72, 64
2, 204482, Note_on_c, 0, 75, 92
2, 204484, Note_off_c, 0, 74, 64
2, 204674, Note_on_c, 0, 74, 92
2, 204676, Note_off_c, 0, 75, 64
2, 205058, Note_on_c, 0, 72, 92
2, 205060, Note_off_c, 0, 74, 64
2, 205442, Note_on_c, 0, 71, 92
2, 205444, Note_off_c, 0, 72, 64
2, 205634, Note_on_c, 0, 72, 92
2, 205636, Note_off_c, 0, 71, 64
2, 205826, Note_on_c, 0, 74, 92
2, 205828, Note_off_c, 0, 72, 64
2, 206018, Note_on_c, 0, 71, 92
2, 206020, Note_off_c, 0, 74, 64
2, 206210, Note_on_c, 0, 72, 92
2, 206212, Note_off_c, 0, 71, 64
2, 206594, Note_on_c, 0, 75, 92
2, 206596, Note_off_c, 0, 72, 64
2, 206978, Note_on_c, 0, 68, 92
2, 206980, Note_off_c, 0, 75, 64
2, 207362, Note_on_c, 0, 70, 92
2, 207364, Note_off_c, 0, 68, 64
2, 207554, Note_on_c, 0, 72, 92
2, 207556, Note_off_c, 0, 70, 64
2, 207746, Note_on_c, 0, 70, 92
2, 207748, Note_off_c, 0, 72, 64
2, 208130, Note_on_c, 0, 68, 92
2, 208132, Note_off_c, 0, 70, 64
2, 208514, Note_on_c, 0, 67, 92
2, 208516, Note_off_c, 0, 68, 64
2, 208898, Note_on_c, 0, 69, 92
2, 208900, Note_off_c, 0, 67, 64
2, 209090, Note_on_c, 0, 71, 92
2, 209092, Note_off_c, 0, 69, 64
2, 209282, Note_on_c, 0, 72, 92
2, 209284, Note_off_c, 0, 71, 64
2, 210434, Note_on_c, 0, 71, 92
2, 210436, Note_off_c, 0, 72, 64
2, 210626, Note_on_c, 0, 72, 92
2, 210628, Note_off_c, 0, 71, 64
2, 210818, Note_on_c, 0, 74, 92
2, 210820, Note_off_c, 0, 72, 64
2, 211202, Note_on_c, 0, 65, 92
2, 211204, Note_off_c, 0, 74, 64
2, 211586, Note_on_c, 0, 63, 92
2, 211588, Note_off_c, 0, 65, 64
2, 211778, Note_on_c, 0, 65, 92
2, 211780, Note_off_c, 0, 63, 64
2, 211970, Note_on_c, 0, 63, 92
2, 211972, Note_off_c, 0, 65, 64
2, 212162, Note_on_c, 0, 62, 92
2, 212164, Note_off_c, 0, 63, 64
2, 212354, Note_on_c, 0, 60, 92
2, 212356, Note_off_c, 0, 62, 64
2, 212546, Note_on_c, 0, 62, 92
2, 212548, Note_off_c, 0, 60, 64
2, 212738, Note_on_c, 0, 63, 92
2, 212740, Note_off_c, 0, 62, 64
2, 212930, Note_on_c, 0, 60, 92
2, 212932, Note_off_c, 0, 63, 64
2, 213122, Note_on_c, 0, 62, 92
2, 213124, Note_off_c, 0, 60, 64
2, 213314, Note_on_c, 0, 63, 92
2, 213316, Note_off_c, 0, 62, 64
2, 213506, Note_on_c, 0, 62, 92
2, 213508, Note_off_c, 0, 63, 64
2, 213698, Note_on_c, 0, 60, 92
2, 213700, Note_off_c, 0, 62, 64
2, 213890, Note_on_c, 0, 58, 92
2, 213892, Note_off_c, 0, 60, 64
2, 214082, Note_on_c, 0, 60, 92
2, 214084, Note_off_c, 0, 58, 64
2, 214274, Note_on_c, 0, 61, 92
2, 214276, Note_off_c, 0, 60, 64
2, 214466, Note_on_c, 0, 58, 92
2, 214468, Note_off_c, 0, 61, 64
2, 214658, Note_on_c, 0, 60, 92
2, 214660, Note_off_c, 0, 58, 64
2, 215428, Note_off_c, 0, 60, 64
2, 215810, Note_on_c, 0, 80, 92
2, 216194, Note_on_c, 0, 71, 92
2, 216196, Note_off_c, 0, 80, 64
2, 216578, Note_on_c, 0, 72, 92
2, 216580, Note_off_c, 0, 71, 64
2, 216770, Note_on_c, 0, 74, 92
2, 216772, Note_off_c, 0, 72, 64
2, 216962, Note_on_c, 0, 75, 92
2, 216964, Note_off_c, 0, 74, 64
2, 218114, Note_on_c, 0, 74, 92
2, 218116, Note_off_c, 0, 75, 64
2, 218306, Note_on_c, 0, 72, 92
2, 218308, Note_off_c, 0, 74, 64
2, 218498, Note_on_c, 0, 71, 92
2, 218500, Note_off_c, 0, 72, 64
2, 218690, Note_on_c, 0, 72, 92
2, 218692, Note_off_c, 0, 71, 64
2, 218882, Note_on_c, 0, 74, 92
2, 218884, Note_off_c, 0, 72, 64
2, 219074, Note_on_c, 0, 71, 92
2, 219076, Note_off_c, 0, 74, 64
2, 219266, Note_on_c, 0, 72, 92
2, 219268, Note_off_c, 0, 71, 64
2, 219458, Note_on_c, 0, 74, 92
2, 219460, Note_off_c, 0, 72, 64
2, 219650, Note_on_c, 0, 75, 92
2, 219652, Note_off_c, 0, 74, 64
2, 219842, Note_on_c, 0, 77, 92
2, 219844, Note_off_c, 0, 75, 64
2, 220034, Note_on_c, 0, 79, 92
2, 220036, Note_off_c, 0, 77, 64
2, 220418, Note_on_c, 0, 67, 92
2, 220420, Note_off_c, 0, 79, 64
2, 220802, Note_on_c, 0, 69, 92
2, 220804, Note_off_c, 0, 67, 64
2, 221378, Note_on_c, 0, 71, 92
2, 221380, Note_off_c, 0, 69, 64
2, 221570, Note_on_c, 0, 71, 92
2, 221572, Note_off_c, 0, 71, 64
2, 221618, Note_on_c, 0, 72, 92
2, 221620, Note_off_c, 0, 71, 64
2, 221666, Note_on_c, 0, 71, 92
2, 221668, Note_off_c, 0, 72, 64
2, 222338, Note_on_c, 0, 72, 92
2, 222340, Note_off_c, 0, 71, 64
2, 223874, Note_on_c, 0, 79, 92
2, 223876, Note_off_c, 0, 72, 64
2, 225410, Note_on_c, 0, 75, 92
2, 225412, Note_off_c, 0, 79, 64
2, 225794, Note_on_c, 0, 77, 92
2, 225796, Note_off_c, 0, 75, 64
2, 225986, Note_on_c, 0, 79, 92
2, 225988, Note_off_c, 0, 77, 64
2, 226178, Note_on_c, 0, 80, 92
2, 226180, Note_off_c, 0, 79, 64
2, 226562, Note_on_c, 0, 68, 92
2, 226564, Note_off_c, 0, 80, 64
2, 226946, Note_on_c, 0, 73, 92
2, 226948, Note_off_c, 0, 68, 64
2, 227330, Note_on_c, 0, 72, 92
2, 227332, Note_off_c, 0, 73, 64
2, 227714, Note_on_c, 0, 70, 92
2, 227716, Note_off_c, 0, 72, 64
2, 228098, Note_on_c, 0, 79, 92
2, 228100, Note_off_c, 0, 70, 64
2, 228482, Note_on_c, 0, 72, 92
2, 228484, Note_off_c, 0, 79, 64
2, 228866, Note_on_c, 0, 74, 92
2, 228868, Note_off_c, 0, 72, 64
2, 229058, Note_on_c, 0, 76, 92
2, 229060, Note_off_c, 0, 74, 64
2, 229250, Note_on_c, 0, 77, 92
2, 229252, Note_off_c, 0, 76, 64
2, 229634, Note_on_c, 0, 65, 92
2, 229636, Note_off_c, 0, 77, 64
2, 230018, Note_on_c, 0, 70, 92
2, 230020, Note_off_c, 0, 65, 64
2, 230210, Note_on_c, 0, 72, 92
2, 230212, Note_off_c, 0, 70, 64
2, 230402, Note_on_c, 0, 70, 92
2, 230404, Note_off_c, 0, 72, 64
2, 230594, Note_on_c, 0, 68, 92
2, 230596, Note_off_c, 0, 70, 64
2, 230786, Note_on_c, 0, 67, 92
2, 230788, Note_off_c, 0, 68, 64
2, 230978, Note_on_c, 0, 68, 92
2, 230980, Note_off_c, 0, 67, 64
2, 231170, Note_on_c, 0, 70, 92
2, 231172, Note_off_c, 0, 68, 64
2, 231362, Note_on_c, 0, 67, 92
2, 231364, Note_off_c, 0, 70, 64
2, 231554, Note_on_c, 0, 68, 92
2, 231556, Note_off_c, 0, 67, 64
2, 231746, Note_on_c, 0, 70, 92
2, 231748, Note_off_c, 0, 68, 64
2, 231938, Note_on_c, 0, 68, 92
2, 231940, Note_off_c, 0, 70, 64
2, 232130, Note_on_c, 0, 67, 92
2, 232132, Note_off_c, 0, 68, 64
2, 232322, Note_on_c, 0, 65, 92
2, 232324, Note_off_c, 0, 67, 64
2, 232514, Note_on_c, 0, 67, 92
2, 232516, Note_off_c, 0, 65, 64
2, 232706, Note_on_c, 0, 68, 92
2, 232708, Note_off_c, 0, 67, 64
2, 232898, Note_on_c, 0, 65, 92
2, 232900, Note_off_c, 0, 68, 64
2, 233090, Note_on_c, 0, 67, 92
2, 233092, Note_off_c, 0, 65, 64
2, 233474, Note_on_c, 0, 60, 92
2, 233476, Note_off_c, 0, 67, 64
2, 233858, Note_on_c, 0, 72, 92
2, 233860, Note_off_c, 0, 60, 64
2, 235010, Note_on_c, 0, 71, 92
2, 235012, Note_off_c, 0, 72, 64
2, 235202, Note_on_c, 0, 72, 92
2, 235204, Note_off_c, 0, 71, 64
2, 235394, Note_on_c, 0, 74, 92
2, 235396, Note_off_c, 0, 72, 64
2, 235586, Note_on_c, 0, 75, 92
2, 235588, Note_off_c, 0, 74, 64
2, 235778, Note_on_c, 0, 77, 92
2, 235780, Note_off_c, 0, 75, 64
2, 235970, Note_on_c, 0, 74, 92
2, 235972, Note_off_c, 0, 77, 64
2, 236162, Note_on_c, 0, 75, 92
2, 236164, Note_off_c, 0, 74, 64
2, 236354, Note_on_c, 0, 77, 92
2, 236356, Note_off_c, 0, 75, 64
2, 236546, Note_on_c, 0, 75, 92
2, 236548, Note_off_c, 0, 77, 64
2, 236738, Note_on_c, 0, 74, 92
2, 236740, Note_off_c, 0, 75, 64
2, 236930, Note_on_c, 0, 72, 92
2, 236932, Note_off_c, 0, 74, 64
2, 237122, Note_on_c, 0, 74, 92
2, 237124, Note_off_c, 0, 72, 64
2, 237314, Note_on_c, 0, 75, 92
2, 237316, Note_off_c, 0, 74, 64
2, 237506, Note_on_c, 0, 72, 92
2, 237508, Note_off_c, 0, 75, 64
2, 237698, Note_on_c, 0, 80, 92
2, 237700, Note_off_c, 0, 72, 64
2, 237890, Note_on_c, 0, 82, 92
2, 237892, Note_off_c, 0, 80, 64
2, 238082, Note_on_c, 0, 80, 92
2, 238084, Note_off_c, 0, 82, 64
2, 238274, Note_on_c, 0, 79, 92
2, 238276, Note_off_c, 0, 80, 64
2, 238466, Note_on_c, 0, 77, 92
2, 238468, Note_off_c, 0, 79, 64
2, 238658, Note_on_c, 0, 79, 92
2, 238660, Note_off_c, 0, 77, 64
2, 238850, Note_on_c, 0, 80, 92
2, 238852, Note_off_c, 0, 79, 64
2, 239042, Note_on_c, 0, 77, 92
2, 239044, Note_off_c, 0, 80, 64
2, 239234, Note_on_c, 0, 79, 92
2, 239236, Note_off_c, 0, 77, 64
2, 239426, Note_on_c, 0, 80, 92
2, 239428, Note_off_c, 0, 79, 64
2, 239618, Note_on_c, 0, 79, 92
2, 239620, Note_off_c, 0, 80, 64
2, 239810, Note_on_c, 0, 77, 92
2, 239812, Note_off_c, 0, 79, 64
2, 240002, Note_on_c, 0, 75, 92
2, 240004, Note_off_c, 0, 77, 64
2, 240194, Note_on_c, 0, 74, 92
2, 240196, Note_off_c, 0, 75, 64
2, 240386, Note_on_c, 0, 72, 92
2, 240388, Note_off_c, 0, 74, 64
2, 240578, Note_on_c, 0, 71, 92
2, 240580, Note_off_c, 0, 72, 64
2, 240770, Note_on_c, 0, 72, 92
2, 240772, Note_off_c, 0, 71, 64
2, 240962, Note_on_c, 0, 71, 92
2, 240964, Note_off_c, 0, 72, 64
2, 241154, Note_on_c, 0, 72, 92
2, 241156, Note_off_c, 0, 71, 64
2, 241346, Note_on_c, 0, 75, 92
2, 241348, Note_off_c, 0, 72, 64
2, 241538, Note_on_c, 0, 74, 92
2, 241540, Note_off_c, 0, 75, 64
2, 241730, Note_on_c, 0, 72, 92
2, 241732, Note_off_c, 0, 74, 64
2, 241922, Note_on_c, 0, 71, 92
2, 241924, Note_off_c, 0, 72, 64
2, 242114, Note_on_c, 0, 72, 92
2, 242116, Note_off_c, 0, 71, 64
2, 242306, Note_on_c, 0, 71, 92
2, 242308, Note_off_c, 0, 72, 64
2, 242498, Note_on_c, 0, 67, 92
2, 242500, Note_off_c, 0, 71, 64
2, 242690, Note_on_c, 0, 69, 92
2, 242692, Note_off_c, 0, 67, 64
2, 242882, Note_on_c, 0, 71, 92
2, 242884, Note_off_c, 0, 69, 64
2, 243074, Note_on_c, 0, 72, 92
2, 243076, Note_off_c, 0, 71, 64
2, 243266, Note_on_c, 0, 71, 92
2, 243268, Note_off_c, 0, 72, 64
2, 243458, Note_on_c, 0, 72, 92
2, 243460, Note_off_c, 0, 71, 64
2, 243650, Note_on_c, 0, 74, 92
2, 243652, Note_off_c, 0, 72, 64
2, 243842, Note_on_c, 0, 75, 92
2, 243844, Note_off_c, 0, 74, 64
2, 244034, Note_on_c, 0, 77, 92
2, 244036, Note_off_c, 0, 75, 64
2, 244226, Note_on_c, 0, 75, 92
2, 244228, Note_off_c, 0, 77, 64
2, 244418, Note_on_c, 0, 74, 92
2, 244420, Note_off_c, 0, 75, 64
2, 244610, Note_on_c, 0, 72, 92
2, 244612, Note_off_c, 0, 74, 64
2, 244802, Note_on_c, 0, 71, 92
2, 244804, Note_off_c, 0, 72, 64
2, 244994, Note_on_c, 0, 72, 92
2, 244996, Note_off_c, 0, 71, 64
2, 245186, Note_on_c, 0, 74, 92
2, 245188, Note_off_c, 0, 72, 64
2, 245378, Note_on_c, 0, 75, 92
2, 245380, Note_off_c, 0, 74, 64
2, 245570, Note_on_c, 0, 74, 92
2, 245572, Note_off_c, 0, 75, 64
2, 245762, Note_on_c, 0, 75, 92
2, 245764, Note_off_c, 0, 74, 64
2, 245954, Note_on_c, 0, 77, 92
2, 245956, Note_off_c, 0, 75, 64
2, 246146, Note_on_c, 0, 79, 92
2, 246148, Note_off_c, 0, 77, 64
2, 246338, Note_on_c, 0, 77, 92
2, 246340, Note_off_c, 0, 79, 64
2, 246530, Note_on_c, 0, 75, 92
2, 246532, Note_off_c, 0, 77, 64
2, 246722, Note_on_c, 0, 77, 92
2, 246724, Note_off_c, 0, 75, 64
2, 246914, Note_on_c, 0, 79, 92
2, 246916, Note_off_c, 0, 77, 64
2, 247106, Note_on_c, 0, 80, 92
2, 247108, Note_off_c, 0, 79, 64
2, 247298, Note_on_c, 0, 79, 92
2, 247300, Note_off_c, 0, 80, 64
2, 247490, Note_on_c, 0, 77, 92
2, 247492, Note_off_c, 0, 79, 64
2, 247682, Note_on_c, 0, 75, 92
2, 247684, Note_off_c, 0, 77, 64
2, 249218, Note_on_c, 0, 74, 92
2, 249220, Note_off_c, 0, 75, 64
2, 250754, Note_on_c, 0, 72, 92
2, 250756, Note_off_c, 0, 74, 64
2, 252290, Note_on_c, 0, 71, 92
2, 252292, Note_off_c, 0, 72, 64
2, 253058, Note_on_c, 0, 72, 92
2, 253060, Note_off_c, 0, 71, 64
2, 260930, Note_on_c, 0, 71, 92
2, 260932, Note_off_c, 0, 72, 64
2, 261122, Note_on_c, 0, 69, 92
2, 261124, Note_off_c, 0, 71, 64
2, 261314, Note_on_c, 0, 71, 92
2, 261316, Note_off_c, 0, 69, 64
2, 261506, Note_on_c, 0, 72, 92
2, 261508, Note_off_c, 0, 71, 64
2, 261698, Note_on_c, 0, 75, 92
2, 261700, Note_off_c, 0, 72, 64
2, 261890, Note_on_c, 0, 74, 92
2, 261892, Note_off_c, 0, 75, 64
2, 262082, Note_on_c, 0, 72, 92
2, 262084, Note_off_c, 0, 74, 64
2, 262274, Note_on_c, 0, 71, 92
2, 262276, Note_off_c, 0, 72, 64
2, 262658, Note_on_c, 0, 67, 92
2, 262660, Note_off_c, 0, 71, 64
2, 263042, Note_on_c, 0, 72, 92
2, 263044, Note_off_c, 0, 67, 64
2, 264002, Note_on_c, 0, 71, 92
2, 264004, Note_off_c, 0, 72, 64
2, 264194, Note_on_c, 0, 72, 92
2, 264196, Note_off_c, 0, 71, 64
2, 264386, Note_on_c, 0, 69, 92
2, 264388, Note_off_c, 0, 72, 64
2, 264578, Note_on_c, 0, 71, 92
2, 264580, Note_off_c, 0, 69, 64
2, 264626, Note_on_c, 0, 72, 92
2, 264628, Note_off_c, 0, 71, 64
2, 264674, Note_on_c, 0, 71, 92
2, 264676, Note_off_c, 0, 72, 64
2, 265154, Note_on_c, 0, 72, 92
2, 265156, Note_off_c, 0, 71, 64
2, 265346, Note_on_c, 0, 72, 92
2, 265348, Note_off_c, 0, 72, 64
2, 266116, Note_off_c, 0, 72, 64
2, 266498, Note_on_c, 0, 75, 92
2, 266882, Note_on_c, 0, 74, 92
2, 266884, Note_off_c, 0, 75, 64
2, 266978, Note_on_c, 0, 71, 92
2, 266980, Note_off_c, 0, 74, 64
2, 267074, Note_on_c, 0, 66, 92
2, 267076, Note_off_c, 0, 71, 64
2, 267266, Note_on_c, 0, 67, 92
2, 267268, Note_off_c, 0, 66, 64
2, 268034, Note_on_c, 0, 75, 92
2, 268036, Note_off_c, 0, 67, 64
2, 268418, Note_on_c, 0, 74, 92
2, 268420, Note_off_c, 0, 75, 64
2, 268514, Note_on_c, 0, 71, 92
2, 268516, Note_off_c, 0, 74, 64
2, 268610, Note_on_c, 0, 66, 92
2, 268612, Note_off_c, 0, 71, 64
2, 268802, Note_on_c, 0, 67, 92
2, 268804, Note_off_c, 0, 66, 64
2, 269570, Note_on_c, 0, 80, 92
2, 269572, Note_off_c, 0, 67, 64
2, 269954, Note_on_c, 0, 79, 92
2, 269956, Note_off_c, 0, 80, 64
2, 270050, Note_on_c, 0, 75, 92
2, 270052, Note_off_c, 0, 79, 64
2, 270146, Note_on_c, 0, 71, 92
2, 270148, Note_off_c, 0, 75, 64
2, 270338, Note_on_c, 0, 72, 92
2, 270340, Note_off_c, 0, 71, 64
2, 270914, Note_on_c, 0, 77, 92
2, 270916, Note_off_c, 0, 72, 64
2, 271106, Note_on_c, 0, 75, 92
2, 271108, Note_off_c, 0, 77, 64
2, 271298, Note_on_c, 0, 74, 92
2, 271300, Note_off_c, 0, 75, 64
2, 271490, Note_on_c, 0, 75, 92
2, 271492, Note_off_c, 0, 74, 64
2, 271586, Note_on_c, 0, 72, 92
2, 271588, Note_off_c, 0, 75, 64
2, 271682, Note_on_c, 0, 67, 92
2, 271684, Note_off_c, 0, 72, 64
2, 271874, Note_on_c, 0, 68, 92
2, 271876, Note_off_c, 0, 67, 64
2, 272450, Note_on_c, 0, 73, 92
2, 272452, Note_off_c, 0, 68, 64
2, 272642, Note_on_c, 0, 72, 92
2, 272644, Note_off_c, 0, 73, 64
2, 272834, Note_on_c, 0, 70, 92
2, 272836, Note_off_c, 0, 72, 64
2, 273026, Note_on_c, 0, 72, 92
2, 273028, Note_off_c, 0, 70, 64
2, 273122, Note_on_c, 0, 68, 92
2, 273124, Note_off_c, 0, 72, 64
2, 273218, Note_on_c, 0, 64, 92
2, 273220, Note_off_c, 0, 68, 64
2, 273410, Note_on_c, 0, 65, 92
2, 273412, Note_off_c, 0, 64, 64
2, 273986, Note_on_c, 0, 70, 92
2, 273988, Note_off_c, 0, 65, 64
2, 274178, Note_on_c, 0, 68, 92
2, 274180, Note_off_c, 0, 70, 64
2, 274370, Note_on_c, 0, 67, 92
2, 274372, Note_off_c, 0, 68, 64
2, 274562, Note_on_c, 0, 68, 92
2, 274564, Note_off_c, 0, 67, 64
2, 274658, Note_on_c, 0, 67, 92
2, 274660, Note_off_c, 0, 68, 64
2, 274754, Note_on_c, 0, 65, 92
2, 274756, Note_off_c, 0, 67, 64
2, 274946, Note_on_c, 0, 70, 92
2, 274948, Note_off_c, 0, 65, 64
2, 275042, Note_on_c, 0, 68, 92
2, 275044, Note_off_c, 0, 70, 64
2, 275138, Note_on_c, 0, 67, 92
2, 275140, Note_off_c, 0, 68, 64
2, 275330, Note_on_c, 0, 72, 92
2, 275332, Note_off_c, 0, 67, 64
2, 275426, Note_on_c, 0, 70, 92
2, 275428, Note_off_c, 0, 72, 64
2, 275522, Note_on_c, 0, 68, 92
2, 275524, Note_off_c, 0, 70, 64
2, 275714, Note_on_c, 0, 74, 92
2, 275716, Note_off_c, 0, 68, 64
2, 276290, Note_on_c, 0, 75, 92
2, 276292, Note_off_c, 0, 74, 64
2, 276482, Note_on_c, 0, 70, 92
2, 276484, Note_off_c, 0, 75, 64
2, 276674, Note_on_c, 0, 79, 92
2, 276676, Note_off_c, 0, 70, 64
2, 276866, Note_on_c, 0, 72, 92
2, 276868, Note_off_c, 0, 79, 64
2, 277058, Note_on_c, 0, 79, 92
2, 277060, Note_off_c, 0, 72, 64
2, 277250, Note_on_c, 0, 77, 92
2, 277252, Note_off_c, 0, 79, 64
2, 277442, Note_on_c, 0, 75, 92
2, 277444, Note_off_c, 0, 77, 64
2, 277634, Note_on_c, 0, 74, 92
2, 277636, Note_off_c, 0, 75, 64
2, 277826, Note_on_c, 0, 75, 92
2, 277828, Note_off_c, 0, 74, 64
2, 278018, Note_on_c, 0, 74, 92
2, 278020, Note_off_c, 0, 75, 64
2, 278210, Note_on_c, 0, 72, 92
2, 278212, Note_off_c, 0, 74, 64
2, 278402, Note_on_c, 0, 74, 92
2, 278404, Note_off_c, 0, 72, 64
2, 278594, Note_on_c, 0, 70, 92
2, 278596, Note_off_c, 0, 74, 64
2, 278786, Note_on_c, 0, 67, 92
2, 278788, Note_off_c, 0, 70, 64
2, 278978, Note_on_c, 0, 75, 92
2, 278980, Note_off_c, 0, 67, 64
2, 279170, Note_on_c, 0, 66, 92
2, 279172, Note_off_c, 0, 75, 64
2, 279746, Note_on_c, 0, 69, 92
2, 279748, Note_off_c, 0, 66, 64
2, 279842, Note_on_c, 0, 72, 92
2, 279844, Note_off_c, 0, 69, 64
2, 279938, Note_on_c, 0, 74, 92
2, 279940, Note_off_c, 0, 72, 64
2, 280514, Note_on_c, 0, 70, 92
2, 280516, Note_off_c, 0, 74, 64
2, 280610, Note_on_c, 0, 67, 92
2, 280612, Note_off_c, 0, 70, 64
2, 280706, Note_on_c, 0, 66, 92
2, 280708, Note_off_c, 0, 67, 64
2, 281282, Note_on_c, 0, 69, 92
2, 281284, Note_off_c, 0, 66, 64
2, 281378, Note_on_c, 0, 72, 92
2, 281380, Note_off_c, 0, 69, 64
2, 281474, Note_on_c, 0, 74, 92
2, 281476, Note_off_c, 0, 72, 64
2, 281666, Note_on_c, 0, 67, 92
2, 281668, Note_off_c, 0, 74, 64
2, 281858, Note_on_c, 0, 72, 92
2, 281860, Note_off_c, 0, 67, 64
2, 282050, Note_on_c, 0, 66, 92
2, 282052, Note_off_c, 0, 72, 64
2, 282242, Note_on_c, 0, 67, 92
2, 282244, Note_off_c, 0, 66, 64
2, 282626, Note_on_c, 0, 74, 92
2, 282628, Note_off_c, 0, 67, 64
2, 282722, Note_on_c, 0, 72, 92
2, 282724, Note_off_c, 0, 74, 64
2, 282818, Note_on_c, 0, 72, 92
2, 282820, Note_off_c, 0, 72, 64
2, 283010, Note_on_c, 0, 76, 92
2, 283012, Note_off_c, 0, 72, 64
2, 283106, Note_on_c, 0, 74, 92
2, 283108, Note_off_c, 0, 76, 64
2, 283202, Note_on_c, 0, 76, 92
2, 283204, Note_off_c, 0, 74, 64
2, 283394, Note_on_c, 0, 78, 92
2, 283396, Note_off_c, 0, 76, 64
2, 283490, Note_on_c, 0, 76, 92
2, 283492, Note_off_c, 0, 78, 64
2, 283586, Note_on_c, 0, 78, 92
2, 283588, Note_off_c, 0, 76, 64
2, 283778, Note_on_c, 0, 79, 92
2, 283780, Note_off_c, 0, 78, 64
2, 284162, Note_on_c, 0, 70, 92
2, 284164, Note_off_c, 0, 79, 64
2, 284258, Note_on_c, 0, 68, 92
2, 284260, Note_off_c, 0, 70, 64
2, 284354, Note_on_c, 0, 70, 92
2, 284356, Note_off_c, 0, 68, 64
2, 284546, Note_on_c, 0, 72, 92
2, 284548, Note_off_c, 0, 70, 64
2, 284642, Note_on_c, 0, 70, 92
2, 284644, Note_off_c, 0, 72, 64
2, 284738, Note_on_c, 0, 72, 92
2, 284740, Note_off_c, 0, 70, 64
2, 284930, Note_on_c, 0, 74, 92
2, 284932, Note_off_c, 0, 72, 64
2, 285026, Note_on_c, 0, 72, 92
2, 285028, Note_off_c, 0, 74, 64
2, 285122, Note_on_c, 0, 74, 92
2, 285124, Note_off_c, 0, 72, 64
2, 285314, Note_on_c, 0, 75, 92
2, 285316, Note_off_c, 0, 74, 64
2, 285698, Note_on_c, 0, 67, 92
2, 285700, Note_off_c, 0, 75, 64
2, 285794, Note_on_c, 0, 65, 92
2, 285796, Note_off_c, 0, 67, 64
2, 285890, Note_on_c, 0, 67, 92
2, 285892, Note_off_c, 0, 65, 64
2, 286082, Note_on_c, 0, 69, 92
2, 286084, Note_off_c, 0, 67, 64
2, 286178, Note_on_c, 0, 67, 92
2, 286180, Note_off_c, 0, 69, 64
2, 286274, Note_on_c, 0, 69, 92
2, 286276, Note_off_c, 0, 67, 64
2, 286466, Note_on_c, 0, 71, 92
2, 286468, Note_off_c, 0, 69, 64
2, 286562, Note_on_c, 0, 69, 92
2, 286564, Note_off_c, 0, 71, 64
2, 286658, Note_on_c, 0, 71, 92
2, 286660, Note_off_c, 0, 69, 64
2, 286850, Note_on_c, 0, 72, 92
2, 286852, Note_off_c, 0, 71, 64
2, 288194, Note_on_c, 0, 74, 92
2, 288196, Note_off_c, 0, 72, 64
2, 288290, Note_on_c, 0, 75, 92
2, 288292, Note_off_c, 0, 74, 64
2, 288386, Note_on_c, 0, 77, 92
2, 288388, Note_off_c, 0, 75, 64
2, 288578, Note_on_c, 0, 74, 92
2, 288580, Note_off_c, 0, 77, 64
2, 288770, Note_on_c, 0, 70, 92
2, 288772, Note_off_c, 0, 74, 64
2, 289538, Note_on_c, 0, 79, 92
2, 289540, Note_off_c, 0, 70, 64
2, 290114, Note_on_c, 0, 76, 92
2, 290116, Note_off_c, 0, 79, 64
2, 290306, Note_on_c, 0, 77, 92
2, 290308, Note_off_c, 0, 76, 64
2, 290692, Note_off_c, 0, 77, 64
2, 291074, Note_on_c, 0, 77, 92
2, 291458, Note_on_c, 0, 77, 92
2, 291460, Note_off_c, 0, 77, 64
2, 291506, Note_on_c, 0, 79, 92
2, 291508, Note_off_c, 0, 77, 64
2, 291554, Note_on_c, 0, 77, 92
2, 291556, Note_off_c, 0, 79, 64
2, 294722, Note_on_c, 0, 70, 92
2, 294724, Note_off_c, 0, 77, 64
2, 294914, Note_on_c, 0, 79, 92
2, 294916, Note_off_c, 0, 70, 64
2, 295106, Note_on_c, 0, 70, 92
2, 295108, Note_off_c, 0, 79, 64
2, 295298, Note_on_c, 0, 77, 92
2, 295300, Note_off_c, 0, 70, 64
2, 295490, Note_on_c, 0, 70, 92
2, 295492, Note_off_c, 0, 77, 64
2, 295682, Note_on_c, 0, 75, 92
2, 295684, Note_off_c, 0, 70, 64
2, 295874, Note_on_c, 0, 69, 92
2, 295876, Note_off_c, 0, 75, 64
2, 296066, Note_on_c, 0, 74, 92
2, 296068, Note_off_c, 0, 69, 64
2, 296258, Note_on_c, 0, 75, 92
2, 296260, Note_off_c, 0, 74, 64
2, 296450, Note_on_c, 0, 74, 92
2, 296452, Note_off_c, 0, 75, 64
2, 296642, Note_on_c, 0, 72, 92
2, 296644, Note_off_c, 0, 74, 64
2, 296834, Note_on_c, 0, 70, 92
2, 296836, Note_off_c, 0, 72, 64
2, 297026, Note_on_c, 0, 68, 92
2, 297028, Note_off_c, 0, 70, 64
2, 297218, Note_on_c, 0, 67, 92
2, 297220, Note_off_c, 0, 68, 64
2, 297410, Note_on_c, 0, 65, 92
2, 297412, Note_off_c, 0, 67, 64
2, 297602, Note_on_c, 0, 67, 92
2, 297604, Note_off_c, 0, 65, 64
2, 297794, Note_on_c, 0, 75, 92
2, 297796, Note_off_c, 0, 67, 64
2, 297986, Note_on_c, 0, 68, 92
2, 297988, Note_off_c, 0, 75, 64
2, 298178, Note_on_c, 0, 77, 92
2, 298180, Note_off_c, 0, 68, 64
2, 298370, Note_on_c, 0, 67, 92
2, 298372, Note_off_c, 0, 77, 64
2, 298562, Note_on_c, 0, 75, 92
2, 298564, Note_off_c, 0, 67, 64
2, 298754, Note_on_c, 0, 65, 92
2, 298756, Note_off_c, 0, 75, 64
2, 298946, Note_on_c, 0, 74, 92
2, 298948, Note_off_c, 0, 65, 64
2, 299138, Note_on_c, 0, 67, 92
2, 299140, Note_off_c, 0, 74, 64
2, 299330, Note_on_c, 0, 75, 92
2, 299332, Note_off_c, 0, 67, 64
2, 299522, Note_on_c, 0, 68, 92
2, 299524, Note_off_c, 0, 75, 64
2, 299714, Note_on_c, 0, 77, 92
2, 299716, Note_off_c, 0, 68, 64
2, 299906, Note_on_c, 0, 67, 92
2, 299908, Note_off_c, 0, 77, 64
2, 300098, Note_on_c, 0, 75, 92
2, 300100, Note_off_c, 0, 67, 64
2, 300290, Note_on_c, 0, 65, 92
2, 300292, Note_off_c, 0, 75, 64
2, 300482, Note_on_c, 0, 74, 92
2, 300484, Note_off_c, 0, 65, 64
2, 300674, Note_on_c, 0, 67, 92
2, 300676, Note_off_c, 0, 74, 64
2, 301058, Note_on_c, 0, 68, 92
2, 301060, Note_off_c, 0, 67, 64
2, 301442, Note_on_c, 0, 67, 92
2, 301444, Note_off_c, 0, 68, 64
2, 301826, Note_on_c, 0, 65, 92
2, 301828, Note_off_c, 0, 67, 64
2, 302210, Note_on_c, 0, 63, 92
2, 302212, Note_off_c, 0, 65, 64
2, 302594, Note_on_c, 0, 82, 92
2, 302596, Note_off_c, 0, 63, 64
2, 302978, Note_on_c, 0, 79, 92
2, 302980, Note_off_c, 0, 82, 64
2, 303362, Note_on_c, 0, 75, 92
2, 303364, Note_off_c, 0, 79, 64
2, 304130, Note_on_c, 0, 74, 92
2, 304132, Note_off_c, 0, 75, 64
2, 304322, Note_on_c, 0, 72, 92
2, 304324, Note_off_c, 0, 74, 64
2, 304514, Note_on_c, 0, 74, 92
2, 304516, Note_off_c, 0, 72, 64
2, 304706, Note_on_c, 0, 77, 92
2, 304708, Note_off_c, 0, 74, 64
2, 304898, Note_on_c, 0, 76, 92
2, 304900, Note_off_c, 0, 77, 64
2, 305090, Note_on_c, 0, 79, 92
2, 305092, Note_off_c, 0, 76, 64
2, 305282, Note_on_c, 0, 77, 92
2, 305284, Note_off_c, 0, 79, 64
2, 305666, Note_on_c, 0, 84, 92
2, 305668, Note_off_c, 0, 77, 64
2, 306050, Note_on_c, 0, 80, 92
2, 306052, Note_off_c, 0, 84, 64
2, 306434, Note_on_c, 0, 77, 92
2, 306436, Note_off_c, 0, 80, 64
2, 307202, Note_on_c, 0, 75, 92
2, 307204, Note_off_c, 0, 77, 64
2, 307394, Note_on_c, 0, 74, 92
2, 307396, Note_off_c, 0, 75, 64
2, 307586, Note_on_c, 0, 75, 92
2, 307588, Note_off_c, 0, 74, 64
2, 307970, Note_on_c, 0, 66, 92
2, 307972, Note_off_c, 0, 75, 64
2, 308354, Note_on_c, 0, 67, 92
2, 308356, Note_off_c, 0, 66, 64
2, 309890, Note_on_c, 0, 72, 92
2, 309892, Note_off_c, 0, 67, 64
2, 311426, Note_on_c, 0, 70, 92
2, 311428, Note_off_c, 0, 72, 64
2, 311810, Note_on_c, 0, 72, 92
2, 311812, Note_off_c, 0, 70, 64
2, 312002, Note_on_c, 0, 74, 92
2, 312004, Note_off_c, 0, 72, 64
2, 312194, Note_on_c, 0, 75, 92
2, 312196, Note_off_c, 0, 74, 64
2, 312578, Note_on_c, 0, 63, 92
2, 312580, Note_off_c, 0, 75, 64
2, 312962, Note_on_c, 0, 68, 92
2, 312964, Note_off_c, 0, 63, 64
2, 313346, Note_on_c, 0, 67, 92
2, 313348, Note_off_c, 0, 68, 64
2, 313730, Note_on_c, 0, 65, 92
2, 313732, Note_off_c, 0, 67, 64
2, 314114, Note_on_c, 0, 74, 92
2, 314116, Note_off_c, 0, 65, 64
2, 314498, Note_on_c, 0, 67, 92
2, 314500, Note_off_c, 0, 74, 64
2, 314882, Note_on_c, 0, 69, 92
2, 314884, Note_off_c, 0, 67, 64
2, 315074, Note_on_c, 0, 71, 92
2, 315076, Note_off_c, 0, 69, 64
2, 315266, Note_on_c, 0, 72, 92
2, 315268, Note_off_c, 0, 71, 64
2, 315650, Note_on_c, 0, 60, 92
2, 315652, Note_off_c, 0, 72, 64
2, 316034, Note_on_c, 0, 65, 92
2, 316036, Note_off_c, 0, 60, 64
2, 316226, Note_on_c, 0, 67, 92
2, 316228, Note_off_c, 0, 65, 64
2, 316418, Note_on_c, 0, 65, 92
2, 316420, Note_off_c, 0, 67, 64
2, 316610, Note_on_c, 0, 63, 92
2, 316612, Note_off_c, 0, 65, 64
2, 316802, Note_on_c, 0, 62, 92
2, 316804, Note_off_c, 0, 63, 64
2, 316994, Note_on_c, 0, 63, 92
2, 316996, Note_off_c, 0, 62, 64
2, 317186, Note_on_c, 0, 65, 92
2, 317188, Note_off_c, 0, 63, 64
2, 317378, Note_on_c, 0, 62, 92
2, 317380, Note_off_c, 0, 65, 64
2, 317570, Note_on_c, 0, 63, 92
2, 317572, Note_off_c, 0, 62, 64
2, 317762, Note_on_c, 0, 65, 92
2, 317764, Note_off_c, 0, 63, 64
2, 317954, Note_on_c, 0, 63, 92
2, 317956, Note_off_c, 0, 65, 64
2, 318146, Note_on_c, 0, 62, 92
2, 318148, Note_off_c, 0, 63, 64
2, 318338, Note_on_c, 0, 60, 92
2, 318340, Note_off_c, 0, 62, 64
2, 318530, Note_on_c, 0, 62, 92
2, 318532, Note_off_c, 0, 60, 64
2, 318722, Note_on_c, 0, 63, 92
2, 318724, Note_off_c, 0, 62, 64
2, 318914, Note_on_c, 0, 60, 92
2, 318916, Note_off_c, 0, 63, 64
2, 319106, Note_on_c, 0, 62, 92
2, 319108, Note_off_c, 0, 60, 64
2, 319490, Note_on_c, 0, 72, 92
2, 319492, Note_off_c, 0, 62, 64
2, 319874, Note_on_c, 0, 71, 92
2, 319876, Note_off_c, 0, 72, 64
2, 320258, Note_on_c, 0, 74, 92
2, 320260, Note_off_c, 0, 71, 64
2, 321026, Note_on_c, 0, 72, 92
2, 321028, Note_off_c, 0, 74, 64
2, 321218, Note_on_c, 0, 74, 92
2, 321220, Note_off_c, 0, 72, 64
2, 321410, Note_on_c, 0, 75, 92
2, 321412, Note_off_c, 0, 74, 64
2, 321794, Note_on_c, 0, 72, 92
2, 321796, Note_off_c, 0, 75, 64
2, 322370, Note_on_c, 0, 71, 92
2, 322372, Note_off_c, 0, 72, 64
2, 322562, Note_on_c, 0, 69, 92
2, 322564, Note_off_c, 0, 71, 64
2, 322754, Note_on_c, 0, 67, 92
2, 322756, Note_off_c, 0, 69, 64
2, 322946, Note_on_c, 0, 77, 92
2, 322948, Note_off_c, 0, 67, 64
2, 324098, Note_on_c, 0, 75, 92
2, 324100, Note_off_c, 0, 77, 64
2, 324290, Note_on_c, 0, 74, 92
2, 324292, Note_off_c, 0, 75, 64
2, 324482, Note_on_c, 0, 72, 92
2, 324484, Note_off_c, 0, 74, 64
2, 325634, Note_on_c, 0, 70, 92
2, 325636, Note_off_c, 0, 72, 64
2, 325826, Note_on_c, 0, 68, 92
2, 325828, Note_off_c, 0, 70, 64
2, 326018, Note_on_c, 0, 67, 92
2, 326020, Note_off_c, 0, 68, 64
2, 326210, Note_on_c, 0, 68, 92
2, 326212, Note_off_c, 0, 67, 64
2, 326402, Note_on_c, 0, 70, 92
2, 326404, Note_off_c, 0, 68, 64
2, 326594, Note_on_c, 0, 67, 92
2, 326596, Note_off_c, 0, 70, 64
2, 326786, Note_on_c, 0, 68, 92
2, 326788, Note_off_c, 0, 67, 64
2, 326978, Note_on_c, 0, 70, 92
2, 326980, Note_off_c, 0, 68, 64
2, 327170, Note_on_c, 0, 68, 92
2, 327172, Note_off_c, 0, 70, 64
2, 327362, Note_on_c, 0, 67, 92
2, 327364, Note_off_c, 0, 68, 64
2, 327554, Note_on_c, 0, 65, 92
2, 327556, Note_off_c, 0, 67, 64
2, 327746, Note_on_c, 0, 67, 92
2, 327748, Note_off_c, 0, 65, 64
2, 327938, Note_on_c, 0, 68, 92
2, 327940, Note_off_c, 0, 67, 64
2, 328130, Note_on_c, 0, 65, 92
2, 328132, Note_off_c, 0, 68, 64
2, 328322, Note_on_c, 0, 73, 92
2, 328324, Note_off_c, 0, 65, 64
2, 329474, Note_on_c, 0, 67, 92
2, 329476, Note_off_c, 0, 73, 64
2, 329858, Note_on_c, 0, 72, 92
2, 329860, Note_off_c, 0, 67, 64
2, 330050, Note_on_c, 0, 77, 92
2, 330052, Note_off_c, 0, 72, 64
2, 330242, Note_on_c, 0, 76, 92
2, 330244, Note_off_c, 0, 77, 64
2, 330434, Note_on_c, 0, 74, 92
2, 330436, Note_off_c, 0, 76, 64
2, 330626, Note_on_c, 0, 72, 92
2, 330628, Note_off_c, 0, 74, 64
2, 331010, Note_on_c, 0, 70, 92
2, 331012, Note_off_c, 0, 72, 64
2, 331394, Note_on_c, 0, 68, 92
2, 331396, Note_off_c, 0, 70, 64
2, 332162, Note_on_c, 0, 67, 92
2, 332164, Note_off_c, 0, 68, 64
2, 332930, Note_on_c, 0, 65, 92
2, 332932, Note_off_c, 0, 67, 64
2, 333700, Note_off_c, 0, 65, 64
2, 346370, Note_on_c, 0, 75, 92
2, 346754, Note_on_c, 0, 74, 92
2, 346756, Note_off_c, 0, 75, 64
2, 346850, Note_on_c, 0, 71, 92
2, 346852, Note_off_c, 0, 74, 64
2, 346946, Note_on_c, 0, 66, 92
2, 346948, Note_off_c, 0, 71, 64
2, 347138, Note_on_c, 0, 67, 92
2, 347140, Note_off_c, 0, 66, 64
2, 347906, Note_on_c, 0, 75, 92
2, 347908, Note_off_c, 0, 67, 64
2, 348290, Note_on_c, 0, 74, 92
2, 348292, Note_off_c, 0, 75, 64
2, 348386, Note_on_c, 0, 71, 92
2, 348388, Note_off_c, 0, 74, 64
2, 348482, Note_on_c, 0, 66, 92
2, 348484, Note_off_c, 0, 71, 64
2, 348674, Note_on_c, 0, 67, 92
2, 348676, Note_off_c, 0, 66, 64
2, 349442, Note_on_c, 0, 80, 92
2, 349444, Note_off_c, 0, 67, 64
2, 349826, Note_on_c, 0, 79, 92
2, 349828, Note_off_c, 0, 80, 64
2, 349922, Note_on_c, 0, 75, 92
2, 349924, Note_off_c, 0, 79, 64
2, 350018, Note_on_c, 0, 71, 92
2, 350020, Note_off_c, 0, 75, 64
2, 350210, Note_on_c, 0, 72, 92
2, 350212, Note_off_c, 0, 71, 64
2, 350786, Note_on_c, 0, 77, 92
2, 350788, Note_off_c, 0, 72, 64
2, 350978, Note_on_c, 0, 75, 92
2, 350980, Note_off_c, 0, 77, 64
2, 351170, Note_on_c, 0, 74, 92
2, 351172, Note_off_c, 0, 75, 64
2, 351362, Note_on_c, 0, 75, 92
2, 351364, Note_off_c, 0, 74, 64
2, 351458, Note_on_c, 0, 72, 92
2, 351460, Note_off_c, 0, 75, 64
2, 351554, Note_on_c, 0, 67, 92
2, 351556, Note_off_c, 0, 72, 64
2, 351746, Note_on_c, 0, 68, 92
2, 351748, Note_off_c, 0, 67, 64
2, 352322, Note_on_c, 0, 73, 92
2, 352324, Note_off_c, 0, 68, 64
2, 352514, Note_on_c, 0, 72, 92
2, 352516, Note_off_c, 0, 73, 64
2, 352706, Note_on_c, 0, 70, 92
2, 352708, Note_off_c, 0, 72, 64
2, 352898, Note_on_c, 0, 72, 92
2, 352900, Note_off_c, 0, 70, 64
2, 352994, Note_on_c, 0, 68, 92
2, 352996, Note_off_c, 0, 72, 64
2, 353090, Note_on_c, 0, 64, 92
2, 353092, Note_off_c, 0, 68, 64
2, 353282, Note_on_c, 0, 65, 92
2, 353284, Note_off_c, 0, 64, 64
2, 353858, Note_on_c, 0, 70, 92
2, 353860, Note_off_c, 0, 65, 64
2, 354050, Note_on_c, 0, 68, 92
2, 354052, Note_off_c, 0, 70, 64
2, 354242, Note_on_c, 0, 67, 92
2, 354244, Note_off_c, 0, 68, 64
2, 354434, Note_on_c, 0, 68, 92
2, 354436, Note_off_c, 0, 67, 64
2, 354530, Note_on_c, 0, 67, 92
2, 354532, Note_off_c, 0, 68, 64
2, 354626, Note_on_c, 0, 65, 92
2, 354628, Note_off_c, 0, 67, 64
2, 354818, Note_on_c, 0, 70, 92
2, 354820, Note_off_c, 0, 65, 64
2, 354914, Note_on_c, 0, 68, 92
2, 354916, Note_off_c, 0, 70, 64
2, 355010, Note_on_c, 0, 67, 92
2, 355012, Note_off_c, 0, 68, 64
2, 355202, Note_on_c, 0, 72, 92
2, 355204, Note_off_c, 0, 67, 64
2, 355298, Note_on_c, 0, 70, 92
2, 355300, Note_off_c, 0, 72, 64
2, 355394, Note_on_c, 0, 68, 92
2, 355396, Note_off_c, 0, 70, 64
2, 355586, Note_on_c, 0, 74, 92
2, 355588, Note_off_c, 0, 68, 64
2, 356162, Note_on_c, 0, 75, 92
2, 356164, Note_off_c, 0, 74, 64
2, 356354, Note_on_c, 0, 70, 92
2, 356356, Note_off_c, 0, 75, 64
2, 356546, Note_on_c, 0, 79, 92
2, 356548, Note_off_c, 0, 70, 64
2, 356738, Note_on_c, 0, 72, 92
2, 356740, Note_off_c, 0, 79, 64
2, 356930, Note_on_c, 0, 79, 92
2, 356932, Note_off_c, 0, 72, 64
2, 357122, Note_on_c, 0, 77, 92
2, 357124, Note_off_c, 0, 79, 64
2, 357314, Note_on_c, 0, 75, 92
2, 357316, Note_off_c, 0, 77, 64
2, 357506, Note_on_c, 0, 74, 92
2, 357508, Note_off_c, 0, 75, 64
2, 357698, Note_on_c, 0, 75, 92
2, 357700, Note_off_c, 0, 74, 64
2, 357890, Note_on_c, 0, 74, 92
2, 357892, Note_off_c, 0, 75, 64
2, 358082, Note_on_c, 0, 72, 92
2, 358084, Note_off_c, 0, 74, 64
2, 358274, Note_on_c, 0, 70, 92
2, 358276, Note_off_c, 0, 72, 64
2, 358466, Note_on_c, 0, 68, 92
2, 358468, Note_off_c, 0, 70, 64
2, 358658, Note_on_c, 0, 67, 92
2, 358660, Note_off_c, 0, 68, 64
2, 358850, Note_on_c, 0, 65, 92
2, 358852, Note_off_c, 0, 67, 64
2, 359042, Note_on_c, 0, 67, 92
2, 359044, Note_off_c, 0, 65, 64
2, 359234, Note_on_c, 0, 75, 92
2, 359236, Note_off_c, 0, 67, 64
2, 359426, Note_on_c, 0, 68, 92
2, 359428, Note_off_c, 0, 75, 64
2, 359618, Note_on_c, 0, 77, 92
2, 359620, Note_off_c, 0, 68, 64
2, 359810, Note_on_c, 0, 67, 92
2, 359812, Note_off_c, 0, 77, 64
2, 360002, Note_on_c, 0, 75, 92
2, 360004, Note_off_c, 0, 67, 64
2, 360194, Note_on_c, 0, 65, 92
2, 360196, Note_off_c, 0, 75, 64
2, 360386, Note_on_c, 0, 74, 92
2, 360388, Note_off_c, 0, 65, 64
2, 360578, Note_on_c, 0, 67, 92
2, 360580, Note_off_c, 0, 74, 64
2, 360770, Note_on_c, 0, 75, 92
2, 360772, Note_off_c, 0, 67, 64
2, 360962, Note_on_c, 0, 68, 92
2, 360964, Note_off_c, 0, 75, 64
2, 361154, Note_on_c, 0, 77, 92
2, 361156, Note_off_c, 0, 68, 64
2, 361346, Note_on_c, 0, 67, 92
2, 361348, Note_off_c, 0, 77, 64
2, 361538, Note_on_c, 0, 75, 92
2, 361540, Note_off_c, 0, 67, 64
2, 361730, Note_on_c, 0, 65, 92
2, 361732, Note_off_c, 0, 75, 64
2, 361922, Note_on_c, 0, 74, 92
2, 361924, Note_off_c, 0, 65, 64
2, 362114, Note_on_c, 0, 67, 92
2, 362116, Note_off_c, 0, 74, 64
2, 362498, Note_on_c, 0, 68, 92
2, 362500, Note_off_c, 0, 67, 64
2, 362882, Note_on_c, 0, 67, 92
2, 362884, Note_off_c, 0, 68, 64
2, 363266, Note_on_c, 0, 65, 92
2, 363268, Note_off_c, 0, 67, 64
2, 363650, Note_on_c, 0, 63, 92
2, 363652, Note_off_c, 0, 65, 64
2, 364420, Note_off_c, 0, 63, 64
2, 364802, Note_on_c, 0, 75, 92
2, 365186, Note_on_c, 0, 75, 92
2, 365188, Note_off_c, 0, 75, 64
2, 365234, Note_on_c, 0, 77, 92
2, 365236, Note_off_c, 0, 75, 64
2, 365282, Note_on_c, 0, 75, 92
2, 365284, Note_off_c, 0, 77, 64
2, 368450, Note_on_c, 0, 68, 92
2, 368452, Note_off_c, 0, 75, 64
2, 368642, Note_on_c, 0, 77, 92
2, 368644, Note_off_c, 0, 68, 64
2, 368834, Note_on_c, 0, 68, 92
2, 368836, Note_off_c, 0, 77, 64
2, 369026, Note_on_c, 0, 75, 92
2, 369028, Note_off_c, 0, 68, 64
2, 369218, Note_on_c, 0, 68, 92
2, 369220, Note_off_c, 0, 75, 64
2, 369410, Note_on_c, 0, 73, 92
2, 369412, Note_off_c, 0, 68, 64
2, 369602, Note_on_c, 0, 67, 92
2, 369604, Note_off_c, 0, 73, 64
2, 369794, Note_on_c, 0, 72, 92
2, 369796, Note_off_c, 0, 67, 64
2, 369986, Note_on_c, 0, 73, 92
2, 369988, Note_off_c, 0, 72, 64
2, 370178, Note_on_c, 0, 72, 92
2, 370180, Note_off_c, 0, 73, 64
2, 370370, Note_on_c, 0, 70, 92
2, 370372, Note_off_c, 0, 72, 64
2, 370562, Note_on_c, 0, 68, 92
2, 370564, Note_off_c, 0, 70, 64
2, 370754, Note_on_c, 0, 70, 92
2, 370756, Note_off_c, 0, 68, 64
2, 370946, Note_on_c, 0, 72, 92
2, 370948, Note_off_c, 0, 70, 64
2, 371138, Note_on_c, 0, 68, 92
2, 371140, Note_off_c, 0, 72, 64
2, 371330, Note_on_c, 0, 70, 92
2, 371332, Note_off_c, 0, 68, 64
2, 371522, Note_on_c, 0, 72, 92
2, 371524, Note_off_c, 0, 70, 64
2, 371714, Note_on_c, 0, 70, 92
2, 371716, Note_off_c, 0, 72, 64
2, 371906, Note_on_c, 0, 68, 92
2, 371908, Note_off_c, 0, 70, 64
2, 372098, Note_on_c, 0, 70, 92
2, 372100, Note_off_c, 0, 68, 64
2, 372290, Note_on_c, 0, 63, 92
2, 372292, Note_off_c, 0, 70, 64
2, 372482, Note_on_c, 0, 72, 92
2, 372484, Note_off_c, 0, 63, 64
2, 372674, Note_on_c, 0, 63, 92
2, 372676, Note_off_c, 0, 72, 64
2, 372866, Note_on_c, 0, 73, 92
2, 372868, Note_off_c, 0, 63, 64
2, 373058, Note_on_c, 0, 75, 92
2, 373060, Note_off_c, 0, 73, 64
2, 373250, Note_on_c, 0, 73, 92
2, 373252, Note_off_c, 0, 75, 64
2, 373442, Note_on_c, 0, 72, 92
2, 373444, Note_off_c, 0, 73, 64
2, 373634, Note_on_c, 0, 70, 92
2, 373636, Note_off_c, 0, 72, 64
2, 373826, Note_on_c, 0, 72, 92
2, 373828, Note_off_c, 0, 70, 64
2, 374018, Note_on_c, 0, 73, 92
2, 374020, Note_off_c, 0, 72, 64
2, 374210, Note_on_c, 0, 70, 92
2, 374212, Note_off_c, 0, 73, 64
2, 374402, Note_on_c, 0, 72, 92
2, 374404, Note_off_c, 0, 70, 64
2, 374594, Note_on_c, 0, 73, 92
2, 374596, Note_off_c, 0, 72, 64
2, 374786, Note_on_c, 0, 72, 92
2, 374788, Note_off_c, 0, 73, 64
2, 374978, Note_on_c, 0, 70, 92
2, 374980, Note_off_c, 0, 72, 64
2, 375170, Note_on_c, 0, 72, 92
2, 375172, Note_off_c, 0, 70, 64
2, 375362, Note_on_c, 0, 65, 92
2, 375364, Note_off_c, 0, 72, 64
2, 375554, Note_on_c, 0, 74, 92
2, 375556, Note_off_c, 0, 65, 64
2, 375746, Note_on_c, 0, 65, 92
2, 375748, Note_off_c, 0, 74, 64
2, 375938, Note_on_c, 0, 75, 92
2, 375940, Note_off_c, 0, 65, 64
2, 376130, Note_on_c, 0, 77, 92
2, 376132, Note_off_c, 0, 75, 64
2, 376322, Note_on_c, 0, 75, 92
2, 376324, Note_off_c, 0, 77, 64
2, 376514, Note_on_c, 0, 74, 92
2, 376516, Note_off_c, 0, 75, 64
2, 376706, Note_on_c, 0, 75, 92
2, 376708, Note_off_c, 0, 74, 64
2, 376898, Note_on_c, 0, 72, 92
2, 376900, Note_off_c, 0, 75, 64
2, 377090, Note_on_c, 0, 68, 92
2, 377092, Note_off_c, 0, 72, 64
2, 377282, Note_on_c, 0, 77, 92
2, 377284, Note_off_c, 0, 68, 64
2, 377474, Note_on_c, 0, 67, 92
2, 377476, Note_off_c, 0, 77, 64
2, 379010, Note_on_c, 0, 72, 92
2, 379012, Note_off_c, 0, 67, 64
2, 380546, Note_on_c, 0, 70, 92
2, 380548, Note_off_c, 0, 72, 64
2, 380930, Note_on_c, 0, 72, 92
2, 380932, Note_off_c, 0, 70, 64
2, 381122, Note_on_c, 0, 73, 92
2, 381124, Note_off_c, 0, 72, 64
2, 381314, Note_on_c, 0, 75, 92
2, 381316, Note_off_c, 0, 73, 64
2, 381698, Note_on_c, 0, 63, 92
2, 381700, Note_off_c, 0, 75, 64
2, 382082, Note_on_c, 0, 68, 92
2, 382084, Note_off_c, 0, 63, 64
2, 382466, Note_on_c, 0, 67, 92
2, 382468, Note_off_c, 0, 68, 64
2, 382850, Note_on_c, 0, 65, 92
2, 382852, Note_off_c, 0, 67, 64
2, 383234, Note_on_c, 0, 73, 92
2, 383236, Note_off_c, 0, 65, 64
2, 383618, Note_on_c, 0, 67, 92
2, 383620, Note_off_c, 0, 73, 64
2, 384002, Note_on_c, 0, 68, 92
2, 384004, Note_off_c, 0, 67, 64
2, 384194, Note_on_c, 0, 70, 92
2, 384196, Note_off_c, 0, 68, 64
2, 384386, Note_on_c, 0, 72, 92
2, 384388, Note_off_c, 0, 70, 64
2, 384770, Note_on_c, 0, 60, 92
2, 384772, Note_off_c, 0, 72, 64
2, 385154, Note_on_c, 0, 65, 92
2, 385156, Note_off_c, 0, 60, 64
2, 385346, Note_on_c, 0, 67, 92
2, 385348, Note_off_c, 0, 65, 64
2, 385538, Note_on_c, 0, 65, 92
2, 385540, Note_off_c, 0, 67, 64
2, 385730, Note_on_c, 0, 63, 92
2, 385732, Note_off_c, 0, 65, 64
2, 385922, Note_on_c, 0, 62, 92
2, 385924, Note_off_c, 0, 63, 64
2, 386114, Note_on_c, 0, 63, 92
2, 386116, Note_off_c, 0, 62, 64
2, 386306, Note_on_c, 0, 65, 92
2, 386308, Note_off_c, 0, 63, 64
2, 386498, Note_on_c, 0, 62, 92
2, 386500, Note_off_c, 0, 65, 64
2, 386690, Note_on_c, 0, 63, 92
2, 386692, Note_off_c, 0, 62, 64
2, 387074, Note_on_c, 0, 60, 92
2, 387076, Note_off_c, 0, 63, 64
2, 387458, Note_on_c, 0, 68, 92
2, 387460, Note_off_c, 0, 60, 64
2, 388610, Note_on_c, 0, 67, 92
2, 388612, Note_off_c, 0, 68, 64
2, 388994, Note_on_c, 0, 79, 92
2, 388996, Note_off_c, 0, 67, 64
2, 390146, Note_on_c, 0, 77, 92
2, 390148, Note_off_c, 0, 79, 64
2, 390338, Note_on_c, 0, 75, 92
2, 390340, Note_off_c, 0, 77, 64
2, 390530, Note_on_c, 0, 74, 92
2, 390532, Note_off_c, 0, 75, 64
2, 390722, Note_on_c, 0, 75, 92
2, 390724, Note_off_c, 0, 74, 64
2, 390914, Note_on_c, 0, 77, 92
2, 390916, Note_off_c, 0, 75, 64
2, 391106, Note_on_c, 0, 74, 92
2, 391108, Note_off_c, 0, 77, 64
2, 391298, Note_on_c, 0, 75, 92
2, 391300, Note_off_c, 0, 74, 64
2, 391490, Note_on_c, 0, 77, 92
2, 391492, Note_off_c, 0, 75, 64
2, 391682, Note_on_c, 0, 75, 92
2, 391684, Note_off_c, 0, 77, 64
2, 391874, Note_on_c, 0, 74, 92
2, 391876, Note_off_c, 0, 75, 64
2, 392066, Note_on_c, 0, 72, 92
2, 392068, Note_off_c, 0, 74, 64
2, 392258, Note_on_c, 0, 74, 92
2, 392260, Note_off_c, 0, 72, 64
2, 392450, Note_on_c, 0, 75, 92
2, 392452, Note_off_c, 0, 74, 64
2, 392642, Note_on_c, 0, 72, 92
2, 392644, Note_off_c, 0, 75, 64
2, 392834, Note_on_c, 0, 70, 92
2, 392836, Note_off_c, 0, 72, 64
2, 392882, Note_on_c, 0, 68, 92
2, 392884, Note_off_c, 0, 70, 64
2, 392930, Note_on_c, 0, 70, 92
2, 392932, Note_off_c, 0, 68, 64
2, 392978, Note_on_c, 0, 68, 92
2, 392980, Note_off_c, 0, 70, 64
2, 393026, Note_on_c, 0, 70, 92
2, 393028, Note_off_c, 0, 68, 64
2, 393074, Note_on_c, 0, 68, 92
2, 393076, Note_off_c, 0, 70, 64
2, 393122, Note_on_c, 0, 70, 92
2, 393124, Note_off_c, 0, 68, 64
2, 393170, Note_on_c, 0, 68, 92
2, 393172, Note_off_c, 0, 70, 64
2, 393218, Note_on_c, 0, 70, 92
2, 393220, Note_off_c, 0, 68, 64
2, 393266, Note_on_c, 0, 68, 92
2, 393268, Note_off_c, 0, 70, 64
2, 393314, Note_on_c, 0, 70, 92
2, 393316, Note_off_c, 0, 68, 64
2, 393362, Note_on_c, 0, 68, 92
2, 393364, Note_off_c, 0, 70, 64
2, 393410, Note_on_c, 0, 70, 92
2, 393412, Note_off_c, 0, 68, 64
2, 393458, Note_on_c, 0, 68, 92
2, 393460, Note_off_c, 0, 70, 64
2, 393506, Note_on_c, 0, 70, 92
2, 393508, Note_off_c, 0, 68, 64
2, 393554, Note_on_c, 0, 68, 92
2, 393556, Note_off_c, 0, 70, 64
2, 393602, Note_on_c, 0, 70, 92
2, 393604, Note_off_c, 0, 68, 64
2, 393650, Note_on_c, 0, 68, 92
2, 393652, Note_off_c, 0, 70, 64
2, 393698, Note_on_c, 0, 70, 92
2, 393700, Note_off_c, 0, 68, 64
2, 393746, Note_on_c, 0, 68, 92
2, 393748, Note_off_c, 0, 70, 64
2, 393794, Note_on_c, 0, 70, 92
2, 393796, Note_off_c, 0, 68, 64
2, 393842, Note_on_c, 0, 68, 92
2, 393844, Note_off_c, 0, 70, 64
2, 393890, Note_on_c, 0, 70, 92
2, 393892, Note_off_c, 0, 68, 64
2, 393938, Note_on_c, 0, 68, 92
2, 393940, Note_off_c, 0, 70, 64
2, 393986, Note_on_c, 0, 67, 92
2, 393988, Note_off_c, 0, 68, 64
2, 394178, Note_on_c, 0, 68, 92
2, 394180, Note_off_c, 0, 67, 64
2, 394370, Note_on_c, 0, 67, 92
2, 394372, Note_off_c, 0, 68, 64
2, 395330, Note_on_c, 0, 72, 92
2, 395332, Note_off_c, 0, 67, 64
2, 395522, Note_on_c, 0, 71, 92
2, 395524, Note_off_c, 0, 72, 64
2, 395714, Note_on_c, 0, 72, 92
2, 395716, Note_off_c, 0, 71, 64
2, 395906, Note_on_c, 0, 77, 92
2, 395908, Note_off_c, 0, 72, 64
2, 396098, Note_on_c, 0, 79, 92
2, 396100, Note_off_c, 0, 77, 64
2, 396290, Note_on_c, 0, 77, 92
2, 396292, Note_off_c, 0, 79, 64
2, 396482, Note_on_c, 0, 75, 92
2, 396484, Note_off_c, 0, 77, 64
2, 396674, Note_on_c, 0, 74, 92
2, 396676, Note_off_c, 0, 75, 64
2, 396866, Note_on_c, 0, 75, 92
2, 396868, Note_off_c, 0, 74, 64
2, 397058, Note_on_c, 0, 77, 92
2, 397060, Note_off_c, 0, 75, 64
2, 397250, Note_on_c, 0, 74, 92
2, 397252, Note_off_c, 0, 77, 64
2, 397442, Note_on_c, 0, 75, 92
2, 397444, Note_off_c, 0, 74, 64
2, 397634, Note_on_c, 0, 77, 92
2, 397636, Note_off_c, 0, 75, 64
2, 397826, Note_on_c, 0, 75, 92
2, 397828, Note_off_c, 0, 77, 64
2, 398018, Note_on_c, 0, 74, 92
2, 398020, Note_off_c, 0, 75, 64
2, 398210, Note_on_c, 0, 72, 92
2, 398212, Note_off_c, 0, 74, 64
2, 398402, Note_on_c, 0, 74, 92
2, 398404, Note_off_c, 0, 72, 64
2, 398594, Note_on_c, 0, 75, 92
2, 398596, Note_off_c, 0, 74, 64
2, 398786, Note_on_c, 0, 72, 92
2, 398788, Note_off_c, 0, 75, 64
2, 398978, Note_on_c, 0, 74, 92
2, 398980, Note_off_c, 0, 72, 64
2, 399170, Note_on_c, 0, 75, 92
2, 399172, Note_off_c, 0, 74, 64
2, 399362, Note_on_c, 0, 74, 92
2, 399364, Note_off_c, 0, 75, 64
2, 399554, Note_on_c, 0, 72, 92
2, 399556, Note_off_c, 0, 74, 64
2, 399746, Note_on_c, 0, 71, 92
2, 399748, Note_off_c, 0, 72, 64
2, 399938, Note_on_c, 0, 72, 92
2, 399940, Note_off_c, 0, 71, 64
2, 400130, Note_on_c, 0, 74, 92
2, 400132, Note_off_c, 0, 72, 64
2, 400322, Note_on_c, 0, 71, 92
2, 400324, Note_off_c, 0, 74, 64
2, 400514, Note_on_c, 0, 72, 92
2, 400516, Note_off_c, 0, 71, 64
2, 400706, Note_on_c, 0, 73, 92
2, 400708, Note_off_c, 0, 72, 64
2, 400898, Note_on_c, 0, 72, 92
2, 400900, Note_off_c, 0, 73, 64
2, 401090, Note_on_c, 0, 70, 92
2, 401092, Note_off_c, 0, 72, 64
2, 401282, Note_on_c, 0, 68, 92
2, 401284, Note_off_c, 0, 70, 64
2, 401474, Note_on_c, 0, 70, 92
2, 401476, Note_off_c, 0, 68, 64
2, 401666, Note_on_c, 0, 72, 92
2, 401668, Note_off_c, 0, 70, 64
2, 401858, Note_on_c, 0, 68, 92
2, 401860, Note_off_c, 0, 72, 64
2, 402050, Note_on_c, 0, 70, 92
2, 402052, Note_off_c, 0, 68, 64
2, 402242, Note_on_c, 0, 72, 92
2, 402244, Note_off_c, 0, 70, 64
2, 402434, Note_on_c, 0, 70, 92
2, 402436, Note_off_c, 0, 72, 64
2, 402626, Note_on_c, 0, 68, 92
2, 402628, Note_off_c, 0, 70, 64
2, 402818, Note_on_c, 0, 67, 92
2, 402820, Note_off_c, 0, 68, 64
2, 403010, Note_on_c, 0, 68, 92
2, 403012, Note_off_c, 0, 67, 64
2, 403202, Note_on_c, 0, 70, 92
2, 403204, Note_off_c, 0, 68, 64
2, 403394, Note_on_c, 0, 67, 92
2, 403396, Note_off_c, 0, 70, 64
2, 403586, Note_on_c, 0, 68, 92
2, 403588, Note_off_c, 0, 67, 64
2, 403778, Note_on_c, 0, 70, 92
2, 403780, Note_off_c, 0, 68, 64
2, 403970, Note_on_c, 0, 68, 92
2, 403972, Note_off_c, 0, 70, 64
2, 404162, Note_on_c, 0, 67, 92
2, 404164, Note_off_c, 0, 68, 64
2, 404354, Note_on_c, 0, 65, 92
2, 404356, Note_off_c, 0, 67, 64
2, 404546, Note_on_c, 0, 67, 92
2, 404548, Note_off_c, 0, 65, 64
2, 404738, Note_on_c, 0, 68, 92
2, 404740, Note_off_c, 0, 67, 64
2, 404930, Note_on_c, 0, 65, 92
2, 404932, Note_off_c, 0, 68, 64
2, 405122, Note_on_c, 0, 67, 92
2, 405124, Note_off_c, 0, 65, 64
2, 405314, Note_on_c, 0, 68, 92
2, 405316, Note_off_c, 0, 67, 64
2, 405506, Note_on_c, 0, 67, 92
2, 405508, Note_off_c, 0, 68, 64
2, 405698, Note_on_c, 0, 65, 92
2, 405700, Note_off_c, 0, 67, 64
2, 405890, Note_on_c, 0, 64, 92
2, 405892, Note_off_c, 0, 65, 64
2, 406082, Note_on_c, 0, 65, 92
2, 406084, Note_off_c, 0, 64, 64
2, 406274, Note_on_c, 0, 67, 92
2, 406276, Note_off_c, 0, 65, 64
2, 406466, Note_on_c, 0, 64, 92
2, 406468, Note_off_c, 0, 67, 64
2, 406658, Note_on_c, 0, 65, 92
2, 406660, Note_off_c, 0, 64, 64
2, 407042, Note_on_c, 0, 72, 92
2, 407044, Note_off_c, 0, 65, 64
2, 407426, Note_on_c, 0, 77, 92
2, 407428, Note_off_c, 0, 72, 64
2, 408578, Note_on_c, 0, 75, 92
2, 408580, Note_off_c, 0, 77, 64
2, 408770, Note_on_c, 0, 74, 92
2, 408772, Note_off_c, 0, 75, 64
2, 408962, Note_on_c, 0, 72, 92
2, 408964, Note_off_c, 0, 74, 64
2, 409154, Note_on_c, 0, 74, 92
2, 409156, Note_off_c, 0, 72, 64
2, 409346, Note_on_c, 0, 75, 92
2, 409348, Note_off_c, 0, 74, 64
2, 409538, Note_on_c, 0, 72, 92
2, 409540, Note_off_c, 0, 75, 64
2, 409730, Note_on_c, 0, 74, 92
2, 409732, Note_off_c, 0, 72, 64
2, 409922, Note_on_c, 0, 75, 92
2, 409924, Note_off_c, 0, 74, 64
2, 410114, Note_on_c, 0, 74, 92
2, 410116, Note_off_c, 0, 75, 64
2, 410306, Note_on_c, 0, 72, 92
2, 410308, Note_off_c, 0, 74, 64
2, 410498, Note_on_c, 0, 71, 92
2, 410500, Note_off_c, 0, 72, 64
2, 410690, Note_on_c, 0, 72, 92
2, 410692, Note_off_c, 0, 71, 64
2, 410882, Note_on_c, 0, 74, 92
2, 410884, Note_off_c, 0, 72, 64
2, 411074, Note_on_c, 0, 71, 92
2, 411076, Note_off_c, 0, 74, 64
2, 411266, Note_on_c, 0, 72, 92
2, 411268, Note_off_c, 0, 71, 64
2, 412994, Note_on_c, 0, 74, 92
2, 412996, Note_off_c, 0, 72, 64
2, 413186, Note_on_c, 0, 72, 92
2, 413188, Note_off_c, 0, 74, 64
2, 413378, Note_on_c, 0, 74, 92
2, 413380, Note_off_c, 0, 72, 64
2, 413570, Note_on_c, 0, 74, 92
2, 413572, Note_off_c, 0, 74, 64
2, 413618, Note_on_c, 0, 75, 92
2, 413620, Note_off_c, 0, 74, 64
2, 413666, Note_on_c, 0, 74, 92
2, 413668, Note_off_c, 0, 75, 64
2, 414146, Note_on_c, 0, 72, 92
2, 414148, Note_off_c, 0, 74, 64
2, 414242, Note_on_c, 0, 74, 92
2, 414244, Note_off_c, 0, 72, 64
2, 414338, Note_on_c, 0, 75, 92
2, 414340, Note_off_c, 0, 74, 64
2, 416066, Note_on_c, 0, 77, 92
2, 416068, Note_off_c, 0, 75, 64
2, 416258, Note_on_c, 0, 75, 92
2, 416260, Note_off_c, 0, 77, 64
2, 416450, Note_on_c, 0, 77, 92
2, 416452, Note_off_c, 0, 75, 64
2, 416642, Note_on_c, 0, 77, 92
2, 416644, Note_off_c, 0, 77, 64
2, 416690, Note_on_c, 0, 79, 92
2, 416692, Note_off_c, 0, 77, 64
2, 416738, Note_on_c, 0, 77, 92
2, 416740, Note_off_c, 0, 79, 64
2, 417218, Note_on_c, 0, 75, 92
2, 417220, Note_off_c, 0, 77, 64
2, 417314, Note_on_c, 0, 77, 92
2, 417316, Note_off_c, 0, 75, 64
2, 417410, Note_on_c, 0, 79, 92
2, 417412, Note_off_c, 0, 77, 64
2, 418180, Note_off_c, 0, 79, 64
2, 418946, Note_on_c, 0, 67, 92
2, 420482, Note_on_c, 0, 72, 92
2, 420484, Note_off_c, 0, 67, 64
2, 422018, Note_on_c, 0, 70, 92
2, 422020, Note_off_c, 0, 72, 64
2, 422402, Note_on_c, 0, 72, 92
2, 422404, Note_off_c, 0, 70, 64
2, 422594, Note_on_c, 0, 74, 92
2, 422596, Note_off_c, 0, 72, 64
2, 422786, Note_on_c, 0, 75, 92
2, 422788, Note_off_c, 0, 74, 64
2, 423170, Note_on_c, 0, 63, 92
2, 423172, Note_off_c, 0, 75, 64
2, 423554, Note_on_c, 0, 68, 92
2, 423556, Note_off_c, 0, 63, 64
2, 423938, Note_on_c, 0, 67, 92
2, 423940, Note_off_c, 0, 68, 64
2, 424322, Note_on_c, 0, 65, 92
2, 424324, Note_off_c, 0, 67, 64
2, 424706, Note_on_c, 0, 74, 92
2, 424708, Note_off_c, 0, 65, 64
2, 425090, Note_on_c, 0, 67, 92
2, 425092, Note_off_c, 0, 74, 64
2, 425474, Note_on_c, 0, 69, 92
2, 425476, Note_off_c, 0, 67, 64
2, 425666, Note_on_c, 0, 71, 92
2, 425668, Note_off_c, 0, 69, 64
2, 425858, Note_on_c, 0, 72, 92
2, 425860, Note_off_c, 0, 71, 64
2, 426242, Note_on_c, 0, 60, 92
2, 426244, Note_off_c, 0, 72, 64
2, 426626, Note_on_c, 0, 65, 92
2, 426628, Note_off_c, 0, 60, 64
2, 426818, Note_on_c, 0, 67, 92
2, 426820, Note_off_c, 0, 65, 64
2, 427010, Note_on_c, 0, 65, 92
2, 427012, Note_off_c, 0, 67, 64
2, 427202, Note_on_c, 0, 63, 92
2, 427204, Note_off_c, 0, 65, 64
2, 427394, Note_on_c, 0, 62, 92
2, 427396, Note_off_c, 0, 63, 64
2, 427586, Note_on_c, 0, 63, 92
2, 427588, Note_off_c, 0, 62, 64
2, 427778, Note_on_c, 0, 65, 92
2, 427780, Note_off_c, 0, 63, 64
2, 427970, Note_on_c, 0, 62, 92
2, 427972, Note_off_c, 0, 65, 64
2, 428162, Note_on_c, 0, 63, 92
2, 428164, Note_off_c, 0, 62, 64
2, 428354, Note_on_c, 0, 65, 92
2, 428356, Note_off_c, 0, 63, 64
2, 428546, Note_on_c, 0, 63, 92
2, 428548, Note_off_c, 0, 65, 64
2, 428738, Note_on_c, 0, 62, 92
2, 428740, Note_off_c, 0, 63, 64
2, 428930, Note_on_c, 0, 60, 92
2, 428932, Note_off_c, 0, 62, 64
2, 429122, Note_on_c, 0, 62, 92
2, 429124, Note_off_c, 0, 60, 64
2, 429314, Note_on_c, 0, 63, 92
2, 429316, Note_off_c, 0, 62, 64
2, 429506, Note_on_c, 0, 65, 92
2, 429508, Note_off_c, 0, 63, 64
2, 429698, Note_on_c, 0, 67, 92
2, 429700, Note_off_c, 0, 65, 64
2, 429890, Note_on_c, 0, 68, 92
2, 429892, Note_off_c, 0, 67, 64
2, 430082, Note_on_c, 0, 67, 92
2, 430084, Note_off_c, 0, 68, 64
2, 430274, Note_on_c, 0, 65, 92
2, 430276, Note_off_c, 0, 67, 64
2, 430466, Note_on_c, 0, 64, 92
2, 430468, Note_off_c, 0, 65, 64
2, 430658, Note_on_c, 0, 65, 92
2, 430660, Note_off_c, 0, 64, 64
2, 430850, Note_on_c, 0, 67, 92
2, 430852, Note_off_c, 0, 65, 64
2, 431042, Note_on_c, 0, 64, 92
2, 431044, Note_off_c, 0, 67, 64
2, 431234, Note_on_c, 0, 65, 92
2, 431236, Note_off_c, 0, 64, 64
2, 431426, Note_on_c, 0, 64, 92
2, 431428, Note_off_c, 0, 65, 64
2, 431618, Note_on_c, 0, 65, 92
2, 431620, Note_off_c, 0, 64, 64
2, 431810, Note_on_c, 0, 67, 92
2, 431812, Note_off_c, 0, 65, 64
2, 432002, Note_on_c, 0, 68, 92
2, 432004, Note_off_c, 0, 67, 64
2, 432194, Note_on_c, 0, 70, 92
2, 432196, Note_off_c, 0, 68, 64
2, 432386, Note_on_c, 0, 72, 92
2, 432388, Note_off_c, 0, 70, 64
2, 432578, Note_on_c, 0, 68, 92
2, 432580, Note_off_c, 0, 72, 64
2, 432770, Note_on_c, 0, 70, 92
2, 432772, Note_off_c, 0, 68, 64
2, 432962, Note_on_c, 0, 72, 92
2, 432964, Note_off_c, 0, 70, 64
2, 433154, Note_on_c, 0, 70, 92
2, 433156, Note_off_c, 0, 72, 64
2, 433346, Note_on_c, 0, 68, 92
2, 433348, Note_off_c, 0, 70, 64
2, 433538, Note_on_c, 0, 67, 92
2, 433540, Note_off_c, 0, 68, 64
2, 433730, Note_on_c, 0, 68, 92
2, 433732, Note_off_c, 0, 67, 64
2, 433922, Note_on_c, 0, 70, 92
2, 433924, Note_off_c, 0, 68, 64
2, 434114, Note_on_c, 0, 67, 92
2, 434116, Note_off_c, 0, 70, 64
2, 434306, Note_on_c, 0, 68, 92
2, 434308, Note_off_c, 0, 67, 64
2, 434498, Note_on_c, 0, 70, 92
2, 434500, Note_off_c, 0, 68, 64
2, 434690, Note_on_c, 0, 68, 92
2, 434692, Note_off_c, 0, 70, 64
2, 434882, Note_on_c, 0, 67, 92
2, 434884, Note_off_c, 0, 68, 64
2, 435074, Note_on_c, 0, 65, 92
2, 435076, Note_off_c, 0, 67, 64
2, 435266, Note_on_c, 0, 67, 92
2, 435268, Note_off_c, 0, 65, 64
2, 435458, Note_on_c, 0, 68, 92
2, 435460, Note_off_c, 0, 67, 64
2, 435650, Note_on_c, 0, 65, 92
2, 435652, Note_off_c, 0, 68, 64
2, 435842, Note_on_c, 0, 62, 92
2, 435844, Note_off_c, 0, 65, 64
2, 437570, Note_on_c, 0, 72, 92
2, 437572, Note_off_c, 0, 62, 64
2, 437762, Note_on_c, 0, 71, 92
2, 437764, Note_off_c, 0, 72, 64
2, 437954, Note_on_c, 0, 69, 92
2, 437956, Note_off_c, 0, 71, 64
2, 438146, Note_on_c, 0, 67, 92
2, 438148, Note_off_c, 0, 69, 64
2, 438338, Note_on_c, 0, 72, 92
2, 438340, Note_off_c, 0, 67, 64
2, 438530, Note_on_c, 0, 65, 92
2, 438532, Note_off_c, 0, 72, 64
2, 438914, Note_on_c, 0, 63, 92
2, 438916, Note_off_c, 0, 65, 64
2, 439682, Note_on_c, 0, 62, 92
2, 439684, Note_off_c, 0, 63, 64
2, 440450, Note_on_c, 0, 60, 92
2, 440452, Note_off_c, 0, 62, 64
2, 441988, Note_off_c, 0, 60, 64
2, 442112, End_track
3, 0, Start_track
3, 0, Title_t, "Track 2"
3, 0, Note_on_c, 0, 75, 92
3, 384, Note_off_c, 0, 75, 64
3, 384, Note_on_c, 0, 60, 92
3, 480, Note_off_c, 0, 60, 64
3, 480, Note_on_c, 0, 59, 92
3, 576, Note_off_c, 0, 59, 64
3, 576, Note_on_c, 0, 60, 92
3, 672, Note_off_c, 0, 60, 64
3, 672, Note_on_c, 0, 62, 92
3, 768, Note_off_c, 0, 62, 64
3, 768, Note_on_c, 0, 63, 92
3, 960, Note_off_c, 0, 63, 64
3, 960, Note_on_c, 0, 75, 92
3, 1152, Note_off_c, 0, 75, 64
3, 1152, Note_on_c, 0, 74, 92
3, 1200, Note_off_c, 0, 74, 64
3, 1200, Note_on_c, 0, 75, 92
3, 1248, Note_off_c, 0, 75, 64
3, 1248, Note_on_c, 0, 74, 92
3, 1344, Note_off_c, 0, 74, 64
3, 1344, Note_on_c, 0, 72, 92
3, 1536, Note_off_c, 0, 72, 64
3, 1536, Note_on_c, 0, 74, 92
3, 1920, Note_off_c, 0, 74, 64
3, 1920, Note_on_c, 0, 59, 92
3, 2016, Note_off_c, 0, 59, 64
3, 2016, Note_on_c, 0, 57, 92
3, 2112, Note_off_c, 0, 57, 64
3, 2112, Note_on_c, 0, 59, 92
3, 2208, Note_off_c, 0, 59, 64
3, 2208, Note_on_c, 0, 60, 92
3, 2304, Note_off_c, 0, 60, 64
3, 2304, Note_on_c, 0, 62, 92
3, 2496, Note_off_c, 0, 62, 64
3, 2496, Note_on_c, 0, 74, 92
3, 2688, Note_off_c, 0, 74, 64
3, 2688, Note_on_c, 0, 72, 92
3, 2736, Note_off_c, 0, 72, 64
3, 2736, Note_on_c, 0, 74, 92
3, 2784, Note_off_c, 0, 74, 64
3, 2784, Note_on_c, 0, 72, 92
3, 2880, Note_off_c, 0, 72, 64
3, 2880, Note_on_c, 0, 71, 92
3, 3072, Note_off_c, 0, 71, 64
3, 3072, Note_on_c, 0, 72, 92
3, 3264, Note_off_c, 0, 72, 64
3, 3264, Note_on_c, 0, 75, 92
3, 3648, Note_off_c, 0, 75, 64
3, 3648, Note_on_c, 0, 68, 92
3, 4032, Note_off_c, 0, 68, 64
3, 4032, Note_on_c, 0, 74, 92
3, 4416, Note_off_c, 0, 74, 64
3, 4416, Note_on_c, 0, 67, 92
3, 4800, Note_off_c, 0, 67, 64
3, 4800, Note_on_c, 0, 72, 92
3, 5184, Note_off_c, 0, 72, 64
3, 5184, Note_on_c, 0, 65, 92
3, 5472, Note_off_c, 0, 65, 64
3, 5472, Note_on_c, 0, 62, 92
3, 5568, Note_off_c, 0, 62, 64
3, 5568, Note_on_c, 0, 63, 92
3, 5664, Note_off_c, 0, 63, 64
3, 5664, Note_on_c, 0, 65, 92
3, 5760, Note_off_c, 0, 65, 64
3, 5760, Note_on_c, 0, 67, 92
3, 5856, Note_off_c, 0, 67, 64
3, 5856, Note_on_c, 0, 68, 92
3, 5952, Note_off_c, 0, 68, 64
3, 5952, Note_on_c, 0, 70, 92
3, 6048, Note_off_c, 0, 70, 64
3, 6048, Note_on_c, 0, 72, 92
3, 6144, Note_off_c, 0, 72, 64
3, 6144, Note_on_c, 0, 73, 92
3, 6528, Note_off_c, 0, 73, 64
3, 6528, Note_on_c, 0, 64, 92
3, 6624, Note_off_c, 0, 64, 64
3, 6624, Note_on_c, 0, 62, 92
3, 6720, Note_off_c, 0, 62, 64
3, 6720, Note_on_c, 0, 64, 92
3, 6816, Note_off_c, 0, 64, 64
3, 6816, Note_on_c, 0, 65, 92
3, 6912, Note_off_c, 0, 65, 64
3, 6912, Note_on_c, 0, 67, 92
3, 7104, Note_off_c, 0, 67, 64
3, 7104, Note_on_c, 0, 79, 92
3, 7296, Note_off_c, 0, 79, 64
3, 7296, Note_on_c, 0, 77, 92
3, 7344, Note_off_c, 0, 77, 64
3, 7344, Note_on_c, 0, 79, 92
3, 7392, Note_off_c, 0, 79, 64
3, 7392, Note_on_c, 0, 77, 92
3, 7488, Note_off_c, 0, 77, 64
3, 7488, Note_on_c, 0, 76, 92
3, 7680, Note_off_c, 0, 76, 64
3, 7680, Note_on_c, 0, 77, 92
3, 8064, Note_off_c, 0, 77, 64
3, 8064, Note_on_c, 0, 65, 92
3, 8160, Note_off_c, 0, 65, 64
3, 8160, Note_on_c, 0, 64, 92
3, 8256, Note_off_c, 0, 64, 64
3, 8256, Note_on_c, 0, 65, 92
3, 8352, Note_off_c, 0, 65, 64
3, 8352, Note_on_c, 0, 67, 92
3, 8448, Note_off_c, 0, 67, 64
3, 8448, Note_on_c, 0, 68, 92
3, 8640, Note_off_c, 0, 68, 64
3, 8640, Note_on_c, 0, 67, 92
3, 8832, Note_off_c, 0, 67, 64
3, 8832, Note_on_c, 0, 65, 92
3, 9024, Note_off_c, 0, 65, 64
3, 9024, Note_on_c, 0, 63, 92
3, 9216, Note_off_c, 0, 63, 64
3, 9216, Note_on_c, 0, 65, 92
3, 9312, Note_off_c, 0, 65, 64
3, 9312, Note_on_c, 0, 63, 92
3, 9408, Note_off_c, 0, 63, 64
3, 9408, Note_on_c, 0, 62, 92
3, 9504, Note_off_c, 0, 62, 64
3, 9504, Note_on_c, 0, 60, 92
3, 9600, Note_off_c, 0, 60, 64
3, 9600, Note_on_c, 0, 59, 92
3, 9696, Note_off_c, 0, 59, 64
3, 9696, Note_on_c, 0, 62, 92
3, 9792, Note_off_c, 0, 62, 64
3, 9792, Note_on_c, 0, 55, 92
3, 9888, Note_off_c, 0, 55, 64
3, 9888, Note_on_c, 0, 62, 92
3, 9984, Note_off_c, 0, 62, 64
3, 9984, Note_on_c, 0, 63, 92
3, 10080, Note_off_c, 0, 63, 64
3, 10080, Note_on_c, 0, 65, 92
3, 10176, Note_off_c, 0, 65, 64
3, 10176, Note_on_c, 0, 67, 92
3, 10272, Note_off_c, 0, 67, 64
3, 10272, Note_on_c, 0, 69, 92
3, 10368, Note_off_c, 0, 69, 64
3, 10368, Note_on_c, 0, 71, 92
3, 10464, Note_off_c, 0, 71, 64
3, 10464, Note_on_c, 0, 74, 92
3, 10560, Note_off_c, 0, 74, 64
3, 10560, Note_on_c, 0, 67, 92
3, 10656, Note_off_c, 0, 67, 64
3, 10656, Note_on_c, 0, 71, 92
3, 10752, Note_off_c, 0, 71, 64
3, 10752, Note_on_c, 0, 72, 92
3, 10848, Note_off_c, 0, 72, 64
3, 10848, Note_on_c, 0, 63, 92
3, 10944, Note_off_c, 0, 63, 64
3, 10944, Note_on_c, 0, 68, 92
3, 11040, Note_off_c, 0, 68, 64
3, 11040, Note_on_c, 0, 67, 92
3, 11136, Note_off_c, 0, 67, 64
3, 11136, Note_on_c, 0, 65, 92
3, 11232, Note_off_c, 0, 65, 64
3, 11232, Note_on_c, 0, 63, 92
3, 11328, Note_off_c, 0, 63, 64
3, 11328, Note_on_c, 0, 62, 92
3, 11424, Note_off_c, 0, 62, 64
3, 11424, Note_on_c, 0, 60, 92
3, 11520, Note_off_c, 0, 60, 64
3, 11520, Note_on_c, 0, 60, 92
3, 11712, Note_off_c, 0, 60, 64
3, 14688, Note_on_c, 0, 55, 92
3, 14784, Note_off_c, 0, 55, 64
3, 14784, Note_on_c, 0, 54, 92
3, 14880, Note_off_c, 0, 54, 64
3, 14880, Note_on_c, 0, 55, 92
3, 14976, Note_off_c, 0, 55, 64
3, 14976, Note_on_c, 0, 58, 92
3, 15072, Note_off_c, 0, 58, 64
3, 15072, Note_on_c, 0, 55, 92
3, 15168, Note_off_c, 0, 55, 64
3, 15168, Note_on_c, 0, 62, 92
3, 15264, Note_off_c, 0, 62, 64
3, 15264, Note_on_c, 0, 55, 92
3, 15360, Note_off_c, 0, 55, 64
3, 15360, Note_on_c, 0, 67, 92
3, 15456, Note_off_c, 0, 67, 64
3, 15456, Note_on_c, 0, 62, 92
3, 15552, Note_off_c, 0, 62, 64
3, 15552, Note_on_c, 0, 58, 92
3, 15648, Note_off_c, 0, 58, 64
3, 15648, Note_on_c, 0, 62, 92
3, 15744, Note_off_c, 0, 62, 64
3, 15744, Note_on_c, 0, 67, 92
3, 15840, Note_off_c, 0, 67, 64
3, 15840, Note_on_c, 0, 57, 92
3, 15936, Note_off_c, 0, 57, 64
3, 15936, Note_on_c, 0, 61, 92
3, 16032, Note_off_c, 0, 61, 64
3, 16032, Note_on_c, 0, 64, 92
3, 16128, Note_off_c, 0, 64, 64
3, 16128, Note_on_c, 0, 66, 92
3, 16224, Note_off_c, 0, 66, 64
3, 16224, Note_on_c, 0, 62, 92
3, 16320, Note_off_c, 0, 62, 64
3, 16320, Note_on_c, 0, 57, 92
3, 16416, Note_off_c, 0, 57, 64
3, 16416, Note_on_c, 0, 62, 92
3, 16512, Note_off_c, 0, 62, 64
3, 16512, Note_on_c, 0, 65, 92
3, 16608, Note_off_c, 0, 65, 64
3, 16608, Note_on_c, 0, 55, 92
3, 16704, Note_off_c, 0, 55, 64
3, 16704, Note_on_c, 0, 59, 92
3, 16800, Note_off_c, 0, 59, 64
3, 16800, Note_on_c, 0, 62, 92
3, 16896, Note_off_c, 0, 62, 64
3, 16896, Note_on_c, 0, 64, 92
3, 16992, Note_off_c, 0, 64, 64
3, 16992, Note_on_c, 0, 60, 92
3, 17088, Note_off_c, 0, 60, 64
3, 17088, Note_on_c, 0, 55, 92
3, 17184, Note_off_c, 0, 55, 64
3, 17184, Note_on_c, 0, 60, 92
3, 17280, Note_off_c, 0, 60, 64
3, 17280, Note_on_c, 0, 63, 92
3, 17376, Note_off_c, 0, 63, 64
3, 17376, Note_on_c, 0, 54, 92
3, 17472, Note_off_c, 0, 54, 64
3, 17472, Note_on_c, 0, 57, 92
3, 17568, Note_off_c, 0, 57, 64
3, 17568, Note_on_c, 0, 60, 92
3, 17664, Note_off_c, 0, 60, 64
3, 17664, Note_on_c, 0, 62, 92
3, 18048, Note_off_c, 0, 62, 64
3, 18528, Note_on_c, 0, 55, 92
3, 18624, Note_off_c, 0, 55, 64
3, 18624, Note_on_c, 0, 58, 92
3, 18720, Note_off_c, 0, 58, 64
3, 18720, Note_on_c, 0, 62, 92
3, 18816, Note_off_c, 0, 62, 64
3, 18816, Note_on_c, 0, 67, 92
3, 18912, Note_off_c, 0, 67, 64
3, 18912, Note_on_c, 0, 57, 92
3, 19008, Note_off_c, 0, 57, 64
3, 19008, Note_on_c, 0, 59, 92
3, 19104, Note_off_c, 0, 59, 64
3, 19104, Note_on_c, 0, 65, 92
3, 19200, Note_off_c, 0, 65, 64
3, 19200, Note_on_c, 0, 63, 92
3, 19392, Note_off_c, 0, 63, 64
3, 19392, Note_on_c, 0, 60, 92
3, 19584, Note_off_c, 0, 60, 64
3, 20064, Note_on_c, 0, 53, 92
3, 20160, Note_off_c, 0, 53, 64
3, 20160, Note_on_c, 0, 56, 92
3, 20256, Note_off_c, 0, 56, 64
3, 20256, Note_on_c, 0, 60, 92
3, 20352, Note_off_c, 0, 60, 64
3, 20352, Note_on_c, 0, 65, 92
3, 20448, Note_off_c, 0, 65, 64
3, 20448, Note_on_c, 0, 55, 92
3, 20544, Note_off_c, 0, 55, 64
3, 20544, Note_on_c, 0, 57, 92
3, 20640, Note_off_c, 0, 57, 64
3, 20640, Note_on_c, 0, 63, 92
3, 20736, Note_off_c, 0, 63, 64
3, 20736, Note_on_c, 0, 62, 92
3, 20928, Note_off_c, 0, 62, 64
3, 20928, Note_on_c, 0, 58, 92
3, 21120, Note_off_c, 0, 58, 64
3, 21600, Note_on_c, 0, 63, 92
3, 21696, Note_off_c, 0, 63, 64
3, 21696, Note_on_c, 0, 67, 92
3, 21792, Note_off_c, 0, 67, 64
3, 21792, Note_on_c, 0, 70, 92
3, 21888, Note_off_c, 0, 70, 64
3, 21888, Note_on_c, 0, 75, 92
3, 21984, Note_off_c, 0, 75, 64
3, 21984, Note_on_c, 0, 65, 92
3, 22080, Note_off_c, 0, 65, 64
3, 22080, Note_on_c, 0, 67, 92
3, 22176, Note_off_c, 0, 67, 64
3, 22176, Note_on_c, 0, 73, 92
3, 22272, Note_off_c, 0, 73, 64
3, 22272, Note_on_c, 0, 72, 92
3, 23136, Note_off_c, 0, 72, 64
3, 23136, Note_on_c, 0, 70, 92
3, 23232, Note_off_c, 0, 70, 64
3, 23232, Note_on_c, 0, 68, 92
3, 23328, Note_off_c, 0, 68, 64
3, 23328, Note_on_c, 0, 70, 92
3, 23424, Note_off_c, 0, 70, 64
3, 23424, Note_on_c, 0, 74, 92
3, 23520, Note_off_c, 0, 74, 64
3, 23520, Note_on_c, 0, 68, 92
3, 23616, Note_off_c, 0, 68, 64
3, 23616, Note_on_c, 0, 77, 92
3, 23712, Note_off_c, 0, 77, 64
3, 23712, Note_on_c, 0, 68, 92
3, 23808, Note_off_c, 0, 68, 64
3, 23808, Note_on_c, 0, 67, 92
3, 24096, Note_off_c, 0, 67, 64
3, 24096, Note_on_c, 0, 68, 92
3, 24192, Note_off_c, 0, 68, 64
3, 24192, Note_on_c, 0, 65, 92
3, 24480, Note_off_c, 0, 65, 64
3, 24480, Note_on_c, 0, 67, 92
3, 24576, Note_off_c, 0, 67, 64
3, 24576, Note_on_c, 0, 67, 92
3, 24960, Note_off_c, 0, 67, 64
3, 24960, Note_on_c, 0, 55, 92
3, 25056, Note_off_c, 0, 55, 64
3, 25056, Note_on_c, 0, 53, 92
3, 25152, Note_off_c, 0, 53, 64
3, 25152, Note_on_c, 0, 55, 92
3, 25248, Note_off_c, 0, 55, 64
3, 25248, Note_on_c, 0, 56, 92
3, 25344, Note_off_c, 0, 56, 64
3, 25344, Note_on_c, 0, 58, 92
3, 25536, Note_off_c, 0, 58, 64
3, 25536, Note_on_c, 0, 70, 92
3, 25728, Note_off_c, 0, 70, 64
3, 25728, Note_on_c, 0, 68, 92
3, 25776, Note_off_c, 0, 68, 64
3, 25776, Note_on_c, 0, 70, 92
3, 25824, Note_off_c, 0, 70, 64
3, 25824, Note_on_c, 0, 68, 92
3, 25920, Note_off_c, 0, 68, 64
3, 25920, Note_on_c, 0, 67, 92
3, 26112, Note_off_c, 0, 67, 64
3, 26112, Note_on_c, 0, 68, 92
3, 26496, Note_off_c, 0, 68, 64
3, 26496, Note_on_c, 0, 53, 92
3, 26592, Note_off_c, 0, 53, 64
3, 26592, Note_on_c, 0, 51, 92
3, 26688, Note_off_c, 0, 51, 64
3, 26688, Note_on_c, 0, 53, 92
3, 26784, Note_off_c, 0, 53, 64
3, 26784, Note_on_c, 0, 55, 92
3, 26880, Note_off_c, 0, 55, 64
3, 26880, Note_on_c, 0, 56, 92
3, 27072, Note_off_c, 0, 56, 64
3, 27072, Note_on_c, 0, 68, 92
3, 27264, Note_off_c, 0, 68, 64
3, 27264, Note_on_c, 0, 67, 92
3, 27312, Note_off_c, 0, 67, 64
3, 27312, Note_on_c, 0, 68, 92
3, 27360, Note_off_c, 0, 68, 64
3, 27360, Note_on_c, 0, 67, 92
3, 27456, Note_off_c, 0, 67, 64
3, 27456, Note_on_c, 0, 65, 92
3, 27648, Note_off_c, 0, 65, 64
3, 27648, Note_on_c, 0, 67, 92
3, 27744, Note_off_c, 0, 67, 64
3, 27744, Note_on_c, 0, 65, 92
3, 27840, Note_off_c, 0, 65, 64
3, 27840, Note_on_c, 0, 63, 92
3, 27936, Note_off_c, 0, 63, 64
3, 27936, Note_on_c, 0, 62, 92
3, 28032, Note_off_c, 0, 62, 64
3, 28032, Note_on_c, 0, 60, 92
3, 28128, Note_off_c, 0, 60, 64
3, 28128, Note_on_c, 0, 63, 92
3, 28224, Note_off_c, 0, 63, 64
3, 28224, Note_on_c, 0, 57, 92
3, 28320, Note_off_c, 0, 57, 64
3, 28320, Note_on_c, 0, 67, 92
3, 28416, Note_off_c, 0, 67, 64
3, 28416, Note_on_c, 0, 65, 92
3, 28512, Note_off_c, 0, 65, 64
3, 28512, Note_on_c, 0, 63, 92
3, 28608, Note_off_c, 0, 63, 64
3, 28608, Note_on_c, 0, 62, 92
3, 28704, Note_off_c, 0, 62, 64
3, 28704, Note_on_c, 0, 60, 92
3, 28800, Note_off_c, 0, 60, 64
3, 28800, Note_on_c, 0, 58, 92
3, 28896, Note_off_c, 0, 58, 64
3, 28896, Note_on_c, 0, 62, 92
3, 28992, Note_off_c, 0, 62, 64
3, 28992, Note_on_c, 0, 55, 92
3, 29088, Note_off_c, 0, 55, 64
3, 29088, Note_on_c, 0, 65, 92
3, 29184, Note_off_c, 0, 65, 64
3, 29184, Note_on_c, 0, 63, 92
3, 29280, Note_off_c, 0, 63, 64
3, 29280, Note_on_c, 0, 62, 92
3, 29376, Note_off_c, 0, 62, 64
3, 29376, Note_on_c, 0, 60, 92
3, 29472, Note_off_c, 0, 60, 64
3, 29472, Note_on_c, 0, 58, 92
3, 29568, Note_off_c, 0, 58, 64
3, 29568, Note_on_c, 0, 57, 92
3, 29664, Note_off_c, 0, 57, 64
3, 29664, Note_on_c, 0, 60, 92
3, 29760, Note_off_c, 0, 60, 64
3, 29760, Note_on_c, 0, 53, 92
3, 29856, Note_off_c, 0, 53, 64
3, 29856, Note_on_c, 0, 63, 92
3, 29952, Note_off_c, 0, 63, 64
3, 29952, Note_on_c, 0, 62, 92
3, 30048, Note_off_c, 0, 62, 64
3, 30048, Note_on_c, 0, 53, 92
3, 30144, Note_off_c, 0, 53, 64
3, 30144, Note_on_c, 0, 55, 92
3, 30240, Note_off_c, 0, 55, 64
3, 30240, Note_on_c, 0, 57, 92
3, 30336, Note_off_c, 0, 57, 64
3, 30336, Note_on_c, 0, 58, 92
3, 30432, Note_off_c, 0, 58, 64
3, 30432, Note_on_c, 0, 60, 92
3, 30528, Note_off_c, 0, 60, 64
3, 30528, Note_on_c, 0, 62, 92
3, 30624, Note_off_c, 0, 62, 64
3, 30624, Note_on_c, 0, 63, 92
3, 30720, Note_off_c, 0, 63, 64
3, 30720, Note_on_c, 0, 65, 92
3, 30816, Note_off_c, 0, 65, 64
3, 30816, Note_on_c, 0, 62, 92
3, 30912, Note_off_c, 0, 62, 64
3, 30912, Note_on_c, 0, 56, 92
3, 31008, Note_off_c, 0, 56, 64
3, 31008, Note_on_c, 0, 65, 92
3, 31104, Note_off_c, 0, 65, 64
3, 31104, Note_on_c, 0, 55, 92
3, 31200, Note_off_c, 0, 55, 64
3, 31200, Note_on_c, 0, 63, 92
3, 31296, Note_off_c, 0, 63, 64
3, 31296, Note_on_c, 0, 53, 92
3, 31392, Note_off_c, 0, 53, 64
3, 31392, Note_on_c, 0, 62, 92
3, 31488, Note_off_c, 0, 62, 64
3, 31488, Note_on_c, 0, 53, 92
3, 31536, Note_off_c, 0, 53, 64
3, 31536, Note_on_c, 0, 51, 92
3, 31584, Note_off_c, 0, 51, 64
3, 31584, Note_on_c, 0, 53, 92
3, 31632, Note_off_c, 0, 53, 64
3, 31632, Note_on_c, 0, 51, 92
3, 31680, Note_off_c, 0, 51, 64
3, 31680, Note_on_c, 0, 53, 92
3, 31728, Note_off_c, 0, 53, 64
3, 31728, Note_on_c, 0, 51, 92
3, 31776, Note_off_c, 0, 51, 64
3, 31776, Note_on_c, 0, 53, 92
3, 31824, Note_off_c, 0, 53, 64
3, 31824, Note_on_c, 0, 51, 92
3, 31872, Note_off_c, 0, 51, 64
3, 31872, Note_on_c, 0, 53, 92
3, 31920, Note_off_c, 0, 53, 64
3, 31920, Note_on_c, 0, 51, 92
3, 31968, Note_off_c, 0, 51, 64
3, 31968, Note_on_c, 0, 53, 92
3, 32016, Note_off_c, 0, 53, 64
3, 32016, Note_on_c, 0, 51, 92
3, 32064, Note_off_c, 0, 51, 64
3, 32064, Note_on_c, 0, 53, 92
3, 32112, Note_off_c, 0, 53, 64
3, 32112, Note_on_c, 0, 51, 92
3, 32160, Note_off_c, 0, 51, 64
3, 32160, Note_on_c, 0, 53, 92
3, 32208, Note_off_c, 0, 53, 64
3, 32208, Note_on_c, 0, 51, 92
3, 32256, Note_off_c, 0, 51, 64
3, 32256, Note_on_c, 0, 53, 92
3, 32304, Note_off_c, 0, 53, 64
3, 32304, Note_on_c, 0, 52, 92
3, 32352, Note_off_c, 0, 52, 64
3, 32352, Note_on_c, 0, 53, 92
3, 32400, Note_off_c, 0, 53, 64
3, 32400, Note_on_c, 0, 52, 92
3, 32448, Note_off_c, 0, 52, 64
3, 32448, Note_on_c, 0, 53, 92
3, 32496, Note_off_c, 0, 53, 64
3, 32496, Note_on_c, 0, 52, 92
3, 32544, Note_off_c, 0, 52, 64
3, 32544, Note_on_c, 0, 53, 92
3, 32592, Note_off_c, 0, 53, 64
3, 32592, Note_on_c, 0, 52, 92
3, 32640, Note_off_c, 0, 52, 64
3, 32640, Note_on_c, 0, 53, 92
3, 32688, Note_off_c, 0, 53, 64
3, 32688, Note_on_c, 0, 52, 92
3, 32736, Note_off_c, 0, 52, 64
3, 32736, Note_on_c, 0, 53, 92
3, 32784, Note_off_c, 0, 53, 64
3, 32784, Note_on_c, 0, 52, 92
3, 32832, Note_off_c, 0, 52, 64
3, 32832, Note_on_c, 0, 53, 92
3, 32880, Note_off_c, 0, 53, 64
3, 32880, Note_on_c, 0, 52, 92
3, 32928, Note_off_c, 0, 52, 64
3, 32928, Note_on_c, 0, 53, 92
3, 32976, Note_off_c, 0, 53, 64
3, 32976, Note_on_c, 0, 52, 92
3, 33024, Note_off_c, 0, 52, 64
3, 33120, Note_on_c, 0, 53, 92
3, 33216, Note_off_c, 0, 53, 64
3, 33216, Note_on_c, 0, 52, 92
3, 33312, Note_off_c, 0, 52, 64
3, 33312, Note_on_c, 0, 53, 92
3, 33408, Note_off_c, 0, 53, 64
3, 33408, Note_on_c, 0, 56, 92
3, 33504, Note_off_c, 0, 56, 64
3, 33504, Note_on_c, 0, 53, 92
3, 33600, Note_off_c, 0, 53, 64
3, 33600, Note_on_c, 0, 60, 92
3, 33696, Note_off_c, 0, 60, 64
3, 33696, Note_on_c, 0, 53, 92
3, 33792, Note_off_c, 0, 53, 64
3, 33792, Note_on_c, 0, 65, 92
3, 33888, Note_off_c, 0, 65, 64
3, 33888, Note_on_c, 0, 60, 92
3, 33984, Note_off_c, 0, 60, 64
3, 33984, Note_on_c, 0, 56, 92
3, 34080, Note_off_c, 0, 56, 64
3, 34080, Note_on_c, 0, 60, 92
3, 34176, Note_off_c, 0, 60, 64
3, 34176, Note_on_c, 0, 65, 92
3, 34272, Note_off_c, 0, 65, 64
3, 34272, Note_on_c, 0, 55, 92
3, 34368, Note_off_c, 0, 55, 64
3, 34368, Note_on_c, 0, 59, 92
3, 34464, Note_off_c, 0, 59, 64
3, 34464, Note_on_c, 0, 62, 92
3, 34560, Note_off_c, 0, 62, 64
3, 34560, Note_on_c, 0, 64, 92
3, 34656, Note_off_c, 0, 64, 64
3, 34656, Note_on_c, 0, 60, 92
3, 34752, Note_off_c, 0, 60, 64
3, 34752, Note_on_c, 0, 55, 92
3, 34848, Note_off_c, 0, 55, 64
3, 34848, Note_on_c, 0, 60, 92
3, 34944, Note_off_c, 0, 60, 64
3, 34944, Note_on_c, 0, 63, 92
3, 35040, Note_off_c, 0, 63, 64
3, 35040, Note_on_c, 0, 53, 92
3, 35136, Note_off_c, 0, 53, 64
3, 35136, Note_on_c, 0, 57, 92
3, 35232, Note_off_c, 0, 57, 64
3, 35232, Note_on_c, 0, 60, 92
3, 35328, Note_off_c, 0, 60, 64
3, 35328, Note_on_c, 0, 62, 92
3, 35424, Note_off_c, 0, 62, 64
3, 35424, Note_on_c, 0, 58, 92
3, 35520, Note_off_c, 0, 58, 64
3, 35520, Note_on_c, 0, 53, 92
3, 35616, Note_off_c, 0, 53, 64
3, 35616, Note_on_c, 0, 58, 92
3, 35712, Note_off_c, 0, 58, 64
3, 35712, Note_on_c, 0, 61, 92
3, 35808, Note_off_c, 0, 61, 64
3, 35808, Note_on_c, 0, 51, 92
3, 35904, Note_off_c, 0, 51, 64
3, 35904, Note_on_c, 0, 55, 92
3, 36000, Note_off_c, 0, 55, 64
3, 36000, Note_on_c, 0, 58, 92
3, 36096, Note_off_c, 0, 58, 64
3, 36096, Note_on_c, 0, 60, 92
3, 36288, Note_off_c, 0, 60, 64
3, 36288, Note_on_c, 0, 65, 92
3, 36480, Note_off_c, 0, 65, 64
3, 36480, Note_on_c, 0, 63, 92
3, 36672, Note_off_c, 0, 63, 64
3, 36672, Note_on_c, 0, 62, 92
3, 36864, Note_off_c, 0, 62, 64
3, 36864, Note_on_c, 0, 60, 92
3, 36960, Note_off_c, 0, 60, 64
3, 36960, Note_on_c, 0, 59, 92
3, 37056, Note_off_c, 0, 59, 64
3, 37056, Note_on_c, 0, 60, 92
3, 37152, Note_off_c, 0, 60, 64
3, 37152, Note_on_c, 0, 63, 92
3, 37248, Note_off_c, 0, 63, 64
3, 37248, Note_on_c, 0, 69, 92
3, 37824, Note_off_c, 0, 69, 64
3, 37824, Note_on_c, 0, 59, 92
3, 37920, Note_off_c, 0, 59, 64
3, 37920, Note_on_c, 0, 62, 92
3, 38016, Note_off_c, 0, 62, 64
3, 38016, Note_on_c, 0, 67, 92
3, 38592, Note_off_c, 0, 67, 64
3, 38592, Note_on_c, 0, 57, 92
3, 38688, Note_off_c, 0, 57, 64
3, 38688, Note_on_c, 0, 60, 92
3, 38784, Note_off_c, 0, 60, 64
3, 38784, Note_on_c, 0, 65, 92
3, 39168, Note_off_c, 0, 65, 64
3, 39168, Note_on_c, 0, 65, 92
3, 39264, Note_off_c, 0, 65, 64
3, 39264, Note_on_c, 0, 55, 92
3, 39360, Note_off_c, 0, 55, 64
3, 39360, Note_on_c, 0, 59, 92
3, 39456, Note_off_c, 0, 59, 64
3, 39456, Note_on_c, 0, 62, 92
3, 39552, Note_off_c, 0, 62, 64
3, 39552, Note_on_c, 0, 67, 92
3, 39648, Note_off_c, 0, 67, 64
3, 39648, Note_on_c, 0, 57, 92
3, 39744, Note_off_c, 0, 57, 64
3, 39744, Note_on_c, 0, 59, 92
3, 39840, Note_off_c, 0, 59, 64
3, 39840, Note_on_c, 0, 65, 92
3, 39936, Note_off_c, 0, 65, 64
3, 39936, Note_on_c, 0, 63, 92
3, 40128, Note_off_c, 0, 63, 64
3, 40128, Note_on_c, 0, 60, 92
3, 40320, Note_off_c, 0, 60, 64
3, 40800, Note_on_c, 0, 53, 92
3, 40896, Note_off_c, 0, 53, 64
3, 40896, Note_on_c, 0, 56, 92
3, 40992, Note_off_c, 0, 56, 64
3, 40992, Note_on_c, 0, 60, 92
3, 41088, Note_off_c, 0, 60, 64
3, 41088, Note_on_c, 0, 65, 92
3, 41184, Note_off_c, 0, 65, 64
3, 41184, Note_on_c, 0, 55, 92
3, 41280, Note_off_c, 0, 55, 64
3, 41280, Note_on_c, 0, 57, 92
3, 41376, Note_off_c, 0, 57, 64
3, 41376, Note_on_c, 0, 63, 92
3, 41472, Note_off_c, 0, 63, 64
3, 41472, Note_on_c, 0, 62, 92
3, 41664, Note_off_c, 0, 62, 64
3, 41664, Note_on_c, 0, 58, 92
3, 41856, Note_off_c, 0, 58, 64
3, 42336, Note_on_c, 0, 63, 92
3, 42432, Note_off_c, 0, 63, 64
3, 42432, Note_on_c, 0, 67, 92
3, 42528, Note_off_c, 0, 67, 64
3, 42528, Note_on_c, 0, 70, 92
3, 42624, Note_off_c, 0, 70, 64
3, 42624, Note_on_c, 0, 75, 92
3, 42720, Note_off_c, 0, 75, 64
3, 42720, Note_on_c, 0, 66, 92
3, 42816, Note_off_c, 0, 66, 64
3, 42816, Note_on_c, 0, 67, 92
3, 42912, Note_off_c, 0, 67, 64
3, 42912, Note_on_c, 0, 70, 92
3, 43008, Note_off_c, 0, 70, 64
3, 43008, Note_on_c, 0, 72, 92
3, 43872, Note_off_c, 0, 72, 64
3, 43872, Note_on_c, 0, 70, 92
3, 43968, Note_off_c, 0, 70, 64
3, 43968, Note_on_c, 0, 69, 92
3, 44064, Note_off_c, 0, 69, 64
3, 44064, Note_on_c, 0, 70, 92
3, 44160, Note_off_c, 0, 70, 64
3, 44160, Note_on_c, 0, 72, 92
3, 44256, Note_off_c, 0, 72, 64
3, 44256, Note_on_c, 0, 69, 92
3, 44352, Note_off_c, 0, 69, 64
3, 44352, Note_on_c, 0, 75, 92
3, 44448, Note_off_c, 0, 75, 64
3, 44448, Note_on_c, 0, 67, 92
3, 44544, Note_off_c, 0, 67, 64
3, 44544, Note_on_c, 0, 66, 92
3, 44736, Note_off_c, 0, 66, 64
3, 44736, Note_on_c, 0, 69, 92
3, 44928, Note_off_c, 0, 69, 64
3, 44928, Note_on_c, 0, 74, 92
3, 45120, Note_off_c, 0, 74, 64
3, 45120, Note_on_c, 0, 66, 92
3, 45312, Note_off_c, 0, 66, 64
3, 45312, Note_on_c, 0, 67, 92
3, 45600, Note_off_c, 0, 67, 64
3, 45600, Note_on_c, 0, 69, 92
3, 45696, Note_off_c, 0, 69, 64
3, 45696, Note_on_c, 0, 66, 92
3, 45984, Note_off_c, 0, 66, 64
3, 45984, Note_on_c, 0, 67, 92
3, 46080, Note_off_c, 0, 67, 64
3, 46080, Note_on_c, 0, 67, 92
3, 46464, Note_off_c, 0, 67, 64
3, 46464, Note_on_c, 0, 58, 92
3, 46560, Note_off_c, 0, 58, 64
3, 46560, Note_on_c, 0, 57, 92
3, 46656, Note_off_c, 0, 57, 64
3, 46656, Note_on_c, 0, 58, 92
3, 46752, Note_off_c, 0, 58, 64
3, 46752, Note_on_c, 0, 60, 92
3, 46848, Note_off_c, 0, 60, 64
3, 46848, Note_on_c, 0, 62, 92
3, 47040, Note_off_c, 0, 62, 64
3, 47040, Note_on_c, 0, 70, 92
3, 47232, Note_off_c, 0, 70, 64
3, 47232, Note_on_c, 0, 69, 92
3, 47280, Note_off_c, 0, 69, 64
3, 47280, Note_on_c, 0, 70, 92
3, 47328, Note_off_c, 0, 70, 64
3, 47328, Note_on_c, 0, 69, 92
3, 47424, Note_off_c, 0, 69, 64
3, 47424, Note_on_c, 0, 67, 92
3, 47616, Note_off_c, 0, 67, 64
3, 47616, Note_on_c, 0, 69, 92
3, 48000, Note_off_c, 0, 69, 64
3, 48000, Note_on_c, 0, 57, 92
3, 48096, Note_off_c, 0, 57, 64
3, 48096, Note_on_c, 0, 55, 92
3, 48192, Note_off_c, 0, 55, 64
3, 48192, Note_on_c, 0, 57, 92
3, 48288, Note_off_c, 0, 57, 64
3, 48288, Note_on_c, 0, 58, 92
3, 48384, Note_off_c, 0, 58, 64
3, 48384, Note_on_c, 0, 60, 92
3, 48576, Note_off_c, 0, 60, 64
3, 48576, Note_on_c, 0, 69, 92
3, 48768, Note_off_c, 0, 69, 64
3, 48768, Note_on_c, 0, 67, 92
3, 48816, Note_off_c, 0, 67, 64
3, 48816, Note_on_c, 0, 69, 92
3, 48864, Note_off_c, 0, 69, 64
3, 48864, Note_on_c, 0, 67, 92
3, 48960, Note_off_c, 0, 67, 64
3, 48960, Note_on_c, 0, 66, 92
3, 49152, Note_off_c, 0, 66, 64
3, 49152, Note_on_c, 0, 67, 92
3, 49248, Note_off_c, 0, 67, 64
3, 49248, Note_on_c, 0, 69, 92
3, 49344, Note_off_c, 0, 69, 64
3, 49344, Note_on_c, 0, 67, 92
3, 49440, Note_off_c, 0, 67, 64
3, 49440, Note_on_c, 0, 65, 92
3, 49536, Note_off_c, 0, 65, 64
3, 49536, Note_on_c, 0, 63, 92
3, 49632, Note_off_c, 0, 63, 64
3, 49632, Note_on_c, 0, 67, 92
3, 49728, Note_off_c, 0, 67, 64
3, 49728, Note_on_c, 0, 60, 92
3, 49824, Note_off_c, 0, 60, 64
3, 49824, Note_on_c, 0, 70, 92
3, 49920, Note_off_c, 0, 70, 64
3, 49920, Note_on_c, 0, 69, 92
3, 50016, Note_off_c, 0, 69, 64
3, 50016, Note_on_c, 0, 67, 92
3, 50112, Note_off_c, 0, 67, 64
3, 50112, Note_on_c, 0, 65, 92
3, 50208, Note_off_c, 0, 65, 64
3, 50208, Note_on_c, 0, 63, 92
3, 50304, Note_off_c, 0, 63, 64
3, 50304, Note_on_c, 0, 62, 92
3, 50400, Note_off_c, 0, 62, 64
3, 50400, Note_on_c, 0, 65, 92
3, 50496, Note_off_c, 0, 65, 64
3, 50496, Note_on_c, 0, 58, 92
3, 50592, Note_off_c, 0, 58, 64
3, 50592, Note_on_c, 0, 68, 92
3, 50688, Note_off_c, 0, 68, 64
3, 50688, Note_on_c, 0, 67, 92
3, 50784, Note_off_c, 0, 67, 64
3, 50784, Note_on_c, 0, 65, 92
3, 50880, Note_off_c, 0, 65, 64
3, 50880, Note_on_c, 0, 63, 92
3, 50976, Note_off_c, 0, 63, 64
3, 50976, Note_on_c, 0, 62, 92
3, 51072, Note_off_c, 0, 62, 64
3, 51072, Note_on_c, 0, 60, 92
3, 51168, Note_off_c, 0, 60, 64
3, 51168, Note_on_c, 0, 63, 92
3, 51264, Note_off_c, 0, 63, 64
3, 51264, Note_on_c, 0, 57, 92
3, 51360, Note_off_c, 0, 57, 64
3, 51360, Note_on_c, 0, 67, 92
3, 51456, Note_off_c, 0, 67, 64
3, 51456, Note_on_c, 0, 66, 92
3, 51648, Note_off_c, 0, 66, 64
3, 51648, Note_on_c, 0, 67, 92
3, 51744, Note_off_c, 0, 67, 64
3, 51744, Note_on_c, 0, 69, 92
3, 51840, Note_off_c, 0, 69, 64
3, 51840, Note_on_c, 0, 70, 92
3, 51936, Note_off_c, 0, 70, 64
3, 51936, Note_on_c, 0, 72, 92
3, 52032, Note_off_c, 0, 72, 64
3, 52032, Note_on_c, 0, 74, 92
3, 52128, Note_off_c, 0, 74, 64
3, 52128, Note_on_c, 0, 75, 92
3, 52224, Note_off_c, 0, 75, 64
3, 52224, Note_on_c, 0, 77, 92
3, 52608, Note_off_c, 0, 77, 64
3, 52608, Note_on_c, 0, 62, 92
3, 52704, Note_off_c, 0, 62, 64
3, 52704, Note_on_c, 0, 60, 92
3, 52800, Note_off_c, 0, 60, 64
3, 52800, Note_on_c, 0, 62, 92
3, 52896, Note_off_c, 0, 62, 64
3, 52896, Note_on_c, 0, 63, 92
3, 52992, Note_off_c, 0, 63, 64
3, 52992, Note_on_c, 0, 65, 92
3, 53088, Note_off_c, 0, 65, 64
3, 53088, Note_on_c, 0, 67, 92
3, 53184, Note_off_c, 0, 67, 64
3, 53184, Note_on_c, 0, 68, 92
3, 53280, Note_off_c, 0, 68, 64
3, 53280, Note_on_c, 0, 74, 92
3, 53376, Note_off_c, 0, 74, 64
3, 53376, Note_on_c, 0, 72, 92
3, 53472, Note_off_c, 0, 72, 64
3, 53472, Note_on_c, 0, 68, 92
3, 53568, Note_off_c, 0, 68, 64
3, 53568, Note_on_c, 0, 71, 92
3, 53664, Note_off_c, 0, 71, 64
3, 53664, Note_on_c, 0, 68, 92
3, 53760, Note_off_c, 0, 68, 64
3, 53760, Note_on_c, 0, 67, 92
3, 53760, Note_on_c, 0, 72, 92
3, 54144, Note_off_c, 0, 72, 64
3, 54144, Note_off_c, 0, 67, 64
3, 54144, Note_on_c, 0, 63, 92
3, 54240, Note_off_c, 0, 63, 64
3, 54240, Note_on_c, 0, 62, 92
3, 54336, Note_off_c, 0, 62, 64
3, 54336, Note_on_c, 0, 63, 92
3, 54432, Note_off_c, 0, 63, 64
3, 54432, Note_on_c, 0, 65, 92
3, 54528, Note_off_c, 0, 65, 64
3, 54528, Note_on_c, 0, 67, 92
3, 54624, Note_off_c, 0, 67, 64
3, 54624, Note_on_c, 0, 69, 92
3, 54720, Note_off_c, 0, 69, 64
3, 54720, Note_on_c, 0, 70, 92
3, 54816, Note_off_c, 0, 70, 64
3, 54816, Note_on_c, 0, 75, 92
3, 54912, Note_off_c, 0, 75, 64
3, 54912, Note_on_c, 0, 69, 92
3, 55008, Note_off_c, 0, 69, 64
3, 55008, Note_on_c, 0, 75, 92
3, 55104, Note_off_c, 0, 75, 64
3, 55104, Note_on_c, 0, 67, 92
3, 55200, Note_off_c, 0, 67, 64
3, 55200, Note_on_c, 0, 75, 92
3, 55296, Note_off_c, 0, 75, 64
3, 55296, Note_on_c, 0, 66, 92
3, 55488, Note_off_c, 0, 66, 64
3, 55488, Note_on_c, 0, 75, 92
3, 55680, Note_off_c, 0, 75, 64
3, 55680, Note_on_c, 0, 74, 92
3, 55872, Note_off_c, 0, 74, 64
3, 55872, Note_on_c, 0, 72, 92
3, 56064, Note_off_c, 0, 72, 64
3, 56064, Note_on_c, 0, 62, 92
3, 56256, Note_off_c, 0, 62, 64
3, 56256, Note_on_c, 0, 72, 92
3, 56448, Note_off_c, 0, 72, 64
3, 56448, Note_on_c, 0, 70, 92
3, 56640, Note_off_c, 0, 70, 64
3, 56640, Note_on_c, 0, 69, 92
3, 56832, Note_off_c, 0, 69, 64
3, 56832, Note_on_c, 0, 67, 92
3, 57024, Note_off_c, 0, 67, 64
3, 57024, Note_on_c, 0, 69, 92
3, 57216, Note_off_c, 0, 69, 64
3, 57216, Note_on_c, 0, 62, 92
3, 57408, Note_off_c, 0, 62, 64
3, 57408, Note_on_c, 0, 66, 92
3, 57600, Note_off_c, 0, 66, 64
3, 57600, Note_on_c, 0, 67, 92
3, 57696, Note_off_c, 0, 67, 64
3, 57696, Note_on_c, 0, 79, 92
3, 57792, Note_off_c, 0, 79, 64
3, 57792, Note_on_c, 0, 77, 92
3, 57888, Note_off_c, 0, 77, 64
3, 57888, Note_on_c, 0, 75, 92
3, 57984, Note_off_c, 0, 75, 64
3, 57984, Note_on_c, 0, 74, 92
3, 58080, Note_off_c, 0, 74, 64
3, 58080, Note_on_c, 0, 75, 92
3, 58176, Note_off_c, 0, 75, 64
3, 58176, Note_on_c, 0, 74, 92
3, 58272, Note_off_c, 0, 74, 64
3, 58272, Note_on_c, 0, 72, 92
3, 58368, Note_off_c, 0, 72, 64
3, 58368, Note_on_c, 0, 70, 92
3, 58560, Note_off_c, 0, 70, 64
3, 58560, Note_on_c, 0, 67, 92
3, 58752, Note_off_c, 0, 67, 64
3, 58752, Note_on_c, 0, 70, 92
3, 58944, Note_off_c, 0, 70, 64
3, 58944, Note_on_c, 0, 74, 92
3, 59136, Note_off_c, 0, 74, 64
3, 59136, Note_on_c, 0, 79, 92
3, 59232, Note_off_c, 0, 79, 64
3, 59232, Note_on_c, 0, 75, 92
3, 59328, Note_off_c, 0, 75, 64
3, 59328, Note_on_c, 0, 74, 92
3, 59424, Note_off_c, 0, 74, 64
3, 59424, Note_on_c, 0, 72, 92
3, 59520, Note_off_c, 0, 72, 64
3, 59520, Note_on_c, 0, 70, 92
3, 59616, Note_off_c, 0, 70, 64
3, 59616, Note_on_c, 0, 72, 92
3, 59712, Note_off_c, 0, 72, 64
3, 59712, Note_on_c, 0, 70, 92
3, 59808, Note_off_c, 0, 70, 64
3, 59808, Note_on_c, 0, 69, 92
3, 59904, Note_off_c, 0, 69, 64
3, 59904, Note_on_c, 0, 67, 92
3, 60096, Note_off_c, 0, 67, 64
3, 60096, Note_on_c, 0, 70, 92
3, 60288, Note_off_c, 0, 70, 64
3, 60288, Note_on_c, 0, 67, 92
3, 60480, Note_off_c, 0, 67, 64
3, 60480, Note_on_c, 0, 62, 92
3, 60672, Note_off_c, 0, 62, 64
3, 60672, Note_on_c, 0, 58, 92
3, 60768, Note_off_c, 0, 58, 64
3, 60768, Note_on_c, 0, 57, 92
3, 60864, Note_off_c, 0, 57, 64
3, 60864, Note_on_c, 0, 55, 92
3, 60960, Note_off_c, 0, 55, 64
3, 60960, Note_on_c, 0, 57, 92
3, 61056, Note_off_c, 0, 57, 64
3, 61056, Note_on_c, 0, 58, 92
3, 61152, Note_off_c, 0, 58, 64
3, 61152, Note_on_c, 0, 57, 92
3, 61248, Note_off_c, 0, 57, 64
3, 61248, Note_on_c, 0, 58, 92
3, 61344, Note_off_c, 0, 58, 64
3, 61344, Note_on_c, 0, 60, 92
3, 61440, Note_off_c, 0, 60, 64
3, 61440, Note_on_c, 0, 62, 92
3, 61536, Note_off_c, 0, 62, 64
3, 61536, Note_on_c, 0, 60, 92
3, 61632, Note_off_c, 0, 60, 64
3, 61632, Note_on_c, 0, 58, 92
3, 61728, Note_off_c, 0, 58, 64
3, 61728, Note_on_c, 0, 60, 92
3, 61824, Note_off_c, 0, 60, 64
3, 61824, Note_on_c, 0, 62, 92
3, 61920, Note_off_c, 0, 62, 64
3, 61920, Note_on_c, 0, 63, 92
3, 62016, Note_off_c, 0, 63, 64
3, 62016, Note_on_c, 0, 62, 92
3, 62112, Note_off_c, 0, 62, 64
3, 62112, Note_on_c, 0, 60, 92
3, 62208, Note_off_c, 0, 60, 64
3, 62208, Note_on_c, 0, 58, 92
3, 62304, Note_off_c, 0, 58, 64
3, 62304, Note_on_c, 0, 60, 92
3, 62400, Note_off_c, 0, 60, 64
3, 62400, Note_on_c, 0, 58, 92
3, 62496, Note_off_c, 0, 58, 64
3, 62496, Note_on_c, 0, 57, 92
3, 62592, Note_off_c, 0, 57, 64
3, 62592, Note_on_c, 0, 55, 92
3, 62688, Note_off_c, 0, 55, 64
3, 62688, Note_on_c, 0, 62, 92
3, 62784, Note_off_c, 0, 62, 64
3, 62784, Note_on_c, 0, 64, 92
3, 62880, Note_off_c, 0, 64, 64
3, 62880, Note_on_c, 0, 66, 92
3, 62976, Note_off_c, 0, 66, 64
3, 62976, Note_on_c, 0, 67, 92
3, 63072, Note_off_c, 0, 67, 64
3, 63072, Note_on_c, 0, 66, 92
3, 63168, Note_off_c, 0, 66, 64
3, 63168, Note_on_c, 0, 67, 92
3, 63264, Note_off_c, 0, 67, 64
3, 63264, Note_on_c, 0, 69, 92
3, 63360, Note_off_c, 0, 69, 64
3, 63360, Note_on_c, 0, 70, 92
3, 63456, Note_off_c, 0, 70, 64
3, 63456, Note_on_c, 0, 69, 92
3, 63552, Note_off_c, 0, 69, 64
3, 63552, Note_on_c, 0, 70, 92
3, 63648, Note_off_c, 0, 70, 64
3, 63648, Note_on_c, 0, 72, 92
3, 63744, Note_off_c, 0, 72, 64
3, 63744, Note_on_c, 0, 74, 92
3, 63840, Note_off_c, 0, 74, 64
3, 63840, Note_on_c, 0, 72, 92
3, 63936, Note_off_c, 0, 72, 64
3, 63936, Note_on_c, 0, 74, 92
3, 64032, Note_off_c, 0, 74, 64
3, 64032, Note_on_c, 0, 75, 92
3, 64128, Note_off_c, 0, 75, 64
3, 64128, Note_on_c, 0, 67, 92
3, 64224, Note_off_c, 0, 67, 64
3, 64224, Note_on_c, 0, 75, 92
3, 64320, Note_off_c, 0, 75, 64
3, 64320, Note_on_c, 0, 74, 92
3, 64416, Note_off_c, 0, 74, 64
3, 64416, Note_on_c, 0, 72, 92
3, 64512, Note_off_c, 0, 72, 64
3, 64512, Note_on_c, 0, 71, 92
3, 64608, Note_off_c, 0, 71, 64
3, 64608, Note_on_c, 0, 69, 92
3, 64704, Note_off_c, 0, 69, 64
3, 64704, Note_on_c, 0, 67, 92
3, 64800, Note_off_c, 0, 67, 64
3, 64800, Note_on_c, 0, 69, 92
3, 64896, Note_off_c, 0, 69, 64
3, 64896, Note_on_c, 0, 71, 92
3, 64992, Note_off_c, 0, 71, 64
3, 64992, Note_on_c, 0, 69, 92
3, 65088, Note_off_c, 0, 69, 64
3, 65088, Note_on_c, 0, 71, 92
3, 65184, Note_off_c, 0, 71, 64
3, 65184, Note_on_c, 0, 72, 92
3, 65280, Note_off_c, 0, 72, 64
3, 65280, Note_on_c, 0, 74, 92
3, 65376, Note_off_c, 0, 74, 64
3, 65376, Note_on_c, 0, 71, 92
3, 65472, Note_off_c, 0, 71, 64
3, 65472, Note_on_c, 0, 72, 92
3, 65568, Note_off_c, 0, 72, 64
3, 65568, Note_on_c, 0, 74, 92
3, 65664, Note_off_c, 0, 74, 64
3, 65664, Note_on_c, 0, 67, 92
3, 65760, Note_off_c, 0, 67, 64
3, 65760, Note_on_c, 0, 74, 92
3, 65856, Note_off_c, 0, 74, 64
3, 65856, Note_on_c, 0, 72, 92
3, 65952, Note_off_c, 0, 72, 64
3, 65952, Note_on_c, 0, 71, 92
3, 66048, Note_off_c, 0, 71, 64
3, 66048, Note_on_c, 0, 72, 92
3, 66144, Note_off_c, 0, 72, 64
3, 66144, Note_on_c, 0, 75, 92
3, 66240, Note_off_c, 0, 75, 64
3, 66240, Note_on_c, 0, 74, 92
3, 66336, Note_off_c, 0, 74, 64
3, 66336, Note_on_c, 0, 77, 92
3, 66432, Note_off_c, 0, 77, 64
3, 66432, Note_on_c, 0, 75, 92
3, 66528, Note_off_c, 0, 75, 64
3, 66528, Note_on_c, 0, 79, 92
3, 66624, Note_off_c, 0, 79, 64
3, 66624, Note_on_c, 0, 77, 92
3, 66720, Note_off_c, 0, 77, 64
3, 66720, Note_on_c, 0, 75, 92
3, 66816, Note_off_c, 0, 75, 64
3, 66816, Note_on_c, 0, 74, 92
3, 66912, Note_off_c, 0, 74, 64
3, 66912, Note_on_c, 0, 75, 92
3, 67008, Note_off_c, 0, 75, 64
3, 67008, Note_on_c, 0, 74, 92
3, 67104, Note_off_c, 0, 74, 64
3, 67104, Note_on_c, 0, 72, 92
3, 67200, Note_off_c, 0, 72, 64
3, 67200, Note_on_c, 0, 71, 92
3, 67296, Note_off_c, 0, 71, 64
3, 67296, Note_on_c, 0, 68, 92
3, 67392, Note_off_c, 0, 68, 64
3, 67392, Note_on_c, 0, 67, 92
3, 67488, Note_off_c, 0, 67, 64
3, 67488, Note_on_c, 0, 65, 92
3, 67584, Note_off_c, 0, 65, 64
3, 67584, Note_on_c, 0, 63, 92
3, 67680, Note_off_c, 0, 63, 64
3, 67680, Note_on_c, 0, 65, 92
3, 67776, Note_off_c, 0, 65, 64
3, 67776, Note_on_c, 0, 67, 92
3, 67872, Note_off_c, 0, 67, 64
3, 67872, Note_on_c, 0, 65, 92
3, 67968, Note_off_c, 0, 65, 64
3, 67968, Note_on_c, 0, 63, 92
3, 68064, Note_off_c, 0, 63, 64
3, 68064, Note_on_c, 0, 62, 92
3, 68160, Note_off_c, 0, 62, 64
3, 68160, Note_on_c, 0, 60, 92
3, 68256, Note_off_c, 0, 60, 64
3, 68256, Note_on_c, 0, 58, 92
3, 68352, Note_off_c, 0, 58, 64
3, 68352, Note_on_c, 0, 56, 92
3, 68448, Note_off_c, 0, 56, 64
3, 68448, Note_on_c, 0, 67, 92
3, 68544, Note_off_c, 0, 67, 64
3, 68544, Note_on_c, 0, 65, 92
3, 68640, Note_off_c, 0, 65, 64
3, 68640, Note_on_c, 0, 63, 92
3, 68736, Note_off_c, 0, 63, 64
3, 68736, Note_on_c, 0, 62, 92
3, 68832, Note_off_c, 0, 62, 64
3, 68832, Note_on_c, 0, 63, 92
3, 68928, Note_off_c, 0, 63, 64
3, 68928, Note_on_c, 0, 65, 92
3, 69024, Note_off_c, 0, 65, 64
3, 69024, Note_on_c, 0, 63, 92
3, 69120, Note_off_c, 0, 63, 64
3, 69120, Note_on_c, 0, 62, 92
3, 69216, Note_off_c, 0, 62, 64
3, 69216, Note_on_c, 0, 60, 92
3, 69312, Note_off_c, 0, 60, 64
3, 69312, Note_on_c, 0, 59, 92
3, 69408, Note_off_c, 0, 59, 64
3, 69408, Note_on_c, 0, 57, 92
3, 69504, Note_off_c, 0, 57, 64
3, 69504, Note_on_c, 0, 55, 92
3, 69600, Note_off_c, 0, 55, 64
3, 69600, Note_on_c, 0, 53, 92
3, 69696, Note_off_c, 0, 53, 64
3, 69696, Note_on_c, 0, 51, 92
3, 69792, Note_off_c, 0, 51, 64
3, 69792, Note_on_c, 0, 50, 92
3, 69888, Note_off_c, 0, 50, 64
3, 69888, Note_on_c, 0, 48, 92
3, 70080, Note_off_c, 0, 48, 64
3, 70752, Note_on_c, 0, 72, 92
3, 70848, Note_off_c, 0, 72, 64
3, 70848, Note_on_c, 0, 70, 92
3, 70944, Note_off_c, 0, 70, 64
3, 70944, Note_on_c, 0, 68, 92
3, 71040, Note_off_c, 0, 68, 64
3, 71040, Note_on_c, 0, 67, 92
3, 71136, Note_off_c, 0, 67, 64
3, 71136, Note_on_c, 0, 68, 92
3, 71232, Note_off_c, 0, 68, 64
3, 71232, Note_on_c, 0, 67, 92
3, 71328, Note_off_c, 0, 67, 64
3, 71328, Note_on_c, 0, 65, 92
3, 71424, Note_off_c, 0, 65, 64
3, 71424, Note_on_c, 0, 63, 92
3, 71616, Note_off_c, 0, 63, 64
3, 71616, Note_on_c, 0, 60, 92
3, 71808, Note_off_c, 0, 60, 64
3, 71808, Note_on_c, 0, 63, 92
3, 72000, Note_off_c, 0, 63, 64
3, 72000, Note_on_c, 0, 67, 92
3, 72192, Note_off_c, 0, 67, 64
3, 72192, Note_on_c, 0, 72, 92
3, 72288, Note_off_c, 0, 72, 64
3, 72288, Note_on_c, 0, 68, 92
3, 72384, Note_off_c, 0, 68, 64
3, 72384, Note_on_c, 0, 67, 92
3, 72480, Note_off_c, 0, 67, 64
3, 72480, Note_on_c, 0, 65, 92
3, 72576, Note_off_c, 0, 65, 64
3, 72576, Note_on_c, 0, 63, 92
3, 72672, Note_off_c, 0, 63, 64
3, 72672, Note_on_c, 0, 65, 92
3, 72768, Note_off_c, 0, 65, 64
3, 72768, Note_on_c, 0, 63, 92
3, 72864, Note_off_c, 0, 63, 64
3, 72864, Note_on_c, 0, 62, 92
3, 72960, Note_off_c, 0, 62, 64
3, 72960, Note_on_c, 0, 60, 92
3, 73152, Note_off_c, 0, 60, 64
3, 73152, Note_on_c, 0, 63, 92
3, 73344, Note_off_c, 0, 63, 64
3, 73344, Note_on_c, 0, 60, 92
3, 73536, Note_off_c, 0, 60, 64
3, 73536, Note_on_c, 0, 55, 92
3, 73728, Note_off_c, 0, 55, 64
3, 73728, Note_on_c, 0, 51, 92
3, 73824, Note_off_c, 0, 51, 64
3, 73824, Note_on_c, 0, 50, 92
3, 73920, Note_off_c, 0, 50, 64
3, 73920, Note_on_c, 0, 48, 92
3, 74016, Note_off_c, 0, 48, 64
3, 74016, Note_on_c, 0, 50, 92
3, 74112, Note_off_c, 0, 50, 64
3, 74112, Note_on_c, 0, 51, 92
3, 74208, Note_off_c, 0, 51, 64
3, 74208, Note_on_c, 0, 50, 92
3, 74304, Note_off_c, 0, 50, 64
3, 74304, Note_on_c, 0, 51, 92
3, 74400, Note_off_c, 0, 51, 64
3, 74400, Note_on_c, 0, 53, 92
3, 74496, Note_off_c, 0, 53, 64
3, 74496, Note_on_c, 0, 55, 92
3, 74592, Note_off_c, 0, 55, 64
3, 74592, Note_on_c, 0, 56, 92
3, 74688, Note_off_c, 0, 56, 64
3, 74688, Note_on_c, 0, 55, 92
3, 74784, Note_off_c, 0, 55, 64
3, 74784, Note_on_c, 0, 53, 92
3, 74880, Note_off_c, 0, 53, 64
3, 74880, Note_on_c, 0, 51, 92
3, 74976, Note_off_c, 0, 51, 64
3, 74976, Note_on_c, 0, 53, 92
3, 75072, Note_off_c, 0, 53, 64
3, 75072, Note_on_c, 0, 51, 92
3, 75168, Note_off_c, 0, 51, 64
3, 75168, Note_on_c, 0, 50, 92
3, 75264, Note_off_c, 0, 50, 64
3, 75264, Note_on_c, 0, 48, 92
3, 75360, Note_off_c, 0, 48, 64
3, 75360, Note_on_c, 0, 55, 92
3, 75456, Note_off_c, 0, 55, 64
3, 75456, Note_on_c, 0, 57, 92
3, 75552, Note_off_c, 0, 57, 64
3, 75552, Note_on_c, 0, 59, 92
3, 75648, Note_off_c, 0, 59, 64
3, 75648, Note_on_c, 0, 60, 92
3, 75744, Note_off_c, 0, 60, 64
3, 75744, Note_on_c, 0, 59, 92
3, 75840, Note_off_c, 0, 59, 64
3, 75840, Note_on_c, 0, 60, 92
3, 75936, Note_off_c, 0, 60, 64
3, 75936, Note_on_c, 0, 62, 92
3, 76032, Note_off_c, 0, 62, 64
3, 76032, Note_on_c, 0, 63, 92
3, 76224, Note_off_c, 0, 63, 64
3, 76224, Note_on_c, 0, 72, 92
3, 76416, Note_off_c, 0, 72, 64
3, 76416, Note_on_c, 0, 70, 92
3, 76608, Note_off_c, 0, 70, 64
3, 76608, Note_on_c, 0, 68, 92
3, 76800, Note_off_c, 0, 68, 64
3, 76800, Note_on_c, 0, 70, 92
3, 77184, Note_off_c, 0, 70, 64
3, 77184, Note_on_c, 0, 60, 92
3, 77280, Note_off_c, 0, 60, 64
3, 77280, Note_on_c, 0, 59, 92
3, 77376, Note_off_c, 0, 59, 64
3, 77376, Note_on_c, 0, 60, 92
3, 77472, Note_off_c, 0, 60, 64
3, 77472, Note_on_c, 0, 62, 92
3, 77568, Note_off_c, 0, 62, 64
3, 77568, Note_on_c, 0, 64, 92
3, 77760, Note_off_c, 0, 64, 64
3, 77760, Note_on_c, 0, 70, 92
3, 77952, Note_off_c, 0, 70, 64
3, 77952, Note_on_c, 0, 68, 92
3, 78000, Note_off_c, 0, 68, 64
3, 78000, Note_on_c, 0, 70, 92
3, 78048, Note_off_c, 0, 70, 64
3, 78048, Note_on_c, 0, 68, 92
3, 78144, Note_off_c, 0, 68, 64
3, 78144, Note_on_c, 0, 67, 92
3, 78336, Note_off_c, 0, 67, 64
3, 78336, Note_on_c, 0, 68, 92
3, 78528, Note_off_c, 0, 68, 64
3, 78528, Note_on_c, 0, 64, 92
3, 78720, Note_off_c, 0, 64, 64
3, 78720, Note_on_c, 0, 65, 92
3, 78912, Note_off_c, 0, 65, 64
3, 78912, Note_on_c, 0, 61, 92
3, 79104, Note_off_c, 0, 61, 64
3, 79104, Note_on_c, 0, 58, 92
3, 79296, Note_off_c, 0, 58, 64
3, 79296, Note_on_c, 0, 68, 92
3, 79488, Note_off_c, 0, 68, 64
3, 79488, Note_on_c, 0, 67, 92
3, 79680, Note_off_c, 0, 67, 64
3, 79680, Note_on_c, 0, 73, 92
3, 79872, Note_off_c, 0, 73, 64
3, 79872, Note_on_c, 0, 72, 92
3, 80064, Note_off_c, 0, 72, 64
3, 80064, Note_on_c, 0, 64, 92
3, 80256, Note_off_c, 0, 64, 64
3, 80256, Note_on_c, 0, 65, 92
3, 80448, Note_off_c, 0, 65, 64
3, 80448, Note_on_c, 0, 56, 92
3, 80640, Note_off_c, 0, 56, 64
3, 80640, Note_on_c, 0, 55, 92
3, 80832, Note_off_c, 0, 55, 64
3, 80832, Note_on_c, 0, 65, 92
3, 81024, Note_off_c, 0, 65, 64
3, 81024, Note_on_c, 0, 70, 92
3, 81216, Note_off_c, 0, 70, 64
3, 81216, Note_on_c, 0, 62, 92
3, 81408, Note_off_c, 0, 62, 64
3, 81408, Note_on_c, 0, 64, 92
3, 81504, Note_off_c, 0, 64, 64
3, 81504, Note_on_c, 0, 65, 92
3, 81600, Note_off_c, 0, 65, 64
3, 81600, Note_on_c, 0, 67, 92
3, 81696, Note_off_c, 0, 67, 64
3, 81696, Note_on_c, 0, 68, 92
3, 81792, Note_off_c, 0, 68, 64
3, 81792, Note_on_c, 0, 70, 92
3, 81888, Note_off_c, 0, 70, 64
3, 81888, Note_on_c, 0, 73, 92
3, 81984, Note_off_c, 0, 73, 64
3, 81984, Note_on_c, 0, 72, 92
3, 82080, Note_off_c, 0, 72, 64
3, 82080, Note_on_c, 0, 70, 92
3, 82176, Note_off_c, 0, 70, 64
3, 82176, Note_on_c, 0, 68, 92
3, 82272, Note_off_c, 0, 68, 64
3, 82272, Note_on_c, 0, 60, 92
3, 82368, Note_off_c, 0, 60, 64
3, 82368, Note_on_c, 0, 62, 92
3, 82464, Note_off_c, 0, 62, 64
3, 82464, Note_on_c, 0, 64, 92
3, 82560, Note_off_c, 0, 64, 64
3, 82560, Note_on_c, 0, 65, 92
3, 82656, Note_off_c, 0, 65, 64
3, 82656, Note_on_c, 0, 64, 92
3, 82752, Note_off_c, 0, 64, 64
3, 82752, Note_on_c, 0, 65, 92
3, 82848, Note_off_c, 0, 65, 64
3, 82848, Note_on_c, 0, 67, 92
3, 82944, Note_off_c, 0, 67, 64
3, 82944, Note_on_c, 0, 68, 92
3, 84576, Note_off_c, 0, 68, 64
3, 84576, Note_on_c, 0, 67, 92
3, 84672, Note_off_c, 0, 67, 64
3, 84672, Note_on_c, 0, 68, 92
3, 84768, Note_off_c, 0, 68, 64
3, 84768, Note_on_c, 0, 65, 92
3, 84864, Note_off_c, 0, 65, 64
3, 84864, Note_on_c, 0, 63, 92
3, 84960, Note_off_c, 0, 63, 64
3, 84960, Note_on_c, 0, 70, 92
3, 85056, Note_off_c, 0, 70, 64
3, 85056, Note_on_c, 0, 62, 92
3, 85152, Note_off_c, 0, 62, 64
3, 85152, Note_on_c, 0, 65, 92
3, 85248, Note_off_c, 0, 65, 64
3, 85248, Note_on_c, 0, 70, 92
3, 85344, Note_off_c, 0, 70, 64
3, 85344, Note_on_c, 0, 68, 92
3, 85440, Note_off_c, 0, 68, 64
3, 85440, Note_on_c, 0, 70, 92
3, 85536, Note_off_c, 0, 70, 64
3, 85536, Note_on_c, 0, 65, 92
3, 85632, Note_off_c, 0, 65, 64
3, 85632, Note_on_c, 0, 67, 92
3, 85728, Note_off_c, 0, 67, 64
3, 85728, Note_on_c, 0, 70, 92
3, 85824, Note_off_c, 0, 70, 64
3, 85824, Note_on_c, 0, 68, 92
3, 85920, Note_off_c, 0, 68, 64
3, 85920, Note_on_c, 0, 70, 92
3, 86016, Note_off_c, 0, 70, 64
3, 86016, Note_on_c, 0, 67, 92
3, 87648, Note_off_c, 0, 67, 64
3, 87648, Note_on_c, 0, 65, 92
3, 87744, Note_off_c, 0, 65, 64
3, 87744, Note_on_c, 0, 67, 92
3, 87840, Note_off_c, 0, 67, 64
3, 87840, Note_on_c, 0, 63, 92
3, 87936, Note_off_c, 0, 63, 64
3, 87936, Note_on_c, 0, 62, 92
3, 88032, Note_off_c, 0, 62, 64
3, 88032, Note_on_c, 0, 67, 92
3, 88128, Note_off_c, 0, 67, 64
3, 88128, Note_on_c, 0, 60, 92
3, 88224, Note_off_c, 0, 60, 64
3, 88224, Note_on_c, 0, 63, 92
3, 88320, Note_off_c, 0, 63, 64
3, 88320, Note_on_c, 0, 68, 92
3, 88416, Note_off_c, 0, 68, 64
3, 88416, Note_on_c, 0, 67, 92
3, 88512, Note_off_c, 0, 67, 64
3, 88512, Note_on_c, 0, 68, 92
3, 88608, Note_off_c, 0, 68, 64
3, 88608, Note_on_c, 0, 63, 92
3, 88704, Note_off_c, 0, 63, 64
3, 88704, Note_on_c, 0, 65, 92
3, 88800, Note_off_c, 0, 65, 64
3, 88800, Note_on_c, 0, 68, 92
3, 88896, Note_off_c, 0, 68, 64
3, 88896, Note_on_c, 0, 67, 92
3, 88992, Note_off_c, 0, 67, 64
3, 88992, Note_on_c, 0, 68, 92
3, 89088, Note_off_c, 0, 68, 64
3, 89088, Note_on_c, 0, 65, 92
3, 90720, Note_off_c, 0, 65, 64
3, 90720, Note_on_c, 0, 63, 92
3, 90816, Note_off_c, 0, 63, 64
3, 90816, Note_on_c, 0, 65, 92
3, 90912, Note_off_c, 0, 65, 64
3, 90912, Note_on_c, 0, 62, 92
3, 91008, Note_off_c, 0, 62, 64
3, 91008, Note_on_c, 0, 60, 92
3, 91104, Note_off_c, 0, 60, 64
3, 91104, Note_on_c, 0, 65, 92
3, 91200, Note_off_c, 0, 65, 64
3, 91200, Note_on_c, 0, 59, 92
3, 91296, Note_off_c, 0, 59, 64
3, 91296, Note_on_c, 0, 62, 92
3, 91392, Note_off_c, 0, 62, 64
3, 91392, Note_on_c, 0, 67, 92
3, 91488, Note_off_c, 0, 67, 64
3, 91488, Note_on_c, 0, 62, 92
3, 91584, Note_off_c, 0, 62, 64
3, 91584, Note_on_c, 0, 71, 92
3, 91680, Note_off_c, 0, 71, 64
3, 91680, Note_on_c, 0, 62, 92
3, 91776, Note_off_c, 0, 62, 64
3, 91776, Note_on_c, 0, 63, 92
3, 91872, Note_off_c, 0, 63, 64
3, 91872, Note_on_c, 0, 67, 92
3, 91968, Note_off_c, 0, 67, 64
3, 91968, Note_on_c, 0, 72, 92
3, 92064, Note_off_c, 0, 72, 64
3, 92064, Note_on_c, 0, 71, 92
3, 92160, Note_off_c, 0, 71, 64
3, 92160, Note_on_c, 0, 72, 92
3, 92352, Note_off_c, 0, 72, 64
3, 92352, Note_on_c, 0, 75, 92
3, 92736, Note_off_c, 0, 75, 64
3, 92736, Note_on_c, 0, 68, 92
3, 93120, Note_off_c, 0, 68, 64
3, 93120, Note_on_c, 0, 74, 92
3, 93504, Note_off_c, 0, 74, 64
3, 93504, Note_on_c, 0, 67, 92
3, 93888, Note_off_c, 0, 67, 64
3, 93888, Note_on_c, 0, 72, 92
3, 94272, Note_off_c, 0, 72, 64
3, 94272, Note_on_c, 0, 65, 92
3, 94560, Note_off_c, 0, 65, 64
3, 94560, Note_on_c, 0, 72, 92
3, 94656, Note_off_c, 0, 72, 64
3, 94656, Note_on_c, 0, 71, 92
3, 94848, Note_off_c, 0, 71, 64
3, 95328, Note_on_c, 0, 60, 92
3, 95424, Note_off_c, 0, 60, 64
3, 95424, Note_on_c, 0, 59, 92
3, 95520, Note_off_c, 0, 59, 64
3, 95520, Note_on_c, 0, 60, 92
3, 95616, Note_off_c, 0, 60, 64
3, 95616, Note_on_c, 0, 63, 92
3, 95712, Note_off_c, 0, 63, 64
3, 95712, Note_on_c, 0, 60, 92
3, 95808, Note_off_c, 0, 60, 64
3, 95808, Note_on_c, 0, 67, 92
3, 95904, Note_off_c, 0, 67, 64
3, 95904, Note_on_c, 0, 60, 92
3, 96000, Note_off_c, 0, 60, 64
3, 96000, Note_on_c, 0, 72, 92
3, 96864, Note_off_c, 0, 72, 64
3, 96864, Note_on_c, 0, 70, 92
3, 96960, Note_off_c, 0, 70, 64
3, 96960, Note_on_c, 0, 68, 92
3, 97056, Note_off_c, 0, 68, 64
3, 97056, Note_on_c, 0, 67, 92
3, 97152, Note_off_c, 0, 67, 64
3, 97152, Note_on_c, 0, 65, 92
3, 97248, Note_off_c, 0, 65, 64
3, 97248, Note_on_c, 0, 68, 92
3, 97344, Note_off_c, 0, 68, 64
3, 97344, Note_on_c, 0, 63, 92
3, 97440, Note_off_c, 0, 63, 64
3, 97440, Note_on_c, 0, 68, 92
3, 97536, Note_off_c, 0, 68, 64
3, 97536, Note_on_c, 0, 62, 92
3, 98400, Note_off_c, 0, 62, 64
3, 98400, Note_on_c, 0, 60, 92
3, 98496, Note_off_c, 0, 60, 64
3, 98496, Note_on_c, 0, 59, 92
3, 98592, Note_off_c, 0, 59, 64
3, 98592, Note_on_c, 0, 57, 92
3, 98688, Note_off_c, 0, 57, 64
3, 98688, Note_on_c, 0, 55, 92
3, 98784, Note_off_c, 0, 55, 64
3, 98784, Note_on_c, 0, 62, 92
3, 98880, Note_off_c, 0, 62, 64
3, 98880, Note_on_c, 0, 53, 92
3, 98976, Note_off_c, 0, 53, 64
3, 98976, Note_on_c, 0, 62, 92
3, 99072, Note_off_c, 0, 62, 64
3, 99072, Note_on_c, 0, 51, 92
3, 99168, Note_off_c, 0, 51, 64
3, 99168, Note_on_c, 0, 53, 92
3, 99264, Note_off_c, 0, 53, 64
3, 99264, Note_on_c, 0, 51, 92
3, 99360, Note_off_c, 0, 51, 64
3, 99360, Note_on_c, 0, 50, 92
3, 99456, Note_off_c, 0, 50, 64
3, 99456, Note_on_c, 0, 48, 92
3, 99648, Note_off_c, 0, 48, 64
3, 99936, Note_on_c, 0, 60, 92
3, 100032, Note_off_c, 0, 60, 64
3, 100032, Note_on_c, 0, 62, 92
3, 100128, Note_off_c, 0, 62, 64
3, 100128, Note_on_c, 0, 64, 92
3, 100224, Note_off_c, 0, 64, 64
3, 100224, Note_on_c, 0, 65, 92
3, 100320, Note_off_c, 0, 65, 64
3, 100320, Note_on_c, 0, 64, 92
3, 100416, Note_off_c, 0, 64, 64
3, 100416, Note_on_c, 0, 65, 92
3, 100512, Note_off_c, 0, 65, 64
3, 100512, Note_on_c, 0, 67, 92
3, 100608, Note_off_c, 0, 67, 64
3, 100608, Note_on_c, 0, 70, 92
3, 100656, Note_off_c, 0, 70, 64
3, 100656, Note_on_c, 0, 68, 92
3, 100704, Note_off_c, 0, 68, 64
3, 100704, Note_on_c, 0, 70, 92
3, 100752, Note_off_c, 0, 70, 64
3, 100752, Note_on_c, 0, 68, 92
3, 100800, Note_off_c, 0, 68, 64
3, 100800, Note_on_c, 0, 70, 92
3, 100848, Note_off_c, 0, 70, 64
3, 100848, Note_on_c, 0, 68, 92
3, 100896, Note_off_c, 0, 68, 64
3, 100896, Note_on_c, 0, 70, 92
3, 100944, Note_off_c, 0, 70, 64
3, 100944, Note_on_c, 0, 68, 92
3, 100992, Note_off_c, 0, 68, 64
3, 100992, Note_on_c, 0, 70, 92
3, 101040, Note_off_c, 0, 70, 64
3, 101040, Note_on_c, 0, 68, 92
3, 101088, Note_off_c, 0, 68, 64
3, 101088, Note_on_c, 0, 70, 92
3, 101136, Note_off_c, 0, 70, 64
3, 101136, Note_on_c, 0, 68, 92
3, 101184, Note_off_c, 0, 68, 64
3, 101184, Note_on_c, 0, 70, 92
3, 101232, Note_off_c, 0, 70, 64
3, 101232, Note_on_c, 0, 68, 92
3, 101280, Note_off_c, 0, 68, 64
3, 101280, Note_on_c, 0, 70, 92
3, 101328, Note_off_c, 0, 70, 64
3, 101328, Note_on_c, 0, 68, 92
3, 101376, Note_off_c, 0, 68, 64
3, 101376, Note_on_c, 0, 70, 92
3, 101424, Note_off_c, 0, 70, 64
3, 101424, Note_on_c, 0, 69, 92
3, 101472, Note_off_c, 0, 69, 64
3, 101472, Note_on_c, 0, 70, 92
3, 101520, Note_off_c, 0, 70, 64
3, 101520, Note_on_c, 0, 69, 92
3, 101568, Note_off_c, 0, 69, 64
3, 101568, Note_on_c, 0, 70, 92
3, 101616, Note_off_c, 0, 70, 64
3, 101616, Note_on_c, 0, 69, 92
3, 101664, Note_off_c, 0, 69, 64
3, 101664, Note_on_c, 0, 70, 92
3, 101712, Note_off_c, 0, 70, 64
3, 101712, Note_on_c, 0, 69, 92
3, 101760, Note_off_c, 0, 69, 64
3, 101760, Note_on_c, 0, 70, 92
3, 101808, Note_off_c, 0, 70, 64
3, 101808, Note_on_c, 0, 69, 92
3, 101856, Note_off_c, 0, 69, 64
3, 101856, Note_on_c, 0, 70, 92
3, 101904, Note_off_c, 0, 70, 64
3, 101904, Note_on_c, 0, 69, 92
3, 101952, Note_off_c, 0, 69, 64
3, 101952, Note_on_c, 0, 70, 92
3, 102000, Note_off_c, 0, 70, 64
3, 102000, Note_on_c, 0, 69, 92
3, 102048, Note_off_c, 0, 69, 64
3, 102048, Note_on_c, 0, 70, 92
3, 102096, Note_off_c, 0, 70, 64
3, 102096, Note_on_c, 0, 69, 92
3, 102144, Note_off_c, 0, 69, 64
3, 102144, Note_on_c, 0, 72, 92
3, 102192, Note_off_c, 0, 72, 64
3, 102192, Note_on_c, 0, 70, 92
3, 102240, Note_off_c, 0, 70, 64
3, 102240, Note_on_c, 0, 72, 92
3, 102288, Note_off_c, 0, 72, 64
3, 102288, Note_on_c, 0, 70, 92
3, 102336, Note_off_c, 0, 70, 64
3, 102336, Note_on_c, 0, 72, 92
3, 102384, Note_off_c, 0, 72, 64
3, 102384, Note_on_c, 0, 70, 92
3, 102432, Note_off_c, 0, 70, 64
3, 102432, Note_on_c, 0, 72, 92
3, 102480, Note_off_c, 0, 72, 64
3, 102480, Note_on_c, 0, 70, 92
3, 102528, Note_off_c, 0, 70, 64
3, 102528, Note_on_c, 0, 72, 92
3, 102576, Note_off_c, 0, 72, 64
3, 102576, Note_on_c, 0, 70, 92
3, 102624, Note_off_c, 0, 70, 64
3, 102624, Note_on_c, 0, 72, 92
3, 102672, Note_off_c, 0, 72, 64
3, 102672, Note_on_c, 0, 70, 92
3, 102720, Note_off_c, 0, 70, 64
3, 102720, Note_on_c, 0, 72, 92
3, 102768, Note_off_c, 0, 72, 64
3, 102768, Note_on_c, 0, 70, 92
3, 102816, Note_off_c, 0, 70, 64
3, 102816, Note_on_c, 0, 72, 92
3, 102864, Note_off_c, 0, 72, 64
3, 102864, Note_on_c, 0, 70, 92
3, 102912, Note_off_c, 0, 70, 64
3, 102912, Note_on_c, 0, 72, 92
3, 102960, Note_off_c, 0, 72, 64
3, 102960, Note_on_c, 0, 71, 92
3, 103008, Note_off_c, 0, 71, 64
3, 103008, Note_on_c, 0, 72, 92
3, 103056, Note_off_c, 0, 72, 64
3, 103056, Note_on_c, 0, 71, 92
3, 103104, Note_off_c, 0, 71, 64
3, 103104, Note_on_c, 0, 72, 92
3, 103152, Note_off_c, 0, 72, 64
3, 103152, Note_on_c, 0, 71, 92
3, 103200, Note_off_c, 0, 71, 64
3, 103200, Note_on_c, 0, 72, 92
3, 103248, Note_off_c, 0, 72, 64
3, 103248, Note_on_c, 0, 71, 92
3, 103296, Note_off_c, 0, 71, 64
3, 103296, Note_on_c, 0, 72, 92
3, 103344, Note_off_c, 0, 72, 64
3, 103344, Note_on_c, 0, 71, 92
3, 103392, Note_off_c, 0, 71, 64
3, 103392, Note_on_c, 0, 72, 92
3, 103440, Note_off_c, 0, 72, 64
3, 103440, Note_on_c, 0, 71, 92
3, 103488, Note_off_c, 0, 71, 64
3, 103488, Note_on_c, 0, 72, 92
3, 103536, Note_off_c, 0, 72, 64
3, 103536, Note_on_c, 0, 71, 92
3, 103584, Note_off_c, 0, 71, 64
3, 103584, Note_on_c, 0, 72, 92
3, 103632, Note_off_c, 0, 72, 64
3, 103632, Note_on_c, 0, 71, 92
3, 103680, Note_off_c, 0, 71, 64
3, 103680, Note_on_c, 0, 72, 92
3, 103776, Note_off_c, 0, 72, 64
3, 103776, Note_on_c, 0, 59, 92
3, 103872, Note_off_c, 0, 59, 64
3, 103872, Note_on_c, 0, 60, 92
3, 103968, Note_off_c, 0, 60, 64
3, 103968, Note_on_c, 0, 62, 92
3, 104064, Note_off_c, 0, 62, 64
3, 104064, Note_on_c, 0, 63, 92
3, 104160, Note_off_c, 0, 63, 64
3, 104160, Note_on_c, 0, 65, 92
3, 104256, Note_off_c, 0, 65, 64
3, 104256, Note_on_c, 0, 67, 92
3, 104352, Note_off_c, 0, 67, 64
3, 104352, Note_on_c, 0, 68, 92
3, 104448, Note_off_c, 0, 68, 64
3, 104448, Note_on_c, 0, 70, 92
3, 104544, Note_off_c, 0, 70, 64
3, 104544, Note_on_c, 0, 67, 92
3, 104640, Note_off_c, 0, 67, 64
3, 104640, Note_on_c, 0, 61, 92
3, 104736, Note_off_c, 0, 61, 64
3, 104736, Note_on_c, 0, 70, 92
3, 104832, Note_off_c, 0, 70, 64
3, 104832, Note_on_c, 0, 60, 92
3, 104928, Note_off_c, 0, 60, 64
3, 104928, Note_on_c, 0, 68, 92
3, 105024, Note_off_c, 0, 68, 64
3, 105024, Note_on_c, 0, 58, 92
3, 105120, Note_off_c, 0, 58, 64
3, 105120, Note_on_c, 0, 67, 92
3, 105216, Note_off_c, 0, 67, 64
3, 105216, Note_on_c, 0, 56, 92
3, 105312, Note_off_c, 0, 56, 64
3, 105312, Note_on_c, 0, 60, 92
3, 105408, Note_off_c, 0, 60, 64
3, 105408, Note_on_c, 0, 62, 92
3, 105504, Note_off_c, 0, 62, 64
3, 105504, Note_on_c, 0, 64, 92
3, 105600, Note_off_c, 0, 64, 64
3, 105600, Note_on_c, 0, 65, 92
3, 105696, Note_off_c, 0, 65, 64
3, 105696, Note_on_c, 0, 67, 92
3, 105792, Note_off_c, 0, 67, 64
3, 105792, Note_on_c, 0, 69, 92
3, 105888, Note_off_c, 0, 69, 64
3, 105888, Note_on_c, 0, 70, 92
3, 105984, Note_off_c, 0, 70, 64
3, 105984, Note_on_c, 0, 72, 92
3, 106080, Note_off_c, 0, 72, 64
3, 106080, Note_on_c, 0, 69, 92
3, 106176, Note_off_c, 0, 69, 64
3, 106176, Note_on_c, 0, 63, 92
3, 106272, Note_off_c, 0, 63, 64
3, 106272, Note_on_c, 0, 72, 92
3, 106368, Note_off_c, 0, 72, 64
3, 106368, Note_on_c, 0, 62, 92
3, 106464, Note_off_c, 0, 62, 64
3, 106464, Note_on_c, 0, 66, 92
3, 106560, Note_off_c, 0, 66, 64
3, 106560, Note_on_c, 0, 69, 92
3, 106656, Note_off_c, 0, 69, 64
3, 106656, Note_on_c, 0, 72, 92
3, 106752, Note_off_c, 0, 72, 64
3, 106752, Note_on_c, 0, 71, 92
3, 106800, Note_off_c, 0, 71, 64
3, 106800, Note_on_c, 0, 72, 92
3, 106848, Note_off_c, 0, 72, 64
3, 106848, Note_on_c, 0, 71, 92
3, 107136, Note_off_c, 0, 71, 64
3, 107520, Note_on_c, 0, 75, 92
3, 107904, Note_off_c, 0, 75, 64
3, 107904, Note_on_c, 0, 60, 92
3, 108000, Note_off_c, 0, 60, 64
3, 108000, Note_on_c, 0, 59, 92
3, 108096, Note_off_c, 0, 59, 64
3, 108096, Note_on_c, 0, 60, 92
3, 108192, Note_off_c, 0, 60, 64
3, 108192, Note_on_c, 0, 62, 92
3, 108288, Note_off_c, 0, 62, 64
3, 108288, Note_on_c, 0, 63, 92
3, 108480, Note_off_c, 0, 63, 64
3, 108480, Note_on_c, 0, 75, 92
3, 108672, Note_off_c, 0, 75, 64
3, 108672, Note_on_c, 0, 74, 92
3, 108720, Note_off_c, 0, 74, 64
3, 108720, Note_on_c, 0, 75, 92
3, 108768, Note_off_c, 0, 75, 64
3, 108768, Note_on_c, 0, 74, 92
3, 108864, Note_off_c, 0, 74, 64
3, 108864, Note_on_c, 0, 72, 92
3, 109056, Note_off_c, 0, 72, 64
3, 109056, Note_on_c, 0, 74, 92
3, 109440, Note_off_c, 0, 74, 64
3, 109440, Note_on_c, 0, 59, 92
3, 109536, Note_off_c, 0, 59, 64
3, 109536, Note_on_c, 0, 57, 92
3, 109632, Note_off_c, 0, 57, 64
3, 109632, Note_on_c, 0, 59, 92
3, 109728, Note_off_c, 0, 59, 64
3, 109728, Note_on_c, 0, 60, 92
3, 109824, Note_off_c, 0, 60, 64
3, 109824, Note_on_c, 0, 62, 92
3, 110016, Note_off_c, 0, 62, 64
3, 110016, Note_on_c, 0, 74, 92
3, 110208, Note_off_c, 0, 74, 64
3, 110208, Note_on_c, 0, 72, 92
3, 110256, Note_off_c, 0, 72, 64
3, 110256, Note_on_c, 0, 74, 92
3, 110304, Note_off_c, 0, 74, 64
3, 110304, Note_on_c, 0, 72, 92
3, 110400, Note_off_c, 0, 72, 64
3, 110400, Note_on_c, 0, 71, 92
3, 110592, Note_off_c, 0, 71, 64
3, 110592, Note_on_c, 0, 72, 92
3, 110784, Note_off_c, 0, 72, 64
3, 110784, Note_on_c, 0, 75, 92
3, 111168, Note_off_c, 0, 75, 64
3, 111168, Note_on_c, 0, 68, 92
3, 111552, Note_off_c, 0, 68, 64
3, 111552, Note_on_c, 0, 74, 92
3, 111936, Note_off_c, 0, 74, 64
3, 111936, Note_on_c, 0, 67, 92
3, 112320, Note_off_c, 0, 67, 64
3, 112320, Note_on_c, 0, 72, 92
3, 112704, Note_off_c, 0, 72, 64
3, 112704, Note_on_c, 0, 65, 92
3, 112992, Note_off_c, 0, 65, 64
3, 112992, Note_on_c, 0, 62, 92
3, 113088, Note_off_c, 0, 62, 64
3, 113088, Note_on_c, 0, 63, 92
3, 113184, Note_off_c, 0, 63, 64
3, 113184, Note_on_c, 0, 65, 92
3, 113280, Note_off_c, 0, 65, 64
3, 113280, Note_on_c, 0, 67, 92
3, 113376, Note_off_c, 0, 67, 64
3, 113376, Note_on_c, 0, 68, 92
3, 113472, Note_off_c, 0, 68, 64
3, 113472, Note_on_c, 0, 70, 92
3, 113568, Note_off_c, 0, 70, 64
3, 113568, Note_on_c, 0, 72, 92
3, 113664, Note_off_c, 0, 72, 64
3, 113664, Note_on_c, 0, 73, 92
3, 114048, Note_off_c, 0, 73, 64
3, 114048, Note_on_c, 0, 64, 92
3, 114144, Note_off_c, 0, 64, 64
3, 114144, Note_on_c, 0, 62, 92
3, 114240, Note_off_c, 0, 62, 64
3, 114240, Note_on_c, 0, 64, 92
3, 114336, Note_off_c, 0, 64, 64
3, 114336, Note_on_c, 0, 65, 92
3, 114432, Note_off_c, 0, 65, 64
3, 114432, Note_on_c, 0, 67, 92
3, 114624, Note_off_c, 0, 67, 64
3, 114624, Note_on_c, 0, 79, 92
3, 114816, Note_off_c, 0, 79, 64
3, 114816, Note_on_c, 0, 77, 92
3, 114864, Note_off_c, 0, 77, 64
3, 114864, Note_on_c, 0, 79, 92
3, 114912, Note_off_c, 0, 79, 64
3, 114912, Note_on_c, 0, 77, 92
3, 115008, Note_off_c, 0, 77, 64
3, 115008, Note_on_c, 0, 76, 92
3, 115200, Note_off_c, 0, 76, 64
3, 115200, Note_on_c, 0, 77, 92
3, 115584, Note_off_c, 0, 77, 64
3, 115584, Note_on_c, 0, 65, 92
3, 115680, Note_off_c, 0, 65, 64
3, 115680, Note_on_c, 0, 64, 92
3, 115776, Note_off_c, 0, 64, 64
3, 115776, Note_on_c, 0, 65, 92
3, 115872, Note_off_c, 0, 65, 64
3, 115872, Note_on_c, 0, 67, 92
3, 115968, Note_off_c, 0, 67, 64
3, 115968, Note_on_c, 0, 68, 92
3, 116160, Note_off_c, 0, 68, 64
3, 116160, Note_on_c, 0, 67, 92
3, 116352, Note_off_c, 0, 67, 64
3, 116352, Note_on_c, 0, 65, 92
3, 116544, Note_off_c, 0, 65, 64
3, 116544, Note_on_c, 0, 63, 92
3, 116736, Note_off_c, 0, 63, 64
3, 116736, Note_on_c, 0, 65, 92
3, 116832, Note_off_c, 0, 65, 64
3, 116832, Note_on_c, 0, 63, 92
3, 116928, Note_off_c, 0, 63, 64
3, 116928, Note_on_c, 0, 62, 92
3, 117024, Note_off_c, 0, 62, 64
3, 117024, Note_on_c, 0, 60, 92
3, 117120, Note_off_c, 0, 60, 64
3, 117120, Note_on_c, 0, 59, 92
3, 117216, Note_off_c, 0, 59, 64
3, 117216, Note_on_c, 0, 62, 92
3, 117312, Note_off_c, 0, 62, 64
3, 117312, Note_on_c, 0, 55, 92
3, 117408, Note_off_c, 0, 55, 64
3, 117408, Note_on_c, 0, 62, 92
3, 117504, Note_off_c, 0, 62, 64
3, 117504, Note_on_c, 0, 63, 92
3, 117600, Note_off_c, 0, 63, 64
3, 117600, Note_on_c, 0, 65, 92
3, 117696, Note_off_c, 0, 65, 64
3, 117696, Note_on_c, 0, 67, 92
3, 117792, Note_off_c, 0, 67, 64
3, 117792, Note_on_c, 0, 69, 92
3, 117888, Note_off_c, 0, 69, 64
3, 117888, Note_on_c, 0, 71, 92
3, 117984, Note_off_c, 0, 71, 64
3, 117984, Note_on_c, 0, 74, 92
3, 118080, Note_off_c, 0, 74, 64
3, 118080, Note_on_c, 0, 67, 92
3, 118176, Note_off_c, 0, 67, 64
3, 118176, Note_on_c, 0, 71, 92
3, 118272, Note_off_c, 0, 71, 64
3, 118272, Note_on_c, 0, 72, 92
3, 118368, Note_off_c, 0, 72, 64
3, 118368, Note_on_c, 0, 63, 92
3, 118464, Note_off_c, 0, 63, 64
3, 118464, Note_on_c, 0, 68, 92
3, 118560, Note_off_c, 0, 68, 64
3, 118560, Note_on_c, 0, 67, 92
3, 118656, Note_off_c, 0, 67, 64
3, 118656, Note_on_c, 0, 65, 92
3, 118752, Note_off_c, 0, 65, 64
3, 118752, Note_on_c, 0, 63, 92
3, 118848, Note_off_c, 0, 63, 64
3, 118848, Note_on_c, 0, 62, 92
3, 118944, Note_off_c, 0, 62, 64
3, 118944, Note_on_c, 0, 60, 92
3, 119040, Note_off_c, 0, 60, 64
3, 119040, Note_on_c, 0, 60, 92
3, 119808, Note_off_c, 0, 60, 64
3, 121346, Note_on_c, 0, 67, 92
3, 121442, Note_on_c, 0, 70, 92
3, 121444, Note_off_c, 0, 67, 64
3, 121538, Note_on_c, 0, 75, 92
3, 121540, Note_off_c, 0, 70, 64
3, 121634, Note_on_c, 0, 74, 92
3, 121636, Note_off_c, 0, 75, 64
3, 121730, Note_on_c, 0, 75, 92
3, 121732, Note_off_c, 0, 74, 64
3, 121826, Note_on_c, 0, 70, 92
3, 121828, Note_off_c, 0, 75, 64
3, 121922, Note_on_c, 0, 70, 92
3, 121924, Note_off_c, 0, 70, 64
3, 122018, Note_on_c, 0, 68, 92
3, 122020, Note_off_c, 0, 70, 64
3, 122114, Note_on_c, 0, 68, 92
3, 122116, Note_off_c, 0, 68, 64
3, 122210, Note_on_c, 0, 67, 92
3, 122212, Note_off_c, 0, 68, 64
3, 122306, Note_on_c, 0, 67, 92
3, 122308, Note_off_c, 0, 67, 64
3, 122402, Note_on_c, 0, 65, 92
3, 122404, Note_off_c, 0, 67, 64
3, 122498, Note_on_c, 0, 65, 92
3, 122500, Note_off_c, 0, 65, 64
3, 122594, Note_on_c, 0, 68, 92
3, 122596, Note_off_c, 0, 65, 64
3, 122690, Note_on_c, 0, 74, 92
3, 122692, Note_off_c, 0, 68, 64
3, 122786, Note_on_c, 0, 72, 92
3, 122788, Note_off_c, 0, 74, 64
3, 122882, Note_on_c, 0, 74, 92
3, 122884, Note_off_c, 0, 72, 64
3, 122978, Note_on_c, 0, 68, 92
3, 122980, Note_off_c, 0, 74, 64
3, 123074, Note_on_c, 0, 68, 92
3, 123076, Note_off_c, 0, 68, 64
3, 123170, Note_on_c, 0, 67, 92
3, 123172, Note_off_c, 0, 68, 64
3, 123266, Note_on_c, 0, 67, 92
3, 123268, Note_off_c, 0, 67, 64
3, 123362, Note_on_c, 0, 65, 92
3, 123364, Note_off_c, 0, 67, 64
3, 123458, Note_on_c, 0, 65, 92
3, 123460, Note_off_c, 0, 65, 64
3, 123554, Note_on_c, 0, 63, 92
3, 123556, Note_off_c, 0, 65, 64
3, 123650, Note_on_c, 0, 63, 92
3, 123652, Note_off_c, 0, 63, 64
3, 123746, Note_on_c, 0, 67, 92
3, 123748, Note_off_c, 0, 63, 64
3, 123842, Note_on_c, 0, 72, 92
3, 123844, Note_off_c, 0, 67, 64
3, 123938, Note_on_c, 0, 70, 92
3, 123940, Note_off_c, 0, 72, 64
3, 124034, Note_on_c, 0, 72, 92
3, 124036, Note_off_c, 0, 70, 64
3, 124130, Note_on_c, 0, 67, 92
3, 124132, Note_off_c, 0, 72, 64
3, 124226, Note_on_c, 0, 67, 92
3, 124228, Note_off_c, 0, 67, 64
3, 124322, Note_on_c, 0, 65, 92
3, 124324, Note_off_c, 0, 67, 64
3, 124418, Note_on_c, 0, 65, 92
3, 124420, Note_off_c, 0, 65, 64
3, 124514, Note_on_c, 0, 63, 92
3, 124516, Note_off_c, 0, 65, 64
3, 124610, Note_on_c, 0, 63, 92
3, 124612, Note_off_c, 0, 63, 64
3, 124706, Note_on_c, 0, 62, 92
3, 124708, Note_off_c, 0, 63, 64
3, 124802, Note_on_c, 0, 62, 92
3, 124804, Note_off_c, 0, 62, 64
3, 124898, Note_on_c, 0, 65, 92
3, 124900, Note_off_c, 0, 62, 64
3, 124994, Note_on_c, 0, 70, 92
3, 124996, Note_off_c, 0, 65, 64
3, 125090, Note_on_c, 0, 68, 92
3, 125092, Note_off_c, 0, 70, 64
3, 125186, Note_on_c, 0, 70, 92
3, 125188, Note_off_c, 0, 68, 64
3, 125282, Note_on_c, 0, 65, 92
3, 125284, Note_off_c, 0, 70, 64
3, 125378, Note_on_c, 0, 65, 92
3, 125380, Note_off_c, 0, 65, 64
3, 125474, Note_on_c, 0, 63, 92
3, 125476, Note_off_c, 0, 65, 64
3, 125570, Note_on_c, 0, 63, 92
3, 125572, Note_off_c, 0, 63, 64
3, 125666, Note_on_c, 0, 61, 92
3, 125668, Note_off_c, 0, 63, 64
3, 125762, Note_on_c, 0, 61, 92
3, 125764, Note_off_c, 0, 61, 64
3, 125858, Note_on_c, 0, 60, 92
3, 125860, Note_off_c, 0, 61, 64
3, 125954, Note_on_c, 0, 60, 92
3, 125956, Note_off_c, 0, 60, 64
3, 126146, Note_on_c, 0, 72, 92
3, 126148, Note_off_c, 0, 60, 64
3, 126530, Note_on_c, 0, 77, 92
3, 126532, Note_off_c, 0, 72, 64
3, 126818, Note_on_c, 0, 80, 92
3, 126820, Note_off_c, 0, 77, 64
3, 126914, Note_on_c, 0, 79, 92
3, 126916, Note_off_c, 0, 80, 64
3, 127010, Note_on_c, 0, 77, 92
3, 127012, Note_off_c, 0, 79, 64
3, 127106, Note_on_c, 0, 75, 92
3, 127108, Note_off_c, 0, 77, 64
3, 127202, Note_on_c, 0, 74, 92
3, 127204, Note_off_c, 0, 75, 64
3, 127298, Note_on_c, 0, 72, 92
3, 127300, Note_off_c, 0, 74, 64
3, 127394, Note_on_c, 0, 70, 92
3, 127396, Note_off_c, 0, 72, 64
3, 127490, Note_on_c, 0, 72, 92
3, 127492, Note_off_c, 0, 70, 64
3, 127586, Note_on_c, 0, 75, 92
3, 127588, Note_off_c, 0, 72, 64
3, 127682, Note_on_c, 0, 74, 92
3, 127684, Note_off_c, 0, 75, 64
3, 127778, Note_on_c, 0, 77, 92
3, 127780, Note_off_c, 0, 74, 64
3, 127874, Note_on_c, 0, 75, 92
3, 127876, Note_off_c, 0, 77, 64
3, 128354, Note_on_c, 0, 74, 92
3, 128356, Note_off_c, 0, 75, 64
3, 128450, Note_on_c, 0, 77, 92
3, 128452, Note_off_c, 0, 74, 64
3, 128546, Note_on_c, 0, 75, 92
3, 128548, Note_off_c, 0, 77, 64
3, 128642, Note_on_c, 0, 74, 92
3, 128644, Note_off_c, 0, 75, 64
3, 128738, Note_on_c, 0, 72, 92
3, 128740, Note_off_c, 0, 74, 64
3, 128834, Note_on_c, 0, 70, 92
3, 128836, Note_off_c, 0, 72, 64
3, 128930, Note_on_c, 0, 68, 92
3, 128932, Note_off_c, 0, 70, 64
3, 129026, Note_on_c, 0, 77, 92
3, 129028, Note_off_c, 0, 68, 64
3, 129218, Note_on_c, 0, 68, 92
3, 129220, Note_off_c, 0, 77, 64
3, 129410, Note_on_c, 0, 67, 92
3, 129412, Note_off_c, 0, 68, 64
3, 129506, Note_on_c, 0, 65, 92
3, 129508, Note_off_c, 0, 67, 64
3, 129602, Note_on_c, 0, 63, 92
3, 129604, Note_off_c, 0, 65, 64
3, 129698, Note_on_c, 0, 65, 92
3, 129700, Note_off_c, 0, 63, 64
3, 129794, Note_on_c, 0, 67, 92
3, 129796, Note_off_c, 0, 65, 64
3, 129890, Note_on_c, 0, 69, 92
3, 129892, Note_off_c, 0, 67, 64
3, 129986, Note_on_c, 0, 70, 92
3, 129988, Note_off_c, 0, 69, 64
3, 130082, Note_on_c, 0, 72, 92
3, 130084, Note_off_c, 0, 70, 64
3, 130178, Note_on_c, 0, 70, 92
3, 130180, Note_off_c, 0, 72, 64
3, 130274, Note_on_c, 0, 69, 92
3, 130276, Note_off_c, 0, 70, 64
3, 130370, Note_on_c, 0, 67, 92
3, 130372, Note_off_c, 0, 69, 64
3, 130466, Note_on_c, 0, 69, 92
3, 130468, Note_off_c, 0, 67, 64
3, 130562, Note_on_c, 0, 70, 92
3, 130564, Note_off_c, 0, 69, 64
3, 130946, Note_on_c, 0, 65, 92
3, 130948, Note_off_c, 0, 70, 64
3, 133250, Note_on_c, 0, 63, 92
3, 133252, Note_off_c, 0, 65, 64
3, 134402, Note_on_c, 0, 62, 92
3, 134404, Note_off_c, 0, 63, 64
3, 135266, Note_on_c, 0, 58, 92
3, 135268, Note_off_c, 0, 62, 64
3, 135362, Note_on_c, 0, 60, 92
3, 135364, Note_off_c, 0, 58, 64
3, 135458, Note_on_c, 0, 62, 92
3, 135460, Note_off_c, 0, 60, 64
3, 135554, Note_on_c, 0, 63, 92
3, 135556, Note_off_c, 0, 62, 64
3, 135650, Note_on_c, 0, 65, 92
3, 135652, Note_off_c, 0, 63, 64
3, 135746, Note_on_c, 0, 67, 92
3, 135748, Note_off_c, 0, 65, 64
3, 135842, Note_on_c, 0, 70, 92
3, 135844, Note_off_c, 0, 67, 64
3, 135938, Note_on_c, 0, 68, 92
3, 135940, Note_off_c, 0, 70, 64
3, 136034, Note_on_c, 0, 67, 92
3, 136036, Note_off_c, 0, 68, 64
3, 136130, Note_on_c, 0, 65, 92
3, 136132, Note_off_c, 0, 67, 64
3, 136226, Note_on_c, 0, 63, 92
3, 136228, Note_off_c, 0, 65, 64
3, 136322, Note_on_c, 0, 72, 92
3, 136324, Note_off_c, 0, 63, 64
3, 136514, Note_on_c, 0, 69, 92
3, 136516, Note_off_c, 0, 72, 64
3, 136706, Note_on_c, 0, 75, 92
3, 136708, Note_off_c, 0, 69, 64
3, 136898, Note_on_c, 0, 72, 92
3, 136900, Note_off_c, 0, 75, 64
3, 137090, Note_on_c, 0, 77, 92
3, 137092, Note_off_c, 0, 72, 64
3, 137186, Note_on_c, 0, 65, 92
3, 137188, Note_off_c, 0, 77, 64
3, 137282, Note_on_c, 0, 67, 92
3, 137284, Note_off_c, 0, 65, 64
3, 137378, Note_on_c, 0, 68, 92
3, 137380, Note_off_c, 0, 67, 64
3, 137474, Note_on_c, 0, 67, 92
3, 137476, Note_off_c, 0, 68, 64
3, 137666, Note_on_c, 0, 63, 92
3, 137668, Note_off_c, 0, 67, 64
3, 137858, Note_on_c, 0, 60, 92
3, 137860, Note_off_c, 0, 63, 64
3, 138050, Note_on_c, 0, 70, 92
3, 138052, Note_off_c, 0, 60, 64
3, 138338, Note_on_c, 0, 69, 92
3, 138340, Note_off_c, 0, 70, 64
3, 138434, Note_on_c, 0, 67, 92
3, 138436, Note_off_c, 0, 69, 64
3, 138530, Note_on_c, 0, 69, 92
3, 138532, Note_off_c, 0, 67, 64
3, 138626, Note_on_c, 0, 70, 92
3, 138628, Note_off_c, 0, 69, 64
3, 138818, Note_on_c, 0, 65, 92
3, 138820, Note_off_c, 0, 70, 64
3, 139010, Note_on_c, 0, 70, 92
3, 139012, Note_off_c, 0, 65, 64
3, 139202, Note_on_c, 0, 73, 92
3, 139204, Note_off_c, 0, 70, 64
3, 139394, Note_on_c, 0, 72, 92
3, 139396, Note_off_c, 0, 73, 64
3, 139586, Note_on_c, 0, 70, 92
3, 139588, Note_off_c, 0, 72, 64
3, 139778, Note_on_c, 0, 68, 92
3, 139780, Note_off_c, 0, 70, 64
3, 139874, Note_on_c, 0, 67, 92
3, 139876, Note_off_c, 0, 68, 64
3, 139970, Note_on_c, 0, 65, 92
3, 139972, Note_off_c, 0, 67, 64
3, 140066, Note_on_c, 0, 67, 92
3, 140068, Note_off_c, 0, 65, 64
3, 140162, Note_on_c, 0, 69, 92
3, 140164, Note_off_c, 0, 67, 64
3, 140258, Note_on_c, 0, 71, 92
3, 140260, Note_off_c, 0, 69, 64
3, 140354, Note_on_c, 0, 72, 92
3, 140356, Note_off_c, 0, 71, 64
3, 140450, Note_on_c, 0, 74, 92
3, 140452, Note_off_c, 0, 72, 64
3, 140546, Note_on_c, 0, 72, 92
3, 140548, Note_off_c, 0, 74, 64
3, 140642, Note_on_c, 0, 71, 92
3, 140644, Note_off_c, 0, 72, 64
3, 140738, Note_on_c, 0, 69, 92
3, 140740, Note_off_c, 0, 71, 64
3, 140834, Note_on_c, 0, 71, 92
3, 140836, Note_off_c, 0, 69, 64
3, 140930, Note_on_c, 0, 72, 92
3, 140932, Note_off_c, 0, 71, 64
3, 141122, Note_on_c, 0, 67, 92
3, 141124, Note_off_c, 0, 72, 64
3, 141314, Note_on_c, 0, 72, 92
3, 141316, Note_off_c, 0, 67, 64
3, 141506, Note_on_c, 0, 75, 92
3, 141508, Note_off_c, 0, 72, 64
3, 141698, Note_on_c, 0, 74, 92
3, 141700, Note_off_c, 0, 75, 64
3, 141890, Note_on_c, 0, 72, 92
3, 141892, Note_off_c, 0, 74, 64
3, 142082, Note_on_c, 0, 74, 92
3, 142084, Note_off_c, 0, 72, 64
3, 142274, Note_on_c, 0, 67, 92
3, 142276, Note_off_c, 0, 74, 64
3, 142466, Note_on_c, 0, 74, 92
3, 142468, Note_off_c, 0, 67, 64
3, 142658, Note_on_c, 0, 77, 92
3, 142660, Note_off_c, 0, 74, 64
3, 142850, Note_on_c, 0, 75, 92
3, 142852, Note_off_c, 0, 77, 64
3, 143042, Note_on_c, 0, 74, 92
3, 143044, Note_off_c, 0, 75, 64
3, 143234, Note_on_c, 0, 75, 92
3, 143236, Note_off_c, 0, 74, 64
3, 143714, Note_on_c, 0, 77, 92
3, 143716, Note_off_c, 0, 75, 64
3, 143810, Note_on_c, 0, 75, 92
3, 143812, Note_off_c, 0, 77, 64
3, 143906, Note_on_c, 0, 74, 92
3, 143908, Note_off_c, 0, 75, 64
3, 144002, Note_on_c, 0, 75, 92
3, 144004, Note_off_c, 0, 74, 64
3, 144098, Note_on_c, 0, 79, 92
3, 144100, Note_off_c, 0, 75, 64
3, 144194, Note_on_c, 0, 77, 92
3, 144196, Note_off_c, 0, 79, 64
3, 144290, Note_on_c, 0, 75, 92
3, 144292, Note_off_c, 0, 77, 64
3, 144386, Note_on_c, 0, 77, 92
3, 144388, Note_off_c, 0, 75, 64
3, 144866, Note_on_c, 0, 79, 92
3, 144868, Note_off_c, 0, 77, 64
3, 144962, Note_on_c, 0, 77, 92
3, 144964, Note_off_c, 0, 79, 64
3, 145058, Note_on_c, 0, 75, 92
3, 145060, Note_off_c, 0, 77, 64
3, 145154, Note_on_c, 0, 77, 92
3, 145156, Note_off_c, 0, 75, 64
3, 145250, Note_on_c, 0, 80, 92
3, 145252, Note_off_c, 0, 77, 64
3, 145346, Note_on_c, 0, 79, 92
3, 145348, Note_off_c, 0, 80, 64
3, 145442, Note_on_c, 0, 77, 92
3, 145444, Note_off_c, 0, 79, 64
3, 145538, Note_on_c, 0, 79, 92
3, 145540, Note_off_c, 0, 77, 64
3, 146018, Note_on_c, 0, 80, 92
3, 146020, Note_off_c, 0, 79, 64
3, 146114, Note_on_c, 0, 79, 92
3, 146116, Note_off_c, 0, 80, 64
3, 146210, Note_on_c, 0, 77, 92
3, 146212, Note_off_c, 0, 79, 64
3, 146306, Note_on_c, 0, 79, 92
3, 146308, Note_off_c, 0, 77, 64
3, 146402, Note_on_c, 0, 82, 92
3, 146404, Note_off_c, 0, 79, 64
3, 146498, Note_on_c, 0, 80, 92
3, 146500, Note_off_c, 0, 82, 64
3, 146594, Note_on_c, 0, 79, 92
3, 146596, Note_off_c, 0, 80, 64
3, 146690, Note_on_c, 0, 80, 92
3, 146692, Note_off_c, 0, 79, 64
3, 147076, Note_off_c, 0, 80, 64
3, 147170, Note_on_c, 0, 75, 92
3, 147266, Note_on_c, 0, 74, 92
3, 147268, Note_off_c, 0, 75, 64
3, 147362, Note_on_c, 0, 72, 92
3, 147364, Note_off_c, 0, 74, 64
3, 147458, Note_on_c, 0, 71, 92
3, 147460, Note_off_c, 0, 72, 64
3, 147554, Note_on_c, 0, 72, 92
3, 147556, Note_off_c, 0, 71, 64
3, 147650, Note_on_c, 0, 74, 92
3, 147652, Note_off_c, 0, 72, 64
3, 147746, Note_on_c, 0, 71, 92
3, 147748, Note_off_c, 0, 74, 64
3, 147842, Note_on_c, 0, 67, 92
3, 147844, Note_off_c, 0, 71, 64
3, 147938, Note_on_c, 0, 77, 92
3, 147940, Note_off_c, 0, 67, 64
3, 148034, Note_on_c, 0, 75, 92
3, 148036, Note_off_c, 0, 77, 64
3, 148130, Note_on_c, 0, 74, 92
3, 148132, Note_off_c, 0, 75, 64
3, 148226, Note_on_c, 0, 75, 92
3, 148228, Note_off_c, 0, 74, 64
3, 148322, Note_on_c, 0, 74, 92
3, 148324, Note_off_c, 0, 75, 64
3, 148418, Note_on_c, 0, 72, 92
3, 148420, Note_off_c, 0, 74, 64
3, 148514, Note_on_c, 0, 70, 92
3, 148516, Note_off_c, 0, 72, 64
3, 148610, Note_on_c, 0, 68, 92
3, 148612, Note_off_c, 0, 70, 64
3, 149090, Note_on_c, 0, 75, 92
3, 149092, Note_off_c, 0, 68, 64
3, 149186, Note_on_c, 0, 74, 92
3, 149188, Note_off_c, 0, 75, 64
3, 149282, Note_on_c, 0, 72, 92
3, 149284, Note_off_c, 0, 74, 64
3, 149378, Note_on_c, 0, 74, 92
3, 149380, Note_off_c, 0, 72, 64
3, 149474, Note_on_c, 0, 72, 92
3, 149476, Note_off_c, 0, 74, 64
3, 149570, Note_on_c, 0, 70, 92
3, 149572, Note_off_c, 0, 72, 64
3, 149666, Note_on_c, 0, 68, 92
3, 149668, Note_off_c, 0, 70, 64
3, 149762, Note_on_c, 0, 67, 92
3, 149764, Note_off_c, 0, 68, 64
3, 150242, Note_on_c, 0, 73, 92
3, 150244, Note_off_c, 0, 67, 64
3, 150338, Note_on_c, 0, 72, 92
3, 150340, Note_off_c, 0, 73, 64
3, 150434, Note_on_c, 0, 71, 92
3, 150436, Note_off_c, 0, 72, 64
3, 150530, Note_on_c, 0, 72, 92
3, 150532, Note_off_c, 0, 71, 64
3, 150626, Note_on_c, 0, 70, 92
3, 150628, Note_off_c, 0, 72, 64
3, 150722, Note_on_c, 0, 68, 92
3, 150724, Note_off_c, 0, 70, 64
3, 150818, Note_on_c, 0, 67, 92
3, 150820, Note_off_c, 0, 68, 64
3, 150914, Note_on_c, 0, 65, 92
3, 150916, Note_off_c, 0, 67, 64
3, 151394, Note_on_c, 0, 67, 92
3, 151396, Note_off_c, 0, 65, 64
3, 151490, Note_on_c, 0, 65, 92
3, 151492, Note_off_c, 0, 67, 64
3, 151586, Note_on_c, 0, 63, 92
3, 151588, Note_off_c, 0, 65, 64
3, 151682, Note_on_c, 0, 62, 92
3, 151684, Note_off_c, 0, 63, 64
3, 151778, Note_on_c, 0, 60, 92
3, 151780, Note_off_c, 0, 62, 64
3, 151874, Note_on_c, 0, 59, 92
3, 151876, Note_off_c, 0, 60, 64
3, 151970, Note_on_c, 0, 57, 92
3, 151972, Note_off_c, 0, 59, 64
3, 152066, Note_on_c, 0, 55, 92
3, 152068, Note_off_c, 0, 57, 64
3, 152162, Note_on_c, 0, 59, 92
3, 152164, Note_off_c, 0, 55, 64
3, 152258, Note_on_c, 0, 62, 92
3, 152260, Note_off_c, 0, 59, 64
3, 152354, Note_on_c, 0, 65, 92
3, 152356, Note_off_c, 0, 62, 64
3, 152450, Note_on_c, 0, 63, 92
3, 152452, Note_off_c, 0, 65, 64
3, 153986, Note_on_c, 0, 62, 92
3, 153988, Note_off_c, 0, 63, 64
3, 155138, Note_on_c, 0, 60, 92
3, 155140, Note_off_c, 0, 62, 64
3, 156290, Note_on_c, 0, 58, 92
3, 156292, Note_off_c, 0, 60, 64
3, 157154, Note_on_c, 0, 55, 92
3, 157156, Note_off_c, 0, 58, 64
3, 157250, Note_on_c, 0, 57, 92
3, 157252, Note_off_c, 0, 55, 64
3, 157346, Note_on_c, 0, 58, 92
3, 157348, Note_off_c, 0, 57, 64
3, 157442, Note_on_c, 0, 60, 92
3, 157444, Note_off_c, 0, 58, 64
3, 157538, Note_on_c, 0, 62, 92
3, 157540, Note_off_c, 0, 60, 64
3, 157634, Note_on_c, 0, 63, 92
3, 157636, Note_off_c, 0, 62, 64
3, 157730, Note_on_c, 0, 67, 92
3, 157732, Note_off_c, 0, 63, 64
3, 157826, Note_on_c, 0, 65, 92
3, 157828, Note_off_c, 0, 67, 64
3, 157922, Note_on_c, 0, 63, 92
3, 157924, Note_off_c, 0, 65, 64
3, 158018, Note_on_c, 0, 62, 92
3, 158020, Note_off_c, 0, 63, 64
3, 158114, Note_on_c, 0, 60, 92
3, 158116, Note_off_c, 0, 62, 64
3, 158210, Note_on_c, 0, 69, 92
3, 158212, Note_off_c, 0, 60, 64
3, 158402, Note_on_c, 0, 66, 92
3, 158404, Note_off_c, 0, 69, 64
3, 158594, Note_on_c, 0, 72, 92
3, 158596, Note_off_c, 0, 66, 64
3, 158786, Note_on_c, 0, 69, 92
3, 158788, Note_off_c, 0, 72, 64
3, 158978, Note_on_c, 0, 74, 92
3, 158980, Note_off_c, 0, 69, 64
3, 159074, Note_on_c, 0, 62, 92
3, 159076, Note_off_c, 0, 74, 64
3, 159170, Note_on_c, 0, 63, 92
3, 159172, Note_off_c, 0, 62, 64
3, 159266, Note_on_c, 0, 65, 92
3, 159268, Note_off_c, 0, 63, 64
3, 159362, Note_on_c, 0, 63, 92
3, 159364, Note_off_c, 0, 65, 64
3, 159554, Note_on_c, 0, 60, 92
3, 159556, Note_off_c, 0, 63, 64
3, 159746, Note_on_c, 0, 57, 92
3, 159748, Note_off_c, 0, 60, 64
3, 159938, Note_on_c, 0, 67, 92
3, 159940, Note_off_c, 0, 57, 64
3, 160226, Note_on_c, 0, 66, 92
3, 160228, Note_off_c, 0, 67, 64
3, 160322, Note_on_c, 0, 64, 92
3, 160324, Note_off_c, 0, 66, 64
3, 160418, Note_on_c, 0, 66, 92
3, 160420, Note_off_c, 0, 64, 64
3, 160514, Note_on_c, 0, 67, 92
3, 160516, Note_off_c, 0, 66, 64
3, 160610, Note_on_c, 0, 63, 92
3, 160612, Note_off_c, 0, 67, 64
3, 160706, Note_on_c, 0, 62, 92
3, 160708, Note_off_c, 0, 63, 64
3, 160802, Note_on_c, 0, 60, 92
3, 160804, Note_off_c, 0, 62, 64
3, 160898, Note_on_c, 0, 58, 92
3, 160900, Note_off_c, 0, 60, 64
3, 160994, Note_on_c, 0, 57, 92
3, 160996, Note_off_c, 0, 58, 64
3, 161090, Note_on_c, 0, 55, 92
3, 161092, Note_off_c, 0, 57, 64
3, 161186, Note_on_c, 0, 53, 92
3, 161188, Note_off_c, 0, 55, 64
3, 161282, Note_on_c, 0, 51, 92
3, 161284, Note_off_c, 0, 53, 64
3, 161762, Note_on_c, 0, 55, 92
3, 161764, Note_off_c, 0, 51, 64
3, 161858, Note_on_c, 0, 58, 92
3, 161860, Note_off_c, 0, 55, 64
3, 161954, Note_on_c, 0, 61, 92
3, 161956, Note_off_c, 0, 58, 64
3, 162050, Note_on_c, 0, 60, 92
3, 162052, Note_off_c, 0, 61, 64
3, 162146, Note_on_c, 0, 58, 92
3, 162148, Note_off_c, 0, 60, 64
3, 162242, Note_on_c, 0, 56, 92
3, 162244, Note_off_c, 0, 58, 64
3, 162338, Note_on_c, 0, 55, 92
3, 162340, Note_off_c, 0, 56, 64
3, 162434, Note_on_c, 0, 53, 92
3, 162436, Note_off_c, 0, 55, 64
3, 162914, Note_on_c, 0, 57, 92
3, 162916, Note_off_c, 0, 53, 64
3, 163010, Note_on_c, 0, 60, 92
3, 163012, Note_off_c, 0, 57, 64
3, 163106, Note_on_c, 0, 63, 92
3, 163108, Note_off_c, 0, 60, 64
3, 163202, Note_on_c, 0, 62, 92
3, 163204, Note_off_c, 0, 63, 64
3, 163298, Note_on_c, 0, 60, 92
3, 163300, Note_off_c, 0, 62, 64
3, 163394, Note_on_c, 0, 58, 92
3, 163396, Note_off_c, 0, 60, 64
3, 163490, Note_on_c, 0, 56, 92
3, 163492, Note_off_c, 0, 58, 64
3, 163586, Note_on_c, 0, 55, 92
3, 163588, Note_off_c, 0, 56, 64
3, 164162, Note_on_c, 0, 67, 92
3, 164164, Note_off_c, 0, 55, 64
3, 164450, Note_on_c, 0, 65, 92
3, 164452, Note_off_c, 0, 67, 64
3, 164546, Note_on_c, 0, 63, 92
3, 164548, Note_off_c, 0, 65, 64
3, 164642, Note_on_c, 0, 62, 92
3, 164644, Note_off_c, 0, 63, 64
3, 164738, Note_on_c, 0, 60, 92
3, 164740, Note_off_c, 0, 62, 64
3, 164834, Note_on_c, 0, 62, 92
3, 164836, Note_off_c, 0, 60, 64
3, 164930, Note_on_c, 0, 63, 92
3, 164932, Note_off_c, 0, 62, 64
3, 165026, Note_on_c, 0, 60, 92
3, 165028, Note_off_c, 0, 63, 64
3, 165122, Note_on_c, 0, 62, 92
3, 165124, Note_off_c, 0, 60, 64
3, 165218, Note_on_c, 0, 63, 92
3, 165220, Note_off_c, 0, 62, 64
3, 165314, Note_on_c, 0, 62, 92
3, 165316, Note_off_c, 0, 63, 64
3, 165410, Note_on_c, 0, 60, 92
3, 165412, Note_off_c, 0, 62, 64
3, 165506, Note_on_c, 0, 58, 92
3, 165508, Note_off_c, 0, 60, 64
3, 165602, Note_on_c, 0, 56, 92
3, 165604, Note_off_c, 0, 58, 64
3, 165698, Note_on_c, 0, 55, 92
3, 165700, Note_off_c, 0, 56, 64
3, 165794, Note_on_c, 0, 53, 92
3, 165796, Note_off_c, 0, 55, 64
3, 165890, Note_on_c, 0, 51, 92
3, 165892, Note_off_c, 0, 53, 64
3, 165986, Note_on_c, 0, 55, 92
3, 165988, Note_off_c, 0, 51, 64
3, 166082, Note_on_c, 0, 58, 92
3, 166084, Note_off_c, 0, 55, 64
3, 166178, Note_on_c, 0, 61, 92
3, 166180, Note_off_c, 0, 58, 64
3, 166274, Note_on_c, 0, 60, 92
3, 166276, Note_off_c, 0, 61, 64
3, 166370, Note_on_c, 0, 62, 92
3, 166372, Note_off_c, 0, 60, 64
3, 166466, Note_on_c, 0, 60, 92
3, 166468, Note_off_c, 0, 62, 64
3, 166562, Note_on_c, 0, 59, 92
3, 166564, Note_off_c, 0, 60, 64
3, 166658, Note_on_c, 0, 60, 92
3, 166660, Note_off_c, 0, 59, 64
3, 166754, Note_on_c, 0, 57, 92
3, 166756, Note_off_c, 0, 60, 64
3, 166850, Note_on_c, 0, 59, 92
3, 166852, Note_off_c, 0, 57, 64
3, 166946, Note_on_c, 0, 60, 92
3, 166948, Note_off_c, 0, 59, 64
3, 167042, Note_on_c, 0, 62, 92
3, 167044, Note_off_c, 0, 60, 64
3, 167138, Note_on_c, 0, 63, 92
3, 167140, Note_off_c, 0, 62, 64
3, 167234, Note_on_c, 0, 65, 92
3, 167236, Note_off_c, 0, 63, 64
3, 167330, Note_on_c, 0, 62, 92
3, 167332, Note_off_c, 0, 65, 64
3, 167426, Note_on_c, 0, 59, 92
3, 167428, Note_off_c, 0, 62, 64
3, 167522, Note_on_c, 0, 55, 92
3, 167524, Note_off_c, 0, 59, 64
3, 167618, Note_on_c, 0, 57, 92
3, 167620, Note_off_c, 0, 55, 64
3, 167714, Note_on_c, 0, 59, 92
3, 167716, Note_off_c, 0, 57, 64
3, 167810, Note_on_c, 0, 60, 92
3, 167812, Note_off_c, 0, 59, 64
3, 167906, Note_on_c, 0, 62, 92
3, 167908, Note_off_c, 0, 60, 64
3, 168002, Note_on_c, 0, 63, 92
3, 168004, Note_off_c, 0, 62, 64
3, 168098, Note_on_c, 0, 65, 92
3, 168100, Note_off_c, 0, 63, 64
3, 168194, Note_on_c, 0, 67, 92
3, 168196, Note_off_c, 0, 65, 64
3, 168290, Note_on_c, 0, 68, 92
3, 168292, Note_off_c, 0, 67, 64
3, 168386, Note_on_c, 0, 70, 92
3, 168388, Note_off_c, 0, 68, 64
3, 168482, Note_on_c, 0, 67, 92
3, 168484, Note_off_c, 0, 70, 64
3, 168578, Note_on_c, 0, 68, 92
3, 168580, Note_off_c, 0, 67, 64
3, 168674, Note_on_c, 0, 67, 92
3, 168676, Note_off_c, 0, 68, 64
3, 168770, Note_on_c, 0, 65, 92
3, 168772, Note_off_c, 0, 67, 64
3, 168866, Note_on_c, 0, 67, 92
3, 168868, Note_off_c, 0, 65, 64
3, 168962, Note_on_c, 0, 68, 92
3, 168964, Note_off_c, 0, 67, 64
3, 169154, Note_on_c, 0, 65, 92
3, 169156, Note_off_c, 0, 68, 64
3, 169346, Note_on_c, 0, 62, 92
3, 169348, Note_off_c, 0, 65, 64
3, 169538, Note_on_c, 0, 72, 92
3, 169540, Note_off_c, 0, 62, 64
3, 169826, Note_on_c, 0, 71, 92
3, 169828, Note_off_c, 0, 72, 64
3, 169922, Note_on_c, 0, 69, 92
3, 169924, Note_off_c, 0, 71, 64
3, 170018, Note_on_c, 0, 67, 92
3, 170020, Note_off_c, 0, 69, 64
3, 170114, Note_on_c, 0, 69, 92
3, 170116, Note_off_c, 0, 67, 64
3, 170210, Note_on_c, 0, 72, 92
3, 170212, Note_off_c, 0, 69, 64
3, 170306, Note_on_c, 0, 71, 92
3, 170308, Note_off_c, 0, 72, 64
3, 170402, Note_on_c, 0, 74, 92
3, 170404, Note_off_c, 0, 71, 64
3, 170498, Note_on_c, 0, 72, 92
3, 170500, Note_off_c, 0, 74, 64
3, 170978, Note_on_c, 0, 71, 92
3, 170980, Note_off_c, 0, 72, 64
3, 171074, Note_on_c, 0, 74, 92
3, 171076, Note_off_c, 0, 71, 64
3, 171170, Note_on_c, 0, 72, 92
3, 171172, Note_off_c, 0, 74, 64
3, 171266, Note_on_c, 0, 71, 92
3, 171268, Note_off_c, 0, 72, 64
3, 171362, Note_on_c, 0, 69, 92
3, 171364, Note_off_c, 0, 71, 64
3, 171458, Note_on_c, 0, 67, 92
3, 171460, Note_off_c, 0, 69, 64
3, 171554, Note_on_c, 0, 65, 92
3, 171556, Note_off_c, 0, 67, 64
3, 171650, Note_on_c, 0, 74, 92
3, 171652, Note_off_c, 0, 65, 64
3, 171842, Note_on_c, 0, 65, 92
3, 171844, Note_off_c, 0, 74, 64
3, 172034, Note_on_c, 0, 63, 92
3, 172036, Note_off_c, 0, 65, 64
3, 172130, Note_on_c, 0, 67, 92
3, 172132, Note_off_c, 0, 63, 64
3, 172226, Note_on_c, 0, 65, 92
3, 172228, Note_off_c, 0, 67, 64
3, 172322, Note_on_c, 0, 68, 92
3, 172324, Note_off_c, 0, 65, 64
3, 172418, Note_on_c, 0, 67, 92
3, 172420, Note_off_c, 0, 68, 64
3, 173282, Note_on_c, 0, 63, 92
3, 173284, Note_off_c, 0, 67, 64
3, 173378, Note_on_c, 0, 65, 92
3, 173380, Note_off_c, 0, 63, 64
3, 173474, Note_on_c, 0, 62, 92
3, 173476, Note_off_c, 0, 65, 64
3, 173570, Note_on_c, 0, 63, 92
3, 173572, Note_off_c, 0, 62, 64
3, 174530, Note_on_c, 0, 69, 92
3, 174532, Note_off_c, 0, 63, 64
3, 174722, Note_on_c, 0, 72, 92
3, 174724, Note_off_c, 0, 69, 64
3, 174914, Note_on_c, 0, 69, 92
3, 174916, Note_off_c, 0, 72, 64
3, 175106, Note_on_c, 0, 63, 92
3, 175108, Note_off_c, 0, 69, 64
3, 175298, Note_on_c, 0, 62, 92
3, 175300, Note_off_c, 0, 63, 64
3, 175322, Note_on_c, 0, 63, 92
3, 175324, Note_off_c, 0, 62, 64
3, 175346, Note_on_c, 0, 62, 92
3, 175348, Note_off_c, 0, 63, 64
3, 175394, Note_on_c, 0, 63, 92
3, 175396, Note_off_c, 0, 62, 64
3, 175490, Note_on_c, 0, 62, 92
3, 175492, Note_off_c, 0, 63, 64
3, 176644, Note_off_c, 0, 62, 64
3, 190082, Note_on_c, 0, 60, 92
3, 191618, Note_on_c, 0, 67, 92
3, 191620, Note_off_c, 0, 60, 64
3, 193154, Note_on_c, 0, 65, 92
3, 193156, Note_off_c, 0, 67, 64
3, 193538, Note_on_c, 0, 67, 92
3, 193540, Note_off_c, 0, 65, 64
3, 193730, Note_on_c, 0, 69, 92
3, 193732, Note_off_c, 0, 67, 64
3, 193922, Note_on_c, 0, 70, 92
3, 193924, Note_off_c, 0, 69, 64
3, 194306, Note_on_c, 0, 58, 92
3, 194308, Note_off_c, 0, 70, 64
3, 194690, Note_on_c, 0, 63, 92
3, 194692, Note_off_c, 0, 58, 64
3, 195074, Note_on_c, 0, 62, 92
3, 195076, Note_off_c, 0, 63, 64
3, 195458, Note_on_c, 0, 60, 92
3, 195460, Note_off_c, 0, 62, 64
3, 195842, Note_on_c, 0, 69, 92
3, 195844, Note_off_c, 0, 60, 64
3, 196226, Note_on_c, 0, 62, 92
3, 196228, Note_off_c, 0, 69, 64
3, 196610, Note_on_c, 0, 64, 92
3, 196612, Note_off_c, 0, 62, 64
3, 196802, Note_on_c, 0, 66, 92
3, 196804, Note_off_c, 0, 64, 64
3, 196994, Note_on_c, 0, 67, 92
3, 196996, Note_off_c, 0, 66, 64
3, 197378, Note_on_c, 0, 55, 92
3, 197380, Note_off_c, 0, 67, 64
3, 197762, Note_on_c, 0, 60, 92
3, 197764, Note_off_c, 0, 55, 64
3, 197954, Note_on_c, 0, 62, 92
3, 197956, Note_off_c, 0, 60, 64
3, 198146, Note_on_c, 0, 60, 92
3, 198148, Note_off_c, 0, 62, 64
3, 198338, Note_on_c, 0, 58, 92
3, 198340, Note_off_c, 0, 60, 64
3, 198530, Note_on_c, 0, 57, 92
3, 198532, Note_off_c, 0, 58, 64
3, 198722, Note_on_c, 0, 58, 92
3, 198724, Note_off_c, 0, 57, 64
3, 198914, Note_on_c, 0, 60, 92
3, 198916, Note_off_c, 0, 58, 64
3, 199106, Note_on_c, 0, 57, 92
3, 199108, Note_off_c, 0, 60, 64
3, 199298, Note_on_c, 0, 58, 92
3, 199300, Note_off_c, 0, 57, 64
3, 199490, Note_on_c, 0, 60, 92
3, 199492, Note_off_c, 0, 58, 64
3, 199682, Note_on_c, 0, 58, 92
3, 199684, Note_off_c, 0, 60, 64
3, 199874, Note_on_c, 0, 57, 92
3, 199876, Note_off_c, 0, 58, 64
3, 200066, Note_on_c, 0, 55, 92
3, 200068, Note_off_c, 0, 57, 64
3, 200258, Note_on_c, 0, 57, 92
3, 200260, Note_off_c, 0, 55, 64
3, 200450, Note_on_c, 0, 58, 92
3, 200452, Note_off_c, 0, 57, 64
3, 200642, Note_on_c, 0, 55, 92
3, 200644, Note_off_c, 0, 58, 64
3, 200834, Note_on_c, 0, 57, 92
3, 200836, Note_off_c, 0, 55, 64
3, 201218, Note_on_c, 0, 67, 92
3, 201220, Note_off_c, 0, 57, 64
3, 201602, Note_on_c, 0, 66, 92
3, 201604, Note_off_c, 0, 67, 64
3, 201986, Note_on_c, 0, 69, 92
3, 201988, Note_off_c, 0, 66, 64
3, 202562, Note_on_c, 0, 62, 92
3, 202564, Note_off_c, 0, 69, 64
3, 202754, Note_on_c, 0, 67, 92
3, 202756, Note_off_c, 0, 62, 64
3, 202946, Note_on_c, 0, 69, 92
3, 202948, Note_off_c, 0, 67, 64
3, 203138, Note_on_c, 0, 70, 92
3, 203140, Note_off_c, 0, 69, 64
3, 203330, Note_on_c, 0, 69, 92
3, 203332, Note_off_c, 0, 70, 64
3, 203522, Note_on_c, 0, 67, 92
3, 203524, Note_off_c, 0, 69, 64
3, 203714, Note_on_c, 0, 70, 92
3, 203716, Note_off_c, 0, 67, 64
3, 203906, Note_on_c, 0, 68, 92
3, 203908, Note_off_c, 0, 70, 64
3, 204098, Note_on_c, 0, 70, 92
3, 204100, Note_off_c, 0, 68, 64
3, 204290, Note_on_c, 0, 68, 92
3, 204292, Note_off_c, 0, 70, 64
3, 204482, Note_on_c, 0, 67, 92
3, 204484, Note_off_c, 0, 68, 64
3, 204674, Note_on_c, 0, 65, 92
3, 204676, Note_off_c, 0, 67, 64
3, 204866, Note_on_c, 0, 67, 92
3, 204868, Note_off_c, 0, 65, 64
3, 205058, Note_on_c, 0, 68, 92
3, 205060, Note_off_c, 0, 67, 64
3, 205250, Note_on_c, 0, 65, 92
3, 205252, Note_off_c, 0, 68, 64
3, 205442, Note_on_c, 0, 67, 92
3, 205444, Note_off_c, 0, 65, 64
3, 205634, Note_on_c, 0, 68, 92
3, 205636, Note_off_c, 0, 67, 64
3, 205826, Note_on_c, 0, 67, 92
3, 205828, Note_off_c, 0, 68, 64
3, 206018, Note_on_c, 0, 65, 92
3, 206020, Note_off_c, 0, 67, 64
3, 206210, Note_on_c, 0, 63, 92
3, 206212, Note_off_c, 0, 65, 64
3, 206402, Note_on_c, 0, 65, 92
3, 206404, Note_off_c, 0, 63, 64
3, 206594, Note_on_c, 0, 67, 92
3, 206596, Note_off_c, 0, 65, 64
3, 206786, Note_on_c, 0, 63, 92
3, 206788, Note_off_c, 0, 67, 64
3, 206978, Note_on_c, 0, 65, 92
3, 206980, Note_off_c, 0, 63, 64
3, 207170, Note_on_c, 0, 67, 92
3, 207172, Note_off_c, 0, 65, 64
3, 207362, Note_on_c, 0, 65, 92
3, 207364, Note_off_c, 0, 67, 64
3, 207554, Note_on_c, 0, 63, 92
3, 207556, Note_off_c, 0, 65, 64
3, 207746, Note_on_c, 0, 62, 92
3, 207748, Note_off_c, 0, 63, 64
3, 207938, Note_on_c, 0, 63, 92
3, 207940, Note_off_c, 0, 62, 64
3, 208130, Note_on_c, 0, 65, 92
3, 208132, Note_off_c, 0, 63, 64
3, 208322, Note_on_c, 0, 62, 92
3, 208324, Note_off_c, 0, 65, 64
3, 208514, Note_on_c, 0, 63, 92
3, 208516, Note_off_c, 0, 62, 64
3, 208706, Note_on_c, 0, 65, 92
3, 208708, Note_off_c, 0, 63, 64
3, 208898, Note_on_c, 0, 63, 92
3, 208900, Note_off_c, 0, 65, 64
3, 209090, Note_on_c, 0, 62, 92
3, 209092, Note_off_c, 0, 63, 64
3, 209282, Note_on_c, 0, 60, 92
3, 209284, Note_off_c, 0, 62, 64
3, 209474, Note_on_c, 0, 62, 92
3, 209476, Note_off_c, 0, 60, 64
3, 209666, Note_on_c, 0, 63, 92
3, 209668, Note_off_c, 0, 62, 64
3, 209858, Note_on_c, 0, 60, 92
3, 209860, Note_off_c, 0, 63, 64
3, 210050, Note_on_c, 0, 62, 92
3, 210052, Note_off_c, 0, 60, 64
3, 210242, Note_on_c, 0, 63, 92
3, 210244, Note_off_c, 0, 62, 64
3, 210434, Note_on_c, 0, 62, 92
3, 210436, Note_off_c, 0, 63, 64
3, 210626, Note_on_c, 0, 60, 92
3, 210628, Note_off_c, 0, 62, 64
3, 210818, Note_on_c, 0, 59, 92
3, 210820, Note_off_c, 0, 60, 64
3, 211010, Note_on_c, 0, 60, 92
3, 211012, Note_off_c, 0, 59, 64
3, 211202, Note_on_c, 0, 62, 92
3, 211204, Note_off_c, 0, 60, 64
3, 211394, Note_on_c, 0, 59, 92
3, 211396, Note_off_c, 0, 62, 64
3, 211586, Note_on_c, 0, 60, 92
3, 211588, Note_off_c, 0, 59, 64
3, 211970, Note_on_c, 0, 63, 92
3, 211972, Note_off_c, 0, 60, 64
3, 212354, Note_on_c, 0, 68, 92
3, 212356, Note_off_c, 0, 63, 64
3, 213890, Note_on_c, 0, 67, 92
3, 213892, Note_off_c, 0, 68, 64
3, 215042, Note_on_c, 0, 65, 92
3, 215044, Note_off_c, 0, 67, 64
3, 215234, Note_on_c, 0, 63, 92
3, 215236, Note_off_c, 0, 65, 64
3, 215426, Note_on_c, 0, 62, 92
3, 215428, Note_off_c, 0, 63, 64
3, 215618, Note_on_c, 0, 63, 92
3, 215620, Note_off_c, 0, 62, 64
3, 215810, Note_on_c, 0, 65, 92
3, 215812, Note_off_c, 0, 63, 64
3, 216002, Note_on_c, 0, 62, 92
3, 216004, Note_off_c, 0, 65, 64
3, 216194, Note_on_c, 0, 63, 92
3, 216196, Note_off_c, 0, 62, 64
3, 216386, Note_on_c, 0, 65, 92
3, 216388, Note_off_c, 0, 63, 64
3, 216578, Note_on_c, 0, 63, 92
3, 216580, Note_off_c, 0, 65, 64
3, 216770, Note_on_c, 0, 62, 92
3, 216772, Note_off_c, 0, 63, 64
3, 216962, Note_on_c, 0, 60, 92
3, 216964, Note_off_c, 0, 62, 64
3, 217154, Note_on_c, 0, 62, 92
3, 217156, Note_off_c, 0, 60, 64
3, 217346, Note_on_c, 0, 63, 92
3, 217348, Note_off_c, 0, 62, 64
3, 217538, Note_on_c, 0, 60, 92
3, 217540, Note_off_c, 0, 63, 64
3, 217730, Note_on_c, 0, 56, 92
3, 217732, Note_off_c, 0, 60, 64
3, 218690, Note_on_c, 0, 55, 92
3, 218692, Note_off_c, 0, 56, 64
3, 218882, Note_on_c, 0, 53, 92
3, 218884, Note_off_c, 0, 55, 64
3, 219074, Note_on_c, 0, 56, 92
3, 219076, Note_off_c, 0, 53, 64
3, 219266, Note_on_c, 0, 55, 92
3, 219268, Note_off_c, 0, 56, 64
3, 220226, Note_on_c, 0, 60, 92
3, 220228, Note_off_c, 0, 55, 64
3, 220418, Note_on_c, 0, 59, 92
3, 220420, Note_off_c, 0, 60, 64
3, 220610, Note_on_c, 0, 60, 92
3, 220612, Note_off_c, 0, 59, 64
3, 220802, Note_on_c, 0, 65, 92
3, 220804, Note_off_c, 0, 60, 64
3, 220994, Note_on_c, 0, 67, 92
3, 220996, Note_off_c, 0, 65, 64
3, 221186, Note_on_c, 0, 65, 92
3, 221188, Note_off_c, 0, 67, 64
3, 221378, Note_on_c, 0, 63, 92
3, 221380, Note_off_c, 0, 65, 64
3, 221570, Note_on_c, 0, 62, 92
3, 221572, Note_off_c, 0, 63, 64
3, 221762, Note_on_c, 0, 63, 92
3, 221764, Note_off_c, 0, 62, 64
3, 221954, Note_on_c, 0, 65, 92
3, 221956, Note_off_c, 0, 63, 64
3, 222146, Note_on_c, 0, 62, 92
3, 222148, Note_off_c, 0, 65, 64
3, 222338, Note_on_c, 0, 63, 92
3, 222340, Note_off_c, 0, 62, 64
3, 222530, Note_on_c, 0, 65, 92
3, 222532, Note_off_c, 0, 63, 64
3, 222722, Note_on_c, 0, 63, 92
3, 222724, Note_off_c, 0, 65, 64
3, 222914, Note_on_c, 0, 62, 92
3, 222916, Note_off_c, 0, 63, 64
3, 223106, Note_on_c, 0, 60, 92
3, 223108, Note_off_c, 0, 62, 64
3, 223298, Note_on_c, 0, 62, 92
3, 223300, Note_off_c, 0, 60, 64
3, 223490, Note_on_c, 0, 63, 92
3, 223492, Note_off_c, 0, 62, 64
3, 223682, Note_on_c, 0, 60, 92
3, 223684, Note_off_c, 0, 63, 64
3, 223874, Note_on_c, 0, 62, 92
3, 223876, Note_off_c, 0, 60, 64
3, 224066, Note_on_c, 0, 63, 92
3, 224068, Note_off_c, 0, 62, 64
3, 224258, Note_on_c, 0, 62, 92
3, 224260, Note_off_c, 0, 63, 64
3, 224450, Note_on_c, 0, 60, 92
3, 224452, Note_off_c, 0, 62, 64
3, 224642, Note_on_c, 0, 59, 92
3, 224644, Note_off_c, 0, 60, 64
3, 224834, Note_on_c, 0, 60, 92
3, 224836, Note_off_c, 0, 59, 64
3, 225026, Note_on_c, 0, 62, 92
3, 225028, Note_off_c, 0, 60, 64
3, 225218, Note_on_c, 0, 59, 92
3, 225220, Note_off_c, 0, 62, 64
3, 225410, Note_on_c, 0, 60, 92
3, 225412, Note_off_c, 0, 59, 64
3, 225602, Note_on_c, 0, 62, 92
3, 225604, Note_off_c, 0, 60, 64
3, 225794, Note_on_c, 0, 60, 92
3, 225796, Note_off_c, 0, 62, 64
3, 225986, Note_on_c, 0, 58, 92
3, 225988, Note_off_c, 0, 60, 64
3, 226178, Note_on_c, 0, 56, 92
3, 226180, Note_off_c, 0, 58, 64
3, 226370, Note_on_c, 0, 58, 92
3, 226372, Note_off_c, 0, 56, 64
3, 226562, Note_on_c, 0, 60, 92
3, 226564, Note_off_c, 0, 58, 64
3, 226754, Note_on_c, 0, 56, 92
3, 226756, Note_off_c, 0, 60, 64
3, 226946, Note_on_c, 0, 58, 92
3, 226948, Note_off_c, 0, 56, 64
3, 227138, Note_on_c, 0, 60, 92
3, 227140, Note_off_c, 0, 58, 64
3, 227330, Note_on_c, 0, 58, 92
3, 227332, Note_off_c, 0, 60, 64
3, 227522, Note_on_c, 0, 56, 92
3, 227524, Note_off_c, 0, 58, 64
3, 227714, Note_on_c, 0, 55, 92
3, 227716, Note_off_c, 0, 56, 64
3, 227906, Note_on_c, 0, 56, 92
3, 227908, Note_off_c, 0, 55, 64
3, 228098, Note_on_c, 0, 58, 92
3, 228100, Note_off_c, 0, 56, 64
3, 228290, Note_on_c, 0, 55, 92
3, 228292, Note_off_c, 0, 58, 64
3, 228482, Note_on_c, 0, 56, 92
3, 228484, Note_off_c, 0, 55, 64
3, 228674, Note_on_c, 0, 58, 92
3, 228676, Note_off_c, 0, 56, 64
3, 228866, Note_on_c, 0, 56, 92
3, 228868, Note_off_c, 0, 58, 64
3, 229058, Note_on_c, 0, 55, 92
3, 229060, Note_off_c, 0, 56, 64
3, 229250, Note_on_c, 0, 53, 92
3, 229252, Note_off_c, 0, 55, 64
3, 229442, Note_on_c, 0, 55, 92
3, 229444, Note_off_c, 0, 53, 64
3, 229634, Note_on_c, 0, 56, 92
3, 229636, Note_off_c, 0, 55, 64
3, 229826, Note_on_c, 0, 53, 92
3, 229828, Note_off_c, 0, 56, 64
3, 230018, Note_on_c, 0, 55, 92
3, 230020, Note_off_c, 0, 53, 64
3, 230210, Note_on_c, 0, 56, 92
3, 230212, Note_off_c, 0, 55, 64
3, 230402, Note_on_c, 0, 55, 92
3, 230404, Note_off_c, 0, 56, 64
3, 230594, Note_on_c, 0, 53, 92
3, 230596, Note_off_c, 0, 55, 64
3, 230786, Note_on_c, 0, 52, 92
3, 230788, Note_off_c, 0, 53, 64
3, 230978, Note_on_c, 0, 53, 92
3, 230980, Note_off_c, 0, 52, 64
3, 231170, Note_on_c, 0, 55, 92
3, 231172, Note_off_c, 0, 53, 64
3, 231362, Note_on_c, 0, 52, 92
3, 231364, Note_off_c, 0, 55, 64
3, 231554, Note_on_c, 0, 53, 92
3, 231556, Note_off_c, 0, 52, 64
3, 231938, Note_on_c, 0, 60, 92
3, 231940, Note_off_c, 0, 53, 64
3, 232322, Note_on_c, 0, 65, 92
3, 232324, Note_off_c, 0, 60, 64
3, 233474, Note_on_c, 0, 63, 92
3, 233476, Note_off_c, 0, 65, 64
3, 233666, Note_on_c, 0, 62, 92
3, 233668, Note_off_c, 0, 63, 64
3, 233858, Note_on_c, 0, 60, 92
3, 233860, Note_off_c, 0, 62, 64
3, 234050, Note_on_c, 0, 62, 92
3, 234052, Note_off_c, 0, 60, 64
3, 234242, Note_on_c, 0, 63, 92
3, 234244, Note_off_c, 0, 62, 64
3, 234434, Note_on_c, 0, 60, 92
3, 234436, Note_off_c, 0, 63, 64
3, 234626, Note_on_c, 0, 62, 92
3, 234628, Note_off_c, 0, 60, 64
3, 234818, Note_on_c, 0, 63, 92
3, 234820, Note_off_c, 0, 62, 64
3, 235010, Note_on_c, 0, 62, 92
3, 235012, Note_off_c, 0, 63, 64
3, 235202, Note_on_c, 0, 60, 92
3, 235204, Note_off_c, 0, 62, 64
3, 235394, Note_on_c, 0, 59, 92
3, 235396, Note_off_c, 0, 60, 64
3, 235586, Note_on_c, 0, 60, 92
3, 235588, Note_off_c, 0, 59, 64
3, 235778, Note_on_c, 0, 62, 92
3, 235780, Note_off_c, 0, 60, 64
3, 235970, Note_on_c, 0, 59, 92
3, 235972, Note_off_c, 0, 62, 64
3, 236162, Note_on_c, 0, 60, 92
3, 236164, Note_off_c, 0, 59, 64
3, 237890, Note_on_c, 0, 62, 92
3, 237892, Note_off_c, 0, 60, 64
3, 238082, Note_on_c, 0, 60, 92
3, 238084, Note_off_c, 0, 62, 64
3, 238274, Note_on_c, 0, 62, 92
3, 238276, Note_off_c, 0, 60, 64
3, 238466, Note_on_c, 0, 62, 92
3, 238468, Note_off_c, 0, 62, 64
3, 238514, Note_on_c, 0, 63, 92
3, 238516, Note_off_c, 0, 62, 64
3, 238562, Note_on_c, 0, 62, 92
3, 238564, Note_off_c, 0, 63, 64
3, 239042, Note_on_c, 0, 60, 92
3, 239044, Note_off_c, 0, 62, 64
3, 239138, Note_on_c, 0, 62, 92
3, 239140, Note_off_c, 0, 60, 64
3, 239234, Note_on_c, 0, 63, 92
3, 239236, Note_off_c, 0, 62, 64
3, 240962, Note_on_c, 0, 65, 92
3, 240964, Note_off_c, 0, 63, 64
3, 241154, Note_on_c, 0, 63, 92
3, 241156, Note_off_c, 0, 65, 64
3, 241346, Note_on_c, 0, 65, 92
3, 241348, Note_off_c, 0, 63, 64
3, 241538, Note_on_c, 0, 65, 92
3, 241540, Note_off_c, 0, 65, 64
3, 241586, Note_on_c, 0, 67, 92
3, 241588, Note_off_c, 0, 65, 64
3, 241634, Note_on_c, 0, 65, 92
3, 241636, Note_off_c, 0, 67, 64
3, 242114, Note_on_c, 0, 63, 92
3, 242116, Note_off_c, 0, 65, 64
3, 242210, Note_on_c, 0, 65, 92
3, 242212, Note_off_c, 0, 63, 64
3, 242306, Note_on_c, 0, 67, 92
3, 242308, Note_off_c, 0, 65, 64
3, 243076, Note_off_c, 0, 67, 64
3, 243842, Note_on_c, 0, 67, 92
3, 245378, Note_on_c, 0, 72, 92
3, 245380, Note_off_c, 0, 67, 64
3, 246914, Note_on_c, 0, 70, 92
3, 246916, Note_off_c, 0, 72, 64
3, 247298, Note_on_c, 0, 72, 92
3, 247300, Note_off_c, 0, 70, 64
3, 247490, Note_on_c, 0, 74, 92
3, 247492, Note_off_c, 0, 72, 64
3, 247682, Note_on_c, 0, 75, 92
3, 247684, Note_off_c, 0, 74, 64
3, 248066, Note_on_c, 0, 63, 92
3, 248068, Note_off_c, 0, 75, 64
3, 248450, Note_on_c, 0, 68, 92
3, 248452, Note_off_c, 0, 63, 64
3, 248834, Note_on_c, 0, 67, 92
3, 248836, Note_off_c, 0, 68, 64
3, 249218, Note_on_c, 0, 65, 92
3, 249220, Note_off_c, 0, 67, 64
3, 249602, Note_on_c, 0, 74, 92
3, 249604, Note_off_c, 0, 65, 64
3, 249986, Note_on_c, 0, 67, 92
3, 249988, Note_off_c, 0, 74, 64
3, 250370, Note_on_c, 0, 69, 92
3, 250372, Note_off_c, 0, 67, 64
3, 250562, Note_on_c, 0, 71, 92
3, 250564, Note_off_c, 0, 69, 64
3, 250754, Note_on_c, 0, 72, 92
3, 250756, Note_off_c, 0, 71, 64
3, 251138, Note_on_c, 0, 60, 92
3, 251140, Note_off_c, 0, 72, 64
3, 251522, Note_on_c, 0, 65, 92
3, 251524, Note_off_c, 0, 60, 64
3, 251714, Note_on_c, 0, 67, 92
3, 251716, Note_off_c, 0, 65, 64
3, 251906, Note_on_c, 0, 65, 92
3, 251908, Note_off_c, 0, 67, 64
3, 252098, Note_on_c, 0, 63, 92
3, 252100, Note_off_c, 0, 65, 64
3, 252290, Note_on_c, 0, 62, 92
3, 252292, Note_off_c, 0, 63, 64
3, 252482, Note_on_c, 0, 63, 92
3, 252484, Note_off_c, 0, 62, 64
3, 252674, Note_on_c, 0, 65, 92
3, 252676, Note_off_c, 0, 63, 64
3, 252866, Note_on_c, 0, 62, 92
3, 252868, Note_off_c, 0, 65, 64
3, 253058, Note_on_c, 0, 63, 92
3, 253060, Note_off_c, 0, 62, 64
3, 253250, Note_on_c, 0, 65, 92
3, 253252, Note_off_c, 0, 63, 64
3, 253442, Note_on_c, 0, 63, 92
3, 253444, Note_off_c, 0, 65, 64
3, 253634, Note_on_c, 0, 62, 92
3, 253636, Note_off_c, 0, 63, 64
3, 253826, Note_on_c, 0, 60, 92
3, 253828, Note_off_c, 0, 62, 64
3, 254018, Note_on_c, 0, 62, 92
3, 254020, Note_off_c, 0, 60, 64
3, 254210, Note_on_c, 0, 63, 92
3, 254212, Note_off_c, 0, 62, 64
3, 254402, Note_on_c, 0, 65, 92
3, 254404, Note_off_c, 0, 63, 64
3, 254594, Note_on_c, 0, 67, 92
3, 254596, Note_off_c, 0, 65, 64
3, 254786, Note_on_c, 0, 68, 92
3, 254788, Note_off_c, 0, 67, 64
3, 254978, Note_on_c, 0, 67, 92
3, 254980, Note_off_c, 0, 68, 64
3, 255170, Note_on_c, 0, 65, 92
3, 255172, Note_off_c, 0, 67, 64
3, 255362, Note_on_c, 0, 64, 92
3, 255364, Note_off_c, 0, 65, 64
3, 255554, Note_on_c, 0, 65, 92
3, 255556, Note_off_c, 0, 64, 64
3, 255746, Note_on_c, 0, 67, 92
3, 255748, Note_off_c, 0, 65, 64
3, 255938, Note_on_c, 0, 64, 92
3, 255940, Note_off_c, 0, 67, 64
3, 256130, Note_on_c, 0, 65, 92
3, 256132, Note_off_c, 0, 64, 64
3, 256322, Note_on_c, 0, 64, 92
3, 256324, Note_off_c, 0, 65, 64
3, 256514, Note_on_c, 0, 65, 92
3, 256516, Note_off_c, 0, 64, 64
3, 256706, Note_on_c, 0, 67, 92
3, 256708, Note_off_c, 0, 65, 64
3, 256898, Note_on_c, 0, 68, 92
3, 256900, Note_off_c, 0, 67, 64
3, 257090, Note_on_c, 0, 70, 92
3, 257092, Note_off_c, 0, 68, 64
3, 257282, Note_on_c, 0, 72, 92
3, 257284, Note_off_c, 0, 70, 64
3, 257474, Note_on_c, 0, 68, 92
3, 257476, Note_off_c, 0, 72, 64
3, 257666, Note_on_c, 0, 70, 92
3, 257668, Note_off_c, 0, 68, 64
3, 257858, Note_on_c, 0, 72, 92
3, 257860, Note_off_c, 0, 70, 64
3, 258050, Note_on_c, 0, 70, 92
3, 258052, Note_off_c, 0, 72, 64
3, 258242, Note_on_c, 0, 68, 92
3, 258244, Note_off_c, 0, 70, 64
3, 258434, Note_on_c, 0, 67, 92
3, 258436, Note_off_c, 0, 68, 64
3, 258626, Note_on_c, 0, 68, 92
3, 258628, Note_off_c, 0, 67, 64
3, 258818, Note_on_c, 0, 70, 92
3, 258820, Note_off_c, 0, 68, 64
3, 259010, Note_on_c, 0, 67, 92
3, 259012, Note_off_c, 0, 70, 64
3, 259202, Note_on_c, 0, 68, 92
3, 259204, Note_off_c, 0, 67, 64
3, 259394, Note_on_c, 0, 70, 92
3, 259396, Note_off_c, 0, 68, 64
3, 259586, Note_on_c, 0, 68, 92
3, 259588, Note_off_c, 0, 70, 64
3, 259778, Note_on_c, 0, 67, 92
3, 259780, Note_off_c, 0, 68, 64
3, 259970, Note_on_c, 0, 65, 92
3, 259972, Note_off_c, 0, 67, 64
3, 260162, Note_on_c, 0, 67, 92
3, 260164, Note_off_c, 0, 65, 64
3, 260354, Note_on_c, 0, 68, 92
3, 260356, Note_off_c, 0, 67, 64
3, 260546, Note_on_c, 0, 65, 92
3, 260548, Note_off_c, 0, 68, 64
3, 260738, Note_on_c, 0, 62, 92
3, 260740, Note_off_c, 0, 65, 64
3, 262466, Note_on_c, 0, 72, 92
3, 262468, Note_off_c, 0, 62, 64
3, 262658, Note_on_c, 0, 71, 92
3, 262660, Note_off_c, 0, 72, 64
3, 262850, Note_on_c, 0, 69, 92
3, 262852, Note_off_c, 0, 71, 64
3, 263042, Note_on_c, 0, 67, 92
3, 263044, Note_off_c, 0, 69, 64
3, 263234, Note_on_c, 0, 72, 92
3, 263236, Note_off_c, 0, 67, 64
3, 263426, Note_on_c, 0, 65, 92
3, 263428, Note_off_c, 0, 72, 64
3, 263810, Note_on_c, 0, 63, 92
3, 263812, Note_off_c, 0, 65, 64
3, 264386, Note_on_c, 0, 62, 92
3, 264388, Note_off_c, 0, 63, 64
3, 264578, Note_on_c, 0, 62, 92
3, 264580, Note_off_c, 0, 62, 64
3, 264626, Note_on_c, 0, 63, 92
3, 264628, Note_off_c, 0, 62, 64
3, 264674, Note_on_c, 0, 62, 92
3, 264676, Note_off_c, 0, 63, 64
3, 265154, Note_on_c, 0, 60, 92
3, 265156, Note_off_c, 0, 62, 64
3, 265346, Note_on_c, 0, 60, 92
3, 265348, Note_off_c, 0, 60, 64
3, 266116, Note_off_c, 0, 60, 64
3, 278786, Note_on_c, 0, 70, 92
3, 279170, Note_on_c, 0, 69, 92
3, 279172, Note_off_c, 0, 70, 64
3, 279266, Note_on_c, 0, 66, 92
3, 279268, Note_off_c, 0, 69, 64
3, 279362, Note_on_c, 0, 61, 92
3, 279364, Note_off_c, 0, 66, 64
3, 279554, Note_on_c, 0, 62, 92
3, 279556, Note_off_c, 0, 61, 64
3, 280322, Note_on_c, 0, 70, 92
3, 280324, Note_off_c, 0, 62, 64
3, 280706, Note_on_c, 0, 69, 92
3, 280708, Note_off_c, 0, 70, 64
3, 280802, Note_on_c, 0, 66, 92
3, 280804, Note_off_c, 0, 69, 64
3, 280898, Note_on_c, 0, 61, 92
3, 280900, Note_off_c, 0, 66, 64
3, 281090, Note_on_c, 0, 62, 92
3, 281092, Note_off_c, 0, 61, 64
3, 281858, Note_on_c, 0, 75, 92
3, 281860, Note_off_c, 0, 62, 64
3, 282242, Note_on_c, 0, 74, 92
3, 282244, Note_off_c, 0, 75, 64
3, 282338, Note_on_c, 0, 70, 92
3, 282340, Note_off_c, 0, 74, 64
3, 282434, Note_on_c, 0, 66, 92
3, 282436, Note_off_c, 0, 70, 64
3, 282626, Note_on_c, 0, 67, 92
3, 282628, Note_off_c, 0, 66, 64
3, 283202, Note_on_c, 0, 72, 92
3, 283204, Note_off_c, 0, 67, 64
3, 283394, Note_on_c, 0, 70, 92
3, 283396, Note_off_c, 0, 72, 64
3, 283586, Note_on_c, 0, 69, 92
3, 283588, Note_off_c, 0, 70, 64
3, 283778, Note_on_c, 0, 70, 92
3, 283780, Note_off_c, 0, 69, 64
3, 283874, Note_on_c, 0, 67, 92
3, 283876, Note_off_c, 0, 70, 64
3, 283970, Note_on_c, 0, 62, 92
3, 283972, Note_off_c, 0, 67, 64
3, 284162, Note_on_c, 0, 63, 92
3, 284164, Note_off_c, 0, 62, 64
3, 284738, Note_on_c, 0, 68, 92
3, 284740, Note_off_c, 0, 63, 64
3, 284930, Note_on_c, 0, 67, 92
3, 284932, Note_off_c, 0, 68, 64
3, 285122, Note_on_c, 0, 65, 92
3, 285124, Note_off_c, 0, 67, 64
3, 285314, Note_on_c, 0, 67, 92
3, 285316, Note_off_c, 0, 65, 64
3, 285410, Note_on_c, 0, 63, 92
3, 285412, Note_off_c, 0, 67, 64
3, 285506, Note_on_c, 0, 59, 92
3, 285508, Note_off_c, 0, 63, 64
3, 285698, Note_on_c, 0, 60, 92
3, 285700, Note_off_c, 0, 59, 64
3, 286274, Note_on_c, 0, 65, 92
3, 286276, Note_off_c, 0, 60, 64
3, 286466, Note_on_c, 0, 63, 92
3, 286468, Note_off_c, 0, 65, 64
3, 286658, Note_on_c, 0, 62, 92
3, 286660, Note_off_c, 0, 63, 64
3, 286850, Note_on_c, 0, 63, 92
3, 286852, Note_off_c, 0, 62, 64
3, 286946, Note_on_c, 0, 62, 92
3, 286948, Note_off_c, 0, 63, 64
3, 287042, Note_on_c, 0, 60, 92
3, 287044, Note_off_c, 0, 62, 64
3, 287234, Note_on_c, 0, 65, 92
3, 287236, Note_off_c, 0, 60, 64
3, 287330, Note_on_c, 0, 63, 92
3, 287332, Note_off_c, 0, 65, 64
3, 287426, Note_on_c, 0, 62, 92
3, 287428, Note_off_c, 0, 63, 64
3, 287618, Note_on_c, 0, 67, 92
3, 287620, Note_off_c, 0, 62, 64
3, 287714, Note_on_c, 0, 65, 92
3, 287716, Note_off_c, 0, 67, 64
3, 287810, Note_on_c, 0, 63, 92
3, 287812, Note_off_c, 0, 65, 64
3, 288002, Note_on_c, 0, 69, 92
3, 288004, Note_off_c, 0, 63, 64
3, 288578, Note_on_c, 0, 70, 92
3, 288580, Note_off_c, 0, 69, 64
3, 288770, Note_on_c, 0, 65, 92
3, 288772, Note_off_c, 0, 70, 64
3, 288962, Note_on_c, 0, 74, 92
3, 288964, Note_off_c, 0, 65, 64
3, 289154, Note_on_c, 0, 67, 92
3, 289156, Note_off_c, 0, 74, 64
3, 289346, Note_on_c, 0, 74, 92
3, 289348, Note_off_c, 0, 67, 64
3, 289538, Note_on_c, 0, 72, 92
3, 289540, Note_off_c, 0, 74, 64
3, 289730, Note_on_c, 0, 70, 92
3, 289732, Note_off_c, 0, 72, 64
3, 289922, Note_on_c, 0, 69, 92
3, 289924, Note_off_c, 0, 70, 64
3, 290114, Note_on_c, 0, 70, 92
3, 290116, Note_off_c, 0, 69, 64
3, 290306, Note_on_c, 0, 69, 92
3, 290308, Note_off_c, 0, 70, 64
3, 290498, Note_on_c, 0, 67, 92
3, 290500, Note_off_c, 0, 69, 64
3, 290690, Note_on_c, 0, 65, 92
3, 290692, Note_off_c, 0, 67, 64
3, 290882, Note_on_c, 0, 63, 92
3, 290884, Note_off_c, 0, 65, 64
3, 291074, Note_on_c, 0, 62, 92
3, 291076, Note_off_c, 0, 63, 64
3, 291266, Note_on_c, 0, 60, 92
3, 291268, Note_off_c, 0, 62, 64
3, 291458, Note_on_c, 0, 62, 92
3, 291460, Note_off_c, 0, 60, 64
3, 291650, Note_on_c, 0, 70, 92
3, 291652, Note_off_c, 0, 62, 64
3, 291842, Note_on_c, 0, 63, 92
3, 291844, Note_off_c, 0, 70, 64
3, 292034, Note_on_c, 0, 72, 92
3, 292036, Note_off_c, 0, 63, 64
3, 292226, Note_on_c, 0, 62, 92
3, 292228, Note_off_c, 0, 72, 64
3, 292418, Note_on_c, 0, 70, 92
3, 292420, Note_off_c, 0, 62, 64
3, 292610, Note_on_c, 0, 60, 92
3, 292612, Note_off_c, 0, 70, 64
3, 292802, Note_on_c, 0, 69, 92
3, 292804, Note_off_c, 0, 60, 64
3, 292994, Note_on_c, 0, 62, 92
3, 292996, Note_off_c, 0, 69, 64
3, 293186, Note_on_c, 0, 70, 92
3, 293188, Note_off_c, 0, 62, 64
3, 293378, Note_on_c, 0, 63, 92
3, 293380, Note_off_c, 0, 70, 64
3, 293570, Note_on_c, 0, 72, 92
3, 293572, Note_off_c, 0, 63, 64
3, 293762, Note_on_c, 0, 62, 92
3, 293764, Note_off_c, 0, 72, 64
3, 293954, Note_on_c, 0, 70, 92
3, 293956, Note_off_c, 0, 62, 64
3, 294146, Note_on_c, 0, 60, 92
3, 294148, Note_off_c, 0, 70, 64
3, 294338, Note_on_c, 0, 69, 92
3, 294340, Note_off_c, 0, 60, 64
3, 294530, Note_on_c, 0, 62, 92
3, 294532, Note_off_c, 0, 69, 64
3, 294914, Note_on_c, 0, 63, 92
3, 294916, Note_off_c, 0, 62, 64
3, 295298, Note_on_c, 0, 62, 92
3, 295300, Note_off_c, 0, 63, 64
3, 295682, Note_on_c, 0, 60, 92
3, 295684, Note_off_c, 0, 62, 64
3, 295730, Note_on_c, 0, 62, 92
3, 295732, Note_off_c, 0, 60, 64
3, 295778, Note_on_c, 0, 60, 92
3, 295780, Note_off_c, 0, 62, 64
3, 296066, Note_on_c, 0, 58, 92
3, 296068, Note_off_c, 0, 60, 64
3, 296836, Note_off_c, 0, 58, 64
3, 297218, Note_on_c, 0, 70, 92
3, 297602, Note_on_c, 0, 70, 92
3, 297604, Note_off_c, 0, 70, 64
3, 297650, Note_on_c, 0, 72, 92
3, 297652, Note_off_c, 0, 70, 64
3, 297698, Note_on_c, 0, 70, 92
3, 297700, Note_off_c, 0, 72, 64
3, 300866, Note_on_c, 0, 63, 92
3, 300868, Note_off_c, 0, 70, 64
3, 301058, Note_on_c, 0, 72, 92
3, 301060, Note_off_c, 0, 63, 64
3, 301250, Note_on_c, 0, 63, 92
3, 301252, Note_off_c, 0, 72, 64
3, 301442, Note_on_c, 0, 70, 92
3, 301444, Note_off_c, 0, 63, 64
3, 301634, Note_on_c, 0, 63, 92
3, 301636, Note_off_c, 0, 70, 64
3, 301826, Note_on_c, 0, 68, 92
3, 301828, Note_off_c, 0, 63, 64
3, 302018, Note_on_c, 0, 62, 92
3, 302020, Note_off_c, 0, 68, 64
3, 302210, Note_on_c, 0, 67, 92
3, 302212, Note_off_c, 0, 62, 64
3, 302402, Note_on_c, 0, 68, 92
3, 302404, Note_off_c, 0, 67, 64
3, 302594, Note_on_c, 0, 67, 92
3, 302596, Note_off_c, 0, 68, 64
3, 302786, Note_on_c, 0, 65, 92
3, 302788, Note_off_c, 0, 67, 64
3, 302978, Note_on_c, 0, 63, 92
3, 302980, Note_off_c, 0, 65, 64
3, 303170, Note_on_c, 0, 65, 92
3, 303172, Note_off_c, 0, 63, 64
3, 303362, Note_on_c, 0, 67, 92
3, 303364, Note_off_c, 0, 65, 64
3, 303554, Note_on_c, 0, 63, 92
3, 303556, Note_off_c, 0, 67, 64
3, 303746, Note_on_c, 0, 65, 92
3, 303748, Note_off_c, 0, 63, 64
3, 303938, Note_on_c, 0, 67, 92
3, 303940, Note_off_c, 0, 65, 64
3, 304130, Note_on_c, 0, 65, 92
3, 304132, Note_off_c, 0, 67, 64
3, 304322, Note_on_c, 0, 63, 92
3, 304324, Note_off_c, 0, 65, 64
3, 304514, Note_on_c, 0, 65, 92
3, 304516, Note_off_c, 0, 63, 64
3, 304706, Note_on_c, 0, 58, 92
3, 304708, Note_off_c, 0, 65, 64
3, 304898, Note_on_c, 0, 67, 92
3, 304900, Note_off_c, 0, 58, 64
3, 305090, Note_on_c, 0, 58, 92
3, 305092, Note_off_c, 0, 67, 64
3, 305282, Note_on_c, 0, 68, 92
3, 305284, Note_off_c, 0, 58, 64
3, 305474, Note_on_c, 0, 70, 92
3, 305476, Note_off_c, 0, 68, 64
3, 305666, Note_on_c, 0, 68, 92
3, 305668, Note_off_c, 0, 70, 64
3, 305858, Note_on_c, 0, 67, 92
3, 305860, Note_off_c, 0, 68, 64
3, 306050, Note_on_c, 0, 65, 92
3, 306052, Note_off_c, 0, 67, 64
3, 306242, Note_on_c, 0, 67, 92
3, 306244, Note_off_c, 0, 65, 64
3, 306434, Note_on_c, 0, 68, 92
3, 306436, Note_off_c, 0, 67, 64
3, 306626, Note_on_c, 0, 65, 92
3, 306628, Note_off_c, 0, 68, 64
3, 306818, Note_on_c, 0, 67, 92
3, 306820, Note_off_c, 0, 65, 64
3, 307010, Note_on_c, 0, 68, 92
3, 307012, Note_off_c, 0, 67, 64
3, 307202, Note_on_c, 0, 67, 92
3, 307204, Note_off_c, 0, 68, 64
3, 307394, Note_on_c, 0, 65, 92
3, 307396, Note_off_c, 0, 67, 64
3, 307586, Note_on_c, 0, 67, 92
3, 307588, Note_off_c, 0, 65, 64
3, 307778, Note_on_c, 0, 60, 92
3, 307780, Note_off_c, 0, 67, 64
3, 307970, Note_on_c, 0, 69, 92
3, 307972, Note_off_c, 0, 60, 64
3, 308162, Note_on_c, 0, 60, 92
3, 308164, Note_off_c, 0, 69, 64
3, 308354, Note_on_c, 0, 70, 92
3, 308356, Note_off_c, 0, 60, 64
3, 308546, Note_on_c, 0, 72, 92
3, 308548, Note_off_c, 0, 70, 64
3, 308738, Note_on_c, 0, 70, 92
3, 308740, Note_off_c, 0, 72, 64
3, 308930, Note_on_c, 0, 69, 92
3, 308932, Note_off_c, 0, 70, 64
3, 309122, Note_on_c, 0, 67, 92
3, 309124, Note_off_c, 0, 69, 64
3, 309314, Note_on_c, 0, 69, 92
3, 309316, Note_off_c, 0, 67, 64
3, 309506, Note_on_c, 0, 70, 92
3, 309508, Note_off_c, 0, 69, 64
3, 309698, Note_on_c, 0, 67, 92
3, 309700, Note_off_c, 0, 70, 64
3, 309890, Note_on_c, 0, 69, 92
3, 309892, Note_off_c, 0, 67, 64
3, 310082, Note_on_c, 0, 70, 92
3, 310084, Note_off_c, 0, 69, 64
3, 310274, Note_on_c, 0, 69, 92
3, 310276, Note_off_c, 0, 70, 64
3, 310466, Note_on_c, 0, 67, 92
3, 310468, Note_off_c, 0, 69, 64
3, 310658, Note_on_c, 0, 66, 92
3, 310660, Note_off_c, 0, 67, 64
3, 310850, Note_on_c, 0, 67, 92
3, 310852, Note_off_c, 0, 66, 64
3, 311042, Note_on_c, 0, 69, 92
3, 311044, Note_off_c, 0, 67, 64
3, 311234, Note_on_c, 0, 66, 92
3, 311236, Note_off_c, 0, 69, 64
3, 311426, Note_on_c, 0, 67, 92
3, 311428, Note_off_c, 0, 66, 64
3, 312962, Note_on_c, 0, 72, 92
3, 312964, Note_off_c, 0, 67, 64
3, 314498, Note_on_c, 0, 70, 92
3, 314500, Note_off_c, 0, 72, 64
3, 314882, Note_on_c, 0, 72, 92
3, 314884, Note_off_c, 0, 70, 64
3, 315074, Note_on_c, 0, 74, 92
3, 315076, Note_off_c, 0, 72, 64
3, 315266, Note_on_c, 0, 75, 92
3, 315268, Note_off_c, 0, 74, 64
3, 315650, Note_on_c, 0, 63, 92
3, 315652, Note_off_c, 0, 75, 64
3, 316034, Note_on_c, 0, 68, 92
3, 316036, Note_off_c, 0, 63, 64
3, 316418, Note_on_c, 0, 67, 92
3, 316420, Note_off_c, 0, 68, 64
3, 316802, Note_on_c, 0, 65, 92
3, 316804, Note_off_c, 0, 67, 64
3, 317186, Note_on_c, 0, 74, 92
3, 317188, Note_off_c, 0, 65, 64
3, 317570, Note_on_c, 0, 67, 92
3, 317572, Note_off_c, 0, 74, 64
3, 317954, Note_on_c, 0, 69, 92
3, 317956, Note_off_c, 0, 67, 64
3, 318146, Note_on_c, 0, 71, 92
3, 318148, Note_off_c, 0, 69, 64
3, 318338, Note_on_c, 0, 72, 92
3, 318340, Note_off_c, 0, 71, 64
3, 318722, Note_on_c, 0, 60, 92
3, 318724, Note_off_c, 0, 72, 64
3, 319106, Note_on_c, 0, 65, 92
3, 319108, Note_off_c, 0, 60, 64
3, 319298, Note_on_c, 0, 67, 92
3, 319300, Note_off_c, 0, 65, 64
3, 319490, Note_on_c, 0, 65, 92
3, 319492, Note_off_c, 0, 67, 64
3, 319682, Note_on_c, 0, 63, 92
3, 319684, Note_off_c, 0, 65, 64
3, 319874, Note_on_c, 0, 62, 92
3, 319876, Note_off_c, 0, 63, 64
3, 320066, Note_on_c, 0, 63, 92
3, 320068, Note_off_c, 0, 62, 64
3, 320258, Note_on_c, 0, 65, 92
3, 320260, Note_off_c, 0, 63, 64
3, 320450, Note_on_c, 0, 62, 92
3, 320452, Note_off_c, 0, 65, 64
3, 320642, Note_on_c, 0, 63, 92
3, 320644, Note_off_c, 0, 62, 64
3, 320834, Note_on_c, 0, 65, 92
3, 320836, Note_off_c, 0, 63, 64
3, 321026, Note_on_c, 0, 63, 92
3, 321028, Note_off_c, 0, 65, 64
3, 321218, Note_on_c, 0, 62, 92
3, 321220, Note_off_c, 0, 63, 64
3, 321410, Note_on_c, 0, 60, 92
3, 321412, Note_off_c, 0, 62, 64
3, 321602, Note_on_c, 0, 62, 92
3, 321604, Note_off_c, 0, 60, 64
3, 321794, Note_on_c, 0, 63, 92
3, 321796, Note_off_c, 0, 62, 64
3, 321986, Note_on_c, 0, 60, 92
3, 321988, Note_off_c, 0, 63, 64
3, 322178, Note_on_c, 0, 62, 92
3, 322180, Note_off_c, 0, 60, 64
3, 322562, Note_on_c, 0, 72, 92
3, 322564, Note_off_c, 0, 62, 64
3, 322946, Note_on_c, 0, 71, 92
3, 322948, Note_off_c, 0, 72, 64
3, 323330, Note_on_c, 0, 74, 92
3, 323332, Note_off_c, 0, 71, 64
3, 324098, Note_on_c, 0, 72, 92
3, 324100, Note_off_c, 0, 74, 64
3, 324290, Note_on_c, 0, 71, 92
3, 324292, Note_off_c, 0, 72, 64
3, 324482, Note_on_c, 0, 72, 92
3, 324484, Note_off_c, 0, 71, 64
3, 324674, Note_on_c, 0, 74, 92
3, 324676, Note_off_c, 0, 72, 64
3, 324866, Note_on_c, 0, 75, 92
3, 324868, Note_off_c, 0, 74, 64
3, 325058, Note_on_c, 0, 72, 92
3, 325060, Note_off_c, 0, 75, 64
3, 325250, Note_on_c, 0, 77, 92
3, 325252, Note_off_c, 0, 72, 64
3, 326978, Note_on_c, 0, 76, 92
3, 326980, Note_off_c, 0, 77, 64
3, 327170, Note_on_c, 0, 77, 92
3, 327172, Note_off_c, 0, 76, 64
3, 327362, Note_on_c, 0, 79, 92
3, 327364, Note_off_c, 0, 77, 64
3, 327554, Note_on_c, 0, 80, 92
3, 327556, Note_off_c, 0, 79, 64
3, 328706, Note_on_c, 0, 79, 92
3, 328708, Note_off_c, 0, 80, 64
3, 328898, Note_on_c, 0, 77, 92
3, 328900, Note_off_c, 0, 79, 64
3, 329090, Note_on_c, 0, 76, 92
3, 329092, Note_off_c, 0, 77, 64
3, 329282, Note_on_c, 0, 77, 92
3, 329284, Note_off_c, 0, 76, 64
3, 329474, Note_on_c, 0, 79, 92
3, 329476, Note_off_c, 0, 77, 64
3, 329666, Note_on_c, 0, 76, 92
3, 329668, Note_off_c, 0, 79, 64
3, 329858, Note_on_c, 0, 77, 92
3, 329860, Note_off_c, 0, 76, 64
3, 331010, Note_on_c, 0, 79, 92
3, 331012, Note_off_c, 0, 77, 64
3, 331394, Note_on_c, 0, 72, 92
3, 331396, Note_off_c, 0, 79, 64
3, 331778, Note_on_c, 0, 77, 92
3, 331780, Note_off_c, 0, 72, 64
3, 332546, Note_on_c, 0, 76, 92
3, 332548, Note_off_c, 0, 77, 64
3, 332930, Note_on_c, 0, 77, 92
3, 332932, Note_off_c, 0, 76, 64
3, 333700, Note_off_c, 0, 77, 64
3, 334082, Note_on_c, 0, 68, 92
3, 334466, Note_on_c, 0, 67, 92
3, 334468, Note_off_c, 0, 68, 64
3, 334562, Note_on_c, 0, 64, 92
3, 334564, Note_off_c, 0, 67, 64
3, 334658, Note_on_c, 0, 59, 92
3, 334660, Note_off_c, 0, 64, 64
3, 334850, Note_on_c, 0, 60, 92
3, 334852, Note_off_c, 0, 59, 64
3, 335618, Note_on_c, 0, 68, 92
3, 335620, Note_off_c, 0, 60, 64
3, 336002, Note_on_c, 0, 67, 92
3, 336004, Note_off_c, 0, 68, 64
3, 336098, Note_on_c, 0, 64, 92
3, 336100, Note_off_c, 0, 67, 64
3, 336194, Note_on_c, 0, 59, 92
3, 336196, Note_off_c, 0, 64, 64
3, 336386, Note_on_c, 0, 60, 92
3, 336388, Note_off_c, 0, 59, 64
3, 337154, Note_on_c, 0, 73, 92
3, 337156, Note_off_c, 0, 60, 64
3, 337538, Note_on_c, 0, 72, 92
3, 337540, Note_off_c, 0, 73, 64
3, 337634, Note_on_c, 0, 68, 92
3, 337636, Note_off_c, 0, 72, 64
3, 337730, Note_on_c, 0, 64, 92
3, 337732, Note_off_c, 0, 68, 64
3, 337922, Note_on_c, 0, 65, 92
3, 337924, Note_off_c, 0, 64, 64
3, 338498, Note_on_c, 0, 70, 92
3, 338500, Note_off_c, 0, 65, 64
3, 338690, Note_on_c, 0, 68, 92
3, 338692, Note_off_c, 0, 70, 64
3, 338882, Note_on_c, 0, 67, 92
3, 338884, Note_off_c, 0, 68, 64
3, 339074, Note_on_c, 0, 68, 92
3, 339076, Note_off_c, 0, 67, 64
3, 339170, Note_on_c, 0, 65, 92
3, 339172, Note_off_c, 0, 68, 64
3, 339266, Note_on_c, 0, 60, 92
3, 339268, Note_off_c, 0, 65, 64
3, 339458, Note_on_c, 0, 61, 92
3, 339460, Note_off_c, 0, 60, 64
3, 340034, Note_on_c, 0, 66, 92
3, 340036, Note_off_c, 0, 61, 64
3, 340226, Note_on_c, 0, 65, 92
3, 340228, Note_off_c, 0, 66, 64
3, 340418, Note_on_c, 0, 63, 92
3, 340420, Note_off_c, 0, 65, 64
3, 340610, Note_on_c, 0, 65, 92
3, 340612, Note_off_c, 0, 63, 64
3, 340706, Note_on_c, 0, 61, 92
3, 340708, Note_off_c, 0, 65, 64
3, 340802, Note_on_c, 0, 57, 92
3, 340804, Note_off_c, 0, 61, 64
3, 340994, Note_on_c, 0, 58, 92
3, 340996, Note_off_c, 0, 57, 64
3, 341570, Note_on_c, 0, 63, 92
3, 341572, Note_off_c, 0, 58, 64
3, 341762, Note_on_c, 0, 61, 92
3, 341764, Note_off_c, 0, 63, 64
3, 341954, Note_on_c, 0, 60, 92
3, 341956, Note_off_c, 0, 61, 64
3, 342146, Note_on_c, 0, 61, 92
3, 342148, Note_off_c, 0, 60, 64
3, 342242, Note_on_c, 0, 60, 92
3, 342244, Note_off_c, 0, 61, 64
3, 342338, Note_on_c, 0, 58, 92
3, 342340, Note_off_c, 0, 60, 64
3, 342530, Note_on_c, 0, 63, 92
3, 342532, Note_off_c, 0, 58, 64
3, 342626, Note_on_c, 0, 61, 92
3, 342628, Note_off_c, 0, 63, 64
3, 342722, Note_on_c, 0, 60, 92
3, 342724, Note_off_c, 0, 61, 64
3, 342914, Note_on_c, 0, 65, 92
3, 342916, Note_off_c, 0, 60, 64
3, 343010, Note_on_c, 0, 63, 92
3, 343012, Note_off_c, 0, 65, 64
3, 343106, Note_on_c, 0, 61, 92
3, 343108, Note_off_c, 0, 63, 64
3, 343298, Note_on_c, 0, 67, 92
3, 343300, Note_off_c, 0, 61, 64
3, 343874, Note_on_c, 0, 68, 92
3, 343876, Note_off_c, 0, 67, 64
3, 344066, Note_on_c, 0, 63, 92
3, 344068, Note_off_c, 0, 68, 64
3, 344258, Note_on_c, 0, 72, 92
3, 344260, Note_off_c, 0, 63, 64
3, 344450, Note_on_c, 0, 65, 92
3, 344452, Note_off_c, 0, 72, 64
3, 344642, Note_on_c, 0, 72, 92
3, 344644, Note_off_c, 0, 65, 64
3, 344834, Note_on_c, 0, 70, 92
3, 344836, Note_off_c, 0, 72, 64
3, 345026, Note_on_c, 0, 68, 92
3, 345028, Note_off_c, 0, 70, 64
3, 345218, Note_on_c, 0, 67, 92
3, 345220, Note_off_c, 0, 68, 64
3, 345410, Note_on_c, 0, 68, 92
3, 345412, Note_off_c, 0, 67, 64
3, 345602, Note_on_c, 0, 67, 92
3, 345604, Note_off_c, 0, 68, 64
3, 345794, Note_on_c, 0, 65, 92
3, 345796, Note_off_c, 0, 67, 64
3, 345986, Note_on_c, 0, 67, 92
3, 345988, Note_off_c, 0, 65, 64
3, 346178, Note_on_c, 0, 63, 92
3, 346180, Note_off_c, 0, 67, 64
3, 346370, Note_on_c, 0, 60, 92
3, 346372, Note_off_c, 0, 63, 64
3, 346562, Note_on_c, 0, 68, 92
3, 346564, Note_off_c, 0, 60, 64
3, 346754, Note_on_c, 0, 59, 92
3, 346756, Note_off_c, 0, 68, 64
3, 347330, Note_on_c, 0, 62, 92
3, 347332, Note_off_c, 0, 59, 64
3, 347426, Note_on_c, 0, 65, 92
3, 347428, Note_off_c, 0, 62, 64
3, 347522, Note_on_c, 0, 67, 92
3, 347524, Note_off_c, 0, 65, 64
3, 348098, Note_on_c, 0, 63, 92
3, 348100, Note_off_c, 0, 67, 64
3, 348194, Note_on_c, 0, 60, 92
3, 348196, Note_off_c, 0, 63, 64
3, 348290, Note_on_c, 0, 59, 92
3, 348292, Note_off_c, 0, 60, 64
3, 348866, Note_on_c, 0, 62, 92
3, 348868, Note_off_c, 0, 59, 64
3, 348962, Note_on_c, 0, 65, 92
3, 348964, Note_off_c, 0, 62, 64
3, 349058, Note_on_c, 0, 67, 92
3, 349060, Note_off_c, 0, 65, 64
3, 349250, Note_on_c, 0, 60, 92
3, 349252, Note_off_c, 0, 67, 64
3, 349442, Note_on_c, 0, 65, 92
3, 349444, Note_off_c, 0, 60, 64
3, 349634, Note_on_c, 0, 59, 92
3, 349636, Note_off_c, 0, 65, 64
3, 349826, Note_on_c, 0, 60, 92
3, 349828, Note_off_c, 0, 59, 64
3, 350210, Note_on_c, 0, 67, 92
3, 350212, Note_off_c, 0, 60, 64
3, 350306, Note_on_c, 0, 65, 92
3, 350308, Note_off_c, 0, 67, 64
3, 350402, Note_on_c, 0, 67, 92
3, 350404, Note_off_c, 0, 65, 64
3, 350594, Note_on_c, 0, 69, 92
3, 350596, Note_off_c, 0, 67, 64
3, 350690, Note_on_c, 0, 67, 92
3, 350692, Note_off_c, 0, 69, 64
3, 350786, Note_on_c, 0, 69, 92
3, 350788, Note_off_c, 0, 67, 64
3, 350978, Note_on_c, 0, 71, 92
3, 350980, Note_off_c, 0, 69, 64
3, 351074, Note_on_c, 0, 69, 92
3, 351076, Note_off_c, 0, 71, 64
3, 351170, Note_on_c, 0, 71, 92
3, 351172, Note_off_c, 0, 69, 64
3, 351362, Note_on_c, 0, 72, 92
3, 351364, Note_off_c, 0, 71, 64
3, 351746, Note_on_c, 0, 63, 92
3, 351748, Note_off_c, 0, 72, 64
3, 351842, Note_on_c, 0, 61, 92
3, 351844, Note_off_c, 0, 63, 64
3, 351938, Note_on_c, 0, 63, 92
3, 351940, Note_off_c, 0, 61, 64
3, 352130, Note_on_c, 0, 65, 92
3, 352132, Note_off_c, 0, 63, 64
3, 352226, Note_on_c, 0, 63, 92
3, 352228, Note_off_c, 0, 65, 64
3, 352322, Note_on_c, 0, 65, 92
3, 352324, Note_off_c, 0, 63, 64
3, 352514, Note_on_c, 0, 67, 92
3, 352516, Note_off_c, 0, 65, 64
3, 352610, Note_on_c, 0, 65, 92
3, 352612, Note_off_c, 0, 67, 64
3, 352706, Note_on_c, 0, 67, 92
3, 352708, Note_off_c, 0, 65, 64
3, 352898, Note_on_c, 0, 68, 92
3, 352900, Note_off_c, 0, 67, 64
3, 353282, Note_on_c, 0, 60, 92
3, 353284, Note_off_c, 0, 68, 64
3, 353378, Note_on_c, 0, 58, 92
3, 353380, Note_off_c, 0, 60, 64
3, 353474, Note_on_c, 0, 60, 92
3, 353476, Note_off_c, 0, 58, 64
3, 353666, Note_on_c, 0, 62, 92
3, 353668, Note_off_c, 0, 60, 64
3, 353762, Note_on_c, 0, 60, 92
3, 353764, Note_off_c, 0, 62, 64
3, 353858, Note_on_c, 0, 62, 92
3, 353860, Note_off_c, 0, 60, 64
3, 354050, Note_on_c, 0, 64, 92
3, 354052, Note_off_c, 0, 62, 64
3, 354146, Note_on_c, 0, 62, 92
3, 354148, Note_off_c, 0, 64, 64
3, 354242, Note_on_c, 0, 64, 92
3, 354244, Note_off_c, 0, 62, 64
3, 354434, Note_on_c, 0, 65, 92
3, 354436, Note_off_c, 0, 64, 64
3, 355586, Note_on_c, 0, 65, 92
3, 355588, Note_off_c, 0, 65, 64
3, 355778, Note_on_c, 0, 67, 92
3, 355780, Note_off_c, 0, 65, 64
3, 355874, Note_on_c, 0, 68, 92
3, 355876, Note_off_c, 0, 67, 64
3, 355970, Note_on_c, 0, 70, 92
3, 355972, Note_off_c, 0, 68, 64
3, 356162, Note_on_c, 0, 67, 92
3, 356164, Note_off_c, 0, 70, 64
3, 356354, Note_on_c, 0, 63, 92
3, 356356, Note_off_c, 0, 67, 64
3, 357122, Note_on_c, 0, 72, 92
3, 357124, Note_off_c, 0, 63, 64
3, 357698, Note_on_c, 0, 69, 92
3, 357700, Note_off_c, 0, 72, 64
3, 357890, Note_on_c, 0, 70, 92
3, 357892, Note_off_c, 0, 69, 64
3, 358276, Note_off_c, 0, 70, 64
3, 358658, Note_on_c, 0, 70, 92
3, 359042, Note_on_c, 0, 70, 92
3, 359044, Note_off_c, 0, 70, 64
3, 359090, Note_on_c, 0, 72, 92
3, 359092, Note_off_c, 0, 70, 64
3, 359138, Note_on_c, 0, 70, 92
3, 359140, Note_off_c, 0, 72, 64
3, 362306, Note_on_c, 0, 63, 92
3, 362308, Note_off_c, 0, 70, 64
3, 362498, Note_on_c, 0, 72, 92
3, 362500, Note_off_c, 0, 63, 64
3, 362690, Note_on_c, 0, 63, 92
3, 362692, Note_off_c, 0, 72, 64
3, 362882, Note_on_c, 0, 70, 92
3, 362884, Note_off_c, 0, 63, 64
3, 363074, Note_on_c, 0, 63, 92
3, 363076, Note_off_c, 0, 70, 64
3, 363266, Note_on_c, 0, 68, 92
3, 363268, Note_off_c, 0, 63, 64
3, 363458, Note_on_c, 0, 62, 92
3, 363460, Note_off_c, 0, 68, 64
3, 363650, Note_on_c, 0, 67, 92
3, 363652, Note_off_c, 0, 62, 64
3, 363842, Note_on_c, 0, 68, 92
3, 363844, Note_off_c, 0, 67, 64
3, 364034, Note_on_c, 0, 67, 92
3, 364036, Note_off_c, 0, 68, 64
3, 364226, Note_on_c, 0, 65, 92
3, 364228, Note_off_c, 0, 67, 64
3, 364418, Note_on_c, 0, 63, 92
3, 364420, Note_off_c, 0, 65, 64
3, 364610, Note_on_c, 0, 61, 92
3, 364612, Note_off_c, 0, 63, 64
3, 364802, Note_on_c, 0, 60, 92
3, 364804, Note_off_c, 0, 61, 64
3, 364994, Note_on_c, 0, 58, 92
3, 364996, Note_off_c, 0, 60, 64
3, 365186, Note_on_c, 0, 60, 92
3, 365188, Note_off_c, 0, 58, 64
3, 365378, Note_on_c, 0, 68, 92
3, 365380, Note_off_c, 0, 60, 64
3, 365570, Note_on_c, 0, 61, 92
3, 365572, Note_off_c, 0, 68, 64
3, 365762, Note_on_c, 0, 70, 92
3, 365764, Note_off_c, 0, 61, 64
3, 365954, Note_on_c, 0, 60, 92
3, 365956, Note_off_c, 0, 70, 64
3, 366146, Note_on_c, 0, 68, 92
3, 366148, Note_off_c, 0, 60, 64
3, 366338, Note_on_c, 0, 58, 92
3, 366340, Note_off_c, 0, 68, 64
3, 366530, Note_on_c, 0, 67, 92
3, 366532, Note_off_c, 0, 58, 64
3, 366722, Note_on_c, 0, 60, 92
3, 366724, Note_off_c, 0, 67, 64
3, 366914, Note_on_c, 0, 68, 92
3, 366916, Note_off_c, 0, 60, 64
3, 367106, Note_on_c, 0, 61, 92
3, 367108, Note_off_c, 0, 68, 64
3, 367298, Note_on_c, 0, 70, 92
3, 367300, Note_off_c, 0, 61, 64
3, 367490, Note_on_c, 0, 60, 92
3, 367492, Note_off_c, 0, 70, 64
3, 367682, Note_on_c, 0, 68, 92
3, 367684, Note_off_c, 0, 60, 64
3, 367874, Note_on_c, 0, 58, 92
3, 367876, Note_off_c, 0, 68, 64
3, 368066, Note_on_c, 0, 67, 92
3, 368068, Note_off_c, 0, 58, 64
3, 368258, Note_on_c, 0, 60, 92
3, 368260, Note_off_c, 0, 67, 64
3, 368642, Note_on_c, 0, 61, 92
3, 368644, Note_off_c, 0, 60, 64
3, 369026, Note_on_c, 0, 60, 92
3, 369028, Note_off_c, 0, 61, 64
3, 369410, Note_on_c, 0, 58, 92
3, 369412, Note_off_c, 0, 60, 64
3, 369794, Note_on_c, 0, 56, 92
3, 369796, Note_off_c, 0, 58, 64
3, 370178, Note_on_c, 0, 75, 92
3, 370180, Note_off_c, 0, 56, 64
3, 370562, Note_on_c, 0, 72, 92
3, 370564, Note_off_c, 0, 75, 64
3, 370946, Note_on_c, 0, 68, 92
3, 370948, Note_off_c, 0, 72, 64
3, 371714, Note_on_c, 0, 67, 92
3, 371716, Note_off_c, 0, 68, 64
3, 371906, Note_on_c, 0, 65, 92
3, 371908, Note_off_c, 0, 67, 64
3, 372098, Note_on_c, 0, 67, 92
3, 372100, Note_off_c, 0, 65, 64
3, 372290, Note_on_c, 0, 70, 92
3, 372292, Note_off_c, 0, 67, 64
3, 372482, Note_on_c, 0, 69, 92
3, 372484, Note_off_c, 0, 70, 64
3, 372674, Note_on_c, 0, 72, 92
3, 372676, Note_off_c, 0, 69, 64
3, 372866, Note_on_c, 0, 70, 92
3, 372868, Note_off_c, 0, 72, 64
3, 373250, Note_on_c, 0, 77, 92
3, 373252, Note_off_c, 0, 70, 64
3, 373634, Note_on_c, 0, 73, 92
3, 373636, Note_off_c, 0, 77, 64
3, 374018, Note_on_c, 0, 70, 92
3, 374020, Note_off_c, 0, 73, 64
3, 374786, Note_on_c, 0, 68, 92
3, 374788, Note_off_c, 0, 70, 64
3, 374978, Note_on_c, 0, 67, 92
3, 374980, Note_off_c, 0, 68, 64
3, 375170, Note_on_c, 0, 68, 92
3, 375172, Note_off_c, 0, 67, 64
3, 375554, Note_on_c, 0, 59, 92
3, 375556, Note_off_c, 0, 68, 64
3, 375938, Note_on_c, 0, 60, 92
3, 375940, Note_off_c, 0, 59, 64
3, 377474, Note_on_c, 0, 65, 92
3, 377476, Note_off_c, 0, 60, 64
3, 379010, Note_on_c, 0, 63, 92
3, 379012, Note_off_c, 0, 65, 64
3, 379394, Note_on_c, 0, 65, 92
3, 379396, Note_off_c, 0, 63, 64
3, 379586, Note_on_c, 0, 67, 92
3, 379588, Note_off_c, 0, 65, 64
3, 379778, Note_on_c, 0, 68, 92
3, 379780, Note_off_c, 0, 67, 64
3, 380162, Note_on_c, 0, 56, 92
3, 380164, Note_off_c, 0, 68, 64
3, 380546, Note_on_c, 0, 61, 92
3, 380548, Note_off_c, 0, 56, 64
3, 380930, Note_on_c, 0, 60, 92
3, 380932, Note_off_c, 0, 61, 64
3, 381314, Note_on_c, 0, 58, 92
3, 381316, Note_off_c, 0, 60, 64
3, 381698, Note_on_c, 0, 67, 92
3, 381700, Note_off_c, 0, 58, 64
3, 382082, Note_on_c, 0, 60, 92
3, 382084, Note_off_c, 0, 67, 64
3, 382466, Note_on_c, 0, 62, 92
3, 382468, Note_off_c, 0, 60, 64
3, 382658, Note_on_c, 0, 64, 92
3, 382660, Note_off_c, 0, 62, 64
3, 382850, Note_on_c, 0, 65, 92
3, 382852, Note_off_c, 0, 64, 64
3, 383234, Note_on_c, 0, 53, 92
3, 383236, Note_off_c, 0, 65, 64
3, 383618, Note_on_c, 0, 58, 92
3, 383620, Note_off_c, 0, 53, 64
3, 383810, Note_on_c, 0, 60, 92
3, 383812, Note_off_c, 0, 58, 64
3, 384002, Note_on_c, 0, 58, 92
3, 384004, Note_off_c, 0, 60, 64
3, 384194, Note_on_c, 0, 56, 92
3, 384196, Note_off_c, 0, 58, 64
3, 384386, Note_on_c, 0, 55, 92
3, 384388, Note_off_c, 0, 56, 64
3, 384578, Note_on_c, 0, 56, 92
3, 384580, Note_off_c, 0, 55, 64
3, 384770, Note_on_c, 0, 58, 92
3, 384772, Note_off_c, 0, 56, 64
3, 384962, Note_on_c, 0, 55, 92
3, 384964, Note_off_c, 0, 58, 64
3, 385154, Note_on_c, 0, 56, 92
3, 385156, Note_off_c, 0, 55, 64
3, 385346, Note_on_c, 0, 58, 92
3, 385348, Note_off_c, 0, 56, 64
3, 385538, Note_on_c, 0, 56, 92
3, 385540, Note_off_c, 0, 58, 64
3, 385730, Note_on_c, 0, 55, 92
3, 385732, Note_off_c, 0, 56, 64
3, 385922, Note_on_c, 0, 53, 92
3, 385924, Note_off_c, 0, 55, 64
3, 386114, Note_on_c, 0, 55, 92
3, 386116, Note_off_c, 0, 53, 64
3, 386306, Note_on_c, 0, 56, 92
3, 386308, Note_off_c, 0, 55, 64
3, 386498, Note_on_c, 0, 53, 92
3, 386500, Note_off_c, 0, 56, 64
3, 386690, Note_on_c, 0, 55, 92
3, 386692, Note_off_c, 0, 53, 64
3, 386882, Note_on_c, 0, 65, 92
3, 386884, Note_off_c, 0, 55, 64
3, 387074, Note_on_c, 0, 63, 92
3, 387076, Note_off_c, 0, 65, 64
3, 387266, Note_on_c, 0, 62, 92
3, 387268, Note_off_c, 0, 63, 64
3, 387458, Note_on_c, 0, 60, 92
3, 387460, Note_off_c, 0, 62, 64
3, 387650, Note_on_c, 0, 62, 92
3, 387652, Note_off_c, 0, 60, 64
3, 387842, Note_on_c, 0, 63, 92
3, 387844, Note_off_c, 0, 62, 64
3, 388034, Note_on_c, 0, 60, 92
3, 388036, Note_off_c, 0, 63, 64
3, 388226, Note_on_c, 0, 61, 92
3, 388228, Note_off_c, 0, 60, 64
3, 388418, Note_on_c, 0, 63, 92
3, 388420, Note_off_c, 0, 61, 64
3, 388610, Note_on_c, 0, 61, 92
3, 388612, Note_off_c, 0, 63, 64
3, 388802, Note_on_c, 0, 60, 92
3, 388804, Note_off_c, 0, 61, 64
3, 388994, Note_on_c, 0, 58, 92
3, 388996, Note_off_c, 0, 60, 64
3, 389186, Note_on_c, 0, 60, 92
3, 389188, Note_off_c, 0, 58, 64
3, 389378, Note_on_c, 0, 61, 92
3, 389380, Note_off_c, 0, 60, 64
3, 389570, Note_on_c, 0, 58, 92
3, 389572, Note_off_c, 0, 61, 64
3, 389762, Note_on_c, 0, 60, 92
3, 389764, Note_off_c, 0, 58, 64
3, 391490, Note_on_c, 0, 59, 92
3, 391492, Note_off_c, 0, 60, 64
3, 391682, Note_on_c, 0, 60, 92
3, 391684, Note_off_c, 0, 59, 64
3, 391874, Note_on_c, 0, 62, 92
3, 391876, Note_off_c, 0, 60, 64
3, 392066, Note_on_c, 0, 63, 92
3, 392068, Note_off_c, 0, 62, 64
3, 393218, Note_on_c, 0, 62, 92
3, 393220, Note_off_c, 0, 63, 64
3, 393410, Note_on_c, 0, 60, 92
3, 393412, Note_off_c, 0, 62, 64
3, 393602, Note_on_c, 0, 59, 92
3, 393604, Note_off_c, 0, 60, 64
3, 393794, Note_on_c, 0, 60, 92
3, 393796, Note_off_c, 0, 59, 64
3, 393986, Note_on_c, 0, 62, 92
3, 393988, Note_off_c, 0, 60, 64
3, 394178, Note_on_c, 0, 59, 92
3, 394180, Note_off_c, 0, 62, 64
3, 394370, Note_on_c, 0, 60, 92
3, 394372, Note_off_c, 0, 59, 64
3, 394562, Note_on_c, 0, 62, 92
3, 394564, Note_off_c, 0, 60, 64
3, 394754, Note_on_c, 0, 63, 92
3, 394756, Note_off_c, 0, 62, 64
3, 394946, Note_on_c, 0, 65, 92
3, 394948, Note_off_c, 0, 63, 64
3, 395138, Note_on_c, 0, 67, 92
3, 395140, Note_off_c, 0, 65, 64
3, 395522, Note_on_c, 0, 55, 92
3, 395524, Note_off_c, 0, 67, 64
3, 395906, Note_on_c, 0, 57, 92
3, 395908, Note_off_c, 0, 55, 64
3, 396482, Note_on_c, 0, 59, 92
3, 396484, Note_off_c, 0, 57, 64
3, 396674, Note_on_c, 0, 59, 92
3, 396676, Note_off_c, 0, 59, 64
3, 396722, Note_on_c, 0, 60, 92
3, 396724, Note_off_c, 0, 59, 64
3, 396770, Note_on_c, 0, 59, 92
3, 396772, Note_off_c, 0, 60, 64
3, 397442, Note_on_c, 0, 60, 92
3, 397444, Note_off_c, 0, 59, 64
3, 398978, Note_on_c, 0, 67, 92
3, 398980, Note_off_c, 0, 60, 64
3, 400514, Note_on_c, 0, 63, 92
3, 400516, Note_off_c, 0, 67, 64
3, 400898, Note_on_c, 0, 65, 92
3, 400900, Note_off_c, 0, 63, 64
3, 401090, Note_on_c, 0, 67, 92
3, 401092, Note_off_c, 0, 65, 64
3, 401282, Note_on_c, 0, 68, 92
3, 401284, Note_off_c, 0, 67, 64
3, 401666, Note_on_c, 0, 56, 92
3, 401668, Note_off_c, 0, 68, 64
3, 402050, Note_on_c, 0, 61, 92
3, 402052, Note_off_c, 0, 56, 64
3, 402434, Note_on_c, 0, 60, 92
3, 402436, Note_off_c, 0, 61, 64
3, 402818, Note_on_c, 0, 58, 92
3, 402820, Note_off_c, 0, 60, 64
3, 403202, Note_on_c, 0, 67, 92
3, 403204, Note_off_c, 0, 58, 64
3, 403586, Note_on_c, 0, 60, 92
3, 403588, Note_off_c, 0, 67, 64
3, 403970, Note_on_c, 0, 62, 92
3, 403972, Note_off_c, 0, 60, 64
3, 404162, Note_on_c, 0, 64, 92
3, 404164, Note_off_c, 0, 62, 64
3, 404354, Note_on_c, 0, 65, 92
3, 404356, Note_off_c, 0, 64, 64
3, 404738, Note_on_c, 0, 53, 92
3, 404740, Note_off_c, 0, 65, 64
3, 405122, Note_on_c, 0, 58, 92
3, 405124, Note_off_c, 0, 53, 64
3, 405314, Note_on_c, 0, 60, 92
3, 405316, Note_off_c, 0, 58, 64
3, 405506, Note_on_c, 0, 58, 92
3, 405508, Note_off_c, 0, 60, 64
3, 405698, Note_on_c, 0, 56, 92
3, 405700, Note_off_c, 0, 58, 64
3, 405890, Note_on_c, 0, 55, 92
3, 405892, Note_off_c, 0, 56, 64
3, 406082, Note_on_c, 0, 56, 92
3, 406084, Note_off_c, 0, 55, 64
3, 406274, Note_on_c, 0, 58, 92
3, 406276, Note_off_c, 0, 56, 64
3, 406466, Note_on_c, 0, 55, 92
3, 406468, Note_off_c, 0, 58, 64
3, 406658, Note_on_c, 0, 56, 92
3, 406660, Note_off_c, 0, 55, 64
3, 406850, Note_on_c, 0, 58, 92
3, 406852, Note_off_c, 0, 56, 64
3, 407042, Note_on_c, 0, 56, 92
3, 407044, Note_off_c, 0, 58, 64
3, 407234, Note_on_c, 0, 55, 92
3, 407236, Note_off_c, 0, 56, 64
3, 407426, Note_on_c, 0, 53, 92
3, 407428, Note_off_c, 0, 55, 64
3, 407618, Note_on_c, 0, 55, 92
3, 407620, Note_off_c, 0, 53, 64
3, 407810, Note_on_c, 0, 56, 92
3, 407812, Note_off_c, 0, 55, 64
3, 408002, Note_on_c, 0, 53, 92
3, 408004, Note_off_c, 0, 56, 64
3, 408194, Note_on_c, 0, 55, 92
3, 408196, Note_off_c, 0, 53, 64
3, 408578, Note_on_c, 0, 48, 92
3, 408580, Note_off_c, 0, 55, 64
3, 408962, Note_on_c, 0, 60, 92
3, 408964, Note_off_c, 0, 48, 64
3, 410114, Note_on_c, 0, 59, 92
3, 410116, Note_off_c, 0, 60, 64
3, 410306, Note_on_c, 0, 60, 92
3, 410308, Note_off_c, 0, 59, 64
3, 410498, Note_on_c, 0, 62, 92
3, 410500, Note_off_c, 0, 60, 64
3, 410690, Note_on_c, 0, 63, 92
3, 410692, Note_off_c, 0, 62, 64
3, 410882, Note_on_c, 0, 65, 92
3, 410884, Note_off_c, 0, 63, 64
3, 411074, Note_on_c, 0, 62, 92
3, 411076, Note_off_c, 0, 65, 64
3, 411266, Note_on_c, 0, 63, 92
3, 411268, Note_off_c, 0, 62, 64
3, 411458, Note_on_c, 0, 65, 92
3, 411460, Note_off_c, 0, 63, 64
3, 411650, Note_on_c, 0, 63, 92
3, 411652, Note_off_c, 0, 65, 64
3, 411842, Note_on_c, 0, 62, 92
3, 411844, Note_off_c, 0, 63, 64
3, 412034, Note_on_c, 0, 60, 92
3, 412036, Note_off_c, 0, 62, 64
3, 412226, Note_on_c, 0, 62, 92
3, 412228, Note_off_c, 0, 60, 64
3, 412418, Note_on_c, 0, 63, 92
3, 412420, Note_off_c, 0, 62, 64
3, 412610, Note_on_c, 0, 60, 92
3, 412612, Note_off_c, 0, 63, 64
3, 412802, Note_on_c, 0, 68, 92
3, 412804, Note_off_c, 0, 60, 64
3, 412994, Note_on_c, 0, 70, 92
3, 412996, Note_off_c, 0, 68, 64
3, 413186, Note_on_c, 0, 68, 92
3, 413188, Note_off_c, 0, 70, 64
3, 413378, Note_on_c, 0, 67, 92
3, 413380, Note_off_c, 0, 68, 64
3, 413570, Note_on_c, 0, 65, 92
3, 413572, Note_off_c, 0, 67, 64
3, 413762, Note_on_c, 0, 67, 92
3, 413764, Note_off_c, 0, 65, 64
3, 413954, Note_on_c, 0, 68, 92
3, 413956, Note_off_c, 0, 67, 64
3, 414146, Note_on_c, 0, 65, 92
3, 414148, Note_off_c, 0, 68, 64
3, 414338, Note_on_c, 0, 67, 92
3, 414340, Note_off_c, 0, 65, 64
3, 414530, Note_on_c, 0, 68, 92
3, 414532, Note_off_c, 0, 67, 64
3, 414722, Note_on_c, 0, 67, 92
3, 414724, Note_off_c, 0, 68, 64
3, 414914, Note_on_c, 0, 65, 92
3, 414916, Note_off_c, 0, 67, 64
3, 415106, Note_on_c, 0, 63, 92
3, 415108, Note_off_c, 0, 65, 64
3, 415298, Note_on_c, 0, 62, 92
3, 415300, Note_off_c, 0, 63, 64
3, 415490, Note_on_c, 0, 60, 92
3, 415492, Note_off_c, 0, 62, 64
3, 415682, Note_on_c, 0, 59, 92
3, 415684, Note_off_c, 0, 60, 64
3, 415874, Note_on_c, 0, 60, 92
3, 415876, Note_off_c, 0, 59, 64
3, 416066, Note_on_c, 0, 59, 92
3, 416068, Note_off_c, 0, 60, 64
3, 416258, Note_on_c, 0, 60, 92
3, 416260, Note_off_c, 0, 59, 64
3, 416450, Note_on_c, 0, 63, 92
3, 416452, Note_off_c, 0, 60, 64
3, 416642, Note_on_c, 0, 62, 92
3, 416644, Note_off_c, 0, 63, 64
3, 416834, Note_on_c, 0, 60, 92
3, 416836, Note_off_c, 0, 62, 64
3, 417026, Note_on_c, 0, 59, 92
3, 417028, Note_off_c, 0, 60, 64
3, 417218, Note_on_c, 0, 60, 92
3, 417220, Note_off_c, 0, 59, 64
3, 417410, Note_on_c, 0, 59, 92
3, 417412, Note_off_c, 0, 60, 64
3, 417602, Note_on_c, 0, 55, 92
3, 417604, Note_off_c, 0, 59, 64
3, 417794, Note_on_c, 0, 57, 92
3, 417796, Note_off_c, 0, 55, 64
3, 417986, Note_on_c, 0, 59, 92
3, 417988, Note_off_c, 0, 57, 64
3, 418178, Note_on_c, 0, 60, 92
3, 418180, Note_off_c, 0, 59, 64
3, 418370, Note_on_c, 0, 59, 92
3, 418372, Note_off_c, 0, 60, 64
3, 418562, Note_on_c, 0, 60, 92
3, 418564, Note_off_c, 0, 59, 64
3, 418754, Note_on_c, 0, 62, 92
3, 418756, Note_off_c, 0, 60, 64
3, 418946, Note_on_c, 0, 63, 92
3, 418948, Note_off_c, 0, 62, 64
3, 419138, Note_on_c, 0, 65, 92
3, 419140, Note_off_c, 0, 63, 64
3, 419330, Note_on_c, 0, 63, 92
3, 419332, Note_off_c, 0, 65, 64
3, 419522, Note_on_c, 0, 62, 92
3, 419524, Note_off_c, 0, 63, 64
3, 419714, Note_on_c, 0, 60, 92
3, 419716, Note_off_c, 0, 62, 64
3, 419906, Note_on_c, 0, 59, 92
3, 419908, Note_off_c, 0, 60, 64
3, 420098, Note_on_c, 0, 60, 92
3, 420100, Note_off_c, 0, 59, 64
3, 420290, Note_on_c, 0, 62, 92
3, 420292, Note_off_c, 0, 60, 64
3, 420482, Note_on_c, 0, 63, 92
3, 420484, Note_off_c, 0, 62, 64
3, 420674, Note_on_c, 0, 62, 92
3, 420676, Note_off_c, 0, 63, 64
3, 420866, Note_on_c, 0, 63, 92
3, 420868, Note_off_c, 0, 62, 64
3, 421058, Note_on_c, 0, 65, 92
3, 421060, Note_off_c, 0, 63, 64
3, 421250, Note_on_c, 0, 67, 92
3, 421252, Note_off_c, 0, 65, 64
3, 421442, Note_on_c, 0, 65, 92
3, 421444, Note_off_c, 0, 67, 64
3, 421634, Note_on_c, 0, 63, 92
3, 421636, Note_off_c, 0, 65, 64
3, 421826, Note_on_c, 0, 65, 92
3, 421828, Note_off_c, 0, 63, 64
3, 422018, Note_on_c, 0, 67, 92
3, 422020, Note_off_c, 0, 65, 64
3, 422210, Note_on_c, 0, 68, 92
3, 422212, Note_off_c, 0, 67, 64
3, 422402, Note_on_c, 0, 67, 92
3, 422404, Note_off_c, 0, 68, 64
3, 422594, Note_on_c, 0, 65, 92
3, 422596, Note_off_c, 0, 67, 64
3, 422786, Note_on_c, 0, 63, 92
3, 422788, Note_off_c, 0, 65, 64
3, 424322, Note_on_c, 0, 62, 92
3, 424324, Note_off_c, 0, 63, 64
3, 425858, Note_on_c, 0, 60, 92
3, 425860, Note_off_c, 0, 62, 64
3, 427394, Note_on_c, 0, 59, 92
3, 427396, Note_off_c, 0, 60, 64
3, 428162, Note_on_c, 0, 60, 92
3, 428164, Note_off_c, 0, 59, 64
3, 435842, Note_on_c, 0, 60, 92
3, 435844, Note_off_c, 0, 60, 64
3, 436034, Note_on_c, 0, 59, 92
3, 436036, Note_off_c, 0, 60, 64
3, 436226, Note_on_c, 0, 57, 92
3, 436228, Note_off_c, 0, 59, 64
3, 436418, Note_on_c, 0, 59, 92
3, 436420, Note_off_c, 0, 57, 64
3, 436610, Note_on_c, 0, 60, 92
3, 436612, Note_off_c, 0, 59, 64
3, 436802, Note_on_c, 0, 63, 92
3, 436804, Note_off_c, 0, 60, 64
3, 436994, Note_on_c, 0, 62, 92
3, 436996, Note_off_c, 0, 63, 64
3, 437186, Note_on_c, 0, 60, 92
3, 437188, Note_off_c, 0, 62, 64
3, 437378, Note_on_c, 0, 59, 92
3, 437380, Note_off_c, 0, 60, 64
3, 437762, Note_on_c, 0, 55, 92
3, 437764, Note_off_c, 0, 59, 64
3, 438146, Note_on_c, 0, 60, 92
3, 438148, Note_off_c, 0, 55, 64
3, 439106, Note_on_c, 0, 59, 92
3, 439108, Note_off_c, 0, 60, 64
3, 439298, Note_on_c, 0, 60, 92
3, 439300, Note_off_c, 0, 59, 64
3, 439490, Note_on_c, 0, 57, 92
3, 439492, Note_off_c, 0, 60, 64
3, 439682, Note_on_c, 0, 60, 92
3, 439684, Note_off_c, 0, 57, 64
3, 439730, Note_on_c, 0, 59, 92
3, 439732, Note_off_c, 0, 60, 64
3, 439778, Note_on_c, 0, 60, 92
3, 439780, Note_off_c, 0, 59, 64
3, 439826, Note_on_c, 0, 59, 92
3, 439828, Note_off_c, 0, 60, 64
3, 439874, Note_on_c, 0, 60, 92
3, 439876, Note_off_c, 0, 59, 64
3, 439922, Note_on_c, 0, 59, 92
3, 439924, Note_off_c, 0, 60, 64
3, 439970, Note_on_c, 0, 60, 92
3, 439972, Note_off_c, 0, 59, 64
3, 440018, Note_on_c, 0, 59, 92
3, 440020, Note_off_c, 0, 60, 64
3, 440066, Note_on_c, 0, 60, 92
3, 440068, Note_off_c, 0, 59, 64
3, 440114, Note_on_c, 0, 59, 92
3, 440116, Note_off_c, 0, 60, 64
3, 440162, Note_on_c, 0, 60, 92
3, 440164, Note_off_c, 0, 59, 64
3, 440210, Note_on_c, 0, 59, 92
3, 440212, Note_off_c, 0, 60, 64
3, 440258, Note_on_c, 0, 60, 92
3, 440260, Note_off_c, 0, 59, 64
3, 440450, Note_on_c, 0, 60, 92
3, 440452, Note_off_c, 0, 60, 64
3, 441988, Note_off_c, 0, 60, 64
3, 442112, End_track
4, 0, Start_track
4, 0, Title_t, "Track 3"
4, 0, Note_on_c, 0, 60, 102
4, 192, Note_off_c, 0, 60, 64
4, 192, Note_on_c, 0, 48, 102
4, 384, Note_off_c, 0, 48, 64
4, 1536, Note_on_c, 0, 55, 102
4, 1728, Note_off_c, 0, 55, 64
4, 1728, Note_on_c, 0, 43, 102
4, 1920, Note_off_c, 0, 43, 64
4, 3072, Note_on_c, 0, 48, 102
4, 3264, Note_off_c, 0, 48, 64
4, 3264, Note_on_c, 0, 60, 102
4, 3456, Note_off_c, 0, 60, 64
4, 3456, Note_on_c, 0, 53, 102
4, 3648, Note_off_c, 0, 53, 64
4, 3648, Note_on_c, 0, 60, 102
4, 3840, Note_off_c, 0, 60, 64
4, 3840, Note_on_c, 0, 46, 102
4, 4032, Note_off_c, 0, 46, 64
4, 4032, Note_on_c, 0, 58, 102
4, 4224, Note_off_c, 0, 58, 64
4, 4224, Note_on_c, 0, 51, 102
4, 4416, Note_off_c, 0, 51, 64
4, 4416, Note_on_c, 0, 58, 102
4, 4608, Note_off_c, 0, 58, 64
4, 4608, Note_on_c, 0, 44, 102
4, 4800, Note_off_c, 0, 44, 64
4, 4800, Note_on_c, 0, 56, 102
4, 4992, Note_off_c, 0, 56, 64
4, 4992, Note_on_c, 0, 50, 102
4, 5184, Note_off_c, 0, 50, 64
4, 5184, Note_on_c, 0, 56, 102
4, 5376, Note_off_c, 0, 56, 64
4, 5376, Note_on_c, 0, 43, 102
4, 5568, Note_off_c, 0, 43, 64
4, 5568, Note_on_c, 0, 55, 102
4, 5952, Note_off_c, 0, 55, 64
4, 5952, Note_on_c, 0, 53, 102
4, 6144, Note_off_c, 0, 53, 64
4, 6144, Note_on_c, 0, 52, 102
4, 6336, Note_off_c, 0, 52, 64
4, 6336, Note_on_c, 0, 40, 102
4, 6528, Note_off_c, 0, 40, 64
4, 7680, Note_on_c, 0, 51, 102
4, 7872, Note_off_c, 0, 51, 64
4, 7872, Note_on_c, 0, 39, 102
4, 8064, Note_off_c, 0, 39, 64
4, 9216, Note_on_c, 0, 38, 102
4, 9408, Note_off_c, 0, 38, 64
4, 9600, Note_on_c, 0, 43, 102
4, 9792, Note_off_c, 0, 43, 64
4, 9984, Note_on_c, 0, 48, 102
4, 10176, Note_off_c, 0, 48, 64
4, 10368, Note_on_c, 0, 55, 102
4, 10560, Note_off_c, 0, 55, 64
4, 10752, Note_on_c, 0, 56, 102
4, 10944, Note_off_c, 0, 56, 64
4, 10944, Note_on_c, 0, 53, 102
4, 11136, Note_off_c, 0, 53, 64
4, 11136, Note_on_c, 0, 55, 102
4, 11328, Note_off_c, 0, 55, 64
4, 11328, Note_on_c, 0, 43, 102
4, 11520, Note_off_c, 0, 43, 64
4, 11520, Note_on_c, 0, 48, 102
4, 11712, Note_off_c, 0, 48, 64
4, 11712, Note_on_c, 0, 60, 102
4, 12096, Note_off_c, 0, 60, 64
4, 12096, Note_on_c, 0, 58, 102
4, 12288, Note_off_c, 0, 58, 64
4, 12288, Note_on_c, 0, 57, 102
4, 12480, Note_off_c, 0, 57, 64
4, 12480, Note_on_c, 0, 55, 102
4, 12672, Note_off_c, 0, 55, 64
4, 12672, Note_on_c, 0, 54, 102
4, 12864, Note_off_c, 0, 54, 64
4, 12864, Note_on_c, 0, 50, 102
4, 13056, Note_off_c, 0, 50, 64
4, 13056, Note_on_c, 0, 55, 102
4, 13248, Note_off_c, 0, 55, 64
4, 13248, Note_on_c, 0, 53, 102
4, 13440, Note_off_c, 0, 53, 64
4, 13440, Note_on_c, 0, 52, 102
4, 13632, Note_off_c, 0, 52, 64
4, 13632, Note_on_c, 0, 48, 102
4, 13824, Note_off_c, 0, 48, 64
4, 13824, Note_on_c, 0, 53, 102
4, 14016, Note_off_c, 0, 53, 64
4, 14016, Note_on_c, 0, 51, 102
4, 14208, Note_off_c, 0, 51, 64
4, 14208, Note_on_c, 0, 50, 102
4, 14400, Note_off_c, 0, 50, 64
4, 14400, Note_on_c, 0, 46, 102
4, 14592, Note_off_c, 0, 46, 64
4, 14592, Note_on_c, 0, 51, 102
4, 14976, Note_off_c, 0, 51, 64
4, 14976, Note_on_c, 0, 50, 102
4, 15168, Note_off_c, 0, 50, 64
4, 15168, Note_on_c, 0, 48, 102
4, 15360, Note_off_c, 0, 48, 64
4, 15360, Note_on_c, 0, 46, 102
4, 15552, Note_off_c, 0, 46, 64
4, 15552, Note_on_c, 0, 55, 102
4, 15744, Note_off_c, 0, 55, 64
4, 15744, Note_on_c, 0, 49, 102
4, 15936, Note_off_c, 0, 49, 64
4, 15936, Note_on_c, 0, 57, 102
4, 16128, Note_off_c, 0, 57, 64
4, 16128, Note_on_c, 0, 50, 102
4, 16320, Note_off_c, 0, 50, 64
4, 16320, Note_on_c, 0, 48, 102
4, 16512, Note_off_c, 0, 48, 64
4, 16512, Note_on_c, 0, 47, 102
4, 16704, Note_off_c, 0, 47, 64
4, 16704, Note_on_c, 0, 43, 102
4, 16896, Note_off_c, 0, 43, 64
4, 16896, Note_on_c, 0, 48, 102
4, 17088, Note_off_c, 0, 48, 64
4, 17088, Note_on_c, 0, 46, 102
4, 17280, Note_off_c, 0, 46, 64
4, 17280, Note_on_c, 0, 45, 102
4, 17472, Note_off_c, 0, 45, 64
4, 17472, Note_on_c, 0, 43, 102
4, 17664, Note_off_c, 0, 43, 64
4, 17664, Note_on_c, 0, 42, 102
4, 17856, Note_off_c, 0, 42, 64
4, 17856, Note_on_c, 0, 60, 102
4, 18048, Note_off_c, 0, 60, 64
4, 18048, Note_on_c, 0, 58, 102
4, 18240, Note_off_c, 0, 58, 64
4, 18240, Note_on_c, 0, 57, 102
4, 18432, Note_off_c, 0, 57, 64
4, 18432, Note_on_c, 0, 55, 102
4, 18624, Note_off_c, 0, 55, 64
4, 18624, Note_on_c, 0, 53, 102
4, 18816, Note_off_c, 0, 53, 64
4, 18816, Note_on_c, 0, 51, 102
4, 19008, Note_off_c, 0, 51, 64
4, 19008, Note_on_c, 0, 50, 102
4, 19200, Note_off_c, 0, 50, 64
4, 19200, Note_on_c, 0, 48, 102
4, 19392, Note_off_c, 0, 48, 64
4, 19392, Note_on_c, 0, 58, 102
4, 19584, Note_off_c, 0, 58, 64
4, 19584, Note_on_c, 0, 56, 102
4, 19776, Note_off_c, 0, 56, 64
4, 19776, Note_on_c, 0, 55, 102
4, 19968, Note_off_c, 0, 55, 64
4, 19968, Note_on_c, 0, 53, 102
4, 20160, Note_off_c, 0, 53, 64
4, 20160, Note_on_c, 0, 51, 102
4, 20352, Note_off_c, 0, 51, 64
4, 20352, Note_on_c, 0, 50, 102
4, 20544, Note_off_c, 0, 50, 64
4, 20544, Note_on_c, 0, 48, 102
4, 20736, Note_off_c, 0, 48, 64
4, 20736, Note_on_c, 0, 46, 102
4, 20928, Note_off_c, 0, 46, 64
4, 20928, Note_on_c, 0, 56, 102
4, 21120, Note_off_c, 0, 56, 64
4, 21120, Note_on_c, 0, 55, 102
4, 21312, Note_off_c, 0, 55, 64
4, 21312, Note_on_c, 0, 53, 102
4, 21504, Note_off_c, 0, 53, 64
4, 21504, Note_on_c, 0, 51, 102
4, 21696, Note_off_c, 0, 51, 64
4, 21696, Note_on_c, 0, 49, 102
4, 21888, Note_off_c, 0, 49, 64
4, 21888, Note_on_c, 0, 48, 102
4, 22080, Note_off_c, 0, 48, 64
4, 22080, Note_on_c, 0, 46, 102
4, 22272, Note_off_c, 0, 46, 64
4, 22272, Note_on_c, 0, 44, 102
4, 22464, Note_off_c, 0, 44, 64
4, 22464, Note_on_c, 0, 43, 102
4, 22656, Note_off_c, 0, 43, 64
4, 22656, Note_on_c, 0, 44, 102
4, 22848, Note_off_c, 0, 44, 64
4, 22848, Note_on_c, 0, 41, 102
4, 23040, Note_off_c, 0, 41, 64
4, 23040, Note_on_c, 0, 46, 102
4, 23424, Note_off_c, 0, 46, 64
4, 23616, Note_on_c, 0, 58, 102
4, 23808, Note_off_c, 0, 58, 64
4, 23808, Note_on_c, 0, 60, 102
4, 24000, Note_off_c, 0, 60, 64
4, 24000, Note_on_c, 0, 56, 102
4, 24192, Note_off_c, 0, 56, 64
4, 24192, Note_on_c, 0, 58, 102
4, 24384, Note_off_c, 0, 58, 64
4, 24384, Note_on_c, 0, 46, 102
4, 24576, Note_off_c, 0, 46, 64
4, 24576, Note_on_c, 0, 51, 102
4, 24768, Note_off_c, 0, 51, 64
4, 24768, Note_on_c, 0, 39, 102
4, 24960, Note_off_c, 0, 39, 64
4, 26112, Note_on_c, 0, 58, 102
4, 26304, Note_off_c, 0, 58, 64
4, 26304, Note_on_c, 0, 46, 102
4, 26496, Note_off_c, 0, 46, 64
4, 27648, Note_on_c, 0, 39, 102
4, 27840, Note_off_c, 0, 39, 64
4, 27840, Note_on_c, 0, 51, 102
4, 28032, Note_off_c, 0, 51, 64
4, 28032, Note_on_c, 0, 45, 102
4, 28224, Note_off_c, 0, 45, 64
4, 28224, Note_on_c, 0, 51, 102
4, 28416, Note_off_c, 0, 51, 64
4, 28416, Note_on_c, 0, 38, 102
4, 28608, Note_off_c, 0, 38, 64
4, 28608, Note_on_c, 0, 50, 102
4, 28800, Note_off_c, 0, 50, 64
4, 28800, Note_on_c, 0, 43, 102
4, 28992, Note_off_c, 0, 43, 64
4, 28992, Note_on_c, 0, 50, 102
4, 29184, Note_off_c, 0, 50, 64
4, 29184, Note_on_c, 0, 36, 102
4, 29376, Note_off_c, 0, 36, 64
4, 29376, Note_on_c, 0, 48, 102
4, 29568, Note_off_c, 0, 48, 64
4, 29568, Note_on_c, 0, 41, 102
4, 29760, Note_off_c, 0, 41, 64
4, 29760, Note_on_c, 0, 53, 102
4, 29952, Note_off_c, 0, 53, 64
4, 29952, Note_on_c, 0, 46, 102
4, 30336, Note_off_c, 0, 46, 64
4, 30720, Note_on_c, 0, 50, 102
4, 31104, Note_off_c, 0, 50, 64
4, 31104, Note_on_c, 0, 43, 102
4, 31488, Note_off_c, 0, 43, 64
4, 31488, Note_on_c, 0, 48, 102
4, 31872, Note_off_c, 0, 48, 64
4, 32256, Note_on_c, 0, 43, 102
4, 32640, Note_off_c, 0, 43, 64
4, 32640, Note_on_c, 0, 48, 102
4, 33024, Note_off_c, 0, 48, 64
4, 33024, Note_on_c, 0, 41, 102
4, 33216, Note_off_c, 0, 41, 64
4, 33216, Note_on_c, 0, 53, 102
4, 33600, Note_off_c, 0, 53, 64
4, 33600, Note_on_c, 0, 51, 102
4, 33792, Note_off_c, 0, 51, 64
4, 33792, Note_on_c, 0, 49, 102
4, 33984, Note_off_c, 0, 49, 64
4, 33984, Note_on_c, 0, 48, 102
4, 34176, Note_off_c, 0, 48, 64
4, 34176, Note_on_c, 0, 47, 102
4, 34368, Note_off_c, 0, 47, 64
4, 34368, Note_on_c, 0, 43, 102
4, 34560, Note_off_c, 0, 43, 64
4, 34560, Note_on_c, 0, 48, 102
4, 34752, Note_off_c, 0, 48, 64
4, 34752, Note_on_c, 0, 46, 102
4, 34944, Note_off_c, 0, 46, 64
4, 34944, Note_on_c, 0, 45, 102
4, 35136, Note_off_c, 0, 45, 64
4, 35136, Note_on_c, 0, 41, 102
4, 35328, Note_off_c, 0, 41, 64
4, 35328, Note_on_c, 0, 46, 102
4, 35520, Note_off_c, 0, 46, 64
4, 35520, Note_on_c, 0, 44, 102
4, 35712, Note_off_c, 0, 44, 64
4, 35712, Note_on_c, 0, 43, 102
4, 35904, Note_off_c, 0, 43, 64
4, 35904, Note_on_c, 0, 39, 102
4, 36096, Note_off_c, 0, 39, 64
4, 36096, Note_on_c, 0, 44, 102
4, 36288, Note_off_c, 0, 44, 64
4, 36288, Note_on_c, 0, 56, 102
4, 36480, Note_off_c, 0, 56, 64
4, 36480, Note_on_c, 0, 55, 102
4, 36672, Note_off_c, 0, 55, 64
4, 36672, Note_on_c, 0, 53, 102
4, 36864, Note_off_c, 0, 53, 64
4, 36864, Note_on_c, 0, 51, 102
4, 37056, Note_off_c, 0, 51, 64
4, 37056, Note_on_c, 0, 60, 102
4, 37248, Note_off_c, 0, 60, 64
4, 37248, Note_on_c, 0, 54, 102
4, 37440, Note_off_c, 0, 54, 64
4, 37440, Note_on_c, 0, 62, 102
4, 37632, Note_off_c, 0, 62, 64
4, 37632, Note_on_c, 0, 55, 102
4, 37824, Note_off_c, 0, 55, 64
4, 37824, Note_on_c, 0, 53, 102
4, 38016, Note_off_c, 0, 53, 64
4, 38016, Note_on_c, 0, 52, 102
4, 38208, Note_off_c, 0, 52, 64
4, 38208, Note_on_c, 0, 60, 102
4, 38400, Note_off_c, 0, 60, 64
4, 38400, Note_on_c, 0, 53, 102
4, 38592, Note_off_c, 0, 53, 64
4, 38592, Note_on_c, 0, 51, 102
4, 38784, Note_off_c, 0, 51, 64
4, 38784, Note_on_c, 0, 50, 102
4, 38976, Note_off_c, 0, 50, 64
4, 38976, Note_on_c, 0, 48, 102
4, 39168, Note_off_c, 0, 48, 64
4, 39168, Note_on_c, 0, 47, 102
4, 39360, Note_off_c, 0, 47, 64
4, 39360, Note_on_c, 0, 53, 102
4, 39552, Note_off_c, 0, 53, 64
4, 39552, Note_on_c, 0, 51, 102
4, 39744, Note_off_c, 0, 51, 64
4, 39744, Note_on_c, 0, 50, 102
4, 39936, Note_off_c, 0, 50, 64
4, 39936, Note_on_c, 0, 48, 102
4, 40128, Note_off_c, 0, 48, 64
4, 40128, Note_on_c, 0, 58, 102
4, 40320, Note_off_c, 0, 58, 64
4, 40320, Note_on_c, 0, 56, 102
4, 40512, Note_off_c, 0, 56, 64
4, 40512, Note_on_c, 0, 55, 102
4, 40704, Note_off_c, 0, 55, 64
4, 40704, Note_on_c, 0, 53, 102
4, 40896, Note_off_c, 0, 53, 64
4, 40896, Note_on_c, 0, 51, 102
4, 41088, Note_off_c, 0, 51, 64
4, 41088, Note_on_c, 0, 50, 102
4, 41280, Note_off_c, 0, 50, 64
4, 41280, Note_on_c, 0, 48, 102
4, 41472, Note_off_c, 0, 48, 64
4, 41472, Note_on_c, 0, 46, 102
4, 41664, Note_off_c, 0, 46, 64
4, 41664, Note_on_c, 0, 56, 102
4, 41856, Note_off_c, 0, 56, 64
4, 41856, Note_on_c, 0, 55, 102
4, 42048, Note_off_c, 0, 55, 64
4, 42048, Note_on_c, 0, 53, 102
4, 42240, Note_off_c, 0, 53, 64
4, 42240, Note_on_c, 0, 51, 102
4, 42432, Note_off_c, 0, 51, 64
4, 42432, Note_on_c, 0, 50, 102
4, 42624, Note_off_c, 0, 50, 64
4, 42624, Note_on_c, 0, 48, 102
4, 42816, Note_off_c, 0, 48, 64
4, 42816, Note_on_c, 0, 46, 102
4, 43008, Note_off_c, 0, 46, 64
4, 43008, Note_on_c, 0, 45, 102
4, 43200, Note_off_c, 0, 45, 64
4, 43200, Note_on_c, 0, 46, 102
4, 43392, Note_off_c, 0, 46, 64
4, 43392, Note_on_c, 0, 45, 102
4, 43584, Note_off_c, 0, 45, 64
4, 43584, Note_on_c, 0, 43, 102
4, 43776, Note_off_c, 0, 43, 64
4, 43776, Note_on_c, 0, 42, 102
4, 43968, Note_off_c, 0, 42, 64
4, 43968, Note_on_c, 0, 43, 102
4, 44160, Note_off_c, 0, 43, 64
4, 44160, Note_on_c, 0, 45, 102
4, 44352, Note_off_c, 0, 45, 64
4, 44352, Note_on_c, 0, 42, 102
4, 44544, Note_off_c, 0, 42, 64
4, 44544, Note_on_c, 0, 38, 102
4, 44928, Note_off_c, 0, 38, 64
4, 45120, Note_on_c, 0, 50, 102
4, 45312, Note_off_c, 0, 50, 64
4, 45312, Note_on_c, 0, 51, 102
4, 45504, Note_off_c, 0, 51, 64
4, 45504, Note_on_c, 0, 48, 102
4, 45696, Note_off_c, 0, 48, 64
4, 45696, Note_on_c, 0, 50, 102
4, 45888, Note_off_c, 0, 50, 64
4, 45888, Note_on_c, 0, 38, 102
4, 46080, Note_off_c, 0, 38, 64
4, 46080, Note_on_c, 0, 43, 102
4, 46272, Note_off_c, 0, 43, 64
4, 46272, Note_on_c, 0, 55, 102
4, 46464, Note_off_c, 0, 55, 64
4, 47616, Note_on_c, 0, 50, 102
4, 47808, Note_off_c, 0, 50, 64
4, 47808, Note_on_c, 0, 62, 102
4, 48000, Note_off_c, 0, 62, 64
4, 49152, Note_on_c, 0, 43, 102
4, 49344, Note_off_c, 0, 43, 64
4, 49344, Note_on_c, 0, 55, 102
4, 49536, Note_off_c, 0, 55, 64
4, 49536, Note_on_c, 0, 48, 102
4, 49728, Note_off_c, 0, 48, 64
4, 49728, Note_on_c, 0, 55, 102
4, 49920, Note_off_c, 0, 55, 64
4, 49920, Note_on_c, 0, 41, 102
4, 50112, Note_off_c, 0, 41, 64
4, 50112, Note_on_c, 0, 53, 102
4, 50304, Note_off_c, 0, 53, 64
4, 50304, Note_on_c, 0, 46, 102
4, 50496, Note_off_c, 0, 46, 64
4, 50496, Note_on_c, 0, 53, 102
4, 50688, Note_off_c, 0, 53, 64
4, 50688, Note_on_c, 0, 39, 102
4, 50880, Note_off_c, 0, 39, 64
4, 50880, Note_on_c, 0, 51, 102
4, 51072, Note_off_c, 0, 51, 64
4, 51072, Note_on_c, 0, 45, 102
4, 51264, Note_off_c, 0, 45, 64
4, 51264, Note_on_c, 0, 51, 102
4, 51456, Note_off_c, 0, 51, 64
4, 51456, Note_on_c, 0, 38, 102
4, 51648, Note_off_c, 0, 38, 64
4, 51648, Note_on_c, 0, 50, 102
4, 52032, Note_off_c, 0, 50, 64
4, 52032, Note_on_c, 0, 48, 102
4, 52224, Note_off_c, 0, 48, 64
4, 52224, Note_on_c, 0, 47, 102
4, 52416, Note_off_c, 0, 47, 64
4, 52416, Note_on_c, 0, 59, 102
4, 52608, Note_off_c, 0, 59, 64
4, 53760, Note_on_c, 0, 46, 102
4, 53952, Note_off_c, 0, 46, 64
4, 53952, Note_on_c, 0, 58, 102
4, 54144, Note_off_c, 0, 58, 64
4, 55296, Note_on_c, 0, 45, 102
4, 55488, Note_off_c, 0, 45, 64
4, 55680, Note_on_c, 0, 50, 102
4, 55872, Note_off_c, 0, 50, 64
4, 56064, Note_on_c, 0, 55, 102
4, 56256, Note_off_c, 0, 55, 64
4, 56448, Note_on_c, 0, 50, 102
4, 56640, Note_off_c, 0, 50, 64
4, 56832, Note_on_c, 0, 51, 102
4, 57024, Note_off_c, 0, 51, 64
4, 57024, Note_on_c, 0, 48, 102
4, 57216, Note_off_c, 0, 48, 64
4, 57216, Note_on_c, 0, 50, 102
4, 57408, Note_off_c, 0, 50, 64
4, 57408, Note_on_c, 0, 38, 102
4, 57600, Note_off_c, 0, 38, 64
4, 57600, Note_on_c, 0, 43, 102
4, 57792, Note_off_c, 0, 43, 64
4, 57792, Note_on_c, 0, 55, 102
4, 57984, Note_off_c, 0, 55, 64
4, 57984, Note_on_c, 0, 46, 102
4, 58176, Note_off_c, 0, 46, 64
4, 58176, Note_on_c, 0, 50, 102
4, 58368, Note_off_c, 0, 50, 64
4, 58368, Note_on_c, 0, 43, 102
4, 58560, Note_off_c, 0, 43, 64
4, 58560, Note_on_c, 0, 55, 102
4, 58752, Note_off_c, 0, 55, 64
4, 59136, Note_on_c, 0, 43, 102
4, 59328, Note_off_c, 0, 43, 64
4, 59328, Note_on_c, 0, 55, 102
4, 59520, Note_off_c, 0, 55, 64
4, 59904, Note_on_c, 0, 43, 102
4, 60096, Note_off_c, 0, 43, 64
4, 60096, Note_on_c, 0, 55, 102
4, 60288, Note_off_c, 0, 55, 64
4, 60672, Note_on_c, 0, 43, 102
4, 60864, Note_off_c, 0, 43, 64
4, 60864, Note_on_c, 0, 55, 102
4, 61056, Note_off_c, 0, 55, 64
4, 61440, Note_on_c, 0, 43, 102
4, 61632, Note_off_c, 0, 43, 64
4, 61632, Note_on_c, 0, 55, 102
4, 61824, Note_off_c, 0, 55, 64
4, 62208, Note_on_c, 0, 43, 102
4, 62400, Note_off_c, 0, 43, 64
4, 62400, Note_on_c, 0, 55, 102
4, 62592, Note_off_c, 0, 55, 64
4, 62976, Note_on_c, 0, 43, 102
4, 68352, Note_off_c, 0, 43, 64
4, 70080, Note_on_c, 0, 48, 102
4, 70272, Note_off_c, 0, 48, 64
4, 70272, Note_on_c, 0, 51, 102
4, 70464, Note_off_c, 0, 51, 64
4, 70464, Note_on_c, 0, 55, 102
4, 70656, Note_off_c, 0, 55, 64
4, 70656, Note_on_c, 0, 48, 102
4, 70848, Note_off_c, 0, 48, 64
4, 70848, Note_on_c, 0, 60, 102
4, 71040, Note_off_c, 0, 60, 64
4, 71424, Note_on_c, 0, 48, 102
4, 71616, Note_off_c, 0, 48, 64
4, 71616, Note_on_c, 0, 60, 102
4, 71808, Note_off_c, 0, 60, 64
4, 72192, Note_on_c, 0, 48, 102
4, 72384, Note_off_c, 0, 48, 64
4, 72384, Note_on_c, 0, 60, 102
4, 72576, Note_off_c, 0, 60, 64
4, 72960, Note_on_c, 0, 48, 102
4, 73152, Note_off_c, 0, 48, 64
4, 73152, Note_on_c, 0, 60, 102
4, 73344, Note_off_c, 0, 60, 64
4, 73728, Note_on_c, 0, 48, 102
4, 73920, Note_off_c, 0, 48, 64
4, 73920, Note_on_c, 0, 60, 102
4, 74112, Note_off_c, 0, 60, 64
4, 74496, Note_on_c, 0, 48, 102
4, 74688, Note_off_c, 0, 48, 64
4, 74688, Note_on_c, 0, 60, 102
4, 74880, Note_off_c, 0, 60, 64
4, 75264, Note_on_c, 0, 48, 102
4, 80640, Note_off_c, 0, 48, 64
4, 82368, Note_on_c, 0, 53, 102
4, 82560, Note_off_c, 0, 53, 64
4, 82560, Note_on_c, 0, 44, 102
4, 82752, Note_off_c, 0, 44, 64
4, 82752, Note_on_c, 0, 48, 102
4, 82944, Note_off_c, 0, 48, 64
4, 82944, Note_on_c, 0, 41, 102
4, 83136, Note_off_c, 0, 41, 64
4, 83136, Note_on_c, 0, 56, 102
4, 83328, Note_off_c, 0, 56, 64
4, 83328, Note_on_c, 0, 55, 102
4, 83520, Note_off_c, 0, 55, 64
4, 83520, Note_on_c, 0, 53, 102
4, 83712, Note_off_c, 0, 53, 64
4, 83712, Note_on_c, 0, 44, 102
4, 83904, Note_off_c, 0, 44, 64
4, 83904, Note_on_c, 0, 56, 102
4, 84096, Note_off_c, 0, 56, 64
4, 84096, Note_on_c, 0, 55, 102
4, 84288, Note_off_c, 0, 55, 64
4, 84288, Note_on_c, 0, 53, 102
4, 84480, Note_off_c, 0, 53, 64
4, 84480, Note_on_c, 0, 46, 102
4, 84672, Note_off_c, 0, 46, 64
4, 84672, Note_on_c, 0, 56, 102
4, 84864, Note_off_c, 0, 56, 64
4, 84864, Note_on_c, 0, 55, 102
4, 85056, Note_off_c, 0, 55, 64
4, 85056, Note_on_c, 0, 53, 102
4, 85248, Note_off_c, 0, 53, 64
4, 85248, Note_on_c, 0, 50, 102
4, 85440, Note_off_c, 0, 50, 64
4, 85440, Note_on_c, 0, 56, 102
4, 85632, Note_off_c, 0, 56, 64
4, 85632, Note_on_c, 0, 55, 102
4, 85824, Note_off_c, 0, 55, 64
4, 85824, Note_on_c, 0, 53, 102
4, 86016, Note_off_c, 0, 53, 64
4, 86016, Note_on_c, 0, 39, 102
4, 86208, Note_off_c, 0, 39, 64
4, 86208, Note_on_c, 0, 55, 102
4, 86400, Note_off_c, 0, 55, 64
4, 86400, Note_on_c, 0, 53, 102
4, 86592, Note_off_c, 0, 53, 64
4, 86592, Note_on_c, 0, 51, 102
4, 86784, Note_off_c, 0, 51, 64
4, 86784, Note_on_c, 0, 43, 102
4, 86976, Note_off_c, 0, 43, 64
4, 86976, Note_on_c, 0, 55, 102
4, 87168, Note_off_c, 0, 55, 64
4, 87168, Note_on_c, 0, 53, 102
4, 87360, Note_off_c, 0, 53, 64
4, 87360, Note_on_c, 0, 51, 102
4, 87552, Note_off_c, 0, 51, 64
4, 87552, Note_on_c, 0, 44, 102
4, 87744, Note_off_c, 0, 44, 64
4, 87744, Note_on_c, 0, 55, 102
4, 87936, Note_off_c, 0, 55, 64
4, 87936, Note_on_c, 0, 53, 102
4, 88128, Note_off_c, 0, 53, 64
4, 88128, Note_on_c, 0, 51, 102
4, 88320, Note_off_c, 0, 51, 64
4, 88320, Note_on_c, 0, 48, 102
4, 88512, Note_off_c, 0, 48, 64
4, 88512, Note_on_c, 0, 55, 102
4, 88704, Note_off_c, 0, 55, 64
4, 88704, Note_on_c, 0, 53, 102
4, 88896, Note_off_c, 0, 53, 64
4, 88896, Note_on_c, 0, 51, 102
4, 89088, Note_off_c, 0, 51, 64
4, 89088, Note_on_c, 0, 38, 102
4, 89280, Note_off_c, 0, 38, 64
4, 89280, Note_on_c, 0, 53, 102
4, 89472, Note_off_c, 0, 53, 64
4, 89472, Note_on_c, 0, 51, 102
4, 89664, Note_off_c, 0, 51, 64
4, 89664, Note_on_c, 0, 50, 102
4, 89856, Note_off_c, 0, 50, 64
4, 89856, Note_on_c, 0, 41, 102
4, 90048, Note_off_c, 0, 41, 64
4, 90048, Note_on_c, 0, 53, 102
4, 90240, Note_off_c, 0, 53, 64
4, 90240, Note_on_c, 0, 51, 102
4, 90432, Note_off_c, 0, 51, 64
4, 90432, Note_on_c, 0, 50, 102
4, 90624, Note_off_c, 0, 50, 64
4, 90624, Note_on_c, 0, 43, 102
4, 90816, Note_off_c, 0, 43, 64
4, 90816, Note_on_c, 0, 53, 102
4, 91008, Note_off_c, 0, 53, 64
4, 91008, Note_on_c, 0, 51, 102
4, 91200, Note_off_c, 0, 51, 64
4, 91200, Note_on_c, 0, 50, 102
4, 91392, Note_off_c, 0, 50, 64
4, 91392, Note_on_c, 0, 47, 102
4, 91584, Note_off_c, 0, 47, 64
4, 91584, Note_on_c, 0, 53, 102
4, 91776, Note_off_c, 0, 53, 64
4, 91776, Note_on_c, 0, 51, 102
4, 91968, Note_off_c, 0, 51, 64
4, 91968, Note_on_c, 0, 50, 102
4, 92160, Note_off_c, 0, 50, 64
4, 92160, Note_on_c, 0, 48, 102
4, 92352, Note_off_c, 0, 48, 64
4, 92352, Note_on_c, 0, 60, 102
4, 92544, Note_off_c, 0, 60, 64
4, 92544, Note_on_c, 0, 53, 102
4, 92736, Note_off_c, 0, 53, 64
4, 92736, Note_on_c, 0, 60, 102
4, 92928, Note_off_c, 0, 60, 64
4, 92928, Note_on_c, 0, 46, 102
4, 93120, Note_off_c, 0, 46, 64
4, 93120, Note_on_c, 0, 58, 102
4, 93312, Note_off_c, 0, 58, 64
4, 93312, Note_on_c, 0, 51, 102
4, 93504, Note_off_c, 0, 51, 64
4, 93504, Note_on_c, 0, 58, 102
4, 93696, Note_off_c, 0, 58, 64
4, 93696, Note_on_c, 0, 44, 102
4, 93888, Note_off_c, 0, 44, 64
4, 93888, Note_on_c, 0, 56, 102
4, 94080, Note_off_c, 0, 56, 64
4, 94080, Note_on_c, 0, 50, 102
4, 94272, Note_off_c, 0, 50, 64
4, 94272, Note_on_c, 0, 56, 102
4, 94464, Note_off_c, 0, 56, 64
4, 94464, Note_on_c, 0, 43, 102
4, 94656, Note_off_c, 0, 43, 64
4, 94656, Note_on_c, 0, 55, 102
4, 95040, Note_off_c, 0, 55, 64
4, 95040, Note_on_c, 0, 53, 102
4, 95232, Note_off_c, 0, 53, 64
4, 95232, Note_on_c, 0, 51, 102
4, 95424, Note_off_c, 0, 51, 64
4, 95424, Note_on_c, 0, 50, 102
4, 95616, Note_off_c, 0, 50, 64
4, 95616, Note_on_c, 0, 48, 102
4, 95808, Note_off_c, 0, 48, 64
4, 95808, Note_on_c, 0, 46, 102
4, 96000, Note_off_c, 0, 46, 64
4, 96000, Note_on_c, 0, 44, 102
4, 96192, Note_off_c, 0, 44, 64
4, 96192, Note_on_c, 0, 56, 102
4, 96576, Note_off_c, 0, 56, 64
4, 96576, Note_on_c, 0, 55, 102
4, 96768, Note_off_c, 0, 55, 64
4, 96768, Note_on_c, 0, 53, 102
4, 96960, Note_off_c, 0, 53, 64
4, 96960, Note_on_c, 0, 51, 102
4, 97152, Note_off_c, 0, 51, 64
4, 97152, Note_on_c, 0, 50, 102
4, 97344, Note_off_c, 0, 50, 64
4, 97344, Note_on_c, 0, 48, 102
4, 97536, Note_off_c, 0, 48, 64
4, 97536, Note_on_c, 0, 47, 102
4, 97728, Note_off_c, 0, 47, 64
4, 97728, Note_on_c, 0, 59, 102
4, 98112, Note_off_c, 0, 59, 64
4, 98112, Note_on_c, 0, 57, 102
4, 98304, Note_off_c, 0, 57, 64
4, 98304, Note_on_c, 0, 55, 102
4, 98496, Note_off_c, 0, 55, 64
4, 98496, Note_on_c, 0, 53, 102
4, 98688, Note_off_c, 0, 53, 64
4, 98688, Note_on_c, 0, 51, 102
4, 98880, Note_off_c, 0, 51, 64
4, 98880, Note_on_c, 0, 50, 102
4, 99072, Note_off_c, 0, 50, 64
4, 99072, Note_on_c, 0, 48, 102
4, 99264, Note_off_c, 0, 48, 64
4, 99264, Note_on_c, 0, 60, 102
4, 99648, Note_off_c, 0, 60, 64
4, 99648, Note_on_c, 0, 58, 102
4, 99840, Note_off_c, 0, 58, 64
4, 99840, Note_on_c, 0, 56, 102
4, 100032, Note_off_c, 0, 56, 64
4, 100032, Note_on_c, 0, 58, 102
4, 100224, Note_off_c, 0, 58, 64
4, 100224, Note_on_c, 0, 56, 102
4, 100416, Note_off_c, 0, 56, 64
4, 100416, Note_on_c, 0, 55, 102
4, 100608, Note_off_c, 0, 55, 64
4, 100608, Note_on_c, 0, 53, 102
4, 100992, Note_off_c, 0, 53, 64
4, 101376, Note_on_c, 0, 48, 102
4, 101760, Note_off_c, 0, 48, 64
4, 101760, Note_on_c, 0, 53, 102
4, 102144, Note_off_c, 0, 53, 64
4, 102144, Note_on_c, 0, 46, 102
4, 102528, Note_off_c, 0, 46, 64
4, 102912, Note_on_c, 0, 50, 102
4, 103296, Note_off_c, 0, 50, 64
4, 103296, Note_on_c, 0, 55, 102
4, 103680, Note_off_c, 0, 55, 64
4, 103680, Note_on_c, 0, 48, 102
4, 104064, Note_off_c, 0, 48, 64
4, 104448, Note_on_c, 0, 43, 102
4, 104832, Note_off_c, 0, 43, 64
4, 104832, Note_on_c, 0, 48, 102
4, 105216, Note_off_c, 0, 48, 64
4, 105216, Note_on_c, 0, 41, 102
4, 105600, Note_off_c, 0, 41, 64
4, 105984, Note_on_c, 0, 45, 102
4, 106368, Note_off_c, 0, 45, 64
4, 106368, Note_on_c, 0, 50, 102
4, 106752, Note_off_c, 0, 50, 64
4, 106752, Note_on_c, 0, 43, 102
4, 106944, Note_off_c, 0, 43, 64
4, 106944, Note_on_c, 0, 56, 102
4, 107040, Note_off_c, 0, 56, 64
4, 107040, Note_on_c, 0, 55, 102
4, 107136, Note_off_c, 0, 55, 64
4, 107136, Note_on_c, 0, 59, 102
4, 107232, Note_off_c, 0, 59, 64
4, 107232, Note_on_c, 0, 57, 102
4, 107328, Note_off_c, 0, 57, 64
4, 107328, Note_on_c, 0, 60, 102
4, 107424, Note_off_c, 0, 60, 64
4, 107424, Note_on_c, 0, 59, 102
4, 107520, Note_off_c, 0, 59, 64
4, 107520, Note_on_c, 0, 60, 102
4, 107712, Note_off_c, 0, 60, 64
4, 107712, Note_on_c, 0, 48, 102
4, 107904, Note_off_c, 0, 48, 64
4, 109056, Note_on_c, 0, 55, 102
4, 109248, Note_off_c, 0, 55, 64
4, 109248, Note_on_c, 0, 43, 102
4, 109440, Note_off_c, 0, 43, 64
4, 110592, Note_on_c, 0, 48, 102
4, 110784, Note_off_c, 0, 48, 64
4, 110784, Note_on_c, 0, 60, 102
4, 110976, Note_off_c, 0, 60, 64
4, 110976, Note_on_c, 0, 53, 102
4, 111168, Note_off_c, 0, 53, 64
4, 111168, Note_on_c, 0, 60, 102
4, 111360, Note_off_c, 0, 60, 64
4, 111360, Note_on_c, 0, 46, 102
4, 111552, Note_off_c, 0, 46, 64
4, 111552, Note_on_c, 0, 58, 102
4, 111744, Note_off_c, 0, 58, 64
4, 111744, Note_on_c, 0, 51, 102
4, 111936, Note_off_c, 0, 51, 64
4, 111936, Note_on_c, 0, 58, 102
4, 112128, Note_off_c, 0, 58, 64
4, 112128, Note_on_c, 0, 44, 102
4, 112320, Note_off_c, 0, 44, 64
4, 112320, Note_on_c, 0, 56, 102
4, 112512, Note_off_c, 0, 56, 64
4, 112512, Note_on_c, 0, 50, 102
4, 112704, Note_off_c, 0, 50, 64
4, 112704, Note_on_c, 0, 56, 102
4, 112896, Note_off_c, 0, 56, 64
4, 112896, Note_on_c, 0, 43, 102
4, 113088, Note_off_c, 0, 43, 64
4, 113088, Note_on_c, 0, 55, 102
4, 113472, Note_off_c, 0, 55, 64
4, 113472, Note_on_c, 0, 53, 102
4, 113664, Note_off_c, 0, 53, 64
4, 113664, Note_on_c, 0, 52, 102
4, 113856, Note_off_c, 0, 52, 64
4, 113856, Note_on_c, 0, 40, 102
4, 114048, Note_off_c, 0, 40, 64
4, 115200, Note_on_c, 0, 51, 102
4, 115392, Note_off_c, 0, 51, 64
4, 115392, Note_on_c, 0, 39, 102
4, 115584, Note_off_c, 0, 39, 64
4, 116736, Note_on_c, 0, 38, 102
4, 116928, Note_off_c, 0, 38, 64
4, 117120, Note_on_c, 0, 43, 102
4, 117312, Note_off_c, 0, 43, 64
4, 117504, Note_on_c, 0, 48, 102
4, 117696, Note_off_c, 0, 48, 64
4, 117888, Note_on_c, 0, 55, 102
4, 118080, Note_off_c, 0, 55, 64
4, 118272, Note_on_c, 0, 56, 102
4, 118464, Note_off_c, 0, 56, 64
4, 118464, Note_on_c, 0, 53, 102
4, 118656, Note_off_c, 0, 53, 64
4, 118656, Note_on_c, 0, 55, 102
4, 118848, Note_off_c, 0, 55, 64
4, 118848, Note_on_c, 0, 43, 102
4, 119040, Note_off_c, 0, 43, 64
4, 119040, Note_on_c, 0, 48, 102
4, 119808, Note_off_c, 0, 48, 64
4, 121346, Note_on_c, 0, 51, 102
4, 121730, Note_on_c, 0, 55, 102
4, 121732, Note_off_c, 0, 51, 64
4, 122114, Note_on_c, 0, 51, 102
4, 122116, Note_off_c, 0, 55, 64
4, 122498, Note_on_c, 0, 58, 102
4, 122500, Note_off_c, 0, 51, 64
4, 122882, Note_on_c, 0, 46, 102
4, 122884, Note_off_c, 0, 58, 64
4, 123266, Note_on_c, 0, 58, 102
4, 123268, Note_off_c, 0, 46, 64
4, 123650, Note_on_c, 0, 48, 102
4, 123652, Note_off_c, 0, 58, 64
4, 124034, Note_on_c, 0, 53, 102
4, 124036, Note_off_c, 0, 48, 64
4, 124418, Note_on_c, 0, 56, 102
4, 124420, Note_off_c, 0, 53, 64
4, 124802, Note_on_c, 0, 46, 102
4, 124804, Note_off_c, 0, 56, 64
4, 125186, Note_on_c, 0, 51, 102
4, 125188, Note_off_c, 0, 46, 64
4, 125570, Note_on_c, 0, 55, 102
4, 125572, Note_off_c, 0, 51, 64
4, 125954, Note_on_c, 0, 44, 102
4, 125956, Note_off_c, 0, 55, 64
4, 127490, Note_on_c, 0, 53, 102
4, 127492, Note_off_c, 0, 44, 64
4, 127874, Note_on_c, 0, 55, 102
4, 127876, Note_off_c, 0, 53, 64
4, 128258, Note_on_c, 0, 56, 102
4, 128260, Note_off_c, 0, 55, 64
4, 128642, Note_on_c, 0, 58, 102
4, 128644, Note_off_c, 0, 56, 64
4, 129026, Note_on_c, 0, 46, 102
4, 129028, Note_off_c, 0, 58, 64
4, 129410, Note_on_c, 0, 51, 102
4, 129412, Note_off_c, 0, 46, 64
4, 129794, Note_on_c, 0, 50, 102
4, 129796, Note_off_c, 0, 51, 64
4, 130178, Note_on_c, 0, 48, 102
4, 130180, Note_off_c, 0, 50, 64
4, 130562, Note_on_c, 0, 46, 102
4, 130564, Note_off_c, 0, 48, 64
4, 130946, Note_on_c, 0, 50, 102
4, 130948, Note_off_c, 0, 46, 64
4, 131330, Note_on_c, 0, 46, 102
4, 131332, Note_off_c, 0, 50, 64
4, 131714, Note_on_c, 0, 53, 102
4, 131716, Note_off_c, 0, 46, 64
4, 132098, Note_on_c, 0, 41, 102
4, 132100, Note_off_c, 0, 53, 64
4, 132482, Note_on_c, 0, 53, 102
4, 132484, Note_off_c, 0, 41, 64
4, 132866, Note_on_c, 0, 55, 102
4, 132868, Note_off_c, 0, 53, 64
4, 133250, Note_on_c, 0, 48, 102
4, 133252, Note_off_c, 0, 55, 64
4, 133634, Note_on_c, 0, 51, 102
4, 133636, Note_off_c, 0, 48, 64
4, 134018, Note_on_c, 0, 53, 102
4, 134020, Note_off_c, 0, 51, 64
4, 134402, Note_on_c, 0, 46, 102
4, 134404, Note_off_c, 0, 53, 64
4, 134786, Note_on_c, 0, 50, 102
4, 134788, Note_off_c, 0, 46, 64
4, 135170, Note_on_c, 0, 51, 102
4, 135172, Note_off_c, 0, 50, 64
4, 136706, Note_on_c, 0, 48, 102
4, 136708, Note_off_c, 0, 51, 64
4, 137090, Note_on_c, 0, 50, 102
4, 137092, Note_off_c, 0, 48, 64
4, 137474, Note_on_c, 0, 51, 102
4, 137476, Note_off_c, 0, 50, 64
4, 137858, Note_on_c, 0, 53, 102
4, 137860, Note_off_c, 0, 51, 64
4, 138242, Note_on_c, 0, 41, 102
4, 138244, Note_off_c, 0, 53, 64
4, 138626, Note_on_c, 0, 46, 102
4, 138628, Note_off_c, 0, 41, 64
4, 139010, Note_on_c, 0, 44, 102
4, 139012, Note_off_c, 0, 46, 64
4, 139394, Note_on_c, 0, 43, 102
4, 139396, Note_off_c, 0, 44, 64
4, 139778, Note_on_c, 0, 41, 102
4, 139780, Note_off_c, 0, 43, 64
4, 140162, Note_on_c, 0, 39, 102
4, 140164, Note_off_c, 0, 41, 64
4, 140546, Note_on_c, 0, 38, 102
4, 140548, Note_off_c, 0, 39, 64
4, 140930, Note_on_c, 0, 36, 102
4, 140932, Note_off_c, 0, 38, 64
4, 141314, Note_on_c, 0, 46, 102
4, 141316, Note_off_c, 0, 36, 64
4, 141698, Note_on_c, 0, 44, 102
4, 141700, Note_off_c, 0, 46, 64
4, 142082, Note_on_c, 0, 43, 102
4, 142084, Note_off_c, 0, 44, 64
4, 142466, Note_on_c, 0, 47, 102
4, 142468, Note_off_c, 0, 43, 64
4, 142850, Note_on_c, 0, 43, 102
4, 142852, Note_off_c, 0, 47, 64
4, 143234, Note_on_c, 0, 48, 102
4, 143236, Note_off_c, 0, 43, 64
4, 143426, Note_on_c, 0, 47, 102
4, 143428, Note_off_c, 0, 48, 64
4, 143618, Note_on_c, 0, 48, 102
4, 143620, Note_off_c, 0, 47, 64
4, 143810, Note_on_c, 0, 36, 102
4, 143812, Note_off_c, 0, 48, 64
4, 144004, Note_off_c, 0, 36, 64
4, 144194, Note_on_c, 0, 48, 102
4, 144386, Note_on_c, 0, 50, 102
4, 144388, Note_off_c, 0, 48, 64
4, 144578, Note_on_c, 0, 48, 102
4, 144580, Note_off_c, 0, 50, 64
4, 144770, Note_on_c, 0, 50, 102
4, 144772, Note_off_c, 0, 48, 64
4, 144962, Note_on_c, 0, 38, 102
4, 144964, Note_off_c, 0, 50, 64
4, 145156, Note_off_c, 0, 38, 64
4, 145346, Note_on_c, 0, 50, 102
4, 145538, Note_on_c, 0, 52, 102
4, 145540, Note_off_c, 0, 50, 64
4, 145730, Note_on_c, 0, 50, 102
4, 145732, Note_off_c, 0, 52, 64
4, 145922, Note_on_c, 0, 52, 102
4, 145924, Note_off_c, 0, 50, 64
4, 146114, Note_on_c, 0, 40, 102
4, 146116, Note_off_c, 0, 52, 64
4, 146308, Note_off_c, 0, 40, 64
4, 146498, Note_on_c, 0, 52, 102
4, 146690, Note_on_c, 0, 53, 102
4, 146692, Note_off_c, 0, 52, 64
4, 146882, Note_on_c, 0, 52, 102
4, 146884, Note_off_c, 0, 53, 64
4, 147074, Note_on_c, 0, 53, 102
4, 147076, Note_off_c, 0, 52, 64
4, 147266, Note_on_c, 0, 41, 102
4, 147268, Note_off_c, 0, 53, 64
4, 147460, Note_off_c, 0, 41, 64
4, 147650, Note_on_c, 0, 53, 102
4, 147842, Note_on_c, 0, 51, 102
4, 147844, Note_off_c, 0, 53, 64
4, 148034, Note_on_c, 0, 55, 102
4, 148036, Note_off_c, 0, 51, 64
4, 148226, Note_on_c, 0, 60, 102
4, 148228, Note_off_c, 0, 55, 64
4, 148418, Note_on_c, 0, 55, 102
4, 148420, Note_off_c, 0, 60, 64
4, 148610, Note_on_c, 0, 53, 102
4, 148612, Note_off_c, 0, 55, 64
4, 148802, Note_on_c, 0, 51, 102
4, 148804, Note_off_c, 0, 53, 64
4, 148994, Note_on_c, 0, 50, 102
4, 148996, Note_off_c, 0, 51, 64
4, 149186, Note_on_c, 0, 53, 102
4, 149188, Note_off_c, 0, 50, 64
4, 149378, Note_on_c, 0, 58, 102
4, 149380, Note_off_c, 0, 53, 64
4, 149570, Note_on_c, 0, 53, 102
4, 149572, Note_off_c, 0, 58, 64
4, 149762, Note_on_c, 0, 51, 102
4, 149764, Note_off_c, 0, 53, 64
4, 149954, Note_on_c, 0, 50, 102
4, 149956, Note_off_c, 0, 51, 64
4, 150146, Note_on_c, 0, 48, 102
4, 150148, Note_off_c, 0, 50, 64
4, 150338, Note_on_c, 0, 51, 102
4, 150340, Note_off_c, 0, 48, 64
4, 150530, Note_on_c, 0, 56, 102
4, 150532, Note_off_c, 0, 51, 64
4, 150722, Note_on_c, 0, 51, 102
4, 150724, Note_off_c, 0, 56, 64
4, 150914, Note_on_c, 0, 50, 102
4, 150916, Note_off_c, 0, 51, 64
4, 151106, Note_on_c, 0, 48, 102
4, 151108, Note_off_c, 0, 50, 64
4, 151298, Note_on_c, 0, 47, 102
4, 151300, Note_off_c, 0, 48, 64
4, 151490, Note_on_c, 0, 50, 102
4, 151492, Note_off_c, 0, 47, 64
4, 151682, Note_on_c, 0, 55, 102
4, 151684, Note_off_c, 0, 50, 64
4, 151874, Note_on_c, 0, 53, 102
4, 151876, Note_off_c, 0, 55, 64
4, 152066, Note_on_c, 0, 51, 102
4, 152068, Note_off_c, 0, 53, 64
4, 152258, Note_on_c, 0, 50, 102
4, 152260, Note_off_c, 0, 51, 64
4, 152450, Note_on_c, 0, 48, 102
4, 152452, Note_off_c, 0, 50, 64
4, 152642, Note_on_c, 0, 55, 102
4, 152644, Note_off_c, 0, 48, 64
4, 152834, Note_on_c, 0, 60, 102
4, 152836, Note_off_c, 0, 55, 64
4, 153026, Note_on_c, 0, 58, 102
4, 153028, Note_off_c, 0, 60, 64
4, 153218, Note_on_c, 0, 57, 102
4, 153220, Note_off_c, 0, 58, 64
4, 153410, Note_on_c, 0, 55, 102
4, 153412, Note_off_c, 0, 57, 64
4, 153602, Note_on_c, 0, 53, 102
4, 153604, Note_off_c, 0, 55, 64
4, 153794, Note_on_c, 0, 46, 102
4, 153796, Note_off_c, 0, 53, 64
4, 153986, Note_on_c, 0, 58, 102
4, 153988, Note_off_c, 0, 46, 64
4, 154178, Note_on_c, 0, 56, 102
4, 154180, Note_off_c, 0, 58, 64
4, 154370, Note_on_c, 0, 55, 102
4, 154372, Note_off_c, 0, 56, 64
4, 154562, Note_on_c, 0, 53, 102
4, 154564, Note_off_c, 0, 55, 64
4, 154754, Note_on_c, 0, 51, 102
4, 154756, Note_off_c, 0, 53, 64
4, 154946, Note_on_c, 0, 45, 102
4, 154948, Note_off_c, 0, 51, 64
4, 155138, Note_on_c, 0, 57, 102
4, 155140, Note_off_c, 0, 45, 64
4, 155330, Note_on_c, 0, 55, 102
4, 155332, Note_off_c, 0, 57, 64
4, 155522, Note_on_c, 0, 54, 102
4, 155524, Note_off_c, 0, 55, 64
4, 155714, Note_on_c, 0, 52, 102
4, 155716, Note_off_c, 0, 54, 64
4, 155906, Note_on_c, 0, 50, 102
4, 155908, Note_off_c, 0, 52, 64
4, 156098, Note_on_c, 0, 43, 102
4, 156100, Note_off_c, 0, 50, 64
4, 156290, Note_on_c, 0, 55, 102
4, 156292, Note_off_c, 0, 43, 64
4, 156482, Note_on_c, 0, 53, 102
4, 156484, Note_off_c, 0, 55, 64
4, 156674, Note_on_c, 0, 51, 102
4, 156676, Note_off_c, 0, 53, 64
4, 156866, Note_on_c, 0, 50, 102
4, 156868, Note_off_c, 0, 51, 64
4, 157058, Note_on_c, 0, 48, 102
4, 157060, Note_off_c, 0, 50, 64
4, 158594, Note_on_c, 0, 45, 102
4, 158596, Note_off_c, 0, 48, 64
4, 158978, Note_on_c, 0, 46, 102
4, 158980, Note_off_c, 0, 45, 64
4, 159362, Note_on_c, 0, 48, 102
4, 159364, Note_off_c, 0, 46, 64
4, 159746, Note_on_c, 0, 50, 102
4, 159748, Note_off_c, 0, 48, 64
4, 160130, Note_on_c, 0, 38, 102
4, 160132, Note_off_c, 0, 50, 64
4, 160514, Note_on_c, 0, 55, 102
4, 160516, Note_off_c, 0, 38, 64
4, 160706, Note_on_c, 0, 54, 102
4, 160708, Note_off_c, 0, 55, 64
4, 160898, Note_on_c, 0, 55, 102
4, 160900, Note_off_c, 0, 54, 64
4, 161090, Note_on_c, 0, 43, 102
4, 161092, Note_off_c, 0, 55, 64
4, 161284, Note_off_c, 0, 43, 64
4, 161474, Note_on_c, 0, 55, 102
4, 161666, Note_on_c, 0, 56, 102
4, 161668, Note_off_c, 0, 55, 64
4, 161858, Note_on_c, 0, 55, 102
4, 161860, Note_off_c, 0, 56, 64
4, 162050, Note_on_c, 0, 56, 102
4, 162052, Note_off_c, 0, 55, 64
4, 162242, Note_on_c, 0, 44, 102
4, 162244, Note_off_c, 0, 56, 64
4, 162436, Note_off_c, 0, 44, 64
4, 162626, Note_on_c, 0, 57, 102
4, 162818, Note_on_c, 0, 58, 102
4, 162820, Note_off_c, 0, 57, 64
4, 163010, Note_on_c, 0, 57, 102
4, 163012, Note_off_c, 0, 58, 64
4, 163202, Note_on_c, 0, 58, 102
4, 163204, Note_off_c, 0, 57, 64
4, 163394, Note_on_c, 0, 46, 102
4, 163396, Note_off_c, 0, 58, 64
4, 163588, Note_off_c, 0, 46, 64
4, 163778, Note_on_c, 0, 59, 102
4, 163970, Note_on_c, 0, 60, 102
4, 163972, Note_off_c, 0, 59, 64
4, 164162, Note_on_c, 0, 59, 102
4, 164164, Note_off_c, 0, 60, 64
4, 164354, Note_on_c, 0, 60, 102
4, 164356, Note_off_c, 0, 59, 64
4, 164546, Note_on_c, 0, 48, 102
4, 164548, Note_off_c, 0, 60, 64
4, 164740, Note_off_c, 0, 48, 64
4, 164930, Note_on_c, 0, 60, 102
4, 165122, Note_on_c, 0, 58, 102
4, 165124, Note_off_c, 0, 60, 64
4, 165314, Note_on_c, 0, 46, 102
4, 165316, Note_off_c, 0, 58, 64
4, 165506, Note_on_c, 0, 51, 102
4, 165508, Note_off_c, 0, 46, 64
4, 165698, Note_on_c, 0, 50, 102
4, 165700, Note_off_c, 0, 51, 64
4, 165890, Note_on_c, 0, 48, 102
4, 165892, Note_off_c, 0, 50, 64
4, 166082, Note_on_c, 0, 46, 102
4, 166084, Note_off_c, 0, 48, 64
4, 166274, Note_on_c, 0, 44, 102
4, 166276, Note_off_c, 0, 46, 64
4, 166466, Note_on_c, 0, 56, 102
4, 166468, Note_off_c, 0, 44, 64
4, 166658, Note_on_c, 0, 50, 102
4, 166660, Note_off_c, 0, 56, 64
4, 166850, Note_on_c, 0, 48, 102
4, 166852, Note_off_c, 0, 50, 64
4, 167042, Note_on_c, 0, 47, 102
4, 167044, Note_off_c, 0, 48, 64
4, 167234, Note_on_c, 0, 45, 102
4, 167236, Note_off_c, 0, 47, 64
4, 167426, Note_on_c, 0, 43, 102
4, 167428, Note_off_c, 0, 45, 64
4, 167618, Note_on_c, 0, 55, 102
4, 167620, Note_off_c, 0, 43, 64
4, 167810, Note_on_c, 0, 48, 102
4, 167812, Note_off_c, 0, 55, 64
4, 168002, Note_on_c, 0, 46, 102
4, 168004, Note_off_c, 0, 48, 64
4, 168194, Note_on_c, 0, 44, 102
4, 168196, Note_off_c, 0, 46, 64
4, 168386, Note_on_c, 0, 43, 102
4, 168388, Note_off_c, 0, 44, 64
4, 168578, Note_on_c, 0, 41, 102
4, 168580, Note_off_c, 0, 43, 64
4, 170114, Note_on_c, 0, 50, 102
4, 170116, Note_off_c, 0, 41, 64
4, 170498, Note_on_c, 0, 51, 102
4, 170500, Note_off_c, 0, 50, 64
4, 170882, Note_on_c, 0, 53, 102
4, 170884, Note_off_c, 0, 51, 64
4, 171266, Note_on_c, 0, 55, 102
4, 171268, Note_off_c, 0, 53, 64
4, 171650, Note_on_c, 0, 43, 102
4, 171652, Note_off_c, 0, 55, 64
4, 172034, Note_on_c, 0, 48, 102
4, 172036, Note_off_c, 0, 43, 64
4, 172514, Note_on_c, 0, 51, 102
4, 172516, Note_off_c, 0, 48, 64
4, 172610, Note_on_c, 0, 50, 102
4, 172612, Note_off_c, 0, 51, 64
4, 172706, Note_on_c, 0, 53, 102
4, 172708, Note_off_c, 0, 50, 64
4, 172802, Note_on_c, 0, 51, 102
4, 172804, Note_off_c, 0, 53, 64
4, 172898, Note_on_c, 0, 55, 102
4, 172900, Note_off_c, 0, 51, 64
4, 172994, Note_on_c, 0, 48, 102
4, 172996, Note_off_c, 0, 55, 64
4, 173090, Note_on_c, 0, 51, 102
4, 173092, Note_off_c, 0, 48, 64
4, 173186, Note_on_c, 0, 44, 102
4, 173188, Note_off_c, 0, 51, 64
4, 173666, Note_on_c, 0, 48, 102
4, 173668, Note_off_c, 0, 44, 64
4, 173762, Note_on_c, 0, 47, 102
4, 173764, Note_off_c, 0, 48, 64
4, 173858, Note_on_c, 0, 50, 102
4, 173860, Note_off_c, 0, 47, 64
4, 173954, Note_on_c, 0, 48, 102
4, 173956, Note_off_c, 0, 50, 64
4, 174050, Note_on_c, 0, 51, 102
4, 174052, Note_off_c, 0, 48, 64
4, 174146, Note_on_c, 0, 44, 102
4, 174148, Note_off_c, 0, 51, 64
4, 174242, Note_on_c, 0, 48, 102
4, 174244, Note_off_c, 0, 44, 64
4, 174338, Note_on_c, 0, 42, 102
4, 174340, Note_off_c, 0, 48, 64
4, 175490, Note_on_c, 0, 43, 102
4, 175492, Note_off_c, 0, 42, 64
4, 176644, Note_off_c, 0, 43, 64
4, 177794, Note_on_c, 0, 48, 102
4, 178178, Note_on_c, 0, 47, 102
4, 178180, Note_off_c, 0, 48, 64
4, 178562, Note_on_c, 0, 48, 102
4, 178564, Note_off_c, 0, 47, 64
4, 178946, Note_on_c, 0, 50, 102
4, 178948, Note_off_c, 0, 48, 64
4, 179330, Note_on_c, 0, 51, 102
4, 179332, Note_off_c, 0, 50, 64
4, 179714, Note_on_c, 0, 50, 102
4, 179716, Note_off_c, 0, 51, 64
4, 180098, Note_on_c, 0, 51, 102
4, 180100, Note_off_c, 0, 50, 64
4, 180482, Note_on_c, 0, 53, 102
4, 180484, Note_off_c, 0, 51, 64
4, 180866, Note_on_c, 0, 55, 102
4, 180868, Note_off_c, 0, 53, 64
4, 181634, Note_on_c, 0, 60, 102
4, 181636, Note_off_c, 0, 55, 64
4, 182402, Note_on_c, 0, 53, 102
4, 182404, Note_off_c, 0, 60, 64
4, 183170, Note_on_c, 0, 58, 102
4, 183172, Note_off_c, 0, 53, 64
4, 183938, Note_on_c, 0, 51, 102
4, 183940, Note_off_c, 0, 58, 64
4, 184706, Note_on_c, 0, 56, 102
4, 184708, Note_off_c, 0, 51, 64
4, 185474, Note_on_c, 0, 50, 102
4, 185476, Note_off_c, 0, 56, 64
4, 186242, Note_on_c, 0, 55, 102
4, 186244, Note_off_c, 0, 50, 64
4, 187010, Note_on_c, 0, 48, 102
4, 187012, Note_off_c, 0, 55, 64
4, 187778, Note_on_c, 0, 51, 102
4, 187780, Note_off_c, 0, 48, 64
4, 188546, Note_on_c, 0, 53, 102
4, 188548, Note_off_c, 0, 51, 64
4, 189316, Note_off_c, 0, 53, 64
4, 189506, Note_on_c, 0, 55, 102
4, 189698, Note_on_c, 0, 53, 102
4, 189700, Note_off_c, 0, 55, 64
4, 189890, Note_on_c, 0, 55, 102
4, 189892, Note_off_c, 0, 53, 64
4, 190082, Note_on_c, 0, 51, 102
4, 190084, Note_off_c, 0, 55, 64
4, 190274, Note_on_c, 0, 53, 102
4, 190276, Note_off_c, 0, 51, 64
4, 190466, Note_on_c, 0, 50, 102
4, 190468, Note_off_c, 0, 53, 64
4, 190658, Note_on_c, 0, 51, 102
4, 190660, Note_off_c, 0, 50, 64
4, 190850, Note_on_c, 0, 48, 102
4, 190852, Note_off_c, 0, 51, 64
4, 191810, Note_on_c, 0, 45, 102
4, 191812, Note_off_c, 0, 48, 64
4, 192002, Note_on_c, 0, 47, 102
4, 192004, Note_off_c, 0, 45, 64
4, 192194, Note_on_c, 0, 43, 102
4, 192196, Note_off_c, 0, 47, 64
4, 192386, Note_on_c, 0, 51, 102
4, 192388, Note_off_c, 0, 43, 64
4, 192578, Note_on_c, 0, 50, 102
4, 192580, Note_off_c, 0, 51, 64
4, 192770, Note_on_c, 0, 51, 102
4, 192772, Note_off_c, 0, 50, 64
4, 192962, Note_on_c, 0, 48, 102
4, 192964, Note_off_c, 0, 51, 64
4, 193154, Note_on_c, 0, 50, 102
4, 193156, Note_off_c, 0, 48, 64
4, 193922, Note_on_c, 0, 55, 102
4, 193924, Note_off_c, 0, 50, 64
4, 194690, Note_on_c, 0, 48, 102
4, 194692, Note_off_c, 0, 55, 64
4, 195458, Note_on_c, 0, 53, 102
4, 195460, Note_off_c, 0, 48, 64
4, 196226, Note_on_c, 0, 46, 102
4, 196228, Note_off_c, 0, 53, 64
4, 196994, Note_on_c, 0, 51, 102
4, 196996, Note_off_c, 0, 46, 64
4, 197762, Note_on_c, 0, 45, 102
4, 197764, Note_off_c, 0, 51, 64
4, 198530, Note_on_c, 0, 50, 102
4, 198532, Note_off_c, 0, 45, 64
4, 199298, Note_on_c, 0, 43, 102
4, 199300, Note_off_c, 0, 50, 64
4, 200068, Note_off_c, 0, 43, 64
4, 200450, Note_on_c, 0, 39, 102
4, 200834, Note_on_c, 0, 36, 102
4, 200836, Note_off_c, 0, 39, 64
4, 201602, Note_on_c, 0, 38, 102
4, 201604, Note_off_c, 0, 36, 64
4, 202370, Note_on_c, 0, 43, 102
4, 202372, Note_off_c, 0, 38, 64
4, 203140, Note_off_c, 0, 43, 64
4, 210050, Note_on_c, 0, 43, 102
4, 211586, Note_on_c, 0, 48, 102
4, 211588, Note_off_c, 0, 43, 64
4, 213122, Note_on_c, 0, 46, 102
4, 213124, Note_off_c, 0, 48, 64
4, 213506, Note_on_c, 0, 48, 102
4, 213508, Note_off_c, 0, 46, 64
4, 213698, Note_on_c, 0, 50, 102
4, 213700, Note_off_c, 0, 48, 64
4, 213890, Note_on_c, 0, 51, 102
4, 213892, Note_off_c, 0, 50, 64
4, 214274, Note_on_c, 0, 39, 102
4, 214276, Note_off_c, 0, 51, 64
4, 214658, Note_on_c, 0, 44, 102
4, 214660, Note_off_c, 0, 39, 64
4, 215042, Note_on_c, 0, 43, 102
4, 215044, Note_off_c, 0, 44, 64
4, 215426, Note_on_c, 0, 41, 102
4, 215428, Note_off_c, 0, 43, 64
4, 215810, Note_on_c, 0, 50, 102
4, 215812, Note_off_c, 0, 41, 64
4, 216194, Note_on_c, 0, 43, 102
4, 216196, Note_off_c, 0, 50, 64
4, 216578, Note_on_c, 0, 45, 102
4, 216580, Note_off_c, 0, 43, 64
4, 216770, Note_on_c, 0, 47, 102
4, 216772, Note_off_c, 0, 45, 64
4, 216962, Note_on_c, 0, 48, 102
4, 216964, Note_off_c, 0, 47, 64
4, 217346, Note_on_c, 0, 36, 102
4, 217348, Note_off_c, 0, 48, 64
4, 217730, Note_on_c, 0, 41, 102
4, 217732, Note_off_c, 0, 36, 64
4, 218114, Note_on_c, 0, 39, 102
4, 218116, Note_off_c, 0, 41, 64
4, 218498, Note_on_c, 0, 38, 102
4, 218500, Note_off_c, 0, 39, 64
4, 218882, Note_on_c, 0, 41, 102
4, 218884, Note_off_c, 0, 38, 64
4, 219266, Note_on_c, 0, 39, 102
4, 219268, Note_off_c, 0, 41, 64
4, 219650, Note_on_c, 0, 38, 102
4, 219652, Note_off_c, 0, 39, 64
4, 220034, Note_on_c, 0, 36, 102
4, 220036, Note_off_c, 0, 38, 64
4, 220418, Note_on_c, 0, 39, 102
4, 220420, Note_off_c, 0, 36, 64
4, 220802, Note_on_c, 0, 38, 102
4, 220804, Note_off_c, 0, 39, 64
4, 221570, Note_on_c, 0, 43, 102
4, 221572, Note_off_c, 0, 38, 64
4, 222338, Note_on_c, 0, 36, 102
4, 222340, Note_off_c, 0, 43, 64
4, 222722, Note_on_c, 0, 43, 102
4, 222724, Note_off_c, 0, 36, 64
4, 223106, Note_on_c, 0, 48, 102
4, 223108, Note_off_c, 0, 43, 64
4, 224258, Note_on_c, 0, 47, 102
4, 224260, Note_off_c, 0, 48, 64
4, 224642, Note_on_c, 0, 55, 102
4, 224644, Note_off_c, 0, 47, 64
4, 225794, Note_on_c, 0, 48, 102
4, 225796, Note_off_c, 0, 55, 64
4, 226178, Note_on_c, 0, 53, 102
4, 226180, Note_off_c, 0, 48, 64
4, 227714, Note_on_c, 0, 52, 102
4, 227716, Note_off_c, 0, 53, 64
4, 228482, Note_on_c, 0, 53, 102
4, 228484, Note_off_c, 0, 52, 64
4, 229250, Note_on_c, 0, 49, 102
4, 229252, Note_off_c, 0, 53, 64
4, 230018, Note_on_c, 0, 46, 102
4, 230020, Note_off_c, 0, 49, 64
4, 230786, Note_on_c, 0, 48, 102
4, 230788, Note_off_c, 0, 46, 64
4, 231554, Note_on_c, 0, 41, 102
4, 231556, Note_off_c, 0, 48, 64
4, 232324, Note_off_c, 0, 41, 64
4, 232706, Note_on_c, 0, 41, 102
4, 233090, Note_on_c, 0, 48, 102
4, 233092, Note_off_c, 0, 41, 64
4, 233860, Note_off_c, 0, 48, 64
4, 234242, Note_on_c, 0, 48, 102
4, 234626, Note_on_c, 0, 43, 102
4, 234628, Note_off_c, 0, 48, 64
4, 235396, Note_off_c, 0, 43, 64
4, 235778, Note_on_c, 0, 55, 102
4, 236162, Note_on_c, 0, 60, 102
4, 236164, Note_off_c, 0, 55, 64
4, 236546, Note_on_c, 0, 58, 102
4, 236548, Note_off_c, 0, 60, 64
4, 236930, Note_on_c, 0, 56, 102
4, 236932, Note_off_c, 0, 58, 64
4, 237314, Note_on_c, 0, 55, 102
4, 237316, Note_off_c, 0, 56, 64
4, 237698, Note_on_c, 0, 53, 102
4, 237700, Note_off_c, 0, 55, 64
4, 238466, Note_on_c, 0, 58, 102
4, 238468, Note_off_c, 0, 53, 64
4, 239234, Note_on_c, 0, 51, 102
4, 239236, Note_off_c, 0, 58, 64
4, 239618, Note_on_c, 0, 50, 102
4, 239620, Note_off_c, 0, 51, 64
4, 240002, Note_on_c, 0, 48, 102
4, 240004, Note_off_c, 0, 50, 64
4, 240386, Note_on_c, 0, 51, 102
4, 240388, Note_off_c, 0, 48, 64
4, 240770, Note_on_c, 0, 44, 102
4, 240772, Note_off_c, 0, 51, 64
4, 242306, Note_on_c, 0, 43, 102
4, 242308, Note_off_c, 0, 44, 64
4, 242690, Note_on_c, 0, 53, 102
4, 242692, Note_off_c, 0, 43, 64
4, 243074, Note_on_c, 0, 51, 102
4, 243076, Note_off_c, 0, 53, 64
4, 243458, Note_on_c, 0, 50, 102
4, 243460, Note_off_c, 0, 51, 64
4, 243842, Note_on_c, 0, 48, 102
4, 243844, Note_off_c, 0, 50, 64
4, 244226, Note_on_c, 0, 50, 102
4, 244228, Note_off_c, 0, 48, 64
4, 244610, Note_on_c, 0, 51, 102
4, 244612, Note_off_c, 0, 50, 64
4, 244994, Note_on_c, 0, 50, 102
4, 244996, Note_off_c, 0, 51, 64
4, 245378, Note_on_c, 0, 48, 102
4, 245380, Note_off_c, 0, 50, 64
4, 245762, Note_on_c, 0, 46, 102
4, 245764, Note_off_c, 0, 48, 64
4, 246146, Note_on_c, 0, 44, 102
4, 246148, Note_off_c, 0, 46, 64
4, 246914, Note_on_c, 0, 51, 102
4, 246916, Note_off_c, 0, 44, 64
4, 247298, Note_on_c, 0, 50, 102
4, 247300, Note_off_c, 0, 51, 64
4, 247682, Note_on_c, 0, 48, 102
4, 247684, Note_off_c, 0, 50, 64
4, 247874, Note_on_c, 0, 60, 102
4, 247876, Note_off_c, 0, 48, 64
4, 248066, Note_on_c, 0, 58, 102
4, 248068, Note_off_c, 0, 60, 64
4, 248258, Note_on_c, 0, 60, 102
4, 248260, Note_off_c, 0, 58, 64
4, 248450, Note_on_c, 0, 53, 102
4, 248452, Note_off_c, 0, 60, 64
4, 249220, Note_off_c, 0, 53, 64
4, 249410, Note_on_c, 0, 58, 102
4, 249602, Note_on_c, 0, 56, 102
4, 249604, Note_off_c, 0, 58, 64
4, 249794, Note_on_c, 0, 58, 102
4, 249796, Note_off_c, 0, 56, 64
4, 249986, Note_on_c, 0, 51, 102
4, 249988, Note_off_c, 0, 58, 64
4, 250756, Note_off_c, 0, 51, 64
4, 250946, Note_on_c, 0, 56, 102
4, 251138, Note_on_c, 0, 55, 102
4, 251140, Note_off_c, 0, 56, 64
4, 251330, Note_on_c, 0, 56, 102
4, 251332, Note_off_c, 0, 55, 64
4, 251522, Note_on_c, 0, 50, 102
4, 251524, Note_off_c, 0, 56, 64
4, 252290, Note_on_c, 0, 55, 102
4, 252292, Note_off_c, 0, 50, 64
4, 253058, Note_on_c, 0, 48, 102
4, 253060, Note_off_c, 0, 55, 64
4, 253442, Note_on_c, 0, 50, 102
4, 253444, Note_off_c, 0, 48, 64
4, 253826, Note_on_c, 0, 51, 102
4, 253828, Note_off_c, 0, 50, 64
4, 254210, Note_on_c, 0, 48, 102
4, 254212, Note_off_c, 0, 51, 64
4, 254594, Note_on_c, 0, 58, 102
4, 254596, Note_off_c, 0, 48, 64
4, 254978, Note_on_c, 0, 56, 102
4, 254980, Note_off_c, 0, 58, 64
4, 255362, Note_on_c, 0, 55, 102
4, 255364, Note_off_c, 0, 56, 64
4, 255746, Note_on_c, 0, 48, 102
4, 255748, Note_off_c, 0, 55, 64
4, 256130, Note_on_c, 0, 56, 102
4, 256132, Note_off_c, 0, 48, 64
4, 256514, Note_on_c, 0, 55, 102
4, 256516, Note_off_c, 0, 56, 64
4, 256898, Note_on_c, 0, 53, 102
4, 256900, Note_off_c, 0, 55, 64
4, 257282, Note_on_c, 0, 48, 102
4, 257284, Note_off_c, 0, 53, 64
4, 257666, Note_on_c, 0, 55, 102
4, 257668, Note_off_c, 0, 48, 64
4, 258050, Note_on_c, 0, 53, 102
4, 258052, Note_off_c, 0, 55, 64
4, 258434, Note_on_c, 0, 52, 102
4, 258436, Note_off_c, 0, 53, 64
4, 258818, Note_on_c, 0, 48, 102
4, 258820, Note_off_c, 0, 52, 64
4, 259202, Note_on_c, 0, 53, 102
4, 259204, Note_off_c, 0, 48, 64
4, 259586, Note_on_c, 0, 55, 102
4, 259588, Note_off_c, 0, 53, 64
4, 259970, Note_on_c, 0, 56, 102
4, 259972, Note_off_c, 0, 55, 64
4, 260354, Note_on_c, 0, 55, 102
4, 260356, Note_off_c, 0, 56, 64
4, 260738, Note_on_c, 0, 54, 102
4, 260740, Note_off_c, 0, 55, 64
4, 261122, Note_on_c, 0, 55, 102
4, 261124, Note_off_c, 0, 54, 64
4, 261506, Note_on_c, 0, 57, 102
4, 261508, Note_off_c, 0, 55, 64
4, 261890, Note_on_c, 0, 54, 102
4, 261892, Note_off_c, 0, 57, 64
4, 262274, Note_on_c, 0, 55, 102
4, 262276, Note_off_c, 0, 54, 64
4, 262658, Note_on_c, 0, 53, 102
4, 262660, Note_off_c, 0, 55, 64
4, 263042, Note_on_c, 0, 51, 102
4, 263044, Note_off_c, 0, 53, 64
4, 263426, Note_on_c, 0, 56, 102
4, 263428, Note_off_c, 0, 51, 64
4, 263810, Note_on_c, 0, 55, 102
4, 263812, Note_off_c, 0, 56, 64
4, 264194, Note_on_c, 0, 53, 102
4, 264196, Note_off_c, 0, 55, 64
4, 264578, Note_on_c, 0, 55, 102
4, 264580, Note_off_c, 0, 53, 64
4, 264962, Note_on_c, 0, 43, 102
4, 264964, Note_off_c, 0, 55, 64
4, 265346, Note_on_c, 0, 48, 102
4, 265348, Note_off_c, 0, 43, 64
4, 265730, Note_on_c, 0, 50, 102
4, 265732, Note_off_c, 0, 48, 64
4, 266114, Note_on_c, 0, 51, 102
4, 266116, Note_off_c, 0, 50, 64
4, 266498, Note_on_c, 0, 48, 102
4, 266500, Note_off_c, 0, 51, 64
4, 266882, Note_on_c, 0, 55, 102
4, 266884, Note_off_c, 0, 48, 64
4, 267266, Note_on_c, 0, 53, 102
4, 267268, Note_off_c, 0, 55, 64
4, 267650, Note_on_c, 0, 51, 102
4, 267652, Note_off_c, 0, 53, 64
4, 268034, Note_on_c, 0, 48, 102
4, 268036, Note_off_c, 0, 51, 64
4, 268418, Note_on_c, 0, 55, 102
4, 268420, Note_off_c, 0, 48, 64
4, 268802, Note_on_c, 0, 53, 102
4, 268804, Note_off_c, 0, 55, 64
4, 269186, Note_on_c, 0, 51, 102
4, 269188, Note_off_c, 0, 53, 64
4, 269570, Note_on_c, 0, 50, 102
4, 269572, Note_off_c, 0, 51, 64
4, 269954, Note_on_c, 0, 51, 102
4, 269956, Note_off_c, 0, 50, 64
4, 270338, Note_on_c, 0, 56, 102
4, 270340, Note_off_c, 0, 51, 64
4, 270722, Note_on_c, 0, 53, 102
4, 270724, Note_off_c, 0, 56, 64
4, 271106, Note_on_c, 0, 55, 102
4, 271108, Note_off_c, 0, 53, 64
4, 271490, Note_on_c, 0, 48, 102
4, 271492, Note_off_c, 0, 55, 64
4, 271874, Note_on_c, 0, 53, 102
4, 271876, Note_off_c, 0, 48, 64
4, 272258, Note_on_c, 0, 49, 102
4, 272260, Note_off_c, 0, 53, 64
4, 272642, Note_on_c, 0, 51, 102
4, 272644, Note_off_c, 0, 49, 64
4, 273026, Note_on_c, 0, 44, 102
4, 273028, Note_off_c, 0, 51, 64
4, 273410, Note_on_c, 0, 49, 102
4, 273412, Note_off_c, 0, 44, 64
4, 273794, Note_on_c, 0, 46, 102
4, 273796, Note_off_c, 0, 49, 64
4, 274178, Note_on_c, 0, 48, 102
4, 274180, Note_off_c, 0, 46, 64
4, 274562, Note_on_c, 0, 41, 102
4, 274564, Note_off_c, 0, 48, 64
4, 274946, Note_on_c, 0, 43, 102
4, 274948, Note_off_c, 0, 41, 64
4, 275330, Note_on_c, 0, 44, 102
4, 275332, Note_off_c, 0, 43, 64
4, 275714, Note_on_c, 0, 41, 102
4, 275716, Note_off_c, 0, 44, 64
4, 276098, Note_on_c, 0, 43, 102
4, 276100, Note_off_c, 0, 41, 64
4, 276866, Note_on_c, 0, 45, 102
4, 276868, Note_off_c, 0, 43, 64
4, 277634, Note_on_c, 0, 46, 102
4, 277636, Note_off_c, 0, 45, 64
4, 278018, Note_on_c, 0, 45, 102
4, 278020, Note_off_c, 0, 46, 64
4, 278402, Note_on_c, 0, 46, 102
4, 278404, Note_off_c, 0, 45, 64
4, 278786, Note_on_c, 0, 48, 102
4, 278788, Note_off_c, 0, 46, 64
4, 279170, Note_on_c, 0, 50, 102
4, 279172, Note_off_c, 0, 48, 64
4, 279554, Note_on_c, 0, 48, 102
4, 279556, Note_off_c, 0, 50, 64
4, 279938, Note_on_c, 0, 46, 102
4, 279940, Note_off_c, 0, 48, 64
4, 280322, Note_on_c, 0, 43, 102
4, 280324, Note_off_c, 0, 46, 64
4, 280706, Note_on_c, 0, 50, 102
4, 280708, Note_off_c, 0, 43, 64
4, 281090, Note_on_c, 0, 48, 102
4, 281092, Note_off_c, 0, 50, 64
4, 281474, Note_on_c, 0, 46, 102
4, 281476, Note_off_c, 0, 48, 64
4, 281858, Note_on_c, 0, 45, 102
4, 281860, Note_off_c, 0, 46, 64
4, 282242, Note_on_c, 0, 46, 102
4, 282244, Note_off_c, 0, 45, 64
4, 282626, Note_on_c, 0, 58, 102
4, 282628, Note_off_c, 0, 46, 64
4, 283010, Note_on_c, 0, 60, 102
4, 283012, Note_off_c, 0, 58, 64
4, 283394, Note_on_c, 0, 62, 102
4, 283396, Note_off_c, 0, 60, 64
4, 283778, Note_on_c, 0, 55, 102
4, 283780, Note_off_c, 0, 62, 64
4, 284162, Note_on_c, 0, 43, 102
4, 284164, Note_off_c, 0, 55, 64
4, 284546, Note_on_c, 0, 44, 102
4, 284548, Note_off_c, 0, 43, 64
4, 284930, Note_on_c, 0, 46, 102
4, 284932, Note_off_c, 0, 44, 64
4, 285314, Note_on_c, 0, 39, 102
4, 285316, Note_off_c, 0, 46, 64
4, 285698, Note_on_c, 0, 51, 102
4, 285700, Note_off_c, 0, 39, 64
4, 286082, Note_on_c, 0, 53, 102
4, 286084, Note_off_c, 0, 51, 64
4, 286466, Note_on_c, 0, 55, 102
4, 286468, Note_off_c, 0, 53, 64
4, 286850, Note_on_c, 0, 48, 102
4, 286852, Note_off_c, 0, 55, 64
4, 287234, Note_on_c, 0, 50, 102
4, 287236, Note_off_c, 0, 48, 64
4, 287618, Note_on_c, 0, 51, 102
4, 287620, Note_off_c, 0, 50, 64
4, 288002, Note_on_c, 0, 48, 102
4, 288004, Note_off_c, 0, 51, 64
4, 288386, Note_on_c, 0, 50, 102
4, 288388, Note_off_c, 0, 48, 64
4, 289154, Note_on_c, 0, 51, 102
4, 289156, Note_off_c, 0, 50, 64
4, 289922, Note_on_c, 0, 53, 102
4, 289924, Note_off_c, 0, 51, 64
4, 290306, Note_on_c, 0, 55, 102
4, 290308, Note_off_c, 0, 53, 64
4, 290690, Note_on_c, 0, 57, 102
4, 290692, Note_off_c, 0, 55, 64
4, 291074, Note_on_c, 0, 53, 102
4, 291076, Note_off_c, 0, 57, 64
4, 291458, Note_on_c, 0, 58, 102
4, 291460, Note_off_c, 0, 53, 64
4, 291842, Note_on_c, 0, 57, 102
4, 291844, Note_off_c, 0, 58, 64
4, 292226, Note_on_c, 0, 58, 102
4, 292228, Note_off_c, 0, 57, 64
4, 292610, Note_on_c, 0, 53, 102
4, 292612, Note_off_c, 0, 58, 64
4, 292994, Note_on_c, 0, 58, 102
4, 292996, Note_off_c, 0, 53, 64
4, 293378, Note_on_c, 0, 57, 102
4, 293380, Note_off_c, 0, 58, 64
4, 293762, Note_on_c, 0, 58, 102
4, 293764, Note_off_c, 0, 57, 64
4, 294146, Note_on_c, 0, 53, 102
4, 294148, Note_off_c, 0, 58, 64
4, 294530, Note_on_c, 0, 58, 102
4, 294532, Note_off_c, 0, 53, 64
4, 294914, Note_on_c, 0, 51, 102
4, 294916, Note_off_c, 0, 58, 64
4, 295298, Note_on_c, 0, 53, 102
4, 295300, Note_off_c, 0, 51, 64
4, 296066, Note_on_c, 0, 46, 102
4, 296068, Note_off_c, 0, 53, 64
4, 296450, Note_on_c, 0, 48, 102
4, 296452, Note_off_c, 0, 46, 64
4, 296834, Note_on_c, 0, 50, 102
4, 296836, Note_off_c, 0, 48, 64
4, 297218, Note_on_c, 0, 46, 102
4, 297220, Note_off_c, 0, 50, 64
4, 297602, Note_on_c, 0, 51, 102
4, 297604, Note_off_c, 0, 46, 64
4, 297986, Note_on_c, 0, 50, 102
4, 297988, Note_off_c, 0, 51, 64
4, 298370, Note_on_c, 0, 51, 102
4, 298372, Note_off_c, 0, 50, 64
4, 298754, Note_on_c, 0, 46, 102
4, 298756, Note_off_c, 0, 51, 64
4, 299138, Note_on_c, 0, 51, 102
4, 299140, Note_off_c, 0, 46, 64
4, 299522, Note_on_c, 0, 50, 102
4, 299524, Note_off_c, 0, 51, 64
4, 299906, Note_on_c, 0, 51, 102
4, 299908, Note_off_c, 0, 50, 64
4, 300290, Note_on_c, 0, 46, 102
4, 300292, Note_off_c, 0, 51, 64
4, 300674, Note_on_c, 0, 51, 102
4, 300676, Note_off_c, 0, 46, 64
4, 301058, Note_on_c, 0, 44, 102
4, 301060, Note_off_c, 0, 51, 64
4, 301442, Note_on_c, 0, 46, 102
4, 301444, Note_off_c, 0, 44, 64
4, 302210, Note_on_c, 0, 39, 102
4, 302212, Note_off_c, 0, 46, 64
4, 303746, Note_on_c, 0, 46, 102
4, 303748, Note_off_c, 0, 39, 64
4, 305282, Note_on_c, 0, 41, 102
4, 305284, Note_off_c, 0, 46, 64
4, 306818, Note_on_c, 0, 48, 102
4, 306820, Note_off_c, 0, 41, 64
4, 308354, Note_on_c, 0, 43, 102
4, 308356, Note_off_c, 0, 48, 64
4, 308738, Note_on_c, 0, 46, 102
4, 308740, Note_off_c, 0, 43, 64
4, 309122, Note_on_c, 0, 51, 102
4, 309124, Note_off_c, 0, 46, 64
4, 309506, Note_on_c, 0, 50, 102
4, 309508, Note_off_c, 0, 51, 64
4, 309890, Note_on_c, 0, 48, 102
4, 309892, Note_off_c, 0, 50, 64
4, 310274, Note_on_c, 0, 45, 102
4, 310276, Note_off_c, 0, 48, 64
4, 310658, Note_on_c, 0, 50, 102
4, 310660, Note_off_c, 0, 45, 64
4, 311042, Note_on_c, 0, 38, 102
4, 311044, Note_off_c, 0, 50, 64
4, 311426, Note_on_c, 0, 43, 102
4, 311428, Note_off_c, 0, 38, 64
4, 311810, Note_on_c, 0, 45, 102
4, 311812, Note_off_c, 0, 43, 64
4, 312002, Note_on_c, 0, 46, 102
4, 312004, Note_off_c, 0, 45, 64
4, 312194, Note_on_c, 0, 48, 102
4, 312196, Note_off_c, 0, 46, 64
4, 313730, Note_on_c, 0, 50, 102
4, 313732, Note_off_c, 0, 48, 64
4, 314498, Note_on_c, 0, 51, 102
4, 314500, Note_off_c, 0, 50, 64
4, 314882, Note_on_c, 0, 50, 102
4, 314884, Note_off_c, 0, 51, 64
4, 315266, Note_on_c, 0, 48, 102
4, 315268, Note_off_c, 0, 50, 64
4, 316802, Note_on_c, 0, 47, 102
4, 316804, Note_off_c, 0, 48, 64
4, 317570, Note_on_c, 0, 48, 102
4, 317572, Note_off_c, 0, 47, 64
4, 318338, Note_on_c, 0, 44, 102
4, 318340, Note_off_c, 0, 48, 64
4, 319106, Note_on_c, 0, 41, 102
4, 319108, Note_off_c, 0, 44, 64
4, 319874, Note_on_c, 0, 43, 102
4, 319876, Note_off_c, 0, 41, 64
4, 320642, Note_on_c, 0, 48, 102
4, 320644, Note_off_c, 0, 43, 64
4, 322178, Note_on_c, 0, 55, 102
4, 322180, Note_off_c, 0, 48, 64
4, 323714, Note_on_c, 0, 51, 102
4, 323716, Note_off_c, 0, 55, 64
4, 324098, Note_on_c, 0, 53, 102
4, 324100, Note_off_c, 0, 51, 64
4, 324290, Note_on_c, 0, 55, 102
4, 324292, Note_off_c, 0, 53, 64
4, 324482, Note_on_c, 0, 56, 102
4, 324484, Note_off_c, 0, 55, 64
4, 324866, Note_on_c, 0, 44, 102
4, 324868, Note_off_c, 0, 56, 64
4, 325250, Note_on_c, 0, 49, 102
4, 325252, Note_off_c, 0, 44, 64
4, 325634, Note_on_c, 0, 48, 102
4, 325636, Note_off_c, 0, 49, 64
4, 326018, Note_on_c, 0, 46, 102
4, 326020, Note_off_c, 0, 48, 64
4, 326402, Note_on_c, 0, 55, 102
4, 326404, Note_off_c, 0, 46, 64
4, 326786, Note_on_c, 0, 48, 102
4, 326788, Note_off_c, 0, 55, 64
4, 327170, Note_on_c, 0, 50, 102
4, 327172, Note_off_c, 0, 48, 64
4, 327362, Note_on_c, 0, 52, 102
4, 327364, Note_off_c, 0, 50, 64
4, 327554, Note_on_c, 0, 53, 102
4, 327556, Note_off_c, 0, 52, 64
4, 327938, Note_on_c, 0, 41, 102
4, 327940, Note_off_c, 0, 53, 64
4, 328322, Note_on_c, 0, 46, 102
4, 328324, Note_off_c, 0, 41, 64
4, 328706, Note_on_c, 0, 44, 102
4, 328708, Note_off_c, 0, 46, 64
4, 329090, Note_on_c, 0, 43, 102
4, 329092, Note_off_c, 0, 44, 64
4, 329474, Note_on_c, 0, 46, 102
4, 329476, Note_off_c, 0, 43, 64
4, 329858, Note_on_c, 0, 44, 102
4, 329860, Note_off_c, 0, 46, 64
4, 330242, Note_on_c, 0, 43, 102
4, 330244, Note_off_c, 0, 44, 64
4, 330626, Note_on_c, 0, 44, 102
4, 330628, Note_off_c, 0, 43, 64
4, 331010, Note_on_c, 0, 46, 102
4, 331012, Note_off_c, 0, 44, 64
4, 331394, Note_on_c, 0, 48, 102
4, 331396, Note_off_c, 0, 46, 64
4, 332162, Note_on_c, 0, 36, 102
4, 332164, Note_off_c, 0, 48, 64
4, 332930, Note_on_c, 0, 41, 102
4, 332932, Note_off_c, 0, 36, 64
4, 333314, Note_on_c, 0, 43, 102
4, 333316, Note_off_c, 0, 41, 64
4, 333698, Note_on_c, 0, 44, 102
4, 333700, Note_off_c, 0, 43, 64
4, 334082, Note_on_c, 0, 41, 102
4, 334084, Note_off_c, 0, 44, 64
4, 334466, Note_on_c, 0, 48, 102
4, 334468, Note_off_c, 0, 41, 64
4, 334850, Note_on_c, 0, 46, 102
4, 334852, Note_off_c, 0, 48, 64
4, 335234, Note_on_c, 0, 44, 102
4, 335236, Note_off_c, 0, 46, 64
4, 335618, Note_on_c, 0, 41, 102
4, 335620, Note_off_c, 0, 44, 64
4, 336002, Note_on_c, 0, 48, 102
4, 336004, Note_off_c, 0, 41, 64
4, 336386, Note_on_c, 0, 46, 102
4, 336388, Note_off_c, 0, 48, 64
4, 336770, Note_on_c, 0, 44, 102
4, 336772, Note_off_c, 0, 46, 64
4, 337154, Note_on_c, 0, 43, 102
4, 337156, Note_off_c, 0, 44, 64
4, 337538, Note_on_c, 0, 44, 102
4, 337540, Note_off_c, 0, 43, 64
4, 337922, Note_on_c, 0, 49, 102
4, 337924, Note_off_c, 0, 44, 64
4, 338306, Note_on_c, 0, 46, 102
4, 338308, Note_off_c, 0, 49, 64
4, 338690, Note_on_c, 0, 48, 102
4, 338692, Note_off_c, 0, 46, 64
4, 339074, Note_on_c, 0, 41, 102
4, 339076, Note_off_c, 0, 48, 64
4, 339458, Note_on_c, 0, 46, 102
4, 339460, Note_off_c, 0, 41, 64
4, 339842, Note_on_c, 0, 42, 102
4, 339844, Note_off_c, 0, 46, 64
4, 340226, Note_on_c, 0, 44, 102
4, 340228, Note_off_c, 0, 42, 64
4, 340610, Note_on_c, 0, 49, 102
4, 340612, Note_off_c, 0, 44, 64
4, 340994, Note_on_c, 0, 54, 102
4, 340996, Note_off_c, 0, 49, 64
4, 341378, Note_on_c, 0, 51, 102
4, 341380, Note_off_c, 0, 54, 64
4, 341762, Note_on_c, 0, 53, 102
4, 341764, Note_off_c, 0, 51, 64
4, 342146, Note_on_c, 0, 46, 102
4, 342148, Note_off_c, 0, 53, 64
4, 342530, Note_on_c, 0, 48, 102
4, 342532, Note_off_c, 0, 46, 64
4, 342914, Note_on_c, 0, 49, 102
4, 342916, Note_off_c, 0, 48, 64
4, 343298, Note_on_c, 0, 46, 102
4, 343300, Note_off_c, 0, 49, 64
4, 343682, Note_on_c, 0, 48, 102
4, 343684, Note_off_c, 0, 46, 64
4, 344450, Note_on_c, 0, 50, 102
4, 344452, Note_off_c, 0, 48, 64
4, 345218, Note_on_c, 0, 51, 102
4, 345220, Note_off_c, 0, 50, 64
4, 345602, Note_on_c, 0, 50, 102
4, 345604, Note_off_c, 0, 51, 64
4, 345986, Note_on_c, 0, 51, 102
4, 345988, Note_off_c, 0, 50, 64
4, 346370, Note_on_c, 0, 53, 102
4, 346372, Note_off_c, 0, 51, 64
4, 346754, Note_on_c, 0, 55, 102
4, 346756, Note_off_c, 0, 53, 64
4, 347138, Note_on_c, 0, 53, 102
4, 347140, Note_off_c, 0, 55, 64
4, 347522, Note_on_c, 0, 51, 102
4, 347524, Note_off_c, 0, 53, 64
4, 347906, Note_on_c, 0, 48, 102
4, 347908, Note_off_c, 0, 51, 64
4, 348290, Note_on_c, 0, 55, 102
4, 348292, Note_off_c, 0, 48, 64
4, 348674, Note_on_c, 0, 53, 102
4, 348676, Note_off_c, 0, 55, 64
4, 349058, Note_on_c, 0, 51, 102
4, 349060, Note_off_c, 0, 53, 64
4, 349442, Note_on_c, 0, 50, 102
4, 349444, Note_off_c, 0, 51, 64
4, 349826, Note_on_c, 0, 51, 102
4, 349828, Note_off_c, 0, 50, 64
4, 350210, Note_on_c, 0, 39, 102
4, 350212, Note_off_c, 0, 51, 64
4, 350594, Note_on_c, 0, 41, 102
4, 350596, Note_off_c, 0, 39, 64
4, 350978, Note_on_c, 0, 43, 102
4, 350980, Note_off_c, 0, 41, 64
4, 351362, Note_on_c, 0, 36, 102
4, 351364, Note_off_c, 0, 43, 64
4, 351746, Note_on_c, 0, 48, 102
4, 351748, Note_off_c, 0, 36, 64
4, 352130, Note_on_c, 0, 49, 102
4, 352132, Note_off_c, 0, 48, 64
4, 352514, Note_on_c, 0, 51, 102
4, 352516, Note_off_c, 0, 49, 64
4, 352898, Note_on_c, 0, 44, 102
4, 352900, Note_off_c, 0, 51, 64
4, 353282, Note_on_c, 0, 56, 102
4, 353284, Note_off_c, 0, 44, 64
4, 353666, Note_on_c, 0, 58, 102
4, 353668, Note_off_c, 0, 56, 64
4, 354050, Note_on_c, 0, 60, 102
4, 354052, Note_off_c, 0, 58, 64
4, 354434, Note_on_c, 0, 53, 102
4, 354436, Note_off_c, 0, 60, 64
4, 354818, Note_on_c, 0, 55, 102
4, 354820, Note_off_c, 0, 53, 64
4, 355202, Note_on_c, 0, 56, 102
4, 355204, Note_off_c, 0, 55, 64
4, 355586, Note_on_c, 0, 53, 102
4, 355588, Note_off_c, 0, 56, 64
4, 355970, Note_on_c, 0, 55, 102
4, 355972, Note_off_c, 0, 53, 64
4, 356738, Note_on_c, 0, 56, 102
4, 356740, Note_off_c, 0, 55, 64
4, 357506, Note_on_c, 0, 58, 102
4, 357508, Note_off_c, 0, 56, 64
4, 357890, Note_on_c, 0, 60, 102
4, 357892, Note_off_c, 0, 58, 64
4, 358274, Note_on_c, 0, 62, 102
4, 358276, Note_off_c, 0, 60, 64
4, 358658, Note_on_c, 0, 46, 102
4, 358660, Note_off_c, 0, 62, 64
4, 359042, Note_on_c, 0, 51, 102
4, 359044, Note_off_c, 0, 46, 64
4, 359426, Note_on_c, 0, 50, 102
4, 359428, Note_off_c, 0, 51, 64
4, 359810, Note_on_c, 0, 51, 102
4, 359812, Note_off_c, 0, 50, 64
4, 360194, Note_on_c, 0, 46, 102
4, 360196, Note_off_c, 0, 51, 64
4, 360578, Note_on_c, 0, 51, 102
4, 360580, Note_off_c, 0, 46, 64
4, 360962, Note_on_c, 0, 50, 102
4, 360964, Note_off_c, 0, 51, 64
4, 361346, Note_on_c, 0, 51, 102
4, 361348, Note_off_c, 0, 50, 64
4, 361730, Note_on_c, 0, 46, 102
4, 361732, Note_off_c, 0, 51, 64
4, 362114, Note_on_c, 0, 51, 102
4, 362116, Note_off_c, 0, 46, 64
4, 362498, Note_on_c, 0, 44, 102
4, 362500, Note_off_c, 0, 51, 64
4, 362884, Note_off_c, 0, 44, 64
4, 363650, Note_on_c, 0, 51, 102
4, 364034, Note_on_c, 0, 53, 102
4, 364036, Note_off_c, 0, 51, 64
4, 364418, Note_on_c, 0, 55, 102
4, 364420, Note_off_c, 0, 53, 64
4, 364802, Note_on_c, 0, 51, 102
4, 364804, Note_off_c, 0, 55, 64
4, 365186, Note_on_c, 0, 56, 102
4, 365188, Note_off_c, 0, 51, 64
4, 365570, Note_on_c, 0, 55, 102
4, 365572, Note_off_c, 0, 56, 64
4, 365954, Note_on_c, 0, 56, 102
4, 365956, Note_off_c, 0, 55, 64
4, 366338, Note_on_c, 0, 51, 102
4, 366340, Note_off_c, 0, 56, 64
4, 366722, Note_on_c, 0, 56, 102
4, 366724, Note_off_c, 0, 51, 64
4, 367106, Note_on_c, 0, 55, 102
4, 367108, Note_off_c, 0, 56, 64
4, 367490, Note_on_c, 0, 56, 102
4, 367492, Note_off_c, 0, 55, 64
4, 367874, Note_on_c, 0, 51, 102
4, 367876, Note_off_c, 0, 56, 64
4, 368258, Note_on_c, 0, 56, 102
4, 368260, Note_off_c, 0, 51, 64
4, 368642, Note_on_c, 0, 49, 102
4, 368644, Note_off_c, 0, 56, 64
4, 369026, Note_on_c, 0, 51, 102
4, 369028, Note_off_c, 0, 49, 64
4, 369794, Note_on_c, 0, 44, 102
4, 369796, Note_off_c, 0, 51, 64
4, 371330, Note_on_c, 0, 51, 102
4, 371332, Note_off_c, 0, 44, 64
4, 372866, Note_on_c, 0, 46, 102
4, 372868, Note_off_c, 0, 51, 64
4, 374402, Note_on_c, 0, 53, 102
4, 374404, Note_off_c, 0, 46, 64
4, 375938, Note_on_c, 0, 48, 102
4, 375940, Note_off_c, 0, 53, 64
4, 376322, Note_on_c, 0, 55, 102
4, 376324, Note_off_c, 0, 48, 64
4, 376706, Note_on_c, 0, 60, 102
4, 376708, Note_off_c, 0, 55, 64
4, 377666, Note_on_c, 0, 59, 102
4, 377668, Note_off_c, 0, 60, 64
4, 377858, Note_on_c, 0, 60, 102
4, 377860, Note_off_c, 0, 59, 64
4, 378050, Note_on_c, 0, 57, 102
4, 378052, Note_off_c, 0, 60, 64
4, 378242, Note_on_c, 0, 59, 102
4, 378244, Note_off_c, 0, 57, 64
4, 378434, Note_on_c, 0, 57, 102
4, 378436, Note_off_c, 0, 59, 64
4, 378626, Note_on_c, 0, 59, 102
4, 378628, Note_off_c, 0, 57, 64
4, 378818, Note_on_c, 0, 55, 102
4, 378820, Note_off_c, 0, 59, 64
4, 379010, Note_on_c, 0, 56, 102
4, 379012, Note_off_c, 0, 55, 64
4, 379394, Note_on_c, 0, 51, 102
4, 379396, Note_off_c, 0, 56, 64
4, 379778, Note_on_c, 0, 56, 102
4, 379780, Note_off_c, 0, 51, 64
4, 381314, Note_on_c, 0, 55, 102
4, 381316, Note_off_c, 0, 56, 64
4, 382466, Note_on_c, 0, 48, 102
4, 382468, Note_off_c, 0, 55, 64
4, 382850, Note_on_c, 0, 53, 102
4, 382852, Note_off_c, 0, 48, 64
4, 384386, Note_on_c, 0, 52, 102
4, 384388, Note_off_c, 0, 53, 64
4, 385154, Note_on_c, 0, 41, 102
4, 385156, Note_off_c, 0, 52, 64
4, 386690, Note_on_c, 0, 48, 102
4, 386692, Note_off_c, 0, 41, 64
4, 388226, Note_on_c, 0, 46, 102
4, 388228, Note_off_c, 0, 48, 64
4, 388610, Note_on_c, 0, 48, 102
4, 388612, Note_off_c, 0, 46, 64
4, 388802, Note_on_c, 0, 49, 102
4, 388804, Note_off_c, 0, 48, 64
4, 388994, Note_on_c, 0, 51, 102
4, 388996, Note_off_c, 0, 49, 64
4, 389378, Note_on_c, 0, 39, 102
4, 389380, Note_off_c, 0, 51, 64
4, 389762, Note_on_c, 0, 44, 102
4, 389764, Note_off_c, 0, 39, 64
4, 390146, Note_on_c, 0, 43, 102
4, 390148, Note_off_c, 0, 44, 64
4, 390530, Note_on_c, 0, 41, 102
4, 390532, Note_off_c, 0, 43, 64
4, 390914, Note_on_c, 0, 50, 102
4, 390916, Note_off_c, 0, 41, 64
4, 391298, Note_on_c, 0, 43, 102
4, 391300, Note_off_c, 0, 50, 64
4, 391682, Note_on_c, 0, 45, 102
4, 391684, Note_off_c, 0, 43, 64
4, 391874, Note_on_c, 0, 47, 102
4, 391876, Note_off_c, 0, 45, 64
4, 392066, Note_on_c, 0, 48, 102
4, 392068, Note_off_c, 0, 47, 64
4, 392450, Note_on_c, 0, 36, 102
4, 392452, Note_off_c, 0, 48, 64
4, 392834, Note_on_c, 0, 41, 102
4, 392836, Note_off_c, 0, 36, 64
4, 393218, Note_on_c, 0, 39, 102
4, 393220, Note_off_c, 0, 41, 64
4, 393602, Note_on_c, 0, 38, 102
4, 393604, Note_off_c, 0, 39, 64
4, 393986, Note_on_c, 0, 41, 102
4, 393988, Note_off_c, 0, 38, 64
4, 394370, Note_on_c, 0, 39, 102
4, 394372, Note_off_c, 0, 41, 64
4, 394754, Note_on_c, 0, 38, 102
4, 394756, Note_off_c, 0, 39, 64
4, 395138, Note_on_c, 0, 36, 102
4, 395140, Note_off_c, 0, 38, 64
4, 395522, Note_on_c, 0, 39, 102
4, 395524, Note_off_c, 0, 36, 64
4, 395906, Note_on_c, 0, 38, 102
4, 395908, Note_off_c, 0, 39, 64
4, 396674, Note_on_c, 0, 43, 102
4, 396676, Note_off_c, 0, 38, 64
4, 397442, Note_on_c, 0, 36, 102
4, 397444, Note_off_c, 0, 43, 64
4, 397826, Note_on_c, 0, 43, 102
4, 397828, Note_off_c, 0, 36, 64
4, 398210, Note_on_c, 0, 48, 102
4, 398212, Note_off_c, 0, 43, 64
4, 399362, Note_on_c, 0, 47, 102
4, 399364, Note_off_c, 0, 48, 64
4, 399746, Note_on_c, 0, 55, 102
4, 399748, Note_off_c, 0, 47, 64
4, 400898, Note_on_c, 0, 48, 102
4, 400900, Note_off_c, 0, 55, 64
4, 401282, Note_on_c, 0, 53, 102
4, 401284, Note_off_c, 0, 48, 64
4, 402818, Note_on_c, 0, 52, 102
4, 402820, Note_off_c, 0, 53, 64
4, 403586, Note_on_c, 0, 53, 102
4, 403588, Note_off_c, 0, 52, 64
4, 404354, Note_on_c, 0, 49, 102
4, 404356, Note_off_c, 0, 53, 64
4, 405122, Note_on_c, 0, 46, 102
4, 405124, Note_off_c, 0, 49, 64
4, 405890, Note_on_c, 0, 48, 102
4, 405892, Note_off_c, 0, 46, 64
4, 406658, Note_on_c, 0, 41, 102
4, 406660, Note_off_c, 0, 48, 64
4, 407428, Note_off_c, 0, 41, 64
4, 407810, Note_on_c, 0, 41, 102
4, 408194, Note_on_c, 0, 48, 102
4, 408196, Note_off_c, 0, 41, 64
4, 408964, Note_off_c, 0, 48, 64
4, 409346, Note_on_c, 0, 48, 102
4, 409730, Note_on_c, 0, 43, 102
4, 409732, Note_off_c, 0, 48, 64
4, 410500, Note_off_c, 0, 43, 64
4, 410882, Note_on_c, 0, 55, 102
4, 411266, Note_on_c, 0, 60, 102
4, 411268, Note_off_c, 0, 55, 64
4, 411650, Note_on_c, 0, 58, 102
4, 411652, Note_off_c, 0, 60, 64
4, 412034, Note_on_c, 0, 56, 102
4, 412036, Note_off_c, 0, 58, 64
4, 412418, Note_on_c, 0, 55, 102
4, 412420, Note_off_c, 0, 56, 64
4, 412802, Note_on_c, 0, 53, 102
4, 412804, Note_off_c, 0, 55, 64
4, 413570, Note_on_c, 0, 58, 102
4, 413572, Note_off_c, 0, 53, 64
4, 414338, Note_on_c, 0, 51, 102
4, 414340, Note_off_c, 0, 58, 64
4, 414722, Note_on_c, 0, 50, 102
4, 414724, Note_off_c, 0, 51, 64
4, 415106, Note_on_c, 0, 48, 102
4, 415108, Note_off_c, 0, 50, 64
4, 415490, Note_on_c, 0, 51, 102
4, 415492, Note_off_c, 0, 48, 64
4, 415874, Note_on_c, 0, 44, 102
4, 415876, Note_off_c, 0, 51, 64
4, 417410, Note_on_c, 0, 43, 102
4, 417412, Note_off_c, 0, 44, 64
4, 417794, Note_on_c, 0, 53, 102
4, 417796, Note_off_c, 0, 43, 64
4, 418178, Note_on_c, 0, 51, 102
4, 418180, Note_off_c, 0, 53, 64
4, 418562, Note_on_c, 0, 50, 102
4, 418564, Note_off_c, 0, 51, 64
4, 418946, Note_on_c, 0, 48, 102
4, 418948, Note_off_c, 0, 50, 64
4, 419330, Note_on_c, 0, 50, 102
4, 419332, Note_off_c, 0, 48, 64
4, 419714, Note_on_c, 0, 51, 102
4, 419716, Note_off_c, 0, 50, 64
4, 420098, Note_on_c, 0, 50, 102
4, 420100, Note_off_c, 0, 51, 64
4, 420482, Note_on_c, 0, 48, 102
4, 420484, Note_off_c, 0, 50, 64
4, 420866, Note_on_c, 0, 46, 102
4, 420868, Note_off_c, 0, 48, 64
4, 421250, Note_on_c, 0, 44, 102
4, 421252, Note_off_c, 0, 46, 64
4, 422018, Note_on_c, 0, 51, 102
4, 422020, Note_off_c, 0, 44, 64
4, 422402, Note_on_c, 0, 50, 102
4, 422404, Note_off_c, 0, 51, 64
4, 422786, Note_on_c, 0, 48, 102
4, 422788, Note_off_c, 0, 50, 64
4, 422978, Note_on_c, 0, 60, 102
4, 422980, Note_off_c, 0, 48, 64
4, 423170, Note_on_c, 0, 58, 102
4, 423172, Note_off_c, 0, 60, 64
4, 423362, Note_on_c, 0, 60, 102
4, 423364, Note_off_c, 0, 58, 64
4, 423554, Note_on_c, 0, 53, 102
4, 423556, Note_off_c, 0, 60, 64
4, 424324, Note_off_c, 0, 53, 64
4, 424514, Note_on_c, 0, 58, 102
4, 424706, Note_on_c, 0, 56, 102
4, 424708, Note_off_c, 0, 58, 64
4, 424898, Note_on_c, 0, 58, 102
4, 424900, Note_off_c, 0, 56, 64
4, 425090, Note_on_c, 0, 51, 102
4, 425092, Note_off_c, 0, 58, 64
4, 425860, Note_off_c, 0, 51, 64
4, 426050, Note_on_c, 0, 56, 102
4, 426242, Note_on_c, 0, 55, 102
4, 426244, Note_off_c, 0, 56, 64
4, 426434, Note_on_c, 0, 56, 102
4, 426436, Note_off_c, 0, 55, 64
4, 426626, Note_on_c, 0, 50, 102
4, 426628, Note_off_c, 0, 56, 64
4, 427394, Note_on_c, 0, 55, 102
4, 427396, Note_off_c, 0, 50, 64
4, 428162, Note_on_c, 0, 48, 102
4, 428164, Note_off_c, 0, 55, 64
4, 428546, Note_on_c, 0, 50, 102
4, 428548, Note_off_c, 0, 48, 64
4, 428930, Note_on_c, 0, 51, 102
4, 428932, Note_off_c, 0, 50, 64
4, 429314, Note_on_c, 0, 48, 102
4, 429316, Note_off_c, 0, 51, 64
4, 429698, Note_on_c, 0, 58, 102
4, 429700, Note_off_c, 0, 48, 64
4, 430082, Note_on_c, 0, 56, 102
4, 430084, Note_off_c, 0, 58, 64
4, 430466, Note_on_c, 0, 55, 102
4, 430468, Note_off_c, 0, 56, 64
4, 430850, Note_on_c, 0, 48, 102
4, 430852, Note_off_c, 0, 55, 64
4, 431234, Note_on_c, 0, 56, 102
4, 431236, Note_off_c, 0, 48, 64
4, 431618, Note_on_c, 0, 55, 102
4, 431620, Note_off_c, 0, 56, 64
4, 432002, Note_on_c, 0, 53, 102
4, 432004, Note_off_c, 0, 55, 64
4, 432386, Note_on_c, 0, 48, 102
4, 432388, Note_off_c, 0, 53, 64
4, 432770, Note_on_c, 0, 55, 102
4, 432772, Note_off_c, 0, 48, 64
4, 433154, Note_on_c, 0, 53, 102
4, 433156, Note_off_c, 0, 55, 64
4, 433538, Note_on_c, 0, 52, 102
4, 433540, Note_off_c, 0, 53, 64
4, 433922, Note_on_c, 0, 48, 102
4, 433924, Note_off_c, 0, 52, 64
4, 434306, Note_on_c, 0, 53, 102
4, 434308, Note_off_c, 0, 48, 64
4, 434690, Note_on_c, 0, 55, 102
4, 434692, Note_off_c, 0, 53, 64
4, 435074, Note_on_c, 0, 56, 102
4, 435076, Note_off_c, 0, 55, 64
4, 435458, Note_on_c, 0, 55, 102
4, 435460, Note_off_c, 0, 56, 64
4, 435842, Note_on_c, 0, 54, 102
4, 435844, Note_off_c, 0, 55, 64
4, 436226, Note_on_c, 0, 55, 102
4, 436228, Note_off_c, 0, 54, 64
4, 436610, Note_on_c, 0, 57, 102
4, 436612, Note_off_c, 0, 55, 64
4, 436994, Note_on_c, 0, 54, 102
4, 436996, Note_off_c, 0, 57, 64
4, 437378, Note_on_c, 0, 55, 102
4, 437380, Note_off_c, 0, 54, 64
4, 437762, Note_on_c, 0, 53, 102
4, 437764, Note_off_c, 0, 55, 64
4, 438146, Note_on_c, 0, 51, 102
4, 438148, Note_off_c, 0, 53, 64
4, 438530, Note_on_c, 0, 56, 102
4, 438532, Note_off_c, 0, 51, 64
4, 438914, Note_on_c, 0, 55, 102
4, 438916, Note_off_c, 0, 56, 64
4, 439682, Note_on_c, 0, 43, 102
4, 439684, Note_off_c, 0, 55, 64
4, 440450, Note_on_c, 0, 36, 102
4, 440452, Note_off_c, 0, 43, 64
4, 441988, Note_off_c, 0, 36, 64
4, 442112, End_track
0, 0, End_of_file
