0, 0, Header, 1, 11, 120
1, 0, Start_track
1, 0, Text_t, "\015\012\015\012Mass in B Minor          Johann Sebastion Bach\015\012No. 12 Chor, Credo in unum Deum\015\012\015\012seq by David Siu  dss@po.cwru.edu\015\012\015\012\015\012"
1, 0, Time_signature, 2, 2, 24, 8
1, 0, Key_signature, 2, "major"
1, 0, Tempo, 625000
1, 240, Time_signature, 4, 1, 48, 8
1, 240, Tempo, 333333
1, 42582, Tempo, 375000
1, 42868, Tempo, 461538
1, 42915, Tempo, 750000
1, 44400, End_track
2, 0, Start_track
2, 0, MIDI_port, 0
2, 0, Title_t, "Credo from B minor Mass"
2, 0, Program_c, 8, 19
2, 44400, End_track
3, 0, Start_track
3, 0, MIDI_port, 0
3, 0, Title_t, "Violin I"
3, 0, Program_c, 0, 48
3, 240, Control_c, 0, 7, 90
3, 12720, Note_on_c, 0, 81, 64
3, 13680, Note_on_c, 0, 81, 0
3, 13680, Note_on_c, 0, 78, 64
3, 14160, Note_on_c, 0, 78, 0
3, 14160, Note_on_c, 0, 79, 64
3, 14640, Note_on_c, 0, 79, 0
3, 14640, Note_on_c, 0, 78, 64
3, 15120, Note_on_c, 0, 78, 0
3, 15120, Note_on_c, 0, 76, 64
3, 15600, Note_on_c, 0, 76, 0
3, 15600, Note_on_c, 0, 81, 64
3, 16080, Note_on_c, 0, 81, 0
3, 16080, Note_on_c, 0, 83, 64
3, 16680, Note_on_c, 0, 83, 0
3, 16680, Note_on_c, 0, 81, 64
3, 16740, Note_on_c, 0, 81, 0
3, 16740, Note_on_c, 0, 80, 64
3, 16800, Note_on_c, 0, 80, 0
3, 16800, Note_on_c, 0, 81, 64
3, 16860, Note_on_c, 0, 81, 0
3, 16860, Note_on_c, 0, 83, 64
3, 16920, Note_on_c, 0, 83, 0
3, 16920, Note_on_c, 0, 85, 64
3, 17160, Note_on_c, 0, 85, 0
3, 17160, Note_on_c, 0, 86, 64
3, 17220, Note_on_c, 0, 86, 0
3, 17220, Note_on_c, 0, 85, 64
3, 17280, Note_on_c, 0, 85, 0
3, 17280, Note_on_c, 0, 83, 64
3, 17760, Note_on_c, 0, 83, 0
3, 17760, Note_on_c, 0, 81, 64
3, 18240, Note_on_c, 0, 81, 0
3, 18240, Note_on_c, 0, 79, 64
3, 18600, Note_on_c, 0, 79, 0
3, 18600, Note_on_c, 0, 83, 64
3, 18720, Note_on_c, 0, 83, 0
3, 18720, Note_on_c, 0, 81, 64
3, 18840, Note_on_c, 0, 81, 0
3, 18840, Note_on_c, 0, 79, 64
3, 18960, Note_on_c, 0, 79, 0
3, 18960, Note_on_c, 0, 78, 64
3, 19080, Note_on_c, 0, 78, 0
3, 19080, Note_on_c, 0, 79, 64
3, 19200, Note_on_c, 0, 79, 0
3, 19200, Note_on_c, 0, 81, 64
3, 19560, Note_on_c, 0, 81, 0
3, 19560, Note_on_c, 0, 83, 64
3, 19680, Note_on_c, 0, 83, 0
3, 19680, Note_on_c, 0, 81, 64
3, 19800, Note_on_c, 0, 81, 0
3, 19800, Note_on_c, 0, 79, 64
3, 19920, Note_on_c, 0, 79, 0
3, 19920, Note_on_c, 0, 78, 64
3, 20640, Note_on_c, 0, 78, 0
3, 20640, Note_on_c, 0, 76, 64
3, 20760, Note_on_c, 0, 76, 0
3, 20760, Note_on_c, 0, 75, 64
3, 20880, Note_on_c, 0, 75, 0
3, 20880, Note_on_c, 0, 76, 64
3, 21600, Note_on_c, 0, 76, 0
3, 21600, Note_on_c, 0, 78, 64
3, 21840, Note_on_c, 0, 78, 0
3, 21840, Note_on_c, 0, 79, 64
3, 22200, Note_on_c, 0, 79, 0
3, 22200, Note_on_c, 0, 76, 64
3, 22320, Note_on_c, 0, 76, 0
3, 22320, Note_on_c, 0, 84, 64
3, 22440, Note_on_c, 0, 84, 0
3, 22440, Note_on_c, 0, 81, 64
3, 22560, Note_on_c, 0, 81, 0
3, 22560, Note_on_c, 0, 78, 64
3, 22800, Note_on_c, 0, 78, 0
3, 22800, Note_on_c, 0, 76, 64
3, 23160, Note_on_c, 0, 76, 0
3, 23160, Note_on_c, 0, 74, 64
3, 23280, Note_on_c, 0, 74, 0
3, 23280, Note_on_c, 0, 73, 64
3, 23400, Note_on_c, 0, 73, 0
3, 23400, Note_on_c, 0, 74, 64
3, 23520, Note_on_c, 0, 74, 0
3, 23520, Note_on_c, 0, 76, 64
3, 24000, Note_on_c, 0, 76, 0
3, 24000, Note_on_c, 0, 81, 64
3, 24120, Note_on_c, 0, 81, 0
3, 24120, Note_on_c, 0, 79, 64
3, 24240, Note_on_c, 0, 79, 0
3, 24240, Note_on_c, 0, 78, 64
3, 24480, Note_on_c, 0, 78, 0
3, 24480, Note_on_c, 0, 83, 64
3, 24720, Note_on_c, 0, 83, 0
3, 24960, Note_on_c, 0, 78, 64
3, 25320, Note_on_c, 0, 78, 0
3, 25320, Note_on_c, 0, 76, 64
3, 25440, Note_on_c, 0, 76, 0
3, 25440, Note_on_c, 0, 74, 64
3, 25560, Note_on_c, 0, 74, 0
3, 25560, Note_on_c, 0, 73, 64
3, 25680, Note_on_c, 0, 73, 0
3, 25680, Note_on_c, 0, 71, 64
3, 25920, Note_on_c, 0, 71, 0
3, 25920, Note_on_c, 0, 73, 64
3, 26040, Note_on_c, 0, 73, 0
3, 26040, Note_on_c, 0, 71, 64
3, 26160, Note_on_c, 0, 71, 0
3, 26160, Note_on_c, 0, 69, 64
3, 26280, Note_on_c, 0, 69, 0
3, 26280, Note_on_c, 0, 74, 64
3, 26520, Note_on_c, 0, 74, 0
3, 26520, Note_on_c, 0, 79, 64
3, 26760, Note_on_c, 0, 79, 0
3, 26760, Note_on_c, 0, 76, 64
3, 26880, Note_on_c, 0, 76, 0
3, 26880, Note_on_c, 0, 73, 64
3, 27120, Note_on_c, 0, 73, 0
3, 27120, Note_on_c, 0, 71, 64
3, 27600, Note_on_c, 0, 71, 0
3, 28560, Note_on_c, 0, 85, 64
3, 29520, Note_on_c, 0, 85, 0
3, 29520, Note_on_c, 0, 81, 64
3, 30000, Note_on_c, 0, 81, 0
3, 30000, Note_on_c, 0, 83, 64
3, 30480, Note_on_c, 0, 83, 0
3, 30480, Note_on_c, 0, 81, 64
3, 30960, Note_on_c, 0, 81, 0
3, 30960, Note_on_c, 0, 80, 64
3, 31440, Note_on_c, 0, 80, 0
3, 31440, Note_on_c, 0, 85, 64
3, 31920, Note_on_c, 0, 85, 0
3, 31920, Note_on_c, 0, 86, 64
3, 32280, Note_on_c, 0, 86, 0
3, 32280, Note_on_c, 0, 85, 64
3, 32340, Note_on_c, 0, 85, 0
3, 32340, Note_on_c, 0, 83, 64
3, 32400, Note_on_c, 0, 83, 0
3, 32400, Note_on_c, 0, 81, 64
3, 32520, Note_on_c, 0, 81, 0
3, 32520, Note_on_c, 0, 79, 64
3, 32580, Note_on_c, 0, 79, 0
3, 32580, Note_on_c, 0, 78, 64
3, 32640, Note_on_c, 0, 78, 0
3, 32640, Note_on_c, 0, 76, 64
3, 32700, Note_on_c, 0, 76, 0
3, 32700, Note_on_c, 0, 74, 64
3, 32760, Note_on_c, 0, 74, 0
3, 32760, Note_on_c, 0, 73, 64
3, 32820, Note_on_c, 0, 73, 0
3, 32820, Note_on_c, 0, 71, 64
3, 32880, Note_on_c, 0, 71, 0
3, 32880, Note_on_c, 0, 69, 64
3, 33000, Note_on_c, 0, 69, 0
3, 33000, Note_on_c, 0, 76, 64
3, 33120, Note_on_c, 0, 76, 0
3, 33120, Note_on_c, 0, 81, 64
3, 33360, Note_on_c, 0, 81, 0
3, 33360, Note_on_c, 0, 81, 64
3, 33420, Note_on_c, 0, 81, 0
3, 33420, Note_on_c, 0, 79, 64
3, 33480, Note_on_c, 0, 79, 0
3, 33480, Note_on_c, 0, 78, 64
3, 33540, Note_on_c, 0, 78, 0
3, 33540, Note_on_c, 0, 76, 64
3, 33600, Note_on_c, 0, 76, 0
3, 33600, Note_on_c, 0, 74, 64
3, 33720, Note_on_c, 0, 74, 0
3, 34080, Note_on_c, 0, 78, 64
3, 34560, Note_on_c, 0, 78, 0
3, 34560, Note_on_c, 0, 74, 64
3, 34800, Note_on_c, 0, 74, 0
3, 35040, Note_on_c, 0, 76, 64
3, 35520, Note_on_c, 0, 76, 0
3, 35520, Note_on_c, 0, 74, 64
3, 35640, Note_on_c, 0, 74, 0
3, 35640, Note_on_c, 0, 73, 64
3, 35760, Note_on_c, 0, 73, 0
3, 35760, Note_on_c, 0, 74, 64
3, 36000, Note_on_c, 0, 74, 0
3, 36240, Note_on_c, 0, 83, 64
3, 36720, Note_on_c, 0, 83, 0
3, 36720, Note_on_c, 0, 79, 64
3, 37200, Note_on_c, 0, 79, 0
3, 37200, Note_on_c, 0, 81, 64
3, 37680, Note_on_c, 0, 81, 0
3, 37680, Note_on_c, 0, 79, 64
3, 38160, Note_on_c, 0, 79, 0
3, 38160, Note_on_c, 0, 78, 64
3, 38640, Note_on_c, 0, 78, 0
3, 38640, Note_on_c, 0, 83, 64
3, 39120, Note_on_c, 0, 83, 0
3, 39120, Note_on_c, 0, 84, 64
3, 39480, Note_on_c, 0, 84, 0
3, 39480, Note_on_c, 0, 78, 64
3, 39600, Note_on_c, 0, 78, 0
3, 39600, Note_on_c, 0, 83, 64
3, 39960, Note_on_c, 0, 83, 0
3, 39960, Note_on_c, 0, 76, 64
3, 40080, Note_on_c, 0, 76, 0
3, 40080, Note_on_c, 0, 81, 64
3, 40440, Note_on_c, 0, 81, 0
3, 40440, Note_on_c, 0, 74, 64
3, 40560, Note_on_c, 0, 74, 0
3, 40560, Note_on_c, 0, 79, 64
3, 41040, Note_on_c, 0, 79, 0
3, 41040, Note_on_c, 0, 78, 64
3, 41400, Note_on_c, 0, 78, 0
3, 41400, Note_on_c, 0, 79, 64
3, 41520, Note_on_c, 0, 79, 0
3, 41520, Note_on_c, 0, 81, 64
3, 41640, Note_on_c, 0, 81, 0
3, 41640, Note_on_c, 0, 79, 64
3, 41700, Note_on_c, 0, 79, 0
3, 41700, Note_on_c, 0, 78, 64
3, 41760, Note_on_c, 0, 78, 0
3, 41760, Note_on_c, 0, 76, 64
3, 42120, Note_on_c, 0, 76, 0
3, 42120, Note_on_c, 0, 78, 64
3, 42180, Note_on_c, 0, 78, 0
3, 42180, Note_on_c, 0, 76, 64
3, 42240, Note_on_c, 0, 76, 0
3, 42240, Note_on_c, 0, 74, 64
3, 42360, Note_on_c, 0, 74, 0
3, 42360, Note_on_c, 0, 69, 64
3, 42480, Note_on_c, 0, 69, 0
3, 42480, Note_on_c, 0, 66, 64
3, 42600, Note_on_c, 0, 66, 0
3, 42600, Note_on_c, 0, 62, 64
3, 42720, Note_on_c, 0, 62, 0
3, 42720, Note_on_c, 0, 57, 64
3, 42840, Note_on_c, 0, 57, 0
3, 42840, Note_on_c, 0, 81, 64
3, 42900, Note_on_c, 0, 81, 0
3, 42900, Note_on_c, 0, 80, 64
3, 42935, Note_on_c, 0, 80, 0
3, 42960, Note_on_c, 0, 81, 64
3, 43440, Note_on_c, 0, 81, 0
3, 44400, End_track
4, 0, Start_track
4, 0, MIDI_port, 0
4, 0, Title_t, "Violin II"
4, 0, Program_c, 1, 48
4, 240, Control_c, 1, 7, 90
4, 15600, Note_on_c, 1, 76, 64
4, 16560, Note_on_c, 1, 76, 0
4, 16560, Note_on_c, 1, 73, 64
4, 17040, Note_on_c, 1, 73, 0
4, 17040, Note_on_c, 1, 74, 64
4, 17520, Note_on_c, 1, 74, 0
4, 17520, Note_on_c, 1, 73, 64
4, 18000, Note_on_c, 1, 73, 0
4, 18000, Note_on_c, 1, 71, 64
4, 18480, Note_on_c, 1, 71, 0
4, 18480, Note_on_c, 1, 76, 64
4, 18960, Note_on_c, 1, 76, 0
4, 18960, Note_on_c, 1, 78, 64
4, 19440, Note_on_c, 1, 78, 0
4, 19440, Note_on_c, 1, 76, 64
4, 19680, Note_on_c, 1, 76, 0
4, 19680, Note_on_c, 1, 81, 64
4, 20040, Note_on_c, 1, 81, 0
4, 20040, Note_on_c, 1, 83, 64
4, 20100, Note_on_c, 1, 83, 0
4, 20100, Note_on_c, 1, 84, 64
4, 20160, Note_on_c, 1, 84, 0
4, 20160, Note_on_c, 1, 83, 64
4, 20280, Note_on_c, 1, 83, 0
4, 20280, Note_on_c, 1, 81, 64
4, 20400, Note_on_c, 1, 81, 0
4, 20400, Note_on_c, 1, 79, 64
4, 20520, Note_on_c, 1, 79, 0
4, 20520, Note_on_c, 1, 81, 64
4, 20640, Note_on_c, 1, 81, 0
4, 20640, Note_on_c, 1, 83, 64
4, 21120, Note_on_c, 1, 83, 0
4, 21240, Note_on_c, 1, 71, 64
4, 21360, Note_on_c, 1, 71, 0
4, 21360, Note_on_c, 1, 76, 64
4, 21600, Note_on_c, 1, 76, 0
4, 21600, Note_on_c, 1, 74, 64
4, 21960, Note_on_c, 1, 74, 0
4, 21960, Note_on_c, 1, 75, 64
4, 22080, Note_on_c, 1, 75, 0
4, 22080, Note_on_c, 1, 76, 64
4, 22200, Note_on_c, 1, 76, 0
4, 22200, Note_on_c, 1, 78, 64
4, 22260, Note_on_c, 1, 78, 0
4, 22260, Note_on_c, 1, 79, 64
4, 22320, Note_on_c, 1, 79, 0
4, 22320, Note_on_c, 1, 81, 64
4, 22440, Note_on_c, 1, 81, 0
4, 22440, Note_on_c, 1, 69, 64
4, 22680, Note_on_c, 1, 69, 0
4, 22680, Note_on_c, 1, 71, 64
4, 22740, Note_on_c, 1, 71, 0
4, 22740, Note_on_c, 1, 72, 64
4, 22800, Note_on_c, 1, 72, 0
4, 22800, Note_on_c, 1, 71, 64
4, 22920, Note_on_c, 1, 71, 0
4, 22920, Note_on_c, 1, 68, 64
4, 23040, Note_on_c, 1, 68, 0
4, 23040, Note_on_c, 1, 69, 64
4, 23160, Note_on_c, 1, 69, 0
4, 23160, Note_on_c, 1, 71, 64
4, 23280, Note_on_c, 1, 71, 0
4, 23280, Note_on_c, 1, 64, 64
4, 23520, Note_on_c, 1, 64, 0
4, 23520, Note_on_c, 1, 69, 64
4, 23760, Note_on_c, 1, 69, 0
4, 23760, Note_on_c, 1, 57, 64
4, 24000, Note_on_c, 1, 57, 0
4, 24000, Note_on_c, 1, 64, 64
4, 24240, Note_on_c, 1, 64, 0
4, 24240, Note_on_c, 1, 66, 64
4, 24480, Note_on_c, 1, 66, 0
4, 25080, Note_on_c, 1, 66, 64
4, 25200, Note_on_c, 1, 66, 0
4, 25200, Note_on_c, 1, 78, 64
4, 25560, Note_on_c, 1, 78, 0
4, 25560, Note_on_c, 1, 79, 64
4, 25620, Note_on_c, 1, 79, 0
4, 25620, Note_on_c, 1, 78, 64
4, 25680, Note_on_c, 1, 78, 0
4, 25680, Note_on_c, 1, 76, 64
4, 26160, Note_on_c, 1, 76, 0
4, 27120, Note_on_c, 1, 83, 64
4, 28080, Note_on_c, 1, 83, 0
4, 28080, Note_on_c, 1, 80, 64
4, 28560, Note_on_c, 1, 80, 0
4, 28560, Note_on_c, 1, 81, 64
4, 29040, Note_on_c, 1, 81, 0
4, 29040, Note_on_c, 1, 80, 64
4, 29520, Note_on_c, 1, 80, 0
4, 29520, Note_on_c, 1, 78, 64
4, 30000, Note_on_c, 1, 78, 0
4, 30000, Note_on_c, 1, 83, 64
4, 30480, Note_on_c, 1, 83, 0
4, 30480, Note_on_c, 1, 85, 64
4, 30840, Note_on_c, 1, 85, 0
4, 30840, Note_on_c, 1, 83, 64
4, 30900, Note_on_c, 1, 83, 0
4, 30900, Note_on_c, 1, 81, 64
4, 30960, Note_on_c, 1, 81, 0
4, 30960, Note_on_c, 1, 86, 64
4, 31200, Note_on_c, 1, 86, 0
4, 31200, Note_on_c, 1, 85, 64
4, 31680, Note_on_c, 1, 85, 0
4, 31680, Note_on_c, 1, 73, 64
4, 31920, Note_on_c, 1, 73, 0
4, 31920, Note_on_c, 1, 78, 64
4, 32040, Note_on_c, 1, 78, 0
4, 32040, Note_on_c, 1, 81, 64
4, 32100, Note_on_c, 1, 81, 0
4, 32100, Note_on_c, 1, 79, 64
4, 32160, Note_on_c, 1, 79, 0
4, 32160, Note_on_c, 1, 81, 64
4, 32520, Note_on_c, 1, 81, 0
4, 32520, Note_on_c, 1, 76, 64
4, 32640, Note_on_c, 1, 76, 0
4, 32640, Note_on_c, 1, 69, 64
4, 32940, Note_on_c, 1, 69, 0
4, 32940, Note_on_c, 1, 67, 64
4, 33000, Note_on_c, 1, 67, 0
4, 33000, Note_on_c, 1, 69, 64
4, 33060, Note_on_c, 1, 69, 0
4, 33060, Note_on_c, 1, 71, 64
4, 33120, Note_on_c, 1, 71, 0
4, 33120, Note_on_c, 1, 73, 64
4, 33180, Note_on_c, 1, 73, 0
4, 33180, Note_on_c, 1, 74, 64
4, 33240, Note_on_c, 1, 74, 0
4, 33240, Note_on_c, 1, 76, 64
4, 33300, Note_on_c, 1, 76, 0
4, 33300, Note_on_c, 1, 73, 64
4, 33360, Note_on_c, 1, 73, 0
4, 33360, Note_on_c, 1, 69, 64
4, 33480, Note_on_c, 1, 69, 0
4, 33480, Note_on_c, 1, 57, 64
4, 33600, Note_on_c, 1, 57, 0
4, 34560, Note_on_c, 1, 71, 64
4, 35040, Note_on_c, 1, 71, 0
4, 35040, Note_on_c, 1, 67, 64
4, 35280, Note_on_c, 1, 67, 0
4, 35520, Note_on_c, 1, 69, 64
4, 36000, Note_on_c, 1, 69, 0
4, 36000, Note_on_c, 1, 67, 64
4, 36120, Note_on_c, 1, 67, 0
4, 36120, Note_on_c, 1, 66, 64
4, 36240, Note_on_c, 1, 66, 0
4, 36240, Note_on_c, 1, 67, 64
4, 36480, Note_on_c, 1, 67, 0
4, 36480, Note_on_c, 1, 79, 64
4, 36960, Note_on_c, 1, 79, 0
4, 36960, Note_on_c, 1, 76, 64
4, 37440, Note_on_c, 1, 76, 0
4, 37440, Note_on_c, 1, 77, 64
4, 37920, Note_on_c, 1, 77, 0
4, 37920, Note_on_c, 1, 76, 64
4, 38400, Note_on_c, 1, 76, 0
4, 38400, Note_on_c, 1, 74, 64
4, 38880, Note_on_c, 1, 74, 0
4, 38880, Note_on_c, 1, 79, 64
4, 39360, Note_on_c, 1, 79, 0
4, 39360, Note_on_c, 1, 81, 64
4, 39720, Note_on_c, 1, 81, 0
4, 39720, Note_on_c, 1, 75, 64
4, 39840, Note_on_c, 1, 75, 0
4, 39840, Note_on_c, 1, 76, 64
4, 40200, Note_on_c, 1, 76, 0
4, 40200, Note_on_c, 1, 67, 64
4, 40320, Note_on_c, 1, 67, 0
4, 40320, Note_on_c, 1, 66, 64
4, 40440, Note_on_c, 1, 66, 0
4, 40440, Note_on_c, 1, 69, 64
4, 40560, Note_on_c, 1, 69, 0
4, 40560, Note_on_c, 1, 71, 64
4, 40680, Note_on_c, 1, 71, 0
4, 40680, Note_on_c, 1, 73, 64
4, 40800, Note_on_c, 1, 73, 0
4, 40800, Note_on_c, 1, 74, 64
4, 40920, Note_on_c, 1, 74, 0
4, 40920, Note_on_c, 1, 76, 64
4, 41040, Note_on_c, 1, 76, 0
4, 41040, Note_on_c, 1, 78, 64
4, 41160, Note_on_c, 1, 78, 0
4, 41160, Note_on_c, 1, 81, 64
4, 41220, Note_on_c, 1, 81, 0
4, 41220, Note_on_c, 1, 79, 64
4, 41280, Note_on_c, 1, 79, 0
4, 41280, Note_on_c, 1, 78, 64
4, 41400, Note_on_c, 1, 78, 0
4, 41400, Note_on_c, 1, 76, 64
4, 41520, Note_on_c, 1, 76, 0
4, 41520, Note_on_c, 1, 74, 64
4, 41760, Note_on_c, 1, 74, 0
4, 42000, Note_on_c, 1, 69, 64
4, 42300, Note_on_c, 1, 69, 0
4, 42300, Note_on_c, 1, 67, 64
4, 42360, Note_on_c, 1, 67, 0
4, 42360, Note_on_c, 1, 66, 64
4, 42420, Note_on_c, 1, 66, 0
4, 42420, Note_on_c, 1, 64, 64
4, 42480, Note_on_c, 1, 64, 0
4, 42480, Note_on_c, 1, 62, 64
4, 42600, Note_on_c, 1, 62, 0
4, 42600, Note_on_c, 1, 69, 64
4, 42660, Note_on_c, 1, 69, 0
4, 42660, Note_on_c, 1, 71, 64
4, 42720, Note_on_c, 1, 71, 0
4, 42720, Note_on_c, 1, 73, 64
4, 42780, Note_on_c, 1, 73, 0
4, 42780, Note_on_c, 1, 74, 64
4, 42840, Note_on_c, 1, 74, 0
4, 42840, Note_on_c, 1, 76, 64
4, 42900, Note_on_c, 1, 76, 0
4, 42900, Note_on_c, 1, 77, 64
4, 42935, Note_on_c, 1, 77, 0
4, 42960, Note_on_c, 1, 76, 64
4, 43440, Note_on_c, 1, 76, 0
4, 44400, End_track
5, 0, Start_track
5, 0, MIDI_port, 0
5, 0, Title_t, "Cello"
5, 0, Program_c, 2, 48
5, 240, Control_c, 2, 7, 90
5, 360, Note_on_c, 2, 57, 64
5, 431, Note_on_c, 2, 57, 0
5, 480, Note_on_c, 2, 56, 64
5, 551, Note_on_c, 2, 56, 0
5, 600, Note_on_c, 2, 54, 64
5, 671, Note_on_c, 2, 54, 0
5, 720, Note_on_c, 2, 52, 64
5, 791, Note_on_c, 2, 52, 0
5, 840, Note_on_c, 2, 50, 64
5, 911, Note_on_c, 2, 50, 0
5, 960, Note_on_c, 2, 49, 64
5, 1031, Note_on_c, 2, 49, 0
5, 1080, Note_on_c, 2, 47, 64
5, 1151, Note_on_c, 2, 47, 0
5, 1200, Note_on_c, 2, 45, 64
5, 1271, Note_on_c, 2, 45, 0
5, 1320, Note_on_c, 2, 47, 64
5, 1391, Note_on_c, 2, 47, 0
5, 1440, Note_on_c, 2, 45, 64
5, 1511, Note_on_c, 2, 45, 0
5, 1560, Note_on_c, 2, 43, 64
5, 1631, Note_on_c, 2, 43, 0
5, 1680, Note_on_c, 2, 42, 64
5, 1751, Note_on_c, 2, 42, 0
5, 1800, Note_on_c, 2, 40, 64
5, 1871, Note_on_c, 2, 40, 0
5, 1920, Note_on_c, 2, 42, 64
5, 1991, Note_on_c, 2, 42, 0
5, 2040, Note_on_c, 2, 44, 64
5, 2111, Note_on_c, 2, 44, 0
5, 2160, Note_on_c, 2, 45, 64
5, 2231, Note_on_c, 2, 45, 0
5, 2280, Note_on_c, 2, 47, 64
5, 2351, Note_on_c, 2, 47, 0
5, 2400, Note_on_c, 2, 49, 64
5, 2471, Note_on_c, 2, 49, 0
5, 2520, Note_on_c, 2, 50, 64
5, 2591, Note_on_c, 2, 50, 0
5, 2640, Note_on_c, 2, 52, 64
5, 2711, Note_on_c, 2, 52, 0
5, 2760, Note_on_c, 2, 54, 64
5, 2831, Note_on_c, 2, 54, 0
5, 2880, Note_on_c, 2, 52, 64
5, 2951, Note_on_c, 2, 52, 0
5, 3000, Note_on_c, 2, 50, 64
5, 3071, Note_on_c, 2, 50, 0
5, 3120, Note_on_c, 2, 49, 64
5, 3191, Note_on_c, 2, 49, 0
5, 3240, Note_on_c, 2, 45, 64
5, 3311, Note_on_c, 2, 45, 0
5, 3360, Note_on_c, 2, 47, 64
5, 3431, Note_on_c, 2, 47, 0
5, 3480, Note_on_c, 2, 49, 64
5, 3551, Note_on_c, 2, 49, 0
5, 3600, Note_on_c, 2, 50, 64
5, 3671, Note_on_c, 2, 50, 0
5, 3720, Note_on_c, 2, 49, 64
5, 3791, Note_on_c, 2, 49, 0
5, 3840, Note_on_c, 2, 50, 64
5, 3911, Note_on_c, 2, 50, 0
5, 3960, Note_on_c, 2, 52, 64
5, 4031, Note_on_c, 2, 52, 0
5, 4080, Note_on_c, 2, 54, 64
5, 4151, Note_on_c, 2, 54, 0
5, 4200, Note_on_c, 2, 52, 64
5, 4271, Note_on_c, 2, 52, 0
5, 4320, Note_on_c, 2, 50, 64
5, 4391, Note_on_c, 2, 50, 0
5, 4440, Note_on_c, 2, 49, 64
5, 4511, Note_on_c, 2, 49, 0
5, 4560, Note_on_c, 2, 47, 64
5, 4631, Note_on_c, 2, 47, 0
5, 4680, Note_on_c, 2, 45, 64
5, 4751, Note_on_c, 2, 45, 0
5, 4800, Note_on_c, 2, 47, 64
5, 4871, Note_on_c, 2, 47, 0
5, 4920, Note_on_c, 2, 49, 64
5, 4991, Note_on_c, 2, 49, 0
5, 5040, Note_on_c, 2, 50, 64
5, 5111, Note_on_c, 2, 50, 0
5, 5160, Note_on_c, 2, 52, 64
5, 5231, Note_on_c, 2, 52, 0
5, 5280, Note_on_c, 2, 54, 64
5, 5351, Note_on_c, 2, 54, 0
5, 5400, Note_on_c, 2, 55, 64
5, 5471, Note_on_c, 2, 55, 0
5, 5520, Note_on_c, 2, 57, 64
5, 5591, Note_on_c, 2, 57, 0
5, 5640, Note_on_c, 2, 55, 64
5, 5711, Note_on_c, 2, 55, 0
5, 5760, Note_on_c, 2, 54, 64
5, 5831, Note_on_c, 2, 54, 0
5, 5880, Note_on_c, 2, 52, 64
5, 5951, Note_on_c, 2, 52, 0
5, 6000, Note_on_c, 2, 50, 64
5, 6071, Note_on_c, 2, 50, 0
5, 6120, Note_on_c, 2, 52, 64
5, 6191, Note_on_c, 2, 52, 0
5, 6240, Note_on_c, 2, 50, 64
5, 6311, Note_on_c, 2, 50, 0
5, 6360, Note_on_c, 2, 49, 64
5, 6431, Note_on_c, 2, 49, 0
5, 6480, Note_on_c, 2, 47, 64
5, 6551, Note_on_c, 2, 47, 0
5, 6600, Note_on_c, 2, 45, 64
5, 6671, Note_on_c, 2, 45, 0
5, 6720, Note_on_c, 2, 47, 64
5, 6791, Note_on_c, 2, 47, 0
5, 6840, Note_on_c, 2, 49, 64
5, 6911, Note_on_c, 2, 49, 0
5, 6960, Note_on_c, 2, 50, 64
5, 7031, Note_on_c, 2, 50, 0
5, 7080, Note_on_c, 2, 52, 64
5, 7151, Note_on_c, 2, 52, 0
5, 7200, Note_on_c, 2, 54, 64
5, 7271, Note_on_c, 2, 54, 0
5, 7320, Note_on_c, 2, 55, 64
5, 7391, Note_on_c, 2, 55, 0
5, 7440, Note_on_c, 2, 57, 64
5, 7511, Note_on_c, 2, 57, 0
5, 7560, Note_on_c, 2, 59, 64
5, 7631, Note_on_c, 2, 59, 0
5, 7680, Note_on_c, 2, 61, 64
5, 7751, Note_on_c, 2, 61, 0
5, 7800, Note_on_c, 2, 62, 64
5, 7871, Note_on_c, 2, 62, 0
5, 7920, Note_on_c, 2, 61, 64
5, 7991, Note_on_c, 2, 61, 0
5, 8040, Note_on_c, 2, 57, 64
5, 8111, Note_on_c, 2, 57, 0
5, 8160, Note_on_c, 2, 56, 64
5, 8231, Note_on_c, 2, 56, 0
5, 8280, Note_on_c, 2, 54, 64
5, 8351, Note_on_c, 2, 54, 0
5, 8400, Note_on_c, 2, 52, 64
5, 8471, Note_on_c, 2, 52, 0
5, 8520, Note_on_c, 2, 50, 64
5, 8591, Note_on_c, 2, 50, 0
5, 8640, Note_on_c, 2, 49, 64
5, 8711, Note_on_c, 2, 49, 0
5, 8760, Note_on_c, 2, 47, 64
5, 8831, Note_on_c, 2, 47, 0
5, 8880, Note_on_c, 2, 45, 64
5, 8951, Note_on_c, 2, 45, 0
5, 9000, Note_on_c, 2, 47, 64
5, 9071, Note_on_c, 2, 47, 0
5, 9120, Note_on_c, 2, 45, 64
5, 9191, Note_on_c, 2, 45, 0
5, 9240, Note_on_c, 2, 44, 64
5, 9311, Note_on_c, 2, 44, 0
5, 9360, Note_on_c, 2, 42, 64
5, 9431, Note_on_c, 2, 42, 0
5, 9480, Note_on_c, 2, 40, 64
5, 9551, Note_on_c, 2, 40, 0
5, 9600, Note_on_c, 2, 42, 64
5, 9671, Note_on_c, 2, 42, 0
5, 9720, Note_on_c, 2, 44, 64
5, 9791, Note_on_c, 2, 44, 0
5, 9840, Note_on_c, 2, 45, 64
5, 9911, Note_on_c, 2, 45, 0
5, 9960, Note_on_c, 2, 47, 64
5, 10031, Note_on_c, 2, 47, 0
5, 10080, Note_on_c, 2, 49, 64
5, 10151, Note_on_c, 2, 49, 0
5, 10200, Note_on_c, 2, 50, 64
5, 10271, Note_on_c, 2, 50, 0
5, 10320, Note_on_c, 2, 52, 64
5, 10391, Note_on_c, 2, 52, 0
5, 10440, Note_on_c, 2, 54, 64
5, 10511, Note_on_c, 2, 54, 0
5, 10560, Note_on_c, 2, 52, 64
5, 10631, Note_on_c, 2, 52, 0
5, 10680, Note_on_c, 2, 50, 64
5, 10751, Note_on_c, 2, 50, 0
5, 10800, Note_on_c, 2, 49, 64
5, 10871, Note_on_c, 2, 49, 0
5, 10920, Note_on_c, 2, 45, 64
5, 10991, Note_on_c, 2, 45, 0
5, 11040, Note_on_c, 2, 47, 64
5, 11111, Note_on_c, 2, 47, 0
5, 11160, Note_on_c, 2, 49, 64
5, 11231, Note_on_c, 2, 49, 0
5, 11280, Note_on_c, 2, 50, 64
5, 11351, Note_on_c, 2, 50, 0
5, 11400, Note_on_c, 2, 49, 64
5, 11471, Note_on_c, 2, 49, 0
5, 11520, Note_on_c, 2, 50, 64
5, 11591, Note_on_c, 2, 50, 0
5, 11640, Note_on_c, 2, 52, 64
5, 11711, Note_on_c, 2, 52, 0
5, 11760, Note_on_c, 2, 54, 64
5, 11831, Note_on_c, 2, 54, 0
5, 11880, Note_on_c, 2, 52, 64
5, 11951, Note_on_c, 2, 52, 0
5, 12000, Note_on_c, 2, 50, 64
5, 12071, Note_on_c, 2, 50, 0
5, 12120, Note_on_c, 2, 49, 64
5, 12191, Note_on_c, 2, 49, 0
5, 12240, Note_on_c, 2, 47, 64
5, 12311, Note_on_c, 2, 47, 0
5, 12360, Note_on_c, 2, 45, 64
5, 12431, Note_on_c, 2, 45, 0
5, 12480, Note_on_c, 2, 47, 64
5, 12551, Note_on_c, 2, 47, 0
5, 12600, Note_on_c, 2, 49, 64
5, 12671, Note_on_c, 2, 49, 0
5, 12720, Note_on_c, 2, 50, 64
5, 12791, Note_on_c, 2, 50, 0
5, 12840, Note_on_c, 2, 52, 64
5, 12911, Note_on_c, 2, 52, 0
5, 12960, Note_on_c, 2, 54, 64
5, 13031, Note_on_c, 2, 54, 0
5, 13080, Note_on_c, 2, 55, 64
5, 13151, Note_on_c, 2, 55, 0
5, 13200, Note_on_c, 2, 57, 64
5, 13271, Note_on_c, 2, 57, 0
5, 13320, Note_on_c, 2, 55, 64
5, 13391, Note_on_c, 2, 55, 0
5, 13440, Note_on_c, 2, 54, 64
5, 13511, Note_on_c, 2, 54, 0
5, 13560, Note_on_c, 2, 52, 64
5, 13631, Note_on_c, 2, 52, 0
5, 13680, Note_on_c, 2, 50, 64
5, 13751, Note_on_c, 2, 50, 0
5, 13800, Note_on_c, 2, 52, 64
5, 13871, Note_on_c, 2, 52, 0
5, 13920, Note_on_c, 2, 50, 64
5, 13991, Note_on_c, 2, 50, 0
5, 14040, Note_on_c, 2, 49, 64
5, 14111, Note_on_c, 2, 49, 0
5, 14160, Note_on_c, 2, 47, 64
5, 14231, Note_on_c, 2, 47, 0
5, 14280, Note_on_c, 2, 45, 64
5, 14351, Note_on_c, 2, 45, 0
5, 14400, Note_on_c, 2, 47, 64
5, 14471, Note_on_c, 2, 47, 0
5, 14520, Note_on_c, 2, 49, 64
5, 14591, Note_on_c, 2, 49, 0
5, 14640, Note_on_c, 2, 50, 64
5, 14711, Note_on_c, 2, 50, 0
5, 14760, Note_on_c, 2, 52, 64
5, 14831, Note_on_c, 2, 52, 0
5, 14880, Note_on_c, 2, 54, 64
5, 14951, Note_on_c, 2, 54, 0
5, 15000, Note_on_c, 2, 56, 64
5, 15071, Note_on_c, 2, 56, 0
5, 15120, Note_on_c, 2, 57, 64
5, 15191, Note_on_c, 2, 57, 0
5, 15240, Note_on_c, 2, 59, 64
5, 15311, Note_on_c, 2, 59, 0
5, 15360, Note_on_c, 2, 61, 64
5, 15431, Note_on_c, 2, 61, 0
5, 15480, Note_on_c, 2, 62, 64
5, 15551, Note_on_c, 2, 62, 0
5, 15600, Note_on_c, 2, 61, 64
5, 15671, Note_on_c, 2, 61, 0
5, 15720, Note_on_c, 2, 57, 64
5, 15791, Note_on_c, 2, 57, 0
5, 15840, Note_on_c, 2, 56, 64
5, 15911, Note_on_c, 2, 56, 0
5, 15960, Note_on_c, 2, 54, 64
5, 16031, Note_on_c, 2, 54, 0
5, 16080, Note_on_c, 2, 52, 64
5, 16151, Note_on_c, 2, 52, 0
5, 16200, Note_on_c, 2, 50, 64
5, 16271, Note_on_c, 2, 50, 0
5, 16320, Note_on_c, 2, 49, 64
5, 16391, Note_on_c, 2, 49, 0
5, 16440, Note_on_c, 2, 47, 64
5, 16511, Note_on_c, 2, 47, 0
5, 16560, Note_on_c, 2, 45, 64
5, 16631, Note_on_c, 2, 45, 0
5, 16680, Note_on_c, 2, 47, 64
5, 16751, Note_on_c, 2, 47, 0
5, 16800, Note_on_c, 2, 45, 64
5, 16871, Note_on_c, 2, 45, 0
5, 16920, Note_on_c, 2, 43, 64
5, 16991, Note_on_c, 2, 43, 0
5, 17040, Note_on_c, 2, 42, 64
5, 17111, Note_on_c, 2, 42, 0
5, 17160, Note_on_c, 2, 40, 64
5, 17231, Note_on_c, 2, 40, 0
5, 17280, Note_on_c, 2, 38, 64
5, 17351, Note_on_c, 2, 38, 0
5, 17400, Note_on_c, 2, 40, 64
5, 17471, Note_on_c, 2, 40, 0
5, 17520, Note_on_c, 2, 42, 64
5, 17591, Note_on_c, 2, 42, 0
5, 17640, Note_on_c, 2, 43, 64
5, 17711, Note_on_c, 2, 43, 0
5, 17760, Note_on_c, 2, 45, 64
5, 17831, Note_on_c, 2, 45, 0
5, 17880, Note_on_c, 2, 42, 64
5, 17951, Note_on_c, 2, 42, 0
5, 18000, Note_on_c, 2, 43, 64
5, 18071, Note_on_c, 2, 43, 0
5, 18120, Note_on_c, 2, 54, 64
5, 18191, Note_on_c, 2, 54, 0
5, 18240, Note_on_c, 2, 52, 64
5, 18311, Note_on_c, 2, 52, 0
5, 18360, Note_on_c, 2, 50, 64
5, 18431, Note_on_c, 2, 50, 0
5, 18480, Note_on_c, 2, 49, 64
5, 18551, Note_on_c, 2, 49, 0
5, 18600, Note_on_c, 2, 45, 64
5, 18671, Note_on_c, 2, 45, 0
5, 18720, Note_on_c, 2, 47, 64
5, 18791, Note_on_c, 2, 47, 0
5, 18840, Note_on_c, 2, 49, 64
5, 18911, Note_on_c, 2, 49, 0
5, 18960, Note_on_c, 2, 50, 64
5, 19031, Note_on_c, 2, 50, 0
5, 19080, Note_on_c, 2, 52, 64
5, 19151, Note_on_c, 2, 52, 0
5, 19200, Note_on_c, 2, 54, 64
5, 19271, Note_on_c, 2, 54, 0
5, 19320, Note_on_c, 2, 55, 64
5, 19391, Note_on_c, 2, 55, 0
5, 19440, Note_on_c, 2, 57, 64
5, 19511, Note_on_c, 2, 57, 0
5, 19560, Note_on_c, 2, 55, 64
5, 19631, Note_on_c, 2, 55, 0
5, 19680, Note_on_c, 2, 54, 64
5, 19751, Note_on_c, 2, 54, 0
5, 19800, Note_on_c, 2, 52, 64
5, 19871, Note_on_c, 2, 52, 0
5, 19920, Note_on_c, 2, 51, 64
5, 19991, Note_on_c, 2, 51, 0
5, 20040, Note_on_c, 2, 47, 64
5, 20111, Note_on_c, 2, 47, 0
5, 20160, Note_on_c, 2, 49, 64
5, 20231, Note_on_c, 2, 49, 0
5, 20280, Note_on_c, 2, 51, 64
5, 20351, Note_on_c, 2, 51, 0
5, 20400, Note_on_c, 2, 52, 64
5, 20471, Note_on_c, 2, 52, 0
5, 20520, Note_on_c, 2, 54, 64
5, 20591, Note_on_c, 2, 54, 0
5, 20640, Note_on_c, 2, 55, 64
5, 20711, Note_on_c, 2, 55, 0
5, 20760, Note_on_c, 2, 54, 64
5, 20831, Note_on_c, 2, 54, 0
5, 20880, Note_on_c, 2, 52, 64
5, 20951, Note_on_c, 2, 52, 0
5, 21000, Note_on_c, 2, 50, 64
5, 21071, Note_on_c, 2, 50, 0
5, 21120, Note_on_c, 2, 48, 64
5, 21191, Note_on_c, 2, 48, 0
5, 21240, Note_on_c, 2, 47, 64
5, 21311, Note_on_c, 2, 47, 0
5, 21360, Note_on_c, 2, 48, 64
5, 21431, Note_on_c, 2, 48, 0
5, 21480, Note_on_c, 2, 45, 64
5, 21551, Note_on_c, 2, 45, 0
5, 21600, Note_on_c, 2, 50, 64
5, 21671, Note_on_c, 2, 50, 0
5, 21720, Note_on_c, 2, 48, 64
5, 21791, Note_on_c, 2, 48, 0
5, 21840, Note_on_c, 2, 47, 64
5, 21911, Note_on_c, 2, 47, 0
5, 21960, Note_on_c, 2, 43, 64
5, 22031, Note_on_c, 2, 43, 0
5, 22080, Note_on_c, 2, 48, 64
5, 22151, Note_on_c, 2, 48, 0
5, 22200, Note_on_c, 2, 47, 64
5, 22271, Note_on_c, 2, 47, 0
5, 22320, Note_on_c, 2, 45, 64
5, 22391, Note_on_c, 2, 45, 0
5, 22440, Note_on_c, 2, 42, 64
5, 22511, Note_on_c, 2, 42, 0
5, 22560, Note_on_c, 2, 47, 64
5, 22631, Note_on_c, 2, 47, 0
5, 22680, Note_on_c, 2, 45, 64
5, 22751, Note_on_c, 2, 45, 0
5, 22800, Note_on_c, 2, 44, 64
5, 22871, Note_on_c, 2, 44, 0
5, 22920, Note_on_c, 2, 40, 64
5, 22991, Note_on_c, 2, 40, 0
5, 23040, Note_on_c, 2, 42, 64
5, 23111, Note_on_c, 2, 42, 0
5, 23160, Note_on_c, 2, 44, 64
5, 23231, Note_on_c, 2, 44, 0
5, 23280, Note_on_c, 2, 45, 64
5, 23351, Note_on_c, 2, 45, 0
5, 23400, Note_on_c, 2, 47, 64
5, 23471, Note_on_c, 2, 47, 0
5, 23520, Note_on_c, 2, 49, 64
5, 23591, Note_on_c, 2, 49, 0
5, 23640, Note_on_c, 2, 47, 64
5, 23711, Note_on_c, 2, 47, 0
5, 23760, Note_on_c, 2, 45, 64
5, 23831, Note_on_c, 2, 45, 0
5, 23880, Note_on_c, 2, 43, 64
5, 23951, Note_on_c, 2, 43, 0
5, 24000, Note_on_c, 2, 42, 64
5, 24071, Note_on_c, 2, 42, 0
5, 24120, Note_on_c, 2, 40, 64
5, 24191, Note_on_c, 2, 40, 0
5, 24240, Note_on_c, 2, 38, 64
5, 24311, Note_on_c, 2, 38, 0
5, 24360, Note_on_c, 2, 50, 64
5, 24431, Note_on_c, 2, 50, 0
5, 24480, Note_on_c, 2, 49, 64
5, 24551, Note_on_c, 2, 49, 0
5, 24600, Note_on_c, 2, 47, 64
5, 24671, Note_on_c, 2, 47, 0
5, 24720, Note_on_c, 2, 46, 64
5, 24791, Note_on_c, 2, 46, 0
5, 24840, Note_on_c, 2, 42, 64
5, 24911, Note_on_c, 2, 42, 0
5, 24960, Note_on_c, 2, 44, 64
5, 25031, Note_on_c, 2, 44, 0
5, 25080, Note_on_c, 2, 46, 64
5, 25151, Note_on_c, 2, 46, 0
5, 25200, Note_on_c, 2, 47, 64
5, 25271, Note_on_c, 2, 47, 0
5, 25320, Note_on_c, 2, 49, 64
5, 25391, Note_on_c, 2, 49, 0
5, 25440, Note_on_c, 2, 47, 64
5, 25511, Note_on_c, 2, 47, 0
5, 25560, Note_on_c, 2, 45, 64
5, 25631, Note_on_c, 2, 45, 0
5, 25680, Note_on_c, 2, 44, 64
5, 25751, Note_on_c, 2, 44, 0
5, 25800, Note_on_c, 2, 40, 64
5, 25871, Note_on_c, 2, 40, 0
5, 25920, Note_on_c, 2, 45, 64
5, 25991, Note_on_c, 2, 45, 0
5, 26040, Note_on_c, 2, 43, 64
5, 26111, Note_on_c, 2, 43, 0
5, 26160, Note_on_c, 2, 42, 64
5, 26231, Note_on_c, 2, 42, 0
5, 26280, Note_on_c, 2, 38, 64
5, 26351, Note_on_c, 2, 38, 0
5, 26400, Note_on_c, 2, 43, 64
5, 26471, Note_on_c, 2, 43, 0
5, 26520, Note_on_c, 2, 42, 64
5, 26591, Note_on_c, 2, 42, 0
5, 26640, Note_on_c, 2, 40, 64
5, 26711, Note_on_c, 2, 40, 0
5, 26760, Note_on_c, 2, 37, 64
5, 26831, Note_on_c, 2, 37, 0
5, 26880, Note_on_c, 2, 42, 64
5, 26951, Note_on_c, 2, 42, 0
5, 27000, Note_on_c, 2, 40, 64
5, 27071, Note_on_c, 2, 40, 0
5, 27120, Note_on_c, 2, 39, 64
5, 27191, Note_on_c, 2, 39, 0
5, 27240, Note_on_c, 2, 47, 64
5, 27311, Note_on_c, 2, 47, 0
5, 27360, Note_on_c, 2, 49, 64
5, 27431, Note_on_c, 2, 49, 0
5, 27480, Note_on_c, 2, 51, 64
5, 27551, Note_on_c, 2, 51, 0
5, 27600, Note_on_c, 2, 52, 64
5, 27671, Note_on_c, 2, 52, 0
5, 27720, Note_on_c, 2, 54, 64
5, 27791, Note_on_c, 2, 54, 0
5, 27840, Note_on_c, 2, 56, 64
5, 27911, Note_on_c, 2, 56, 0
5, 27960, Note_on_c, 2, 54, 64
5, 28031, Note_on_c, 2, 54, 0
5, 28080, Note_on_c, 2, 53, 64
5, 28151, Note_on_c, 2, 53, 0
5, 28200, Note_on_c, 2, 49, 64
5, 28271, Note_on_c, 2, 49, 0
5, 28320, Note_on_c, 2, 51, 64
5, 28391, Note_on_c, 2, 51, 0
5, 28440, Note_on_c, 2, 53, 64
5, 28511, Note_on_c, 2, 53, 0
5, 28560, Note_on_c, 2, 54, 64
5, 28631, Note_on_c, 2, 54, 0
5, 28680, Note_on_c, 2, 56, 64
5, 28751, Note_on_c, 2, 56, 0
5, 28800, Note_on_c, 2, 57, 64
5, 28871, Note_on_c, 2, 57, 0
5, 28920, Note_on_c, 2, 59, 64
5, 28991, Note_on_c, 2, 59, 0
5, 29040, Note_on_c, 2, 61, 64
5, 29111, Note_on_c, 2, 61, 0
5, 29160, Note_on_c, 2, 49, 64
5, 29231, Note_on_c, 2, 49, 0
5, 29280, Note_on_c, 2, 51, 64
5, 29351, Note_on_c, 2, 51, 0
5, 29400, Note_on_c, 2, 53, 64
5, 29471, Note_on_c, 2, 53, 0
5, 29520, Note_on_c, 2, 54, 64
5, 29591, Note_on_c, 2, 54, 0
5, 29640, Note_on_c, 2, 56, 64
5, 29711, Note_on_c, 2, 56, 0
5, 29760, Note_on_c, 2, 54, 64
5, 29831, Note_on_c, 2, 54, 0
5, 29880, Note_on_c, 2, 52, 64
5, 29951, Note_on_c, 2, 52, 0
5, 30000, Note_on_c, 2, 51, 64
5, 30071, Note_on_c, 2, 51, 0
5, 30120, Note_on_c, 2, 47, 64
5, 30191, Note_on_c, 2, 47, 0
5, 30240, Note_on_c, 2, 52, 64
5, 30311, Note_on_c, 2, 52, 0
5, 30360, Note_on_c, 2, 50, 64
5, 30431, Note_on_c, 2, 50, 0
5, 30480, Note_on_c, 2, 49, 64
5, 30551, Note_on_c, 2, 49, 0
5, 30600, Note_on_c, 2, 45, 64
5, 30671, Note_on_c, 2, 45, 0
5, 30720, Note_on_c, 2, 50, 64
5, 30791, Note_on_c, 2, 50, 0
5, 30840, Note_on_c, 2, 49, 64
5, 30911, Note_on_c, 2, 49, 0
5, 30960, Note_on_c, 2, 47, 64
5, 31031, Note_on_c, 2, 47, 0
5, 31080, Note_on_c, 2, 44, 64
5, 31151, Note_on_c, 2, 44, 0
5, 31200, Note_on_c, 2, 49, 64
5, 31271, Note_on_c, 2, 49, 0
5, 31320, Note_on_c, 2, 47, 64
5, 31391, Note_on_c, 2, 47, 0
5, 31440, Note_on_c, 2, 45, 64
5, 31511, Note_on_c, 2, 45, 0
5, 31560, Note_on_c, 2, 47, 64
5, 31631, Note_on_c, 2, 47, 0
5, 31680, Note_on_c, 2, 45, 64
5, 31751, Note_on_c, 2, 45, 0
5, 31800, Note_on_c, 2, 43, 64
5, 31871, Note_on_c, 2, 43, 0
5, 31920, Note_on_c, 2, 42, 64
5, 31991, Note_on_c, 2, 42, 0
5, 32040, Note_on_c, 2, 54, 64
5, 32111, Note_on_c, 2, 54, 0
5, 32160, Note_on_c, 2, 52, 64
5, 32231, Note_on_c, 2, 52, 0
5, 32280, Note_on_c, 2, 50, 64
5, 32351, Note_on_c, 2, 50, 0
5, 32400, Note_on_c, 2, 49, 64
5, 32471, Note_on_c, 2, 49, 0
5, 32520, Note_on_c, 2, 45, 64
5, 32591, Note_on_c, 2, 45, 0
5, 32640, Note_on_c, 2, 49, 64
5, 32711, Note_on_c, 2, 49, 0
5, 32760, Note_on_c, 2, 52, 64
5, 32831, Note_on_c, 2, 52, 0
5, 32880, Note_on_c, 2, 57, 64
5, 32951, Note_on_c, 2, 57, 0
5, 33000, Note_on_c, 2, 55, 64
5, 33071, Note_on_c, 2, 55, 0
5, 33120, Note_on_c, 2, 54, 64
5, 33191, Note_on_c, 2, 54, 0
5, 33240, Note_on_c, 2, 52, 64
5, 33311, Note_on_c, 2, 52, 0
5, 33360, Note_on_c, 2, 50, 64
5, 33431, Note_on_c, 2, 50, 0
5, 33480, Note_on_c, 2, 49, 64
5, 33551, Note_on_c, 2, 49, 0
5, 33600, Note_on_c, 2, 50, 64
5, 33671, Note_on_c, 2, 50, 0
5, 33720, Note_on_c, 2, 52, 64
5, 33791, Note_on_c, 2, 52, 0
5, 33840, Note_on_c, 2, 54, 64
5, 33911, Note_on_c, 2, 54, 0
5, 33960, Note_on_c, 2, 55, 64
5, 34031, Note_on_c, 2, 55, 0
5, 34080, Note_on_c, 2, 57, 64
5, 34151, Note_on_c, 2, 57, 0
5, 34200, Note_on_c, 2, 54, 64
5, 34271, Note_on_c, 2, 54, 0
5, 34320, Note_on_c, 2, 59, 64
5, 34391, Note_on_c, 2, 59, 0
5, 34440, Note_on_c, 2, 47, 64
5, 34511, Note_on_c, 2, 47, 0
5, 34560, Note_on_c, 2, 59, 64
5, 34631, Note_on_c, 2, 59, 0
5, 34680, Note_on_c, 2, 57, 64
5, 34751, Note_on_c, 2, 57, 0
5, 34800, Note_on_c, 2, 55, 64
5, 34871, Note_on_c, 2, 55, 0
5, 34920, Note_on_c, 2, 43, 64
5, 34991, Note_on_c, 2, 43, 0
5, 35040, Note_on_c, 2, 42, 64
5, 35111, Note_on_c, 2, 42, 0
5, 35160, Note_on_c, 2, 40, 64
5, 35231, Note_on_c, 2, 40, 0
5, 35280, Note_on_c, 2, 45, 64
5, 35351, Note_on_c, 2, 45, 0
5, 35400, Note_on_c, 2, 43, 64
5, 35471, Note_on_c, 2, 43, 0
5, 35520, Note_on_c, 2, 42, 64
5, 35591, Note_on_c, 2, 42, 0
5, 35640, Note_on_c, 2, 45, 64
5, 35711, Note_on_c, 2, 45, 0
5, 35760, Note_on_c, 2, 50, 64
5, 35831, Note_on_c, 2, 50, 0
5, 35880, Note_on_c, 2, 48, 64
5, 35951, Note_on_c, 2, 48, 0
5, 36000, Note_on_c, 2, 47, 64
5, 36071, Note_on_c, 2, 47, 0
5, 36120, Note_on_c, 2, 50, 64
5, 36191, Note_on_c, 2, 50, 0
5, 36240, Note_on_c, 2, 43, 64
5, 36311, Note_on_c, 2, 43, 0
5, 36360, Note_on_c, 2, 55, 64
5, 36431, Note_on_c, 2, 55, 0
5, 36480, Note_on_c, 2, 57, 64
5, 36551, Note_on_c, 2, 57, 0
5, 36600, Note_on_c, 2, 59, 64
5, 36671, Note_on_c, 2, 59, 0
5, 36720, Note_on_c, 2, 60, 64
5, 36791, Note_on_c, 2, 60, 0
5, 36840, Note_on_c, 2, 62, 64
5, 36911, Note_on_c, 2, 62, 0
5, 36960, Note_on_c, 2, 60, 64
5, 37031, Note_on_c, 2, 60, 0
5, 37080, Note_on_c, 2, 59, 64
5, 37151, Note_on_c, 2, 59, 0
5, 37200, Note_on_c, 2, 57, 64
5, 37271, Note_on_c, 2, 57, 0
5, 37320, Note_on_c, 2, 56, 64
5, 37391, Note_on_c, 2, 56, 0
5, 37440, Note_on_c, 2, 57, 64
5, 37511, Note_on_c, 2, 57, 0
5, 37560, Note_on_c, 2, 59, 64
5, 37631, Note_on_c, 2, 59, 0
5, 37680, Note_on_c, 2, 61, 64
5, 37751, Note_on_c, 2, 61, 0
5, 37800, Note_on_c, 2, 57, 64
5, 37871, Note_on_c, 2, 57, 0
5, 37920, Note_on_c, 2, 59, 64
5, 37991, Note_on_c, 2, 59, 0
5, 38040, Note_on_c, 2, 61, 64
5, 38111, Note_on_c, 2, 61, 0
5, 38160, Note_on_c, 2, 62, 64
5, 38231, Note_on_c, 2, 62, 0
5, 38280, Note_on_c, 2, 60, 64
5, 38351, Note_on_c, 2, 60, 0
5, 38400, Note_on_c, 2, 59, 64
5, 38471, Note_on_c, 2, 59, 0
5, 38520, Note_on_c, 2, 57, 64
5, 38591, Note_on_c, 2, 57, 0
5, 38640, Note_on_c, 2, 55, 64
5, 38711, Note_on_c, 2, 55, 0
5, 38760, Note_on_c, 2, 54, 64
5, 38831, Note_on_c, 2, 54, 0
5, 38880, Note_on_c, 2, 52, 64
5, 38951, Note_on_c, 2, 52, 0
5, 39000, Note_on_c, 2, 51, 64
5, 39071, Note_on_c, 2, 51, 0
5, 39120, Note_on_c, 2, 52, 64
5, 39191, Note_on_c, 2, 52, 0
5, 39240, Note_on_c, 2, 55, 64
5, 39311, Note_on_c, 2, 55, 0
5, 39360, Note_on_c, 2, 54, 64
5, 39431, Note_on_c, 2, 54, 0
5, 39480, Note_on_c, 2, 52, 64
5, 39551, Note_on_c, 2, 52, 0
5, 39600, Note_on_c, 2, 51, 64
5, 39671, Note_on_c, 2, 51, 0
5, 39720, Note_on_c, 2, 47, 64
5, 39791, Note_on_c, 2, 47, 0
5, 39840, Note_on_c, 2, 52, 64
5, 39911, Note_on_c, 2, 52, 0
5, 39960, Note_on_c, 2, 50, 64
5, 40031, Note_on_c, 2, 50, 0
5, 40080, Note_on_c, 2, 49, 64
5, 40151, Note_on_c, 2, 49, 0
5, 40200, Note_on_c, 2, 45, 64
5, 40271, Note_on_c, 2, 45, 0
5, 40320, Note_on_c, 2, 50, 64
5, 40391, Note_on_c, 2, 50, 0
5, 40440, Note_on_c, 2, 49, 64
5, 40511, Note_on_c, 2, 49, 0
5, 40560, Note_on_c, 2, 47, 64
5, 40631, Note_on_c, 2, 47, 0
5, 40680, Note_on_c, 2, 45, 64
5, 40751, Note_on_c, 2, 45, 0
5, 40800, Note_on_c, 2, 47, 64
5, 40871, Note_on_c, 2, 47, 0
5, 40920, Note_on_c, 2, 49, 64
5, 40991, Note_on_c, 2, 49, 0
5, 41040, Note_on_c, 2, 50, 64
5, 41111, Note_on_c, 2, 50, 0
5, 41160, Note_on_c, 2, 49, 64
5, 41231, Note_on_c, 2, 49, 0
5, 41280, Note_on_c, 2, 50, 64
5, 41351, Note_on_c, 2, 50, 0
5, 41400, Note_on_c, 2, 52, 64
5, 41471, Note_on_c, 2, 52, 0
5, 41520, Note_on_c, 2, 54, 64
5, 41591, Note_on_c, 2, 54, 0
5, 41640, Note_on_c, 2, 55, 64
5, 41711, Note_on_c, 2, 55, 0
5, 41760, Note_on_c, 2, 57, 64
5, 41831, Note_on_c, 2, 57, 0
5, 41880, Note_on_c, 2, 55, 64
5, 41951, Note_on_c, 2, 55, 0
5, 42000, Note_on_c, 2, 54, 64
5, 42071, Note_on_c, 2, 54, 0
5, 42120, Note_on_c, 2, 52, 64
5, 42191, Note_on_c, 2, 52, 0
5, 42240, Note_on_c, 2, 54, 64
5, 42311, Note_on_c, 2, 54, 0
5, 42360, Note_on_c, 2, 50, 64
5, 42431, Note_on_c, 2, 50, 0
5, 42480, Note_on_c, 2, 57, 64
5, 42960, Note_on_c, 2, 57, 0
5, 42960, Note_on_c, 2, 45, 64
5, 43440, Note_on_c, 2, 45, 0
5, 44400, End_track
6, 0, Start_track
6, 0, MIDI_port, 0
6, 0, Title_t, "Soprano I"
6, 0, Program_c, 3, 52
6, 7920, Note_on_c, 3, 76, 108
6, 8880, Note_on_c, 3, 76, 0
6, 8880, Note_on_c, 3, 73, 89
6, 9360, Note_on_c, 3, 73, 0
6, 9360, Note_on_c, 3, 74, 89
6, 9840, Note_on_c, 3, 74, 0
6, 9840, Note_on_c, 3, 73, 89
6, 10320, Note_on_c, 3, 73, 0
6, 10320, Note_on_c, 3, 71, 89
6, 10800, Note_on_c, 3, 71, 0
6, 10800, Note_on_c, 3, 76, 89
6, 11280, Note_on_c, 3, 76, 0
6, 11280, Note_on_c, 3, 78, 89
6, 11460, Note_on_c, 3, 78, 0
6, 11520, Note_on_c, 3, 66, 89
6, 11640, Note_on_c, 3, 66, 0
6, 11640, Note_on_c, 3, 67, 89
6, 11760, Note_on_c, 3, 67, 0
6, 11760, Note_on_c, 3, 69, 89
6, 11880, Note_on_c, 3, 69, 0
6, 11880, Note_on_c, 3, 73, 89
6, 12000, Note_on_c, 3, 73, 0
6, 12000, Note_on_c, 3, 78, 89
6, 12480, Note_on_c, 3, 78, 0
6, 12480, Note_on_c, 3, 76, 89
6, 12840, Note_on_c, 3, 76, 0
6, 12840, Note_on_c, 3, 69, 89
6, 12960, Note_on_c, 3, 69, 0
6, 12960, Note_on_c, 3, 74, 89
6, 13320, Note_on_c, 3, 74, 0
6, 13320, Note_on_c, 3, 73, 89
6, 13380, Note_on_c, 3, 73, 0
6, 13380, Note_on_c, 3, 71, 89
6, 13440, Note_on_c, 3, 71, 0
6, 13440, Note_on_c, 3, 73, 89
6, 13680, Note_on_c, 3, 73, 0
6, 13680, Note_on_c, 3, 74, 89
6, 13860, Note_on_c, 3, 74, 0
6, 13920, Note_on_c, 3, 74, 108
6, 14400, Note_on_c, 3, 74, 0
6, 14400, Note_on_c, 3, 71, 89
6, 14640, Note_on_c, 3, 71, 0
6, 14640, Note_on_c, 3, 69, 89
6, 14880, Note_on_c, 3, 69, 0
6, 14880, Note_on_c, 3, 62, 89
6, 15120, Note_on_c, 3, 62, 0
6, 15360, Note_on_c, 3, 69, 89
6, 15480, Note_on_c, 3, 69, 0
6, 15480, Note_on_c, 3, 68, 89
6, 15600, Note_on_c, 3, 68, 0
6, 15600, Note_on_c, 3, 69, 89
6, 15720, Note_on_c, 3, 69, 0
6, 15720, Note_on_c, 3, 73, 89
6, 15840, Note_on_c, 3, 73, 0
6, 15840, Note_on_c, 3, 76, 89
6, 16320, Note_on_c, 3, 76, 0
6, 16320, Note_on_c, 3, 64, 89
6, 16800, Note_on_c, 3, 64, 0
6, 16920, Note_on_c, 3, 64, 89
6, 17040, Note_on_c, 3, 64, 0
6, 17040, Note_on_c, 3, 69, 89
6, 17160, Note_on_c, 3, 69, 0
6, 17160, Note_on_c, 3, 67, 89
6, 17280, Note_on_c, 3, 67, 0
6, 17280, Note_on_c, 3, 66, 89
6, 17400, Note_on_c, 3, 66, 0
6, 17400, Note_on_c, 3, 67, 89
6, 17520, Note_on_c, 3, 67, 0
6, 17520, Note_on_c, 3, 69, 89
6, 17640, Note_on_c, 3, 69, 0
6, 17640, Note_on_c, 3, 71, 89
6, 17760, Note_on_c, 3, 71, 0
6, 17760, Note_on_c, 3, 73, 89
6, 17880, Note_on_c, 3, 73, 0
6, 17880, Note_on_c, 3, 69, 89
6, 18000, Note_on_c, 3, 69, 0
6, 18000, Note_on_c, 3, 71, 89
6, 18480, Note_on_c, 3, 71, 0
6, 18480, Note_on_c, 3, 69, 89
6, 18720, Note_on_c, 3, 69, 0
6, 19200, Note_on_c, 3, 81, 108
6, 19680, Note_on_c, 3, 81, 0
6, 19680, Note_on_c, 3, 69, 89
6, 19920, Note_on_c, 3, 69, 0
6, 20040, Note_on_c, 3, 75, 89
6, 20160, Note_on_c, 3, 75, 0
6, 20160, Note_on_c, 3, 76, 89
6, 20280, Note_on_c, 3, 76, 0
6, 20280, Note_on_c, 3, 78, 89
6, 20400, Note_on_c, 3, 78, 0
6, 20400, Note_on_c, 3, 71, 89
6, 20640, Note_on_c, 3, 71, 0
6, 20640, Note_on_c, 3, 76, 89
6, 20880, Note_on_c, 3, 76, 0
6, 21000, Note_on_c, 3, 71, 89
6, 21120, Note_on_c, 3, 71, 0
6, 21120, Note_on_c, 3, 76, 89
6, 21240, Note_on_c, 3, 76, 0
6, 21240, Note_on_c, 3, 74, 89
6, 21360, Note_on_c, 3, 74, 0
6, 21360, Note_on_c, 3, 72, 89
6, 21600, Note_on_c, 3, 72, 0
6, 21600, Note_on_c, 3, 69, 89
6, 21840, Note_on_c, 3, 69, 0
6, 21840, Note_on_c, 3, 71, 89
6, 22080, Note_on_c, 3, 71, 0
6, 24240, Note_on_c, 3, 78, 108
6, 25200, Note_on_c, 3, 78, 0
6, 25200, Note_on_c, 3, 74, 89
6, 25680, Note_on_c, 3, 74, 0
6, 25680, Note_on_c, 3, 76, 89
6, 26160, Note_on_c, 3, 76, 0
6, 26160, Note_on_c, 3, 74, 89
6, 26640, Note_on_c, 3, 74, 0
6, 26640, Note_on_c, 3, 73, 89
6, 27120, Note_on_c, 3, 73, 0
6, 27120, Note_on_c, 3, 78, 89
6, 27600, Note_on_c, 3, 78, 0
6, 27600, Note_on_c, 3, 80, 89
6, 27780, Note_on_c, 3, 80, 0
6, 27840, Note_on_c, 3, 71, 108
6, 28320, Note_on_c, 3, 71, 0
6, 28320, Note_on_c, 3, 69, 89
6, 28440, Note_on_c, 3, 69, 0
6, 28440, Note_on_c, 3, 68, 89
6, 28560, Note_on_c, 3, 68, 0
6, 28560, Note_on_c, 3, 66, 89
6, 28680, Note_on_c, 3, 66, 0
6, 28680, Note_on_c, 3, 73, 89
6, 28800, Note_on_c, 3, 73, 0
6, 28800, Note_on_c, 3, 78, 89
6, 29160, Note_on_c, 3, 78, 0
6, 29160, Note_on_c, 3, 77, 89
6, 29280, Note_on_c, 3, 77, 0
6, 29280, Note_on_c, 3, 73, 108
6, 29640, Note_on_c, 3, 73, 0
6, 29640, Note_on_c, 3, 71, 89
6, 29760, Note_on_c, 3, 71, 0
6, 29760, Note_on_c, 3, 73, 89
6, 29880, Note_on_c, 3, 73, 0
6, 29880, Note_on_c, 3, 78, 89
6, 30000, Note_on_c, 3, 78, 0
6, 30000, Note_on_c, 3, 78, 89
6, 30120, Note_on_c, 3, 78, 0
6, 30120, Note_on_c, 3, 75, 89
6, 30240, Note_on_c, 3, 75, 0
6, 30240, Note_on_c, 3, 76, 89
6, 30720, Note_on_c, 3, 76, 0
6, 30720, Note_on_c, 3, 74, 89
6, 31050, Note_on_c, 3, 74, 0
6, 31080, Note_on_c, 3, 74, 89
6, 31200, Note_on_c, 3, 74, 0
6, 31200, Note_on_c, 3, 76, 89
6, 31320, Note_on_c, 3, 76, 0
6, 31320, Note_on_c, 3, 74, 89
6, 31440, Note_on_c, 3, 74, 0
6, 31440, Note_on_c, 3, 73, 89
6, 31560, Note_on_c, 3, 73, 0
6, 31560, Note_on_c, 3, 74, 89
6, 31680, Note_on_c, 3, 74, 0
6, 31680, Note_on_c, 3, 76, 89
6, 31920, Note_on_c, 3, 76, 0
6, 31920, Note_on_c, 3, 69, 89
6, 32400, Note_on_c, 3, 69, 0
6, 32640, Note_on_c, 3, 73, 108
6, 33120, Note_on_c, 3, 73, 0
6, 33120, Note_on_c, 3, 69, 89
6, 33600, Note_on_c, 3, 69, 0
6, 33600, Note_on_c, 3, 71, 89
6, 34080, Note_on_c, 3, 71, 0
6, 34080, Note_on_c, 3, 69, 89
6, 34560, Note_on_c, 3, 69, 0
6, 34560, Note_on_c, 3, 67, 89
6, 35040, Note_on_c, 3, 67, 0
6, 35040, Note_on_c, 3, 73, 89
6, 35520, Note_on_c, 3, 73, 0
6, 35520, Note_on_c, 3, 74, 89
6, 36030, Note_on_c, 3, 74, 0
6, 36120, Note_on_c, 3, 69, 89
6, 36240, Note_on_c, 3, 69, 0
6, 36240, Note_on_c, 3, 71, 89
6, 36480, Note_on_c, 3, 71, 0
6, 36480, Note_on_c, 3, 73, 89
6, 36600, Note_on_c, 3, 73, 0
6, 36600, Note_on_c, 3, 75, 89
6, 36720, Note_on_c, 3, 75, 0
6, 36720, Note_on_c, 3, 76, 89
6, 36840, Note_on_c, 3, 76, 0
6, 36840, Note_on_c, 3, 77, 89
6, 36960, Note_on_c, 3, 77, 0
6, 36960, Note_on_c, 3, 79, 89
6, 37440, Note_on_c, 3, 79, 0
6, 37440, Note_on_c, 3, 77, 89
6, 37680, Note_on_c, 3, 77, 0
6, 37920, Note_on_c, 3, 81, 108
6, 38400, Note_on_c, 3, 81, 0
6, 38400, Note_on_c, 3, 79, 89
6, 38880, Note_on_c, 3, 79, 0
6, 38880, Note_on_c, 3, 71, 89
6, 39120, Note_on_c, 3, 71, 0
6, 39120, Note_on_c, 3, 76, 89
6, 39360, Note_on_c, 3, 76, 0
6, 39360, Note_on_c, 3, 75, 89
6, 39480, Note_on_c, 3, 75, 0
6, 39480, Note_on_c, 3, 76, 89
6, 39600, Note_on_c, 3, 76, 0
6, 39600, Note_on_c, 3, 78, 89
6, 39840, Note_on_c, 3, 78, 0
6, 39840, Note_on_c, 3, 76, 89
6, 40080, Note_on_c, 3, 76, 0
6, 40320, Note_on_c, 3, 74, 108
6, 40920, Note_on_c, 3, 74, 0
6, 40920, Note_on_c, 3, 73, 89
6, 40980, Note_on_c, 3, 73, 0
6, 40980, Note_on_c, 3, 71, 89
6, 41040, Note_on_c, 3, 71, 0
6, 41040, Note_on_c, 3, 69, 89
6, 41160, Note_on_c, 3, 69, 0
6, 41160, Note_on_c, 3, 73, 89
6, 41280, Note_on_c, 3, 73, 0
6, 41280, Note_on_c, 3, 78, 89
6, 41640, Note_on_c, 3, 78, 0
6, 41640, Note_on_c, 3, 71, 89
6, 41760, Note_on_c, 3, 71, 0
6, 41760, Note_on_c, 3, 76, 89
6, 42000, Note_on_c, 3, 76, 0
6, 42000, Note_on_c, 3, 69, 89
6, 42240, Note_on_c, 3, 69, 0
6, 42240, Note_on_c, 3, 74, 89
6, 42720, Note_on_c, 3, 74, 0
6, 42720, Note_on_c, 3, 73, 89
6, 42840, Note_on_c, 3, 73, 0
6, 42840, Note_on_c, 3, 71, 89
6, 42960, Note_on_c, 3, 71, 0
6, 42960, Note_on_c, 3, 73, 89
6, 43440, Note_on_c, 3, 73, 0
6, 44400, End_track
7, 0, Start_track
7, 0, MIDI_port, 0
7, 0, Title_t, "Soprano II"
7, 0, Program_c, 4, 52
7, 10800, Note_on_c, 4, 69, 108
7, 11760, Note_on_c, 4, 69, 0
7, 11760, Note_on_c, 4, 66, 89
7, 12240, Note_on_c, 4, 66, 0
7, 12240, Note_on_c, 4, 67, 89
7, 12720, Note_on_c, 4, 67, 0
7, 12720, Note_on_c, 4, 66, 89
7, 13200, Note_on_c, 4, 66, 0
7, 13200, Note_on_c, 4, 64, 89
7, 13680, Note_on_c, 4, 64, 0
7, 13680, Note_on_c, 4, 69, 89
7, 14160, Note_on_c, 4, 69, 0
7, 14160, Note_on_c, 4, 71, 89
7, 14340, Note_on_c, 4, 71, 0
7, 14400, Note_on_c, 4, 62, 89
7, 14520, Note_on_c, 4, 62, 0
7, 14520, Note_on_c, 4, 64, 89
7, 14640, Note_on_c, 4, 64, 0
7, 14640, Note_on_c, 4, 66, 89
7, 14760, Note_on_c, 4, 66, 0
7, 14760, Note_on_c, 4, 69, 89
7, 14880, Note_on_c, 4, 69, 0
7, 14880, Note_on_c, 4, 74, 89
7, 15360, Note_on_c, 4, 74, 0
7, 15360, Note_on_c, 4, 73, 89
7, 15480, Note_on_c, 4, 73, 0
7, 15480, Note_on_c, 4, 71, 89
7, 15600, Note_on_c, 4, 71, 0
7, 15600, Note_on_c, 4, 76, 89
7, 15720, Note_on_c, 4, 76, 0
7, 15720, Note_on_c, 4, 64, 89
7, 15840, Note_on_c, 4, 64, 0
7, 15840, Note_on_c, 4, 69, 89
7, 16200, Note_on_c, 4, 69, 0
7, 16200, Note_on_c, 4, 68, 89
7, 16260, Note_on_c, 4, 68, 0
7, 16260, Note_on_c, 4, 66, 89
7, 16320, Note_on_c, 4, 66, 0
7, 16320, Note_on_c, 4, 68, 89
7, 16560, Note_on_c, 4, 68, 0
7, 16560, Note_on_c, 4, 69, 89
7, 16740, Note_on_c, 4, 69, 0
7, 16800, Note_on_c, 4, 76, 89
7, 17040, Note_on_c, 4, 76, 0
7, 17040, Note_on_c, 4, 78, 89
7, 17280, Note_on_c, 4, 78, 0
7, 17280, Note_on_c, 4, 71, 89
7, 17520, Note_on_c, 4, 71, 0
7, 17520, Note_on_c, 4, 78, 89
7, 18000, Note_on_c, 4, 78, 0
7, 18000, Note_on_c, 4, 71, 89
7, 18240, Note_on_c, 4, 71, 0
7, 18720, Note_on_c, 4, 76, 89
7, 18960, Note_on_c, 4, 76, 0
7, 18960, Note_on_c, 4, 69, 89
7, 19320, Note_on_c, 4, 69, 0
7, 19320, Note_on_c, 4, 71, 89
7, 19440, Note_on_c, 4, 71, 0
7, 19440, Note_on_c, 4, 73, 89
7, 19680, Note_on_c, 4, 73, 0
7, 19680, Note_on_c, 4, 78, 89
7, 19920, Note_on_c, 4, 78, 0
7, 19920, Note_on_c, 4, 71, 89
7, 20160, Note_on_c, 4, 71, 0
7, 22800, Note_on_c, 4, 76, 108
7, 23760, Note_on_c, 4, 76, 0
7, 23760, Note_on_c, 4, 73, 89
7, 24240, Note_on_c, 4, 73, 0
7, 24240, Note_on_c, 4, 74, 89
7, 24720, Note_on_c, 4, 74, 0
7, 24720, Note_on_c, 4, 73, 89
7, 25200, Note_on_c, 4, 73, 0
7, 25200, Note_on_c, 4, 71, 89
7, 25680, Note_on_c, 4, 71, 0
7, 25680, Note_on_c, 4, 76, 89
7, 26160, Note_on_c, 4, 76, 0
7, 26160, Note_on_c, 4, 78, 89
7, 26400, Note_on_c, 4, 78, 0
7, 26520, Note_on_c, 4, 74, 89
7, 26640, Note_on_c, 4, 74, 0
7, 26640, Note_on_c, 4, 76, 89
7, 26760, Note_on_c, 4, 76, 0
7, 26760, Note_on_c, 4, 79, 89
7, 26880, Note_on_c, 4, 79, 0
7, 26880, Note_on_c, 4, 78, 89
7, 27120, Note_on_c, 4, 78, 0
7, 27120, Note_on_c, 4, 71, 89
7, 27360, Note_on_c, 4, 71, 0
7, 27600, Note_on_c, 4, 71, 108
7, 27900, Note_on_c, 4, 71, 0
7, 27900, Note_on_c, 4, 73, 89
7, 27960, Note_on_c, 4, 73, 0
7, 27960, Note_on_c, 4, 74, 89
7, 28080, Note_on_c, 4, 74, 0
7, 28080, Note_on_c, 4, 73, 89
7, 28680, Note_on_c, 4, 73, 0
7, 28680, Note_on_c, 4, 71, 89
7, 28800, Note_on_c, 4, 71, 0
7, 28800, Note_on_c, 4, 69, 89
7, 28920, Note_on_c, 4, 69, 0
7, 28920, Note_on_c, 4, 66, 89
7, 29040, Note_on_c, 4, 66, 0
7, 29040, Note_on_c, 4, 73, 89
7, 29400, Note_on_c, 4, 73, 0
7, 29400, Note_on_c, 4, 68, 89
7, 29520, Note_on_c, 4, 68, 0
7, 29520, Note_on_c, 4, 69, 89
7, 29760, Note_on_c, 4, 69, 0
7, 29880, Note_on_c, 4, 73, 89
7, 30000, Note_on_c, 4, 73, 0
7, 30000, Note_on_c, 4, 71, 89
7, 30360, Note_on_c, 4, 71, 0
7, 30360, Note_on_c, 4, 64, 89
7, 30480, Note_on_c, 4, 64, 0
7, 30480, Note_on_c, 4, 69, 89
7, 30960, Note_on_c, 4, 69, 0
7, 30960, Note_on_c, 4, 71, 89
7, 31200, Note_on_c, 4, 71, 0
7, 31320, Note_on_c, 4, 68, 89
7, 31440, Note_on_c, 4, 68, 0
7, 31440, Note_on_c, 4, 69, 89
7, 31800, Note_on_c, 4, 69, 0
7, 31800, Note_on_c, 4, 64, 89
7, 31920, Note_on_c, 4, 64, 0
7, 31920, Note_on_c, 4, 66, 89
7, 32040, Note_on_c, 4, 66, 0
7, 32040, Note_on_c, 4, 62, 89
7, 32160, Note_on_c, 4, 62, 0
7, 32160, Note_on_c, 4, 69, 89
7, 32400, Note_on_c, 4, 69, 0
7, 32400, Note_on_c, 4, 76, 108
7, 32880, Note_on_c, 4, 76, 0
7, 32880, Note_on_c, 4, 73, 89
7, 33360, Note_on_c, 4, 73, 0
7, 33360, Note_on_c, 4, 74, 89
7, 33840, Note_on_c, 4, 74, 0
7, 33840, Note_on_c, 4, 73, 89
7, 34320, Note_on_c, 4, 73, 0
7, 34320, Note_on_c, 4, 71, 89
7, 34800, Note_on_c, 4, 71, 0
7, 34800, Note_on_c, 4, 76, 89
7, 35280, Note_on_c, 4, 76, 0
7, 35280, Note_on_c, 4, 78, 89
7, 35940, Note_on_c, 4, 78, 0
7, 36000, Note_on_c, 4, 74, 108
7, 36360, Note_on_c, 4, 74, 0
7, 36360, Note_on_c, 4, 71, 89
7, 36480, Note_on_c, 4, 71, 0
7, 36480, Note_on_c, 4, 67, 89
7, 36720, Note_on_c, 4, 67, 0
7, 36960, Note_on_c, 4, 76, 108
7, 37200, Note_on_c, 4, 76, 0
7, 37200, Note_on_c, 4, 73, 89
7, 37320, Note_on_c, 4, 73, 0
7, 37320, Note_on_c, 4, 76, 89
7, 37440, Note_on_c, 4, 76, 0
7, 37440, Note_on_c, 4, 69, 89
7, 37920, Note_on_c, 4, 69, 0
7, 37920, Note_on_c, 4, 64, 89
7, 38160, Note_on_c, 4, 64, 0
7, 38160, Note_on_c, 4, 71, 89
7, 38280, Note_on_c, 4, 71, 0
7, 38280, Note_on_c, 4, 72, 89
7, 38400, Note_on_c, 4, 72, 0
7, 38400, Note_on_c, 4, 74, 89
7, 38640, Note_on_c, 4, 74, 0
7, 38640, Note_on_c, 4, 74, 89
7, 38880, Note_on_c, 4, 74, 0
7, 39360, Note_on_c, 4, 69, 89
7, 39600, Note_on_c, 4, 69, 0
7, 39600, Note_on_c, 4, 66, 89
7, 39840, Note_on_c, 4, 66, 0
7, 39840, Note_on_c, 4, 67, 89
7, 40080, Note_on_c, 4, 67, 0
7, 40080, Note_on_c, 4, 69, 89
7, 40560, Note_on_c, 4, 69, 0
7, 40560, Note_on_c, 4, 71, 89
7, 40800, Note_on_c, 4, 71, 0
7, 41280, Note_on_c, 4, 69, 108
7, 41640, Note_on_c, 4, 69, 0
7, 41640, Note_on_c, 4, 71, 89
7, 41760, Note_on_c, 4, 71, 0
7, 41760, Note_on_c, 4, 73, 89
7, 41880, Note_on_c, 4, 73, 0
7, 41880, Note_on_c, 4, 64, 89
7, 42000, Note_on_c, 4, 64, 0
7, 42000, Note_on_c, 4, 66, 89
7, 42120, Note_on_c, 4, 66, 0
7, 42120, Note_on_c, 4, 67, 89
7, 42240, Note_on_c, 4, 67, 0
7, 42240, Note_on_c, 4, 69, 89
7, 42960, Note_on_c, 4, 69, 0
7, 42960, Note_on_c, 4, 69, 89
7, 43440, Note_on_c, 4, 69, 0
7, 44400, End_track
8, 0, Start_track
8, 0, MIDI_port, 0
8, 0, Title_t, "Alto"
8, 0, Program_c, 5, 52
8, 5040, Note_on_c, 5, 69, 108
8, 6000, Note_on_c, 5, 69, 0
8, 6000, Note_on_c, 5, 66, 89
8, 6480, Note_on_c, 5, 66, 0
8, 6480, Note_on_c, 5, 67, 89
8, 6960, Note_on_c, 5, 67, 0
8, 6960, Note_on_c, 5, 66, 89
8, 7440, Note_on_c, 5, 66, 0
8, 7440, Note_on_c, 5, 64, 89
8, 7920, Note_on_c, 5, 64, 0
8, 7920, Note_on_c, 5, 69, 89
8, 8400, Note_on_c, 5, 69, 0
8, 8400, Note_on_c, 5, 71, 89
8, 9000, Note_on_c, 5, 71, 0
8, 9000, Note_on_c, 5, 69, 89
8, 9060, Note_on_c, 5, 69, 0
8, 9060, Note_on_c, 5, 68, 89
8, 9120, Note_on_c, 5, 68, 0
8, 9120, Note_on_c, 5, 69, 89
8, 9180, Note_on_c, 5, 69, 0
8, 9180, Note_on_c, 5, 71, 89
8, 9240, Note_on_c, 5, 71, 0
8, 9240, Note_on_c, 5, 73, 89
8, 9480, Note_on_c, 5, 73, 0
8, 9480, Note_on_c, 5, 74, 89
8, 9540, Note_on_c, 5, 74, 0
8, 9540, Note_on_c, 5, 73, 89
8, 9600, Note_on_c, 5, 73, 0
8, 9600, Note_on_c, 5, 71, 89
8, 9930, Note_on_c, 5, 71, 0
8, 9960, Note_on_c, 5, 64, 89
8, 10080, Note_on_c, 5, 64, 0
8, 10080, Note_on_c, 5, 69, 89
8, 10440, Note_on_c, 5, 69, 0
8, 10440, Note_on_c, 5, 68, 89
8, 10500, Note_on_c, 5, 68, 0
8, 10500, Note_on_c, 5, 66, 89
8, 10560, Note_on_c, 5, 66, 0
8, 10560, Note_on_c, 5, 68, 89
8, 10800, Note_on_c, 5, 68, 0
8, 10800, Note_on_c, 5, 69, 89
8, 11160, Note_on_c, 5, 69, 0
8, 11160, Note_on_c, 5, 67, 89
8, 11280, Note_on_c, 5, 67, 0
8, 11280, Note_on_c, 5, 66, 89
8, 11400, Note_on_c, 5, 66, 0
8, 11400, Note_on_c, 5, 69, 89
8, 11520, Note_on_c, 5, 69, 0
8, 11520, Note_on_c, 5, 74, 89
8, 11880, Note_on_c, 5, 74, 0
8, 11880, Note_on_c, 5, 73, 89
8, 12000, Note_on_c, 5, 73, 0
8, 12000, Note_on_c, 5, 71, 89
8, 12090, Note_on_c, 5, 71, 0
8, 12120, Note_on_c, 5, 69, 89
8, 12240, Note_on_c, 5, 69, 0
8, 12240, Note_on_c, 5, 71, 89
8, 12480, Note_on_c, 5, 71, 0
8, 12480, Note_on_c, 5, 64, 89
8, 12720, Note_on_c, 5, 64, 0
8, 12720, Note_on_c, 5, 66, 89
8, 12840, Note_on_c, 5, 66, 0
8, 12840, Note_on_c, 5, 67, 89
8, 12960, Note_on_c, 5, 67, 0
8, 12960, Note_on_c, 5, 69, 89
8, 13440, Note_on_c, 5, 69, 0
8, 13440, Note_on_c, 5, 69, 89
8, 13680, Note_on_c, 5, 69, 0
8, 14040, Note_on_c, 5, 57, 89
8, 14160, Note_on_c, 5, 57, 0
8, 14160, Note_on_c, 5, 62, 89
8, 14880, Note_on_c, 5, 62, 0
8, 14880, Note_on_c, 5, 61, 89
8, 15000, Note_on_c, 5, 61, 0
8, 15000, Note_on_c, 5, 59, 89
8, 15120, Note_on_c, 5, 59, 0
8, 15120, Note_on_c, 5, 61, 89
8, 15240, Note_on_c, 5, 61, 0
8, 15240, Note_on_c, 5, 62, 89
8, 15360, Note_on_c, 5, 62, 0
8, 15360, Note_on_c, 5, 64, 89
8, 16320, Note_on_c, 5, 64, 0
8, 16320, Note_on_c, 5, 71, 89
8, 16560, Note_on_c, 5, 71, 0
8, 16560, Note_on_c, 5, 73, 89
8, 16800, Note_on_c, 5, 73, 0
8, 17280, Note_on_c, 5, 66, 108
8, 17760, Note_on_c, 5, 66, 0
8, 17760, Note_on_c, 5, 61, 89
8, 18000, Note_on_c, 5, 61, 0
8, 18240, Note_on_c, 5, 67, 89
8, 18480, Note_on_c, 5, 67, 0
8, 18480, Note_on_c, 5, 69, 89
8, 19080, Note_on_c, 5, 69, 0
8, 19080, Note_on_c, 5, 67, 89
8, 19200, Note_on_c, 5, 67, 0
8, 19200, Note_on_c, 5, 66, 89
8, 19320, Note_on_c, 5, 66, 0
8, 19320, Note_on_c, 5, 62, 89
8, 19440, Note_on_c, 5, 62, 0
8, 19440, Note_on_c, 5, 57, 89
8, 19680, Note_on_c, 5, 57, 0
8, 19920, Note_on_c, 5, 71, 108
8, 20880, Note_on_c, 5, 71, 0
8, 20880, Note_on_c, 5, 67, 89
8, 21360, Note_on_c, 5, 67, 0
8, 21360, Note_on_c, 5, 69, 89
8, 21840, Note_on_c, 5, 69, 0
8, 21840, Note_on_c, 5, 67, 89
8, 22320, Note_on_c, 5, 67, 0
8, 22320, Note_on_c, 5, 66, 89
8, 22800, Note_on_c, 5, 66, 0
8, 22800, Note_on_c, 5, 71, 89
8, 23280, Note_on_c, 5, 71, 0
8, 23280, Note_on_c, 5, 73, 89
8, 23460, Note_on_c, 5, 73, 0
8, 23520, Note_on_c, 5, 64, 89
8, 23760, Note_on_c, 5, 64, 0
8, 23760, Note_on_c, 5, 69, 89
8, 23880, Note_on_c, 5, 69, 0
8, 23880, Note_on_c, 5, 71, 89
8, 24000, Note_on_c, 5, 71, 0
8, 24000, Note_on_c, 5, 73, 89
8, 24240, Note_on_c, 5, 73, 0
8, 24240, Note_on_c, 5, 66, 89
8, 24480, Note_on_c, 5, 66, 0
8, 24480, Note_on_c, 5, 64, 89
8, 24600, Note_on_c, 5, 64, 0
8, 24600, Note_on_c, 5, 62, 89
8, 24720, Note_on_c, 5, 62, 0
8, 24720, Note_on_c, 5, 64, 89
8, 24840, Note_on_c, 5, 64, 0
8, 24840, Note_on_c, 5, 62, 89
8, 24960, Note_on_c, 5, 62, 0
8, 24960, Note_on_c, 5, 61, 89
8, 25200, Note_on_c, 5, 61, 0
8, 25200, Note_on_c, 5, 62, 89
8, 25320, Note_on_c, 5, 62, 0
8, 25320, Note_on_c, 5, 64, 89
8, 25440, Note_on_c, 5, 64, 0
8, 25440, Note_on_c, 5, 66, 89
8, 25680, Note_on_c, 5, 66, 0
8, 25680, Note_on_c, 5, 59, 89
8, 25800, Note_on_c, 5, 59, 0
8, 25800, Note_on_c, 5, 68, 89
8, 25920, Note_on_c, 5, 68, 0
8, 25920, Note_on_c, 5, 69, 89
8, 26400, Note_on_c, 5, 69, 0
8, 26400, Note_on_c, 5, 67, 89
8, 26580, Note_on_c, 5, 67, 0
8, 26640, Note_on_c, 5, 61, 89
8, 26760, Note_on_c, 5, 61, 0
8, 26760, Note_on_c, 5, 64, 89
8, 26880, Note_on_c, 5, 64, 0
8, 26880, Note_on_c, 5, 69, 89
8, 27240, Note_on_c, 5, 69, 0
8, 27240, Note_on_c, 5, 68, 89
8, 27360, Note_on_c, 5, 68, 0
8, 27360, Note_on_c, 5, 66, 89
8, 27720, Note_on_c, 5, 66, 0
8, 27720, Note_on_c, 5, 64, 89
8, 27780, Note_on_c, 5, 64, 0
8, 27780, Note_on_c, 5, 63, 89
8, 27840, Note_on_c, 5, 63, 0
8, 27840, Note_on_c, 5, 64, 89
8, 27960, Note_on_c, 5, 64, 0
8, 27960, Note_on_c, 5, 66, 89
8, 28080, Note_on_c, 5, 66, 0
8, 28080, Note_on_c, 5, 68, 89
8, 28200, Note_on_c, 5, 68, 0
8, 28200, Note_on_c, 5, 73, 89
8, 28440, Note_on_c, 5, 73, 0
8, 28440, Note_on_c, 5, 71, 89
8, 28560, Note_on_c, 5, 71, 0
8, 28560, Note_on_c, 5, 69, 89
8, 28680, Note_on_c, 5, 69, 0
8, 28680, Note_on_c, 5, 68, 89
8, 28800, Note_on_c, 5, 68, 0
8, 28800, Note_on_c, 5, 66, 89
8, 29040, Note_on_c, 5, 66, 0
8, 29760, Note_on_c, 5, 69, 108
8, 30240, Note_on_c, 5, 69, 0
8, 30240, Note_on_c, 5, 68, 89
8, 30600, Note_on_c, 5, 68, 0
8, 30600, Note_on_c, 5, 73, 89
8, 30720, Note_on_c, 5, 73, 0
8, 30720, Note_on_c, 5, 66, 89
8, 31080, Note_on_c, 5, 66, 0
8, 31080, Note_on_c, 5, 71, 89
8, 31200, Note_on_c, 5, 71, 0
8, 31200, Note_on_c, 5, 64, 89
8, 31440, Note_on_c, 5, 64, 0
8, 31440, Note_on_c, 5, 64, 89
8, 31680, Note_on_c, 5, 64, 0
8, 32400, Note_on_c, 5, 67, 108
8, 32880, Note_on_c, 5, 67, 0
8, 32880, Note_on_c, 5, 64, 89
8, 33360, Note_on_c, 5, 64, 0
8, 33360, Note_on_c, 5, 66, 89
8, 33840, Note_on_c, 5, 66, 0
8, 33840, Note_on_c, 5, 64, 89
8, 34320, Note_on_c, 5, 64, 0
8, 34320, Note_on_c, 5, 62, 89
8, 34800, Note_on_c, 5, 62, 0
8, 34800, Note_on_c, 5, 67, 89
8, 35280, Note_on_c, 5, 67, 0
8, 35280, Note_on_c, 5, 69, 89
8, 36000, Note_on_c, 5, 69, 0
8, 36480, Note_on_c, 5, 76, 108
8, 36840, Note_on_c, 5, 76, 0
8, 36840, Note_on_c, 5, 71, 89
8, 36960, Note_on_c, 5, 71, 0
8, 36960, Note_on_c, 5, 67, 89
8, 37200, Note_on_c, 5, 67, 0
8, 37440, Note_on_c, 5, 65, 89
8, 37560, Note_on_c, 5, 65, 0
8, 37560, Note_on_c, 5, 67, 89
8, 37680, Note_on_c, 5, 67, 0
8, 37680, Note_on_c, 5, 69, 89
8, 37920, Note_on_c, 5, 69, 0
8, 37920, Note_on_c, 5, 61, 89
8, 38160, Note_on_c, 5, 61, 0
8, 38160, Note_on_c, 5, 66, 89
8, 38400, Note_on_c, 5, 66, 0
8, 38400, Note_on_c, 5, 59, 89
8, 38640, Note_on_c, 5, 59, 0
8, 38880, Note_on_c, 5, 64, 89
8, 39000, Note_on_c, 5, 64, 0
8, 39000, Note_on_c, 5, 66, 89
8, 39120, Note_on_c, 5, 66, 0
8, 39120, Note_on_c, 5, 67, 89
8, 39360, Note_on_c, 5, 67, 0
8, 39360, Note_on_c, 5, 72, 89
8, 39600, Note_on_c, 5, 72, 0
8, 39600, Note_on_c, 5, 71, 89
8, 39960, Note_on_c, 5, 71, 0
8, 39960, Note_on_c, 5, 72, 89
8, 40020, Note_on_c, 5, 72, 0
8, 40020, Note_on_c, 5, 71, 89
8, 40080, Note_on_c, 5, 71, 0
8, 40080, Note_on_c, 5, 69, 89
8, 40440, Note_on_c, 5, 69, 0
8, 40440, Note_on_c, 5, 67, 89
8, 40500, Note_on_c, 5, 67, 0
8, 40500, Note_on_c, 5, 66, 89
8, 40560, Note_on_c, 5, 66, 0
8, 40560, Note_on_c, 5, 67, 89
8, 40800, Note_on_c, 5, 67, 0
8, 40800, Note_on_c, 5, 55, 89
8, 41040, Note_on_c, 5, 55, 0
8, 41160, Note_on_c, 5, 69, 108
8, 41400, Note_on_c, 5, 69, 0
8, 41400, Note_on_c, 5, 67, 89
8, 41520, Note_on_c, 5, 67, 0
8, 41520, Note_on_c, 5, 66, 89
8, 41640, Note_on_c, 5, 66, 0
8, 41640, Note_on_c, 5, 62, 89
8, 41760, Note_on_c, 5, 62, 0
8, 41760, Note_on_c, 5, 69, 89
8, 42120, Note_on_c, 5, 69, 0
8, 42120, Note_on_c, 5, 67, 89
8, 42240, Note_on_c, 5, 67, 0
8, 42240, Note_on_c, 5, 66, 89
8, 42720, Note_on_c, 5, 66, 0
8, 42720, Note_on_c, 5, 64, 89
8, 42840, Note_on_c, 5, 64, 0
8, 42840, Note_on_c, 5, 62, 89
8, 42960, Note_on_c, 5, 62, 0
8, 42960, Note_on_c, 5, 64, 89
8, 43440, Note_on_c, 5, 64, 0
8, 44400, End_track
9, 0, Start_track
9, 0, MIDI_port, 0
9, 0, Title_t, "Tenor"
9, 0, Program_c, 6, 52
9, 240, Note_on_c, 6, 64, 89
9, 1200, Note_on_c, 6, 64, 0
9, 1200, Note_on_c, 6, 61, 89
9, 1680, Note_on_c, 6, 61, 0
9, 1680, Note_on_c, 6, 62, 89
9, 2160, Note_on_c, 6, 62, 0
9, 2160, Note_on_c, 6, 61, 89
9, 2640, Note_on_c, 6, 61, 0
9, 2640, Note_on_c, 6, 59, 89
9, 3120, Note_on_c, 6, 59, 0
9, 3120, Note_on_c, 6, 64, 89
9, 3600, Note_on_c, 6, 64, 0
9, 3600, Note_on_c, 6, 66, 89
9, 3780, Note_on_c, 6, 66, 0
9, 3840, Note_on_c, 6, 54, 89
9, 3960, Note_on_c, 6, 54, 0
9, 3960, Note_on_c, 6, 55, 89
9, 4080, Note_on_c, 6, 55, 0
9, 4080, Note_on_c, 6, 57, 89
9, 4200, Note_on_c, 6, 57, 0
9, 4200, Note_on_c, 6, 61, 89
9, 4320, Note_on_c, 6, 61, 0
9, 4320, Note_on_c, 6, 66, 89
9, 4800, Note_on_c, 6, 66, 0
9, 4800, Note_on_c, 6, 64, 89
9, 5130, Note_on_c, 6, 64, 0
9, 5160, Note_on_c, 6, 57, 89
9, 5280, Note_on_c, 6, 57, 0
9, 5280, Note_on_c, 6, 62, 89
9, 5640, Note_on_c, 6, 62, 0
9, 5640, Note_on_c, 6, 61, 89
9, 5700, Note_on_c, 6, 61, 0
9, 5700, Note_on_c, 6, 59, 89
9, 5760, Note_on_c, 6, 59, 0
9, 5760, Note_on_c, 6, 61, 89
9, 6000, Note_on_c, 6, 61, 0
9, 6000, Note_on_c, 6, 62, 89
9, 6120, Note_on_c, 6, 62, 0
9, 6120, Note_on_c, 6, 57, 89
9, 6240, Note_on_c, 6, 57, 0
9, 6240, Note_on_c, 6, 62, 89
9, 6600, Note_on_c, 6, 62, 0
9, 6600, Note_on_c, 6, 61, 89
9, 6720, Note_on_c, 6, 61, 0
9, 6720, Note_on_c, 6, 59, 89
9, 6960, Note_on_c, 6, 59, 0
9, 6960, Note_on_c, 6, 57, 89
9, 7920, Note_on_c, 6, 57, 0
9, 7920, Note_on_c, 6, 57, 89
9, 8160, Note_on_c, 6, 57, 0
9, 8280, Note_on_c, 6, 57, 89
9, 8400, Note_on_c, 6, 57, 0
9, 8400, Note_on_c, 6, 64, 89
9, 9120, Note_on_c, 6, 64, 0
9, 9120, Note_on_c, 6, 64, 89
9, 9360, Note_on_c, 6, 64, 0
9, 9360, Note_on_c, 6, 66, 89
9, 9840, Note_on_c, 6, 66, 0
9, 9840, Note_on_c, 6, 64, 89
9, 10080, Note_on_c, 6, 64, 0
9, 10200, Note_on_c, 6, 66, 89
9, 10320, Note_on_c, 6, 66, 0
9, 10320, Note_on_c, 6, 59, 89
9, 10440, Note_on_c, 6, 59, 0
9, 10440, Note_on_c, 6, 57, 89
9, 10560, Note_on_c, 6, 57, 0
9, 10560, Note_on_c, 6, 59, 89
9, 10800, Note_on_c, 6, 59, 0
9, 10800, Note_on_c, 6, 57, 89
9, 11040, Note_on_c, 6, 57, 0
9, 11040, Note_on_c, 6, 64, 108
9, 11520, Note_on_c, 6, 64, 0
9, 11520, Note_on_c, 6, 62, 89
9, 11760, Note_on_c, 6, 62, 0
9, 11760, Note_on_c, 6, 57, 89
9, 12000, Note_on_c, 6, 57, 0
9, 12000, Note_on_c, 6, 59, 89
9, 12120, Note_on_c, 6, 59, 0
9, 12120, Note_on_c, 6, 61, 89
9, 12240, Note_on_c, 6, 61, 0
9, 12240, Note_on_c, 6, 62, 89
9, 12480, Note_on_c, 6, 62, 0
9, 12480, Note_on_c, 6, 64, 89
9, 12720, Note_on_c, 6, 64, 0
9, 12720, Note_on_c, 6, 57, 89
9, 12960, Note_on_c, 6, 57, 0
9, 13560, Note_on_c, 6, 64, 89
9, 13680, Note_on_c, 6, 64, 0
9, 13680, Note_on_c, 6, 66, 89
9, 13800, Note_on_c, 6, 66, 0
9, 13800, Note_on_c, 6, 67, 89
9, 13920, Note_on_c, 6, 67, 0
9, 13920, Note_on_c, 6, 69, 89
9, 14160, Note_on_c, 6, 69, 0
9, 14160, Note_on_c, 6, 67, 89
9, 14640, Note_on_c, 6, 67, 0
9, 14640, Note_on_c, 6, 62, 89
9, 14880, Note_on_c, 6, 62, 0
9, 17040, Note_on_c, 6, 66, 108
9, 18000, Note_on_c, 6, 66, 0
9, 18000, Note_on_c, 6, 62, 89
9, 18480, Note_on_c, 6, 62, 0
9, 18480, Note_on_c, 6, 64, 89
9, 18960, Note_on_c, 6, 64, 0
9, 18960, Note_on_c, 6, 62, 89
9, 19440, Note_on_c, 6, 62, 0
9, 19440, Note_on_c, 6, 61, 89
9, 19920, Note_on_c, 6, 61, 0
9, 19920, Note_on_c, 6, 66, 89
9, 20400, Note_on_c, 6, 66, 0
9, 20400, Note_on_c, 6, 67, 89
9, 20580, Note_on_c, 6, 67, 0
9, 20640, Note_on_c, 6, 59, 89
9, 20880, Note_on_c, 6, 59, 0
9, 20880, Note_on_c, 6, 64, 89
9, 21000, Note_on_c, 6, 64, 0
9, 21000, Note_on_c, 6, 66, 89
9, 21120, Note_on_c, 6, 66, 0
9, 21120, Note_on_c, 6, 67, 89
9, 21600, Note_on_c, 6, 67, 0
9, 21600, Note_on_c, 6, 66, 89
9, 21870, Note_on_c, 6, 66, 0
9, 21960, Note_on_c, 6, 59, 89
9, 22080, Note_on_c, 6, 59, 0
9, 22080, Note_on_c, 6, 64, 89
9, 22440, Note_on_c, 6, 64, 0
9, 22440, Note_on_c, 6, 63, 89
9, 22500, Note_on_c, 6, 63, 0
9, 22500, Note_on_c, 6, 61, 89
9, 22560, Note_on_c, 6, 61, 0
9, 22560, Note_on_c, 6, 63, 89
9, 22800, Note_on_c, 6, 63, 0
9, 22800, Note_on_c, 6, 64, 89
9, 22920, Note_on_c, 6, 64, 0
9, 22920, Note_on_c, 6, 59, 89
9, 23040, Note_on_c, 6, 59, 0
9, 23040, Note_on_c, 6, 64, 89
9, 23400, Note_on_c, 6, 64, 0
9, 23400, Note_on_c, 6, 62, 89
9, 23520, Note_on_c, 6, 62, 0
9, 23520, Note_on_c, 6, 61, 89
9, 23640, Note_on_c, 6, 61, 0
9, 23640, Note_on_c, 6, 62, 89
9, 23760, Note_on_c, 6, 62, 0
9, 23760, Note_on_c, 6, 64, 89
9, 24000, Note_on_c, 6, 64, 0
9, 24000, Note_on_c, 6, 57, 89
9, 24480, Note_on_c, 6, 57, 0
9, 24480, Note_on_c, 6, 59, 89
9, 24720, Note_on_c, 6, 59, 0
9, 24720, Note_on_c, 6, 61, 89
9, 24900, Note_on_c, 6, 61, 0
9, 24960, Note_on_c, 6, 66, 89
9, 25440, Note_on_c, 6, 66, 0
9, 25440, Note_on_c, 6, 59, 89
9, 25920, Note_on_c, 6, 59, 0
9, 25920, Note_on_c, 6, 57, 89
9, 26160, Note_on_c, 6, 57, 0
9, 26160, Note_on_c, 6, 62, 89
9, 26520, Note_on_c, 6, 62, 0
9, 26520, Note_on_c, 6, 59, 89
9, 26640, Note_on_c, 6, 59, 0
9, 26640, Note_on_c, 6, 64, 89
9, 27000, Note_on_c, 6, 64, 0
9, 27000, Note_on_c, 6, 66, 89
9, 27060, Note_on_c, 6, 66, 0
9, 27060, Note_on_c, 6, 67, 89
9, 27120, Note_on_c, 6, 67, 0
9, 27120, Note_on_c, 6, 66, 89
9, 27360, Note_on_c, 6, 66, 0
9, 27480, Note_on_c, 6, 57, 89
9, 27600, Note_on_c, 6, 57, 0
9, 27600, Note_on_c, 6, 56, 89
9, 27720, Note_on_c, 6, 56, 0
9, 27720, Note_on_c, 6, 57, 89
9, 27840, Note_on_c, 6, 57, 0
9, 27840, Note_on_c, 6, 59, 89
9, 27960, Note_on_c, 6, 59, 0
9, 27960, Note_on_c, 6, 54, 89
9, 28080, Note_on_c, 6, 54, 0
9, 28080, Note_on_c, 6, 61, 89
9, 28560, Note_on_c, 6, 61, 0
9, 28560, Note_on_c, 6, 61, 89
9, 28740, Note_on_c, 6, 61, 0
9, 28800, Note_on_c, 6, 61, 89
9, 29040, Note_on_c, 6, 61, 0
9, 29040, Note_on_c, 6, 68, 89
9, 29280, Note_on_c, 6, 68, 0
9, 29280, Note_on_c, 6, 65, 89
9, 29520, Note_on_c, 6, 65, 0
9, 29520, Note_on_c, 6, 61, 89
9, 29760, Note_on_c, 6, 61, 0
9, 29760, Note_on_c, 6, 66, 89
9, 30000, Note_on_c, 6, 66, 0
9, 30000, Note_on_c, 6, 59, 89
9, 30240, Note_on_c, 6, 59, 0
9, 30720, Note_on_c, 6, 62, 108
9, 31080, Note_on_c, 6, 62, 0
9, 31080, Note_on_c, 6, 59, 89
9, 31200, Note_on_c, 6, 59, 0
9, 31200, Note_on_c, 6, 56, 89
9, 31440, Note_on_c, 6, 56, 0
9, 31680, Note_on_c, 6, 64, 89
9, 31920, Note_on_c, 6, 64, 0
9, 31920, Note_on_c, 6, 62, 89
9, 32040, Note_on_c, 6, 62, 0
9, 32040, Note_on_c, 6, 57, 89
9, 32160, Note_on_c, 6, 57, 0
9, 32160, Note_on_c, 6, 66, 89
9, 32400, Note_on_c, 6, 66, 0
9, 32400, Note_on_c, 6, 64, 89
9, 32880, Note_on_c, 6, 64, 0
9, 33120, Note_on_c, 6, 69, 108
9, 33600, Note_on_c, 6, 69, 0
9, 33600, Note_on_c, 6, 66, 89
9, 33840, Note_on_c, 6, 66, 0
9, 34080, Note_on_c, 6, 57, 89
9, 34320, Note_on_c, 6, 57, 0
9, 34320, Note_on_c, 6, 59, 89
9, 34380, Note_on_c, 6, 59, 0
9, 34380, Note_on_c, 6, 61, 89
9, 34440, Note_on_c, 6, 61, 0
9, 34440, Note_on_c, 6, 62, 89
9, 34560, Note_on_c, 6, 62, 0
9, 34560, Note_on_c, 6, 62, 89
9, 34680, Note_on_c, 6, 62, 0
9, 34680, Note_on_c, 6, 61, 89
9, 34800, Note_on_c, 6, 61, 0
9, 34800, Note_on_c, 6, 59, 89
9, 35040, Note_on_c, 6, 59, 0
9, 35040, Note_on_c, 6, 64, 89
9, 35280, Note_on_c, 6, 64, 0
9, 35280, Note_on_c, 6, 61, 89
9, 35460, Note_on_c, 6, 61, 0
9, 35520, Note_on_c, 6, 66, 89
9, 36000, Note_on_c, 6, 66, 0
9, 36000, Note_on_c, 6, 67, 89
9, 36120, Note_on_c, 6, 67, 0
9, 36120, Note_on_c, 6, 69, 89
9, 36240, Note_on_c, 6, 69, 0
9, 36240, Note_on_c, 6, 67, 89
9, 36720, Note_on_c, 6, 67, 0
9, 36720, Note_on_c, 6, 64, 89
9, 37440, Note_on_c, 6, 64, 0
9, 37440, Note_on_c, 6, 62, 89
9, 37680, Note_on_c, 6, 62, 0
9, 37680, Note_on_c, 6, 61, 89
9, 37920, Note_on_c, 6, 61, 0
9, 37920, Note_on_c, 6, 57, 89
9, 38160, Note_on_c, 6, 57, 0
9, 38160, Note_on_c, 6, 62, 89
9, 38400, Note_on_c, 6, 62, 0
9, 38400, Note_on_c, 6, 67, 89
9, 38760, Note_on_c, 6, 67, 0
9, 38760, Note_on_c, 6, 69, 89
9, 38880, Note_on_c, 6, 69, 0
9, 38880, Note_on_c, 6, 67, 89
9, 38970, Note_on_c, 6, 67, 0
9, 39000, Note_on_c, 6, 66, 89
9, 39120, Note_on_c, 6, 66, 0
9, 39120, Note_on_c, 6, 64, 89
9, 39360, Note_on_c, 6, 64, 0
9, 39360, Note_on_c, 6, 66, 89
9, 39600, Note_on_c, 6, 66, 0
9, 39600, Note_on_c, 6, 59, 89
9, 40080, Note_on_c, 6, 59, 0
9, 40080, Note_on_c, 6, 61, 89
9, 40320, Note_on_c, 6, 61, 0
9, 40320, Note_on_c, 6, 62, 89
9, 40800, Note_on_c, 6, 62, 0
9, 40800, Note_on_c, 6, 59, 89
9, 41040, Note_on_c, 6, 59, 0
9, 41040, Note_on_c, 6, 66, 89
9, 41160, Note_on_c, 6, 66, 0
9, 41160, Note_on_c, 6, 64, 89
9, 41280, Note_on_c, 6, 64, 0
9, 41280, Note_on_c, 6, 62, 89
9, 41520, Note_on_c, 6, 62, 0
9, 41760, Note_on_c, 6, 57, 89
9, 42000, Note_on_c, 6, 57, 0
9, 42000, Note_on_c, 6, 57, 89
9, 42240, Note_on_c, 6, 57, 0
9, 42240, Note_on_c, 6, 57, 89
9, 42480, Note_on_c, 6, 57, 0
9, 42480, Note_on_c, 6, 57, 89
9, 42960, Note_on_c, 6, 57, 0
9, 42960, Note_on_c, 6, 57, 89
9, 43440, Note_on_c, 6, 57, 0
9, 44400, End_track
10, 0, Start_track
10, 0, MIDI_port, 0
10, 0, Title_t, "Bass"
10, 0, Program_c, 7, 52
10, 3120, Note_on_c, 7, 57, 108
10, 4080, Note_on_c, 7, 57, 0
10, 4080, Note_on_c, 7, 54, 89
10, 4560, Note_on_c, 7, 54, 0
10, 4560, Note_on_c, 7, 55, 89
10, 5040, Note_on_c, 7, 55, 0
10, 5040, Note_on_c, 7, 54, 89
10, 5520, Note_on_c, 7, 54, 0
10, 5520, Note_on_c, 7, 52, 89
10, 6000, Note_on_c, 7, 52, 0
10, 6000, Note_on_c, 7, 57, 89
10, 6480, Note_on_c, 7, 57, 0
10, 6480, Note_on_c, 7, 59, 89
10, 6660, Note_on_c, 7, 59, 0
10, 6720, Note_on_c, 7, 50, 89
10, 6840, Note_on_c, 7, 50, 0
10, 6840, Note_on_c, 7, 52, 89
10, 6960, Note_on_c, 7, 52, 0
10, 6960, Note_on_c, 7, 54, 89
10, 7080, Note_on_c, 7, 54, 0
10, 7080, Note_on_c, 7, 57, 89
10, 7200, Note_on_c, 7, 57, 0
10, 7200, Note_on_c, 7, 62, 89
10, 7680, Note_on_c, 7, 62, 0
10, 7680, Note_on_c, 7, 61, 89
10, 7800, Note_on_c, 7, 61, 0
10, 7800, Note_on_c, 7, 59, 89
10, 7920, Note_on_c, 7, 59, 0
10, 7920, Note_on_c, 7, 64, 89
10, 8040, Note_on_c, 7, 64, 0
10, 8040, Note_on_c, 7, 52, 89
10, 8160, Note_on_c, 7, 52, 0
10, 8160, Note_on_c, 7, 57, 89
10, 8520, Note_on_c, 7, 57, 0
10, 8520, Note_on_c, 7, 56, 89
10, 8580, Note_on_c, 7, 56, 0
10, 8580, Note_on_c, 7, 54, 89
10, 8640, Note_on_c, 7, 54, 0
10, 8640, Note_on_c, 7, 56, 89
10, 8880, Note_on_c, 7, 56, 0
10, 8880, Note_on_c, 7, 57, 89
10, 9120, Note_on_c, 7, 57, 0
10, 9240, Note_on_c, 7, 52, 89
10, 9360, Note_on_c, 7, 52, 0
10, 9360, Note_on_c, 7, 57, 89
10, 9600, Note_on_c, 7, 57, 0
10, 9600, Note_on_c, 7, 59, 89
10, 9840, Note_on_c, 7, 59, 0
10, 9840, Note_on_c, 7, 61, 89
10, 10200, Note_on_c, 7, 61, 0
10, 10200, Note_on_c, 7, 59, 89
10, 10260, Note_on_c, 7, 59, 0
10, 10260, Note_on_c, 7, 57, 89
10, 10320, Note_on_c, 7, 57, 0
10, 10320, Note_on_c, 7, 64, 89
10, 10920, Note_on_c, 7, 64, 0
10, 10920, Note_on_c, 7, 61, 89
10, 11040, Note_on_c, 7, 61, 0
10, 11040, Note_on_c, 7, 57, 89
10, 11280, Note_on_c, 7, 57, 0
10, 12000, Note_on_c, 7, 62, 108
10, 12480, Note_on_c, 7, 62, 0
10, 12480, Note_on_c, 7, 57, 89
10, 12840, Note_on_c, 7, 57, 0
10, 12840, Note_on_c, 7, 55, 89
10, 12960, Note_on_c, 7, 55, 0
10, 12960, Note_on_c, 7, 54, 89
10, 13080, Note_on_c, 7, 54, 0
10, 13080, Note_on_c, 7, 50, 89
10, 13200, Note_on_c, 7, 50, 0
10, 13200, Note_on_c, 7, 57, 89
10, 13800, Note_on_c, 7, 57, 0
10, 13800, Note_on_c, 7, 55, 89
10, 13920, Note_on_c, 7, 55, 0
10, 13920, Note_on_c, 7, 54, 89
10, 14040, Note_on_c, 7, 54, 0
10, 14040, Note_on_c, 7, 52, 89
10, 14160, Note_on_c, 7, 52, 0
10, 14160, Note_on_c, 7, 50, 89
10, 14400, Note_on_c, 7, 50, 0
10, 15000, Note_on_c, 7, 59, 89
10, 15120, Note_on_c, 7, 59, 0
10, 15120, Note_on_c, 7, 52, 89
10, 15360, Note_on_c, 7, 52, 0
10, 15360, Note_on_c, 7, 57, 89
10, 15480, Note_on_c, 7, 57, 0
10, 15480, Note_on_c, 7, 59, 89
10, 15600, Note_on_c, 7, 59, 0
10, 15600, Note_on_c, 7, 61, 89
10, 15840, Note_on_c, 7, 61, 0
10, 15840, Note_on_c, 7, 59, 89
10, 15960, Note_on_c, 7, 59, 0
10, 15960, Note_on_c, 7, 57, 89
10, 16080, Note_on_c, 7, 57, 0
10, 16080, Note_on_c, 7, 64, 89
10, 16560, Note_on_c, 7, 64, 0
10, 16560, Note_on_c, 7, 57, 89
10, 16740, Note_on_c, 7, 57, 0
10, 16800, Note_on_c, 7, 57, 108
10, 17280, Note_on_c, 7, 57, 0
10, 17280, Note_on_c, 7, 50, 89
10, 17520, Note_on_c, 7, 50, 0
10, 17760, Note_on_c, 7, 54, 89
10, 18000, Note_on_c, 7, 54, 0
10, 18000, Note_on_c, 7, 59, 89
10, 18120, Note_on_c, 7, 59, 0
10, 18120, Note_on_c, 7, 57, 89
10, 18240, Note_on_c, 7, 57, 0
10, 18240, Note_on_c, 7, 59, 89
10, 18480, Note_on_c, 7, 59, 0
10, 18480, Note_on_c, 7, 52, 89
10, 18660, Note_on_c, 7, 52, 0
10, 18720, Note_on_c, 7, 57, 108
10, 19200, Note_on_c, 7, 57, 0
10, 19200, Note_on_c, 7, 50, 89
10, 19440, Note_on_c, 7, 50, 0
10, 19680, Note_on_c, 7, 54, 108
10, 20160, Note_on_c, 7, 54, 0
10, 20160, Note_on_c, 7, 47, 89
10, 20400, Note_on_c, 7, 47, 0
10, 20640, Note_on_c, 7, 52, 89
10, 20760, Note_on_c, 7, 52, 0
10, 20760, Note_on_c, 7, 54, 89
10, 20880, Note_on_c, 7, 54, 0
10, 20880, Note_on_c, 7, 55, 89
10, 21000, Note_on_c, 7, 55, 0
10, 21000, Note_on_c, 7, 57, 89
10, 21120, Note_on_c, 7, 57, 0
10, 21120, Note_on_c, 7, 59, 89
10, 21360, Note_on_c, 7, 59, 0
10, 21360, Note_on_c, 7, 57, 89
10, 21600, Note_on_c, 7, 57, 0
10, 22560, Note_on_c, 7, 59, 108
10, 23040, Note_on_c, 7, 59, 0
10, 23040, Note_on_c, 7, 57, 89
10, 23160, Note_on_c, 7, 57, 0
10, 23160, Note_on_c, 7, 56, 89
10, 23280, Note_on_c, 7, 56, 0
10, 23280, Note_on_c, 7, 64, 89
10, 23520, Note_on_c, 7, 64, 0
10, 23520, Note_on_c, 7, 57, 89
10, 23640, Note_on_c, 7, 57, 0
10, 23640, Note_on_c, 7, 59, 89
10, 23760, Note_on_c, 7, 59, 0
10, 23760, Note_on_c, 7, 61, 89
10, 23880, Note_on_c, 7, 61, 0
10, 23880, Note_on_c, 7, 62, 89
10, 24000, Note_on_c, 7, 62, 0
10, 24000, Note_on_c, 7, 64, 89
10, 24240, Note_on_c, 7, 64, 0
10, 24240, Note_on_c, 7, 57, 89
10, 24480, Note_on_c, 7, 57, 0
10, 24720, Note_on_c, 7, 66, 108
10, 24960, Note_on_c, 7, 66, 0
10, 24960, Note_on_c, 7, 54, 89
10, 25320, Note_on_c, 7, 54, 0
10, 25320, Note_on_c, 7, 61, 89
10, 25440, Note_on_c, 7, 61, 0
10, 25440, Note_on_c, 7, 62, 89
10, 25920, Note_on_c, 7, 62, 0
10, 25920, Note_on_c, 7, 61, 89
10, 26250, Note_on_c, 7, 61, 0
10, 26280, Note_on_c, 7, 54, 89
10, 26400, Note_on_c, 7, 54, 0
10, 26400, Note_on_c, 7, 59, 89
10, 26880, Note_on_c, 7, 59, 0
10, 26880, Note_on_c, 7, 57, 89
10, 26940, Note_on_c, 7, 57, 0
10, 26940, Note_on_c, 7, 59, 89
10, 27000, Note_on_c, 7, 59, 0
10, 27000, Note_on_c, 7, 61, 89
10, 27120, Note_on_c, 7, 61, 0
10, 27120, Note_on_c, 7, 54, 89
10, 27360, Note_on_c, 7, 54, 0
10, 27360, Note_on_c, 7, 59, 89
10, 27600, Note_on_c, 7, 59, 0
10, 27600, Note_on_c, 7, 52, 89
10, 28080, Note_on_c, 7, 52, 0
10, 28200, Note_on_c, 7, 53, 89
10, 28320, Note_on_c, 7, 53, 0
10, 28320, Note_on_c, 7, 54, 89
10, 28440, Note_on_c, 7, 54, 0
10, 28440, Note_on_c, 7, 56, 89
10, 28560, Note_on_c, 7, 56, 0
10, 28560, Note_on_c, 7, 57, 89
10, 28680, Note_on_c, 7, 57, 0
10, 28680, Note_on_c, 7, 59, 89
10, 28800, Note_on_c, 7, 59, 0
10, 28800, Note_on_c, 7, 61, 89
10, 29280, Note_on_c, 7, 61, 0
10, 29280, Note_on_c, 7, 49, 89
10, 29520, Note_on_c, 7, 49, 0
10, 29520, Note_on_c, 7, 54, 89
10, 30000, Note_on_c, 7, 54, 0
10, 31440, Note_on_c, 7, 57, 108
10, 33360, Note_on_c, 7, 57, 0
10, 33360, Note_on_c, 7, 54, 108
10, 34320, Note_on_c, 7, 54, 0
10, 34320, Note_on_c, 7, 55, 108
10, 35280, Note_on_c, 7, 55, 0
10, 35280, Note_on_c, 7, 54, 108
10, 36240, Note_on_c, 7, 54, 0
10, 36240, Note_on_c, 7, 52, 108
10, 37200, Note_on_c, 7, 52, 0
10, 37200, Note_on_c, 7, 57, 108
10, 38160, Note_on_c, 7, 57, 0
10, 38160, Note_on_c, 7, 59, 108
10, 39210, Note_on_c, 7, 59, 0
10, 39240, Note_on_c, 7, 52, 89
10, 39360, Note_on_c, 7, 52, 0
10, 39360, Note_on_c, 7, 57, 89
10, 39840, Note_on_c, 7, 57, 0
10, 39840, Note_on_c, 7, 55, 89
10, 40200, Note_on_c, 7, 55, 0
10, 40200, Note_on_c, 7, 49, 89
10, 40320, Note_on_c, 7, 49, 0
10, 40320, Note_on_c, 7, 54, 89
10, 40800, Note_on_c, 7, 54, 0
10, 40800, Note_on_c, 7, 52, 89
10, 41070, Note_on_c, 7, 52, 0
10, 41160, Note_on_c, 7, 45, 89
10, 41280, Note_on_c, 7, 45, 0
10, 41280, Note_on_c, 7, 50, 89
10, 41760, Note_on_c, 7, 50, 0
10, 41760, Note_on_c, 7, 49, 89
10, 42000, Note_on_c, 7, 49, 0
10, 42000, Note_on_c, 7, 50, 89
10, 42480, Note_on_c, 7, 50, 0
10, 42480, Note_on_c, 7, 45, 89
10, 43440, Note_on_c, 7, 45, 0
10, 44400, End_track
11, 0, Start_track
11, 0, MIDI_port, 0
11, 0, Title_t, "Continuo"
11, 0, Program_c, 8, 19
11, 360, Note_on_c, 8, 57, 64
11, 431, Note_on_c, 8, 57, 0
11, 480, Note_on_c, 8, 56, 64
11, 551, Note_on_c, 8, 56, 0
11, 600, Note_on_c, 8, 54, 64
11, 671, Note_on_c, 8, 54, 0
11, 720, Note_on_c, 8, 52, 64
11, 791, Note_on_c, 8, 52, 0
11, 840, Note_on_c, 8, 50, 64
11, 911, Note_on_c, 8, 50, 0
11, 960, Note_on_c, 8, 49, 64
11, 1031, Note_on_c, 8, 49, 0
11, 1080, Note_on_c, 8, 47, 64
11, 1151, Note_on_c, 8, 47, 0
11, 1200, Note_on_c, 8, 45, 64
11, 1271, Note_on_c, 8, 45, 0
11, 1320, Note_on_c, 8, 47, 64
11, 1391, Note_on_c, 8, 47, 0
11, 1440, Note_on_c, 8, 45, 64
11, 1511, Note_on_c, 8, 45, 0
11, 1560, Note_on_c, 8, 43, 64
11, 1631, Note_on_c, 8, 43, 0
11, 1680, Note_on_c, 8, 42, 64
11, 1751, Note_on_c, 8, 42, 0
11, 1800, Note_on_c, 8, 40, 64
11, 1871, Note_on_c, 8, 40, 0
11, 1920, Note_on_c, 8, 42, 64
11, 1991, Note_on_c, 8, 42, 0
11, 2040, Note_on_c, 8, 44, 64
11, 2111, Note_on_c, 8, 44, 0
11, 2160, Note_on_c, 8, 45, 64
11, 2231, Note_on_c, 8, 45, 0
11, 2280, Note_on_c, 8, 47, 64
11, 2351, Note_on_c, 8, 47, 0
11, 2400, Note_on_c, 8, 49, 64
11, 2471, Note_on_c, 8, 49, 0
11, 2520, Note_on_c, 8, 50, 64
11, 2591, Note_on_c, 8, 50, 0
11, 2640, Note_on_c, 8, 52, 64
11, 2711, Note_on_c, 8, 52, 0
11, 2760, Note_on_c, 8, 54, 64
11, 2831, Note_on_c, 8, 54, 0
11, 2880, Note_on_c, 8, 52, 64
11, 2951, Note_on_c, 8, 52, 0
11, 3000, Note_on_c, 8, 50, 64
11, 3071, Note_on_c, 8, 50, 0
11, 3120, Note_on_c, 8, 49, 64
11, 3191, Note_on_c, 8, 49, 0
11, 3240, Note_on_c, 8, 45, 64
11, 3311, Note_on_c, 8, 45, 0
11, 3360, Note_on_c, 8, 47, 64
11, 3431, Note_on_c, 8, 47, 0
11, 3480, Note_on_c, 8, 49, 64
11, 3551, Note_on_c, 8, 49, 0
11, 3600, Note_on_c, 8, 50, 64
11, 3671, Note_on_c, 8, 50, 0
11, 3720, Note_on_c, 8, 49, 64
11, 3791, Note_on_c, 8, 49, 0
11, 3840, Note_on_c, 8, 50, 64
11, 3911, Note_on_c, 8, 50, 0
11, 3960, Note_on_c, 8, 52, 64
11, 4031, Note_on_c, 8, 52, 0
11, 4080, Note_on_c, 8, 54, 64
11, 4151, Note_on_c, 8, 54, 0
11, 4200, Note_on_c, 8, 52, 64
11, 4271, Note_on_c, 8, 52, 0
11, 4320, Note_on_c, 8, 50, 64
11, 4391, Note_on_c, 8, 50, 0
11, 4440, Note_on_c, 8, 49, 64
11, 4511, Note_on_c, 8, 49, 0
11, 4560, Note_on_c, 8, 47, 64
11, 4631, Note_on_c, 8, 47, 0
11, 4680, Note_on_c, 8, 45, 64
11, 4751, Note_on_c, 8, 45, 0
11, 4800, Note_on_c, 8, 47, 64
11, 4871, Note_on_c, 8, 47, 0
11, 4920, Note_on_c, 8, 49, 64
11, 4991, Note_on_c, 8, 49, 0
11, 5040, Note_on_c, 8, 50, 64
11, 5111, Note_on_c, 8, 50, 0
11, 5160, Note_on_c, 8, 52, 64
11, 5231, Note_on_c, 8, 52, 0
11, 5280, Note_on_c, 8, 54, 64
11, 5351, Note_on_c, 8, 54, 0
11, 5400, Note_on_c, 8, 55, 64
11, 5471, Note_on_c, 8, 55, 0
11, 5520, Note_on_c, 8, 57, 64
11, 5591, Note_on_c, 8, 57, 0
11, 5640, Note_on_c, 8, 55, 64
11, 5711, Note_on_c, 8, 55, 0
11, 5760, Note_on_c, 8, 54, 64
11, 5831, Note_on_c, 8, 54, 0
11, 5880, Note_on_c, 8, 52, 64
11, 5951, Note_on_c, 8, 52, 0
11, 6000, Note_on_c, 8, 50, 64
11, 6071, Note_on_c, 8, 50, 0
11, 6120, Note_on_c, 8, 52, 64
11, 6191, Note_on_c, 8, 52, 0
11, 6240, Note_on_c, 8, 50, 64
11, 6311, Note_on_c, 8, 50, 0
11, 6360, Note_on_c, 8, 49, 64
11, 6431, Note_on_c, 8, 49, 0
11, 6480, Note_on_c, 8, 47, 64
11, 6551, Note_on_c, 8, 47, 0
11, 6600, Note_on_c, 8, 45, 64
11, 6671, Note_on_c, 8, 45, 0
11, 6720, Note_on_c, 8, 47, 64
11, 6791, Note_on_c, 8, 47, 0
11, 6840, Note_on_c, 8, 49, 64
11, 6911, Note_on_c, 8, 49, 0
11, 6960, Note_on_c, 8, 50, 64
11, 7031, Note_on_c, 8, 50, 0
11, 7080, Note_on_c, 8, 52, 64
11, 7151, Note_on_c, 8, 52, 0
11, 7200, Note_on_c, 8, 54, 64
11, 7271, Note_on_c, 8, 54, 0
11, 7320, Note_on_c, 8, 55, 64
11, 7391, Note_on_c, 8, 55, 0
11, 7440, Note_on_c, 8, 57, 64
11, 7511, Note_on_c, 8, 57, 0
11, 7560, Note_on_c, 8, 59, 64
11, 7631, Note_on_c, 8, 59, 0
11, 7680, Note_on_c, 8, 61, 64
11, 7751, Note_on_c, 8, 61, 0
11, 7800, Note_on_c, 8, 62, 64
11, 7871, Note_on_c, 8, 62, 0
11, 7920, Note_on_c, 8, 61, 64
11, 7991, Note_on_c, 8, 61, 0
11, 8040, Note_on_c, 8, 57, 64
11, 8111, Note_on_c, 8, 57, 0
11, 8160, Note_on_c, 8, 56, 64
11, 8231, Note_on_c, 8, 56, 0
11, 8280, Note_on_c, 8, 54, 64
11, 8351, Note_on_c, 8, 54, 0
11, 8400, Note_on_c, 8, 52, 64
11, 8471, Note_on_c, 8, 52, 0
11, 8520, Note_on_c, 8, 50, 64
11, 8591, Note_on_c, 8, 50, 0
11, 8640, Note_on_c, 8, 49, 64
11, 8711, Note_on_c, 8, 49, 0
11, 8760, Note_on_c, 8, 47, 64
11, 8831, Note_on_c, 8, 47, 0
11, 8880, Note_on_c, 8, 45, 64
11, 8951, Note_on_c, 8, 45, 0
11, 9000, Note_on_c, 8, 47, 64
11, 9071, Note_on_c, 8, 47, 0
11, 9120, Note_on_c, 8, 45, 64
11, 9191, Note_on_c, 8, 45, 0
11, 9240, Note_on_c, 8, 44, 64
11, 9311, Note_on_c, 8, 44, 0
11, 9360, Note_on_c, 8, 42, 64
11, 9431, Note_on_c, 8, 42, 0
11, 9480, Note_on_c, 8, 40, 64
11, 9551, Note_on_c, 8, 40, 0
11, 9600, Note_on_c, 8, 42, 64
11, 9671, Note_on_c, 8, 42, 0
11, 9720, Note_on_c, 8, 44, 64
11, 9791, Note_on_c, 8, 44, 0
11, 9840, Note_on_c, 8, 45, 64
11, 9911, Note_on_c, 8, 45, 0
11, 9960, Note_on_c, 8, 47, 64
11, 10031, Note_on_c, 8, 47, 0
11, 10080, Note_on_c, 8, 49, 64
11, 10151, Note_on_c, 8, 49, 0
11, 10200, Note_on_c, 8, 50, 64
11, 10271, Note_on_c, 8, 50, 0
11, 10320, Note_on_c, 8, 52, 64
11, 10391, Note_on_c, 8, 52, 0
11, 10440, Note_on_c, 8, 54, 64
11, 10511, Note_on_c, 8, 54, 0
11, 10560, Note_on_c, 8, 52, 64
11, 10631, Note_on_c, 8, 52, 0
11, 10680, Note_on_c, 8, 50, 64
11, 10751, Note_on_c, 8, 50, 0
11, 10800, Note_on_c, 8, 49, 64
11, 10871, Note_on_c, 8, 49, 0
11, 10920, Note_on_c, 8, 45, 64
11, 10991, Note_on_c, 8, 45, 0
11, 11040, Note_on_c, 8, 47, 64
11, 11111, Note_on_c, 8, 47, 0
11, 11160, Note_on_c, 8, 49, 64
11, 11231, Note_on_c, 8, 49, 0
11, 11280, Note_on_c, 8, 50, 64
11, 11351, Note_on_c, 8, 50, 0
11, 11400, Note_on_c, 8, 49, 64
11, 11471, Note_on_c, 8, 49, 0
11, 11520, Note_on_c, 8, 50, 64
11, 11591, Note_on_c, 8, 50, 0
11, 11640, Note_on_c, 8, 52, 64
11, 11711, Note_on_c, 8, 52, 0
11, 11760, Note_on_c, 8, 54, 64
11, 11831, Note_on_c, 8, 54, 0
11, 11880, Note_on_c, 8, 52, 64
11, 11951, Note_on_c, 8, 52, 0
11, 12000, Note_on_c, 8, 50, 64
11, 12071, Note_on_c, 8, 50, 0
11, 12120, Note_on_c, 8, 49, 64
11, 12191, Note_on_c, 8, 49, 0
11, 12240, Note_on_c, 8, 47, 64
11, 12311, Note_on_c, 8, 47, 0
11, 12360, Note_on_c, 8, 45, 64
11, 12431, Note_on_c, 8, 45, 0
11, 12480, Note_on_c, 8, 47, 64
11, 12551, Note_on_c, 8, 47, 0
11, 12600, Note_on_c, 8, 49, 64
11, 12671, Note_on_c, 8, 49, 0
11, 12720, Note_on_c, 8, 50, 64
11, 12791, Note_on_c, 8, 50, 0
11, 12840, Note_on_c, 8, 52, 64
11, 12911, Note_on_c, 8, 52, 0
11, 12960, Note_on_c, 8, 54, 64
11, 13031, Note_on_c, 8, 54, 0
11, 13080, Note_on_c, 8, 55, 64
11, 13151, Note_on_c, 8, 55, 0
11, 13200, Note_on_c, 8, 57, 64
11, 13271, Note_on_c, 8, 57, 0
11, 13320, Note_on_c, 8, 55, 64
11, 13391, Note_on_c, 8, 55, 0
11, 13440, Note_on_c, 8, 54, 64
11, 13511, Note_on_c, 8, 54, 0
11, 13560, Note_on_c, 8, 52, 64
11, 13631, Note_on_c, 8, 52, 0
11, 13680, Note_on_c, 8, 50, 64
11, 13751, Note_on_c, 8, 50, 0
11, 13800, Note_on_c, 8, 52, 64
11, 13871, Note_on_c, 8, 52, 0
11, 13920, Note_on_c, 8, 50, 64
11, 13991, Note_on_c, 8, 50, 0
11, 14040, Note_on_c, 8, 49, 64
11, 14111, Note_on_c, 8, 49, 0
11, 14160, Note_on_c, 8, 47, 64
11, 14231, Note_on_c, 8, 47, 0
11, 14280, Note_on_c, 8, 45, 64
11, 14351, Note_on_c, 8, 45, 0
11, 14400, Note_on_c, 8, 47, 64
11, 14471, Note_on_c, 8, 47, 0
11, 14520, Note_on_c, 8, 49, 64
11, 14591, Note_on_c, 8, 49, 0
11, 14640, Note_on_c, 8, 50, 64
11, 14711, Note_on_c, 8, 50, 0
11, 14760, Note_on_c, 8, 52, 64
11, 14831, Note_on_c, 8, 52, 0
11, 14880, Note_on_c, 8, 54, 64
11, 14951, Note_on_c, 8, 54, 0
11, 15000, Note_on_c, 8, 56, 64
11, 15071, Note_on_c, 8, 56, 0
11, 15120, Note_on_c, 8, 57, 64
11, 15191, Note_on_c, 8, 57, 0
11, 15240, Note_on_c, 8, 59, 64
11, 15311, Note_on_c, 8, 59, 0
11, 15360, Note_on_c, 8, 61, 64
11, 15431, Note_on_c, 8, 61, 0
11, 15480, Note_on_c, 8, 62, 64
11, 15551, Note_on_c, 8, 62, 0
11, 15600, Note_on_c, 8, 61, 64
11, 15671, Note_on_c, 8, 61, 0
11, 15720, Note_on_c, 8, 57, 64
11, 15791, Note_on_c, 8, 57, 0
11, 15840, Note_on_c, 8, 56, 64
11, 15911, Note_on_c, 8, 56, 0
11, 15960, Note_on_c, 8, 54, 64
11, 16031, Note_on_c, 8, 54, 0
11, 16080, Note_on_c, 8, 52, 64
11, 16151, Note_on_c, 8, 52, 0
11, 16200, Note_on_c, 8, 50, 64
11, 16271, Note_on_c, 8, 50, 0
11, 16320, Note_on_c, 8, 49, 64
11, 16391, Note_on_c, 8, 49, 0
11, 16440, Note_on_c, 8, 47, 64
11, 16511, Note_on_c, 8, 47, 0
11, 16560, Note_on_c, 8, 45, 64
11, 16631, Note_on_c, 8, 45, 0
11, 16680, Note_on_c, 8, 47, 64
11, 16751, Note_on_c, 8, 47, 0
11, 16800, Note_on_c, 8, 45, 64
11, 16871, Note_on_c, 8, 45, 0
11, 16920, Note_on_c, 8, 43, 64
11, 16991, Note_on_c, 8, 43, 0
11, 17040, Note_on_c, 8, 42, 64
11, 17111, Note_on_c, 8, 42, 0
11, 17160, Note_on_c, 8, 40, 64
11, 17231, Note_on_c, 8, 40, 0
11, 17280, Note_on_c, 8, 38, 64
11, 17351, Note_on_c, 8, 38, 0
11, 17400, Note_on_c, 8, 40, 64
11, 17471, Note_on_c, 8, 40, 0
11, 17520, Note_on_c, 8, 42, 64
11, 17591, Note_on_c, 8, 42, 0
11, 17640, Note_on_c, 8, 43, 64
11, 17711, Note_on_c, 8, 43, 0
11, 17760, Note_on_c, 8, 45, 64
11, 17831, Note_on_c, 8, 45, 0
11, 17880, Note_on_c, 8, 42, 64
11, 17951, Note_on_c, 8, 42, 0
11, 18000, Note_on_c, 8, 43, 64
11, 18071, Note_on_c, 8, 43, 0
11, 18120, Note_on_c, 8, 54, 64
11, 18191, Note_on_c, 8, 54, 0
11, 18240, Note_on_c, 8, 52, 64
11, 18311, Note_on_c, 8, 52, 0
11, 18360, Note_on_c, 8, 50, 64
11, 18431, Note_on_c, 8, 50, 0
11, 18480, Note_on_c, 8, 49, 64
11, 18551, Note_on_c, 8, 49, 0
11, 18600, Note_on_c, 8, 45, 64
11, 18671, Note_on_c, 8, 45, 0
11, 18720, Note_on_c, 8, 47, 64
11, 18791, Note_on_c, 8, 47, 0
11, 18840, Note_on_c, 8, 49, 64
11, 18911, Note_on_c, 8, 49, 0
11, 18960, Note_on_c, 8, 50, 64
11, 19031, Note_on_c, 8, 50, 0
11, 19080, Note_on_c, 8, 52, 64
11, 19151, Note_on_c, 8, 52, 0
11, 19200, Note_on_c, 8, 54, 64
11, 19271, Note_on_c, 8, 54, 0
11, 19320, Note_on_c, 8, 55, 64
11, 19391, Note_on_c, 8, 55, 0
11, 19440, Note_on_c, 8, 57, 64
11, 19511, Note_on_c, 8, 57, 0
11, 19560, Note_on_c, 8, 55, 64
11, 19631, Note_on_c, 8, 55, 0
11, 19680, Note_on_c, 8, 54, 64
11, 19751, Note_on_c, 8, 54, 0
11, 19800, Note_on_c, 8, 52, 64
11, 19871, Note_on_c, 8, 52, 0
11, 19920, Note_on_c, 8, 51, 64
11, 19991, Note_on_c, 8, 51, 0
11, 20040, Note_on_c, 8, 47, 64
11, 20111, Note_on_c, 8, 47, 0
11, 20160, Note_on_c, 8, 49, 64
11, 20231, Note_on_c, 8, 49, 0
11, 20280, Note_on_c, 8, 51, 64
11, 20351, Note_on_c, 8, 51, 0
11, 20400, Note_on_c, 8, 52, 64
11, 20471, Note_on_c, 8, 52, 0
11, 20520, Note_on_c, 8, 54, 64
11, 20591, Note_on_c, 8, 54, 0
11, 20640, Note_on_c, 8, 55, 64
11, 20711, Note_on_c, 8, 55, 0
11, 20760, Note_on_c, 8, 54, 64
11, 20831, Note_on_c, 8, 54, 0
11, 20880, Note_on_c, 8, 52, 64
11, 20951, Note_on_c, 8, 52, 0
11, 21000, Note_on_c, 8, 50, 64
11, 21071, Note_on_c, 8, 50, 0
11, 21120, Note_on_c, 8, 48, 64
11, 21191, Note_on_c, 8, 48, 0
11, 21240, Note_on_c, 8, 47, 64
11, 21311, Note_on_c, 8, 47, 0
11, 21360, Note_on_c, 8, 48, 64
11, 21431, Note_on_c, 8, 48, 0
11, 21480, Note_on_c, 8, 45, 64
11, 21551, Note_on_c, 8, 45, 0
11, 21600, Note_on_c, 8, 50, 64
11, 21671, Note_on_c, 8, 50, 0
11, 21720, Note_on_c, 8, 48, 64
11, 21791, Note_on_c, 8, 48, 0
11, 21840, Note_on_c, 8, 47, 64
11, 21911, Note_on_c, 8, 47, 0
11, 21960, Note_on_c, 8, 43, 64
11, 22031, Note_on_c, 8, 43, 0
11, 22080, Note_on_c, 8, 48, 64
11, 22151, Note_on_c, 8, 48, 0
11, 22200, Note_on_c, 8, 47, 64
11, 22271, Note_on_c, 8, 47, 0
11, 22320, Note_on_c, 8, 45, 64
11, 22391, Note_on_c, 8, 45, 0
11, 22440, Note_on_c, 8, 42, 64
11, 22511, Note_on_c, 8, 42, 0
11, 22560, Note_on_c, 8, 47, 64
11, 22631, Note_on_c, 8, 47, 0
11, 22680, Note_on_c, 8, 45, 64
11, 22751, Note_on_c, 8, 45, 0
11, 22800, Note_on_c, 8, 44, 64
11, 22871, Note_on_c, 8, 44, 0
11, 22920, Note_on_c, 8, 40, 64
11, 22991, Note_on_c, 8, 40, 0
11, 23040, Note_on_c, 8, 42, 64
11, 23111, Note_on_c, 8, 42, 0
11, 23160, Note_on_c, 8, 44, 64
11, 23231, Note_on_c, 8, 44, 0
11, 23280, Note_on_c, 8, 45, 64
11, 23351, Note_on_c, 8, 45, 0
11, 23400, Note_on_c, 8, 47, 64
11, 23471, Note_on_c, 8, 47, 0
11, 23520, Note_on_c, 8, 49, 64
11, 23591, Note_on_c, 8, 49, 0
11, 23640, Note_on_c, 8, 47, 64
11, 23711, Note_on_c, 8, 47, 0
11, 23760, Note_on_c, 8, 45, 64
11, 23831, Note_on_c, 8, 45, 0
11, 23880, Note_on_c, 8, 43, 64
11, 23951, Note_on_c, 8, 43, 0
11, 24000, Note_on_c, 8, 42, 64
11, 24071, Note_on_c, 8, 42, 0
11, 24120, Note_on_c, 8, 40, 64
11, 24191, Note_on_c, 8, 40, 0
11, 24240, Note_on_c, 8, 38, 64
11, 24311, Note_on_c, 8, 38, 0
11, 24360, Note_on_c, 8, 50, 64
11, 24431, Note_on_c, 8, 50, 0
11, 24480, Note_on_c, 8, 49, 64
11, 24551, Note_on_c, 8, 49, 0
11, 24600, Note_on_c, 8, 47, 64
11, 24671, Note_on_c, 8, 47, 0
11, 24720, Note_on_c, 8, 46, 64
11, 24791, Note_on_c, 8, 46, 0
11, 24840, Note_on_c, 8, 42, 64
11, 24911, Note_on_c, 8, 42, 0
11, 24960, Note_on_c, 8, 44, 64
11, 25031, Note_on_c, 8, 44, 0
11, 25080, Note_on_c, 8, 46, 64
11, 25151, Note_on_c, 8, 46, 0
11, 25200, Note_on_c, 8, 47, 64
11, 25271, Note_on_c, 8, 47, 0
11, 25320, Note_on_c, 8, 49, 64
11, 25391, Note_on_c, 8, 49, 0
11, 25440, Note_on_c, 8, 47, 64
11, 25511, Note_on_c, 8, 47, 0
11, 25560, Note_on_c, 8, 45, 64
11, 25631, Note_on_c, 8, 45, 0
11, 25680, Note_on_c, 8, 44, 64
11, 25751, Note_on_c, 8, 44, 0
11, 25800, Note_on_c, 8, 40, 64
11, 25871, Note_on_c, 8, 40, 0
11, 25920, Note_on_c, 8, 45, 64
11, 25991, Note_on_c, 8, 45, 0
11, 26040, Note_on_c, 8, 43, 64
11, 26111, Note_on_c, 8, 43, 0
11, 26160, Note_on_c, 8, 42, 64
11, 26231, Note_on_c, 8, 42, 0
11, 26280, Note_on_c, 8, 38, 64
11, 26351, Note_on_c, 8, 38, 0
11, 26400, Note_on_c, 8, 43, 64
11, 26471, Note_on_c, 8, 43, 0
11, 26520, Note_on_c, 8, 42, 64
11, 26591, Note_on_c, 8, 42, 0
11, 26640, Note_on_c, 8, 40, 64
11, 26711, Note_on_c, 8, 40, 0
11, 26760, Note_on_c, 8, 37, 64
11, 26831, Note_on_c, 8, 37, 0
11, 26880, Note_on_c, 8, 42, 64
11, 26951, Note_on_c, 8, 42, 0
11, 27000, Note_on_c, 8, 40, 64
11, 27071, Note_on_c, 8, 40, 0
11, 27120, Note_on_c, 8, 39, 64
11, 27191, Note_on_c, 8, 39, 0
11, 27240, Note_on_c, 8, 47, 64
11, 27311, Note_on_c, 8, 47, 0
11, 27360, Note_on_c, 8, 49, 64
11, 27431, Note_on_c, 8, 49, 0
11, 27480, Note_on_c, 8, 51, 64
11, 27551, Note_on_c, 8, 51, 0
11, 27600, Note_on_c, 8, 52, 64
11, 27671, Note_on_c, 8, 52, 0
11, 27720, Note_on_c, 8, 54, 64
11, 27791, Note_on_c, 8, 54, 0
11, 27840, Note_on_c, 8, 56, 64
11, 27911, Note_on_c, 8, 56, 0
11, 27960, Note_on_c, 8, 54, 64
11, 28031, Note_on_c, 8, 54, 0
11, 28080, Note_on_c, 8, 53, 64
11, 28151, Note_on_c, 8, 53, 0
11, 28200, Note_on_c, 8, 49, 64
11, 28271, Note_on_c, 8, 49, 0
11, 28320, Note_on_c, 8, 51, 64
11, 28391, Note_on_c, 8, 51, 0
11, 28440, Note_on_c, 8, 53, 64
11, 28511, Note_on_c, 8, 53, 0
11, 28560, Note_on_c, 8, 54, 64
11, 28631, Note_on_c, 8, 54, 0
11, 28680, Note_on_c, 8, 56, 64
11, 28751, Note_on_c, 8, 56, 0
11, 28800, Note_on_c, 8, 57, 64
11, 28871, Note_on_c, 8, 57, 0
11, 28920, Note_on_c, 8, 59, 64
11, 28991, Note_on_c, 8, 59, 0
11, 29040, Note_on_c, 8, 61, 64
11, 29111, Note_on_c, 8, 61, 0
11, 29160, Note_on_c, 8, 49, 64
11, 29231, Note_on_c, 8, 49, 0
11, 29280, Note_on_c, 8, 51, 64
11, 29351, Note_on_c, 8, 51, 0
11, 29400, Note_on_c, 8, 53, 64
11, 29471, Note_on_c, 8, 53, 0
11, 29520, Note_on_c, 8, 54, 64
11, 29591, Note_on_c, 8, 54, 0
11, 29640, Note_on_c, 8, 56, 64
11, 29711, Note_on_c, 8, 56, 0
11, 29760, Note_on_c, 8, 54, 64
11, 29831, Note_on_c, 8, 54, 0
11, 29880, Note_on_c, 8, 52, 64
11, 29951, Note_on_c, 8, 52, 0
11, 30000, Note_on_c, 8, 51, 64
11, 30071, Note_on_c, 8, 51, 0
11, 30120, Note_on_c, 8, 47, 64
11, 30191, Note_on_c, 8, 47, 0
11, 30240, Note_on_c, 8, 52, 64
11, 30311, Note_on_c, 8, 52, 0
11, 30360, Note_on_c, 8, 50, 64
11, 30431, Note_on_c, 8, 50, 0
11, 30480, Note_on_c, 8, 49, 64
11, 30551, Note_on_c, 8, 49, 0
11, 30600, Note_on_c, 8, 45, 64
11, 30671, Note_on_c, 8, 45, 0
11, 30720, Note_on_c, 8, 50, 64
11, 30791, Note_on_c, 8, 50, 0
11, 30840, Note_on_c, 8, 49, 64
11, 30911, Note_on_c, 8, 49, 0
11, 30960, Note_on_c, 8, 47, 64
11, 31031, Note_on_c, 8, 47, 0
11, 31080, Note_on_c, 8, 44, 64
11, 31151, Note_on_c, 8, 44, 0
11, 31200, Note_on_c, 8, 49, 64
11, 31271, Note_on_c, 8, 49, 0
11, 31320, Note_on_c, 8, 47, 64
11, 31391, Note_on_c, 8, 47, 0
11, 31440, Note_on_c, 8, 45, 64
11, 31511, Note_on_c, 8, 45, 0
11, 31560, Note_on_c, 8, 47, 64
11, 31631, Note_on_c, 8, 47, 0
11, 31680, Note_on_c, 8, 45, 64
11, 31751, Note_on_c, 8, 45, 0
11, 31800, Note_on_c, 8, 43, 64
11, 31871, Note_on_c, 8, 43, 0
11, 31920, Note_on_c, 8, 42, 64
11, 31991, Note_on_c, 8, 42, 0
11, 32040, Note_on_c, 8, 54, 64
11, 32111, Note_on_c, 8, 54, 0
11, 32160, Note_on_c, 8, 52, 64
11, 32231, Note_on_c, 8, 52, 0
11, 32280, Note_on_c, 8, 50, 64
11, 32351, Note_on_c, 8, 50, 0
11, 32400, Note_on_c, 8, 49, 64
11, 32471, Note_on_c, 8, 49, 0
11, 32520, Note_on_c, 8, 45, 64
11, 32591, Note_on_c, 8, 45, 0
11, 32640, Note_on_c, 8, 49, 64
11, 32711, Note_on_c, 8, 49, 0
11, 32760, Note_on_c, 8, 52, 64
11, 32831, Note_on_c, 8, 52, 0
11, 32880, Note_on_c, 8, 57, 64
11, 32951, Note_on_c, 8, 57, 0
11, 33000, Note_on_c, 8, 55, 64
11, 33071, Note_on_c, 8, 55, 0
11, 33120, Note_on_c, 8, 54, 64
11, 33191, Note_on_c, 8, 54, 0
11, 33240, Note_on_c, 8, 52, 64
11, 33311, Note_on_c, 8, 52, 0
11, 33360, Note_on_c, 8, 50, 64
11, 33431, Note_on_c, 8, 50, 0
11, 33480, Note_on_c, 8, 49, 64
11, 33551, Note_on_c, 8, 49, 0
11, 33600, Note_on_c, 8, 50, 64
11, 33671, Note_on_c, 8, 50, 0
11, 33720, Note_on_c, 8, 52, 64
11, 33791, Note_on_c, 8, 52, 0
11, 33840, Note_on_c, 8, 54, 64
11, 33911, Note_on_c, 8, 54, 0
11, 33960, Note_on_c, 8, 55, 64
11, 34031, Note_on_c, 8, 55, 0
11, 34080, Note_on_c, 8, 57, 64
11, 34151, Note_on_c, 8, 57, 0
11, 34200, Note_on_c, 8, 54, 64
11, 34271, Note_on_c, 8, 54, 0
11, 34320, Note_on_c, 8, 59, 64
11, 34391, Note_on_c, 8, 59, 0
11, 34440, Note_on_c, 8, 47, 64
11, 34511, Note_on_c, 8, 47, 0
11, 34560, Note_on_c, 8, 59, 64
11, 34631, Note_on_c, 8, 59, 0
11, 34680, Note_on_c, 8, 57, 64
11, 34751, Note_on_c, 8, 57, 0
11, 34800, Note_on_c, 8, 55, 64
11, 34871, Note_on_c, 8, 55, 0
11, 34920, Note_on_c, 8, 43, 64
11, 34991, Note_on_c, 8, 43, 0
11, 35040, Note_on_c, 8, 42, 64
11, 35111, Note_on_c, 8, 42, 0
11, 35160, Note_on_c, 8, 40, 64
11, 35231, Note_on_c, 8, 40, 0
11, 35280, Note_on_c, 8, 45, 64
11, 35351, Note_on_c, 8, 45, 0
11, 35400, Note_on_c, 8, 43, 64
11, 35471, Note_on_c, 8, 43, 0
11, 35520, Note_on_c, 8, 42, 64
11, 35591, Note_on_c, 8, 42, 0
11, 35640, Note_on_c, 8, 45, 64
11, 35711, Note_on_c, 8, 45, 0
11, 35760, Note_on_c, 8, 50, 64
11, 35831, Note_on_c, 8, 50, 0
11, 35880, Note_on_c, 8, 48, 64
11, 35951, Note_on_c, 8, 48, 0
11, 36000, Note_on_c, 8, 47, 64
11, 36071, Note_on_c, 8, 47, 0
11, 36120, Note_on_c, 8, 50, 64
11, 36191, Note_on_c, 8, 50, 0
11, 36240, Note_on_c, 8, 43, 64
11, 36311, Note_on_c, 8, 43, 0
11, 36360, Note_on_c, 8, 55, 64
11, 36431, Note_on_c, 8, 55, 0
11, 36480, Note_on_c, 8, 57, 64
11, 36551, Note_on_c, 8, 57, 0
11, 36600, Note_on_c, 8, 59, 64
11, 36671, Note_on_c, 8, 59, 0
11, 36720, Note_on_c, 8, 60, 64
11, 36791, Note_on_c, 8, 60, 0
11, 36840, Note_on_c, 8, 62, 64
11, 36911, Note_on_c, 8, 62, 0
11, 36960, Note_on_c, 8, 60, 64
11, 37031, Note_on_c, 8, 60, 0
11, 37080, Note_on_c, 8, 59, 64
11, 37151, Note_on_c, 8, 59, 0
11, 37200, Note_on_c, 8, 57, 64
11, 37271, Note_on_c, 8, 57, 0
11, 37320, Note_on_c, 8, 56, 64
11, 37391, Note_on_c, 8, 56, 0
11, 37440, Note_on_c, 8, 57, 64
11, 37511, Note_on_c, 8, 57, 0
11, 37560, Note_on_c, 8, 59, 64
11, 37631, Note_on_c, 8, 59, 0
11, 37680, Note_on_c, 8, 61, 64
11, 37751, Note_on_c, 8, 61, 0
11, 37800, Note_on_c, 8, 57, 64
11, 37871, Note_on_c, 8, 57, 0
11, 37920, Note_on_c, 8, 59, 64
11, 37991, Note_on_c, 8, 59, 0
11, 38040, Note_on_c, 8, 61, 64
11, 38111, Note_on_c, 8, 61, 0
11, 38160, Note_on_c, 8, 62, 64
11, 38231, Note_on_c, 8, 62, 0
11, 38280, Note_on_c, 8, 60, 64
11, 38351, Note_on_c, 8, 60, 0
11, 38400, Note_on_c, 8, 59, 64
11, 38471, Note_on_c, 8, 59, 0
11, 38520, Note_on_c, 8, 57, 64
11, 38591, Note_on_c, 8, 57, 0
11, 38640, Note_on_c, 8, 55, 64
11, 38711, Note_on_c, 8, 55, 0
11, 38760, Note_on_c, 8, 54, 64
11, 38831, Note_on_c, 8, 54, 0
11, 38880, Note_on_c, 8, 52, 64
11, 38951, Note_on_c, 8, 52, 0
11, 39000, Note_on_c, 8, 51, 64
11, 39071, Note_on_c, 8, 51, 0
11, 39120, Note_on_c, 8, 52, 64
11, 39191, Note_on_c, 8, 52, 0
11, 39240, Note_on_c, 8, 55, 64
11, 39311, Note_on_c, 8, 55, 0
11, 39360, Note_on_c, 8, 54, 64
11, 39431, Note_on_c, 8, 54, 0
11, 39480, Note_on_c, 8, 52, 64
11, 39551, Note_on_c, 8, 52, 0
11, 39600, Note_on_c, 8, 51, 64
11, 39671, Note_on_c, 8, 51, 0
11, 39720, Note_on_c, 8, 47, 64
11, 39791, Note_on_c, 8, 47, 0
11, 39840, Note_on_c, 8, 52, 64
11, 39911, Note_on_c, 8, 52, 0
11, 39960, Note_on_c, 8, 50, 64
11, 40031, Note_on_c, 8, 50, 0
11, 40080, Note_on_c, 8, 49, 64
11, 40151, Note_on_c, 8, 49, 0
11, 40200, Note_on_c, 8, 45, 64
11, 40271, Note_on_c, 8, 45, 0
11, 40320, Note_on_c, 8, 50, 64
11, 40391, Note_on_c, 8, 50, 0
11, 40440, Note_on_c, 8, 49, 64
11, 40511, Note_on_c, 8, 49, 0
11, 40560, Note_on_c, 8, 47, 64
11, 40631, Note_on_c, 8, 47, 0
11, 40680, Note_on_c, 8, 45, 64
11, 40751, Note_on_c, 8, 45, 0
11, 40800, Note_on_c, 8, 47, 64
11, 40871, Note_on_c, 8, 47, 0
11, 40920, Note_on_c, 8, 49, 64
11, 40991, Note_on_c, 8, 49, 0
11, 41040, Note_on_c, 8, 50, 64
11, 41111, Note_on_c, 8, 50, 0
11, 41160, Note_on_c, 8, 49, 64
11, 41231, Note_on_c, 8, 49, 0
11, 41280, Note_on_c, 8, 50, 64
11, 41351, Note_on_c, 8, 50, 0
11, 41400, Note_on_c, 8, 52, 64
11, 41471, Note_on_c, 8, 52, 0
11, 41520, Note_on_c, 8, 54, 64
11, 41591, Note_on_c, 8, 54, 0
11, 41640, Note_on_c, 8, 55, 64
11, 41711, Note_on_c, 8, 55, 0
11, 41760, Note_on_c, 8, 57, 64
11, 41831, Note_on_c, 8, 57, 0
11, 41880, Note_on_c, 8, 55, 64
11, 41951, Note_on_c, 8, 55, 0
11, 42000, Note_on_c, 8, 54, 64
11, 42071, Note_on_c, 8, 54, 0
11, 42120, Note_on_c, 8, 52, 64
11, 42191, Note_on_c, 8, 52, 0
11, 42240, Note_on_c, 8, 54, 64
11, 42311, Note_on_c, 8, 54, 0
11, 42360, Note_on_c, 8, 50, 64
11, 42431, Note_on_c, 8, 50, 0
11, 42480, Note_on_c, 8, 57, 64
11, 42960, Note_on_c, 8, 57, 0
11, 42960, Note_on_c, 8, 45, 64
11, 43440, Note_on_c, 8, 45, 0
11, 44400, End_track
0, 0, End_of_file
