0, 0, Header, 1, 5, 480
1, 0, Start_track
1, 0, Title_t, "untitled"
1, 0, Text_t, "Canon a 2 Per motum contrarium\012"
1, 0, Text_t, "Voce 1  \012"
1, 0, Text_t, "Voce 2  \012"
1, 0, Text_t, "Voce 3  \012"
1, 0, Time_signature, 4, 2, 24, 8
1, 0, Key_signature, 0, "major"
1, 0, Tempo, 625000
1, 0, End_track
2, 0, Start_track
2, 0, Program_c, 0, 0
2, 0, Note_on_c, 0, 72, 64
2, 480, Note_on_c, 0, 72, 0
2, 480, Note_on_c, 0, 75, 64
2, 960, Note_on_c, 0, 75, 0
2, 960, Note_on_c, 0, 79, 64
2, 1440, Note_on_c, 0, 79, 0
2, 1440, Note_on_c, 0, 80, 64
2, 1920, Note_on_c, 0, 80, 0
2, 1920, Note_on_c, 0, 71, 64
2, 2400, Note_on_c, 0, 71, 0
2, 2640, Note_on_c, 0, 79, 64
2, 2880, Note_on_c, 0, 79, 0
2, 2880, Note_on_c, 0, 78, 64
2, 3360, Note_on_c, 0, 78, 0
2, 3360, Note_on_c, 0, 77, 64
2, 3840, Note_on_c, 0, 77, 0
2, 3840, Note_on_c, 0, 76, 64
2, 4320, Note_on_c, 0, 76, 0
2, 4320, Note_on_c, 0, 75, 64
2, 5040, Note_on_c, 0, 75, 0
2, 5040, Note_on_c, 0, 74, 64
2, 5280, Note_on_c, 0, 74, 0
2, 5280, Note_on_c, 0, 73, 64
2, 5520, Note_on_c, 0, 73, 0
2, 5520, Note_on_c, 0, 72, 64
2, 5760, Note_on_c, 0, 72, 0
2, 5760, Note_on_c, 0, 71, 64
2, 6000, Note_on_c, 0, 71, 0
2, 6000, Note_on_c, 0, 69, 64
2, 6120, Note_on_c, 0, 69, 0
2, 6120, Note_on_c, 0, 67, 64
2, 6240, Note_on_c, 0, 67, 0
2, 6240, Note_on_c, 0, 72, 64
2, 6480, Note_on_c, 0, 72, 0
2, 6480, Note_on_c, 0, 77, 64
2, 6720, Note_on_c, 0, 77, 0
2, 6720, Note_on_c, 0, 76, 64
2, 6960, Note_on_c, 0, 76, 0
2, 6960, Note_on_c, 0, 75, 64
2, 7200, Note_on_c, 0, 75, 0
2, 7200, Note_on_c, 0, 74, 64
2, 7680, Note_on_c, 0, 74, 0
2, 7680, Note_on_c, 0, 72, 64
2, 8160, Note_on_c, 0, 72, 0
2, 8160, Note_on_c, 0, 75, 64
2, 8640, Note_on_c, 0, 75, 0
2, 8640, Note_on_c, 0, 79, 64
2, 9120, Note_on_c, 0, 79, 0
2, 9120, Note_on_c, 0, 80, 64
2, 9600, Note_on_c, 0, 80, 0
2, 9600, Note_on_c, 0, 71, 64
2, 10080, Note_on_c, 0, 71, 0
2, 10320, Note_on_c, 0, 79, 64
2, 10560, Note_on_c, 0, 79, 0
2, 10560, Note_on_c, 0, 78, 64
2, 11040, Note_on_c, 0, 78, 0
2, 11040, Note_on_c, 0, 77, 64
2, 11520, Note_on_c, 0, 77, 0
2, 11520, Note_on_c, 0, 76, 64
2, 12000, Note_on_c, 0, 76, 0
2, 12000, Note_on_c, 0, 75, 64
2, 12720, Note_on_c, 0, 75, 0
2, 12720, Note_on_c, 0, 74, 64
2, 12960, Note_on_c, 0, 74, 0
2, 12960, Note_on_c, 0, 73, 64
2, 13200, Note_on_c, 0, 73, 0
2, 13200, Note_on_c, 0, 72, 64
2, 13440, Note_on_c, 0, 72, 0
2, 13440, Note_on_c, 0, 71, 64
2, 13680, Note_on_c, 0, 71, 0
2, 13680, Note_on_c, 0, 69, 64
2, 13800, Note_on_c, 0, 69, 0
2, 13800, Note_on_c, 0, 67, 64
2, 13920, Note_on_c, 0, 67, 0
2, 13920, Note_on_c, 0, 72, 64
2, 14160, Note_on_c, 0, 72, 0
2, 14160, Note_on_c, 0, 77, 64
2, 14400, Note_on_c, 0, 77, 0
2, 14400, Note_on_c, 0, 76, 64
2, 14640, Note_on_c, 0, 76, 0
2, 14640, Note_on_c, 0, 75, 64
2, 14880, Note_on_c, 0, 75, 0
2, 14880, Note_on_c, 0, 74, 64
2, 15360, Note_on_c, 0, 74, 0
2, 15360, Note_on_c, 0, 72, 64
2, 15840, Note_on_c, 0, 72, 0
2, 15840, Note_on_c, 0, 75, 64
2, 16320, Note_on_c, 0, 75, 0
2, 16320, Note_on_c, 0, 79, 64
2, 16800, Note_on_c, 0, 79, 0
2, 16800, Note_on_c, 0, 80, 64
2, 17280, Note_on_c, 0, 80, 0
2, 17280, Note_on_c, 0, 71, 64
2, 17760, Note_on_c, 0, 71, 0
2, 18000, Note_on_c, 0, 79, 64
2, 18240, Note_on_c, 0, 79, 0
2, 18240, Note_on_c, 0, 78, 64
2, 18720, Note_on_c, 0, 78, 0
2, 18720, Note_on_c, 0, 77, 64
2, 19200, Note_on_c, 0, 77, 0
2, 19200, Note_on_c, 0, 76, 64
2, 19680, Note_on_c, 0, 76, 0
2, 19680, Note_on_c, 0, 75, 64
2, 20400, Note_on_c, 0, 75, 0
2, 20400, Note_on_c, 0, 74, 64
2, 20640, Note_on_c, 0, 74, 0
2, 20640, Note_on_c, 0, 73, 64
2, 20880, Note_on_c, 0, 73, 0
2, 20880, Note_on_c, 0, 72, 64
2, 21120, Note_on_c, 0, 72, 0
2, 21120, Note_on_c, 0, 71, 64
2, 21360, Note_on_c, 0, 71, 0
2, 21360, Note_on_c, 0, 69, 64
2, 21480, Note_on_c, 0, 69, 0
2, 21480, Note_on_c, 0, 67, 64
2, 21600, Note_on_c, 0, 67, 0
2, 21600, Note_on_c, 0, 72, 64
2, 21840, Note_on_c, 0, 72, 0
2, 21840, Note_on_c, 0, 77, 64
2, 22080, Note_on_c, 0, 77, 0
2, 22080, Note_on_c, 0, 76, 64
2, 22320, Note_on_c, 0, 76, 0
2, 22320, Note_on_c, 0, 75, 64
2, 22560, Note_on_c, 0, 75, 0
2, 22560, Note_on_c, 0, 74, 64
2, 23040, Note_on_c, 0, 74, 0
2, 23040, Note_on_c, 0, 72, 64
2, 23520, Note_on_c, 0, 72, 0
2, 23520, Note_on_c, 0, 75, 64
2, 24000, Note_on_c, 0, 75, 0
2, 24000, Note_on_c, 0, 79, 64
2, 24480, Note_on_c, 0, 79, 0
2, 24480, Note_on_c, 0, 80, 64
2, 24960, Note_on_c, 0, 80, 0
2, 24960, Note_on_c, 0, 71, 64
2, 25440, Note_on_c, 0, 71, 0
2, 25680, Note_on_c, 0, 79, 64
2, 25920, Note_on_c, 0, 79, 0
2, 25920, Note_on_c, 0, 78, 64
2, 26400, Note_on_c, 0, 78, 0
2, 26400, Note_on_c, 0, 77, 64
2, 26880, Note_on_c, 0, 77, 0
2, 26880, Note_on_c, 0, 76, 64
2, 27360, Note_on_c, 0, 76, 0
2, 27360, Note_on_c, 0, 75, 64
2, 28080, Note_on_c, 0, 75, 0
2, 28080, Note_on_c, 0, 74, 64
2, 28320, Note_on_c, 0, 74, 0
2, 28320, Note_on_c, 0, 73, 64
2, 28560, Note_on_c, 0, 73, 0
2, 28560, Note_on_c, 0, 72, 64
2, 28800, Note_on_c, 0, 72, 0
2, 28800, Note_on_c, 0, 71, 64
2, 29040, Note_on_c, 0, 71, 0
2, 29040, Note_on_c, 0, 69, 64
2, 29160, Note_on_c, 0, 69, 0
2, 29160, Note_on_c, 0, 67, 64
2, 29280, Note_on_c, 0, 67, 0
2, 29280, Note_on_c, 0, 72, 64
2, 29520, Note_on_c, 0, 72, 0
2, 29520, Note_on_c, 0, 77, 64
2, 29760, Note_on_c, 0, 77, 0
2, 29760, Note_on_c, 0, 76, 64
2, 30240, Note_on_c, 0, 76, 0
2, 30240, End_track
3, 0, Start_track
3, 120, Note_on_c, 0, 72, 64
3, 240, Note_on_c, 0, 72, 0
3, 240, Note_on_c, 0, 70, 64
3, 360, Note_on_c, 0, 70, 0
3, 360, Note_on_c, 0, 68, 64
3, 480, Note_on_c, 0, 68, 0
3, 480, Note_on_c, 0, 67, 64
3, 600, Note_on_c, 0, 67, 0
3, 600, Note_on_c, 0, 65, 64
3, 720, Note_on_c, 0, 65, 0
3, 720, Note_on_c, 0, 63, 64
3, 840, Note_on_c, 0, 63, 0
3, 840, Note_on_c, 0, 62, 64
3, 960, Note_on_c, 0, 62, 0
3, 960, Note_on_c, 0, 60, 64
3, 1080, Note_on_c, 0, 60, 0
3, 1080, Note_on_c, 0, 59, 64
3, 1200, Note_on_c, 0, 59, 0
3, 1200, Note_on_c, 0, 60, 64
3, 1320, Note_on_c, 0, 60, 0
3, 1320, Note_on_c, 0, 62, 64
3, 1440, Note_on_c, 0, 62, 0
3, 1440, Note_on_c, 0, 63, 64
3, 1680, Note_on_c, 0, 63, 0
3, 1680, Note_on_c, 0, 60, 64
3, 1920, Note_on_c, 0, 60, 0
3, 2160, Note_on_c, 0, 67, 64
3, 2400, Note_on_c, 0, 67, 0
3, 2400, Note_on_c, 0, 72, 64
3, 2520, Note_on_c, 0, 72, 0
3, 2520, Note_on_c, 0, 74, 64
3, 2640, Note_on_c, 0, 74, 0
3, 2640, Note_on_c, 0, 72, 64
3, 2760, Note_on_c, 0, 72, 0
3, 2760, Note_on_c, 0, 70, 64
3, 2880, Note_on_c, 0, 70, 0
3, 2880, Note_on_c, 0, 69, 64
3, 3000, Note_on_c, 0, 69, 0
3, 3000, Note_on_c, 0, 57, 64
3, 3120, Note_on_c, 0, 57, 0
3, 3120, Note_on_c, 0, 55, 64
3, 3240, Note_on_c, 0, 55, 0
3, 3240, Note_on_c, 0, 57, 64
3, 3360, Note_on_c, 0, 57, 0
3, 3360, Note_on_c, 0, 59, 64
3, 3600, Note_on_c, 0, 59, 0
3, 3600, Note_on_c, 0, 67, 64
3, 3960, Note_on_c, 0, 67, 0
3, 3960, Note_on_c, 0, 55, 64
3, 4080, Note_on_c, 0, 55, 0
3, 4080, Note_on_c, 0, 57, 64
3, 4200, Note_on_c, 0, 57, 0
3, 4200, Note_on_c, 0, 59, 64
3, 4320, Note_on_c, 0, 59, 0
3, 4320, Note_on_c, 0, 60, 64
3, 4440, Note_on_c, 0, 60, 0
3, 4440, Note_on_c, 0, 62, 64
3, 4560, Note_on_c, 0, 62, 0
3, 4560, Note_on_c, 0, 63, 64
3, 4680, Note_on_c, 0, 63, 0
3, 4680, Note_on_c, 0, 62, 64
3, 4800, Note_on_c, 0, 62, 0
3, 4800, Note_on_c, 0, 60, 64
3, 5040, Note_on_c, 0, 60, 0
3, 5040, Note_on_c, 0, 62, 64
3, 5280, Note_on_c, 0, 62, 0
3, 5280, Note_on_c, 0, 63, 64
3, 5520, Note_on_c, 0, 63, 0
3, 5520, Note_on_c, 0, 56, 64
3, 5760, Note_on_c, 0, 56, 0
3, 5760, Note_on_c, 0, 55, 64
3, 5880, Note_on_c, 0, 55, 0
3, 5880, Note_on_c, 0, 62, 64
3, 6000, Note_on_c, 0, 62, 0
3, 6000, Note_on_c, 0, 60, 64
3, 6120, Note_on_c, 0, 60, 0
3, 6120, Note_on_c, 0, 59, 64
3, 6240, Note_on_c, 0, 59, 0
3, 6360, Note_on_c, 0, 65, 64
3, 6480, Note_on_c, 0, 65, 0
3, 6480, Note_on_c, 0, 64, 64
3, 6600, Note_on_c, 0, 64, 0
3, 6600, Note_on_c, 0, 62, 64
3, 6720, Note_on_c, 0, 62, 0
3, 6720, Note_on_c, 0, 60, 64
3, 7440, Note_on_c, 0, 60, 0
3, 7440, Note_on_c, 0, 59, 64
3, 7680, Note_on_c, 0, 59, 0
3, 7680, Note_on_c, 0, 63, 64
3, 7800, Note_on_c, 0, 63, 0
3, 7800, Note_on_c, 0, 72, 64
3, 7920, Note_on_c, 0, 72, 0
3, 7920, Note_on_c, 0, 70, 64
3, 8040, Note_on_c, 0, 70, 0
3, 8040, Note_on_c, 0, 68, 64
3, 8160, Note_on_c, 0, 68, 0
3, 8160, Note_on_c, 0, 67, 64
3, 8280, Note_on_c, 0, 67, 0
3, 8280, Note_on_c, 0, 65, 64
3, 8400, Note_on_c, 0, 65, 0
3, 8400, Note_on_c, 0, 63, 64
3, 8520, Note_on_c, 0, 63, 0
3, 8520, Note_on_c, 0, 62, 64
3, 8640, Note_on_c, 0, 62, 0
3, 8640, Note_on_c, 0, 60, 64
3, 8760, Note_on_c, 0, 60, 0
3, 8760, Note_on_c, 0, 59, 64
3, 8880, Note_on_c, 0, 59, 0
3, 8880, Note_on_c, 0, 60, 64
3, 9000, Note_on_c, 0, 60, 0
3, 9000, Note_on_c, 0, 62, 64
3, 9120, Note_on_c, 0, 62, 0
3, 9120, Note_on_c, 0, 63, 64
3, 9360, Note_on_c, 0, 63, 0
3, 9360, Note_on_c, 0, 60, 64
3, 9600, Note_on_c, 0, 60, 0
3, 9840, Note_on_c, 0, 67, 64
3, 10080, Note_on_c, 0, 67, 0
3, 10080, Note_on_c, 0, 72, 64
3, 10200, Note_on_c, 0, 72, 0
3, 10200, Note_on_c, 0, 74, 64
3, 10320, Note_on_c, 0, 74, 0
3, 10320, Note_on_c, 0, 72, 64
3, 10440, Note_on_c, 0, 72, 0
3, 10440, Note_on_c, 0, 70, 64
3, 10560, Note_on_c, 0, 70, 0
3, 10560, Note_on_c, 0, 69, 64
3, 10680, Note_on_c, 0, 69, 0
3, 10680, Note_on_c, 0, 57, 64
3, 10800, Note_on_c, 0, 57, 0
3, 10800, Note_on_c, 0, 55, 64
3, 10920, Note_on_c, 0, 55, 0
3, 10920, Note_on_c, 0, 57, 64
3, 11040, Note_on_c, 0, 57, 0
3, 11040, Note_on_c, 0, 59, 64
3, 11280, Note_on_c, 0, 59, 0
3, 11280, Note_on_c, 0, 67, 64
3, 11640, Note_on_c, 0, 67, 0
3, 11640, Note_on_c, 0, 55, 64
3, 11760, Note_on_c, 0, 55, 0
3, 11760, Note_on_c, 0, 57, 64
3, 11880, Note_on_c, 0, 57, 0
3, 11880, Note_on_c, 0, 59, 64
3, 12000, Note_on_c, 0, 59, 0
3, 12000, Note_on_c, 0, 60, 64
3, 12120, Note_on_c, 0, 60, 0
3, 12120, Note_on_c, 0, 62, 64
3, 12240, Note_on_c, 0, 62, 0
3, 12240, Note_on_c, 0, 63, 64
3, 12360, Note_on_c, 0, 63, 0
3, 12360, Note_on_c, 0, 62, 64
3, 12480, Note_on_c, 0, 62, 0
3, 12480, Note_on_c, 0, 60, 64
3, 12720, Note_on_c, 0, 60, 0
3, 12720, Note_on_c, 0, 62, 64
3, 12960, Note_on_c, 0, 62, 0
3, 12960, Note_on_c, 0, 63, 64
3, 13200, Note_on_c, 0, 63, 0
3, 13200, Note_on_c, 0, 56, 64
3, 13440, Note_on_c, 0, 56, 0
3, 13440, Note_on_c, 0, 55, 64
3, 13560, Note_on_c, 0, 55, 0
3, 13560, Note_on_c, 0, 62, 64
3, 13680, Note_on_c, 0, 62, 0
3, 13680, Note_on_c, 0, 60, 64
3, 13800, Note_on_c, 0, 60, 0
3, 13800, Note_on_c, 0, 59, 64
3, 13920, Note_on_c, 0, 59, 0
3, 14040, Note_on_c, 0, 65, 64
3, 14160, Note_on_c, 0, 65, 0
3, 14160, Note_on_c, 0, 64, 64
3, 14280, Note_on_c, 0, 64, 0
3, 14280, Note_on_c, 0, 62, 64
3, 14400, Note_on_c, 0, 62, 0
3, 14400, Note_on_c, 0, 60, 64
3, 15120, Note_on_c, 0, 60, 0
3, 15120, Note_on_c, 0, 59, 64
3, 15360, Note_on_c, 0, 59, 0
3, 15360, Note_on_c, 0, 63, 64
3, 15480, Note_on_c, 0, 63, 0
3, 15480, Note_on_c, 0, 72, 64
3, 15600, Note_on_c, 0, 72, 0
3, 15600, Note_on_c, 0, 70, 64
3, 15720, Note_on_c, 0, 70, 0
3, 15720, Note_on_c, 0, 68, 64
3, 15840, Note_on_c, 0, 68, 0
3, 15840, Note_on_c, 0, 67, 64
3, 15960, Note_on_c, 0, 67, 0
3, 15960, Note_on_c, 0, 65, 64
3, 16080, Note_on_c, 0, 65, 0
3, 16080, Note_on_c, 0, 63, 64
3, 16200, Note_on_c, 0, 63, 0
3, 16200, Note_on_c, 0, 62, 64
3, 16320, Note_on_c, 0, 62, 0
3, 16320, Note_on_c, 0, 60, 64
3, 16440, Note_on_c, 0, 60, 0
3, 16440, Note_on_c, 0, 59, 64
3, 16560, Note_on_c, 0, 59, 0
3, 16560, Note_on_c, 0, 60, 64
3, 16680, Note_on_c, 0, 60, 0
3, 16680, Note_on_c, 0, 62, 64
3, 16800, Note_on_c, 0, 62, 0
3, 16800, Note_on_c, 0, 63, 64
3, 17040, Note_on_c, 0, 63, 0
3, 17040, Note_on_c, 0, 60, 64
3, 17280, Note_on_c, 0, 60, 0
3, 17520, Note_on_c, 0, 67, 64
3, 17760, Note_on_c, 0, 67, 0
3, 17760, Note_on_c, 0, 72, 64
3, 17880, Note_on_c, 0, 72, 0
3, 17880, Note_on_c, 0, 74, 64
3, 18000, Note_on_c, 0, 74, 0
3, 18000, Note_on_c, 0, 72, 64
3, 18120, Note_on_c, 0, 72, 0
3, 18120, Note_on_c, 0, 70, 64
3, 18240, Note_on_c, 0, 70, 0
3, 18240, Note_on_c, 0, 69, 64
3, 18360, Note_on_c, 0, 69, 0
3, 18360, Note_on_c, 0, 57, 64
3, 18480, Note_on_c, 0, 57, 0
3, 18480, Note_on_c, 0, 55, 64
3, 18600, Note_on_c, 0, 55, 0
3, 18600, Note_on_c, 0, 57, 64
3, 18720, Note_on_c, 0, 57, 0
3, 18720, Note_on_c, 0, 59, 64
3, 18960, Note_on_c, 0, 59, 0
3, 18960, Note_on_c, 0, 67, 64
3, 19320, Note_on_c, 0, 67, 0
3, 19320, Note_on_c, 0, 55, 64
3, 19440, Note_on_c, 0, 55, 0
3, 19440, Note_on_c, 0, 57, 64
3, 19560, Note_on_c, 0, 57, 0
3, 19560, Note_on_c, 0, 59, 64
3, 19680, Note_on_c, 0, 59, 0
3, 19680, Note_on_c, 0, 60, 64
3, 19800, Note_on_c, 0, 60, 0
3, 19800, Note_on_c, 0, 62, 64
3, 19920, Note_on_c, 0, 62, 0
3, 19920, Note_on_c, 0, 63, 64
3, 20040, Note_on_c, 0, 63, 0
3, 20040, Note_on_c, 0, 62, 64
3, 20160, Note_on_c, 0, 62, 0
3, 20160, Note_on_c, 0, 60, 64
3, 20400, Note_on_c, 0, 60, 0
3, 20400, Note_on_c, 0, 62, 64
3, 20640, Note_on_c, 0, 62, 0
3, 20640, Note_on_c, 0, 63, 64
3, 20880, Note_on_c, 0, 63, 0
3, 20880, Note_on_c, 0, 56, 64
3, 21120, Note_on_c, 0, 56, 0
3, 21120, Note_on_c, 0, 55, 64
3, 21240, Note_on_c, 0, 55, 0
3, 21240, Note_on_c, 0, 62, 64
3, 21360, Note_on_c, 0, 62, 0
3, 21360, Note_on_c, 0, 60, 64
3, 21480, Note_on_c, 0, 60, 0
3, 21480, Note_on_c, 0, 59, 64
3, 21600, Note_on_c, 0, 59, 0
3, 21720, Note_on_c, 0, 65, 64
3, 21840, Note_on_c, 0, 65, 0
3, 21840, Note_on_c, 0, 64, 64
3, 21960, Note_on_c, 0, 64, 0
3, 21960, Note_on_c, 0, 62, 64
3, 22080, Note_on_c, 0, 62, 0
3, 22080, Note_on_c, 0, 60, 64
3, 22800, Note_on_c, 0, 60, 0
3, 22800, Note_on_c, 0, 59, 64
3, 23040, Note_on_c, 0, 59, 0
3, 23040, Note_on_c, 0, 63, 64
3, 23160, Note_on_c, 0, 63, 0
3, 23160, Note_on_c, 0, 72, 64
3, 23280, Note_on_c, 0, 72, 0
3, 23280, Note_on_c, 0, 70, 64
3, 23400, Note_on_c, 0, 70, 0
3, 23400, Note_on_c, 0, 68, 64
3, 23520, Note_on_c, 0, 68, 0
3, 23520, Note_on_c, 0, 67, 64
3, 23640, Note_on_c, 0, 67, 0
3, 23640, Note_on_c, 0, 65, 64
3, 23760, Note_on_c, 0, 65, 0
3, 23760, Note_on_c, 0, 63, 64
3, 23880, Note_on_c, 0, 63, 0
3, 23880, Note_on_c, 0, 62, 64
3, 24000, Note_on_c, 0, 62, 0
3, 24000, Note_on_c, 0, 60, 64
3, 24120, Note_on_c, 0, 60, 0
3, 24120, Note_on_c, 0, 59, 64
3, 24240, Note_on_c, 0, 59, 0
3, 24240, Note_on_c, 0, 60, 64
3, 24360, Note_on_c, 0, 60, 0
3, 24360, Note_on_c, 0, 62, 64
3, 24480, Note_on_c, 0, 62, 0
3, 24480, Note_on_c, 0, 63, 64
3, 24720, Note_on_c, 0, 63, 0
3, 24720, Note_on_c, 0, 60, 64
3, 24960, Note_on_c, 0, 60, 0
3, 25200, Note_on_c, 0, 67, 64
3, 25440, Note_on_c, 0, 67, 0
3, 25440, Note_on_c, 0, 72, 64
3, 25560, Note_on_c, 0, 72, 0
3, 25560, Note_on_c, 0, 74, 64
3, 25680, Note_on_c, 0, 74, 0
3, 25680, Note_on_c, 0, 72, 64
3, 25800, Note_on_c, 0, 72, 0
3, 25800, Note_on_c, 0, 70, 64
3, 25920, Note_on_c, 0, 70, 0
3, 25920, Note_on_c, 0, 69, 64
3, 26040, Note_on_c, 0, 69, 0
3, 26040, Note_on_c, 0, 57, 64
3, 26160, Note_on_c, 0, 57, 0
3, 26160, Note_on_c, 0, 55, 64
3, 26280, Note_on_c, 0, 55, 0
3, 26280, Note_on_c, 0, 57, 64
3, 26400, Note_on_c, 0, 57, 0
3, 26400, Note_on_c, 0, 59, 64
3, 26640, Note_on_c, 0, 59, 0
3, 26640, Note_on_c, 0, 67, 64
3, 27000, Note_on_c, 0, 67, 0
3, 27000, Note_on_c, 0, 55, 64
3, 27120, Note_on_c, 0, 55, 0
3, 27120, Note_on_c, 0, 57, 64
3, 27240, Note_on_c, 0, 57, 0
3, 27240, Note_on_c, 0, 59, 64
3, 27360, Note_on_c, 0, 59, 0
3, 27360, Note_on_c, 0, 60, 64
3, 27480, Note_on_c, 0, 60, 0
3, 27480, Note_on_c, 0, 62, 64
3, 27600, Note_on_c, 0, 62, 0
3, 27600, Note_on_c, 0, 63, 64
3, 27720, Note_on_c, 0, 63, 0
3, 27720, Note_on_c, 0, 62, 64
3, 27840, Note_on_c, 0, 62, 0
3, 27840, Note_on_c, 0, 60, 64
3, 28080, Note_on_c, 0, 60, 0
3, 28080, Note_on_c, 0, 62, 64
3, 28320, Note_on_c, 0, 62, 0
3, 28320, Note_on_c, 0, 63, 64
3, 28560, Note_on_c, 0, 63, 0
3, 28560, Note_on_c, 0, 56, 64
3, 28800, Note_on_c, 0, 56, 0
3, 28800, Note_on_c, 0, 55, 64
3, 28920, Note_on_c, 0, 55, 0
3, 28920, Note_on_c, 0, 62, 64
3, 29040, Note_on_c, 0, 62, 0
3, 29040, Note_on_c, 0, 60, 64
3, 29160, Note_on_c, 0, 60, 0
3, 29160, Note_on_c, 0, 59, 64
3, 29280, Note_on_c, 0, 59, 0
3, 29400, Note_on_c, 0, 65, 64
3, 29520, Note_on_c, 0, 65, 0
3, 29520, Note_on_c, 0, 64, 64
3, 29640, Note_on_c, 0, 64, 0
3, 29640, Note_on_c, 0, 62, 64
3, 29760, Note_on_c, 0, 62, 0
3, 29760, Note_on_c, 0, 60, 64
3, 30240, Note_on_c, 0, 60, 0
3, 30240, End_track
4, 0, Start_track
4, 1095, Note_on_c, 0, 55, 64
4, 1215, Note_on_c, 0, 55, 0
4, 1215, Note_on_c, 0, 57, 64
4, 1335, Note_on_c, 0, 57, 0
4, 1335, Note_on_c, 0, 59, 64
4, 1455, Note_on_c, 0, 59, 0
4, 1455, Note_on_c, 0, 60, 64
4, 1575, Note_on_c, 0, 60, 0
4, 1575, Note_on_c, 0, 62, 64
4, 1695, Note_on_c, 0, 62, 0
4, 1695, Note_on_c, 0, 63, 64
4, 1815, Note_on_c, 0, 63, 0
4, 1815, Note_on_c, 0, 65, 64
4, 1935, Note_on_c, 0, 65, 0
4, 1935, Note_on_c, 0, 67, 64
4, 2055, Note_on_c, 0, 67, 0
4, 2055, Note_on_c, 0, 68, 64
4, 2175, Note_on_c, 0, 68, 0
4, 2175, Note_on_c, 0, 67, 64
4, 2295, Note_on_c, 0, 67, 0
4, 2295, Note_on_c, 0, 65, 64
4, 2415, Note_on_c, 0, 65, 0
4, 2415, Note_on_c, 0, 63, 64
4, 2655, Note_on_c, 0, 63, 0
4, 2655, Note_on_c, 0, 67, 64
4, 2895, Note_on_c, 0, 67, 0
4, 3135, Note_on_c, 0, 60, 64
4, 3375, Note_on_c, 0, 60, 0
4, 3375, Note_on_c, 0, 55, 64
4, 3495, Note_on_c, 0, 55, 0
4, 3495, Note_on_c, 0, 53, 64
4, 3615, Note_on_c, 0, 53, 0
4, 3615, Note_on_c, 0, 55, 64
4, 3735, Note_on_c, 0, 55, 0
4, 3735, Note_on_c, 0, 56, 64
4, 3855, Note_on_c, 0, 56, 0
4, 3855, Note_on_c, 0, 58, 64
4, 3975, Note_on_c, 0, 58, 0
4, 3975, Note_on_c, 0, 70, 64
4, 4095, Note_on_c, 0, 70, 0
4, 4095, Note_on_c, 0, 72, 64
4, 4215, Note_on_c, 0, 72, 0
4, 4215, Note_on_c, 0, 70, 64
4, 4335, Note_on_c, 0, 70, 0
4, 4335, Note_on_c, 0, 68, 64
4, 4575, Note_on_c, 0, 68, 0
4, 4575, Note_on_c, 0, 60, 64
4, 4935, Note_on_c, 0, 60, 0
4, 4935, Note_on_c, 0, 72, 64
4, 5055, Note_on_c, 0, 72, 0
4, 5055, Note_on_c, 0, 70, 64
4, 5175, Note_on_c, 0, 70, 0
4, 5175, Note_on_c, 0, 68, 64
4, 5295, Note_on_c, 0, 68, 0
4, 5295, Note_on_c, 0, 67, 64
4, 5415, Note_on_c, 0, 67, 0
4, 5415, Note_on_c, 0, 65, 64
4, 5535, Note_on_c, 0, 65, 0
4, 5535, Note_on_c, 0, 63, 64
4, 5655, Note_on_c, 0, 63, 0
4, 5655, Note_on_c, 0, 65, 64
4, 5775, Note_on_c, 0, 65, 0
4, 5775, Note_on_c, 0, 67, 64
4, 6015, Note_on_c, 0, 67, 0
4, 6015, Note_on_c, 0, 65, 64
4, 6255, Note_on_c, 0, 65, 0
4, 6255, Note_on_c, 0, 63, 64
4, 6495, Note_on_c, 0, 63, 0
4, 6495, Note_on_c, 0, 70, 64
4, 6735, Note_on_c, 0, 70, 0
4, 6735, Note_on_c, 0, 72, 64
4, 6855, Note_on_c, 0, 72, 0
4, 6855, Note_on_c, 0, 65, 64
4, 6975, Note_on_c, 0, 65, 0
4, 6975, Note_on_c, 0, 67, 64
4, 7095, Note_on_c, 0, 67, 0
4, 7095, Note_on_c, 0, 68, 64
4, 7215, Note_on_c, 0, 68, 0
4, 7335, Note_on_c, 0, 62, 64
4, 7455, Note_on_c, 0, 62, 0
4, 7455, Note_on_c, 0, 63, 64
4, 7575, Note_on_c, 0, 63, 0
4, 7575, Note_on_c, 0, 65, 64
4, 7695, Note_on_c, 0, 65, 0
4, 7695, Note_on_c, 0, 67, 64
4, 8415, Note_on_c, 0, 67, 0
4, 8415, Note_on_c, 0, 68, 64
4, 8655, Note_on_c, 0, 68, 0
4, 8655, Note_on_c, 0, 63, 64
4, 8775, Note_on_c, 0, 63, 0
4, 8775, Note_on_c, 0, 55, 64
4, 8895, Note_on_c, 0, 55, 0
4, 8895, Note_on_c, 0, 57, 64
4, 9015, Note_on_c, 0, 57, 0
4, 9015, Note_on_c, 0, 59, 64
4, 9135, Note_on_c, 0, 59, 0
4, 9135, Note_on_c, 0, 60, 64
4, 9255, Note_on_c, 0, 60, 0
4, 9255, Note_on_c, 0, 62, 64
4, 9375, Note_on_c, 0, 62, 0
4, 9375, Note_on_c, 0, 63, 64
4, 9495, Note_on_c, 0, 63, 0
4, 9495, Note_on_c, 0, 65, 64
4, 9615, Note_on_c, 0, 65, 0
4, 9615, Note_on_c, 0, 67, 64
4, 9735, Note_on_c, 0, 67, 0
4, 9735, Note_on_c, 0, 68, 64
4, 9855, Note_on_c, 0, 68, 0
4, 9855, Note_on_c, 0, 67, 64
4, 9975, Note_on_c, 0, 67, 0
4, 9975, Note_on_c, 0, 65, 64
4, 10095, Note_on_c, 0, 65, 0
4, 10095, Note_on_c, 0, 63, 64
4, 10335, Note_on_c, 0, 63, 0
4, 10335, Note_on_c, 0, 67, 64
4, 10575, Note_on_c, 0, 67, 0
4, 10815, Note_on_c, 0, 60, 64
4, 11055, Note_on_c, 0, 60, 0
4, 11055, Note_on_c, 0, 55, 64
4, 11175, Note_on_c, 0, 55, 0
4, 11175, Note_on_c, 0, 53, 64
4, 11295, Note_on_c, 0, 53, 0
4, 11295, Note_on_c, 0, 55, 64
4, 11415, Note_on_c, 0, 55, 0
4, 11415, Note_on_c, 0, 56, 64
4, 11535, Note_on_c, 0, 56, 0
4, 11535, Note_on_c, 0, 58, 64
4, 11655, Note_on_c, 0, 58, 0
4, 11655, Note_on_c, 0, 70, 64
4, 11775, Note_on_c, 0, 70, 0
4, 11775, Note_on_c, 0, 72, 64
4, 11895, Note_on_c, 0, 72, 0
4, 11895, Note_on_c, 0, 70, 64
4, 12015, Note_on_c, 0, 70, 0
4, 12015, Note_on_c, 0, 68, 64
4, 12255, Note_on_c, 0, 68, 0
4, 12255, Note_on_c, 0, 60, 64
4, 12615, Note_on_c, 0, 60, 0
4, 12615, Note_on_c, 0, 72, 64
4, 12735, Note_on_c, 0, 72, 0
4, 12735, Note_on_c, 0, 70, 64
4, 12855, Note_on_c, 0, 70, 0
4, 12855, Note_on_c, 0, 68, 64
4, 12975, Note_on_c, 0, 68, 0
4, 12975, Note_on_c, 0, 67, 64
4, 13095, Note_on_c, 0, 67, 0
4, 13095, Note_on_c, 0, 65, 64
4, 13215, Note_on_c, 0, 65, 0
4, 13215, Note_on_c, 0, 63, 64
4, 13335, Note_on_c, 0, 63, 0
4, 13335, Note_on_c, 0, 65, 64
4, 13455, Note_on_c, 0, 65, 0
4, 13455, Note_on_c, 0, 67, 64
4, 13695, Note_on_c, 0, 67, 0
4, 13695, Note_on_c, 0, 65, 64
4, 13935, Note_on_c, 0, 65, 0
4, 13935, Note_on_c, 0, 63, 64
4, 14175, Note_on_c, 0, 63, 0
4, 14175, Note_on_c, 0, 70, 64
4, 14415, Note_on_c, 0, 70, 0
4, 14415, Note_on_c, 0, 72, 64
4, 14535, Note_on_c, 0, 72, 0
4, 14535, Note_on_c, 0, 65, 64
4, 14655, Note_on_c, 0, 65, 0
4, 14655, Note_on_c, 0, 67, 64
4, 14775, Note_on_c, 0, 67, 0
4, 14775, Note_on_c, 0, 68, 64
4, 14895, Note_on_c, 0, 68, 0
4, 15015, Note_on_c, 0, 62, 64
4, 15135, Note_on_c, 0, 62, 0
4, 15135, Note_on_c, 0, 63, 64
4, 15255, Note_on_c, 0, 63, 0
4, 15255, Note_on_c, 0, 65, 64
4, 15375, Note_on_c, 0, 65, 0
4, 15375, Note_on_c, 0, 67, 64
4, 16095, Note_on_c, 0, 67, 0
4, 16095, Note_on_c, 0, 68, 64
4, 16335, Note_on_c, 0, 68, 0
4, 16335, Note_on_c, 0, 63, 64
4, 16455, Note_on_c, 0, 63, 0
4, 16455, Note_on_c, 0, 55, 64
4, 16575, Note_on_c, 0, 55, 0
4, 16575, Note_on_c, 0, 57, 64
4, 16695, Note_on_c, 0, 57, 0
4, 16695, Note_on_c, 0, 59, 64
4, 16815, Note_on_c, 0, 59, 0
4, 16815, Note_on_c, 0, 60, 64
4, 16935, Note_on_c, 0, 60, 0
4, 16935, Note_on_c, 0, 62, 64
4, 17055, Note_on_c, 0, 62, 0
4, 17055, Note_on_c, 0, 63, 64
4, 17175, Note_on_c, 0, 63, 0
4, 17175, Note_on_c, 0, 65, 64
4, 17295, Note_on_c, 0, 65, 0
4, 17295, Note_on_c, 0, 67, 64
4, 17415, Note_on_c, 0, 67, 0
4, 17415, Note_on_c, 0, 68, 64
4, 17535, Note_on_c, 0, 68, 0
4, 17535, Note_on_c, 0, 67, 64
4, 17655, Note_on_c, 0, 67, 0
4, 17655, Note_on_c, 0, 65, 64
4, 17775, Note_on_c, 0, 65, 0
4, 17775, Note_on_c, 0, 63, 64
4, 18015, Note_on_c, 0, 63, 0
4, 18015, Note_on_c, 0, 67, 64
4, 18255, Note_on_c, 0, 67, 0
4, 18495, Note_on_c, 0, 60, 64
4, 18735, Note_on_c, 0, 60, 0
4, 18735, Note_on_c, 0, 55, 64
4, 18855, Note_on_c, 0, 55, 0
4, 18855, Note_on_c, 0, 53, 64
4, 18975, Note_on_c, 0, 53, 0
4, 18975, Note_on_c, 0, 55, 64
4, 19095, Note_on_c, 0, 55, 0
4, 19095, Note_on_c, 0, 56, 64
4, 19215, Note_on_c, 0, 56, 0
4, 19215, Note_on_c, 0, 58, 64
4, 19335, Note_on_c, 0, 58, 0
4, 19335, Note_on_c, 0, 70, 64
4, 19455, Note_on_c, 0, 70, 0
4, 19455, Note_on_c, 0, 72, 64
4, 19575, Note_on_c, 0, 72, 0
4, 19575, Note_on_c, 0, 70, 64
4, 19695, Note_on_c, 0, 70, 0
4, 19695, Note_on_c, 0, 68, 64
4, 19935, Note_on_c, 0, 68, 0
4, 19935, Note_on_c, 0, 60, 64
4, 20295, Note_on_c, 0, 60, 0
4, 20295, Note_on_c, 0, 72, 64
4, 20415, Note_on_c, 0, 72, 0
4, 20415, Note_on_c, 0, 70, 64
4, 20535, Note_on_c, 0, 70, 0
4, 20535, Note_on_c, 0, 68, 64
4, 20655, Note_on_c, 0, 68, 0
4, 20655, Note_on_c, 0, 67, 64
4, 20775, Note_on_c, 0, 67, 0
4, 20775, Note_on_c, 0, 65, 64
4, 20895, Note_on_c, 0, 65, 0
4, 20895, Note_on_c, 0, 63, 64
4, 21015, Note_on_c, 0, 63, 0
4, 21015, Note_on_c, 0, 65, 64
4, 21135, Note_on_c, 0, 65, 0
4, 21135, Note_on_c, 0, 67, 64
4, 21375, Note_on_c, 0, 67, 0
4, 21375, Note_on_c, 0, 65, 64
4, 21615, Note_on_c, 0, 65, 0
4, 21615, Note_on_c, 0, 63, 64
4, 21855, Note_on_c, 0, 63, 0
4, 21855, Note_on_c, 0, 70, 64
4, 22095, Note_on_c, 0, 70, 0
4, 22095, Note_on_c, 0, 72, 64
4, 22215, Note_on_c, 0, 72, 0
4, 22215, Note_on_c, 0, 65, 64
4, 22335, Note_on_c, 0, 65, 0
4, 22335, Note_on_c, 0, 67, 64
4, 22455, Note_on_c, 0, 67, 0
4, 22455, Note_on_c, 0, 68, 64
4, 22575, Note_on_c, 0, 68, 0
4, 22695, Note_on_c, 0, 62, 64
4, 22815, Note_on_c, 0, 62, 0
4, 22815, Note_on_c, 0, 63, 64
4, 22935, Note_on_c, 0, 63, 0
4, 22935, Note_on_c, 0, 65, 64
4, 23055, Note_on_c, 0, 65, 0
4, 23055, Note_on_c, 0, 67, 64
4, 23775, Note_on_c, 0, 67, 0
4, 23775, Note_on_c, 0, 68, 64
4, 24015, Note_on_c, 0, 68, 0
4, 24015, Note_on_c, 0, 63, 64
4, 24135, Note_on_c, 0, 63, 0
4, 24135, Note_on_c, 0, 55, 64
4, 24255, Note_on_c, 0, 55, 0
4, 24255, Note_on_c, 0, 57, 64
4, 24375, Note_on_c, 0, 57, 0
4, 24375, Note_on_c, 0, 59, 64
4, 24495, Note_on_c, 0, 59, 0
4, 24495, Note_on_c, 0, 60, 64
4, 24615, Note_on_c, 0, 60, 0
4, 24615, Note_on_c, 0, 62, 64
4, 24735, Note_on_c, 0, 62, 0
4, 24735, Note_on_c, 0, 63, 64
4, 24855, Note_on_c, 0, 63, 0
4, 24855, Note_on_c, 0, 65, 64
4, 24975, Note_on_c, 0, 65, 0
4, 24975, Note_on_c, 0, 67, 64
4, 25095, Note_on_c, 0, 67, 0
4, 25095, Note_on_c, 0, 68, 64
4, 25215, Note_on_c, 0, 68, 0
4, 25215, Note_on_c, 0, 67, 64
4, 25335, Note_on_c, 0, 67, 0
4, 25335, Note_on_c, 0, 65, 64
4, 25455, Note_on_c, 0, 65, 0
4, 25455, Note_on_c, 0, 63, 64
4, 25695, Note_on_c, 0, 63, 0
4, 25695, Note_on_c, 0, 67, 64
4, 25935, Note_on_c, 0, 67, 0
4, 26175, Note_on_c, 0, 60, 64
4, 26415, Note_on_c, 0, 60, 0
4, 26415, Note_on_c, 0, 55, 64
4, 26535, Note_on_c, 0, 55, 0
4, 26535, Note_on_c, 0, 53, 64
4, 26655, Note_on_c, 0, 53, 0
4, 26655, Note_on_c, 0, 55, 64
4, 26775, Note_on_c, 0, 55, 0
4, 26775, Note_on_c, 0, 56, 64
4, 26895, Note_on_c, 0, 56, 0
4, 26895, Note_on_c, 0, 58, 64
4, 27015, Note_on_c, 0, 58, 0
4, 27015, Note_on_c, 0, 70, 64
4, 27135, Note_on_c, 0, 70, 0
4, 27135, Note_on_c, 0, 72, 64
4, 27255, Note_on_c, 0, 72, 0
4, 27255, Note_on_c, 0, 70, 64
4, 27375, Note_on_c, 0, 70, 0
4, 27375, Note_on_c, 0, 68, 64
4, 27615, Note_on_c, 0, 68, 0
4, 27615, Note_on_c, 0, 60, 64
4, 27975, Note_on_c, 0, 60, 0
4, 27975, Note_on_c, 0, 72, 64
4, 28095, Note_on_c, 0, 72, 0
4, 28095, Note_on_c, 0, 70, 64
4, 28215, Note_on_c, 0, 70, 0
4, 28215, Note_on_c, 0, 68, 64
4, 28335, Note_on_c, 0, 68, 0
4, 28335, Note_on_c, 0, 67, 64
4, 28455, Note_on_c, 0, 67, 0
4, 28455, Note_on_c, 0, 65, 64
4, 28575, Note_on_c, 0, 65, 0
4, 28575, Note_on_c, 0, 63, 64
4, 28695, Note_on_c, 0, 63, 0
4, 28695, Note_on_c, 0, 65, 64
4, 28815, Note_on_c, 0, 65, 0
4, 28815, Note_on_c, 0, 67, 64
4, 29055, Note_on_c, 0, 67, 0
4, 29055, Note_on_c, 0, 65, 64
4, 29295, Note_on_c, 0, 65, 0
4, 29295, Note_on_c, 0, 63, 64
4, 29535, Note_on_c, 0, 63, 0
4, 29535, Note_on_c, 0, 71, 64
4, 29775, Note_on_c, 0, 71, 0
4, 29775, Note_on_c, 0, 72, 64
4, 30255, Note_on_c, 0, 72, 0
4, 30255, End_track
5, 0, Start_track
5, 0, End_track
0, 0, End_of_file
