0, 0, Header, 1, 7, 1024
1, 0, Start_track
1, 0, Time_signature, 3, 1, 48, 8
1, 0, Key_signature, -2, "major"
1, 0, Tempo, 400000
1, 0, Tempo, 705882
1, 0, Title_t, "Bach's Brandenburg Concerto No.6, 2nd mov't"
1, 329859, Tempo, 800000
1, 331776, Tempo, 705882
1, 358767, Tempo, 800000
1, 362496, Tempo, 705882
1, 377050, Tempo, 800000
1, 379414, Tempo, 882352
1, 379516, Tempo, 895522
1, 379618, Tempo, 909090
1, 379720, Tempo, 923076
1, 379822, Tempo, 952380
1, 379924, Tempo, 967741
1, 380026, Tempo, 983606
1, 380128, Tempo, 1000000
1, 380230, Tempo, 1034482
1, 380332, Tempo, 1052631
1, 380434, Tempo, 1071428
1, 380536, Tempo, 1090909
1, 380638, Tempo, 1132075
1, 380740, Tempo, 1153846
1, 380842, Tempo, 1176470
1, 380944, Tempo, 1200000
1, 381046, Tempo, 937500
1, 384086, Tempo, 882352
1, 384392, Tempo, 895522
1, 384596, Tempo, 909090
1, 384902, Tempo, 923076
1, 385078, Tempo, 937500
1, 385180, Tempo, 967741
1, 385282, Tempo, 1000000
1, 385384, Tempo, 1034482
1, 385486, Tempo, 1071428
1, 385588, Tempo, 1111111
1, 385690, Tempo, 1153846
1, 385792, Tempo, 1200000
1, 385894, Tempo, 1250000
1, 386038, Tempo, 1428571
1, 386446, Tempo, 1463414
1, 386752, Tempo, 1500000
1, 387190, Tempo, 740740
1, 389120, Time_signature, 4, 1, 48, 8
1, 397312, End_track
2, 0, Start_track
2, 0, Program_c, 0, 41
2, 0, Control_c, 0, 121, 127
2, 0, Control_c, 0, 91, 127
2, 0, Control_c, 0, 1, 10
2, 0, Control_c, 0, 10, 40
2, 0, Title_t, "Viola I da braccio"
2, 32768, Note_on_c, 0, 77, 47
2, 34816, Note_on_c, 0, 77, 0
2, 34816, Note_on_c, 0, 79, 47
2, 36864, Note_on_c, 0, 79, 0
2, 36864, Note_on_c, 0, 70, 47
2, 37120, Note_on_c, 0, 70, 0
2, 37120, Note_on_c, 0, 69, 47
2, 37376, Note_on_c, 0, 69, 0
2, 37376, Note_on_c, 0, 70, 47
2, 37504, Note_on_c, 0, 70, 0
2, 37504, Note_on_c, 0, 69, 47
2, 37632, Note_on_c, 0, 69, 0
2, 37632, Note_on_c, 0, 70, 47
2, 37760, Note_on_c, 0, 70, 0
2, 37760, Note_on_c, 0, 69, 47
2, 37888, Note_on_c, 0, 69, 0
2, 37888, Note_on_c, 0, 70, 47
2, 38016, Note_on_c, 0, 70, 0
2, 38016, Note_on_c, 0, 69, 47
2, 38144, Note_on_c, 0, 69, 0
2, 38144, Note_on_c, 0, 70, 47
2, 38272, Note_on_c, 0, 70, 0
2, 38272, Note_on_c, 0, 69, 47
2, 38400, Note_on_c, 0, 69, 0
2, 38400, Note_on_c, 0, 70, 47
2, 38528, Note_on_c, 0, 70, 0
2, 38528, Note_on_c, 0, 69, 47
2, 38656, Note_on_c, 0, 69, 0
2, 38656, Note_on_c, 0, 70, 47
2, 38784, Note_on_c, 0, 70, 0
2, 38784, Note_on_c, 0, 69, 47
2, 38912, Note_on_c, 0, 69, 0
2, 38912, Note_on_c, 0, 70, 47
2, 39040, Note_on_c, 0, 70, 0
2, 39040, Note_on_c, 0, 69, 47
2, 39168, Note_on_c, 0, 69, 0
2, 39168, Note_on_c, 0, 70, 47
2, 39296, Note_on_c, 0, 70, 0
2, 39296, Note_on_c, 0, 69, 47
2, 39424, Note_on_c, 0, 69, 0
2, 39424, Note_on_c, 0, 70, 47
2, 39552, Note_on_c, 0, 70, 0
2, 39552, Note_on_c, 0, 69, 47
2, 39680, Note_on_c, 0, 69, 0
2, 39680, Note_on_c, 0, 70, 47
2, 39808, Note_on_c, 0, 70, 0
2, 39808, Note_on_c, 0, 69, 47
2, 39936, Note_on_c, 0, 69, 0
2, 39936, Note_on_c, 0, 70, 47
2, 40064, Note_on_c, 0, 70, 0
2, 40064, Note_on_c, 0, 69, 47
2, 40192, Note_on_c, 0, 69, 0
2, 40192, Note_on_c, 0, 70, 47
2, 40320, Note_on_c, 0, 70, 0
2, 40320, Note_on_c, 0, 69, 47
2, 40448, Note_on_c, 0, 69, 0
2, 40448, Note_on_c, 0, 70, 47
2, 40576, Note_on_c, 0, 70, 0
2, 40576, Note_on_c, 0, 69, 47
2, 40704, Note_on_c, 0, 69, 0
2, 40704, Note_on_c, 0, 67, 47
2, 40832, Note_on_c, 0, 67, 0
2, 40832, Note_on_c, 0, 69, 47
2, 40960, Note_on_c, 0, 69, 0
2, 40960, Note_on_c, 0, 70, 47
2, 43008, Note_on_c, 0, 70, 0
2, 44032, Note_on_c, 0, 70, 47
2, 45056, Note_on_c, 0, 70, 0
2, 45056, Note_on_c, 0, 72, 47
2, 46080, Note_on_c, 0, 72, 0
2, 46080, Note_on_c, 0, 75, 47
2, 46592, Note_on_c, 0, 75, 0
2, 46592, Note_on_c, 0, 74, 47
2, 47104, Note_on_c, 0, 74, 0
2, 47104, Note_on_c, 0, 75, 47
2, 48128, Note_on_c, 0, 75, 0
2, 48128, Note_on_c, 0, 75, 47
2, 50176, Note_on_c, 0, 75, 0
2, 50176, Note_on_c, 0, 74, 47
2, 50688, Note_on_c, 0, 74, 0
2, 50688, Note_on_c, 0, 72, 47
2, 51200, Note_on_c, 0, 72, 0
2, 51200, Note_on_c, 0, 74, 47
2, 52224, Note_on_c, 0, 74, 0
2, 52224, Note_on_c, 0, 77, 47
2, 52736, Note_on_c, 0, 77, 0
2, 52736, Note_on_c, 0, 75, 47
2, 53248, Note_on_c, 0, 75, 0
2, 53248, Note_on_c, 0, 77, 47
2, 54272, Note_on_c, 0, 77, 0
2, 54272, Note_on_c, 0, 77, 47
2, 56320, Note_on_c, 0, 77, 0
2, 56320, Note_on_c, 0, 75, 47
2, 56832, Note_on_c, 0, 75, 0
2, 56832, Note_on_c, 0, 74, 47
2, 57344, Note_on_c, 0, 74, 0
2, 57344, Note_on_c, 0, 75, 47
2, 58368, Note_on_c, 0, 75, 0
2, 58368, Note_on_c, 0, 79, 47
2, 58880, Note_on_c, 0, 79, 0
2, 58880, Note_on_c, 0, 77, 47
2, 59392, Note_on_c, 0, 77, 0
2, 59392, Note_on_c, 0, 79, 47
2, 60416, Note_on_c, 0, 79, 0
2, 60416, Note_on_c, 0, 77, 47
2, 60928, Note_on_c, 0, 77, 0
2, 60928, Note_on_c, 0, 75, 47
2, 61440, Note_on_c, 0, 75, 0
2, 61440, Note_on_c, 0, 77, 47
2, 62976, Note_on_c, 0, 77, 0
2, 62976, Note_on_c, 0, 79, 47
2, 63488, Note_on_c, 0, 79, 0
2, 63488, Note_on_c, 0, 74, 47
2, 65536, Note_on_c, 0, 74, 0
2, 65536, Note_on_c, 0, 74, 47
2, 65792, Note_on_c, 0, 74, 0
2, 65792, Note_on_c, 0, 72, 47
2, 66048, Note_on_c, 0, 72, 0
2, 66048, Note_on_c, 0, 74, 47
2, 66176, Note_on_c, 0, 74, 0
2, 66176, Note_on_c, 0, 72, 47
2, 66304, Note_on_c, 0, 72, 0
2, 66304, Note_on_c, 0, 74, 47
2, 66432, Note_on_c, 0, 74, 0
2, 66432, Note_on_c, 0, 72, 47
2, 66560, Note_on_c, 0, 72, 0
2, 66560, Note_on_c, 0, 74, 47
2, 66688, Note_on_c, 0, 74, 0
2, 66688, Note_on_c, 0, 72, 47
2, 66816, Note_on_c, 0, 72, 0
2, 66816, Note_on_c, 0, 74, 47
2, 66944, Note_on_c, 0, 74, 0
2, 66944, Note_on_c, 0, 72, 47
2, 67072, Note_on_c, 0, 72, 0
2, 67072, Note_on_c, 0, 70, 47
2, 67584, Note_on_c, 0, 70, 0
2, 67584, Note_on_c, 0, 70, 47
2, 68096, Note_on_c, 0, 70, 0
2, 68096, Note_on_c, 0, 65, 45
2, 68608, Note_on_c, 0, 65, 0
2, 68608, Note_on_c, 0, 74, 44
2, 69120, Note_on_c, 0, 74, 0
2, 69120, Note_on_c, 0, 72, 42
2, 69632, Note_on_c, 0, 72, 0
2, 69632, Note_on_c, 0, 70, 40
2, 70144, Note_on_c, 0, 70, 0
2, 70144, Note_on_c, 0, 68, 39
2, 70656, Note_on_c, 0, 68, 0
2, 70656, Note_on_c, 0, 67, 37
2, 71168, Note_on_c, 0, 67, 0
2, 71168, Note_on_c, 0, 65, 35
2, 71680, Note_on_c, 0, 65, 0
2, 71680, Note_on_c, 0, 63, 34
2, 72192, Note_on_c, 0, 63, 0
2, 72192, Note_on_c, 0, 62, 32
2, 72704, Note_on_c, 0, 62, 0
2, 72704, Note_on_c, 0, 63, 30
2, 74240, Note_on_c, 0, 63, 0
2, 74240, Note_on_c, 0, 67, 27
2, 74752, Note_on_c, 0, 67, 0
2, 74752, Note_on_c, 0, 72, 27
2, 75264, Note_on_c, 0, 72, 0
2, 75264, Note_on_c, 0, 70, 27
2, 75776, Note_on_c, 0, 70, 0
2, 75776, Note_on_c, 0, 69, 27
2, 76288, Note_on_c, 0, 69, 0
2, 76288, Note_on_c, 0, 67, 27
2, 76800, Note_on_c, 0, 67, 0
2, 76800, Note_on_c, 0, 65, 27
2, 77312, Note_on_c, 0, 65, 0
2, 77312, Note_on_c, 0, 63, 27
2, 77824, Note_on_c, 0, 63, 0
2, 77824, Note_on_c, 0, 62, 27
2, 78336, Note_on_c, 0, 62, 0
2, 78336, Note_on_c, 0, 60, 27
2, 78848, Note_on_c, 0, 60, 0
2, 78848, Note_on_c, 0, 62, 27
2, 80384, Note_on_c, 0, 62, 0
2, 80384, Note_on_c, 0, 65, 27
2, 80896, Note_on_c, 0, 65, 0
2, 80896, Note_on_c, 0, 70, 27
2, 81408, Note_on_c, 0, 70, 0
2, 81408, Note_on_c, 0, 69, 27
2, 81920, Note_on_c, 0, 69, 0
2, 81920, Note_on_c, 0, 67, 27
2, 82432, Note_on_c, 0, 67, 0
2, 82432, Note_on_c, 0, 65, 27
2, 82944, Note_on_c, 0, 65, 0
2, 82944, Note_on_c, 0, 63, 27
2, 83456, Note_on_c, 0, 63, 0
2, 83456, Note_on_c, 0, 65, 27
2, 83712, Note_on_c, 0, 65, 0
2, 83712, Note_on_c, 0, 67, 27
2, 83968, Note_on_c, 0, 67, 0
2, 83968, Note_on_c, 0, 60, 27
2, 84480, Note_on_c, 0, 60, 0
2, 84480, Note_on_c, 0, 63, 27
2, 84992, Note_on_c, 0, 63, 0
2, 84992, Note_on_c, 0, 70, 27
2, 85504, Note_on_c, 0, 70, 0
2, 85504, Note_on_c, 0, 69, 27
2, 86016, Note_on_c, 0, 69, 0
2, 86016, Note_on_c, 0, 70, 27
2, 87040, Note_on_c, 0, 70, 0
2, 87040, Note_on_c, 0, 58, 27
2, 88064, Note_on_c, 0, 58, 0
2, 88064, Note_on_c, 0, 70, 47
2, 90112, Note_on_c, 0, 70, 0
2, 90112, Note_on_c, 0, 72, 47
2, 92160, Note_on_c, 0, 72, 0
2, 92160, Note_on_c, 0, 63, 47
2, 92416, Note_on_c, 0, 63, 0
2, 92416, Note_on_c, 0, 62, 47
2, 92672, Note_on_c, 0, 62, 0
2, 92672, Note_on_c, 0, 63, 47
2, 92800, Note_on_c, 0, 63, 0
2, 92800, Note_on_c, 0, 62, 47
2, 92928, Note_on_c, 0, 62, 0
2, 92928, Note_on_c, 0, 63, 47
2, 93056, Note_on_c, 0, 63, 0
2, 93056, Note_on_c, 0, 62, 47
2, 93184, Note_on_c, 0, 62, 0
2, 93184, Note_on_c, 0, 63, 47
2, 93312, Note_on_c, 0, 63, 0
2, 93312, Note_on_c, 0, 62, 47
2, 93440, Note_on_c, 0, 62, 0
2, 93440, Note_on_c, 0, 63, 47
2, 93568, Note_on_c, 0, 63, 0
2, 93568, Note_on_c, 0, 62, 47
2, 93696, Note_on_c, 0, 62, 0
2, 93696, Note_on_c, 0, 63, 47
2, 93824, Note_on_c, 0, 63, 0
2, 93824, Note_on_c, 0, 62, 47
2, 93952, Note_on_c, 0, 62, 0
2, 93952, Note_on_c, 0, 63, 47
2, 94080, Note_on_c, 0, 63, 0
2, 94080, Note_on_c, 0, 62, 47
2, 94208, Note_on_c, 0, 62, 0
2, 94208, Note_on_c, 0, 63, 47
2, 94336, Note_on_c, 0, 63, 0
2, 94336, Note_on_c, 0, 62, 47
2, 94464, Note_on_c, 0, 62, 0
2, 94464, Note_on_c, 0, 63, 47
2, 94592, Note_on_c, 0, 63, 0
2, 94592, Note_on_c, 0, 62, 47
2, 94720, Note_on_c, 0, 62, 0
2, 94720, Note_on_c, 0, 63, 47
2, 94848, Note_on_c, 0, 63, 0
2, 94848, Note_on_c, 0, 62, 47
2, 94976, Note_on_c, 0, 62, 0
2, 94976, Note_on_c, 0, 63, 47
2, 95104, Note_on_c, 0, 63, 0
2, 95104, Note_on_c, 0, 62, 47
2, 95232, Note_on_c, 0, 62, 0
2, 95232, Note_on_c, 0, 63, 47
2, 95360, Note_on_c, 0, 63, 0
2, 95360, Note_on_c, 0, 62, 47
2, 95488, Note_on_c, 0, 62, 0
2, 95488, Note_on_c, 0, 63, 47
2, 95616, Note_on_c, 0, 63, 0
2, 95616, Note_on_c, 0, 62, 47
2, 95744, Note_on_c, 0, 62, 0
2, 95744, Note_on_c, 0, 63, 47
2, 95872, Note_on_c, 0, 63, 0
2, 95872, Note_on_c, 0, 62, 47
2, 96000, Note_on_c, 0, 62, 0
2, 96000, Note_on_c, 0, 60, 47
2, 96128, Note_on_c, 0, 60, 0
2, 96128, Note_on_c, 0, 62, 47
2, 96256, Note_on_c, 0, 62, 0
2, 96256, Note_on_c, 0, 63, 47
2, 98304, Note_on_c, 0, 63, 0
2, 99328, Note_on_c, 0, 63, 47
2, 100352, Note_on_c, 0, 63, 0
2, 100352, Note_on_c, 0, 65, 47
2, 101376, Note_on_c, 0, 65, 0
2, 101376, Note_on_c, 0, 68, 47
2, 101888, Note_on_c, 0, 68, 0
2, 101888, Note_on_c, 0, 67, 47
2, 102400, Note_on_c, 0, 67, 0
2, 102400, Note_on_c, 0, 68, 47
2, 103424, Note_on_c, 0, 68, 0
2, 103424, Note_on_c, 0, 68, 47
2, 105472, Note_on_c, 0, 68, 0
2, 105472, Note_on_c, 0, 67, 47
2, 105984, Note_on_c, 0, 67, 0
2, 105984, Note_on_c, 0, 65, 47
2, 106496, Note_on_c, 0, 65, 0
2, 106496, Note_on_c, 0, 67, 47
2, 107520, Note_on_c, 0, 67, 0
2, 107520, Note_on_c, 0, 70, 47
2, 108032, Note_on_c, 0, 70, 0
2, 108032, Note_on_c, 0, 68, 47
2, 108544, Note_on_c, 0, 68, 0
2, 108544, Note_on_c, 0, 70, 47
2, 109568, Note_on_c, 0, 70, 0
2, 109568, Note_on_c, 0, 70, 47
2, 111616, Note_on_c, 0, 70, 0
2, 111616, Note_on_c, 0, 68, 47
2, 112128, Note_on_c, 0, 68, 0
2, 112128, Note_on_c, 0, 67, 47
2, 112640, Note_on_c, 0, 67, 0
2, 112640, Note_on_c, 0, 68, 47
2, 113664, Note_on_c, 0, 68, 0
2, 113664, Note_on_c, 0, 72, 47
2, 114176, Note_on_c, 0, 72, 0
2, 114176, Note_on_c, 0, 70, 47
2, 114688, Note_on_c, 0, 70, 0
2, 114688, Note_on_c, 0, 72, 47
2, 115712, Note_on_c, 0, 72, 0
2, 115712, Note_on_c, 0, 70, 47
2, 116224, Note_on_c, 0, 70, 0
2, 116224, Note_on_c, 0, 68, 47
2, 116736, Note_on_c, 0, 68, 0
2, 116736, Note_on_c, 0, 70, 47
2, 118272, Note_on_c, 0, 70, 0
2, 118272, Note_on_c, 0, 72, 47
2, 118784, Note_on_c, 0, 72, 0
2, 118784, Note_on_c, 0, 67, 47
2, 120832, Note_on_c, 0, 67, 0
2, 120832, Note_on_c, 0, 67, 47
2, 121088, Note_on_c, 0, 67, 0
2, 121088, Note_on_c, 0, 65, 47
2, 121344, Note_on_c, 0, 65, 0
2, 121344, Note_on_c, 0, 67, 47
2, 121472, Note_on_c, 0, 67, 0
2, 121472, Note_on_c, 0, 65, 47
2, 121600, Note_on_c, 0, 65, 0
2, 121600, Note_on_c, 0, 67, 47
2, 121728, Note_on_c, 0, 67, 0
2, 121728, Note_on_c, 0, 65, 47
2, 121856, Note_on_c, 0, 65, 0
2, 121856, Note_on_c, 0, 67, 47
2, 121984, Note_on_c, 0, 67, 0
2, 121984, Note_on_c, 0, 65, 47
2, 122112, Note_on_c, 0, 65, 0
2, 122112, Note_on_c, 0, 67, 47
2, 122240, Note_on_c, 0, 67, 0
2, 122240, Note_on_c, 0, 65, 47
2, 122368, Note_on_c, 0, 65, 0
2, 122368, Note_on_c, 0, 63, 47
2, 122880, Note_on_c, 0, 63, 0
2, 122880, Note_on_c, 0, 63, 47
2, 124928, Note_on_c, 0, 63, 0
2, 124928, Note_on_c, 0, 67, 47
2, 126976, Note_on_c, 0, 67, 0
2, 126976, Note_on_c, 0, 68, 47
2, 129024, Note_on_c, 0, 68, 0
2, 129024, Note_on_c, 0, 60, 47
2, 129280, Note_on_c, 0, 60, 0
2, 129280, Note_on_c, 0, 59, 47
2, 129536, Note_on_c, 0, 59, 0
2, 129536, Note_on_c, 0, 60, 47
2, 129664, Note_on_c, 0, 60, 0
2, 129664, Note_on_c, 0, 59, 47
2, 129792, Note_on_c, 0, 59, 0
2, 129792, Note_on_c, 0, 60, 47
2, 129920, Note_on_c, 0, 60, 0
2, 129920, Note_on_c, 0, 59, 47
2, 130048, Note_on_c, 0, 59, 0
2, 130048, Note_on_c, 0, 60, 47
2, 130176, Note_on_c, 0, 60, 0
2, 130176, Note_on_c, 0, 59, 47
2, 130304, Note_on_c, 0, 59, 0
2, 130304, Note_on_c, 0, 60, 47
2, 130432, Note_on_c, 0, 60, 0
2, 130432, Note_on_c, 0, 59, 47
2, 130560, Note_on_c, 0, 59, 0
2, 130560, Note_on_c, 0, 60, 47
2, 130688, Note_on_c, 0, 60, 0
2, 130688, Note_on_c, 0, 59, 47
2, 130816, Note_on_c, 0, 59, 0
2, 130816, Note_on_c, 0, 60, 47
2, 130944, Note_on_c, 0, 60, 0
2, 130944, Note_on_c, 0, 59, 47
2, 131072, Note_on_c, 0, 59, 0
2, 131072, Note_on_c, 0, 60, 47
2, 131200, Note_on_c, 0, 60, 0
2, 131200, Note_on_c, 0, 59, 47
2, 131328, Note_on_c, 0, 59, 0
2, 131328, Note_on_c, 0, 60, 47
2, 131456, Note_on_c, 0, 60, 0
2, 131456, Note_on_c, 0, 59, 47
2, 131584, Note_on_c, 0, 59, 0
2, 131584, Note_on_c, 0, 60, 47
2, 131712, Note_on_c, 0, 60, 0
2, 131712, Note_on_c, 0, 59, 47
2, 131840, Note_on_c, 0, 59, 0
2, 131840, Note_on_c, 0, 60, 47
2, 131968, Note_on_c, 0, 60, 0
2, 131968, Note_on_c, 0, 59, 47
2, 132096, Note_on_c, 0, 59, 0
2, 132096, Note_on_c, 0, 60, 47
2, 132224, Note_on_c, 0, 60, 0
2, 132224, Note_on_c, 0, 59, 47
2, 132352, Note_on_c, 0, 59, 0
2, 132352, Note_on_c, 0, 60, 47
2, 132480, Note_on_c, 0, 60, 0
2, 132480, Note_on_c, 0, 59, 47
2, 132608, Note_on_c, 0, 59, 0
2, 132608, Note_on_c, 0, 60, 47
2, 132736, Note_on_c, 0, 60, 0
2, 132736, Note_on_c, 0, 59, 47
2, 132864, Note_on_c, 0, 59, 0
2, 132864, Note_on_c, 0, 57, 47
2, 132992, Note_on_c, 0, 57, 0
2, 132992, Note_on_c, 0, 59, 47
2, 133120, Note_on_c, 0, 59, 0
2, 133120, Note_on_c, 0, 60, 47
2, 135168, Note_on_c, 0, 60, 0
2, 136192, Note_on_c, 0, 60, 47
2, 137216, Note_on_c, 0, 60, 0
2, 137216, Note_on_c, 0, 62, 47
2, 138240, Note_on_c, 0, 62, 0
2, 138240, Note_on_c, 0, 65, 47
2, 138752, Note_on_c, 0, 65, 0
2, 138752, Note_on_c, 0, 63, 47
2, 139264, Note_on_c, 0, 63, 0
2, 139264, Note_on_c, 0, 65, 47
2, 140288, Note_on_c, 0, 65, 0
2, 140288, Note_on_c, 0, 65, 47
2, 142336, Note_on_c, 0, 65, 0
2, 142336, Note_on_c, 0, 64, 47
2, 142848, Note_on_c, 0, 64, 0
2, 142848, Note_on_c, 0, 62, 47
2, 143360, Note_on_c, 0, 62, 0
2, 143360, Note_on_c, 0, 64, 47
2, 143872, Note_on_c, 0, 64, 0
2, 143872, Note_on_c, 0, 65, 47
2, 144384, Note_on_c, 0, 65, 0
2, 144384, Note_on_c, 0, 64, 47
2, 144896, Note_on_c, 0, 64, 0
2, 144896, Note_on_c, 0, 65, 47
2, 145408, Note_on_c, 0, 65, 0
2, 145408, Note_on_c, 0, 67, 47
2, 145664, Note_on_c, 0, 67, 0
2, 145664, Note_on_c, 0, 65, 47
2, 145920, Note_on_c, 0, 65, 0
2, 145920, Note_on_c, 0, 67, 47
2, 146048, Note_on_c, 0, 67, 0
2, 146048, Note_on_c, 0, 65, 47
2, 146176, Note_on_c, 0, 65, 0
2, 146176, Note_on_c, 0, 67, 47
2, 146304, Note_on_c, 0, 67, 0
2, 146304, Note_on_c, 0, 65, 47
2, 146432, Note_on_c, 0, 65, 0
2, 146432, Note_on_c, 0, 67, 47
2, 146560, Note_on_c, 0, 67, 0
2, 146560, Note_on_c, 0, 65, 47
2, 146688, Note_on_c, 0, 65, 0
2, 146688, Note_on_c, 0, 67, 47
2, 146816, Note_on_c, 0, 67, 0
2, 146816, Note_on_c, 0, 65, 47
2, 146944, Note_on_c, 0, 65, 0
2, 146944, Note_on_c, 0, 67, 47
2, 147456, Note_on_c, 0, 67, 0
2, 147456, Note_on_c, 0, 67, 47
2, 147968, Note_on_c, 0, 67, 0
2, 147968, Note_on_c, 0, 70, 45
2, 148480, Note_on_c, 0, 70, 0
2, 148480, Note_on_c, 0, 68, 44
2, 148992, Note_on_c, 0, 68, 0
2, 148992, Note_on_c, 0, 67, 42
2, 149504, Note_on_c, 0, 67, 0
2, 149504, Note_on_c, 0, 65, 40
2, 150016, Note_on_c, 0, 65, 0
2, 150016, Note_on_c, 0, 63, 39
2, 150528, Note_on_c, 0, 63, 0
2, 150528, Note_on_c, 0, 61, 37
2, 151040, Note_on_c, 0, 61, 0
2, 151040, Note_on_c, 0, 60, 35
2, 151552, Note_on_c, 0, 60, 0
2, 151552, Note_on_c, 0, 58, 34
2, 152064, Note_on_c, 0, 58, 0
2, 152064, Note_on_c, 0, 57, 32
2, 152576, Note_on_c, 0, 57, 0
2, 152576, Note_on_c, 0, 58, 30
2, 154112, Note_on_c, 0, 58, 0
2, 154112, Note_on_c, 0, 61, 27
2, 154624, Note_on_c, 0, 61, 0
2, 154624, Note_on_c, 0, 67, 27
2, 155136, Note_on_c, 0, 67, 0
2, 155136, Note_on_c, 0, 65, 27
2, 155648, Note_on_c, 0, 65, 0
2, 155648, Note_on_c, 0, 64, 27
2, 156160, Note_on_c, 0, 64, 0
2, 156160, Note_on_c, 0, 62, 27
2, 156672, Note_on_c, 0, 62, 0
2, 156672, Note_on_c, 0, 60, 27
2, 157184, Note_on_c, 0, 60, 0
2, 157184, Note_on_c, 0, 58, 27
2, 157696, Note_on_c, 0, 58, 0
2, 157696, Note_on_c, 0, 56, 27
2, 158208, Note_on_c, 0, 56, 0
2, 158208, Note_on_c, 0, 55, 27
2, 158720, Note_on_c, 0, 55, 0
2, 158720, Note_on_c, 0, 56, 27
2, 160256, Note_on_c, 0, 56, 0
2, 160256, Note_on_c, 0, 60, 27
2, 160768, Note_on_c, 0, 60, 0
2, 160768, Note_on_c, 0, 65, 27
2, 161280, Note_on_c, 0, 65, 0
2, 161280, Note_on_c, 0, 63, 27
2, 161792, Note_on_c, 0, 63, 0
2, 161792, Note_on_c, 0, 61, 27
2, 162304, Note_on_c, 0, 61, 0
2, 162304, Note_on_c, 0, 60, 27
2, 162816, Note_on_c, 0, 60, 0
2, 162816, Note_on_c, 0, 58, 27
2, 163328, Note_on_c, 0, 58, 0
2, 163328, Note_on_c, 0, 60, 27
2, 163584, Note_on_c, 0, 60, 0
2, 163584, Note_on_c, 0, 61, 27
2, 163840, Note_on_c, 0, 61, 0
2, 163840, Note_on_c, 0, 55, 27
2, 164352, Note_on_c, 0, 55, 0
2, 164352, Note_on_c, 0, 58, 27
2, 164864, Note_on_c, 0, 58, 0
2, 164864, Note_on_c, 0, 65, 27
2, 165376, Note_on_c, 0, 65, 0
2, 165376, Note_on_c, 0, 64, 27
2, 165888, Note_on_c, 0, 64, 0
2, 165888, Note_on_c, 0, 65, 27
2, 178688, Note_on_c, 0, 65, 0
2, 178688, Note_on_c, 0, 68, 32
2, 179200, Note_on_c, 0, 68, 0
2, 179200, Note_on_c, 0, 67, 32
2, 179712, Note_on_c, 0, 67, 0
2, 179712, Note_on_c, 0, 65, 32
2, 180224, Note_on_c, 0, 65, 0
2, 180224, Note_on_c, 0, 65, 32
2, 182272, Note_on_c, 0, 65, 0
2, 182272, Note_on_c, 0, 65, 32
2, 182528, Note_on_c, 0, 65, 0
2, 182528, Note_on_c, 0, 64, 32
2, 182784, Note_on_c, 0, 64, 0
2, 182784, Note_on_c, 0, 65, 32
2, 182912, Note_on_c, 0, 65, 0
2, 182912, Note_on_c, 0, 64, 32
2, 183040, Note_on_c, 0, 64, 0
2, 183040, Note_on_c, 0, 65, 32
2, 183168, Note_on_c, 0, 65, 0
2, 183168, Note_on_c, 0, 64, 32
2, 183296, Note_on_c, 0, 64, 0
2, 183296, Note_on_c, 0, 65, 32
2, 183424, Note_on_c, 0, 65, 0
2, 183424, Note_on_c, 0, 64, 32
2, 183552, Note_on_c, 0, 64, 0
2, 183552, Note_on_c, 0, 65, 32
2, 183680, Note_on_c, 0, 65, 0
2, 183680, Note_on_c, 0, 64, 32
2, 183808, Note_on_c, 0, 64, 0
2, 183808, Note_on_c, 0, 65, 32
2, 184320, Note_on_c, 0, 65, 0
2, 184320, Note_on_c, 0, 65, 32
2, 186368, Note_on_c, 0, 65, 0
2, 210944, Note_on_c, 0, 75, 47
2, 212992, Note_on_c, 0, 75, 0
2, 212992, Note_on_c, 0, 77, 47
2, 215040, Note_on_c, 0, 77, 0
2, 215040, Note_on_c, 0, 68, 47
2, 215296, Note_on_c, 0, 68, 0
2, 215296, Note_on_c, 0, 67, 47
2, 215552, Note_on_c, 0, 67, 0
2, 215552, Note_on_c, 0, 68, 47
2, 215680, Note_on_c, 0, 68, 0
2, 215680, Note_on_c, 0, 67, 47
2, 215808, Note_on_c, 0, 67, 0
2, 215808, Note_on_c, 0, 68, 47
2, 215936, Note_on_c, 0, 68, 0
2, 215936, Note_on_c, 0, 67, 47
2, 216064, Note_on_c, 0, 67, 0
2, 216064, Note_on_c, 0, 68, 47
2, 216192, Note_on_c, 0, 68, 0
2, 216192, Note_on_c, 0, 67, 47
2, 216320, Note_on_c, 0, 67, 0
2, 216320, Note_on_c, 0, 68, 47
2, 216448, Note_on_c, 0, 68, 0
2, 216448, Note_on_c, 0, 67, 47
2, 216576, Note_on_c, 0, 67, 0
2, 216576, Note_on_c, 0, 68, 47
2, 216704, Note_on_c, 0, 68, 0
2, 216704, Note_on_c, 0, 67, 47
2, 216832, Note_on_c, 0, 67, 0
2, 216832, Note_on_c, 0, 68, 47
2, 216960, Note_on_c, 0, 68, 0
2, 216960, Note_on_c, 0, 67, 47
2, 217088, Note_on_c, 0, 67, 0
2, 217088, Note_on_c, 0, 68, 47
2, 217216, Note_on_c, 0, 68, 0
2, 217216, Note_on_c, 0, 67, 47
2, 217344, Note_on_c, 0, 67, 0
2, 217344, Note_on_c, 0, 68, 47
2, 217472, Note_on_c, 0, 68, 0
2, 217472, Note_on_c, 0, 67, 47
2, 217600, Note_on_c, 0, 67, 0
2, 217600, Note_on_c, 0, 68, 47
2, 217728, Note_on_c, 0, 68, 0
2, 217728, Note_on_c, 0, 67, 47
2, 217856, Note_on_c, 0, 67, 0
2, 217856, Note_on_c, 0, 68, 47
2, 217984, Note_on_c, 0, 68, 0
2, 217984, Note_on_c, 0, 67, 47
2, 218112, Note_on_c, 0, 67, 0
2, 218112, Note_on_c, 0, 68, 47
2, 218240, Note_on_c, 0, 68, 0
2, 218240, Note_on_c, 0, 67, 47
2, 218368, Note_on_c, 0, 67, 0
2, 218368, Note_on_c, 0, 68, 47
2, 218496, Note_on_c, 0, 68, 0
2, 218496, Note_on_c, 0, 67, 47
2, 218624, Note_on_c, 0, 67, 0
2, 218624, Note_on_c, 0, 68, 47
2, 218752, Note_on_c, 0, 68, 0
2, 218752, Note_on_c, 0, 67, 47
2, 218880, Note_on_c, 0, 67, 0
2, 218880, Note_on_c, 0, 65, 47
2, 219008, Note_on_c, 0, 65, 0
2, 219008, Note_on_c, 0, 67, 47
2, 219136, Note_on_c, 0, 67, 0
2, 219136, Note_on_c, 0, 68, 47
2, 221184, Note_on_c, 0, 68, 0
2, 222208, Note_on_c, 0, 68, 47
2, 223232, Note_on_c, 0, 68, 0
2, 223232, Note_on_c, 0, 70, 47
2, 224256, Note_on_c, 0, 70, 0
2, 224256, Note_on_c, 0, 73, 47
2, 224768, Note_on_c, 0, 73, 0
2, 224768, Note_on_c, 0, 72, 47
2, 225280, Note_on_c, 0, 72, 0
2, 225280, Note_on_c, 0, 73, 47
2, 226304, Note_on_c, 0, 73, 0
2, 226304, Note_on_c, 0, 73, 47
2, 228352, Note_on_c, 0, 73, 0
2, 228352, Note_on_c, 0, 72, 47
2, 228864, Note_on_c, 0, 72, 0
2, 228864, Note_on_c, 0, 70, 47
2, 229376, Note_on_c, 0, 70, 0
2, 229376, Note_on_c, 0, 72, 47
2, 230400, Note_on_c, 0, 72, 0
2, 230400, Note_on_c, 0, 75, 47
2, 230912, Note_on_c, 0, 75, 0
2, 230912, Note_on_c, 0, 73, 47
2, 231424, Note_on_c, 0, 73, 0
2, 231424, Note_on_c, 0, 75, 47
2, 232448, Note_on_c, 0, 75, 0
2, 232448, Note_on_c, 0, 75, 47
2, 234496, Note_on_c, 0, 75, 0
2, 234496, Note_on_c, 0, 73, 47
2, 235008, Note_on_c, 0, 73, 0
2, 235008, Note_on_c, 0, 72, 47
2, 235520, Note_on_c, 0, 72, 0
2, 235520, Note_on_c, 0, 73, 47
2, 236544, Note_on_c, 0, 73, 0
2, 236544, Note_on_c, 0, 77, 47
2, 237056, Note_on_c, 0, 77, 0
2, 237056, Note_on_c, 0, 75, 47
2, 237568, Note_on_c, 0, 75, 0
2, 237568, Note_on_c, 0, 77, 47
2, 238592, Note_on_c, 0, 77, 0
2, 238592, Note_on_c, 0, 75, 47
2, 239104, Note_on_c, 0, 75, 0
2, 239104, Note_on_c, 0, 73, 47
2, 239616, Note_on_c, 0, 73, 0
2, 239616, Note_on_c, 0, 75, 47
2, 241152, Note_on_c, 0, 75, 0
2, 241152, Note_on_c, 0, 77, 47
2, 241664, Note_on_c, 0, 77, 0
2, 241664, Note_on_c, 0, 72, 47
2, 243712, Note_on_c, 0, 72, 0
2, 243712, Note_on_c, 0, 72, 47
2, 243968, Note_on_c, 0, 72, 0
2, 243968, Note_on_c, 0, 70, 47
2, 244224, Note_on_c, 0, 70, 0
2, 244224, Note_on_c, 0, 72, 47
2, 244352, Note_on_c, 0, 72, 0
2, 244352, Note_on_c, 0, 70, 47
2, 244480, Note_on_c, 0, 70, 0
2, 244480, Note_on_c, 0, 72, 47
2, 244608, Note_on_c, 0, 72, 0
2, 244608, Note_on_c, 0, 70, 47
2, 244736, Note_on_c, 0, 70, 0
2, 244736, Note_on_c, 0, 72, 47
2, 244864, Note_on_c, 0, 72, 0
2, 244864, Note_on_c, 0, 70, 47
2, 244992, Note_on_c, 0, 70, 0
2, 244992, Note_on_c, 0, 72, 47
2, 245120, Note_on_c, 0, 72, 0
2, 245120, Note_on_c, 0, 70, 47
2, 245248, Note_on_c, 0, 70, 0
2, 245248, Note_on_c, 0, 68, 47
2, 245760, Note_on_c, 0, 68, 0
2, 245760, Note_on_c, 0, 68, 32
2, 246272, Note_on_c, 0, 68, 0
2, 246272, Note_on_c, 0, 63, 32
2, 246784, Note_on_c, 0, 63, 0
2, 246784, Note_on_c, 0, 72, 32
2, 247296, Note_on_c, 0, 72, 0
2, 247296, Note_on_c, 0, 70, 33
2, 247808, Note_on_c, 0, 70, 0
2, 247808, Note_on_c, 0, 68, 33
2, 248320, Note_on_c, 0, 68, 0
2, 248320, Note_on_c, 0, 67, 33
2, 248832, Note_on_c, 0, 67, 0
2, 248832, Note_on_c, 0, 65, 33
2, 249344, Note_on_c, 0, 65, 0
2, 249344, Note_on_c, 0, 63, 33
2, 249856, Note_on_c, 0, 63, 0
2, 249856, Note_on_c, 0, 62, 34
2, 250368, Note_on_c, 0, 62, 0
2, 250368, Note_on_c, 0, 63, 34
2, 250880, Note_on_c, 0, 63, 0
2, 250880, Note_on_c, 0, 62, 34
2, 251392, Note_on_c, 0, 62, 0
2, 251392, Note_on_c, 0, 63, 34
2, 251904, Note_on_c, 0, 63, 0
2, 251904, Note_on_c, 0, 65, 35
2, 252928, Note_on_c, 0, 65, 0
2, 252928, Note_on_c, 0, 65, 35
2, 253952, Note_on_c, 0, 65, 0
2, 253952, Note_on_c, 0, 67, 35
2, 254976, Note_on_c, 0, 67, 0
2, 254976, Note_on_c, 0, 70, 36
2, 255488, Note_on_c, 0, 70, 0
2, 255488, Note_on_c, 0, 68, 36
2, 256000, Note_on_c, 0, 68, 0
2, 256000, Note_on_c, 0, 70, 36
2, 257024, Note_on_c, 0, 70, 0
2, 257024, Note_on_c, 0, 70, 37
2, 258560, Note_on_c, 0, 70, 0
2, 258560, Note_on_c, 0, 60, 37
2, 259072, Note_on_c, 0, 60, 0
2, 259072, Note_on_c, 0, 68, 37
2, 259584, Note_on_c, 0, 68, 0
2, 259584, Note_on_c, 0, 67, 38
2, 260096, Note_on_c, 0, 67, 0
2, 260096, Note_on_c, 0, 65, 38
2, 260608, Note_on_c, 0, 65, 0
2, 260608, Note_on_c, 0, 63, 38
2, 261120, Note_on_c, 0, 63, 0
2, 261120, Note_on_c, 0, 62, 38
2, 261632, Note_on_c, 0, 62, 0
2, 261632, Note_on_c, 0, 60, 38
2, 262144, Note_on_c, 0, 60, 0
2, 262144, Note_on_c, 0, 59, 39
2, 262656, Note_on_c, 0, 59, 0
2, 262656, Note_on_c, 0, 60, 39
2, 263168, Note_on_c, 0, 60, 0
2, 263168, Note_on_c, 0, 59, 39
2, 263680, Note_on_c, 0, 59, 0
2, 263680, Note_on_c, 0, 60, 39
2, 264192, Note_on_c, 0, 60, 0
2, 264192, Note_on_c, 0, 62, 40
2, 265728, Note_on_c, 0, 62, 0
2, 265728, Note_on_c, 0, 68, 40
2, 266240, Note_on_c, 0, 68, 0
2, 266240, Note_on_c, 0, 67, 40
2, 266752, Note_on_c, 0, 67, 0
2, 266752, Note_on_c, 0, 65, 41
2, 267264, Note_on_c, 0, 65, 0
2, 267264, Note_on_c, 0, 63, 41
2, 267776, Note_on_c, 0, 63, 0
2, 267776, Note_on_c, 0, 62, 41
2, 268288, Note_on_c, 0, 62, 0
2, 268288, Note_on_c, 0, 60, 41
2, 268800, Note_on_c, 0, 60, 0
2, 268800, Note_on_c, 0, 59, 41
2, 269312, Note_on_c, 0, 59, 0
2, 269312, Note_on_c, 0, 60, 42
2, 269824, Note_on_c, 0, 60, 0
2, 269824, Note_on_c, 0, 63, 42
2, 270080, Note_on_c, 0, 63, 0
2, 270080, Note_on_c, 0, 62, 42
2, 270336, Note_on_c, 0, 62, 0
2, 270336, Note_on_c, 0, 63, 42
2, 270848, Note_on_c, 0, 63, 0
2, 270848, Note_on_c, 0, 67, 42
2, 271360, Note_on_c, 0, 67, 0
2, 271360, Note_on_c, 0, 75, 42
2, 271872, Note_on_c, 0, 75, 0
2, 271872, Note_on_c, 0, 74, 43
2, 272384, Note_on_c, 0, 74, 0
2, 272384, Note_on_c, 0, 72, 43
2, 272896, Note_on_c, 0, 72, 0
2, 272896, Note_on_c, 0, 70, 43
2, 273408, Note_on_c, 0, 70, 0
2, 273408, Note_on_c, 0, 69, 43
2, 273920, Note_on_c, 0, 69, 0
2, 273920, Note_on_c, 0, 67, 43
2, 274432, Note_on_c, 0, 67, 0
2, 274432, Note_on_c, 0, 66, 44
2, 274944, Note_on_c, 0, 66, 0
2, 274944, Note_on_c, 0, 67, 44
2, 275456, Note_on_c, 0, 67, 0
2, 275456, Note_on_c, 0, 66, 44
2, 275968, Note_on_c, 0, 66, 0
2, 275968, Note_on_c, 0, 67, 44
2, 276480, Note_on_c, 0, 67, 0
2, 276480, Note_on_c, 0, 69, 45
2, 278016, Note_on_c, 0, 69, 0
2, 278016, Note_on_c, 0, 75, 45
2, 278528, Note_on_c, 0, 75, 0
2, 278528, Note_on_c, 0, 74, 45
2, 279040, Note_on_c, 0, 74, 0
2, 279040, Note_on_c, 0, 72, 46
2, 279552, Note_on_c, 0, 72, 0
2, 279552, Note_on_c, 0, 70, 46
2, 280064, Note_on_c, 0, 70, 0
2, 280064, Note_on_c, 0, 69, 46
2, 280576, Note_on_c, 0, 69, 0
2, 280576, Note_on_c, 0, 67, 46
2, 281088, Note_on_c, 0, 67, 0
2, 281088, Note_on_c, 0, 66, 46
2, 281600, Note_on_c, 0, 66, 0
2, 281600, Note_on_c, 0, 67, 47
2, 282112, Note_on_c, 0, 67, 0
2, 282112, Note_on_c, 0, 70, 47
2, 282368, Note_on_c, 0, 70, 0
2, 282368, Note_on_c, 0, 69, 47
2, 282624, Note_on_c, 0, 69, 0
2, 282624, Note_on_c, 0, 70, 47
2, 283648, Note_on_c, 0, 70, 0
2, 283648, Note_on_c, 0, 75, 47
2, 285184, Note_on_c, 0, 75, 0
2, 285184, Note_on_c, 0, 77, 48
2, 285696, Note_on_c, 0, 77, 0
2, 285696, Note_on_c, 0, 75, 48
2, 286208, Note_on_c, 0, 75, 0
2, 286208, Note_on_c, 0, 74, 48
2, 286720, Note_on_c, 0, 74, 0
2, 286720, Note_on_c, 0, 72, 49
2, 287232, Note_on_c, 0, 72, 0
2, 287232, Note_on_c, 0, 70, 49
2, 287744, Note_on_c, 0, 70, 0
2, 287744, Note_on_c, 0, 69, 49
2, 288256, Note_on_c, 0, 69, 0
2, 288256, Note_on_c, 0, 70, 49
2, 288512, Note_on_c, 0, 70, 0
2, 288512, Note_on_c, 0, 72, 49
2, 288768, Note_on_c, 0, 72, 0
2, 288768, Note_on_c, 0, 67, 50
2, 289024, Note_on_c, 0, 67, 0
2, 289024, Note_on_c, 0, 66, 50
2, 289280, Note_on_c, 0, 66, 0
2, 289280, Note_on_c, 0, 67, 50
2, 289408, Note_on_c, 0, 67, 0
2, 289408, Note_on_c, 0, 66, 50
2, 289536, Note_on_c, 0, 66, 0
2, 289536, Note_on_c, 0, 67, 50
2, 289664, Note_on_c, 0, 67, 0
2, 289664, Note_on_c, 0, 66, 50
2, 289792, Note_on_c, 0, 66, 0
2, 289792, Note_on_c, 0, 62, 50
2, 290816, Note_on_c, 0, 62, 0
2, 290816, Note_on_c, 0, 67, 50
2, 292352, Note_on_c, 0, 67, 0
2, 292352, Note_on_c, 0, 62, 51
2, 292864, Note_on_c, 0, 62, 0
2, 292864, Note_on_c, 0, 60, 51
2, 293376, Note_on_c, 0, 60, 0
2, 293376, Note_on_c, 0, 58, 51
2, 293888, Note_on_c, 0, 58, 0
2, 293888, Note_on_c, 0, 57, 52
2, 294400, Note_on_c, 0, 57, 0
2, 294400, Note_on_c, 0, 58, 52
2, 294656, Note_on_c, 0, 58, 0
2, 294656, Note_on_c, 0, 55, 52
2, 294912, Note_on_c, 0, 55, 0
2, 294912, Note_on_c, 0, 62, 47
2, 296960, Note_on_c, 0, 62, 0
2, 296960, Note_on_c, 0, 74, 47
2, 299008, Note_on_c, 0, 74, 0
2, 299008, Note_on_c, 0, 75, 47
2, 301056, Note_on_c, 0, 75, 0
2, 301056, Note_on_c, 0, 67, 47
2, 301312, Note_on_c, 0, 67, 0
2, 301312, Note_on_c, 0, 66, 47
2, 301568, Note_on_c, 0, 66, 0
2, 301568, Note_on_c, 0, 67, 47
2, 301696, Note_on_c, 0, 67, 0
2, 301696, Note_on_c, 0, 66, 47
2, 301824, Note_on_c, 0, 66, 0
2, 301824, Note_on_c, 0, 67, 47
2, 301952, Note_on_c, 0, 67, 0
2, 301952, Note_on_c, 0, 66, 47
2, 302080, Note_on_c, 0, 66, 0
2, 302080, Note_on_c, 0, 67, 47
2, 302208, Note_on_c, 0, 67, 0
2, 302208, Note_on_c, 0, 66, 47
2, 302336, Note_on_c, 0, 66, 0
2, 302336, Note_on_c, 0, 67, 47
2, 302464, Note_on_c, 0, 67, 0
2, 302464, Note_on_c, 0, 66, 47
2, 302592, Note_on_c, 0, 66, 0
2, 302592, Note_on_c, 0, 67, 47
2, 302720, Note_on_c, 0, 67, 0
2, 302720, Note_on_c, 0, 66, 47
2, 302848, Note_on_c, 0, 66, 0
2, 302848, Note_on_c, 0, 67, 47
2, 302976, Note_on_c, 0, 67, 0
2, 302976, Note_on_c, 0, 66, 47
2, 303104, Note_on_c, 0, 66, 0
2, 303104, Note_on_c, 0, 67, 47
2, 303232, Note_on_c, 0, 67, 0
2, 303232, Note_on_c, 0, 66, 47
2, 303360, Note_on_c, 0, 66, 0
2, 303360, Note_on_c, 0, 67, 47
2, 303488, Note_on_c, 0, 67, 0
2, 303488, Note_on_c, 0, 66, 47
2, 303616, Note_on_c, 0, 66, 0
2, 303616, Note_on_c, 0, 67, 47
2, 303744, Note_on_c, 0, 67, 0
2, 303744, Note_on_c, 0, 66, 47
2, 303872, Note_on_c, 0, 66, 0
2, 303872, Note_on_c, 0, 67, 47
2, 304000, Note_on_c, 0, 67, 0
2, 304000, Note_on_c, 0, 66, 47
2, 304128, Note_on_c, 0, 66, 0
2, 304128, Note_on_c, 0, 67, 47
2, 304256, Note_on_c, 0, 67, 0
2, 304256, Note_on_c, 0, 66, 47
2, 304384, Note_on_c, 0, 66, 0
2, 304384, Note_on_c, 0, 67, 47
2, 304512, Note_on_c, 0, 67, 0
2, 304512, Note_on_c, 0, 66, 47
2, 304640, Note_on_c, 0, 66, 0
2, 304640, Note_on_c, 0, 67, 47
2, 304768, Note_on_c, 0, 67, 0
2, 304768, Note_on_c, 0, 66, 47
2, 304896, Note_on_c, 0, 66, 0
2, 304896, Note_on_c, 0, 64, 47
2, 305024, Note_on_c, 0, 64, 0
2, 305024, Note_on_c, 0, 66, 47
2, 305152, Note_on_c, 0, 66, 0
2, 305152, Note_on_c, 0, 67, 47
2, 307200, Note_on_c, 0, 67, 0
2, 308224, Note_on_c, 0, 67, 47
2, 309248, Note_on_c, 0, 67, 0
2, 309248, Note_on_c, 0, 69, 47
2, 310272, Note_on_c, 0, 69, 0
2, 310272, Note_on_c, 0, 72, 47
2, 310784, Note_on_c, 0, 72, 0
2, 310784, Note_on_c, 0, 70, 47
2, 311296, Note_on_c, 0, 70, 0
2, 311296, Note_on_c, 0, 72, 47
2, 312320, Note_on_c, 0, 72, 0
2, 312320, Note_on_c, 0, 72, 47
2, 314368, Note_on_c, 0, 72, 0
2, 314368, Note_on_c, 0, 70, 47
2, 314880, Note_on_c, 0, 70, 0
2, 314880, Note_on_c, 0, 69, 47
2, 315392, Note_on_c, 0, 69, 0
2, 315392, Note_on_c, 0, 70, 47
2, 316416, Note_on_c, 0, 70, 0
2, 316416, Note_on_c, 0, 74, 47
2, 316928, Note_on_c, 0, 74, 0
2, 316928, Note_on_c, 0, 72, 47
2, 317440, Note_on_c, 0, 72, 0
2, 317440, Note_on_c, 0, 74, 47
2, 318464, Note_on_c, 0, 74, 0
2, 318464, Note_on_c, 0, 74, 47
2, 320512, Note_on_c, 0, 74, 0
2, 320512, Note_on_c, 0, 72, 47
2, 321024, Note_on_c, 0, 72, 0
2, 321024, Note_on_c, 0, 70, 47
2, 321536, Note_on_c, 0, 70, 0
2, 321536, Note_on_c, 0, 72, 47
2, 322560, Note_on_c, 0, 72, 0
2, 322560, Note_on_c, 0, 75, 47
2, 323072, Note_on_c, 0, 75, 0
2, 323072, Note_on_c, 0, 74, 47
2, 323584, Note_on_c, 0, 74, 0
2, 323584, Note_on_c, 0, 75, 47
2, 324608, Note_on_c, 0, 75, 0
2, 324608, Note_on_c, 0, 74, 47
2, 325120, Note_on_c, 0, 74, 0
2, 325120, Note_on_c, 0, 72, 47
2, 325632, Note_on_c, 0, 72, 0
2, 325632, Note_on_c, 0, 74, 47
2, 327168, Note_on_c, 0, 74, 0
2, 327168, Note_on_c, 0, 75, 47
2, 327680, Note_on_c, 0, 75, 0
2, 327680, Note_on_c, 0, 70, 47
2, 329728, Note_on_c, 0, 70, 0
2, 329728, Note_on_c, 0, 70, 47
2, 329856, Note_on_c, 0, 70, 0
2, 329856, Note_on_c, 0, 69, 47
2, 329984, Note_on_c, 0, 69, 0
2, 329984, Note_on_c, 0, 70, 47
2, 330112, Note_on_c, 0, 70, 0
2, 330112, Note_on_c, 0, 69, 47
2, 330240, Note_on_c, 0, 69, 0
2, 330240, Note_on_c, 0, 67, 47
2, 330752, Note_on_c, 0, 67, 0
2, 330752, Note_on_c, 0, 69, 47
2, 331776, Control_c, 0, 7, 90
2, 331776, Note_on_c, 0, 69, 0
2, 331776, Note_on_c, 0, 67, 17
2, 337920, Note_on_c, 0, 67, 0
2, 337920, Note_on_c, 0, 72, 17
2, 344064, Note_on_c, 0, 72, 0
2, 344064, Note_on_c, 0, 66, 17
2, 351232, Note_on_c, 0, 66, 0
2, 351232, Note_on_c, 0, 62, 47
2, 351385, Control_c, 0, 7, 126
2, 352256, Note_on_c, 0, 62, 0
2, 352256, Note_on_c, 0, 64, 47
2, 353280, Note_on_c, 0, 64, 0
2, 353280, Note_on_c, 0, 67, 47
2, 353792, Note_on_c, 0, 67, 0
2, 353792, Note_on_c, 0, 66, 47
2, 354304, Note_on_c, 0, 66, 0
2, 354304, Note_on_c, 0, 67, 47
2, 355328, Note_on_c, 0, 67, 0
2, 355328, Note_on_c, 0, 67, 47
2, 356864, Note_on_c, 0, 67, 0
2, 356864, Note_on_c, 0, 70, 47
2, 357376, Note_on_c, 0, 70, 0
2, 357376, Note_on_c, 0, 69, 47
2, 357888, Note_on_c, 0, 69, 0
2, 357888, Note_on_c, 0, 67, 47
2, 358400, Note_on_c, 0, 67, 0
2, 358400, Note_on_c, 0, 67, 47
2, 358656, Note_on_c, 0, 67, 0
2, 358656, Note_on_c, 0, 66, 47
2, 358912, Note_on_c, 0, 66, 0
2, 358912, Note_on_c, 0, 67, 47
2, 359040, Note_on_c, 0, 67, 0
2, 359040, Note_on_c, 0, 66, 47
2, 359168, Note_on_c, 0, 66, 0
2, 359168, Note_on_c, 0, 67, 47
2, 359296, Note_on_c, 0, 67, 0
2, 359296, Note_on_c, 0, 66, 47
2, 359424, Note_on_c, 0, 66, 0
2, 359424, Note_on_c, 0, 67, 47
2, 359552, Note_on_c, 0, 67, 0
2, 359552, Note_on_c, 0, 66, 47
2, 359680, Note_on_c, 0, 66, 0
2, 359680, Note_on_c, 0, 67, 47
2, 359808, Note_on_c, 0, 67, 0
2, 359808, Note_on_c, 0, 66, 47
2, 359936, Note_on_c, 0, 66, 0
2, 359936, Note_on_c, 0, 67, 47
2, 360064, Note_on_c, 0, 67, 0
2, 360064, Note_on_c, 0, 66, 47
2, 360192, Note_on_c, 0, 66, 0
2, 360192, Note_on_c, 0, 67, 47
2, 360320, Note_on_c, 0, 67, 0
2, 360320, Note_on_c, 0, 66, 47
2, 360448, Note_on_c, 0, 66, 0
2, 360448, Note_on_c, 0, 67, 47
2, 360576, Note_on_c, 0, 67, 0
2, 360576, Note_on_c, 0, 66, 47
2, 360704, Note_on_c, 0, 66, 0
2, 360704, Note_on_c, 0, 67, 47
2, 360832, Note_on_c, 0, 67, 0
2, 360832, Note_on_c, 0, 66, 47
2, 360960, Note_on_c, 0, 66, 0
2, 360960, Note_on_c, 0, 67, 47
2, 361088, Note_on_c, 0, 67, 0
2, 361088, Note_on_c, 0, 66, 47
2, 361216, Note_on_c, 0, 66, 0
2, 361216, Note_on_c, 0, 64, 47
2, 361344, Note_on_c, 0, 64, 0
2, 361344, Note_on_c, 0, 66, 47
2, 361472, Note_on_c, 0, 66, 0
2, 361472, Note_on_c, 0, 67, 47
2, 362496, Note_on_c, 0, 67, 0
2, 362496, Note_on_c, 0, 67, 42
2, 363520, Note_on_c, 0, 67, 0
2, 363520, Note_on_c, 0, 70, 40
2, 364544, Note_on_c, 0, 70, 0
2, 364544, Note_on_c, 0, 72, 39
2, 365568, Note_on_c, 0, 72, 0
2, 365568, Note_on_c, 0, 75, 37
2, 366080, Note_on_c, 0, 75, 0
2, 366080, Note_on_c, 0, 74, 36
2, 366592, Note_on_c, 0, 74, 0
2, 366592, Note_on_c, 0, 75, 35
2, 368726, Control_c, 0, 7, 127
2, 369134, Control_c, 0, 7, 126
2, 369542, Control_c, 0, 7, 125
2, 369664, Note_on_c, 0, 75, 0
2, 369664, Note_on_c, 0, 69, 31
2, 369848, Control_c, 0, 7, 124
2, 370256, Control_c, 0, 7, 123
2, 370664, Control_c, 0, 7, 122
2, 370688, Note_on_c, 0, 69, 0
2, 370688, Note_on_c, 0, 70, 30
2, 370970, Control_c, 0, 7, 121
2, 371378, Control_c, 0, 7, 120
2, 371712, Note_on_c, 0, 70, 0
2, 371712, Note_on_c, 0, 74, 29
2, 371786, Control_c, 0, 7, 119
2, 372092, Control_c, 0, 7, 118
2, 372224, Note_on_c, 0, 74, 0
2, 372224, Note_on_c, 0, 72, 29
2, 372500, Control_c, 0, 7, 117
2, 372736, Note_on_c, 0, 72, 0
2, 372736, Note_on_c, 0, 74, 29
2, 372908, Control_c, 0, 7, 116
2, 373214, Control_c, 0, 7, 115
2, 373622, Control_c, 0, 7, 114
2, 374030, Control_c, 0, 7, 113
2, 374336, Control_c, 0, 7, 112
2, 374784, Control_c, 0, 7, 110
2, 374806, Control_c, 0, 7, 112
2, 375296, Note_on_c, 0, 74, 0
2, 375296, Note_on_c, 0, 75, 27
2, 375316, Control_c, 0, 7, 111
2, 375724, Control_c, 0, 7, 110
2, 375808, Note_on_c, 0, 75, 0
2, 375808, Note_on_c, 0, 74, 26
2, 376234, Control_c, 0, 7, 109
2, 376320, Note_on_c, 0, 74, 0
2, 376320, Note_on_c, 0, 72, 26
2, 376642, Control_c, 0, 7, 108
2, 376832, Note_on_c, 0, 72, 0
2, 376832, Note_on_c, 0, 70, 25
2, 377050, Control_c, 0, 7, 107
2, 377344, Note_on_c, 0, 70, 0
2, 377344, Note_on_c, 0, 69, 25
2, 377560, Control_c, 0, 7, 106
2, 377856, Note_on_c, 0, 69, 0
2, 377856, Note_on_c, 0, 67, 24
2, 377968, Control_c, 0, 7, 105
2, 378368, Note_on_c, 0, 67, 0
2, 378368, Note_on_c, 0, 66, 24
2, 378376, Control_c, 0, 7, 104
2, 378880, Note_on_c, 0, 66, 0
2, 378880, Note_on_c, 0, 67, 24
2, 378886, Control_c, 0, 7, 103
2, 379294, Control_c, 0, 7, 102
2, 379392, Note_on_c, 0, 67, 0
2, 379392, Note_on_c, 0, 69, 23
2, 379648, Note_on_c, 0, 69, 0
2, 379648, Note_on_c, 0, 70, 23
2, 379702, Control_c, 0, 7, 101
2, 379904, Note_on_c, 0, 70, 0
2, 379904, Note_on_c, 0, 69, 23
2, 380212, Control_c, 0, 7, 100
2, 380416, Note_on_c, 0, 69, 0
2, 380416, Note_on_c, 0, 70, 22
2, 380620, Control_c, 0, 7, 99
2, 380672, Note_on_c, 0, 70, 0
2, 380672, Note_on_c, 0, 72, 22
2, 380928, Note_on_c, 0, 72, 0
2, 380928, Note_on_c, 0, 67, 22
2, 381028, Control_c, 0, 7, 98
2, 381440, Note_on_c, 0, 67, 0
2, 381440, Note_on_c, 0, 66, 22
2, 381538, Control_c, 0, 7, 97
2, 381946, Control_c, 0, 7, 96
2, 381952, Note_on_c, 0, 66, 0
2, 381952, Note_on_c, 0, 67, 22
2, 382208, Note_on_c, 0, 67, 0
2, 382208, Note_on_c, 0, 66, 22
2, 382354, Control_c, 0, 7, 95
2, 382464, Note_on_c, 0, 66, 0
2, 382464, Note_on_c, 0, 67, 22
2, 382592, Note_on_c, 0, 67, 0
2, 382592, Note_on_c, 0, 66, 22
2, 382720, Note_on_c, 0, 66, 0
2, 382720, Note_on_c, 0, 67, 22
2, 382848, Note_on_c, 0, 67, 0
2, 382848, Note_on_c, 0, 66, 22
2, 382864, Control_c, 0, 7, 94
2, 382976, Note_on_c, 0, 66, 0
2, 382976, Note_on_c, 0, 67, 22
2, 383104, Note_on_c, 0, 67, 0
2, 383104, Note_on_c, 0, 66, 22
2, 383232, Note_on_c, 0, 66, 0
2, 383232, Note_on_c, 0, 67, 22
2, 383272, Control_c, 0, 7, 93
2, 383360, Note_on_c, 0, 67, 0
2, 383360, Note_on_c, 0, 66, 22
2, 383488, Note_on_c, 0, 66, 0
2, 383488, Note_on_c, 0, 67, 22
2, 383616, Note_on_c, 0, 67, 0
2, 383616, Note_on_c, 0, 66, 22
2, 383680, Control_c, 0, 7, 92
2, 383744, Note_on_c, 0, 66, 0
2, 383744, Note_on_c, 0, 67, 22
2, 383872, Note_on_c, 0, 67, 0
2, 383872, Note_on_c, 0, 66, 22
2, 384000, Note_on_c, 0, 66, 0
2, 384000, Note_on_c, 0, 67, 22
2, 384128, Note_on_c, 0, 67, 0
2, 384128, Note_on_c, 0, 66, 22
2, 384190, Control_c, 0, 7, 91
2, 384256, Note_on_c, 0, 66, 0
2, 384256, Note_on_c, 0, 67, 22
2, 384384, Note_on_c, 0, 67, 0
2, 384384, Note_on_c, 0, 66, 22
2, 384512, Note_on_c, 0, 66, 0
2, 384512, Note_on_c, 0, 67, 22
2, 384598, Control_c, 0, 7, 90
2, 384640, Note_on_c, 0, 67, 0
2, 384640, Note_on_c, 0, 66, 22
2, 384768, Note_on_c, 0, 66, 0
2, 384768, Note_on_c, 0, 67, 22
2, 384896, Note_on_c, 0, 67, 0
2, 384896, Note_on_c, 0, 66, 22
2, 385006, Control_c, 0, 7, 89
2, 385024, Note_on_c, 0, 66, 0
2, 385024, Note_on_c, 0, 67, 22
2, 385126, Note_on_c, 0, 67, 0
2, 385126, Note_on_c, 0, 66, 22
2, 385228, Note_on_c, 0, 66, 0
2, 385228, Note_on_c, 0, 67, 22
2, 385331, Note_on_c, 0, 67, 0
2, 385331, Note_on_c, 0, 66, 22
2, 385433, Note_on_c, 0, 66, 0
2, 385433, Note_on_c, 0, 67, 22
2, 385516, Control_c, 0, 7, 88
2, 385536, Note_on_c, 0, 67, 0
2, 385536, Note_on_c, 0, 66, 22
2, 385924, Control_c, 0, 7, 87
2, 386048, Note_on_c, 0, 66, 0
2, 386048, Note_on_c, 0, 64, 22
2, 386326, Control_c, 0, 7, 86
2, 386530, Control_c, 0, 7, 85
2, 386560, Note_on_c, 0, 64, 0
2, 386560, Note_on_c, 0, 66, 22
2, 386632, Control_c, 0, 7, 84
2, 386734, Control_c, 0, 7, 83
2, 386836, Control_c, 0, 7, 82
2, 386938, Control_c, 0, 7, 81
2, 387040, Control_c, 0, 7, 80
2, 387142, Control_c, 0, 7, 79
2, 387244, Control_c, 0, 7, 78
2, 387346, Control_c, 0, 7, 77
2, 387448, Control_c, 0, 7, 76
2, 387550, Control_c, 0, 7, 75
2, 387652, Control_c, 0, 7, 74
2, 387754, Control_c, 0, 7, 73
2, 387856, Control_c, 0, 7, 72
2, 387958, Control_c, 0, 7, 71
2, 388060, Control_c, 0, 7, 70
2, 388264, Control_c, 0, 7, 69
2, 388366, Control_c, 0, 7, 68
2, 388468, Control_c, 0, 7, 67
2, 388570, Control_c, 0, 7, 66
2, 388672, Control_c, 0, 7, 65
2, 388774, Control_c, 0, 7, 64
2, 388876, Control_c, 0, 7, 63
2, 388978, Control_c, 0, 7, 62
2, 389080, Control_c, 0, 7, 61
2, 389182, Control_c, 0, 7, 60
2, 389284, Control_c, 0, 7, 59
2, 389386, Control_c, 0, 7, 58
2, 389488, Control_c, 0, 7, 57
2, 389590, Control_c, 0, 7, 56
2, 389692, Control_c, 0, 7, 55
2, 389794, Control_c, 0, 7, 54
2, 389998, Control_c, 0, 7, 53
2, 390100, Control_c, 0, 7, 52
2, 390202, Control_c, 0, 7, 51
2, 390304, Control_c, 0, 7, 50
2, 390406, Control_c, 0, 7, 49
2, 390508, Control_c, 0, 7, 48
2, 390610, Control_c, 0, 7, 47
2, 390712, Control_c, 0, 7, 46
2, 390814, Control_c, 0, 7, 45
2, 390916, Control_c, 0, 7, 44
2, 391018, Control_c, 0, 7, 43
2, 391120, Control_c, 0, 7, 42
2, 391222, Control_c, 0, 7, 41
2, 391324, Control_c, 0, 7, 40
2, 391426, Control_c, 0, 7, 39
2, 391528, Control_c, 0, 7, 38
2, 391732, Control_c, 0, 7, 37
2, 391834, Control_c, 0, 7, 36
2, 391936, Control_c, 0, 7, 35
2, 392192, Note_on_c, 0, 66, 0
2, 392342, Control_c, 0, 7, 36
2, 397312, Control_c, 0, 121, 127
2, 397312, End_track
3, 0, Start_track
3, 0, Program_c, 1, 41
3, 0, Control_c, 1, 121, 127
3, 0, Control_c, 1, 91, 127
3, 0, Control_c, 1, 1, 10
3, 0, Control_c, 1, 10, 80
3, 0, Title_t, "Viola II da braccio"
3, 8192, Note_on_c, 1, 70, 47
3, 10240, Note_on_c, 1, 70, 0
3, 10240, Note_on_c, 1, 72, 47
3, 12288, Note_on_c, 1, 72, 0
3, 12288, Note_on_c, 1, 63, 47
3, 12544, Note_on_c, 1, 63, 0
3, 12544, Note_on_c, 1, 62, 47
3, 12800, Note_on_c, 1, 62, 0
3, 12800, Note_on_c, 1, 63, 47
3, 12928, Note_on_c, 1, 63, 0
3, 12928, Note_on_c, 1, 62, 47
3, 13056, Note_on_c, 1, 62, 0
3, 13056, Note_on_c, 1, 63, 47
3, 13184, Note_on_c, 1, 63, 0
3, 13184, Note_on_c, 1, 62, 47
3, 13312, Note_on_c, 1, 62, 0
3, 13312, Note_on_c, 1, 63, 47
3, 13440, Note_on_c, 1, 63, 0
3, 13440, Note_on_c, 1, 62, 47
3, 13568, Note_on_c, 1, 62, 0
3, 13568, Note_on_c, 1, 63, 47
3, 13696, Note_on_c, 1, 63, 0
3, 13696, Note_on_c, 1, 62, 47
3, 13824, Note_on_c, 1, 62, 0
3, 13824, Note_on_c, 1, 63, 47
3, 13952, Note_on_c, 1, 63, 0
3, 13952, Note_on_c, 1, 62, 47
3, 14080, Note_on_c, 1, 62, 0
3, 14080, Note_on_c, 1, 63, 47
3, 14208, Note_on_c, 1, 63, 0
3, 14208, Note_on_c, 1, 62, 47
3, 14336, Note_on_c, 1, 62, 0
3, 14336, Note_on_c, 1, 63, 47
3, 14464, Note_on_c, 1, 63, 0
3, 14464, Note_on_c, 1, 62, 47
3, 14592, Note_on_c, 1, 62, 0
3, 14592, Note_on_c, 1, 63, 47
3, 14720, Note_on_c, 1, 63, 0
3, 14720, Note_on_c, 1, 62, 47
3, 14848, Note_on_c, 1, 62, 0
3, 14848, Note_on_c, 1, 63, 47
3, 14976, Note_on_c, 1, 63, 0
3, 14976, Note_on_c, 1, 62, 47
3, 15104, Note_on_c, 1, 62, 0
3, 15104, Note_on_c, 1, 63, 47
3, 15232, Note_on_c, 1, 63, 0
3, 15232, Note_on_c, 1, 62, 47
3, 15360, Note_on_c, 1, 62, 0
3, 15360, Note_on_c, 1, 63, 47
3, 15488, Note_on_c, 1, 63, 0
3, 15488, Note_on_c, 1, 62, 47
3, 15616, Note_on_c, 1, 62, 0
3, 15616, Note_on_c, 1, 63, 47
3, 15744, Note_on_c, 1, 63, 0
3, 15744, Note_on_c, 1, 62, 47
3, 15872, Note_on_c, 1, 62, 0
3, 15872, Note_on_c, 1, 63, 47
3, 16000, Note_on_c, 1, 63, 0
3, 16000, Note_on_c, 1, 62, 47
3, 16128, Note_on_c, 1, 62, 0
3, 16128, Note_on_c, 1, 60, 47
3, 16256, Note_on_c, 1, 60, 0
3, 16256, Note_on_c, 1, 62, 47
3, 16384, Note_on_c, 1, 62, 0
3, 16384, Note_on_c, 1, 63, 47
3, 18432, Note_on_c, 1, 63, 0
3, 19456, Note_on_c, 1, 63, 47
3, 20480, Note_on_c, 1, 63, 0
3, 20480, Note_on_c, 1, 65, 47
3, 21504, Note_on_c, 1, 65, 0
3, 21504, Note_on_c, 1, 68, 47
3, 22016, Note_on_c, 1, 68, 0
3, 22016, Note_on_c, 1, 67, 47
3, 22528, Note_on_c, 1, 67, 0
3, 22528, Note_on_c, 1, 68, 47
3, 23552, Note_on_c, 1, 68, 0
3, 23552, Note_on_c, 1, 68, 47
3, 25600, Note_on_c, 1, 68, 0
3, 25600, Note_on_c, 1, 67, 47
3, 26112, Note_on_c, 1, 67, 0
3, 26112, Note_on_c, 1, 65, 47
3, 26624, Note_on_c, 1, 65, 0
3, 26624, Note_on_c, 1, 67, 47
3, 27136, Note_on_c, 1, 67, 0
3, 27136, Note_on_c, 1, 69, 47
3, 27648, Note_on_c, 1, 69, 0
3, 27648, Note_on_c, 1, 67, 47
3, 28160, Note_on_c, 1, 67, 0
3, 28160, Note_on_c, 1, 69, 47
3, 28672, Note_on_c, 1, 69, 0
3, 28672, Note_on_c, 1, 70, 47
3, 28928, Note_on_c, 1, 70, 0
3, 28928, Note_on_c, 1, 69, 47
3, 29184, Note_on_c, 1, 69, 0
3, 29184, Note_on_c, 1, 70, 47
3, 29312, Note_on_c, 1, 70, 0
3, 29312, Note_on_c, 1, 69, 47
3, 29440, Note_on_c, 1, 69, 0
3, 29440, Note_on_c, 1, 70, 47
3, 29568, Note_on_c, 1, 70, 0
3, 29568, Note_on_c, 1, 69, 47
3, 29696, Note_on_c, 1, 69, 0
3, 29696, Note_on_c, 1, 70, 47
3, 29824, Note_on_c, 1, 70, 0
3, 29824, Note_on_c, 1, 69, 47
3, 29952, Note_on_c, 1, 69, 0
3, 29952, Note_on_c, 1, 70, 47
3, 30080, Note_on_c, 1, 70, 0
3, 30080, Note_on_c, 1, 69, 47
3, 30208, Note_on_c, 1, 69, 0
3, 30208, Note_on_c, 1, 70, 47
3, 30720, Note_on_c, 1, 70, 0
3, 30720, Note_on_c, 1, 70, 47
3, 31232, Note_on_c, 1, 70, 0
3, 31232, Note_on_c, 1, 65, 45
3, 31744, Note_on_c, 1, 65, 0
3, 31744, Note_on_c, 1, 74, 43
3, 32256, Note_on_c, 1, 74, 0
3, 32256, Note_on_c, 1, 72, 41
3, 32768, Note_on_c, 1, 72, 0
3, 32768, Note_on_c, 1, 70, 39
3, 33280, Note_on_c, 1, 70, 0
3, 33280, Note_on_c, 1, 68, 37
3, 33792, Note_on_c, 1, 68, 0
3, 33792, Note_on_c, 1, 67, 35
3, 34304, Note_on_c, 1, 67, 0
3, 34304, Note_on_c, 1, 65, 33
3, 34816, Note_on_c, 1, 65, 0
3, 34816, Note_on_c, 1, 63, 31
3, 35328, Note_on_c, 1, 63, 0
3, 35328, Note_on_c, 1, 62, 29
3, 35840, Note_on_c, 1, 62, 0
3, 35840, Note_on_c, 1, 63, 27
3, 37376, Note_on_c, 1, 63, 0
3, 37376, Note_on_c, 1, 67, 27
3, 37888, Note_on_c, 1, 67, 0
3, 37888, Note_on_c, 1, 72, 27
3, 38400, Note_on_c, 1, 72, 0
3, 38400, Note_on_c, 1, 70, 27
3, 38912, Note_on_c, 1, 70, 0
3, 38912, Note_on_c, 1, 69, 27
3, 39424, Note_on_c, 1, 69, 0
3, 39424, Note_on_c, 1, 67, 27
3, 39936, Note_on_c, 1, 67, 0
3, 39936, Note_on_c, 1, 65, 27
3, 40448, Note_on_c, 1, 65, 0
3, 40448, Note_on_c, 1, 63, 27
3, 40960, Note_on_c, 1, 63, 0
3, 40960, Note_on_c, 1, 62, 27
3, 41472, Note_on_c, 1, 62, 0
3, 41472, Note_on_c, 1, 60, 27
3, 41984, Note_on_c, 1, 60, 0
3, 41984, Note_on_c, 1, 62, 27
3, 43520, Note_on_c, 1, 62, 0
3, 43520, Note_on_c, 1, 65, 27
3, 44032, Note_on_c, 1, 65, 0
3, 44032, Note_on_c, 1, 70, 27
3, 44544, Note_on_c, 1, 70, 0
3, 44544, Note_on_c, 1, 69, 27
3, 45056, Note_on_c, 1, 69, 0
3, 45056, Note_on_c, 1, 67, 27
3, 45568, Note_on_c, 1, 67, 0
3, 45568, Note_on_c, 1, 65, 27
3, 46080, Note_on_c, 1, 65, 0
3, 46080, Note_on_c, 1, 63, 27
3, 46592, Note_on_c, 1, 63, 0
3, 46592, Note_on_c, 1, 65, 27
3, 46848, Note_on_c, 1, 65, 0
3, 46848, Note_on_c, 1, 67, 27
3, 47104, Note_on_c, 1, 67, 0
3, 47104, Note_on_c, 1, 60, 27
3, 47616, Note_on_c, 1, 60, 0
3, 47616, Note_on_c, 1, 63, 27
3, 48128, Note_on_c, 1, 63, 0
3, 48128, Note_on_c, 1, 70, 27
3, 48640, Note_on_c, 1, 70, 0
3, 48640, Note_on_c, 1, 69, 27
3, 49152, Note_on_c, 1, 69, 0
3, 49152, Note_on_c, 1, 70, 27
3, 61952, Note_on_c, 1, 70, 0
3, 61952, Note_on_c, 1, 74, 29
3, 62464, Note_on_c, 1, 74, 0
3, 62464, Note_on_c, 1, 72, 30
3, 62976, Note_on_c, 1, 72, 0
3, 62976, Note_on_c, 1, 70, 32
3, 63488, Note_on_c, 1, 70, 0
3, 63488, Note_on_c, 1, 70, 34
3, 65536, Note_on_c, 1, 70, 0
3, 65536, Note_on_c, 1, 70, 40
3, 65792, Note_on_c, 1, 70, 0
3, 65792, Note_on_c, 1, 69, 41
3, 66048, Note_on_c, 1, 69, 0
3, 66048, Note_on_c, 1, 70, 42
3, 66176, Note_on_c, 1, 70, 0
3, 66176, Note_on_c, 1, 69, 42
3, 66304, Note_on_c, 1, 69, 0
3, 66304, Note_on_c, 1, 70, 43
3, 66432, Note_on_c, 1, 70, 0
3, 66432, Note_on_c, 1, 69, 43
3, 66560, Note_on_c, 1, 69, 0
3, 66560, Note_on_c, 1, 70, 44
3, 66688, Note_on_c, 1, 70, 0
3, 66688, Note_on_c, 1, 69, 44
3, 66816, Note_on_c, 1, 69, 0
3, 66816, Note_on_c, 1, 70, 45
3, 66944, Note_on_c, 1, 70, 0
3, 66944, Note_on_c, 1, 69, 45
3, 67072, Note_on_c, 1, 69, 0
3, 67072, Note_on_c, 1, 70, 45
3, 67584, Note_on_c, 1, 70, 0
3, 67584, Note_on_c, 1, 70, 47
3, 69632, Note_on_c, 1, 70, 0
3, 69632, Note_on_c, 1, 65, 47
3, 71680, Note_on_c, 1, 65, 0
3, 71680, Note_on_c, 1, 67, 47
3, 73728, Note_on_c, 1, 67, 0
3, 73728, Note_on_c, 1, 58, 47
3, 73984, Note_on_c, 1, 58, 0
3, 73984, Note_on_c, 1, 57, 47
3, 74240, Note_on_c, 1, 57, 0
3, 74240, Note_on_c, 1, 58, 47
3, 74368, Note_on_c, 1, 58, 0
3, 74368, Note_on_c, 1, 57, 47
3, 74496, Note_on_c, 1, 57, 0
3, 74496, Note_on_c, 1, 58, 47
3, 74624, Note_on_c, 1, 58, 0
3, 74624, Note_on_c, 1, 57, 47
3, 74752, Note_on_c, 1, 57, 0
3, 74752, Note_on_c, 1, 58, 47
3, 74880, Note_on_c, 1, 58, 0
3, 74880, Note_on_c, 1, 57, 47
3, 75008, Note_on_c, 1, 57, 0
3, 75008, Note_on_c, 1, 58, 47
3, 75136, Note_on_c, 1, 58, 0
3, 75136, Note_on_c, 1, 57, 47
3, 75264, Note_on_c, 1, 57, 0
3, 75264, Note_on_c, 1, 58, 47
3, 75392, Note_on_c, 1, 58, 0
3, 75392, Note_on_c, 1, 57, 47
3, 75520, Note_on_c, 1, 57, 0
3, 75520, Note_on_c, 1, 58, 47
3, 75648, Note_on_c, 1, 58, 0
3, 75648, Note_on_c, 1, 57, 47
3, 75776, Note_on_c, 1, 57, 0
3, 75776, Note_on_c, 1, 58, 47
3, 75904, Note_on_c, 1, 58, 0
3, 75904, Note_on_c, 1, 57, 47
3, 76032, Note_on_c, 1, 57, 0
3, 76032, Note_on_c, 1, 58, 47
3, 76160, Note_on_c, 1, 58, 0
3, 76160, Note_on_c, 1, 57, 47
3, 76288, Note_on_c, 1, 57, 0
3, 76288, Note_on_c, 1, 58, 47
3, 76416, Note_on_c, 1, 58, 0
3, 76416, Note_on_c, 1, 57, 47
3, 76544, Note_on_c, 1, 57, 0
3, 76544, Note_on_c, 1, 58, 47
3, 76672, Note_on_c, 1, 58, 0
3, 76672, Note_on_c, 1, 57, 47
3, 76800, Note_on_c, 1, 57, 0
3, 76800, Note_on_c, 1, 58, 47
3, 76928, Note_on_c, 1, 58, 0
3, 76928, Note_on_c, 1, 57, 47
3, 77056, Note_on_c, 1, 57, 0
3, 77056, Note_on_c, 1, 58, 47
3, 77184, Note_on_c, 1, 58, 0
3, 77184, Note_on_c, 1, 57, 47
3, 77312, Note_on_c, 1, 57, 0
3, 77312, Note_on_c, 1, 58, 47
3, 77440, Note_on_c, 1, 58, 0
3, 77440, Note_on_c, 1, 57, 47
3, 77568, Note_on_c, 1, 57, 0
3, 77568, Note_on_c, 1, 55, 47
3, 77696, Note_on_c, 1, 55, 0
3, 77696, Note_on_c, 1, 57, 47
3, 77824, Note_on_c, 1, 57, 0
3, 77824, Note_on_c, 1, 58, 47
3, 79872, Note_on_c, 1, 58, 0
3, 80896, Note_on_c, 1, 58, 47
3, 81920, Note_on_c, 1, 58, 0
3, 81920, Note_on_c, 1, 60, 47
3, 82944, Note_on_c, 1, 60, 0
3, 82944, Note_on_c, 1, 63, 47
3, 83456, Note_on_c, 1, 63, 0
3, 83456, Note_on_c, 1, 62, 47
3, 83968, Note_on_c, 1, 62, 0
3, 83968, Note_on_c, 1, 63, 47
3, 84992, Note_on_c, 1, 63, 0
3, 84992, Note_on_c, 1, 63, 47
3, 86528, Note_on_c, 1, 63, 0
3, 86528, Note_on_c, 1, 62, 45
3, 87040, Note_on_c, 1, 62, 0
3, 87040, Note_on_c, 1, 60, 44
3, 87552, Note_on_c, 1, 60, 0
3, 87552, Note_on_c, 1, 62, 42
3, 88064, Note_on_c, 1, 62, 0
3, 88064, Note_on_c, 1, 63, 40
3, 88576, Note_on_c, 1, 63, 0
3, 88576, Note_on_c, 1, 61, 39
3, 89088, Note_on_c, 1, 61, 0
3, 89088, Note_on_c, 1, 60, 37
3, 89600, Note_on_c, 1, 60, 0
3, 89600, Note_on_c, 1, 58, 35
3, 90112, Note_on_c, 1, 58, 0
3, 90112, Note_on_c, 1, 56, 34
3, 90624, Note_on_c, 1, 56, 0
3, 90624, Note_on_c, 1, 55, 32
3, 91136, Note_on_c, 1, 55, 0
3, 91136, Note_on_c, 1, 56, 30
3, 92672, Note_on_c, 1, 56, 0
3, 92672, Note_on_c, 1, 60, 27
3, 93184, Note_on_c, 1, 60, 0
3, 93184, Note_on_c, 1, 65, 27
3, 93696, Note_on_c, 1, 65, 0
3, 93696, Note_on_c, 1, 63, 27
3, 94208, Note_on_c, 1, 63, 0
3, 94208, Note_on_c, 1, 62, 27
3, 94720, Note_on_c, 1, 62, 0
3, 94720, Note_on_c, 1, 60, 27
3, 95232, Note_on_c, 1, 60, 0
3, 95232, Note_on_c, 1, 58, 27
3, 95744, Note_on_c, 1, 58, 0
3, 95744, Note_on_c, 1, 56, 27
3, 96256, Note_on_c, 1, 56, 0
3, 96256, Note_on_c, 1, 55, 27
3, 96768, Note_on_c, 1, 55, 0
3, 96768, Note_on_c, 1, 53, 27
3, 97280, Note_on_c, 1, 53, 0
3, 97280, Note_on_c, 1, 55, 27
3, 98816, Note_on_c, 1, 55, 0
3, 98816, Note_on_c, 1, 70, 27
3, 99328, Note_on_c, 1, 70, 0
3, 99328, Note_on_c, 1, 75, 27
3, 99840, Note_on_c, 1, 75, 0
3, 99840, Note_on_c, 1, 74, 27
3, 100352, Note_on_c, 1, 74, 0
3, 100352, Note_on_c, 1, 72, 27
3, 100864, Note_on_c, 1, 72, 0
3, 100864, Note_on_c, 1, 70, 27
3, 101376, Note_on_c, 1, 70, 0
3, 101376, Note_on_c, 1, 68, 27
3, 101888, Note_on_c, 1, 68, 0
3, 101888, Note_on_c, 1, 70, 27
3, 102144, Note_on_c, 1, 70, 0
3, 102144, Note_on_c, 1, 72, 27
3, 102400, Note_on_c, 1, 72, 0
3, 102400, Note_on_c, 1, 65, 27
3, 102912, Note_on_c, 1, 65, 0
3, 102912, Note_on_c, 1, 68, 27
3, 103424, Note_on_c, 1, 68, 0
3, 103424, Note_on_c, 1, 75, 27
3, 103936, Note_on_c, 1, 75, 0
3, 103936, Note_on_c, 1, 74, 27
3, 104448, Note_on_c, 1, 74, 0
3, 104448, Note_on_c, 1, 75, 27
3, 117248, Note_on_c, 1, 75, 0
3, 117248, Note_on_c, 1, 79, 27
3, 117760, Note_on_c, 1, 79, 0
3, 117760, Note_on_c, 1, 77, 27
3, 118272, Note_on_c, 1, 77, 0
3, 118272, Note_on_c, 1, 75, 27
3, 118784, Note_on_c, 1, 75, 0
3, 118784, Note_on_c, 1, 75, 27
3, 120832, Note_on_c, 1, 75, 0
3, 120832, Note_on_c, 1, 75, 27
3, 121088, Note_on_c, 1, 75, 0
3, 121088, Note_on_c, 1, 74, 27
3, 121344, Note_on_c, 1, 74, 0
3, 121344, Note_on_c, 1, 75, 27
3, 121472, Note_on_c, 1, 75, 0
3, 121472, Note_on_c, 1, 74, 27
3, 121600, Note_on_c, 1, 74, 0
3, 121600, Note_on_c, 1, 75, 27
3, 121728, Note_on_c, 1, 75, 0
3, 121728, Note_on_c, 1, 74, 27
3, 121856, Note_on_c, 1, 74, 0
3, 121856, Note_on_c, 1, 75, 27
3, 121984, Note_on_c, 1, 75, 0
3, 121984, Note_on_c, 1, 74, 27
3, 122112, Note_on_c, 1, 74, 0
3, 122112, Note_on_c, 1, 75, 27
3, 122240, Note_on_c, 1, 75, 0
3, 122240, Note_on_c, 1, 74, 27
3, 122368, Note_on_c, 1, 74, 0
3, 122368, Note_on_c, 1, 75, 27
3, 122880, Control_c, 1, 7, 127
3, 122880, Note_on_c, 1, 75, 0
3, 122880, Note_on_c, 1, 75, 27
3, 123011, Control_c, 1, 7, 126
3, 123141, Control_c, 1, 7, 125
3, 123272, Control_c, 1, 7, 124
3, 123403, Control_c, 1, 7, 123
3, 123534, Control_c, 1, 7, 122
3, 123664, Control_c, 1, 7, 121
3, 123795, Control_c, 1, 7, 120
3, 123926, Control_c, 1, 7, 119
3, 124057, Control_c, 1, 7, 118
3, 124187, Control_c, 1, 7, 117
3, 124318, Control_c, 1, 7, 116
3, 124449, Control_c, 1, 7, 115
3, 124579, Control_c, 1, 7, 114
3, 124710, Control_c, 1, 7, 113
3, 124841, Control_c, 1, 7, 112
3, 124972, Control_c, 1, 7, 111
3, 125102, Control_c, 1, 7, 110
3, 125233, Control_c, 1, 7, 109
3, 125364, Control_c, 1, 7, 108
3, 125494, Control_c, 1, 7, 107
3, 125625, Control_c, 1, 7, 106
3, 125756, Control_c, 1, 7, 105
3, 125887, Control_c, 1, 7, 104
3, 126017, Control_c, 1, 7, 103
3, 126148, Control_c, 1, 7, 102
3, 126279, Control_c, 1, 7, 101
3, 126410, Control_c, 1, 7, 100
3, 126540, Control_c, 1, 7, 99
3, 126671, Control_c, 1, 7, 98
3, 126802, Control_c, 1, 7, 97
3, 126932, Control_c, 1, 7, 96
3, 126976, Note_on_c, 1, 75, 0
3, 127063, Control_c, 1, 7, 95
3, 127194, Control_c, 1, 7, 94
3, 127325, Control_c, 1, 7, 93
3, 127455, Control_c, 1, 7, 92
3, 127586, Control_c, 1, 7, 91
3, 127717, Control_c, 1, 7, 90
3, 127847, Control_c, 1, 7, 89
3, 127978, Control_c, 1, 7, 88
3, 128109, Control_c, 1, 7, 87
3, 128240, Control_c, 1, 7, 86
3, 128370, Control_c, 1, 7, 85
3, 128501, Control_c, 1, 7, 84
3, 128632, Control_c, 1, 7, 83
3, 128763, Control_c, 1, 7, 82
3, 128893, Control_c, 1, 7, 81
3, 147456, Control_c, 1, 7, 127
3, 149504, Note_on_c, 1, 72, 47
3, 151552, Note_on_c, 1, 72, 0
3, 151552, Note_on_c, 1, 73, 47
3, 153600, Note_on_c, 1, 73, 0
3, 153600, Note_on_c, 1, 65, 47
3, 153856, Note_on_c, 1, 65, 0
3, 153856, Note_on_c, 1, 64, 47
3, 154112, Note_on_c, 1, 64, 0
3, 154112, Note_on_c, 1, 65, 47
3, 154240, Note_on_c, 1, 65, 0
3, 154240, Note_on_c, 1, 64, 47
3, 154368, Note_on_c, 1, 64, 0
3, 154368, Note_on_c, 1, 65, 47
3, 154496, Note_on_c, 1, 65, 0
3, 154496, Note_on_c, 1, 64, 47
3, 154624, Note_on_c, 1, 64, 0
3, 154624, Note_on_c, 1, 65, 47
3, 154752, Note_on_c, 1, 65, 0
3, 154752, Note_on_c, 1, 64, 47
3, 154880, Note_on_c, 1, 64, 0
3, 154880, Note_on_c, 1, 65, 47
3, 155008, Note_on_c, 1, 65, 0
3, 155008, Note_on_c, 1, 64, 47
3, 155136, Note_on_c, 1, 64, 0
3, 155136, Note_on_c, 1, 65, 47
3, 155264, Note_on_c, 1, 65, 0
3, 155264, Note_on_c, 1, 64, 47
3, 155392, Note_on_c, 1, 64, 0
3, 155392, Note_on_c, 1, 65, 47
3, 155520, Note_on_c, 1, 65, 0
3, 155520, Note_on_c, 1, 64, 47
3, 155648, Note_on_c, 1, 64, 0
3, 155648, Note_on_c, 1, 65, 47
3, 155776, Note_on_c, 1, 65, 0
3, 155776, Note_on_c, 1, 64, 47
3, 155904, Note_on_c, 1, 64, 0
3, 155904, Note_on_c, 1, 65, 47
3, 156032, Note_on_c, 1, 65, 0
3, 156032, Note_on_c, 1, 64, 47
3, 156160, Note_on_c, 1, 64, 0
3, 156160, Note_on_c, 1, 65, 47
3, 156288, Note_on_c, 1, 65, 0
3, 156288, Note_on_c, 1, 64, 47
3, 156416, Note_on_c, 1, 64, 0
3, 156416, Note_on_c, 1, 65, 47
3, 156544, Note_on_c, 1, 65, 0
3, 156544, Note_on_c, 1, 64, 47
3, 156672, Note_on_c, 1, 64, 0
3, 156672, Note_on_c, 1, 65, 47
3, 156800, Note_on_c, 1, 65, 0
3, 156800, Note_on_c, 1, 64, 47
3, 156928, Note_on_c, 1, 64, 0
3, 156928, Note_on_c, 1, 65, 47
3, 157056, Note_on_c, 1, 65, 0
3, 157056, Note_on_c, 1, 64, 47
3, 157184, Note_on_c, 1, 64, 0
3, 157184, Note_on_c, 1, 65, 47
3, 157312, Note_on_c, 1, 65, 0
3, 157312, Note_on_c, 1, 64, 47
3, 157440, Note_on_c, 1, 64, 0
3, 157440, Note_on_c, 1, 62, 47
3, 157568, Note_on_c, 1, 62, 0
3, 157568, Note_on_c, 1, 64, 47
3, 157696, Note_on_c, 1, 64, 0
3, 157696, Note_on_c, 1, 65, 47
3, 159744, Note_on_c, 1, 65, 0
3, 160768, Note_on_c, 1, 65, 47
3, 161792, Note_on_c, 1, 65, 0
3, 161792, Note_on_c, 1, 67, 47
3, 162816, Note_on_c, 1, 67, 0
3, 162816, Note_on_c, 1, 70, 47
3, 163328, Note_on_c, 1, 70, 0
3, 163328, Note_on_c, 1, 68, 47
3, 163840, Note_on_c, 1, 68, 0
3, 163840, Note_on_c, 1, 70, 47
3, 164864, Note_on_c, 1, 70, 0
3, 164864, Note_on_c, 1, 70, 47
3, 166912, Note_on_c, 1, 70, 0
3, 166912, Note_on_c, 1, 68, 47
3, 167424, Note_on_c, 1, 68, 0
3, 167424, Note_on_c, 1, 67, 47
3, 167936, Note_on_c, 1, 67, 0
3, 167936, Note_on_c, 1, 68, 47
3, 168960, Note_on_c, 1, 68, 0
3, 168960, Note_on_c, 1, 72, 47
3, 169472, Note_on_c, 1, 72, 0
3, 169472, Note_on_c, 1, 70, 47
3, 169984, Note_on_c, 1, 70, 0
3, 169984, Note_on_c, 1, 72, 47
3, 171008, Note_on_c, 1, 72, 0
3, 171008, Note_on_c, 1, 72, 47
3, 173056, Note_on_c, 1, 72, 0
3, 173056, Note_on_c, 1, 70, 47
3, 173568, Note_on_c, 1, 70, 0
3, 173568, Note_on_c, 1, 68, 47
3, 174080, Note_on_c, 1, 68, 0
3, 174080, Note_on_c, 1, 70, 47
3, 175104, Note_on_c, 1, 70, 0
3, 175104, Note_on_c, 1, 73, 47
3, 175616, Note_on_c, 1, 73, 0
3, 175616, Note_on_c, 1, 72, 47
3, 176128, Note_on_c, 1, 72, 0
3, 176128, Note_on_c, 1, 73, 47
3, 177152, Note_on_c, 1, 73, 0
3, 177152, Note_on_c, 1, 72, 47
3, 177664, Note_on_c, 1, 72, 0
3, 177664, Note_on_c, 1, 70, 47
3, 178176, Note_on_c, 1, 70, 0
3, 178176, Note_on_c, 1, 72, 47
3, 179712, Note_on_c, 1, 72, 0
3, 179712, Note_on_c, 1, 73, 47
3, 180224, Note_on_c, 1, 73, 0
3, 180224, Note_on_c, 1, 68, 47
3, 182272, Note_on_c, 1, 68, 0
3, 182272, Note_on_c, 1, 68, 47
3, 182528, Note_on_c, 1, 68, 0
3, 182528, Note_on_c, 1, 67, 47
3, 182784, Note_on_c, 1, 67, 0
3, 182784, Note_on_c, 1, 68, 47
3, 182912, Note_on_c, 1, 68, 0
3, 182912, Note_on_c, 1, 67, 47
3, 183040, Note_on_c, 1, 67, 0
3, 183040, Note_on_c, 1, 68, 47
3, 183168, Note_on_c, 1, 68, 0
3, 183168, Note_on_c, 1, 67, 47
3, 183296, Note_on_c, 1, 67, 0
3, 183296, Note_on_c, 1, 68, 47
3, 183424, Note_on_c, 1, 68, 0
3, 183424, Note_on_c, 1, 67, 47
3, 183552, Note_on_c, 1, 67, 0
3, 183552, Note_on_c, 1, 68, 47
3, 183680, Note_on_c, 1, 68, 0
3, 183680, Note_on_c, 1, 67, 47
3, 183808, Note_on_c, 1, 67, 0
3, 183808, Note_on_c, 1, 65, 47
3, 184320, Note_on_c, 1, 65, 0
3, 184320, Note_on_c, 1, 65, 47
3, 186368, Note_on_c, 1, 65, 0
3, 186368, Note_on_c, 1, 68, 47
3, 188416, Note_on_c, 1, 68, 0
3, 188416, Note_on_c, 1, 72, 47
3, 188928, Note_on_c, 1, 72, 0
3, 188928, Note_on_c, 1, 70, 47
3, 189440, Note_on_c, 1, 70, 0
3, 189440, Note_on_c, 1, 72, 47
3, 190464, Note_on_c, 1, 72, 0
3, 190464, Note_on_c, 1, 63, 47
3, 190720, Note_on_c, 1, 63, 0
3, 190720, Note_on_c, 1, 62, 47
3, 190976, Note_on_c, 1, 62, 0
3, 190976, Note_on_c, 1, 63, 47
3, 191104, Note_on_c, 1, 63, 0
3, 191104, Note_on_c, 1, 62, 47
3, 191232, Note_on_c, 1, 62, 0
3, 191232, Note_on_c, 1, 63, 47
3, 191360, Note_on_c, 1, 63, 0
3, 191360, Note_on_c, 1, 62, 47
3, 191488, Note_on_c, 1, 62, 0
3, 191488, Note_on_c, 1, 63, 47
3, 191616, Note_on_c, 1, 63, 0
3, 191616, Note_on_c, 1, 62, 47
3, 191744, Note_on_c, 1, 62, 0
3, 191744, Note_on_c, 1, 63, 47
3, 191872, Note_on_c, 1, 63, 0
3, 191872, Note_on_c, 1, 62, 47
3, 192000, Note_on_c, 1, 62, 0
3, 192000, Note_on_c, 1, 63, 47
3, 192128, Note_on_c, 1, 63, 0
3, 192128, Note_on_c, 1, 62, 47
3, 192256, Note_on_c, 1, 62, 0
3, 192256, Note_on_c, 1, 63, 47
3, 192384, Note_on_c, 1, 63, 0
3, 192384, Note_on_c, 1, 62, 47
3, 192512, Note_on_c, 1, 62, 0
3, 192512, Note_on_c, 1, 63, 47
3, 192640, Note_on_c, 1, 63, 0
3, 192640, Note_on_c, 1, 62, 47
3, 192768, Note_on_c, 1, 62, 0
3, 192768, Note_on_c, 1, 63, 47
3, 192896, Note_on_c, 1, 63, 0
3, 192896, Note_on_c, 1, 62, 47
3, 193024, Note_on_c, 1, 62, 0
3, 193024, Note_on_c, 1, 63, 47
3, 193152, Note_on_c, 1, 63, 0
3, 193152, Note_on_c, 1, 62, 47
3, 193280, Note_on_c, 1, 62, 0
3, 193280, Note_on_c, 1, 63, 47
3, 193408, Note_on_c, 1, 63, 0
3, 193408, Note_on_c, 1, 62, 47
3, 193536, Note_on_c, 1, 62, 0
3, 193536, Note_on_c, 1, 63, 47
3, 193664, Note_on_c, 1, 63, 0
3, 193664, Note_on_c, 1, 62, 47
3, 193792, Note_on_c, 1, 62, 0
3, 193792, Note_on_c, 1, 63, 47
3, 193920, Note_on_c, 1, 63, 0
3, 193920, Note_on_c, 1, 62, 47
3, 194048, Note_on_c, 1, 62, 0
3, 194048, Note_on_c, 1, 63, 47
3, 194176, Note_on_c, 1, 63, 0
3, 194176, Note_on_c, 1, 62, 47
3, 194304, Note_on_c, 1, 62, 0
3, 194304, Note_on_c, 1, 60, 47
3, 194432, Note_on_c, 1, 60, 0
3, 194432, Note_on_c, 1, 62, 47
3, 194560, Note_on_c, 1, 62, 0
3, 194560, Note_on_c, 1, 63, 47
3, 196608, Note_on_c, 1, 63, 0
3, 197632, Note_on_c, 1, 63, 47
3, 198656, Note_on_c, 1, 63, 0
3, 198656, Note_on_c, 1, 65, 47
3, 199680, Note_on_c, 1, 65, 0
3, 199680, Note_on_c, 1, 68, 47
3, 200192, Note_on_c, 1, 68, 0
3, 200192, Note_on_c, 1, 67, 47
3, 200704, Note_on_c, 1, 67, 0
3, 200704, Note_on_c, 1, 68, 47
3, 201728, Note_on_c, 1, 68, 0
3, 201728, Note_on_c, 1, 68, 47
3, 203776, Note_on_c, 1, 68, 0
3, 203776, Note_on_c, 1, 67, 47
3, 204288, Note_on_c, 1, 67, 0
3, 204288, Note_on_c, 1, 65, 47
3, 204800, Note_on_c, 1, 65, 0
3, 204800, Note_on_c, 1, 67, 47
3, 205312, Note_on_c, 1, 67, 0
3, 205312, Note_on_c, 1, 68, 47
3, 205824, Note_on_c, 1, 68, 0
3, 205824, Note_on_c, 1, 67, 47
3, 206336, Note_on_c, 1, 67, 0
3, 206336, Note_on_c, 1, 68, 47
3, 206848, Note_on_c, 1, 68, 0
3, 206848, Note_on_c, 1, 70, 47
3, 207104, Note_on_c, 1, 70, 0
3, 207104, Note_on_c, 1, 68, 47
3, 207360, Note_on_c, 1, 68, 0
3, 207360, Note_on_c, 1, 70, 47
3, 207488, Note_on_c, 1, 70, 0
3, 207488, Note_on_c, 1, 68, 47
3, 207616, Note_on_c, 1, 68, 0
3, 207616, Note_on_c, 1, 70, 47
3, 207744, Note_on_c, 1, 70, 0
3, 207744, Note_on_c, 1, 68, 47
3, 207872, Note_on_c, 1, 68, 0
3, 207872, Note_on_c, 1, 70, 47
3, 208000, Note_on_c, 1, 70, 0
3, 208000, Note_on_c, 1, 68, 47
3, 208128, Note_on_c, 1, 68, 0
3, 208128, Note_on_c, 1, 70, 47
3, 208256, Note_on_c, 1, 70, 0
3, 208256, Note_on_c, 1, 68, 47
3, 208384, Note_on_c, 1, 68, 0
3, 208384, Note_on_c, 1, 67, 47
3, 208640, Note_on_c, 1, 67, 0
3, 208640, Note_on_c, 1, 68, 47
3, 208896, Note_on_c, 1, 68, 0
3, 208896, Note_on_c, 1, 70, 47
3, 209408, Note_on_c, 1, 70, 0
3, 209408, Note_on_c, 1, 73, 45
3, 209920, Note_on_c, 1, 73, 0
3, 209920, Note_on_c, 1, 72, 44
3, 210432, Note_on_c, 1, 72, 0
3, 210432, Note_on_c, 1, 70, 42
3, 210944, Note_on_c, 1, 70, 0
3, 210944, Note_on_c, 1, 68, 40
3, 211456, Note_on_c, 1, 68, 0
3, 211456, Note_on_c, 1, 67, 39
3, 211968, Note_on_c, 1, 67, 0
3, 211968, Note_on_c, 1, 65, 37
3, 212480, Note_on_c, 1, 65, 0
3, 212480, Note_on_c, 1, 63, 35
3, 212992, Note_on_c, 1, 63, 0
3, 212992, Note_on_c, 1, 61, 34
3, 213504, Note_on_c, 1, 61, 0
3, 213504, Note_on_c, 1, 60, 32
3, 214016, Note_on_c, 1, 60, 0
3, 214016, Note_on_c, 1, 61, 30
3, 215552, Note_on_c, 1, 61, 0
3, 215552, Note_on_c, 1, 65, 27
3, 216064, Note_on_c, 1, 65, 0
3, 216064, Note_on_c, 1, 70, 27
3, 216576, Note_on_c, 1, 70, 0
3, 216576, Note_on_c, 1, 68, 27
3, 217088, Note_on_c, 1, 68, 0
3, 217088, Note_on_c, 1, 67, 27
3, 217600, Note_on_c, 1, 67, 0
3, 217600, Note_on_c, 1, 65, 27
3, 218112, Note_on_c, 1, 65, 0
3, 218112, Note_on_c, 1, 63, 27
3, 218624, Note_on_c, 1, 63, 0
3, 218624, Note_on_c, 1, 61, 27
3, 219136, Note_on_c, 1, 61, 0
3, 219136, Note_on_c, 1, 60, 27
3, 219648, Note_on_c, 1, 60, 0
3, 219648, Note_on_c, 1, 58, 27
3, 220160, Note_on_c, 1, 58, 0
3, 220160, Note_on_c, 1, 60, 27
3, 221696, Note_on_c, 1, 60, 0
3, 221696, Note_on_c, 1, 63, 27
3, 222208, Note_on_c, 1, 63, 0
3, 222208, Note_on_c, 1, 68, 27
3, 222720, Note_on_c, 1, 68, 0
3, 222720, Note_on_c, 1, 67, 27
3, 223232, Note_on_c, 1, 67, 0
3, 223232, Note_on_c, 1, 65, 27
3, 223744, Note_on_c, 1, 65, 0
3, 223744, Note_on_c, 1, 63, 27
3, 224256, Note_on_c, 1, 63, 0
3, 224256, Note_on_c, 1, 61, 27
3, 224768, Note_on_c, 1, 61, 0
3, 224768, Note_on_c, 1, 63, 27
3, 225024, Note_on_c, 1, 63, 0
3, 225024, Note_on_c, 1, 65, 27
3, 225280, Note_on_c, 1, 65, 0
3, 225280, Note_on_c, 1, 58, 27
3, 225792, Note_on_c, 1, 58, 0
3, 225792, Note_on_c, 1, 61, 27
3, 226304, Note_on_c, 1, 61, 0
3, 226304, Note_on_c, 1, 68, 27
3, 226816, Note_on_c, 1, 68, 0
3, 226816, Note_on_c, 1, 67, 27
3, 227328, Note_on_c, 1, 67, 0
3, 227328, Note_on_c, 1, 68, 27
3, 240128, Note_on_c, 1, 68, 0
3, 240128, Note_on_c, 1, 72, 27
3, 240640, Note_on_c, 1, 72, 0
3, 240640, Note_on_c, 1, 70, 27
3, 241152, Note_on_c, 1, 70, 0
3, 241152, Note_on_c, 1, 68, 27
3, 241664, Note_on_c, 1, 68, 0
3, 241664, Note_on_c, 1, 68, 27
3, 243712, Note_on_c, 1, 68, 0
3, 243712, Note_on_c, 1, 68, 27
3, 243968, Note_on_c, 1, 68, 0
3, 243968, Note_on_c, 1, 67, 27
3, 244224, Note_on_c, 1, 67, 0
3, 244224, Note_on_c, 1, 68, 27
3, 244352, Note_on_c, 1, 68, 0
3, 244352, Note_on_c, 1, 67, 27
3, 244480, Note_on_c, 1, 67, 0
3, 244480, Note_on_c, 1, 68, 27
3, 244608, Note_on_c, 1, 68, 0
3, 244608, Note_on_c, 1, 67, 27
3, 244736, Note_on_c, 1, 67, 0
3, 244736, Note_on_c, 1, 68, 27
3, 244864, Note_on_c, 1, 68, 0
3, 244864, Note_on_c, 1, 67, 27
3, 244992, Note_on_c, 1, 67, 0
3, 244992, Note_on_c, 1, 68, 27
3, 245120, Note_on_c, 1, 68, 0
3, 245120, Note_on_c, 1, 67, 27
3, 245248, Note_on_c, 1, 67, 0
3, 245248, Note_on_c, 1, 68, 27
3, 245760, Note_on_c, 1, 68, 0
3, 245760, Note_on_c, 1, 68, 32
3, 246784, Note_on_c, 1, 68, 0
3, 246784, Note_on_c, 1, 63, 32
3, 247808, Note_on_c, 1, 63, 0
3, 247808, Note_on_c, 1, 65, 33
3, 248832, Note_on_c, 1, 65, 0
3, 248832, Note_on_c, 1, 68, 33
3, 249344, Note_on_c, 1, 68, 0
3, 249344, Note_on_c, 1, 67, 33
3, 249856, Note_on_c, 1, 67, 0
3, 249856, Note_on_c, 1, 68, 34
3, 250880, Note_on_c, 1, 68, 0
3, 250880, Note_on_c, 1, 68, 34
3, 251904, Note_on_c, 1, 68, 0
3, 251904, Note_on_c, 1, 69, 35
3, 252416, Note_on_c, 1, 69, 0
3, 252416, Note_on_c, 1, 72, 35
3, 252928, Note_on_c, 1, 72, 0
3, 252928, Note_on_c, 1, 70, 35
3, 253440, Note_on_c, 1, 70, 0
3, 253440, Note_on_c, 1, 68, 35
3, 253952, Note_on_c, 1, 68, 0
3, 253952, Note_on_c, 1, 67, 35
3, 254464, Note_on_c, 1, 67, 0
3, 254464, Note_on_c, 1, 65, 36
3, 254976, Note_on_c, 1, 65, 0
3, 254976, Note_on_c, 1, 64, 36
3, 255488, Note_on_c, 1, 64, 0
3, 255488, Note_on_c, 1, 67, 36
3, 255744, Note_on_c, 1, 67, 0
3, 255744, Note_on_c, 1, 65, 36
3, 256000, Note_on_c, 1, 65, 0
3, 256000, Note_on_c, 1, 67, 36
3, 256512, Note_on_c, 1, 67, 0
3, 256512, Note_on_c, 1, 70, 36
3, 257024, Note_on_c, 1, 70, 0
3, 257024, Note_on_c, 1, 68, 37
3, 257536, Note_on_c, 1, 68, 0
3, 257536, Note_on_c, 1, 67, 37
3, 258048, Note_on_c, 1, 67, 0
3, 258048, Note_on_c, 1, 72, 37
3, 259072, Note_on_c, 1, 72, 0
3, 259072, Note_on_c, 1, 60, 37
3, 260096, Note_on_c, 1, 60, 0
3, 260096, Note_on_c, 1, 62, 38
3, 261120, Note_on_c, 1, 62, 0
3, 261120, Note_on_c, 1, 65, 38
3, 261632, Note_on_c, 1, 65, 0
3, 261632, Note_on_c, 1, 63, 38
3, 262144, Note_on_c, 1, 63, 0
3, 262144, Note_on_c, 1, 65, 39
3, 263168, Note_on_c, 1, 65, 0
3, 263168, Note_on_c, 1, 65, 39
3, 264704, Note_on_c, 1, 65, 0
3, 264704, Note_on_c, 1, 68, 40
3, 265216, Note_on_c, 1, 68, 0
3, 265216, Note_on_c, 1, 67, 40
3, 265728, Note_on_c, 1, 67, 0
3, 265728, Note_on_c, 1, 65, 40
3, 266240, Note_on_c, 1, 65, 0
3, 266240, Note_on_c, 1, 63, 40
3, 266752, Note_on_c, 1, 63, 0
3, 266752, Note_on_c, 1, 62, 41
3, 267264, Note_on_c, 1, 62, 0
3, 267264, Note_on_c, 1, 60, 41
3, 267776, Note_on_c, 1, 60, 0
3, 267776, Note_on_c, 1, 63, 41
3, 268032, Note_on_c, 1, 63, 0
3, 268032, Note_on_c, 1, 62, 41
3, 268288, Note_on_c, 1, 62, 0
3, 268288, Note_on_c, 1, 63, 41
3, 268800, Note_on_c, 1, 63, 0
3, 268800, Note_on_c, 1, 62, 41
3, 269312, Note_on_c, 1, 62, 0
3, 269312, Note_on_c, 1, 63, 42
3, 271360, Note_on_c, 1, 63, 0
3, 271360, Note_on_c, 1, 67, 42
3, 272384, Note_on_c, 1, 67, 0
3, 272384, Note_on_c, 1, 69, 43
3, 273408, Note_on_c, 1, 69, 0
3, 273408, Note_on_c, 1, 72, 43
3, 273920, Note_on_c, 1, 72, 0
3, 273920, Note_on_c, 1, 70, 43
3, 274432, Note_on_c, 1, 70, 0
3, 274432, Note_on_c, 1, 72, 44
3, 275456, Note_on_c, 1, 72, 0
3, 275456, Note_on_c, 1, 72, 44
3, 276992, Note_on_c, 1, 72, 0
3, 276992, Note_on_c, 1, 75, 45
3, 277504, Note_on_c, 1, 75, 0
3, 277504, Note_on_c, 1, 74, 45
3, 278016, Note_on_c, 1, 74, 0
3, 278016, Note_on_c, 1, 72, 45
3, 278528, Note_on_c, 1, 72, 0
3, 278528, Note_on_c, 1, 70, 45
3, 279040, Note_on_c, 1, 70, 0
3, 279040, Note_on_c, 1, 69, 46
3, 279552, Note_on_c, 1, 69, 0
3, 279552, Note_on_c, 1, 67, 46
3, 280064, Note_on_c, 1, 67, 0
3, 280064, Note_on_c, 1, 70, 46
3, 280320, Note_on_c, 1, 70, 0
3, 280320, Note_on_c, 1, 69, 46
3, 280576, Note_on_c, 1, 69, 0
3, 280576, Note_on_c, 1, 70, 46
3, 281088, Note_on_c, 1, 70, 0
3, 281088, Note_on_c, 1, 69, 46
3, 281600, Note_on_c, 1, 69, 0
3, 281600, Note_on_c, 1, 70, 47
3, 283136, Note_on_c, 1, 70, 0
3, 283136, Note_on_c, 1, 67, 47
3, 283648, Note_on_c, 1, 67, 0
3, 283648, Note_on_c, 1, 69, 47
3, 284160, Note_on_c, 1, 69, 0
3, 284160, Note_on_c, 1, 70, 48
3, 284672, Note_on_c, 1, 70, 0
3, 284672, Note_on_c, 1, 72, 48
3, 285184, Note_on_c, 1, 72, 0
3, 285184, Note_on_c, 1, 70, 48
3, 285696, Note_on_c, 1, 70, 0
3, 285696, Note_on_c, 1, 72, 48
3, 286208, Note_on_c, 1, 72, 0
3, 286208, Note_on_c, 1, 75, 48
3, 286464, Note_on_c, 1, 75, 0
3, 286464, Note_on_c, 1, 74, 49
3, 286720, Note_on_c, 1, 74, 0
3, 286720, Note_on_c, 1, 75, 49
3, 287232, Note_on_c, 1, 75, 0
3, 287232, Note_on_c, 1, 74, 49
3, 287744, Note_on_c, 1, 74, 0
3, 287744, Note_on_c, 1, 72, 49
3, 288256, Note_on_c, 1, 72, 0
3, 288256, Note_on_c, 1, 74, 49
3, 288512, Note_on_c, 1, 74, 0
3, 288512, Note_on_c, 1, 75, 49
3, 288768, Note_on_c, 1, 75, 0
3, 288768, Note_on_c, 1, 70, 50
3, 289024, Note_on_c, 1, 70, 0
3, 289024, Note_on_c, 1, 69, 50
3, 289792, Note_on_c, 1, 69, 0
3, 289792, Note_on_c, 1, 74, 50
3, 290304, Note_on_c, 1, 74, 0
3, 290304, Note_on_c, 1, 72, 50
3, 290816, Note_on_c, 1, 72, 0
3, 290816, Note_on_c, 1, 70, 50
3, 291328, Note_on_c, 1, 70, 0
3, 291328, Note_on_c, 1, 69, 51
3, 291840, Note_on_c, 1, 69, 0
3, 291840, Note_on_c, 1, 67, 51
3, 292352, Note_on_c, 1, 67, 0
3, 292352, Note_on_c, 1, 65, 51
3, 292864, Note_on_c, 1, 65, 0
3, 292864, Note_on_c, 1, 63, 51
3, 293376, Note_on_c, 1, 63, 0
3, 293376, Note_on_c, 1, 62, 51
3, 293888, Note_on_c, 1, 62, 0
3, 293888, Note_on_c, 1, 67, 52
3, 294144, Note_on_c, 1, 67, 0
3, 294144, Note_on_c, 1, 66, 52
3, 294400, Note_on_c, 1, 66, 0
3, 294400, Note_on_c, 1, 67, 52
3, 294912, Note_on_c, 1, 67, 0
3, 294912, Note_on_c, 1, 66, 47
3, 295424, Note_on_c, 1, 66, 0
3, 295424, Note_on_c, 1, 62, 45
3, 295936, Note_on_c, 1, 62, 0
3, 295936, Note_on_c, 1, 64, 44
3, 296448, Note_on_c, 1, 64, 0
3, 296448, Note_on_c, 1, 66, 42
3, 296960, Note_on_c, 1, 66, 0
3, 296960, Note_on_c, 1, 67, 40
3, 297472, Note_on_c, 1, 67, 0
3, 297472, Note_on_c, 1, 65, 39
3, 297984, Note_on_c, 1, 65, 0
3, 297984, Note_on_c, 1, 63, 37
3, 298496, Note_on_c, 1, 63, 0
3, 298496, Note_on_c, 1, 62, 35
3, 299008, Note_on_c, 1, 62, 0
3, 299008, Note_on_c, 1, 60, 34
3, 299520, Note_on_c, 1, 60, 0
3, 299520, Note_on_c, 1, 59, 32
3, 300032, Note_on_c, 1, 59, 0
3, 300032, Note_on_c, 1, 60, 30
3, 301568, Note_on_c, 1, 60, 0
3, 301568, Note_on_c, 1, 63, 32
3, 302080, Note_on_c, 1, 63, 0
3, 302080, Note_on_c, 1, 69, 32
3, 302592, Note_on_c, 1, 69, 0
3, 302592, Note_on_c, 1, 67, 32
3, 303104, Note_on_c, 1, 67, 0
3, 303104, Note_on_c, 1, 66, 32
3, 303616, Note_on_c, 1, 66, 0
3, 303616, Note_on_c, 1, 64, 32
3, 304128, Note_on_c, 1, 64, 0
3, 304128, Note_on_c, 1, 62, 32
3, 304640, Note_on_c, 1, 62, 0
3, 304640, Note_on_c, 1, 60, 32
3, 305152, Note_on_c, 1, 60, 0
3, 305152, Note_on_c, 1, 58, 32
3, 305664, Note_on_c, 1, 58, 0
3, 305664, Note_on_c, 1, 57, 32
3, 306176, Note_on_c, 1, 57, 0
3, 306176, Note_on_c, 1, 58, 32
3, 307712, Note_on_c, 1, 58, 0
3, 307712, Note_on_c, 1, 62, 32
3, 308224, Note_on_c, 1, 62, 0
3, 308224, Note_on_c, 1, 67, 32
3, 308736, Note_on_c, 1, 67, 0
3, 308736, Note_on_c, 1, 65, 32
3, 309248, Note_on_c, 1, 65, 0
3, 309248, Note_on_c, 1, 63, 32
3, 309760, Note_on_c, 1, 63, 0
3, 309760, Note_on_c, 1, 62, 32
3, 310272, Note_on_c, 1, 62, 0
3, 310272, Note_on_c, 1, 60, 32
3, 310784, Note_on_c, 1, 60, 0
3, 310784, Note_on_c, 1, 62, 32
3, 311040, Note_on_c, 1, 62, 0
3, 311040, Note_on_c, 1, 63, 32
3, 311296, Note_on_c, 1, 63, 0
3, 311296, Note_on_c, 1, 57, 32
3, 311808, Note_on_c, 1, 57, 0
3, 311808, Note_on_c, 1, 60, 32
3, 312320, Note_on_c, 1, 60, 0
3, 312320, Note_on_c, 1, 67, 32
3, 312832, Note_on_c, 1, 67, 0
3, 312832, Note_on_c, 1, 66, 32
3, 313344, Note_on_c, 1, 66, 0
3, 313344, Note_on_c, 1, 67, 32
3, 326144, Note_on_c, 1, 67, 0
3, 326144, Note_on_c, 1, 70, 32
3, 326656, Note_on_c, 1, 70, 0
3, 326656, Note_on_c, 1, 69, 32
3, 327168, Note_on_c, 1, 69, 0
3, 327168, Note_on_c, 1, 67, 32
3, 327680, Note_on_c, 1, 67, 0
3, 327680, Note_on_c, 1, 67, 32
3, 329728, Note_on_c, 1, 67, 0
3, 329728, Note_on_c, 1, 67, 32
3, 329984, Note_on_c, 1, 67, 0
3, 329984, Note_on_c, 1, 66, 32
3, 330240, Note_on_c, 1, 66, 0
3, 330240, Note_on_c, 1, 67, 32
3, 330368, Note_on_c, 1, 67, 0
3, 330368, Note_on_c, 1, 66, 32
3, 330496, Note_on_c, 1, 66, 0
3, 330496, Note_on_c, 1, 67, 32
3, 330624, Note_on_c, 1, 67, 0
3, 330624, Note_on_c, 1, 66, 32
3, 330752, Note_on_c, 1, 66, 0
3, 330752, Note_on_c, 1, 67, 32
3, 330880, Note_on_c, 1, 67, 0
3, 330880, Note_on_c, 1, 66, 32
3, 331008, Note_on_c, 1, 66, 0
3, 331008, Note_on_c, 1, 67, 32
3, 331136, Note_on_c, 1, 67, 0
3, 331136, Note_on_c, 1, 66, 32
3, 331264, Note_on_c, 1, 66, 0
3, 331264, Note_on_c, 1, 67, 32
3, 331776, Control_c, 1, 7, 90
3, 331776, Note_on_c, 1, 67, 0
3, 331776, Note_on_c, 1, 65, 17
3, 337920, Note_on_c, 1, 65, 0
3, 337920, Note_on_c, 1, 64, 17
3, 344064, Note_on_c, 1, 64, 0
3, 344064, Note_on_c, 1, 63, 17
3, 351232, Note_on_c, 1, 63, 0
3, 351232, Note_on_c, 1, 54, 47
3, 351385, Control_c, 1, 7, 126
3, 352256, Note_on_c, 1, 54, 0
3, 352256, Note_on_c, 1, 55, 47
3, 353280, Note_on_c, 1, 55, 0
3, 353280, Note_on_c, 1, 58, 47
3, 353792, Note_on_c, 1, 58, 0
3, 353792, Note_on_c, 1, 57, 47
3, 354304, Note_on_c, 1, 57, 0
3, 354304, Note_on_c, 1, 58, 47
3, 355328, Note_on_c, 1, 58, 0
3, 355328, Note_on_c, 1, 62, 47
3, 355840, Note_on_c, 1, 62, 0
3, 355840, Note_on_c, 1, 60, 47
3, 356352, Note_on_c, 1, 60, 0
3, 356352, Note_on_c, 1, 62, 47
3, 357888, Note_on_c, 1, 62, 0
3, 357888, Note_on_c, 1, 63, 47
3, 358400, Note_on_c, 1, 63, 0
3, 358400, Note_on_c, 1, 58, 47
3, 360448, Note_on_c, 1, 58, 0
3, 360448, Note_on_c, 1, 58, 47
3, 360704, Note_on_c, 1, 58, 0
3, 360704, Note_on_c, 1, 57, 47
3, 360960, Note_on_c, 1, 57, 0
3, 360960, Note_on_c, 1, 58, 47
3, 361088, Note_on_c, 1, 58, 0
3, 361088, Note_on_c, 1, 57, 47
3, 361216, Note_on_c, 1, 57, 0
3, 361216, Note_on_c, 1, 58, 47
3, 361344, Note_on_c, 1, 58, 0
3, 361344, Note_on_c, 1, 57, 47
3, 361472, Note_on_c, 1, 57, 0
3, 361472, Note_on_c, 1, 58, 47
3, 361600, Note_on_c, 1, 58, 0
3, 361600, Note_on_c, 1, 57, 47
3, 361728, Note_on_c, 1, 57, 0
3, 361728, Note_on_c, 1, 58, 47
3, 361856, Note_on_c, 1, 58, 0
3, 361856, Note_on_c, 1, 57, 47
3, 361984, Note_on_c, 1, 57, 0
3, 361984, Note_on_c, 1, 58, 47
3, 362112, Note_on_c, 1, 58, 0
3, 362112, Note_on_c, 1, 57, 47
3, 362240, Note_on_c, 1, 57, 0
3, 362240, Note_on_c, 1, 55, 47
3, 362368, Note_on_c, 1, 55, 0
3, 362368, Note_on_c, 1, 57, 47
3, 362496, Note_on_c, 1, 57, 0
3, 362496, Note_on_c, 1, 55, 42
3, 364544, Note_on_c, 1, 55, 0
3, 365568, Note_on_c, 1, 67, 37
3, 366080, Note_on_c, 1, 67, 0
3, 366080, Note_on_c, 1, 65, 36
3, 366592, Note_on_c, 1, 65, 0
3, 366592, Note_on_c, 1, 63, 35
3, 367104, Note_on_c, 1, 63, 0
3, 367104, Note_on_c, 1, 62, 34
3, 367616, Note_on_c, 1, 62, 0
3, 367616, Note_on_c, 1, 60, 34
3, 368128, Note_on_c, 1, 60, 0
3, 368128, Note_on_c, 1, 62, 33
3, 368384, Note_on_c, 1, 62, 0
3, 368384, Note_on_c, 1, 63, 32
3, 368640, Note_on_c, 1, 63, 0
3, 368640, Note_on_c, 1, 57, 32
3, 368726, Control_c, 1, 7, 125
3, 369236, Control_c, 1, 7, 124
3, 369746, Control_c, 1, 7, 123
3, 370256, Control_c, 1, 7, 122
3, 370688, Note_on_c, 1, 57, 0
3, 370766, Control_c, 1, 7, 121
3, 371276, Control_c, 1, 7, 120
3, 371712, Note_on_c, 1, 65, 29
3, 371786, Control_c, 1, 7, 119
3, 372224, Note_on_c, 1, 65, 0
3, 372224, Note_on_c, 1, 63, 29
3, 372296, Control_c, 1, 7, 118
3, 372736, Note_on_c, 1, 63, 0
3, 372736, Note_on_c, 1, 62, 29
3, 372806, Control_c, 1, 7, 117
3, 373248, Note_on_c, 1, 62, 0
3, 373248, Note_on_c, 1, 60, 28
3, 373316, Control_c, 1, 7, 116
3, 373760, Note_on_c, 1, 60, 0
3, 373760, Note_on_c, 1, 58, 28
3, 373826, Control_c, 1, 7, 115
3, 374272, Note_on_c, 1, 58, 0
3, 374272, Note_on_c, 1, 60, 27
3, 374336, Control_c, 1, 7, 114
3, 374528, Note_on_c, 1, 60, 0
3, 374528, Note_on_c, 1, 62, 27
3, 374742, Control_c, 1, 7, 113
3, 374784, Note_on_c, 1, 62, 0
3, 374784, Note_on_c, 1, 55, 27
3, 375252, Control_c, 1, 7, 112
3, 375660, Control_c, 1, 7, 111
3, 376068, Control_c, 1, 7, 110
3, 376320, Note_on_c, 1, 55, 0
3, 376320, Note_on_c, 1, 63, 26
3, 376476, Control_c, 1, 7, 109
3, 376832, Note_on_c, 1, 63, 0
3, 376832, Note_on_c, 1, 62, 25
3, 376986, Control_c, 1, 7, 108
3, 377344, Note_on_c, 1, 62, 0
3, 377344, Note_on_c, 1, 60, 25
3, 377394, Control_c, 1, 7, 107
3, 377802, Control_c, 1, 7, 106
3, 377856, Note_on_c, 1, 60, 0
3, 377856, Note_on_c, 1, 58, 24
3, 378210, Control_c, 1, 7, 105
3, 378368, Note_on_c, 1, 58, 0
3, 378368, Note_on_c, 1, 57, 24
3, 378618, Control_c, 1, 7, 104
3, 378880, Note_on_c, 1, 57, 0
3, 378880, Note_on_c, 1, 58, 24
3, 379128, Control_c, 1, 7, 103
3, 379392, Note_on_c, 1, 58, 0
3, 379392, Note_on_c, 1, 55, 23
3, 379536, Control_c, 1, 7, 102
3, 379904, Note_on_c, 1, 55, 0
3, 379904, Note_on_c, 1, 62, 23
3, 379944, Control_c, 1, 7, 101
3, 380352, Control_c, 1, 7, 100
3, 380416, Note_on_c, 1, 62, 0
3, 380416, Note_on_c, 1, 60, 22
3, 380760, Control_c, 1, 7, 99
3, 380928, Note_on_c, 1, 60, 0
3, 380928, Note_on_c, 1, 62, 22
3, 381270, Control_c, 1, 7, 98
3, 381678, Control_c, 1, 7, 97
3, 382086, Control_c, 1, 7, 96
3, 382494, Control_c, 1, 7, 95
3, 382902, Control_c, 1, 7, 94
3, 383412, Control_c, 1, 7, 93
3, 383820, Control_c, 1, 7, 92
3, 384228, Control_c, 1, 7, 91
3, 384636, Control_c, 1, 7, 90
3, 385044, Control_c, 1, 7, 89
3, 385554, Control_c, 1, 7, 88
3, 385962, Control_c, 1, 7, 87
3, 386390, Control_c, 1, 7, 86
3, 386594, Control_c, 1, 7, 85
3, 386696, Control_c, 1, 7, 84
3, 386798, Control_c, 1, 7, 83
3, 386900, Control_c, 1, 7, 82
3, 387002, Control_c, 1, 7, 81
3, 387104, Control_c, 1, 7, 80
3, 387206, Control_c, 1, 7, 79
3, 387308, Control_c, 1, 7, 78
3, 387512, Control_c, 1, 7, 77
3, 387614, Control_c, 1, 7, 76
3, 387716, Control_c, 1, 7, 75
3, 387818, Control_c, 1, 7, 74
3, 387920, Control_c, 1, 7, 73
3, 388022, Control_c, 1, 7, 72
3, 388124, Control_c, 1, 7, 71
3, 388226, Control_c, 1, 7, 70
3, 388430, Control_c, 1, 7, 69
3, 388532, Control_c, 1, 7, 68
3, 388634, Control_c, 1, 7, 67
3, 388736, Control_c, 1, 7, 66
3, 388838, Control_c, 1, 7, 65
3, 388940, Control_c, 1, 7, 64
3, 389042, Control_c, 1, 7, 63
3, 389144, Control_c, 1, 7, 62
3, 389246, Control_c, 1, 7, 61
3, 389450, Control_c, 1, 7, 60
3, 389552, Control_c, 1, 7, 59
3, 389654, Control_c, 1, 7, 58
3, 389756, Control_c, 1, 7, 57
3, 389858, Control_c, 1, 7, 56
3, 389960, Control_c, 1, 7, 55
3, 390062, Control_c, 1, 7, 54
3, 390164, Control_c, 1, 7, 53
3, 390368, Control_c, 1, 7, 52
3, 390470, Control_c, 1, 7, 51
3, 390572, Control_c, 1, 7, 50
3, 390674, Control_c, 1, 7, 49
3, 390776, Control_c, 1, 7, 48
3, 390878, Control_c, 1, 7, 47
3, 390980, Control_c, 1, 7, 46
3, 391082, Control_c, 1, 7, 45
3, 391286, Control_c, 1, 7, 44
3, 391388, Control_c, 1, 7, 43
3, 391490, Control_c, 1, 7, 42
3, 391592, Control_c, 1, 7, 41
3, 391694, Control_c, 1, 7, 40
3, 391796, Control_c, 1, 7, 39
3, 391898, Control_c, 1, 7, 38
3, 392000, Control_c, 1, 7, 37
3, 392102, Control_c, 1, 7, 36
3, 392192, Note_on_c, 1, 62, 0
3, 397312, Control_c, 1, 121, 127
3, 397312, End_track
4, 0, Start_track
4, 0, Program_c, 2, 42
4, 0, Control_c, 2, 121, 127
4, 0, Control_c, 2, 91, 127
4, 0, Control_c, 2, 1, 10
4, 0, Control_c, 2, 10, 50
4, 0, Title_t, "Violoncello"
4, 6144, Note_on_c, 2, 51, 47
4, 7168, Note_on_c, 2, 51, 0
4, 7168, Note_on_c, 2, 53, 47
4, 8192, Note_on_c, 2, 53, 0
4, 8192, Note_on_c, 2, 55, 47
4, 9216, Note_on_c, 2, 55, 0
4, 9216, Note_on_c, 2, 53, 47
4, 10240, Note_on_c, 2, 53, 0
4, 10240, Note_on_c, 2, 56, 47
4, 11264, Note_on_c, 2, 56, 0
4, 11264, Note_on_c, 2, 53, 47
4, 12288, Note_on_c, 2, 53, 0
4, 12288, Note_on_c, 2, 58, 47
4, 13312, Note_on_c, 2, 58, 0
4, 13312, Note_on_c, 2, 56, 47
4, 14336, Note_on_c, 2, 56, 0
4, 14336, Note_on_c, 2, 58, 47
4, 15360, Note_on_c, 2, 58, 0
4, 15360, Note_on_c, 2, 55, 47
4, 16384, Note_on_c, 2, 55, 0
4, 16384, Note_on_c, 2, 60, 47
4, 17408, Note_on_c, 2, 60, 0
4, 17408, Note_on_c, 2, 58, 47
4, 18432, Note_on_c, 2, 58, 0
4, 18432, Note_on_c, 2, 56, 47
4, 19456, Note_on_c, 2, 56, 0
4, 19456, Note_on_c, 2, 55, 47
4, 20480, Note_on_c, 2, 55, 0
4, 20480, Note_on_c, 2, 56, 47
4, 21504, Note_on_c, 2, 56, 0
4, 21504, Note_on_c, 2, 53, 47
4, 22528, Note_on_c, 2, 53, 0
4, 22528, Note_on_c, 2, 58, 47
4, 23552, Note_on_c, 2, 58, 0
4, 23552, Note_on_c, 2, 46, 47
4, 24576, Note_on_c, 2, 46, 0
4, 24576, Note_on_c, 2, 51, 47
4, 25600, Note_on_c, 2, 51, 0
4, 25600, Note_on_c, 2, 53, 47
4, 26624, Note_on_c, 2, 53, 0
4, 26624, Note_on_c, 2, 51, 47
4, 27648, Note_on_c, 2, 51, 0
4, 27648, Note_on_c, 2, 50, 47
4, 28672, Note_on_c, 2, 50, 0
4, 28672, Note_on_c, 2, 48, 47
4, 29696, Note_on_c, 2, 48, 0
4, 29696, Note_on_c, 2, 51, 47
4, 30720, Note_on_c, 2, 51, 0
4, 30720, Note_on_c, 2, 50, 47
4, 31744, Note_on_c, 2, 50, 0
4, 31744, Note_on_c, 2, 48, 47
4, 32768, Note_on_c, 2, 48, 0
4, 32768, Note_on_c, 2, 50, 47
4, 33792, Note_on_c, 2, 50, 0
4, 33792, Note_on_c, 2, 46, 47
4, 34816, Note_on_c, 2, 46, 0
4, 34816, Note_on_c, 2, 51, 47
4, 35840, Note_on_c, 2, 51, 0
4, 35840, Note_on_c, 2, 48, 47
4, 36864, Note_on_c, 2, 48, 0
4, 36864, Note_on_c, 2, 53, 47
4, 37888, Note_on_c, 2, 53, 0
4, 37888, Note_on_c, 2, 51, 47
4, 38912, Note_on_c, 2, 51, 0
4, 38912, Note_on_c, 2, 53, 47
4, 39936, Note_on_c, 2, 53, 0
4, 39936, Note_on_c, 2, 50, 47
4, 40960, Note_on_c, 2, 50, 0
4, 40960, Note_on_c, 2, 55, 47
4, 41984, Note_on_c, 2, 55, 0
4, 41984, Note_on_c, 2, 53, 47
4, 43008, Note_on_c, 2, 53, 0
4, 43008, Note_on_c, 2, 51, 47
4, 44032, Note_on_c, 2, 51, 0
4, 44032, Note_on_c, 2, 50, 47
4, 45056, Note_on_c, 2, 50, 0
4, 45056, Note_on_c, 2, 51, 47
4, 46080, Note_on_c, 2, 51, 0
4, 46080, Note_on_c, 2, 48, 47
4, 47104, Note_on_c, 2, 48, 0
4, 47104, Note_on_c, 2, 53, 47
4, 48128, Note_on_c, 2, 53, 0
4, 48128, Note_on_c, 2, 41, 47
4, 49152, Note_on_c, 2, 41, 0
4, 49152, Note_on_c, 2, 46, 47
4, 50176, Note_on_c, 2, 46, 0
4, 50176, Note_on_c, 2, 53, 47
4, 51200, Note_on_c, 2, 53, 0
4, 51200, Note_on_c, 2, 58, 47
4, 52224, Note_on_c, 2, 58, 0
4, 52224, Note_on_c, 2, 60, 47
4, 53248, Note_on_c, 2, 60, 0
4, 53248, Note_on_c, 2, 58, 47
4, 54272, Note_on_c, 2, 58, 0
4, 54272, Note_on_c, 2, 56, 47
4, 55296, Note_on_c, 2, 56, 0
4, 55296, Note_on_c, 2, 55, 47
4, 56320, Note_on_c, 2, 55, 0
4, 56320, Note_on_c, 2, 56, 47
4, 57344, Note_on_c, 2, 56, 0
4, 57344, Note_on_c, 2, 55, 47
4, 58368, Note_on_c, 2, 55, 0
4, 58368, Note_on_c, 2, 53, 47
4, 59392, Note_on_c, 2, 53, 0
4, 59392, Note_on_c, 2, 51, 47
4, 60416, Note_on_c, 2, 51, 0
4, 60416, Note_on_c, 2, 55, 47
4, 61440, Note_on_c, 2, 55, 0
4, 61440, Note_on_c, 2, 50, 47
4, 62464, Note_on_c, 2, 50, 0
4, 62464, Note_on_c, 2, 51, 47
4, 63488, Note_on_c, 2, 51, 0
4, 63488, Note_on_c, 2, 53, 47
4, 64512, Note_on_c, 2, 53, 0
4, 64512, Note_on_c, 2, 51, 47
4, 65536, Note_on_c, 2, 51, 0
4, 65536, Note_on_c, 2, 53, 47
4, 66560, Note_on_c, 2, 53, 0
4, 66560, Note_on_c, 2, 41, 47
4, 67584, Note_on_c, 2, 41, 0
4, 67584, Note_on_c, 2, 46, 47
4, 68608, Note_on_c, 2, 46, 0
4, 68608, Note_on_c, 2, 48, 47
4, 69632, Note_on_c, 2, 48, 0
4, 69632, Note_on_c, 2, 50, 47
4, 70656, Note_on_c, 2, 50, 0
4, 70656, Note_on_c, 2, 46, 47
4, 71680, Note_on_c, 2, 46, 0
4, 71680, Note_on_c, 2, 51, 47
4, 72704, Note_on_c, 2, 51, 0
4, 72704, Note_on_c, 2, 48, 47
4, 73728, Note_on_c, 2, 48, 0
4, 73728, Note_on_c, 2, 53, 47
4, 74752, Note_on_c, 2, 53, 0
4, 74752, Note_on_c, 2, 51, 47
4, 75776, Note_on_c, 2, 51, 0
4, 75776, Note_on_c, 2, 53, 47
4, 76800, Note_on_c, 2, 53, 0
4, 76800, Note_on_c, 2, 50, 47
4, 77824, Note_on_c, 2, 50, 0
4, 77824, Note_on_c, 2, 55, 47
4, 78848, Note_on_c, 2, 55, 0
4, 78848, Note_on_c, 2, 53, 47
4, 79872, Note_on_c, 2, 53, 0
4, 79872, Note_on_c, 2, 51, 47
4, 80896, Note_on_c, 2, 51, 0
4, 80896, Note_on_c, 2, 50, 47
4, 81920, Note_on_c, 2, 50, 0
4, 81920, Note_on_c, 2, 51, 47
4, 82944, Note_on_c, 2, 51, 0
4, 82944, Note_on_c, 2, 48, 47
4, 83968, Note_on_c, 2, 48, 0
4, 83968, Note_on_c, 2, 53, 47
4, 84992, Note_on_c, 2, 53, 0
4, 84992, Note_on_c, 2, 41, 47
4, 86016, Note_on_c, 2, 41, 0
4, 86016, Note_on_c, 2, 46, 47
4, 87040, Note_on_c, 2, 46, 0
4, 87040, Note_on_c, 2, 44, 47
4, 88064, Note_on_c, 2, 44, 0
4, 88064, Note_on_c, 2, 43, 47
4, 89088, Note_on_c, 2, 43, 0
4, 89088, Note_on_c, 2, 39, 47
4, 90112, Note_on_c, 2, 39, 0
4, 90112, Note_on_c, 2, 44, 47
4, 91136, Note_on_c, 2, 44, 0
4, 91136, Note_on_c, 2, 41, 47
4, 92160, Note_on_c, 2, 41, 0
4, 92160, Note_on_c, 2, 46, 47
4, 93184, Note_on_c, 2, 46, 0
4, 93184, Note_on_c, 2, 44, 47
4, 94208, Note_on_c, 2, 44, 0
4, 94208, Note_on_c, 2, 46, 47
4, 95232, Note_on_c, 2, 46, 0
4, 95232, Note_on_c, 2, 43, 47
4, 96256, Note_on_c, 2, 43, 0
4, 96256, Note_on_c, 2, 48, 47
4, 97280, Note_on_c, 2, 48, 0
4, 97280, Note_on_c, 2, 46, 47
4, 98304, Note_on_c, 2, 46, 0
4, 98304, Note_on_c, 2, 44, 47
4, 99328, Note_on_c, 2, 44, 0
4, 99328, Note_on_c, 2, 43, 47
4, 100352, Note_on_c, 2, 43, 0
4, 100352, Note_on_c, 2, 44, 47
4, 101376, Note_on_c, 2, 44, 0
4, 101376, Note_on_c, 2, 41, 47
4, 102400, Note_on_c, 2, 41, 0
4, 102400, Note_on_c, 2, 46, 47
4, 103424, Note_on_c, 2, 46, 0
4, 103424, Note_on_c, 2, 46, 47
4, 104448, Note_on_c, 2, 46, 0
4, 104448, Note_on_c, 2, 39, 47
4, 105472, Note_on_c, 2, 39, 0
4, 105472, Note_on_c, 2, 58, 47
4, 106496, Note_on_c, 2, 58, 0
4, 106496, Note_on_c, 2, 63, 47
4, 107520, Note_on_c, 2, 63, 0
4, 107520, Note_on_c, 2, 65, 47
4, 108544, Note_on_c, 2, 65, 0
4, 108544, Note_on_c, 2, 63, 47
4, 109568, Note_on_c, 2, 63, 0
4, 109568, Note_on_c, 2, 61, 47
4, 110592, Note_on_c, 2, 61, 0
4, 110592, Note_on_c, 2, 60, 47
4, 111616, Note_on_c, 2, 60, 0
4, 111616, Note_on_c, 2, 61, 47
4, 112640, Note_on_c, 2, 61, 0
4, 112640, Note_on_c, 2, 60, 47
4, 113664, Note_on_c, 2, 60, 0
4, 113664, Note_on_c, 2, 58, 47
4, 114688, Note_on_c, 2, 58, 0
4, 114688, Note_on_c, 2, 56, 47
4, 115712, Note_on_c, 2, 56, 0
4, 115712, Note_on_c, 2, 60, 47
4, 116736, Note_on_c, 2, 60, 0
4, 116736, Note_on_c, 2, 55, 47
4, 117760, Note_on_c, 2, 55, 0
4, 117760, Note_on_c, 2, 56, 47
4, 118784, Note_on_c, 2, 56, 0
4, 118784, Note_on_c, 2, 58, 47
4, 119808, Note_on_c, 2, 58, 0
4, 119808, Note_on_c, 2, 56, 47
4, 120832, Note_on_c, 2, 56, 0
4, 120832, Note_on_c, 2, 58, 47
4, 121856, Note_on_c, 2, 58, 0
4, 121856, Note_on_c, 2, 46, 47
4, 122880, Note_on_c, 2, 46, 0
4, 122880, Note_on_c, 2, 51, 47
4, 123904, Note_on_c, 2, 51, 0
4, 123904, Note_on_c, 2, 50, 47
4, 124928, Note_on_c, 2, 50, 0
4, 124928, Note_on_c, 2, 51, 47
4, 125952, Note_on_c, 2, 51, 0
4, 125952, Note_on_c, 2, 48, 47
4, 126976, Note_on_c, 2, 48, 0
4, 126976, Note_on_c, 2, 53, 47
4, 128000, Note_on_c, 2, 53, 0
4, 128000, Note_on_c, 2, 50, 47
4, 129024, Note_on_c, 2, 50, 0
4, 129024, Note_on_c, 2, 55, 47
4, 130048, Note_on_c, 2, 55, 0
4, 130048, Note_on_c, 2, 53, 47
4, 131072, Note_on_c, 2, 53, 0
4, 131072, Note_on_c, 2, 55, 47
4, 132096, Note_on_c, 2, 55, 0
4, 132096, Note_on_c, 2, 51, 47
4, 133120, Note_on_c, 2, 51, 0
4, 133120, Note_on_c, 2, 56, 47
4, 134144, Note_on_c, 2, 56, 0
4, 134144, Note_on_c, 2, 55, 47
4, 135168, Note_on_c, 2, 55, 0
4, 135168, Note_on_c, 2, 53, 47
4, 136192, Note_on_c, 2, 53, 0
4, 136192, Note_on_c, 2, 51, 47
4, 137216, Note_on_c, 2, 51, 0
4, 137216, Note_on_c, 2, 53, 47
4, 138240, Note_on_c, 2, 53, 0
4, 138240, Note_on_c, 2, 50, 47
4, 139264, Note_on_c, 2, 50, 0
4, 139264, Note_on_c, 2, 55, 47
4, 140288, Note_on_c, 2, 55, 0
4, 140288, Note_on_c, 2, 43, 47
4, 141312, Note_on_c, 2, 43, 0
4, 141312, Note_on_c, 2, 48, 47
4, 142336, Note_on_c, 2, 48, 0
4, 142336, Note_on_c, 2, 60, 47
4, 143360, Note_on_c, 2, 60, 0
4, 143360, Note_on_c, 2, 58, 47
4, 144384, Note_on_c, 2, 58, 0
4, 144384, Note_on_c, 2, 56, 47
4, 145408, Note_on_c, 2, 56, 0
4, 145408, Note_on_c, 2, 55, 47
4, 146432, Note_on_c, 2, 55, 0
4, 146432, Note_on_c, 2, 53, 47
4, 147456, Note_on_c, 2, 53, 0
4, 147456, Note_on_c, 2, 52, 47
4, 148480, Note_on_c, 2, 52, 0
4, 148480, Note_on_c, 2, 48, 47
4, 149504, Note_on_c, 2, 48, 0
4, 149504, Note_on_c, 2, 44, 47
4, 150528, Note_on_c, 2, 44, 0
4, 150528, Note_on_c, 2, 41, 47
4, 151552, Note_on_c, 2, 41, 0
4, 151552, Note_on_c, 2, 46, 47
4, 152576, Note_on_c, 2, 46, 0
4, 152576, Note_on_c, 2, 43, 47
4, 153600, Note_on_c, 2, 43, 0
4, 153600, Note_on_c, 2, 48, 47
4, 154624, Note_on_c, 2, 48, 0
4, 154624, Note_on_c, 2, 46, 47
4, 155648, Note_on_c, 2, 46, 0
4, 155648, Note_on_c, 2, 48, 47
4, 156672, Note_on_c, 2, 48, 0
4, 156672, Note_on_c, 2, 44, 47
4, 157696, Note_on_c, 2, 44, 0
4, 157696, Note_on_c, 2, 49, 47
4, 158720, Note_on_c, 2, 49, 0
4, 158720, Note_on_c, 2, 48, 47
4, 159744, Note_on_c, 2, 48, 0
4, 159744, Note_on_c, 2, 46, 47
4, 160768, Note_on_c, 2, 46, 0
4, 160768, Note_on_c, 2, 44, 47
4, 161792, Note_on_c, 2, 44, 0
4, 161792, Note_on_c, 2, 46, 47
4, 162816, Note_on_c, 2, 46, 0
4, 162816, Note_on_c, 2, 43, 47
4, 163840, Note_on_c, 2, 43, 0
4, 163840, Note_on_c, 2, 48, 47
4, 164864, Note_on_c, 2, 48, 0
4, 164864, Note_on_c, 2, 36, 47
4, 165888, Note_on_c, 2, 36, 0
4, 165888, Note_on_c, 2, 41, 47
4, 166912, Note_on_c, 2, 41, 0
4, 166912, Note_on_c, 2, 48, 47
4, 167936, Note_on_c, 2, 48, 0
4, 167936, Note_on_c, 2, 53, 47
4, 168960, Note_on_c, 2, 53, 0
4, 168960, Note_on_c, 2, 55, 47
4, 169984, Note_on_c, 2, 55, 0
4, 169984, Note_on_c, 2, 53, 47
4, 171008, Note_on_c, 2, 53, 0
4, 171008, Note_on_c, 2, 51, 47
4, 172032, Note_on_c, 2, 51, 0
4, 172032, Note_on_c, 2, 49, 47
4, 173056, Note_on_c, 2, 49, 0
4, 173056, Note_on_c, 2, 51, 47
4, 174080, Note_on_c, 2, 51, 0
4, 174080, Note_on_c, 2, 49, 47
4, 175104, Note_on_c, 2, 49, 0
4, 175104, Note_on_c, 2, 48, 47
4, 176128, Note_on_c, 2, 48, 0
4, 176128, Note_on_c, 2, 46, 47
4, 177152, Note_on_c, 2, 46, 0
4, 177152, Note_on_c, 2, 49, 47
4, 178176, Note_on_c, 2, 49, 0
4, 178176, Note_on_c, 2, 44, 47
4, 179200, Note_on_c, 2, 44, 0
4, 179200, Note_on_c, 2, 46, 47
4, 180224, Note_on_c, 2, 46, 0
4, 180224, Note_on_c, 2, 48, 47
4, 181248, Note_on_c, 2, 48, 0
4, 181248, Note_on_c, 2, 46, 47
4, 182272, Note_on_c, 2, 46, 0
4, 182272, Note_on_c, 2, 48, 47
4, 183296, Note_on_c, 2, 48, 0
4, 183296, Note_on_c, 2, 36, 47
4, 184320, Note_on_c, 2, 36, 0
4, 184320, Note_on_c, 2, 41, 47
4, 185344, Note_on_c, 2, 41, 0
4, 185344, Note_on_c, 2, 48, 47
4, 186368, Note_on_c, 2, 48, 0
4, 186368, Note_on_c, 2, 53, 47
4, 187392, Note_on_c, 2, 53, 0
4, 187392, Note_on_c, 2, 55, 47
4, 188416, Note_on_c, 2, 55, 0
4, 188416, Note_on_c, 2, 56, 47
4, 189440, Note_on_c, 2, 56, 0
4, 189440, Note_on_c, 2, 55, 47
4, 190464, Note_on_c, 2, 55, 0
4, 190464, Note_on_c, 2, 56, 47
4, 191488, Note_on_c, 2, 56, 0
4, 191488, Note_on_c, 2, 58, 47
4, 192000, Note_on_c, 2, 58, 0
4, 192000, Note_on_c, 2, 60, 47
4, 192512, Note_on_c, 2, 60, 0
4, 192512, Note_on_c, 2, 58, 47
4, 193536, Note_on_c, 2, 58, 0
4, 193536, Note_on_c, 2, 56, 47
4, 194560, Note_on_c, 2, 56, 0
4, 194560, Note_on_c, 2, 55, 47
4, 195584, Note_on_c, 2, 55, 0
4, 195584, Note_on_c, 2, 51, 47
4, 196608, Note_on_c, 2, 51, 0
4, 196608, Note_on_c, 2, 56, 47
4, 197632, Note_on_c, 2, 56, 0
4, 197632, Note_on_c, 2, 55, 47
4, 198656, Note_on_c, 2, 55, 0
4, 198656, Note_on_c, 2, 56, 47
4, 199680, Note_on_c, 2, 56, 0
4, 199680, Note_on_c, 2, 53, 47
4, 200704, Note_on_c, 2, 53, 0
4, 200704, Note_on_c, 2, 58, 47
4, 201728, Note_on_c, 2, 58, 0
4, 201728, Note_on_c, 2, 46, 47
4, 202752, Note_on_c, 2, 46, 0
4, 202752, Note_on_c, 2, 51, 47
4, 203776, Note_on_c, 2, 51, 0
4, 203776, Note_on_c, 2, 63, 47
4, 204800, Note_on_c, 2, 63, 0
4, 204800, Note_on_c, 2, 61, 47
4, 205824, Note_on_c, 2, 61, 0
4, 205824, Note_on_c, 2, 60, 47
4, 206848, Note_on_c, 2, 60, 0
4, 206848, Note_on_c, 2, 58, 47
4, 207872, Note_on_c, 2, 58, 0
4, 207872, Note_on_c, 2, 56, 47
4, 208896, Note_on_c, 2, 56, 0
4, 208896, Note_on_c, 2, 55, 47
4, 209920, Note_on_c, 2, 55, 0
4, 209920, Note_on_c, 2, 51, 47
4, 210944, Note_on_c, 2, 51, 0
4, 210944, Note_on_c, 2, 48, 47
4, 211968, Note_on_c, 2, 48, 0
4, 211968, Note_on_c, 2, 44, 47
4, 212992, Note_on_c, 2, 44, 0
4, 212992, Note_on_c, 2, 49, 47
4, 214016, Note_on_c, 2, 49, 0
4, 214016, Note_on_c, 2, 46, 47
4, 215040, Note_on_c, 2, 46, 0
4, 215040, Note_on_c, 2, 51, 47
4, 216064, Note_on_c, 2, 51, 0
4, 216064, Note_on_c, 2, 49, 47
4, 217088, Note_on_c, 2, 49, 0
4, 217088, Note_on_c, 2, 51, 47
4, 218112, Note_on_c, 2, 51, 0
4, 218112, Note_on_c, 2, 48, 47
4, 219136, Note_on_c, 2, 48, 0
4, 219136, Note_on_c, 2, 53, 47
4, 220160, Note_on_c, 2, 53, 0
4, 220160, Note_on_c, 2, 51, 47
4, 221184, Note_on_c, 2, 51, 0
4, 221184, Note_on_c, 2, 49, 47
4, 222208, Note_on_c, 2, 49, 0
4, 222208, Note_on_c, 2, 48, 47
4, 223232, Note_on_c, 2, 48, 0
4, 223232, Note_on_c, 2, 49, 47
4, 224256, Note_on_c, 2, 49, 0
4, 224256, Note_on_c, 2, 46, 47
4, 225280, Note_on_c, 2, 46, 0
4, 225280, Note_on_c, 2, 51, 47
4, 226304, Note_on_c, 2, 51, 0
4, 226304, Note_on_c, 2, 39, 47
4, 227328, Note_on_c, 2, 39, 0
4, 227328, Note_on_c, 2, 44, 47
4, 228352, Note_on_c, 2, 44, 0
4, 228352, Note_on_c, 2, 51, 47
4, 229376, Note_on_c, 2, 51, 0
4, 229376, Note_on_c, 2, 56, 47
4, 230400, Note_on_c, 2, 56, 0
4, 230400, Note_on_c, 2, 58, 47
4, 231424, Note_on_c, 2, 58, 0
4, 231424, Note_on_c, 2, 56, 47
4, 232448, Note_on_c, 2, 56, 0
4, 232448, Note_on_c, 2, 54, 47
4, 233472, Note_on_c, 2, 54, 0
4, 233472, Note_on_c, 2, 53, 47
4, 234496, Note_on_c, 2, 53, 0
4, 234496, Note_on_c, 2, 54, 47
4, 235520, Note_on_c, 2, 54, 0
4, 235520, Note_on_c, 2, 53, 47
4, 236544, Note_on_c, 2, 53, 0
4, 236544, Note_on_c, 2, 51, 47
4, 237568, Note_on_c, 2, 51, 0
4, 237568, Note_on_c, 2, 49, 47
4, 238592, Note_on_c, 2, 49, 0
4, 238592, Note_on_c, 2, 53, 47
4, 239616, Note_on_c, 2, 53, 0
4, 239616, Note_on_c, 2, 48, 47
4, 240640, Note_on_c, 2, 48, 0
4, 240640, Note_on_c, 2, 49, 47
4, 241664, Note_on_c, 2, 49, 0
4, 241664, Note_on_c, 2, 51, 47
4, 242688, Note_on_c, 2, 51, 0
4, 242688, Note_on_c, 2, 49, 47
4, 243712, Note_on_c, 2, 49, 0
4, 243712, Note_on_c, 2, 51, 47
4, 244736, Note_on_c, 2, 51, 0
4, 244736, Note_on_c, 2, 39, 47
4, 245760, Note_on_c, 2, 39, 0
4, 245760, Note_on_c, 2, 44, 47
4, 247808, Note_on_c, 2, 44, 0
4, 247808, Note_on_c, 2, 56, 47
4, 249856, Note_on_c, 2, 56, 0
4, 249856, Note_on_c, 2, 60, 47
4, 251904, Note_on_c, 2, 60, 0
4, 251904, Note_on_c, 2, 51, 47
4, 252160, Note_on_c, 2, 51, 0
4, 252160, Note_on_c, 2, 50, 47
4, 252416, Note_on_c, 2, 50, 0
4, 252416, Note_on_c, 2, 51, 47
4, 252544, Note_on_c, 2, 51, 0
4, 252544, Note_on_c, 2, 50, 47
4, 252672, Note_on_c, 2, 50, 0
4, 252672, Note_on_c, 2, 51, 47
4, 252800, Note_on_c, 2, 51, 0
4, 252800, Note_on_c, 2, 50, 47
4, 252928, Note_on_c, 2, 50, 0
4, 252928, Note_on_c, 2, 51, 47
4, 253056, Note_on_c, 2, 51, 0
4, 253056, Note_on_c, 2, 50, 47
4, 253184, Note_on_c, 2, 50, 0
4, 253184, Note_on_c, 2, 51, 47
4, 253312, Note_on_c, 2, 51, 0
4, 253312, Note_on_c, 2, 50, 47
4, 253440, Note_on_c, 2, 50, 0
4, 253440, Note_on_c, 2, 51, 47
4, 253568, Note_on_c, 2, 51, 0
4, 253568, Note_on_c, 2, 50, 47
4, 253696, Note_on_c, 2, 50, 0
4, 253696, Note_on_c, 2, 51, 47
4, 253824, Note_on_c, 2, 51, 0
4, 253824, Note_on_c, 2, 50, 47
4, 253952, Note_on_c, 2, 50, 0
4, 253952, Note_on_c, 2, 51, 47
4, 254080, Note_on_c, 2, 51, 0
4, 254080, Note_on_c, 2, 50, 47
4, 254208, Note_on_c, 2, 50, 0
4, 254208, Note_on_c, 2, 51, 47
4, 254336, Note_on_c, 2, 51, 0
4, 254336, Note_on_c, 2, 50, 47
4, 254464, Note_on_c, 2, 50, 0
4, 254464, Note_on_c, 2, 51, 47
4, 254592, Note_on_c, 2, 51, 0
4, 254592, Note_on_c, 2, 50, 47
4, 254720, Note_on_c, 2, 50, 0
4, 254720, Note_on_c, 2, 51, 47
4, 254848, Note_on_c, 2, 51, 0
4, 254848, Note_on_c, 2, 50, 47
4, 254976, Note_on_c, 2, 50, 0
4, 254976, Note_on_c, 2, 51, 47
4, 255104, Note_on_c, 2, 51, 0
4, 255104, Note_on_c, 2, 50, 47
4, 255232, Note_on_c, 2, 50, 0
4, 255232, Note_on_c, 2, 51, 47
4, 255360, Note_on_c, 2, 51, 0
4, 255360, Note_on_c, 2, 50, 47
4, 255488, Note_on_c, 2, 50, 0
4, 255488, Note_on_c, 2, 51, 47
4, 255616, Note_on_c, 2, 51, 0
4, 255616, Note_on_c, 2, 50, 47
4, 255744, Note_on_c, 2, 50, 0
4, 255744, Note_on_c, 2, 48, 47
4, 255872, Note_on_c, 2, 48, 0
4, 255872, Note_on_c, 2, 50, 47
4, 256000, Note_on_c, 2, 50, 0
4, 256000, Note_on_c, 2, 52, 47
4, 258048, Note_on_c, 2, 52, 0
4, 260096, Note_on_c, 2, 53, 47
4, 262144, Note_on_c, 2, 53, 0
4, 262144, Note_on_c, 2, 56, 47
4, 264192, Note_on_c, 2, 56, 0
4, 264192, Note_on_c, 2, 48, 47
4, 264448, Note_on_c, 2, 48, 0
4, 264448, Note_on_c, 2, 47, 47
4, 264704, Note_on_c, 2, 47, 0
4, 264704, Note_on_c, 2, 48, 47
4, 264832, Note_on_c, 2, 48, 0
4, 264832, Note_on_c, 2, 47, 47
4, 264960, Note_on_c, 2, 47, 0
4, 264960, Note_on_c, 2, 48, 47
4, 265088, Note_on_c, 2, 48, 0
4, 265088, Note_on_c, 2, 47, 47
4, 265216, Note_on_c, 2, 47, 0
4, 265216, Note_on_c, 2, 48, 47
4, 265344, Note_on_c, 2, 48, 0
4, 265344, Note_on_c, 2, 47, 47
4, 265472, Note_on_c, 2, 47, 0
4, 265472, Note_on_c, 2, 48, 47
4, 265600, Note_on_c, 2, 48, 0
4, 265600, Note_on_c, 2, 47, 47
4, 265728, Note_on_c, 2, 47, 0
4, 265728, Note_on_c, 2, 48, 47
4, 265856, Note_on_c, 2, 48, 0
4, 265856, Note_on_c, 2, 47, 47
4, 265984, Note_on_c, 2, 47, 0
4, 265984, Note_on_c, 2, 48, 47
4, 266112, Note_on_c, 2, 48, 0
4, 266112, Note_on_c, 2, 47, 47
4, 266240, Note_on_c, 2, 47, 0
4, 266240, Note_on_c, 2, 48, 47
4, 266368, Note_on_c, 2, 48, 0
4, 266368, Note_on_c, 2, 47, 47
4, 266496, Note_on_c, 2, 47, 0
4, 266496, Note_on_c, 2, 48, 47
4, 266624, Note_on_c, 2, 48, 0
4, 266624, Note_on_c, 2, 47, 47
4, 266752, Note_on_c, 2, 47, 0
4, 266752, Note_on_c, 2, 48, 47
4, 266880, Note_on_c, 2, 48, 0
4, 266880, Note_on_c, 2, 47, 47
4, 267008, Note_on_c, 2, 47, 0
4, 267008, Note_on_c, 2, 48, 47
4, 267136, Note_on_c, 2, 48, 0
4, 267136, Note_on_c, 2, 47, 47
4, 267264, Note_on_c, 2, 47, 0
4, 267264, Note_on_c, 2, 48, 47
4, 267392, Note_on_c, 2, 48, 0
4, 267392, Note_on_c, 2, 47, 47
4, 267520, Note_on_c, 2, 47, 0
4, 267520, Note_on_c, 2, 48, 47
4, 267648, Note_on_c, 2, 48, 0
4, 267648, Note_on_c, 2, 47, 47
4, 267776, Note_on_c, 2, 47, 0
4, 267776, Note_on_c, 2, 48, 47
4, 267904, Note_on_c, 2, 48, 0
4, 267904, Note_on_c, 2, 47, 47
4, 268032, Note_on_c, 2, 47, 0
4, 268032, Note_on_c, 2, 45, 47
4, 268160, Note_on_c, 2, 45, 0
4, 268160, Note_on_c, 2, 47, 47
4, 268288, Note_on_c, 2, 47, 0
4, 268288, Note_on_c, 2, 48, 47
4, 270336, Note_on_c, 2, 48, 0
4, 272384, Note_on_c, 2, 60, 47
4, 274432, Note_on_c, 2, 60, 0
4, 274432, Note_on_c, 2, 63, 47
4, 276480, Note_on_c, 2, 63, 0
4, 276480, Note_on_c, 2, 55, 47
4, 276736, Note_on_c, 2, 55, 0
4, 276736, Note_on_c, 2, 54, 47
4, 276992, Note_on_c, 2, 54, 0
4, 276992, Note_on_c, 2, 55, 47
4, 277120, Note_on_c, 2, 55, 0
4, 277120, Note_on_c, 2, 54, 47
4, 277248, Note_on_c, 2, 54, 0
4, 277248, Note_on_c, 2, 55, 47
4, 277376, Note_on_c, 2, 55, 0
4, 277376, Note_on_c, 2, 54, 47
4, 277504, Note_on_c, 2, 54, 0
4, 277504, Note_on_c, 2, 55, 47
4, 277632, Note_on_c, 2, 55, 0
4, 277632, Note_on_c, 2, 54, 47
4, 277760, Note_on_c, 2, 54, 0
4, 277760, Note_on_c, 2, 55, 47
4, 277888, Note_on_c, 2, 55, 0
4, 277888, Note_on_c, 2, 54, 47
4, 278016, Note_on_c, 2, 54, 0
4, 278016, Note_on_c, 2, 55, 47
4, 278144, Note_on_c, 2, 55, 0
4, 278144, Note_on_c, 2, 54, 47
4, 278272, Note_on_c, 2, 54, 0
4, 278272, Note_on_c, 2, 55, 47
4, 278400, Note_on_c, 2, 55, 0
4, 278400, Note_on_c, 2, 54, 47
4, 278528, Note_on_c, 2, 54, 0
4, 278528, Note_on_c, 2, 55, 47
4, 278656, Note_on_c, 2, 55, 0
4, 278656, Note_on_c, 2, 54, 47
4, 278784, Note_on_c, 2, 54, 0
4, 278784, Note_on_c, 2, 55, 47
4, 278912, Note_on_c, 2, 55, 0
4, 278912, Note_on_c, 2, 54, 47
4, 279040, Note_on_c, 2, 54, 0
4, 279040, Note_on_c, 2, 55, 47
4, 279168, Note_on_c, 2, 55, 0
4, 279168, Note_on_c, 2, 54, 47
4, 279296, Note_on_c, 2, 54, 0
4, 279296, Note_on_c, 2, 55, 47
4, 279424, Note_on_c, 2, 55, 0
4, 279424, Note_on_c, 2, 54, 47
4, 279552, Note_on_c, 2, 54, 0
4, 279552, Note_on_c, 2, 55, 47
4, 279680, Note_on_c, 2, 55, 0
4, 279680, Note_on_c, 2, 54, 47
4, 279808, Note_on_c, 2, 54, 0
4, 279808, Note_on_c, 2, 55, 47
4, 279936, Note_on_c, 2, 55, 0
4, 279936, Note_on_c, 2, 54, 47
4, 280064, Note_on_c, 2, 54, 0
4, 280064, Note_on_c, 2, 55, 47
4, 280192, Note_on_c, 2, 55, 0
4, 280192, Note_on_c, 2, 54, 47
4, 280320, Note_on_c, 2, 54, 0
4, 280320, Note_on_c, 2, 52, 47
4, 280448, Note_on_c, 2, 52, 0
4, 280448, Note_on_c, 2, 54, 47
4, 280576, Note_on_c, 2, 54, 0
4, 280576, Note_on_c, 2, 55, 47
4, 282624, Note_on_c, 2, 55, 0
4, 283648, Note_on_c, 2, 55, 47
4, 284672, Note_on_c, 2, 55, 0
4, 284672, Note_on_c, 2, 57, 47
4, 285696, Note_on_c, 2, 57, 0
4, 285696, Note_on_c, 2, 60, 47
4, 286208, Note_on_c, 2, 60, 0
4, 286208, Note_on_c, 2, 58, 47
4, 286720, Note_on_c, 2, 58, 0
4, 286720, Note_on_c, 2, 60, 47
4, 287744, Note_on_c, 2, 60, 0
4, 287744, Note_on_c, 2, 60, 47
4, 289792, Note_on_c, 2, 60, 0
4, 289792, Note_on_c, 2, 58, 47
4, 290304, Note_on_c, 2, 58, 0
4, 290304, Note_on_c, 2, 57, 47
4, 290816, Note_on_c, 2, 57, 0
4, 290816, Note_on_c, 2, 58, 47
4, 291328, Note_on_c, 2, 58, 0
4, 291328, Note_on_c, 2, 60, 47
4, 291840, Note_on_c, 2, 60, 0
4, 291840, Note_on_c, 2, 58, 47
4, 292352, Note_on_c, 2, 58, 0
4, 292352, Note_on_c, 2, 60, 47
4, 292864, Note_on_c, 2, 60, 0
4, 292864, Note_on_c, 2, 60, 47
4, 294400, Note_on_c, 2, 60, 0
4, 294400, Note_on_c, 2, 62, 47
4, 294912, Note_on_c, 2, 62, 0
4, 294912, Note_on_c, 2, 62, 47
4, 295936, Note_on_c, 2, 62, 0
4, 295936, Note_on_c, 2, 60, 47
4, 296960, Note_on_c, 2, 60, 0
4, 296960, Note_on_c, 2, 58, 47
4, 297984, Note_on_c, 2, 58, 0
4, 297984, Note_on_c, 2, 55, 47
4, 299008, Note_on_c, 2, 55, 0
4, 299008, Note_on_c, 2, 60, 47
4, 300032, Note_on_c, 2, 60, 0
4, 300032, Note_on_c, 2, 57, 47
4, 301056, Note_on_c, 2, 57, 0
4, 301056, Note_on_c, 2, 62, 47
4, 302080, Note_on_c, 2, 62, 0
4, 302080, Note_on_c, 2, 60, 47
4, 303104, Note_on_c, 2, 60, 0
4, 303104, Note_on_c, 2, 62, 47
4, 304128, Note_on_c, 2, 62, 0
4, 304128, Note_on_c, 2, 58, 47
4, 305152, Note_on_c, 2, 58, 0
4, 305152, Note_on_c, 2, 63, 47
4, 306176, Note_on_c, 2, 63, 0
4, 306176, Note_on_c, 2, 62, 47
4, 307200, Note_on_c, 2, 62, 0
4, 307200, Note_on_c, 2, 60, 47
4, 308224, Note_on_c, 2, 60, 0
4, 308224, Note_on_c, 2, 58, 47
4, 309248, Note_on_c, 2, 58, 0
4, 309248, Note_on_c, 2, 60, 47
4, 310272, Note_on_c, 2, 60, 0
4, 310272, Note_on_c, 2, 57, 47
4, 311296, Note_on_c, 2, 57, 0
4, 311296, Note_on_c, 2, 62, 47
4, 312320, Note_on_c, 2, 62, 0
4, 312320, Note_on_c, 2, 50, 47
4, 313344, Note_on_c, 2, 50, 0
4, 313344, Note_on_c, 2, 55, 47
4, 314368, Note_on_c, 2, 55, 0
4, 314368, Note_on_c, 2, 50, 47
4, 315392, Note_on_c, 2, 50, 0
4, 315392, Note_on_c, 2, 55, 47
4, 316416, Note_on_c, 2, 55, 0
4, 316416, Note_on_c, 2, 57, 47
4, 317440, Note_on_c, 2, 57, 0
4, 317440, Note_on_c, 2, 55, 47
4, 318464, Note_on_c, 2, 55, 0
4, 318464, Note_on_c, 2, 53, 47
4, 319488, Note_on_c, 2, 53, 0
4, 319488, Note_on_c, 2, 51, 47
4, 320512, Note_on_c, 2, 51, 0
4, 320512, Note_on_c, 2, 53, 47
4, 321536, Note_on_c, 2, 53, 0
4, 321536, Note_on_c, 2, 51, 47
4, 322560, Note_on_c, 2, 51, 0
4, 322560, Note_on_c, 2, 50, 47
4, 323584, Note_on_c, 2, 50, 0
4, 323584, Note_on_c, 2, 48, 47
4, 324608, Note_on_c, 2, 48, 0
4, 324608, Note_on_c, 2, 51, 47
4, 325632, Note_on_c, 2, 51, 0
4, 325632, Note_on_c, 2, 46, 47
4, 326656, Note_on_c, 2, 46, 0
4, 326656, Note_on_c, 2, 48, 47
4, 327680, Note_on_c, 2, 48, 0
4, 327680, Note_on_c, 2, 50, 47
4, 328704, Note_on_c, 2, 50, 0
4, 328704, Note_on_c, 2, 48, 47
4, 329728, Note_on_c, 2, 48, 0
4, 329728, Note_on_c, 2, 50, 47
4, 330752, Note_on_c, 2, 50, 0
4, 330752, Note_on_c, 2, 45, 47
4, 331776, Note_on_c, 2, 45, 0
4, 331776, Note_on_c, 2, 47, 47
4, 332288, Note_on_c, 2, 47, 0
4, 332288, Note_on_c, 2, 45, 47
4, 332800, Note_on_c, 2, 45, 0
4, 332800, Note_on_c, 2, 43, 47
4, 333312, Note_on_c, 2, 43, 0
4, 333312, Note_on_c, 2, 45, 47
4, 333824, Note_on_c, 2, 45, 0
4, 333824, Note_on_c, 2, 47, 47
4, 334336, Note_on_c, 2, 47, 0
4, 334336, Note_on_c, 2, 48, 47
4, 334848, Note_on_c, 2, 48, 0
4, 334848, Note_on_c, 2, 50, 47
4, 335360, Note_on_c, 2, 50, 0
4, 335360, Note_on_c, 2, 51, 47
4, 335872, Note_on_c, 2, 51, 0
4, 335872, Note_on_c, 2, 53, 47
4, 336384, Note_on_c, 2, 53, 0
4, 336384, Note_on_c, 2, 55, 47
4, 336896, Note_on_c, 2, 55, 0
4, 336896, Note_on_c, 2, 56, 47
4, 337408, Note_on_c, 2, 56, 0
4, 337408, Note_on_c, 2, 55, 47
4, 337920, Note_on_c, 2, 55, 0
4, 337920, Note_on_c, 2, 58, 47
4, 338432, Note_on_c, 2, 58, 0
4, 338432, Note_on_c, 2, 57, 47
4, 338944, Note_on_c, 2, 57, 0
4, 338944, Note_on_c, 2, 55, 47
4, 339456, Note_on_c, 2, 55, 0
4, 339456, Note_on_c, 2, 53, 47
4, 339968, Note_on_c, 2, 53, 0
4, 339968, Note_on_c, 2, 52, 47
4, 340480, Note_on_c, 2, 52, 0
4, 340480, Note_on_c, 2, 50, 47
4, 340992, Note_on_c, 2, 50, 0
4, 340992, Note_on_c, 2, 48, 47
4, 341504, Note_on_c, 2, 48, 0
4, 341504, Note_on_c, 2, 46, 47
4, 342016, Note_on_c, 2, 46, 0
4, 342016, Note_on_c, 2, 45, 47
4, 342528, Note_on_c, 2, 45, 0
4, 342528, Note_on_c, 2, 43, 47
4, 343040, Note_on_c, 2, 43, 0
4, 343040, Note_on_c, 2, 42, 47
4, 343552, Note_on_c, 2, 42, 0
4, 343552, Note_on_c, 2, 45, 47
4, 343808, Note_on_c, 2, 45, 0
4, 343808, Note_on_c, 2, 43, 47
4, 344064, Note_on_c, 2, 43, 0
4, 344064, Note_on_c, 2, 45, 47
4, 345088, Note_on_c, 2, 45, 0
4, 345088, Note_on_c, 2, 38, 47
4, 346112, Note_on_c, 2, 38, 0
4, 346112, Note_on_c, 2, 45, 47
4, 347136, Note_on_c, 2, 45, 0
4, 347136, Note_on_c, 2, 48, 47
4, 347648, Note_on_c, 2, 48, 0
4, 347648, Note_on_c, 2, 46, 47
4, 348160, Note_on_c, 2, 46, 0
4, 348160, Note_on_c, 2, 48, 47
4, 349184, Note_on_c, 2, 48, 0
4, 349184, Note_on_c, 2, 48, 47
4, 350208, Note_on_c, 2, 48, 0
4, 350208, Note_on_c, 2, 48, 47
4, 352256, Note_on_c, 2, 48, 0
4, 352256, Note_on_c, 2, 46, 47
4, 352512, Note_on_c, 2, 46, 0
4, 352512, Note_on_c, 2, 48, 47
4, 352768, Note_on_c, 2, 48, 0
4, 352768, Note_on_c, 2, 46, 47
4, 352870, Note_on_c, 2, 46, 0
4, 352870, Note_on_c, 2, 48, 47
4, 352972, Note_on_c, 2, 48, 0
4, 352972, Note_on_c, 2, 46, 47
4, 353075, Note_on_c, 2, 46, 0
4, 353075, Note_on_c, 2, 48, 47
4, 353177, Note_on_c, 2, 48, 0
4, 353177, Note_on_c, 2, 46, 47
4, 353280, Note_on_c, 2, 46, 0
4, 353280, Note_on_c, 2, 45, 47
4, 354304, Note_on_c, 2, 45, 0
4, 354304, Note_on_c, 2, 43, 47
4, 355328, Note_on_c, 2, 43, 0
4, 355328, Note_on_c, 2, 45, 47
4, 356352, Note_on_c, 2, 45, 0
4, 356352, Note_on_c, 2, 46, 47
4, 357376, Note_on_c, 2, 46, 0
4, 357376, Note_on_c, 2, 48, 47
4, 358400, Note_on_c, 2, 48, 0
4, 358400, Note_on_c, 2, 50, 47
4, 359424, Note_on_c, 2, 50, 0
4, 359424, Note_on_c, 2, 48, 47
4, 360448, Note_on_c, 2, 48, 0
4, 360448, Note_on_c, 2, 50, 47
4, 361472, Note_on_c, 2, 50, 0
4, 361472, Note_on_c, 2, 38, 47
4, 362496, Note_on_c, 2, 38, 0
4, 362496, Note_on_c, 2, 43, 42
4, 363008, Note_on_c, 2, 43, 0
4, 363008, Note_on_c, 2, 50, 41
4, 363520, Note_on_c, 2, 50, 0
4, 363520, Note_on_c, 2, 55, 40
4, 364032, Note_on_c, 2, 55, 0
4, 364032, Note_on_c, 2, 53, 39
4, 364544, Note_on_c, 2, 53, 0
4, 364544, Note_on_c, 2, 51, 39
4, 365056, Note_on_c, 2, 51, 0
4, 365056, Note_on_c, 2, 50, 38
4, 365568, Note_on_c, 2, 50, 0
4, 365568, Note_on_c, 2, 48, 37
4, 366080, Note_on_c, 2, 48, 0
4, 366080, Note_on_c, 2, 47, 36
4, 366592, Note_on_c, 2, 47, 0
4, 366592, Note_on_c, 2, 48, 35
4, 367104, Note_on_c, 2, 48, 0
4, 367104, Note_on_c, 2, 46, 34
4, 367616, Note_on_c, 2, 46, 0
4, 367616, Note_on_c, 2, 45, 34
4, 368128, Note_on_c, 2, 45, 0
4, 368128, Note_on_c, 2, 46, 33
4, 368384, Note_on_c, 2, 46, 0
4, 368384, Note_on_c, 2, 48, 32
4, 368640, Note_on_c, 2, 48, 0
4, 368640, Note_on_c, 2, 41, 32
4, 368662, Control_c, 2, 7, 127
4, 369152, Note_on_c, 2, 41, 0
4, 369152, Note_on_c, 2, 48, 32
4, 369172, Control_c, 2, 7, 126
4, 369580, Control_c, 2, 7, 125
4, 369664, Note_on_c, 2, 48, 0
4, 369664, Note_on_c, 2, 53, 31
4, 370090, Control_c, 2, 7, 124
4, 370176, Note_on_c, 2, 53, 0
4, 370176, Note_on_c, 2, 51, 31
4, 370498, Control_c, 2, 7, 123
4, 370688, Note_on_c, 2, 51, 0
4, 370688, Note_on_c, 2, 50, 30
4, 371008, Control_c, 2, 7, 122
4, 371200, Note_on_c, 2, 50, 0
4, 371200, Note_on_c, 2, 48, 30
4, 371416, Control_c, 2, 7, 121
4, 371712, Note_on_c, 2, 48, 0
4, 371712, Note_on_c, 2, 46, 29
4, 371824, Control_c, 2, 7, 120
4, 372224, Note_on_c, 2, 46, 0
4, 372224, Note_on_c, 2, 45, 29
4, 372334, Control_c, 2, 7, 119
4, 372736, Note_on_c, 2, 45, 0
4, 372736, Note_on_c, 2, 46, 29
4, 372742, Control_c, 2, 7, 118
4, 373248, Note_on_c, 2, 46, 0
4, 373248, Note_on_c, 2, 45, 28
4, 373252, Control_c, 2, 7, 117
4, 373660, Control_c, 2, 7, 116
4, 373760, Note_on_c, 2, 45, 0
4, 373760, Note_on_c, 2, 43, 28
4, 374170, Control_c, 2, 7, 115
4, 374272, Note_on_c, 2, 43, 0
4, 374272, Note_on_c, 2, 45, 27
4, 374528, Note_on_c, 2, 45, 0
4, 374528, Note_on_c, 2, 46, 27
4, 374578, Control_c, 2, 7, 114
4, 374784, Note_on_c, 2, 46, 0
4, 374784, Note_on_c, 2, 39, 27
4, 374986, Control_c, 2, 7, 113
4, 375496, Control_c, 2, 7, 112
4, 375904, Control_c, 2, 7, 111
4, 376414, Control_c, 2, 7, 110
4, 376822, Control_c, 2, 7, 109
4, 376832, Note_on_c, 2, 39, 0
4, 377332, Control_c, 2, 7, 108
4, 377740, Control_c, 2, 7, 107
4, 378148, Control_c, 2, 7, 106
4, 378658, Control_c, 2, 7, 105
4, 378880, Note_on_c, 2, 39, 24
4, 379066, Control_c, 2, 7, 104
4, 379576, Control_c, 2, 7, 103
4, 379984, Control_c, 2, 7, 102
4, 380494, Control_c, 2, 7, 101
4, 380902, Control_c, 2, 7, 100
4, 380928, Note_on_c, 2, 39, 0
4, 380928, Note_on_c, 2, 38, 22
4, 381310, Control_c, 2, 7, 99
4, 381820, Control_c, 2, 7, 98
4, 382228, Control_c, 2, 7, 97
4, 382738, Control_c, 2, 7, 96
4, 383146, Control_c, 2, 7, 95
4, 383656, Control_c, 2, 7, 94
4, 384064, Control_c, 2, 7, 93
4, 384472, Control_c, 2, 7, 92
4, 384982, Control_c, 2, 7, 91
4, 385390, Control_c, 2, 7, 90
4, 385900, Control_c, 2, 7, 89
4, 386070, Control_c, 2, 7, 87
4, 386274, Control_c, 2, 7, 86
4, 386376, Control_c, 2, 7, 85
4, 386478, Control_c, 2, 7, 84
4, 386580, Control_c, 2, 7, 83
4, 386784, Control_c, 2, 7, 82
4, 386886, Control_c, 2, 7, 81
4, 386988, Control_c, 2, 7, 80
4, 387090, Control_c, 2, 7, 79
4, 387192, Control_c, 2, 7, 78
4, 387396, Control_c, 2, 7, 77
4, 387498, Control_c, 2, 7, 76
4, 387600, Control_c, 2, 7, 75
4, 387702, Control_c, 2, 7, 74
4, 387906, Control_c, 2, 7, 73
4, 388008, Control_c, 2, 7, 72
4, 388110, Control_c, 2, 7, 71
4, 388212, Control_c, 2, 7, 70
4, 388314, Control_c, 2, 7, 69
4, 388518, Control_c, 2, 7, 68
4, 388620, Control_c, 2, 7, 67
4, 388722, Control_c, 2, 7, 66
4, 388824, Control_c, 2, 7, 65
4, 388926, Control_c, 2, 7, 64
4, 389130, Control_c, 2, 7, 63
4, 389232, Control_c, 2, 7, 62
4, 389334, Control_c, 2, 7, 61
4, 389436, Control_c, 2, 7, 60
4, 389640, Control_c, 2, 7, 59
4, 389742, Control_c, 2, 7, 58
4, 389844, Control_c, 2, 7, 57
4, 389946, Control_c, 2, 7, 56
4, 390048, Control_c, 2, 7, 55
4, 390252, Control_c, 2, 7, 54
4, 390354, Control_c, 2, 7, 53
4, 390456, Control_c, 2, 7, 52
4, 390558, Control_c, 2, 7, 51
4, 390762, Control_c, 2, 7, 50
4, 390864, Control_c, 2, 7, 49
4, 390966, Control_c, 2, 7, 48
4, 391068, Control_c, 2, 7, 47
4, 391170, Control_c, 2, 7, 46
4, 391374, Control_c, 2, 7, 45
4, 391476, Control_c, 2, 7, 44
4, 391578, Control_c, 2, 7, 43
4, 391680, Control_c, 2, 7, 42
4, 391782, Control_c, 2, 7, 41
4, 391986, Control_c, 2, 7, 40
4, 392088, Control_c, 2, 7, 39
4, 392190, Control_c, 2, 7, 38
4, 392192, Note_on_c, 2, 38, 0
4, 397312, Control_c, 2, 121, 127
4, 397312, End_track
5, 0, Start_track
5, 0, Program_c, 3, 42
5, 0, Control_c, 3, 121, 127
5, 0, Control_c, 3, 91, 127
5, 0, Control_c, 3, 7, 100
5, 0, Control_c, 3, 1, 10
5, 0, Control_c, 3, 10, 70
5, 0, Title_t, "Violone"
5, 6144, Note_on_c, 3, 39, 47
5, 8192, Note_on_c, 3, 39, 0
5, 8192, Note_on_c, 3, 43, 47
5, 10240, Note_on_c, 3, 43, 0
5, 10240, Note_on_c, 3, 44, 47
5, 12288, Note_on_c, 3, 44, 0
5, 12288, Note_on_c, 3, 46, 47
5, 16384, Note_on_c, 3, 46, 0
5, 16384, Note_on_c, 3, 48, 47
5, 18432, Note_on_c, 3, 48, 0
5, 18432, Note_on_c, 3, 44, 47
5, 20480, Note_on_c, 3, 44, 0
5, 20480, Note_on_c, 3, 41, 47
5, 22528, Note_on_c, 3, 41, 0
5, 22528, Note_on_c, 3, 46, 47
5, 24576, Note_on_c, 3, 46, 0
5, 24576, Note_on_c, 3, 39, 47
5, 26624, Note_on_c, 3, 39, 0
5, 26624, Note_on_c, 3, 38, 47
5, 28672, Note_on_c, 3, 38, 0
5, 28672, Note_on_c, 3, 36, 47
5, 30720, Note_on_c, 3, 36, 0
5, 30720, Note_on_c, 3, 34, 47
5, 32768, Note_on_c, 3, 34, 0
5, 32768, Note_on_c, 3, 38, 47
5, 34816, Note_on_c, 3, 38, 0
5, 34816, Note_on_c, 3, 39, 47
5, 36864, Note_on_c, 3, 39, 0
5, 36864, Note_on_c, 3, 41, 47
5, 40960, Note_on_c, 3, 41, 0
5, 40960, Note_on_c, 3, 43, 47
5, 43008, Note_on_c, 3, 43, 0
5, 43008, Note_on_c, 3, 39, 47
5, 47104, Note_on_c, 3, 39, 0
5, 47104, Note_on_c, 3, 41, 47
5, 49152, Note_on_c, 3, 41, 0
5, 49152, Note_on_c, 3, 34, 47
5, 51200, Note_on_c, 3, 34, 0
5, 51200, Note_on_c, 3, 46, 47
5, 53248, Note_on_c, 3, 46, 0
5, 53248, Note_on_c, 3, 44, 47
5, 55296, Note_on_c, 3, 44, 0
5, 55296, Note_on_c, 3, 43, 47
5, 57344, Note_on_c, 3, 43, 0
5, 57344, Note_on_c, 3, 41, 47
5, 59392, Note_on_c, 3, 41, 0
5, 59392, Note_on_c, 3, 39, 47
5, 61440, Note_on_c, 3, 39, 0
5, 61440, Note_on_c, 3, 38, 47
5, 62464, Note_on_c, 3, 38, 0
5, 62464, Note_on_c, 3, 39, 47
5, 63488, Note_on_c, 3, 39, 0
5, 63488, Note_on_c, 3, 41, 47
5, 65536, Note_on_c, 3, 41, 0
5, 65536, Note_on_c, 3, 29, 47
5, 67584, Note_on_c, 3, 29, 0
5, 67584, Note_on_c, 3, 34, 47
5, 69632, Note_on_c, 3, 34, 0
5, 69632, Note_on_c, 3, 38, 47
5, 71680, Note_on_c, 3, 38, 0
5, 71680, Note_on_c, 3, 39, 47
5, 73728, Note_on_c, 3, 39, 0
5, 73728, Note_on_c, 3, 41, 47
5, 77824, Note_on_c, 3, 41, 0
5, 77824, Note_on_c, 3, 43, 47
5, 79872, Note_on_c, 3, 43, 0
5, 79872, Note_on_c, 3, 39, 47
5, 83968, Note_on_c, 3, 39, 0
5, 83968, Note_on_c, 3, 41, 47
5, 86016, Note_on_c, 3, 41, 0
5, 86016, Note_on_c, 3, 34, 47
5, 88064, Note_on_c, 3, 34, 0
5, 88064, Note_on_c, 3, 31, 47
5, 90112, Note_on_c, 3, 31, 0
5, 90112, Note_on_c, 3, 32, 47
5, 92160, Note_on_c, 3, 32, 0
5, 92160, Note_on_c, 3, 34, 47
5, 96256, Note_on_c, 3, 34, 0
5, 96256, Note_on_c, 3, 36, 47
5, 98304, Note_on_c, 3, 36, 0
5, 98304, Note_on_c, 3, 32, 47
5, 102400, Note_on_c, 3, 32, 0
5, 102400, Note_on_c, 3, 34, 47
5, 104448, Note_on_c, 3, 34, 0
5, 104448, Note_on_c, 3, 27, 47
5, 106496, Note_on_c, 3, 27, 0
5, 106496, Note_on_c, 3, 39, 47
5, 108544, Note_on_c, 3, 39, 0
5, 108544, Note_on_c, 3, 37, 47
5, 110592, Note_on_c, 3, 37, 0
5, 110592, Note_on_c, 3, 36, 47
5, 112640, Note_on_c, 3, 36, 0
5, 112640, Note_on_c, 3, 34, 47
5, 114688, Note_on_c, 3, 34, 0
5, 114688, Note_on_c, 3, 32, 47
5, 116736, Note_on_c, 3, 32, 0
5, 116736, Note_on_c, 3, 31, 47
5, 117760, Note_on_c, 3, 31, 0
5, 117760, Note_on_c, 3, 32, 47
5, 118784, Note_on_c, 3, 32, 0
5, 118784, Note_on_c, 3, 34, 47
5, 120832, Note_on_c, 3, 34, 0
5, 120832, Note_on_c, 3, 34, 47
5, 122880, Note_on_c, 3, 34, 0
5, 122880, Note_on_c, 3, 27, 47
5, 124928, Note_on_c, 3, 27, 0
5, 124928, Note_on_c, 3, 39, 47
5, 126976, Note_on_c, 3, 39, 0
5, 126976, Note_on_c, 3, 41, 47
5, 129024, Note_on_c, 3, 41, 0
5, 129024, Note_on_c, 3, 43, 47
5, 133120, Note_on_c, 3, 43, 0
5, 133120, Note_on_c, 3, 44, 47
5, 135168, Note_on_c, 3, 44, 0
5, 135168, Note_on_c, 3, 41, 47
5, 137216, Note_on_c, 3, 41, 0
5, 137216, Note_on_c, 3, 38, 47
5, 139264, Note_on_c, 3, 38, 0
5, 139264, Note_on_c, 3, 43, 47
5, 141312, Note_on_c, 3, 43, 0
5, 141312, Note_on_c, 3, 36, 47
5, 149504, Note_on_c, 3, 36, 0
5, 149504, Note_on_c, 3, 32, 47
5, 151552, Note_on_c, 3, 32, 0
5, 151552, Note_on_c, 3, 34, 47
5, 153600, Note_on_c, 3, 34, 0
5, 153600, Note_on_c, 3, 36, 47
5, 157696, Note_on_c, 3, 36, 0
5, 157696, Note_on_c, 3, 37, 47
5, 159744, Note_on_c, 3, 37, 0
5, 159744, Note_on_c, 3, 34, 47
5, 163840, Note_on_c, 3, 34, 0
5, 163840, Note_on_c, 3, 36, 47
5, 165888, Note_on_c, 3, 36, 0
5, 165888, Note_on_c, 3, 29, 47
5, 167936, Note_on_c, 3, 29, 0
5, 167936, Note_on_c, 3, 41, 47
5, 169984, Note_on_c, 3, 41, 0
5, 169984, Note_on_c, 3, 39, 47
5, 172032, Note_on_c, 3, 39, 0
5, 172032, Note_on_c, 3, 37, 47
5, 174080, Note_on_c, 3, 37, 0
5, 174080, Note_on_c, 3, 36, 47
5, 176128, Note_on_c, 3, 36, 0
5, 176128, Note_on_c, 3, 34, 47
5, 178176, Note_on_c, 3, 34, 0
5, 178176, Note_on_c, 3, 32, 47
5, 179200, Note_on_c, 3, 32, 0
5, 179200, Note_on_c, 3, 34, 47
5, 180224, Note_on_c, 3, 34, 0
5, 180224, Note_on_c, 3, 36, 47
5, 182272, Note_on_c, 3, 36, 0
5, 182272, Note_on_c, 3, 24, 47
5, 184320, Note_on_c, 3, 24, 0
5, 184320, Note_on_c, 3, 29, 47
5, 190464, Note_on_c, 3, 29, 0
5, 190464, Note_on_c, 3, 34, 47
5, 194560, Note_on_c, 3, 34, 0
5, 194560, Note_on_c, 3, 36, 47
5, 196608, Note_on_c, 3, 36, 0
5, 196608, Note_on_c, 3, 32, 47
5, 200704, Note_on_c, 3, 32, 0
5, 200704, Note_on_c, 3, 34, 47
5, 202752, Note_on_c, 3, 34, 0
5, 202752, Note_on_c, 3, 27, 47
5, 210944, Note_on_c, 3, 27, 0
5, 210944, Note_on_c, 3, 36, 47
5, 212992, Note_on_c, 3, 36, 0
5, 212992, Note_on_c, 3, 37, 47
5, 215040, Note_on_c, 3, 37, 0
5, 215040, Note_on_c, 3, 39, 47
5, 219136, Note_on_c, 3, 39, 0
5, 219136, Note_on_c, 3, 41, 47
5, 221184, Note_on_c, 3, 41, 0
5, 221184, Note_on_c, 3, 37, 47
5, 225280, Note_on_c, 3, 37, 0
5, 225280, Note_on_c, 3, 39, 47
5, 227328, Note_on_c, 3, 39, 0
5, 227328, Note_on_c, 3, 32, 47
5, 229376, Note_on_c, 3, 32, 0
5, 229376, Note_on_c, 3, 44, 47
5, 231424, Note_on_c, 3, 44, 0
5, 231424, Note_on_c, 3, 42, 47
5, 233472, Note_on_c, 3, 42, 0
5, 233472, Note_on_c, 3, 41, 47
5, 235520, Note_on_c, 3, 41, 0
5, 235520, Note_on_c, 3, 39, 47
5, 237568, Note_on_c, 3, 39, 0
5, 237568, Note_on_c, 3, 37, 47
5, 239616, Note_on_c, 3, 37, 0
5, 239616, Note_on_c, 3, 36, 47
5, 240640, Note_on_c, 3, 36, 0
5, 240640, Note_on_c, 3, 37, 47
5, 241664, Note_on_c, 3, 37, 0
5, 241664, Note_on_c, 3, 39, 47
5, 243712, Note_on_c, 3, 39, 0
5, 243712, Note_on_c, 3, 27, 47
5, 245760, Note_on_c, 3, 27, 0
5, 245760, Note_on_c, 3, 32, 47
5, 247808, Note_on_c, 3, 32, 0
5, 247808, Note_on_c, 3, 44, 47
5, 249856, Note_on_c, 3, 44, 0
5, 249856, Note_on_c, 3, 48, 47
5, 251904, Note_on_c, 3, 48, 0
5, 251904, Note_on_c, 3, 39, 47
5, 252160, Note_on_c, 3, 39, 0
5, 252160, Note_on_c, 3, 38, 47
5, 252416, Note_on_c, 3, 38, 0
5, 252416, Note_on_c, 3, 39, 47
5, 252544, Note_on_c, 3, 39, 0
5, 252544, Note_on_c, 3, 38, 47
5, 252672, Note_on_c, 3, 38, 0
5, 252672, Note_on_c, 3, 39, 47
5, 252800, Note_on_c, 3, 39, 0
5, 252800, Note_on_c, 3, 38, 47
5, 252928, Note_on_c, 3, 38, 0
5, 252928, Note_on_c, 3, 39, 47
5, 253056, Note_on_c, 3, 39, 0
5, 253056, Note_on_c, 3, 38, 47
5, 253184, Note_on_c, 3, 38, 0
5, 253184, Note_on_c, 3, 39, 47
5, 253312, Note_on_c, 3, 39, 0
5, 253312, Note_on_c, 3, 38, 47
5, 253440, Note_on_c, 3, 38, 0
5, 253440, Note_on_c, 3, 39, 47
5, 253568, Note_on_c, 3, 39, 0
5, 253568, Note_on_c, 3, 38, 47
5, 253696, Note_on_c, 3, 38, 0
5, 253696, Note_on_c, 3, 39, 47
5, 253824, Note_on_c, 3, 39, 0
5, 253824, Note_on_c, 3, 38, 47
5, 253952, Note_on_c, 3, 38, 0
5, 253952, Note_on_c, 3, 39, 47
5, 254080, Note_on_c, 3, 39, 0
5, 254080, Note_on_c, 3, 38, 47
5, 254208, Note_on_c, 3, 38, 0
5, 254208, Note_on_c, 3, 39, 47
5, 254336, Note_on_c, 3, 39, 0
5, 254336, Note_on_c, 3, 38, 47
5, 254464, Note_on_c, 3, 38, 0
5, 254464, Note_on_c, 3, 39, 47
5, 254592, Note_on_c, 3, 39, 0
5, 254592, Note_on_c, 3, 38, 47
5, 254720, Note_on_c, 3, 38, 0
5, 254720, Note_on_c, 3, 39, 47
5, 254848, Note_on_c, 3, 39, 0
5, 254848, Note_on_c, 3, 38, 47
5, 254976, Note_on_c, 3, 38, 0
5, 254976, Note_on_c, 3, 39, 47
5, 255104, Note_on_c, 3, 39, 0
5, 255104, Note_on_c, 3, 38, 47
5, 255232, Note_on_c, 3, 38, 0
5, 255232, Note_on_c, 3, 39, 47
5, 255360, Note_on_c, 3, 39, 0
5, 255360, Note_on_c, 3, 38, 47
5, 255488, Note_on_c, 3, 38, 0
5, 255488, Note_on_c, 3, 39, 47
5, 255616, Note_on_c, 3, 39, 0
5, 255616, Note_on_c, 3, 38, 47
5, 255744, Note_on_c, 3, 38, 0
5, 255744, Note_on_c, 3, 36, 47
5, 255872, Note_on_c, 3, 36, 0
5, 255872, Note_on_c, 3, 38, 47
5, 256000, Note_on_c, 3, 38, 0
5, 256000, Note_on_c, 3, 40, 47
5, 258048, Note_on_c, 3, 40, 0
5, 260096, Note_on_c, 3, 41, 47
5, 262144, Note_on_c, 3, 41, 0
5, 262144, Note_on_c, 3, 44, 47
5, 264192, Note_on_c, 3, 44, 0
5, 264192, Note_on_c, 3, 36, 47
5, 264448, Note_on_c, 3, 36, 0
5, 264448, Note_on_c, 3, 35, 47
5, 264704, Note_on_c, 3, 35, 0
5, 264704, Note_on_c, 3, 36, 47
5, 264832, Note_on_c, 3, 36, 0
5, 264832, Note_on_c, 3, 35, 47
5, 264960, Note_on_c, 3, 35, 0
5, 264960, Note_on_c, 3, 36, 47
5, 265088, Note_on_c, 3, 36, 0
5, 265088, Note_on_c, 3, 35, 47
5, 265216, Note_on_c, 3, 35, 0
5, 265216, Note_on_c, 3, 36, 47
5, 265344, Note_on_c, 3, 36, 0
5, 265344, Note_on_c, 3, 35, 47
5, 265472, Note_on_c, 3, 35, 0
5, 265472, Note_on_c, 3, 36, 47
5, 265600, Note_on_c, 3, 36, 0
5, 265600, Note_on_c, 3, 35, 47
5, 265728, Note_on_c, 3, 35, 0
5, 265728, Note_on_c, 3, 36, 47
5, 265856, Note_on_c, 3, 36, 0
5, 265856, Note_on_c, 3, 35, 47
5, 265984, Note_on_c, 3, 35, 0
5, 265984, Note_on_c, 3, 36, 47
5, 266112, Note_on_c, 3, 36, 0
5, 266112, Note_on_c, 3, 35, 47
5, 266240, Note_on_c, 3, 35, 0
5, 266240, Note_on_c, 3, 36, 47
5, 266368, Note_on_c, 3, 36, 0
5, 266368, Note_on_c, 3, 35, 47
5, 266496, Note_on_c, 3, 35, 0
5, 266496, Note_on_c, 3, 36, 47
5, 266624, Note_on_c, 3, 36, 0
5, 266624, Note_on_c, 3, 35, 47
5, 266752, Note_on_c, 3, 35, 0
5, 266752, Note_on_c, 3, 36, 47
5, 266880, Note_on_c, 3, 36, 0
5, 266880, Note_on_c, 3, 35, 47
5, 267008, Note_on_c, 3, 35, 0
5, 267008, Note_on_c, 3, 36, 47
5, 267136, Note_on_c, 3, 36, 0
5, 267136, Note_on_c, 3, 35, 47
5, 267264, Note_on_c, 3, 35, 0
5, 267264, Note_on_c, 3, 36, 47
5, 267392, Note_on_c, 3, 36, 0
5, 267392, Note_on_c, 3, 35, 47
5, 267520, Note_on_c, 3, 35, 0
5, 267520, Note_on_c, 3, 36, 47
5, 267648, Note_on_c, 3, 36, 0
5, 267648, Note_on_c, 3, 35, 47
5, 267776, Note_on_c, 3, 35, 0
5, 267776, Note_on_c, 3, 36, 47
5, 267904, Note_on_c, 3, 36, 0
5, 267904, Note_on_c, 3, 35, 47
5, 268032, Note_on_c, 3, 35, 0
5, 268032, Note_on_c, 3, 33, 47
5, 268160, Note_on_c, 3, 33, 0
5, 268160, Note_on_c, 3, 35, 47
5, 268288, Note_on_c, 3, 35, 0
5, 268288, Note_on_c, 3, 36, 47
5, 270336, Note_on_c, 3, 36, 0
5, 272384, Note_on_c, 3, 36, 47
5, 274432, Note_on_c, 3, 36, 0
5, 274432, Note_on_c, 3, 39, 47
5, 276480, Note_on_c, 3, 39, 0
5, 276480, Note_on_c, 3, 31, 47
5, 276736, Note_on_c, 3, 31, 0
5, 276736, Note_on_c, 3, 30, 47
5, 276992, Note_on_c, 3, 30, 0
5, 276992, Note_on_c, 3, 31, 47
5, 277120, Note_on_c, 3, 31, 0
5, 277120, Note_on_c, 3, 30, 47
5, 277248, Note_on_c, 3, 30, 0
5, 277248, Note_on_c, 3, 31, 47
5, 277376, Note_on_c, 3, 31, 0
5, 277376, Note_on_c, 3, 30, 47
5, 277504, Note_on_c, 3, 30, 0
5, 277504, Note_on_c, 3, 31, 47
5, 277632, Note_on_c, 3, 31, 0
5, 277632, Note_on_c, 3, 30, 47
5, 277760, Note_on_c, 3, 30, 0
5, 277760, Note_on_c, 3, 31, 47
5, 277888, Note_on_c, 3, 31, 0
5, 277888, Note_on_c, 3, 30, 47
5, 278016, Note_on_c, 3, 30, 0
5, 278016, Note_on_c, 3, 31, 47
5, 278144, Note_on_c, 3, 31, 0
5, 278144, Note_on_c, 3, 30, 47
5, 278272, Note_on_c, 3, 30, 0
5, 278272, Note_on_c, 3, 31, 47
5, 278400, Note_on_c, 3, 31, 0
5, 278400, Note_on_c, 3, 30, 47
5, 278528, Note_on_c, 3, 30, 0
5, 278528, Note_on_c, 3, 31, 47
5, 278656, Note_on_c, 3, 31, 0
5, 278656, Note_on_c, 3, 30, 47
5, 278784, Note_on_c, 3, 30, 0
5, 278784, Note_on_c, 3, 31, 47
5, 278912, Note_on_c, 3, 31, 0
5, 278912, Note_on_c, 3, 30, 47
5, 279040, Note_on_c, 3, 30, 0
5, 279040, Note_on_c, 3, 31, 47
5, 279168, Note_on_c, 3, 31, 0
5, 279168, Note_on_c, 3, 30, 47
5, 279296, Note_on_c, 3, 30, 0
5, 279296, Note_on_c, 3, 31, 47
5, 279424, Note_on_c, 3, 31, 0
5, 279424, Note_on_c, 3, 30, 47
5, 279552, Note_on_c, 3, 30, 0
5, 279552, Note_on_c, 3, 31, 47
5, 279680, Note_on_c, 3, 31, 0
5, 279680, Note_on_c, 3, 30, 47
5, 279808, Note_on_c, 3, 30, 0
5, 279808, Note_on_c, 3, 31, 47
5, 279936, Note_on_c, 3, 31, 0
5, 279936, Note_on_c, 3, 30, 47
5, 280064, Note_on_c, 3, 30, 0
5, 280064, Note_on_c, 3, 31, 47
5, 280192, Note_on_c, 3, 31, 0
5, 280192, Note_on_c, 3, 30, 47
5, 280320, Note_on_c, 3, 30, 0
5, 280320, Note_on_c, 3, 28, 47
5, 280448, Note_on_c, 3, 28, 0
5, 280448, Note_on_c, 3, 30, 47
5, 280576, Note_on_c, 3, 30, 0
5, 280576, Note_on_c, 3, 31, 47
5, 282624, Note_on_c, 3, 31, 0
5, 283648, Note_on_c, 3, 31, 47
5, 284672, Note_on_c, 3, 31, 0
5, 284672, Note_on_c, 3, 33, 47
5, 285696, Note_on_c, 3, 33, 0
5, 285696, Note_on_c, 3, 34, 47
5, 286720, Note_on_c, 3, 34, 0
5, 286720, Note_on_c, 3, 36, 47
5, 289792, Note_on_c, 3, 36, 0
5, 289792, Note_on_c, 3, 34, 47
5, 290304, Note_on_c, 3, 34, 0
5, 290304, Note_on_c, 3, 33, 47
5, 290816, Note_on_c, 3, 33, 0
5, 290816, Note_on_c, 3, 34, 47
5, 292864, Note_on_c, 3, 34, 0
5, 292864, Note_on_c, 3, 36, 47
5, 294912, Note_on_c, 3, 36, 0
5, 294912, Note_on_c, 3, 38, 47
5, 296960, Note_on_c, 3, 38, 0
5, 296960, Note_on_c, 3, 31, 47
5, 299008, Note_on_c, 3, 31, 0
5, 299008, Note_on_c, 3, 36, 47
5, 301056, Note_on_c, 3, 36, 0
5, 301056, Note_on_c, 3, 38, 47
5, 305152, Note_on_c, 3, 38, 0
5, 305152, Note_on_c, 3, 39, 47
5, 307200, Note_on_c, 3, 39, 0
5, 307200, Note_on_c, 3, 36, 47
5, 311296, Note_on_c, 3, 36, 0
5, 311296, Note_on_c, 3, 38, 47
5, 313344, Note_on_c, 3, 38, 0
5, 313344, Note_on_c, 3, 31, 47
5, 315392, Note_on_c, 3, 31, 0
5, 315392, Note_on_c, 3, 43, 47
5, 317440, Note_on_c, 3, 43, 0
5, 317440, Note_on_c, 3, 41, 47
5, 319488, Note_on_c, 3, 41, 0
5, 319488, Note_on_c, 3, 39, 47
5, 321536, Note_on_c, 3, 39, 0
5, 321536, Note_on_c, 3, 38, 47
5, 323584, Note_on_c, 3, 38, 0
5, 323584, Note_on_c, 3, 36, 47
5, 325632, Note_on_c, 3, 36, 0
5, 325632, Note_on_c, 3, 34, 47
5, 326656, Note_on_c, 3, 34, 0
5, 326656, Note_on_c, 3, 36, 47
5, 327680, Note_on_c, 3, 36, 0
5, 327680, Note_on_c, 3, 38, 47
5, 329728, Note_on_c, 3, 38, 0
5, 329728, Note_on_c, 3, 36, 47
5, 331776, Note_on_c, 3, 36, 0
5, 331776, Note_on_c, 3, 35, 47
5, 333824, Note_on_c, 3, 35, 0
5, 337920, Note_on_c, 3, 34, 47
5, 339968, Note_on_c, 3, 34, 0
5, 344064, Note_on_c, 3, 33, 47
5, 345088, Note_on_c, 3, 33, 0
5, 345088, Note_on_c, 3, 26, 47
5, 346112, Note_on_c, 3, 26, 0
5, 346112, Note_on_c, 3, 33, 47
5, 347136, Note_on_c, 3, 33, 0
5, 347136, Note_on_c, 3, 36, 47
5, 347648, Note_on_c, 3, 36, 0
5, 347648, Note_on_c, 3, 34, 47
5, 348160, Note_on_c, 3, 34, 0
5, 348160, Note_on_c, 3, 36, 47
5, 349184, Note_on_c, 3, 36, 0
5, 349184, Note_on_c, 3, 36, 47
5, 350208, Note_on_c, 3, 36, 0
5, 350208, Note_on_c, 3, 36, 47
5, 352256, Note_on_c, 3, 36, 0
5, 352256, Note_on_c, 3, 34, 47
5, 353280, Note_on_c, 3, 34, 0
5, 353280, Note_on_c, 3, 33, 47
5, 354304, Note_on_c, 3, 33, 0
5, 354304, Note_on_c, 3, 31, 47
5, 355328, Note_on_c, 3, 31, 0
5, 355328, Note_on_c, 3, 33, 47
5, 356352, Note_on_c, 3, 33, 0
5, 356352, Note_on_c, 3, 34, 47
5, 357376, Note_on_c, 3, 34, 0
5, 357376, Note_on_c, 3, 36, 47
5, 358400, Note_on_c, 3, 36, 0
5, 358400, Note_on_c, 3, 38, 47
5, 359424, Note_on_c, 3, 38, 0
5, 359424, Note_on_c, 3, 36, 47
5, 360448, Note_on_c, 3, 36, 0
5, 360448, Note_on_c, 3, 38, 47
5, 361472, Note_on_c, 3, 38, 0
5, 361472, Note_on_c, 3, 26, 47
5, 362496, Note_on_c, 3, 26, 0
5, 362496, Note_on_c, 3, 31, 42
5, 364544, Note_on_c, 3, 31, 0
5, 366592, Note_on_c, 3, 36, 35
5, 368640, Note_on_c, 3, 36, 0
5, 368640, Note_on_c, 3, 29, 32
5, 370688, Note_on_c, 3, 29, 0
5, 374784, Note_on_c, 3, 27, 27
5, 376832, Note_on_c, 3, 27, 0
5, 378880, Note_on_c, 3, 27, 24
5, 380928, Note_on_c, 3, 27, 0
5, 380928, Note_on_c, 3, 26, 22
5, 381142, Control_c, 3, 7, 99
5, 381346, Control_c, 3, 7, 98
5, 381550, Control_c, 3, 7, 97
5, 381754, Control_c, 3, 7, 96
5, 381958, Control_c, 3, 7, 95
5, 382162, Control_c, 3, 7, 94
5, 382264, Control_c, 3, 7, 93
5, 382468, Control_c, 3, 7, 92
5, 382672, Control_c, 3, 7, 91
5, 382876, Control_c, 3, 7, 90
5, 383080, Control_c, 3, 7, 89
5, 383182, Control_c, 3, 7, 88
5, 383386, Control_c, 3, 7, 87
5, 383590, Control_c, 3, 7, 86
5, 383794, Control_c, 3, 7, 85
5, 383998, Control_c, 3, 7, 84
5, 384202, Control_c, 3, 7, 83
5, 384304, Control_c, 3, 7, 82
5, 384508, Control_c, 3, 7, 81
5, 384712, Control_c, 3, 7, 80
5, 384916, Control_c, 3, 7, 79
5, 385120, Control_c, 3, 7, 78
5, 385222, Control_c, 3, 7, 77
5, 385426, Control_c, 3, 7, 76
5, 385630, Control_c, 3, 7, 75
5, 385834, Control_c, 3, 7, 74
5, 386038, Control_c, 3, 7, 73
5, 386198, Control_c, 3, 7, 72
5, 386402, Control_c, 3, 7, 71
5, 386504, Control_c, 3, 7, 70
5, 386708, Control_c, 3, 7, 69
5, 386810, Control_c, 3, 7, 68
5, 387014, Control_c, 3, 7, 67
5, 387116, Control_c, 3, 7, 66
5, 387320, Control_c, 3, 7, 65
5, 387422, Control_c, 3, 7, 64
5, 387524, Control_c, 3, 7, 63
5, 387728, Control_c, 3, 7, 62
5, 387830, Control_c, 3, 7, 61
5, 388034, Control_c, 3, 7, 60
5, 388136, Control_c, 3, 7, 59
5, 388340, Control_c, 3, 7, 58
5, 388442, Control_c, 3, 7, 57
5, 388544, Control_c, 3, 7, 56
5, 388748, Control_c, 3, 7, 55
5, 388850, Control_c, 3, 7, 54
5, 389054, Control_c, 3, 7, 53
5, 389156, Control_c, 3, 7, 52
5, 389360, Control_c, 3, 7, 51
5, 389462, Control_c, 3, 7, 50
5, 389564, Control_c, 3, 7, 49
5, 389768, Control_c, 3, 7, 48
5, 389870, Control_c, 3, 7, 47
5, 390074, Control_c, 3, 7, 46
5, 390176, Control_c, 3, 7, 45
5, 390380, Control_c, 3, 7, 44
5, 390482, Control_c, 3, 7, 43
5, 390686, Control_c, 3, 7, 42
5, 390788, Control_c, 3, 7, 41
5, 390890, Control_c, 3, 7, 40
5, 391094, Control_c, 3, 7, 39
5, 391196, Control_c, 3, 7, 38
5, 391400, Control_c, 3, 7, 37
5, 391502, Control_c, 3, 7, 36
5, 391706, Control_c, 3, 7, 35
5, 391808, Control_c, 3, 7, 34
5, 391910, Control_c, 3, 7, 33
5, 392114, Control_c, 3, 7, 32
5, 392192, Note_on_c, 3, 26, 0
5, 392216, Control_c, 3, 7, 31
5, 397312, Control_c, 3, 121, 127
5, 397312, End_track
6, 0, Start_track
6, 0, Program_c, 4, 6
6, 0, Control_c, 4, 121, 127
6, 0, Control_c, 4, 91, 127
6, 0, Control_c, 4, 7, 100
6, 0, Control_c, 4, 10, 60
6, 0, Title_t, "Cembalo"
6, 6144, Note_on_c, 4, 51, 47
6, 8192, Note_on_c, 4, 51, 0
6, 8192, Note_on_c, 4, 55, 47
6, 10240, Note_on_c, 4, 55, 0
6, 10240, Note_on_c, 4, 56, 47
6, 12288, Note_on_c, 4, 56, 0
6, 12288, Note_on_c, 4, 58, 47
6, 16384, Note_on_c, 4, 58, 0
6, 16384, Note_on_c, 4, 60, 47
6, 18432, Note_on_c, 4, 60, 0
6, 18432, Note_on_c, 4, 56, 47
6, 20480, Note_on_c, 4, 56, 0
6, 20480, Note_on_c, 4, 53, 47
6, 22528, Note_on_c, 4, 53, 0
6, 22528, Note_on_c, 4, 58, 47
6, 24576, Note_on_c, 4, 58, 0
6, 24576, Note_on_c, 4, 51, 47
6, 26624, Note_on_c, 4, 51, 0
6, 26624, Note_on_c, 4, 50, 47
6, 28672, Note_on_c, 4, 50, 0
6, 28672, Note_on_c, 4, 48, 47
6, 30720, Note_on_c, 4, 48, 0
6, 30720, Note_on_c, 4, 46, 47
6, 32768, Note_on_c, 4, 46, 0
6, 32768, Note_on_c, 4, 50, 47
6, 34816, Note_on_c, 4, 50, 0
6, 34816, Note_on_c, 4, 51, 47
6, 36864, Note_on_c, 4, 51, 0
6, 36864, Note_on_c, 4, 53, 47
6, 40960, Note_on_c, 4, 53, 0
6, 40960, Note_on_c, 4, 55, 47
6, 43008, Note_on_c, 4, 55, 0
6, 43008, Note_on_c, 4, 51, 47
6, 47104, Note_on_c, 4, 51, 0
6, 47104, Note_on_c, 4, 53, 47
6, 49152, Note_on_c, 4, 53, 0
6, 49152, Note_on_c, 4, 46, 47
6, 51200, Note_on_c, 4, 46, 0
6, 51200, Note_on_c, 4, 58, 47
6, 53248, Note_on_c, 4, 58, 0
6, 53248, Note_on_c, 4, 56, 47
6, 55296, Note_on_c, 4, 56, 0
6, 55296, Note_on_c, 4, 55, 47
6, 57344, Note_on_c, 4, 55, 0
6, 57344, Note_on_c, 4, 53, 47
6, 59392, Note_on_c, 4, 53, 0
6, 59392, Note_on_c, 4, 51, 47
6, 61440, Note_on_c, 4, 51, 0
6, 61440, Note_on_c, 4, 50, 47
6, 62464, Note_on_c, 4, 50, 0
6, 62464, Note_on_c, 4, 51, 47
6, 63488, Note_on_c, 4, 51, 0
6, 63488, Note_on_c, 4, 53, 47
6, 65536, Note_on_c, 4, 53, 0
6, 65536, Note_on_c, 4, 41, 47
6, 67584, Note_on_c, 4, 41, 0
6, 67584, Note_on_c, 4, 46, 47
6, 69632, Note_on_c, 4, 46, 0
6, 69632, Note_on_c, 4, 50, 47
6, 71680, Note_on_c, 4, 50, 0
6, 71680, Note_on_c, 4, 51, 47
6, 73728, Note_on_c, 4, 51, 0
6, 73728, Note_on_c, 4, 53, 47
6, 77824, Note_on_c, 4, 53, 0
6, 77824, Note_on_c, 4, 55, 47
6, 79872, Note_on_c, 4, 55, 0
6, 79872, Note_on_c, 4, 51, 47
6, 83968, Note_on_c, 4, 51, 0
6, 83968, Note_on_c, 4, 53, 47
6, 86016, Note_on_c, 4, 53, 0
6, 86016, Note_on_c, 4, 46, 47
6, 88064, Note_on_c, 4, 46, 0
6, 88064, Note_on_c, 4, 43, 47
6, 90112, Note_on_c, 4, 43, 0
6, 90112, Note_on_c, 4, 44, 47
6, 92160, Note_on_c, 4, 44, 0
6, 92160, Note_on_c, 4, 46, 47
6, 96256, Note_on_c, 4, 46, 0
6, 96256, Note_on_c, 4, 48, 47
6, 98304, Note_on_c, 4, 48, 0
6, 98304, Note_on_c, 4, 44, 47
6, 102400, Note_on_c, 4, 44, 0
6, 102400, Note_on_c, 4, 46, 47
6, 104448, Note_on_c, 4, 46, 0
6, 104448, Note_on_c, 4, 39, 47
6, 106496, Note_on_c, 4, 39, 0
6, 106496, Note_on_c, 4, 51, 47
6, 108544, Note_on_c, 4, 51, 0
6, 108544, Note_on_c, 4, 49, 47
6, 110592, Note_on_c, 4, 49, 0
6, 110592, Note_on_c, 4, 48, 47
6, 112640, Note_on_c, 4, 48, 0
6, 112640, Note_on_c, 4, 46, 47
6, 114688, Note_on_c, 4, 46, 0
6, 114688, Note_on_c, 4, 44, 47
6, 116736, Note_on_c, 4, 44, 0
6, 116736, Note_on_c, 4, 43, 47
6, 117760, Note_on_c, 4, 43, 0
6, 117760, Note_on_c, 4, 44, 47
6, 118784, Note_on_c, 4, 44, 0
6, 118784, Note_on_c, 4, 46, 47
6, 120832, Note_on_c, 4, 46, 0
6, 120832, Note_on_c, 4, 46, 47
6, 122880, Note_on_c, 4, 46, 0
6, 122880, Note_on_c, 4, 39, 47
6, 124928, Note_on_c, 4, 39, 0
6, 124928, Note_on_c, 4, 51, 47
6, 126976, Note_on_c, 4, 51, 0
6, 126976, Note_on_c, 4, 53, 47
6, 129024, Note_on_c, 4, 53, 0
6, 129024, Note_on_c, 4, 55, 47
6, 133120, Note_on_c, 4, 55, 0
6, 133120, Note_on_c, 4, 56, 47
6, 135168, Note_on_c, 4, 56, 0
6, 135168, Note_on_c, 4, 53, 47
6, 137216, Note_on_c, 4, 53, 0
6, 137216, Note_on_c, 4, 50, 47
6, 139264, Note_on_c, 4, 50, 0
6, 139264, Note_on_c, 4, 55, 47
6, 141312, Note_on_c, 4, 55, 0
6, 141312, Note_on_c, 4, 48, 47
6, 149504, Note_on_c, 4, 48, 0
6, 149504, Note_on_c, 4, 44, 47
6, 151552, Note_on_c, 4, 44, 0
6, 151552, Note_on_c, 4, 46, 47
6, 153600, Note_on_c, 4, 46, 0
6, 153600, Note_on_c, 4, 48, 47
6, 157696, Note_on_c, 4, 48, 0
6, 157696, Note_on_c, 4, 49, 47
6, 159744, Note_on_c, 4, 49, 0
6, 159744, Note_on_c, 4, 46, 47
6, 163840, Note_on_c, 4, 46, 0
6, 163840, Note_on_c, 4, 48, 47
6, 165888, Note_on_c, 4, 48, 0
6, 165888, Note_on_c, 4, 41, 47
6, 167936, Note_on_c, 4, 41, 0
6, 167936, Note_on_c, 4, 53, 47
6, 169984, Note_on_c, 4, 53, 0
6, 169984, Note_on_c, 4, 51, 47
6, 172032, Note_on_c, 4, 51, 0
6, 172032, Note_on_c, 4, 49, 47
6, 174080, Note_on_c, 4, 49, 0
6, 174080, Note_on_c, 4, 48, 47
6, 176128, Note_on_c, 4, 48, 0
6, 176128, Note_on_c, 4, 46, 47
6, 178176, Note_on_c, 4, 46, 0
6, 178176, Note_on_c, 4, 44, 47
6, 179200, Note_on_c, 4, 44, 0
6, 179200, Note_on_c, 4, 46, 47
6, 180224, Note_on_c, 4, 46, 0
6, 180224, Note_on_c, 4, 48, 47
6, 182272, Note_on_c, 4, 48, 0
6, 182272, Note_on_c, 4, 36, 47
6, 184320, Note_on_c, 4, 36, 0
6, 184320, Note_on_c, 4, 41, 47
6, 190464, Note_on_c, 4, 41, 0
6, 190464, Note_on_c, 4, 46, 47
6, 194560, Note_on_c, 4, 46, 0
6, 194560, Note_on_c, 4, 48, 47
6, 196608, Note_on_c, 4, 48, 0
6, 196608, Note_on_c, 4, 44, 47
6, 200704, Note_on_c, 4, 44, 0
6, 200704, Note_on_c, 4, 46, 47
6, 202752, Note_on_c, 4, 46, 0
6, 202752, Note_on_c, 4, 39, 47
6, 210944, Note_on_c, 4, 39, 0
6, 210944, Note_on_c, 4, 48, 47
6, 212992, Note_on_c, 4, 48, 0
6, 212992, Note_on_c, 4, 49, 47
6, 215040, Note_on_c, 4, 49, 0
6, 215040, Note_on_c, 4, 51, 47
6, 219136, Note_on_c, 4, 51, 0
6, 219136, Note_on_c, 4, 53, 47
6, 221184, Note_on_c, 4, 53, 0
6, 221184, Note_on_c, 4, 49, 47
6, 225280, Note_on_c, 4, 49, 0
6, 225280, Note_on_c, 4, 51, 47
6, 227328, Note_on_c, 4, 51, 0
6, 227328, Note_on_c, 4, 44, 47
6, 229376, Note_on_c, 4, 44, 0
6, 229376, Note_on_c, 4, 56, 47
6, 231424, Note_on_c, 4, 56, 0
6, 231424, Note_on_c, 4, 54, 47
6, 233472, Note_on_c, 4, 54, 0
6, 233472, Note_on_c, 4, 53, 47
6, 235520, Note_on_c, 4, 53, 0
6, 235520, Note_on_c, 4, 51, 47
6, 237568, Note_on_c, 4, 51, 0
6, 237568, Note_on_c, 4, 49, 47
6, 239616, Note_on_c, 4, 49, 0
6, 239616, Note_on_c, 4, 48, 47
6, 240640, Note_on_c, 4, 48, 0
6, 240640, Note_on_c, 4, 49, 47
6, 241664, Note_on_c, 4, 49, 0
6, 241664, Note_on_c, 4, 51, 47
6, 243712, Note_on_c, 4, 51, 0
6, 243712, Note_on_c, 4, 39, 47
6, 245760, Note_on_c, 4, 39, 0
6, 245760, Note_on_c, 4, 44, 47
6, 247808, Note_on_c, 4, 44, 0
6, 247808, Note_on_c, 4, 56, 47
6, 249856, Note_on_c, 4, 56, 0
6, 249856, Note_on_c, 4, 60, 47
6, 251904, Note_on_c, 4, 60, 0
6, 251904, Note_on_c, 4, 51, 47
6, 252160, Note_on_c, 4, 51, 0
6, 252160, Note_on_c, 4, 50, 47
6, 252416, Note_on_c, 4, 50, 0
6, 252416, Note_on_c, 4, 51, 47
6, 252544, Note_on_c, 4, 51, 0
6, 252544, Note_on_c, 4, 50, 47
6, 252672, Note_on_c, 4, 50, 0
6, 252672, Note_on_c, 4, 51, 47
6, 252800, Note_on_c, 4, 51, 0
6, 252800, Note_on_c, 4, 50, 47
6, 252928, Note_on_c, 4, 50, 0
6, 252928, Note_on_c, 4, 51, 47
6, 253056, Note_on_c, 4, 51, 0
6, 253056, Note_on_c, 4, 50, 47
6, 253184, Note_on_c, 4, 50, 0
6, 253184, Note_on_c, 4, 51, 47
6, 253312, Note_on_c, 4, 51, 0
6, 253312, Note_on_c, 4, 50, 47
6, 253440, Note_on_c, 4, 50, 0
6, 253440, Note_on_c, 4, 51, 47
6, 253568, Note_on_c, 4, 51, 0
6, 253568, Note_on_c, 4, 50, 47
6, 253696, Note_on_c, 4, 50, 0
6, 253696, Note_on_c, 4, 51, 47
6, 253824, Note_on_c, 4, 51, 0
6, 253824, Note_on_c, 4, 50, 47
6, 253952, Note_on_c, 4, 50, 0
6, 253952, Note_on_c, 4, 51, 47
6, 254080, Note_on_c, 4, 51, 0
6, 254080, Note_on_c, 4, 50, 47
6, 254208, Note_on_c, 4, 50, 0
6, 254208, Note_on_c, 4, 51, 47
6, 254336, Note_on_c, 4, 51, 0
6, 254336, Note_on_c, 4, 50, 47
6, 254464, Note_on_c, 4, 50, 0
6, 254464, Note_on_c, 4, 51, 47
6, 254592, Note_on_c, 4, 51, 0
6, 254592, Note_on_c, 4, 50, 47
6, 254720, Note_on_c, 4, 50, 0
6, 254720, Note_on_c, 4, 51, 47
6, 254848, Note_on_c, 4, 51, 0
6, 254848, Note_on_c, 4, 50, 47
6, 254976, Note_on_c, 4, 50, 0
6, 254976, Note_on_c, 4, 51, 47
6, 255104, Note_on_c, 4, 51, 0
6, 255104, Note_on_c, 4, 50, 47
6, 255232, Note_on_c, 4, 50, 0
6, 255232, Note_on_c, 4, 51, 47
6, 255360, Note_on_c, 4, 51, 0
6, 255360, Note_on_c, 4, 50, 47
6, 255488, Note_on_c, 4, 50, 0
6, 255488, Note_on_c, 4, 51, 47
6, 255616, Note_on_c, 4, 51, 0
6, 255616, Note_on_c, 4, 50, 47
6, 255744, Note_on_c, 4, 50, 0
6, 255744, Note_on_c, 4, 48, 47
6, 255872, Note_on_c, 4, 48, 0
6, 255872, Note_on_c, 4, 50, 47
6, 256000, Note_on_c, 4, 50, 0
6, 256000, Note_on_c, 4, 52, 47
6, 258048, Note_on_c, 4, 52, 0
6, 260096, Note_on_c, 4, 53, 47
6, 262144, Note_on_c, 4, 53, 0
6, 262144, Note_on_c, 4, 56, 47
6, 264192, Note_on_c, 4, 56, 0
6, 264192, Note_on_c, 4, 48, 47
6, 264448, Note_on_c, 4, 48, 0
6, 264448, Note_on_c, 4, 47, 47
6, 264704, Note_on_c, 4, 47, 0
6, 264704, Note_on_c, 4, 48, 47
6, 264832, Note_on_c, 4, 48, 0
6, 264832, Note_on_c, 4, 47, 47
6, 264960, Note_on_c, 4, 47, 0
6, 264960, Note_on_c, 4, 48, 47
6, 265088, Note_on_c, 4, 48, 0
6, 265088, Note_on_c, 4, 47, 47
6, 265216, Note_on_c, 4, 47, 0
6, 265216, Note_on_c, 4, 48, 47
6, 265344, Note_on_c, 4, 48, 0
6, 265344, Note_on_c, 4, 47, 47
6, 265472, Note_on_c, 4, 47, 0
6, 265472, Note_on_c, 4, 48, 47
6, 265600, Note_on_c, 4, 48, 0
6, 265600, Note_on_c, 4, 47, 47
6, 265728, Note_on_c, 4, 47, 0
6, 265728, Note_on_c, 4, 48, 47
6, 265856, Note_on_c, 4, 48, 0
6, 265856, Note_on_c, 4, 47, 47
6, 265984, Note_on_c, 4, 47, 0
6, 265984, Note_on_c, 4, 48, 47
6, 266112, Note_on_c, 4, 48, 0
6, 266112, Note_on_c, 4, 47, 47
6, 266240, Note_on_c, 4, 47, 0
6, 266240, Note_on_c, 4, 48, 47
6, 266368, Note_on_c, 4, 48, 0
6, 266368, Note_on_c, 4, 47, 47
6, 266496, Note_on_c, 4, 47, 0
6, 266496, Note_on_c, 4, 48, 47
6, 266624, Note_on_c, 4, 48, 0
6, 266624, Note_on_c, 4, 47, 47
6, 266752, Note_on_c, 4, 47, 0
6, 266752, Note_on_c, 4, 48, 47
6, 266880, Note_on_c, 4, 48, 0
6, 266880, Note_on_c, 4, 47, 47
6, 267008, Note_on_c, 4, 47, 0
6, 267008, Note_on_c, 4, 48, 47
6, 267136, Note_on_c, 4, 48, 0
6, 267136, Note_on_c, 4, 47, 47
6, 267264, Note_on_c, 4, 47, 0
6, 267264, Note_on_c, 4, 48, 47
6, 267392, Note_on_c, 4, 48, 0
6, 267392, Note_on_c, 4, 47, 47
6, 267520, Note_on_c, 4, 47, 0
6, 267520, Note_on_c, 4, 48, 47
6, 267648, Note_on_c, 4, 48, 0
6, 267648, Note_on_c, 4, 47, 47
6, 267776, Note_on_c, 4, 47, 0
6, 267776, Note_on_c, 4, 48, 47
6, 267904, Note_on_c, 4, 48, 0
6, 267904, Note_on_c, 4, 47, 47
6, 268032, Note_on_c, 4, 47, 0
6, 268032, Note_on_c, 4, 45, 47
6, 268160, Note_on_c, 4, 45, 0
6, 268160, Note_on_c, 4, 47, 47
6, 268288, Note_on_c, 4, 47, 0
6, 268288, Note_on_c, 4, 48, 47
6, 270336, Note_on_c, 4, 48, 0
6, 272384, Note_on_c, 4, 48, 47
6, 274432, Note_on_c, 4, 48, 0
6, 274432, Note_on_c, 4, 51, 47
6, 276480, Note_on_c, 4, 51, 0
6, 276480, Note_on_c, 4, 43, 47
6, 276736, Note_on_c, 4, 43, 0
6, 276736, Note_on_c, 4, 42, 47
6, 276992, Note_on_c, 4, 42, 0
6, 276992, Note_on_c, 4, 43, 47
6, 277120, Note_on_c, 4, 43, 0
6, 277120, Note_on_c, 4, 42, 47
6, 277248, Note_on_c, 4, 42, 0
6, 277248, Note_on_c, 4, 43, 47
6, 277376, Note_on_c, 4, 43, 0
6, 277376, Note_on_c, 4, 42, 47
6, 277504, Note_on_c, 4, 42, 0
6, 277504, Note_on_c, 4, 43, 47
6, 277632, Note_on_c, 4, 43, 0
6, 277632, Note_on_c, 4, 42, 47
6, 277760, Note_on_c, 4, 42, 0
6, 277760, Note_on_c, 4, 43, 47
6, 277888, Note_on_c, 4, 43, 0
6, 277888, Note_on_c, 4, 42, 47
6, 278016, Note_on_c, 4, 42, 0
6, 278016, Note_on_c, 4, 43, 47
6, 278144, Note_on_c, 4, 43, 0
6, 278144, Note_on_c, 4, 42, 47
6, 278272, Note_on_c, 4, 42, 0
6, 278272, Note_on_c, 4, 43, 47
6, 278400, Note_on_c, 4, 43, 0
6, 278400, Note_on_c, 4, 42, 47
6, 278528, Note_on_c, 4, 42, 0
6, 278528, Note_on_c, 4, 43, 47
6, 278656, Note_on_c, 4, 43, 0
6, 278656, Note_on_c, 4, 42, 47
6, 278784, Note_on_c, 4, 42, 0
6, 278784, Note_on_c, 4, 43, 47
6, 278912, Note_on_c, 4, 43, 0
6, 278912, Note_on_c, 4, 42, 47
6, 279040, Note_on_c, 4, 42, 0
6, 279040, Note_on_c, 4, 43, 47
6, 279168, Note_on_c, 4, 43, 0
6, 279168, Note_on_c, 4, 42, 47
6, 279296, Note_on_c, 4, 42, 0
6, 279296, Note_on_c, 4, 43, 47
6, 279424, Note_on_c, 4, 43, 0
6, 279424, Note_on_c, 4, 42, 47
6, 279552, Note_on_c, 4, 42, 0
6, 279552, Note_on_c, 4, 43, 47
6, 279680, Note_on_c, 4, 43, 0
6, 279680, Note_on_c, 4, 42, 47
6, 279808, Note_on_c, 4, 42, 0
6, 279808, Note_on_c, 4, 43, 47
6, 279936, Note_on_c, 4, 43, 0
6, 279936, Note_on_c, 4, 42, 47
6, 280064, Note_on_c, 4, 42, 0
6, 280064, Note_on_c, 4, 43, 47
6, 280192, Note_on_c, 4, 43, 0
6, 280192, Note_on_c, 4, 42, 47
6, 280320, Note_on_c, 4, 42, 0
6, 280320, Note_on_c, 4, 40, 47
6, 280448, Note_on_c, 4, 40, 0
6, 280448, Note_on_c, 4, 42, 47
6, 280576, Note_on_c, 4, 42, 0
6, 280576, Note_on_c, 4, 43, 47
6, 282624, Note_on_c, 4, 43, 0
6, 283648, Note_on_c, 4, 43, 47
6, 284672, Note_on_c, 4, 43, 0
6, 284672, Note_on_c, 4, 45, 47
6, 285696, Note_on_c, 4, 45, 0
6, 285696, Note_on_c, 4, 46, 47
6, 286720, Note_on_c, 4, 46, 0
6, 286720, Note_on_c, 4, 48, 47
6, 289792, Note_on_c, 4, 48, 0
6, 289792, Note_on_c, 4, 46, 47
6, 290304, Note_on_c, 4, 46, 0
6, 290304, Note_on_c, 4, 45, 47
6, 290816, Note_on_c, 4, 45, 0
6, 290816, Note_on_c, 4, 46, 47
6, 292864, Note_on_c, 4, 46, 0
6, 292864, Note_on_c, 4, 48, 47
6, 294912, Note_on_c, 4, 48, 0
6, 294912, Note_on_c, 4, 50, 47
6, 296960, Note_on_c, 4, 50, 0
6, 296960, Note_on_c, 4, 43, 47
6, 299008, Note_on_c, 4, 43, 0
6, 299008, Note_on_c, 4, 48, 47
6, 301056, Note_on_c, 4, 48, 0
6, 301056, Note_on_c, 4, 50, 47
6, 305152, Note_on_c, 4, 50, 0
6, 305152, Note_on_c, 4, 51, 47
6, 307200, Note_on_c, 4, 51, 0
6, 307200, Note_on_c, 4, 48, 47
6, 311296, Note_on_c, 4, 48, 0
6, 311296, Note_on_c, 4, 50, 47
6, 313344, Note_on_c, 4, 50, 0
6, 313344, Note_on_c, 4, 43, 47
6, 315392, Note_on_c, 4, 43, 0
6, 315392, Note_on_c, 4, 55, 47
6, 317440, Note_on_c, 4, 55, 0
6, 317440, Note_on_c, 4, 53, 47
6, 319488, Note_on_c, 4, 53, 0
6, 319488, Note_on_c, 4, 51, 47
6, 321536, Note_on_c, 4, 51, 0
6, 321536, Note_on_c, 4, 50, 47
6, 323584, Note_on_c, 4, 50, 0
6, 323584, Note_on_c, 4, 48, 47
6, 325632, Note_on_c, 4, 48, 0
6, 325632, Note_on_c, 4, 46, 47
6, 326656, Note_on_c, 4, 46, 0
6, 326656, Note_on_c, 4, 48, 47
6, 327680, Note_on_c, 4, 48, 0
6, 327680, Note_on_c, 4, 50, 47
6, 329728, Note_on_c, 4, 50, 0
6, 329728, Note_on_c, 4, 48, 47
6, 331776, Note_on_c, 4, 48, 0
6, 331776, Note_on_c, 4, 47, 47
6, 333824, Note_on_c, 4, 47, 0
6, 337920, Note_on_c, 4, 46, 47
6, 339968, Note_on_c, 4, 46, 0
6, 344064, Note_on_c, 4, 45, 47
6, 345088, Note_on_c, 4, 45, 0
6, 345088, Note_on_c, 4, 38, 47
6, 346112, Note_on_c, 4, 38, 0
6, 346112, Note_on_c, 4, 45, 47
6, 347136, Note_on_c, 4, 45, 0
6, 347136, Note_on_c, 4, 48, 47
6, 347648, Note_on_c, 4, 48, 0
6, 347648, Note_on_c, 4, 46, 47
6, 348160, Note_on_c, 4, 46, 0
6, 348160, Note_on_c, 4, 48, 47
6, 349184, Note_on_c, 4, 48, 0
6, 349184, Note_on_c, 4, 48, 47
6, 350208, Note_on_c, 4, 48, 0
6, 350208, Note_on_c, 4, 48, 47
6, 352256, Note_on_c, 4, 48, 0
6, 352256, Note_on_c, 4, 46, 47
6, 353280, Note_on_c, 4, 46, 0
6, 353280, Note_on_c, 4, 45, 47
6, 354304, Note_on_c, 4, 45, 0
6, 354304, Note_on_c, 4, 43, 47
6, 355328, Note_on_c, 4, 43, 0
6, 355328, Note_on_c, 4, 45, 47
6, 356352, Note_on_c, 4, 45, 0
6, 356352, Note_on_c, 4, 46, 47
6, 357376, Note_on_c, 4, 46, 0
6, 357376, Note_on_c, 4, 48, 47
6, 358400, Note_on_c, 4, 48, 0
6, 358400, Note_on_c, 4, 50, 47
6, 359424, Note_on_c, 4, 50, 0
6, 359424, Note_on_c, 4, 48, 47
6, 360448, Note_on_c, 4, 48, 0
6, 360448, Note_on_c, 4, 50, 47
6, 361472, Note_on_c, 4, 50, 0
6, 361472, Note_on_c, 4, 38, 47
6, 362496, Note_on_c, 4, 38, 0
6, 362496, Note_on_c, 4, 43, 42
6, 364544, Note_on_c, 4, 43, 0
6, 366592, Note_on_c, 4, 48, 44
6, 368640, Note_on_c, 4, 48, 0
6, 368640, Note_on_c, 4, 41, 43
6, 370688, Note_on_c, 4, 41, 0
6, 374784, Note_on_c, 4, 39, 39
6, 376832, Note_on_c, 4, 39, 0
6, 378880, Note_on_c, 4, 39, 37
6, 380928, Note_on_c, 4, 39, 0
6, 380928, Note_on_c, 4, 38, 36
6, 392192, Note_on_c, 4, 38, 0
6, 397312, Control_c, 4, 121, 127
6, 397312, End_track
7, 0, Start_track
7, 0, Title_t, "seq. by David Siu   dss@po.cwru.edu"
7, 397312, End_track
0, 0, End_of_file
