0, 0, Header, 1, 5, 1024
1, 0, Start_track
1, 0, Time_signature, 4, 2, 24, 8
1, 0, Key_signature, 0, "minor"
1, 0, Tempo, 1200000
1, 69632, End_track
2, 0, Start_track
2, 0, Title_t, "Instrument 1"
2, 3072, Note_on_c, 0, 64, 96
2, 4096, Note_off_c, 0, 64, 0
2, 4096, Note_on_c, 0, 69, 96
2, 5120, Note_off_c, 0, 69, 0
2, 5120, Note_on_c, 0, 71, 96
2, 6144, Note_off_c, 0, 71, 0
2, 6144, Note_on_c, 0, 72, 96
2, 7168, Note_off_c, 0, 72, 0
2, 7168, Note_on_c, 0, 71, 96
2, 8192, Note_off_c, 0, 71, 0
2, 8192, Note_on_c, 0, 69, 96
2, 9216, Note_off_c, 0, 69, 0
2, 9216, Note_on_c, 0, 71, 96
2, 9728, Note_off_c, 0, 71, 0
2, 9728, Note_on_c, 0, 69, 96
2, 10240, Note_off_c, 0, 69, 0
2, 10240, Note_on_c, 0, 68, 96
2, 11264, Note_off_c, 0, 68, 0
2, 11264, Note_on_c, 0, 64, 96
2, 13312, Note_off_c, 0, 64, 0
2, 13312, Note_on_c, 0, 67, 96
2, 14336, Note_off_c, 0, 67, 0
2, 14336, Note_on_c, 0, 67, 96
2, 15360, Note_off_c, 0, 67, 0
2, 15360, Note_on_c, 0, 65, 96
2, 16384, Note_off_c, 0, 65, 0
2, 16384, Note_on_c, 0, 64, 96
2, 17408, Note_off_c, 0, 64, 0
2, 17408, Note_on_c, 0, 69, 96
2, 18432, Note_off_c, 0, 69, 0
2, 18432, Note_on_c, 0, 69, 96
2, 19456, Note_off_c, 0, 69, 0
2, 19456, Note_on_c, 0, 68, 96
2, 20480, Note_off_c, 0, 68, 0
2, 20480, Note_on_c, 0, 69, 96
2, 23552, Note_off_c, 0, 69, 0
2, 23552, Note_on_c, 0, 64, 96
2, 24576, Note_off_c, 0, 64, 0
2, 24576, Note_on_c, 0, 69, 96
2, 25600, Note_off_c, 0, 69, 0
2, 25600, Note_on_c, 0, 71, 96
2, 26624, Note_off_c, 0, 71, 0
2, 26624, Note_on_c, 0, 72, 96
2, 27648, Note_off_c, 0, 72, 0
2, 27648, Note_on_c, 0, 71, 96
2, 28672, Note_off_c, 0, 71, 0
2, 28672, Note_on_c, 0, 69, 96
2, 29696, Note_off_c, 0, 69, 0
2, 29696, Note_on_c, 0, 71, 96
2, 30208, Note_off_c, 0, 71, 0
2, 30208, Note_on_c, 0, 69, 96
2, 30720, Note_off_c, 0, 69, 0
2, 30720, Note_on_c, 0, 68, 96
2, 31744, Note_off_c, 0, 68, 0
2, 31744, Note_on_c, 0, 64, 96
2, 33792, Note_off_c, 0, 64, 0
2, 33792, Note_on_c, 0, 67, 96
2, 34816, Note_off_c, 0, 67, 0
2, 34816, Note_on_c, 0, 67, 96
2, 35840, Note_off_c, 0, 67, 0
2, 35840, Note_on_c, 0, 65, 96
2, 36864, Note_off_c, 0, 65, 0
2, 36864, Note_on_c, 0, 64, 96
2, 37888, Note_off_c, 0, 64, 0
2, 37888, Note_on_c, 0, 69, 96
2, 38912, Note_off_c, 0, 69, 0
2, 38912, Note_on_c, 0, 69, 96
2, 39936, Note_off_c, 0, 69, 0
2, 39936, Note_on_c, 0, 68, 96
2, 40960, Note_off_c, 0, 68, 0
2, 40960, Note_on_c, 0, 69, 96
2, 44032, Note_off_c, 0, 69, 0
2, 44032, Note_on_c, 0, 71, 96
2, 45056, Note_off_c, 0, 71, 0
2, 45056, Note_on_c, 0, 72, 96
2, 46080, Note_off_c, 0, 72, 0
2, 46080, Note_on_c, 0, 74, 96
2, 47104, Note_off_c, 0, 74, 0
2, 47104, Note_on_c, 0, 76, 96
2, 48128, Note_off_c, 0, 76, 0
2, 48128, Note_on_c, 0, 76, 96
2, 49152, Note_off_c, 0, 76, 0
2, 49152, Note_on_c, 0, 74, 96
2, 50688, Note_off_c, 0, 74, 0
2, 50688, Note_on_c, 0, 74, 96
2, 51200, Note_off_c, 0, 74, 0
2, 51200, Note_on_c, 0, 72, 96
2, 54272, Note_off_c, 0, 72, 0
2, 54272, Note_on_c, 0, 76, 96
2, 55296, Note_off_c, 0, 76, 0
2, 55296, Note_on_c, 0, 74, 96
2, 56320, Note_off_c, 0, 74, 0
2, 56320, Note_on_c, 0, 72, 96
2, 57344, Note_off_c, 0, 72, 0
2, 57344, Note_on_c, 0, 71, 96
2, 58368, Note_off_c, 0, 71, 0
2, 58368, Note_on_c, 0, 69, 96
2, 58880, Note_off_c, 0, 69, 0
2, 58880, Note_on_c, 0, 71, 96
2, 59392, Note_off_c, 0, 71, 0
2, 59392, Note_on_c, 0, 72, 96
2, 60416, Note_off_c, 0, 72, 0
2, 60416, Note_on_c, 0, 71, 96
2, 61440, Note_off_c, 0, 71, 0
2, 61440, Note_on_c, 0, 69, 96
2, 69632, Note_off_c, 0, 69, 0
2, 69632, End_track
3, 0, Start_track
3, 0, Title_t, "Instrument 2"
3, 3328, Note_on_c, 1, 56, 96
3, 3456, Note_off_c, 1, 56, 0
3, 3456, Note_on_c, 1, 57, 96
3, 3584, Note_off_c, 1, 57, 0
3, 3584, Note_on_c, 1, 59, 96
3, 3840, Note_off_c, 1, 59, 0
3, 3840, Note_on_c, 1, 57, 96
3, 3968, Note_off_c, 1, 57, 0
3, 3968, Note_on_c, 1, 59, 96
3, 4096, Note_off_c, 1, 59, 0
3, 4096, Note_on_c, 1, 60, 96
3, 4608, Note_off_c, 1, 60, 0
3, 4608, Note_on_c, 1, 64, 96
3, 5120, Note_off_c, 1, 64, 0
3, 5120, Note_on_c, 1, 65, 96
3, 5632, Note_off_c, 1, 65, 0
3, 5632, Note_on_c, 1, 64, 96
3, 6656, Note_off_c, 1, 64, 0
3, 6656, Note_on_c, 1, 69, 96
3, 6912, Note_off_c, 1, 69, 0
3, 6912, Note_on_c, 1, 67, 96
3, 7168, Note_off_c, 1, 67, 0
3, 7168, Note_on_c, 1, 65, 96
3, 7424, Note_off_c, 1, 65, 0
3, 7424, Note_on_c, 1, 64, 96
3, 7552, Note_off_c, 1, 64, 0
3, 7552, Note_on_c, 1, 65, 96
3, 7680, Note_off_c, 1, 65, 0
3, 7680, Note_on_c, 1, 67, 96
3, 7936, Note_off_c, 1, 67, 0
3, 7936, Note_on_c, 1, 65, 96
3, 8064, Note_off_c, 1, 65, 0
3, 8064, Note_on_c, 1, 67, 96
3, 8192, Note_off_c, 1, 67, 0
3, 8192, Note_on_c, 1, 64, 96
3, 8448, Note_off_c, 1, 64, 0
3, 8448, Note_on_c, 1, 62, 96
3, 8576, Note_off_c, 1, 62, 0
3, 8576, Note_on_c, 1, 64, 96
3, 8704, Note_off_c, 1, 64, 0
3, 8704, Note_on_c, 1, 65, 96
3, 10496, Note_off_c, 1, 65, 0
3, 10496, Note_on_c, 1, 59, 96
3, 10624, Note_off_c, 1, 59, 0
3, 10624, Note_on_c, 1, 60, 96
3, 10752, Note_off_c, 1, 60, 0
3, 10752, Note_on_c, 1, 62, 96
3, 11008, Note_off_c, 1, 62, 0
3, 11008, Note_on_c, 1, 60, 96
3, 11136, Note_off_c, 1, 60, 0
3, 11136, Note_on_c, 1, 62, 96
3, 11264, Note_off_c, 1, 62, 0
3, 11264, Note_on_c, 1, 64, 96
3, 11776, Note_off_c, 1, 64, 0
3, 11776, Note_on_c, 1, 60, 96
3, 12544, Note_off_c, 1, 60, 0
3, 12544, Note_on_c, 1, 57, 96
3, 12672, Note_off_c, 1, 57, 0
3, 12672, Note_on_c, 1, 59, 96
3, 12800, Note_off_c, 1, 59, 0
3, 12800, Note_on_c, 1, 60, 96
3, 13056, Note_off_c, 1, 60, 0
3, 13056, Note_on_c, 1, 62, 96
3, 13184, Note_off_c, 1, 62, 0
3, 13184, Note_on_c, 1, 60, 96
3, 13312, Note_off_c, 1, 60, 0
3, 13312, Note_on_c, 1, 59, 96
3, 14080, Note_off_c, 1, 59, 0
3, 14080, Note_on_c, 1, 57, 96
3, 14208, Note_off_c, 1, 57, 0
3, 14208, Note_on_c, 1, 59, 96
3, 14336, Note_off_c, 1, 59, 0
3, 14336, Note_on_c, 1, 60, 96
3, 14592, Note_off_c, 1, 60, 0
3, 14592, Note_on_c, 1, 57, 96
3, 14720, Note_off_c, 1, 57, 0
3, 14720, Note_on_c, 1, 59, 96
3, 14848, Note_off_c, 1, 59, 0
3, 14848, Note_on_c, 1, 60, 96
3, 15104, Note_off_c, 1, 60, 0
3, 15104, Note_on_c, 1, 59, 96
3, 15232, Note_off_c, 1, 59, 0
3, 15232, Note_on_c, 1, 60, 96
3, 15360, Note_off_c, 1, 60, 0
3, 15360, Note_on_c, 1, 62, 96
3, 15616, Note_off_c, 1, 62, 0
3, 15616, Note_on_c, 1, 59, 96
3, 15744, Note_off_c, 1, 59, 0
3, 15744, Note_on_c, 1, 60, 96
3, 15872, Note_off_c, 1, 60, 0
3, 15872, Note_on_c, 1, 62, 96
3, 16128, Note_off_c, 1, 62, 0
3, 16128, Note_on_c, 1, 60, 96
3, 16256, Note_off_c, 1, 60, 0
3, 16256, Note_on_c, 1, 62, 96
3, 16384, Note_off_c, 1, 62, 0
3, 16384, Note_on_c, 1, 64, 96
3, 16896, Note_off_c, 1, 64, 0
3, 16896, Note_on_c, 1, 60, 96
3, 17664, Note_off_c, 1, 60, 0
3, 17664, Note_on_c, 1, 60, 96
3, 17792, Note_off_c, 1, 60, 0
3, 17792, Note_on_c, 1, 62, 96
3, 17920, Note_off_c, 1, 62, 0
3, 17920, Note_on_c, 1, 64, 96
3, 18176, Note_off_c, 1, 64, 0
3, 18176, Note_on_c, 1, 62, 96
3, 18304, Note_off_c, 1, 62, 0
3, 18304, Note_on_c, 1, 64, 96
3, 18432, Note_off_c, 1, 64, 0
3, 18432, Note_on_c, 1, 65, 96
3, 18688, Note_off_c, 1, 65, 0
3, 18688, Note_on_c, 1, 59, 96
3, 18816, Note_off_c, 1, 59, 0
3, 18816, Note_on_c, 1, 60, 96
3, 18944, Note_off_c, 1, 60, 0
3, 18944, Note_on_c, 1, 62, 96
3, 19200, Note_off_c, 1, 62, 0
3, 19200, Note_on_c, 1, 60, 96
3, 19328, Note_off_c, 1, 60, 0
3, 19328, Note_on_c, 1, 62, 96
3, 19456, Note_off_c, 1, 62, 0
3, 19456, Note_on_c, 1, 64, 96
3, 20736, Note_off_c, 1, 64, 0
3, 20736, Note_on_c, 1, 61, 96
3, 20864, Note_off_c, 1, 61, 0
3, 20864, Note_on_c, 1, 62, 96
3, 20992, Note_off_c, 1, 62, 0
3, 20992, Note_on_c, 1, 64, 96
3, 21248, Note_off_c, 1, 64, 0
3, 21248, Note_on_c, 1, 65, 96
3, 21376, Note_off_c, 1, 65, 0
3, 21376, Note_on_c, 1, 64, 96
3, 21504, Note_off_c, 1, 64, 0
3, 21504, Note_on_c, 1, 62, 96
3, 21760, Note_off_c, 1, 62, 0
3, 21760, Note_on_c, 1, 59, 96
3, 21888, Note_off_c, 1, 59, 0
3, 21888, Note_on_c, 1, 61, 96
3, 22016, Note_off_c, 1, 61, 0
3, 22016, Note_on_c, 1, 62, 96
3, 22272, Note_off_c, 1, 62, 0
3, 22272, Note_on_c, 1, 64, 96
3, 22400, Note_off_c, 1, 64, 0
3, 22400, Note_on_c, 1, 62, 96
3, 22528, Note_off_c, 1, 62, 0
3, 22528, Note_on_c, 1, 61, 96
3, 22784, Note_off_c, 1, 61, 0
3, 22784, Note_on_c, 1, 57, 96
3, 22912, Note_off_c, 1, 57, 0
3, 22912, Note_on_c, 1, 59, 96
3, 23040, Note_off_c, 1, 59, 0
3, 23040, Note_on_c, 1, 60, 96
3, 23296, Note_off_c, 1, 60, 0
3, 23296, Note_on_c, 1, 59, 96
3, 23424, Note_off_c, 1, 59, 0
3, 23424, Note_on_c, 1, 57, 96
3, 23552, Note_off_c, 1, 57, 0
3, 23808, Note_on_c, 1, 56, 96
3, 23936, Note_off_c, 1, 56, 0
3, 23936, Note_on_c, 1, 57, 96
3, 24064, Note_off_c, 1, 57, 0
3, 24064, Note_on_c, 1, 59, 96
3, 24320, Note_off_c, 1, 59, 0
3, 24320, Note_on_c, 1, 57, 96
3, 24448, Note_off_c, 1, 57, 0
3, 24448, Note_on_c, 1, 59, 96
3, 24576, Note_off_c, 1, 59, 0
3, 24576, Note_on_c, 1, 60, 96
3, 25088, Note_off_c, 1, 60, 0
3, 25088, Note_on_c, 1, 64, 96
3, 25600, Note_off_c, 1, 64, 0
3, 25600, Note_on_c, 1, 65, 96
3, 26112, Note_off_c, 1, 65, 0
3, 26112, Note_on_c, 1, 64, 96
3, 27136, Note_off_c, 1, 64, 0
3, 27136, Note_on_c, 1, 69, 96
3, 27392, Note_off_c, 1, 69, 0
3, 27392, Note_on_c, 1, 67, 96
3, 27648, Note_off_c, 1, 67, 0
3, 27648, Note_on_c, 1, 65, 96
3, 27904, Note_off_c, 1, 65, 0
3, 27904, Note_on_c, 1, 64, 96
3, 28032, Note_off_c, 1, 64, 0
3, 28032, Note_on_c, 1, 65, 96
3, 28160, Note_off_c, 1, 65, 0
3, 28160, Note_on_c, 1, 67, 96
3, 28416, Note_off_c, 1, 67, 0
3, 28416, Note_on_c, 1, 65, 96
3, 28544, Note_off_c, 1, 65, 0
3, 28544, Note_on_c, 1, 67, 96
3, 28672, Note_off_c, 1, 67, 0
3, 28672, Note_on_c, 1, 64, 96
3, 28928, Note_off_c, 1, 64, 0
3, 28928, Note_on_c, 1, 62, 96
3, 29056, Note_off_c, 1, 62, 0
3, 29056, Note_on_c, 1, 64, 96
3, 29184, Note_off_c, 1, 64, 0
3, 29184, Note_on_c, 1, 65, 96
3, 30976, Note_off_c, 1, 65, 0
3, 30976, Note_on_c, 1, 59, 96
3, 31104, Note_off_c, 1, 59, 0
3, 31104, Note_on_c, 1, 60, 96
3, 31232, Note_off_c, 1, 60, 0
3, 31232, Note_on_c, 1, 62, 96
3, 31488, Note_off_c, 1, 62, 0
3, 31488, Note_on_c, 1, 60, 96
3, 31616, Note_off_c, 1, 60, 0
3, 31616, Note_on_c, 1, 62, 96
3, 31744, Note_off_c, 1, 62, 0
3, 31744, Note_on_c, 1, 64, 96
3, 32256, Note_off_c, 1, 64, 0
3, 32256, Note_on_c, 1, 60, 96
3, 33024, Note_off_c, 1, 60, 0
3, 33024, Note_on_c, 1, 57, 96
3, 33152, Note_off_c, 1, 57, 0
3, 33152, Note_on_c, 1, 59, 96
3, 33280, Note_off_c, 1, 59, 0
3, 33280, Note_on_c, 1, 60, 96
3, 33536, Note_off_c, 1, 60, 0
3, 33536, Note_on_c, 1, 62, 96
3, 33664, Note_off_c, 1, 62, 0
3, 33664, Note_on_c, 1, 60, 96
3, 33792, Note_off_c, 1, 60, 0
3, 33792, Note_on_c, 1, 59, 96
3, 34560, Note_off_c, 1, 59, 0
3, 34560, Note_on_c, 1, 57, 96
3, 34688, Note_off_c, 1, 57, 0
3, 34688, Note_on_c, 1, 59, 96
3, 34816, Note_off_c, 1, 59, 0
3, 34816, Note_on_c, 1, 60, 96
3, 35072, Note_off_c, 1, 60, 0
3, 35072, Note_on_c, 1, 57, 96
3, 35200, Note_off_c, 1, 57, 0
3, 35200, Note_on_c, 1, 59, 96
3, 35328, Note_off_c, 1, 59, 0
3, 35328, Note_on_c, 1, 60, 96
3, 35584, Note_off_c, 1, 60, 0
3, 35584, Note_on_c, 1, 59, 96
3, 35712, Note_off_c, 1, 59, 0
3, 35712, Note_on_c, 1, 60, 96
3, 35840, Note_off_c, 1, 60, 0
3, 35840, Note_on_c, 1, 62, 96
3, 36096, Note_off_c, 1, 62, 0
3, 36096, Note_on_c, 1, 59, 96
3, 36224, Note_off_c, 1, 59, 0
3, 36224, Note_on_c, 1, 60, 96
3, 36352, Note_off_c, 1, 60, 0
3, 36352, Note_on_c, 1, 62, 96
3, 36608, Note_off_c, 1, 62, 0
3, 36608, Note_on_c, 1, 60, 96
3, 36736, Note_off_c, 1, 60, 0
3, 36736, Note_on_c, 1, 62, 96
3, 36864, Note_off_c, 1, 62, 0
3, 36864, Note_on_c, 1, 64, 96
3, 37376, Note_off_c, 1, 64, 0
3, 37376, Note_on_c, 1, 60, 96
3, 38144, Note_off_c, 1, 60, 0
3, 38144, Note_on_c, 1, 60, 96
3, 38272, Note_off_c, 1, 60, 0
3, 38272, Note_on_c, 1, 62, 96
3, 38400, Note_off_c, 1, 62, 0
3, 38400, Note_on_c, 1, 64, 96
3, 38656, Note_off_c, 1, 64, 0
3, 38656, Note_on_c, 1, 62, 96
3, 38784, Note_off_c, 1, 62, 0
3, 38784, Note_on_c, 1, 64, 96
3, 38912, Note_off_c, 1, 64, 0
3, 38912, Note_on_c, 1, 65, 96
3, 39168, Note_off_c, 1, 65, 0
3, 39168, Note_on_c, 1, 59, 96
3, 39296, Note_off_c, 1, 59, 0
3, 39296, Note_on_c, 1, 60, 96
3, 39424, Note_off_c, 1, 60, 0
3, 39424, Note_on_c, 1, 62, 96
3, 39680, Note_off_c, 1, 62, 0
3, 39680, Note_on_c, 1, 60, 96
3, 39808, Note_off_c, 1, 60, 0
3, 39808, Note_on_c, 1, 62, 96
3, 39936, Note_off_c, 1, 62, 0
3, 39936, Note_on_c, 1, 64, 96
3, 41216, Note_off_c, 1, 64, 0
3, 41216, Note_on_c, 1, 61, 96
3, 41344, Note_off_c, 1, 61, 0
3, 41344, Note_on_c, 1, 62, 96
3, 41472, Note_off_c, 1, 62, 0
3, 41472, Note_on_c, 1, 64, 96
3, 41728, Note_off_c, 1, 64, 0
3, 41728, Note_on_c, 1, 65, 96
3, 41856, Note_off_c, 1, 65, 0
3, 41856, Note_on_c, 1, 64, 96
3, 41984, Note_off_c, 1, 64, 0
3, 41984, Note_on_c, 1, 62, 96
3, 42240, Note_off_c, 1, 62, 0
3, 42240, Note_on_c, 1, 59, 96
3, 42368, Note_off_c, 1, 59, 0
3, 42368, Note_on_c, 1, 61, 96
3, 42496, Note_off_c, 1, 61, 0
3, 42496, Note_on_c, 1, 62, 96
3, 42752, Note_off_c, 1, 62, 0
3, 42752, Note_on_c, 1, 64, 96
3, 42880, Note_off_c, 1, 64, 0
3, 42880, Note_on_c, 1, 62, 96
3, 43008, Note_off_c, 1, 62, 0
3, 43008, Note_on_c, 1, 61, 96
3, 43520, Note_off_c, 1, 61, 0
3, 43520, Note_on_c, 1, 60, 96
3, 44032, Note_off_c, 1, 60, 0
3, 44032, Note_on_c, 1, 59, 96
3, 44288, Note_off_c, 1, 59, 0
3, 44288, Note_on_c, 1, 64, 96
3, 44416, Note_off_c, 1, 64, 0
3, 44416, Note_on_c, 1, 66, 96
3, 44544, Note_off_c, 1, 66, 0
3, 44544, Note_on_c, 1, 68, 96
3, 44800, Note_off_c, 1, 68, 0
3, 44800, Note_on_c, 1, 66, 96
3, 44928, Note_off_c, 1, 66, 0
3, 44928, Note_on_c, 1, 68, 96
3, 45056, Note_off_c, 1, 68, 0
3, 45056, Note_on_c, 1, 69, 96
3, 45568, Note_off_c, 1, 69, 0
3, 45568, Note_on_c, 1, 67, 96
3, 46336, Note_off_c, 1, 67, 0
3, 46336, Note_on_c, 1, 69, 96
3, 46592, Note_off_c, 1, 69, 0
3, 46592, Note_on_c, 1, 65, 96
3, 46848, Note_off_c, 1, 65, 0
3, 46848, Note_on_c, 1, 67, 96
3, 47104, Note_off_c, 1, 67, 0
3, 47104, Note_on_c, 1, 64, 96
3, 47360, Note_off_c, 1, 64, 0
3, 47360, Note_on_c, 1, 67, 96
3, 47488, Note_off_c, 1, 67, 0
3, 47488, Note_on_c, 1, 69, 96
3, 47616, Note_off_c, 1, 69, 0
3, 47616, Note_on_c, 1, 71, 96
3, 47872, Note_off_c, 1, 71, 0
3, 47872, Note_on_c, 1, 69, 96
3, 48000, Note_off_c, 1, 69, 0
3, 48000, Note_on_c, 1, 71, 96
3, 48128, Note_off_c, 1, 71, 0
3, 48128, Note_on_c, 1, 72, 96
3, 50176, Note_off_c, 1, 72, 0
3, 50176, Note_on_c, 1, 71, 96
3, 50432, Note_off_c, 1, 71, 0
3, 50432, Note_on_c, 1, 69, 96
3, 50688, Note_off_c, 1, 69, 0
3, 50688, Note_on_c, 1, 67, 96
3, 50944, Note_off_c, 1, 67, 0
3, 50944, Note_on_c, 1, 65, 96
3, 51200, Note_off_c, 1, 65, 0
3, 51200, Note_on_c, 1, 64, 96
3, 51456, Note_off_c, 1, 64, 0
3, 51456, Note_on_c, 1, 64, 96
3, 51584, Note_off_c, 1, 64, 0
3, 51584, Note_on_c, 1, 65, 96
3, 51712, Note_off_c, 1, 65, 0
3, 51712, Note_on_c, 1, 67, 96
3, 51968, Note_off_c, 1, 67, 0
3, 51968, Note_on_c, 1, 65, 96
3, 52096, Note_off_c, 1, 65, 0
3, 52096, Note_on_c, 1, 67, 96
3, 52224, Note_off_c, 1, 67, 0
3, 52224, Note_on_c, 1, 69, 96
3, 52736, Note_off_c, 1, 69, 0
3, 52736, Note_on_c, 1, 65, 96
3, 53248, Note_off_c, 1, 65, 0
3, 53248, Note_on_c, 1, 64, 96
3, 54272, Note_off_c, 1, 64, 0
3, 54528, Note_on_c, 1, 64, 96
3, 54656, Note_off_c, 1, 64, 0
3, 54656, Note_on_c, 1, 65, 96
3, 54784, Note_off_c, 1, 65, 0
3, 54784, Note_on_c, 1, 67, 96
3, 55040, Note_off_c, 1, 67, 0
3, 55040, Note_on_c, 1, 65, 96
3, 55168, Note_off_c, 1, 65, 0
3, 55168, Note_on_c, 1, 67, 96
3, 55296, Note_off_c, 1, 67, 0
3, 55296, Note_on_c, 1, 69, 96
3, 55552, Note_off_c, 1, 69, 0
3, 55552, Note_on_c, 1, 67, 96
3, 55680, Note_off_c, 1, 67, 0
3, 55680, Note_on_c, 1, 69, 96
3, 55808, Note_off_c, 1, 69, 0
3, 55808, Note_on_c, 1, 71, 96
3, 56064, Note_off_c, 1, 71, 0
3, 56064, Note_on_c, 1, 69, 96
3, 56192, Note_off_c, 1, 69, 0
3, 56192, Note_on_c, 1, 71, 96
3, 56320, Note_off_c, 1, 71, 0
3, 56320, Note_on_c, 1, 72, 96
3, 56576, Note_off_c, 1, 72, 0
3, 56576, Note_on_c, 1, 60, 96
3, 56704, Note_off_c, 1, 60, 0
3, 56704, Note_on_c, 1, 62, 96
3, 56832, Note_off_c, 1, 62, 0
3, 56832, Note_on_c, 1, 64, 96
3, 57088, Note_off_c, 1, 64, 0
3, 57088, Note_on_c, 1, 62, 96
3, 57216, Note_off_c, 1, 62, 0
3, 57216, Note_on_c, 1, 64, 96
3, 57344, Note_off_c, 1, 64, 0
3, 57344, Note_on_c, 1, 65, 96
3, 57600, Note_off_c, 1, 65, 0
3, 57600, Note_on_c, 1, 64, 96
3, 57728, Note_off_c, 1, 64, 0
3, 57728, Note_on_c, 1, 65, 96
3, 57856, Note_off_c, 1, 65, 0
3, 57856, Note_on_c, 1, 67, 96
3, 58112, Note_off_c, 1, 67, 0
3, 58112, Note_on_c, 1, 65, 96
3, 58240, Note_off_c, 1, 65, 0
3, 58240, Note_on_c, 1, 67, 96
3, 58368, Note_off_c, 1, 67, 0
3, 58368, Note_on_c, 1, 69, 96
3, 58880, Note_off_c, 1, 69, 0
3, 58880, Note_on_c, 1, 65, 96
3, 59392, Note_off_c, 1, 65, 0
3, 59392, Note_on_c, 1, 64, 96
3, 59904, Note_off_c, 1, 64, 0
3, 59904, Note_on_c, 1, 69, 96
3, 60928, Note_off_c, 1, 69, 0
3, 60928, Note_on_c, 1, 68, 96
3, 61440, Note_off_c, 1, 68, 0
3, 61440, Note_on_c, 1, 69, 96
3, 61696, Note_off_c, 1, 69, 0
3, 61696, Note_on_c, 1, 61, 96
3, 61824, Note_off_c, 1, 61, 0
3, 61824, Note_on_c, 1, 62, 96
3, 61952, Note_off_c, 1, 62, 0
3, 61952, Note_on_c, 1, 64, 96
3, 62208, Note_off_c, 1, 64, 0
3, 62208, Note_on_c, 1, 62, 96
3, 62336, Note_off_c, 1, 62, 0
3, 62336, Note_on_c, 1, 64, 96
3, 62464, Note_off_c, 1, 64, 0
3, 62464, Note_on_c, 1, 65, 96
3, 62720, Note_off_c, 1, 65, 0
3, 62720, Note_on_c, 1, 59, 96
3, 62848, Note_off_c, 1, 59, 0
3, 62848, Note_on_c, 1, 61, 96
3, 62976, Note_off_c, 1, 61, 0
3, 62976, Note_on_c, 1, 62, 96
3, 63232, Note_off_c, 1, 62, 0
3, 63232, Note_on_c, 1, 64, 96
3, 63360, Note_off_c, 1, 64, 0
3, 63360, Note_on_c, 1, 62, 96
3, 63488, Note_off_c, 1, 62, 0
3, 63488, Note_on_c, 1, 64, 96
3, 69632, Note_off_c, 1, 64, 0
3, 69632, End_track
4, 0, Start_track
4, 0, Title_t, "Instrument 3"
4, 3328, Note_on_c, 2, 52, 96
4, 3456, Note_off_c, 2, 52, 0
4, 3456, Note_on_c, 2, 54, 96
4, 3584, Note_off_c, 2, 54, 0
4, 3584, Note_on_c, 2, 56, 96
4, 3840, Note_off_c, 2, 56, 0
4, 3840, Note_on_c, 2, 54, 96
4, 3968, Note_off_c, 2, 54, 0
4, 3968, Note_on_c, 2, 56, 96
4, 4096, Note_off_c, 2, 56, 0
4, 4096, Note_on_c, 2, 57, 96
4, 5632, Note_off_c, 2, 57, 0
4, 5632, Note_on_c, 2, 56, 96
4, 6144, Note_off_c, 2, 56, 0
4, 6400, Note_on_c, 2, 57, 96
4, 6528, Note_off_c, 2, 57, 0
4, 6528, Note_on_c, 2, 59, 96
4, 6656, Note_off_c, 2, 59, 0
4, 6656, Note_on_c, 2, 60, 96
4, 6912, Note_off_c, 2, 60, 0
4, 6912, Note_on_c, 2, 59, 96
4, 7040, Note_off_c, 2, 59, 0
4, 7040, Note_on_c, 2, 60, 96
4, 7168, Note_off_c, 2, 60, 0
4, 7168, Note_on_c, 2, 62, 96
4, 7424, Note_off_c, 2, 62, 0
4, 7424, Note_on_c, 2, 60, 96
4, 7552, Note_off_c, 2, 60, 0
4, 7552, Note_on_c, 2, 62, 96
4, 7680, Note_off_c, 2, 62, 0
4, 7680, Note_on_c, 2, 64, 96
4, 7936, Note_off_c, 2, 64, 0
4, 7936, Note_on_c, 2, 62, 96
4, 8064, Note_off_c, 2, 62, 0
4, 8064, Note_on_c, 2, 64, 96
4, 8192, Note_off_c, 2, 64, 0
4, 8192, Note_on_c, 2, 61, 96
4, 8448, Note_off_c, 2, 61, 0
4, 8448, Note_on_c, 2, 59, 96
4, 8576, Note_off_c, 2, 59, 0
4, 8576, Note_on_c, 2, 61, 96
4, 8704, Note_off_c, 2, 61, 0
4, 8704, Note_on_c, 2, 62, 96
4, 10496, Note_off_c, 2, 62, 0
4, 10496, Note_on_c, 2, 56, 96
4, 10624, Note_off_c, 2, 56, 0
4, 10624, Note_on_c, 2, 57, 96
4, 10752, Note_off_c, 2, 57, 0
4, 10752, Note_on_c, 2, 59, 96
4, 11008, Note_off_c, 2, 59, 0
4, 11008, Note_on_c, 2, 57, 96
4, 11136, Note_off_c, 2, 57, 0
4, 11136, Note_on_c, 2, 59, 96
4, 11264, Note_off_c, 2, 59, 0
4, 11264, Note_on_c, 2, 60, 96
4, 11776, Note_off_c, 2, 60, 0
4, 11776, Note_on_c, 2, 57, 96
4, 12544, Note_off_c, 2, 57, 0
4, 12544, Note_on_c, 2, 54, 96
4, 12672, Note_off_c, 2, 54, 0
4, 12672, Note_on_c, 2, 56, 96
4, 12800, Note_off_c, 2, 56, 0
4, 12800, Note_on_c, 2, 57, 96
4, 13056, Note_off_c, 2, 57, 0
4, 13056, Note_on_c, 2, 59, 96
4, 13184, Note_off_c, 2, 59, 0
4, 13184, Note_on_c, 2, 57, 96
4, 13312, Note_off_c, 2, 57, 0
4, 13312, Note_on_c, 2, 55, 96
4, 13568, Note_off_c, 2, 55, 0
4, 13568, Note_on_c, 2, 52, 96
4, 13696, Note_off_c, 2, 52, 0
4, 13696, Note_on_c, 2, 53, 96
4, 13824, Note_off_c, 2, 53, 0
4, 13824, Note_on_c, 2, 55, 96
4, 14080, Note_off_c, 2, 55, 0
4, 14080, Note_on_c, 2, 53, 96
4, 14208, Note_off_c, 2, 53, 0
4, 14208, Note_on_c, 2, 55, 96
4, 14336, Note_off_c, 2, 55, 0
4, 14336, Note_on_c, 2, 57, 96
4, 14592, Note_off_c, 2, 57, 0
4, 14592, Note_on_c, 2, 53, 96
4, 14720, Note_off_c, 2, 53, 0
4, 14720, Note_on_c, 2, 55, 96
4, 14848, Note_off_c, 2, 55, 0
4, 14848, Note_on_c, 2, 57, 96
4, 15104, Note_off_c, 2, 57, 0
4, 15104, Note_on_c, 2, 55, 96
4, 15232, Note_off_c, 2, 55, 0
4, 15232, Note_on_c, 2, 57, 96
4, 15360, Note_off_c, 2, 57, 0
4, 15360, Note_on_c, 2, 59, 96
4, 15616, Note_off_c, 2, 59, 0
4, 15616, Note_on_c, 2, 55, 96
4, 15744, Note_off_c, 2, 55, 0
4, 15744, Note_on_c, 2, 57, 96
4, 15872, Note_off_c, 2, 57, 0
4, 15872, Note_on_c, 2, 59, 96
4, 16128, Note_off_c, 2, 59, 0
4, 16128, Note_on_c, 2, 57, 96
4, 16256, Note_off_c, 2, 57, 0
4, 16256, Note_on_c, 2, 59, 96
4, 16384, Note_off_c, 2, 59, 0
4, 16384, Note_on_c, 2, 60, 96
4, 16640, Note_off_c, 2, 60, 0
4, 16640, Note_on_c, 2, 48, 96
4, 16768, Note_off_c, 2, 48, 0
4, 16768, Note_on_c, 2, 50, 96
4, 16896, Note_off_c, 2, 50, 0
4, 16896, Note_on_c, 2, 52, 96
4, 17152, Note_off_c, 2, 52, 0
4, 17152, Note_on_c, 2, 50, 96
4, 17280, Note_off_c, 2, 50, 0
4, 17280, Note_on_c, 2, 52, 96
4, 17408, Note_off_c, 2, 52, 0
4, 17408, Note_on_c, 2, 53, 96
4, 17664, Note_off_c, 2, 53, 0
4, 17664, Note_on_c, 2, 45, 96
4, 17792, Note_off_c, 2, 45, 0
4, 17792, Note_on_c, 2, 47, 96
4, 17920, Note_off_c, 2, 47, 0
4, 17920, Note_on_c, 2, 48, 96
4, 18176, Note_off_c, 2, 48, 0
4, 18176, Note_on_c, 2, 47, 96
4, 18304, Note_off_c, 2, 47, 0
4, 18304, Note_on_c, 2, 48, 96
4, 18432, Note_off_c, 2, 48, 0
4, 18432, Note_on_c, 2, 50, 96
4, 19712, Note_off_c, 2, 50, 0
4, 19712, Note_on_c, 2, 47, 96
4, 19840, Note_off_c, 2, 47, 0
4, 19840, Note_on_c, 2, 48, 96
4, 19968, Note_off_c, 2, 48, 0
4, 19968, Note_on_c, 2, 50, 96
4, 20224, Note_off_c, 2, 50, 0
4, 20224, Note_on_c, 2, 52, 96
4, 20352, Note_off_c, 2, 52, 0
4, 20352, Note_on_c, 2, 50, 96
4, 20480, Note_off_c, 2, 50, 0
4, 20480, Note_on_c, 2, 49, 96
4, 20736, Note_off_c, 2, 49, 0
4, 20736, Note_on_c, 2, 52, 96
4, 20864, Note_off_c, 2, 52, 0
4, 20864, Note_on_c, 2, 53, 96
4, 20992, Note_off_c, 2, 53, 0
4, 20992, Note_on_c, 2, 55, 96
4, 21248, Note_off_c, 2, 55, 0
4, 21248, Note_on_c, 2, 57, 96
4, 21376, Note_off_c, 2, 57, 0
4, 21376, Note_on_c, 2, 55, 96
4, 21504, Note_off_c, 2, 55, 0
4, 21504, Note_on_c, 2, 53, 96
4, 21760, Note_off_c, 2, 53, 0
4, 21760, Note_on_c, 2, 50, 96
4, 21888, Note_off_c, 2, 50, 0
4, 21888, Note_on_c, 2, 52, 96
4, 22016, Note_off_c, 2, 52, 0
4, 22016, Note_on_c, 2, 53, 96
4, 22272, Note_off_c, 2, 53, 0
4, 22272, Note_on_c, 2, 55, 96
4, 22400, Note_off_c, 2, 55, 0
4, 22400, Note_on_c, 2, 53, 96
4, 22528, Note_off_c, 2, 53, 0
4, 22528, Note_on_c, 2, 52, 96
4, 23552, Note_off_c, 2, 52, 0
4, 23808, Note_on_c, 2, 52, 96
4, 23936, Note_off_c, 2, 52, 0
4, 23936, Note_on_c, 2, 54, 96
4, 24064, Note_off_c, 2, 54, 0
4, 24064, Note_on_c, 2, 56, 96
4, 24320, Note_off_c, 2, 56, 0
4, 24320, Note_on_c, 2, 54, 96
4, 24448, Note_off_c, 2, 54, 0
4, 24448, Note_on_c, 2, 56, 96
4, 24576, Note_off_c, 2, 56, 0
4, 24576, Note_on_c, 2, 57, 96
4, 26112, Note_off_c, 2, 57, 0
4, 26112, Note_on_c, 2, 56, 96
4, 26624, Note_off_c, 2, 56, 0
4, 26880, Note_on_c, 2, 57, 96
4, 27008, Note_off_c, 2, 57, 0
4, 27008, Note_on_c, 2, 59, 96
4, 27136, Note_off_c, 2, 59, 0
4, 27136, Note_on_c, 2, 60, 96
4, 27392, Note_off_c, 2, 60, 0
4, 27392, Note_on_c, 2, 59, 96
4, 27520, Note_off_c, 2, 59, 0
4, 27520, Note_on_c, 2, 60, 96
4, 27648, Note_off_c, 2, 60, 0
4, 27648, Note_on_c, 2, 62, 96
4, 27904, Note_off_c, 2, 62, 0
4, 27904, Note_on_c, 2, 60, 96
4, 28032, Note_off_c, 2, 60, 0
4, 28032, Note_on_c, 2, 62, 96
4, 28160, Note_off_c, 2, 62, 0
4, 28160, Note_on_c, 2, 64, 96
4, 28416, Note_off_c, 2, 64, 0
4, 28416, Note_on_c, 2, 62, 96
4, 28544, Note_off_c, 2, 62, 0
4, 28544, Note_on_c, 2, 64, 96
4, 28672, Note_off_c, 2, 64, 0
4, 28672, Note_on_c, 2, 61, 96
4, 28928, Note_off_c, 2, 61, 0
4, 28928, Note_on_c, 2, 59, 96
4, 29056, Note_off_c, 2, 59, 0
4, 29056, Note_on_c, 2, 61, 96
4, 29184, Note_off_c, 2, 61, 0
4, 29184, Note_on_c, 2, 62, 96
4, 30976, Note_off_c, 2, 62, 0
4, 30976, Note_on_c, 2, 56, 96
4, 31104, Note_off_c, 2, 56, 0
4, 31104, Note_on_c, 2, 57, 96
4, 31232, Note_off_c, 2, 57, 0
4, 31232, Note_on_c, 2, 59, 96
4, 31488, Note_off_c, 2, 59, 0
4, 31488, Note_on_c, 2, 57, 96
4, 31616, Note_off_c, 2, 57, 0
4, 31616, Note_on_c, 2, 59, 96
4, 31744, Note_off_c, 2, 59, 0
4, 31744, Note_on_c, 2, 60, 96
4, 32256, Note_off_c, 2, 60, 0
4, 32256, Note_on_c, 2, 57, 96
4, 33024, Note_off_c, 2, 57, 0
4, 33024, Note_on_c, 2, 54, 96
4, 33152, Note_off_c, 2, 54, 0
4, 33152, Note_on_c, 2, 56, 96
4, 33280, Note_off_c, 2, 56, 0
4, 33280, Note_on_c, 2, 57, 96
4, 33536, Note_off_c, 2, 57, 0
4, 33536, Note_on_c, 2, 59, 96
4, 33664, Note_off_c, 2, 59, 0
4, 33664, Note_on_c, 2, 57, 96
4, 33792, Note_off_c, 2, 57, 0
4, 33792, Note_on_c, 2, 55, 96
4, 34048, Note_off_c, 2, 55, 0
4, 34048, Note_on_c, 2, 52, 96
4, 34176, Note_off_c, 2, 52, 0
4, 34176, Note_on_c, 2, 53, 96
4, 34304, Note_off_c, 2, 53, 0
4, 34304, Note_on_c, 2, 55, 96
4, 34560, Note_off_c, 2, 55, 0
4, 34560, Note_on_c, 2, 53, 96
4, 34688, Note_off_c, 2, 53, 0
4, 34688, Note_on_c, 2, 55, 96
4, 34816, Note_off_c, 2, 55, 0
4, 34816, Note_on_c, 2, 57, 96
4, 35072, Note_off_c, 2, 57, 0
4, 35072, Note_on_c, 2, 53, 96
4, 35200, Note_off_c, 2, 53, 0
4, 35200, Note_on_c, 2, 55, 96
4, 35328, Note_off_c, 2, 55, 0
4, 35328, Note_on_c, 2, 57, 96
4, 35584, Note_off_c, 2, 57, 0
4, 35584, Note_on_c, 2, 55, 96
4, 35712, Note_off_c, 2, 55, 0
4, 35712, Note_on_c, 2, 57, 96
4, 35840, Note_off_c, 2, 57, 0
4, 35840, Note_on_c, 2, 59, 96
4, 36096, Note_off_c, 2, 59, 0
4, 36096, Note_on_c, 2, 55, 96
4, 36224, Note_off_c, 2, 55, 0
4, 36224, Note_on_c, 2, 57, 96
4, 36352, Note_off_c, 2, 57, 0
4, 36352, Note_on_c, 2, 59, 96
4, 36608, Note_off_c, 2, 59, 0
4, 36608, Note_on_c, 2, 57, 96
4, 36736, Note_off_c, 2, 57, 0
4, 36736, Note_on_c, 2, 59, 96
4, 36864, Note_off_c, 2, 59, 0
4, 36864, Note_on_c, 2, 60, 96
4, 37120, Note_off_c, 2, 60, 0
4, 37120, Note_on_c, 2, 48, 96
4, 37248, Note_off_c, 2, 48, 0
4, 37248, Note_on_c, 2, 50, 96
4, 37376, Note_off_c, 2, 50, 0
4, 37376, Note_on_c, 2, 52, 96
4, 37632, Note_off_c, 2, 52, 0
4, 37632, Note_on_c, 2, 50, 96
4, 37760, Note_off_c, 2, 50, 0
4, 37760, Note_on_c, 2, 52, 96
4, 37888, Note_off_c, 2, 52, 0
4, 37888, Note_on_c, 2, 53, 96
4, 38144, Note_off_c, 2, 53, 0
4, 38144, Note_on_c, 2, 45, 96
4, 38272, Note_off_c, 2, 45, 0
4, 38272, Note_on_c, 2, 47, 96
4, 38400, Note_off_c, 2, 47, 0
4, 38400, Note_on_c, 2, 48, 96
4, 38656, Note_off_c, 2, 48, 0
4, 38656, Note_on_c, 2, 47, 96
4, 38784, Note_off_c, 2, 47, 0
4, 38784, Note_on_c, 2, 48, 96
4, 38912, Note_off_c, 2, 48, 0
4, 38912, Note_on_c, 2, 50, 96
4, 40192, Note_off_c, 2, 50, 0
4, 40192, Note_on_c, 2, 47, 96
4, 40320, Note_off_c, 2, 47, 0
4, 40320, Note_on_c, 2, 48, 96
4, 40448, Note_off_c, 2, 48, 0
4, 40448, Note_on_c, 2, 50, 96
4, 40704, Note_off_c, 2, 50, 0
4, 40704, Note_on_c, 2, 52, 96
4, 40832, Note_off_c, 2, 52, 0
4, 40832, Note_on_c, 2, 50, 96
4, 40960, Note_off_c, 2, 50, 0
4, 40960, Note_on_c, 2, 49, 96
4, 41216, Note_off_c, 2, 49, 0
4, 41216, Note_on_c, 2, 52, 96
4, 41344, Note_off_c, 2, 52, 0
4, 41344, Note_on_c, 2, 53, 96
4, 41472, Note_off_c, 2, 53, 0
4, 41472, Note_on_c, 2, 55, 96
4, 41728, Note_off_c, 2, 55, 0
4, 41728, Note_on_c, 2, 57, 96
4, 41856, Note_off_c, 2, 57, 0
4, 41856, Note_on_c, 2, 55, 96
4, 41984, Note_off_c, 2, 55, 0
4, 41984, Note_on_c, 2, 53, 96
4, 42240, Note_off_c, 2, 53, 0
4, 42240, Note_on_c, 2, 50, 96
4, 42368, Note_off_c, 2, 50, 0
4, 42368, Note_on_c, 2, 52, 96
4, 42496, Note_off_c, 2, 52, 0
4, 42496, Note_on_c, 2, 53, 96
4, 42752, Note_off_c, 2, 53, 0
4, 42752, Note_on_c, 2, 55, 96
4, 42880, Note_off_c, 2, 55, 0
4, 42880, Note_on_c, 2, 53, 96
4, 43008, Note_off_c, 2, 53, 0
4, 43008, Note_on_c, 2, 52, 96
4, 43264, Note_off_c, 2, 52, 0
4, 43264, Note_on_c, 2, 54, 96
4, 43392, Note_off_c, 2, 54, 0
4, 43392, Note_on_c, 2, 56, 96
4, 43520, Note_off_c, 2, 56, 0
4, 43520, Note_on_c, 2, 57, 96
4, 43776, Note_off_c, 2, 57, 0
4, 43776, Note_on_c, 2, 59, 96
4, 43904, Note_off_c, 2, 59, 0
4, 43904, Note_on_c, 2, 57, 96
4, 44032, Note_off_c, 2, 57, 0
4, 44032, Note_on_c, 2, 56, 96
4, 44544, Note_off_c, 2, 56, 0
4, 44544, Note_on_c, 2, 52, 96
4, 45312, Note_off_c, 2, 52, 0
4, 45312, Note_on_c, 2, 52, 96
4, 45440, Note_off_c, 2, 52, 0
4, 45440, Note_on_c, 2, 53, 96
4, 45568, Note_off_c, 2, 53, 0
4, 45568, Note_on_c, 2, 55, 96
4, 45824, Note_off_c, 2, 55, 0
4, 45824, Note_on_c, 2, 53, 96
4, 45952, Note_off_c, 2, 53, 0
4, 45952, Note_on_c, 2, 55, 96
4, 46080, Note_off_c, 2, 55, 0
4, 46080, Note_on_c, 2, 57, 96
4, 46336, Note_off_c, 2, 57, 0
4, 46336, Note_on_c, 2, 55, 96
4, 46464, Note_off_c, 2, 55, 0
4, 46464, Note_on_c, 2, 57, 96
4, 46592, Note_off_c, 2, 57, 0
4, 46592, Note_on_c, 2, 59, 96
4, 46848, Note_off_c, 2, 59, 0
4, 46848, Note_on_c, 2, 57, 96
4, 46976, Note_off_c, 2, 57, 0
4, 46976, Note_on_c, 2, 59, 96
4, 47104, Note_off_c, 2, 59, 0
4, 47104, Note_on_c, 2, 60, 96
4, 48128, Note_off_c, 2, 60, 0
4, 48384, Note_on_c, 2, 64, 96
4, 48512, Note_off_c, 2, 64, 0
4, 48512, Note_on_c, 2, 65, 96
4, 48640, Note_off_c, 2, 65, 0
4, 48640, Note_on_c, 2, 67, 96
4, 48896, Note_off_c, 2, 67, 0
4, 48896, Note_on_c, 2, 65, 96
4, 49024, Note_off_c, 2, 65, 0
4, 49024, Note_on_c, 2, 67, 96
4, 49152, Note_off_c, 2, 67, 0
4, 49152, Note_on_c, 2, 69, 96
4, 49408, Note_off_c, 2, 69, 0
4, 49408, Note_on_c, 2, 62, 96
4, 49536, Note_off_c, 2, 62, 0
4, 49536, Note_on_c, 2, 64, 96
4, 49664, Note_off_c, 2, 64, 0
4, 49664, Note_on_c, 2, 65, 96
4, 49920, Note_off_c, 2, 65, 0
4, 49920, Note_on_c, 2, 64, 96
4, 50048, Note_off_c, 2, 64, 0
4, 50048, Note_on_c, 2, 65, 96
4, 50176, Note_off_c, 2, 65, 0
4, 50176, Note_on_c, 2, 67, 96
4, 50432, Note_off_c, 2, 67, 0
4, 50432, Note_on_c, 2, 55, 96
4, 50560, Note_off_c, 2, 55, 0
4, 50560, Note_on_c, 2, 57, 96
4, 50688, Note_off_c, 2, 57, 0
4, 50688, Note_on_c, 2, 59, 96
4, 50944, Note_off_c, 2, 59, 0
4, 50944, Note_on_c, 2, 57, 96
4, 51072, Note_off_c, 2, 57, 0
4, 51072, Note_on_c, 2, 59, 96
4, 51200, Note_off_c, 2, 59, 0
4, 51200, Note_on_c, 2, 60, 96
4, 52736, Note_off_c, 2, 60, 0
4, 52736, Note_on_c, 2, 57, 96
4, 53248, Note_off_c, 2, 57, 0
4, 53248, Note_on_c, 2, 55, 96
4, 53504, Note_off_c, 2, 55, 0
4, 53504, Note_on_c, 2, 55, 96
4, 53632, Note_off_c, 2, 55, 0
4, 53632, Note_on_c, 2, 57, 96
4, 53760, Note_off_c, 2, 57, 0
4, 53760, Note_on_c, 2, 59, 96
4, 54016, Note_off_c, 2, 59, 0
4, 54016, Note_on_c, 2, 57, 96
4, 54144, Note_off_c, 2, 57, 0
4, 54144, Note_on_c, 2, 59, 96
4, 54272, Note_off_c, 2, 59, 0
4, 54272, Note_on_c, 2, 60, 96
4, 54528, Note_off_c, 2, 60, 0
4, 54528, Note_on_c, 2, 48, 96
4, 54656, Note_off_c, 2, 48, 0
4, 54656, Note_on_c, 2, 50, 96
4, 54784, Note_off_c, 2, 50, 0
4, 54784, Note_on_c, 2, 52, 96
4, 55040, Note_off_c, 2, 52, 0
4, 55040, Note_on_c, 2, 50, 96
4, 55168, Note_off_c, 2, 50, 0
4, 55168, Note_on_c, 2, 52, 96
4, 55296, Note_off_c, 2, 52, 0
4, 55296, Note_on_c, 2, 54, 96
4, 55552, Note_off_c, 2, 54, 0
4, 55552, Note_on_c, 2, 52, 96
4, 55680, Note_off_c, 2, 52, 0
4, 55680, Note_on_c, 2, 54, 96
4, 55808, Note_off_c, 2, 54, 0
4, 55808, Note_on_c, 2, 56, 96
4, 56064, Note_off_c, 2, 56, 0
4, 56064, Note_on_c, 2, 54, 96
4, 56192, Note_off_c, 2, 54, 0
4, 56192, Note_on_c, 2, 56, 96
4, 56320, Note_off_c, 2, 56, 0
4, 56320, Note_on_c, 2, 57, 96
4, 56576, Note_off_c, 2, 57, 0
4, 56576, Note_on_c, 2, 45, 96
4, 56704, Note_off_c, 2, 45, 0
4, 56704, Note_on_c, 2, 47, 96
4, 56832, Note_off_c, 2, 47, 0
4, 56832, Note_on_c, 2, 48, 96
4, 57088, Note_off_c, 2, 48, 0
4, 57088, Note_on_c, 2, 47, 96
4, 57216, Note_off_c, 2, 47, 0
4, 57216, Note_on_c, 2, 48, 96
4, 57344, Note_off_c, 2, 48, 0
4, 57344, Note_on_c, 2, 50, 96
4, 57600, Note_off_c, 2, 50, 0
4, 57600, Note_on_c, 2, 48, 96
4, 57728, Note_off_c, 2, 48, 0
4, 57728, Note_on_c, 2, 50, 96
4, 57856, Note_off_c, 2, 50, 0
4, 57856, Note_on_c, 2, 52, 96
4, 58112, Note_off_c, 2, 52, 0
4, 58112, Note_on_c, 2, 50, 96
4, 58240, Note_off_c, 2, 50, 0
4, 58240, Note_on_c, 2, 52, 96
4, 58368, Note_off_c, 2, 52, 0
4, 58368, Note_on_c, 2, 53, 96
4, 58880, Note_off_c, 2, 53, 0
4, 58880, Note_on_c, 2, 57, 96
4, 59392, Note_off_c, 2, 57, 0
4, 59392, Note_on_c, 2, 56, 96
4, 59648, Note_off_c, 2, 56, 0
4, 59648, Note_on_c, 2, 57, 96
4, 59776, Note_off_c, 2, 57, 0
4, 59776, Note_on_c, 2, 59, 96
4, 59904, Note_off_c, 2, 59, 0
4, 59904, Note_on_c, 2, 60, 96
4, 60160, Note_off_c, 2, 60, 0
4, 60160, Note_on_c, 2, 59, 96
4, 60288, Note_off_c, 2, 59, 0
4, 60288, Note_on_c, 2, 60, 96
4, 60416, Note_off_c, 2, 60, 0
4, 60416, Note_on_c, 2, 62, 96
4, 60672, Note_off_c, 2, 62, 0
4, 60672, Note_on_c, 2, 60, 96
4, 60800, Note_off_c, 2, 60, 0
4, 60800, Note_on_c, 2, 62, 96
4, 60928, Note_off_c, 2, 62, 0
4, 60928, Note_on_c, 2, 64, 96
4, 61184, Note_off_c, 2, 64, 0
4, 61184, Note_on_c, 2, 62, 96
4, 61312, Note_off_c, 2, 62, 0
4, 61312, Note_on_c, 2, 64, 96
4, 61440, Note_off_c, 2, 64, 0
4, 61440, Note_on_c, 2, 61, 96
4, 61696, Note_off_c, 2, 61, 0
4, 61696, Note_on_c, 2, 57, 96
4, 61824, Note_off_c, 2, 57, 0
4, 61824, Note_on_c, 2, 59, 96
4, 61952, Note_off_c, 2, 59, 0
4, 61952, Note_on_c, 2, 61, 96
4, 62208, Note_off_c, 2, 61, 0
4, 62208, Note_on_c, 2, 59, 96
4, 62336, Note_off_c, 2, 59, 0
4, 62336, Note_on_c, 2, 61, 96
4, 62464, Note_off_c, 2, 61, 0
4, 62464, Note_on_c, 2, 62, 96
4, 62720, Note_off_c, 2, 62, 0
4, 62720, Note_on_c, 2, 50, 96
4, 62848, Note_off_c, 2, 50, 0
4, 62848, Note_on_c, 2, 52, 96
4, 62976, Note_off_c, 2, 52, 0
4, 62976, Note_on_c, 2, 53, 96
4, 63232, Note_off_c, 2, 53, 0
4, 63232, Note_on_c, 2, 55, 96
4, 63360, Note_off_c, 2, 55, 0
4, 63360, Note_on_c, 2, 53, 96
4, 63488, Note_off_c, 2, 53, 0
4, 63488, Note_on_c, 2, 52, 96
4, 69632, Note_off_c, 2, 52, 0
4, 69632, End_track
5, 0, Start_track
5, 0, Title_t, "Instrument 4"
5, 4352, Note_on_c, 3, 45, 96
5, 4608, Note_off_c, 3, 45, 0
5, 4608, Note_on_c, 3, 48, 96
5, 4864, Note_off_c, 3, 48, 0
5, 4864, Note_on_c, 3, 45, 96
5, 5120, Note_off_c, 3, 45, 0
5, 5120, Note_on_c, 3, 50, 96
5, 5376, Note_off_c, 3, 50, 0
5, 5376, Note_on_c, 3, 47, 96
5, 5632, Note_off_c, 3, 47, 0
5, 5632, Note_on_c, 3, 52, 96
5, 5888, Note_off_c, 3, 52, 0
5, 5888, Note_on_c, 3, 50, 96
5, 6016, Note_off_c, 3, 50, 0
5, 6016, Note_on_c, 3, 52, 96
5, 6144, Note_off_c, 3, 52, 0
5, 6144, Note_on_c, 3, 45, 96
5, 6656, Note_off_c, 3, 45, 0
5, 6656, Note_on_c, 3, 57, 96
5, 7680, Note_off_c, 3, 57, 0
5, 7680, Note_on_c, 3, 55, 96
5, 8704, Note_off_c, 3, 55, 0
5, 8704, Note_on_c, 3, 53, 96
5, 8960, Note_off_c, 3, 53, 0
5, 8960, Note_on_c, 3, 52, 96
5, 9088, Note_off_c, 3, 52, 0
5, 9088, Note_on_c, 3, 53, 96
5, 9216, Note_off_c, 3, 53, 0
5, 9216, Note_on_c, 3, 50, 96
5, 9472, Note_off_c, 3, 50, 0
5, 9472, Note_on_c, 3, 53, 96
5, 9728, Note_off_c, 3, 53, 0
5, 9728, Note_on_c, 3, 47, 96
5, 9984, Note_off_c, 3, 47, 0
5, 9984, Note_on_c, 3, 50, 96
5, 10112, Note_off_c, 3, 50, 0
5, 10112, Note_on_c, 3, 47, 96
5, 10240, Note_off_c, 3, 47, 0
5, 10240, Note_on_c, 3, 52, 96
5, 11264, Note_off_c, 3, 52, 0
5, 11520, Note_on_c, 3, 45, 96
5, 11776, Note_off_c, 3, 45, 0
5, 11776, Note_on_c, 3, 48, 96
5, 12032, Note_off_c, 3, 48, 0
5, 12032, Note_on_c, 3, 45, 96
5, 12288, Note_off_c, 3, 45, 0
5, 12288, Note_on_c, 3, 52, 96
5, 12800, Note_off_c, 3, 52, 0
5, 12800, Note_on_c, 3, 40, 96
5, 13824, Note_off_c, 3, 40, 0
5, 13824, Note_on_c, 3, 52, 96
5, 14848, Note_off_c, 3, 52, 0
5, 14848, Note_on_c, 3, 40, 96
5, 15360, Note_off_c, 3, 40, 0
5, 15360, Note_on_c, 3, 38, 96
5, 15872, Note_off_c, 3, 38, 0
5, 15872, Note_on_c, 3, 50, 96
5, 16384, Note_off_c, 3, 50, 0
5, 16384, Note_on_c, 3, 48, 96
5, 16896, Note_off_c, 3, 48, 0
5, 16896, Note_on_c, 3, 45, 96
5, 17408, Note_off_c, 3, 45, 0
5, 17408, Note_on_c, 3, 41, 96
5, 17920, Note_off_c, 3, 41, 0
5, 17920, Note_on_c, 3, 53, 96
5, 18432, Note_off_c, 3, 53, 0
5, 18432, Note_on_c, 3, 50, 96
5, 18944, Note_off_c, 3, 50, 0
5, 18944, Note_on_c, 3, 47, 96
5, 19456, Note_off_c, 3, 47, 0
5, 19456, Note_on_c, 3, 40, 96
5, 19968, Note_off_c, 3, 40, 0
5, 19968, Note_on_c, 3, 52, 96
5, 20480, Note_off_c, 3, 52, 0
5, 20480, Note_on_c, 3, 45, 96
5, 23552, Note_off_c, 3, 45, 0
5, 24832, Note_on_c, 3, 45, 96
5, 25088, Note_off_c, 3, 45, 0
5, 25088, Note_on_c, 3, 48, 96
5, 25344, Note_off_c, 3, 48, 0
5, 25344, Note_on_c, 3, 45, 96
5, 25600, Note_off_c, 3, 45, 0
5, 25600, Note_on_c, 3, 50, 96
5, 25856, Note_off_c, 3, 50, 0
5, 25856, Note_on_c, 3, 47, 96
5, 26112, Note_off_c, 3, 47, 0
5, 26112, Note_on_c, 3, 52, 96
5, 26368, Note_off_c, 3, 52, 0
5, 26368, Note_on_c, 3, 50, 96
5, 26496, Note_off_c, 3, 50, 0
5, 26496, Note_on_c, 3, 52, 96
5, 26624, Note_off_c, 3, 52, 0
5, 26624, Note_on_c, 3, 45, 96
5, 27136, Note_off_c, 3, 45, 0
5, 27136, Note_on_c, 3, 57, 96
5, 28160, Note_off_c, 3, 57, 0
5, 28160, Note_on_c, 3, 55, 96
5, 29184, Note_off_c, 3, 55, 0
5, 29184, Note_on_c, 3, 53, 96
5, 29440, Note_off_c, 3, 53, 0
5, 29440, Note_on_c, 3, 52, 96
5, 29568, Note_off_c, 3, 52, 0
5, 29568, Note_on_c, 3, 53, 96
5, 29696, Note_off_c, 3, 53, 0
5, 29696, Note_on_c, 3, 50, 96
5, 29952, Note_off_c, 3, 50, 0
5, 29952, Note_on_c, 3, 53, 96
5, 30208, Note_off_c, 3, 53, 0
5, 30208, Note_on_c, 3, 47, 96
5, 30464, Note_off_c, 3, 47, 0
5, 30464, Note_on_c, 3, 50, 96
5, 30592, Note_off_c, 3, 50, 0
5, 30592, Note_on_c, 3, 47, 96
5, 30720, Note_off_c, 3, 47, 0
5, 30720, Note_on_c, 3, 52, 96
5, 31744, Note_off_c, 3, 52, 0
5, 32000, Note_on_c, 3, 45, 96
5, 32256, Note_off_c, 3, 45, 0
5, 32256, Note_on_c, 3, 48, 96
5, 32512, Note_off_c, 3, 48, 0
5, 32512, Note_on_c, 3, 45, 96
5, 32768, Note_off_c, 3, 45, 0
5, 32768, Note_on_c, 3, 52, 96
5, 33280, Note_off_c, 3, 52, 0
5, 33280, Note_on_c, 3, 40, 96
5, 34304, Note_off_c, 3, 40, 0
5, 34304, Note_on_c, 3, 52, 96
5, 35328, Note_off_c, 3, 52, 0
5, 35328, Note_on_c, 3, 40, 96
5, 35840, Note_off_c, 3, 40, 0
5, 35840, Note_on_c, 3, 38, 96
5, 36352, Note_off_c, 3, 38, 0
5, 36352, Note_on_c, 3, 50, 96
5, 36864, Note_off_c, 3, 50, 0
5, 36864, Note_on_c, 3, 48, 96
5, 37376, Note_off_c, 3, 48, 0
5, 37376, Note_on_c, 3, 45, 96
5, 37888, Note_off_c, 3, 45, 0
5, 37888, Note_on_c, 3, 41, 96
5, 38400, Note_off_c, 3, 41, 0
5, 38400, Note_on_c, 3, 53, 96
5, 38912, Note_off_c, 3, 53, 0
5, 38912, Note_on_c, 3, 50, 96
5, 39424, Note_off_c, 3, 50, 0
5, 39424, Note_on_c, 3, 47, 96
5, 39936, Note_off_c, 3, 47, 0
5, 39936, Note_on_c, 3, 40, 96
5, 40448, Note_off_c, 3, 40, 0
5, 40448, Note_on_c, 3, 52, 96
5, 40960, Note_off_c, 3, 52, 0
5, 40960, Note_on_c, 3, 45, 96
5, 44032, Note_off_c, 3, 45, 0
5, 44544, Note_on_c, 3, 52, 96
5, 45056, Note_off_c, 3, 52, 0
5, 45056, Note_on_c, 3, 57, 96
5, 45568, Note_off_c, 3, 57, 0
5, 45568, Note_on_c, 3, 52, 96
5, 46080, Note_off_c, 3, 52, 0
5, 46080, Note_on_c, 3, 53, 96
5, 46592, Note_off_c, 3, 53, 0
5, 46592, Note_on_c, 3, 55, 96
5, 47104, Note_off_c, 3, 55, 0
5, 47104, Note_on_c, 3, 48, 96
5, 47616, Note_off_c, 3, 48, 0
5, 47616, Note_on_c, 3, 43, 96
5, 48128, Note_off_c, 3, 43, 0
5, 48128, Note_on_c, 3, 45, 96
5, 48640, Note_off_c, 3, 45, 0
5, 48640, Note_on_c, 3, 40, 96
5, 49152, Note_off_c, 3, 40, 0
5, 49152, Note_on_c, 3, 41, 96
5, 49664, Note_off_c, 3, 41, 0
5, 49664, Note_on_c, 3, 38, 96
5, 50176, Note_off_c, 3, 38, 0
5, 50176, Note_on_c, 3, 43, 96
5, 50688, Note_off_c, 3, 43, 0
5, 50688, Note_on_c, 3, 55, 96
5, 51200, Note_off_c, 3, 55, 0
5, 51200, Note_on_c, 3, 57, 96
5, 51712, Note_off_c, 3, 57, 0
5, 51712, Note_on_c, 3, 52, 96
5, 52224, Note_off_c, 3, 52, 0
5, 52224, Note_on_c, 3, 53, 96
5, 52480, Note_off_c, 3, 53, 0
5, 52480, Note_on_c, 3, 45, 96
5, 52736, Note_off_c, 3, 45, 0
5, 52736, Note_on_c, 3, 47, 96
5, 52992, Note_off_c, 3, 47, 0
5, 52992, Note_on_c, 3, 45, 96
5, 53120, Note_off_c, 3, 45, 0
5, 53120, Note_on_c, 3, 47, 96
5, 53248, Note_off_c, 3, 47, 0
5, 53248, Note_on_c, 3, 36, 96
5, 54272, Note_off_c, 3, 36, 0
5, 54784, Note_on_c, 3, 48, 96
5, 55808, Note_off_c, 3, 48, 0
5, 55808, Note_on_c, 3, 47, 96
5, 56320, Note_off_c, 3, 47, 0
5, 56320, Note_on_c, 3, 45, 96
5, 56832, Note_off_c, 3, 45, 0
5, 56832, Note_on_c, 3, 57, 96
5, 57856, Note_off_c, 3, 57, 0
5, 57856, Note_on_c, 3, 55, 96
5, 58368, Note_off_c, 3, 55, 0
5, 58368, Note_on_c, 3, 53, 96
5, 58624, Note_off_c, 3, 53, 0
5, 58624, Note_on_c, 3, 53, 96
5, 58880, Note_off_c, 3, 53, 0
5, 58880, Note_on_c, 3, 52, 96
5, 59136, Note_off_c, 3, 52, 0
5, 59136, Note_on_c, 3, 53, 96
5, 59264, Note_off_c, 3, 53, 0
5, 59264, Note_on_c, 3, 50, 96
5, 59392, Note_off_c, 3, 50, 0
5, 59392, Note_on_c, 3, 52, 96
5, 59904, Note_off_c, 3, 52, 0
5, 59904, Note_on_c, 3, 38, 96
5, 60416, Note_off_c, 3, 38, 0
5, 60416, Note_on_c, 3, 40, 96
5, 61440, Note_off_c, 3, 40, 0
5, 61440, Note_on_c, 3, 45, 96
5, 69632, Note_off_c, 3, 45, 0
5, 69632, End_track
0, 0, End_of_file
