0, 0, Header, 1, 9, 1024
1, 0, Start_track
1, 0, Time_signature, 4, 2, 24, 8
1, 0, Key_signature, 1, "major"
1, 0, Tempo, 789473
1, 161792, End_track
2, 0, Start_track
2, 0, Title_t, "Instrument 1"
2, 19456, Note_on_c, 0, 62, 96
2, 20480, Note_off_c, 0, 62, 0
2, 20480, Note_on_c, 0, 67, 96
2, 21504, Note_off_c, 0, 67, 0
2, 21504, Note_on_c, 0, 69, 96
2, 22528, Note_off_c, 0, 69, 0
2, 22528, Note_on_c, 0, 71, 96
2, 23552, Note_off_c, 0, 71, 0
2, 23552, Note_on_c, 0, 76, 96
2, 24576, Note_off_c, 0, 76, 0
2, 24576, Note_on_c, 0, 74, 96
2, 26112, Note_off_c, 0, 74, 0
2, 26112, Note_on_c, 0, 72, 96
2, 26624, Note_off_c, 0, 72, 0
2, 26624, Note_on_c, 0, 71, 96
2, 27648, Note_off_c, 0, 71, 0
2, 33792, Note_on_c, 0, 76, 96
2, 34816, Note_off_c, 0, 76, 0
2, 34816, Note_on_c, 0, 74, 96
2, 36352, Note_off_c, 0, 74, 0
2, 36352, Note_on_c, 0, 72, 96
2, 36864, Note_off_c, 0, 72, 0
2, 36864, Note_on_c, 0, 71, 96
2, 37888, Note_off_c, 0, 71, 0
2, 37888, Note_on_c, 0, 71, 96
2, 38912, Note_off_c, 0, 71, 0
2, 38912, Note_on_c, 0, 69, 96
2, 40960, Note_off_c, 0, 69, 0
2, 40960, Note_on_c, 0, 67, 96
2, 41984, Note_off_c, 0, 67, 0
2, 60416, Note_on_c, 0, 62, 96
2, 61440, Note_off_c, 0, 62, 0
2, 61440, Note_on_c, 0, 67, 96
2, 62464, Note_off_c, 0, 67, 0
2, 62464, Note_on_c, 0, 69, 96
2, 63488, Note_off_c, 0, 69, 0
2, 63488, Note_on_c, 0, 71, 96
2, 64512, Note_off_c, 0, 71, 0
2, 64512, Note_on_c, 0, 76, 96
2, 65536, Note_off_c, 0, 76, 0
2, 65536, Note_on_c, 0, 74, 96
2, 67072, Note_off_c, 0, 74, 0
2, 67072, Note_on_c, 0, 72, 96
2, 67584, Note_off_c, 0, 72, 0
2, 67584, Note_on_c, 0, 71, 96
2, 68608, Note_off_c, 0, 71, 0
2, 74752, Note_on_c, 0, 76, 96
2, 75776, Note_off_c, 0, 76, 0
2, 75776, Note_on_c, 0, 74, 96
2, 77312, Note_off_c, 0, 74, 0
2, 77312, Note_on_c, 0, 72, 96
2, 77824, Note_off_c, 0, 72, 0
2, 77824, Note_on_c, 0, 71, 96
2, 78848, Note_off_c, 0, 71, 0
2, 78848, Note_on_c, 0, 71, 96
2, 79872, Note_off_c, 0, 71, 0
2, 79872, Note_on_c, 0, 69, 96
2, 81920, Note_off_c, 0, 69, 0
2, 81920, Note_on_c, 0, 67, 96
2, 82944, Note_off_c, 0, 67, 0
2, 95232, Note_on_c, 0, 74, 96
2, 96256, Note_off_c, 0, 74, 0
2, 96256, Note_on_c, 0, 76, 96
2, 97280, Note_off_c, 0, 76, 0
2, 97280, Note_on_c, 0, 76, 96
2, 98304, Note_off_c, 0, 76, 0
2, 98304, Note_on_c, 0, 69, 96
2, 99328, Note_off_c, 0, 69, 0
2, 99328, Note_on_c, 0, 69, 96
2, 100352, Note_off_c, 0, 69, 0
2, 100352, Note_on_c, 0, 74, 96
2, 101376, Note_off_c, 0, 74, 0
2, 101376, Note_on_c, 0, 74, 96
2, 102400, Note_off_c, 0, 74, 0
2, 102400, Note_on_c, 0, 67, 96
2, 103424, Note_off_c, 0, 67, 0
2, 103424, Note_on_c, 0, 71, 96
2, 104448, Note_off_c, 0, 71, 0
2, 104448, Note_on_c, 0, 69, 96
2, 105472, Note_off_c, 0, 69, 0
2, 105472, Note_on_c, 0, 67, 96
2, 106496, Note_off_c, 0, 67, 0
2, 106496, Note_on_c, 0, 66, 96
2, 107520, Note_off_c, 0, 66, 0
2, 107520, Note_on_c, 0, 66, 96
2, 108544, Note_off_c, 0, 66, 0
2, 108544, Note_on_c, 0, 64, 96
2, 110592, Note_off_c, 0, 64, 0
2, 110592, Note_on_c, 0, 62, 96
2, 111616, Note_off_c, 0, 62, 0
2, 119808, Note_on_c, 0, 74, 96
2, 120832, Note_off_c, 0, 74, 0
2, 120832, Note_on_c, 0, 76, 96
2, 121856, Note_off_c, 0, 76, 0
2, 121856, Note_on_c, 0, 74, 96
2, 122880, Note_off_c, 0, 74, 0
2, 122880, Note_on_c, 0, 72, 96
2, 123904, Note_off_c, 0, 72, 0
2, 123904, Note_on_c, 0, 71, 96
2, 124928, Note_off_c, 0, 71, 0
2, 124928, Note_on_c, 0, 69, 96
2, 126976, Note_off_c, 0, 69, 0
2, 126976, Note_on_c, 0, 67, 96
2, 129024, Note_off_c, 0, 67, 0
2, 161792, End_track
3, 0, Start_track
3, 0, Title_t, "Instrument 2"
3, 19456, Note_on_c, 1, 59, 96
3, 20480, Note_off_c, 1, 59, 0
3, 20480, Note_on_c, 1, 64, 96
3, 22016, Note_off_c, 1, 64, 0
3, 22016, Note_on_c, 1, 66, 96
3, 22528, Note_off_c, 1, 66, 0
3, 22528, Note_on_c, 1, 67, 96
3, 23552, Note_off_c, 1, 67, 0
3, 23552, Note_on_c, 1, 60, 96
3, 24576, Note_off_c, 1, 60, 0
3, 24576, Note_on_c, 1, 62, 96
3, 24832, Note_off_c, 1, 62, 0
3, 24832, Note_on_c, 1, 64, 96
3, 25088, Note_off_c, 1, 64, 0
3, 25088, Note_on_c, 1, 62, 96
3, 25344, Note_off_c, 1, 62, 0
3, 25344, Note_on_c, 1, 64, 96
3, 25600, Note_off_c, 1, 64, 0
3, 25600, Note_on_c, 1, 66, 96
3, 26112, Note_off_c, 1, 66, 0
3, 26112, Note_on_c, 1, 69, 96
3, 26624, Note_off_c, 1, 69, 0
3, 26624, Note_on_c, 1, 67, 96
3, 27648, Note_off_c, 1, 67, 0
3, 33792, Note_on_c, 1, 67, 96
3, 34304, Note_off_c, 1, 67, 0
3, 34304, Note_on_c, 1, 69, 96
3, 34816, Note_off_c, 1, 69, 0
3, 34816, Note_on_c, 1, 71, 96
3, 35328, Note_off_c, 1, 71, 0
3, 35328, Note_on_c, 1, 67, 96
3, 36352, Note_off_c, 1, 67, 0
3, 36352, Note_on_c, 1, 66, 96
3, 36864, Note_off_c, 1, 66, 0
3, 36864, Note_on_c, 1, 67, 96
3, 37888, Note_off_c, 1, 67, 0
3, 37888, Note_on_c, 1, 67, 96
3, 38912, Note_off_c, 1, 67, 0
3, 38912, Note_on_c, 1, 67, 96
3, 39936, Note_off_c, 1, 67, 0
3, 39936, Note_on_c, 1, 66, 96
3, 40960, Note_off_c, 1, 66, 0
3, 40960, Note_on_c, 1, 67, 96
3, 41984, Note_off_c, 1, 67, 0
3, 60416, Note_on_c, 1, 59, 96
3, 61440, Note_off_c, 1, 59, 0
3, 61440, Note_on_c, 1, 64, 96
3, 62976, Note_off_c, 1, 64, 0
3, 62976, Note_on_c, 1, 66, 96
3, 63488, Note_off_c, 1, 66, 0
3, 63488, Note_on_c, 1, 67, 96
3, 64512, Note_off_c, 1, 67, 0
3, 64512, Note_on_c, 1, 60, 96
3, 65536, Note_off_c, 1, 60, 0
3, 65536, Note_on_c, 1, 62, 96
3, 65792, Note_off_c, 1, 62, 0
3, 65792, Note_on_c, 1, 64, 96
3, 66048, Note_off_c, 1, 64, 0
3, 66048, Note_on_c, 1, 62, 96
3, 66304, Note_off_c, 1, 62, 0
3, 66304, Note_on_c, 1, 64, 96
3, 66560, Note_off_c, 1, 64, 0
3, 66560, Note_on_c, 1, 66, 96
3, 67072, Note_off_c, 1, 66, 0
3, 67072, Note_on_c, 1, 69, 96
3, 67584, Note_off_c, 1, 69, 0
3, 67584, Note_on_c, 1, 67, 96
3, 68608, Note_off_c, 1, 67, 0
3, 74752, Note_on_c, 1, 67, 96
3, 75264, Note_off_c, 1, 67, 0
3, 75264, Note_on_c, 1, 69, 96
3, 75776, Note_off_c, 1, 69, 0
3, 75776, Note_on_c, 1, 71, 96
3, 76288, Note_off_c, 1, 71, 0
3, 76288, Note_on_c, 1, 67, 96
3, 77312, Note_off_c, 1, 67, 0
3, 77312, Note_on_c, 1, 66, 96
3, 77824, Note_off_c, 1, 66, 0
3, 77824, Note_on_c, 1, 67, 96
3, 78848, Note_off_c, 1, 67, 0
3, 78848, Note_on_c, 1, 67, 96
3, 79872, Note_off_c, 1, 67, 0
3, 79872, Note_on_c, 1, 67, 96
3, 80896, Note_off_c, 1, 67, 0
3, 80896, Note_on_c, 1, 66, 96
3, 81920, Note_off_c, 1, 66, 0
3, 81920, Note_on_c, 1, 67, 96
3, 82944, Note_off_c, 1, 67, 0
3, 95232, Note_on_c, 1, 67, 96
3, 96256, Note_off_c, 1, 67, 0
3, 96256, Note_on_c, 1, 67, 96
3, 97280, Note_off_c, 1, 67, 0
3, 97280, Note_on_c, 1, 67, 96
3, 98304, Note_off_c, 1, 67, 0
3, 98304, Note_on_c, 1, 66, 96
3, 99328, Note_off_c, 1, 66, 0
3, 99328, Note_on_c, 1, 66, 96
3, 100352, Note_off_c, 1, 66, 0
3, 100352, Note_on_c, 1, 65, 96
3, 101376, Note_off_c, 1, 65, 0
3, 101376, Note_on_c, 1, 65, 96
3, 102400, Note_off_c, 1, 65, 0
3, 102400, Note_on_c, 1, 64, 96
3, 103424, Note_off_c, 1, 64, 0
3, 103424, Note_on_c, 1, 62, 96
3, 103936, Note_off_c, 1, 62, 0
3, 103936, Note_on_c, 1, 67, 96
3, 104448, Note_off_c, 1, 67, 0
3, 104448, Note_on_c, 1, 67, 96
3, 104960, Note_off_c, 1, 67, 0
3, 104960, Note_on_c, 1, 66, 96
3, 105472, Note_off_c, 1, 66, 0
3, 105472, Note_on_c, 1, 66, 96
3, 105984, Note_off_c, 1, 66, 0
3, 105984, Note_on_c, 1, 64, 96
3, 106496, Note_off_c, 1, 64, 0
3, 106496, Note_on_c, 1, 64, 96
3, 106752, Note_off_c, 1, 64, 0
3, 106752, Note_on_c, 1, 67, 96
3, 107008, Note_off_c, 1, 67, 0
3, 107008, Note_on_c, 1, 66, 96
3, 107264, Note_off_c, 1, 66, 0
3, 107264, Note_on_c, 1, 64, 96
3, 107520, Note_off_c, 1, 64, 0
3, 107520, Note_on_c, 1, 62, 96
3, 108544, Note_off_c, 1, 62, 0
3, 108544, Note_on_c, 1, 62, 96
3, 109568, Note_off_c, 1, 62, 0
3, 109568, Note_on_c, 1, 61, 96
3, 110592, Note_off_c, 1, 61, 0
3, 110592, Note_on_c, 1, 62, 96
3, 111616, Note_off_c, 1, 62, 0
3, 119808, Note_on_c, 1, 69, 96
3, 120832, Note_off_c, 1, 69, 0
3, 120832, Note_on_c, 1, 71, 96
3, 122368, Note_off_c, 1, 71, 0
3, 122368, Note_on_c, 1, 66, 96
3, 122880, Note_off_c, 1, 66, 0
3, 122880, Note_on_c, 1, 67, 96
3, 124416, Note_off_c, 1, 67, 0
3, 124416, Note_on_c, 1, 62, 96
3, 124928, Note_off_c, 1, 62, 0
3, 124928, Note_on_c, 1, 64, 96
3, 125952, Note_off_c, 1, 64, 0
3, 125952, Note_on_c, 1, 62, 96
3, 126976, Note_off_c, 1, 62, 0
3, 126976, Note_on_c, 1, 62, 96
3, 129024, Note_off_c, 1, 62, 0
3, 161792, End_track
4, 0, Start_track
4, 0, Title_t, "Instrument 3"
4, 19456, Note_on_c, 2, 55, 96
4, 19968, Note_off_c, 2, 55, 0
4, 19968, Note_on_c, 2, 57, 96
4, 20480, Note_off_c, 2, 57, 0
4, 20480, Note_on_c, 2, 59, 96
4, 21504, Note_off_c, 2, 59, 0
4, 21504, Note_on_c, 2, 57, 96
4, 22528, Note_off_c, 2, 57, 0
4, 22528, Note_on_c, 2, 55, 96
4, 23552, Note_off_c, 2, 55, 0
4, 23552, Note_on_c, 2, 55, 96
4, 24576, Note_off_c, 2, 55, 0
4, 24576, Note_on_c, 2, 55, 96
4, 25088, Note_off_c, 2, 55, 0
4, 25088, Note_on_c, 2, 50, 96
4, 25600, Note_off_c, 2, 50, 0
4, 25600, Note_on_c, 2, 62, 96
4, 26624, Note_off_c, 2, 62, 0
4, 26624, Note_on_c, 2, 62, 96
4, 27648, Note_off_c, 2, 62, 0
4, 33792, Note_on_c, 2, 55, 96
4, 34816, Note_off_c, 2, 55, 0
4, 34816, Note_on_c, 2, 55, 96
4, 35328, Note_off_c, 2, 55, 0
4, 35328, Note_on_c, 2, 59, 96
4, 35840, Note_off_c, 2, 59, 0
4, 35840, Note_on_c, 2, 64, 96
4, 36352, Note_off_c, 2, 64, 0
4, 36352, Note_on_c, 2, 57, 96
4, 36864, Note_off_c, 2, 57, 0
4, 36864, Note_on_c, 2, 55, 96
4, 37376, Note_off_c, 2, 55, 0
4, 37376, Note_on_c, 2, 57, 96
4, 37888, Note_off_c, 2, 57, 0
4, 37888, Note_on_c, 2, 59, 96
4, 38400, Note_off_c, 2, 59, 0
4, 38400, Note_on_c, 2, 60, 96
4, 38656, Note_off_c, 2, 60, 0
4, 38656, Note_on_c, 2, 62, 96
4, 38912, Note_off_c, 2, 62, 0
4, 38912, Note_on_c, 2, 64, 96
4, 39936, Note_off_c, 2, 64, 0
4, 39936, Note_on_c, 2, 62, 96
4, 40448, Note_off_c, 2, 62, 0
4, 40448, Note_on_c, 2, 60, 96
4, 40960, Note_off_c, 2, 60, 0
4, 40960, Note_on_c, 2, 59, 96
4, 41984, Note_off_c, 2, 59, 0
4, 60416, Note_on_c, 2, 55, 96
4, 60928, Note_off_c, 2, 55, 0
4, 60928, Note_on_c, 2, 57, 96
4, 61440, Note_off_c, 2, 57, 0
4, 61440, Note_on_c, 2, 59, 96
4, 62464, Note_off_c, 2, 59, 0
4, 62464, Note_on_c, 2, 57, 96
4, 63488, Note_off_c, 2, 57, 0
4, 63488, Note_on_c, 2, 55, 96
4, 64512, Note_off_c, 2, 55, 0
4, 64512, Note_on_c, 2, 55, 96
4, 65536, Note_off_c, 2, 55, 0
4, 65536, Note_on_c, 2, 55, 96
4, 66048, Note_off_c, 2, 55, 0
4, 66048, Note_on_c, 2, 50, 96
4, 66560, Note_off_c, 2, 50, 0
4, 66560, Note_on_c, 2, 62, 96
4, 67584, Note_off_c, 2, 62, 0
4, 67584, Note_on_c, 2, 62, 96
4, 68608, Note_off_c, 2, 62, 0
4, 74752, Note_on_c, 2, 55, 96
4, 75776, Note_off_c, 2, 55, 0
4, 75776, Note_on_c, 2, 55, 96
4, 76288, Note_off_c, 2, 55, 0
4, 76288, Note_on_c, 2, 59, 96
4, 76800, Note_off_c, 2, 59, 0
4, 76800, Note_on_c, 2, 64, 96
4, 77312, Note_off_c, 2, 64, 0
4, 77312, Note_on_c, 2, 57, 96
4, 77824, Note_off_c, 2, 57, 0
4, 77824, Note_on_c, 2, 55, 96
4, 78336, Note_off_c, 2, 55, 0
4, 78336, Note_on_c, 2, 57, 96
4, 78848, Note_off_c, 2, 57, 0
4, 78848, Note_on_c, 2, 59, 96
4, 79360, Note_off_c, 2, 59, 0
4, 79360, Note_on_c, 2, 60, 96
4, 79616, Note_off_c, 2, 60, 0
4, 79616, Note_on_c, 2, 62, 96
4, 79872, Note_off_c, 2, 62, 0
4, 79872, Note_on_c, 2, 64, 96
4, 80896, Note_off_c, 2, 64, 0
4, 80896, Note_on_c, 2, 62, 96
4, 81408, Note_off_c, 2, 62, 0
4, 81408, Note_on_c, 2, 60, 96
4, 81920, Note_off_c, 2, 60, 0
4, 81920, Note_on_c, 2, 59, 96
4, 82944, Note_off_c, 2, 59, 0
4, 95232, Note_on_c, 2, 62, 96
4, 96256, Note_off_c, 2, 62, 0
4, 96256, Note_on_c, 2, 60, 96
4, 97280, Note_off_c, 2, 60, 0
4, 97280, Note_on_c, 2, 59, 96
4, 97792, Note_off_c, 2, 59, 0
4, 97792, Note_on_c, 2, 57, 96
4, 98304, Note_off_c, 2, 57, 0
4, 98304, Note_on_c, 2, 57, 96
4, 99328, Note_off_c, 2, 57, 0
4, 99328, Note_on_c, 2, 62, 96
4, 100352, Note_off_c, 2, 62, 0
4, 100352, Note_on_c, 2, 55, 96
4, 100864, Note_off_c, 2, 55, 0
4, 100864, Note_on_c, 2, 57, 96
4, 101376, Note_off_c, 2, 57, 0
4, 101376, Note_on_c, 2, 59, 96
4, 101888, Note_off_c, 2, 59, 0
4, 101888, Note_on_c, 2, 60, 96
4, 102144, Note_off_c, 2, 60, 0
4, 102144, Note_on_c, 2, 62, 96
4, 102400, Note_off_c, 2, 62, 0
4, 102400, Note_on_c, 2, 60, 96
4, 103424, Note_off_c, 2, 60, 0
4, 103424, Note_on_c, 2, 59, 96
4, 104448, Note_off_c, 2, 59, 0
4, 104448, Note_on_c, 2, 64, 96
4, 104960, Note_off_c, 2, 64, 0
4, 104960, Note_on_c, 2, 62, 96
4, 105472, Note_off_c, 2, 62, 0
4, 105472, Note_on_c, 2, 62, 96
4, 105984, Note_off_c, 2, 62, 0
4, 105984, Note_on_c, 2, 57, 96
4, 106496, Note_off_c, 2, 57, 0
4, 106496, Note_on_c, 2, 57, 96
4, 107520, Note_off_c, 2, 57, 0
4, 107520, Note_on_c, 2, 57, 96
4, 108544, Note_off_c, 2, 57, 0
4, 108544, Note_on_c, 2, 57, 96
4, 110592, Note_off_c, 2, 57, 0
4, 110592, Note_on_c, 2, 57, 96
4, 111616, Note_off_c, 2, 57, 0
4, 119808, Note_on_c, 2, 66, 96
4, 120832, Note_off_c, 2, 66, 0
4, 120832, Note_on_c, 2, 59, 96
4, 121344, Note_off_c, 2, 59, 0
4, 121344, Note_on_c, 2, 60, 96
4, 121856, Note_off_c, 2, 60, 0
4, 121856, Note_on_c, 2, 62, 96
4, 122880, Note_off_c, 2, 62, 0
4, 122880, Note_on_c, 2, 55, 96
4, 123392, Note_off_c, 2, 55, 0
4, 123392, Note_on_c, 2, 57, 96
4, 123904, Note_off_c, 2, 57, 0
4, 123904, Note_on_c, 2, 59, 96
4, 124928, Note_off_c, 2, 59, 0
4, 124928, Note_on_c, 2, 60, 96
4, 125696, Note_off_c, 2, 60, 0
4, 125696, Note_on_c, 2, 59, 96
4, 125952, Note_off_c, 2, 59, 0
4, 125952, Note_on_c, 2, 57, 96
4, 126976, Note_off_c, 2, 57, 0
4, 126976, Note_on_c, 2, 59, 96
4, 129024, Note_off_c, 2, 59, 0
4, 161792, End_track
5, 0, Start_track
5, 0, Title_t, "Instrument 4"
5, 19456, Note_on_c, 3, 55, 96
5, 19968, Note_off_c, 3, 55, 0
5, 19968, Note_on_c, 3, 54, 96
5, 20480, Note_off_c, 3, 54, 0
5, 20480, Note_on_c, 3, 52, 96
5, 20992, Note_off_c, 3, 52, 0
5, 20992, Note_on_c, 3, 50, 96
5, 21504, Note_off_c, 3, 50, 0
5, 21504, Note_on_c, 3, 48, 96
5, 22016, Note_off_c, 3, 48, 0
5, 22016, Note_on_c, 3, 50, 96
5, 22528, Note_off_c, 3, 50, 0
5, 22528, Note_on_c, 3, 55, 96
5, 23552, Note_off_c, 3, 55, 0
5, 24064, Note_on_c, 3, 60, 96
5, 24576, Note_off_c, 3, 60, 0
5, 24576, Note_on_c, 3, 59, 96
5, 24832, Note_off_c, 3, 59, 0
5, 24832, Note_on_c, 3, 60, 96
5, 25088, Note_off_c, 3, 60, 0
5, 25088, Note_on_c, 3, 59, 96
5, 25344, Note_off_c, 3, 59, 0
5, 25344, Note_on_c, 3, 60, 96
5, 25600, Note_off_c, 3, 60, 0
5, 25600, Note_on_c, 3, 62, 96
5, 26112, Note_off_c, 3, 62, 0
5, 26112, Note_on_c, 3, 50, 96
5, 26624, Note_off_c, 3, 50, 0
5, 26624, Note_on_c, 3, 55, 96
5, 27648, Note_off_c, 3, 55, 0
5, 33792, Note_on_c, 3, 52, 96
5, 34304, Note_off_c, 3, 52, 0
5, 34304, Note_on_c, 3, 54, 96
5, 34816, Note_off_c, 3, 54, 0
5, 34816, Note_on_c, 3, 55, 96
5, 35840, Note_off_c, 3, 55, 0
5, 35840, Note_on_c, 3, 48, 96
5, 36352, Note_off_c, 3, 48, 0
5, 36352, Note_on_c, 3, 50, 96
5, 36864, Note_off_c, 3, 50, 0
5, 36864, Note_on_c, 3, 52, 96
5, 38400, Note_off_c, 3, 52, 0
5, 38400, Note_on_c, 3, 50, 96
5, 38912, Note_off_c, 3, 50, 0
5, 38912, Note_on_c, 3, 49, 96
5, 39936, Note_off_c, 3, 49, 0
5, 39936, Note_on_c, 3, 50, 96
5, 40960, Note_off_c, 3, 50, 0
5, 40960, Note_on_c, 3, 43, 96
5, 41984, Note_off_c, 3, 43, 0
5, 60416, Note_on_c, 3, 55, 96
5, 60928, Note_off_c, 3, 55, 0
5, 60928, Note_on_c, 3, 54, 96
5, 61440, Note_off_c, 3, 54, 0
5, 61440, Note_on_c, 3, 52, 96
5, 61952, Note_off_c, 3, 52, 0
5, 61952, Note_on_c, 3, 50, 96
5, 62464, Note_off_c, 3, 50, 0
5, 62464, Note_on_c, 3, 48, 96
5, 62976, Note_off_c, 3, 48, 0
5, 62976, Note_on_c, 3, 50, 96
5, 63488, Note_off_c, 3, 50, 0
5, 63488, Note_on_c, 3, 55, 96
5, 64512, Note_off_c, 3, 55, 0
5, 65024, Note_on_c, 3, 60, 96
5, 65536, Note_off_c, 3, 60, 0
5, 65536, Note_on_c, 3, 59, 96
5, 65792, Note_off_c, 3, 59, 0
5, 65792, Note_on_c, 3, 60, 96
5, 66048, Note_off_c, 3, 60, 0
5, 66048, Note_on_c, 3, 59, 96
5, 66304, Note_off_c, 3, 59, 0
5, 66304, Note_on_c, 3, 60, 96
5, 66560, Note_off_c, 3, 60, 0
5, 66560, Note_on_c, 3, 62, 96
5, 67072, Note_off_c, 3, 62, 0
5, 67072, Note_on_c, 3, 50, 96
5, 67584, Note_off_c, 3, 50, 0
5, 67584, Note_on_c, 3, 55, 96
5, 68608, Note_off_c, 3, 55, 0
5, 74752, Note_on_c, 3, 52, 96
5, 75264, Note_off_c, 3, 52, 0
5, 75264, Note_on_c, 3, 54, 96
5, 75776, Note_off_c, 3, 54, 0
5, 75776, Note_on_c, 3, 55, 96
5, 76800, Note_off_c, 3, 55, 0
5, 76800, Note_on_c, 3, 48, 96
5, 77312, Note_off_c, 3, 48, 0
5, 77312, Note_on_c, 3, 50, 96
5, 77824, Note_off_c, 3, 50, 0
5, 77824, Note_on_c, 3, 52, 96
5, 79360, Note_off_c, 3, 52, 0
5, 79360, Note_on_c, 3, 50, 96
5, 79872, Note_off_c, 3, 50, 0
5, 79872, Note_on_c, 3, 48, 96
5, 80896, Note_off_c, 3, 48, 0
5, 80896, Note_on_c, 3, 50, 96
5, 81920, Note_off_c, 3, 50, 0
5, 81920, Note_on_c, 3, 43, 96
5, 82944, Note_off_c, 3, 43, 0
5, 95232, Note_on_c, 3, 55, 96
5, 96256, Note_off_c, 3, 55, 0
5, 96256, Note_on_c, 3, 48, 96
5, 96768, Note_off_c, 3, 48, 0
5, 96768, Note_on_c, 3, 50, 96
5, 97280, Note_off_c, 3, 50, 0
5, 97280, Note_on_c, 3, 52, 96
5, 97792, Note_off_c, 3, 52, 0
5, 97792, Note_on_c, 3, 49, 96
5, 98304, Note_off_c, 3, 49, 0
5, 98304, Note_on_c, 3, 50, 96
5, 99328, Note_off_c, 3, 50, 0
5, 99328, Note_on_c, 3, 50, 96
5, 99840, Note_off_c, 3, 50, 0
5, 99840, Note_on_c, 3, 48, 96
5, 100352, Note_off_c, 3, 48, 0
5, 100352, Note_on_c, 3, 47, 96
5, 100864, Note_off_c, 3, 47, 0
5, 100864, Note_on_c, 3, 48, 96
5, 101376, Note_off_c, 3, 48, 0
5, 101376, Note_on_c, 3, 50, 96
5, 101888, Note_off_c, 3, 50, 0
5, 101888, Note_on_c, 3, 47, 96
5, 102400, Note_off_c, 3, 47, 0
5, 102400, Note_on_c, 3, 48, 96
5, 103424, Note_off_c, 3, 48, 0
5, 103424, Note_on_c, 3, 55, 96
5, 103936, Note_off_c, 3, 55, 0
5, 103936, Note_on_c, 3, 52, 96
5, 104448, Note_off_c, 3, 52, 0
5, 104448, Note_on_c, 3, 49, 96
5, 104960, Note_off_c, 3, 49, 0
5, 104960, Note_on_c, 3, 50, 96
5, 105472, Note_off_c, 3, 50, 0
5, 105472, Note_on_c, 3, 47, 96
5, 105984, Note_off_c, 3, 47, 0
5, 105984, Note_on_c, 3, 49, 96
5, 106496, Note_off_c, 3, 49, 0
5, 106496, Note_on_c, 3, 50, 96
5, 107008, Note_off_c, 3, 50, 0
5, 107008, Note_on_c, 3, 57, 96
5, 107520, Note_off_c, 3, 57, 0
5, 107520, Note_on_c, 3, 54, 96
5, 108032, Note_off_c, 3, 54, 0
5, 108032, Note_on_c, 3, 50, 96
5, 108544, Note_off_c, 3, 50, 0
5, 108544, Note_on_c, 3, 45, 96
5, 110592, Note_off_c, 3, 45, 0
5, 110592, Note_on_c, 3, 50, 96
5, 111616, Note_off_c, 3, 50, 0
5, 119808, Note_on_c, 3, 50, 96
5, 120832, Note_off_c, 3, 50, 0
5, 120832, Note_on_c, 3, 55, 96
5, 121344, Note_off_c, 3, 55, 0
5, 121344, Note_on_c, 3, 57, 96
5, 121856, Note_off_c, 3, 57, 0
5, 121856, Note_on_c, 3, 59, 96
5, 122880, Note_off_c, 3, 59, 0
5, 122880, Note_on_c, 3, 52, 96
5, 123392, Note_off_c, 3, 52, 0
5, 123392, Note_on_c, 3, 54, 96
5, 123904, Note_off_c, 3, 54, 0
5, 123904, Note_on_c, 3, 55, 96
5, 124928, Note_off_c, 3, 55, 0
5, 124928, Note_on_c, 3, 48, 96
5, 125952, Note_off_c, 3, 48, 0
5, 125952, Note_on_c, 3, 50, 96
5, 126976, Note_off_c, 3, 50, 0
5, 126976, Note_on_c, 3, 43, 96
5, 129024, Note_off_c, 3, 43, 0
5, 161792, End_track
6, 0, Start_track
6, 0, Title_t, "Instrument 5"
6, 512, Note_on_c, 4, 62, 96
6, 1024, Note_off_c, 4, 62, 0
6, 1024, Note_on_c, 4, 67, 96
6, 1536, Note_off_c, 4, 67, 0
6, 1536, Note_on_c, 4, 69, 96
6, 2048, Note_off_c, 4, 69, 0
6, 2048, Note_on_c, 4, 71, 96
6, 2304, Note_off_c, 4, 71, 0
6, 2304, Note_on_c, 4, 69, 96
6, 2560, Note_off_c, 4, 69, 0
6, 2560, Note_on_c, 4, 67, 96
6, 2560, Note_on_c, 4, 62, 96
6, 2816, Note_off_c, 4, 67, 0
6, 2816, Note_on_c, 4, 69, 96
6, 3072, Note_off_c, 4, 69, 0
6, 3072, Note_on_c, 4, 71, 96
6, 3072, Note_off_c, 4, 62, 0
6, 3072, Note_on_c, 4, 67, 96
6, 3328, Note_off_c, 4, 71, 0
6, 3328, Note_on_c, 4, 74, 96
6, 3584, Note_off_c, 4, 74, 0
6, 3584, Note_on_c, 4, 72, 96
6, 3584, Note_off_c, 4, 67, 0
6, 3584, Note_on_c, 4, 69, 96
6, 3840, Note_off_c, 4, 72, 0
6, 3840, Note_on_c, 4, 76, 96
6, 4096, Note_off_c, 4, 76, 0
6, 4096, Note_off_c, 4, 69, 0
6, 4096, Note_on_c, 4, 74, 96
6, 4096, Note_on_c, 4, 71, 96
6, 4352, Note_off_c, 4, 74, 0
6, 4352, Note_on_c, 4, 72, 96
6, 4352, Note_off_c, 4, 71, 0
6, 4352, Note_on_c, 4, 69, 96
6, 4608, Note_off_c, 4, 72, 0
6, 4608, Note_on_c, 4, 71, 96
6, 4608, Note_off_c, 4, 69, 0
6, 4608, Note_on_c, 4, 67, 96
6, 4864, Note_off_c, 4, 71, 0
6, 4864, Note_on_c, 4, 72, 96
6, 4864, Note_off_c, 4, 67, 0
6, 4864, Note_on_c, 4, 69, 96
6, 5120, Note_off_c, 4, 72, 0
6, 5120, Note_on_c, 4, 74, 96
6, 5120, Note_off_c, 4, 69, 0
6, 5120, Note_on_c, 4, 71, 96
6, 5376, Note_off_c, 4, 71, 0
6, 5376, Note_on_c, 4, 74, 96
6, 5632, Note_off_c, 4, 74, 0
6, 5632, Note_on_c, 4, 78, 96
6, 5632, Note_off_c, 4, 74, 0
6, 5632, Note_on_c, 4, 72, 96
6, 5888, Note_off_c, 4, 72, 0
6, 5888, Note_on_c, 4, 76, 96
6, 6144, Note_off_c, 4, 78, 0
6, 6144, Note_on_c, 4, 79, 96
6, 6144, Note_off_c, 4, 76, 0
6, 6144, Note_on_c, 4, 74, 96
6, 6400, Note_off_c, 4, 74, 0
6, 6400, Note_on_c, 4, 72, 96
6, 6656, Note_off_c, 4, 79, 0
6, 6656, Note_on_c, 4, 74, 96
6, 6656, Note_off_c, 4, 72, 0
6, 6656, Note_on_c, 4, 71, 96
6, 6912, Note_off_c, 4, 74, 0
6, 6912, Note_on_c, 4, 72, 96
6, 6912, Note_off_c, 4, 71, 0
6, 6912, Note_on_c, 4, 69, 96
6, 7168, Note_off_c, 4, 72, 0
6, 7168, Note_on_c, 4, 71, 96
6, 7168, Note_off_c, 4, 69, 0
6, 7168, Note_on_c, 4, 67, 96
6, 7424, Note_off_c, 4, 71, 0
6, 7424, Note_on_c, 4, 72, 96
6, 7680, Note_off_c, 4, 72, 0
6, 7680, Note_on_c, 4, 71, 96
6, 7680, Note_off_c, 4, 67, 0
6, 7680, Note_on_c, 4, 62, 96
6, 7936, Note_off_c, 4, 71, 0
6, 7936, Note_on_c, 4, 72, 96
6, 8192, Note_off_c, 4, 72, 0
6, 8192, Note_off_c, 4, 62, 0
6, 8192, Note_on_c, 4, 74, 96
6, 8192, Note_on_c, 4, 67, 96
6, 8704, Note_off_c, 4, 74, 0
6, 8704, Note_off_c, 4, 67, 0
6, 9728, Note_on_c, 4, 78, 96
6, 9728, Note_on_c, 4, 69, 96
6, 10240, Note_off_c, 4, 78, 0
6, 10240, Note_on_c, 4, 79, 96
6, 10240, Note_off_c, 4, 69, 0
6, 10240, Note_on_c, 4, 71, 96
6, 10752, Note_off_c, 4, 79, 0
6, 10752, Note_off_c, 4, 71, 0
6, 11776, Note_on_c, 4, 78, 96
6, 11776, Note_on_c, 4, 71, 96
6, 12288, Note_off_c, 4, 78, 0
6, 12288, Note_off_c, 4, 71, 0
6, 12288, Note_on_c, 4, 76, 96
6, 12288, Note_on_c, 4, 67, 96
6, 12800, Note_off_c, 4, 76, 0
6, 12800, Note_off_c, 4, 67, 0
6, 13824, Note_on_c, 4, 74, 96
6, 13824, Note_on_c, 4, 67, 96
6, 14336, Note_off_c, 4, 74, 0
6, 14336, Note_on_c, 4, 76, 96
6, 14336, Note_off_c, 4, 67, 0
6, 14336, Note_on_c, 4, 67, 96
6, 14848, Note_off_c, 4, 76, 0
6, 14848, Note_on_c, 4, 74, 96
6, 14848, Note_off_c, 4, 67, 0
6, 14848, Note_on_c, 4, 69, 96
6, 15360, Note_off_c, 4, 74, 0
6, 15360, Note_on_c, 4, 74, 96
6, 15360, Note_off_c, 4, 69, 0
6, 15360, Note_on_c, 4, 71, 96
6, 15872, Note_off_c, 4, 71, 0
6, 15872, Note_on_c, 4, 72, 96
6, 16384, Note_off_c, 4, 72, 0
6, 16384, Note_on_c, 4, 71, 96
6, 16640, Note_off_c, 4, 74, 0
6, 16640, Note_on_c, 4, 72, 96
6, 16640, Note_off_c, 4, 71, 0
6, 16640, Note_on_c, 4, 69, 96
6, 16896, Note_off_c, 4, 72, 0
6, 16896, Note_on_c, 4, 71, 96
6, 16896, Note_off_c, 4, 69, 0
6, 16896, Note_on_c, 4, 67, 96
6, 17152, Note_off_c, 4, 71, 0
6, 17152, Note_on_c, 4, 72, 96
6, 17408, Note_off_c, 4, 72, 0
6, 17408, Note_on_c, 4, 69, 96
6, 17408, Note_off_c, 4, 67, 0
6, 17408, Note_on_c, 4, 62, 96
6, 17664, Note_off_c, 4, 62, 0
6, 17664, Note_on_c, 4, 59, 96
6, 17920, Note_off_c, 4, 59, 0
6, 17920, Note_on_c, 4, 62, 96
6, 18176, Note_off_c, 4, 69, 0
6, 18176, Note_on_c, 4, 67, 96
6, 18432, Note_off_c, 4, 67, 0
6, 18432, Note_on_c, 4, 67, 96
6, 18432, Note_off_c, 4, 62, 0
6, 18432, Note_on_c, 4, 59, 96
6, 19456, Note_off_c, 4, 67, 0
6, 19456, Note_off_c, 4, 59, 0
6, 19968, Note_on_c, 4, 62, 96
6, 20480, Note_off_c, 4, 62, 0
6, 20480, Note_on_c, 4, 67, 96
6, 20736, Note_off_c, 4, 67, 0
6, 20736, Note_on_c, 4, 69, 96
6, 20992, Note_off_c, 4, 69, 0
6, 20992, Note_on_c, 4, 67, 96
6, 20992, Note_on_c, 4, 62, 96
6, 21504, Note_off_c, 4, 67, 0
6, 21504, Note_off_c, 4, 62, 0
6, 21504, Note_on_c, 4, 67, 96
6, 22016, Note_on_c, 4, 69, 96
6, 22016, Note_off_c, 4, 67, 0
6, 22016, Note_on_c, 4, 62, 96
6, 22528, Note_off_c, 4, 69, 0
6, 22528, Note_on_c, 4, 71, 96
6, 22528, Note_off_c, 4, 62, 0
6, 22784, Note_off_c, 4, 71, 0
6, 22784, Note_on_c, 4, 72, 96
6, 23040, Note_off_c, 4, 72, 0
6, 23040, Note_on_c, 4, 71, 96
6, 23040, Note_on_c, 4, 62, 96
6, 23552, Note_off_c, 4, 71, 0
6, 23552, Note_off_c, 4, 62, 0
6, 23552, Note_on_c, 4, 67, 96
6, 23808, Note_off_c, 4, 67, 0
6, 23808, Note_on_c, 4, 69, 96
6, 24064, Note_on_c, 4, 76, 96
6, 24064, Note_off_c, 4, 69, 0
6, 24064, Note_on_c, 4, 67, 96
6, 24576, Note_off_c, 4, 76, 0
6, 24576, Note_off_c, 4, 67, 0
6, 24576, Note_on_c, 4, 74, 96
6, 24832, Note_off_c, 4, 74, 0
6, 24832, Note_on_c, 4, 72, 96
6, 25088, Note_off_c, 4, 72, 0
6, 25088, Note_on_c, 4, 74, 96
6, 25088, Note_on_c, 4, 62, 96
6, 25600, Note_off_c, 4, 74, 0
6, 25600, Note_off_c, 4, 62, 0
6, 25600, Note_on_c, 4, 59, 96
6, 26112, Note_on_c, 4, 78, 96
6, 26112, Note_off_c, 4, 59, 0
6, 26112, Note_on_c, 4, 69, 96
6, 26624, Note_off_c, 4, 78, 0
6, 26624, Note_on_c, 4, 79, 96
6, 26624, Note_off_c, 4, 69, 0
6, 26624, Note_on_c, 4, 71, 96
6, 27136, Note_off_c, 4, 79, 0
6, 27136, Note_off_c, 4, 71, 0
6, 28160, Note_on_c, 4, 78, 96
6, 28160, Note_on_c, 4, 69, 96
6, 28672, Note_off_c, 4, 78, 0
6, 28672, Note_off_c, 4, 69, 0
6, 28672, Note_on_c, 4, 79, 96
6, 28672, Note_on_c, 4, 71, 96
6, 29184, Note_off_c, 4, 79, 0
6, 29184, Note_off_c, 4, 71, 0
6, 30208, Note_on_c, 4, 78, 96
6, 30208, Note_on_c, 4, 71, 96
6, 30720, Note_off_c, 4, 78, 0
6, 30720, Note_on_c, 4, 76, 96
6, 30720, Note_off_c, 4, 71, 0
6, 30720, Note_on_c, 4, 67, 96
6, 31232, Note_off_c, 4, 76, 0
6, 31232, Note_off_c, 4, 67, 0
6, 32256, Note_on_c, 4, 74, 96
6, 32256, Note_on_c, 4, 71, 96
6, 32768, Note_off_c, 4, 74, 0
6, 32768, Note_off_c, 4, 71, 0
6, 32768, Note_on_c, 4, 76, 96
6, 32768, Note_on_c, 4, 72, 96
6, 33280, Note_off_c, 4, 76, 0
6, 33280, Note_on_c, 4, 74, 96
6, 33280, Note_off_c, 4, 72, 0
6, 33792, Note_off_c, 4, 74, 0
6, 33792, Note_on_c, 4, 67, 96
6, 34304, Note_off_c, 4, 67, 0
6, 34304, Note_on_c, 4, 76, 96
6, 34304, Note_on_c, 4, 69, 96
6, 34816, Note_off_c, 4, 76, 0
6, 34816, Note_on_c, 4, 74, 96
6, 34816, Note_off_c, 4, 69, 0
6, 34816, Note_on_c, 4, 71, 96
6, 35072, Note_off_c, 4, 74, 0
6, 35072, Note_on_c, 4, 72, 96
6, 35328, Note_off_c, 4, 72, 0
6, 35328, Note_on_c, 4, 74, 96
6, 35328, Note_off_c, 4, 71, 0
6, 35328, Note_on_c, 4, 67, 96
6, 35840, Note_off_c, 4, 74, 0
6, 35840, Note_off_c, 4, 67, 0
6, 35840, Note_on_c, 4, 72, 96
6, 36096, Note_off_c, 4, 72, 0
6, 36096, Note_on_c, 4, 71, 96
6, 36352, Note_on_c, 4, 72, 96
6, 36352, Note_off_c, 4, 71, 0
6, 36352, Note_on_c, 4, 72, 96
6, 36864, Note_off_c, 4, 72, 0
6, 36864, Note_off_c, 4, 72, 0
6, 36864, Note_on_c, 4, 71, 96
6, 37120, Note_off_c, 4, 71, 0
6, 37120, Note_on_c, 4, 69, 96
6, 37376, Note_off_c, 4, 69, 0
6, 37376, Note_on_c, 4, 71, 96
6, 37376, Note_on_c, 4, 62, 96
6, 37888, Note_off_c, 4, 71, 0
6, 37888, Note_off_c, 4, 62, 0
6, 37888, Note_on_c, 4, 67, 96
6, 38144, Note_off_c, 4, 67, 0
6, 38144, Note_on_c, 4, 66, 96
6, 38400, Note_on_c, 4, 71, 96
6, 38400, Note_off_c, 4, 66, 0
6, 38400, Note_on_c, 4, 67, 96
6, 38912, Note_off_c, 4, 71, 0
6, 38912, Note_on_c, 4, 69, 96
6, 38912, Note_off_c, 4, 67, 0
6, 39168, Note_off_c, 4, 69, 0
6, 39168, Note_on_c, 4, 71, 96
6, 39424, Note_off_c, 4, 71, 0
6, 39424, Note_on_c, 4, 69, 96
6, 39424, Note_on_c, 4, 76, 96
6, 39680, Note_off_c, 4, 69, 0
6, 39680, Note_on_c, 4, 71, 96
6, 39936, Note_off_c, 4, 71, 0
6, 39936, Note_on_c, 4, 72, 96
6, 39936, Note_off_c, 4, 76, 0
6, 39936, Note_on_c, 4, 69, 96
6, 40192, Note_off_c, 4, 72, 0
6, 40192, Note_on_c, 4, 74, 96
6, 40192, Note_off_c, 4, 69, 0
6, 40192, Note_on_c, 4, 71, 96
6, 40448, Note_off_c, 4, 74, 0
6, 40448, Note_on_c, 4, 72, 96
6, 40448, Note_off_c, 4, 71, 0
6, 40448, Note_on_c, 4, 69, 96
6, 40704, Note_off_c, 4, 72, 0
6, 40704, Note_on_c, 4, 74, 96
6, 40704, Note_off_c, 4, 69, 0
6, 40704, Note_on_c, 4, 71, 96
6, 40960, Note_off_c, 4, 74, 0
6, 40960, Note_off_c, 4, 71, 0
6, 40960, Note_on_c, 4, 71, 96
6, 40960, Note_on_c, 4, 67, 96
6, 41472, Note_off_c, 4, 71, 0
6, 41472, Note_on_c, 4, 62, 96
6, 41984, Note_off_c, 4, 62, 0
6, 41984, Note_on_c, 4, 67, 96
6, 41984, Note_off_c, 4, 67, 0
6, 42496, Note_off_c, 4, 67, 0
6, 42496, Note_on_c, 4, 69, 96
6, 43008, Note_off_c, 4, 69, 0
6, 43008, Note_on_c, 4, 71, 96
6, 43264, Note_off_c, 4, 71, 0
6, 43264, Note_on_c, 4, 69, 96
6, 43520, Note_off_c, 4, 69, 0
6, 43520, Note_on_c, 4, 67, 96
6, 43520, Note_on_c, 4, 62, 96
6, 43776, Note_off_c, 4, 67, 0
6, 43776, Note_on_c, 4, 69, 96
6, 44032, Note_off_c, 4, 69, 0
6, 44032, Note_on_c, 4, 71, 96
6, 44032, Note_off_c, 4, 62, 0
6, 44032, Note_on_c, 4, 67, 96
6, 44288, Note_off_c, 4, 71, 0
6, 44288, Note_on_c, 4, 74, 96
6, 44544, Note_off_c, 4, 74, 0
6, 44544, Note_on_c, 4, 72, 96
6, 44544, Note_off_c, 4, 67, 0
6, 44544, Note_on_c, 4, 69, 96
6, 44800, Note_off_c, 4, 72, 0
6, 44800, Note_on_c, 4, 76, 96
6, 45056, Note_off_c, 4, 76, 0
6, 45056, Note_off_c, 4, 69, 0
6, 45056, Note_on_c, 4, 74, 96
6, 45056, Note_on_c, 4, 71, 96
6, 45312, Note_off_c, 4, 74, 0
6, 45312, Note_on_c, 4, 72, 96
6, 45312, Note_off_c, 4, 71, 0
6, 45312, Note_on_c, 4, 69, 96
6, 45568, Note_off_c, 4, 72, 0
6, 45568, Note_on_c, 4, 71, 96
6, 45568, Note_off_c, 4, 69, 0
6, 45568, Note_on_c, 4, 67, 96
6, 45824, Note_off_c, 4, 71, 0
6, 45824, Note_on_c, 4, 72, 96
6, 45824, Note_off_c, 4, 67, 0
6, 45824, Note_on_c, 4, 69, 96
6, 46080, Note_off_c, 4, 72, 0
6, 46080, Note_on_c, 4, 74, 96
6, 46080, Note_off_c, 4, 69, 0
6, 46080, Note_on_c, 4, 71, 96
6, 46336, Note_off_c, 4, 71, 0
6, 46336, Note_on_c, 4, 74, 96
6, 46592, Note_off_c, 4, 74, 0
6, 46592, Note_on_c, 4, 78, 96
6, 46592, Note_off_c, 4, 74, 0
6, 46592, Note_on_c, 4, 72, 96
6, 46848, Note_off_c, 4, 72, 0
6, 46848, Note_on_c, 4, 76, 96
6, 47104, Note_off_c, 4, 78, 0
6, 47104, Note_on_c, 4, 79, 96
6, 47104, Note_off_c, 4, 76, 0
6, 47104, Note_on_c, 4, 74, 96
6, 47360, Note_off_c, 4, 74, 0
6, 47360, Note_on_c, 4, 72, 96
6, 47616, Note_off_c, 4, 79, 0
6, 47616, Note_on_c, 4, 74, 96
6, 47616, Note_off_c, 4, 72, 0
6, 47616, Note_on_c, 4, 71, 96
6, 47872, Note_off_c, 4, 74, 0
6, 47872, Note_on_c, 4, 72, 96
6, 47872, Note_off_c, 4, 71, 0
6, 47872, Note_on_c, 4, 69, 96
6, 48128, Note_off_c, 4, 72, 0
6, 48128, Note_on_c, 4, 71, 96
6, 48128, Note_off_c, 4, 69, 0
6, 48128, Note_on_c, 4, 67, 96
6, 48384, Note_off_c, 4, 71, 0
6, 48384, Note_on_c, 4, 72, 96
6, 48640, Note_off_c, 4, 72, 0
6, 48640, Note_on_c, 4, 71, 96
6, 48640, Note_off_c, 4, 67, 0
6, 48640, Note_on_c, 4, 62, 96
6, 48896, Note_off_c, 4, 71, 0
6, 48896, Note_on_c, 4, 72, 96
6, 49152, Note_off_c, 4, 72, 0
6, 49152, Note_off_c, 4, 62, 0
6, 49152, Note_on_c, 4, 74, 96
6, 49152, Note_on_c, 4, 67, 96
6, 49664, Note_off_c, 4, 74, 0
6, 49664, Note_off_c, 4, 67, 0
6, 50688, Note_on_c, 4, 78, 96
6, 50688, Note_on_c, 4, 69, 96
6, 51200, Note_off_c, 4, 78, 0
6, 51200, Note_on_c, 4, 79, 96
6, 51200, Note_off_c, 4, 69, 0
6, 51200, Note_on_c, 4, 71, 96
6, 51712, Note_off_c, 4, 79, 0
6, 51712, Note_off_c, 4, 71, 0
6, 52736, Note_on_c, 4, 78, 96
6, 52736, Note_on_c, 4, 71, 96
6, 53248, Note_off_c, 4, 78, 0
6, 53248, Note_off_c, 4, 71, 0
6, 53248, Note_on_c, 4, 76, 96
6, 53248, Note_on_c, 4, 67, 96
6, 53760, Note_off_c, 4, 76, 0
6, 53760, Note_off_c, 4, 67, 0
6, 54784, Note_on_c, 4, 74, 96
6, 54784, Note_on_c, 4, 67, 96
6, 55296, Note_off_c, 4, 74, 0
6, 55296, Note_on_c, 4, 76, 96
6, 55296, Note_off_c, 4, 67, 0
6, 55296, Note_on_c, 4, 67, 96
6, 55808, Note_off_c, 4, 76, 0
6, 55808, Note_on_c, 4, 74, 96
6, 55808, Note_off_c, 4, 67, 0
6, 55808, Note_on_c, 4, 69, 96
6, 56320, Note_off_c, 4, 74, 0
6, 56320, Note_on_c, 4, 74, 96
6, 56320, Note_off_c, 4, 69, 0
6, 56320, Note_on_c, 4, 71, 96
6, 56832, Note_off_c, 4, 71, 0
6, 56832, Note_on_c, 4, 72, 96
6, 57344, Note_off_c, 4, 72, 0
6, 57344, Note_on_c, 4, 71, 96
6, 57600, Note_off_c, 4, 74, 0
6, 57600, Note_on_c, 4, 72, 96
6, 57600, Note_off_c, 4, 71, 0
6, 57600, Note_on_c, 4, 69, 96
6, 57856, Note_off_c, 4, 72, 0
6, 57856, Note_on_c, 4, 71, 96
6, 57856, Note_off_c, 4, 69, 0
6, 57856, Note_on_c, 4, 67, 96
6, 58112, Note_off_c, 4, 71, 0
6, 58112, Note_on_c, 4, 72, 96
6, 58368, Note_off_c, 4, 72, 0
6, 58368, Note_on_c, 4, 69, 96
6, 58368, Note_off_c, 4, 67, 0
6, 58368, Note_on_c, 4, 62, 96
6, 58624, Note_off_c, 4, 62, 0
6, 58624, Note_on_c, 4, 59, 96
6, 58880, Note_off_c, 4, 59, 0
6, 58880, Note_on_c, 4, 62, 96
6, 59136, Note_off_c, 4, 69, 0
6, 59136, Note_on_c, 4, 67, 96
6, 59392, Note_off_c, 4, 67, 0
6, 59392, Note_on_c, 4, 67, 96
6, 59392, Note_off_c, 4, 62, 0
6, 59392, Note_on_c, 4, 59, 96
6, 60928, Note_off_c, 4, 67, 0
6, 60928, Note_on_c, 4, 62, 96
6, 60928, Note_off_c, 4, 59, 0
6, 61440, Note_off_c, 4, 62, 0
6, 61440, Note_on_c, 4, 67, 96
6, 61696, Note_off_c, 4, 67, 0
6, 61696, Note_on_c, 4, 69, 96
6, 61952, Note_off_c, 4, 69, 0
6, 61952, Note_on_c, 4, 67, 96
6, 61952, Note_on_c, 4, 62, 96
6, 62464, Note_off_c, 4, 67, 0
6, 62464, Note_off_c, 4, 62, 0
6, 62464, Note_on_c, 4, 67, 96
6, 62976, Note_on_c, 4, 69, 96
6, 62976, Note_off_c, 4, 67, 0
6, 62976, Note_on_c, 4, 62, 96
6, 63488, Note_off_c, 4, 69, 0
6, 63488, Note_on_c, 4, 71, 96
6, 63488, Note_off_c, 4, 62, 0
6, 63744, Note_off_c, 4, 71, 0
6, 63744, Note_on_c, 4, 72, 96
6, 64000, Note_off_c, 4, 72, 0
6, 64000, Note_on_c, 4, 71, 96
6, 64000, Note_on_c, 4, 62, 96
6, 64512, Note_off_c, 4, 71, 0
6, 64512, Note_off_c, 4, 62, 0
6, 64512, Note_on_c, 4, 67, 96
6, 64768, Note_off_c, 4, 67, 0
6, 64768, Note_on_c, 4, 69, 96
6, 65024, Note_on_c, 4, 76, 96
6, 65024, Note_off_c, 4, 69, 0
6, 65024, Note_on_c, 4, 67, 96
6, 65536, Note_off_c, 4, 76, 0
6, 65536, Note_off_c, 4, 67, 0
6, 65536, Note_on_c, 4, 64, 96
6, 65792, Note_off_c, 4, 64, 0
6, 65792, Note_on_c, 4, 67, 96
6, 66048, Note_off_c, 4, 67, 0
6, 66048, Note_on_c, 4, 66, 96
6, 66304, Note_off_c, 4, 66, 0
6, 66304, Note_on_c, 4, 69, 96
6, 66560, Note_off_c, 4, 69, 0
6, 66560, Note_on_c, 4, 67, 96
6, 66816, Note_off_c, 4, 67, 0
6, 66816, Note_on_c, 4, 79, 96
6, 67072, Note_off_c, 4, 79, 0
6, 67072, Note_on_c, 4, 78, 96
6, 67328, Note_off_c, 4, 78, 0
6, 67328, Note_on_c, 4, 76, 96
6, 67584, Note_off_c, 4, 76, 0
6, 67584, Note_on_c, 4, 74, 96
6, 67840, Note_off_c, 4, 74, 0
6, 67840, Note_on_c, 4, 72, 96
6, 68096, Note_off_c, 4, 72, 0
6, 68096, Note_on_c, 4, 71, 96
6, 68352, Note_off_c, 4, 71, 0
6, 68352, Note_on_c, 4, 72, 96
6, 68480, Note_off_c, 4, 72, 0
6, 68480, Note_on_c, 4, 74, 96
6, 68608, Note_off_c, 4, 74, 0
6, 68608, Note_on_c, 4, 69, 96
6, 69376, Note_off_c, 4, 69, 0
6, 69376, Note_on_c, 4, 67, 96
6, 69632, Note_off_c, 4, 67, 0
6, 69632, Note_on_c, 4, 79, 96
6, 69632, Note_on_c, 4, 71, 96
6, 70144, Note_off_c, 4, 79, 0
6, 70144, Note_off_c, 4, 71, 0
6, 71168, Note_on_c, 4, 78, 96
6, 71168, Note_on_c, 4, 71, 96
6, 71680, Note_off_c, 4, 78, 0
6, 71680, Note_on_c, 4, 76, 96
6, 71680, Note_off_c, 4, 71, 0
6, 71680, Note_on_c, 4, 67, 96
6, 72192, Note_off_c, 4, 76, 0
6, 72192, Note_off_c, 4, 67, 0
6, 73216, Note_on_c, 4, 74, 96
6, 73216, Note_on_c, 4, 71, 96
6, 73728, Note_off_c, 4, 74, 0
6, 73728, Note_off_c, 4, 71, 0
6, 73728, Note_on_c, 4, 76, 96
6, 73728, Note_on_c, 4, 72, 96
6, 74240, Note_off_c, 4, 76, 0
6, 74240, Note_on_c, 4, 74, 96
6, 74240, Note_off_c, 4, 72, 0
6, 74752, Note_off_c, 4, 74, 0
6, 74752, Note_on_c, 4, 67, 96
6, 75264, Note_off_c, 4, 67, 0
6, 75264, Note_on_c, 4, 76, 96
6, 75264, Note_on_c, 4, 69, 96
6, 75776, Note_off_c, 4, 76, 0
6, 75776, Note_on_c, 4, 74, 96
6, 75776, Note_off_c, 4, 69, 0
6, 75776, Note_on_c, 4, 71, 96
6, 76032, Note_off_c, 4, 74, 0
6, 76032, Note_on_c, 4, 72, 96
6, 76288, Note_off_c, 4, 72, 0
6, 76288, Note_on_c, 4, 74, 96
6, 76288, Note_off_c, 4, 71, 0
6, 76288, Note_on_c, 4, 67, 96
6, 76800, Note_off_c, 4, 74, 0
6, 76800, Note_off_c, 4, 67, 0
6, 76800, Note_on_c, 4, 72, 96
6, 77056, Note_off_c, 4, 72, 0
6, 77056, Note_on_c, 4, 71, 96
6, 77312, Note_on_c, 4, 72, 96
6, 77312, Note_off_c, 4, 71, 0
6, 77312, Note_on_c, 4, 72, 96
6, 77824, Note_off_c, 4, 72, 0
6, 77824, Note_off_c, 4, 72, 0
6, 77824, Note_on_c, 4, 71, 96
6, 78080, Note_off_c, 4, 71, 0
6, 78080, Note_on_c, 4, 69, 96
6, 78336, Note_off_c, 4, 69, 0
6, 78336, Note_on_c, 4, 71, 96
6, 78336, Note_on_c, 4, 62, 96
6, 78848, Note_off_c, 4, 71, 0
6, 78848, Note_off_c, 4, 62, 0
6, 78848, Note_on_c, 4, 67, 96
6, 79104, Note_off_c, 4, 67, 0
6, 79104, Note_on_c, 4, 66, 96
6, 79360, Note_on_c, 4, 71, 96
6, 79360, Note_off_c, 4, 66, 0
6, 79360, Note_on_c, 4, 67, 96
6, 79872, Note_off_c, 4, 71, 0
6, 79872, Note_on_c, 4, 69, 96
6, 79872, Note_off_c, 4, 67, 0
6, 80128, Note_off_c, 4, 69, 0
6, 80128, Note_on_c, 4, 71, 96
6, 80384, Note_off_c, 4, 71, 0
6, 80384, Note_on_c, 4, 69, 96
6, 80384, Note_on_c, 4, 76, 96
6, 80640, Note_off_c, 4, 69, 0
6, 80640, Note_on_c, 4, 71, 96
6, 80896, Note_off_c, 4, 71, 0
6, 80896, Note_on_c, 4, 72, 96
6, 80896, Note_off_c, 4, 76, 0
6, 80896, Note_on_c, 4, 69, 96
6, 81152, Note_off_c, 4, 72, 0
6, 81152, Note_on_c, 4, 74, 96
6, 81152, Note_off_c, 4, 69, 0
6, 81152, Note_on_c, 4, 71, 96
6, 81408, Note_off_c, 4, 74, 0
6, 81408, Note_on_c, 4, 72, 96
6, 81408, Note_off_c, 4, 71, 0
6, 81408, Note_on_c, 4, 69, 96
6, 81664, Note_off_c, 4, 72, 0
6, 81664, Note_on_c, 4, 74, 96
6, 81664, Note_off_c, 4, 69, 0
6, 81664, Note_on_c, 4, 71, 96
6, 81920, Note_off_c, 4, 74, 0
6, 81920, Note_off_c, 4, 71, 0
6, 81920, Note_on_c, 4, 71, 96
6, 81920, Note_on_c, 4, 67, 96
6, 82176, Note_off_c, 4, 71, 0
6, 82176, Note_on_c, 4, 72, 96
6, 82176, Note_off_c, 4, 67, 0
6, 82176, Note_on_c, 4, 69, 96
6, 82432, Note_off_c, 4, 72, 0
6, 82432, Note_on_c, 4, 71, 96
6, 82432, Note_off_c, 4, 69, 0
6, 82432, Note_on_c, 4, 67, 96
6, 82688, Note_off_c, 4, 71, 0
6, 82688, Note_on_c, 4, 72, 96
6, 82688, Note_off_c, 4, 67, 0
6, 82688, Note_on_c, 4, 69, 96
6, 82944, Note_off_c, 4, 72, 0
6, 82944, Note_on_c, 4, 74, 96
6, 82944, Note_off_c, 4, 69, 0
6, 82944, Note_on_c, 4, 71, 96
6, 83200, Note_off_c, 4, 74, 0
6, 83200, Note_on_c, 4, 76, 96
6, 83200, Note_off_c, 4, 71, 0
6, 83200, Note_on_c, 4, 72, 96
6, 83456, Note_off_c, 4, 76, 0
6, 83456, Note_on_c, 4, 74, 96
6, 83456, Note_off_c, 4, 72, 0
6, 83456, Note_on_c, 4, 71, 96
6, 83712, Note_off_c, 4, 74, 0
6, 83712, Note_on_c, 4, 76, 96
6, 83712, Note_off_c, 4, 71, 0
6, 83712, Note_on_c, 4, 72, 96
6, 83968, Note_off_c, 4, 76, 0
6, 83968, Note_on_c, 4, 72, 96
6, 83968, Note_off_c, 4, 72, 0
6, 83968, Note_on_c, 4, 69, 96
6, 84224, Note_off_c, 4, 72, 0
6, 84224, Note_on_c, 4, 74, 96
6, 84224, Note_off_c, 4, 69, 0
6, 84224, Note_on_c, 4, 71, 96
6, 84480, Note_off_c, 4, 74, 0
6, 84480, Note_on_c, 4, 72, 96
6, 84480, Note_off_c, 4, 71, 0
6, 84480, Note_on_c, 4, 69, 96
6, 84736, Note_off_c, 4, 72, 0
6, 84736, Note_on_c, 4, 74, 96
6, 84736, Note_off_c, 4, 69, 0
6, 84736, Note_on_c, 4, 71, 96
6, 84992, Note_off_c, 4, 74, 0
6, 84992, Note_on_c, 4, 76, 96
6, 84992, Note_off_c, 4, 71, 0
6, 84992, Note_on_c, 4, 72, 96
6, 85248, Note_off_c, 4, 76, 0
6, 85248, Note_on_c, 4, 78, 96
6, 85248, Note_off_c, 4, 72, 0
6, 85248, Note_on_c, 4, 74, 96
6, 85504, Note_off_c, 4, 78, 0
6, 85504, Note_on_c, 4, 76, 96
6, 85504, Note_off_c, 4, 74, 0
6, 85504, Note_on_c, 4, 72, 96
6, 85760, Note_off_c, 4, 76, 0
6, 85760, Note_on_c, 4, 78, 96
6, 85760, Note_off_c, 4, 72, 0
6, 85760, Note_on_c, 4, 74, 96
6, 86016, Note_off_c, 4, 78, 0
6, 86016, Note_off_c, 4, 74, 0
6, 86016, Note_on_c, 4, 74, 96
6, 86016, Note_on_c, 4, 71, 96
6, 86272, Note_off_c, 4, 74, 0
6, 86272, Note_on_c, 4, 72, 96
6, 86272, Note_off_c, 4, 71, 0
6, 86272, Note_on_c, 4, 69, 96
6, 86528, Note_off_c, 4, 72, 0
6, 86528, Note_on_c, 4, 71, 96
6, 86528, Note_off_c, 4, 69, 0
6, 86528, Note_on_c, 4, 67, 96
6, 86784, Note_off_c, 4, 71, 0
6, 86784, Note_on_c, 4, 72, 96
6, 86784, Note_off_c, 4, 67, 0
6, 86784, Note_on_c, 4, 69, 96
6, 87040, Note_off_c, 4, 72, 0
6, 87040, Note_on_c, 4, 74, 96
6, 87040, Note_off_c, 4, 69, 0
6, 87040, Note_on_c, 4, 71, 96
6, 87296, Note_off_c, 4, 71, 0
6, 87296, Note_on_c, 4, 74, 96
6, 87552, Note_off_c, 4, 74, 0
6, 87552, Note_on_c, 4, 78, 96
6, 87552, Note_off_c, 4, 74, 0
6, 87552, Note_on_c, 4, 72, 96
6, 87808, Note_off_c, 4, 72, 0
6, 87808, Note_on_c, 4, 76, 96
6, 88064, Note_off_c, 4, 78, 0
6, 88064, Note_on_c, 4, 79, 96
6, 88064, Note_off_c, 4, 76, 0
6, 88064, Note_on_c, 4, 74, 96
6, 88320, Note_off_c, 4, 74, 0
6, 88320, Note_on_c, 4, 72, 96
6, 88576, Note_off_c, 4, 79, 0
6, 88576, Note_on_c, 4, 74, 96
6, 88576, Note_off_c, 4, 72, 0
6, 88576, Note_on_c, 4, 71, 96
6, 88832, Note_off_c, 4, 74, 0
6, 88832, Note_on_c, 4, 72, 96
6, 88832, Note_off_c, 4, 71, 0
6, 88832, Note_on_c, 4, 69, 96
6, 89088, Note_off_c, 4, 72, 0
6, 89088, Note_on_c, 4, 71, 96
6, 89088, Note_off_c, 4, 69, 0
6, 89088, Note_on_c, 4, 67, 96
6, 89344, Note_off_c, 4, 71, 0
6, 89344, Note_on_c, 4, 72, 96
6, 89600, Note_off_c, 4, 72, 0
6, 89600, Note_on_c, 4, 71, 96
6, 89600, Note_off_c, 4, 67, 0
6, 89600, Note_on_c, 4, 62, 96
6, 89856, Note_off_c, 4, 71, 0
6, 89856, Note_on_c, 4, 72, 96
6, 90112, Note_off_c, 4, 72, 0
6, 90112, Note_off_c, 4, 62, 0
6, 90112, Note_on_c, 4, 74, 96
6, 90112, Note_on_c, 4, 67, 96
6, 90624, Note_off_c, 4, 74, 0
6, 90624, Note_off_c, 4, 67, 0
6, 91648, Note_on_c, 4, 78, 96
6, 91648, Note_on_c, 4, 69, 96
6, 92160, Note_off_c, 4, 78, 0
6, 92160, Note_on_c, 4, 79, 96
6, 92160, Note_off_c, 4, 69, 0
6, 92160, Note_on_c, 4, 71, 96
6, 92672, Note_off_c, 4, 79, 0
6, 92672, Note_off_c, 4, 71, 0
6, 93696, Note_on_c, 4, 78, 96
6, 93696, Note_on_c, 4, 71, 96
6, 94208, Note_off_c, 4, 78, 0
6, 94208, Note_off_c, 4, 71, 0
6, 94208, Note_on_c, 4, 76, 96
6, 94208, Note_on_c, 4, 67, 96
6, 94720, Note_off_c, 4, 76, 0
6, 94720, Note_off_c, 4, 67, 0
6, 95744, Note_on_c, 4, 74, 96
6, 95744, Note_on_c, 4, 67, 96
6, 96256, Note_off_c, 4, 74, 0
6, 96256, Note_on_c, 4, 76, 96
6, 96256, Note_off_c, 4, 67, 0
6, 96256, Note_on_c, 4, 55, 96
6, 96512, Note_off_c, 4, 76, 0
6, 96512, Note_on_c, 4, 74, 96
6, 96768, Note_off_c, 4, 74, 0
6, 96768, Note_on_c, 4, 76, 96
6, 96768, Note_off_c, 4, 55, 0
6, 96768, Note_on_c, 4, 67, 96
6, 97280, Note_off_c, 4, 76, 0
6, 97280, Note_off_c, 4, 67, 0
6, 97280, Note_on_c, 4, 67, 96
6, 97536, Note_off_c, 4, 67, 0
6, 97536, Note_on_c, 4, 66, 96
6, 97792, Note_on_c, 4, 76, 96
6, 97792, Note_off_c, 4, 66, 0
6, 97792, Note_on_c, 4, 67, 96
6, 98304, Note_off_c, 4, 76, 0
6, 98304, Note_off_c, 4, 67, 0
6, 98304, Note_on_c, 4, 72, 96
6, 98816, Note_off_c, 4, 72, 0
6, 98816, Note_on_c, 4, 62, 96
6, 98816, Note_on_c, 4, 74, 96
6, 99328, Note_off_c, 4, 62, 0
6, 99328, Note_off_c, 4, 74, 0
6, 99328, Note_on_c, 4, 69, 96
6, 99840, Note_on_c, 4, 69, 96
6, 99840, Note_off_c, 4, 69, 0
6, 99840, Note_on_c, 4, 62, 96
6, 100352, Note_off_c, 4, 69, 0
6, 100352, Note_on_c, 4, 74, 96
6, 100352, Note_off_c, 4, 62, 0
6, 100608, Note_off_c, 4, 74, 0
6, 100608, Note_on_c, 4, 72, 96
6, 100864, Note_off_c, 4, 72, 0
6, 100864, Note_on_c, 4, 74, 96
6, 100864, Note_on_c, 4, 72, 96
6, 101376, Note_off_c, 4, 74, 0
6, 101376, Note_off_c, 4, 72, 0
6, 101376, Note_on_c, 4, 71, 96
6, 101888, Note_on_c, 4, 74, 96
6, 101888, Note_off_c, 4, 71, 0
6, 101888, Note_on_c, 4, 67, 96
6, 102400, Note_off_c, 4, 74, 0
6, 102400, Note_off_c, 4, 67, 0
6, 102400, Note_on_c, 4, 67, 96
6, 102912, Note_off_c, 4, 67, 0
6, 102912, Note_on_c, 4, 72, 96
6, 102912, Note_on_c, 4, 67, 96
6, 103424, Note_off_c, 4, 72, 0
6, 103424, Note_off_c, 4, 67, 0
6, 103424, Note_on_c, 4, 55, 96
6, 103936, Note_on_c, 4, 71, 96
6, 103936, Note_off_c, 4, 55, 0
6, 103936, Note_on_c, 4, 67, 96
6, 104448, Note_off_c, 4, 71, 0
6, 104448, Note_on_c, 4, 69, 96
6, 104448, Note_off_c, 4, 67, 0
6, 104960, Note_off_c, 4, 69, 0
6, 104960, Note_on_c, 4, 74, 96
6, 104960, Note_on_c, 4, 69, 96
6, 105472, Note_off_c, 4, 74, 0
6, 105472, Note_off_c, 4, 69, 0
6, 105472, Note_on_c, 4, 71, 96
6, 105984, Note_on_c, 4, 76, 96
6, 105984, Note_off_c, 4, 71, 0
6, 105984, Note_on_c, 4, 69, 96
6, 106496, Note_off_c, 4, 76, 0
6, 106496, Note_off_c, 4, 69, 0
6, 106496, Note_on_c, 4, 74, 96
6, 106752, Note_off_c, 4, 74, 0
6, 106752, Note_on_c, 4, 73, 96
6, 107008, Note_off_c, 4, 73, 0
6, 107008, Note_on_c, 4, 74, 96
6, 107008, Note_on_c, 4, 69, 96
6, 107520, Note_off_c, 4, 74, 0
6, 107520, Note_off_c, 4, 69, 0
6, 107520, Note_on_c, 4, 74, 96
6, 107776, Note_off_c, 4, 74, 0
6, 107776, Note_on_c, 4, 73, 96
6, 108032, Note_on_c, 4, 74, 96
6, 108032, Note_off_c, 4, 73, 0
6, 108032, Note_on_c, 4, 74, 96
6, 108544, Note_off_c, 4, 74, 0
6, 108544, Note_on_c, 4, 74, 96
6, 108544, Note_off_c, 4, 74, 0
6, 109056, Note_off_c, 4, 74, 0
6, 109056, Note_on_c, 4, 76, 96
6, 109056, Note_on_c, 4, 79, 96
6, 109312, Note_off_c, 4, 76, 0
6, 109312, Note_on_c, 4, 71, 96
6, 109568, Note_off_c, 4, 71, 0
6, 109568, Note_on_c, 4, 73, 96
6, 109568, Note_off_c, 4, 79, 0
6, 109568, Note_on_c, 4, 76, 96
6, 110080, Note_off_c, 4, 73, 0
6, 110080, Note_on_c, 4, 76, 96
6, 110080, Note_off_c, 4, 76, 0
6, 110080, Note_on_c, 4, 69, 96
6, 110592, Note_off_c, 4, 76, 0
6, 110592, Note_off_c, 4, 69, 0
6, 110592, Note_on_c, 4, 78, 96
6, 111104, Note_off_c, 4, 78, 0
6, 112128, Note_on_c, 4, 78, 96
6, 112640, Note_off_c, 4, 78, 0
6, 112640, Note_on_c, 4, 78, 96
6, 113152, Note_off_c, 4, 78, 0
6, 114176, Note_on_c, 4, 69, 96
6, 114688, Note_off_c, 4, 69, 0
6, 114688, Note_on_c, 4, 71, 96
6, 115200, Note_off_c, 4, 71, 0
6, 116224, Note_on_c, 4, 79, 96
6, 116736, Note_off_c, 4, 79, 0
6, 116736, Note_on_c, 4, 78, 96
6, 116992, Note_off_c, 4, 78, 0
6, 116992, Note_on_c, 4, 76, 96
6, 117248, Note_off_c, 4, 76, 0
6, 117248, Note_on_c, 4, 74, 96
6, 117504, Note_off_c, 4, 74, 0
6, 117504, Note_on_c, 4, 76, 96
6, 117760, Note_off_c, 4, 76, 0
6, 117760, Note_on_c, 4, 73, 96
6, 118528, Note_off_c, 4, 73, 0
6, 118528, Note_on_c, 4, 74, 96
6, 118784, Note_off_c, 4, 74, 0
6, 118784, Note_on_c, 4, 74, 96
6, 118784, Note_on_c, 4, 69, 96
6, 119296, Note_off_c, 4, 69, 0
6, 119296, Note_on_c, 4, 69, 96
6, 119808, Note_off_c, 4, 74, 0
6, 119808, Note_off_c, 4, 69, 0
6, 119808, Note_on_c, 4, 74, 96
6, 120320, Note_on_c, 4, 74, 96
6, 120320, Note_off_c, 4, 74, 0
6, 120320, Note_on_c, 4, 78, 96
6, 120832, Note_off_c, 4, 74, 0
6, 120832, Note_on_c, 4, 76, 96
6, 120832, Note_off_c, 4, 78, 0
6, 121344, Note_off_c, 4, 76, 0
6, 121344, Note_on_c, 4, 78, 96
6, 121344, Note_on_c, 4, 76, 96
6, 121856, Note_off_c, 4, 78, 0
6, 121856, Note_off_c, 4, 76, 0
6, 121856, Note_on_c, 4, 74, 96
6, 122368, Note_on_c, 4, 71, 96
6, 122368, Note_off_c, 4, 74, 0
6, 122368, Note_on_c, 4, 62, 96
6, 122880, Note_off_c, 4, 71, 0
6, 122880, Note_off_c, 4, 62, 0
6, 122880, Note_on_c, 4, 72, 96
6, 123392, Note_off_c, 4, 72, 0
6, 123392, Note_on_c, 4, 74, 96
6, 123392, Note_on_c, 4, 72, 96
6, 123904, Note_off_c, 4, 74, 0
6, 123904, Note_off_c, 4, 72, 0
6, 123904, Note_on_c, 4, 71, 96
6, 124416, Note_on_c, 4, 67, 96
6, 124416, Note_off_c, 4, 71, 0
6, 124416, Note_on_c, 4, 59, 96
6, 124928, Note_off_c, 4, 67, 0
6, 124928, Note_on_c, 4, 69, 96
6, 124928, Note_off_c, 4, 59, 0
6, 125184, Note_off_c, 4, 69, 0
6, 125184, Note_on_c, 4, 71, 96
6, 125440, Note_off_c, 4, 71, 0
6, 125440, Note_on_c, 4, 72, 96
6, 125440, Note_on_c, 4, 69, 96
6, 125952, Note_off_c, 4, 69, 0
6, 125952, Note_on_c, 4, 69, 96
6, 126208, Note_off_c, 4, 72, 0
6, 126208, Note_on_c, 4, 71, 96
6, 126464, Note_off_c, 4, 71, 0
6, 126464, Note_on_c, 4, 69, 96
6, 126464, Note_off_c, 4, 69, 0
6, 126464, Note_on_c, 4, 62, 96
6, 126720, Note_off_c, 4, 69, 0
6, 126720, Note_on_c, 4, 72, 96
6, 126976, Note_off_c, 4, 72, 0
6, 126976, Note_off_c, 4, 62, 0
6, 126976, Note_on_c, 4, 71, 96
6, 126976, Note_on_c, 4, 67, 96
6, 127232, Note_off_c, 4, 71, 0
6, 127232, Note_on_c, 4, 72, 96
6, 127232, Note_off_c, 4, 67, 0
6, 127232, Note_on_c, 4, 69, 96
6, 127488, Note_off_c, 4, 72, 0
6, 127488, Note_on_c, 4, 71, 96
6, 127488, Note_off_c, 4, 69, 0
6, 127488, Note_on_c, 4, 67, 96
6, 127744, Note_off_c, 4, 71, 0
6, 127744, Note_on_c, 4, 72, 96
6, 127744, Note_off_c, 4, 67, 0
6, 127744, Note_on_c, 4, 69, 96
6, 128000, Note_off_c, 4, 72, 0
6, 128000, Note_on_c, 4, 74, 96
6, 128000, Note_off_c, 4, 69, 0
6, 128000, Note_on_c, 4, 71, 96
6, 128256, Note_off_c, 4, 74, 0
6, 128256, Note_on_c, 4, 76, 96
6, 128256, Note_off_c, 4, 71, 0
6, 128256, Note_on_c, 4, 72, 96
6, 128512, Note_off_c, 4, 76, 0
6, 128512, Note_on_c, 4, 74, 96
6, 128512, Note_off_c, 4, 72, 0
6, 128512, Note_on_c, 4, 71, 96
6, 128768, Note_off_c, 4, 74, 0
6, 128768, Note_on_c, 4, 76, 96
6, 128768, Note_off_c, 4, 71, 0
6, 128768, Note_on_c, 4, 72, 96
6, 129024, Note_off_c, 4, 76, 0
6, 129024, Note_on_c, 4, 72, 96
6, 129024, Note_off_c, 4, 72, 0
6, 129024, Note_on_c, 4, 69, 96
6, 129280, Note_off_c, 4, 72, 0
6, 129280, Note_on_c, 4, 74, 96
6, 129280, Note_off_c, 4, 69, 0
6, 129280, Note_on_c, 4, 71, 96
6, 129536, Note_off_c, 4, 74, 0
6, 129536, Note_on_c, 4, 72, 96
6, 129536, Note_off_c, 4, 71, 0
6, 129536, Note_on_c, 4, 69, 96
6, 129792, Note_off_c, 4, 72, 0
6, 129792, Note_on_c, 4, 74, 96
6, 129792, Note_off_c, 4, 69, 0
6, 129792, Note_on_c, 4, 71, 96
6, 130048, Note_off_c, 4, 74, 0
6, 130048, Note_on_c, 4, 76, 96
6, 130048, Note_off_c, 4, 71, 0
6, 130048, Note_on_c, 4, 72, 96
6, 130304, Note_off_c, 4, 76, 0
6, 130304, Note_on_c, 4, 78, 96
6, 130304, Note_off_c, 4, 72, 0
6, 130304, Note_on_c, 4, 74, 96
6, 130560, Note_off_c, 4, 78, 0
6, 130560, Note_on_c, 4, 76, 96
6, 130560, Note_off_c, 4, 74, 0
6, 130560, Note_on_c, 4, 72, 96
6, 130816, Note_off_c, 4, 76, 0
6, 130816, Note_on_c, 4, 78, 96
6, 130816, Note_off_c, 4, 72, 0
6, 130816, Note_on_c, 4, 74, 96
6, 131072, Note_off_c, 4, 78, 0
6, 131072, Note_off_c, 4, 74, 0
6, 131072, Note_on_c, 4, 74, 96
6, 131072, Note_on_c, 4, 71, 96
6, 137216, Note_off_c, 4, 74, 0
6, 137216, Note_on_c, 4, 72, 96
6, 138240, Note_off_c, 4, 71, 0
6, 138240, Note_on_c, 4, 69, 96
6, 139264, Note_off_c, 4, 72, 0
6, 139264, Note_off_c, 4, 69, 0
6, 139264, Note_on_c, 4, 71, 96
6, 139264, Note_on_c, 4, 67, 96
6, 139776, Note_off_c, 4, 71, 0
6, 139776, Note_on_c, 4, 62, 96
6, 140288, Note_off_c, 4, 62, 0
6, 140288, Note_on_c, 4, 67, 96
6, 140288, Note_off_c, 4, 67, 0
6, 140800, Note_off_c, 4, 67, 0
6, 140800, Note_on_c, 4, 69, 96
6, 141312, Note_off_c, 4, 69, 0
6, 141312, Note_on_c, 4, 71, 96
6, 141568, Note_off_c, 4, 71, 0
6, 141568, Note_on_c, 4, 69, 96
6, 141824, Note_off_c, 4, 69, 0
6, 141824, Note_on_c, 4, 67, 96
6, 141824, Note_on_c, 4, 62, 96
6, 142080, Note_off_c, 4, 67, 0
6, 142080, Note_on_c, 4, 69, 96
6, 142336, Note_off_c, 4, 69, 0
6, 142336, Note_on_c, 4, 71, 96
6, 142336, Note_off_c, 4, 62, 0
6, 142336, Note_on_c, 4, 67, 96
6, 142592, Note_off_c, 4, 71, 0
6, 142592, Note_on_c, 4, 74, 96
6, 142848, Note_off_c, 4, 74, 0
6, 142848, Note_on_c, 4, 72, 96
6, 142848, Note_off_c, 4, 67, 0
6, 142848, Note_on_c, 4, 69, 96
6, 143104, Note_off_c, 4, 72, 0
6, 143104, Note_on_c, 4, 76, 96
6, 143360, Note_off_c, 4, 76, 0
6, 143360, Note_off_c, 4, 69, 0
6, 143360, Note_on_c, 4, 74, 96
6, 143360, Note_on_c, 4, 71, 96
6, 143616, Note_off_c, 4, 74, 0
6, 143616, Note_on_c, 4, 72, 96
6, 143616, Note_off_c, 4, 71, 0
6, 143616, Note_on_c, 4, 69, 96
6, 143872, Note_off_c, 4, 72, 0
6, 143872, Note_on_c, 4, 71, 96
6, 143872, Note_off_c, 4, 69, 0
6, 143872, Note_on_c, 4, 67, 96
6, 144128, Note_off_c, 4, 71, 0
6, 144128, Note_on_c, 4, 72, 96
6, 144128, Note_off_c, 4, 67, 0
6, 144128, Note_on_c, 4, 69, 96
6, 144384, Note_off_c, 4, 72, 0
6, 144384, Note_on_c, 4, 74, 96
6, 144384, Note_off_c, 4, 69, 0
6, 144384, Note_on_c, 4, 71, 96
6, 144640, Note_off_c, 4, 71, 0
6, 144640, Note_on_c, 4, 74, 96
6, 144896, Note_off_c, 4, 74, 0
6, 144896, Note_on_c, 4, 78, 96
6, 144896, Note_off_c, 4, 74, 0
6, 144896, Note_on_c, 4, 72, 96
6, 145152, Note_off_c, 4, 72, 0
6, 145152, Note_on_c, 4, 76, 96
6, 145408, Note_off_c, 4, 78, 0
6, 145408, Note_on_c, 4, 79, 96
6, 145408, Note_off_c, 4, 76, 0
6, 145408, Note_on_c, 4, 74, 96
6, 145664, Note_off_c, 4, 74, 0
6, 145664, Note_on_c, 4, 72, 96
6, 145920, Note_off_c, 4, 79, 0
6, 145920, Note_on_c, 4, 74, 96
6, 145920, Note_off_c, 4, 72, 0
6, 145920, Note_on_c, 4, 71, 96
6, 146176, Note_off_c, 4, 74, 0
6, 146176, Note_on_c, 4, 72, 96
6, 146176, Note_off_c, 4, 71, 0
6, 146176, Note_on_c, 4, 69, 96
6, 146432, Note_off_c, 4, 72, 0
6, 146432, Note_on_c, 4, 71, 96
6, 146432, Note_off_c, 4, 69, 0
6, 146432, Note_on_c, 4, 67, 96
6, 146688, Note_off_c, 4, 71, 0
6, 146688, Note_on_c, 4, 72, 96
6, 146944, Note_off_c, 4, 72, 0
6, 146944, Note_on_c, 4, 71, 96
6, 146944, Note_off_c, 4, 67, 0
6, 146944, Note_on_c, 4, 62, 96
6, 147200, Note_off_c, 4, 71, 0
6, 147200, Note_on_c, 4, 72, 96
6, 147456, Note_off_c, 4, 72, 0
6, 147456, Note_off_c, 4, 62, 0
6, 147456, Note_on_c, 4, 74, 96
6, 147456, Note_on_c, 4, 67, 96
6, 147968, Note_off_c, 4, 74, 0
6, 147968, Note_off_c, 4, 67, 0
6, 148992, Note_on_c, 4, 78, 96
6, 148992, Note_on_c, 4, 69, 96
6, 149504, Note_off_c, 4, 78, 0
6, 149504, Note_on_c, 4, 79, 96
6, 149504, Note_off_c, 4, 69, 0
6, 149504, Note_on_c, 4, 71, 96
6, 150016, Note_off_c, 4, 79, 0
6, 150016, Note_off_c, 4, 71, 0
6, 151040, Note_on_c, 4, 78, 96
6, 151040, Note_on_c, 4, 71, 96
6, 151552, Note_off_c, 4, 78, 0
6, 151552, Note_off_c, 4, 71, 0
6, 151552, Note_on_c, 4, 76, 96
6, 151552, Note_on_c, 4, 67, 96
6, 152064, Note_off_c, 4, 76, 0
6, 152064, Note_off_c, 4, 67, 0
6, 153088, Note_on_c, 4, 74, 96
6, 153088, Note_on_c, 4, 67, 96
6, 153600, Note_off_c, 4, 74, 0
6, 153600, Note_on_c, 4, 76, 96
6, 153600, Note_off_c, 4, 67, 0
6, 153600, Note_on_c, 4, 67, 96
6, 154112, Note_off_c, 4, 76, 0
6, 154112, Note_on_c, 4, 74, 96
6, 154112, Note_off_c, 4, 67, 0
6, 154112, Note_on_c, 4, 69, 96
6, 154624, Note_off_c, 4, 74, 0
6, 154624, Note_on_c, 4, 74, 96
6, 154624, Note_off_c, 4, 69, 0
6, 154624, Note_on_c, 4, 71, 96
6, 155136, Note_off_c, 4, 71, 0
6, 155136, Note_on_c, 4, 72, 96
6, 155648, Note_off_c, 4, 72, 0
6, 155648, Note_on_c, 4, 71, 96
6, 155904, Note_off_c, 4, 74, 0
6, 155904, Note_on_c, 4, 72, 96
6, 155904, Note_off_c, 4, 71, 0
6, 155904, Note_on_c, 4, 69, 96
6, 156160, Note_off_c, 4, 72, 0
6, 156160, Note_on_c, 4, 71, 96
6, 156160, Note_off_c, 4, 69, 0
6, 156160, Note_on_c, 4, 67, 96
6, 156416, Note_off_c, 4, 71, 0
6, 156416, Note_on_c, 4, 72, 96
6, 156672, Note_off_c, 4, 72, 0
6, 156672, Note_on_c, 4, 69, 96
6, 156672, Note_off_c, 4, 67, 0
6, 156672, Note_on_c, 4, 62, 96
6, 156928, Note_off_c, 4, 62, 0
6, 156928, Note_on_c, 4, 59, 96
6, 157184, Note_off_c, 4, 59, 0
6, 157184, Note_on_c, 4, 62, 96
6, 157440, Note_off_c, 4, 69, 0
6, 157440, Note_on_c, 4, 67, 96
6, 157696, Note_off_c, 4, 67, 0
6, 157696, Note_on_c, 4, 67, 96
6, 157696, Note_off_c, 4, 62, 0
6, 157696, Note_on_c, 4, 59, 96
6, 161792, Note_off_c, 4, 67, 0
6, 161792, Note_off_c, 4, 59, 0
6, 161792, End_track
7, 0, Start_track
7, 0, Title_t, "Instrument 6"
7, 0, Note_on_c, 5, 79, 96
7, 0, Note_on_c, 5, 79, 96
7, 1024, Note_off_c, 5, 79, 0
7, 1024, Note_off_c, 5, 79, 0
7, 2048, Note_on_c, 5, 74, 96
7, 2048, Note_on_c, 5, 74, 96
7, 3072, Note_off_c, 5, 74, 0
7, 3072, Note_off_c, 5, 74, 0
7, 4608, Note_on_c, 5, 62, 96
7, 4608, Note_on_c, 5, 62, 96
7, 5120, Note_off_c, 5, 62, 0
7, 5120, Note_on_c, 5, 67, 96
7, 5120, Note_off_c, 5, 62, 0
7, 5120, Note_on_c, 5, 67, 96
7, 5632, Note_off_c, 5, 67, 0
7, 5632, Note_on_c, 5, 69, 96
7, 5632, Note_off_c, 5, 67, 0
7, 5632, Note_on_c, 5, 69, 96
7, 6144, Note_off_c, 5, 69, 0
7, 6144, Note_on_c, 5, 71, 96
7, 6144, Note_off_c, 5, 69, 0
7, 6144, Note_on_c, 5, 71, 96
7, 6400, Note_off_c, 5, 71, 0
7, 6400, Note_on_c, 5, 69, 96
7, 6400, Note_off_c, 5, 71, 0
7, 6400, Note_on_c, 5, 69, 96
7, 6656, Note_off_c, 5, 69, 0
7, 6656, Note_on_c, 5, 67, 96
7, 6656, Note_off_c, 5, 69, 0
7, 6656, Note_on_c, 5, 67, 96
7, 6912, Note_off_c, 5, 67, 0
7, 6912, Note_on_c, 5, 69, 96
7, 6912, Note_off_c, 5, 67, 0
7, 6912, Note_on_c, 5, 69, 96
7, 7168, Note_off_c, 5, 69, 0
7, 7168, Note_on_c, 5, 71, 96
7, 7168, Note_off_c, 5, 69, 0
7, 7168, Note_on_c, 5, 71, 96
7, 7424, Note_off_c, 5, 71, 0
7, 7424, Note_on_c, 5, 72, 96
7, 7424, Note_off_c, 5, 71, 0
7, 7424, Note_on_c, 5, 72, 96
7, 7680, Note_off_c, 5, 72, 0
7, 7680, Note_on_c, 5, 71, 96
7, 7680, Note_off_c, 5, 72, 0
7, 7680, Note_on_c, 5, 71, 96
7, 7936, Note_off_c, 5, 71, 0
7, 7936, Note_on_c, 5, 72, 96
7, 7936, Note_off_c, 5, 71, 0
7, 7936, Note_on_c, 5, 72, 96
7, 8192, Note_off_c, 5, 72, 0
7, 8192, Note_off_c, 5, 72, 0
7, 8192, Note_on_c, 5, 74, 96
7, 8192, Note_on_c, 5, 74, 96
7, 8448, Note_off_c, 5, 74, 0
7, 8448, Note_on_c, 5, 79, 96
7, 8448, Note_off_c, 5, 74, 0
7, 8448, Note_on_c, 5, 79, 96
7, 8704, Note_off_c, 5, 79, 0
7, 8704, Note_on_c, 5, 78, 96
7, 8704, Note_off_c, 5, 79, 0
7, 8704, Note_on_c, 5, 78, 96
7, 8960, Note_off_c, 5, 78, 0
7, 8960, Note_on_c, 5, 76, 96
7, 8960, Note_off_c, 5, 78, 0
7, 8960, Note_on_c, 5, 76, 96
7, 9216, Note_off_c, 5, 76, 0
7, 9216, Note_on_c, 5, 74, 96
7, 9216, Note_off_c, 5, 76, 0
7, 9216, Note_on_c, 5, 74, 96
7, 9472, Note_off_c, 5, 74, 0
7, 9472, Note_on_c, 5, 72, 96
7, 9472, Note_off_c, 5, 74, 0
7, 9472, Note_on_c, 5, 72, 96
7, 9728, Note_off_c, 5, 72, 0
7, 9728, Note_on_c, 5, 71, 96
7, 9728, Note_off_c, 5, 72, 0
7, 9728, Note_on_c, 5, 71, 96
7, 9984, Note_off_c, 5, 71, 0
7, 9984, Note_on_c, 5, 72, 96
7, 9984, Note_off_c, 5, 71, 0
7, 9984, Note_on_c, 5, 72, 96
7, 10240, Note_off_c, 5, 72, 0
7, 10240, Note_on_c, 5, 71, 96
7, 10240, Note_off_c, 5, 72, 0
7, 10240, Note_on_c, 5, 71, 96
7, 10496, Note_off_c, 5, 71, 0
7, 10496, Note_on_c, 5, 76, 96
7, 10496, Note_off_c, 5, 71, 0
7, 10496, Note_on_c, 5, 76, 96
7, 10752, Note_off_c, 5, 76, 0
7, 10752, Note_on_c, 5, 74, 96
7, 10752, Note_off_c, 5, 76, 0
7, 10752, Note_on_c, 5, 74, 96
7, 11008, Note_off_c, 5, 74, 0
7, 11008, Note_on_c, 5, 72, 96
7, 11008, Note_off_c, 5, 74, 0
7, 11008, Note_on_c, 5, 72, 96
7, 11264, Note_off_c, 5, 72, 0
7, 11264, Note_on_c, 5, 71, 96
7, 11264, Note_off_c, 5, 72, 0
7, 11264, Note_on_c, 5, 71, 96
7, 11520, Note_off_c, 5, 71, 0
7, 11520, Note_on_c, 5, 69, 96
7, 11520, Note_off_c, 5, 71, 0
7, 11520, Note_on_c, 5, 69, 96
7, 11776, Note_off_c, 5, 69, 0
7, 11776, Note_on_c, 5, 67, 96
7, 11776, Note_off_c, 5, 69, 0
7, 11776, Note_on_c, 5, 67, 96
7, 12032, Note_off_c, 5, 67, 0
7, 12032, Note_on_c, 5, 69, 96
7, 12032, Note_off_c, 5, 67, 0
7, 12032, Note_on_c, 5, 69, 96
7, 12288, Note_off_c, 5, 69, 0
7, 12288, Note_off_c, 5, 69, 0
7, 12288, Note_on_c, 5, 67, 96
7, 12288, Note_on_c, 5, 67, 96
7, 12544, Note_off_c, 5, 67, 0
7, 12544, Note_on_c, 5, 72, 96
7, 12544, Note_off_c, 5, 67, 0
7, 12544, Note_on_c, 5, 72, 96
7, 12800, Note_off_c, 5, 72, 0
7, 12800, Note_on_c, 5, 71, 96
7, 12800, Note_off_c, 5, 72, 0
7, 12800, Note_on_c, 5, 71, 96
7, 13056, Note_off_c, 5, 71, 0
7, 13056, Note_on_c, 5, 69, 96
7, 13056, Note_off_c, 5, 71, 0
7, 13056, Note_on_c, 5, 69, 96
7, 13312, Note_off_c, 5, 69, 0
7, 13312, Note_on_c, 5, 67, 96
7, 13312, Note_off_c, 5, 69, 0
7, 13312, Note_on_c, 5, 67, 96
7, 13568, Note_off_c, 5, 67, 0
7, 13568, Note_on_c, 5, 65, 96
7, 13568, Note_off_c, 5, 67, 0
7, 13568, Note_on_c, 5, 65, 96
7, 13824, Note_off_c, 5, 65, 0
7, 13824, Note_on_c, 5, 64, 96
7, 13824, Note_off_c, 5, 65, 0
7, 13824, Note_on_c, 5, 64, 96
7, 14080, Note_off_c, 5, 64, 0
7, 14080, Note_on_c, 5, 65, 96
7, 14080, Note_off_c, 5, 64, 0
7, 14080, Note_on_c, 5, 65, 96
7, 14336, Note_off_c, 5, 65, 0
7, 14336, Note_on_c, 5, 64, 96
7, 14336, Note_off_c, 5, 65, 0
7, 14336, Note_on_c, 5, 64, 96
7, 14592, Note_off_c, 5, 64, 0
7, 14592, Note_on_c, 5, 67, 96
7, 14592, Note_off_c, 5, 64, 0
7, 14592, Note_on_c, 5, 67, 96
7, 14848, Note_off_c, 5, 67, 0
7, 14848, Note_on_c, 5, 66, 96
7, 14848, Note_off_c, 5, 67, 0
7, 14848, Note_on_c, 5, 66, 96
7, 15104, Note_off_c, 5, 66, 0
7, 15104, Note_on_c, 5, 69, 96
7, 15104, Note_off_c, 5, 66, 0
7, 15104, Note_on_c, 5, 69, 96
7, 15360, Note_off_c, 5, 69, 0
7, 15360, Note_on_c, 5, 67, 96
7, 15360, Note_off_c, 5, 69, 0
7, 15360, Note_on_c, 5, 67, 96
7, 15616, Note_off_c, 5, 67, 0
7, 15616, Note_on_c, 5, 79, 96
7, 15616, Note_off_c, 5, 67, 0
7, 15616, Note_on_c, 5, 79, 96
7, 15872, Note_off_c, 5, 79, 0
7, 15872, Note_on_c, 5, 78, 96
7, 15872, Note_off_c, 5, 79, 0
7, 15872, Note_on_c, 5, 78, 96
7, 16128, Note_off_c, 5, 78, 0
7, 16128, Note_on_c, 5, 76, 96
7, 16128, Note_off_c, 5, 78, 0
7, 16128, Note_on_c, 5, 76, 96
7, 16384, Note_off_c, 5, 76, 0
7, 16384, Note_off_c, 5, 76, 0
7, 16384, Note_on_c, 5, 74, 96
7, 16384, Note_on_c, 5, 74, 96
7, 16640, Note_off_c, 5, 74, 0
7, 16640, Note_on_c, 5, 72, 96
7, 16640, Note_off_c, 5, 74, 0
7, 16640, Note_on_c, 5, 72, 96
7, 16896, Note_off_c, 5, 72, 0
7, 16896, Note_on_c, 5, 71, 96
7, 16896, Note_off_c, 5, 72, 0
7, 16896, Note_on_c, 5, 71, 96
7, 17152, Note_off_c, 5, 71, 0
7, 17152, Note_on_c, 5, 72, 96
7, 17152, Note_off_c, 5, 71, 0
7, 17152, Note_on_c, 5, 72, 96
7, 17280, Note_off_c, 5, 72, 0
7, 17280, Note_on_c, 5, 74, 96
7, 17280, Note_off_c, 5, 72, 0
7, 17280, Note_on_c, 5, 74, 96
7, 17408, Note_off_c, 5, 74, 0
7, 17408, Note_on_c, 5, 69, 96
7, 17408, Note_off_c, 5, 74, 0
7, 17408, Note_on_c, 5, 69, 96
7, 18176, Note_off_c, 5, 69, 0
7, 18176, Note_on_c, 5, 67, 96
7, 18176, Note_off_c, 5, 69, 0
7, 18176, Note_on_c, 5, 67, 96
7, 18432, Note_off_c, 5, 67, 0
7, 18432, Note_on_c, 5, 67, 96
7, 18432, Note_off_c, 5, 67, 0
7, 18432, Note_on_c, 5, 67, 96
7, 19456, Note_off_c, 5, 67, 0
7, 19456, Note_off_c, 5, 67, 0
7, 23040, Note_on_c, 5, 62, 96
7, 23040, Note_on_c, 5, 62, 96
7, 23552, Note_off_c, 5, 62, 0
7, 23552, Note_on_c, 5, 67, 96
7, 23552, Note_off_c, 5, 62, 0
7, 23552, Note_on_c, 5, 67, 96
7, 24064, Note_off_c, 5, 67, 0
7, 24064, Note_on_c, 5, 69, 96
7, 24064, Note_off_c, 5, 67, 0
7, 24064, Note_on_c, 5, 69, 96
7, 24576, Note_off_c, 5, 69, 0
7, 24576, Note_off_c, 5, 69, 0
7, 24576, Note_on_c, 5, 71, 96
7, 24576, Note_on_c, 5, 71, 96
7, 24832, Note_off_c, 5, 71, 0
7, 24832, Note_on_c, 5, 69, 96
7, 24832, Note_off_c, 5, 71, 0
7, 24832, Note_on_c, 5, 69, 96
7, 25088, Note_off_c, 5, 69, 0
7, 25088, Note_on_c, 5, 67, 96
7, 25088, Note_off_c, 5, 69, 0
7, 25088, Note_on_c, 5, 67, 96
7, 25344, Note_off_c, 5, 67, 0
7, 25344, Note_on_c, 5, 69, 96
7, 25344, Note_off_c, 5, 67, 0
7, 25344, Note_on_c, 5, 69, 96
7, 25600, Note_off_c, 5, 69, 0
7, 25600, Note_on_c, 5, 71, 96
7, 25600, Note_off_c, 5, 69, 0
7, 25600, Note_on_c, 5, 71, 96
7, 25856, Note_off_c, 5, 71, 0
7, 25856, Note_on_c, 5, 72, 96
7, 25856, Note_off_c, 5, 71, 0
7, 25856, Note_on_c, 5, 72, 96
7, 26112, Note_off_c, 5, 72, 0
7, 26112, Note_on_c, 5, 71, 96
7, 26112, Note_off_c, 5, 72, 0
7, 26112, Note_on_c, 5, 71, 96
7, 26368, Note_off_c, 5, 71, 0
7, 26368, Note_on_c, 5, 72, 96
7, 26368, Note_off_c, 5, 71, 0
7, 26368, Note_on_c, 5, 72, 96
7, 26624, Note_off_c, 5, 72, 0
7, 26624, Note_on_c, 5, 74, 96
7, 26624, Note_off_c, 5, 72, 0
7, 26624, Note_on_c, 5, 74, 96
7, 26880, Note_off_c, 5, 74, 0
7, 26880, Note_on_c, 5, 79, 96
7, 26880, Note_off_c, 5, 74, 0
7, 26880, Note_on_c, 5, 79, 96
7, 27136, Note_off_c, 5, 79, 0
7, 27136, Note_on_c, 5, 78, 96
7, 27136, Note_off_c, 5, 79, 0
7, 27136, Note_on_c, 5, 78, 96
7, 27392, Note_off_c, 5, 78, 0
7, 27392, Note_on_c, 5, 76, 96
7, 27392, Note_off_c, 5, 78, 0
7, 27392, Note_on_c, 5, 76, 96
7, 27648, Note_off_c, 5, 76, 0
7, 27648, Note_on_c, 5, 74, 96
7, 27648, Note_off_c, 5, 76, 0
7, 27648, Note_on_c, 5, 74, 96
7, 27904, Note_off_c, 5, 74, 0
7, 27904, Note_on_c, 5, 72, 96
7, 27904, Note_off_c, 5, 74, 0
7, 27904, Note_on_c, 5, 72, 96
7, 28160, Note_off_c, 5, 72, 0
7, 28160, Note_on_c, 5, 71, 96
7, 28160, Note_off_c, 5, 72, 0
7, 28160, Note_on_c, 5, 71, 96
7, 28416, Note_off_c, 5, 71, 0
7, 28416, Note_on_c, 5, 72, 96
7, 28416, Note_off_c, 5, 71, 0
7, 28416, Note_on_c, 5, 72, 96
7, 28672, Note_off_c, 5, 72, 0
7, 28672, Note_off_c, 5, 72, 0
7, 28672, Note_on_c, 5, 71, 96
7, 28672, Note_on_c, 5, 71, 96
7, 28928, Note_off_c, 5, 71, 0
7, 28928, Note_on_c, 5, 76, 96
7, 28928, Note_off_c, 5, 71, 0
7, 28928, Note_on_c, 5, 76, 96
7, 29184, Note_off_c, 5, 76, 0
7, 29184, Note_on_c, 5, 74, 96
7, 29184, Note_off_c, 5, 76, 0
7, 29184, Note_on_c, 5, 74, 96
7, 29440, Note_off_c, 5, 74, 0
7, 29440, Note_on_c, 5, 72, 96
7, 29440, Note_off_c, 5, 74, 0
7, 29440, Note_on_c, 5, 72, 96
7, 29696, Note_off_c, 5, 72, 0
7, 29696, Note_on_c, 5, 71, 96
7, 29696, Note_off_c, 5, 72, 0
7, 29696, Note_on_c, 5, 71, 96
7, 29952, Note_off_c, 5, 71, 0
7, 29952, Note_on_c, 5, 69, 96
7, 29952, Note_off_c, 5, 71, 0
7, 29952, Note_on_c, 5, 69, 96
7, 30208, Note_off_c, 5, 69, 0
7, 30208, Note_on_c, 5, 67, 96
7, 30208, Note_off_c, 5, 69, 0
7, 30208, Note_on_c, 5, 67, 96
7, 30464, Note_off_c, 5, 67, 0
7, 30464, Note_on_c, 5, 69, 96
7, 30464, Note_off_c, 5, 67, 0
7, 30464, Note_on_c, 5, 69, 96
7, 30720, Note_off_c, 5, 69, 0
7, 30720, Note_on_c, 5, 67, 96
7, 30720, Note_off_c, 5, 69, 0
7, 30720, Note_on_c, 5, 67, 96
7, 30976, Note_off_c, 5, 67, 0
7, 30976, Note_on_c, 5, 72, 96
7, 30976, Note_off_c, 5, 67, 0
7, 30976, Note_on_c, 5, 72, 96
7, 31232, Note_off_c, 5, 72, 0
7, 31232, Note_on_c, 5, 71, 96
7, 31232, Note_off_c, 5, 72, 0
7, 31232, Note_on_c, 5, 71, 96
7, 31488, Note_off_c, 5, 71, 0
7, 31488, Note_on_c, 5, 69, 96
7, 31488, Note_off_c, 5, 71, 0
7, 31488, Note_on_c, 5, 69, 96
7, 31744, Note_off_c, 5, 69, 0
7, 31744, Note_on_c, 5, 67, 96
7, 31744, Note_off_c, 5, 69, 0
7, 31744, Note_on_c, 5, 67, 96
7, 32000, Note_off_c, 5, 67, 0
7, 32000, Note_on_c, 5, 65, 96
7, 32000, Note_off_c, 5, 67, 0
7, 32000, Note_on_c, 5, 65, 96
7, 32256, Note_off_c, 5, 65, 0
7, 32256, Note_on_c, 5, 64, 96
7, 32256, Note_off_c, 5, 65, 0
7, 32256, Note_on_c, 5, 64, 96
7, 32512, Note_off_c, 5, 64, 0
7, 32512, Note_on_c, 5, 65, 96
7, 32512, Note_off_c, 5, 64, 0
7, 32512, Note_on_c, 5, 65, 96
7, 32768, Note_off_c, 5, 65, 0
7, 32768, Note_off_c, 5, 65, 0
7, 32768, Note_on_c, 5, 64, 96
7, 32768, Note_on_c, 5, 64, 96
7, 33024, Note_off_c, 5, 64, 0
7, 33024, Note_on_c, 5, 67, 96
7, 33024, Note_off_c, 5, 64, 0
7, 33024, Note_on_c, 5, 67, 96
7, 33280, Note_off_c, 5, 67, 0
7, 33280, Note_on_c, 5, 66, 96
7, 33280, Note_off_c, 5, 67, 0
7, 33280, Note_on_c, 5, 66, 96
7, 33536, Note_off_c, 5, 66, 0
7, 33536, Note_on_c, 5, 69, 96
7, 33536, Note_off_c, 5, 66, 0
7, 33536, Note_on_c, 5, 69, 96
7, 33792, Note_off_c, 5, 69, 0
7, 33792, Note_on_c, 5, 67, 96
7, 33792, Note_off_c, 5, 69, 0
7, 33792, Note_on_c, 5, 67, 96
7, 34048, Note_off_c, 5, 67, 0
7, 34048, Note_on_c, 5, 79, 96
7, 34048, Note_off_c, 5, 67, 0
7, 34048, Note_on_c, 5, 79, 96
7, 34304, Note_off_c, 5, 79, 0
7, 34304, Note_on_c, 5, 78, 96
7, 34304, Note_off_c, 5, 79, 0
7, 34304, Note_on_c, 5, 78, 96
7, 34560, Note_off_c, 5, 78, 0
7, 34560, Note_on_c, 5, 76, 96
7, 34560, Note_off_c, 5, 78, 0
7, 34560, Note_on_c, 5, 76, 96
7, 34816, Note_off_c, 5, 76, 0
7, 34816, Note_on_c, 5, 74, 96
7, 34816, Note_off_c, 5, 76, 0
7, 34816, Note_on_c, 5, 74, 96
7, 35072, Note_off_c, 5, 74, 0
7, 35072, Note_on_c, 5, 72, 96
7, 35072, Note_off_c, 5, 74, 0
7, 35072, Note_on_c, 5, 72, 96
7, 35328, Note_off_c, 5, 72, 0
7, 35328, Note_on_c, 5, 71, 96
7, 35328, Note_off_c, 5, 72, 0
7, 35328, Note_on_c, 5, 71, 96
7, 35584, Note_off_c, 5, 71, 0
7, 35584, Note_on_c, 5, 72, 96
7, 35584, Note_off_c, 5, 71, 0
7, 35584, Note_on_c, 5, 72, 96
7, 35712, Note_off_c, 5, 72, 0
7, 35712, Note_on_c, 5, 74, 96
7, 35712, Note_off_c, 5, 72, 0
7, 35712, Note_on_c, 5, 74, 96
7, 35840, Note_off_c, 5, 74, 0
7, 35840, Note_on_c, 5, 69, 96
7, 35840, Note_off_c, 5, 74, 0
7, 35840, Note_on_c, 5, 69, 96
7, 36608, Note_off_c, 5, 69, 0
7, 36608, Note_on_c, 5, 67, 96
7, 36608, Note_off_c, 5, 69, 0
7, 36608, Note_on_c, 5, 67, 96
7, 36864, Note_off_c, 5, 67, 0
7, 36864, Note_off_c, 5, 67, 0
7, 36864, Note_on_c, 5, 67, 96
7, 36864, Note_on_c, 5, 67, 96
7, 37888, Note_off_c, 5, 67, 0
7, 37888, Note_off_c, 5, 67, 0
7, 40960, Note_on_c, 5, 79, 96
7, 40960, Note_on_c, 5, 79, 96
7, 41984, Note_off_c, 5, 79, 0
7, 41984, Note_off_c, 5, 79, 0
7, 43008, Note_on_c, 5, 74, 96
7, 43008, Note_on_c, 5, 74, 96
7, 44032, Note_off_c, 5, 74, 0
7, 44032, Note_off_c, 5, 74, 0
7, 45056, Note_on_c, 5, 71, 96
7, 45056, Note_on_c, 5, 71, 96
7, 45568, Note_off_c, 5, 71, 0
7, 45568, Note_on_c, 5, 62, 96
7, 45568, Note_off_c, 5, 71, 0
7, 45568, Note_on_c, 5, 62, 96
7, 46080, Note_off_c, 5, 62, 0
7, 46080, Note_on_c, 5, 67, 96
7, 46080, Note_off_c, 5, 62, 0
7, 46080, Note_on_c, 5, 67, 96
7, 46592, Note_off_c, 5, 67, 0
7, 46592, Note_on_c, 5, 69, 96
7, 46592, Note_off_c, 5, 67, 0
7, 46592, Note_on_c, 5, 69, 96
7, 47104, Note_off_c, 5, 69, 0
7, 47104, Note_on_c, 5, 71, 96
7, 47104, Note_off_c, 5, 69, 0
7, 47104, Note_on_c, 5, 71, 96
7, 47360, Note_off_c, 5, 71, 0
7, 47360, Note_on_c, 5, 69, 96
7, 47360, Note_off_c, 5, 71, 0
7, 47360, Note_on_c, 5, 69, 96
7, 47616, Note_off_c, 5, 69, 0
7, 47616, Note_on_c, 5, 67, 96
7, 47616, Note_off_c, 5, 69, 0
7, 47616, Note_on_c, 5, 67, 96
7, 47872, Note_off_c, 5, 67, 0
7, 47872, Note_on_c, 5, 69, 96
7, 47872, Note_off_c, 5, 67, 0
7, 47872, Note_on_c, 5, 69, 96
7, 48128, Note_off_c, 5, 69, 0
7, 48128, Note_on_c, 5, 71, 96
7, 48128, Note_off_c, 5, 69, 0
7, 48128, Note_on_c, 5, 71, 96
7, 48384, Note_off_c, 5, 71, 0
7, 48384, Note_on_c, 5, 72, 96
7, 48384, Note_off_c, 5, 71, 0
7, 48384, Note_on_c, 5, 72, 96
7, 48640, Note_off_c, 5, 72, 0
7, 48640, Note_on_c, 5, 71, 96
7, 48640, Note_off_c, 5, 72, 0
7, 48640, Note_on_c, 5, 71, 96
7, 48896, Note_off_c, 5, 71, 0
7, 48896, Note_on_c, 5, 72, 96
7, 48896, Note_off_c, 5, 71, 0
7, 48896, Note_on_c, 5, 72, 96
7, 49152, Note_off_c, 5, 72, 0
7, 49152, Note_off_c, 5, 72, 0
7, 49152, Note_on_c, 5, 74, 96
7, 49152, Note_on_c, 5, 74, 96
7, 49408, Note_off_c, 5, 74, 0
7, 49408, Note_on_c, 5, 79, 96
7, 49408, Note_off_c, 5, 74, 0
7, 49408, Note_on_c, 5, 79, 96
7, 49664, Note_off_c, 5, 79, 0
7, 49664, Note_on_c, 5, 78, 96
7, 49664, Note_off_c, 5, 79, 0
7, 49664, Note_on_c, 5, 78, 96
7, 49920, Note_off_c, 5, 78, 0
7, 49920, Note_on_c, 5, 76, 96
7, 49920, Note_off_c, 5, 78, 0
7, 49920, Note_on_c, 5, 76, 96
7, 50176, Note_off_c, 5, 76, 0
7, 50176, Note_on_c, 5, 74, 96
7, 50176, Note_off_c, 5, 76, 0
7, 50176, Note_on_c, 5, 74, 96
7, 50432, Note_off_c, 5, 74, 0
7, 50432, Note_on_c, 5, 72, 96
7, 50432, Note_off_c, 5, 74, 0
7, 50432, Note_on_c, 5, 72, 96
7, 50688, Note_off_c, 5, 72, 0
7, 50688, Note_on_c, 5, 71, 96
7, 50688, Note_off_c, 5, 72, 0
7, 50688, Note_on_c, 5, 71, 96
7, 50944, Note_off_c, 5, 71, 0
7, 50944, Note_on_c, 5, 72, 96
7, 50944, Note_off_c, 5, 71, 0
7, 50944, Note_on_c, 5, 72, 96
7, 51200, Note_off_c, 5, 72, 0
7, 51200, Note_on_c, 5, 71, 96
7, 51200, Note_off_c, 5, 72, 0
7, 51200, Note_on_c, 5, 71, 96
7, 51456, Note_off_c, 5, 71, 0
7, 51456, Note_on_c, 5, 76, 96
7, 51456, Note_off_c, 5, 71, 0
7, 51456, Note_on_c, 5, 76, 96
7, 51712, Note_off_c, 5, 76, 0
7, 51712, Note_on_c, 5, 74, 96
7, 51712, Note_off_c, 5, 76, 0
7, 51712, Note_on_c, 5, 74, 96
7, 51968, Note_off_c, 5, 74, 0
7, 51968, Note_on_c, 5, 72, 96
7, 51968, Note_off_c, 5, 74, 0
7, 51968, Note_on_c, 5, 72, 96
7, 52224, Note_off_c, 5, 72, 0
7, 52224, Note_on_c, 5, 71, 96
7, 52224, Note_off_c, 5, 72, 0
7, 52224, Note_on_c, 5, 71, 96
7, 52480, Note_off_c, 5, 71, 0
7, 52480, Note_on_c, 5, 69, 96
7, 52480, Note_off_c, 5, 71, 0
7, 52480, Note_on_c, 5, 69, 96
7, 52736, Note_off_c, 5, 69, 0
7, 52736, Note_on_c, 5, 67, 96
7, 52736, Note_off_c, 5, 69, 0
7, 52736, Note_on_c, 5, 67, 96
7, 52992, Note_off_c, 5, 67, 0
7, 52992, Note_on_c, 5, 69, 96
7, 52992, Note_off_c, 5, 67, 0
7, 52992, Note_on_c, 5, 69, 96
7, 53248, Note_off_c, 5, 69, 0
7, 53248, Note_off_c, 5, 69, 0
7, 53248, Note_on_c, 5, 67, 96
7, 53248, Note_on_c, 5, 67, 96
7, 53504, Note_off_c, 5, 67, 0
7, 53504, Note_on_c, 5, 72, 96
7, 53504, Note_off_c, 5, 67, 0
7, 53504, Note_on_c, 5, 72, 96
7, 53760, Note_off_c, 5, 72, 0
7, 53760, Note_on_c, 5, 71, 96
7, 53760, Note_off_c, 5, 72, 0
7, 53760, Note_on_c, 5, 71, 96
7, 54016, Note_off_c, 5, 71, 0
7, 54016, Note_on_c, 5, 69, 96
7, 54016, Note_off_c, 5, 71, 0
7, 54016, Note_on_c, 5, 69, 96
7, 54272, Note_off_c, 5, 69, 0
7, 54272, Note_on_c, 5, 67, 96
7, 54272, Note_off_c, 5, 69, 0
7, 54272, Note_on_c, 5, 67, 96
7, 54528, Note_off_c, 5, 67, 0
7, 54528, Note_on_c, 5, 65, 96
7, 54528, Note_off_c, 5, 67, 0
7, 54528, Note_on_c, 5, 65, 96
7, 54784, Note_off_c, 5, 65, 0
7, 54784, Note_on_c, 5, 64, 96
7, 54784, Note_off_c, 5, 65, 0
7, 54784, Note_on_c, 5, 64, 96
7, 55040, Note_off_c, 5, 64, 0
7, 55040, Note_on_c, 5, 65, 96
7, 55040, Note_off_c, 5, 64, 0
7, 55040, Note_on_c, 5, 65, 96
7, 55296, Note_off_c, 5, 65, 0
7, 55296, Note_on_c, 5, 64, 96
7, 55296, Note_off_c, 5, 65, 0
7, 55296, Note_on_c, 5, 64, 96
7, 55552, Note_off_c, 5, 64, 0
7, 55552, Note_on_c, 5, 67, 96
7, 55552, Note_off_c, 5, 64, 0
7, 55552, Note_on_c, 5, 67, 96
7, 55808, Note_off_c, 5, 67, 0
7, 55808, Note_on_c, 5, 66, 96
7, 55808, Note_off_c, 5, 67, 0
7, 55808, Note_on_c, 5, 66, 96
7, 56064, Note_off_c, 5, 66, 0
7, 56064, Note_on_c, 5, 69, 96
7, 56064, Note_off_c, 5, 66, 0
7, 56064, Note_on_c, 5, 69, 96
7, 56320, Note_off_c, 5, 69, 0
7, 56320, Note_on_c, 5, 67, 96
7, 56320, Note_off_c, 5, 69, 0
7, 56320, Note_on_c, 5, 67, 96
7, 56576, Note_off_c, 5, 67, 0
7, 56576, Note_on_c, 5, 79, 96
7, 56576, Note_off_c, 5, 67, 0
7, 56576, Note_on_c, 5, 79, 96
7, 56832, Note_off_c, 5, 79, 0
7, 56832, Note_on_c, 5, 78, 96
7, 56832, Note_off_c, 5, 79, 0
7, 56832, Note_on_c, 5, 78, 96
7, 57088, Note_off_c, 5, 78, 0
7, 57088, Note_on_c, 5, 76, 96
7, 57088, Note_off_c, 5, 78, 0
7, 57088, Note_on_c, 5, 76, 96
7, 57344, Note_off_c, 5, 76, 0
7, 57344, Note_off_c, 5, 76, 0
7, 57344, Note_on_c, 5, 74, 96
7, 57344, Note_on_c, 5, 74, 96
7, 57600, Note_off_c, 5, 74, 0
7, 57600, Note_on_c, 5, 72, 96
7, 57600, Note_off_c, 5, 74, 0
7, 57600, Note_on_c, 5, 72, 96
7, 57856, Note_off_c, 5, 72, 0
7, 57856, Note_on_c, 5, 71, 96
7, 57856, Note_off_c, 5, 72, 0
7, 57856, Note_on_c, 5, 71, 96
7, 58112, Note_off_c, 5, 71, 0
7, 58112, Note_on_c, 5, 72, 96
7, 58112, Note_off_c, 5, 71, 0
7, 58112, Note_on_c, 5, 72, 96
7, 58240, Note_off_c, 5, 72, 0
7, 58240, Note_on_c, 5, 74, 96
7, 58240, Note_off_c, 5, 72, 0
7, 58240, Note_on_c, 5, 74, 96
7, 58368, Note_off_c, 5, 74, 0
7, 58368, Note_on_c, 5, 69, 96
7, 58368, Note_off_c, 5, 74, 0
7, 58368, Note_on_c, 5, 69, 96
7, 59136, Note_off_c, 5, 69, 0
7, 59136, Note_on_c, 5, 67, 96
7, 59136, Note_off_c, 5, 69, 0
7, 59136, Note_on_c, 5, 67, 96
7, 59392, Note_off_c, 5, 67, 0
7, 59392, Note_on_c, 5, 67, 96
7, 59392, Note_off_c, 5, 67, 0
7, 59392, Note_on_c, 5, 67, 96
7, 60928, Note_off_c, 5, 67, 0
7, 60928, Note_off_c, 5, 67, 0
7, 64000, Note_on_c, 5, 62, 96
7, 64000, Note_on_c, 5, 62, 96
7, 64512, Note_off_c, 5, 62, 0
7, 64512, Note_on_c, 5, 67, 96
7, 64512, Note_off_c, 5, 62, 0
7, 64512, Note_on_c, 5, 67, 96
7, 65024, Note_off_c, 5, 67, 0
7, 65024, Note_on_c, 5, 69, 96
7, 65024, Note_off_c, 5, 67, 0
7, 65024, Note_on_c, 5, 69, 96
7, 65536, Note_off_c, 5, 69, 0
7, 65536, Note_off_c, 5, 69, 0
7, 65536, Note_on_c, 5, 71, 96
7, 65536, Note_on_c, 5, 71, 96
7, 65792, Note_off_c, 5, 71, 0
7, 65792, Note_on_c, 5, 69, 96
7, 65792, Note_off_c, 5, 71, 0
7, 65792, Note_on_c, 5, 69, 96
7, 66048, Note_off_c, 5, 69, 0
7, 66048, Note_on_c, 5, 67, 96
7, 66048, Note_off_c, 5, 69, 0
7, 66048, Note_on_c, 5, 67, 96
7, 66304, Note_off_c, 5, 67, 0
7, 66304, Note_on_c, 5, 69, 96
7, 66304, Note_off_c, 5, 67, 0
7, 66304, Note_on_c, 5, 69, 96
7, 66560, Note_off_c, 5, 69, 0
7, 66560, Note_on_c, 5, 71, 96
7, 66560, Note_off_c, 5, 69, 0
7, 66560, Note_on_c, 5, 71, 96
7, 66816, Note_off_c, 5, 71, 0
7, 66816, Note_on_c, 5, 72, 96
7, 66816, Note_off_c, 5, 71, 0
7, 66816, Note_on_c, 5, 72, 96
7, 67072, Note_off_c, 5, 72, 0
7, 67072, Note_on_c, 5, 71, 96
7, 67072, Note_off_c, 5, 72, 0
7, 67072, Note_on_c, 5, 71, 96
7, 67328, Note_off_c, 5, 71, 0
7, 67328, Note_on_c, 5, 72, 96
7, 67328, Note_off_c, 5, 71, 0
7, 67328, Note_on_c, 5, 72, 96
7, 67584, Note_off_c, 5, 72, 0
7, 67584, Note_on_c, 5, 74, 96
7, 67584, Note_off_c, 5, 72, 0
7, 67584, Note_on_c, 5, 74, 96
7, 67840, Note_off_c, 5, 74, 0
7, 67840, Note_on_c, 5, 79, 96
7, 67840, Note_off_c, 5, 74, 0
7, 67840, Note_on_c, 5, 79, 96
7, 68096, Note_off_c, 5, 79, 0
7, 68096, Note_on_c, 5, 78, 96
7, 68096, Note_off_c, 5, 79, 0
7, 68096, Note_on_c, 5, 78, 96
7, 68352, Note_off_c, 5, 78, 0
7, 68352, Note_on_c, 5, 76, 96
7, 68352, Note_off_c, 5, 78, 0
7, 68352, Note_on_c, 5, 76, 96
7, 68608, Note_off_c, 5, 76, 0
7, 68608, Note_on_c, 5, 74, 96
7, 68608, Note_off_c, 5, 76, 0
7, 68608, Note_on_c, 5, 74, 96
7, 68864, Note_off_c, 5, 74, 0
7, 68864, Note_on_c, 5, 72, 96
7, 68864, Note_off_c, 5, 74, 0
7, 68864, Note_on_c, 5, 72, 96
7, 69120, Note_off_c, 5, 72, 0
7, 69120, Note_on_c, 5, 71, 96
7, 69120, Note_off_c, 5, 72, 0
7, 69120, Note_on_c, 5, 71, 96
7, 69376, Note_off_c, 5, 71, 0
7, 69376, Note_on_c, 5, 72, 96
7, 69376, Note_off_c, 5, 71, 0
7, 69376, Note_on_c, 5, 72, 96
7, 69632, Note_off_c, 5, 72, 0
7, 69632, Note_off_c, 5, 72, 0
7, 69632, Note_on_c, 5, 71, 96
7, 69632, Note_on_c, 5, 71, 96
7, 69888, Note_off_c, 5, 71, 0
7, 69888, Note_on_c, 5, 76, 96
7, 69888, Note_off_c, 5, 71, 0
7, 69888, Note_on_c, 5, 76, 96
7, 70144, Note_off_c, 5, 76, 0
7, 70144, Note_on_c, 5, 74, 96
7, 70144, Note_off_c, 5, 76, 0
7, 70144, Note_on_c, 5, 74, 96
7, 70400, Note_off_c, 5, 74, 0
7, 70400, Note_on_c, 5, 72, 96
7, 70400, Note_off_c, 5, 74, 0
7, 70400, Note_on_c, 5, 72, 96
7, 70656, Note_off_c, 5, 72, 0
7, 70656, Note_on_c, 5, 71, 96
7, 70656, Note_off_c, 5, 72, 0
7, 70656, Note_on_c, 5, 71, 96
7, 70912, Note_off_c, 5, 71, 0
7, 70912, Note_on_c, 5, 69, 96
7, 70912, Note_off_c, 5, 71, 0
7, 70912, Note_on_c, 5, 69, 96
7, 71168, Note_off_c, 5, 69, 0
7, 71168, Note_on_c, 5, 67, 96
7, 71168, Note_off_c, 5, 69, 0
7, 71168, Note_on_c, 5, 67, 96
7, 71424, Note_off_c, 5, 67, 0
7, 71424, Note_on_c, 5, 69, 96
7, 71424, Note_off_c, 5, 67, 0
7, 71424, Note_on_c, 5, 69, 96
7, 71680, Note_off_c, 5, 69, 0
7, 71680, Note_on_c, 5, 67, 96
7, 71680, Note_off_c, 5, 69, 0
7, 71680, Note_on_c, 5, 67, 96
7, 71936, Note_off_c, 5, 67, 0
7, 71936, Note_on_c, 5, 72, 96
7, 71936, Note_off_c, 5, 67, 0
7, 71936, Note_on_c, 5, 72, 96
7, 72192, Note_off_c, 5, 72, 0
7, 72192, Note_on_c, 5, 71, 96
7, 72192, Note_off_c, 5, 72, 0
7, 72192, Note_on_c, 5, 71, 96
7, 72448, Note_off_c, 5, 71, 0
7, 72448, Note_on_c, 5, 69, 96
7, 72448, Note_off_c, 5, 71, 0
7, 72448, Note_on_c, 5, 69, 96
7, 72704, Note_off_c, 5, 69, 0
7, 72704, Note_on_c, 5, 67, 96
7, 72704, Note_off_c, 5, 69, 0
7, 72704, Note_on_c, 5, 67, 96
7, 72960, Note_off_c, 5, 67, 0
7, 72960, Note_on_c, 5, 65, 96
7, 72960, Note_off_c, 5, 67, 0
7, 72960, Note_on_c, 5, 65, 96
7, 73216, Note_off_c, 5, 65, 0
7, 73216, Note_on_c, 5, 64, 96
7, 73216, Note_off_c, 5, 65, 0
7, 73216, Note_on_c, 5, 64, 96
7, 73472, Note_off_c, 5, 64, 0
7, 73472, Note_on_c, 5, 65, 96
7, 73472, Note_off_c, 5, 64, 0
7, 73472, Note_on_c, 5, 65, 96
7, 73728, Note_off_c, 5, 65, 0
7, 73728, Note_off_c, 5, 65, 0
7, 73728, Note_on_c, 5, 64, 96
7, 73728, Note_on_c, 5, 64, 96
7, 73984, Note_off_c, 5, 64, 0
7, 73984, Note_on_c, 5, 67, 96
7, 73984, Note_off_c, 5, 64, 0
7, 73984, Note_on_c, 5, 67, 96
7, 74240, Note_off_c, 5, 67, 0
7, 74240, Note_on_c, 5, 66, 96
7, 74240, Note_off_c, 5, 67, 0
7, 74240, Note_on_c, 5, 66, 96
7, 74496, Note_off_c, 5, 66, 0
7, 74496, Note_on_c, 5, 69, 96
7, 74496, Note_off_c, 5, 66, 0
7, 74496, Note_on_c, 5, 69, 96
7, 74752, Note_off_c, 5, 69, 0
7, 74752, Note_on_c, 5, 67, 96
7, 74752, Note_off_c, 5, 69, 0
7, 74752, Note_on_c, 5, 67, 96
7, 75008, Note_off_c, 5, 67, 0
7, 75008, Note_on_c, 5, 79, 96
7, 75008, Note_off_c, 5, 67, 0
7, 75008, Note_on_c, 5, 79, 96
7, 75264, Note_off_c, 5, 79, 0
7, 75264, Note_on_c, 5, 78, 96
7, 75264, Note_off_c, 5, 79, 0
7, 75264, Note_on_c, 5, 78, 96
7, 75520, Note_off_c, 5, 78, 0
7, 75520, Note_on_c, 5, 76, 96
7, 75520, Note_off_c, 5, 78, 0
7, 75520, Note_on_c, 5, 76, 96
7, 75776, Note_off_c, 5, 76, 0
7, 75776, Note_on_c, 5, 74, 96
7, 75776, Note_off_c, 5, 76, 0
7, 75776, Note_on_c, 5, 74, 96
7, 76032, Note_off_c, 5, 74, 0
7, 76032, Note_on_c, 5, 72, 96
7, 76032, Note_off_c, 5, 74, 0
7, 76032, Note_on_c, 5, 72, 96
7, 76288, Note_off_c, 5, 72, 0
7, 76288, Note_on_c, 5, 71, 96
7, 76288, Note_off_c, 5, 72, 0
7, 76288, Note_on_c, 5, 71, 96
7, 76544, Note_off_c, 5, 71, 0
7, 76544, Note_on_c, 5, 72, 96
7, 76544, Note_off_c, 5, 71, 0
7, 76544, Note_on_c, 5, 72, 96
7, 76672, Note_off_c, 5, 72, 0
7, 76672, Note_on_c, 5, 74, 96
7, 76672, Note_off_c, 5, 72, 0
7, 76672, Note_on_c, 5, 74, 96
7, 76800, Note_off_c, 5, 74, 0
7, 76800, Note_on_c, 5, 69, 96
7, 76800, Note_off_c, 5, 74, 0
7, 76800, Note_on_c, 5, 69, 96
7, 77568, Note_off_c, 5, 69, 0
7, 77568, Note_on_c, 5, 67, 96
7, 77568, Note_off_c, 5, 69, 0
7, 77568, Note_on_c, 5, 67, 96
7, 77824, Note_off_c, 5, 67, 0
7, 77824, Note_off_c, 5, 67, 0
7, 77824, Note_on_c, 5, 67, 96
7, 77824, Note_on_c, 5, 67, 96
7, 78848, Note_off_c, 5, 67, 0
7, 78848, Note_off_c, 5, 67, 0
7, 81920, Note_on_c, 5, 79, 96
7, 81920, Note_on_c, 5, 79, 96
7, 82944, Note_off_c, 5, 79, 0
7, 82944, Note_off_c, 5, 79, 0
7, 83968, Note_on_c, 5, 78, 96
7, 83968, Note_on_c, 5, 78, 96
7, 84992, Note_off_c, 5, 78, 0
7, 84992, Note_off_c, 5, 78, 0
7, 86016, Note_on_c, 5, 79, 96
7, 86016, Note_on_c, 5, 79, 96
7, 86528, Note_off_c, 5, 79, 0
7, 86528, Note_on_c, 5, 62, 96
7, 86528, Note_off_c, 5, 79, 0
7, 86528, Note_on_c, 5, 62, 96
7, 87040, Note_off_c, 5, 62, 0
7, 87040, Note_on_c, 5, 67, 96
7, 87040, Note_off_c, 5, 62, 0
7, 87040, Note_on_c, 5, 67, 96
7, 87552, Note_off_c, 5, 67, 0
7, 87552, Note_on_c, 5, 69, 96
7, 87552, Note_off_c, 5, 67, 0
7, 87552, Note_on_c, 5, 69, 96
7, 88064, Note_off_c, 5, 69, 0
7, 88064, Note_on_c, 5, 71, 96
7, 88064, Note_off_c, 5, 69, 0
7, 88064, Note_on_c, 5, 71, 96
7, 88320, Note_off_c, 5, 71, 0
7, 88320, Note_on_c, 5, 69, 96
7, 88320, Note_off_c, 5, 71, 0
7, 88320, Note_on_c, 5, 69, 96
7, 88576, Note_off_c, 5, 69, 0
7, 88576, Note_on_c, 5, 67, 96
7, 88576, Note_off_c, 5, 69, 0
7, 88576, Note_on_c, 5, 67, 96
7, 88832, Note_off_c, 5, 67, 0
7, 88832, Note_on_c, 5, 69, 96
7, 88832, Note_off_c, 5, 67, 0
7, 88832, Note_on_c, 5, 69, 96
7, 89088, Note_off_c, 5, 69, 0
7, 89088, Note_on_c, 5, 71, 96
7, 89088, Note_off_c, 5, 69, 0
7, 89088, Note_on_c, 5, 71, 96
7, 89344, Note_off_c, 5, 71, 0
7, 89344, Note_on_c, 5, 72, 96
7, 89344, Note_off_c, 5, 71, 0
7, 89344, Note_on_c, 5, 72, 96
7, 89600, Note_off_c, 5, 72, 0
7, 89600, Note_on_c, 5, 71, 96
7, 89600, Note_off_c, 5, 72, 0
7, 89600, Note_on_c, 5, 71, 96
7, 89856, Note_off_c, 5, 71, 0
7, 89856, Note_on_c, 5, 72, 96
7, 89856, Note_off_c, 5, 71, 0
7, 89856, Note_on_c, 5, 72, 96
7, 90112, Note_off_c, 5, 72, 0
7, 90112, Note_off_c, 5, 72, 0
7, 90112, Note_on_c, 5, 74, 96
7, 90112, Note_on_c, 5, 74, 96
7, 90368, Note_off_c, 5, 74, 0
7, 90368, Note_on_c, 5, 79, 96
7, 90368, Note_off_c, 5, 74, 0
7, 90368, Note_on_c, 5, 79, 96
7, 90624, Note_off_c, 5, 79, 0
7, 90624, Note_on_c, 5, 78, 96
7, 90624, Note_off_c, 5, 79, 0
7, 90624, Note_on_c, 5, 78, 96
7, 90880, Note_off_c, 5, 78, 0
7, 90880, Note_on_c, 5, 76, 96
7, 90880, Note_off_c, 5, 78, 0
7, 90880, Note_on_c, 5, 76, 96
7, 91136, Note_off_c, 5, 76, 0
7, 91136, Note_on_c, 5, 74, 96
7, 91136, Note_off_c, 5, 76, 0
7, 91136, Note_on_c, 5, 74, 96
7, 91392, Note_off_c, 5, 74, 0
7, 91392, Note_on_c, 5, 72, 96
7, 91392, Note_off_c, 5, 74, 0
7, 91392, Note_on_c, 5, 72, 96
7, 91648, Note_off_c, 5, 72, 0
7, 91648, Note_on_c, 5, 71, 96
7, 91648, Note_off_c, 5, 72, 0
7, 91648, Note_on_c, 5, 71, 96
7, 91904, Note_off_c, 5, 71, 0
7, 91904, Note_on_c, 5, 72, 96
7, 91904, Note_off_c, 5, 71, 0
7, 91904, Note_on_c, 5, 72, 96
7, 92160, Note_off_c, 5, 72, 0
7, 92160, Note_on_c, 5, 71, 96
7, 92160, Note_off_c, 5, 72, 0
7, 92160, Note_on_c, 5, 71, 96
7, 92416, Note_off_c, 5, 71, 0
7, 92416, Note_on_c, 5, 76, 96
7, 92416, Note_off_c, 5, 71, 0
7, 92416, Note_on_c, 5, 76, 96
7, 92672, Note_off_c, 5, 76, 0
7, 92672, Note_on_c, 5, 74, 96
7, 92672, Note_off_c, 5, 76, 0
7, 92672, Note_on_c, 5, 74, 96
7, 92928, Note_off_c, 5, 74, 0
7, 92928, Note_on_c, 5, 72, 96
7, 92928, Note_off_c, 5, 74, 0
7, 92928, Note_on_c, 5, 72, 96
7, 93184, Note_off_c, 5, 72, 0
7, 93184, Note_on_c, 5, 71, 96
7, 93184, Note_off_c, 5, 72, 0
7, 93184, Note_on_c, 5, 71, 96
7, 93440, Note_off_c, 5, 71, 0
7, 93440, Note_on_c, 5, 69, 96
7, 93440, Note_off_c, 5, 71, 0
7, 93440, Note_on_c, 5, 69, 96
7, 93696, Note_off_c, 5, 69, 0
7, 93696, Note_on_c, 5, 67, 96
7, 93696, Note_off_c, 5, 69, 0
7, 93696, Note_on_c, 5, 67, 96
7, 93952, Note_off_c, 5, 67, 0
7, 93952, Note_on_c, 5, 69, 96
7, 93952, Note_off_c, 5, 67, 0
7, 93952, Note_on_c, 5, 69, 96
7, 94208, Note_off_c, 5, 69, 0
7, 94208, Note_off_c, 5, 69, 0
7, 94208, Note_on_c, 5, 67, 96
7, 94208, Note_on_c, 5, 67, 96
7, 94464, Note_off_c, 5, 67, 0
7, 94464, Note_on_c, 5, 72, 96
7, 94464, Note_off_c, 5, 67, 0
7, 94464, Note_on_c, 5, 72, 96
7, 94720, Note_off_c, 5, 72, 0
7, 94720, Note_on_c, 5, 71, 96
7, 94720, Note_off_c, 5, 72, 0
7, 94720, Note_on_c, 5, 71, 96
7, 94976, Note_off_c, 5, 71, 0
7, 94976, Note_on_c, 5, 69, 96
7, 94976, Note_off_c, 5, 71, 0
7, 94976, Note_on_c, 5, 69, 96
7, 95232, Note_off_c, 5, 69, 0
7, 95232, Note_on_c, 5, 67, 96
7, 95232, Note_off_c, 5, 69, 0
7, 95232, Note_on_c, 5, 67, 96
7, 95488, Note_off_c, 5, 67, 0
7, 95488, Note_on_c, 5, 65, 96
7, 95488, Note_off_c, 5, 67, 0
7, 95488, Note_on_c, 5, 65, 96
7, 95744, Note_off_c, 5, 65, 0
7, 95744, Note_on_c, 5, 64, 96
7, 95744, Note_off_c, 5, 65, 0
7, 95744, Note_on_c, 5, 64, 96
7, 96000, Note_off_c, 5, 64, 0
7, 96000, Note_on_c, 5, 65, 96
7, 96000, Note_off_c, 5, 64, 0
7, 96000, Note_on_c, 5, 65, 96
7, 96256, Note_off_c, 5, 65, 0
7, 96256, Note_on_c, 5, 64, 96
7, 96256, Note_off_c, 5, 65, 0
7, 96256, Note_on_c, 5, 64, 96
7, 96512, Note_off_c, 5, 64, 0
7, 96512, Note_on_c, 5, 67, 96
7, 96512, Note_off_c, 5, 64, 0
7, 96512, Note_on_c, 5, 67, 96
7, 96768, Note_off_c, 5, 67, 0
7, 96768, Note_on_c, 5, 66, 96
7, 96768, Note_off_c, 5, 67, 0
7, 96768, Note_on_c, 5, 66, 96
7, 97024, Note_off_c, 5, 66, 0
7, 97024, Note_on_c, 5, 69, 96
7, 97024, Note_off_c, 5, 66, 0
7, 97024, Note_on_c, 5, 69, 96
7, 97280, Note_off_c, 5, 69, 0
7, 97280, Note_on_c, 5, 67, 96
7, 97280, Note_off_c, 5, 69, 0
7, 97280, Note_on_c, 5, 67, 96
7, 97536, Note_off_c, 5, 67, 0
7, 97536, Note_on_c, 5, 79, 96
7, 97536, Note_off_c, 5, 67, 0
7, 97536, Note_on_c, 5, 79, 96
7, 97792, Note_off_c, 5, 79, 0
7, 97792, Note_on_c, 5, 78, 96
7, 97792, Note_off_c, 5, 79, 0
7, 97792, Note_on_c, 5, 78, 96
7, 98048, Note_off_c, 5, 78, 0
7, 98048, Note_on_c, 5, 76, 96
7, 98048, Note_off_c, 5, 78, 0
7, 98048, Note_on_c, 5, 76, 96
7, 98304, Note_off_c, 5, 76, 0
7, 98304, Note_off_c, 5, 76, 0
7, 98304, Note_on_c, 5, 74, 96
7, 98304, Note_on_c, 5, 74, 96
7, 98560, Note_off_c, 5, 74, 0
7, 98560, Note_on_c, 5, 72, 96
7, 98560, Note_off_c, 5, 74, 0
7, 98560, Note_on_c, 5, 72, 96
7, 98816, Note_off_c, 5, 72, 0
7, 98816, Note_on_c, 5, 71, 96
7, 98816, Note_off_c, 5, 72, 0
7, 98816, Note_on_c, 5, 71, 96
7, 99072, Note_off_c, 5, 71, 0
7, 99072, Note_on_c, 5, 72, 96
7, 99072, Note_off_c, 5, 71, 0
7, 99072, Note_on_c, 5, 72, 96
7, 99200, Note_off_c, 5, 72, 0
7, 99200, Note_on_c, 5, 74, 96
7, 99200, Note_off_c, 5, 72, 0
7, 99200, Note_on_c, 5, 74, 96
7, 99328, Note_off_c, 5, 74, 0
7, 99328, Note_on_c, 5, 69, 96
7, 99328, Note_off_c, 5, 74, 0
7, 99328, Note_on_c, 5, 69, 96
7, 100096, Note_off_c, 5, 69, 0
7, 100096, Note_on_c, 5, 67, 96
7, 100096, Note_off_c, 5, 69, 0
7, 100096, Note_on_c, 5, 67, 96
7, 100352, Note_off_c, 5, 67, 0
7, 100352, Note_on_c, 5, 67, 96
7, 100352, Note_off_c, 5, 67, 0
7, 100352, Note_on_c, 5, 67, 96
7, 101376, Note_off_c, 5, 67, 0
7, 101376, Note_off_c, 5, 67, 0
7, 104960, Note_on_c, 5, 69, 96
7, 104960, Note_on_c, 5, 69, 96
7, 105472, Note_off_c, 5, 69, 0
7, 105472, Note_on_c, 5, 74, 96
7, 105472, Note_off_c, 5, 69, 0
7, 105472, Note_on_c, 5, 74, 96
7, 105984, Note_off_c, 5, 74, 0
7, 105984, Note_on_c, 5, 76, 96
7, 105984, Note_off_c, 5, 74, 0
7, 105984, Note_on_c, 5, 76, 96
7, 106496, Note_off_c, 5, 76, 0
7, 106496, Note_off_c, 5, 76, 0
7, 106496, Note_on_c, 5, 78, 96
7, 106496, Note_on_c, 5, 78, 96
7, 106752, Note_off_c, 5, 78, 0
7, 106752, Note_on_c, 5, 76, 96
7, 106752, Note_off_c, 5, 78, 0
7, 106752, Note_on_c, 5, 76, 96
7, 107008, Note_off_c, 5, 76, 0
7, 107008, Note_on_c, 5, 74, 96
7, 107008, Note_off_c, 5, 76, 0
7, 107008, Note_on_c, 5, 74, 96
7, 107264, Note_off_c, 5, 74, 0
7, 107264, Note_on_c, 5, 76, 96
7, 107264, Note_off_c, 5, 74, 0
7, 107264, Note_on_c, 5, 76, 96
7, 107520, Note_off_c, 5, 76, 0
7, 107520, Note_on_c, 5, 78, 96
7, 107520, Note_off_c, 5, 76, 0
7, 107520, Note_on_c, 5, 78, 96
7, 107776, Note_off_c, 5, 78, 0
7, 107776, Note_on_c, 5, 79, 96
7, 107776, Note_off_c, 5, 78, 0
7, 107776, Note_on_c, 5, 79, 96
7, 108032, Note_off_c, 5, 79, 0
7, 108032, Note_on_c, 5, 78, 96
7, 108032, Note_off_c, 5, 79, 0
7, 108032, Note_on_c, 5, 78, 96
7, 108288, Note_off_c, 5, 78, 0
7, 108288, Note_on_c, 5, 79, 96
7, 108288, Note_off_c, 5, 78, 0
7, 108288, Note_on_c, 5, 79, 96
7, 108544, Note_off_c, 5, 79, 0
7, 108544, Note_on_c, 5, 81, 96
7, 108544, Note_off_c, 5, 79, 0
7, 108544, Note_on_c, 5, 81, 96
7, 108800, Note_off_c, 5, 81, 0
7, 108800, Note_on_c, 5, 86, 96
7, 109056, Note_off_c, 5, 86, 0
7, 109056, Note_on_c, 5, 85, 96
7, 109056, Note_off_c, 5, 81, 0
7, 109312, Note_off_c, 5, 85, 0
7, 109312, Note_on_c, 5, 83, 96
7, 109568, Note_off_c, 5, 83, 0
7, 109568, Note_on_c, 5, 81, 96
7, 109824, Note_off_c, 5, 81, 0
7, 109824, Note_on_c, 5, 79, 96
7, 109824, Note_on_c, 5, 79, 96
7, 110080, Note_off_c, 5, 79, 0
7, 110080, Note_on_c, 5, 78, 96
7, 110080, Note_off_c, 5, 79, 0
7, 110080, Note_on_c, 5, 78, 96
7, 110336, Note_off_c, 5, 78, 0
7, 110336, Note_on_c, 5, 79, 96
7, 110336, Note_off_c, 5, 78, 0
7, 110336, Note_on_c, 5, 79, 96
7, 110592, Note_off_c, 5, 79, 0
7, 110592, Note_off_c, 5, 79, 0
7, 110592, Note_on_c, 5, 78, 96
7, 110592, Note_on_c, 5, 78, 96
7, 110848, Note_off_c, 5, 78, 0
7, 110848, Note_on_c, 5, 83, 96
7, 111104, Note_off_c, 5, 83, 0
7, 111104, Note_on_c, 5, 81, 96
7, 111104, Note_off_c, 5, 78, 0
7, 111360, Note_off_c, 5, 81, 0
7, 111360, Note_on_c, 5, 79, 96
7, 111616, Note_off_c, 5, 79, 0
7, 111616, Note_on_c, 5, 78, 96
7, 111872, Note_off_c, 5, 78, 0
7, 111872, Note_on_c, 5, 76, 96
7, 111872, Note_on_c, 5, 76, 96
7, 112128, Note_off_c, 5, 76, 0
7, 112128, Note_on_c, 5, 74, 96
7, 112128, Note_off_c, 5, 76, 0
7, 112128, Note_on_c, 5, 74, 96
7, 112384, Note_off_c, 5, 74, 0
7, 112384, Note_on_c, 5, 76, 96
7, 112384, Note_off_c, 5, 74, 0
7, 112384, Note_on_c, 5, 76, 96
7, 112640, Note_off_c, 5, 76, 0
7, 112640, Note_on_c, 5, 74, 96
7, 112640, Note_off_c, 5, 76, 0
7, 112640, Note_on_c, 5, 74, 96
7, 112896, Note_off_c, 5, 74, 0
7, 112896, Note_on_c, 5, 79, 96
7, 113152, Note_off_c, 5, 79, 0
7, 113152, Note_on_c, 5, 78, 96
7, 113152, Note_off_c, 5, 74, 0
7, 113408, Note_off_c, 5, 78, 0
7, 113408, Note_on_c, 5, 76, 96
7, 113664, Note_off_c, 5, 76, 0
7, 113664, Note_on_c, 5, 74, 96
7, 113920, Note_off_c, 5, 74, 0
7, 113920, Note_on_c, 5, 72, 96
7, 113920, Note_on_c, 5, 72, 96
7, 114176, Note_off_c, 5, 72, 0
7, 114176, Note_on_c, 5, 71, 96
7, 114176, Note_off_c, 5, 72, 0
7, 114176, Note_on_c, 5, 71, 96
7, 114432, Note_off_c, 5, 71, 0
7, 114432, Note_on_c, 5, 72, 96
7, 114432, Note_off_c, 5, 71, 0
7, 114432, Note_on_c, 5, 72, 96
7, 114688, Note_off_c, 5, 72, 0
7, 114688, Note_off_c, 5, 72, 0
7, 114688, Note_on_c, 5, 71, 96
7, 114688, Note_on_c, 5, 71, 96
7, 114944, Note_off_c, 5, 71, 0
7, 114944, Note_on_c, 5, 74, 96
7, 114944, Note_off_c, 5, 71, 0
7, 114944, Note_on_c, 5, 74, 96
7, 115200, Note_off_c, 5, 74, 0
7, 115200, Note_on_c, 5, 73, 96
7, 115200, Note_off_c, 5, 74, 0
7, 115200, Note_on_c, 5, 73, 96
7, 115456, Note_off_c, 5, 73, 0
7, 115456, Note_on_c, 5, 76, 96
7, 115456, Note_off_c, 5, 73, 0
7, 115456, Note_on_c, 5, 76, 96
7, 115712, Note_off_c, 5, 76, 0
7, 115712, Note_on_c, 5, 74, 96
7, 115712, Note_off_c, 5, 76, 0
7, 115712, Note_on_c, 5, 74, 96
7, 115968, Note_off_c, 5, 74, 0
7, 115968, Note_on_c, 5, 79, 96
7, 115968, Note_off_c, 5, 74, 0
7, 115968, Note_on_c, 5, 79, 96
7, 116224, Note_off_c, 5, 79, 0
7, 116224, Note_on_c, 5, 78, 96
7, 116224, Note_off_c, 5, 79, 0
7, 116224, Note_on_c, 5, 78, 96
7, 116480, Note_off_c, 5, 78, 0
7, 116480, Note_on_c, 5, 76, 96
7, 116480, Note_off_c, 5, 78, 0
7, 116480, Note_on_c, 5, 76, 96
7, 116736, Note_off_c, 5, 76, 0
7, 116736, Note_on_c, 5, 78, 96
7, 116736, Note_off_c, 5, 76, 0
7, 116736, Note_on_c, 5, 78, 96
7, 116992, Note_off_c, 5, 78, 0
7, 116992, Note_on_c, 5, 76, 96
7, 116992, Note_off_c, 5, 78, 0
7, 116992, Note_on_c, 5, 76, 96
7, 117248, Note_off_c, 5, 76, 0
7, 117248, Note_on_c, 5, 74, 96
7, 117248, Note_off_c, 5, 76, 0
7, 117248, Note_on_c, 5, 74, 96
7, 117504, Note_off_c, 5, 74, 0
7, 117504, Note_on_c, 5, 76, 96
7, 117504, Note_off_c, 5, 74, 0
7, 117504, Note_on_c, 5, 76, 96
7, 117632, Note_off_c, 5, 76, 0
7, 117632, Note_on_c, 5, 78, 96
7, 117632, Note_off_c, 5, 76, 0
7, 117632, Note_on_c, 5, 78, 96
7, 117760, Note_off_c, 5, 78, 0
7, 117760, Note_on_c, 5, 73, 96
7, 117760, Note_off_c, 5, 78, 0
7, 117760, Note_on_c, 5, 73, 96
7, 118528, Note_off_c, 5, 73, 0
7, 118528, Note_on_c, 5, 74, 96
7, 118528, Note_off_c, 5, 73, 0
7, 118528, Note_on_c, 5, 74, 96
7, 118784, Note_off_c, 5, 74, 0
7, 118784, Note_off_c, 5, 74, 0
7, 118784, Note_on_c, 5, 74, 96
7, 118784, Note_on_c, 5, 74, 96
7, 119040, Note_off_c, 5, 74, 0
7, 119040, Note_on_c, 5, 79, 96
7, 119040, Note_off_c, 5, 74, 0
7, 119040, Note_on_c, 5, 79, 96
7, 119296, Note_off_c, 5, 79, 0
7, 119296, Note_on_c, 5, 78, 96
7, 119296, Note_off_c, 5, 79, 0
7, 119296, Note_on_c, 5, 78, 96
7, 119552, Note_off_c, 5, 78, 0
7, 119552, Note_on_c, 5, 76, 96
7, 119552, Note_off_c, 5, 78, 0
7, 119552, Note_on_c, 5, 76, 96
7, 119808, Note_off_c, 5, 76, 0
7, 119808, Note_on_c, 5, 74, 96
7, 119808, Note_off_c, 5, 76, 0
7, 119808, Note_on_c, 5, 74, 96
7, 120064, Note_off_c, 5, 74, 0
7, 120064, Note_on_c, 5, 72, 96
7, 120064, Note_off_c, 5, 74, 0
7, 120064, Note_on_c, 5, 72, 96
7, 120320, Note_off_c, 5, 72, 0
7, 120320, Note_on_c, 5, 71, 96
7, 120320, Note_off_c, 5, 72, 0
7, 120320, Note_on_c, 5, 71, 96
7, 120576, Note_off_c, 5, 71, 0
7, 120576, Note_on_c, 5, 72, 96
7, 120576, Note_off_c, 5, 71, 0
7, 120576, Note_on_c, 5, 72, 96
7, 120832, Note_off_c, 5, 72, 0
7, 120832, Note_on_c, 5, 71, 96
7, 120832, Note_off_c, 5, 72, 0
7, 120832, Note_on_c, 5, 71, 96
7, 121088, Note_off_c, 5, 71, 0
7, 121088, Note_on_c, 5, 76, 96
7, 121088, Note_off_c, 5, 71, 0
7, 121088, Note_on_c, 5, 76, 96
7, 121344, Note_off_c, 5, 76, 0
7, 121344, Note_on_c, 5, 74, 96
7, 121344, Note_off_c, 5, 76, 0
7, 121344, Note_on_c, 5, 74, 96
7, 121600, Note_off_c, 5, 74, 0
7, 121600, Note_on_c, 5, 72, 96
7, 121600, Note_off_c, 5, 74, 0
7, 121600, Note_on_c, 5, 72, 96
7, 121856, Note_off_c, 5, 72, 0
7, 121856, Note_on_c, 5, 71, 96
7, 121856, Note_off_c, 5, 72, 0
7, 121856, Note_on_c, 5, 71, 96
7, 122112, Note_off_c, 5, 71, 0
7, 122112, Note_on_c, 5, 69, 96
7, 122112, Note_off_c, 5, 71, 0
7, 122112, Note_on_c, 5, 69, 96
7, 122368, Note_off_c, 5, 69, 0
7, 122368, Note_on_c, 5, 67, 96
7, 122368, Note_off_c, 5, 69, 0
7, 122368, Note_on_c, 5, 67, 96
7, 122624, Note_off_c, 5, 67, 0
7, 122624, Note_on_c, 5, 69, 96
7, 122624, Note_off_c, 5, 67, 0
7, 122624, Note_on_c, 5, 69, 96
7, 122880, Note_off_c, 5, 69, 0
7, 122880, Note_off_c, 5, 69, 0
7, 122880, Note_on_c, 5, 67, 96
7, 122880, Note_on_c, 5, 67, 96
7, 123136, Note_off_c, 5, 67, 0
7, 123136, Note_on_c, 5, 72, 96
7, 123136, Note_off_c, 5, 67, 0
7, 123136, Note_on_c, 5, 72, 96
7, 123392, Note_off_c, 5, 72, 0
7, 123392, Note_on_c, 5, 71, 96
7, 123392, Note_off_c, 5, 72, 0
7, 123392, Note_on_c, 5, 71, 96
7, 123648, Note_off_c, 5, 71, 0
7, 123648, Note_on_c, 5, 69, 96
7, 123648, Note_off_c, 5, 71, 0
7, 123648, Note_on_c, 5, 69, 96
7, 123904, Note_off_c, 5, 69, 0
7, 123904, Note_on_c, 5, 67, 96
7, 123904, Note_off_c, 5, 69, 0
7, 123904, Note_on_c, 5, 67, 96
7, 124160, Note_off_c, 5, 67, 0
7, 124160, Note_on_c, 5, 65, 96
7, 124160, Note_off_c, 5, 67, 0
7, 124160, Note_on_c, 5, 65, 96
7, 124416, Note_off_c, 5, 65, 0
7, 124416, Note_on_c, 5, 64, 96
7, 124416, Note_off_c, 5, 65, 0
7, 124416, Note_on_c, 5, 64, 96
7, 124672, Note_off_c, 5, 64, 0
7, 124672, Note_on_c, 5, 65, 96
7, 124672, Note_off_c, 5, 64, 0
7, 124672, Note_on_c, 5, 65, 96
7, 124928, Note_off_c, 5, 65, 0
7, 124928, Note_on_c, 5, 64, 96
7, 124928, Note_off_c, 5, 65, 0
7, 124928, Note_on_c, 5, 64, 96
7, 125184, Note_off_c, 5, 64, 0
7, 125184, Note_on_c, 5, 67, 96
7, 125184, Note_off_c, 5, 64, 0
7, 125184, Note_on_c, 5, 67, 96
7, 125440, Note_off_c, 5, 67, 0
7, 125440, Note_on_c, 5, 66, 96
7, 125440, Note_off_c, 5, 67, 0
7, 125440, Note_on_c, 5, 66, 96
7, 125696, Note_off_c, 5, 66, 0
7, 125696, Note_on_c, 5, 67, 96
7, 125696, Note_off_c, 5, 66, 0
7, 125696, Note_on_c, 5, 67, 96
7, 125824, Note_off_c, 5, 67, 0
7, 125824, Note_on_c, 5, 69, 96
7, 125824, Note_off_c, 5, 67, 0
7, 125824, Note_on_c, 5, 69, 96
7, 125952, Note_off_c, 5, 69, 0
7, 125952, Note_on_c, 5, 66, 96
7, 125952, Note_off_c, 5, 69, 0
7, 125952, Note_on_c, 5, 66, 96
7, 126720, Note_off_c, 5, 66, 0
7, 126720, Note_on_c, 5, 67, 96
7, 126720, Note_off_c, 5, 66, 0
7, 126720, Note_on_c, 5, 67, 96
7, 126976, Note_off_c, 5, 67, 0
7, 126976, Note_off_c, 5, 67, 0
7, 126976, Note_on_c, 5, 67, 96
7, 126976, Note_on_c, 5, 67, 96
7, 127488, Note_off_c, 5, 67, 0
7, 127488, Note_on_c, 5, 83, 96
7, 127488, Note_off_c, 5, 67, 0
7, 127488, Note_on_c, 5, 83, 96
7, 128000, Note_off_c, 5, 83, 0
7, 128000, Note_on_c, 5, 79, 96
7, 128000, Note_off_c, 5, 83, 0
7, 128000, Note_on_c, 5, 79, 96
7, 128512, Note_off_c, 5, 79, 0
7, 128512, Note_on_c, 5, 74, 96
7, 128512, Note_off_c, 5, 79, 0
7, 128512, Note_on_c, 5, 74, 96
7, 129024, Note_off_c, 5, 74, 0
7, 129024, Note_off_c, 5, 74, 0
7, 129536, Note_on_c, 5, 81, 96
7, 129536, Note_on_c, 5, 81, 96
7, 130048, Note_off_c, 5, 81, 0
7, 130048, Note_on_c, 5, 78, 96
7, 130048, Note_off_c, 5, 81, 0
7, 130048, Note_on_c, 5, 78, 96
7, 130560, Note_off_c, 5, 78, 0
7, 130560, Note_on_c, 5, 72, 96
7, 130560, Note_off_c, 5, 78, 0
7, 130560, Note_on_c, 5, 72, 96
7, 131072, Note_off_c, 5, 72, 0
7, 131072, Note_off_c, 5, 72, 0
7, 131328, Note_on_c, 5, 79, 96
7, 131328, Note_on_c, 5, 79, 96
7, 131584, Note_off_c, 5, 79, 0
7, 131584, Note_on_c, 5, 78, 96
7, 131584, Note_off_c, 5, 79, 0
7, 131584, Note_on_c, 5, 78, 96
7, 131840, Note_off_c, 5, 78, 0
7, 131840, Note_on_c, 5, 76, 96
7, 131840, Note_off_c, 5, 78, 0
7, 131840, Note_on_c, 5, 76, 96
7, 132096, Note_off_c, 5, 76, 0
7, 132096, Note_on_c, 5, 74, 96
7, 132096, Note_off_c, 5, 76, 0
7, 132096, Note_on_c, 5, 74, 96
7, 132352, Note_off_c, 5, 74, 0
7, 132352, Note_on_c, 5, 72, 96
7, 132352, Note_off_c, 5, 74, 0
7, 132352, Note_on_c, 5, 72, 96
7, 132608, Note_off_c, 5, 72, 0
7, 132608, Note_on_c, 5, 71, 96
7, 132608, Note_off_c, 5, 72, 0
7, 132608, Note_on_c, 5, 71, 96
7, 132864, Note_off_c, 5, 71, 0
7, 132864, Note_on_c, 5, 72, 96
7, 132864, Note_off_c, 5, 71, 0
7, 132864, Note_on_c, 5, 72, 96
7, 133120, Note_off_c, 5, 72, 0
7, 133120, Note_on_c, 5, 71, 96
7, 133120, Note_off_c, 5, 72, 0
7, 133120, Note_on_c, 5, 71, 96
7, 133376, Note_off_c, 5, 71, 0
7, 133376, Note_on_c, 5, 76, 96
7, 133376, Note_off_c, 5, 71, 0
7, 133376, Note_on_c, 5, 76, 96
7, 133632, Note_off_c, 5, 76, 0
7, 133632, Note_on_c, 5, 74, 96
7, 133632, Note_off_c, 5, 76, 0
7, 133632, Note_on_c, 5, 74, 96
7, 133888, Note_off_c, 5, 74, 0
7, 133888, Note_on_c, 5, 72, 96
7, 133888, Note_off_c, 5, 74, 0
7, 133888, Note_on_c, 5, 72, 96
7, 134144, Note_off_c, 5, 72, 0
7, 134144, Note_on_c, 5, 71, 96
7, 134144, Note_off_c, 5, 72, 0
7, 134144, Note_on_c, 5, 71, 96
7, 134400, Note_off_c, 5, 71, 0
7, 134400, Note_on_c, 5, 69, 96
7, 134400, Note_off_c, 5, 71, 0
7, 134400, Note_on_c, 5, 69, 96
7, 134656, Note_off_c, 5, 69, 0
7, 134656, Note_on_c, 5, 67, 96
7, 134656, Note_off_c, 5, 69, 0
7, 134656, Note_on_c, 5, 67, 96
7, 134912, Note_off_c, 5, 67, 0
7, 134912, Note_on_c, 5, 69, 96
7, 134912, Note_off_c, 5, 67, 0
7, 134912, Note_on_c, 5, 69, 96
7, 135168, Note_off_c, 5, 69, 0
7, 135168, Note_off_c, 5, 69, 0
7, 135168, Note_on_c, 5, 67, 96
7, 135168, Note_on_c, 5, 67, 96
7, 135424, Note_off_c, 5, 67, 0
7, 135424, Note_on_c, 5, 72, 96
7, 135424, Note_off_c, 5, 67, 0
7, 135424, Note_on_c, 5, 72, 96
7, 135680, Note_off_c, 5, 72, 0
7, 135680, Note_on_c, 5, 71, 96
7, 135680, Note_off_c, 5, 72, 0
7, 135680, Note_on_c, 5, 71, 96
7, 135936, Note_off_c, 5, 71, 0
7, 135936, Note_on_c, 5, 69, 96
7, 135936, Note_off_c, 5, 71, 0
7, 135936, Note_on_c, 5, 69, 96
7, 136192, Note_off_c, 5, 69, 0
7, 136192, Note_on_c, 5, 67, 96
7, 136192, Note_off_c, 5, 69, 0
7, 136192, Note_on_c, 5, 67, 96
7, 136448, Note_off_c, 5, 67, 0
7, 136448, Note_on_c, 5, 65, 96
7, 136448, Note_off_c, 5, 67, 0
7, 136448, Note_on_c, 5, 65, 96
7, 136704, Note_off_c, 5, 65, 0
7, 136704, Note_on_c, 5, 64, 96
7, 136704, Note_off_c, 5, 65, 0
7, 136704, Note_on_c, 5, 64, 96
7, 136960, Note_off_c, 5, 64, 0
7, 136960, Note_on_c, 5, 65, 96
7, 136960, Note_off_c, 5, 64, 0
7, 136960, Note_on_c, 5, 65, 96
7, 137216, Note_off_c, 5, 65, 0
7, 137216, Note_on_c, 5, 64, 96
7, 137216, Note_off_c, 5, 65, 0
7, 137216, Note_on_c, 5, 64, 96
7, 137472, Note_off_c, 5, 64, 0
7, 137472, Note_on_c, 5, 62, 96
7, 137472, Note_off_c, 5, 64, 0
7, 137472, Note_on_c, 5, 62, 96
7, 137728, Note_off_c, 5, 62, 0
7, 137728, Note_on_c, 5, 64, 96
7, 137728, Note_off_c, 5, 62, 0
7, 137728, Note_on_c, 5, 64, 96
7, 137984, Note_off_c, 5, 64, 0
7, 137984, Note_on_c, 5, 67, 96
7, 137984, Note_off_c, 5, 64, 0
7, 137984, Note_on_c, 5, 67, 96
7, 138240, Note_off_c, 5, 67, 0
7, 138240, Note_on_c, 5, 66, 96
7, 138240, Note_off_c, 5, 67, 0
7, 138240, Note_on_c, 5, 66, 96
7, 138496, Note_off_c, 5, 66, 0
7, 138496, Note_on_c, 5, 64, 96
7, 138496, Note_off_c, 5, 66, 0
7, 138496, Note_on_c, 5, 64, 96
7, 138752, Note_off_c, 5, 64, 0
7, 138752, Note_on_c, 5, 66, 96
7, 138752, Note_off_c, 5, 64, 0
7, 138752, Note_on_c, 5, 66, 96
7, 139008, Note_off_c, 5, 66, 0
7, 139008, Note_on_c, 5, 69, 96
7, 139008, Note_off_c, 5, 66, 0
7, 139008, Note_on_c, 5, 69, 96
7, 139264, Note_off_c, 5, 69, 0
7, 139264, Note_off_c, 5, 69, 0
7, 139264, Note_on_c, 5, 62, 96
7, 139776, Note_off_c, 5, 62, 0
7, 141568, Note_on_c, 5, 69, 96
7, 141824, Note_off_c, 5, 69, 0
7, 141824, Note_on_c, 5, 71, 96
7, 142080, Note_off_c, 5, 71, 0
7, 142080, Note_on_c, 5, 72, 96
7, 142336, Note_off_c, 5, 72, 0
7, 142336, Note_on_c, 5, 74, 96
7, 142592, Note_off_c, 5, 74, 0
7, 142592, Note_on_c, 5, 79, 96
7, 142848, Note_off_c, 5, 79, 0
7, 142848, Note_on_c, 5, 78, 96
7, 143104, Note_off_c, 5, 78, 0
7, 143104, Note_on_c, 5, 81, 96
7, 143360, Note_off_c, 5, 81, 0
7, 143360, Note_on_c, 5, 79, 96
7, 143872, Note_off_c, 5, 79, 0
7, 143872, Note_on_c, 5, 62, 96
7, 143872, Note_on_c, 5, 62, 96
7, 144384, Note_off_c, 5, 62, 0
7, 144384, Note_on_c, 5, 67, 96
7, 144384, Note_off_c, 5, 62, 0
7, 144384, Note_on_c, 5, 67, 96
7, 144896, Note_off_c, 5, 67, 0
7, 144896, Note_on_c, 5, 69, 96
7, 144896, Note_off_c, 5, 67, 0
7, 144896, Note_on_c, 5, 69, 96
7, 145408, Note_off_c, 5, 69, 0
7, 145408, Note_on_c, 5, 71, 96
7, 145408, Note_off_c, 5, 69, 0
7, 145408, Note_on_c, 5, 71, 96
7, 145664, Note_off_c, 5, 71, 0
7, 145664, Note_on_c, 5, 69, 96
7, 145664, Note_off_c, 5, 71, 0
7, 145664, Note_on_c, 5, 69, 96
7, 145920, Note_off_c, 5, 69, 0
7, 145920, Note_on_c, 5, 67, 96
7, 145920, Note_off_c, 5, 69, 0
7, 145920, Note_on_c, 5, 67, 96
7, 146176, Note_off_c, 5, 67, 0
7, 146176, Note_on_c, 5, 69, 96
7, 146176, Note_off_c, 5, 67, 0
7, 146176, Note_on_c, 5, 69, 96
7, 146432, Note_off_c, 5, 69, 0
7, 146432, Note_on_c, 5, 71, 96
7, 146432, Note_off_c, 5, 69, 0
7, 146432, Note_on_c, 5, 71, 96
7, 146688, Note_off_c, 5, 71, 0
7, 146688, Note_on_c, 5, 72, 96
7, 146688, Note_off_c, 5, 71, 0
7, 146688, Note_on_c, 5, 72, 96
7, 146944, Note_off_c, 5, 72, 0
7, 146944, Note_on_c, 5, 71, 96
7, 146944, Note_off_c, 5, 72, 0
7, 146944, Note_on_c, 5, 71, 96
7, 147200, Note_off_c, 5, 71, 0
7, 147200, Note_on_c, 5, 72, 96
7, 147200, Note_off_c, 5, 71, 0
7, 147200, Note_on_c, 5, 72, 96
7, 147456, Note_off_c, 5, 72, 0
7, 147456, Note_off_c, 5, 72, 0
7, 147456, Note_on_c, 5, 74, 96
7, 147456, Note_on_c, 5, 74, 96
7, 147712, Note_off_c, 5, 74, 0
7, 147712, Note_on_c, 5, 79, 96
7, 147712, Note_off_c, 5, 74, 0
7, 147712, Note_on_c, 5, 79, 96
7, 147968, Note_off_c, 5, 79, 0
7, 147968, Note_on_c, 5, 78, 96
7, 147968, Note_off_c, 5, 79, 0
7, 147968, Note_on_c, 5, 78, 96
7, 148224, Note_off_c, 5, 78, 0
7, 148224, Note_on_c, 5, 76, 96
7, 148224, Note_off_c, 5, 78, 0
7, 148224, Note_on_c, 5, 76, 96
7, 148480, Note_off_c, 5, 76, 0
7, 148480, Note_on_c, 5, 74, 96
7, 148480, Note_off_c, 5, 76, 0
7, 148480, Note_on_c, 5, 74, 96
7, 148736, Note_off_c, 5, 74, 0
7, 148736, Note_on_c, 5, 72, 96
7, 148736, Note_off_c, 5, 74, 0
7, 148736, Note_on_c, 5, 72, 96
7, 148992, Note_off_c, 5, 72, 0
7, 148992, Note_on_c, 5, 71, 96
7, 148992, Note_off_c, 5, 72, 0
7, 148992, Note_on_c, 5, 71, 96
7, 149248, Note_off_c, 5, 71, 0
7, 149248, Note_on_c, 5, 72, 96
7, 149248, Note_off_c, 5, 71, 0
7, 149248, Note_on_c, 5, 72, 96
7, 149504, Note_off_c, 5, 72, 0
7, 149504, Note_on_c, 5, 71, 96
7, 149504, Note_off_c, 5, 72, 0
7, 149504, Note_on_c, 5, 71, 96
7, 149760, Note_off_c, 5, 71, 0
7, 149760, Note_on_c, 5, 76, 96
7, 149760, Note_off_c, 5, 71, 0
7, 149760, Note_on_c, 5, 76, 96
7, 150016, Note_off_c, 5, 76, 0
7, 150016, Note_on_c, 5, 74, 96
7, 150016, Note_off_c, 5, 76, 0
7, 150016, Note_on_c, 5, 74, 96
7, 150272, Note_off_c, 5, 74, 0
7, 150272, Note_on_c, 5, 72, 96
7, 150272, Note_off_c, 5, 74, 0
7, 150272, Note_on_c, 5, 72, 96
7, 150528, Note_off_c, 5, 72, 0
7, 150528, Note_on_c, 5, 71, 96
7, 150528, Note_off_c, 5, 72, 0
7, 150528, Note_on_c, 5, 71, 96
7, 150784, Note_off_c, 5, 71, 0
7, 150784, Note_on_c, 5, 69, 96
7, 150784, Note_off_c, 5, 71, 0
7, 150784, Note_on_c, 5, 69, 96
7, 151040, Note_off_c, 5, 69, 0
7, 151040, Note_on_c, 5, 67, 96
7, 151040, Note_off_c, 5, 69, 0
7, 151040, Note_on_c, 5, 67, 96
7, 151296, Note_off_c, 5, 67, 0
7, 151296, Note_on_c, 5, 69, 96
7, 151296, Note_off_c, 5, 67, 0
7, 151296, Note_on_c, 5, 69, 96
7, 151552, Note_off_c, 5, 69, 0
7, 151552, Note_off_c, 5, 69, 0
7, 151552, Note_on_c, 5, 67, 96
7, 151552, Note_on_c, 5, 67, 96
7, 151808, Note_off_c, 5, 67, 0
7, 151808, Note_on_c, 5, 72, 96
7, 151808, Note_off_c, 5, 67, 0
7, 151808, Note_on_c, 5, 72, 96
7, 152064, Note_off_c, 5, 72, 0
7, 152064, Note_on_c, 5, 71, 96
7, 152064, Note_off_c, 5, 72, 0
7, 152064, Note_on_c, 5, 71, 96
7, 152320, Note_off_c, 5, 71, 0
7, 152320, Note_on_c, 5, 69, 96
7, 152320, Note_off_c, 5, 71, 0
7, 152320, Note_on_c, 5, 69, 96
7, 152576, Note_off_c, 5, 69, 0
7, 152576, Note_on_c, 5, 67, 96
7, 152576, Note_off_c, 5, 69, 0
7, 152576, Note_on_c, 5, 67, 96
7, 152832, Note_off_c, 5, 67, 0
7, 152832, Note_on_c, 5, 65, 96
7, 152832, Note_off_c, 5, 67, 0
7, 152832, Note_on_c, 5, 65, 96
7, 153088, Note_off_c, 5, 65, 0
7, 153088, Note_on_c, 5, 64, 96
7, 153088, Note_off_c, 5, 65, 0
7, 153088, Note_on_c, 5, 64, 96
7, 153344, Note_off_c, 5, 64, 0
7, 153344, Note_on_c, 5, 65, 96
7, 153344, Note_off_c, 5, 64, 0
7, 153344, Note_on_c, 5, 65, 96
7, 153600, Note_off_c, 5, 65, 0
7, 153600, Note_on_c, 5, 64, 96
7, 153600, Note_off_c, 5, 65, 0
7, 153600, Note_on_c, 5, 64, 96
7, 153856, Note_off_c, 5, 64, 0
7, 153856, Note_on_c, 5, 67, 96
7, 153856, Note_off_c, 5, 64, 0
7, 153856, Note_on_c, 5, 67, 96
7, 154112, Note_off_c, 5, 67, 0
7, 154112, Note_on_c, 5, 66, 96
7, 154112, Note_off_c, 5, 67, 0
7, 154112, Note_on_c, 5, 66, 96
7, 154368, Note_off_c, 5, 66, 0
7, 154368, Note_on_c, 5, 69, 96
7, 154368, Note_off_c, 5, 66, 0
7, 154368, Note_on_c, 5, 69, 96
7, 154624, Note_off_c, 5, 69, 0
7, 154624, Note_on_c, 5, 67, 96
7, 154624, Note_off_c, 5, 69, 0
7, 154624, Note_on_c, 5, 67, 96
7, 154880, Note_off_c, 5, 67, 0
7, 154880, Note_on_c, 5, 79, 96
7, 154880, Note_off_c, 5, 67, 0
7, 154880, Note_on_c, 5, 79, 96
7, 155136, Note_off_c, 5, 79, 0
7, 155136, Note_on_c, 5, 78, 96
7, 155136, Note_off_c, 5, 79, 0
7, 155136, Note_on_c, 5, 78, 96
7, 155392, Note_off_c, 5, 78, 0
7, 155392, Note_on_c, 5, 76, 96
7, 155392, Note_off_c, 5, 78, 0
7, 155392, Note_on_c, 5, 76, 96
7, 155648, Note_off_c, 5, 76, 0
7, 155648, Note_off_c, 5, 76, 0
7, 155648, Note_on_c, 5, 74, 96
7, 155648, Note_on_c, 5, 74, 96
7, 155904, Note_off_c, 5, 74, 0
7, 155904, Note_on_c, 5, 72, 96
7, 155904, Note_off_c, 5, 74, 0
7, 155904, Note_on_c, 5, 72, 96
7, 156160, Note_off_c, 5, 72, 0
7, 156160, Note_on_c, 5, 71, 96
7, 156160, Note_off_c, 5, 72, 0
7, 156160, Note_on_c, 5, 71, 96
7, 156416, Note_off_c, 5, 71, 0
7, 156416, Note_on_c, 5, 72, 96
7, 156416, Note_off_c, 5, 71, 0
7, 156416, Note_on_c, 5, 72, 96
7, 156544, Note_off_c, 5, 72, 0
7, 156544, Note_on_c, 5, 74, 96
7, 156544, Note_off_c, 5, 72, 0
7, 156544, Note_on_c, 5, 74, 96
7, 156672, Note_off_c, 5, 74, 0
7, 156672, Note_on_c, 5, 69, 96
7, 156672, Note_off_c, 5, 74, 0
7, 156672, Note_on_c, 5, 69, 96
7, 157440, Note_off_c, 5, 69, 0
7, 157440, Note_on_c, 5, 67, 96
7, 157440, Note_off_c, 5, 69, 0
7, 157440, Note_on_c, 5, 67, 96
7, 157696, Note_off_c, 5, 67, 0
7, 157696, Note_on_c, 5, 67, 96
7, 157696, Note_off_c, 5, 67, 0
7, 157696, Note_on_c, 5, 67, 96
7, 161792, Note_off_c, 5, 67, 0
7, 161792, Note_off_c, 5, 67, 0
7, 161792, End_track
8, 0, Start_track
8, 0, Title_t, "Instrument 7"
8, 0, Note_on_c, 6, 79, 96
8, 0, Note_on_c, 6, 74, 96
8, 0, Note_on_c, 6, 71, 96
8, 1024, Note_off_c, 6, 79, 0
8, 1024, Note_off_c, 6, 74, 0
8, 1024, Note_off_c, 6, 71, 0
8, 2048, Note_on_c, 6, 74, 96
8, 2048, Note_on_c, 6, 71, 96
8, 2048, Note_on_c, 6, 67, 96
8, 3072, Note_off_c, 6, 74, 0
8, 3072, Note_off_c, 6, 71, 0
8, 3072, Note_off_c, 6, 67, 0
8, 4096, Note_on_c, 6, 67, 96
8, 4096, Note_on_c, 6, 62, 96
8, 4608, Note_on_c, 6, 62, 96
8, 5120, Note_off_c, 6, 62, 0
8, 5120, Note_on_c, 6, 67, 96
8, 5120, Note_off_c, 6, 67, 0
8, 5120, Note_off_c, 6, 62, 0
8, 5632, Note_off_c, 6, 67, 0
8, 5632, Note_on_c, 6, 69, 96
8, 6144, Note_off_c, 6, 69, 0
8, 6144, Note_on_c, 6, 71, 96
8, 6400, Note_off_c, 6, 71, 0
8, 6400, Note_on_c, 6, 69, 96
8, 6656, Note_off_c, 6, 69, 0
8, 6656, Note_on_c, 6, 67, 96
8, 6656, Note_on_c, 6, 66, 96
8, 6656, Note_on_c, 6, 62, 96
8, 6912, Note_off_c, 6, 67, 0
8, 6912, Note_on_c, 6, 69, 96
8, 7168, Note_off_c, 6, 69, 0
8, 7168, Note_on_c, 6, 71, 96
8, 7168, Note_off_c, 6, 66, 0
8, 7168, Note_on_c, 6, 67, 96
8, 7168, Note_off_c, 6, 62, 0
8, 7168, Note_on_c, 6, 62, 96
8, 7424, Note_off_c, 6, 71, 0
8, 7424, Note_on_c, 6, 72, 96
8, 7680, Note_off_c, 6, 72, 0
8, 7680, Note_on_c, 6, 71, 96
8, 7680, Note_off_c, 6, 67, 0
8, 7680, Note_on_c, 6, 66, 96
8, 7680, Note_off_c, 6, 62, 0
8, 7680, Note_on_c, 6, 60, 96
8, 7936, Note_off_c, 6, 71, 0
8, 7936, Note_on_c, 6, 72, 96
8, 8192, Note_off_c, 6, 72, 0
8, 8192, Note_off_c, 6, 66, 0
8, 8192, Note_off_c, 6, 60, 0
8, 8192, Note_on_c, 6, 74, 96
8, 8192, Note_on_c, 6, 67, 96
8, 8192, Note_on_c, 6, 59, 96
8, 8448, Note_off_c, 6, 74, 0
8, 8448, Note_on_c, 6, 79, 96
8, 8704, Note_off_c, 6, 79, 0
8, 8704, Note_on_c, 6, 78, 96
8, 8704, Note_off_c, 6, 59, 0
8, 8704, Note_on_c, 6, 57, 96
8, 8960, Note_off_c, 6, 78, 0
8, 8960, Note_on_c, 6, 76, 96
8, 9216, Note_off_c, 6, 76, 0
8, 9216, Note_on_c, 6, 74, 96
8, 9216, Note_off_c, 6, 57, 0
8, 9216, Note_on_c, 6, 57, 96
8, 9472, Note_off_c, 6, 74, 0
8, 9472, Note_on_c, 6, 72, 96
8, 9728, Note_off_c, 6, 72, 0
8, 9728, Note_on_c, 6, 71, 96
8, 9728, Note_off_c, 6, 67, 0
8, 9728, Note_on_c, 6, 66, 96
8, 9728, Note_off_c, 6, 57, 0
8, 9728, Note_on_c, 6, 62, 96
8, 9984, Note_off_c, 6, 71, 0
8, 9984, Note_on_c, 6, 72, 96
8, 10240, Note_off_c, 6, 72, 0
8, 10240, Note_on_c, 6, 71, 96
8, 10496, Note_off_c, 6, 71, 0
8, 10496, Note_on_c, 6, 76, 96
8, 10752, Note_off_c, 6, 76, 0
8, 10752, Note_on_c, 6, 74, 96
8, 10752, Note_off_c, 6, 66, 0
8, 10752, Note_on_c, 6, 64, 96
8, 10752, Note_off_c, 6, 62, 0
8, 10752, Note_on_c, 6, 57, 96
8, 11008, Note_off_c, 6, 74, 0
8, 11008, Note_on_c, 6, 72, 96
8, 11264, Note_off_c, 6, 72, 0
8, 11264, Note_on_c, 6, 71, 96
8, 11264, Note_off_c, 6, 57, 0
8, 11264, Note_on_c, 6, 54, 96
8, 11520, Note_off_c, 6, 71, 0
8, 11520, Note_on_c, 6, 69, 96
8, 11776, Note_off_c, 6, 69, 0
8, 11776, Note_on_c, 6, 67, 96
8, 11776, Note_off_c, 6, 64, 0
8, 11776, Note_on_c, 6, 63, 96
8, 11776, Note_off_c, 6, 54, 0
8, 11776, Note_on_c, 6, 59, 96
8, 12032, Note_off_c, 6, 67, 0
8, 12032, Note_on_c, 6, 69, 96
8, 12288, Note_off_c, 6, 69, 0
8, 12288, Note_off_c, 6, 63, 0
8, 12288, Note_off_c, 6, 59, 0
8, 12288, Note_on_c, 6, 67, 96
8, 12288, Note_on_c, 6, 64, 96
8, 12544, Note_off_c, 6, 67, 0
8, 12544, Note_on_c, 6, 72, 96
8, 12800, Note_off_c, 6, 72, 0
8, 12800, Note_on_c, 6, 71, 96
8, 12800, Note_off_c, 6, 64, 0
8, 12800, Note_on_c, 6, 72, 96
8, 13056, Note_off_c, 6, 71, 0
8, 13056, Note_on_c, 6, 69, 96
8, 13312, Note_off_c, 6, 69, 0
8, 13312, Note_on_c, 6, 67, 96
8, 13568, Note_off_c, 6, 67, 0
8, 13568, Note_on_c, 6, 65, 96
8, 13824, Note_off_c, 6, 65, 0
8, 13824, Note_on_c, 6, 64, 96
8, 13824, Note_off_c, 6, 72, 0
8, 13824, Note_on_c, 6, 71, 96
8, 14080, Note_off_c, 6, 64, 0
8, 14080, Note_on_c, 6, 65, 96
8, 14336, Note_off_c, 6, 65, 0
8, 14336, Note_on_c, 6, 64, 96
8, 14592, Note_off_c, 6, 64, 0
8, 14592, Note_on_c, 6, 67, 96
8, 14848, Note_off_c, 6, 67, 0
8, 14848, Note_on_c, 6, 66, 96
8, 14848, Note_off_c, 6, 71, 0
8, 14848, Note_on_c, 6, 69, 96
8, 15104, Note_off_c, 6, 66, 0
8, 15104, Note_on_c, 6, 69, 96
8, 15360, Note_off_c, 6, 69, 0
8, 15360, Note_on_c, 6, 67, 96
8, 15360, Note_off_c, 6, 69, 0
8, 15360, Note_on_c, 6, 74, 96
8, 15616, Note_off_c, 6, 67, 0
8, 15616, Note_on_c, 6, 79, 96
8, 15872, Note_off_c, 6, 79, 0
8, 15872, Note_on_c, 6, 78, 96
8, 15872, Note_off_c, 6, 74, 0
8, 15872, Note_on_c, 6, 72, 96
8, 16128, Note_off_c, 6, 78, 0
8, 16128, Note_on_c, 6, 76, 96
8, 16384, Note_off_c, 6, 76, 0
8, 16384, Note_off_c, 6, 72, 0
8, 16384, Note_on_c, 6, 74, 96
8, 16384, Note_on_c, 6, 71, 96
8, 16640, Note_off_c, 6, 74, 0
8, 16640, Note_on_c, 6, 72, 96
8, 16896, Note_off_c, 6, 72, 0
8, 16896, Note_on_c, 6, 71, 96
8, 16896, Note_off_c, 6, 71, 0
8, 16896, Note_on_c, 6, 67, 96
8, 17152, Note_off_c, 6, 71, 0
8, 17152, Note_on_c, 6, 72, 96
8, 17280, Note_off_c, 6, 72, 0
8, 17280, Note_on_c, 6, 74, 96
8, 17408, Note_off_c, 6, 74, 0
8, 17408, Note_on_c, 6, 69, 96
8, 17408, Note_off_c, 6, 67, 0
8, 17408, Note_on_c, 6, 67, 96
8, 17920, Note_off_c, 6, 67, 0
8, 17920, Note_on_c, 6, 66, 96
8, 18176, Note_off_c, 6, 69, 0
8, 18176, Note_on_c, 6, 67, 96
8, 18432, Note_off_c, 6, 67, 0
8, 18432, Note_on_c, 6, 67, 96
8, 18432, Note_off_c, 6, 66, 0
8, 18432, Note_on_c, 6, 62, 96
8, 18944, Note_on_c, 6, 55, 96
8, 19456, Note_off_c, 6, 67, 0
8, 19456, Note_off_c, 6, 62, 0
8, 19456, Note_off_c, 6, 55, 0
8, 19456, Note_on_c, 6, 55, 96
8, 19968, Note_off_c, 6, 55, 0
8, 19968, Note_on_c, 6, 52, 96
8, 20480, Note_off_c, 6, 52, 0
8, 23040, Note_on_c, 6, 62, 96
8, 23040, Note_on_c, 6, 67, 96
8, 23040, Note_on_c, 6, 55, 96
8, 23552, Note_off_c, 6, 62, 0
8, 23552, Note_on_c, 6, 67, 96
8, 23552, Note_off_c, 6, 67, 0
8, 23552, Note_on_c, 6, 67, 96
8, 23552, Note_off_c, 6, 55, 0
8, 23552, Note_on_c, 6, 55, 96
8, 24064, Note_off_c, 6, 67, 0
8, 24064, Note_on_c, 6, 69, 96
8, 24064, Note_off_c, 6, 67, 0
8, 24064, Note_on_c, 6, 60, 96
8, 24064, Note_off_c, 6, 55, 0
8, 24064, Note_on_c, 6, 52, 96
8, 24576, Note_off_c, 6, 69, 0
8, 24576, Note_off_c, 6, 60, 0
8, 24576, Note_off_c, 6, 52, 0
8, 24576, Note_on_c, 6, 71, 96
8, 24576, Note_on_c, 6, 62, 96
8, 24576, Note_on_c, 6, 55, 96
8, 24832, Note_off_c, 6, 71, 0
8, 24832, Note_on_c, 6, 69, 96
8, 24832, Note_off_c, 6, 62, 0
8, 24832, Note_on_c, 6, 64, 96
8, 25088, Note_off_c, 6, 69, 0
8, 25088, Note_on_c, 6, 67, 96
8, 25088, Note_off_c, 6, 64, 0
8, 25088, Note_on_c, 6, 62, 96
8, 25088, Note_off_c, 6, 55, 0
8, 25088, Note_on_c, 6, 50, 96
8, 25344, Note_off_c, 6, 67, 0
8, 25344, Note_on_c, 6, 69, 96
8, 25344, Note_off_c, 6, 62, 0
8, 25344, Note_on_c, 6, 64, 96
8, 25600, Note_off_c, 6, 69, 0
8, 25600, Note_on_c, 6, 71, 96
8, 25600, Note_off_c, 6, 64, 0
8, 25600, Note_on_c, 6, 66, 96
8, 25600, Note_off_c, 6, 50, 0
8, 25600, Note_on_c, 6, 62, 96
8, 25856, Note_off_c, 6, 71, 0
8, 25856, Note_on_c, 6, 72, 96
8, 26112, Note_off_c, 6, 72, 0
8, 26112, Note_on_c, 6, 71, 96
8, 26112, Note_off_c, 6, 66, 0
8, 26112, Note_on_c, 6, 69, 96
8, 26112, Note_off_c, 6, 62, 0
8, 26112, Note_on_c, 6, 62, 96
8, 26368, Note_off_c, 6, 71, 0
8, 26368, Note_on_c, 6, 72, 96
8, 26624, Note_off_c, 6, 72, 0
8, 26624, Note_on_c, 6, 74, 96
8, 26624, Note_off_c, 6, 69, 0
8, 26624, Note_on_c, 6, 67, 96
8, 26624, Note_off_c, 6, 62, 0
8, 26624, Note_on_c, 6, 62, 96
8, 26880, Note_off_c, 6, 74, 0
8, 26880, Note_on_c, 6, 79, 96
8, 27136, Note_off_c, 6, 79, 0
8, 27136, Note_on_c, 6, 78, 96
8, 27136, Note_off_c, 6, 67, 0
8, 27136, Note_on_c, 6, 71, 96
8, 27136, Note_off_c, 6, 62, 0
8, 27136, Note_on_c, 6, 59, 96
8, 27392, Note_off_c, 6, 78, 0
8, 27392, Note_on_c, 6, 76, 96
8, 27392, Note_off_c, 6, 59, 0
8, 27392, Note_on_c, 6, 60, 96
8, 27648, Note_off_c, 6, 76, 0
8, 27648, Note_on_c, 6, 74, 96
8, 27648, Note_off_c, 6, 71, 0
8, 27648, Note_on_c, 6, 69, 96
8, 27648, Note_off_c, 6, 60, 0
8, 27648, Note_on_c, 6, 62, 96
8, 27904, Note_off_c, 6, 74, 0
8, 27904, Note_on_c, 6, 72, 96
8, 28160, Note_off_c, 6, 72, 0
8, 28160, Note_on_c, 6, 71, 96
8, 28160, Note_off_c, 6, 69, 0
8, 28160, Note_on_c, 6, 66, 96
8, 28160, Note_off_c, 6, 62, 0
8, 28160, Note_on_c, 6, 62, 96
8, 28416, Note_off_c, 6, 71, 0
8, 28416, Note_on_c, 6, 72, 96
8, 28672, Note_off_c, 6, 72, 0
8, 28672, Note_on_c, 6, 71, 96
8, 28928, Note_off_c, 6, 71, 0
8, 28928, Note_on_c, 6, 76, 96
8, 29184, Note_off_c, 6, 76, 0
8, 29184, Note_on_c, 6, 74, 96
8, 29184, Note_off_c, 6, 66, 0
8, 29184, Note_on_c, 6, 64, 96
8, 29184, Note_off_c, 6, 62, 0
8, 29184, Note_on_c, 6, 57, 96
8, 29440, Note_off_c, 6, 74, 0
8, 29440, Note_on_c, 6, 72, 96
8, 29696, Note_off_c, 6, 72, 0
8, 29696, Note_on_c, 6, 71, 96
8, 29696, Note_off_c, 6, 57, 0
8, 29696, Note_on_c, 6, 54, 96
8, 29952, Note_off_c, 6, 71, 0
8, 29952, Note_on_c, 6, 69, 96
8, 30208, Note_off_c, 6, 69, 0
8, 30208, Note_on_c, 6, 67, 96
8, 30208, Note_off_c, 6, 64, 0
8, 30208, Note_on_c, 6, 63, 96
8, 30208, Note_off_c, 6, 54, 0
8, 30208, Note_on_c, 6, 59, 96
8, 30464, Note_off_c, 6, 67, 0
8, 30464, Note_on_c, 6, 69, 96
8, 30720, Note_off_c, 6, 69, 0
8, 30720, Note_on_c, 6, 67, 96
8, 30720, Note_off_c, 6, 63, 0
8, 30720, Note_on_c, 6, 64, 96
8, 30976, Note_off_c, 6, 67, 0
8, 30976, Note_on_c, 6, 72, 96
8, 31232, Note_off_c, 6, 72, 0
8, 31232, Note_on_c, 6, 71, 96
8, 31232, Note_off_c, 6, 64, 0
8, 31232, Note_on_c, 6, 72, 96
8, 31232, Note_off_c, 6, 59, 0
8, 31232, Note_on_c, 6, 62, 96
8, 31488, Note_off_c, 6, 71, 0
8, 31488, Note_on_c, 6, 69, 96
8, 31744, Note_off_c, 6, 69, 0
8, 31744, Note_on_c, 6, 67, 96
8, 31744, Note_off_c, 6, 62, 0
8, 31744, Note_on_c, 6, 64, 96
8, 32000, Note_off_c, 6, 67, 0
8, 32000, Note_on_c, 6, 65, 96
8, 32256, Note_off_c, 6, 65, 0
8, 32256, Note_on_c, 6, 64, 96
8, 32256, Note_off_c, 6, 72, 0
8, 32256, Note_on_c, 6, 71, 96
8, 32256, Note_off_c, 6, 64, 0
8, 32256, Note_on_c, 6, 67, 96
8, 32512, Note_off_c, 6, 64, 0
8, 32512, Note_on_c, 6, 65, 96
8, 32768, Note_off_c, 6, 65, 0
8, 32768, Note_on_c, 6, 64, 96
8, 33024, Note_off_c, 6, 64, 0
8, 33024, Note_on_c, 6, 67, 96
8, 33280, Note_off_c, 6, 67, 0
8, 33280, Note_on_c, 6, 66, 96
8, 33280, Note_off_c, 6, 71, 0
8, 33280, Note_on_c, 6, 69, 96
8, 33280, Note_off_c, 6, 67, 0
8, 33280, Note_on_c, 6, 62, 96
8, 33536, Note_off_c, 6, 66, 0
8, 33536, Note_on_c, 6, 69, 96
8, 33792, Note_off_c, 6, 69, 0
8, 33792, Note_on_c, 6, 67, 96
8, 33792, Note_off_c, 6, 69, 0
8, 33792, Note_on_c, 6, 67, 96
8, 34048, Note_off_c, 6, 67, 0
8, 34048, Note_on_c, 6, 79, 96
8, 34304, Note_off_c, 6, 79, 0
8, 34304, Note_on_c, 6, 78, 96
8, 34304, Note_off_c, 6, 67, 0
8, 34304, Note_on_c, 6, 69, 96
8, 34304, Note_off_c, 6, 62, 0
8, 34304, Note_on_c, 6, 60, 96
8, 34560, Note_off_c, 6, 78, 0
8, 34560, Note_on_c, 6, 76, 96
8, 34816, Note_off_c, 6, 76, 0
8, 34816, Note_on_c, 6, 74, 96
8, 34816, Note_off_c, 6, 69, 0
8, 34816, Note_on_c, 6, 71, 96
8, 34816, Note_off_c, 6, 60, 0
8, 34816, Note_on_c, 6, 59, 96
8, 35072, Note_off_c, 6, 74, 0
8, 35072, Note_on_c, 6, 72, 96
8, 35328, Note_off_c, 6, 72, 0
8, 35328, Note_on_c, 6, 71, 96
8, 35328, Note_off_c, 6, 71, 0
8, 35328, Note_on_c, 6, 67, 96
8, 35328, Note_off_c, 6, 59, 0
8, 35328, Note_on_c, 6, 62, 96
8, 35584, Note_off_c, 6, 71, 0
8, 35584, Note_on_c, 6, 72, 96
8, 35712, Note_off_c, 6, 72, 0
8, 35712, Note_on_c, 6, 74, 96
8, 35840, Note_off_c, 6, 74, 0
8, 35840, Note_on_c, 6, 69, 96
8, 35840, Note_off_c, 6, 62, 0
8, 35840, Note_on_c, 6, 64, 96
8, 36352, Note_off_c, 6, 67, 0
8, 36352, Note_on_c, 6, 66, 96
8, 36352, Note_off_c, 6, 64, 0
8, 36352, Note_on_c, 6, 66, 96
8, 36608, Note_off_c, 6, 69, 0
8, 36608, Note_on_c, 6, 67, 96
8, 36864, Note_off_c, 6, 67, 0
8, 36864, Note_off_c, 6, 66, 0
8, 36864, Note_off_c, 6, 66, 0
8, 36864, Note_on_c, 6, 67, 96
8, 36864, Note_on_c, 6, 67, 96
8, 36864, Note_on_c, 6, 59, 96
8, 37888, Note_off_c, 6, 67, 0
8, 37888, Note_off_c, 6, 67, 0
8, 37888, Note_off_c, 6, 59, 0
8, 40960, Note_on_c, 6, 79, 96
8, 40960, Note_on_c, 6, 74, 96
8, 40960, Note_on_c, 6, 71, 96
8, 41984, Note_off_c, 6, 79, 0
8, 41984, Note_off_c, 6, 74, 0
8, 41984, Note_off_c, 6, 71, 0
8, 43008, Note_on_c, 6, 74, 96
8, 43008, Note_on_c, 6, 71, 96
8, 43008, Note_on_c, 6, 67, 96
8, 44032, Note_off_c, 6, 74, 0
8, 44032, Note_off_c, 6, 71, 0
8, 44032, Note_off_c, 6, 67, 0
8, 45056, Note_on_c, 6, 71, 96
8, 45056, Note_on_c, 6, 67, 96
8, 45056, Note_on_c, 6, 62, 96
8, 45568, Note_off_c, 6, 71, 0
8, 45568, Note_on_c, 6, 62, 96
8, 46080, Note_off_c, 6, 62, 0
8, 46080, Note_on_c, 6, 67, 96
8, 46080, Note_off_c, 6, 67, 0
8, 46080, Note_off_c, 6, 62, 0
8, 46592, Note_off_c, 6, 67, 0
8, 46592, Note_on_c, 6, 69, 96
8, 47104, Note_off_c, 6, 69, 0
8, 47104, Note_on_c, 6, 71, 96
8, 47360, Note_off_c, 6, 71, 0
8, 47360, Note_on_c, 6, 69, 96
8, 47616, Note_off_c, 6, 69, 0
8, 47616, Note_on_c, 6, 67, 96
8, 47616, Note_on_c, 6, 66, 96
8, 47616, Note_on_c, 6, 62, 96
8, 47872, Note_off_c, 6, 67, 0
8, 47872, Note_on_c, 6, 69, 96
8, 48128, Note_off_c, 6, 69, 0
8, 48128, Note_on_c, 6, 71, 96
8, 48128, Note_off_c, 6, 66, 0
8, 48128, Note_on_c, 6, 67, 96
8, 48128, Note_off_c, 6, 62, 0
8, 48128, Note_on_c, 6, 62, 96
8, 48384, Note_off_c, 6, 71, 0
8, 48384, Note_on_c, 6, 72, 96
8, 48640, Note_off_c, 6, 72, 0
8, 48640, Note_on_c, 6, 71, 96
8, 48640, Note_off_c, 6, 67, 0
8, 48640, Note_on_c, 6, 66, 96
8, 48640, Note_off_c, 6, 62, 0
8, 48640, Note_on_c, 6, 60, 96
8, 48896, Note_off_c, 6, 71, 0
8, 48896, Note_on_c, 6, 72, 96
8, 49152, Note_off_c, 6, 72, 0
8, 49152, Note_off_c, 6, 66, 0
8, 49152, Note_off_c, 6, 60, 0
8, 49152, Note_on_c, 6, 74, 96
8, 49152, Note_on_c, 6, 67, 96
8, 49152, Note_on_c, 6, 59, 96
8, 49408, Note_off_c, 6, 74, 0
8, 49408, Note_on_c, 6, 79, 96
8, 49664, Note_off_c, 6, 79, 0
8, 49664, Note_on_c, 6, 78, 96
8, 49664, Note_off_c, 6, 59, 0
8, 49664, Note_on_c, 6, 57, 96
8, 49920, Note_off_c, 6, 78, 0
8, 49920, Note_on_c, 6, 76, 96
8, 50176, Note_off_c, 6, 76, 0
8, 50176, Note_on_c, 6, 74, 96
8, 50176, Note_off_c, 6, 57, 0
8, 50176, Note_on_c, 6, 57, 96
8, 50432, Note_off_c, 6, 74, 0
8, 50432, Note_on_c, 6, 72, 96
8, 50688, Note_off_c, 6, 72, 0
8, 50688, Note_on_c, 6, 71, 96
8, 50688, Note_off_c, 6, 67, 0
8, 50688, Note_on_c, 6, 66, 96
8, 50688, Note_off_c, 6, 57, 0
8, 50688, Note_on_c, 6, 62, 96
8, 50944, Note_off_c, 6, 71, 0
8, 50944, Note_on_c, 6, 72, 96
8, 51200, Note_off_c, 6, 72, 0
8, 51200, Note_on_c, 6, 71, 96
8, 51456, Note_off_c, 6, 71, 0
8, 51456, Note_on_c, 6, 76, 96
8, 51712, Note_off_c, 6, 76, 0
8, 51712, Note_on_c, 6, 74, 96
8, 51712, Note_off_c, 6, 66, 0
8, 51712, Note_on_c, 6, 64, 96
8, 51712, Note_off_c, 6, 62, 0
8, 51712, Note_on_c, 6, 57, 96
8, 51968, Note_off_c, 6, 74, 0
8, 51968, Note_on_c, 6, 72, 96
8, 52224, Note_off_c, 6, 72, 0
8, 52224, Note_on_c, 6, 71, 96
8, 52224, Note_off_c, 6, 57, 0
8, 52224, Note_on_c, 6, 54, 96
8, 52480, Note_off_c, 6, 71, 0
8, 52480, Note_on_c, 6, 69, 96
8, 52736, Note_off_c, 6, 69, 0
8, 52736, Note_on_c, 6, 67, 96
8, 52736, Note_off_c, 6, 64, 0
8, 52736, Note_on_c, 6, 63, 96
8, 52736, Note_off_c, 6, 54, 0
8, 52736, Note_on_c, 6, 59, 96
8, 52992, Note_off_c, 6, 67, 0
8, 52992, Note_on_c, 6, 69, 96
8, 53248, Note_off_c, 6, 69, 0
8, 53248, Note_off_c, 6, 63, 0
8, 53248, Note_on_c, 6, 67, 96
8, 53248, Note_on_c, 6, 64, 96
8, 53504, Note_off_c, 6, 67, 0
8, 53504, Note_on_c, 6, 72, 96
8, 53760, Note_off_c, 6, 72, 0
8, 53760, Note_on_c, 6, 71, 96
8, 53760, Note_off_c, 6, 64, 0
8, 53760, Note_on_c, 6, 72, 96
8, 53760, Note_off_c, 6, 59, 0
8, 53760, Note_on_c, 6, 62, 96
8, 54016, Note_off_c, 6, 71, 0
8, 54016, Note_on_c, 6, 69, 96
8, 54272, Note_off_c, 6, 69, 0
8, 54272, Note_on_c, 6, 67, 96
8, 54272, Note_off_c, 6, 62, 0
8, 54272, Note_on_c, 6, 64, 96
8, 54528, Note_off_c, 6, 67, 0
8, 54528, Note_on_c, 6, 65, 96
8, 54784, Note_off_c, 6, 65, 0
8, 54784, Note_on_c, 6, 64, 96
8, 54784, Note_off_c, 6, 72, 0
8, 54784, Note_on_c, 6, 71, 96
8, 54784, Note_off_c, 6, 64, 0
8, 54784, Note_on_c, 6, 67, 96
8, 55040, Note_off_c, 6, 64, 0
8, 55040, Note_on_c, 6, 65, 96
8, 55296, Note_off_c, 6, 65, 0
8, 55296, Note_on_c, 6, 64, 96
8, 55552, Note_off_c, 6, 64, 0
8, 55552, Note_on_c, 6, 67, 96
8, 55808, Note_off_c, 6, 67, 0
8, 55808, Note_on_c, 6, 66, 96
8, 55808, Note_off_c, 6, 71, 0
8, 55808, Note_on_c, 6, 69, 96
8, 55808, Note_off_c, 6, 67, 0
8, 55808, Note_on_c, 6, 62, 96
8, 56064, Note_off_c, 6, 66, 0
8, 56064, Note_on_c, 6, 69, 96
8, 56320, Note_off_c, 6, 69, 0
8, 56320, Note_on_c, 6, 67, 96
8, 56320, Note_off_c, 6, 69, 0
8, 56320, Note_on_c, 6, 74, 96
8, 56320, Note_off_c, 6, 62, 0
8, 56320, Note_on_c, 6, 62, 96
8, 56576, Note_off_c, 6, 67, 0
8, 56576, Note_on_c, 6, 79, 96
8, 56832, Note_off_c, 6, 79, 0
8, 56832, Note_on_c, 6, 78, 96
8, 56832, Note_off_c, 6, 74, 0
8, 56832, Note_on_c, 6, 72, 96
8, 56832, Note_off_c, 6, 62, 0
8, 56832, Note_on_c, 6, 66, 96
8, 57088, Note_off_c, 6, 78, 0
8, 57088, Note_on_c, 6, 76, 96
8, 57344, Note_off_c, 6, 76, 0
8, 57344, Note_off_c, 6, 72, 0
8, 57344, Note_off_c, 6, 66, 0
8, 57344, Note_on_c, 6, 74, 96
8, 57344, Note_on_c, 6, 71, 96
8, 57344, Note_on_c, 6, 67, 96
8, 57600, Note_off_c, 6, 74, 0
8, 57600, Note_on_c, 6, 72, 96
8, 57856, Note_off_c, 6, 72, 0
8, 57856, Note_on_c, 6, 71, 96
8, 57856, Note_off_c, 6, 71, 0
8, 57856, Note_on_c, 6, 67, 96
8, 57856, Note_off_c, 6, 67, 0
8, 57856, Note_on_c, 6, 55, 96
8, 58112, Note_off_c, 6, 71, 0
8, 58112, Note_on_c, 6, 72, 96
8, 58240, Note_off_c, 6, 72, 0
8, 58240, Note_on_c, 6, 74, 96
8, 58368, Note_off_c, 6, 74, 0
8, 58368, Note_on_c, 6, 69, 96
8, 58368, Note_off_c, 6, 67, 0
8, 58368, Note_on_c, 6, 67, 96
8, 58368, Note_off_c, 6, 55, 0
8, 58368, Note_on_c, 6, 62, 96
8, 58880, Note_off_c, 6, 67, 0
8, 58880, Note_on_c, 6, 66, 96
8, 58880, Note_off_c, 6, 62, 0
8, 58880, Note_on_c, 6, 57, 96
8, 59136, Note_off_c, 6, 69, 0
8, 59136, Note_on_c, 6, 67, 96
8, 59392, Note_off_c, 6, 67, 0
8, 59392, Note_on_c, 6, 67, 96
8, 59392, Note_off_c, 6, 66, 0
8, 59392, Note_on_c, 6, 62, 96
8, 59392, Note_off_c, 6, 57, 0
8, 59392, Note_on_c, 6, 59, 96
8, 60416, Note_off_c, 6, 67, 0
8, 60416, Note_off_c, 6, 62, 0
8, 60416, Note_off_c, 6, 59, 0
8, 64000, Note_on_c, 6, 62, 96
8, 64000, Note_on_c, 6, 67, 96
8, 64000, Note_on_c, 6, 55, 96
8, 64512, Note_off_c, 6, 62, 0
8, 64512, Note_on_c, 6, 67, 96
8, 64512, Note_off_c, 6, 67, 0
8, 64512, Note_on_c, 6, 67, 96
8, 64512, Note_off_c, 6, 55, 0
8, 64512, Note_on_c, 6, 55, 96
8, 65024, Note_off_c, 6, 67, 0
8, 65024, Note_on_c, 6, 69, 96
8, 65024, Note_off_c, 6, 67, 0
8, 65024, Note_on_c, 6, 60, 96
8, 65024, Note_off_c, 6, 55, 0
8, 65024, Note_on_c, 6, 52, 96
8, 65536, Note_off_c, 6, 69, 0
8, 65536, Note_off_c, 6, 60, 0
8, 65536, Note_off_c, 6, 52, 0
8, 65536, Note_on_c, 6, 71, 96
8, 65536, Note_on_c, 6, 62, 96
8, 65536, Note_on_c, 6, 55, 96
8, 65792, Note_off_c, 6, 71, 0
8, 65792, Note_on_c, 6, 69, 96
8, 65792, Note_off_c, 6, 62, 0
8, 65792, Note_on_c, 6, 64, 96
8, 66048, Note_off_c, 6, 69, 0
8, 66048, Note_on_c, 6, 67, 96
8, 66048, Note_off_c, 6, 64, 0
8, 66048, Note_on_c, 6, 62, 96
8, 66048, Note_off_c, 6, 55, 0
8, 66048, Note_on_c, 6, 50, 96
8, 66304, Note_off_c, 6, 67, 0
8, 66304, Note_on_c, 6, 69, 96
8, 66304, Note_off_c, 6, 62, 0
8, 66304, Note_on_c, 6, 64, 96
8, 66560, Note_off_c, 6, 69, 0
8, 66560, Note_on_c, 6, 71, 96
8, 66560, Note_off_c, 6, 64, 0
8, 66560, Note_on_c, 6, 66, 96
8, 66560, Note_off_c, 6, 50, 0
8, 66560, Note_on_c, 6, 62, 96
8, 66816, Note_off_c, 6, 71, 0
8, 66816, Note_on_c, 6, 72, 96
8, 67072, Note_off_c, 6, 72, 0
8, 67072, Note_on_c, 6, 71, 96
8, 67072, Note_off_c, 6, 66, 0
8, 67072, Note_on_c, 6, 69, 96
8, 67072, Note_off_c, 6, 62, 0
8, 67072, Note_on_c, 6, 62, 96
8, 67328, Note_off_c, 6, 71, 0
8, 67328, Note_on_c, 6, 72, 96
8, 67584, Note_off_c, 6, 72, 0
8, 67584, Note_on_c, 6, 74, 96
8, 67584, Note_off_c, 6, 69, 0
8, 67584, Note_on_c, 6, 67, 96
8, 67584, Note_off_c, 6, 62, 0
8, 67584, Note_on_c, 6, 62, 96
8, 67840, Note_off_c, 6, 74, 0
8, 67840, Note_on_c, 6, 79, 96
8, 68096, Note_off_c, 6, 79, 0
8, 68096, Note_on_c, 6, 78, 96
8, 68096, Note_off_c, 6, 67, 0
8, 68096, Note_on_c, 6, 71, 96
8, 68096, Note_off_c, 6, 62, 0
8, 68096, Note_on_c, 6, 59, 96
8, 68352, Note_off_c, 6, 78, 0
8, 68352, Note_on_c, 6, 76, 96
8, 68352, Note_off_c, 6, 59, 0
8, 68352, Note_on_c, 6, 60, 96
8, 68608, Note_off_c, 6, 76, 0
8, 68608, Note_on_c, 6, 74, 96
8, 68608, Note_off_c, 6, 71, 0
8, 68608, Note_on_c, 6, 69, 96
8, 68608, Note_off_c, 6, 60, 0
8, 68608, Note_on_c, 6, 62, 96
8, 68864, Note_off_c, 6, 74, 0
8, 68864, Note_on_c, 6, 72, 96
8, 69120, Note_off_c, 6, 72, 0
8, 69120, Note_on_c, 6, 71, 96
8, 69120, Note_off_c, 6, 69, 0
8, 69120, Note_on_c, 6, 66, 96
8, 69120, Note_off_c, 6, 62, 0
8, 69120, Note_on_c, 6, 62, 96
8, 69376, Note_off_c, 6, 71, 0
8, 69376, Note_on_c, 6, 72, 96
8, 69632, Note_off_c, 6, 72, 0
8, 69632, Note_on_c, 6, 71, 96
8, 69888, Note_off_c, 6, 71, 0
8, 69888, Note_on_c, 6, 76, 96
8, 70144, Note_off_c, 6, 76, 0
8, 70144, Note_on_c, 6, 74, 96
8, 70144, Note_off_c, 6, 66, 0
8, 70144, Note_on_c, 6, 64, 96
8, 70144, Note_off_c, 6, 62, 0
8, 70144, Note_on_c, 6, 57, 96
8, 70400, Note_off_c, 6, 74, 0
8, 70400, Note_on_c, 6, 72, 96
8, 70656, Note_off_c, 6, 72, 0
8, 70656, Note_on_c, 6, 71, 96
8, 70656, Note_off_c, 6, 57, 0
8, 70656, Note_on_c, 6, 54, 96
8, 70912, Note_off_c, 6, 71, 0
8, 70912, Note_on_c, 6, 69, 96
8, 71168, Note_off_c, 6, 69, 0
8, 71168, Note_on_c, 6, 67, 96
8, 71168, Note_off_c, 6, 64, 0
8, 71168, Note_on_c, 6, 63, 96
8, 71168, Note_off_c, 6, 54, 0
8, 71168, Note_on_c, 6, 59, 96
8, 71424, Note_off_c, 6, 67, 0
8, 71424, Note_on_c, 6, 69, 96
8, 71680, Note_off_c, 6, 69, 0
8, 71680, Note_on_c, 6, 67, 96
8, 71680, Note_off_c, 6, 63, 0
8, 71680, Note_on_c, 6, 64, 96
8, 71936, Note_off_c, 6, 67, 0
8, 71936, Note_on_c, 6, 72, 96
8, 72192, Note_off_c, 6, 72, 0
8, 72192, Note_on_c, 6, 71, 96
8, 72192, Note_off_c, 6, 64, 0
8, 72192, Note_on_c, 6, 72, 96
8, 72192, Note_off_c, 6, 59, 0
8, 72192, Note_on_c, 6, 62, 96
8, 72448, Note_off_c, 6, 71, 0
8, 72448, Note_on_c, 6, 69, 96
8, 72704, Note_off_c, 6, 69, 0
8, 72704, Note_on_c, 6, 67, 96
8, 72704, Note_off_c, 6, 62, 0
8, 72704, Note_on_c, 6, 64, 96
8, 72960, Note_off_c, 6, 67, 0
8, 72960, Note_on_c, 6, 65, 96
8, 73216, Note_off_c, 6, 65, 0
8, 73216, Note_on_c, 6, 64, 96
8, 73216, Note_off_c, 6, 72, 0
8, 73216, Note_on_c, 6, 71, 96
8, 73216, Note_off_c, 6, 64, 0
8, 73216, Note_on_c, 6, 67, 96
8, 73472, Note_off_c, 6, 64, 0
8, 73472, Note_on_c, 6, 65, 96
8, 73728, Note_off_c, 6, 65, 0
8, 73728, Note_on_c, 6, 64, 96
8, 73984, Note_off_c, 6, 64, 0
8, 73984, Note_on_c, 6, 67, 96
8, 74240, Note_off_c, 6, 67, 0
8, 74240, Note_on_c, 6, 66, 96
8, 74240, Note_off_c, 6, 71, 0
8, 74240, Note_on_c, 6, 69, 96
8, 74240, Note_off_c, 6, 67, 0
8, 74240, Note_on_c, 6, 62, 96
8, 74496, Note_off_c, 6, 66, 0
8, 74496, Note_on_c, 6, 69, 96
8, 74752, Note_off_c, 6, 69, 0
8, 74752, Note_on_c, 6, 67, 96
8, 74752, Note_off_c, 6, 69, 0
8, 74752, Note_on_c, 6, 67, 96
8, 75008, Note_off_c, 6, 67, 0
8, 75008, Note_on_c, 6, 79, 96
8, 75264, Note_off_c, 6, 79, 0
8, 75264, Note_on_c, 6, 78, 96
8, 75264, Note_off_c, 6, 67, 0
8, 75264, Note_on_c, 6, 69, 96
8, 75264, Note_off_c, 6, 62, 0
8, 75264, Note_on_c, 6, 60, 96
8, 75520, Note_off_c, 6, 78, 0
8, 75520, Note_on_c, 6, 76, 96
8, 75776, Note_off_c, 6, 76, 0
8, 75776, Note_on_c, 6, 74, 96
8, 75776, Note_off_c, 6, 69, 0
8, 75776, Note_on_c, 6, 71, 96
8, 75776, Note_off_c, 6, 60, 0
8, 75776, Note_on_c, 6, 59, 96
8, 76032, Note_off_c, 6, 74, 0
8, 76032, Note_on_c, 6, 72, 96
8, 76288, Note_off_c, 6, 72, 0
8, 76288, Note_on_c, 6, 71, 96
8, 76288, Note_off_c, 6, 71, 0
8, 76288, Note_on_c, 6, 67, 96
8, 76288, Note_off_c, 6, 59, 0
8, 76288, Note_on_c, 6, 62, 96
8, 76544, Note_off_c, 6, 71, 0
8, 76544, Note_on_c, 6, 72, 96
8, 76672, Note_off_c, 6, 72, 0
8, 76672, Note_on_c, 6, 74, 96
8, 76800, Note_off_c, 6, 74, 0
8, 76800, Note_on_c, 6, 69, 96
8, 76800, Note_off_c, 6, 62, 0
8, 76800, Note_on_c, 6, 64, 96
8, 77312, Note_off_c, 6, 67, 0
8, 77312, Note_on_c, 6, 66, 96
8, 77312, Note_off_c, 6, 64, 0
8, 77312, Note_on_c, 6, 66, 96
8, 77568, Note_off_c, 6, 69, 0
8, 77568, Note_on_c, 6, 67, 96
8, 77824, Note_off_c, 6, 67, 0
8, 77824, Note_off_c, 6, 66, 0
8, 77824, Note_off_c, 6, 66, 0
8, 77824, Note_on_c, 6, 67, 96
8, 77824, Note_on_c, 6, 67, 96
8, 77824, Note_on_c, 6, 59, 96
8, 78848, Note_off_c, 6, 67, 0
8, 78848, Note_off_c, 6, 67, 0
8, 78848, Note_off_c, 6, 59, 0
8, 81920, Note_on_c, 6, 79, 96
8, 81920, Note_on_c, 6, 74, 96
8, 81920, Note_on_c, 6, 71, 96
8, 82944, Note_off_c, 6, 79, 0
8, 82944, Note_off_c, 6, 74, 0
8, 82944, Note_off_c, 6, 71, 0
8, 83968, Note_on_c, 6, 78, 96
8, 83968, Note_on_c, 6, 72, 96
8, 83968, Note_on_c, 6, 69, 96
8, 84992, Note_off_c, 6, 78, 0
8, 84992, Note_off_c, 6, 72, 0
8, 84992, Note_off_c, 6, 69, 0
8, 86016, Note_on_c, 6, 79, 96
8, 86016, Note_on_c, 6, 74, 96
8, 86016, Note_on_c, 6, 71, 96
8, 86528, Note_off_c, 6, 79, 0
8, 86528, Note_on_c, 6, 62, 96
8, 87040, Note_off_c, 6, 62, 0
8, 87040, Note_on_c, 6, 67, 96
8, 87040, Note_off_c, 6, 74, 0
8, 87040, Note_off_c, 6, 71, 0
8, 87552, Note_off_c, 6, 67, 0
8, 87552, Note_on_c, 6, 69, 96
8, 88064, Note_off_c, 6, 69, 0
8, 88064, Note_on_c, 6, 71, 96
8, 88320, Note_off_c, 6, 71, 0
8, 88320, Note_on_c, 6, 69, 96
8, 88576, Note_off_c, 6, 69, 0
8, 88576, Note_on_c, 6, 67, 96
8, 88576, Note_on_c, 6, 66, 96
8, 88576, Note_on_c, 6, 62, 96
8, 88832, Note_off_c, 6, 67, 0
8, 88832, Note_on_c, 6, 69, 96
8, 89088, Note_off_c, 6, 69, 0
8, 89088, Note_on_c, 6, 71, 96
8, 89088, Note_off_c, 6, 66, 0
8, 89088, Note_on_c, 6, 67, 96
8, 89088, Note_off_c, 6, 62, 0
8, 89088, Note_on_c, 6, 62, 96
8, 89344, Note_off_c, 6, 71, 0
8, 89344, Note_on_c, 6, 72, 96
8, 89600, Note_off_c, 6, 72, 0
8, 89600, Note_on_c, 6, 71, 96
8, 89600, Note_off_c, 6, 67, 0
8, 89600, Note_on_c, 6, 66, 96
8, 89600, Note_off_c, 6, 62, 0
8, 89600, Note_on_c, 6, 60, 96
8, 89856, Note_off_c, 6, 71, 0
8, 89856, Note_on_c, 6, 72, 96
8, 90112, Note_off_c, 6, 72, 0
8, 90112, Note_off_c, 6, 66, 0
8, 90112, Note_off_c, 6, 60, 0
8, 90112, Note_on_c, 6, 74, 96
8, 90112, Note_on_c, 6, 67, 96
8, 90112, Note_on_c, 6, 59, 96
8, 90368, Note_off_c, 6, 74, 0
8, 90368, Note_on_c, 6, 79, 96
8, 90624, Note_off_c, 6, 79, 0
8, 90624, Note_on_c, 6, 78, 96
8, 90624, Note_off_c, 6, 59, 0
8, 90624, Note_on_c, 6, 57, 96
8, 90880, Note_off_c, 6, 78, 0
8, 90880, Note_on_c, 6, 76, 96
8, 91136, Note_off_c, 6, 76, 0
8, 91136, Note_on_c, 6, 74, 96
8, 91136, Note_off_c, 6, 57, 0
8, 91136, Note_on_c, 6, 57, 96
8, 91392, Note_off_c, 6, 74, 0
8, 91392, Note_on_c, 6, 72, 96
8, 91648, Note_off_c, 6, 72, 0
8, 91648, Note_on_c, 6, 71, 96
8, 91648, Note_off_c, 6, 67, 0
8, 91648, Note_on_c, 6, 66, 96
8, 91648, Note_off_c, 6, 57, 0
8, 91648, Note_on_c, 6, 62, 96
8, 91904, Note_off_c, 6, 71, 0
8, 91904, Note_on_c, 6, 72, 96
8, 92160, Note_off_c, 6, 72, 0
8, 92160, Note_on_c, 6, 71, 96
8, 92416, Note_off_c, 6, 71, 0
8, 92416, Note_on_c, 6, 76, 96
8, 92672, Note_off_c, 6, 76, 0
8, 92672, Note_on_c, 6, 74, 96
8, 92672, Note_off_c, 6, 66, 0
8, 92672, Note_on_c, 6, 64, 96
8, 92672, Note_off_c, 6, 62, 0
8, 92672, Note_on_c, 6, 57, 96
8, 92928, Note_off_c, 6, 74, 0
8, 92928, Note_on_c, 6, 72, 96
8, 93184, Note_off_c, 6, 72, 0
8, 93184, Note_on_c, 6, 71, 96
8, 93184, Note_off_c, 6, 57, 0
8, 93184, Note_on_c, 6, 54, 96
8, 93440, Note_off_c, 6, 71, 0
8, 93440, Note_on_c, 6, 69, 96
8, 93696, Note_off_c, 6, 69, 0
8, 93696, Note_on_c, 6, 67, 96
8, 93696, Note_off_c, 6, 64, 0
8, 93696, Note_on_c, 6, 63, 96
8, 93696, Note_off_c, 6, 54, 0
8, 93696, Note_on_c, 6, 59, 96
8, 93952, Note_off_c, 6, 67, 0
8, 93952, Note_on_c, 6, 69, 96
8, 94208, Note_off_c, 6, 69, 0
8, 94208, Note_off_c, 6, 63, 0
8, 94208, Note_on_c, 6, 67, 96
8, 94208, Note_on_c, 6, 64, 96
8, 94464, Note_off_c, 6, 67, 0
8, 94464, Note_on_c, 6, 72, 96
8, 94720, Note_off_c, 6, 72, 0
8, 94720, Note_on_c, 6, 71, 96
8, 94720, Note_off_c, 6, 64, 0
8, 94720, Note_on_c, 6, 72, 96
8, 94720, Note_off_c, 6, 59, 0
8, 94720, Note_on_c, 6, 62, 96
8, 94976, Note_off_c, 6, 71, 0
8, 94976, Note_on_c, 6, 69, 96
8, 95232, Note_off_c, 6, 69, 0
8, 95232, Note_on_c, 6, 67, 96
8, 95488, Note_off_c, 6, 67, 0
8, 95488, Note_on_c, 6, 65, 96
8, 95744, Note_off_c, 6, 65, 0
8, 95744, Note_on_c, 6, 64, 96
8, 95744, Note_off_c, 6, 72, 0
8, 95744, Note_on_c, 6, 71, 96
8, 95744, Note_off_c, 6, 62, 0
8, 95744, Note_on_c, 6, 67, 96
8, 96000, Note_off_c, 6, 64, 0
8, 96000, Note_on_c, 6, 65, 96
8, 96256, Note_off_c, 6, 65, 0
8, 96256, Note_on_c, 6, 64, 96
8, 96256, Note_off_c, 6, 71, 0
8, 96256, Note_on_c, 6, 72, 96
8, 96256, Note_off_c, 6, 67, 0
8, 96256, Note_on_c, 6, 67, 96
8, 96512, Note_off_c, 6, 64, 0
8, 96512, Note_on_c, 6, 67, 96
8, 96768, Note_off_c, 6, 67, 0
8, 96768, Note_on_c, 6, 66, 96
8, 96768, Note_off_c, 6, 72, 0
8, 96768, Note_on_c, 6, 66, 96
8, 96768, Note_off_c, 6, 67, 0
8, 96768, Note_on_c, 6, 60, 96
8, 97024, Note_off_c, 6, 66, 0
8, 97024, Note_on_c, 6, 69, 96
8, 97280, Note_off_c, 6, 69, 0
8, 97280, Note_on_c, 6, 67, 96
8, 97280, Note_off_c, 6, 66, 0
8, 97280, Note_on_c, 6, 64, 96
8, 97280, Note_off_c, 6, 60, 0
8, 97280, Note_on_c, 6, 59, 96
8, 97536, Note_off_c, 6, 67, 0
8, 97536, Note_on_c, 6, 79, 96
8, 97792, Note_off_c, 6, 79, 0
8, 97792, Note_on_c, 6, 78, 96
8, 97792, Note_off_c, 6, 64, 0
8, 97792, Note_on_c, 6, 67, 96
8, 97792, Note_off_c, 6, 59, 0
8, 97792, Note_on_c, 6, 57, 96
8, 98048, Note_off_c, 6, 78, 0
8, 98048, Note_on_c, 6, 76, 96
8, 98304, Note_off_c, 6, 76, 0
8, 98304, Note_off_c, 6, 67, 0
8, 98304, Note_off_c, 6, 57, 0
8, 98304, Note_on_c, 6, 74, 96
8, 98304, Note_on_c, 6, 66, 96
8, 98304, Note_on_c, 6, 57, 96
8, 98560, Note_off_c, 6, 74, 0
8, 98560, Note_on_c, 6, 72, 96
8, 98816, Note_off_c, 6, 72, 0
8, 98816, Note_on_c, 6, 71, 96
8, 98816, Note_off_c, 6, 66, 0
8, 98816, Note_on_c, 6, 67, 96
8, 98816, Note_off_c, 6, 57, 0
8, 98816, Note_on_c, 6, 62, 96
8, 99072, Note_off_c, 6, 71, 0
8, 99072, Note_on_c, 6, 72, 96
8, 99072, Note_off_c, 6, 62, 0
8, 99072, Note_on_c, 6, 60, 96
8, 99200, Note_off_c, 6, 72, 0
8, 99200, Note_on_c, 6, 74, 96
8, 99328, Note_off_c, 6, 74, 0
8, 99328, Note_on_c, 6, 69, 96
8, 99328, Note_off_c, 6, 67, 0
8, 99328, Note_on_c, 6, 66, 96
8, 99328, Note_off_c, 6, 60, 0
8, 99328, Note_on_c, 6, 62, 96
8, 99840, Note_off_c, 6, 66, 0
8, 99840, Note_on_c, 6, 64, 96
8, 99840, Note_off_c, 6, 62, 0
8, 99840, Note_on_c, 6, 57, 96
8, 100096, Note_off_c, 6, 69, 0
8, 100096, Note_on_c, 6, 67, 96
8, 100352, Note_off_c, 6, 67, 0
8, 100352, Note_on_c, 6, 67, 96
8, 100352, Note_off_c, 6, 64, 0
8, 100352, Note_on_c, 6, 62, 96
8, 100352, Note_off_c, 6, 57, 0
8, 100352, Note_on_c, 6, 59, 96
8, 101376, Note_off_c, 6, 67, 0
8, 101376, Note_off_c, 6, 62, 0
8, 101376, Note_off_c, 6, 59, 0
8, 104960, Note_on_c, 6, 69, 96
8, 104960, Note_on_c, 6, 66, 96
8, 104960, Note_on_c, 6, 62, 96
8, 105472, Note_off_c, 6, 69, 0
8, 105472, Note_on_c, 6, 74, 96
8, 105472, Note_off_c, 6, 66, 0
8, 105472, Note_on_c, 6, 66, 96
8, 105472, Note_off_c, 6, 62, 0
8, 105472, Note_on_c, 6, 62, 96
8, 105984, Note_off_c, 6, 74, 0
8, 105984, Note_on_c, 6, 76, 96
8, 105984, Note_off_c, 6, 66, 0
8, 105984, Note_on_c, 6, 69, 96
8, 105984, Note_off_c, 6, 62, 0
8, 105984, Note_on_c, 6, 57, 96
8, 106496, Note_off_c, 6, 76, 0
8, 106496, Note_on_c, 6, 78, 96
8, 106752, Note_off_c, 6, 78, 0
8, 106752, Note_on_c, 6, 76, 96
8, 106752, Note_off_c, 6, 57, 0
8, 106752, Note_on_c, 6, 64, 96
8, 107008, Note_off_c, 6, 76, 0
8, 107008, Note_on_c, 6, 74, 96
8, 107008, Note_off_c, 6, 69, 0
8, 107008, Note_on_c, 6, 74, 96
8, 107008, Note_off_c, 6, 64, 0
8, 107008, Note_on_c, 6, 66, 96
8, 107264, Note_off_c, 6, 74, 0
8, 107264, Note_on_c, 6, 76, 96
8, 107264, Note_off_c, 6, 74, 0
8, 107264, Note_on_c, 6, 73, 96
8, 107264, Note_off_c, 6, 66, 0
8, 107264, Note_on_c, 6, 67, 96
8, 107520, Note_off_c, 6, 76, 0
8, 107520, Note_on_c, 6, 78, 96
8, 107520, Note_off_c, 6, 73, 0
8, 107520, Note_on_c, 6, 74, 96
8, 107520, Note_off_c, 6, 67, 0
8, 107520, Note_on_c, 6, 69, 96
8, 107776, Note_off_c, 6, 78, 0
8, 107776, Note_on_c, 6, 79, 96
8, 108032, Note_off_c, 6, 79, 0
8, 108032, Note_on_c, 6, 78, 96
8, 108032, Note_off_c, 6, 69, 0
8, 108032, Note_on_c, 6, 66, 96
8, 108288, Note_off_c, 6, 78, 0
8, 108288, Note_on_c, 6, 79, 96
8, 108544, Note_off_c, 6, 79, 0
8, 108544, Note_on_c, 6, 81, 96
8, 108544, Note_off_c, 6, 66, 0
8, 108544, Note_on_c, 6, 64, 96
8, 108800, Note_off_c, 6, 81, 0
8, 108800, Note_on_c, 6, 86, 96
8, 109056, Note_off_c, 6, 86, 0
8, 109056, Note_on_c, 6, 85, 96
8, 109056, Note_off_c, 6, 74, 0
8, 109056, Note_on_c, 6, 76, 96
8, 109056, Note_off_c, 6, 64, 0
8, 109056, Note_on_c, 6, 67, 96
8, 109312, Note_off_c, 6, 85, 0
8, 109312, Note_on_c, 6, 83, 96
8, 109312, Note_off_c, 6, 76, 0
8, 109312, Note_on_c, 6, 78, 96
8, 109568, Note_off_c, 6, 83, 0
8, 109568, Note_on_c, 6, 81, 96
8, 109568, Note_off_c, 6, 78, 0
8, 109568, Note_on_c, 6, 76, 96
8, 109568, Note_off_c, 6, 67, 0
8, 109568, Note_on_c, 6, 61, 96
8, 109824, Note_off_c, 6, 81, 0
8, 109824, Note_on_c, 6, 79, 96
8, 110080, Note_off_c, 6, 79, 0
8, 110080, Note_on_c, 6, 78, 96
8, 110080, Note_off_c, 6, 76, 0
8, 110080, Note_on_c, 6, 72, 96
8, 110080, Note_off_c, 6, 61, 0
8, 110080, Note_on_c, 6, 64, 96
8, 110336, Note_off_c, 6, 78, 0
8, 110336, Note_on_c, 6, 79, 96
8, 110592, Note_off_c, 6, 79, 0
8, 110592, Note_off_c, 6, 72, 0
8, 110592, Note_off_c, 6, 64, 0
8, 110592, Note_on_c, 6, 78, 96
8, 110592, Note_on_c, 6, 74, 96
8, 110592, Note_on_c, 6, 62, 96
8, 110848, Note_off_c, 6, 78, 0
8, 110848, Note_on_c, 6, 83, 96
8, 111104, Note_off_c, 6, 83, 0
8, 111104, Note_on_c, 6, 81, 96
8, 111104, Note_off_c, 6, 74, 0
8, 111104, Note_on_c, 6, 71, 96
8, 111104, Note_off_c, 6, 62, 0
8, 111104, Note_on_c, 6, 67, 96
8, 111360, Note_off_c, 6, 81, 0
8, 111360, Note_on_c, 6, 79, 96
8, 111616, Note_off_c, 6, 79, 0
8, 111616, Note_on_c, 6, 78, 96
8, 111616, Note_off_c, 6, 67, 0
8, 111616, Note_on_c, 6, 61, 96
8, 111872, Note_off_c, 6, 78, 0
8, 111872, Note_on_c, 6, 76, 96
8, 112128, Note_off_c, 6, 76, 0
8, 112128, Note_on_c, 6, 74, 96
8, 112128, Note_off_c, 6, 71, 0
8, 112128, Note_on_c, 6, 70, 96
8, 112128, Note_off_c, 6, 61, 0
8, 112128, Note_on_c, 6, 66, 96
8, 112384, Note_off_c, 6, 74, 0
8, 112384, Note_on_c, 6, 76, 96
8, 112640, Note_off_c, 6, 76, 0
8, 112640, Note_on_c, 6, 74, 96
8, 112640, Note_off_c, 6, 70, 0
8, 112640, Note_on_c, 6, 71, 96
8, 112896, Note_off_c, 6, 74, 0
8, 112896, Note_on_c, 6, 79, 96
8, 113152, Note_off_c, 6, 79, 0
8, 113152, Note_on_c, 6, 78, 96
8, 113152, Note_off_c, 6, 71, 0
8, 113152, Note_on_c, 6, 79, 96
8, 113152, Note_off_c, 6, 66, 0
8, 113152, Note_on_c, 6, 57, 96
8, 113408, Note_off_c, 6, 78, 0
8, 113408, Note_on_c, 6, 76, 96
8, 113664, Note_off_c, 6, 76, 0
8, 113664, Note_on_c, 6, 74, 96
8, 113664, Note_off_c, 6, 57, 0
8, 113664, Note_on_c, 6, 59, 96
8, 113920, Note_off_c, 6, 74, 0
8, 113920, Note_on_c, 6, 72, 96
8, 114176, Note_off_c, 6, 72, 0
8, 114176, Note_on_c, 6, 71, 96
8, 114176, Note_off_c, 6, 79, 0
8, 114176, Note_on_c, 6, 78, 96
8, 114176, Note_off_c, 6, 59, 0
8, 114176, Note_on_c, 6, 62, 96
8, 114432, Note_off_c, 6, 71, 0
8, 114432, Note_on_c, 6, 72, 96
8, 114688, Note_off_c, 6, 72, 0
8, 114688, Note_off_c, 6, 62, 0
8, 114688, Note_on_c, 6, 71, 96
8, 114688, Note_on_c, 6, 62, 96
8, 114944, Note_off_c, 6, 71, 0
8, 114944, Note_on_c, 6, 74, 96
8, 115200, Note_off_c, 6, 74, 0
8, 115200, Note_on_c, 6, 73, 96
8, 115200, Note_off_c, 6, 78, 0
8, 115200, Note_on_c, 6, 76, 96
8, 115200, Note_off_c, 6, 62, 0
8, 115200, Note_on_c, 6, 67, 96
8, 115456, Note_off_c, 6, 73, 0
8, 115456, Note_on_c, 6, 76, 96
8, 115712, Note_off_c, 6, 76, 0
8, 115712, Note_on_c, 6, 74, 96
8, 115712, Note_off_c, 6, 76, 0
8, 115712, Note_on_c, 6, 71, 96
8, 115712, Note_off_c, 6, 67, 0
8, 115712, Note_on_c, 6, 66, 96
8, 115968, Note_off_c, 6, 74, 0
8, 115968, Note_on_c, 6, 79, 96
8, 116224, Note_off_c, 6, 79, 0
8, 116224, Note_on_c, 6, 78, 96
8, 116224, Note_off_c, 6, 71, 0
8, 116224, Note_on_c, 6, 69, 96
8, 116224, Note_off_c, 6, 66, 0
8, 116224, Note_on_c, 6, 69, 96
8, 116480, Note_off_c, 6, 78, 0
8, 116480, Note_on_c, 6, 76, 96
8, 116736, Note_off_c, 6, 76, 0
8, 116736, Note_on_c, 6, 78, 96
8, 116736, Note_off_c, 6, 69, 0
8, 116736, Note_on_c, 6, 69, 96
8, 116736, Note_off_c, 6, 69, 0
8, 116736, Note_on_c, 6, 62, 96
8, 116992, Note_off_c, 6, 78, 0
8, 116992, Note_on_c, 6, 76, 96
8, 117248, Note_off_c, 6, 76, 0
8, 117248, Note_on_c, 6, 74, 96
8, 117248, Note_off_c, 6, 69, 0
8, 117248, Note_on_c, 6, 71, 96
8, 117248, Note_off_c, 6, 62, 0
8, 117248, Note_on_c, 6, 66, 96
8, 117504, Note_off_c, 6, 74, 0
8, 117504, Note_on_c, 6, 76, 96
8, 117632, Note_off_c, 6, 76, 0
8, 117632, Note_on_c, 6, 78, 96
8, 117760, Note_off_c, 6, 78, 0
8, 117760, Note_on_c, 6, 73, 96
8, 117760, Note_off_c, 6, 71, 0
8, 117760, Note_on_c, 6, 69, 96
8, 117760, Note_off_c, 6, 66, 0
8, 117760, Note_on_c, 6, 64, 96
8, 118272, Note_off_c, 6, 69, 0
8, 118272, Note_on_c, 6, 69, 96
8, 118272, Note_off_c, 6, 64, 0
8, 118272, Note_on_c, 6, 64, 96
8, 118528, Note_off_c, 6, 73, 0
8, 118528, Note_on_c, 6, 74, 96
8, 118784, Note_off_c, 6, 74, 0
8, 118784, Note_off_c, 6, 69, 0
8, 118784, Note_off_c, 6, 64, 0
8, 118784, Note_on_c, 6, 74, 96
8, 118784, Note_on_c, 6, 69, 96
8, 118784, Note_on_c, 6, 66, 96
8, 119040, Note_off_c, 6, 74, 0
8, 119040, Note_on_c, 6, 79, 96
8, 119296, Note_off_c, 6, 79, 0
8, 119296, Note_on_c, 6, 78, 96
8, 119296, Note_off_c, 6, 69, 0
8, 119296, Note_on_c, 6, 67, 96
8, 119552, Note_off_c, 6, 78, 0
8, 119552, Note_on_c, 6, 76, 96
8, 119808, Note_off_c, 6, 76, 0
8, 119808, Note_on_c, 6, 74, 96
8, 119808, Note_off_c, 6, 67, 0
8, 119808, Note_on_c, 6, 69, 96
8, 119808, Note_off_c, 6, 66, 0
8, 119808, Note_on_c, 6, 66, 96
8, 120064, Note_off_c, 6, 74, 0
8, 120064, Note_on_c, 6, 72, 96
8, 120320, Note_off_c, 6, 72, 0
8, 120320, Note_on_c, 6, 71, 96
8, 120320, Note_off_c, 6, 69, 0
8, 120320, Note_on_c, 6, 66, 96
8, 120576, Note_off_c, 6, 71, 0
8, 120576, Note_on_c, 6, 72, 96
8, 120832, Note_off_c, 6, 72, 0
8, 120832, Note_on_c, 6, 71, 96
8, 120832, Note_off_c, 6, 66, 0
8, 120832, Note_on_c, 6, 67, 96
8, 120832, Note_off_c, 6, 66, 0
8, 120832, Note_on_c, 6, 59, 96
8, 121088, Note_off_c, 6, 71, 0
8, 121088, Note_on_c, 6, 76, 96
8, 121344, Note_off_c, 6, 76, 0
8, 121344, Note_on_c, 6, 74, 96
8, 121344, Note_off_c, 6, 67, 0
8, 121344, Note_on_c, 6, 66, 96
8, 121344, Note_off_c, 6, 59, 0
8, 121344, Note_on_c, 6, 60, 96
8, 121600, Note_off_c, 6, 74, 0
8, 121600, Note_on_c, 6, 72, 96
8, 121856, Note_off_c, 6, 72, 0
8, 121856, Note_on_c, 6, 71, 96
8, 121856, Note_off_c, 6, 60, 0
8, 121856, Note_on_c, 6, 62, 96
8, 122112, Note_off_c, 6, 71, 0
8, 122112, Note_on_c, 6, 69, 96
8, 122368, Note_off_c, 6, 69, 0
8, 122368, Note_on_c, 6, 67, 96
8, 122368, Note_off_c, 6, 66, 0
8, 122368, Note_on_c, 6, 71, 96
8, 122624, Note_off_c, 6, 67, 0
8, 122624, Note_on_c, 6, 69, 96
8, 122880, Note_off_c, 6, 69, 0
8, 122880, Note_off_c, 6, 71, 0
8, 122880, Note_off_c, 6, 62, 0
8, 122880, Note_on_c, 6, 67, 96
8, 122880, Note_on_c, 6, 64, 96
8, 122880, Note_on_c, 6, 55, 96
8, 123136, Note_off_c, 6, 67, 0
8, 123136, Note_on_c, 6, 72, 96
8, 123392, Note_off_c, 6, 72, 0
8, 123392, Note_on_c, 6, 71, 96
8, 123392, Note_off_c, 6, 64, 0
8, 123392, Note_on_c, 6, 62, 96
8, 123392, Note_off_c, 6, 55, 0
8, 123392, Note_on_c, 6, 57, 96
8, 123648, Note_off_c, 6, 71, 0
8, 123648, Note_on_c, 6, 69, 96
8, 123904, Note_off_c, 6, 69, 0
8, 123904, Note_on_c, 6, 67, 96
8, 123904, Note_off_c, 6, 57, 0
8, 123904, Note_on_c, 6, 59, 96
8, 124160, Note_off_c, 6, 67, 0
8, 124160, Note_on_c, 6, 65, 96
8, 124416, Note_off_c, 6, 65, 0
8, 124416, Note_on_c, 6, 64, 96
8, 124416, Note_off_c, 6, 62, 0
8, 124416, Note_on_c, 6, 67, 96
8, 124672, Note_off_c, 6, 64, 0
8, 124672, Note_on_c, 6, 65, 96
8, 124928, Note_off_c, 6, 65, 0
8, 124928, Note_on_c, 6, 64, 96
8, 124928, Note_off_c, 6, 67, 0
8, 124928, Note_on_c, 6, 64, 96
8, 124928, Note_off_c, 6, 59, 0
8, 124928, Note_on_c, 6, 60, 96
8, 125184, Note_off_c, 6, 64, 0
8, 125184, Note_on_c, 6, 67, 96
8, 125440, Note_off_c, 6, 67, 0
8, 125440, Note_on_c, 6, 66, 96
8, 125440, Note_off_c, 6, 64, 0
8, 125440, Note_on_c, 6, 60, 96
8, 125696, Note_off_c, 6, 66, 0
8, 125696, Note_on_c, 6, 67, 96
8, 125696, Note_off_c, 6, 60, 0
8, 125696, Note_on_c, 6, 59, 96
8, 125824, Note_off_c, 6, 67, 0
8, 125824, Note_on_c, 6, 69, 96
8, 125952, Note_off_c, 6, 69, 0
8, 125952, Note_on_c, 6, 66, 96
8, 125952, Note_off_c, 6, 60, 0
8, 125952, Note_on_c, 6, 62, 96
8, 125952, Note_off_c, 6, 59, 0
8, 125952, Note_on_c, 6, 57, 96
8, 126464, Note_off_c, 6, 62, 0
8, 126464, Note_on_c, 6, 62, 96
8, 126720, Note_off_c, 6, 66, 0
8, 126720, Note_on_c, 6, 67, 96
8, 126976, Note_off_c, 6, 67, 0
8, 126976, Note_off_c, 6, 62, 0
8, 126976, Note_off_c, 6, 57, 0
8, 126976, Note_on_c, 6, 67, 96
8, 126976, Note_on_c, 6, 62, 96
8, 126976, Note_on_c, 6, 59, 96
8, 127488, Note_off_c, 6, 67, 0
8, 127488, Note_on_c, 6, 83, 96
8, 127488, Note_off_c, 6, 62, 0
8, 127488, Note_on_c, 6, 79, 96
8, 127488, Note_off_c, 6, 59, 0
8, 127488, Note_on_c, 6, 74, 96
8, 128000, Note_off_c, 6, 83, 0
8, 128000, Note_on_c, 6, 79, 96
8, 128000, Note_off_c, 6, 79, 0
8, 128000, Note_on_c, 6, 74, 96
8, 128000, Note_off_c, 6, 74, 0
8, 128000, Note_on_c, 6, 71, 96
8, 128512, Note_off_c, 6, 79, 0
8, 128512, Note_on_c, 6, 74, 96
8, 128512, Note_off_c, 6, 74, 0
8, 128512, Note_on_c, 6, 71, 96
8, 128512, Note_off_c, 6, 71, 0
8, 128512, Note_on_c, 6, 67, 96
8, 129024, Note_off_c, 6, 74, 0
8, 129024, Note_off_c, 6, 71, 0
8, 129024, Note_off_c, 6, 67, 0
8, 129536, Note_on_c, 6, 81, 96
8, 129536, Note_on_c, 6, 78, 96
8, 129536, Note_on_c, 6, 72, 96
8, 130048, Note_off_c, 6, 81, 0
8, 130048, Note_on_c, 6, 78, 96
8, 130048, Note_off_c, 6, 78, 0
8, 130048, Note_on_c, 6, 72, 96
8, 130048, Note_off_c, 6, 72, 0
8, 130048, Note_on_c, 6, 69, 96
8, 130560, Note_off_c, 6, 78, 0
8, 130560, Note_on_c, 6, 72, 96
8, 130560, Note_off_c, 6, 72, 0
8, 130560, Note_on_c, 6, 69, 96
8, 130560, Note_off_c, 6, 69, 0
8, 130560, Note_on_c, 6, 66, 96
8, 131072, Note_off_c, 6, 72, 0
8, 131072, Note_off_c, 6, 69, 0
8, 131072, Note_off_c, 6, 66, 0
8, 131072, Note_on_c, 6, 71, 96
8, 131072, Note_on_c, 6, 62, 96
8, 131328, Note_on_c, 6, 79, 96
8, 131584, Note_off_c, 6, 79, 0
8, 131584, Note_on_c, 6, 78, 96
8, 131584, Note_off_c, 6, 71, 0
8, 131584, Note_on_c, 6, 62, 96
8, 131584, Note_off_c, 6, 62, 0
8, 131584, Note_on_c, 6, 59, 96
8, 131840, Note_off_c, 6, 78, 0
8, 131840, Note_on_c, 6, 76, 96
8, 132096, Note_off_c, 6, 76, 0
8, 132096, Note_on_c, 6, 74, 96
8, 132096, Note_off_c, 6, 62, 0
8, 132096, Note_on_c, 6, 67, 96
8, 132096, Note_off_c, 6, 59, 0
8, 132096, Note_on_c, 6, 62, 96
8, 132352, Note_off_c, 6, 74, 0
8, 132352, Note_on_c, 6, 72, 96
8, 132608, Note_off_c, 6, 72, 0
8, 132608, Note_on_c, 6, 71, 96
8, 132608, Note_off_c, 6, 67, 0
8, 132608, Note_on_c, 6, 71, 96
8, 132608, Note_off_c, 6, 62, 0
8, 132608, Note_on_c, 6, 67, 96
8, 132864, Note_off_c, 6, 71, 0
8, 132864, Note_on_c, 6, 72, 96
8, 133120, Note_off_c, 6, 72, 0
8, 133120, Note_on_c, 6, 71, 96
8, 133120, Note_off_c, 6, 71, 0
8, 133120, Note_off_c, 6, 67, 0
8, 133376, Note_off_c, 6, 71, 0
8, 133376, Note_on_c, 6, 76, 96
8, 133632, Note_off_c, 6, 76, 0
8, 133632, Note_on_c, 6, 74, 96
8, 133632, Note_on_c, 6, 67, 96
8, 133632, Note_on_c, 6, 62, 96
8, 133888, Note_off_c, 6, 74, 0
8, 133888, Note_on_c, 6, 72, 96
8, 134144, Note_off_c, 6, 72, 0
8, 134144, Note_on_c, 6, 71, 96
8, 134144, Note_off_c, 6, 67, 0
8, 134144, Note_on_c, 6, 71, 96
8, 134144, Note_off_c, 6, 62, 0
8, 134144, Note_on_c, 6, 67, 96
8, 134400, Note_off_c, 6, 71, 0
8, 134400, Note_on_c, 6, 69, 96
8, 134656, Note_off_c, 6, 69, 0
8, 134656, Note_on_c, 6, 67, 96
8, 134656, Note_off_c, 6, 71, 0
8, 134656, Note_on_c, 6, 74, 96
8, 134656, Note_off_c, 6, 67, 0
8, 134656, Note_on_c, 6, 71, 96
8, 134912, Note_off_c, 6, 67, 0
8, 134912, Note_on_c, 6, 69, 96
8, 135168, Note_off_c, 6, 69, 0
8, 135168, Note_off_c, 6, 74, 0
8, 135168, Note_off_c, 6, 71, 0
8, 135168, Note_on_c, 6, 67, 96
8, 135424, Note_off_c, 6, 67, 0
8, 135424, Note_on_c, 6, 72, 96
8, 135680, Note_off_c, 6, 72, 0
8, 135680, Note_on_c, 6, 71, 96
8, 135680, Note_on_c, 6, 71, 96
8, 135680, Note_on_c, 6, 67, 96
8, 135936, Note_off_c, 6, 71, 0
8, 135936, Note_on_c, 6, 69, 96
8, 136192, Note_off_c, 6, 69, 0
8, 136192, Note_on_c, 6, 67, 96
8, 136192, Note_off_c, 6, 71, 0
8, 136192, Note_on_c, 6, 74, 96
8, 136192, Note_off_c, 6, 67, 0
8, 136192, Note_on_c, 6, 71, 96
8, 136448, Note_off_c, 6, 67, 0
8, 136448, Note_on_c, 6, 65, 96
8, 136704, Note_off_c, 6, 65, 0
8, 136704, Note_on_c, 6, 64, 96
8, 136704, Note_off_c, 6, 74, 0
8, 136704, Note_on_c, 6, 79, 96
8, 136704, Note_off_c, 6, 71, 0
8, 136704, Note_on_c, 6, 74, 96
8, 136960, Note_off_c, 6, 64, 0
8, 136960, Note_on_c, 6, 65, 96
8, 137216, Note_off_c, 6, 65, 0
8, 137216, Note_on_c, 6, 64, 96
8, 137216, Note_off_c, 6, 79, 0
8, 137216, Note_off_c, 6, 74, 0
8, 137472, Note_off_c, 6, 64, 0
8, 137472, Note_on_c, 6, 62, 96
8, 137728, Note_off_c, 6, 62, 0
8, 137728, Note_on_c, 6, 64, 96
8, 137728, Note_on_c, 6, 67, 96
8, 137728, Note_on_c, 6, 60, 96
8, 137984, Note_off_c, 6, 64, 0
8, 137984, Note_on_c, 6, 67, 96
8, 138240, Note_off_c, 6, 67, 0
8, 138240, Note_on_c, 6, 66, 96
8, 138240, Note_off_c, 6, 67, 0
8, 138240, Note_on_c, 6, 69, 96
8, 138240, Note_off_c, 6, 60, 0
8, 138240, Note_on_c, 6, 72, 96
8, 138496, Note_off_c, 6, 66, 0
8, 138496, Note_on_c, 6, 64, 96
8, 138752, Note_off_c, 6, 64, 0
8, 138752, Note_on_c, 6, 66, 96
8, 138752, Note_off_c, 6, 69, 0
8, 138752, Note_on_c, 6, 72, 96
8, 138752, Note_off_c, 6, 72, 0
8, 138752, Note_on_c, 6, 69, 96
8, 139008, Note_off_c, 6, 66, 0
8, 139008, Note_on_c, 6, 69, 96
8, 139264, Note_off_c, 6, 69, 0
8, 139264, Note_off_c, 6, 72, 0
8, 139264, Note_off_c, 6, 69, 0
8, 139520, Note_on_c, 6, 76, 96
8, 139520, Note_on_c, 6, 72, 96
8, 139776, Note_off_c, 6, 76, 0
8, 139776, Note_on_c, 6, 74, 96
8, 139776, Note_off_c, 6, 72, 0
8, 139776, Note_on_c, 6, 71, 96
8, 140032, Note_off_c, 6, 74, 0
8, 140032, Note_on_c, 6, 72, 96
8, 140032, Note_off_c, 6, 71, 0
8, 140032, Note_on_c, 6, 69, 96
8, 140288, Note_off_c, 6, 72, 0
8, 140288, Note_on_c, 6, 71, 96
8, 140288, Note_off_c, 6, 69, 0
8, 140288, Note_on_c, 6, 67, 96
8, 140544, Note_off_c, 6, 71, 0
8, 140544, Note_on_c, 6, 69, 96
8, 140544, Note_off_c, 6, 67, 0
8, 140544, Note_on_c, 6, 64, 96
8, 140800, Note_off_c, 6, 69, 0
8, 140800, Note_on_c, 6, 67, 96
8, 140800, Note_off_c, 6, 64, 0
8, 140800, Note_on_c, 6, 62, 96
8, 141056, Note_off_c, 6, 67, 0
8, 141056, Note_on_c, 6, 66, 96
8, 141056, Note_off_c, 6, 62, 0
8, 141056, Note_on_c, 6, 60, 96
8, 141312, Note_off_c, 6, 66, 0
8, 141312, Note_on_c, 6, 67, 96
8, 141312, Note_off_c, 6, 60, 0
8, 141312, Note_on_c, 6, 59, 96
8, 142336, Note_off_c, 6, 67, 0
8, 142336, Note_off_c, 6, 59, 0
8, 143872, Note_on_c, 6, 62, 96
8, 144384, Note_off_c, 6, 62, 0
8, 144384, Note_on_c, 6, 67, 96
8, 144896, Note_off_c, 6, 67, 0
8, 144896, Note_on_c, 6, 69, 96
8, 145408, Note_off_c, 6, 69, 0
8, 145408, Note_on_c, 6, 71, 96
8, 145664, Note_off_c, 6, 71, 0
8, 145664, Note_on_c, 6, 69, 96
8, 145920, Note_off_c, 6, 69, 0
8, 145920, Note_on_c, 6, 67, 96
8, 145920, Note_on_c, 6, 66, 96
8, 145920, Note_on_c, 6, 62, 96
8, 146176, Note_off_c, 6, 67, 0
8, 146176, Note_on_c, 6, 69, 96
8, 146432, Note_off_c, 6, 69, 0
8, 146432, Note_on_c, 6, 71, 96
8, 146432, Note_off_c, 6, 66, 0
8, 146432, Note_on_c, 6, 67, 96
8, 146432, Note_off_c, 6, 62, 0
8, 146432, Note_on_c, 6, 62, 96
8, 146688, Note_off_c, 6, 71, 0
8, 146688, Note_on_c, 6, 72, 96
8, 146944, Note_off_c, 6, 72, 0
8, 146944, Note_on_c, 6, 71, 96
8, 146944, Note_off_c, 6, 67, 0
8, 146944, Note_on_c, 6, 66, 96
8, 146944, Note_off_c, 6, 62, 0
8, 146944, Note_on_c, 6, 60, 96
8, 147200, Note_off_c, 6, 71, 0
8, 147200, Note_on_c, 6, 72, 96
8, 147456, Note_off_c, 6, 72, 0
8, 147456, Note_off_c, 6, 66, 0
8, 147456, Note_off_c, 6, 60, 0
8, 147456, Note_on_c, 6, 74, 96
8, 147456, Note_on_c, 6, 67, 96
8, 147456, Note_on_c, 6, 59, 96
8, 147712, Note_off_c, 6, 74, 0
8, 147712, Note_on_c, 6, 79, 96
8, 147968, Note_off_c, 6, 79, 0
8, 147968, Note_on_c, 6, 78, 96
8, 147968, Note_off_c, 6, 59, 0
8, 147968, Note_on_c, 6, 57, 96
8, 148224, Note_off_c, 6, 78, 0
8, 148224, Note_on_c, 6, 76, 96
8, 148480, Note_off_c, 6, 76, 0
8, 148480, Note_on_c, 6, 74, 96
8, 148480, Note_off_c, 6, 57, 0
8, 148480, Note_on_c, 6, 57, 96
8, 148736, Note_off_c, 6, 74, 0
8, 148736, Note_on_c, 6, 72, 96
8, 148992, Note_off_c, 6, 72, 0
8, 148992, Note_on_c, 6, 71, 96
8, 148992, Note_off_c, 6, 67, 0
8, 148992, Note_on_c, 6, 66, 96
8, 148992, Note_off_c, 6, 57, 0
8, 148992, Note_on_c, 6, 62, 96
8, 149248, Note_off_c, 6, 71, 0
8, 149248, Note_on_c, 6, 72, 96
8, 149504, Note_off_c, 6, 72, 0
8, 149504, Note_on_c, 6, 71, 96
8, 149760, Note_off_c, 6, 71, 0
8, 149760, Note_on_c, 6, 76, 96
8, 150016, Note_off_c, 6, 76, 0
8, 150016, Note_on_c, 6, 74, 96
8, 150016, Note_off_c, 6, 66, 0
8, 150016, Note_on_c, 6, 64, 96
8, 150016, Note_off_c, 6, 62, 0
8, 150016, Note_on_c, 6, 57, 96
8, 150272, Note_off_c, 6, 74, 0
8, 150272, Note_on_c, 6, 72, 96
8, 150528, Note_off_c, 6, 72, 0
8, 150528, Note_on_c, 6, 71, 96
8, 150528, Note_off_c, 6, 57, 0
8, 150528, Note_on_c, 6, 54, 96
8, 150784, Note_off_c, 6, 71, 0
8, 150784, Note_on_c, 6, 69, 96
8, 151040, Note_off_c, 6, 69, 0
8, 151040, Note_on_c, 6, 67, 96
8, 151040, Note_off_c, 6, 64, 0
8, 151040, Note_on_c, 6, 63, 96
8, 151040, Note_off_c, 6, 54, 0
8, 151040, Note_on_c, 6, 59, 96
8, 151296, Note_off_c, 6, 67, 0
8, 151296, Note_on_c, 6, 69, 96
8, 151552, Note_off_c, 6, 69, 0
8, 151552, Note_off_c, 6, 63, 0
8, 151552, Note_on_c, 6, 67, 96
8, 151552, Note_on_c, 6, 64, 96
8, 151808, Note_off_c, 6, 67, 0
8, 151808, Note_on_c, 6, 72, 96
8, 152064, Note_off_c, 6, 72, 0
8, 152064, Note_on_c, 6, 71, 96
8, 152064, Note_off_c, 6, 64, 0
8, 152064, Note_on_c, 6, 72, 96
8, 152064, Note_off_c, 6, 59, 0
8, 152064, Note_on_c, 6, 62, 96
8, 152320, Note_off_c, 6, 71, 0
8, 152320, Note_on_c, 6, 69, 96
8, 152576, Note_off_c, 6, 69, 0
8, 152576, Note_on_c, 6, 67, 96
8, 152576, Note_off_c, 6, 62, 0
8, 152576, Note_on_c, 6, 64, 96
8, 152832, Note_off_c, 6, 67, 0
8, 152832, Note_on_c, 6, 65, 96
8, 153088, Note_off_c, 6, 65, 0
8, 153088, Note_on_c, 6, 64, 96
8, 153088, Note_off_c, 6, 72, 0
8, 153088, Note_on_c, 6, 71, 96
8, 153088, Note_off_c, 6, 64, 0
8, 153088, Note_on_c, 6, 67, 96
8, 153344, Note_off_c, 6, 64, 0
8, 153344, Note_on_c, 6, 65, 96
8, 153600, Note_off_c, 6, 65, 0
8, 153600, Note_on_c, 6, 64, 96
8, 153856, Note_off_c, 6, 64, 0
8, 153856, Note_on_c, 6, 67, 96
8, 154112, Note_off_c, 6, 67, 0
8, 154112, Note_on_c, 6, 66, 96
8, 154112, Note_off_c, 6, 71, 0
8, 154112, Note_on_c, 6, 69, 96
8, 154112, Note_off_c, 6, 67, 0
8, 154112, Note_on_c, 6, 62, 96
8, 154368, Note_off_c, 6, 66, 0
8, 154368, Note_on_c, 6, 69, 96
8, 154624, Note_off_c, 6, 69, 0
8, 154624, Note_on_c, 6, 67, 96
8, 154624, Note_off_c, 6, 69, 0
8, 154624, Note_on_c, 6, 74, 96
8, 154624, Note_off_c, 6, 62, 0
8, 154624, Note_on_c, 6, 62, 96
8, 154880, Note_off_c, 6, 67, 0
8, 154880, Note_on_c, 6, 79, 96
8, 155136, Note_off_c, 6, 79, 0
8, 155136, Note_on_c, 6, 78, 96
8, 155136, Note_off_c, 6, 74, 0
8, 155136, Note_on_c, 6, 72, 96
8, 155136, Note_off_c, 6, 62, 0
8, 155136, Note_on_c, 6, 66, 96
8, 155392, Note_off_c, 6, 78, 0
8, 155392, Note_on_c, 6, 76, 96
8, 155648, Note_off_c, 6, 76, 0
8, 155648, Note_off_c, 6, 72, 0
8, 155648, Note_off_c, 6, 66, 0
8, 155648, Note_on_c, 6, 74, 96
8, 155648, Note_on_c, 6, 71, 96
8, 155648, Note_on_c, 6, 67, 96
8, 155904, Note_off_c, 6, 74, 0
8, 155904, Note_on_c, 6, 72, 96
8, 156160, Note_off_c, 6, 72, 0
8, 156160, Note_on_c, 6, 71, 96
8, 156160, Note_off_c, 6, 71, 0
8, 156160, Note_on_c, 6, 67, 96
8, 156160, Note_off_c, 6, 67, 0
8, 156160, Note_on_c, 6, 55, 96
8, 156416, Note_off_c, 6, 71, 0
8, 156416, Note_on_c, 6, 72, 96
8, 156544, Note_off_c, 6, 72, 0
8, 156544, Note_on_c, 6, 74, 96
8, 156672, Note_off_c, 6, 74, 0
8, 156672, Note_on_c, 6, 69, 96
8, 156672, Note_off_c, 6, 67, 0
8, 156672, Note_on_c, 6, 67, 96
8, 156672, Note_off_c, 6, 55, 0
8, 156672, Note_on_c, 6, 62, 96
8, 157184, Note_off_c, 6, 67, 0
8, 157184, Note_on_c, 6, 66, 96
8, 157184, Note_off_c, 6, 62, 0
8, 157184, Note_on_c, 6, 57, 96
8, 157440, Note_off_c, 6, 69, 0
8, 157440, Note_on_c, 6, 67, 96
8, 157696, Note_off_c, 6, 67, 0
8, 157696, Note_on_c, 6, 67, 96
8, 157696, Note_off_c, 6, 66, 0
8, 157696, Note_on_c, 6, 62, 96
8, 157696, Note_off_c, 6, 57, 0
8, 157696, Note_on_c, 6, 59, 96
8, 161792, Note_off_c, 6, 67, 0
8, 161792, Note_off_c, 6, 62, 0
8, 161792, Note_off_c, 6, 59, 0
8, 161792, End_track
9, 0, Start_track
9, 0, Title_t, "Instrument 8"
9, 0, Note_on_c, 7, 43, 96
9, 0, Note_on_c, 7, 43, 96
9, 1024, Note_off_c, 7, 43, 0
9, 1024, Note_off_c, 7, 43, 0
9, 2048, Note_on_c, 7, 43, 96
9, 2048, Note_on_c, 7, 43, 96
9, 3072, Note_off_c, 7, 43, 0
9, 3072, Note_off_c, 7, 43, 0
9, 4096, Note_on_c, 7, 43, 96
9, 4096, Note_on_c, 7, 43, 96
9, 5120, Note_off_c, 7, 43, 0
9, 5120, Note_off_c, 7, 43, 0
9, 6656, Note_on_c, 7, 50, 96
9, 6656, Note_on_c, 7, 50, 96
9, 7168, Note_off_c, 7, 50, 0
9, 7168, Note_on_c, 7, 43, 96
9, 7168, Note_off_c, 7, 50, 0
9, 7168, Note_on_c, 7, 55, 96
9, 7680, Note_off_c, 7, 43, 0
9, 7680, Note_on_c, 7, 50, 96
9, 7680, Note_off_c, 7, 55, 0
9, 7680, Note_on_c, 7, 57, 96
9, 8192, Note_off_c, 7, 50, 0
9, 8192, Note_off_c, 7, 57, 0
9, 8192, Note_on_c, 7, 43, 96
9, 8192, Note_on_c, 7, 59, 96
9, 8704, Note_off_c, 7, 43, 0
9, 8704, Note_off_c, 7, 59, 0
9, 8704, Note_on_c, 7, 60, 96
9, 9216, Note_off_c, 7, 60, 0
9, 9216, Note_on_c, 7, 62, 96
9, 9728, Note_on_c, 7, 50, 96
9, 9728, Note_off_c, 7, 62, 0
9, 9728, Note_on_c, 7, 50, 96
9, 10240, Note_off_c, 7, 50, 0
9, 10240, Note_on_c, 7, 43, 96
9, 10240, Note_off_c, 7, 50, 0
9, 10240, Note_on_c, 7, 55, 96
9, 10752, Note_off_c, 7, 43, 0
9, 10752, Note_off_c, 7, 55, 0
9, 10752, Note_on_c, 7, 57, 96
9, 11264, Note_off_c, 7, 57, 0
9, 11264, Note_on_c, 7, 59, 96
9, 11776, Note_off_c, 7, 59, 0
9, 11776, Note_on_c, 7, 47, 96
9, 12288, Note_off_c, 7, 47, 0
9, 12288, Note_on_c, 7, 52, 96
9, 12800, Note_off_c, 7, 52, 0
9, 12800, Note_on_c, 7, 53, 96
9, 13312, Note_off_c, 7, 53, 0
9, 13312, Note_on_c, 7, 55, 96
9, 13824, Note_off_c, 7, 55, 0
9, 13824, Note_on_c, 7, 43, 96
9, 14336, Note_off_c, 7, 43, 0
9, 14336, Note_on_c, 7, 48, 96
9, 14848, Note_off_c, 7, 48, 0
9, 14848, Note_on_c, 7, 60, 96
9, 15360, Note_off_c, 7, 60, 0
9, 15360, Note_on_c, 7, 59, 96
9, 15872, Note_off_c, 7, 59, 0
9, 15872, Note_on_c, 7, 57, 96
9, 16384, Note_off_c, 7, 57, 0
9, 16384, Note_on_c, 7, 59, 96
9, 16896, Note_on_c, 7, 43, 96
9, 16896, Note_off_c, 7, 59, 0
9, 16896, Note_on_c, 7, 60, 96
9, 17408, Note_off_c, 7, 43, 0
9, 17408, Note_on_c, 7, 50, 96
9, 17408, Note_off_c, 7, 60, 0
9, 17408, Note_on_c, 7, 62, 96
9, 17664, Note_off_c, 7, 50, 0
9, 17664, Note_on_c, 7, 50, 96
9, 17920, Note_off_c, 7, 50, 0
9, 17920, Note_on_c, 7, 50, 96
9, 17920, Note_off_c, 7, 62, 0
9, 17920, Note_on_c, 7, 50, 96
9, 18176, Note_off_c, 7, 50, 0
9, 18176, Note_on_c, 7, 50, 96
9, 18432, Note_off_c, 7, 50, 0
9, 18432, Note_on_c, 7, 43, 96
9, 18432, Note_off_c, 7, 50, 0
9, 18432, Note_on_c, 7, 43, 96
9, 18944, Note_off_c, 7, 43, 0
9, 18944, Note_on_c, 7, 50, 96
9, 19456, Note_off_c, 7, 43, 0
9, 19456, Note_off_c, 7, 50, 0
9, 19456, Note_on_c, 7, 55, 96
9, 19968, Note_off_c, 7, 55, 0
9, 19968, Note_on_c, 7, 54, 96
9, 20480, Note_off_c, 7, 54, 0
9, 20480, Note_on_c, 7, 52, 96
9, 20992, Note_off_c, 7, 52, 0
9, 20992, Note_on_c, 7, 50, 96
9, 21504, Note_off_c, 7, 50, 0
9, 21504, Note_on_c, 7, 48, 96
9, 22016, Note_off_c, 7, 48, 0
9, 22016, Note_on_c, 7, 50, 96
9, 22528, Note_on_c, 7, 43, 96
9, 22528, Note_off_c, 7, 50, 0
9, 22528, Note_on_c, 7, 43, 96
9, 23040, Note_off_c, 7, 43, 0
9, 23040, Note_on_c, 7, 55, 96
9, 23552, Note_off_c, 7, 43, 0
9, 23552, Note_off_c, 7, 55, 0
9, 23552, Note_on_c, 7, 52, 96
9, 24064, Note_off_c, 7, 52, 0
9, 24064, Note_on_c, 7, 48, 96
9, 24576, Note_off_c, 7, 48, 0
9, 24576, Note_on_c, 7, 55, 96
9, 25088, Note_on_c, 7, 43, 96
9, 25088, Note_off_c, 7, 55, 0
9, 25088, Note_on_c, 7, 47, 96
9, 25344, Note_off_c, 7, 47, 0
9, 25344, Note_on_c, 7, 48, 96
9, 25600, Note_off_c, 7, 43, 0
9, 25600, Note_on_c, 7, 50, 96
9, 25600, Note_off_c, 7, 48, 0
9, 25600, Note_on_c, 7, 50, 96
9, 26112, Note_off_c, 7, 50, 0
9, 26112, Note_on_c, 7, 50, 96
9, 26112, Note_off_c, 7, 50, 0
9, 26112, Note_on_c, 7, 38, 96
9, 26624, Note_off_c, 7, 50, 0
9, 26624, Note_on_c, 7, 43, 96
9, 26624, Note_off_c, 7, 38, 0
9, 26624, Note_on_c, 7, 43, 96
9, 27136, Note_off_c, 7, 43, 0
9, 27136, Note_off_c, 7, 43, 0
9, 27136, Note_on_c, 7, 55, 96
9, 27648, Note_off_c, 7, 55, 0
9, 27648, Note_on_c, 7, 54, 96
9, 28160, Note_on_c, 7, 50, 96
9, 28160, Note_off_c, 7, 54, 0
9, 28160, Note_on_c, 7, 50, 96
9, 28672, Note_off_c, 7, 50, 0
9, 28672, Note_off_c, 7, 50, 0
9, 28672, Note_on_c, 7, 43, 96
9, 28672, Note_on_c, 7, 55, 96
9, 29184, Note_off_c, 7, 43, 0
9, 29184, Note_off_c, 7, 55, 0
9, 29184, Note_on_c, 7, 57, 96
9, 29696, Note_off_c, 7, 57, 0
9, 29696, Note_on_c, 7, 59, 96
9, 30208, Note_off_c, 7, 59, 0
9, 30208, Note_on_c, 7, 47, 96
9, 30720, Note_off_c, 7, 47, 0
9, 30720, Note_on_c, 7, 52, 96
9, 31232, Note_off_c, 7, 52, 0
9, 31232, Note_on_c, 7, 53, 96
9, 31744, Note_off_c, 7, 53, 0
9, 31744, Note_on_c, 7, 55, 96
9, 32256, Note_off_c, 7, 55, 0
9, 32256, Note_on_c, 7, 43, 96
9, 32768, Note_off_c, 7, 43, 0
9, 32768, Note_on_c, 7, 48, 96
9, 33280, Note_off_c, 7, 48, 0
9, 33280, Note_on_c, 7, 50, 96
9, 33792, Note_off_c, 7, 50, 0
9, 33792, Note_on_c, 7, 52, 96
9, 34304, Note_off_c, 7, 52, 0
9, 34304, Note_on_c, 7, 54, 96
9, 34816, Note_off_c, 7, 54, 0
9, 34816, Note_on_c, 7, 55, 96
9, 35328, Note_off_c, 7, 55, 0
9, 35328, Note_on_c, 7, 47, 96
9, 35840, Note_off_c, 7, 47, 0
9, 35840, Note_on_c, 7, 48, 96
9, 36352, Note_off_c, 7, 48, 0
9, 36352, Note_on_c, 7, 50, 96
9, 36864, Note_off_c, 7, 50, 0
9, 36864, Note_on_c, 7, 52, 96
9, 37376, Note_off_c, 7, 52, 0
9, 37376, Note_on_c, 7, 54, 96
9, 37888, Note_on_c, 7, 43, 96
9, 37888, Note_off_c, 7, 54, 0
9, 37888, Note_on_c, 7, 55, 96
9, 38400, Note_off_c, 7, 43, 0
9, 38400, Note_off_c, 7, 55, 0
9, 38400, Note_on_c, 7, 52, 96
9, 38912, Note_off_c, 7, 52, 0
9, 38912, Note_on_c, 7, 48, 96
9, 39424, Note_off_c, 7, 48, 0
9, 39424, Note_on_c, 7, 45, 96
9, 39936, Note_on_c, 7, 50, 96
9, 39936, Note_off_c, 7, 45, 0
9, 39936, Note_on_c, 7, 50, 96
9, 40192, Note_off_c, 7, 50, 0
9, 40192, Note_on_c, 7, 50, 96
9, 40448, Note_off_c, 7, 50, 0
9, 40448, Note_on_c, 7, 50, 96
9, 40448, Note_off_c, 7, 50, 0
9, 40448, Note_on_c, 7, 38, 96
9, 40704, Note_off_c, 7, 50, 0
9, 40704, Note_on_c, 7, 50, 96
9, 40960, Note_off_c, 7, 50, 0
9, 40960, Note_off_c, 7, 38, 0
9, 40960, Note_on_c, 7, 43, 96
9, 40960, Note_on_c, 7, 43, 96
9, 41984, Note_off_c, 7, 43, 0
9, 41984, Note_off_c, 7, 43, 0
9, 43008, Note_on_c, 7, 43, 96
9, 43008, Note_on_c, 7, 43, 96
9, 44032, Note_off_c, 7, 43, 0
9, 44032, Note_off_c, 7, 43, 0
9, 45056, Note_on_c, 7, 43, 96
9, 46080, Note_off_c, 7, 43, 0
9, 46080, Note_on_c, 7, 43, 96
9, 47104, Note_off_c, 7, 43, 0
9, 47616, Note_on_c, 7, 50, 96
9, 47616, Note_on_c, 7, 50, 96
9, 48128, Note_off_c, 7, 50, 0
9, 48128, Note_on_c, 7, 43, 96
9, 48128, Note_off_c, 7, 50, 0
9, 48128, Note_on_c, 7, 55, 96
9, 48640, Note_off_c, 7, 43, 0
9, 48640, Note_on_c, 7, 50, 96
9, 48640, Note_off_c, 7, 55, 0
9, 48640, Note_on_c, 7, 57, 96
9, 49152, Note_off_c, 7, 50, 0
9, 49152, Note_off_c, 7, 57, 0
9, 49152, Note_on_c, 7, 43, 96
9, 49152, Note_on_c, 7, 59, 96
9, 49664, Note_off_c, 7, 43, 0
9, 49664, Note_off_c, 7, 59, 0
9, 49664, Note_on_c, 7, 60, 96
9, 50176, Note_off_c, 7, 60, 0
9, 50176, Note_on_c, 7, 62, 96
9, 50688, Note_on_c, 7, 50, 96
9, 50688, Note_off_c, 7, 62, 0
9, 50688, Note_on_c, 7, 50, 96
9, 51200, Note_off_c, 7, 50, 0
9, 51200, Note_on_c, 7, 43, 96
9, 51200, Note_off_c, 7, 50, 0
9, 51200, Note_on_c, 7, 55, 96
9, 51712, Note_off_c, 7, 43, 0
9, 51712, Note_off_c, 7, 55, 0
9, 51712, Note_on_c, 7, 57, 96
9, 52224, Note_off_c, 7, 57, 0
9, 52224, Note_on_c, 7, 59, 96
9, 52736, Note_off_c, 7, 59, 0
9, 52736, Note_on_c, 7, 47, 96
9, 53248, Note_off_c, 7, 47, 0
9, 53248, Note_on_c, 7, 52, 96
9, 53760, Note_off_c, 7, 52, 0
9, 53760, Note_on_c, 7, 53, 96
9, 54272, Note_off_c, 7, 53, 0
9, 54272, Note_on_c, 7, 55, 96
9, 54784, Note_off_c, 7, 55, 0
9, 54784, Note_on_c, 7, 43, 96
9, 55296, Note_off_c, 7, 43, 0
9, 55296, Note_on_c, 7, 48, 96
9, 55808, Note_off_c, 7, 48, 0
9, 55808, Note_on_c, 7, 60, 96
9, 56320, Note_off_c, 7, 60, 0
9, 56320, Note_on_c, 7, 59, 96
9, 56832, Note_off_c, 7, 59, 0
9, 56832, Note_on_c, 7, 57, 96
9, 57344, Note_off_c, 7, 57, 0
9, 57344, Note_on_c, 7, 59, 96
9, 57856, Note_on_c, 7, 43, 96
9, 57856, Note_off_c, 7, 59, 0
9, 57856, Note_on_c, 7, 60, 96
9, 58368, Note_off_c, 7, 43, 0
9, 58368, Note_on_c, 7, 50, 96
9, 58368, Note_off_c, 7, 60, 0
9, 58368, Note_on_c, 7, 62, 96
9, 58624, Note_off_c, 7, 50, 0
9, 58624, Note_on_c, 7, 50, 96
9, 58880, Note_off_c, 7, 50, 0
9, 58880, Note_on_c, 7, 50, 96
9, 58880, Note_off_c, 7, 62, 0
9, 58880, Note_on_c, 7, 50, 96
9, 59136, Note_off_c, 7, 50, 0
9, 59136, Note_on_c, 7, 50, 96
9, 59392, Note_off_c, 7, 50, 0
9, 59392, Note_on_c, 7, 43, 96
9, 59392, Note_off_c, 7, 50, 0
9, 59392, Note_on_c, 7, 43, 96
9, 59904, Note_off_c, 7, 43, 0
9, 59904, Note_on_c, 7, 50, 96
9, 60416, Note_off_c, 7, 50, 0
9, 60416, Note_on_c, 7, 55, 96
9, 60928, Note_off_c, 7, 43, 0
9, 60928, Note_off_c, 7, 55, 0
9, 60928, Note_on_c, 7, 54, 96
9, 61440, Note_off_c, 7, 54, 0
9, 61440, Note_on_c, 7, 52, 96
9, 61952, Note_off_c, 7, 52, 0
9, 61952, Note_on_c, 7, 50, 96
9, 62464, Note_off_c, 7, 50, 0
9, 62464, Note_on_c, 7, 48, 96
9, 62976, Note_off_c, 7, 48, 0
9, 62976, Note_on_c, 7, 50, 96
9, 63488, Note_on_c, 7, 43, 96
9, 63488, Note_off_c, 7, 50, 0
9, 63488, Note_on_c, 7, 43, 96
9, 64000, Note_off_c, 7, 43, 0
9, 64000, Note_on_c, 7, 55, 96
9, 64512, Note_off_c, 7, 43, 0
9, 64512, Note_off_c, 7, 55, 0
9, 64512, Note_on_c, 7, 52, 96
9, 65024, Note_off_c, 7, 52, 0
9, 65024, Note_on_c, 7, 48, 96
9, 65536, Note_off_c, 7, 48, 0
9, 65536, Note_on_c, 7, 55, 96
9, 66048, Note_on_c, 7, 43, 96
9, 66048, Note_off_c, 7, 55, 0
9, 66048, Note_on_c, 7, 47, 96
9, 66304, Note_off_c, 7, 47, 0
9, 66304, Note_on_c, 7, 48, 96
9, 66560, Note_off_c, 7, 43, 0
9, 66560, Note_on_c, 7, 50, 96
9, 66560, Note_off_c, 7, 48, 0
9, 66560, Note_on_c, 7, 50, 96
9, 67072, Note_off_c, 7, 50, 0
9, 67072, Note_on_c, 7, 50, 96
9, 67072, Note_off_c, 7, 50, 0
9, 67072, Note_on_c, 7, 38, 96
9, 67584, Note_off_c, 7, 50, 0
9, 67584, Note_on_c, 7, 43, 96
9, 67584, Note_off_c, 7, 38, 0
9, 67584, Note_on_c, 7, 43, 96
9, 68096, Note_off_c, 7, 43, 0
9, 68096, Note_off_c, 7, 43, 0
9, 68096, Note_on_c, 7, 55, 96
9, 68608, Note_off_c, 7, 55, 0
9, 68608, Note_on_c, 7, 54, 96
9, 69120, Note_on_c, 7, 50, 96
9, 69120, Note_off_c, 7, 54, 0
9, 69120, Note_on_c, 7, 50, 96
9, 69632, Note_off_c, 7, 50, 0
9, 69632, Note_off_c, 7, 50, 0
9, 69632, Note_on_c, 7, 43, 96
9, 69632, Note_on_c, 7, 55, 96
9, 70144, Note_off_c, 7, 43, 0
9, 70144, Note_off_c, 7, 55, 0
9, 70144, Note_on_c, 7, 57, 96
9, 70656, Note_off_c, 7, 57, 0
9, 70656, Note_on_c, 7, 59, 96
9, 71168, Note_off_c, 7, 59, 0
9, 71168, Note_on_c, 7, 47, 96
9, 71680, Note_off_c, 7, 47, 0
9, 71680, Note_on_c, 7, 52, 96
9, 72192, Note_off_c, 7, 52, 0
9, 72192, Note_on_c, 7, 53, 96
9, 72704, Note_off_c, 7, 53, 0
9, 72704, Note_on_c, 7, 55, 96
9, 73216, Note_off_c, 7, 55, 0
9, 73216, Note_on_c, 7, 43, 96
9, 73728, Note_off_c, 7, 43, 0
9, 73728, Note_on_c, 7, 48, 96
9, 74240, Note_off_c, 7, 48, 0
9, 74240, Note_on_c, 7, 50, 96
9, 74752, Note_off_c, 7, 50, 0
9, 74752, Note_on_c, 7, 52, 96
9, 75264, Note_off_c, 7, 52, 0
9, 75264, Note_on_c, 7, 54, 96
9, 75776, Note_off_c, 7, 54, 0
9, 75776, Note_on_c, 7, 55, 96
9, 76288, Note_off_c, 7, 55, 0
9, 76288, Note_on_c, 7, 47, 96
9, 76800, Note_off_c, 7, 47, 0
9, 76800, Note_on_c, 7, 48, 96
9, 77312, Note_off_c, 7, 48, 0
9, 77312, Note_on_c, 7, 50, 96
9, 77824, Note_off_c, 7, 50, 0
9, 77824, Note_on_c, 7, 52, 96
9, 78336, Note_off_c, 7, 52, 0
9, 78336, Note_on_c, 7, 54, 96
9, 78848, Note_on_c, 7, 43, 96
9, 78848, Note_off_c, 7, 54, 0
9, 78848, Note_on_c, 7, 55, 96
9, 79360, Note_off_c, 7, 43, 0
9, 79360, Note_off_c, 7, 55, 0
9, 79360, Note_on_c, 7, 52, 96
9, 79872, Note_off_c, 7, 52, 0
9, 79872, Note_on_c, 7, 48, 96
9, 80384, Note_off_c, 7, 48, 0
9, 80384, Note_on_c, 7, 45, 96
9, 80896, Note_on_c, 7, 50, 96
9, 80896, Note_off_c, 7, 45, 0
9, 80896, Note_on_c, 7, 50, 96
9, 81152, Note_off_c, 7, 50, 0
9, 81152, Note_on_c, 7, 50, 96
9, 81408, Note_off_c, 7, 50, 0
9, 81408, Note_on_c, 7, 50, 96
9, 81408, Note_off_c, 7, 50, 0
9, 81408, Note_on_c, 7, 38, 96
9, 81664, Note_off_c, 7, 50, 0
9, 81664, Note_on_c, 7, 50, 96
9, 81920, Note_off_c, 7, 50, 0
9, 81920, Note_off_c, 7, 38, 0
9, 81920, Note_on_c, 7, 43, 96
9, 81920, Note_on_c, 7, 43, 96
9, 82944, Note_off_c, 7, 43, 0
9, 82944, Note_off_c, 7, 43, 0
9, 83968, Note_on_c, 7, 43, 96
9, 83968, Note_on_c, 7, 43, 96
9, 84992, Note_off_c, 7, 43, 0
9, 84992, Note_off_c, 7, 43, 0
9, 86016, Note_on_c, 7, 43, 96
9, 86016, Note_on_c, 7, 43, 96
9, 87040, Note_off_c, 7, 43, 0
9, 87040, Note_off_c, 7, 43, 0
9, 88576, Note_on_c, 7, 50, 96
9, 88576, Note_on_c, 7, 50, 96
9, 89088, Note_off_c, 7, 50, 0
9, 89088, Note_on_c, 7, 43, 96
9, 89088, Note_off_c, 7, 50, 0
9, 89088, Note_on_c, 7, 55, 96
9, 89600, Note_off_c, 7, 43, 0
9, 89600, Note_on_c, 7, 50, 96
9, 89600, Note_off_c, 7, 55, 0
9, 89600, Note_on_c, 7, 57, 96
9, 90112, Note_off_c, 7, 50, 0
9, 90112, Note_off_c, 7, 57, 0
9, 90112, Note_on_c, 7, 43, 96
9, 90112, Note_on_c, 7, 59, 96
9, 90624, Note_off_c, 7, 43, 0
9, 90624, Note_off_c, 7, 59, 0
9, 90624, Note_on_c, 7, 60, 96
9, 91136, Note_off_c, 7, 60, 0
9, 91136, Note_on_c, 7, 62, 96
9, 91648, Note_on_c, 7, 50, 96
9, 91648, Note_off_c, 7, 62, 0
9, 91648, Note_on_c, 7, 50, 96
9, 92160, Note_off_c, 7, 50, 0
9, 92160, Note_on_c, 7, 43, 96
9, 92160, Note_off_c, 7, 50, 0
9, 92160, Note_on_c, 7, 55, 96
9, 92672, Note_off_c, 7, 43, 0
9, 92672, Note_off_c, 7, 55, 0
9, 92672, Note_on_c, 7, 57, 96
9, 93184, Note_off_c, 7, 57, 0
9, 93184, Note_on_c, 7, 59, 96
9, 93696, Note_off_c, 7, 59, 0
9, 93696, Note_on_c, 7, 47, 96
9, 94208, Note_off_c, 7, 47, 0
9, 94208, Note_on_c, 7, 52, 96
9, 94720, Note_off_c, 7, 52, 0
9, 94720, Note_on_c, 7, 53, 96
9, 95232, Note_off_c, 7, 53, 0
9, 95232, Note_on_c, 7, 55, 96
9, 95744, Note_off_c, 7, 55, 0
9, 95744, Note_on_c, 7, 43, 96
9, 96256, Note_off_c, 7, 43, 0
9, 96256, Note_on_c, 7, 48, 96
9, 96768, Note_off_c, 7, 48, 0
9, 96768, Note_on_c, 7, 50, 96
9, 97280, Note_off_c, 7, 50, 0
9, 97280, Note_on_c, 7, 52, 96
9, 97792, Note_off_c, 7, 52, 0
9, 97792, Note_on_c, 7, 49, 96
9, 98304, Note_off_c, 7, 49, 0
9, 98304, Note_on_c, 7, 50, 96
9, 98816, Note_on_c, 7, 50, 96
9, 98816, Note_off_c, 7, 50, 0
9, 98816, Note_on_c, 7, 38, 96
9, 99072, Note_off_c, 7, 50, 0
9, 99072, Note_on_c, 7, 50, 96
9, 99328, Note_off_c, 7, 50, 0
9, 99328, Note_on_c, 7, 50, 96
9, 99328, Note_off_c, 7, 38, 0
9, 99328, Note_on_c, 7, 50, 96
9, 99840, Note_off_c, 7, 50, 0
9, 99840, Note_on_c, 7, 50, 96
9, 99840, Note_off_c, 7, 50, 0
9, 99840, Note_on_c, 7, 48, 96
9, 100352, Note_off_c, 7, 50, 0
9, 100352, Note_on_c, 7, 43, 96
9, 100352, Note_off_c, 7, 48, 0
9, 100352, Note_on_c, 7, 47, 96
9, 100864, Note_off_c, 7, 47, 0
9, 100864, Note_on_c, 7, 48, 96
9, 101376, Note_off_c, 7, 43, 0
9, 101376, Note_off_c, 7, 48, 0
9, 101376, Note_on_c, 7, 50, 96
9, 101888, Note_off_c, 7, 50, 0
9, 101888, Note_on_c, 7, 47, 96
9, 102400, Note_off_c, 7, 47, 0
9, 102400, Note_on_c, 7, 48, 96
9, 102912, Note_off_c, 7, 48, 0
9, 102912, Note_on_c, 7, 36, 96
9, 103424, Note_off_c, 7, 36, 0
9, 103424, Note_on_c, 7, 43, 96
9, 103936, Note_off_c, 7, 43, 0
9, 103936, Note_on_c, 7, 52, 96
9, 104448, Note_off_c, 7, 52, 0
9, 104448, Note_on_c, 7, 49, 96
9, 104960, Note_off_c, 7, 49, 0
9, 104960, Note_on_c, 7, 50, 96
9, 105472, Note_off_c, 7, 50, 0
9, 105472, Note_on_c, 7, 47, 96
9, 105984, Note_off_c, 7, 47, 0
9, 105984, Note_on_c, 7, 49, 96
9, 106496, Note_off_c, 7, 49, 0
9, 106496, Note_on_c, 7, 50, 96
9, 107008, Note_on_c, 7, 50, 96
9, 107008, Note_off_c, 7, 50, 0
9, 107008, Note_on_c, 7, 45, 96
9, 107520, Note_off_c, 7, 50, 0
9, 107520, Note_on_c, 7, 50, 96
9, 107520, Note_off_c, 7, 45, 0
9, 107520, Note_on_c, 7, 42, 96
9, 107776, Note_off_c, 7, 50, 0
9, 107776, Note_on_c, 7, 50, 96
9, 108032, Note_off_c, 7, 50, 0
9, 108032, Note_on_c, 7, 50, 96
9, 108032, Note_off_c, 7, 42, 0
9, 108032, Note_on_c, 7, 38, 96
9, 108544, Note_off_c, 7, 50, 0
9, 108544, Note_off_c, 7, 38, 0
9, 108544, Note_on_c, 7, 45, 96
9, 109056, Note_off_c, 7, 45, 0
9, 109056, Note_on_c, 7, 43, 96
9, 109568, Note_off_c, 7, 43, 0
9, 109568, Note_on_c, 7, 45, 96
9, 110080, Note_off_c, 7, 45, 0
9, 110080, Note_on_c, 7, 57, 96
9, 110592, Note_off_c, 7, 57, 0
9, 110592, Note_on_c, 7, 50, 96
9, 111104, Note_off_c, 7, 50, 0
9, 111104, Note_on_c, 7, 52, 96
9, 111616, Note_off_c, 7, 52, 0
9, 111616, Note_on_c, 7, 54, 96
9, 112128, Note_off_c, 7, 54, 0
9, 112128, Note_on_c, 7, 42, 96
9, 112640, Note_off_c, 7, 42, 0
9, 112640, Note_on_c, 7, 47, 96
9, 113152, Note_off_c, 7, 47, 0
9, 113152, Note_on_c, 7, 48, 96
9, 113664, Note_off_c, 7, 48, 0
9, 113664, Note_on_c, 7, 50, 96
9, 114176, Note_off_c, 7, 50, 0
9, 114176, Note_on_c, 7, 38, 96
9, 114688, Note_off_c, 7, 38, 0
9, 114688, Note_on_c, 7, 43, 96
9, 115200, Note_off_c, 7, 43, 0
9, 115200, Note_on_c, 7, 45, 96
9, 115712, Note_off_c, 7, 45, 0
9, 115712, Note_on_c, 7, 47, 96
9, 116224, Note_off_c, 7, 47, 0
9, 116224, Note_on_c, 7, 49, 96
9, 116736, Note_off_c, 7, 49, 0
9, 116736, Note_on_c, 7, 50, 96
9, 117248, Note_off_c, 7, 50, 0
9, 117248, Note_on_c, 7, 55, 96
9, 117760, Note_off_c, 7, 55, 0
9, 117760, Note_on_c, 7, 57, 96
9, 118272, Note_off_c, 7, 57, 0
9, 118272, Note_on_c, 7, 45, 96
9, 118784, Note_off_c, 7, 45, 0
9, 118784, Note_on_c, 7, 50, 96
9, 119296, Note_on_c, 7, 50, 96
9, 119296, Note_off_c, 7, 50, 0
9, 119296, Note_on_c, 7, 52, 96
9, 119552, Note_off_c, 7, 50, 0
9, 119552, Note_on_c, 7, 50, 96
9, 119808, Note_off_c, 7, 50, 0
9, 119808, Note_on_c, 7, 50, 96
9, 119808, Note_off_c, 7, 52, 0
9, 119808, Note_on_c, 7, 54, 96
9, 120320, Note_off_c, 7, 50, 0
9, 120320, Note_on_c, 7, 50, 96
9, 120320, Note_off_c, 7, 54, 0
9, 120320, Note_on_c, 7, 50, 96
9, 120832, Note_off_c, 7, 50, 0
9, 120832, Note_on_c, 7, 43, 96
9, 120832, Note_off_c, 7, 50, 0
9, 120832, Note_on_c, 7, 55, 96
9, 121344, Note_off_c, 7, 43, 0
9, 121344, Note_off_c, 7, 55, 0
9, 121344, Note_on_c, 7, 57, 96
9, 121856, Note_off_c, 7, 57, 0
9, 121856, Note_on_c, 7, 59, 96
9, 122368, Note_on_c, 7, 50, 96
9, 122368, Note_off_c, 7, 59, 0
9, 122368, Note_on_c, 7, 50, 96
9, 122880, Note_off_c, 7, 50, 0
9, 122880, Note_off_c, 7, 50, 0
9, 122880, Note_on_c, 7, 43, 96
9, 122880, Note_on_c, 7, 52, 96
9, 123392, Note_off_c, 7, 43, 0
9, 123392, Note_off_c, 7, 52, 0
9, 123392, Note_on_c, 7, 54, 96
9, 123904, Note_off_c, 7, 54, 0
9, 123904, Note_on_c, 7, 55, 96
9, 124416, Note_off_c, 7, 55, 0
9, 124416, Note_on_c, 7, 47, 96
9, 124928, Note_off_c, 7, 47, 0
9, 124928, Note_on_c, 7, 48, 96
9, 125440, Note_off_c, 7, 48, 0
9, 125440, Note_on_c, 7, 45, 96
9, 125952, Note_on_c, 7, 50, 96
9, 125952, Note_off_c, 7, 45, 0
9, 125952, Note_on_c, 7, 50, 96
9, 126208, Note_off_c, 7, 50, 0
9, 126208, Note_on_c, 7, 50, 96
9, 126464, Note_off_c, 7, 50, 0
9, 126464, Note_on_c, 7, 50, 96
9, 126464, Note_off_c, 7, 50, 0
9, 126464, Note_on_c, 7, 38, 96
9, 126720, Note_off_c, 7, 50, 0
9, 126720, Note_on_c, 7, 50, 96
9, 126976, Note_off_c, 7, 50, 0
9, 126976, Note_off_c, 7, 38, 0
9, 126976, Note_on_c, 7, 43, 96
9, 126976, Note_on_c, 7, 43, 96
9, 128000, Note_off_c, 7, 43, 0
9, 128000, Note_off_c, 7, 43, 0
9, 129024, Note_on_c, 7, 43, 96
9, 130048, Note_off_c, 7, 43, 0
9, 131072, Note_on_c, 7, 43, 96
9, 131072, Note_on_c, 7, 43, 96
9, 131584, Note_off_c, 7, 43, 0
9, 131584, Note_on_c, 7, 62, 96
9, 132096, Note_off_c, 7, 43, 0
9, 132096, Note_off_c, 7, 62, 0
9, 132096, Note_on_c, 7, 59, 96
9, 132608, Note_off_c, 7, 59, 0
9, 132608, Note_on_c, 7, 55, 96
9, 133120, Note_on_c, 7, 43, 96
9, 133120, Note_off_c, 7, 55, 0
9, 133120, Note_on_c, 7, 50, 96
9, 133632, Note_off_c, 7, 50, 0
9, 133632, Note_on_c, 7, 59, 96
9, 134144, Note_off_c, 7, 43, 0
9, 134144, Note_off_c, 7, 59, 0
9, 134144, Note_on_c, 7, 55, 96
9, 134656, Note_off_c, 7, 55, 0
9, 134656, Note_on_c, 7, 50, 96
9, 135168, Note_off_c, 7, 50, 0
9, 135168, Note_on_c, 7, 43, 96
9, 135168, Note_on_c, 7, 47, 96
9, 135680, Note_off_c, 7, 47, 0
9, 135680, Note_on_c, 7, 55, 96
9, 136192, Note_off_c, 7, 43, 0
9, 136192, Note_off_c, 7, 55, 0
9, 136192, Note_on_c, 7, 50, 96
9, 136704, Note_off_c, 7, 50, 0
9, 136704, Note_on_c, 7, 47, 96
9, 137216, Note_off_c, 7, 47, 0
9, 137216, Note_on_c, 7, 43, 96
9, 137728, Note_on_c, 7, 43, 96
9, 137728, Note_off_c, 7, 43, 0
9, 137728, Note_on_c, 7, 43, 96
9, 138240, Note_off_c, 7, 43, 0
9, 138240, Note_on_c, 7, 43, 96
9, 138240, Note_off_c, 7, 43, 0
9, 138240, Note_on_c, 7, 43, 96
9, 138752, Note_off_c, 7, 43, 0
9, 138752, Note_on_c, 7, 43, 96
9, 138752, Note_off_c, 7, 43, 0
9, 138752, Note_on_c, 7, 43, 96
9, 139264, Note_off_c, 7, 43, 0
9, 139264, Note_off_c, 7, 43, 0
9, 139264, Note_on_c, 7, 43, 96
9, 139264, Note_on_c, 7, 43, 96
9, 140288, Note_off_c, 7, 43, 0
9, 140288, Note_off_c, 7, 43, 0
9, 141312, Note_on_c, 7, 43, 96
9, 141312, Note_on_c, 7, 43, 96
9, 142336, Note_off_c, 7, 43, 0
9, 142336, Note_off_c, 7, 43, 0
9, 143360, Note_on_c, 7, 43, 96
9, 143360, Note_on_c, 7, 43, 96
9, 144384, Note_off_c, 7, 43, 0
9, 144384, Note_off_c, 7, 43, 0
9, 145920, Note_on_c, 7, 50, 96
9, 145920, Note_on_c, 7, 50, 96
9, 146432, Note_off_c, 7, 50, 0
9, 146432, Note_on_c, 7, 43, 96
9, 146432, Note_off_c, 7, 50, 0
9, 146432, Note_on_c, 7, 55, 96
9, 146944, Note_off_c, 7, 43, 0
9, 146944, Note_on_c, 7, 50, 96
9, 146944, Note_off_c, 7, 55, 0
9, 146944, Note_on_c, 7, 57, 96
9, 147456, Note_off_c, 7, 50, 0
9, 147456, Note_off_c, 7, 57, 0
9, 147456, Note_on_c, 7, 43, 96
9, 147456, Note_on_c, 7, 59, 96
9, 147968, Note_off_c, 7, 43, 0
9, 147968, Note_off_c, 7, 59, 0
9, 147968, Note_on_c, 7, 60, 96
9, 148480, Note_off_c, 7, 60, 0
9, 148480, Note_on_c, 7, 62, 96
9, 148992, Note_on_c, 7, 50, 96
9, 148992, Note_off_c, 7, 62, 0
9, 148992, Note_on_c, 7, 50, 96
9, 149504, Note_off_c, 7, 50, 0
9, 149504, Note_on_c, 7, 43, 96
9, 149504, Note_off_c, 7, 50, 0
9, 149504, Note_on_c, 7, 55, 96
9, 150016, Note_off_c, 7, 43, 0
9, 150016, Note_off_c, 7, 55, 0
9, 150016, Note_on_c, 7, 57, 96
9, 150528, Note_off_c, 7, 57, 0
9, 150528, Note_on_c, 7, 59, 96
9, 151040, Note_off_c, 7, 59, 0
9, 151040, Note_on_c, 7, 47, 96
9, 151552, Note_off_c, 7, 47, 0
9, 151552, Note_on_c, 7, 52, 96
9, 152064, Note_off_c, 7, 52, 0
9, 152064, Note_on_c, 7, 53, 96
9, 152576, Note_off_c, 7, 53, 0
9, 152576, Note_on_c, 7, 55, 96
9, 153088, Note_off_c, 7, 55, 0
9, 153088, Note_on_c, 7, 43, 96
9, 153600, Note_off_c, 7, 43, 0
9, 153600, Note_on_c, 7, 36, 96
9, 154112, Note_off_c, 7, 36, 0
9, 154112, Note_on_c, 7, 48, 96
9, 154624, Note_off_c, 7, 48, 0
9, 154624, Note_on_c, 7, 47, 96
9, 155136, Note_off_c, 7, 47, 0
9, 155136, Note_on_c, 7, 45, 96
9, 155648, Note_off_c, 7, 45, 0
9, 155648, Note_on_c, 7, 47, 96
9, 156160, Note_on_c, 7, 43, 96
9, 156160, Note_off_c, 7, 47, 0
9, 156160, Note_on_c, 7, 48, 96
9, 156672, Note_off_c, 7, 43, 0
9, 156672, Note_on_c, 7, 50, 96
9, 156672, Note_off_c, 7, 48, 0
9, 156672, Note_on_c, 7, 50, 96
9, 156928, Note_off_c, 7, 50, 0
9, 156928, Note_on_c, 7, 50, 96
9, 157184, Note_off_c, 7, 50, 0
9, 157184, Note_on_c, 7, 50, 96
9, 157184, Note_off_c, 7, 50, 0
9, 157184, Note_on_c, 7, 38, 96
9, 157440, Note_off_c, 7, 50, 0
9, 157440, Note_on_c, 7, 50, 96
9, 157696, Note_off_c, 7, 50, 0
9, 157696, Note_on_c, 7, 43, 96
9, 157696, Note_off_c, 7, 38, 0
9, 157696, Note_on_c, 7, 43, 96
9, 161792, Note_off_c, 7, 43, 0
9, 161792, Note_off_c, 7, 43, 0
9, 161792, End_track
0, 0, End_of_file
