0, 0, Header, 1, 4, 384
1, 0, Start_track
1, 0, Tempo, 800000
1, 0, Time_signature, 4, 2, 24, 8
1, 43008, Tempo, 923070
1, 58752, Tempo, 857140
1, 112896, Tempo, 1200000
1, 113280, Tempo, 833330
1, 133632, Tempo, 895520
1, 135168, Tempo, 967740
1, 136320, Tempo, 2000000
1, 136704, End_track
2, 0, Start_track
2, 0, Title_t, "Track 1"
2, 0, Program_c, 0, 19
2, 0, Note_on_c, 0, 69, 92
2, 96, Note_off_c, 0, 69, 64
2, 96, Note_on_c, 0, 71, 92
2, 192, Note_off_c, 0, 71, 64
2, 192, Note_on_c, 0, 72, 92
2, 288, Note_off_c, 0, 72, 64
2, 288, Note_on_c, 0, 74, 92
2, 384, Note_off_c, 0, 74, 64
2, 384, Note_on_c, 0, 76, 92
2, 480, Note_off_c, 0, 76, 64
2, 480, Note_on_c, 0, 77, 92
2, 576, Note_off_c, 0, 77, 64
2, 576, Note_on_c, 0, 79, 92
2, 672, Note_off_c, 0, 79, 64
2, 672, Note_on_c, 0, 81, 92
2, 768, Note_off_c, 0, 81, 64
2, 768, Note_on_c, 0, 76, 92
2, 864, Note_off_c, 0, 76, 64
2, 864, Note_on_c, 0, 79, 92
2, 960, Note_off_c, 0, 79, 64
2, 960, Note_on_c, 0, 77, 92
2, 1056, Note_off_c, 0, 77, 64
2, 1056, Note_on_c, 0, 76, 92
2, 1152, Note_off_c, 0, 76, 64
2, 1152, Note_on_c, 0, 77, 92
2, 1248, Note_off_c, 0, 77, 64
2, 1248, Note_on_c, 0, 76, 92
2, 1344, Note_off_c, 0, 76, 64
2, 1344, Note_on_c, 0, 74, 92
2, 1440, Note_off_c, 0, 74, 64
2, 1440, Note_on_c, 0, 72, 92
2, 1536, Note_off_c, 0, 72, 64
2, 1536, Note_on_c, 0, 76, 92
2, 1632, Note_off_c, 0, 76, 64
2, 1632, Note_on_c, 0, 74, 92
2, 1728, Note_off_c, 0, 74, 64
2, 1728, Note_on_c, 0, 72, 92
2, 1824, Note_off_c, 0, 72, 64
2, 1824, Note_on_c, 0, 71, 92
2, 1920, Note_off_c, 0, 71, 64
2, 1920, Note_on_c, 0, 72, 92
2, 2016, Note_off_c, 0, 72, 64
2, 2016, Note_on_c, 0, 71, 92
2, 2112, Note_off_c, 0, 71, 64
2, 2112, Note_on_c, 0, 69, 92
2, 2208, Note_off_c, 0, 69, 64
2, 2208, Note_on_c, 0, 68, 92
2, 2304, Note_off_c, 0, 68, 64
2, 2304, Note_on_c, 0, 69, 92
2, 2400, Note_off_c, 0, 69, 64
2, 2400, Note_on_c, 0, 71, 92
2, 2496, Note_off_c, 0, 71, 64
2, 2496, Note_on_c, 0, 72, 92
2, 2592, Note_off_c, 0, 72, 64
2, 2592, Note_on_c, 0, 74, 92
2, 2688, Note_off_c, 0, 74, 64
2, 2688, Note_on_c, 0, 72, 92
2, 2784, Note_off_c, 0, 72, 64
2, 2784, Note_on_c, 0, 68, 92
2, 2880, Note_off_c, 0, 68, 64
2, 2880, Note_on_c, 0, 69, 92
2, 2976, Note_off_c, 0, 69, 64
2, 2976, Note_on_c, 0, 71, 92
2, 3072, Note_off_c, 0, 71, 64
2, 3072, Note_on_c, 0, 69, 92
2, 3168, Note_off_c, 0, 69, 64
2, 3168, Note_on_c, 0, 71, 92
2, 3264, Note_off_c, 0, 71, 64
2, 3264, Note_on_c, 0, 72, 92
2, 3360, Note_off_c, 0, 72, 64
2, 3360, Note_on_c, 0, 74, 92
2, 3456, Note_off_c, 0, 74, 64
2, 3456, Note_on_c, 0, 72, 92
2, 3552, Note_off_c, 0, 72, 64
2, 3552, Note_on_c, 0, 68, 92
2, 3648, Note_off_c, 0, 68, 64
2, 3648, Note_on_c, 0, 69, 92
2, 3744, Note_off_c, 0, 69, 64
2, 3744, Note_on_c, 0, 71, 92
2, 3840, Note_off_c, 0, 71, 64
2, 3840, Note_on_c, 0, 69, 92
2, 3936, Note_off_c, 0, 69, 64
2, 3936, Note_on_c, 0, 71, 92
2, 4032, Note_off_c, 0, 71, 64
2, 4032, Note_on_c, 0, 72, 92
2, 4128, Note_off_c, 0, 72, 64
2, 4128, Note_on_c, 0, 74, 92
2, 4224, Note_off_c, 0, 74, 64
2, 4224, Note_on_c, 0, 72, 92
2, 4320, Note_off_c, 0, 72, 64
2, 4320, Note_on_c, 0, 74, 92
2, 4416, Note_off_c, 0, 74, 64
2, 4416, Note_on_c, 0, 76, 92
2, 4512, Note_off_c, 0, 76, 64
2, 4512, Note_on_c, 0, 77, 92
2, 4608, Note_off_c, 0, 77, 64
2, 4608, Note_on_c, 0, 76, 92
2, 4704, Note_off_c, 0, 76, 64
2, 4704, Note_on_c, 0, 71, 92
2, 4800, Note_off_c, 0, 71, 64
2, 4800, Note_on_c, 0, 72, 92
2, 4896, Note_off_c, 0, 72, 64
2, 4896, Note_on_c, 0, 74, 92
2, 4992, Note_off_c, 0, 74, 64
2, 4992, Note_on_c, 0, 72, 92
2, 5088, Note_off_c, 0, 72, 64
2, 5088, Note_on_c, 0, 74, 92
2, 5184, Note_off_c, 0, 74, 64
2, 5184, Note_on_c, 0, 76, 92
2, 5280, Note_off_c, 0, 76, 64
2, 5280, Note_on_c, 0, 77, 92
2, 5376, Note_off_c, 0, 77, 64
2, 5376, Note_on_c, 0, 76, 92
2, 5472, Note_off_c, 0, 76, 64
2, 5472, Note_on_c, 0, 71, 92
2, 5568, Note_off_c, 0, 71, 64
2, 5568, Note_on_c, 0, 72, 92
2, 5664, Note_off_c, 0, 72, 64
2, 5664, Note_on_c, 0, 74, 92
2, 5760, Note_off_c, 0, 74, 64
2, 5760, Note_on_c, 0, 72, 92
2, 5856, Note_off_c, 0, 72, 64
2, 5856, Note_on_c, 0, 74, 92
2, 5952, Note_off_c, 0, 74, 64
2, 5952, Note_on_c, 0, 76, 92
2, 6048, Note_off_c, 0, 76, 64
2, 6048, Note_on_c, 0, 77, 92
2, 6144, Note_off_c, 0, 77, 64
2, 6144, Note_on_c, 0, 76, 92
2, 6240, Note_off_c, 0, 76, 64
2, 6240, Note_on_c, 0, 77, 92
2, 6336, Note_off_c, 0, 77, 64
2, 6336, Note_on_c, 0, 79, 92
2, 6432, Note_off_c, 0, 79, 64
2, 6432, Note_on_c, 0, 81, 92
2, 6528, Note_off_c, 0, 81, 64
2, 6528, Note_on_c, 0, 79, 92
2, 6624, Note_off_c, 0, 79, 64
2, 6624, Note_on_c, 0, 74, 92
2, 6720, Note_off_c, 0, 74, 64
2, 6720, Note_on_c, 0, 76, 92
2, 6816, Note_off_c, 0, 76, 64
2, 6816, Note_on_c, 0, 77, 92
2, 6912, Note_off_c, 0, 77, 64
2, 6912, Note_on_c, 0, 76, 92
2, 7008, Note_off_c, 0, 76, 64
2, 7008, Note_on_c, 0, 77, 92
2, 7104, Note_off_c, 0, 77, 64
2, 7104, Note_on_c, 0, 79, 92
2, 7200, Note_off_c, 0, 79, 64
2, 7200, Note_on_c, 0, 81, 92
2, 7296, Note_off_c, 0, 81, 64
2, 7296, Note_on_c, 0, 79, 92
2, 7392, Note_off_c, 0, 79, 64
2, 7392, Note_on_c, 0, 74, 92
2, 7488, Note_off_c, 0, 74, 64
2, 7488, Note_on_c, 0, 76, 92
2, 7584, Note_off_c, 0, 76, 64
2, 7584, Note_on_c, 0, 77, 92
2, 7680, Note_off_c, 0, 77, 64
2, 7680, Note_on_c, 0, 76, 92
2, 7776, Note_off_c, 0, 76, 64
2, 7776, Note_on_c, 0, 77, 92
2, 7872, Note_off_c, 0, 77, 64
2, 7872, Note_on_c, 0, 76, 92
2, 7968, Note_off_c, 0, 76, 64
2, 7968, Note_on_c, 0, 77, 92
2, 8064, Note_off_c, 0, 77, 64
2, 8064, Note_on_c, 0, 76, 92
2, 8160, Note_off_c, 0, 76, 64
2, 8160, Note_on_c, 0, 77, 92
2, 8256, Note_off_c, 0, 77, 64
2, 8256, Note_on_c, 0, 76, 92
2, 8352, Note_off_c, 0, 76, 64
2, 8352, Note_on_c, 0, 77, 92
2, 8448, Note_off_c, 0, 77, 64
2, 8448, Note_on_c, 0, 79, 92
2, 8544, Note_off_c, 0, 79, 64
2, 8544, Note_on_c, 0, 76, 92
2, 8640, Note_off_c, 0, 76, 64
2, 8640, Note_on_c, 0, 81, 92
2, 8736, Note_off_c, 0, 81, 64
2, 8736, Note_on_c, 0, 79, 92
2, 8832, Note_off_c, 0, 79, 64
2, 8832, Note_on_c, 0, 77, 92
2, 8928, Note_off_c, 0, 77, 64
2, 8928, Note_on_c, 0, 76, 92
2, 9024, Note_off_c, 0, 76, 64
2, 9024, Note_on_c, 0, 74, 92
2, 9120, Note_off_c, 0, 74, 64
2, 9120, Note_on_c, 0, 72, 92
2, 9216, Note_off_c, 0, 72, 64
2, 9216, Note_on_c, 0, 76, 92
2, 9312, Note_off_c, 0, 76, 64
2, 9312, Note_on_c, 0, 74, 92
2, 9408, Note_off_c, 0, 74, 64
2, 9408, Note_on_c, 0, 72, 92
2, 9504, Note_off_c, 0, 72, 64
2, 9504, Note_on_c, 0, 74, 92
2, 9600, Note_off_c, 0, 74, 64
2, 9600, Note_on_c, 0, 71, 92
2, 9696, Note_off_c, 0, 71, 64
2, 9696, Note_on_c, 0, 72, 92
2, 9792, Note_off_c, 0, 72, 64
2, 9792, Note_on_c, 0, 69, 92
2, 9888, Note_off_c, 0, 69, 64
2, 9888, Note_on_c, 0, 71, 92
2, 9984, Note_off_c, 0, 71, 64
2, 9984, Note_on_c, 0, 68, 92
2, 10368, Note_off_c, 0, 68, 64
2, 10464, Note_on_c, 0, 76, 92
2, 10560, Note_off_c, 0, 76, 64
2, 10560, Note_on_c, 0, 74, 92
2, 10656, Note_off_c, 0, 74, 64
2, 10656, Note_on_c, 0, 76, 92
2, 10752, Note_off_c, 0, 76, 64
2, 10752, Note_on_c, 0, 72, 92
2, 10944, Note_off_c, 0, 72, 64
2, 10944, Note_on_c, 0, 76, 92
2, 11136, Note_off_c, 0, 76, 64
2, 11136, Note_on_c, 0, 69, 92
2, 11232, Note_off_c, 0, 69, 64
2, 11232, Note_on_c, 0, 81, 92
2, 11328, Note_off_c, 0, 81, 64
2, 11328, Note_on_c, 0, 79, 92
2, 11424, Note_off_c, 0, 79, 64
2, 11424, Note_on_c, 0, 81, 92
2, 11520, Note_off_c, 0, 81, 64
2, 11520, Note_on_c, 0, 77, 92
2, 11616, Note_off_c, 0, 77, 64
2, 11616, Note_on_c, 0, 76, 92
2, 11712, Note_off_c, 0, 76, 64
2, 11712, Note_on_c, 0, 74, 92
2, 11904, Note_off_c, 0, 74, 64
2, 12000, Note_on_c, 0, 71, 92
2, 12096, Note_off_c, 0, 71, 64
2, 12096, Note_on_c, 0, 72, 92
2, 12192, Note_off_c, 0, 72, 64
2, 12192, Note_on_c, 0, 74, 92
2, 12288, Note_off_c, 0, 74, 64
2, 12288, Note_on_c, 0, 72, 92
2, 12672, Note_off_c, 0, 72, 64
2, 12864, Note_on_c, 0, 72, 92
2, 13056, Note_off_c, 0, 72, 64
2, 13056, Note_on_c, 0, 74, 92
2, 13248, Note_off_c, 0, 74, 64
2, 13440, Note_on_c, 0, 68, 92
2, 13632, Note_off_c, 0, 68, 64
2, 13632, Note_on_c, 0, 69, 92
2, 13824, Note_off_c, 0, 69, 64
2, 13920, Note_on_c, 0, 68, 92
2, 14016, Note_off_c, 0, 68, 64
2, 14016, Note_on_c, 0, 69, 92
2, 14112, Note_off_c, 0, 69, 64
2, 14112, Note_on_c, 0, 71, 92
2, 14208, Note_off_c, 0, 71, 64
2, 14208, Note_on_c, 0, 71, 92
2, 14256, Note_off_c, 0, 71, 64
2, 14256, Note_on_c, 0, 69, 92
2, 14304, Note_off_c, 0, 69, 64
2, 14304, Note_on_c, 0, 71, 92
2, 14352, Note_off_c, 0, 71, 64
2, 14352, Note_on_c, 0, 69, 92
2, 14400, Note_off_c, 0, 69, 64
2, 14400, Note_on_c, 0, 71, 92
2, 14448, Note_off_c, 0, 71, 64
2, 14448, Note_on_c, 0, 69, 92
2, 14496, Note_off_c, 0, 69, 64
2, 14496, Note_on_c, 0, 68, 92
2, 14592, Note_off_c, 0, 68, 64
2, 14688, Note_on_c, 0, 71, 92
2, 14784, Note_off_c, 0, 71, 64
2, 14784, Note_on_c, 0, 72, 92
2, 14880, Note_off_c, 0, 72, 64
2, 14880, Note_on_c, 0, 74, 92
2, 14976, Note_off_c, 0, 74, 64
2, 14976, Note_on_c, 0, 74, 92
2, 15024, Note_off_c, 0, 74, 64
2, 15024, Note_on_c, 0, 72, 92
2, 15072, Note_off_c, 0, 72, 64
2, 15072, Note_on_c, 0, 74, 92
2, 15120, Note_off_c, 0, 74, 64
2, 15120, Note_on_c, 0, 72, 92
2, 15168, Note_off_c, 0, 72, 64
2, 15168, Note_on_c, 0, 74, 92
2, 15216, Note_off_c, 0, 74, 64
2, 15216, Note_on_c, 0, 72, 92
2, 15264, Note_off_c, 0, 72, 64
2, 15264, Note_on_c, 0, 71, 92
2, 15360, Note_off_c, 0, 71, 64
2, 15456, Note_on_c, 0, 72, 92
2, 15552, Note_off_c, 0, 72, 64
2, 15552, Note_on_c, 0, 74, 92
2, 15648, Note_off_c, 0, 74, 64
2, 15648, Note_on_c, 0, 76, 92
2, 15744, Note_off_c, 0, 76, 64
2, 15744, Note_on_c, 0, 72, 92
2, 15840, Note_off_c, 0, 72, 64
2, 15840, Note_on_c, 0, 76, 92
2, 15936, Note_off_c, 0, 76, 64
2, 15936, Note_on_c, 0, 74, 92
2, 16032, Note_off_c, 0, 74, 64
2, 16032, Note_on_c, 0, 72, 92
2, 16128, Note_off_c, 0, 72, 64
2, 16128, Note_on_c, 0, 71, 92
2, 16320, Note_off_c, 0, 71, 64
2, 16320, Note_on_c, 0, 72, 92
2, 16416, Note_off_c, 0, 72, 64
2, 16416, Note_on_c, 0, 74, 92
2, 16512, Note_off_c, 0, 74, 64
2, 16512, Note_on_c, 0, 71, 92
2, 16896, Note_off_c, 0, 71, 64
2, 16896, Note_on_c, 0, 69, 92
2, 17472, Note_off_c, 0, 69, 64
2, 17472, Note_on_c, 0, 76, 92
2, 17664, Note_off_c, 0, 76, 64
2, 17664, Note_on_c, 0, 81, 92
2, 17760, Note_off_c, 0, 81, 64
2, 17760, Note_on_c, 0, 80, 92
2, 17856, Note_off_c, 0, 80, 64
2, 17856, Note_on_c, 0, 81, 92
2, 17952, Note_off_c, 0, 81, 64
2, 17952, Note_on_c, 0, 80, 92
2, 18048, Note_off_c, 0, 80, 64
2, 18048, Note_on_c, 0, 81, 92
2, 18144, Note_off_c, 0, 81, 64
2, 18144, Note_on_c, 0, 80, 92
2, 18240, Note_off_c, 0, 80, 64
2, 18240, Note_on_c, 0, 81, 92
2, 18336, Note_off_c, 0, 81, 64
2, 18336, Note_on_c, 0, 80, 92
2, 18432, Note_off_c, 0, 80, 64
2, 18432, Note_on_c, 0, 81, 92
2, 18528, Note_off_c, 0, 81, 64
2, 18528, Note_on_c, 0, 76, 92
2, 18624, Note_off_c, 0, 76, 64
2, 18624, Note_on_c, 0, 81, 92
2, 18720, Note_off_c, 0, 81, 64
2, 18720, Note_on_c, 0, 79, 92
2, 18816, Note_off_c, 0, 79, 64
2, 18816, Note_on_c, 0, 77, 92
2, 19008, Note_off_c, 0, 77, 64
2, 19008, Note_on_c, 0, 78, 92
2, 19200, Note_off_c, 0, 78, 64
2, 19200, Note_on_c, 0, 79, 92
2, 19296, Note_off_c, 0, 79, 64
2, 19296, Note_on_c, 0, 74, 92
2, 19392, Note_off_c, 0, 74, 64
2, 19392, Note_on_c, 0, 79, 92
2, 19488, Note_off_c, 0, 79, 64
2, 19488, Note_on_c, 0, 77, 92
2, 19584, Note_off_c, 0, 77, 64
2, 19584, Note_on_c, 0, 76, 92
2, 19680, Note_off_c, 0, 76, 64
2, 19680, Note_on_c, 0, 72, 92
2, 19776, Note_off_c, 0, 72, 64
2, 19776, Note_on_c, 0, 69, 92
2, 19776, Note_on_c, 0, 84, 92
2, 19872, Note_off_c, 0, 84, 64
2, 19872, Note_on_c, 0, 83, 92
2, 19920, Note_off_c, 0, 83, 64
2, 19920, Note_on_c, 0, 81, 92
2, 19968, Note_off_c, 0, 81, 64
2, 19968, Note_off_c, 0, 69, 64
2, 19968, Note_on_c, 0, 76, 92
2, 19968, Note_on_c, 0, 80, 92
2, 20064, Note_off_c, 0, 76, 64
2, 20064, Note_on_c, 0, 75, 92
2, 20160, Note_off_c, 0, 75, 64
2, 20160, Note_on_c, 0, 76, 92
2, 20256, Note_off_c, 0, 76, 64
2, 20256, Note_off_c, 0, 80, 64
2, 20256, Note_on_c, 0, 81, 92
2, 20256, Note_on_c, 0, 75, 92
2, 20304, Note_off_c, 0, 81, 64
2, 20304, Note_on_c, 0, 79, 92
2, 20352, Note_off_c, 0, 79, 64
2, 20352, Note_off_c, 0, 75, 64
2, 20352, Note_on_c, 0, 78, 92
2, 20352, Note_on_c, 0, 76, 92
2, 20448, Note_off_c, 0, 76, 64
2, 20448, Note_on_c, 0, 75, 92
2, 20544, Note_off_c, 0, 75, 64
2, 20544, Note_on_c, 0, 76, 92
2, 20640, Note_off_c, 0, 76, 64
2, 20640, Note_on_c, 0, 75, 92
2, 20736, Note_off_c, 0, 75, 64
2, 20736, Note_off_c, 0, 78, 64
2, 20736, Note_on_c, 0, 79, 92
2, 20736, Note_on_c, 0, 76, 92
2, 20832, Note_off_c, 0, 76, 64
2, 20832, Note_on_c, 0, 71, 92
2, 20928, Note_off_c, 0, 71, 64
2, 20928, Note_off_c, 0, 79, 64
2, 20928, Note_on_c, 0, 80, 92
2, 20928, Note_on_c, 0, 76, 92
2, 21024, Note_off_c, 0, 76, 64
2, 21024, Note_on_c, 0, 74, 92
2, 21120, Note_off_c, 0, 74, 64
2, 21120, Note_off_c, 0, 80, 64
2, 21120, Note_on_c, 0, 72, 92
2, 21120, Note_on_c, 0, 81, 92
2, 21216, Note_off_c, 0, 81, 64
2, 21216, Note_on_c, 0, 76, 92
2, 21312, Note_off_c, 0, 76, 64
2, 21312, Note_off_c, 0, 72, 64
2, 21312, Note_on_c, 0, 73, 92
2, 21312, Note_on_c, 0, 81, 92
2, 21408, Note_off_c, 0, 81, 64
2, 21408, Note_on_c, 0, 79, 92
2, 21504, Note_off_c, 0, 79, 64
2, 21504, Note_off_c, 0, 73, 64
2, 21504, Note_on_c, 0, 77, 92
2, 21504, Note_on_c, 0, 74, 92
2, 21600, Note_off_c, 0, 74, 64
2, 21600, Note_on_c, 0, 69, 92
2, 21696, Note_off_c, 0, 69, 64
2, 21696, Note_on_c, 0, 71, 92
2, 21792, Note_off_c, 0, 71, 64
2, 21792, Note_off_c, 0, 77, 64
2, 21792, Note_on_c, 0, 76, 92
2, 21792, Note_on_c, 0, 72, 92
2, 21888, Note_off_c, 0, 76, 64
2, 21888, Note_on_c, 0, 74, 92
2, 22080, Note_off_c, 0, 74, 64
2, 22080, Note_off_c, 0, 72, 64
2, 22080, Note_on_c, 0, 71, 92
2, 22080, Note_on_c, 0, 79, 92
2, 22176, Note_off_c, 0, 71, 64
2, 22176, Note_on_c, 0, 76, 92
2, 22272, Note_off_c, 0, 76, 64
2, 22272, Note_off_c, 0, 79, 64
2, 22272, Note_on_c, 0, 72, 92
2, 22272, Note_on_c, 0, 77, 92
2, 22464, Note_off_c, 0, 72, 64
2, 22464, Note_on_c, 0, 71, 92
2, 22560, Note_off_c, 0, 77, 64
2, 22560, Note_on_c, 0, 76, 92
2, 22656, Note_off_c, 0, 76, 64
2, 22656, Note_off_c, 0, 71, 64
2, 22656, Note_on_c, 0, 76, 92
2, 22656, Note_on_c, 0, 72, 92
2, 22944, Note_off_c, 0, 72, 64
2, 22944, Note_on_c, 0, 71, 92
2, 23040, Note_off_c, 0, 71, 64
2, 23040, Note_on_c, 0, 72, 92
2, 23616, Note_off_c, 0, 72, 64
2, 23616, Note_off_c, 0, 76, 64
2, 23616, Note_on_c, 0, 72, 92
2, 23616, Note_on_c, 0, 74, 92
2, 24000, Note_off_c, 0, 72, 64
2, 24000, Note_on_c, 0, 71, 92
2, 24192, Note_off_c, 0, 74, 64
2, 24192, Note_on_c, 0, 72, 92
2, 24384, Note_off_c, 0, 71, 64
2, 24384, Note_on_c, 0, 69, 92
2, 24864, Note_off_c, 0, 72, 64
2, 24864, Note_on_c, 0, 71, 92
2, 24960, Note_off_c, 0, 71, 64
2, 24960, Note_off_c, 0, 69, 64
2, 24960, Note_on_c, 0, 69, 92
2, 24960, Note_on_c, 0, 72, 92
2, 25152, Note_off_c, 0, 69, 64
2, 25152, Note_on_c, 0, 67, 92
2, 25248, Note_off_c, 0, 67, 64
2, 25248, Note_off_c, 0, 72, 64
2, 25248, Note_on_c, 0, 66, 92
2, 25248, Note_on_c, 0, 71, 92
2, 25344, Note_off_c, 0, 71, 64
2, 25344, Note_off_c, 0, 66, 64
2, 25344, Note_on_c, 0, 67, 92
2, 25344, Note_on_c, 0, 71, 92
2, 25728, Note_off_c, 0, 71, 64
2, 25728, Note_on_c, 0, 76, 92
2, 26112, Note_off_c, 0, 76, 64
2, 26112, Note_on_c, 0, 69, 92
2, 26304, Note_off_c, 0, 67, 64
2, 26304, Note_on_c, 0, 66, 92
2, 26496, Note_off_c, 0, 66, 64
2, 26496, Note_off_c, 0, 69, 64
2, 26496, Note_on_c, 0, 67, 92
2, 26880, Note_off_c, 0, 67, 64
2, 26880, Note_on_c, 0, 65, 92
2, 27168, Note_off_c, 0, 65, 64
2, 27168, Note_on_c, 0, 64, 92
2, 27264, Note_off_c, 0, 64, 64
2, 27264, Note_on_c, 0, 64, 92
2, 28032, Note_off_c, 0, 64, 64
2, 28032, Note_on_c, 0, 62, 92
2, 28800, Note_off_c, 0, 62, 64
2, 28800, Note_on_c, 0, 60, 92
2, 29184, Note_off_c, 0, 60, 64
2, 29184, Note_on_c, 0, 62, 92
2, 29376, Note_off_c, 0, 62, 64
2, 29376, Note_on_c, 0, 64, 92
2, 29568, Note_off_c, 0, 64, 64
2, 29568, Note_on_c, 0, 65, 92
2, 29952, Note_off_c, 0, 65, 64
2, 29952, Note_on_c, 0, 64, 92
2, 30336, Note_off_c, 0, 64, 64
2, 30336, Note_on_c, 0, 62, 92
2, 30816, Note_off_c, 0, 62, 64
2, 30816, Note_on_c, 0, 64, 92
2, 30912, Note_off_c, 0, 64, 64
2, 30912, Note_on_c, 0, 60, 92
2, 31008, Note_off_c, 0, 60, 64
2, 31008, Note_on_c, 0, 62, 92
2, 31104, Note_off_c, 0, 62, 64
2, 31104, Note_on_c, 0, 59, 92
2, 31296, Note_on_c, 0, 64, 92
2, 31488, Note_off_c, 0, 64, 64
2, 31488, Note_off_c, 0, 59, 64
2, 31488, Note_on_c, 0, 69, 92
2, 31584, Note_off_c, 0, 69, 64
2, 31584, Note_on_c, 0, 68, 92
2, 31680, Note_off_c, 0, 68, 64
2, 31680, Note_on_c, 0, 64, 92
2, 31680, Note_on_c, 0, 69, 92
2, 31776, Note_off_c, 0, 69, 64
2, 31776, Note_on_c, 0, 68, 92
2, 31872, Note_off_c, 0, 68, 64
2, 31872, Note_off_c, 0, 64, 64
2, 31872, Note_on_c, 0, 64, 92
2, 31872, Note_on_c, 0, 69, 92
2, 31968, Note_off_c, 0, 69, 64
2, 31968, Note_on_c, 0, 68, 92
2, 32064, Note_off_c, 0, 68, 64
2, 32064, Note_off_c, 0, 64, 64
2, 32064, Note_on_c, 0, 62, 92
2, 32064, Note_on_c, 0, 69, 92
2, 32160, Note_off_c, 0, 69, 64
2, 32160, Note_on_c, 0, 68, 92
2, 32256, Note_off_c, 0, 68, 64
2, 32256, Note_off_c, 0, 62, 64
2, 32256, Note_on_c, 0, 69, 92
2, 32256, Note_on_c, 0, 61, 92
2, 32352, Note_off_c, 0, 69, 64
2, 32352, Note_on_c, 0, 64, 92
2, 32448, Note_off_c, 0, 64, 64
2, 32448, Note_on_c, 0, 69, 92
2, 32544, Note_off_c, 0, 69, 64
2, 32544, Note_on_c, 0, 67, 92
2, 32640, Note_off_c, 0, 67, 64
2, 32640, Note_off_c, 0, 61, 64
2, 32640, Note_on_c, 0, 65, 92
2, 32832, Note_off_c, 0, 65, 64
2, 32832, Note_on_c, 0, 66, 92
2, 33024, Note_off_c, 0, 66, 64
2, 33024, Note_on_c, 0, 67, 92
2, 33120, Note_off_c, 0, 67, 64
2, 33120, Note_on_c, 0, 62, 92
2, 33216, Note_off_c, 0, 62, 64
2, 33216, Note_on_c, 0, 67, 92
2, 33312, Note_off_c, 0, 67, 64
2, 33312, Note_on_c, 0, 65, 92
2, 33408, Note_off_c, 0, 65, 64
2, 33408, Note_on_c, 0, 64, 92
2, 33600, Note_on_c, 0, 57, 92
2, 33696, Note_off_c, 0, 64, 64
2, 33696, Note_on_c, 0, 69, 92
2, 33792, Note_off_c, 0, 57, 64
2, 33792, Note_on_c, 0, 64, 92
2, 33888, Note_off_c, 0, 64, 64
2, 33888, Note_on_c, 0, 63, 92
2, 33984, Note_off_c, 0, 63, 64
2, 33984, Note_off_c, 0, 69, 64
2, 33984, Note_on_c, 0, 64, 92
2, 33984, Note_on_c, 0, 67, 92
2, 34080, Note_off_c, 0, 64, 64
2, 34080, Note_on_c, 0, 63, 92
2, 34176, Note_off_c, 0, 63, 64
2, 34176, Note_off_c, 0, 67, 64
2, 34176, Note_on_c, 0, 66, 92
2, 34176, Note_on_c, 0, 64, 92
2, 34272, Note_off_c, 0, 64, 64
2, 34272, Note_on_c, 0, 63, 92
2, 34368, Note_off_c, 0, 63, 64
2, 34368, Note_on_c, 0, 64, 92
2, 34464, Note_off_c, 0, 64, 64
2, 34464, Note_on_c, 0, 63, 92
2, 34560, Note_off_c, 0, 63, 64
2, 34560, Note_off_c, 0, 66, 64
2, 34560, Note_on_c, 0, 67, 92
2, 34560, Note_on_c, 0, 64, 92
2, 34656, Note_off_c, 0, 64, 64
2, 34656, Note_on_c, 0, 59, 92
2, 34752, Note_off_c, 0, 59, 64
2, 34752, Note_off_c, 0, 67, 64
2, 34752, Note_on_c, 0, 68, 92
2, 34752, Note_on_c, 0, 64, 92
2, 34848, Note_off_c, 0, 64, 64
2, 34848, Note_on_c, 0, 62, 92
2, 34944, Note_off_c, 0, 62, 64
2, 34944, Note_off_c, 0, 68, 64
2, 34944, Note_on_c, 0, 60, 92
2, 34944, Note_on_c, 0, 69, 92
2, 35040, Note_off_c, 0, 69, 64
2, 35040, Note_on_c, 0, 64, 92
2, 35136, Note_off_c, 0, 64, 64
2, 35136, Note_off_c, 0, 60, 64
2, 35136, Note_on_c, 0, 61, 92
2, 35136, Note_on_c, 0, 69, 92
2, 35232, Note_off_c, 0, 69, 64
2, 35232, Note_on_c, 0, 67, 92
2, 35328, Note_off_c, 0, 67, 64
2, 35328, Note_off_c, 0, 61, 64
2, 35328, Note_on_c, 0, 62, 92
2, 35328, Note_on_c, 0, 65, 92
2, 35424, Note_off_c, 0, 62, 64
2, 35424, Note_on_c, 0, 57, 92
2, 35520, Note_off_c, 0, 57, 64
2, 35520, Note_off_c, 0, 65, 64
2, 35520, Note_on_c, 0, 62, 92
2, 35520, Note_on_c, 0, 66, 92
2, 35616, Note_off_c, 0, 62, 64
2, 35616, Note_on_c, 0, 60, 92
2, 35712, Note_off_c, 0, 60, 64
2, 35712, Note_off_c, 0, 66, 64
2, 35712, Note_on_c, 0, 59, 92
2, 35712, Note_on_c, 0, 67, 92
2, 35808, Note_off_c, 0, 67, 64
2, 35808, Note_on_c, 0, 62, 92
2, 35904, Note_off_c, 0, 62, 64
2, 35904, Note_on_c, 0, 67, 92
2, 36000, Note_off_c, 0, 67, 64
2, 36000, Note_off_c, 0, 59, 64
2, 36000, Note_on_c, 0, 62, 92
2, 36000, Note_on_c, 0, 65, 92
2, 36096, Note_off_c, 0, 65, 64
2, 36096, Note_off_c, 0, 62, 64
2, 36096, Note_on_c, 0, 64, 92
2, 36096, Note_on_c, 0, 60, 92
2, 36192, Note_off_c, 0, 60, 64
2, 36192, Note_on_c, 0, 59, 92
2, 36288, Note_off_c, 0, 59, 64
2, 36288, Note_on_c, 0, 60, 92
2, 36384, Note_off_c, 0, 60, 64
2, 36384, Note_on_c, 0, 59, 92
2, 36480, Note_off_c, 0, 59, 64
2, 36480, Note_off_c, 0, 64, 64
2, 36480, Note_on_c, 0, 64, 92
2, 36480, Note_on_c, 0, 60, 92
2, 36576, Note_off_c, 0, 60, 64
2, 36576, Note_on_c, 0, 59, 92
2, 36672, Note_off_c, 0, 59, 64
2, 36672, Note_on_c, 0, 60, 92
2, 36768, Note_off_c, 0, 60, 64
2, 36768, Note_on_c, 0, 59, 92
2, 36864, Note_off_c, 0, 59, 64
2, 36864, Note_on_c, 0, 60, 92
2, 37248, Note_off_c, 0, 64, 64
2, 37248, Note_on_c, 0, 62, 92
2, 37440, Note_off_c, 0, 60, 64
2, 37440, Note_on_c, 0, 59, 92
2, 37536, Note_off_c, 0, 59, 64
2, 37536, Note_on_c, 0, 57, 92
2, 37632, Note_off_c, 0, 57, 64
2, 37632, Note_on_c, 0, 59, 92
2, 38016, Note_off_c, 0, 59, 64
2, 38016, Note_off_c, 0, 62, 64
2, 38016, Note_on_c, 0, 60, 92
2, 38016, Note_on_c, 0, 64, 92
2, 38400, Note_off_c, 0, 60, 64
2, 38688, Note_off_c, 0, 64, 64
2, 38688, Note_on_c, 0, 62, 92
2, 38784, Note_off_c, 0, 62, 64
2, 38784, Note_on_c, 0, 64, 92
2, 39552, Note_off_c, 0, 64, 64
2, 39552, Note_on_c, 0, 66, 92
2, 39936, Note_off_c, 0, 66, 64
2, 39936, Note_on_c, 0, 67, 92
2, 40320, Note_off_c, 0, 67, 64
2, 40320, Note_on_c, 0, 64, 92
2, 40896, Note_off_c, 0, 64, 64
2, 40896, Note_on_c, 0, 62, 92
2, 41280, Note_off_c, 0, 62, 64
2, 41280, Note_on_c, 0, 60, 92
2, 41472, Note_off_c, 0, 60, 64
2, 41664, Note_on_c, 0, 60, 92
2, 41856, Note_off_c, 0, 60, 64
2, 41856, Note_on_c, 0, 60, 92
2, 42144, Note_off_c, 0, 60, 64
2, 42144, Note_on_c, 0, 59, 92
2, 42240, Note_off_c, 0, 59, 64
2, 42240, Note_on_c, 0, 60, 92
2, 42624, Note_off_c, 0, 60, 64
2, 43104, Note_on_c, 0, 65, 92
2, 43200, Note_off_c, 0, 65, 64
2, 43200, Note_on_c, 0, 64, 92
2, 43296, Note_off_c, 0, 64, 64
2, 43296, Note_on_c, 0, 62, 92
2, 43392, Note_off_c, 0, 62, 64
2, 43392, Note_on_c, 0, 64, 92
2, 43488, Note_on_c, 0, 59, 92
2, 43584, Note_off_c, 0, 59, 64
2, 43584, Note_on_c, 0, 60, 92
2, 43680, Note_off_c, 0, 60, 64
2, 43680, Note_on_c, 0, 62, 92
2, 43776, Note_off_c, 0, 62, 64
2, 43776, Note_off_c, 0, 64, 64
2, 43776, Note_on_c, 0, 60, 92
2, 43776, Note_on_c, 0, 64, 92
2, 44160, Note_off_c, 0, 64, 64
2, 44160, Note_off_c, 0, 60, 64
2, 44256, Note_on_c, 0, 69, 92
2, 44352, Note_off_c, 0, 69, 64
2, 44352, Note_on_c, 0, 67, 92
2, 44448, Note_off_c, 0, 67, 64
2, 44448, Note_on_c, 0, 66, 92
2, 44544, Note_off_c, 0, 66, 64
2, 44544, Note_on_c, 0, 67, 92
2, 44640, Note_on_c, 0, 62, 92
2, 44736, Note_off_c, 0, 62, 64
2, 44736, Note_on_c, 0, 64, 92
2, 44832, Note_off_c, 0, 64, 64
2, 44832, Note_on_c, 0, 65, 92
2, 44928, Note_off_c, 0, 65, 64
2, 44928, Note_off_c, 0, 67, 64
2, 44928, Note_on_c, 0, 64, 92
2, 44928, Note_on_c, 0, 67, 92
2, 45312, Note_off_c, 0, 67, 64
2, 45312, Note_off_c, 0, 64, 64
2, 45408, Note_on_c, 0, 74, 92
2, 45504, Note_off_c, 0, 74, 64
2, 45504, Note_on_c, 0, 72, 92
2, 45600, Note_off_c, 0, 72, 64
2, 45600, Note_on_c, 0, 71, 92
2, 45696, Note_off_c, 0, 71, 64
2, 45696, Note_on_c, 0, 72, 92
2, 45792, Note_on_c, 0, 66, 92
2, 45888, Note_off_c, 0, 66, 64
2, 45888, Note_on_c, 0, 67, 92
2, 45984, Note_off_c, 0, 67, 64
2, 45984, Note_on_c, 0, 69, 92
2, 46080, Note_off_c, 0, 69, 64
2, 46080, Note_on_c, 0, 64, 92
2, 46080, Note_on_c, 0, 67, 92
2, 46464, Note_off_c, 0, 67, 64
2, 46464, Note_off_c, 0, 64, 64
2, 46464, Note_off_c, 0, 72, 64
2, 46560, Note_on_c, 0, 71, 92
2, 46656, Note_off_c, 0, 71, 64
2, 46656, Note_on_c, 0, 72, 92
2, 46752, Note_off_c, 0, 72, 64
2, 46752, Note_on_c, 0, 74, 92
2, 46848, Note_off_c, 0, 74, 64
2, 46848, Note_on_c, 0, 76, 92
2, 46944, Note_off_c, 0, 76, 64
2, 46944, Note_on_c, 0, 74, 92
2, 47040, Note_off_c, 0, 74, 64
2, 47040, Note_on_c, 0, 72, 92
2, 47136, Note_off_c, 0, 72, 64
2, 47136, Note_on_c, 0, 71, 92
2, 47232, Note_off_c, 0, 71, 64
2, 47232, Note_on_c, 0, 69, 92
2, 47328, Note_off_c, 0, 69, 64
2, 47328, Note_on_c, 0, 67, 92
2, 47424, Note_off_c, 0, 67, 64
2, 47424, Note_on_c, 0, 66, 92
2, 47472, Note_off_c, 0, 66, 64
2, 47472, Note_on_c, 0, 66, 92
2, 47520, Note_off_c, 0, 66, 64
2, 47520, Note_on_c, 0, 69, 92
2, 47568, Note_off_c, 0, 69, 64
2, 47568, Note_on_c, 0, 74, 92
2, 47616, Note_off_c, 0, 74, 64
2, 47616, Note_on_c, 0, 66, 92
2, 47616, Note_on_c, 0, 74, 92
2, 48384, Note_off_c, 0, 66, 64
2, 48384, Note_on_c, 0, 67, 92
2, 51456, Note_off_c, 0, 74, 64
2, 51456, Note_on_c, 0, 72, 92
2, 51840, Note_off_c, 0, 67, 64
2, 51840, Note_on_c, 0, 66, 92
2, 52224, Note_off_c, 0, 66, 64
2, 52224, Note_off_c, 0, 72, 64
2, 52224, Note_on_c, 0, 68, 92
2, 52224, Note_on_c, 0, 71, 92
2, 52992, Note_off_c, 0, 71, 64
2, 52992, Note_off_c, 0, 68, 64
2, 52992, Note_on_c, 0, 69, 92
2, 53376, Note_on_c, 0, 76, 92
2, 56064, Note_off_c, 0, 69, 64
2, 56064, Note_on_c, 0, 68, 92
2, 56448, Note_off_c, 0, 68, 64
2, 56448, Note_off_c, 0, 76, 64
2, 56448, Note_on_c, 0, 76, 92
2, 56448, Note_on_c, 0, 69, 92
2, 56832, Note_off_c, 0, 69, 64
2, 56832, Note_off_c, 0, 76, 64
2, 56832, Note_on_c, 0, 76, 92
2, 56832, Note_on_c, 0, 68, 92
2, 58752, Note_off_c, 0, 76, 64
2, 58752, Note_on_c, 0, 76, 92
2, 59136, Note_off_c, 0, 76, 64
2, 59136, Note_off_c, 0, 68, 64
2, 59136, Note_on_c, 0, 72, 92
2, 59328, Note_on_c, 0, 64, 92
2, 59520, Note_off_c, 0, 64, 64
2, 59520, Note_off_c, 0, 72, 64
2, 59520, Note_on_c, 0, 65, 92
2, 59520, Note_on_c, 0, 69, 92
2, 59616, Note_off_c, 0, 65, 64
2, 59616, Note_on_c, 0, 64, 92
2, 59712, Note_off_c, 0, 64, 64
2, 59712, Note_on_c, 0, 65, 92
2, 59808, Note_off_c, 0, 65, 64
2, 59808, Note_on_c, 0, 60, 92
2, 59904, Note_off_c, 0, 60, 64
2, 59904, Note_off_c, 0, 69, 64
2, 59904, Note_on_c, 0, 72, 92
2, 59904, Note_on_c, 0, 64, 92
2, 60000, Note_off_c, 0, 64, 64
2, 60000, Note_on_c, 0, 57, 92
2, 60096, Note_off_c, 0, 57, 64
2, 60096, Note_off_c, 0, 72, 64
2, 60096, Note_on_c, 0, 73, 92
2, 60096, Note_on_c, 0, 69, 92
2, 60192, Note_off_c, 0, 69, 64
2, 60192, Note_on_c, 0, 64, 92
2, 60288, Note_off_c, 0, 64, 64
2, 60288, Note_off_c, 0, 73, 64
2, 60288, Note_on_c, 0, 74, 92
2, 60288, Note_on_c, 0, 66, 92
2, 60384, Note_off_c, 0, 66, 64
2, 60384, Note_on_c, 0, 59, 92
2, 60480, Note_off_c, 0, 59, 64
2, 60480, Note_off_c, 0, 74, 64
2, 60480, Note_on_c, 0, 75, 92
2, 60480, Note_on_c, 0, 71, 92
2, 60576, Note_off_c, 0, 71, 64
2, 60576, Note_on_c, 0, 66, 92
2, 60672, Note_off_c, 0, 66, 64
2, 60672, Note_off_c, 0, 75, 64
2, 60672, Note_on_c, 0, 76, 92
2, 60672, Note_on_c, 0, 68, 92
2, 60768, Note_off_c, 0, 68, 64
2, 60768, Note_on_c, 0, 64, 92
2, 60864, Note_off_c, 0, 64, 64
2, 60864, Note_on_c, 0, 69, 92
2, 60960, Note_off_c, 0, 76, 64
2, 60960, Note_on_c, 0, 74, 92
2, 61008, Note_off_c, 0, 74, 64
2, 61008, Note_on_c, 0, 72, 92
2, 61056, Note_off_c, 0, 72, 64
2, 61056, Note_on_c, 0, 71, 92
2, 61248, Note_off_c, 0, 69, 64
2, 61248, Note_on_c, 0, 68, 92
2, 61344, Note_off_c, 0, 71, 64
2, 61344, Note_on_c, 0, 72, 92
2, 61392, Note_off_c, 0, 72, 64
2, 61392, Note_on_c, 0, 74, 92
2, 61440, Note_off_c, 0, 74, 64
2, 61440, Note_off_c, 0, 68, 64
2, 61440, Note_on_c, 0, 72, 92
2, 61440, Note_on_c, 0, 69, 92
2, 61536, Note_off_c, 0, 72, 64
2, 61536, Note_on_c, 0, 71, 92
2, 61632, Note_off_c, 0, 71, 64
2, 61632, Note_on_c, 0, 72, 92
2, 61728, Note_off_c, 0, 69, 64
2, 61728, Note_on_c, 0, 64, 92
2, 61824, Note_off_c, 0, 64, 64
2, 61824, Note_off_c, 0, 72, 64
2, 61824, Note_on_c, 0, 65, 92
2, 61920, Note_off_c, 0, 65, 64
2, 61920, Note_on_c, 0, 64, 92
2, 62016, Note_off_c, 0, 64, 64
2, 62016, Note_on_c, 0, 65, 92
2, 62112, Note_off_c, 0, 65, 64
2, 62112, Note_on_c, 0, 60, 92
2, 62208, Note_off_c, 0, 60, 64
2, 62208, Note_on_c, 0, 64, 92
2, 62400, Note_on_c, 0, 71, 92
2, 62592, Note_off_c, 0, 71, 64
2, 62592, Note_off_c, 0, 64, 64
2, 62592, Note_on_c, 0, 72, 92
2, 62592, Note_on_c, 0, 67, 92
2, 62688, Note_off_c, 0, 72, 64
2, 62688, Note_on_c, 0, 71, 92
2, 62784, Note_off_c, 0, 71, 64
2, 62784, Note_off_c, 0, 67, 64
2, 62784, Note_on_c, 0, 72, 92
2, 62784, Note_on_c, 0, 64, 92
2, 62880, Note_off_c, 0, 72, 64
2, 62880, Note_on_c, 0, 67, 92
2, 62976, Note_off_c, 0, 67, 64
2, 62976, Note_off_c, 0, 64, 64
2, 62976, Note_on_c, 0, 62, 92
2, 62976, Note_on_c, 0, 69, 92
2, 63072, Note_off_c, 0, 69, 64
2, 63072, Note_off_c, 0, 62, 64
2, 63072, Note_on_c, 0, 62, 92
2, 63168, Note_on_c, 0, 74, 92
2, 63264, Note_off_c, 0, 74, 64
2, 63264, Note_on_c, 0, 69, 92
2, 63360, Note_off_c, 0, 69, 64
2, 63360, Note_on_c, 0, 71, 92
2, 63456, Note_off_c, 0, 71, 64
2, 63456, Note_on_c, 0, 64, 92
2, 63552, Note_off_c, 0, 64, 64
2, 63552, Note_off_c, 0, 62, 64
2, 63552, Note_on_c, 0, 62, 92
2, 63552, Note_on_c, 0, 76, 92
2, 63648, Note_off_c, 0, 76, 64
2, 63648, Note_on_c, 0, 71, 92
2, 63744, Note_off_c, 0, 71, 64
2, 63744, Note_off_c, 0, 62, 64
2, 63744, Note_on_c, 0, 64, 92
2, 63744, Note_on_c, 0, 72, 92
2, 63936, Note_off_c, 0, 72, 64
2, 63936, Note_off_c, 0, 64, 64
2, 63936, Note_on_c, 0, 67, 92
2, 63936, Note_on_c, 0, 73, 92
2, 64128, Note_off_c, 0, 73, 64
2, 64128, Note_off_c, 0, 67, 64
2, 64128, Note_on_c, 0, 69, 92
2, 64128, Note_on_c, 0, 74, 92
2, 64320, Note_off_c, 0, 74, 64
2, 64320, Note_on_c, 0, 76, 92
2, 64512, Note_off_c, 0, 76, 64
2, 64512, Note_off_c, 0, 69, 64
2, 64512, Note_on_c, 0, 69, 92
2, 64512, Note_on_c, 0, 77, 92
2, 64608, Note_off_c, 0, 77, 64
2, 64608, Note_on_c, 0, 76, 92
2, 64704, Note_off_c, 0, 76, 64
2, 64704, Note_on_c, 0, 74, 92
2, 64800, Note_off_c, 0, 74, 64
2, 64800, Note_on_c, 0, 76, 92
2, 64896, Note_off_c, 0, 76, 64
2, 64896, Note_on_c, 0, 72, 92
2, 64992, Note_off_c, 0, 72, 64
2, 64992, Note_on_c, 0, 74, 92
2, 65088, Note_off_c, 0, 74, 64
2, 65088, Note_off_c, 0, 69, 64
2, 65088, Note_on_c, 0, 68, 92
2, 65088, Note_on_c, 0, 72, 92
2, 65184, Note_off_c, 0, 72, 64
2, 65184, Note_on_c, 0, 71, 92
2, 65280, Note_off_c, 0, 71, 64
2, 65280, Note_off_c, 0, 68, 64
2, 65280, Note_on_c, 0, 69, 92
2, 65280, Note_on_c, 0, 72, 92
2, 65472, Note_off_c, 0, 72, 64
2, 65472, Note_on_c, 0, 76, 92
2, 65664, Note_off_c, 0, 76, 64
2, 65664, Note_off_c, 0, 69, 64
2, 65664, Note_on_c, 0, 77, 92
2, 65760, Note_off_c, 0, 77, 64
2, 65760, Note_on_c, 0, 76, 92
2, 65856, Note_off_c, 0, 76, 64
2, 65856, Note_on_c, 0, 77, 92
2, 65856, Note_on_c, 0, 69, 92
2, 65952, Note_off_c, 0, 77, 64
2, 65952, Note_on_c, 0, 72, 92
2, 66048, Note_off_c, 0, 72, 64
2, 66048, Note_off_c, 0, 69, 64
2, 66048, Note_on_c, 0, 76, 92
2, 66048, Note_on_c, 0, 72, 92
2, 66144, Note_off_c, 0, 72, 64
2, 66144, Note_on_c, 0, 71, 92
2, 66240, Note_off_c, 0, 71, 64
2, 66240, Note_on_c, 0, 72, 92
2, 66336, Note_off_c, 0, 72, 64
2, 66336, Note_on_c, 0, 67, 92
2, 66432, Note_off_c, 0, 67, 64
2, 66432, Note_off_c, 0, 76, 64
2, 66432, Note_on_c, 0, 67, 92
2, 66528, Note_on_c, 0, 71, 92
2, 66624, Note_off_c, 0, 71, 64
2, 66624, Note_on_c, 0, 72, 92
2, 66720, Note_off_c, 0, 72, 64
2, 66720, Note_on_c, 0, 74, 92
2, 66816, Note_off_c, 0, 74, 64
2, 66816, Note_on_c, 0, 76, 92
2, 66912, Note_off_c, 0, 67, 64
2, 66912, Note_on_c, 0, 64, 92
2, 67008, Note_off_c, 0, 64, 64
2, 67008, Note_on_c, 0, 65, 92
2, 67104, Note_off_c, 0, 65, 64
2, 67104, Note_on_c, 0, 67, 92
2, 67200, Note_off_c, 0, 67, 64
2, 67200, Note_off_c, 0, 76, 64
2, 67200, Note_on_c, 0, 72, 92
2, 67200, Note_on_c, 0, 69, 92
2, 67296, Note_off_c, 0, 69, 64
2, 67296, Note_on_c, 0, 67, 92
2, 67392, Note_off_c, 0, 67, 64
2, 67392, Note_on_c, 0, 69, 92
2, 67488, Note_off_c, 0, 69, 64
2, 67488, Note_on_c, 0, 64, 92
2, 67584, Note_off_c, 0, 64, 64
2, 67584, Note_off_c, 0, 72, 64
2, 69504, Note_on_c, 0, 69, 92
2, 69888, Note_off_c, 0, 69, 64
2, 69888, Note_on_c, 0, 67, 92
2, 70272, Note_off_c, 0, 67, 64
2, 70272, Note_on_c, 0, 64, 92
2, 70656, Note_off_c, 0, 64, 64
2, 70656, Note_on_c, 0, 65, 92
2, 70848, Note_off_c, 0, 65, 64
2, 70848, Note_on_c, 0, 66, 92
2, 71040, Note_off_c, 0, 66, 64
2, 71040, Note_on_c, 0, 67, 92
2, 71232, Note_off_c, 0, 67, 64
2, 71232, Note_on_c, 0, 68, 92
2, 71424, Note_off_c, 0, 68, 64
2, 71424, Note_on_c, 0, 69, 92
2, 71520, Note_off_c, 0, 69, 64
2, 71520, Note_on_c, 0, 64, 92
2, 71616, Note_off_c, 0, 64, 64
2, 71616, Note_on_c, 0, 69, 92
2, 71712, Note_off_c, 0, 69, 64
2, 71712, Note_on_c, 0, 67, 92
2, 71808, Note_off_c, 0, 67, 64
2, 71808, Note_on_c, 0, 65, 92
2, 72000, Note_off_c, 0, 65, 64
2, 72000, Note_on_c, 0, 66, 92
2, 72192, Note_off_c, 0, 66, 64
2, 72192, Note_on_c, 0, 71, 92
2, 72288, Note_off_c, 0, 71, 64
2, 72288, Note_on_c, 0, 66, 92
2, 72384, Note_off_c, 0, 66, 64
2, 72384, Note_on_c, 0, 71, 92
2, 72480, Note_off_c, 0, 71, 64
2, 72480, Note_on_c, 0, 69, 92
2, 72576, Note_off_c, 0, 69, 64
2, 72576, Note_on_c, 0, 67, 92
2, 72768, Note_off_c, 0, 67, 64
2, 72768, Note_on_c, 0, 68, 92
2, 72960, Note_off_c, 0, 68, 64
2, 72960, Note_on_c, 0, 69, 92
2, 73152, Note_on_c, 0, 76, 92
2, 73344, Note_off_c, 0, 76, 64
2, 73344, Note_off_c, 0, 69, 64
2, 73344, Note_on_c, 0, 77, 92
2, 73344, Note_on_c, 0, 69, 92
2, 73440, Note_off_c, 0, 77, 64
2, 73440, Note_on_c, 0, 76, 92
2, 73536, Note_off_c, 0, 76, 64
2, 73536, Note_on_c, 0, 77, 92
2, 73632, Note_off_c, 0, 77, 64
2, 73632, Note_on_c, 0, 72, 92
2, 73728, Note_off_c, 0, 72, 64
2, 73728, Note_off_c, 0, 69, 64
2, 73728, Note_on_c, 0, 76, 92
2, 73824, Note_off_c, 0, 76, 64
2, 73824, Note_on_c, 0, 69, 92
2, 73920, Note_off_c, 0, 69, 64
2, 73920, Note_on_c, 0, 81, 92
2, 74016, Note_off_c, 0, 81, 64
2, 74016, Note_on_c, 0, 76, 92
2, 74112, Note_off_c, 0, 76, 64
2, 74112, Note_on_c, 0, 78, 92
2, 74208, Note_off_c, 0, 78, 64
2, 74208, Note_on_c, 0, 71, 92
2, 74304, Note_off_c, 0, 71, 64
2, 74304, Note_on_c, 0, 83, 92
2, 74400, Note_off_c, 0, 83, 64
2, 74400, Note_on_c, 0, 78, 92
2, 74496, Note_off_c, 0, 78, 64
2, 74496, Note_on_c, 0, 79, 92
2, 74688, Note_off_c, 0, 79, 64
2, 74688, Note_on_c, 0, 71, 92
2, 74688, Note_on_c, 0, 80, 92
2, 74880, Note_off_c, 0, 80, 64
2, 74880, Note_off_c, 0, 71, 64
2, 74880, Note_on_c, 0, 72, 92
2, 74880, Note_on_c, 0, 81, 92
2, 74976, Note_off_c, 0, 72, 64
2, 74976, Note_on_c, 0, 71, 92
2, 75072, Note_off_c, 0, 71, 64
2, 75072, Note_off_c, 0, 81, 64
2, 75072, Note_on_c, 0, 72, 92
2, 75072, Note_on_c, 0, 76, 92
2, 75168, Note_off_c, 0, 72, 64
2, 75168, Note_on_c, 0, 67, 92
2, 75264, Note_off_c, 0, 67, 64
2, 75264, Note_off_c, 0, 76, 64
2, 75264, Note_on_c, 0, 69, 92
2, 75264, Note_on_c, 0, 77, 92
2, 75360, Note_off_c, 0, 69, 64
2, 75360, Note_on_c, 0, 62, 92
2, 75456, Note_off_c, 0, 62, 64
2, 75456, Note_off_c, 0, 77, 64
2, 75456, Note_on_c, 0, 74, 92
2, 75456, Note_on_c, 0, 78, 92
2, 75552, Note_off_c, 0, 74, 64
2, 75552, Note_on_c, 0, 69, 92
2, 75648, Note_off_c, 0, 69, 64
2, 75648, Note_off_c, 0, 78, 64
2, 75648, Note_on_c, 0, 79, 92
2, 75648, Note_on_c, 0, 71, 92
2, 75744, Note_off_c, 0, 71, 64
2, 75744, Note_on_c, 0, 64, 92
2, 75840, Note_off_c, 0, 64, 64
2, 75840, Note_on_c, 0, 76, 92
2, 75936, Note_off_c, 0, 76, 64
2, 75936, Note_off_c, 0, 79, 64
2, 75936, Note_on_c, 0, 74, 92
2, 75936, Note_on_c, 0, 71, 92
2, 76032, Note_off_c, 0, 71, 64
2, 76032, Note_off_c, 0, 74, 64
2, 76032, Note_on_c, 0, 76, 92
2, 76032, Note_on_c, 0, 72, 92
2, 76128, Note_off_c, 0, 72, 64
2, 76128, Note_on_c, 0, 67, 92
2, 76224, Note_off_c, 0, 67, 64
2, 76224, Note_off_c, 0, 76, 64
2, 76224, Note_on_c, 0, 72, 92
2, 76224, Note_on_c, 0, 69, 92
2, 76320, Note_off_c, 0, 69, 64
2, 76320, Note_on_c, 0, 64, 92
2, 76416, Note_off_c, 0, 64, 64
2, 76416, Note_on_c, 0, 66, 92
2, 76512, Note_off_c, 0, 72, 64
2, 76512, Note_on_c, 0, 71, 92
2, 76608, Note_off_c, 0, 71, 64
2, 76608, Note_on_c, 0, 72, 92
2, 76704, Note_off_c, 0, 72, 64
2, 76704, Note_on_c, 0, 69, 92
2, 76800, Note_off_c, 0, 69, 64
2, 76800, Note_off_c, 0, 66, 64
2, 76800, Note_on_c, 0, 67, 92
2, 76800, Note_on_c, 0, 71, 92
2, 76992, Note_off_c, 0, 71, 64
2, 76992, Note_off_c, 0, 67, 64
2, 76992, Note_on_c, 0, 62, 92
2, 76992, Note_on_c, 0, 74, 92
2, 77184, Note_off_c, 0, 74, 64
2, 77184, Note_off_c, 0, 62, 64
2, 77184, Note_on_c, 0, 64, 92
2, 77184, Note_on_c, 0, 79, 92
2, 77280, Note_off_c, 0, 64, 64
2, 77280, Note_on_c, 0, 62, 92
2, 77376, Note_off_c, 0, 62, 64
2, 77376, Note_on_c, 0, 64, 92
2, 77472, Note_off_c, 0, 64, 64
2, 77472, Note_on_c, 0, 59, 92
2, 77568, Note_off_c, 0, 59, 64
2, 77568, Note_off_c, 0, 79, 64
2, 79488, Note_on_c, 0, 64, 92
2, 79872, Note_off_c, 0, 64, 64
2, 79872, Note_on_c, 0, 60, 92
2, 80256, Note_off_c, 0, 60, 64
2, 80256, Note_on_c, 0, 57, 92
2, 80640, Note_off_c, 0, 57, 64
2, 80640, Note_on_c, 0, 60, 92
2, 80832, Note_off_c, 0, 60, 64
2, 80832, Note_on_c, 0, 61, 92
2, 81024, Note_off_c, 0, 61, 64
2, 81024, Note_on_c, 0, 62, 92
2, 81216, Note_off_c, 0, 62, 64
2, 81216, Note_on_c, 0, 63, 92
2, 81408, Note_off_c, 0, 63, 64
2, 81408, Note_on_c, 0, 64, 92
2, 81504, Note_off_c, 0, 64, 64
2, 81504, Note_on_c, 0, 59, 92
2, 81600, Note_off_c, 0, 59, 64
2, 81600, Note_on_c, 0, 64, 92
2, 81696, Note_off_c, 0, 64, 64
2, 81696, Note_on_c, 0, 62, 92
2, 81792, Note_off_c, 0, 62, 64
2, 81792, Note_on_c, 0, 60, 92
2, 81984, Note_off_c, 0, 60, 64
2, 81984, Note_on_c, 0, 61, 92
2, 82176, Note_off_c, 0, 61, 64
2, 82176, Note_on_c, 0, 62, 92
2, 82272, Note_off_c, 0, 62, 64
2, 82272, Note_on_c, 0, 57, 92
2, 82368, Note_off_c, 0, 57, 64
2, 82368, Note_on_c, 0, 62, 92
2, 82464, Note_off_c, 0, 62, 64
2, 82464, Note_on_c, 0, 60, 92
2, 82560, Note_off_c, 0, 60, 64
2, 82560, Note_on_c, 0, 59, 92
2, 82944, Note_off_c, 0, 59, 64
2, 82944, Note_on_c, 0, 60, 92
2, 83040, Note_off_c, 0, 60, 64
2, 83040, Note_on_c, 0, 62, 92
2, 83136, Note_off_c, 0, 62, 64
2, 83136, Note_on_c, 0, 64, 92
2, 83328, Note_on_c, 0, 69, 92
2, 83520, Note_off_c, 0, 64, 64
2, 83520, Note_on_c, 0, 62, 92
2, 83712, Note_off_c, 0, 62, 64
2, 83712, Note_off_c, 0, 69, 64
2, 83712, Note_on_c, 0, 64, 92
2, 83712, Note_on_c, 0, 67, 92
2, 83904, Note_off_c, 0, 64, 64
2, 84096, Note_off_c, 0, 67, 64
2, 84096, Note_on_c, 0, 64, 92
2, 84480, Note_off_c, 0, 64, 64
2, 84480, Note_on_c, 0, 65, 92
2, 84672, Note_off_c, 0, 65, 64
2, 84672, Note_on_c, 0, 66, 92
2, 84864, Note_off_c, 0, 66, 64
2, 84864, Note_on_c, 0, 67, 92
2, 85056, Note_off_c, 0, 67, 64
2, 85056, Note_on_c, 0, 68, 92
2, 85248, Note_off_c, 0, 68, 64
2, 85248, Note_on_c, 0, 69, 92
2, 85344, Note_off_c, 0, 69, 64
2, 85344, Note_on_c, 0, 64, 92
2, 85440, Note_off_c, 0, 64, 64
2, 85440, Note_on_c, 0, 69, 92
2, 85536, Note_off_c, 0, 69, 64
2, 85536, Note_on_c, 0, 67, 92
2, 85632, Note_off_c, 0, 67, 64
2, 85632, Note_on_c, 0, 65, 92
2, 85824, Note_off_c, 0, 65, 64
2, 85824, Note_on_c, 0, 66, 92
2, 86016, Note_off_c, 0, 66, 64
2, 86016, Note_on_c, 0, 67, 92
2, 86208, Note_on_c, 0, 64, 92
2, 86304, Note_off_c, 0, 64, 64
2, 86304, Note_on_c, 0, 62, 92
2, 86400, Note_off_c, 0, 62, 64
2, 86400, Note_on_c, 0, 60, 92
2, 86496, Note_off_c, 0, 67, 64
2, 86496, Note_on_c, 0, 69, 92
2, 86592, Note_off_c, 0, 69, 64
2, 86592, Note_on_c, 0, 67, 92
2, 86688, Note_off_c, 0, 67, 64
2, 86688, Note_on_c, 0, 66, 92
2, 86784, Note_off_c, 0, 66, 64
2, 86784, Note_off_c, 0, 60, 64
2, 86784, Note_on_c, 0, 59, 92
2, 86784, Note_on_c, 0, 67, 92
2, 86976, Note_off_c, 0, 59, 64
2, 86976, Note_on_c, 0, 62, 92
2, 87168, Note_off_c, 0, 62, 64
2, 87168, Note_on_c, 0, 64, 92
2, 87552, Note_off_c, 0, 64, 64
2, 87552, Note_off_c, 0, 67, 64
2, 87552, Note_on_c, 0, 62, 92
2, 87744, Note_off_c, 0, 62, 64
2, 87936, Note_on_c, 0, 64, 92
2, 88128, Note_off_c, 0, 64, 64
2, 88320, Note_on_c, 0, 64, 92
2, 88416, Note_off_c, 0, 64, 64
2, 88416, Note_on_c, 0, 57, 92
2, 88512, Note_off_c, 0, 57, 64
2, 88512, Note_on_c, 0, 69, 92
2, 88608, Note_off_c, 0, 69, 64
2, 88608, Note_on_c, 0, 64, 92
2, 88704, Note_off_c, 0, 64, 64
2, 88704, Note_on_c, 0, 66, 92
2, 88800, Note_off_c, 0, 66, 64
2, 88800, Note_on_c, 0, 59, 92
2, 88896, Note_off_c, 0, 59, 64
2, 88896, Note_on_c, 0, 71, 92
2, 88992, Note_off_c, 0, 71, 64
2, 88992, Note_on_c, 0, 66, 92
2, 89088, Note_off_c, 0, 66, 64
2, 89088, Note_on_c, 0, 67, 92
2, 89280, Note_off_c, 0, 67, 64
2, 89280, Note_on_c, 0, 68, 92
2, 89472, Note_off_c, 0, 68, 64
2, 89472, Note_on_c, 0, 69, 92
2, 89664, Note_off_c, 0, 69, 64
2, 89664, Note_on_c, 0, 70, 92
2, 89856, Note_off_c, 0, 70, 64
2, 89856, Note_on_c, 0, 71, 92
2, 89952, Note_off_c, 0, 71, 64
2, 89952, Note_on_c, 0, 66, 92
2, 90048, Note_off_c, 0, 66, 64
2, 90048, Note_on_c, 0, 71, 92
2, 90144, Note_off_c, 0, 71, 64
2, 90144, Note_on_c, 0, 69, 92
2, 90240, Note_off_c, 0, 69, 64
2, 90240, Note_on_c, 0, 67, 92
2, 90336, Note_off_c, 0, 67, 64
2, 90336, Note_on_c, 0, 71, 92
2, 90432, Note_off_c, 0, 71, 64
2, 90432, Note_on_c, 0, 69, 92
2, 90528, Note_off_c, 0, 69, 64
2, 90528, Note_on_c, 0, 67, 92
2, 90624, Note_off_c, 0, 67, 64
2, 90624, Note_on_c, 0, 66, 92
2, 90816, Note_off_c, 0, 66, 64
2, 90816, Note_on_c, 0, 67, 92
2, 91008, Note_off_c, 0, 67, 64
2, 91008, Note_on_c, 0, 64, 92
2, 91200, Note_on_c, 0, 76, 92
2, 91392, Note_off_c, 0, 76, 64
2, 91392, Note_off_c, 0, 64, 64
2, 91392, Note_on_c, 0, 72, 92
2, 91584, Note_on_c, 0, 64, 92
2, 91776, Note_off_c, 0, 64, 64
2, 91776, Note_off_c, 0, 72, 64
2, 91776, Note_on_c, 0, 69, 92
2, 91776, Note_on_c, 0, 65, 92
2, 91872, Note_off_c, 0, 65, 64
2, 91872, Note_on_c, 0, 64, 92
2, 91968, Note_off_c, 0, 64, 64
2, 91968, Note_on_c, 0, 65, 92
2, 92064, Note_off_c, 0, 65, 64
2, 92064, Note_on_c, 0, 60, 92
2, 92160, Note_off_c, 0, 60, 64
2, 92160, Note_off_c, 0, 69, 64
2, 92160, Note_on_c, 0, 64, 92
2, 92160, Note_on_c, 0, 72, 92
2, 92352, Note_off_c, 0, 72, 64
2, 92352, Note_off_c, 0, 64, 64
2, 92352, Note_on_c, 0, 69, 92
2, 92352, Note_on_c, 0, 73, 92
2, 92544, Note_off_c, 0, 73, 64
2, 92544, Note_off_c, 0, 69, 64
2, 92544, Note_on_c, 0, 67, 92
2, 92544, Note_on_c, 0, 74, 92
2, 92736, Note_off_c, 0, 74, 64
2, 92736, Note_off_c, 0, 67, 64
2, 92736, Note_on_c, 0, 66, 92
2, 92736, Note_on_c, 0, 75, 92
2, 92928, Note_off_c, 0, 75, 64
2, 92928, Note_off_c, 0, 66, 64
2, 92928, Note_on_c, 0, 76, 92
2, 92928, Note_on_c, 0, 64, 92
2, 93024, Note_off_c, 0, 76, 64
2, 93024, Note_on_c, 0, 71, 92
2, 93120, Note_off_c, 0, 71, 64
2, 93120, Note_on_c, 0, 72, 92
2, 93216, Note_off_c, 0, 72, 64
2, 93216, Note_on_c, 0, 74, 92
2, 93312, Note_off_c, 0, 74, 64
2, 93312, Note_off_c, 0, 64, 64
2, 93312, Note_on_c, 0, 72, 92
2, 93312, Note_on_c, 0, 64, 92
2, 93408, Note_off_c, 0, 72, 64
2, 93408, Note_on_c, 0, 71, 92
2, 93504, Note_off_c, 0, 71, 64
2, 93504, Note_on_c, 0, 72, 92
2, 93600, Note_off_c, 0, 72, 64
2, 93600, Note_on_c, 0, 67, 92
2, 93696, Note_off_c, 0, 67, 64
2, 93696, Note_on_c, 0, 69, 92
2, 93792, Note_off_c, 0, 69, 64
2, 93792, Note_on_c, 0, 71, 92
2, 93888, Note_off_c, 0, 71, 64
2, 93888, Note_off_c, 0, 64, 64
2, 93888, Note_on_c, 0, 62, 92
2, 93888, Note_on_c, 0, 72, 92
2, 93984, Note_off_c, 0, 72, 64
2, 93984, Note_on_c, 0, 74, 92
2, 94080, Note_off_c, 0, 74, 64
2, 94080, Note_on_c, 0, 71, 92
2, 94176, Note_off_c, 0, 62, 64
2, 94272, Note_off_c, 0, 71, 64
2, 94272, Note_on_c, 0, 67, 92
2, 94464, Note_off_c, 0, 67, 64
2, 94464, Note_on_c, 0, 72, 92
2, 94560, Note_off_c, 0, 72, 64
2, 94560, Note_on_c, 0, 71, 92
2, 94656, Note_off_c, 0, 71, 64
2, 94656, Note_on_c, 0, 72, 92
2, 94752, Note_off_c, 0, 72, 64
2, 94752, Note_on_c, 0, 74, 92
2, 94848, Note_off_c, 0, 74, 64
2, 94848, Note_on_c, 0, 72, 92
2, 94848, Note_on_c, 0, 79, 92
2, 94944, Note_off_c, 0, 79, 64
2, 94944, Note_on_c, 0, 77, 92
2, 95040, Note_off_c, 0, 77, 64
2, 95040, Note_off_c, 0, 72, 64
2, 95040, Note_on_c, 0, 71, 92
2, 95040, Note_on_c, 0, 79, 92
2, 95136, Note_off_c, 0, 79, 64
2, 95136, Note_on_c, 0, 74, 92
2, 95232, Note_off_c, 0, 74, 64
2, 95232, Note_off_c, 0, 71, 64
2, 95232, Note_on_c, 0, 72, 92
2, 95232, Note_on_c, 0, 75, 92
2, 95328, Note_off_c, 0, 75, 64
2, 95328, Note_on_c, 0, 74, 92
2, 95424, Note_off_c, 0, 74, 64
2, 95424, Note_on_c, 0, 75, 92
2, 95520, Note_off_c, 0, 75, 64
2, 95520, Note_off_c, 0, 72, 64
2, 95520, Note_on_c, 0, 72, 92
2, 95616, Note_off_c, 0, 72, 64
2, 95616, Note_on_c, 0, 75, 92
2, 95616, Note_on_c, 0, 72, 92
2, 95712, Note_off_c, 0, 72, 64
2, 95712, Note_on_c, 0, 70, 92
2, 95808, Note_off_c, 0, 70, 64
2, 95808, Note_off_c, 0, 75, 64
2, 95808, Note_on_c, 0, 76, 92
2, 95808, Note_on_c, 0, 72, 92
2, 95904, Note_off_c, 0, 72, 64
2, 95904, Note_on_c, 0, 67, 92
2, 96000, Note_off_c, 0, 67, 64
2, 96000, Note_off_c, 0, 76, 64
2, 96000, Note_on_c, 0, 77, 92
2, 96000, Note_on_c, 0, 68, 92
2, 96096, Note_off_c, 0, 68, 64
2, 96096, Note_on_c, 0, 67, 92
2, 96192, Note_off_c, 0, 67, 64
2, 96192, Note_off_c, 0, 77, 64
2, 96192, Note_on_c, 0, 77, 92
2, 96192, Note_on_c, 0, 68, 92
2, 96288, Note_off_c, 0, 68, 64
2, 96288, Note_on_c, 0, 67, 92
2, 96384, Note_off_c, 0, 67, 64
2, 96384, Note_off_c, 0, 77, 64
2, 96384, Note_on_c, 0, 68, 92
2, 96384, Note_on_c, 0, 77, 92
2, 96576, Note_off_c, 0, 77, 64
2, 96576, Note_off_c, 0, 68, 64
2, 96576, Note_on_c, 0, 69, 92
2, 96576, Note_on_c, 0, 78, 92
2, 96768, Note_off_c, 0, 78, 64
2, 96768, Note_off_c, 0, 69, 64
2, 96768, Note_on_c, 0, 79, 92
2, 96768, Note_on_c, 0, 70, 92
2, 96864, Note_off_c, 0, 79, 64
2, 96864, Note_on_c, 0, 74, 92
2, 96960, Note_off_c, 0, 74, 64
2, 96960, Note_off_c, 0, 70, 64
2, 96960, Note_on_c, 0, 79, 92
2, 96960, Note_on_c, 0, 70, 92
2, 97056, Note_off_c, 0, 79, 64
2, 97056, Note_on_c, 0, 77, 92
2, 97152, Note_off_c, 0, 77, 64
2, 97152, Note_off_c, 0, 70, 64
2, 97152, Note_on_c, 0, 70, 92
2, 97152, Note_on_c, 0, 75, 92
2, 97344, Note_off_c, 0, 75, 64
2, 97344, Note_off_c, 0, 70, 64
2, 97344, Note_on_c, 0, 71, 92
2, 97344, Note_on_c, 0, 74, 92
2, 97536, Note_off_c, 0, 74, 64
2, 97536, Note_off_c, 0, 71, 64
2, 97536, Note_on_c, 0, 72, 92
2, 97728, Note_on_c, 0, 67, 92
2, 97920, Note_off_c, 0, 67, 64
2, 97920, Note_off_c, 0, 72, 64
2, 98304, Note_on_c, 0, 72, 92
2, 99072, Note_off_c, 0, 72, 64
2, 99072, Note_on_c, 0, 74, 92
2, 99456, Note_on_c, 0, 79, 92
2, 99552, Note_off_c, 0, 79, 64
2, 99552, Note_on_c, 0, 77, 92
2, 99648, Note_off_c, 0, 77, 64
2, 99648, Note_on_c, 0, 79, 92
2, 99744, Note_off_c, 0, 79, 64
2, 99744, Note_off_c, 0, 74, 64
2, 99744, Note_on_c, 0, 74, 92
2, 99840, Note_off_c, 0, 74, 64
2, 99840, Note_on_c, 0, 72, 92
2, 99840, Note_on_c, 0, 75, 92
2, 99936, Note_off_c, 0, 75, 64
2, 99936, Note_on_c, 0, 74, 92
2, 100032, Note_off_c, 0, 74, 64
2, 100032, Note_on_c, 0, 75, 92
2, 100128, Note_off_c, 0, 75, 64
2, 100128, Note_off_c, 0, 72, 64
2, 100128, Note_on_c, 0, 72, 92
2, 100224, Note_off_c, 0, 72, 64
2, 100224, Note_on_c, 0, 69, 92
2, 100224, Note_on_c, 0, 74, 92
2, 100320, Note_off_c, 0, 74, 64
2, 100320, Note_on_c, 0, 72, 92
2, 100416, Note_off_c, 0, 72, 64
2, 100416, Note_off_c, 0, 69, 64
2, 100416, Note_on_c, 0, 62, 92
2, 100416, Note_on_c, 0, 74, 92
2, 100512, Note_off_c, 0, 74, 64
2, 100512, Note_on_c, 0, 69, 92
2, 100608, Note_off_c, 0, 69, 64
2, 100608, Note_off_c, 0, 62, 64
2, 100608, Note_on_c, 0, 62, 92
2, 100608, Note_on_c, 0, 70, 92
2, 100704, Note_off_c, 0, 70, 64
2, 100704, Note_on_c, 0, 69, 92
2, 100800, Note_off_c, 0, 69, 64
2, 100800, Note_on_c, 0, 70, 92
2, 100896, Note_off_c, 0, 70, 64
2, 100896, Note_on_c, 0, 67, 92
2, 100992, Note_off_c, 0, 67, 64
2, 100992, Note_off_c, 0, 62, 64
2, 100992, Note_on_c, 0, 70, 92
2, 100992, Note_on_c, 0, 67, 92
2, 101088, Note_off_c, 0, 67, 64
2, 101088, Note_on_c, 0, 65, 92
2, 101184, Note_off_c, 0, 65, 64
2, 101184, Note_off_c, 0, 70, 64
2, 101184, Note_on_c, 0, 71, 92
2, 101184, Note_on_c, 0, 67, 92
2, 101280, Note_off_c, 0, 67, 64
2, 101280, Note_on_c, 0, 62, 92
2, 101376, Note_off_c, 0, 62, 64
2, 101376, Note_off_c, 0, 71, 64
2, 101376, Note_on_c, 0, 72, 92
2, 101376, Note_on_c, 0, 63, 92
2, 101472, Note_off_c, 0, 63, 64
2, 101472, Note_on_c, 0, 62, 92
2, 101568, Note_off_c, 0, 62, 64
2, 101568, Note_off_c, 0, 72, 64
2, 101568, Note_on_c, 0, 72, 92
2, 101568, Note_on_c, 0, 63, 92
2, 101664, Note_off_c, 0, 63, 64
2, 101664, Note_on_c, 0, 60, 92
2, 101760, Note_off_c, 0, 60, 64
2, 101760, Note_off_c, 0, 72, 64
2, 101760, Note_on_c, 0, 63, 92
2, 101760, Note_on_c, 0, 72, 92
2, 101952, Note_off_c, 0, 72, 64
2, 101952, Note_off_c, 0, 63, 64
2, 101952, Note_on_c, 0, 64, 92
2, 101952, Note_on_c, 0, 73, 92
2, 102144, Note_off_c, 0, 73, 64
2, 102144, Note_off_c, 0, 64, 64
2, 102144, Note_on_c, 0, 65, 92
2, 102144, Note_on_c, 0, 74, 92
2, 102240, Note_off_c, 0, 74, 64
2, 102240, Note_on_c, 0, 69, 92
2, 102336, Note_off_c, 0, 69, 64
2, 102336, Note_off_c, 0, 65, 64
2, 102336, Note_on_c, 0, 65, 92
2, 102336, Note_on_c, 0, 74, 92
2, 102432, Note_off_c, 0, 74, 64
2, 102432, Note_on_c, 0, 72, 92
2, 102528, Note_off_c, 0, 72, 64
2, 102528, Note_off_c, 0, 65, 64
2, 102528, Note_on_c, 0, 65, 92
2, 102528, Note_on_c, 0, 70, 92
2, 102720, Note_off_c, 0, 70, 64
2, 102720, Note_off_c, 0, 65, 64
2, 102720, Note_on_c, 0, 66, 92
2, 102720, Note_on_c, 0, 69, 92
2, 102912, Note_off_c, 0, 69, 64
2, 102912, Note_off_c, 0, 66, 64
2, 102912, Note_on_c, 0, 67, 92
2, 103296, Note_off_c, 0, 67, 64
2, 104832, Note_on_c, 0, 74, 92
2, 104928, Note_off_c, 0, 74, 64
2, 104928, Note_on_c, 0, 72, 92
2, 105024, Note_off_c, 0, 72, 64
2, 105024, Note_on_c, 0, 74, 92
2, 105120, Note_off_c, 0, 74, 64
2, 105120, Note_on_c, 0, 69, 92
2, 105216, Note_off_c, 0, 69, 64
2, 105216, Note_on_c, 0, 70, 92
2, 105312, Note_off_c, 0, 70, 64
2, 105312, Note_on_c, 0, 69, 92
2, 105408, Note_off_c, 0, 69, 64
2, 105408, Note_on_c, 0, 70, 92
2, 105504, Note_off_c, 0, 70, 64
2, 105504, Note_on_c, 0, 67, 92
2, 105600, Note_off_c, 0, 67, 64
2, 105600, Note_on_c, 0, 69, 92
2, 105696, Note_off_c, 0, 69, 64
2, 105696, Note_on_c, 0, 67, 92
2, 105792, Note_off_c, 0, 67, 64
2, 105792, Note_on_c, 0, 69, 92
2, 105888, Note_off_c, 0, 69, 64
2, 105888, Note_on_c, 0, 64, 92
2, 105984, Note_off_c, 0, 64, 64
2, 105984, Note_on_c, 0, 65, 92
2, 106080, Note_off_c, 0, 65, 64
2, 106080, Note_on_c, 0, 64, 92
2, 106176, Note_off_c, 0, 64, 64
2, 106176, Note_on_c, 0, 65, 92
2, 106272, Note_off_c, 0, 65, 64
2, 106272, Note_on_c, 0, 62, 92
2, 106368, Note_off_c, 0, 62, 64
2, 106368, Note_on_c, 0, 65, 92
2, 106560, Note_off_c, 0, 65, 64
2, 106560, Note_on_c, 0, 66, 92
2, 106752, Note_off_c, 0, 66, 64
2, 106752, Note_on_c, 0, 67, 92
2, 106944, Note_off_c, 0, 67, 64
2, 106944, Note_on_c, 0, 67, 92
2, 107136, Note_off_c, 0, 67, 64
2, 107136, Note_on_c, 0, 67, 92
2, 107328, Note_off_c, 0, 67, 64
2, 107328, Note_on_c, 0, 68, 92
2, 107520, Note_off_c, 0, 68, 64
2, 107520, Note_on_c, 0, 69, 92
2, 107808, Note_off_c, 0, 69, 64
2, 107808, Note_on_c, 0, 77, 92
2, 107904, Note_off_c, 0, 77, 64
2, 107904, Note_on_c, 0, 76, 92
2, 108288, Note_off_c, 0, 76, 64
2, 108288, Note_on_c, 0, 69, 92
2, 108480, Note_off_c, 0, 69, 64
2, 108480, Note_on_c, 0, 74, 92
2, 108768, Note_off_c, 0, 74, 64
2, 108768, Note_on_c, 0, 72, 92
2, 108864, Note_off_c, 0, 72, 64
2, 108864, Note_on_c, 0, 74, 92
2, 108960, Note_off_c, 0, 74, 64
2, 108960, Note_on_c, 0, 69, 92
2, 109056, Note_off_c, 0, 69, 64
2, 109056, Note_on_c, 0, 70, 92
2, 109152, Note_off_c, 0, 70, 64
2, 109152, Note_on_c, 0, 69, 92
2, 109248, Note_off_c, 0, 69, 64
2, 109248, Note_on_c, 0, 70, 92
2, 109344, Note_off_c, 0, 70, 64
2, 109344, Note_on_c, 0, 67, 92
2, 109440, Note_off_c, 0, 67, 64
2, 109440, Note_on_c, 0, 72, 92
2, 109440, Note_on_c, 0, 67, 92
2, 109536, Note_off_c, 0, 67, 64
2, 109536, Note_on_c, 0, 65, 92
2, 109632, Note_off_c, 0, 65, 64
2, 109632, Note_on_c, 0, 67, 92
2, 109728, Note_off_c, 0, 67, 64
2, 109728, Note_off_c, 0, 72, 64
2, 109728, Note_on_c, 0, 74, 92
2, 109728, Note_on_c, 0, 62, 92
2, 109824, Note_off_c, 0, 62, 64
2, 109824, Note_off_c, 0, 74, 64
2, 109824, Note_on_c, 0, 67, 92
2, 109824, Note_on_c, 0, 64, 92
2, 109920, Note_off_c, 0, 64, 64
2, 109920, Note_on_c, 0, 62, 92
2, 110016, Note_off_c, 0, 62, 64
2, 110016, Note_off_c, 0, 67, 64
2, 110016, Note_on_c, 0, 64, 92
2, 110112, Note_off_c, 0, 64, 64
2, 110112, Note_on_c, 0, 60, 92
2, 110208, Note_off_c, 0, 60, 64
2, 110208, Note_on_c, 0, 64, 92
2, 110208, Note_on_c, 0, 81, 92
2, 110304, Note_off_c, 0, 81, 64
2, 110304, Note_on_c, 0, 79, 92
2, 110400, Note_off_c, 0, 79, 64
2, 110400, Note_on_c, 0, 81, 92
2, 110496, Note_off_c, 0, 81, 64
2, 110496, Note_on_c, 0, 76, 92
2, 110592, Note_off_c, 0, 76, 64
2, 110592, Note_off_c, 0, 64, 64
2, 110592, Note_on_c, 0, 62, 92
2, 110592, Note_on_c, 0, 77, 92
2, 110688, Note_off_c, 0, 77, 64
2, 110688, Note_on_c, 0, 76, 92
2, 110784, Note_off_c, 0, 76, 64
2, 110784, Note_off_c, 0, 62, 64
2, 110784, Note_on_c, 0, 64, 92
2, 110784, Note_on_c, 0, 74, 92
2, 110880, Note_off_c, 0, 74, 64
2, 110880, Note_on_c, 0, 72, 92
2, 110976, Note_off_c, 0, 72, 64
2, 110976, Note_off_c, 0, 64, 64
2, 110976, Note_on_c, 0, 65, 92
2, 110976, Note_on_c, 0, 71, 92
2, 111072, Note_off_c, 0, 71, 64
2, 111072, Note_on_c, 0, 72, 92
2, 111168, Note_off_c, 0, 72, 64
2, 111168, Note_off_c, 0, 65, 64
2, 111168, Note_on_c, 0, 66, 92
2, 111168, Note_on_c, 0, 71, 92
2, 111264, Note_off_c, 0, 71, 64
2, 111264, Note_on_c, 0, 69, 92
2, 111360, Note_off_c, 0, 69, 64
2, 111360, Note_off_c, 0, 66, 64
2, 111360, Note_on_c, 0, 64, 92
2, 111360, Note_on_c, 0, 68, 92
2, 111456, Note_off_c, 0, 68, 64
2, 111456, Note_on_c, 0, 76, 92
2, 111552, Note_off_c, 0, 76, 64
2, 111552, Note_on_c, 0, 74, 92
2, 111648, Note_off_c, 0, 74, 64
2, 111648, Note_on_c, 0, 72, 92
2, 111744, Note_off_c, 0, 72, 64
2, 111744, Note_off_c, 0, 64, 64
2, 111744, Note_on_c, 0, 71, 92
2, 111840, Note_on_c, 0, 64, 92
2, 111936, Note_off_c, 0, 64, 64
2, 111936, Note_off_c, 0, 71, 64
2, 111936, Note_on_c, 0, 72, 92
2, 111936, Note_on_c, 0, 62, 92
2, 112032, Note_off_c, 0, 62, 64
2, 112032, Note_on_c, 0, 60, 92
2, 112128, Note_off_c, 0, 60, 64
2, 112128, Note_off_c, 0, 72, 64
2, 112128, Note_on_c, 0, 62, 92
2, 112128, Note_on_c, 0, 68, 92
2, 112224, Note_off_c, 0, 62, 64
2, 112224, Note_on_c, 0, 65, 92
2, 112320, Note_off_c, 0, 65, 64
2, 112320, Note_off_c, 0, 68, 64
2, 112320, Note_on_c, 0, 64, 92
2, 112320, Note_on_c, 0, 69, 92
2, 112512, Note_off_c, 0, 69, 64
2, 112512, Note_on_c, 0, 69, 92
2, 112704, Note_off_c, 0, 64, 64
2, 112704, Note_on_c, 0, 62, 92
2, 112800, Note_off_c, 0, 69, 64
2, 112800, Note_on_c, 0, 68, 92
2, 112896, Note_off_c, 0, 68, 64
2, 112896, Note_off_c, 0, 62, 64
2, 112896, Note_on_c, 0, 61, 92
2, 112896, Note_on_c, 0, 69, 92
2, 113280, Note_off_c, 0, 69, 64
2, 113280, Note_off_c, 0, 61, 64
2, 113760, Note_on_c, 0, 71, 92
2, 113856, Note_off_c, 0, 71, 64
2, 113856, Note_on_c, 0, 73, 92
2, 113952, Note_off_c, 0, 73, 64
2, 113952, Note_on_c, 0, 74, 92
2, 114048, Note_off_c, 0, 74, 64
2, 114048, Note_on_c, 0, 76, 92
2, 114144, Note_off_c, 0, 76, 64
2, 114144, Note_on_c, 0, 77, 92
2, 114240, Note_off_c, 0, 77, 64
2, 114240, Note_on_c, 0, 79, 92
2, 114336, Note_off_c, 0, 79, 64
2, 114336, Note_on_c, 0, 81, 92
2, 114432, Note_off_c, 0, 81, 64
2, 114432, Note_on_c, 0, 77, 92
2, 114528, Note_off_c, 0, 77, 64
2, 114528, Note_on_c, 0, 79, 92
2, 114624, Note_off_c, 0, 79, 64
2, 114624, Note_on_c, 0, 74, 92
2, 114720, Note_off_c, 0, 74, 64
2, 114720, Note_on_c, 0, 76, 92
2, 114816, Note_off_c, 0, 76, 64
2, 114816, Note_on_c, 0, 77, 92
2, 114912, Note_off_c, 0, 77, 64
2, 114912, Note_on_c, 0, 74, 92
2, 115008, Note_off_c, 0, 74, 64
2, 115008, Note_on_c, 0, 76, 92
2, 115104, Note_off_c, 0, 76, 64
2, 115104, Note_on_c, 0, 77, 92
2, 115200, Note_off_c, 0, 77, 64
2, 115200, Note_on_c, 0, 73, 92
2, 115296, Note_off_c, 0, 73, 64
2, 115296, Note_on_c, 0, 76, 92
2, 115392, Note_off_c, 0, 76, 64
2, 115392, Note_on_c, 0, 74, 92
2, 115488, Note_off_c, 0, 74, 64
2, 115488, Note_on_c, 0, 73, 92
2, 115584, Note_off_c, 0, 73, 64
2, 115584, Note_on_c, 0, 74, 92
2, 115680, Note_off_c, 0, 74, 64
2, 115680, Note_on_c, 0, 76, 92
2, 115776, Note_off_c, 0, 76, 64
2, 115776, Note_on_c, 0, 74, 92
2, 115872, Note_off_c, 0, 74, 64
2, 115872, Note_on_c, 0, 76, 92
2, 115968, Note_off_c, 0, 76, 64
2, 115968, Note_on_c, 0, 77, 92
2, 116064, Note_off_c, 0, 77, 64
2, 116064, Note_on_c, 0, 81, 92
2, 116160, Note_off_c, 0, 81, 64
2, 116160, Note_on_c, 0, 79, 92
2, 116256, Note_off_c, 0, 79, 64
2, 116256, Note_on_c, 0, 77, 92
2, 116352, Note_off_c, 0, 77, 64
2, 116352, Note_on_c, 0, 76, 92
2, 116448, Note_off_c, 0, 76, 64
2, 116448, Note_on_c, 0, 79, 92
2, 116544, Note_off_c, 0, 79, 64
2, 116544, Note_on_c, 0, 77, 92
2, 116640, Note_off_c, 0, 77, 64
2, 116640, Note_on_c, 0, 76, 92
2, 116736, Note_off_c, 0, 76, 64
2, 116736, Note_on_c, 0, 74, 92
2, 116832, Note_off_c, 0, 74, 64
2, 116832, Note_on_c, 0, 77, 92
2, 116928, Note_off_c, 0, 77, 64
2, 116928, Note_on_c, 0, 76, 92
2, 117024, Note_off_c, 0, 76, 64
2, 117024, Note_on_c, 0, 74, 92
2, 117216, Note_off_c, 0, 74, 64
2, 117216, Note_on_c, 0, 76, 92
2, 117312, Note_off_c, 0, 76, 64
2, 117312, Note_on_c, 0, 74, 92
2, 117408, Note_off_c, 0, 74, 64
2, 117408, Note_on_c, 0, 73, 92
2, 117504, Note_off_c, 0, 73, 64
2, 117504, Note_on_c, 0, 74, 92
2, 117600, Note_off_c, 0, 74, 64
2, 117600, Note_on_c, 0, 77, 92
2, 117696, Note_off_c, 0, 77, 64
2, 117696, Note_on_c, 0, 76, 92
2, 117792, Note_off_c, 0, 76, 64
2, 117792, Note_on_c, 0, 74, 92
2, 117888, Note_off_c, 0, 74, 64
2, 117888, Note_on_c, 0, 76, 92
2, 117936, Note_off_c, 0, 76, 64
2, 117936, Note_on_c, 0, 74, 92
2, 117984, Note_off_c, 0, 74, 64
2, 117984, Note_on_c, 0, 76, 92
2, 118032, Note_off_c, 0, 76, 64
2, 118032, Note_on_c, 0, 74, 92
2, 118080, Note_off_c, 0, 74, 64
2, 118080, Note_on_c, 0, 76, 92
2, 118128, Note_off_c, 0, 76, 64
2, 118128, Note_on_c, 0, 74, 92
2, 118176, Note_off_c, 0, 74, 64
2, 118176, Note_on_c, 0, 73, 92
2, 118272, Note_off_c, 0, 73, 64
2, 118272, Note_on_c, 0, 74, 92
2, 118464, Note_off_c, 0, 74, 64
2, 119232, Note_on_c, 0, 74, 92
2, 119424, Note_off_c, 0, 74, 64
2, 119424, Note_on_c, 0, 74, 92
2, 119712, Note_off_c, 0, 74, 64
2, 119712, Note_on_c, 0, 73, 92
2, 119808, Note_off_c, 0, 73, 64
2, 119808, Note_on_c, 0, 74, 92
2, 119904, Note_off_c, 0, 74, 64
2, 119904, Note_on_c, 0, 77, 92
2, 120000, Note_off_c, 0, 77, 64
2, 120000, Note_on_c, 0, 76, 92
2, 120096, Note_off_c, 0, 76, 64
2, 120096, Note_on_c, 0, 79, 92
2, 120192, Note_off_c, 0, 79, 64
2, 120192, Note_on_c, 0, 77, 92
2, 120288, Note_off_c, 0, 77, 64
2, 120288, Note_on_c, 0, 81, 92
2, 120384, Note_off_c, 0, 81, 64
2, 120384, Note_on_c, 0, 79, 92
2, 120480, Note_off_c, 0, 79, 64
2, 120480, Note_on_c, 0, 82, 92
2, 120576, Note_off_c, 0, 82, 64
2, 120576, Note_on_c, 0, 81, 92
2, 120672, Note_on_c, 0, 74, 92
2, 120768, Note_off_c, 0, 74, 64
2, 120768, Note_off_c, 0, 81, 64
2, 120768, Note_on_c, 0, 82, 92
2, 120864, Note_on_c, 0, 74, 92
2, 120960, Note_off_c, 0, 74, 64
2, 120960, Note_off_c, 0, 82, 64
2, 120960, Note_on_c, 0, 81, 92
2, 121056, Note_on_c, 0, 74, 92
2, 121152, Note_off_c, 0, 74, 64
2, 121152, Note_off_c, 0, 81, 64
2, 121152, Note_on_c, 0, 79, 92
2, 121248, Note_on_c, 0, 73, 92
2, 121344, Note_off_c, 0, 73, 64
2, 121344, Note_off_c, 0, 79, 64
2, 121344, Note_on_c, 0, 74, 92
2, 121344, Note_on_c, 0, 77, 92
2, 121440, Note_on_c, 0, 69, 92
2, 121536, Note_off_c, 0, 69, 64
2, 121536, Note_off_c, 0, 77, 64
2, 121536, Note_off_c, 0, 74, 64
2, 121536, Note_on_c, 0, 76, 92
2, 121536, Note_on_c, 0, 79, 92
2, 121632, Note_on_c, 0, 69, 92
2, 121728, Note_off_c, 0, 69, 64
2, 121728, Note_off_c, 0, 79, 64
2, 121728, Note_off_c, 0, 76, 64
2, 121728, Note_on_c, 0, 74, 92
2, 121728, Note_on_c, 0, 77, 92
2, 121824, Note_on_c, 0, 69, 92
2, 121920, Note_off_c, 0, 69, 64
2, 121920, Note_off_c, 0, 77, 64
2, 121920, Note_off_c, 0, 74, 64
2, 121920, Note_on_c, 0, 74, 92
2, 121920, Note_on_c, 0, 77, 92
2, 122016, Note_on_c, 0, 69, 92
2, 122112, Note_off_c, 0, 69, 64
2, 122112, Note_off_c, 0, 77, 64
2, 122112, Note_off_c, 0, 74, 64
2, 122112, Note_on_c, 0, 74, 92
2, 122112, Note_on_c, 0, 77, 92
2, 122208, Note_on_c, 0, 70, 92
2, 122304, Note_off_c, 0, 70, 64
2, 122304, Note_off_c, 0, 77, 64
2, 122304, Note_off_c, 0, 74, 64
2, 122304, Note_on_c, 0, 74, 92
2, 122304, Note_on_c, 0, 76, 92
2, 122400, Note_on_c, 0, 71, 92
2, 122496, Note_off_c, 0, 71, 64
2, 122496, Note_off_c, 0, 76, 64
2, 122496, Note_off_c, 0, 74, 64
2, 122496, Note_on_c, 0, 74, 92
2, 122496, Note_on_c, 0, 76, 92
2, 122592, Note_on_c, 0, 69, 92
2, 122688, Note_off_c, 0, 69, 64
2, 122688, Note_off_c, 0, 76, 64
2, 122688, Note_off_c, 0, 74, 64
2, 122688, Note_on_c, 0, 73, 92
2, 122688, Note_on_c, 0, 76, 92
2, 122784, Note_on_c, 0, 67, 92
2, 122880, Note_off_c, 0, 67, 64
2, 122880, Note_off_c, 0, 76, 64
2, 122880, Note_off_c, 0, 73, 64
2, 122880, Note_on_c, 0, 69, 92
2, 122880, Note_on_c, 0, 74, 92
2, 122976, Note_on_c, 0, 65, 92
2, 123072, Note_off_c, 0, 65, 64
2, 123072, Note_off_c, 0, 74, 64
2, 123072, Note_off_c, 0, 69, 64
2, 123072, Note_on_c, 0, 70, 92
2, 123072, Note_on_c, 0, 76, 92
2, 123168, Note_on_c, 0, 67, 92
2, 123264, Note_off_c, 0, 67, 64
2, 123264, Note_off_c, 0, 76, 64
2, 123264, Note_off_c, 0, 70, 64
2, 123264, Note_on_c, 0, 65, 92
2, 123264, Note_on_c, 0, 69, 92
2, 123360, Note_on_c, 0, 74, 92
2, 123456, Note_off_c, 0, 74, 64
2, 123456, Note_off_c, 0, 69, 64
2, 123456, Note_off_c, 0, 65, 64
2, 123456, Note_on_c, 0, 64, 92
2, 123456, Note_on_c, 0, 67, 92
2, 123552, Note_on_c, 0, 73, 92
2, 123648, Note_off_c, 0, 73, 64
2, 123648, Note_off_c, 0, 67, 64
2, 123648, Note_off_c, 0, 64, 64
2, 123648, Note_on_c, 0, 62, 92
2, 123648, Note_on_c, 0, 65, 92
2, 123744, Note_on_c, 0, 74, 92
2, 123840, Note_off_c, 0, 74, 64
2, 123840, Note_off_c, 0, 65, 64
2, 123840, Note_off_c, 0, 62, 64
2, 123840, Note_on_c, 0, 62, 92
2, 123840, Note_on_c, 0, 69, 92
2, 123936, Note_on_c, 0, 74, 92
2, 124032, Note_off_c, 0, 74, 64
2, 124032, Note_off_c, 0, 69, 64
2, 124032, Note_off_c, 0, 62, 64
2, 124032, Note_on_c, 0, 58, 92
2, 124032, Note_on_c, 0, 67, 92
2, 124128, Note_on_c, 0, 74, 92
2, 124224, Note_off_c, 0, 74, 64
2, 124224, Note_off_c, 0, 67, 64
2, 124224, Note_off_c, 0, 58, 64
2, 124224, Note_on_c, 0, 65, 92
2, 124224, Note_on_c, 0, 64, 92
2, 124320, Note_on_c, 0, 73, 92
2, 124416, Note_off_c, 0, 73, 64
2, 124416, Note_off_c, 0, 64, 64
2, 124416, Note_off_c, 0, 65, 64
2, 124416, Note_on_c, 0, 74, 92
2, 124416, Note_on_c, 0, 65, 92
2, 124416, Note_on_c, 0, 62, 92
2, 124800, Note_off_c, 0, 62, 64
2, 124800, Note_off_c, 0, 65, 64
2, 124800, Note_off_c, 0, 74, 64
2, 126048, Note_on_c, 0, 64, 92
2, 126048, Note_on_c, 0, 73, 92
2, 126144, Note_off_c, 0, 73, 64
2, 126144, Note_off_c, 0, 64, 64
2, 126144, Note_on_c, 0, 65, 92
2, 126144, Note_on_c, 0, 74, 92
2, 126240, Note_off_c, 0, 74, 64
2, 126240, Note_off_c, 0, 65, 64
2, 126240, Note_on_c, 0, 67, 92
2, 126240, Note_on_c, 0, 76, 92
2, 126336, Note_off_c, 0, 76, 64
2, 126336, Note_off_c, 0, 67, 64
2, 126336, Note_on_c, 0, 65, 92
2, 126336, Note_on_c, 0, 74, 92
2, 126432, Note_off_c, 0, 74, 64
2, 126432, Note_off_c, 0, 65, 64
2, 126432, Note_on_c, 0, 67, 92
2, 126432, Note_on_c, 0, 76, 92
2, 126528, Note_off_c, 0, 76, 64
2, 126528, Note_off_c, 0, 67, 64
2, 126528, Note_on_c, 0, 69, 92
2, 126528, Note_on_c, 0, 77, 92
2, 126624, Note_off_c, 0, 77, 64
2, 126624, Note_off_c, 0, 69, 64
2, 126624, Note_on_c, 0, 67, 92
2, 126624, Note_on_c, 0, 76, 92
2, 126720, Note_off_c, 0, 76, 64
2, 126720, Note_off_c, 0, 67, 64
2, 126720, Note_on_c, 0, 69, 92
2, 126720, Note_on_c, 0, 77, 92
2, 126816, Note_off_c, 0, 77, 64
2, 126816, Note_off_c, 0, 69, 64
2, 126816, Note_on_c, 0, 64, 92
2, 126816, Note_on_c, 0, 79, 92
2, 126912, Note_off_c, 0, 79, 64
2, 126912, Note_off_c, 0, 64, 64
2, 126912, Note_on_c, 0, 65, 92
2, 126912, Note_on_c, 0, 81, 92
2, 127008, Note_off_c, 0, 81, 64
2, 127008, Note_off_c, 0, 65, 64
2, 127008, Note_on_c, 0, 64, 92
2, 127008, Note_on_c, 0, 79, 92
2, 127104, Note_off_c, 0, 79, 64
2, 127104, Note_off_c, 0, 64, 64
2, 127104, Note_on_c, 0, 65, 92
2, 127104, Note_on_c, 0, 81, 92
2, 127200, Note_off_c, 0, 81, 64
2, 127200, Note_off_c, 0, 65, 64
2, 127200, Note_on_c, 0, 67, 92
2, 127200, Note_on_c, 0, 76, 92
2, 127296, Note_off_c, 0, 76, 64
2, 127296, Note_off_c, 0, 67, 64
2, 127296, Note_on_c, 0, 69, 92
2, 127296, Note_on_c, 0, 77, 92
2, 127392, Note_off_c, 0, 77, 64
2, 127392, Note_off_c, 0, 69, 64
2, 127392, Note_on_c, 0, 65, 92
2, 127392, Note_on_c, 0, 74, 92
2, 127488, Note_off_c, 0, 74, 64
2, 127488, Note_off_c, 0, 65, 64
2, 127584, Note_on_c, 0, 64, 92
2, 127584, Note_on_c, 0, 79, 92
2, 127680, Note_off_c, 0, 79, 64
2, 127680, Note_off_c, 0, 64, 64
2, 127680, Note_on_c, 0, 65, 92
2, 127680, Note_on_c, 0, 81, 92
2, 127776, Note_off_c, 0, 81, 64
2, 127776, Note_off_c, 0, 65, 64
2, 127776, Note_on_c, 0, 64, 92
2, 127776, Note_on_c, 0, 79, 92
2, 127872, Note_off_c, 0, 79, 64
2, 127872, Note_off_c, 0, 64, 64
2, 127872, Note_on_c, 0, 62, 92
2, 127872, Note_on_c, 0, 77, 92
2, 127968, Note_off_c, 0, 77, 64
2, 127968, Note_off_c, 0, 62, 64
2, 127968, Note_on_c, 0, 65, 92
2, 127968, Note_on_c, 0, 74, 92
2, 128064, Note_off_c, 0, 74, 64
2, 128064, Note_off_c, 0, 65, 64
2, 128064, Note_on_c, 0, 67, 92
2, 128064, Note_on_c, 0, 76, 92
2, 128160, Note_off_c, 0, 76, 64
2, 128160, Note_off_c, 0, 67, 64
2, 128160, Note_on_c, 0, 69, 92
2, 128160, Note_on_c, 0, 77, 92
2, 128256, Note_off_c, 0, 77, 64
2, 128256, Note_off_c, 0, 69, 64
2, 128256, Note_on_c, 0, 67, 92
2, 128256, Note_on_c, 0, 76, 92
2, 128256, Note_on_c, 0, 73, 92
2, 128304, Note_off_c, 0, 76, 64
2, 128304, Note_off_c, 0, 67, 64
2, 128304, Note_on_c, 0, 77, 92
2, 128304, Note_on_c, 0, 69, 92
2, 128352, Note_off_c, 0, 69, 64
2, 128352, Note_off_c, 0, 77, 64
2, 128352, Note_on_c, 0, 76, 92
2, 128352, Note_on_c, 0, 67, 92
2, 128400, Note_off_c, 0, 67, 64
2, 128400, Note_off_c, 0, 76, 64
2, 128400, Note_on_c, 0, 77, 92
2, 128400, Note_on_c, 0, 69, 92
2, 128448, Note_off_c, 0, 69, 64
2, 128448, Note_off_c, 0, 77, 64
2, 128448, Note_on_c, 0, 76, 92
2, 128448, Note_on_c, 0, 67, 92
2, 128496, Note_off_c, 0, 67, 64
2, 128496, Note_off_c, 0, 76, 64
2, 128496, Note_on_c, 0, 77, 92
2, 128496, Note_on_c, 0, 69, 92
2, 128544, Note_off_c, 0, 69, 64
2, 128544, Note_off_c, 0, 77, 64
2, 128544, Note_on_c, 0, 76, 92
2, 128544, Note_on_c, 0, 67, 92
2, 128592, Note_off_c, 0, 67, 64
2, 128592, Note_off_c, 0, 76, 64
2, 128592, Note_on_c, 0, 77, 92
2, 128592, Note_on_c, 0, 69, 92
2, 128640, Note_off_c, 0, 69, 64
2, 128640, Note_off_c, 0, 77, 64
2, 128640, Note_off_c, 0, 73, 64
2, 128640, Note_on_c, 0, 73, 92
2, 128640, Note_on_c, 0, 67, 92
2, 128640, Note_on_c, 0, 76, 92
2, 128688, Note_off_c, 0, 76, 64
2, 128688, Note_off_c, 0, 67, 64
2, 128688, Note_on_c, 0, 69, 92
2, 128688, Note_on_c, 0, 77, 92
2, 128736, Note_off_c, 0, 77, 64
2, 128736, Note_off_c, 0, 69, 64
2, 128736, Note_on_c, 0, 67, 92
2, 128736, Note_on_c, 0, 76, 92
2, 128784, Note_off_c, 0, 76, 64
2, 128784, Note_off_c, 0, 67, 64
2, 128784, Note_on_c, 0, 69, 92
2, 128784, Note_on_c, 0, 77, 92
2, 128832, Note_off_c, 0, 77, 64
2, 128832, Note_off_c, 0, 69, 64
2, 128832, Note_on_c, 0, 67, 92
2, 128832, Note_on_c, 0, 76, 92
2, 128880, Note_off_c, 0, 76, 64
2, 128880, Note_off_c, 0, 67, 64
2, 128880, Note_on_c, 0, 69, 92
2, 128880, Note_on_c, 0, 77, 92
2, 128928, Note_off_c, 0, 77, 64
2, 128928, Note_off_c, 0, 69, 64
2, 128928, Note_on_c, 0, 67, 92
2, 128928, Note_on_c, 0, 76, 92
2, 128976, Note_off_c, 0, 76, 64
2, 128976, Note_off_c, 0, 67, 64
2, 128976, Note_on_c, 0, 69, 92
2, 128976, Note_on_c, 0, 77, 92
2, 129024, Note_off_c, 0, 77, 64
2, 129024, Note_off_c, 0, 69, 64
2, 129024, Note_off_c, 0, 73, 64
2, 129024, Note_on_c, 0, 64, 92
2, 129024, Note_on_c, 0, 69, 92
2, 129024, Note_on_c, 0, 73, 92
2, 129408, Note_off_c, 0, 73, 64
2, 129408, Note_off_c, 0, 69, 64
2, 129408, Note_off_c, 0, 64, 64
2, 129504, Note_on_c, 0, 65, 92
2, 129504, Note_on_c, 0, 74, 92
2, 129600, Note_off_c, 0, 74, 64
2, 129600, Note_off_c, 0, 65, 64
2, 129600, Note_on_c, 0, 64, 92
2, 129600, Note_on_c, 0, 73, 92
2, 129696, Note_off_c, 0, 73, 64
2, 129696, Note_off_c, 0, 64, 64
2, 129696, Note_on_c, 0, 62, 92
2, 129696, Note_on_c, 0, 71, 92
2, 129792, Note_off_c, 0, 71, 64
2, 129792, Note_off_c, 0, 62, 64
2, 129792, Note_on_c, 0, 61, 92
2, 129792, Note_on_c, 0, 69, 92
2, 129888, Note_off_c, 0, 69, 64
2, 129888, Note_off_c, 0, 61, 64
2, 129888, Note_on_c, 0, 62, 92
2, 129888, Note_on_c, 0, 71, 92
2, 129984, Note_off_c, 0, 71, 64
2, 129984, Note_off_c, 0, 62, 64
2, 129984, Note_on_c, 0, 61, 92
2, 129984, Note_on_c, 0, 69, 92
2, 130080, Note_off_c, 0, 69, 64
2, 130080, Note_off_c, 0, 61, 64
2, 130080, Note_on_c, 0, 62, 92
2, 130080, Note_on_c, 0, 71, 92
2, 130176, Note_off_c, 0, 71, 64
2, 130176, Note_off_c, 0, 62, 64
2, 130176, Note_on_c, 0, 61, 92
2, 130176, Note_on_c, 0, 69, 92
2, 130272, Note_off_c, 0, 69, 64
2, 130272, Note_off_c, 0, 61, 64
2, 130272, Note_on_c, 0, 62, 92
2, 130272, Note_on_c, 0, 71, 92
2, 130368, Note_off_c, 0, 71, 64
2, 130368, Note_off_c, 0, 62, 64
2, 130368, Note_on_c, 0, 61, 92
2, 130368, Note_on_c, 0, 69, 92
2, 130464, Note_off_c, 0, 69, 64
2, 130464, Note_off_c, 0, 61, 64
2, 130464, Note_on_c, 0, 59, 92
2, 130464, Note_on_c, 0, 68, 92
2, 130560, Note_off_c, 0, 68, 64
2, 130560, Note_off_c, 0, 59, 64
2, 130560, Note_on_c, 0, 61, 92
2, 130560, Note_on_c, 0, 64, 92
2, 130560, Note_on_c, 0, 69, 92
2, 130944, Note_off_c, 0, 69, 64
2, 130944, Note_off_c, 0, 64, 64
2, 130944, Note_off_c, 0, 61, 64
2, 131040, Note_on_c, 0, 65, 92
2, 131040, Note_on_c, 0, 74, 92
2, 131136, Note_off_c, 0, 74, 64
2, 131136, Note_off_c, 0, 65, 64
2, 131136, Note_on_c, 0, 64, 92
2, 131136, Note_on_c, 0, 73, 92
2, 131232, Note_off_c, 0, 73, 64
2, 131232, Note_off_c, 0, 64, 64
2, 131232, Note_on_c, 0, 62, 92
2, 131232, Note_on_c, 0, 71, 92
2, 131328, Note_off_c, 0, 71, 64
2, 131328, Note_off_c, 0, 62, 64
2, 131328, Note_on_c, 0, 61, 92
2, 131328, Note_on_c, 0, 69, 92
2, 131424, Note_off_c, 0, 69, 64
2, 131424, Note_off_c, 0, 61, 64
2, 131424, Note_on_c, 0, 62, 92
2, 131424, Note_on_c, 0, 71, 92
2, 131520, Note_off_c, 0, 71, 64
2, 131520, Note_off_c, 0, 62, 64
2, 131520, Note_on_c, 0, 61, 92
2, 131520, Note_on_c, 0, 69, 92
2, 131616, Note_off_c, 0, 69, 64
2, 131616, Note_off_c, 0, 61, 64
2, 131616, Note_on_c, 0, 62, 92
2, 131616, Note_on_c, 0, 71, 92
2, 131712, Note_off_c, 0, 71, 64
2, 131712, Note_off_c, 0, 62, 64
2, 131712, Note_on_c, 0, 61, 92
2, 131712, Note_on_c, 0, 69, 92
2, 131808, Note_off_c, 0, 69, 64
2, 131808, Note_off_c, 0, 61, 64
2, 131808, Note_on_c, 0, 62, 92
2, 131808, Note_on_c, 0, 71, 92
2, 131904, Note_off_c, 0, 71, 64
2, 131904, Note_off_c, 0, 62, 64
2, 131904, Note_on_c, 0, 61, 92
2, 131904, Note_on_c, 0, 69, 92
2, 132000, Note_off_c, 0, 69, 64
2, 132000, Note_off_c, 0, 61, 64
2, 132000, Note_on_c, 0, 59, 92
2, 132000, Note_on_c, 0, 68, 92
2, 132096, Note_off_c, 0, 68, 64
2, 132096, Note_off_c, 0, 59, 64
2, 132096, Note_on_c, 0, 61, 92
2, 132096, Note_on_c, 0, 64, 92
2, 132096, Note_on_c, 0, 69, 92
2, 132480, Note_off_c, 0, 69, 64
2, 132480, Note_off_c, 0, 64, 64
2, 132480, Note_off_c, 0, 61, 64
2, 132576, Note_on_c, 0, 67, 92
2, 132672, Note_off_c, 0, 67, 64
2, 132672, Note_on_c, 0, 65, 92
2, 132768, Note_off_c, 0, 65, 64
2, 132768, Note_on_c, 0, 64, 92
2, 132864, Note_off_c, 0, 64, 64
2, 132864, Note_on_c, 0, 65, 92
2, 132960, Note_off_c, 0, 65, 64
2, 132960, Note_on_c, 0, 64, 92
2, 133056, Note_off_c, 0, 64, 64
2, 133056, Note_on_c, 0, 62, 92
2, 133152, Note_off_c, 0, 62, 64
2, 133152, Note_on_c, 0, 65, 92
2, 133248, Note_off_c, 0, 65, 64
2, 133248, Note_on_c, 0, 64, 92
2, 133344, Note_off_c, 0, 64, 64
2, 133344, Note_on_c, 0, 59, 92
2, 133440, Note_off_c, 0, 59, 64
2, 133440, Note_on_c, 0, 61, 92
2, 133536, Note_off_c, 0, 61, 64
2, 133536, Note_on_c, 0, 62, 92
2, 133632, Note_off_c, 0, 62, 64
2, 133728, Note_on_c, 0, 77, 92
2, 133824, Note_off_c, 0, 77, 64
2, 133824, Note_on_c, 0, 76, 92
2, 133920, Note_off_c, 0, 76, 64
2, 133920, Note_on_c, 0, 74, 92
2, 134016, Note_off_c, 0, 74, 64
2, 134016, Note_on_c, 0, 76, 92
2, 134112, Note_on_c, 0, 71, 92
2, 134208, Note_off_c, 0, 71, 64
2, 134208, Note_on_c, 0, 73, 92
2, 134304, Note_off_c, 0, 73, 64
2, 134304, Note_on_c, 0, 74, 92
2, 134400, Note_off_c, 0, 74, 64
2, 134400, Note_on_c, 0, 71, 92
2, 135168, Note_off_c, 0, 71, 64
2, 135168, Note_on_c, 0, 69, 92
2, 135360, Note_off_c, 0, 76, 64
2, 135360, Note_on_c, 0, 78, 92
2, 135456, Note_off_c, 0, 78, 64
2, 135456, Note_on_c, 0, 80, 92
2, 135552, Note_off_c, 0, 80, 64
2, 135552, Note_on_c, 0, 81, 92
2, 135648, Note_off_c, 0, 81, 64
2, 135648, Note_on_c, 0, 71, 92
2, 135744, Note_off_c, 0, 71, 64
2, 135744, Note_on_c, 0, 73, 92
2, 135840, Note_off_c, 0, 73, 64
2, 135840, Note_on_c, 0, 74, 92
2, 135936, Note_off_c, 0, 74, 64
2, 135936, Note_off_c, 0, 69, 64
2, 135936, Note_on_c, 0, 76, 92
2, 136032, Note_on_c, 0, 71, 92
2, 136128, Note_off_c, 0, 71, 64
2, 136128, Note_on_c, 0, 73, 92
2, 136224, Note_on_c, 0, 68, 92
2, 136320, Note_off_c, 0, 68, 64
2, 136320, Note_on_c, 0, 69, 92
2, 136704, Note_off_c, 0, 69, 64
2, 136704, Note_off_c, 0, 73, 64
2, 136704, Note_off_c, 0, 76, 64
2, 136704, End_track
3, 0, Start_track
3, 0, Title_t, "Track 2"
3, 2400, Note_on_c, 0, 56, 92
3, 2496, Note_off_c, 0, 56, 64
3, 2496, Note_on_c, 0, 57, 92
3, 2592, Note_off_c, 0, 57, 64
3, 2592, Note_on_c, 0, 59, 92
3, 2688, Note_off_c, 0, 59, 64
3, 2688, Note_on_c, 0, 57, 92
3, 2784, Note_off_c, 0, 57, 64
3, 2784, Note_on_c, 0, 59, 92
3, 2880, Note_off_c, 0, 59, 64
3, 2880, Note_on_c, 0, 60, 92
3, 2976, Note_off_c, 0, 60, 64
3, 2976, Note_on_c, 0, 62, 92
3, 3072, Note_off_c, 0, 62, 64
3, 3072, Note_on_c, 0, 60, 92
3, 3168, Note_off_c, 0, 60, 64
3, 3168, Note_on_c, 0, 56, 92
3, 3264, Note_off_c, 0, 56, 64
3, 3264, Note_on_c, 0, 57, 92
3, 3360, Note_off_c, 0, 57, 64
3, 3360, Note_on_c, 0, 59, 92
3, 3456, Note_off_c, 0, 59, 64
3, 3456, Note_on_c, 0, 57, 92
3, 3552, Note_off_c, 0, 57, 64
3, 3552, Note_on_c, 0, 59, 92
3, 3648, Note_off_c, 0, 59, 64
3, 3648, Note_on_c, 0, 60, 92
3, 3744, Note_off_c, 0, 60, 64
3, 3744, Note_on_c, 0, 62, 92
3, 3840, Note_off_c, 0, 62, 64
3, 3840, Note_on_c, 0, 60, 92
3, 3936, Note_off_c, 0, 60, 64
3, 3936, Note_on_c, 0, 62, 92
3, 4032, Note_off_c, 0, 62, 64
3, 4032, Note_on_c, 0, 64, 92
3, 4128, Note_off_c, 0, 64, 64
3, 4128, Note_on_c, 0, 65, 92
3, 4224, Note_off_c, 0, 65, 64
3, 4224, Note_on_c, 0, 64, 92
3, 4320, Note_off_c, 0, 64, 64
3, 4320, Note_on_c, 0, 59, 92
3, 4416, Note_off_c, 0, 59, 64
3, 4416, Note_on_c, 0, 60, 92
3, 4512, Note_off_c, 0, 60, 64
3, 4512, Note_on_c, 0, 62, 92
3, 4608, Note_off_c, 0, 62, 64
3, 4608, Note_on_c, 0, 60, 92
3, 4704, Note_off_c, 0, 60, 64
3, 4704, Note_on_c, 0, 62, 92
3, 4800, Note_off_c, 0, 62, 64
3, 4800, Note_on_c, 0, 64, 92
3, 4896, Note_off_c, 0, 64, 64
3, 4896, Note_on_c, 0, 65, 92
3, 4992, Note_off_c, 0, 65, 64
3, 4992, Note_on_c, 0, 64, 92
3, 5088, Note_off_c, 0, 64, 64
3, 5088, Note_on_c, 0, 59, 92
3, 5184, Note_off_c, 0, 59, 64
3, 5184, Note_on_c, 0, 60, 92
3, 5280, Note_off_c, 0, 60, 64
3, 5280, Note_on_c, 0, 62, 92
3, 5376, Note_off_c, 0, 62, 64
3, 5376, Note_on_c, 0, 60, 92
3, 5472, Note_off_c, 0, 60, 64
3, 5472, Note_on_c, 0, 62, 92
3, 5568, Note_off_c, 0, 62, 64
3, 5568, Note_on_c, 0, 64, 92
3, 5664, Note_off_c, 0, 64, 64
3, 5664, Note_on_c, 0, 65, 92
3, 5760, Note_off_c, 0, 65, 64
3, 5760, Note_on_c, 0, 64, 92
3, 5856, Note_off_c, 0, 64, 64
3, 5856, Note_on_c, 0, 65, 92
3, 5952, Note_off_c, 0, 65, 64
3, 5952, Note_on_c, 0, 67, 92
3, 6048, Note_off_c, 0, 67, 64
3, 6048, Note_on_c, 0, 69, 92
3, 6144, Note_off_c, 0, 69, 64
3, 6144, Note_on_c, 0, 67, 92
3, 6240, Note_off_c, 0, 67, 64
3, 6240, Note_on_c, 0, 62, 92
3, 6336, Note_off_c, 0, 62, 64
3, 6336, Note_on_c, 0, 64, 92
3, 6432, Note_off_c, 0, 64, 64
3, 6432, Note_on_c, 0, 65, 92
3, 6528, Note_off_c, 0, 65, 64
3, 6528, Note_on_c, 0, 64, 92
3, 6624, Note_off_c, 0, 64, 64
3, 6624, Note_on_c, 0, 65, 92
3, 6720, Note_off_c, 0, 65, 64
3, 6720, Note_on_c, 0, 67, 92
3, 6816, Note_off_c, 0, 67, 64
3, 6816, Note_on_c, 0, 69, 92
3, 6912, Note_off_c, 0, 69, 64
3, 6912, Note_on_c, 0, 67, 92
3, 7008, Note_off_c, 0, 67, 64
3, 7008, Note_on_c, 0, 62, 92
3, 7104, Note_off_c, 0, 62, 64
3, 7104, Note_on_c, 0, 64, 92
3, 7200, Note_off_c, 0, 64, 64
3, 7200, Note_on_c, 0, 65, 92
3, 7296, Note_off_c, 0, 65, 64
3, 7296, Note_on_c, 0, 64, 92
3, 7392, Note_off_c, 0, 64, 64
3, 7392, Note_on_c, 0, 59, 92
3, 7488, Note_off_c, 0, 59, 64
3, 7488, Note_on_c, 0, 60, 92
3, 7584, Note_off_c, 0, 60, 64
3, 7584, Note_on_c, 0, 62, 92
3, 7680, Note_off_c, 0, 62, 64
3, 7680, Note_on_c, 0, 60, 92
3, 7776, Note_off_c, 0, 60, 64
3, 7776, Note_on_c, 0, 62, 92
3, 7872, Note_off_c, 0, 62, 64
3, 7872, Note_on_c, 0, 60, 92
3, 7968, Note_off_c, 0, 60, 64
3, 7968, Note_on_c, 0, 62, 92
3, 8064, Note_off_c, 0, 62, 64
3, 8064, Note_on_c, 0, 60, 92
3, 8160, Note_off_c, 0, 60, 64
3, 8160, Note_on_c, 0, 62, 92
3, 8256, Note_off_c, 0, 62, 64
3, 8256, Note_on_c, 0, 60, 92
3, 8352, Note_off_c, 0, 60, 64
3, 8352, Note_on_c, 0, 62, 92
3, 8448, Note_off_c, 0, 62, 64
3, 8448, Note_on_c, 0, 64, 92
3, 8544, Note_off_c, 0, 64, 64
3, 8544, Note_on_c, 0, 60, 92
3, 8640, Note_off_c, 0, 60, 64
3, 8640, Note_on_c, 0, 65, 92
3, 8736, Note_off_c, 0, 65, 64
3, 8736, Note_on_c, 0, 64, 92
3, 8832, Note_off_c, 0, 64, 64
3, 8832, Note_on_c, 0, 69, 92
3, 8928, Note_off_c, 0, 69, 64
3, 8928, Note_on_c, 0, 67, 92
3, 9024, Note_off_c, 0, 67, 64
3, 9024, Note_on_c, 0, 65, 92
3, 9120, Note_off_c, 0, 65, 64
3, 9120, Note_on_c, 0, 64, 92
3, 9216, Note_off_c, 0, 64, 64
3, 9216, Note_on_c, 0, 67, 92
3, 9312, Note_off_c, 0, 67, 64
3, 9312, Note_on_c, 0, 65, 92
3, 9408, Note_off_c, 0, 65, 64
3, 9408, Note_on_c, 0, 64, 92
3, 9504, Note_off_c, 0, 64, 64
3, 9504, Note_on_c, 0, 65, 92
3, 9600, Note_off_c, 0, 65, 64
3, 9600, Note_on_c, 0, 62, 92
3, 9696, Note_off_c, 0, 62, 64
3, 9696, Note_on_c, 0, 64, 92
3, 9792, Note_off_c, 0, 64, 64
3, 9792, Note_on_c, 0, 60, 92
3, 9888, Note_off_c, 0, 60, 64
3, 9888, Note_on_c, 0, 62, 92
3, 9984, Note_off_c, 0, 62, 64
3, 9984, Note_on_c, 0, 59, 92
3, 10080, Note_off_c, 0, 59, 64
3, 10080, Note_on_c, 0, 64, 92
3, 10176, Note_off_c, 0, 64, 64
3, 10176, Note_on_c, 0, 62, 92
3, 10272, Note_off_c, 0, 62, 64
3, 10272, Note_on_c, 0, 64, 92
3, 10368, Note_off_c, 0, 64, 64
3, 10368, Note_on_c, 0, 60, 92
3, 10560, Note_off_c, 0, 60, 64
3, 10560, Note_on_c, 0, 59, 92
3, 10752, Note_off_c, 0, 59, 64
3, 10752, Note_on_c, 0, 57, 92
3, 10848, Note_off_c, 0, 57, 64
3, 10848, Note_on_c, 0, 69, 92
3, 10944, Note_off_c, 0, 69, 64
3, 10944, Note_on_c, 0, 67, 92
3, 11040, Note_off_c, 0, 67, 64
3, 11040, Note_on_c, 0, 69, 92
3, 11136, Note_off_c, 0, 69, 64
3, 11136, Note_on_c, 0, 65, 92
3, 11328, Note_off_c, 0, 65, 64
3, 11328, Note_on_c, 0, 64, 92
3, 11520, Note_off_c, 0, 64, 64
3, 11520, Note_on_c, 0, 62, 92
3, 11808, Note_off_c, 0, 62, 64
3, 11808, Note_on_c, 0, 64, 92
3, 11856, Note_off_c, 0, 64, 64
3, 11856, Note_on_c, 0, 65, 92
3, 11904, Note_off_c, 0, 65, 64
3, 11904, Note_on_c, 0, 56, 92
3, 12288, Note_off_c, 0, 56, 64
3, 12288, Note_on_c, 0, 57, 92
3, 12480, Note_off_c, 0, 57, 64
3, 12480, Note_on_c, 0, 64, 92
3, 12672, Note_off_c, 0, 64, 64
3, 12672, Note_on_c, 0, 69, 92
3, 12864, Note_off_c, 0, 69, 64
3, 12864, Note_on_c, 0, 67, 92
3, 13056, Note_off_c, 0, 67, 64
3, 13056, Note_on_c, 0, 65, 92
3, 13248, Note_off_c, 0, 65, 64
3, 13248, Note_on_c, 0, 64, 92
3, 13440, Note_off_c, 0, 64, 64
3, 13440, Note_on_c, 0, 62, 92
3, 13632, Note_off_c, 0, 62, 64
3, 13632, Note_on_c, 0, 60, 92
3, 13824, Note_off_c, 0, 60, 64
3, 13920, Note_on_c, 0, 59, 92
3, 14016, Note_off_c, 0, 59, 64
3, 14016, Note_on_c, 0, 60, 92
3, 14112, Note_off_c, 0, 60, 64
3, 14112, Note_on_c, 0, 62, 92
3, 14208, Note_off_c, 0, 62, 64
3, 14208, Note_on_c, 0, 62, 92
3, 14256, Note_off_c, 0, 62, 64
3, 14256, Note_on_c, 0, 60, 92
3, 14304, Note_off_c, 0, 60, 64
3, 14304, Note_on_c, 0, 62, 92
3, 14352, Note_off_c, 0, 62, 64
3, 14352, Note_on_c, 0, 60, 92
3, 14400, Note_off_c, 0, 60, 64
3, 14400, Note_on_c, 0, 62, 92
3, 14448, Note_off_c, 0, 62, 64
3, 14448, Note_on_c, 0, 60, 92
3, 14496, Note_off_c, 0, 60, 64
3, 14496, Note_on_c, 0, 59, 92
3, 14592, Note_off_c, 0, 59, 64
3, 14688, Note_on_c, 0, 56, 92
3, 14784, Note_off_c, 0, 56, 64
3, 14784, Note_on_c, 0, 57, 92
3, 14880, Note_off_c, 0, 57, 64
3, 14880, Note_on_c, 0, 59, 92
3, 14976, Note_off_c, 0, 59, 64
3, 14976, Note_on_c, 0, 59, 92
3, 15024, Note_off_c, 0, 59, 64
3, 15024, Note_on_c, 0, 57, 92
3, 15072, Note_off_c, 0, 57, 64
3, 15072, Note_on_c, 0, 59, 92
3, 15120, Note_off_c, 0, 59, 64
3, 15120, Note_on_c, 0, 57, 92
3, 15168, Note_off_c, 0, 57, 64
3, 15168, Note_on_c, 0, 59, 92
3, 15216, Note_off_c, 0, 59, 64
3, 15216, Note_on_c, 0, 57, 92
3, 15264, Note_off_c, 0, 57, 64
3, 15264, Note_on_c, 0, 56, 92
3, 15360, Note_off_c, 0, 56, 64
3, 15456, Note_on_c, 0, 57, 92
3, 15552, Note_off_c, 0, 57, 64
3, 15552, Note_on_c, 0, 59, 92
3, 15648, Note_off_c, 0, 59, 64
3, 15648, Note_on_c, 0, 60, 92
3, 15744, Note_off_c, 0, 60, 64
3, 15744, Note_on_c, 0, 57, 92
3, 15840, Note_off_c, 0, 57, 64
3, 15840, Note_on_c, 0, 60, 92
3, 15936, Note_off_c, 0, 60, 64
3, 15936, Note_on_c, 0, 59, 92
3, 16032, Note_off_c, 0, 59, 64
3, 16032, Note_on_c, 0, 57, 92
3, 16128, Note_off_c, 0, 57, 64
3, 16128, Note_on_c, 0, 56, 92
3, 16320, Note_off_c, 0, 56, 64
3, 16320, Note_on_c, 0, 57, 92
3, 16320, Note_on_c, 0, 64, 92
3, 16512, Note_off_c, 0, 64, 64
3, 16512, Note_on_c, 0, 62, 92
3, 16704, Note_off_c, 0, 57, 64
3, 16704, Note_on_c, 0, 56, 92
3, 16800, Note_off_c, 0, 62, 64
3, 16800, Note_on_c, 0, 64, 92
3, 16896, Note_off_c, 0, 64, 64
3, 16896, Note_off_c, 0, 56, 64
3, 16896, Note_on_c, 0, 60, 92
3, 16896, Note_on_c, 0, 57, 92
3, 17664, Note_off_c, 0, 57, 64
3, 17664, Note_off_c, 0, 60, 64
3, 22080, Note_on_c, 0, 64, 92
3, 22272, Note_off_c, 0, 64, 64
3, 22272, Note_on_c, 0, 69, 92
3, 22368, Note_off_c, 0, 69, 64
3, 22368, Note_on_c, 0, 68, 92
3, 22464, Note_off_c, 0, 68, 64
3, 22464, Note_on_c, 0, 69, 92
3, 22560, Note_off_c, 0, 69, 64
3, 22560, Note_on_c, 0, 68, 92
3, 22656, Note_off_c, 0, 68, 64
3, 22656, Note_on_c, 0, 69, 92
3, 22752, Note_off_c, 0, 69, 64
3, 22752, Note_on_c, 0, 68, 92
3, 22848, Note_off_c, 0, 68, 64
3, 22848, Note_on_c, 0, 69, 92
3, 22944, Note_off_c, 0, 69, 64
3, 22944, Note_on_c, 0, 68, 92
3, 23040, Note_off_c, 0, 68, 64
3, 23040, Note_on_c, 0, 69, 92
3, 23136, Note_off_c, 0, 69, 64
3, 23136, Note_on_c, 0, 64, 92
3, 23232, Note_off_c, 0, 64, 64
3, 23232, Note_on_c, 0, 69, 92
3, 23328, Note_off_c, 0, 69, 64
3, 23328, Note_on_c, 0, 67, 92
3, 23424, Note_off_c, 0, 67, 64
3, 23424, Note_on_c, 0, 65, 92
3, 23616, Note_off_c, 0, 65, 64
3, 23616, Note_on_c, 0, 66, 92
3, 23808, Note_off_c, 0, 66, 64
3, 23808, Note_on_c, 0, 67, 92
3, 23904, Note_off_c, 0, 67, 64
3, 23904, Note_on_c, 0, 62, 92
3, 24000, Note_off_c, 0, 62, 64
3, 24000, Note_on_c, 0, 67, 92
3, 24096, Note_off_c, 0, 67, 64
3, 24096, Note_on_c, 0, 65, 92
3, 24192, Note_off_c, 0, 65, 64
3, 24192, Note_on_c, 0, 64, 92
3, 24384, Note_on_c, 0, 57, 92
3, 24576, Note_off_c, 0, 57, 64
3, 24576, Note_off_c, 0, 64, 64
3, 24576, Note_on_c, 0, 64, 92
3, 24672, Note_off_c, 0, 64, 64
3, 24672, Note_on_c, 0, 63, 92
3, 24768, Note_off_c, 0, 63, 64
3, 24768, Note_on_c, 0, 64, 92
3, 24864, Note_off_c, 0, 64, 64
3, 24864, Note_on_c, 0, 63, 92
3, 24960, Note_off_c, 0, 63, 64
3, 24960, Note_on_c, 0, 64, 92
3, 25056, Note_off_c, 0, 64, 64
3, 25056, Note_on_c, 0, 63, 92
3, 25152, Note_off_c, 0, 63, 64
3, 25152, Note_on_c, 0, 64, 92
3, 25248, Note_off_c, 0, 64, 64
3, 25248, Note_on_c, 0, 63, 92
3, 25344, Note_off_c, 0, 63, 64
3, 25344, Note_on_c, 0, 64, 92
3, 25440, Note_off_c, 0, 64, 64
3, 25440, Note_on_c, 0, 59, 92
3, 25536, Note_off_c, 0, 59, 64
3, 25536, Note_on_c, 0, 64, 92
3, 25632, Note_off_c, 0, 64, 64
3, 25632, Note_on_c, 0, 62, 92
3, 25728, Note_off_c, 0, 62, 64
3, 25728, Note_on_c, 0, 60, 92
3, 25920, Note_off_c, 0, 60, 64
3, 25920, Note_on_c, 0, 61, 92
3, 26112, Note_off_c, 0, 61, 64
3, 26112, Note_on_c, 0, 62, 92
3, 26208, Note_off_c, 0, 62, 64
3, 26208, Note_on_c, 0, 57, 92
3, 26304, Note_off_c, 0, 57, 64
3, 26304, Note_on_c, 0, 62, 92
3, 26400, Note_off_c, 0, 62, 64
3, 26400, Note_on_c, 0, 60, 92
3, 26496, Note_off_c, 0, 60, 64
3, 26496, Note_on_c, 0, 59, 92
3, 26688, Note_off_c, 0, 59, 64
3, 26688, Note_on_c, 0, 64, 92
3, 26880, Note_off_c, 0, 64, 64
3, 26880, Note_on_c, 0, 60, 92
3, 27168, Note_off_c, 0, 60, 64
3, 27168, Note_on_c, 0, 59, 92
3, 27264, Note_off_c, 0, 59, 64
3, 27264, Note_on_c, 0, 60, 92
3, 27552, Note_off_c, 0, 60, 64
3, 27552, Note_on_c, 0, 59, 92
3, 27648, Note_off_c, 0, 59, 64
3, 27648, Note_on_c, 0, 60, 92
3, 28224, Note_off_c, 0, 60, 64
3, 28224, Note_on_c, 0, 59, 92
3, 28320, Note_off_c, 0, 59, 64
3, 28320, Note_on_c, 0, 57, 92
3, 28416, Note_off_c, 0, 57, 64
3, 28416, Note_on_c, 0, 58, 92
3, 28992, Note_off_c, 0, 58, 64
3, 28992, Note_on_c, 0, 57, 92
3, 29184, Note_off_c, 0, 57, 64
3, 29184, Note_on_c, 0, 59, 92
3, 29376, Note_off_c, 0, 59, 64
3, 29376, Note_on_c, 0, 60, 92
3, 29760, Note_off_c, 0, 60, 64
3, 29760, Note_on_c, 0, 59, 92
3, 29856, Note_off_c, 0, 59, 64
3, 29856, Note_on_c, 0, 57, 92
3, 29952, Note_off_c, 0, 57, 64
3, 29952, Note_on_c, 0, 56, 92
3, 30144, Note_off_c, 0, 56, 64
3, 30144, Note_on_c, 0, 57, 92
3, 30528, Note_off_c, 0, 57, 64
3, 30528, Note_on_c, 0, 56, 92
3, 30624, Note_off_c, 0, 56, 64
3, 30624, Note_on_c, 0, 54, 92
3, 30720, Note_off_c, 0, 54, 64
3, 30720, Note_on_c, 0, 56, 92
3, 30912, Note_off_c, 0, 56, 64
3, 30912, Note_on_c, 0, 57, 92
3, 31296, Note_off_c, 0, 57, 64
3, 31296, Note_on_c, 0, 56, 92
3, 31488, Note_off_c, 0, 56, 64
3, 31680, Note_on_c, 0, 60, 92
3, 31872, Note_off_c, 0, 60, 64
3, 31872, Note_on_c, 0, 59, 92
3, 32256, Note_off_c, 0, 59, 64
3, 32256, Note_on_c, 0, 57, 92
3, 32640, Note_off_c, 0, 57, 64
3, 35904, Note_on_c, 0, 52, 92
3, 36096, Note_off_c, 0, 52, 64
3, 36096, Note_on_c, 0, 57, 92
3, 36192, Note_off_c, 0, 57, 64
3, 36192, Note_on_c, 0, 56, 92
3, 36288, Note_off_c, 0, 56, 64
3, 36288, Note_on_c, 0, 57, 92
3, 36384, Note_off_c, 0, 57, 64
3, 36384, Note_on_c, 0, 56, 92
3, 36480, Note_off_c, 0, 56, 64
3, 36480, Note_on_c, 0, 57, 92
3, 36576, Note_off_c, 0, 57, 64
3, 36576, Note_on_c, 0, 56, 92
3, 36672, Note_off_c, 0, 56, 64
3, 36672, Note_on_c, 0, 57, 92
3, 36768, Note_off_c, 0, 57, 64
3, 36768, Note_on_c, 0, 56, 92
3, 36864, Note_off_c, 0, 56, 64
3, 36864, Note_on_c, 0, 57, 92
3, 36960, Note_off_c, 0, 57, 64
3, 36960, Note_on_c, 0, 52, 92
3, 37056, Note_off_c, 0, 52, 64
3, 37056, Note_on_c, 0, 57, 92
3, 37152, Note_off_c, 0, 57, 64
3, 37152, Note_on_c, 0, 55, 92
3, 37248, Note_off_c, 0, 55, 64
3, 37248, Note_on_c, 0, 53, 92
3, 37440, Note_off_c, 0, 53, 64
3, 37440, Note_on_c, 0, 54, 92
3, 37632, Note_off_c, 0, 54, 64
3, 37632, Note_on_c, 0, 55, 92
3, 37728, Note_off_c, 0, 55, 64
3, 37728, Note_on_c, 0, 50, 92
3, 37824, Note_off_c, 0, 50, 64
3, 37824, Note_on_c, 0, 55, 92
3, 37920, Note_off_c, 0, 55, 64
3, 37920, Note_on_c, 0, 53, 92
3, 38016, Note_off_c, 0, 53, 64
3, 38016, Note_on_c, 0, 52, 92
3, 38112, Note_off_c, 0, 52, 64
3, 38112, Note_on_c, 0, 48, 92
3, 38208, Note_off_c, 0, 48, 64
3, 38208, Note_on_c, 0, 50, 92
3, 38304, Note_off_c, 0, 50, 64
3, 38304, Note_on_c, 0, 52, 92
3, 38400, Note_off_c, 0, 52, 64
3, 38400, Note_on_c, 0, 53, 92
3, 38400, Note_on_c, 0, 57, 92
3, 38784, Note_off_c, 0, 57, 64
3, 38784, Note_off_c, 0, 53, 64
3, 38784, Note_on_c, 0, 52, 92
3, 38784, Note_on_c, 0, 56, 92
3, 38976, Note_off_c, 0, 56, 64
3, 38976, Note_off_c, 0, 52, 64
3, 38976, Note_on_c, 0, 57, 92
3, 38976, Note_on_c, 0, 60, 92
3, 39168, Note_off_c, 0, 60, 64
3, 39168, Note_on_c, 0, 59, 92
3, 39360, Note_off_c, 0, 57, 64
3, 39360, Note_on_c, 0, 55, 92
3, 39552, Note_off_c, 0, 55, 64
3, 39552, Note_on_c, 0, 54, 92
3, 39744, Note_off_c, 0, 54, 64
3, 39744, Note_on_c, 0, 57, 92
3, 39936, Note_off_c, 0, 57, 64
3, 39936, Note_on_c, 0, 55, 92
3, 40512, Note_off_c, 0, 59, 64
3, 40512, Note_on_c, 0, 57, 92
3, 40896, Note_off_c, 0, 55, 64
3, 40896, Note_on_c, 0, 53, 92
3, 41088, Note_off_c, 0, 57, 64
3, 41088, Note_on_c, 0, 55, 92
3, 41280, Note_off_c, 0, 53, 64
3, 41280, Note_on_c, 0, 52, 92
3, 41472, Note_off_c, 0, 52, 64
3, 41472, Note_off_c, 0, 55, 64
3, 41664, Note_on_c, 0, 50, 92
3, 41664, Note_on_c, 0, 57, 92
3, 41856, Note_off_c, 0, 57, 64
3, 41856, Note_off_c, 0, 50, 64
3, 41856, Note_on_c, 0, 50, 92
3, 41856, Note_on_c, 0, 55, 92
3, 42144, Note_off_c, 0, 55, 64
3, 42144, Note_on_c, 0, 53, 92
3, 42240, Note_off_c, 0, 53, 64
3, 42240, Note_off_c, 0, 50, 64
3, 42240, Note_on_c, 0, 48, 92
3, 42240, Note_on_c, 0, 52, 92
3, 42624, Note_off_c, 0, 52, 64
3, 42624, Note_off_c, 0, 48, 64
3, 43776, Note_on_c, 0, 55, 92
3, 44160, Note_off_c, 0, 55, 64
3, 44928, Note_on_c, 0, 60, 92
3, 45312, Note_off_c, 0, 60, 64
3, 46080, Note_on_c, 0, 60, 92
3, 46464, Note_off_c, 0, 60, 64
3, 47616, Note_on_c, 0, 62, 92
3, 47616, Note_on_c, 0, 57, 92
3, 48384, Note_off_c, 0, 57, 64
3, 48384, Note_on_c, 0, 59, 92
3, 50688, Note_off_c, 0, 59, 64
3, 50688, Note_on_c, 0, 58, 92
3, 51456, Note_off_c, 0, 58, 64
3, 51456, Note_on_c, 0, 57, 92
3, 52224, Note_off_c, 0, 57, 64
3, 52224, Note_off_c, 0, 62, 64
3, 52224, Note_on_c, 0, 64, 92
3, 52224, Note_on_c, 0, 59, 92
3, 52992, Note_off_c, 0, 59, 64
3, 52992, Note_on_c, 0, 57, 92
3, 54528, Note_off_c, 0, 57, 64
3, 54528, Note_on_c, 0, 60, 92
3, 55872, Note_off_c, 0, 60, 64
3, 55872, Note_on_c, 0, 59, 92
3, 56064, Note_off_c, 0, 59, 64
3, 56064, Note_on_c, 0, 59, 92
3, 56448, Note_off_c, 0, 59, 64
3, 56448, Note_off_c, 0, 64, 64
3, 56448, Note_on_c, 0, 66, 92
3, 56448, Note_on_c, 0, 57, 92
3, 56832, Note_off_c, 0, 57, 64
3, 56832, Note_off_c, 0, 66, 64
3, 56832, Note_on_c, 0, 64, 92
3, 56832, Note_on_c, 0, 59, 92
3, 59136, Note_off_c, 0, 59, 64
3, 59136, Note_off_c, 0, 64, 64
3, 66432, Note_on_c, 0, 64, 92
3, 66816, Note_off_c, 0, 64, 64
3, 66816, Note_on_c, 0, 60, 92
3, 67200, Note_off_c, 0, 60, 64
3, 67200, Note_on_c, 0, 57, 92
3, 67584, Note_off_c, 0, 57, 64
3, 67584, Note_on_c, 0, 60, 92
3, 67776, Note_off_c, 0, 60, 64
3, 67776, Note_on_c, 0, 61, 92
3, 67968, Note_off_c, 0, 61, 64
3, 67968, Note_on_c, 0, 62, 92
3, 68160, Note_off_c, 0, 62, 64
3, 68160, Note_on_c, 0, 63, 92
3, 68352, Note_off_c, 0, 63, 64
3, 68352, Note_on_c, 0, 64, 92
3, 68640, Note_off_c, 0, 64, 64
3, 68640, Note_on_c, 0, 62, 92
3, 68688, Note_off_c, 0, 62, 64
3, 68688, Note_on_c, 0, 60, 92
3, 68736, Note_off_c, 0, 60, 64
3, 68736, Note_on_c, 0, 59, 92
3, 68928, Note_off_c, 0, 59, 64
3, 68928, Note_on_c, 0, 64, 92
3, 69120, Note_off_c, 0, 64, 64
3, 69120, Note_on_c, 0, 57, 92
3, 69504, Note_off_c, 0, 57, 64
3, 69696, Note_on_c, 0, 60, 92
3, 69792, Note_off_c, 0, 60, 64
3, 69792, Note_on_c, 0, 62, 92
3, 69888, Note_off_c, 0, 62, 64
3, 69888, Note_on_c, 0, 64, 92
3, 70080, Note_off_c, 0, 64, 64
3, 70080, Note_on_c, 0, 59, 92
3, 70272, Note_off_c, 0, 59, 64
3, 70272, Note_on_c, 0, 60, 92
3, 70368, Note_off_c, 0, 60, 64
3, 70368, Note_on_c, 0, 59, 92
3, 70464, Note_off_c, 0, 59, 64
3, 70464, Note_on_c, 0, 60, 92
3, 70560, Note_off_c, 0, 60, 64
3, 70560, Note_on_c, 0, 55, 92
3, 70656, Note_off_c, 0, 55, 64
3, 70656, Note_on_c, 0, 57, 92
3, 70752, Note_off_c, 0, 57, 64
3, 70752, Note_on_c, 0, 50, 92
3, 70848, Note_off_c, 0, 50, 64
3, 70848, Note_on_c, 0, 62, 92
3, 70944, Note_off_c, 0, 62, 64
3, 70944, Note_on_c, 0, 57, 92
3, 71040, Note_off_c, 0, 57, 64
3, 71040, Note_on_c, 0, 59, 92
3, 71136, Note_off_c, 0, 59, 64
3, 71136, Note_on_c, 0, 52, 92
3, 71232, Note_off_c, 0, 52, 64
3, 71232, Note_on_c, 0, 64, 92
3, 71328, Note_off_c, 0, 64, 64
3, 71328, Note_on_c, 0, 59, 92
3, 71424, Note_off_c, 0, 59, 64
3, 71424, Note_on_c, 0, 60, 92
3, 71616, Note_off_c, 0, 60, 64
3, 71616, Note_on_c, 0, 61, 92
3, 71808, Note_off_c, 0, 61, 64
3, 71808, Note_on_c, 0, 62, 92
3, 71904, Note_off_c, 0, 62, 64
3, 71904, Note_on_c, 0, 57, 92
3, 72000, Note_off_c, 0, 57, 64
3, 72000, Note_on_c, 0, 62, 92
3, 72096, Note_off_c, 0, 62, 64
3, 72096, Note_on_c, 0, 60, 92
3, 72192, Note_off_c, 0, 60, 64
3, 72192, Note_on_c, 0, 59, 92
3, 72768, Note_off_c, 0, 59, 64
3, 72768, Note_on_c, 0, 64, 92
3, 72960, Note_off_c, 0, 64, 64
3, 72960, Note_on_c, 0, 64, 92
3, 73344, Note_off_c, 0, 64, 64
3, 73344, Note_on_c, 0, 60, 92
3, 73728, Note_off_c, 0, 60, 64
3, 73728, Note_on_c, 0, 57, 92
3, 74112, Note_off_c, 0, 57, 64
3, 74112, Note_on_c, 0, 57, 92
3, 74496, Note_off_c, 0, 57, 64
3, 74496, Note_on_c, 0, 59, 92
3, 74880, Note_off_c, 0, 59, 64
3, 76608, Note_on_c, 0, 57, 92
3, 76800, Note_off_c, 0, 57, 64
3, 76800, Note_on_c, 0, 55, 92
3, 77184, Note_off_c, 0, 55, 64
3, 77184, Note_on_c, 0, 52, 92
3, 77568, Note_off_c, 0, 52, 64
3, 77568, Note_on_c, 0, 53, 92
3, 77760, Note_off_c, 0, 53, 64
3, 77760, Note_on_c, 0, 54, 92
3, 77952, Note_off_c, 0, 54, 64
3, 77952, Note_on_c, 0, 55, 92
3, 78144, Note_off_c, 0, 55, 64
3, 78144, Note_on_c, 0, 56, 92
3, 78336, Note_off_c, 0, 56, 64
3, 78336, Note_on_c, 0, 57, 92
3, 78432, Note_off_c, 0, 57, 64
3, 78432, Note_on_c, 0, 52, 92
3, 78528, Note_off_c, 0, 52, 64
3, 78528, Note_on_c, 0, 57, 92
3, 78624, Note_off_c, 0, 57, 64
3, 78624, Note_on_c, 0, 55, 92
3, 78720, Note_off_c, 0, 55, 64
3, 78720, Note_on_c, 0, 53, 92
3, 78912, Note_off_c, 0, 53, 64
3, 78912, Note_on_c, 0, 54, 92
3, 79104, Note_off_c, 0, 54, 64
3, 79104, Note_on_c, 0, 55, 92
3, 79200, Note_off_c, 0, 55, 64
3, 79200, Note_on_c, 0, 50, 92
3, 79296, Note_off_c, 0, 50, 64
3, 79296, Note_on_c, 0, 55, 92
3, 79392, Note_off_c, 0, 55, 64
3, 79392, Note_on_c, 0, 53, 92
3, 79488, Note_off_c, 0, 53, 64
3, 79488, Note_on_c, 0, 52, 92
3, 79680, Note_off_c, 0, 52, 64
3, 79680, Note_on_c, 0, 59, 92
3, 79872, Note_off_c, 0, 59, 64
3, 79968, Note_on_c, 0, 52, 92
3, 80064, Note_off_c, 0, 52, 64
3, 80064, Note_on_c, 0, 57, 92
3, 80160, Note_off_c, 0, 57, 64
3, 80160, Note_on_c, 0, 52, 92
3, 80256, Note_off_c, 0, 52, 64
3, 80256, Note_on_c, 0, 53, 92
3, 80352, Note_off_c, 0, 53, 64
3, 80352, Note_on_c, 0, 52, 92
3, 80448, Note_off_c, 0, 52, 64
3, 80448, Note_on_c, 0, 53, 92
3, 80544, Note_off_c, 0, 53, 64
3, 80544, Note_on_c, 0, 48, 92
3, 80640, Note_off_c, 0, 48, 64
3, 80640, Note_on_c, 0, 52, 92
3, 80736, Note_off_c, 0, 52, 64
3, 80736, Note_on_c, 0, 45, 92
3, 80832, Note_off_c, 0, 45, 64
3, 80832, Note_on_c, 0, 57, 92
3, 80928, Note_off_c, 0, 57, 64
3, 80928, Note_on_c, 0, 52, 92
3, 81024, Note_off_c, 0, 52, 64
3, 81024, Note_on_c, 0, 54, 92
3, 81120, Note_off_c, 0, 54, 64
3, 81120, Note_on_c, 0, 47, 92
3, 81216, Note_off_c, 0, 47, 64
3, 81216, Note_on_c, 0, 59, 92
3, 81312, Note_off_c, 0, 59, 64
3, 81312, Note_on_c, 0, 54, 92
3, 81408, Note_off_c, 0, 54, 64
3, 81408, Note_on_c, 0, 55, 92
3, 81600, Note_off_c, 0, 55, 64
3, 81600, Note_on_c, 0, 56, 92
3, 81792, Note_off_c, 0, 56, 64
3, 81792, Note_on_c, 0, 57, 92
3, 81888, Note_off_c, 0, 57, 64
3, 81888, Note_on_c, 0, 52, 92
3, 81984, Note_off_c, 0, 52, 64
3, 81984, Note_on_c, 0, 57, 92
3, 82080, Note_off_c, 0, 57, 64
3, 82080, Note_on_c, 0, 55, 92
3, 82176, Note_off_c, 0, 55, 64
3, 82176, Note_on_c, 0, 53, 92
3, 82368, Note_off_c, 0, 53, 64
3, 82368, Note_on_c, 0, 54, 92
3, 82560, Note_off_c, 0, 54, 64
3, 82560, Note_on_c, 0, 55, 92
3, 82656, Note_off_c, 0, 55, 64
3, 82656, Note_on_c, 0, 50, 92
3, 82752, Note_off_c, 0, 50, 64
3, 82752, Note_on_c, 0, 55, 92
3, 82848, Note_off_c, 0, 55, 64
3, 82848, Note_on_c, 0, 53, 92
3, 82944, Note_off_c, 0, 53, 64
3, 82944, Note_on_c, 0, 52, 92
3, 83232, Note_off_c, 0, 52, 64
3, 83232, Note_on_c, 0, 48, 92
3, 83328, Note_off_c, 0, 48, 64
3, 83328, Note_on_c, 0, 53, 92
3, 83712, Note_off_c, 0, 53, 64
3, 83712, Note_on_c, 0, 52, 92
3, 83904, Note_on_c, 0, 59, 92
3, 84096, Note_off_c, 0, 59, 64
3, 84096, Note_off_c, 0, 52, 64
3, 84096, Note_on_c, 0, 60, 92
3, 84192, Note_off_c, 0, 60, 64
3, 84192, Note_on_c, 0, 59, 92
3, 84288, Note_off_c, 0, 59, 64
3, 84288, Note_on_c, 0, 60, 92
3, 84384, Note_off_c, 0, 60, 64
3, 84384, Note_on_c, 0, 55, 92
3, 84480, Note_off_c, 0, 55, 64
3, 84480, Note_on_c, 0, 57, 92
3, 84576, Note_off_c, 0, 57, 64
3, 84576, Note_on_c, 0, 50, 92
3, 84672, Note_off_c, 0, 50, 64
3, 84672, Note_on_c, 0, 62, 92
3, 84768, Note_off_c, 0, 62, 64
3, 84768, Note_on_c, 0, 57, 92
3, 84864, Note_off_c, 0, 57, 64
3, 84864, Note_on_c, 0, 59, 92
3, 84960, Note_off_c, 0, 59, 64
3, 84960, Note_on_c, 0, 52, 92
3, 85056, Note_off_c, 0, 52, 64
3, 85056, Note_on_c, 0, 64, 92
3, 85152, Note_off_c, 0, 64, 64
3, 85152, Note_on_c, 0, 59, 92
3, 85248, Note_off_c, 0, 59, 64
3, 85248, Note_on_c, 0, 60, 92
3, 85440, Note_off_c, 0, 60, 64
3, 85440, Note_on_c, 0, 61, 92
3, 85632, Note_off_c, 0, 61, 64
3, 85632, Note_on_c, 0, 62, 92
3, 85728, Note_off_c, 0, 62, 64
3, 85728, Note_on_c, 0, 57, 92
3, 85824, Note_off_c, 0, 57, 64
3, 85824, Note_on_c, 0, 62, 92
3, 85920, Note_off_c, 0, 62, 64
3, 85920, Note_on_c, 0, 60, 92
3, 86016, Note_off_c, 0, 60, 64
3, 86016, Note_on_c, 0, 59, 92
3, 86112, Note_off_c, 0, 59, 64
3, 86112, Note_on_c, 0, 59, 92
3, 86208, Note_off_c, 0, 59, 64
3, 86976, Note_on_c, 0, 59, 92
3, 87168, Note_off_c, 0, 59, 64
3, 87168, Note_on_c, 0, 60, 92
3, 87264, Note_off_c, 0, 60, 64
3, 87264, Note_on_c, 0, 59, 92
3, 87360, Note_off_c, 0, 59, 64
3, 87360, Note_on_c, 0, 60, 92
3, 87456, Note_off_c, 0, 60, 64
3, 87456, Note_on_c, 0, 55, 92
3, 87552, Note_off_c, 0, 55, 64
3, 87552, Note_on_c, 0, 57, 92
3, 87648, Note_off_c, 0, 57, 64
3, 87648, Note_on_c, 0, 50, 92
3, 87744, Note_off_c, 0, 50, 64
3, 87744, Note_on_c, 0, 62, 92
3, 87840, Note_off_c, 0, 62, 64
3, 87840, Note_on_c, 0, 57, 92
3, 87936, Note_off_c, 0, 57, 64
3, 87936, Note_on_c, 0, 59, 92
3, 88032, Note_off_c, 0, 59, 64
3, 88032, Note_on_c, 0, 52, 92
3, 88128, Note_off_c, 0, 52, 64
3, 88128, Note_on_c, 0, 64, 92
3, 88224, Note_off_c, 0, 64, 64
3, 88224, Note_on_c, 0, 59, 92
3, 88320, Note_off_c, 0, 59, 64
3, 88320, Note_on_c, 0, 60, 92
3, 88512, Note_off_c, 0, 60, 64
3, 88512, Note_on_c, 0, 61, 92
3, 88704, Note_off_c, 0, 61, 64
3, 88704, Note_on_c, 0, 62, 92
3, 88896, Note_off_c, 0, 62, 64
3, 88896, Note_on_c, 0, 63, 92
3, 89088, Note_off_c, 0, 63, 64
3, 89088, Note_on_c, 0, 64, 92
3, 89184, Note_off_c, 0, 64, 64
3, 89184, Note_on_c, 0, 59, 92
3, 89280, Note_off_c, 0, 59, 64
3, 89280, Note_on_c, 0, 64, 92
3, 89376, Note_off_c, 0, 64, 64
3, 89376, Note_on_c, 0, 62, 92
3, 89472, Note_off_c, 0, 62, 64
3, 89472, Note_on_c, 0, 66, 92
3, 89568, Note_off_c, 0, 66, 64
3, 89568, Note_on_c, 0, 61, 92
3, 89664, Note_off_c, 0, 61, 64
3, 89664, Note_on_c, 0, 66, 92
3, 89760, Note_off_c, 0, 66, 64
3, 89760, Note_on_c, 0, 64, 92
3, 89856, Note_off_c, 0, 64, 64
3, 89856, Note_on_c, 0, 62, 92
3, 90048, Note_off_c, 0, 62, 64
3, 90048, Note_on_c, 0, 63, 92
3, 90240, Note_off_c, 0, 63, 64
3, 90240, Note_on_c, 0, 64, 92
3, 90816, Note_off_c, 0, 64, 64
3, 90816, Note_on_c, 0, 62, 92
3, 91008, Note_off_c, 0, 62, 64
3, 91008, Note_on_c, 0, 60, 92
3, 91296, Note_off_c, 0, 60, 64
3, 91296, Note_on_c, 0, 59, 92
3, 91392, Note_off_c, 0, 59, 64
3, 91392, Note_on_c, 0, 60, 92
3, 91776, Note_off_c, 0, 60, 64
3, 94176, Note_on_c, 0, 55, 92
3, 94272, Note_off_c, 0, 55, 64
3, 94272, Note_on_c, 0, 64, 92
3, 94368, Note_off_c, 0, 64, 64
3, 94368, Note_on_c, 0, 60, 92
3, 94464, Note_off_c, 0, 60, 64
3, 94464, Note_on_c, 0, 62, 92
3, 95232, Note_off_c, 0, 62, 64
3, 95232, Note_on_c, 0, 60, 92
3, 95616, Note_off_c, 0, 60, 64
3, 97152, Note_on_c, 0, 67, 92
3, 97248, Note_off_c, 0, 67, 64
3, 97248, Note_on_c, 0, 65, 92
3, 97344, Note_off_c, 0, 65, 64
3, 97344, Note_on_c, 0, 67, 92
3, 97440, Note_off_c, 0, 67, 64
3, 97440, Note_on_c, 0, 62, 92
3, 97536, Note_off_c, 0, 62, 64
3, 97536, Note_on_c, 0, 63, 92
3, 97632, Note_off_c, 0, 63, 64
3, 97632, Note_on_c, 0, 62, 92
3, 97728, Note_off_c, 0, 62, 64
3, 97728, Note_on_c, 0, 63, 92
3, 97824, Note_off_c, 0, 63, 64
3, 97824, Note_on_c, 0, 60, 92
3, 97920, Note_off_c, 0, 60, 64
3, 97920, Note_on_c, 0, 63, 92
3, 97920, Note_on_c, 0, 60, 92
3, 98016, Note_off_c, 0, 60, 64
3, 98016, Note_on_c, 0, 58, 92
3, 98112, Note_off_c, 0, 58, 64
3, 98112, Note_off_c, 0, 63, 64
3, 98112, Note_on_c, 0, 64, 92
3, 98112, Note_on_c, 0, 60, 92
3, 98208, Note_off_c, 0, 60, 64
3, 98208, Note_on_c, 0, 55, 92
3, 98304, Note_off_c, 0, 55, 64
3, 98304, Note_off_c, 0, 64, 64
3, 98304, Note_on_c, 0, 65, 92
3, 98304, Note_on_c, 0, 56, 92
3, 98400, Note_off_c, 0, 56, 64
3, 98400, Note_on_c, 0, 55, 92
3, 98496, Note_off_c, 0, 55, 64
3, 98496, Note_off_c, 0, 65, 64
3, 98496, Note_on_c, 0, 65, 92
3, 98496, Note_on_c, 0, 56, 92
3, 98592, Note_off_c, 0, 56, 64
3, 98592, Note_on_c, 0, 53, 92
3, 98688, Note_off_c, 0, 53, 64
3, 98688, Note_off_c, 0, 65, 64
3, 98688, Note_on_c, 0, 65, 92
3, 98688, Note_on_c, 0, 56, 92
3, 98880, Note_off_c, 0, 56, 64
3, 98880, Note_off_c, 0, 65, 64
3, 98880, Note_on_c, 0, 66, 92
3, 98880, Note_on_c, 0, 57, 92
3, 99072, Note_off_c, 0, 57, 64
3, 99072, Note_off_c, 0, 66, 64
3, 99072, Note_on_c, 0, 67, 92
3, 99072, Note_on_c, 0, 58, 92
3, 99264, Note_off_c, 0, 58, 64
3, 99264, Note_on_c, 0, 58, 92
3, 99456, Note_off_c, 0, 58, 64
3, 99456, Note_on_c, 0, 58, 92
3, 99648, Note_off_c, 0, 58, 64
3, 99648, Note_on_c, 0, 59, 92
3, 99840, Note_off_c, 0, 59, 64
3, 99840, Note_on_c, 0, 60, 92
3, 100224, Note_off_c, 0, 60, 64
3, 100224, Note_off_c, 0, 67, 64
3, 100224, Note_on_c, 0, 54, 92
3, 100608, Note_off_c, 0, 54, 64
3, 100608, Note_on_c, 0, 55, 92
3, 101376, Note_off_c, 0, 55, 64
3, 102528, Note_on_c, 0, 62, 92
3, 102624, Note_off_c, 0, 62, 64
3, 102624, Note_on_c, 0, 60, 92
3, 102720, Note_off_c, 0, 60, 64
3, 102720, Note_on_c, 0, 62, 92
3, 102816, Note_off_c, 0, 62, 64
3, 102816, Note_on_c, 0, 57, 92
3, 102912, Note_off_c, 0, 57, 64
3, 102912, Note_on_c, 0, 58, 92
3, 103008, Note_off_c, 0, 58, 64
3, 103008, Note_on_c, 0, 57, 92
3, 103104, Note_off_c, 0, 57, 64
3, 103104, Note_on_c, 0, 58, 92
3, 103200, Note_off_c, 0, 58, 64
3, 103200, Note_on_c, 0, 55, 92
3, 103296, Note_off_c, 0, 55, 64
3, 103296, Note_on_c, 0, 58, 92
3, 103296, Note_on_c, 0, 55, 92
3, 103392, Note_off_c, 0, 55, 64
3, 103392, Note_on_c, 0, 53, 92
3, 103488, Note_off_c, 0, 53, 64
3, 103488, Note_off_c, 0, 58, 64
3, 103488, Note_on_c, 0, 59, 92
3, 103488, Note_on_c, 0, 55, 92
3, 103584, Note_off_c, 0, 55, 64
3, 103584, Note_on_c, 0, 50, 92
3, 103680, Note_off_c, 0, 50, 64
3, 103680, Note_off_c, 0, 59, 64
3, 103680, Note_on_c, 0, 60, 92
3, 103680, Note_on_c, 0, 51, 92
3, 103776, Note_off_c, 0, 51, 64
3, 103776, Note_on_c, 0, 50, 92
3, 103872, Note_off_c, 0, 50, 64
3, 103872, Note_on_c, 0, 51, 92
3, 103968, Note_off_c, 0, 51, 64
3, 103968, Note_on_c, 0, 48, 92
3, 104064, Note_off_c, 0, 48, 64
3, 104064, Note_off_c, 0, 60, 64
3, 104064, Note_on_c, 0, 51, 92
3, 104064, Note_on_c, 0, 60, 92
3, 104160, Note_off_c, 0, 60, 64
3, 104160, Note_on_c, 0, 58, 92
3, 104256, Note_off_c, 0, 58, 64
3, 104256, Note_off_c, 0, 51, 64
3, 104256, Note_on_c, 0, 52, 92
3, 104256, Note_on_c, 0, 60, 92
3, 104352, Note_off_c, 0, 60, 64
3, 104352, Note_on_c, 0, 55, 92
3, 104448, Note_off_c, 0, 55, 64
3, 104448, Note_off_c, 0, 52, 64
3, 104448, Note_on_c, 0, 57, 92
3, 104448, Note_on_c, 0, 53, 92
3, 104640, Note_off_c, 0, 53, 64
3, 104640, Note_off_c, 0, 57, 64
3, 104640, Note_on_c, 0, 62, 92
3, 104640, Note_on_c, 0, 53, 92
3, 104832, Note_off_c, 0, 53, 64
3, 104832, Note_off_c, 0, 62, 64
3, 104832, Note_on_c, 0, 62, 92
3, 104832, Note_on_c, 0, 53, 92
3, 105024, Note_off_c, 0, 53, 64
3, 105024, Note_on_c, 0, 54, 92
3, 105216, Note_off_c, 0, 54, 64
3, 105216, Note_on_c, 0, 55, 92
3, 105408, Note_off_c, 0, 62, 64
3, 105408, Note_on_c, 0, 62, 92
3, 105504, Note_off_c, 0, 55, 64
3, 105504, Note_on_c, 0, 58, 92
3, 105600, Note_off_c, 0, 58, 64
3, 105600, Note_off_c, 0, 62, 64
3, 105600, Note_on_c, 0, 62, 92
3, 105600, Note_on_c, 0, 57, 92
3, 105792, Note_off_c, 0, 62, 64
3, 105792, Note_on_c, 0, 61, 92
3, 105984, Note_off_c, 0, 61, 64
3, 105984, Note_off_c, 0, 57, 64
3, 105984, Note_on_c, 0, 62, 92
3, 105984, Note_on_c, 0, 50, 92
3, 106368, Note_off_c, 0, 50, 64
3, 106368, Note_off_c, 0, 62, 64
3, 106368, Note_on_c, 0, 62, 92
3, 106464, Note_off_c, 0, 62, 64
3, 106464, Note_on_c, 0, 60, 92
3, 106560, Note_off_c, 0, 60, 64
3, 106560, Note_on_c, 0, 62, 92
3, 106656, Note_off_c, 0, 62, 64
3, 106656, Note_on_c, 0, 57, 92
3, 106752, Note_off_c, 0, 57, 64
3, 106752, Note_on_c, 0, 58, 92
3, 106848, Note_off_c, 0, 58, 64
3, 106848, Note_on_c, 0, 57, 92
3, 106944, Note_off_c, 0, 57, 64
3, 106944, Note_on_c, 0, 58, 92
3, 107040, Note_off_c, 0, 58, 64
3, 107040, Note_on_c, 0, 55, 92
3, 107136, Note_off_c, 0, 55, 64
3, 107136, Note_on_c, 0, 58, 92
3, 107328, Note_off_c, 0, 58, 64
3, 107328, Note_on_c, 0, 59, 92
3, 107520, Note_off_c, 0, 59, 64
3, 107520, Note_on_c, 0, 60, 92
3, 107616, Note_off_c, 0, 60, 64
3, 107616, Note_on_c, 0, 62, 92
3, 107712, Note_off_c, 0, 62, 64
3, 107712, Note_on_c, 0, 60, 92
3, 107808, Note_off_c, 0, 60, 64
3, 107808, Note_on_c, 0, 57, 92
3, 107904, Note_off_c, 0, 57, 64
3, 107904, Note_on_c, 0, 60, 92
3, 107904, Note_on_c, 0, 57, 92
3, 108000, Note_off_c, 0, 57, 64
3, 108000, Note_on_c, 0, 55, 92
3, 108096, Note_off_c, 0, 55, 64
3, 108096, Note_off_c, 0, 60, 64
3, 108096, Note_on_c, 0, 61, 92
3, 108096, Note_on_c, 0, 57, 92
3, 108192, Note_off_c, 0, 57, 64
3, 108192, Note_on_c, 0, 52, 92
3, 108288, Note_off_c, 0, 52, 64
3, 108288, Note_off_c, 0, 61, 64
3, 108288, Note_on_c, 0, 62, 92
3, 108288, Note_on_c, 0, 53, 92
3, 108384, Note_off_c, 0, 53, 64
3, 108384, Note_on_c, 0, 52, 92
3, 108480, Note_off_c, 0, 52, 64
3, 108480, Note_on_c, 0, 53, 92
3, 108576, Note_off_c, 0, 53, 64
3, 108576, Note_on_c, 0, 50, 92
3, 108672, Note_off_c, 0, 50, 64
3, 108672, Note_on_c, 0, 53, 92
3, 108864, Note_off_c, 0, 53, 64
3, 108864, Note_on_c, 0, 54, 92
3, 109056, Note_off_c, 0, 54, 64
3, 109056, Note_on_c, 0, 55, 92
3, 109440, Note_off_c, 0, 62, 64
3, 109824, Note_off_c, 0, 55, 64
3, 110976, Note_on_c, 0, 62, 92
3, 111168, Note_off_c, 0, 62, 64
3, 111168, Note_on_c, 0, 60, 92
3, 111360, Note_off_c, 0, 60, 64
3, 111360, Note_on_c, 0, 59, 92
3, 111456, Note_off_c, 0, 59, 64
3, 111456, Note_on_c, 0, 60, 92
3, 111552, Note_off_c, 0, 60, 64
3, 111552, Note_on_c, 0, 59, 92
3, 111648, Note_off_c, 0, 59, 64
3, 111648, Note_on_c, 0, 57, 92
3, 111744, Note_off_c, 0, 57, 64
3, 111744, Note_on_c, 0, 56, 92
3, 111936, Note_off_c, 0, 56, 64
3, 111936, Note_on_c, 0, 57, 92
3, 112128, Note_off_c, 0, 57, 64
3, 112128, Note_on_c, 0, 59, 92
3, 112320, Note_off_c, 0, 59, 64
3, 112320, Note_on_c, 0, 60, 92
3, 112512, Note_off_c, 0, 60, 64
3, 112512, Note_on_c, 0, 59, 92
3, 112896, Note_off_c, 0, 59, 64
3, 112896, Note_on_c, 0, 57, 92
3, 113280, Note_off_c, 0, 57, 64
3, 113952, Note_on_c, 0, 59, 92
3, 114048, Note_off_c, 0, 59, 64
3, 114048, Note_on_c, 0, 61, 92
3, 114144, Note_off_c, 0, 61, 64
3, 114144, Note_on_c, 0, 62, 92
3, 114240, Note_off_c, 0, 62, 64
3, 114240, Note_on_c, 0, 64, 92
3, 114336, Note_off_c, 0, 64, 64
3, 114336, Note_on_c, 0, 61, 92
3, 114432, Note_off_c, 0, 61, 64
3, 114432, Note_on_c, 0, 62, 92
3, 114528, Note_off_c, 0, 62, 64
3, 114528, Note_on_c, 0, 64, 92
3, 114624, Note_off_c, 0, 64, 64
3, 114624, Note_on_c, 0, 65, 92
3, 114720, Note_off_c, 0, 65, 64
3, 114720, Note_on_c, 0, 67, 92
3, 114816, Note_off_c, 0, 67, 64
3, 114816, Note_on_c, 0, 69, 92
3, 114912, Note_off_c, 0, 69, 64
3, 114912, Note_on_c, 0, 65, 92
3, 115008, Note_off_c, 0, 65, 64
3, 115008, Note_on_c, 0, 67, 92
3, 115104, Note_off_c, 0, 67, 64
3, 115104, Note_on_c, 0, 69, 92
3, 115200, Note_off_c, 0, 69, 64
3, 115200, Note_on_c, 0, 64, 92
3, 115200, Note_on_c, 0, 67, 92
3, 115392, Note_off_c, 0, 67, 64
3, 115392, Note_off_c, 0, 64, 64
3, 115584, Note_on_c, 0, 65, 92
3, 115584, Note_on_c, 0, 69, 92
3, 115776, Note_off_c, 0, 69, 64
3, 115776, Note_off_c, 0, 65, 64
3, 115776, Note_on_c, 0, 70, 92
3, 115776, Note_on_c, 0, 67, 92
3, 115968, Note_off_c, 0, 67, 64
3, 115968, Note_off_c, 0, 70, 64
3, 115968, Note_on_c, 0, 69, 92
3, 115968, Note_on_c, 0, 72, 92
3, 116160, Note_off_c, 0, 72, 64
3, 116160, Note_off_c, 0, 69, 64
3, 116160, Note_on_c, 0, 70, 92
3, 116160, Note_on_c, 0, 74, 92
3, 116352, Note_off_c, 0, 74, 64
3, 116352, Note_off_c, 0, 70, 64
3, 116352, Note_on_c, 0, 67, 92
3, 116352, Note_on_c, 0, 70, 92
3, 116544, Note_off_c, 0, 70, 64
3, 116544, Note_off_c, 0, 67, 64
3, 116544, Note_on_c, 0, 69, 92
3, 116544, Note_on_c, 0, 72, 92
3, 116736, Note_off_c, 0, 72, 64
3, 116736, Note_off_c, 0, 69, 64
3, 116736, Note_on_c, 0, 65, 92
3, 116736, Note_on_c, 0, 69, 92
3, 116928, Note_off_c, 0, 69, 64
3, 116928, Note_off_c, 0, 65, 64
3, 116928, Note_on_c, 0, 67, 92
3, 116928, Note_on_c, 0, 70, 92
3, 117120, Note_off_c, 0, 70, 64
3, 117120, Note_off_c, 0, 67, 64
3, 117120, Note_on_c, 0, 64, 92
3, 117120, Note_on_c, 0, 67, 92
3, 117504, Note_off_c, 0, 67, 64
3, 117504, Note_off_c, 0, 64, 64
3, 117504, Note_on_c, 0, 65, 92
3, 117504, Note_on_c, 0, 69, 92
3, 117696, Note_off_c, 0, 69, 64
3, 117696, Note_off_c, 0, 65, 64
3, 117696, Note_on_c, 0, 67, 92
3, 117696, Note_on_c, 0, 70, 92
3, 117888, Note_off_c, 0, 70, 64
3, 117888, Note_off_c, 0, 67, 64
3, 117888, Note_on_c, 0, 64, 92
3, 117888, Note_on_c, 0, 67, 92
3, 118272, Note_off_c, 0, 67, 64
3, 118272, Note_off_c, 0, 64, 64
3, 118272, Note_on_c, 0, 65, 92
3, 118272, Note_on_c, 0, 69, 92
3, 118464, Note_off_c, 0, 69, 64
3, 118464, Note_off_c, 0, 65, 64
3, 119232, Note_on_c, 0, 65, 92
3, 119232, Note_on_c, 0, 69, 92
3, 119424, Note_off_c, 0, 69, 64
3, 119424, Note_off_c, 0, 65, 64
3, 119424, Note_on_c, 0, 64, 92
3, 119424, Note_on_c, 0, 69, 92
3, 119808, Note_off_c, 0, 69, 64
3, 119808, Note_off_c, 0, 64, 64
3, 119808, Note_on_c, 0, 62, 92
3, 119808, Note_on_c, 0, 69, 92
3, 120000, Note_off_c, 0, 69, 64
3, 120000, Note_off_c, 0, 62, 64
3, 120000, Note_on_c, 0, 61, 92
3, 120096, Note_off_c, 0, 61, 64
3, 120096, Note_on_c, 0, 64, 92
3, 120192, Note_off_c, 0, 64, 64
3, 120192, Note_on_c, 0, 62, 92
3, 120288, Note_off_c, 0, 62, 64
3, 120288, Note_on_c, 0, 65, 92
3, 120384, Note_off_c, 0, 65, 64
3, 120384, Note_on_c, 0, 64, 92
3, 120480, Note_off_c, 0, 64, 64
3, 120480, Note_on_c, 0, 67, 92
3, 120576, Note_off_c, 0, 67, 64
3, 120576, Note_on_c, 0, 65, 92
3, 120768, Note_off_c, 0, 65, 64
3, 120768, Note_on_c, 0, 67, 92
3, 120960, Note_off_c, 0, 67, 64
3, 120960, Note_on_c, 0, 65, 92
3, 121152, Note_off_c, 0, 65, 64
3, 121152, Note_on_c, 0, 64, 92
3, 121344, Note_off_c, 0, 64, 64
3, 121344, Note_on_c, 0, 62, 92
3, 121536, Note_off_c, 0, 62, 64
3, 121536, Note_on_c, 0, 61, 92
3, 121728, Note_off_c, 0, 61, 64
3, 121728, Note_on_c, 0, 62, 92
3, 121920, Note_off_c, 0, 62, 64
3, 121920, Note_on_c, 0, 53, 92
3, 122112, Note_off_c, 0, 53, 64
3, 122112, Note_on_c, 0, 55, 92
3, 122304, Note_off_c, 0, 55, 64
3, 122304, Note_on_c, 0, 56, 92
3, 122496, Note_off_c, 0, 56, 64
3, 122496, Note_on_c, 0, 57, 92
3, 122688, Note_off_c, 0, 57, 64
3, 122688, Note_on_c, 0, 52, 92
3, 122880, Note_off_c, 0, 52, 64
3, 122880, Note_on_c, 0, 53, 92
3, 123072, Note_off_c, 0, 53, 64
3, 123072, Note_on_c, 0, 49, 92
3, 123264, Note_off_c, 0, 49, 64
3, 123264, Note_on_c, 0, 50, 92
3, 123456, Note_off_c, 0, 50, 64
3, 123456, Note_on_c, 0, 45, 92
3, 123648, Note_off_c, 0, 45, 64
3, 123648, Note_on_c, 0, 46, 92
3, 123840, Note_off_c, 0, 46, 64
3, 123840, Note_on_c, 0, 41, 92
3, 124032, Note_off_c, 0, 41, 64
3, 124032, Note_on_c, 0, 43, 92
3, 124224, Note_off_c, 0, 43, 64
3, 124224, Note_on_c, 0, 45, 92
3, 124416, Note_off_c, 0, 45, 64
3, 124416, Note_on_c, 0, 50, 92
3, 124800, Note_off_c, 0, 50, 64
3, 130560, Note_on_c, 0, 57, 92
3, 130944, Note_off_c, 0, 57, 64
3, 132096, Note_on_c, 0, 57, 92
3, 132480, Note_off_c, 0, 57, 64
3, 133632, Note_on_c, 0, 62, 92
3, 133632, Note_on_c, 0, 56, 92
3, 133632, Note_on_c, 0, 59, 92
3, 134400, Note_on_c, 0, 64, 92
3, 135168, Note_off_c, 0, 64, 64
3, 135168, Note_off_c, 0, 59, 64
3, 135168, Note_off_c, 0, 56, 64
3, 135168, Note_off_c, 0, 62, 64
3, 135168, Note_on_c, 0, 64, 92
3, 135168, Note_on_c, 0, 61, 92
3, 135168, Note_on_c, 0, 57, 92
3, 136704, Note_off_c, 0, 57, 64
3, 136704, Note_off_c, 0, 61, 64
3, 136704, Note_off_c, 0, 64, 64
3, 136704, End_track
4, 0, Start_track
4, 0, Title_t, "Track 3"
4, 12384, Note_on_c, 0, 57, 102
4, 12480, Note_off_c, 0, 57, 64
4, 12480, Note_on_c, 0, 55, 102
4, 12576, Note_off_c, 0, 55, 64
4, 12576, Note_on_c, 0, 57, 102
4, 12672, Note_off_c, 0, 57, 64
4, 12672, Note_on_c, 0, 53, 102
4, 12768, Note_off_c, 0, 53, 64
4, 12768, Note_on_c, 0, 55, 102
4, 12864, Note_off_c, 0, 55, 64
4, 12864, Note_on_c, 0, 52, 102
4, 12960, Note_off_c, 0, 52, 64
4, 12960, Note_on_c, 0, 53, 102
4, 13056, Note_off_c, 0, 53, 64
4, 13056, Note_on_c, 0, 50, 102
4, 13152, Note_off_c, 0, 50, 64
4, 13152, Note_on_c, 0, 52, 102
4, 13248, Note_off_c, 0, 52, 64
4, 13248, Note_on_c, 0, 48, 102
4, 13344, Note_off_c, 0, 48, 64
4, 13344, Note_on_c, 0, 50, 102
4, 13440, Note_off_c, 0, 50, 64
4, 13440, Note_on_c, 0, 47, 102
4, 13632, Note_off_c, 0, 47, 64
4, 13632, Note_on_c, 0, 45, 102
4, 13824, Note_off_c, 0, 45, 64
4, 13824, Note_on_c, 0, 52, 102
4, 14592, Note_off_c, 0, 52, 64
4, 14592, Note_on_c, 0, 40, 102
4, 15360, Note_off_c, 0, 40, 64
4, 15360, Note_on_c, 0, 52, 102
4, 16896, Note_off_c, 0, 52, 64
4, 16896, Note_on_c, 0, 45, 102
4, 17664, Note_off_c, 0, 45, 64
4, 26688, Note_on_c, 0, 52, 102
4, 26880, Note_off_c, 0, 52, 64
4, 26880, Note_on_c, 0, 57, 102
4, 26976, Note_off_c, 0, 57, 64
4, 26976, Note_on_c, 0, 56, 102
4, 27072, Note_off_c, 0, 56, 64
4, 27072, Note_on_c, 0, 57, 102
4, 27168, Note_off_c, 0, 57, 64
4, 27168, Note_on_c, 0, 56, 102
4, 27264, Note_off_c, 0, 56, 64
4, 27264, Note_on_c, 0, 57, 102
4, 27360, Note_off_c, 0, 57, 64
4, 27360, Note_on_c, 0, 56, 102
4, 27456, Note_off_c, 0, 56, 64
4, 27456, Note_on_c, 0, 57, 102
4, 27552, Note_off_c, 0, 57, 64
4, 27552, Note_on_c, 0, 56, 102
4, 27648, Note_off_c, 0, 56, 64
4, 27648, Note_on_c, 0, 57, 102
4, 27744, Note_off_c, 0, 57, 64
4, 27744, Note_on_c, 0, 52, 102
4, 27840, Note_off_c, 0, 52, 64
4, 27840, Note_on_c, 0, 57, 102
4, 27936, Note_off_c, 0, 57, 64
4, 27936, Note_on_c, 0, 55, 102
4, 28032, Note_off_c, 0, 55, 64
4, 28032, Note_on_c, 0, 53, 102
4, 28224, Note_off_c, 0, 53, 64
4, 28224, Note_on_c, 0, 54, 102
4, 28416, Note_off_c, 0, 54, 64
4, 28416, Note_on_c, 0, 55, 102
4, 28512, Note_off_c, 0, 55, 64
4, 28512, Note_on_c, 0, 50, 102
4, 28608, Note_off_c, 0, 50, 64
4, 28608, Note_on_c, 0, 55, 102
4, 28704, Note_off_c, 0, 55, 64
4, 28704, Note_on_c, 0, 53, 102
4, 28800, Note_off_c, 0, 53, 64
4, 28800, Note_on_c, 0, 52, 102
4, 28992, Note_off_c, 0, 52, 64
4, 28992, Note_on_c, 0, 53, 102
4, 29376, Note_off_c, 0, 53, 64
4, 29376, Note_on_c, 0, 52, 102
4, 29568, Note_off_c, 0, 52, 64
4, 29568, Note_on_c, 0, 50, 102
4, 30144, Note_off_c, 0, 50, 64
4, 30144, Note_on_c, 0, 48, 102
4, 30240, Note_off_c, 0, 48, 64
4, 30240, Note_on_c, 0, 45, 102
4, 30336, Note_off_c, 0, 45, 64
4, 30336, Note_on_c, 0, 47, 102
4, 30912, Note_off_c, 0, 47, 64
4, 30912, Note_on_c, 0, 45, 102
4, 31104, Note_off_c, 0, 45, 64
4, 31104, Note_on_c, 0, 52, 102
4, 31488, Note_off_c, 0, 52, 64
4, 31680, Note_on_c, 0, 57, 102
4, 31872, Note_off_c, 0, 57, 64
4, 31872, Note_on_c, 0, 52, 102
4, 32256, Note_off_c, 0, 52, 64
4, 32256, Note_on_c, 0, 45, 102
4, 32640, Note_off_c, 0, 45, 64
4, 38976, Note_on_c, 0, 45, 102
4, 39168, Note_off_c, 0, 45, 64
4, 39168, Note_on_c, 0, 52, 102
4, 39264, Note_off_c, 0, 52, 64
4, 39264, Note_on_c, 0, 51, 102
4, 39360, Note_off_c, 0, 51, 64
4, 39360, Note_on_c, 0, 52, 102
4, 39456, Note_off_c, 0, 52, 64
4, 39456, Note_on_c, 0, 51, 102
4, 39552, Note_off_c, 0, 51, 64
4, 39552, Note_on_c, 0, 52, 102
4, 39648, Note_off_c, 0, 52, 64
4, 39648, Note_on_c, 0, 51, 102
4, 39744, Note_off_c, 0, 51, 64
4, 39744, Note_on_c, 0, 52, 102
4, 39840, Note_off_c, 0, 52, 64
4, 39840, Note_on_c, 0, 51, 102
4, 39936, Note_off_c, 0, 51, 64
4, 39936, Note_on_c, 0, 52, 102
4, 40032, Note_off_c, 0, 52, 64
4, 40032, Note_on_c, 0, 47, 102
4, 40128, Note_off_c, 0, 47, 64
4, 40128, Note_on_c, 0, 52, 102
4, 40224, Note_off_c, 0, 52, 64
4, 40224, Note_on_c, 0, 50, 102
4, 40320, Note_off_c, 0, 50, 64
4, 40320, Note_on_c, 0, 48, 102
4, 40512, Note_off_c, 0, 48, 64
4, 40512, Note_on_c, 0, 49, 102
4, 40704, Note_off_c, 0, 49, 64
4, 40704, Note_on_c, 0, 50, 102
4, 40800, Note_off_c, 0, 50, 64
4, 40800, Note_on_c, 0, 45, 102
4, 40896, Note_off_c, 0, 45, 64
4, 40896, Note_on_c, 0, 50, 102
4, 40992, Note_off_c, 0, 50, 64
4, 40992, Note_on_c, 0, 48, 102
4, 41088, Note_off_c, 0, 48, 64
4, 41088, Note_on_c, 0, 47, 102
4, 41280, Note_off_c, 0, 47, 64
4, 41280, Note_on_c, 0, 48, 102
4, 41472, Note_off_c, 0, 48, 64
4, 41472, Note_on_c, 0, 41, 102
4, 41856, Note_off_c, 0, 41, 64
4, 41856, Note_on_c, 0, 43, 102
4, 42240, Note_off_c, 0, 43, 64
4, 42240, Note_on_c, 0, 36, 102
4, 42624, Note_off_c, 0, 36, 64
4, 43776, Note_on_c, 0, 48, 102
4, 44160, Note_off_c, 0, 48, 64
4, 44928, Note_on_c, 0, 48, 102
4, 45312, Note_off_c, 0, 48, 64
4, 46080, Note_on_c, 0, 48, 102
4, 46464, Note_off_c, 0, 48, 64
4, 47616, Note_on_c, 0, 48, 102
4, 48384, Note_off_c, 0, 48, 64
4, 48384, Note_on_c, 0, 47, 102
4, 49920, Note_off_c, 0, 47, 64
4, 49920, Note_on_c, 0, 48, 102
4, 50688, Note_off_c, 0, 48, 64
4, 50688, Note_on_c, 0, 50, 102
4, 52992, Note_off_c, 0, 50, 64
4, 52992, Note_on_c, 0, 49, 102
4, 54528, Note_off_c, 0, 49, 64
4, 54528, Note_on_c, 0, 51, 102
4, 55296, Note_off_c, 0, 51, 64
4, 55296, Note_on_c, 0, 52, 102
4, 59136, Note_off_c, 0, 52, 64
4, 61824, Note_on_c, 0, 57, 102
4, 62208, Note_off_c, 0, 57, 64
4, 62208, Note_on_c, 0, 55, 102
4, 62592, Note_off_c, 0, 55, 64
4, 62592, Note_on_c, 0, 52, 102
4, 62976, Note_off_c, 0, 52, 64
4, 62976, Note_on_c, 0, 53, 102
4, 63168, Note_off_c, 0, 53, 64
4, 63168, Note_on_c, 0, 54, 102
4, 63360, Note_off_c, 0, 54, 64
4, 63360, Note_on_c, 0, 55, 102
4, 63552, Note_off_c, 0, 55, 64
4, 63552, Note_on_c, 0, 56, 102
4, 63744, Note_off_c, 0, 56, 64
4, 63744, Note_on_c, 0, 57, 102
4, 63936, Note_off_c, 0, 57, 64
4, 63936, Note_on_c, 0, 52, 102
4, 64128, Note_off_c, 0, 52, 64
4, 64128, Note_on_c, 0, 53, 102
4, 64320, Note_off_c, 0, 53, 64
4, 64320, Note_on_c, 0, 49, 102
4, 64512, Note_off_c, 0, 49, 64
4, 64512, Note_on_c, 0, 50, 102
4, 64704, Note_off_c, 0, 50, 64
4, 64704, Note_on_c, 0, 53, 102
4, 64896, Note_off_c, 0, 53, 64
4, 64896, Note_on_c, 0, 52, 102
4, 65280, Note_off_c, 0, 52, 64
4, 65280, Note_on_c, 0, 57, 102
4, 65664, Note_off_c, 0, 57, 64
4, 67008, Note_on_c, 0, 52, 102
4, 67200, Note_off_c, 0, 52, 64
4, 67200, Note_on_c, 0, 53, 102
4, 67296, Note_off_c, 0, 53, 64
4, 67296, Note_on_c, 0, 52, 102
4, 67392, Note_off_c, 0, 52, 64
4, 67392, Note_on_c, 0, 53, 102
4, 67488, Note_off_c, 0, 53, 64
4, 67488, Note_on_c, 0, 48, 102
4, 67584, Note_off_c, 0, 48, 64
4, 67584, Note_on_c, 0, 52, 102
4, 67680, Note_off_c, 0, 52, 64
4, 67680, Note_on_c, 0, 45, 102
4, 67776, Note_off_c, 0, 45, 64
4, 67776, Note_on_c, 0, 57, 102
4, 67872, Note_off_c, 0, 57, 64
4, 67872, Note_on_c, 0, 52, 102
4, 67968, Note_off_c, 0, 52, 64
4, 67968, Note_on_c, 0, 54, 102
4, 68064, Note_off_c, 0, 54, 64
4, 68064, Note_on_c, 0, 47, 102
4, 68160, Note_off_c, 0, 47, 64
4, 68160, Note_on_c, 0, 59, 102
4, 68256, Note_off_c, 0, 59, 64
4, 68256, Note_on_c, 0, 54, 102
4, 68352, Note_off_c, 0, 54, 64
4, 68352, Note_on_c, 0, 56, 102
4, 68448, Note_off_c, 0, 56, 64
4, 68448, Note_on_c, 0, 52, 102
4, 68544, Note_off_c, 0, 52, 64
4, 68544, Note_on_c, 0, 57, 102
4, 68928, Note_off_c, 0, 57, 64
4, 68928, Note_on_c, 0, 56, 102
4, 69120, Note_off_c, 0, 56, 64
4, 69120, Note_on_c, 0, 57, 102
4, 69504, Note_off_c, 0, 57, 64
4, 72576, Note_on_c, 0, 52, 102
4, 72960, Note_off_c, 0, 52, 64
4, 72960, Note_on_c, 0, 48, 102
4, 73344, Note_off_c, 0, 48, 64
4, 73344, Note_on_c, 0, 45, 102
4, 73728, Note_off_c, 0, 45, 64
4, 73728, Note_on_c, 0, 48, 102
4, 73920, Note_off_c, 0, 48, 64
4, 73920, Note_on_c, 0, 49, 102
4, 74112, Note_off_c, 0, 49, 64
4, 74112, Note_on_c, 0, 50, 102
4, 74304, Note_off_c, 0, 50, 64
4, 74304, Note_on_c, 0, 51, 102
4, 74496, Note_off_c, 0, 51, 64
4, 74496, Note_on_c, 0, 52, 102
4, 74880, Note_off_c, 0, 52, 64
4, 76992, Note_on_c, 0, 47, 102
4, 77184, Note_off_c, 0, 47, 64
4, 77184, Note_on_c, 0, 48, 102
4, 77280, Note_off_c, 0, 48, 64
4, 77280, Note_on_c, 0, 47, 102
4, 77376, Note_off_c, 0, 47, 64
4, 77376, Note_on_c, 0, 48, 102
4, 77472, Note_off_c, 0, 48, 64
4, 77472, Note_on_c, 0, 43, 102
4, 77568, Note_off_c, 0, 43, 64
4, 77568, Note_on_c, 0, 45, 102
4, 77664, Note_off_c, 0, 45, 64
4, 77664, Note_on_c, 0, 38, 102
4, 77760, Note_off_c, 0, 38, 64
4, 77760, Note_on_c, 0, 50, 102
4, 77856, Note_off_c, 0, 50, 64
4, 77856, Note_on_c, 0, 45, 102
4, 77952, Note_off_c, 0, 45, 64
4, 77952, Note_on_c, 0, 47, 102
4, 78048, Note_off_c, 0, 47, 64
4, 78048, Note_on_c, 0, 40, 102
4, 78144, Note_off_c, 0, 40, 64
4, 78144, Note_on_c, 0, 52, 102
4, 78240, Note_off_c, 0, 52, 64
4, 78240, Note_on_c, 0, 47, 102
4, 78336, Note_off_c, 0, 47, 64
4, 78336, Note_on_c, 0, 48, 102
4, 78528, Note_off_c, 0, 48, 64
4, 78528, Note_on_c, 0, 49, 102
4, 78720, Note_off_c, 0, 49, 64
4, 78720, Note_on_c, 0, 50, 102
4, 78912, Note_off_c, 0, 50, 64
4, 78912, Note_on_c, 0, 45, 102
4, 79104, Note_off_c, 0, 45, 64
4, 79104, Note_on_c, 0, 46, 102
4, 79296, Note_off_c, 0, 46, 64
4, 79296, Note_on_c, 0, 47, 102
4, 79488, Note_off_c, 0, 47, 64
4, 79488, Note_on_c, 0, 48, 102
4, 79680, Note_off_c, 0, 48, 64
4, 79680, Note_on_c, 0, 44, 102
4, 79872, Note_off_c, 0, 44, 64
4, 79872, Note_on_c, 0, 45, 102
4, 80256, Note_off_c, 0, 45, 64
4, 86400, Note_on_c, 0, 45, 102
4, 86784, Note_off_c, 0, 45, 64
4, 86784, Note_on_c, 0, 43, 102
4, 87168, Note_off_c, 0, 43, 64
4, 87168, Note_on_c, 0, 40, 102
4, 87552, Note_off_c, 0, 40, 64
4, 87552, Note_on_c, 0, 41, 102
4, 87744, Note_off_c, 0, 41, 64
4, 87744, Note_on_c, 0, 42, 102
4, 87936, Note_off_c, 0, 42, 64
4, 87936, Note_on_c, 0, 43, 102
4, 88128, Note_off_c, 0, 43, 64
4, 88128, Note_on_c, 0, 44, 102
4, 88320, Note_off_c, 0, 44, 64
4, 88320, Note_on_c, 0, 45, 102
4, 88704, Note_off_c, 0, 45, 64
4, 90816, Note_on_c, 0, 59, 102
4, 91008, Note_off_c, 0, 59, 64
4, 91008, Note_on_c, 0, 60, 102
4, 91104, Note_off_c, 0, 60, 64
4, 91104, Note_on_c, 0, 59, 102
4, 91200, Note_off_c, 0, 59, 64
4, 91200, Note_on_c, 0, 60, 102
4, 91296, Note_off_c, 0, 60, 64
4, 91296, Note_on_c, 0, 55, 102
4, 91392, Note_off_c, 0, 55, 64
4, 91392, Note_on_c, 0, 57, 102
4, 91776, Note_off_c, 0, 57, 64
4, 92352, Note_on_c, 0, 57, 102
4, 92544, Note_off_c, 0, 57, 64
4, 92544, Note_on_c, 0, 59, 102
4, 92640, Note_off_c, 0, 59, 64
4, 92640, Note_on_c, 0, 57, 102
4, 92736, Note_off_c, 0, 57, 64
4, 92736, Note_on_c, 0, 59, 102
4, 92832, Note_off_c, 0, 59, 64
4, 92832, Note_on_c, 0, 54, 102
4, 92928, Note_off_c, 0, 54, 64
4, 92928, Note_on_c, 0, 55, 102
4, 93120, Note_off_c, 0, 55, 64
4, 93120, Note_on_c, 0, 56, 102
4, 93312, Note_off_c, 0, 56, 64
4, 93312, Note_on_c, 0, 57, 102
4, 93408, Note_off_c, 0, 57, 64
4, 93408, Note_on_c, 0, 56, 102
4, 93504, Note_off_c, 0, 56, 64
4, 93504, Note_on_c, 0, 57, 102
4, 93600, Note_off_c, 0, 57, 64
4, 93600, Note_on_c, 0, 52, 102
4, 93696, Note_off_c, 0, 52, 64
4, 93696, Note_on_c, 0, 53, 102
4, 93888, Note_off_c, 0, 53, 64
4, 93888, Note_on_c, 0, 54, 102
4, 94080, Note_off_c, 0, 54, 64
4, 94080, Note_on_c, 0, 55, 102
4, 94656, Note_off_c, 0, 55, 64
4, 94656, Note_on_c, 0, 53, 102
4, 94848, Note_off_c, 0, 53, 64
4, 94848, Note_on_c, 0, 55, 102
4, 95232, Note_off_c, 0, 55, 64
4, 95232, Note_on_c, 0, 48, 102
4, 95616, Note_off_c, 0, 48, 64
4, 109440, Note_on_c, 0, 52, 102
4, 109536, Note_off_c, 0, 52, 64
4, 109536, Note_on_c, 0, 50, 102
4, 109632, Note_off_c, 0, 50, 64
4, 109632, Note_on_c, 0, 52, 102
4, 109728, Note_off_c, 0, 52, 64
4, 109728, Note_on_c, 0, 47, 102
4, 109824, Note_off_c, 0, 47, 64
4, 109824, Note_on_c, 0, 48, 102
4, 109920, Note_off_c, 0, 48, 64
4, 109920, Note_on_c, 0, 47, 102
4, 110016, Note_off_c, 0, 47, 64
4, 110016, Note_on_c, 0, 48, 102
4, 110112, Note_off_c, 0, 48, 64
4, 110112, Note_on_c, 0, 45, 102
4, 110208, Note_off_c, 0, 45, 64
4, 110208, Note_on_c, 0, 48, 102
4, 110400, Note_off_c, 0, 48, 64
4, 110400, Note_on_c, 0, 49, 102
4, 110592, Note_off_c, 0, 49, 64
4, 110592, Note_on_c, 0, 50, 102
4, 110784, Note_off_c, 0, 50, 64
4, 110784, Note_on_c, 0, 50, 102
4, 110976, Note_off_c, 0, 50, 64
4, 110976, Note_on_c, 0, 50, 102
4, 111168, Note_off_c, 0, 50, 64
4, 111168, Note_on_c, 0, 51, 102
4, 111360, Note_off_c, 0, 51, 64
4, 111360, Note_on_c, 0, 52, 102
4, 112128, Note_off_c, 0, 52, 64
4, 112512, Note_on_c, 0, 52, 102
4, 112896, Note_off_c, 0, 52, 64
4, 112896, Note_on_c, 0, 45, 102
4, 113280, Note_off_c, 0, 45, 64
4, 118272, Note_on_c, 0, 50, 102
4, 118368, Note_off_c, 0, 50, 64
4, 118368, Note_on_c, 0, 53, 102
4, 118464, Note_off_c, 0, 53, 64
4, 118464, Note_on_c, 0, 52, 102
4, 118560, Note_off_c, 0, 52, 64
4, 118560, Note_on_c, 0, 55, 102
4, 118656, Note_off_c, 0, 55, 64
4, 118656, Note_on_c, 0, 53, 102
4, 118752, Note_off_c, 0, 53, 64
4, 118752, Note_on_c, 0, 57, 102
4, 118848, Note_off_c, 0, 57, 64
4, 118848, Note_on_c, 0, 55, 102
4, 118944, Note_off_c, 0, 55, 64
4, 118944, Note_on_c, 0, 58, 102
4, 119040, Note_off_c, 0, 58, 64
4, 119040, Note_on_c, 0, 57, 102
4, 119136, Note_off_c, 0, 57, 64
4, 119136, Note_on_c, 0, 52, 102
4, 119232, Note_off_c, 0, 52, 64
4, 119232, Note_on_c, 0, 53, 102
4, 119328, Note_off_c, 0, 53, 64
4, 119328, Note_on_c, 0, 50, 102
4, 119424, Note_off_c, 0, 50, 64
4, 119424, Note_on_c, 0, 57, 102
4, 119808, Note_off_c, 0, 57, 64
4, 119808, Note_on_c, 0, 50, 102
4, 121344, Note_off_c, 0, 50, 64
4, 124512, Note_on_c, 0, 62, 102
4, 124608, Note_off_c, 0, 62, 64
4, 124608, Note_on_c, 0, 57, 102
4, 124704, Note_off_c, 0, 57, 64
4, 124704, Note_on_c, 0, 62, 102
4, 124800, Note_off_c, 0, 62, 64
4, 124800, Note_on_c, 0, 53, 102
4, 124896, Note_off_c, 0, 53, 64
4, 124896, Note_on_c, 0, 57, 102
4, 124992, Note_off_c, 0, 57, 64
4, 124992, Note_on_c, 0, 55, 102
4, 125088, Note_off_c, 0, 55, 64
4, 125088, Note_on_c, 0, 57, 102
4, 125184, Note_off_c, 0, 57, 64
4, 125184, Note_on_c, 0, 53, 102
4, 125280, Note_off_c, 0, 53, 64
4, 125280, Note_on_c, 0, 55, 102
4, 125376, Note_off_c, 0, 55, 64
4, 125376, Note_on_c, 0, 52, 102
4, 125472, Note_off_c, 0, 52, 64
4, 125472, Note_on_c, 0, 53, 102
4, 125568, Note_off_c, 0, 53, 64
4, 125568, Note_on_c, 0, 50, 102
4, 125664, Note_off_c, 0, 50, 64
4, 125664, Note_on_c, 0, 52, 102
4, 125760, Note_off_c, 0, 52, 64
4, 125760, Note_on_c, 0, 49, 102
4, 125808, Note_off_c, 0, 49, 64
4, 125808, Note_on_c, 0, 50, 102
4, 125856, Note_off_c, 0, 50, 64
4, 125856, Note_on_c, 0, 52, 102
4, 125952, Note_off_c, 0, 52, 64
4, 125952, Note_on_c, 0, 50, 102
4, 129024, Note_off_c, 0, 50, 64
4, 129024, Note_on_c, 0, 45, 102
4, 133632, Note_off_c, 0, 45, 64
4, 133632, Note_on_c, 0, 45, 102
4, 136704, Note_off_c, 0, 45, 64
4, 136704, End_track
0, 0, End_of_file
