0, 0, Header, 1, 15, 120
1, 0, Start_track
1, 0, Time_signature, 3, 2, 24, 8
1, 0, Key_signature, 1, "major"
1, 0, Tempo, 1000000
1, 24308, Tempo, 1000000
1, 24318, Tempo, 1016949
1, 24324, Tempo, 1000000
1, 24328, Tempo, 983607
1, 24330, Tempo, 967742
1, 24332, Tempo, 983607
1, 24334, Tempo, 1000000
1, 24340, Tempo, 1052632
1, 24342, Tempo, 1090909
1, 24344, Tempo, 1111111
1, 24346, Tempo, 1132075
1, 24352, Tempo, 1176471
1, 24354, Tempo, 1224490
1, 24356, Tempo, 1250000
1, 24360, Tempo, 1304348
1, 24362, Tempo, 1333333
1, 24364, Tempo, 1363636
1, 24366, Tempo, 1395349
1, 24368, Tempo, 1428571
1, 24372, Tempo, 1500000
1, 24374, Tempo, 1538462
1, 24378, Tempo, 1578947
1, 24380, Tempo, 1621622
1, 24382, Tempo, 1666667
1, 24384, Tempo, 1714286
1, 24386, Tempo, 1764706
1, 24388, Tempo, 1818182
1, 24390, Tempo, 1875000
1, 24392, Tempo, 1935484
1, 24396, Tempo, 2068966
1, 24398, Tempo, 2142857
1, 24400, Tempo, 2222222
1, 24402, Tempo, 2307692
1, 24406, Tempo, 2400000
1, 24408, Tempo, 2500000
1, 24410, Tempo, 2608696
1, 24414, Tempo, 2857143
1, 24420, Tempo, 3157895
1, 24428, Tempo, 3333333
1, 24436, Tempo, 3529412
1, 24458, Tempo, 3333333
1, 24460, Tempo, 3157895
1, 24468, Tempo, 3000000
1, 24470, Tempo, 2857143
1, 24476, Tempo, 1000000
1, 24478, Tempo, 1000000
1, 24480, Tempo, 983607
1, 24486, Tempo, 967742
1, 24494, Tempo, 952381
1, 24496, Tempo, 937500
1, 24516, Tempo, 952381
1, 24534, Tempo, 937500
1, 24558, Tempo, 923077
1, 24560, Tempo, 909091
1, 24566, Tempo, 895522
1, 24568, Tempo, 882353
1, 24576, Tempo, 869565
1, 24582, Tempo, 857143
1, 24590, Tempo, 845070
1, 24596, Tempo, 833333
1, 24662, Tempo, 845070
1, 24666, Tempo, 857143
1, 24670, Tempo, 869565
1, 24674, Tempo, 882353
1, 24680, Tempo, 895522
1, 24686, Tempo, 909091
1, 24692, Tempo, 923077
1, 24694, Tempo, 937500
1, 24706, Tempo, 952381
1, 24708, Tempo, 967742
1, 24718, Tempo, 983607
1, 24720, Tempo, 1000000
1, 24762, Tempo, 983607
1, 24780, Tempo, 967742
1, 24798, Tempo, 952381
1, 24802, Tempo, 937500
1, 24832, Tempo, 952381
1, 24834, Tempo, 967742
1, 24844, Tempo, 1016949
1, 24846, Tempo, 983607
1, 24852, Tempo, 1000000
1, 24854, Tempo, 1016949
1, 24860, Tempo, 1034483
1, 24864, Tempo, 1052632
1, 24874, Tempo, 1034483
1, 24876, Tempo, 1016949
1, 24880, Tempo, 1000000
1, 24882, Tempo, 983607
1, 24888, Tempo, 967742
1, 24892, Tempo, 952381
1, 24894, Tempo, 923077
1, 24898, Tempo, 882353
1, 24908, Tempo, 869565
1, 24926, Tempo, 882353
1, 24932, Tempo, 895522
1, 24944, Tempo, 909091
1, 24950, Tempo, 923077
1, 24956, Tempo, 952381
1, 24960, Tempo, 967742
1, 24962, Tempo, 983607
1, 24964, Tempo, 1000000
1, 24972, Tempo, 1052632
1, 24980, Tempo, 1071429
1, 24988, Tempo, 1090909
1, 25016, Tempo, 1071429
1, 25020, Tempo, 1052632
1, 25028, Tempo, 1016949
1, 25036, Tempo, 983607
1, 25058, Tempo, 1000000
1, 25060, Tempo, 1016949
1, 25062, Tempo, 1034483
1, 25064, Tempo, 1052632
1, 25068, Tempo, 1071429
1, 25070, Tempo, 1071429
1, 25072, Tempo, 1090909
1, 25074, Tempo, 1111111
1, 25078, Tempo, 1132075
1, 25086, Tempo, 1153846
1, 25088, Tempo, 1132075
1, 25094, Tempo, 1111111
1, 25098, Tempo, 1153846
1, 25102, Tempo, 1224490
1, 25114, Tempo, 1250000
1, 25118, Tempo, 1276596
1, 25126, Tempo, 1304348
1, 25128, Tempo, 1333333
1, 25134, Tempo, 1363636
1, 25136, Tempo, 1395349
1, 25142, Tempo, 1428571
1, 25144, Tempo, 1463415
1, 25150, Tempo, 1500000
1, 25154, Tempo, 1538462
1, 25158, Tempo, 1621622
1, 25166, Tempo, 1714286
1, 25168, Tempo, 1764706
1, 25170, Tempo, 1818182
1, 25178, Tempo, 2142857
1, 25180, Tempo, 2222222
1, 25181, Tempo, 2400000
1, 25185, Tempo, 2500000
1, 25186, Tempo, 2608696
1, 25190, Tempo, 2727273
1, 25193, Tempo, 2857143
1, 25200, Tempo, 3000000
1, 25201, Tempo, 689655
1, 25203, Tempo, 697674
1, 25211, Tempo, 689655
1, 25214, Tempo, 681818
1, 25234, Tempo, 674157
1, 25238, Tempo, 666667
1, 25260, Tempo, 674157
1, 25268, Tempo, 666667
1, 25276, Tempo, 659341
1, 25278, Tempo, 666667
1, 25284, Tempo, 674157
1, 25300, Tempo, 666667
1, 25302, Tempo, 689655
1, 25304, Tempo, 674157
1, 25310, Tempo, 909091
1, 25312, Tempo, 952381
1, 25314, Tempo, 1000000
1, 25316, Tempo, 952381
1, 25318, Tempo, 967742
1, 25320, Tempo, 983607
1, 25322, Tempo, 1016949
1, 25326, Tempo, 1052632
1, 25328, Tempo, 1071429
1, 25330, Tempo, 1111111
1, 25332, Tempo, 1132075
1, 25334, Tempo, 1176471
1, 25336, Tempo, 1200000
1, 25346, Tempo, 1224490
1, 25434, Tempo, 1200000
1, 25466, Tempo, 1176471
1, 25550, Tempo, 1200000
1, 25566, Tempo, 1224490
1, 25684, Tempo, 1250000
1, 25690, Tempo, 1224490
1, 25722, Tempo, 1200000
1, 25726, Tempo, 1176471
1, 25758, Tempo, 1153846
1, 25764, Tempo, 1132075
1, 25792, Tempo, 1111111
1, 25800, Tempo, 1200000
1, 25802, Tempo, 1224490
1, 25804, Tempo, 1500000
1, 25808, Tempo, 1764706
1, 25810, Tempo, 1818182
1, 25812, Tempo, 1935484
1, 25814, Tempo, 2000000
1, 25816, Tempo, 2400000
1, 25818, Tempo, 2608696
1, 25824, Tempo, 2727273
1, 25858, Tempo, 2857143
1, 25866, Tempo, 3000000
1, 25868, Tempo, 3157895
1, 25878, Tempo, 3333333
1, 25882, Tempo, 3529412
1, 25890, Tempo, 4000000
1, 25934, Tempo, 3750000
1, 25936, Tempo, 3529412
1, 25952, Tempo, 3157895
1, 25978, Tempo, 3000000
1, 25982, Tempo, 2857143
1, 25984, Tempo, 3000000
1, 25986, Tempo, 3157895
1, 25992, Tempo, 3529412
1, 25992, End_track
2, 0, Start_track
2, 0, MIDI_port, 0
2, 0, Title_t, "Violin"
2, 0, Program_c, 0, 40
2, 0, Control_c, 0, 7, 90
2, 0, Control_c, 0, 10, 80
2, 240, Channel_aftertouch_c, 0, 75
2, 480, Note_on_c, 0, 83, 85
2, 540, Note_on_c, 0, 84, 90
2, 544, Note_on_c, 0, 83, 0
2, 600, Note_on_c, 0, 83, 95
2, 606, Note_on_c, 0, 84, 0
2, 660, Note_on_c, 0, 84, 88
2, 662, Note_on_c, 0, 83, 0
2, 720, Note_on_c, 0, 81, 81
2, 726, Note_on_c, 0, 84, 0
2, 779, Note_on_c, 0, 81, 0
2, 780, Note_on_c, 0, 79, 70
2, 840, Note_on_c, 0, 81, 92
2, 846, Note_on_c, 0, 79, 0
2, 900, Note_on_c, 0, 84, 81
2, 909, Note_on_c, 0, 81, 0
2, 960, Note_on_c, 0, 83, 97
2, 965, Note_on_c, 0, 84, 0
2, 1020, Note_on_c, 0, 81, 85
2, 1025, Note_on_c, 0, 83, 0
2, 1080, Note_on_c, 0, 79, 71
2, 1081, Note_on_c, 0, 81, 0
2, 1200, Note_on_c, 0, 79, 0
2, 1200, Note_on_c, 0, 64, 68
2, 1320, Note_on_c, 0, 76, 74
2, 1322, Note_on_c, 0, 64, 0
2, 1556, Note_on_c, 0, 76, 0
2, 1560, Note_on_c, 0, 75, 79
2, 1800, Note_on_c, 0, 76, 77
2, 1812, Note_on_c, 0, 75, 0
2, 1911, Note_on_c, 0, 76, 0
2, 1920, Note_on_c, 0, 79, 85
2, 1980, Note_on_c, 0, 81, 79
2, 1989, Note_on_c, 0, 79, 0
2, 2040, Note_on_c, 0, 79, 97
2, 2043, Note_on_c, 0, 81, 0
2, 2097, Note_on_c, 0, 79, 0
2, 2100, Note_on_c, 0, 81, 60
2, 2156, Note_on_c, 0, 81, 0
2, 2160, Note_on_c, 0, 78, 90
2, 2220, Note_on_c, 0, 76, 70
2, 2232, Note_on_c, 0, 78, 0
2, 2280, Note_on_c, 0, 78, 92
2, 2292, Note_on_c, 0, 76, 0
2, 2340, Note_on_c, 0, 79, 70
2, 2343, Note_on_c, 0, 78, 0
2, 2400, Note_on_c, 0, 76, 75
2, 2404, Note_on_c, 0, 79, 0
2, 2456, Note_on_c, 0, 76, 0
2, 2460, Note_on_c, 0, 78, 79
2, 2520, Note_on_c, 0, 75, 95
2, 2526, Note_on_c, 0, 78, 0
2, 2631, Note_on_c, 0, 75, 0
2, 2640, Note_on_c, 0, 76, 75
2, 2760, Note_on_c, 0, 76, 0
2, 2760, Note_on_c, 0, 64, 81
2, 2880, Note_on_c, 0, 69, 62
2, 2881, Note_on_c, 0, 64, 0
2, 3000, Note_on_c, 0, 72, 81
2, 3014, Note_on_c, 0, 69, 0
2, 3060, Note_on_c, 0, 71, 88
2, 3066, Note_on_c, 0, 72, 0
2, 3120, Note_on_c, 0, 72, 85
2, 3129, Note_on_c, 0, 71, 0
2, 3240, Note_on_c, 0, 71, 72
2, 3245, Note_on_c, 0, 72, 0
2, 3360, Note_on_c, 0, 78, 92
2, 3363, Note_on_c, 0, 71, 0
2, 3420, Note_on_c, 0, 79, 79
2, 3425, Note_on_c, 0, 78, 0
2, 3480, Note_on_c, 0, 81, 88
2, 3482, Note_on_c, 0, 79, 0
2, 3540, Note_on_c, 0, 78, 100
2, 3543, Note_on_c, 0, 81, 0
2, 3600, Note_on_c, 0, 79, 92
2, 3606, Note_on_c, 0, 78, 0
2, 3719, Note_on_c, 0, 79, 0
2, 3720, Note_on_c, 0, 71, 75
2, 3832, Note_on_c, 0, 71, 0
2, 3840, Note_on_c, 0, 59, 77
2, 3960, Note_on_c, 0, 64, 79
2, 3971, Note_on_c, 0, 59, 0
2, 4080, Note_on_c, 0, 80, 100
2, 4082, Note_on_c, 0, 64, 0
2, 4140, Note_on_c, 0, 81, 72
2, 4144, Note_on_c, 0, 80, 0
2, 4199, Note_on_c, 0, 81, 0
2, 4200, Note_on_c, 0, 78, 97
2, 4260, Note_on_c, 0, 80, 97
2, 4268, Note_on_c, 0, 78, 0
2, 4320, Note_on_c, 0, 81, 90
2, 4326, Note_on_c, 0, 80, 0
2, 4436, Note_on_c, 0, 81, 0
2, 4440, Note_on_c, 0, 62, 92
2, 4551, Note_on_c, 0, 62, 0
2, 4560, Note_on_c, 0, 74, 92
2, 4680, Note_on_c, 0, 72, 81
2, 4681, Note_on_c, 0, 74, 0
2, 4800, Note_on_c, 0, 81, 95
2, 4805, Note_on_c, 0, 72, 0
2, 5160, Note_on_c, 0, 80, 90
2, 5170, Note_on_c, 0, 81, 0
2, 5280, Note_on_c, 0, 79, 92
2, 5284, Note_on_c, 0, 80, 0
2, 5520, Note_on_c, 0, 78, 100
2, 5521, Note_on_c, 0, 79, 0
2, 5640, Note_on_c, 0, 77, 95
2, 5648, Note_on_c, 0, 78, 0
2, 5859, Note_on_c, 0, 77, 0
2, 5880, Note_on_c, 0, 75, 92
2, 5992, Note_on_c, 0, 75, 0
2, 6000, Note_on_c, 0, 76, 90
2, 6179, Note_on_c, 0, 78, 97
2, 6198, Note_on_c, 0, 76, 0
2, 6239, Note_on_c, 0, 78, 0
2, 6239, Note_on_c, 0, 79, 85
2, 6266, Note_on_c, 0, 78, 100
2, 6269, Note_on_c, 0, 79, 0
2, 6285, Note_on_c, 0, 79, 70
2, 6287, Note_on_c, 0, 78, 0
2, 6304, Note_on_c, 0, 78, 92
2, 6305, Note_on_c, 0, 79, 0
2, 6320, Note_on_c, 0, 78, 0
2, 6320, Note_on_c, 0, 79, 75
2, 6334, Note_on_c, 0, 78, 90
2, 6337, Note_on_c, 0, 79, 0
2, 6348, Note_on_c, 0, 78, 0
2, 6348, Note_on_c, 0, 79, 77
2, 6363, Note_on_c, 0, 78, 92
2, 6364, Note_on_c, 0, 79, 0
2, 6420, Note_on_c, 0, 78, 0
2, 6420, Note_on_c, 0, 76, 75
2, 6468, Note_on_c, 0, 76, 0
2, 6480, Note_on_c, 0, 76, 85
2, 6589, Note_on_c, 0, 76, 0
2, 6600, Note_on_c, 0, 76, 92
2, 6720, Note_on_c, 0, 64, 75
2, 6724, Note_on_c, 0, 76, 0
2, 6840, Note_on_c, 0, 71, 72
2, 6845, Note_on_c, 0, 64, 0
2, 6900, Note_on_c, 0, 72, 83
2, 6907, Note_on_c, 0, 71, 0
2, 6960, Note_on_c, 0, 74, 72
2, 6965, Note_on_c, 0, 72, 0
2, 7020, Note_on_c, 0, 83, 75
2, 7030, Note_on_c, 0, 74, 0
2, 7080, Note_on_c, 0, 84, 83
2, 7089, Note_on_c, 0, 83, 0
2, 7140, Note_on_c, 0, 84, 0
2, 7140, Note_on_c, 0, 81, 85
2, 7200, Note_on_c, 0, 83, 92
2, 7208, Note_on_c, 0, 81, 0
2, 7300, Note_on_c, 0, 83, 0
2, 7320, Note_on_c, 0, 74, 92
2, 7436, Note_on_c, 0, 74, 0
2, 7440, Note_on_c, 0, 62, 81
2, 7560, Note_on_c, 0, 62, 0
2, 7560, Note_on_c, 0, 67, 75
2, 7678, Note_on_c, 0, 67, 0
2, 7680, Note_on_c, 0, 83, 95
2, 7740, Note_on_c, 0, 84, 97
2, 7761, Note_on_c, 0, 83, 0
2, 7800, Note_on_c, 0, 86, 92
2, 7808, Note_on_c, 0, 84, 0
2, 7860, Note_on_c, 0, 83, 92
2, 7863, Note_on_c, 0, 86, 0
2, 7917, Note_on_c, 0, 83, 0
2, 7920, Note_on_c, 0, 84, 90
2, 7980, Note_on_c, 0, 83, 95
2, 7986, Note_on_c, 0, 84, 0
2, 8040, Note_on_c, 0, 86, 83
2, 8044, Note_on_c, 0, 83, 0
2, 8100, Note_on_c, 0, 84, 92
2, 8105, Note_on_c, 0, 86, 0
2, 8160, Note_on_c, 0, 83, 95
2, 8172, Note_on_c, 0, 84, 0
2, 8215, Note_on_c, 0, 83, 0
2, 8220, Note_on_c, 0, 81, 70
2, 8280, Note_on_c, 0, 80, 76
2, 8290, Note_on_c, 0, 81, 0
2, 8378, Note_on_c, 0, 80, 0
2, 8400, Note_on_c, 0, 62, 79
2, 8460, Note_on_c, 0, 64, 83
2, 8468, Note_on_c, 0, 62, 0
2, 8520, Note_on_c, 0, 65, 77
2, 8527, Note_on_c, 0, 64, 0
2, 8580, Note_on_c, 0, 62, 81
2, 8587, Note_on_c, 0, 65, 0
2, 8640, Note_on_c, 0, 64, 95
2, 8649, Note_on_c, 0, 62, 0
2, 8757, Note_on_c, 0, 64, 0
2, 8760, Note_on_c, 0, 81, 95
2, 9051, Note_on_c, 0, 81, 0
2, 9060, Note_on_c, 0, 79, 101
2, 9120, Note_on_c, 0, 77, 95
2, 9125, Note_on_c, 0, 79, 0
2, 9180, Note_on_c, 0, 77, 0
2, 9180, Note_on_c, 0, 76, 90
2, 9238, Note_on_c, 0, 76, 0
2, 9240, Note_on_c, 0, 74, 66
2, 9300, Note_on_c, 0, 72, 92
2, 9306, Note_on_c, 0, 74, 0
2, 9359, Note_on_c, 0, 72, 0
2, 9360, Note_on_c, 0, 71, 77
2, 9480, Note_on_c, 0, 80, 95
2, 9496, Note_on_c, 0, 71, 0
2, 9600, Note_on_c, 0, 81, 92
2, 9601, Note_on_c, 0, 80, 0
2, 9778, Note_on_c, 0, 81, 0
2, 9780, Note_on_c, 0, 83, 75
2, 9838, Note_on_c, 0, 84, 92
2, 9843, Note_on_c, 0, 83, 0
2, 9937, Note_on_c, 0, 84, 0
2, 9948, Note_on_c, 0, 84, 85
2, 9963, Note_on_c, 0, 84, 0
2, 9963, Note_on_c, 0, 83, 72
2, 9973, Note_on_c, 0, 84, 64
2, 9976, Note_on_c, 0, 83, 0
2, 9984, Note_on_c, 0, 83, 75
2, 9989, Note_on_c, 0, 84, 0
2, 10032, Note_on_c, 0, 81, 88
2, 10035, Note_on_c, 0, 83, 0
2, 10074, Note_on_c, 0, 81, 0
2, 10080, Note_on_c, 0, 81, 100
2, 10199, Note_on_c, 0, 81, 0
2, 10200, Note_on_c, 0, 84, 109
2, 10568, Note_on_c, 0, 84, 0
2, 10920, Note_on_c, 0, 83, 73
2, 11280, Note_on_c, 0, 83, 0
2, 11640, Note_on_c, 0, 81, 72
2, 11693, Note_on_c, 0, 81, 0
2, 11700, Note_on_c, 0, 83, 90
2, 11759, Note_on_c, 0, 83, 0
2, 11760, Note_on_c, 0, 79, 97
2, 11817, Note_on_c, 0, 79, 0
2, 11820, Note_on_c, 0, 81, 88
2, 11873, Note_on_c, 0, 81, 0
2, 11880, Note_on_c, 0, 78, 95
2, 11940, Note_on_c, 0, 76, 83
2, 11942, Note_on_c, 0, 78, 0
2, 12000, Note_on_c, 0, 78, 106
2, 12007, Note_on_c, 0, 76, 0
2, 12060, Note_on_c, 0, 79, 75
2, 12066, Note_on_c, 0, 78, 0
2, 12120, Note_on_c, 0, 76, 75
2, 12123, Note_on_c, 0, 79, 0
2, 12180, Note_on_c, 0, 76, 0
2, 12180, Note_on_c, 0, 78, 70
2, 12244, Note_on_c, 0, 75, 97
2, 12245, Note_on_c, 0, 78, 0
2, 12335, Note_on_c, 0, 75, 0
2, 12363, Note_on_c, 0, 76, 97
2, 12384, Note_on_c, 0, 76, 0
2, 12385, Note_on_c, 0, 75, 103
2, 12398, Note_on_c, 0, 75, 0
2, 12398, Note_on_c, 0, 76, 75
2, 12412, Note_on_c, 0, 76, 0
2, 12412, Note_on_c, 0, 75, 90
2, 12427, Note_on_c, 0, 75, 0
2, 12427, Note_on_c, 0, 76, 79
2, 12438, Note_on_c, 0, 75, 85
2, 12440, Note_on_c, 0, 76, 0
2, 12451, Note_on_c, 0, 75, 0
2, 12451, Note_on_c, 0, 76, 88
2, 12463, Note_on_c, 0, 75, 92
2, 12466, Note_on_c, 0, 76, 0
2, 12594, Note_on_c, 0, 75, 0
2, 12594, Note_on_c, 0, 76, 95
2, 12660, Note_on_c, 0, 78, 103
2, 12666, Note_on_c, 0, 76, 0
2, 12718, Note_on_c, 0, 79, 83
2, 12725, Note_on_c, 0, 78, 0
2, 12970, Note_on_c, 0, 79, 0
2, 13020, Note_on_c, 0, 79, 83
2, 13080, Note_on_c, 0, 78, 103
2, 13087, Note_on_c, 0, 79, 0
2, 13140, Note_on_c, 0, 79, 77
2, 13153, Note_on_c, 0, 78, 0
2, 13199, Note_on_c, 0, 79, 0
2, 13200, Note_on_c, 0, 76, 77
2, 13260, Note_on_c, 0, 76, 0
2, 13260, Note_on_c, 0, 78, 79
2, 13320, Note_on_c, 0, 78, 0
2, 13320, Note_on_c, 0, 74, 88
2, 13380, Note_on_c, 0, 76, 90
2, 13385, Note_on_c, 0, 74, 0
2, 13440, Note_on_c, 0, 78, 88
2, 13448, Note_on_c, 0, 76, 0
2, 13720, Note_on_c, 0, 78, 0
2, 13740, Note_on_c, 0, 82, 88
2, 13799, Note_on_c, 0, 82, 0
2, 13800, Note_on_c, 0, 83, 92
2, 13859, Note_on_c, 0, 83, 0
2, 13860, Note_on_c, 0, 86, 90
2, 13920, Note_on_c, 0, 85, 95
2, 13923, Note_on_c, 0, 86, 0
2, 13980, Note_on_c, 0, 83, 88
2, 13986, Note_on_c, 0, 85, 0
2, 14040, Note_on_c, 0, 82, 95
2, 14047, Note_on_c, 0, 83, 0
2, 14160, Note_on_c, 0, 83, 72
2, 14166, Note_on_c, 0, 82, 0
2, 14286, Note_on_c, 0, 83, 0
2, 14400, Note_on_c, 0, 83, 70
2, 14520, Note_on_c, 0, 85, 83
2, 14531, Note_on_c, 0, 83, 0
2, 14656, Note_on_c, 0, 85, 0
2, 14760, Note_on_c, 0, 82, 77
2, 14880, Note_on_c, 0, 83, 60
2, 14882, Note_on_c, 0, 82, 0
2, 15024, Note_on_c, 0, 83, 0
2, 15120, Note_on_c, 0, 80, 62
2, 15239, Note_on_c, 0, 80, 0
2, 15240, Note_on_c, 0, 81, 77
2, 15358, Note_on_c, 0, 81, 0
2, 15480, Note_on_c, 0, 78, 90
2, 15540, Note_on_c, 0, 76, 88
2, 15542, Note_on_c, 0, 78, 0
2, 15598, Note_on_c, 0, 76, 0
2, 15600, Note_on_c, 0, 74, 72
2, 15660, Note_on_c, 0, 73, 92
2, 15671, Note_on_c, 0, 74, 0
2, 15714, Note_on_c, 0, 73, 0
2, 15720, Note_on_c, 0, 71, 75
2, 15780, Note_on_c, 0, 74, 90
2, 15791, Note_on_c, 0, 71, 0
2, 15840, Note_on_c, 0, 76, 92
2, 15847, Note_on_c, 0, 74, 0
2, 15900, Note_on_c, 0, 79, 77
2, 15903, Note_on_c, 0, 76, 0
2, 15960, Note_on_c, 0, 73, 92
2, 15961, Note_on_c, 0, 79, 0
2, 16140, Note_on_c, 0, 71, 75
2, 16149, Note_on_c, 0, 73, 0
2, 16190, Note_on_c, 0, 71, 0
2, 16200, Note_on_c, 0, 71, 83
2, 16309, Note_on_c, 0, 71, 0
2, 16320, Note_on_c, 0, 71, 85
2, 16439, Note_on_c, 0, 71, 0
2, 16440, Note_on_c, 0, 59, 70
2, 16560, Note_on_c, 0, 66, 70
2, 16564, Note_on_c, 0, 59, 0
2, 16620, Note_on_c, 0, 66, 0
2, 16620, Note_on_c, 0, 67, 58
2, 16677, Note_on_c, 0, 67, 0
2, 16680, Note_on_c, 0, 69, 75
2, 16738, Note_on_c, 0, 69, 0
2, 16740, Note_on_c, 0, 78, 103
2, 16800, Note_on_c, 0, 79, 85
2, 16803, Note_on_c, 0, 78, 0
2, 16859, Note_on_c, 0, 79, 0
2, 16860, Note_on_c, 0, 76, 92
2, 16920, Note_on_c, 0, 78, 95
2, 16925, Note_on_c, 0, 76, 0
2, 17023, Note_on_c, 0, 78, 0
2, 17040, Note_on_c, 0, 69, 60
2, 17154, Note_on_c, 0, 69, 0
2, 17160, Note_on_c, 0, 57, 77
2, 17280, Note_on_c, 0, 62, 77
2, 17284, Note_on_c, 0, 57, 0
2, 17389, Note_on_c, 0, 62, 0
2, 17400, Note_on_c, 0, 78, 97
2, 17460, Note_on_c, 0, 79, 88
2, 17472, Note_on_c, 0, 78, 0
2, 17520, Note_on_c, 0, 81, 88
2, 17523, Note_on_c, 0, 79, 0
2, 17580, Note_on_c, 0, 78, 97
2, 17584, Note_on_c, 0, 81, 0
2, 17637, Note_on_c, 0, 78, 0
2, 17640, Note_on_c, 0, 79, 77
2, 17700, Note_on_c, 0, 78, 97
2, 17707, Note_on_c, 0, 79, 0
2, 17760, Note_on_c, 0, 81, 88
2, 17768, Note_on_c, 0, 78, 0
2, 17820, Note_on_c, 0, 79, 90
2, 17824, Note_on_c, 0, 81, 0
2, 17880, Note_on_c, 0, 78, 100
2, 17888, Note_on_c, 0, 79, 0
2, 17936, Note_on_c, 0, 78, 0
2, 17940, Note_on_c, 0, 76, 77
2, 18000, Note_on_c, 0, 75, 95
2, 18002, Note_on_c, 0, 76, 0
2, 18114, Note_on_c, 0, 75, 0
2, 18120, Note_on_c, 0, 57, 54
2, 18180, Note_on_c, 0, 59, 79
2, 18185, Note_on_c, 0, 57, 0
2, 18240, Note_on_c, 0, 60, 70
2, 18243, Note_on_c, 0, 59, 0
2, 18300, Note_on_c, 0, 57, 66
2, 18301, Note_on_c, 0, 60, 0
2, 18360, Note_on_c, 0, 59, 68
2, 18371, Note_on_c, 0, 57, 0
2, 18472, Note_on_c, 0, 59, 0
2, 18480, Note_on_c, 0, 76, 81
2, 18767, Note_on_c, 0, 76, 0
2, 18780, Note_on_c, 0, 74, 88
2, 18840, Note_on_c, 0, 72, 92
2, 18846, Note_on_c, 0, 74, 0
2, 18900, Note_on_c, 0, 71, 79
2, 18909, Note_on_c, 0, 72, 0
2, 18960, Note_on_c, 0, 69, 60
2, 18965, Note_on_c, 0, 71, 0
2, 19014, Note_on_c, 0, 69, 0
2, 19020, Note_on_c, 0, 67, 53
2, 19080, Note_on_c, 0, 66, 90
2, 19092, Note_on_c, 0, 67, 0
2, 19200, Note_on_c, 0, 75, 90
2, 19201, Note_on_c, 0, 66, 0
2, 19320, Note_on_c, 0, 76, 77
2, 19321, Note_on_c, 0, 75, 0
2, 19503, Note_on_c, 0, 78, 97
2, 19511, Note_on_c, 0, 76, 0
2, 19560, Note_on_c, 0, 79, 90
2, 19565, Note_on_c, 0, 78, 0
2, 19660, Note_on_c, 0, 79, 0
2, 19673, Note_on_c, 0, 79, 79
2, 19689, Note_on_c, 0, 79, 0
2, 19689, Note_on_c, 0, 78, 100
2, 19702, Note_on_c, 0, 78, 0
2, 19702, Note_on_c, 0, 79, 58
2, 19713, Note_on_c, 0, 78, 90
2, 19715, Note_on_c, 0, 79, 0
2, 19743, Note_on_c, 0, 76, 79
2, 19746, Note_on_c, 0, 78, 0
2, 19784, Note_on_c, 0, 76, 0
2, 19791, Note_on_c, 0, 76, 77
2, 19920, Note_on_c, 0, 79, 68
2, 19923, Note_on_c, 0, 76, 0
2, 20040, Note_on_c, 0, 79, 0
2, 20160, Note_on_c, 0, 83, 75
2, 20280, Note_on_c, 0, 80, 92
2, 20286, Note_on_c, 0, 83, 0
2, 20405, Note_on_c, 0, 80, 0
2, 20520, Note_on_c, 0, 81, 77
2, 20640, Note_on_c, 0, 81, 0
2, 20640, Note_on_c, 0, 84, 81
2, 20752, Note_on_c, 0, 84, 0
2, 20880, Note_on_c, 0, 86, 79
2, 21000, Note_on_c, 0, 80, 70
2, 21014, Note_on_c, 0, 86, 0
2, 21106, Note_on_c, 0, 80, 0
2, 21240, Note_on_c, 0, 81, 79
2, 21300, Note_on_c, 0, 79, 92
2, 21302, Note_on_c, 0, 81, 0
2, 21360, Note_on_c, 0, 81, 85
2, 21363, Note_on_c, 0, 79, 0
2, 21446, Note_on_c, 0, 81, 0
2, 21600, Note_on_c, 0, 81, 79
2, 21659, Note_on_c, 0, 81, 0
2, 21660, Note_on_c, 0, 83, 85
2, 21720, Note_on_c, 0, 83, 0
2, 21720, Note_on_c, 0, 84, 81
2, 21809, Note_on_c, 0, 84, 0
2, 21960, Note_on_c, 0, 75, 95
2, 22075, Note_on_c, 0, 75, 0
2, 22080, Note_on_c, 0, 76, 60
2, 22200, Note_on_c, 0, 74, 77
2, 22210, Note_on_c, 0, 76, 0
2, 22320, Note_on_c, 0, 73, 58
2, 22327, Note_on_c, 0, 74, 0
2, 22440, Note_on_c, 0, 78, 75
2, 22446, Note_on_c, 0, 73, 0
2, 22560, Note_on_c, 0, 78, 0
2, 22560, Note_on_c, 0, 66, 62
2, 22680, Note_on_c, 0, 71, 75
2, 22688, Note_on_c, 0, 66, 0
2, 22800, Note_on_c, 0, 76, 72
2, 22812, Note_on_c, 0, 71, 0
2, 22917, Note_on_c, 0, 76, 0
2, 22920, Note_on_c, 0, 64, 62
2, 23040, Note_on_c, 0, 69, 62
2, 23048, Note_on_c, 0, 64, 0
2, 23160, Note_on_c, 0, 74, 75
2, 23170, Note_on_c, 0, 69, 0
2, 23272, Note_on_c, 0, 74, 0
2, 23280, Note_on_c, 0, 62, 77
2, 23400, Note_on_c, 0, 67, 75
2, 23421, Note_on_c, 0, 62, 0
2, 23520, Note_on_c, 0, 69, 85
2, 23534, Note_on_c, 0, 67, 0
2, 23580, Note_on_c, 0, 71, 83
2, 23587, Note_on_c, 0, 69, 0
2, 23640, Note_on_c, 0, 72, 90
2, 23644, Note_on_c, 0, 71, 0
2, 23694, Note_on_c, 0, 72, 0
2, 23700, Note_on_c, 0, 84, 92
2, 23760, Note_on_c, 0, 83, 92
2, 23766, Note_on_c, 0, 84, 0
2, 23820, Note_on_c, 0, 81, 95
2, 23834, Note_on_c, 0, 83, 0
2, 23878, Note_on_c, 0, 79, 95
2, 23879, Note_on_c, 0, 81, 0
2, 23958, Note_on_c, 0, 79, 0
2, 23970, Note_on_c, 0, 79, 62
2, 23986, Note_on_c, 0, 78, 103
2, 23988, Note_on_c, 0, 79, 0
2, 23997, Note_on_c, 0, 79, 62
2, 24000, Note_on_c, 0, 78, 0
2, 24010, Note_on_c, 0, 78, 90
2, 24014, Note_on_c, 0, 79, 0
2, 24053, Note_on_c, 0, 76, 85
2, 24059, Note_on_c, 0, 78, 0
2, 24101, Note_on_c, 0, 76, 0
2, 24117, Note_on_c, 0, 76, 92
2, 24360, Note_on_c, 0, 83, 72
2, 24377, Note_on_c, 0, 76, 0
2, 24482, Note_on_c, 0, 83, 0
2, 25320, Note_on_c, 0, 81, 90
2, 25560, Note_on_c, 0, 83, 100
2, 25567, Note_on_c, 0, 81, 0
2, 25920, Note_on_c, 0, 83, 0
2, 25920, End_track
3, 0, Start_track
3, 0, MIDI_port, 0
3, 0, Title_t, "Flute 1"
3, 0, Program_c, 1, 73
3, 0, Control_c, 1, 7, 100
3, 0, Control_c, 1, 10, 30
3, 465, Channel_aftertouch_c, 1, 127
3, 465, Control_c, 1, 11, 123
3, 465, Control_c, 1, 91, 80
3, 465, Control_c, 1, 93, 10
3, 480, Note_on_c, 1, 83, 87
3, 540, Note_on_c, 1, 84, 94
3, 548, Note_on_c, 1, 83, 0
3, 600, Note_on_c, 1, 83, 85
3, 602, Note_on_c, 1, 84, 0
3, 660, Note_on_c, 1, 84, 87
3, 662, Note_on_c, 1, 83, 0
3, 720, Note_on_c, 1, 81, 75
3, 724, Note_on_c, 1, 84, 0
3, 780, Note_on_c, 1, 79, 85
3, 783, Note_on_c, 1, 81, 0
3, 840, Note_on_c, 1, 81, 90
3, 841, Note_on_c, 1, 79, 0
3, 900, Note_on_c, 1, 84, 92
3, 906, Note_on_c, 1, 81, 0
3, 960, Note_on_c, 1, 83, 107
3, 965, Note_on_c, 1, 84, 0
3, 1020, Note_on_c, 1, 81, 87
3, 1025, Note_on_c, 1, 83, 0
3, 1080, Note_on_c, 1, 79, 87
3, 1086, Note_on_c, 1, 81, 0
3, 1162, Note_on_c, 1, 79, 0
3, 1200, Note_on_c, 1, 83, 103
3, 1260, Note_on_c, 1, 84, 100
3, 1272, Note_on_c, 1, 83, 0
3, 1320, Note_on_c, 1, 83, 87
3, 1323, Note_on_c, 1, 84, 0
3, 1380, Note_on_c, 1, 84, 96
3, 1382, Note_on_c, 1, 83, 0
3, 1439, Note_on_c, 1, 84, 0
3, 1440, Note_on_c, 1, 81, 87
3, 1500, Note_on_c, 1, 79, 85
3, 1502, Note_on_c, 1, 81, 0
3, 1560, Note_on_c, 1, 81, 90
3, 1565, Note_on_c, 1, 79, 0
3, 1620, Note_on_c, 1, 84, 98
3, 1625, Note_on_c, 1, 81, 0
3, 1680, Note_on_c, 1, 83, 105
3, 1689, Note_on_c, 1, 84, 0
3, 1740, Note_on_c, 1, 81, 105
3, 1751, Note_on_c, 1, 83, 0
3, 1800, Note_on_c, 1, 79, 87
3, 1807, Note_on_c, 1, 81, 0
3, 1896, Note_on_c, 1, 79, 0
3, 1920, Note_on_c, 1, 79, 96
3, 1980, Note_on_c, 1, 81, 92
3, 1987, Note_on_c, 1, 79, 0
3, 2040, Note_on_c, 1, 79, 90
3, 2041, Note_on_c, 1, 81, 0
3, 2096, Note_on_c, 1, 79, 0
3, 2100, Note_on_c, 1, 81, 77
3, 2160, Note_on_c, 1, 81, 0
3, 2160, Note_on_c, 1, 78, 85
3, 2220, Note_on_c, 1, 76, 75
3, 2228, Note_on_c, 1, 78, 0
3, 2274, Note_on_c, 1, 76, 0
3, 2280, Note_on_c, 1, 78, 105
3, 2340, Note_on_c, 1, 79, 71
3, 2349, Note_on_c, 1, 78, 0
3, 2400, Note_on_c, 1, 76, 90
3, 2404, Note_on_c, 1, 79, 0
3, 2460, Note_on_c, 1, 78, 94
3, 2468, Note_on_c, 1, 76, 0
3, 2520, Note_on_c, 1, 75, 85
3, 2528, Note_on_c, 1, 78, 0
3, 2612, Note_on_c, 1, 75, 0
3, 2640, Note_on_c, 1, 79, 107
3, 2700, Note_on_c, 1, 81, 103
3, 2708, Note_on_c, 1, 79, 0
3, 2760, Note_on_c, 1, 81, 0
3, 2760, Note_on_c, 1, 79, 110
3, 2819, Note_on_c, 1, 79, 0
3, 2820, Note_on_c, 1, 81, 103
3, 2872, Note_on_c, 1, 81, 0
3, 2880, Note_on_c, 1, 78, 115
3, 2939, Note_on_c, 1, 78, 0
3, 2940, Note_on_c, 1, 76, 92
3, 2989, Note_on_c, 1, 76, 0
3, 3000, Note_on_c, 1, 78, 107
3, 3060, Note_on_c, 1, 79, 90
3, 3072, Note_on_c, 1, 78, 0
3, 3117, Note_on_c, 1, 79, 0
3, 3120, Note_on_c, 1, 76, 105
3, 3180, Note_on_c, 1, 78, 94
3, 3186, Note_on_c, 1, 76, 0
3, 3240, Note_on_c, 1, 75, 87
3, 3245, Note_on_c, 1, 78, 0
3, 3339, Note_on_c, 1, 75, 0
3, 3360, Note_on_c, 1, 78, 110
3, 3420, Note_on_c, 1, 79, 90
3, 3427, Note_on_c, 1, 78, 0
3, 3480, Note_on_c, 1, 81, 107
3, 3485, Note_on_c, 1, 79, 0
3, 3540, Note_on_c, 1, 78, 107
3, 3546, Note_on_c, 1, 81, 0
3, 3600, Note_on_c, 1, 79, 92
3, 3603, Note_on_c, 1, 78, 0
3, 3694, Note_on_c, 1, 79, 0
3, 3720, Note_on_c, 1, 78, 64
3, 3780, Note_on_c, 1, 79, 87
3, 3781, Note_on_c, 1, 78, 0
3, 3836, Note_on_c, 1, 79, 0
3, 3840, Note_on_c, 1, 81, 87
3, 3896, Note_on_c, 1, 81, 0
3, 3900, Note_on_c, 1, 78, 81
3, 3960, Note_on_c, 1, 79, 75
3, 3973, Note_on_c, 1, 78, 0
3, 4058, Note_on_c, 1, 79, 0
3, 4080, Note_on_c, 1, 80, 118
3, 4140, Note_on_c, 1, 81, 105
3, 4147, Note_on_c, 1, 80, 0
3, 4200, Note_on_c, 1, 78, 110
3, 4201, Note_on_c, 1, 81, 0
3, 4260, Note_on_c, 1, 80, 118
3, 4269, Note_on_c, 1, 78, 0
3, 4320, Note_on_c, 1, 81, 107
3, 4328, Note_on_c, 1, 80, 0
3, 4422, Note_on_c, 1, 81, 0
3, 4440, Note_on_c, 1, 80, 87
3, 4499, Note_on_c, 1, 80, 0
3, 4500, Note_on_c, 1, 81, 73
3, 4560, Note_on_c, 1, 78, 71
3, 4562, Note_on_c, 1, 81, 0
3, 4620, Note_on_c, 1, 80, 90
3, 4626, Note_on_c, 1, 78, 0
3, 4680, Note_on_c, 1, 81, 75
3, 4688, Note_on_c, 1, 80, 0
3, 4764, Note_on_c, 1, 81, 0
3, 4800, Note_on_c, 1, 81, 112
3, 5160, Note_on_c, 1, 80, 112
3, 5167, Note_on_c, 1, 81, 0
3, 5280, Note_on_c, 1, 79, 107
3, 5281, Note_on_c, 1, 80, 0
3, 5520, Note_on_c, 1, 78, 118
3, 5530, Note_on_c, 1, 79, 0
3, 5640, Note_on_c, 1, 77, 112
3, 5643, Note_on_c, 1, 78, 0
3, 5880, Note_on_c, 1, 75, 107
3, 5886, Note_on_c, 1, 77, 0
3, 5992, Note_on_c, 1, 75, 0
3, 6000, Note_on_c, 1, 76, 105
3, 6179, Note_on_c, 1, 78, 112
3, 6198, Note_on_c, 1, 76, 0
3, 6239, Note_on_c, 1, 78, 0
3, 6239, Note_on_c, 1, 79, 100
3, 6266, Note_on_c, 1, 78, 115
3, 6269, Note_on_c, 1, 79, 0
3, 6285, Note_on_c, 1, 79, 85
3, 6287, Note_on_c, 1, 78, 0
3, 6304, Note_on_c, 1, 78, 107
3, 6305, Note_on_c, 1, 79, 0
3, 6320, Note_on_c, 1, 78, 0
3, 6320, Note_on_c, 1, 79, 90
3, 6334, Note_on_c, 1, 78, 105
3, 6337, Note_on_c, 1, 79, 0
3, 6348, Note_on_c, 1, 78, 0
3, 6348, Note_on_c, 1, 79, 92
3, 6363, Note_on_c, 1, 78, 107
3, 6364, Note_on_c, 1, 79, 0
3, 6420, Note_on_c, 1, 78, 0
3, 6420, Note_on_c, 1, 76, 90
3, 6468, Note_on_c, 1, 76, 0
3, 6480, Note_on_c, 1, 76, 90
3, 6587, Note_on_c, 1, 76, 0
3, 6600, Note_on_c, 1, 83, 107
3, 6660, Note_on_c, 1, 84, 94
3, 6667, Note_on_c, 1, 83, 0
3, 6720, Note_on_c, 1, 83, 100
3, 6729, Note_on_c, 1, 84, 0
3, 6779, Note_on_c, 1, 83, 0
3, 6780, Note_on_c, 1, 84, 107
3, 6840, Note_on_c, 1, 86, 94
3, 6845, Note_on_c, 1, 84, 0
3, 6936, Note_on_c, 1, 86, 0
3, 6960, Note_on_c, 1, 81, 105
3, 7020, Note_on_c, 1, 83, 110
3, 7032, Note_on_c, 1, 81, 0
3, 7080, Note_on_c, 1, 84, 107
3, 7085, Note_on_c, 1, 83, 0
3, 7140, Note_on_c, 1, 81, 105
3, 7143, Note_on_c, 1, 84, 0
3, 7200, Note_on_c, 1, 83, 110
3, 7208, Note_on_c, 1, 81, 0
3, 7286, Note_on_c, 1, 83, 0
3, 7320, Note_on_c, 1, 81, 77
3, 7380, Note_on_c, 1, 83, 90
3, 7383, Note_on_c, 1, 81, 0
3, 7440, Note_on_c, 1, 84, 75
3, 7441, Note_on_c, 1, 83, 0
3, 7500, Note_on_c, 1, 81, 71
3, 7502, Note_on_c, 1, 84, 0
3, 7560, Note_on_c, 1, 83, 75
3, 7575, Note_on_c, 1, 81, 0
3, 7659, Note_on_c, 1, 83, 0
3, 7680, Note_on_c, 1, 83, 121
3, 7740, Note_on_c, 1, 84, 115
3, 7744, Note_on_c, 1, 83, 0
3, 7800, Note_on_c, 1, 86, 112
3, 7808, Note_on_c, 1, 84, 0
3, 7860, Note_on_c, 1, 83, 115
3, 7863, Note_on_c, 1, 86, 0
3, 7920, Note_on_c, 1, 84, 121
3, 7929, Note_on_c, 1, 83, 0
3, 7980, Note_on_c, 1, 83, 118
3, 7986, Note_on_c, 1, 84, 0
3, 8040, Note_on_c, 1, 86, 115
3, 8046, Note_on_c, 1, 83, 0
3, 8100, Note_on_c, 1, 84, 110
3, 8107, Note_on_c, 1, 86, 0
3, 8160, Note_on_c, 1, 83, 110
3, 8164, Note_on_c, 1, 84, 0
3, 8219, Note_on_c, 1, 83, 0
3, 8220, Note_on_c, 1, 81, 87
3, 8280, Note_on_c, 1, 80, 110
3, 8292, Note_on_c, 1, 81, 0
3, 8377, Note_on_c, 1, 80, 0
3, 8400, Note_on_c, 1, 86, 87
3, 8460, Note_on_c, 1, 84, 81
3, 8464, Note_on_c, 1, 86, 0
3, 8520, Note_on_c, 1, 83, 85
3, 8524, Note_on_c, 1, 84, 0
3, 8580, Note_on_c, 1, 81, 81
3, 8582, Note_on_c, 1, 83, 0
3, 8640, Note_on_c, 1, 80, 66
3, 8655, Note_on_c, 1, 81, 0
3, 8703, Note_on_c, 1, 80, 0
3, 8760, Note_on_c, 1, 81, 110
3, 8820, Note_on_c, 1, 79, 107
3, 8821, Note_on_c, 1, 81, 0
3, 8880, Note_on_c, 1, 77, 112
3, 8888, Note_on_c, 1, 79, 0
3, 8940, Note_on_c, 1, 76, 107
3, 8946, Note_on_c, 1, 77, 0
3, 9000, Note_on_c, 1, 77, 94
3, 9002, Note_on_c, 1, 76, 0
3, 9060, Note_on_c, 1, 81, 100
3, 9064, Note_on_c, 1, 77, 0
3, 9120, Note_on_c, 1, 86, 105
3, 9126, Note_on_c, 1, 81, 0
3, 9180, Note_on_c, 1, 84, 110
3, 9187, Note_on_c, 1, 86, 0
3, 9240, Note_on_c, 1, 83, 112
3, 9245, Note_on_c, 1, 84, 0
3, 9300, Note_on_c, 1, 81, 107
3, 9309, Note_on_c, 1, 83, 0
3, 9360, Note_on_c, 1, 81, 0
3, 9360, Note_on_c, 1, 88, 115
3, 9420, Note_on_c, 1, 86, 112
3, 9425, Note_on_c, 1, 88, 0
3, 9480, Note_on_c, 1, 84, 121
3, 9484, Note_on_c, 1, 86, 0
3, 9540, Note_on_c, 1, 83, 121
3, 9553, Note_on_c, 1, 84, 0
3, 9600, Note_on_c, 1, 81, 105
3, 9607, Note_on_c, 1, 83, 0
3, 9659, Note_on_c, 1, 81, 0
3, 9660, Note_on_c, 1, 89, 121
3, 9726, Note_on_c, 1, 89, 0
3, 9780, Note_on_c, 1, 83, 90
3, 9838, Note_on_c, 1, 84, 107
3, 9843, Note_on_c, 1, 83, 0
3, 9937, Note_on_c, 1, 84, 0
3, 9948, Note_on_c, 1, 84, 100
3, 9963, Note_on_c, 1, 84, 0
3, 9963, Note_on_c, 1, 83, 87
3, 9973, Note_on_c, 1, 84, 79
3, 9976, Note_on_c, 1, 83, 0
3, 9984, Note_on_c, 1, 83, 90
3, 9989, Note_on_c, 1, 84, 0
3, 10032, Note_on_c, 1, 81, 103
3, 10035, Note_on_c, 1, 83, 0
3, 10074, Note_on_c, 1, 81, 0
3, 10080, Note_on_c, 1, 81, 115
3, 10199, Note_on_c, 1, 81, 0
3, 10200, Note_on_c, 1, 84, 124
3, 10270, Control_c, 1, 7, 62
3, 10280, Control_c, 1, 7, 63
3, 10295, Control_c, 1, 7, 62
3, 10337, Control_c, 1, 7, 63
3, 10352, Control_c, 1, 7, 64
3, 10352, Control_c, 1, 7, 64
3, 10357, Control_c, 1, 7, 65
3, 10362, Control_c, 1, 7, 66
3, 10362, Control_c, 1, 7, 66
3, 10382, Control_c, 1, 7, 67
3, 10385, Control_c, 1, 7, 68
3, 10416, Control_c, 1, 7, 69
3, 10429, Control_c, 1, 7, 70
3, 10434, Control_c, 1, 7, 72
3, 10434, Control_c, 1, 7, 73
3, 10440, Control_c, 1, 7, 74
3, 10448, Control_c, 1, 7, 75
3, 10453, Control_c, 1, 7, 77
3, 10454, Note_on_c, 1, 84, 0
3, 10458, Control_c, 1, 7, 78
3, 10459, Control_c, 1, 7, 80
3, 10474, Control_c, 1, 7, 82
3, 10479, Control_c, 1, 7, 84
3, 10484, Control_c, 1, 7, 85
3, 10489, Control_c, 1, 7, 86
3, 10489, Control_c, 1, 7, 88
3, 10494, Control_c, 1, 7, 89
3, 10499, Control_c, 1, 7, 90
3, 10500, Note_on_c, 1, 74, 75
3, 10505, Control_c, 1, 7, 91
3, 10510, Control_c, 1, 7, 92
3, 10515, Control_c, 1, 7, 93
3, 10525, Control_c, 1, 7, 95
3, 10530, Note_on_c, 1, 76, 75
3, 10530, Control_c, 1, 7, 95
3, 10530, Control_c, 1, 7, 96
3, 10535, Control_c, 1, 7, 97
3, 10535, Control_c, 1, 7, 98
3, 10540, Note_on_c, 1, 74, 0
3, 10540, Control_c, 1, 7, 99
3, 10545, Control_c, 1, 7, 100
3, 10550, Control_c, 1, 7, 101
3, 10555, Control_c, 1, 7, 101
3, 10555, Control_c, 1, 7, 102
3, 10560, Note_on_c, 1, 78, 103
3, 10560, Control_c, 1, 7, 103
3, 10565, Note_on_c, 1, 76, 0
3, 10568, Control_c, 1, 7, 105
3, 10571, Control_c, 1, 7, 106
3, 10575, Control_c, 1, 7, 107
3, 10581, Control_c, 1, 7, 108
3, 10581, Control_c, 1, 7, 109
3, 10586, Control_c, 1, 7, 111
3, 10587, Note_on_c, 1, 78, 0
3, 10590, Note_on_c, 1, 79, 87
3, 10595, Control_c, 1, 7, 113
3, 10600, Control_c, 1, 7, 113
3, 10605, Control_c, 1, 7, 114
3, 10615, Control_c, 1, 7, 114
3, 10620, Note_on_c, 1, 81, 107
3, 10620, Control_c, 1, 7, 115
3, 10625, Control_c, 1, 7, 116
3, 10626, Note_on_c, 1, 79, 0
3, 10641, Control_c, 1, 7, 116
3, 10646, Control_c, 1, 7, 118
3, 10650, Note_on_c, 1, 83, 110
3, 10651, Control_c, 1, 7, 118
3, 10652, Note_on_c, 1, 81, 0
3, 10662, Control_c, 1, 7, 120
3, 10662, Control_c, 1, 7, 120
3, 10667, Control_c, 1, 7, 121
3, 10672, Control_c, 1, 7, 122
3, 10680, Note_on_c, 1, 84, 110
3, 10686, Note_on_c, 1, 83, 0
3, 10690, Control_c, 1, 7, 123
3, 10691, Control_c, 1, 7, 124
3, 10706, Control_c, 1, 7, 124
3, 10710, Note_on_c, 1, 83, 115
3, 10711, Note_on_c, 1, 84, 0
3, 10711, Control_c, 1, 7, 125
3, 10711, Control_c, 1, 7, 126
3, 10716, Control_c, 1, 7, 126
3, 10726, Control_c, 1, 7, 127
3, 10740, Note_on_c, 1, 84, 103
3, 10742, Note_on_c, 1, 83, 0
3, 10770, Note_on_c, 1, 81, 118
3, 10771, Note_on_c, 1, 84, 0
3, 10800, Note_on_c, 1, 83, 107
3, 10811, Note_on_c, 1, 81, 0
3, 10816, Control_c, 1, 7, 126
3, 10826, Control_c, 1, 7, 126
3, 10831, Control_c, 1, 7, 125
3, 10836, Control_c, 1, 7, 124
3, 10836, Control_c, 1, 7, 123
3, 10841, Control_c, 1, 7, 122
3, 10846, Control_c, 1, 7, 122
3, 10846, Control_c, 1, 7, 121
3, 10861, Control_c, 1, 7, 119
3, 10866, Control_c, 1, 7, 118
3, 10871, Control_c, 1, 7, 116
3, 10871, Control_c, 1, 7, 114
3, 10876, Control_c, 1, 7, 113
3, 10881, Control_c, 1, 7, 111
3, 10886, Control_c, 1, 7, 109
3, 10891, Control_c, 1, 7, 107
3, 10896, Control_c, 1, 7, 105
3, 10896, Control_c, 1, 7, 103
3, 10901, Control_c, 1, 7, 102
3, 10911, Control_c, 1, 7, 101
3, 10911, Control_c, 1, 7, 100
3, 10920, Control_c, 1, 7, 98
3, 10920, Control_c, 1, 7, 96
3, 10930, Control_c, 1, 7, 95
3, 10935, Control_c, 1, 7, 93
3, 10935, Control_c, 1, 7, 92
3, 10940, Control_c, 1, 7, 90
3, 10945, Control_c, 1, 7, 89
3, 10950, Control_c, 1, 7, 88
3, 10960, Control_c, 1, 7, 86
3, 10965, Control_c, 1, 7, 86
3, 10965, Control_c, 1, 7, 85
3, 10990, Control_c, 1, 7, 82
3, 10995, Control_c, 1, 7, 82
3, 11013, Control_c, 1, 7, 81
3, 11018, Control_c, 1, 7, 78
3, 11018, Control_c, 1, 7, 78
3, 11023, Control_c, 1, 7, 77
3, 11052, Control_c, 1, 7, 75
3, 11062, Control_c, 1, 7, 74
3, 11092, Control_c, 1, 7, 76
3, 11100, Control_c, 1, 7, 76
3, 11105, Control_c, 1, 7, 78
3, 11110, Control_c, 1, 7, 79
3, 11115, Control_c, 1, 7, 82
3, 11115, Control_c, 1, 7, 82
3, 11120, Control_c, 1, 7, 84
3, 11125, Control_c, 1, 7, 86
3, 11135, Control_c, 1, 7, 89
3, 11140, Control_c, 1, 7, 90
3, 11140, Control_c, 1, 7, 91
3, 11145, Control_c, 1, 7, 91
3, 11147, Control_c, 1, 7, 92
3, 11152, Control_c, 1, 7, 93
3, 11160, Control_c, 1, 7, 93
3, 11165, Control_c, 1, 7, 96
3, 11169, Control_c, 1, 7, 97
3, 11174, Control_c, 1, 7, 99
3, 11184, Control_c, 1, 7, 100
3, 11187, Note_on_c, 1, 83, 0
3, 11189, Control_c, 1, 7, 101
3, 11190, Note_on_c, 1, 81, 90
3, 11200, Control_c, 1, 7, 101
3, 11205, Control_c, 1, 7, 102
3, 11205, Control_c, 1, 7, 103
3, 11215, Control_c, 1, 7, 104
3, 11220, Note_on_c, 1, 79, 87
3, 11225, Control_c, 1, 7, 105
3, 11228, Note_on_c, 1, 81, 0
3, 11238, Control_c, 1, 7, 107
3, 11238, Control_c, 1, 7, 108
3, 11248, Control_c, 1, 7, 109
3, 11250, Note_on_c, 1, 78, 92
3, 11255, Note_on_c, 1, 79, 0
3, 11255, Control_c, 1, 7, 109
3, 11260, Control_c, 1, 7, 111
3, 11272, Control_c, 1, 7, 111
3, 11277, Control_c, 1, 7, 112
3, 11280, Note_on_c, 1, 78, 0
3, 11280, Note_on_c, 1, 76, 87
3, 11289, Control_c, 1, 7, 113
3, 11290, Control_c, 1, 7, 113
3, 11294, Control_c, 1, 7, 114
3, 11299, Control_c, 1, 7, 114
3, 11303, Control_c, 1, 7, 115
3, 11310, Note_on_c, 1, 74, 85
3, 11313, Note_on_c, 1, 76, 0
3, 11313, Control_c, 1, 7, 116
3, 11318, Control_c, 1, 7, 116
3, 11323, Control_c, 1, 7, 117
3, 11323, Control_c, 1, 7, 118
3, 11333, Control_c, 1, 7, 119
3, 11338, Control_c, 1, 7, 120
3, 11338, Control_c, 1, 7, 120
3, 11340, Note_on_c, 1, 72, 87
3, 11349, Note_on_c, 1, 74, 0
3, 11350, Control_c, 1, 7, 121
3, 11370, Note_on_c, 1, 72, 0
3, 11370, Note_on_c, 1, 71, 85
3, 11385, Control_c, 1, 7, 122
3, 11400, Note_on_c, 1, 72, 110
3, 11405, Control_c, 1, 7, 122
3, 11408, Note_on_c, 1, 71, 0
3, 11427, Note_on_c, 1, 72, 0
3, 11430, Note_on_c, 1, 76, 90
3, 11440, Control_c, 1, 7, 123
3, 11460, Note_on_c, 1, 79, 115
3, 11460, Control_c, 1, 7, 124
3, 11465, Note_on_c, 1, 76, 0
3, 11490, Note_on_c, 1, 83, 115
3, 11492, Note_on_c, 1, 79, 0
3, 11502, Control_c, 1, 7, 123
3, 11516, Note_on_c, 1, 83, 0
3, 11520, Note_on_c, 1, 81, 124
3, 11530, Control_c, 1, 7, 122
3, 11530, Control_c, 1, 7, 121
3, 11535, Control_c, 1, 7, 120
3, 11540, Control_c, 1, 7, 119
3, 11545, Control_c, 1, 7, 118
3, 11545, Control_c, 1, 7, 116
3, 11550, Control_c, 1, 7, 115
3, 11550, Control_c, 1, 7, 114
3, 11555, Control_c, 1, 7, 113
3, 11560, Control_c, 1, 7, 113
3, 11565, Control_c, 1, 7, 112
3, 11570, Control_c, 1, 7, 111
3, 11580, Control_c, 1, 7, 110
3, 11585, Control_c, 1, 7, 109
3, 11590, Control_c, 1, 7, 109
3, 11590, Control_c, 1, 7, 108
3, 11595, Control_c, 1, 7, 107
3, 11600, Control_c, 1, 7, 106
3, 11600, Control_c, 1, 7, 105
3, 11605, Control_c, 1, 7, 105
3, 11610, Control_c, 1, 7, 104
3, 11615, Control_c, 1, 7, 103
3, 11615, Control_c, 1, 7, 101
3, 11620, Control_c, 1, 7, 101
3, 11625, Control_c, 1, 7, 100
3, 11635, Control_c, 1, 7, 98
3, 11640, Control_c, 1, 7, 97
3, 11645, Control_c, 1, 7, 95
3, 11645, Control_c, 1, 7, 93
3, 11655, Control_c, 1, 7, 93
3, 11655, Control_c, 1, 7, 91
3, 11660, Control_c, 1, 7, 89
3, 11665, Control_c, 1, 7, 89
3, 11670, Control_c, 1, 7, 88
3, 11670, Control_c, 1, 7, 87
3, 11675, Control_c, 1, 7, 86
3, 11680, Control_c, 1, 7, 85
3, 11685, Control_c, 1, 7, 84
3, 11690, Control_c, 1, 7, 83
3, 11690, Control_c, 1, 7, 82
3, 11698, Control_c, 1, 7, 81
3, 11700, Control_c, 1, 7, 80
3, 11700, Control_c, 1, 7, 79
3, 11715, Control_c, 1, 7, 77
3, 11720, Control_c, 1, 7, 76
3, 11720, Control_c, 1, 7, 75
3, 11730, Control_c, 1, 7, 74
3, 11730, Control_c, 1, 7, 74
3, 11735, Control_c, 1, 7, 72
3, 11740, Control_c, 1, 7, 71
3, 11750, Control_c, 1, 7, 70
3, 11755, Control_c, 1, 7, 70
3, 11755, Control_c, 1, 7, 68
3, 11901, Control_c, 1, 7, 66
3, 11906, Control_c, 1, 7, 66
3, 11911, Control_c, 1, 7, 64
3, 11911, Control_c, 1, 7, 63
3, 11916, Control_c, 1, 7, 58
3, 11947, Control_c, 1, 7, 59
3, 11947, Control_c, 1, 7, 60
3, 11952, Control_c, 1, 7, 61
3, 11957, Control_c, 1, 7, 66
3, 11957, Control_c, 1, 7, 67
3, 11982, Control_c, 1, 7, 68
3, 12000, Control_c, 1, 7, 66
3, 12032, Control_c, 1, 7, 64
3, 12052, Control_c, 1, 7, 64
3, 12078, Control_c, 1, 7, 64
3, 12083, Control_c, 1, 7, 65
3, 12083, Control_c, 1, 7, 67
3, 12192, Control_c, 1, 7, 68
3, 12192, Control_c, 1, 7, 68
3, 12207, Control_c, 1, 7, 67
3, 12212, Control_c, 1, 7, 66
3, 12222, Control_c, 1, 7, 65
3, 12279, Control_c, 1, 7, 64
3, 12284, Control_c, 1, 7, 63
3, 12284, Control_c, 1, 7, 63
3, 12288, Note_on_c, 1, 81, 0
3, 12300, Note_on_c, 1, 84, 107
3, 12360, Note_on_c, 1, 83, 110
3, 12367, Note_on_c, 1, 84, 0
3, 12420, Note_on_c, 1, 84, 115
3, 12430, Note_on_c, 1, 83, 0
3, 12480, Note_on_c, 1, 84, 0
3, 12480, Note_on_c, 1, 81, 118
3, 12540, Note_on_c, 1, 83, 110
3, 12543, Note_on_c, 1, 81, 0
3, 12600, Note_on_c, 1, 79, 118
3, 12608, Note_on_c, 1, 83, 0
3, 13019, Note_on_c, 1, 79, 0
3, 13020, Note_on_c, 1, 79, 94
3, 13080, Note_on_c, 1, 78, 110
3, 13082, Note_on_c, 1, 79, 0
3, 13140, Note_on_c, 1, 79, 94
3, 13155, Note_on_c, 1, 78, 0
3, 13198, Note_on_c, 1, 79, 0
3, 13200, Note_on_c, 1, 76, 87
3, 13260, Note_on_c, 1, 78, 83
3, 13262, Note_on_c, 1, 76, 0
3, 13320, Note_on_c, 1, 74, 87
3, 13322, Note_on_c, 1, 78, 0
3, 13380, Note_on_c, 1, 76, 105
3, 13392, Note_on_c, 1, 74, 0
3, 13440, Note_on_c, 1, 78, 100
3, 13447, Note_on_c, 1, 76, 0
3, 13700, Note_on_c, 1, 78, 0
3, 13740, Note_on_c, 1, 82, 107
3, 13800, Note_on_c, 1, 83, 85
3, 13810, Note_on_c, 1, 82, 0
3, 13860, Note_on_c, 1, 86, 103
3, 13862, Note_on_c, 1, 83, 0
3, 13920, Note_on_c, 1, 85, 105
3, 13924, Note_on_c, 1, 86, 0
3, 13980, Note_on_c, 1, 83, 94
3, 13987, Note_on_c, 1, 85, 0
3, 14040, Note_on_c, 1, 82, 103
3, 14048, Note_on_c, 1, 83, 0
3, 14085, Note_on_c, 1, 82, 0
3, 14100, Note_on_c, 1, 85, 115
3, 14160, Note_on_c, 1, 86, 110
3, 14166, Note_on_c, 1, 85, 0
3, 14220, Note_on_c, 1, 88, 105
3, 14227, Note_on_c, 1, 86, 0
3, 14280, Note_on_c, 1, 85, 118
3, 14285, Note_on_c, 1, 88, 0
3, 14340, Note_on_c, 1, 86, 112
3, 14345, Note_on_c, 1, 85, 0
3, 14400, Note_on_c, 1, 83, 112
3, 14405, Note_on_c, 1, 86, 0
3, 14460, Note_on_c, 1, 86, 110
3, 14465, Note_on_c, 1, 83, 0
3, 14499, Note_on_c, 1, 86, 0
3, 14520, Note_on_c, 1, 85, 121
3, 14580, Note_on_c, 1, 86, 112
3, 14587, Note_on_c, 1, 85, 0
3, 14640, Note_on_c, 1, 83, 94
3, 14645, Note_on_c, 1, 86, 0
3, 14700, Note_on_c, 1, 85, 107
3, 14709, Note_on_c, 1, 83, 0
3, 14760, Note_on_c, 1, 82, 90
3, 14762, Note_on_c, 1, 85, 0
3, 14820, Note_on_c, 1, 85, 110
3, 14831, Note_on_c, 1, 82, 0
3, 14864, Note_on_c, 1, 85, 0
3, 14880, Note_on_c, 1, 83, 107
3, 14940, Note_on_c, 1, 85, 112
3, 14952, Note_on_c, 1, 83, 0
3, 15000, Note_on_c, 1, 81, 100
3, 15004, Note_on_c, 1, 85, 0
3, 15060, Note_on_c, 1, 83, 100
3, 15062, Note_on_c, 1, 81, 0
3, 15120, Note_on_c, 1, 80, 105
3, 15122, Note_on_c, 1, 83, 0
3, 15180, Note_on_c, 1, 83, 105
3, 15187, Note_on_c, 1, 80, 0
3, 15222, Note_on_c, 1, 83, 0
3, 15240, Note_on_c, 1, 81, 112
3, 15300, Note_on_c, 1, 83, 107
3, 15311, Note_on_c, 1, 81, 0
3, 15360, Note_on_c, 1, 79, 103
3, 15364, Note_on_c, 1, 83, 0
3, 15420, Note_on_c, 1, 81, 100
3, 15422, Note_on_c, 1, 79, 0
3, 15480, Note_on_c, 1, 78, 110
3, 15482, Note_on_c, 1, 81, 0
3, 15540, Note_on_c, 1, 79, 105
3, 15552, Note_on_c, 1, 78, 0
3, 15600, Note_on_c, 1, 78, 115
3, 15605, Note_on_c, 1, 79, 0
3, 15660, Note_on_c, 1, 76, 96
3, 15668, Note_on_c, 1, 78, 0
3, 15720, Note_on_c, 1, 74, 90
3, 15721, Note_on_c, 1, 76, 0
3, 15780, Note_on_c, 1, 78, 115
3, 15788, Note_on_c, 1, 74, 0
3, 15841, Note_on_c, 1, 83, 92
3, 15844, Note_on_c, 1, 78, 0
3, 15899, Note_on_c, 1, 82, 112
3, 15900, Note_on_c, 1, 83, 0
3, 15943, Note_on_c, 1, 82, 0
3, 15955, Note_on_c, 1, 83, 107
3, 15972, Note_on_c, 1, 82, 107
3, 15973, Note_on_c, 1, 83, 0
3, 15986, Note_on_c, 1, 83, 87
3, 15988, Note_on_c, 1, 82, 0
3, 16002, Note_on_c, 1, 82, 107
3, 16005, Note_on_c, 1, 83, 0
3, 16140, Note_on_c, 1, 83, 110
3, 16153, Note_on_c, 1, 82, 0
3, 16183, Note_on_c, 1, 83, 0
3, 16200, Note_on_c, 1, 83, 110
3, 16319, Note_on_c, 1, 83, 0
3, 16320, Note_on_c, 1, 78, 110
3, 16379, Note_on_c, 1, 78, 0
3, 16380, Note_on_c, 1, 79, 100
3, 16440, Note_on_c, 1, 78, 115
3, 16444, Note_on_c, 1, 79, 0
3, 16500, Note_on_c, 1, 79, 107
3, 16505, Note_on_c, 1, 78, 0
3, 16560, Note_on_c, 1, 81, 98
3, 16564, Note_on_c, 1, 79, 0
3, 16652, Note_on_c, 1, 81, 0
3, 16680, Note_on_c, 1, 76, 110
3, 16740, Note_on_c, 1, 78, 110
3, 16750, Note_on_c, 1, 76, 0
3, 16800, Note_on_c, 1, 79, 103
3, 16802, Note_on_c, 1, 78, 0
3, 16860, Note_on_c, 1, 76, 110
3, 16861, Note_on_c, 1, 79, 0
3, 16920, Note_on_c, 1, 78, 115
3, 16928, Note_on_c, 1, 76, 0
3, 17015, Note_on_c, 1, 78, 0
3, 17040, Note_on_c, 1, 76, 75
3, 17099, Note_on_c, 1, 76, 0
3, 17100, Note_on_c, 1, 78, 81
3, 17160, Note_on_c, 1, 79, 66
3, 17161, Note_on_c, 1, 78, 0
3, 17220, Note_on_c, 1, 79, 0
3, 17220, Note_on_c, 1, 76, 69
3, 17280, Note_on_c, 1, 78, 71
3, 17284, Note_on_c, 1, 76, 0
3, 17382, Note_on_c, 1, 78, 0
3, 17400, Note_on_c, 1, 78, 107
3, 17460, Note_on_c, 1, 79, 110
3, 17464, Note_on_c, 1, 78, 0
3, 17520, Note_on_c, 1, 81, 115
3, 17521, Note_on_c, 1, 79, 0
3, 17580, Note_on_c, 1, 78, 112
3, 17583, Note_on_c, 1, 81, 0
3, 17640, Note_on_c, 1, 79, 110
3, 17644, Note_on_c, 1, 78, 0
3, 17700, Note_on_c, 1, 78, 112
3, 17702, Note_on_c, 1, 79, 0
3, 17760, Note_on_c, 1, 81, 105
3, 17762, Note_on_c, 1, 78, 0
3, 17820, Note_on_c, 1, 79, 98
3, 17826, Note_on_c, 1, 81, 0
3, 17880, Note_on_c, 1, 78, 110
3, 17889, Note_on_c, 1, 79, 0
3, 17940, Note_on_c, 1, 76, 90
3, 17946, Note_on_c, 1, 78, 0
3, 18000, Note_on_c, 1, 75, 100
3, 18004, Note_on_c, 1, 76, 0
3, 18093, Note_on_c, 1, 75, 0
3, 18120, Note_on_c, 1, 81, 83
3, 18180, Note_on_c, 1, 79, 87
3, 18182, Note_on_c, 1, 81, 0
3, 18240, Note_on_c, 1, 78, 87
3, 18248, Note_on_c, 1, 79, 0
3, 18300, Note_on_c, 1, 76, 75
3, 18303, Note_on_c, 1, 78, 0
3, 18360, Note_on_c, 1, 75, 71
3, 18364, Note_on_c, 1, 76, 0
3, 18435, Note_on_c, 1, 75, 0
3, 18480, Note_on_c, 1, 76, 100
3, 18538, Note_on_c, 1, 76, 0
3, 18540, Note_on_c, 1, 74, 103
3, 18597, Note_on_c, 1, 74, 0
3, 18600, Note_on_c, 1, 72, 110
3, 18660, Note_on_c, 1, 71, 110
3, 18666, Note_on_c, 1, 72, 0
3, 18720, Note_on_c, 1, 72, 100
3, 18722, Note_on_c, 1, 71, 0
3, 18780, Note_on_c, 1, 76, 103
3, 18786, Note_on_c, 1, 72, 0
3, 18840, Note_on_c, 1, 81, 105
3, 18843, Note_on_c, 1, 76, 0
3, 18900, Note_on_c, 1, 79, 107
3, 18908, Note_on_c, 1, 81, 0
3, 18960, Note_on_c, 1, 78, 96
3, 18969, Note_on_c, 1, 79, 0
3, 19020, Note_on_c, 1, 76, 92
3, 19021, Note_on_c, 1, 78, 0
3, 19076, Note_on_c, 1, 76, 0
3, 19080, Note_on_c, 1, 83, 107
3, 19140, Note_on_c, 1, 81, 107
3, 19149, Note_on_c, 1, 83, 0
3, 19200, Note_on_c, 1, 79, 110
3, 19203, Note_on_c, 1, 81, 0
3, 19260, Note_on_c, 1, 78, 107
3, 19267, Note_on_c, 1, 79, 0
3, 19320, Note_on_c, 1, 76, 96
3, 19326, Note_on_c, 1, 78, 0
3, 19380, Note_on_c, 1, 84, 118
3, 19381, Note_on_c, 1, 76, 0
3, 19440, Note_on_c, 1, 83, 115
3, 19441, Note_on_c, 1, 84, 0
3, 19497, Note_on_c, 1, 81, 112
3, 19512, Note_on_c, 1, 83, 0
3, 19560, Note_on_c, 1, 79, 115
3, 19563, Note_on_c, 1, 81, 0
3, 19661, Note_on_c, 1, 79, 0
3, 19670, Note_on_c, 1, 79, 73
3, 19686, Note_on_c, 1, 78, 115
3, 19689, Note_on_c, 1, 79, 0
3, 19699, Note_on_c, 1, 79, 73
3, 19702, Note_on_c, 1, 78, 0
3, 19713, Note_on_c, 1, 78, 103
3, 19719, Note_on_c, 1, 79, 0
3, 19751, Note_on_c, 1, 76, 107
3, 19755, Note_on_c, 1, 78, 0
3, 19784, Note_on_c, 1, 76, 0
3, 19800, Note_on_c, 1, 76, 110
3, 21157, Control_c, 1, 7, 63
3, 21218, Control_c, 1, 7, 63
3, 21223, Control_c, 1, 7, 64
3, 21227, Note_on_c, 1, 76, 0
3, 21228, Control_c, 1, 7, 64
3, 21228, Control_c, 1, 7, 65
3, 21240, Note_on_c, 1, 77, 110
3, 21245, Control_c, 1, 7, 68
3, 21252, Control_c, 1, 7, 68
3, 21257, Control_c, 1, 7, 70
3, 21262, Control_c, 1, 7, 72
3, 21262, Control_c, 1, 7, 73
3, 21267, Control_c, 1, 7, 74
3, 21272, Control_c, 1, 7, 74
3, 21277, Control_c, 1, 7, 75
3, 21282, Control_c, 1, 7, 76
3, 21287, Control_c, 1, 7, 78
3, 21287, Control_c, 1, 7, 82
3, 21292, Control_c, 1, 7, 84
3, 21300, Note_on_c, 1, 79, 110
3, 21300, Control_c, 1, 7, 86
3, 21302, Control_c, 1, 7, 89
3, 21305, Control_c, 1, 7, 93
3, 21307, Note_on_c, 1, 77, 0
3, 21312, Control_c, 1, 7, 97
3, 21317, Control_c, 1, 7, 100
3, 21317, Control_c, 1, 7, 101
3, 21322, Control_c, 1, 7, 103
3, 21327, Control_c, 1, 7, 103
3, 21327, Control_c, 1, 7, 105
3, 21332, Control_c, 1, 7, 105
3, 21337, Control_c, 1, 7, 107
3, 21337, Control_c, 1, 7, 108
3, 21352, Control_c, 1, 7, 111
3, 21360, Note_on_c, 1, 81, 107
3, 21360, Control_c, 1, 7, 112
3, 21365, Control_c, 1, 7, 113
3, 21368, Note_on_c, 1, 79, 0
3, 21378, Control_c, 1, 7, 114
3, 21383, Control_c, 1, 7, 115
3, 21383, Control_c, 1, 7, 116
3, 21455, Note_on_c, 1, 81, 0
3, 21480, Note_on_c, 1, 77, 94
3, 21540, Note_on_c, 1, 79, 83
3, 21552, Note_on_c, 1, 77, 0
3, 21557, Control_c, 1, 7, 118
3, 21600, Note_on_c, 1, 81, 73
3, 21605, Note_on_c, 1, 79, 0
3, 21715, Note_on_c, 1, 81, 0
3, 21780, Note_on_c, 1, 81, 110
3, 21834, Control_c, 1, 7, 119
3, 21840, Note_on_c, 1, 83, 107
3, 21848, Note_on_c, 1, 81, 0
3, 21868, Control_c, 1, 7, 120
3, 21900, Note_on_c, 1, 84, 100
3, 21902, Note_on_c, 1, 83, 0
3, 21960, Note_on_c, 1, 75, 92
3, 21963, Note_on_c, 1, 84, 0
3, 22018, Control_c, 1, 7, 119
3, 22023, Control_c, 1, 7, 118
3, 22038, Control_c, 1, 7, 117
3, 22043, Control_c, 1, 7, 116
3, 22048, Control_c, 1, 7, 116
3, 22055, Note_on_c, 1, 75, 0
3, 22060, Control_c, 1, 7, 115
3, 22065, Control_c, 1, 7, 113
3, 22070, Control_c, 1, 7, 111
3, 22072, Control_c, 1, 7, 108
3, 22080, Note_on_c, 1, 83, 94
3, 22080, Control_c, 1, 7, 107
3, 22085, Control_c, 1, 7, 105
3, 22090, Control_c, 1, 7, 102
3, 22095, Control_c, 1, 7, 100
3, 22095, Control_c, 1, 7, 97
3, 22100, Control_c, 1, 7, 97
3, 22105, Control_c, 1, 7, 95
3, 22110, Control_c, 1, 7, 94
3, 22110, Control_c, 1, 7, 92
3, 22115, Control_c, 1, 7, 90
3, 22120, Control_c, 1, 7, 89
3, 22120, Control_c, 1, 7, 87
3, 22130, Control_c, 1, 7, 86
3, 22135, Control_c, 1, 7, 85
3, 22135, Control_c, 1, 7, 84
3, 22140, Control_c, 1, 7, 84
3, 22145, Control_c, 1, 7, 82
3, 22145, Control_c, 1, 7, 82
3, 22150, Control_c, 1, 7, 80
3, 22155, Control_c, 1, 7, 80
3, 22155, Control_c, 1, 7, 79
3, 22170, Control_c, 1, 7, 76
3, 22180, Control_c, 1, 7, 74
3, 22185, Control_c, 1, 7, 74
3, 22195, Control_c, 1, 7, 73
3, 22205, Control_c, 1, 7, 72
3, 22210, Control_c, 1, 7, 72
3, 22215, Control_c, 1, 7, 71
3, 22215, Control_c, 1, 7, 70
3, 22230, Control_c, 1, 7, 70
3, 22250, Control_c, 1, 7, 69
3, 22255, Control_c, 1, 7, 68
3, 22255, Control_c, 1, 7, 68
3, 22260, Control_c, 1, 7, 67
3, 22264, Control_c, 1, 7, 66
3, 22270, Control_c, 1, 7, 66
3, 22315, Control_c, 1, 7, 64
3, 22440, Note_on_c, 1, 82, 90
3, 22444, Note_on_c, 1, 83, 0
3, 22459, Control_c, 1, 7, 65
3, 22464, Control_c, 1, 7, 66
3, 22464, Control_c, 1, 7, 66
3, 22560, Note_on_c, 1, 81, 94
3, 22573, Note_on_c, 1, 82, 0
3, 22800, Note_on_c, 1, 80, 105
3, 22802, Note_on_c, 1, 81, 0
3, 22920, Note_on_c, 1, 79, 94
3, 22925, Note_on_c, 1, 80, 0
3, 23160, Note_on_c, 1, 78, 105
3, 23173, Note_on_c, 1, 79, 0
3, 23280, Note_on_c, 1, 77, 96
3, 23281, Note_on_c, 1, 78, 0
3, 23520, Note_on_c, 1, 75, 112
3, 23525, Note_on_c, 1, 77, 0
3, 23640, Note_on_c, 1, 76, 105
3, 23644, Note_on_c, 1, 75, 0
3, 23820, Note_on_c, 1, 78, 118
3, 23831, Note_on_c, 1, 76, 0
3, 23880, Note_on_c, 1, 79, 107
3, 23883, Note_on_c, 1, 78, 0
3, 24000, Note_on_c, 1, 78, 115
3, 24006, Note_on_c, 1, 79, 0
3, 24060, Note_on_c, 1, 76, 105
3, 24062, Note_on_c, 1, 78, 0
3, 24112, Note_on_c, 1, 76, 0
3, 24120, Note_on_c, 1, 76, 100
3, 24360, Note_on_c, 1, 83, 115
3, 24379, Note_on_c, 1, 76, 0
3, 24428, Control_c, 1, 7, 64
3, 24436, Control_c, 1, 7, 64
3, 24441, Control_c, 1, 7, 65
3, 24441, Control_c, 1, 7, 66
3, 24446, Control_c, 1, 7, 66
3, 24451, Control_c, 1, 7, 67
3, 24451, Control_c, 1, 7, 68
3, 24451, Control_c, 1, 7, 68
3, 24456, Control_c, 1, 7, 69
3, 24456, Control_c, 1, 7, 70
3, 24458, Control_c, 1, 7, 70
3, 24460, Control_c, 1, 7, 71
3, 24460, Control_c, 1, 7, 72
3, 24460, Control_c, 1, 7, 74
3, 24460, Control_c, 1, 7, 74
3, 24460, Control_c, 1, 7, 75
3, 24465, Control_c, 1, 7, 76
3, 24465, Control_c, 1, 7, 77
3, 24468, Control_c, 1, 7, 78
3, 24470, Control_c, 1, 7, 81
3, 24470, Control_c, 1, 7, 82
3, 24475, Control_c, 1, 7, 83
3, 24480, Control_c, 1, 7, 84
3, 24482, Note_on_c, 1, 83, 0
3, 24484, Control_c, 1, 7, 87
3, 24487, Control_c, 1, 7, 88
3, 24490, Control_c, 1, 7, 89
3, 24496, Control_c, 1, 7, 91
3, 24496, Control_c, 1, 7, 95
3, 24502, Control_c, 1, 7, 96
3, 24507, Control_c, 1, 7, 97
3, 24510, Note_on_c, 1, 71, 77
3, 24512, Control_c, 1, 7, 99
3, 24515, Control_c, 1, 7, 100
3, 24520, Control_c, 1, 7, 103
3, 24520, Control_c, 1, 7, 105
3, 24525, Control_c, 1, 7, 106
3, 24525, Control_c, 1, 7, 107
3, 24539, Note_on_c, 1, 71, 0
3, 24540, Note_on_c, 1, 72, 71
3, 24540, Control_c, 1, 7, 109
3, 24545, Control_c, 1, 7, 109
3, 24550, Control_c, 1, 7, 110
3, 24555, Control_c, 1, 7, 111
3, 24565, Control_c, 1, 7, 113
3, 24565, Control_c, 1, 7, 114
3, 24569, Note_on_c, 1, 72, 0
3, 24570, Note_on_c, 1, 74, 71
3, 24570, Control_c, 1, 7, 114
3, 24575, Control_c, 1, 7, 115
3, 24575, Control_c, 1, 7, 116
3, 24584, Control_c, 1, 7, 116
3, 24594, Control_c, 1, 7, 118
3, 24598, Control_c, 1, 7, 119
3, 24599, Note_on_c, 1, 74, 0
3, 24600, Note_on_c, 1, 76, 71
3, 24602, Control_c, 1, 7, 120
3, 24605, Control_c, 1, 7, 121
3, 24605, Control_c, 1, 7, 122
3, 24610, Control_c, 1, 7, 122
3, 24624, Control_c, 1, 7, 123
3, 24629, Note_on_c, 1, 76, 0
3, 24630, Note_on_c, 1, 78, 87
3, 24634, Control_c, 1, 7, 124
3, 24645, Control_c, 1, 7, 124
3, 24659, Note_on_c, 1, 78, 0
3, 24660, Note_on_c, 1, 79, 81
3, 24689, Note_on_c, 1, 79, 0
3, 24690, Note_on_c, 1, 81, 71
3, 24719, Note_on_c, 1, 81, 0
3, 24720, Note_on_c, 1, 83, 71
3, 24749, Note_on_c, 1, 83, 0
3, 24750, Note_on_c, 1, 84, 71
3, 24779, Note_on_c, 1, 84, 0
3, 24780, Note_on_c, 1, 86, 112
3, 24809, Note_on_c, 1, 86, 0
3, 24810, Note_on_c, 1, 83, 107
3, 24839, Note_on_c, 1, 83, 0
3, 24840, Note_on_c, 1, 88, 107
3, 24869, Note_on_c, 1, 88, 0
3, 24870, Note_on_c, 1, 86, 105
3, 24899, Note_on_c, 1, 86, 0
3, 24900, Note_on_c, 1, 84, 110
3, 24929, Note_on_c, 1, 84, 0
3, 24930, Note_on_c, 1, 83, 100
3, 24959, Note_on_c, 1, 83, 0
3, 24960, Note_on_c, 1, 81, 96
3, 24989, Note_on_c, 1, 81, 0
3, 24990, Note_on_c, 1, 79, 77
3, 25019, Note_on_c, 1, 79, 0
3, 25020, Note_on_c, 1, 78, 92
3, 25049, Note_on_c, 1, 78, 0
3, 25050, Note_on_c, 1, 76, 87
3, 25079, Note_on_c, 1, 76, 0
3, 25080, Note_on_c, 1, 75, 112
3, 25109, Note_on_c, 1, 75, 0
3, 25110, Note_on_c, 1, 76, 90
3, 25139, Note_on_c, 1, 76, 0
3, 25140, Note_on_c, 1, 75, 118
3, 25169, Note_on_c, 1, 75, 0
3, 25170, Note_on_c, 1, 76, 98
3, 25199, Note_on_c, 1, 76, 0
3, 25234, Control_c, 1, 7, 124
3, 25278, Control_c, 1, 7, 123
3, 25284, Control_c, 1, 7, 122
3, 25294, Control_c, 1, 7, 122
3, 25320, Note_on_c, 1, 81, 121
3, 25326, Control_c, 1, 7, 121
3, 25328, Control_c, 1, 7, 120
3, 25339, Control_c, 1, 7, 119
3, 25339, Control_c, 1, 7, 118
3, 25344, Control_c, 1, 7, 118
3, 25349, Control_c, 1, 7, 116
3, 25349, Control_c, 1, 7, 116
3, 25354, Control_c, 1, 7, 115
3, 25359, Control_c, 1, 7, 114
3, 25364, Control_c, 1, 7, 113
3, 25364, Control_c, 1, 7, 112
3, 25369, Control_c, 1, 7, 111
3, 25374, Control_c, 1, 7, 110
3, 25378, Control_c, 1, 7, 109
3, 25380, Control_c, 1, 7, 109
3, 25383, Control_c, 1, 7, 107
3, 25385, Control_c, 1, 7, 107
3, 25385, Control_c, 1, 7, 106
3, 25390, Control_c, 1, 7, 105
3, 25392, Control_c, 1, 7, 103
3, 25405, Control_c, 1, 7, 101
3, 25407, Control_c, 1, 7, 101
3, 25412, Control_c, 1, 7, 99
3, 25412, Control_c, 1, 7, 98
3, 25418, Control_c, 1, 7, 97
3, 25423, Control_c, 1, 7, 95
3, 25423, Control_c, 1, 7, 93
3, 25428, Control_c, 1, 7, 93
3, 25434, Control_c, 1, 7, 92
3, 25436, Control_c, 1, 7, 90
3, 25443, Control_c, 1, 7, 89
3, 25443, Control_c, 1, 7, 88
3, 25448, Control_c, 1, 7, 88
3, 25453, Control_c, 1, 7, 87
3, 25453, Control_c, 1, 7, 86
3, 25458, Control_c, 1, 7, 85
3, 25460, Control_c, 1, 7, 84
3, 25471, Control_c, 1, 7, 82
3, 25471, Control_c, 1, 7, 82
3, 25476, Control_c, 1, 7, 81
3, 25481, Control_c, 1, 7, 80
3, 25481, Control_c, 1, 7, 79
3, 25486, Control_c, 1, 7, 78
3, 25486, Control_c, 1, 7, 77
3, 25496, Control_c, 1, 7, 76
3, 25496, Control_c, 1, 7, 75
3, 25506, Control_c, 1, 7, 74
3, 25511, Control_c, 1, 7, 72
3, 25511, Control_c, 1, 7, 72
3, 25516, Control_c, 1, 7, 71
3, 25521, Control_c, 1, 7, 70
3, 25526, Control_c, 1, 7, 70
3, 25541, Control_c, 1, 7, 68
3, 25550, Control_c, 1, 7, 68
3, 25555, Control_c, 1, 7, 66
3, 25559, Note_on_c, 1, 81, 0
3, 25560, Note_on_c, 1, 83, 118
3, 25566, Control_c, 1, 7, 66
3, 25568, Control_c, 1, 7, 64
3, 25726, Control_c, 1, 7, 64
3, 25919, Note_on_c, 1, 83, 0
3, 25919, End_track
4, 0, Start_track
4, 0, MIDI_port, 0
4, 0, Title_t, "Flute 2"
4, 0, Program_c, 2, 73
4, 0, Control_c, 2, 7, 90
4, 0, Control_c, 2, 10, 90
4, 240, Channel_aftertouch_c, 2, 80
4, 480, Note_on_c, 2, 79, 127
4, 540, Note_on_c, 2, 81, 125
4, 554, Note_on_c, 2, 79, 0
4, 599, Note_on_c, 2, 81, 0
4, 600, Note_on_c, 2, 79, 120
4, 656, Note_on_c, 2, 79, 0
4, 660, Note_on_c, 2, 81, 110
4, 719, Note_on_c, 2, 81, 0
4, 720, Note_on_c, 2, 78, 127
4, 780, Note_on_c, 2, 76, 120
4, 783, Note_on_c, 2, 78, 0
4, 840, Note_on_c, 2, 78, 127
4, 845, Note_on_c, 2, 76, 0
4, 900, Note_on_c, 2, 81, 127
4, 910, Note_on_c, 2, 78, 0
4, 960, Note_on_c, 2, 79, 127
4, 963, Note_on_c, 2, 81, 0
4, 1020, Note_on_c, 2, 78, 127
4, 1027, Note_on_c, 2, 79, 0
4, 1080, Note_on_c, 2, 76, 123
4, 1085, Note_on_c, 2, 78, 0
4, 1171, Note_on_c, 2, 76, 0
4, 1200, Note_on_c, 2, 79, 102
4, 1259, Note_on_c, 2, 79, 0
4, 1260, Note_on_c, 2, 81, 102
4, 1317, Note_on_c, 2, 81, 0
4, 1320, Note_on_c, 2, 79, 118
4, 1379, Note_on_c, 2, 79, 0
4, 1380, Note_on_c, 2, 81, 108
4, 1439, Note_on_c, 2, 81, 0
4, 1440, Note_on_c, 2, 78, 102
4, 1500, Note_on_c, 2, 76, 106
4, 1503, Note_on_c, 2, 78, 0
4, 1560, Note_on_c, 2, 78, 118
4, 1569, Note_on_c, 2, 76, 0
4, 1620, Note_on_c, 2, 81, 120
4, 1630, Note_on_c, 2, 78, 0
4, 1680, Note_on_c, 2, 79, 120
4, 1684, Note_on_c, 2, 81, 0
4, 1740, Note_on_c, 2, 78, 125
4, 1745, Note_on_c, 2, 79, 0
4, 1800, Note_on_c, 2, 76, 108
4, 1809, Note_on_c, 2, 78, 0
4, 1872, Note_on_c, 2, 76, 0
4, 1920, Note_on_c, 2, 71, 127
4, 1980, Note_on_c, 2, 72, 127
4, 1984, Note_on_c, 2, 71, 0
4, 2040, Note_on_c, 2, 71, 127
4, 2045, Note_on_c, 2, 72, 0
4, 2099, Note_on_c, 2, 71, 0
4, 2100, Note_on_c, 2, 72, 127
4, 2160, Note_on_c, 2, 69, 127
4, 2168, Note_on_c, 2, 72, 0
4, 2215, Note_on_c, 2, 69, 0
4, 2220, Note_on_c, 2, 67, 123
4, 2280, Note_on_c, 2, 69, 127
4, 2283, Note_on_c, 2, 67, 0
4, 2340, Note_on_c, 2, 71, 127
4, 2349, Note_on_c, 2, 69, 0
4, 2400, Note_on_c, 2, 67, 127
4, 2401, Note_on_c, 2, 71, 0
4, 2460, Note_on_c, 2, 69, 127
4, 2463, Note_on_c, 2, 67, 0
4, 2520, Note_on_c, 2, 71, 127
4, 2530, Note_on_c, 2, 69, 0
4, 2618, Note_on_c, 2, 71, 0
4, 2640, Note_on_c, 2, 71, 125
4, 2700, Note_on_c, 2, 72, 127
4, 2705, Note_on_c, 2, 71, 0
4, 2760, Note_on_c, 2, 71, 127
4, 2763, Note_on_c, 2, 72, 0
4, 2820, Note_on_c, 2, 72, 123
4, 2826, Note_on_c, 2, 71, 0
4, 2880, Note_on_c, 2, 69, 120
4, 2881, Note_on_c, 2, 72, 0
4, 2940, Note_on_c, 2, 69, 0
4, 2940, Note_on_c, 2, 67, 102
4, 3000, Note_on_c, 2, 69, 125
4, 3002, Note_on_c, 2, 67, 0
4, 3060, Note_on_c, 2, 71, 120
4, 3072, Note_on_c, 2, 69, 0
4, 3120, Note_on_c, 2, 67, 120
4, 3124, Note_on_c, 2, 71, 0
4, 3180, Note_on_c, 2, 69, 127
4, 3191, Note_on_c, 2, 67, 0
4, 3240, Note_on_c, 2, 71, 127
4, 3247, Note_on_c, 2, 69, 0
4, 3337, Note_on_c, 2, 71, 0
4, 3360, Note_on_c, 2, 75, 127
4, 3419, Note_on_c, 2, 75, 0
4, 3420, Note_on_c, 2, 76, 127
4, 3480, Note_on_c, 2, 78, 127
4, 3483, Note_on_c, 2, 76, 0
4, 3540, Note_on_c, 2, 75, 127
4, 3543, Note_on_c, 2, 78, 0
4, 3600, Note_on_c, 2, 76, 127
4, 3605, Note_on_c, 2, 75, 0
4, 3691, Note_on_c, 2, 76, 0
4, 3720, Note_on_c, 2, 75, 112
4, 3779, Note_on_c, 2, 75, 0
4, 3780, Note_on_c, 2, 76, 120
4, 3840, Note_on_c, 2, 78, 118
4, 3841, Note_on_c, 2, 76, 0
4, 3900, Note_on_c, 2, 75, 125
4, 3901, Note_on_c, 2, 78, 0
4, 3960, Note_on_c, 2, 76, 120
4, 3964, Note_on_c, 2, 75, 0
4, 4036, Note_on_c, 2, 76, 0
4, 4080, Note_on_c, 2, 71, 127
4, 4140, Note_on_c, 2, 72, 127
4, 4150, Note_on_c, 2, 71, 0
4, 4196, Note_on_c, 2, 72, 0
4, 4200, Note_on_c, 2, 69, 127
4, 4260, Note_on_c, 2, 71, 127
4, 4263, Note_on_c, 2, 69, 0
4, 4320, Note_on_c, 2, 72, 127
4, 4328, Note_on_c, 2, 71, 0
4, 4417, Note_on_c, 2, 72, 0
4, 4440, Note_on_c, 2, 71, 125
4, 4500, Note_on_c, 2, 71, 0
4, 4500, Note_on_c, 2, 72, 120
4, 4553, Note_on_c, 2, 72, 0
4, 4560, Note_on_c, 2, 69, 118
4, 4620, Note_on_c, 2, 71, 116
4, 4624, Note_on_c, 2, 69, 0
4, 4680, Note_on_c, 2, 72, 108
4, 4684, Note_on_c, 2, 71, 0
4, 4776, Note_on_c, 2, 72, 0
4, 4800, Note_on_c, 2, 78, 127
4, 4860, Note_on_c, 2, 79, 127
4, 4870, Note_on_c, 2, 78, 0
4, 4920, Note_on_c, 2, 79, 0
4, 4920, Note_on_c, 2, 76, 127
4, 4980, Note_on_c, 2, 78, 127
4, 4989, Note_on_c, 2, 76, 0
4, 5040, Note_on_c, 2, 75, 127
4, 5042, Note_on_c, 2, 78, 0
4, 5100, Note_on_c, 2, 78, 127
4, 5107, Note_on_c, 2, 75, 0
4, 5152, Note_on_c, 2, 78, 0
4, 5160, Note_on_c, 2, 76, 127
4, 5220, Note_on_c, 2, 78, 127
4, 5227, Note_on_c, 2, 76, 0
4, 5280, Note_on_c, 2, 74, 118
4, 5287, Note_on_c, 2, 78, 0
4, 5340, Note_on_c, 2, 76, 125
4, 5342, Note_on_c, 2, 74, 0
4, 5400, Note_on_c, 2, 73, 127
4, 5406, Note_on_c, 2, 76, 0
4, 5460, Note_on_c, 2, 76, 127
4, 5462, Note_on_c, 2, 73, 0
4, 5503, Note_on_c, 2, 76, 0
4, 5520, Note_on_c, 2, 74, 127
4, 5580, Note_on_c, 2, 76, 125
4, 5589, Note_on_c, 2, 74, 0
4, 5640, Note_on_c, 2, 72, 127
4, 5644, Note_on_c, 2, 76, 0
4, 5700, Note_on_c, 2, 74, 127
4, 5705, Note_on_c, 2, 72, 0
4, 5760, Note_on_c, 2, 74, 0
4, 5760, Note_on_c, 2, 71, 127
4, 5820, Note_on_c, 2, 72, 127
4, 5824, Note_on_c, 2, 71, 0
4, 5880, Note_on_c, 2, 71, 127
4, 5886, Note_on_c, 2, 72, 0
4, 5939, Note_on_c, 2, 71, 0
4, 5940, Note_on_c, 2, 69, 118
4, 6000, Note_on_c, 2, 67, 127
4, 6001, Note_on_c, 2, 69, 0
4, 6060, Note_on_c, 2, 71, 127
4, 6072, Note_on_c, 2, 67, 0
4, 6122, Note_on_c, 2, 76, 127
4, 6125, Note_on_c, 2, 71, 0
4, 6177, Note_on_c, 2, 75, 127
4, 6180, Note_on_c, 2, 76, 0
4, 6230, Note_on_c, 2, 75, 0
4, 6238, Note_on_c, 2, 76, 125
4, 6256, Note_on_c, 2, 75, 127
4, 6259, Note_on_c, 2, 76, 0
4, 6272, Note_on_c, 2, 76, 123
4, 6275, Note_on_c, 2, 75, 0
4, 6291, Note_on_c, 2, 75, 127
4, 6294, Note_on_c, 2, 76, 0
4, 6304, Note_on_c, 2, 76, 106
4, 6307, Note_on_c, 2, 75, 0
4, 6320, Note_on_c, 2, 75, 127
4, 6324, Note_on_c, 2, 76, 0
4, 6420, Note_on_c, 2, 76, 127
4, 6428, Note_on_c, 2, 75, 0
4, 6480, Note_on_c, 2, 76, 0
4, 6480, Note_on_c, 2, 76, 127
4, 6581, Note_on_c, 2, 76, 0
4, 6600, Note_on_c, 2, 79, 127
4, 6660, Note_on_c, 2, 81, 127
4, 6662, Note_on_c, 2, 79, 0
4, 6720, Note_on_c, 2, 79, 127
4, 6727, Note_on_c, 2, 81, 0
4, 6780, Note_on_c, 2, 81, 127
4, 6783, Note_on_c, 2, 79, 0
4, 6840, Note_on_c, 2, 83, 127
4, 6846, Note_on_c, 2, 81, 0
4, 6940, Note_on_c, 2, 83, 0
4, 6960, Note_on_c, 2, 78, 127
4, 7020, Note_on_c, 2, 79, 127
4, 7029, Note_on_c, 2, 78, 0
4, 7080, Note_on_c, 2, 81, 127
4, 7083, Note_on_c, 2, 79, 0
4, 7139, Note_on_c, 2, 81, 0
4, 7140, Note_on_c, 2, 78, 127
4, 7200, Note_on_c, 2, 79, 127
4, 7210, Note_on_c, 2, 78, 0
4, 7289, Note_on_c, 2, 79, 0
4, 7320, Note_on_c, 2, 78, 116
4, 7380, Note_on_c, 2, 79, 112
4, 7382, Note_on_c, 2, 78, 0
4, 7439, Note_on_c, 2, 79, 0
4, 7440, Note_on_c, 2, 81, 116
4, 7499, Note_on_c, 2, 81, 0
4, 7500, Note_on_c, 2, 78, 106
4, 7560, Note_on_c, 2, 79, 116
4, 7573, Note_on_c, 2, 78, 0
4, 7655, Note_on_c, 2, 79, 0
4, 7680, Note_on_c, 2, 80, 127
4, 7740, Note_on_c, 2, 81, 127
4, 7747, Note_on_c, 2, 80, 0
4, 7800, Note_on_c, 2, 81, 0
4, 7800, Note_on_c, 2, 83, 127
4, 7860, Note_on_c, 2, 80, 127
4, 7864, Note_on_c, 2, 83, 0
4, 7920, Note_on_c, 2, 81, 127
4, 7929, Note_on_c, 2, 80, 0
4, 7980, Note_on_c, 2, 79, 127
4, 7986, Note_on_c, 2, 81, 0
4, 8040, Note_on_c, 2, 77, 127
4, 8048, Note_on_c, 2, 79, 0
4, 8100, Note_on_c, 2, 76, 127
4, 8108, Note_on_c, 2, 77, 0
4, 8160, Note_on_c, 2, 72, 127
4, 8162, Note_on_c, 2, 76, 0
4, 8220, Note_on_c, 2, 74, 127
4, 8224, Note_on_c, 2, 72, 0
4, 8280, Note_on_c, 2, 76, 127
4, 8294, Note_on_c, 2, 74, 0
4, 8383, Note_on_c, 2, 76, 0
4, 8400, Note_on_c, 2, 77, 123
4, 8460, Note_on_c, 2, 77, 0
4, 8460, Note_on_c, 2, 76, 123
4, 8520, Note_on_c, 2, 74, 125
4, 8521, Note_on_c, 2, 76, 0
4, 8580, Note_on_c, 2, 72, 120
4, 8586, Note_on_c, 2, 74, 0
4, 8640, Note_on_c, 2, 71, 112
4, 8650, Note_on_c, 2, 72, 0
4, 8727, Note_on_c, 2, 71, 0
4, 8760, Note_on_c, 2, 76, 127
4, 9120, Note_on_c, 2, 74, 127
4, 9125, Note_on_c, 2, 76, 0
4, 9402, Note_on_c, 2, 74, 0
4, 9420, Note_on_c, 2, 77, 127
4, 9480, Note_on_c, 2, 76, 127
4, 9485, Note_on_c, 2, 77, 0
4, 9540, Note_on_c, 2, 74, 127
4, 9544, Note_on_c, 2, 76, 0
4, 9600, Note_on_c, 2, 72, 127
4, 9612, Note_on_c, 2, 74, 0
4, 9660, Note_on_c, 2, 71, 127
4, 9666, Note_on_c, 2, 72, 0
4, 9720, Note_on_c, 2, 72, 127
4, 9722, Note_on_c, 2, 71, 0
4, 9776, Note_on_c, 2, 69, 127
4, 9783, Note_on_c, 2, 72, 0
4, 9828, Note_on_c, 2, 69, 0
4, 9838, Note_on_c, 2, 69, 127
4, 9858, Note_on_c, 2, 68, 127
4, 9861, Note_on_c, 2, 69, 0
4, 9872, Note_on_c, 2, 69, 127
4, 9875, Note_on_c, 2, 68, 0
4, 9889, Note_on_c, 2, 68, 127
4, 9892, Note_on_c, 2, 69, 0
4, 9902, Note_on_c, 2, 69, 127
4, 9905, Note_on_c, 2, 68, 0
4, 9917, Note_on_c, 2, 68, 127
4, 9923, Note_on_c, 2, 69, 0
4, 10022, Note_on_c, 2, 69, 127
4, 10028, Note_on_c, 2, 68, 0
4, 10074, Note_on_c, 2, 69, 0
4, 10080, Note_on_c, 2, 69, 127
4, 10191, Note_on_c, 2, 69, 0
4, 10200, Note_on_c, 2, 81, 127
4, 10255, Note_on_c, 2, 81, 0
4, 10260, Note_on_c, 2, 83, 127
4, 10320, Note_on_c, 2, 79, 127
4, 10321, Note_on_c, 2, 83, 0
4, 10380, Note_on_c, 2, 81, 127
4, 10386, Note_on_c, 2, 79, 0
4, 10440, Note_on_c, 2, 78, 127
4, 10444, Note_on_c, 2, 81, 0
4, 10570, Note_on_c, 2, 78, 0
4, 10920, Note_on_c, 2, 79, 127
4, 10980, Note_on_c, 2, 81, 127
4, 10993, Note_on_c, 2, 79, 0
4, 11040, Note_on_c, 2, 78, 127
4, 11046, Note_on_c, 2, 81, 0
4, 11100, Note_on_c, 2, 79, 127
4, 11105, Note_on_c, 2, 78, 0
4, 11160, Note_on_c, 2, 76, 127
4, 11164, Note_on_c, 2, 79, 0
4, 11285, Note_on_c, 2, 76, 0
4, 11640, Note_on_c, 2, 78, 127
4, 11700, Note_on_c, 2, 79, 127
4, 11710, Note_on_c, 2, 78, 0
4, 11760, Note_on_c, 2, 76, 127
4, 11764, Note_on_c, 2, 79, 0
4, 11820, Note_on_c, 2, 78, 127
4, 11828, Note_on_c, 2, 76, 0
4, 11880, Note_on_c, 2, 75, 123
4, 11886, Note_on_c, 2, 78, 0
4, 11984, Note_on_c, 2, 75, 0
4, 12000, Note_on_c, 2, 81, 127
4, 12060, Note_on_c, 2, 83, 127
4, 12068, Note_on_c, 2, 81, 0
4, 12120, Note_on_c, 2, 79, 127
4, 12127, Note_on_c, 2, 83, 0
4, 12180, Note_on_c, 2, 81, 127
4, 12187, Note_on_c, 2, 79, 0
4, 12240, Note_on_c, 2, 78, 127
4, 12244, Note_on_c, 2, 81, 0
4, 12300, Note_on_c, 2, 81, 127
4, 12306, Note_on_c, 2, 78, 0
4, 12360, Note_on_c, 2, 79, 127
4, 12364, Note_on_c, 2, 81, 0
4, 12420, Note_on_c, 2, 81, 127
4, 12426, Note_on_c, 2, 79, 0
4, 12480, Note_on_c, 2, 78, 127
4, 12483, Note_on_c, 2, 81, 0
4, 12540, Note_on_c, 2, 79, 127
4, 12545, Note_on_c, 2, 78, 0
4, 12600, Note_on_c, 2, 76, 127
4, 12605, Note_on_c, 2, 79, 0
4, 12658, Note_on_c, 2, 76, 0
4, 12660, Note_on_c, 2, 74, 125
4, 12720, Note_on_c, 2, 73, 127
4, 12729, Note_on_c, 2, 74, 0
4, 12780, Note_on_c, 2, 74, 127
4, 12785, Note_on_c, 2, 73, 0
4, 12840, Note_on_c, 2, 71, 127
4, 12844, Note_on_c, 2, 74, 0
4, 12900, Note_on_c, 2, 73, 127
4, 12905, Note_on_c, 2, 71, 0
4, 12960, Note_on_c, 2, 70, 127
4, 12961, Note_on_c, 2, 73, 0
4, 13052, Note_on_c, 2, 70, 0
4, 13083, Note_on_c, 2, 71, 127
4, 13105, Note_on_c, 2, 71, 0
4, 13105, Note_on_c, 2, 70, 127
4, 13118, Note_on_c, 2, 71, 118
4, 13119, Note_on_c, 2, 70, 0
4, 13132, Note_on_c, 2, 70, 127
4, 13134, Note_on_c, 2, 71, 0
4, 13147, Note_on_c, 2, 70, 0
4, 13147, Note_on_c, 2, 71, 127
4, 13161, Note_on_c, 2, 70, 127
4, 13164, Note_on_c, 2, 71, 0
4, 13320, Note_on_c, 2, 71, 125
4, 13322, Note_on_c, 2, 70, 0
4, 13379, Note_on_c, 2, 71, 0
4, 13380, Note_on_c, 2, 73, 127
4, 13439, Note_on_c, 2, 73, 0
4, 13440, Note_on_c, 2, 74, 127
4, 13499, Note_on_c, 2, 74, 0
4, 13500, Note_on_c, 2, 76, 127
4, 13559, Note_on_c, 2, 76, 0
4, 13560, Note_on_c, 2, 73, 127
4, 13619, Note_on_c, 2, 73, 0
4, 13620, Note_on_c, 2, 74, 127
4, 13679, Note_on_c, 2, 74, 0
4, 13680, Note_on_c, 2, 71, 127
4, 13739, Note_on_c, 2, 71, 0
4, 13740, Note_on_c, 2, 73, 127
4, 13799, Note_on_c, 2, 73, 0
4, 13800, Note_on_c, 2, 74, 127
4, 13859, Note_on_c, 2, 74, 0
4, 13860, Note_on_c, 2, 78, 127
4, 13919, Note_on_c, 2, 78, 0
4, 13920, Note_on_c, 2, 74, 127
4, 13979, Note_on_c, 2, 74, 0
4, 13980, Note_on_c, 2, 76, 127
4, 14039, Note_on_c, 2, 76, 0
4, 14040, Note_on_c, 2, 78, 127
4, 14519, Note_on_c, 2, 78, 0
4, 14520, Note_on_c, 2, 77, 127
4, 14639, Note_on_c, 2, 77, 0
4, 14640, Note_on_c, 2, 76, 127
4, 14879, Note_on_c, 2, 76, 0
4, 14880, Note_on_c, 2, 75, 127
4, 14999, Note_on_c, 2, 75, 0
4, 15000, Note_on_c, 2, 74, 123
4, 15239, Note_on_c, 2, 74, 0
4, 15240, Note_on_c, 2, 73, 127
4, 15359, Note_on_c, 2, 73, 0
4, 15360, Note_on_c, 2, 72, 127
4, 15599, Note_on_c, 2, 72, 0
4, 15600, Note_on_c, 2, 70, 127
4, 15719, Note_on_c, 2, 70, 0
4, 15720, Note_on_c, 2, 71, 127
4, 15897, Note_on_c, 2, 73, 127
4, 15899, Note_on_c, 2, 71, 0
4, 15948, Note_on_c, 2, 73, 0
4, 15953, Note_on_c, 2, 74, 127
4, 15972, Note_on_c, 2, 73, 127
4, 15976, Note_on_c, 2, 74, 0
4, 15984, Note_on_c, 2, 74, 120
4, 15989, Note_on_c, 2, 73, 0
4, 15999, Note_on_c, 2, 73, 127
4, 16002, Note_on_c, 2, 74, 0
4, 16136, Note_on_c, 2, 73, 0
4, 16140, Note_on_c, 2, 71, 127
4, 16196, Note_on_c, 2, 71, 0
4, 16200, Note_on_c, 2, 71, 127
4, 16302, Note_on_c, 2, 71, 0
4, 16320, Note_on_c, 2, 74, 127
4, 16379, Note_on_c, 2, 74, 0
4, 16380, Note_on_c, 2, 76, 127
4, 16439, Note_on_c, 2, 76, 0
4, 16440, Note_on_c, 2, 74, 127
4, 16499, Note_on_c, 2, 74, 0
4, 16500, Note_on_c, 2, 76, 127
4, 16559, Note_on_c, 2, 76, 0
4, 16560, Note_on_c, 2, 78, 127
4, 16679, Note_on_c, 2, 78, 0
4, 16680, Note_on_c, 2, 73, 127
4, 16739, Note_on_c, 2, 73, 0
4, 16740, Note_on_c, 2, 74, 123
4, 16799, Note_on_c, 2, 74, 0
4, 16800, Note_on_c, 2, 76, 127
4, 16859, Note_on_c, 2, 76, 0
4, 16860, Note_on_c, 2, 73, 125
4, 16919, Note_on_c, 2, 73, 0
4, 16920, Note_on_c, 2, 74, 120
4, 16979, Note_on_c, 2, 74, 0
4, 17040, Note_on_c, 2, 73, 96
4, 17099, Note_on_c, 2, 73, 0
4, 17100, Note_on_c, 2, 74, 104
4, 17159, Note_on_c, 2, 74, 0
4, 17160, Note_on_c, 2, 76, 98
4, 17219, Note_on_c, 2, 76, 0
4, 17220, Note_on_c, 2, 73, 95
4, 17279, Note_on_c, 2, 73, 0
4, 17280, Note_on_c, 2, 74, 106
4, 17399, Note_on_c, 2, 74, 0
4, 17400, Note_on_c, 2, 75, 127
4, 17459, Note_on_c, 2, 75, 0
4, 17460, Note_on_c, 2, 76, 127
4, 17519, Note_on_c, 2, 76, 0
4, 17520, Note_on_c, 2, 78, 127
4, 17579, Note_on_c, 2, 78, 0
4, 17580, Note_on_c, 2, 75, 127
4, 17639, Note_on_c, 2, 75, 0
4, 17640, Note_on_c, 2, 76, 127
4, 17699, Note_on_c, 2, 76, 0
4, 17700, Note_on_c, 2, 74, 127
4, 17759, Note_on_c, 2, 74, 0
4, 17760, Note_on_c, 2, 72, 127
4, 17819, Note_on_c, 2, 72, 0
4, 17820, Note_on_c, 2, 71, 127
4, 17879, Note_on_c, 2, 71, 0
4, 17880, Note_on_c, 2, 67, 127
4, 17939, Note_on_c, 2, 67, 0
4, 17940, Note_on_c, 2, 69, 127
4, 17999, Note_on_c, 2, 69, 0
4, 18000, Note_on_c, 2, 71, 127
4, 18119, Note_on_c, 2, 71, 0
4, 18120, Note_on_c, 2, 72, 125
4, 18179, Note_on_c, 2, 72, 0
4, 18180, Note_on_c, 2, 71, 123
4, 18239, Note_on_c, 2, 71, 0
4, 18240, Note_on_c, 2, 69, 120
4, 18299, Note_on_c, 2, 69, 0
4, 18300, Note_on_c, 2, 79, 102
4, 18359, Note_on_c, 2, 79, 0
4, 18360, Note_on_c, 2, 78, 108
4, 18479, Note_on_c, 2, 78, 0
4, 18480, Note_on_c, 2, 83, 127
4, 18839, Note_on_c, 2, 83, 0
4, 18840, Note_on_c, 2, 81, 127
4, 19139, Note_on_c, 2, 81, 0
4, 19140, Note_on_c, 2, 84, 127
4, 19199, Note_on_c, 2, 84, 0
4, 19200, Note_on_c, 2, 83, 127
4, 19259, Note_on_c, 2, 83, 0
4, 19260, Note_on_c, 2, 81, 127
4, 19319, Note_on_c, 2, 81, 0
4, 19320, Note_on_c, 2, 79, 123
4, 19379, Note_on_c, 2, 79, 0
4, 19380, Note_on_c, 2, 78, 127
4, 19439, Note_on_c, 2, 78, 0
4, 19440, Note_on_c, 2, 79, 127
4, 19497, Note_on_c, 2, 76, 127
4, 19499, Note_on_c, 2, 79, 0
4, 19549, Note_on_c, 2, 76, 0
4, 19560, Note_on_c, 2, 76, 127
4, 19581, Note_on_c, 2, 75, 127
4, 19584, Note_on_c, 2, 76, 0
4, 19596, Note_on_c, 2, 76, 127
4, 19598, Note_on_c, 2, 75, 0
4, 19612, Note_on_c, 2, 76, 0
4, 19612, Note_on_c, 2, 75, 127
4, 19624, Note_on_c, 2, 75, 0
4, 19624, Note_on_c, 2, 76, 127
4, 19637, Note_on_c, 2, 75, 127
4, 19641, Note_on_c, 2, 76, 0
4, 19746, Note_on_c, 2, 76, 127
4, 19752, Note_on_c, 2, 75, 0
4, 19798, Note_on_c, 2, 76, 0
4, 19800, Note_on_c, 2, 76, 127
4, 20519, Note_on_c, 2, 76, 0
4, 20580, Note_on_c, 2, 74, 127
4, 20639, Note_on_c, 2, 74, 0
4, 20640, Note_on_c, 2, 76, 127
4, 20699, Note_on_c, 2, 76, 0
4, 20700, Note_on_c, 2, 77, 127
4, 20759, Note_on_c, 2, 77, 0
4, 20760, Note_on_c, 2, 76, 127
4, 20819, Note_on_c, 2, 76, 0
4, 20820, Note_on_c, 2, 77, 127
4, 20879, Note_on_c, 2, 77, 0
4, 20880, Note_on_c, 2, 74, 127
4, 20939, Note_on_c, 2, 74, 0
4, 20940, Note_on_c, 2, 72, 127
4, 20999, Note_on_c, 2, 72, 0
4, 21000, Note_on_c, 2, 74, 127
4, 21059, Note_on_c, 2, 74, 0
4, 21060, Note_on_c, 2, 77, 127
4, 21119, Note_on_c, 2, 77, 0
4, 21120, Note_on_c, 2, 76, 127
4, 21179, Note_on_c, 2, 76, 0
4, 21180, Note_on_c, 2, 74, 127
4, 21239, Note_on_c, 2, 74, 0
4, 21240, Note_on_c, 2, 72, 127
4, 21359, Note_on_c, 2, 72, 0
4, 21360, Note_on_c, 2, 81, 127
4, 21479, Note_on_c, 2, 81, 0
4, 21600, Note_on_c, 2, 81, 127
4, 21659, Note_on_c, 2, 81, 0
4, 21660, Note_on_c, 2, 83, 127
4, 21719, Note_on_c, 2, 83, 0
4, 21720, Note_on_c, 2, 84, 127
4, 21839, Note_on_c, 2, 84, 0
4, 21960, Note_on_c, 2, 75, 127
4, 22079, Note_on_c, 2, 75, 0
4, 22080, Note_on_c, 2, 79, 123
4, 22139, Note_on_c, 2, 79, 0
4, 22140, Note_on_c, 2, 81, 116
4, 22199, Note_on_c, 2, 81, 0
4, 22200, Note_on_c, 2, 78, 120
4, 22259, Note_on_c, 2, 78, 0
4, 22260, Note_on_c, 2, 79, 114
4, 22319, Note_on_c, 2, 79, 0
4, 22320, Note_on_c, 2, 77, 125
4, 22379, Note_on_c, 2, 77, 0
4, 22380, Note_on_c, 2, 80, 127
4, 22439, Note_on_c, 2, 80, 0
4, 22440, Note_on_c, 2, 78, 127
4, 22499, Note_on_c, 2, 78, 0
4, 22500, Note_on_c, 2, 79, 123
4, 22559, Note_on_c, 2, 79, 0
4, 22560, Note_on_c, 2, 76, 127
4, 22619, Note_on_c, 2, 76, 0
4, 22620, Note_on_c, 2, 78, 116
4, 22679, Note_on_c, 2, 78, 0
4, 22680, Note_on_c, 2, 75, 127
4, 22739, Note_on_c, 2, 75, 0
4, 22740, Note_on_c, 2, 78, 127
4, 22799, Note_on_c, 2, 78, 0
4, 22800, Note_on_c, 2, 76, 127
4, 22859, Note_on_c, 2, 76, 0
4, 22860, Note_on_c, 2, 78, 125
4, 22919, Note_on_c, 2, 78, 0
4, 22920, Note_on_c, 2, 74, 120
4, 22979, Note_on_c, 2, 74, 0
4, 22980, Note_on_c, 2, 76, 125
4, 23039, Note_on_c, 2, 76, 0
4, 23040, Note_on_c, 2, 73, 127
4, 23099, Note_on_c, 2, 73, 0
4, 23100, Note_on_c, 2, 76, 127
4, 23159, Note_on_c, 2, 76, 0
4, 23160, Note_on_c, 2, 74, 127
4, 23219, Note_on_c, 2, 74, 0
4, 23220, Note_on_c, 2, 76, 123
4, 23279, Note_on_c, 2, 76, 0
4, 23280, Note_on_c, 2, 72, 127
4, 23339, Note_on_c, 2, 72, 0
4, 23340, Note_on_c, 2, 74, 120
4, 23399, Note_on_c, 2, 74, 0
4, 23400, Note_on_c, 2, 71, 114
4, 23459, Note_on_c, 2, 71, 0
4, 23460, Note_on_c, 2, 84, 127
4, 23519, Note_on_c, 2, 84, 0
4, 23520, Note_on_c, 2, 83, 127
4, 23579, Note_on_c, 2, 83, 0
4, 23580, Note_on_c, 2, 81, 127
4, 23639, Note_on_c, 2, 81, 0
4, 23640, Note_on_c, 2, 79, 127
4, 23699, Note_on_c, 2, 79, 0
4, 23700, Note_on_c, 2, 75, 127
4, 23759, Note_on_c, 2, 75, 0
4, 23760, Note_on_c, 2, 76, 123
4, 23817, Note_on_c, 2, 84, 127
4, 23819, Note_on_c, 2, 76, 0
4, 23860, Note_on_c, 2, 84, 0
4, 23878, Note_on_c, 2, 76, 127
4, 23899, Note_on_c, 2, 75, 127
4, 23901, Note_on_c, 2, 76, 0
4, 23915, Note_on_c, 2, 75, 0
4, 23915, Note_on_c, 2, 76, 123
4, 23931, Note_on_c, 2, 75, 127
4, 23932, Note_on_c, 2, 76, 0
4, 23942, Note_on_c, 2, 76, 127
4, 23944, Note_on_c, 2, 75, 0
4, 23955, Note_on_c, 2, 75, 127
4, 23958, Note_on_c, 2, 76, 0
4, 24059, Note_on_c, 2, 76, 127
4, 24063, Note_on_c, 2, 75, 0
4, 24105, Note_on_c, 2, 76, 0
4, 24120, Note_on_c, 2, 76, 127
4, 24359, Note_on_c, 2, 76, 0
4, 24360, Note_on_c, 2, 78, 127
4, 24479, Note_on_c, 2, 78, 0
4, 25323, Note_on_c, 2, 78, 127
4, 25348, Note_on_c, 2, 76, 127
4, 25349, Note_on_c, 2, 78, 0
4, 25364, Note_on_c, 2, 76, 0
4, 25364, Note_on_c, 2, 78, 127
4, 25378, Note_on_c, 2, 76, 127
4, 25380, Note_on_c, 2, 78, 0
4, 25392, Note_on_c, 2, 76, 0
4, 25392, Note_on_c, 2, 78, 127
4, 25405, Note_on_c, 2, 76, 125
4, 25407, Note_on_c, 2, 78, 0
4, 25418, Note_on_c, 2, 76, 0
4, 25418, Note_on_c, 2, 78, 127
4, 25431, Note_on_c, 2, 78, 0
4, 25431, Note_on_c, 2, 76, 127
4, 25443, Note_on_c, 2, 76, 0
4, 25443, Note_on_c, 2, 78, 127
4, 25453, Note_on_c, 2, 76, 125
4, 25460, Note_on_c, 2, 78, 0
4, 25560, Note_on_c, 2, 75, 127
4, 25572, Note_on_c, 2, 76, 0
4, 25920, Note_on_c, 2, 75, 0
4, 25920, End_track
5, 0, Start_track
5, 0, MIDI_port, 0
5, 0, Title_t, "Vn sec 1"
5, 0, Program_c, 3, 49
5, 0, Control_c, 3, 7, 75
5, 0, Control_c, 3, 10, 0
5, 480, Note_on_c, 3, 83, 95
5, 540, Note_on_c, 3, 84, 100
5, 544, Note_on_c, 3, 83, 0
5, 600, Note_on_c, 3, 83, 105
5, 606, Note_on_c, 3, 84, 0
5, 660, Note_on_c, 3, 84, 98
5, 662, Note_on_c, 3, 83, 0
5, 720, Note_on_c, 3, 81, 91
5, 726, Note_on_c, 3, 84, 0
5, 779, Note_on_c, 3, 81, 0
5, 780, Note_on_c, 3, 79, 80
5, 840, Note_on_c, 3, 81, 102
5, 846, Note_on_c, 3, 79, 0
5, 900, Note_on_c, 3, 84, 91
5, 909, Note_on_c, 3, 81, 0
5, 960, Note_on_c, 3, 83, 107
5, 965, Note_on_c, 3, 84, 0
5, 1020, Note_on_c, 3, 81, 95
5, 1025, Note_on_c, 3, 83, 0
5, 1081, Note_on_c, 3, 81, 0
5, 1081, Note_on_c, 3, 79, 87
5, 1200, Note_on_c, 3, 79, 0
5, 1920, Note_on_c, 3, 79, 95
5, 1980, Note_on_c, 3, 81, 89
5, 1989, Note_on_c, 3, 79, 0
5, 2040, Note_on_c, 3, 79, 107
5, 2043, Note_on_c, 3, 81, 0
5, 2097, Note_on_c, 3, 79, 0
5, 2100, Note_on_c, 3, 81, 70
5, 2156, Note_on_c, 3, 81, 0
5, 2160, Note_on_c, 3, 78, 100
5, 2220, Note_on_c, 3, 76, 80
5, 2232, Note_on_c, 3, 78, 0
5, 2280, Note_on_c, 3, 78, 102
5, 2292, Note_on_c, 3, 76, 0
5, 2340, Note_on_c, 3, 79, 80
5, 2343, Note_on_c, 3, 78, 0
5, 2400, Note_on_c, 3, 76, 85
5, 2404, Note_on_c, 3, 79, 0
5, 2456, Note_on_c, 3, 76, 0
5, 2460, Note_on_c, 3, 78, 89
5, 2520, Note_on_c, 3, 75, 105
5, 2526, Note_on_c, 3, 78, 0
5, 2631, Note_on_c, 3, 75, 0
5, 3360, Note_on_c, 3, 78, 105
5, 3420, Note_on_c, 3, 79, 85
5, 3427, Note_on_c, 3, 78, 0
5, 3480, Note_on_c, 3, 81, 102
5, 3485, Note_on_c, 3, 79, 0
5, 3540, Note_on_c, 3, 78, 102
5, 3546, Note_on_c, 3, 81, 0
5, 3600, Note_on_c, 3, 79, 87
5, 3603, Note_on_c, 3, 78, 0
5, 3714, Note_on_c, 3, 79, 0
5, 4080, Note_on_c, 3, 80, 113
5, 4140, Note_on_c, 3, 81, 100
5, 4147, Note_on_c, 3, 80, 0
5, 4200, Note_on_c, 3, 78, 105
5, 4201, Note_on_c, 3, 81, 0
5, 4260, Note_on_c, 3, 80, 113
5, 4269, Note_on_c, 3, 78, 0
5, 4320, Note_on_c, 3, 81, 102
5, 4328, Note_on_c, 3, 80, 0
5, 4436, Note_on_c, 3, 81, 0
5, 4800, Note_on_c, 3, 81, 107
5, 5160, Note_on_c, 3, 80, 107
5, 5167, Note_on_c, 3, 81, 0
5, 5280, Note_on_c, 3, 79, 102
5, 5281, Note_on_c, 3, 80, 0
5, 5520, Note_on_c, 3, 78, 113
5, 5530, Note_on_c, 3, 79, 0
5, 5640, Note_on_c, 3, 77, 107
5, 5643, Note_on_c, 3, 78, 0
5, 5880, Note_on_c, 3, 75, 102
5, 5886, Note_on_c, 3, 77, 0
5, 5992, Note_on_c, 3, 75, 0
5, 6000, Note_on_c, 3, 76, 100
5, 6179, Note_on_c, 3, 78, 107
5, 6198, Note_on_c, 3, 76, 0
5, 6239, Note_on_c, 3, 78, 0
5, 6239, Note_on_c, 3, 79, 95
5, 6266, Note_on_c, 3, 78, 110
5, 6269, Note_on_c, 3, 79, 0
5, 6285, Note_on_c, 3, 79, 80
5, 6287, Note_on_c, 3, 78, 0
5, 6304, Note_on_c, 3, 78, 102
5, 6305, Note_on_c, 3, 79, 0
5, 6320, Note_on_c, 3, 78, 0
5, 6320, Note_on_c, 3, 79, 85
5, 6334, Note_on_c, 3, 78, 100
5, 6337, Note_on_c, 3, 79, 0
5, 6348, Note_on_c, 3, 78, 0
5, 6348, Note_on_c, 3, 79, 87
5, 6363, Note_on_c, 3, 78, 102
5, 6364, Note_on_c, 3, 79, 0
5, 6420, Note_on_c, 3, 78, 0
5, 6420, Note_on_c, 3, 76, 85
5, 6468, Note_on_c, 3, 76, 0
5, 6480, Note_on_c, 3, 76, 85
5, 6587, Note_on_c, 3, 76, 0
5, 6960, Note_on_c, 3, 81, 100
5, 7020, Note_on_c, 3, 83, 105
5, 7032, Note_on_c, 3, 81, 0
5, 7080, Note_on_c, 3, 84, 102
5, 7085, Note_on_c, 3, 83, 0
5, 7140, Note_on_c, 3, 81, 100
5, 7143, Note_on_c, 3, 84, 0
5, 7200, Note_on_c, 3, 83, 105
5, 7208, Note_on_c, 3, 81, 0
5, 7315, Note_on_c, 3, 83, 0
5, 7680, Note_on_c, 3, 83, 105
5, 7740, Note_on_c, 3, 84, 107
5, 7761, Note_on_c, 3, 83, 0
5, 7800, Note_on_c, 3, 86, 102
5, 7808, Note_on_c, 3, 84, 0
5, 7860, Note_on_c, 3, 83, 102
5, 7863, Note_on_c, 3, 86, 0
5, 7917, Note_on_c, 3, 83, 0
5, 7920, Note_on_c, 3, 84, 100
5, 7980, Note_on_c, 3, 83, 105
5, 7986, Note_on_c, 3, 84, 0
5, 8040, Note_on_c, 3, 86, 93
5, 8044, Note_on_c, 3, 83, 0
5, 8100, Note_on_c, 3, 84, 102
5, 8105, Note_on_c, 3, 86, 0
5, 8160, Note_on_c, 3, 83, 105
5, 8172, Note_on_c, 3, 84, 0
5, 8215, Note_on_c, 3, 83, 0
5, 8220, Note_on_c, 3, 81, 80
5, 8280, Note_on_c, 3, 80, 86
5, 8290, Note_on_c, 3, 81, 0
5, 8378, Note_on_c, 3, 80, 0
5, 8760, Note_on_c, 3, 81, 105
5, 9051, Note_on_c, 3, 81, 0
5, 9060, Note_on_c, 3, 79, 111
5, 9120, Note_on_c, 3, 77, 105
5, 9125, Note_on_c, 3, 79, 0
5, 9180, Note_on_c, 3, 77, 0
5, 9180, Note_on_c, 3, 76, 100
5, 9238, Note_on_c, 3, 76, 0
5, 9240, Note_on_c, 3, 74, 76
5, 9300, Note_on_c, 3, 72, 102
5, 9306, Note_on_c, 3, 74, 0
5, 9359, Note_on_c, 3, 72, 0
5, 9360, Note_on_c, 3, 71, 87
5, 9480, Note_on_c, 3, 80, 105
5, 9496, Note_on_c, 3, 71, 0
5, 9600, Note_on_c, 3, 81, 102
5, 9601, Note_on_c, 3, 80, 0
5, 9778, Note_on_c, 3, 81, 0
5, 9780, Note_on_c, 3, 83, 85
5, 9838, Note_on_c, 3, 84, 102
5, 9843, Note_on_c, 3, 83, 0
5, 9937, Note_on_c, 3, 84, 0
5, 9948, Note_on_c, 3, 84, 95
5, 9963, Note_on_c, 3, 84, 0
5, 9963, Note_on_c, 3, 83, 82
5, 9973, Note_on_c, 3, 84, 74
5, 9976, Note_on_c, 3, 83, 0
5, 9984, Note_on_c, 3, 83, 85
5, 9989, Note_on_c, 3, 84, 0
5, 10032, Note_on_c, 3, 81, 98
5, 10035, Note_on_c, 3, 83, 0
5, 10074, Note_on_c, 3, 81, 0
5, 10080, Note_on_c, 3, 81, 110
5, 10199, Note_on_c, 3, 81, 0
5, 10200, Note_on_c, 3, 84, 119
5, 10568, Note_on_c, 3, 84, 0
5, 10920, Note_on_c, 3, 83, 83
5, 11280, Note_on_c, 3, 83, 0
5, 12000, Note_on_c, 3, 78, 116
5, 12060, Note_on_c, 3, 79, 85
5, 12066, Note_on_c, 3, 78, 0
5, 12120, Note_on_c, 3, 76, 85
5, 12123, Note_on_c, 3, 79, 0
5, 12180, Note_on_c, 3, 76, 0
5, 12180, Note_on_c, 3, 78, 80
5, 12244, Note_on_c, 3, 75, 107
5, 12245, Note_on_c, 3, 78, 0
5, 12335, Note_on_c, 3, 75, 0
5, 12363, Note_on_c, 3, 76, 107
5, 12384, Note_on_c, 3, 76, 0
5, 12385, Note_on_c, 3, 75, 113
5, 12398, Note_on_c, 3, 75, 0
5, 12398, Note_on_c, 3, 76, 85
5, 12412, Note_on_c, 3, 76, 0
5, 12412, Note_on_c, 3, 75, 100
5, 12427, Note_on_c, 3, 75, 0
5, 12427, Note_on_c, 3, 76, 89
5, 12438, Note_on_c, 3, 75, 95
5, 12440, Note_on_c, 3, 76, 0
5, 12451, Note_on_c, 3, 75, 0
5, 12451, Note_on_c, 3, 76, 98
5, 12463, Note_on_c, 3, 75, 102
5, 12466, Note_on_c, 3, 76, 0
5, 12594, Note_on_c, 3, 75, 0
5, 12594, Note_on_c, 3, 76, 105
5, 12660, Note_on_c, 3, 78, 113
5, 12666, Note_on_c, 3, 76, 0
5, 12718, Note_on_c, 3, 79, 93
5, 12725, Note_on_c, 3, 78, 0
5, 12970, Note_on_c, 3, 79, 0
5, 13020, Note_on_c, 3, 79, 93
5, 13080, Note_on_c, 3, 78, 113
5, 13087, Note_on_c, 3, 79, 0
5, 13140, Note_on_c, 3, 79, 87
5, 13153, Note_on_c, 3, 78, 0
5, 13199, Note_on_c, 3, 79, 0
5, 13200, Note_on_c, 3, 76, 87
5, 13260, Note_on_c, 3, 76, 0
5, 13260, Note_on_c, 3, 78, 89
5, 13320, Note_on_c, 3, 78, 0
5, 13320, Note_on_c, 3, 74, 98
5, 13380, Note_on_c, 3, 76, 100
5, 13385, Note_on_c, 3, 74, 0
5, 13440, Note_on_c, 3, 78, 98
5, 13448, Note_on_c, 3, 76, 0
5, 13720, Note_on_c, 3, 78, 0
5, 13740, Note_on_c, 3, 82, 98
5, 13799, Note_on_c, 3, 82, 0
5, 13800, Note_on_c, 3, 83, 102
5, 13859, Note_on_c, 3, 83, 0
5, 13860, Note_on_c, 3, 86, 100
5, 13920, Note_on_c, 3, 85, 105
5, 13923, Note_on_c, 3, 86, 0
5, 13980, Note_on_c, 3, 83, 98
5, 13986, Note_on_c, 3, 85, 0
5, 14040, Note_on_c, 3, 82, 105
5, 14047, Note_on_c, 3, 83, 0
5, 14160, Note_on_c, 3, 83, 82
5, 14166, Note_on_c, 3, 82, 0
5, 14286, Note_on_c, 3, 83, 0
5, 14400, Note_on_c, 3, 83, 80
5, 14520, Note_on_c, 3, 85, 93
5, 14531, Note_on_c, 3, 83, 0
5, 14656, Note_on_c, 3, 85, 0
5, 14760, Note_on_c, 3, 82, 87
5, 14880, Note_on_c, 3, 83, 70
5, 14882, Note_on_c, 3, 82, 0
5, 15024, Note_on_c, 3, 83, 0
5, 15120, Note_on_c, 3, 80, 72
5, 15239, Note_on_c, 3, 80, 0
5, 15240, Note_on_c, 3, 81, 87
5, 15358, Note_on_c, 3, 81, 0
5, 15480, Note_on_c, 3, 78, 100
5, 15540, Note_on_c, 3, 76, 98
5, 15542, Note_on_c, 3, 78, 0
5, 15598, Note_on_c, 3, 76, 0
5, 15600, Note_on_c, 3, 74, 82
5, 15660, Note_on_c, 3, 73, 102
5, 15671, Note_on_c, 3, 74, 0
5, 15714, Note_on_c, 3, 73, 0
5, 15720, Note_on_c, 3, 71, 85
5, 15780, Note_on_c, 3, 74, 100
5, 15791, Note_on_c, 3, 71, 0
5, 15840, Note_on_c, 3, 76, 102
5, 15847, Note_on_c, 3, 74, 0
5, 15900, Note_on_c, 3, 79, 87
5, 15903, Note_on_c, 3, 76, 0
5, 15960, Note_on_c, 3, 73, 102
5, 15961, Note_on_c, 3, 79, 0
5, 16140, Note_on_c, 3, 71, 85
5, 16149, Note_on_c, 3, 73, 0
5, 16190, Note_on_c, 3, 71, 0
5, 16200, Note_on_c, 3, 71, 93
5, 16309, Note_on_c, 3, 71, 0
5, 16680, Note_on_c, 3, 76, 105
5, 16740, Note_on_c, 3, 78, 105
5, 16750, Note_on_c, 3, 76, 0
5, 16800, Note_on_c, 3, 79, 98
5, 16802, Note_on_c, 3, 78, 0
5, 16860, Note_on_c, 3, 76, 105
5, 16861, Note_on_c, 3, 79, 0
5, 16920, Note_on_c, 3, 78, 110
5, 16928, Note_on_c, 3, 76, 0
5, 17015, Note_on_c, 3, 78, 0
5, 17400, Note_on_c, 3, 78, 102
5, 17460, Note_on_c, 3, 79, 105
5, 17464, Note_on_c, 3, 78, 0
5, 17520, Note_on_c, 3, 81, 110
5, 17521, Note_on_c, 3, 79, 0
5, 17580, Note_on_c, 3, 78, 107
5, 17583, Note_on_c, 3, 81, 0
5, 17640, Note_on_c, 3, 79, 105
5, 17644, Note_on_c, 3, 78, 0
5, 17700, Note_on_c, 3, 78, 107
5, 17702, Note_on_c, 3, 79, 0
5, 17760, Note_on_c, 3, 81, 100
5, 17762, Note_on_c, 3, 78, 0
5, 17820, Note_on_c, 3, 79, 93
5, 17826, Note_on_c, 3, 81, 0
5, 17880, Note_on_c, 3, 78, 105
5, 17889, Note_on_c, 3, 79, 0
5, 17940, Note_on_c, 3, 76, 85
5, 17946, Note_on_c, 3, 78, 0
5, 18000, Note_on_c, 3, 75, 95
5, 18004, Note_on_c, 3, 76, 0
5, 18093, Note_on_c, 3, 75, 0
5, 18480, Note_on_c, 3, 76, 91
5, 18767, Note_on_c, 3, 76, 0
5, 18780, Note_on_c, 3, 74, 98
5, 18840, Note_on_c, 3, 72, 102
5, 18846, Note_on_c, 3, 74, 0
5, 18900, Note_on_c, 3, 71, 89
5, 18909, Note_on_c, 3, 72, 0
5, 18960, Note_on_c, 3, 69, 70
5, 18965, Note_on_c, 3, 71, 0
5, 19014, Note_on_c, 3, 69, 0
5, 19020, Note_on_c, 3, 67, 63
5, 19080, Note_on_c, 3, 66, 100
5, 19092, Note_on_c, 3, 67, 0
5, 19200, Note_on_c, 3, 75, 100
5, 19201, Note_on_c, 3, 66, 0
5, 19320, Note_on_c, 3, 76, 87
5, 19321, Note_on_c, 3, 75, 0
5, 19503, Note_on_c, 3, 78, 107
5, 19511, Note_on_c, 3, 76, 0
5, 19560, Note_on_c, 3, 79, 100
5, 19565, Note_on_c, 3, 78, 0
5, 19660, Note_on_c, 3, 79, 0
5, 19673, Note_on_c, 3, 79, 89
5, 19689, Note_on_c, 3, 79, 0
5, 19689, Note_on_c, 3, 78, 110
5, 19702, Note_on_c, 3, 78, 0
5, 19702, Note_on_c, 3, 79, 68
5, 19713, Note_on_c, 3, 78, 100
5, 19715, Note_on_c, 3, 79, 0
5, 19743, Note_on_c, 3, 76, 89
5, 19746, Note_on_c, 3, 78, 0
5, 19784, Note_on_c, 3, 76, 0
5, 19791, Note_on_c, 3, 76, 87
5, 19920, Note_on_c, 3, 79, 78
5, 19923, Note_on_c, 3, 76, 0
5, 20040, Note_on_c, 3, 79, 0
5, 20160, Note_on_c, 3, 83, 85
5, 20280, Note_on_c, 3, 80, 102
5, 20286, Note_on_c, 3, 83, 0
5, 20405, Note_on_c, 3, 80, 0
5, 20520, Note_on_c, 3, 81, 87
5, 20640, Note_on_c, 3, 81, 0
5, 20640, Note_on_c, 3, 84, 91
5, 20752, Note_on_c, 3, 84, 0
5, 20880, Note_on_c, 3, 86, 89
5, 21000, Note_on_c, 3, 80, 80
5, 21014, Note_on_c, 3, 86, 0
5, 21106, Note_on_c, 3, 80, 0
5, 21240, Note_on_c, 3, 81, 89
5, 21300, Note_on_c, 3, 79, 102
5, 21302, Note_on_c, 3, 81, 0
5, 21360, Note_on_c, 3, 81, 95
5, 21363, Note_on_c, 3, 79, 0
5, 21446, Note_on_c, 3, 81, 0
5, 21600, Note_on_c, 3, 81, 89
5, 21659, Note_on_c, 3, 81, 0
5, 21660, Note_on_c, 3, 83, 95
5, 21720, Note_on_c, 3, 83, 0
5, 21720, Note_on_c, 3, 84, 91
5, 21809, Note_on_c, 3, 84, 0
5, 21960, Note_on_c, 3, 75, 105
5, 22075, Note_on_c, 3, 75, 0
5, 23700, Note_on_c, 3, 84, 102
5, 23760, Note_on_c, 3, 83, 102
5, 23766, Note_on_c, 3, 84, 0
5, 23820, Note_on_c, 3, 81, 105
5, 23834, Note_on_c, 3, 83, 0
5, 23878, Note_on_c, 3, 79, 105
5, 23879, Note_on_c, 3, 81, 0
5, 23958, Note_on_c, 3, 79, 0
5, 23970, Note_on_c, 3, 79, 72
5, 23986, Note_on_c, 3, 78, 113
5, 23988, Note_on_c, 3, 79, 0
5, 23997, Note_on_c, 3, 79, 72
5, 24000, Note_on_c, 3, 78, 0
5, 24010, Note_on_c, 3, 78, 100
5, 24014, Note_on_c, 3, 79, 0
5, 24053, Note_on_c, 3, 76, 95
5, 24059, Note_on_c, 3, 78, 0
5, 24101, Note_on_c, 3, 76, 0
5, 24117, Note_on_c, 3, 76, 102
5, 24360, Note_on_c, 3, 83, 82
5, 24377, Note_on_c, 3, 76, 0
5, 24482, Note_on_c, 3, 83, 0
5, 25320, Note_on_c, 3, 81, 100
5, 25560, Note_on_c, 3, 83, 110
5, 25567, Note_on_c, 3, 81, 0
5, 25920, Note_on_c, 3, 83, 0
5, 25920, End_track
6, 0, Start_track
6, 0, MIDI_port, 0
6, 0, Title_t, "Vn sec 2"
6, 0, Program_c, 4, 49
6, 0, Control_c, 4, 7, 75
6, 0, Control_c, 4, 10, 127
6, 480, Note_on_c, 4, 79, 100
6, 540, Note_on_c, 4, 81, 100
6, 551, Note_on_c, 4, 79, 0
6, 600, Note_on_c, 4, 79, 107
6, 601, Note_on_c, 4, 81, 0
6, 660, Note_on_c, 4, 81, 98
6, 662, Note_on_c, 4, 79, 0
6, 720, Note_on_c, 4, 78, 107
6, 724, Note_on_c, 4, 81, 0
6, 779, Note_on_c, 4, 78, 0
6, 780, Note_on_c, 4, 76, 85
6, 840, Note_on_c, 4, 78, 105
6, 849, Note_on_c, 4, 76, 0
6, 900, Note_on_c, 4, 81, 89
6, 906, Note_on_c, 4, 78, 0
6, 960, Note_on_c, 4, 81, 0
6, 960, Note_on_c, 4, 79, 100
6, 1020, Note_on_c, 4, 78, 110
6, 1029, Note_on_c, 4, 79, 0
6, 1080, Note_on_c, 4, 76, 95
6, 1090, Note_on_c, 4, 78, 0
6, 1202, Note_on_c, 4, 76, 0
6, 1920, Note_on_c, 4, 71, 100
6, 1979, Note_on_c, 4, 71, 0
6, 1980, Note_on_c, 4, 72, 91
6, 2037, Note_on_c, 4, 72, 0
6, 2040, Note_on_c, 4, 71, 105
6, 2100, Note_on_c, 4, 72, 98
6, 2103, Note_on_c, 4, 71, 0
6, 2160, Note_on_c, 4, 69, 102
6, 2166, Note_on_c, 4, 72, 0
6, 2217, Note_on_c, 4, 69, 0
6, 2220, Note_on_c, 4, 67, 89
6, 2280, Note_on_c, 4, 69, 102
6, 2289, Note_on_c, 4, 67, 0
6, 2340, Note_on_c, 4, 71, 98
6, 2345, Note_on_c, 4, 69, 0
6, 2400, Note_on_c, 4, 67, 102
6, 2402, Note_on_c, 4, 71, 0
6, 2460, Note_on_c, 4, 69, 102
6, 2465, Note_on_c, 4, 67, 0
6, 2520, Note_on_c, 4, 71, 98
6, 2524, Note_on_c, 4, 69, 0
6, 2626, Note_on_c, 4, 71, 0
6, 3360, Note_on_c, 4, 75, 105
6, 3420, Note_on_c, 4, 76, 105
6, 3430, Note_on_c, 4, 75, 0
6, 3480, Note_on_c, 4, 78, 107
6, 3483, Note_on_c, 4, 76, 0
6, 3537, Note_on_c, 4, 78, 0
6, 3540, Note_on_c, 4, 75, 113
6, 3600, Note_on_c, 4, 76, 105
6, 3605, Note_on_c, 4, 75, 0
6, 3704, Note_on_c, 4, 76, 0
6, 4080, Note_on_c, 4, 71, 89
6, 4140, Note_on_c, 4, 72, 107
6, 4146, Note_on_c, 4, 71, 0
6, 4197, Note_on_c, 4, 72, 0
6, 4200, Note_on_c, 4, 69, 110
6, 4260, Note_on_c, 4, 71, 105
6, 4264, Note_on_c, 4, 69, 0
6, 4320, Note_on_c, 4, 72, 105
6, 4326, Note_on_c, 4, 71, 0
6, 4437, Note_on_c, 4, 72, 0
6, 4800, Note_on_c, 4, 78, 102
6, 4860, Note_on_c, 4, 79, 100
6, 4867, Note_on_c, 4, 78, 0
6, 4920, Note_on_c, 4, 76, 105
6, 4921, Note_on_c, 4, 79, 0
6, 4980, Note_on_c, 4, 78, 110
6, 4984, Note_on_c, 4, 76, 0
6, 5040, Note_on_c, 4, 75, 105
6, 5041, Note_on_c, 4, 78, 0
6, 5100, Note_on_c, 4, 75, 0
6, 5100, Note_on_c, 4, 78, 102
6, 5143, Note_on_c, 4, 78, 0
6, 5160, Note_on_c, 4, 76, 100
6, 5220, Note_on_c, 4, 78, 102
6, 5229, Note_on_c, 4, 76, 0
6, 5280, Note_on_c, 4, 74, 93
6, 5285, Note_on_c, 4, 78, 0
6, 5340, Note_on_c, 4, 74, 0
6, 5340, Note_on_c, 4, 76, 87
6, 5399, Note_on_c, 4, 76, 0
6, 5400, Note_on_c, 4, 73, 85
6, 5460, Note_on_c, 4, 76, 91
6, 5472, Note_on_c, 4, 73, 0
6, 5499, Note_on_c, 4, 76, 0
6, 5520, Note_on_c, 4, 74, 100
6, 5580, Note_on_c, 4, 76, 85
6, 5584, Note_on_c, 4, 74, 0
6, 5640, Note_on_c, 4, 72, 95
6, 5642, Note_on_c, 4, 76, 0
6, 5700, Note_on_c, 4, 74, 87
6, 5702, Note_on_c, 4, 72, 0
6, 5760, Note_on_c, 4, 71, 70
6, 5760, Note_on_c, 4, 72, 85
6, 5762, Note_on_c, 4, 74, 0
6, 5781, Note_on_c, 4, 72, 0
6, 5820, Note_on_c, 4, 72, 102
6, 5828, Note_on_c, 4, 71, 0
6, 5880, Note_on_c, 4, 71, 102
6, 5887, Note_on_c, 4, 72, 0
6, 5940, Note_on_c, 4, 69, 95
6, 5952, Note_on_c, 4, 71, 0
6, 5998, Note_on_c, 4, 69, 0
6, 6000, Note_on_c, 4, 67, 85
6, 6060, Note_on_c, 4, 71, 100
6, 6069, Note_on_c, 4, 67, 0
6, 6121, Note_on_c, 4, 71, 0
6, 6122, Note_on_c, 4, 76, 102
6, 6177, Note_on_c, 4, 75, 107
6, 6180, Note_on_c, 4, 76, 0
6, 6230, Note_on_c, 4, 75, 0
6, 6238, Note_on_c, 4, 76, 87
6, 6256, Note_on_c, 4, 75, 107
6, 6259, Note_on_c, 4, 76, 0
6, 6272, Note_on_c, 4, 76, 85
6, 6275, Note_on_c, 4, 75, 0
6, 6291, Note_on_c, 4, 75, 107
6, 6294, Note_on_c, 4, 76, 0
6, 6304, Note_on_c, 4, 76, 68
6, 6307, Note_on_c, 4, 75, 0
6, 6320, Note_on_c, 4, 75, 102
6, 6324, Note_on_c, 4, 76, 0
6, 6420, Note_on_c, 4, 76, 102
6, 6428, Note_on_c, 4, 75, 0
6, 6480, Note_on_c, 4, 76, 0
6, 6480, Note_on_c, 4, 76, 102
6, 6581, Note_on_c, 4, 76, 0
6, 6960, Note_on_c, 4, 78, 87
6, 7019, Note_on_c, 4, 78, 0
6, 7020, Note_on_c, 4, 79, 100
6, 7080, Note_on_c, 4, 81, 107
6, 7081, Note_on_c, 4, 79, 0
6, 7140, Note_on_c, 4, 78, 110
6, 7142, Note_on_c, 4, 81, 0
6, 7200, Note_on_c, 4, 79, 102
6, 7209, Note_on_c, 4, 78, 0
6, 7297, Note_on_c, 4, 79, 0
6, 7680, Note_on_c, 4, 80, 113
6, 7740, Note_on_c, 4, 81, 95
6, 7742, Note_on_c, 4, 80, 0
6, 7798, Note_on_c, 4, 81, 0
6, 7800, Note_on_c, 4, 83, 100
6, 7860, Note_on_c, 4, 80, 110
6, 7863, Note_on_c, 4, 83, 0
6, 7919, Note_on_c, 4, 80, 0
6, 7920, Note_on_c, 4, 81, 98
6, 7980, Note_on_c, 4, 79, 102
6, 7990, Note_on_c, 4, 81, 0
6, 8040, Note_on_c, 4, 77, 107
6, 8047, Note_on_c, 4, 79, 0
6, 8100, Note_on_c, 4, 76, 105
6, 8105, Note_on_c, 4, 77, 0
6, 8158, Note_on_c, 4, 76, 0
6, 8160, Note_on_c, 4, 72, 93
6, 8220, Note_on_c, 4, 74, 102
6, 8225, Note_on_c, 4, 72, 0
6, 8280, Note_on_c, 4, 76, 95
6, 8284, Note_on_c, 4, 74, 0
6, 8383, Note_on_c, 4, 76, 0
6, 8760, Note_on_c, 4, 76, 100
6, 8820, Note_on_c, 4, 74, 105
6, 8824, Note_on_c, 4, 76, 0
6, 8880, Note_on_c, 4, 73, 100
6, 8881, Note_on_c, 4, 74, 0
6, 8940, Note_on_c, 4, 76, 95
6, 8943, Note_on_c, 4, 73, 0
6, 8999, Note_on_c, 4, 76, 0
6, 9000, Note_on_c, 4, 74, 87
6, 9060, Note_on_c, 4, 76, 102
6, 9067, Note_on_c, 4, 74, 0
6, 9120, Note_on_c, 4, 77, 102
6, 9129, Note_on_c, 4, 76, 0
6, 9180, Note_on_c, 4, 79, 87
6, 9184, Note_on_c, 4, 77, 0
6, 9240, Note_on_c, 4, 77, 100
6, 9245, Note_on_c, 4, 79, 0
6, 9360, Note_on_c, 4, 76, 105
6, 9368, Note_on_c, 4, 77, 0
6, 9511, Note_on_c, 4, 76, 0
6, 9540, Note_on_c, 4, 77, 110
6, 9600, Note_on_c, 4, 76, 102
6, 9607, Note_on_c, 4, 77, 0
6, 9660, Note_on_c, 4, 74, 91
6, 9671, Note_on_c, 4, 76, 0
6, 9720, Note_on_c, 4, 72, 82
6, 9721, Note_on_c, 4, 74, 0
6, 9780, Note_on_c, 4, 72, 0
6, 9780, Note_on_c, 4, 77, 100
6, 9840, Note_on_c, 4, 76, 102
6, 9843, Note_on_c, 4, 77, 0
6, 9960, Note_on_c, 4, 74, 107
6, 9967, Note_on_c, 4, 76, 0
6, 10080, Note_on_c, 4, 72, 105
6, 10094, Note_on_c, 4, 74, 0
6, 10182, Note_on_c, 4, 72, 0
6, 10200, Note_on_c, 4, 81, 100
6, 10260, Note_on_c, 4, 83, 102
6, 10262, Note_on_c, 4, 81, 0
6, 10320, Note_on_c, 4, 79, 113
6, 10322, Note_on_c, 4, 83, 0
6, 10380, Note_on_c, 4, 81, 102
6, 10382, Note_on_c, 4, 79, 0
6, 10440, Note_on_c, 4, 78, 107
6, 10446, Note_on_c, 4, 81, 0
6, 10560, Note_on_c, 4, 78, 0
6, 10920, Note_on_c, 4, 79, 102
6, 10980, Note_on_c, 4, 81, 100
6, 10985, Note_on_c, 4, 79, 0
6, 11040, Note_on_c, 4, 78, 110
6, 11050, Note_on_c, 4, 81, 0
6, 11096, Note_on_c, 4, 78, 0
6, 11100, Note_on_c, 4, 79, 87
6, 11160, Note_on_c, 4, 76, 102
6, 11163, Note_on_c, 4, 79, 0
6, 11272, Note_on_c, 4, 76, 0
6, 12000, Note_on_c, 4, 75, 105
6, 12120, Note_on_c, 4, 76, 102
6, 12127, Note_on_c, 4, 75, 0
6, 12238, Note_on_c, 4, 76, 0
6, 12240, Note_on_c, 4, 78, 107
6, 12360, Note_on_c, 4, 75, 102
6, 12373, Note_on_c, 4, 78, 0
6, 12475, Note_on_c, 4, 75, 0
6, 12480, Note_on_c, 4, 71, 91
6, 12594, Note_on_c, 4, 71, 0
6, 12600, Note_on_c, 4, 71, 93
6, 12658, Note_on_c, 4, 71, 0
6, 12660, Note_on_c, 4, 74, 102
6, 12720, Note_on_c, 4, 73, 113
6, 12725, Note_on_c, 4, 74, 0
6, 12777, Note_on_c, 4, 73, 0
6, 12780, Note_on_c, 4, 74, 91
6, 12840, Note_on_c, 4, 71, 98
6, 12844, Note_on_c, 4, 74, 0
6, 12900, Note_on_c, 4, 73, 107
6, 12903, Note_on_c, 4, 71, 0
6, 12950, Note_on_c, 4, 73, 0
6, 12960, Note_on_c, 4, 70, 110
6, 13052, Note_on_c, 4, 70, 0
6, 13083, Note_on_c, 4, 71, 107
6, 13105, Note_on_c, 4, 71, 0
6, 13105, Note_on_c, 4, 70, 113
6, 13118, Note_on_c, 4, 71, 80
6, 13119, Note_on_c, 4, 70, 0
6, 13132, Note_on_c, 4, 70, 98
6, 13134, Note_on_c, 4, 71, 0
6, 13147, Note_on_c, 4, 70, 0
6, 13147, Note_on_c, 4, 71, 91
6, 13161, Note_on_c, 4, 70, 105
6, 13164, Note_on_c, 4, 71, 0
6, 13320, Note_on_c, 4, 71, 87
6, 13322, Note_on_c, 4, 70, 0
6, 13379, Note_on_c, 4, 71, 0
6, 13380, Note_on_c, 4, 73, 107
6, 13439, Note_on_c, 4, 73, 0
6, 13440, Note_on_c, 4, 74, 98
6, 13499, Note_on_c, 4, 74, 0
6, 13500, Note_on_c, 4, 76, 100
6, 13559, Note_on_c, 4, 76, 0
6, 13560, Note_on_c, 4, 73, 113
6, 13619, Note_on_c, 4, 73, 0
6, 13620, Note_on_c, 4, 74, 100
6, 13679, Note_on_c, 4, 74, 0
6, 13680, Note_on_c, 4, 71, 76
6, 13749, Note_on_c, 4, 73, 98
6, 13754, Note_on_c, 4, 71, 0
6, 13803, Note_on_c, 4, 74, 85
6, 13808, Note_on_c, 4, 73, 0
6, 13919, Note_on_c, 4, 78, 110
6, 13920, Note_on_c, 4, 74, 0
6, 13939, Note_on_c, 4, 76, 100
6, 13940, Note_on_c, 4, 78, 0
6, 13953, Note_on_c, 4, 78, 93
6, 13955, Note_on_c, 4, 76, 0
6, 13968, Note_on_c, 4, 78, 0
6, 13968, Note_on_c, 4, 76, 98
6, 13978, Note_on_c, 4, 78, 87
6, 13980, Note_on_c, 4, 76, 0
6, 13989, Note_on_c, 4, 76, 80
6, 13993, Note_on_c, 4, 78, 0
6, 14040, Note_on_c, 4, 78, 113
6, 14047, Note_on_c, 4, 76, 0
6, 14159, Note_on_c, 4, 78, 0
6, 14160, Note_on_c, 4, 78, 105
6, 14279, Note_on_c, 4, 78, 0
6, 14400, Note_on_c, 4, 80, 89
6, 14519, Note_on_c, 4, 80, 0
6, 14520, Note_on_c, 4, 80, 82
6, 14639, Note_on_c, 4, 80, 0
6, 14760, Note_on_c, 4, 78, 87
6, 14879, Note_on_c, 4, 78, 0
6, 14880, Note_on_c, 4, 78, 98
6, 14999, Note_on_c, 4, 78, 0
6, 15120, Note_on_c, 4, 76, 100
6, 15239, Note_on_c, 4, 76, 0
6, 15240, Note_on_c, 4, 76, 98
6, 15359, Note_on_c, 4, 76, 0
6, 15480, Note_on_c, 4, 74, 100
6, 15659, Note_on_c, 4, 74, 0
6, 15660, Note_on_c, 4, 70, 102
6, 15719, Note_on_c, 4, 70, 0
6, 15720, Note_on_c, 4, 71, 89
6, 15779, Note_on_c, 4, 71, 0
6, 15780, Note_on_c, 4, 69, 100
6, 15839, Note_on_c, 4, 69, 0
6, 15840, Note_on_c, 4, 67, 82
6, 15899, Note_on_c, 4, 67, 0
6, 15900, Note_on_c, 4, 79, 89
6, 15959, Note_on_c, 4, 79, 0
6, 15960, Note_on_c, 4, 78, 100
6, 16019, Note_on_c, 4, 78, 0
6, 16020, Note_on_c, 4, 79, 95
6, 16079, Note_on_c, 4, 79, 0
6, 16080, Note_on_c, 4, 76, 102
6, 16139, Note_on_c, 4, 76, 0
6, 16140, Note_on_c, 4, 78, 107
6, 16199, Note_on_c, 4, 78, 0
6, 16200, Note_on_c, 4, 74, 89
6, 16319, Note_on_c, 4, 74, 0
6, 16680, Note_on_c, 4, 73, 102
6, 16739, Note_on_c, 4, 73, 0
6, 16740, Note_on_c, 4, 74, 102
6, 16799, Note_on_c, 4, 74, 0
6, 16800, Note_on_c, 4, 76, 105
6, 16859, Note_on_c, 4, 76, 0
6, 16860, Note_on_c, 4, 73, 107
6, 16919, Note_on_c, 4, 73, 0
6, 16920, Note_on_c, 4, 74, 95
6, 17039, Note_on_c, 4, 74, 0
6, 17400, Note_on_c, 4, 75, 107
6, 17459, Note_on_c, 4, 75, 0
6, 17460, Note_on_c, 4, 76, 105
6, 17519, Note_on_c, 4, 76, 0
6, 17520, Note_on_c, 4, 78, 110
6, 17579, Note_on_c, 4, 78, 0
6, 17580, Note_on_c, 4, 75, 105
6, 17639, Note_on_c, 4, 75, 0
6, 17640, Note_on_c, 4, 76, 95
6, 17699, Note_on_c, 4, 76, 0
6, 17700, Note_on_c, 4, 74, 98
6, 17759, Note_on_c, 4, 74, 0
6, 17760, Note_on_c, 4, 72, 107
6, 17819, Note_on_c, 4, 72, 0
6, 17820, Note_on_c, 4, 71, 100
6, 17879, Note_on_c, 4, 71, 0
6, 17880, Note_on_c, 4, 67, 89
6, 17939, Note_on_c, 4, 67, 0
6, 17940, Note_on_c, 4, 69, 105
6, 17999, Note_on_c, 4, 69, 0
6, 18000, Note_on_c, 4, 71, 110
6, 18119, Note_on_c, 4, 71, 0
6, 18480, Note_on_c, 4, 71, 100
6, 18539, Note_on_c, 4, 71, 0
6, 18540, Note_on_c, 4, 69, 102
6, 18599, Note_on_c, 4, 69, 0
6, 18600, Note_on_c, 4, 68, 91
6, 18659, Note_on_c, 4, 68, 0
6, 18660, Note_on_c, 4, 71, 91
6, 18719, Note_on_c, 4, 71, 0
6, 18720, Note_on_c, 4, 69, 91
6, 18779, Note_on_c, 4, 69, 0
6, 18780, Note_on_c, 4, 71, 105
6, 18839, Note_on_c, 4, 71, 0
6, 18840, Note_on_c, 4, 72, 110
6, 18899, Note_on_c, 4, 72, 0
6, 18900, Note_on_c, 4, 74, 100
6, 18959, Note_on_c, 4, 74, 0
6, 18960, Note_on_c, 4, 72, 116
6, 19079, Note_on_c, 4, 72, 0
6, 19080, Note_on_c, 4, 71, 110
6, 19259, Note_on_c, 4, 71, 0
6, 19260, Note_on_c, 4, 72, 105
6, 19319, Note_on_c, 4, 72, 0
6, 19320, Note_on_c, 4, 71, 110
6, 19379, Note_on_c, 4, 71, 0
6, 19380, Note_on_c, 4, 69, 102
6, 19439, Note_on_c, 4, 69, 0
6, 19440, Note_on_c, 4, 67, 85
6, 19499, Note_on_c, 4, 67, 0
6, 19500, Note_on_c, 4, 72, 105
6, 19559, Note_on_c, 4, 72, 0
6, 19560, Note_on_c, 4, 71, 113
6, 19679, Note_on_c, 4, 71, 0
6, 19680, Note_on_c, 4, 69, 110
6, 19799, Note_on_c, 4, 69, 0
6, 19800, Note_on_c, 4, 67, 107
6, 19919, Note_on_c, 4, 67, 0
6, 19920, Note_on_c, 4, 71, 113
6, 20039, Note_on_c, 4, 71, 0
6, 20160, Note_on_c, 4, 71, 76
6, 20279, Note_on_c, 4, 71, 0
6, 20280, Note_on_c, 4, 76, 100
6, 20399, Note_on_c, 4, 76, 0
6, 20520, Note_on_c, 4, 76, 93
6, 20639, Note_on_c, 4, 76, 0
6, 20640, Note_on_c, 4, 81, 100
6, 20759, Note_on_c, 4, 81, 0
6, 20880, Note_on_c, 4, 80, 102
6, 20999, Note_on_c, 4, 80, 0
6, 21000, Note_on_c, 4, 71, 107
6, 21119, Note_on_c, 4, 71, 0
6, 21240, Note_on_c, 4, 72, 100
6, 21359, Note_on_c, 4, 72, 0
6, 21360, Note_on_c, 4, 77, 100
6, 21419, Note_on_c, 4, 77, 0
6, 21600, Note_on_c, 4, 77, 95
6, 21659, Note_on_c, 4, 77, 0
6, 21660, Note_on_c, 4, 79, 100
6, 21719, Note_on_c, 4, 79, 0
6, 21720, Note_on_c, 4, 81, 87
6, 21779, Note_on_c, 4, 81, 0
6, 21960, Note_on_c, 4, 71, 100
6, 22079, Note_on_c, 4, 71, 0
6, 23700, Note_on_c, 4, 75, 102
6, 23759, Note_on_c, 4, 75, 0
6, 23760, Note_on_c, 4, 76, 91
6, 23760, Note_on_c, 4, 74, 80
6, 23819, Note_on_c, 4, 74, 0
6, 23819, Note_on_c, 4, 76, 0
6, 23820, Note_on_c, 4, 84, 105
6, 23879, Note_on_c, 4, 84, 0
6, 23880, Note_on_c, 4, 75, 113
6, 24059, Note_on_c, 4, 75, 0
6, 24060, Note_on_c, 4, 76, 105
6, 24119, Note_on_c, 4, 76, 0
6, 24120, Note_on_c, 4, 76, 102
6, 24359, Note_on_c, 4, 76, 0
6, 24360, Note_on_c, 4, 78, 110
6, 24479, Note_on_c, 4, 78, 0
6, 25323, Note_on_c, 4, 78, 116
6, 25348, Note_on_c, 4, 76, 107
6, 25349, Note_on_c, 4, 78, 0
6, 25364, Note_on_c, 4, 76, 0
6, 25364, Note_on_c, 4, 78, 100
6, 25378, Note_on_c, 4, 76, 89
6, 25380, Note_on_c, 4, 78, 0
6, 25392, Note_on_c, 4, 76, 0
6, 25392, Note_on_c, 4, 78, 93
6, 25405, Note_on_c, 4, 76, 87
6, 25407, Note_on_c, 4, 78, 0
6, 25418, Note_on_c, 4, 76, 0
6, 25418, Note_on_c, 4, 78, 89
6, 25431, Note_on_c, 4, 78, 0
6, 25431, Note_on_c, 4, 76, 93
6, 25443, Note_on_c, 4, 76, 0
6, 25443, Note_on_c, 4, 78, 100
6, 25453, Note_on_c, 4, 76, 87
6, 25460, Note_on_c, 4, 78, 0
6, 25567, Note_on_c, 4, 75, 116
6, 25572, Note_on_c, 4, 76, 0
6, 25927, Note_on_c, 4, 75, 0
6, 25927, End_track
7, 0, Start_track
7, 0, MIDI_port, 0
7, 0, Title_t, "Viola sec"
7, 0, Program_c, 5, 49
7, 0, Control_c, 5, 7, 75
7, 0, Control_c, 5, 10, 20
7, 480, Note_on_c, 5, 64, 87
7, 600, Note_on_c, 5, 67, 100
7, 613, Note_on_c, 5, 64, 0
7, 716, Note_on_c, 5, 67, 0
7, 720, Note_on_c, 5, 72, 105
7, 838, Note_on_c, 5, 72, 0
7, 840, Note_on_c, 5, 66, 107
7, 960, Note_on_c, 5, 71, 105
7, 962, Note_on_c, 5, 66, 0
7, 1068, Note_on_c, 5, 71, 0
7, 1080, Note_on_c, 5, 71, 107
7, 1188, Note_on_c, 5, 71, 0
7, 1920, Note_on_c, 5, 64, 89
7, 2040, Note_on_c, 5, 67, 102
7, 2049, Note_on_c, 5, 64, 0
7, 2153, Note_on_c, 5, 67, 0
7, 2160, Note_on_c, 5, 72, 107
7, 2277, Note_on_c, 5, 72, 0
7, 2280, Note_on_c, 5, 63, 102
7, 2400, Note_on_c, 5, 64, 102
7, 2413, Note_on_c, 5, 63, 0
7, 2520, Note_on_c, 5, 66, 107
7, 2523, Note_on_c, 5, 64, 0
7, 2636, Note_on_c, 5, 66, 0
7, 3360, Note_on_c, 5, 71, 98
7, 3466, Note_on_c, 5, 71, 0
7, 3480, Note_on_c, 5, 71, 100
7, 3591, Note_on_c, 5, 71, 0
7, 3600, Note_on_c, 5, 71, 105
7, 3716, Note_on_c, 5, 71, 0
7, 4080, Note_on_c, 5, 64, 95
7, 4189, Note_on_c, 5, 64, 0
7, 4200, Note_on_c, 5, 64, 100
7, 4309, Note_on_c, 5, 64, 0
7, 4320, Note_on_c, 5, 64, 102
7, 4448, Note_on_c, 5, 64, 0
7, 4800, Note_on_c, 5, 69, 102
7, 4918, Note_on_c, 5, 69, 0
7, 4920, Note_on_c, 5, 72, 105
7, 5038, Note_on_c, 5, 72, 0
7, 5040, Note_on_c, 5, 71, 98
7, 5160, Note_on_c, 5, 59, 87
7, 5161, Note_on_c, 5, 71, 0
7, 5280, Note_on_c, 5, 64, 105
7, 5288, Note_on_c, 5, 59, 0
7, 5450, Note_on_c, 5, 64, 0
7, 5460, Note_on_c, 5, 61, 110
7, 5517, Note_on_c, 5, 61, 0
7, 5520, Note_on_c, 5, 57, 100
7, 5640, Note_on_c, 5, 62, 107
7, 5654, Note_on_c, 5, 57, 0
7, 5817, Note_on_c, 5, 62, 0
7, 5820, Note_on_c, 5, 64, 113
7, 5880, Note_on_c, 5, 66, 110
7, 5889, Note_on_c, 5, 64, 0
7, 6000, Note_on_c, 5, 64, 105
7, 6001, Note_on_c, 5, 66, 0
7, 6167, Note_on_c, 5, 64, 0
7, 6180, Note_on_c, 5, 72, 110
7, 6239, Note_on_c, 5, 72, 0
7, 6240, Note_on_c, 5, 71, 105
7, 6360, Note_on_c, 5, 69, 105
7, 6368, Note_on_c, 5, 71, 0
7, 6480, Note_on_c, 5, 67, 113
7, 6487, Note_on_c, 5, 69, 0
7, 6595, Note_on_c, 5, 67, 0
7, 6900, Note_on_c, 5, 63, 33
7, 6908, Note_on_c, 5, 63, 0
7, 6960, Note_on_c, 5, 62, 95
7, 7068, Note_on_c, 5, 62, 0
7, 7080, Note_on_c, 5, 62, 102
7, 7185, Note_on_c, 5, 62, 0
7, 7200, Note_on_c, 5, 62, 100
7, 7328, Note_on_c, 5, 62, 0
7, 7680, Note_on_c, 5, 64, 100
7, 7789, Note_on_c, 5, 64, 0
7, 7800, Note_on_c, 5, 64, 91
7, 7909, Note_on_c, 5, 64, 0
7, 7920, Note_on_c, 5, 64, 91
7, 8040, Note_on_c, 5, 69, 105
7, 8041, Note_on_c, 5, 64, 0
7, 8100, Note_on_c, 5, 68, 107
7, 8102, Note_on_c, 5, 69, 0
7, 8159, Note_on_c, 5, 68, 0
7, 8160, Note_on_c, 5, 69, 102
7, 8280, Note_on_c, 5, 71, 102
7, 8284, Note_on_c, 5, 69, 0
7, 8399, Note_on_c, 5, 71, 0
7, 8760, Note_on_c, 5, 69, 102
7, 9115, Note_on_c, 5, 69, 0
7, 9120, Note_on_c, 5, 71, 116
7, 9480, Note_on_c, 5, 72, 110
7, 9485, Note_on_c, 5, 71, 0
7, 9592, Note_on_c, 5, 72, 0
7, 9600, Note_on_c, 5, 72, 105
7, 9720, Note_on_c, 5, 72, 0
7, 9720, Note_on_c, 5, 69, 105
7, 9840, Note_on_c, 5, 64, 105
7, 9844, Note_on_c, 5, 69, 0
7, 9950, Note_on_c, 5, 64, 0
7, 9960, Note_on_c, 5, 64, 100
7, 10069, Note_on_c, 5, 64, 0
7, 10080, Note_on_c, 5, 64, 89
7, 10169, Note_on_c, 5, 64, 0
7, 10200, Note_on_c, 5, 64, 98
7, 10310, Note_on_c, 5, 64, 0
7, 10320, Note_on_c, 5, 69, 102
7, 10429, Note_on_c, 5, 69, 0
7, 10440, Note_on_c, 5, 69, 98
7, 10569, Note_on_c, 5, 69, 0
7, 10920, Note_on_c, 5, 62, 85
7, 11040, Note_on_c, 5, 67, 93
7, 11052, Note_on_c, 5, 62, 0
7, 11147, Note_on_c, 5, 67, 0
7, 11160, Note_on_c, 5, 67, 100
7, 11303, Note_on_c, 5, 67, 0
7, 12360, Note_on_c, 5, 59, 82
7, 12480, Note_on_c, 5, 66, 105
7, 12484, Note_on_c, 5, 59, 0
7, 12598, Note_on_c, 5, 66, 0
7, 12600, Note_on_c, 5, 67, 100
7, 12660, Note_on_c, 5, 69, 102
7, 12665, Note_on_c, 5, 67, 0
7, 12707, Note_on_c, 5, 69, 0
7, 12720, Note_on_c, 5, 67, 105
7, 12777, Note_on_c, 5, 67, 0
7, 12780, Note_on_c, 5, 69, 100
7, 12840, Note_on_c, 5, 66, 110
7, 12848, Note_on_c, 5, 69, 0
7, 12900, Note_on_c, 5, 66, 0
7, 12900, Note_on_c, 5, 67, 100
7, 12953, Note_on_c, 5, 67, 0
7, 12960, Note_on_c, 5, 64, 107
7, 13079, Note_on_c, 5, 64, 0
7, 13080, Note_on_c, 5, 61, 107
7, 13199, Note_on_c, 5, 61, 0
7, 13200, Note_on_c, 5, 66, 110
7, 13319, Note_on_c, 5, 66, 0
7, 13320, Note_on_c, 5, 66, 110
7, 13439, Note_on_c, 5, 66, 0
7, 13440, Note_on_c, 5, 66, 110
7, 13559, Note_on_c, 5, 66, 0
7, 13560, Note_on_c, 5, 69, 100
7, 13679, Note_on_c, 5, 69, 0
7, 13680, Note_on_c, 5, 62, 105
7, 13799, Note_on_c, 5, 62, 0
7, 13800, Note_on_c, 5, 59, 89
7, 13919, Note_on_c, 5, 59, 0
7, 13920, Note_on_c, 5, 68, 102
7, 14039, Note_on_c, 5, 68, 0
7, 14040, Note_on_c, 5, 61, 113
7, 14159, Note_on_c, 5, 61, 0
7, 14160, Note_on_c, 5, 59, 110
7, 14279, Note_on_c, 5, 59, 0
7, 14400, Note_on_c, 5, 74, 105
7, 14459, Note_on_c, 5, 74, 0
7, 14460, Note_on_c, 5, 71, 102
7, 14519, Note_on_c, 5, 71, 0
7, 14520, Note_on_c, 5, 68, 107
7, 14639, Note_on_c, 5, 68, 0
7, 14760, Note_on_c, 5, 73, 98
7, 14819, Note_on_c, 5, 73, 0
7, 14820, Note_on_c, 5, 70, 105
7, 14879, Note_on_c, 5, 70, 0
7, 14880, Note_on_c, 5, 66, 105
7, 14999, Note_on_c, 5, 66, 0
7, 15120, Note_on_c, 5, 71, 98
7, 15179, Note_on_c, 5, 71, 0
7, 15180, Note_on_c, 5, 68, 91
7, 15239, Note_on_c, 5, 68, 0
7, 15240, Note_on_c, 5, 64, 105
7, 15359, Note_on_c, 5, 64, 0
7, 15480, Note_on_c, 5, 69, 102
7, 15599, Note_on_c, 5, 69, 0
7, 15600, Note_on_c, 5, 62, 105
7, 15659, Note_on_c, 5, 62, 0
7, 15720, Note_on_c, 5, 62, 98
7, 15839, Note_on_c, 5, 62, 0
7, 15840, Note_on_c, 5, 61, 102
7, 15899, Note_on_c, 5, 61, 0
7, 15900, Note_on_c, 5, 64, 91
7, 15959, Note_on_c, 5, 64, 0
7, 15960, Note_on_c, 5, 58, 95
7, 16079, Note_on_c, 5, 58, 0
7, 16080, Note_on_c, 5, 66, 107
7, 16199, Note_on_c, 5, 66, 0
7, 16200, Note_on_c, 5, 66, 98
7, 16259, Note_on_c, 5, 66, 0
7, 16680, Note_on_c, 5, 69, 91
7, 16799, Note_on_c, 5, 69, 0
7, 16800, Note_on_c, 5, 69, 98
7, 16919, Note_on_c, 5, 69, 0
7, 16920, Note_on_c, 5, 69, 102
7, 17039, Note_on_c, 5, 69, 0
7, 17400, Note_on_c, 5, 71, 100
7, 17519, Note_on_c, 5, 71, 0
7, 17520, Note_on_c, 5, 71, 95
7, 17639, Note_on_c, 5, 71, 0
7, 17640, Note_on_c, 5, 71, 102
7, 17759, Note_on_c, 5, 71, 0
7, 17760, Note_on_c, 5, 64, 98
7, 17819, Note_on_c, 5, 64, 0
7, 17820, Note_on_c, 5, 63, 105
7, 17879, Note_on_c, 5, 63, 0
7, 17880, Note_on_c, 5, 64, 102
7, 17999, Note_on_c, 5, 64, 0
7, 18000, Note_on_c, 5, 66, 107
7, 18119, Note_on_c, 5, 66, 0
7, 18480, Note_on_c, 5, 64, 102
7, 18839, Note_on_c, 5, 64, 0
7, 18840, Note_on_c, 5, 66, 119
7, 19199, Note_on_c, 5, 66, 0
7, 19200, Note_on_c, 5, 67, 102
7, 19319, Note_on_c, 5, 67, 0
7, 19320, Note_on_c, 5, 67, 100
7, 19439, Note_on_c, 5, 67, 0
7, 19440, Note_on_c, 5, 64, 102
7, 19559, Note_on_c, 5, 64, 0
7, 19560, Note_on_c, 5, 71, 105
7, 19679, Note_on_c, 5, 71, 0
7, 19680, Note_on_c, 5, 71, 102
7, 19799, Note_on_c, 5, 71, 0
7, 19800, Note_on_c, 5, 71, 105
7, 19919, Note_on_c, 5, 71, 0
7, 19920, Note_on_c, 5, 64, 100
7, 20039, Note_on_c, 5, 64, 0
7, 20160, Note_on_c, 5, 68, 102
7, 20279, Note_on_c, 5, 68, 0
7, 20280, Note_on_c, 5, 71, 93
7, 20399, Note_on_c, 5, 71, 0
7, 20520, Note_on_c, 5, 69, 93
7, 20639, Note_on_c, 5, 69, 0
7, 20640, Note_on_c, 5, 64, 85
7, 20759, Note_on_c, 5, 64, 0
7, 20880, Note_on_c, 5, 71, 95
7, 20999, Note_on_c, 5, 71, 0
7, 21000, Note_on_c, 5, 62, 100
7, 21119, Note_on_c, 5, 62, 0
7, 21240, Note_on_c, 5, 69, 98
7, 21359, Note_on_c, 5, 69, 0
7, 21360, Note_on_c, 5, 72, 102
7, 21479, Note_on_c, 5, 72, 0
7, 21600, Note_on_c, 5, 60, 98
7, 21719, Note_on_c, 5, 60, 0
7, 21720, Note_on_c, 5, 65, 102
7, 21839, Note_on_c, 5, 65, 0
7, 21960, Note_on_c, 5, 66, 107
7, 22079, Note_on_c, 5, 66, 0
7, 23700, Note_on_c, 5, 69, 107
7, 23759, Note_on_c, 5, 69, 0
7, 23760, Note_on_c, 5, 71, 105
7, 23819, Note_on_c, 5, 71, 0
7, 23820, Note_on_c, 5, 72, 102
7, 23879, Note_on_c, 5, 72, 0
7, 23880, Note_on_c, 5, 71, 102
7, 23999, Note_on_c, 5, 71, 0
7, 24000, Note_on_c, 5, 69, 110
7, 24119, Note_on_c, 5, 69, 0
7, 24120, Note_on_c, 5, 67, 116
7, 24359, Note_on_c, 5, 67, 0
7, 24360, Note_on_c, 5, 71, 93
7, 24479, Note_on_c, 5, 71, 0
7, 25320, Note_on_c, 5, 72, 107
7, 25559, Note_on_c, 5, 72, 0
7, 25560, Note_on_c, 5, 66, 105
7, 25919, Note_on_c, 5, 66, 0
7, 25919, End_track
8, 0, Start_track
8, 0, MIDI_port, 0
8, 0, Title_t, "Cello sec"
8, 0, Program_c, 6, 49
8, 0, Control_c, 6, 7, 75
8, 0, Control_c, 6, 10, 100
8, 360, Note_on_c, 6, 40, 78
8, 476, Note_on_c, 6, 40, 0
8, 480, Note_on_c, 6, 52, 87
8, 600, Note_on_c, 6, 64, 107
8, 612, Note_on_c, 6, 52, 0
8, 840, Note_on_c, 6, 63, 110
8, 841, Note_on_c, 6, 64, 0
8, 1080, Note_on_c, 6, 64, 102
8, 1085, Note_on_c, 6, 63, 0
8, 1208, Note_on_c, 6, 64, 0
8, 1920, Note_on_c, 6, 64, 102
8, 2040, Note_on_c, 6, 64, 0
8, 2040, Note_on_c, 6, 52, 95
8, 2160, Note_on_c, 6, 57, 100
8, 2168, Note_on_c, 6, 52, 0
8, 2280, Note_on_c, 6, 60, 91
8, 2285, Note_on_c, 6, 57, 0
8, 2340, Note_on_c, 6, 59, 110
8, 2342, Note_on_c, 6, 60, 0
8, 2400, Note_on_c, 6, 60, 102
8, 2405, Note_on_c, 6, 59, 0
8, 2520, Note_on_c, 6, 59, 107
8, 2529, Note_on_c, 6, 60, 0
8, 2644, Note_on_c, 6, 59, 0
8, 3360, Note_on_c, 6, 59, 113
8, 3480, Note_on_c, 6, 47, 107
8, 3481, Note_on_c, 6, 59, 0
8, 3592, Note_on_c, 6, 47, 0
8, 3600, Note_on_c, 6, 52, 102
8, 3727, Note_on_c, 6, 52, 0
8, 4080, Note_on_c, 6, 50, 93
8, 4200, Note_on_c, 6, 62, 107
8, 4205, Note_on_c, 6, 50, 0
8, 4320, Note_on_c, 6, 60, 105
8, 4331, Note_on_c, 6, 62, 0
8, 4442, Note_on_c, 6, 60, 0
8, 4800, Note_on_c, 6, 54, 107
8, 4919, Note_on_c, 6, 54, 0
8, 4920, Note_on_c, 6, 42, 110
8, 5037, Note_on_c, 6, 42, 0
8, 5040, Note_on_c, 6, 47, 107
8, 5156, Note_on_c, 6, 47, 0
8, 5160, Note_on_c, 6, 52, 105
8, 5280, Note_on_c, 6, 40, 95
8, 5282, Note_on_c, 6, 52, 0
8, 5400, Note_on_c, 6, 45, 85
8, 5406, Note_on_c, 6, 40, 0
8, 5518, Note_on_c, 6, 45, 0
8, 5520, Note_on_c, 6, 50, 89
8, 5631, Note_on_c, 6, 50, 0
8, 5640, Note_on_c, 6, 38, 98
8, 5760, Note_on_c, 6, 43, 100
8, 5762, Note_on_c, 6, 38, 0
8, 5880, Note_on_c, 6, 43, 0
8, 5880, Note_on_c, 6, 55, 89
8, 6000, Note_on_c, 6, 60, 100
8, 6008, Note_on_c, 6, 55, 0
8, 6060, Note_on_c, 6, 59, 105
8, 6062, Note_on_c, 6, 60, 0
8, 6120, Note_on_c, 6, 60, 102
8, 6129, Note_on_c, 6, 59, 0
8, 6180, Note_on_c, 6, 57, 110
8, 6182, Note_on_c, 6, 60, 0
8, 6240, Note_on_c, 6, 59, 113
8, 6242, Note_on_c, 6, 57, 0
8, 6360, Note_on_c, 6, 47, 107
8, 6367, Note_on_c, 6, 59, 0
8, 6471, Note_on_c, 6, 47, 0
8, 6480, Note_on_c, 6, 52, 102
8, 6609, Note_on_c, 6, 52, 0
8, 6960, Note_on_c, 6, 50, 89
8, 7080, Note_on_c, 6, 38, 93
8, 7085, Note_on_c, 6, 50, 0
8, 7191, Note_on_c, 6, 38, 0
8, 7200, Note_on_c, 6, 43, 102
8, 7325, Note_on_c, 6, 43, 0
8, 7680, Note_on_c, 6, 52, 105
8, 7797, Note_on_c, 6, 52, 0
8, 7800, Note_on_c, 6, 40, 85
8, 7920, Note_on_c, 6, 45, 95
8, 7921, Note_on_c, 6, 40, 0
8, 8040, Note_on_c, 6, 57, 100
8, 8041, Note_on_c, 6, 45, 0
8, 8160, Note_on_c, 6, 53, 110
8, 8167, Note_on_c, 6, 57, 0
8, 8280, Note_on_c, 6, 52, 110
8, 8297, Note_on_c, 6, 53, 0
8, 8383, Note_on_c, 6, 52, 0
8, 8700, Note_on_c, 6, 50, 98
8, 8760, Note_on_c, 6, 48, 110
8, 8771, Note_on_c, 6, 50, 0
8, 8820, Note_on_c, 6, 47, 102
8, 8822, Note_on_c, 6, 48, 0
8, 8880, Note_on_c, 6, 49, 105
8, 8887, Note_on_c, 6, 47, 0
8, 8940, Note_on_c, 6, 45, 89
8, 8941, Note_on_c, 6, 49, 0
8, 8998, Note_on_c, 6, 45, 0
8, 9000, Note_on_c, 6, 50, 95
8, 9054, Note_on_c, 6, 50, 0
8, 9060, Note_on_c, 6, 49, 91
8, 9115, Note_on_c, 6, 49, 0
8, 9120, Note_on_c, 6, 50, 82
8, 9180, Note_on_c, 6, 52, 113
8, 9185, Note_on_c, 6, 50, 0
8, 9240, Note_on_c, 6, 53, 110
8, 9248, Note_on_c, 6, 52, 0
8, 9300, Note_on_c, 6, 50, 95
8, 9301, Note_on_c, 6, 53, 0
8, 9359, Note_on_c, 6, 50, 0
8, 9360, Note_on_c, 6, 56, 105
8, 9480, Note_on_c, 6, 52, 102
8, 9486, Note_on_c, 6, 56, 0
8, 9588, Note_on_c, 6, 52, 0
8, 9600, Note_on_c, 6, 57, 102
8, 9720, Note_on_c, 6, 57, 0
8, 9720, Note_on_c, 6, 50, 100
8, 9840, Note_on_c, 6, 52, 107
8, 9849, Note_on_c, 6, 50, 0
8, 9956, Note_on_c, 6, 52, 0
8, 9960, Note_on_c, 6, 40, 102
8, 10080, Note_on_c, 6, 45, 87
8, 10084, Note_on_c, 6, 40, 0
8, 10200, Note_on_c, 6, 57, 91
8, 10206, Note_on_c, 6, 45, 0
8, 10320, Note_on_c, 6, 45, 102
8, 10322, Note_on_c, 6, 57, 0
8, 10440, Note_on_c, 6, 38, 98
8, 10448, Note_on_c, 6, 45, 0
8, 10571, Note_on_c, 6, 38, 0
8, 10920, Note_on_c, 6, 55, 107
8, 11038, Note_on_c, 6, 55, 0
8, 11040, Note_on_c, 6, 43, 107
8, 11158, Note_on_c, 6, 43, 0
8, 11160, Note_on_c, 6, 36, 105
8, 11289, Note_on_c, 6, 36, 0
8, 11640, Note_on_c, 6, 54, 110
8, 11760, Note_on_c, 6, 42, 100
8, 11778, Note_on_c, 6, 54, 0
8, 11880, Note_on_c, 6, 47, 110
8, 11884, Note_on_c, 6, 42, 0
8, 11991, Note_on_c, 6, 47, 0
8, 12360, Note_on_c, 6, 59, 102
8, 12480, Note_on_c, 6, 47, 105
8, 12492, Note_on_c, 6, 59, 0
8, 12591, Note_on_c, 6, 47, 0
8, 12600, Note_on_c, 6, 40, 89
8, 12660, Note_on_c, 6, 47, 105
8, 12666, Note_on_c, 6, 40, 0
8, 12720, Note_on_c, 6, 52, 110
8, 12725, Note_on_c, 6, 47, 0
8, 12780, Note_on_c, 6, 54, 105
8, 12785, Note_on_c, 6, 52, 0
8, 12840, Note_on_c, 6, 50, 116
8, 12844, Note_on_c, 6, 54, 0
8, 12900, Note_on_c, 6, 52, 107
8, 12911, Note_on_c, 6, 50, 0
8, 12949, Note_on_c, 6, 52, 0
8, 12960, Note_on_c, 6, 49, 113
8, 13078, Note_on_c, 6, 49, 0
8, 13080, Note_on_c, 6, 54, 119
8, 13200, Note_on_c, 6, 42, 98
8, 13203, Note_on_c, 6, 54, 0
8, 13320, Note_on_c, 6, 47, 107
8, 13322, Note_on_c, 6, 42, 0
8, 13380, Note_on_c, 6, 54, 98
8, 13381, Note_on_c, 6, 47, 0
8, 13435, Note_on_c, 6, 54, 0
8, 13440, Note_on_c, 6, 59, 100
8, 13500, Note_on_c, 6, 61, 95
8, 13508, Note_on_c, 6, 59, 0
8, 13560, Note_on_c, 6, 57, 85
8, 13565, Note_on_c, 6, 61, 0
8, 13620, Note_on_c, 6, 59, 100
8, 13623, Note_on_c, 6, 57, 0
8, 13672, Note_on_c, 6, 59, 0
8, 13690, Note_on_c, 6, 57, 110
8, 13707, Note_on_c, 6, 57, 0
8, 13707, Note_on_c, 6, 56, 105
8, 13718, Note_on_c, 6, 57, 89
8, 13721, Note_on_c, 6, 56, 0
8, 13736, Note_on_c, 6, 57, 0
8, 13736, Note_on_c, 6, 56, 122
8, 14040, Note_on_c, 6, 54, 122
8, 14052, Note_on_c, 6, 56, 0
8, 14157, Note_on_c, 6, 54, 0
8, 14160, Note_on_c, 6, 59, 107
8, 14275, Note_on_c, 6, 59, 0
8, 14280, Note_on_c, 6, 57, 113
8, 14400, Note_on_c, 6, 56, 110
8, 14406, Note_on_c, 6, 57, 0
8, 14520, Note_on_c, 6, 61, 102
8, 14523, Note_on_c, 6, 56, 0
8, 14640, Note_on_c, 6, 49, 119
8, 14647, Note_on_c, 6, 61, 0
8, 14760, Note_on_c, 6, 54, 113
8, 14763, Note_on_c, 6, 49, 0
8, 14875, Note_on_c, 6, 54, 0
8, 14880, Note_on_c, 6, 59, 105
8, 15000, Note_on_c, 6, 47, 105
8, 15001, Note_on_c, 6, 59, 0
8, 15120, Note_on_c, 6, 52, 102
8, 15124, Note_on_c, 6, 47, 0
8, 15240, Note_on_c, 6, 57, 98
8, 15244, Note_on_c, 6, 52, 0
8, 15360, Note_on_c, 6, 45, 107
8, 15368, Note_on_c, 6, 57, 0
8, 15478, Note_on_c, 6, 45, 0
8, 15480, Note_on_c, 6, 38, 102
8, 15600, Note_on_c, 6, 50, 98
8, 15601, Note_on_c, 6, 38, 0
8, 15719, Note_on_c, 6, 50, 0
8, 15720, Note_on_c, 6, 55, 110
8, 15780, Note_on_c, 6, 54, 110
8, 15790, Note_on_c, 6, 55, 0
8, 15840, Note_on_c, 6, 55, 98
8, 15843, Note_on_c, 6, 54, 0
8, 15899, Note_on_c, 6, 55, 0
8, 15900, Note_on_c, 6, 52, 107
8, 15960, Note_on_c, 6, 54, 110
8, 15966, Note_on_c, 6, 52, 0
8, 16080, Note_on_c, 6, 42, 107
8, 16082, Note_on_c, 6, 54, 0
8, 16200, Note_on_c, 6, 47, 116
8, 16205, Note_on_c, 6, 42, 0
8, 16315, Note_on_c, 6, 47, 0
8, 16680, Note_on_c, 6, 57, 107
8, 16792, Note_on_c, 6, 57, 0
8, 16800, Note_on_c, 6, 45, 107
8, 16916, Note_on_c, 6, 45, 0
8, 16920, Note_on_c, 6, 38, 105
8, 17046, Note_on_c, 6, 38, 0
8, 17400, Note_on_c, 6, 59, 105
8, 17519, Note_on_c, 6, 59, 0
8, 17520, Note_on_c, 6, 47, 116
8, 17637, Note_on_c, 6, 47, 0
8, 17640, Note_on_c, 6, 40, 98
8, 17760, Note_on_c, 6, 52, 102
8, 17765, Note_on_c, 6, 40, 0
8, 17880, Note_on_c, 6, 48, 110
8, 17887, Note_on_c, 6, 52, 0
8, 18000, Note_on_c, 6, 47, 107
8, 18002, Note_on_c, 6, 48, 0
8, 18119, Note_on_c, 6, 47, 0
8, 18420, Note_on_c, 6, 45, 95
8, 18474, Note_on_c, 6, 45, 0
8, 18480, Note_on_c, 6, 43, 116
8, 18540, Note_on_c, 6, 42, 89
8, 18543, Note_on_c, 6, 43, 0
8, 18600, Note_on_c, 6, 44, 107
8, 18605, Note_on_c, 6, 42, 0
8, 18660, Note_on_c, 6, 40, 95
8, 18663, Note_on_c, 6, 44, 0
8, 18720, Note_on_c, 6, 45, 95
8, 18723, Note_on_c, 6, 40, 0
8, 18780, Note_on_c, 6, 44, 95
8, 18785, Note_on_c, 6, 45, 0
8, 18840, Note_on_c, 6, 45, 100
8, 18841, Note_on_c, 6, 44, 0
8, 18900, Note_on_c, 6, 45, 0
8, 18900, Note_on_c, 6, 47, 91
8, 18960, Note_on_c, 6, 48, 98
8, 18965, Note_on_c, 6, 47, 0
8, 19020, Note_on_c, 6, 45, 89
8, 19022, Note_on_c, 6, 48, 0
8, 19080, Note_on_c, 6, 45, 0
8, 19080, Note_on_c, 6, 51, 100
8, 19200, Note_on_c, 6, 47, 102
8, 19205, Note_on_c, 6, 51, 0
8, 19316, Note_on_c, 6, 47, 0
8, 19320, Note_on_c, 6, 52, 93
8, 19440, Note_on_c, 6, 57, 102
8, 19441, Note_on_c, 6, 52, 0
8, 19560, Note_on_c, 6, 59, 102
8, 19564, Note_on_c, 6, 57, 0
8, 19680, Note_on_c, 6, 47, 116
8, 19686, Note_on_c, 6, 59, 0
8, 19800, Note_on_c, 6, 40, 102
8, 19809, Note_on_c, 6, 47, 0
8, 19920, Note_on_c, 6, 64, 102
8, 19922, Note_on_c, 6, 40, 0
8, 19980, Note_on_c, 6, 65, 102
8, 19988, Note_on_c, 6, 64, 0
8, 20037, Note_on_c, 6, 65, 0
8, 20040, Note_on_c, 6, 64, 113
8, 20100, Note_on_c, 6, 64, 0
8, 20100, Note_on_c, 6, 65, 102
8, 20160, Note_on_c, 6, 62, 113
8, 20164, Note_on_c, 6, 65, 0
8, 20220, Note_on_c, 6, 60, 105
8, 20225, Note_on_c, 6, 62, 0
8, 20280, Note_on_c, 6, 62, 107
8, 20284, Note_on_c, 6, 60, 0
8, 20340, Note_on_c, 6, 65, 100
8, 20342, Note_on_c, 6, 62, 0
8, 20400, Note_on_c, 6, 64, 102
8, 20401, Note_on_c, 6, 65, 0
8, 20460, Note_on_c, 6, 62, 102
8, 20466, Note_on_c, 6, 64, 0
8, 20520, Note_on_c, 6, 60, 107
8, 20528, Note_on_c, 6, 62, 0
8, 20576, Note_on_c, 6, 60, 0
8, 20580, Note_on_c, 6, 59, 82
8, 20629, Note_on_c, 6, 59, 0
8, 20640, Note_on_c, 6, 60, 95
8, 20699, Note_on_c, 6, 60, 0
8, 20700, Note_on_c, 6, 62, 105
8, 20755, Note_on_c, 6, 62, 0
8, 20760, Note_on_c, 6, 60, 110
8, 20816, Note_on_c, 6, 60, 0
8, 20820, Note_on_c, 6, 62, 100
8, 20876, Note_on_c, 6, 62, 0
8, 20880, Note_on_c, 6, 59, 87
8, 20940, Note_on_c, 6, 57, 91
8, 20943, Note_on_c, 6, 59, 0
8, 21000, Note_on_c, 6, 59, 113
8, 21008, Note_on_c, 6, 57, 0
8, 21060, Note_on_c, 6, 62, 98
8, 21063, Note_on_c, 6, 59, 0
8, 21120, Note_on_c, 6, 60, 98
8, 21127, Note_on_c, 6, 62, 0
8, 21180, Note_on_c, 6, 59, 105
8, 21188, Note_on_c, 6, 60, 0
8, 21240, Note_on_c, 6, 57, 102
8, 21252, Note_on_c, 6, 59, 0
8, 21359, Note_on_c, 6, 57, 0
8, 21360, Note_on_c, 6, 45, 107
8, 21491, Note_on_c, 6, 45, 0
8, 21600, Note_on_c, 6, 57, 102
8, 21718, Note_on_c, 6, 57, 0
8, 21720, Note_on_c, 6, 45, 110
8, 21837, Note_on_c, 6, 45, 0
8, 21960, Note_on_c, 6, 47, 105
8, 22072, Note_on_c, 6, 47, 0
8, 23700, Note_on_c, 6, 54, 107
8, 23758, Note_on_c, 6, 54, 0
8, 23760, Note_on_c, 6, 55, 105
8, 23820, Note_on_c, 6, 57, 107
8, 23825, Note_on_c, 6, 55, 0
8, 23879, Note_on_c, 6, 57, 0
8, 23880, Note_on_c, 6, 59, 107
8, 24000, Note_on_c, 6, 47, 116
8, 24004, Note_on_c, 6, 59, 0
8, 24118, Note_on_c, 6, 47, 0
8, 24120, Note_on_c, 6, 52, 116
8, 24360, Note_on_c, 6, 50, 119
8, 24368, Note_on_c, 6, 52, 0
8, 24478, Note_on_c, 6, 50, 0
8, 25320, Note_on_c, 6, 48, 110
8, 25560, Note_on_c, 6, 47, 102
8, 25568, Note_on_c, 6, 48, 0
8, 25920, Note_on_c, 6, 47, 0
8, 25920, End_track
9, 0, Start_track
9, 0, MIDI_port, 0
9, 0, Title_t, "Bass Viol sec"
9, 0, Program_c, 7, 49
9, 0, Control_c, 7, 7, 75
9, 0, Control_c, 7, 10, 127
9, 360, Note_on_c, 7, 28, 78
9, 476, Note_on_c, 7, 28, 0
9, 480, Note_on_c, 7, 40, 87
9, 600, Note_on_c, 7, 52, 107
9, 612, Note_on_c, 7, 40, 0
9, 840, Note_on_c, 7, 51, 110
9, 841, Note_on_c, 7, 52, 0
9, 1080, Note_on_c, 7, 52, 102
9, 1085, Note_on_c, 7, 51, 0
9, 1208, Note_on_c, 7, 52, 0
9, 1920, Note_on_c, 7, 52, 102
9, 2040, Note_on_c, 7, 52, 0
9, 2040, Note_on_c, 7, 40, 95
9, 2160, Note_on_c, 7, 45, 100
9, 2168, Note_on_c, 7, 40, 0
9, 2280, Note_on_c, 7, 48, 91
9, 2285, Note_on_c, 7, 45, 0
9, 2340, Note_on_c, 7, 47, 110
9, 2342, Note_on_c, 7, 48, 0
9, 2400, Note_on_c, 7, 48, 102
9, 2405, Note_on_c, 7, 47, 0
9, 2520, Note_on_c, 7, 47, 107
9, 2529, Note_on_c, 7, 48, 0
9, 2644, Note_on_c, 7, 47, 0
9, 3360, Note_on_c, 7, 47, 113
9, 3480, Note_on_c, 7, 35, 107
9, 3481, Note_on_c, 7, 47, 0
9, 3592, Note_on_c, 7, 35, 0
9, 3600, Note_on_c, 7, 40, 102
9, 3727, Note_on_c, 7, 40, 0
9, 4080, Note_on_c, 7, 38, 93
9, 4200, Note_on_c, 7, 50, 107
9, 4205, Note_on_c, 7, 38, 0
9, 4320, Note_on_c, 7, 48, 105
9, 4331, Note_on_c, 7, 50, 0
9, 4442, Note_on_c, 7, 48, 0
9, 4800, Note_on_c, 7, 42, 107
9, 4919, Note_on_c, 7, 42, 0
9, 4920, Note_on_c, 7, 30, 110
9, 5037, Note_on_c, 7, 30, 0
9, 5040, Note_on_c, 7, 35, 107
9, 5156, Note_on_c, 7, 35, 0
9, 5160, Note_on_c, 7, 40, 105
9, 5280, Note_on_c, 7, 28, 95
9, 5282, Note_on_c, 7, 40, 0
9, 5400, Note_on_c, 7, 33, 85
9, 5406, Note_on_c, 7, 28, 0
9, 5518, Note_on_c, 7, 33, 0
9, 5520, Note_on_c, 7, 38, 89
9, 5631, Note_on_c, 7, 38, 0
9, 5640, Note_on_c, 7, 26, 98
9, 5760, Note_on_c, 7, 31, 100
9, 5762, Note_on_c, 7, 26, 0
9, 5880, Note_on_c, 7, 31, 0
9, 5880, Note_on_c, 7, 43, 89
9, 6000, Note_on_c, 7, 48, 100
9, 6008, Note_on_c, 7, 43, 0
9, 6060, Note_on_c, 7, 47, 105
9, 6062, Note_on_c, 7, 48, 0
9, 6120, Note_on_c, 7, 48, 102
9, 6129, Note_on_c, 7, 47, 0
9, 6180, Note_on_c, 7, 45, 110
9, 6182, Note_on_c, 7, 48, 0
9, 6240, Note_on_c, 7, 47, 113
9, 6242, Note_on_c, 7, 45, 0
9, 6360, Note_on_c, 7, 35, 107
9, 6367, Note_on_c, 7, 47, 0
9, 6471, Note_on_c, 7, 35, 0
9, 6480, Note_on_c, 7, 40, 102
9, 6609, Note_on_c, 7, 40, 0
9, 6960, Note_on_c, 7, 38, 89
9, 7080, Note_on_c, 7, 26, 93
9, 7085, Note_on_c, 7, 38, 0
9, 7191, Note_on_c, 7, 26, 0
9, 7200, Note_on_c, 7, 31, 102
9, 7325, Note_on_c, 7, 31, 0
9, 7680, Note_on_c, 7, 40, 105
9, 7797, Note_on_c, 7, 40, 0
9, 7800, Note_on_c, 7, 28, 85
9, 7920, Note_on_c, 7, 33, 95
9, 7921, Note_on_c, 7, 28, 0
9, 8040, Note_on_c, 7, 45, 100
9, 8041, Note_on_c, 7, 33, 0
9, 8160, Note_on_c, 7, 41, 110
9, 8167, Note_on_c, 7, 45, 0
9, 8280, Note_on_c, 7, 40, 110
9, 8297, Note_on_c, 7, 41, 0
9, 8383, Note_on_c, 7, 40, 0
9, 8700, Note_on_c, 7, 38, 98
9, 8760, Note_on_c, 7, 36, 110
9, 8771, Note_on_c, 7, 38, 0
9, 8820, Note_on_c, 7, 35, 102
9, 8822, Note_on_c, 7, 36, 0
9, 8880, Note_on_c, 7, 37, 105
9, 8887, Note_on_c, 7, 35, 0
9, 8940, Note_on_c, 7, 33, 89
9, 8941, Note_on_c, 7, 37, 0
9, 8998, Note_on_c, 7, 33, 0
9, 9000, Note_on_c, 7, 38, 95
9, 9054, Note_on_c, 7, 38, 0
9, 9060, Note_on_c, 7, 37, 91
9, 9115, Note_on_c, 7, 37, 0
9, 9120, Note_on_c, 7, 38, 82
9, 9180, Note_on_c, 7, 40, 113
9, 9185, Note_on_c, 7, 38, 0
9, 9240, Note_on_c, 7, 41, 110
9, 9248, Note_on_c, 7, 40, 0
9, 9300, Note_on_c, 7, 38, 95
9, 9301, Note_on_c, 7, 41, 0
9, 9359, Note_on_c, 7, 38, 0
9, 9360, Note_on_c, 7, 44, 105
9, 9480, Note_on_c, 7, 40, 102
9, 9486, Note_on_c, 7, 44, 0
9, 9588, Note_on_c, 7, 40, 0
9, 9600, Note_on_c, 7, 45, 102
9, 9720, Note_on_c, 7, 45, 0
9, 9720, Note_on_c, 7, 38, 100
9, 9840, Note_on_c, 7, 40, 107
9, 9849, Note_on_c, 7, 38, 0
9, 9956, Note_on_c, 7, 40, 0
9, 9960, Note_on_c, 7, 28, 102
9, 10080, Note_on_c, 7, 33, 87
9, 10084, Note_on_c, 7, 28, 0
9, 10200, Note_on_c, 7, 45, 91
9, 10206, Note_on_c, 7, 33, 0
9, 10320, Note_on_c, 7, 33, 102
9, 10322, Note_on_c, 7, 45, 0
9, 10440, Note_on_c, 7, 26, 98
9, 10448, Note_on_c, 7, 33, 0
9, 10571, Note_on_c, 7, 26, 0
9, 10920, Note_on_c, 7, 43, 107
9, 11038, Note_on_c, 7, 43, 0
9, 11040, Note_on_c, 7, 31, 107
9, 11158, Note_on_c, 7, 31, 0
9, 11160, Note_on_c, 7, 24, 105
9, 11289, Note_on_c, 7, 24, 0
9, 11640, Note_on_c, 7, 42, 110
9, 11760, Note_on_c, 7, 30, 100
9, 11778, Note_on_c, 7, 42, 0
9, 11880, Note_on_c, 7, 35, 110
9, 11884, Note_on_c, 7, 30, 0
9, 11991, Note_on_c, 7, 35, 0
9, 12360, Note_on_c, 7, 47, 102
9, 12480, Note_on_c, 7, 35, 105
9, 12492, Note_on_c, 7, 47, 0
9, 12591, Note_on_c, 7, 35, 0
9, 12600, Note_on_c, 7, 28, 89
9, 12660, Note_on_c, 7, 35, 105
9, 12666, Note_on_c, 7, 28, 0
9, 12720, Note_on_c, 7, 40, 110
9, 12725, Note_on_c, 7, 35, 0
9, 12780, Note_on_c, 7, 42, 105
9, 12785, Note_on_c, 7, 40, 0
9, 12840, Note_on_c, 7, 38, 116
9, 12844, Note_on_c, 7, 42, 0
9, 12900, Note_on_c, 7, 40, 107
9, 12911, Note_on_c, 7, 38, 0
9, 12949, Note_on_c, 7, 40, 0
9, 12960, Note_on_c, 7, 37, 113
9, 13078, Note_on_c, 7, 37, 0
9, 13080, Note_on_c, 7, 42, 119
9, 13200, Note_on_c, 7, 30, 98
9, 13203, Note_on_c, 7, 42, 0
9, 13320, Note_on_c, 7, 35, 107
9, 13322, Note_on_c, 7, 30, 0
9, 13380, Note_on_c, 7, 42, 98
9, 13381, Note_on_c, 7, 35, 0
9, 13435, Note_on_c, 7, 42, 0
9, 13440, Note_on_c, 7, 47, 100
9, 13500, Note_on_c, 7, 49, 95
9, 13508, Note_on_c, 7, 47, 0
9, 13560, Note_on_c, 7, 45, 85
9, 13565, Note_on_c, 7, 49, 0
9, 13620, Note_on_c, 7, 47, 100
9, 13623, Note_on_c, 7, 45, 0
9, 13672, Note_on_c, 7, 47, 0
9, 13690, Note_on_c, 7, 45, 110
9, 13707, Note_on_c, 7, 45, 0
9, 13707, Note_on_c, 7, 44, 105
9, 13718, Note_on_c, 7, 45, 89
9, 13721, Note_on_c, 7, 44, 0
9, 13736, Note_on_c, 7, 45, 0
9, 13736, Note_on_c, 7, 44, 122
9, 14040, Note_on_c, 7, 42, 122
9, 14052, Note_on_c, 7, 44, 0
9, 14157, Note_on_c, 7, 42, 0
9, 14160, Note_on_c, 7, 47, 107
9, 14275, Note_on_c, 7, 47, 0
9, 14280, Note_on_c, 7, 45, 113
9, 14400, Note_on_c, 7, 44, 110
9, 14406, Note_on_c, 7, 45, 0
9, 14520, Note_on_c, 7, 49, 102
9, 14523, Note_on_c, 7, 44, 0
9, 14640, Note_on_c, 7, 37, 119
9, 14647, Note_on_c, 7, 49, 0
9, 14760, Note_on_c, 7, 42, 113
9, 14763, Note_on_c, 7, 37, 0
9, 14875, Note_on_c, 7, 42, 0
9, 14880, Note_on_c, 7, 47, 105
9, 15000, Note_on_c, 7, 35, 105
9, 15001, Note_on_c, 7, 47, 0
9, 15120, Note_on_c, 7, 40, 102
9, 15124, Note_on_c, 7, 35, 0
9, 15240, Note_on_c, 7, 45, 98
9, 15244, Note_on_c, 7, 40, 0
9, 15360, Note_on_c, 7, 33, 107
9, 15368, Note_on_c, 7, 45, 0
9, 15478, Note_on_c, 7, 33, 0
9, 15480, Note_on_c, 7, 26, 102
9, 15600, Note_on_c, 7, 38, 98
9, 15601, Note_on_c, 7, 26, 0
9, 15719, Note_on_c, 7, 38, 0
9, 15720, Note_on_c, 7, 43, 110
9, 15780, Note_on_c, 7, 42, 110
9, 15790, Note_on_c, 7, 43, 0
9, 15840, Note_on_c, 7, 43, 98
9, 15843, Note_on_c, 7, 42, 0
9, 15899, Note_on_c, 7, 43, 0
9, 15900, Note_on_c, 7, 40, 107
9, 15960, Note_on_c, 7, 42, 110
9, 15966, Note_on_c, 7, 40, 0
9, 16080, Note_on_c, 7, 30, 107
9, 16082, Note_on_c, 7, 42, 0
9, 16200, Note_on_c, 7, 35, 116
9, 16205, Note_on_c, 7, 30, 0
9, 16315, Note_on_c, 7, 35, 0
9, 16680, Note_on_c, 7, 45, 107
9, 16792, Note_on_c, 7, 45, 0
9, 16800, Note_on_c, 7, 33, 107
9, 16916, Note_on_c, 7, 33, 0
9, 16920, Note_on_c, 7, 26, 105
9, 17046, Note_on_c, 7, 26, 0
9, 17400, Note_on_c, 7, 47, 105
9, 17519, Note_on_c, 7, 47, 0
9, 17520, Note_on_c, 7, 35, 116
9, 17637, Note_on_c, 7, 35, 0
9, 17640, Note_on_c, 7, 28, 98
9, 17760, Note_on_c, 7, 40, 102
9, 17765, Note_on_c, 7, 28, 0
9, 17880, Note_on_c, 7, 36, 110
9, 17887, Note_on_c, 7, 40, 0
9, 18000, Note_on_c, 7, 35, 107
9, 18002, Note_on_c, 7, 36, 0
9, 18119, Note_on_c, 7, 35, 0
9, 18420, Note_on_c, 7, 33, 95
9, 18474, Note_on_c, 7, 33, 0
9, 18480, Note_on_c, 7, 31, 116
9, 18540, Note_on_c, 7, 30, 89
9, 18543, Note_on_c, 7, 31, 0
9, 18600, Note_on_c, 7, 32, 107
9, 18605, Note_on_c, 7, 30, 0
9, 18660, Note_on_c, 7, 28, 95
9, 18663, Note_on_c, 7, 32, 0
9, 18720, Note_on_c, 7, 33, 95
9, 18723, Note_on_c, 7, 28, 0
9, 18780, Note_on_c, 7, 32, 95
9, 18785, Note_on_c, 7, 33, 0
9, 18840, Note_on_c, 7, 33, 100
9, 18841, Note_on_c, 7, 32, 0
9, 18900, Note_on_c, 7, 33, 0
9, 18900, Note_on_c, 7, 35, 91
9, 18960, Note_on_c, 7, 36, 98
9, 18965, Note_on_c, 7, 35, 0
9, 19020, Note_on_c, 7, 33, 89
9, 19022, Note_on_c, 7, 36, 0
9, 19080, Note_on_c, 7, 33, 0
9, 19080, Note_on_c, 7, 39, 100
9, 19200, Note_on_c, 7, 35, 102
9, 19205, Note_on_c, 7, 39, 0
9, 19316, Note_on_c, 7, 35, 0
9, 19320, Note_on_c, 7, 40, 93
9, 19440, Note_on_c, 7, 45, 102
9, 19441, Note_on_c, 7, 40, 0
9, 19560, Note_on_c, 7, 47, 102
9, 19564, Note_on_c, 7, 45, 0
9, 19680, Note_on_c, 7, 35, 116
9, 19686, Note_on_c, 7, 47, 0
9, 19800, Note_on_c, 7, 28, 102
9, 19809, Note_on_c, 7, 35, 0
9, 19920, Note_on_c, 7, 52, 102
9, 19922, Note_on_c, 7, 28, 0
9, 19980, Note_on_c, 7, 53, 102
9, 19988, Note_on_c, 7, 52, 0
9, 20037, Note_on_c, 7, 53, 0
9, 20040, Note_on_c, 7, 52, 113
9, 20100, Note_on_c, 7, 52, 0
9, 20100, Note_on_c, 7, 53, 102
9, 20160, Note_on_c, 7, 50, 113
9, 20164, Note_on_c, 7, 53, 0
9, 20220, Note_on_c, 7, 48, 105
9, 20225, Note_on_c, 7, 50, 0
9, 20280, Note_on_c, 7, 50, 107
9, 20284, Note_on_c, 7, 48, 0
9, 20340, Note_on_c, 7, 53, 100
9, 20342, Note_on_c, 7, 50, 0
9, 20400, Note_on_c, 7, 52, 102
9, 20401, Note_on_c, 7, 53, 0
9, 20460, Note_on_c, 7, 50, 102
9, 20466, Note_on_c, 7, 52, 0
9, 20520, Note_on_c, 7, 48, 107
9, 20528, Note_on_c, 7, 50, 0
9, 20576, Note_on_c, 7, 48, 0
9, 20580, Note_on_c, 7, 47, 82
9, 20629, Note_on_c, 7, 47, 0
9, 20640, Note_on_c, 7, 48, 95
9, 20699, Note_on_c, 7, 48, 0
9, 20700, Note_on_c, 7, 50, 105
9, 20755, Note_on_c, 7, 50, 0
9, 20760, Note_on_c, 7, 48, 110
9, 20816, Note_on_c, 7, 48, 0
9, 20820, Note_on_c, 7, 50, 100
9, 20876, Note_on_c, 7, 50, 0
9, 20880, Note_on_c, 7, 47, 87
9, 20940, Note_on_c, 7, 45, 91
9, 20943, Note_on_c, 7, 47, 0
9, 21000, Note_on_c, 7, 47, 113
9, 21008, Note_on_c, 7, 45, 0
9, 21060, Note_on_c, 7, 50, 98
9, 21063, Note_on_c, 7, 47, 0
9, 21120, Note_on_c, 7, 48, 98
9, 21127, Note_on_c, 7, 50, 0
9, 21180, Note_on_c, 7, 47, 105
9, 21188, Note_on_c, 7, 48, 0
9, 21240, Note_on_c, 7, 45, 102
9, 21252, Note_on_c, 7, 47, 0
9, 21359, Note_on_c, 7, 45, 0
9, 21360, Note_on_c, 7, 33, 107
9, 21491, Note_on_c, 7, 33, 0
9, 21600, Note_on_c, 7, 45, 102
9, 21718, Note_on_c, 7, 45, 0
9, 21720, Note_on_c, 7, 33, 110
9, 21837, Note_on_c, 7, 33, 0
9, 21960, Note_on_c, 7, 35, 105
9, 22072, Note_on_c, 7, 35, 0
9, 23700, Note_on_c, 7, 42, 107
9, 23758, Note_on_c, 7, 42, 0
9, 23760, Note_on_c, 7, 43, 105
9, 23820, Note_on_c, 7, 45, 107
9, 23825, Note_on_c, 7, 43, 0
9, 23879, Note_on_c, 7, 45, 0
9, 23880, Note_on_c, 7, 47, 107
9, 24000, Note_on_c, 7, 35, 116
9, 24004, Note_on_c, 7, 47, 0
9, 24118, Note_on_c, 7, 35, 0
9, 24120, Note_on_c, 7, 40, 116
9, 24360, Note_on_c, 7, 38, 119
9, 24368, Note_on_c, 7, 40, 0
9, 24478, Note_on_c, 7, 38, 0
9, 25320, Note_on_c, 7, 36, 110
9, 25560, Note_on_c, 7, 35, 102
9, 25568, Note_on_c, 7, 36, 0
9, 25920, Note_on_c, 7, 35, 0
9, 25920, End_track
10, 0, Start_track
10, 0, MIDI_port, 0
10, 0, Title_t, "Continuo"
10, 0, Program_c, 8, 6
10, 0, Control_c, 8, 7, 85
10, 0, Control_c, 8, 10, 75
10, 360, Note_on_c, 8, 28, 90
10, 360, Note_on_c, 8, 40, 90
10, 476, Note_on_c, 8, 40, 0
10, 476, Note_on_c, 8, 28, 0
10, 480, Note_on_c, 8, 40, 90
10, 480, Note_on_c, 8, 52, 90
10, 600, Note_on_c, 8, 52, 107
10, 600, Note_on_c, 8, 64, 107
10, 612, Note_on_c, 8, 52, 0
10, 612, Note_on_c, 8, 40, 0
10, 840, Note_on_c, 8, 51, 110
10, 840, Note_on_c, 8, 63, 110
10, 841, Note_on_c, 8, 52, 0
10, 841, Note_on_c, 8, 64, 0
10, 1080, Note_on_c, 8, 52, 102
10, 1080, Note_on_c, 8, 64, 102
10, 1085, Note_on_c, 8, 51, 0
10, 1085, Note_on_c, 8, 63, 0
10, 1208, Note_on_c, 8, 52, 0
10, 1208, Note_on_c, 8, 64, 0
10, 1920, Note_on_c, 8, 52, 102
10, 1920, Note_on_c, 8, 64, 102
10, 2040, Note_on_c, 8, 64, 0
10, 2040, Note_on_c, 8, 52, 0
10, 2040, Note_on_c, 8, 40, 95
10, 2040, Note_on_c, 8, 52, 95
10, 2160, Note_on_c, 8, 45, 100
10, 2160, Note_on_c, 8, 57, 100
10, 2168, Note_on_c, 8, 52, 0
10, 2168, Note_on_c, 8, 40, 0
10, 2280, Note_on_c, 8, 48, 91
10, 2280, Note_on_c, 8, 60, 91
10, 2285, Note_on_c, 8, 45, 0
10, 2285, Note_on_c, 8, 57, 0
10, 2340, Note_on_c, 8, 47, 110
10, 2340, Note_on_c, 8, 59, 110
10, 2342, Note_on_c, 8, 48, 0
10, 2342, Note_on_c, 8, 60, 0
10, 2400, Note_on_c, 8, 48, 102
10, 2400, Note_on_c, 8, 60, 102
10, 2405, Note_on_c, 8, 47, 0
10, 2405, Note_on_c, 8, 59, 0
10, 2520, Note_on_c, 8, 47, 107
10, 2520, Note_on_c, 8, 59, 107
10, 2529, Note_on_c, 8, 48, 0
10, 2529, Note_on_c, 8, 60, 0
10, 2644, Note_on_c, 8, 47, 0
10, 2644, Note_on_c, 8, 59, 0
10, 3360, Note_on_c, 8, 47, 113
10, 3360, Note_on_c, 8, 59, 113
10, 3480, Note_on_c, 8, 35, 107
10, 3480, Note_on_c, 8, 47, 107
10, 3481, Note_on_c, 8, 47, 0
10, 3481, Note_on_c, 8, 59, 0
10, 3592, Note_on_c, 8, 35, 0
10, 3592, Note_on_c, 8, 47, 0
10, 3600, Note_on_c, 8, 40, 102
10, 3600, Note_on_c, 8, 52, 102
10, 3727, Note_on_c, 8, 52, 0
10, 3727, Note_on_c, 8, 40, 0
10, 4080, Note_on_c, 8, 38, 93
10, 4080, Note_on_c, 8, 50, 93
10, 4200, Note_on_c, 8, 50, 107
10, 4200, Note_on_c, 8, 62, 107
10, 4205, Note_on_c, 8, 50, 0
10, 4205, Note_on_c, 8, 38, 0
10, 4320, Note_on_c, 8, 48, 105
10, 4320, Note_on_c, 8, 60, 105
10, 4331, Note_on_c, 8, 50, 0
10, 4331, Note_on_c, 8, 62, 0
10, 4442, Note_on_c, 8, 48, 0
10, 4442, Note_on_c, 8, 60, 0
10, 4800, Note_on_c, 8, 42, 107
10, 4800, Note_on_c, 8, 54, 107
10, 4919, Note_on_c, 8, 54, 0
10, 4919, Note_on_c, 8, 42, 0
10, 4920, Note_on_c, 8, 30, 110
10, 4920, Note_on_c, 8, 42, 110
10, 5037, Note_on_c, 8, 42, 0
10, 5037, Note_on_c, 8, 30, 0
10, 5040, Note_on_c, 8, 35, 107
10, 5040, Note_on_c, 8, 47, 107
10, 5156, Note_on_c, 8, 47, 0
10, 5156, Note_on_c, 8, 35, 0
10, 5160, Note_on_c, 8, 40, 105
10, 5160, Note_on_c, 8, 52, 105
10, 5280, Note_on_c, 8, 28, 95
10, 5280, Note_on_c, 8, 40, 95
10, 5282, Note_on_c, 8, 40, 0
10, 5282, Note_on_c, 8, 52, 0
10, 5400, Note_on_c, 8, 33, 85
10, 5400, Note_on_c, 8, 45, 85
10, 5406, Note_on_c, 8, 28, 0
10, 5406, Note_on_c, 8, 40, 0
10, 5518, Note_on_c, 8, 33, 0
10, 5518, Note_on_c, 8, 45, 0
10, 5520, Note_on_c, 8, 38, 89
10, 5520, Note_on_c, 8, 50, 89
10, 5631, Note_on_c, 8, 50, 0
10, 5631, Note_on_c, 8, 38, 0
10, 5640, Note_on_c, 8, 26, 98
10, 5640, Note_on_c, 8, 38, 98
10, 5760, Note_on_c, 8, 31, 100
10, 5760, Note_on_c, 8, 43, 100
10, 5762, Note_on_c, 8, 38, 0
10, 5762, Note_on_c, 8, 26, 0
10, 5880, Note_on_c, 8, 31, 0
10, 5880, Note_on_c, 8, 43, 0
10, 5880, Note_on_c, 8, 43, 89
10, 5880, Note_on_c, 8, 55, 89
10, 6000, Note_on_c, 8, 48, 100
10, 6000, Note_on_c, 8, 60, 100
10, 6008, Note_on_c, 8, 55, 0
10, 6008, Note_on_c, 8, 43, 0
10, 6060, Note_on_c, 8, 47, 105
10, 6060, Note_on_c, 8, 59, 105
10, 6062, Note_on_c, 8, 48, 0
10, 6062, Note_on_c, 8, 60, 0
10, 6120, Note_on_c, 8, 48, 102
10, 6120, Note_on_c, 8, 60, 102
10, 6129, Note_on_c, 8, 47, 0
10, 6129, Note_on_c, 8, 59, 0
10, 6180, Note_on_c, 8, 45, 110
10, 6180, Note_on_c, 8, 57, 110
10, 6182, Note_on_c, 8, 48, 0
10, 6182, Note_on_c, 8, 60, 0
10, 6240, Note_on_c, 8, 47, 113
10, 6240, Note_on_c, 8, 59, 113
10, 6242, Note_on_c, 8, 45, 0
10, 6242, Note_on_c, 8, 57, 0
10, 6360, Note_on_c, 8, 35, 107
10, 6360, Note_on_c, 8, 47, 107
10, 6367, Note_on_c, 8, 47, 0
10, 6367, Note_on_c, 8, 59, 0
10, 6471, Note_on_c, 8, 35, 0
10, 6471, Note_on_c, 8, 47, 0
10, 6480, Note_on_c, 8, 40, 102
10, 6480, Note_on_c, 8, 52, 102
10, 6609, Note_on_c, 8, 52, 0
10, 6609, Note_on_c, 8, 40, 0
10, 6960, Note_on_c, 8, 38, 89
10, 6960, Note_on_c, 8, 50, 89
10, 7080, Note_on_c, 8, 26, 93
10, 7080, Note_on_c, 8, 38, 93
10, 7085, Note_on_c, 8, 38, 0
10, 7085, Note_on_c, 8, 50, 0
10, 7191, Note_on_c, 8, 26, 0
10, 7191, Note_on_c, 8, 38, 0
10, 7200, Note_on_c, 8, 31, 102
10, 7200, Note_on_c, 8, 43, 102
10, 7325, Note_on_c, 8, 43, 0
10, 7325, Note_on_c, 8, 31, 0
10, 7680, Note_on_c, 8, 40, 105
10, 7680, Note_on_c, 8, 52, 105
10, 7797, Note_on_c, 8, 52, 0
10, 7797, Note_on_c, 8, 40, 0
10, 7800, Note_on_c, 8, 28, 85
10, 7800, Note_on_c, 8, 40, 85
10, 7920, Note_on_c, 8, 33, 95
10, 7920, Note_on_c, 8, 45, 95
10, 7921, Note_on_c, 8, 40, 0
10, 7921, Note_on_c, 8, 28, 0
10, 8040, Note_on_c, 8, 45, 100
10, 8040, Note_on_c, 8, 57, 100
10, 8041, Note_on_c, 8, 45, 0
10, 8041, Note_on_c, 8, 33, 0
10, 8160, Note_on_c, 8, 41, 110
10, 8160, Note_on_c, 8, 53, 110
10, 8167, Note_on_c, 8, 45, 0
10, 8167, Note_on_c, 8, 57, 0
10, 8280, Note_on_c, 8, 40, 110
10, 8280, Note_on_c, 8, 52, 110
10, 8297, Note_on_c, 8, 41, 0
10, 8297, Note_on_c, 8, 53, 0
10, 8383, Note_on_c, 8, 40, 0
10, 8383, Note_on_c, 8, 52, 0
10, 8700, Note_on_c, 8, 38, 98
10, 8700, Note_on_c, 8, 50, 98
10, 8760, Note_on_c, 8, 36, 110
10, 8760, Note_on_c, 8, 48, 110
10, 8771, Note_on_c, 8, 50, 0
10, 8771, Note_on_c, 8, 38, 0
10, 8820, Note_on_c, 8, 35, 102
10, 8820, Note_on_c, 8, 47, 102
10, 8822, Note_on_c, 8, 36, 0
10, 8822, Note_on_c, 8, 48, 0
10, 8880, Note_on_c, 8, 37, 105
10, 8880, Note_on_c, 8, 49, 105
10, 8887, Note_on_c, 8, 35, 0
10, 8887, Note_on_c, 8, 47, 0
10, 8940, Note_on_c, 8, 33, 89
10, 8940, Note_on_c, 8, 45, 89
10, 8941, Note_on_c, 8, 37, 0
10, 8941, Note_on_c, 8, 49, 0
10, 8998, Note_on_c, 8, 33, 0
10, 8998, Note_on_c, 8, 45, 0
10, 9000, Note_on_c, 8, 38, 95
10, 9000, Note_on_c, 8, 50, 95
10, 9054, Note_on_c, 8, 50, 0
10, 9054, Note_on_c, 8, 38, 0
10, 9060, Note_on_c, 8, 37, 91
10, 9060, Note_on_c, 8, 49, 91
10, 9115, Note_on_c, 8, 49, 0
10, 9115, Note_on_c, 8, 37, 0
10, 9120, Note_on_c, 8, 38, 82
10, 9120, Note_on_c, 8, 50, 82
10, 9180, Note_on_c, 8, 40, 113
10, 9180, Note_on_c, 8, 52, 113
10, 9185, Note_on_c, 8, 50, 0
10, 9185, Note_on_c, 8, 38, 0
10, 9240, Note_on_c, 8, 41, 110
10, 9240, Note_on_c, 8, 53, 110
10, 9248, Note_on_c, 8, 40, 0
10, 9248, Note_on_c, 8, 52, 0
10, 9300, Note_on_c, 8, 38, 95
10, 9300, Note_on_c, 8, 50, 95
10, 9301, Note_on_c, 8, 41, 0
10, 9301, Note_on_c, 8, 53, 0
10, 9359, Note_on_c, 8, 38, 0
10, 9359, Note_on_c, 8, 50, 0
10, 9360, Note_on_c, 8, 44, 105
10, 9360, Note_on_c, 8, 56, 105
10, 9480, Note_on_c, 8, 40, 102
10, 9480, Note_on_c, 8, 52, 102
10, 9486, Note_on_c, 8, 56, 0
10, 9486, Note_on_c, 8, 44, 0
10, 9588, Note_on_c, 8, 40, 0
10, 9588, Note_on_c, 8, 52, 0
10, 9600, Note_on_c, 8, 45, 102
10, 9600, Note_on_c, 8, 57, 102
10, 9720, Note_on_c, 8, 57, 0
10, 9720, Note_on_c, 8, 45, 0
10, 9720, Note_on_c, 8, 38, 100
10, 9720, Note_on_c, 8, 50, 100
10, 9840, Note_on_c, 8, 40, 107
10, 9840, Note_on_c, 8, 52, 107
10, 9849, Note_on_c, 8, 50, 0
10, 9849, Note_on_c, 8, 38, 0
10, 9956, Note_on_c, 8, 40, 0
10, 9956, Note_on_c, 8, 52, 0
10, 9960, Note_on_c, 8, 28, 102
10, 9960, Note_on_c, 8, 40, 102
10, 10080, Note_on_c, 8, 33, 87
10, 10080, Note_on_c, 8, 45, 87
10, 10084, Note_on_c, 8, 40, 0
10, 10084, Note_on_c, 8, 28, 0
10, 10200, Note_on_c, 8, 45, 91
10, 10200, Note_on_c, 8, 57, 91
10, 10206, Note_on_c, 8, 45, 0
10, 10206, Note_on_c, 8, 33, 0
10, 10320, Note_on_c, 8, 33, 102
10, 10320, Note_on_c, 8, 45, 102
10, 10322, Note_on_c, 8, 45, 0
10, 10322, Note_on_c, 8, 57, 0
10, 10440, Note_on_c, 8, 26, 98
10, 10440, Note_on_c, 8, 38, 98
10, 10448, Note_on_c, 8, 33, 0
10, 10448, Note_on_c, 8, 45, 0
10, 10571, Note_on_c, 8, 26, 0
10, 10571, Note_on_c, 8, 38, 0
10, 10920, Note_on_c, 8, 43, 107
10, 10920, Note_on_c, 8, 55, 107
10, 11038, Note_on_c, 8, 55, 0
10, 11038, Note_on_c, 8, 43, 0
10, 11040, Note_on_c, 8, 31, 107
10, 11040, Note_on_c, 8, 43, 107
10, 11158, Note_on_c, 8, 43, 0
10, 11158, Note_on_c, 8, 31, 0
10, 11160, Note_on_c, 8, 24, 105
10, 11160, Note_on_c, 8, 36, 105
10, 11289, Note_on_c, 8, 36, 0
10, 11289, Note_on_c, 8, 24, 0
10, 11640, Note_on_c, 8, 42, 110
10, 11640, Note_on_c, 8, 54, 110
10, 11760, Note_on_c, 8, 30, 100
10, 11760, Note_on_c, 8, 42, 100
10, 11778, Note_on_c, 8, 42, 0
10, 11778, Note_on_c, 8, 54, 0
10, 11880, Note_on_c, 8, 35, 110
10, 11880, Note_on_c, 8, 47, 110
10, 11884, Note_on_c, 8, 30, 0
10, 11884, Note_on_c, 8, 42, 0
10, 11991, Note_on_c, 8, 35, 0
10, 11991, Note_on_c, 8, 47, 0
10, 12360, Note_on_c, 8, 47, 102
10, 12360, Note_on_c, 8, 59, 102
10, 12480, Note_on_c, 8, 35, 105
10, 12480, Note_on_c, 8, 47, 105
10, 12492, Note_on_c, 8, 47, 0
10, 12492, Note_on_c, 8, 59, 0
10, 12591, Note_on_c, 8, 35, 0
10, 12591, Note_on_c, 8, 47, 0
10, 12600, Note_on_c, 8, 28, 89
10, 12600, Note_on_c, 8, 40, 89
10, 12660, Note_on_c, 8, 35, 105
10, 12660, Note_on_c, 8, 47, 105
10, 12666, Note_on_c, 8, 40, 0
10, 12666, Note_on_c, 8, 28, 0
10, 12720, Note_on_c, 8, 40, 110
10, 12720, Note_on_c, 8, 52, 110
10, 12725, Note_on_c, 8, 35, 0
10, 12725, Note_on_c, 8, 47, 0
10, 12780, Note_on_c, 8, 42, 105
10, 12780, Note_on_c, 8, 54, 105
10, 12785, Note_on_c, 8, 40, 0
10, 12785, Note_on_c, 8, 52, 0
10, 12840, Note_on_c, 8, 38, 116
10, 12840, Note_on_c, 8, 50, 116
10, 12844, Note_on_c, 8, 42, 0
10, 12844, Note_on_c, 8, 54, 0
10, 12900, Note_on_c, 8, 40, 107
10, 12900, Note_on_c, 8, 52, 107
10, 12911, Note_on_c, 8, 38, 0
10, 12911, Note_on_c, 8, 50, 0
10, 12949, Note_on_c, 8, 40, 0
10, 12949, Note_on_c, 8, 52, 0
10, 12960, Note_on_c, 8, 37, 113
10, 12960, Note_on_c, 8, 49, 113
10, 13078, Note_on_c, 8, 49, 0
10, 13078, Note_on_c, 8, 37, 0
10, 13080, Note_on_c, 8, 42, 119
10, 13080, Note_on_c, 8, 54, 119
10, 13200, Note_on_c, 8, 30, 98
10, 13200, Note_on_c, 8, 42, 98
10, 13203, Note_on_c, 8, 42, 0
10, 13203, Note_on_c, 8, 54, 0
10, 13320, Note_on_c, 8, 35, 107
10, 13320, Note_on_c, 8, 47, 107
10, 13322, Note_on_c, 8, 30, 0
10, 13322, Note_on_c, 8, 42, 0
10, 13380, Note_on_c, 8, 42, 98
10, 13380, Note_on_c, 8, 54, 98
10, 13381, Note_on_c, 8, 35, 0
10, 13381, Note_on_c, 8, 47, 0
10, 13435, Note_on_c, 8, 42, 0
10, 13435, Note_on_c, 8, 54, 0
10, 13440, Note_on_c, 8, 47, 100
10, 13440, Note_on_c, 8, 59, 100
10, 13500, Note_on_c, 8, 49, 95
10, 13500, Note_on_c, 8, 61, 95
10, 13508, Note_on_c, 8, 59, 0
10, 13508, Note_on_c, 8, 47, 0
10, 13560, Note_on_c, 8, 45, 85
10, 13560, Note_on_c, 8, 57, 85
10, 13565, Note_on_c, 8, 49, 0
10, 13565, Note_on_c, 8, 61, 0
10, 13620, Note_on_c, 8, 47, 100
10, 13620, Note_on_c, 8, 59, 100
10, 13623, Note_on_c, 8, 45, 0
10, 13623, Note_on_c, 8, 57, 0
10, 13672, Note_on_c, 8, 47, 0
10, 13672, Note_on_c, 8, 59, 0
10, 13690, Note_on_c, 8, 45, 110
10, 13690, Note_on_c, 8, 57, 110
10, 13707, Note_on_c, 8, 57, 0
10, 13707, Note_on_c, 8, 45, 0
10, 13707, Note_on_c, 8, 44, 105
10, 13707, Note_on_c, 8, 56, 105
10, 13718, Note_on_c, 8, 45, 89
10, 13718, Note_on_c, 8, 57, 89
10, 13721, Note_on_c, 8, 56, 0
10, 13721, Note_on_c, 8, 44, 0
10, 13736, Note_on_c, 8, 45, 0
10, 13736, Note_on_c, 8, 57, 0
10, 13736, Note_on_c, 8, 44, 122
10, 13736, Note_on_c, 8, 56, 122
10, 14040, Note_on_c, 8, 42, 122
10, 14040, Note_on_c, 8, 54, 122
10, 14052, Note_on_c, 8, 56, 0
10, 14052, Note_on_c, 8, 44, 0
10, 14157, Note_on_c, 8, 42, 0
10, 14157, Note_on_c, 8, 54, 0
10, 14160, Note_on_c, 8, 47, 107
10, 14160, Note_on_c, 8, 59, 107
10, 14275, Note_on_c, 8, 59, 0
10, 14275, Note_on_c, 8, 47, 0
10, 14280, Note_on_c, 8, 45, 113
10, 14280, Note_on_c, 8, 57, 113
10, 14400, Note_on_c, 8, 44, 110
10, 14400, Note_on_c, 8, 56, 110
10, 14406, Note_on_c, 8, 57, 0
10, 14406, Note_on_c, 8, 45, 0
10, 14520, Note_on_c, 8, 49, 102
10, 14520, Note_on_c, 8, 61, 102
10, 14523, Note_on_c, 8, 44, 0
10, 14523, Note_on_c, 8, 56, 0
10, 14640, Note_on_c, 8, 37, 119
10, 14640, Note_on_c, 8, 49, 119
10, 14647, Note_on_c, 8, 49, 0
10, 14647, Note_on_c, 8, 61, 0
10, 14760, Note_on_c, 8, 42, 113
10, 14760, Note_on_c, 8, 54, 113
10, 14763, Note_on_c, 8, 37, 0
10, 14763, Note_on_c, 8, 49, 0
10, 14875, Note_on_c, 8, 42, 0
10, 14875, Note_on_c, 8, 54, 0
10, 14880, Note_on_c, 8, 47, 105
10, 14880, Note_on_c, 8, 59, 105
10, 15000, Note_on_c, 8, 35, 105
10, 15000, Note_on_c, 8, 47, 105
10, 15001, Note_on_c, 8, 47, 0
10, 15001, Note_on_c, 8, 59, 0
10, 15120, Note_on_c, 8, 40, 102
10, 15120, Note_on_c, 8, 52, 102
10, 15124, Note_on_c, 8, 35, 0
10, 15124, Note_on_c, 8, 47, 0
10, 15240, Note_on_c, 8, 45, 98
10, 15240, Note_on_c, 8, 57, 98
10, 15244, Note_on_c, 8, 40, 0
10, 15244, Note_on_c, 8, 52, 0
10, 15360, Note_on_c, 8, 33, 107
10, 15360, Note_on_c, 8, 45, 107
10, 15368, Note_on_c, 8, 45, 0
10, 15368, Note_on_c, 8, 57, 0
10, 15478, Note_on_c, 8, 33, 0
10, 15478, Note_on_c, 8, 45, 0
10, 15480, Note_on_c, 8, 26, 102
10, 15480, Note_on_c, 8, 38, 102
10, 15600, Note_on_c, 8, 38, 98
10, 15600, Note_on_c, 8, 50, 98
10, 15601, Note_on_c, 8, 38, 0
10, 15601, Note_on_c, 8, 26, 0
10, 15719, Note_on_c, 8, 38, 0
10, 15719, Note_on_c, 8, 50, 0
10, 15720, Note_on_c, 8, 43, 110
10, 15720, Note_on_c, 8, 55, 110
10, 15780, Note_on_c, 8, 42, 110
10, 15780, Note_on_c, 8, 54, 110
10, 15790, Note_on_c, 8, 55, 0
10, 15790, Note_on_c, 8, 43, 0
10, 15840, Note_on_c, 8, 43, 98
10, 15840, Note_on_c, 8, 55, 98
10, 15843, Note_on_c, 8, 42, 0
10, 15843, Note_on_c, 8, 54, 0
10, 15899, Note_on_c, 8, 43, 0
10, 15899, Note_on_c, 8, 55, 0
10, 15900, Note_on_c, 8, 40, 107
10, 15900, Note_on_c, 8, 52, 107
10, 15960, Note_on_c, 8, 42, 110
10, 15960, Note_on_c, 8, 54, 110
10, 15966, Note_on_c, 8, 52, 0
10, 15966, Note_on_c, 8, 40, 0
10, 16080, Note_on_c, 8, 30, 107
10, 16080, Note_on_c, 8, 42, 107
10, 16082, Note_on_c, 8, 42, 0
10, 16082, Note_on_c, 8, 54, 0
10, 16200, Note_on_c, 8, 35, 116
10, 16200, Note_on_c, 8, 47, 116
10, 16205, Note_on_c, 8, 30, 0
10, 16205, Note_on_c, 8, 42, 0
10, 16315, Note_on_c, 8, 35, 0
10, 16315, Note_on_c, 8, 47, 0
10, 16680, Note_on_c, 8, 45, 107
10, 16680, Note_on_c, 8, 57, 107
10, 16792, Note_on_c, 8, 57, 0
10, 16792, Note_on_c, 8, 45, 0
10, 16800, Note_on_c, 8, 33, 107
10, 16800, Note_on_c, 8, 45, 107
10, 16916, Note_on_c, 8, 45, 0
10, 16916, Note_on_c, 8, 33, 0
10, 16920, Note_on_c, 8, 26, 105
10, 16920, Note_on_c, 8, 38, 105
10, 17046, Note_on_c, 8, 38, 0
10, 17046, Note_on_c, 8, 26, 0
10, 17400, Note_on_c, 8, 47, 105
10, 17400, Note_on_c, 8, 59, 105
10, 17519, Note_on_c, 8, 59, 0
10, 17519, Note_on_c, 8, 47, 0
10, 17520, Note_on_c, 8, 35, 116
10, 17520, Note_on_c, 8, 47, 116
10, 17637, Note_on_c, 8, 47, 0
10, 17637, Note_on_c, 8, 35, 0
10, 17640, Note_on_c, 8, 28, 98
10, 17640, Note_on_c, 8, 40, 98
10, 17760, Note_on_c, 8, 40, 102
10, 17760, Note_on_c, 8, 52, 102
10, 17765, Note_on_c, 8, 40, 0
10, 17765, Note_on_c, 8, 28, 0
10, 17880, Note_on_c, 8, 36, 110
10, 17880, Note_on_c, 8, 48, 110
10, 17887, Note_on_c, 8, 40, 0
10, 17887, Note_on_c, 8, 52, 0
10, 18000, Note_on_c, 8, 35, 107
10, 18000, Note_on_c, 8, 47, 107
10, 18002, Note_on_c, 8, 36, 0
10, 18002, Note_on_c, 8, 48, 0
10, 18119, Note_on_c, 8, 35, 0
10, 18119, Note_on_c, 8, 47, 0
10, 18420, Note_on_c, 8, 33, 95
10, 18420, Note_on_c, 8, 45, 95
10, 18474, Note_on_c, 8, 45, 0
10, 18474, Note_on_c, 8, 33, 0
10, 18480, Note_on_c, 8, 31, 116
10, 18480, Note_on_c, 8, 43, 116
10, 18540, Note_on_c, 8, 30, 89
10, 18540, Note_on_c, 8, 42, 89
10, 18543, Note_on_c, 8, 43, 0
10, 18543, Note_on_c, 8, 31, 0
10, 18600, Note_on_c, 8, 32, 107
10, 18600, Note_on_c, 8, 44, 107
10, 18605, Note_on_c, 8, 30, 0
10, 18605, Note_on_c, 8, 42, 0
10, 18660, Note_on_c, 8, 28, 95
10, 18660, Note_on_c, 8, 40, 95
10, 18663, Note_on_c, 8, 32, 0
10, 18663, Note_on_c, 8, 44, 0
10, 18720, Note_on_c, 8, 33, 95
10, 18720, Note_on_c, 8, 45, 95
10, 18723, Note_on_c, 8, 28, 0
10, 18723, Note_on_c, 8, 40, 0
10, 18780, Note_on_c, 8, 32, 95
10, 18780, Note_on_c, 8, 44, 95
10, 18785, Note_on_c, 8, 33, 0
10, 18785, Note_on_c, 8, 45, 0
10, 18840, Note_on_c, 8, 33, 100
10, 18840, Note_on_c, 8, 45, 100
10, 18841, Note_on_c, 8, 32, 0
10, 18841, Note_on_c, 8, 44, 0
10, 18900, Note_on_c, 8, 33, 0
10, 18900, Note_on_c, 8, 45, 0
10, 18900, Note_on_c, 8, 35, 91
10, 18900, Note_on_c, 8, 47, 91
10, 18960, Note_on_c, 8, 36, 98
10, 18960, Note_on_c, 8, 48, 98
10, 18965, Note_on_c, 8, 47, 0
10, 18965, Note_on_c, 8, 35, 0
10, 19020, Note_on_c, 8, 33, 89
10, 19020, Note_on_c, 8, 45, 89
10, 19022, Note_on_c, 8, 36, 0
10, 19022, Note_on_c, 8, 48, 0
10, 19080, Note_on_c, 8, 33, 0
10, 19080, Note_on_c, 8, 45, 0
10, 19080, Note_on_c, 8, 39, 100
10, 19080, Note_on_c, 8, 51, 100
10, 19200, Note_on_c, 8, 35, 102
10, 19200, Note_on_c, 8, 47, 102
10, 19205, Note_on_c, 8, 51, 0
10, 19205, Note_on_c, 8, 39, 0
10, 19316, Note_on_c, 8, 35, 0
10, 19316, Note_on_c, 8, 47, 0
10, 19320, Note_on_c, 8, 40, 93
10, 19320, Note_on_c, 8, 52, 93
10, 19440, Note_on_c, 8, 45, 102
10, 19440, Note_on_c, 8, 57, 102
10, 19441, Note_on_c, 8, 52, 0
10, 19441, Note_on_c, 8, 40, 0
10, 19560, Note_on_c, 8, 47, 102
10, 19560, Note_on_c, 8, 59, 102
10, 19564, Note_on_c, 8, 45, 0
10, 19564, Note_on_c, 8, 57, 0
10, 19680, Note_on_c, 8, 35, 116
10, 19680, Note_on_c, 8, 47, 116
10, 19686, Note_on_c, 8, 47, 0
10, 19686, Note_on_c, 8, 59, 0
10, 19800, Note_on_c, 8, 28, 102
10, 19800, Note_on_c, 8, 40, 102
10, 19809, Note_on_c, 8, 35, 0
10, 19809, Note_on_c, 8, 47, 0
10, 19920, Note_on_c, 8, 52, 102
10, 19920, Note_on_c, 8, 64, 102
10, 19922, Note_on_c, 8, 28, 0
10, 19922, Note_on_c, 8, 40, 0
10, 19980, Note_on_c, 8, 53, 102
10, 19980, Note_on_c, 8, 65, 102
10, 19988, Note_on_c, 8, 52, 0
10, 19988, Note_on_c, 8, 64, 0
10, 20037, Note_on_c, 8, 53, 0
10, 20037, Note_on_c, 8, 65, 0
10, 20040, Note_on_c, 8, 52, 113
10, 20040, Note_on_c, 8, 64, 113
10, 20100, Note_on_c, 8, 64, 0
10, 20100, Note_on_c, 8, 52, 0
10, 20100, Note_on_c, 8, 53, 102
10, 20100, Note_on_c, 8, 65, 102
10, 20160, Note_on_c, 8, 50, 113
10, 20160, Note_on_c, 8, 62, 113
10, 20164, Note_on_c, 8, 65, 0
10, 20164, Note_on_c, 8, 53, 0
10, 20220, Note_on_c, 8, 48, 105
10, 20220, Note_on_c, 8, 60, 105
10, 20225, Note_on_c, 8, 50, 0
10, 20225, Note_on_c, 8, 62, 0
10, 20280, Note_on_c, 8, 50, 107
10, 20280, Note_on_c, 8, 62, 107
10, 20284, Note_on_c, 8, 48, 0
10, 20284, Note_on_c, 8, 60, 0
10, 20340, Note_on_c, 8, 53, 100
10, 20340, Note_on_c, 8, 65, 100
10, 20342, Note_on_c, 8, 50, 0
10, 20342, Note_on_c, 8, 62, 0
10, 20400, Note_on_c, 8, 52, 102
10, 20400, Note_on_c, 8, 64, 102
10, 20401, Note_on_c, 8, 53, 0
10, 20401, Note_on_c, 8, 65, 0
10, 20460, Note_on_c, 8, 50, 102
10, 20460, Note_on_c, 8, 62, 102
10, 20466, Note_on_c, 8, 52, 0
10, 20466, Note_on_c, 8, 64, 0
10, 20520, Note_on_c, 8, 48, 107
10, 20520, Note_on_c, 8, 60, 107
10, 20528, Note_on_c, 8, 50, 0
10, 20528, Note_on_c, 8, 62, 0
10, 20576, Note_on_c, 8, 48, 0
10, 20576, Note_on_c, 8, 60, 0
10, 20580, Note_on_c, 8, 47, 82
10, 20580, Note_on_c, 8, 59, 82
10, 20629, Note_on_c, 8, 59, 0
10, 20629, Note_on_c, 8, 47, 0
10, 20640, Note_on_c, 8, 48, 95
10, 20640, Note_on_c, 8, 60, 95
10, 20699, Note_on_c, 8, 60, 0
10, 20699, Note_on_c, 8, 48, 0
10, 20700, Note_on_c, 8, 50, 105
10, 20700, Note_on_c, 8, 62, 105
10, 20755, Note_on_c, 8, 62, 0
10, 20755, Note_on_c, 8, 50, 0
10, 20760, Note_on_c, 8, 48, 110
10, 20760, Note_on_c, 8, 60, 110
10, 20816, Note_on_c, 8, 60, 0
10, 20816, Note_on_c, 8, 48, 0
10, 20820, Note_on_c, 8, 50, 100
10, 20820, Note_on_c, 8, 62, 100
10, 20876, Note_on_c, 8, 62, 0
10, 20876, Note_on_c, 8, 50, 0
10, 20880, Note_on_c, 8, 47, 87
10, 20880, Note_on_c, 8, 59, 87
10, 20940, Note_on_c, 8, 45, 91
10, 20940, Note_on_c, 8, 57, 91
10, 20943, Note_on_c, 8, 59, 0
10, 20943, Note_on_c, 8, 47, 0
10, 21000, Note_on_c, 8, 47, 113
10, 21000, Note_on_c, 8, 59, 113
10, 21008, Note_on_c, 8, 45, 0
10, 21008, Note_on_c, 8, 57, 0
10, 21060, Note_on_c, 8, 50, 98
10, 21060, Note_on_c, 8, 62, 98
10, 21063, Note_on_c, 8, 47, 0
10, 21063, Note_on_c, 8, 59, 0
10, 21120, Note_on_c, 8, 48, 98
10, 21120, Note_on_c, 8, 60, 98
10, 21127, Note_on_c, 8, 50, 0
10, 21127, Note_on_c, 8, 62, 0
10, 21180, Note_on_c, 8, 47, 105
10, 21180, Note_on_c, 8, 59, 105
10, 21188, Note_on_c, 8, 48, 0
10, 21188, Note_on_c, 8, 60, 0
10, 21240, Note_on_c, 8, 45, 102
10, 21240, Note_on_c, 8, 57, 102
10, 21252, Note_on_c, 8, 47, 0
10, 21252, Note_on_c, 8, 59, 0
10, 21359, Note_on_c, 8, 45, 0
10, 21359, Note_on_c, 8, 57, 0
10, 21360, Note_on_c, 8, 33, 107
10, 21360, Note_on_c, 8, 45, 107
10, 21491, Note_on_c, 8, 45, 0
10, 21491, Note_on_c, 8, 33, 0
10, 21600, Note_on_c, 8, 45, 102
10, 21600, Note_on_c, 8, 57, 102
10, 21718, Note_on_c, 8, 57, 0
10, 21718, Note_on_c, 8, 45, 0
10, 21720, Note_on_c, 8, 33, 110
10, 21720, Note_on_c, 8, 45, 110
10, 21837, Note_on_c, 8, 45, 0
10, 21837, Note_on_c, 8, 33, 0
10, 21960, Note_on_c, 8, 35, 105
10, 21960, Note_on_c, 8, 47, 105
10, 22072, Note_on_c, 8, 47, 0
10, 22072, Note_on_c, 8, 35, 0
10, 23700, Note_on_c, 8, 42, 107
10, 23700, Note_on_c, 8, 54, 107
10, 23758, Note_on_c, 8, 54, 0
10, 23758, Note_on_c, 8, 42, 0
10, 23760, Note_on_c, 8, 43, 105
10, 23760, Note_on_c, 8, 55, 105
10, 23820, Note_on_c, 8, 45, 107
10, 23820, Note_on_c, 8, 57, 107
10, 23825, Note_on_c, 8, 55, 0
10, 23825, Note_on_c, 8, 43, 0
10, 23879, Note_on_c, 8, 45, 0
10, 23879, Note_on_c, 8, 57, 0
10, 23880, Note_on_c, 8, 47, 107
10, 23880, Note_on_c, 8, 59, 107
10, 24000, Note_on_c, 8, 35, 116
10, 24000, Note_on_c, 8, 47, 116
10, 24004, Note_on_c, 8, 47, 0
10, 24004, Note_on_c, 8, 59, 0
10, 24118, Note_on_c, 8, 35, 0
10, 24118, Note_on_c, 8, 47, 0
10, 24120, Note_on_c, 8, 40, 116
10, 24120, Note_on_c, 8, 52, 116
10, 24360, Note_on_c, 8, 38, 119
10, 24360, Note_on_c, 8, 50, 119
10, 24368, Note_on_c, 8, 52, 0
10, 24368, Note_on_c, 8, 40, 0
10, 24478, Note_on_c, 8, 38, 0
10, 24478, Note_on_c, 8, 50, 0
10, 25320, Note_on_c, 8, 36, 110
10, 25320, Note_on_c, 8, 48, 110
10, 25560, Note_on_c, 8, 35, 102
10, 25560, Note_on_c, 8, 47, 102
10, 25568, Note_on_c, 8, 48, 0
10, 25568, Note_on_c, 8, 36, 0
10, 25920, Note_on_c, 8, 35, 0
10, 25920, Note_on_c, 8, 47, 0
10, 25920, End_track
11, 0, Start_track
11, 0, MIDI_port, 0
11, 0, End_track
12, 0, Start_track
12, 0, MIDI_port, 0
12, 0, Title_t, "Brandenburg"
12, 0, End_track
13, 0, Start_track
13, 0, MIDI_port, 0
13, 0, Title_t, "Concerto #4"
13, 0, End_track
14, 0, Start_track
14, 0, MIDI_port, 0
14, 0, Title_t, "by J.S.Bach"
14, 0, End_track
15, 0, Start_track
15, 0, MIDI_port, 0
15, 0, Title_t, "2nd Mvt."
15, 0, End_track
0, 0, End_of_file
