0, 0, Header, 1, 6, 1024
1, 0, Start_track
1, 0, Time_signature, 3, 1, 48, 8
1, 0, Key_signature, 1, "major"
1, 0, Tempo, 454545
1, 778241, End_track
2, 0, Start_track
2, 0, Title_t, "Instrument 1"
2, 0, Program_c, 0, 0
2, 0, Control_c, 0, 7, 127
2, 1024, Note_on_c, 0, 67, 96
2, 1536, Note_off_c, 0, 67, 0
2, 1536, Note_on_c, 0, 69, 96
2, 2048, Note_off_c, 0, 69, 0
2, 2048, Note_on_c, 0, 71, 96
2, 2560, Note_off_c, 0, 71, 0
2, 2560, Note_on_c, 0, 67, 96
2, 3072, Note_off_c, 0, 67, 0
2, 3072, Note_on_c, 0, 66, 96
2, 3584, Note_off_c, 0, 66, 0
2, 3584, Note_on_c, 0, 67, 96
2, 4096, Note_off_c, 0, 67, 0
2, 4096, Note_on_c, 0, 72, 96
2, 4608, Note_off_c, 0, 72, 0
2, 4608, Note_on_c, 0, 67, 96
2, 5120, Note_off_c, 0, 67, 0
2, 5120, Note_on_c, 0, 66, 96
2, 5632, Note_off_c, 0, 66, 0
2, 5632, Note_on_c, 0, 67, 96
2, 6144, Note_off_c, 0, 67, 0
2, 6144, Note_on_c, 0, 74, 96
2, 6656, Note_off_c, 0, 74, 0
2, 6656, Note_on_c, 0, 72, 96
2, 7168, Note_off_c, 0, 72, 0
2, 7168, Note_on_c, 0, 71, 96
2, 7680, Note_off_c, 0, 71, 0
2, 7680, Note_on_c, 0, 69, 96
2, 8192, Note_off_c, 0, 69, 0
2, 8192, Note_on_c, 0, 67, 96
2, 8704, Note_off_c, 0, 67, 0
2, 8704, Note_on_c, 0, 66, 96
2, 9216, Note_off_c, 0, 66, 0
2, 9216, Note_on_c, 0, 64, 96
2, 9728, Note_off_c, 0, 64, 0
2, 9728, Note_on_c, 0, 62, 96
2, 10240, Note_off_c, 0, 62, 0
2, 10240, Note_on_c, 0, 64, 96
2, 10752, Note_off_c, 0, 64, 0
2, 10752, Note_on_c, 0, 67, 96
2, 11264, Note_off_c, 0, 67, 0
2, 11264, Note_on_c, 0, 72, 96
2, 11776, Note_off_c, 0, 72, 0
2, 11776, Note_on_c, 0, 66, 96
2, 12288, Note_off_c, 0, 66, 0
2, 12288, Note_on_c, 0, 67, 96
2, 12800, Note_off_c, 0, 67, 0
2, 12800, Note_on_c, 0, 69, 96
2, 13312, Note_off_c, 0, 69, 0
2, 13312, Note_on_c, 0, 71, 96
2, 13824, Note_off_c, 0, 71, 0
2, 13824, Note_on_c, 0, 62, 96
2, 14336, Note_off_c, 0, 62, 0
2, 14336, Note_on_c, 0, 64, 96
2, 14848, Note_off_c, 0, 64, 0
2, 14848, Note_on_c, 0, 71, 96
2, 15360, Note_off_c, 0, 71, 0
2, 15360, Note_on_c, 0, 69, 96
2, 15872, Note_off_c, 0, 69, 0
2, 15872, Note_on_c, 0, 67, 96
2, 16384, Note_off_c, 0, 67, 0
2, 16384, Note_on_c, 0, 66, 96
2, 16896, Note_off_c, 0, 66, 0
2, 16896, Note_on_c, 0, 76, 96
2, 17408, Note_off_c, 0, 76, 0
2, 17408, Note_on_c, 0, 74, 96
2, 17920, Note_off_c, 0, 74, 0
2, 17920, Note_on_c, 0, 72, 96
2, 18432, Note_off_c, 0, 72, 0
2, 18432, Note_on_c, 0, 71, 96
2, 18944, Note_off_c, 0, 71, 0
2, 18944, Note_on_c, 0, 69, 96
2, 19456, Note_off_c, 0, 69, 0
2, 19456, Note_on_c, 0, 71, 96
2, 19968, Note_off_c, 0, 71, 0
2, 19968, Note_on_c, 0, 73, 96
2, 20480, Note_off_c, 0, 73, 0
2, 20480, Note_on_c, 0, 74, 96
2, 25088, Note_off_c, 0, 74, 0
2, 25088, Note_on_c, 0, 73, 96
2, 25600, Note_off_c, 0, 73, 0
2, 25600, Note_on_c, 0, 74, 96
2, 26112, Note_off_c, 0, 74, 0
2, 26112, Note_on_c, 0, 76, 96
2, 26624, Note_off_c, 0, 76, 0
2, 26624, Note_on_c, 0, 78, 96
2, 29184, Note_off_c, 0, 78, 0
2, 29696, Note_on_c, 0, 76, 96
2, 31232, Note_off_c, 0, 76, 0
2, 31744, Note_on_c, 0, 74, 96
2, 33280, Note_off_c, 0, 74, 0
2, 33280, Note_on_c, 0, 73, 96
2, 33792, Note_off_c, 0, 73, 0
2, 33792, Note_on_c, 0, 74, 96
2, 34304, Note_off_c, 0, 74, 0
2, 34304, Note_on_c, 0, 76, 96
2, 34811, Note_off_c, 0, 76, 0
2, 34816, Note_on_c, 0, 78, 96
2, 34944, Note_off_c, 0, 78, 0
2, 34944, Note_on_c, 0, 76, 96
2, 35072, Note_off_c, 0, 76, 0
2, 35072, Note_on_c, 0, 78, 96
2, 35200, Note_off_c, 0, 78, 0
2, 35200, Note_on_c, 0, 76, 96
2, 35328, Note_off_c, 0, 76, 0
2, 35328, Note_on_c, 0, 74, 96
2, 35456, Note_off_c, 0, 74, 0
2, 35456, Note_on_c, 0, 76, 96
2, 36859, Note_off_c, 0, 76, 0
2, 36864, Note_on_c, 0, 74, 96
2, 37376, Note_off_c, 0, 74, 0
2, 37376, Note_on_c, 0, 76, 96
2, 37888, Note_off_c, 0, 76, 0
2, 37888, Note_on_c, 0, 78, 96
2, 38400, Note_off_c, 0, 78, 0
2, 38400, Note_on_c, 0, 79, 96
2, 38912, Note_off_c, 0, 79, 0
2, 38912, Note_on_c, 0, 81, 96
2, 39424, Note_off_c, 0, 81, 0
2, 39424, Note_on_c, 0, 74, 96
2, 39936, Note_off_c, 0, 74, 0
2, 39936, Note_on_c, 0, 73, 96
2, 40448, Note_off_c, 0, 73, 0
2, 40448, Note_on_c, 0, 74, 96
2, 40960, Note_off_c, 0, 74, 0
2, 40960, Note_on_c, 0, 83, 96
2, 41472, Note_off_c, 0, 83, 0
2, 41472, Note_on_c, 0, 74, 96
2, 41984, Note_off_c, 0, 74, 0
2, 41984, Note_on_c, 0, 76, 96
2, 42496, Note_off_c, 0, 76, 0
2, 42496, Note_on_c, 0, 71, 96
2, 43008, Note_off_c, 0, 71, 0
2, 43008, Note_on_c, 0, 72, 96
2, 43520, Note_off_c, 0, 72, 0
2, 43520, Note_on_c, 0, 74, 96
2, 44032, Note_off_c, 0, 74, 0
2, 44032, Note_on_c, 0, 76, 96
2, 44544, Note_off_c, 0, 76, 0
2, 44544, Note_on_c, 0, 78, 96
2, 45056, Note_off_c, 0, 78, 0
2, 45056, Note_on_c, 0, 79, 96
2, 45568, Note_off_c, 0, 79, 0
2, 45568, Note_on_c, 0, 72, 96
2, 46080, Note_off_c, 0, 72, 0
2, 46080, Note_on_c, 0, 71, 96
2, 46592, Note_off_c, 0, 71, 0
2, 46592, Note_on_c, 0, 72, 96
2, 47104, Note_off_c, 0, 72, 0
2, 47104, Note_on_c, 0, 81, 96
2, 47616, Note_off_c, 0, 81, 0
2, 47616, Note_on_c, 0, 72, 96
2, 48128, Note_off_c, 0, 72, 0
2, 48128, Note_on_c, 0, 74, 96
2, 48640, Note_off_c, 0, 74, 0
2, 48640, Note_on_c, 0, 69, 96
2, 49152, Note_off_c, 0, 69, 0
2, 49152, Note_on_c, 0, 71, 96
2, 49664, Note_off_c, 0, 71, 0
2, 49664, Note_on_c, 0, 69, 96
2, 50176, Note_off_c, 0, 69, 0
2, 50176, Note_on_c, 0, 71, 96
2, 50688, Note_off_c, 0, 71, 0
2, 50688, Note_on_c, 0, 72, 96
2, 51200, Note_off_c, 0, 72, 0
2, 51200, Note_on_c, 0, 74, 96
2, 51712, Note_off_c, 0, 74, 0
2, 51712, Note_on_c, 0, 67, 96
2, 52224, Note_off_c, 0, 67, 0
2, 52224, Note_on_c, 0, 66, 96
2, 52736, Note_off_c, 0, 66, 0
2, 52736, Note_on_c, 0, 67, 96
2, 53248, Note_off_c, 0, 67, 0
2, 53248, Note_on_c, 0, 76, 96
2, 53760, Note_off_c, 0, 76, 0
2, 53760, Note_on_c, 0, 67, 96
2, 54272, Note_off_c, 0, 67, 0
2, 54272, Note_on_c, 0, 69, 96
2, 54784, Note_off_c, 0, 69, 0
2, 54784, Note_on_c, 0, 64, 96
2, 55296, Note_off_c, 0, 64, 0
2, 55296, Note_on_c, 0, 66, 96
2, 55808, Note_off_c, 0, 66, 0
2, 55808, Note_on_c, 0, 62, 96
2, 56320, Note_off_c, 0, 62, 0
2, 56320, Note_on_c, 0, 64, 96
2, 56832, Note_off_c, 0, 64, 0
2, 56832, Note_on_c, 0, 66, 96
2, 57344, Note_off_c, 0, 66, 0
2, 57344, Note_on_c, 0, 67, 96
2, 57856, Note_off_c, 0, 67, 0
2, 57856, Note_on_c, 0, 64, 96
2, 58368, Note_off_c, 0, 64, 0
2, 58368, Note_on_c, 0, 62, 96
2, 58880, Note_off_c, 0, 62, 0
2, 58880, Note_on_c, 0, 64, 96
2, 59392, Note_off_c, 0, 64, 0
2, 59392, Note_on_c, 0, 69, 96
2, 59904, Note_off_c, 0, 69, 0
2, 59904, Note_on_c, 0, 66, 96
2, 60416, Note_off_c, 0, 66, 0
2, 60416, Note_on_c, 0, 64, 96
2, 60928, Note_off_c, 0, 64, 0
2, 60928, Note_on_c, 0, 66, 96
2, 61440, Note_off_c, 0, 66, 0
2, 61440, Note_on_c, 0, 71, 96
2, 61952, Note_off_c, 0, 71, 0
2, 61952, Note_on_c, 0, 69, 96
2, 62464, Note_off_c, 0, 69, 0
2, 62464, Note_on_c, 0, 67, 96
2, 62976, Note_off_c, 0, 67, 0
2, 62976, Note_on_c, 0, 69, 96
2, 63488, Note_off_c, 0, 69, 0
2, 63488, Note_on_c, 0, 71, 96
2, 64000, Note_off_c, 0, 71, 0
2, 64000, Note_on_c, 0, 67, 96
2, 64512, Note_off_c, 0, 67, 0
2, 64512, Note_on_c, 0, 66, 96
2, 65024, Note_off_c, 0, 66, 0
2, 65024, Note_on_c, 0, 67, 96
2, 65536, Note_off_c, 0, 67, 0
2, 65536, Note_on_c, 0, 72, 96
2, 66048, Note_off_c, 0, 72, 0
2, 66048, Note_on_c, 0, 67, 96
2, 66560, Note_off_c, 0, 67, 0
2, 66560, Note_on_c, 0, 66, 96
2, 67072, Note_off_c, 0, 66, 0
2, 67072, Note_on_c, 0, 67, 96
2, 67584, Note_off_c, 0, 67, 0
2, 67584, Note_on_c, 0, 74, 96
2, 68096, Note_off_c, 0, 74, 0
2, 68096, Note_on_c, 0, 72, 96
2, 68608, Note_off_c, 0, 72, 0
2, 68608, Note_on_c, 0, 71, 96
2, 69120, Note_off_c, 0, 71, 0
2, 69120, Note_on_c, 0, 69, 96
2, 69632, Note_off_c, 0, 69, 0
2, 69632, Note_on_c, 0, 67, 96
2, 70144, Note_off_c, 0, 67, 0
2, 70144, Note_on_c, 0, 66, 96
2, 70656, Note_off_c, 0, 66, 0
2, 70656, Note_on_c, 0, 64, 96
2, 71168, Note_off_c, 0, 64, 0
2, 71168, Note_on_c, 0, 62, 96
2, 71680, Note_off_c, 0, 62, 0
2, 71680, Note_on_c, 0, 64, 96
2, 72192, Note_off_c, 0, 64, 0
2, 72192, Note_on_c, 0, 67, 96
2, 72704, Note_off_c, 0, 67, 0
2, 72704, Note_on_c, 0, 72, 96
2, 73216, Note_off_c, 0, 72, 0
2, 73216, Note_on_c, 0, 66, 96
2, 73728, Note_off_c, 0, 66, 0
2, 73728, Note_on_c, 0, 67, 96
2, 74240, Note_off_c, 0, 67, 0
2, 74240, Note_on_c, 0, 69, 96
2, 74752, Note_off_c, 0, 69, 0
2, 74752, Note_on_c, 0, 71, 96
2, 75264, Note_off_c, 0, 71, 0
2, 75264, Note_on_c, 0, 62, 96
2, 75776, Note_off_c, 0, 62, 0
2, 75776, Note_on_c, 0, 64, 96
2, 76288, Note_off_c, 0, 64, 0
2, 76288, Note_on_c, 0, 71, 96
2, 76800, Note_off_c, 0, 71, 0
2, 76800, Note_on_c, 0, 69, 96
2, 77312, Note_off_c, 0, 69, 0
2, 77312, Note_on_c, 0, 67, 96
2, 77824, Note_off_c, 0, 67, 0
2, 77824, Note_on_c, 0, 66, 96
2, 78336, Note_off_c, 0, 66, 0
2, 78336, Note_on_c, 0, 76, 96
2, 78848, Note_off_c, 0, 76, 0
2, 78848, Note_on_c, 0, 74, 96
2, 79360, Note_off_c, 0, 74, 0
2, 79360, Note_on_c, 0, 72, 96
2, 79872, Note_off_c, 0, 72, 0
2, 79872, Note_on_c, 0, 71, 96
2, 80384, Note_off_c, 0, 71, 0
2, 80384, Note_on_c, 0, 67, 96
2, 80896, Note_off_c, 0, 67, 0
2, 80896, Note_on_c, 0, 66, 96
2, 81408, Note_off_c, 0, 66, 0
2, 81408, Note_on_c, 0, 67, 96
2, 81920, Note_off_c, 0, 67, 0
2, 81920, Note_on_c, 0, 72, 96
2, 82432, Note_off_c, 0, 72, 0
2, 82432, Note_on_c, 0, 67, 96
2, 82944, Note_off_c, 0, 67, 0
2, 82944, Note_on_c, 0, 66, 96
2, 83456, Note_off_c, 0, 66, 0
2, 83456, Note_on_c, 0, 67, 96
2, 83968, Note_off_c, 0, 67, 0
2, 83968, Note_on_c, 0, 74, 96
2, 84480, Note_off_c, 0, 74, 0
2, 84480, Note_on_c, 0, 67, 96
2, 84992, Note_off_c, 0, 67, 0
2, 84992, Note_on_c, 0, 66, 96
2, 85504, Note_off_c, 0, 66, 0
2, 85504, Note_on_c, 0, 67, 96
2, 86016, Note_off_c, 0, 67, 0
2, 86016, Note_on_c, 0, 76, 96
2, 86528, Note_off_c, 0, 76, 0
2, 86528, Note_on_c, 0, 74, 96
2, 87040, Note_off_c, 0, 74, 0
2, 87040, Note_on_c, 0, 72, 96
2, 87552, Note_off_c, 0, 72, 0
2, 87552, Note_on_c, 0, 74, 96
2, 88064, Note_off_c, 0, 74, 0
2, 88064, Note_on_c, 0, 76, 96
2, 88576, Note_off_c, 0, 76, 0
2, 88576, Note_on_c, 0, 72, 96
2, 89088, Note_off_c, 0, 72, 0
2, 89088, Note_on_c, 0, 71, 96
2, 89600, Note_off_c, 0, 71, 0
2, 89600, Note_on_c, 0, 72, 96
2, 90112, Note_off_c, 0, 72, 0
2, 90112, Note_on_c, 0, 78, 96
2, 90624, Note_off_c, 0, 78, 0
2, 90624, Note_on_c, 0, 72, 96
2, 91136, Note_off_c, 0, 72, 0
2, 91136, Note_on_c, 0, 71, 96
2, 91648, Note_off_c, 0, 71, 0
2, 91648, Note_on_c, 0, 72, 96
2, 92160, Note_off_c, 0, 72, 0
2, 92160, Note_on_c, 0, 79, 96
2, 92672, Note_off_c, 0, 79, 0
2, 92672, Note_on_c, 0, 74, 96
2, 93184, Note_off_c, 0, 74, 0
2, 93184, Note_on_c, 0, 72, 96
2, 93696, Note_off_c, 0, 72, 0
2, 93696, Note_on_c, 0, 74, 96
2, 94208, Note_off_c, 0, 74, 0
2, 94208, Note_on_c, 0, 76, 96
2, 94720, Note_off_c, 0, 76, 0
2, 94720, Note_on_c, 0, 72, 96
2, 95232, Note_off_c, 0, 72, 0
2, 95232, Note_on_c, 0, 71, 96
2, 95744, Note_off_c, 0, 71, 0
2, 95744, Note_on_c, 0, 72, 96
2, 96256, Note_off_c, 0, 72, 0
2, 96256, Note_on_c, 0, 74, 96
2, 96768, Note_off_c, 0, 74, 0
2, 96768, Note_on_c, 0, 72, 96
2, 97280, Note_off_c, 0, 72, 0
2, 97280, Note_on_c, 0, 71, 96
2, 97792, Note_off_c, 0, 71, 0
2, 97792, Note_on_c, 0, 72, 96
2, 98304, Note_off_c, 0, 72, 0
2, 98304, Note_on_c, 0, 74, 96
2, 99328, Note_off_c, 0, 74, 0
2, 104960, Note_on_c, 0, 67, 96
2, 105472, Note_off_c, 0, 67, 0
2, 105472, Note_on_c, 0, 69, 96
2, 105984, Note_off_c, 0, 69, 0
2, 105984, Note_on_c, 0, 71, 96
2, 106496, Note_off_c, 0, 71, 0
2, 106496, Note_on_c, 0, 72, 96
2, 107008, Note_off_c, 0, 72, 0
2, 107008, Note_on_c, 0, 67, 96
2, 107520, Note_off_c, 0, 67, 0
2, 107520, Note_on_c, 0, 66, 96
2, 108032, Note_off_c, 0, 66, 0
2, 108032, Note_on_c, 0, 67, 96
2, 108544, Note_off_c, 0, 67, 0
2, 108544, Note_on_c, 0, 74, 96
2, 109056, Note_off_c, 0, 74, 0
2, 109056, Note_on_c, 0, 65, 96
2, 109568, Note_off_c, 0, 65, 0
2, 109568, Note_on_c, 0, 67, 96
2, 110080, Note_off_c, 0, 67, 0
2, 110080, Note_on_c, 0, 62, 96
2, 110592, Note_off_c, 0, 62, 0
2, 110592, Note_on_c, 0, 64, 96
2, 111616, Note_off_c, 0, 64, 0
2, 117248, Note_on_c, 0, 69, 96
2, 117760, Note_off_c, 0, 69, 0
2, 117760, Note_on_c, 0, 71, 96
2, 118272, Note_off_c, 0, 71, 0
2, 118272, Note_on_c, 0, 72, 96
2, 118784, Note_off_c, 0, 72, 0
2, 118784, Note_on_c, 0, 74, 96
2, 119296, Note_off_c, 0, 74, 0
2, 119296, Note_on_c, 0, 69, 96
2, 119808, Note_off_c, 0, 69, 0
2, 119808, Note_on_c, 0, 68, 96
2, 120320, Note_off_c, 0, 68, 0
2, 120320, Note_on_c, 0, 69, 96
2, 120832, Note_off_c, 0, 69, 0
2, 120832, Note_on_c, 0, 76, 96
2, 121344, Note_off_c, 0, 76, 0
2, 121344, Note_on_c, 0, 67, 96
2, 121856, Note_off_c, 0, 67, 0
2, 121856, Note_on_c, 0, 69, 96
2, 122368, Note_off_c, 0, 69, 0
2, 122368, Note_on_c, 0, 64, 96
2, 122880, Note_off_c, 0, 64, 0
2, 122880, Note_on_c, 0, 66, 96
2, 123392, Note_off_c, 0, 66, 0
2, 123392, Note_on_c, 0, 67, 96
2, 123904, Note_off_c, 0, 67, 0
2, 123904, Note_on_c, 0, 66, 96
2, 124416, Note_off_c, 0, 66, 0
2, 124416, Note_on_c, 0, 67, 96
2, 124928, Note_off_c, 0, 67, 0
2, 124928, Note_on_c, 0, 69, 96
2, 127488, Note_off_c, 0, 69, 0
2, 127488, Note_on_c, 0, 72, 96
2, 128000, Note_off_c, 0, 72, 0
2, 128000, Note_on_c, 0, 71, 96
2, 128512, Note_off_c, 0, 71, 0
2, 128512, Note_on_c, 0, 69, 96
2, 129024, Note_off_c, 0, 69, 0
2, 129024, Note_on_c, 0, 67, 96
2, 131072, Note_off_c, 0, 67, 0
2, 132096, Note_on_c, 0, 79, 96
2, 133120, Note_off_c, 0, 79, 0
2, 133120, Note_on_c, 0, 78, 96
2, 133632, Note_off_c, 0, 78, 0
2, 133632, Note_on_c, 0, 76, 96
2, 134144, Note_off_c, 0, 76, 0
2, 134144, Note_on_c, 0, 75, 96
2, 134656, Note_off_c, 0, 75, 0
2, 134656, Note_on_c, 0, 76, 96
2, 135168, Note_off_c, 0, 76, 0
2, 135168, Note_on_c, 0, 75, 96
2, 136704, Note_off_c, 0, 75, 0
2, 136704, Note_on_c, 0, 76, 96
2, 137216, Note_off_c, 0, 76, 0
2, 137216, Note_on_c, 0, 78, 96
2, 138240, Note_off_c, 0, 78, 0
2, 139264, Note_on_c, 0, 79, 96
2, 140288, Note_off_c, 0, 79, 0
2, 141312, Note_on_c, 0, 81, 96
2, 143872, Note_off_c, 0, 81, 0
2, 143872, Note_on_c, 0, 84, 96
2, 144384, Note_off_c, 0, 84, 0
2, 144384, Note_on_c, 0, 83, 96
2, 144896, Note_off_c, 0, 83, 0
2, 144896, Note_on_c, 0, 81, 96
2, 145408, Note_off_c, 0, 81, 0
2, 145408, Note_on_c, 0, 79, 96
2, 145920, Note_off_c, 0, 79, 0
2, 145920, Note_on_c, 0, 78, 96
2, 146432, Note_off_c, 0, 78, 0
2, 146432, Note_on_c, 0, 76, 96
2, 146944, Note_off_c, 0, 76, 0
2, 146944, Note_on_c, 0, 74, 96
2, 147456, Note_off_c, 0, 74, 0
2, 147456, Note_on_c, 0, 72, 96
2, 149504, Note_off_c, 0, 72, 0
2, 150528, Note_on_c, 0, 72, 96
2, 152064, Note_off_c, 0, 72, 0
2, 152064, Note_on_c, 0, 72, 96
2, 152576, Note_off_c, 0, 72, 0
2, 152576, Note_on_c, 0, 71, 96
2, 153088, Note_off_c, 0, 71, 0
2, 153088, Note_on_c, 0, 69, 96
2, 153600, Note_off_c, 0, 69, 0
2, 153600, Note_on_c, 0, 67, 96
2, 154624, Note_off_c, 0, 67, 0
2, 154624, Note_on_c, 0, 69, 96
2, 155648, Note_off_c, 0, 69, 0
2, 155648, Note_on_c, 0, 71, 96
2, 156672, Note_off_c, 0, 71, 0
2, 156672, Note_on_c, 0, 72, 96
2, 157696, Note_off_c, 0, 72, 0
2, 158208, Note_on_c, 0, 64, 96
2, 158720, Note_off_c, 0, 64, 0
2, 158720, Note_on_c, 0, 66, 96
2, 159232, Note_off_c, 0, 66, 0
2, 159232, Note_on_c, 0, 63, 96
2, 159744, Note_off_c, 0, 63, 0
2, 159744, Note_on_c, 0, 64, 96
2, 160256, Note_off_c, 0, 64, 0
2, 160256, Note_on_c, 0, 71, 96
2, 160768, Note_off_c, 0, 71, 0
2, 160768, Note_on_c, 0, 73, 96
2, 161280, Note_off_c, 0, 73, 0
2, 161280, Note_on_c, 0, 75, 96
2, 161792, Note_off_c, 0, 75, 0
2, 161792, Note_on_c, 0, 76, 96
2, 162304, Note_off_c, 0, 76, 0
2, 162304, Note_on_c, 0, 71, 96
2, 162816, Note_off_c, 0, 71, 0
2, 162816, Note_on_c, 0, 69, 96
2, 163328, Note_off_c, 0, 69, 0
2, 163328, Note_on_c, 0, 71, 96
2, 163840, Note_off_c, 0, 71, 0
2, 163840, Note_on_c, 0, 78, 96
2, 164352, Note_off_c, 0, 78, 0
2, 164352, Note_on_c, 0, 71, 96
2, 164864, Note_off_c, 0, 71, 0
2, 164864, Note_on_c, 0, 69, 96
2, 165376, Note_off_c, 0, 69, 0
2, 165376, Note_on_c, 0, 71, 96
2, 165888, Note_off_c, 0, 71, 0
2, 165888, Note_on_c, 0, 79, 96
2, 166400, Note_off_c, 0, 79, 0
2, 166400, Note_on_c, 0, 78, 96
2, 166912, Note_off_c, 0, 78, 0
2, 166912, Note_on_c, 0, 76, 96
2, 167424, Note_off_c, 0, 76, 0
2, 167424, Note_on_c, 0, 74, 96
2, 167936, Note_off_c, 0, 74, 0
2, 167936, Note_on_c, 0, 72, 96
2, 168448, Note_off_c, 0, 72, 0
2, 168448, Note_on_c, 0, 71, 96
2, 168960, Note_off_c, 0, 71, 0
2, 168960, Note_on_c, 0, 69, 96
2, 169472, Note_off_c, 0, 69, 0
2, 169472, Note_on_c, 0, 67, 96
2, 169984, Note_off_c, 0, 67, 0
2, 169984, Note_on_c, 0, 72, 96
2, 170496, Note_off_c, 0, 72, 0
2, 170496, Note_on_c, 0, 76, 96
2, 171008, Note_off_c, 0, 76, 0
2, 171008, Note_on_c, 0, 74, 96
2, 171520, Note_off_c, 0, 74, 0
2, 171520, Note_on_c, 0, 77, 96
2, 172032, Note_off_c, 0, 77, 0
2, 172032, Note_on_c, 0, 76, 96
2, 172544, Note_off_c, 0, 76, 0
2, 172544, Note_on_c, 0, 81, 96
2, 173056, Note_off_c, 0, 81, 0
2, 173056, Note_on_c, 0, 79, 96
2, 173568, Note_off_c, 0, 79, 0
2, 173568, Note_on_c, 0, 77, 96
2, 174080, Note_off_c, 0, 77, 0
2, 174080, Note_on_c, 0, 76, 96
2, 174592, Note_off_c, 0, 76, 0
2, 174592, Note_on_c, 0, 74, 96
2, 175104, Note_off_c, 0, 74, 0
2, 175104, Note_on_c, 0, 72, 96
2, 175616, Note_off_c, 0, 72, 0
2, 175616, Note_on_c, 0, 71, 96
2, 176128, Note_off_c, 0, 71, 0
2, 176128, Note_on_c, 0, 69, 96
2, 176640, Note_off_c, 0, 69, 0
2, 176640, Note_on_c, 0, 72, 96
2, 177152, Note_off_c, 0, 72, 0
2, 177152, Note_on_c, 0, 76, 96
2, 177664, Note_off_c, 0, 76, 0
2, 177664, Note_on_c, 0, 67, 96
2, 178176, Note_off_c, 0, 67, 0
2, 178176, Note_on_c, 0, 66, 96
2, 179200, Note_off_c, 0, 66, 0
2, 184832, Note_on_c, 0, 67, 96
2, 185344, Note_off_c, 0, 67, 0
2, 185344, Note_on_c, 0, 69, 96
2, 185856, Note_off_c, 0, 69, 0
2, 185856, Note_on_c, 0, 71, 96
2, 186368, Note_off_c, 0, 71, 0
2, 186368, Note_on_c, 0, 72, 96
2, 186880, Note_off_c, 0, 72, 0
2, 186880, Note_on_c, 0, 69, 96
2, 187392, Note_off_c, 0, 69, 0
2, 187392, Note_on_c, 0, 71, 96
2, 187904, Note_off_c, 0, 71, 0
2, 187904, Note_on_c, 0, 72, 96
2, 188416, Note_off_c, 0, 72, 0
2, 188416, Note_on_c, 0, 74, 96
2, 197632, Note_off_c, 0, 74, 0
2, 197632, Note_on_c, 0, 76, 96
2, 198656, Note_off_c, 0, 76, 0
2, 198656, Note_on_c, 0, 78, 96
2, 199680, Note_off_c, 0, 78, 0
2, 199680, Note_on_c, 0, 79, 96
2, 201728, Note_off_c, 0, 79, 0
2, 201728, Note_on_c, 0, 78, 96
2, 202752, Note_off_c, 0, 78, 0
2, 202752, Note_on_c, 0, 79, 96
2, 203264, Note_off_c, 0, 79, 0
2, 203776, Note_on_c, 0, 67, 96
2, 204288, Note_off_c, 0, 67, 0
2, 204288, Note_on_c, 0, 69, 96
2, 204800, Note_off_c, 0, 69, 0
2, 204800, Note_on_c, 0, 71, 96
2, 205312, Note_off_c, 0, 71, 0
2, 205312, Note_on_c, 0, 67, 96
2, 205824, Note_off_c, 0, 67, 0
2, 205824, Note_on_c, 0, 66, 96
2, 206336, Note_off_c, 0, 66, 0
2, 206336, Note_on_c, 0, 67, 96
2, 206848, Note_off_c, 0, 67, 0
2, 206848, Note_on_c, 0, 72, 96
2, 207360, Note_off_c, 0, 72, 0
2, 207360, Note_on_c, 0, 67, 96
2, 207872, Note_off_c, 0, 67, 0
2, 207872, Note_on_c, 0, 66, 96
2, 208384, Note_off_c, 0, 66, 0
2, 208384, Note_on_c, 0, 67, 96
2, 208896, Note_off_c, 0, 67, 0
2, 208896, Note_on_c, 0, 74, 96
2, 209408, Note_off_c, 0, 74, 0
2, 209408, Note_on_c, 0, 72, 96
2, 209920, Note_off_c, 0, 72, 0
2, 209920, Note_on_c, 0, 71, 96
2, 210432, Note_off_c, 0, 71, 0
2, 210432, Note_on_c, 0, 69, 96
2, 210944, Note_off_c, 0, 69, 0
2, 210944, Note_on_c, 0, 67, 96
2, 211456, Note_off_c, 0, 67, 0
2, 211456, Note_on_c, 0, 66, 96
2, 211968, Note_off_c, 0, 66, 0
2, 211968, Note_on_c, 0, 64, 96
2, 212480, Note_off_c, 0, 64, 0
2, 212480, Note_on_c, 0, 62, 96
2, 212992, Note_off_c, 0, 62, 0
2, 212992, Note_on_c, 0, 64, 96
2, 213504, Note_off_c, 0, 64, 0
2, 213504, Note_on_c, 0, 67, 96
2, 214016, Note_off_c, 0, 67, 0
2, 214016, Note_on_c, 0, 72, 96
2, 214528, Note_off_c, 0, 72, 0
2, 214528, Note_on_c, 0, 66, 96
2, 215040, Note_off_c, 0, 66, 0
2, 215040, Note_on_c, 0, 67, 96
2, 215552, Note_off_c, 0, 67, 0
2, 215552, Note_on_c, 0, 69, 96
2, 216064, Note_off_c, 0, 69, 0
2, 216064, Note_on_c, 0, 71, 96
2, 216576, Note_off_c, 0, 71, 0
2, 216576, Note_on_c, 0, 62, 96
2, 217088, Note_off_c, 0, 62, 0
2, 217088, Note_on_c, 0, 64, 96
2, 217600, Note_off_c, 0, 64, 0
2, 217600, Note_on_c, 0, 71, 96
2, 218112, Note_off_c, 0, 71, 0
2, 218112, Note_on_c, 0, 69, 96
2, 218624, Note_off_c, 0, 69, 0
2, 218624, Note_on_c, 0, 67, 96
2, 219136, Note_off_c, 0, 67, 0
2, 219136, Note_on_c, 0, 66, 96
2, 219648, Note_off_c, 0, 66, 0
2, 219648, Note_on_c, 0, 76, 96
2, 220160, Note_off_c, 0, 76, 0
2, 220160, Note_on_c, 0, 74, 96
2, 220672, Note_off_c, 0, 74, 0
2, 220672, Note_on_c, 0, 72, 96
2, 221184, Note_off_c, 0, 72, 0
2, 221184, Note_on_c, 0, 71, 96
2, 221696, Note_off_c, 0, 71, 0
2, 221696, Note_on_c, 0, 69, 96
2, 222208, Note_off_c, 0, 69, 0
2, 222208, Note_on_c, 0, 71, 96
2, 222720, Note_off_c, 0, 71, 0
2, 222720, Note_on_c, 0, 73, 96
2, 223232, Note_off_c, 0, 73, 0
2, 223232, Note_on_c, 0, 74, 96
2, 227840, Note_off_c, 0, 74, 0
2, 227840, Note_on_c, 0, 73, 96
2, 228352, Note_off_c, 0, 73, 0
2, 228352, Note_on_c, 0, 74, 96
2, 228864, Note_off_c, 0, 74, 0
2, 228864, Note_on_c, 0, 76, 96
2, 229376, Note_off_c, 0, 76, 0
2, 229376, Note_on_c, 0, 78, 96
2, 231936, Note_off_c, 0, 78, 0
2, 232448, Note_on_c, 0, 76, 96
2, 233984, Note_off_c, 0, 76, 0
2, 234496, Note_on_c, 0, 74, 96
2, 236032, Note_off_c, 0, 74, 0
2, 236032, Note_on_c, 0, 73, 96
2, 236544, Note_off_c, 0, 73, 0
2, 236544, Note_on_c, 0, 74, 96
2, 237056, Note_off_c, 0, 74, 0
2, 237056, Note_on_c, 0, 76, 96
2, 237563, Note_off_c, 0, 76, 0
2, 237568, Note_on_c, 0, 78, 96
2, 237696, Note_off_c, 0, 78, 0
2, 237696, Note_on_c, 0, 76, 96
2, 237824, Note_off_c, 0, 76, 0
2, 237824, Note_on_c, 0, 78, 96
2, 237952, Note_off_c, 0, 78, 0
2, 237952, Note_on_c, 0, 76, 96
2, 238080, Note_off_c, 0, 76, 0
2, 238080, Note_on_c, 0, 74, 96
2, 238208, Note_off_c, 0, 74, 0
2, 238208, Note_on_c, 0, 76, 96
2, 239611, Note_off_c, 0, 76, 0
2, 239616, Note_on_c, 0, 74, 96
2, 240128, Note_off_c, 0, 74, 0
2, 240128, Note_on_c, 0, 76, 96
2, 240640, Note_off_c, 0, 76, 0
2, 240640, Note_on_c, 0, 78, 96
2, 241152, Note_off_c, 0, 78, 0
2, 241152, Note_on_c, 0, 79, 96
2, 241664, Note_off_c, 0, 79, 0
2, 241664, Note_on_c, 0, 81, 96
2, 242176, Note_off_c, 0, 81, 0
2, 242176, Note_on_c, 0, 74, 96
2, 242688, Note_off_c, 0, 74, 0
2, 242688, Note_on_c, 0, 73, 96
2, 243200, Note_off_c, 0, 73, 0
2, 243200, Note_on_c, 0, 74, 96
2, 243712, Note_off_c, 0, 74, 0
2, 243712, Note_on_c, 0, 83, 96
2, 244224, Note_off_c, 0, 83, 0
2, 244224, Note_on_c, 0, 74, 96
2, 244736, Note_off_c, 0, 74, 0
2, 244736, Note_on_c, 0, 76, 96
2, 245248, Note_off_c, 0, 76, 0
2, 245248, Note_on_c, 0, 71, 96
2, 245760, Note_off_c, 0, 71, 0
2, 245760, Note_on_c, 0, 72, 96
2, 246272, Note_off_c, 0, 72, 0
2, 246272, Note_on_c, 0, 74, 96
2, 246784, Note_off_c, 0, 74, 0
2, 246784, Note_on_c, 0, 76, 96
2, 247296, Note_off_c, 0, 76, 0
2, 247296, Note_on_c, 0, 78, 96
2, 247808, Note_off_c, 0, 78, 0
2, 247808, Note_on_c, 0, 79, 96
2, 248320, Note_off_c, 0, 79, 0
2, 248320, Note_on_c, 0, 72, 96
2, 248832, Note_off_c, 0, 72, 0
2, 248832, Note_on_c, 0, 71, 96
2, 249344, Note_off_c, 0, 71, 0
2, 249344, Note_on_c, 0, 72, 96
2, 249856, Note_off_c, 0, 72, 0
2, 249856, Note_on_c, 0, 81, 96
2, 250368, Note_off_c, 0, 81, 0
2, 250368, Note_on_c, 0, 72, 96
2, 250880, Note_off_c, 0, 72, 0
2, 250880, Note_on_c, 0, 74, 96
2, 251392, Note_off_c, 0, 74, 0
2, 251392, Note_on_c, 0, 69, 96
2, 251904, Note_off_c, 0, 69, 0
2, 251904, Note_on_c, 0, 71, 96
2, 252416, Note_off_c, 0, 71, 0
2, 252416, Note_on_c, 0, 69, 96
2, 252928, Note_off_c, 0, 69, 0
2, 252928, Note_on_c, 0, 71, 96
2, 253440, Note_off_c, 0, 71, 0
2, 253440, Note_on_c, 0, 72, 96
2, 253952, Note_off_c, 0, 72, 0
2, 253952, Note_on_c, 0, 74, 96
2, 254464, Note_off_c, 0, 74, 0
2, 254464, Note_on_c, 0, 67, 96
2, 254976, Note_off_c, 0, 67, 0
2, 254976, Note_on_c, 0, 66, 96
2, 255488, Note_off_c, 0, 66, 0
2, 255488, Note_on_c, 0, 67, 96
2, 256000, Note_off_c, 0, 67, 0
2, 256000, Note_on_c, 0, 76, 96
2, 256512, Note_off_c, 0, 76, 0
2, 256512, Note_on_c, 0, 67, 96
2, 257024, Note_off_c, 0, 67, 0
2, 257024, Note_on_c, 0, 69, 96
2, 257536, Note_off_c, 0, 69, 0
2, 257536, Note_on_c, 0, 64, 96
2, 258048, Note_on_c, 0, 66, 96
2, 258560, Note_off_c, 0, 64, 0
2, 258560, Note_off_c, 0, 66, 0
2, 258560, Note_on_c, 0, 62, 96
2, 259072, Note_off_c, 0, 62, 0
2, 259072, Note_on_c, 0, 64, 96
2, 259584, Note_off_c, 0, 64, 0
2, 259584, Note_on_c, 0, 66, 96
2, 260096, Note_off_c, 0, 66, 0
2, 260096, Note_on_c, 0, 67, 96
2, 260608, Note_off_c, 0, 67, 0
2, 260608, Note_on_c, 0, 64, 96
2, 261120, Note_off_c, 0, 64, 0
2, 261120, Note_on_c, 0, 62, 96
2, 261632, Note_off_c, 0, 62, 0
2, 261632, Note_on_c, 0, 64, 96
2, 262144, Note_off_c, 0, 64, 0
2, 262144, Note_on_c, 0, 69, 96
2, 262656, Note_off_c, 0, 69, 0
2, 262656, Note_on_c, 0, 66, 96
2, 263168, Note_off_c, 0, 66, 0
2, 263168, Note_on_c, 0, 64, 96
2, 263680, Note_off_c, 0, 64, 0
2, 263680, Note_on_c, 0, 66, 96
2, 264192, Note_off_c, 0, 66, 0
2, 264192, Note_on_c, 0, 71, 96
2, 264704, Note_off_c, 0, 71, 0
2, 264704, Note_on_c, 0, 69, 96
2, 265216, Note_off_c, 0, 69, 0
2, 265216, Note_on_c, 0, 67, 96
2, 265728, Note_off_c, 0, 67, 0
2, 265728, Note_on_c, 0, 69, 96
2, 266240, Note_off_c, 0, 69, 0
2, 266240, Note_on_c, 0, 71, 96
2, 266752, Note_off_c, 0, 71, 0
2, 266752, Note_on_c, 0, 67, 96
2, 267264, Note_off_c, 0, 67, 0
2, 267264, Note_on_c, 0, 66, 96
2, 267776, Note_off_c, 0, 66, 0
2, 267776, Note_on_c, 0, 67, 96
2, 268288, Note_off_c, 0, 67, 0
2, 268288, Note_on_c, 0, 72, 96
2, 268800, Note_off_c, 0, 72, 0
2, 268800, Note_on_c, 0, 67, 96
2, 269312, Note_off_c, 0, 67, 0
2, 269312, Note_on_c, 0, 66, 96
2, 269824, Note_off_c, 0, 66, 0
2, 269824, Note_on_c, 0, 67, 96
2, 270336, Note_off_c, 0, 67, 0
2, 270336, Note_on_c, 0, 74, 96
2, 270848, Note_off_c, 0, 74, 0
2, 270848, Note_on_c, 0, 72, 96
2, 271360, Note_off_c, 0, 72, 0
2, 271360, Note_on_c, 0, 71, 96
2, 271872, Note_off_c, 0, 71, 0
2, 271872, Note_on_c, 0, 69, 96
2, 272384, Note_off_c, 0, 69, 0
2, 272384, Note_on_c, 0, 67, 96
2, 272896, Note_off_c, 0, 67, 0
2, 272896, Note_on_c, 0, 66, 96
2, 273408, Note_off_c, 0, 66, 0
2, 273408, Note_on_c, 0, 64, 96
2, 273920, Note_off_c, 0, 64, 0
2, 273920, Note_on_c, 0, 62, 96
2, 274432, Note_off_c, 0, 62, 0
2, 274432, Note_on_c, 0, 64, 96
2, 274944, Note_off_c, 0, 64, 0
2, 274944, Note_on_c, 0, 67, 96
2, 275456, Note_off_c, 0, 67, 0
2, 275456, Note_on_c, 0, 72, 96
2, 275968, Note_off_c, 0, 72, 0
2, 275968, Note_on_c, 0, 66, 96
2, 276480, Note_off_c, 0, 66, 0
2, 276480, Note_on_c, 0, 67, 96
2, 276992, Note_off_c, 0, 67, 0
2, 276992, Note_on_c, 0, 69, 96
2, 277504, Note_off_c, 0, 69, 0
2, 277504, Note_on_c, 0, 71, 96
2, 278016, Note_off_c, 0, 71, 0
2, 278016, Note_on_c, 0, 62, 96
2, 278528, Note_off_c, 0, 62, 0
2, 278528, Note_on_c, 0, 64, 96
2, 279040, Note_off_c, 0, 64, 0
2, 279040, Note_on_c, 0, 71, 96
2, 279552, Note_off_c, 0, 71, 0
2, 279552, Note_on_c, 0, 69, 96
2, 280064, Note_off_c, 0, 69, 0
2, 280064, Note_on_c, 0, 67, 96
2, 280576, Note_off_c, 0, 67, 0
2, 280576, Note_on_c, 0, 66, 96
2, 281088, Note_off_c, 0, 66, 0
2, 281088, Note_on_c, 0, 76, 96
2, 281600, Note_off_c, 0, 76, 0
2, 281600, Note_on_c, 0, 74, 96
2, 282112, Note_off_c, 0, 74, 0
2, 282112, Note_on_c, 0, 72, 96
2, 282624, Note_off_c, 0, 72, 0
2, 282624, Note_on_c, 0, 71, 96
2, 283136, Note_off_c, 0, 71, 0
2, 283136, Note_on_c, 0, 67, 96
2, 283648, Note_off_c, 0, 67, 0
2, 283648, Note_on_c, 0, 66, 96
2, 284160, Note_off_c, 0, 66, 0
2, 284160, Note_on_c, 0, 67, 96
2, 284672, Note_off_c, 0, 67, 0
2, 284672, Note_on_c, 0, 72, 96
2, 285184, Note_off_c, 0, 72, 0
2, 285184, Note_on_c, 0, 67, 96
2, 285696, Note_off_c, 0, 67, 0
2, 285696, Note_on_c, 0, 66, 96
2, 286208, Note_off_c, 0, 66, 0
2, 286208, Note_on_c, 0, 67, 96
2, 286720, Note_off_c, 0, 67, 0
2, 286720, Note_on_c, 0, 74, 96
2, 287232, Note_off_c, 0, 74, 0
2, 287232, Note_on_c, 0, 67, 96
2, 287744, Note_off_c, 0, 67, 0
2, 287744, Note_on_c, 0, 66, 96
2, 288256, Note_off_c, 0, 66, 0
2, 288256, Note_on_c, 0, 67, 96
2, 288768, Note_off_c, 0, 67, 0
2, 288768, Note_on_c, 0, 76, 96
2, 289280, Note_off_c, 0, 76, 0
2, 289280, Note_on_c, 0, 74, 96
2, 289792, Note_off_c, 0, 74, 0
2, 289792, Note_on_c, 0, 72, 96
2, 290304, Note_off_c, 0, 72, 0
2, 290304, Note_on_c, 0, 74, 96
2, 290816, Note_off_c, 0, 74, 0
2, 290816, Note_on_c, 0, 76, 96
2, 291328, Note_off_c, 0, 76, 0
2, 291328, Note_on_c, 0, 72, 96
2, 291840, Note_off_c, 0, 72, 0
2, 291840, Note_on_c, 0, 71, 96
2, 292352, Note_off_c, 0, 71, 0
2, 292352, Note_on_c, 0, 72, 96
2, 292864, Note_off_c, 0, 72, 0
2, 292864, Note_on_c, 0, 78, 96
2, 293376, Note_off_c, 0, 78, 0
2, 293376, Note_on_c, 0, 72, 96
2, 293888, Note_off_c, 0, 72, 0
2, 293888, Note_on_c, 0, 71, 96
2, 294400, Note_off_c, 0, 71, 0
2, 294400, Note_on_c, 0, 72, 96
2, 294912, Note_off_c, 0, 72, 0
2, 294912, Note_on_c, 0, 79, 96
2, 295424, Note_off_c, 0, 79, 0
2, 295424, Note_on_c, 0, 74, 96
2, 295936, Note_off_c, 0, 74, 0
2, 295936, Note_on_c, 0, 72, 96
2, 296448, Note_off_c, 0, 72, 0
2, 296448, Note_on_c, 0, 74, 96
2, 296960, Note_off_c, 0, 74, 0
2, 296960, Note_on_c, 0, 76, 96
2, 297472, Note_off_c, 0, 76, 0
2, 297472, Note_on_c, 0, 72, 96
2, 297984, Note_off_c, 0, 72, 0
2, 297984, Note_on_c, 0, 71, 96
2, 298496, Note_off_c, 0, 71, 0
2, 298496, Note_on_c, 0, 72, 96
2, 299008, Note_off_c, 0, 72, 0
2, 299008, Note_on_c, 0, 74, 96
2, 299520, Note_off_c, 0, 74, 0
2, 299520, Note_on_c, 0, 72, 96
2, 300032, Note_off_c, 0, 72, 0
2, 300032, Note_on_c, 0, 71, 96
2, 300544, Note_off_c, 0, 71, 0
2, 300544, Note_on_c, 0, 72, 96
2, 301056, Note_off_c, 0, 72, 0
2, 301056, Note_on_c, 0, 74, 96
2, 302080, Note_off_c, 0, 74, 0
2, 307712, Note_on_c, 0, 67, 96
2, 308224, Note_off_c, 0, 67, 0
2, 308224, Note_on_c, 0, 69, 96
2, 308736, Note_off_c, 0, 69, 0
2, 308736, Note_on_c, 0, 71, 96
2, 309248, Note_off_c, 0, 71, 0
2, 309248, Note_on_c, 0, 72, 96
2, 309760, Note_off_c, 0, 72, 0
2, 309760, Note_on_c, 0, 67, 96
2, 310272, Note_off_c, 0, 67, 0
2, 310272, Note_on_c, 0, 66, 96
2, 310784, Note_off_c, 0, 66, 0
2, 310784, Note_on_c, 0, 67, 96
2, 311296, Note_off_c, 0, 67, 0
2, 311296, Note_on_c, 0, 74, 96
2, 311808, Note_off_c, 0, 74, 0
2, 311808, Note_on_c, 0, 65, 96
2, 312320, Note_off_c, 0, 65, 0
2, 312320, Note_on_c, 0, 67, 96
2, 312832, Note_off_c, 0, 67, 0
2, 312832, Note_on_c, 0, 62, 96
2, 313344, Note_off_c, 0, 62, 0
2, 313344, Note_on_c, 0, 64, 96
2, 314368, Note_off_c, 0, 64, 0
2, 320000, Note_on_c, 0, 69, 96
2, 320512, Note_off_c, 0, 69, 0
2, 320512, Note_on_c, 0, 71, 96
2, 321024, Note_off_c, 0, 71, 0
2, 321024, Note_on_c, 0, 72, 96
2, 321536, Note_off_c, 0, 72, 0
2, 321536, Note_on_c, 0, 74, 96
2, 322048, Note_off_c, 0, 74, 0
2, 322048, Note_on_c, 0, 69, 96
2, 322560, Note_off_c, 0, 69, 0
2, 322560, Note_on_c, 0, 68, 96
2, 323072, Note_off_c, 0, 68, 0
2, 323072, Note_on_c, 0, 69, 96
2, 323584, Note_off_c, 0, 69, 0
2, 323584, Note_on_c, 0, 76, 96
2, 324096, Note_off_c, 0, 76, 0
2, 324096, Note_on_c, 0, 67, 96
2, 324608, Note_off_c, 0, 67, 0
2, 324608, Note_on_c, 0, 69, 96
2, 325120, Note_off_c, 0, 69, 0
2, 325120, Note_on_c, 0, 64, 96
2, 325632, Note_off_c, 0, 64, 0
2, 325632, Note_on_c, 0, 66, 96
2, 326144, Note_off_c, 0, 66, 0
2, 326144, Note_on_c, 0, 67, 96
2, 326656, Note_off_c, 0, 67, 0
2, 326656, Note_on_c, 0, 66, 96
2, 327168, Note_off_c, 0, 66, 0
2, 327168, Note_on_c, 0, 67, 96
2, 327680, Note_off_c, 0, 67, 0
2, 327680, Note_on_c, 0, 69, 96
2, 330240, Note_off_c, 0, 69, 0
2, 330240, Note_on_c, 0, 72, 96
2, 330752, Note_off_c, 0, 72, 0
2, 330752, Note_on_c, 0, 71, 96
2, 331264, Note_off_c, 0, 71, 0
2, 331264, Note_on_c, 0, 69, 96
2, 331776, Note_off_c, 0, 69, 0
2, 331776, Note_on_c, 0, 67, 96
2, 333824, Note_off_c, 0, 67, 0
2, 334848, Note_on_c, 0, 79, 96
2, 335872, Note_off_c, 0, 79, 0
2, 335872, Note_on_c, 0, 78, 96
2, 336384, Note_off_c, 0, 78, 0
2, 336384, Note_on_c, 0, 76, 96
2, 336896, Note_off_c, 0, 76, 0
2, 336896, Note_on_c, 0, 75, 96
2, 337408, Note_off_c, 0, 75, 0
2, 337408, Note_on_c, 0, 76, 96
2, 337920, Note_off_c, 0, 76, 0
2, 337920, Note_on_c, 0, 75, 96
2, 339456, Note_off_c, 0, 75, 0
2, 339456, Note_on_c, 0, 76, 96
2, 339968, Note_off_c, 0, 76, 0
2, 339968, Note_on_c, 0, 78, 96
2, 340992, Note_off_c, 0, 78, 0
2, 342016, Note_on_c, 0, 79, 96
2, 343040, Note_off_c, 0, 79, 0
2, 344064, Note_on_c, 0, 81, 96
2, 346624, Note_off_c, 0, 81, 0
2, 346624, Note_on_c, 0, 84, 96
2, 347136, Note_off_c, 0, 84, 0
2, 347136, Note_on_c, 0, 83, 96
2, 347648, Note_off_c, 0, 83, 0
2, 347648, Note_on_c, 0, 81, 96
2, 348160, Note_off_c, 0, 81, 0
2, 348160, Note_on_c, 0, 79, 96
2, 348672, Note_off_c, 0, 79, 0
2, 348672, Note_on_c, 0, 78, 96
2, 349184, Note_off_c, 0, 78, 0
2, 349184, Note_on_c, 0, 76, 96
2, 349696, Note_off_c, 0, 76, 0
2, 349696, Note_on_c, 0, 74, 96
2, 350208, Note_off_c, 0, 74, 0
2, 350208, Note_on_c, 0, 72, 96
2, 352256, Note_off_c, 0, 72, 0
2, 353280, Note_on_c, 0, 72, 96
2, 354816, Note_off_c, 0, 72, 0
2, 354816, Note_on_c, 0, 72, 96
2, 355328, Note_off_c, 0, 72, 0
2, 355328, Note_on_c, 0, 71, 96
2, 355840, Note_off_c, 0, 71, 0
2, 355840, Note_on_c, 0, 69, 96
2, 356352, Note_off_c, 0, 69, 0
2, 356352, Note_on_c, 0, 67, 96
2, 357376, Note_off_c, 0, 67, 0
2, 357376, Note_on_c, 0, 69, 96
2, 358400, Note_off_c, 0, 69, 0
2, 358400, Note_on_c, 0, 71, 96
2, 359424, Note_off_c, 0, 71, 0
2, 359424, Note_on_c, 0, 72, 96
2, 360448, Note_off_c, 0, 72, 0
2, 360960, Note_on_c, 0, 64, 96
2, 361472, Note_off_c, 0, 64, 0
2, 361472, Note_on_c, 0, 66, 96
2, 361984, Note_off_c, 0, 66, 0
2, 361984, Note_on_c, 0, 63, 96
2, 362496, Note_off_c, 0, 63, 0
2, 362496, Note_on_c, 0, 64, 96
2, 363008, Note_off_c, 0, 64, 0
2, 363008, Note_on_c, 0, 71, 96
2, 363520, Note_off_c, 0, 71, 0
2, 363520, Note_on_c, 0, 73, 96
2, 364032, Note_off_c, 0, 73, 0
2, 364032, Note_on_c, 0, 75, 96
2, 364544, Note_off_c, 0, 75, 0
2, 364544, Note_on_c, 0, 76, 96
2, 365056, Note_off_c, 0, 76, 0
2, 365056, Note_on_c, 0, 71, 96
2, 365568, Note_off_c, 0, 71, 0
2, 365568, Note_on_c, 0, 69, 96
2, 366080, Note_off_c, 0, 69, 0
2, 366080, Note_on_c, 0, 71, 96
2, 366592, Note_off_c, 0, 71, 0
2, 366592, Note_on_c, 0, 78, 96
2, 367104, Note_off_c, 0, 78, 0
2, 367104, Note_on_c, 0, 71, 96
2, 367616, Note_off_c, 0, 71, 0
2, 367616, Note_on_c, 0, 69, 96
2, 368128, Note_off_c, 0, 69, 0
2, 368128, Note_on_c, 0, 71, 96
2, 368640, Note_off_c, 0, 71, 0
2, 368640, Note_on_c, 0, 79, 96
2, 369152, Note_off_c, 0, 79, 0
2, 369152, Note_on_c, 0, 78, 96
2, 369664, Note_off_c, 0, 78, 0
2, 369664, Note_on_c, 0, 76, 96
2, 370176, Note_off_c, 0, 76, 0
2, 370176, Note_on_c, 0, 74, 96
2, 370688, Note_off_c, 0, 74, 0
2, 370688, Note_on_c, 0, 72, 96
2, 371200, Note_off_c, 0, 72, 0
2, 371200, Note_on_c, 0, 71, 96
2, 371712, Note_off_c, 0, 71, 0
2, 371712, Note_on_c, 0, 69, 96
2, 372224, Note_off_c, 0, 69, 0
2, 372224, Note_on_c, 0, 67, 96
2, 372736, Note_off_c, 0, 67, 0
2, 372736, Note_on_c, 0, 72, 96
2, 373248, Note_off_c, 0, 72, 0
2, 373248, Note_on_c, 0, 76, 96
2, 373760, Note_off_c, 0, 76, 0
2, 373760, Note_on_c, 0, 74, 96
2, 374272, Note_off_c, 0, 74, 0
2, 374272, Note_on_c, 0, 77, 96
2, 374784, Note_off_c, 0, 77, 0
2, 374784, Note_on_c, 0, 76, 96
2, 375296, Note_off_c, 0, 76, 0
2, 375296, Note_on_c, 0, 81, 96
2, 375808, Note_off_c, 0, 81, 0
2, 375808, Note_on_c, 0, 79, 96
2, 376320, Note_off_c, 0, 79, 0
2, 376320, Note_on_c, 0, 77, 96
2, 376832, Note_off_c, 0, 77, 0
2, 376832, Note_on_c, 0, 76, 96
2, 377344, Note_off_c, 0, 76, 0
2, 377344, Note_on_c, 0, 74, 96
2, 377856, Note_off_c, 0, 74, 0
2, 377856, Note_on_c, 0, 72, 96
2, 378368, Note_off_c, 0, 72, 0
2, 378368, Note_on_c, 0, 71, 96
2, 378880, Note_off_c, 0, 71, 0
2, 378880, Note_on_c, 0, 69, 96
2, 379392, Note_off_c, 0, 69, 0
2, 379392, Note_on_c, 0, 72, 96
2, 379904, Note_off_c, 0, 72, 0
2, 379904, Note_on_c, 0, 76, 96
2, 380416, Note_off_c, 0, 76, 0
2, 380416, Note_on_c, 0, 67, 96
2, 380928, Note_off_c, 0, 67, 0
2, 380928, Note_on_c, 0, 66, 96
2, 381952, Note_off_c, 0, 66, 0
2, 387584, Note_on_c, 0, 67, 96
2, 388096, Note_off_c, 0, 67, 0
2, 388096, Note_on_c, 0, 69, 96
2, 388608, Note_off_c, 0, 69, 0
2, 388608, Note_on_c, 0, 71, 96
2, 389120, Note_off_c, 0, 71, 0
2, 389120, Note_on_c, 0, 72, 96
2, 389632, Note_off_c, 0, 72, 0
2, 389632, Note_on_c, 0, 69, 96
2, 390144, Note_off_c, 0, 69, 0
2, 390144, Note_on_c, 0, 71, 96
2, 390656, Note_off_c, 0, 71, 0
2, 390656, Note_on_c, 0, 72, 96
2, 391168, Note_off_c, 0, 72, 0
2, 391168, Note_on_c, 0, 74, 96
2, 400384, Note_off_c, 0, 74, 0
2, 400384, Note_on_c, 0, 76, 96
2, 401408, Note_off_c, 0, 76, 0
2, 401408, Note_on_c, 0, 78, 96
2, 402432, Note_off_c, 0, 78, 0
2, 402432, Note_on_c, 0, 79, 96
2, 404480, Note_off_c, 0, 79, 0
2, 404480, Note_on_c, 0, 78, 96
2, 405504, Note_off_c, 0, 78, 0
2, 405504, Note_on_c, 0, 79, 96
2, 406016, Note_off_c, 0, 79, 0
2, 406016, Note_on_c, 0, 74, 96
2, 406528, Note_off_c, 0, 74, 0
2, 406528, Note_on_c, 0, 76, 96
2, 407040, Note_off_c, 0, 76, 0
2, 407040, Note_on_c, 0, 77, 96
2, 407552, Note_off_c, 0, 77, 0
2, 407552, Note_on_c, 0, 76, 96
2, 409600, Note_off_c, 0, 76, 0
2, 410112, Note_on_c, 0, 76, 96
2, 410624, Note_off_c, 0, 76, 0
2, 410624, Note_on_c, 0, 74, 96
2, 411136, Note_off_c, 0, 74, 0
2, 411136, Note_on_c, 0, 72, 96
2, 411648, Note_off_c, 0, 72, 0
2, 411648, Note_on_c, 0, 71, 96
2, 414208, Note_off_c, 0, 71, 0
2, 414208, Note_on_c, 0, 71, 96
2, 414720, Note_off_c, 0, 71, 0
2, 414720, Note_on_c, 0, 69, 96
2, 415232, Note_off_c, 0, 69, 0
2, 415232, Note_on_c, 0, 67, 96
2, 415744, Note_off_c, 0, 67, 0
2, 415744, Note_on_c, 0, 66, 96
2, 417792, Note_off_c, 0, 66, 0
2, 417792, Note_on_c, 0, 67, 96
2, 418816, Note_off_c, 0, 67, 0
2, 423936, Note_on_c, 0, 67, 96
2, 425984, Note_off_c, 0, 67, 0
2, 425984, Note_on_c, 0, 69, 96
2, 428032, Note_off_c, 0, 69, 0
2, 428032, Note_on_c, 0, 71, 96
2, 430080, Note_off_c, 0, 71, 0
2, 430080, Note_on_c, 0, 72, 96
2, 434176, Note_off_c, 0, 72, 0
2, 434176, Note_on_c, 0, 71, 96
2, 436224, Note_off_c, 0, 71, 0
2, 436224, Note_on_c, 0, 69, 96
2, 440320, Note_off_c, 0, 69, 0
2, 440320, Note_on_c, 0, 68, 96
2, 442368, Note_off_c, 0, 68, 0
2, 442368, Note_on_c, 0, 69, 96
2, 442880, Note_off_c, 0, 69, 0
2, 442880, Note_on_c, 0, 72, 96
2, 443392, Note_off_c, 0, 72, 0
2, 443392, Note_on_c, 0, 76, 96
2, 443904, Note_off_c, 0, 76, 0
2, 443904, Note_on_c, 0, 81, 96
2, 444416, Note_off_c, 0, 81, 0
2, 444416, Note_on_c, 0, 74, 96
2, 444928, Note_off_c, 0, 74, 0
2, 444928, Note_on_c, 0, 73, 96
2, 445440, Note_off_c, 0, 73, 0
2, 445440, Note_on_c, 0, 74, 96
2, 445952, Note_off_c, 0, 74, 0
2, 445952, Note_on_c, 0, 81, 96
2, 446464, Note_off_c, 0, 81, 0
2, 446464, Note_on_c, 0, 76, 96
2, 446976, Note_off_c, 0, 76, 0
2, 446976, Note_on_c, 0, 74, 96
2, 447488, Note_off_c, 0, 74, 0
2, 447488, Note_on_c, 0, 76, 96
2, 448000, Note_off_c, 0, 76, 0
2, 448000, Note_on_c, 0, 79, 96
2, 448512, Note_off_c, 0, 79, 0
2, 448512, Note_on_c, 0, 78, 96
2, 449024, Note_off_c, 0, 78, 0
2, 449024, Note_on_c, 0, 76, 96
2, 449536, Note_off_c, 0, 76, 0
2, 449536, Note_on_c, 0, 78, 96
2, 450048, Note_off_c, 0, 78, 0
2, 450048, Note_on_c, 0, 74, 96
2, 450560, Note_off_c, 0, 74, 0
2, 450560, Note_on_c, 0, 79, 96
2, 451072, Note_off_c, 0, 79, 0
2, 451072, Note_on_c, 0, 71, 96
2, 451584, Note_off_c, 0, 71, 0
2, 451584, Note_on_c, 0, 72, 96
2, 452096, Note_off_c, 0, 72, 0
2, 452096, Note_on_c, 0, 74, 96
2, 452608, Note_off_c, 0, 74, 0
2, 452608, Note_on_c, 0, 76, 96
2, 453120, Note_off_c, 0, 76, 0
2, 453120, Note_on_c, 0, 69, 96
2, 453632, Note_off_c, 0, 69, 0
2, 453632, Note_on_c, 0, 68, 96
2, 454144, Note_off_c, 0, 68, 0
2, 454144, Note_on_c, 0, 69, 96
2, 454656, Note_off_c, 0, 69, 0
2, 454656, Note_on_c, 0, 71, 96
2, 454656, Note_on_c, 0, 71, 96
2, 455168, Note_off_c, 0, 71, 0
2, 455168, Note_off_c, 0, 71, 0
2, 455168, Note_on_c, 0, 74, 96
2, 455680, Note_off_c, 0, 74, 0
2, 455680, Note_on_c, 0, 76, 96
2, 456192, Note_off_c, 0, 76, 0
2, 456192, Note_on_c, 0, 78, 96
2, 456704, Note_off_c, 0, 78, 0
2, 456704, Note_on_c, 0, 79, 96
2, 457216, Note_off_c, 0, 79, 0
2, 457216, Note_on_c, 0, 78, 96
2, 457728, Note_off_c, 0, 78, 0
2, 457728, Note_on_c, 0, 79, 96
2, 458240, Note_off_c, 0, 79, 0
2, 458240, Note_on_c, 0, 67, 96
2, 458752, Note_off_c, 0, 67, 0
2, 458752, Note_on_c, 0, 69, 96
2, 459264, Note_off_c, 0, 69, 0
2, 459264, Note_on_c, 0, 79, 96
2, 459776, Note_off_c, 0, 79, 0
2, 459776, Note_on_c, 0, 78, 96
2, 460288, Note_off_c, 0, 78, 0
2, 460288, Note_on_c, 0, 76, 96
2, 460800, Note_off_c, 0, 76, 0
2, 460800, Note_on_c, 0, 75, 96
2, 460800, Note_on_c, 0, 75, 96
2, 461312, Note_off_c, 0, 75, 0
2, 461312, Note_off_c, 0, 75, 0
2, 461312, Note_on_c, 0, 73, 96
2, 461824, Note_off_c, 0, 73, 0
2, 461824, Note_on_c, 0, 71, 96
2, 462336, Note_off_c, 0, 71, 0
2, 462336, Note_on_c, 0, 69, 96
2, 462848, Note_off_c, 0, 69, 0
2, 462848, Note_on_c, 0, 67, 96
2, 463360, Note_off_c, 0, 67, 0
2, 463360, Note_on_c, 0, 66, 96
2, 463872, Note_off_c, 0, 66, 0
2, 463872, Note_on_c, 0, 64, 96
2, 464384, Note_off_c, 0, 64, 0
2, 464384, Note_on_c, 0, 62, 96
2, 464896, Note_off_c, 0, 62, 0
2, 464896, Note_on_c, 0, 61, 96
2, 465408, Note_off_c, 0, 61, 0
2, 465408, Note_on_c, 0, 67, 96
2, 465920, Note_off_c, 0, 67, 0
2, 465920, Note_on_c, 0, 66, 96
2, 466432, Note_off_c, 0, 66, 0
2, 466432, Note_on_c, 0, 64, 96
2, 466944, Note_off_c, 0, 64, 0
2, 466944, Note_on_c, 0, 63, 96
2, 467456, Note_off_c, 0, 63, 0
2, 467456, Note_on_c, 0, 61, 96
2, 467968, Note_off_c, 0, 61, 0
2, 467968, Note_on_c, 0, 63, 96
2, 468480, Note_off_c, 0, 63, 0
2, 468480, Note_on_c, 0, 71, 96
2, 468992, Note_off_c, 0, 71, 0
2, 468992, Note_on_c, 0, 64, 96
2, 469504, Note_off_c, 0, 64, 0
2, 469504, Note_on_c, 0, 63, 96
2, 470016, Note_off_c, 0, 63, 0
2, 470016, Note_on_c, 0, 64, 96
2, 470528, Note_off_c, 0, 64, 0
2, 470528, Note_on_c, 0, 71, 96
2, 471040, Note_off_c, 0, 71, 0
2, 471040, Note_on_c, 0, 66, 96
2, 471552, Note_off_c, 0, 66, 0
2, 471552, Note_on_c, 0, 64, 96
2, 472064, Note_off_c, 0, 64, 0
2, 472064, Note_on_c, 0, 66, 96
2, 472576, Note_off_c, 0, 66, 0
2, 472576, Note_on_c, 0, 69, 96
2, 473088, Note_off_c, 0, 69, 0
2, 473088, Note_on_c, 0, 67, 96
2, 473600, Note_off_c, 0, 67, 0
2, 473600, Note_on_c, 0, 64, 96
2, 474112, Note_off_c, 0, 64, 0
2, 474112, Note_on_c, 0, 62, 96
2, 474624, Note_off_c, 0, 62, 0
2, 474624, Note_on_c, 0, 64, 96
2, 475136, Note_off_c, 0, 64, 0
2, 475136, Note_on_c, 0, 69, 96
2, 475648, Note_off_c, 0, 69, 0
2, 475648, Note_on_c, 0, 65, 96
2, 476160, Note_off_c, 0, 65, 0
2, 476160, Note_on_c, 0, 64, 96
2, 476672, Note_off_c, 0, 64, 0
2, 476672, Note_on_c, 0, 65, 96
2, 477184, Note_off_c, 0, 65, 0
2, 477184, Note_on_c, 0, 71, 96
2, 477696, Note_off_c, 0, 71, 0
2, 477696, Note_on_c, 0, 65, 96
2, 478208, Note_off_c, 0, 65, 0
2, 478208, Note_on_c, 0, 64, 96
2, 478720, Note_off_c, 0, 64, 0
2, 478720, Note_on_c, 0, 65, 96
2, 479232, Note_off_c, 0, 65, 0
2, 479232, Note_on_c, 0, 72, 96
2, 479232, Note_on_c, 0, 72, 96
2, 479744, Note_off_c, 0, 72, 0
2, 479744, Note_off_c, 0, 72, 0
2, 479744, Note_on_c, 0, 76, 96
2, 480256, Note_off_c, 0, 76, 0
2, 480256, Note_on_c, 0, 74, 96
2, 480768, Note_off_c, 0, 74, 0
2, 480768, Note_on_c, 0, 76, 96
2, 481280, Note_off_c, 0, 76, 0
2, 481280, Note_on_c, 0, 66, 96
2, 481792, Note_off_c, 0, 66, 0
2, 481792, Note_on_c, 0, 64, 96
2, 482304, Note_off_c, 0, 64, 0
2, 482304, Note_on_c, 0, 66, 96
2, 482816, Note_off_c, 0, 66, 0
2, 482816, Note_on_c, 0, 76, 96
2, 483328, Note_off_c, 0, 76, 0
2, 483328, Note_on_c, 0, 68, 96
2, 483840, Note_off_c, 0, 68, 0
2, 483840, Note_on_c, 0, 66, 96
2, 484352, Note_off_c, 0, 66, 0
2, 484352, Note_on_c, 0, 68, 96
2, 484864, Note_off_c, 0, 68, 0
2, 484864, Note_on_c, 0, 74, 96
2, 485376, Note_off_c, 0, 74, 0
2, 485376, Note_on_c, 0, 72, 96
2, 485888, Note_off_c, 0, 72, 0
2, 485888, Note_on_c, 0, 71, 96
2, 486400, Note_off_c, 0, 71, 0
2, 486400, Note_on_c, 0, 72, 96
2, 486912, Note_off_c, 0, 72, 0
2, 486912, Note_on_c, 0, 81, 96
2, 487424, Note_off_c, 0, 81, 0
2, 487424, Note_on_c, 0, 74, 96
2, 487936, Note_off_c, 0, 74, 0
2, 487936, Note_on_c, 0, 72, 96
2, 488448, Note_off_c, 0, 72, 0
2, 488448, Note_on_c, 0, 74, 96
2, 488960, Note_off_c, 0, 74, 0
2, 488960, Note_on_c, 0, 81, 96
2, 489472, Note_off_c, 0, 81, 0
2, 489472, Note_on_c, 0, 76, 96
2, 489984, Note_off_c, 0, 76, 0
2, 489984, Note_on_c, 0, 74, 96
2, 490496, Note_off_c, 0, 74, 0
2, 490496, Note_on_c, 0, 76, 96
2, 491008, Note_off_c, 0, 76, 0
2, 491008, Note_on_c, 0, 79, 96
2, 491520, Note_off_c, 0, 79, 0
2, 491520, Note_on_c, 0, 77, 96
2, 494080, Note_off_c, 0, 77, 0
2, 494080, Note_on_c, 0, 76, 96
2, 494592, Note_off_c, 0, 76, 0
2, 494592, Note_on_c, 0, 74, 96
2, 495104, Note_off_c, 0, 74, 0
2, 495104, Note_on_c, 0, 72, 96
2, 495616, Note_off_c, 0, 72, 0
2, 495616, Note_on_c, 0, 71, 96
2, 496128, Note_off_c, 0, 71, 0
2, 496128, Note_on_c, 0, 69, 96
2, 496640, Note_off_c, 0, 69, 0
2, 496640, Note_on_c, 0, 67, 96
2, 497152, Note_off_c, 0, 67, 0
2, 497152, Note_on_c, 0, 65, 96
2, 497664, Note_off_c, 0, 65, 0
2, 497664, Note_on_c, 0, 64, 96
2, 498176, Note_off_c, 0, 64, 0
2, 498176, Note_on_c, 0, 62, 96
2, 498688, Note_off_c, 0, 62, 0
2, 498688, Note_on_c, 0, 64, 96
2, 499200, Note_off_c, 0, 64, 0
2, 499200, Note_on_c, 0, 68, 96
2, 499712, Note_off_c, 0, 68, 0
2, 499712, Note_on_c, 0, 66, 96
2, 500224, Note_off_c, 0, 66, 0
2, 500224, Note_on_c, 0, 64, 96
2, 500736, Note_off_c, 0, 64, 0
2, 500736, Note_on_c, 0, 66, 96
2, 501248, Note_off_c, 0, 66, 0
2, 501248, Note_on_c, 0, 69, 96
2, 501760, Note_off_c, 0, 69, 0
2, 501760, Note_on_c, 0, 68, 96
2, 502272, Note_off_c, 0, 68, 0
2, 502272, Note_on_c, 0, 66, 96
2, 502784, Note_off_c, 0, 66, 0
2, 502784, Note_on_c, 0, 68, 96
2, 503296, Note_off_c, 0, 68, 0
2, 503296, Note_on_c, 0, 71, 96
2, 503808, Note_off_c, 0, 71, 0
2, 503808, Note_on_c, 0, 69, 96
2, 507904, Note_off_c, 0, 69, 0
2, 508416, Note_on_c, 0, 69, 96
2, 508928, Note_off_c, 0, 69, 0
2, 508928, Note_on_c, 0, 71, 96
2, 509440, Note_off_c, 0, 71, 0
2, 509440, Note_on_c, 0, 72, 96
2, 509952, Note_off_c, 0, 72, 0
2, 509952, Note_on_c, 0, 74, 96
2, 510464, Note_off_c, 0, 74, 0
2, 510464, Note_on_c, 0, 71, 96
2, 510976, Note_off_c, 0, 71, 0
2, 510976, Note_on_c, 0, 72, 96
2, 511488, Note_off_c, 0, 72, 0
2, 511488, Note_on_c, 0, 74, 96
2, 512000, Note_off_c, 0, 74, 0
2, 512000, Note_on_c, 0, 76, 96
2, 514560, Note_off_c, 0, 76, 0
2, 514560, Note_on_c, 0, 77, 96
2, 515072, Note_off_c, 0, 77, 0
2, 515072, Note_on_c, 0, 76, 96
2, 515584, Note_off_c, 0, 76, 0
2, 515584, Note_on_c, 0, 74, 96
2, 516096, Note_off_c, 0, 74, 0
2, 516096, Note_on_c, 0, 72, 96
2, 516608, Note_off_c, 0, 72, 0
2, 516608, Note_on_c, 0, 69, 96
2, 517120, Note_off_c, 0, 69, 0
2, 517120, Note_on_c, 0, 68, 96
2, 517632, Note_off_c, 0, 68, 0
2, 517632, Note_on_c, 0, 69, 96
2, 518144, Note_off_c, 0, 69, 0
2, 518144, Note_on_c, 0, 74, 96
2, 518656, Note_off_c, 0, 74, 0
2, 518656, Note_on_c, 0, 69, 96
2, 519168, Note_off_c, 0, 69, 0
2, 519168, Note_on_c, 0, 68, 96
2, 519680, Note_off_c, 0, 68, 0
2, 519680, Note_on_c, 0, 69, 96
2, 520192, Note_off_c, 0, 69, 0
2, 520192, Note_on_c, 0, 76, 96
2, 520704, Note_off_c, 0, 76, 0
2, 520704, Note_on_c, 0, 67, 96
2, 521216, Note_off_c, 0, 67, 0
2, 521216, Note_on_c, 0, 69, 96
2, 521728, Note_off_c, 0, 69, 0
2, 521728, Note_on_c, 0, 64, 96
2, 522240, Note_off_c, 0, 64, 0
2, 522240, Note_on_c, 0, 66, 96
2, 522752, Note_off_c, 0, 66, 0
2, 522752, Note_on_c, 0, 64, 96
2, 523264, Note_off_c, 0, 64, 0
2, 523264, Note_on_c, 0, 66, 96
2, 523776, Note_off_c, 0, 66, 0
2, 523776, Note_on_c, 0, 74, 96
2, 524288, Note_off_c, 0, 74, 0
2, 524288, Note_on_c, 0, 68, 96
2, 524800, Note_off_c, 0, 68, 0
2, 524800, Note_on_c, 0, 66, 96
2, 525312, Note_off_c, 0, 66, 0
2, 525312, Note_on_c, 0, 68, 96
2, 525824, Note_off_c, 0, 68, 0
2, 525824, Note_on_c, 0, 74, 96
2, 526336, Note_off_c, 0, 74, 0
2, 526336, Note_on_c, 0, 69, 96
2, 526848, Note_off_c, 0, 69, 0
2, 526848, Note_on_c, 0, 68, 96
2, 527360, Note_off_c, 0, 68, 0
2, 527360, Note_on_c, 0, 69, 96
2, 527872, Note_off_c, 0, 69, 0
2, 527872, Note_on_c, 0, 74, 96
2, 528384, Note_off_c, 0, 74, 0
2, 528384, Note_on_c, 0, 68, 96
2, 528896, Note_off_c, 0, 68, 0
2, 528896, Note_on_c, 0, 66, 96
2, 529408, Note_off_c, 0, 66, 0
2, 529408, Note_on_c, 0, 68, 96
2, 529920, Note_off_c, 0, 68, 0
2, 529920, Note_on_c, 0, 71, 96
2, 530432, Note_off_c, 0, 71, 0
2, 530432, Note_on_c, 0, 69, 96
2, 530944, Note_off_c, 0, 69, 0
2, 530944, Note_on_c, 0, 68, 96
2, 531456, Note_off_c, 0, 68, 0
2, 531456, Note_on_c, 0, 69, 96
2, 531968, Note_off_c, 0, 69, 0
2, 531968, Note_on_c, 0, 72, 96
2, 532480, Note_off_c, 0, 72, 0
2, 532480, Note_on_c, 0, 71, 96
2, 532992, Note_off_c, 0, 71, 0
2, 532992, Note_on_c, 0, 69, 96
2, 533504, Note_off_c, 0, 69, 0
2, 533504, Note_on_c, 0, 71, 96
2, 534016, Note_off_c, 0, 71, 0
2, 534016, Note_on_c, 0, 74, 96
2, 534528, Note_off_c, 0, 74, 0
2, 534528, Note_on_c, 0, 72, 96
2, 535040, Note_off_c, 0, 72, 0
2, 535040, Note_on_c, 0, 69, 96
2, 535552, Note_off_c, 0, 69, 0
2, 535552, Note_on_c, 0, 68, 96
2, 536064, Note_off_c, 0, 68, 0
2, 536064, Note_on_c, 0, 69, 96
2, 536576, Note_off_c, 0, 69, 0
2, 536576, Note_on_c, 0, 74, 96
2, 537088, Note_off_c, 0, 74, 0
2, 537088, Note_on_c, 0, 69, 96
2, 537600, Note_off_c, 0, 69, 0
2, 537600, Note_on_c, 0, 68, 96
2, 538112, Note_off_c, 0, 68, 0
2, 538112, Note_on_c, 0, 69, 96
2, 538624, Note_off_c, 0, 69, 0
2, 538624, Note_on_c, 0, 76, 96
2, 539136, Note_off_c, 0, 76, 0
2, 539136, Note_on_c, 0, 69, 96
2, 539648, Note_off_c, 0, 69, 0
2, 539648, Note_on_c, 0, 68, 96
2, 540160, Note_off_c, 0, 68, 0
2, 540160, Note_on_c, 0, 69, 96
2, 540672, Note_off_c, 0, 69, 0
2, 541184, Note_on_c, 0, 68, 96
2, 541696, Note_off_c, 0, 68, 0
2, 541696, Note_on_c, 0, 69, 96
2, 542208, Note_off_c, 0, 69, 0
2, 542208, Note_on_c, 0, 71, 96
2, 542720, Note_off_c, 0, 71, 0
2, 542720, Note_on_c, 0, 72, 96
2, 543232, Note_off_c, 0, 72, 0
2, 543232, Note_on_c, 0, 71, 96
2, 543744, Note_off_c, 0, 71, 0
2, 543744, Note_on_c, 0, 72, 96
2, 544256, Note_off_c, 0, 72, 0
2, 544256, Note_on_c, 0, 69, 96
2, 544768, Note_off_c, 0, 69, 0
2, 545280, Note_on_c, 0, 69, 96
2, 545792, Note_off_c, 0, 69, 0
2, 545792, Note_on_c, 0, 71, 96
2, 546304, Note_off_c, 0, 71, 0
2, 546304, Note_on_c, 0, 68, 96
2, 546816, Note_off_c, 0, 68, 0
2, 546816, Note_on_c, 0, 69, 96
2, 547840, Note_off_c, 0, 69, 0
2, 548352, Note_on_c, 0, 69, 96
2, 548864, Note_off_c, 0, 69, 0
2, 549376, Note_on_c, 0, 66, 96
2, 549888, Note_off_c, 0, 66, 0
2, 549888, Note_on_c, 0, 71, 96
2, 550912, Note_off_c, 0, 71, 0
2, 551424, Note_on_c, 0, 67, 96
2, 551936, Note_off_c, 0, 67, 0
2, 551936, Note_on_c, 0, 74, 96
2, 552448, Note_off_c, 0, 74, 0
2, 552448, Note_on_c, 0, 73, 96
2, 552960, Note_off_c, 0, 73, 0
2, 552960, Note_on_c, 0, 74, 96
2, 555520, Note_off_c, 0, 74, 0
2, 555520, Note_on_c, 0, 72, 96
2, 556032, Note_off_c, 0, 72, 0
2, 556032, Note_on_c, 0, 74, 96
2, 556544, Note_off_c, 0, 74, 0
2, 556544, Note_on_c, 0, 76, 96
2, 557056, Note_off_c, 0, 76, 0
2, 557056, Note_on_c, 0, 78, 96
2, 557568, Note_off_c, 0, 78, 0
2, 557568, Note_on_c, 0, 79, 96
2, 558080, Note_off_c, 0, 79, 0
2, 558080, Note_on_c, 0, 76, 96
2, 558592, Note_off_c, 0, 76, 0
2, 558592, Note_on_c, 0, 78, 96
2, 559104, Note_off_c, 0, 78, 0
2, 559104, Note_on_c, 0, 79, 96
2, 559616, Note_off_c, 0, 79, 0
2, 559616, Note_on_c, 0, 78, 96
2, 560128, Note_off_c, 0, 78, 0
2, 560128, Note_on_c, 0, 79, 96
2, 560640, Note_off_c, 0, 79, 0
2, 560640, Note_on_c, 0, 83, 96
2, 561664, Note_off_c, 0, 83, 0
2, 561664, Note_on_c, 0, 78, 96
2, 562176, Note_off_c, 0, 78, 0
2, 562176, Note_on_c, 0, 79, 96
2, 562688, Note_off_c, 0, 79, 0
2, 562688, Note_on_c, 0, 83, 96
2, 563712, Note_off_c, 0, 83, 0
2, 563712, Note_on_c, 0, 76, 96
2, 564224, Note_off_c, 0, 76, 0
2, 564224, Note_on_c, 0, 78, 96
2, 564736, Note_off_c, 0, 78, 0
2, 564736, Note_on_c, 0, 81, 96
2, 565248, Note_off_c, 0, 81, 0
2, 565248, Note_on_c, 0, 79, 96
2, 567808, Note_off_c, 0, 79, 0
2, 567808, Note_on_c, 0, 78, 96
2, 568320, Note_off_c, 0, 78, 0
2, 568320, Note_on_c, 0, 76, 96
2, 568832, Note_off_c, 0, 76, 0
2, 568832, Note_on_c, 0, 74, 96
2, 569344, Note_off_c, 0, 74, 0
2, 569344, Note_on_c, 0, 72, 96
2, 569856, Note_off_c, 0, 72, 0
2, 569856, Note_on_c, 0, 71, 96
2, 570368, Note_off_c, 0, 71, 0
2, 570368, Note_on_c, 0, 69, 96
2, 570880, Note_off_c, 0, 69, 0
2, 570880, Note_on_c, 0, 67, 96
2, 571392, Note_off_c, 0, 67, 0
2, 571392, Note_on_c, 0, 66, 96
2, 571904, Note_off_c, 0, 66, 0
2, 571904, Note_on_c, 0, 69, 96
2, 572416, Note_off_c, 0, 69, 0
2, 572416, Note_on_c, 0, 74, 96
2, 573952, Note_off_c, 0, 74, 0
2, 573952, Note_on_c, 0, 71, 96
2, 574464, Note_off_c, 0, 71, 0
2, 574464, Note_on_c, 0, 74, 96
2, 574976, Note_off_c, 0, 74, 0
2, 574976, Note_on_c, 0, 79, 96
2, 575488, Note_off_c, 0, 79, 0
2, 575488, Note_on_c, 0, 77, 96
2, 576000, Note_off_c, 0, 77, 0
2, 576000, Note_on_c, 0, 76, 96
2, 576512, Note_off_c, 0, 76, 0
2, 576512, Note_on_c, 0, 77, 96
2, 577024, Note_off_c, 0, 77, 0
2, 577024, Note_on_c, 0, 74, 96
2, 577536, Note_off_c, 0, 74, 0
2, 577536, Note_on_c, 0, 76, 96
2, 579584, Note_off_c, 0, 76, 0
2, 589824, Note_on_c, 0, 79, 96
2, 591872, Note_off_c, 0, 79, 0
2, 591872, Note_on_c, 0, 78, 96
2, 598528, Note_off_c, 0, 78, 0
2, 598528, Note_on_c, 0, 71, 96
2, 599040, Note_off_c, 0, 71, 0
2, 599040, Note_on_c, 0, 76, 96
2, 600576, Note_off_c, 0, 76, 0
2, 600576, Note_on_c, 0, 69, 96
2, 601088, Note_off_c, 0, 69, 0
2, 601088, Note_on_c, 0, 76, 96
2, 601600, Note_off_c, 0, 76, 0
2, 601600, Note_on_c, 0, 75, 96
2, 602112, Note_off_c, 0, 75, 0
2, 602112, Note_on_c, 0, 76, 96
2, 604672, Note_off_c, 0, 76, 0
2, 604672, Note_on_c, 0, 75, 96
2, 605184, Note_off_c, 0, 75, 0
2, 605184, Note_on_c, 0, 76, 96
2, 606720, Note_off_c, 0, 76, 0
2, 606720, Note_on_c, 0, 76, 96
2, 607232, Note_off_c, 0, 76, 0
2, 607232, Note_on_c, 0, 74, 96
2, 608768, Note_off_c, 0, 74, 0
2, 608768, Note_on_c, 0, 71, 96
2, 609280, Note_off_c, 0, 71, 0
2, 609280, Note_on_c, 0, 72, 96
2, 610816, Note_off_c, 0, 72, 0
2, 610816, Note_on_c, 0, 72, 96
2, 612352, Note_off_c, 0, 72, 0
2, 612864, Note_on_c, 0, 72, 96
2, 613376, Note_off_c, 0, 72, 0
2, 613376, Note_on_c, 0, 71, 96
2, 613888, Note_off_c, 0, 71, 0
2, 613888, Note_on_c, 0, 69, 96
2, 614400, Note_off_c, 0, 69, 0
2, 614400, Note_on_c, 0, 67, 96
2, 616960, Note_off_c, 0, 67, 0
2, 616960, Note_on_c, 0, 67, 96
2, 617472, Note_off_c, 0, 67, 0
2, 617472, Note_on_c, 0, 66, 96
2, 617984, Note_off_c, 0, 66, 0
2, 617984, Note_on_c, 0, 64, 96
2, 618496, Note_off_c, 0, 64, 0
2, 618496, Note_on_c, 0, 62, 96
2, 620544, Note_off_c, 0, 62, 0
2, 621056, Note_on_c, 0, 64, 96
2, 621568, Note_off_c, 0, 64, 0
2, 621568, Note_on_c, 0, 66, 96
2, 622080, Note_off_c, 0, 66, 0
2, 622080, Note_on_c, 0, 68, 96
2, 622592, Note_off_c, 0, 68, 0
2, 622592, Note_on_c, 0, 69, 96
2, 623104, Note_off_c, 0, 69, 0
2, 623104, Note_on_c, 0, 62, 96
2, 623616, Note_off_c, 0, 62, 0
2, 623616, Note_on_c, 0, 61, 96
2, 624128, Note_off_c, 0, 61, 0
2, 624128, Note_on_c, 0, 62, 96
2, 624640, Note_off_c, 0, 62, 0
2, 624640, Note_on_c, 0, 71, 96
2, 625152, Note_off_c, 0, 71, 0
2, 625152, Note_on_c, 0, 62, 96
2, 625664, Note_off_c, 0, 62, 0
2, 625664, Note_on_c, 0, 64, 96
2, 626176, Note_off_c, 0, 64, 0
2, 626176, Note_on_c, 0, 59, 96
2, 626688, Note_off_c, 0, 59, 0
2, 626688, Note_on_c, 0, 61, 96
2, 626688, Note_on_c, 0, 69, 96
2, 627712, Note_off_c, 0, 61, 0
2, 627712, Note_off_c, 0, 69, 0
2, 628736, Note_on_c, 0, 71, 96
2, 629760, Note_off_c, 0, 71, 0
2, 630784, Note_on_c, 0, 73, 96
2, 631808, Note_off_c, 0, 73, 0
2, 632832, Note_on_c, 0, 74, 96
2, 639488, Note_off_c, 0, 74, 0
2, 639488, Note_on_c, 0, 71, 96
2, 640000, Note_off_c, 0, 71, 0
2, 640000, Note_on_c, 0, 72, 96
2, 640512, Note_off_c, 0, 72, 0
2, 640512, Note_on_c, 0, 74, 96
2, 641024, Note_off_c, 0, 74, 0
2, 641024, Note_on_c, 0, 76, 96
2, 641536, Note_off_c, 0, 76, 0
2, 641536, Note_on_c, 0, 72, 96
2, 642048, Note_off_c, 0, 72, 0
2, 642048, Note_on_c, 0, 71, 96
2, 642560, Note_off_c, 0, 71, 0
2, 642560, Note_on_c, 0, 72, 96
2, 643072, Note_off_c, 0, 72, 0
2, 643072, Note_on_c, 0, 78, 96
2, 643584, Note_off_c, 0, 78, 0
2, 643584, Note_on_c, 0, 72, 96
2, 644096, Note_off_c, 0, 72, 0
2, 644096, Note_on_c, 0, 74, 96
2, 644608, Note_off_c, 0, 74, 0
2, 644608, Note_on_c, 0, 69, 96
2, 645120, Note_off_c, 0, 69, 0
2, 645120, Note_on_c, 0, 79, 96
2, 650752, Note_off_c, 0, 79, 0
2, 650752, Note_on_c, 0, 77, 96
2, 651264, Note_off_c, 0, 77, 0
2, 651264, Note_on_c, 0, 76, 96
2, 657920, Note_off_c, 0, 76, 0
2, 657920, Note_on_c, 0, 72, 96
2, 658432, Note_off_c, 0, 72, 0
2, 658432, Note_on_c, 0, 71, 96
2, 658944, Note_off_c, 0, 71, 0
2, 658944, Note_on_c, 0, 72, 96
2, 659456, Note_off_c, 0, 72, 0
2, 659456, Note_on_c, 0, 74, 96
2, 659968, Note_off_c, 0, 74, 0
2, 659968, Note_on_c, 0, 71, 96
2, 660480, Note_off_c, 0, 71, 0
2, 660480, Note_on_c, 0, 72, 96
2, 660992, Note_off_c, 0, 72, 0
2, 660992, Note_on_c, 0, 74, 96
2, 661504, Note_off_c, 0, 74, 0
2, 661504, Note_on_c, 0, 76, 96
2, 662016, Note_off_c, 0, 76, 0
2, 662016, Note_on_c, 0, 72, 96
2, 662528, Note_off_c, 0, 72, 0
2, 662528, Note_on_c, 0, 74, 96
2, 663040, Note_off_c, 0, 74, 0
2, 663040, Note_on_c, 0, 76, 96
2, 663552, Note_off_c, 0, 76, 0
2, 663552, Note_on_c, 0, 69, 96
2, 664576, Note_off_c, 0, 69, 0
2, 664576, Note_on_c, 0, 74, 96
2, 666624, Note_off_c, 0, 74, 0
2, 666624, Note_on_c, 0, 76, 96
2, 668672, Note_off_c, 0, 76, 0
2, 668672, Note_on_c, 0, 78, 96
2, 669696, Note_off_c, 0, 78, 0
2, 669696, Note_on_c, 0, 79, 96
2, 671744, Note_off_c, 0, 79, 0
2, 671744, Note_on_c, 0, 77, 96
2, 673792, Note_off_c, 0, 77, 0
2, 673792, Note_on_c, 0, 76, 96
2, 675840, Note_off_c, 0, 76, 0
2, 675840, Note_on_c, 0, 77, 96
2, 677888, Note_off_c, 0, 77, 0
2, 681984, Note_on_c, 0, 76, 96
2, 684032, Note_off_c, 0, 76, 0
2, 688128, Note_on_c, 0, 74, 96
2, 690176, Note_off_c, 0, 74, 0
2, 694784, Note_on_c, 0, 74, 96
2, 695296, Note_off_c, 0, 74, 0
2, 695296, Note_on_c, 0, 77, 96
2, 695808, Note_off_c, 0, 77, 0
2, 695808, Note_on_c, 0, 76, 96
2, 696320, Note_off_c, 0, 76, 0
2, 696320, Note_on_c, 0, 74, 96
2, 700928, Note_off_c, 0, 74, 0
2, 700928, Note_on_c, 0, 77, 96
2, 701440, Note_off_c, 0, 77, 0
2, 701440, Note_on_c, 0, 76, 96
2, 701952, Note_off_c, 0, 76, 0
2, 701952, Note_on_c, 0, 74, 96
2, 702464, Note_off_c, 0, 74, 0
2, 702464, Note_on_c, 0, 72, 96
2, 702976, Note_off_c, 0, 72, 0
2, 702976, Note_on_c, 0, 71, 96
2, 703488, Note_off_c, 0, 71, 0
2, 703488, Note_on_c, 0, 69, 96
2, 704000, Note_off_c, 0, 69, 0
2, 704000, Note_on_c, 0, 71, 96
2, 704512, Note_off_c, 0, 71, 0
2, 704512, Note_on_c, 0, 72, 96
2, 705024, Note_off_c, 0, 72, 0
2, 705024, Note_on_c, 0, 74, 96
2, 705536, Note_off_c, 0, 74, 0
2, 705536, Note_on_c, 0, 76, 96
2, 706048, Note_off_c, 0, 76, 0
2, 706048, Note_on_c, 0, 71, 96
2, 706560, Note_off_c, 0, 71, 0
2, 706560, Note_on_c, 0, 72, 96
2, 707072, Note_off_c, 0, 72, 0
2, 707072, Note_on_c, 0, 74, 96
2, 707323, Note_off_c, 0, 74, 0
2, 707328, Note_on_c, 0, 72, 96
2, 707579, Note_off_c, 0, 72, 0
2, 707584, Note_on_c, 0, 71, 96
2, 708096, Note_off_c, 0, 71, 0
2, 708096, Note_on_c, 0, 72, 96
2, 708347, Note_off_c, 0, 72, 0
2, 708352, Note_on_c, 0, 74, 96
2, 713211, Note_off_c, 0, 74, 0
2, 713216, Note_on_c, 0, 72, 96
2, 713728, Note_off_c, 0, 72, 0
2, 713728, Note_on_c, 0, 71, 96
2, 714240, Note_off_c, 0, 71, 0
2, 714240, Note_on_c, 0, 74, 96
2, 714752, Note_off_c, 0, 74, 0
2, 714752, Note_on_c, 0, 72, 96
2, 715264, Note_off_c, 0, 72, 0
2, 715264, Note_on_c, 0, 71, 96
2, 715776, Note_off_c, 0, 71, 0
2, 715776, Note_on_c, 0, 72, 96
2, 716288, Note_off_c, 0, 72, 0
2, 716288, Note_on_c, 0, 76, 96
2, 716800, Note_off_c, 0, 76, 0
2, 716800, Note_on_c, 0, 74, 96
2, 717312, Note_off_c, 0, 74, 0
2, 717312, Note_on_c, 0, 72, 96
2, 717824, Note_off_c, 0, 72, 0
2, 717824, Note_on_c, 0, 74, 96
2, 718336, Note_off_c, 0, 74, 0
2, 718336, Note_on_c, 0, 77, 96
2, 718848, Note_off_c, 0, 77, 0
2, 718848, Note_on_c, 0, 76, 96
2, 719360, Note_off_c, 0, 76, 0
2, 719360, Note_on_c, 0, 74, 96
2, 719872, Note_off_c, 0, 74, 0
2, 719872, Note_on_c, 0, 72, 96
2, 720384, Note_off_c, 0, 72, 0
2, 720384, Note_on_c, 0, 76, 96
2, 720896, Note_off_c, 0, 76, 0
2, 720896, Note_on_c, 0, 74, 96
2, 721408, Note_off_c, 0, 74, 0
2, 721408, Note_on_c, 0, 72, 96
2, 721920, Note_off_c, 0, 72, 0
2, 721920, Note_on_c, 0, 74, 96
2, 722432, Note_off_c, 0, 74, 0
2, 722432, Note_on_c, 0, 77, 96
2, 722944, Note_off_c, 0, 77, 0
2, 722944, Note_on_c, 0, 76, 96
2, 723456, Note_off_c, 0, 76, 0
2, 723456, Note_on_c, 0, 74, 96
2, 723968, Note_off_c, 0, 74, 0
2, 723968, Note_on_c, 0, 76, 96
2, 724480, Note_off_c, 0, 76, 0
2, 724480, Note_on_c, 0, 79, 96
2, 724992, Note_off_c, 0, 79, 0
2, 724992, Note_on_c, 0, 77, 96
2, 727040, Note_off_c, 0, 77, 0
2, 727552, Note_on_c, 0, 76, 96
2, 728064, Note_off_c, 0, 76, 0
2, 728064, Note_on_c, 0, 74, 96
2, 728576, Note_off_c, 0, 74, 0
2, 728576, Note_on_c, 0, 72, 96
2, 729088, Note_off_c, 0, 72, 0
2, 729088, Note_on_c, 0, 71, 96
2, 731136, Note_off_c, 0, 71, 0
2, 731648, Note_on_c, 0, 72, 96
2, 732160, Note_off_c, 0, 72, 0
2, 732160, Note_on_c, 0, 71, 96
2, 732672, Note_off_c, 0, 71, 0
2, 732672, Note_on_c, 0, 69, 96
2, 733184, Note_off_c, 0, 69, 0
2, 733184, Note_on_c, 0, 67, 96
2, 735232, Note_off_c, 0, 67, 0
2, 735744, Note_on_c, 0, 67, 96
2, 736256, Note_off_c, 0, 67, 0
2, 736256, Note_on_c, 0, 72, 96
2, 737792, Note_off_c, 0, 72, 0
2, 737792, Note_on_c, 0, 72, 96
2, 738304, Note_off_c, 0, 72, 0
2, 738304, Note_on_c, 0, 71, 96
2, 738816, Note_off_c, 0, 71, 0
2, 738816, Note_on_c, 0, 69, 96
2, 739328, Note_off_c, 0, 69, 0
2, 739328, Note_on_c, 0, 67, 96
2, 739840, Note_off_c, 0, 67, 0
2, 739840, Note_on_c, 0, 65, 96
2, 740352, Note_off_c, 0, 65, 0
2, 740352, Note_on_c, 0, 64, 96
2, 740864, Note_off_c, 0, 64, 0
2, 740864, Note_on_c, 0, 62, 96
2, 741376, Note_off_c, 0, 62, 0
2, 741376, Note_on_c, 0, 64, 96
2, 745984, Note_off_c, 0, 64, 0
2, 745984, Note_on_c, 0, 62, 96
2, 746496, Note_off_c, 0, 62, 0
2, 746496, Note_on_c, 0, 64, 96
2, 751104, Note_off_c, 0, 64, 0
2, 751616, Note_on_c, 0, 64, 96
2, 753664, Note_off_c, 0, 64, 0
2, 753664, Note_on_c, 0, 66, 96
2, 755712, Note_off_c, 0, 66, 0
2, 755712, Note_on_c, 0, 67, 96
2, 757760, Note_off_c, 0, 67, 0
2, 757760, Note_on_c, 0, 69, 96
2, 759808, Note_off_c, 0, 69, 0
2, 759808, Note_on_c, 0, 71, 96
2, 761856, Note_off_c, 0, 71, 0
2, 761856, Note_on_c, 0, 72, 96
2, 763392, Note_off_c, 0, 72, 0
2, 763904, Note_on_c, 0, 72, 96
2, 768512, Note_off_c, 0, 72, 0
2, 768512, Note_on_c, 0, 72, 96
2, 769024, Note_off_c, 0, 72, 0
2, 769024, Note_on_c, 0, 71, 96
2, 769536, Note_off_c, 0, 71, 0
2, 769536, Note_on_c, 0, 69, 96
2, 770048, Note_off_c, 0, 69, 0
2, 770560, Note_on_c, 0, 74, 96
2, 772608, Note_off_c, 0, 74, 0
2, 772608, Note_on_c, 0, 72, 96
2, 774144, Note_off_c, 0, 72, 0
2, 774144, Note_on_c, 0, 74, 96
2, 778240, Note_off_c, 0, 74, 0
2, 778241, End_track
3, 0, Start_track
3, 0, Title_t, "Instrument 2"
3, 0, Program_c, 1, 0
3, 0, Control_c, 1, 7, 127
3, 19456, Note_on_c, 1, 62, 96
3, 19968, Note_off_c, 1, 62, 0
3, 19968, Note_on_c, 1, 64, 96
3, 20480, Note_off_c, 1, 64, 0
3, 20480, Note_on_c, 1, 66, 96
3, 20992, Note_off_c, 1, 66, 0
3, 20992, Note_on_c, 1, 62, 96
3, 21504, Note_off_c, 1, 62, 0
3, 21504, Note_on_c, 1, 61, 96
3, 22016, Note_off_c, 1, 61, 0
3, 22016, Note_on_c, 1, 62, 96
3, 22528, Note_off_c, 1, 62, 0
3, 22528, Note_on_c, 1, 67, 96
3, 23040, Note_off_c, 1, 67, 0
3, 23040, Note_on_c, 1, 62, 96
3, 23552, Note_off_c, 1, 62, 0
3, 23552, Note_on_c, 1, 61, 96
3, 24064, Note_off_c, 1, 61, 0
3, 24064, Note_on_c, 1, 62, 96
3, 24576, Note_off_c, 1, 62, 0
3, 24576, Note_on_c, 1, 69, 96
3, 25088, Note_off_c, 1, 69, 0
3, 25088, Note_on_c, 1, 67, 96
3, 25600, Note_off_c, 1, 67, 0
3, 25600, Note_on_c, 1, 66, 96
3, 26112, Note_off_c, 1, 66, 0
3, 26112, Note_on_c, 1, 64, 96
3, 26624, Note_off_c, 1, 64, 0
3, 26624, Note_on_c, 1, 62, 96
3, 27136, Note_off_c, 1, 62, 0
3, 27136, Note_on_c, 1, 61, 96
3, 27648, Note_off_c, 1, 61, 0
3, 27648, Note_on_c, 1, 59, 96
3, 28160, Note_off_c, 1, 59, 0
3, 28160, Note_on_c, 1, 57, 96
3, 28672, Note_off_c, 1, 57, 0
3, 28672, Note_on_c, 1, 59, 96
3, 29184, Note_off_c, 1, 59, 0
3, 29184, Note_on_c, 1, 62, 96
3, 29696, Note_off_c, 1, 62, 0
3, 29696, Note_on_c, 1, 67, 96
3, 30208, Note_off_c, 1, 67, 0
3, 30208, Note_on_c, 1, 61, 96
3, 30720, Note_off_c, 1, 61, 0
3, 30720, Note_on_c, 1, 62, 96
3, 31232, Note_off_c, 1, 62, 0
3, 31232, Note_on_c, 1, 64, 96
3, 31744, Note_off_c, 1, 64, 0
3, 31744, Note_on_c, 1, 66, 96
3, 32256, Note_off_c, 1, 66, 0
3, 32256, Note_on_c, 1, 57, 96
3, 32768, Note_off_c, 1, 57, 0
3, 32768, Note_on_c, 1, 59, 96
3, 33280, Note_off_c, 1, 59, 0
3, 33280, Note_on_c, 1, 66, 96
3, 33792, Note_off_c, 1, 66, 0
3, 33792, Note_on_c, 1, 64, 96
3, 34304, Note_off_c, 1, 64, 0
3, 34304, Note_on_c, 1, 62, 96
3, 34816, Note_off_c, 1, 62, 0
3, 34816, Note_on_c, 1, 61, 96
3, 35328, Note_off_c, 1, 61, 0
3, 35328, Note_on_c, 1, 71, 96
3, 35840, Note_off_c, 1, 71, 0
3, 35840, Note_on_c, 1, 69, 96
3, 36352, Note_off_c, 1, 69, 0
3, 36352, Note_on_c, 1, 67, 96
3, 36864, Note_off_c, 1, 67, 0
3, 36864, Note_on_c, 1, 66, 96
3, 37376, Note_off_c, 1, 66, 0
3, 37376, Note_on_c, 1, 64, 96
3, 37888, Note_off_c, 1, 64, 0
3, 37888, Note_on_c, 1, 62, 96
3, 38400, Note_off_c, 1, 62, 0
3, 38400, Note_on_c, 1, 64, 96
3, 38912, Note_off_c, 1, 64, 0
3, 38912, Note_on_c, 1, 66, 96
3, 39936, Note_off_c, 1, 66, 0
3, 40960, Note_on_c, 1, 68, 96
3, 41984, Note_off_c, 1, 68, 0
3, 43008, Note_on_c, 1, 69, 96
3, 44032, Note_off_c, 1, 69, 0
3, 45056, Note_on_c, 1, 64, 96
3, 46080, Note_off_c, 1, 64, 0
3, 47104, Note_on_c, 1, 66, 96
3, 48128, Note_off_c, 1, 66, 0
3, 49152, Note_on_c, 1, 67, 96
3, 50176, Note_off_c, 1, 67, 0
3, 55808, Note_on_c, 1, 54, 96
3, 56320, Note_off_c, 1, 54, 0
3, 56320, Note_on_c, 1, 55, 96
3, 56832, Note_off_c, 1, 55, 0
3, 56832, Note_on_c, 1, 57, 96
3, 57344, Note_off_c, 1, 57, 0
3, 57344, Note_on_c, 1, 59, 96
3, 57856, Note_off_c, 1, 59, 0
3, 57856, Note_on_c, 1, 55, 96
3, 58368, Note_off_c, 1, 55, 0
3, 58368, Note_on_c, 1, 54, 96
3, 58880, Note_off_c, 1, 54, 0
3, 58880, Note_on_c, 1, 55, 96
3, 59392, Note_off_c, 1, 55, 0
3, 59392, Note_on_c, 1, 60, 96
3, 59904, Note_off_c, 1, 60, 0
3, 59904, Note_on_c, 1, 57, 96
3, 60416, Note_off_c, 1, 57, 0
3, 60416, Note_on_c, 1, 55, 96
3, 60928, Note_off_c, 1, 55, 0
3, 60928, Note_on_c, 1, 57, 96
3, 61440, Note_off_c, 1, 57, 0
3, 61440, Note_on_c, 1, 62, 96
3, 61952, Note_off_c, 1, 62, 0
3, 61952, Note_on_c, 1, 50, 96
3, 62464, Note_off_c, 1, 50, 0
3, 62464, Note_on_c, 1, 52, 96
3, 62976, Note_off_c, 1, 52, 0
3, 62976, Note_on_c, 1, 54, 96
3, 63488, Note_off_c, 1, 54, 0
3, 63488, Note_on_c, 1, 55, 96
3, 68096, Note_off_c, 1, 55, 0
3, 68096, Note_on_c, 1, 54, 96
3, 68608, Note_off_c, 1, 54, 0
3, 68608, Note_on_c, 1, 55, 96
3, 69120, Note_off_c, 1, 55, 0
3, 69120, Note_on_c, 1, 57, 96
3, 69632, Note_off_c, 1, 57, 0
3, 69632, Note_on_c, 1, 59, 96
3, 72704, Note_off_c, 1, 59, 0
3, 72704, Note_on_c, 1, 57, 96
3, 74752, Note_off_c, 1, 57, 0
3, 74752, Note_on_c, 1, 55, 96
3, 76288, Note_off_c, 1, 55, 0
3, 76288, Note_on_c, 1, 54, 96
3, 76800, Note_off_c, 1, 54, 0
3, 76800, Note_on_c, 1, 55, 96
3, 77312, Note_off_c, 1, 55, 0
3, 77312, Note_on_c, 1, 57, 96
3, 77824, Note_off_c, 1, 57, 0
3, 77824, Note_on_c, 1, 57, 96
3, 79872, Note_off_c, 1, 57, 0
3, 79872, Note_on_c, 1, 55, 96
3, 80896, Note_off_c, 1, 55, 0
3, 81920, Note_on_c, 1, 57, 96
3, 82944, Note_off_c, 1, 57, 0
3, 83968, Note_on_c, 1, 59, 96
3, 84992, Note_off_c, 1, 59, 0
3, 86016, Note_on_c, 1, 60, 96
3, 87040, Note_off_c, 1, 60, 0
3, 88064, Note_on_c, 1, 59, 96
3, 89088, Note_off_c, 1, 59, 0
3, 90112, Note_on_c, 1, 57, 96
3, 91136, Note_off_c, 1, 57, 0
3, 92160, Note_on_c, 1, 71, 96
3, 93184, Note_off_c, 1, 71, 0
3, 94208, Note_on_c, 1, 67, 96
3, 95232, Note_off_c, 1, 67, 0
3, 96256, Note_on_c, 1, 66, 96
3, 97280, Note_off_c, 1, 66, 0
3, 98304, Note_on_c, 1, 67, 96
3, 99328, Note_off_c, 1, 67, 0
3, 135680, Note_on_c, 1, 73, 96
3, 136192, Note_off_c, 1, 73, 0
3, 136192, Note_on_c, 1, 71, 96
3, 136704, Note_off_c, 1, 71, 0
3, 136704, Note_on_c, 1, 73, 96
3, 137216, Note_off_c, 1, 73, 0
3, 137216, Note_on_c, 1, 75, 96
3, 137728, Note_off_c, 1, 75, 0
3, 137728, Note_on_c, 1, 71, 96
3, 138240, Note_off_c, 1, 71, 0
3, 138240, Note_on_c, 1, 69, 96
3, 138752, Note_off_c, 1, 69, 0
3, 138752, Note_on_c, 1, 71, 96
3, 139264, Note_off_c, 1, 71, 0
3, 139264, Note_on_c, 1, 76, 96
3, 139776, Note_off_c, 1, 76, 0
3, 139776, Note_on_c, 1, 71, 96
3, 140288, Note_off_c, 1, 71, 0
3, 140288, Note_on_c, 1, 69, 96
3, 140800, Note_off_c, 1, 69, 0
3, 140800, Note_on_c, 1, 71, 96
3, 141312, Note_off_c, 1, 71, 0
3, 141312, Note_on_c, 1, 78, 96
3, 141824, Note_off_c, 1, 78, 0
3, 141824, Note_on_c, 1, 76, 96
3, 142336, Note_off_c, 1, 76, 0
3, 142336, Note_on_c, 1, 75, 96
3, 142848, Note_off_c, 1, 75, 0
3, 142848, Note_on_c, 1, 73, 96
3, 143360, Note_off_c, 1, 73, 0
3, 143360, Note_on_c, 1, 71, 96
3, 144384, Note_off_c, 1, 71, 0
3, 145408, Note_on_c, 1, 71, 96
3, 147968, Note_off_c, 1, 71, 0
3, 147968, Note_on_c, 1, 64, 96
3, 148480, Note_off_c, 1, 64, 0
3, 148480, Note_on_c, 1, 66, 96
3, 148992, Note_off_c, 1, 66, 0
3, 148992, Note_on_c, 1, 67, 96
3, 149504, Note_off_c, 1, 67, 0
3, 149504, Note_on_c, 1, 69, 96
3, 150016, Note_off_c, 1, 69, 0
3, 150016, Note_on_c, 1, 71, 96
3, 150528, Note_off_c, 1, 71, 0
3, 150528, Note_on_c, 1, 72, 96
3, 151040, Note_off_c, 1, 72, 0
3, 151040, Note_on_c, 1, 64, 96
3, 151552, Note_off_c, 1, 64, 0
3, 151552, Note_on_c, 1, 63, 96
3, 153600, Note_off_c, 1, 63, 0
3, 154112, Note_on_c, 1, 64, 96
3, 154624, Note_off_c, 1, 64, 0
3, 154624, Note_on_c, 1, 63, 96
3, 155136, Note_off_c, 1, 63, 0
3, 155136, Note_on_c, 1, 64, 96
3, 155648, Note_off_c, 1, 64, 0
3, 156160, Note_on_c, 1, 64, 96
3, 156672, Note_off_c, 1, 64, 0
3, 157184, Note_on_c, 1, 64, 96
3, 157696, Note_off_c, 1, 64, 0
3, 157696, Note_on_c, 1, 59, 96
3, 158720, Note_off_c, 1, 59, 0
3, 158720, Note_on_c, 1, 57, 96
3, 159744, Note_off_c, 1, 57, 0
3, 159744, Note_on_c, 1, 55, 96
3, 160768, Note_off_c, 1, 55, 0
3, 163840, Note_on_c, 1, 75, 96
3, 164864, Note_off_c, 1, 75, 0
3, 165888, Note_on_c, 1, 76, 96
3, 166912, Note_off_c, 1, 76, 0
3, 178688, Note_on_c, 1, 62, 96
3, 179200, Note_off_c, 1, 62, 0
3, 179200, Note_on_c, 1, 64, 96
3, 179712, Note_off_c, 1, 64, 0
3, 179712, Note_on_c, 1, 66, 96
3, 180224, Note_off_c, 1, 66, 0
3, 180224, Note_on_c, 1, 67, 96
3, 180736, Note_off_c, 1, 67, 0
3, 180736, Note_on_c, 1, 64, 96
3, 181248, Note_off_c, 1, 64, 0
3, 181248, Note_on_c, 1, 62, 96
3, 181760, Note_off_c, 1, 62, 0
3, 181760, Note_on_c, 1, 64, 96
3, 182272, Note_off_c, 1, 64, 0
3, 182272, Note_on_c, 1, 65, 96
3, 182784, Note_off_c, 1, 65, 0
3, 182784, Note_on_c, 1, 62, 96
3, 183296, Note_off_c, 1, 62, 0
3, 183296, Note_on_c, 1, 60, 96
3, 183808, Note_off_c, 1, 60, 0
3, 183808, Note_on_c, 1, 62, 96
3, 184320, Note_off_c, 1, 62, 0
3, 184320, Note_on_c, 1, 64, 96
3, 188416, Note_off_c, 1, 64, 0
3, 188928, Note_on_c, 1, 69, 96
3, 189440, Note_off_c, 1, 69, 0
3, 189440, Note_on_c, 1, 67, 96
3, 189952, Note_off_c, 1, 67, 0
3, 189952, Note_on_c, 1, 69, 96
3, 190464, Note_off_c, 1, 69, 0
3, 190464, Note_on_c, 1, 71, 96
3, 190976, Note_off_c, 1, 71, 0
3, 190976, Note_on_c, 1, 69, 96
3, 191488, Note_off_c, 1, 69, 0
3, 191488, Note_on_c, 1, 72, 96
3, 192000, Note_off_c, 1, 72, 0
3, 192000, Note_on_c, 1, 71, 96
3, 192512, Note_off_c, 1, 71, 0
3, 192512, Note_on_c, 1, 69, 96
3, 193024, Note_off_c, 1, 69, 0
3, 193024, Note_on_c, 1, 67, 96
3, 193536, Note_off_c, 1, 67, 0
3, 193536, Note_on_c, 1, 66, 96
3, 194048, Note_off_c, 1, 66, 0
3, 194048, Note_on_c, 1, 67, 96
3, 194560, Note_off_c, 1, 67, 0
3, 194560, Note_on_c, 1, 69, 96
3, 195072, Note_off_c, 1, 69, 0
3, 195072, Note_on_c, 1, 71, 96
3, 195584, Note_off_c, 1, 71, 0
3, 195584, Note_on_c, 1, 72, 96
3, 196096, Note_off_c, 1, 72, 0
3, 196096, Note_on_c, 1, 66, 96
3, 196608, Note_off_c, 1, 66, 0
3, 196608, Note_on_c, 1, 67, 96
3, 198656, Note_off_c, 1, 67, 0
3, 198656, Note_on_c, 1, 74, 96
3, 200704, Note_off_c, 1, 74, 0
3, 200704, Note_on_c, 1, 72, 96
3, 202752, Note_off_c, 1, 72, 0
3, 202752, Note_on_c, 1, 71, 96
3, 203776, Note_off_c, 1, 71, 0
3, 222208, Note_on_c, 1, 62, 96
3, 222720, Note_off_c, 1, 62, 0
3, 222720, Note_on_c, 1, 64, 96
3, 223232, Note_off_c, 1, 64, 0
3, 223232, Note_on_c, 1, 66, 96
3, 223744, Note_off_c, 1, 66, 0
3, 223744, Note_on_c, 1, 62, 96
3, 224256, Note_off_c, 1, 62, 0
3, 224256, Note_on_c, 1, 61, 96
3, 224768, Note_off_c, 1, 61, 0
3, 224768, Note_on_c, 1, 62, 96
3, 225280, Note_off_c, 1, 62, 0
3, 225280, Note_on_c, 1, 67, 96
3, 225792, Note_off_c, 1, 67, 0
3, 225792, Note_on_c, 1, 62, 96
3, 226304, Note_off_c, 1, 62, 0
3, 226304, Note_on_c, 1, 61, 96
3, 226816, Note_off_c, 1, 61, 0
3, 226816, Note_on_c, 1, 62, 96
3, 227328, Note_off_c, 1, 62, 0
3, 227328, Note_on_c, 1, 69, 96
3, 227840, Note_off_c, 1, 69, 0
3, 227840, Note_on_c, 1, 67, 96
3, 228352, Note_off_c, 1, 67, 0
3, 228352, Note_on_c, 1, 66, 96
3, 228864, Note_off_c, 1, 66, 0
3, 228864, Note_on_c, 1, 64, 96
3, 229376, Note_off_c, 1, 64, 0
3, 229376, Note_on_c, 1, 62, 96
3, 229888, Note_off_c, 1, 62, 0
3, 229888, Note_on_c, 1, 61, 96
3, 230400, Note_off_c, 1, 61, 0
3, 230400, Note_on_c, 1, 59, 96
3, 230912, Note_off_c, 1, 59, 0
3, 230912, Note_on_c, 1, 57, 96
3, 231424, Note_off_c, 1, 57, 0
3, 231424, Note_on_c, 1, 59, 96
3, 231936, Note_off_c, 1, 59, 0
3, 231936, Note_on_c, 1, 62, 96
3, 232448, Note_off_c, 1, 62, 0
3, 232448, Note_on_c, 1, 67, 96
3, 232960, Note_off_c, 1, 67, 0
3, 232960, Note_on_c, 1, 61, 96
3, 233472, Note_off_c, 1, 61, 0
3, 233472, Note_on_c, 1, 62, 96
3, 233984, Note_off_c, 1, 62, 0
3, 233984, Note_on_c, 1, 64, 96
3, 234496, Note_off_c, 1, 64, 0
3, 234496, Note_on_c, 1, 66, 96
3, 235008, Note_off_c, 1, 66, 0
3, 235008, Note_on_c, 1, 57, 96
3, 235520, Note_off_c, 1, 57, 0
3, 235520, Note_on_c, 1, 59, 96
3, 236032, Note_off_c, 1, 59, 0
3, 236032, Note_on_c, 1, 66, 96
3, 236544, Note_off_c, 1, 66, 0
3, 236544, Note_on_c, 1, 64, 96
3, 237056, Note_off_c, 1, 64, 0
3, 237056, Note_on_c, 1, 62, 96
3, 237568, Note_off_c, 1, 62, 0
3, 237568, Note_on_c, 1, 61, 96
3, 238080, Note_off_c, 1, 61, 0
3, 238080, Note_on_c, 1, 71, 96
3, 238592, Note_off_c, 1, 71, 0
3, 238592, Note_on_c, 1, 69, 96
3, 239104, Note_off_c, 1, 69, 0
3, 239104, Note_on_c, 1, 67, 96
3, 239616, Note_off_c, 1, 67, 0
3, 239616, Note_on_c, 1, 66, 96
3, 240128, Note_off_c, 1, 66, 0
3, 240128, Note_on_c, 1, 64, 96
3, 240640, Note_off_c, 1, 64, 0
3, 240640, Note_on_c, 1, 62, 96
3, 241152, Note_off_c, 1, 62, 0
3, 241152, Note_on_c, 1, 64, 96
3, 241664, Note_off_c, 1, 64, 0
3, 241664, Note_on_c, 1, 66, 96
3, 242688, Note_off_c, 1, 66, 0
3, 243712, Note_on_c, 1, 68, 96
3, 244736, Note_off_c, 1, 68, 0
3, 245760, Note_on_c, 1, 69, 96
3, 246784, Note_off_c, 1, 69, 0
3, 247808, Note_on_c, 1, 64, 96
3, 248832, Note_off_c, 1, 64, 0
3, 249856, Note_on_c, 1, 66, 96
3, 250880, Note_off_c, 1, 66, 0
3, 251904, Note_on_c, 1, 67, 96
3, 252928, Note_off_c, 1, 67, 0
3, 258560, Note_on_c, 1, 54, 96
3, 259072, Note_off_c, 1, 54, 0
3, 259072, Note_on_c, 1, 55, 96
3, 259584, Note_off_c, 1, 55, 0
3, 259584, Note_on_c, 1, 57, 96
3, 260096, Note_off_c, 1, 57, 0
3, 260096, Note_on_c, 1, 59, 96
3, 260608, Note_off_c, 1, 59, 0
3, 260608, Note_on_c, 1, 55, 96
3, 261120, Note_off_c, 1, 55, 0
3, 261120, Note_on_c, 1, 54, 96
3, 261632, Note_off_c, 1, 54, 0
3, 261632, Note_on_c, 1, 55, 96
3, 262144, Note_off_c, 1, 55, 0
3, 262144, Note_on_c, 1, 60, 96
3, 262656, Note_off_c, 1, 60, 0
3, 262656, Note_on_c, 1, 57, 96
3, 263168, Note_off_c, 1, 57, 0
3, 263168, Note_on_c, 1, 55, 96
3, 263680, Note_off_c, 1, 55, 0
3, 263680, Note_on_c, 1, 57, 96
3, 264192, Note_off_c, 1, 57, 0
3, 264192, Note_on_c, 1, 62, 96
3, 264704, Note_off_c, 1, 62, 0
3, 264704, Note_on_c, 1, 50, 96
3, 265216, Note_off_c, 1, 50, 0
3, 265216, Note_on_c, 1, 52, 96
3, 265728, Note_off_c, 1, 52, 0
3, 265728, Note_on_c, 1, 54, 96
3, 266240, Note_off_c, 1, 54, 0
3, 266240, Note_on_c, 1, 55, 96
3, 270848, Note_off_c, 1, 55, 0
3, 270848, Note_on_c, 1, 54, 96
3, 271360, Note_off_c, 1, 54, 0
3, 271360, Note_on_c, 1, 55, 96
3, 271872, Note_off_c, 1, 55, 0
3, 271872, Note_on_c, 1, 57, 96
3, 272384, Note_off_c, 1, 57, 0
3, 272384, Note_on_c, 1, 59, 96
3, 275456, Note_off_c, 1, 59, 0
3, 275456, Note_on_c, 1, 57, 96
3, 277504, Note_off_c, 1, 57, 0
3, 277504, Note_on_c, 1, 55, 96
3, 279040, Note_off_c, 1, 55, 0
3, 279040, Note_on_c, 1, 54, 96
3, 279552, Note_off_c, 1, 54, 0
3, 279552, Note_on_c, 1, 55, 96
3, 280064, Note_off_c, 1, 55, 0
3, 280064, Note_on_c, 1, 57, 96
3, 280576, Note_off_c, 1, 57, 0
3, 280576, Note_on_c, 1, 57, 96
3, 282624, Note_off_c, 1, 57, 0
3, 282624, Note_on_c, 1, 55, 96
3, 283648, Note_off_c, 1, 55, 0
3, 284672, Note_on_c, 1, 57, 96
3, 285696, Note_off_c, 1, 57, 0
3, 286720, Note_on_c, 1, 59, 96
3, 287744, Note_off_c, 1, 59, 0
3, 288768, Note_on_c, 1, 60, 96
3, 289792, Note_off_c, 1, 60, 0
3, 290816, Note_on_c, 1, 59, 96
3, 291840, Note_off_c, 1, 59, 0
3, 292864, Note_on_c, 1, 57, 96
3, 293888, Note_off_c, 1, 57, 0
3, 294912, Note_on_c, 1, 71, 96
3, 295936, Note_off_c, 1, 71, 0
3, 296960, Note_on_c, 1, 67, 96
3, 297984, Note_off_c, 1, 67, 0
3, 299008, Note_on_c, 1, 66, 96
3, 300032, Note_off_c, 1, 66, 0
3, 301056, Note_on_c, 1, 67, 96
3, 302080, Note_off_c, 1, 67, 0
3, 338432, Note_on_c, 1, 73, 96
3, 338944, Note_off_c, 1, 73, 0
3, 338944, Note_on_c, 1, 71, 96
3, 339456, Note_off_c, 1, 71, 0
3, 339456, Note_on_c, 1, 73, 96
3, 339968, Note_off_c, 1, 73, 0
3, 339968, Note_on_c, 1, 75, 96
3, 340480, Note_off_c, 1, 75, 0
3, 340480, Note_on_c, 1, 71, 96
3, 340992, Note_off_c, 1, 71, 0
3, 340992, Note_on_c, 1, 69, 96
3, 341504, Note_off_c, 1, 69, 0
3, 341504, Note_on_c, 1, 71, 96
3, 342016, Note_off_c, 1, 71, 0
3, 342016, Note_on_c, 1, 76, 96
3, 342528, Note_off_c, 1, 76, 0
3, 342528, Note_on_c, 1, 71, 96
3, 343040, Note_off_c, 1, 71, 0
3, 343040, Note_on_c, 1, 69, 96
3, 343552, Note_off_c, 1, 69, 0
3, 343552, Note_on_c, 1, 71, 96
3, 344064, Note_off_c, 1, 71, 0
3, 344064, Note_on_c, 1, 78, 96
3, 344576, Note_off_c, 1, 78, 0
3, 344576, Note_on_c, 1, 76, 96
3, 345088, Note_off_c, 1, 76, 0
3, 345088, Note_on_c, 1, 75, 96
3, 345600, Note_off_c, 1, 75, 0
3, 345600, Note_on_c, 1, 73, 96
3, 346112, Note_off_c, 1, 73, 0
3, 346112, Note_on_c, 1, 71, 96
3, 347136, Note_off_c, 1, 71, 0
3, 348160, Note_on_c, 1, 71, 96
3, 350720, Note_off_c, 1, 71, 0
3, 350720, Note_on_c, 1, 64, 96
3, 351232, Note_off_c, 1, 64, 0
3, 351232, Note_on_c, 1, 66, 96
3, 351744, Note_off_c, 1, 66, 0
3, 351744, Note_on_c, 1, 67, 96
3, 352256, Note_off_c, 1, 67, 0
3, 352256, Note_on_c, 1, 69, 96
3, 352768, Note_off_c, 1, 69, 0
3, 352768, Note_on_c, 1, 71, 96
3, 353280, Note_off_c, 1, 71, 0
3, 353280, Note_on_c, 1, 72, 96
3, 353792, Note_off_c, 1, 72, 0
3, 353792, Note_on_c, 1, 64, 96
3, 354304, Note_off_c, 1, 64, 0
3, 354304, Note_on_c, 1, 63, 96
3, 356352, Note_off_c, 1, 63, 0
3, 356864, Note_on_c, 1, 64, 96
3, 357376, Note_off_c, 1, 64, 0
3, 357376, Note_on_c, 1, 63, 96
3, 357888, Note_off_c, 1, 63, 0
3, 357888, Note_on_c, 1, 64, 96
3, 358400, Note_off_c, 1, 64, 0
3, 358912, Note_on_c, 1, 64, 96
3, 359424, Note_off_c, 1, 64, 0
3, 359936, Note_on_c, 1, 64, 96
3, 360448, Note_off_c, 1, 64, 0
3, 360448, Note_on_c, 1, 59, 96
3, 361472, Note_off_c, 1, 59, 0
3, 361472, Note_on_c, 1, 57, 96
3, 362496, Note_off_c, 1, 57, 0
3, 362496, Note_on_c, 1, 55, 96
3, 363520, Note_off_c, 1, 55, 0
3, 366592, Note_on_c, 1, 75, 96
3, 367616, Note_off_c, 1, 75, 0
3, 368640, Note_on_c, 1, 76, 96
3, 369664, Note_off_c, 1, 76, 0
3, 381440, Note_on_c, 1, 62, 96
3, 381952, Note_off_c, 1, 62, 0
3, 381952, Note_on_c, 1, 64, 96
3, 382464, Note_off_c, 1, 64, 0
3, 382464, Note_on_c, 1, 66, 96
3, 382976, Note_off_c, 1, 66, 0
3, 382976, Note_on_c, 1, 67, 96
3, 383488, Note_off_c, 1, 67, 0
3, 383488, Note_on_c, 1, 64, 96
3, 384000, Note_off_c, 1, 64, 0
3, 384000, Note_on_c, 1, 62, 96
3, 384512, Note_off_c, 1, 62, 0
3, 384512, Note_on_c, 1, 64, 96
3, 385024, Note_off_c, 1, 64, 0
3, 385024, Note_on_c, 1, 65, 96
3, 385536, Note_off_c, 1, 65, 0
3, 385536, Note_on_c, 1, 62, 96
3, 386048, Note_off_c, 1, 62, 0
3, 386048, Note_on_c, 1, 60, 96
3, 386560, Note_off_c, 1, 60, 0
3, 386560, Note_on_c, 1, 62, 96
3, 387072, Note_off_c, 1, 62, 0
3, 387072, Note_on_c, 1, 64, 96
3, 391168, Note_off_c, 1, 64, 0
3, 391680, Note_on_c, 1, 69, 96
3, 392192, Note_off_c, 1, 69, 0
3, 392192, Note_on_c, 1, 67, 96
3, 392704, Note_off_c, 1, 67, 0
3, 392704, Note_on_c, 1, 69, 96
3, 393216, Note_off_c, 1, 69, 0
3, 393216, Note_on_c, 1, 71, 96
3, 393728, Note_off_c, 1, 71, 0
3, 393728, Note_on_c, 1, 69, 96
3, 394240, Note_off_c, 1, 69, 0
3, 394240, Note_on_c, 1, 72, 96
3, 394752, Note_off_c, 1, 72, 0
3, 394752, Note_on_c, 1, 71, 96
3, 395264, Note_off_c, 1, 71, 0
3, 395264, Note_on_c, 1, 69, 96
3, 395776, Note_off_c, 1, 69, 0
3, 395776, Note_on_c, 1, 67, 96
3, 396288, Note_off_c, 1, 67, 0
3, 396288, Note_on_c, 1, 66, 96
3, 396800, Note_off_c, 1, 66, 0
3, 396800, Note_on_c, 1, 67, 96
3, 397312, Note_off_c, 1, 67, 0
3, 397312, Note_on_c, 1, 69, 96
3, 397824, Note_off_c, 1, 69, 0
3, 397824, Note_on_c, 1, 71, 96
3, 398336, Note_off_c, 1, 71, 0
3, 398336, Note_on_c, 1, 72, 96
3, 398848, Note_off_c, 1, 72, 0
3, 398848, Note_on_c, 1, 66, 96
3, 399360, Note_off_c, 1, 66, 0
3, 399360, Note_on_c, 1, 67, 96
3, 401408, Note_off_c, 1, 67, 0
3, 401408, Note_on_c, 1, 74, 96
3, 403456, Note_off_c, 1, 74, 0
3, 403456, Note_on_c, 1, 72, 96
3, 405504, Note_off_c, 1, 72, 0
3, 405504, Note_on_c, 1, 71, 96
3, 408064, Note_off_c, 1, 71, 0
3, 408064, Note_on_c, 1, 71, 96
3, 408576, Note_off_c, 1, 71, 0
3, 408576, Note_on_c, 1, 72, 96
3, 409088, Note_off_c, 1, 72, 0
3, 409088, Note_on_c, 1, 69, 96
3, 409600, Note_off_c, 1, 69, 0
3, 409600, Note_on_c, 1, 66, 96
3, 411648, Note_off_c, 1, 66, 0
3, 411648, Note_on_c, 1, 67, 96
3, 412160, Note_off_c, 1, 67, 0
3, 412160, Note_on_c, 1, 62, 96
3, 412672, Note_off_c, 1, 62, 0
3, 412672, Note_on_c, 1, 64, 96
3, 413184, Note_off_c, 1, 64, 0
3, 413184, Note_on_c, 1, 59, 96
3, 413696, Note_off_c, 1, 59, 0
3, 413696, Note_on_c, 1, 60, 96
3, 416256, Note_off_c, 1, 60, 0
3, 416256, Note_on_c, 1, 64, 96
3, 416768, Note_off_c, 1, 64, 0
3, 416768, Note_on_c, 1, 62, 96
3, 417280, Note_off_c, 1, 62, 0
3, 417280, Note_on_c, 1, 60, 96
3, 417792, Note_off_c, 1, 60, 0
3, 417792, Note_on_c, 1, 59, 96
3, 418304, Note_off_c, 1, 59, 0
3, 418304, Note_on_c, 1, 57, 96
3, 418816, Note_off_c, 1, 57, 0
3, 418816, Note_on_c, 1, 59, 96
3, 419328, Note_off_c, 1, 59, 0
3, 419328, Note_on_c, 1, 67, 96
3, 419840, Note_off_c, 1, 67, 0
3, 419840, Note_on_c, 1, 60, 96
3, 420352, Note_off_c, 1, 60, 0
3, 420352, Note_on_c, 1, 59, 96
3, 420864, Note_off_c, 1, 59, 0
3, 420864, Note_on_c, 1, 60, 96
3, 421376, Note_off_c, 1, 60, 0
3, 421376, Note_on_c, 1, 67, 96
3, 421888, Note_off_c, 1, 67, 0
3, 421888, Note_on_c, 1, 62, 96
3, 422400, Note_off_c, 1, 62, 0
3, 422400, Note_on_c, 1, 60, 96
3, 422912, Note_off_c, 1, 60, 0
3, 422912, Note_on_c, 1, 62, 96
3, 423424, Note_off_c, 1, 62, 0
3, 423424, Note_on_c, 1, 65, 96
3, 423936, Note_off_c, 1, 65, 0
3, 423936, Note_on_c, 1, 64, 96
3, 424448, Note_off_c, 1, 64, 0
3, 424448, Note_on_c, 1, 62, 96
3, 424960, Note_off_c, 1, 62, 0
3, 424960, Note_on_c, 1, 64, 96
3, 425472, Note_off_c, 1, 64, 0
3, 425472, Note_on_c, 1, 60, 96
3, 425984, Note_off_c, 1, 60, 0
3, 425984, Note_on_c, 1, 54, 96
3, 426496, Note_off_c, 1, 54, 0
3, 426496, Note_on_c, 1, 57, 96
3, 427008, Note_off_c, 1, 57, 0
3, 427008, Note_on_c, 1, 59, 96
3, 427520, Note_off_c, 1, 59, 0
3, 427520, Note_on_c, 1, 60, 96
3, 428032, Note_off_c, 1, 60, 0
3, 428032, Note_on_c, 1, 62, 96
3, 428544, Note_off_c, 1, 62, 0
3, 428544, Note_on_c, 1, 56, 96
3, 429056, Note_off_c, 1, 56, 0
3, 429056, Note_on_c, 1, 54, 96
3, 429568, Note_off_c, 1, 54, 0
3, 429568, Note_on_c, 1, 56, 96
3, 430080, Note_off_c, 1, 56, 0
3, 430080, Note_on_c, 1, 57, 96
3, 430592, Note_off_c, 1, 57, 0
3, 430592, Note_on_c, 1, 60, 96
3, 431104, Note_off_c, 1, 60, 0
3, 431104, Note_on_c, 1, 62, 96
3, 431616, Note_off_c, 1, 62, 0
3, 431616, Note_on_c, 1, 64, 96
3, 432128, Note_off_c, 1, 64, 0
3, 432128, Note_on_c, 1, 65, 96
3, 432640, Note_off_c, 1, 65, 0
3, 432640, Note_on_c, 1, 64, 96
3, 433152, Note_off_c, 1, 64, 0
3, 433152, Note_on_c, 1, 65, 96
3, 433664, Note_off_c, 1, 65, 0
3, 433664, Note_on_c, 1, 60, 96
3, 434176, Note_off_c, 1, 60, 0
3, 434176, Note_on_c, 1, 62, 96
3, 434688, Note_off_c, 1, 62, 0
3, 434688, Note_on_c, 1, 65, 96
3, 435200, Note_off_c, 1, 65, 0
3, 435200, Note_on_c, 1, 64, 96
3, 435712, Note_off_c, 1, 64, 0
3, 435712, Note_on_c, 1, 62, 96
3, 436224, Note_off_c, 1, 62, 0
3, 436224, Note_on_c, 1, 60, 96
3, 436736, Note_off_c, 1, 60, 0
3, 436736, Note_on_c, 1, 59, 96
3, 437248, Note_off_c, 1, 59, 0
3, 437248, Note_on_c, 1, 57, 96
3, 437760, Note_off_c, 1, 57, 0
3, 437760, Note_on_c, 1, 55, 96
3, 438272, Note_off_c, 1, 55, 0
3, 438272, Note_on_c, 1, 53, 96
3, 438784, Note_off_c, 1, 53, 0
3, 438784, Note_on_c, 1, 52, 96
3, 439296, Note_off_c, 1, 52, 0
3, 439296, Note_on_c, 1, 50, 96
3, 439808, Note_off_c, 1, 50, 0
3, 439808, Note_on_c, 1, 48, 96
3, 440320, Note_off_c, 1, 48, 0
3, 440320, Note_on_c, 1, 47, 96
3, 440832, Note_off_c, 1, 47, 0
3, 440832, Note_on_c, 1, 53, 96
3, 441344, Note_off_c, 1, 53, 0
3, 441344, Note_on_c, 1, 52, 96
3, 441856, Note_off_c, 1, 52, 0
3, 441856, Note_on_c, 1, 50, 96
3, 442368, Note_off_c, 1, 50, 0
3, 442368, Note_on_c, 1, 48, 96
3, 443392, Note_off_c, 1, 48, 0
3, 443392, Note_on_c, 1, 45, 96
3, 444416, Note_off_c, 1, 45, 0
3, 448512, Note_on_c, 1, 57, 96
3, 450560, Note_off_c, 1, 57, 0
3, 450560, Note_on_c, 1, 59, 96
3, 452608, Note_off_c, 1, 59, 0
3, 452608, Note_on_c, 1, 60, 96
3, 454656, Note_off_c, 1, 60, 0
3, 454656, Note_on_c, 1, 62, 96
3, 458752, Note_off_c, 1, 62, 0
3, 458752, Note_on_c, 1, 60, 96
3, 460800, Note_off_c, 1, 60, 0
3, 460800, Note_on_c, 1, 59, 96
3, 464896, Note_off_c, 1, 59, 0
3, 464896, Note_on_c, 1, 57, 96
3, 466944, Note_on_c, 1, 59, 96
3, 468992, Note_off_c, 1, 57, 0
3, 468992, Note_on_c, 1, 55, 96
3, 471040, Note_off_c, 1, 55, 0
3, 471040, Note_on_c, 1, 54, 96
3, 473088, Note_off_c, 1, 54, 0
3, 475136, Note_off_c, 1, 59, 0
3, 475136, Note_on_c, 1, 60, 96
3, 477184, Note_off_c, 1, 60, 0
3, 477184, Note_on_c, 1, 62, 96
3, 479232, Note_off_c, 1, 62, 0
3, 479232, Note_on_c, 1, 64, 96
3, 480256, Note_off_c, 1, 64, 0
3, 485376, Note_on_c, 1, 69, 96
3, 492032, Note_off_c, 1, 69, 0
3, 492032, Note_on_c, 1, 72, 96
3, 492544, Note_off_c, 1, 72, 0
3, 492544, Note_on_c, 1, 71, 96
3, 493056, Note_off_c, 1, 71, 0
3, 493056, Note_on_c, 1, 69, 96
3, 493568, Note_off_c, 1, 69, 0
3, 493568, Note_on_c, 1, 74, 96
3, 494592, Note_off_c, 1, 74, 0
3, 506368, Note_on_c, 1, 60, 96
3, 506880, Note_off_c, 1, 60, 0
3, 506880, Note_on_c, 1, 62, 96
3, 507392, Note_off_c, 1, 62, 0
3, 507392, Note_on_c, 1, 64, 96
3, 507904, Note_off_c, 1, 64, 0
3, 507904, Note_on_c, 1, 65, 96
3, 508928, Note_off_c, 1, 65, 0
3, 508928, Note_on_c, 1, 64, 96
3, 509952, Note_off_c, 1, 64, 0
3, 509952, Note_on_c, 1, 68, 96
3, 510976, Note_off_c, 1, 68, 0
3, 510976, Note_on_c, 1, 69, 96
3, 512512, Note_off_c, 1, 69, 0
3, 512512, Note_on_c, 1, 71, 96
3, 513024, Note_off_c, 1, 71, 0
3, 513024, Note_on_c, 1, 72, 96
3, 513536, Note_off_c, 1, 72, 0
3, 513536, Note_on_c, 1, 69, 96
3, 514048, Note_off_c, 1, 69, 0
3, 514048, Note_on_c, 1, 68, 96
3, 516096, Note_off_c, 1, 68, 0
3, 516096, Note_on_c, 1, 69, 96
3, 516608, Note_off_c, 1, 69, 0
3, 522240, Note_on_c, 1, 62, 96
3, 524288, Note_off_c, 1, 62, 0
3, 524288, Note_on_c, 1, 64, 96
3, 526336, Note_off_c, 1, 64, 0
3, 526336, Note_on_c, 1, 65, 96
3, 528384, Note_off_c, 1, 65, 0
3, 528384, Note_on_c, 1, 64, 96
3, 540672, Note_off_c, 1, 64, 0
3, 540672, Note_on_c, 1, 65, 96
3, 542720, Note_off_c, 1, 65, 0
3, 542720, Note_on_c, 1, 64, 96
3, 544768, Note_off_c, 1, 64, 0
3, 544768, Note_on_c, 1, 62, 96
3, 547328, Note_off_c, 1, 62, 0
3, 547328, Note_on_c, 1, 59, 96
3, 547840, Note_off_c, 1, 59, 0
3, 547840, Note_on_c, 1, 61, 96
3, 548864, Note_off_c, 1, 61, 0
3, 548864, Note_on_c, 1, 62, 96
3, 549888, Note_off_c, 1, 62, 0
3, 550400, Note_on_c, 1, 62, 96
3, 550912, Note_off_c, 1, 62, 0
3, 550912, Note_on_c, 1, 64, 96
3, 552960, Note_off_c, 1, 64, 0
3, 552960, Note_on_c, 1, 66, 96
3, 555008, Note_off_c, 1, 66, 0
3, 557056, Note_on_c, 1, 72, 96
3, 560128, Note_off_c, 1, 72, 0
3, 560128, Note_on_c, 1, 71, 96
3, 561152, Note_off_c, 1, 71, 0
3, 561152, Note_on_c, 1, 72, 96
3, 563200, Note_off_c, 1, 72, 0
3, 563200, Note_on_c, 1, 74, 96
3, 565248, Note_off_c, 1, 74, 0
3, 565248, Note_on_c, 1, 76, 96
3, 567296, Note_off_c, 1, 76, 0
3, 572928, Note_on_c, 1, 66, 96
3, 573440, Note_off_c, 1, 66, 0
3, 573440, Note_on_c, 1, 67, 96
3, 579584, Note_off_c, 1, 67, 0
3, 589824, Note_on_c, 1, 76, 96
3, 590336, Note_off_c, 1, 76, 0
3, 590336, Note_on_c, 1, 74, 96
3, 590848, Note_off_c, 1, 74, 0
3, 590848, Note_on_c, 1, 73, 96
3, 591360, Note_off_c, 1, 73, 0
3, 591360, Note_on_c, 1, 74, 96
3, 591872, Note_off_c, 1, 74, 0
3, 591872, Note_on_c, 1, 73, 96
3, 594939, Note_off_c, 1, 73, 0
3, 594944, Note_on_c, 1, 71, 96
3, 595456, Note_off_c, 1, 71, 0
3, 595456, Note_on_c, 1, 73, 96
3, 595968, Note_off_c, 1, 73, 0
3, 595968, Note_on_c, 1, 71, 96
3, 596480, Note_off_c, 1, 71, 0
3, 596480, Note_on_c, 1, 72, 96
3, 596992, Note_off_c, 1, 72, 0
3, 596992, Note_on_c, 1, 71, 96
3, 597504, Note_off_c, 1, 71, 0
3, 597504, Note_on_c, 1, 69, 96
3, 598016, Note_off_c, 1, 69, 0
3, 598016, Note_on_c, 1, 67, 96
3, 599552, Note_off_c, 1, 67, 0
3, 599552, Note_on_c, 1, 67, 96
3, 600064, Note_off_c, 1, 67, 0
3, 600064, Note_on_c, 1, 66, 96
3, 602112, Note_off_c, 1, 66, 0
3, 602624, Note_on_c, 1, 71, 96
3, 603136, Note_off_c, 1, 71, 0
3, 603136, Note_on_c, 1, 69, 96
3, 603648, Note_off_c, 1, 69, 0
3, 603648, Note_on_c, 1, 67, 96
3, 604160, Note_off_c, 1, 67, 0
3, 604160, Note_on_c, 1, 66, 96
3, 605696, Note_off_c, 1, 66, 0
3, 605696, Note_on_c, 1, 66, 96
3, 606208, Note_off_c, 1, 66, 0
3, 606208, Note_on_c, 1, 68, 96
3, 607744, Note_off_c, 1, 68, 0
3, 607744, Note_on_c, 1, 68, 96
3, 608256, Note_off_c, 1, 68, 0
3, 608256, Note_on_c, 1, 69, 96
3, 609792, Note_off_c, 1, 69, 0
3, 609792, Note_on_c, 1, 67, 96
3, 610304, Note_off_c, 1, 67, 0
3, 610304, Note_on_c, 1, 66, 96
3, 611328, Note_off_c, 1, 66, 0
3, 611328, Note_on_c, 1, 64, 96
3, 612352, Note_off_c, 1, 64, 0
3, 612352, Note_on_c, 1, 63, 96
3, 614400, Note_off_c, 1, 63, 0
3, 614912, Note_on_c, 1, 63, 96
3, 615424, Note_off_c, 1, 63, 0
3, 615424, Note_on_c, 1, 64, 96
3, 615936, Note_off_c, 1, 64, 0
3, 615936, Note_on_c, 1, 59, 96
3, 616448, Note_off_c, 1, 59, 0
3, 616448, Note_on_c, 1, 60, 96
3, 619008, Note_off_c, 1, 60, 0
3, 619008, Note_on_c, 1, 60, 96
3, 619520, Note_off_c, 1, 60, 0
3, 619520, Note_on_c, 1, 59, 96
3, 620032, Note_off_c, 1, 59, 0
3, 620032, Note_on_c, 1, 57, 96
3, 620544, Note_off_c, 1, 57, 0
3, 620544, Note_on_c, 1, 56, 96
3, 622592, Note_off_c, 1, 56, 0
3, 627200, Note_on_c, 1, 57, 96
3, 627712, Note_off_c, 1, 57, 0
3, 627712, Note_on_c, 1, 59, 96
3, 628224, Note_off_c, 1, 59, 0
3, 628224, Note_on_c, 1, 61, 96
3, 628736, Note_off_c, 1, 61, 0
3, 628736, Note_on_c, 1, 62, 96
3, 629248, Note_off_c, 1, 62, 0
3, 629248, Note_on_c, 1, 55, 96
3, 629760, Note_off_c, 1, 55, 0
3, 629760, Note_on_c, 1, 54, 96
3, 630272, Note_off_c, 1, 54, 0
3, 630272, Note_on_c, 1, 55, 96
3, 630784, Note_off_c, 1, 55, 0
3, 630784, Note_on_c, 1, 64, 96
3, 631296, Note_off_c, 1, 64, 0
3, 631296, Note_on_c, 1, 55, 96
3, 631808, Note_off_c, 1, 55, 0
3, 631808, Note_on_c, 1, 57, 96
3, 632320, Note_off_c, 1, 57, 0
3, 632320, Note_on_c, 1, 52, 96
3, 632832, Note_off_c, 1, 52, 0
3, 632832, Note_on_c, 1, 54, 96
3, 633344, Note_off_c, 1, 54, 0
3, 633344, Note_on_c, 1, 62, 96
3, 633856, Note_off_c, 1, 62, 0
3, 633856, Note_on_c, 1, 64, 96
3, 634368, Note_off_c, 1, 64, 0
3, 634368, Note_on_c, 1, 66, 96
3, 634880, Note_off_c, 1, 66, 0
3, 634880, Note_on_c, 1, 67, 96
3, 635392, Note_off_c, 1, 67, 0
3, 635392, Note_on_c, 1, 60, 96
3, 635904, Note_off_c, 1, 60, 0
3, 635904, Note_on_c, 1, 59, 96
3, 636416, Note_off_c, 1, 59, 0
3, 636416, Note_on_c, 1, 60, 96
3, 636928, Note_off_c, 1, 60, 0
3, 636928, Note_on_c, 1, 69, 96
3, 637440, Note_off_c, 1, 69, 0
3, 637440, Note_on_c, 1, 60, 96
3, 637952, Note_off_c, 1, 60, 0
3, 637952, Note_on_c, 1, 62, 96
3, 638464, Note_off_c, 1, 62, 0
3, 638464, Note_on_c, 1, 57, 96
3, 638976, Note_off_c, 1, 57, 0
3, 638976, Note_on_c, 1, 59, 96
3, 640000, Note_off_c, 1, 59, 0
3, 641024, Note_on_c, 1, 59, 96
3, 641024, Note_on_c, 1, 60, 96
3, 642048, Note_off_c, 1, 59, 0
3, 642048, Note_off_c, 1, 60, 0
3, 643072, Note_on_c, 1, 57, 96
3, 643072, Note_on_c, 1, 60, 96
3, 644096, Note_off_c, 1, 57, 0
3, 644096, Note_off_c, 1, 60, 0
3, 645120, Note_on_c, 1, 71, 96
3, 645632, Note_off_c, 1, 71, 0
3, 645632, Note_on_c, 1, 69, 96
3, 646144, Note_off_c, 1, 69, 0
3, 646144, Note_on_c, 1, 71, 96
3, 646656, Note_off_c, 1, 71, 0
3, 646656, Note_on_c, 1, 74, 96
3, 647168, Note_off_c, 1, 74, 0
3, 647168, Note_on_c, 1, 72, 96
3, 647680, Note_off_c, 1, 72, 0
3, 647680, Note_on_c, 1, 71, 96
3, 648192, Note_off_c, 1, 71, 0
3, 648192, Note_on_c, 1, 72, 96
3, 648704, Note_off_c, 1, 72, 0
3, 648704, Note_on_c, 1, 76, 96
3, 649216, Note_off_c, 1, 76, 0
3, 649216, Note_on_c, 1, 74, 96
3, 649728, Note_off_c, 1, 74, 0
3, 649728, Note_on_c, 1, 72, 96
3, 650240, Note_off_c, 1, 72, 0
3, 650240, Note_on_c, 1, 74, 96
3, 651776, Note_off_c, 1, 74, 0
3, 651776, Note_on_c, 1, 71, 96
3, 652288, Note_off_c, 1, 71, 0
3, 652288, Note_on_c, 1, 72, 96
3, 652800, Note_off_c, 1, 72, 0
3, 652800, Note_on_c, 1, 64, 96
3, 653312, Note_off_c, 1, 64, 0
3, 653312, Note_on_c, 1, 66, 96
3, 653824, Note_off_c, 1, 66, 0
3, 653824, Note_on_c, 1, 64, 96
3, 654336, Note_off_c, 1, 64, 0
3, 654336, Note_on_c, 1, 66, 96
3, 654848, Note_off_c, 1, 66, 0
3, 654848, Note_on_c, 1, 69, 96
3, 655360, Note_off_c, 1, 69, 0
3, 655360, Note_on_c, 1, 68, 96
3, 655872, Note_off_c, 1, 68, 0
3, 655872, Note_on_c, 1, 66, 96
3, 656384, Note_off_c, 1, 66, 0
3, 656384, Note_on_c, 1, 68, 96
3, 656896, Note_off_c, 1, 68, 0
3, 656896, Note_on_c, 1, 71, 96
3, 657408, Note_off_c, 1, 71, 0
3, 657408, Note_on_c, 1, 69, 96
3, 662528, Note_off_c, 1, 69, 0
3, 662528, Note_on_c, 1, 67, 96
3, 663552, Note_off_c, 1, 67, 0
3, 663552, Note_on_c, 1, 66, 96
3, 665600, Note_off_c, 1, 66, 0
3, 665600, Note_on_c, 1, 67, 96
3, 667648, Note_off_c, 1, 67, 0
3, 667648, Note_on_c, 1, 72, 96
3, 669696, Note_off_c, 1, 72, 0
3, 669696, Note_on_c, 1, 71, 96
3, 670208, Note_on_c, 1, 59, 96
3, 670720, Note_off_c, 1, 71, 0
3, 670720, Note_on_c, 1, 72, 96
3, 670720, Note_off_c, 1, 59, 0
3, 670720, Note_on_c, 1, 57, 96
3, 671232, Note_off_c, 1, 57, 0
3, 671232, Note_on_c, 1, 60, 96
3, 671744, Note_off_c, 1, 72, 0
3, 671744, Note_on_c, 1, 74, 96
3, 671744, Note_off_c, 1, 60, 0
3, 671744, Note_on_c, 1, 59, 96
3, 672256, Note_off_c, 1, 59, 0
3, 672256, Note_on_c, 1, 57, 96
3, 672768, Note_off_c, 1, 57, 0
3, 672768, Note_on_c, 1, 59, 96
3, 673280, Note_off_c, 1, 59, 0
3, 673280, Note_on_c, 1, 62, 96
3, 673792, Note_off_c, 1, 74, 0
3, 673792, Note_on_c, 1, 67, 96
3, 673792, Note_off_c, 1, 62, 0
3, 673792, Note_on_c, 1, 60, 96
3, 674304, Note_off_c, 1, 60, 0
3, 674304, Note_on_c, 1, 59, 96
3, 674816, Note_off_c, 1, 59, 0
3, 674816, Note_on_c, 1, 60, 96
3, 675328, Note_off_c, 1, 60, 0
3, 675328, Note_on_c, 1, 64, 96
3, 675840, Note_off_c, 1, 67, 0
3, 675840, Note_off_c, 1, 64, 0
3, 675840, Note_on_c, 1, 74, 96
3, 676352, Note_on_c, 1, 60, 96
3, 676864, Note_off_c, 1, 60, 0
3, 676864, Note_on_c, 1, 59, 96
3, 677376, Note_off_c, 1, 59, 0
3, 677376, Note_on_c, 1, 62, 96
3, 677888, Note_off_c, 1, 74, 0
3, 677888, Note_off_c, 1, 62, 0
3, 677888, Note_on_c, 1, 60, 96
3, 678400, Note_off_c, 1, 60, 0
3, 678400, Note_on_c, 1, 59, 96
3, 678912, Note_off_c, 1, 59, 0
3, 678912, Note_on_c, 1, 60, 96
3, 679424, Note_off_c, 1, 60, 0
3, 679424, Note_on_c, 1, 64, 96
3, 679936, Note_off_c, 1, 64, 0
3, 679936, Note_on_c, 1, 62, 96
3, 680448, Note_off_c, 1, 62, 0
3, 680448, Note_on_c, 1, 60, 96
3, 680960, Note_off_c, 1, 60, 0
3, 680960, Note_on_c, 1, 62, 96
3, 681472, Note_off_c, 1, 62, 0
3, 681472, Note_on_c, 1, 65, 96
3, 681984, Note_off_c, 1, 65, 0
3, 681984, Note_on_c, 1, 72, 96
3, 682496, Note_on_c, 1, 62, 96
3, 683008, Note_off_c, 1, 62, 0
3, 683008, Note_on_c, 1, 60, 96
3, 683520, Note_off_c, 1, 60, 0
3, 683520, Note_on_c, 1, 64, 96
3, 684032, Note_off_c, 1, 72, 0
3, 684032, Note_off_c, 1, 64, 0
3, 684032, Note_on_c, 1, 62, 96
3, 684544, Note_off_c, 1, 62, 0
3, 684544, Note_on_c, 1, 60, 96
3, 685056, Note_off_c, 1, 60, 0
3, 685056, Note_on_c, 1, 62, 96
3, 685568, Note_off_c, 1, 62, 0
3, 685568, Note_on_c, 1, 65, 96
3, 686080, Note_off_c, 1, 65, 0
3, 686080, Note_on_c, 1, 64, 96
3, 686592, Note_off_c, 1, 64, 0
3, 686592, Note_on_c, 1, 62, 96
3, 687104, Note_off_c, 1, 62, 0
3, 687104, Note_on_c, 1, 64, 96
3, 687616, Note_off_c, 1, 64, 0
3, 687616, Note_on_c, 1, 67, 96
3, 688128, Note_off_c, 1, 67, 0
3, 688128, Note_on_c, 1, 71, 96
3, 688128, Note_on_c, 1, 65, 96
3, 689408, Note_off_c, 1, 65, 0
3, 689408, Note_on_c, 1, 67, 96
3, 689664, Note_off_c, 1, 67, 0
3, 689664, Note_on_c, 1, 65, 96
3, 689920, Note_off_c, 1, 65, 0
3, 689920, Note_on_c, 1, 64, 96
3, 690176, Note_off_c, 1, 71, 0
3, 690176, Note_off_c, 1, 64, 0
3, 690176, Note_on_c, 1, 62, 96
3, 690688, Note_off_c, 1, 62, 0
3, 690688, Note_on_c, 1, 60, 96
3, 691200, Note_off_c, 1, 60, 0
3, 691200, Note_on_c, 1, 59, 96
3, 691712, Note_off_c, 1, 59, 0
3, 691712, Note_on_c, 1, 57, 96
3, 692224, Note_off_c, 1, 57, 0
3, 692224, Note_on_c, 1, 55, 96
3, 692736, Note_off_c, 1, 55, 0
3, 692736, Note_on_c, 1, 53, 96
3, 693248, Note_off_c, 1, 53, 0
3, 693248, Note_on_c, 1, 52, 96
3, 693760, Note_off_c, 1, 52, 0
3, 693760, Note_on_c, 1, 53, 96
3, 694272, Note_off_c, 1, 53, 0
3, 696832, Note_on_c, 1, 72, 96
3, 697344, Note_off_c, 1, 72, 0
3, 697344, Note_on_c, 1, 71, 96
3, 697856, Note_off_c, 1, 71, 0
3, 697856, Note_on_c, 1, 69, 96
3, 698368, Note_off_c, 1, 69, 0
3, 698368, Note_on_c, 1, 68, 96
3, 698880, Note_off_c, 1, 68, 0
3, 698880, Note_on_c, 1, 69, 96
3, 699392, Note_off_c, 1, 69, 0
3, 699392, Note_on_c, 1, 71, 96
3, 699904, Note_off_c, 1, 71, 0
3, 699904, Note_on_c, 1, 68, 96
3, 700416, Note_off_c, 1, 68, 0
3, 700416, Note_on_c, 1, 64, 96
3, 701440, Note_off_c, 1, 64, 0
3, 708608, Note_on_c, 1, 71, 96
3, 709883, Note_off_c, 1, 71, 0
3, 709888, Note_on_c, 1, 69, 96
3, 710139, Note_off_c, 1, 69, 0
3, 710144, Note_on_c, 1, 67, 96
3, 710395, Note_off_c, 1, 67, 0
3, 710400, Note_on_c, 1, 69, 96
3, 710651, Note_off_c, 1, 69, 0
3, 710656, Note_on_c, 1, 69, 96
3, 712699, Note_off_c, 1, 69, 0
3, 712704, Note_on_c, 1, 67, 96
3, 719872, Note_off_c, 1, 67, 0
3, 719872, Note_on_c, 1, 69, 96
3, 720896, Note_off_c, 1, 69, 0
3, 720896, Note_on_c, 1, 71, 96
3, 722944, Note_off_c, 1, 71, 0
3, 722944, Note_on_c, 1, 72, 96
3, 724992, Note_off_c, 1, 72, 0
3, 725504, Note_on_c, 1, 76, 96
3, 726016, Note_off_c, 1, 76, 0
3, 726016, Note_on_c, 1, 74, 96
3, 726528, Note_off_c, 1, 74, 0
3, 726528, Note_on_c, 1, 72, 96
3, 727040, Note_off_c, 1, 72, 0
3, 727040, Note_on_c, 1, 71, 96
3, 729088, Note_off_c, 1, 71, 0
3, 729600, Note_on_c, 1, 69, 96
3, 730112, Note_off_c, 1, 69, 0
3, 730112, Note_on_c, 1, 67, 96
3, 730624, Note_off_c, 1, 67, 0
3, 730624, Note_on_c, 1, 65, 96
3, 731136, Note_off_c, 1, 65, 0
3, 731136, Note_on_c, 1, 67, 96
3, 733184, Note_off_c, 1, 67, 0
3, 733696, Note_on_c, 1, 65, 96
3, 734208, Note_off_c, 1, 65, 0
3, 734208, Note_on_c, 1, 64, 96
3, 734720, Note_off_c, 1, 64, 0
3, 734720, Note_on_c, 1, 62, 96
3, 735232, Note_off_c, 1, 62, 0
3, 735232, Note_on_c, 1, 64, 96
3, 736768, Note_off_c, 1, 64, 0
3, 736768, Note_on_c, 1, 64, 96
3, 737280, Note_off_c, 1, 64, 0
3, 737280, Note_on_c, 1, 62, 96
3, 741888, Note_off_c, 1, 62, 0
3, 741888, Note_on_c, 1, 62, 96
3, 742400, Note_off_c, 1, 62, 0
3, 742400, Note_on_c, 1, 60, 96
3, 742912, Note_off_c, 1, 60, 0
3, 742912, Note_on_c, 1, 59, 96
3, 743424, Note_off_c, 1, 59, 0
3, 743424, Note_on_c, 1, 60, 96
3, 743936, Note_off_c, 1, 60, 0
3, 743936, Note_on_c, 1, 55, 96
3, 744448, Note_off_c, 1, 55, 0
3, 744448, Note_on_c, 1, 57, 96
3, 744960, Note_off_c, 1, 57, 0
3, 744960, Note_on_c, 1, 59, 96
3, 745472, Note_off_c, 1, 59, 0
3, 745472, Note_on_c, 1, 60, 96
3, 747008, Note_off_c, 1, 60, 0
3, 747008, Note_on_c, 1, 59, 96
3, 747520, Note_off_c, 1, 59, 0
3, 747520, Note_on_c, 1, 60, 96
3, 748032, Note_on_c, 1, 55, 96
3, 748544, Note_off_c, 1, 55, 0
3, 748544, Note_on_c, 1, 57, 96
3, 749056, Note_off_c, 1, 57, 0
3, 749056, Note_on_c, 1, 54, 96
3, 749568, Note_off_c, 1, 60, 0
3, 749568, Note_off_c, 1, 54, 0
3, 749568, Note_on_c, 1, 55, 96
3, 750080, Note_on_c, 1, 60, 96
3, 750592, Note_off_c, 1, 60, 0
3, 750592, Note_on_c, 1, 59, 96
3, 751104, Note_off_c, 1, 59, 0
3, 751104, Note_on_c, 1, 60, 96
3, 751104, Note_off_c, 1, 55, 0
3, 751616, Note_off_c, 1, 60, 0
3, 751616, Note_on_c, 1, 55, 96
3, 752128, Note_on_c, 1, 60, 96
3, 752640, Note_off_c, 1, 60, 0
3, 752640, Note_on_c, 1, 59, 96
3, 753152, Note_off_c, 1, 59, 0
3, 753152, Note_on_c, 1, 60, 96
3, 753664, Note_off_c, 1, 60, 0
3, 753664, Note_off_c, 1, 55, 0
3, 753664, Note_on_c, 1, 57, 96
3, 754176, Note_on_c, 1, 60, 96
3, 754688, Note_off_c, 1, 60, 0
3, 754688, Note_on_c, 1, 59, 96
3, 755200, Note_off_c, 1, 59, 0
3, 755200, Note_on_c, 1, 60, 96
3, 755712, Note_off_c, 1, 60, 0
3, 755712, Note_off_c, 1, 57, 0
3, 755712, Note_on_c, 1, 59, 96
3, 756224, Note_on_c, 1, 62, 96
3, 756736, Note_off_c, 1, 62, 0
3, 756736, Note_on_c, 1, 60, 96
3, 757248, Note_off_c, 1, 60, 0
3, 757248, Note_on_c, 1, 62, 96
3, 757760, Note_off_c, 1, 62, 0
3, 757760, Note_off_c, 1, 59, 0
3, 757760, Note_on_c, 1, 60, 96
3, 758272, Note_on_c, 1, 64, 96
3, 758784, Note_off_c, 1, 64, 0
3, 758784, Note_on_c, 1, 62, 96
3, 759296, Note_off_c, 1, 62, 0
3, 759296, Note_on_c, 1, 64, 96
3, 759808, Note_off_c, 1, 64, 0
3, 759808, Note_off_c, 1, 60, 0
3, 759808, Note_on_c, 1, 62, 96
3, 760320, Note_on_c, 1, 65, 96
3, 760832, Note_off_c, 1, 65, 0
3, 760832, Note_on_c, 1, 64, 96
3, 761344, Note_off_c, 1, 64, 0
3, 761344, Note_on_c, 1, 65, 96
3, 761856, Note_off_c, 1, 65, 0
3, 761856, Note_off_c, 1, 62, 0
3, 761856, Note_on_c, 1, 64, 96
3, 762368, Note_on_c, 1, 67, 96
3, 762880, Note_off_c, 1, 67, 0
3, 762880, Note_on_c, 1, 66, 96
3, 763392, Note_off_c, 1, 66, 0
3, 763392, Note_on_c, 1, 67, 96
3, 763904, Note_off_c, 1, 67, 0
3, 763904, Note_off_c, 1, 64, 0
3, 763904, Note_on_c, 1, 63, 96
3, 764416, Note_on_c, 1, 69, 96
3, 764928, Note_off_c, 1, 69, 0
3, 764928, Note_on_c, 1, 67, 96
3, 765440, Note_off_c, 1, 67, 0
3, 765440, Note_on_c, 1, 69, 96
3, 765952, Note_off_c, 1, 69, 0
3, 765952, Note_on_c, 1, 66, 96
3, 766464, Note_off_c, 1, 66, 0
3, 766464, Note_on_c, 1, 69, 96
3, 766976, Note_off_c, 1, 69, 0
3, 766976, Note_on_c, 1, 67, 96
3, 767488, Note_off_c, 1, 67, 0
3, 767488, Note_on_c, 1, 66, 96
3, 768000, Note_off_c, 1, 66, 0
3, 768000, Note_off_c, 1, 63, 0
3, 768000, Note_on_c, 1, 67, 96
3, 768000, Note_on_c, 1, 62, 96
3, 769024, Note_off_c, 1, 67, 0
3, 769024, Note_off_c, 1, 62, 0
3, 770048, Note_on_c, 1, 71, 96
3, 770560, Note_off_c, 1, 71, 0
3, 770560, Note_on_c, 1, 74, 96
3, 771072, Note_off_c, 1, 74, 0
3, 771072, Note_on_c, 1, 71, 96
3, 771584, Note_off_c, 1, 71, 0
3, 771584, Note_on_c, 1, 67, 96
3, 772096, Note_on_c, 1, 76, 96
3, 773120, Note_off_c, 1, 67, 0
3, 773120, Note_on_c, 1, 69, 96
3, 773632, Note_off_c, 1, 76, 0
3, 773632, Note_on_c, 1, 78, 96
3, 774144, Note_off_c, 1, 69, 0
3, 774144, Note_off_c, 1, 78, 0
3, 774144, Note_on_c, 1, 71, 96
3, 774144, Note_on_c, 1, 79, 96
3, 778240, Note_off_c, 1, 71, 0
3, 778240, Note_off_c, 1, 79, 0
3, 778241, End_track
4, 0, Start_track
4, 0, Title_t, "Instrument 3"
4, 0, Program_c, 2, 0
4, 0, Control_c, 2, 7, 127
4, 92160, Note_on_c, 2, 55, 96
4, 94720, Note_off_c, 2, 55, 0
4, 94720, Note_on_c, 2, 57, 96
4, 95232, Note_off_c, 2, 57, 0
4, 95232, Note_on_c, 2, 55, 96
4, 95744, Note_off_c, 2, 55, 0
4, 95744, Note_on_c, 2, 57, 96
4, 96256, Note_off_c, 2, 57, 0
4, 96256, Note_on_c, 2, 59, 96
4, 96768, Note_off_c, 2, 59, 0
4, 96768, Note_on_c, 2, 57, 96
4, 97280, Note_off_c, 2, 57, 0
4, 97280, Note_on_c, 2, 55, 96
4, 97792, Note_off_c, 2, 55, 0
4, 97792, Note_on_c, 2, 57, 96
4, 98304, Note_off_c, 2, 57, 0
4, 98304, Note_on_c, 2, 59, 96
4, 98816, Note_off_c, 2, 59, 0
4, 98816, Note_on_c, 2, 50, 96
4, 99328, Note_off_c, 2, 50, 0
4, 99328, Note_on_c, 2, 52, 96
4, 99840, Note_off_c, 2, 52, 0
4, 99840, Note_on_c, 2, 54, 96
4, 100352, Note_off_c, 2, 54, 0
4, 100352, Note_on_c, 2, 55, 96
4, 100864, Note_off_c, 2, 55, 0
4, 100864, Note_on_c, 2, 57, 96
4, 101376, Note_off_c, 2, 57, 0
4, 101376, Note_on_c, 2, 59, 96
4, 101888, Note_off_c, 2, 59, 0
4, 101888, Note_on_c, 2, 60, 96
4, 102400, Note_off_c, 2, 60, 0
4, 102400, Note_on_c, 2, 59, 96
4, 102528, Note_off_c, 2, 59, 0
4, 102528, Note_on_c, 2, 60, 96
4, 102656, Note_off_c, 2, 60, 0
4, 102656, Note_on_c, 2, 62, 96
4, 102784, Note_off_c, 2, 62, 0
4, 102784, Note_on_c, 2, 60, 96
4, 102912, Note_off_c, 2, 60, 0
4, 102912, Note_on_c, 2, 62, 96
4, 103040, Note_off_c, 2, 62, 0
4, 103040, Note_on_c, 2, 60, 96
4, 103936, Note_off_c, 2, 60, 0
4, 103936, Note_on_c, 2, 59, 96
4, 104192, Note_off_c, 2, 59, 0
4, 104192, Note_on_c, 2, 60, 96
4, 104448, Note_off_c, 2, 60, 0
4, 104448, Note_on_c, 2, 62, 96
4, 110592, Note_off_c, 2, 62, 0
4, 111104, Note_on_c, 2, 65, 96
4, 111616, Note_off_c, 2, 65, 0
4, 111616, Note_on_c, 2, 64, 96
4, 112128, Note_off_c, 2, 64, 0
4, 112128, Note_on_c, 2, 62, 96
4, 112640, Note_off_c, 2, 62, 0
4, 112640, Note_on_c, 2, 60, 96
4, 113152, Note_off_c, 2, 60, 0
4, 113152, Note_on_c, 2, 59, 96
4, 113664, Note_off_c, 2, 59, 0
4, 113664, Note_on_c, 2, 57, 96
4, 114176, Note_off_c, 2, 57, 0
4, 114176, Note_on_c, 2, 55, 96
4, 114688, Note_off_c, 2, 55, 0
4, 114688, Note_on_c, 2, 57, 96
4, 115200, Note_off_c, 2, 57, 0
4, 115200, Note_on_c, 2, 60, 96
4, 115712, Note_off_c, 2, 60, 0
4, 115712, Note_on_c, 2, 59, 96
4, 116224, Note_off_c, 2, 59, 0
4, 116224, Note_on_c, 2, 62, 96
4, 116731, Note_off_c, 2, 62, 0
4, 116736, Note_on_c, 2, 60, 96
4, 123392, Note_off_c, 2, 60, 0
4, 123392, Note_on_c, 2, 59, 96
4, 123904, Note_off_c, 2, 59, 0
4, 123904, Note_on_c, 2, 57, 96
4, 124416, Note_off_c, 2, 57, 0
4, 124416, Note_on_c, 2, 55, 96
4, 124928, Note_off_c, 2, 55, 0
4, 124928, Note_on_c, 2, 54, 96
4, 125440, Note_off_c, 2, 54, 0
4, 125440, Note_on_c, 2, 52, 96
4, 125952, Note_off_c, 2, 52, 0
4, 125952, Note_on_c, 2, 50, 96
4, 126464, Note_off_c, 2, 50, 0
4, 126464, Note_on_c, 2, 60, 96
4, 126971, Note_off_c, 2, 60, 0
4, 126976, Note_on_c, 2, 59, 96
4, 129536, Note_off_c, 2, 59, 0
4, 129536, Note_on_c, 2, 66, 96
4, 130048, Note_off_c, 2, 66, 0
4, 130048, Note_on_c, 2, 67, 96
4, 130560, Note_off_c, 2, 67, 0
4, 130560, Note_on_c, 2, 64, 96
4, 131072, Note_off_c, 2, 64, 0
4, 131072, Note_on_c, 2, 65, 96
4, 131584, Note_off_c, 2, 65, 0
4, 131584, Note_on_c, 2, 63, 96
4, 132096, Note_off_c, 2, 63, 0
4, 132096, Note_on_c, 2, 64, 96
4, 132608, Note_off_c, 2, 64, 0
4, 132608, Note_on_c, 2, 60, 96
4, 133120, Note_off_c, 2, 60, 0
4, 133120, Note_on_c, 2, 59, 96
4, 133248, Note_off_c, 2, 59, 0
4, 133248, Note_on_c, 2, 58, 96
4, 133376, Note_off_c, 2, 58, 0
4, 133376, Note_on_c, 2, 59, 96
4, 133504, Note_off_c, 2, 59, 0
4, 133504, Note_on_c, 2, 58, 96
4, 133632, Note_off_c, 2, 58, 0
4, 133632, Note_on_c, 2, 59, 96
4, 133760, Note_off_c, 2, 59, 0
4, 133760, Note_on_c, 2, 58, 96
4, 134651, Note_off_c, 2, 58, 0
4, 134656, Note_on_c, 2, 59, 96
4, 135163, Note_off_c, 2, 59, 0
4, 135168, Note_on_c, 2, 59, 96
4, 147456, Note_off_c, 2, 59, 0
4, 159744, Note_on_c, 2, 59, 96
4, 164864, Note_off_c, 2, 59, 0
4, 164864, Note_on_c, 2, 60, 96
4, 165376, Note_off_c, 2, 60, 0
4, 165376, Note_on_c, 2, 59, 96
4, 165888, Note_off_c, 2, 59, 0
4, 165888, Note_on_c, 2, 59, 96
4, 168448, Note_off_c, 2, 59, 0
4, 168448, Note_on_c, 2, 62, 96
4, 168960, Note_off_c, 2, 62, 0
4, 168960, Note_on_c, 2, 60, 96
4, 169472, Note_off_c, 2, 60, 0
4, 169472, Note_on_c, 2, 59, 96
4, 169984, Note_off_c, 2, 59, 0
4, 169984, Note_on_c, 2, 57, 96
4, 170496, Note_off_c, 2, 57, 0
4, 170496, Note_on_c, 2, 60, 96
4, 171008, Note_off_c, 2, 60, 0
4, 171008, Note_on_c, 2, 59, 96
4, 171520, Note_off_c, 2, 59, 0
4, 171520, Note_on_c, 2, 62, 96
4, 172027, Note_off_c, 2, 62, 0
4, 172032, Note_on_c, 2, 60, 96
4, 178688, Note_off_c, 2, 60, 0
4, 178688, Note_on_c, 2, 66, 96
4, 179200, Note_off_c, 2, 66, 0
4, 179200, Note_on_c, 2, 67, 96
4, 179712, Note_off_c, 2, 67, 0
4, 179712, Note_on_c, 2, 69, 96
4, 180224, Note_off_c, 2, 69, 0
4, 180224, Note_on_c, 2, 59, 96
4, 184832, Note_off_c, 2, 59, 0
4, 184832, Note_on_c, 2, 52, 96
4, 185344, Note_off_c, 2, 52, 0
4, 185344, Note_on_c, 2, 54, 96
4, 185856, Note_off_c, 2, 54, 0
4, 185856, Note_on_c, 2, 55, 96
4, 186368, Note_off_c, 2, 55, 0
4, 186368, Note_on_c, 2, 57, 96
4, 186880, Note_off_c, 2, 57, 0
4, 186880, Note_on_c, 2, 60, 96
4, 187392, Note_off_c, 2, 60, 0
4, 187392, Note_on_c, 2, 59, 96
4, 187904, Note_off_c, 2, 59, 0
4, 187904, Note_on_c, 2, 57, 96
4, 188416, Note_off_c, 2, 57, 0
4, 188416, Note_on_c, 2, 66, 96
4, 188928, Note_off_c, 2, 66, 0
4, 188928, Note_on_c, 2, 62, 96
4, 189440, Note_off_c, 2, 62, 0
4, 189440, Note_on_c, 2, 64, 96
4, 189952, Note_off_c, 2, 64, 0
4, 189952, Note_on_c, 2, 66, 96
4, 190464, Note_off_c, 2, 66, 0
4, 190464, Note_on_c, 2, 67, 96
4, 190976, Note_off_c, 2, 67, 0
4, 190976, Note_on_c, 2, 66, 96
4, 191488, Note_off_c, 2, 66, 0
4, 191488, Note_on_c, 2, 64, 96
4, 192000, Note_off_c, 2, 64, 0
4, 192000, Note_on_c, 2, 62, 96
4, 192512, Note_off_c, 2, 62, 0
4, 192512, Note_on_c, 2, 60, 96
4, 193024, Note_off_c, 2, 60, 0
4, 193024, Note_on_c, 2, 59, 96
4, 193536, Note_off_c, 2, 59, 0
4, 193536, Note_on_c, 2, 57, 96
4, 194048, Note_off_c, 2, 57, 0
4, 194048, Note_on_c, 2, 55, 96
4, 194560, Note_off_c, 2, 55, 0
4, 194560, Note_on_c, 2, 54, 96
4, 195072, Note_off_c, 2, 54, 0
4, 195072, Note_on_c, 2, 52, 96
4, 195584, Note_off_c, 2, 52, 0
4, 195584, Note_on_c, 2, 50, 96
4, 196096, Note_off_c, 2, 50, 0
4, 196096, Note_on_c, 2, 60, 96
4, 196608, Note_off_c, 2, 60, 0
4, 196608, Note_on_c, 2, 59, 96
4, 197120, Note_off_c, 2, 59, 0
4, 197120, Note_on_c, 2, 64, 96
4, 197632, Note_off_c, 2, 64, 0
4, 197632, Note_on_c, 2, 62, 96
4, 198144, Note_off_c, 2, 62, 0
4, 198144, Note_on_c, 2, 60, 96
4, 198656, Note_off_c, 2, 60, 0
4, 198656, Note_on_c, 2, 59, 96
4, 199168, Note_off_c, 2, 59, 0
4, 199168, Note_on_c, 2, 57, 96
4, 199680, Note_off_c, 2, 57, 0
4, 199680, Note_on_c, 2, 55, 96
4, 200192, Note_off_c, 2, 55, 0
4, 200192, Note_on_c, 2, 57, 96
4, 200704, Note_off_c, 2, 57, 0
4, 200704, Note_on_c, 2, 57, 96
4, 202235, Note_off_c, 2, 57, 0
4, 202240, Note_on_c, 2, 55, 96
4, 202747, Note_off_c, 2, 55, 0
4, 202752, Note_on_c, 2, 55, 96
4, 208896, Note_off_c, 2, 55, 0
4, 294912, Note_on_c, 2, 55, 96
4, 297472, Note_off_c, 2, 55, 0
4, 297472, Note_on_c, 2, 57, 96
4, 297984, Note_off_c, 2, 57, 0
4, 297984, Note_on_c, 2, 55, 96
4, 298496, Note_off_c, 2, 55, 0
4, 298496, Note_on_c, 2, 57, 96
4, 299008, Note_off_c, 2, 57, 0
4, 299008, Note_on_c, 2, 59, 96
4, 299520, Note_off_c, 2, 59, 0
4, 299520, Note_on_c, 2, 57, 96
4, 300032, Note_off_c, 2, 57, 0
4, 300032, Note_on_c, 2, 55, 96
4, 300544, Note_off_c, 2, 55, 0
4, 300544, Note_on_c, 2, 57, 96
4, 301056, Note_off_c, 2, 57, 0
4, 301056, Note_on_c, 2, 59, 96
4, 301568, Note_off_c, 2, 59, 0
4, 301568, Note_on_c, 2, 50, 96
4, 302080, Note_off_c, 2, 50, 0
4, 302080, Note_on_c, 2, 52, 96
4, 302592, Note_off_c, 2, 52, 0
4, 302592, Note_on_c, 2, 54, 96
4, 303104, Note_off_c, 2, 54, 0
4, 303104, Note_on_c, 2, 55, 96
4, 303616, Note_off_c, 2, 55, 0
4, 303616, Note_on_c, 2, 57, 96
4, 304128, Note_off_c, 2, 57, 0
4, 304128, Note_on_c, 2, 59, 96
4, 304640, Note_off_c, 2, 59, 0
4, 304640, Note_on_c, 2, 60, 96
4, 305152, Note_off_c, 2, 60, 0
4, 305152, Note_on_c, 2, 59, 96
4, 305280, Note_off_c, 2, 59, 0
4, 305280, Note_on_c, 2, 60, 96
4, 305408, Note_off_c, 2, 60, 0
4, 305408, Note_on_c, 2, 62, 96
4, 305536, Note_off_c, 2, 62, 0
4, 305536, Note_on_c, 2, 60, 96
4, 305664, Note_off_c, 2, 60, 0
4, 305664, Note_on_c, 2, 62, 96
4, 305792, Note_off_c, 2, 62, 0
4, 305792, Note_on_c, 2, 60, 96
4, 306688, Note_off_c, 2, 60, 0
4, 306688, Note_on_c, 2, 59, 96
4, 306944, Note_off_c, 2, 59, 0
4, 306944, Note_on_c, 2, 60, 96
4, 307200, Note_off_c, 2, 60, 0
4, 307200, Note_on_c, 2, 62, 96
4, 313344, Note_off_c, 2, 62, 0
4, 313856, Note_on_c, 2, 65, 96
4, 314368, Note_off_c, 2, 65, 0
4, 314368, Note_on_c, 2, 64, 96
4, 314880, Note_off_c, 2, 64, 0
4, 314880, Note_on_c, 2, 62, 96
4, 315392, Note_off_c, 2, 62, 0
4, 315392, Note_on_c, 2, 60, 96
4, 315904, Note_off_c, 2, 60, 0
4, 315904, Note_on_c, 2, 59, 96
4, 316416, Note_off_c, 2, 59, 0
4, 316416, Note_on_c, 2, 57, 96
4, 316928, Note_off_c, 2, 57, 0
4, 316928, Note_on_c, 2, 55, 96
4, 317440, Note_off_c, 2, 55, 0
4, 317440, Note_on_c, 2, 57, 96
4, 317952, Note_off_c, 2, 57, 0
4, 317952, Note_on_c, 2, 60, 96
4, 318464, Note_off_c, 2, 60, 0
4, 318464, Note_on_c, 2, 59, 96
4, 318976, Note_off_c, 2, 59, 0
4, 318976, Note_on_c, 2, 62, 96
4, 319483, Note_off_c, 2, 62, 0
4, 319488, Note_on_c, 2, 60, 96
4, 326144, Note_off_c, 2, 60, 0
4, 326144, Note_on_c, 2, 59, 96
4, 326656, Note_off_c, 2, 59, 0
4, 326656, Note_on_c, 2, 57, 96
4, 327168, Note_off_c, 2, 57, 0
4, 327168, Note_on_c, 2, 55, 96
4, 327680, Note_off_c, 2, 55, 0
4, 327680, Note_on_c, 2, 54, 96
4, 328192, Note_off_c, 2, 54, 0
4, 328192, Note_on_c, 2, 52, 96
4, 328704, Note_off_c, 2, 52, 0
4, 328704, Note_on_c, 2, 50, 96
4, 329216, Note_off_c, 2, 50, 0
4, 329216, Note_on_c, 2, 60, 96
4, 329723, Note_off_c, 2, 60, 0
4, 329728, Note_on_c, 2, 59, 96
4, 332288, Note_off_c, 2, 59, 0
4, 332288, Note_on_c, 2, 66, 96
4, 332800, Note_off_c, 2, 66, 0
4, 332800, Note_on_c, 2, 67, 96
4, 333312, Note_off_c, 2, 67, 0
4, 333312, Note_on_c, 2, 64, 96
4, 333824, Note_off_c, 2, 64, 0
4, 333824, Note_on_c, 2, 65, 96
4, 334336, Note_off_c, 2, 65, 0
4, 334336, Note_on_c, 2, 63, 96
4, 334848, Note_off_c, 2, 63, 0
4, 334848, Note_on_c, 2, 64, 96
4, 335360, Note_off_c, 2, 64, 0
4, 335360, Note_on_c, 2, 60, 96
4, 335872, Note_off_c, 2, 60, 0
4, 335872, Note_on_c, 2, 59, 96
4, 336000, Note_off_c, 2, 59, 0
4, 336000, Note_on_c, 2, 58, 96
4, 336128, Note_off_c, 2, 58, 0
4, 336128, Note_on_c, 2, 59, 96
4, 336256, Note_off_c, 2, 59, 0
4, 336256, Note_on_c, 2, 58, 96
4, 336384, Note_off_c, 2, 58, 0
4, 336384, Note_on_c, 2, 59, 96
4, 336512, Note_off_c, 2, 59, 0
4, 336512, Note_on_c, 2, 58, 96
4, 337403, Note_off_c, 2, 58, 0
4, 337408, Note_on_c, 2, 59, 96
4, 337915, Note_off_c, 2, 59, 0
4, 337920, Note_on_c, 2, 59, 96
4, 350208, Note_off_c, 2, 59, 0
4, 362496, Note_on_c, 2, 59, 96
4, 367616, Note_off_c, 2, 59, 0
4, 367616, Note_on_c, 2, 60, 96
4, 368128, Note_off_c, 2, 60, 0
4, 368128, Note_on_c, 2, 59, 96
4, 368640, Note_off_c, 2, 59, 0
4, 368640, Note_on_c, 2, 59, 96
4, 371200, Note_off_c, 2, 59, 0
4, 371200, Note_on_c, 2, 62, 96
4, 371712, Note_off_c, 2, 62, 0
4, 371712, Note_on_c, 2, 60, 96
4, 372224, Note_off_c, 2, 60, 0
4, 372224, Note_on_c, 2, 59, 96
4, 372736, Note_off_c, 2, 59, 0
4, 372736, Note_on_c, 2, 57, 96
4, 373248, Note_off_c, 2, 57, 0
4, 373248, Note_on_c, 2, 60, 96
4, 373760, Note_off_c, 2, 60, 0
4, 373760, Note_on_c, 2, 59, 96
4, 374272, Note_off_c, 2, 59, 0
4, 374272, Note_on_c, 2, 62, 96
4, 374779, Note_off_c, 2, 62, 0
4, 374784, Note_on_c, 2, 60, 96
4, 381440, Note_off_c, 2, 60, 0
4, 381440, Note_on_c, 2, 66, 96
4, 381952, Note_off_c, 2, 66, 0
4, 381952, Note_on_c, 2, 67, 96
4, 382464, Note_off_c, 2, 67, 0
4, 382464, Note_on_c, 2, 69, 96
4, 382976, Note_off_c, 2, 69, 0
4, 382976, Note_on_c, 2, 59, 96
4, 387584, Note_off_c, 2, 59, 0
4, 387584, Note_on_c, 2, 52, 96
4, 388096, Note_off_c, 2, 52, 0
4, 388096, Note_on_c, 2, 54, 96
4, 388608, Note_off_c, 2, 54, 0
4, 388608, Note_on_c, 2, 55, 96
4, 389120, Note_off_c, 2, 55, 0
4, 389120, Note_on_c, 2, 57, 96
4, 389632, Note_off_c, 2, 57, 0
4, 389632, Note_on_c, 2, 60, 96
4, 390144, Note_off_c, 2, 60, 0
4, 390144, Note_on_c, 2, 59, 96
4, 390656, Note_off_c, 2, 59, 0
4, 390656, Note_on_c, 2, 57, 96
4, 391168, Note_off_c, 2, 57, 0
4, 391168, Note_on_c, 2, 66, 96
4, 391680, Note_off_c, 2, 66, 0
4, 391680, Note_on_c, 2, 62, 96
4, 392192, Note_off_c, 2, 62, 0
4, 392192, Note_on_c, 2, 64, 96
4, 392704, Note_off_c, 2, 64, 0
4, 392704, Note_on_c, 2, 66, 96
4, 393216, Note_off_c, 2, 66, 0
4, 393216, Note_on_c, 2, 67, 96
4, 393728, Note_off_c, 2, 67, 0
4, 393728, Note_on_c, 2, 66, 96
4, 394240, Note_off_c, 2, 66, 0
4, 394240, Note_on_c, 2, 64, 96
4, 394752, Note_off_c, 2, 64, 0
4, 394752, Note_on_c, 2, 62, 96
4, 395264, Note_off_c, 2, 62, 0
4, 395264, Note_on_c, 2, 60, 96
4, 395776, Note_off_c, 2, 60, 0
4, 395776, Note_on_c, 2, 59, 96
4, 396288, Note_off_c, 2, 59, 0
4, 396288, Note_on_c, 2, 57, 96
4, 396800, Note_off_c, 2, 57, 0
4, 396800, Note_on_c, 2, 55, 96
4, 397312, Note_off_c, 2, 55, 0
4, 397312, Note_on_c, 2, 54, 96
4, 397824, Note_off_c, 2, 54, 0
4, 397824, Note_on_c, 2, 52, 96
4, 398336, Note_off_c, 2, 52, 0
4, 398336, Note_on_c, 2, 50, 96
4, 398848, Note_off_c, 2, 50, 0
4, 398848, Note_on_c, 2, 60, 96
4, 399360, Note_off_c, 2, 60, 0
4, 399360, Note_on_c, 2, 59, 96
4, 399872, Note_off_c, 2, 59, 0
4, 399872, Note_on_c, 2, 64, 96
4, 400384, Note_on_c, 2, 62, 96
4, 400640, Note_off_c, 2, 64, 0
4, 400896, Note_off_c, 2, 62, 0
4, 400896, Note_on_c, 2, 60, 96
4, 401408, Note_off_c, 2, 60, 0
4, 401408, Note_on_c, 2, 59, 96
4, 401920, Note_off_c, 2, 59, 0
4, 401920, Note_on_c, 2, 57, 96
4, 402432, Note_off_c, 2, 57, 0
4, 402432, Note_on_c, 2, 55, 96
4, 402944, Note_off_c, 2, 55, 0
4, 402944, Note_on_c, 2, 57, 96
4, 403456, Note_off_c, 2, 57, 0
4, 403456, Note_on_c, 2, 57, 96
4, 404987, Note_off_c, 2, 57, 0
4, 404992, Note_on_c, 2, 55, 96
4, 405499, Note_off_c, 2, 55, 0
4, 405504, Note_on_c, 2, 55, 96
4, 417792, Note_off_c, 2, 55, 0
4, 473088, Note_on_c, 2, 55, 96
4, 479744, Note_off_c, 2, 55, 0
4, 479744, Note_on_c, 2, 52, 96
4, 480256, Note_off_c, 2, 52, 0
4, 480256, Note_on_c, 2, 54, 96
4, 480768, Note_off_c, 2, 54, 0
4, 480768, Note_on_c, 2, 55, 96
4, 481280, Note_off_c, 2, 55, 0
4, 481280, Note_on_c, 2, 57, 96
4, 481792, Note_off_c, 2, 57, 0
4, 481792, Note_on_c, 2, 59, 96
4, 482304, Note_off_c, 2, 59, 0
4, 482304, Note_on_c, 2, 57, 96
4, 482816, Note_off_c, 2, 57, 0
4, 482816, Note_on_c, 2, 59, 96
4, 483328, Note_off_c, 2, 59, 0
4, 483328, Note_on_c, 2, 59, 96
4, 485371, Note_off_c, 2, 59, 0
4, 485376, Note_on_c, 2, 60, 96
4, 492032, Note_off_c, 2, 60, 0
4, 492032, Note_on_c, 2, 64, 96
4, 492544, Note_off_c, 2, 64, 0
4, 492544, Note_on_c, 2, 62, 96
4, 493056, Note_off_c, 2, 62, 0
4, 493056, Note_on_c, 2, 60, 96
4, 493568, Note_off_c, 2, 60, 0
4, 493568, Note_on_c, 2, 59, 96
4, 498176, Note_off_c, 2, 59, 0
4, 498176, Note_on_c, 2, 57, 96
4, 498688, Note_off_c, 2, 57, 0
4, 498688, Note_on_c, 2, 56, 96
4, 499200, Note_off_c, 2, 56, 0
4, 499200, Note_on_c, 2, 59, 96
4, 499707, Note_off_c, 2, 59, 0
4, 499712, Note_on_c, 2, 57, 96
4, 504315, Note_off_c, 2, 57, 0
4, 504320, Note_on_c, 2, 58, 96
4, 504832, Note_off_c, 2, 58, 0
4, 504832, Note_on_c, 2, 57, 96
4, 505344, Note_off_c, 2, 57, 0
4, 505344, Note_on_c, 2, 55, 96
4, 505856, Note_off_c, 2, 55, 0
4, 505856, Note_on_c, 2, 53, 96
4, 506368, Note_off_c, 2, 53, 0
4, 506368, Note_on_c, 2, 52, 96
4, 506880, Note_off_c, 2, 52, 0
4, 506880, Note_on_c, 2, 50, 96
4, 507392, Note_off_c, 2, 50, 0
4, 507392, Note_on_c, 2, 60, 96
4, 507904, Note_off_c, 2, 60, 0
4, 507904, Note_on_c, 2, 59, 96
4, 508416, Note_off_c, 2, 59, 0
4, 508416, Note_on_c, 2, 57, 96
4, 508928, Note_off_c, 2, 57, 0
4, 508928, Note_on_c, 2, 56, 96
4, 509440, Note_off_c, 2, 56, 0
4, 509440, Note_on_c, 2, 54, 96
4, 509952, Note_off_c, 2, 54, 0
4, 509952, Note_on_c, 2, 52, 96
4, 510464, Note_off_c, 2, 52, 0
4, 510464, Note_on_c, 2, 65, 96
4, 510976, Note_off_c, 2, 65, 0
4, 510976, Note_on_c, 2, 64, 96
4, 511488, Note_off_c, 2, 64, 0
4, 511488, Note_on_c, 2, 62, 96
4, 512000, Note_off_c, 2, 62, 0
4, 512000, Note_on_c, 2, 60, 96
4, 512512, Note_off_c, 2, 60, 0
4, 512512, Note_on_c, 2, 62, 96
4, 513024, Note_off_c, 2, 62, 0
4, 513024, Note_on_c, 2, 64, 96
4, 513536, Note_off_c, 2, 64, 0
4, 513536, Note_on_c, 2, 65, 96
4, 514048, Note_off_c, 2, 65, 0
4, 514048, Note_on_c, 2, 59, 96
4, 515579, Note_off_c, 2, 59, 0
4, 515584, Note_on_c, 2, 57, 96
4, 516091, Note_off_c, 2, 57, 0
4, 516096, Note_on_c, 2, 57, 96
4, 528384, Note_off_c, 2, 57, 0
4, 546816, Note_on_c, 2, 57, 96
4, 553472, Note_off_c, 2, 57, 0
4, 553472, Note_on_c, 2, 50, 96
4, 553984, Note_off_c, 2, 50, 0
4, 553984, Note_on_c, 2, 52, 96
4, 554496, Note_off_c, 2, 52, 0
4, 554496, Note_on_c, 2, 54, 96
4, 555008, Note_off_c, 2, 54, 0
4, 555008, Note_on_c, 2, 55, 96
4, 555520, Note_off_c, 2, 55, 0
4, 555520, Note_on_c, 2, 57, 96
4, 556032, Note_off_c, 2, 57, 0
4, 556032, Note_on_c, 2, 59, 96
4, 556544, Note_off_c, 2, 59, 0
4, 556544, Note_on_c, 2, 60, 96
4, 557056, Note_off_c, 2, 60, 0
4, 557056, Note_on_c, 2, 62, 96
4, 557568, Note_off_c, 2, 62, 0
4, 557568, Note_on_c, 2, 60, 96
4, 558080, Note_off_c, 2, 60, 0
4, 558080, Note_on_c, 2, 64, 96
4, 558592, Note_off_c, 2, 64, 0
4, 558592, Note_on_c, 2, 62, 96
4, 559099, Note_off_c, 2, 62, 0
4, 559104, Note_on_c, 2, 62, 96
4, 565760, Note_off_c, 2, 62, 0
4, 565760, Note_on_c, 2, 59, 96
4, 566272, Note_off_c, 2, 59, 0
4, 566272, Note_on_c, 2, 57, 96
4, 566779, Note_off_c, 2, 57, 0
4, 566784, Note_on_c, 2, 55, 96
4, 567296, Note_off_c, 2, 55, 0
4, 567296, Note_on_c, 2, 60, 96
4, 571904, Note_off_c, 2, 60, 0
4, 571904, Note_on_c, 2, 50, 96
4, 572416, Note_off_c, 2, 50, 0
4, 572416, Note_on_c, 2, 54, 96
4, 572928, Note_off_c, 2, 54, 0
4, 572928, Note_on_c, 2, 57, 96
4, 573440, Note_off_c, 2, 57, 0
4, 573440, Note_on_c, 2, 59, 96
4, 578048, Note_off_c, 2, 59, 0
4, 578048, Note_on_c, 2, 59, 96
4, 578560, Note_off_c, 2, 59, 0
4, 578560, Note_on_c, 2, 64, 96
4, 579072, Note_off_c, 2, 64, 0
4, 579072, Note_on_c, 2, 63, 96
4, 579584, Note_off_c, 2, 63, 0
4, 579584, Note_on_c, 2, 64, 96
4, 580096, Note_off_c, 2, 64, 0
4, 580096, Note_on_c, 2, 59, 96
4, 580608, Note_off_c, 2, 59, 0
4, 580608, Note_on_c, 2, 60, 96
4, 581120, Note_off_c, 2, 60, 0
4, 581120, Note_on_c, 2, 56, 96
4, 581632, Note_off_c, 2, 56, 0
4, 581632, Note_on_c, 2, 57, 96
4, 582144, Note_off_c, 2, 57, 0
4, 582144, Note_on_c, 2, 52, 96
4, 582656, Note_off_c, 2, 52, 0
4, 582656, Note_on_c, 2, 53, 96
4, 583168, Note_off_c, 2, 53, 0
4, 583168, Note_on_c, 2, 51, 96
4, 583680, Note_off_c, 2, 51, 0
4, 583680, Note_on_c, 2, 52, 96
4, 584836, Note_off_c, 2, 52, 0
4, 584960, Note_on_c, 2, 54, 96
4, 585211, Note_off_c, 2, 54, 0
4, 585216, Note_on_c, 2, 55, 96
4, 585467, Note_off_c, 2, 55, 0
4, 585472, Note_on_c, 2, 57, 96
4, 585723, Note_off_c, 2, 57, 0
4, 585728, Note_on_c, 2, 59, 96
4, 585979, Note_off_c, 2, 59, 0
4, 585984, Note_on_c, 2, 61, 96
4, 586235, Note_off_c, 2, 61, 0
4, 586240, Note_on_c, 2, 63, 96
4, 586491, Note_off_c, 2, 63, 0
4, 586496, Note_on_c, 2, 64, 96
4, 586624, Note_off_c, 2, 64, 0
4, 586624, Note_on_c, 2, 66, 96
4, 586752, Note_off_c, 2, 66, 0
4, 586752, Note_on_c, 2, 67, 96
4, 587392, Note_off_c, 2, 67, 0
4, 587392, Note_on_c, 2, 66, 96
4, 587520, Note_off_c, 2, 66, 0
4, 587520, Note_on_c, 2, 64, 96
4, 587648, Note_off_c, 2, 64, 0
4, 587648, Note_on_c, 2, 63, 96
4, 587776, Note_off_c, 2, 63, 0
4, 587776, Note_on_c, 2, 64, 96
4, 588416, Note_off_c, 2, 64, 0
4, 588416, Note_on_c, 2, 62, 96
4, 588544, Note_off_c, 2, 62, 0
4, 588544, Note_on_c, 2, 60, 96
4, 588672, Note_off_c, 2, 60, 0
4, 588672, Note_on_c, 2, 59, 96
4, 588800, Note_off_c, 2, 59, 0
4, 588800, Note_on_c, 2, 60, 96
4, 589440, Note_off_c, 2, 60, 0
4, 589440, Note_on_c, 2, 64, 96
4, 589568, Note_off_c, 2, 64, 0
4, 589568, Note_on_c, 2, 58, 96
4, 589824, Note_off_c, 2, 58, 0
4, 589824, Note_on_c, 2, 59, 96
4, 593152, Note_off_c, 2, 59, 0
4, 593152, Note_on_c, 2, 58, 96
4, 593408, Note_off_c, 2, 58, 0
4, 593408, Note_on_c, 2, 56, 96
4, 593664, Note_off_c, 2, 56, 0
4, 593664, Note_on_c, 2, 58, 96
4, 593920, Note_off_c, 2, 58, 0
4, 593920, Note_on_c, 2, 58, 96
4, 595456, Note_off_c, 2, 58, 0
4, 595456, Note_on_c, 2, 59, 96
4, 595968, Note_off_c, 2, 59, 0
4, 595968, Note_on_c, 2, 59, 96
4, 604160, Note_off_c, 2, 59, 0
4, 645120, Note_on_c, 2, 55, 96
4, 652288, Note_off_c, 2, 55, 0
4, 652288, Note_on_c, 2, 55, 96
4, 653312, Note_off_c, 2, 55, 0
4, 653312, Note_on_c, 2, 57, 96
4, 653824, Note_off_c, 2, 57, 0
4, 653824, Note_on_c, 2, 55, 96
4, 654336, Note_off_c, 2, 55, 0
4, 654336, Note_on_c, 2, 57, 96
4, 654848, Note_off_c, 2, 57, 0
4, 654848, Note_on_c, 2, 60, 96
4, 655360, Note_off_c, 2, 60, 0
4, 655360, Note_on_c, 2, 59, 96
4, 655872, Note_off_c, 2, 59, 0
4, 655872, Note_on_c, 2, 57, 96
4, 656384, Note_off_c, 2, 57, 0
4, 656384, Note_on_c, 2, 59, 96
4, 656896, Note_off_c, 2, 59, 0
4, 656896, Note_on_c, 2, 62, 96
4, 657408, Note_off_c, 2, 62, 0
4, 657408, Note_on_c, 2, 60, 96
4, 664064, Note_off_c, 2, 60, 0
4, 664064, Note_on_c, 2, 64, 96
4, 664576, Note_off_c, 2, 64, 0
4, 664576, Note_on_c, 2, 62, 96
4, 665088, Note_off_c, 2, 62, 0
4, 665088, Note_on_c, 2, 60, 96
4, 665600, Note_off_c, 2, 60, 0
4, 665600, Note_on_c, 2, 59, 96
4, 666112, Note_off_c, 2, 59, 0
4, 666112, Note_on_c, 2, 62, 96
4, 666624, Note_off_c, 2, 62, 0
4, 666624, Note_on_c, 2, 60, 96
4, 667136, Note_off_c, 2, 60, 0
4, 667136, Note_on_c, 2, 59, 96
4, 667648, Note_off_c, 2, 59, 0
4, 667648, Note_on_c, 2, 57, 96
4, 668160, Note_off_c, 2, 57, 0
4, 668160, Note_on_c, 2, 60, 96
4, 668672, Note_off_c, 2, 60, 0
4, 668672, Note_on_c, 2, 59, 96
4, 669184, Note_off_c, 2, 59, 0
4, 669184, Note_on_c, 2, 57, 96
4, 669696, Note_off_c, 2, 57, 0
4, 669696, Note_on_c, 2, 55, 96
4, 689152, Note_off_c, 2, 55, 0
4, 694272, Note_on_c, 2, 52, 96
4, 701952, Note_off_c, 2, 52, 0
4, 701952, Note_on_c, 2, 54, 96
4, 702208, Note_off_c, 2, 54, 0
4, 702208, Note_on_c, 2, 56, 96
4, 702464, Note_off_c, 2, 56, 0
4, 702464, Note_on_c, 2, 57, 96
4, 702976, Note_off_c, 2, 57, 0
4, 702976, Note_on_c, 2, 59, 96
4, 703488, Note_off_c, 2, 59, 0
4, 703488, Note_on_c, 2, 60, 96
4, 704000, Note_off_c, 2, 60, 0
4, 704000, Note_on_c, 2, 62, 96
4, 704512, Note_off_c, 2, 62, 0
4, 704512, Note_on_c, 2, 60, 96
4, 705024, Note_off_c, 2, 60, 0
4, 705024, Note_on_c, 2, 59, 96
4, 705536, Note_off_c, 2, 59, 0
4, 705536, Note_on_c, 2, 57, 96
4, 706048, Note_off_c, 2, 57, 0
4, 706048, Note_on_c, 2, 55, 96
4, 706560, Note_off_c, 2, 55, 0
4, 706560, Note_on_c, 2, 55, 96
4, 707072, Note_off_c, 2, 55, 0
4, 707072, Note_on_c, 2, 54, 96
4, 707584, Note_off_c, 2, 54, 0
4, 707584, Note_on_c, 2, 55, 96
4, 708096, Note_off_c, 2, 55, 0
4, 708096, Note_on_c, 2, 52, 96
4, 708608, Note_off_c, 2, 52, 0
4, 708608, Note_on_c, 2, 54, 96
4, 712187, Note_off_c, 2, 54, 0
4, 712192, Note_on_c, 2, 52, 96
4, 712448, Note_off_c, 2, 52, 0
4, 712448, Note_on_c, 2, 54, 96
4, 712704, Note_off_c, 2, 54, 0
4, 712704, Note_on_c, 2, 55, 96
4, 778240, Note_off_c, 2, 55, 0
4, 778241, End_track
5, 0, Start_track
5, 0, Title_t, "Instrument 4"
5, 0, Program_c, 3, 0
5, 0, Control_c, 3, 7, 127
5, 0, Note_on_c, 3, 43, 96
5, 2048, Note_off_c, 3, 43, 0
5, 2048, Note_on_c, 3, 55, 96
5, 4096, Note_off_c, 3, 55, 0
5, 4096, Note_on_c, 3, 57, 96
5, 6144, Note_off_c, 3, 57, 0
5, 6144, Note_on_c, 3, 59, 96
5, 8192, Note_off_c, 3, 59, 0
5, 9216, Note_on_c, 3, 47, 96
5, 10240, Note_off_c, 3, 47, 0
5, 10240, Note_on_c, 3, 48, 96
5, 11264, Note_off_c, 3, 48, 0
5, 11264, Note_on_c, 3, 50, 96
5, 12288, Note_off_c, 3, 50, 0
5, 12288, Note_on_c, 3, 52, 96
5, 13312, Note_off_c, 3, 52, 0
5, 13312, Note_on_c, 3, 47, 96
5, 14336, Note_off_c, 3, 47, 0
5, 14336, Note_on_c, 3, 48, 96
5, 15360, Note_off_c, 3, 48, 0
5, 15360, Note_on_c, 3, 45, 96
5, 16384, Note_off_c, 3, 45, 0
5, 16384, Note_on_c, 3, 50, 96
5, 17408, Note_off_c, 3, 50, 0
5, 17408, Note_on_c, 3, 38, 96
5, 18432, Note_off_c, 3, 38, 0
5, 18432, Note_on_c, 3, 43, 96
5, 20480, Note_off_c, 3, 43, 0
5, 20480, Note_on_c, 3, 50, 96
5, 22528, Note_off_c, 3, 50, 0
5, 22528, Note_on_c, 3, 52, 96
5, 24576, Note_off_c, 3, 52, 0
5, 24576, Note_on_c, 3, 54, 96
5, 26624, Note_off_c, 3, 54, 0
5, 27648, Note_on_c, 3, 54, 96
5, 28672, Note_off_c, 3, 54, 0
5, 28672, Note_on_c, 3, 55, 96
5, 29696, Note_off_c, 3, 55, 0
5, 29696, Note_on_c, 3, 57, 96
5, 30720, Note_off_c, 3, 57, 0
5, 30720, Note_on_c, 3, 59, 96
5, 31744, Note_off_c, 3, 59, 0
5, 31744, Note_on_c, 3, 54, 96
5, 32768, Note_off_c, 3, 54, 0
5, 32768, Note_on_c, 3, 55, 96
5, 33792, Note_off_c, 3, 55, 0
5, 33792, Note_on_c, 3, 52, 96
5, 34816, Note_off_c, 3, 52, 0
5, 34816, Note_on_c, 3, 57, 96
5, 35840, Note_off_c, 3, 57, 0
5, 35840, Note_on_c, 3, 45, 96
5, 36864, Note_off_c, 3, 45, 0
5, 36864, Note_on_c, 3, 50, 96
5, 38912, Note_off_c, 3, 50, 0
5, 49152, Note_on_c, 3, 43, 96
5, 51200, Note_off_c, 3, 43, 0
5, 51200, Note_on_c, 3, 47, 96
5, 53248, Note_off_c, 3, 47, 0
5, 53248, Note_on_c, 3, 48, 96
5, 55296, Note_off_c, 3, 48, 0
5, 55296, Note_on_c, 3, 50, 96
5, 59392, Note_off_c, 3, 50, 0
5, 59392, Note_on_c, 3, 48, 96
5, 61440, Note_off_c, 3, 48, 0
5, 61440, Note_on_c, 3, 47, 96
5, 65536, Note_off_c, 3, 47, 0
5, 65536, Note_on_c, 3, 45, 96
5, 67584, Note_off_c, 3, 45, 0
5, 67584, Note_on_c, 3, 47, 96
5, 69632, Note_off_c, 3, 47, 0
5, 70656, Note_on_c, 3, 47, 96
5, 71680, Note_off_c, 3, 47, 0
5, 71680, Note_on_c, 3, 48, 96
5, 72704, Note_off_c, 3, 48, 0
5, 72704, Note_on_c, 3, 50, 96
5, 73728, Note_off_c, 3, 50, 0
5, 73728, Note_on_c, 3, 52, 96
5, 74752, Note_off_c, 3, 52, 0
5, 74752, Note_on_c, 3, 47, 96
5, 75776, Note_off_c, 3, 47, 0
5, 75776, Note_on_c, 3, 48, 96
5, 76800, Note_off_c, 3, 48, 0
5, 76800, Note_on_c, 3, 45, 96
5, 77824, Note_off_c, 3, 45, 0
5, 77824, Note_on_c, 3, 50, 96
5, 78848, Note_off_c, 3, 50, 0
5, 78848, Note_on_c, 3, 38, 96
5, 79872, Note_off_c, 3, 38, 0
5, 79872, Note_on_c, 3, 43, 96
5, 96256, Note_off_c, 3, 43, 0
5, 100352, Note_on_c, 3, 55, 96
5, 102400, Note_off_c, 3, 55, 0
5, 102400, Note_on_c, 3, 57, 96
5, 104448, Note_off_c, 3, 57, 0
5, 104448, Note_on_c, 3, 59, 96
5, 106496, Note_off_c, 3, 59, 0
5, 106496, Note_on_c, 3, 57, 96
5, 108544, Note_off_c, 3, 57, 0
5, 108544, Note_on_c, 3, 55, 96
5, 110592, Note_off_c, 3, 55, 0
5, 110592, Note_on_c, 3, 60, 96
5, 112640, Note_off_c, 3, 60, 0
5, 116736, Note_on_c, 3, 45, 96
5, 118784, Note_off_c, 3, 45, 0
5, 118784, Note_on_c, 3, 47, 96
5, 120832, Note_off_c, 3, 47, 0
5, 120832, Note_on_c, 3, 48, 96
5, 122880, Note_off_c, 3, 48, 0
5, 122880, Note_on_c, 3, 50, 96
5, 124928, Note_off_c, 3, 50, 0
5, 125952, Note_on_c, 3, 54, 96
5, 126976, Note_off_c, 3, 54, 0
5, 126976, Note_on_c, 3, 55, 96
5, 128000, Note_off_c, 3, 55, 0
5, 128000, Note_on_c, 3, 51, 96
5, 129024, Note_off_c, 3, 51, 0
5, 129024, Note_on_c, 3, 52, 96
5, 130048, Note_off_c, 3, 52, 0
5, 130048, Note_on_c, 3, 47, 96
5, 131072, Note_off_c, 3, 47, 0
5, 131072, Note_on_c, 3, 48, 96
5, 133120, Note_off_c, 3, 48, 0
5, 133120, Note_on_c, 3, 49, 96
5, 135168, Note_off_c, 3, 49, 0
5, 135168, Note_on_c, 3, 47, 96
5, 136192, Note_off_c, 3, 47, 0
5, 136192, Note_on_c, 3, 59, 96
5, 137216, Note_off_c, 3, 59, 0
5, 137216, Note_on_c, 3, 57, 96
5, 138240, Note_off_c, 3, 57, 0
5, 138240, Note_on_c, 3, 55, 96
5, 139264, Note_off_c, 3, 55, 0
5, 139264, Note_on_c, 3, 54, 96
5, 140288, Note_off_c, 3, 54, 0
5, 140288, Note_on_c, 3, 52, 96
5, 141312, Note_off_c, 3, 52, 0
5, 141312, Note_on_c, 3, 51, 96
5, 143360, Note_off_c, 3, 51, 0
5, 144384, Note_on_c, 3, 51, 96
5, 145408, Note_off_c, 3, 51, 0
5, 145408, Note_on_c, 3, 52, 96
5, 146432, Note_off_c, 3, 52, 0
5, 146432, Note_on_c, 3, 55, 96
5, 146944, Note_off_c, 3, 55, 0
5, 146944, Note_on_c, 3, 52, 96
5, 147456, Note_off_c, 3, 52, 0
5, 147456, Note_on_c, 3, 57, 96
5, 148480, Note_off_c, 3, 57, 0
5, 148480, Note_on_c, 3, 55, 96
5, 149504, Note_off_c, 3, 55, 0
5, 149504, Note_on_c, 3, 54, 96
5, 150528, Note_off_c, 3, 54, 0
5, 150528, Note_on_c, 3, 55, 96
5, 151552, Note_off_c, 3, 55, 0
5, 151552, Note_on_c, 3, 57, 96
5, 152576, Note_off_c, 3, 57, 0
5, 152576, Note_on_c, 3, 59, 96
5, 153600, Note_off_c, 3, 59, 0
5, 153600, Note_on_c, 3, 60, 96
5, 154624, Note_off_c, 3, 60, 0
5, 154624, Note_on_c, 3, 48, 96
5, 155648, Note_off_c, 3, 48, 0
5, 155648, Note_on_c, 3, 43, 96
5, 156672, Note_off_c, 3, 43, 0
5, 156672, Note_on_c, 3, 45, 96
5, 157696, Note_off_c, 3, 45, 0
5, 157696, Note_on_c, 3, 47, 96
5, 159744, Note_off_c, 3, 47, 0
5, 159744, Note_on_c, 3, 40, 96
5, 161792, Note_off_c, 3, 40, 0
5, 161792, Note_on_c, 3, 43, 96
5, 163840, Note_off_c, 3, 43, 0
5, 163840, Note_on_c, 3, 47, 96
5, 165888, Note_off_c, 3, 47, 0
5, 165888, Note_on_c, 3, 52, 96
5, 167936, Note_off_c, 3, 52, 0
5, 167936, Note_on_c, 3, 40, 96
5, 169984, Note_off_c, 3, 40, 0
5, 172032, Note_on_c, 3, 45, 96
5, 174080, Note_off_c, 3, 45, 0
5, 174080, Note_on_c, 3, 47, 96
5, 176128, Note_off_c, 3, 47, 0
5, 176128, Note_on_c, 3, 48, 96
5, 178176, Note_off_c, 3, 48, 0
5, 178176, Note_on_c, 3, 50, 96
5, 180224, Note_off_c, 3, 50, 0
5, 181248, Note_on_c, 3, 43, 96
5, 182272, Note_off_c, 3, 43, 0
5, 182272, Note_on_c, 3, 45, 96
5, 183296, Note_off_c, 3, 45, 0
5, 183296, Note_on_c, 3, 47, 96
5, 184320, Note_off_c, 3, 47, 0
5, 184320, Note_on_c, 3, 48, 96
5, 186368, Note_off_c, 3, 48, 0
5, 190464, Note_on_c, 3, 47, 96
5, 192512, Note_off_c, 3, 47, 0
5, 194560, Note_on_c, 3, 45, 96
5, 196608, Note_off_c, 3, 45, 0
5, 196608, Note_on_c, 3, 43, 96
5, 197632, Note_off_c, 3, 43, 0
5, 197632, Note_on_c, 3, 48, 96
5, 198656, Note_off_c, 3, 48, 0
5, 198656, Note_on_c, 3, 50, 96
5, 200704, Note_off_c, 3, 50, 0
5, 200704, Note_on_c, 3, 38, 96
5, 202752, Note_off_c, 3, 38, 0
5, 202752, Note_on_c, 3, 43, 96
5, 204800, Note_off_c, 3, 43, 0
5, 204800, Note_on_c, 3, 55, 96
5, 206848, Note_off_c, 3, 55, 0
5, 206848, Note_on_c, 3, 57, 96
5, 208896, Note_off_c, 3, 57, 0
5, 208896, Note_on_c, 3, 59, 96
5, 210944, Note_off_c, 3, 59, 0
5, 211968, Note_on_c, 3, 47, 96
5, 212992, Note_off_c, 3, 47, 0
5, 212992, Note_on_c, 3, 48, 96
5, 214016, Note_off_c, 3, 48, 0
5, 214016, Note_on_c, 3, 50, 96
5, 215040, Note_off_c, 3, 50, 0
5, 215040, Note_on_c, 3, 52, 96
5, 216064, Note_off_c, 3, 52, 0
5, 216064, Note_on_c, 3, 47, 96
5, 217088, Note_off_c, 3, 47, 0
5, 217088, Note_on_c, 3, 48, 96
5, 218112, Note_off_c, 3, 48, 0
5, 218112, Note_on_c, 3, 45, 96
5, 219136, Note_off_c, 3, 45, 0
5, 219136, Note_on_c, 3, 50, 96
5, 220160, Note_off_c, 3, 50, 0
5, 220160, Note_on_c, 3, 38, 96
5, 221184, Note_off_c, 3, 38, 0
5, 221184, Note_on_c, 3, 43, 96
5, 223232, Note_off_c, 3, 43, 0
5, 223232, Note_on_c, 3, 50, 96
5, 225280, Note_off_c, 3, 50, 0
5, 225280, Note_on_c, 3, 52, 96
5, 227328, Note_off_c, 3, 52, 0
5, 227328, Note_on_c, 3, 54, 96
5, 229376, Note_off_c, 3, 54, 0
5, 230400, Note_on_c, 3, 54, 96
5, 231424, Note_off_c, 3, 54, 0
5, 231424, Note_on_c, 3, 55, 96
5, 232448, Note_off_c, 3, 55, 0
5, 232448, Note_on_c, 3, 57, 96
5, 233472, Note_off_c, 3, 57, 0
5, 233472, Note_on_c, 3, 59, 96
5, 234496, Note_off_c, 3, 59, 0
5, 234496, Note_on_c, 3, 54, 96
5, 235520, Note_off_c, 3, 54, 0
5, 235520, Note_on_c, 3, 55, 96
5, 236544, Note_off_c, 3, 55, 0
5, 236544, Note_on_c, 3, 52, 96
5, 237568, Note_off_c, 3, 52, 0
5, 237568, Note_on_c, 3, 57, 96
5, 238592, Note_off_c, 3, 57, 0
5, 238592, Note_on_c, 3, 45, 96
5, 239616, Note_off_c, 3, 45, 0
5, 239616, Note_on_c, 3, 50, 96
5, 241664, Note_off_c, 3, 50, 0
5, 251904, Note_on_c, 3, 43, 96
5, 253952, Note_off_c, 3, 43, 0
5, 253952, Note_on_c, 3, 47, 96
5, 256000, Note_off_c, 3, 47, 0
5, 256000, Note_on_c, 3, 48, 96
5, 258048, Note_off_c, 3, 48, 0
5, 258048, Note_on_c, 3, 50, 96
5, 262144, Note_off_c, 3, 50, 0
5, 262144, Note_on_c, 3, 48, 96
5, 264192, Note_off_c, 3, 48, 0
5, 264192, Note_on_c, 3, 47, 96
5, 268288, Note_off_c, 3, 47, 0
5, 268288, Note_on_c, 3, 45, 96
5, 270336, Note_off_c, 3, 45, 0
5, 270336, Note_on_c, 3, 47, 96
5, 272384, Note_off_c, 3, 47, 0
5, 273408, Note_on_c, 3, 47, 96
5, 274432, Note_off_c, 3, 47, 0
5, 274432, Note_on_c, 3, 48, 96
5, 275456, Note_off_c, 3, 48, 0
5, 275456, Note_on_c, 3, 50, 96
5, 276480, Note_off_c, 3, 50, 0
5, 276480, Note_on_c, 3, 52, 96
5, 277504, Note_off_c, 3, 52, 0
5, 277504, Note_on_c, 3, 47, 96
5, 278528, Note_off_c, 3, 47, 0
5, 278528, Note_on_c, 3, 48, 96
5, 279552, Note_off_c, 3, 48, 0
5, 279552, Note_on_c, 3, 45, 96
5, 280576, Note_off_c, 3, 45, 0
5, 280576, Note_on_c, 3, 50, 96
5, 281600, Note_off_c, 3, 50, 0
5, 281600, Note_on_c, 3, 38, 96
5, 282624, Note_off_c, 3, 38, 0
5, 282624, Note_on_c, 3, 43, 96
5, 299008, Note_off_c, 3, 43, 0
5, 303104, Note_on_c, 3, 55, 96
5, 305152, Note_off_c, 3, 55, 0
5, 305152, Note_on_c, 3, 57, 96
5, 307200, Note_off_c, 3, 57, 0
5, 307200, Note_on_c, 3, 59, 96
5, 309248, Note_off_c, 3, 59, 0
5, 309248, Note_on_c, 3, 57, 96
5, 311296, Note_off_c, 3, 57, 0
5, 311296, Note_on_c, 3, 55, 96
5, 313344, Note_off_c, 3, 55, 0
5, 313344, Note_on_c, 3, 60, 96
5, 315392, Note_off_c, 3, 60, 0
5, 319488, Note_on_c, 3, 45, 96
5, 321536, Note_off_c, 3, 45, 0
5, 321536, Note_on_c, 3, 47, 96
5, 323584, Note_off_c, 3, 47, 0
5, 323584, Note_on_c, 3, 48, 96
5, 325632, Note_off_c, 3, 48, 0
5, 325632, Note_on_c, 3, 50, 96
5, 327680, Note_off_c, 3, 50, 0
5, 328704, Note_on_c, 3, 54, 96
5, 329728, Note_off_c, 3, 54, 0
5, 329728, Note_on_c, 3, 55, 96
5, 330752, Note_off_c, 3, 55, 0
5, 330752, Note_on_c, 3, 51, 96
5, 331776, Note_off_c, 3, 51, 0
5, 331776, Note_on_c, 3, 52, 96
5, 332800, Note_off_c, 3, 52, 0
5, 332800, Note_on_c, 3, 47, 96
5, 333824, Note_off_c, 3, 47, 0
5, 333824, Note_on_c, 3, 48, 96
5, 335872, Note_off_c, 3, 48, 0
5, 335872, Note_on_c, 3, 49, 96
5, 337920, Note_off_c, 3, 49, 0
5, 337920, Note_on_c, 3, 47, 96
5, 338944, Note_off_c, 3, 47, 0
5, 338944, Note_on_c, 3, 59, 96
5, 339968, Note_off_c, 3, 59, 0
5, 339968, Note_on_c, 3, 57, 96
5, 340992, Note_off_c, 3, 57, 0
5, 340992, Note_on_c, 3, 55, 96
5, 342016, Note_off_c, 3, 55, 0
5, 342016, Note_on_c, 3, 54, 96
5, 343040, Note_off_c, 3, 54, 0
5, 343040, Note_on_c, 3, 52, 96
5, 344064, Note_off_c, 3, 52, 0
5, 344064, Note_on_c, 3, 51, 96
5, 346112, Note_off_c, 3, 51, 0
5, 347136, Note_on_c, 3, 51, 96
5, 348160, Note_off_c, 3, 51, 0
5, 348160, Note_on_c, 3, 52, 96
5, 349184, Note_off_c, 3, 52, 0
5, 349184, Note_on_c, 3, 55, 96
5, 349696, Note_off_c, 3, 55, 0
5, 349696, Note_on_c, 3, 52, 96
5, 350208, Note_off_c, 3, 52, 0
5, 350208, Note_on_c, 3, 57, 96
5, 351232, Note_off_c, 3, 57, 0
5, 351232, Note_on_c, 3, 55, 96
5, 352256, Note_off_c, 3, 55, 0
5, 352256, Note_on_c, 3, 54, 96
5, 353280, Note_off_c, 3, 54, 0
5, 353280, Note_on_c, 3, 55, 96
5, 354304, Note_off_c, 3, 55, 0
5, 354304, Note_on_c, 3, 57, 96
5, 355328, Note_off_c, 3, 57, 0
5, 355328, Note_on_c, 3, 59, 96
5, 356352, Note_off_c, 3, 59, 0
5, 356352, Note_on_c, 3, 60, 96
5, 357376, Note_off_c, 3, 60, 0
5, 357376, Note_on_c, 3, 48, 96
5, 358400, Note_off_c, 3, 48, 0
5, 358400, Note_on_c, 3, 43, 96
5, 359424, Note_off_c, 3, 43, 0
5, 359424, Note_on_c, 3, 45, 96
5, 360448, Note_off_c, 3, 45, 0
5, 360448, Note_on_c, 3, 47, 96
5, 362496, Note_off_c, 3, 47, 0
5, 362496, Note_on_c, 3, 40, 96
5, 364544, Note_off_c, 3, 40, 0
5, 364544, Note_on_c, 3, 43, 96
5, 366592, Note_off_c, 3, 43, 0
5, 366592, Note_on_c, 3, 47, 96
5, 368640, Note_off_c, 3, 47, 0
5, 368640, Note_on_c, 3, 52, 96
5, 370688, Note_off_c, 3, 52, 0
5, 370688, Note_on_c, 3, 40, 96
5, 372736, Note_off_c, 3, 40, 0
5, 374784, Note_on_c, 3, 45, 96
5, 376832, Note_off_c, 3, 45, 0
5, 376832, Note_on_c, 3, 47, 96
5, 378880, Note_off_c, 3, 47, 0
5, 378880, Note_on_c, 3, 48, 96
5, 380928, Note_off_c, 3, 48, 0
5, 380928, Note_on_c, 3, 50, 96
5, 382976, Note_off_c, 3, 50, 0
5, 384000, Note_on_c, 3, 43, 96
5, 385024, Note_off_c, 3, 43, 0
5, 385024, Note_on_c, 3, 45, 96
5, 386048, Note_off_c, 3, 45, 0
5, 386048, Note_on_c, 3, 47, 96
5, 387072, Note_off_c, 3, 47, 0
5, 387072, Note_on_c, 3, 48, 96
5, 389120, Note_off_c, 3, 48, 0
5, 393216, Note_on_c, 3, 47, 96
5, 395264, Note_off_c, 3, 47, 0
5, 397312, Note_on_c, 3, 45, 96
5, 399360, Note_off_c, 3, 45, 0
5, 399360, Note_on_c, 3, 43, 96
5, 400384, Note_off_c, 3, 43, 0
5, 400384, Note_on_c, 3, 48, 96
5, 401408, Note_off_c, 3, 48, 0
5, 401408, Note_on_c, 3, 50, 96
5, 403456, Note_off_c, 3, 50, 0
5, 403456, Note_on_c, 3, 38, 96
5, 405504, Note_off_c, 3, 38, 0
5, 405504, Note_on_c, 3, 43, 96
5, 417792, Note_off_c, 3, 43, 0
5, 417792, Note_on_c, 3, 55, 96
5, 419840, Note_off_c, 3, 55, 0
5, 419840, Note_on_c, 3, 57, 96
5, 421888, Note_off_c, 3, 57, 0
5, 421888, Note_on_c, 3, 59, 96
5, 423936, Note_off_c, 3, 59, 0
5, 423936, Note_on_c, 3, 60, 96
5, 428032, Note_off_c, 3, 60, 0
5, 428032, Note_on_c, 3, 59, 96
5, 430080, Note_off_c, 3, 59, 0
5, 430080, Note_on_c, 3, 57, 96
5, 434176, Note_off_c, 3, 57, 0
5, 434176, Note_on_c, 3, 56, 96
5, 436224, Note_off_c, 3, 56, 0
5, 436224, Note_on_c, 3, 57, 96
5, 438272, Note_off_c, 3, 57, 0
5, 438272, Note_on_c, 3, 50, 96
5, 440320, Note_off_c, 3, 50, 0
5, 440320, Note_on_c, 3, 52, 96
5, 442368, Note_off_c, 3, 52, 0
5, 442368, Note_on_c, 3, 45, 96
5, 444416, Note_off_c, 3, 45, 0
5, 444416, Note_on_c, 3, 47, 96
5, 446464, Note_off_c, 3, 47, 0
5, 446464, Note_on_c, 3, 49, 96
5, 448512, Note_off_c, 3, 49, 0
5, 448512, Note_on_c, 3, 50, 96
5, 454144, Note_off_c, 3, 50, 0
5, 454656, Note_on_c, 3, 47, 96
5, 458752, Note_off_c, 3, 47, 0
5, 458752, Note_on_c, 3, 45, 96
5, 460800, Note_off_c, 3, 45, 0
5, 460800, Note_on_c, 3, 47, 96
5, 462848, Note_off_c, 3, 47, 0
5, 462848, Note_on_c, 3, 52, 96
5, 464896, Note_off_c, 3, 52, 0
5, 464896, Note_on_c, 3, 54, 96
5, 466944, Note_off_c, 3, 54, 0
5, 466944, Note_on_c, 3, 47, 96
5, 468992, Note_off_c, 3, 47, 0
5, 468992, Note_on_c, 3, 49, 96
5, 471040, Note_off_c, 3, 49, 0
5, 471040, Note_on_c, 3, 51, 96
5, 473088, Note_off_c, 3, 51, 0
5, 473088, Note_on_c, 3, 52, 96
5, 477184, Note_off_c, 3, 52, 0
5, 477184, Note_on_c, 3, 50, 96
5, 479232, Note_off_c, 3, 50, 0
5, 479232, Note_on_c, 3, 48, 96
5, 483328, Note_off_c, 3, 48, 0
5, 483328, Note_on_c, 3, 47, 96
5, 485376, Note_off_c, 3, 47, 0
5, 485376, Note_on_c, 3, 45, 96
5, 487424, Note_off_c, 3, 45, 0
5, 487424, Note_on_c, 3, 47, 96
5, 489472, Note_off_c, 3, 47, 0
5, 489472, Note_on_c, 3, 48, 96
5, 491520, Note_off_c, 3, 48, 0
5, 491520, Note_on_c, 3, 50, 96
5, 493568, Note_off_c, 3, 50, 0
5, 494592, Note_on_c, 3, 43, 96
5, 495616, Note_off_c, 3, 43, 0
5, 495616, Note_on_c, 3, 45, 96
5, 496640, Note_off_c, 3, 45, 0
5, 496640, Note_on_c, 3, 47, 96
5, 497664, Note_off_c, 3, 47, 0
5, 497664, Note_on_c, 3, 48, 96
5, 499712, Note_off_c, 3, 48, 0
5, 500736, Note_on_c, 3, 48, 96
5, 501760, Note_off_c, 3, 48, 0
5, 501760, Note_on_c, 3, 50, 96
5, 502784, Note_off_c, 3, 50, 0
5, 502784, Note_on_c, 3, 52, 96
5, 503808, Note_off_c, 3, 52, 0
5, 503808, Note_on_c, 3, 53, 96
5, 505856, Note_off_c, 3, 53, 0
5, 506880, Note_on_c, 3, 52, 96
5, 507904, Note_off_c, 3, 52, 0
5, 507904, Note_on_c, 3, 50, 96
5, 508928, Note_off_c, 3, 50, 0
5, 508928, Note_on_c, 3, 48, 96
5, 509952, Note_off_c, 3, 48, 0
5, 509952, Note_on_c, 3, 47, 96
5, 510976, Note_off_c, 3, 47, 0
5, 510976, Note_on_c, 3, 45, 96
5, 512000, Note_off_c, 3, 45, 0
5, 512000, Note_on_c, 3, 52, 96
5, 514048, Note_off_c, 3, 52, 0
5, 514048, Note_on_c, 3, 40, 96
5, 516096, Note_off_c, 3, 40, 0
5, 516096, Note_on_c, 3, 45, 96
5, 518144, Note_off_c, 3, 45, 0
5, 518144, Note_on_c, 3, 47, 96
5, 520192, Note_off_c, 3, 47, 0
5, 520192, Note_on_c, 3, 49, 96
5, 522240, Note_off_c, 3, 49, 0
5, 522240, Note_on_c, 3, 50, 96
5, 527872, Note_off_c, 3, 50, 0
5, 528384, Note_on_c, 3, 52, 96
5, 530432, Note_off_c, 3, 52, 0
5, 530432, Note_on_c, 3, 54, 96
5, 532480, Note_off_c, 3, 54, 0
5, 532480, Note_on_c, 3, 56, 96
5, 534528, Note_off_c, 3, 56, 0
5, 534528, Note_on_c, 3, 57, 96
5, 536576, Note_off_c, 3, 57, 0
5, 536576, Note_on_c, 3, 59, 96
5, 538624, Note_off_c, 3, 59, 0
5, 538624, Note_on_c, 3, 60, 96
5, 540672, Note_off_c, 3, 60, 0
5, 540672, Note_on_c, 3, 50, 96
5, 542720, Note_off_c, 3, 50, 0
5, 542720, Note_on_c, 3, 52, 96
5, 544768, Note_off_c, 3, 52, 0
5, 544768, Note_on_c, 3, 40, 96
5, 546816, Note_off_c, 3, 40, 0
5, 546816, Note_on_c, 3, 45, 96
5, 548864, Note_off_c, 3, 45, 0
5, 552960, Note_on_c, 3, 50, 96
5, 553984, Note_off_c, 3, 50, 0
5, 553984, Note_on_c, 3, 48, 96
5, 555008, Note_off_c, 3, 48, 0
5, 555008, Note_on_c, 3, 47, 96
5, 557056, Note_off_c, 3, 47, 0
5, 557056, Note_on_c, 3, 45, 96
5, 559104, Note_off_c, 3, 45, 0
5, 559104, Note_on_c, 3, 43, 96
5, 561152, Note_off_c, 3, 43, 0
5, 561152, Note_on_c, 3, 45, 96
5, 563200, Note_off_c, 3, 45, 0
5, 563200, Note_on_c, 3, 47, 96
5, 565248, Note_off_c, 3, 47, 0
5, 565248, Note_on_c, 3, 40, 96
5, 567296, Note_off_c, 3, 40, 0
5, 568320, Note_on_c, 3, 45, 96
5, 569344, Note_off_c, 3, 45, 0
5, 569344, Note_on_c, 3, 47, 96
5, 570368, Note_off_c, 3, 47, 0
5, 570368, Note_on_c, 3, 48, 96
5, 571392, Note_off_c, 3, 48, 0
5, 571392, Note_on_c, 3, 38, 96
5, 573440, Note_off_c, 3, 38, 0
5, 574464, Note_on_c, 3, 43, 96
5, 575488, Note_off_c, 3, 43, 0
5, 575488, Note_on_c, 3, 45, 96
5, 576512, Note_off_c, 3, 45, 0
5, 576512, Note_on_c, 3, 47, 96
5, 577536, Note_off_c, 3, 47, 0
5, 577536, Note_on_c, 3, 36, 96
5, 579584, Note_off_c, 3, 36, 0
5, 589824, Note_on_c, 3, 49, 96
5, 591872, Note_off_c, 3, 49, 0
5, 591872, Note_on_c, 3, 54, 96
5, 593920, Note_off_c, 3, 54, 0
5, 593920, Note_on_c, 3, 52, 96
5, 595968, Note_off_c, 3, 52, 0
5, 595968, Note_on_c, 3, 51, 96
5, 598016, Note_off_c, 3, 51, 0
5, 598016, Note_on_c, 3, 52, 96
5, 600064, Note_off_c, 3, 52, 0
5, 600064, Note_on_c, 3, 54, 96
5, 602112, Note_off_c, 3, 54, 0
5, 602112, Note_on_c, 3, 55, 96
5, 604160, Note_off_c, 3, 55, 0
5, 604160, Note_on_c, 3, 57, 96
5, 606208, Note_off_c, 3, 57, 0
5, 606208, Note_on_c, 3, 59, 96
5, 608256, Note_off_c, 3, 59, 0
5, 608256, Note_on_c, 3, 60, 96
5, 609280, Note_off_c, 3, 60, 0
5, 609280, Note_on_c, 3, 59, 96
5, 610304, Note_off_c, 3, 59, 0
5, 610304, Note_on_c, 3, 57, 96
5, 611328, Note_off_c, 3, 57, 0
5, 611328, Note_on_c, 3, 55, 96
5, 612352, Note_off_c, 3, 55, 0
5, 612352, Note_on_c, 3, 54, 96
5, 613376, Note_off_c, 3, 54, 0
5, 613376, Note_on_c, 3, 59, 96
5, 614400, Note_off_c, 3, 59, 0
5, 614400, Note_on_c, 3, 52, 96
5, 615424, Note_off_c, 3, 52, 0
5, 615424, Note_on_c, 3, 55, 96
5, 616448, Note_off_c, 3, 55, 0
5, 616448, Note_on_c, 3, 57, 96
5, 617472, Note_off_c, 3, 57, 0
5, 617472, Note_on_c, 3, 54, 96
5, 618496, Note_off_c, 3, 54, 0
5, 618496, Note_on_c, 3, 59, 96
5, 619520, Note_off_c, 3, 59, 0
5, 619520, Note_on_c, 3, 47, 96
5, 620544, Note_off_c, 3, 47, 0
5, 620544, Note_on_c, 3, 52, 96
5, 622592, Note_off_c, 3, 52, 0
5, 622592, Note_on_c, 3, 54, 96
5, 624640, Note_off_c, 3, 54, 0
5, 624640, Note_on_c, 3, 56, 96
5, 626688, Note_off_c, 3, 56, 0
5, 626688, Note_on_c, 3, 57, 96
5, 628736, Note_off_c, 3, 57, 0
5, 632832, Note_on_c, 3, 50, 96
5, 634880, Note_off_c, 3, 50, 0
5, 634880, Note_on_c, 3, 52, 96
5, 636928, Note_off_c, 3, 52, 0
5, 636928, Note_on_c, 3, 54, 96
5, 638976, Note_off_c, 3, 54, 0
5, 638976, Note_on_c, 3, 55, 96
5, 641024, Note_off_c, 3, 55, 0
5, 645120, Note_on_c, 3, 43, 96
5, 647168, Note_off_c, 3, 43, 0
5, 647168, Note_on_c, 3, 45, 96
5, 649216, Note_off_c, 3, 45, 0
5, 649216, Note_on_c, 3, 47, 96
5, 651264, Note_off_c, 3, 47, 0
5, 651264, Note_on_c, 3, 48, 96
5, 653312, Note_off_c, 3, 48, 0
5, 657408, Note_on_c, 3, 45, 96
5, 659456, Note_off_c, 3, 45, 0
5, 659456, Note_on_c, 3, 47, 96
5, 661504, Note_off_c, 3, 47, 0
5, 661504, Note_on_c, 3, 48, 96
5, 663552, Note_off_c, 3, 48, 0
5, 663552, Note_on_c, 3, 50, 96
5, 665600, Note_off_c, 3, 50, 0
5, 667648, Note_on_c, 3, 51, 96
5, 669696, Note_off_c, 3, 51, 0
5, 669696, Note_on_c, 3, 52, 96
5, 671744, Note_off_c, 3, 52, 0
5, 675840, Note_on_c, 3, 47, 96
5, 677888, Note_off_c, 3, 47, 0
5, 681984, Note_on_c, 3, 48, 96
5, 684032, Note_off_c, 3, 48, 0
5, 688128, Note_on_c, 3, 43, 96
5, 690176, Note_off_c, 3, 43, 0
5, 696320, Note_on_c, 3, 44, 96
5, 698368, Note_off_c, 3, 44, 0
5, 698368, Note_on_c, 3, 40, 96
5, 700416, Note_off_c, 3, 40, 0
5, 700416, Note_on_c, 3, 45, 96
5, 702464, Note_off_c, 3, 45, 0
5, 708608, Note_on_c, 3, 50, 96
5, 710656, Note_off_c, 3, 50, 0
5, 710656, Note_on_c, 3, 48, 96
5, 712704, Note_off_c, 3, 48, 0
5, 712704, Note_on_c, 3, 47, 96
5, 714752, Note_off_c, 3, 47, 0
5, 714752, Note_on_c, 3, 45, 96
5, 716800, Note_off_c, 3, 45, 0
5, 716800, Note_on_c, 3, 47, 96
5, 718848, Note_off_c, 3, 47, 0
5, 718848, Note_on_c, 3, 48, 96
5, 720896, Note_off_c, 3, 48, 0
5, 724992, Note_on_c, 3, 50, 96
5, 727040, Note_off_c, 3, 50, 0
5, 731136, Note_on_c, 3, 52, 96
5, 733184, Note_off_c, 3, 52, 0
5, 733184, Note_on_c, 3, 50, 96
5, 735232, Note_off_c, 3, 50, 0
5, 735232, Note_on_c, 3, 48, 96
5, 737280, Note_off_c, 3, 48, 0
5, 737280, Note_on_c, 3, 55, 96
5, 749568, Note_off_c, 3, 55, 0
5, 749568, Note_on_c, 3, 43, 96
5, 778240, Note_off_c, 3, 43, 0
5, 778241, End_track
6, 0, Start_track
6, 0, Title_t, "Instrument 5"
6, 0, Program_c, 4, 0
6, 0, Control_c, 4, 7, 127
6, 0, Note_on_c, 4, 31, 96
6, 2048, Note_off_c, 4, 31, 0
6, 2048, Note_on_c, 4, 43, 96
6, 4096, Note_off_c, 4, 43, 0
6, 4096, Note_on_c, 4, 45, 96
6, 6144, Note_off_c, 4, 45, 0
6, 6144, Note_on_c, 4, 47, 96
6, 8192, Note_off_c, 4, 47, 0
6, 9216, Note_on_c, 4, 35, 96
6, 10240, Note_off_c, 4, 35, 0
6, 10240, Note_on_c, 4, 36, 96
6, 11264, Note_off_c, 4, 36, 0
6, 11264, Note_on_c, 4, 38, 96
6, 12288, Note_off_c, 4, 38, 0
6, 12288, Note_on_c, 4, 40, 96
6, 13312, Note_off_c, 4, 40, 0
6, 13312, Note_on_c, 4, 35, 96
6, 14336, Note_off_c, 4, 35, 0
6, 14336, Note_on_c, 4, 36, 96
6, 15360, Note_off_c, 4, 36, 0
6, 15360, Note_on_c, 4, 33, 96
6, 16384, Note_off_c, 4, 33, 0
6, 16384, Note_on_c, 4, 38, 96
6, 17408, Note_off_c, 4, 38, 0
6, 17408, Note_on_c, 4, 26, 96
6, 18432, Note_off_c, 4, 26, 0
6, 18432, Note_on_c, 4, 31, 96
6, 20480, Note_off_c, 4, 31, 0
6, 20480, Note_on_c, 4, 38, 96
6, 22528, Note_off_c, 4, 38, 0
6, 22528, Note_on_c, 4, 40, 96
6, 24576, Note_off_c, 4, 40, 0
6, 24576, Note_on_c, 4, 42, 96
6, 26624, Note_off_c, 4, 42, 0
6, 27648, Note_on_c, 4, 42, 96
6, 28672, Note_off_c, 4, 42, 0
6, 28672, Note_on_c, 4, 43, 96
6, 29696, Note_off_c, 4, 43, 0
6, 29696, Note_on_c, 4, 45, 96
6, 30720, Note_off_c, 4, 45, 0
6, 30720, Note_on_c, 4, 47, 96
6, 31744, Note_off_c, 4, 47, 0
6, 31744, Note_on_c, 4, 42, 96
6, 32768, Note_off_c, 4, 42, 0
6, 32768, Note_on_c, 4, 43, 96
6, 33792, Note_off_c, 4, 43, 0
6, 33792, Note_on_c, 4, 40, 96
6, 34816, Note_off_c, 4, 40, 0
6, 34816, Note_on_c, 4, 45, 96
6, 35840, Note_off_c, 4, 45, 0
6, 35840, Note_on_c, 4, 33, 96
6, 36864, Note_off_c, 4, 33, 0
6, 36864, Note_on_c, 4, 38, 96
6, 38912, Note_off_c, 4, 38, 0
6, 49152, Note_on_c, 4, 31, 96
6, 51200, Note_off_c, 4, 31, 0
6, 51200, Note_on_c, 4, 35, 96
6, 53248, Note_off_c, 4, 35, 0
6, 53248, Note_on_c, 4, 36, 96
6, 55296, Note_off_c, 4, 36, 0
6, 55296, Note_on_c, 4, 38, 96
6, 59392, Note_off_c, 4, 38, 0
6, 59392, Note_on_c, 4, 36, 96
6, 61440, Note_off_c, 4, 36, 0
6, 61440, Note_on_c, 4, 35, 96
6, 65536, Note_off_c, 4, 35, 0
6, 65536, Note_on_c, 4, 33, 96
6, 67584, Note_off_c, 4, 33, 0
6, 67584, Note_on_c, 4, 35, 96
6, 69632, Note_off_c, 4, 35, 0
6, 70656, Note_on_c, 4, 35, 96
6, 71680, Note_off_c, 4, 35, 0
6, 71680, Note_on_c, 4, 36, 96
6, 72704, Note_off_c, 4, 36, 0
6, 72704, Note_on_c, 4, 38, 96
6, 73728, Note_off_c, 4, 38, 0
6, 73728, Note_on_c, 4, 40, 96
6, 74752, Note_off_c, 4, 40, 0
6, 74752, Note_on_c, 4, 35, 96
6, 75776, Note_off_c, 4, 35, 0
6, 75776, Note_on_c, 4, 36, 96
6, 76800, Note_off_c, 4, 36, 0
6, 76800, Note_on_c, 4, 33, 96
6, 77824, Note_off_c, 4, 33, 0
6, 77824, Note_on_c, 4, 38, 96
6, 78848, Note_off_c, 4, 38, 0
6, 78848, Note_on_c, 4, 26, 96
6, 79872, Note_off_c, 4, 26, 0
6, 79872, Note_on_c, 4, 31, 96
6, 96256, Note_off_c, 4, 31, 0
6, 100352, Note_on_c, 4, 43, 96
6, 102400, Note_off_c, 4, 43, 0
6, 102400, Note_on_c, 4, 45, 96
6, 104448, Note_off_c, 4, 45, 0
6, 104448, Note_on_c, 4, 47, 96
6, 106496, Note_off_c, 4, 47, 0
6, 106496, Note_on_c, 4, 45, 96
6, 108544, Note_off_c, 4, 45, 0
6, 108544, Note_on_c, 4, 43, 96
6, 110592, Note_off_c, 4, 43, 0
6, 110592, Note_on_c, 4, 48, 96
6, 112640, Note_off_c, 4, 48, 0
6, 116736, Note_on_c, 4, 33, 96
6, 118784, Note_off_c, 4, 33, 0
6, 118784, Note_on_c, 4, 35, 96
6, 120832, Note_off_c, 4, 35, 0
6, 120832, Note_on_c, 4, 36, 96
6, 122880, Note_off_c, 4, 36, 0
6, 122880, Note_on_c, 4, 38, 96
6, 124928, Note_off_c, 4, 38, 0
6, 125952, Note_on_c, 4, 42, 96
6, 126976, Note_off_c, 4, 42, 0
6, 126976, Note_on_c, 4, 43, 96
6, 128000, Note_off_c, 4, 43, 0
6, 128000, Note_on_c, 4, 39, 96
6, 129024, Note_off_c, 4, 39, 0
6, 129024, Note_on_c, 4, 40, 96
6, 130048, Note_off_c, 4, 40, 0
6, 130048, Note_on_c, 4, 35, 96
6, 131072, Note_off_c, 4, 35, 0
6, 131072, Note_on_c, 4, 36, 96
6, 133120, Note_off_c, 4, 36, 0
6, 133120, Note_on_c, 4, 37, 96
6, 135168, Note_off_c, 4, 37, 0
6, 135168, Note_on_c, 4, 35, 96
6, 136192, Note_off_c, 4, 35, 0
6, 136192, Note_on_c, 4, 47, 96
6, 137216, Note_off_c, 4, 47, 0
6, 137216, Note_on_c, 4, 45, 96
6, 138240, Note_off_c, 4, 45, 0
6, 138240, Note_on_c, 4, 43, 96
6, 139264, Note_off_c, 4, 43, 0
6, 139264, Note_on_c, 4, 42, 96
6, 140288, Note_off_c, 4, 42, 0
6, 140288, Note_on_c, 4, 40, 96
6, 141312, Note_off_c, 4, 40, 0
6, 141312, Note_on_c, 4, 39, 96
6, 143360, Note_off_c, 4, 39, 0
6, 144384, Note_on_c, 4, 39, 96
6, 145408, Note_off_c, 4, 39, 0
6, 145408, Note_on_c, 4, 40, 96
6, 146432, Note_off_c, 4, 40, 0
6, 146432, Note_on_c, 4, 43, 96
6, 146944, Note_off_c, 4, 43, 0
6, 146944, Note_on_c, 4, 40, 96
6, 147456, Note_off_c, 4, 40, 0
6, 147456, Note_on_c, 4, 45, 96
6, 148480, Note_off_c, 4, 45, 0
6, 148480, Note_on_c, 4, 43, 96
6, 149504, Note_off_c, 4, 43, 0
6, 149504, Note_on_c, 4, 42, 96
6, 150528, Note_off_c, 4, 42, 0
6, 150528, Note_on_c, 4, 43, 96
6, 151552, Note_off_c, 4, 43, 0
6, 151552, Note_on_c, 4, 45, 96
6, 152576, Note_off_c, 4, 45, 0
6, 152576, Note_on_c, 4, 47, 96
6, 153600, Note_off_c, 4, 47, 0
6, 153600, Note_on_c, 4, 48, 96
6, 154624, Note_off_c, 4, 48, 0
6, 154624, Note_on_c, 4, 36, 96
6, 155648, Note_off_c, 4, 36, 0
6, 155648, Note_on_c, 4, 31, 96
6, 156672, Note_off_c, 4, 31, 0
6, 156672, Note_on_c, 4, 33, 96
6, 157696, Note_off_c, 4, 33, 0
6, 157696, Note_on_c, 4, 35, 96
6, 159744, Note_off_c, 4, 35, 0
6, 159744, Note_on_c, 4, 28, 96
6, 161792, Note_off_c, 4, 28, 0
6, 161792, Note_on_c, 4, 31, 96
6, 163840, Note_off_c, 4, 31, 0
6, 163840, Note_on_c, 4, 35, 96
6, 165888, Note_off_c, 4, 35, 0
6, 165888, Note_on_c, 4, 40, 96
6, 167936, Note_off_c, 4, 40, 0
6, 167936, Note_on_c, 4, 28, 96
6, 169984, Note_off_c, 4, 28, 0
6, 172032, Note_on_c, 4, 33, 96
6, 174080, Note_off_c, 4, 33, 0
6, 174080, Note_on_c, 4, 35, 96
6, 176128, Note_off_c, 4, 35, 0
6, 176128, Note_on_c, 4, 36, 96
6, 178176, Note_off_c, 4, 36, 0
6, 178176, Note_on_c, 4, 38, 96
6, 180224, Note_off_c, 4, 38, 0
6, 181248, Note_on_c, 4, 31, 96
6, 182272, Note_off_c, 4, 31, 0
6, 182272, Note_on_c, 4, 33, 96
6, 183296, Note_off_c, 4, 33, 0
6, 183296, Note_on_c, 4, 35, 96
6, 184320, Note_off_c, 4, 35, 0
6, 184320, Note_on_c, 4, 36, 96
6, 186368, Note_off_c, 4, 36, 0
6, 190464, Note_on_c, 4, 35, 96
6, 192512, Note_off_c, 4, 35, 0
6, 194560, Note_on_c, 4, 33, 96
6, 196608, Note_off_c, 4, 33, 0
6, 196608, Note_on_c, 4, 31, 96
6, 197632, Note_off_c, 4, 31, 0
6, 197632, Note_on_c, 4, 36, 96
6, 198656, Note_off_c, 4, 36, 0
6, 198656, Note_on_c, 4, 38, 96
6, 200704, Note_off_c, 4, 38, 0
6, 200704, Note_on_c, 4, 26, 96
6, 202752, Note_off_c, 4, 26, 0
6, 202752, Note_on_c, 4, 31, 96
6, 204800, Note_off_c, 4, 31, 0
6, 204800, Note_on_c, 4, 43, 96
6, 206848, Note_off_c, 4, 43, 0
6, 206848, Note_on_c, 4, 45, 96
6, 208896, Note_off_c, 4, 45, 0
6, 208896, Note_on_c, 4, 47, 96
6, 210944, Note_off_c, 4, 47, 0
6, 211968, Note_on_c, 4, 35, 96
6, 212992, Note_off_c, 4, 35, 0
6, 212992, Note_on_c, 4, 36, 96
6, 214016, Note_off_c, 4, 36, 0
6, 214016, Note_on_c, 4, 38, 96
6, 215040, Note_off_c, 4, 38, 0
6, 215040, Note_on_c, 4, 40, 96
6, 216064, Note_off_c, 4, 40, 0
6, 216064, Note_on_c, 4, 35, 96
6, 217088, Note_off_c, 4, 35, 0
6, 217088, Note_on_c, 4, 36, 96
6, 218112, Note_off_c, 4, 36, 0
6, 218112, Note_on_c, 4, 33, 96
6, 219136, Note_off_c, 4, 33, 0
6, 219136, Note_on_c, 4, 38, 96
6, 220160, Note_off_c, 4, 38, 0
6, 220160, Note_on_c, 4, 26, 96
6, 221184, Note_off_c, 4, 26, 0
6, 221184, Note_on_c, 4, 31, 96
6, 223232, Note_off_c, 4, 31, 0
6, 223232, Note_on_c, 4, 38, 96
6, 225280, Note_off_c, 4, 38, 0
6, 225280, Note_on_c, 4, 40, 96
6, 227328, Note_off_c, 4, 40, 0
6, 227328, Note_on_c, 4, 42, 96
6, 229376, Note_off_c, 4, 42, 0
6, 230400, Note_on_c, 4, 42, 96
6, 231424, Note_off_c, 4, 42, 0
6, 231424, Note_on_c, 4, 43, 96
6, 232448, Note_off_c, 4, 43, 0
6, 232448, Note_on_c, 4, 45, 96
6, 233472, Note_off_c, 4, 45, 0
6, 233472, Note_on_c, 4, 47, 96
6, 234496, Note_off_c, 4, 47, 0
6, 234496, Note_on_c, 4, 42, 96
6, 235520, Note_off_c, 4, 42, 0
6, 235520, Note_on_c, 4, 43, 96
6, 236544, Note_off_c, 4, 43, 0
6, 236544, Note_on_c, 4, 40, 96
6, 237568, Note_off_c, 4, 40, 0
6, 237568, Note_on_c, 4, 45, 96
6, 238592, Note_off_c, 4, 45, 0
6, 238592, Note_on_c, 4, 33, 96
6, 239616, Note_off_c, 4, 33, 0
6, 239616, Note_on_c, 4, 38, 96
6, 241664, Note_off_c, 4, 38, 0
6, 251904, Note_on_c, 4, 31, 96
6, 253952, Note_off_c, 4, 31, 0
6, 253952, Note_on_c, 4, 35, 96
6, 256000, Note_off_c, 4, 35, 0
6, 256000, Note_on_c, 4, 36, 96
6, 258048, Note_off_c, 4, 36, 0
6, 258048, Note_on_c, 4, 38, 96
6, 262144, Note_off_c, 4, 38, 0
6, 262144, Note_on_c, 4, 36, 96
6, 264192, Note_off_c, 4, 36, 0
6, 264192, Note_on_c, 4, 35, 96
6, 268288, Note_off_c, 4, 35, 0
6, 268288, Note_on_c, 4, 33, 96
6, 270336, Note_off_c, 4, 33, 0
6, 270336, Note_on_c, 4, 35, 96
6, 272384, Note_off_c, 4, 35, 0
6, 273408, Note_on_c, 4, 35, 96
6, 274432, Note_off_c, 4, 35, 0
6, 274432, Note_on_c, 4, 36, 96
6, 275456, Note_off_c, 4, 36, 0
6, 275456, Note_on_c, 4, 38, 96
6, 276480, Note_off_c, 4, 38, 0
6, 276480, Note_on_c, 4, 40, 96
6, 277504, Note_off_c, 4, 40, 0
6, 277504, Note_on_c, 4, 35, 96
6, 278528, Note_off_c, 4, 35, 0
6, 278528, Note_on_c, 4, 36, 96
6, 279552, Note_off_c, 4, 36, 0
6, 279552, Note_on_c, 4, 33, 96
6, 280576, Note_off_c, 4, 33, 0
6, 280576, Note_on_c, 4, 38, 96
6, 281600, Note_off_c, 4, 38, 0
6, 281600, Note_on_c, 4, 26, 96
6, 282624, Note_off_c, 4, 26, 0
6, 282624, Note_on_c, 4, 31, 96
6, 299008, Note_off_c, 4, 31, 0
6, 303104, Note_on_c, 4, 43, 96
6, 305152, Note_off_c, 4, 43, 0
6, 305152, Note_on_c, 4, 45, 96
6, 307200, Note_off_c, 4, 45, 0
6, 307200, Note_on_c, 4, 47, 96
6, 309248, Note_off_c, 4, 47, 0
6, 309248, Note_on_c, 4, 45, 96
6, 311296, Note_off_c, 4, 45, 0
6, 311296, Note_on_c, 4, 43, 96
6, 313344, Note_off_c, 4, 43, 0
6, 313344, Note_on_c, 4, 48, 96
6, 315392, Note_off_c, 4, 48, 0
6, 319488, Note_on_c, 4, 33, 96
6, 321536, Note_off_c, 4, 33, 0
6, 321536, Note_on_c, 4, 35, 96
6, 323584, Note_off_c, 4, 35, 0
6, 323584, Note_on_c, 4, 36, 96
6, 325632, Note_off_c, 4, 36, 0
6, 325632, Note_on_c, 4, 38, 96
6, 327680, Note_off_c, 4, 38, 0
6, 328704, Note_on_c, 4, 42, 96
6, 329728, Note_off_c, 4, 42, 0
6, 329728, Note_on_c, 4, 43, 96
6, 330752, Note_off_c, 4, 43, 0
6, 330752, Note_on_c, 4, 39, 96
6, 331776, Note_off_c, 4, 39, 0
6, 331776, Note_on_c, 4, 40, 96
6, 332800, Note_off_c, 4, 40, 0
6, 332800, Note_on_c, 4, 35, 96
6, 333824, Note_off_c, 4, 35, 0
6, 333824, Note_on_c, 4, 36, 96
6, 335872, Note_off_c, 4, 36, 0
6, 335872, Note_on_c, 4, 37, 96
6, 337920, Note_off_c, 4, 37, 0
6, 337920, Note_on_c, 4, 35, 96
6, 338944, Note_off_c, 4, 35, 0
6, 338944, Note_on_c, 4, 47, 96
6, 339968, Note_off_c, 4, 47, 0
6, 339968, Note_on_c, 4, 45, 96
6, 340992, Note_off_c, 4, 45, 0
6, 340992, Note_on_c, 4, 43, 96
6, 342016, Note_off_c, 4, 43, 0
6, 342016, Note_on_c, 4, 42, 96
6, 343040, Note_off_c, 4, 42, 0
6, 343040, Note_on_c, 4, 40, 96
6, 344064, Note_off_c, 4, 40, 0
6, 344064, Note_on_c, 4, 39, 96
6, 346112, Note_off_c, 4, 39, 0
6, 347136, Note_on_c, 4, 39, 96
6, 348160, Note_off_c, 4, 39, 0
6, 348160, Note_on_c, 4, 40, 96
6, 349184, Note_off_c, 4, 40, 0
6, 349184, Note_on_c, 4, 43, 96
6, 349696, Note_off_c, 4, 43, 0
6, 349696, Note_on_c, 4, 40, 96
6, 350208, Note_off_c, 4, 40, 0
6, 350208, Note_on_c, 4, 45, 96
6, 351232, Note_off_c, 4, 45, 0
6, 351232, Note_on_c, 4, 43, 96
6, 352256, Note_off_c, 4, 43, 0
6, 352256, Note_on_c, 4, 42, 96
6, 353280, Note_off_c, 4, 42, 0
6, 353280, Note_on_c, 4, 43, 96
6, 354304, Note_off_c, 4, 43, 0
6, 354304, Note_on_c, 4, 45, 96
6, 355328, Note_off_c, 4, 45, 0
6, 355328, Note_on_c, 4, 47, 96
6, 356352, Note_off_c, 4, 47, 0
6, 356352, Note_on_c, 4, 48, 96
6, 357376, Note_off_c, 4, 48, 0
6, 357376, Note_on_c, 4, 36, 96
6, 358400, Note_off_c, 4, 36, 0
6, 358400, Note_on_c, 4, 31, 96
6, 359424, Note_off_c, 4, 31, 0
6, 359424, Note_on_c, 4, 33, 96
6, 360448, Note_off_c, 4, 33, 0
6, 360448, Note_on_c, 4, 35, 96
6, 362496, Note_off_c, 4, 35, 0
6, 362496, Note_on_c, 4, 28, 96
6, 364544, Note_off_c, 4, 28, 0
6, 364544, Note_on_c, 4, 31, 96
6, 366592, Note_off_c, 4, 31, 0
6, 366592, Note_on_c, 4, 35, 96
6, 368640, Note_off_c, 4, 35, 0
6, 368640, Note_on_c, 4, 40, 96
6, 370688, Note_off_c, 4, 40, 0
6, 370688, Note_on_c, 4, 28, 96
6, 372736, Note_off_c, 4, 28, 0
6, 374784, Note_on_c, 4, 33, 96
6, 376832, Note_off_c, 4, 33, 0
6, 376832, Note_on_c, 4, 35, 96
6, 378880, Note_off_c, 4, 35, 0
6, 378880, Note_on_c, 4, 36, 96
6, 380928, Note_off_c, 4, 36, 0
6, 380928, Note_on_c, 4, 38, 96
6, 382976, Note_off_c, 4, 38, 0
6, 384000, Note_on_c, 4, 31, 96
6, 385024, Note_off_c, 4, 31, 0
6, 385024, Note_on_c, 4, 33, 96
6, 386048, Note_off_c, 4, 33, 0
6, 386048, Note_on_c, 4, 35, 96
6, 387072, Note_off_c, 4, 35, 0
6, 387072, Note_on_c, 4, 36, 96
6, 389120, Note_off_c, 4, 36, 0
6, 393216, Note_on_c, 4, 35, 96
6, 395264, Note_off_c, 4, 35, 0
6, 397312, Note_on_c, 4, 33, 96
6, 399360, Note_off_c, 4, 33, 0
6, 399360, Note_on_c, 4, 31, 96
6, 400384, Note_off_c, 4, 31, 0
6, 400384, Note_on_c, 4, 36, 96
6, 401408, Note_off_c, 4, 36, 0
6, 401408, Note_on_c, 4, 38, 96
6, 403456, Note_off_c, 4, 38, 0
6, 403456, Note_on_c, 4, 26, 96
6, 405504, Note_off_c, 4, 26, 0
6, 405504, Note_on_c, 4, 31, 96
6, 417792, Note_off_c, 4, 31, 0
6, 417792, Note_on_c, 4, 43, 96
6, 419840, Note_off_c, 4, 43, 0
6, 419840, Note_on_c, 4, 45, 96
6, 421888, Note_off_c, 4, 45, 0
6, 421888, Note_on_c, 4, 47, 96
6, 423936, Note_off_c, 4, 47, 0
6, 423936, Note_on_c, 4, 48, 96
6, 428032, Note_off_c, 4, 48, 0
6, 428032, Note_on_c, 4, 47, 96
6, 430080, Note_off_c, 4, 47, 0
6, 430080, Note_on_c, 4, 45, 96
6, 434176, Note_off_c, 4, 45, 0
6, 434176, Note_on_c, 4, 44, 96
6, 436224, Note_off_c, 4, 44, 0
6, 436224, Note_on_c, 4, 45, 96
6, 438272, Note_off_c, 4, 45, 0
6, 438272, Note_on_c, 4, 38, 96
6, 440320, Note_off_c, 4, 38, 0
6, 440320, Note_on_c, 4, 40, 96
6, 442368, Note_off_c, 4, 40, 0
6, 442368, Note_on_c, 4, 33, 96
6, 444416, Note_off_c, 4, 33, 0
6, 444416, Note_on_c, 4, 35, 96
6, 446464, Note_off_c, 4, 35, 0
6, 446464, Note_on_c, 4, 37, 96
6, 448512, Note_off_c, 4, 37, 0
6, 448512, Note_on_c, 4, 38, 96
6, 454144, Note_off_c, 4, 38, 0
6, 454656, Note_on_c, 4, 35, 96
6, 458752, Note_off_c, 4, 35, 0
6, 458752, Note_on_c, 4, 33, 96
6, 460800, Note_off_c, 4, 33, 0
6, 460800, Note_on_c, 4, 35, 96
6, 462848, Note_off_c, 4, 35, 0
6, 462848, Note_on_c, 4, 40, 96
6, 464896, Note_off_c, 4, 40, 0
6, 464896, Note_on_c, 4, 42, 96
6, 466944, Note_off_c, 4, 42, 0
6, 466944, Note_on_c, 4, 35, 96
6, 468992, Note_off_c, 4, 35, 0
6, 468992, Note_on_c, 4, 37, 96
6, 471040, Note_off_c, 4, 37, 0
6, 471040, Note_on_c, 4, 39, 96
6, 473088, Note_off_c, 4, 39, 0
6, 473088, Note_on_c, 4, 40, 96
6, 477184, Note_off_c, 4, 40, 0
6, 477184, Note_on_c, 4, 38, 96
6, 479232, Note_off_c, 4, 38, 0
6, 479232, Note_on_c, 4, 36, 96
6, 483328, Note_off_c, 4, 36, 0
6, 483328, Note_on_c, 4, 35, 96
6, 485376, Note_off_c, 4, 35, 0
6, 485376, Note_on_c, 4, 33, 96
6, 487424, Note_off_c, 4, 33, 0
6, 487424, Note_on_c, 4, 35, 96
6, 489472, Note_off_c, 4, 35, 0
6, 489472, Note_on_c, 4, 36, 96
6, 491520, Note_off_c, 4, 36, 0
6, 491520, Note_on_c, 4, 38, 96
6, 493568, Note_off_c, 4, 38, 0
6, 494592, Note_on_c, 4, 31, 96
6, 495616, Note_off_c, 4, 31, 0
6, 495616, Note_on_c, 4, 33, 96
6, 496640, Note_off_c, 4, 33, 0
6, 496640, Note_on_c, 4, 35, 96
6, 497664, Note_off_c, 4, 35, 0
6, 497664, Note_on_c, 4, 36, 96
6, 499712, Note_off_c, 4, 36, 0
6, 500736, Note_on_c, 4, 36, 96
6, 501760, Note_off_c, 4, 36, 0
6, 501760, Note_on_c, 4, 38, 96
6, 502784, Note_off_c, 4, 38, 0
6, 502784, Note_on_c, 4, 40, 96
6, 503808, Note_off_c, 4, 40, 0
6, 503808, Note_on_c, 4, 41, 96
6, 505856, Note_off_c, 4, 41, 0
6, 506880, Note_on_c, 4, 40, 96
6, 507904, Note_off_c, 4, 40, 0
6, 507904, Note_on_c, 4, 38, 96
6, 508928, Note_off_c, 4, 38, 0
6, 508928, Note_on_c, 4, 36, 96
6, 509952, Note_off_c, 4, 36, 0
6, 509952, Note_on_c, 4, 35, 96
6, 510976, Note_off_c, 4, 35, 0
6, 510976, Note_on_c, 4, 33, 96
6, 512000, Note_off_c, 4, 33, 0
6, 512000, Note_on_c, 4, 40, 96
6, 514048, Note_off_c, 4, 40, 0
6, 514048, Note_on_c, 4, 28, 96
6, 516096, Note_off_c, 4, 28, 0
6, 516096, Note_on_c, 4, 33, 96
6, 518144, Note_off_c, 4, 33, 0
6, 518144, Note_on_c, 4, 35, 96
6, 520192, Note_off_c, 4, 35, 0
6, 520192, Note_on_c, 4, 37, 96
6, 522240, Note_off_c, 4, 37, 0
6, 522240, Note_on_c, 4, 38, 96
6, 527872, Note_off_c, 4, 38, 0
6, 528384, Note_on_c, 4, 40, 96
6, 530432, Note_off_c, 4, 40, 0
6, 530432, Note_on_c, 4, 42, 96
6, 532480, Note_off_c, 4, 42, 0
6, 532480, Note_on_c, 4, 44, 96
6, 534528, Note_off_c, 4, 44, 0
6, 534528, Note_on_c, 4, 45, 96
6, 536576, Note_off_c, 4, 45, 0
6, 536576, Note_on_c, 4, 47, 96
6, 538624, Note_off_c, 4, 47, 0
6, 538624, Note_on_c, 4, 48, 96
6, 540672, Note_off_c, 4, 48, 0
6, 540672, Note_on_c, 4, 38, 96
6, 542720, Note_off_c, 4, 38, 0
6, 542720, Note_on_c, 4, 40, 96
6, 544768, Note_off_c, 4, 40, 0
6, 544768, Note_on_c, 4, 28, 96
6, 546816, Note_off_c, 4, 28, 0
6, 546816, Note_on_c, 4, 33, 96
6, 548864, Note_off_c, 4, 33, 0
6, 552960, Note_on_c, 4, 38, 96
6, 553984, Note_off_c, 4, 38, 0
6, 553984, Note_on_c, 4, 36, 96
6, 555008, Note_off_c, 4, 36, 0
6, 555008, Note_on_c, 4, 35, 96
6, 557056, Note_off_c, 4, 35, 0
6, 557056, Note_on_c, 4, 33, 96
6, 559104, Note_off_c, 4, 33, 0
6, 559104, Note_on_c, 4, 31, 96
6, 561152, Note_off_c, 4, 31, 0
6, 561152, Note_on_c, 4, 33, 96
6, 563200, Note_off_c, 4, 33, 0
6, 563200, Note_on_c, 4, 35, 96
6, 565248, Note_off_c, 4, 35, 0
6, 565248, Note_on_c, 4, 28, 96
6, 567296, Note_off_c, 4, 28, 0
6, 568320, Note_on_c, 4, 33, 96
6, 569344, Note_off_c, 4, 33, 0
6, 569344, Note_on_c, 4, 35, 96
6, 570368, Note_off_c, 4, 35, 0
6, 570368, Note_on_c, 4, 36, 96
6, 571392, Note_off_c, 4, 36, 0
6, 571392, Note_on_c, 4, 26, 96
6, 573440, Note_off_c, 4, 26, 0
6, 574464, Note_on_c, 4, 31, 96
6, 575488, Note_off_c, 4, 31, 0
6, 575488, Note_on_c, 4, 33, 96
6, 576512, Note_off_c, 4, 33, 0
6, 576512, Note_on_c, 4, 35, 96
6, 577536, Note_off_c, 4, 35, 0
6, 577536, Note_on_c, 4, 24, 96
6, 579584, Note_off_c, 4, 24, 0
6, 589824, Note_on_c, 4, 37, 96
6, 591872, Note_off_c, 4, 37, 0
6, 591872, Note_on_c, 4, 42, 96
6, 593920, Note_off_c, 4, 42, 0
6, 593920, Note_on_c, 4, 40, 96
6, 595968, Note_off_c, 4, 40, 0
6, 595968, Note_on_c, 4, 39, 96
6, 598016, Note_off_c, 4, 39, 0
6, 598016, Note_on_c, 4, 40, 96
6, 600064, Note_off_c, 4, 40, 0
6, 600064, Note_on_c, 4, 42, 96
6, 602112, Note_off_c, 4, 42, 0
6, 602112, Note_on_c, 4, 43, 96
6, 604160, Note_off_c, 4, 43, 0
6, 604160, Note_on_c, 4, 45, 96
6, 606208, Note_off_c, 4, 45, 0
6, 606208, Note_on_c, 4, 47, 96
6, 608256, Note_off_c, 4, 47, 0
6, 608256, Note_on_c, 4, 48, 96
6, 609280, Note_off_c, 4, 48, 0
6, 609280, Note_on_c, 4, 47, 96
6, 610304, Note_off_c, 4, 47, 0
6, 610304, Note_on_c, 4, 45, 96
6, 611328, Note_off_c, 4, 45, 0
6, 611328, Note_on_c, 4, 43, 96
6, 612352, Note_off_c, 4, 43, 0
6, 612352, Note_on_c, 4, 42, 96
6, 613376, Note_off_c, 4, 42, 0
6, 613376, Note_on_c, 4, 47, 96
6, 614400, Note_off_c, 4, 47, 0
6, 614400, Note_on_c, 4, 40, 96
6, 615424, Note_off_c, 4, 40, 0
6, 615424, Note_on_c, 4, 43, 96
6, 616448, Note_off_c, 4, 43, 0
6, 616448, Note_on_c, 4, 45, 96
6, 617472, Note_off_c, 4, 45, 0
6, 617472, Note_on_c, 4, 42, 96
6, 618496, Note_off_c, 4, 42, 0
6, 618496, Note_on_c, 4, 47, 96
6, 619520, Note_off_c, 4, 47, 0
6, 619520, Note_on_c, 4, 35, 96
6, 620544, Note_off_c, 4, 35, 0
6, 620544, Note_on_c, 4, 40, 96
6, 622592, Note_off_c, 4, 40, 0
6, 622592, Note_on_c, 4, 42, 96
6, 624640, Note_off_c, 4, 42, 0
6, 624640, Note_on_c, 4, 44, 96
6, 626688, Note_off_c, 4, 44, 0
6, 626688, Note_on_c, 4, 45, 96
6, 628736, Note_off_c, 4, 45, 0
6, 632832, Note_on_c, 4, 38, 96
6, 634880, Note_off_c, 4, 38, 0
6, 634880, Note_on_c, 4, 40, 96
6, 636928, Note_off_c, 4, 40, 0
6, 636928, Note_on_c, 4, 42, 96
6, 638976, Note_off_c, 4, 42, 0
6, 638976, Note_on_c, 4, 43, 96
6, 641024, Note_off_c, 4, 43, 0
6, 645120, Note_on_c, 4, 31, 96
6, 647168, Note_off_c, 4, 31, 0
6, 647168, Note_on_c, 4, 33, 96
6, 649216, Note_off_c, 4, 33, 0
6, 649216, Note_on_c, 4, 35, 96
6, 651264, Note_off_c, 4, 35, 0
6, 651264, Note_on_c, 4, 36, 96
6, 653312, Note_off_c, 4, 36, 0
6, 657408, Note_on_c, 4, 33, 96
6, 659456, Note_off_c, 4, 33, 0
6, 659456, Note_on_c, 4, 35, 96
6, 661504, Note_off_c, 4, 35, 0
6, 661504, Note_on_c, 4, 36, 96
6, 663552, Note_off_c, 4, 36, 0
6, 663552, Note_on_c, 4, 38, 96
6, 665600, Note_off_c, 4, 38, 0
6, 667648, Note_on_c, 4, 39, 96
6, 669696, Note_off_c, 4, 39, 0
6, 669696, Note_on_c, 4, 40, 96
6, 671744, Note_off_c, 4, 40, 0
6, 675840, Note_on_c, 4, 35, 96
6, 677888, Note_off_c, 4, 35, 0
6, 681984, Note_on_c, 4, 36, 96
6, 684032, Note_off_c, 4, 36, 0
6, 688128, Note_on_c, 4, 31, 96
6, 690176, Note_off_c, 4, 31, 0
6, 696320, Note_on_c, 4, 32, 96
6, 698368, Note_off_c, 4, 32, 0
6, 698368, Note_on_c, 4, 28, 96
6, 700416, Note_off_c, 4, 28, 0
6, 700416, Note_on_c, 4, 33, 96
6, 702464, Note_off_c, 4, 33, 0
6, 708608, Note_on_c, 4, 38, 96
6, 710656, Note_off_c, 4, 38, 0
6, 710656, Note_on_c, 4, 36, 96
6, 712704, Note_off_c, 4, 36, 0
6, 712704, Note_on_c, 4, 35, 96
6, 714752, Note_off_c, 4, 35, 0
6, 714752, Note_on_c, 4, 33, 96
6, 716800, Note_off_c, 4, 33, 0
6, 716800, Note_on_c, 4, 35, 96
6, 718848, Note_off_c, 4, 35, 0
6, 718848, Note_on_c, 4, 36, 96
6, 720896, Note_off_c, 4, 36, 0
6, 724992, Note_on_c, 4, 38, 96
6, 727040, Note_off_c, 4, 38, 0
6, 731136, Note_on_c, 4, 40, 96
6, 733184, Note_off_c, 4, 40, 0
6, 733184, Note_on_c, 4, 38, 96
6, 735232, Note_off_c, 4, 38, 0
6, 735232, Note_on_c, 4, 36, 96
6, 737280, Note_off_c, 4, 36, 0
6, 737280, Note_on_c, 4, 43, 96
6, 749568, Note_off_c, 4, 43, 0
6, 749568, Note_on_c, 4, 31, 96
6, 778240, Note_off_c, 4, 31, 0
6, 778241, End_track
0, 0, End_of_file
