0, 0, Header, 1, 5, 1024
1, 0, Start_track
1, 0, Time_signature, 3, 2, 24, 8
1, 0, Key_signature, 1, "major"
1, 0, Tempo, 576923
1, 61441, End_track
2, 0, Start_track
2, 0, Title_t, "Instrument 1"
2, 2048, Note_on_c, 0, 67, 96
2, 3072, Note_off_c, 0, 67, 0
2, 3072, Note_on_c, 0, 71, 96
2, 5120, Note_off_c, 0, 71, 0
2, 5120, Note_on_c, 0, 69, 96
2, 6144, Note_off_c, 0, 69, 0
2, 6144, Note_on_c, 0, 71, 96
2, 8192, Note_off_c, 0, 71, 0
2, 8192, Note_on_c, 0, 72, 96
2, 9216, Note_off_c, 0, 72, 0
2, 9216, Note_on_c, 0, 74, 96
2, 12288, Note_off_c, 0, 74, 0
2, 12288, Note_on_c, 0, 71, 96
2, 14336, Note_off_c, 0, 71, 0
2, 15360, Note_on_c, 0, 76, 96
2, 21504, Note_off_c, 0, 76, 0
2, 21504, Note_on_c, 0, 74, 96
2, 27648, Note_off_c, 0, 74, 0
2, 27648, Note_on_c, 0, 72, 96
2, 31232, Note_off_c, 0, 72, 0
2, 31232, Note_on_c, 0, 71, 96
2, 31744, Note_off_c, 0, 71, 0
2, 31744, Note_on_c, 0, 72, 96
2, 32768, Note_off_c, 0, 72, 0
2, 33792, Note_on_c, 0, 71, 96
2, 34816, Note_off_c, 0, 71, 0
2, 34816, Note_on_c, 0, 76, 96
2, 35328, Note_off_c, 0, 76, 0
2, 35328, Note_on_c, 0, 72, 96
2, 35840, Note_off_c, 0, 72, 0
2, 35840, Note_on_c, 0, 69, 96
2, 36864, Note_off_c, 0, 69, 0
2, 36864, Note_on_c, 0, 71, 96
2, 38912, Note_off_c, 0, 71, 0
2, 38912, Note_on_c, 0, 74, 96
2, 39936, Note_off_c, 0, 74, 0
2, 39936, Note_on_c, 0, 76, 96
2, 41984, Note_off_c, 0, 76, 0
2, 41984, Note_on_c, 0, 78, 96
2, 43008, Note_off_c, 0, 78, 0
2, 43008, Note_on_c, 0, 79, 96
2, 45056, Note_off_c, 0, 79, 0
2, 45056, Note_on_c, 0, 78, 96
2, 46080, Note_off_c, 0, 78, 0
2, 46080, Note_on_c, 0, 76, 96
2, 49152, Note_off_c, 0, 76, 0
2, 49152, Note_on_c, 0, 74, 96
2, 51200, Note_off_c, 0, 74, 0
2, 51200, Note_on_c, 0, 71, 96
2, 52224, Note_off_c, 0, 71, 0
2, 52224, Note_on_c, 0, 69, 96
2, 54272, Note_off_c, 0, 69, 0
2, 54272, Note_on_c, 0, 67, 96
2, 55296, Note_off_c, 0, 67, 0
2, 55296, Note_on_c, 0, 67, 96
2, 57344, Note_off_c, 0, 67, 0
2, 57344, Note_on_c, 0, 66, 96
2, 58368, Note_off_c, 0, 66, 0
2, 58368, Note_on_c, 0, 67, 96
2, 61440, Note_off_c, 0, 67, 0
2, 61441, End_track
3, 0, Start_track
3, 0, Title_t, "Instrument 2"
3, 2048, Note_on_c, 1, 62, 96
3, 3072, Note_off_c, 1, 62, 0
3, 3072, Note_on_c, 1, 67, 96
3, 5120, Note_off_c, 1, 67, 0
3, 5120, Note_on_c, 1, 66, 96
3, 6144, Note_off_c, 1, 66, 0
3, 6144, Note_on_c, 1, 67, 96
3, 8192, Note_off_c, 1, 67, 0
3, 8192, Note_on_c, 1, 67, 96
3, 9216, Note_off_c, 1, 67, 0
3, 9216, Note_on_c, 1, 67, 96
3, 10752, Note_off_c, 1, 67, 0
3, 10752, Note_on_c, 1, 66, 96
3, 11008, Note_off_c, 1, 66, 0
3, 11008, Note_on_c, 1, 64, 96
3, 11264, Note_off_c, 1, 64, 0
3, 11264, Note_on_c, 1, 66, 96
3, 12288, Note_off_c, 1, 66, 0
3, 12288, Note_on_c, 1, 62, 96
3, 14336, Note_off_c, 1, 62, 0
3, 18432, Note_on_c, 1, 65, 96
3, 27648, Note_off_c, 1, 65, 0
3, 27648, Note_on_c, 1, 64, 96
3, 30720, Note_off_c, 1, 64, 0
3, 30720, Note_on_c, 1, 66, 96
3, 31744, Note_off_c, 1, 66, 0
3, 31744, Note_on_c, 1, 66, 96
3, 32768, Note_off_c, 1, 66, 0
3, 33792, Note_on_c, 1, 67, 96
3, 34304, Note_off_c, 1, 67, 0
3, 34304, Note_on_c, 1, 66, 96
3, 34816, Note_off_c, 1, 66, 0
3, 34816, Note_on_c, 1, 64, 96
3, 35840, Note_off_c, 1, 64, 0
3, 35840, Note_on_c, 1, 66, 96
3, 36352, Note_off_c, 1, 66, 0
3, 36352, Note_on_c, 1, 64, 96
3, 36864, Note_off_c, 1, 64, 0
3, 36864, Note_on_c, 1, 63, 96
3, 38912, Note_off_c, 1, 63, 0
3, 38912, Note_on_c, 1, 67, 96
3, 39936, Note_off_c, 1, 67, 0
3, 39936, Note_on_c, 1, 67, 96
3, 41984, Note_off_c, 1, 67, 0
3, 41984, Note_on_c, 1, 69, 96
3, 43008, Note_off_c, 1, 69, 0
3, 43008, Note_on_c, 1, 71, 96
3, 45056, Note_off_c, 1, 71, 0
3, 45056, Note_on_c, 1, 69, 96
3, 46080, Note_off_c, 1, 69, 0
3, 46080, Note_on_c, 1, 71, 96
3, 46592, Note_off_c, 1, 71, 0
3, 46592, Note_on_c, 1, 69, 96
3, 47104, Note_off_c, 1, 69, 0
3, 47104, Note_on_c, 1, 67, 96
3, 48640, Note_off_c, 1, 67, 0
3, 48640, Note_on_c, 1, 69, 96
3, 48896, Note_off_c, 1, 69, 0
3, 48896, Note_on_c, 1, 67, 96
3, 49152, Note_off_c, 1, 67, 0
3, 49152, Note_on_c, 1, 66, 96
3, 51200, Note_off_c, 1, 66, 0
3, 51200, Note_on_c, 1, 67, 96
3, 52224, Note_off_c, 1, 67, 0
3, 52224, Note_on_c, 1, 67, 96
3, 53248, Note_off_c, 1, 67, 0
3, 53248, Note_on_c, 1, 66, 96
3, 54272, Note_off_c, 1, 66, 0
3, 54272, Note_on_c, 1, 64, 96
3, 55296, Note_off_c, 1, 64, 0
3, 55296, Note_on_c, 1, 64, 96
3, 56320, Note_off_c, 1, 64, 0
3, 56320, Note_on_c, 1, 62, 96
3, 58368, Note_off_c, 1, 62, 0
3, 58368, Note_on_c, 1, 62, 96
3, 61440, Note_off_c, 1, 62, 0
3, 61441, End_track
4, 0, Start_track
4, 0, Title_t, "Instrument 3"
4, 2048, Note_on_c, 2, 59, 96
4, 3072, Note_off_c, 2, 59, 0
4, 3072, Note_on_c, 2, 62, 96
4, 5120, Note_off_c, 2, 62, 0
4, 5120, Note_on_c, 2, 62, 96
4, 6144, Note_off_c, 2, 62, 0
4, 6144, Note_on_c, 2, 62, 96
4, 8192, Note_off_c, 2, 62, 0
4, 8192, Note_on_c, 2, 60, 96
4, 9216, Note_off_c, 2, 60, 0
4, 9216, Note_on_c, 2, 59, 96
4, 10752, Note_off_c, 2, 59, 0
4, 10752, Note_on_c, 2, 57, 96
4, 11008, Note_off_c, 2, 57, 0
4, 11008, Note_on_c, 2, 55, 96
4, 11264, Note_off_c, 2, 55, 0
4, 11264, Note_on_c, 2, 57, 96
4, 12288, Note_off_c, 2, 57, 0
4, 12288, Note_on_c, 2, 55, 96
4, 14336, Note_off_c, 2, 55, 0
4, 21504, Note_on_c, 2, 56, 96
4, 27648, Note_off_c, 2, 56, 0
4, 27648, Note_on_c, 2, 57, 96
4, 31744, Note_off_c, 2, 57, 0
4, 31744, Note_on_c, 2, 57, 96
4, 32768, Note_off_c, 2, 57, 0
4, 33792, Note_on_c, 2, 55, 96
4, 34304, Note_off_c, 2, 55, 0
4, 34304, Note_on_c, 2, 59, 96
4, 34816, Note_off_c, 2, 59, 0
4, 34816, Note_on_c, 2, 59, 96
4, 35328, Note_off_c, 2, 59, 0
4, 35328, Note_on_c, 2, 57, 96
4, 35584, Note_off_c, 2, 57, 0
4, 35584, Note_on_c, 2, 59, 96
4, 35840, Note_off_c, 2, 59, 0
4, 35840, Note_on_c, 2, 60, 96
4, 36864, Note_off_c, 2, 60, 0
4, 36864, Note_on_c, 2, 54, 96
4, 38912, Note_off_c, 2, 54, 0
4, 38912, Note_on_c, 2, 62, 96
4, 39936, Note_off_c, 2, 62, 0
4, 39936, Note_on_c, 2, 60, 96
4, 41984, Note_off_c, 2, 60, 0
4, 41984, Note_on_c, 2, 60, 96
4, 43008, Note_off_c, 2, 60, 0
4, 43008, Note_on_c, 2, 62, 96
4, 45056, Note_off_c, 2, 62, 0
4, 45056, Note_on_c, 2, 62, 96
4, 46080, Note_off_c, 2, 62, 0
4, 46080, Note_on_c, 2, 62, 96
4, 47616, Note_off_c, 2, 62, 0
4, 47616, Note_on_c, 2, 61, 96
4, 47872, Note_off_c, 2, 61, 0
4, 47872, Note_on_c, 2, 59, 96
4, 48128, Note_off_c, 2, 59, 0
4, 48128, Note_on_c, 2, 61, 96
4, 49152, Note_off_c, 2, 61, 0
4, 49152, Note_on_c, 2, 57, 96
4, 51200, Note_off_c, 2, 57, 0
4, 51200, Note_on_c, 2, 64, 96
4, 52224, Note_off_c, 2, 64, 0
4, 52224, Note_on_c, 2, 64, 96
4, 53248, Note_off_c, 2, 64, 0
4, 53248, Note_on_c, 2, 59, 96
4, 54272, Note_off_c, 2, 59, 0
4, 54272, Note_on_c, 2, 59, 96
4, 55296, Note_off_c, 2, 59, 0
4, 55296, Note_on_c, 2, 60, 96
4, 55808, Note_off_c, 2, 60, 0
4, 55808, Note_on_c, 2, 59, 96
4, 56320, Note_off_c, 2, 59, 0
4, 56320, Note_on_c, 2, 57, 96
4, 56832, Note_off_c, 2, 57, 0
4, 56832, Note_on_c, 2, 59, 96
4, 57344, Note_off_c, 2, 59, 0
4, 57344, Note_on_c, 2, 60, 96
4, 58368, Note_off_c, 2, 60, 0
4, 58368, Note_on_c, 2, 59, 96
4, 61440, Note_off_c, 2, 59, 0
4, 61441, End_track
5, 0, Start_track
5, 0, Title_t, "Instrument 4"
5, 2048, Note_on_c, 3, 55, 96
5, 3072, Note_off_c, 3, 55, 0
5, 3072, Note_on_c, 3, 55, 96
5, 5120, Note_off_c, 3, 55, 0
5, 5120, Note_on_c, 3, 50, 96
5, 6144, Note_off_c, 3, 50, 0
5, 6144, Note_on_c, 3, 55, 96
5, 7168, Note_off_c, 3, 55, 0
5, 7168, Note_on_c, 3, 54, 96
5, 8192, Note_off_c, 3, 54, 0
5, 8192, Note_on_c, 3, 52, 96
5, 9216, Note_off_c, 3, 52, 0
5, 9216, Note_on_c, 3, 47, 96
5, 9728, Note_off_c, 3, 47, 0
5, 9728, Note_on_c, 3, 48, 96
5, 10240, Note_off_c, 3, 48, 0
5, 10240, Note_on_c, 3, 50, 96
5, 11264, Note_off_c, 3, 50, 0
5, 11264, Note_on_c, 3, 50, 96
5, 12288, Note_off_c, 3, 50, 0
5, 12288, Note_on_c, 3, 43, 96
5, 14336, Note_off_c, 3, 43, 0
5, 24576, Note_on_c, 3, 48, 96
5, 29184, Note_off_c, 3, 48, 0
5, 29184, Note_on_c, 3, 47, 96
5, 29696, Note_off_c, 3, 47, 0
5, 29696, Note_on_c, 3, 48, 96
5, 30208, Note_off_c, 3, 48, 0
5, 30208, Note_on_c, 3, 45, 96
5, 30720, Note_off_c, 3, 45, 0
5, 30720, Note_on_c, 3, 50, 96
5, 31744, Note_off_c, 3, 50, 0
5, 31744, Note_on_c, 3, 50, 96
5, 32768, Note_off_c, 3, 50, 0
5, 33792, Note_on_c, 3, 52, 96
5, 34304, Note_off_c, 3, 52, 0
5, 34304, Note_on_c, 3, 50, 96
5, 34816, Note_off_c, 3, 50, 0
5, 34816, Note_on_c, 3, 48, 96
5, 35840, Note_off_c, 3, 48, 0
5, 35840, Note_on_c, 3, 48, 96
5, 36864, Note_off_c, 3, 48, 0
5, 36864, Note_on_c, 3, 47, 96
5, 38912, Note_off_c, 3, 47, 0
5, 38912, Note_on_c, 3, 59, 96
5, 39936, Note_off_c, 3, 59, 0
5, 39936, Note_on_c, 3, 59, 96
5, 41984, Note_off_c, 3, 59, 0
5, 41984, Note_on_c, 3, 57, 96
5, 43008, Note_off_c, 3, 57, 0
5, 43008, Note_on_c, 3, 55, 96
5, 44032, Note_off_c, 3, 55, 0
5, 44032, Note_on_c, 3, 59, 96
5, 45056, Note_off_c, 3, 59, 0
5, 45056, Note_on_c, 3, 62, 96
5, 46080, Note_off_c, 3, 62, 0
5, 46080, Note_on_c, 3, 55, 96
5, 46592, Note_off_c, 3, 55, 0
5, 46592, Note_on_c, 3, 54, 96
5, 47104, Note_off_c, 3, 54, 0
5, 47104, Note_on_c, 3, 52, 96
5, 48128, Note_off_c, 3, 52, 0
5, 48128, Note_on_c, 3, 57, 96
5, 49152, Note_off_c, 3, 57, 0
5, 49152, Note_on_c, 3, 50, 96
5, 51200, Note_off_c, 3, 50, 0
5, 51200, Note_on_c, 3, 52, 96
5, 51712, Note_off_c, 3, 52, 0
5, 51712, Note_on_c, 3, 50, 96
5, 52224, Note_off_c, 3, 50, 0
5, 52224, Note_on_c, 3, 49, 96
5, 53248, Note_off_c, 3, 49, 0
5, 53248, Note_on_c, 3, 51, 96
5, 54272, Note_off_c, 3, 51, 0
5, 54272, Note_on_c, 3, 52, 96
5, 55296, Note_off_c, 3, 52, 0
5, 55296, Note_on_c, 3, 48, 96
5, 56320, Note_off_c, 3, 48, 0
5, 56320, Note_on_c, 3, 50, 96
5, 58368, Note_off_c, 3, 50, 0
5, 58368, Note_on_c, 3, 43, 96
5, 61440, Note_off_c, 3, 43, 0
5, 61441, End_track
0, 0, End_of_file
