0, 0, Header, 1, 5, 480
1, 0, Start_track
1, 0, Title_t, "untitled"
1, 0, Text_t, "Fuga Canonica in Epidapente\012"
1, 0, Text_t, "Voce 1  \012"
1, 0, Text_t, "Voce 2  \012"
1, 0, Text_t, "Voce 3  \012"
1, 0, Time_signature, 2, 2, 24, 8
1, 0, Key_signature, 0, "major"
1, 0, Tempo, 333333
1, 0, End_track
2, 0, Start_track
2, 0, Program_c, 0, 0
2, 19200, Note_on_c, 0, 67, 64
2, 20160, Note_on_c, 0, 67, 0
2, 20160, Note_on_c, 0, 70, 64
2, 21120, Note_on_c, 0, 70, 0
2, 21120, Note_on_c, 0, 74, 64
2, 22080, Note_on_c, 0, 74, 0
2, 22080, Note_on_c, 0, 75, 64
2, 23040, Note_on_c, 0, 75, 0
2, 23040, Note_on_c, 0, 66, 64
2, 24000, Note_on_c, 0, 66, 0
2, 24480, Note_on_c, 0, 74, 64
2, 24960, Note_on_c, 0, 74, 0
2, 24960, Note_on_c, 0, 73, 64
2, 25920, Note_on_c, 0, 73, 0
2, 25920, Note_on_c, 0, 72, 64
2, 26880, Note_on_c, 0, 72, 0
2, 26880, Note_on_c, 0, 71, 64
2, 27840, Note_on_c, 0, 71, 0
2, 27840, Note_on_c, 0, 70, 64
2, 29280, Note_on_c, 0, 70, 0
2, 29280, Note_on_c, 0, 69, 64
2, 29760, Note_on_c, 0, 69, 0
2, 29760, Note_on_c, 0, 68, 64
2, 30240, Note_on_c, 0, 68, 0
2, 30240, Note_on_c, 0, 67, 64
2, 30720, Note_on_c, 0, 67, 0
2, 30720, Note_on_c, 0, 66, 64
2, 31200, Note_on_c, 0, 66, 0
2, 31200, Note_on_c, 0, 64, 64
2, 31440, Note_on_c, 0, 64, 0
2, 31440, Note_on_c, 0, 62, 64
2, 31680, Note_on_c, 0, 62, 0
2, 31680, Note_on_c, 0, 67, 64
2, 32160, Note_on_c, 0, 67, 0
2, 32160, Note_on_c, 0, 72, 64
2, 32640, Note_on_c, 0, 72, 0
2, 32640, Note_on_c, 0, 70, 64
2, 33600, Note_on_c, 0, 70, 0
2, 33600, Note_on_c, 0, 69, 64
2, 34560, Note_on_c, 0, 69, 0
2, 34560, Note_on_c, 0, 67, 64
2, 34800, Note_on_c, 0, 67, 0
2, 34800, Note_on_c, 0, 74, 64
2, 35040, Note_on_c, 0, 74, 0
2, 35040, Note_on_c, 0, 79, 64
2, 35280, Note_on_c, 0, 79, 0
2, 35280, Note_on_c, 0, 81, 64
2, 35520, Note_on_c, 0, 81, 0
2, 35520, Note_on_c, 0, 82, 64
2, 35760, Note_on_c, 0, 82, 0
2, 35760, Note_on_c, 0, 77, 64
2, 36000, Note_on_c, 0, 77, 0
2, 36000, Note_on_c, 0, 75, 64
2, 36240, Note_on_c, 0, 75, 0
2, 36240, Note_on_c, 0, 74, 64
2, 36480, Note_on_c, 0, 74, 0
2, 36480, Note_on_c, 0, 72, 64
2, 36720, Note_on_c, 0, 72, 0
2, 36720, Note_on_c, 0, 77, 64
2, 36960, Note_on_c, 0, 77, 0
2, 36960, Note_on_c, 0, 81, 64
2, 37200, Note_on_c, 0, 81, 0
2, 37200, Note_on_c, 0, 82, 64
2, 37440, Note_on_c, 0, 82, 0
2, 37440, Note_on_c, 0, 84, 64
2, 37680, Note_on_c, 0, 84, 0
2, 37680, Note_on_c, 0, 79, 64
2, 37920, Note_on_c, 0, 79, 0
2, 37920, Note_on_c, 0, 77, 64
2, 38160, Note_on_c, 0, 77, 0
2, 38160, Note_on_c, 0, 75, 64
2, 38400, Note_on_c, 0, 75, 0
2, 38400, Note_on_c, 0, 74, 64
2, 38640, Note_on_c, 0, 74, 0
2, 38640, Note_on_c, 0, 77, 64
2, 38880, Note_on_c, 0, 77, 0
2, 38880, Note_on_c, 0, 82, 64
2, 39120, Note_on_c, 0, 82, 0
2, 39120, Note_on_c, 0, 84, 64
2, 39360, Note_on_c, 0, 84, 0
2, 39360, Note_on_c, 0, 86, 64
2, 40800, Note_on_c, 0, 86, 0
2, 40800, Note_on_c, 0, 74, 64
2, 41760, Note_on_c, 0, 74, 0
2, 41760, Note_on_c, 0, 79, 64
2, 42720, Note_on_c, 0, 79, 0
2, 42720, Note_on_c, 0, 77, 64
2, 42960, Note_on_c, 0, 77, 0
2, 42960, Note_on_c, 0, 76, 64
2, 43200, Note_on_c, 0, 76, 0
2, 43200, Note_on_c, 0, 77, 64
2, 44640, Note_on_c, 0, 77, 0
2, 44640, Note_on_c, 0, 76, 64
2, 44880, Note_on_c, 0, 76, 0
2, 44880, Note_on_c, 0, 74, 64
2, 45120, Note_on_c, 0, 74, 0
2, 45120, Note_on_c, 0, 76, 64
2, 45600, Note_on_c, 0, 76, 0
2, 45600, Note_on_c, 0, 75, 64
2, 46560, Note_on_c, 0, 75, 0
2, 46560, Note_on_c, 0, 69, 64
2, 47040, Note_on_c, 0, 69, 0
2, 47040, Note_on_c, 0, 74, 64
2, 47520, Note_on_c, 0, 74, 0
2, 47520, Note_on_c, 0, 72, 64
2, 48000, Note_on_c, 0, 72, 0
2, 48000, Note_on_c, 0, 71, 64
2, 48240, Note_on_c, 0, 71, 0
2, 48240, Note_on_c, 0, 69, 64
2, 48480, Note_on_c, 0, 69, 0
2, 48480, Note_on_c, 0, 67, 64
2, 48720, Note_on_c, 0, 67, 0
2, 48720, Note_on_c, 0, 69, 64
2, 48960, Note_on_c, 0, 69, 0
2, 48960, Note_on_c, 0, 70, 64
2, 49200, Note_on_c, 0, 70, 0
2, 49200, Note_on_c, 0, 69, 64
2, 49440, Note_on_c, 0, 69, 0
2, 49440, Note_on_c, 0, 70, 64
2, 49680, Note_on_c, 0, 70, 0
2, 49680, Note_on_c, 0, 67, 64
2, 49920, Note_on_c, 0, 67, 0
2, 49920, Note_on_c, 0, 69, 64
2, 50880, Note_on_c, 0, 69, 0
2, 54240, Note_on_c, 0, 65, 64
2, 54720, Note_on_c, 0, 65, 0
2, 54720, Note_on_c, 0, 70, 64
2, 56160, Note_on_c, 0, 70, 0
2, 56160, Note_on_c, 0, 67, 64
2, 56640, Note_on_c, 0, 67, 0
2, 56640, Note_on_c, 0, 72, 64
2, 58080, Note_on_c, 0, 72, 0
2, 58080, Note_on_c, 0, 69, 64
2, 58560, Note_on_c, 0, 69, 0
2, 58560, Note_on_c, 0, 74, 64
2, 58800, Note_on_c, 0, 74, 0
2, 58800, Note_on_c, 0, 73, 64
2, 59040, Note_on_c, 0, 73, 0
2, 59040, Note_on_c, 0, 74, 64
2, 59280, Note_on_c, 0, 74, 0
2, 59280, Note_on_c, 0, 76, 64
2, 59520, Note_on_c, 0, 76, 0
2, 59520, Note_on_c, 0, 77, 64
2, 59760, Note_on_c, 0, 77, 0
2, 59760, Note_on_c, 0, 76, 64
2, 60000, Note_on_c, 0, 76, 0
2, 60000, Note_on_c, 0, 77, 64
2, 60240, Note_on_c, 0, 77, 0
2, 60240, Note_on_c, 0, 79, 64
2, 60480, Note_on_c, 0, 79, 0
2, 60480, Note_on_c, 0, 77, 64
2, 60720, Note_on_c, 0, 77, 0
2, 60720, Note_on_c, 0, 75, 64
2, 60960, Note_on_c, 0, 75, 0
2, 60960, Note_on_c, 0, 74, 64
2, 61200, Note_on_c, 0, 74, 0
2, 61200, Note_on_c, 0, 77, 64
2, 61440, Note_on_c, 0, 77, 0
2, 61440, Note_on_c, 0, 75, 64
2, 61680, Note_on_c, 0, 75, 0
2, 61680, Note_on_c, 0, 74, 64
2, 61920, Note_on_c, 0, 74, 0
2, 61920, Note_on_c, 0, 75, 64
2, 62160, Note_on_c, 0, 75, 0
2, 62160, Note_on_c, 0, 77, 64
2, 62400, Note_on_c, 0, 77, 0
2, 62400, Note_on_c, 0, 75, 64
2, 62640, Note_on_c, 0, 75, 0
2, 62640, Note_on_c, 0, 74, 64
2, 62880, Note_on_c, 0, 74, 0
2, 62880, Note_on_c, 0, 72, 64
2, 63120, Note_on_c, 0, 72, 0
2, 63120, Note_on_c, 0, 75, 64
2, 63360, Note_on_c, 0, 75, 0
2, 63360, Note_on_c, 0, 74, 64
2, 63600, Note_on_c, 0, 74, 0
2, 63600, Note_on_c, 0, 72, 64
2, 63840, Note_on_c, 0, 72, 0
2, 63840, Note_on_c, 0, 74, 64
2, 64080, Note_on_c, 0, 74, 0
2, 64080, Note_on_c, 0, 75, 64
2, 64320, Note_on_c, 0, 75, 0
2, 64320, Note_on_c, 0, 74, 64
2, 64560, Note_on_c, 0, 74, 0
2, 64560, Note_on_c, 0, 77, 64
2, 64800, Note_on_c, 0, 77, 0
2, 64800, Note_on_c, 0, 75, 64
2, 65040, Note_on_c, 0, 75, 0
2, 65040, Note_on_c, 0, 74, 64
2, 65280, Note_on_c, 0, 74, 0
2, 65280, Note_on_c, 0, 72, 64
2, 66240, Note_on_c, 0, 72, 0
2, 66240, Note_on_c, 0, 84, 64
2, 67680, Note_on_c, 0, 84, 0
2, 67680, Note_on_c, 0, 83, 64
2, 67920, Note_on_c, 0, 83, 0
2, 67920, Note_on_c, 0, 81, 64
2, 68160, Note_on_c, 0, 81, 0
2, 68160, Note_on_c, 0, 84, 64
2, 68280, Note_on_c, 0, 84, 0
2, 68280, Note_on_c, 0, 83, 64
2, 68400, Note_on_c, 0, 83, 0
2, 68400, Note_on_c, 0, 84, 64
2, 68520, Note_on_c, 0, 84, 0
2, 68520, Note_on_c, 0, 83, 64
2, 68640, Note_on_c, 0, 83, 0
2, 68640, Note_on_c, 0, 84, 64
2, 68760, Note_on_c, 0, 84, 0
2, 68760, Note_on_c, 0, 83, 64
2, 68880, Note_on_c, 0, 83, 0
2, 68880, Note_on_c, 0, 81, 64
2, 69000, Note_on_c, 0, 81, 0
2, 69000, Note_on_c, 0, 83, 64
2, 69120, Note_on_c, 0, 83, 0
2, 69120, Note_on_c, 0, 84, 64
2, 69360, Note_on_c, 0, 84, 0
2, 69360, Note_on_c, 0, 79, 64
2, 69600, Note_on_c, 0, 79, 0
2, 69600, Note_on_c, 0, 76, 64
2, 69840, Note_on_c, 0, 76, 0
2, 69840, Note_on_c, 0, 74, 64
2, 70080, Note_on_c, 0, 74, 0
2, 70080, Note_on_c, 0, 72, 64
2, 70320, Note_on_c, 0, 72, 0
2, 70320, Note_on_c, 0, 77, 64
2, 70560, Note_on_c, 0, 77, 0
2, 70560, Note_on_c, 0, 79, 64
2, 70800, Note_on_c, 0, 79, 0
2, 70800, Note_on_c, 0, 81, 64
2, 71040, Note_on_c, 0, 81, 0
2, 71040, Note_on_c, 0, 82, 64
2, 71280, Note_on_c, 0, 82, 0
2, 71280, Note_on_c, 0, 77, 64
2, 71520, Note_on_c, 0, 77, 0
2, 71520, Note_on_c, 0, 74, 64
2, 71760, Note_on_c, 0, 74, 0
2, 71760, Note_on_c, 0, 72, 64
2, 72000, Note_on_c, 0, 72, 0
2, 72000, Note_on_c, 0, 70, 64
2, 72240, Note_on_c, 0, 70, 0
2, 72240, Note_on_c, 0, 76, 64
2, 72480, Note_on_c, 0, 76, 0
2, 72480, Note_on_c, 0, 77, 64
2, 72720, Note_on_c, 0, 77, 0
2, 72720, Note_on_c, 0, 79, 64
2, 72960, Note_on_c, 0, 79, 0
2, 72960, Note_on_c, 0, 80, 64
2, 74160, Note_on_c, 0, 80, 0
2, 74160, Note_on_c, 0, 79, 64
2, 74400, Note_on_c, 0, 79, 0
2, 74400, Note_on_c, 0, 77, 64
2, 74640, Note_on_c, 0, 77, 0
2, 74640, Note_on_c, 0, 80, 64
2, 74880, Note_on_c, 0, 80, 0
2, 74880, Note_on_c, 0, 79, 64
2, 76080, Note_on_c, 0, 79, 0
2, 76080, Note_on_c, 0, 76, 64
2, 76320, Note_on_c, 0, 76, 0
2, 76320, Note_on_c, 0, 77, 64
2, 76560, Note_on_c, 0, 77, 0
2, 76560, Note_on_c, 0, 79, 64
2, 76800, Note_on_c, 0, 79, 0
2, 76800, Note_on_c, 0, 72, 64
2, 77040, Note_on_c, 0, 72, 0
2, 77040, Note_on_c, 0, 74, 64
2, 77280, Note_on_c, 0, 74, 0
2, 77280, Note_on_c, 0, 76, 64
2, 77520, Note_on_c, 0, 76, 0
2, 77520, Note_on_c, 0, 72, 64
2, 77760, Note_on_c, 0, 72, 0
2, 77760, Note_on_c, 0, 77, 64
2, 79200, Note_on_c, 0, 77, 0
2, 79200, Note_on_c, 0, 76, 64
2, 79440, Note_on_c, 0, 76, 0
2, 79440, Note_on_c, 0, 74, 64
2, 79680, Note_on_c, 0, 74, 0
2, 79680, Note_on_c, 0, 76, 64
2, 80160, Note_on_c, 0, 76, 0
2, 80160, Note_on_c, 0, 75, 64
2, 81120, Note_on_c, 0, 75, 0
2, 81120, Note_on_c, 0, 74, 64
2, 81360, Note_on_c, 0, 74, 0
2, 81360, Note_on_c, 0, 72, 64
2, 81600, Note_on_c, 0, 72, 0
2, 81600, Note_on_c, 0, 74, 64
2, 82080, Note_on_c, 0, 74, 0
2, 82080, Note_on_c, 0, 73, 64
2, 82560, Note_on_c, 0, 73, 0
2, 82560, Note_on_c, 0, 72, 64
2, 82800, Note_on_c, 0, 72, 0
2, 82800, Note_on_c, 0, 71, 64
2, 83040, Note_on_c, 0, 71, 0
2, 83040, Note_on_c, 0, 72, 64
2, 83280, Note_on_c, 0, 72, 0
2, 83280, Note_on_c, 0, 73, 64
2, 83520, Note_on_c, 0, 73, 0
2, 83520, Note_on_c, 0, 72, 64
2, 83760, Note_on_c, 0, 72, 0
2, 83760, Note_on_c, 0, 75, 64
2, 84000, Note_on_c, 0, 75, 0
2, 84000, Note_on_c, 0, 74, 64
2, 84240, Note_on_c, 0, 74, 0
2, 84240, Note_on_c, 0, 72, 64
2, 84480, Note_on_c, 0, 72, 0
2, 84480, Note_on_c, 0, 79, 64
2, 84960, Note_on_c, 0, 79, 0
2, 84960, Note_on_c, 0, 67, 64
2, 85440, Note_on_c, 0, 67, 0
2, 92160, Note_on_c, 0, 72, 64
2, 93120, Note_on_c, 0, 72, 0
2, 93120, Note_on_c, 0, 75, 64
2, 94080, Note_on_c, 0, 75, 0
2, 94080, Note_on_c, 0, 79, 64
2, 95040, Note_on_c, 0, 79, 0
2, 95040, Note_on_c, 0, 80, 64
2, 96000, Note_on_c, 0, 80, 0
2, 96000, Note_on_c, 0, 71, 64
2, 96960, Note_on_c, 0, 71, 0
2, 97440, Note_on_c, 0, 79, 64
2, 97920, Note_on_c, 0, 79, 0
2, 97920, Note_on_c, 0, 78, 64
2, 98880, Note_on_c, 0, 78, 0
2, 98880, Note_on_c, 0, 77, 64
2, 99840, Note_on_c, 0, 77, 0
2, 99840, Note_on_c, 0, 76, 64
2, 100800, Note_on_c, 0, 76, 0
2, 100800, Note_on_c, 0, 75, 64
2, 102240, Note_on_c, 0, 75, 0
2, 102240, Note_on_c, 0, 74, 64
2, 102720, Note_on_c, 0, 74, 0
2, 102720, Note_on_c, 0, 73, 64
2, 103200, Note_on_c, 0, 73, 0
2, 103200, Note_on_c, 0, 72, 64
2, 103680, Note_on_c, 0, 72, 0
2, 103680, Note_on_c, 0, 71, 64
2, 104160, Note_on_c, 0, 71, 0
2, 104160, Note_on_c, 0, 69, 64
2, 104400, Note_on_c, 0, 69, 0
2, 104400, Note_on_c, 0, 67, 64
2, 104640, Note_on_c, 0, 67, 0
2, 104640, Note_on_c, 0, 72, 64
2, 105120, Note_on_c, 0, 72, 0
2, 105120, Note_on_c, 0, 77, 64
2, 105600, Note_on_c, 0, 77, 0
2, 105600, Note_on_c, 0, 75, 64
2, 106560, Note_on_c, 0, 75, 0
2, 106560, Note_on_c, 0, 74, 64
2, 107520, Note_on_c, 0, 74, 0
2, 107520, Note_on_c, 0, 72, 64
2, 107760, Note_on_c, 0, 72, 0
2, 107760, Note_on_c, 0, 67, 64
2, 108000, Note_on_c, 0, 67, 0
2, 108000, Note_on_c, 0, 72, 64
2, 108240, Note_on_c, 0, 72, 0
2, 108240, Note_on_c, 0, 74, 64
2, 108480, Note_on_c, 0, 74, 0
2, 108480, Note_on_c, 0, 75, 64
2, 108720, Note_on_c, 0, 75, 0
2, 108720, Note_on_c, 0, 70, 64
2, 108960, Note_on_c, 0, 70, 0
2, 108960, Note_on_c, 0, 68, 64
2, 109200, Note_on_c, 0, 68, 0
2, 109200, Note_on_c, 0, 67, 64
2, 109440, Note_on_c, 0, 67, 0
2, 109440, Note_on_c, 0, 65, 64
2, 109680, Note_on_c, 0, 65, 0
2, 109680, Note_on_c, 0, 70, 64
2, 109920, Note_on_c, 0, 70, 0
2, 109920, Note_on_c, 0, 74, 64
2, 110160, Note_on_c, 0, 74, 0
2, 110160, Note_on_c, 0, 75, 64
2, 110400, Note_on_c, 0, 75, 0
2, 110400, Note_on_c, 0, 77, 64
2, 110640, Note_on_c, 0, 77, 0
2, 110640, Note_on_c, 0, 72, 64
2, 110880, Note_on_c, 0, 72, 0
2, 110880, Note_on_c, 0, 70, 64
2, 111120, Note_on_c, 0, 70, 0
2, 111120, Note_on_c, 0, 68, 64
2, 111360, Note_on_c, 0, 68, 0
2, 111360, Note_on_c, 0, 67, 64
2, 111600, Note_on_c, 0, 67, 0
2, 111600, Note_on_c, 0, 72, 64
2, 111840, Note_on_c, 0, 72, 0
2, 111840, Note_on_c, 0, 75, 64
2, 112080, Note_on_c, 0, 75, 0
2, 112080, Note_on_c, 0, 77, 64
2, 112320, Note_on_c, 0, 77, 0
2, 112320, Note_on_c, 0, 79, 64
2, 113520, Note_on_c, 0, 79, 0
2, 113520, Note_on_c, 0, 67, 64
2, 113760, Note_on_c, 0, 67, 0
2, 113760, Note_on_c, 0, 69, 64
2, 114000, Note_on_c, 0, 69, 0
2, 114000, Note_on_c, 0, 70, 64
2, 114240, Note_on_c, 0, 70, 0
2, 114240, Note_on_c, 0, 72, 64
2, 114480, Note_on_c, 0, 72, 0
2, 114480, Note_on_c, 0, 74, 64
2, 114720, Note_on_c, 0, 74, 0
2, 114720, Note_on_c, 0, 75, 64
2, 114960, Note_on_c, 0, 75, 0
2, 114960, Note_on_c, 0, 72, 64
2, 115200, Note_on_c, 0, 72, 0
2, 115200, Note_on_c, 0, 74, 64
2, 115440, Note_on_c, 0, 74, 0
2, 115440, Note_on_c, 0, 75, 64
2, 115680, Note_on_c, 0, 75, 0
2, 115680, Note_on_c, 0, 74, 64
2, 115920, Note_on_c, 0, 74, 0
2, 115920, Note_on_c, 0, 72, 64
2, 116160, Note_on_c, 0, 72, 0
2, 116160, Note_on_c, 0, 70, 64
2, 116400, Note_on_c, 0, 70, 0
2, 116400, Note_on_c, 0, 69, 64
2, 116640, Note_on_c, 0, 69, 0
2, 116640, Note_on_c, 0, 67, 64
2, 116880, Note_on_c, 0, 67, 0
2, 116880, Note_on_c, 0, 70, 64
2, 117120, Note_on_c, 0, 70, 0
2, 117120, Note_on_c, 0, 69, 64
2, 117360, Note_on_c, 0, 69, 0
2, 117360, Note_on_c, 0, 67, 64
2, 117600, Note_on_c, 0, 67, 0
2, 117600, Note_on_c, 0, 69, 64
2, 118320, Note_on_c, 0, 69, 0
2, 118320, Note_on_c, 0, 74, 64
2, 118560, Note_on_c, 0, 74, 0
2, 118560, Note_on_c, 0, 72, 64
2, 118800, Note_on_c, 0, 72, 0
2, 118800, Note_on_c, 0, 74, 64
2, 119040, Note_on_c, 0, 74, 0
2, 119040, Note_on_c, 0, 67, 64
2, 119280, Note_on_c, 0, 67, 0
2, 119280, Note_on_c, 0, 65, 64
2, 119520, Note_on_c, 0, 65, 0
2, 119520, Note_on_c, 0, 67, 64
2, 120240, Note_on_c, 0, 67, 0
2, 120240, Note_on_c, 0, 72, 64
2, 120480, Note_on_c, 0, 72, 0
2, 120480, Note_on_c, 0, 71, 64
2, 120720, Note_on_c, 0, 71, 0
2, 120720, Note_on_c, 0, 72, 64
2, 120960, Note_on_c, 0, 72, 0
2, 120960, Note_on_c, 0, 65, 64
2, 121440, Note_on_c, 0, 65, 0
2, 121440, Note_on_c, 0, 77, 64
2, 122160, Note_on_c, 0, 77, 0
2, 122160, Note_on_c, 0, 71, 64
2, 122400, Note_on_c, 0, 71, 0
2, 122400, Note_on_c, 0, 72, 64
2, 122640, Note_on_c, 0, 72, 0
2, 122640, Note_on_c, 0, 75, 64
2, 122880, Note_on_c, 0, 75, 0
2, 122880, Note_on_c, 0, 74, 64
2, 124080, Note_on_c, 0, 74, 0
2, 124080, Note_on_c, 0, 72, 64
2, 124320, Note_on_c, 0, 72, 0
2, 124320, Note_on_c, 0, 70, 64
2, 124560, Note_on_c, 0, 70, 0
2, 124560, Note_on_c, 0, 69, 64
2, 124800, Note_on_c, 0, 69, 0
2, 124800, Note_on_c, 0, 67, 64
2, 125280, Note_on_c, 0, 67, 0
2, 125280, Note_on_c, 0, 79, 64
2, 126240, Note_on_c, 0, 79, 0
2, 126240, Note_on_c, 0, 77, 64
2, 127200, Note_on_c, 0, 77, 0
2, 127200, Note_on_c, 0, 75, 64
2, 127680, Note_on_c, 0, 75, 0
2, 127680, Note_on_c, 0, 74, 64
2, 127920, Note_on_c, 0, 74, 0
2, 127920, Note_on_c, 0, 86, 64
2, 128160, Note_on_c, 0, 86, 0
2, 128160, Note_on_c, 0, 84, 64
2, 128400, Note_on_c, 0, 84, 0
2, 128400, Note_on_c, 0, 82, 64
2, 128640, Note_on_c, 0, 82, 0
2, 128640, Note_on_c, 0, 81, 64
2, 128880, Note_on_c, 0, 81, 0
2, 128880, Note_on_c, 0, 84, 64
2, 129120, Note_on_c, 0, 84, 0
2, 129120, Note_on_c, 0, 77, 64
2, 129360, Note_on_c, 0, 77, 0
2, 129360, Note_on_c, 0, 79, 64
2, 129600, Note_on_c, 0, 79, 0
2, 129600, Note_on_c, 0, 81, 64
2, 129840, Note_on_c, 0, 81, 0
2, 129840, Note_on_c, 0, 82, 64
2, 130080, Note_on_c, 0, 82, 0
2, 130080, Note_on_c, 0, 84, 64
2, 130320, Note_on_c, 0, 84, 0
2, 130320, Note_on_c, 0, 81, 64
2, 130560, Note_on_c, 0, 81, 0
2, 130560, Note_on_c, 0, 82, 64
2, 131040, Note_on_c, 0, 82, 0
2, 131040, Note_on_c, 0, 74, 64
2, 131520, Note_on_c, 0, 74, 0
2, 131760, Note_on_c, 0, 79, 64
2, 132000, Note_on_c, 0, 79, 0
2, 132000, Note_on_c, 0, 81, 64
2, 132240, Note_on_c, 0, 81, 0
2, 132240, Note_on_c, 0, 82, 64
2, 132480, Note_on_c, 0, 82, 0
2, 132480, Note_on_c, 0, 81, 64
2, 132720, Note_on_c, 0, 81, 0
2, 132720, Note_on_c, 0, 84, 64
2, 132960, Note_on_c, 0, 84, 0
2, 132960, Note_on_c, 0, 82, 64
2, 133200, Note_on_c, 0, 82, 0
2, 133200, Note_on_c, 0, 81, 64
2, 133440, Note_on_c, 0, 81, 0
2, 133440, Note_on_c, 0, 79, 64
2, 133680, Note_on_c, 0, 79, 0
2, 133680, Note_on_c, 0, 78, 64
2, 133920, Note_on_c, 0, 78, 0
2, 133920, Note_on_c, 0, 79, 64
2, 134160, Note_on_c, 0, 79, 0
2, 134160, Note_on_c, 0, 82, 64
2, 134400, Note_on_c, 0, 82, 0
2, 134400, Note_on_c, 0, 81, 64
2, 134640, Note_on_c, 0, 81, 0
2, 134640, Note_on_c, 0, 79, 64
2, 134880, Note_on_c, 0, 79, 0
2, 134880, Note_on_c, 0, 81, 64
2, 135120, Note_on_c, 0, 81, 0
2, 135120, Note_on_c, 0, 86, 64
2, 135360, Note_on_c, 0, 86, 0
2, 135360, Note_on_c, 0, 74, 64
2, 135840, Note_on_c, 0, 74, 0
2, 135840, Note_on_c, 0, 82, 64
2, 136800, Note_on_c, 0, 82, 0
2, 136800, Note_on_c, 0, 81, 64
2, 137040, Note_on_c, 0, 81, 0
2, 137040, Note_on_c, 0, 79, 64
2, 137280, Note_on_c, 0, 79, 0
2, 137280, Note_on_c, 0, 81, 64
2, 138720, Note_on_c, 0, 81, 0
2, 138720, Note_on_c, 0, 80, 64
2, 139200, Note_on_c, 0, 80, 0
2, 139200, Note_on_c, 0, 79, 64
2, 139680, Note_on_c, 0, 79, 0
2, 139680, Note_on_c, 0, 74, 64
2, 140160, Note_on_c, 0, 74, 0
2, 140160, Note_on_c, 0, 75, 64
2, 142320, Note_on_c, 0, 75, 0
2, 142320, Note_on_c, 0, 74, 64
2, 142560, Note_on_c, 0, 74, 0
2, 142560, Note_on_c, 0, 72, 64
2, 142800, Note_on_c, 0, 72, 0
2, 142800, Note_on_c, 0, 74, 64
2, 143040, Note_on_c, 0, 74, 0
2, 143040, Note_on_c, 0, 70, 64
2, 143520, Note_on_c, 0, 70, 0
2, 143520, Note_on_c, 0, 68, 64
2, 144240, Note_on_c, 0, 68, 0
2, 144240, Note_on_c, 0, 67, 64
2, 144480, Note_on_c, 0, 67, 0
2, 144480, Note_on_c, 0, 69, 64
2, 144720, Note_on_c, 0, 69, 0
2, 144720, Note_on_c, 0, 71, 64
2, 144960, Note_on_c, 0, 71, 0
2, 144960, Note_on_c, 0, 72, 64
2, 145200, Note_on_c, 0, 72, 0
2, 145200, Note_on_c, 0, 74, 64
2, 145440, Note_on_c, 0, 74, 0
2, 145440, Note_on_c, 0, 75, 64
2, 145680, Note_on_c, 0, 75, 0
2, 145680, Note_on_c, 0, 77, 64
2, 145920, Note_on_c, 0, 77, 0
2, 145920, Note_on_c, 0, 75, 64
2, 146520, Note_on_c, 0, 75, 0
2, 146520, Note_on_c, 0, 74, 64
2, 146640, Note_on_c, 0, 74, 0
2, 146640, Note_on_c, 0, 72, 64
2, 146760, Note_on_c, 0, 72, 0
2, 146760, Note_on_c, 0, 74, 64
2, 146880, Note_on_c, 0, 74, 0
2, 146880, Note_on_c, 0, 75, 64
2, 147000, Note_on_c, 0, 75, 0
2, 147000, Note_on_c, 0, 74, 64
2, 147120, Note_on_c, 0, 74, 0
2, 147120, Note_on_c, 0, 75, 64
2, 147240, Note_on_c, 0, 75, 0
2, 147240, Note_on_c, 0, 74, 64
2, 147360, Note_on_c, 0, 74, 0
2, 147360, Note_on_c, 0, 75, 64
2, 147480, Note_on_c, 0, 75, 0
2, 147480, Note_on_c, 0, 74, 64
2, 147600, Note_on_c, 0, 74, 0
2, 147600, Note_on_c, 0, 72, 64
2, 147720, Note_on_c, 0, 72, 0
2, 147720, Note_on_c, 0, 74, 64
2, 147840, Note_on_c, 0, 74, 0
2, 147840, Note_on_c, 0, 72, 64
2, 149760, Note_on_c, 0, 72, 0
2, 149760, End_track
3, 0, Start_track
3, 0, Program_c, 1, 0
3, 0, Note_on_c, 1, 60, 64
3, 960, Note_on_c, 1, 60, 0
3, 960, Note_on_c, 1, 63, 64
3, 1920, Note_on_c, 1, 63, 0
3, 1920, Note_on_c, 1, 67, 64
3, 2880, Note_on_c, 1, 67, 0
3, 2880, Note_on_c, 1, 68, 64
3, 3840, Note_on_c, 1, 68, 0
3, 3840, Note_on_c, 1, 59, 64
3, 4800, Note_on_c, 1, 59, 0
3, 5280, Note_on_c, 1, 67, 64
3, 5760, Note_on_c, 1, 67, 0
3, 5760, Note_on_c, 1, 66, 64
3, 6720, Note_on_c, 1, 66, 0
3, 6720, Note_on_c, 1, 65, 64
3, 7680, Note_on_c, 1, 65, 0
3, 7680, Note_on_c, 1, 64, 64
3, 8640, Note_on_c, 1, 64, 0
3, 8640, Note_on_c, 1, 63, 64
3, 10080, Note_on_c, 1, 63, 0
3, 10080, Note_on_c, 1, 62, 64
3, 10560, Note_on_c, 1, 62, 0
3, 10560, Note_on_c, 1, 61, 64
3, 11040, Note_on_c, 1, 61, 0
3, 11040, Note_on_c, 1, 60, 64
3, 11520, Note_on_c, 1, 60, 0
3, 11520, Note_on_c, 1, 59, 64
3, 12000, Note_on_c, 1, 59, 0
3, 12000, Note_on_c, 1, 57, 64
3, 12240, Note_on_c, 1, 57, 0
3, 12240, Note_on_c, 1, 55, 64
3, 12480, Note_on_c, 1, 55, 0
3, 12480, Note_on_c, 1, 60, 64
3, 12960, Note_on_c, 1, 60, 0
3, 12960, Note_on_c, 1, 65, 64
3, 13440, Note_on_c, 1, 65, 0
3, 13440, Note_on_c, 1, 63, 64
3, 14400, Note_on_c, 1, 63, 0
3, 14400, Note_on_c, 1, 62, 64
3, 15360, Note_on_c, 1, 62, 0
3, 15360, Note_on_c, 1, 60, 64
3, 15600, Note_on_c, 1, 60, 0
3, 15600, Note_on_c, 1, 67, 64
3, 15840, Note_on_c, 1, 67, 0
3, 15840, Note_on_c, 1, 72, 64
3, 16080, Note_on_c, 1, 72, 0
3, 16080, Note_on_c, 1, 74, 64
3, 16320, Note_on_c, 1, 74, 0
3, 16320, Note_on_c, 1, 75, 64
3, 16560, Note_on_c, 1, 75, 0
3, 16560, Note_on_c, 1, 70, 64
3, 16800, Note_on_c, 1, 70, 0
3, 16800, Note_on_c, 1, 68, 64
3, 17040, Note_on_c, 1, 68, 0
3, 17040, Note_on_c, 1, 67, 64
3, 17280, Note_on_c, 1, 67, 0
3, 17280, Note_on_c, 1, 65, 64
3, 17520, Note_on_c, 1, 65, 0
3, 17520, Note_on_c, 1, 70, 64
3, 17760, Note_on_c, 1, 70, 0
3, 17760, Note_on_c, 1, 74, 64
3, 18000, Note_on_c, 1, 74, 0
3, 18000, Note_on_c, 1, 75, 64
3, 18240, Note_on_c, 1, 75, 0
3, 18240, Note_on_c, 1, 77, 64
3, 18480, Note_on_c, 1, 77, 0
3, 18480, Note_on_c, 1, 72, 64
3, 18720, Note_on_c, 1, 72, 0
3, 18720, Note_on_c, 1, 70, 64
3, 18960, Note_on_c, 1, 70, 0
3, 18960, Note_on_c, 1, 68, 64
3, 19200, Note_on_c, 1, 68, 0
3, 19200, Note_on_c, 1, 67, 64
3, 19440, Note_on_c, 1, 67, 0
3, 19440, Note_on_c, 1, 70, 64
3, 19680, Note_on_c, 1, 70, 0
3, 19680, Note_on_c, 1, 75, 64
3, 19920, Note_on_c, 1, 75, 0
3, 19920, Note_on_c, 1, 77, 64
3, 20160, Note_on_c, 1, 77, 0
3, 20160, Note_on_c, 1, 79, 64
3, 21600, Note_on_c, 1, 79, 0
3, 21600, Note_on_c, 1, 67, 64
3, 22560, Note_on_c, 1, 67, 0
3, 22560, Note_on_c, 1, 72, 64
3, 23520, Note_on_c, 1, 72, 0
3, 23520, Note_on_c, 1, 70, 64
3, 23760, Note_on_c, 1, 70, 0
3, 23760, Note_on_c, 1, 69, 64
3, 24000, Note_on_c, 1, 69, 0
3, 24000, Note_on_c, 1, 70, 64
3, 25440, Note_on_c, 1, 70, 0
3, 25440, Note_on_c, 1, 69, 64
3, 25680, Note_on_c, 1, 69, 0
3, 25680, Note_on_c, 1, 67, 64
3, 25920, Note_on_c, 1, 67, 0
3, 25920, Note_on_c, 1, 69, 64
3, 26400, Note_on_c, 1, 69, 0
3, 26400, Note_on_c, 1, 68, 64
3, 27360, Note_on_c, 1, 68, 0
3, 27360, Note_on_c, 1, 62, 64
3, 27840, Note_on_c, 1, 62, 0
3, 27840, Note_on_c, 1, 67, 64
3, 28320, Note_on_c, 1, 67, 0
3, 28320, Note_on_c, 1, 65, 64
3, 28800, Note_on_c, 1, 65, 0
3, 28800, Note_on_c, 1, 64, 64
3, 29040, Note_on_c, 1, 64, 0
3, 29040, Note_on_c, 1, 62, 64
3, 29280, Note_on_c, 1, 62, 0
3, 29280, Note_on_c, 1, 60, 64
3, 29520, Note_on_c, 1, 60, 0
3, 29520, Note_on_c, 1, 62, 64
3, 29760, Note_on_c, 1, 62, 0
3, 29760, Note_on_c, 1, 63, 64
3, 30000, Note_on_c, 1, 63, 0
3, 30000, Note_on_c, 1, 62, 64
3, 30240, Note_on_c, 1, 62, 0
3, 30240, Note_on_c, 1, 63, 64
3, 30480, Note_on_c, 1, 63, 0
3, 30480, Note_on_c, 1, 60, 64
3, 30720, Note_on_c, 1, 60, 0
3, 30720, Note_on_c, 1, 62, 64
3, 31680, Note_on_c, 1, 62, 0
3, 35040, Note_on_c, 1, 58, 64
3, 35520, Note_on_c, 1, 58, 0
3, 35520, Note_on_c, 1, 63, 64
3, 36960, Note_on_c, 1, 63, 0
3, 36960, Note_on_c, 1, 60, 64
3, 37440, Note_on_c, 1, 60, 0
3, 37440, Note_on_c, 1, 65, 64
3, 38880, Note_on_c, 1, 65, 0
3, 38880, Note_on_c, 1, 62, 64
3, 39360, Note_on_c, 1, 62, 0
3, 39360, Note_on_c, 1, 67, 64
3, 39600, Note_on_c, 1, 67, 0
3, 39600, Note_on_c, 1, 66, 64
3, 39840, Note_on_c, 1, 66, 0
3, 39840, Note_on_c, 1, 67, 64
3, 40080, Note_on_c, 1, 67, 0
3, 40080, Note_on_c, 1, 69, 64
3, 40320, Note_on_c, 1, 69, 0
3, 40320, Note_on_c, 1, 70, 64
3, 40560, Note_on_c, 1, 70, 0
3, 40560, Note_on_c, 1, 69, 64
3, 40800, Note_on_c, 1, 69, 0
3, 40800, Note_on_c, 1, 70, 64
3, 41040, Note_on_c, 1, 70, 0
3, 41040, Note_on_c, 1, 72, 64
3, 41280, Note_on_c, 1, 72, 0
3, 41280, Note_on_c, 1, 70, 64
3, 41520, Note_on_c, 1, 70, 0
3, 41520, Note_on_c, 1, 68, 64
3, 41760, Note_on_c, 1, 68, 0
3, 41760, Note_on_c, 1, 67, 64
3, 42000, Note_on_c, 1, 67, 0
3, 42000, Note_on_c, 1, 70, 64
3, 42240, Note_on_c, 1, 70, 0
3, 42240, Note_on_c, 1, 68, 64
3, 42480, Note_on_c, 1, 68, 0
3, 42480, Note_on_c, 1, 67, 64
3, 42720, Note_on_c, 1, 67, 0
3, 42720, Note_on_c, 1, 68, 64
3, 42960, Note_on_c, 1, 68, 0
3, 42960, Note_on_c, 1, 70, 64
3, 43200, Note_on_c, 1, 70, 0
3, 43200, Note_on_c, 1, 68, 64
3, 43440, Note_on_c, 1, 68, 0
3, 43440, Note_on_c, 1, 67, 64
3, 43680, Note_on_c, 1, 67, 0
3, 43680, Note_on_c, 1, 65, 64
3, 43920, Note_on_c, 1, 65, 0
3, 43920, Note_on_c, 1, 68, 64
3, 44160, Note_on_c, 1, 68, 0
3, 44160, Note_on_c, 1, 67, 64
3, 44400, Note_on_c, 1, 67, 0
3, 44400, Note_on_c, 1, 65, 64
3, 44640, Note_on_c, 1, 65, 0
3, 44640, Note_on_c, 1, 67, 64
3, 44880, Note_on_c, 1, 67, 0
3, 44880, Note_on_c, 1, 68, 64
3, 45120, Note_on_c, 1, 68, 0
3, 45120, Note_on_c, 1, 67, 64
3, 45360, Note_on_c, 1, 67, 0
3, 45360, Note_on_c, 1, 70, 64
3, 45600, Note_on_c, 1, 70, 0
3, 45600, Note_on_c, 1, 68, 64
3, 45840, Note_on_c, 1, 68, 0
3, 45840, Note_on_c, 1, 67, 64
3, 46080, Note_on_c, 1, 67, 0
3, 46080, Note_on_c, 1, 65, 64
3, 47040, Note_on_c, 1, 65, 0
3, 47040, Note_on_c, 1, 77, 64
3, 48480, Note_on_c, 1, 77, 0
3, 48480, Note_on_c, 1, 76, 64
3, 48720, Note_on_c, 1, 76, 0
3, 48720, Note_on_c, 1, 74, 64
3, 48960, Note_on_c, 1, 74, 0
3, 48960, Note_on_c, 1, 77, 64
3, 49080, Note_on_c, 1, 77, 0
3, 49080, Note_on_c, 1, 76, 64
3, 49200, Note_on_c, 1, 76, 0
3, 49200, Note_on_c, 1, 77, 64
3, 49320, Note_on_c, 1, 77, 0
3, 49320, Note_on_c, 1, 76, 64
3, 49440, Note_on_c, 1, 76, 0
3, 49440, Note_on_c, 1, 77, 64
3, 49560, Note_on_c, 1, 77, 0
3, 49560, Note_on_c, 1, 76, 64
3, 49680, Note_on_c, 1, 76, 0
3, 49680, Note_on_c, 1, 74, 64
3, 49800, Note_on_c, 1, 74, 0
3, 49800, Note_on_c, 1, 76, 64
3, 49920, Note_on_c, 1, 76, 0
3, 49920, Note_on_c, 1, 77, 64
3, 50160, Note_on_c, 1, 77, 0
3, 50160, Note_on_c, 1, 72, 64
3, 50400, Note_on_c, 1, 72, 0
3, 50400, Note_on_c, 1, 69, 64
3, 50640, Note_on_c, 1, 69, 0
3, 50640, Note_on_c, 1, 67, 64
3, 50880, Note_on_c, 1, 67, 0
3, 50880, Note_on_c, 1, 65, 64
3, 51120, Note_on_c, 1, 65, 0
3, 51120, Note_on_c, 1, 70, 64
3, 51360, Note_on_c, 1, 70, 0
3, 51360, Note_on_c, 1, 72, 64
3, 51600, Note_on_c, 1, 72, 0
3, 51600, Note_on_c, 1, 74, 64
3, 51840, Note_on_c, 1, 74, 0
3, 51840, Note_on_c, 1, 75, 64
3, 52080, Note_on_c, 1, 75, 0
3, 52080, Note_on_c, 1, 70, 64
3, 52320, Note_on_c, 1, 70, 0
3, 52320, Note_on_c, 1, 67, 64
3, 52560, Note_on_c, 1, 67, 0
3, 52560, Note_on_c, 1, 65, 64
3, 52800, Note_on_c, 1, 65, 0
3, 52800, Note_on_c, 1, 63, 64
3, 53040, Note_on_c, 1, 63, 0
3, 53040, Note_on_c, 1, 69, 64
3, 53280, Note_on_c, 1, 69, 0
3, 53280, Note_on_c, 1, 70, 64
3, 53520, Note_on_c, 1, 70, 0
3, 53520, Note_on_c, 1, 72, 64
3, 53760, Note_on_c, 1, 72, 0
3, 53760, Note_on_c, 1, 73, 64
3, 54960, Note_on_c, 1, 73, 0
3, 54960, Note_on_c, 1, 72, 64
3, 55200, Note_on_c, 1, 72, 0
3, 55200, Note_on_c, 1, 70, 64
3, 55440, Note_on_c, 1, 70, 0
3, 55440, Note_on_c, 1, 73, 64
3, 55680, Note_on_c, 1, 73, 0
3, 55680, Note_on_c, 1, 72, 64
3, 56880, Note_on_c, 1, 72, 0
3, 56880, Note_on_c, 1, 69, 64
3, 57120, Note_on_c, 1, 69, 0
3, 57120, Note_on_c, 1, 70, 64
3, 57360, Note_on_c, 1, 70, 0
3, 57360, Note_on_c, 1, 72, 64
3, 57600, Note_on_c, 1, 72, 0
3, 57600, Note_on_c, 1, 65, 64
3, 57840, Note_on_c, 1, 65, 0
3, 57840, Note_on_c, 1, 67, 64
3, 58080, Note_on_c, 1, 67, 0
3, 58080, Note_on_c, 1, 69, 64
3, 58320, Note_on_c, 1, 69, 0
3, 58320, Note_on_c, 1, 65, 64
3, 58560, Note_on_c, 1, 65, 0
3, 58560, Note_on_c, 1, 70, 64
3, 60000, Note_on_c, 1, 70, 0
3, 60000, Note_on_c, 1, 69, 64
3, 60240, Note_on_c, 1, 69, 0
3, 60240, Note_on_c, 1, 67, 64
3, 60480, Note_on_c, 1, 67, 0
3, 60480, Note_on_c, 1, 69, 64
3, 60960, Note_on_c, 1, 69, 0
3, 60960, Note_on_c, 1, 68, 64
3, 61920, Note_on_c, 1, 68, 0
3, 61920, Note_on_c, 1, 67, 64
3, 62160, Note_on_c, 1, 67, 0
3, 62160, Note_on_c, 1, 65, 64
3, 62400, Note_on_c, 1, 65, 0
3, 62400, Note_on_c, 1, 67, 64
3, 62880, Note_on_c, 1, 67, 0
3, 62880, Note_on_c, 1, 66, 64
3, 63360, Note_on_c, 1, 66, 0
3, 63360, Note_on_c, 1, 65, 64
3, 63600, Note_on_c, 1, 65, 0
3, 63600, Note_on_c, 1, 64, 64
3, 63840, Note_on_c, 1, 64, 0
3, 63840, Note_on_c, 1, 65, 64
3, 64080, Note_on_c, 1, 65, 0
3, 64080, Note_on_c, 1, 66, 64
3, 64320, Note_on_c, 1, 66, 0
3, 64320, Note_on_c, 1, 65, 64
3, 64560, Note_on_c, 1, 65, 0
3, 64560, Note_on_c, 1, 68, 64
3, 64800, Note_on_c, 1, 68, 0
3, 64800, Note_on_c, 1, 67, 64
3, 65040, Note_on_c, 1, 67, 0
3, 65040, Note_on_c, 1, 65, 64
3, 65280, Note_on_c, 1, 65, 0
3, 65280, Note_on_c, 1, 72, 64
3, 65760, Note_on_c, 1, 72, 0
3, 65760, Note_on_c, 1, 60, 64
3, 66240, Note_on_c, 1, 60, 0
3, 72960, Note_on_c, 1, 65, 64
3, 73920, Note_on_c, 1, 65, 0
3, 73920, Note_on_c, 1, 68, 64
3, 74880, Note_on_c, 1, 68, 0
3, 74880, Note_on_c, 1, 72, 64
3, 75840, Note_on_c, 1, 72, 0
3, 75840, Note_on_c, 1, 73, 64
3, 76800, Note_on_c, 1, 73, 0
3, 76800, Note_on_c, 1, 64, 64
3, 77760, Note_on_c, 1, 64, 0
3, 78240, Note_on_c, 1, 72, 64
3, 78720, Note_on_c, 1, 72, 0
3, 78720, Note_on_c, 1, 71, 64
3, 79680, Note_on_c, 1, 71, 0
3, 79680, Note_on_c, 1, 70, 64
3, 80640, Note_on_c, 1, 70, 0
3, 80640, Note_on_c, 1, 69, 64
3, 81600, Note_on_c, 1, 69, 0
3, 81600, Note_on_c, 1, 68, 64
3, 83040, Note_on_c, 1, 68, 0
3, 83040, Note_on_c, 1, 67, 64
3, 83520, Note_on_c, 1, 67, 0
3, 83520, Note_on_c, 1, 66, 64
3, 84000, Note_on_c, 1, 66, 0
3, 84000, Note_on_c, 1, 65, 64
3, 84480, Note_on_c, 1, 65, 0
3, 84480, Note_on_c, 1, 64, 64
3, 84960, Note_on_c, 1, 64, 0
3, 84960, Note_on_c, 1, 62, 64
3, 85200, Note_on_c, 1, 62, 0
3, 85200, Note_on_c, 1, 60, 64
3, 85440, Note_on_c, 1, 60, 0
3, 85440, Note_on_c, 1, 65, 64
3, 85920, Note_on_c, 1, 65, 0
3, 85920, Note_on_c, 1, 70, 64
3, 86400, Note_on_c, 1, 70, 0
3, 86400, Note_on_c, 1, 68, 64
3, 87360, Note_on_c, 1, 68, 0
3, 87360, Note_on_c, 1, 67, 64
3, 88320, Note_on_c, 1, 67, 0
3, 88320, Note_on_c, 1, 65, 64
3, 88560, Note_on_c, 1, 65, 0
3, 88560, Note_on_c, 1, 60, 64
3, 88800, Note_on_c, 1, 60, 0
3, 88800, Note_on_c, 1, 65, 64
3, 89040, Note_on_c, 1, 65, 0
3, 89040, Note_on_c, 1, 67, 64
3, 89280, Note_on_c, 1, 67, 0
3, 89280, Note_on_c, 1, 68, 64
3, 89520, Note_on_c, 1, 68, 0
3, 89520, Note_on_c, 1, 63, 64
3, 89760, Note_on_c, 1, 63, 0
3, 89760, Note_on_c, 1, 61, 64
3, 90000, Note_on_c, 1, 61, 0
3, 90000, Note_on_c, 1, 60, 64
3, 90240, Note_on_c, 1, 60, 0
3, 90240, Note_on_c, 1, 58, 64
3, 90480, Note_on_c, 1, 58, 0
3, 90480, Note_on_c, 1, 63, 64
3, 90720, Note_on_c, 1, 63, 0
3, 90720, Note_on_c, 1, 67, 64
3, 90960, Note_on_c, 1, 67, 0
3, 90960, Note_on_c, 1, 68, 64
3, 91200, Note_on_c, 1, 68, 0
3, 91200, Note_on_c, 1, 70, 64
3, 91440, Note_on_c, 1, 70, 0
3, 91440, Note_on_c, 1, 65, 64
3, 91680, Note_on_c, 1, 65, 0
3, 91680, Note_on_c, 1, 63, 64
3, 91920, Note_on_c, 1, 63, 0
3, 91920, Note_on_c, 1, 61, 64
3, 92160, Note_on_c, 1, 61, 0
3, 92160, Note_on_c, 1, 60, 64
3, 92400, Note_on_c, 1, 60, 0
3, 92400, Note_on_c, 1, 65, 64
3, 92640, Note_on_c, 1, 65, 0
3, 92640, Note_on_c, 1, 68, 64
3, 92880, Note_on_c, 1, 68, 0
3, 92880, Note_on_c, 1, 70, 64
3, 93120, Note_on_c, 1, 70, 0
3, 93120, Note_on_c, 1, 72, 64
3, 94320, Note_on_c, 1, 72, 0
3, 94320, Note_on_c, 1, 60, 64
3, 94560, Note_on_c, 1, 60, 0
3, 94560, Note_on_c, 1, 62, 64
3, 94800, Note_on_c, 1, 62, 0
3, 94800, Note_on_c, 1, 63, 64
3, 95040, Note_on_c, 1, 63, 0
3, 95040, Note_on_c, 1, 65, 64
3, 95280, Note_on_c, 1, 65, 0
3, 95280, Note_on_c, 1, 67, 64
3, 95520, Note_on_c, 1, 67, 0
3, 95520, Note_on_c, 1, 68, 64
3, 95760, Note_on_c, 1, 68, 0
3, 95760, Note_on_c, 1, 65, 64
3, 96000, Note_on_c, 1, 65, 0
3, 96000, Note_on_c, 1, 67, 64
3, 96240, Note_on_c, 1, 67, 0
3, 96240, Note_on_c, 1, 68, 64
3, 96480, Note_on_c, 1, 68, 0
3, 96480, Note_on_c, 1, 67, 64
3, 96720, Note_on_c, 1, 67, 0
3, 96720, Note_on_c, 1, 65, 64
3, 96960, Note_on_c, 1, 65, 0
3, 96960, Note_on_c, 1, 63, 64
3, 97200, Note_on_c, 1, 63, 0
3, 97200, Note_on_c, 1, 62, 64
3, 97440, Note_on_c, 1, 62, 0
3, 97440, Note_on_c, 1, 60, 64
3, 97680, Note_on_c, 1, 60, 0
3, 97680, Note_on_c, 1, 63, 64
3, 97920, Note_on_c, 1, 63, 0
3, 97920, Note_on_c, 1, 62, 64
3, 98160, Note_on_c, 1, 62, 0
3, 98160, Note_on_c, 1, 60, 64
3, 98400, Note_on_c, 1, 60, 0
3, 98400, Note_on_c, 1, 62, 64
3, 99120, Note_on_c, 1, 62, 0
3, 99120, Note_on_c, 1, 67, 64
3, 99360, Note_on_c, 1, 67, 0
3, 99360, Note_on_c, 1, 65, 64
3, 99600, Note_on_c, 1, 65, 0
3, 99600, Note_on_c, 1, 67, 64
3, 99840, Note_on_c, 1, 67, 0
3, 99840, Note_on_c, 1, 60, 64
3, 100080, Note_on_c, 1, 60, 0
3, 100080, Note_on_c, 1, 58, 64
3, 100320, Note_on_c, 1, 58, 0
3, 100320, Note_on_c, 1, 60, 64
3, 101040, Note_on_c, 1, 60, 0
3, 101040, Note_on_c, 1, 65, 64
3, 101280, Note_on_c, 1, 65, 0
3, 101280, Note_on_c, 1, 64, 64
3, 101520, Note_on_c, 1, 64, 0
3, 101520, Note_on_c, 1, 65, 64
3, 101760, Note_on_c, 1, 65, 0
3, 101760, Note_on_c, 1, 58, 64
3, 102240, Note_on_c, 1, 58, 0
3, 102240, Note_on_c, 1, 70, 64
3, 102960, Note_on_c, 1, 70, 0
3, 102960, Note_on_c, 1, 64, 64
3, 103200, Note_on_c, 1, 64, 0
3, 103200, Note_on_c, 1, 65, 64
3, 103440, Note_on_c, 1, 65, 0
3, 103440, Note_on_c, 1, 68, 64
3, 103680, Note_on_c, 1, 68, 0
3, 103680, Note_on_c, 1, 67, 64
3, 104880, Note_on_c, 1, 67, 0
3, 104880, Note_on_c, 1, 65, 64
3, 105120, Note_on_c, 1, 65, 0
3, 105120, Note_on_c, 1, 63, 64
3, 105360, Note_on_c, 1, 63, 0
3, 105360, Note_on_c, 1, 62, 64
3, 105600, Note_on_c, 1, 62, 0
3, 105600, Note_on_c, 1, 60, 64
3, 106080, Note_on_c, 1, 60, 0
3, 106080, Note_on_c, 1, 72, 64
3, 107040, Note_on_c, 1, 72, 0
3, 107040, Note_on_c, 1, 70, 64
3, 108000, Note_on_c, 1, 70, 0
3, 108000, Note_on_c, 1, 68, 64
3, 108480, Note_on_c, 1, 68, 0
3, 108480, Note_on_c, 1, 67, 64
3, 108720, Note_on_c, 1, 67, 0
3, 108720, Note_on_c, 1, 79, 64
3, 108960, Note_on_c, 1, 79, 0
3, 108960, Note_on_c, 1, 77, 64
3, 109200, Note_on_c, 1, 77, 0
3, 109200, Note_on_c, 1, 75, 64
3, 109440, Note_on_c, 1, 75, 0
3, 109440, Note_on_c, 1, 74, 64
3, 109680, Note_on_c, 1, 74, 0
3, 109680, Note_on_c, 1, 77, 64
3, 109920, Note_on_c, 1, 77, 0
3, 109920, Note_on_c, 1, 70, 64
3, 110160, Note_on_c, 1, 70, 0
3, 110160, Note_on_c, 1, 72, 64
3, 110400, Note_on_c, 1, 72, 0
3, 110400, Note_on_c, 1, 74, 64
3, 110640, Note_on_c, 1, 74, 0
3, 110640, Note_on_c, 1, 75, 64
3, 110880, Note_on_c, 1, 75, 0
3, 110880, Note_on_c, 1, 77, 64
3, 111120, Note_on_c, 1, 77, 0
3, 111120, Note_on_c, 1, 74, 64
3, 111360, Note_on_c, 1, 74, 0
3, 111360, Note_on_c, 1, 75, 64
3, 111840, Note_on_c, 1, 75, 0
3, 111840, Note_on_c, 1, 67, 64
3, 112320, Note_on_c, 1, 67, 0
3, 112560, Note_on_c, 1, 72, 64
3, 112800, Note_on_c, 1, 72, 0
3, 112800, Note_on_c, 1, 74, 64
3, 113040, Note_on_c, 1, 74, 0
3, 113040, Note_on_c, 1, 75, 64
3, 113280, Note_on_c, 1, 75, 0
3, 113280, Note_on_c, 1, 74, 64
3, 113520, Note_on_c, 1, 74, 0
3, 113520, Note_on_c, 1, 77, 64
3, 113760, Note_on_c, 1, 77, 0
3, 113760, Note_on_c, 1, 75, 64
3, 114000, Note_on_c, 1, 75, 0
3, 114000, Note_on_c, 1, 74, 64
3, 114240, Note_on_c, 1, 74, 0
3, 114240, Note_on_c, 1, 72, 64
3, 114480, Note_on_c, 1, 72, 0
3, 114480, Note_on_c, 1, 71, 64
3, 114720, Note_on_c, 1, 71, 0
3, 114720, Note_on_c, 1, 72, 64
3, 114960, Note_on_c, 1, 72, 0
3, 114960, Note_on_c, 1, 75, 64
3, 115200, Note_on_c, 1, 75, 0
3, 115200, Note_on_c, 1, 74, 64
3, 115440, Note_on_c, 1, 74, 0
3, 115440, Note_on_c, 1, 72, 64
3, 115680, Note_on_c, 1, 72, 0
3, 115680, Note_on_c, 1, 74, 64
3, 115920, Note_on_c, 1, 74, 0
3, 115920, Note_on_c, 1, 79, 64
3, 116160, Note_on_c, 1, 79, 0
3, 116160, Note_on_c, 1, 67, 64
3, 116640, Note_on_c, 1, 67, 0
3, 116640, Note_on_c, 1, 75, 64
3, 117600, Note_on_c, 1, 75, 0
3, 117600, Note_on_c, 1, 74, 64
3, 117840, Note_on_c, 1, 74, 0
3, 117840, Note_on_c, 1, 72, 64
3, 118080, Note_on_c, 1, 72, 0
3, 118080, Note_on_c, 1, 74, 64
3, 119520, Note_on_c, 1, 74, 0
3, 119520, Note_on_c, 1, 73, 64
3, 120000, Note_on_c, 1, 73, 0
3, 120000, Note_on_c, 1, 72, 64
3, 120480, Note_on_c, 1, 72, 0
3, 120480, Note_on_c, 1, 67, 64
3, 120960, Note_on_c, 1, 67, 0
3, 120960, Note_on_c, 1, 68, 64
3, 123120, Note_on_c, 1, 68, 0
3, 123120, Note_on_c, 1, 67, 64
3, 123360, Note_on_c, 1, 67, 0
3, 123360, Note_on_c, 1, 65, 64
3, 123600, Note_on_c, 1, 65, 0
3, 123600, Note_on_c, 1, 67, 64
3, 123840, Note_on_c, 1, 67, 0
3, 123840, Note_on_c, 1, 63, 64
3, 124320, Note_on_c, 1, 63, 0
3, 124320, Note_on_c, 1, 61, 64
3, 125040, Note_on_c, 1, 61, 0
3, 125040, Note_on_c, 1, 60, 64
3, 125280, Note_on_c, 1, 60, 0
3, 125280, Note_on_c, 1, 62, 64
3, 125520, Note_on_c, 1, 62, 0
3, 125520, Note_on_c, 1, 64, 64
3, 125760, Note_on_c, 1, 64, 0
3, 125760, Note_on_c, 1, 65, 64
3, 126000, Note_on_c, 1, 65, 0
3, 126000, Note_on_c, 1, 67, 64
3, 126240, Note_on_c, 1, 67, 0
3, 126240, Note_on_c, 1, 68, 64
3, 126480, Note_on_c, 1, 68, 0
3, 126480, Note_on_c, 1, 70, 64
3, 126720, Note_on_c, 1, 70, 0
3, 126720, Note_on_c, 1, 68, 64
3, 127320, Note_on_c, 1, 68, 0
3, 127320, Note_on_c, 1, 67, 64
3, 127440, Note_on_c, 1, 67, 0
3, 127440, Note_on_c, 1, 65, 64
3, 127560, Note_on_c, 1, 65, 0
3, 127560, Note_on_c, 1, 67, 64
3, 127680, Note_on_c, 1, 67, 0
3, 127680, Note_on_c, 1, 68, 64
3, 127800, Note_on_c, 1, 68, 0
3, 127800, Note_on_c, 1, 67, 64
3, 127920, Note_on_c, 1, 67, 0
3, 127920, Note_on_c, 1, 68, 64
3, 128040, Note_on_c, 1, 68, 0
3, 128040, Note_on_c, 1, 67, 64
3, 128160, Note_on_c, 1, 67, 0
3, 128160, Note_on_c, 1, 68, 64
3, 128280, Note_on_c, 1, 68, 0
3, 128280, Note_on_c, 1, 67, 64
3, 128400, Note_on_c, 1, 67, 0
3, 128400, Note_on_c, 1, 65, 64
3, 128520, Note_on_c, 1, 65, 0
3, 128520, Note_on_c, 1, 67, 64
3, 128640, Note_on_c, 1, 67, 0
3, 128640, Note_on_c, 1, 65, 64
3, 129600, Note_on_c, 1, 65, 0
3, 130080, Note_on_c, 1, 63, 64
3, 130560, Note_on_c, 1, 63, 0
3, 130560, Note_on_c, 1, 62, 64
3, 130800, Note_on_c, 1, 62, 0
3, 130800, Note_on_c, 1, 67, 64
3, 131040, Note_on_c, 1, 67, 0
3, 131040, Note_on_c, 1, 70, 64
3, 131280, Note_on_c, 1, 70, 0
3, 131280, Note_on_c, 1, 74, 64
3, 131520, Note_on_c, 1, 74, 0
3, 131520, Note_on_c, 1, 79, 64
3, 132960, Note_on_c, 1, 79, 0
3, 132960, Note_on_c, 1, 78, 64
3, 133440, Note_on_c, 1, 78, 0
3, 133440, Note_on_c, 1, 79, 64
3, 133920, Note_on_c, 1, 79, 0
3, 133920, Note_on_c, 1, 72, 64
3, 134880, Note_on_c, 1, 72, 0
3, 134880, Note_on_c, 1, 66, 64
3, 135360, Note_on_c, 1, 66, 0
3, 135360, Note_on_c, 1, 67, 64
3, 135840, Note_on_c, 1, 67, 0
3, 135840, Note_on_c, 1, 62, 64
3, 136320, Note_on_c, 1, 62, 0
3, 136320, Note_on_c, 1, 67, 64
3, 137520, Note_on_c, 1, 67, 0
3, 137520, Note_on_c, 1, 60, 64
3, 137760, Note_on_c, 1, 60, 0
3, 137760, Note_on_c, 1, 62, 64
3, 138000, Note_on_c, 1, 62, 0
3, 138000, Note_on_c, 1, 63, 64
3, 138240, Note_on_c, 1, 63, 0
3, 138240, Note_on_c, 1, 65, 64
3, 138480, Note_on_c, 1, 65, 0
3, 138480, Note_on_c, 1, 62, 64
3, 138720, Note_on_c, 1, 62, 0
3, 138720, Note_on_c, 1, 63, 64
3, 138960, Note_on_c, 1, 63, 0
3, 138960, Note_on_c, 1, 65, 64
3, 139200, Note_on_c, 1, 65, 0
3, 139200, Note_on_c, 1, 58, 64
3, 139440, Note_on_c, 1, 58, 0
3, 139440, Note_on_c, 1, 67, 64
3, 139680, Note_on_c, 1, 67, 0
3, 139680, Note_on_c, 1, 69, 64
3, 139920, Note_on_c, 1, 69, 0
3, 139920, Note_on_c, 1, 71, 64
3, 140160, Note_on_c, 1, 71, 0
3, 140160, Note_on_c, 1, 72, 64
3, 140400, Note_on_c, 1, 72, 0
3, 140400, Note_on_c, 1, 74, 64
3, 140640, Note_on_c, 1, 74, 0
3, 140640, Note_on_c, 1, 75, 64
3, 140880, Note_on_c, 1, 75, 0
3, 140880, Note_on_c, 1, 74, 64
3, 141120, Note_on_c, 1, 74, 0
3, 141120, Note_on_c, 1, 72, 64
3, 141360, Note_on_c, 1, 72, 0
3, 141360, Note_on_c, 1, 70, 64
3, 141600, Note_on_c, 1, 70, 0
3, 141600, Note_on_c, 1, 69, 64
3, 141840, Note_on_c, 1, 69, 0
3, 141840, Note_on_c, 1, 67, 64
3, 142080, Note_on_c, 1, 67, 0
3, 142080, Note_on_c, 1, 65, 64
3, 142560, Note_on_c, 1, 65, 0
3, 142560, Note_on_c, 1, 77, 64
3, 143280, Note_on_c, 1, 77, 0
3, 143280, Note_on_c, 1, 75, 64
3, 143520, Note_on_c, 1, 75, 0
3, 143520, Note_on_c, 1, 74, 64
3, 143760, Note_on_c, 1, 74, 0
3, 143760, Note_on_c, 1, 75, 64
3, 144000, Note_on_c, 1, 75, 0
3, 144000, Note_on_c, 1, 77, 64
3, 144240, Note_on_c, 1, 77, 0
3, 144240, Note_on_c, 1, 71, 64
3, 144480, Note_on_c, 1, 71, 0
3, 144480, Note_on_c, 1, 72, 64
3, 144720, Note_on_c, 1, 72, 0
3, 144720, Note_on_c, 1, 74, 64
3, 144960, Note_on_c, 1, 74, 0
3, 144960, Note_on_c, 1, 67, 64
3, 145440, Note_on_c, 1, 67, 0
3, 145440, Note_on_c, 1, 59, 64
3, 145920, Note_on_c, 1, 59, 0
3, 145920, Note_on_c, 1, 60, 64
3, 146400, Note_on_c, 1, 60, 0
3, 146400, Note_on_c, 1, 72, 64
3, 147360, Note_on_c, 1, 72, 0
3, 147360, Note_on_c, 1, 71, 64
3, 147840, Note_on_c, 1, 71, 0
3, 147840, Note_on_c, 1, 72, 64
3, 149760, Note_on_c, 1, 72, 0
3, 149760, End_track
4, 0, Start_track
4, 0, Program_c, 2, 0
4, 1440, Note_on_c, 2, 48, 64
4, 1680, Note_on_c, 2, 48, 0
4, 1680, Note_on_c, 2, 50, 64
4, 1920, Note_on_c, 2, 50, 0
4, 1920, Note_on_c, 2, 51, 64
4, 2160, Note_on_c, 2, 51, 0
4, 2160, Note_on_c, 2, 48, 64
4, 2400, Note_on_c, 2, 48, 0
4, 2400, Note_on_c, 2, 50, 64
4, 2640, Note_on_c, 2, 50, 0
4, 2640, Note_on_c, 2, 51, 64
4, 2880, Note_on_c, 2, 51, 0
4, 2880, Note_on_c, 2, 53, 64
4, 3120, Note_on_c, 2, 53, 0
4, 3120, Note_on_c, 2, 48, 64
4, 3360, Note_on_c, 2, 48, 0
4, 3360, Note_on_c, 2, 53, 64
4, 4080, Note_on_c, 2, 53, 0
4, 4080, Note_on_c, 2, 56, 64
4, 4320, Note_on_c, 2, 56, 0
4, 4320, Note_on_c, 2, 55, 64
4, 4560, Note_on_c, 2, 55, 0
4, 4560, Note_on_c, 2, 53, 64
4, 4800, Note_on_c, 2, 53, 0
4, 4800, Note_on_c, 2, 51, 64
4, 5040, Note_on_c, 2, 51, 0
4, 5040, Note_on_c, 2, 50, 64
4, 5280, Note_on_c, 2, 50, 0
4, 5280, Note_on_c, 2, 48, 64
4, 5520, Note_on_c, 2, 48, 0
4, 5520, Note_on_c, 2, 46, 64
4, 5760, Note_on_c, 2, 46, 0
4, 5760, Note_on_c, 2, 45, 64
4, 6000, Note_on_c, 2, 45, 0
4, 6000, Note_on_c, 2, 51, 64
4, 6240, Note_on_c, 2, 51, 0
4, 6240, Note_on_c, 2, 50, 64
4, 6480, Note_on_c, 2, 50, 0
4, 6480, Note_on_c, 2, 48, 64
4, 6720, Note_on_c, 2, 48, 0
4, 6720, Note_on_c, 2, 47, 64
4, 6960, Note_on_c, 2, 47, 0
4, 6960, Note_on_c, 2, 43, 64
4, 7200, Note_on_c, 2, 43, 0
4, 7200, Note_on_c, 2, 45, 64
4, 7440, Note_on_c, 2, 45, 0
4, 7440, Note_on_c, 2, 47, 64
4, 7680, Note_on_c, 2, 47, 0
4, 7680, Note_on_c, 2, 48, 64
4, 7920, Note_on_c, 2, 48, 0
4, 7920, Note_on_c, 2, 43, 64
4, 8160, Note_on_c, 2, 43, 0
4, 8160, Note_on_c, 2, 48, 64
4, 8400, Note_on_c, 2, 48, 0
4, 8400, Note_on_c, 2, 50, 64
4, 8640, Note_on_c, 2, 50, 0
4, 8640, Note_on_c, 2, 48, 64
4, 8880, Note_on_c, 2, 48, 0
4, 8880, Note_on_c, 2, 46, 64
4, 9120, Note_on_c, 2, 46, 0
4, 9120, Note_on_c, 2, 44, 64
4, 9360, Note_on_c, 2, 44, 0
4, 9360, Note_on_c, 2, 43, 64
4, 9600, Note_on_c, 2, 43, 0
4, 9600, Note_on_c, 2, 41, 64
4, 9840, Note_on_c, 2, 41, 0
4, 9840, Note_on_c, 2, 48, 64
4, 10080, Note_on_c, 2, 48, 0
4, 10080, Note_on_c, 2, 53, 64
4, 10320, Note_on_c, 2, 53, 0
4, 10320, Note_on_c, 2, 52, 64
4, 10560, Note_on_c, 2, 52, 0
4, 10560, Note_on_c, 2, 53, 64
4, 11760, Note_on_c, 2, 53, 0
4, 11760, Note_on_c, 2, 50, 64
4, 12000, Note_on_c, 2, 50, 0
4, 12000, Note_on_c, 2, 51, 64
4, 12240, Note_on_c, 2, 51, 0
4, 12240, Note_on_c, 2, 53, 64
4, 12480, Note_on_c, 2, 53, 0
4, 12480, Note_on_c, 2, 51, 64
4, 12720, Note_on_c, 2, 51, 0
4, 12720, Note_on_c, 2, 50, 64
4, 12960, Note_on_c, 2, 50, 0
4, 12960, Note_on_c, 2, 48, 64
4, 13200, Note_on_c, 2, 48, 0
4, 13200, Note_on_c, 2, 47, 64
4, 13440, Note_on_c, 2, 47, 0
4, 13440, Note_on_c, 2, 48, 64
4, 13920, Note_on_c, 2, 48, 0
4, 13920, Note_on_c, 2, 44, 64
4, 14400, Note_on_c, 2, 44, 0
4, 14400, Note_on_c, 2, 41, 64
4, 14880, Note_on_c, 2, 41, 0
4, 14880, Note_on_c, 2, 43, 64
4, 15360, Note_on_c, 2, 43, 0
4, 15360, Note_on_c, 2, 36, 64
4, 16320, Note_on_c, 2, 36, 0
4, 16800, Note_on_c, 2, 48, 64
4, 17280, Note_on_c, 2, 48, 0
4, 17280, Note_on_c, 2, 50, 64
4, 18240, Note_on_c, 2, 50, 0
4, 18720, Note_on_c, 2, 38, 64
4, 19200, Note_on_c, 2, 38, 0
4, 19200, Note_on_c, 2, 39, 64
4, 20160, Note_on_c, 2, 39, 0
4, 20400, Note_on_c, 2, 51, 64
4, 20640, Note_on_c, 2, 51, 0
4, 20640, Note_on_c, 2, 50, 64
4, 20880, Note_on_c, 2, 50, 0
4, 20880, Note_on_c, 2, 48, 64
4, 21120, Note_on_c, 2, 48, 0
4, 21120, Note_on_c, 2, 46, 64
4, 21360, Note_on_c, 2, 46, 0
4, 21360, Note_on_c, 2, 43, 64
4, 21600, Note_on_c, 2, 43, 0
4, 21600, Note_on_c, 2, 45, 64
4, 21840, Note_on_c, 2, 45, 0
4, 21840, Note_on_c, 2, 46, 64
4, 22080, Note_on_c, 2, 46, 0
4, 22080, Note_on_c, 2, 48, 64
4, 22320, Note_on_c, 2, 48, 0
4, 22320, Note_on_c, 2, 50, 64
4, 22560, Note_on_c, 2, 50, 0
4, 22560, Note_on_c, 2, 51, 64
4, 22800, Note_on_c, 2, 51, 0
4, 22800, Note_on_c, 2, 48, 64
4, 23040, Note_on_c, 2, 48, 0
4, 23040, Note_on_c, 2, 50, 64
4, 23520, Note_on_c, 2, 50, 0
4, 23520, Note_on_c, 2, 38, 64
4, 24000, Note_on_c, 2, 38, 0
4, 24240, Note_on_c, 2, 50, 64
4, 24480, Note_on_c, 2, 50, 0
4, 24480, Note_on_c, 2, 52, 64
4, 24720, Note_on_c, 2, 52, 0
4, 24720, Note_on_c, 2, 53, 64
4, 24960, Note_on_c, 2, 53, 0
4, 24960, Note_on_c, 2, 52, 64
4, 25200, Note_on_c, 2, 52, 0
4, 25200, Note_on_c, 2, 55, 64
4, 25440, Note_on_c, 2, 55, 0
4, 25440, Note_on_c, 2, 53, 64
4, 25680, Note_on_c, 2, 53, 0
4, 25680, Note_on_c, 2, 52, 64
4, 25920, Note_on_c, 2, 52, 0
4, 25920, Note_on_c, 2, 53, 64
4, 26160, Note_on_c, 2, 53, 0
4, 26160, Note_on_c, 2, 48, 64
4, 26400, Note_on_c, 2, 48, 0
4, 26400, Note_on_c, 2, 50, 64
4, 26640, Note_on_c, 2, 50, 0
4, 26640, Note_on_c, 2, 51, 64
4, 26880, Note_on_c, 2, 51, 0
4, 26880, Note_on_c, 2, 50, 64
4, 27120, Note_on_c, 2, 50, 0
4, 27120, Note_on_c, 2, 53, 64
4, 27360, Note_on_c, 2, 53, 0
4, 27360, Note_on_c, 2, 51, 64
4, 27600, Note_on_c, 2, 51, 0
4, 27600, Note_on_c, 2, 50, 64
4, 27840, Note_on_c, 2, 50, 0
4, 27840, Note_on_c, 2, 51, 64
4, 28080, Note_on_c, 2, 51, 0
4, 28080, Note_on_c, 2, 46, 64
4, 28320, Note_on_c, 2, 46, 0
4, 28320, Note_on_c, 2, 48, 64
4, 28560, Note_on_c, 2, 48, 0
4, 28560, Note_on_c, 2, 50, 64
4, 28800, Note_on_c, 2, 50, 0
4, 28800, Note_on_c, 2, 48, 64
4, 29040, Note_on_c, 2, 48, 0
4, 29040, Note_on_c, 2, 55, 64
4, 29280, Note_on_c, 2, 55, 0
4, 29280, Note_on_c, 2, 60, 64
4, 29520, Note_on_c, 2, 60, 0
4, 29520, Note_on_c, 2, 59, 64
4, 29760, Note_on_c, 2, 59, 0
4, 29760, Note_on_c, 2, 60, 64
4, 30960, Note_on_c, 2, 60, 0
4, 30960, Note_on_c, 2, 57, 64
4, 31200, Note_on_c, 2, 57, 0
4, 31200, Note_on_c, 2, 58, 64
4, 31440, Note_on_c, 2, 58, 0
4, 31440, Note_on_c, 2, 60, 64
4, 31680, Note_on_c, 2, 60, 0
4, 31680, Note_on_c, 2, 58, 64
4, 31920, Note_on_c, 2, 58, 0
4, 31920, Note_on_c, 2, 57, 64
4, 32160, Note_on_c, 2, 57, 0
4, 32160, Note_on_c, 2, 55, 64
4, 32400, Note_on_c, 2, 55, 0
4, 32400, Note_on_c, 2, 54, 64
4, 32640, Note_on_c, 2, 54, 0
4, 32640, Note_on_c, 2, 55, 64
4, 32880, Note_on_c, 2, 55, 0
4, 32880, Note_on_c, 2, 53, 64
4, 33120, Note_on_c, 2, 53, 0
4, 33120, Note_on_c, 2, 51, 64
4, 33360, Note_on_c, 2, 51, 0
4, 33360, Note_on_c, 2, 50, 64
4, 33600, Note_on_c, 2, 50, 0
4, 33600, Note_on_c, 2, 48, 64
4, 33840, Note_on_c, 2, 48, 0
4, 33840, Note_on_c, 2, 51, 64
4, 34080, Note_on_c, 2, 51, 0
4, 34080, Note_on_c, 2, 50, 64
4, 34320, Note_on_c, 2, 50, 0
4, 34320, Note_on_c, 2, 48, 64
4, 34560, Note_on_c, 2, 48, 0
4, 34560, Note_on_c, 2, 46, 64
4, 35040, Note_on_c, 2, 46, 0
4, 35040, Note_on_c, 2, 43, 64
4, 35520, Note_on_c, 2, 43, 0
4, 36000, Note_on_c, 2, 55, 64
4, 36480, Note_on_c, 2, 55, 0
4, 36480, Note_on_c, 2, 57, 64
4, 37440, Note_on_c, 2, 57, 0
4, 37920, Note_on_c, 2, 45, 64
4, 38400, Note_on_c, 2, 45, 0
4, 38400, Note_on_c, 2, 46, 64
4, 39360, Note_on_c, 2, 46, 0
4, 39840, Note_on_c, 2, 58, 64
4, 40080, Note_on_c, 2, 58, 0
4, 40080, Note_on_c, 2, 57, 64
4, 40320, Note_on_c, 2, 57, 0
4, 40320, Note_on_c, 2, 55, 64
4, 40560, Note_on_c, 2, 55, 0
4, 40560, Note_on_c, 2, 54, 64
4, 40800, Note_on_c, 2, 54, 0
4, 40800, Note_on_c, 2, 55, 64
4, 41040, Note_on_c, 2, 55, 0
4, 41040, Note_on_c, 2, 57, 64
4, 41280, Note_on_c, 2, 57, 0
4, 41280, Note_on_c, 2, 55, 64
4, 41520, Note_on_c, 2, 55, 0
4, 41520, Note_on_c, 2, 53, 64
4, 41760, Note_on_c, 2, 53, 0
4, 41760, Note_on_c, 2, 51, 64
4, 42000, Note_on_c, 2, 51, 0
4, 42000, Note_on_c, 2, 50, 64
4, 42240, Note_on_c, 2, 50, 0
4, 42240, Note_on_c, 2, 48, 64
4, 43200, Note_on_c, 2, 48, 0
4, 43200, Note_on_c, 2, 50, 64
4, 44160, Note_on_c, 2, 50, 0
4, 44160, Note_on_c, 2, 47, 64
4, 45120, Note_on_c, 2, 47, 0
4, 45120, Note_on_c, 2, 48, 64
4, 45600, Note_on_c, 2, 48, 0
4, 45600, Note_on_c, 2, 60, 64
4, 46080, Note_on_c, 2, 60, 0
4, 46080, Note_on_c, 2, 62, 64
4, 46320, Note_on_c, 2, 62, 0
4, 46320, Note_on_c, 2, 60, 64
4, 46560, Note_on_c, 2, 60, 0
4, 46560, Note_on_c, 2, 62, 64
4, 46800, Note_on_c, 2, 62, 0
4, 46800, Note_on_c, 2, 63, 64
4, 47040, Note_on_c, 2, 63, 0
4, 47040, Note_on_c, 2, 62, 64
4, 47280, Note_on_c, 2, 62, 0
4, 47280, Note_on_c, 2, 60, 64
4, 47520, Note_on_c, 2, 60, 0
4, 47520, Note_on_c, 2, 59, 64
4, 47760, Note_on_c, 2, 59, 0
4, 47760, Note_on_c, 2, 57, 64
4, 48000, Note_on_c, 2, 57, 0
4, 48000, Note_on_c, 2, 55, 64
4, 48480, Note_on_c, 2, 55, 0
4, 48480, Note_on_c, 2, 60, 64
4, 49440, Note_on_c, 2, 60, 0
4, 49440, Note_on_c, 2, 48, 64
4, 49920, Note_on_c, 2, 48, 0
4, 49920, Note_on_c, 2, 53, 64
4, 50400, Note_on_c, 2, 53, 0
4, 50400, Note_on_c, 2, 51, 64
4, 50880, Note_on_c, 2, 51, 0
4, 50880, Note_on_c, 2, 50, 64
4, 51840, Note_on_c, 2, 50, 0
4, 51840, Note_on_c, 2, 49, 64
4, 52800, Note_on_c, 2, 49, 0
4, 52800, Note_on_c, 2, 48, 64
4, 53760, Note_on_c, 2, 48, 0
4, 53760, Note_on_c, 2, 46, 64
4, 54000, Note_on_c, 2, 46, 0
4, 54000, Note_on_c, 2, 53, 64
4, 54240, Note_on_c, 2, 53, 0
4, 54240, Note_on_c, 2, 58, 64
4, 54480, Note_on_c, 2, 58, 0
4, 54480, Note_on_c, 2, 56, 64
4, 54720, Note_on_c, 2, 56, 0
4, 54720, Note_on_c, 2, 55, 64
4, 55200, Note_on_c, 2, 55, 0
4, 55200, Note_on_c, 2, 53, 64
4, 55680, Note_on_c, 2, 53, 0
4, 55680, Note_on_c, 2, 52, 64
4, 55920, Note_on_c, 2, 52, 0
4, 55920, Note_on_c, 2, 50, 64
4, 56160, Note_on_c, 2, 50, 0
4, 56160, Note_on_c, 2, 52, 64
4, 56400, Note_on_c, 2, 52, 0
4, 56400, Note_on_c, 2, 55, 64
4, 56640, Note_on_c, 2, 55, 0
4, 56640, Note_on_c, 2, 53, 64
4, 57120, Note_on_c, 2, 53, 0
4, 57120, Note_on_c, 2, 51, 64
4, 57600, Note_on_c, 2, 51, 0
4, 57600, Note_on_c, 2, 50, 64
4, 57840, Note_on_c, 2, 50, 0
4, 57840, Note_on_c, 2, 51, 64
4, 58080, Note_on_c, 2, 51, 0
4, 58080, Note_on_c, 2, 53, 64
4, 58320, Note_on_c, 2, 53, 0
4, 58320, Note_on_c, 2, 51, 64
4, 58560, Note_on_c, 2, 51, 0
4, 58560, Note_on_c, 2, 50, 64
4, 59040, Note_on_c, 2, 50, 0
4, 59040, Note_on_c, 2, 55, 64
4, 59520, Note_on_c, 2, 55, 0
4, 59520, Note_on_c, 2, 53, 64
4, 60480, Note_on_c, 2, 53, 0
4, 60960, Note_on_c, 2, 46, 64
4, 61440, Note_on_c, 2, 46, 0
4, 61440, Note_on_c, 2, 51, 64
4, 62400, Note_on_c, 2, 51, 0
4, 62880, Note_on_c, 2, 39, 64
4, 63360, Note_on_c, 2, 39, 0
4, 63360, Note_on_c, 2, 46, 64
4, 63840, Note_on_c, 2, 46, 0
4, 63840, Note_on_c, 2, 58, 64
4, 64080, Note_on_c, 2, 58, 0
4, 64080, Note_on_c, 2, 57, 64
4, 64320, Note_on_c, 2, 57, 0
4, 64320, Note_on_c, 2, 58, 64
4, 65760, Note_on_c, 2, 58, 0
4, 65760, Note_on_c, 2, 56, 64
4, 66000, Note_on_c, 2, 56, 0
4, 66000, Note_on_c, 2, 55, 64
4, 66240, Note_on_c, 2, 55, 0
4, 66240, Note_on_c, 2, 56, 64
4, 66480, Note_on_c, 2, 56, 0
4, 66480, Note_on_c, 2, 55, 64
4, 66720, Note_on_c, 2, 55, 0
4, 66720, Note_on_c, 2, 53, 64
4, 66960, Note_on_c, 2, 53, 0
4, 66960, Note_on_c, 2, 51, 64
4, 67200, Note_on_c, 2, 51, 0
4, 67200, Note_on_c, 2, 50, 64
4, 67440, Note_on_c, 2, 50, 0
4, 67440, Note_on_c, 2, 48, 64
4, 67680, Note_on_c, 2, 48, 0
4, 67680, Note_on_c, 2, 50, 64
4, 67920, Note_on_c, 2, 50, 0
4, 67920, Note_on_c, 2, 51, 64
4, 68160, Note_on_c, 2, 51, 0
4, 68160, Note_on_c, 2, 50, 64
4, 68400, Note_on_c, 2, 50, 0
4, 68400, Note_on_c, 2, 51, 64
4, 68640, Note_on_c, 2, 51, 0
4, 68640, Note_on_c, 2, 53, 64
4, 68880, Note_on_c, 2, 53, 0
4, 68880, Note_on_c, 2, 50, 64
4, 69120, Note_on_c, 2, 50, 0
4, 69120, Note_on_c, 2, 52, 64
4, 69600, Note_on_c, 2, 52, 0
4, 69600, Note_on_c, 2, 60, 64
4, 70080, Note_on_c, 2, 60, 0
4, 70080, Note_on_c, 2, 51, 64
4, 70560, Note_on_c, 2, 51, 0
4, 70560, Note_on_c, 2, 48, 64
4, 71040, Note_on_c, 2, 48, 0
4, 71040, Note_on_c, 2, 50, 64
4, 71520, Note_on_c, 2, 50, 0
4, 71520, Note_on_c, 2, 58, 64
4, 72000, Note_on_c, 2, 58, 0
4, 72000, Note_on_c, 2, 49, 64
4, 72480, Note_on_c, 2, 49, 0
4, 72480, Note_on_c, 2, 46, 64
4, 72960, Note_on_c, 2, 46, 0
4, 72960, Note_on_c, 2, 53, 64
4, 73200, Note_on_c, 2, 53, 0
4, 73200, Note_on_c, 2, 52, 64
4, 73440, Note_on_c, 2, 52, 0
4, 73440, Note_on_c, 2, 53, 64
4, 73680, Note_on_c, 2, 53, 0
4, 73680, Note_on_c, 2, 55, 64
4, 73920, Note_on_c, 2, 55, 0
4, 73920, Note_on_c, 2, 53, 64
4, 74160, Note_on_c, 2, 53, 0
4, 74160, Note_on_c, 2, 52, 64
4, 74400, Note_on_c, 2, 52, 0
4, 74400, Note_on_c, 2, 50, 64
4, 74640, Note_on_c, 2, 50, 0
4, 74640, Note_on_c, 2, 53, 64
4, 74880, Note_on_c, 2, 53, 0
4, 74880, Note_on_c, 2, 52, 64
4, 75120, Note_on_c, 2, 52, 0
4, 75120, Note_on_c, 2, 53, 64
4, 75360, Note_on_c, 2, 53, 0
4, 75360, Note_on_c, 2, 55, 64
4, 75600, Note_on_c, 2, 55, 0
4, 75600, Note_on_c, 2, 56, 64
4, 75840, Note_on_c, 2, 56, 0
4, 75840, Note_on_c, 2, 58, 64
4, 77040, Note_on_c, 2, 58, 0
4, 77040, Note_on_c, 2, 56, 64
4, 77280, Note_on_c, 2, 56, 0
4, 77280, Note_on_c, 2, 55, 64
4, 77520, Note_on_c, 2, 55, 0
4, 77520, Note_on_c, 2, 58, 64
4, 77760, Note_on_c, 2, 58, 0
4, 77760, Note_on_c, 2, 56, 64
4, 78000, Note_on_c, 2, 56, 0
4, 78000, Note_on_c, 2, 55, 64
4, 78240, Note_on_c, 2, 55, 0
4, 78240, Note_on_c, 2, 53, 64
4, 78480, Note_on_c, 2, 53, 0
4, 78480, Note_on_c, 2, 51, 64
4, 78720, Note_on_c, 2, 51, 0
4, 78720, Note_on_c, 2, 50, 64
4, 79200, Note_on_c, 2, 50, 0
4, 79200, Note_on_c, 2, 43, 64
4, 79680, Note_on_c, 2, 43, 0
4, 79680, Note_on_c, 2, 48, 64
4, 79920, Note_on_c, 2, 48, 0
4, 79920, Note_on_c, 2, 50, 64
4, 80160, Note_on_c, 2, 50, 0
4, 80160, Note_on_c, 2, 51, 64
4, 80400, Note_on_c, 2, 51, 0
4, 80400, Note_on_c, 2, 48, 64
4, 80640, Note_on_c, 2, 48, 0
4, 80640, Note_on_c, 2, 53, 64
4, 81120, Note_on_c, 2, 53, 0
4, 81120, Note_on_c, 2, 41, 64
4, 81600, Note_on_c, 2, 41, 0
4, 81600, Note_on_c, 2, 46, 64
4, 81840, Note_on_c, 2, 46, 0
4, 81840, Note_on_c, 2, 48, 64
4, 82080, Note_on_c, 2, 48, 0
4, 82080, Note_on_c, 2, 49, 64
4, 82320, Note_on_c, 2, 49, 0
4, 82320, Note_on_c, 2, 46, 64
4, 82560, Note_on_c, 2, 46, 0
4, 82560, Note_on_c, 2, 51, 64
4, 82800, Note_on_c, 2, 51, 0
4, 82800, Note_on_c, 2, 50, 64
4, 83040, Note_on_c, 2, 50, 0
4, 83040, Note_on_c, 2, 51, 64
4, 83520, Note_on_c, 2, 51, 0
4, 83520, Note_on_c, 2, 45, 64
4, 84000, Note_on_c, 2, 45, 0
4, 84000, Note_on_c, 2, 46, 64
4, 84720, Note_on_c, 2, 46, 0
4, 84720, Note_on_c, 2, 55, 64
4, 84960, Note_on_c, 2, 55, 0
4, 84960, Note_on_c, 2, 56, 64
4, 85200, Note_on_c, 2, 56, 0
4, 85200, Note_on_c, 2, 58, 64
4, 85440, Note_on_c, 2, 58, 0
4, 85440, Note_on_c, 2, 56, 64
4, 85680, Note_on_c, 2, 56, 0
4, 85680, Note_on_c, 2, 55, 64
4, 85920, Note_on_c, 2, 55, 0
4, 85920, Note_on_c, 2, 53, 64
4, 86160, Note_on_c, 2, 53, 0
4, 86160, Note_on_c, 2, 52, 64
4, 86400, Note_on_c, 2, 52, 0
4, 86400, Note_on_c, 2, 53, 64
4, 86640, Note_on_c, 2, 53, 0
4, 86640, Note_on_c, 2, 55, 64
4, 86880, Note_on_c, 2, 55, 0
4, 86880, Note_on_c, 2, 56, 64
4, 87120, Note_on_c, 2, 56, 0
4, 87120, Note_on_c, 2, 58, 64
4, 87360, Note_on_c, 2, 58, 0
4, 87360, Note_on_c, 2, 60, 64
4, 87600, Note_on_c, 2, 60, 0
4, 87600, Note_on_c, 2, 61, 64
4, 87840, Note_on_c, 2, 61, 0
4, 87840, Note_on_c, 2, 60, 64
4, 88080, Note_on_c, 2, 60, 0
4, 88080, Note_on_c, 2, 58, 64
4, 88320, Note_on_c, 2, 58, 0
4, 88320, Note_on_c, 2, 56, 64
4, 88800, Note_on_c, 2, 56, 0
4, 88800, Note_on_c, 2, 55, 64
4, 89280, Note_on_c, 2, 55, 0
4, 89280, Note_on_c, 2, 53, 64
4, 89760, Note_on_c, 2, 53, 0
4, 89760, Note_on_c, 2, 56, 64
4, 90240, Note_on_c, 2, 56, 0
4, 90240, Note_on_c, 2, 55, 64
4, 90720, Note_on_c, 2, 55, 0
4, 90720, Note_on_c, 2, 53, 64
4, 91200, Note_on_c, 2, 53, 0
4, 91200, Note_on_c, 2, 51, 64
4, 91680, Note_on_c, 2, 51, 0
4, 91680, Note_on_c, 2, 55, 64
4, 92160, Note_on_c, 2, 55, 0
4, 92160, Note_on_c, 2, 44, 64
4, 93120, Note_on_c, 2, 44, 0
4, 93360, Note_on_c, 2, 56, 64
4, 93600, Note_on_c, 2, 56, 0
4, 93600, Note_on_c, 2, 55, 64
4, 93840, Note_on_c, 2, 55, 0
4, 93840, Note_on_c, 2, 53, 64
4, 94080, Note_on_c, 2, 53, 0
4, 94080, Note_on_c, 2, 51, 64
4, 94560, Note_on_c, 2, 51, 0
4, 94560, Note_on_c, 2, 48, 64
4, 95040, Note_on_c, 2, 48, 0
4, 96480, Note_on_c, 2, 55, 64
4, 96960, Note_on_c, 2, 55, 0
4, 96960, Note_on_c, 2, 60, 64
4, 98400, Note_on_c, 2, 60, 0
4, 98400, Note_on_c, 2, 59, 64
4, 98640, Note_on_c, 2, 59, 0
4, 98640, Note_on_c, 2, 57, 64
4, 98880, Note_on_c, 2, 57, 0
4, 98880, Note_on_c, 2, 55, 64
4, 99120, Note_on_c, 2, 55, 0
4, 99120, Note_on_c, 2, 57, 64
4, 99360, Note_on_c, 2, 57, 0
4, 99360, Note_on_c, 2, 58, 64
4, 100320, Note_on_c, 2, 58, 0
4, 100320, Note_on_c, 2, 57, 64
4, 100560, Note_on_c, 2, 57, 0
4, 100560, Note_on_c, 2, 55, 64
4, 100800, Note_on_c, 2, 55, 0
4, 100800, Note_on_c, 2, 53, 64
4, 101040, Note_on_c, 2, 53, 0
4, 101040, Note_on_c, 2, 55, 64
4, 101280, Note_on_c, 2, 55, 0
4, 101280, Note_on_c, 2, 56, 64
4, 102000, Note_on_c, 2, 56, 0
4, 102000, Note_on_c, 2, 55, 64
4, 102240, Note_on_c, 2, 55, 0
4, 102240, Note_on_c, 2, 53, 64
4, 102480, Note_on_c, 2, 53, 0
4, 102480, Note_on_c, 2, 52, 64
4, 102720, Note_on_c, 2, 52, 0
4, 102720, Note_on_c, 2, 53, 64
4, 103920, Note_on_c, 2, 53, 0
4, 103920, Note_on_c, 2, 50, 64
4, 104160, Note_on_c, 2, 50, 0
4, 104160, Note_on_c, 2, 51, 64
4, 104400, Note_on_c, 2, 51, 0
4, 104400, Note_on_c, 2, 53, 64
4, 104640, Note_on_c, 2, 53, 0
4, 104640, Note_on_c, 2, 51, 64
4, 104880, Note_on_c, 2, 51, 0
4, 104880, Note_on_c, 2, 50, 64
4, 105120, Note_on_c, 2, 50, 0
4, 105120, Note_on_c, 2, 48, 64
4, 105360, Note_on_c, 2, 48, 0
4, 105360, Note_on_c, 2, 47, 64
4, 105600, Note_on_c, 2, 47, 0
4, 105600, Note_on_c, 2, 48, 64
4, 105840, Note_on_c, 2, 48, 0
4, 105840, Note_on_c, 2, 46, 64
4, 106080, Note_on_c, 2, 46, 0
4, 106080, Note_on_c, 2, 44, 64
4, 106320, Note_on_c, 2, 44, 0
4, 106320, Note_on_c, 2, 43, 64
4, 106560, Note_on_c, 2, 43, 0
4, 106560, Note_on_c, 2, 41, 64
4, 106800, Note_on_c, 2, 41, 0
4, 106800, Note_on_c, 2, 39, 64
4, 107040, Note_on_c, 2, 39, 0
4, 107040, Note_on_c, 2, 41, 64
4, 107280, Note_on_c, 2, 41, 0
4, 107280, Note_on_c, 2, 43, 64
4, 107520, Note_on_c, 2, 43, 0
4, 107520, Note_on_c, 2, 44, 64
4, 108480, Note_on_c, 2, 44, 0
4, 109200, Note_on_c, 2, 45, 64
4, 109440, Note_on_c, 2, 45, 0
4, 109440, Note_on_c, 2, 46, 64
4, 110400, Note_on_c, 2, 46, 0
4, 111120, Note_on_c, 2, 47, 64
4, 111360, Note_on_c, 2, 47, 0
4, 111360, Note_on_c, 2, 48, 64
4, 112320, Note_on_c, 2, 48, 0
4, 112320, Note_on_c, 2, 51, 64
4, 113280, Note_on_c, 2, 51, 0
4, 113280, Note_on_c, 2, 55, 64
4, 114240, Note_on_c, 2, 55, 0
4, 114240, Note_on_c, 2, 56, 64
4, 115200, Note_on_c, 2, 56, 0
4, 115200, Note_on_c, 2, 47, 64
4, 116160, Note_on_c, 2, 47, 0
4, 116640, Note_on_c, 2, 55, 64
4, 117120, Note_on_c, 2, 55, 0
4, 117120, Note_on_c, 2, 54, 64
4, 118080, Note_on_c, 2, 54, 0
4, 118080, Note_on_c, 2, 53, 64
4, 119040, Note_on_c, 2, 53, 0
4, 119040, Note_on_c, 2, 52, 64
4, 120000, Note_on_c, 2, 52, 0
4, 120000, Note_on_c, 2, 51, 64
4, 121440, Note_on_c, 2, 51, 0
4, 121440, Note_on_c, 2, 50, 64
4, 121920, Note_on_c, 2, 50, 0
4, 121920, Note_on_c, 2, 49, 64
4, 122400, Note_on_c, 2, 49, 0
4, 122400, Note_on_c, 2, 48, 64
4, 122880, Note_on_c, 2, 48, 0
4, 122880, Note_on_c, 2, 47, 64
4, 123360, Note_on_c, 2, 47, 0
4, 123360, Note_on_c, 2, 45, 64
4, 123600, Note_on_c, 2, 45, 0
4, 123600, Note_on_c, 2, 43, 64
4, 123840, Note_on_c, 2, 43, 0
4, 123840, Note_on_c, 2, 48, 64
4, 124320, Note_on_c, 2, 48, 0
4, 124320, Note_on_c, 2, 53, 64
4, 124800, Note_on_c, 2, 53, 0
4, 124800, Note_on_c, 2, 51, 64
4, 125280, Note_on_c, 2, 51, 0
4, 125280, Note_on_c, 2, 50, 64
4, 125520, Note_on_c, 2, 50, 0
4, 125520, Note_on_c, 2, 48, 64
4, 125760, Note_on_c, 2, 48, 0
4, 125760, Note_on_c, 2, 50, 64
4, 126720, Note_on_c, 2, 50, 0
4, 126720, Note_on_c, 2, 48, 64
4, 127200, Note_on_c, 2, 48, 0
4, 127200, Note_on_c, 2, 60, 64
4, 127920, Note_on_c, 2, 60, 0
4, 127920, Note_on_c, 2, 58, 64
4, 128160, Note_on_c, 2, 58, 0
4, 128160, Note_on_c, 2, 63, 64
4, 129120, Note_on_c, 2, 63, 0
4, 129120, Note_on_c, 2, 62, 64
4, 129600, Note_on_c, 2, 62, 0
4, 129600, Note_on_c, 2, 60, 64
4, 130080, Note_on_c, 2, 60, 0
4, 130080, Note_on_c, 2, 54, 64
4, 130560, Note_on_c, 2, 54, 0
4, 130560, Note_on_c, 2, 55, 64
4, 131040, Note_on_c, 2, 55, 0
4, 131040, Note_on_c, 2, 53, 64
4, 131520, Note_on_c, 2, 53, 0
4, 131520, Note_on_c, 2, 51, 64
4, 132000, Note_on_c, 2, 51, 0
4, 132000, Note_on_c, 2, 50, 64
4, 132480, Note_on_c, 2, 50, 0
4, 132480, Note_on_c, 2, 48, 64
4, 132960, Note_on_c, 2, 48, 0
4, 132960, Note_on_c, 2, 50, 64
4, 133440, Note_on_c, 2, 50, 0
4, 133440, Note_on_c, 2, 51, 64
4, 134880, Note_on_c, 2, 51, 0
4, 134880, Note_on_c, 2, 50, 64
4, 135120, Note_on_c, 2, 50, 0
4, 135120, Note_on_c, 2, 48, 64
4, 135360, Note_on_c, 2, 48, 0
4, 135360, Note_on_c, 2, 46, 64
4, 135600, Note_on_c, 2, 46, 0
4, 135600, Note_on_c, 2, 45, 64
4, 135840, Note_on_c, 2, 45, 0
4, 135840, Note_on_c, 2, 43, 64
4, 136080, Note_on_c, 2, 43, 0
4, 136080, Note_on_c, 2, 41, 64
4, 136320, Note_on_c, 2, 41, 0
4, 136320, Note_on_c, 2, 39, 64
4, 136560, Note_on_c, 2, 39, 0
4, 136560, Note_on_c, 2, 48, 64
4, 136800, Note_on_c, 2, 48, 0
4, 136800, Note_on_c, 2, 50, 64
4, 137040, Note_on_c, 2, 50, 0
4, 137040, Note_on_c, 2, 52, 64
4, 137280, Note_on_c, 2, 52, 0
4, 137280, Note_on_c, 2, 53, 64
4, 137520, Note_on_c, 2, 53, 0
4, 137520, Note_on_c, 2, 55, 64
4, 137760, Note_on_c, 2, 55, 0
4, 137760, Note_on_c, 2, 53, 64
4, 138000, Note_on_c, 2, 53, 0
4, 138000, Note_on_c, 2, 51, 64
4, 138240, Note_on_c, 2, 51, 0
4, 138240, Note_on_c, 2, 50, 64
4, 138480, Note_on_c, 2, 50, 0
4, 138480, Note_on_c, 2, 46, 64
4, 138720, Note_on_c, 2, 46, 0
4, 138720, Note_on_c, 2, 48, 64
4, 138960, Note_on_c, 2, 48, 0
4, 138960, Note_on_c, 2, 50, 64
4, 139200, Note_on_c, 2, 50, 0
4, 139200, Note_on_c, 2, 51, 64
4, 139680, Note_on_c, 2, 51, 0
4, 139680, Note_on_c, 2, 55, 64
4, 140160, Note_on_c, 2, 55, 0
4, 140160, Note_on_c, 2, 48, 64
4, 140640, Note_on_c, 2, 48, 0
4, 140640, Note_on_c, 2, 43, 64
4, 141120, Note_on_c, 2, 43, 0
4, 141120, Note_on_c, 2, 39, 64
4, 141600, Note_on_c, 2, 39, 0
4, 141600, Note_on_c, 2, 36, 64
4, 142080, Note_on_c, 2, 36, 0
4, 142080, Note_on_c, 2, 38, 64
4, 142560, Note_on_c, 2, 38, 0
4, 142560, Note_on_c, 2, 50, 64
4, 143520, Note_on_c, 2, 50, 0
4, 143520, Note_on_c, 2, 48, 64
4, 144000, Note_on_c, 2, 48, 0
4, 144000, Note_on_c, 2, 47, 64
4, 144480, Note_on_c, 2, 47, 0
4, 144480, Note_on_c, 2, 51, 64
4, 145440, Note_on_c, 2, 51, 0
4, 145440, Note_on_c, 2, 50, 64
4, 145920, Note_on_c, 2, 50, 0
4, 145920, Note_on_c, 2, 48, 64
4, 146400, Note_on_c, 2, 48, 0
4, 146400, Note_on_c, 2, 44, 64
4, 146880, Note_on_c, 2, 44, 0
4, 146880, Note_on_c, 2, 41, 64
4, 147360, Note_on_c, 2, 41, 0
4, 147360, Note_on_c, 2, 43, 64
4, 147840, Note_on_c, 2, 43, 0
4, 147840, Note_on_c, 2, 36, 64
4, 149760, Note_on_c, 2, 36, 0
4, 149760, End_track
5, 0, Start_track
5, 0, End_track
0, 0, End_of_file
