0, 0, Header, 1, 9, 1024
1, 0, Start_track
1, 0, Time_signature, 12, 3, 36, 8
1, 0, Key_signature, -1, "major"
1, 0, Tempo, 689655
1, 731136, End_track
2, 0, Start_track
2, 0, Title_t, "Instrument 1"
2, 0, Program_c, 0, 0
2, 76800, Note_on_c, 0, 65, 96
2, 79872, Note_off_c, 0, 65, 0
2, 79872, Note_on_c, 0, 72, 96
2, 82944, Note_off_c, 0, 72, 0
2, 82944, Note_on_c, 0, 69, 96
2, 86016, Note_off_c, 0, 69, 0
2, 86016, Note_on_c, 0, 65, 96
2, 89088, Note_off_c, 0, 65, 0
2, 89088, Note_on_c, 0, 72, 96
2, 92160, Note_off_c, 0, 72, 0
2, 92160, Note_on_c, 0, 74, 96
2, 95232, Note_off_c, 0, 74, 0
2, 95232, Note_on_c, 0, 74, 96
2, 98304, Note_off_c, 0, 74, 0
2, 98304, Note_on_c, 0, 72, 96
2, 105472, Note_off_c, 0, 72, 0
2, 144384, Note_on_c, 0, 72, 96
2, 147456, Note_off_c, 0, 72, 0
2, 147456, Note_on_c, 0, 74, 96
2, 150528, Note_off_c, 0, 74, 0
2, 150528, Note_on_c, 0, 76, 96
2, 153600, Note_off_c, 0, 76, 0
2, 153600, Note_on_c, 0, 77, 96
2, 156672, Note_off_c, 0, 77, 0
2, 156672, Note_on_c, 0, 76, 96
2, 159744, Note_off_c, 0, 76, 0
2, 159744, Note_on_c, 0, 74, 96
2, 162816, Note_off_c, 0, 74, 0
2, 162816, Note_on_c, 0, 74, 96
2, 165888, Note_off_c, 0, 74, 0
2, 165888, Note_on_c, 0, 72, 96
2, 173056, Note_off_c, 0, 72, 0
2, 199680, Note_on_c, 0, 69, 96
2, 202752, Note_off_c, 0, 69, 0
2, 202752, Note_on_c, 0, 74, 96
2, 205824, Note_off_c, 0, 74, 0
2, 205824, Note_on_c, 0, 72, 96
2, 208896, Note_off_c, 0, 72, 0
2, 208896, Note_on_c, 0, 70, 96
2, 211968, Note_off_c, 0, 70, 0
2, 211968, Note_on_c, 0, 69, 96
2, 215040, Note_off_c, 0, 69, 0
2, 215040, Note_on_c, 0, 67, 96
2, 221184, Note_off_c, 0, 67, 0
2, 221184, Note_on_c, 0, 65, 96
2, 228352, Note_off_c, 0, 65, 0
2, 304128, Note_on_c, 0, 65, 96
2, 307200, Note_off_c, 0, 65, 0
2, 307200, Note_on_c, 0, 72, 96
2, 310272, Note_off_c, 0, 72, 0
2, 310272, Note_on_c, 0, 69, 96
2, 313344, Note_off_c, 0, 69, 0
2, 313344, Note_on_c, 0, 65, 96
2, 316416, Note_off_c, 0, 65, 0
2, 316416, Note_on_c, 0, 72, 96
2, 319488, Note_off_c, 0, 72, 0
2, 319488, Note_on_c, 0, 74, 96
2, 322560, Note_off_c, 0, 74, 0
2, 322560, Note_on_c, 0, 74, 96
2, 325632, Note_off_c, 0, 74, 0
2, 325632, Note_on_c, 0, 72, 96
2, 332800, Note_off_c, 0, 72, 0
2, 371712, Note_on_c, 0, 72, 96
2, 374784, Note_off_c, 0, 72, 0
2, 374784, Note_on_c, 0, 74, 96
2, 377856, Note_off_c, 0, 74, 0
2, 377856, Note_on_c, 0, 76, 96
2, 380928, Note_off_c, 0, 76, 0
2, 380928, Note_on_c, 0, 77, 96
2, 384000, Note_off_c, 0, 77, 0
2, 384000, Note_on_c, 0, 76, 96
2, 387072, Note_off_c, 0, 76, 0
2, 387072, Note_on_c, 0, 74, 96
2, 390144, Note_off_c, 0, 74, 0
2, 390144, Note_on_c, 0, 74, 96
2, 393216, Note_off_c, 0, 74, 0
2, 393216, Note_on_c, 0, 72, 96
2, 400384, Note_off_c, 0, 72, 0
2, 427008, Note_on_c, 0, 69, 96
2, 430080, Note_off_c, 0, 69, 0
2, 430080, Note_on_c, 0, 74, 96
2, 433152, Note_off_c, 0, 74, 0
2, 433152, Note_on_c, 0, 72, 96
2, 436224, Note_off_c, 0, 72, 0
2, 436224, Note_on_c, 0, 70, 96
2, 439296, Note_off_c, 0, 70, 0
2, 439296, Note_on_c, 0, 69, 96
2, 442368, Note_off_c, 0, 69, 0
2, 442368, Note_on_c, 0, 67, 96
2, 448512, Note_off_c, 0, 67, 0
2, 448512, Note_on_c, 0, 65, 96
2, 455680, Note_off_c, 0, 65, 0
2, 509952, Note_on_c, 0, 72, 96
2, 513024, Note_off_c, 0, 72, 0
2, 513024, Note_on_c, 0, 69, 96
2, 516096, Note_off_c, 0, 69, 0
2, 522240, Note_on_c, 0, 72, 96
2, 525312, Note_off_c, 0, 72, 0
2, 525312, Note_on_c, 0, 69, 96
2, 528384, Note_off_c, 0, 69, 0
2, 540672, Note_on_c, 0, 69, 96
2, 543744, Note_off_c, 0, 69, 0
2, 543744, Note_on_c, 0, 69, 96
2, 546816, Note_off_c, 0, 69, 0
2, 546816, Note_on_c, 0, 67, 96
2, 549888, Note_off_c, 0, 67, 0
2, 549888, Note_on_c, 0, 67, 96
2, 552960, Note_off_c, 0, 67, 0
2, 552960, Note_on_c, 0, 69, 96
2, 556032, Note_off_c, 0, 69, 0
2, 556032, Note_on_c, 0, 69, 96
2, 559104, Note_off_c, 0, 69, 0
2, 559104, Note_on_c, 0, 67, 96
2, 562176, Note_off_c, 0, 67, 0
2, 562176, Note_on_c, 0, 69, 96
2, 565248, Note_off_c, 0, 69, 0
2, 565248, Note_on_c, 0, 70, 96
2, 568320, Note_off_c, 0, 70, 0
2, 568320, Note_on_c, 0, 69, 96
2, 571392, Note_off_c, 0, 69, 0
2, 571392, Note_on_c, 0, 67, 96
2, 577536, Note_off_c, 0, 67, 0
2, 577536, Note_on_c, 0, 65, 96
2, 584704, Note_off_c, 0, 65, 0
2, 614400, Note_on_c, 0, 77, 96
2, 617472, Note_off_c, 0, 77, 0
2, 617472, Note_on_c, 0, 76, 96
2, 620544, Note_off_c, 0, 76, 0
2, 620544, Note_on_c, 0, 74, 96
2, 623616, Note_off_c, 0, 74, 0
2, 623616, Note_on_c, 0, 72, 96
2, 626688, Note_off_c, 0, 72, 0
2, 626688, Note_on_c, 0, 70, 96
2, 629760, Note_off_c, 0, 70, 0
2, 629760, Note_on_c, 0, 69, 96
2, 632832, Note_off_c, 0, 69, 0
2, 632832, Note_on_c, 0, 67, 96
2, 638976, Note_off_c, 0, 67, 0
2, 638976, Note_on_c, 0, 65, 96
2, 646144, Note_off_c, 0, 65, 0
2, 731136, End_track
3, 0, Start_track
3, 0, Title_t, "Instrument 2"
3, 0, Program_c, 1, 0
3, 90112, Note_on_c, 1, 65, 96
3, 90624, Note_off_c, 1, 65, 0
3, 90624, Note_on_c, 1, 70, 96
3, 91648, Note_off_c, 1, 70, 0
3, 91648, Note_on_c, 1, 72, 96
3, 92160, Note_off_c, 1, 72, 0
3, 92160, Note_on_c, 1, 70, 96
3, 92672, Note_off_c, 1, 70, 0
3, 92672, Note_on_c, 1, 69, 96
3, 93184, Note_off_c, 1, 69, 0
3, 93184, Note_on_c, 1, 67, 96
3, 93696, Note_off_c, 1, 67, 0
3, 93696, Note_on_c, 1, 69, 96
3, 94208, Note_off_c, 1, 69, 0
3, 94208, Note_on_c, 1, 72, 96
3, 94720, Note_off_c, 1, 72, 0
3, 94720, Note_on_c, 1, 71, 96
3, 95232, Note_off_c, 1, 71, 0
3, 95232, Note_on_c, 1, 69, 96
3, 96256, Note_off_c, 1, 69, 0
3, 96256, Note_on_c, 1, 62, 96
3, 96768, Note_off_c, 1, 62, 0
3, 96768, Note_on_c, 1, 65, 96
3, 97280, Note_off_c, 1, 65, 0
3, 97280, Note_on_c, 1, 69, 96
3, 97792, Note_off_c, 1, 69, 0
3, 97792, Note_on_c, 1, 67, 96
3, 98304, Note_off_c, 1, 67, 0
3, 98304, Note_on_c, 1, 67, 96
3, 99328, Note_off_c, 1, 67, 0
3, 99328, Note_on_c, 1, 60, 96
3, 99840, Note_off_c, 1, 60, 0
3, 99840, Note_on_c, 1, 67, 96
3, 100864, Note_off_c, 1, 67, 0
3, 100864, Note_on_c, 1, 64, 96
3, 101376, Note_off_c, 1, 64, 0
3, 101376, Note_on_c, 1, 60, 96
3, 102400, Note_off_c, 1, 60, 0
3, 102400, Note_on_c, 1, 70, 96
3, 102912, Note_off_c, 1, 70, 0
3, 102912, Note_on_c, 1, 69, 96
3, 103424, Note_off_c, 1, 69, 0
3, 103424, Note_on_c, 1, 67, 96
3, 103936, Note_off_c, 1, 67, 0
3, 103936, Note_on_c, 1, 69, 96
3, 104448, Note_off_c, 1, 69, 0
3, 104448, Note_on_c, 1, 67, 96
3, 105472, Note_off_c, 1, 67, 0
3, 117760, Note_on_c, 1, 67, 96
3, 118272, Note_off_c, 1, 67, 0
3, 118272, Note_on_c, 1, 72, 96
3, 119296, Note_off_c, 1, 72, 0
3, 119296, Note_on_c, 1, 74, 96
3, 119808, Note_off_c, 1, 74, 0
3, 119808, Note_on_c, 1, 72, 96
3, 120320, Note_off_c, 1, 72, 0
3, 120320, Note_on_c, 1, 70, 96
3, 120832, Note_off_c, 1, 70, 0
3, 120832, Note_on_c, 1, 69, 96
3, 121344, Note_off_c, 1, 69, 0
3, 121344, Note_on_c, 1, 70, 96
3, 121856, Note_off_c, 1, 70, 0
3, 121856, Note_on_c, 1, 74, 96
3, 122368, Note_off_c, 1, 74, 0
3, 122368, Note_on_c, 1, 72, 96
3, 122880, Note_off_c, 1, 72, 0
3, 122880, Note_on_c, 1, 70, 96
3, 123392, Note_off_c, 1, 70, 0
3, 123392, Note_on_c, 1, 69, 96
3, 123904, Note_off_c, 1, 69, 0
3, 123904, Note_on_c, 1, 67, 96
3, 124416, Note_off_c, 1, 67, 0
3, 124416, Note_on_c, 1, 69, 96
3, 126464, Note_off_c, 1, 69, 0
3, 126464, Note_on_c, 1, 67, 96
3, 126976, Note_off_c, 1, 67, 0
3, 126976, Note_on_c, 1, 65, 96
3, 127488, Note_off_c, 1, 65, 0
3, 127488, Note_on_c, 1, 67, 96
3, 129536, Note_off_c, 1, 67, 0
3, 129536, Note_on_c, 1, 72, 96
3, 130048, Note_off_c, 1, 72, 0
3, 130048, Note_on_c, 1, 69, 96
3, 130560, Note_off_c, 1, 69, 0
3, 130560, Note_on_c, 1, 65, 96
3, 132096, Note_off_c, 1, 65, 0
3, 132096, Note_on_c, 1, 67, 96
3, 133632, Note_off_c, 1, 67, 0
3, 133632, Note_on_c, 1, 69, 96
3, 135168, Note_off_c, 1, 69, 0
3, 135168, Note_on_c, 1, 70, 96
3, 136704, Note_off_c, 1, 70, 0
3, 136704, Note_on_c, 1, 69, 96
3, 138240, Note_off_c, 1, 69, 0
3, 138240, Note_on_c, 1, 67, 96
3, 139776, Note_off_c, 1, 67, 0
3, 139776, Note_on_c, 1, 67, 96
3, 141312, Note_off_c, 1, 67, 0
3, 141312, Note_on_c, 1, 65, 96
3, 142336, Note_off_c, 1, 65, 0
3, 142336, Note_on_c, 1, 67, 96
3, 142848, Note_off_c, 1, 67, 0
3, 142848, Note_on_c, 1, 69, 96
3, 143872, Note_off_c, 1, 69, 0
3, 143872, Note_on_c, 1, 72, 96
3, 144384, Note_off_c, 1, 72, 0
3, 144384, Note_on_c, 1, 69, 96
3, 145408, Note_off_c, 1, 69, 0
3, 145408, Note_on_c, 1, 72, 96
3, 145920, Note_off_c, 1, 72, 0
3, 145920, Note_on_c, 1, 69, 96
3, 146432, Note_off_c, 1, 69, 0
3, 146432, Note_on_c, 1, 70, 96
3, 146944, Note_off_c, 1, 70, 0
3, 146944, Note_on_c, 1, 72, 96
3, 147456, Note_off_c, 1, 72, 0
3, 147456, Note_on_c, 1, 65, 96
3, 148480, Note_off_c, 1, 65, 0
3, 154624, Note_on_c, 1, 60, 96
3, 155136, Note_off_c, 1, 60, 0
3, 155136, Note_on_c, 1, 69, 96
3, 156160, Note_off_c, 1, 69, 0
3, 156160, Note_on_c, 1, 70, 96
3, 156672, Note_off_c, 1, 70, 0
3, 156672, Note_on_c, 1, 67, 96
3, 157696, Note_off_c, 1, 67, 0
3, 157696, Note_on_c, 1, 65, 96
3, 158208, Note_off_c, 1, 65, 0
3, 158208, Note_on_c, 1, 67, 96
3, 158720, Note_off_c, 1, 67, 0
3, 158720, Note_on_c, 1, 70, 96
3, 159232, Note_off_c, 1, 70, 0
3, 159232, Note_on_c, 1, 69, 96
3, 159744, Note_off_c, 1, 69, 0
3, 159744, Note_on_c, 1, 65, 96
3, 160768, Note_off_c, 1, 65, 0
3, 160768, Note_on_c, 1, 67, 96
3, 161280, Note_off_c, 1, 67, 0
3, 161280, Note_on_c, 1, 69, 96
3, 161792, Note_off_c, 1, 69, 0
3, 161792, Note_on_c, 1, 67, 96
3, 162304, Note_off_c, 1, 67, 0
3, 162304, Note_on_c, 1, 69, 96
3, 162816, Note_off_c, 1, 69, 0
3, 162816, Note_on_c, 1, 67, 96
3, 163840, Note_off_c, 1, 67, 0
3, 163840, Note_on_c, 1, 69, 96
3, 164352, Note_off_c, 1, 69, 0
3, 164352, Note_on_c, 1, 67, 96
3, 164864, Note_off_c, 1, 67, 0
3, 164864, Note_on_c, 1, 69, 96
3, 165376, Note_off_c, 1, 69, 0
3, 165376, Note_on_c, 1, 71, 96
3, 165888, Note_off_c, 1, 71, 0
3, 165888, Note_on_c, 1, 64, 96
3, 166912, Note_off_c, 1, 64, 0
3, 166912, Note_on_c, 1, 60, 96
3, 167424, Note_off_c, 1, 60, 0
3, 167424, Note_on_c, 1, 70, 96
3, 168448, Note_off_c, 1, 70, 0
3, 168448, Note_on_c, 1, 72, 96
3, 168960, Note_off_c, 1, 72, 0
3, 168960, Note_on_c, 1, 70, 96
3, 169472, Note_off_c, 1, 70, 0
3, 169472, Note_on_c, 1, 69, 96
3, 169984, Note_off_c, 1, 69, 0
3, 169984, Note_on_c, 1, 67, 96
3, 170496, Note_off_c, 1, 67, 0
3, 170496, Note_on_c, 1, 69, 96
3, 171008, Note_off_c, 1, 69, 0
3, 171008, Note_on_c, 1, 72, 96
3, 171520, Note_off_c, 1, 72, 0
3, 171520, Note_on_c, 1, 71, 96
3, 172032, Note_off_c, 1, 71, 0
3, 172032, Note_on_c, 1, 72, 96
3, 173056, Note_off_c, 1, 72, 0
3, 203776, Note_on_c, 1, 65, 96
3, 204288, Note_off_c, 1, 65, 0
3, 204288, Note_on_c, 1, 70, 96
3, 206336, Note_off_c, 1, 70, 0
3, 206336, Note_on_c, 1, 69, 96
3, 206848, Note_off_c, 1, 69, 0
3, 206848, Note_on_c, 1, 67, 96
3, 207360, Note_off_c, 1, 67, 0
3, 207360, Note_on_c, 1, 69, 96
3, 209408, Note_off_c, 1, 69, 0
3, 209408, Note_on_c, 1, 67, 96
3, 209920, Note_off_c, 1, 67, 0
3, 209920, Note_on_c, 1, 65, 96
3, 210432, Note_off_c, 1, 65, 0
3, 210432, Note_on_c, 1, 67, 96
3, 212480, Note_off_c, 1, 67, 0
3, 212480, Note_on_c, 1, 65, 96
3, 212992, Note_off_c, 1, 65, 0
3, 212992, Note_on_c, 1, 64, 96
3, 213504, Note_off_c, 1, 64, 0
3, 213504, Note_on_c, 1, 65, 96
3, 215552, Note_off_c, 1, 65, 0
3, 215552, Note_on_c, 1, 67, 96
3, 216064, Note_off_c, 1, 67, 0
3, 216064, Note_on_c, 1, 69, 96
3, 216576, Note_off_c, 1, 69, 0
3, 216576, Note_on_c, 1, 70, 96
3, 218624, Note_off_c, 1, 70, 0
3, 218624, Note_on_c, 1, 67, 96
3, 219136, Note_off_c, 1, 67, 0
3, 219136, Note_on_c, 1, 65, 96
3, 219648, Note_off_c, 1, 65, 0
3, 219648, Note_on_c, 1, 64, 96
3, 221184, Note_off_c, 1, 64, 0
3, 221184, Note_on_c, 1, 65, 96
3, 222208, Note_off_c, 1, 65, 0
3, 222208, Note_on_c, 1, 69, 96
3, 222720, Note_off_c, 1, 69, 0
3, 222720, Note_on_c, 1, 72, 96
3, 223744, Note_off_c, 1, 72, 0
3, 223744, Note_on_c, 1, 72, 96
3, 224256, Note_off_c, 1, 72, 0
3, 224256, Note_on_c, 1, 72, 96
3, 224768, Note_off_c, 1, 72, 0
3, 224768, Note_on_c, 1, 70, 96
3, 225280, Note_off_c, 1, 70, 0
3, 225280, Note_on_c, 1, 69, 96
3, 225792, Note_off_c, 1, 69, 0
3, 225792, Note_on_c, 1, 70, 96
3, 226304, Note_off_c, 1, 70, 0
3, 226304, Note_on_c, 1, 67, 96
3, 226816, Note_off_c, 1, 67, 0
3, 226816, Note_on_c, 1, 69, 96
3, 227328, Note_off_c, 1, 69, 0
3, 227328, Note_on_c, 1, 69, 96
3, 228352, Note_off_c, 1, 69, 0
3, 317440, Note_on_c, 1, 65, 96
3, 317952, Note_off_c, 1, 65, 0
3, 317952, Note_on_c, 1, 70, 96
3, 318976, Note_off_c, 1, 70, 0
3, 318976, Note_on_c, 1, 72, 96
3, 319488, Note_off_c, 1, 72, 0
3, 319488, Note_on_c, 1, 70, 96
3, 320000, Note_off_c, 1, 70, 0
3, 320000, Note_on_c, 1, 69, 96
3, 320512, Note_off_c, 1, 69, 0
3, 320512, Note_on_c, 1, 67, 96
3, 321024, Note_off_c, 1, 67, 0
3, 321024, Note_on_c, 1, 69, 96
3, 321536, Note_off_c, 1, 69, 0
3, 321536, Note_on_c, 1, 72, 96
3, 322048, Note_off_c, 1, 72, 0
3, 322048, Note_on_c, 1, 71, 96
3, 322560, Note_off_c, 1, 71, 0
3, 322560, Note_on_c, 1, 67, 96
3, 323584, Note_off_c, 1, 67, 0
3, 323584, Note_on_c, 1, 62, 96
3, 324096, Note_off_c, 1, 62, 0
3, 324096, Note_on_c, 1, 65, 96
3, 324608, Note_off_c, 1, 65, 0
3, 324608, Note_on_c, 1, 69, 96
3, 325120, Note_off_c, 1, 69, 0
3, 325120, Note_on_c, 1, 67, 96
3, 325632, Note_off_c, 1, 67, 0
3, 325632, Note_on_c, 1, 67, 96
3, 326656, Note_off_c, 1, 67, 0
3, 326656, Note_on_c, 1, 60, 96
3, 327168, Note_off_c, 1, 60, 0
3, 327168, Note_on_c, 1, 67, 96
3, 328192, Note_off_c, 1, 67, 0
3, 328192, Note_on_c, 1, 64, 96
3, 328704, Note_off_c, 1, 64, 0
3, 328704, Note_on_c, 1, 60, 96
3, 329728, Note_off_c, 1, 60, 0
3, 329728, Note_on_c, 1, 70, 96
3, 330240, Note_off_c, 1, 70, 0
3, 330240, Note_on_c, 1, 69, 96
3, 330752, Note_off_c, 1, 69, 0
3, 330752, Note_on_c, 1, 67, 96
3, 331264, Note_off_c, 1, 67, 0
3, 331264, Note_on_c, 1, 69, 96
3, 331776, Note_off_c, 1, 69, 0
3, 331776, Note_on_c, 1, 67, 96
3, 332800, Note_off_c, 1, 67, 0
3, 345088, Note_on_c, 1, 67, 96
3, 345600, Note_off_c, 1, 67, 0
3, 345600, Note_on_c, 1, 72, 96
3, 346624, Note_off_c, 1, 72, 0
3, 346624, Note_on_c, 1, 74, 96
3, 347136, Note_off_c, 1, 74, 0
3, 347136, Note_on_c, 1, 72, 96
3, 347648, Note_off_c, 1, 72, 0
3, 347648, Note_on_c, 1, 70, 96
3, 348160, Note_off_c, 1, 70, 0
3, 348160, Note_on_c, 1, 69, 96
3, 348672, Note_off_c, 1, 69, 0
3, 348672, Note_on_c, 1, 70, 96
3, 349184, Note_off_c, 1, 70, 0
3, 349184, Note_on_c, 1, 74, 96
3, 349696, Note_off_c, 1, 74, 0
3, 349696, Note_on_c, 1, 72, 96
3, 350208, Note_off_c, 1, 72, 0
3, 350208, Note_on_c, 1, 70, 96
3, 350720, Note_off_c, 1, 70, 0
3, 350720, Note_on_c, 1, 69, 96
3, 351232, Note_off_c, 1, 69, 0
3, 351232, Note_on_c, 1, 67, 96
3, 351744, Note_off_c, 1, 67, 0
3, 351744, Note_on_c, 1, 69, 96
3, 353792, Note_off_c, 1, 69, 0
3, 353792, Note_on_c, 1, 67, 96
3, 354304, Note_off_c, 1, 67, 0
3, 354304, Note_on_c, 1, 65, 96
3, 354816, Note_off_c, 1, 65, 0
3, 354816, Note_on_c, 1, 67, 96
3, 355840, Note_off_c, 1, 67, 0
3, 355840, Note_on_c, 1, 67, 96
3, 356352, Note_off_c, 1, 67, 0
3, 356352, Note_on_c, 1, 67, 96
3, 356864, Note_off_c, 1, 67, 0
3, 356864, Note_on_c, 1, 72, 96
3, 357376, Note_off_c, 1, 72, 0
3, 357376, Note_on_c, 1, 69, 96
3, 357888, Note_off_c, 1, 69, 0
3, 357888, Note_on_c, 1, 65, 96
3, 358912, Note_off_c, 1, 65, 0
3, 358912, Note_on_c, 1, 65, 96
3, 359424, Note_off_c, 1, 65, 0
3, 359424, Note_on_c, 1, 67, 96
3, 360960, Note_off_c, 1, 67, 0
3, 360960, Note_on_c, 1, 69, 96
3, 362496, Note_off_c, 1, 69, 0
3, 362496, Note_on_c, 1, 70, 96
3, 364032, Note_off_c, 1, 70, 0
3, 364032, Note_on_c, 1, 69, 96
3, 365568, Note_off_c, 1, 69, 0
3, 365568, Note_on_c, 1, 67, 96
3, 367104, Note_off_c, 1, 67, 0
3, 367104, Note_on_c, 1, 67, 96
3, 368640, Note_off_c, 1, 67, 0
3, 368640, Note_on_c, 1, 65, 96
3, 369664, Note_off_c, 1, 65, 0
3, 369664, Note_on_c, 1, 67, 96
3, 370176, Note_off_c, 1, 67, 0
3, 370176, Note_on_c, 1, 69, 96
3, 371200, Note_off_c, 1, 69, 0
3, 371200, Note_on_c, 1, 72, 96
3, 371712, Note_off_c, 1, 72, 0
3, 371712, Note_on_c, 1, 69, 96
3, 372736, Note_off_c, 1, 69, 0
3, 372736, Note_on_c, 1, 72, 96
3, 373248, Note_off_c, 1, 72, 0
3, 373248, Note_on_c, 1, 69, 96
3, 373760, Note_off_c, 1, 69, 0
3, 373760, Note_on_c, 1, 70, 96
3, 374272, Note_off_c, 1, 70, 0
3, 374272, Note_on_c, 1, 72, 96
3, 374784, Note_off_c, 1, 72, 0
3, 374784, Note_on_c, 1, 65, 96
3, 375808, Note_off_c, 1, 65, 0
3, 381952, Note_on_c, 1, 60, 96
3, 382464, Note_off_c, 1, 60, 0
3, 382464, Note_on_c, 1, 69, 96
3, 383488, Note_off_c, 1, 69, 0
3, 383488, Note_on_c, 1, 70, 96
3, 384000, Note_off_c, 1, 70, 0
3, 384000, Note_on_c, 1, 67, 96
3, 385024, Note_off_c, 1, 67, 0
3, 385024, Note_on_c, 1, 65, 96
3, 385536, Note_off_c, 1, 65, 0
3, 385536, Note_on_c, 1, 67, 96
3, 386048, Note_off_c, 1, 67, 0
3, 386048, Note_on_c, 1, 70, 96
3, 386560, Note_off_c, 1, 70, 0
3, 386560, Note_on_c, 1, 69, 96
3, 387072, Note_off_c, 1, 69, 0
3, 387072, Note_on_c, 1, 65, 96
3, 388096, Note_off_c, 1, 65, 0
3, 388096, Note_on_c, 1, 67, 96
3, 388608, Note_off_c, 1, 67, 0
3, 388608, Note_on_c, 1, 69, 96
3, 389120, Note_off_c, 1, 69, 0
3, 389120, Note_on_c, 1, 67, 96
3, 389632, Note_off_c, 1, 67, 0
3, 389632, Note_on_c, 1, 69, 96
3, 390144, Note_off_c, 1, 69, 0
3, 390144, Note_on_c, 1, 67, 96
3, 391168, Note_off_c, 1, 67, 0
3, 391168, Note_on_c, 1, 69, 96
3, 391680, Note_off_c, 1, 69, 0
3, 391680, Note_on_c, 1, 67, 96
3, 392192, Note_off_c, 1, 67, 0
3, 392192, Note_on_c, 1, 69, 96
3, 392704, Note_off_c, 1, 69, 0
3, 392704, Note_on_c, 1, 71, 96
3, 393216, Note_off_c, 1, 71, 0
3, 393216, Note_on_c, 1, 64, 96
3, 394240, Note_off_c, 1, 64, 0
3, 394240, Note_on_c, 1, 60, 96
3, 394752, Note_off_c, 1, 60, 0
3, 394752, Note_on_c, 1, 70, 96
3, 395776, Note_off_c, 1, 70, 0
3, 395776, Note_on_c, 1, 72, 96
3, 396288, Note_off_c, 1, 72, 0
3, 396288, Note_on_c, 1, 70, 96
3, 396800, Note_off_c, 1, 70, 0
3, 396800, Note_on_c, 1, 69, 96
3, 397312, Note_off_c, 1, 69, 0
3, 397312, Note_on_c, 1, 67, 96
3, 397824, Note_off_c, 1, 67, 0
3, 397824, Note_on_c, 1, 69, 96
3, 398336, Note_off_c, 1, 69, 0
3, 398336, Note_on_c, 1, 72, 96
3, 398848, Note_off_c, 1, 72, 0
3, 398848, Note_on_c, 1, 71, 96
3, 399360, Note_off_c, 1, 71, 0
3, 399360, Note_on_c, 1, 72, 96
3, 400384, Note_off_c, 1, 72, 0
3, 431104, Note_on_c, 1, 65, 96
3, 431616, Note_off_c, 1, 65, 0
3, 431616, Note_on_c, 1, 70, 96
3, 433664, Note_off_c, 1, 70, 0
3, 433664, Note_on_c, 1, 69, 96
3, 434176, Note_off_c, 1, 69, 0
3, 434176, Note_on_c, 1, 67, 96
3, 434688, Note_off_c, 1, 67, 0
3, 434688, Note_on_c, 1, 69, 96
3, 436736, Note_off_c, 1, 69, 0
3, 436736, Note_on_c, 1, 67, 96
3, 437248, Note_off_c, 1, 67, 0
3, 437248, Note_on_c, 1, 65, 96
3, 437760, Note_off_c, 1, 65, 0
3, 437760, Note_on_c, 1, 67, 96
3, 439808, Note_off_c, 1, 67, 0
3, 439808, Note_on_c, 1, 65, 96
3, 440320, Note_off_c, 1, 65, 0
3, 440320, Note_on_c, 1, 64, 96
3, 440832, Note_off_c, 1, 64, 0
3, 440832, Note_on_c, 1, 65, 96
3, 442880, Note_off_c, 1, 65, 0
3, 442880, Note_on_c, 1, 67, 96
3, 443392, Note_off_c, 1, 67, 0
3, 443392, Note_on_c, 1, 69, 96
3, 443904, Note_off_c, 1, 69, 0
3, 443904, Note_on_c, 1, 70, 96
3, 445952, Note_off_c, 1, 70, 0
3, 445952, Note_on_c, 1, 67, 96
3, 446464, Note_off_c, 1, 67, 0
3, 446464, Note_on_c, 1, 65, 96
3, 446976, Note_off_c, 1, 65, 0
3, 446976, Note_on_c, 1, 64, 96
3, 448512, Note_off_c, 1, 64, 0
3, 448512, Note_on_c, 1, 65, 96
3, 449536, Note_off_c, 1, 65, 0
3, 449536, Note_on_c, 1, 69, 96
3, 450048, Note_off_c, 1, 69, 0
3, 450048, Note_on_c, 1, 72, 96
3, 451072, Note_off_c, 1, 72, 0
3, 451072, Note_on_c, 1, 72, 96
3, 451584, Note_off_c, 1, 72, 0
3, 451584, Note_on_c, 1, 72, 96
3, 452096, Note_off_c, 1, 72, 0
3, 452096, Note_on_c, 1, 70, 96
3, 452608, Note_off_c, 1, 70, 0
3, 452608, Note_on_c, 1, 69, 96
3, 453120, Note_off_c, 1, 69, 0
3, 453120, Note_on_c, 1, 70, 96
3, 453632, Note_off_c, 1, 70, 0
3, 453632, Note_on_c, 1, 67, 96
3, 454144, Note_off_c, 1, 67, 0
3, 454144, Note_on_c, 1, 69, 96
3, 454656, Note_off_c, 1, 69, 0
3, 454656, Note_on_c, 1, 69, 96
3, 455680, Note_off_c, 1, 69, 0
3, 509952, Note_on_c, 1, 69, 96
3, 513024, Note_off_c, 1, 69, 0
3, 513024, Note_on_c, 1, 65, 96
3, 516096, Note_off_c, 1, 65, 0
3, 522240, Note_on_c, 1, 67, 96
3, 526848, Note_off_c, 1, 67, 0
3, 526848, Note_on_c, 1, 65, 96
3, 527360, Note_off_c, 1, 65, 0
3, 527360, Note_on_c, 1, 64, 96
3, 527872, Note_off_c, 1, 64, 0
3, 527872, Note_on_c, 1, 65, 96
3, 528384, Note_off_c, 1, 65, 0
3, 528384, Note_on_c, 1, 64, 96
3, 529408, Note_off_c, 1, 64, 0
3, 540672, Note_on_c, 1, 65, 96
3, 541184, Note_off_c, 1, 65, 0
3, 541184, Note_on_c, 1, 67, 96
3, 541696, Note_off_c, 1, 67, 0
3, 541696, Note_on_c, 1, 69, 96
3, 542208, Note_off_c, 1, 69, 0
3, 542208, Note_on_c, 1, 65, 96
3, 542720, Note_off_c, 1, 65, 0
3, 542720, Note_on_c, 1, 67, 96
3, 543232, Note_off_c, 1, 67, 0
3, 543232, Note_on_c, 1, 69, 96
3, 543744, Note_off_c, 1, 69, 0
3, 543744, Note_on_c, 1, 69, 96
3, 545280, Note_off_c, 1, 69, 0
3, 545280, Note_on_c, 1, 69, 96
3, 545792, Note_off_c, 1, 69, 0
3, 545792, Note_on_c, 1, 67, 96
3, 546304, Note_off_c, 1, 67, 0
3, 546304, Note_on_c, 1, 65, 96
3, 546816, Note_off_c, 1, 65, 0
3, 546816, Note_on_c, 1, 70, 96
3, 550912, Note_off_c, 1, 70, 0
3, 550912, Note_on_c, 1, 69, 96
3, 551424, Note_off_c, 1, 69, 0
3, 551424, Note_on_c, 1, 70, 96
3, 551936, Note_off_c, 1, 70, 0
3, 551936, Note_on_c, 1, 74, 96
3, 552448, Note_off_c, 1, 74, 0
3, 552448, Note_on_c, 1, 72, 96
3, 552960, Note_off_c, 1, 72, 0
3, 552960, Note_on_c, 1, 69, 96
3, 553984, Note_off_c, 1, 69, 0
3, 553984, Note_on_c, 1, 65, 96
3, 554496, Note_off_c, 1, 65, 0
3, 554496, Note_on_c, 1, 69, 96
3, 555008, Note_off_c, 1, 69, 0
3, 555008, Note_on_c, 1, 70, 96
3, 555520, Note_off_c, 1, 70, 0
3, 555520, Note_on_c, 1, 72, 96
3, 556032, Note_off_c, 1, 72, 0
3, 556032, Note_on_c, 1, 72, 96
3, 557056, Note_off_c, 1, 72, 0
3, 557056, Note_on_c, 1, 69, 96
3, 557568, Note_off_c, 1, 69, 0
3, 557568, Note_on_c, 1, 65, 96
3, 559104, Note_off_c, 1, 65, 0
3, 559104, Note_on_c, 1, 65, 96
3, 560640, Note_off_c, 1, 65, 0
3, 562176, Note_on_c, 1, 65, 96
3, 563712, Note_off_c, 1, 65, 0
3, 565248, Note_on_c, 1, 65, 96
3, 565760, Note_off_c, 1, 65, 0
3, 565760, Note_on_c, 1, 64, 96
3, 566272, Note_off_c, 1, 64, 0
3, 566272, Note_on_c, 1, 62, 96
3, 566784, Note_off_c, 1, 62, 0
3, 566784, Note_on_c, 1, 67, 96
3, 568832, Note_off_c, 1, 67, 0
3, 568832, Note_on_c, 1, 65, 96
3, 569344, Note_off_c, 1, 65, 0
3, 569344, Note_on_c, 1, 64, 96
3, 569856, Note_off_c, 1, 64, 0
3, 569856, Note_on_c, 1, 65, 96
3, 571904, Note_off_c, 1, 65, 0
3, 571904, Note_on_c, 1, 64, 96
3, 572416, Note_off_c, 1, 64, 0
3, 572416, Note_on_c, 1, 62, 96
3, 572928, Note_off_c, 1, 62, 0
3, 572928, Note_on_c, 1, 70, 96
3, 574976, Note_off_c, 1, 70, 0
3, 574976, Note_on_c, 1, 67, 96
3, 575488, Note_off_c, 1, 67, 0
3, 575488, Note_on_c, 1, 65, 96
3, 576000, Note_off_c, 1, 65, 0
3, 576000, Note_on_c, 1, 64, 96
3, 577536, Note_off_c, 1, 64, 0
3, 577536, Note_on_c, 1, 65, 96
3, 578560, Note_off_c, 1, 65, 0
3, 579072, Note_on_c, 1, 72, 96
3, 581120, Note_off_c, 1, 72, 0
3, 581120, Note_on_c, 1, 70, 96
3, 581632, Note_off_c, 1, 70, 0
3, 581632, Note_on_c, 1, 69, 96
3, 582144, Note_off_c, 1, 69, 0
3, 582144, Note_on_c, 1, 70, 96
3, 582656, Note_off_c, 1, 70, 0
3, 582656, Note_on_c, 1, 67, 96
3, 583168, Note_off_c, 1, 67, 0
3, 583168, Note_on_c, 1, 69, 96
3, 583680, Note_off_c, 1, 69, 0
3, 583680, Note_on_c, 1, 69, 96
3, 584704, Note_off_c, 1, 69, 0
3, 611328, Note_on_c, 1, 67, 96
3, 611840, Note_off_c, 1, 67, 0
3, 611840, Note_on_c, 1, 69, 96
3, 612352, Note_off_c, 1, 69, 0
3, 612352, Note_on_c, 1, 70, 96
3, 612864, Note_off_c, 1, 70, 0
3, 612864, Note_on_c, 1, 69, 96
3, 614912, Note_off_c, 1, 69, 0
3, 614912, Note_on_c, 1, 67, 96
3, 615424, Note_off_c, 1, 67, 0
3, 615424, Note_on_c, 1, 69, 96
3, 615936, Note_off_c, 1, 69, 0
3, 615936, Note_on_c, 1, 70, 96
3, 617984, Note_off_c, 1, 70, 0
3, 617984, Note_on_c, 1, 69, 96
3, 618496, Note_off_c, 1, 69, 0
3, 618496, Note_on_c, 1, 67, 96
3, 619008, Note_off_c, 1, 67, 0
3, 619008, Note_on_c, 1, 69, 96
3, 621568, Note_off_c, 1, 69, 0
3, 621568, Note_on_c, 1, 62, 96
3, 622080, Note_off_c, 1, 62, 0
3, 622080, Note_on_c, 1, 67, 96
3, 624128, Note_off_c, 1, 67, 0
3, 624128, Note_on_c, 1, 65, 96
3, 624640, Note_off_c, 1, 65, 0
3, 624640, Note_on_c, 1, 64, 96
3, 625152, Note_off_c, 1, 64, 0
3, 625152, Note_on_c, 1, 65, 96
3, 627200, Note_off_c, 1, 65, 0
3, 627200, Note_on_c, 1, 64, 96
3, 627712, Note_off_c, 1, 64, 0
3, 627712, Note_on_c, 1, 62, 96
3, 628224, Note_off_c, 1, 62, 0
3, 628224, Note_on_c, 1, 64, 96
3, 628736, Note_off_c, 1, 64, 0
3, 628736, Note_on_c, 1, 65, 96
3, 629248, Note_off_c, 1, 65, 0
3, 629248, Note_on_c, 1, 67, 96
3, 630272, Note_off_c, 1, 67, 0
3, 630272, Note_on_c, 1, 65, 96
3, 630528, Note_off_c, 1, 65, 0
3, 630528, Note_on_c, 1, 64, 96
3, 630784, Note_off_c, 1, 64, 0
3, 630784, Note_on_c, 1, 65, 96
3, 631808, Note_off_c, 1, 65, 0
3, 631808, Note_on_c, 1, 67, 96
3, 632320, Note_off_c, 1, 67, 0
3, 632320, Note_on_c, 1, 69, 96
3, 632832, Note_off_c, 1, 69, 0
3, 632832, Note_on_c, 1, 62, 96
3, 633344, Note_off_c, 1, 62, 0
3, 633344, Note_on_c, 1, 64, 96
3, 633856, Note_off_c, 1, 64, 0
3, 633856, Note_on_c, 1, 65, 96
3, 634368, Note_off_c, 1, 65, 0
3, 634368, Note_on_c, 1, 67, 96
3, 635392, Note_off_c, 1, 67, 0
3, 635392, Note_on_c, 1, 65, 96
3, 635904, Note_off_c, 1, 65, 0
3, 635904, Note_on_c, 1, 64, 96
3, 636928, Note_off_c, 1, 64, 0
3, 636928, Note_on_c, 1, 62, 96
3, 637440, Note_off_c, 1, 62, 0
3, 637440, Note_on_c, 1, 60, 96
3, 638976, Note_off_c, 1, 60, 0
3, 638976, Note_on_c, 1, 60, 96
3, 640000, Note_off_c, 1, 60, 0
3, 640000, Note_on_c, 1, 72, 96
3, 640512, Note_off_c, 1, 72, 0
3, 640512, Note_on_c, 1, 63, 96
3, 641536, Note_off_c, 1, 63, 0
3, 641536, Note_on_c, 1, 65, 96
3, 642048, Note_off_c, 1, 65, 0
3, 642048, Note_on_c, 1, 63, 96
3, 642560, Note_off_c, 1, 63, 0
3, 642560, Note_on_c, 1, 62, 96
3, 643072, Note_off_c, 1, 62, 0
3, 643072, Note_on_c, 1, 60, 96
3, 643584, Note_off_c, 1, 60, 0
3, 643584, Note_on_c, 1, 62, 96
3, 644096, Note_off_c, 1, 62, 0
3, 644096, Note_on_c, 1, 58, 96
3, 644608, Note_off_c, 1, 58, 0
3, 644608, Note_on_c, 1, 60, 96
3, 645120, Note_off_c, 1, 60, 0
3, 645120, Note_on_c, 1, 60, 96
3, 646144, Note_off_c, 1, 60, 0
3, 731136, End_track
4, 0, Start_track
4, 0, Title_t, "Instrument 3"
4, 0, Program_c, 2, 0
4, 80896, Note_on_c, 2, 60, 96
4, 81408, Note_off_c, 2, 60, 0
4, 81408, Note_on_c, 2, 65, 96
4, 82432, Note_off_c, 2, 65, 0
4, 82432, Note_on_c, 2, 67, 96
4, 82944, Note_off_c, 2, 67, 0
4, 82944, Note_on_c, 2, 65, 96
4, 83456, Note_off_c, 2, 65, 0
4, 83456, Note_on_c, 2, 63, 96
4, 83968, Note_off_c, 2, 63, 0
4, 83968, Note_on_c, 2, 62, 96
4, 84480, Note_off_c, 2, 62, 0
4, 84480, Note_on_c, 2, 63, 96
4, 84992, Note_off_c, 2, 63, 0
4, 84992, Note_on_c, 2, 67, 96
4, 85504, Note_off_c, 2, 67, 0
4, 85504, Note_on_c, 2, 65, 96
4, 86016, Note_off_c, 2, 65, 0
4, 86016, Note_on_c, 2, 63, 96
4, 86528, Note_off_c, 2, 63, 0
4, 86528, Note_on_c, 2, 62, 96
4, 87040, Note_off_c, 2, 62, 0
4, 87040, Note_on_c, 2, 60, 96
4, 87552, Note_off_c, 2, 60, 0
4, 87552, Note_on_c, 2, 62, 96
4, 88064, Note_off_c, 2, 62, 0
4, 88064, Note_on_c, 2, 65, 96
4, 88576, Note_off_c, 2, 65, 0
4, 88576, Note_on_c, 2, 63, 96
4, 89088, Note_off_c, 2, 63, 0
4, 89088, Note_on_c, 2, 60, 96
4, 90112, Note_off_c, 2, 60, 0
4, 90112, Note_on_c, 2, 65, 96
4, 90624, Note_off_c, 2, 65, 0
4, 90624, Note_on_c, 2, 65, 96
4, 91136, Note_off_c, 2, 65, 0
4, 91136, Note_on_c, 2, 67, 96
4, 91648, Note_off_c, 2, 67, 0
4, 91648, Note_on_c, 2, 64, 96
4, 92160, Note_off_c, 2, 64, 0
4, 92160, Note_on_c, 2, 65, 96
4, 93184, Note_off_c, 2, 65, 0
4, 93184, Note_on_c, 2, 67, 96
4, 93696, Note_off_c, 2, 67, 0
4, 93696, Note_on_c, 2, 65, 96
4, 94208, Note_off_c, 2, 65, 0
4, 94208, Note_on_c, 2, 64, 96
4, 94720, Note_off_c, 2, 64, 0
4, 94720, Note_on_c, 2, 62, 96
4, 95232, Note_off_c, 2, 62, 0
4, 95232, Note_on_c, 2, 62, 96
4, 95744, Note_off_c, 2, 62, 0
4, 95744, Note_on_c, 2, 67, 96
4, 96256, Note_off_c, 2, 67, 0
4, 96256, Note_on_c, 2, 67, 96
4, 96768, Note_off_c, 2, 67, 0
4, 96768, Note_on_c, 2, 62, 96
4, 97280, Note_off_c, 2, 62, 0
4, 97280, Note_on_c, 2, 65, 96
4, 97792, Note_off_c, 2, 65, 0
4, 97792, Note_on_c, 2, 65, 96
4, 98304, Note_off_c, 2, 65, 0
4, 98304, Note_on_c, 2, 64, 96
4, 99328, Note_off_c, 2, 64, 0
4, 99328, Note_on_c, 2, 67, 96
4, 99840, Note_off_c, 2, 67, 0
4, 99840, Note_on_c, 2, 64, 96
4, 100352, Note_off_c, 2, 64, 0
4, 100352, Note_on_c, 2, 60, 96
4, 100864, Note_off_c, 2, 60, 0
4, 100864, Note_on_c, 2, 67, 96
4, 101376, Note_off_c, 2, 67, 0
4, 101376, Note_on_c, 2, 69, 96
4, 102400, Note_off_c, 2, 69, 0
4, 102400, Note_on_c, 2, 60, 96
4, 102912, Note_off_c, 2, 60, 0
4, 102912, Note_on_c, 2, 60, 96
4, 103424, Note_off_c, 2, 60, 0
4, 103424, Note_on_c, 2, 64, 96
4, 103936, Note_off_c, 2, 64, 0
4, 103936, Note_on_c, 2, 65, 96
4, 104448, Note_off_c, 2, 65, 0
4, 104448, Note_on_c, 2, 64, 96
4, 105472, Note_off_c, 2, 64, 0
4, 118272, Note_on_c, 2, 60, 96
4, 119808, Note_off_c, 2, 60, 0
4, 119808, Note_on_c, 2, 62, 96
4, 121344, Note_off_c, 2, 62, 0
4, 121344, Note_on_c, 2, 64, 96
4, 122880, Note_off_c, 2, 64, 0
4, 122880, Note_on_c, 2, 65, 96
4, 124416, Note_off_c, 2, 65, 0
4, 124416, Note_on_c, 2, 64, 96
4, 125952, Note_off_c, 2, 64, 0
4, 125952, Note_on_c, 2, 62, 96
4, 127488, Note_off_c, 2, 62, 0
4, 127488, Note_on_c, 2, 62, 96
4, 129024, Note_off_c, 2, 62, 0
4, 129024, Note_on_c, 2, 60, 96
4, 130048, Note_off_c, 2, 60, 0
4, 130048, Note_on_c, 2, 60, 96
4, 130560, Note_off_c, 2, 60, 0
4, 130560, Note_on_c, 2, 65, 96
4, 131584, Note_off_c, 2, 65, 0
4, 131584, Note_on_c, 2, 67, 96
4, 132096, Note_off_c, 2, 67, 0
4, 132096, Note_on_c, 2, 65, 96
4, 132608, Note_off_c, 2, 65, 0
4, 132608, Note_on_c, 2, 63, 96
4, 133120, Note_off_c, 2, 63, 0
4, 133120, Note_on_c, 2, 62, 96
4, 133632, Note_off_c, 2, 62, 0
4, 133632, Note_on_c, 2, 63, 96
4, 134144, Note_off_c, 2, 63, 0
4, 134144, Note_on_c, 2, 67, 96
4, 134656, Note_off_c, 2, 67, 0
4, 134656, Note_on_c, 2, 65, 96
4, 135168, Note_off_c, 2, 65, 0
4, 135168, Note_on_c, 2, 63, 96
4, 135680, Note_off_c, 2, 63, 0
4, 135680, Note_on_c, 2, 62, 96
4, 136192, Note_off_c, 2, 62, 0
4, 136192, Note_on_c, 2, 64, 96
4, 136704, Note_off_c, 2, 64, 0
4, 136704, Note_on_c, 2, 65, 96
4, 138752, Note_off_c, 2, 65, 0
4, 138752, Note_on_c, 2, 67, 96
4, 139264, Note_off_c, 2, 67, 0
4, 139264, Note_on_c, 2, 65, 96
4, 139776, Note_off_c, 2, 65, 0
4, 139776, Note_on_c, 2, 64, 96
4, 140288, Note_off_c, 2, 64, 0
4, 140288, Note_on_c, 2, 69, 96
4, 140800, Note_off_c, 2, 69, 0
4, 140800, Note_on_c, 2, 64, 96
4, 141312, Note_off_c, 2, 64, 0
4, 141312, Note_on_c, 2, 62, 96
4, 142336, Note_off_c, 2, 62, 0
4, 142336, Note_on_c, 2, 60, 96
4, 142848, Note_off_c, 2, 60, 0
4, 142848, Note_on_c, 2, 60, 96
4, 143872, Note_off_c, 2, 60, 0
4, 143872, Note_on_c, 2, 65, 96
4, 144384, Note_off_c, 2, 65, 0
4, 144384, Note_on_c, 2, 60, 96
4, 145408, Note_off_c, 2, 60, 0
4, 145408, Note_on_c, 2, 65, 96
4, 145920, Note_off_c, 2, 65, 0
4, 145920, Note_on_c, 2, 60, 96
4, 146944, Note_off_c, 2, 60, 0
4, 146944, Note_on_c, 2, 65, 96
4, 147456, Note_off_c, 2, 65, 0
4, 147456, Note_on_c, 2, 62, 96
4, 148480, Note_off_c, 2, 62, 0
4, 148480, Note_on_c, 2, 53, 96
4, 148992, Note_off_c, 2, 53, 0
4, 148992, Note_on_c, 2, 58, 96
4, 149504, Note_off_c, 2, 58, 0
4, 149504, Note_on_c, 2, 60, 96
4, 150016, Note_off_c, 2, 60, 0
4, 150016, Note_on_c, 2, 62, 96
4, 150528, Note_off_c, 2, 62, 0
4, 150528, Note_on_c, 2, 60, 96
4, 151040, Note_off_c, 2, 60, 0
4, 151040, Note_on_c, 2, 58, 96
4, 151552, Note_off_c, 2, 58, 0
4, 151552, Note_on_c, 2, 57, 96
4, 152064, Note_off_c, 2, 57, 0
4, 152064, Note_on_c, 2, 58, 96
4, 152576, Note_off_c, 2, 58, 0
4, 152576, Note_on_c, 2, 62, 96
4, 153088, Note_off_c, 2, 62, 0
4, 153088, Note_on_c, 2, 60, 96
4, 153600, Note_off_c, 2, 60, 0
4, 153600, Note_on_c, 2, 57, 96
4, 154624, Note_off_c, 2, 57, 0
4, 154624, Note_on_c, 2, 57, 96
4, 155136, Note_off_c, 2, 57, 0
4, 155136, Note_on_c, 2, 62, 96
4, 155648, Note_off_c, 2, 62, 0
4, 155648, Note_on_c, 2, 64, 96
4, 156160, Note_off_c, 2, 64, 0
4, 156160, Note_on_c, 2, 65, 96
4, 156672, Note_off_c, 2, 65, 0
4, 156672, Note_on_c, 2, 59, 96
4, 157184, Note_off_c, 2, 59, 0
4, 157184, Note_on_c, 2, 60, 96
4, 157696, Note_off_c, 2, 60, 0
4, 157696, Note_on_c, 2, 62, 96
4, 158208, Note_off_c, 2, 62, 0
4, 158208, Note_on_c, 2, 64, 96
4, 158720, Note_off_c, 2, 64, 0
4, 158720, Note_on_c, 2, 62, 96
4, 159232, Note_off_c, 2, 62, 0
4, 159232, Note_on_c, 2, 60, 96
4, 159744, Note_off_c, 2, 60, 0
4, 159744, Note_on_c, 2, 62, 96
4, 160768, Note_off_c, 2, 62, 0
4, 160768, Note_on_c, 2, 64, 96
4, 161280, Note_off_c, 2, 64, 0
4, 161280, Note_on_c, 2, 65, 96
4, 163840, Note_off_c, 2, 65, 0
4, 163840, Note_on_c, 2, 62, 96
4, 164352, Note_off_c, 2, 62, 0
4, 164352, Note_on_c, 2, 59, 96
4, 164864, Note_off_c, 2, 59, 0
4, 164864, Note_on_c, 2, 60, 96
4, 165376, Note_off_c, 2, 60, 0
4, 165376, Note_on_c, 2, 62, 96
4, 165888, Note_off_c, 2, 62, 0
4, 165888, Note_on_c, 2, 55, 96
4, 166912, Note_off_c, 2, 55, 0
4, 166912, Note_on_c, 2, 67, 96
4, 167424, Note_off_c, 2, 67, 0
4, 167424, Note_on_c, 2, 64, 96
4, 167936, Note_off_c, 2, 64, 0
4, 167936, Note_on_c, 2, 65, 96
4, 168448, Note_off_c, 2, 65, 0
4, 168448, Note_on_c, 2, 67, 96
4, 168960, Note_off_c, 2, 67, 0
4, 168960, Note_on_c, 2, 60, 96
4, 169984, Note_off_c, 2, 60, 0
4, 169984, Note_on_c, 2, 64, 96
4, 170496, Note_off_c, 2, 64, 0
4, 170496, Note_on_c, 2, 65, 96
4, 171008, Note_off_c, 2, 65, 0
4, 171008, Note_on_c, 2, 60, 96
4, 171520, Note_off_c, 2, 60, 0
4, 171520, Note_on_c, 2, 62, 96
4, 172032, Note_off_c, 2, 62, 0
4, 172032, Note_on_c, 2, 55, 96
4, 173056, Note_off_c, 2, 55, 0
4, 205312, Note_on_c, 2, 62, 96
4, 205824, Note_off_c, 2, 62, 0
4, 205824, Note_on_c, 2, 67, 96
4, 207872, Note_off_c, 2, 67, 0
4, 207872, Note_on_c, 2, 65, 96
4, 208384, Note_off_c, 2, 65, 0
4, 208384, Note_on_c, 2, 63, 96
4, 208896, Note_off_c, 2, 63, 0
4, 208896, Note_on_c, 2, 62, 96
4, 209920, Note_off_c, 2, 62, 0
4, 209920, Note_on_c, 2, 62, 96
4, 210432, Note_off_c, 2, 62, 0
4, 210432, Note_on_c, 2, 61, 96
4, 210944, Note_off_c, 2, 61, 0
4, 210944, Note_on_c, 2, 62, 96
4, 211456, Note_off_c, 2, 62, 0
4, 211456, Note_on_c, 2, 64, 96
4, 211968, Note_off_c, 2, 64, 0
4, 211968, Note_on_c, 2, 64, 96
4, 212992, Note_off_c, 2, 64, 0
4, 212992, Note_on_c, 2, 57, 96
4, 213504, Note_off_c, 2, 57, 0
4, 213504, Note_on_c, 2, 62, 96
4, 215552, Note_off_c, 2, 62, 0
4, 215552, Note_on_c, 2, 64, 96
4, 216064, Note_off_c, 2, 64, 0
4, 216064, Note_on_c, 2, 65, 96
4, 216576, Note_off_c, 2, 65, 0
4, 216576, Note_on_c, 2, 67, 96
4, 217600, Note_off_c, 2, 67, 0
4, 217600, Note_on_c, 2, 65, 96
4, 218112, Note_off_c, 2, 65, 0
4, 218112, Note_on_c, 2, 64, 96
4, 219136, Note_off_c, 2, 64, 0
4, 219136, Note_on_c, 2, 62, 96
4, 219648, Note_off_c, 2, 62, 0
4, 219648, Note_on_c, 2, 60, 96
4, 222208, Note_off_c, 2, 60, 0
4, 222208, Note_on_c, 2, 53, 96
4, 222720, Note_off_c, 2, 53, 0
4, 222720, Note_on_c, 2, 63, 96
4, 223744, Note_off_c, 2, 63, 0
4, 223744, Note_on_c, 2, 65, 96
4, 224256, Note_off_c, 2, 65, 0
4, 224256, Note_on_c, 2, 63, 96
4, 224768, Note_off_c, 2, 63, 0
4, 224768, Note_on_c, 2, 62, 96
4, 225280, Note_off_c, 2, 62, 0
4, 225280, Note_on_c, 2, 60, 96
4, 225792, Note_off_c, 2, 60, 0
4, 225792, Note_on_c, 2, 62, 96
4, 226304, Note_off_c, 2, 62, 0
4, 226304, Note_on_c, 2, 58, 96
4, 226816, Note_off_c, 2, 58, 0
4, 226816, Note_on_c, 2, 60, 96
4, 227328, Note_off_c, 2, 60, 0
4, 227328, Note_on_c, 2, 60, 96
4, 228352, Note_off_c, 2, 60, 0
4, 308224, Note_on_c, 2, 60, 96
4, 308736, Note_off_c, 2, 60, 0
4, 308736, Note_on_c, 2, 65, 96
4, 309760, Note_off_c, 2, 65, 0
4, 309760, Note_on_c, 2, 67, 96
4, 310272, Note_off_c, 2, 67, 0
4, 310272, Note_on_c, 2, 65, 96
4, 310784, Note_off_c, 2, 65, 0
4, 310784, Note_on_c, 2, 63, 96
4, 311296, Note_off_c, 2, 63, 0
4, 311296, Note_on_c, 2, 62, 96
4, 311808, Note_off_c, 2, 62, 0
4, 311808, Note_on_c, 2, 63, 96
4, 312320, Note_off_c, 2, 63, 0
4, 312320, Note_on_c, 2, 67, 96
4, 312832, Note_off_c, 2, 67, 0
4, 312832, Note_on_c, 2, 65, 96
4, 313344, Note_off_c, 2, 65, 0
4, 313344, Note_on_c, 2, 63, 96
4, 313856, Note_off_c, 2, 63, 0
4, 313856, Note_on_c, 2, 62, 96
4, 314368, Note_off_c, 2, 62, 0
4, 314368, Note_on_c, 2, 60, 96
4, 314880, Note_off_c, 2, 60, 0
4, 314880, Note_on_c, 2, 62, 96
4, 315392, Note_off_c, 2, 62, 0
4, 315392, Note_on_c, 2, 65, 96
4, 315904, Note_off_c, 2, 65, 0
4, 315904, Note_on_c, 2, 63, 96
4, 316416, Note_off_c, 2, 63, 0
4, 316416, Note_on_c, 2, 60, 96
4, 317440, Note_off_c, 2, 60, 0
4, 317440, Note_on_c, 2, 65, 96
4, 317952, Note_off_c, 2, 65, 0
4, 317952, Note_on_c, 2, 65, 96
4, 318464, Note_off_c, 2, 65, 0
4, 318464, Note_on_c, 2, 67, 96
4, 318976, Note_off_c, 2, 67, 0
4, 318976, Note_on_c, 2, 64, 96
4, 319488, Note_off_c, 2, 64, 0
4, 319488, Note_on_c, 2, 65, 96
4, 320512, Note_off_c, 2, 65, 0
4, 320512, Note_on_c, 2, 67, 96
4, 321024, Note_off_c, 2, 67, 0
4, 321024, Note_on_c, 2, 65, 96
4, 321536, Note_off_c, 2, 65, 0
4, 321536, Note_on_c, 2, 64, 96
4, 322048, Note_off_c, 2, 64, 0
4, 322048, Note_on_c, 2, 62, 96
4, 322560, Note_off_c, 2, 62, 0
4, 322560, Note_on_c, 2, 62, 96
4, 323072, Note_off_c, 2, 62, 0
4, 323072, Note_on_c, 2, 67, 96
4, 323584, Note_off_c, 2, 67, 0
4, 323584, Note_on_c, 2, 67, 96
4, 324096, Note_off_c, 2, 67, 0
4, 324096, Note_on_c, 2, 62, 96
4, 324608, Note_off_c, 2, 62, 0
4, 324608, Note_on_c, 2, 65, 96
4, 325120, Note_off_c, 2, 65, 0
4, 325120, Note_on_c, 2, 65, 96
4, 325632, Note_off_c, 2, 65, 0
4, 325632, Note_on_c, 2, 64, 96
4, 326656, Note_off_c, 2, 64, 0
4, 326656, Note_on_c, 2, 67, 96
4, 327168, Note_off_c, 2, 67, 0
4, 327168, Note_on_c, 2, 64, 96
4, 327680, Note_off_c, 2, 64, 0
4, 327680, Note_on_c, 2, 60, 96
4, 328192, Note_off_c, 2, 60, 0
4, 328192, Note_on_c, 2, 67, 96
4, 328704, Note_off_c, 2, 67, 0
4, 328704, Note_on_c, 2, 69, 96
4, 329728, Note_off_c, 2, 69, 0
4, 329728, Note_on_c, 2, 60, 96
4, 330240, Note_off_c, 2, 60, 0
4, 330240, Note_on_c, 2, 60, 96
4, 330752, Note_off_c, 2, 60, 0
4, 330752, Note_on_c, 2, 64, 96
4, 331264, Note_off_c, 2, 64, 0
4, 331264, Note_on_c, 2, 65, 96
4, 331776, Note_off_c, 2, 65, 0
4, 331776, Note_on_c, 2, 64, 96
4, 332800, Note_off_c, 2, 64, 0
4, 345600, Note_on_c, 2, 60, 96
4, 347136, Note_off_c, 2, 60, 0
4, 347136, Note_on_c, 2, 62, 96
4, 348672, Note_off_c, 2, 62, 0
4, 348672, Note_on_c, 2, 64, 96
4, 350208, Note_off_c, 2, 64, 0
4, 350208, Note_on_c, 2, 65, 96
4, 351744, Note_off_c, 2, 65, 0
4, 351744, Note_on_c, 2, 64, 96
4, 353280, Note_off_c, 2, 64, 0
4, 353280, Note_on_c, 2, 62, 96
4, 354816, Note_off_c, 2, 62, 0
4, 354816, Note_on_c, 2, 62, 96
4, 356352, Note_off_c, 2, 62, 0
4, 356352, Note_on_c, 2, 60, 96
4, 357376, Note_off_c, 2, 60, 0
4, 357376, Note_on_c, 2, 60, 96
4, 357888, Note_off_c, 2, 60, 0
4, 357888, Note_on_c, 2, 65, 96
4, 358912, Note_off_c, 2, 65, 0
4, 358912, Note_on_c, 2, 67, 96
4, 359424, Note_off_c, 2, 67, 0
4, 359424, Note_on_c, 2, 65, 96
4, 359936, Note_off_c, 2, 65, 0
4, 359936, Note_on_c, 2, 63, 96
4, 360448, Note_off_c, 2, 63, 0
4, 360448, Note_on_c, 2, 62, 96
4, 360960, Note_off_c, 2, 62, 0
4, 360960, Note_on_c, 2, 63, 96
4, 361472, Note_off_c, 2, 63, 0
4, 361472, Note_on_c, 2, 67, 96
4, 361984, Note_off_c, 2, 67, 0
4, 361984, Note_on_c, 2, 65, 96
4, 362496, Note_off_c, 2, 65, 0
4, 362496, Note_on_c, 2, 63, 96
4, 363008, Note_off_c, 2, 63, 0
4, 363008, Note_on_c, 2, 62, 96
4, 363520, Note_off_c, 2, 62, 0
4, 363520, Note_on_c, 2, 64, 96
4, 364032, Note_off_c, 2, 64, 0
4, 364032, Note_on_c, 2, 65, 96
4, 365056, Note_off_c, 2, 65, 0
4, 365056, Note_on_c, 2, 65, 96
4, 365568, Note_off_c, 2, 65, 0
4, 365568, Note_on_c, 2, 65, 96
4, 366080, Note_off_c, 2, 65, 0
4, 366080, Note_on_c, 2, 67, 96
4, 366592, Note_off_c, 2, 67, 0
4, 366592, Note_on_c, 2, 65, 96
4, 367104, Note_off_c, 2, 65, 0
4, 367104, Note_on_c, 2, 64, 96
4, 367616, Note_off_c, 2, 64, 0
4, 367616, Note_on_c, 2, 69, 96
4, 368128, Note_off_c, 2, 69, 0
4, 368128, Note_on_c, 2, 64, 96
4, 368640, Note_off_c, 2, 64, 0
4, 368640, Note_on_c, 2, 62, 96
4, 369664, Note_off_c, 2, 62, 0
4, 369664, Note_on_c, 2, 60, 96
4, 370176, Note_off_c, 2, 60, 0
4, 370176, Note_on_c, 2, 60, 96
4, 371200, Note_off_c, 2, 60, 0
4, 371200, Note_on_c, 2, 65, 96
4, 371712, Note_off_c, 2, 65, 0
4, 371712, Note_on_c, 2, 60, 96
4, 372736, Note_off_c, 2, 60, 0
4, 372736, Note_on_c, 2, 65, 96
4, 373248, Note_off_c, 2, 65, 0
4, 373248, Note_on_c, 2, 60, 96
4, 374272, Note_off_c, 2, 60, 0
4, 374272, Note_on_c, 2, 65, 96
4, 374784, Note_off_c, 2, 65, 0
4, 374784, Note_on_c, 2, 62, 96
4, 375808, Note_off_c, 2, 62, 0
4, 375808, Note_on_c, 2, 53, 96
4, 376320, Note_off_c, 2, 53, 0
4, 376320, Note_on_c, 2, 58, 96
4, 376832, Note_off_c, 2, 58, 0
4, 376832, Note_on_c, 2, 60, 96
4, 377344, Note_off_c, 2, 60, 0
4, 377344, Note_on_c, 2, 62, 96
4, 377856, Note_off_c, 2, 62, 0
4, 377856, Note_on_c, 2, 60, 96
4, 378368, Note_off_c, 2, 60, 0
4, 378368, Note_on_c, 2, 58, 96
4, 378880, Note_off_c, 2, 58, 0
4, 378880, Note_on_c, 2, 57, 96
4, 379392, Note_off_c, 2, 57, 0
4, 379392, Note_on_c, 2, 58, 96
4, 379904, Note_off_c, 2, 58, 0
4, 379904, Note_on_c, 2, 62, 96
4, 380416, Note_off_c, 2, 62, 0
4, 380416, Note_on_c, 2, 60, 96
4, 380928, Note_off_c, 2, 60, 0
4, 380928, Note_on_c, 2, 57, 96
4, 381952, Note_off_c, 2, 57, 0
4, 381952, Note_on_c, 2, 57, 96
4, 382464, Note_off_c, 2, 57, 0
4, 382464, Note_on_c, 2, 62, 96
4, 382976, Note_off_c, 2, 62, 0
4, 382976, Note_on_c, 2, 64, 96
4, 383488, Note_off_c, 2, 64, 0
4, 383488, Note_on_c, 2, 65, 96
4, 384000, Note_off_c, 2, 65, 0
4, 384000, Note_on_c, 2, 59, 96
4, 384512, Note_off_c, 2, 59, 0
4, 384512, Note_on_c, 2, 60, 96
4, 385024, Note_off_c, 2, 60, 0
4, 385024, Note_on_c, 2, 62, 96
4, 385536, Note_off_c, 2, 62, 0
4, 385536, Note_on_c, 2, 64, 96
4, 386048, Note_off_c, 2, 64, 0
4, 386048, Note_on_c, 2, 62, 96
4, 386560, Note_off_c, 2, 62, 0
4, 386560, Note_on_c, 2, 60, 96
4, 387072, Note_off_c, 2, 60, 0
4, 387072, Note_on_c, 2, 62, 96
4, 388096, Note_off_c, 2, 62, 0
4, 388096, Note_on_c, 2, 64, 96
4, 388608, Note_off_c, 2, 64, 0
4, 388608, Note_on_c, 2, 65, 96
4, 389632, Note_off_c, 2, 65, 0
4, 389632, Note_on_c, 2, 65, 96
4, 390144, Note_off_c, 2, 65, 0
4, 390144, Note_on_c, 2, 65, 96
4, 391168, Note_off_c, 2, 65, 0
4, 391168, Note_on_c, 2, 62, 96
4, 391680, Note_off_c, 2, 62, 0
4, 391680, Note_on_c, 2, 59, 96
4, 392192, Note_off_c, 2, 59, 0
4, 392192, Note_on_c, 2, 60, 96
4, 392704, Note_off_c, 2, 60, 0
4, 392704, Note_on_c, 2, 62, 96
4, 393216, Note_off_c, 2, 62, 0
4, 393216, Note_on_c, 2, 55, 96
4, 394240, Note_off_c, 2, 55, 0
4, 394240, Note_on_c, 2, 67, 96
4, 394752, Note_off_c, 2, 67, 0
4, 394752, Note_on_c, 2, 64, 96
4, 395264, Note_off_c, 2, 64, 0
4, 395264, Note_on_c, 2, 65, 96
4, 395776, Note_off_c, 2, 65, 0
4, 395776, Note_on_c, 2, 67, 96
4, 396288, Note_off_c, 2, 67, 0
4, 396288, Note_on_c, 2, 60, 96
4, 397312, Note_off_c, 2, 60, 0
4, 397312, Note_on_c, 2, 64, 96
4, 397824, Note_off_c, 2, 64, 0
4, 397824, Note_on_c, 2, 65, 96
4, 398336, Note_off_c, 2, 65, 0
4, 398336, Note_on_c, 2, 60, 96
4, 398848, Note_off_c, 2, 60, 0
4, 398848, Note_on_c, 2, 62, 96
4, 399360, Note_off_c, 2, 62, 0
4, 399360, Note_on_c, 2, 55, 96
4, 400384, Note_off_c, 2, 55, 0
4, 432640, Note_on_c, 2, 62, 96
4, 433152, Note_off_c, 2, 62, 0
4, 433152, Note_on_c, 2, 67, 96
4, 434688, Note_off_c, 2, 67, 0
4, 434688, Note_on_c, 2, 67, 96
4, 435200, Note_off_c, 2, 67, 0
4, 435200, Note_on_c, 2, 65, 96
4, 435712, Note_off_c, 2, 65, 0
4, 435712, Note_on_c, 2, 63, 96
4, 436224, Note_off_c, 2, 63, 0
4, 436224, Note_on_c, 2, 62, 96
4, 437248, Note_off_c, 2, 62, 0
4, 437248, Note_on_c, 2, 62, 96
4, 437760, Note_off_c, 2, 62, 0
4, 437760, Note_on_c, 2, 61, 96
4, 438272, Note_off_c, 2, 61, 0
4, 438272, Note_on_c, 2, 62, 96
4, 438784, Note_off_c, 2, 62, 0
4, 438784, Note_on_c, 2, 64, 96
4, 439296, Note_off_c, 2, 64, 0
4, 439296, Note_on_c, 2, 64, 96
4, 440320, Note_off_c, 2, 64, 0
4, 440320, Note_on_c, 2, 57, 96
4, 440832, Note_off_c, 2, 57, 0
4, 440832, Note_on_c, 2, 62, 96
4, 442880, Note_off_c, 2, 62, 0
4, 442880, Note_on_c, 2, 64, 96
4, 443392, Note_off_c, 2, 64, 0
4, 443392, Note_on_c, 2, 65, 96
4, 443904, Note_off_c, 2, 65, 0
4, 443904, Note_on_c, 2, 67, 96
4, 444928, Note_off_c, 2, 67, 0
4, 444928, Note_on_c, 2, 65, 96
4, 445440, Note_off_c, 2, 65, 0
4, 445440, Note_on_c, 2, 64, 96
4, 446464, Note_off_c, 2, 64, 0
4, 446464, Note_on_c, 2, 62, 96
4, 446976, Note_off_c, 2, 62, 0
4, 446976, Note_on_c, 2, 60, 96
4, 449536, Note_off_c, 2, 60, 0
4, 449536, Note_on_c, 2, 53, 96
4, 450048, Note_off_c, 2, 53, 0
4, 450048, Note_on_c, 2, 63, 96
4, 451072, Note_off_c, 2, 63, 0
4, 451072, Note_on_c, 2, 65, 96
4, 451584, Note_off_c, 2, 65, 0
4, 451584, Note_on_c, 2, 63, 96
4, 452096, Note_off_c, 2, 63, 0
4, 452096, Note_on_c, 2, 62, 96
4, 452608, Note_off_c, 2, 62, 0
4, 452608, Note_on_c, 2, 60, 96
4, 453120, Note_off_c, 2, 60, 0
4, 453120, Note_on_c, 2, 62, 96
4, 453632, Note_off_c, 2, 62, 0
4, 453632, Note_on_c, 2, 58, 96
4, 454144, Note_off_c, 2, 58, 0
4, 454144, Note_on_c, 2, 60, 96
4, 454656, Note_off_c, 2, 60, 0
4, 454656, Note_on_c, 2, 60, 96
4, 455680, Note_off_c, 2, 60, 0
4, 509952, Note_on_c, 2, 65, 96
4, 513024, Note_off_c, 2, 65, 0
4, 513024, Note_on_c, 2, 60, 96
4, 516096, Note_off_c, 2, 60, 0
4, 522240, Note_on_c, 2, 64, 96
4, 526848, Note_off_c, 2, 64, 0
4, 526848, Note_on_c, 2, 62, 96
4, 527360, Note_off_c, 2, 62, 0
4, 527360, Note_on_c, 2, 61, 96
4, 527872, Note_off_c, 2, 61, 0
4, 527872, Note_on_c, 2, 62, 96
4, 528384, Note_off_c, 2, 62, 0
4, 528384, Note_on_c, 2, 61, 96
4, 529408, Note_off_c, 2, 61, 0
4, 540672, Note_on_c, 2, 62, 96
4, 541184, Note_off_c, 2, 62, 0
4, 541184, Note_on_c, 2, 64, 96
4, 541696, Note_off_c, 2, 64, 0
4, 541696, Note_on_c, 2, 65, 96
4, 542208, Note_off_c, 2, 65, 0
4, 542208, Note_on_c, 2, 62, 96
4, 542720, Note_off_c, 2, 62, 0
4, 542720, Note_on_c, 2, 64, 96
4, 543232, Note_off_c, 2, 64, 0
4, 543232, Note_on_c, 2, 65, 96
4, 543744, Note_off_c, 2, 65, 0
4, 543744, Note_on_c, 2, 65, 96
4, 547840, Note_off_c, 2, 65, 0
4, 547840, Note_on_c, 2, 62, 96
4, 548352, Note_off_c, 2, 62, 0
4, 548352, Note_on_c, 2, 67, 96
4, 549376, Note_off_c, 2, 67, 0
4, 549376, Note_on_c, 2, 65, 96
4, 549888, Note_off_c, 2, 65, 0
4, 549888, Note_on_c, 2, 64, 96
4, 551424, Note_off_c, 2, 64, 0
4, 551424, Note_on_c, 2, 64, 96
4, 552960, Note_off_c, 2, 64, 0
4, 552960, Note_on_c, 2, 60, 96
4, 553984, Note_off_c, 2, 60, 0
4, 553984, Note_on_c, 2, 60, 96
4, 554496, Note_off_c, 2, 60, 0
4, 554496, Note_on_c, 2, 65, 96
4, 555520, Note_off_c, 2, 65, 0
4, 555520, Note_on_c, 2, 67, 96
4, 556032, Note_off_c, 2, 67, 0
4, 556032, Note_on_c, 2, 63, 96
4, 557056, Note_off_c, 2, 63, 0
4, 557056, Note_on_c, 2, 62, 96
4, 557568, Note_off_c, 2, 62, 0
4, 557568, Note_on_c, 2, 63, 96
4, 558080, Note_off_c, 2, 63, 0
4, 558080, Note_on_c, 2, 67, 96
4, 558592, Note_off_c, 2, 67, 0
4, 558592, Note_on_c, 2, 65, 96
4, 559104, Note_off_c, 2, 65, 0
4, 559104, Note_on_c, 2, 62, 96
4, 560640, Note_off_c, 2, 62, 0
4, 562176, Note_on_c, 2, 60, 96
4, 563712, Note_off_c, 2, 60, 0
4, 565248, Note_on_c, 2, 58, 96
4, 566272, Note_off_c, 2, 58, 0
4, 566272, Note_on_c, 2, 57, 96
4, 566784, Note_off_c, 2, 57, 0
4, 566784, Note_on_c, 2, 55, 96
4, 567296, Note_off_c, 2, 55, 0
4, 567296, Note_on_c, 2, 53, 96
4, 567808, Note_off_c, 2, 53, 0
4, 567808, Note_on_c, 2, 52, 96
4, 568320, Note_off_c, 2, 52, 0
4, 568320, Note_on_c, 2, 57, 96
4, 568832, Note_off_c, 2, 57, 0
4, 568832, Note_on_c, 2, 58, 96
4, 569344, Note_off_c, 2, 58, 0
4, 569344, Note_on_c, 2, 60, 96
4, 569856, Note_off_c, 2, 60, 0
4, 569856, Note_on_c, 2, 62, 96
4, 571904, Note_off_c, 2, 62, 0
4, 571904, Note_on_c, 2, 64, 96
4, 572416, Note_off_c, 2, 64, 0
4, 572416, Note_on_c, 2, 65, 96
4, 572928, Note_off_c, 2, 65, 0
4, 572928, Note_on_c, 2, 67, 96
4, 573952, Note_off_c, 2, 67, 0
4, 573952, Note_on_c, 2, 65, 96
4, 574464, Note_off_c, 2, 65, 0
4, 574464, Note_on_c, 2, 64, 96
4, 575488, Note_off_c, 2, 64, 0
4, 575488, Note_on_c, 2, 62, 96
4, 576000, Note_off_c, 2, 62, 0
4, 576000, Note_on_c, 2, 60, 96
4, 577536, Note_off_c, 2, 60, 0
4, 577536, Note_on_c, 2, 60, 96
4, 578560, Note_off_c, 2, 60, 0
4, 578560, Note_on_c, 2, 53, 96
4, 579072, Note_off_c, 2, 53, 0
4, 579072, Note_on_c, 2, 63, 96
4, 580096, Note_off_c, 2, 63, 0
4, 580096, Note_on_c, 2, 65, 96
4, 580608, Note_off_c, 2, 65, 0
4, 580608, Note_on_c, 2, 64, 96
4, 581120, Note_off_c, 2, 64, 0
4, 581120, Note_on_c, 2, 62, 96
4, 581632, Note_off_c, 2, 62, 0
4, 581632, Note_on_c, 2, 60, 96
4, 582144, Note_off_c, 2, 60, 0
4, 582144, Note_on_c, 2, 62, 96
4, 582656, Note_off_c, 2, 62, 0
4, 582656, Note_on_c, 2, 58, 96
4, 583168, Note_off_c, 2, 58, 0
4, 583168, Note_on_c, 2, 60, 96
4, 583680, Note_off_c, 2, 60, 0
4, 583680, Note_on_c, 2, 60, 96
4, 584704, Note_off_c, 2, 60, 0
4, 609792, Note_on_c, 2, 62, 96
4, 610304, Note_off_c, 2, 62, 0
4, 610304, Note_on_c, 2, 64, 96
4, 610816, Note_off_c, 2, 64, 0
4, 610816, Note_on_c, 2, 65, 96
4, 611328, Note_off_c, 2, 65, 0
4, 611328, Note_on_c, 2, 64, 96
4, 613376, Note_off_c, 2, 64, 0
4, 613376, Note_on_c, 2, 61, 96
4, 613888, Note_off_c, 2, 61, 0
4, 613888, Note_on_c, 2, 57, 96
4, 614400, Note_off_c, 2, 57, 0
4, 614400, Note_on_c, 2, 62, 96
4, 616448, Note_off_c, 2, 62, 0
4, 616448, Note_on_c, 2, 67, 96
4, 616704, Note_off_c, 2, 67, 0
4, 616704, Note_on_c, 2, 65, 96
4, 616960, Note_off_c, 2, 65, 0
4, 616960, Note_on_c, 2, 67, 96
4, 617472, Note_off_c, 2, 67, 0
4, 617472, Note_on_c, 2, 60, 96
4, 619520, Note_off_c, 2, 60, 0
4, 619520, Note_on_c, 2, 65, 96
4, 619776, Note_off_c, 2, 65, 0
4, 619776, Note_on_c, 2, 64, 96
4, 620032, Note_off_c, 2, 64, 0
4, 620032, Note_on_c, 2, 65, 96
4, 620544, Note_off_c, 2, 65, 0
4, 620544, Note_on_c, 2, 58, 96
4, 622592, Note_off_c, 2, 58, 0
4, 622592, Note_on_c, 2, 64, 96
4, 622848, Note_off_c, 2, 64, 0
4, 622848, Note_on_c, 2, 62, 96
4, 623104, Note_off_c, 2, 62, 0
4, 623104, Note_on_c, 2, 64, 96
4, 623616, Note_off_c, 2, 64, 0
4, 623616, Note_on_c, 2, 57, 96
4, 625664, Note_off_c, 2, 57, 0
4, 625664, Note_on_c, 2, 62, 96
4, 625920, Note_off_c, 2, 62, 0
4, 625920, Note_on_c, 2, 60, 96
4, 626176, Note_off_c, 2, 60, 0
4, 626176, Note_on_c, 2, 62, 96
4, 626688, Note_off_c, 2, 62, 0
4, 626688, Note_on_c, 2, 55, 96
4, 628736, Note_off_c, 2, 55, 0
4, 628736, Note_on_c, 2, 60, 96
4, 628992, Note_off_c, 2, 60, 0
4, 628992, Note_on_c, 2, 58, 96
4, 629248, Note_off_c, 2, 58, 0
4, 629248, Note_on_c, 2, 57, 96
4, 629504, Note_off_c, 2, 57, 0
4, 629504, Note_on_c, 2, 55, 96
4, 629760, Note_off_c, 2, 55, 0
4, 629760, Note_on_c, 2, 53, 96
4, 630272, Note_off_c, 2, 53, 0
4, 630272, Note_on_c, 2, 60, 96
4, 630784, Note_off_c, 2, 60, 0
4, 630784, Note_on_c, 2, 60, 96
4, 631296, Note_off_c, 2, 60, 0
4, 631296, Note_on_c, 2, 62, 96
4, 633344, Note_off_c, 2, 62, 0
4, 633344, Note_on_c, 2, 55, 96
4, 633856, Note_off_c, 2, 55, 0
4, 633856, Note_on_c, 2, 62, 96
4, 634368, Note_off_c, 2, 62, 0
4, 634368, Note_on_c, 2, 58, 96
4, 636416, Note_off_c, 2, 58, 0
4, 636416, Note_on_c, 2, 67, 96
4, 636928, Note_off_c, 2, 67, 0
4, 636928, Note_on_c, 2, 65, 96
4, 637440, Note_off_c, 2, 65, 0
4, 637440, Note_on_c, 2, 64, 96
4, 638976, Note_off_c, 2, 64, 0
4, 638976, Note_on_c, 2, 65, 96
4, 640000, Note_off_c, 2, 65, 0
4, 640000, Note_on_c, 2, 65, 96
4, 640512, Note_off_c, 2, 65, 0
4, 640512, Note_on_c, 2, 60, 96
4, 641536, Note_off_c, 2, 60, 0
4, 641536, Note_on_c, 2, 60, 96
4, 642048, Note_off_c, 2, 60, 0
4, 642048, Note_on_c, 2, 60, 96
4, 642560, Note_off_c, 2, 60, 0
4, 642560, Note_on_c, 2, 58, 96
4, 643072, Note_off_c, 2, 58, 0
4, 643072, Note_on_c, 2, 57, 96
4, 643584, Note_off_c, 2, 57, 0
4, 643584, Note_on_c, 2, 58, 96
4, 644096, Note_off_c, 2, 58, 0
4, 644096, Note_on_c, 2, 55, 96
4, 644608, Note_off_c, 2, 55, 0
4, 644608, Note_on_c, 2, 57, 96
4, 645120, Note_off_c, 2, 57, 0
4, 645120, Note_on_c, 2, 57, 96
4, 646144, Note_off_c, 2, 57, 0
4, 731136, End_track
5, 0, Start_track
5, 0, Title_t, "Instrument 4"
5, 0, Program_c, 3, 0
5, 83968, Note_on_c, 3, 53, 96
5, 84480, Note_off_c, 3, 53, 0
5, 84480, Note_on_c, 3, 60, 96
5, 85504, Note_off_c, 3, 60, 0
5, 85504, Note_on_c, 3, 62, 96
5, 86016, Note_off_c, 3, 62, 0
5, 86016, Note_on_c, 3, 60, 96
5, 86528, Note_off_c, 3, 60, 0
5, 86528, Note_on_c, 3, 58, 96
5, 87040, Note_off_c, 3, 58, 0
5, 87040, Note_on_c, 3, 57, 96
5, 87552, Note_off_c, 3, 57, 0
5, 87552, Note_on_c, 3, 58, 96
5, 88064, Note_off_c, 3, 58, 0
5, 88064, Note_on_c, 3, 62, 96
5, 88576, Note_off_c, 3, 62, 0
5, 88576, Note_on_c, 3, 60, 96
5, 89088, Note_off_c, 3, 60, 0
5, 89088, Note_on_c, 3, 58, 96
5, 89600, Note_off_c, 3, 58, 0
5, 89600, Note_on_c, 3, 57, 96
5, 90112, Note_off_c, 3, 57, 0
5, 90112, Note_on_c, 3, 53, 96
5, 90624, Note_off_c, 3, 53, 0
5, 90624, Note_on_c, 3, 55, 96
5, 91136, Note_off_c, 3, 55, 0
5, 91136, Note_on_c, 3, 58, 96
5, 91648, Note_off_c, 3, 58, 0
5, 91648, Note_on_c, 3, 57, 96
5, 92160, Note_off_c, 3, 57, 0
5, 92160, Note_on_c, 3, 53, 96
5, 93184, Note_off_c, 3, 53, 0
5, 93184, Note_on_c, 3, 52, 96
5, 93696, Note_off_c, 3, 52, 0
5, 93696, Note_on_c, 3, 50, 96
5, 94208, Note_off_c, 3, 50, 0
5, 94208, Note_on_c, 3, 52, 96
5, 94720, Note_off_c, 3, 52, 0
5, 94720, Note_on_c, 3, 53, 96
5, 95232, Note_off_c, 3, 53, 0
5, 95232, Note_on_c, 3, 55, 96
5, 96256, Note_off_c, 3, 55, 0
5, 96256, Note_on_c, 3, 53, 96
5, 96768, Note_off_c, 3, 53, 0
5, 96768, Note_on_c, 3, 55, 96
5, 97792, Note_off_c, 3, 55, 0
5, 97792, Note_on_c, 3, 43, 96
5, 98304, Note_off_c, 3, 43, 0
5, 98304, Note_on_c, 3, 48, 96
5, 99328, Note_off_c, 3, 48, 0
5, 99328, Note_on_c, 3, 48, 96
5, 99840, Note_off_c, 3, 48, 0
5, 99840, Note_on_c, 3, 58, 96
5, 100864, Note_off_c, 3, 58, 0
5, 100864, Note_on_c, 3, 60, 96
5, 101376, Note_off_c, 3, 60, 0
5, 101376, Note_on_c, 3, 58, 96
5, 101888, Note_off_c, 3, 58, 0
5, 101888, Note_on_c, 3, 57, 96
5, 102400, Note_off_c, 3, 57, 0
5, 102400, Note_on_c, 3, 55, 96
5, 102912, Note_off_c, 3, 55, 0
5, 102912, Note_on_c, 3, 57, 96
5, 103424, Note_off_c, 3, 57, 0
5, 103424, Note_on_c, 3, 60, 96
5, 103936, Note_off_c, 3, 60, 0
5, 103936, Note_on_c, 3, 59, 96
5, 104448, Note_off_c, 3, 59, 0
5, 104448, Note_on_c, 3, 57, 96
5, 105472, Note_off_c, 3, 57, 0
5, 123904, Note_on_c, 3, 53, 96
5, 124416, Note_off_c, 3, 53, 0
5, 124416, Note_on_c, 3, 60, 96
5, 125440, Note_off_c, 3, 60, 0
5, 125440, Note_on_c, 3, 62, 96
5, 125952, Note_off_c, 3, 62, 0
5, 125952, Note_on_c, 3, 60, 96
5, 126464, Note_off_c, 3, 60, 0
5, 126464, Note_on_c, 3, 58, 96
5, 126976, Note_off_c, 3, 58, 0
5, 126976, Note_on_c, 3, 57, 96
5, 127488, Note_off_c, 3, 57, 0
5, 127488, Note_on_c, 3, 58, 96
5, 128000, Note_off_c, 3, 58, 0
5, 128000, Note_on_c, 3, 62, 96
5, 128512, Note_off_c, 3, 62, 0
5, 128512, Note_on_c, 3, 60, 96
5, 129024, Note_off_c, 3, 60, 0
5, 129024, Note_on_c, 3, 58, 96
5, 129536, Note_off_c, 3, 58, 0
5, 129536, Note_on_c, 3, 57, 96
5, 130048, Note_off_c, 3, 57, 0
5, 130048, Note_on_c, 3, 53, 96
5, 130560, Note_off_c, 3, 53, 0
5, 130560, Note_on_c, 3, 62, 96
5, 132608, Note_off_c, 3, 62, 0
5, 132608, Note_on_c, 3, 60, 96
5, 133120, Note_off_c, 3, 60, 0
5, 133120, Note_on_c, 3, 58, 96
5, 133632, Note_off_c, 3, 58, 0
5, 133632, Note_on_c, 3, 60, 96
5, 134656, Note_off_c, 3, 60, 0
5, 134656, Note_on_c, 3, 53, 96
5, 135168, Note_off_c, 3, 53, 0
5, 135168, Note_on_c, 3, 58, 96
5, 136192, Note_off_c, 3, 58, 0
5, 136192, Note_on_c, 3, 55, 96
5, 136704, Note_off_c, 3, 55, 0
5, 136704, Note_on_c, 3, 53, 96
5, 137216, Note_off_c, 3, 53, 0
5, 137216, Note_on_c, 3, 52, 96
5, 137728, Note_off_c, 3, 52, 0
5, 137728, Note_on_c, 3, 50, 96
5, 138240, Note_off_c, 3, 50, 0
5, 138240, Note_on_c, 3, 55, 96
5, 138752, Note_off_c, 3, 55, 0
5, 138752, Note_on_c, 3, 57, 96
5, 139264, Note_off_c, 3, 57, 0
5, 139264, Note_on_c, 3, 58, 96
5, 139776, Note_off_c, 3, 58, 0
5, 139776, Note_on_c, 3, 49, 96
5, 140800, Note_off_c, 3, 49, 0
5, 140800, Note_on_c, 3, 61, 96
5, 141312, Note_off_c, 3, 61, 0
5, 141312, Note_on_c, 3, 62, 96
5, 142336, Note_off_c, 3, 62, 0
5, 142336, Note_on_c, 3, 52, 96
5, 142848, Note_off_c, 3, 52, 0
5, 142848, Note_on_c, 3, 53, 96
5, 143360, Note_off_c, 3, 53, 0
5, 143360, Note_on_c, 3, 48, 96
5, 143872, Note_off_c, 3, 48, 0
5, 143872, Note_on_c, 3, 57, 96
5, 144384, Note_off_c, 3, 57, 0
5, 144384, Note_on_c, 3, 57, 96
5, 144896, Note_off_c, 3, 57, 0
5, 144896, Note_on_c, 3, 60, 96
5, 145408, Note_off_c, 3, 60, 0
5, 145408, Note_on_c, 3, 48, 96
5, 145920, Note_off_c, 3, 48, 0
5, 145920, Note_on_c, 3, 53, 96
5, 146432, Note_off_c, 3, 53, 0
5, 146432, Note_on_c, 3, 55, 96
5, 146944, Note_off_c, 3, 55, 0
5, 146944, Note_on_c, 3, 57, 96
5, 147456, Note_off_c, 3, 57, 0
5, 147456, Note_on_c, 3, 58, 96
5, 148480, Note_off_c, 3, 58, 0
5, 151552, Note_on_c, 3, 48, 96
5, 152064, Note_off_c, 3, 48, 0
5, 152064, Note_on_c, 3, 55, 96
5, 153088, Note_off_c, 3, 55, 0
5, 153088, Note_on_c, 3, 57, 96
5, 153600, Note_off_c, 3, 57, 0
5, 153600, Note_on_c, 3, 53, 96
5, 154624, Note_off_c, 3, 53, 0
5, 154624, Note_on_c, 3, 52, 96
5, 155136, Note_off_c, 3, 52, 0
5, 155136, Note_on_c, 3, 50, 96
5, 157184, Note_off_c, 3, 50, 0
5, 157184, Note_on_c, 3, 52, 96
5, 157696, Note_off_c, 3, 52, 0
5, 157696, Note_on_c, 3, 50, 96
5, 158208, Note_off_c, 3, 50, 0
5, 158208, Note_on_c, 3, 48, 96
5, 158720, Note_off_c, 3, 48, 0
5, 158720, Note_on_c, 3, 50, 96
5, 159232, Note_off_c, 3, 50, 0
5, 159232, Note_on_c, 3, 52, 96
5, 159744, Note_off_c, 3, 52, 0
5, 159744, Note_on_c, 3, 53, 96
5, 160768, Note_off_c, 3, 53, 0
5, 160768, Note_on_c, 3, 52, 96
5, 161280, Note_off_c, 3, 52, 0
5, 161280, Note_on_c, 3, 50, 96
5, 161792, Note_off_c, 3, 50, 0
5, 161792, Note_on_c, 3, 52, 96
5, 162304, Note_off_c, 3, 52, 0
5, 162304, Note_on_c, 3, 53, 96
5, 162816, Note_off_c, 3, 53, 0
5, 162816, Note_on_c, 3, 55, 96
5, 163840, Note_off_c, 3, 55, 0
5, 163840, Note_on_c, 3, 53, 96
5, 164352, Note_off_c, 3, 53, 0
5, 164352, Note_on_c, 3, 55, 96
5, 165376, Note_off_c, 3, 55, 0
5, 165376, Note_on_c, 3, 43, 96
5, 165888, Note_off_c, 3, 43, 0
5, 165888, Note_on_c, 3, 48, 96
5, 166400, Note_off_c, 3, 48, 0
5, 166400, Note_on_c, 3, 52, 96
5, 166912, Note_off_c, 3, 52, 0
5, 166912, Note_on_c, 3, 55, 96
5, 167424, Note_off_c, 3, 55, 0
5, 167424, Note_on_c, 3, 60, 96
5, 167936, Note_off_c, 3, 60, 0
5, 167936, Note_on_c, 3, 55, 96
5, 168448, Note_off_c, 3, 55, 0
5, 168448, Note_on_c, 3, 52, 96
5, 168960, Note_off_c, 3, 52, 0
5, 168960, Note_on_c, 3, 53, 96
5, 169984, Note_off_c, 3, 53, 0
5, 169984, Note_on_c, 3, 48, 96
5, 170496, Note_off_c, 3, 48, 0
5, 170496, Note_on_c, 3, 45, 96
5, 171520, Note_off_c, 3, 45, 0
5, 171520, Note_on_c, 3, 41, 96
5, 172032, Note_off_c, 3, 41, 0
5, 172032, Note_on_c, 3, 48, 96
5, 173056, Note_off_c, 3, 48, 0
5, 202240, Note_on_c, 3, 53, 96
5, 202752, Note_off_c, 3, 53, 0
5, 202752, Note_on_c, 3, 58, 96
5, 203776, Note_off_c, 3, 58, 0
5, 203776, Note_on_c, 3, 57, 96
5, 204288, Note_off_c, 3, 57, 0
5, 204288, Note_on_c, 3, 55, 96
5, 204800, Note_off_c, 3, 55, 0
5, 204800, Note_on_c, 3, 57, 96
5, 205312, Note_off_c, 3, 57, 0
5, 205312, Note_on_c, 3, 53, 96
5, 205824, Note_off_c, 3, 53, 0
5, 205824, Note_on_c, 3, 52, 96
5, 207360, Note_off_c, 3, 52, 0
5, 207360, Note_on_c, 3, 53, 96
5, 208384, Note_off_c, 3, 53, 0
5, 208384, Note_on_c, 3, 54, 96
5, 208896, Note_off_c, 3, 54, 0
5, 208896, Note_on_c, 3, 55, 96
5, 209408, Note_off_c, 3, 55, 0
5, 209408, Note_on_c, 3, 57, 96
5, 209920, Note_off_c, 3, 57, 0
5, 209920, Note_on_c, 3, 58, 96
5, 210432, Note_off_c, 3, 58, 0
5, 210432, Note_on_c, 3, 52, 96
5, 210944, Note_off_c, 3, 52, 0
5, 210944, Note_on_c, 3, 53, 96
5, 211456, Note_off_c, 3, 53, 0
5, 211456, Note_on_c, 3, 55, 96
5, 211968, Note_off_c, 3, 55, 0
5, 211968, Note_on_c, 3, 49, 96
5, 213504, Note_off_c, 3, 49, 0
5, 213504, Note_on_c, 3, 50, 96
5, 214528, Note_off_c, 3, 50, 0
5, 214528, Note_on_c, 3, 53, 96
5, 215040, Note_off_c, 3, 53, 0
5, 215040, Note_on_c, 3, 58, 96
5, 216064, Note_off_c, 3, 58, 0
5, 216064, Note_on_c, 3, 57, 96
5, 216576, Note_off_c, 3, 57, 0
5, 216576, Note_on_c, 3, 55, 96
5, 217088, Note_off_c, 3, 55, 0
5, 217088, Note_on_c, 3, 57, 96
5, 217600, Note_off_c, 3, 57, 0
5, 217600, Note_on_c, 3, 58, 96
5, 218112, Note_off_c, 3, 58, 0
5, 218112, Note_on_c, 3, 60, 96
5, 219136, Note_off_c, 3, 60, 0
5, 219136, Note_on_c, 3, 48, 96
5, 219648, Note_off_c, 3, 48, 0
5, 219648, Note_on_c, 3, 60, 96
5, 220672, Note_off_c, 3, 60, 0
5, 220672, Note_on_c, 3, 58, 96
5, 221184, Note_off_c, 3, 58, 0
5, 221184, Note_on_c, 3, 57, 96
5, 221696, Note_off_c, 3, 57, 0
5, 221696, Note_on_c, 3, 58, 96
5, 222208, Note_off_c, 3, 58, 0
5, 222208, Note_on_c, 3, 60, 96
5, 222720, Note_off_c, 3, 60, 0
5, 222720, Note_on_c, 3, 53, 96
5, 223232, Note_off_c, 3, 53, 0
5, 223232, Note_on_c, 3, 55, 96
5, 223744, Note_off_c, 3, 55, 0
5, 223744, Note_on_c, 3, 57, 96
5, 224256, Note_off_c, 3, 57, 0
5, 224256, Note_on_c, 3, 58, 96
5, 225792, Note_off_c, 3, 58, 0
5, 225792, Note_on_c, 3, 46, 96
5, 227328, Note_off_c, 3, 46, 0
5, 227328, Note_on_c, 3, 53, 96
5, 228352, Note_off_c, 3, 53, 0
5, 311296, Note_on_c, 3, 53, 96
5, 311808, Note_off_c, 3, 53, 0
5, 311808, Note_on_c, 3, 60, 96
5, 312832, Note_off_c, 3, 60, 0
5, 312832, Note_on_c, 3, 62, 96
5, 313344, Note_off_c, 3, 62, 0
5, 313344, Note_on_c, 3, 60, 96
5, 313856, Note_off_c, 3, 60, 0
5, 313856, Note_on_c, 3, 58, 96
5, 314368, Note_off_c, 3, 58, 0
5, 314368, Note_on_c, 3, 57, 96
5, 314880, Note_off_c, 3, 57, 0
5, 314880, Note_on_c, 3, 58, 96
5, 315392, Note_off_c, 3, 58, 0
5, 315392, Note_on_c, 3, 62, 96
5, 315904, Note_off_c, 3, 62, 0
5, 315904, Note_on_c, 3, 60, 96
5, 316416, Note_off_c, 3, 60, 0
5, 316416, Note_on_c, 3, 58, 96
5, 316928, Note_off_c, 3, 58, 0
5, 316928, Note_on_c, 3, 57, 96
5, 317440, Note_off_c, 3, 57, 0
5, 317440, Note_on_c, 3, 53, 96
5, 317952, Note_off_c, 3, 53, 0
5, 317952, Note_on_c, 3, 55, 96
5, 318464, Note_off_c, 3, 55, 0
5, 318464, Note_on_c, 3, 58, 96
5, 318976, Note_off_c, 3, 58, 0
5, 318976, Note_on_c, 3, 57, 96
5, 319488, Note_off_c, 3, 57, 0
5, 319488, Note_on_c, 3, 53, 96
5, 320512, Note_off_c, 3, 53, 0
5, 320512, Note_on_c, 3, 52, 96
5, 321024, Note_off_c, 3, 52, 0
5, 321024, Note_on_c, 3, 50, 96
5, 321536, Note_off_c, 3, 50, 0
5, 321536, Note_on_c, 3, 52, 96
5, 322048, Note_off_c, 3, 52, 0
5, 322048, Note_on_c, 3, 53, 96
5, 322560, Note_off_c, 3, 53, 0
5, 322560, Note_on_c, 3, 55, 96
5, 323584, Note_off_c, 3, 55, 0
5, 323584, Note_on_c, 3, 53, 96
5, 324096, Note_off_c, 3, 53, 0
5, 324096, Note_on_c, 3, 55, 96
5, 325120, Note_off_c, 3, 55, 0
5, 325120, Note_on_c, 3, 43, 96
5, 325632, Note_off_c, 3, 43, 0
5, 325632, Note_on_c, 3, 48, 96
5, 326656, Note_off_c, 3, 48, 0
5, 326656, Note_on_c, 3, 48, 96
5, 327168, Note_off_c, 3, 48, 0
5, 327168, Note_on_c, 3, 58, 96
5, 328192, Note_off_c, 3, 58, 0
5, 328192, Note_on_c, 3, 60, 96
5, 328704, Note_off_c, 3, 60, 0
5, 328704, Note_on_c, 3, 58, 96
5, 329216, Note_off_c, 3, 58, 0
5, 329216, Note_on_c, 3, 57, 96
5, 329728, Note_off_c, 3, 57, 0
5, 329728, Note_on_c, 3, 55, 96
5, 330240, Note_off_c, 3, 55, 0
5, 330240, Note_on_c, 3, 57, 96
5, 330752, Note_off_c, 3, 57, 0
5, 330752, Note_on_c, 3, 60, 96
5, 331264, Note_off_c, 3, 60, 0
5, 331264, Note_on_c, 3, 59, 96
5, 331776, Note_off_c, 3, 59, 0
5, 331776, Note_on_c, 3, 60, 96
5, 332800, Note_off_c, 3, 60, 0
5, 351232, Note_on_c, 3, 53, 96
5, 351744, Note_off_c, 3, 53, 0
5, 351744, Note_on_c, 3, 60, 96
5, 352768, Note_off_c, 3, 60, 0
5, 352768, Note_on_c, 3, 62, 96
5, 353280, Note_off_c, 3, 62, 0
5, 353280, Note_on_c, 3, 60, 96
5, 353792, Note_off_c, 3, 60, 0
5, 353792, Note_on_c, 3, 58, 96
5, 354304, Note_off_c, 3, 58, 0
5, 354304, Note_on_c, 3, 57, 96
5, 354816, Note_off_c, 3, 57, 0
5, 354816, Note_on_c, 3, 58, 96
5, 355328, Note_off_c, 3, 58, 0
5, 355328, Note_on_c, 3, 62, 96
5, 355840, Note_off_c, 3, 62, 0
5, 355840, Note_on_c, 3, 60, 96
5, 356352, Note_off_c, 3, 60, 0
5, 356352, Note_on_c, 3, 58, 96
5, 356864, Note_off_c, 3, 58, 0
5, 356864, Note_on_c, 3, 57, 96
5, 357376, Note_off_c, 3, 57, 0
5, 357376, Note_on_c, 3, 53, 96
5, 357888, Note_off_c, 3, 53, 0
5, 357888, Note_on_c, 3, 62, 96
5, 358912, Note_off_c, 3, 62, 0
5, 358912, Note_on_c, 3, 62, 96
5, 359424, Note_off_c, 3, 62, 0
5, 359424, Note_on_c, 3, 62, 96
5, 359936, Note_off_c, 3, 62, 0
5, 359936, Note_on_c, 3, 60, 96
5, 360448, Note_off_c, 3, 60, 0
5, 360448, Note_on_c, 3, 58, 96
5, 360960, Note_off_c, 3, 58, 0
5, 360960, Note_on_c, 3, 60, 96
5, 361984, Note_off_c, 3, 60, 0
5, 361984, Note_on_c, 3, 53, 96
5, 362496, Note_off_c, 3, 53, 0
5, 362496, Note_on_c, 3, 58, 96
5, 363520, Note_off_c, 3, 58, 0
5, 363520, Note_on_c, 3, 55, 96
5, 364032, Note_off_c, 3, 55, 0
5, 364032, Note_on_c, 3, 53, 96
5, 364544, Note_off_c, 3, 53, 0
5, 364544, Note_on_c, 3, 52, 96
5, 365056, Note_off_c, 3, 52, 0
5, 365056, Note_on_c, 3, 50, 96
5, 365568, Note_off_c, 3, 50, 0
5, 365568, Note_on_c, 3, 55, 96
5, 366080, Note_off_c, 3, 55, 0
5, 366080, Note_on_c, 3, 57, 96
5, 366592, Note_off_c, 3, 57, 0
5, 366592, Note_on_c, 3, 58, 96
5, 367104, Note_off_c, 3, 58, 0
5, 367104, Note_on_c, 3, 49, 96
5, 368128, Note_off_c, 3, 49, 0
5, 368128, Note_on_c, 3, 61, 96
5, 368640, Note_off_c, 3, 61, 0
5, 368640, Note_on_c, 3, 62, 96
5, 369664, Note_off_c, 3, 62, 0
5, 369664, Note_on_c, 3, 52, 96
5, 370176, Note_off_c, 3, 52, 0
5, 370176, Note_on_c, 3, 53, 96
5, 370688, Note_off_c, 3, 53, 0
5, 370688, Note_on_c, 3, 48, 96
5, 371200, Note_off_c, 3, 48, 0
5, 371200, Note_on_c, 3, 57, 96
5, 371712, Note_off_c, 3, 57, 0
5, 371712, Note_on_c, 3, 57, 96
5, 372224, Note_off_c, 3, 57, 0
5, 372224, Note_on_c, 3, 60, 96
5, 372736, Note_off_c, 3, 60, 0
5, 372736, Note_on_c, 3, 48, 96
5, 373248, Note_off_c, 3, 48, 0
5, 373248, Note_on_c, 3, 53, 96
5, 373760, Note_off_c, 3, 53, 0
5, 373760, Note_on_c, 3, 55, 96
5, 374272, Note_off_c, 3, 55, 0
5, 374272, Note_on_c, 3, 57, 96
5, 374784, Note_off_c, 3, 57, 0
5, 374784, Note_on_c, 3, 58, 96
5, 375808, Note_off_c, 3, 58, 0
5, 378880, Note_on_c, 3, 48, 96
5, 379392, Note_off_c, 3, 48, 0
5, 379392, Note_on_c, 3, 55, 96
5, 380416, Note_off_c, 3, 55, 0
5, 380416, Note_on_c, 3, 57, 96
5, 380928, Note_off_c, 3, 57, 0
5, 380928, Note_on_c, 3, 53, 96
5, 381952, Note_off_c, 3, 53, 0
5, 381952, Note_on_c, 3, 52, 96
5, 382464, Note_off_c, 3, 52, 0
5, 382464, Note_on_c, 3, 50, 96
5, 384512, Note_off_c, 3, 50, 0
5, 384512, Note_on_c, 3, 52, 96
5, 385024, Note_off_c, 3, 52, 0
5, 385024, Note_on_c, 3, 50, 96
5, 385536, Note_off_c, 3, 50, 0
5, 385536, Note_on_c, 3, 48, 96
5, 386048, Note_off_c, 3, 48, 0
5, 386048, Note_on_c, 3, 50, 96
5, 386560, Note_off_c, 3, 50, 0
5, 386560, Note_on_c, 3, 52, 96
5, 387072, Note_off_c, 3, 52, 0
5, 387072, Note_on_c, 3, 53, 96
5, 388096, Note_off_c, 3, 53, 0
5, 388096, Note_on_c, 3, 52, 96
5, 388608, Note_off_c, 3, 52, 0
5, 388608, Note_on_c, 3, 50, 96
5, 389120, Note_off_c, 3, 50, 0
5, 389120, Note_on_c, 3, 52, 96
5, 389632, Note_off_c, 3, 52, 0
5, 389632, Note_on_c, 3, 53, 96
5, 390144, Note_off_c, 3, 53, 0
5, 390144, Note_on_c, 3, 55, 96
5, 391168, Note_off_c, 3, 55, 0
5, 391168, Note_on_c, 3, 53, 96
5, 391680, Note_off_c, 3, 53, 0
5, 391680, Note_on_c, 3, 55, 96
5, 392704, Note_off_c, 3, 55, 0
5, 392704, Note_on_c, 3, 43, 96
5, 393216, Note_off_c, 3, 43, 0
5, 393216, Note_on_c, 3, 48, 96
5, 393728, Note_off_c, 3, 48, 0
5, 393728, Note_on_c, 3, 52, 96
5, 394240, Note_off_c, 3, 52, 0
5, 394240, Note_on_c, 3, 55, 96
5, 394752, Note_off_c, 3, 55, 0
5, 394752, Note_on_c, 3, 60, 96
5, 395264, Note_off_c, 3, 60, 0
5, 395264, Note_on_c, 3, 55, 96
5, 395776, Note_off_c, 3, 55, 0
5, 395776, Note_on_c, 3, 52, 96
5, 396288, Note_off_c, 3, 52, 0
5, 396288, Note_on_c, 3, 53, 96
5, 397312, Note_off_c, 3, 53, 0
5, 397312, Note_on_c, 3, 48, 96
5, 397824, Note_off_c, 3, 48, 0
5, 397824, Note_on_c, 3, 45, 96
5, 398848, Note_off_c, 3, 45, 0
5, 398848, Note_on_c, 3, 41, 96
5, 399360, Note_off_c, 3, 41, 0
5, 399360, Note_on_c, 3, 48, 96
5, 400384, Note_off_c, 3, 48, 0
5, 429568, Note_on_c, 3, 53, 96
5, 430080, Note_off_c, 3, 53, 0
5, 430080, Note_on_c, 3, 58, 96
5, 431104, Note_off_c, 3, 58, 0
5, 431104, Note_on_c, 3, 57, 96
5, 431616, Note_off_c, 3, 57, 0
5, 431616, Note_on_c, 3, 55, 96
5, 432128, Note_off_c, 3, 55, 0
5, 432128, Note_on_c, 3, 57, 96
5, 432640, Note_off_c, 3, 57, 0
5, 432640, Note_on_c, 3, 53, 96
5, 433152, Note_off_c, 3, 53, 0
5, 433152, Note_on_c, 3, 52, 96
5, 434688, Note_off_c, 3, 52, 0
5, 434688, Note_on_c, 3, 53, 96
5, 435712, Note_off_c, 3, 53, 0
5, 435712, Note_on_c, 3, 54, 96
5, 436224, Note_off_c, 3, 54, 0
5, 436224, Note_on_c, 3, 55, 96
5, 436736, Note_off_c, 3, 55, 0
5, 436736, Note_on_c, 3, 57, 96
5, 437248, Note_off_c, 3, 57, 0
5, 437248, Note_on_c, 3, 58, 96
5, 437760, Note_off_c, 3, 58, 0
5, 437760, Note_on_c, 3, 52, 96
5, 438272, Note_off_c, 3, 52, 0
5, 438272, Note_on_c, 3, 53, 96
5, 438784, Note_off_c, 3, 53, 0
5, 438784, Note_on_c, 3, 55, 96
5, 439296, Note_off_c, 3, 55, 0
5, 439296, Note_on_c, 3, 49, 96
5, 440832, Note_off_c, 3, 49, 0
5, 440832, Note_on_c, 3, 50, 96
5, 441856, Note_off_c, 3, 50, 0
5, 441856, Note_on_c, 3, 53, 96
5, 442368, Note_off_c, 3, 53, 0
5, 442368, Note_on_c, 3, 58, 96
5, 443392, Note_off_c, 3, 58, 0
5, 443392, Note_on_c, 3, 57, 96
5, 443904, Note_off_c, 3, 57, 0
5, 443904, Note_on_c, 3, 55, 96
5, 444416, Note_off_c, 3, 55, 0
5, 444416, Note_on_c, 3, 57, 96
5, 444928, Note_off_c, 3, 57, 0
5, 444928, Note_on_c, 3, 58, 96
5, 445440, Note_off_c, 3, 58, 0
5, 445440, Note_on_c, 3, 60, 96
5, 446464, Note_off_c, 3, 60, 0
5, 446464, Note_on_c, 3, 48, 96
5, 446976, Note_off_c, 3, 48, 0
5, 446976, Note_on_c, 3, 60, 96
5, 448000, Note_off_c, 3, 60, 0
5, 448000, Note_on_c, 3, 58, 96
5, 448512, Note_off_c, 3, 58, 0
5, 448512, Note_on_c, 3, 57, 96
5, 449024, Note_off_c, 3, 57, 0
5, 449024, Note_on_c, 3, 58, 96
5, 449536, Note_off_c, 3, 58, 0
5, 449536, Note_on_c, 3, 60, 96
5, 450048, Note_off_c, 3, 60, 0
5, 450048, Note_on_c, 3, 53, 96
5, 450560, Note_off_c, 3, 53, 0
5, 450560, Note_on_c, 3, 55, 96
5, 451072, Note_off_c, 3, 55, 0
5, 451072, Note_on_c, 3, 57, 96
5, 451584, Note_off_c, 3, 57, 0
5, 451584, Note_on_c, 3, 58, 96
5, 453120, Note_off_c, 3, 58, 0
5, 453120, Note_on_c, 3, 46, 96
5, 454656, Note_off_c, 3, 46, 0
5, 454656, Note_on_c, 3, 53, 96
5, 455680, Note_off_c, 3, 53, 0
5, 509952, Note_on_c, 3, 53, 96
5, 513024, Note_off_c, 3, 53, 0
5, 513024, Note_on_c, 3, 53, 96
5, 516096, Note_off_c, 3, 53, 0
5, 522240, Note_on_c, 3, 48, 96
5, 525312, Note_off_c, 3, 48, 0
5, 525312, Note_on_c, 3, 49, 96
5, 526848, Note_off_c, 3, 49, 0
5, 526848, Note_on_c, 3, 50, 96
5, 528384, Note_off_c, 3, 50, 0
5, 528384, Note_on_c, 3, 45, 96
5, 529408, Note_off_c, 3, 45, 0
5, 543744, Note_on_c, 3, 50, 96
5, 544256, Note_off_c, 3, 50, 0
5, 544256, Note_on_c, 3, 52, 96
5, 544768, Note_off_c, 3, 52, 0
5, 544768, Note_on_c, 3, 53, 96
5, 545280, Note_off_c, 3, 53, 0
5, 545280, Note_on_c, 3, 50, 96
5, 545792, Note_off_c, 3, 50, 0
5, 545792, Note_on_c, 3, 52, 96
5, 546304, Note_off_c, 3, 52, 0
5, 546304, Note_on_c, 3, 53, 96
5, 546816, Note_off_c, 3, 53, 0
5, 546816, Note_on_c, 3, 55, 96
5, 547328, Note_off_c, 3, 55, 0
5, 547328, Note_on_c, 3, 57, 96
5, 547840, Note_off_c, 3, 57, 0
5, 547840, Note_on_c, 3, 58, 96
5, 548352, Note_off_c, 3, 58, 0
5, 548352, Note_on_c, 3, 55, 96
5, 548864, Note_off_c, 3, 55, 0
5, 548864, Note_on_c, 3, 57, 96
5, 549376, Note_off_c, 3, 57, 0
5, 549376, Note_on_c, 3, 58, 96
5, 549888, Note_off_c, 3, 58, 0
5, 549888, Note_on_c, 3, 48, 96
5, 550400, Note_off_c, 3, 48, 0
5, 550400, Note_on_c, 3, 50, 96
5, 550912, Note_off_c, 3, 50, 0
5, 550912, Note_on_c, 3, 52, 96
5, 551424, Note_off_c, 3, 52, 0
5, 551424, Note_on_c, 3, 48, 96
5, 551936, Note_off_c, 3, 48, 0
5, 551936, Note_on_c, 3, 50, 96
5, 552448, Note_off_c, 3, 50, 0
5, 552448, Note_on_c, 3, 52, 96
5, 552960, Note_off_c, 3, 52, 0
5, 552960, Note_on_c, 3, 53, 96
5, 553984, Note_off_c, 3, 53, 0
5, 553984, Note_on_c, 3, 41, 96
5, 554496, Note_off_c, 3, 41, 0
5, 557568, Note_on_c, 3, 53, 96
5, 558080, Note_off_c, 3, 53, 0
5, 558080, Note_on_c, 3, 55, 96
5, 558592, Note_off_c, 3, 55, 0
5, 558592, Note_on_c, 3, 57, 96
5, 559104, Note_off_c, 3, 57, 0
5, 559104, Note_on_c, 3, 58, 96
5, 559616, Note_off_c, 3, 58, 0
5, 559616, Note_on_c, 3, 57, 96
5, 560128, Note_off_c, 3, 57, 0
5, 560128, Note_on_c, 3, 58, 96
5, 560640, Note_off_c, 3, 58, 0
5, 560640, Note_on_c, 3, 55, 96
5, 561152, Note_off_c, 3, 55, 0
5, 561152, Note_on_c, 3, 57, 96
5, 561664, Note_off_c, 3, 57, 0
5, 561664, Note_on_c, 3, 58, 96
5, 562176, Note_off_c, 3, 58, 0
5, 562176, Note_on_c, 3, 60, 96
5, 562688, Note_off_c, 3, 60, 0
5, 562688, Note_on_c, 3, 58, 96
5, 563200, Note_off_c, 3, 58, 0
5, 563200, Note_on_c, 3, 60, 96
5, 563712, Note_off_c, 3, 60, 0
5, 563712, Note_on_c, 3, 57, 96
5, 564224, Note_off_c, 3, 57, 0
5, 564224, Note_on_c, 3, 58, 96
5, 564736, Note_off_c, 3, 58, 0
5, 564736, Note_on_c, 3, 60, 96
5, 565248, Note_off_c, 3, 60, 0
5, 565248, Note_on_c, 3, 62, 96
5, 566272, Note_off_c, 3, 62, 0
5, 566272, Note_on_c, 3, 50, 96
5, 566784, Note_off_c, 3, 50, 0
5, 566784, Note_on_c, 3, 52, 96
5, 567808, Note_off_c, 3, 52, 0
5, 567808, Note_on_c, 3, 48, 96
5, 568320, Note_off_c, 3, 48, 0
5, 568320, Note_on_c, 3, 53, 96
5, 568832, Note_off_c, 3, 53, 0
5, 568832, Note_on_c, 3, 55, 96
5, 569344, Note_off_c, 3, 55, 0
5, 569344, Note_on_c, 3, 57, 96
5, 569856, Note_off_c, 3, 57, 0
5, 569856, Note_on_c, 3, 50, 96
5, 570368, Note_off_c, 3, 50, 0
5, 570368, Note_on_c, 3, 52, 96
5, 570880, Note_off_c, 3, 52, 0
5, 570880, Note_on_c, 3, 53, 96
5, 571392, Note_off_c, 3, 53, 0
5, 571392, Note_on_c, 3, 46, 96
5, 571904, Note_off_c, 3, 46, 0
5, 571904, Note_on_c, 3, 48, 96
5, 572416, Note_off_c, 3, 48, 0
5, 572416, Note_on_c, 3, 50, 96
5, 572928, Note_off_c, 3, 50, 0
5, 572928, Note_on_c, 3, 43, 96
5, 573440, Note_off_c, 3, 43, 0
5, 573440, Note_on_c, 3, 45, 96
5, 573952, Note_off_c, 3, 45, 0
5, 573952, Note_on_c, 3, 46, 96
5, 574464, Note_off_c, 3, 46, 0
5, 574464, Note_on_c, 3, 48, 96
5, 574976, Note_off_c, 3, 48, 0
5, 574976, Note_on_c, 3, 52, 96
5, 575488, Note_off_c, 3, 52, 0
5, 575488, Note_on_c, 3, 55, 96
5, 576000, Note_off_c, 3, 55, 0
5, 576000, Note_on_c, 3, 60, 96
5, 577024, Note_off_c, 3, 60, 0
5, 577024, Note_on_c, 3, 58, 96
5, 577536, Note_off_c, 3, 58, 0
5, 577536, Note_on_c, 3, 57, 96
5, 578048, Note_off_c, 3, 57, 0
5, 578048, Note_on_c, 3, 58, 96
5, 578560, Note_off_c, 3, 58, 0
5, 578560, Note_on_c, 3, 60, 96
5, 579072, Note_off_c, 3, 60, 0
5, 579072, Note_on_c, 3, 53, 96
5, 579584, Note_off_c, 3, 53, 0
5, 579584, Note_on_c, 3, 55, 96
5, 580096, Note_off_c, 3, 55, 0
5, 580096, Note_on_c, 3, 57, 96
5, 580608, Note_off_c, 3, 57, 0
5, 580608, Note_on_c, 3, 58, 96
5, 582144, Note_off_c, 3, 58, 0
5, 582144, Note_on_c, 3, 46, 96
5, 583680, Note_off_c, 3, 46, 0
5, 583680, Note_on_c, 3, 53, 96
5, 584704, Note_off_c, 3, 53, 0
5, 608256, Note_on_c, 3, 57, 96
5, 608768, Note_off_c, 3, 57, 0
5, 608768, Note_on_c, 3, 59, 96
5, 609280, Note_off_c, 3, 59, 0
5, 609280, Note_on_c, 3, 61, 96
5, 609792, Note_off_c, 3, 61, 0
5, 609792, Note_on_c, 3, 62, 96
5, 611840, Note_off_c, 3, 62, 0
5, 611840, Note_on_c, 3, 61, 96
5, 612352, Note_off_c, 3, 61, 0
5, 612352, Note_on_c, 3, 62, 96
5, 612864, Note_off_c, 3, 62, 0
5, 612864, Note_on_c, 3, 61, 96
5, 614400, Note_off_c, 3, 61, 0
5, 614400, Note_on_c, 3, 62, 96
5, 615424, Note_off_c, 3, 62, 0
5, 615424, Note_on_c, 3, 62, 96
5, 615936, Note_off_c, 3, 62, 0
5, 615936, Note_on_c, 3, 55, 96
5, 616448, Note_off_c, 3, 55, 0
5, 616448, Note_on_c, 3, 57, 96
5, 616960, Note_off_c, 3, 57, 0
5, 616960, Note_on_c, 3, 58, 96
5, 617472, Note_off_c, 3, 58, 0
5, 617472, Note_on_c, 3, 60, 96
5, 617984, Note_off_c, 3, 60, 0
5, 617984, Note_on_c, 3, 62, 96
5, 618496, Note_off_c, 3, 62, 0
5, 618496, Note_on_c, 3, 64, 96
5, 619008, Note_off_c, 3, 64, 0
5, 619008, Note_on_c, 3, 53, 96
5, 619520, Note_off_c, 3, 53, 0
5, 619520, Note_on_c, 3, 55, 96
5, 620032, Note_off_c, 3, 55, 0
5, 620032, Note_on_c, 3, 57, 96
5, 620544, Note_off_c, 3, 57, 0
5, 620544, Note_on_c, 3, 58, 96
5, 621568, Note_off_c, 3, 58, 0
5, 621568, Note_on_c, 3, 46, 96
5, 622080, Note_off_c, 3, 46, 0
5, 622080, Note_on_c, 3, 52, 96
5, 622592, Note_off_c, 3, 52, 0
5, 622592, Note_on_c, 3, 53, 96
5, 623104, Note_off_c, 3, 53, 0
5, 623104, Note_on_c, 3, 55, 96
5, 623616, Note_off_c, 3, 55, 0
5, 623616, Note_on_c, 3, 57, 96
5, 624128, Note_off_c, 3, 57, 0
5, 624128, Note_on_c, 3, 58, 96
5, 624640, Note_off_c, 3, 58, 0
5, 624640, Note_on_c, 3, 60, 96
5, 625152, Note_off_c, 3, 60, 0
5, 625152, Note_on_c, 3, 50, 96
5, 625664, Note_off_c, 3, 50, 0
5, 625664, Note_on_c, 3, 52, 96
5, 626176, Note_off_c, 3, 52, 0
5, 626176, Note_on_c, 3, 53, 96
5, 626688, Note_off_c, 3, 53, 0
5, 626688, Note_on_c, 3, 55, 96
5, 627712, Note_off_c, 3, 55, 0
5, 627712, Note_on_c, 3, 43, 96
5, 628224, Note_off_c, 3, 43, 0
5, 628224, Note_on_c, 3, 48, 96
5, 628736, Note_off_c, 3, 48, 0
5, 628736, Note_on_c, 3, 50, 96
5, 629248, Note_off_c, 3, 50, 0
5, 629248, Note_on_c, 3, 52, 96
5, 629760, Note_off_c, 3, 52, 0
5, 629760, Note_on_c, 3, 53, 96
5, 630272, Note_off_c, 3, 53, 0
5, 630272, Note_on_c, 3, 55, 96
5, 630784, Note_off_c, 3, 55, 0
5, 630784, Note_on_c, 3, 57, 96
5, 631296, Note_off_c, 3, 57, 0
5, 631296, Note_on_c, 3, 50, 96
5, 631808, Note_off_c, 3, 50, 0
5, 631808, Note_on_c, 3, 62, 96
5, 632320, Note_off_c, 3, 62, 0
5, 632320, Note_on_c, 3, 60, 96
5, 632832, Note_off_c, 3, 60, 0
5, 632832, Note_on_c, 3, 58, 96
5, 633344, Note_off_c, 3, 58, 0
5, 633344, Note_on_c, 3, 60, 96
5, 633856, Note_off_c, 3, 60, 0
5, 633856, Note_on_c, 3, 62, 96
5, 634368, Note_off_c, 3, 62, 0
5, 634368, Note_on_c, 3, 55, 96
5, 634880, Note_off_c, 3, 55, 0
5, 634880, Note_on_c, 3, 57, 96
5, 635392, Note_off_c, 3, 57, 0
5, 635392, Note_on_c, 3, 58, 96
5, 635904, Note_off_c, 3, 58, 0
5, 635904, Note_on_c, 3, 60, 96
5, 636928, Note_off_c, 3, 60, 0
5, 636928, Note_on_c, 3, 48, 96
5, 637440, Note_off_c, 3, 48, 0
5, 637440, Note_on_c, 3, 60, 96
5, 638464, Note_off_c, 3, 60, 0
5, 638464, Note_on_c, 3, 58, 96
5, 638976, Note_off_c, 3, 58, 0
5, 638976, Note_on_c, 3, 57, 96
5, 639488, Note_off_c, 3, 57, 0
5, 639488, Note_on_c, 3, 58, 96
5, 640000, Note_off_c, 3, 58, 0
5, 640000, Note_on_c, 3, 60, 96
5, 640512, Note_off_c, 3, 60, 0
5, 640512, Note_on_c, 3, 53, 96
5, 641024, Note_off_c, 3, 53, 0
5, 641024, Note_on_c, 3, 55, 96
5, 641536, Note_off_c, 3, 55, 0
5, 641536, Note_on_c, 3, 57, 96
5, 642048, Note_off_c, 3, 57, 0
5, 642048, Note_on_c, 3, 58, 96
5, 643584, Note_off_c, 3, 58, 0
5, 643584, Note_on_c, 3, 46, 96
5, 645120, Note_off_c, 3, 46, 0
5, 645120, Note_on_c, 3, 53, 96
5, 646144, Note_off_c, 3, 53, 0
5, 731136, End_track
6, 0, Start_track
6, 0, Title_t, "Instrument 5"
6, 0, Program_c, 4, 0
6, 0, Note_on_c, 4, 41, 96
6, 1536, Note_off_c, 4, 41, 0
6, 1536, Note_on_c, 4, 53, 96
6, 4608, Note_off_c, 4, 53, 0
6, 4608, Note_on_c, 4, 52, 96
6, 6144, Note_off_c, 4, 52, 0
6, 6144, Note_on_c, 4, 53, 96
6, 7168, Note_off_c, 4, 53, 0
6, 7168, Note_on_c, 4, 43, 96
6, 7680, Note_off_c, 4, 43, 0
6, 7680, Note_on_c, 4, 53, 96
6, 8704, Note_off_c, 4, 53, 0
6, 8704, Note_on_c, 4, 43, 96
6, 9216, Note_off_c, 4, 43, 0
6, 9216, Note_on_c, 4, 53, 96
6, 10240, Note_off_c, 4, 53, 0
6, 10240, Note_on_c, 4, 43, 96
6, 10752, Note_off_c, 4, 43, 0
6, 10752, Note_on_c, 4, 53, 96
6, 11776, Note_off_c, 4, 53, 0
6, 11776, Note_on_c, 4, 43, 96
6, 12288, Note_off_c, 4, 43, 0
6, 12288, Note_on_c, 4, 53, 96
6, 13824, Note_off_c, 4, 53, 0
6, 13824, Note_on_c, 4, 52, 96
6, 15360, Note_off_c, 4, 52, 0
6, 15360, Note_on_c, 4, 50, 96
6, 16896, Note_off_c, 4, 50, 0
6, 16896, Note_on_c, 4, 55, 96
6, 18432, Note_off_c, 4, 55, 0
6, 18432, Note_on_c, 4, 48, 96
6, 19456, Note_off_c, 4, 48, 0
6, 19456, Note_on_c, 4, 36, 96
6, 19968, Note_off_c, 4, 36, 0
6, 19968, Note_on_c, 4, 48, 96
6, 20992, Note_off_c, 4, 48, 0
6, 20992, Note_on_c, 4, 36, 96
6, 21504, Note_off_c, 4, 36, 0
6, 21504, Note_on_c, 4, 48, 96
6, 22528, Note_off_c, 4, 48, 0
6, 22528, Note_on_c, 4, 36, 96
6, 23040, Note_off_c, 4, 36, 0
6, 23040, Note_on_c, 4, 48, 96
6, 24064, Note_off_c, 4, 48, 0
6, 24064, Note_on_c, 4, 36, 96
6, 24576, Note_off_c, 4, 36, 0
6, 24576, Note_on_c, 4, 48, 96
6, 25088, Note_off_c, 4, 48, 0
6, 25088, Note_on_c, 4, 50, 96
6, 25600, Note_off_c, 4, 50, 0
6, 25600, Note_on_c, 4, 52, 96
6, 26112, Note_off_c, 4, 52, 0
6, 26112, Note_on_c, 4, 52, 96
6, 26624, Note_off_c, 4, 52, 0
6, 26624, Note_on_c, 4, 48, 96
6, 27136, Note_off_c, 4, 48, 0
6, 27136, Note_on_c, 4, 53, 96
6, 27648, Note_off_c, 4, 53, 0
6, 27648, Note_on_c, 4, 52, 96
6, 28160, Note_off_c, 4, 52, 0
6, 28160, Note_on_c, 4, 48, 96
6, 28672, Note_off_c, 4, 48, 0
6, 28672, Note_on_c, 4, 53, 96
6, 29184, Note_off_c, 4, 53, 0
6, 29184, Note_on_c, 4, 52, 96
6, 29696, Note_off_c, 4, 52, 0
6, 29696, Note_on_c, 4, 50, 96
6, 30208, Note_off_c, 4, 50, 0
6, 30208, Note_on_c, 4, 49, 96
6, 30720, Note_off_c, 4, 49, 0
6, 30720, Note_on_c, 4, 50, 96
6, 31232, Note_off_c, 4, 50, 0
6, 31232, Note_on_c, 4, 48, 96
6, 31744, Note_off_c, 4, 48, 0
6, 31744, Note_on_c, 4, 46, 96
6, 32256, Note_off_c, 4, 46, 0
6, 32256, Note_on_c, 4, 45, 96
6, 32768, Note_off_c, 4, 45, 0
6, 32768, Note_on_c, 4, 53, 96
6, 33280, Note_off_c, 4, 53, 0
6, 33280, Note_on_c, 4, 46, 96
6, 33792, Note_off_c, 4, 46, 0
6, 33792, Note_on_c, 4, 45, 96
6, 34304, Note_off_c, 4, 45, 0
6, 34304, Note_on_c, 4, 53, 96
6, 34816, Note_off_c, 4, 53, 0
6, 34816, Note_on_c, 4, 46, 96
6, 35328, Note_off_c, 4, 46, 0
6, 35328, Note_on_c, 4, 45, 96
6, 35840, Note_off_c, 4, 45, 0
6, 35840, Note_on_c, 4, 53, 96
6, 36352, Note_off_c, 4, 53, 0
6, 36352, Note_on_c, 4, 46, 96
6, 36864, Note_off_c, 4, 46, 0
6, 36864, Note_on_c, 4, 43, 96
6, 37376, Note_off_c, 4, 43, 0
6, 37376, Note_on_c, 4, 41, 96
6, 37888, Note_off_c, 4, 41, 0
6, 37888, Note_on_c, 4, 40, 96
6, 38400, Note_off_c, 4, 40, 0
6, 38400, Note_on_c, 4, 41, 96
6, 38912, Note_off_c, 4, 41, 0
6, 38912, Note_on_c, 4, 53, 96
6, 39424, Note_off_c, 4, 53, 0
6, 39424, Note_on_c, 4, 52, 96
6, 39936, Note_off_c, 4, 52, 0
6, 39936, Note_on_c, 4, 41, 96
6, 40448, Note_off_c, 4, 41, 0
6, 40448, Note_on_c, 4, 53, 96
6, 40960, Note_off_c, 4, 53, 0
6, 40960, Note_on_c, 4, 52, 96
6, 41472, Note_off_c, 4, 52, 0
6, 41472, Note_on_c, 4, 53, 96
6, 42496, Note_off_c, 4, 53, 0
6, 42496, Note_on_c, 4, 41, 96
6, 43008, Note_off_c, 4, 41, 0
6, 43008, Note_on_c, 4, 48, 96
6, 43776, Note_off_c, 4, 48, 0
6, 43776, Note_on_c, 4, 46, 96
6, 44032, Note_off_c, 4, 46, 0
6, 44032, Note_on_c, 4, 45, 96
6, 44288, Note_off_c, 4, 45, 0
6, 44288, Note_on_c, 4, 43, 96
6, 44544, Note_off_c, 4, 43, 0
6, 44544, Note_on_c, 4, 41, 96
6, 47616, Note_off_c, 4, 41, 0
6, 47616, Note_on_c, 4, 40, 96
6, 49152, Note_off_c, 4, 40, 0
6, 49152, Note_on_c, 4, 41, 96
6, 49664, Note_off_c, 4, 41, 0
6, 49664, Note_on_c, 4, 53, 96
6, 50176, Note_off_c, 4, 53, 0
6, 50176, Note_on_c, 4, 46, 96
6, 50688, Note_off_c, 4, 46, 0
6, 50688, Note_on_c, 4, 48, 96
6, 51200, Note_off_c, 4, 48, 0
6, 51200, Note_on_c, 4, 46, 96
6, 51712, Note_off_c, 4, 46, 0
6, 51712, Note_on_c, 4, 45, 96
6, 52224, Note_off_c, 4, 45, 0
6, 52224, Note_on_c, 4, 46, 96
6, 52736, Note_off_c, 4, 46, 0
6, 52736, Note_on_c, 4, 45, 96
6, 53248, Note_off_c, 4, 45, 0
6, 53248, Note_on_c, 4, 43, 96
6, 53760, Note_off_c, 4, 43, 0
6, 53760, Note_on_c, 4, 45, 96
6, 54272, Note_off_c, 4, 45, 0
6, 54272, Note_on_c, 4, 43, 96
6, 54784, Note_off_c, 4, 43, 0
6, 54784, Note_on_c, 4, 41, 96
6, 55296, Note_off_c, 4, 41, 0
6, 55296, Note_on_c, 4, 43, 96
6, 55808, Note_off_c, 4, 43, 0
6, 55808, Note_on_c, 4, 41, 96
6, 56320, Note_off_c, 4, 41, 0
6, 56320, Note_on_c, 4, 40, 96
6, 56832, Note_off_c, 4, 40, 0
6, 56832, Note_on_c, 4, 41, 96
6, 57344, Note_off_c, 4, 41, 0
6, 57344, Note_on_c, 4, 40, 96
6, 57856, Note_off_c, 4, 40, 0
6, 57856, Note_on_c, 4, 38, 96
6, 58368, Note_off_c, 4, 38, 0
6, 58368, Note_on_c, 4, 36, 96
6, 59392, Note_off_c, 4, 36, 0
6, 59392, Note_on_c, 4, 48, 96
6, 59904, Note_off_c, 4, 48, 0
6, 59904, Note_on_c, 4, 36, 96
6, 60928, Note_off_c, 4, 36, 0
6, 60928, Note_on_c, 4, 48, 96
6, 61440, Note_off_c, 4, 48, 0
6, 61440, Note_on_c, 4, 36, 96
6, 62464, Note_off_c, 4, 36, 0
6, 62464, Note_on_c, 4, 48, 96
6, 62976, Note_off_c, 4, 48, 0
6, 62976, Note_on_c, 4, 36, 96
6, 64000, Note_off_c, 4, 36, 0
6, 64000, Note_on_c, 4, 48, 96
6, 64512, Note_off_c, 4, 48, 0
6, 64512, Note_on_c, 4, 36, 96
6, 65536, Note_off_c, 4, 36, 0
6, 65536, Note_on_c, 4, 48, 96
6, 66048, Note_off_c, 4, 48, 0
6, 66048, Note_on_c, 4, 36, 96
6, 67072, Note_off_c, 4, 36, 0
6, 67072, Note_on_c, 4, 48, 96
6, 67584, Note_off_c, 4, 48, 0
6, 67584, Note_on_c, 4, 41, 96
6, 68096, Note_off_c, 4, 41, 0
6, 68096, Note_on_c, 4, 53, 96
6, 68608, Note_off_c, 4, 53, 0
6, 68608, Note_on_c, 4, 52, 96
6, 69120, Note_off_c, 4, 52, 0
6, 69120, Note_on_c, 4, 50, 96
6, 69632, Note_off_c, 4, 50, 0
6, 69632, Note_on_c, 4, 58, 96
6, 70144, Note_off_c, 4, 58, 0
6, 70144, Note_on_c, 4, 55, 96
6, 70656, Note_off_c, 4, 55, 0
6, 70656, Note_on_c, 4, 60, 96
6, 71680, Note_off_c, 4, 60, 0
6, 71680, Note_on_c, 4, 58, 96
6, 72192, Note_off_c, 4, 58, 0
6, 72192, Note_on_c, 4, 60, 96
6, 73216, Note_off_c, 4, 60, 0
6, 73216, Note_on_c, 4, 48, 96
6, 73728, Note_off_c, 4, 48, 0
6, 73728, Note_on_c, 4, 53, 96
6, 74752, Note_off_c, 4, 53, 0
6, 74752, Note_on_c, 4, 41, 96
6, 75264, Note_off_c, 4, 41, 0
6, 75264, Note_on_c, 4, 53, 96
6, 76288, Note_off_c, 4, 53, 0
6, 76288, Note_on_c, 4, 41, 96
6, 76800, Note_off_c, 4, 41, 0
6, 76800, Note_on_c, 4, 53, 96
6, 77824, Note_off_c, 4, 53, 0
6, 77824, Note_on_c, 4, 41, 96
6, 78336, Note_off_c, 4, 41, 0
6, 78336, Note_on_c, 4, 53, 96
6, 79360, Note_off_c, 4, 53, 0
6, 79360, Note_on_c, 4, 41, 96
6, 79872, Note_off_c, 4, 41, 0
6, 79872, Note_on_c, 4, 53, 96
6, 81408, Note_off_c, 4, 53, 0
6, 82944, Note_on_c, 4, 41, 96
6, 84480, Note_off_c, 4, 41, 0
6, 86016, Note_on_c, 4, 46, 96
6, 87040, Note_off_c, 4, 46, 0
6, 87040, Note_on_c, 4, 53, 96
6, 87552, Note_off_c, 4, 53, 0
6, 87552, Note_on_c, 4, 58, 96
6, 88576, Note_off_c, 4, 58, 0
6, 88576, Note_on_c, 4, 60, 96
6, 89088, Note_off_c, 4, 60, 0
6, 89088, Note_on_c, 4, 57, 96
6, 90112, Note_off_c, 4, 57, 0
6, 90112, Note_on_c, 4, 53, 96
6, 90624, Note_off_c, 4, 53, 0
6, 90624, Note_on_c, 4, 55, 96
6, 91648, Note_off_c, 4, 55, 0
6, 91648, Note_on_c, 4, 57, 96
6, 92160, Note_off_c, 4, 57, 0
6, 92160, Note_on_c, 4, 53, 96
6, 93184, Note_off_c, 4, 53, 0
6, 93184, Note_on_c, 4, 52, 96
6, 93696, Note_off_c, 4, 52, 0
6, 93696, Note_on_c, 4, 50, 96
6, 94720, Note_off_c, 4, 50, 0
6, 94720, Note_on_c, 4, 53, 96
6, 95232, Note_off_c, 4, 53, 0
6, 95232, Note_on_c, 4, 55, 96
6, 96256, Note_off_c, 4, 55, 0
6, 96256, Note_on_c, 4, 53, 96
6, 96768, Note_off_c, 4, 53, 0
6, 96768, Note_on_c, 4, 55, 96
6, 97792, Note_off_c, 4, 55, 0
6, 97792, Note_on_c, 4, 43, 96
6, 98304, Note_off_c, 4, 43, 0
6, 98304, Note_on_c, 4, 48, 96
6, 99328, Note_off_c, 4, 48, 0
6, 99328, Note_on_c, 4, 48, 96
6, 99840, Note_off_c, 4, 48, 0
6, 99840, Note_on_c, 4, 58, 96
6, 100864, Note_off_c, 4, 58, 0
6, 100864, Note_on_c, 4, 60, 96
6, 101376, Note_off_c, 4, 60, 0
6, 101376, Note_on_c, 4, 57, 96
6, 102400, Note_off_c, 4, 57, 0
6, 102400, Note_on_c, 4, 55, 96
6, 102912, Note_off_c, 4, 55, 0
6, 102912, Note_on_c, 4, 57, 96
6, 103936, Note_off_c, 4, 57, 0
6, 103936, Note_on_c, 4, 59, 96
6, 104448, Note_off_c, 4, 59, 0
6, 104448, Note_on_c, 4, 60, 96
6, 105984, Note_off_c, 4, 60, 0
6, 105984, Note_on_c, 4, 52, 96
6, 107520, Note_off_c, 4, 52, 0
6, 107520, Note_on_c, 4, 50, 96
6, 109056, Note_off_c, 4, 50, 0
6, 109056, Note_on_c, 4, 55, 96
6, 110592, Note_off_c, 4, 55, 0
6, 110592, Note_on_c, 4, 48, 96
6, 111616, Note_off_c, 4, 48, 0
6, 111616, Note_on_c, 4, 36, 96
6, 112128, Note_off_c, 4, 36, 0
6, 112128, Note_on_c, 4, 48, 96
6, 113152, Note_off_c, 4, 48, 0
6, 113152, Note_on_c, 4, 36, 96
6, 113664, Note_off_c, 4, 36, 0
6, 113664, Note_on_c, 4, 48, 96
6, 114688, Note_off_c, 4, 48, 0
6, 114688, Note_on_c, 4, 36, 96
6, 115200, Note_off_c, 4, 36, 0
6, 115200, Note_on_c, 4, 48, 96
6, 116224, Note_off_c, 4, 48, 0
6, 116224, Note_on_c, 4, 36, 96
6, 116736, Note_off_c, 4, 36, 0
6, 116736, Note_on_c, 4, 48, 96
6, 117760, Note_off_c, 4, 48, 0
6, 117760, Note_on_c, 4, 46, 96
6, 118272, Note_off_c, 4, 46, 0
6, 118272, Note_on_c, 4, 45, 96
6, 119296, Note_off_c, 4, 45, 0
6, 119296, Note_on_c, 4, 41, 96
6, 119808, Note_off_c, 4, 41, 0
6, 119808, Note_on_c, 4, 46, 96
6, 120832, Note_off_c, 4, 46, 0
6, 120832, Note_on_c, 4, 50, 96
6, 121344, Note_off_c, 4, 50, 0
6, 121344, Note_on_c, 4, 43, 96
6, 122368, Note_off_c, 4, 43, 0
6, 122368, Note_on_c, 4, 48, 96
6, 122880, Note_off_c, 4, 48, 0
6, 122880, Note_on_c, 4, 53, 96
6, 123904, Note_off_c, 4, 53, 0
6, 123904, Note_on_c, 4, 53, 96
6, 124416, Note_off_c, 4, 53, 0
6, 124416, Note_on_c, 4, 60, 96
6, 125440, Note_off_c, 4, 60, 0
6, 125440, Note_on_c, 4, 62, 96
6, 125952, Note_off_c, 4, 62, 0
6, 125952, Note_on_c, 4, 58, 96
6, 126976, Note_off_c, 4, 58, 0
6, 126976, Note_on_c, 4, 57, 96
6, 127488, Note_off_c, 4, 57, 0
6, 127488, Note_on_c, 4, 58, 96
6, 128512, Note_off_c, 4, 58, 0
6, 128512, Note_on_c, 4, 60, 96
6, 129024, Note_off_c, 4, 60, 0
6, 129024, Note_on_c, 4, 57, 96
6, 130048, Note_off_c, 4, 57, 0
6, 130048, Note_on_c, 4, 53, 96
6, 130560, Note_off_c, 4, 53, 0
6, 130560, Note_on_c, 4, 50, 96
6, 131584, Note_off_c, 4, 50, 0
6, 131584, Note_on_c, 4, 46, 96
6, 132096, Note_off_c, 4, 46, 0
6, 132096, Note_on_c, 4, 52, 96
6, 133120, Note_off_c, 4, 52, 0
6, 133120, Note_on_c, 4, 55, 96
6, 133632, Note_off_c, 4, 55, 0
6, 133632, Note_on_c, 4, 48, 96
6, 134656, Note_off_c, 4, 48, 0
6, 134656, Note_on_c, 4, 53, 96
6, 135168, Note_off_c, 4, 53, 0
6, 135168, Note_on_c, 4, 46, 96
6, 136192, Note_off_c, 4, 46, 0
6, 136192, Note_on_c, 4, 55, 96
6, 136704, Note_off_c, 4, 55, 0
6, 136704, Note_on_c, 4, 53, 96
6, 137728, Note_off_c, 4, 53, 0
6, 137728, Note_on_c, 4, 50, 96
6, 138240, Note_off_c, 4, 50, 0
6, 138240, Note_on_c, 4, 55, 96
6, 139264, Note_off_c, 4, 55, 0
6, 139264, Note_on_c, 4, 58, 96
6, 139776, Note_off_c, 4, 58, 0
6, 139776, Note_on_c, 4, 49, 96
6, 140800, Note_off_c, 4, 49, 0
6, 140800, Note_on_c, 4, 45, 96
6, 141312, Note_off_c, 4, 45, 0
6, 141312, Note_on_c, 4, 50, 96
6, 142336, Note_off_c, 4, 50, 0
6, 142336, Note_on_c, 4, 52, 96
6, 142848, Note_off_c, 4, 52, 0
6, 142848, Note_on_c, 4, 41, 96
6, 143872, Note_off_c, 4, 41, 0
6, 143872, Note_on_c, 4, 53, 96
6, 144384, Note_off_c, 4, 53, 0
6, 144384, Note_on_c, 4, 41, 96
6, 145408, Note_off_c, 4, 41, 0
6, 145408, Note_on_c, 4, 53, 96
6, 145920, Note_off_c, 4, 53, 0
6, 145920, Note_on_c, 4, 41, 96
6, 146432, Note_off_c, 4, 41, 0
6, 146432, Note_on_c, 4, 43, 96
6, 146944, Note_off_c, 4, 43, 0
6, 146944, Note_on_c, 4, 45, 96
6, 147456, Note_off_c, 4, 45, 0
6, 147456, Note_on_c, 4, 46, 96
6, 148480, Note_off_c, 4, 46, 0
6, 148480, Note_on_c, 4, 45, 96
6, 148992, Note_off_c, 4, 45, 0
6, 148992, Note_on_c, 4, 43, 96
6, 150016, Note_off_c, 4, 43, 0
6, 150016, Note_on_c, 4, 46, 96
6, 150528, Note_off_c, 4, 46, 0
6, 150528, Note_on_c, 4, 48, 96
6, 151552, Note_off_c, 4, 48, 0
6, 151552, Note_on_c, 4, 36, 96
6, 152064, Note_off_c, 4, 36, 0
6, 152064, Note_on_c, 4, 48, 96
6, 153088, Note_off_c, 4, 48, 0
6, 153088, Note_on_c, 4, 36, 96
6, 153600, Note_off_c, 4, 36, 0
6, 153600, Note_on_c, 4, 41, 96
6, 154112, Note_off_c, 4, 41, 0
6, 154112, Note_on_c, 4, 53, 96
6, 154624, Note_off_c, 4, 53, 0
6, 154624, Note_on_c, 4, 52, 96
6, 155136, Note_off_c, 4, 52, 0
6, 155136, Note_on_c, 4, 50, 96
6, 157184, Note_off_c, 4, 50, 0
6, 157184, Note_on_c, 4, 52, 96
6, 157696, Note_off_c, 4, 52, 0
6, 157696, Note_on_c, 4, 50, 96
6, 158208, Note_off_c, 4, 50, 0
6, 158208, Note_on_c, 4, 48, 96
6, 158720, Note_off_c, 4, 48, 0
6, 158720, Note_on_c, 4, 50, 96
6, 159232, Note_off_c, 4, 50, 0
6, 159232, Note_on_c, 4, 52, 96
6, 159744, Note_off_c, 4, 52, 0
6, 159744, Note_on_c, 4, 53, 96
6, 160768, Note_off_c, 4, 53, 0
6, 160768, Note_on_c, 4, 52, 96
6, 161280, Note_off_c, 4, 52, 0
6, 161280, Note_on_c, 4, 50, 96
6, 162304, Note_off_c, 4, 50, 0
6, 162304, Note_on_c, 4, 53, 96
6, 162816, Note_off_c, 4, 53, 0
6, 162816, Note_on_c, 4, 55, 96
6, 163840, Note_off_c, 4, 55, 0
6, 163840, Note_on_c, 4, 53, 96
6, 164352, Note_off_c, 4, 53, 0
6, 164352, Note_on_c, 4, 55, 96
6, 165376, Note_off_c, 4, 55, 0
6, 165376, Note_on_c, 4, 43, 96
6, 165888, Note_off_c, 4, 43, 0
6, 165888, Note_on_c, 4, 48, 96
6, 166912, Note_off_c, 4, 48, 0
6, 166912, Note_on_c, 4, 36, 96
6, 167424, Note_off_c, 4, 36, 0
6, 167424, Note_on_c, 4, 48, 96
6, 168448, Note_off_c, 4, 48, 0
6, 168448, Note_on_c, 4, 36, 96
6, 168960, Note_off_c, 4, 36, 0
6, 168960, Note_on_c, 4, 48, 96
6, 169984, Note_off_c, 4, 48, 0
6, 169984, Note_on_c, 4, 36, 96
6, 170496, Note_off_c, 4, 36, 0
6, 170496, Note_on_c, 4, 48, 96
6, 171520, Note_off_c, 4, 48, 0
6, 171520, Note_on_c, 4, 36, 96
6, 172032, Note_off_c, 4, 36, 0
6, 172032, Note_on_c, 4, 48, 96
6, 172544, Note_off_c, 4, 48, 0
6, 172544, Note_on_c, 4, 50, 96
6, 173056, Note_off_c, 4, 50, 0
6, 173056, Note_on_c, 4, 52, 96
6, 173568, Note_off_c, 4, 52, 0
6, 173568, Note_on_c, 4, 52, 96
6, 174080, Note_off_c, 4, 52, 0
6, 174080, Note_on_c, 4, 48, 96
6, 174592, Note_off_c, 4, 48, 0
6, 174592, Note_on_c, 4, 53, 96
6, 175104, Note_off_c, 4, 53, 0
6, 175104, Note_on_c, 4, 52, 96
6, 175616, Note_off_c, 4, 52, 0
6, 175616, Note_on_c, 4, 48, 96
6, 176128, Note_off_c, 4, 48, 0
6, 176128, Note_on_c, 4, 53, 96
6, 176640, Note_off_c, 4, 53, 0
6, 176640, Note_on_c, 4, 52, 96
6, 177152, Note_off_c, 4, 52, 0
6, 177152, Note_on_c, 4, 50, 96
6, 177664, Note_off_c, 4, 50, 0
6, 177664, Note_on_c, 4, 49, 96
6, 178176, Note_off_c, 4, 49, 0
6, 178176, Note_on_c, 4, 50, 96
6, 178688, Note_off_c, 4, 50, 0
6, 178688, Note_on_c, 4, 49, 96
6, 179200, Note_off_c, 4, 49, 0
6, 179200, Note_on_c, 4, 46, 96
6, 179712, Note_off_c, 4, 46, 0
6, 179712, Note_on_c, 4, 45, 96
6, 180224, Note_off_c, 4, 45, 0
6, 180224, Note_on_c, 4, 53, 96
6, 180736, Note_off_c, 4, 53, 0
6, 180736, Note_on_c, 4, 46, 96
6, 181248, Note_off_c, 4, 46, 0
6, 181248, Note_on_c, 4, 45, 96
6, 181760, Note_off_c, 4, 45, 0
6, 181760, Note_on_c, 4, 53, 96
6, 182272, Note_off_c, 4, 53, 0
6, 182272, Note_on_c, 4, 46, 96
6, 182784, Note_off_c, 4, 46, 0
6, 182784, Note_on_c, 4, 45, 96
6, 183296, Note_off_c, 4, 45, 0
6, 183296, Note_on_c, 4, 53, 96
6, 183808, Note_off_c, 4, 53, 0
6, 183808, Note_on_c, 4, 50, 96
6, 184320, Note_off_c, 4, 50, 0
6, 184320, Note_on_c, 4, 43, 96
6, 184832, Note_off_c, 4, 43, 0
6, 184832, Note_on_c, 4, 41, 96
6, 185344, Note_off_c, 4, 41, 0
6, 185344, Note_on_c, 4, 40, 96
6, 185856, Note_off_c, 4, 40, 0
6, 185856, Note_on_c, 4, 41, 96
6, 186368, Note_off_c, 4, 41, 0
6, 186368, Note_on_c, 4, 53, 96
6, 186880, Note_off_c, 4, 53, 0
6, 186880, Note_on_c, 4, 52, 96
6, 187392, Note_off_c, 4, 52, 0
6, 187392, Note_on_c, 4, 41, 96
6, 187904, Note_off_c, 4, 41, 0
6, 187904, Note_on_c, 4, 53, 96
6, 188416, Note_off_c, 4, 53, 0
6, 188416, Note_on_c, 4, 52, 96
6, 188928, Note_off_c, 4, 52, 0
6, 188928, Note_on_c, 4, 53, 96
6, 189952, Note_off_c, 4, 53, 0
6, 189952, Note_on_c, 4, 41, 96
6, 190464, Note_off_c, 4, 41, 0
6, 190464, Note_on_c, 4, 48, 96
6, 191232, Note_off_c, 4, 48, 0
6, 191232, Note_on_c, 4, 46, 96
6, 191488, Note_off_c, 4, 46, 0
6, 191488, Note_on_c, 4, 45, 96
6, 191744, Note_off_c, 4, 45, 0
6, 191744, Note_on_c, 4, 43, 96
6, 192000, Note_off_c, 4, 43, 0
6, 192000, Note_on_c, 4, 41, 96
6, 195072, Note_off_c, 4, 41, 0
6, 195072, Note_on_c, 4, 40, 96
6, 196608, Note_off_c, 4, 40, 0
6, 196608, Note_on_c, 4, 41, 96
6, 197632, Note_off_c, 4, 41, 0
6, 197632, Note_on_c, 4, 53, 96
6, 198144, Note_off_c, 4, 53, 0
6, 198144, Note_on_c, 4, 41, 96
6, 199168, Note_off_c, 4, 41, 0
6, 199168, Note_on_c, 4, 53, 96
6, 199680, Note_off_c, 4, 53, 0
6, 199680, Note_on_c, 4, 41, 96
6, 200704, Note_off_c, 4, 41, 0
6, 200704, Note_on_c, 4, 53, 96
6, 201216, Note_off_c, 4, 53, 0
6, 201216, Note_on_c, 4, 41, 96
6, 202240, Note_off_c, 4, 41, 0
6, 202240, Note_on_c, 4, 53, 96
6, 202752, Note_off_c, 4, 53, 0
6, 202752, Note_on_c, 4, 46, 96
6, 203776, Note_off_c, 4, 46, 0
6, 203776, Note_on_c, 4, 45, 96
6, 204288, Note_off_c, 4, 45, 0
6, 204288, Note_on_c, 4, 43, 96
6, 205312, Note_off_c, 4, 43, 0
6, 205312, Note_on_c, 4, 41, 96
6, 205824, Note_off_c, 4, 41, 0
6, 205824, Note_on_c, 4, 40, 96
6, 206848, Note_off_c, 4, 40, 0
6, 206848, Note_on_c, 4, 52, 96
6, 207360, Note_off_c, 4, 52, 0
6, 207360, Note_on_c, 4, 53, 96
6, 208384, Note_off_c, 4, 53, 0
6, 208384, Note_on_c, 4, 54, 96
6, 208896, Note_off_c, 4, 54, 0
6, 208896, Note_on_c, 4, 55, 96
6, 209920, Note_off_c, 4, 55, 0
6, 209920, Note_on_c, 4, 58, 96
6, 210432, Note_off_c, 4, 58, 0
6, 210432, Note_on_c, 4, 52, 96
6, 211456, Note_off_c, 4, 52, 0
6, 211456, Note_on_c, 4, 55, 96
6, 211968, Note_off_c, 4, 55, 0
6, 211968, Note_on_c, 4, 49, 96
6, 212992, Note_off_c, 4, 49, 0
6, 212992, Note_on_c, 4, 57, 96
6, 213504, Note_off_c, 4, 57, 0
6, 213504, Note_on_c, 4, 50, 96
6, 214528, Note_off_c, 4, 50, 0
6, 214528, Note_on_c, 4, 53, 96
6, 215040, Note_off_c, 4, 53, 0
6, 215040, Note_on_c, 4, 46, 96
6, 216064, Note_off_c, 4, 46, 0
6, 216064, Note_on_c, 4, 45, 96
6, 216576, Note_off_c, 4, 45, 0
6, 216576, Note_on_c, 4, 43, 96
6, 217600, Note_off_c, 4, 43, 0
6, 217600, Note_on_c, 4, 46, 96
6, 218112, Note_off_c, 4, 46, 0
6, 218112, Note_on_c, 4, 48, 96
6, 219136, Note_off_c, 4, 48, 0
6, 219136, Note_on_c, 4, 36, 96
6, 219648, Note_off_c, 4, 36, 0
6, 219648, Note_on_c, 4, 48, 96
6, 220672, Note_off_c, 4, 48, 0
6, 220672, Note_on_c, 4, 46, 96
6, 221184, Note_off_c, 4, 46, 0
6, 221184, Note_on_c, 4, 45, 96
6, 222208, Note_off_c, 4, 45, 0
6, 222208, Note_on_c, 4, 48, 96
6, 222720, Note_off_c, 4, 48, 0
6, 222720, Note_on_c, 4, 41, 96
6, 223744, Note_off_c, 4, 41, 0
6, 223744, Note_on_c, 4, 45, 96
6, 224256, Note_off_c, 4, 45, 0
6, 224256, Note_on_c, 4, 46, 96
6, 224768, Note_off_c, 4, 46, 0
6, 224768, Note_on_c, 4, 50, 96
6, 225280, Note_off_c, 4, 50, 0
6, 225280, Note_on_c, 4, 53, 96
6, 225792, Note_off_c, 4, 53, 0
6, 225792, Note_on_c, 4, 58, 96
6, 226816, Note_off_c, 4, 58, 0
6, 226816, Note_on_c, 4, 46, 96
6, 227328, Note_off_c, 4, 46, 0
6, 227328, Note_on_c, 4, 41, 96
6, 228864, Note_off_c, 4, 41, 0
6, 228864, Note_on_c, 4, 53, 96
6, 231936, Note_off_c, 4, 53, 0
6, 231936, Note_on_c, 4, 52, 96
6, 233472, Note_off_c, 4, 52, 0
6, 233472, Note_on_c, 4, 53, 96
6, 234496, Note_off_c, 4, 53, 0
6, 234496, Note_on_c, 4, 41, 96
6, 235008, Note_off_c, 4, 41, 0
6, 235008, Note_on_c, 4, 53, 96
6, 236032, Note_off_c, 4, 53, 0
6, 236032, Note_on_c, 4, 41, 96
6, 236544, Note_off_c, 4, 41, 0
6, 236544, Note_on_c, 4, 53, 96
6, 237568, Note_off_c, 4, 53, 0
6, 237568, Note_on_c, 4, 41, 96
6, 238080, Note_off_c, 4, 41, 0
6, 238080, Note_on_c, 4, 53, 96
6, 239104, Note_off_c, 4, 53, 0
6, 239104, Note_on_c, 4, 41, 96
6, 239616, Note_off_c, 4, 41, 0
6, 239616, Note_on_c, 4, 53, 96
6, 241152, Note_off_c, 4, 53, 0
6, 241152, Note_on_c, 4, 52, 96
6, 242688, Note_off_c, 4, 52, 0
6, 242688, Note_on_c, 4, 50, 96
6, 244224, Note_off_c, 4, 50, 0
6, 244224, Note_on_c, 4, 55, 96
6, 245760, Note_off_c, 4, 55, 0
6, 245760, Note_on_c, 4, 48, 96
6, 246784, Note_off_c, 4, 48, 0
6, 246784, Note_on_c, 4, 36, 96
6, 247296, Note_off_c, 4, 36, 0
6, 247296, Note_on_c, 4, 48, 96
6, 248320, Note_off_c, 4, 48, 0
6, 248320, Note_on_c, 4, 36, 96
6, 248832, Note_off_c, 4, 36, 0
6, 248832, Note_on_c, 4, 48, 96
6, 249856, Note_off_c, 4, 48, 0
6, 249856, Note_on_c, 4, 36, 96
6, 250368, Note_off_c, 4, 36, 0
6, 250368, Note_on_c, 4, 48, 96
6, 251392, Note_off_c, 4, 48, 0
6, 251392, Note_on_c, 4, 36, 96
6, 251904, Note_off_c, 4, 36, 0
6, 251904, Note_on_c, 4, 48, 96
6, 252416, Note_off_c, 4, 48, 0
6, 252416, Note_on_c, 4, 50, 96
6, 252928, Note_off_c, 4, 50, 0
6, 252928, Note_on_c, 4, 52, 96
6, 253440, Note_off_c, 4, 52, 0
6, 253440, Note_on_c, 4, 53, 96
6, 253952, Note_off_c, 4, 53, 0
6, 253952, Note_on_c, 4, 50, 96
6, 254464, Note_off_c, 4, 50, 0
6, 254464, Note_on_c, 4, 55, 96
6, 254976, Note_off_c, 4, 55, 0
6, 254976, Note_on_c, 4, 53, 96
6, 255488, Note_off_c, 4, 53, 0
6, 255488, Note_on_c, 4, 50, 96
6, 256000, Note_off_c, 4, 50, 0
6, 256000, Note_on_c, 4, 53, 96
6, 256512, Note_off_c, 4, 53, 0
6, 256512, Note_on_c, 4, 52, 96
6, 257024, Note_off_c, 4, 52, 0
6, 257024, Note_on_c, 4, 50, 96
6, 257536, Note_off_c, 4, 50, 0
6, 257536, Note_on_c, 4, 49, 96
6, 258048, Note_off_c, 4, 49, 0
6, 258048, Note_on_c, 4, 50, 96
6, 258560, Note_off_c, 4, 50, 0
6, 258560, Note_on_c, 4, 48, 96
6, 259072, Note_off_c, 4, 48, 0
6, 259072, Note_on_c, 4, 46, 96
6, 259584, Note_off_c, 4, 46, 0
6, 259584, Note_on_c, 4, 45, 96
6, 260096, Note_off_c, 4, 45, 0
6, 260096, Note_on_c, 4, 53, 96
6, 260608, Note_off_c, 4, 53, 0
6, 260608, Note_on_c, 4, 46, 96
6, 261120, Note_off_c, 4, 46, 0
6, 261120, Note_on_c, 4, 45, 96
6, 261632, Note_off_c, 4, 45, 0
6, 261632, Note_on_c, 4, 53, 96
6, 262144, Note_off_c, 4, 53, 0
6, 262144, Note_on_c, 4, 46, 96
6, 262656, Note_off_c, 4, 46, 0
6, 262656, Note_on_c, 4, 45, 96
6, 263168, Note_off_c, 4, 45, 0
6, 263168, Note_on_c, 4, 53, 96
6, 263680, Note_off_c, 4, 53, 0
6, 263680, Note_on_c, 4, 50, 96
6, 264192, Note_off_c, 4, 50, 0
6, 264192, Note_on_c, 4, 43, 96
6, 264704, Note_off_c, 4, 43, 0
6, 264704, Note_on_c, 4, 41, 96
6, 265216, Note_off_c, 4, 41, 0
6, 265216, Note_on_c, 4, 40, 96
6, 265728, Note_off_c, 4, 40, 0
6, 265728, Note_on_c, 4, 41, 96
6, 266240, Note_off_c, 4, 41, 0
6, 266240, Note_on_c, 4, 53, 96
6, 266752, Note_off_c, 4, 53, 0
6, 266752, Note_on_c, 4, 52, 96
6, 267264, Note_off_c, 4, 52, 0
6, 267264, Note_on_c, 4, 41, 96
6, 267776, Note_off_c, 4, 41, 0
6, 267776, Note_on_c, 4, 53, 96
6, 268288, Note_off_c, 4, 53, 0
6, 268288, Note_on_c, 4, 52, 96
6, 268800, Note_off_c, 4, 52, 0
6, 268800, Note_on_c, 4, 53, 96
6, 269824, Note_off_c, 4, 53, 0
6, 269824, Note_on_c, 4, 41, 96
6, 270336, Note_off_c, 4, 41, 0
6, 270336, Note_on_c, 4, 48, 96
6, 271104, Note_off_c, 4, 48, 0
6, 271104, Note_on_c, 4, 46, 96
6, 271360, Note_off_c, 4, 46, 0
6, 271360, Note_on_c, 4, 45, 96
6, 271616, Note_off_c, 4, 45, 0
6, 271616, Note_on_c, 4, 43, 96
6, 271872, Note_off_c, 4, 43, 0
6, 271872, Note_on_c, 4, 41, 96
6, 274944, Note_off_c, 4, 41, 0
6, 274944, Note_on_c, 4, 40, 96
6, 276480, Note_off_c, 4, 40, 0
6, 276480, Note_on_c, 4, 41, 96
6, 276992, Note_off_c, 4, 41, 0
6, 276992, Note_on_c, 4, 53, 96
6, 277504, Note_off_c, 4, 53, 0
6, 277504, Note_on_c, 4, 46, 96
6, 278016, Note_off_c, 4, 46, 0
6, 278016, Note_on_c, 4, 48, 96
6, 278528, Note_off_c, 4, 48, 0
6, 278528, Note_on_c, 4, 46, 96
6, 279040, Note_off_c, 4, 46, 0
6, 279040, Note_on_c, 4, 45, 96
6, 279552, Note_off_c, 4, 45, 0
6, 279552, Note_on_c, 4, 46, 96
6, 280064, Note_off_c, 4, 46, 0
6, 280064, Note_on_c, 4, 45, 96
6, 280576, Note_off_c, 4, 45, 0
6, 280576, Note_on_c, 4, 43, 96
6, 281088, Note_off_c, 4, 43, 0
6, 281088, Note_on_c, 4, 45, 96
6, 281600, Note_off_c, 4, 45, 0
6, 281600, Note_on_c, 4, 43, 96
6, 282112, Note_off_c, 4, 43, 0
6, 282112, Note_on_c, 4, 41, 96
6, 282624, Note_off_c, 4, 41, 0
6, 282624, Note_on_c, 4, 43, 96
6, 283136, Note_off_c, 4, 43, 0
6, 283136, Note_on_c, 4, 41, 96
6, 283648, Note_off_c, 4, 41, 0
6, 283648, Note_on_c, 4, 40, 96
6, 284160, Note_off_c, 4, 40, 0
6, 284160, Note_on_c, 4, 41, 96
6, 284672, Note_off_c, 4, 41, 0
6, 284672, Note_on_c, 4, 40, 96
6, 285184, Note_off_c, 4, 40, 0
6, 285184, Note_on_c, 4, 38, 96
6, 285696, Note_off_c, 4, 38, 0
6, 285696, Note_on_c, 4, 36, 96
6, 286720, Note_off_c, 4, 36, 0
6, 286720, Note_on_c, 4, 48, 96
6, 287232, Note_off_c, 4, 48, 0
6, 287232, Note_on_c, 4, 36, 96
6, 288256, Note_off_c, 4, 36, 0
6, 288256, Note_on_c, 4, 48, 96
6, 288768, Note_off_c, 4, 48, 0
6, 288768, Note_on_c, 4, 36, 96
6, 289280, Note_off_c, 4, 36, 0
6, 289280, Note_on_c, 4, 48, 96
6, 290304, Note_off_c, 4, 48, 0
6, 290304, Note_on_c, 4, 36, 96
6, 290816, Note_off_c, 4, 36, 0
6, 290816, Note_on_c, 4, 48, 96
6, 291840, Note_off_c, 4, 48, 0
6, 291840, Note_on_c, 4, 36, 96
6, 292352, Note_off_c, 4, 36, 0
6, 292352, Note_on_c, 4, 48, 96
6, 293376, Note_off_c, 4, 48, 0
6, 293376, Note_on_c, 4, 36, 96
6, 293888, Note_off_c, 4, 36, 0
6, 293888, Note_on_c, 4, 48, 96
6, 294912, Note_off_c, 4, 48, 0
6, 294912, Note_on_c, 4, 41, 96
6, 295424, Note_off_c, 4, 41, 0
6, 295424, Note_on_c, 4, 53, 96
6, 295936, Note_off_c, 4, 53, 0
6, 295936, Note_on_c, 4, 52, 96
6, 296448, Note_off_c, 4, 52, 0
6, 296448, Note_on_c, 4, 50, 96
6, 296960, Note_off_c, 4, 50, 0
6, 296960, Note_on_c, 4, 58, 96
6, 297472, Note_off_c, 4, 58, 0
6, 297472, Note_on_c, 4, 55, 96
6, 297984, Note_off_c, 4, 55, 0
6, 297984, Note_on_c, 4, 60, 96
6, 299008, Note_off_c, 4, 60, 0
6, 299008, Note_on_c, 4, 58, 96
6, 299520, Note_off_c, 4, 58, 0
6, 299520, Note_on_c, 4, 60, 96
6, 300544, Note_off_c, 4, 60, 0
6, 300544, Note_on_c, 4, 48, 96
6, 301056, Note_off_c, 4, 48, 0
6, 301056, Note_on_c, 4, 53, 96
6, 302080, Note_off_c, 4, 53, 0
6, 302080, Note_on_c, 4, 41, 96
6, 302592, Note_off_c, 4, 41, 0
6, 302592, Note_on_c, 4, 53, 96
6, 303616, Note_off_c, 4, 53, 0
6, 303616, Note_on_c, 4, 41, 96
6, 304128, Note_off_c, 4, 41, 0
6, 304128, Note_on_c, 4, 53, 96
6, 305152, Note_off_c, 4, 53, 0
6, 305152, Note_on_c, 4, 41, 96
6, 305664, Note_off_c, 4, 41, 0
6, 305664, Note_on_c, 4, 53, 96
6, 306688, Note_off_c, 4, 53, 0
6, 306688, Note_on_c, 4, 41, 96
6, 307200, Note_off_c, 4, 41, 0
6, 307200, Note_on_c, 4, 53, 96
6, 308736, Note_off_c, 4, 53, 0
6, 310272, Note_on_c, 4, 41, 96
6, 311808, Note_off_c, 4, 41, 0
6, 313344, Note_on_c, 4, 46, 96
6, 314368, Note_off_c, 4, 46, 0
6, 314368, Note_on_c, 4, 53, 96
6, 314880, Note_off_c, 4, 53, 0
6, 314880, Note_on_c, 4, 58, 96
6, 315904, Note_off_c, 4, 58, 0
6, 315904, Note_on_c, 4, 60, 96
6, 316416, Note_off_c, 4, 60, 0
6, 316416, Note_on_c, 4, 57, 96
6, 317440, Note_off_c, 4, 57, 0
6, 317440, Note_on_c, 4, 53, 96
6, 317952, Note_off_c, 4, 53, 0
6, 317952, Note_on_c, 4, 55, 96
6, 318976, Note_off_c, 4, 55, 0
6, 318976, Note_on_c, 4, 57, 96
6, 319488, Note_off_c, 4, 57, 0
6, 319488, Note_on_c, 4, 53, 96
6, 320512, Note_off_c, 4, 53, 0
6, 320512, Note_on_c, 4, 52, 96
6, 321024, Note_off_c, 4, 52, 0
6, 321024, Note_on_c, 4, 50, 96
6, 322048, Note_off_c, 4, 50, 0
6, 322048, Note_on_c, 4, 53, 96
6, 322560, Note_off_c, 4, 53, 0
6, 322560, Note_on_c, 4, 55, 96
6, 323584, Note_off_c, 4, 55, 0
6, 323584, Note_on_c, 4, 53, 96
6, 324096, Note_off_c, 4, 53, 0
6, 324096, Note_on_c, 4, 55, 96
6, 325120, Note_off_c, 4, 55, 0
6, 325120, Note_on_c, 4, 43, 96
6, 325632, Note_off_c, 4, 43, 0
6, 325632, Note_on_c, 4, 48, 96
6, 326656, Note_off_c, 4, 48, 0
6, 326656, Note_on_c, 4, 48, 96
6, 327168, Note_off_c, 4, 48, 0
6, 327168, Note_on_c, 4, 58, 96
6, 328192, Note_off_c, 4, 58, 0
6, 328192, Note_on_c, 4, 60, 96
6, 328704, Note_off_c, 4, 60, 0
6, 328704, Note_on_c, 4, 57, 96
6, 329728, Note_off_c, 4, 57, 0
6, 329728, Note_on_c, 4, 55, 96
6, 330240, Note_off_c, 4, 55, 0
6, 330240, Note_on_c, 4, 57, 96
6, 331264, Note_off_c, 4, 57, 0
6, 331264, Note_on_c, 4, 59, 96
6, 331776, Note_off_c, 4, 59, 0
6, 331776, Note_on_c, 4, 60, 96
6, 333312, Note_off_c, 4, 60, 0
6, 333312, Note_on_c, 4, 52, 96
6, 334848, Note_off_c, 4, 52, 0
6, 334848, Note_on_c, 4, 50, 96
6, 336384, Note_off_c, 4, 50, 0
6, 336384, Note_on_c, 4, 55, 96
6, 337920, Note_off_c, 4, 55, 0
6, 337920, Note_on_c, 4, 48, 96
6, 338944, Note_off_c, 4, 48, 0
6, 338944, Note_on_c, 4, 36, 96
6, 339456, Note_off_c, 4, 36, 0
6, 339456, Note_on_c, 4, 48, 96
6, 340480, Note_off_c, 4, 48, 0
6, 340480, Note_on_c, 4, 36, 96
6, 340992, Note_off_c, 4, 36, 0
6, 340992, Note_on_c, 4, 48, 96
6, 342016, Note_off_c, 4, 48, 0
6, 342016, Note_on_c, 4, 36, 96
6, 342528, Note_off_c, 4, 36, 0
6, 342528, Note_on_c, 4, 48, 96
6, 343552, Note_off_c, 4, 48, 0
6, 343552, Note_on_c, 4, 36, 96
6, 344064, Note_off_c, 4, 36, 0
6, 344064, Note_on_c, 4, 48, 96
6, 345088, Note_off_c, 4, 48, 0
6, 345088, Note_on_c, 4, 46, 96
6, 345600, Note_off_c, 4, 46, 0
6, 345600, Note_on_c, 4, 45, 96
6, 346624, Note_off_c, 4, 45, 0
6, 346624, Note_on_c, 4, 41, 96
6, 347136, Note_off_c, 4, 41, 0
6, 347136, Note_on_c, 4, 46, 96
6, 348160, Note_off_c, 4, 46, 0
6, 348160, Note_on_c, 4, 50, 96
6, 348672, Note_off_c, 4, 50, 0
6, 348672, Note_on_c, 4, 45, 96
6, 349696, Note_off_c, 4, 45, 0
6, 349696, Note_on_c, 4, 48, 96
6, 350208, Note_off_c, 4, 48, 0
6, 350208, Note_on_c, 4, 53, 96
6, 351232, Note_off_c, 4, 53, 0
6, 351232, Note_on_c, 4, 53, 96
6, 351744, Note_off_c, 4, 53, 0
6, 351744, Note_on_c, 4, 60, 96
6, 352768, Note_off_c, 4, 60, 0
6, 352768, Note_on_c, 4, 62, 96
6, 353280, Note_off_c, 4, 62, 0
6, 353280, Note_on_c, 4, 58, 96
6, 354304, Note_off_c, 4, 58, 0
6, 354304, Note_on_c, 4, 57, 96
6, 354816, Note_off_c, 4, 57, 0
6, 354816, Note_on_c, 4, 58, 96
6, 355840, Note_off_c, 4, 58, 0
6, 355840, Note_on_c, 4, 60, 96
6, 356352, Note_off_c, 4, 60, 0
6, 356352, Note_on_c, 4, 57, 96
6, 357376, Note_off_c, 4, 57, 0
6, 357376, Note_on_c, 4, 53, 96
6, 357888, Note_off_c, 4, 53, 0
6, 357888, Note_on_c, 4, 50, 96
6, 358912, Note_off_c, 4, 50, 0
6, 358912, Note_on_c, 4, 46, 96
6, 359424, Note_off_c, 4, 46, 0
6, 359424, Note_on_c, 4, 51, 96
6, 360448, Note_off_c, 4, 51, 0
6, 360448, Note_on_c, 4, 55, 96
6, 360960, Note_off_c, 4, 55, 0
6, 360960, Note_on_c, 4, 48, 96
6, 361984, Note_off_c, 4, 48, 0
6, 361984, Note_on_c, 4, 53, 96
6, 362496, Note_off_c, 4, 53, 0
6, 362496, Note_on_c, 4, 46, 96
6, 363520, Note_off_c, 4, 46, 0
6, 363520, Note_on_c, 4, 55, 96
6, 364032, Note_off_c, 4, 55, 0
6, 364032, Note_on_c, 4, 53, 96
6, 365056, Note_off_c, 4, 53, 0
6, 365056, Note_on_c, 4, 50, 96
6, 365568, Note_off_c, 4, 50, 0
6, 365568, Note_on_c, 4, 55, 96
6, 366592, Note_off_c, 4, 55, 0
6, 366592, Note_on_c, 4, 58, 96
6, 367104, Note_off_c, 4, 58, 0
6, 367104, Note_on_c, 4, 49, 96
6, 368128, Note_off_c, 4, 49, 0
6, 368128, Note_on_c, 4, 45, 96
6, 368640, Note_off_c, 4, 45, 0
6, 368640, Note_on_c, 4, 50, 96
6, 369664, Note_off_c, 4, 50, 0
6, 369664, Note_on_c, 4, 52, 96
6, 370176, Note_off_c, 4, 52, 0
6, 370176, Note_on_c, 4, 41, 96
6, 371200, Note_off_c, 4, 41, 0
6, 371200, Note_on_c, 4, 53, 96
6, 371712, Note_off_c, 4, 53, 0
6, 371712, Note_on_c, 4, 41, 96
6, 372736, Note_off_c, 4, 41, 0
6, 372736, Note_on_c, 4, 53, 96
6, 373248, Note_off_c, 4, 53, 0
6, 373248, Note_on_c, 4, 41, 96
6, 373760, Note_off_c, 4, 41, 0
6, 373760, Note_on_c, 4, 43, 96
6, 374272, Note_off_c, 4, 43, 0
6, 374272, Note_on_c, 4, 45, 96
6, 374784, Note_off_c, 4, 45, 0
6, 374784, Note_on_c, 4, 46, 96
6, 375808, Note_off_c, 4, 46, 0
6, 375808, Note_on_c, 4, 45, 96
6, 376320, Note_off_c, 4, 45, 0
6, 376320, Note_on_c, 4, 43, 96
6, 377344, Note_off_c, 4, 43, 0
6, 377344, Note_on_c, 4, 46, 96
6, 377856, Note_off_c, 4, 46, 0
6, 377856, Note_on_c, 4, 48, 96
6, 378880, Note_off_c, 4, 48, 0
6, 378880, Note_on_c, 4, 36, 96
6, 379392, Note_off_c, 4, 36, 0
6, 379392, Note_on_c, 4, 48, 96
6, 380416, Note_off_c, 4, 48, 0
6, 380416, Note_on_c, 4, 36, 96
6, 380928, Note_off_c, 4, 36, 0
6, 380928, Note_on_c, 4, 41, 96
6, 381440, Note_off_c, 4, 41, 0
6, 381440, Note_on_c, 4, 53, 96
6, 381952, Note_off_c, 4, 53, 0
6, 381952, Note_on_c, 4, 52, 96
6, 382464, Note_off_c, 4, 52, 0
6, 382464, Note_on_c, 4, 50, 96
6, 384512, Note_off_c, 4, 50, 0
6, 384512, Note_on_c, 4, 52, 96
6, 385024, Note_off_c, 4, 52, 0
6, 385024, Note_on_c, 4, 50, 96
6, 385536, Note_off_c, 4, 50, 0
6, 385536, Note_on_c, 4, 48, 96
6, 386048, Note_off_c, 4, 48, 0
6, 386048, Note_on_c, 4, 50, 96
6, 386560, Note_off_c, 4, 50, 0
6, 386560, Note_on_c, 4, 52, 96
6, 387072, Note_off_c, 4, 52, 0
6, 387072, Note_on_c, 4, 53, 96
6, 388096, Note_off_c, 4, 53, 0
6, 388096, Note_on_c, 4, 52, 96
6, 388608, Note_off_c, 4, 52, 0
6, 388608, Note_on_c, 4, 50, 96
6, 389632, Note_off_c, 4, 50, 0
6, 389632, Note_on_c, 4, 53, 96
6, 390144, Note_off_c, 4, 53, 0
6, 390144, Note_on_c, 4, 55, 96
6, 391168, Note_off_c, 4, 55, 0
6, 391168, Note_on_c, 4, 53, 96
6, 391680, Note_off_c, 4, 53, 0
6, 391680, Note_on_c, 4, 55, 96
6, 392704, Note_off_c, 4, 55, 0
6, 392704, Note_on_c, 4, 43, 96
6, 393216, Note_off_c, 4, 43, 0
6, 393216, Note_on_c, 4, 48, 96
6, 394240, Note_off_c, 4, 48, 0
6, 394240, Note_on_c, 4, 36, 96
6, 394752, Note_off_c, 4, 36, 0
6, 394752, Note_on_c, 4, 48, 96
6, 395776, Note_off_c, 4, 48, 0
6, 395776, Note_on_c, 4, 36, 96
6, 396288, Note_off_c, 4, 36, 0
6, 396288, Note_on_c, 4, 48, 96
6, 397312, Note_off_c, 4, 48, 0
6, 397312, Note_on_c, 4, 36, 96
6, 397824, Note_off_c, 4, 36, 0
6, 397824, Note_on_c, 4, 48, 96
6, 398848, Note_off_c, 4, 48, 0
6, 398848, Note_on_c, 4, 36, 96
6, 399360, Note_off_c, 4, 36, 0
6, 399360, Note_on_c, 4, 48, 96
6, 399872, Note_off_c, 4, 48, 0
6, 399872, Note_on_c, 4, 50, 96
6, 400384, Note_off_c, 4, 50, 0
6, 400384, Note_on_c, 4, 52, 96
6, 400896, Note_off_c, 4, 52, 0
6, 400896, Note_on_c, 4, 52, 96
6, 401408, Note_off_c, 4, 52, 0
6, 401408, Note_on_c, 4, 48, 96
6, 401920, Note_off_c, 4, 48, 0
6, 401920, Note_on_c, 4, 53, 96
6, 402432, Note_off_c, 4, 53, 0
6, 402432, Note_on_c, 4, 52, 96
6, 402944, Note_off_c, 4, 52, 0
6, 402944, Note_on_c, 4, 48, 96
6, 403456, Note_off_c, 4, 48, 0
6, 403456, Note_on_c, 4, 53, 96
6, 403968, Note_off_c, 4, 53, 0
6, 403968, Note_on_c, 4, 52, 96
6, 404480, Note_off_c, 4, 52, 0
6, 404480, Note_on_c, 4, 50, 96
6, 404992, Note_off_c, 4, 50, 0
6, 404992, Note_on_c, 4, 49, 96
6, 405504, Note_off_c, 4, 49, 0
6, 405504, Note_on_c, 4, 50, 96
6, 406016, Note_off_c, 4, 50, 0
6, 406016, Note_on_c, 4, 48, 96
6, 406528, Note_off_c, 4, 48, 0
6, 406528, Note_on_c, 4, 46, 96
6, 407040, Note_off_c, 4, 46, 0
6, 407040, Note_on_c, 4, 45, 96
6, 407552, Note_off_c, 4, 45, 0
6, 407552, Note_on_c, 4, 53, 96
6, 408064, Note_off_c, 4, 53, 0
6, 408064, Note_on_c, 4, 46, 96
6, 408576, Note_off_c, 4, 46, 0
6, 408576, Note_on_c, 4, 45, 96
6, 409088, Note_off_c, 4, 45, 0
6, 409088, Note_on_c, 4, 53, 96
6, 409600, Note_off_c, 4, 53, 0
6, 409600, Note_on_c, 4, 46, 96
6, 410112, Note_off_c, 4, 46, 0
6, 410112, Note_on_c, 4, 45, 96
6, 410624, Note_off_c, 4, 45, 0
6, 410624, Note_on_c, 4, 53, 96
6, 411136, Note_off_c, 4, 53, 0
6, 411136, Note_on_c, 4, 50, 96
6, 411648, Note_off_c, 4, 50, 0
6, 411648, Note_on_c, 4, 43, 96
6, 412160, Note_off_c, 4, 43, 0
6, 412160, Note_on_c, 4, 41, 96
6, 412672, Note_off_c, 4, 41, 0
6, 412672, Note_on_c, 4, 40, 96
6, 413184, Note_off_c, 4, 40, 0
6, 413184, Note_on_c, 4, 41, 96
6, 413696, Note_off_c, 4, 41, 0
6, 413696, Note_on_c, 4, 53, 96
6, 414208, Note_off_c, 4, 53, 0
6, 414208, Note_on_c, 4, 52, 96
6, 414720, Note_off_c, 4, 52, 0
6, 414720, Note_on_c, 4, 41, 96
6, 415232, Note_off_c, 4, 41, 0
6, 415232, Note_on_c, 4, 53, 96
6, 415744, Note_off_c, 4, 53, 0
6, 415744, Note_on_c, 4, 52, 96
6, 416256, Note_off_c, 4, 52, 0
6, 416256, Note_on_c, 4, 53, 96
6, 417280, Note_off_c, 4, 53, 0
6, 417280, Note_on_c, 4, 41, 96
6, 417792, Note_off_c, 4, 41, 0
6, 417792, Note_on_c, 4, 48, 96
6, 418560, Note_off_c, 4, 48, 0
6, 418560, Note_on_c, 4, 46, 96
6, 418816, Note_off_c, 4, 46, 0
6, 418816, Note_on_c, 4, 45, 96
6, 419072, Note_off_c, 4, 45, 0
6, 419072, Note_on_c, 4, 43, 96
6, 419328, Note_off_c, 4, 43, 0
6, 419328, Note_on_c, 4, 41, 96
6, 422400, Note_off_c, 4, 41, 0
6, 422400, Note_on_c, 4, 40, 96
6, 423936, Note_off_c, 4, 40, 0
6, 423936, Note_on_c, 4, 41, 96
6, 424960, Note_off_c, 4, 41, 0
6, 424960, Note_on_c, 4, 53, 96
6, 425472, Note_off_c, 4, 53, 0
6, 425472, Note_on_c, 4, 41, 96
6, 426496, Note_off_c, 4, 41, 0
6, 426496, Note_on_c, 4, 53, 96
6, 427008, Note_off_c, 4, 53, 0
6, 427008, Note_on_c, 4, 41, 96
6, 428032, Note_off_c, 4, 41, 0
6, 428032, Note_on_c, 4, 53, 96
6, 428544, Note_off_c, 4, 53, 0
6, 428544, Note_on_c, 4, 41, 96
6, 429568, Note_off_c, 4, 41, 0
6, 429568, Note_on_c, 4, 53, 96
6, 430080, Note_off_c, 4, 53, 0
6, 430080, Note_on_c, 4, 46, 96
6, 431104, Note_off_c, 4, 46, 0
6, 431104, Note_on_c, 4, 45, 96
6, 431616, Note_off_c, 4, 45, 0
6, 431616, Note_on_c, 4, 43, 96
6, 432640, Note_off_c, 4, 43, 0
6, 432640, Note_on_c, 4, 41, 96
6, 433152, Note_off_c, 4, 41, 0
6, 433152, Note_on_c, 4, 40, 96
6, 434176, Note_off_c, 4, 40, 0
6, 434176, Note_on_c, 4, 52, 96
6, 434688, Note_off_c, 4, 52, 0
6, 434688, Note_on_c, 4, 53, 96
6, 435712, Note_off_c, 4, 53, 0
6, 435712, Note_on_c, 4, 54, 96
6, 436224, Note_off_c, 4, 54, 0
6, 436224, Note_on_c, 4, 55, 96
6, 437248, Note_off_c, 4, 55, 0
6, 437248, Note_on_c, 4, 58, 96
6, 437760, Note_off_c, 4, 58, 0
6, 437760, Note_on_c, 4, 52, 96
6, 438784, Note_off_c, 4, 52, 0
6, 438784, Note_on_c, 4, 55, 96
6, 439296, Note_off_c, 4, 55, 0
6, 439296, Note_on_c, 4, 49, 96
6, 440320, Note_off_c, 4, 49, 0
6, 440320, Note_on_c, 4, 57, 96
6, 440832, Note_off_c, 4, 57, 0
6, 440832, Note_on_c, 4, 50, 96
6, 441856, Note_off_c, 4, 50, 0
6, 441856, Note_on_c, 4, 53, 96
6, 442368, Note_off_c, 4, 53, 0
6, 442368, Note_on_c, 4, 46, 96
6, 443392, Note_off_c, 4, 46, 0
6, 443392, Note_on_c, 4, 45, 96
6, 443904, Note_off_c, 4, 45, 0
6, 443904, Note_on_c, 4, 43, 96
6, 444928, Note_off_c, 4, 43, 0
6, 444928, Note_on_c, 4, 46, 96
6, 445440, Note_off_c, 4, 46, 0
6, 445440, Note_on_c, 4, 48, 96
6, 446464, Note_off_c, 4, 48, 0
6, 446464, Note_on_c, 4, 36, 96
6, 446976, Note_off_c, 4, 36, 0
6, 446976, Note_on_c, 4, 48, 96
6, 448000, Note_off_c, 4, 48, 0
6, 448000, Note_on_c, 4, 46, 96
6, 448512, Note_off_c, 4, 46, 0
6, 448512, Note_on_c, 4, 45, 96
6, 449536, Note_off_c, 4, 45, 0
6, 449536, Note_on_c, 4, 48, 96
6, 450048, Note_off_c, 4, 48, 0
6, 450048, Note_on_c, 4, 41, 96
6, 451072, Note_off_c, 4, 41, 0
6, 451072, Note_on_c, 4, 45, 96
6, 451584, Note_off_c, 4, 45, 0
6, 451584, Note_on_c, 4, 46, 96
6, 452096, Note_off_c, 4, 46, 0
6, 452096, Note_on_c, 4, 50, 96
6, 452608, Note_off_c, 4, 50, 0
6, 452608, Note_on_c, 4, 53, 96
6, 453120, Note_off_c, 4, 53, 0
6, 453120, Note_on_c, 4, 58, 96
6, 454144, Note_off_c, 4, 58, 0
6, 454144, Note_on_c, 4, 46, 96
6, 454656, Note_off_c, 4, 46, 0
6, 454656, Note_on_c, 4, 41, 96
6, 455168, Note_off_c, 4, 41, 0
6, 455168, Note_on_c, 4, 45, 96
6, 455680, Note_off_c, 4, 45, 0
6, 455680, Note_on_c, 4, 48, 96
6, 456192, Note_off_c, 4, 48, 0
6, 456192, Note_on_c, 4, 53, 96
6, 459264, Note_off_c, 4, 53, 0
6, 459264, Note_on_c, 4, 52, 96
6, 460800, Note_off_c, 4, 52, 0
6, 460800, Note_on_c, 4, 50, 96
6, 461824, Note_off_c, 4, 50, 0
6, 461824, Note_on_c, 4, 53, 96
6, 462336, Note_off_c, 4, 53, 0
6, 462336, Note_on_c, 4, 58, 96
6, 465408, Note_off_c, 4, 58, 0
6, 465408, Note_on_c, 4, 57, 96
6, 466944, Note_off_c, 4, 57, 0
6, 466944, Note_on_c, 4, 55, 96
6, 467968, Note_off_c, 4, 55, 0
6, 467968, Note_on_c, 4, 53, 96
6, 468480, Note_off_c, 4, 53, 0
6, 468480, Note_on_c, 4, 52, 96
6, 471552, Note_off_c, 4, 52, 0
6, 471552, Note_on_c, 4, 50, 96
6, 473088, Note_off_c, 4, 50, 0
6, 473088, Note_on_c, 4, 48, 96
6, 474112, Note_off_c, 4, 48, 0
6, 474112, Note_on_c, 4, 52, 96
6, 474624, Note_off_c, 4, 52, 0
6, 474624, Note_on_c, 4, 57, 96
6, 477696, Note_off_c, 4, 57, 0
6, 477696, Note_on_c, 4, 55, 96
6, 479232, Note_off_c, 4, 55, 0
6, 479232, Note_on_c, 4, 53, 96
6, 479744, Note_off_c, 4, 53, 0
6, 479744, Note_on_c, 4, 55, 96
6, 480000, Note_off_c, 4, 55, 0
6, 480000, Note_on_c, 4, 53, 96
6, 480256, Note_off_c, 4, 53, 0
6, 480256, Note_on_c, 4, 55, 96
6, 480768, Note_off_c, 4, 55, 0
6, 480768, Note_on_c, 4, 57, 96
6, 481280, Note_off_c, 4, 57, 0
6, 481280, Note_on_c, 4, 55, 96
6, 481792, Note_off_c, 4, 55, 0
6, 481792, Note_on_c, 4, 53, 96
6, 482304, Note_off_c, 4, 53, 0
6, 482304, Note_on_c, 4, 55, 96
6, 482816, Note_off_c, 4, 55, 0
6, 482816, Note_on_c, 4, 53, 96
6, 483328, Note_off_c, 4, 53, 0
6, 483328, Note_on_c, 4, 52, 96
6, 483840, Note_off_c, 4, 52, 0
6, 483840, Note_on_c, 4, 53, 96
6, 484352, Note_off_c, 4, 53, 0
6, 484352, Note_on_c, 4, 52, 96
6, 484864, Note_off_c, 4, 52, 0
6, 484864, Note_on_c, 4, 50, 96
6, 485376, Note_off_c, 4, 50, 0
6, 485376, Note_on_c, 4, 52, 96
6, 485888, Note_off_c, 4, 52, 0
6, 485888, Note_on_c, 4, 50, 96
6, 486400, Note_off_c, 4, 50, 0
6, 486400, Note_on_c, 4, 49, 96
6, 486912, Note_off_c, 4, 49, 0
6, 486912, Note_on_c, 4, 50, 96
6, 487424, Note_off_c, 4, 50, 0
6, 487424, Note_on_c, 4, 48, 96
6, 487936, Note_off_c, 4, 48, 0
6, 487936, Note_on_c, 4, 46, 96
6, 488448, Note_off_c, 4, 46, 0
6, 488448, Note_on_c, 4, 45, 96
6, 489472, Note_off_c, 4, 45, 0
6, 489472, Note_on_c, 4, 57, 96
6, 489984, Note_off_c, 4, 57, 0
6, 489984, Note_on_c, 4, 45, 96
6, 491008, Note_off_c, 4, 45, 0
6, 491008, Note_on_c, 4, 57, 96
6, 491520, Note_off_c, 4, 57, 0
6, 491520, Note_on_c, 4, 45, 96
6, 492544, Note_off_c, 4, 45, 0
6, 492544, Note_on_c, 4, 57, 96
6, 493056, Note_off_c, 4, 57, 0
6, 493056, Note_on_c, 4, 45, 96
6, 494080, Note_off_c, 4, 45, 0
6, 494080, Note_on_c, 4, 57, 96
6, 494592, Note_off_c, 4, 57, 0
6, 494592, Note_on_c, 4, 45, 96
6, 495616, Note_off_c, 4, 45, 0
6, 495616, Note_on_c, 4, 57, 96
6, 496128, Note_off_c, 4, 57, 0
6, 496128, Note_on_c, 4, 45, 96
6, 497152, Note_off_c, 4, 45, 0
6, 497152, Note_on_c, 4, 57, 96
6, 497664, Note_off_c, 4, 57, 0
6, 497664, Note_on_c, 4, 50, 96
6, 498176, Note_off_c, 4, 50, 0
6, 498176, Note_on_c, 4, 62, 96
6, 498688, Note_off_c, 4, 62, 0
6, 498688, Note_on_c, 4, 60, 96
6, 499200, Note_off_c, 4, 60, 0
6, 499200, Note_on_c, 4, 58, 96
6, 499712, Note_off_c, 4, 58, 0
6, 499712, Note_on_c, 4, 55, 96
6, 500224, Note_off_c, 4, 55, 0
6, 500224, Note_on_c, 4, 52, 96
6, 500736, Note_off_c, 4, 52, 0
6, 500736, Note_on_c, 4, 57, 96
6, 501760, Note_off_c, 4, 57, 0
6, 501760, Note_on_c, 4, 55, 96
6, 502272, Note_off_c, 4, 55, 0
6, 502272, Note_on_c, 4, 57, 96
6, 503296, Note_off_c, 4, 57, 0
6, 503296, Note_on_c, 4, 45, 96
6, 503808, Note_off_c, 4, 45, 0
6, 503808, Note_on_c, 4, 50, 96
6, 504320, Note_off_c, 4, 50, 0
6, 504320, Note_on_c, 4, 52, 96
6, 504832, Note_off_c, 4, 52, 0
6, 504832, Note_on_c, 4, 53, 96
6, 505344, Note_off_c, 4, 53, 0
6, 505344, Note_on_c, 4, 50, 96
6, 505856, Note_off_c, 4, 50, 0
6, 505856, Note_on_c, 4, 53, 96
6, 506368, Note_off_c, 4, 53, 0
6, 506368, Note_on_c, 4, 50, 96
6, 506880, Note_off_c, 4, 50, 0
6, 506880, Note_on_c, 4, 52, 96
6, 507392, Note_off_c, 4, 52, 0
6, 507392, Note_on_c, 4, 55, 96
6, 507904, Note_off_c, 4, 55, 0
6, 507904, Note_on_c, 4, 53, 96
6, 508416, Note_off_c, 4, 53, 0
6, 508416, Note_on_c, 4, 52, 96
6, 508928, Note_off_c, 4, 52, 0
6, 508928, Note_on_c, 4, 48, 96
6, 509440, Note_off_c, 4, 48, 0
6, 509440, Note_on_c, 4, 52, 96
6, 509952, Note_off_c, 4, 52, 0
6, 509952, Note_on_c, 4, 53, 96
6, 510976, Note_off_c, 4, 53, 0
6, 510976, Note_on_c, 4, 41, 96
6, 511488, Note_off_c, 4, 41, 0
6, 511488, Note_on_c, 4, 53, 96
6, 512512, Note_off_c, 4, 53, 0
6, 512512, Note_on_c, 4, 41, 96
6, 513024, Note_off_c, 4, 41, 0
6, 513024, Note_on_c, 4, 53, 96
6, 514048, Note_off_c, 4, 53, 0
6, 514048, Note_on_c, 4, 41, 96
6, 514560, Note_off_c, 4, 41, 0
6, 514560, Note_on_c, 4, 53, 96
6, 515584, Note_off_c, 4, 53, 0
6, 515584, Note_on_c, 4, 41, 96
6, 516096, Note_off_c, 4, 41, 0
6, 516096, Note_on_c, 4, 53, 96
6, 516608, Note_off_c, 4, 53, 0
6, 516608, Note_on_c, 4, 52, 96
6, 517120, Note_off_c, 4, 52, 0
6, 517120, Note_on_c, 4, 50, 96
6, 517632, Note_off_c, 4, 50, 0
6, 517632, Note_on_c, 4, 48, 96
6, 518144, Note_off_c, 4, 48, 0
6, 518144, Note_on_c, 4, 47, 96
6, 518656, Note_off_c, 4, 47, 0
6, 518656, Note_on_c, 4, 45, 96
6, 519168, Note_off_c, 4, 45, 0
6, 519168, Note_on_c, 4, 47, 96
6, 519680, Note_off_c, 4, 47, 0
6, 519680, Note_on_c, 4, 50, 96
6, 520192, Note_off_c, 4, 50, 0
6, 520192, Note_on_c, 4, 48, 96
6, 520704, Note_off_c, 4, 48, 0
6, 520704, Note_on_c, 4, 47, 96
6, 521216, Note_off_c, 4, 47, 0
6, 521216, Note_on_c, 4, 45, 96
6, 521728, Note_off_c, 4, 45, 0
6, 521728, Note_on_c, 4, 47, 96
6, 522240, Note_off_c, 4, 47, 0
6, 522240, Note_on_c, 4, 48, 96
6, 523264, Note_off_c, 4, 48, 0
6, 523264, Note_on_c, 4, 36, 96
6, 523776, Note_off_c, 4, 36, 0
6, 523776, Note_on_c, 4, 48, 96
6, 524288, Note_off_c, 4, 48, 0
6, 524288, Note_on_c, 4, 52, 96
6, 524800, Note_off_c, 4, 52, 0
6, 524800, Note_on_c, 4, 50, 96
6, 525312, Note_off_c, 4, 50, 0
6, 525312, Note_on_c, 4, 49, 96
6, 525824, Note_off_c, 4, 49, 0
6, 525824, Note_on_c, 4, 47, 96
6, 526336, Note_off_c, 4, 47, 0
6, 526336, Note_on_c, 4, 49, 96
6, 526848, Note_off_c, 4, 49, 0
6, 526848, Note_on_c, 4, 50, 96
6, 527872, Note_off_c, 4, 50, 0
6, 527872, Note_on_c, 4, 38, 96
6, 528384, Note_off_c, 4, 38, 0
6, 528384, Note_on_c, 4, 45, 96
6, 529408, Note_off_c, 4, 45, 0
6, 535040, Note_on_c, 4, 57, 96
6, 535552, Note_off_c, 4, 57, 0
6, 535552, Note_on_c, 4, 55, 96
6, 536064, Note_off_c, 4, 55, 0
6, 536064, Note_on_c, 4, 53, 96
6, 536576, Note_off_c, 4, 53, 0
6, 536576, Note_on_c, 4, 52, 96
6, 537088, Note_off_c, 4, 52, 0
6, 537088, Note_on_c, 4, 50, 96
6, 537600, Note_off_c, 4, 50, 0
6, 537600, Note_on_c, 4, 52, 96
6, 538112, Note_off_c, 4, 52, 0
6, 538112, Note_on_c, 4, 64, 96
6, 538624, Note_off_c, 4, 64, 0
6, 538624, Note_on_c, 4, 62, 96
6, 539136, Note_off_c, 4, 62, 0
6, 539136, Note_on_c, 4, 61, 96
6, 539648, Note_off_c, 4, 61, 0
6, 539648, Note_on_c, 4, 59, 96
6, 540160, Note_off_c, 4, 59, 0
6, 540160, Note_on_c, 4, 57, 96
6, 540672, Note_off_c, 4, 57, 0
6, 540672, Note_on_c, 4, 62, 96
6, 542208, Note_off_c, 4, 62, 0
6, 543744, Note_on_c, 4, 50, 96
6, 544256, Note_off_c, 4, 50, 0
6, 544256, Note_on_c, 4, 52, 96
6, 544768, Note_off_c, 4, 52, 0
6, 544768, Note_on_c, 4, 53, 96
6, 545280, Note_off_c, 4, 53, 0
6, 545280, Note_on_c, 4, 50, 96
6, 545792, Note_off_c, 4, 50, 0
6, 545792, Note_on_c, 4, 52, 96
6, 546304, Note_off_c, 4, 52, 0
6, 546304, Note_on_c, 4, 53, 96
6, 546816, Note_off_c, 4, 53, 0
6, 546816, Note_on_c, 4, 55, 96
6, 547328, Note_off_c, 4, 55, 0
6, 547328, Note_on_c, 4, 57, 96
6, 547840, Note_off_c, 4, 57, 0
6, 547840, Note_on_c, 4, 58, 96
6, 548352, Note_off_c, 4, 58, 0
6, 548352, Note_on_c, 4, 55, 96
6, 548864, Note_off_c, 4, 55, 0
6, 548864, Note_on_c, 4, 57, 96
6, 549376, Note_off_c, 4, 57, 0
6, 549376, Note_on_c, 4, 58, 96
6, 549888, Note_off_c, 4, 58, 0
6, 549888, Note_on_c, 4, 48, 96
6, 550400, Note_off_c, 4, 48, 0
6, 550400, Note_on_c, 4, 50, 96
6, 550912, Note_off_c, 4, 50, 0
6, 550912, Note_on_c, 4, 52, 96
6, 551424, Note_off_c, 4, 52, 0
6, 551424, Note_on_c, 4, 48, 96
6, 551936, Note_off_c, 4, 48, 0
6, 551936, Note_on_c, 4, 50, 96
6, 552448, Note_off_c, 4, 50, 0
6, 552448, Note_on_c, 4, 52, 96
6, 552960, Note_off_c, 4, 52, 0
6, 552960, Note_on_c, 4, 53, 96
6, 553472, Note_off_c, 4, 53, 0
6, 553472, Note_on_c, 4, 55, 96
6, 553984, Note_off_c, 4, 55, 0
6, 553984, Note_on_c, 4, 57, 96
6, 554496, Note_off_c, 4, 57, 0
6, 554496, Note_on_c, 4, 48, 96
6, 555008, Note_off_c, 4, 48, 0
6, 555008, Note_on_c, 4, 50, 96
6, 555520, Note_off_c, 4, 50, 0
6, 555520, Note_on_c, 4, 51, 96
6, 556032, Note_off_c, 4, 51, 0
6, 556032, Note_on_c, 4, 45, 96
6, 556544, Note_off_c, 4, 45, 0
6, 556544, Note_on_c, 4, 46, 96
6, 557056, Note_off_c, 4, 46, 0
6, 557056, Note_on_c, 4, 48, 96
6, 557568, Note_off_c, 4, 48, 0
6, 557568, Note_on_c, 4, 41, 96
6, 558080, Note_off_c, 4, 41, 0
6, 558080, Note_on_c, 4, 43, 96
6, 558592, Note_off_c, 4, 43, 0
6, 558592, Note_on_c, 4, 45, 96
6, 559104, Note_off_c, 4, 45, 0
6, 559104, Note_on_c, 4, 46, 96
6, 559616, Note_off_c, 4, 46, 0
6, 559616, Note_on_c, 4, 45, 96
6, 560128, Note_off_c, 4, 45, 0
6, 560128, Note_on_c, 4, 46, 96
6, 560640, Note_off_c, 4, 46, 0
6, 560640, Note_on_c, 4, 43, 96
6, 561152, Note_off_c, 4, 43, 0
6, 561152, Note_on_c, 4, 45, 96
6, 561664, Note_off_c, 4, 45, 0
6, 561664, Note_on_c, 4, 46, 96
6, 562176, Note_off_c, 4, 46, 0
6, 562176, Note_on_c, 4, 48, 96
6, 562688, Note_off_c, 4, 48, 0
6, 562688, Note_on_c, 4, 46, 96
6, 563200, Note_off_c, 4, 46, 0
6, 563200, Note_on_c, 4, 48, 96
6, 563712, Note_off_c, 4, 48, 0
6, 563712, Note_on_c, 4, 45, 96
6, 564224, Note_off_c, 4, 45, 0
6, 564224, Note_on_c, 4, 46, 96
6, 564736, Note_off_c, 4, 46, 0
6, 564736, Note_on_c, 4, 48, 96
6, 565248, Note_off_c, 4, 48, 0
6, 565248, Note_on_c, 4, 50, 96
6, 565760, Note_off_c, 4, 50, 0
6, 565760, Note_on_c, 4, 48, 96
6, 566272, Note_off_c, 4, 48, 0
6, 566272, Note_on_c, 4, 50, 96
6, 566784, Note_off_c, 4, 50, 0
6, 566784, Note_on_c, 4, 52, 96
6, 567296, Note_off_c, 4, 52, 0
6, 567296, Note_on_c, 4, 50, 96
6, 567808, Note_off_c, 4, 50, 0
6, 567808, Note_on_c, 4, 48, 96
6, 568320, Note_off_c, 4, 48, 0
6, 568320, Note_on_c, 4, 53, 96
6, 568832, Note_off_c, 4, 53, 0
6, 568832, Note_on_c, 4, 55, 96
6, 569344, Note_off_c, 4, 55, 0
6, 569344, Note_on_c, 4, 57, 96
6, 569856, Note_off_c, 4, 57, 0
6, 569856, Note_on_c, 4, 50, 96
6, 570368, Note_off_c, 4, 50, 0
6, 570368, Note_on_c, 4, 52, 96
6, 570880, Note_off_c, 4, 52, 0
6, 570880, Note_on_c, 4, 53, 96
6, 571392, Note_off_c, 4, 53, 0
6, 571392, Note_on_c, 4, 46, 96
6, 571904, Note_off_c, 4, 46, 0
6, 571904, Note_on_c, 4, 48, 96
6, 572416, Note_off_c, 4, 48, 0
6, 572416, Note_on_c, 4, 50, 96
6, 572928, Note_off_c, 4, 50, 0
6, 572928, Note_on_c, 4, 43, 96
6, 573440, Note_off_c, 4, 43, 0
6, 573440, Note_on_c, 4, 45, 96
6, 573952, Note_off_c, 4, 45, 0
6, 573952, Note_on_c, 4, 46, 96
6, 574464, Note_off_c, 4, 46, 0
6, 574464, Note_on_c, 4, 48, 96
6, 575488, Note_off_c, 4, 48, 0
6, 575488, Note_on_c, 4, 36, 96
6, 576000, Note_off_c, 4, 36, 0
6, 576000, Note_on_c, 4, 48, 96
6, 577024, Note_off_c, 4, 48, 0
6, 577024, Note_on_c, 4, 46, 96
6, 577536, Note_off_c, 4, 46, 0
6, 577536, Note_on_c, 4, 45, 96
6, 578048, Note_off_c, 4, 45, 0
6, 578048, Note_on_c, 4, 46, 96
6, 578560, Note_off_c, 4, 46, 0
6, 578560, Note_on_c, 4, 48, 96
6, 579072, Note_off_c, 4, 48, 0
6, 579072, Note_on_c, 4, 41, 96
6, 579584, Note_off_c, 4, 41, 0
6, 579584, Note_on_c, 4, 43, 96
6, 580096, Note_off_c, 4, 43, 0
6, 580096, Note_on_c, 4, 45, 96
6, 580608, Note_off_c, 4, 45, 0
6, 580608, Note_on_c, 4, 46, 96
6, 581120, Note_off_c, 4, 46, 0
6, 581120, Note_on_c, 4, 50, 96
6, 581632, Note_off_c, 4, 50, 0
6, 581632, Note_on_c, 4, 53, 96
6, 582144, Note_off_c, 4, 53, 0
6, 582144, Note_on_c, 4, 58, 96
6, 583168, Note_off_c, 4, 58, 0
6, 583168, Note_on_c, 4, 46, 96
6, 583680, Note_off_c, 4, 46, 0
6, 583680, Note_on_c, 4, 41, 96
6, 584704, Note_off_c, 4, 41, 0
6, 584704, Note_on_c, 4, 53, 96
6, 585216, Note_off_c, 4, 53, 0
6, 585216, Note_on_c, 4, 50, 96
6, 585728, Note_off_c, 4, 50, 0
6, 587776, Note_on_c, 4, 55, 96
6, 588288, Note_off_c, 4, 55, 0
6, 588288, Note_on_c, 4, 48, 96
6, 589312, Note_off_c, 4, 48, 0
6, 589312, Note_on_c, 4, 53, 96
6, 589824, Note_off_c, 4, 53, 0
6, 589824, Note_on_c, 4, 46, 96
6, 590848, Note_off_c, 4, 46, 0
6, 590848, Note_on_c, 4, 58, 96
6, 591360, Note_off_c, 4, 58, 0
6, 591360, Note_on_c, 4, 55, 96
6, 591872, Note_off_c, 4, 55, 0
6, 593920, Note_on_c, 4, 48, 96
6, 594432, Note_off_c, 4, 48, 0
6, 594432, Note_on_c, 4, 50, 96
6, 595456, Note_off_c, 4, 50, 0
6, 595456, Note_on_c, 4, 38, 96
6, 595968, Note_off_c, 4, 38, 0
6, 595968, Note_on_c, 4, 43, 96
6, 596992, Note_off_c, 4, 43, 0
6, 596992, Note_on_c, 4, 55, 96
6, 597504, Note_off_c, 4, 55, 0
6, 597504, Note_on_c, 4, 52, 96
6, 598016, Note_off_c, 4, 52, 0
6, 600064, Note_on_c, 4, 57, 96
6, 600576, Note_off_c, 4, 57, 0
6, 600576, Note_on_c, 4, 50, 96
6, 601600, Note_off_c, 4, 50, 0
6, 601600, Note_on_c, 4, 55, 96
6, 602112, Note_off_c, 4, 55, 0
6, 602112, Note_on_c, 4, 48, 96
6, 603136, Note_off_c, 4, 48, 0
6, 603136, Note_on_c, 4, 60, 96
6, 603648, Note_off_c, 4, 60, 0
6, 603648, Note_on_c, 4, 57, 96
6, 604672, Note_off_c, 4, 57, 0
6, 606208, Note_on_c, 4, 50, 96
6, 606720, Note_off_c, 4, 50, 0
6, 606720, Note_on_c, 4, 52, 96
6, 607744, Note_off_c, 4, 52, 0
6, 607744, Note_on_c, 4, 40, 96
6, 608256, Note_off_c, 4, 40, 0
6, 608256, Note_on_c, 4, 45, 96
6, 608768, Note_off_c, 4, 45, 0
6, 608768, Note_on_c, 4, 47, 96
6, 609280, Note_off_c, 4, 47, 0
6, 609280, Note_on_c, 4, 49, 96
6, 609792, Note_off_c, 4, 49, 0
6, 609792, Note_on_c, 4, 50, 96
6, 612864, Note_off_c, 4, 50, 0
6, 612864, Note_on_c, 4, 49, 96
6, 614400, Note_off_c, 4, 49, 0
6, 614400, Note_on_c, 4, 50, 96
6, 614912, Note_off_c, 4, 50, 0
6, 614912, Note_on_c, 4, 52, 96
6, 615424, Note_off_c, 4, 52, 0
6, 615424, Note_on_c, 4, 53, 96
6, 615936, Note_off_c, 4, 53, 0
6, 615936, Note_on_c, 4, 55, 96
6, 616448, Note_off_c, 4, 55, 0
6, 616448, Note_on_c, 4, 57, 96
6, 616960, Note_off_c, 4, 57, 0
6, 616960, Note_on_c, 4, 58, 96
6, 617472, Note_off_c, 4, 58, 0
6, 617472, Note_on_c, 4, 48, 96
6, 617984, Note_off_c, 4, 48, 0
6, 617984, Note_on_c, 4, 50, 96
6, 618496, Note_off_c, 4, 50, 0
6, 618496, Note_on_c, 4, 52, 96
6, 619008, Note_off_c, 4, 52, 0
6, 619008, Note_on_c, 4, 53, 96
6, 619520, Note_off_c, 4, 53, 0
6, 619520, Note_on_c, 4, 55, 96
6, 620032, Note_off_c, 4, 55, 0
6, 620032, Note_on_c, 4, 57, 96
6, 620544, Note_off_c, 4, 57, 0
6, 620544, Note_on_c, 4, 46, 96
6, 621056, Note_off_c, 4, 46, 0
6, 621056, Note_on_c, 4, 48, 96
6, 621568, Note_off_c, 4, 48, 0
6, 621568, Note_on_c, 4, 50, 96
6, 622080, Note_off_c, 4, 50, 0
6, 622080, Note_on_c, 4, 52, 96
6, 622592, Note_off_c, 4, 52, 0
6, 622592, Note_on_c, 4, 53, 96
6, 623104, Note_off_c, 4, 53, 0
6, 623104, Note_on_c, 4, 55, 96
6, 623616, Note_off_c, 4, 55, 0
6, 623616, Note_on_c, 4, 45, 96
6, 624128, Note_off_c, 4, 45, 0
6, 624128, Note_on_c, 4, 46, 96
6, 624640, Note_off_c, 4, 46, 0
6, 624640, Note_on_c, 4, 48, 96
6, 625152, Note_off_c, 4, 48, 0
6, 625152, Note_on_c, 4, 50, 96
6, 625664, Note_off_c, 4, 50, 0
6, 625664, Note_on_c, 4, 52, 96
6, 626176, Note_off_c, 4, 52, 0
6, 626176, Note_on_c, 4, 53, 96
6, 626688, Note_off_c, 4, 53, 0
6, 626688, Note_on_c, 4, 43, 96
6, 627200, Note_off_c, 4, 43, 0
6, 627200, Note_on_c, 4, 45, 96
6, 627712, Note_off_c, 4, 45, 0
6, 627712, Note_on_c, 4, 46, 96
6, 628224, Note_off_c, 4, 46, 0
6, 628224, Note_on_c, 4, 48, 96
6, 628736, Note_off_c, 4, 48, 0
6, 628736, Note_on_c, 4, 50, 96
6, 629248, Note_off_c, 4, 50, 0
6, 629248, Note_on_c, 4, 52, 96
6, 629760, Note_off_c, 4, 52, 0
6, 629760, Note_on_c, 4, 53, 96
6, 630272, Note_off_c, 4, 53, 0
6, 630272, Note_on_c, 4, 55, 96
6, 630784, Note_off_c, 4, 55, 0
6, 630784, Note_on_c, 4, 57, 96
6, 631296, Note_off_c, 4, 57, 0
6, 631296, Note_on_c, 4, 50, 96
6, 631808, Note_off_c, 4, 50, 0
6, 631808, Note_on_c, 4, 52, 96
6, 632320, Note_off_c, 4, 52, 0
6, 632320, Note_on_c, 4, 53, 96
6, 632832, Note_off_c, 4, 53, 0
6, 632832, Note_on_c, 4, 46, 96
6, 633344, Note_off_c, 4, 46, 0
6, 633344, Note_on_c, 4, 48, 96
6, 633856, Note_off_c, 4, 48, 0
6, 633856, Note_on_c, 4, 50, 96
6, 634368, Note_off_c, 4, 50, 0
6, 634368, Note_on_c, 4, 43, 96
6, 634880, Note_off_c, 4, 43, 0
6, 634880, Note_on_c, 4, 45, 96
6, 635392, Note_off_c, 4, 45, 0
6, 635392, Note_on_c, 4, 46, 96
6, 635904, Note_off_c, 4, 46, 0
6, 635904, Note_on_c, 4, 48, 96
6, 636928, Note_off_c, 4, 48, 0
6, 636928, Note_on_c, 4, 36, 96
6, 637440, Note_off_c, 4, 36, 0
6, 637440, Note_on_c, 4, 48, 96
6, 638464, Note_off_c, 4, 48, 0
6, 638464, Note_on_c, 4, 46, 96
6, 638976, Note_off_c, 4, 46, 0
6, 638976, Note_on_c, 4, 45, 96
6, 639488, Note_off_c, 4, 45, 0
6, 639488, Note_on_c, 4, 46, 96
6, 640000, Note_off_c, 4, 46, 0
6, 640000, Note_on_c, 4, 48, 96
6, 640512, Note_off_c, 4, 48, 0
6, 640512, Note_on_c, 4, 41, 96
6, 641024, Note_off_c, 4, 41, 0
6, 641024, Note_on_c, 4, 43, 96
6, 641536, Note_off_c, 4, 43, 0
6, 641536, Note_on_c, 4, 45, 96
6, 642048, Note_off_c, 4, 45, 0
6, 642048, Note_on_c, 4, 46, 96
6, 642560, Note_off_c, 4, 46, 0
6, 642560, Note_on_c, 4, 50, 96
6, 643072, Note_off_c, 4, 50, 0
6, 643072, Note_on_c, 4, 53, 96
6, 643584, Note_off_c, 4, 53, 0
6, 643584, Note_on_c, 4, 58, 96
6, 644608, Note_off_c, 4, 58, 0
6, 644608, Note_on_c, 4, 46, 96
6, 645120, Note_off_c, 4, 46, 0
6, 645120, Note_on_c, 4, 41, 96
6, 646656, Note_off_c, 4, 41, 0
6, 646656, Note_on_c, 4, 53, 96
6, 649728, Note_off_c, 4, 53, 0
6, 649728, Note_on_c, 4, 52, 96
6, 651264, Note_off_c, 4, 52, 0
6, 651264, Note_on_c, 4, 53, 96
6, 652288, Note_off_c, 4, 53, 0
6, 652288, Note_on_c, 4, 41, 96
6, 652800, Note_off_c, 4, 41, 0
6, 652800, Note_on_c, 4, 53, 96
6, 653824, Note_off_c, 4, 53, 0
6, 653824, Note_on_c, 4, 41, 96
6, 654336, Note_off_c, 4, 41, 0
6, 654336, Note_on_c, 4, 53, 96
6, 655360, Note_off_c, 4, 53, 0
6, 655360, Note_on_c, 4, 41, 96
6, 655872, Note_off_c, 4, 41, 0
6, 655872, Note_on_c, 4, 53, 96
6, 656896, Note_off_c, 4, 53, 0
6, 656896, Note_on_c, 4, 41, 96
6, 657408, Note_off_c, 4, 41, 0
6, 657408, Note_on_c, 4, 53, 96
6, 658944, Note_off_c, 4, 53, 0
6, 658944, Note_on_c, 4, 52, 96
6, 660480, Note_off_c, 4, 52, 0
6, 660480, Note_on_c, 4, 50, 96
6, 662016, Note_off_c, 4, 50, 0
6, 662016, Note_on_c, 4, 55, 96
6, 663552, Note_off_c, 4, 55, 0
6, 663552, Note_on_c, 4, 48, 96
6, 664576, Note_off_c, 4, 48, 0
6, 664576, Note_on_c, 4, 36, 96
6, 665088, Note_off_c, 4, 36, 0
6, 665088, Note_on_c, 4, 48, 96
6, 666112, Note_off_c, 4, 48, 0
6, 666112, Note_on_c, 4, 36, 96
6, 666624, Note_off_c, 4, 36, 0
6, 666624, Note_on_c, 4, 48, 96
6, 667648, Note_off_c, 4, 48, 0
6, 667648, Note_on_c, 4, 36, 96
6, 668160, Note_off_c, 4, 36, 0
6, 668160, Note_on_c, 4, 48, 96
6, 669184, Note_off_c, 4, 48, 0
6, 669184, Note_on_c, 4, 36, 96
6, 669696, Note_off_c, 4, 36, 0
6, 669696, Note_on_c, 4, 48, 96
6, 670208, Note_off_c, 4, 48, 0
6, 670208, Note_on_c, 4, 50, 96
6, 670720, Note_off_c, 4, 50, 0
6, 670720, Note_on_c, 4, 52, 96
6, 671232, Note_off_c, 4, 52, 0
6, 671232, Note_on_c, 4, 52, 96
6, 671744, Note_off_c, 4, 52, 0
6, 671744, Note_on_c, 4, 48, 96
6, 672256, Note_off_c, 4, 48, 0
6, 672256, Note_on_c, 4, 53, 96
6, 672768, Note_off_c, 4, 53, 0
6, 672768, Note_on_c, 4, 52, 96
6, 673280, Note_off_c, 4, 52, 0
6, 673280, Note_on_c, 4, 48, 96
6, 673792, Note_off_c, 4, 48, 0
6, 673792, Note_on_c, 4, 53, 96
6, 674304, Note_off_c, 4, 53, 0
6, 674304, Note_on_c, 4, 52, 96
6, 674816, Note_off_c, 4, 52, 0
6, 674816, Note_on_c, 4, 50, 96
6, 675328, Note_off_c, 4, 50, 0
6, 675328, Note_on_c, 4, 49, 96
6, 675840, Note_off_c, 4, 49, 0
6, 675840, Note_on_c, 4, 50, 96
6, 676352, Note_off_c, 4, 50, 0
6, 676352, Note_on_c, 4, 48, 96
6, 676864, Note_off_c, 4, 48, 0
6, 676864, Note_on_c, 4, 46, 96
6, 677376, Note_off_c, 4, 46, 0
6, 677376, Note_on_c, 4, 45, 96
6, 677888, Note_off_c, 4, 45, 0
6, 677888, Note_on_c, 4, 53, 96
6, 678400, Note_off_c, 4, 53, 0
6, 678400, Note_on_c, 4, 46, 96
6, 678912, Note_off_c, 4, 46, 0
6, 678912, Note_on_c, 4, 45, 96
6, 679424, Note_off_c, 4, 45, 0
6, 679424, Note_on_c, 4, 53, 96
6, 679936, Note_off_c, 4, 53, 0
6, 679936, Note_on_c, 4, 46, 96
6, 680448, Note_off_c, 4, 46, 0
6, 680448, Note_on_c, 4, 45, 96
6, 680960, Note_off_c, 4, 45, 0
6, 680960, Note_on_c, 4, 53, 96
6, 681472, Note_off_c, 4, 53, 0
6, 681472, Note_on_c, 4, 46, 96
6, 681984, Note_off_c, 4, 46, 0
6, 681984, Note_on_c, 4, 43, 96
6, 682496, Note_off_c, 4, 43, 0
6, 682496, Note_on_c, 4, 41, 96
6, 683008, Note_off_c, 4, 41, 0
6, 683008, Note_on_c, 4, 40, 96
6, 683520, Note_off_c, 4, 40, 0
6, 683520, Note_on_c, 4, 41, 96
6, 684032, Note_off_c, 4, 41, 0
6, 684032, Note_on_c, 4, 53, 96
6, 684544, Note_off_c, 4, 53, 0
6, 684544, Note_on_c, 4, 52, 96
6, 685056, Note_off_c, 4, 52, 0
6, 685056, Note_on_c, 4, 41, 96
6, 685568, Note_off_c, 4, 41, 0
6, 685568, Note_on_c, 4, 53, 96
6, 686080, Note_off_c, 4, 53, 0
6, 686080, Note_on_c, 4, 52, 96
6, 686592, Note_off_c, 4, 52, 0
6, 686592, Note_on_c, 4, 53, 96
6, 687616, Note_off_c, 4, 53, 0
6, 687616, Note_on_c, 4, 41, 96
6, 688128, Note_off_c, 4, 41, 0
6, 688128, Note_on_c, 4, 48, 96
6, 688896, Note_off_c, 4, 48, 0
6, 688896, Note_on_c, 4, 46, 96
6, 689152, Note_off_c, 4, 46, 0
6, 689152, Note_on_c, 4, 45, 96
6, 689408, Note_off_c, 4, 45, 0
6, 689408, Note_on_c, 4, 43, 96
6, 689664, Note_off_c, 4, 43, 0
6, 689664, Note_on_c, 4, 41, 96
6, 692736, Note_off_c, 4, 41, 0
6, 692736, Note_on_c, 4, 40, 96
6, 694272, Note_off_c, 4, 40, 0
6, 694272, Note_on_c, 4, 41, 96
6, 694784, Note_off_c, 4, 41, 0
6, 694784, Note_on_c, 4, 53, 96
6, 695296, Note_off_c, 4, 53, 0
6, 695296, Note_on_c, 4, 46, 96
6, 695808, Note_off_c, 4, 46, 0
6, 695808, Note_on_c, 4, 48, 96
6, 696320, Note_off_c, 4, 48, 0
6, 696320, Note_on_c, 4, 46, 96
6, 696832, Note_off_c, 4, 46, 0
6, 696832, Note_on_c, 4, 45, 96
6, 697344, Note_off_c, 4, 45, 0
6, 697344, Note_on_c, 4, 46, 96
6, 697856, Note_off_c, 4, 46, 0
6, 697856, Note_on_c, 4, 45, 96
6, 698368, Note_off_c, 4, 45, 0
6, 698368, Note_on_c, 4, 43, 96
6, 698880, Note_off_c, 4, 43, 0
6, 698880, Note_on_c, 4, 45, 96
6, 699392, Note_off_c, 4, 45, 0
6, 699392, Note_on_c, 4, 43, 96
6, 699904, Note_off_c, 4, 43, 0
6, 699904, Note_on_c, 4, 41, 96
6, 700416, Note_off_c, 4, 41, 0
6, 700416, Note_on_c, 4, 43, 96
6, 700928, Note_off_c, 4, 43, 0
6, 700928, Note_on_c, 4, 41, 96
6, 701440, Note_off_c, 4, 41, 0
6, 701440, Note_on_c, 4, 40, 96
6, 701952, Note_off_c, 4, 40, 0
6, 701952, Note_on_c, 4, 41, 96
6, 702464, Note_off_c, 4, 41, 0
6, 702464, Note_on_c, 4, 40, 96
6, 702976, Note_off_c, 4, 40, 0
6, 702976, Note_on_c, 4, 38, 96
6, 703488, Note_off_c, 4, 38, 0
6, 703488, Note_on_c, 4, 36, 96
6, 704512, Note_off_c, 4, 36, 0
6, 704512, Note_on_c, 4, 48, 96
6, 705024, Note_off_c, 4, 48, 0
6, 705024, Note_on_c, 4, 36, 96
6, 706048, Note_off_c, 4, 36, 0
6, 706048, Note_on_c, 4, 48, 96
6, 706560, Note_off_c, 4, 48, 0
6, 706560, Note_on_c, 4, 36, 96
6, 707072, Note_off_c, 4, 36, 0
6, 707072, Note_on_c, 4, 48, 96
6, 708096, Note_off_c, 4, 48, 0
6, 708096, Note_on_c, 4, 36, 96
6, 708608, Note_off_c, 4, 36, 0
6, 708608, Note_on_c, 4, 48, 96
6, 709632, Note_off_c, 4, 48, 0
6, 709632, Note_on_c, 4, 36, 96
6, 710144, Note_off_c, 4, 36, 0
6, 710144, Note_on_c, 4, 48, 96
6, 711168, Note_off_c, 4, 48, 0
6, 711168, Note_on_c, 4, 36, 96
6, 711680, Note_off_c, 4, 36, 0
6, 711680, Note_on_c, 4, 48, 96
6, 712704, Note_off_c, 4, 48, 0
6, 712704, Note_on_c, 4, 41, 96
6, 713216, Note_off_c, 4, 41, 0
6, 713216, Note_on_c, 4, 53, 96
6, 713728, Note_off_c, 4, 53, 0
6, 713728, Note_on_c, 4, 52, 96
6, 714240, Note_off_c, 4, 52, 0
6, 714240, Note_on_c, 4, 50, 96
6, 714752, Note_off_c, 4, 50, 0
6, 714752, Note_on_c, 4, 58, 96
6, 715264, Note_off_c, 4, 58, 0
6, 715264, Note_on_c, 4, 55, 96
6, 715776, Note_off_c, 4, 55, 0
6, 715776, Note_on_c, 4, 60, 96
6, 716800, Note_off_c, 4, 60, 0
6, 716800, Note_on_c, 4, 58, 96
6, 717312, Note_off_c, 4, 58, 0
6, 717312, Note_on_c, 4, 60, 96
6, 718336, Note_off_c, 4, 60, 0
6, 718336, Note_on_c, 4, 48, 96
6, 718848, Note_off_c, 4, 48, 0
6, 718848, Note_on_c, 4, 53, 96
6, 719872, Note_off_c, 4, 53, 0
6, 719872, Note_on_c, 4, 41, 96
6, 720384, Note_off_c, 4, 41, 0
6, 720384, Note_on_c, 4, 53, 96
6, 721408, Note_off_c, 4, 53, 0
6, 721408, Note_on_c, 4, 41, 96
6, 721920, Note_off_c, 4, 41, 0
6, 721920, Note_on_c, 4, 53, 96
6, 722944, Note_off_c, 4, 53, 0
6, 722944, Note_on_c, 4, 41, 96
6, 723456, Note_off_c, 4, 41, 0
6, 723456, Note_on_c, 4, 53, 96
6, 724480, Note_off_c, 4, 53, 0
6, 724480, Note_on_c, 4, 41, 96
6, 724992, Note_off_c, 4, 41, 0
6, 724992, Note_on_c, 4, 53, 96
6, 728064, Note_off_c, 4, 53, 0
6, 731136, End_track
7, 0, Start_track
7, 0, Title_t, "Instrument 6"
7, 0, Program_c, 5, 0
7, 1024, Note_on_c, 5, 65, 96
7, 1536, Note_off_c, 5, 65, 0
7, 1536, Note_on_c, 5, 72, 96
7, 2560, Note_off_c, 5, 72, 0
7, 2560, Note_on_c, 5, 74, 96
7, 3072, Note_off_c, 5, 74, 0
7, 3072, Note_on_c, 5, 70, 96
7, 4096, Note_off_c, 5, 70, 0
7, 4096, Note_on_c, 5, 69, 96
7, 4608, Note_off_c, 5, 69, 0
7, 4608, Note_on_c, 5, 70, 96
7, 5120, Note_off_c, 5, 70, 0
7, 5120, Note_on_c, 5, 67, 96
7, 5632, Note_off_c, 5, 67, 0
7, 5632, Note_on_c, 5, 69, 96
7, 6144, Note_off_c, 5, 69, 0
7, 6144, Note_on_c, 5, 69, 96
7, 6400, Note_on_c, 5, 77, 96
7, 6400, Note_off_c, 5, 69, 0
7, 6400, Note_on_c, 5, 77, 96
7, 6656, Note_off_c, 5, 77, 0
7, 6656, Note_on_c, 5, 76, 96
7, 6656, Note_off_c, 5, 77, 0
7, 6656, Note_on_c, 5, 76, 96
7, 6912, Note_off_c, 5, 76, 0
7, 6912, Note_on_c, 5, 77, 96
7, 6912, Note_off_c, 5, 76, 0
7, 6912, Note_on_c, 5, 77, 96
7, 7168, Note_off_c, 5, 77, 0
7, 7168, Note_on_c, 5, 72, 96
7, 7168, Note_off_c, 5, 77, 0
7, 7168, Note_on_c, 5, 72, 96
7, 7168, Note_on_c, 5, 65, 96
7, 7168, Note_on_c, 5, 60, 96
7, 7168, Note_on_c, 5, 57, 96
7, 7424, Note_off_c, 5, 72, 0
7, 7424, Note_on_c, 5, 77, 96
7, 7424, Note_off_c, 5, 72, 0
7, 7424, Note_on_c, 5, 77, 96
7, 7680, Note_off_c, 5, 77, 0
7, 7680, Note_on_c, 5, 81, 96
7, 7680, Note_off_c, 5, 77, 0
7, 7680, Note_on_c, 5, 81, 96
7, 7680, Note_off_c, 5, 65, 0
7, 7680, Note_on_c, 5, 65, 96
7, 7680, Note_off_c, 5, 60, 0
7, 7680, Note_on_c, 5, 60, 96
7, 7680, Note_off_c, 5, 57, 0
7, 7680, Note_on_c, 5, 57, 96
7, 7936, Note_off_c, 5, 81, 0
7, 7936, Note_on_c, 5, 77, 96
7, 7936, Note_off_c, 5, 81, 0
7, 7936, Note_on_c, 5, 77, 96
7, 8192, Note_off_c, 5, 77, 0
7, 8192, Note_on_c, 5, 76, 96
7, 8192, Note_off_c, 5, 77, 0
7, 8192, Note_on_c, 5, 76, 96
7, 8192, Note_off_c, 5, 65, 0
7, 8192, Note_on_c, 5, 65, 96
7, 8192, Note_off_c, 5, 60, 0
7, 8192, Note_on_c, 5, 60, 96
7, 8192, Note_off_c, 5, 57, 0
7, 8192, Note_on_c, 5, 57, 96
7, 8448, Note_off_c, 5, 76, 0
7, 8448, Note_on_c, 5, 77, 96
7, 8448, Note_off_c, 5, 76, 0
7, 8448, Note_on_c, 5, 77, 96
7, 8704, Note_off_c, 5, 77, 0
7, 8704, Note_on_c, 5, 72, 96
7, 8704, Note_off_c, 5, 77, 0
7, 8704, Note_on_c, 5, 72, 96
7, 8704, Note_off_c, 5, 65, 0
7, 8704, Note_on_c, 5, 65, 96
7, 8704, Note_off_c, 5, 60, 0
7, 8704, Note_on_c, 5, 60, 96
7, 8704, Note_off_c, 5, 57, 0
7, 8704, Note_on_c, 5, 57, 96
7, 8960, Note_off_c, 5, 72, 0
7, 8960, Note_on_c, 5, 77, 96
7, 8960, Note_off_c, 5, 72, 0
7, 8960, Note_on_c, 5, 77, 96
7, 9216, Note_off_c, 5, 77, 0
7, 9216, Note_on_c, 5, 69, 96
7, 9216, Note_off_c, 5, 77, 0
7, 9216, Note_on_c, 5, 69, 96
7, 9216, Note_off_c, 5, 65, 0
7, 9216, Note_on_c, 5, 65, 96
7, 9216, Note_off_c, 5, 60, 0
7, 9216, Note_on_c, 5, 60, 96
7, 9216, Note_off_c, 5, 57, 0
7, 9216, Note_on_c, 5, 57, 96
7, 9472, Note_off_c, 5, 69, 0
7, 9472, Note_on_c, 5, 77, 96
7, 9472, Note_off_c, 5, 69, 0
7, 9472, Note_on_c, 5, 77, 96
7, 9728, Note_off_c, 5, 77, 0
7, 9728, Note_on_c, 5, 76, 96
7, 9728, Note_off_c, 5, 77, 0
7, 9728, Note_on_c, 5, 76, 96
7, 9728, Note_off_c, 5, 65, 0
7, 9728, Note_on_c, 5, 65, 96
7, 9728, Note_off_c, 5, 60, 0
7, 9728, Note_on_c, 5, 60, 96
7, 9728, Note_off_c, 5, 57, 0
7, 9728, Note_on_c, 5, 57, 96
7, 9984, Note_off_c, 5, 76, 0
7, 9984, Note_on_c, 5, 77, 96
7, 9984, Note_off_c, 5, 76, 0
7, 9984, Note_on_c, 5, 77, 96
7, 10240, Note_off_c, 5, 77, 0
7, 10240, Note_on_c, 5, 72, 96
7, 10240, Note_off_c, 5, 77, 0
7, 10240, Note_on_c, 5, 72, 96
7, 10240, Note_off_c, 5, 65, 0
7, 10240, Note_on_c, 5, 65, 96
7, 10240, Note_off_c, 5, 60, 0
7, 10240, Note_on_c, 5, 60, 96
7, 10240, Note_off_c, 5, 57, 0
7, 10240, Note_on_c, 5, 57, 96
7, 10496, Note_off_c, 5, 72, 0
7, 10496, Note_on_c, 5, 77, 96
7, 10496, Note_off_c, 5, 72, 0
7, 10496, Note_on_c, 5, 77, 96
7, 10752, Note_off_c, 5, 77, 0
7, 10752, Note_on_c, 5, 81, 96
7, 10752, Note_off_c, 5, 77, 0
7, 10752, Note_on_c, 5, 81, 96
7, 10752, Note_off_c, 5, 65, 0
7, 10752, Note_on_c, 5, 65, 96
7, 10752, Note_off_c, 5, 60, 0
7, 10752, Note_on_c, 5, 60, 96
7, 10752, Note_off_c, 5, 57, 0
7, 10752, Note_on_c, 5, 57, 96
7, 11008, Note_off_c, 5, 81, 0
7, 11008, Note_on_c, 5, 77, 96
7, 11008, Note_off_c, 5, 81, 0
7, 11008, Note_on_c, 5, 77, 96
7, 11264, Note_off_c, 5, 77, 0
7, 11264, Note_on_c, 5, 76, 96
7, 11264, Note_off_c, 5, 77, 0
7, 11264, Note_on_c, 5, 76, 96
7, 11264, Note_off_c, 5, 65, 0
7, 11264, Note_on_c, 5, 65, 96
7, 11264, Note_off_c, 5, 60, 0
7, 11264, Note_on_c, 5, 60, 96
7, 11264, Note_off_c, 5, 57, 0
7, 11264, Note_on_c, 5, 57, 96
7, 11520, Note_off_c, 5, 76, 0
7, 11520, Note_on_c, 5, 77, 96
7, 11520, Note_off_c, 5, 76, 0
7, 11520, Note_on_c, 5, 77, 96
7, 11776, Note_off_c, 5, 77, 0
7, 11776, Note_on_c, 5, 72, 96
7, 11776, Note_off_c, 5, 77, 0
7, 11776, Note_on_c, 5, 72, 96
7, 11776, Note_off_c, 5, 65, 0
7, 11776, Note_on_c, 5, 65, 96
7, 11776, Note_off_c, 5, 60, 0
7, 11776, Note_on_c, 5, 60, 96
7, 11776, Note_off_c, 5, 57, 0
7, 11776, Note_on_c, 5, 57, 96
7, 12032, Note_off_c, 5, 72, 0
7, 12032, Note_on_c, 5, 77, 96
7, 12032, Note_off_c, 5, 72, 0
7, 12032, Note_on_c, 5, 77, 96
7, 12288, Note_off_c, 5, 77, 0
7, 12288, Note_off_c, 5, 77, 0
7, 12288, Note_off_c, 5, 65, 0
7, 12288, Note_off_c, 5, 60, 0
7, 12288, Note_off_c, 5, 57, 0
7, 12288, Note_on_c, 5, 69, 96
7, 12288, Note_on_c, 5, 69, 96
7, 12288, Note_on_c, 5, 65, 96
7, 12288, Note_on_c, 5, 60, 96
7, 12288, Note_on_c, 5, 57, 96
7, 12800, Note_off_c, 5, 69, 0
7, 12800, Note_on_c, 5, 65, 96
7, 13056, Note_off_c, 5, 65, 0
7, 13056, Note_on_c, 5, 67, 96
7, 13312, Note_off_c, 5, 69, 0
7, 13312, Note_on_c, 5, 72, 96
7, 13312, Note_off_c, 5, 67, 0
7, 13312, Note_on_c, 5, 69, 96
7, 13312, Note_off_c, 5, 65, 0
7, 13312, Note_off_c, 5, 60, 0
7, 13312, Note_off_c, 5, 57, 0
7, 13568, Note_off_c, 5, 69, 0
7, 13568, Note_on_c, 5, 71, 96
7, 13824, Note_off_c, 5, 72, 0
7, 13824, Note_on_c, 5, 79, 96
7, 13824, Note_off_c, 5, 71, 0
7, 13824, Note_on_c, 5, 72, 96
7, 14848, Note_off_c, 5, 79, 0
7, 14848, Note_on_c, 5, 81, 96
7, 15360, Note_off_c, 5, 81, 0
7, 15360, Note_on_c, 5, 77, 96
7, 16384, Note_off_c, 5, 77, 0
7, 16384, Note_on_c, 5, 76, 96
7, 16896, Note_off_c, 5, 76, 0
7, 16896, Note_on_c, 5, 77, 96
7, 16896, Note_off_c, 5, 72, 0
7, 16896, Note_on_c, 5, 71, 96
7, 17408, Note_off_c, 5, 77, 0
7, 17408, Note_on_c, 5, 74, 96
7, 17920, Note_off_c, 5, 74, 0
7, 17920, Note_on_c, 5, 76, 96
7, 18432, Note_off_c, 5, 76, 0
7, 18432, Note_off_c, 5, 71, 0
7, 18432, Note_on_c, 5, 76, 96
7, 18432, Note_on_c, 5, 72, 96
7, 18688, Note_off_c, 5, 76, 0
7, 18688, Note_on_c, 5, 72, 96
7, 18688, Note_off_c, 5, 72, 0
7, 18688, Note_on_c, 5, 72, 96
7, 18944, Note_off_c, 5, 72, 0
7, 18944, Note_on_c, 5, 71, 96
7, 18944, Note_off_c, 5, 72, 0
7, 18944, Note_on_c, 5, 71, 96
7, 19200, Note_off_c, 5, 71, 0
7, 19200, Note_on_c, 5, 72, 96
7, 19200, Note_off_c, 5, 71, 0
7, 19200, Note_on_c, 5, 72, 96
7, 19456, Note_off_c, 5, 72, 0
7, 19456, Note_on_c, 5, 67, 96
7, 19456, Note_off_c, 5, 72, 0
7, 19456, Note_on_c, 5, 67, 96
7, 19456, Note_on_c, 5, 60, 96
7, 19456, Note_on_c, 5, 55, 96
7, 19456, Note_on_c, 5, 52, 96
7, 19712, Note_off_c, 5, 67, 0
7, 19712, Note_on_c, 5, 72, 96
7, 19712, Note_off_c, 5, 67, 0
7, 19712, Note_on_c, 5, 72, 96
7, 19968, Note_off_c, 5, 72, 0
7, 19968, Note_on_c, 5, 76, 96
7, 19968, Note_off_c, 5, 72, 0
7, 19968, Note_on_c, 5, 76, 96
7, 19968, Note_off_c, 5, 60, 0
7, 19968, Note_on_c, 5, 60, 96
7, 19968, Note_off_c, 5, 55, 0
7, 19968, Note_on_c, 5, 55, 96
7, 19968, Note_off_c, 5, 52, 0
7, 19968, Note_on_c, 5, 52, 96
7, 20224, Note_off_c, 5, 76, 0
7, 20224, Note_on_c, 5, 72, 96
7, 20224, Note_off_c, 5, 76, 0
7, 20224, Note_on_c, 5, 72, 96
7, 20480, Note_off_c, 5, 72, 0
7, 20480, Note_on_c, 5, 71, 96
7, 20480, Note_off_c, 5, 72, 0
7, 20480, Note_on_c, 5, 71, 96
7, 20480, Note_off_c, 5, 60, 0
7, 20480, Note_on_c, 5, 60, 96
7, 20480, Note_off_c, 5, 55, 0
7, 20480, Note_on_c, 5, 55, 96
7, 20480, Note_off_c, 5, 52, 0
7, 20480, Note_on_c, 5, 52, 96
7, 20736, Note_off_c, 5, 71, 0
7, 20736, Note_on_c, 5, 72, 96
7, 20736, Note_off_c, 5, 71, 0
7, 20736, Note_on_c, 5, 72, 96
7, 20992, Note_off_c, 5, 72, 0
7, 20992, Note_on_c, 5, 67, 96
7, 20992, Note_off_c, 5, 72, 0
7, 20992, Note_on_c, 5, 67, 96
7, 20992, Note_off_c, 5, 60, 0
7, 20992, Note_on_c, 5, 60, 96
7, 20992, Note_off_c, 5, 55, 0
7, 20992, Note_on_c, 5, 55, 96
7, 20992, Note_off_c, 5, 52, 0
7, 20992, Note_on_c, 5, 52, 96
7, 21248, Note_off_c, 5, 67, 0
7, 21248, Note_on_c, 5, 72, 96
7, 21248, Note_off_c, 5, 67, 0
7, 21248, Note_on_c, 5, 72, 96
7, 21504, Note_off_c, 5, 72, 0
7, 21504, Note_on_c, 5, 64, 96
7, 21504, Note_off_c, 5, 72, 0
7, 21504, Note_on_c, 5, 64, 96
7, 21504, Note_off_c, 5, 60, 0
7, 21504, Note_on_c, 5, 60, 96
7, 21504, Note_off_c, 5, 55, 0
7, 21504, Note_on_c, 5, 55, 96
7, 21504, Note_off_c, 5, 52, 0
7, 21504, Note_on_c, 5, 52, 96
7, 21760, Note_off_c, 5, 64, 0
7, 21760, Note_on_c, 5, 72, 96
7, 21760, Note_off_c, 5, 64, 0
7, 21760, Note_on_c, 5, 72, 96
7, 22016, Note_off_c, 5, 72, 0
7, 22016, Note_on_c, 5, 71, 96
7, 22016, Note_off_c, 5, 72, 0
7, 22016, Note_on_c, 5, 71, 96
7, 22016, Note_off_c, 5, 60, 0
7, 22016, Note_on_c, 5, 60, 96
7, 22016, Note_off_c, 5, 55, 0
7, 22016, Note_on_c, 5, 55, 96
7, 22016, Note_off_c, 5, 52, 0
7, 22016, Note_on_c, 5, 52, 96
7, 22272, Note_off_c, 5, 71, 0
7, 22272, Note_on_c, 5, 72, 96
7, 22272, Note_off_c, 5, 71, 0
7, 22272, Note_on_c, 5, 72, 96
7, 22528, Note_off_c, 5, 72, 0
7, 22528, Note_on_c, 5, 67, 96
7, 22528, Note_off_c, 5, 72, 0
7, 22528, Note_on_c, 5, 67, 96
7, 22528, Note_off_c, 5, 60, 0
7, 22528, Note_on_c, 5, 60, 96
7, 22528, Note_off_c, 5, 55, 0
7, 22528, Note_on_c, 5, 55, 96
7, 22528, Note_off_c, 5, 52, 0
7, 22528, Note_on_c, 5, 52, 96
7, 22784, Note_off_c, 5, 67, 0
7, 22784, Note_on_c, 5, 72, 96
7, 22784, Note_off_c, 5, 67, 0
7, 22784, Note_on_c, 5, 72, 96
7, 23040, Note_off_c, 5, 72, 0
7, 23040, Note_on_c, 5, 76, 96
7, 23040, Note_off_c, 5, 72, 0
7, 23040, Note_on_c, 5, 76, 96
7, 23040, Note_off_c, 5, 60, 0
7, 23040, Note_on_c, 5, 60, 96
7, 23040, Note_off_c, 5, 55, 0
7, 23040, Note_on_c, 5, 55, 96
7, 23040, Note_off_c, 5, 52, 0
7, 23040, Note_on_c, 5, 52, 96
7, 23296, Note_off_c, 5, 76, 0
7, 23296, Note_on_c, 5, 72, 96
7, 23296, Note_off_c, 5, 76, 0
7, 23296, Note_on_c, 5, 72, 96
7, 23552, Note_off_c, 5, 72, 0
7, 23552, Note_on_c, 5, 71, 96
7, 23552, Note_off_c, 5, 72, 0
7, 23552, Note_on_c, 5, 71, 96
7, 23552, Note_off_c, 5, 60, 0
7, 23552, Note_on_c, 5, 60, 96
7, 23552, Note_off_c, 5, 55, 0
7, 23552, Note_on_c, 5, 55, 96
7, 23552, Note_off_c, 5, 52, 0
7, 23552, Note_on_c, 5, 52, 96
7, 23808, Note_off_c, 5, 71, 0
7, 23808, Note_on_c, 5, 72, 96
7, 23808, Note_off_c, 5, 71, 0
7, 23808, Note_on_c, 5, 72, 96
7, 24064, Note_off_c, 5, 72, 0
7, 24064, Note_on_c, 5, 67, 96
7, 24064, Note_off_c, 5, 72, 0
7, 24064, Note_on_c, 5, 67, 96
7, 24064, Note_off_c, 5, 60, 0
7, 24064, Note_on_c, 5, 60, 96
7, 24064, Note_off_c, 5, 55, 0
7, 24064, Note_on_c, 5, 55, 96
7, 24064, Note_off_c, 5, 52, 0
7, 24064, Note_on_c, 5, 52, 96
7, 24320, Note_off_c, 5, 67, 0
7, 24320, Note_on_c, 5, 72, 96
7, 24320, Note_off_c, 5, 67, 0
7, 24320, Note_on_c, 5, 72, 96
7, 24576, Note_off_c, 5, 72, 0
7, 24576, Note_off_c, 5, 72, 0
7, 24576, Note_off_c, 5, 60, 0
7, 24576, Note_off_c, 5, 55, 0
7, 24576, Note_off_c, 5, 52, 0
7, 24576, Note_on_c, 5, 64, 96
7, 24576, Note_on_c, 5, 64, 96
7, 24576, Note_on_c, 5, 60, 96
7, 24576, Note_on_c, 5, 55, 96
7, 24576, Note_on_c, 5, 52, 96
7, 25600, Note_off_c, 5, 64, 0
7, 25600, Note_off_c, 5, 64, 0
7, 25600, Note_off_c, 5, 60, 0
7, 25600, Note_off_c, 5, 55, 0
7, 25600, Note_off_c, 5, 52, 0
7, 30208, Note_on_c, 5, 76, 96
7, 30208, Note_on_c, 5, 76, 96
7, 30208, Note_on_c, 5, 76, 96
7, 30208, Note_on_c, 5, 69, 96
7, 30208, Note_on_c, 5, 64, 96
7, 30720, Note_off_c, 5, 76, 0
7, 30720, Note_off_c, 5, 76, 0
7, 30720, Note_off_c, 5, 76, 0
7, 30720, Note_off_c, 5, 69, 0
7, 30720, Note_off_c, 5, 64, 0
7, 30720, Note_on_c, 5, 77, 96
7, 30720, Note_on_c, 5, 77, 96
7, 30720, Note_on_c, 5, 77, 96
7, 30720, Note_on_c, 5, 69, 96
7, 30720, Note_on_c, 5, 62, 96
7, 31744, Note_off_c, 5, 77, 0
7, 31744, Note_off_c, 5, 77, 0
7, 31744, Note_off_c, 5, 77, 0
7, 31744, Note_off_c, 5, 69, 0
7, 31744, Note_off_c, 5, 62, 0
7, 36352, Note_on_c, 5, 78, 96
7, 36352, Note_on_c, 5, 78, 96
7, 36352, Note_on_c, 5, 78, 96
7, 36352, Note_on_c, 5, 74, 96
7, 36352, Note_on_c, 5, 69, 96
7, 36864, Note_off_c, 5, 78, 0
7, 36864, Note_off_c, 5, 78, 0
7, 36864, Note_off_c, 5, 78, 0
7, 36864, Note_off_c, 5, 74, 0
7, 36864, Note_off_c, 5, 69, 0
7, 36864, Note_on_c, 5, 79, 96
7, 36864, Note_on_c, 5, 79, 96
7, 36864, Note_on_c, 5, 79, 96
7, 36864, Note_on_c, 5, 74, 96
7, 36864, Note_on_c, 5, 70, 96
7, 37888, Note_off_c, 5, 79, 0
7, 37888, Note_on_c, 5, 84, 96
7, 37888, Note_off_c, 5, 79, 0
7, 37888, Note_on_c, 5, 72, 96
7, 37888, Note_off_c, 5, 79, 0
7, 37888, Note_off_c, 5, 74, 0
7, 37888, Note_off_c, 5, 70, 0
7, 38400, Note_off_c, 5, 84, 0
7, 38400, Note_on_c, 5, 81, 96
7, 38400, Note_off_c, 5, 72, 0
7, 38400, Note_on_c, 5, 77, 96
7, 38912, Note_off_c, 5, 81, 0
7, 38912, Note_on_c, 5, 84, 96
7, 38912, Note_off_c, 5, 77, 0
7, 38912, Note_on_c, 5, 81, 96
7, 39424, Note_off_c, 5, 84, 0
7, 39424, Note_on_c, 5, 82, 96
7, 39424, Note_off_c, 5, 81, 0
7, 39424, Note_on_c, 5, 79, 96
7, 39936, Note_off_c, 5, 82, 0
7, 39936, Note_on_c, 5, 81, 96
7, 39936, Note_off_c, 5, 79, 0
7, 39936, Note_on_c, 5, 77, 96
7, 40448, Note_off_c, 5, 81, 0
7, 40448, Note_on_c, 5, 84, 96
7, 40448, Note_off_c, 5, 77, 0
7, 40448, Note_on_c, 5, 81, 96
7, 40960, Note_off_c, 5, 84, 0
7, 40960, Note_on_c, 5, 82, 96
7, 40960, Note_off_c, 5, 81, 0
7, 40960, Note_on_c, 5, 79, 96
7, 41472, Note_off_c, 5, 82, 0
7, 41472, Note_on_c, 5, 81, 96
7, 41472, Note_off_c, 5, 79, 0
7, 41472, Note_on_c, 5, 77, 96
7, 41984, Note_off_c, 5, 81, 0
7, 41984, Note_on_c, 5, 82, 96
7, 41984, Note_off_c, 5, 77, 0
7, 41984, Note_on_c, 5, 79, 96
7, 42240, Note_off_c, 5, 82, 0
7, 42240, Note_on_c, 5, 81, 96
7, 42240, Note_off_c, 5, 79, 0
7, 42240, Note_on_c, 5, 77, 96
7, 42496, Note_off_c, 5, 81, 0
7, 42496, Note_on_c, 5, 79, 96
7, 42496, Note_off_c, 5, 77, 0
7, 42496, Note_on_c, 5, 76, 96
7, 42496, Note_on_c, 5, 81, 96
7, 42496, Note_on_c, 5, 72, 96
7, 42496, Note_on_c, 5, 69, 96
7, 42752, Note_off_c, 5, 79, 0
7, 42752, Note_on_c, 5, 77, 96
7, 42752, Note_off_c, 5, 76, 0
7, 42752, Note_on_c, 5, 74, 96
7, 43008, Note_off_c, 5, 77, 0
7, 43008, Note_off_c, 5, 74, 0
7, 43008, Note_off_c, 5, 81, 0
7, 43008, Note_off_c, 5, 72, 0
7, 43008, Note_off_c, 5, 69, 0
7, 43008, Note_on_c, 5, 79, 96
7, 43008, Note_on_c, 5, 76, 96
7, 43008, Note_on_c, 5, 84, 96
7, 43008, Note_on_c, 5, 76, 96
7, 43008, Note_on_c, 5, 67, 96
7, 43264, Note_off_c, 5, 79, 0
7, 43264, Note_on_c, 5, 76, 96
7, 43264, Note_off_c, 5, 76, 0
7, 43264, Note_on_c, 5, 76, 96
7, 43520, Note_off_c, 5, 76, 0
7, 43520, Note_on_c, 5, 77, 96
7, 43520, Note_off_c, 5, 76, 0
7, 43520, Note_on_c, 5, 77, 96
7, 43776, Note_off_c, 5, 77, 0
7, 43776, Note_on_c, 5, 79, 96
7, 43776, Note_off_c, 5, 77, 0
7, 43776, Note_on_c, 5, 79, 96
7, 44032, Note_off_c, 5, 79, 0
7, 44032, Note_on_c, 5, 81, 96
7, 44032, Note_off_c, 5, 79, 0
7, 44032, Note_on_c, 5, 81, 96
7, 44032, Note_off_c, 5, 84, 0
7, 44032, Note_on_c, 5, 77, 96
7, 44032, Note_off_c, 5, 76, 0
7, 44032, Note_on_c, 5, 77, 96
7, 44032, Note_off_c, 5, 67, 0
7, 44032, Note_on_c, 5, 65, 96
7, 44288, Note_off_c, 5, 81, 0
7, 44288, Note_on_c, 5, 82, 96
7, 44288, Note_off_c, 5, 81, 0
7, 44288, Note_on_c, 5, 82, 96
7, 44544, Note_off_c, 5, 82, 0
7, 44544, Note_on_c, 5, 84, 96
7, 44544, Note_off_c, 5, 82, 0
7, 44544, Note_on_c, 5, 84, 96
7, 44544, Note_off_c, 5, 77, 0
7, 44544, Note_on_c, 5, 84, 96
7, 44544, Note_off_c, 5, 77, 0
7, 44544, Note_on_c, 5, 81, 96
7, 44544, Note_off_c, 5, 65, 0
7, 44544, Note_on_c, 5, 65, 96
7, 45568, Note_off_c, 5, 84, 0
7, 45568, Note_on_c, 5, 86, 96
7, 45568, Note_off_c, 5, 84, 0
7, 45568, Note_on_c, 5, 86, 96
7, 45568, Note_off_c, 5, 84, 0
7, 45568, Note_on_c, 5, 86, 96
7, 45568, Note_off_c, 5, 81, 0
7, 45568, Note_on_c, 5, 82, 96
7, 45568, Note_off_c, 5, 65, 0
7, 45568, Note_on_c, 5, 62, 96
7, 46080, Note_off_c, 5, 86, 0
7, 46080, Note_on_c, 5, 82, 96
7, 46080, Note_off_c, 5, 86, 0
7, 46080, Note_on_c, 5, 82, 96
7, 46080, Note_off_c, 5, 86, 0
7, 46080, Note_on_c, 5, 82, 96
7, 46080, Note_off_c, 5, 82, 0
7, 46080, Note_on_c, 5, 79, 96
7, 46080, Note_off_c, 5, 62, 0
7, 46080, Note_on_c, 5, 64, 96
7, 47104, Note_off_c, 5, 82, 0
7, 47104, Note_on_c, 5, 81, 96
7, 47104, Note_off_c, 5, 82, 0
7, 47104, Note_on_c, 5, 81, 96
7, 47104, Note_off_c, 5, 82, 0
7, 47104, Note_on_c, 5, 81, 96
7, 47104, Note_off_c, 5, 79, 0
7, 47104, Note_on_c, 5, 77, 96
7, 47104, Note_off_c, 5, 64, 0
7, 47104, Note_on_c, 5, 60, 96
7, 47616, Note_off_c, 5, 81, 0
7, 47616, Note_on_c, 5, 82, 96
7, 47616, Note_off_c, 5, 81, 0
7, 47616, Note_on_c, 5, 82, 96
7, 47616, Note_off_c, 5, 81, 0
7, 47616, Note_on_c, 5, 82, 96
7, 47616, Note_off_c, 5, 77, 0
7, 47616, Note_on_c, 5, 79, 96
7, 47616, Note_off_c, 5, 60, 0
7, 47616, Note_on_c, 5, 72, 96
7, 48128, Note_off_c, 5, 82, 0
7, 48128, Note_on_c, 5, 79, 96
7, 48128, Note_off_c, 5, 82, 0
7, 48128, Note_on_c, 5, 79, 96
7, 48128, Note_off_c, 5, 82, 0
7, 48128, Note_on_c, 5, 79, 96
7, 48128, Note_off_c, 5, 79, 0
7, 48128, Note_on_c, 5, 72, 96
7, 48640, Note_off_c, 5, 79, 0
7, 48640, Note_on_c, 5, 81, 96
7, 48640, Note_off_c, 5, 79, 0
7, 48640, Note_on_c, 5, 81, 96
7, 48640, Note_off_c, 5, 79, 0
7, 48640, Note_on_c, 5, 81, 96
7, 48640, Note_off_c, 5, 72, 0
7, 48640, Note_on_c, 5, 77, 96
7, 48640, Note_off_c, 5, 72, 0
7, 48640, Note_on_c, 5, 60, 96
7, 49152, Note_off_c, 5, 81, 0
7, 49152, Note_off_c, 5, 81, 0
7, 49152, Note_off_c, 5, 81, 0
7, 49152, Note_off_c, 5, 77, 0
7, 49152, Note_off_c, 5, 60, 0
7, 49152, Note_on_c, 5, 81, 96
7, 49152, Note_on_c, 5, 81, 96
7, 49152, Note_on_c, 5, 81, 96
7, 49152, Note_on_c, 5, 77, 96
7, 49152, Note_on_c, 5, 72, 96
7, 49664, Note_off_c, 5, 81, 0
7, 49664, Note_on_c, 5, 86, 96
7, 49664, Note_off_c, 5, 81, 0
7, 49664, Note_on_c, 5, 86, 96
7, 49664, Note_off_c, 5, 72, 0
7, 49664, Note_on_c, 5, 69, 96
7, 49920, Note_off_c, 5, 86, 0
7, 49920, Note_on_c, 5, 84, 96
7, 49920, Note_off_c, 5, 86, 0
7, 49920, Note_on_c, 5, 84, 96
7, 50176, Note_off_c, 5, 84, 0
7, 50176, Note_on_c, 5, 86, 96
7, 50176, Note_off_c, 5, 81, 0
7, 50176, Note_on_c, 5, 77, 96
7, 50176, Note_off_c, 5, 84, 0
7, 50176, Note_on_c, 5, 86, 96
7, 50176, Note_off_c, 5, 77, 0
7, 50176, Note_on_c, 5, 77, 96
7, 50176, Note_off_c, 5, 69, 0
7, 50176, Note_on_c, 5, 65, 96
7, 50688, Note_off_c, 5, 86, 0
7, 50688, Note_on_c, 5, 79, 96
7, 50688, Note_off_c, 5, 77, 0
7, 50688, Note_on_c, 5, 76, 96
7, 50688, Note_off_c, 5, 86, 0
7, 50688, Note_on_c, 5, 79, 96
7, 50688, Note_off_c, 5, 77, 0
7, 50688, Note_on_c, 5, 76, 96
7, 50688, Note_off_c, 5, 65, 0
7, 50688, Note_on_c, 5, 72, 96
7, 51200, Note_off_c, 5, 79, 0
7, 51200, Note_on_c, 5, 84, 96
7, 51200, Note_off_c, 5, 76, 0
7, 51200, Note_on_c, 5, 81, 96
7, 51200, Note_off_c, 5, 79, 0
7, 51200, Note_on_c, 5, 84, 96
7, 51200, Note_off_c, 5, 76, 0
7, 51200, Note_on_c, 5, 81, 96
7, 51456, Note_off_c, 5, 81, 0
7, 51456, Note_on_c, 5, 79, 96
7, 51456, Note_off_c, 5, 81, 0
7, 51456, Note_on_c, 5, 79, 96
7, 51712, Note_off_c, 5, 84, 0
7, 51712, Note_off_c, 5, 79, 0
7, 51712, Note_on_c, 5, 81, 96
7, 51712, Note_off_c, 5, 84, 0
7, 51712, Note_off_c, 5, 79, 0
7, 51712, Note_on_c, 5, 81, 96
7, 51712, Note_off_c, 5, 72, 0
7, 51712, Note_on_c, 5, 65, 96
7, 52224, Note_on_c, 5, 77, 96
7, 52224, Note_off_c, 5, 81, 0
7, 52224, Note_on_c, 5, 74, 96
7, 52224, Note_on_c, 5, 77, 96
7, 52224, Note_off_c, 5, 81, 0
7, 52224, Note_on_c, 5, 74, 96
7, 52224, Note_off_c, 5, 65, 0
7, 52224, Note_on_c, 5, 70, 96
7, 52736, Note_off_c, 5, 77, 0
7, 52736, Note_on_c, 5, 82, 96
7, 52736, Note_off_c, 5, 74, 0
7, 52736, Note_on_c, 5, 79, 96
7, 52736, Note_off_c, 5, 77, 0
7, 52736, Note_on_c, 5, 82, 96
7, 52736, Note_off_c, 5, 74, 0
7, 52736, Note_on_c, 5, 79, 96
7, 52992, Note_off_c, 5, 82, 0
7, 52992, Note_on_c, 5, 81, 96
7, 52992, Note_off_c, 5, 82, 0
7, 52992, Note_on_c, 5, 81, 96
7, 53248, Note_off_c, 5, 81, 0
7, 53248, Note_on_c, 5, 82, 96
7, 53248, Note_off_c, 5, 79, 0
7, 53248, Note_off_c, 5, 81, 0
7, 53248, Note_on_c, 5, 82, 96
7, 53248, Note_off_c, 5, 79, 0
7, 53248, Note_off_c, 5, 70, 0
7, 53248, Note_on_c, 5, 64, 96
7, 53760, Note_off_c, 5, 82, 0
7, 53760, Note_on_c, 5, 76, 96
7, 53760, Note_on_c, 5, 72, 96
7, 53760, Note_off_c, 5, 82, 0
7, 53760, Note_on_c, 5, 76, 96
7, 53760, Note_on_c, 5, 72, 96
7, 53760, Note_off_c, 5, 64, 0
7, 53760, Note_on_c, 5, 69, 96
7, 54272, Note_off_c, 5, 76, 0
7, 54272, Note_on_c, 5, 81, 96
7, 54272, Note_off_c, 5, 72, 0
7, 54272, Note_on_c, 5, 77, 96
7, 54272, Note_off_c, 5, 76, 0
7, 54272, Note_on_c, 5, 81, 96
7, 54272, Note_off_c, 5, 72, 0
7, 54272, Note_on_c, 5, 77, 96
7, 54528, Note_off_c, 5, 77, 0
7, 54528, Note_on_c, 5, 76, 96
7, 54528, Note_off_c, 5, 77, 0
7, 54528, Note_on_c, 5, 76, 96
7, 54784, Note_off_c, 5, 81, 0
7, 54784, Note_off_c, 5, 76, 0
7, 54784, Note_on_c, 5, 77, 96
7, 54784, Note_off_c, 5, 81, 0
7, 54784, Note_off_c, 5, 76, 0
7, 54784, Note_on_c, 5, 77, 96
7, 54784, Note_off_c, 5, 69, 0
7, 54784, Note_on_c, 5, 62, 96
7, 55296, Note_off_c, 5, 77, 0
7, 55296, Note_off_c, 5, 77, 0
7, 55296, Note_off_c, 5, 62, 0
7, 55296, Note_on_c, 5, 74, 96
7, 55296, Note_on_c, 5, 70, 96
7, 55296, Note_on_c, 5, 74, 96
7, 55296, Note_on_c, 5, 70, 96
7, 55296, Note_on_c, 5, 67, 96
7, 55808, Note_off_c, 5, 74, 0
7, 55808, Note_on_c, 5, 79, 96
7, 55808, Note_off_c, 5, 70, 0
7, 55808, Note_on_c, 5, 76, 96
7, 55808, Note_off_c, 5, 74, 0
7, 55808, Note_on_c, 5, 79, 96
7, 55808, Note_off_c, 5, 70, 0
7, 55808, Note_on_c, 5, 76, 96
7, 56064, Note_off_c, 5, 79, 0
7, 56064, Note_on_c, 5, 77, 96
7, 56064, Note_off_c, 5, 79, 0
7, 56064, Note_on_c, 5, 77, 96
7, 56320, Note_off_c, 5, 77, 0
7, 56320, Note_on_c, 5, 79, 96
7, 56320, Note_off_c, 5, 76, 0
7, 56320, Note_off_c, 5, 77, 0
7, 56320, Note_on_c, 5, 79, 96
7, 56320, Note_off_c, 5, 76, 0
7, 56320, Note_off_c, 5, 67, 0
7, 56320, Note_on_c, 5, 60, 96
7, 56832, Note_off_c, 5, 79, 0
7, 56832, Note_on_c, 5, 72, 96
7, 56832, Note_on_c, 5, 69, 96
7, 56832, Note_off_c, 5, 79, 0
7, 56832, Note_on_c, 5, 72, 96
7, 56832, Note_on_c, 5, 69, 96
7, 56832, Note_off_c, 5, 60, 0
7, 56832, Note_on_c, 5, 65, 96
7, 57344, Note_off_c, 5, 72, 0
7, 57344, Note_on_c, 5, 77, 96
7, 57344, Note_off_c, 5, 69, 0
7, 57344, Note_on_c, 5, 74, 96
7, 57344, Note_off_c, 5, 72, 0
7, 57344, Note_on_c, 5, 77, 96
7, 57344, Note_off_c, 5, 69, 0
7, 57344, Note_on_c, 5, 74, 96
7, 57600, Note_off_c, 5, 74, 0
7, 57600, Note_on_c, 5, 72, 96
7, 57600, Note_off_c, 5, 74, 0
7, 57600, Note_on_c, 5, 72, 96
7, 57856, Note_off_c, 5, 77, 0
7, 57856, Note_off_c, 5, 72, 0
7, 57856, Note_on_c, 5, 74, 96
7, 57856, Note_off_c, 5, 77, 0
7, 57856, Note_off_c, 5, 72, 0
7, 57856, Note_on_c, 5, 74, 96
7, 57856, Note_off_c, 5, 65, 0
7, 57856, Note_on_c, 5, 59, 96
7, 58368, Note_off_c, 5, 74, 0
7, 58368, Note_on_c, 5, 67, 96
7, 58368, Note_on_c, 5, 76, 96
7, 58368, Note_off_c, 5, 74, 0
7, 58368, Note_on_c, 5, 67, 96
7, 58368, Note_off_c, 5, 59, 0
7, 58368, Note_on_c, 5, 60, 96
7, 58624, Note_on_c, 5, 79, 96
7, 58624, Note_off_c, 5, 67, 0
7, 58624, Note_on_c, 5, 76, 96
7, 58880, Note_off_c, 5, 79, 0
7, 58880, Note_on_c, 5, 77, 96
7, 58880, Note_off_c, 5, 76, 0
7, 58880, Note_on_c, 5, 74, 96
7, 58880, Note_off_c, 5, 76, 0
7, 58880, Note_on_c, 5, 76, 96
7, 58880, Note_off_c, 5, 67, 0
7, 58880, Note_on_c, 5, 72, 96
7, 58880, Note_off_c, 5, 60, 0
7, 58880, Note_on_c, 5, 67, 96
7, 59136, Note_off_c, 5, 77, 0
7, 59136, Note_on_c, 5, 79, 96
7, 59136, Note_off_c, 5, 74, 0
7, 59136, Note_on_c, 5, 76, 96
7, 59392, Note_off_c, 5, 79, 0
7, 59392, Note_on_c, 5, 76, 96
7, 59392, Note_off_c, 5, 76, 0
7, 59392, Note_on_c, 5, 72, 96
7, 59392, Note_off_c, 5, 76, 0
7, 59392, Note_on_c, 5, 76, 96
7, 59392, Note_off_c, 5, 72, 0
7, 59392, Note_on_c, 5, 72, 96
7, 59392, Note_off_c, 5, 67, 0
7, 59392, Note_on_c, 5, 67, 96
7, 59648, Note_off_c, 5, 76, 0
7, 59648, Note_on_c, 5, 79, 96
7, 59648, Note_off_c, 5, 72, 0
7, 59648, Note_on_c, 5, 76, 96
7, 59904, Note_off_c, 5, 79, 0
7, 59904, Note_on_c, 5, 82, 96
7, 59904, Note_off_c, 5, 76, 0
7, 59904, Note_on_c, 5, 79, 96
7, 59904, Note_off_c, 5, 76, 0
7, 59904, Note_on_c, 5, 76, 96
7, 59904, Note_off_c, 5, 72, 0
7, 59904, Note_on_c, 5, 72, 96
7, 59904, Note_off_c, 5, 67, 0
7, 59904, Note_on_c, 5, 67, 96
7, 60160, Note_off_c, 5, 82, 0
7, 60160, Note_on_c, 5, 79, 96
7, 60160, Note_off_c, 5, 79, 0
7, 60160, Note_on_c, 5, 76, 96
7, 60416, Note_off_c, 5, 79, 0
7, 60416, Note_on_c, 5, 77, 96
7, 60416, Note_off_c, 5, 76, 0
7, 60416, Note_on_c, 5, 74, 96
7, 60416, Note_off_c, 5, 76, 0
7, 60416, Note_on_c, 5, 76, 96
7, 60416, Note_off_c, 5, 72, 0
7, 60416, Note_on_c, 5, 72, 96
7, 60416, Note_off_c, 5, 67, 0
7, 60416, Note_on_c, 5, 67, 96
7, 60672, Note_off_c, 5, 77, 0
7, 60672, Note_on_c, 5, 79, 96
7, 60672, Note_off_c, 5, 74, 0
7, 60672, Note_on_c, 5, 76, 96
7, 60928, Note_off_c, 5, 79, 0
7, 60928, Note_on_c, 5, 76, 96
7, 60928, Note_off_c, 5, 76, 0
7, 60928, Note_on_c, 5, 72, 96
7, 60928, Note_off_c, 5, 76, 0
7, 60928, Note_on_c, 5, 76, 96
7, 60928, Note_off_c, 5, 72, 0
7, 60928, Note_on_c, 5, 72, 96
7, 60928, Note_off_c, 5, 67, 0
7, 60928, Note_on_c, 5, 67, 96
7, 61184, Note_off_c, 5, 76, 0
7, 61184, Note_on_c, 5, 79, 96
7, 61184, Note_off_c, 5, 72, 0
7, 61184, Note_on_c, 5, 76, 96
7, 61440, Note_off_c, 5, 79, 0
7, 61440, Note_off_c, 5, 76, 0
7, 61440, Note_off_c, 5, 76, 0
7, 61440, Note_off_c, 5, 72, 0
7, 61440, Note_off_c, 5, 67, 0
7, 61440, Note_on_c, 5, 72, 96
7, 61440, Note_on_c, 5, 77, 96
7, 61440, Note_on_c, 5, 77, 96
7, 61440, Note_on_c, 5, 72, 96
7, 61440, Note_on_c, 5, 69, 96
7, 61696, Note_off_c, 5, 72, 0
7, 61696, Note_on_c, 5, 77, 96
7, 61696, Note_off_c, 5, 77, 0
7, 61696, Note_on_c, 5, 69, 96
7, 61952, Note_off_c, 5, 77, 0
7, 61952, Note_on_c, 5, 76, 96
7, 61952, Note_off_c, 5, 69, 0
7, 61952, Note_on_c, 5, 67, 96
7, 61952, Note_off_c, 5, 77, 0
7, 61952, Note_on_c, 5, 77, 96
7, 61952, Note_off_c, 5, 72, 0
7, 61952, Note_on_c, 5, 72, 96
7, 61952, Note_off_c, 5, 69, 0
7, 61952, Note_on_c, 5, 69, 96
7, 62208, Note_off_c, 5, 76, 0
7, 62208, Note_on_c, 5, 77, 96
7, 62208, Note_off_c, 5, 67, 0
7, 62208, Note_on_c, 5, 69, 96
7, 62464, Note_off_c, 5, 77, 0
7, 62464, Note_on_c, 5, 72, 96
7, 62464, Note_off_c, 5, 69, 0
7, 62464, Note_on_c, 5, 65, 96
7, 62464, Note_off_c, 5, 77, 0
7, 62464, Note_on_c, 5, 77, 96
7, 62464, Note_off_c, 5, 72, 0
7, 62464, Note_on_c, 5, 72, 96
7, 62464, Note_off_c, 5, 69, 0
7, 62464, Note_on_c, 5, 69, 96
7, 62720, Note_off_c, 5, 72, 0
7, 62720, Note_on_c, 5, 77, 96
7, 62720, Note_off_c, 5, 65, 0
7, 62720, Note_on_c, 5, 69, 96
7, 62976, Note_off_c, 5, 77, 0
7, 62976, Note_on_c, 5, 81, 96
7, 62976, Note_off_c, 5, 69, 0
7, 62976, Note_on_c, 5, 72, 96
7, 62976, Note_off_c, 5, 77, 0
7, 62976, Note_on_c, 5, 77, 96
7, 62976, Note_off_c, 5, 72, 0
7, 62976, Note_on_c, 5, 72, 96
7, 62976, Note_off_c, 5, 69, 0
7, 62976, Note_on_c, 5, 69, 96
7, 63232, Note_off_c, 5, 81, 0
7, 63232, Note_on_c, 5, 77, 96
7, 63232, Note_off_c, 5, 72, 0
7, 63232, Note_on_c, 5, 69, 96
7, 63488, Note_off_c, 5, 77, 0
7, 63488, Note_on_c, 5, 76, 96
7, 63488, Note_off_c, 5, 69, 0
7, 63488, Note_on_c, 5, 67, 96
7, 63488, Note_off_c, 5, 77, 0
7, 63488, Note_on_c, 5, 77, 96
7, 63488, Note_off_c, 5, 72, 0
7, 63488, Note_on_c, 5, 72, 96
7, 63488, Note_off_c, 5, 69, 0
7, 63488, Note_on_c, 5, 69, 96
7, 63744, Note_off_c, 5, 76, 0
7, 63744, Note_on_c, 5, 77, 96
7, 63744, Note_off_c, 5, 67, 0
7, 63744, Note_on_c, 5, 69, 96
7, 64000, Note_off_c, 5, 77, 0
7, 64000, Note_on_c, 5, 72, 96
7, 64000, Note_off_c, 5, 69, 0
7, 64000, Note_on_c, 5, 65, 96
7, 64000, Note_off_c, 5, 77, 0
7, 64000, Note_on_c, 5, 77, 96
7, 64000, Note_off_c, 5, 72, 0
7, 64000, Note_on_c, 5, 72, 96
7, 64000, Note_off_c, 5, 69, 0
7, 64000, Note_on_c, 5, 69, 96
7, 64256, Note_off_c, 5, 72, 0
7, 64256, Note_on_c, 5, 77, 96
7, 64256, Note_off_c, 5, 65, 0
7, 64256, Note_on_c, 5, 69, 96
7, 64512, Note_off_c, 5, 77, 0
7, 64512, Note_on_c, 5, 70, 96
7, 64512, Note_off_c, 5, 69, 0
7, 64512, Note_on_c, 5, 64, 96
7, 64512, Note_off_c, 5, 77, 0
7, 64512, Note_on_c, 5, 79, 96
7, 64512, Note_off_c, 5, 72, 0
7, 64512, Note_on_c, 5, 76, 96
7, 64512, Note_off_c, 5, 69, 0
7, 64512, Note_on_c, 5, 72, 96
7, 64768, Note_off_c, 5, 70, 0
7, 64768, Note_on_c, 5, 76, 96
7, 64768, Note_off_c, 5, 64, 0
7, 64768, Note_on_c, 5, 67, 96
7, 65024, Note_off_c, 5, 76, 0
7, 65024, Note_on_c, 5, 74, 96
7, 65024, Note_off_c, 5, 67, 0
7, 65024, Note_on_c, 5, 65, 96
7, 65024, Note_off_c, 5, 79, 0
7, 65024, Note_on_c, 5, 79, 96
7, 65024, Note_off_c, 5, 76, 0
7, 65024, Note_on_c, 5, 76, 96
7, 65024, Note_off_c, 5, 72, 0
7, 65024, Note_on_c, 5, 72, 96
7, 65280, Note_off_c, 5, 74, 0
7, 65280, Note_on_c, 5, 76, 96
7, 65280, Note_off_c, 5, 65, 0
7, 65280, Note_on_c, 5, 67, 96
7, 65536, Note_off_c, 5, 76, 0
7, 65536, Note_on_c, 5, 70, 96
7, 65536, Note_off_c, 5, 67, 0
7, 65536, Note_on_c, 5, 64, 96
7, 65536, Note_off_c, 5, 79, 0
7, 65536, Note_on_c, 5, 79, 96
7, 65536, Note_off_c, 5, 76, 0
7, 65536, Note_on_c, 5, 76, 96
7, 65536, Note_off_c, 5, 72, 0
7, 65536, Note_on_c, 5, 72, 96
7, 65792, Note_off_c, 5, 70, 0
7, 65792, Note_on_c, 5, 76, 96
7, 65792, Note_off_c, 5, 64, 0
7, 65792, Note_on_c, 5, 67, 96
7, 66048, Note_off_c, 5, 76, 0
7, 66048, Note_on_c, 5, 79, 96
7, 66048, Note_off_c, 5, 67, 0
7, 66048, Note_on_c, 5, 70, 96
7, 66048, Note_off_c, 5, 79, 0
7, 66048, Note_on_c, 5, 79, 96
7, 66048, Note_off_c, 5, 76, 0
7, 66048, Note_on_c, 5, 76, 96
7, 66048, Note_off_c, 5, 72, 0
7, 66048, Note_on_c, 5, 72, 96
7, 66304, Note_off_c, 5, 79, 0
7, 66304, Note_on_c, 5, 76, 96
7, 66304, Note_off_c, 5, 70, 0
7, 66304, Note_on_c, 5, 67, 96
7, 66560, Note_off_c, 5, 76, 0
7, 66560, Note_on_c, 5, 74, 96
7, 66560, Note_off_c, 5, 67, 0
7, 66560, Note_on_c, 5, 65, 96
7, 66560, Note_off_c, 5, 79, 0
7, 66560, Note_on_c, 5, 79, 96
7, 66560, Note_off_c, 5, 76, 0
7, 66560, Note_on_c, 5, 76, 96
7, 66560, Note_off_c, 5, 72, 0
7, 66560, Note_on_c, 5, 72, 96
7, 66816, Note_off_c, 5, 74, 0
7, 66816, Note_on_c, 5, 76, 96
7, 66816, Note_off_c, 5, 65, 0
7, 66816, Note_on_c, 5, 67, 96
7, 67072, Note_off_c, 5, 76, 0
7, 67072, Note_on_c, 5, 70, 96
7, 67072, Note_off_c, 5, 67, 0
7, 67072, Note_on_c, 5, 64, 96
7, 67072, Note_off_c, 5, 79, 0
7, 67072, Note_on_c, 5, 79, 96
7, 67072, Note_off_c, 5, 76, 0
7, 67072, Note_on_c, 5, 76, 96
7, 67072, Note_off_c, 5, 72, 0
7, 67072, Note_on_c, 5, 72, 96
7, 67328, Note_off_c, 5, 70, 0
7, 67328, Note_on_c, 5, 76, 96
7, 67328, Note_off_c, 5, 64, 0
7, 67328, Note_on_c, 5, 67, 96
7, 67584, Note_off_c, 5, 76, 0
7, 67584, Note_off_c, 5, 67, 0
7, 67584, Note_off_c, 5, 79, 0
7, 67584, Note_off_c, 5, 76, 0
7, 67584, Note_off_c, 5, 72, 0
7, 67584, Note_on_c, 5, 69, 96
7, 67584, Note_on_c, 5, 65, 96
7, 67584, Note_on_c, 5, 81, 96
7, 67584, Note_on_c, 5, 77, 96
7, 67584, Note_on_c, 5, 72, 96
7, 68608, Note_off_c, 5, 69, 0
7, 68608, Note_on_c, 5, 72, 96
7, 68608, Note_off_c, 5, 65, 0
7, 68608, Note_on_c, 5, 72, 96
7, 68608, Note_off_c, 5, 81, 0
7, 68608, Note_on_c, 5, 72, 96
7, 68608, Note_off_c, 5, 77, 0
7, 68608, Note_off_c, 5, 72, 0
7, 68608, Note_on_c, 5, 72, 96
7, 69120, Note_off_c, 5, 72, 0
7, 69120, Note_on_c, 5, 77, 96
7, 69120, Note_off_c, 5, 72, 0
7, 69120, Note_on_c, 5, 77, 96
7, 69120, Note_off_c, 5, 72, 0
7, 69120, Note_on_c, 5, 77, 96
7, 69120, Note_off_c, 5, 72, 0
7, 69120, Note_on_c, 5, 70, 96
7, 69632, Note_off_c, 5, 70, 0
7, 69632, Note_on_c, 5, 62, 96
7, 70144, Note_on_c, 5, 70, 96
7, 70144, Note_off_c, 5, 62, 0
7, 70144, Note_on_c, 5, 62, 96
7, 70656, Note_off_c, 5, 70, 0
7, 70656, Note_on_c, 5, 69, 96
7, 70656, Note_off_c, 5, 62, 0
7, 70656, Note_on_c, 5, 60, 96
7, 71168, Note_off_c, 5, 77, 0
7, 71168, Note_on_c, 5, 82, 96
7, 71168, Note_off_c, 5, 77, 0
7, 71168, Note_on_c, 5, 82, 96
7, 71168, Note_off_c, 5, 77, 0
7, 71168, Note_on_c, 5, 82, 96
7, 71680, Note_off_c, 5, 82, 0
7, 71680, Note_on_c, 5, 79, 96
7, 71680, Note_off_c, 5, 82, 0
7, 71680, Note_on_c, 5, 79, 96
7, 71680, Note_off_c, 5, 82, 0
7, 71680, Note_on_c, 5, 79, 96
7, 71680, Note_off_c, 5, 69, 0
7, 71680, Note_on_c, 5, 74, 96
7, 71680, Note_off_c, 5, 60, 0
7, 71680, Note_on_c, 5, 62, 96
7, 72192, Note_off_c, 5, 79, 0
7, 72192, Note_on_c, 5, 76, 96
7, 72192, Note_off_c, 5, 79, 0
7, 72192, Note_on_c, 5, 76, 96
7, 72192, Note_off_c, 5, 79, 0
7, 72192, Note_on_c, 5, 76, 96
7, 72192, Note_off_c, 5, 74, 0
7, 72192, Note_on_c, 5, 72, 96
7, 72192, Note_off_c, 5, 62, 0
7, 72192, Note_on_c, 5, 55, 96
7, 72704, Note_off_c, 5, 72, 0
7, 72704, Note_on_c, 5, 70, 96
7, 72704, Note_off_c, 5, 55, 0
7, 72704, Note_on_c, 5, 60, 96
7, 72960, Note_off_c, 5, 70, 0
7, 72960, Note_on_c, 5, 69, 96
7, 73216, Note_off_c, 5, 76, 0
7, 73216, Note_on_c, 5, 77, 96
7, 73216, Note_off_c, 5, 76, 0
7, 73216, Note_on_c, 5, 77, 96
7, 73216, Note_off_c, 5, 76, 0
7, 73216, Note_on_c, 5, 77, 96
7, 73216, Note_off_c, 5, 69, 0
7, 73216, Note_on_c, 5, 70, 96
7, 73216, Note_off_c, 5, 60, 0
7, 73216, Note_on_c, 5, 60, 96
7, 73728, Note_off_c, 5, 77, 0
7, 73728, Note_off_c, 5, 77, 0
7, 73728, Note_off_c, 5, 77, 0
7, 73728, Note_off_c, 5, 70, 0
7, 73728, Note_off_c, 5, 60, 0
7, 73728, Note_on_c, 5, 77, 96
7, 73728, Note_on_c, 5, 77, 96
7, 73728, Note_on_c, 5, 77, 96
7, 73728, Note_on_c, 5, 69, 96
7, 73728, Note_on_c, 5, 60, 96
7, 73984, Note_off_c, 5, 77, 0
7, 73984, Note_on_c, 5, 77, 96
7, 73984, Note_off_c, 5, 77, 0
7, 73984, Note_on_c, 5, 77, 96
7, 74240, Note_off_c, 5, 77, 0
7, 74240, Note_on_c, 5, 76, 96
7, 74240, Note_off_c, 5, 77, 0
7, 74240, Note_on_c, 5, 76, 96
7, 74496, Note_off_c, 5, 76, 0
7, 74496, Note_on_c, 5, 77, 96
7, 74496, Note_off_c, 5, 76, 0
7, 74496, Note_on_c, 5, 77, 96
7, 74752, Note_off_c, 5, 77, 0
7, 74752, Note_on_c, 5, 72, 96
7, 74752, Note_off_c, 5, 77, 0
7, 74752, Note_on_c, 5, 72, 96
7, 74752, Note_off_c, 5, 77, 0
7, 74752, Note_on_c, 5, 65, 96
7, 74752, Note_off_c, 5, 69, 0
7, 74752, Note_on_c, 5, 60, 96
7, 74752, Note_off_c, 5, 60, 0
7, 74752, Note_on_c, 5, 57, 96
7, 75008, Note_off_c, 5, 72, 0
7, 75008, Note_on_c, 5, 77, 96
7, 75008, Note_off_c, 5, 72, 0
7, 75008, Note_on_c, 5, 77, 96
7, 75264, Note_off_c, 5, 77, 0
7, 75264, Note_on_c, 5, 81, 96
7, 75264, Note_off_c, 5, 77, 0
7, 75264, Note_on_c, 5, 81, 96
7, 75264, Note_off_c, 5, 65, 0
7, 75264, Note_on_c, 5, 65, 96
7, 75264, Note_off_c, 5, 60, 0
7, 75264, Note_on_c, 5, 60, 96
7, 75264, Note_off_c, 5, 57, 0
7, 75264, Note_on_c, 5, 57, 96
7, 75520, Note_off_c, 5, 81, 0
7, 75520, Note_on_c, 5, 77, 96
7, 75520, Note_off_c, 5, 81, 0
7, 75520, Note_on_c, 5, 77, 96
7, 75776, Note_off_c, 5, 77, 0
7, 75776, Note_on_c, 5, 76, 96
7, 75776, Note_off_c, 5, 77, 0
7, 75776, Note_on_c, 5, 76, 96
7, 75776, Note_off_c, 5, 65, 0
7, 75776, Note_on_c, 5, 65, 96
7, 75776, Note_off_c, 5, 60, 0
7, 75776, Note_on_c, 5, 60, 96
7, 75776, Note_off_c, 5, 57, 0
7, 75776, Note_on_c, 5, 57, 96
7, 76032, Note_off_c, 5, 76, 0
7, 76032, Note_on_c, 5, 77, 96
7, 76032, Note_off_c, 5, 76, 0
7, 76032, Note_on_c, 5, 77, 96
7, 76288, Note_off_c, 5, 77, 0
7, 76288, Note_on_c, 5, 72, 96
7, 76288, Note_off_c, 5, 77, 0
7, 76288, Note_on_c, 5, 72, 96
7, 76288, Note_off_c, 5, 65, 0
7, 76288, Note_on_c, 5, 65, 96
7, 76288, Note_off_c, 5, 60, 0
7, 76288, Note_on_c, 5, 60, 96
7, 76288, Note_off_c, 5, 57, 0
7, 76288, Note_on_c, 5, 57, 96
7, 76544, Note_off_c, 5, 72, 0
7, 76544, Note_on_c, 5, 77, 96
7, 76544, Note_off_c, 5, 72, 0
7, 76544, Note_on_c, 5, 77, 96
7, 76800, Note_off_c, 5, 77, 0
7, 76800, Note_on_c, 5, 69, 96
7, 76800, Note_off_c, 5, 77, 0
7, 76800, Note_on_c, 5, 69, 96
7, 76800, Note_off_c, 5, 65, 0
7, 76800, Note_on_c, 5, 65, 96
7, 76800, Note_off_c, 5, 60, 0
7, 76800, Note_on_c, 5, 60, 96
7, 76800, Note_off_c, 5, 57, 0
7, 76800, Note_on_c, 5, 57, 96
7, 77056, Note_off_c, 5, 69, 0
7, 77056, Note_on_c, 5, 77, 96
7, 77056, Note_off_c, 5, 69, 0
7, 77056, Note_on_c, 5, 77, 96
7, 77312, Note_off_c, 5, 77, 0
7, 77312, Note_on_c, 5, 76, 96
7, 77312, Note_off_c, 5, 77, 0
7, 77312, Note_on_c, 5, 76, 96
7, 77312, Note_off_c, 5, 65, 0
7, 77312, Note_on_c, 5, 65, 96
7, 77312, Note_off_c, 5, 60, 0
7, 77312, Note_on_c, 5, 60, 96
7, 77312, Note_off_c, 5, 57, 0
7, 77312, Note_on_c, 5, 57, 96
7, 77568, Note_off_c, 5, 76, 0
7, 77568, Note_on_c, 5, 77, 96
7, 77568, Note_off_c, 5, 76, 0
7, 77568, Note_on_c, 5, 77, 96
7, 77824, Note_off_c, 5, 77, 0
7, 77824, Note_on_c, 5, 72, 96
7, 77824, Note_off_c, 5, 77, 0
7, 77824, Note_on_c, 5, 72, 96
7, 77824, Note_off_c, 5, 65, 0
7, 77824, Note_on_c, 5, 65, 96
7, 77824, Note_off_c, 5, 60, 0
7, 77824, Note_on_c, 5, 60, 96
7, 77824, Note_off_c, 5, 57, 0
7, 77824, Note_on_c, 5, 57, 96
7, 78080, Note_off_c, 5, 72, 0
7, 78080, Note_on_c, 5, 77, 96
7, 78080, Note_off_c, 5, 72, 0
7, 78080, Note_on_c, 5, 77, 96
7, 78336, Note_off_c, 5, 77, 0
7, 78336, Note_on_c, 5, 81, 96
7, 78336, Note_off_c, 5, 77, 0
7, 78336, Note_on_c, 5, 81, 96
7, 78336, Note_off_c, 5, 65, 0
7, 78336, Note_on_c, 5, 65, 96
7, 78336, Note_off_c, 5, 60, 0
7, 78336, Note_on_c, 5, 60, 96
7, 78336, Note_off_c, 5, 57, 0
7, 78336, Note_on_c, 5, 57, 96
7, 78592, Note_off_c, 5, 81, 0
7, 78592, Note_on_c, 5, 77, 96
7, 78592, Note_off_c, 5, 81, 0
7, 78592, Note_on_c, 5, 77, 96
7, 78848, Note_off_c, 5, 77, 0
7, 78848, Note_on_c, 5, 76, 96
7, 78848, Note_off_c, 5, 77, 0
7, 78848, Note_on_c, 5, 76, 96
7, 78848, Note_off_c, 5, 65, 0
7, 78848, Note_on_c, 5, 65, 96
7, 78848, Note_off_c, 5, 60, 0
7, 78848, Note_on_c, 5, 60, 96
7, 78848, Note_off_c, 5, 57, 0
7, 78848, Note_on_c, 5, 57, 96
7, 79104, Note_off_c, 5, 76, 0
7, 79104, Note_on_c, 5, 77, 96
7, 79104, Note_off_c, 5, 76, 0
7, 79104, Note_on_c, 5, 77, 96
7, 79360, Note_off_c, 5, 77, 0
7, 79360, Note_on_c, 5, 72, 96
7, 79360, Note_off_c, 5, 77, 0
7, 79360, Note_on_c, 5, 72, 96
7, 79360, Note_off_c, 5, 65, 0
7, 79360, Note_on_c, 5, 65, 96
7, 79360, Note_off_c, 5, 60, 0
7, 79360, Note_on_c, 5, 60, 96
7, 79360, Note_off_c, 5, 57, 0
7, 79360, Note_on_c, 5, 57, 96
7, 79616, Note_off_c, 5, 72, 0
7, 79616, Note_on_c, 5, 77, 96
7, 79616, Note_off_c, 5, 72, 0
7, 79616, Note_on_c, 5, 77, 96
7, 79872, Note_off_c, 5, 77, 0
7, 79872, Note_off_c, 5, 77, 0
7, 79872, Note_off_c, 5, 65, 0
7, 79872, Note_off_c, 5, 60, 0
7, 79872, Note_off_c, 5, 57, 0
7, 79872, Note_on_c, 5, 69, 96
7, 79872, Note_on_c, 5, 69, 96
7, 79872, Note_on_c, 5, 65, 96
7, 79872, Note_on_c, 5, 60, 96
7, 79872, Note_on_c, 5, 57, 96
7, 80896, Note_off_c, 5, 69, 0
7, 80896, Note_off_c, 5, 69, 0
7, 80896, Note_off_c, 5, 65, 0
7, 80896, Note_off_c, 5, 60, 0
7, 80896, Note_on_c, 5, 60, 96
7, 80896, Note_off_c, 5, 57, 0
7, 81408, Note_off_c, 5, 60, 0
7, 81408, Note_on_c, 5, 65, 96
7, 81664, Note_on_c, 5, 72, 96
7, 81664, Note_on_c, 5, 72, 96
7, 81920, Note_off_c, 5, 72, 0
7, 81920, Note_on_c, 5, 70, 96
7, 81920, Note_off_c, 5, 72, 0
7, 81920, Note_on_c, 5, 70, 96
7, 82176, Note_off_c, 5, 70, 0
7, 82176, Note_on_c, 5, 72, 96
7, 82176, Note_off_c, 5, 70, 0
7, 82176, Note_on_c, 5, 72, 96
7, 82432, Note_off_c, 5, 72, 0
7, 82432, Note_on_c, 5, 69, 96
7, 82432, Note_off_c, 5, 72, 0
7, 82432, Note_on_c, 5, 69, 96
7, 82432, Note_off_c, 5, 65, 0
7, 82432, Note_on_c, 5, 67, 96
7, 82688, Note_off_c, 5, 69, 0
7, 82688, Note_on_c, 5, 72, 96
7, 82688, Note_off_c, 5, 69, 0
7, 82688, Note_on_c, 5, 72, 96
7, 82944, Note_off_c, 5, 72, 0
7, 82944, Note_on_c, 5, 77, 96
7, 82944, Note_off_c, 5, 72, 0
7, 82944, Note_on_c, 5, 77, 96
7, 82944, Note_off_c, 5, 67, 0
7, 82944, Note_on_c, 5, 65, 96
7, 83456, Note_off_c, 5, 65, 0
7, 83456, Note_on_c, 5, 63, 96
7, 83968, Note_off_c, 5, 77, 0
7, 83968, Note_off_c, 5, 77, 0
7, 83968, Note_off_c, 5, 63, 0
7, 83968, Note_on_c, 5, 62, 96
7, 83968, Note_on_c, 5, 53, 96
7, 84480, Note_off_c, 5, 62, 0
7, 84480, Note_on_c, 5, 63, 96
7, 84480, Note_off_c, 5, 53, 0
7, 84480, Note_on_c, 5, 60, 96
7, 84736, Note_on_c, 5, 72, 96
7, 84736, Note_on_c, 5, 72, 96
7, 84992, Note_off_c, 5, 72, 0
7, 84992, Note_on_c, 5, 70, 96
7, 84992, Note_off_c, 5, 72, 0
7, 84992, Note_on_c, 5, 70, 96
7, 84992, Note_off_c, 5, 63, 0
7, 84992, Note_on_c, 5, 67, 96
7, 85248, Note_off_c, 5, 70, 0
7, 85248, Note_on_c, 5, 72, 96
7, 85248, Note_off_c, 5, 70, 0
7, 85248, Note_on_c, 5, 72, 96
7, 85504, Note_off_c, 5, 72, 0
7, 85504, Note_on_c, 5, 69, 96
7, 85504, Note_off_c, 5, 72, 0
7, 85504, Note_on_c, 5, 69, 96
7, 85504, Note_off_c, 5, 67, 0
7, 85504, Note_on_c, 5, 65, 96
7, 85504, Note_off_c, 5, 60, 0
7, 85504, Note_on_c, 5, 62, 96
7, 85760, Note_off_c, 5, 69, 0
7, 85760, Note_on_c, 5, 72, 96
7, 85760, Note_off_c, 5, 69, 0
7, 85760, Note_on_c, 5, 72, 96
7, 86016, Note_off_c, 5, 72, 0
7, 86016, Note_off_c, 5, 72, 0
7, 86016, Note_off_c, 5, 65, 0
7, 86016, Note_off_c, 5, 62, 0
7, 86016, Note_on_c, 5, 65, 96
7, 86016, Note_on_c, 5, 65, 96
7, 86016, Note_on_c, 5, 63, 96
7, 86016, Note_on_c, 5, 60, 96
7, 86528, Note_off_c, 5, 63, 0
7, 86528, Note_on_c, 5, 62, 96
7, 86528, Note_off_c, 5, 60, 0
7, 86528, Note_on_c, 5, 58, 96
7, 87040, Note_off_c, 5, 65, 0
7, 87040, Note_off_c, 5, 65, 0
7, 87040, Note_off_c, 5, 62, 0
7, 87040, Note_on_c, 5, 60, 96
7, 87040, Note_off_c, 5, 58, 0
7, 87040, Note_on_c, 5, 57, 96
7, 87552, Note_off_c, 5, 60, 0
7, 87552, Note_on_c, 5, 62, 96
7, 87552, Note_off_c, 5, 57, 0
7, 87552, Note_on_c, 5, 58, 96
7, 87808, Note_on_c, 5, 70, 96
7, 87808, Note_on_c, 5, 70, 96
7, 88064, Note_off_c, 5, 70, 0
7, 88064, Note_on_c, 5, 69, 96
7, 88064, Note_off_c, 5, 70, 0
7, 88064, Note_on_c, 5, 69, 96
7, 88064, Note_off_c, 5, 62, 0
7, 88064, Note_on_c, 5, 65, 96
7, 88064, Note_off_c, 5, 58, 0
7, 88064, Note_on_c, 5, 62, 96
7, 88320, Note_off_c, 5, 69, 0
7, 88320, Note_on_c, 5, 70, 96
7, 88320, Note_off_c, 5, 69, 0
7, 88320, Note_on_c, 5, 70, 96
7, 88576, Note_off_c, 5, 70, 0
7, 88576, Note_on_c, 5, 65, 96
7, 88576, Note_off_c, 5, 70, 0
7, 88576, Note_on_c, 5, 65, 96
7, 88576, Note_off_c, 5, 65, 0
7, 88576, Note_on_c, 5, 63, 96
7, 88576, Note_off_c, 5, 62, 0
7, 88576, Note_on_c, 5, 60, 96
7, 88832, Note_off_c, 5, 65, 0
7, 88832, Note_on_c, 5, 70, 96
7, 88832, Note_off_c, 5, 65, 0
7, 88832, Note_on_c, 5, 70, 96
7, 89088, Note_off_c, 5, 70, 0
7, 89088, Note_on_c, 5, 77, 96
7, 89088, Note_off_c, 5, 70, 0
7, 89088, Note_on_c, 5, 77, 96
7, 89088, Note_off_c, 5, 63, 0
7, 89088, Note_on_c, 5, 60, 96
7, 89088, Note_off_c, 5, 60, 0
7, 89088, Note_on_c, 5, 58, 96
7, 89600, Note_off_c, 5, 58, 0
7, 89600, Note_on_c, 5, 57, 96
7, 90112, Note_off_c, 5, 77, 0
7, 90112, Note_off_c, 5, 77, 0
7, 90112, Note_on_c, 5, 65, 96
7, 90112, Note_off_c, 5, 60, 0
7, 90112, Note_on_c, 5, 65, 96
7, 90112, Note_off_c, 5, 57, 0
7, 90112, Note_on_c, 5, 53, 96
7, 90624, Note_off_c, 5, 65, 0
7, 90624, Note_on_c, 5, 70, 96
7, 90624, Note_off_c, 5, 65, 0
7, 90624, Note_on_c, 5, 65, 96
7, 90624, Note_off_c, 5, 53, 0
7, 90624, Note_on_c, 5, 55, 96
7, 90880, Note_on_c, 5, 77, 96
7, 90880, Note_on_c, 5, 77, 96
7, 91136, Note_off_c, 5, 77, 0
7, 91136, Note_on_c, 5, 76, 96
7, 91136, Note_off_c, 5, 77, 0
7, 91136, Note_on_c, 5, 76, 96
7, 91136, Note_off_c, 5, 65, 0
7, 91136, Note_on_c, 5, 67, 96
7, 91136, Note_off_c, 5, 55, 0
7, 91136, Note_on_c, 5, 58, 96
7, 91392, Note_off_c, 5, 76, 0
7, 91392, Note_on_c, 5, 77, 96
7, 91392, Note_off_c, 5, 76, 0
7, 91392, Note_on_c, 5, 77, 96
7, 91648, Note_off_c, 5, 77, 0
7, 91648, Note_on_c, 5, 72, 96
7, 91648, Note_off_c, 5, 77, 0
7, 91648, Note_on_c, 5, 72, 96
7, 91648, Note_off_c, 5, 70, 0
7, 91648, Note_on_c, 5, 72, 96
7, 91648, Note_off_c, 5, 67, 0
7, 91648, Note_on_c, 5, 64, 96
7, 91648, Note_off_c, 5, 58, 0
7, 91648, Note_on_c, 5, 57, 96
7, 91904, Note_off_c, 5, 72, 0
7, 91904, Note_on_c, 5, 77, 96
7, 91904, Note_off_c, 5, 72, 0
7, 91904, Note_on_c, 5, 77, 96
7, 92160, Note_off_c, 5, 77, 0
7, 92160, Note_off_c, 5, 77, 0
7, 92160, Note_off_c, 5, 72, 0
7, 92160, Note_off_c, 5, 64, 0
7, 92160, Note_off_c, 5, 57, 0
7, 92160, Note_on_c, 5, 81, 96
7, 92160, Note_on_c, 5, 81, 96
7, 92160, Note_on_c, 5, 70, 96
7, 92160, Note_on_c, 5, 65, 96
7, 92160, Note_on_c, 5, 53, 96
7, 92672, Note_off_c, 5, 70, 0
7, 92672, Note_on_c, 5, 69, 96
7, 93184, Note_off_c, 5, 81, 0
7, 93184, Note_off_c, 5, 81, 0
7, 93184, Note_off_c, 5, 69, 0
7, 93184, Note_on_c, 5, 67, 96
7, 93184, Note_off_c, 5, 65, 0
7, 93184, Note_on_c, 5, 67, 96
7, 93184, Note_off_c, 5, 53, 0
7, 93184, Note_on_c, 5, 52, 96
7, 93696, Note_off_c, 5, 67, 0
7, 93696, Note_on_c, 5, 69, 96
7, 93696, Note_off_c, 5, 67, 0
7, 93696, Note_on_c, 5, 65, 96
7, 93696, Note_off_c, 5, 52, 0
7, 93696, Note_on_c, 5, 50, 96
7, 93952, Note_on_c, 5, 81, 96
7, 93952, Note_on_c, 5, 81, 96
7, 94208, Note_off_c, 5, 81, 0
7, 94208, Note_on_c, 5, 79, 96
7, 94208, Note_off_c, 5, 81, 0
7, 94208, Note_on_c, 5, 79, 96
7, 94208, Note_off_c, 5, 69, 0
7, 94208, Note_on_c, 5, 72, 96
7, 94208, Note_off_c, 5, 65, 0
7, 94208, Note_on_c, 5, 64, 96
7, 94208, Note_off_c, 5, 50, 0
7, 94208, Note_on_c, 5, 52, 96
7, 94464, Note_off_c, 5, 79, 0
7, 94464, Note_on_c, 5, 81, 96
7, 94464, Note_off_c, 5, 79, 0
7, 94464, Note_on_c, 5, 81, 96
7, 94720, Note_off_c, 5, 81, 0
7, 94720, Note_on_c, 5, 77, 96
7, 94720, Note_off_c, 5, 81, 0
7, 94720, Note_on_c, 5, 77, 96
7, 94720, Note_off_c, 5, 72, 0
7, 94720, Note_on_c, 5, 71, 96
7, 94720, Note_off_c, 5, 64, 0
7, 94720, Note_on_c, 5, 62, 96
7, 94720, Note_off_c, 5, 52, 0
7, 94720, Note_on_c, 5, 53, 96
7, 94976, Note_off_c, 5, 77, 0
7, 94976, Note_on_c, 5, 81, 96
7, 94976, Note_off_c, 5, 77, 0
7, 94976, Note_on_c, 5, 81, 96
7, 95232, Note_off_c, 5, 81, 0
7, 95232, Note_on_c, 5, 86, 96
7, 95232, Note_off_c, 5, 81, 0
7, 95232, Note_on_c, 5, 86, 96
7, 95232, Note_off_c, 5, 71, 0
7, 95232, Note_on_c, 5, 67, 96
7, 95232, Note_off_c, 5, 62, 0
7, 95232, Note_on_c, 5, 62, 96
7, 95232, Note_off_c, 5, 53, 0
7, 95232, Note_on_c, 5, 55, 96
7, 95744, Note_off_c, 5, 62, 0
7, 95744, Note_on_c, 5, 67, 96
7, 96256, Note_off_c, 5, 86, 0
7, 96256, Note_off_c, 5, 86, 0
7, 96256, Note_off_c, 5, 67, 0
7, 96256, Note_on_c, 5, 62, 96
7, 96256, Note_off_c, 5, 67, 0
7, 96256, Note_on_c, 5, 67, 96
7, 96256, Note_off_c, 5, 55, 0
7, 96256, Note_on_c, 5, 53, 96
7, 96768, Note_off_c, 5, 62, 0
7, 96768, Note_on_c, 5, 65, 96
7, 96768, Note_off_c, 5, 67, 0
7, 96768, Note_on_c, 5, 62, 96
7, 96768, Note_off_c, 5, 53, 0
7, 96768, Note_on_c, 5, 55, 96
7, 97024, Note_on_c, 5, 86, 96
7, 97024, Note_on_c, 5, 86, 96
7, 97280, Note_off_c, 5, 86, 0
7, 97280, Note_on_c, 5, 84, 96
7, 97280, Note_off_c, 5, 86, 0
7, 97280, Note_on_c, 5, 84, 96
7, 97280, Note_off_c, 5, 65, 0
7, 97280, Note_on_c, 5, 69, 96
7, 97280, Note_off_c, 5, 62, 0
7, 97280, Note_on_c, 5, 65, 96
7, 97536, Note_off_c, 5, 84, 0
7, 97536, Note_on_c, 5, 86, 96
7, 97536, Note_off_c, 5, 84, 0
7, 97536, Note_on_c, 5, 86, 96
7, 97792, Note_off_c, 5, 86, 0
7, 97792, Note_on_c, 5, 83, 96
7, 97792, Note_off_c, 5, 86, 0
7, 97792, Note_on_c, 5, 83, 96
7, 97792, Note_off_c, 5, 69, 0
7, 97792, Note_on_c, 5, 67, 96
7, 97792, Note_off_c, 5, 65, 0
7, 97792, Note_on_c, 5, 65, 96
7, 97792, Note_off_c, 5, 55, 0
7, 97792, Note_on_c, 5, 55, 96
7, 98048, Note_off_c, 5, 83, 0
7, 98048, Note_on_c, 5, 86, 96
7, 98048, Note_off_c, 5, 83, 0
7, 98048, Note_on_c, 5, 86, 96
7, 98304, Note_off_c, 5, 86, 0
7, 98304, Note_off_c, 5, 86, 0
7, 98304, Note_off_c, 5, 67, 0
7, 98304, Note_off_c, 5, 65, 0
7, 98304, Note_off_c, 5, 55, 0
7, 98304, Note_on_c, 5, 88, 96
7, 98304, Note_on_c, 5, 88, 96
7, 98304, Note_on_c, 5, 67, 96
7, 98304, Note_on_c, 5, 64, 96
7, 98304, Note_on_c, 5, 48, 96
7, 98560, Note_off_c, 5, 88, 0
7, 98560, Note_on_c, 5, 76, 96
7, 98560, Note_off_c, 5, 88, 0
7, 98560, Note_on_c, 5, 76, 96
7, 98816, Note_off_c, 5, 76, 0
7, 98816, Note_on_c, 5, 74, 96
7, 98816, Note_off_c, 5, 76, 0
7, 98816, Note_on_c, 5, 74, 96
7, 99072, Note_off_c, 5, 74, 0
7, 99072, Note_on_c, 5, 76, 96
7, 99072, Note_off_c, 5, 74, 0
7, 99072, Note_on_c, 5, 76, 96
7, 99328, Note_off_c, 5, 76, 0
7, 99328, Note_on_c, 5, 72, 96
7, 99328, Note_off_c, 5, 76, 0
7, 99328, Note_on_c, 5, 72, 96
7, 99328, Note_off_c, 5, 67, 0
7, 99328, Note_on_c, 5, 60, 96
7, 99328, Note_off_c, 5, 64, 0
7, 99328, Note_on_c, 5, 67, 96
7, 99328, Note_off_c, 5, 48, 0
7, 99328, Note_on_c, 5, 48, 96
7, 99584, Note_off_c, 5, 72, 0
7, 99584, Note_on_c, 5, 76, 96
7, 99584, Note_off_c, 5, 72, 0
7, 99584, Note_on_c, 5, 76, 96
7, 99840, Note_off_c, 5, 76, 0
7, 99840, Note_on_c, 5, 79, 96
7, 99840, Note_off_c, 5, 76, 0
7, 99840, Note_on_c, 5, 79, 96
7, 99840, Note_off_c, 5, 60, 0
7, 99840, Note_on_c, 5, 67, 96
7, 99840, Note_off_c, 5, 67, 0
7, 99840, Note_on_c, 5, 64, 96
7, 99840, Note_off_c, 5, 48, 0
7, 99840, Note_on_c, 5, 58, 96
7, 100096, Note_off_c, 5, 79, 0
7, 100096, Note_on_c, 5, 76, 96
7, 100096, Note_off_c, 5, 79, 0
7, 100096, Note_on_c, 5, 76, 96
7, 100352, Note_off_c, 5, 76, 0
7, 100352, Note_on_c, 5, 74, 96
7, 100352, Note_off_c, 5, 76, 0
7, 100352, Note_on_c, 5, 74, 96
7, 100352, Note_off_c, 5, 64, 0
7, 100352, Note_on_c, 5, 60, 96
7, 100608, Note_off_c, 5, 74, 0
7, 100608, Note_on_c, 5, 76, 96
7, 100608, Note_off_c, 5, 74, 0
7, 100608, Note_on_c, 5, 76, 96
7, 100864, Note_off_c, 5, 76, 0
7, 100864, Note_on_c, 5, 72, 96
7, 100864, Note_off_c, 5, 76, 0
7, 100864, Note_on_c, 5, 72, 96
7, 100864, Note_off_c, 5, 67, 0
7, 100864, Note_on_c, 5, 64, 96
7, 100864, Note_off_c, 5, 60, 0
7, 100864, Note_on_c, 5, 67, 96
7, 100864, Note_off_c, 5, 58, 0
7, 100864, Note_on_c, 5, 60, 96
7, 101120, Note_off_c, 5, 72, 0
7, 101120, Note_on_c, 5, 76, 96
7, 101120, Note_off_c, 5, 72, 0
7, 101120, Note_on_c, 5, 76, 96
7, 101376, Note_off_c, 5, 76, 0
7, 101376, Note_on_c, 5, 65, 96
7, 101376, Note_off_c, 5, 76, 0
7, 101376, Note_on_c, 5, 65, 96
7, 101376, Note_off_c, 5, 64, 0
7, 101376, Note_on_c, 5, 60, 96
7, 101376, Note_off_c, 5, 67, 0
7, 101376, Note_on_c, 5, 69, 96
7, 101376, Note_off_c, 5, 60, 0
7, 101376, Note_on_c, 5, 57, 96
7, 101632, Note_off_c, 5, 65, 0
7, 101632, Note_on_c, 5, 72, 96
7, 101632, Note_off_c, 5, 65, 0
7, 101632, Note_on_c, 5, 72, 96
7, 101888, Note_off_c, 5, 72, 0
7, 101888, Note_on_c, 5, 70, 96
7, 101888, Note_off_c, 5, 72, 0
7, 101888, Note_on_c, 5, 70, 96
7, 102144, Note_off_c, 5, 70, 0
7, 102144, Note_on_c, 5, 72, 96
7, 102144, Note_off_c, 5, 70, 0
7, 102144, Note_on_c, 5, 72, 96
7, 102400, Note_off_c, 5, 72, 0
7, 102400, Note_on_c, 5, 69, 96
7, 102400, Note_off_c, 5, 72, 0
7, 102400, Note_on_c, 5, 69, 96
7, 102400, Note_off_c, 5, 60, 0
7, 102400, Note_on_c, 5, 70, 96
7, 102400, Note_off_c, 5, 69, 0
7, 102400, Note_on_c, 5, 60, 96
7, 102400, Note_off_c, 5, 57, 0
7, 102400, Note_on_c, 5, 55, 96
7, 102656, Note_off_c, 5, 69, 0
7, 102656, Note_on_c, 5, 72, 96
7, 102656, Note_off_c, 5, 69, 0
7, 102656, Note_on_c, 5, 72, 96
7, 102912, Note_off_c, 5, 72, 0
7, 102912, Note_on_c, 5, 77, 96
7, 102912, Note_off_c, 5, 72, 0
7, 102912, Note_on_c, 5, 77, 96
7, 102912, Note_off_c, 5, 70, 0
7, 102912, Note_on_c, 5, 69, 96
7, 102912, Note_off_c, 5, 60, 0
7, 102912, Note_on_c, 5, 60, 96
7, 102912, Note_off_c, 5, 55, 0
7, 102912, Note_on_c, 5, 57, 96
7, 103168, Note_off_c, 5, 77, 0
7, 103168, Note_on_c, 5, 65, 96
7, 103168, Note_off_c, 5, 77, 0
7, 103168, Note_on_c, 5, 65, 96
7, 103424, Note_off_c, 5, 65, 0
7, 103424, Note_on_c, 5, 64, 96
7, 103424, Note_off_c, 5, 65, 0
7, 103424, Note_on_c, 5, 64, 96
7, 103424, Note_off_c, 5, 69, 0
7, 103424, Note_on_c, 5, 67, 96
7, 103424, Note_off_c, 5, 60, 0
7, 103424, Note_on_c, 5, 64, 96
7, 103424, Note_off_c, 5, 57, 0
7, 103424, Note_on_c, 5, 60, 96
7, 103680, Note_off_c, 5, 64, 0
7, 103680, Note_on_c, 5, 65, 96
7, 103680, Note_off_c, 5, 64, 0
7, 103680, Note_on_c, 5, 65, 96
7, 103936, Note_off_c, 5, 65, 0
7, 103936, Note_on_c, 5, 62, 96
7, 103936, Note_off_c, 5, 65, 0
7, 103936, Note_on_c, 5, 62, 96
7, 103936, Note_off_c, 5, 67, 0
7, 103936, Note_on_c, 5, 69, 96
7, 103936, Note_off_c, 5, 64, 0
7, 103936, Note_on_c, 5, 65, 96
7, 103936, Note_off_c, 5, 60, 0
7, 103936, Note_on_c, 5, 59, 96
7, 104192, Note_off_c, 5, 62, 0
7, 104192, Note_on_c, 5, 65, 96
7, 104192, Note_off_c, 5, 62, 0
7, 104192, Note_on_c, 5, 65, 96
7, 104448, Note_off_c, 5, 65, 0
7, 104448, Note_off_c, 5, 65, 0
7, 104448, Note_off_c, 5, 69, 0
7, 104448, Note_off_c, 5, 65, 0
7, 104448, Note_off_c, 5, 59, 0
7, 104448, Note_on_c, 5, 64, 96
7, 104448, Note_on_c, 5, 64, 96
7, 104448, Note_on_c, 5, 67, 96
7, 104448, Note_on_c, 5, 64, 96
7, 104448, Note_on_c, 5, 60, 96
7, 105472, Note_off_c, 5, 64, 0
7, 105472, Note_off_c, 5, 64, 0
7, 105472, Note_off_c, 5, 67, 0
7, 105472, Note_off_c, 5, 64, 0
7, 105472, Note_off_c, 5, 60, 0
7, 110848, Note_on_c, 5, 84, 96
7, 110848, Note_on_c, 5, 84, 96
7, 111104, Note_off_c, 5, 84, 0
7, 111104, Note_on_c, 5, 83, 96
7, 111104, Note_off_c, 5, 84, 0
7, 111104, Note_on_c, 5, 83, 96
7, 111360, Note_off_c, 5, 83, 0
7, 111360, Note_on_c, 5, 84, 96
7, 111360, Note_off_c, 5, 83, 0
7, 111360, Note_on_c, 5, 84, 96
7, 111616, Note_off_c, 5, 84, 0
7, 111616, Note_on_c, 5, 76, 96
7, 111616, Note_off_c, 5, 84, 0
7, 111616, Note_on_c, 5, 76, 96
7, 111616, Note_on_c, 5, 72, 96
7, 111616, Note_on_c, 5, 67, 96
7, 111616, Note_on_c, 5, 64, 96
7, 111872, Note_off_c, 5, 76, 0
7, 111872, Note_on_c, 5, 84, 96
7, 111872, Note_off_c, 5, 76, 0
7, 111872, Note_on_c, 5, 84, 96
7, 112128, Note_off_c, 5, 84, 0
7, 112128, Note_on_c, 5, 88, 96
7, 112128, Note_off_c, 5, 84, 0
7, 112128, Note_on_c, 5, 88, 96
7, 112128, Note_off_c, 5, 72, 0
7, 112128, Note_on_c, 5, 72, 96
7, 112128, Note_off_c, 5, 67, 0
7, 112128, Note_on_c, 5, 67, 96
7, 112128, Note_off_c, 5, 64, 0
7, 112128, Note_on_c, 5, 64, 96
7, 112384, Note_off_c, 5, 88, 0
7, 112384, Note_on_c, 5, 84, 96
7, 112384, Note_off_c, 5, 88, 0
7, 112384, Note_on_c, 5, 84, 96
7, 112640, Note_off_c, 5, 84, 0
7, 112640, Note_on_c, 5, 83, 96
7, 112640, Note_off_c, 5, 84, 0
7, 112640, Note_on_c, 5, 83, 96
7, 112640, Note_off_c, 5, 72, 0
7, 112640, Note_on_c, 5, 72, 96
7, 112640, Note_off_c, 5, 67, 0
7, 112640, Note_on_c, 5, 67, 96
7, 112640, Note_off_c, 5, 64, 0
7, 112640, Note_on_c, 5, 64, 96
7, 112896, Note_off_c, 5, 83, 0
7, 112896, Note_on_c, 5, 84, 96
7, 112896, Note_off_c, 5, 83, 0
7, 112896, Note_on_c, 5, 84, 96
7, 113152, Note_off_c, 5, 84, 0
7, 113152, Note_on_c, 5, 79, 96
7, 113152, Note_off_c, 5, 84, 0
7, 113152, Note_on_c, 5, 79, 96
7, 113152, Note_off_c, 5, 72, 0
7, 113152, Note_on_c, 5, 72, 96
7, 113152, Note_off_c, 5, 67, 0
7, 113152, Note_on_c, 5, 67, 96
7, 113152, Note_off_c, 5, 64, 0
7, 113152, Note_on_c, 5, 64, 96
7, 113408, Note_off_c, 5, 79, 0
7, 113408, Note_on_c, 5, 84, 96
7, 113408, Note_off_c, 5, 79, 0
7, 113408, Note_on_c, 5, 84, 96
7, 113664, Note_off_c, 5, 84, 0
7, 113664, Note_on_c, 5, 76, 96
7, 113664, Note_off_c, 5, 84, 0
7, 113664, Note_on_c, 5, 76, 96
7, 113664, Note_off_c, 5, 72, 0
7, 113664, Note_on_c, 5, 72, 96
7, 113664, Note_off_c, 5, 67, 0
7, 113664, Note_on_c, 5, 67, 96
7, 113664, Note_off_c, 5, 64, 0
7, 113664, Note_on_c, 5, 64, 96
7, 113920, Note_off_c, 5, 76, 0
7, 113920, Note_on_c, 5, 84, 96
7, 113920, Note_off_c, 5, 76, 0
7, 113920, Note_on_c, 5, 84, 96
7, 114176, Note_off_c, 5, 84, 0
7, 114176, Note_on_c, 5, 83, 96
7, 114176, Note_off_c, 5, 84, 0
7, 114176, Note_on_c, 5, 83, 96
7, 114176, Note_off_c, 5, 72, 0
7, 114176, Note_on_c, 5, 72, 96
7, 114176, Note_off_c, 5, 67, 0
7, 114176, Note_on_c, 5, 67, 96
7, 114176, Note_off_c, 5, 64, 0
7, 114176, Note_on_c, 5, 64, 96
7, 114432, Note_off_c, 5, 83, 0
7, 114432, Note_on_c, 5, 84, 96
7, 114432, Note_off_c, 5, 83, 0
7, 114432, Note_on_c, 5, 84, 96
7, 114688, Note_off_c, 5, 84, 0
7, 114688, Note_on_c, 5, 79, 96
7, 114688, Note_off_c, 5, 84, 0
7, 114688, Note_on_c, 5, 79, 96
7, 114688, Note_off_c, 5, 72, 0
7, 114688, Note_on_c, 5, 72, 96
7, 114688, Note_off_c, 5, 67, 0
7, 114688, Note_on_c, 5, 67, 96
7, 114688, Note_off_c, 5, 64, 0
7, 114688, Note_on_c, 5, 64, 96
7, 114944, Note_off_c, 5, 79, 0
7, 114944, Note_on_c, 5, 84, 96
7, 114944, Note_off_c, 5, 79, 0
7, 114944, Note_on_c, 5, 84, 96
7, 115200, Note_off_c, 5, 84, 0
7, 115200, Note_on_c, 5, 88, 96
7, 115200, Note_off_c, 5, 84, 0
7, 115200, Note_on_c, 5, 88, 96
7, 115200, Note_off_c, 5, 72, 0
7, 115200, Note_on_c, 5, 72, 96
7, 115200, Note_off_c, 5, 67, 0
7, 115200, Note_on_c, 5, 67, 96
7, 115200, Note_off_c, 5, 64, 0
7, 115200, Note_on_c, 5, 64, 96
7, 115456, Note_off_c, 5, 88, 0
7, 115456, Note_on_c, 5, 84, 96
7, 115456, Note_off_c, 5, 88, 0
7, 115456, Note_on_c, 5, 84, 96
7, 115712, Note_off_c, 5, 84, 0
7, 115712, Note_on_c, 5, 83, 96
7, 115712, Note_off_c, 5, 84, 0
7, 115712, Note_on_c, 5, 83, 96
7, 115712, Note_off_c, 5, 72, 0
7, 115712, Note_on_c, 5, 72, 96
7, 115712, Note_off_c, 5, 67, 0
7, 115712, Note_on_c, 5, 67, 96
7, 115712, Note_off_c, 5, 64, 0
7, 115712, Note_on_c, 5, 64, 96
7, 115968, Note_off_c, 5, 83, 0
7, 115968, Note_on_c, 5, 84, 96
7, 115968, Note_off_c, 5, 83, 0
7, 115968, Note_on_c, 5, 84, 96
7, 116224, Note_off_c, 5, 84, 0
7, 116224, Note_on_c, 5, 79, 96
7, 116224, Note_off_c, 5, 84, 0
7, 116224, Note_on_c, 5, 79, 96
7, 116224, Note_off_c, 5, 72, 0
7, 116224, Note_on_c, 5, 72, 96
7, 116224, Note_off_c, 5, 67, 0
7, 116224, Note_on_c, 5, 67, 96
7, 116224, Note_off_c, 5, 64, 0
7, 116224, Note_on_c, 5, 64, 96
7, 116480, Note_off_c, 5, 79, 0
7, 116480, Note_on_c, 5, 84, 96
7, 116480, Note_off_c, 5, 79, 0
7, 116480, Note_on_c, 5, 84, 96
7, 116736, Note_off_c, 5, 84, 0
7, 116736, Note_off_c, 5, 84, 0
7, 116736, Note_off_c, 5, 72, 0
7, 116736, Note_off_c, 5, 67, 0
7, 116736, Note_off_c, 5, 64, 0
7, 116736, Note_on_c, 5, 76, 96
7, 116736, Note_on_c, 5, 76, 96
7, 116736, Note_on_c, 5, 72, 96
7, 116736, Note_on_c, 5, 67, 96
7, 116736, Note_on_c, 5, 64, 96
7, 116992, Note_off_c, 5, 76, 0
7, 116992, Note_on_c, 5, 79, 96
7, 116992, Note_off_c, 5, 76, 0
7, 116992, Note_on_c, 5, 79, 96
7, 117248, Note_off_c, 5, 79, 0
7, 117248, Note_on_c, 5, 77, 96
7, 117248, Note_off_c, 5, 79, 0
7, 117248, Note_on_c, 5, 77, 96
7, 117504, Note_off_c, 5, 77, 0
7, 117504, Note_on_c, 5, 79, 96
7, 117504, Note_off_c, 5, 77, 0
7, 117504, Note_on_c, 5, 79, 96
7, 117760, Note_off_c, 5, 79, 0
7, 117760, Note_on_c, 5, 72, 96
7, 117760, Note_off_c, 5, 79, 0
7, 117760, Note_on_c, 5, 72, 96
7, 117760, Note_off_c, 5, 72, 0
7, 117760, Note_on_c, 5, 67, 96
7, 117760, Note_off_c, 5, 67, 0
7, 117760, Note_off_c, 5, 64, 0
7, 118016, Note_off_c, 5, 72, 0
7, 118016, Note_on_c, 5, 76, 96
7, 118016, Note_off_c, 5, 72, 0
7, 118016, Note_on_c, 5, 76, 96
7, 118272, Note_off_c, 5, 76, 0
7, 118272, Note_on_c, 5, 77, 96
7, 118272, Note_off_c, 5, 76, 0
7, 118272, Note_on_c, 5, 77, 96
7, 118272, Note_off_c, 5, 67, 0
7, 118272, Note_on_c, 5, 72, 96
7, 118528, Note_off_c, 5, 77, 0
7, 118528, Note_on_c, 5, 72, 96
7, 118528, Note_off_c, 5, 77, 0
7, 118528, Note_on_c, 5, 72, 96
7, 118784, Note_off_c, 5, 72, 0
7, 118784, Note_on_c, 5, 70, 96
7, 118784, Note_off_c, 5, 72, 0
7, 118784, Note_on_c, 5, 70, 96
7, 119040, Note_off_c, 5, 70, 0
7, 119040, Note_on_c, 5, 72, 96
7, 119040, Note_off_c, 5, 70, 0
7, 119040, Note_on_c, 5, 72, 96
7, 119296, Note_off_c, 5, 72, 0
7, 119296, Note_on_c, 5, 69, 96
7, 119296, Note_off_c, 5, 72, 0
7, 119296, Note_on_c, 5, 69, 96
7, 119296, Note_off_c, 5, 72, 0
7, 119296, Note_on_c, 5, 74, 96
7, 119552, Note_off_c, 5, 69, 0
7, 119552, Note_on_c, 5, 72, 96
7, 119552, Note_off_c, 5, 69, 0
7, 119552, Note_on_c, 5, 72, 96
7, 119808, Note_off_c, 5, 72, 0
7, 119808, Note_on_c, 5, 65, 96
7, 119808, Note_off_c, 5, 72, 0
7, 119808, Note_on_c, 5, 65, 96
7, 119808, Note_off_c, 5, 74, 0
7, 119808, Note_on_c, 5, 72, 96
7, 120064, Note_off_c, 5, 65, 0
7, 120064, Note_on_c, 5, 70, 96
7, 120064, Note_off_c, 5, 65, 0
7, 120064, Note_on_c, 5, 70, 96
7, 120320, Note_off_c, 5, 70, 0
7, 120320, Note_on_c, 5, 69, 96
7, 120320, Note_off_c, 5, 70, 0
7, 120320, Note_on_c, 5, 69, 96
7, 120320, Note_off_c, 5, 72, 0
7, 120320, Note_on_c, 5, 70, 96
7, 120576, Note_off_c, 5, 69, 0
7, 120576, Note_on_c, 5, 70, 96
7, 120576, Note_off_c, 5, 69, 0
7, 120576, Note_on_c, 5, 70, 96
7, 120832, Note_off_c, 5, 70, 0
7, 120832, Note_on_c, 5, 62, 96
7, 120832, Note_off_c, 5, 70, 0
7, 120832, Note_on_c, 5, 62, 96
7, 120832, Note_off_c, 5, 70, 0
7, 120832, Note_on_c, 5, 69, 96
7, 121088, Note_off_c, 5, 62, 0
7, 121088, Note_on_c, 5, 65, 96
7, 121088, Note_off_c, 5, 62, 0
7, 121088, Note_on_c, 5, 65, 96
7, 121344, Note_off_c, 5, 65, 0
7, 121344, Note_on_c, 5, 70, 96
7, 121344, Note_off_c, 5, 65, 0
7, 121344, Note_on_c, 5, 70, 96
7, 121344, Note_off_c, 5, 69, 0
7, 121344, Note_on_c, 5, 70, 96
7, 121600, Note_off_c, 5, 70, 0
7, 121600, Note_on_c, 5, 67, 96
7, 121600, Note_off_c, 5, 70, 0
7, 121600, Note_on_c, 5, 67, 96
7, 121856, Note_off_c, 5, 67, 0
7, 121856, Note_on_c, 5, 65, 96
7, 121856, Note_off_c, 5, 67, 0
7, 121856, Note_on_c, 5, 65, 96
7, 121856, Note_off_c, 5, 70, 0
7, 121856, Note_on_c, 5, 74, 96
7, 122112, Note_off_c, 5, 65, 0
7, 122112, Note_on_c, 5, 67, 96
7, 122112, Note_off_c, 5, 65, 0
7, 122112, Note_on_c, 5, 67, 96
7, 122368, Note_off_c, 5, 67, 0
7, 122368, Note_on_c, 5, 64, 96
7, 122368, Note_off_c, 5, 67, 0
7, 122368, Note_on_c, 5, 64, 96
7, 122368, Note_off_c, 5, 74, 0
7, 122368, Note_on_c, 5, 72, 96
7, 122624, Note_off_c, 5, 64, 0
7, 122624, Note_on_c, 5, 67, 96
7, 122624, Note_off_c, 5, 64, 0
7, 122624, Note_on_c, 5, 67, 96
7, 122880, Note_off_c, 5, 67, 0
7, 122880, Note_off_c, 5, 67, 0
7, 122880, Note_off_c, 5, 72, 0
7, 122880, Note_on_c, 5, 60, 96
7, 122880, Note_on_c, 5, 60, 96
7, 122880, Note_on_c, 5, 70, 96
7, 123392, Note_off_c, 5, 70, 0
7, 123392, Note_on_c, 5, 69, 96
7, 123904, Note_off_c, 5, 60, 0
7, 123904, Note_off_c, 5, 60, 0
7, 123904, Note_off_c, 5, 69, 0
7, 123904, Note_on_c, 5, 67, 96
7, 123904, Note_on_c, 5, 53, 96
7, 124416, Note_off_c, 5, 67, 0
7, 124416, Note_on_c, 5, 69, 96
7, 124416, Note_off_c, 5, 53, 0
7, 124416, Note_on_c, 5, 60, 96
7, 125440, Note_off_c, 5, 60, 0
7, 125440, Note_on_c, 5, 62, 96
7, 125952, Note_off_c, 5, 62, 0
7, 125952, Note_on_c, 5, 60, 96
7, 126464, Note_off_c, 5, 69, 0
7, 126464, Note_on_c, 5, 67, 96
7, 126464, Note_off_c, 5, 60, 0
7, 126464, Note_on_c, 5, 58, 96
7, 126976, Note_off_c, 5, 67, 0
7, 126976, Note_on_c, 5, 65, 96
7, 126976, Note_off_c, 5, 58, 0
7, 126976, Note_on_c, 5, 57, 96
7, 127488, Note_off_c, 5, 65, 0
7, 127488, Note_on_c, 5, 67, 96
7, 127488, Note_off_c, 5, 57, 0
7, 127488, Note_on_c, 5, 58, 96
7, 128000, Note_off_c, 5, 58, 0
7, 128000, Note_on_c, 5, 62, 96
7, 128512, Note_off_c, 5, 62, 0
7, 128512, Note_on_c, 5, 60, 96
7, 129024, Note_off_c, 5, 60, 0
7, 129024, Note_on_c, 5, 58, 96
7, 129536, Note_off_c, 5, 67, 0
7, 129536, Note_on_c, 5, 72, 96
7, 129536, Note_off_c, 5, 58, 0
7, 129536, Note_on_c, 5, 57, 96
7, 130048, Note_off_c, 5, 72, 0
7, 130048, Note_on_c, 5, 69, 96
7, 130048, Note_on_c, 5, 60, 96
7, 130048, Note_off_c, 5, 57, 0
7, 130048, Note_on_c, 5, 53, 96
7, 130560, Note_off_c, 5, 69, 0
7, 130560, Note_on_c, 5, 65, 96
7, 130560, Note_off_c, 5, 60, 0
7, 130560, Note_on_c, 5, 65, 96
7, 130560, Note_off_c, 5, 53, 0
7, 130560, Note_on_c, 5, 62, 96
7, 131584, Note_off_c, 5, 65, 0
7, 131584, Note_on_c, 5, 67, 96
7, 132096, Note_off_c, 5, 65, 0
7, 132096, Note_on_c, 5, 67, 96
7, 132096, Note_off_c, 5, 67, 0
7, 132096, Note_on_c, 5, 65, 96
7, 132608, Note_off_c, 5, 65, 0
7, 132608, Note_on_c, 5, 63, 96
7, 132608, Note_off_c, 5, 62, 0
7, 132608, Note_on_c, 5, 60, 96
7, 133120, Note_off_c, 5, 63, 0
7, 133120, Note_on_c, 5, 62, 96
7, 133120, Note_off_c, 5, 60, 0
7, 133120, Note_on_c, 5, 58, 96
7, 133632, Note_off_c, 5, 67, 0
7, 133632, Note_on_c, 5, 69, 96
7, 133632, Note_off_c, 5, 62, 0
7, 133632, Note_on_c, 5, 63, 96
7, 133632, Note_off_c, 5, 58, 0
7, 133632, Note_on_c, 5, 60, 96
7, 134144, Note_off_c, 5, 63, 0
7, 134144, Note_on_c, 5, 67, 96
7, 134656, Note_off_c, 5, 67, 0
7, 134656, Note_on_c, 5, 65, 96
7, 135168, Note_off_c, 5, 69, 0
7, 135168, Note_off_c, 5, 65, 0
7, 135168, Note_on_c, 5, 70, 96
7, 135168, Note_on_c, 5, 63, 96
7, 135680, Note_off_c, 5, 63, 0
7, 135680, Note_on_c, 5, 62, 96
7, 135680, Note_off_c, 5, 60, 0
7, 135680, Note_on_c, 5, 58, 96
7, 136192, Note_on_c, 5, 67, 96
7, 136192, Note_on_c, 5, 67, 96
7, 136192, Note_off_c, 5, 62, 0
7, 136192, Note_on_c, 5, 64, 96
7, 136192, Note_off_c, 5, 58, 0
7, 136192, Note_on_c, 5, 60, 96
7, 136704, Note_off_c, 5, 67, 0
7, 136704, Note_on_c, 5, 72, 96
7, 136704, Note_off_c, 5, 67, 0
7, 136704, Note_on_c, 5, 72, 96
7, 136704, Note_off_c, 5, 70, 0
7, 136704, Note_on_c, 5, 69, 96
7, 136704, Note_off_c, 5, 64, 0
7, 136704, Note_on_c, 5, 65, 96
7, 136704, Note_off_c, 5, 60, 0
7, 136704, Note_on_c, 5, 60, 96
7, 137728, Note_off_c, 5, 72, 0
7, 137728, Note_on_c, 5, 74, 96
7, 137728, Note_off_c, 5, 72, 0
7, 137728, Note_on_c, 5, 74, 96
7, 137728, Note_off_c, 5, 60, 0
7, 137728, Note_on_c, 5, 65, 96
7, 138240, Note_off_c, 5, 74, 0
7, 138240, Note_on_c, 5, 70, 96
7, 138240, Note_off_c, 5, 74, 0
7, 138240, Note_on_c, 5, 70, 96
7, 138240, Note_off_c, 5, 69, 0
7, 138240, Note_on_c, 5, 67, 96
7, 138240, Note_off_c, 5, 65, 0
7, 138240, Note_on_c, 5, 62, 96
7, 138752, Note_off_c, 5, 65, 0
7, 138752, Note_on_c, 5, 67, 96
7, 138752, Note_off_c, 5, 62, 0
7, 138752, Note_on_c, 5, 61, 96
7, 139264, Note_off_c, 5, 70, 0
7, 139264, Note_on_c, 5, 69, 96
7, 139264, Note_off_c, 5, 70, 0
7, 139264, Note_on_c, 5, 69, 96
7, 139264, Note_off_c, 5, 67, 0
7, 139264, Note_on_c, 5, 65, 96
7, 139264, Note_off_c, 5, 61, 0
7, 139264, Note_on_c, 5, 62, 96
7, 139776, Note_off_c, 5, 69, 0
7, 139776, Note_on_c, 5, 70, 96
7, 139776, Note_off_c, 5, 69, 0
7, 139776, Note_on_c, 5, 70, 96
7, 139776, Note_off_c, 5, 67, 0
7, 139776, Note_on_c, 5, 67, 96
7, 139776, Note_off_c, 5, 65, 0
7, 139776, Note_on_c, 5, 64, 96
7, 139776, Note_off_c, 5, 62, 0
7, 139776, Note_on_c, 5, 64, 96
7, 140288, Note_off_c, 5, 70, 0
7, 140288, Note_on_c, 5, 67, 96
7, 140288, Note_off_c, 5, 70, 0
7, 140288, Note_on_c, 5, 67, 96
7, 140288, Note_off_c, 5, 64, 0
7, 140288, Note_on_c, 5, 69, 96
7, 140800, Note_off_c, 5, 67, 0
7, 140800, Note_on_c, 5, 69, 96
7, 140800, Note_off_c, 5, 67, 0
7, 140800, Note_on_c, 5, 69, 96
7, 140800, Note_off_c, 5, 69, 0
7, 140800, Note_on_c, 5, 64, 96
7, 140800, Note_off_c, 5, 64, 0
7, 140800, Note_on_c, 5, 61, 96
7, 141312, Note_off_c, 5, 69, 0
7, 141312, Note_off_c, 5, 69, 0
7, 141312, Note_off_c, 5, 67, 0
7, 141312, Note_off_c, 5, 64, 0
7, 141312, Note_off_c, 5, 61, 0
7, 141312, Note_on_c, 5, 69, 96
7, 141312, Note_on_c, 5, 69, 96
7, 141312, Note_on_c, 5, 65, 96
7, 141312, Note_on_c, 5, 62, 96
7, 141312, Note_on_c, 5, 57, 96
7, 141568, Note_off_c, 5, 69, 0
7, 141568, Note_on_c, 5, 77, 96
7, 141568, Note_off_c, 5, 69, 0
7, 141568, Note_on_c, 5, 77, 96
7, 141824, Note_off_c, 5, 77, 0
7, 141824, Note_on_c, 5, 76, 96
7, 141824, Note_off_c, 5, 77, 0
7, 141824, Note_on_c, 5, 76, 96
7, 142080, Note_off_c, 5, 76, 0
7, 142080, Note_on_c, 5, 77, 96
7, 142080, Note_off_c, 5, 76, 0
7, 142080, Note_on_c, 5, 77, 96
7, 142336, Note_off_c, 5, 77, 0
7, 142336, Note_on_c, 5, 72, 96
7, 142336, Note_off_c, 5, 77, 0
7, 142336, Note_on_c, 5, 72, 96
7, 142336, Note_off_c, 5, 65, 0
7, 142336, Note_on_c, 5, 67, 96
7, 142336, Note_off_c, 5, 62, 0
7, 142336, Note_on_c, 5, 60, 96
7, 142336, Note_off_c, 5, 57, 0
7, 142336, Note_on_c, 5, 60, 96
7, 142592, Note_off_c, 5, 72, 0
7, 142592, Note_on_c, 5, 76, 96
7, 142592, Note_off_c, 5, 72, 0
7, 142592, Note_on_c, 5, 76, 96
7, 142848, Note_off_c, 5, 76, 0
7, 142848, Note_on_c, 5, 81, 96
7, 142848, Note_off_c, 5, 76, 0
7, 142848, Note_on_c, 5, 81, 96
7, 142848, Note_off_c, 5, 67, 0
7, 142848, Note_on_c, 5, 65, 96
7, 142848, Note_off_c, 5, 60, 0
7, 142848, Note_on_c, 5, 60, 96
7, 142848, Note_off_c, 5, 60, 0
7, 142848, Note_on_c, 5, 57, 96
7, 143104, Note_off_c, 5, 81, 0
7, 143104, Note_on_c, 5, 77, 96
7, 143104, Note_off_c, 5, 81, 0
7, 143104, Note_on_c, 5, 77, 96
7, 143360, Note_off_c, 5, 77, 0
7, 143360, Note_on_c, 5, 76, 96
7, 143360, Note_off_c, 5, 77, 0
7, 143360, Note_on_c, 5, 76, 96
7, 143360, Note_off_c, 5, 65, 0
7, 143360, Note_on_c, 5, 65, 96
7, 143360, Note_off_c, 5, 60, 0
7, 143360, Note_on_c, 5, 60, 96
7, 143360, Note_off_c, 5, 57, 0
7, 143360, Note_on_c, 5, 57, 96
7, 143616, Note_off_c, 5, 76, 0
7, 143616, Note_on_c, 5, 77, 96
7, 143616, Note_off_c, 5, 76, 0
7, 143616, Note_on_c, 5, 77, 96
7, 143872, Note_off_c, 5, 77, 0
7, 143872, Note_on_c, 5, 72, 96
7, 143872, Note_off_c, 5, 77, 0
7, 143872, Note_on_c, 5, 72, 96
7, 143872, Note_off_c, 5, 65, 0
7, 143872, Note_on_c, 5, 65, 96
7, 143872, Note_off_c, 5, 60, 0
7, 143872, Note_on_c, 5, 60, 96
7, 143872, Note_off_c, 5, 57, 0
7, 143872, Note_on_c, 5, 57, 96
7, 144128, Note_off_c, 5, 72, 0
7, 144128, Note_on_c, 5, 77, 96
7, 144128, Note_off_c, 5, 72, 0
7, 144128, Note_on_c, 5, 77, 96
7, 144384, Note_off_c, 5, 77, 0
7, 144384, Note_on_c, 5, 69, 96
7, 144384, Note_off_c, 5, 77, 0
7, 144384, Note_on_c, 5, 69, 96
7, 144384, Note_off_c, 5, 65, 0
7, 144384, Note_on_c, 5, 65, 96
7, 144384, Note_off_c, 5, 60, 0
7, 144384, Note_on_c, 5, 60, 96
7, 144384, Note_off_c, 5, 57, 0
7, 144384, Note_on_c, 5, 57, 96
7, 144640, Note_off_c, 5, 69, 0
7, 144640, Note_on_c, 5, 77, 96
7, 144640, Note_off_c, 5, 69, 0
7, 144640, Note_on_c, 5, 77, 96
7, 144896, Note_off_c, 5, 77, 0
7, 144896, Note_on_c, 5, 76, 96
7, 144896, Note_off_c, 5, 77, 0
7, 144896, Note_on_c, 5, 76, 96
7, 144896, Note_off_c, 5, 65, 0
7, 144896, Note_on_c, 5, 65, 96
7, 144896, Note_off_c, 5, 60, 0
7, 144896, Note_on_c, 5, 60, 96
7, 144896, Note_off_c, 5, 57, 0
7, 144896, Note_on_c, 5, 57, 96
7, 145152, Note_off_c, 5, 76, 0
7, 145152, Note_on_c, 5, 77, 96
7, 145152, Note_off_c, 5, 76, 0
7, 145152, Note_on_c, 5, 77, 96
7, 145408, Note_off_c, 5, 77, 0
7, 145408, Note_on_c, 5, 72, 96
7, 145408, Note_off_c, 5, 77, 0
7, 145408, Note_on_c, 5, 72, 96
7, 145408, Note_off_c, 5, 65, 0
7, 145408, Note_on_c, 5, 65, 96
7, 145408, Note_off_c, 5, 60, 0
7, 145408, Note_on_c, 5, 60, 96
7, 145408, Note_off_c, 5, 57, 0
7, 145408, Note_on_c, 5, 57, 96
7, 145664, Note_off_c, 5, 72, 0
7, 145664, Note_on_c, 5, 77, 96
7, 145664, Note_off_c, 5, 72, 0
7, 145664, Note_on_c, 5, 77, 96
7, 145920, Note_off_c, 5, 77, 0
7, 145920, Note_on_c, 5, 81, 96
7, 145920, Note_off_c, 5, 77, 0
7, 145920, Note_on_c, 5, 81, 96
7, 145920, Note_off_c, 5, 65, 0
7, 145920, Note_on_c, 5, 65, 96
7, 145920, Note_off_c, 5, 60, 0
7, 145920, Note_on_c, 5, 60, 96
7, 145920, Note_off_c, 5, 57, 0
7, 145920, Note_on_c, 5, 57, 96
7, 146176, Note_off_c, 5, 81, 0
7, 146176, Note_on_c, 5, 77, 96
7, 146176, Note_off_c, 5, 81, 0
7, 146176, Note_on_c, 5, 77, 96
7, 146432, Note_off_c, 5, 77, 0
7, 146432, Note_on_c, 5, 76, 96
7, 146432, Note_off_c, 5, 77, 0
7, 146432, Note_on_c, 5, 76, 96
7, 146432, Note_off_c, 5, 65, 0
7, 146432, Note_on_c, 5, 65, 96
7, 146432, Note_off_c, 5, 60, 0
7, 146432, Note_on_c, 5, 60, 96
7, 146432, Note_off_c, 5, 57, 0
7, 146432, Note_on_c, 5, 57, 96
7, 146688, Note_off_c, 5, 76, 0
7, 146688, Note_on_c, 5, 77, 96
7, 146688, Note_off_c, 5, 76, 0
7, 146688, Note_on_c, 5, 77, 96
7, 146944, Note_off_c, 5, 77, 0
7, 146944, Note_on_c, 5, 72, 96
7, 146944, Note_off_c, 5, 77, 0
7, 146944, Note_on_c, 5, 72, 96
7, 146944, Note_off_c, 5, 65, 0
7, 146944, Note_on_c, 5, 65, 96
7, 146944, Note_off_c, 5, 60, 0
7, 146944, Note_on_c, 5, 60, 96
7, 146944, Note_off_c, 5, 57, 0
7, 146944, Note_on_c, 5, 57, 96
7, 147200, Note_off_c, 5, 72, 0
7, 147200, Note_on_c, 5, 77, 96
7, 147200, Note_off_c, 5, 72, 0
7, 147200, Note_on_c, 5, 77, 96
7, 147456, Note_off_c, 5, 77, 0
7, 147456, Note_off_c, 5, 77, 0
7, 147456, Note_off_c, 5, 65, 0
7, 147456, Note_off_c, 5, 60, 0
7, 147456, Note_off_c, 5, 57, 0
7, 147456, Note_on_c, 5, 65, 96
7, 147456, Note_on_c, 5, 65, 96
7, 147456, Note_on_c, 5, 65, 96
7, 147456, Note_on_c, 5, 58, 96
7, 147456, Note_on_c, 5, 53, 96
7, 147712, Note_off_c, 5, 65, 0
7, 147712, Note_on_c, 5, 70, 96
7, 147712, Note_off_c, 5, 65, 0
7, 147712, Note_on_c, 5, 70, 96
7, 147968, Note_off_c, 5, 70, 0
7, 147968, Note_on_c, 5, 69, 96
7, 147968, Note_off_c, 5, 70, 0
7, 147968, Note_on_c, 5, 69, 96
7, 148224, Note_off_c, 5, 69, 0
7, 148224, Note_on_c, 5, 70, 96
7, 148224, Note_off_c, 5, 69, 0
7, 148224, Note_on_c, 5, 70, 96
7, 148480, Note_off_c, 5, 70, 0
7, 148480, Note_on_c, 5, 65, 96
7, 148480, Note_off_c, 5, 70, 0
7, 148480, Note_on_c, 5, 65, 96
7, 148480, Note_off_c, 5, 65, 0
7, 148480, Note_off_c, 5, 58, 0
7, 148480, Note_on_c, 5, 65, 96
7, 148480, Note_off_c, 5, 53, 0
7, 148736, Note_off_c, 5, 65, 0
7, 148736, Note_on_c, 5, 70, 96
7, 148736, Note_off_c, 5, 65, 0
7, 148736, Note_on_c, 5, 70, 96
7, 148992, Note_off_c, 5, 70, 0
7, 148992, Note_on_c, 5, 74, 96
7, 148992, Note_off_c, 5, 70, 0
7, 148992, Note_on_c, 5, 74, 96
7, 148992, Note_off_c, 5, 65, 0
7, 148992, Note_on_c, 5, 58, 96
7, 149248, Note_off_c, 5, 74, 0
7, 149248, Note_on_c, 5, 70, 96
7, 149248, Note_off_c, 5, 74, 0
7, 149248, Note_on_c, 5, 70, 96
7, 149504, Note_off_c, 5, 70, 0
7, 149504, Note_on_c, 5, 69, 96
7, 149504, Note_off_c, 5, 70, 0
7, 149504, Note_on_c, 5, 69, 96
7, 149760, Note_off_c, 5, 69, 0
7, 149760, Note_on_c, 5, 70, 96
7, 149760, Note_off_c, 5, 69, 0
7, 149760, Note_on_c, 5, 70, 96
7, 150016, Note_off_c, 5, 70, 0
7, 150016, Note_on_c, 5, 67, 96
7, 150016, Note_off_c, 5, 70, 0
7, 150016, Note_on_c, 5, 67, 96
7, 150016, Note_off_c, 5, 58, 0
7, 150016, Note_on_c, 5, 62, 96
7, 150272, Note_off_c, 5, 67, 0
7, 150272, Note_on_c, 5, 70, 96
7, 150272, Note_off_c, 5, 67, 0
7, 150272, Note_on_c, 5, 70, 96
7, 150528, Note_off_c, 5, 70, 0
7, 150528, Note_on_c, 5, 64, 96
7, 150528, Note_off_c, 5, 70, 0
7, 150528, Note_on_c, 5, 64, 96
7, 150528, Note_off_c, 5, 62, 0
7, 150528, Note_on_c, 5, 60, 96
7, 150784, Note_off_c, 5, 64, 0
7, 150784, Note_on_c, 5, 76, 96
7, 150784, Note_off_c, 5, 64, 0
7, 150784, Note_on_c, 5, 76, 96
7, 151040, Note_off_c, 5, 76, 0
7, 151040, Note_on_c, 5, 74, 96
7, 151040, Note_off_c, 5, 76, 0
7, 151040, Note_on_c, 5, 74, 96
7, 151040, Note_off_c, 5, 60, 0
7, 151040, Note_on_c, 5, 58, 96
7, 151296, Note_off_c, 5, 74, 0
7, 151296, Note_on_c, 5, 76, 96
7, 151296, Note_off_c, 5, 74, 0
7, 151296, Note_on_c, 5, 76, 96
7, 151552, Note_off_c, 5, 76, 0
7, 151552, Note_on_c, 5, 72, 96
7, 151552, Note_off_c, 5, 76, 0
7, 151552, Note_on_c, 5, 72, 96
7, 151552, Note_off_c, 5, 58, 0
7, 151552, Note_on_c, 5, 57, 96
7, 151552, Note_on_c, 5, 48, 96
7, 151808, Note_off_c, 5, 72, 0
7, 151808, Note_on_c, 5, 76, 96
7, 151808, Note_off_c, 5, 72, 0
7, 151808, Note_on_c, 5, 76, 96
7, 152064, Note_off_c, 5, 76, 0
7, 152064, Note_on_c, 5, 79, 96
7, 152064, Note_off_c, 5, 76, 0
7, 152064, Note_on_c, 5, 79, 96
7, 152064, Note_off_c, 5, 57, 0
7, 152064, Note_on_c, 5, 58, 96
7, 152064, Note_off_c, 5, 48, 0
7, 152064, Note_on_c, 5, 55, 96
7, 152320, Note_off_c, 5, 79, 0
7, 152320, Note_on_c, 5, 67, 96
7, 152320, Note_off_c, 5, 79, 0
7, 152320, Note_on_c, 5, 67, 96
7, 152576, Note_off_c, 5, 67, 0
7, 152576, Note_on_c, 5, 65, 96
7, 152576, Note_off_c, 5, 67, 0
7, 152576, Note_on_c, 5, 65, 96
7, 152576, Note_off_c, 5, 58, 0
7, 152576, Note_on_c, 5, 62, 96
7, 152832, Note_off_c, 5, 65, 0
7, 152832, Note_on_c, 5, 67, 96
7, 152832, Note_off_c, 5, 65, 0
7, 152832, Note_on_c, 5, 67, 96
7, 153088, Note_off_c, 5, 67, 0
7, 153088, Note_on_c, 5, 64, 96
7, 153088, Note_off_c, 5, 67, 0
7, 153088, Note_on_c, 5, 64, 96
7, 153088, Note_off_c, 5, 62, 0
7, 153088, Note_on_c, 5, 60, 96
7, 153088, Note_off_c, 5, 55, 0
7, 153088, Note_on_c, 5, 57, 96
7, 153344, Note_off_c, 5, 64, 0
7, 153344, Note_on_c, 5, 67, 96
7, 153344, Note_off_c, 5, 64, 0
7, 153344, Note_on_c, 5, 67, 96
7, 153600, Note_off_c, 5, 67, 0
7, 153600, Note_off_c, 5, 67, 0
7, 153600, Note_off_c, 5, 60, 0
7, 153600, Note_off_c, 5, 57, 0
7, 153600, Note_on_c, 5, 69, 96
7, 153600, Note_on_c, 5, 69, 96
7, 153600, Note_on_c, 5, 57, 96
7, 153600, Note_on_c, 5, 53, 96
7, 153856, Note_off_c, 5, 69, 0
7, 153856, Note_on_c, 5, 72, 96
7, 153856, Note_off_c, 5, 69, 0
7, 153856, Note_on_c, 5, 72, 96
7, 154112, Note_off_c, 5, 72, 0
7, 154112, Note_on_c, 5, 70, 96
7, 154112, Note_off_c, 5, 72, 0
7, 154112, Note_on_c, 5, 70, 96
7, 154368, Note_off_c, 5, 70, 0
7, 154368, Note_on_c, 5, 72, 96
7, 154368, Note_off_c, 5, 70, 0
7, 154368, Note_on_c, 5, 72, 96
7, 154624, Note_off_c, 5, 72, 0
7, 154624, Note_on_c, 5, 69, 96
7, 154624, Note_off_c, 5, 72, 0
7, 154624, Note_on_c, 5, 69, 96
7, 154624, Note_on_c, 5, 60, 96
7, 154624, Note_off_c, 5, 57, 0
7, 154624, Note_on_c, 5, 57, 96
7, 154624, Note_off_c, 5, 53, 0
7, 154624, Note_on_c, 5, 52, 96
7, 154880, Note_off_c, 5, 69, 0
7, 154880, Note_on_c, 5, 72, 96
7, 154880, Note_off_c, 5, 69, 0
7, 154880, Note_on_c, 5, 72, 96
7, 155136, Note_off_c, 5, 72, 0
7, 155136, Note_on_c, 5, 77, 96
7, 155136, Note_off_c, 5, 72, 0
7, 155136, Note_on_c, 5, 77, 96
7, 155136, Note_off_c, 5, 60, 0
7, 155136, Note_on_c, 5, 69, 96
7, 155136, Note_off_c, 5, 57, 0
7, 155136, Note_on_c, 5, 62, 96
7, 155136, Note_off_c, 5, 52, 0
7, 155136, Note_on_c, 5, 50, 96
7, 155392, Note_off_c, 5, 77, 0
7, 155392, Note_on_c, 5, 69, 96
7, 155392, Note_off_c, 5, 77, 0
7, 155392, Note_on_c, 5, 69, 96
7, 155648, Note_off_c, 5, 69, 0
7, 155648, Note_on_c, 5, 67, 96
7, 155648, Note_off_c, 5, 69, 0
7, 155648, Note_on_c, 5, 67, 96
7, 155648, Note_off_c, 5, 62, 0
7, 155648, Note_on_c, 5, 64, 96
7, 155904, Note_off_c, 5, 67, 0
7, 155904, Note_on_c, 5, 69, 96
7, 155904, Note_off_c, 5, 67, 0
7, 155904, Note_on_c, 5, 69, 96
7, 156160, Note_off_c, 5, 69, 0
7, 156160, Note_on_c, 5, 65, 96
7, 156160, Note_off_c, 5, 69, 0
7, 156160, Note_on_c, 5, 65, 96
7, 156160, Note_off_c, 5, 69, 0
7, 156160, Note_on_c, 5, 70, 96
7, 156160, Note_off_c, 5, 64, 0
7, 156160, Note_on_c, 5, 65, 96
7, 156416, Note_off_c, 5, 65, 0
7, 156416, Note_on_c, 5, 69, 96
7, 156416, Note_off_c, 5, 65, 0
7, 156416, Note_on_c, 5, 69, 96
7, 156672, Note_off_c, 5, 69, 0
7, 156672, Note_on_c, 5, 59, 96
7, 156672, Note_off_c, 5, 69, 0
7, 156672, Note_on_c, 5, 59, 96
7, 156672, Note_off_c, 5, 70, 0
7, 156672, Note_on_c, 5, 67, 96
7, 156672, Note_off_c, 5, 65, 0
7, 156672, Note_on_c, 5, 59, 96
7, 156928, Note_off_c, 5, 59, 0
7, 156928, Note_on_c, 5, 71, 96
7, 156928, Note_off_c, 5, 59, 0
7, 156928, Note_on_c, 5, 71, 96
7, 157184, Note_off_c, 5, 71, 0
7, 157184, Note_on_c, 5, 69, 96
7, 157184, Note_off_c, 5, 71, 0
7, 157184, Note_on_c, 5, 69, 96
7, 157184, Note_off_c, 5, 59, 0
7, 157184, Note_on_c, 5, 60, 96
7, 157184, Note_off_c, 5, 50, 0
7, 157184, Note_on_c, 5, 52, 96
7, 157440, Note_off_c, 5, 69, 0
7, 157440, Note_on_c, 5, 71, 96
7, 157440, Note_off_c, 5, 69, 0
7, 157440, Note_on_c, 5, 71, 96
7, 157696, Note_off_c, 5, 71, 0
7, 157696, Note_on_c, 5, 67, 96
7, 157696, Note_off_c, 5, 71, 0
7, 157696, Note_on_c, 5, 67, 96
7, 157696, Note_off_c, 5, 67, 0
7, 157696, Note_on_c, 5, 65, 96
7, 157696, Note_off_c, 5, 60, 0
7, 157696, Note_on_c, 5, 62, 96
7, 157696, Note_off_c, 5, 52, 0
7, 157696, Note_on_c, 5, 50, 96
7, 157952, Note_off_c, 5, 67, 0
7, 157952, Note_on_c, 5, 71, 96
7, 157952, Note_off_c, 5, 67, 0
7, 157952, Note_on_c, 5, 71, 96
7, 158208, Note_off_c, 5, 71, 0
7, 158208, Note_on_c, 5, 76, 96
7, 158208, Note_off_c, 5, 71, 0
7, 158208, Note_on_c, 5, 76, 96
7, 158208, Note_off_c, 5, 65, 0
7, 158208, Note_on_c, 5, 67, 96
7, 158208, Note_off_c, 5, 62, 0
7, 158208, Note_on_c, 5, 64, 96
7, 158208, Note_off_c, 5, 50, 0
7, 158208, Note_on_c, 5, 48, 96
7, 158464, Note_off_c, 5, 76, 0
7, 158464, Note_on_c, 5, 67, 96
7, 158464, Note_off_c, 5, 76, 0
7, 158464, Note_on_c, 5, 67, 96
7, 158720, Note_off_c, 5, 67, 0
7, 158720, Note_on_c, 5, 65, 96
7, 158720, Note_off_c, 5, 67, 0
7, 158720, Note_on_c, 5, 65, 96
7, 158720, Note_off_c, 5, 67, 0
7, 158720, Note_on_c, 5, 70, 96
7, 158720, Note_off_c, 5, 64, 0
7, 158720, Note_on_c, 5, 62, 96
7, 158720, Note_off_c, 5, 48, 0
7, 158720, Note_on_c, 5, 50, 96
7, 158976, Note_off_c, 5, 65, 0
7, 158976, Note_on_c, 5, 67, 96
7, 158976, Note_off_c, 5, 65, 0
7, 158976, Note_on_c, 5, 67, 96
7, 159232, Note_off_c, 5, 67, 0
7, 159232, Note_on_c, 5, 64, 96
7, 159232, Note_off_c, 5, 67, 0
7, 159232, Note_on_c, 5, 64, 96
7, 159232, Note_off_c, 5, 70, 0
7, 159232, Note_on_c, 5, 69, 96
7, 159232, Note_off_c, 5, 62, 0
7, 159232, Note_on_c, 5, 60, 96
7, 159232, Note_off_c, 5, 50, 0
7, 159232, Note_on_c, 5, 52, 96
7, 159488, Note_off_c, 5, 64, 0
7, 159488, Note_on_c, 5, 67, 96
7, 159488, Note_off_c, 5, 64, 0
7, 159488, Note_on_c, 5, 67, 96
7, 159744, Note_off_c, 5, 67, 0
7, 159744, Note_off_c, 5, 67, 0
7, 159744, Note_off_c, 5, 69, 0
7, 159744, Note_off_c, 5, 60, 0
7, 159744, Note_off_c, 5, 52, 0
7, 159744, Note_on_c, 5, 57, 96
7, 159744, Note_on_c, 5, 57, 96
7, 159744, Note_on_c, 5, 65, 96
7, 159744, Note_on_c, 5, 62, 96
7, 159744, Note_on_c, 5, 53, 96
7, 160000, Note_off_c, 5, 57, 0
7, 160000, Note_on_c, 5, 69, 96
7, 160000, Note_off_c, 5, 57, 0
7, 160000, Note_on_c, 5, 69, 96
7, 160256, Note_off_c, 5, 69, 0
7, 160256, Note_on_c, 5, 67, 96
7, 160256, Note_off_c, 5, 69, 0
7, 160256, Note_on_c, 5, 67, 96
7, 160512, Note_off_c, 5, 67, 0
7, 160512, Note_on_c, 5, 69, 96
7, 160512, Note_off_c, 5, 67, 0
7, 160512, Note_on_c, 5, 69, 96
7, 160768, Note_off_c, 5, 69, 0
7, 160768, Note_on_c, 5, 65, 96
7, 160768, Note_off_c, 5, 69, 0
7, 160768, Note_on_c, 5, 65, 96
7, 160768, Note_off_c, 5, 65, 0
7, 160768, Note_on_c, 5, 67, 96
7, 160768, Note_off_c, 5, 62, 0
7, 160768, Note_on_c, 5, 64, 96
7, 160768, Note_off_c, 5, 53, 0
7, 160768, Note_on_c, 5, 52, 96
7, 161024, Note_off_c, 5, 65, 0
7, 161024, Note_on_c, 5, 69, 96
7, 161024, Note_off_c, 5, 65, 0
7, 161024, Note_on_c, 5, 69, 96
7, 161280, Note_off_c, 5, 69, 0
7, 161280, Note_on_c, 5, 74, 96
7, 161280, Note_off_c, 5, 69, 0
7, 161280, Note_on_c, 5, 74, 96
7, 161280, Note_off_c, 5, 67, 0
7, 161280, Note_on_c, 5, 69, 96
7, 161280, Note_off_c, 5, 64, 0
7, 161280, Note_on_c, 5, 65, 96
7, 161280, Note_off_c, 5, 52, 0
7, 161280, Note_on_c, 5, 50, 96
7, 161536, Note_off_c, 5, 74, 0
7, 161536, Note_on_c, 5, 65, 96
7, 161536, Note_off_c, 5, 74, 0
7, 161536, Note_on_c, 5, 65, 96
7, 161792, Note_off_c, 5, 65, 0
7, 161792, Note_on_c, 5, 64, 96
7, 161792, Note_off_c, 5, 65, 0
7, 161792, Note_on_c, 5, 64, 96
7, 161792, Note_off_c, 5, 69, 0
7, 161792, Note_on_c, 5, 67, 96
7, 161792, Note_off_c, 5, 50, 0
7, 161792, Note_on_c, 5, 52, 96
7, 162048, Note_off_c, 5, 64, 0
7, 162048, Note_on_c, 5, 65, 96
7, 162048, Note_off_c, 5, 64, 0
7, 162048, Note_on_c, 5, 65, 96
7, 162304, Note_off_c, 5, 65, 0
7, 162304, Note_on_c, 5, 62, 96
7, 162304, Note_off_c, 5, 65, 0
7, 162304, Note_on_c, 5, 62, 96
7, 162304, Note_off_c, 5, 67, 0
7, 162304, Note_on_c, 5, 69, 96
7, 162304, Note_off_c, 5, 52, 0
7, 162304, Note_on_c, 5, 53, 96
7, 162560, Note_off_c, 5, 62, 0
7, 162560, Note_on_c, 5, 65, 96
7, 162560, Note_off_c, 5, 62, 0
7, 162560, Note_on_c, 5, 65, 96
7, 162816, Note_on_c, 5, 55, 96
7, 162816, Note_off_c, 5, 65, 0
7, 162816, Note_on_c, 5, 55, 96
7, 162816, Note_off_c, 5, 69, 0
7, 162816, Note_on_c, 5, 71, 96
7, 162816, Note_off_c, 5, 65, 0
7, 162816, Note_off_c, 5, 53, 0
7, 162816, Note_on_c, 5, 55, 96
7, 163072, Note_off_c, 5, 55, 0
7, 163072, Note_on_c, 5, 65, 96
7, 163072, Note_off_c, 5, 55, 0
7, 163072, Note_on_c, 5, 65, 96
7, 163328, Note_off_c, 5, 65, 0
7, 163328, Note_on_c, 5, 64, 96
7, 163328, Note_off_c, 5, 65, 0
7, 163328, Note_on_c, 5, 64, 96
7, 163328, Note_off_c, 5, 71, 0
7, 163328, Note_on_c, 5, 67, 96
7, 163584, Note_off_c, 5, 64, 0
7, 163584, Note_on_c, 5, 65, 96
7, 163584, Note_off_c, 5, 64, 0
7, 163584, Note_on_c, 5, 65, 96
7, 163840, Note_off_c, 5, 65, 0
7, 163840, Note_on_c, 5, 62, 96
7, 163840, Note_off_c, 5, 65, 0
7, 163840, Note_on_c, 5, 62, 96
7, 163840, Note_off_c, 5, 67, 0
7, 163840, Note_on_c, 5, 69, 96
7, 163840, Note_off_c, 5, 65, 0
7, 163840, Note_on_c, 5, 62, 96
7, 163840, Note_off_c, 5, 55, 0
7, 163840, Note_on_c, 5, 53, 96
7, 164096, Note_off_c, 5, 62, 0
7, 164096, Note_on_c, 5, 65, 96
7, 164096, Note_off_c, 5, 62, 0
7, 164096, Note_on_c, 5, 65, 96
7, 164352, Note_off_c, 5, 65, 0
7, 164352, Note_on_c, 5, 74, 96
7, 164352, Note_off_c, 5, 65, 0
7, 164352, Note_on_c, 5, 74, 96
7, 164352, Note_off_c, 5, 69, 0
7, 164352, Note_on_c, 5, 67, 96
7, 164352, Note_off_c, 5, 62, 0
7, 164352, Note_on_c, 5, 59, 96
7, 164352, Note_off_c, 5, 53, 0
7, 164352, Note_on_c, 5, 55, 96
7, 164608, Note_off_c, 5, 74, 0
7, 164608, Note_on_c, 5, 65, 96
7, 164608, Note_off_c, 5, 74, 0
7, 164608, Note_on_c, 5, 65, 96
7, 164864, Note_off_c, 5, 65, 0
7, 164864, Note_on_c, 5, 64, 96
7, 164864, Note_off_c, 5, 65, 0
7, 164864, Note_on_c, 5, 64, 96
7, 164864, Note_off_c, 5, 67, 0
7, 164864, Note_on_c, 5, 69, 96
7, 164864, Note_off_c, 5, 59, 0
7, 164864, Note_on_c, 5, 60, 96
7, 165120, Note_off_c, 5, 64, 0
7, 165120, Note_on_c, 5, 65, 96
7, 165120, Note_off_c, 5, 64, 0
7, 165120, Note_on_c, 5, 65, 96
7, 165376, Note_off_c, 5, 65, 0
7, 165376, Note_on_c, 5, 62, 96
7, 165376, Note_off_c, 5, 65, 0
7, 165376, Note_on_c, 5, 62, 96
7, 165376, Note_off_c, 5, 69, 0
7, 165376, Note_on_c, 5, 71, 96
7, 165376, Note_off_c, 5, 60, 0
7, 165376, Note_on_c, 5, 62, 96
7, 165632, Note_off_c, 5, 62, 0
7, 165632, Note_on_c, 5, 65, 96
7, 165632, Note_off_c, 5, 62, 0
7, 165632, Note_on_c, 5, 65, 96
7, 165888, Note_off_c, 5, 65, 0
7, 165888, Note_off_c, 5, 65, 0
7, 165888, Note_off_c, 5, 71, 0
7, 165888, Note_off_c, 5, 62, 0
7, 165888, Note_on_c, 5, 55, 96
7, 165888, Note_on_c, 5, 55, 96
7, 165888, Note_on_c, 5, 64, 96
7, 165888, Note_on_c, 5, 55, 96
7, 166144, Note_off_c, 5, 55, 0
7, 166144, Note_on_c, 5, 76, 96
7, 166144, Note_off_c, 5, 55, 0
7, 166144, Note_on_c, 5, 76, 96
7, 166400, Note_off_c, 5, 76, 0
7, 166400, Note_on_c, 5, 74, 96
7, 166400, Note_off_c, 5, 76, 0
7, 166400, Note_on_c, 5, 74, 96
7, 166400, Note_off_c, 5, 55, 0
7, 166400, Note_on_c, 5, 52, 96
7, 166656, Note_off_c, 5, 74, 0
7, 166656, Note_on_c, 5, 76, 96
7, 166656, Note_off_c, 5, 74, 0
7, 166656, Note_on_c, 5, 76, 96
7, 166912, Note_off_c, 5, 76, 0
7, 166912, Note_on_c, 5, 72, 96
7, 166912, Note_off_c, 5, 76, 0
7, 166912, Note_on_c, 5, 72, 96
7, 166912, Note_off_c, 5, 64, 0
7, 166912, Note_on_c, 5, 60, 96
7, 166912, Note_off_c, 5, 55, 0
7, 166912, Note_on_c, 5, 67, 96
7, 166912, Note_off_c, 5, 52, 0
7, 166912, Note_on_c, 5, 55, 96
7, 167168, Note_off_c, 5, 72, 0
7, 167168, Note_on_c, 5, 76, 96
7, 167168, Note_off_c, 5, 72, 0
7, 167168, Note_on_c, 5, 76, 96
7, 167424, Note_off_c, 5, 76, 0
7, 167424, Note_on_c, 5, 79, 96
7, 167424, Note_off_c, 5, 76, 0
7, 167424, Note_on_c, 5, 79, 96
7, 167424, Note_off_c, 5, 60, 0
7, 167424, Note_on_c, 5, 70, 96
7, 167424, Note_off_c, 5, 67, 0
7, 167424, Note_on_c, 5, 64, 96
7, 167424, Note_off_c, 5, 55, 0
7, 167424, Note_on_c, 5, 60, 96
7, 167680, Note_off_c, 5, 79, 0
7, 167680, Note_on_c, 5, 76, 96
7, 167680, Note_off_c, 5, 79, 0
7, 167680, Note_on_c, 5, 76, 96
7, 167936, Note_off_c, 5, 76, 0
7, 167936, Note_on_c, 5, 74, 96
7, 167936, Note_off_c, 5, 76, 0
7, 167936, Note_on_c, 5, 74, 96
7, 167936, Note_off_c, 5, 64, 0
7, 167936, Note_on_c, 5, 65, 96
7, 167936, Note_off_c, 5, 60, 0
7, 167936, Note_on_c, 5, 55, 96
7, 168192, Note_off_c, 5, 74, 0
7, 168192, Note_on_c, 5, 76, 96
7, 168192, Note_off_c, 5, 74, 0
7, 168192, Note_on_c, 5, 76, 96
7, 168448, Note_off_c, 5, 76, 0
7, 168448, Note_on_c, 5, 72, 96
7, 168448, Note_off_c, 5, 76, 0
7, 168448, Note_on_c, 5, 72, 96
7, 168448, Note_off_c, 5, 70, 0
7, 168448, Note_on_c, 5, 72, 96
7, 168448, Note_off_c, 5, 65, 0
7, 168448, Note_on_c, 5, 67, 96
7, 168448, Note_off_c, 5, 55, 0
7, 168448, Note_on_c, 5, 52, 96
7, 168704, Note_off_c, 5, 72, 0
7, 168704, Note_on_c, 5, 76, 96
7, 168704, Note_off_c, 5, 72, 0
7, 168704, Note_on_c, 5, 76, 96
7, 168960, Note_off_c, 5, 76, 0
7, 168960, Note_on_c, 5, 65, 96
7, 168960, Note_off_c, 5, 76, 0
7, 168960, Note_on_c, 5, 65, 96
7, 168960, Note_off_c, 5, 72, 0
7, 168960, Note_on_c, 5, 70, 96
7, 168960, Note_off_c, 5, 67, 0
7, 168960, Note_on_c, 5, 60, 96
7, 168960, Note_off_c, 5, 52, 0
7, 168960, Note_on_c, 5, 53, 96
7, 169216, Note_off_c, 5, 65, 0
7, 169216, Note_on_c, 5, 72, 96
7, 169216, Note_off_c, 5, 65, 0
7, 169216, Note_on_c, 5, 72, 96
7, 169472, Note_off_c, 5, 72, 0
7, 169472, Note_on_c, 5, 70, 96
7, 169472, Note_off_c, 5, 72, 0
7, 169472, Note_on_c, 5, 70, 96
7, 169472, Note_off_c, 5, 70, 0
7, 169472, Note_on_c, 5, 69, 96
7, 169728, Note_off_c, 5, 70, 0
7, 169728, Note_on_c, 5, 72, 96
7, 169728, Note_off_c, 5, 70, 0
7, 169728, Note_on_c, 5, 72, 96
7, 169984, Note_off_c, 5, 72, 0
7, 169984, Note_on_c, 5, 69, 96
7, 169984, Note_off_c, 5, 72, 0
7, 169984, Note_on_c, 5, 69, 96
7, 169984, Note_off_c, 5, 69, 0
7, 169984, Note_on_c, 5, 67, 96
7, 169984, Note_off_c, 5, 60, 0
7, 169984, Note_on_c, 5, 64, 96
7, 169984, Note_off_c, 5, 53, 0
7, 169984, Note_on_c, 5, 60, 96
7, 170240, Note_off_c, 5, 69, 0
7, 170240, Note_on_c, 5, 72, 96
7, 170240, Note_off_c, 5, 69, 0
7, 170240, Note_on_c, 5, 72, 96
7, 170496, Note_off_c, 5, 72, 0
7, 170496, Note_on_c, 5, 77, 96
7, 170496, Note_off_c, 5, 72, 0
7, 170496, Note_on_c, 5, 77, 96
7, 170496, Note_off_c, 5, 67, 0
7, 170496, Note_on_c, 5, 69, 96
7, 170496, Note_off_c, 5, 64, 0
7, 170496, Note_on_c, 5, 65, 96
7, 170496, Note_off_c, 5, 60, 0
7, 170496, Note_on_c, 5, 60, 96
7, 170752, Note_off_c, 5, 77, 0
7, 170752, Note_on_c, 5, 65, 96
7, 170752, Note_off_c, 5, 77, 0
7, 170752, Note_on_c, 5, 65, 96
7, 171008, Note_off_c, 5, 65, 0
7, 171008, Note_on_c, 5, 64, 96
7, 171008, Note_off_c, 5, 65, 0
7, 171008, Note_on_c, 5, 64, 96
7, 171008, Note_off_c, 5, 69, 0
7, 171008, Note_on_c, 5, 72, 96
7, 171008, Note_off_c, 5, 65, 0
7, 171008, Note_on_c, 5, 60, 96
7, 171008, Note_off_c, 5, 60, 0
7, 171008, Note_on_c, 5, 57, 96
7, 171264, Note_off_c, 5, 64, 0
7, 171264, Note_on_c, 5, 65, 96
7, 171264, Note_off_c, 5, 64, 0
7, 171264, Note_on_c, 5, 65, 96
7, 171520, Note_off_c, 5, 65, 0
7, 171520, Note_on_c, 5, 62, 96
7, 171520, Note_off_c, 5, 65, 0
7, 171520, Note_on_c, 5, 62, 96
7, 171520, Note_off_c, 5, 72, 0
7, 171520, Note_on_c, 5, 71, 96
7, 171520, Note_off_c, 5, 60, 0
7, 171520, Note_on_c, 5, 62, 96
7, 171520, Note_off_c, 5, 57, 0
7, 171520, Note_on_c, 5, 53, 96
7, 171776, Note_off_c, 5, 62, 0
7, 171776, Note_on_c, 5, 65, 96
7, 171776, Note_off_c, 5, 62, 0
7, 171776, Note_on_c, 5, 65, 96
7, 172032, Note_off_c, 5, 65, 0
7, 172032, Note_off_c, 5, 65, 0
7, 172032, Note_off_c, 5, 71, 0
7, 172032, Note_off_c, 5, 62, 0
7, 172032, Note_off_c, 5, 53, 0
7, 172032, Note_on_c, 5, 64, 96
7, 172032, Note_on_c, 5, 64, 96
7, 172032, Note_on_c, 5, 72, 96
7, 172032, Note_on_c, 5, 55, 96
7, 172032, Note_on_c, 5, 48, 96
7, 173056, Note_off_c, 5, 64, 0
7, 173056, Note_off_c, 5, 64, 0
7, 173056, Note_off_c, 5, 72, 0
7, 173056, Note_off_c, 5, 55, 0
7, 173056, Note_off_c, 5, 48, 0
7, 177664, Note_on_c, 5, 76, 96
7, 177664, Note_on_c, 5, 76, 96
7, 177664, Note_on_c, 5, 76, 96
7, 177664, Note_on_c, 5, 69, 96
7, 177664, Note_on_c, 5, 64, 96
7, 178176, Note_off_c, 5, 76, 0
7, 178176, Note_off_c, 5, 76, 0
7, 178176, Note_off_c, 5, 76, 0
7, 178176, Note_off_c, 5, 69, 0
7, 178176, Note_off_c, 5, 64, 0
7, 178176, Note_on_c, 5, 77, 96
7, 178176, Note_on_c, 5, 77, 96
7, 178176, Note_on_c, 5, 77, 96
7, 178176, Note_on_c, 5, 69, 96
7, 178176, Note_on_c, 5, 62, 96
7, 179712, Note_off_c, 5, 77, 0
7, 179712, Note_off_c, 5, 77, 0
7, 179712, Note_off_c, 5, 77, 0
7, 179712, Note_off_c, 5, 69, 0
7, 179712, Note_off_c, 5, 62, 0
7, 183808, Note_on_c, 5, 78, 96
7, 183808, Note_on_c, 5, 78, 96
7, 183808, Note_on_c, 5, 78, 96
7, 183808, Note_on_c, 5, 74, 96
7, 183808, Note_on_c, 5, 69, 96
7, 184320, Note_off_c, 5, 78, 0
7, 184320, Note_off_c, 5, 78, 0
7, 184320, Note_off_c, 5, 78, 0
7, 184320, Note_off_c, 5, 74, 0
7, 184320, Note_off_c, 5, 69, 0
7, 184320, Note_on_c, 5, 79, 96
7, 184320, Note_on_c, 5, 79, 96
7, 184320, Note_on_c, 5, 79, 96
7, 184320, Note_on_c, 5, 74, 96
7, 184320, Note_on_c, 5, 70, 96
7, 185344, Note_off_c, 5, 79, 0
7, 185344, Note_on_c, 5, 84, 96
7, 185344, Note_off_c, 5, 79, 0
7, 185344, Note_on_c, 5, 72, 96
7, 185344, Note_off_c, 5, 79, 0
7, 185344, Note_off_c, 5, 74, 0
7, 185344, Note_off_c, 5, 70, 0
7, 185856, Note_off_c, 5, 84, 0
7, 185856, Note_on_c, 5, 81, 96
7, 185856, Note_off_c, 5, 72, 0
7, 185856, Note_on_c, 5, 77, 96
7, 186368, Note_off_c, 5, 81, 0
7, 186368, Note_on_c, 5, 84, 96
7, 186368, Note_off_c, 5, 77, 0
7, 186368, Note_on_c, 5, 81, 96
7, 186880, Note_off_c, 5, 84, 0
7, 186880, Note_on_c, 5, 82, 96
7, 186880, Note_off_c, 5, 81, 0
7, 186880, Note_on_c, 5, 79, 96
7, 187392, Note_off_c, 5, 82, 0
7, 187392, Note_on_c, 5, 81, 96
7, 187392, Note_off_c, 5, 79, 0
7, 187392, Note_on_c, 5, 77, 96
7, 187904, Note_off_c, 5, 81, 0
7, 187904, Note_on_c, 5, 84, 96
7, 187904, Note_off_c, 5, 77, 0
7, 187904, Note_on_c, 5, 81, 96
7, 188416, Note_off_c, 5, 84, 0
7, 188416, Note_on_c, 5, 82, 96
7, 188416, Note_off_c, 5, 81, 0
7, 188416, Note_on_c, 5, 79, 96
7, 188928, Note_off_c, 5, 82, 0
7, 188928, Note_on_c, 5, 81, 96
7, 188928, Note_off_c, 5, 79, 0
7, 188928, Note_on_c, 5, 77, 96
7, 189440, Note_off_c, 5, 81, 0
7, 189440, Note_on_c, 5, 82, 96
7, 189440, Note_off_c, 5, 77, 0
7, 189440, Note_on_c, 5, 79, 96
7, 189696, Note_off_c, 5, 82, 0
7, 189696, Note_on_c, 5, 81, 96
7, 189696, Note_off_c, 5, 79, 0
7, 189696, Note_on_c, 5, 77, 96
7, 189952, Note_off_c, 5, 81, 0
7, 189952, Note_on_c, 5, 79, 96
7, 189952, Note_off_c, 5, 77, 0
7, 189952, Note_on_c, 5, 76, 96
7, 189952, Note_on_c, 5, 81, 96
7, 189952, Note_on_c, 5, 72, 96
7, 189952, Note_on_c, 5, 69, 96
7, 190208, Note_off_c, 5, 79, 0
7, 190208, Note_on_c, 5, 77, 96
7, 190208, Note_off_c, 5, 76, 0
7, 190208, Note_on_c, 5, 74, 96
7, 190464, Note_off_c, 5, 77, 0
7, 190464, Note_off_c, 5, 74, 0
7, 190464, Note_off_c, 5, 81, 0
7, 190464, Note_off_c, 5, 72, 0
7, 190464, Note_off_c, 5, 69, 0
7, 190464, Note_on_c, 5, 79, 96
7, 190464, Note_on_c, 5, 76, 96
7, 190464, Note_on_c, 5, 84, 96
7, 190464, Note_on_c, 5, 76, 96
7, 190464, Note_on_c, 5, 67, 96
7, 190720, Note_off_c, 5, 79, 0
7, 190720, Note_on_c, 5, 76, 96
7, 190720, Note_off_c, 5, 76, 0
7, 190720, Note_on_c, 5, 76, 96
7, 190976, Note_off_c, 5, 76, 0
7, 190976, Note_on_c, 5, 77, 96
7, 190976, Note_off_c, 5, 76, 0
7, 190976, Note_on_c, 5, 77, 96
7, 191232, Note_off_c, 5, 77, 0
7, 191232, Note_on_c, 5, 79, 96
7, 191232, Note_off_c, 5, 77, 0
7, 191232, Note_on_c, 5, 79, 96
7, 191488, Note_off_c, 5, 79, 0
7, 191488, Note_on_c, 5, 81, 96
7, 191488, Note_off_c, 5, 79, 0
7, 191488, Note_on_c, 5, 81, 96
7, 191488, Note_off_c, 5, 84, 0
7, 191488, Note_on_c, 5, 77, 96
7, 191488, Note_off_c, 5, 76, 0
7, 191488, Note_on_c, 5, 77, 96
7, 191488, Note_off_c, 5, 67, 0
7, 191488, Note_on_c, 5, 65, 96
7, 191744, Note_off_c, 5, 81, 0
7, 191744, Note_on_c, 5, 82, 96
7, 191744, Note_off_c, 5, 81, 0
7, 191744, Note_on_c, 5, 82, 96
7, 192000, Note_off_c, 5, 82, 0
7, 192000, Note_on_c, 5, 84, 96
7, 192000, Note_off_c, 5, 82, 0
7, 192000, Note_on_c, 5, 84, 96
7, 192000, Note_off_c, 5, 77, 0
7, 192000, Note_on_c, 5, 84, 96
7, 192000, Note_off_c, 5, 77, 0
7, 192000, Note_on_c, 5, 81, 96
7, 192000, Note_off_c, 5, 65, 0
7, 192000, Note_on_c, 5, 65, 96
7, 193024, Note_off_c, 5, 84, 0
7, 193024, Note_on_c, 5, 86, 96
7, 193024, Note_off_c, 5, 84, 0
7, 193024, Note_on_c, 5, 86, 96
7, 193024, Note_off_c, 5, 84, 0
7, 193024, Note_on_c, 5, 86, 96
7, 193024, Note_off_c, 5, 81, 0
7, 193024, Note_on_c, 5, 82, 96
7, 193024, Note_off_c, 5, 65, 0
7, 193024, Note_on_c, 5, 62, 96
7, 193536, Note_off_c, 5, 86, 0
7, 193536, Note_on_c, 5, 82, 96
7, 193536, Note_off_c, 5, 86, 0
7, 193536, Note_on_c, 5, 82, 96
7, 193536, Note_off_c, 5, 86, 0
7, 193536, Note_on_c, 5, 82, 96
7, 193536, Note_off_c, 5, 82, 0
7, 193536, Note_on_c, 5, 79, 96
7, 193536, Note_off_c, 5, 62, 0
7, 193536, Note_on_c, 5, 64, 96
7, 194560, Note_off_c, 5, 82, 0
7, 194560, Note_on_c, 5, 81, 96
7, 194560, Note_off_c, 5, 82, 0
7, 194560, Note_on_c, 5, 81, 96
7, 194560, Note_off_c, 5, 82, 0
7, 194560, Note_on_c, 5, 81, 96
7, 194560, Note_off_c, 5, 79, 0
7, 194560, Note_on_c, 5, 77, 96
7, 194560, Note_off_c, 5, 64, 0
7, 194560, Note_on_c, 5, 60, 96
7, 195072, Note_off_c, 5, 81, 0
7, 195072, Note_on_c, 5, 82, 96
7, 195072, Note_off_c, 5, 81, 0
7, 195072, Note_on_c, 5, 82, 96
7, 195072, Note_off_c, 5, 81, 0
7, 195072, Note_on_c, 5, 82, 96
7, 195072, Note_off_c, 5, 77, 0
7, 195072, Note_on_c, 5, 79, 96
7, 195072, Note_off_c, 5, 60, 0
7, 195072, Note_on_c, 5, 72, 96
7, 195584, Note_off_c, 5, 82, 0
7, 195584, Note_on_c, 5, 79, 96
7, 195584, Note_off_c, 5, 82, 0
7, 195584, Note_on_c, 5, 79, 96
7, 195584, Note_off_c, 5, 82, 0
7, 195584, Note_on_c, 5, 79, 96
7, 195584, Note_off_c, 5, 79, 0
7, 195584, Note_on_c, 5, 72, 96
7, 196096, Note_off_c, 5, 79, 0
7, 196096, Note_on_c, 5, 81, 96
7, 196096, Note_off_c, 5, 79, 0
7, 196096, Note_on_c, 5, 81, 96
7, 196096, Note_off_c, 5, 79, 0
7, 196096, Note_on_c, 5, 81, 96
7, 196096, Note_off_c, 5, 72, 0
7, 196096, Note_on_c, 5, 77, 96
7, 196096, Note_off_c, 5, 72, 0
7, 196096, Note_on_c, 5, 60, 96
7, 196608, Note_off_c, 5, 81, 0
7, 196608, Note_off_c, 5, 81, 0
7, 196608, Note_off_c, 5, 81, 0
7, 196608, Note_off_c, 5, 77, 0
7, 196608, Note_off_c, 5, 60, 0
7, 196608, Note_on_c, 5, 81, 96
7, 196608, Note_on_c, 5, 81, 96
7, 196608, Note_on_c, 5, 81, 96
7, 196608, Note_on_c, 5, 77, 96
7, 196608, Note_on_c, 5, 72, 96
7, 196864, Note_off_c, 5, 81, 0
7, 196864, Note_on_c, 5, 77, 96
7, 196864, Note_off_c, 5, 81, 0
7, 196864, Note_on_c, 5, 77, 96
7, 197120, Note_off_c, 5, 77, 0
7, 197120, Note_on_c, 5, 76, 96
7, 197120, Note_off_c, 5, 77, 0
7, 197120, Note_on_c, 5, 76, 96
7, 197376, Note_off_c, 5, 76, 0
7, 197376, Note_on_c, 5, 77, 96
7, 197376, Note_off_c, 5, 76, 0
7, 197376, Note_on_c, 5, 77, 96
7, 197632, Note_off_c, 5, 77, 0
7, 197632, Note_on_c, 5, 72, 96
7, 197632, Note_off_c, 5, 77, 0
7, 197632, Note_on_c, 5, 72, 96
7, 197632, Note_off_c, 5, 81, 0
7, 197632, Note_on_c, 5, 72, 96
7, 197632, Note_off_c, 5, 77, 0
7, 197632, Note_on_c, 5, 77, 96
7, 197632, Note_off_c, 5, 72, 0
7, 197632, Note_on_c, 5, 65, 96
7, 197888, Note_off_c, 5, 72, 0
7, 197888, Note_on_c, 5, 77, 96
7, 197888, Note_off_c, 5, 72, 0
7, 197888, Note_on_c, 5, 77, 96
7, 198144, Note_off_c, 5, 77, 0
7, 198144, Note_on_c, 5, 81, 96
7, 198144, Note_off_c, 5, 77, 0
7, 198144, Note_on_c, 5, 81, 96
7, 198144, Note_off_c, 5, 72, 0
7, 198144, Note_on_c, 5, 77, 96
7, 198144, Note_off_c, 5, 77, 0
7, 198144, Note_on_c, 5, 72, 96
7, 198144, Note_off_c, 5, 65, 0
7, 198144, Note_on_c, 5, 69, 96
7, 198400, Note_off_c, 5, 81, 0
7, 198400, Note_on_c, 5, 77, 96
7, 198400, Note_off_c, 5, 81, 0
7, 198400, Note_on_c, 5, 77, 96
7, 198656, Note_off_c, 5, 77, 0
7, 198656, Note_on_c, 5, 76, 96
7, 198656, Note_off_c, 5, 77, 0
7, 198656, Note_on_c, 5, 76, 96
7, 198656, Note_off_c, 5, 77, 0
7, 198656, Note_on_c, 5, 77, 96
7, 198656, Note_off_c, 5, 72, 0
7, 198656, Note_on_c, 5, 72, 96
7, 198656, Note_off_c, 5, 69, 0
7, 198656, Note_on_c, 5, 69, 96
7, 198912, Note_off_c, 5, 76, 0
7, 198912, Note_on_c, 5, 77, 96
7, 198912, Note_off_c, 5, 76, 0
7, 198912, Note_on_c, 5, 77, 96
7, 199168, Note_off_c, 5, 77, 0
7, 199168, Note_on_c, 5, 72, 96
7, 199168, Note_off_c, 5, 77, 0
7, 199168, Note_on_c, 5, 72, 96
7, 199168, Note_off_c, 5, 77, 0
7, 199168, Note_on_c, 5, 77, 96
7, 199168, Note_off_c, 5, 72, 0
7, 199168, Note_on_c, 5, 72, 96
7, 199168, Note_off_c, 5, 69, 0
7, 199168, Note_on_c, 5, 69, 96
7, 199424, Note_off_c, 5, 72, 0
7, 199424, Note_on_c, 5, 77, 96
7, 199424, Note_off_c, 5, 72, 0
7, 199424, Note_on_c, 5, 77, 96
7, 199680, Note_off_c, 5, 77, 0
7, 199680, Note_on_c, 5, 69, 96
7, 199680, Note_off_c, 5, 77, 0
7, 199680, Note_on_c, 5, 69, 96
7, 199680, Note_off_c, 5, 77, 0
7, 199680, Note_on_c, 5, 77, 96
7, 199680, Note_off_c, 5, 72, 0
7, 199680, Note_on_c, 5, 72, 96
7, 199680, Note_off_c, 5, 69, 0
7, 199680, Note_on_c, 5, 69, 96
7, 199936, Note_off_c, 5, 69, 0
7, 199936, Note_on_c, 5, 77, 96
7, 199936, Note_off_c, 5, 69, 0
7, 199936, Note_on_c, 5, 77, 96
7, 200192, Note_off_c, 5, 77, 0
7, 200192, Note_on_c, 5, 76, 96
7, 200192, Note_off_c, 5, 77, 0
7, 200192, Note_on_c, 5, 76, 96
7, 200192, Note_off_c, 5, 77, 0
7, 200192, Note_on_c, 5, 77, 96
7, 200192, Note_off_c, 5, 72, 0
7, 200192, Note_on_c, 5, 72, 96
7, 200192, Note_off_c, 5, 69, 0
7, 200192, Note_on_c, 5, 69, 96
7, 200448, Note_off_c, 5, 76, 0
7, 200448, Note_on_c, 5, 77, 96
7, 200448, Note_off_c, 5, 76, 0
7, 200448, Note_on_c, 5, 77, 96
7, 200704, Note_off_c, 5, 77, 0
7, 200704, Note_on_c, 5, 72, 96
7, 200704, Note_off_c, 5, 77, 0
7, 200704, Note_on_c, 5, 72, 96
7, 200704, Note_off_c, 5, 77, 0
7, 200704, Note_on_c, 5, 77, 96
7, 200704, Note_off_c, 5, 72, 0
7, 200704, Note_on_c, 5, 72, 96
7, 200704, Note_off_c, 5, 69, 0
7, 200704, Note_on_c, 5, 69, 96
7, 200960, Note_off_c, 5, 72, 0
7, 200960, Note_on_c, 5, 77, 96
7, 200960, Note_off_c, 5, 72, 0
7, 200960, Note_on_c, 5, 77, 96
7, 201216, Note_off_c, 5, 77, 0
7, 201216, Note_on_c, 5, 81, 96
7, 201216, Note_off_c, 5, 77, 0
7, 201216, Note_on_c, 5, 81, 96
7, 201216, Note_off_c, 5, 77, 0
7, 201216, Note_on_c, 5, 77, 96
7, 201216, Note_off_c, 5, 72, 0
7, 201216, Note_on_c, 5, 72, 96
7, 201216, Note_off_c, 5, 69, 0
7, 201216, Note_on_c, 5, 69, 96
7, 201472, Note_off_c, 5, 81, 0
7, 201472, Note_on_c, 5, 77, 96
7, 201472, Note_off_c, 5, 81, 0
7, 201472, Note_on_c, 5, 77, 96
7, 201728, Note_off_c, 5, 77, 0
7, 201728, Note_on_c, 5, 76, 96
7, 201728, Note_off_c, 5, 77, 0
7, 201728, Note_on_c, 5, 76, 96
7, 201728, Note_off_c, 5, 77, 0
7, 201728, Note_on_c, 5, 77, 96
7, 201728, Note_off_c, 5, 72, 0
7, 201728, Note_on_c, 5, 72, 96
7, 201728, Note_off_c, 5, 69, 0
7, 201728, Note_on_c, 5, 69, 96
7, 201984, Note_off_c, 5, 76, 0
7, 201984, Note_on_c, 5, 77, 96
7, 201984, Note_off_c, 5, 76, 0
7, 201984, Note_on_c, 5, 77, 96
7, 202240, Note_off_c, 5, 77, 0
7, 202240, Note_on_c, 5, 72, 96
7, 202240, Note_off_c, 5, 77, 0
7, 202240, Note_on_c, 5, 72, 96
7, 202240, Note_off_c, 5, 77, 0
7, 202240, Note_on_c, 5, 77, 96
7, 202240, Note_off_c, 5, 72, 0
7, 202240, Note_on_c, 5, 72, 96
7, 202240, Note_off_c, 5, 69, 0
7, 202240, Note_on_c, 5, 69, 96
7, 202496, Note_off_c, 5, 72, 0
7, 202496, Note_on_c, 5, 77, 96
7, 202496, Note_off_c, 5, 72, 0
7, 202496, Note_on_c, 5, 77, 96
7, 202752, Note_off_c, 5, 77, 0
7, 202752, Note_off_c, 5, 77, 0
7, 202752, Note_off_c, 5, 77, 0
7, 202752, Note_off_c, 5, 72, 0
7, 202752, Note_off_c, 5, 69, 0
7, 202752, Note_on_c, 5, 65, 96
7, 202752, Note_on_c, 5, 65, 96
7, 202752, Note_on_c, 5, 77, 96
7, 202752, Note_on_c, 5, 74, 96
7, 202752, Note_on_c, 5, 70, 96
7, 203008, Note_off_c, 5, 65, 0
7, 203008, Note_on_c, 5, 74, 96
7, 203008, Note_off_c, 5, 65, 0
7, 203008, Note_on_c, 5, 74, 96
7, 203264, Note_off_c, 5, 74, 0
7, 203264, Note_on_c, 5, 72, 96
7, 203264, Note_off_c, 5, 74, 0
7, 203264, Note_on_c, 5, 72, 96
7, 203520, Note_off_c, 5, 72, 0
7, 203520, Note_on_c, 5, 74, 96
7, 203520, Note_off_c, 5, 72, 0
7, 203520, Note_on_c, 5, 74, 96
7, 203776, Note_off_c, 5, 74, 0
7, 203776, Note_on_c, 5, 70, 96
7, 203776, Note_off_c, 5, 74, 0
7, 203776, Note_on_c, 5, 70, 96
7, 203776, Note_off_c, 5, 77, 0
7, 203776, Note_on_c, 5, 65, 96
7, 203776, Note_off_c, 5, 74, 0
7, 203776, Note_off_c, 5, 70, 0
7, 203776, Note_on_c, 5, 69, 96
7, 204032, Note_off_c, 5, 70, 0
7, 204032, Note_on_c, 5, 74, 96
7, 204032, Note_off_c, 5, 70, 0
7, 204032, Note_on_c, 5, 74, 96
7, 204288, Note_off_c, 5, 74, 0
7, 204288, Note_on_c, 5, 79, 96
7, 204288, Note_off_c, 5, 74, 0
7, 204288, Note_on_c, 5, 79, 96
7, 204288, Note_off_c, 5, 65, 0
7, 204288, Note_on_c, 5, 70, 96
7, 204288, Note_off_c, 5, 69, 0
7, 204288, Note_on_c, 5, 67, 96
7, 204544, Note_off_c, 5, 79, 0
7, 204544, Note_on_c, 5, 74, 96
7, 204544, Note_off_c, 5, 79, 0
7, 204544, Note_on_c, 5, 74, 96
7, 204800, Note_off_c, 5, 74, 0
7, 204800, Note_on_c, 5, 72, 96
7, 204800, Note_off_c, 5, 74, 0
7, 204800, Note_on_c, 5, 72, 96
7, 204800, Note_off_c, 5, 67, 0
7, 204800, Note_on_c, 5, 69, 96
7, 205056, Note_off_c, 5, 72, 0
7, 205056, Note_on_c, 5, 74, 96
7, 205056, Note_off_c, 5, 72, 0
7, 205056, Note_on_c, 5, 74, 96
7, 205312, Note_off_c, 5, 74, 0
7, 205312, Note_on_c, 5, 70, 96
7, 205312, Note_off_c, 5, 74, 0
7, 205312, Note_on_c, 5, 70, 96
7, 205312, Note_on_c, 5, 62, 96
7, 205312, Note_off_c, 5, 69, 0
7, 205312, Note_on_c, 5, 65, 96
7, 205568, Note_off_c, 5, 70, 0
7, 205568, Note_on_c, 5, 74, 96
7, 205568, Note_off_c, 5, 70, 0
7, 205568, Note_on_c, 5, 74, 96
7, 205824, Note_off_c, 5, 74, 0
7, 205824, Note_on_c, 5, 67, 96
7, 205824, Note_off_c, 5, 74, 0
7, 205824, Note_on_c, 5, 67, 96
7, 205824, Note_off_c, 5, 62, 0
7, 205824, Note_on_c, 5, 67, 96
7, 205824, Note_off_c, 5, 65, 0
7, 205824, Note_on_c, 5, 64, 96
7, 206080, Note_off_c, 5, 67, 0
7, 206080, Note_on_c, 5, 79, 96
7, 206080, Note_off_c, 5, 67, 0
7, 206080, Note_on_c, 5, 79, 96
7, 206336, Note_off_c, 5, 79, 0
7, 206336, Note_on_c, 5, 77, 96
7, 206336, Note_off_c, 5, 79, 0
7, 206336, Note_on_c, 5, 77, 96
7, 206336, Note_off_c, 5, 70, 0
7, 206336, Note_on_c, 5, 69, 96
7, 206592, Note_off_c, 5, 77, 0
7, 206592, Note_on_c, 5, 79, 96
7, 206592, Note_off_c, 5, 77, 0
7, 206592, Note_on_c, 5, 79, 96
7, 206848, Note_off_c, 5, 79, 0
7, 206848, Note_on_c, 5, 76, 96
7, 206848, Note_off_c, 5, 79, 0
7, 206848, Note_on_c, 5, 76, 96
7, 206848, Note_off_c, 5, 69, 0
7, 206848, Note_on_c, 5, 67, 96
7, 207104, Note_off_c, 5, 76, 0
7, 207104, Note_on_c, 5, 79, 96
7, 207104, Note_off_c, 5, 76, 0
7, 207104, Note_on_c, 5, 79, 96
7, 207360, Note_off_c, 5, 79, 0
7, 207360, Note_on_c, 5, 84, 96
7, 207360, Note_off_c, 5, 79, 0
7, 207360, Note_on_c, 5, 84, 96
7, 207360, Note_on_c, 5, 69, 96
7, 207360, Note_off_c, 5, 67, 0
7, 207360, Note_off_c, 5, 64, 0
7, 207360, Note_on_c, 5, 65, 96
7, 207616, Note_off_c, 5, 84, 0
7, 207616, Note_on_c, 5, 82, 96
7, 207616, Note_off_c, 5, 84, 0
7, 207616, Note_on_c, 5, 82, 96
7, 207872, Note_off_c, 5, 82, 0
7, 207872, Note_on_c, 5, 81, 96
7, 207872, Note_off_c, 5, 82, 0
7, 207872, Note_on_c, 5, 81, 96
7, 207872, Note_off_c, 5, 67, 0
7, 207872, Note_on_c, 5, 65, 96
7, 208128, Note_off_c, 5, 81, 0
7, 208128, Note_on_c, 5, 82, 96
7, 208128, Note_off_c, 5, 81, 0
7, 208128, Note_on_c, 5, 82, 96
7, 208384, Note_off_c, 5, 82, 0
7, 208384, Note_on_c, 5, 79, 96
7, 208384, Note_off_c, 5, 82, 0
7, 208384, Note_on_c, 5, 79, 96
7, 208384, Note_off_c, 5, 65, 0
7, 208384, Note_on_c, 5, 63, 96
7, 208384, Note_off_c, 5, 65, 0
7, 208384, Note_on_c, 5, 66, 96
7, 208640, Note_off_c, 5, 79, 0
7, 208640, Note_on_c, 5, 81, 96
7, 208640, Note_off_c, 5, 79, 0
7, 208640, Note_on_c, 5, 81, 96
7, 208896, Note_off_c, 5, 81, 0
7, 208896, Note_off_c, 5, 81, 0
7, 208896, Note_off_c, 5, 63, 0
7, 208896, Note_off_c, 5, 66, 0
7, 208896, Note_on_c, 5, 82, 96
7, 208896, Note_on_c, 5, 82, 96
7, 208896, Note_on_c, 5, 62, 96
7, 208896, Note_on_c, 5, 67, 96
7, 209152, Note_off_c, 5, 82, 0
7, 209152, Note_on_c, 5, 77, 96
7, 209152, Note_off_c, 5, 82, 0
7, 209152, Note_on_c, 5, 77, 96
7, 209408, Note_off_c, 5, 77, 0
7, 209408, Note_on_c, 5, 76, 96
7, 209408, Note_off_c, 5, 77, 0
7, 209408, Note_on_c, 5, 76, 96
7, 209408, Note_off_c, 5, 69, 0
7, 209408, Note_on_c, 5, 67, 96
7, 209408, Note_off_c, 5, 67, 0
7, 209408, Note_on_c, 5, 69, 96
7, 209664, Note_off_c, 5, 76, 0
7, 209664, Note_on_c, 5, 77, 96
7, 209664, Note_off_c, 5, 76, 0
7, 209664, Note_on_c, 5, 77, 96
7, 209920, Note_off_c, 5, 77, 0
7, 209920, Note_on_c, 5, 74, 96
7, 209920, Note_off_c, 5, 77, 0
7, 209920, Note_on_c, 5, 74, 96
7, 209920, Note_off_c, 5, 67, 0
7, 209920, Note_on_c, 5, 65, 96
7, 209920, Note_off_c, 5, 62, 0
7, 209920, Note_on_c, 5, 62, 96
7, 209920, Note_off_c, 5, 69, 0
7, 209920, Note_on_c, 5, 70, 96
7, 210176, Note_off_c, 5, 74, 0
7, 210176, Note_on_c, 5, 77, 96
7, 210176, Note_off_c, 5, 74, 0
7, 210176, Note_on_c, 5, 77, 96
7, 210432, Note_off_c, 5, 77, 0
7, 210432, Note_on_c, 5, 82, 96
7, 210432, Note_off_c, 5, 77, 0
7, 210432, Note_on_c, 5, 82, 96
7, 210432, Note_off_c, 5, 65, 0
7, 210432, Note_on_c, 5, 67, 96
7, 210432, Note_off_c, 5, 62, 0
7, 210432, Note_on_c, 5, 61, 96
7, 210432, Note_off_c, 5, 70, 0
7, 210432, Note_on_c, 5, 64, 96
7, 210688, Note_off_c, 5, 82, 0
7, 210688, Note_on_c, 5, 76, 96
7, 210688, Note_off_c, 5, 82, 0
7, 210688, Note_on_c, 5, 76, 96
7, 210944, Note_off_c, 5, 76, 0
7, 210944, Note_on_c, 5, 74, 96
7, 210944, Note_off_c, 5, 76, 0
7, 210944, Note_on_c, 5, 74, 96
7, 210944, Note_off_c, 5, 61, 0
7, 210944, Note_on_c, 5, 62, 96
7, 210944, Note_off_c, 5, 64, 0
7, 210944, Note_on_c, 5, 65, 96
7, 211200, Note_off_c, 5, 74, 0
7, 211200, Note_on_c, 5, 76, 96
7, 211200, Note_off_c, 5, 74, 0
7, 211200, Note_on_c, 5, 76, 96
7, 211456, Note_off_c, 5, 76, 0
7, 211456, Note_on_c, 5, 73, 96
7, 211456, Note_off_c, 5, 76, 0
7, 211456, Note_on_c, 5, 73, 96
7, 211456, Note_off_c, 5, 62, 0
7, 211456, Note_on_c, 5, 64, 96
7, 211456, Note_off_c, 5, 65, 0
7, 211456, Note_on_c, 5, 67, 96
7, 211712, Note_off_c, 5, 73, 0
7, 211712, Note_on_c, 5, 76, 96
7, 211712, Note_off_c, 5, 73, 0
7, 211712, Note_on_c, 5, 76, 96
7, 211968, Note_off_c, 5, 76, 0
7, 211968, Note_on_c, 5, 69, 96
7, 211968, Note_off_c, 5, 76, 0
7, 211968, Note_on_c, 5, 69, 96
7, 211968, Note_off_c, 5, 64, 0
7, 211968, Note_on_c, 5, 64, 96
7, 211968, Note_off_c, 5, 67, 0
7, 211968, Note_on_c, 5, 61, 96
7, 212224, Note_off_c, 5, 69, 0
7, 212224, Note_on_c, 5, 76, 96
7, 212224, Note_off_c, 5, 69, 0
7, 212224, Note_on_c, 5, 76, 96
7, 212480, Note_off_c, 5, 76, 0
7, 212480, Note_on_c, 5, 74, 96
7, 212480, Note_off_c, 5, 76, 0
7, 212480, Note_on_c, 5, 74, 96
7, 212480, Note_off_c, 5, 67, 0
7, 212480, Note_on_c, 5, 65, 96
7, 212736, Note_off_c, 5, 74, 0
7, 212736, Note_on_c, 5, 76, 96
7, 212736, Note_off_c, 5, 74, 0
7, 212736, Note_on_c, 5, 76, 96
7, 212992, Note_off_c, 5, 76, 0
7, 212992, Note_on_c, 5, 73, 96
7, 212992, Note_off_c, 5, 76, 0
7, 212992, Note_on_c, 5, 73, 96
7, 212992, Note_off_c, 5, 65, 0
7, 212992, Note_on_c, 5, 64, 96
7, 212992, Note_off_c, 5, 64, 0
7, 212992, Note_on_c, 5, 57, 96
7, 213248, Note_off_c, 5, 73, 0
7, 213248, Note_on_c, 5, 76, 96
7, 213248, Note_off_c, 5, 73, 0
7, 213248, Note_on_c, 5, 76, 96
7, 213504, Note_off_c, 5, 76, 0
7, 213504, Note_on_c, 5, 81, 96
7, 213504, Note_off_c, 5, 76, 0
7, 213504, Note_on_c, 5, 81, 96
7, 213504, Note_off_c, 5, 64, 0
7, 213504, Note_on_c, 5, 65, 96
7, 213504, Note_off_c, 5, 57, 0
7, 213504, Note_on_c, 5, 62, 96
7, 213504, Note_off_c, 5, 61, 0
7, 213504, Note_on_c, 5, 62, 96
7, 213760, Note_off_c, 5, 81, 0
7, 213760, Note_on_c, 5, 74, 96
7, 213760, Note_off_c, 5, 81, 0
7, 213760, Note_on_c, 5, 74, 96
7, 214016, Note_off_c, 5, 74, 0
7, 214016, Note_on_c, 5, 72, 96
7, 214016, Note_off_c, 5, 74, 0
7, 214016, Note_on_c, 5, 72, 96
7, 214272, Note_off_c, 5, 72, 0
7, 214272, Note_on_c, 5, 74, 96
7, 214272, Note_off_c, 5, 72, 0
7, 214272, Note_on_c, 5, 74, 96
7, 214528, Note_off_c, 5, 74, 0
7, 214528, Note_on_c, 5, 69, 96
7, 214528, Note_off_c, 5, 74, 0
7, 214528, Note_on_c, 5, 69, 96
7, 214528, Note_off_c, 5, 62, 0
7, 214528, Note_on_c, 5, 53, 96
7, 214784, Note_off_c, 5, 69, 0
7, 214784, Note_on_c, 5, 74, 96
7, 214784, Note_off_c, 5, 69, 0
7, 214784, Note_on_c, 5, 74, 96
7, 215040, Note_off_c, 5, 74, 0
7, 215040, Note_off_c, 5, 74, 0
7, 215040, Note_off_c, 5, 53, 0
7, 215040, Note_on_c, 5, 67, 96
7, 215040, Note_on_c, 5, 67, 96
7, 215040, Note_on_c, 5, 58, 96
7, 215296, Note_off_c, 5, 67, 0
7, 215296, Note_on_c, 5, 74, 96
7, 215296, Note_off_c, 5, 67, 0
7, 215296, Note_on_c, 5, 74, 96
7, 215552, Note_off_c, 5, 74, 0
7, 215552, Note_on_c, 5, 72, 96
7, 215552, Note_off_c, 5, 74, 0
7, 215552, Note_on_c, 5, 72, 96
7, 215552, Note_off_c, 5, 65, 0
7, 215552, Note_on_c, 5, 67, 96
7, 215552, Note_off_c, 5, 62, 0
7, 215552, Note_on_c, 5, 64, 96
7, 215808, Note_off_c, 5, 72, 0
7, 215808, Note_on_c, 5, 74, 96
7, 215808, Note_off_c, 5, 72, 0
7, 215808, Note_on_c, 5, 74, 96
7, 216064, Note_off_c, 5, 74, 0
7, 216064, Note_on_c, 5, 70, 96
7, 216064, Note_off_c, 5, 74, 0
7, 216064, Note_on_c, 5, 70, 96
7, 216064, Note_off_c, 5, 67, 0
7, 216064, Note_on_c, 5, 69, 96
7, 216064, Note_off_c, 5, 64, 0
7, 216064, Note_on_c, 5, 65, 96
7, 216064, Note_off_c, 5, 58, 0
7, 216064, Note_on_c, 5, 57, 96
7, 216320, Note_off_c, 5, 70, 0
7, 216320, Note_on_c, 5, 74, 96
7, 216320, Note_off_c, 5, 70, 0
7, 216320, Note_on_c, 5, 74, 96
7, 216576, Note_off_c, 5, 74, 0
7, 216576, Note_on_c, 5, 77, 96
7, 216576, Note_off_c, 5, 74, 0
7, 216576, Note_on_c, 5, 77, 96
7, 216576, Note_off_c, 5, 69, 0
7, 216576, Note_on_c, 5, 70, 96
7, 216576, Note_off_c, 5, 65, 0
7, 216576, Note_on_c, 5, 67, 96
7, 216576, Note_off_c, 5, 57, 0
7, 216576, Note_on_c, 5, 55, 96
7, 216832, Note_off_c, 5, 77, 0
7, 216832, Note_on_c, 5, 74, 96
7, 216832, Note_off_c, 5, 77, 0
7, 216832, Note_on_c, 5, 74, 96
7, 217088, Note_off_c, 5, 74, 0
7, 217088, Note_on_c, 5, 72, 96
7, 217088, Note_off_c, 5, 74, 0
7, 217088, Note_on_c, 5, 72, 96
7, 217088, Note_off_c, 5, 55, 0
7, 217088, Note_on_c, 5, 57, 96
7, 217344, Note_off_c, 5, 72, 0
7, 217344, Note_on_c, 5, 74, 96
7, 217344, Note_off_c, 5, 72, 0
7, 217344, Note_on_c, 5, 74, 96
7, 217600, Note_off_c, 5, 74, 0
7, 217600, Note_on_c, 5, 70, 96
7, 217600, Note_off_c, 5, 74, 0
7, 217600, Note_on_c, 5, 70, 96
7, 217600, Note_off_c, 5, 67, 0
7, 217600, Note_on_c, 5, 65, 96
7, 217600, Note_off_c, 5, 57, 0
7, 217600, Note_on_c, 5, 58, 96
7, 217856, Note_off_c, 5, 70, 0
7, 217856, Note_on_c, 5, 74, 96
7, 217856, Note_off_c, 5, 70, 0
7, 217856, Note_on_c, 5, 74, 96
7, 218112, Note_off_c, 5, 74, 0
7, 218112, Note_on_c, 5, 67, 96
7, 218112, Note_off_c, 5, 74, 0
7, 218112, Note_on_c, 5, 67, 96
7, 218112, Note_off_c, 5, 65, 0
7, 218112, Note_on_c, 5, 64, 96
7, 218112, Note_off_c, 5, 58, 0
7, 218112, Note_on_c, 5, 60, 96
7, 218368, Note_off_c, 5, 67, 0
7, 218368, Note_on_c, 5, 72, 96
7, 218368, Note_off_c, 5, 67, 0
7, 218368, Note_on_c, 5, 72, 96
7, 218624, Note_off_c, 5, 72, 0
7, 218624, Note_on_c, 5, 70, 96
7, 218624, Note_off_c, 5, 72, 0
7, 218624, Note_on_c, 5, 70, 96
7, 218624, Note_off_c, 5, 70, 0
7, 218624, Note_on_c, 5, 67, 96
7, 218880, Note_off_c, 5, 70, 0
7, 218880, Note_on_c, 5, 72, 96
7, 218880, Note_off_c, 5, 70, 0
7, 218880, Note_on_c, 5, 72, 96
7, 219136, Note_off_c, 5, 72, 0
7, 219136, Note_on_c, 5, 67, 96
7, 219136, Note_off_c, 5, 72, 0
7, 219136, Note_on_c, 5, 67, 96
7, 219136, Note_off_c, 5, 67, 0
7, 219136, Note_on_c, 5, 65, 96
7, 219136, Note_off_c, 5, 64, 0
7, 219136, Note_on_c, 5, 62, 96
7, 219136, Note_off_c, 5, 60, 0
7, 219136, Note_on_c, 5, 48, 96
7, 219392, Note_off_c, 5, 67, 0
7, 219392, Note_on_c, 5, 72, 96
7, 219392, Note_off_c, 5, 67, 0
7, 219392, Note_on_c, 5, 72, 96
7, 219648, Note_off_c, 5, 72, 0
7, 219648, Note_on_c, 5, 76, 96
7, 219648, Note_off_c, 5, 72, 0
7, 219648, Note_on_c, 5, 76, 96
7, 219648, Note_off_c, 5, 65, 0
7, 219648, Note_on_c, 5, 64, 96
7, 219648, Note_off_c, 5, 62, 0
7, 219648, Note_on_c, 5, 60, 96
7, 219648, Note_off_c, 5, 48, 0
7, 219648, Note_on_c, 5, 60, 96
7, 219904, Note_off_c, 5, 76, 0
7, 219904, Note_on_c, 5, 72, 96
7, 219904, Note_off_c, 5, 76, 0
7, 219904, Note_on_c, 5, 72, 96
7, 220160, Note_off_c, 5, 72, 0
7, 220160, Note_on_c, 5, 70, 96
7, 220160, Note_off_c, 5, 72, 0
7, 220160, Note_on_c, 5, 70, 96
7, 220416, Note_off_c, 5, 70, 0
7, 220416, Note_on_c, 5, 72, 96
7, 220416, Note_off_c, 5, 70, 0
7, 220416, Note_on_c, 5, 72, 96
7, 220672, Note_off_c, 5, 72, 0
7, 220672, Note_on_c, 5, 67, 96
7, 220672, Note_off_c, 5, 72, 0
7, 220672, Note_on_c, 5, 67, 96
7, 220672, Note_off_c, 5, 60, 0
7, 220672, Note_on_c, 5, 58, 96
7, 220928, Note_off_c, 5, 67, 0
7, 220928, Note_on_c, 5, 72, 96
7, 220928, Note_off_c, 5, 67, 0
7, 220928, Note_on_c, 5, 72, 96
7, 221184, Note_off_c, 5, 72, 0
7, 221184, Note_off_c, 5, 72, 0
7, 221184, Note_off_c, 5, 64, 0
7, 221184, Note_off_c, 5, 58, 0
7, 221184, Note_on_c, 5, 65, 96
7, 221184, Note_on_c, 5, 65, 96
7, 221184, Note_on_c, 5, 65, 96
7, 221184, Note_on_c, 5, 57, 96
7, 221440, Note_off_c, 5, 65, 0
7, 221440, Note_on_c, 5, 77, 96
7, 221440, Note_off_c, 5, 65, 0
7, 221440, Note_on_c, 5, 77, 96
7, 221696, Note_off_c, 5, 77, 0
7, 221696, Note_on_c, 5, 76, 96
7, 221696, Note_off_c, 5, 77, 0
7, 221696, Note_on_c, 5, 76, 96
7, 221696, Note_off_c, 5, 57, 0
7, 221696, Note_on_c, 5, 58, 96
7, 221952, Note_off_c, 5, 76, 0
7, 221952, Note_on_c, 5, 77, 96
7, 221952, Note_off_c, 5, 76, 0
7, 221952, Note_on_c, 5, 77, 96
7, 222208, Note_off_c, 5, 77, 0
7, 222208, Note_on_c, 5, 72, 96
7, 222208, Note_off_c, 5, 77, 0
7, 222208, Note_on_c, 5, 72, 96
7, 222208, Note_off_c, 5, 65, 0
7, 222208, Note_on_c, 5, 69, 96
7, 222208, Note_off_c, 5, 60, 0
7, 222208, Note_on_c, 5, 60, 96
7, 222208, Note_off_c, 5, 58, 0
7, 222208, Note_on_c, 5, 60, 96
7, 222464, Note_off_c, 5, 72, 0
7, 222464, Note_on_c, 5, 77, 96
7, 222464, Note_off_c, 5, 72, 0
7, 222464, Note_on_c, 5, 77, 96
7, 222720, Note_off_c, 5, 77, 0
7, 222720, Note_on_c, 5, 81, 96
7, 222720, Note_off_c, 5, 77, 0
7, 222720, Note_on_c, 5, 81, 96
7, 222720, Note_off_c, 5, 69, 0
7, 222720, Note_on_c, 5, 72, 96
7, 222720, Note_off_c, 5, 60, 0
7, 222720, Note_on_c, 5, 63, 96
7, 222720, Note_off_c, 5, 60, 0
7, 222720, Note_on_c, 5, 53, 96
7, 222976, Note_off_c, 5, 81, 0
7, 222976, Note_on_c, 5, 77, 96
7, 222976, Note_off_c, 5, 81, 0
7, 222976, Note_on_c, 5, 77, 96
7, 223232, Note_off_c, 5, 77, 0
7, 223232, Note_on_c, 5, 76, 96
7, 223232, Note_off_c, 5, 77, 0
7, 223232, Note_on_c, 5, 76, 96
7, 223232, Note_off_c, 5, 53, 0
7, 223232, Note_on_c, 5, 55, 96
7, 223488, Note_off_c, 5, 76, 0
7, 223488, Note_on_c, 5, 77, 96
7, 223488, Note_off_c, 5, 76, 0
7, 223488, Note_on_c, 5, 77, 96
7, 223744, Note_off_c, 5, 77, 0
7, 223744, Note_on_c, 5, 72, 96
7, 223744, Note_off_c, 5, 77, 0
7, 223744, Note_on_c, 5, 72, 96
7, 223744, Note_off_c, 5, 63, 0
7, 223744, Note_on_c, 5, 65, 96
7, 223744, Note_off_c, 5, 55, 0
7, 223744, Note_on_c, 5, 57, 96
7, 224000, Note_off_c, 5, 72, 0
7, 224000, Note_on_c, 5, 77, 96
7, 224000, Note_off_c, 5, 72, 0
7, 224000, Note_on_c, 5, 77, 96
7, 224256, Note_off_c, 5, 77, 0
7, 224256, Note_on_c, 5, 70, 96
7, 224256, Note_off_c, 5, 77, 0
7, 224256, Note_on_c, 5, 70, 96
7, 224256, Note_off_c, 5, 65, 0
7, 224256, Note_on_c, 5, 63, 96
7, 224256, Note_off_c, 5, 57, 0
7, 224256, Note_on_c, 5, 58, 96
7, 224512, Note_off_c, 5, 70, 0
7, 224512, Note_on_c, 5, 67, 96
7, 224512, Note_off_c, 5, 70, 0
7, 224512, Note_on_c, 5, 67, 96
7, 224768, Note_off_c, 5, 67, 0
7, 224768, Note_on_c, 5, 65, 96
7, 224768, Note_off_c, 5, 67, 0
7, 224768, Note_on_c, 5, 65, 96
7, 224768, Note_off_c, 5, 72, 0
7, 224768, Note_on_c, 5, 70, 96
7, 224768, Note_off_c, 5, 63, 0
7, 224768, Note_on_c, 5, 62, 96
7, 225024, Note_off_c, 5, 65, 0
7, 225024, Note_on_c, 5, 67, 96
7, 225024, Note_off_c, 5, 65, 0
7, 225024, Note_on_c, 5, 67, 96
7, 225280, Note_off_c, 5, 67, 0
7, 225280, Note_on_c, 5, 63, 96
7, 225280, Note_off_c, 5, 67, 0
7, 225280, Note_on_c, 5, 63, 96
7, 225280, Note_off_c, 5, 70, 0
7, 225280, Note_on_c, 5, 69, 96
7, 225280, Note_off_c, 5, 62, 0
7, 225280, Note_on_c, 5, 60, 96
7, 225280, Note_off_c, 5, 58, 0
7, 225280, Note_on_c, 5, 53, 96
7, 225536, Note_off_c, 5, 63, 0
7, 225536, Note_on_c, 5, 65, 96
7, 225536, Note_off_c, 5, 63, 0
7, 225536, Note_on_c, 5, 65, 96
7, 225792, Note_off_c, 5, 65, 0
7, 225792, Note_on_c, 5, 74, 96
7, 225792, Note_off_c, 5, 65, 0
7, 225792, Note_on_c, 5, 74, 96
7, 225792, Note_off_c, 5, 69, 0
7, 225792, Note_on_c, 5, 70, 96
7, 225792, Note_off_c, 5, 60, 0
7, 225792, Note_on_c, 5, 62, 96
7, 225792, Note_off_c, 5, 53, 0
7, 225792, Note_on_c, 5, 58, 96
7, 226048, Note_off_c, 5, 74, 0
7, 226048, Note_on_c, 5, 67, 96
7, 226048, Note_off_c, 5, 74, 0
7, 226048, Note_on_c, 5, 67, 96
7, 226304, Note_off_c, 5, 67, 0
7, 226304, Note_on_c, 5, 65, 96
7, 226304, Note_off_c, 5, 67, 0
7, 226304, Note_on_c, 5, 65, 96
7, 226304, Note_off_c, 5, 70, 0
7, 226304, Note_on_c, 5, 67, 96
7, 226304, Note_off_c, 5, 62, 0
7, 226304, Note_on_c, 5, 58, 96
7, 226304, Note_off_c, 5, 58, 0
7, 226304, Note_on_c, 5, 62, 96
7, 226560, Note_off_c, 5, 65, 0
7, 226560, Note_on_c, 5, 67, 96
7, 226560, Note_off_c, 5, 65, 0
7, 226560, Note_on_c, 5, 67, 96
7, 226816, Note_off_c, 5, 67, 0
7, 226816, Note_on_c, 5, 64, 96
7, 226816, Note_off_c, 5, 67, 0
7, 226816, Note_on_c, 5, 64, 96
7, 226816, Note_off_c, 5, 67, 0
7, 226816, Note_on_c, 5, 69, 96
7, 226816, Note_off_c, 5, 58, 0
7, 226816, Note_on_c, 5, 60, 96
7, 226816, Note_off_c, 5, 62, 0
7, 226816, Note_on_c, 5, 64, 96
7, 227072, Note_off_c, 5, 64, 0
7, 227072, Note_on_c, 5, 65, 96
7, 227072, Note_off_c, 5, 64, 0
7, 227072, Note_on_c, 5, 65, 96
7, 227328, Note_off_c, 5, 65, 0
7, 227328, Note_off_c, 5, 65, 0
7, 227328, Note_off_c, 5, 69, 0
7, 227328, Note_off_c, 5, 60, 0
7, 227328, Note_off_c, 5, 64, 0
7, 227328, Note_on_c, 5, 69, 96
7, 227328, Note_on_c, 5, 69, 96
7, 227328, Note_on_c, 5, 69, 96
7, 227328, Note_on_c, 5, 60, 96
7, 227328, Note_on_c, 5, 65, 96
7, 228352, Note_off_c, 5, 69, 0
7, 228352, Note_off_c, 5, 69, 0
7, 228352, Note_off_c, 5, 69, 0
7, 228352, Note_off_c, 5, 60, 0
7, 228352, Note_off_c, 5, 65, 0
7, 233728, Note_on_c, 5, 77, 96
7, 233728, Note_on_c, 5, 77, 96
7, 233984, Note_off_c, 5, 77, 0
7, 233984, Note_on_c, 5, 76, 96
7, 233984, Note_off_c, 5, 77, 0
7, 233984, Note_on_c, 5, 76, 96
7, 234240, Note_off_c, 5, 76, 0
7, 234240, Note_on_c, 5, 77, 96
7, 234240, Note_off_c, 5, 76, 0
7, 234240, Note_on_c, 5, 77, 96
7, 234496, Note_off_c, 5, 77, 0
7, 234496, Note_on_c, 5, 72, 96
7, 234496, Note_off_c, 5, 77, 0
7, 234496, Note_on_c, 5, 72, 96
7, 234496, Note_on_c, 5, 65, 96
7, 234496, Note_on_c, 5, 60, 96
7, 234496, Note_on_c, 5, 57, 96
7, 234752, Note_off_c, 5, 72, 0
7, 234752, Note_on_c, 5, 77, 96
7, 234752, Note_off_c, 5, 72, 0
7, 234752, Note_on_c, 5, 77, 96
7, 235008, Note_off_c, 5, 77, 0
7, 235008, Note_on_c, 5, 81, 96
7, 235008, Note_off_c, 5, 77, 0
7, 235008, Note_on_c, 5, 81, 96
7, 235008, Note_off_c, 5, 65, 0
7, 235008, Note_on_c, 5, 65, 96
7, 235008, Note_off_c, 5, 60, 0
7, 235008, Note_on_c, 5, 60, 96
7, 235008, Note_off_c, 5, 57, 0
7, 235008, Note_on_c, 5, 57, 96
7, 235264, Note_off_c, 5, 81, 0
7, 235264, Note_on_c, 5, 77, 96
7, 235264, Note_off_c, 5, 81, 0
7, 235264, Note_on_c, 5, 77, 96
7, 235520, Note_off_c, 5, 77, 0
7, 235520, Note_on_c, 5, 76, 96
7, 235520, Note_off_c, 5, 77, 0
7, 235520, Note_on_c, 5, 76, 96
7, 235520, Note_off_c, 5, 65, 0
7, 235520, Note_on_c, 5, 65, 96
7, 235520, Note_off_c, 5, 60, 0
7, 235520, Note_on_c, 5, 60, 96
7, 235520, Note_off_c, 5, 57, 0
7, 235520, Note_on_c, 5, 57, 96
7, 235776, Note_off_c, 5, 76, 0
7, 235776, Note_on_c, 5, 77, 96
7, 235776, Note_off_c, 5, 76, 0
7, 235776, Note_on_c, 5, 77, 96
7, 236032, Note_off_c, 5, 77, 0
7, 236032, Note_on_c, 5, 72, 96
7, 236032, Note_off_c, 5, 77, 0
7, 236032, Note_on_c, 5, 72, 96
7, 236032, Note_off_c, 5, 65, 0
7, 236032, Note_on_c, 5, 65, 96
7, 236032, Note_off_c, 5, 60, 0
7, 236032, Note_on_c, 5, 60, 96
7, 236032, Note_off_c, 5, 57, 0
7, 236032, Note_on_c, 5, 57, 96
7, 236288, Note_off_c, 5, 72, 0
7, 236288, Note_on_c, 5, 77, 96
7, 236288, Note_off_c, 5, 72, 0
7, 236288, Note_on_c, 5, 77, 96
7, 236544, Note_off_c, 5, 77, 0
7, 236544, Note_on_c, 5, 69, 96
7, 236544, Note_off_c, 5, 77, 0
7, 236544, Note_on_c, 5, 69, 96
7, 236544, Note_off_c, 5, 65, 0
7, 236544, Note_on_c, 5, 65, 96
7, 236544, Note_off_c, 5, 60, 0
7, 236544, Note_on_c, 5, 60, 96
7, 236544, Note_off_c, 5, 57, 0
7, 236544, Note_on_c, 5, 57, 96
7, 236800, Note_off_c, 5, 69, 0
7, 236800, Note_on_c, 5, 77, 96
7, 236800, Note_off_c, 5, 69, 0
7, 236800, Note_on_c, 5, 77, 96
7, 237056, Note_off_c, 5, 77, 0
7, 237056, Note_on_c, 5, 76, 96
7, 237056, Note_off_c, 5, 77, 0
7, 237056, Note_on_c, 5, 76, 96
7, 237056, Note_off_c, 5, 65, 0
7, 237056, Note_on_c, 5, 65, 96
7, 237056, Note_off_c, 5, 60, 0
7, 237056, Note_on_c, 5, 60, 96
7, 237056, Note_off_c, 5, 57, 0
7, 237056, Note_on_c, 5, 57, 96
7, 237312, Note_off_c, 5, 76, 0
7, 237312, Note_on_c, 5, 77, 96
7, 237312, Note_off_c, 5, 76, 0
7, 237312, Note_on_c, 5, 77, 96
7, 237568, Note_off_c, 5, 77, 0
7, 237568, Note_on_c, 5, 72, 96
7, 237568, Note_off_c, 5, 77, 0
7, 237568, Note_on_c, 5, 72, 96
7, 237568, Note_off_c, 5, 65, 0
7, 237568, Note_on_c, 5, 65, 96
7, 237568, Note_off_c, 5, 60, 0
7, 237568, Note_on_c, 5, 60, 96
7, 237568, Note_off_c, 5, 57, 0
7, 237568, Note_on_c, 5, 57, 96
7, 237824, Note_off_c, 5, 72, 0
7, 237824, Note_on_c, 5, 77, 96
7, 237824, Note_off_c, 5, 72, 0
7, 237824, Note_on_c, 5, 77, 96
7, 238080, Note_off_c, 5, 77, 0
7, 238080, Note_on_c, 5, 81, 96
7, 238080, Note_off_c, 5, 77, 0
7, 238080, Note_on_c, 5, 81, 96
7, 238080, Note_off_c, 5, 65, 0
7, 238080, Note_on_c, 5, 65, 96
7, 238080, Note_off_c, 5, 60, 0
7, 238080, Note_on_c, 5, 60, 96
7, 238080, Note_off_c, 5, 57, 0
7, 238080, Note_on_c, 5, 57, 96
7, 238336, Note_off_c, 5, 81, 0
7, 238336, Note_on_c, 5, 77, 96
7, 238336, Note_off_c, 5, 81, 0
7, 238336, Note_on_c, 5, 77, 96
7, 238592, Note_off_c, 5, 77, 0
7, 238592, Note_on_c, 5, 76, 96
7, 238592, Note_off_c, 5, 77, 0
7, 238592, Note_on_c, 5, 76, 96
7, 238592, Note_off_c, 5, 65, 0
7, 238592, Note_on_c, 5, 65, 96
7, 238592, Note_off_c, 5, 60, 0
7, 238592, Note_on_c, 5, 60, 96
7, 238592, Note_off_c, 5, 57, 0
7, 238592, Note_on_c, 5, 57, 96
7, 238848, Note_off_c, 5, 76, 0
7, 238848, Note_on_c, 5, 77, 96
7, 238848, Note_off_c, 5, 76, 0
7, 238848, Note_on_c, 5, 77, 96
7, 239104, Note_off_c, 5, 77, 0
7, 239104, Note_on_c, 5, 72, 96
7, 239104, Note_off_c, 5, 77, 0
7, 239104, Note_on_c, 5, 72, 96
7, 239104, Note_off_c, 5, 65, 0
7, 239104, Note_on_c, 5, 65, 96
7, 239104, Note_off_c, 5, 60, 0
7, 239104, Note_on_c, 5, 60, 96
7, 239104, Note_off_c, 5, 57, 0
7, 239104, Note_on_c, 5, 57, 96
7, 239360, Note_off_c, 5, 72, 0
7, 239360, Note_on_c, 5, 77, 96
7, 239360, Note_off_c, 5, 72, 0
7, 239360, Note_on_c, 5, 77, 96
7, 239616, Note_off_c, 5, 77, 0
7, 239616, Note_off_c, 5, 77, 0
7, 239616, Note_off_c, 5, 65, 0
7, 239616, Note_off_c, 5, 60, 0
7, 239616, Note_off_c, 5, 57, 0
7, 239616, Note_on_c, 5, 69, 96
7, 239616, Note_on_c, 5, 69, 96
7, 239616, Note_on_c, 5, 65, 96
7, 239616, Note_on_c, 5, 60, 96
7, 239616, Note_on_c, 5, 57, 96
7, 240640, Note_off_c, 5, 69, 0
7, 240640, Note_off_c, 5, 69, 0
7, 240640, Note_off_c, 5, 65, 0
7, 240640, Note_off_c, 5, 60, 0
7, 240640, Note_off_c, 5, 57, 0
7, 246016, Note_on_c, 5, 84, 96
7, 246016, Note_on_c, 5, 84, 96
7, 246272, Note_off_c, 5, 84, 0
7, 246272, Note_on_c, 5, 83, 96
7, 246272, Note_off_c, 5, 84, 0
7, 246272, Note_on_c, 5, 83, 96
7, 246528, Note_off_c, 5, 83, 0
7, 246528, Note_on_c, 5, 84, 96
7, 246528, Note_off_c, 5, 83, 0
7, 246528, Note_on_c, 5, 84, 96
7, 246784, Note_off_c, 5, 84, 0
7, 246784, Note_on_c, 5, 79, 96
7, 246784, Note_off_c, 5, 84, 0
7, 246784, Note_on_c, 5, 79, 96
7, 246784, Note_on_c, 5, 72, 96
7, 246784, Note_on_c, 5, 67, 96
7, 246784, Note_on_c, 5, 64, 96
7, 247040, Note_off_c, 5, 79, 0
7, 247040, Note_on_c, 5, 84, 96
7, 247040, Note_off_c, 5, 79, 0
7, 247040, Note_on_c, 5, 84, 96
7, 247296, Note_off_c, 5, 84, 0
7, 247296, Note_on_c, 5, 88, 96
7, 247296, Note_off_c, 5, 84, 0
7, 247296, Note_on_c, 5, 88, 96
7, 247296, Note_off_c, 5, 72, 0
7, 247296, Note_on_c, 5, 72, 96
7, 247296, Note_off_c, 5, 67, 0
7, 247296, Note_on_c, 5, 67, 96
7, 247296, Note_off_c, 5, 64, 0
7, 247296, Note_on_c, 5, 64, 96
7, 247552, Note_off_c, 5, 88, 0
7, 247552, Note_on_c, 5, 84, 96
7, 247552, Note_off_c, 5, 88, 0
7, 247552, Note_on_c, 5, 84, 96
7, 247808, Note_off_c, 5, 84, 0
7, 247808, Note_on_c, 5, 83, 96
7, 247808, Note_off_c, 5, 84, 0
7, 247808, Note_on_c, 5, 83, 96
7, 247808, Note_off_c, 5, 72, 0
7, 247808, Note_on_c, 5, 72, 96
7, 247808, Note_off_c, 5, 67, 0
7, 247808, Note_on_c, 5, 67, 96
7, 247808, Note_off_c, 5, 64, 0
7, 247808, Note_on_c, 5, 64, 96
7, 248064, Note_off_c, 5, 83, 0
7, 248064, Note_on_c, 5, 84, 96
7, 248064, Note_off_c, 5, 83, 0
7, 248064, Note_on_c, 5, 84, 96
7, 248320, Note_off_c, 5, 84, 0
7, 248320, Note_on_c, 5, 79, 96
7, 248320, Note_off_c, 5, 84, 0
7, 248320, Note_on_c, 5, 79, 96
7, 248320, Note_off_c, 5, 72, 0
7, 248320, Note_on_c, 5, 72, 96
7, 248320, Note_off_c, 5, 67, 0
7, 248320, Note_on_c, 5, 67, 96
7, 248320, Note_off_c, 5, 64, 0
7, 248320, Note_on_c, 5, 64, 96
7, 248576, Note_off_c, 5, 79, 0
7, 248576, Note_on_c, 5, 84, 96
7, 248576, Note_off_c, 5, 79, 0
7, 248576, Note_on_c, 5, 84, 96
7, 248832, Note_off_c, 5, 84, 0
7, 248832, Note_on_c, 5, 76, 96
7, 248832, Note_off_c, 5, 84, 0
7, 248832, Note_on_c, 5, 76, 96
7, 248832, Note_off_c, 5, 72, 0
7, 248832, Note_on_c, 5, 72, 96
7, 248832, Note_off_c, 5, 67, 0
7, 248832, Note_on_c, 5, 67, 96
7, 248832, Note_off_c, 5, 64, 0
7, 248832, Note_on_c, 5, 64, 96
7, 249088, Note_off_c, 5, 76, 0
7, 249088, Note_on_c, 5, 84, 96
7, 249088, Note_off_c, 5, 76, 0
7, 249088, Note_on_c, 5, 84, 96
7, 249344, Note_off_c, 5, 84, 0
7, 249344, Note_on_c, 5, 83, 96
7, 249344, Note_off_c, 5, 84, 0
7, 249344, Note_on_c, 5, 83, 96
7, 249344, Note_off_c, 5, 72, 0
7, 249344, Note_on_c, 5, 72, 96
7, 249344, Note_off_c, 5, 67, 0
7, 249344, Note_on_c, 5, 67, 96
7, 249344, Note_off_c, 5, 64, 0
7, 249344, Note_on_c, 5, 64, 96
7, 249600, Note_off_c, 5, 83, 0
7, 249600, Note_on_c, 5, 84, 96
7, 249600, Note_off_c, 5, 83, 0
7, 249600, Note_on_c, 5, 84, 96
7, 249856, Note_off_c, 5, 84, 0
7, 249856, Note_on_c, 5, 79, 96
7, 249856, Note_off_c, 5, 84, 0
7, 249856, Note_on_c, 5, 79, 96
7, 249856, Note_off_c, 5, 72, 0
7, 249856, Note_on_c, 5, 72, 96
7, 249856, Note_off_c, 5, 67, 0
7, 249856, Note_on_c, 5, 67, 96
7, 249856, Note_off_c, 5, 64, 0
7, 249856, Note_on_c, 5, 64, 96
7, 250112, Note_off_c, 5, 79, 0
7, 250112, Note_on_c, 5, 84, 96
7, 250112, Note_off_c, 5, 79, 0
7, 250112, Note_on_c, 5, 84, 96
7, 250368, Note_off_c, 5, 84, 0
7, 250368, Note_on_c, 5, 88, 96
7, 250368, Note_off_c, 5, 84, 0
7, 250368, Note_on_c, 5, 88, 96
7, 250368, Note_off_c, 5, 72, 0
7, 250368, Note_on_c, 5, 72, 96
7, 250368, Note_off_c, 5, 67, 0
7, 250368, Note_on_c, 5, 67, 96
7, 250368, Note_off_c, 5, 64, 0
7, 250368, Note_on_c, 5, 64, 96
7, 250624, Note_off_c, 5, 88, 0
7, 250624, Note_on_c, 5, 84, 96
7, 250624, Note_off_c, 5, 88, 0
7, 250624, Note_on_c, 5, 84, 96
7, 250880, Note_off_c, 5, 84, 0
7, 250880, Note_on_c, 5, 83, 96
7, 250880, Note_off_c, 5, 84, 0
7, 250880, Note_on_c, 5, 83, 96
7, 250880, Note_off_c, 5, 72, 0
7, 250880, Note_on_c, 5, 72, 96
7, 250880, Note_off_c, 5, 67, 0
7, 250880, Note_on_c, 5, 67, 96
7, 250880, Note_off_c, 5, 64, 0
7, 250880, Note_on_c, 5, 64, 96
7, 251136, Note_off_c, 5, 83, 0
7, 251136, Note_on_c, 5, 84, 96
7, 251136, Note_off_c, 5, 83, 0
7, 251136, Note_on_c, 5, 84, 96
7, 251392, Note_off_c, 5, 84, 0
7, 251392, Note_on_c, 5, 79, 96
7, 251392, Note_off_c, 5, 84, 0
7, 251392, Note_on_c, 5, 79, 96
7, 251392, Note_off_c, 5, 72, 0
7, 251392, Note_on_c, 5, 72, 96
7, 251392, Note_off_c, 5, 67, 0
7, 251392, Note_on_c, 5, 67, 96
7, 251392, Note_off_c, 5, 64, 0
7, 251392, Note_on_c, 5, 64, 96
7, 251648, Note_off_c, 5, 79, 0
7, 251648, Note_on_c, 5, 84, 96
7, 251648, Note_off_c, 5, 79, 0
7, 251648, Note_on_c, 5, 84, 96
7, 251904, Note_off_c, 5, 84, 0
7, 251904, Note_off_c, 5, 84, 0
7, 251904, Note_off_c, 5, 72, 0
7, 251904, Note_off_c, 5, 67, 0
7, 251904, Note_off_c, 5, 64, 0
7, 251904, Note_on_c, 5, 76, 96
7, 251904, Note_on_c, 5, 76, 96
7, 251904, Note_on_c, 5, 72, 96
7, 251904, Note_on_c, 5, 67, 96
7, 251904, Note_on_c, 5, 64, 96
7, 252928, Note_off_c, 5, 76, 0
7, 252928, Note_off_c, 5, 76, 0
7, 252928, Note_off_c, 5, 72, 0
7, 252928, Note_off_c, 5, 67, 0
7, 252928, Note_off_c, 5, 64, 0
7, 257536, Note_on_c, 5, 76, 96
7, 257536, Note_on_c, 5, 76, 96
7, 257536, Note_on_c, 5, 76, 96
7, 257536, Note_on_c, 5, 69, 96
7, 257536, Note_on_c, 5, 64, 96
7, 258048, Note_off_c, 5, 76, 0
7, 258048, Note_off_c, 5, 76, 0
7, 258048, Note_off_c, 5, 76, 0
7, 258048, Note_off_c, 5, 69, 0
7, 258048, Note_off_c, 5, 64, 0
7, 258048, Note_on_c, 5, 77, 96
7, 258048, Note_on_c, 5, 77, 96
7, 258048, Note_on_c, 5, 77, 96
7, 258048, Note_on_c, 5, 69, 96
7, 258048, Note_on_c, 5, 62, 96
7, 259072, Note_off_c, 5, 77, 0
7, 259072, Note_off_c, 5, 77, 0
7, 259072, Note_off_c, 5, 77, 0
7, 259072, Note_off_c, 5, 69, 0
7, 259072, Note_off_c, 5, 62, 0
7, 263680, Note_on_c, 5, 78, 96
7, 263680, Note_on_c, 5, 78, 96
7, 263680, Note_on_c, 5, 78, 96
7, 263680, Note_on_c, 5, 74, 96
7, 263680, Note_on_c, 5, 69, 96
7, 264192, Note_off_c, 5, 78, 0
7, 264192, Note_off_c, 5, 78, 0
7, 264192, Note_off_c, 5, 78, 0
7, 264192, Note_off_c, 5, 74, 0
7, 264192, Note_off_c, 5, 69, 0
7, 264192, Note_on_c, 5, 79, 96
7, 264192, Note_on_c, 5, 79, 96
7, 264192, Note_on_c, 5, 79, 96
7, 264192, Note_on_c, 5, 74, 96
7, 264192, Note_on_c, 5, 70, 96
7, 265216, Note_off_c, 5, 79, 0
7, 265216, Note_on_c, 5, 84, 96
7, 265216, Note_off_c, 5, 79, 0
7, 265216, Note_on_c, 5, 72, 96
7, 265216, Note_off_c, 5, 79, 0
7, 265216, Note_off_c, 5, 74, 0
7, 265216, Note_off_c, 5, 70, 0
7, 265728, Note_off_c, 5, 84, 0
7, 265728, Note_on_c, 5, 81, 96
7, 265728, Note_off_c, 5, 72, 0
7, 265728, Note_on_c, 5, 77, 96
7, 266240, Note_off_c, 5, 81, 0
7, 266240, Note_on_c, 5, 84, 96
7, 266240, Note_off_c, 5, 77, 0
7, 266240, Note_on_c, 5, 81, 96
7, 266752, Note_off_c, 5, 84, 0
7, 266752, Note_on_c, 5, 82, 96
7, 266752, Note_off_c, 5, 81, 0
7, 266752, Note_on_c, 5, 79, 96
7, 267264, Note_off_c, 5, 82, 0
7, 267264, Note_on_c, 5, 81, 96
7, 267264, Note_off_c, 5, 79, 0
7, 267264, Note_on_c, 5, 77, 96
7, 267776, Note_off_c, 5, 81, 0
7, 267776, Note_on_c, 5, 84, 96
7, 267776, Note_off_c, 5, 77, 0
7, 267776, Note_on_c, 5, 81, 96
7, 268288, Note_off_c, 5, 84, 0
7, 268288, Note_on_c, 5, 82, 96
7, 268288, Note_off_c, 5, 81, 0
7, 268288, Note_on_c, 5, 79, 96
7, 268800, Note_off_c, 5, 82, 0
7, 268800, Note_on_c, 5, 81, 96
7, 268800, Note_off_c, 5, 79, 0
7, 268800, Note_on_c, 5, 77, 96
7, 269312, Note_off_c, 5, 81, 0
7, 269312, Note_on_c, 5, 82, 96
7, 269312, Note_off_c, 5, 77, 0
7, 269312, Note_on_c, 5, 79, 96
7, 269568, Note_off_c, 5, 82, 0
7, 269568, Note_on_c, 5, 81, 96
7, 269568, Note_off_c, 5, 79, 0
7, 269568, Note_on_c, 5, 77, 96
7, 269824, Note_off_c, 5, 81, 0
7, 269824, Note_on_c, 5, 79, 96
7, 269824, Note_off_c, 5, 77, 0
7, 269824, Note_on_c, 5, 76, 96
7, 269824, Note_on_c, 5, 81, 96
7, 269824, Note_on_c, 5, 72, 96
7, 269824, Note_on_c, 5, 69, 96
7, 270080, Note_off_c, 5, 79, 0
7, 270080, Note_on_c, 5, 77, 96
7, 270080, Note_off_c, 5, 76, 0
7, 270080, Note_on_c, 5, 74, 96
7, 270336, Note_off_c, 5, 77, 0
7, 270336, Note_off_c, 5, 74, 0
7, 270336, Note_off_c, 5, 81, 0
7, 270336, Note_off_c, 5, 72, 0
7, 270336, Note_off_c, 5, 69, 0
7, 270336, Note_on_c, 5, 79, 96
7, 270336, Note_on_c, 5, 76, 96
7, 270336, Note_on_c, 5, 84, 96
7, 270336, Note_on_c, 5, 76, 96
7, 270336, Note_on_c, 5, 67, 96
7, 270592, Note_off_c, 5, 79, 0
7, 270592, Note_on_c, 5, 76, 96
7, 270592, Note_off_c, 5, 76, 0
7, 270592, Note_on_c, 5, 76, 96
7, 270848, Note_off_c, 5, 76, 0
7, 270848, Note_on_c, 5, 77, 96
7, 270848, Note_off_c, 5, 76, 0
7, 270848, Note_on_c, 5, 77, 96
7, 271104, Note_off_c, 5, 77, 0
7, 271104, Note_on_c, 5, 79, 96
7, 271104, Note_off_c, 5, 77, 0
7, 271104, Note_on_c, 5, 79, 96
7, 271360, Note_off_c, 5, 79, 0
7, 271360, Note_on_c, 5, 81, 96
7, 271360, Note_off_c, 5, 79, 0
7, 271360, Note_on_c, 5, 81, 96
7, 271360, Note_off_c, 5, 84, 0
7, 271360, Note_on_c, 5, 77, 96
7, 271360, Note_off_c, 5, 76, 0
7, 271360, Note_on_c, 5, 77, 96
7, 271360, Note_off_c, 5, 67, 0
7, 271360, Note_on_c, 5, 65, 96
7, 271616, Note_off_c, 5, 81, 0
7, 271616, Note_on_c, 5, 82, 96
7, 271616, Note_off_c, 5, 81, 0
7, 271616, Note_on_c, 5, 82, 96
7, 271872, Note_off_c, 5, 82, 0
7, 271872, Note_on_c, 5, 84, 96
7, 271872, Note_off_c, 5, 82, 0
7, 271872, Note_on_c, 5, 84, 96
7, 271872, Note_off_c, 5, 77, 0
7, 271872, Note_on_c, 5, 84, 96
7, 271872, Note_off_c, 5, 77, 0
7, 271872, Note_on_c, 5, 81, 96
7, 271872, Note_off_c, 5, 65, 0
7, 271872, Note_on_c, 5, 65, 96
7, 272896, Note_off_c, 5, 84, 0
7, 272896, Note_on_c, 5, 86, 96
7, 272896, Note_off_c, 5, 84, 0
7, 272896, Note_on_c, 5, 86, 96
7, 272896, Note_off_c, 5, 84, 0
7, 272896, Note_on_c, 5, 86, 96
7, 272896, Note_off_c, 5, 81, 0
7, 272896, Note_on_c, 5, 82, 96
7, 272896, Note_off_c, 5, 65, 0
7, 272896, Note_on_c, 5, 62, 96
7, 273408, Note_off_c, 5, 86, 0
7, 273408, Note_on_c, 5, 82, 96
7, 273408, Note_off_c, 5, 86, 0
7, 273408, Note_on_c, 5, 82, 96
7, 273408, Note_off_c, 5, 86, 0
7, 273408, Note_on_c, 5, 82, 96
7, 273408, Note_off_c, 5, 82, 0
7, 273408, Note_on_c, 5, 79, 96
7, 273408, Note_off_c, 5, 62, 0
7, 273408, Note_on_c, 5, 64, 96
7, 274432, Note_off_c, 5, 82, 0
7, 274432, Note_on_c, 5, 81, 96
7, 274432, Note_off_c, 5, 82, 0
7, 274432, Note_on_c, 5, 81, 96
7, 274432, Note_off_c, 5, 82, 0
7, 274432, Note_on_c, 5, 81, 96
7, 274432, Note_off_c, 5, 79, 0
7, 274432, Note_on_c, 5, 77, 96
7, 274432, Note_off_c, 5, 64, 0
7, 274432, Note_on_c, 5, 60, 96
7, 274944, Note_off_c, 5, 81, 0
7, 274944, Note_on_c, 5, 82, 96
7, 274944, Note_off_c, 5, 81, 0
7, 274944, Note_on_c, 5, 82, 96
7, 274944, Note_off_c, 5, 81, 0
7, 274944, Note_on_c, 5, 82, 96
7, 274944, Note_off_c, 5, 77, 0
7, 274944, Note_on_c, 5, 79, 96
7, 274944, Note_off_c, 5, 60, 0
7, 274944, Note_on_c, 5, 72, 96
7, 275456, Note_off_c, 5, 82, 0
7, 275456, Note_on_c, 5, 79, 96
7, 275456, Note_off_c, 5, 82, 0
7, 275456, Note_on_c, 5, 79, 96
7, 275456, Note_off_c, 5, 82, 0
7, 275456, Note_on_c, 5, 79, 96
7, 275456, Note_off_c, 5, 79, 0
7, 275456, Note_on_c, 5, 72, 96
7, 275968, Note_off_c, 5, 79, 0
7, 275968, Note_on_c, 5, 81, 96
7, 275968, Note_off_c, 5, 79, 0
7, 275968, Note_on_c, 5, 81, 96
7, 275968, Note_off_c, 5, 79, 0
7, 275968, Note_on_c, 5, 81, 96
7, 275968, Note_off_c, 5, 72, 0
7, 275968, Note_on_c, 5, 77, 96
7, 275968, Note_off_c, 5, 72, 0
7, 275968, Note_on_c, 5, 60, 96
7, 276480, Note_off_c, 5, 81, 0
7, 276480, Note_off_c, 5, 81, 0
7, 276480, Note_off_c, 5, 81, 0
7, 276480, Note_off_c, 5, 77, 0
7, 276480, Note_off_c, 5, 60, 0
7, 276480, Note_on_c, 5, 81, 96
7, 276480, Note_on_c, 5, 81, 96
7, 276480, Note_on_c, 5, 81, 96
7, 276480, Note_on_c, 5, 77, 96
7, 276480, Note_on_c, 5, 72, 96
7, 276992, Note_off_c, 5, 81, 0
7, 276992, Note_on_c, 5, 86, 96
7, 276992, Note_off_c, 5, 81, 0
7, 276992, Note_on_c, 5, 86, 96
7, 276992, Note_off_c, 5, 72, 0
7, 276992, Note_on_c, 5, 69, 96
7, 277248, Note_off_c, 5, 86, 0
7, 277248, Note_on_c, 5, 84, 96
7, 277248, Note_off_c, 5, 86, 0
7, 277248, Note_on_c, 5, 84, 96
7, 277504, Note_off_c, 5, 84, 0
7, 277504, Note_on_c, 5, 86, 96
7, 277504, Note_off_c, 5, 81, 0
7, 277504, Note_on_c, 5, 77, 96
7, 277504, Note_off_c, 5, 84, 0
7, 277504, Note_on_c, 5, 86, 96
7, 277504, Note_off_c, 5, 77, 0
7, 277504, Note_on_c, 5, 77, 96
7, 277504, Note_off_c, 5, 69, 0
7, 277504, Note_on_c, 5, 65, 96
7, 278016, Note_off_c, 5, 86, 0
7, 278016, Note_on_c, 5, 79, 96
7, 278016, Note_off_c, 5, 77, 0
7, 278016, Note_on_c, 5, 76, 96
7, 278016, Note_off_c, 5, 86, 0
7, 278016, Note_on_c, 5, 79, 96
7, 278016, Note_off_c, 5, 77, 0
7, 278016, Note_on_c, 5, 76, 96
7, 278016, Note_off_c, 5, 65, 0
7, 278016, Note_on_c, 5, 72, 96
7, 278528, Note_off_c, 5, 79, 0
7, 278528, Note_on_c, 5, 84, 96
7, 278528, Note_off_c, 5, 76, 0
7, 278528, Note_on_c, 5, 81, 96
7, 278528, Note_off_c, 5, 79, 0
7, 278528, Note_on_c, 5, 84, 96
7, 278528, Note_off_c, 5, 76, 0
7, 278528, Note_on_c, 5, 81, 96
7, 278784, Note_off_c, 5, 81, 0
7, 278784, Note_on_c, 5, 79, 96
7, 278784, Note_off_c, 5, 81, 0
7, 278784, Note_on_c, 5, 79, 96
7, 279040, Note_off_c, 5, 84, 0
7, 279040, Note_off_c, 5, 79, 0
7, 279040, Note_on_c, 5, 81, 96
7, 279040, Note_off_c, 5, 84, 0
7, 279040, Note_off_c, 5, 79, 0
7, 279040, Note_on_c, 5, 81, 96
7, 279040, Note_off_c, 5, 72, 0
7, 279040, Note_on_c, 5, 65, 96
7, 279552, Note_on_c, 5, 77, 96
7, 279552, Note_off_c, 5, 81, 0
7, 279552, Note_on_c, 5, 74, 96
7, 279552, Note_on_c, 5, 77, 96
7, 279552, Note_off_c, 5, 81, 0
7, 279552, Note_on_c, 5, 74, 96
7, 279552, Note_off_c, 5, 65, 0
7, 279552, Note_on_c, 5, 70, 96
7, 280064, Note_off_c, 5, 77, 0
7, 280064, Note_on_c, 5, 82, 96
7, 280064, Note_off_c, 5, 74, 0
7, 280064, Note_on_c, 5, 79, 96
7, 280064, Note_off_c, 5, 77, 0
7, 280064, Note_on_c, 5, 82, 96
7, 280064, Note_off_c, 5, 74, 0
7, 280064, Note_on_c, 5, 79, 96
7, 280320, Note_off_c, 5, 82, 0
7, 280320, Note_on_c, 5, 81, 96
7, 280320, Note_off_c, 5, 82, 0
7, 280320, Note_on_c, 5, 81, 96
7, 280576, Note_off_c, 5, 81, 0
7, 280576, Note_on_c, 5, 82, 96
7, 280576, Note_off_c, 5, 79, 0
7, 280576, Note_off_c, 5, 81, 0
7, 280576, Note_on_c, 5, 82, 96
7, 280576, Note_off_c, 5, 79, 0
7, 280576, Note_off_c, 5, 70, 0
7, 280576, Note_on_c, 5, 64, 96
7, 281088, Note_off_c, 5, 82, 0
7, 281088, Note_on_c, 5, 72, 96
7, 281088, Note_on_c, 5, 72, 96
7, 281088, Note_off_c, 5, 82, 0
7, 281088, Note_on_c, 5, 76, 96
7, 281088, Note_on_c, 5, 72, 96
7, 281088, Note_off_c, 5, 64, 0
7, 281088, Note_on_c, 5, 69, 96
7, 281600, Note_off_c, 5, 72, 0
7, 281600, Note_on_c, 5, 81, 96
7, 281600, Note_off_c, 5, 72, 0
7, 281600, Note_on_c, 5, 77, 96
7, 281600, Note_off_c, 5, 76, 0
7, 281600, Note_on_c, 5, 81, 96
7, 281600, Note_off_c, 5, 72, 0
7, 281600, Note_on_c, 5, 77, 96
7, 281856, Note_off_c, 5, 77, 0
7, 281856, Note_on_c, 5, 76, 96
7, 281856, Note_off_c, 5, 77, 0
7, 281856, Note_on_c, 5, 76, 96
7, 282112, Note_off_c, 5, 81, 0
7, 282112, Note_off_c, 5, 76, 0
7, 282112, Note_on_c, 5, 77, 96
7, 282112, Note_off_c, 5, 81, 0
7, 282112, Note_off_c, 5, 76, 0
7, 282112, Note_on_c, 5, 77, 96
7, 282112, Note_off_c, 5, 69, 0
7, 282112, Note_on_c, 5, 62, 96
7, 282624, Note_off_c, 5, 77, 0
7, 282624, Note_off_c, 5, 77, 0
7, 282624, Note_off_c, 5, 62, 0
7, 282624, Note_on_c, 5, 74, 96
7, 282624, Note_on_c, 5, 70, 96
7, 282624, Note_on_c, 5, 74, 96
7, 282624, Note_on_c, 5, 70, 96
7, 282624, Note_on_c, 5, 67, 96
7, 283136, Note_off_c, 5, 74, 0
7, 283136, Note_on_c, 5, 79, 96
7, 283136, Note_off_c, 5, 70, 0
7, 283136, Note_on_c, 5, 76, 96
7, 283136, Note_off_c, 5, 74, 0
7, 283136, Note_on_c, 5, 79, 96
7, 283136, Note_off_c, 5, 70, 0
7, 283136, Note_on_c, 5, 76, 96
7, 283392, Note_off_c, 5, 79, 0
7, 283392, Note_on_c, 5, 77, 96
7, 283392, Note_off_c, 5, 79, 0
7, 283392, Note_on_c, 5, 77, 96
7, 283648, Note_off_c, 5, 77, 0
7, 283648, Note_on_c, 5, 79, 96
7, 283648, Note_off_c, 5, 76, 0
7, 283648, Note_off_c, 5, 77, 0
7, 283648, Note_on_c, 5, 79, 96
7, 283648, Note_off_c, 5, 76, 0
7, 283648, Note_off_c, 5, 67, 0
7, 283648, Note_on_c, 5, 60, 96
7, 284160, Note_off_c, 5, 79, 0
7, 284160, Note_on_c, 5, 72, 96
7, 284160, Note_on_c, 5, 69, 96
7, 284160, Note_off_c, 5, 79, 0
7, 284160, Note_on_c, 5, 72, 96
7, 284160, Note_on_c, 5, 69, 96
7, 284160, Note_off_c, 5, 60, 0
7, 284160, Note_on_c, 5, 65, 96
7, 284672, Note_off_c, 5, 72, 0
7, 284672, Note_on_c, 5, 77, 96
7, 284672, Note_off_c, 5, 69, 0
7, 284672, Note_on_c, 5, 74, 96
7, 284672, Note_off_c, 5, 72, 0
7, 284672, Note_on_c, 5, 77, 96
7, 284672, Note_off_c, 5, 69, 0
7, 284672, Note_on_c, 5, 74, 96
7, 284928, Note_off_c, 5, 74, 0
7, 284928, Note_on_c, 5, 72, 96
7, 284928, Note_off_c, 5, 74, 0
7, 284928, Note_on_c, 5, 72, 96
7, 285184, Note_off_c, 5, 77, 0
7, 285184, Note_off_c, 5, 72, 0
7, 285184, Note_on_c, 5, 74, 96
7, 285184, Note_off_c, 5, 77, 0
7, 285184, Note_off_c, 5, 72, 0
7, 285184, Note_on_c, 5, 74, 96
7, 285184, Note_off_c, 5, 65, 0
7, 285184, Note_on_c, 5, 59, 96
7, 285696, Note_off_c, 5, 74, 0
7, 285696, Note_on_c, 5, 67, 96
7, 285696, Note_on_c, 5, 76, 96
7, 285696, Note_off_c, 5, 74, 0
7, 285696, Note_on_c, 5, 67, 96
7, 285696, Note_off_c, 5, 59, 0
7, 285696, Note_on_c, 5, 60, 96
7, 285952, Note_on_c, 5, 79, 96
7, 285952, Note_off_c, 5, 67, 0
7, 285952, Note_on_c, 5, 76, 96
7, 286208, Note_off_c, 5, 79, 0
7, 286208, Note_on_c, 5, 77, 96
7, 286208, Note_off_c, 5, 76, 0
7, 286208, Note_on_c, 5, 74, 96
7, 286208, Note_off_c, 5, 76, 0
7, 286208, Note_on_c, 5, 76, 96
7, 286208, Note_off_c, 5, 67, 0
7, 286208, Note_on_c, 5, 72, 96
7, 286208, Note_off_c, 5, 60, 0
7, 286208, Note_on_c, 5, 67, 96
7, 286464, Note_off_c, 5, 77, 0
7, 286464, Note_on_c, 5, 79, 96
7, 286464, Note_off_c, 5, 74, 0
7, 286464, Note_on_c, 5, 76, 96
7, 286720, Note_off_c, 5, 79, 0
7, 286720, Note_on_c, 5, 76, 96
7, 286720, Note_off_c, 5, 76, 0
7, 286720, Note_on_c, 5, 72, 96
7, 286720, Note_off_c, 5, 76, 0
7, 286720, Note_on_c, 5, 76, 96
7, 286720, Note_off_c, 5, 72, 0
7, 286720, Note_on_c, 5, 72, 96
7, 286720, Note_off_c, 5, 67, 0
7, 286720, Note_on_c, 5, 67, 96
7, 286976, Note_off_c, 5, 76, 0
7, 286976, Note_on_c, 5, 79, 96
7, 286976, Note_off_c, 5, 72, 0
7, 286976, Note_on_c, 5, 76, 96
7, 287232, Note_off_c, 5, 79, 0
7, 287232, Note_on_c, 5, 82, 96
7, 287232, Note_off_c, 5, 76, 0
7, 287232, Note_on_c, 5, 79, 96
7, 287232, Note_off_c, 5, 76, 0
7, 287232, Note_on_c, 5, 76, 96
7, 287232, Note_off_c, 5, 72, 0
7, 287232, Note_on_c, 5, 72, 96
7, 287232, Note_off_c, 5, 67, 0
7, 287232, Note_on_c, 5, 67, 96
7, 287488, Note_off_c, 5, 82, 0
7, 287488, Note_on_c, 5, 79, 96
7, 287488, Note_off_c, 5, 79, 0
7, 287488, Note_on_c, 5, 76, 96
7, 287744, Note_off_c, 5, 79, 0
7, 287744, Note_on_c, 5, 77, 96
7, 287744, Note_off_c, 5, 76, 0
7, 287744, Note_on_c, 5, 74, 96
7, 287744, Note_off_c, 5, 76, 0
7, 287744, Note_on_c, 5, 76, 96
7, 287744, Note_off_c, 5, 72, 0
7, 287744, Note_on_c, 5, 72, 96
7, 287744, Note_off_c, 5, 67, 0
7, 287744, Note_on_c, 5, 67, 96
7, 288000, Note_off_c, 5, 77, 0
7, 288000, Note_on_c, 5, 79, 96
7, 288000, Note_off_c, 5, 74, 0
7, 288000, Note_on_c, 5, 76, 96
7, 288256, Note_off_c, 5, 79, 0
7, 288256, Note_on_c, 5, 76, 96
7, 288256, Note_off_c, 5, 76, 0
7, 288256, Note_on_c, 5, 72, 96
7, 288256, Note_off_c, 5, 76, 0
7, 288256, Note_on_c, 5, 76, 96
7, 288256, Note_off_c, 5, 72, 0
7, 288256, Note_on_c, 5, 72, 96
7, 288256, Note_off_c, 5, 67, 0
7, 288256, Note_on_c, 5, 67, 96
7, 288512, Note_off_c, 5, 76, 0
7, 288512, Note_on_c, 5, 79, 96
7, 288512, Note_off_c, 5, 72, 0
7, 288512, Note_on_c, 5, 76, 96
7, 288768, Note_off_c, 5, 79, 0
7, 288768, Note_off_c, 5, 76, 0
7, 288768, Note_off_c, 5, 76, 0
7, 288768, Note_off_c, 5, 72, 0
7, 288768, Note_off_c, 5, 67, 0
7, 288768, Note_on_c, 5, 72, 96
7, 288768, Note_on_c, 5, 77, 96
7, 288768, Note_on_c, 5, 77, 96
7, 288768, Note_on_c, 5, 72, 96
7, 288768, Note_on_c, 5, 69, 96
7, 289024, Note_off_c, 5, 72, 0
7, 289024, Note_on_c, 5, 77, 96
7, 289024, Note_off_c, 5, 77, 0
7, 289024, Note_on_c, 5, 69, 96
7, 289280, Note_off_c, 5, 77, 0
7, 289280, Note_on_c, 5, 76, 96
7, 289280, Note_off_c, 5, 69, 0
7, 289280, Note_on_c, 5, 67, 96
7, 289280, Note_off_c, 5, 77, 0
7, 289280, Note_on_c, 5, 77, 96
7, 289280, Note_off_c, 5, 72, 0
7, 289280, Note_on_c, 5, 72, 96
7, 289280, Note_off_c, 5, 69, 0
7, 289280, Note_on_c, 5, 69, 96
7, 289536, Note_off_c, 5, 76, 0
7, 289536, Note_on_c, 5, 77, 96
7, 289536, Note_off_c, 5, 67, 0
7, 289536, Note_on_c, 5, 69, 96
7, 289792, Note_off_c, 5, 77, 0
7, 289792, Note_on_c, 5, 72, 96
7, 289792, Note_off_c, 5, 69, 0
7, 289792, Note_on_c, 5, 65, 96
7, 289792, Note_off_c, 5, 77, 0
7, 289792, Note_on_c, 5, 77, 96
7, 289792, Note_off_c, 5, 72, 0
7, 289792, Note_on_c, 5, 72, 96
7, 289792, Note_off_c, 5, 69, 0
7, 289792, Note_on_c, 5, 69, 96
7, 290048, Note_off_c, 5, 72, 0
7, 290048, Note_on_c, 5, 77, 96
7, 290048, Note_off_c, 5, 65, 0
7, 290048, Note_on_c, 5, 69, 96
7, 290304, Note_off_c, 5, 77, 0
7, 290304, Note_on_c, 5, 81, 96
7, 290304, Note_off_c, 5, 69, 0
7, 290304, Note_on_c, 5, 72, 96
7, 290304, Note_off_c, 5, 77, 0
7, 290304, Note_on_c, 5, 77, 96
7, 290304, Note_off_c, 5, 72, 0
7, 290304, Note_on_c, 5, 72, 96
7, 290304, Note_off_c, 5, 69, 0
7, 290304, Note_on_c, 5, 69, 96
7, 290560, Note_off_c, 5, 81, 0
7, 290560, Note_on_c, 5, 77, 96
7, 290560, Note_off_c, 5, 72, 0
7, 290560, Note_on_c, 5, 69, 96
7, 290816, Note_off_c, 5, 77, 0
7, 290816, Note_on_c, 5, 76, 96
7, 290816, Note_off_c, 5, 69, 0
7, 290816, Note_on_c, 5, 67, 96
7, 290816, Note_off_c, 5, 77, 0
7, 290816, Note_on_c, 5, 77, 96
7, 290816, Note_off_c, 5, 72, 0
7, 290816, Note_on_c, 5, 72, 96
7, 290816, Note_off_c, 5, 69, 0
7, 290816, Note_on_c, 5, 69, 96
7, 291072, Note_off_c, 5, 76, 0
7, 291072, Note_on_c, 5, 77, 96
7, 291072, Note_off_c, 5, 67, 0
7, 291072, Note_on_c, 5, 69, 96
7, 291328, Note_off_c, 5, 77, 0
7, 291328, Note_on_c, 5, 72, 96
7, 291328, Note_off_c, 5, 69, 0
7, 291328, Note_on_c, 5, 65, 96
7, 291328, Note_off_c, 5, 77, 0
7, 291328, Note_on_c, 5, 77, 96
7, 291328, Note_off_c, 5, 72, 0
7, 291328, Note_on_c, 5, 72, 96
7, 291328, Note_off_c, 5, 69, 0
7, 291328, Note_on_c, 5, 69, 96
7, 291584, Note_off_c, 5, 72, 0
7, 291584, Note_on_c, 5, 77, 96
7, 291584, Note_off_c, 5, 65, 0
7, 291584, Note_on_c, 5, 69, 96
7, 291840, Note_off_c, 5, 77, 0
7, 291840, Note_on_c, 5, 70, 96
7, 291840, Note_off_c, 5, 69, 0
7, 291840, Note_on_c, 5, 64, 96
7, 291840, Note_off_c, 5, 77, 0
7, 291840, Note_on_c, 5, 79, 96
7, 291840, Note_off_c, 5, 72, 0
7, 291840, Note_on_c, 5, 76, 96
7, 291840, Note_off_c, 5, 69, 0
7, 291840, Note_on_c, 5, 72, 96
7, 292096, Note_off_c, 5, 70, 0
7, 292096, Note_on_c, 5, 76, 96
7, 292096, Note_off_c, 5, 64, 0
7, 292096, Note_on_c, 5, 67, 96
7, 292352, Note_off_c, 5, 76, 0
7, 292352, Note_on_c, 5, 74, 96
7, 292352, Note_off_c, 5, 67, 0
7, 292352, Note_on_c, 5, 65, 96
7, 292352, Note_off_c, 5, 79, 0
7, 292352, Note_on_c, 5, 79, 96
7, 292352, Note_off_c, 5, 76, 0
7, 292352, Note_on_c, 5, 76, 96
7, 292352, Note_off_c, 5, 72, 0
7, 292352, Note_on_c, 5, 72, 96
7, 292608, Note_off_c, 5, 74, 0
7, 292608, Note_on_c, 5, 76, 96
7, 292608, Note_off_c, 5, 65, 0
7, 292608, Note_on_c, 5, 67, 96
7, 292864, Note_off_c, 5, 76, 0
7, 292864, Note_on_c, 5, 70, 96
7, 292864, Note_off_c, 5, 67, 0
7, 292864, Note_on_c, 5, 64, 96
7, 292864, Note_off_c, 5, 79, 0
7, 292864, Note_on_c, 5, 79, 96
7, 292864, Note_off_c, 5, 76, 0
7, 292864, Note_on_c, 5, 76, 96
7, 292864, Note_off_c, 5, 72, 0
7, 292864, Note_on_c, 5, 72, 96
7, 293120, Note_off_c, 5, 70, 0
7, 293120, Note_on_c, 5, 76, 96
7, 293120, Note_off_c, 5, 64, 0
7, 293120, Note_on_c, 5, 67, 96
7, 293376, Note_off_c, 5, 76, 0
7, 293376, Note_on_c, 5, 79, 96
7, 293376, Note_off_c, 5, 67, 0
7, 293376, Note_on_c, 5, 70, 96
7, 293376, Note_off_c, 5, 79, 0
7, 293376, Note_on_c, 5, 79, 96
7, 293376, Note_off_c, 5, 76, 0
7, 293376, Note_on_c, 5, 76, 96
7, 293376, Note_off_c, 5, 72, 0
7, 293376, Note_on_c, 5, 72, 96
7, 293632, Note_off_c, 5, 79, 0
7, 293632, Note_on_c, 5, 76, 96
7, 293632, Note_off_c, 5, 70, 0
7, 293632, Note_on_c, 5, 67, 96
7, 293888, Note_off_c, 5, 76, 0
7, 293888, Note_on_c, 5, 74, 96
7, 293888, Note_off_c, 5, 67, 0
7, 293888, Note_on_c, 5, 65, 96
7, 293888, Note_off_c, 5, 79, 0
7, 293888, Note_on_c, 5, 79, 96
7, 293888, Note_off_c, 5, 76, 0
7, 293888, Note_on_c, 5, 76, 96
7, 293888, Note_off_c, 5, 72, 0
7, 293888, Note_on_c, 5, 72, 96
7, 294144, Note_off_c, 5, 74, 0
7, 294144, Note_on_c, 5, 76, 96
7, 294144, Note_off_c, 5, 65, 0
7, 294144, Note_on_c, 5, 67, 96
7, 294400, Note_off_c, 5, 76, 0
7, 294400, Note_on_c, 5, 70, 96
7, 294400, Note_off_c, 5, 67, 0
7, 294400, Note_on_c, 5, 64, 96
7, 294400, Note_off_c, 5, 79, 0
7, 294400, Note_on_c, 5, 79, 96
7, 294400, Note_off_c, 5, 76, 0
7, 294400, Note_on_c, 5, 76, 96
7, 294400, Note_off_c, 5, 72, 0
7, 294400, Note_on_c, 5, 72, 96
7, 294656, Note_off_c, 5, 70, 0
7, 294656, Note_on_c, 5, 76, 96
7, 294656, Note_off_c, 5, 64, 0
7, 294656, Note_on_c, 5, 67, 96
7, 294912, Note_off_c, 5, 76, 0
7, 294912, Note_off_c, 5, 67, 0
7, 294912, Note_off_c, 5, 79, 0
7, 294912, Note_off_c, 5, 76, 0
7, 294912, Note_off_c, 5, 72, 0
7, 294912, Note_on_c, 5, 69, 96
7, 294912, Note_on_c, 5, 65, 96
7, 294912, Note_on_c, 5, 81, 96
7, 294912, Note_on_c, 5, 77, 96
7, 294912, Note_on_c, 5, 72, 96
7, 295936, Note_off_c, 5, 69, 0
7, 295936, Note_on_c, 5, 72, 96
7, 295936, Note_off_c, 5, 65, 0
7, 295936, Note_on_c, 5, 72, 96
7, 295936, Note_off_c, 5, 81, 0
7, 295936, Note_on_c, 5, 72, 96
7, 295936, Note_off_c, 5, 77, 0
7, 295936, Note_off_c, 5, 72, 0
7, 295936, Note_on_c, 5, 72, 96
7, 296448, Note_off_c, 5, 72, 0
7, 296448, Note_on_c, 5, 77, 96
7, 296448, Note_off_c, 5, 72, 0
7, 296448, Note_on_c, 5, 77, 96
7, 296448, Note_off_c, 5, 72, 0
7, 296448, Note_on_c, 5, 77, 96
7, 296448, Note_off_c, 5, 72, 0
7, 296448, Note_on_c, 5, 70, 96
7, 296960, Note_off_c, 5, 70, 0
7, 296960, Note_on_c, 5, 62, 96
7, 297472, Note_on_c, 5, 70, 96
7, 297472, Note_off_c, 5, 62, 0
7, 297472, Note_on_c, 5, 62, 96
7, 297984, Note_on_c, 5, 77, 96
7, 297984, Note_off_c, 5, 77, 0
7, 297984, Note_on_c, 5, 77, 96
7, 297984, Note_off_c, 5, 77, 0
7, 297984, Note_off_c, 5, 70, 0
7, 297984, Note_on_c, 5, 69, 96
7, 297984, Note_off_c, 5, 62, 0
7, 297984, Note_on_c, 5, 60, 96
7, 298496, Note_off_c, 5, 77, 0
7, 298496, Note_on_c, 5, 82, 96
7, 298496, Note_off_c, 5, 77, 0
7, 298496, Note_on_c, 5, 82, 96
7, 298496, Note_off_c, 5, 77, 0
7, 298496, Note_on_c, 5, 82, 96
7, 299008, Note_off_c, 5, 82, 0
7, 299008, Note_on_c, 5, 79, 96
7, 299008, Note_off_c, 5, 82, 0
7, 299008, Note_on_c, 5, 79, 96
7, 299008, Note_off_c, 5, 82, 0
7, 299008, Note_on_c, 5, 79, 96
7, 299008, Note_off_c, 5, 69, 0
7, 299008, Note_on_c, 5, 74, 96
7, 299008, Note_off_c, 5, 60, 0
7, 299008, Note_on_c, 5, 62, 96
7, 299520, Note_off_c, 5, 79, 0
7, 299520, Note_on_c, 5, 76, 96
7, 299520, Note_off_c, 5, 79, 0
7, 299520, Note_on_c, 5, 76, 96
7, 299520, Note_off_c, 5, 79, 0
7, 299520, Note_on_c, 5, 76, 96
7, 299520, Note_off_c, 5, 74, 0
7, 299520, Note_on_c, 5, 72, 96
7, 299520, Note_off_c, 5, 62, 0
7, 299520, Note_on_c, 5, 55, 96
7, 300032, Note_off_c, 5, 72, 0
7, 300032, Note_on_c, 5, 70, 96
7, 300032, Note_off_c, 5, 55, 0
7, 300032, Note_on_c, 5, 60, 96
7, 300288, Note_off_c, 5, 70, 0
7, 300288, Note_on_c, 5, 69, 96
7, 300544, Note_off_c, 5, 76, 0
7, 300544, Note_on_c, 5, 77, 96
7, 300544, Note_off_c, 5, 76, 0
7, 300544, Note_on_c, 5, 77, 96
7, 300544, Note_off_c, 5, 76, 0
7, 300544, Note_on_c, 5, 77, 96
7, 300544, Note_off_c, 5, 69, 0
7, 300544, Note_on_c, 5, 70, 96
7, 300544, Note_off_c, 5, 60, 0
7, 300544, Note_on_c, 5, 60, 96
7, 301056, Note_off_c, 5, 77, 0
7, 301056, Note_off_c, 5, 77, 0
7, 301056, Note_off_c, 5, 77, 0
7, 301056, Note_off_c, 5, 70, 0
7, 301056, Note_off_c, 5, 60, 0
7, 301056, Note_on_c, 5, 77, 96
7, 301056, Note_on_c, 5, 77, 96
7, 301056, Note_on_c, 5, 77, 96
7, 301056, Note_on_c, 5, 69, 96
7, 301056, Note_on_c, 5, 60, 96
7, 301312, Note_off_c, 5, 77, 0
7, 301312, Note_on_c, 5, 77, 96
7, 301312, Note_off_c, 5, 77, 0
7, 301312, Note_on_c, 5, 77, 96
7, 301568, Note_off_c, 5, 77, 0
7, 301568, Note_on_c, 5, 76, 96
7, 301568, Note_off_c, 5, 77, 0
7, 301568, Note_on_c, 5, 76, 96
7, 301824, Note_off_c, 5, 76, 0
7, 301824, Note_on_c, 5, 77, 96
7, 301824, Note_off_c, 5, 76, 0
7, 301824, Note_on_c, 5, 77, 96
7, 302080, Note_off_c, 5, 77, 0
7, 302080, Note_on_c, 5, 72, 96
7, 302080, Note_off_c, 5, 77, 0
7, 302080, Note_on_c, 5, 72, 96
7, 302080, Note_off_c, 5, 77, 0
7, 302080, Note_on_c, 5, 77, 96
7, 302080, Note_off_c, 5, 69, 0
7, 302080, Note_on_c, 5, 72, 96
7, 302080, Note_off_c, 5, 60, 0
7, 302080, Note_on_c, 5, 69, 96
7, 302336, Note_off_c, 5, 72, 0
7, 302336, Note_on_c, 5, 77, 96
7, 302336, Note_off_c, 5, 72, 0
7, 302336, Note_on_c, 5, 77, 96
7, 302592, Note_off_c, 5, 77, 0
7, 302592, Note_on_c, 5, 81, 96
7, 302592, Note_off_c, 5, 77, 0
7, 302592, Note_on_c, 5, 81, 96
7, 302592, Note_off_c, 5, 77, 0
7, 302592, Note_on_c, 5, 77, 96
7, 302592, Note_off_c, 5, 72, 0
7, 302592, Note_on_c, 5, 72, 96
7, 302592, Note_off_c, 5, 69, 0
7, 302592, Note_on_c, 5, 69, 96
7, 302848, Note_off_c, 5, 81, 0
7, 302848, Note_on_c, 5, 77, 96
7, 302848, Note_off_c, 5, 81, 0
7, 302848, Note_on_c, 5, 77, 96
7, 303104, Note_off_c, 5, 77, 0
7, 303104, Note_on_c, 5, 76, 96
7, 303104, Note_off_c, 5, 77, 0
7, 303104, Note_on_c, 5, 76, 96
7, 303104, Note_off_c, 5, 77, 0
7, 303104, Note_on_c, 5, 77, 96
7, 303104, Note_off_c, 5, 72, 0
7, 303104, Note_on_c, 5, 72, 96
7, 303104, Note_off_c, 5, 69, 0
7, 303104, Note_on_c, 5, 69, 96
7, 303360, Note_off_c, 5, 76, 0
7, 303360, Note_on_c, 5, 77, 96
7, 303360, Note_off_c, 5, 76, 0
7, 303360, Note_on_c, 5, 77, 96
7, 303616, Note_off_c, 5, 77, 0
7, 303616, Note_on_c, 5, 72, 96
7, 303616, Note_off_c, 5, 77, 0
7, 303616, Note_on_c, 5, 72, 96
7, 303616, Note_off_c, 5, 77, 0
7, 303616, Note_on_c, 5, 77, 96
7, 303616, Note_off_c, 5, 72, 0
7, 303616, Note_on_c, 5, 72, 96
7, 303616, Note_off_c, 5, 69, 0
7, 303616, Note_on_c, 5, 69, 96
7, 303872, Note_off_c, 5, 72, 0
7, 303872, Note_on_c, 5, 77, 96
7, 303872, Note_off_c, 5, 72, 0
7, 303872, Note_on_c, 5, 77, 96
7, 304128, Note_off_c, 5, 77, 0
7, 304128, Note_on_c, 5, 69, 96
7, 304128, Note_off_c, 5, 77, 0
7, 304128, Note_on_c, 5, 69, 96
7, 304128, Note_off_c, 5, 77, 0
7, 304128, Note_on_c, 5, 77, 96
7, 304128, Note_off_c, 5, 72, 0
7, 304128, Note_on_c, 5, 72, 96
7, 304128, Note_off_c, 5, 69, 0
7, 304128, Note_on_c, 5, 69, 96
7, 304384, Note_off_c, 5, 69, 0
7, 304384, Note_on_c, 5, 77, 96
7, 304384, Note_off_c, 5, 69, 0
7, 304384, Note_on_c, 5, 77, 96
7, 304640, Note_off_c, 5, 77, 0
7, 304640, Note_on_c, 5, 76, 96
7, 304640, Note_off_c, 5, 77, 0
7, 304640, Note_on_c, 5, 76, 96
7, 304640, Note_off_c, 5, 77, 0
7, 304640, Note_on_c, 5, 77, 96
7, 304640, Note_off_c, 5, 72, 0
7, 304640, Note_on_c, 5, 72, 96
7, 304640, Note_off_c, 5, 69, 0
7, 304640, Note_on_c, 5, 69, 96
7, 304896, Note_off_c, 5, 76, 0
7, 304896, Note_on_c, 5, 77, 96
7, 304896, Note_off_c, 5, 76, 0
7, 304896, Note_on_c, 5, 77, 96
7, 305152, Note_off_c, 5, 77, 0
7, 305152, Note_on_c, 5, 72, 96
7, 305152, Note_off_c, 5, 77, 0
7, 305152, Note_on_c, 5, 72, 96
7, 305152, Note_off_c, 5, 77, 0
7, 305152, Note_on_c, 5, 77, 96
7, 305152, Note_off_c, 5, 72, 0
7, 305152, Note_on_c, 5, 72, 96
7, 305152, Note_off_c, 5, 69, 0
7, 305152, Note_on_c, 5, 69, 96
7, 305408, Note_off_c, 5, 72, 0
7, 305408, Note_on_c, 5, 77, 96
7, 305408, Note_off_c, 5, 72, 0
7, 305408, Note_on_c, 5, 77, 96
7, 305664, Note_off_c, 5, 77, 0
7, 305664, Note_on_c, 5, 81, 96
7, 305664, Note_off_c, 5, 77, 0
7, 305664, Note_on_c, 5, 81, 96
7, 305664, Note_off_c, 5, 77, 0
7, 305664, Note_on_c, 5, 77, 96
7, 305664, Note_off_c, 5, 72, 0
7, 305664, Note_on_c, 5, 72, 96
7, 305664, Note_off_c, 5, 69, 0
7, 305664, Note_on_c, 5, 69, 96
7, 305920, Note_off_c, 5, 81, 0
7, 305920, Note_on_c, 5, 77, 96
7, 305920, Note_off_c, 5, 81, 0
7, 305920, Note_on_c, 5, 77, 96
7, 306176, Note_off_c, 5, 77, 0
7, 306176, Note_on_c, 5, 76, 96
7, 306176, Note_off_c, 5, 77, 0
7, 306176, Note_on_c, 5, 76, 96
7, 306176, Note_off_c, 5, 77, 0
7, 306176, Note_on_c, 5, 77, 96
7, 306176, Note_off_c, 5, 72, 0
7, 306176, Note_on_c, 5, 72, 96
7, 306176, Note_off_c, 5, 69, 0
7, 306176, Note_on_c, 5, 69, 96
7, 306432, Note_off_c, 5, 76, 0
7, 306432, Note_on_c, 5, 77, 96
7, 306432, Note_off_c, 5, 76, 0
7, 306432, Note_on_c, 5, 77, 96
7, 306688, Note_off_c, 5, 77, 0
7, 306688, Note_on_c, 5, 72, 96
7, 306688, Note_off_c, 5, 77, 0
7, 306688, Note_on_c, 5, 72, 96
7, 306688, Note_off_c, 5, 77, 0
7, 306688, Note_on_c, 5, 77, 96
7, 306688, Note_off_c, 5, 72, 0
7, 306688, Note_on_c, 5, 72, 96
7, 306688, Note_off_c, 5, 69, 0
7, 306688, Note_on_c, 5, 69, 96
7, 306944, Note_off_c, 5, 72, 0
7, 306944, Note_on_c, 5, 77, 96
7, 306944, Note_off_c, 5, 72, 0
7, 306944, Note_on_c, 5, 77, 96
7, 307200, Note_off_c, 5, 77, 0
7, 307200, Note_off_c, 5, 77, 0
7, 307200, Note_off_c, 5, 77, 0
7, 307200, Note_off_c, 5, 72, 0
7, 307200, Note_off_c, 5, 69, 0
7, 307200, Note_on_c, 5, 69, 96
7, 307200, Note_on_c, 5, 69, 96
7, 307200, Note_on_c, 5, 77, 96
7, 307200, Note_on_c, 5, 72, 96
7, 307200, Note_on_c, 5, 69, 96
7, 308224, Note_off_c, 5, 69, 0
7, 308224, Note_off_c, 5, 69, 0
7, 308224, Note_off_c, 5, 77, 0
7, 308224, Note_off_c, 5, 72, 0
7, 308224, Note_on_c, 5, 60, 96
7, 308224, Note_off_c, 5, 69, 0
7, 308736, Note_off_c, 5, 60, 0
7, 308736, Note_on_c, 5, 65, 96
7, 308992, Note_on_c, 5, 72, 96
7, 308992, Note_on_c, 5, 72, 96
7, 309248, Note_off_c, 5, 72, 0
7, 309248, Note_on_c, 5, 70, 96
7, 309248, Note_off_c, 5, 72, 0
7, 309248, Note_on_c, 5, 70, 96
7, 309504, Note_off_c, 5, 70, 0
7, 309504, Note_on_c, 5, 72, 96
7, 309504, Note_off_c, 5, 70, 0
7, 309504, Note_on_c, 5, 72, 96
7, 309760, Note_off_c, 5, 72, 0
7, 309760, Note_on_c, 5, 69, 96
7, 309760, Note_off_c, 5, 72, 0
7, 309760, Note_on_c, 5, 69, 96
7, 309760, Note_off_c, 5, 65, 0
7, 309760, Note_on_c, 5, 67, 96
7, 310016, Note_off_c, 5, 69, 0
7, 310016, Note_on_c, 5, 72, 96
7, 310016, Note_off_c, 5, 69, 0
7, 310016, Note_on_c, 5, 72, 96
7, 310272, Note_off_c, 5, 72, 0
7, 310272, Note_on_c, 5, 77, 96
7, 310272, Note_off_c, 5, 72, 0
7, 310272, Note_on_c, 5, 77, 96
7, 310272, Note_off_c, 5, 67, 0
7, 310272, Note_on_c, 5, 65, 96
7, 310784, Note_off_c, 5, 77, 0
7, 310784, Note_off_c, 5, 77, 0
7, 310784, Note_off_c, 5, 65, 0
7, 310784, Note_on_c, 5, 63, 96
7, 311296, Note_off_c, 5, 63, 0
7, 311296, Note_on_c, 5, 62, 96
7, 311296, Note_on_c, 5, 53, 96
7, 311808, Note_off_c, 5, 62, 0
7, 311808, Note_on_c, 5, 63, 96
7, 311808, Note_off_c, 5, 53, 0
7, 311808, Note_on_c, 5, 60, 96
7, 312064, Note_on_c, 5, 72, 96
7, 312064, Note_on_c, 5, 72, 96
7, 312320, Note_off_c, 5, 72, 0
7, 312320, Note_on_c, 5, 70, 96
7, 312320, Note_off_c, 5, 72, 0
7, 312320, Note_on_c, 5, 70, 96
7, 312320, Note_off_c, 5, 63, 0
7, 312320, Note_on_c, 5, 67, 96
7, 312576, Note_off_c, 5, 70, 0
7, 312576, Note_on_c, 5, 72, 96
7, 312576, Note_off_c, 5, 70, 0
7, 312576, Note_on_c, 5, 72, 96
7, 312832, Note_off_c, 5, 72, 0
7, 312832, Note_on_c, 5, 69, 96
7, 312832, Note_off_c, 5, 72, 0
7, 312832, Note_on_c, 5, 69, 96
7, 312832, Note_off_c, 5, 67, 0
7, 312832, Note_on_c, 5, 65, 96
7, 312832, Note_off_c, 5, 60, 0
7, 312832, Note_on_c, 5, 62, 96
7, 313088, Note_off_c, 5, 69, 0
7, 313088, Note_on_c, 5, 72, 96
7, 313088, Note_off_c, 5, 69, 0
7, 313088, Note_on_c, 5, 72, 96
7, 313344, Note_off_c, 5, 72, 0
7, 313344, Note_off_c, 5, 72, 0
7, 313344, Note_off_c, 5, 65, 0
7, 313344, Note_off_c, 5, 62, 0
7, 313344, Note_on_c, 5, 65, 96
7, 313344, Note_on_c, 5, 65, 96
7, 313344, Note_on_c, 5, 63, 96
7, 313344, Note_on_c, 5, 60, 96
7, 313856, Note_off_c, 5, 63, 0
7, 313856, Note_on_c, 5, 62, 96
7, 313856, Note_off_c, 5, 60, 0
7, 313856, Note_on_c, 5, 58, 96
7, 314368, Note_off_c, 5, 65, 0
7, 314368, Note_off_c, 5, 65, 0
7, 314368, Note_off_c, 5, 62, 0
7, 314368, Note_on_c, 5, 60, 96
7, 314368, Note_off_c, 5, 58, 0
7, 314368, Note_on_c, 5, 57, 96
7, 314880, Note_off_c, 5, 60, 0
7, 314880, Note_on_c, 5, 62, 96
7, 314880, Note_off_c, 5, 57, 0
7, 314880, Note_on_c, 5, 58, 96
7, 315136, Note_on_c, 5, 70, 96
7, 315136, Note_on_c, 5, 70, 96
7, 315392, Note_off_c, 5, 70, 0
7, 315392, Note_on_c, 5, 69, 96
7, 315392, Note_off_c, 5, 70, 0
7, 315392, Note_on_c, 5, 69, 96
7, 315392, Note_off_c, 5, 62, 0
7, 315392, Note_on_c, 5, 65, 96
7, 315392, Note_off_c, 5, 58, 0
7, 315392, Note_on_c, 5, 62, 96
7, 315648, Note_off_c, 5, 69, 0
7, 315648, Note_on_c, 5, 70, 96
7, 315648, Note_off_c, 5, 69, 0
7, 315648, Note_on_c, 5, 70, 96
7, 315904, Note_off_c, 5, 70, 0
7, 315904, Note_on_c, 5, 65, 96
7, 315904, Note_off_c, 5, 70, 0
7, 315904, Note_on_c, 5, 65, 96
7, 315904, Note_off_c, 5, 65, 0
7, 315904, Note_on_c, 5, 63, 96
7, 315904, Note_off_c, 5, 62, 0
7, 315904, Note_on_c, 5, 60, 96
7, 316160, Note_off_c, 5, 65, 0
7, 316160, Note_on_c, 5, 70, 96
7, 316160, Note_off_c, 5, 65, 0
7, 316160, Note_on_c, 5, 70, 96
7, 316416, Note_off_c, 5, 70, 0
7, 316416, Note_on_c, 5, 77, 96
7, 316416, Note_off_c, 5, 70, 0
7, 316416, Note_on_c, 5, 77, 96
7, 316416, Note_off_c, 5, 63, 0
7, 316416, Note_on_c, 5, 60, 96
7, 316416, Note_off_c, 5, 60, 0
7, 316416, Note_on_c, 5, 58, 96
7, 316928, Note_off_c, 5, 58, 0
7, 316928, Note_on_c, 5, 57, 96
7, 317440, Note_off_c, 5, 77, 0
7, 317440, Note_off_c, 5, 77, 0
7, 317440, Note_on_c, 5, 65, 96
7, 317440, Note_off_c, 5, 60, 0
7, 317440, Note_on_c, 5, 65, 96
7, 317440, Note_off_c, 5, 57, 0
7, 317440, Note_on_c, 5, 53, 96
7, 317952, Note_off_c, 5, 65, 0
7, 317952, Note_on_c, 5, 70, 96
7, 317952, Note_off_c, 5, 65, 0
7, 317952, Note_on_c, 5, 65, 96
7, 317952, Note_off_c, 5, 53, 0
7, 317952, Note_on_c, 5, 55, 96
7, 318208, Note_on_c, 5, 77, 96
7, 318208, Note_on_c, 5, 77, 96
7, 318464, Note_off_c, 5, 77, 0
7, 318464, Note_on_c, 5, 76, 96
7, 318464, Note_off_c, 5, 77, 0
7, 318464, Note_on_c, 5, 76, 96
7, 318464, Note_off_c, 5, 65, 0
7, 318464, Note_on_c, 5, 67, 96
7, 318464, Note_off_c, 5, 55, 0
7, 318464, Note_on_c, 5, 58, 96
7, 318720, Note_off_c, 5, 76, 0
7, 318720, Note_on_c, 5, 77, 96
7, 318720, Note_off_c, 5, 76, 0
7, 318720, Note_on_c, 5, 77, 96
7, 318976, Note_off_c, 5, 77, 0
7, 318976, Note_on_c, 5, 72, 96
7, 318976, Note_off_c, 5, 77, 0
7, 318976, Note_on_c, 5, 72, 96
7, 318976, Note_off_c, 5, 70, 0
7, 318976, Note_on_c, 5, 72, 96
7, 318976, Note_off_c, 5, 67, 0
7, 318976, Note_on_c, 5, 64, 96
7, 318976, Note_off_c, 5, 58, 0
7, 318976, Note_on_c, 5, 57, 96
7, 319232, Note_off_c, 5, 72, 0
7, 319232, Note_on_c, 5, 77, 96
7, 319232, Note_off_c, 5, 72, 0
7, 319232, Note_on_c, 5, 77, 96
7, 319488, Note_off_c, 5, 77, 0
7, 319488, Note_off_c, 5, 77, 0
7, 319488, Note_off_c, 5, 72, 0
7, 319488, Note_off_c, 5, 64, 0
7, 319488, Note_off_c, 5, 57, 0
7, 319488, Note_on_c, 5, 81, 96
7, 319488, Note_on_c, 5, 81, 96
7, 319488, Note_on_c, 5, 70, 96
7, 319488, Note_on_c, 5, 65, 96
7, 319488, Note_on_c, 5, 53, 96
7, 320000, Note_off_c, 5, 70, 0
7, 320000, Note_on_c, 5, 69, 96
7, 320512, Note_off_c, 5, 81, 0
7, 320512, Note_off_c, 5, 81, 0
7, 320512, Note_off_c, 5, 69, 0
7, 320512, Note_on_c, 5, 67, 96
7, 320512, Note_off_c, 5, 65, 0
7, 320512, Note_on_c, 5, 67, 96
7, 320512, Note_off_c, 5, 53, 0
7, 320512, Note_on_c, 5, 52, 96
7, 321024, Note_off_c, 5, 67, 0
7, 321024, Note_on_c, 5, 69, 96
7, 321024, Note_off_c, 5, 67, 0
7, 321024, Note_on_c, 5, 65, 96
7, 321024, Note_off_c, 5, 52, 0
7, 321024, Note_on_c, 5, 50, 96
7, 321280, Note_on_c, 5, 81, 96
7, 321280, Note_on_c, 5, 81, 96
7, 321536, Note_off_c, 5, 81, 0
7, 321536, Note_on_c, 5, 79, 96
7, 321536, Note_off_c, 5, 81, 0
7, 321536, Note_on_c, 5, 79, 96
7, 321536, Note_off_c, 5, 69, 0
7, 321536, Note_on_c, 5, 72, 96
7, 321536, Note_off_c, 5, 65, 0
7, 321536, Note_on_c, 5, 64, 96
7, 321536, Note_off_c, 5, 50, 0
7, 321536, Note_on_c, 5, 52, 96
7, 321792, Note_off_c, 5, 79, 0
7, 321792, Note_on_c, 5, 81, 96
7, 321792, Note_off_c, 5, 79, 0
7, 321792, Note_on_c, 5, 81, 96
7, 322048, Note_off_c, 5, 81, 0
7, 322048, Note_on_c, 5, 77, 96
7, 322048, Note_off_c, 5, 81, 0
7, 322048, Note_on_c, 5, 77, 96
7, 322048, Note_off_c, 5, 72, 0
7, 322048, Note_on_c, 5, 71, 96
7, 322048, Note_off_c, 5, 64, 0
7, 322048, Note_on_c, 5, 62, 96
7, 322048, Note_off_c, 5, 52, 0
7, 322048, Note_on_c, 5, 53, 96
7, 322304, Note_off_c, 5, 77, 0
7, 322304, Note_on_c, 5, 81, 96
7, 322304, Note_off_c, 5, 77, 0
7, 322304, Note_on_c, 5, 81, 96
7, 322560, Note_off_c, 5, 81, 0
7, 322560, Note_on_c, 5, 86, 96
7, 322560, Note_off_c, 5, 81, 0
7, 322560, Note_on_c, 5, 86, 96
7, 322560, Note_off_c, 5, 71, 0
7, 322560, Note_on_c, 5, 67, 96
7, 322560, Note_off_c, 5, 62, 0
7, 322560, Note_on_c, 5, 62, 96
7, 322560, Note_off_c, 5, 53, 0
7, 322560, Note_on_c, 5, 55, 96
7, 323072, Note_off_c, 5, 62, 0
7, 323072, Note_on_c, 5, 67, 96
7, 323584, Note_off_c, 5, 86, 0
7, 323584, Note_off_c, 5, 86, 0
7, 323584, Note_off_c, 5, 67, 0
7, 323584, Note_on_c, 5, 62, 96
7, 323584, Note_off_c, 5, 67, 0
7, 323584, Note_on_c, 5, 67, 96
7, 323584, Note_off_c, 5, 55, 0
7, 323584, Note_on_c, 5, 53, 96
7, 324096, Note_off_c, 5, 62, 0
7, 324096, Note_on_c, 5, 65, 96
7, 324096, Note_off_c, 5, 67, 0
7, 324096, Note_on_c, 5, 62, 96
7, 324096, Note_off_c, 5, 53, 0
7, 324096, Note_on_c, 5, 55, 96
7, 324352, Note_on_c, 5, 86, 96
7, 324352, Note_on_c, 5, 86, 96
7, 324608, Note_off_c, 5, 86, 0
7, 324608, Note_on_c, 5, 84, 96
7, 324608, Note_off_c, 5, 86, 0
7, 324608, Note_on_c, 5, 84, 96
7, 324608, Note_off_c, 5, 65, 0
7, 324608, Note_on_c, 5, 69, 96
7, 324608, Note_off_c, 5, 62, 0
7, 324608, Note_on_c, 5, 65, 96
7, 324864, Note_off_c, 5, 84, 0
7, 324864, Note_on_c, 5, 86, 96
7, 324864, Note_off_c, 5, 84, 0
7, 324864, Note_on_c, 5, 86, 96
7, 325120, Note_off_c, 5, 86, 0
7, 325120, Note_on_c, 5, 83, 96
7, 325120, Note_off_c, 5, 86, 0
7, 325120, Note_on_c, 5, 83, 96
7, 325120, Note_off_c, 5, 69, 0
7, 325120, Note_on_c, 5, 67, 96
7, 325120, Note_off_c, 5, 65, 0
7, 325120, Note_on_c, 5, 65, 96
7, 325120, Note_off_c, 5, 55, 0
7, 325120, Note_on_c, 5, 55, 96
7, 325376, Note_off_c, 5, 83, 0
7, 325376, Note_on_c, 5, 86, 96
7, 325376, Note_off_c, 5, 83, 0
7, 325376, Note_on_c, 5, 86, 96
7, 325632, Note_off_c, 5, 86, 0
7, 325632, Note_off_c, 5, 86, 0
7, 325632, Note_off_c, 5, 67, 0
7, 325632, Note_off_c, 5, 65, 0
7, 325632, Note_off_c, 5, 55, 0
7, 325632, Note_on_c, 5, 88, 96
7, 325632, Note_on_c, 5, 88, 96
7, 325632, Note_on_c, 5, 67, 96
7, 325632, Note_on_c, 5, 64, 96
7, 325632, Note_on_c, 5, 48, 96
7, 325888, Note_off_c, 5, 88, 0
7, 325888, Note_on_c, 5, 76, 96
7, 325888, Note_off_c, 5, 88, 0
7, 325888, Note_on_c, 5, 76, 96
7, 326144, Note_off_c, 5, 76, 0
7, 326144, Note_on_c, 5, 74, 96
7, 326144, Note_off_c, 5, 76, 0
7, 326144, Note_on_c, 5, 74, 96
7, 326400, Note_off_c, 5, 74, 0
7, 326400, Note_on_c, 5, 76, 96
7, 326400, Note_off_c, 5, 74, 0
7, 326400, Note_on_c, 5, 76, 96
7, 326656, Note_off_c, 5, 76, 0
7, 326656, Note_on_c, 5, 72, 96
7, 326656, Note_off_c, 5, 76, 0
7, 326656, Note_on_c, 5, 72, 96
7, 326656, Note_off_c, 5, 67, 0
7, 326656, Note_on_c, 5, 60, 96
7, 326656, Note_off_c, 5, 64, 0
7, 326656, Note_on_c, 5, 67, 96
7, 326656, Note_off_c, 5, 48, 0
7, 326656, Note_on_c, 5, 48, 96
7, 326912, Note_off_c, 5, 72, 0
7, 326912, Note_on_c, 5, 76, 96
7, 326912, Note_off_c, 5, 72, 0
7, 326912, Note_on_c, 5, 76, 96
7, 327168, Note_off_c, 5, 76, 0
7, 327168, Note_on_c, 5, 79, 96
7, 327168, Note_off_c, 5, 76, 0
7, 327168, Note_on_c, 5, 79, 96
7, 327168, Note_off_c, 5, 60, 0
7, 327168, Note_on_c, 5, 67, 96
7, 327168, Note_off_c, 5, 67, 0
7, 327168, Note_on_c, 5, 64, 96
7, 327168, Note_off_c, 5, 48, 0
7, 327168, Note_on_c, 5, 58, 96
7, 327424, Note_off_c, 5, 79, 0
7, 327424, Note_on_c, 5, 76, 96
7, 327424, Note_off_c, 5, 79, 0
7, 327424, Note_on_c, 5, 76, 96
7, 327680, Note_off_c, 5, 76, 0
7, 327680, Note_on_c, 5, 74, 96
7, 327680, Note_off_c, 5, 76, 0
7, 327680, Note_on_c, 5, 74, 96
7, 327680, Note_off_c, 5, 64, 0
7, 327680, Note_on_c, 5, 60, 96
7, 327936, Note_off_c, 5, 74, 0
7, 327936, Note_on_c, 5, 76, 96
7, 327936, Note_off_c, 5, 74, 0
7, 327936, Note_on_c, 5, 76, 96
7, 328192, Note_off_c, 5, 76, 0
7, 328192, Note_on_c, 5, 72, 96
7, 328192, Note_off_c, 5, 76, 0
7, 328192, Note_on_c, 5, 72, 96
7, 328192, Note_off_c, 5, 67, 0
7, 328192, Note_on_c, 5, 64, 96
7, 328192, Note_off_c, 5, 60, 0
7, 328192, Note_on_c, 5, 67, 96
7, 328192, Note_off_c, 5, 58, 0
7, 328192, Note_on_c, 5, 60, 96
7, 328448, Note_off_c, 5, 72, 0
7, 328448, Note_on_c, 5, 76, 96
7, 328448, Note_off_c, 5, 72, 0
7, 328448, Note_on_c, 5, 76, 96
7, 328704, Note_off_c, 5, 76, 0
7, 328704, Note_on_c, 5, 65, 96
7, 328704, Note_off_c, 5, 76, 0
7, 328704, Note_on_c, 5, 65, 96
7, 328704, Note_off_c, 5, 64, 0
7, 328704, Note_on_c, 5, 60, 96
7, 328704, Note_off_c, 5, 67, 0
7, 328704, Note_on_c, 5, 69, 96
7, 328704, Note_off_c, 5, 60, 0
7, 328704, Note_on_c, 5, 57, 96
7, 328960, Note_off_c, 5, 65, 0
7, 328960, Note_on_c, 5, 70, 96
7, 328960, Note_off_c, 5, 65, 0
7, 328960, Note_on_c, 5, 70, 96
7, 329216, Note_off_c, 5, 70, 0
7, 329216, Note_on_c, 5, 69, 96
7, 329216, Note_off_c, 5, 70, 0
7, 329216, Note_on_c, 5, 69, 96
7, 329472, Note_off_c, 5, 69, 0
7, 329472, Note_on_c, 5, 70, 96
7, 329472, Note_off_c, 5, 69, 0
7, 329472, Note_on_c, 5, 70, 96
7, 329728, Note_off_c, 5, 70, 0
7, 329728, Note_on_c, 5, 67, 96
7, 329728, Note_off_c, 5, 70, 0
7, 329728, Note_on_c, 5, 67, 96
7, 329728, Note_off_c, 5, 60, 0
7, 329728, Note_on_c, 5, 70, 96
7, 329728, Note_off_c, 5, 69, 0
7, 329728, Note_on_c, 5, 60, 96
7, 329728, Note_off_c, 5, 57, 0
7, 329728, Note_on_c, 5, 55, 96
7, 329984, Note_off_c, 5, 67, 0
7, 329984, Note_on_c, 5, 70, 96
7, 329984, Note_off_c, 5, 67, 0
7, 329984, Note_on_c, 5, 70, 96
7, 330240, Note_off_c, 5, 70, 0
7, 330240, Note_on_c, 5, 77, 96
7, 330240, Note_off_c, 5, 70, 0
7, 330240, Note_on_c, 5, 77, 96
7, 330240, Note_off_c, 5, 70, 0
7, 330240, Note_on_c, 5, 69, 96
7, 330240, Note_off_c, 5, 60, 0
7, 330240, Note_on_c, 5, 60, 96
7, 330240, Note_off_c, 5, 55, 0
7, 330240, Note_on_c, 5, 57, 96
7, 330496, Note_off_c, 5, 77, 0
7, 330496, Note_on_c, 5, 65, 96
7, 330496, Note_off_c, 5, 77, 0
7, 330496, Note_on_c, 5, 65, 96
7, 330752, Note_off_c, 5, 65, 0
7, 330752, Note_on_c, 5, 64, 96
7, 330752, Note_off_c, 5, 65, 0
7, 330752, Note_on_c, 5, 64, 96
7, 330752, Note_off_c, 5, 69, 0
7, 330752, Note_on_c, 5, 67, 96
7, 330752, Note_off_c, 5, 60, 0
7, 330752, Note_on_c, 5, 64, 96
7, 330752, Note_off_c, 5, 57, 0
7, 330752, Note_on_c, 5, 60, 96
7, 331008, Note_off_c, 5, 64, 0
7, 331008, Note_on_c, 5, 65, 96
7, 331008, Note_off_c, 5, 64, 0
7, 331008, Note_on_c, 5, 65, 96
7, 331264, Note_off_c, 5, 65, 0
7, 331264, Note_on_c, 5, 62, 96
7, 331264, Note_off_c, 5, 65, 0
7, 331264, Note_on_c, 5, 62, 96
7, 331264, Note_off_c, 5, 67, 0
7, 331264, Note_on_c, 5, 69, 96
7, 331264, Note_off_c, 5, 64, 0
7, 331264, Note_on_c, 5, 65, 96
7, 331264, Note_off_c, 5, 60, 0
7, 331264, Note_on_c, 5, 59, 96
7, 331520, Note_off_c, 5, 62, 0
7, 331520, Note_on_c, 5, 65, 96
7, 331520, Note_off_c, 5, 62, 0
7, 331520, Note_on_c, 5, 65, 96
7, 331776, Note_off_c, 5, 65, 0
7, 331776, Note_off_c, 5, 65, 0
7, 331776, Note_off_c, 5, 69, 0
7, 331776, Note_off_c, 5, 65, 0
7, 331776, Note_off_c, 5, 59, 0
7, 331776, Note_on_c, 5, 64, 96
7, 331776, Note_on_c, 5, 64, 96
7, 331776, Note_on_c, 5, 67, 96
7, 331776, Note_on_c, 5, 64, 96
7, 331776, Note_on_c, 5, 60, 96
7, 332288, Note_off_c, 5, 64, 0
7, 332288, Note_on_c, 5, 72, 96
7, 332544, Note_off_c, 5, 72, 0
7, 332544, Note_on_c, 5, 74, 96
7, 332800, Note_off_c, 5, 74, 0
7, 332800, Note_on_c, 5, 76, 96
7, 332800, Note_off_c, 5, 64, 0
7, 332800, Note_on_c, 5, 67, 96
7, 332800, Note_off_c, 5, 67, 0
7, 332800, Note_off_c, 5, 64, 0
7, 332800, Note_off_c, 5, 60, 0
7, 333056, Note_off_c, 5, 76, 0
7, 333056, Note_on_c, 5, 77, 96
7, 333312, Note_off_c, 5, 77, 0
7, 333312, Note_on_c, 5, 79, 96
7, 333312, Note_off_c, 5, 67, 0
7, 333312, Note_on_c, 5, 72, 96
7, 334336, Note_off_c, 5, 79, 0
7, 334336, Note_on_c, 5, 81, 96
7, 334848, Note_off_c, 5, 81, 0
7, 334848, Note_on_c, 5, 77, 96
7, 335872, Note_off_c, 5, 77, 0
7, 335872, Note_on_c, 5, 76, 96
7, 336384, Note_off_c, 5, 76, 0
7, 336384, Note_on_c, 5, 77, 96
7, 336384, Note_off_c, 5, 72, 0
7, 336384, Note_on_c, 5, 71, 96
7, 336896, Note_off_c, 5, 77, 0
7, 336896, Note_on_c, 5, 74, 96
7, 337408, Note_off_c, 5, 74, 0
7, 337408, Note_on_c, 5, 76, 96
7, 337920, Note_off_c, 5, 76, 0
7, 337920, Note_off_c, 5, 71, 0
7, 337920, Note_on_c, 5, 76, 96
7, 337920, Note_on_c, 5, 76, 96
7, 338176, Note_off_c, 5, 76, 0
7, 338176, Note_on_c, 5, 84, 96
7, 338176, Note_off_c, 5, 76, 0
7, 338176, Note_on_c, 5, 84, 96
7, 338432, Note_off_c, 5, 84, 0
7, 338432, Note_on_c, 5, 83, 96
7, 338432, Note_off_c, 5, 84, 0
7, 338432, Note_on_c, 5, 83, 96
7, 338688, Note_off_c, 5, 83, 0
7, 338688, Note_on_c, 5, 84, 96
7, 338688, Note_off_c, 5, 83, 0
7, 338688, Note_on_c, 5, 84, 96
7, 338944, Note_off_c, 5, 84, 0
7, 338944, Note_on_c, 5, 79, 96
7, 338944, Note_off_c, 5, 84, 0
7, 338944, Note_on_c, 5, 79, 96
7, 338944, Note_on_c, 5, 72, 96
7, 338944, Note_on_c, 5, 67, 96
7, 338944, Note_on_c, 5, 64, 96
7, 339200, Note_off_c, 5, 79, 0
7, 339200, Note_on_c, 5, 84, 96
7, 339200, Note_off_c, 5, 79, 0
7, 339200, Note_on_c, 5, 84, 96
7, 339456, Note_off_c, 5, 84, 0
7, 339456, Note_on_c, 5, 88, 96
7, 339456, Note_off_c, 5, 84, 0
7, 339456, Note_on_c, 5, 88, 96
7, 339456, Note_off_c, 5, 72, 0
7, 339456, Note_on_c, 5, 72, 96
7, 339456, Note_off_c, 5, 67, 0
7, 339456, Note_on_c, 5, 67, 96
7, 339456, Note_off_c, 5, 64, 0
7, 339456, Note_on_c, 5, 64, 96
7, 339712, Note_off_c, 5, 88, 0
7, 339712, Note_on_c, 5, 84, 96
7, 339712, Note_off_c, 5, 88, 0
7, 339712, Note_on_c, 5, 84, 96
7, 339968, Note_off_c, 5, 84, 0
7, 339968, Note_on_c, 5, 83, 96
7, 339968, Note_off_c, 5, 84, 0
7, 339968, Note_on_c, 5, 83, 96
7, 339968, Note_off_c, 5, 72, 0
7, 339968, Note_on_c, 5, 72, 96
7, 339968, Note_off_c, 5, 67, 0
7, 339968, Note_on_c, 5, 67, 96
7, 339968, Note_off_c, 5, 64, 0
7, 339968, Note_on_c, 5, 64, 96
7, 340224, Note_off_c, 5, 83, 0
7, 340224, Note_on_c, 5, 84, 96
7, 340224, Note_off_c, 5, 83, 0
7, 340224, Note_on_c, 5, 84, 96
7, 340480, Note_off_c, 5, 84, 0
7, 340480, Note_on_c, 5, 79, 96
7, 340480, Note_off_c, 5, 84, 0
7, 340480, Note_on_c, 5, 79, 96
7, 340480, Note_off_c, 5, 72, 0
7, 340480, Note_on_c, 5, 72, 96
7, 340480, Note_off_c, 5, 67, 0
7, 340480, Note_on_c, 5, 67, 96
7, 340480, Note_off_c, 5, 64, 0
7, 340480, Note_on_c, 5, 64, 96
7, 340736, Note_off_c, 5, 79, 0
7, 340736, Note_on_c, 5, 84, 96
7, 340736, Note_off_c, 5, 79, 0
7, 340736, Note_on_c, 5, 84, 96
7, 340992, Note_off_c, 5, 84, 0
7, 340992, Note_on_c, 5, 76, 96
7, 340992, Note_off_c, 5, 84, 0
7, 340992, Note_on_c, 5, 76, 96
7, 340992, Note_off_c, 5, 72, 0
7, 340992, Note_on_c, 5, 72, 96
7, 340992, Note_off_c, 5, 67, 0
7, 340992, Note_on_c, 5, 67, 96
7, 340992, Note_off_c, 5, 64, 0
7, 340992, Note_on_c, 5, 64, 96
7, 341248, Note_off_c, 5, 76, 0
7, 341248, Note_on_c, 5, 84, 96
7, 341248, Note_off_c, 5, 76, 0
7, 341248, Note_on_c, 5, 84, 96
7, 341504, Note_off_c, 5, 84, 0
7, 341504, Note_on_c, 5, 83, 96
7, 341504, Note_off_c, 5, 84, 0
7, 341504, Note_on_c, 5, 83, 96
7, 341504, Note_off_c, 5, 72, 0
7, 341504, Note_on_c, 5, 72, 96
7, 341504, Note_off_c, 5, 67, 0
7, 341504, Note_on_c, 5, 67, 96
7, 341504, Note_off_c, 5, 64, 0
7, 341504, Note_on_c, 5, 64, 96
7, 341760, Note_off_c, 5, 83, 0
7, 341760, Note_on_c, 5, 84, 96
7, 341760, Note_off_c, 5, 83, 0
7, 341760, Note_on_c, 5, 84, 96
7, 342016, Note_off_c, 5, 84, 0
7, 342016, Note_on_c, 5, 79, 96
7, 342016, Note_off_c, 5, 84, 0
7, 342016, Note_on_c, 5, 79, 96
7, 342016, Note_off_c, 5, 72, 0
7, 342016, Note_on_c, 5, 72, 96
7, 342016, Note_off_c, 5, 67, 0
7, 342016, Note_on_c, 5, 67, 96
7, 342016, Note_off_c, 5, 64, 0
7, 342016, Note_on_c, 5, 64, 96
7, 342272, Note_off_c, 5, 79, 0
7, 342272, Note_on_c, 5, 84, 96
7, 342272, Note_off_c, 5, 79, 0
7, 342272, Note_on_c, 5, 84, 96
7, 342528, Note_off_c, 5, 84, 0
7, 342528, Note_on_c, 5, 88, 96
7, 342528, Note_off_c, 5, 84, 0
7, 342528, Note_on_c, 5, 88, 96
7, 342528, Note_off_c, 5, 72, 0
7, 342528, Note_on_c, 5, 72, 96
7, 342528, Note_off_c, 5, 67, 0
7, 342528, Note_on_c, 5, 67, 96
7, 342528, Note_off_c, 5, 64, 0
7, 342528, Note_on_c, 5, 64, 96
7, 342784, Note_off_c, 5, 88, 0
7, 342784, Note_on_c, 5, 84, 96
7, 342784, Note_off_c, 5, 88, 0
7, 342784, Note_on_c, 5, 84, 96
7, 343040, Note_off_c, 5, 84, 0
7, 343040, Note_on_c, 5, 83, 96
7, 343040, Note_off_c, 5, 84, 0
7, 343040, Note_on_c, 5, 83, 96
7, 343040, Note_off_c, 5, 72, 0
7, 343040, Note_on_c, 5, 72, 96
7, 343040, Note_off_c, 5, 67, 0
7, 343040, Note_on_c, 5, 67, 96
7, 343040, Note_off_c, 5, 64, 0
7, 343040, Note_on_c, 5, 64, 96
7, 343296, Note_off_c, 5, 83, 0
7, 343296, Note_on_c, 5, 84, 96
7, 343296, Note_off_c, 5, 83, 0
7, 343296, Note_on_c, 5, 84, 96
7, 343552, Note_off_c, 5, 84, 0
7, 343552, Note_on_c, 5, 79, 96
7, 343552, Note_off_c, 5, 84, 0
7, 343552, Note_on_c, 5, 79, 96
7, 343552, Note_off_c, 5, 72, 0
7, 343552, Note_on_c, 5, 72, 96
7, 343552, Note_off_c, 5, 67, 0
7, 343552, Note_on_c, 5, 67, 96
7, 343552, Note_off_c, 5, 64, 0
7, 343552, Note_on_c, 5, 64, 96
7, 343808, Note_off_c, 5, 79, 0
7, 343808, Note_on_c, 5, 84, 96
7, 343808, Note_off_c, 5, 79, 0
7, 343808, Note_on_c, 5, 84, 96
7, 344064, Note_off_c, 5, 84, 0
7, 344064, Note_off_c, 5, 84, 0
7, 344064, Note_off_c, 5, 72, 0
7, 344064, Note_off_c, 5, 67, 0
7, 344064, Note_off_c, 5, 64, 0
7, 344064, Note_on_c, 5, 76, 96
7, 344064, Note_on_c, 5, 76, 96
7, 344064, Note_on_c, 5, 72, 96
7, 344064, Note_on_c, 5, 67, 96
7, 344064, Note_on_c, 5, 64, 96
7, 344320, Note_off_c, 5, 76, 0
7, 344320, Note_on_c, 5, 79, 96
7, 344320, Note_off_c, 5, 76, 0
7, 344320, Note_on_c, 5, 79, 96
7, 344576, Note_off_c, 5, 79, 0
7, 344576, Note_on_c, 5, 77, 96
7, 344576, Note_off_c, 5, 79, 0
7, 344576, Note_on_c, 5, 77, 96
7, 344832, Note_off_c, 5, 77, 0
7, 344832, Note_on_c, 5, 79, 96
7, 344832, Note_off_c, 5, 77, 0
7, 344832, Note_on_c, 5, 79, 96
7, 345088, Note_off_c, 5, 79, 0
7, 345088, Note_on_c, 5, 72, 96
7, 345088, Note_off_c, 5, 79, 0
7, 345088, Note_on_c, 5, 72, 96
7, 345088, Note_off_c, 5, 72, 0
7, 345088, Note_on_c, 5, 67, 96
7, 345088, Note_off_c, 5, 67, 0
7, 345088, Note_off_c, 5, 64, 0
7, 345344, Note_off_c, 5, 72, 0
7, 345344, Note_on_c, 5, 76, 96
7, 345344, Note_off_c, 5, 72, 0
7, 345344, Note_on_c, 5, 76, 96
7, 345600, Note_off_c, 5, 76, 0
7, 345600, Note_on_c, 5, 77, 96
7, 345600, Note_off_c, 5, 76, 0
7, 345600, Note_on_c, 5, 77, 96
7, 345600, Note_off_c, 5, 67, 0
7, 345600, Note_on_c, 5, 72, 96
7, 345856, Note_off_c, 5, 77, 0
7, 345856, Note_on_c, 5, 70, 96
7, 345856, Note_off_c, 5, 77, 0
7, 345856, Note_on_c, 5, 70, 96
7, 346112, Note_off_c, 5, 70, 0
7, 346112, Note_on_c, 5, 69, 96
7, 346112, Note_off_c, 5, 70, 0
7, 346112, Note_on_c, 5, 69, 96
7, 346368, Note_off_c, 5, 69, 0
7, 346368, Note_on_c, 5, 70, 96
7, 346368, Note_off_c, 5, 69, 0
7, 346368, Note_on_c, 5, 70, 96
7, 346624, Note_off_c, 5, 70, 0
7, 346624, Note_on_c, 5, 67, 96
7, 346624, Note_off_c, 5, 70, 0
7, 346624, Note_on_c, 5, 67, 96
7, 346624, Note_off_c, 5, 72, 0
7, 346624, Note_on_c, 5, 74, 96
7, 346880, Note_off_c, 5, 67, 0
7, 346880, Note_on_c, 5, 70, 96
7, 346880, Note_off_c, 5, 67, 0
7, 346880, Note_on_c, 5, 70, 96
7, 347136, Note_off_c, 5, 70, 0
7, 347136, Note_on_c, 5, 65, 96
7, 347136, Note_off_c, 5, 70, 0
7, 347136, Note_on_c, 5, 65, 96
7, 347136, Note_off_c, 5, 74, 0
7, 347136, Note_on_c, 5, 72, 96
7, 347392, Note_off_c, 5, 65, 0
7, 347392, Note_on_c, 5, 70, 96
7, 347392, Note_off_c, 5, 65, 0
7, 347392, Note_on_c, 5, 70, 96
7, 347648, Note_off_c, 5, 70, 0
7, 347648, Note_on_c, 5, 69, 96
7, 347648, Note_off_c, 5, 70, 0
7, 347648, Note_on_c, 5, 69, 96
7, 347648, Note_off_c, 5, 72, 0
7, 347648, Note_on_c, 5, 70, 96
7, 347904, Note_off_c, 5, 69, 0
7, 347904, Note_on_c, 5, 70, 96
7, 347904, Note_off_c, 5, 69, 0
7, 347904, Note_on_c, 5, 70, 96
7, 348160, Note_off_c, 5, 70, 0
7, 348160, Note_on_c, 5, 62, 96
7, 348160, Note_off_c, 5, 70, 0
7, 348160, Note_on_c, 5, 62, 96
7, 348160, Note_off_c, 5, 70, 0
7, 348160, Note_on_c, 5, 69, 96
7, 348416, Note_off_c, 5, 62, 0
7, 348416, Note_on_c, 5, 65, 96
7, 348416, Note_off_c, 5, 62, 0
7, 348416, Note_on_c, 5, 65, 96
7, 348672, Note_off_c, 5, 65, 0
7, 348672, Note_on_c, 5, 70, 96
7, 348672, Note_off_c, 5, 65, 0
7, 348672, Note_on_c, 5, 70, 96
7, 348672, Note_off_c, 5, 69, 0
7, 348672, Note_on_c, 5, 70, 96
7, 348928, Note_off_c, 5, 70, 0
7, 348928, Note_on_c, 5, 67, 96
7, 348928, Note_off_c, 5, 70, 0
7, 348928, Note_on_c, 5, 67, 96
7, 349184, Note_off_c, 5, 67, 0
7, 349184, Note_on_c, 5, 65, 96
7, 349184, Note_off_c, 5, 67, 0
7, 349184, Note_on_c, 5, 65, 96
7, 349184, Note_off_c, 5, 70, 0
7, 349184, Note_on_c, 5, 74, 96
7, 349440, Note_off_c, 5, 65, 0
7, 349440, Note_on_c, 5, 67, 96
7, 349440, Note_off_c, 5, 65, 0
7, 349440, Note_on_c, 5, 67, 96
7, 349696, Note_off_c, 5, 67, 0
7, 349696, Note_on_c, 5, 64, 96
7, 349696, Note_off_c, 5, 67, 0
7, 349696, Note_on_c, 5, 64, 96
7, 349696, Note_off_c, 5, 74, 0
7, 349696, Note_on_c, 5, 72, 96
7, 349952, Note_off_c, 5, 64, 0
7, 349952, Note_on_c, 5, 67, 96
7, 349952, Note_off_c, 5, 64, 0
7, 349952, Note_on_c, 5, 67, 96
7, 350208, Note_off_c, 5, 67, 0
7, 350208, Note_off_c, 5, 67, 0
7, 350208, Note_off_c, 5, 72, 0
7, 350208, Note_on_c, 5, 60, 96
7, 350208, Note_on_c, 5, 60, 96
7, 350208, Note_on_c, 5, 70, 96
7, 350720, Note_off_c, 5, 70, 0
7, 350720, Note_on_c, 5, 69, 96
7, 351232, Note_off_c, 5, 60, 0
7, 351232, Note_off_c, 5, 60, 0
7, 351232, Note_off_c, 5, 69, 0
7, 351232, Note_on_c, 5, 67, 96
7, 351232, Note_on_c, 5, 53, 96
7, 351744, Note_off_c, 5, 67, 0
7, 351744, Note_on_c, 5, 69, 96
7, 351744, Note_off_c, 5, 53, 0
7, 351744, Note_on_c, 5, 60, 96
7, 352768, Note_off_c, 5, 60, 0
7, 352768, Note_on_c, 5, 62, 96
7, 353280, Note_off_c, 5, 62, 0
7, 353280, Note_on_c, 5, 60, 96
7, 353792, Note_off_c, 5, 69, 0
7, 353792, Note_on_c, 5, 67, 96
7, 353792, Note_off_c, 5, 60, 0
7, 353792, Note_on_c, 5, 58, 96
7, 354304, Note_off_c, 5, 67, 0
7, 354304, Note_on_c, 5, 65, 96
7, 354304, Note_off_c, 5, 58, 0
7, 354304, Note_on_c, 5, 57, 96
7, 354816, Note_off_c, 5, 65, 0
7, 354816, Note_on_c, 5, 67, 96
7, 354816, Note_off_c, 5, 57, 0
7, 354816, Note_on_c, 5, 58, 96
7, 355328, Note_off_c, 5, 58, 0
7, 355328, Note_on_c, 5, 62, 96
7, 355840, Note_off_c, 5, 62, 0
7, 355840, Note_on_c, 5, 60, 96
7, 356352, Note_off_c, 5, 60, 0
7, 356352, Note_on_c, 5, 58, 96
7, 356864, Note_off_c, 5, 67, 0
7, 356864, Note_on_c, 5, 72, 96
7, 356864, Note_off_c, 5, 58, 0
7, 356864, Note_on_c, 5, 57, 96
7, 357376, Note_off_c, 5, 72, 0
7, 357376, Note_on_c, 5, 69, 96
7, 357376, Note_on_c, 5, 60, 96
7, 357376, Note_off_c, 5, 57, 0
7, 357376, Note_on_c, 5, 53, 96
7, 357888, Note_off_c, 5, 69, 0
7, 357888, Note_on_c, 5, 65, 96
7, 357888, Note_off_c, 5, 60, 0
7, 357888, Note_on_c, 5, 65, 96
7, 357888, Note_off_c, 5, 53, 0
7, 357888, Note_on_c, 5, 62, 96
7, 358912, Note_off_c, 5, 65, 0
7, 358912, Note_on_c, 5, 67, 96
7, 359424, Note_off_c, 5, 65, 0
7, 359424, Note_on_c, 5, 67, 96
7, 359424, Note_off_c, 5, 67, 0
7, 359424, Note_on_c, 5, 65, 96
7, 359936, Note_off_c, 5, 65, 0
7, 359936, Note_on_c, 5, 63, 96
7, 359936, Note_off_c, 5, 62, 0
7, 359936, Note_on_c, 5, 60, 96
7, 360448, Note_off_c, 5, 63, 0
7, 360448, Note_on_c, 5, 62, 96
7, 360448, Note_off_c, 5, 60, 0
7, 360448, Note_on_c, 5, 58, 96
7, 360960, Note_off_c, 5, 67, 0
7, 360960, Note_on_c, 5, 69, 96
7, 360960, Note_off_c, 5, 62, 0
7, 360960, Note_on_c, 5, 63, 96
7, 360960, Note_off_c, 5, 58, 0
7, 360960, Note_on_c, 5, 60, 96
7, 361472, Note_off_c, 5, 63, 0
7, 361472, Note_on_c, 5, 67, 96
7, 361984, Note_off_c, 5, 67, 0
7, 361984, Note_on_c, 5, 65, 96
7, 362496, Note_off_c, 5, 69, 0
7, 362496, Note_off_c, 5, 65, 0
7, 362496, Note_on_c, 5, 70, 96
7, 362496, Note_on_c, 5, 63, 96
7, 363008, Note_off_c, 5, 63, 0
7, 363008, Note_on_c, 5, 62, 96
7, 363008, Note_off_c, 5, 60, 0
7, 363008, Note_on_c, 5, 58, 96
7, 363520, Note_on_c, 5, 79, 96
7, 363520, Note_on_c, 5, 79, 96
7, 363520, Note_off_c, 5, 62, 0
7, 363520, Note_on_c, 5, 64, 96
7, 363520, Note_off_c, 5, 58, 0
7, 363520, Note_on_c, 5, 60, 96
7, 364032, Note_off_c, 5, 79, 0
7, 364032, Note_on_c, 5, 84, 96
7, 364032, Note_off_c, 5, 79, 0
7, 364032, Note_on_c, 5, 84, 96
7, 364032, Note_off_c, 5, 70, 0
7, 364032, Note_on_c, 5, 69, 96
7, 364032, Note_off_c, 5, 64, 0
7, 364032, Note_on_c, 5, 65, 96
7, 364032, Note_off_c, 5, 60, 0
7, 364032, Note_on_c, 5, 60, 96
7, 365056, Note_off_c, 5, 84, 0
7, 365056, Note_on_c, 5, 86, 96
7, 365056, Note_off_c, 5, 84, 0
7, 365056, Note_on_c, 5, 86, 96
7, 365056, Note_off_c, 5, 60, 0
7, 365056, Note_on_c, 5, 65, 96
7, 365568, Note_off_c, 5, 86, 0
7, 365568, Note_on_c, 5, 82, 96
7, 365568, Note_off_c, 5, 86, 0
7, 365568, Note_on_c, 5, 82, 96
7, 365568, Note_off_c, 5, 69, 0
7, 365568, Note_on_c, 5, 67, 96
7, 365568, Note_off_c, 5, 65, 0
7, 365568, Note_on_c, 5, 62, 96
7, 366080, Note_off_c, 5, 65, 0
7, 366080, Note_on_c, 5, 67, 96
7, 366080, Note_off_c, 5, 62, 0
7, 366080, Note_on_c, 5, 61, 96
7, 366592, Note_off_c, 5, 82, 0
7, 366592, Note_on_c, 5, 81, 96
7, 366592, Note_off_c, 5, 82, 0
7, 366592, Note_on_c, 5, 81, 96
7, 366592, Note_off_c, 5, 67, 0
7, 366592, Note_on_c, 5, 65, 96
7, 366592, Note_off_c, 5, 61, 0
7, 366592, Note_on_c, 5, 62, 96
7, 367104, Note_off_c, 5, 81, 0
7, 367104, Note_on_c, 5, 82, 96
7, 367104, Note_off_c, 5, 81, 0
7, 367104, Note_on_c, 5, 82, 96
7, 367104, Note_off_c, 5, 67, 0
7, 367104, Note_on_c, 5, 67, 96
7, 367104, Note_off_c, 5, 65, 0
7, 367104, Note_on_c, 5, 64, 96
7, 367104, Note_off_c, 5, 62, 0
7, 367104, Note_on_c, 5, 64, 96
7, 367616, Note_off_c, 5, 82, 0
7, 367616, Note_on_c, 5, 79, 96
7, 367616, Note_off_c, 5, 82, 0
7, 367616, Note_on_c, 5, 79, 96
7, 367616, Note_off_c, 5, 64, 0
7, 367616, Note_on_c, 5, 69, 96
7, 368128, Note_off_c, 5, 79, 0
7, 368128, Note_on_c, 5, 81, 96
7, 368128, Note_off_c, 5, 79, 0
7, 368128, Note_on_c, 5, 81, 96
7, 368128, Note_off_c, 5, 69, 0
7, 368128, Note_on_c, 5, 64, 96
7, 368128, Note_off_c, 5, 64, 0
7, 368128, Note_on_c, 5, 61, 96
7, 368640, Note_off_c, 5, 81, 0
7, 368640, Note_off_c, 5, 81, 0
7, 368640, Note_off_c, 5, 67, 0
7, 368640, Note_off_c, 5, 64, 0
7, 368640, Note_off_c, 5, 61, 0
7, 368640, Note_on_c, 5, 81, 96
7, 368640, Note_on_c, 5, 81, 96
7, 368640, Note_on_c, 5, 65, 96
7, 368640, Note_on_c, 5, 62, 96
7, 368640, Note_on_c, 5, 57, 96
7, 368896, Note_off_c, 5, 81, 0
7, 368896, Note_on_c, 5, 77, 96
7, 368896, Note_off_c, 5, 81, 0
7, 368896, Note_on_c, 5, 77, 96
7, 369152, Note_off_c, 5, 77, 0
7, 369152, Note_on_c, 5, 76, 96
7, 369152, Note_off_c, 5, 77, 0
7, 369152, Note_on_c, 5, 76, 96
7, 369408, Note_off_c, 5, 76, 0
7, 369408, Note_on_c, 5, 77, 96
7, 369408, Note_off_c, 5, 76, 0
7, 369408, Note_on_c, 5, 77, 96
7, 369664, Note_off_c, 5, 77, 0
7, 369664, Note_on_c, 5, 72, 96
7, 369664, Note_off_c, 5, 77, 0
7, 369664, Note_on_c, 5, 72, 96
7, 369664, Note_off_c, 5, 65, 0
7, 369664, Note_on_c, 5, 67, 96
7, 369664, Note_off_c, 5, 62, 0
7, 369664, Note_on_c, 5, 60, 96
7, 369664, Note_off_c, 5, 57, 0
7, 369664, Note_on_c, 5, 60, 96
7, 369920, Note_off_c, 5, 72, 0
7, 369920, Note_on_c, 5, 77, 96
7, 369920, Note_off_c, 5, 72, 0
7, 369920, Note_on_c, 5, 77, 96
7, 370176, Note_off_c, 5, 77, 0
7, 370176, Note_on_c, 5, 72, 96
7, 370176, Note_off_c, 5, 77, 0
7, 370176, Note_on_c, 5, 72, 96
7, 370176, Note_off_c, 5, 67, 0
7, 370176, Note_on_c, 5, 65, 96
7, 370176, Note_off_c, 5, 60, 0
7, 370176, Note_on_c, 5, 60, 96
7, 370176, Note_off_c, 5, 60, 0
7, 370176, Note_on_c, 5, 57, 96
7, 370432, Note_off_c, 5, 72, 0
7, 370432, Note_on_c, 5, 76, 96
7, 370432, Note_off_c, 5, 72, 0
7, 370432, Note_on_c, 5, 76, 96
7, 370688, Note_off_c, 5, 76, 0
7, 370688, Note_on_c, 5, 81, 96
7, 370688, Note_off_c, 5, 76, 0
7, 370688, Note_on_c, 5, 81, 96
7, 370688, Note_off_c, 5, 65, 0
7, 370688, Note_on_c, 5, 65, 96
7, 370688, Note_off_c, 5, 60, 0
7, 370688, Note_on_c, 5, 60, 96
7, 370688, Note_off_c, 5, 57, 0
7, 370688, Note_on_c, 5, 57, 96
7, 370944, Note_off_c, 5, 81, 0
7, 370944, Note_on_c, 5, 77, 96
7, 370944, Note_off_c, 5, 81, 0
7, 370944, Note_on_c, 5, 77, 96
7, 371200, Note_off_c, 5, 77, 0
7, 371200, Note_on_c, 5, 76, 96
7, 371200, Note_off_c, 5, 77, 0
7, 371200, Note_on_c, 5, 76, 96
7, 371200, Note_off_c, 5, 65, 0
7, 371200, Note_on_c, 5, 65, 96
7, 371200, Note_off_c, 5, 60, 0
7, 371200, Note_on_c, 5, 60, 96
7, 371200, Note_off_c, 5, 57, 0
7, 371200, Note_on_c, 5, 57, 96
7, 371456, Note_off_c, 5, 76, 0
7, 371456, Note_on_c, 5, 77, 96
7, 371456, Note_off_c, 5, 76, 0
7, 371456, Note_on_c, 5, 77, 96
7, 371712, Note_off_c, 5, 77, 0
7, 371712, Note_on_c, 5, 72, 96
7, 371712, Note_off_c, 5, 77, 0
7, 371712, Note_on_c, 5, 72, 96
7, 371712, Note_off_c, 5, 65, 0
7, 371712, Note_on_c, 5, 65, 96
7, 371712, Note_off_c, 5, 60, 0
7, 371712, Note_on_c, 5, 60, 96
7, 371712, Note_off_c, 5, 57, 0
7, 371712, Note_on_c, 5, 57, 96
7, 371968, Note_off_c, 5, 72, 0
7, 371968, Note_on_c, 5, 77, 96
7, 371968, Note_off_c, 5, 72, 0
7, 371968, Note_on_c, 5, 77, 96
7, 372224, Note_off_c, 5, 77, 0
7, 372224, Note_on_c, 5, 76, 96
7, 372224, Note_off_c, 5, 77, 0
7, 372224, Note_on_c, 5, 76, 96
7, 372224, Note_off_c, 5, 65, 0
7, 372224, Note_on_c, 5, 65, 96
7, 372224, Note_off_c, 5, 60, 0
7, 372224, Note_on_c, 5, 60, 96
7, 372224, Note_off_c, 5, 57, 0
7, 372224, Note_on_c, 5, 57, 96
7, 372480, Note_off_c, 5, 76, 0
7, 372480, Note_on_c, 5, 77, 96
7, 372480, Note_off_c, 5, 76, 0
7, 372480, Note_on_c, 5, 77, 96
7, 372736, Note_off_c, 5, 77, 0
7, 372736, Note_on_c, 5, 72, 96
7, 372736, Note_off_c, 5, 77, 0
7, 372736, Note_on_c, 5, 72, 96
7, 372736, Note_off_c, 5, 65, 0
7, 372736, Note_on_c, 5, 65, 96
7, 372736, Note_off_c, 5, 60, 0
7, 372736, Note_on_c, 5, 60, 96
7, 372736, Note_off_c, 5, 57, 0
7, 372736, Note_on_c, 5, 57, 96
7, 372992, Note_off_c, 5, 72, 0
7, 372992, Note_on_c, 5, 77, 96
7, 372992, Note_off_c, 5, 72, 0
7, 372992, Note_on_c, 5, 77, 96
7, 373248, Note_off_c, 5, 77, 0
7, 373248, Note_on_c, 5, 81, 96
7, 373248, Note_off_c, 5, 77, 0
7, 373248, Note_on_c, 5, 81, 96
7, 373248, Note_off_c, 5, 65, 0
7, 373248, Note_on_c, 5, 65, 96
7, 373248, Note_off_c, 5, 60, 0
7, 373248, Note_on_c, 5, 60, 96
7, 373248, Note_off_c, 5, 57, 0
7, 373248, Note_on_c, 5, 57, 96
7, 373504, Note_off_c, 5, 81, 0
7, 373504, Note_on_c, 5, 77, 96
7, 373504, Note_off_c, 5, 81, 0
7, 373504, Note_on_c, 5, 77, 96
7, 373760, Note_off_c, 5, 77, 0
7, 373760, Note_on_c, 5, 76, 96
7, 373760, Note_off_c, 5, 77, 0
7, 373760, Note_on_c, 5, 76, 96
7, 373760, Note_off_c, 5, 65, 0
7, 373760, Note_on_c, 5, 65, 96
7, 373760, Note_off_c, 5, 60, 0
7, 373760, Note_on_c, 5, 60, 96
7, 373760, Note_off_c, 5, 57, 0
7, 373760, Note_on_c, 5, 57, 96
7, 374016, Note_off_c, 5, 76, 0
7, 374016, Note_on_c, 5, 77, 96
7, 374016, Note_off_c, 5, 76, 0
7, 374016, Note_on_c, 5, 77, 96
7, 374272, Note_off_c, 5, 77, 0
7, 374272, Note_on_c, 5, 72, 96
7, 374272, Note_off_c, 5, 77, 0
7, 374272, Note_on_c, 5, 72, 96
7, 374272, Note_off_c, 5, 65, 0
7, 374272, Note_on_c, 5, 65, 96
7, 374272, Note_off_c, 5, 60, 0
7, 374272, Note_on_c, 5, 60, 96
7, 374272, Note_off_c, 5, 57, 0
7, 374272, Note_on_c, 5, 57, 96
7, 374528, Note_off_c, 5, 72, 0
7, 374528, Note_on_c, 5, 77, 96
7, 374528, Note_off_c, 5, 72, 0
7, 374528, Note_on_c, 5, 77, 96
7, 374784, Note_off_c, 5, 77, 0
7, 374784, Note_off_c, 5, 77, 0
7, 374784, Note_off_c, 5, 65, 0
7, 374784, Note_off_c, 5, 60, 0
7, 374784, Note_off_c, 5, 57, 0
7, 374784, Note_on_c, 5, 65, 96
7, 374784, Note_on_c, 5, 65, 96
7, 374784, Note_on_c, 5, 65, 96
7, 374784, Note_on_c, 5, 58, 96
7, 374784, Note_on_c, 5, 53, 96
7, 375040, Note_off_c, 5, 65, 0
7, 375040, Note_on_c, 5, 70, 96
7, 375040, Note_off_c, 5, 65, 0
7, 375040, Note_on_c, 5, 70, 96
7, 375296, Note_off_c, 5, 70, 0
7, 375296, Note_on_c, 5, 69, 96
7, 375296, Note_off_c, 5, 70, 0
7, 375296, Note_on_c, 5, 69, 96
7, 375552, Note_off_c, 5, 69, 0
7, 375552, Note_on_c, 5, 70, 96
7, 375552, Note_off_c, 5, 69, 0
7, 375552, Note_on_c, 5, 70, 96
7, 375808, Note_off_c, 5, 70, 0
7, 375808, Note_on_c, 5, 65, 96
7, 375808, Note_off_c, 5, 70, 0
7, 375808, Note_on_c, 5, 65, 96
7, 375808, Note_off_c, 5, 65, 0
7, 375808, Note_off_c, 5, 58, 0
7, 375808, Note_on_c, 5, 65, 96
7, 375808, Note_off_c, 5, 53, 0
7, 376064, Note_off_c, 5, 65, 0
7, 376064, Note_on_c, 5, 70, 96
7, 376064, Note_off_c, 5, 65, 0
7, 376064, Note_on_c, 5, 70, 96
7, 376320, Note_off_c, 5, 70, 0
7, 376320, Note_on_c, 5, 74, 96
7, 376320, Note_off_c, 5, 70, 0
7, 376320, Note_on_c, 5, 74, 96
7, 376320, Note_off_c, 5, 65, 0
7, 376320, Note_on_c, 5, 58, 96
7, 376576, Note_off_c, 5, 74, 0
7, 376576, Note_on_c, 5, 70, 96
7, 376576, Note_off_c, 5, 74, 0
7, 376576, Note_on_c, 5, 70, 96
7, 376832, Note_off_c, 5, 70, 0
7, 376832, Note_on_c, 5, 69, 96
7, 376832, Note_off_c, 5, 70, 0
7, 376832, Note_on_c, 5, 69, 96
7, 377088, Note_off_c, 5, 69, 0
7, 377088, Note_on_c, 5, 70, 96
7, 377088, Note_off_c, 5, 69, 0
7, 377088, Note_on_c, 5, 70, 96
7, 377344, Note_off_c, 5, 70, 0
7, 377344, Note_on_c, 5, 67, 96
7, 377344, Note_off_c, 5, 70, 0
7, 377344, Note_on_c, 5, 67, 96
7, 377344, Note_off_c, 5, 58, 0
7, 377344, Note_on_c, 5, 62, 96
7, 377600, Note_off_c, 5, 67, 0
7, 377600, Note_on_c, 5, 70, 96
7, 377600, Note_off_c, 5, 67, 0
7, 377600, Note_on_c, 5, 70, 96
7, 377856, Note_off_c, 5, 70, 0
7, 377856, Note_on_c, 5, 64, 96
7, 377856, Note_off_c, 5, 70, 0
7, 377856, Note_on_c, 5, 64, 96
7, 377856, Note_off_c, 5, 62, 0
7, 377856, Note_on_c, 5, 60, 96
7, 378112, Note_off_c, 5, 64, 0
7, 378112, Note_on_c, 5, 76, 96
7, 378112, Note_off_c, 5, 64, 0
7, 378112, Note_on_c, 5, 76, 96
7, 378368, Note_off_c, 5, 76, 0
7, 378368, Note_on_c, 5, 74, 96
7, 378368, Note_off_c, 5, 76, 0
7, 378368, Note_on_c, 5, 74, 96
7, 378368, Note_off_c, 5, 60, 0
7, 378368, Note_on_c, 5, 58, 96
7, 378624, Note_off_c, 5, 74, 0
7, 378624, Note_on_c, 5, 76, 96
7, 378624, Note_off_c, 5, 74, 0
7, 378624, Note_on_c, 5, 76, 96
7, 378880, Note_off_c, 5, 76, 0
7, 378880, Note_on_c, 5, 72, 96
7, 378880, Note_off_c, 5, 76, 0
7, 378880, Note_on_c, 5, 72, 96
7, 378880, Note_off_c, 5, 58, 0
7, 378880, Note_on_c, 5, 57, 96
7, 378880, Note_on_c, 5, 48, 96
7, 379136, Note_off_c, 5, 72, 0
7, 379136, Note_on_c, 5, 76, 96
7, 379136, Note_off_c, 5, 72, 0
7, 379136, Note_on_c, 5, 76, 96
7, 379392, Note_off_c, 5, 76, 0
7, 379392, Note_on_c, 5, 79, 96
7, 379392, Note_off_c, 5, 76, 0
7, 379392, Note_on_c, 5, 79, 96
7, 379392, Note_off_c, 5, 57, 0
7, 379392, Note_on_c, 5, 58, 96
7, 379392, Note_off_c, 5, 48, 0
7, 379392, Note_on_c, 5, 55, 96
7, 379648, Note_off_c, 5, 79, 0
7, 379648, Note_on_c, 5, 67, 96
7, 379648, Note_off_c, 5, 79, 0
7, 379648, Note_on_c, 5, 67, 96
7, 379904, Note_off_c, 5, 67, 0
7, 379904, Note_on_c, 5, 65, 96
7, 379904, Note_off_c, 5, 67, 0
7, 379904, Note_on_c, 5, 65, 96
7, 379904, Note_off_c, 5, 58, 0
7, 379904, Note_on_c, 5, 62, 96
7, 380160, Note_off_c, 5, 65, 0
7, 380160, Note_on_c, 5, 67, 96
7, 380160, Note_off_c, 5, 65, 0
7, 380160, Note_on_c, 5, 67, 96
7, 380416, Note_off_c, 5, 67, 0
7, 380416, Note_on_c, 5, 64, 96
7, 380416, Note_off_c, 5, 67, 0
7, 380416, Note_on_c, 5, 64, 96
7, 380416, Note_off_c, 5, 62, 0
7, 380416, Note_on_c, 5, 60, 96
7, 380416, Note_off_c, 5, 55, 0
7, 380416, Note_on_c, 5, 57, 96
7, 380672, Note_off_c, 5, 64, 0
7, 380672, Note_on_c, 5, 67, 96
7, 380672, Note_off_c, 5, 64, 0
7, 380672, Note_on_c, 5, 67, 96
7, 380928, Note_off_c, 5, 67, 0
7, 380928, Note_off_c, 5, 67, 0
7, 380928, Note_off_c, 5, 60, 0
7, 380928, Note_off_c, 5, 57, 0
7, 380928, Note_on_c, 5, 69, 96
7, 380928, Note_on_c, 5, 69, 96
7, 380928, Note_on_c, 5, 57, 96
7, 380928, Note_on_c, 5, 53, 96
7, 381184, Note_off_c, 5, 69, 0
7, 381184, Note_on_c, 5, 72, 96
7, 381184, Note_off_c, 5, 69, 0
7, 381184, Note_on_c, 5, 72, 96
7, 381440, Note_off_c, 5, 72, 0
7, 381440, Note_on_c, 5, 70, 96
7, 381440, Note_off_c, 5, 72, 0
7, 381440, Note_on_c, 5, 70, 96
7, 381696, Note_off_c, 5, 70, 0
7, 381696, Note_on_c, 5, 72, 96
7, 381696, Note_off_c, 5, 70, 0
7, 381696, Note_on_c, 5, 72, 96
7, 381952, Note_off_c, 5, 72, 0
7, 381952, Note_on_c, 5, 69, 96
7, 381952, Note_off_c, 5, 72, 0
7, 381952, Note_on_c, 5, 69, 96
7, 381952, Note_on_c, 5, 60, 96
7, 381952, Note_off_c, 5, 57, 0
7, 381952, Note_on_c, 5, 57, 96
7, 381952, Note_off_c, 5, 53, 0
7, 381952, Note_on_c, 5, 52, 96
7, 382208, Note_off_c, 5, 69, 0
7, 382208, Note_on_c, 5, 72, 96
7, 382208, Note_off_c, 5, 69, 0
7, 382208, Note_on_c, 5, 72, 96
7, 382464, Note_off_c, 5, 72, 0
7, 382464, Note_on_c, 5, 77, 96
7, 382464, Note_off_c, 5, 72, 0
7, 382464, Note_on_c, 5, 77, 96
7, 382464, Note_off_c, 5, 60, 0
7, 382464, Note_on_c, 5, 69, 96
7, 382464, Note_off_c, 5, 57, 0
7, 382464, Note_on_c, 5, 62, 96
7, 382464, Note_off_c, 5, 52, 0
7, 382464, Note_on_c, 5, 50, 96
7, 382720, Note_off_c, 5, 77, 0
7, 382720, Note_on_c, 5, 69, 96
7, 382720, Note_off_c, 5, 77, 0
7, 382720, Note_on_c, 5, 69, 96
7, 382976, Note_off_c, 5, 69, 0
7, 382976, Note_on_c, 5, 67, 96
7, 382976, Note_off_c, 5, 69, 0
7, 382976, Note_on_c, 5, 67, 96
7, 382976, Note_off_c, 5, 62, 0
7, 382976, Note_on_c, 5, 64, 96
7, 383232, Note_off_c, 5, 67, 0
7, 383232, Note_on_c, 5, 69, 96
7, 383232, Note_off_c, 5, 67, 0
7, 383232, Note_on_c, 5, 69, 96
7, 383488, Note_off_c, 5, 69, 0
7, 383488, Note_on_c, 5, 65, 96
7, 383488, Note_off_c, 5, 69, 0
7, 383488, Note_on_c, 5, 65, 96
7, 383488, Note_off_c, 5, 69, 0
7, 383488, Note_on_c, 5, 70, 96
7, 383488, Note_off_c, 5, 64, 0
7, 383488, Note_on_c, 5, 65, 96
7, 383744, Note_off_c, 5, 65, 0
7, 383744, Note_on_c, 5, 69, 96
7, 383744, Note_off_c, 5, 65, 0
7, 383744, Note_on_c, 5, 69, 96
7, 384000, Note_off_c, 5, 69, 0
7, 384000, Note_on_c, 5, 59, 96
7, 384000, Note_off_c, 5, 69, 0
7, 384000, Note_on_c, 5, 59, 96
7, 384000, Note_off_c, 5, 70, 0
7, 384000, Note_on_c, 5, 67, 96
7, 384000, Note_off_c, 5, 65, 0
7, 384000, Note_on_c, 5, 59, 96
7, 384256, Note_off_c, 5, 59, 0
7, 384256, Note_on_c, 5, 71, 96
7, 384256, Note_off_c, 5, 59, 0
7, 384256, Note_on_c, 5, 71, 96
7, 384512, Note_off_c, 5, 71, 0
7, 384512, Note_on_c, 5, 69, 96
7, 384512, Note_off_c, 5, 71, 0
7, 384512, Note_on_c, 5, 69, 96
7, 384512, Note_off_c, 5, 59, 0
7, 384512, Note_on_c, 5, 60, 96
7, 384512, Note_off_c, 5, 50, 0
7, 384512, Note_on_c, 5, 52, 96
7, 384768, Note_off_c, 5, 69, 0
7, 384768, Note_on_c, 5, 71, 96
7, 384768, Note_off_c, 5, 69, 0
7, 384768, Note_on_c, 5, 71, 96
7, 385024, Note_off_c, 5, 71, 0
7, 385024, Note_on_c, 5, 69, 96
7, 385024, Note_off_c, 5, 71, 0
7, 385024, Note_on_c, 5, 69, 96
7, 385024, Note_off_c, 5, 67, 0
7, 385024, Note_on_c, 5, 65, 96
7, 385024, Note_off_c, 5, 60, 0
7, 385024, Note_on_c, 5, 62, 96
7, 385024, Note_off_c, 5, 52, 0
7, 385024, Note_on_c, 5, 50, 96
7, 385280, Note_off_c, 5, 69, 0
7, 385280, Note_on_c, 5, 71, 96
7, 385280, Note_off_c, 5, 69, 0
7, 385280, Note_on_c, 5, 71, 96
7, 385536, Note_off_c, 5, 71, 0
7, 385536, Note_on_c, 5, 76, 96
7, 385536, Note_off_c, 5, 71, 0
7, 385536, Note_on_c, 5, 76, 96
7, 385536, Note_off_c, 5, 65, 0
7, 385536, Note_on_c, 5, 67, 96
7, 385536, Note_off_c, 5, 62, 0
7, 385536, Note_on_c, 5, 64, 96
7, 385536, Note_off_c, 5, 50, 0
7, 385536, Note_on_c, 5, 48, 96
7, 385792, Note_off_c, 5, 76, 0
7, 385792, Note_on_c, 5, 67, 96
7, 385792, Note_off_c, 5, 76, 0
7, 385792, Note_on_c, 5, 67, 96
7, 386048, Note_off_c, 5, 67, 0
7, 386048, Note_on_c, 5, 65, 96
7, 386048, Note_off_c, 5, 67, 0
7, 386048, Note_on_c, 5, 65, 96
7, 386048, Note_off_c, 5, 67, 0
7, 386048, Note_on_c, 5, 70, 96
7, 386048, Note_off_c, 5, 64, 0
7, 386048, Note_on_c, 5, 62, 96
7, 386048, Note_off_c, 5, 48, 0
7, 386048, Note_on_c, 5, 50, 96
7, 386304, Note_off_c, 5, 65, 0
7, 386304, Note_on_c, 5, 67, 96
7, 386304, Note_off_c, 5, 65, 0
7, 386304, Note_on_c, 5, 67, 96
7, 386560, Note_off_c, 5, 67, 0
7, 386560, Note_on_c, 5, 64, 96
7, 386560, Note_off_c, 5, 67, 0
7, 386560, Note_on_c, 5, 64, 96
7, 386560, Note_off_c, 5, 70, 0
7, 386560, Note_on_c, 5, 69, 96
7, 386560, Note_off_c, 5, 62, 0
7, 386560, Note_on_c, 5, 60, 96
7, 386560, Note_off_c, 5, 50, 0
7, 386560, Note_on_c, 5, 52, 96
7, 386816, Note_off_c, 5, 64, 0
7, 386816, Note_on_c, 5, 67, 96
7, 386816, Note_off_c, 5, 64, 0
7, 386816, Note_on_c, 5, 67, 96
7, 387072, Note_off_c, 5, 67, 0
7, 387072, Note_off_c, 5, 67, 0
7, 387072, Note_off_c, 5, 69, 0
7, 387072, Note_off_c, 5, 60, 0
7, 387072, Note_off_c, 5, 52, 0
7, 387072, Note_on_c, 5, 57, 96
7, 387072, Note_on_c, 5, 57, 96
7, 387072, Note_on_c, 5, 65, 96
7, 387072, Note_on_c, 5, 62, 96
7, 387072, Note_on_c, 5, 53, 96
7, 387328, Note_off_c, 5, 57, 0
7, 387328, Note_on_c, 5, 69, 96
7, 387328, Note_off_c, 5, 57, 0
7, 387328, Note_on_c, 5, 69, 96
7, 387584, Note_off_c, 5, 69, 0
7, 387584, Note_on_c, 5, 67, 96
7, 387584, Note_off_c, 5, 69, 0
7, 387584, Note_on_c, 5, 67, 96
7, 387840, Note_off_c, 5, 67, 0
7, 387840, Note_on_c, 5, 69, 96
7, 387840, Note_off_c, 5, 67, 0
7, 387840, Note_on_c, 5, 69, 96
7, 388096, Note_off_c, 5, 69, 0
7, 388096, Note_on_c, 5, 65, 96
7, 388096, Note_off_c, 5, 69, 0
7, 388096, Note_on_c, 5, 65, 96
7, 388096, Note_off_c, 5, 65, 0
7, 388096, Note_on_c, 5, 67, 96
7, 388096, Note_off_c, 5, 62, 0
7, 388096, Note_on_c, 5, 64, 96
7, 388096, Note_off_c, 5, 53, 0
7, 388096, Note_on_c, 5, 52, 96
7, 388352, Note_off_c, 5, 65, 0
7, 388352, Note_on_c, 5, 69, 96
7, 388352, Note_off_c, 5, 65, 0
7, 388352, Note_on_c, 5, 69, 96
7, 388608, Note_off_c, 5, 69, 0
7, 388608, Note_on_c, 5, 74, 96
7, 388608, Note_off_c, 5, 69, 0
7, 388608, Note_on_c, 5, 74, 96
7, 388608, Note_off_c, 5, 67, 0
7, 388608, Note_on_c, 5, 69, 96
7, 388608, Note_off_c, 5, 64, 0
7, 388608, Note_on_c, 5, 65, 96
7, 388608, Note_off_c, 5, 52, 0
7, 388608, Note_on_c, 5, 50, 96
7, 388864, Note_off_c, 5, 74, 0
7, 388864, Note_on_c, 5, 65, 96
7, 388864, Note_off_c, 5, 74, 0
7, 388864, Note_on_c, 5, 65, 96
7, 389120, Note_off_c, 5, 65, 0
7, 389120, Note_on_c, 5, 64, 96
7, 389120, Note_off_c, 5, 65, 0
7, 389120, Note_on_c, 5, 64, 96
7, 389120, Note_off_c, 5, 69, 0
7, 389120, Note_on_c, 5, 67, 96
7, 389120, Note_off_c, 5, 50, 0
7, 389120, Note_on_c, 5, 52, 96
7, 389376, Note_off_c, 5, 64, 0
7, 389376, Note_on_c, 5, 65, 96
7, 389376, Note_off_c, 5, 64, 0
7, 389376, Note_on_c, 5, 65, 96
7, 389632, Note_off_c, 5, 65, 0
7, 389632, Note_on_c, 5, 62, 96
7, 389632, Note_off_c, 5, 65, 0
7, 389632, Note_on_c, 5, 62, 96
7, 389632, Note_off_c, 5, 67, 0
7, 389632, Note_on_c, 5, 69, 96
7, 389632, Note_off_c, 5, 52, 0
7, 389632, Note_on_c, 5, 53, 96
7, 389888, Note_off_c, 5, 62, 0
7, 389888, Note_on_c, 5, 65, 96
7, 389888, Note_off_c, 5, 62, 0
7, 389888, Note_on_c, 5, 65, 96
7, 390144, Note_on_c, 5, 55, 96
7, 390144, Note_off_c, 5, 65, 0
7, 390144, Note_on_c, 5, 55, 96
7, 390144, Note_off_c, 5, 69, 0
7, 390144, Note_on_c, 5, 71, 96
7, 390144, Note_off_c, 5, 65, 0
7, 390144, Note_off_c, 5, 53, 0
7, 390144, Note_on_c, 5, 55, 96
7, 390400, Note_off_c, 5, 55, 0
7, 390400, Note_on_c, 5, 65, 96
7, 390400, Note_off_c, 5, 55, 0
7, 390400, Note_on_c, 5, 65, 96
7, 390656, Note_off_c, 5, 65, 0
7, 390656, Note_on_c, 5, 64, 96
7, 390656, Note_off_c, 5, 65, 0
7, 390656, Note_on_c, 5, 64, 96
7, 390656, Note_off_c, 5, 71, 0
7, 390656, Note_on_c, 5, 67, 96
7, 390912, Note_off_c, 5, 64, 0
7, 390912, Note_on_c, 5, 65, 96
7, 390912, Note_off_c, 5, 64, 0
7, 390912, Note_on_c, 5, 65, 96
7, 391168, Note_off_c, 5, 65, 0
7, 391168, Note_on_c, 5, 62, 96
7, 391168, Note_off_c, 5, 65, 0
7, 391168, Note_on_c, 5, 62, 96
7, 391168, Note_off_c, 5, 67, 0
7, 391168, Note_on_c, 5, 69, 96
7, 391168, Note_off_c, 5, 65, 0
7, 391168, Note_on_c, 5, 62, 96
7, 391168, Note_off_c, 5, 55, 0
7, 391168, Note_on_c, 5, 53, 96
7, 391424, Note_off_c, 5, 62, 0
7, 391424, Note_on_c, 5, 65, 96
7, 391424, Note_off_c, 5, 62, 0
7, 391424, Note_on_c, 5, 65, 96
7, 391680, Note_off_c, 5, 65, 0
7, 391680, Note_on_c, 5, 74, 96
7, 391680, Note_off_c, 5, 65, 0
7, 391680, Note_on_c, 5, 74, 96
7, 391680, Note_off_c, 5, 69, 0
7, 391680, Note_on_c, 5, 67, 96
7, 391680, Note_off_c, 5, 62, 0
7, 391680, Note_on_c, 5, 59, 96
7, 391680, Note_off_c, 5, 53, 0
7, 391680, Note_on_c, 5, 55, 96
7, 391936, Note_off_c, 5, 74, 0
7, 391936, Note_on_c, 5, 65, 96
7, 391936, Note_off_c, 5, 74, 0
7, 391936, Note_on_c, 5, 65, 96
7, 392192, Note_off_c, 5, 65, 0
7, 392192, Note_on_c, 5, 64, 96
7, 392192, Note_off_c, 5, 65, 0
7, 392192, Note_on_c, 5, 64, 96
7, 392192, Note_off_c, 5, 67, 0
7, 392192, Note_on_c, 5, 69, 96
7, 392192, Note_off_c, 5, 59, 0
7, 392192, Note_on_c, 5, 60, 96
7, 392448, Note_off_c, 5, 64, 0
7, 392448, Note_on_c, 5, 65, 96
7, 392448, Note_off_c, 5, 64, 0
7, 392448, Note_on_c, 5, 65, 96
7, 392704, Note_off_c, 5, 65, 0
7, 392704, Note_on_c, 5, 62, 96
7, 392704, Note_off_c, 5, 65, 0
7, 392704, Note_on_c, 5, 62, 96
7, 392704, Note_off_c, 5, 69, 0
7, 392704, Note_on_c, 5, 71, 96
7, 392704, Note_off_c, 5, 60, 0
7, 392704, Note_on_c, 5, 62, 96
7, 392960, Note_off_c, 5, 62, 0
7, 392960, Note_on_c, 5, 65, 96
7, 392960, Note_off_c, 5, 62, 0
7, 392960, Note_on_c, 5, 65, 96
7, 393216, Note_off_c, 5, 65, 0
7, 393216, Note_off_c, 5, 65, 0
7, 393216, Note_off_c, 5, 71, 0
7, 393216, Note_off_c, 5, 62, 0
7, 393216, Note_on_c, 5, 55, 96
7, 393216, Note_on_c, 5, 55, 96
7, 393216, Note_on_c, 5, 64, 96
7, 393216, Note_on_c, 5, 55, 96
7, 393472, Note_off_c, 5, 55, 0
7, 393472, Note_on_c, 5, 76, 96
7, 393472, Note_off_c, 5, 55, 0
7, 393472, Note_on_c, 5, 76, 96
7, 393728, Note_off_c, 5, 76, 0
7, 393728, Note_on_c, 5, 74, 96
7, 393728, Note_off_c, 5, 76, 0
7, 393728, Note_on_c, 5, 74, 96
7, 393728, Note_off_c, 5, 55, 0
7, 393728, Note_on_c, 5, 52, 96
7, 393984, Note_off_c, 5, 74, 0
7, 393984, Note_on_c, 5, 76, 96
7, 393984, Note_off_c, 5, 74, 0
7, 393984, Note_on_c, 5, 76, 96
7, 394240, Note_off_c, 5, 76, 0
7, 394240, Note_on_c, 5, 72, 96
7, 394240, Note_off_c, 5, 76, 0
7, 394240, Note_on_c, 5, 72, 96
7, 394240, Note_off_c, 5, 64, 0
7, 394240, Note_on_c, 5, 60, 96
7, 394240, Note_off_c, 5, 55, 0
7, 394240, Note_on_c, 5, 67, 96
7, 394240, Note_off_c, 5, 52, 0
7, 394240, Note_on_c, 5, 55, 96
7, 394496, Note_off_c, 5, 72, 0
7, 394496, Note_on_c, 5, 76, 96
7, 394496, Note_off_c, 5, 72, 0
7, 394496, Note_on_c, 5, 76, 96
7, 394752, Note_off_c, 5, 76, 0
7, 394752, Note_on_c, 5, 79, 96
7, 394752, Note_off_c, 5, 76, 0
7, 394752, Note_on_c, 5, 79, 96
7, 394752, Note_off_c, 5, 60, 0
7, 394752, Note_on_c, 5, 70, 96
7, 394752, Note_off_c, 5, 67, 0
7, 394752, Note_on_c, 5, 64, 96
7, 394752, Note_off_c, 5, 55, 0
7, 394752, Note_on_c, 5, 60, 96
7, 395008, Note_off_c, 5, 79, 0
7, 395008, Note_on_c, 5, 76, 96
7, 395008, Note_off_c, 5, 79, 0
7, 395008, Note_on_c, 5, 76, 96
7, 395264, Note_off_c, 5, 76, 0
7, 395264, Note_on_c, 5, 74, 96
7, 395264, Note_off_c, 5, 76, 0
7, 395264, Note_on_c, 5, 74, 96
7, 395264, Note_off_c, 5, 64, 0
7, 395264, Note_on_c, 5, 65, 96
7, 395264, Note_off_c, 5, 60, 0
7, 395264, Note_on_c, 5, 55, 96
7, 395520, Note_off_c, 5, 74, 0
7, 395520, Note_on_c, 5, 76, 96
7, 395520, Note_off_c, 5, 74, 0
7, 395520, Note_on_c, 5, 76, 96
7, 395776, Note_off_c, 5, 76, 0
7, 395776, Note_on_c, 5, 72, 96
7, 395776, Note_off_c, 5, 76, 0
7, 395776, Note_on_c, 5, 72, 96
7, 395776, Note_off_c, 5, 70, 0
7, 395776, Note_on_c, 5, 72, 96
7, 395776, Note_off_c, 5, 65, 0
7, 395776, Note_on_c, 5, 67, 96
7, 395776, Note_off_c, 5, 55, 0
7, 395776, Note_on_c, 5, 52, 96
7, 396032, Note_off_c, 5, 72, 0
7, 396032, Note_on_c, 5, 76, 96
7, 396032, Note_off_c, 5, 72, 0
7, 396032, Note_on_c, 5, 76, 96
7, 396288, Note_off_c, 5, 76, 0
7, 396288, Note_on_c, 5, 65, 96
7, 396288, Note_off_c, 5, 76, 0
7, 396288, Note_on_c, 5, 65, 96
7, 396288, Note_off_c, 5, 72, 0
7, 396288, Note_on_c, 5, 70, 96
7, 396288, Note_off_c, 5, 67, 0
7, 396288, Note_on_c, 5, 60, 96
7, 396288, Note_off_c, 5, 52, 0
7, 396288, Note_on_c, 5, 53, 96
7, 396544, Note_off_c, 5, 65, 0
7, 396544, Note_on_c, 5, 72, 96
7, 396544, Note_off_c, 5, 65, 0
7, 396544, Note_on_c, 5, 72, 96
7, 396800, Note_off_c, 5, 72, 0
7, 396800, Note_on_c, 5, 70, 96
7, 396800, Note_off_c, 5, 72, 0
7, 396800, Note_on_c, 5, 70, 96
7, 396800, Note_off_c, 5, 70, 0
7, 396800, Note_on_c, 5, 69, 96
7, 397056, Note_off_c, 5, 70, 0
7, 397056, Note_on_c, 5, 72, 96
7, 397056, Note_off_c, 5, 70, 0
7, 397056, Note_on_c, 5, 72, 96
7, 397312, Note_off_c, 5, 72, 0
7, 397312, Note_on_c, 5, 69, 96
7, 397312, Note_off_c, 5, 72, 0
7, 397312, Note_on_c, 5, 69, 96
7, 397312, Note_off_c, 5, 69, 0
7, 397312, Note_on_c, 5, 67, 96
7, 397312, Note_off_c, 5, 60, 0
7, 397312, Note_on_c, 5, 64, 96
7, 397312, Note_off_c, 5, 53, 0
7, 397312, Note_on_c, 5, 60, 96
7, 397568, Note_off_c, 5, 69, 0
7, 397568, Note_on_c, 5, 72, 96
7, 397568, Note_off_c, 5, 69, 0
7, 397568, Note_on_c, 5, 72, 96
7, 397824, Note_off_c, 5, 72, 0
7, 397824, Note_on_c, 5, 77, 96
7, 397824, Note_off_c, 5, 72, 0
7, 397824, Note_on_c, 5, 77, 96
7, 397824, Note_off_c, 5, 67, 0
7, 397824, Note_on_c, 5, 69, 96
7, 397824, Note_off_c, 5, 64, 0
7, 397824, Note_on_c, 5, 65, 96
7, 397824, Note_off_c, 5, 60, 0
7, 397824, Note_on_c, 5, 60, 96
7, 398080, Note_off_c, 5, 77, 0
7, 398080, Note_on_c, 5, 65, 96
7, 398080, Note_off_c, 5, 77, 0
7, 398080, Note_on_c, 5, 65, 96
7, 398336, Note_off_c, 5, 65, 0
7, 398336, Note_on_c, 5, 64, 96
7, 398336, Note_off_c, 5, 65, 0
7, 398336, Note_on_c, 5, 64, 96
7, 398336, Note_off_c, 5, 69, 0
7, 398336, Note_on_c, 5, 72, 96
7, 398336, Note_off_c, 5, 65, 0
7, 398336, Note_on_c, 5, 60, 96
7, 398336, Note_off_c, 5, 60, 0
7, 398336, Note_on_c, 5, 57, 96
7, 398592, Note_off_c, 5, 64, 0
7, 398592, Note_on_c, 5, 65, 96
7, 398592, Note_off_c, 5, 64, 0
7, 398592, Note_on_c, 5, 65, 96
7, 398848, Note_off_c, 5, 65, 0
7, 398848, Note_on_c, 5, 62, 96
7, 398848, Note_off_c, 5, 65, 0
7, 398848, Note_on_c, 5, 62, 96
7, 398848, Note_off_c, 5, 72, 0
7, 398848, Note_on_c, 5, 71, 96
7, 398848, Note_off_c, 5, 60, 0
7, 398848, Note_on_c, 5, 62, 96
7, 398848, Note_off_c, 5, 57, 0
7, 398848, Note_on_c, 5, 53, 96
7, 399104, Note_off_c, 5, 62, 0
7, 399104, Note_on_c, 5, 65, 96
7, 399104, Note_off_c, 5, 62, 0
7, 399104, Note_on_c, 5, 65, 96
7, 399360, Note_off_c, 5, 65, 0
7, 399360, Note_off_c, 5, 65, 0
7, 399360, Note_off_c, 5, 71, 0
7, 399360, Note_off_c, 5, 62, 0
7, 399360, Note_off_c, 5, 53, 0
7, 399360, Note_on_c, 5, 64, 96
7, 399360, Note_on_c, 5, 64, 96
7, 399360, Note_on_c, 5, 72, 96
7, 399360, Note_on_c, 5, 55, 96
7, 399360, Note_on_c, 5, 48, 96
7, 400384, Note_off_c, 5, 64, 0
7, 400384, Note_off_c, 5, 64, 0
7, 400384, Note_off_c, 5, 72, 0
7, 400384, Note_off_c, 5, 55, 0
7, 400384, Note_off_c, 5, 48, 0
7, 404992, Note_on_c, 5, 76, 96
7, 404992, Note_on_c, 5, 76, 96
7, 404992, Note_on_c, 5, 76, 96
7, 404992, Note_on_c, 5, 69, 96
7, 404992, Note_on_c, 5, 64, 96
7, 405504, Note_off_c, 5, 76, 0
7, 405504, Note_off_c, 5, 76, 0
7, 405504, Note_off_c, 5, 76, 0
7, 405504, Note_off_c, 5, 69, 0
7, 405504, Note_off_c, 5, 64, 0
7, 405504, Note_on_c, 5, 77, 96
7, 405504, Note_on_c, 5, 77, 96
7, 405504, Note_on_c, 5, 77, 96
7, 405504, Note_on_c, 5, 69, 96
7, 405504, Note_on_c, 5, 62, 96
7, 407040, Note_off_c, 5, 77, 0
7, 407040, Note_off_c, 5, 77, 0
7, 407040, Note_off_c, 5, 77, 0
7, 407040, Note_off_c, 5, 69, 0
7, 407040, Note_off_c, 5, 62, 0
7, 411136, Note_on_c, 5, 78, 96
7, 411136, Note_on_c, 5, 78, 96
7, 411136, Note_on_c, 5, 78, 96
7, 411136, Note_on_c, 5, 74, 96
7, 411136, Note_on_c, 5, 69, 96
7, 411648, Note_off_c, 5, 78, 0
7, 411648, Note_off_c, 5, 78, 0
7, 411648, Note_off_c, 5, 78, 0
7, 411648, Note_off_c, 5, 74, 0
7, 411648, Note_off_c, 5, 69, 0
7, 411648, Note_on_c, 5, 79, 96
7, 411648, Note_on_c, 5, 79, 96
7, 411648, Note_on_c, 5, 79, 96
7, 411648, Note_on_c, 5, 74, 96
7, 411648, Note_on_c, 5, 70, 96
7, 412672, Note_off_c, 5, 79, 0
7, 412672, Note_on_c, 5, 84, 96
7, 412672, Note_off_c, 5, 79, 0
7, 412672, Note_on_c, 5, 72, 96
7, 412672, Note_off_c, 5, 79, 0
7, 412672, Note_off_c, 5, 74, 0
7, 412672, Note_off_c, 5, 70, 0
7, 413184, Note_off_c, 5, 84, 0
7, 413184, Note_on_c, 5, 77, 96
7, 413184, Note_off_c, 5, 72, 0
7, 413184, Note_on_c, 5, 77, 96
7, 413696, Note_off_c, 5, 77, 0
7, 413696, Note_on_c, 5, 81, 96
7, 413696, Note_off_c, 5, 77, 0
7, 413696, Note_on_c, 5, 81, 96
7, 414208, Note_off_c, 5, 81, 0
7, 414208, Note_on_c, 5, 79, 96
7, 414208, Note_off_c, 5, 81, 0
7, 414208, Note_on_c, 5, 79, 96
7, 414720, Note_off_c, 5, 79, 0
7, 414720, Note_on_c, 5, 77, 96
7, 414720, Note_off_c, 5, 79, 0
7, 414720, Note_on_c, 5, 77, 96
7, 415232, Note_off_c, 5, 77, 0
7, 415232, Note_on_c, 5, 81, 96
7, 415232, Note_off_c, 5, 77, 0
7, 415232, Note_on_c, 5, 81, 96
7, 415744, Note_off_c, 5, 81, 0
7, 415744, Note_on_c, 5, 79, 96
7, 415744, Note_off_c, 5, 81, 0
7, 415744, Note_on_c, 5, 79, 96
7, 416256, Note_off_c, 5, 79, 0
7, 416256, Note_on_c, 5, 77, 96
7, 416256, Note_off_c, 5, 79, 0
7, 416256, Note_on_c, 5, 77, 96
7, 416768, Note_off_c, 5, 77, 0
7, 416768, Note_on_c, 5, 79, 96
7, 416768, Note_off_c, 5, 77, 0
7, 416768, Note_on_c, 5, 79, 96
7, 417024, Note_off_c, 5, 79, 0
7, 417024, Note_on_c, 5, 77, 96
7, 417024, Note_off_c, 5, 79, 0
7, 417024, Note_on_c, 5, 77, 96
7, 417280, Note_off_c, 5, 77, 0
7, 417280, Note_on_c, 5, 76, 96
7, 417280, Note_off_c, 5, 77, 0
7, 417280, Note_on_c, 5, 76, 96
7, 417280, Note_on_c, 5, 81, 96
7, 417280, Note_on_c, 5, 72, 96
7, 417280, Note_on_c, 5, 69, 96
7, 417536, Note_off_c, 5, 76, 0
7, 417536, Note_on_c, 5, 74, 96
7, 417536, Note_off_c, 5, 76, 0
7, 417536, Note_on_c, 5, 74, 96
7, 417792, Note_off_c, 5, 74, 0
7, 417792, Note_off_c, 5, 74, 0
7, 417792, Note_off_c, 5, 81, 0
7, 417792, Note_off_c, 5, 72, 0
7, 417792, Note_off_c, 5, 69, 0
7, 417792, Note_on_c, 5, 79, 96
7, 417792, Note_on_c, 5, 76, 96
7, 417792, Note_on_c, 5, 84, 96
7, 417792, Note_on_c, 5, 76, 96
7, 417792, Note_on_c, 5, 67, 96
7, 418048, Note_off_c, 5, 79, 0
7, 418048, Note_on_c, 5, 76, 96
7, 418048, Note_off_c, 5, 76, 0
7, 418048, Note_on_c, 5, 76, 96
7, 418304, Note_off_c, 5, 76, 0
7, 418304, Note_on_c, 5, 77, 96
7, 418304, Note_off_c, 5, 76, 0
7, 418304, Note_on_c, 5, 77, 96
7, 418560, Note_off_c, 5, 77, 0
7, 418560, Note_on_c, 5, 79, 96
7, 418560, Note_off_c, 5, 77, 0
7, 418560, Note_on_c, 5, 79, 96
7, 418816, Note_off_c, 5, 79, 0
7, 418816, Note_on_c, 5, 81, 96
7, 418816, Note_off_c, 5, 79, 0
7, 418816, Note_on_c, 5, 81, 96
7, 418816, Note_off_c, 5, 84, 0
7, 418816, Note_on_c, 5, 77, 96
7, 418816, Note_off_c, 5, 76, 0
7, 418816, Note_on_c, 5, 77, 96
7, 418816, Note_off_c, 5, 67, 0
7, 418816, Note_on_c, 5, 65, 96
7, 419072, Note_off_c, 5, 81, 0
7, 419072, Note_on_c, 5, 82, 96
7, 419072, Note_off_c, 5, 81, 0
7, 419072, Note_on_c, 5, 82, 96
7, 419328, Note_off_c, 5, 82, 0
7, 419328, Note_on_c, 5, 84, 96
7, 419328, Note_off_c, 5, 82, 0
7, 419328, Note_on_c, 5, 84, 96
7, 419328, Note_off_c, 5, 77, 0
7, 419328, Note_on_c, 5, 84, 96
7, 419328, Note_off_c, 5, 77, 0
7, 419328, Note_on_c, 5, 81, 96
7, 419328, Note_off_c, 5, 65, 0
7, 419328, Note_on_c, 5, 65, 96
7, 420352, Note_off_c, 5, 84, 0
7, 420352, Note_on_c, 5, 86, 96
7, 420352, Note_off_c, 5, 84, 0
7, 420352, Note_on_c, 5, 86, 96
7, 420352, Note_off_c, 5, 84, 0
7, 420352, Note_on_c, 5, 86, 96
7, 420352, Note_off_c, 5, 81, 0
7, 420352, Note_on_c, 5, 82, 96
7, 420352, Note_off_c, 5, 65, 0
7, 420352, Note_on_c, 5, 62, 96
7, 420864, Note_off_c, 5, 86, 0
7, 420864, Note_on_c, 5, 82, 96
7, 420864, Note_off_c, 5, 86, 0
7, 420864, Note_on_c, 5, 82, 96
7, 420864, Note_off_c, 5, 86, 0
7, 420864, Note_on_c, 5, 82, 96
7, 420864, Note_off_c, 5, 82, 0
7, 420864, Note_on_c, 5, 79, 96
7, 420864, Note_off_c, 5, 62, 0
7, 420864, Note_on_c, 5, 64, 96
7, 421888, Note_off_c, 5, 82, 0
7, 421888, Note_on_c, 5, 81, 96
7, 421888, Note_off_c, 5, 82, 0
7, 421888, Note_on_c, 5, 81, 96
7, 421888, Note_off_c, 5, 82, 0
7, 421888, Note_on_c, 5, 81, 96
7, 421888, Note_off_c, 5, 79, 0
7, 421888, Note_on_c, 5, 77, 96
7, 421888, Note_off_c, 5, 64, 0
7, 421888, Note_on_c, 5, 60, 96
7, 422400, Note_off_c, 5, 81, 0
7, 422400, Note_on_c, 5, 82, 96
7, 422400, Note_off_c, 5, 81, 0
7, 422400, Note_on_c, 5, 82, 96
7, 422400, Note_off_c, 5, 81, 0
7, 422400, Note_on_c, 5, 82, 96
7, 422400, Note_off_c, 5, 77, 0
7, 422400, Note_on_c, 5, 79, 96
7, 422400, Note_off_c, 5, 60, 0
7, 422400, Note_on_c, 5, 72, 96
7, 422912, Note_off_c, 5, 82, 0
7, 422912, Note_on_c, 5, 79, 96
7, 422912, Note_off_c, 5, 82, 0
7, 422912, Note_on_c, 5, 79, 96
7, 422912, Note_off_c, 5, 82, 0
7, 422912, Note_on_c, 5, 79, 96
7, 422912, Note_off_c, 5, 79, 0
7, 422912, Note_on_c, 5, 72, 96
7, 423424, Note_off_c, 5, 79, 0
7, 423424, Note_on_c, 5, 81, 96
7, 423424, Note_off_c, 5, 79, 0
7, 423424, Note_on_c, 5, 81, 96
7, 423424, Note_off_c, 5, 79, 0
7, 423424, Note_on_c, 5, 81, 96
7, 423424, Note_off_c, 5, 72, 0
7, 423424, Note_on_c, 5, 77, 96
7, 423424, Note_off_c, 5, 72, 0
7, 423424, Note_on_c, 5, 60, 96
7, 423936, Note_off_c, 5, 81, 0
7, 423936, Note_off_c, 5, 81, 0
7, 423936, Note_off_c, 5, 81, 0
7, 423936, Note_off_c, 5, 77, 0
7, 423936, Note_off_c, 5, 60, 0
7, 423936, Note_on_c, 5, 81, 96
7, 423936, Note_on_c, 5, 81, 96
7, 423936, Note_on_c, 5, 81, 96
7, 423936, Note_on_c, 5, 77, 96
7, 423936, Note_on_c, 5, 72, 96
7, 424192, Note_off_c, 5, 81, 0
7, 424192, Note_on_c, 5, 77, 96
7, 424192, Note_off_c, 5, 81, 0
7, 424192, Note_on_c, 5, 77, 96
7, 424448, Note_off_c, 5, 77, 0
7, 424448, Note_on_c, 5, 76, 96
7, 424448, Note_off_c, 5, 77, 0
7, 424448, Note_on_c, 5, 76, 96
7, 424704, Note_off_c, 5, 76, 0
7, 424704, Note_on_c, 5, 77, 96
7, 424704, Note_off_c, 5, 76, 0
7, 424704, Note_on_c, 5, 77, 96
7, 424960, Note_off_c, 5, 77, 0
7, 424960, Note_on_c, 5, 72, 96
7, 424960, Note_off_c, 5, 77, 0
7, 424960, Note_on_c, 5, 72, 96
7, 424960, Note_off_c, 5, 81, 0
7, 424960, Note_on_c, 5, 72, 96
7, 424960, Note_off_c, 5, 77, 0
7, 424960, Note_on_c, 5, 77, 96
7, 424960, Note_off_c, 5, 72, 0
7, 424960, Note_on_c, 5, 65, 96
7, 425216, Note_off_c, 5, 72, 0
7, 425216, Note_on_c, 5, 77, 96
7, 425216, Note_off_c, 5, 72, 0
7, 425216, Note_on_c, 5, 77, 96
7, 425472, Note_off_c, 5, 77, 0
7, 425472, Note_on_c, 5, 81, 96
7, 425472, Note_off_c, 5, 77, 0
7, 425472, Note_on_c, 5, 81, 96
7, 425472, Note_off_c, 5, 72, 0
7, 425472, Note_on_c, 5, 77, 96
7, 425472, Note_off_c, 5, 77, 0
7, 425472, Note_on_c, 5, 72, 96
7, 425472, Note_off_c, 5, 65, 0
7, 425472, Note_on_c, 5, 69, 96
7, 425728, Note_off_c, 5, 81, 0
7, 425728, Note_on_c, 5, 77, 96
7, 425728, Note_off_c, 5, 81, 0
7, 425728, Note_on_c, 5, 77, 96
7, 425984, Note_off_c, 5, 77, 0
7, 425984, Note_on_c, 5, 76, 96
7, 425984, Note_off_c, 5, 77, 0
7, 425984, Note_on_c, 5, 76, 96
7, 425984, Note_off_c, 5, 77, 0
7, 425984, Note_on_c, 5, 77, 96
7, 425984, Note_off_c, 5, 72, 0
7, 425984, Note_on_c, 5, 72, 96
7, 425984, Note_off_c, 5, 69, 0
7, 425984, Note_on_c, 5, 69, 96
7, 426240, Note_off_c, 5, 76, 0
7, 426240, Note_on_c, 5, 77, 96
7, 426240, Note_off_c, 5, 76, 0
7, 426240, Note_on_c, 5, 77, 96
7, 426496, Note_off_c, 5, 77, 0
7, 426496, Note_on_c, 5, 72, 96
7, 426496, Note_off_c, 5, 77, 0
7, 426496, Note_on_c, 5, 72, 96
7, 426496, Note_off_c, 5, 77, 0
7, 426496, Note_on_c, 5, 77, 96
7, 426496, Note_off_c, 5, 72, 0
7, 426496, Note_on_c, 5, 72, 96
7, 426496, Note_off_c, 5, 69, 0
7, 426496, Note_on_c, 5, 69, 96
7, 426752, Note_off_c, 5, 72, 0
7, 426752, Note_on_c, 5, 77, 96
7, 426752, Note_off_c, 5, 72, 0
7, 426752, Note_on_c, 5, 77, 96
7, 427008, Note_off_c, 5, 77, 0
7, 427008, Note_on_c, 5, 69, 96
7, 427008, Note_off_c, 5, 77, 0
7, 427008, Note_on_c, 5, 69, 96
7, 427008, Note_off_c, 5, 77, 0
7, 427008, Note_on_c, 5, 77, 96
7, 427008, Note_off_c, 5, 72, 0
7, 427008, Note_on_c, 5, 72, 96
7, 427008, Note_off_c, 5, 69, 0
7, 427008, Note_on_c, 5, 69, 96
7, 427264, Note_off_c, 5, 69, 0
7, 427264, Note_on_c, 5, 77, 96
7, 427264, Note_off_c, 5, 69, 0
7, 427264, Note_on_c, 5, 77, 96
7, 427520, Note_off_c, 5, 77, 0
7, 427520, Note_on_c, 5, 76, 96
7, 427520, Note_off_c, 5, 77, 0
7, 427520, Note_on_c, 5, 76, 96
7, 427520, Note_off_c, 5, 77, 0
7, 427520, Note_on_c, 5, 77, 96
7, 427520, Note_off_c, 5, 72, 0
7, 427520, Note_on_c, 5, 72, 96
7, 427520, Note_off_c, 5, 69, 0
7, 427520, Note_on_c, 5, 69, 96
7, 427776, Note_off_c, 5, 76, 0
7, 427776, Note_on_c, 5, 77, 96
7, 427776, Note_off_c, 5, 76, 0
7, 427776, Note_on_c, 5, 77, 96
7, 428032, Note_off_c, 5, 77, 0
7, 428032, Note_on_c, 5, 72, 96
7, 428032, Note_off_c, 5, 77, 0
7, 428032, Note_on_c, 5, 72, 96
7, 428032, Note_off_c, 5, 77, 0
7, 428032, Note_on_c, 5, 77, 96
7, 428032, Note_off_c, 5, 72, 0
7, 428032, Note_on_c, 5, 72, 96
7, 428032, Note_off_c, 5, 69, 0
7, 428032, Note_on_c, 5, 69, 96
7, 428288, Note_off_c, 5, 72, 0
7, 428288, Note_on_c, 5, 77, 96
7, 428288, Note_off_c, 5, 72, 0
7, 428288, Note_on_c, 5, 77, 96
7, 428544, Note_off_c, 5, 77, 0
7, 428544, Note_on_c, 5, 81, 96
7, 428544, Note_off_c, 5, 77, 0
7, 428544, Note_on_c, 5, 81, 96
7, 428544, Note_off_c, 5, 77, 0
7, 428544, Note_on_c, 5, 77, 96
7, 428544, Note_off_c, 5, 72, 0
7, 428544, Note_on_c, 5, 72, 96
7, 428544, Note_off_c, 5, 69, 0
7, 428544, Note_on_c, 5, 69, 96
7, 428800, Note_off_c, 5, 81, 0
7, 428800, Note_on_c, 5, 77, 96
7, 428800, Note_off_c, 5, 81, 0
7, 428800, Note_on_c, 5, 77, 96
7, 429056, Note_off_c, 5, 77, 0
7, 429056, Note_on_c, 5, 76, 96
7, 429056, Note_off_c, 5, 77, 0
7, 429056, Note_on_c, 5, 76, 96
7, 429056, Note_off_c, 5, 77, 0
7, 429056, Note_on_c, 5, 77, 96
7, 429056, Note_off_c, 5, 72, 0
7, 429056, Note_on_c, 5, 72, 96
7, 429056, Note_off_c, 5, 69, 0
7, 429056, Note_on_c, 5, 69, 96
7, 429312, Note_off_c, 5, 76, 0
7, 429312, Note_on_c, 5, 77, 96
7, 429312, Note_off_c, 5, 76, 0
7, 429312, Note_on_c, 5, 77, 96
7, 429568, Note_off_c, 5, 77, 0
7, 429568, Note_on_c, 5, 72, 96
7, 429568, Note_off_c, 5, 77, 0
7, 429568, Note_on_c, 5, 72, 96
7, 429568, Note_off_c, 5, 77, 0
7, 429568, Note_on_c, 5, 77, 96
7, 429568, Note_off_c, 5, 72, 0
7, 429568, Note_on_c, 5, 72, 96
7, 429568, Note_off_c, 5, 69, 0
7, 429568, Note_on_c, 5, 69, 96
7, 429824, Note_off_c, 5, 72, 0
7, 429824, Note_on_c, 5, 77, 96
7, 429824, Note_off_c, 5, 72, 0
7, 429824, Note_on_c, 5, 77, 96
7, 430080, Note_off_c, 5, 77, 0
7, 430080, Note_off_c, 5, 77, 0
7, 430080, Note_off_c, 5, 77, 0
7, 430080, Note_off_c, 5, 72, 0
7, 430080, Note_off_c, 5, 69, 0
7, 430080, Note_on_c, 5, 65, 96
7, 430080, Note_on_c, 5, 65, 96
7, 430080, Note_on_c, 5, 77, 96
7, 430080, Note_on_c, 5, 74, 96
7, 430080, Note_on_c, 5, 70, 96
7, 430336, Note_off_c, 5, 65, 0
7, 430336, Note_on_c, 5, 74, 96
7, 430336, Note_off_c, 5, 65, 0
7, 430336, Note_on_c, 5, 74, 96
7, 430592, Note_off_c, 5, 74, 0
7, 430592, Note_on_c, 5, 72, 96
7, 430592, Note_off_c, 5, 74, 0
7, 430592, Note_on_c, 5, 72, 96
7, 430848, Note_off_c, 5, 72, 0
7, 430848, Note_on_c, 5, 74, 96
7, 430848, Note_off_c, 5, 72, 0
7, 430848, Note_on_c, 5, 74, 96
7, 431104, Note_off_c, 5, 74, 0
7, 431104, Note_on_c, 5, 70, 96
7, 431104, Note_off_c, 5, 74, 0
7, 431104, Note_on_c, 5, 70, 96
7, 431104, Note_off_c, 5, 77, 0
7, 431104, Note_on_c, 5, 65, 96
7, 431104, Note_off_c, 5, 74, 0
7, 431104, Note_off_c, 5, 70, 0
7, 431104, Note_on_c, 5, 69, 96
7, 431360, Note_off_c, 5, 70, 0
7, 431360, Note_on_c, 5, 74, 96
7, 431360, Note_off_c, 5, 70, 0
7, 431360, Note_on_c, 5, 74, 96
7, 431616, Note_off_c, 5, 74, 0
7, 431616, Note_on_c, 5, 79, 96
7, 431616, Note_off_c, 5, 74, 0
7, 431616, Note_on_c, 5, 79, 96
7, 431616, Note_off_c, 5, 65, 0
7, 431616, Note_on_c, 5, 70, 96
7, 431616, Note_off_c, 5, 69, 0
7, 431616, Note_on_c, 5, 67, 96
7, 431872, Note_off_c, 5, 79, 0
7, 431872, Note_on_c, 5, 74, 96
7, 431872, Note_off_c, 5, 79, 0
7, 431872, Note_on_c, 5, 74, 96
7, 432128, Note_off_c, 5, 74, 0
7, 432128, Note_on_c, 5, 72, 96
7, 432128, Note_off_c, 5, 74, 0
7, 432128, Note_on_c, 5, 72, 96
7, 432128, Note_off_c, 5, 67, 0
7, 432128, Note_on_c, 5, 69, 96
7, 432384, Note_off_c, 5, 72, 0
7, 432384, Note_on_c, 5, 74, 96
7, 432384, Note_off_c, 5, 72, 0
7, 432384, Note_on_c, 5, 74, 96
7, 432640, Note_off_c, 5, 74, 0
7, 432640, Note_on_c, 5, 70, 96
7, 432640, Note_off_c, 5, 74, 0
7, 432640, Note_on_c, 5, 70, 96
7, 432640, Note_on_c, 5, 62, 96
7, 432640, Note_off_c, 5, 69, 0
7, 432640, Note_on_c, 5, 65, 96
7, 432896, Note_off_c, 5, 70, 0
7, 432896, Note_on_c, 5, 74, 96
7, 432896, Note_off_c, 5, 70, 0
7, 432896, Note_on_c, 5, 74, 96
7, 433152, Note_off_c, 5, 74, 0
7, 433152, Note_on_c, 5, 67, 96
7, 433152, Note_off_c, 5, 74, 0
7, 433152, Note_on_c, 5, 67, 96
7, 433152, Note_off_c, 5, 62, 0
7, 433152, Note_on_c, 5, 67, 96
7, 433152, Note_off_c, 5, 65, 0
7, 433152, Note_on_c, 5, 64, 96
7, 433408, Note_off_c, 5, 67, 0
7, 433408, Note_on_c, 5, 79, 96
7, 433408, Note_off_c, 5, 67, 0
7, 433408, Note_on_c, 5, 79, 96
7, 433664, Note_off_c, 5, 79, 0
7, 433664, Note_on_c, 5, 77, 96
7, 433664, Note_off_c, 5, 79, 0
7, 433664, Note_on_c, 5, 77, 96
7, 433664, Note_off_c, 5, 70, 0
7, 433664, Note_on_c, 5, 69, 96
7, 433920, Note_off_c, 5, 77, 0
7, 433920, Note_on_c, 5, 79, 96
7, 433920, Note_off_c, 5, 77, 0
7, 433920, Note_on_c, 5, 79, 96
7, 434176, Note_off_c, 5, 79, 0
7, 434176, Note_on_c, 5, 76, 96
7, 434176, Note_off_c, 5, 79, 0
7, 434176, Note_on_c, 5, 76, 96
7, 434176, Note_off_c, 5, 69, 0
7, 434176, Note_on_c, 5, 67, 96
7, 434432, Note_off_c, 5, 76, 0
7, 434432, Note_on_c, 5, 79, 96
7, 434432, Note_off_c, 5, 76, 0
7, 434432, Note_on_c, 5, 79, 96
7, 434688, Note_off_c, 5, 79, 0
7, 434688, Note_on_c, 5, 84, 96
7, 434688, Note_off_c, 5, 79, 0
7, 434688, Note_on_c, 5, 84, 96
7, 434688, Note_on_c, 5, 69, 96
7, 434688, Note_off_c, 5, 67, 0
7, 434688, Note_off_c, 5, 64, 0
7, 434688, Note_on_c, 5, 65, 96
7, 434944, Note_off_c, 5, 84, 0
7, 434944, Note_on_c, 5, 82, 96
7, 434944, Note_off_c, 5, 84, 0
7, 434944, Note_on_c, 5, 82, 96
7, 435200, Note_off_c, 5, 82, 0
7, 435200, Note_on_c, 5, 81, 96
7, 435200, Note_off_c, 5, 82, 0
7, 435200, Note_on_c, 5, 81, 96
7, 435200, Note_off_c, 5, 67, 0
7, 435200, Note_on_c, 5, 65, 96
7, 435456, Note_off_c, 5, 81, 0
7, 435456, Note_on_c, 5, 82, 96
7, 435456, Note_off_c, 5, 81, 0
7, 435456, Note_on_c, 5, 82, 96
7, 435712, Note_off_c, 5, 82, 0
7, 435712, Note_on_c, 5, 79, 96
7, 435712, Note_off_c, 5, 82, 0
7, 435712, Note_on_c, 5, 79, 96
7, 435712, Note_off_c, 5, 65, 0
7, 435712, Note_on_c, 5, 63, 96
7, 435712, Note_off_c, 5, 65, 0
7, 435712, Note_on_c, 5, 66, 96
7, 435968, Note_off_c, 5, 79, 0
7, 435968, Note_on_c, 5, 81, 96
7, 435968, Note_off_c, 5, 79, 0
7, 435968, Note_on_c, 5, 81, 96
7, 436224, Note_off_c, 5, 81, 0
7, 436224, Note_off_c, 5, 81, 0
7, 436224, Note_off_c, 5, 63, 0
7, 436224, Note_off_c, 5, 66, 0
7, 436224, Note_on_c, 5, 82, 96
7, 436224, Note_on_c, 5, 82, 96
7, 436224, Note_on_c, 5, 62, 96
7, 436224, Note_on_c, 5, 67, 96
7, 436480, Note_off_c, 5, 82, 0
7, 436480, Note_on_c, 5, 77, 96
7, 436480, Note_off_c, 5, 82, 0
7, 436480, Note_on_c, 5, 77, 96
7, 436736, Note_off_c, 5, 77, 0
7, 436736, Note_on_c, 5, 76, 96
7, 436736, Note_off_c, 5, 77, 0
7, 436736, Note_on_c, 5, 76, 96
7, 436736, Note_off_c, 5, 69, 0
7, 436736, Note_on_c, 5, 67, 96
7, 436736, Note_off_c, 5, 67, 0
7, 436736, Note_on_c, 5, 69, 96
7, 436992, Note_off_c, 5, 76, 0
7, 436992, Note_on_c, 5, 77, 96
7, 436992, Note_off_c, 5, 76, 0
7, 436992, Note_on_c, 5, 77, 96
7, 437248, Note_off_c, 5, 77, 0
7, 437248, Note_on_c, 5, 74, 96
7, 437248, Note_off_c, 5, 77, 0
7, 437248, Note_on_c, 5, 74, 96
7, 437248, Note_off_c, 5, 67, 0
7, 437248, Note_on_c, 5, 65, 96
7, 437248, Note_off_c, 5, 62, 0
7, 437248, Note_on_c, 5, 62, 96
7, 437248, Note_off_c, 5, 69, 0
7, 437248, Note_on_c, 5, 70, 96
7, 437504, Note_off_c, 5, 74, 0
7, 437504, Note_on_c, 5, 77, 96
7, 437504, Note_off_c, 5, 74, 0
7, 437504, Note_on_c, 5, 77, 96
7, 437760, Note_off_c, 5, 77, 0
7, 437760, Note_on_c, 5, 82, 96
7, 437760, Note_off_c, 5, 77, 0
7, 437760, Note_on_c, 5, 82, 96
7, 437760, Note_off_c, 5, 65, 0
7, 437760, Note_on_c, 5, 67, 96
7, 437760, Note_off_c, 5, 62, 0
7, 437760, Note_on_c, 5, 61, 96
7, 437760, Note_off_c, 5, 70, 0
7, 437760, Note_on_c, 5, 64, 96
7, 438016, Note_off_c, 5, 82, 0
7, 438016, Note_on_c, 5, 76, 96
7, 438016, Note_off_c, 5, 82, 0
7, 438016, Note_on_c, 5, 76, 96
7, 438272, Note_off_c, 5, 76, 0
7, 438272, Note_on_c, 5, 74, 96
7, 438272, Note_off_c, 5, 76, 0
7, 438272, Note_on_c, 5, 74, 96
7, 438272, Note_off_c, 5, 61, 0
7, 438272, Note_on_c, 5, 62, 96
7, 438272, Note_off_c, 5, 64, 0
7, 438272, Note_on_c, 5, 65, 96
7, 438528, Note_off_c, 5, 74, 0
7, 438528, Note_on_c, 5, 76, 96
7, 438528, Note_off_c, 5, 74, 0
7, 438528, Note_on_c, 5, 76, 96
7, 438784, Note_off_c, 5, 76, 0
7, 438784, Note_on_c, 5, 73, 96
7, 438784, Note_off_c, 5, 76, 0
7, 438784, Note_on_c, 5, 73, 96
7, 438784, Note_off_c, 5, 62, 0
7, 438784, Note_on_c, 5, 64, 96
7, 438784, Note_off_c, 5, 65, 0
7, 438784, Note_on_c, 5, 67, 96
7, 439040, Note_off_c, 5, 73, 0
7, 439040, Note_on_c, 5, 76, 96
7, 439040, Note_off_c, 5, 73, 0
7, 439040, Note_on_c, 5, 76, 96
7, 439296, Note_off_c, 5, 76, 0
7, 439296, Note_on_c, 5, 69, 96
7, 439296, Note_off_c, 5, 76, 0
7, 439296, Note_on_c, 5, 69, 96
7, 439296, Note_off_c, 5, 64, 0
7, 439296, Note_on_c, 5, 64, 96
7, 439296, Note_off_c, 5, 67, 0
7, 439296, Note_on_c, 5, 61, 96
7, 439552, Note_off_c, 5, 69, 0
7, 439552, Note_on_c, 5, 76, 96
7, 439552, Note_off_c, 5, 69, 0
7, 439552, Note_on_c, 5, 76, 96
7, 439808, Note_off_c, 5, 76, 0
7, 439808, Note_on_c, 5, 74, 96
7, 439808, Note_off_c, 5, 76, 0
7, 439808, Note_on_c, 5, 74, 96
7, 439808, Note_off_c, 5, 67, 0
7, 439808, Note_on_c, 5, 65, 96
7, 440064, Note_off_c, 5, 74, 0
7, 440064, Note_on_c, 5, 76, 96
7, 440064, Note_off_c, 5, 74, 0
7, 440064, Note_on_c, 5, 76, 96
7, 440320, Note_off_c, 5, 76, 0
7, 440320, Note_on_c, 5, 73, 96
7, 440320, Note_off_c, 5, 76, 0
7, 440320, Note_on_c, 5, 73, 96
7, 440320, Note_off_c, 5, 65, 0
7, 440320, Note_on_c, 5, 64, 96
7, 440320, Note_off_c, 5, 64, 0
7, 440320, Note_on_c, 5, 57, 96
7, 440576, Note_off_c, 5, 73, 0
7, 440576, Note_on_c, 5, 76, 96
7, 440576, Note_off_c, 5, 73, 0
7, 440576, Note_on_c, 5, 76, 96
7, 440832, Note_off_c, 5, 76, 0
7, 440832, Note_on_c, 5, 81, 96
7, 440832, Note_off_c, 5, 76, 0
7, 440832, Note_on_c, 5, 81, 96
7, 440832, Note_off_c, 5, 64, 0
7, 440832, Note_on_c, 5, 65, 96
7, 440832, Note_off_c, 5, 57, 0
7, 440832, Note_on_c, 5, 62, 96
7, 440832, Note_off_c, 5, 61, 0
7, 440832, Note_on_c, 5, 62, 96
7, 441088, Note_off_c, 5, 81, 0
7, 441088, Note_on_c, 5, 74, 96
7, 441088, Note_off_c, 5, 81, 0
7, 441088, Note_on_c, 5, 74, 96
7, 441344, Note_off_c, 5, 74, 0
7, 441344, Note_on_c, 5, 72, 96
7, 441344, Note_off_c, 5, 74, 0
7, 441344, Note_on_c, 5, 72, 96
7, 441600, Note_off_c, 5, 72, 0
7, 441600, Note_on_c, 5, 74, 96
7, 441600, Note_off_c, 5, 72, 0
7, 441600, Note_on_c, 5, 74, 96
7, 441856, Note_off_c, 5, 74, 0
7, 441856, Note_on_c, 5, 69, 96
7, 441856, Note_off_c, 5, 74, 0
7, 441856, Note_on_c, 5, 69, 96
7, 441856, Note_off_c, 5, 62, 0
7, 441856, Note_on_c, 5, 53, 96
7, 442112, Note_off_c, 5, 69, 0
7, 442112, Note_on_c, 5, 74, 96
7, 442112, Note_off_c, 5, 69, 0
7, 442112, Note_on_c, 5, 74, 96
7, 442368, Note_off_c, 5, 74, 0
7, 442368, Note_off_c, 5, 74, 0
7, 442368, Note_off_c, 5, 53, 0
7, 442368, Note_on_c, 5, 67, 96
7, 442368, Note_on_c, 5, 67, 96
7, 442368, Note_on_c, 5, 58, 96
7, 442624, Note_off_c, 5, 67, 0
7, 442624, Note_on_c, 5, 74, 96
7, 442624, Note_off_c, 5, 67, 0
7, 442624, Note_on_c, 5, 74, 96
7, 442880, Note_off_c, 5, 74, 0
7, 442880, Note_on_c, 5, 72, 96
7, 442880, Note_off_c, 5, 74, 0
7, 442880, Note_on_c, 5, 72, 96
7, 442880, Note_off_c, 5, 65, 0
7, 442880, Note_on_c, 5, 67, 96
7, 442880, Note_off_c, 5, 62, 0
7, 442880, Note_on_c, 5, 64, 96
7, 443136, Note_off_c, 5, 72, 0
7, 443136, Note_on_c, 5, 74, 96
7, 443136, Note_off_c, 5, 72, 0
7, 443136, Note_on_c, 5, 74, 96
7, 443392, Note_off_c, 5, 74, 0
7, 443392, Note_on_c, 5, 70, 96
7, 443392, Note_off_c, 5, 74, 0
7, 443392, Note_on_c, 5, 70, 96
7, 443392, Note_off_c, 5, 67, 0
7, 443392, Note_on_c, 5, 69, 96
7, 443392, Note_off_c, 5, 64, 0
7, 443392, Note_on_c, 5, 65, 96
7, 443392, Note_off_c, 5, 58, 0
7, 443392, Note_on_c, 5, 57, 96
7, 443648, Note_off_c, 5, 70, 0
7, 443648, Note_on_c, 5, 74, 96
7, 443648, Note_off_c, 5, 70, 0
7, 443648, Note_on_c, 5, 74, 96
7, 443904, Note_off_c, 5, 74, 0
7, 443904, Note_on_c, 5, 77, 96
7, 443904, Note_off_c, 5, 74, 0
7, 443904, Note_on_c, 5, 77, 96
7, 443904, Note_off_c, 5, 69, 0
7, 443904, Note_on_c, 5, 70, 96
7, 443904, Note_off_c, 5, 65, 0
7, 443904, Note_on_c, 5, 67, 96
7, 443904, Note_off_c, 5, 57, 0
7, 443904, Note_on_c, 5, 55, 96
7, 444160, Note_off_c, 5, 77, 0
7, 444160, Note_on_c, 5, 74, 96
7, 444160, Note_off_c, 5, 77, 0
7, 444160, Note_on_c, 5, 74, 96
7, 444416, Note_off_c, 5, 74, 0
7, 444416, Note_on_c, 5, 72, 96
7, 444416, Note_off_c, 5, 74, 0
7, 444416, Note_on_c, 5, 72, 96
7, 444416, Note_off_c, 5, 55, 0
7, 444416, Note_on_c, 5, 57, 96
7, 444672, Note_off_c, 5, 72, 0
7, 444672, Note_on_c, 5, 74, 96
7, 444672, Note_off_c, 5, 72, 0
7, 444672, Note_on_c, 5, 74, 96
7, 444928, Note_off_c, 5, 74, 0
7, 444928, Note_on_c, 5, 70, 96
7, 444928, Note_off_c, 5, 74, 0
7, 444928, Note_on_c, 5, 70, 96
7, 444928, Note_off_c, 5, 67, 0
7, 444928, Note_on_c, 5, 65, 96
7, 444928, Note_off_c, 5, 57, 0
7, 444928, Note_on_c, 5, 58, 96
7, 445184, Note_off_c, 5, 70, 0
7, 445184, Note_on_c, 5, 74, 96
7, 445184, Note_off_c, 5, 70, 0
7, 445184, Note_on_c, 5, 74, 96
7, 445440, Note_off_c, 5, 74, 0
7, 445440, Note_on_c, 5, 67, 96
7, 445440, Note_off_c, 5, 74, 0
7, 445440, Note_on_c, 5, 67, 96
7, 445440, Note_off_c, 5, 65, 0
7, 445440, Note_on_c, 5, 64, 96
7, 445440, Note_off_c, 5, 58, 0
7, 445440, Note_on_c, 5, 60, 96
7, 445696, Note_off_c, 5, 67, 0
7, 445696, Note_on_c, 5, 72, 96
7, 445696, Note_off_c, 5, 67, 0
7, 445696, Note_on_c, 5, 72, 96
7, 445952, Note_off_c, 5, 72, 0
7, 445952, Note_on_c, 5, 70, 96
7, 445952, Note_off_c, 5, 72, 0
7, 445952, Note_on_c, 5, 70, 96
7, 445952, Note_off_c, 5, 70, 0
7, 445952, Note_on_c, 5, 67, 96
7, 446208, Note_off_c, 5, 70, 0
7, 446208, Note_on_c, 5, 72, 96
7, 446208, Note_off_c, 5, 70, 0
7, 446208, Note_on_c, 5, 72, 96
7, 446464, Note_off_c, 5, 72, 0
7, 446464, Note_on_c, 5, 67, 96
7, 446464, Note_off_c, 5, 72, 0
7, 446464, Note_on_c, 5, 67, 96
7, 446464, Note_off_c, 5, 67, 0
7, 446464, Note_on_c, 5, 65, 96
7, 446464, Note_off_c, 5, 64, 0
7, 446464, Note_on_c, 5, 62, 96
7, 446464, Note_off_c, 5, 60, 0
7, 446464, Note_on_c, 5, 48, 96
7, 446720, Note_off_c, 5, 67, 0
7, 446720, Note_on_c, 5, 72, 96
7, 446720, Note_off_c, 5, 67, 0
7, 446720, Note_on_c, 5, 72, 96
7, 446976, Note_off_c, 5, 72, 0
7, 446976, Note_on_c, 5, 76, 96
7, 446976, Note_off_c, 5, 72, 0
7, 446976, Note_on_c, 5, 76, 96
7, 446976, Note_off_c, 5, 65, 0
7, 446976, Note_on_c, 5, 64, 96
7, 446976, Note_off_c, 5, 62, 0
7, 446976, Note_on_c, 5, 60, 96
7, 446976, Note_off_c, 5, 48, 0
7, 446976, Note_on_c, 5, 60, 96
7, 447232, Note_off_c, 5, 76, 0
7, 447232, Note_on_c, 5, 72, 96
7, 447232, Note_off_c, 5, 76, 0
7, 447232, Note_on_c, 5, 72, 96
7, 447488, Note_off_c, 5, 72, 0
7, 447488, Note_on_c, 5, 70, 96
7, 447488, Note_off_c, 5, 72, 0
7, 447488, Note_on_c, 5, 70, 96
7, 447744, Note_off_c, 5, 70, 0
7, 447744, Note_on_c, 5, 72, 96
7, 447744, Note_off_c, 5, 70, 0
7, 447744, Note_on_c, 5, 72, 96
7, 448000, Note_off_c, 5, 72, 0
7, 448000, Note_on_c, 5, 67, 96
7, 448000, Note_off_c, 5, 72, 0
7, 448000, Note_on_c, 5, 67, 96
7, 448000, Note_off_c, 5, 60, 0
7, 448000, Note_on_c, 5, 58, 96
7, 448256, Note_off_c, 5, 67, 0
7, 448256, Note_on_c, 5, 72, 96
7, 448256, Note_off_c, 5, 67, 0
7, 448256, Note_on_c, 5, 72, 96
7, 448512, Note_off_c, 5, 72, 0
7, 448512, Note_off_c, 5, 72, 0
7, 448512, Note_off_c, 5, 64, 0
7, 448512, Note_off_c, 5, 58, 0
7, 448512, Note_on_c, 5, 65, 96
7, 448512, Note_on_c, 5, 65, 96
7, 448512, Note_on_c, 5, 65, 96
7, 448512, Note_on_c, 5, 57, 96
7, 448768, Note_off_c, 5, 65, 0
7, 448768, Note_on_c, 5, 77, 96
7, 448768, Note_off_c, 5, 65, 0
7, 448768, Note_on_c, 5, 77, 96
7, 449024, Note_off_c, 5, 77, 0
7, 449024, Note_on_c, 5, 76, 96
7, 449024, Note_off_c, 5, 77, 0
7, 449024, Note_on_c, 5, 76, 96
7, 449024, Note_off_c, 5, 57, 0
7, 449024, Note_on_c, 5, 58, 96
7, 449280, Note_off_c, 5, 76, 0
7, 449280, Note_on_c, 5, 77, 96
7, 449280, Note_off_c, 5, 76, 0
7, 449280, Note_on_c, 5, 77, 96
7, 449536, Note_off_c, 5, 77, 0
7, 449536, Note_on_c, 5, 72, 96
7, 449536, Note_off_c, 5, 77, 0
7, 449536, Note_on_c, 5, 72, 96
7, 449536, Note_off_c, 5, 65, 0
7, 449536, Note_on_c, 5, 69, 96
7, 449536, Note_off_c, 5, 60, 0
7, 449536, Note_on_c, 5, 60, 96
7, 449536, Note_off_c, 5, 58, 0
7, 449536, Note_on_c, 5, 60, 96
7, 449792, Note_off_c, 5, 72, 0
7, 449792, Note_on_c, 5, 77, 96
7, 449792, Note_off_c, 5, 72, 0
7, 449792, Note_on_c, 5, 77, 96
7, 450048, Note_off_c, 5, 77, 0
7, 450048, Note_on_c, 5, 81, 96
7, 450048, Note_off_c, 5, 77, 0
7, 450048, Note_on_c, 5, 81, 96
7, 450048, Note_off_c, 5, 69, 0
7, 450048, Note_on_c, 5, 72, 96
7, 450048, Note_off_c, 5, 60, 0
7, 450048, Note_on_c, 5, 63, 96
7, 450048, Note_off_c, 5, 60, 0
7, 450048, Note_on_c, 5, 53, 96
7, 450304, Note_off_c, 5, 81, 0
7, 450304, Note_on_c, 5, 77, 96
7, 450304, Note_off_c, 5, 81, 0
7, 450304, Note_on_c, 5, 77, 96
7, 450560, Note_off_c, 5, 77, 0
7, 450560, Note_on_c, 5, 76, 96
7, 450560, Note_off_c, 5, 77, 0
7, 450560, Note_on_c, 5, 76, 96
7, 450560, Note_off_c, 5, 53, 0
7, 450560, Note_on_c, 5, 55, 96
7, 450816, Note_off_c, 5, 76, 0
7, 450816, Note_on_c, 5, 77, 96
7, 450816, Note_off_c, 5, 76, 0
7, 450816, Note_on_c, 5, 77, 96
7, 451072, Note_off_c, 5, 77, 0
7, 451072, Note_on_c, 5, 72, 96
7, 451072, Note_off_c, 5, 77, 0
7, 451072, Note_on_c, 5, 72, 96
7, 451072, Note_off_c, 5, 63, 0
7, 451072, Note_on_c, 5, 65, 96
7, 451072, Note_off_c, 5, 55, 0
7, 451072, Note_on_c, 5, 57, 96
7, 451328, Note_off_c, 5, 72, 0
7, 451328, Note_on_c, 5, 77, 96
7, 451328, Note_off_c, 5, 72, 0
7, 451328, Note_on_c, 5, 77, 96
7, 451584, Note_off_c, 5, 77, 0
7, 451584, Note_on_c, 5, 70, 96
7, 451584, Note_off_c, 5, 77, 0
7, 451584, Note_on_c, 5, 70, 96
7, 451584, Note_off_c, 5, 65, 0
7, 451584, Note_on_c, 5, 64, 96
7, 451584, Note_off_c, 5, 57, 0
7, 451584, Note_on_c, 5, 58, 96
7, 451840, Note_off_c, 5, 70, 0
7, 451840, Note_on_c, 5, 67, 96
7, 451840, Note_off_c, 5, 70, 0
7, 451840, Note_on_c, 5, 67, 96
7, 452096, Note_off_c, 5, 67, 0
7, 452096, Note_on_c, 5, 65, 96
7, 452096, Note_off_c, 5, 67, 0
7, 452096, Note_on_c, 5, 65, 96
7, 452096, Note_off_c, 5, 72, 0
7, 452096, Note_on_c, 5, 70, 96
7, 452096, Note_off_c, 5, 64, 0
7, 452096, Note_on_c, 5, 62, 96
7, 452352, Note_off_c, 5, 65, 0
7, 452352, Note_on_c, 5, 67, 96
7, 452352, Note_off_c, 5, 65, 0
7, 452352, Note_on_c, 5, 67, 96
7, 452608, Note_off_c, 5, 67, 0
7, 452608, Note_on_c, 5, 63, 96
7, 452608, Note_off_c, 5, 67, 0
7, 452608, Note_on_c, 5, 63, 96
7, 452608, Note_off_c, 5, 70, 0
7, 452608, Note_on_c, 5, 69, 96
7, 452608, Note_off_c, 5, 62, 0
7, 452608, Note_on_c, 5, 60, 96
7, 452608, Note_off_c, 5, 58, 0
7, 452608, Note_on_c, 5, 53, 96
7, 452864, Note_off_c, 5, 63, 0
7, 452864, Note_on_c, 5, 65, 96
7, 452864, Note_off_c, 5, 63, 0
7, 452864, Note_on_c, 5, 65, 96
7, 453120, Note_off_c, 5, 65, 0
7, 453120, Note_on_c, 5, 74, 96
7, 453120, Note_off_c, 5, 65, 0
7, 453120, Note_on_c, 5, 74, 96
7, 453120, Note_off_c, 5, 69, 0
7, 453120, Note_on_c, 5, 70, 96
7, 453120, Note_off_c, 5, 60, 0
7, 453120, Note_on_c, 5, 62, 96
7, 453120, Note_off_c, 5, 53, 0
7, 453120, Note_on_c, 5, 58, 96
7, 453376, Note_off_c, 5, 74, 0
7, 453376, Note_on_c, 5, 67, 96
7, 453376, Note_off_c, 5, 74, 0
7, 453376, Note_on_c, 5, 67, 96
7, 453632, Note_off_c, 5, 67, 0
7, 453632, Note_on_c, 5, 65, 96
7, 453632, Note_off_c, 5, 67, 0
7, 453632, Note_on_c, 5, 65, 96
7, 453632, Note_off_c, 5, 70, 0
7, 453632, Note_on_c, 5, 67, 96
7, 453632, Note_off_c, 5, 62, 0
7, 453632, Note_on_c, 5, 58, 96
7, 453632, Note_off_c, 5, 58, 0
7, 453632, Note_on_c, 5, 62, 96
7, 453888, Note_off_c, 5, 65, 0
7, 453888, Note_on_c, 5, 67, 96
7, 453888, Note_off_c, 5, 65, 0
7, 453888, Note_on_c, 5, 67, 96
7, 454144, Note_off_c, 5, 67, 0
7, 454144, Note_on_c, 5, 64, 96
7, 454144, Note_off_c, 5, 67, 0
7, 454144, Note_on_c, 5, 64, 96
7, 454144, Note_off_c, 5, 67, 0
7, 454144, Note_on_c, 5, 69, 96
7, 454144, Note_off_c, 5, 58, 0
7, 454144, Note_on_c, 5, 60, 96
7, 454144, Note_off_c, 5, 62, 0
7, 454144, Note_on_c, 5, 64, 96
7, 454400, Note_off_c, 5, 64, 0
7, 454400, Note_on_c, 5, 65, 96
7, 454400, Note_off_c, 5, 64, 0
7, 454400, Note_on_c, 5, 65, 96
7, 454656, Note_off_c, 5, 65, 0
7, 454656, Note_off_c, 5, 65, 0
7, 454656, Note_off_c, 5, 69, 0
7, 454656, Note_off_c, 5, 60, 0
7, 454656, Note_off_c, 5, 64, 0
7, 454656, Note_on_c, 5, 69, 96
7, 454656, Note_on_c, 5, 69, 96
7, 454656, Note_on_c, 5, 69, 96
7, 454656, Note_on_c, 5, 60, 96
7, 454656, Note_on_c, 5, 65, 96
7, 455680, Note_off_c, 5, 69, 0
7, 455680, Note_on_c, 5, 69, 96
7, 455680, Note_off_c, 5, 69, 0
7, 455680, Note_off_c, 5, 69, 0
7, 455680, Note_off_c, 5, 60, 0
7, 455680, Note_off_c, 5, 65, 0
7, 456192, Note_off_c, 5, 69, 0
7, 456192, Note_on_c, 5, 81, 96
7, 456448, Note_on_c, 5, 65, 96
7, 456704, Note_off_c, 5, 65, 0
7, 456704, Note_on_c, 5, 64, 96
7, 456960, Note_off_c, 5, 64, 0
7, 456960, Note_on_c, 5, 65, 96
7, 457216, Note_off_c, 5, 81, 0
7, 457216, Note_on_c, 5, 82, 96
7, 457216, Note_off_c, 5, 65, 0
7, 457216, Note_on_c, 5, 62, 96
7, 457216, Note_on_c, 5, 74, 96
7, 457216, Note_on_c, 5, 65, 96
7, 457216, Note_on_c, 5, 62, 96
7, 457472, Note_off_c, 5, 62, 0
7, 457472, Note_on_c, 5, 65, 96
7, 457728, Note_off_c, 5, 82, 0
7, 457728, Note_on_c, 5, 79, 96
7, 457728, Note_off_c, 5, 65, 0
7, 457728, Note_on_c, 5, 71, 96
7, 457728, Note_off_c, 5, 74, 0
7, 457728, Note_on_c, 5, 71, 96
7, 457728, Note_off_c, 5, 65, 0
7, 457728, Note_on_c, 5, 67, 96
7, 457728, Note_off_c, 5, 62, 0
7, 457728, Note_on_c, 5, 62, 96
7, 457984, Note_off_c, 5, 71, 0
7, 457984, Note_on_c, 5, 67, 96
7, 458240, Note_off_c, 5, 67, 0
7, 458240, Note_on_c, 5, 65, 96
7, 458240, Note_off_c, 5, 71, 0
7, 458240, Note_off_c, 5, 67, 0
7, 458240, Note_off_c, 5, 62, 0
7, 458496, Note_off_c, 5, 65, 0
7, 458496, Note_on_c, 5, 67, 96
7, 458752, Note_off_c, 5, 79, 0
7, 458752, Note_on_c, 5, 77, 96
7, 458752, Note_off_c, 5, 67, 0
7, 458752, Note_on_c, 5, 62, 96
7, 459008, Note_off_c, 5, 62, 0
7, 459008, Note_on_c, 5, 71, 96
7, 459264, Note_off_c, 5, 77, 0
7, 459264, Note_on_c, 5, 79, 96
7, 459264, Note_off_c, 5, 71, 0
7, 459264, Note_on_c, 5, 73, 96
7, 459264, Note_on_c, 5, 73, 96
7, 459264, Note_on_c, 5, 67, 96
7, 459264, Note_on_c, 5, 64, 96
7, 459520, Note_off_c, 5, 73, 0
7, 459520, Note_on_c, 5, 67, 96
7, 459776, Note_off_c, 5, 79, 0
7, 459776, Note_on_c, 5, 82, 96
7, 459776, Note_off_c, 5, 67, 0
7, 459776, Note_on_c, 5, 65, 96
7, 459776, Note_off_c, 5, 73, 0
7, 459776, Note_off_c, 5, 67, 0
7, 459776, Note_off_c, 5, 64, 0
7, 460032, Note_off_c, 5, 65, 0
7, 460032, Note_on_c, 5, 67, 96
7, 460288, Note_off_c, 5, 82, 0
7, 460288, Note_on_c, 5, 81, 96
7, 460288, Note_off_c, 5, 67, 0
7, 460288, Note_on_c, 5, 64, 96
7, 460544, Note_off_c, 5, 64, 0
7, 460544, Note_on_c, 5, 73, 96
7, 460800, Note_off_c, 5, 81, 0
7, 460800, Note_off_c, 5, 73, 0
7, 460800, Note_on_c, 5, 77, 96
7, 460800, Note_on_c, 5, 74, 96
7, 460800, Note_on_c, 5, 74, 96
7, 460800, Note_on_c, 5, 69, 96
7, 460800, Note_on_c, 5, 65, 96
7, 461312, Note_off_c, 5, 74, 0
7, 461312, Note_on_c, 5, 62, 96
7, 461312, Note_off_c, 5, 74, 0
7, 461312, Note_off_c, 5, 69, 0
7, 461312, Note_off_c, 5, 65, 0
7, 461824, Note_off_c, 5, 77, 0
7, 461824, Note_off_c, 5, 62, 0
7, 461824, Note_on_c, 5, 69, 96
7, 462336, Note_off_c, 5, 69, 0
7, 462336, Note_on_c, 5, 74, 96
7, 462592, Note_on_c, 5, 70, 96
7, 462848, Note_off_c, 5, 70, 0
7, 462848, Note_on_c, 5, 69, 96
7, 463104, Note_off_c, 5, 69, 0
7, 463104, Note_on_c, 5, 70, 96
7, 463360, Note_off_c, 5, 70, 0
7, 463360, Note_on_c, 5, 67, 96
7, 463360, Note_off_c, 5, 74, 0
7, 463360, Note_on_c, 5, 75, 96
7, 463360, Note_on_c, 5, 79, 96
7, 463360, Note_on_c, 5, 70, 96
7, 463360, Note_on_c, 5, 67, 96
7, 463616, Note_off_c, 5, 67, 0
7, 463616, Note_on_c, 5, 70, 96
7, 463872, Note_off_c, 5, 70, 0
7, 463872, Note_on_c, 5, 76, 96
7, 463872, Note_off_c, 5, 75, 0
7, 463872, Note_on_c, 5, 72, 96
7, 463872, Note_off_c, 5, 79, 0
7, 463872, Note_on_c, 5, 76, 96
7, 463872, Note_off_c, 5, 70, 0
7, 463872, Note_on_c, 5, 72, 96
7, 463872, Note_off_c, 5, 67, 0
7, 463872, Note_on_c, 5, 67, 96
7, 464128, Note_off_c, 5, 76, 0
7, 464128, Note_on_c, 5, 72, 96
7, 464384, Note_off_c, 5, 72, 0
7, 464384, Note_on_c, 5, 70, 96
7, 464384, Note_off_c, 5, 76, 0
7, 464384, Note_off_c, 5, 72, 0
7, 464384, Note_off_c, 5, 67, 0
7, 464640, Note_off_c, 5, 70, 0
7, 464640, Note_on_c, 5, 72, 96
7, 464896, Note_off_c, 5, 72, 0
7, 464896, Note_on_c, 5, 67, 96
7, 464896, Note_off_c, 5, 72, 0
7, 464896, Note_on_c, 5, 70, 96
7, 465152, Note_off_c, 5, 67, 0
7, 465152, Note_on_c, 5, 76, 96
7, 465408, Note_off_c, 5, 76, 0
7, 465408, Note_on_c, 5, 78, 96
7, 465408, Note_off_c, 5, 70, 0
7, 465408, Note_on_c, 5, 72, 96
7, 465408, Note_on_c, 5, 78, 96
7, 465408, Note_on_c, 5, 72, 96
7, 465408, Note_on_c, 5, 69, 96
7, 465664, Note_off_c, 5, 78, 0
7, 465664, Note_on_c, 5, 72, 96
7, 465920, Note_off_c, 5, 72, 0
7, 465920, Note_on_c, 5, 70, 96
7, 465920, Note_off_c, 5, 72, 0
7, 465920, Note_on_c, 5, 75, 96
7, 465920, Note_off_c, 5, 78, 0
7, 465920, Note_off_c, 5, 72, 0
7, 465920, Note_off_c, 5, 69, 0
7, 466176, Note_off_c, 5, 70, 0
7, 466176, Note_on_c, 5, 72, 96
7, 466432, Note_off_c, 5, 72, 0
7, 466432, Note_on_c, 5, 69, 96
7, 466432, Note_off_c, 5, 75, 0
7, 466432, Note_on_c, 5, 74, 96
7, 466688, Note_off_c, 5, 69, 0
7, 466688, Note_on_c, 5, 78, 96
7, 466944, Note_off_c, 5, 78, 0
7, 466944, Note_off_c, 5, 74, 0
7, 466944, Note_on_c, 5, 79, 96
7, 466944, Note_on_c, 5, 70, 96
7, 466944, Note_on_c, 5, 79, 96
7, 466944, Note_on_c, 5, 74, 96
7, 466944, Note_on_c, 5, 70, 96
7, 467456, Note_off_c, 5, 79, 0
7, 467456, Note_on_c, 5, 67, 96
7, 467456, Note_off_c, 5, 79, 0
7, 467456, Note_off_c, 5, 74, 0
7, 467456, Note_off_c, 5, 70, 0
7, 467968, Note_off_c, 5, 67, 0
7, 467968, Note_on_c, 5, 74, 96
7, 467968, Note_off_c, 5, 70, 0
7, 468480, Note_off_c, 5, 74, 0
7, 468480, Note_on_c, 5, 79, 96
7, 468736, Note_on_c, 5, 64, 96
7, 468992, Note_off_c, 5, 64, 0
7, 468992, Note_on_c, 5, 62, 96
7, 469248, Note_off_c, 5, 62, 0
7, 469248, Note_on_c, 5, 64, 96
7, 469504, Note_off_c, 5, 79, 0
7, 469504, Note_on_c, 5, 81, 96
7, 469504, Note_off_c, 5, 64, 0
7, 469504, Note_on_c, 5, 60, 96
7, 469504, Note_on_c, 5, 72, 96
7, 469504, Note_on_c, 5, 64, 96
7, 469504, Note_on_c, 5, 60, 96
7, 469760, Note_off_c, 5, 60, 0
7, 469760, Note_on_c, 5, 64, 96
7, 470016, Note_off_c, 5, 81, 0
7, 470016, Note_on_c, 5, 77, 96
7, 470016, Note_off_c, 5, 64, 0
7, 470016, Note_on_c, 5, 69, 96
7, 470016, Note_off_c, 5, 72, 0
7, 470016, Note_on_c, 5, 69, 96
7, 470016, Note_off_c, 5, 64, 0
7, 470016, Note_on_c, 5, 65, 96
7, 470016, Note_off_c, 5, 60, 0
7, 470016, Note_on_c, 5, 60, 96
7, 470272, Note_off_c, 5, 69, 0
7, 470272, Note_on_c, 5, 65, 96
7, 470528, Note_off_c, 5, 65, 0
7, 470528, Note_on_c, 5, 64, 96
7, 470528, Note_off_c, 5, 69, 0
7, 470528, Note_off_c, 5, 65, 0
7, 470528, Note_off_c, 5, 60, 0
7, 470784, Note_off_c, 5, 64, 0
7, 470784, Note_on_c, 5, 65, 96
7, 471040, Note_off_c, 5, 77, 0
7, 471040, Note_on_c, 5, 76, 96
7, 471040, Note_off_c, 5, 65, 0
7, 471040, Note_on_c, 5, 60, 96
7, 471296, Note_off_c, 5, 60, 0
7, 471296, Note_on_c, 5, 69, 96
7, 471552, Note_off_c, 5, 76, 0
7, 471552, Note_on_c, 5, 77, 96
7, 471552, Note_off_c, 5, 69, 0
7, 471552, Note_on_c, 5, 71, 96
7, 471552, Note_on_c, 5, 71, 96
7, 471552, Note_on_c, 5, 65, 96
7, 471552, Note_on_c, 5, 62, 96
7, 471808, Note_off_c, 5, 71, 0
7, 471808, Note_on_c, 5, 65, 96
7, 472064, Note_off_c, 5, 77, 0
7, 472064, Note_on_c, 5, 81, 96
7, 472064, Note_off_c, 5, 65, 0
7, 472064, Note_on_c, 5, 64, 96
7, 472064, Note_off_c, 5, 71, 0
7, 472064, Note_off_c, 5, 65, 0
7, 472064, Note_off_c, 5, 62, 0
7, 472320, Note_off_c, 5, 64, 0
7, 472320, Note_on_c, 5, 65, 96
7, 472576, Note_off_c, 5, 81, 0
7, 472576, Note_on_c, 5, 79, 96
7, 472576, Note_off_c, 5, 65, 0
7, 472576, Note_on_c, 5, 62, 96
7, 472832, Note_off_c, 5, 62, 0
7, 472832, Note_on_c, 5, 71, 96
7, 473088, Note_off_c, 5, 79, 0
7, 473088, Note_off_c, 5, 71, 0
7, 473088, Note_on_c, 5, 76, 96
7, 473088, Note_on_c, 5, 72, 96
7, 473088, Note_on_c, 5, 72, 96
7, 473088, Note_on_c, 5, 67, 96
7, 473088, Note_on_c, 5, 64, 96
7, 473600, Note_off_c, 5, 72, 0
7, 473600, Note_on_c, 5, 60, 96
7, 473600, Note_off_c, 5, 72, 0
7, 473600, Note_off_c, 5, 67, 0
7, 473600, Note_off_c, 5, 64, 0
7, 474112, Note_off_c, 5, 76, 0
7, 474112, Note_off_c, 5, 60, 0
7, 474112, Note_on_c, 5, 67, 96
7, 474624, Note_off_c, 5, 67, 0
7, 474624, Note_on_c, 5, 72, 96
7, 474880, Note_on_c, 5, 69, 96
7, 475136, Note_off_c, 5, 69, 0
7, 475136, Note_on_c, 5, 67, 96
7, 475392, Note_off_c, 5, 67, 0
7, 475392, Note_on_c, 5, 69, 96
7, 475648, Note_off_c, 5, 69, 0
7, 475648, Note_on_c, 5, 65, 96
7, 475648, Note_off_c, 5, 72, 0
7, 475648, Note_on_c, 5, 74, 96
7, 475648, Note_on_c, 5, 77, 96
7, 475648, Note_on_c, 5, 69, 96
7, 475648, Note_on_c, 5, 65, 96
7, 475904, Note_off_c, 5, 65, 0
7, 475904, Note_on_c, 5, 69, 96
7, 476160, Note_off_c, 5, 69, 0
7, 476160, Note_on_c, 5, 74, 96
7, 476160, Note_off_c, 5, 74, 0
7, 476160, Note_on_c, 5, 70, 96
7, 476160, Note_off_c, 5, 77, 0
7, 476160, Note_on_c, 5, 74, 96
7, 476160, Note_off_c, 5, 69, 0
7, 476160, Note_on_c, 5, 70, 96
7, 476160, Note_off_c, 5, 65, 0
7, 476160, Note_on_c, 5, 65, 96
7, 476416, Note_off_c, 5, 74, 0
7, 476416, Note_on_c, 5, 70, 96
7, 476672, Note_off_c, 5, 70, 0
7, 476672, Note_on_c, 5, 69, 96
7, 476672, Note_off_c, 5, 74, 0
7, 476672, Note_off_c, 5, 70, 0
7, 476672, Note_off_c, 5, 65, 0
7, 476928, Note_off_c, 5, 69, 0
7, 476928, Note_on_c, 5, 70, 96
7, 477184, Note_off_c, 5, 70, 0
7, 477184, Note_on_c, 5, 65, 96
7, 477184, Note_off_c, 5, 70, 0
7, 477184, Note_on_c, 5, 69, 96
7, 477440, Note_off_c, 5, 65, 0
7, 477440, Note_on_c, 5, 74, 96
7, 477696, Note_off_c, 5, 74, 0
7, 477696, Note_on_c, 5, 76, 96
7, 477696, Note_off_c, 5, 69, 0
7, 477696, Note_on_c, 5, 70, 96
7, 477696, Note_on_c, 5, 76, 96
7, 477696, Note_on_c, 5, 70, 96
7, 477696, Note_on_c, 5, 67, 96
7, 477952, Note_off_c, 5, 76, 0
7, 477952, Note_on_c, 5, 70, 96
7, 478208, Note_off_c, 5, 70, 0
7, 478208, Note_on_c, 5, 69, 96
7, 478208, Note_off_c, 5, 70, 0
7, 478208, Note_on_c, 5, 74, 96
7, 478208, Note_off_c, 5, 76, 0
7, 478208, Note_off_c, 5, 70, 0
7, 478208, Note_off_c, 5, 67, 0
7, 478464, Note_off_c, 5, 69, 0
7, 478464, Note_on_c, 5, 70, 96
7, 478720, Note_off_c, 5, 70, 0
7, 478720, Note_on_c, 5, 67, 96
7, 478720, Note_off_c, 5, 74, 0
7, 478720, Note_on_c, 5, 72, 96
7, 478976, Note_off_c, 5, 67, 0
7, 478976, Note_on_c, 5, 76, 96
7, 479232, Note_off_c, 5, 76, 0
7, 479232, Note_off_c, 5, 72, 0
7, 479232, Note_on_c, 5, 77, 96
7, 479232, Note_on_c, 5, 69, 96
7, 479232, Note_on_c, 5, 77, 96
7, 479232, Note_on_c, 5, 72, 96
7, 479232, Note_on_c, 5, 69, 96
7, 479744, Note_off_c, 5, 77, 0
7, 479744, Note_on_c, 5, 82, 96
7, 479744, Note_off_c, 5, 69, 0
7, 479744, Note_on_c, 5, 74, 96
7, 479744, Note_off_c, 5, 77, 0
7, 479744, Note_on_c, 5, 82, 96
7, 479744, Note_off_c, 5, 72, 0
7, 479744, Note_on_c, 5, 79, 96
7, 479744, Note_off_c, 5, 69, 0
7, 479744, Note_on_c, 5, 67, 96
7, 480000, Note_off_c, 5, 82, 0
7, 480000, Note_on_c, 5, 81, 96
7, 480000, Note_off_c, 5, 82, 0
7, 480000, Note_on_c, 5, 81, 96
7, 480256, Note_off_c, 5, 81, 0
7, 480256, Note_on_c, 5, 82, 96
7, 480256, Note_off_c, 5, 74, 0
7, 480256, Note_off_c, 5, 81, 0
7, 480256, Note_on_c, 5, 82, 96
7, 480256, Note_off_c, 5, 79, 0
7, 480256, Note_off_c, 5, 67, 0
7, 480256, Note_on_c, 5, 62, 96
7, 480768, Note_off_c, 5, 82, 0
7, 480768, Note_on_c, 5, 76, 96
7, 480768, Note_on_c, 5, 72, 96
7, 480768, Note_off_c, 5, 82, 0
7, 480768, Note_on_c, 5, 76, 96
7, 480768, Note_on_c, 5, 72, 96
7, 480768, Note_off_c, 5, 62, 0
7, 480768, Note_on_c, 5, 69, 96
7, 481280, Note_off_c, 5, 76, 0
7, 481280, Note_on_c, 5, 81, 96
7, 481280, Note_off_c, 5, 72, 0
7, 481280, Note_on_c, 5, 77, 96
7, 481280, Note_off_c, 5, 76, 0
7, 481280, Note_on_c, 5, 81, 96
7, 481280, Note_off_c, 5, 72, 0
7, 481280, Note_on_c, 5, 76, 96
7, 481536, Note_off_c, 5, 77, 0
7, 481536, Note_on_c, 5, 76, 96
7, 481536, Note_off_c, 5, 76, 0
7, 481536, Note_on_c, 5, 74, 96
7, 481792, Note_off_c, 5, 81, 0
7, 481792, Note_off_c, 5, 76, 0
7, 481792, Note_on_c, 5, 77, 96
7, 481792, Note_off_c, 5, 81, 0
7, 481792, Note_off_c, 5, 74, 0
7, 481792, Note_on_c, 5, 76, 96
7, 481792, Note_off_c, 5, 69, 0
7, 481792, Note_on_c, 5, 62, 96
7, 482304, Note_on_c, 5, 74, 96
7, 482304, Note_off_c, 5, 77, 0
7, 482304, Note_on_c, 5, 70, 96
7, 482304, Note_on_c, 5, 74, 96
7, 482304, Note_off_c, 5, 76, 0
7, 482304, Note_on_c, 5, 70, 96
7, 482304, Note_off_c, 5, 62, 0
7, 482304, Note_on_c, 5, 67, 96
7, 482816, Note_off_c, 5, 74, 0
7, 482816, Note_on_c, 5, 79, 96
7, 482816, Note_off_c, 5, 70, 0
7, 482816, Note_on_c, 5, 76, 96
7, 482816, Note_off_c, 5, 74, 0
7, 482816, Note_on_c, 5, 79, 96
7, 482816, Note_off_c, 5, 70, 0
7, 482816, Note_on_c, 5, 76, 96
7, 483072, Note_off_c, 5, 79, 0
7, 483072, Note_on_c, 5, 77, 96
7, 483072, Note_off_c, 5, 79, 0
7, 483072, Note_on_c, 5, 77, 96
7, 483328, Note_off_c, 5, 77, 0
7, 483328, Note_on_c, 5, 79, 96
7, 483328, Note_off_c, 5, 76, 0
7, 483328, Note_off_c, 5, 77, 0
7, 483328, Note_on_c, 5, 79, 96
7, 483328, Note_off_c, 5, 76, 0
7, 483328, Note_off_c, 5, 67, 0
7, 483328, Note_on_c, 5, 60, 96
7, 483840, Note_off_c, 5, 79, 0
7, 483840, Note_on_c, 5, 72, 96
7, 483840, Note_on_c, 5, 69, 96
7, 483840, Note_off_c, 5, 79, 0
7, 483840, Note_on_c, 5, 72, 96
7, 483840, Note_on_c, 5, 69, 96
7, 483840, Note_off_c, 5, 60, 0
7, 483840, Note_on_c, 5, 65, 96
7, 484352, Note_off_c, 5, 72, 0
7, 484352, Note_on_c, 5, 77, 96
7, 484352, Note_off_c, 5, 69, 0
7, 484352, Note_on_c, 5, 74, 96
7, 484352, Note_off_c, 5, 72, 0
7, 484352, Note_on_c, 5, 77, 96
7, 484352, Note_off_c, 5, 69, 0
7, 484352, Note_on_c, 5, 74, 96
7, 484608, Note_off_c, 5, 74, 0
7, 484608, Note_on_c, 5, 72, 96
7, 484608, Note_off_c, 5, 74, 0
7, 484608, Note_on_c, 5, 72, 96
7, 484864, Note_off_c, 5, 77, 0
7, 484864, Note_off_c, 5, 72, 0
7, 484864, Note_on_c, 5, 74, 96
7, 484864, Note_off_c, 5, 77, 0
7, 484864, Note_off_c, 5, 72, 0
7, 484864, Note_on_c, 5, 74, 96
7, 484864, Note_off_c, 5, 65, 0
7, 484864, Note_on_c, 5, 58, 96
7, 485376, Note_off_c, 5, 74, 0
7, 485376, Note_off_c, 5, 74, 0
7, 485376, Note_off_c, 5, 58, 0
7, 485376, Note_on_c, 5, 71, 96
7, 485376, Note_on_c, 5, 67, 96
7, 485376, Note_on_c, 5, 71, 96
7, 485376, Note_on_c, 5, 67, 96
7, 485376, Note_on_c, 5, 64, 96
7, 485888, Note_off_c, 5, 71, 0
7, 485888, Note_on_c, 5, 76, 96
7, 485888, Note_off_c, 5, 67, 0
7, 485888, Note_on_c, 5, 69, 96
7, 485888, Note_off_c, 5, 71, 0
7, 485888, Note_on_c, 5, 76, 96
7, 485888, Note_off_c, 5, 67, 0
7, 485888, Note_on_c, 5, 69, 96
7, 486144, Note_off_c, 5, 76, 0
7, 486144, Note_on_c, 5, 74, 96
7, 486144, Note_off_c, 5, 76, 0
7, 486144, Note_on_c, 5, 74, 96
7, 486400, Note_off_c, 5, 74, 0
7, 486400, Note_on_c, 5, 76, 96
7, 486400, Note_off_c, 5, 69, 0
7, 486400, Note_off_c, 5, 74, 0
7, 486400, Note_on_c, 5, 76, 96
7, 486400, Note_off_c, 5, 69, 0
7, 486400, Note_off_c, 5, 64, 0
7, 486400, Note_on_c, 5, 57, 96
7, 486912, Note_off_c, 5, 76, 0
7, 486912, Note_on_c, 5, 69, 96
7, 486912, Note_on_c, 5, 65, 96
7, 486912, Note_off_c, 5, 76, 0
7, 486912, Note_on_c, 5, 69, 96
7, 486912, Note_on_c, 5, 65, 96
7, 486912, Note_off_c, 5, 57, 0
7, 486912, Note_on_c, 5, 62, 96
7, 487424, Note_off_c, 5, 69, 0
7, 487424, Note_on_c, 5, 74, 96
7, 487424, Note_off_c, 5, 65, 0
7, 487424, Note_on_c, 5, 70, 96
7, 487424, Note_off_c, 5, 69, 0
7, 487424, Note_on_c, 5, 74, 96
7, 487424, Note_off_c, 5, 65, 0
7, 487424, Note_on_c, 5, 70, 96
7, 487680, Note_off_c, 5, 70, 0
7, 487680, Note_on_c, 5, 69, 96
7, 487680, Note_off_c, 5, 70, 0
7, 487680, Note_on_c, 5, 69, 96
7, 487936, Note_off_c, 5, 74, 0
7, 487936, Note_off_c, 5, 69, 0
7, 487936, Note_on_c, 5, 70, 96
7, 487936, Note_off_c, 5, 74, 0
7, 487936, Note_off_c, 5, 69, 0
7, 487936, Note_on_c, 5, 70, 96
7, 487936, Note_off_c, 5, 62, 0
7, 487936, Note_on_c, 5, 55, 96
7, 488448, Note_off_c, 5, 70, 0
7, 488448, Note_on_c, 5, 64, 96
7, 488448, Note_on_c, 5, 73, 96
7, 488448, Note_off_c, 5, 70, 0
7, 488448, Note_on_c, 5, 64, 96
7, 488448, Note_off_c, 5, 55, 0
7, 488448, Note_on_c, 5, 57, 96
7, 488704, Note_on_c, 5, 76, 96
7, 488704, Note_off_c, 5, 64, 0
7, 488704, Note_on_c, 5, 73, 96
7, 488960, Note_off_c, 5, 76, 0
7, 488960, Note_on_c, 5, 74, 96
7, 488960, Note_off_c, 5, 73, 0
7, 488960, Note_on_c, 5, 71, 96
7, 488960, Note_off_c, 5, 73, 0
7, 488960, Note_on_c, 5, 73, 96
7, 488960, Note_off_c, 5, 64, 0
7, 488960, Note_on_c, 5, 69, 96
7, 488960, Note_off_c, 5, 57, 0
7, 488960, Note_on_c, 5, 64, 96
7, 489216, Note_off_c, 5, 74, 0
7, 489216, Note_on_c, 5, 76, 96
7, 489216, Note_off_c, 5, 71, 0
7, 489216, Note_on_c, 5, 73, 96
7, 489472, Note_off_c, 5, 76, 0
7, 489472, Note_on_c, 5, 73, 96
7, 489472, Note_off_c, 5, 73, 0
7, 489472, Note_on_c, 5, 69, 96
7, 489472, Note_off_c, 5, 73, 0
7, 489472, Note_on_c, 5, 73, 96
7, 489472, Note_off_c, 5, 69, 0
7, 489472, Note_on_c, 5, 69, 96
7, 489472, Note_off_c, 5, 64, 0
7, 489472, Note_on_c, 5, 64, 96
7, 489728, Note_off_c, 5, 73, 0
7, 489728, Note_on_c, 5, 76, 96
7, 489728, Note_off_c, 5, 69, 0
7, 489728, Note_on_c, 5, 73, 96
7, 489984, Note_off_c, 5, 76, 0
7, 489984, Note_on_c, 5, 79, 96
7, 489984, Note_off_c, 5, 73, 0
7, 489984, Note_on_c, 5, 76, 96
7, 489984, Note_off_c, 5, 73, 0
7, 489984, Note_on_c, 5, 73, 96
7, 489984, Note_off_c, 5, 69, 0
7, 489984, Note_on_c, 5, 69, 96
7, 489984, Note_off_c, 5, 64, 0
7, 489984, Note_on_c, 5, 64, 96
7, 490240, Note_off_c, 5, 79, 0
7, 490240, Note_on_c, 5, 76, 96
7, 490240, Note_off_c, 5, 76, 0
7, 490240, Note_on_c, 5, 73, 96
7, 490496, Note_off_c, 5, 76, 0
7, 490496, Note_on_c, 5, 74, 96
7, 490496, Note_off_c, 5, 73, 0
7, 490496, Note_on_c, 5, 71, 96
7, 490496, Note_off_c, 5, 73, 0
7, 490496, Note_on_c, 5, 73, 96
7, 490496, Note_off_c, 5, 69, 0
7, 490496, Note_on_c, 5, 69, 96
7, 490496, Note_off_c, 5, 64, 0
7, 490496, Note_on_c, 5, 64, 96
7, 490752, Note_off_c, 5, 74, 0
7, 490752, Note_on_c, 5, 76, 96
7, 490752, Note_off_c, 5, 71, 0
7, 490752, Note_on_c, 5, 73, 96
7, 491008, Note_off_c, 5, 76, 0
7, 491008, Note_on_c, 5, 73, 96
7, 491008, Note_off_c, 5, 73, 0
7, 491008, Note_on_c, 5, 69, 96
7, 491008, Note_off_c, 5, 73, 0
7, 491008, Note_on_c, 5, 73, 96
7, 491008, Note_off_c, 5, 69, 0
7, 491008, Note_on_c, 5, 69, 96
7, 491008, Note_off_c, 5, 64, 0
7, 491008, Note_on_c, 5, 64, 96
7, 491264, Note_off_c, 5, 73, 0
7, 491264, Note_on_c, 5, 76, 96
7, 491264, Note_off_c, 5, 69, 0
7, 491264, Note_on_c, 5, 73, 96
7, 491520, Note_off_c, 5, 76, 0
7, 491520, Note_off_c, 5, 73, 0
7, 491520, Note_off_c, 5, 73, 0
7, 491520, Note_off_c, 5, 69, 0
7, 491520, Note_off_c, 5, 64, 0
7, 491520, Note_on_c, 5, 69, 96
7, 491520, Note_on_c, 5, 74, 96
7, 491520, Note_on_c, 5, 74, 96
7, 491520, Note_on_c, 5, 69, 96
7, 491520, Note_on_c, 5, 65, 96
7, 491776, Note_off_c, 5, 69, 0
7, 491776, Note_on_c, 5, 74, 96
7, 491776, Note_off_c, 5, 74, 0
7, 491776, Note_on_c, 5, 65, 96
7, 492032, Note_off_c, 5, 74, 0
7, 492032, Note_on_c, 5, 73, 96
7, 492032, Note_off_c, 5, 65, 0
7, 492032, Note_on_c, 5, 64, 96
7, 492032, Note_off_c, 5, 74, 0
7, 492032, Note_on_c, 5, 74, 96
7, 492032, Note_off_c, 5, 69, 0
7, 492032, Note_on_c, 5, 69, 96
7, 492032, Note_off_c, 5, 65, 0
7, 492032, Note_on_c, 5, 65, 96
7, 492288, Note_off_c, 5, 73, 0
7, 492288, Note_on_c, 5, 74, 96
7, 492288, Note_off_c, 5, 64, 0
7, 492288, Note_on_c, 5, 65, 96
7, 492544, Note_off_c, 5, 74, 0
7, 492544, Note_on_c, 5, 69, 96
7, 492544, Note_off_c, 5, 65, 0
7, 492544, Note_on_c, 5, 62, 96
7, 492544, Note_off_c, 5, 74, 0
7, 492544, Note_on_c, 5, 74, 96
7, 492544, Note_off_c, 5, 69, 0
7, 492544, Note_on_c, 5, 69, 96
7, 492544, Note_off_c, 5, 65, 0
7, 492544, Note_on_c, 5, 65, 96
7, 492800, Note_off_c, 5, 69, 0
7, 492800, Note_on_c, 5, 74, 96
7, 492800, Note_off_c, 5, 62, 0
7, 492800, Note_on_c, 5, 65, 96
7, 493056, Note_off_c, 5, 74, 0
7, 493056, Note_on_c, 5, 77, 96
7, 493056, Note_off_c, 5, 65, 0
7, 493056, Note_on_c, 5, 69, 96
7, 493056, Note_off_c, 5, 74, 0
7, 493056, Note_on_c, 5, 74, 96
7, 493056, Note_off_c, 5, 69, 0
7, 493056, Note_on_c, 5, 69, 96
7, 493056, Note_off_c, 5, 65, 0
7, 493056, Note_on_c, 5, 65, 96
7, 493312, Note_off_c, 5, 77, 0
7, 493312, Note_on_c, 5, 74, 96
7, 493312, Note_off_c, 5, 69, 0
7, 493312, Note_on_c, 5, 65, 96
7, 493568, Note_off_c, 5, 74, 0
7, 493568, Note_on_c, 5, 73, 96
7, 493568, Note_off_c, 5, 65, 0
7, 493568, Note_on_c, 5, 64, 96
7, 493568, Note_off_c, 5, 74, 0
7, 493568, Note_on_c, 5, 74, 96
7, 493568, Note_off_c, 5, 69, 0
7, 493568, Note_on_c, 5, 69, 96
7, 493568, Note_off_c, 5, 65, 0
7, 493568, Note_on_c, 5, 65, 96
7, 493824, Note_off_c, 5, 73, 0
7, 493824, Note_on_c, 5, 74, 96
7, 493824, Note_off_c, 5, 64, 0
7, 493824, Note_on_c, 5, 65, 96
7, 494080, Note_off_c, 5, 74, 0
7, 494080, Note_on_c, 5, 69, 96
7, 494080, Note_off_c, 5, 65, 0
7, 494080, Note_on_c, 5, 62, 96
7, 494080, Note_off_c, 5, 74, 0
7, 494080, Note_on_c, 5, 74, 96
7, 494080, Note_off_c, 5, 69, 0
7, 494080, Note_on_c, 5, 69, 96
7, 494080, Note_off_c, 5, 65, 0
7, 494080, Note_on_c, 5, 65, 96
7, 494336, Note_off_c, 5, 69, 0
7, 494336, Note_on_c, 5, 74, 96
7, 494336, Note_off_c, 5, 62, 0
7, 494336, Note_on_c, 5, 65, 96
7, 494592, Note_off_c, 5, 74, 0
7, 494592, Note_on_c, 5, 67, 96
7, 494592, Note_off_c, 5, 65, 0
7, 494592, Note_on_c, 5, 61, 96
7, 494592, Note_off_c, 5, 74, 0
7, 494592, Note_on_c, 5, 76, 96
7, 494592, Note_off_c, 5, 69, 0
7, 494592, Note_on_c, 5, 73, 96
7, 494592, Note_off_c, 5, 65, 0
7, 494592, Note_on_c, 5, 69, 96
7, 494848, Note_off_c, 5, 67, 0
7, 494848, Note_on_c, 5, 73, 96
7, 494848, Note_off_c, 5, 61, 0
7, 494848, Note_on_c, 5, 64, 96
7, 495104, Note_off_c, 5, 73, 0
7, 495104, Note_on_c, 5, 71, 96
7, 495104, Note_off_c, 5, 64, 0
7, 495104, Note_on_c, 5, 62, 96
7, 495104, Note_off_c, 5, 76, 0
7, 495104, Note_on_c, 5, 76, 96
7, 495104, Note_off_c, 5, 73, 0
7, 495104, Note_on_c, 5, 73, 96
7, 495104, Note_off_c, 5, 69, 0
7, 495104, Note_on_c, 5, 69, 96
7, 495360, Note_off_c, 5, 71, 0
7, 495360, Note_on_c, 5, 73, 96
7, 495360, Note_off_c, 5, 62, 0
7, 495360, Note_on_c, 5, 64, 96
7, 495616, Note_off_c, 5, 73, 0
7, 495616, Note_on_c, 5, 67, 96
7, 495616, Note_off_c, 5, 64, 0
7, 495616, Note_on_c, 5, 61, 96
7, 495616, Note_off_c, 5, 76, 0
7, 495616, Note_on_c, 5, 76, 96
7, 495616, Note_off_c, 5, 73, 0
7, 495616, Note_on_c, 5, 73, 96
7, 495616, Note_off_c, 5, 69, 0
7, 495616, Note_on_c, 5, 69, 96
7, 495872, Note_off_c, 5, 67, 0
7, 495872, Note_on_c, 5, 73, 96
7, 495872, Note_off_c, 5, 61, 0
7, 495872, Note_on_c, 5, 64, 96
7, 496128, Note_off_c, 5, 73, 0
7, 496128, Note_on_c, 5, 76, 96
7, 496128, Note_off_c, 5, 64, 0
7, 496128, Note_on_c, 5, 67, 96
7, 496128, Note_off_c, 5, 76, 0
7, 496128, Note_on_c, 5, 76, 96
7, 496128, Note_off_c, 5, 73, 0
7, 496128, Note_on_c, 5, 73, 96
7, 496128, Note_off_c, 5, 69, 0
7, 496128, Note_on_c, 5, 69, 96
7, 496384, Note_off_c, 5, 76, 0
7, 496384, Note_on_c, 5, 73, 96
7, 496384, Note_off_c, 5, 67, 0
7, 496384, Note_on_c, 5, 64, 96
7, 496640, Note_off_c, 5, 73, 0
7, 496640, Note_on_c, 5, 71, 96
7, 496640, Note_off_c, 5, 64, 0
7, 496640, Note_on_c, 5, 62, 96
7, 496640, Note_off_c, 5, 76, 0
7, 496640, Note_on_c, 5, 76, 96
7, 496640, Note_off_c, 5, 73, 0
7, 496640, Note_on_c, 5, 73, 96
7, 496640, Note_off_c, 5, 69, 0
7, 496640, Note_on_c, 5, 69, 96
7, 496896, Note_off_c, 5, 71, 0
7, 496896, Note_on_c, 5, 73, 96
7, 496896, Note_off_c, 5, 62, 0
7, 496896, Note_on_c, 5, 64, 96
7, 497152, Note_off_c, 5, 73, 0
7, 497152, Note_on_c, 5, 67, 96
7, 497152, Note_off_c, 5, 64, 0
7, 497152, Note_on_c, 5, 61, 96
7, 497152, Note_off_c, 5, 76, 0
7, 497152, Note_on_c, 5, 76, 96
7, 497152, Note_off_c, 5, 73, 0
7, 497152, Note_on_c, 5, 73, 96
7, 497152, Note_off_c, 5, 69, 0
7, 497152, Note_on_c, 5, 69, 96
7, 497408, Note_off_c, 5, 67, 0
7, 497408, Note_on_c, 5, 73, 96
7, 497408, Note_off_c, 5, 61, 0
7, 497408, Note_on_c, 5, 64, 96
7, 497664, Note_off_c, 5, 73, 0
7, 497664, Note_off_c, 5, 64, 0
7, 497664, Note_off_c, 5, 76, 0
7, 497664, Note_off_c, 5, 73, 0
7, 497664, Note_off_c, 5, 69, 0
7, 497664, Note_on_c, 5, 65, 96
7, 497664, Note_on_c, 5, 62, 96
7, 497664, Note_on_c, 5, 77, 96
7, 497664, Note_on_c, 5, 69, 96
7, 497664, Note_on_c, 5, 65, 96
7, 498688, Note_off_c, 5, 65, 0
7, 498688, Note_on_c, 5, 69, 96
7, 498688, Note_off_c, 5, 62, 0
7, 498688, Note_on_c, 5, 69, 96
7, 498688, Note_off_c, 5, 77, 0
7, 498688, Note_on_c, 5, 69, 96
7, 498688, Note_off_c, 5, 69, 0
7, 498688, Note_off_c, 5, 65, 0
7, 499200, Note_off_c, 5, 69, 0
7, 499200, Note_on_c, 5, 74, 96
7, 499200, Note_off_c, 5, 69, 0
7, 499200, Note_on_c, 5, 74, 96
7, 499200, Note_off_c, 5, 69, 0
7, 499200, Note_on_c, 5, 74, 96
7, 500224, Note_on_c, 5, 67, 96
7, 500224, Note_on_c, 5, 70, 96
7, 500736, Note_off_c, 5, 67, 0
7, 500736, Note_on_c, 5, 65, 96
7, 500736, Note_off_c, 5, 70, 0
7, 500736, Note_on_c, 5, 69, 96
7, 501248, Note_off_c, 5, 74, 0
7, 501248, Note_on_c, 5, 79, 96
7, 501248, Note_off_c, 5, 74, 0
7, 501248, Note_on_c, 5, 79, 96
7, 501248, Note_off_c, 5, 74, 0
7, 501248, Note_on_c, 5, 79, 96
7, 501760, Note_off_c, 5, 79, 0
7, 501760, Note_on_c, 5, 76, 96
7, 501760, Note_off_c, 5, 79, 0
7, 501760, Note_on_c, 5, 76, 96
7, 501760, Note_off_c, 5, 79, 0
7, 501760, Note_on_c, 5, 76, 96
7, 501760, Note_off_c, 5, 65, 0
7, 501760, Note_on_c, 5, 70, 96
7, 501760, Note_off_c, 5, 69, 0
7, 501760, Note_on_c, 5, 70, 96
7, 502272, Note_off_c, 5, 76, 0
7, 502272, Note_on_c, 5, 73, 96
7, 502272, Note_off_c, 5, 76, 0
7, 502272, Note_on_c, 5, 73, 96
7, 502272, Note_off_c, 5, 76, 0
7, 502272, Note_on_c, 5, 73, 96
7, 502272, Note_off_c, 5, 70, 0
7, 502272, Note_on_c, 5, 69, 96
7, 502272, Note_off_c, 5, 70, 0
7, 502272, Note_on_c, 5, 64, 96
7, 502784, Note_off_c, 5, 69, 0
7, 502784, Note_on_c, 5, 67, 96
7, 502784, Note_off_c, 5, 64, 0
7, 502784, Note_on_c, 5, 69, 96
7, 503040, Note_off_c, 5, 67, 0
7, 503040, Note_on_c, 5, 65, 96
7, 503296, Note_off_c, 5, 73, 0
7, 503296, Note_on_c, 5, 74, 96
7, 503296, Note_off_c, 5, 73, 0
7, 503296, Note_on_c, 5, 74, 96
7, 503296, Note_off_c, 5, 73, 0
7, 503296, Note_on_c, 5, 74, 96
7, 503296, Note_off_c, 5, 65, 0
7, 503296, Note_on_c, 5, 67, 96
7, 503296, Note_off_c, 5, 69, 0
7, 503296, Note_on_c, 5, 69, 96
7, 503808, Note_off_c, 5, 74, 0
7, 503808, Note_off_c, 5, 74, 0
7, 503808, Note_off_c, 5, 74, 0
7, 503808, Note_off_c, 5, 67, 0
7, 503808, Note_off_c, 5, 69, 0
7, 503808, Note_on_c, 5, 74, 96
7, 503808, Note_on_c, 5, 74, 96
7, 503808, Note_on_c, 5, 74, 96
7, 503808, Note_on_c, 5, 65, 96
7, 503808, Note_on_c, 5, 69, 96
7, 504832, Note_off_c, 5, 74, 0
7, 504832, Note_off_c, 5, 74, 0
7, 504832, Note_off_c, 5, 74, 0
7, 504832, Note_off_c, 5, 65, 0
7, 504832, Note_off_c, 5, 69, 0
7, 510208, Note_on_c, 5, 77, 96
7, 510208, Note_on_c, 5, 77, 96
7, 510464, Note_off_c, 5, 77, 0
7, 510464, Note_on_c, 5, 76, 96
7, 510464, Note_off_c, 5, 77, 0
7, 510464, Note_on_c, 5, 76, 96
7, 510720, Note_off_c, 5, 76, 0
7, 510720, Note_on_c, 5, 77, 96
7, 510720, Note_off_c, 5, 76, 0
7, 510720, Note_on_c, 5, 77, 96
7, 510976, Note_off_c, 5, 77, 0
7, 510976, Note_on_c, 5, 72, 96
7, 510976, Note_off_c, 5, 77, 0
7, 510976, Note_on_c, 5, 72, 96
7, 510976, Note_on_c, 5, 65, 96
7, 510976, Note_on_c, 5, 60, 96
7, 510976, Note_on_c, 5, 57, 96
7, 511232, Note_off_c, 5, 72, 0
7, 511232, Note_on_c, 5, 77, 96
7, 511232, Note_off_c, 5, 72, 0
7, 511232, Note_on_c, 5, 77, 96
7, 511488, Note_off_c, 5, 77, 0
7, 511488, Note_on_c, 5, 81, 96
7, 511488, Note_off_c, 5, 77, 0
7, 511488, Note_on_c, 5, 81, 96
7, 511488, Note_off_c, 5, 65, 0
7, 511488, Note_on_c, 5, 65, 96
7, 511488, Note_off_c, 5, 60, 0
7, 511488, Note_on_c, 5, 60, 96
7, 511488, Note_off_c, 5, 57, 0
7, 511488, Note_on_c, 5, 57, 96
7, 511744, Note_off_c, 5, 81, 0
7, 511744, Note_on_c, 5, 77, 96
7, 511744, Note_off_c, 5, 81, 0
7, 511744, Note_on_c, 5, 77, 96
7, 512000, Note_off_c, 5, 77, 0
7, 512000, Note_on_c, 5, 76, 96
7, 512000, Note_off_c, 5, 77, 0
7, 512000, Note_on_c, 5, 76, 96
7, 512000, Note_off_c, 5, 65, 0
7, 512000, Note_on_c, 5, 65, 96
7, 512000, Note_off_c, 5, 60, 0
7, 512000, Note_on_c, 5, 60, 96
7, 512000, Note_off_c, 5, 57, 0
7, 512000, Note_on_c, 5, 57, 96
7, 512256, Note_off_c, 5, 76, 0
7, 512256, Note_on_c, 5, 77, 96
7, 512256, Note_off_c, 5, 76, 0
7, 512256, Note_on_c, 5, 77, 96
7, 512512, Note_off_c, 5, 77, 0
7, 512512, Note_on_c, 5, 72, 96
7, 512512, Note_off_c, 5, 77, 0
7, 512512, Note_on_c, 5, 72, 96
7, 512512, Note_off_c, 5, 65, 0
7, 512512, Note_on_c, 5, 65, 96
7, 512512, Note_off_c, 5, 60, 0
7, 512512, Note_on_c, 5, 60, 96
7, 512512, Note_off_c, 5, 57, 0
7, 512512, Note_on_c, 5, 57, 96
7, 512768, Note_off_c, 5, 72, 0
7, 512768, Note_on_c, 5, 77, 96
7, 512768, Note_off_c, 5, 72, 0
7, 512768, Note_on_c, 5, 77, 96
7, 513024, Note_off_c, 5, 77, 0
7, 513024, Note_on_c, 5, 69, 96
7, 513024, Note_off_c, 5, 77, 0
7, 513024, Note_on_c, 5, 69, 96
7, 513024, Note_off_c, 5, 65, 0
7, 513024, Note_on_c, 5, 65, 96
7, 513024, Note_off_c, 5, 60, 0
7, 513024, Note_on_c, 5, 60, 96
7, 513024, Note_off_c, 5, 57, 0
7, 513024, Note_on_c, 5, 57, 96
7, 513280, Note_off_c, 5, 69, 0
7, 513280, Note_on_c, 5, 77, 96
7, 513280, Note_off_c, 5, 69, 0
7, 513280, Note_on_c, 5, 77, 96
7, 513536, Note_off_c, 5, 77, 0
7, 513536, Note_on_c, 5, 76, 96
7, 513536, Note_off_c, 5, 77, 0
7, 513536, Note_on_c, 5, 76, 96
7, 513536, Note_off_c, 5, 65, 0
7, 513536, Note_on_c, 5, 65, 96
7, 513536, Note_off_c, 5, 60, 0
7, 513536, Note_on_c, 5, 60, 96
7, 513536, Note_off_c, 5, 57, 0
7, 513536, Note_on_c, 5, 57, 96
7, 513792, Note_off_c, 5, 76, 0
7, 513792, Note_on_c, 5, 77, 96
7, 513792, Note_off_c, 5, 76, 0
7, 513792, Note_on_c, 5, 77, 96
7, 514048, Note_off_c, 5, 77, 0
7, 514048, Note_on_c, 5, 72, 96
7, 514048, Note_off_c, 5, 77, 0
7, 514048, Note_on_c, 5, 72, 96
7, 514048, Note_off_c, 5, 65, 0
7, 514048, Note_on_c, 5, 65, 96
7, 514048, Note_off_c, 5, 60, 0
7, 514048, Note_on_c, 5, 60, 96
7, 514048, Note_off_c, 5, 57, 0
7, 514048, Note_on_c, 5, 57, 96
7, 514304, Note_off_c, 5, 72, 0
7, 514304, Note_on_c, 5, 77, 96
7, 514304, Note_off_c, 5, 72, 0
7, 514304, Note_on_c, 5, 77, 96
7, 514560, Note_off_c, 5, 77, 0
7, 514560, Note_on_c, 5, 81, 96
7, 514560, Note_off_c, 5, 77, 0
7, 514560, Note_on_c, 5, 81, 96
7, 514560, Note_off_c, 5, 65, 0
7, 514560, Note_on_c, 5, 65, 96
7, 514560, Note_off_c, 5, 60, 0
7, 514560, Note_on_c, 5, 60, 96
7, 514560, Note_off_c, 5, 57, 0
7, 514560, Note_on_c, 5, 57, 96
7, 514816, Note_off_c, 5, 81, 0
7, 514816, Note_on_c, 5, 77, 96
7, 514816, Note_off_c, 5, 81, 0
7, 514816, Note_on_c, 5, 77, 96
7, 515072, Note_off_c, 5, 77, 0
7, 515072, Note_on_c, 5, 76, 96
7, 515072, Note_off_c, 5, 77, 0
7, 515072, Note_on_c, 5, 76, 96
7, 515072, Note_off_c, 5, 65, 0
7, 515072, Note_on_c, 5, 65, 96
7, 515072, Note_off_c, 5, 60, 0
7, 515072, Note_on_c, 5, 60, 96
7, 515072, Note_off_c, 5, 57, 0
7, 515072, Note_on_c, 5, 57, 96
7, 515328, Note_off_c, 5, 76, 0
7, 515328, Note_on_c, 5, 77, 96
7, 515328, Note_off_c, 5, 76, 0
7, 515328, Note_on_c, 5, 77, 96
7, 515584, Note_off_c, 5, 77, 0
7, 515584, Note_on_c, 5, 72, 96
7, 515584, Note_off_c, 5, 77, 0
7, 515584, Note_on_c, 5, 72, 96
7, 515584, Note_off_c, 5, 65, 0
7, 515584, Note_on_c, 5, 65, 96
7, 515584, Note_off_c, 5, 60, 0
7, 515584, Note_on_c, 5, 60, 96
7, 515584, Note_off_c, 5, 57, 0
7, 515584, Note_on_c, 5, 57, 96
7, 515840, Note_off_c, 5, 72, 0
7, 515840, Note_on_c, 5, 77, 96
7, 515840, Note_off_c, 5, 72, 0
7, 515840, Note_on_c, 5, 77, 96
7, 516096, Note_off_c, 5, 77, 0
7, 516096, Note_off_c, 5, 77, 0
7, 516096, Note_off_c, 5, 65, 0
7, 516096, Note_off_c, 5, 60, 0
7, 516096, Note_off_c, 5, 57, 0
7, 516096, Note_on_c, 5, 69, 96
7, 516096, Note_on_c, 5, 69, 96
7, 516096, Note_on_c, 5, 65, 96
7, 516096, Note_on_c, 5, 60, 96
7, 516096, Note_on_c, 5, 57, 96
7, 517120, Note_off_c, 5, 69, 0
7, 517120, Note_off_c, 5, 69, 0
7, 517120, Note_off_c, 5, 65, 0
7, 517120, Note_off_c, 5, 60, 0
7, 517120, Note_off_c, 5, 57, 0
7, 522496, Note_on_c, 5, 72, 96
7, 522496, Note_on_c, 5, 72, 96
7, 522752, Note_off_c, 5, 72, 0
7, 522752, Note_on_c, 5, 71, 96
7, 522752, Note_off_c, 5, 72, 0
7, 522752, Note_on_c, 5, 71, 96
7, 523008, Note_off_c, 5, 71, 0
7, 523008, Note_on_c, 5, 72, 96
7, 523008, Note_off_c, 5, 71, 0
7, 523008, Note_on_c, 5, 72, 96
7, 523264, Note_off_c, 5, 72, 0
7, 523264, Note_on_c, 5, 67, 96
7, 523264, Note_off_c, 5, 72, 0
7, 523264, Note_on_c, 5, 67, 96
7, 523264, Note_on_c, 5, 67, 96
7, 523264, Note_on_c, 5, 64, 96
7, 523264, Note_on_c, 5, 60, 96
7, 523520, Note_off_c, 5, 67, 0
7, 523520, Note_on_c, 5, 72, 96
7, 523520, Note_off_c, 5, 67, 0
7, 523520, Note_on_c, 5, 72, 96
7, 523776, Note_off_c, 5, 72, 0
7, 523776, Note_on_c, 5, 76, 96
7, 523776, Note_off_c, 5, 72, 0
7, 523776, Note_on_c, 5, 76, 96
7, 523776, Note_off_c, 5, 67, 0
7, 523776, Note_on_c, 5, 67, 96
7, 523776, Note_off_c, 5, 64, 0
7, 523776, Note_on_c, 5, 64, 96
7, 523776, Note_off_c, 5, 60, 0
7, 523776, Note_on_c, 5, 60, 96
7, 524032, Note_off_c, 5, 76, 0
7, 524032, Note_on_c, 5, 72, 96
7, 524032, Note_off_c, 5, 76, 0
7, 524032, Note_on_c, 5, 72, 96
7, 524288, Note_off_c, 5, 72, 0
7, 524288, Note_on_c, 5, 71, 96
7, 524288, Note_off_c, 5, 72, 0
7, 524288, Note_on_c, 5, 71, 96
7, 524288, Note_off_c, 5, 67, 0
7, 524288, Note_on_c, 5, 67, 96
7, 524288, Note_off_c, 5, 64, 0
7, 524288, Note_on_c, 5, 64, 96
7, 524288, Note_off_c, 5, 60, 0
7, 524288, Note_on_c, 5, 60, 96
7, 524544, Note_off_c, 5, 71, 0
7, 524544, Note_on_c, 5, 72, 96
7, 524544, Note_off_c, 5, 71, 0
7, 524544, Note_on_c, 5, 72, 96
7, 524800, Note_off_c, 5, 72, 0
7, 524800, Note_on_c, 5, 67, 96
7, 524800, Note_off_c, 5, 72, 0
7, 524800, Note_on_c, 5, 67, 96
7, 524800, Note_off_c, 5, 67, 0
7, 524800, Note_on_c, 5, 67, 96
7, 524800, Note_off_c, 5, 64, 0
7, 524800, Note_on_c, 5, 64, 96
7, 524800, Note_off_c, 5, 60, 0
7, 524800, Note_on_c, 5, 60, 96
7, 525056, Note_off_c, 5, 67, 0
7, 525056, Note_on_c, 5, 72, 96
7, 525056, Note_off_c, 5, 67, 0
7, 525056, Note_on_c, 5, 72, 96
7, 525312, Note_off_c, 5, 72, 0
7, 525312, Note_on_c, 5, 64, 96
7, 525312, Note_off_c, 5, 72, 0
7, 525312, Note_on_c, 5, 64, 96
7, 525312, Note_off_c, 5, 67, 0
7, 525312, Note_on_c, 5, 69, 96
7, 525312, Note_off_c, 5, 64, 0
7, 525312, Note_on_c, 5, 67, 96
7, 525312, Note_off_c, 5, 60, 0
7, 525312, Note_on_c, 5, 64, 96
7, 525568, Note_off_c, 5, 64, 0
7, 525568, Note_on_c, 5, 76, 96
7, 525568, Note_off_c, 5, 64, 0
7, 525568, Note_on_c, 5, 76, 96
7, 525824, Note_off_c, 5, 76, 0
7, 525824, Note_on_c, 5, 74, 96
7, 525824, Note_off_c, 5, 76, 0
7, 525824, Note_on_c, 5, 74, 96
7, 525824, Note_off_c, 5, 69, 0
7, 525824, Note_on_c, 5, 69, 96
7, 525824, Note_off_c, 5, 67, 0
7, 525824, Note_on_c, 5, 67, 96
7, 525824, Note_off_c, 5, 64, 0
7, 525824, Note_on_c, 5, 64, 96
7, 526080, Note_off_c, 5, 74, 0
7, 526080, Note_on_c, 5, 76, 96
7, 526080, Note_off_c, 5, 74, 0
7, 526080, Note_on_c, 5, 76, 96
7, 526336, Note_off_c, 5, 76, 0
7, 526336, Note_on_c, 5, 73, 96
7, 526336, Note_off_c, 5, 76, 0
7, 526336, Note_on_c, 5, 73, 96
7, 526336, Note_off_c, 5, 69, 0
7, 526336, Note_on_c, 5, 69, 96
7, 526336, Note_off_c, 5, 67, 0
7, 526336, Note_on_c, 5, 67, 96
7, 526336, Note_off_c, 5, 64, 0
7, 526336, Note_on_c, 5, 64, 96
7, 526592, Note_off_c, 5, 73, 0
7, 526592, Note_on_c, 5, 76, 96
7, 526592, Note_off_c, 5, 73, 0
7, 526592, Note_on_c, 5, 76, 96
7, 526848, Note_off_c, 5, 76, 0
7, 526848, Note_on_c, 5, 81, 96
7, 526848, Note_off_c, 5, 76, 0
7, 526848, Note_on_c, 5, 81, 96
7, 526848, Note_off_c, 5, 69, 0
7, 526848, Note_on_c, 5, 69, 96
7, 526848, Note_off_c, 5, 67, 0
7, 526848, Note_on_c, 5, 65, 96
7, 526848, Note_off_c, 5, 64, 0
7, 526848, Note_on_c, 5, 62, 96
7, 527104, Note_off_c, 5, 81, 0
7, 527104, Note_on_c, 5, 77, 96
7, 527104, Note_off_c, 5, 81, 0
7, 527104, Note_on_c, 5, 77, 96
7, 527360, Note_off_c, 5, 77, 0
7, 527360, Note_on_c, 5, 76, 96
7, 527360, Note_off_c, 5, 77, 0
7, 527360, Note_on_c, 5, 76, 96
7, 527360, Note_off_c, 5, 69, 0
7, 527360, Note_on_c, 5, 69, 96
7, 527360, Note_off_c, 5, 65, 0
7, 527360, Note_on_c, 5, 65, 96
7, 527360, Note_off_c, 5, 62, 0
7, 527360, Note_on_c, 5, 62, 96
7, 527616, Note_off_c, 5, 76, 0
7, 527616, Note_on_c, 5, 77, 96
7, 527616, Note_off_c, 5, 76, 0
7, 527616, Note_on_c, 5, 77, 96
7, 527872, Note_off_c, 5, 77, 0
7, 527872, Note_on_c, 5, 74, 96
7, 527872, Note_off_c, 5, 77, 0
7, 527872, Note_on_c, 5, 74, 96
7, 527872, Note_off_c, 5, 69, 0
7, 527872, Note_on_c, 5, 69, 96
7, 527872, Note_off_c, 5, 65, 0
7, 527872, Note_on_c, 5, 65, 96
7, 527872, Note_off_c, 5, 62, 0
7, 527872, Note_on_c, 5, 62, 96
7, 528128, Note_off_c, 5, 74, 0
7, 528128, Note_on_c, 5, 77, 96
7, 528128, Note_off_c, 5, 74, 0
7, 528128, Note_on_c, 5, 77, 96
7, 528384, Note_off_c, 5, 77, 0
7, 528384, Note_off_c, 5, 77, 0
7, 528384, Note_off_c, 5, 69, 0
7, 528384, Note_off_c, 5, 65, 0
7, 528384, Note_off_c, 5, 62, 0
7, 528384, Note_on_c, 5, 68, 96
7, 528384, Note_on_c, 5, 68, 96
7, 528384, Note_on_c, 5, 69, 96
7, 528384, Note_on_c, 5, 64, 96
7, 528384, Note_on_c, 5, 61, 96
7, 528896, Note_off_c, 5, 68, 0
7, 528896, Note_on_c, 5, 69, 96
7, 528896, Note_off_c, 5, 68, 0
7, 528896, Note_on_c, 5, 69, 96
7, 529152, Note_off_c, 5, 69, 0
7, 529152, Note_on_c, 5, 71, 96
7, 529408, Note_off_c, 5, 71, 0
7, 529408, Note_on_c, 5, 73, 96
7, 529408, Note_off_c, 5, 69, 0
7, 529408, Note_off_c, 5, 69, 0
7, 529408, Note_off_c, 5, 64, 0
7, 529408, Note_off_c, 5, 61, 0
7, 529664, Note_off_c, 5, 73, 0
7, 529664, Note_on_c, 5, 74, 96
7, 529920, Note_off_c, 5, 74, 0
7, 529920, Note_on_c, 5, 76, 96
7, 530176, Note_on_c, 5, 61, 96
7, 530432, Note_off_c, 5, 61, 0
7, 530432, Note_on_c, 5, 59, 96
7, 530688, Note_off_c, 5, 59, 0
7, 530688, Note_on_c, 5, 61, 96
7, 530944, Note_off_c, 5, 76, 0
7, 530944, Note_on_c, 5, 77, 96
7, 530944, Note_off_c, 5, 61, 0
7, 530944, Note_on_c, 5, 57, 96
7, 531200, Note_off_c, 5, 57, 0
7, 531200, Note_on_c, 5, 61, 96
7, 531456, Note_off_c, 5, 77, 0
7, 531456, Note_on_c, 5, 74, 96
7, 531456, Note_off_c, 5, 61, 0
7, 531456, Note_on_c, 5, 65, 96
7, 531712, Note_off_c, 5, 65, 0
7, 531712, Note_on_c, 5, 62, 96
7, 531968, Note_off_c, 5, 62, 0
7, 531968, Note_on_c, 5, 61, 96
7, 532224, Note_off_c, 5, 61, 0
7, 532224, Note_on_c, 5, 62, 96
7, 532480, Note_off_c, 5, 74, 0
7, 532480, Note_on_c, 5, 73, 96
7, 532480, Note_off_c, 5, 62, 0
7, 532480, Note_on_c, 5, 57, 96
7, 532736, Note_off_c, 5, 57, 0
7, 532736, Note_on_c, 5, 62, 96
7, 532992, Note_off_c, 5, 73, 0
7, 532992, Note_on_c, 5, 74, 96
7, 532992, Note_off_c, 5, 62, 0
7, 532992, Note_on_c, 5, 68, 96
7, 533248, Note_off_c, 5, 68, 0
7, 533248, Note_on_c, 5, 62, 96
7, 533504, Note_off_c, 5, 74, 0
7, 533504, Note_on_c, 5, 77, 96
7, 533504, Note_off_c, 5, 62, 0
7, 533504, Note_on_c, 5, 61, 96
7, 533760, Note_off_c, 5, 61, 0
7, 533760, Note_on_c, 5, 62, 96
7, 534016, Note_off_c, 5, 77, 0
7, 534016, Note_on_c, 5, 76, 96
7, 534016, Note_off_c, 5, 62, 0
7, 534016, Note_on_c, 5, 59, 96
7, 534272, Note_off_c, 5, 59, 0
7, 534272, Note_on_c, 5, 62, 96
7, 534528, Note_off_c, 5, 76, 0
7, 534528, Note_off_c, 5, 62, 0
7, 534528, Note_on_c, 5, 73, 96
7, 534528, Note_on_c, 5, 69, 96
7, 534784, Note_off_c, 5, 73, 0
7, 534784, Note_on_c, 5, 73, 96
7, 534784, Note_off_c, 5, 69, 0
7, 534784, Note_on_c, 5, 73, 96
7, 535040, Note_off_c, 5, 73, 0
7, 535040, Note_on_c, 5, 74, 96
7, 535040, Note_off_c, 5, 73, 0
7, 535040, Note_on_c, 5, 74, 96
7, 535296, Note_off_c, 5, 74, 0
7, 535296, Note_on_c, 5, 76, 96
7, 535296, Note_off_c, 5, 74, 0
7, 535296, Note_on_c, 5, 76, 96
7, 535552, Note_off_c, 5, 76, 0
7, 535552, Note_on_c, 5, 77, 96
7, 535552, Note_off_c, 5, 76, 0
7, 535552, Note_on_c, 5, 77, 96
7, 535552, Note_on_c, 5, 69, 96
7, 535808, Note_off_c, 5, 77, 0
7, 535808, Note_on_c, 5, 79, 96
7, 535808, Note_off_c, 5, 77, 0
7, 535808, Note_on_c, 5, 79, 96
7, 536064, Note_off_c, 5, 79, 0
7, 536064, Note_on_c, 5, 81, 96
7, 536064, Note_off_c, 5, 79, 0
7, 536064, Note_on_c, 5, 81, 96
7, 536064, Note_off_c, 5, 69, 0
7, 536064, Note_on_c, 5, 81, 96
7, 537088, Note_off_c, 5, 81, 0
7, 537088, Note_on_c, 5, 82, 96
7, 537088, Note_off_c, 5, 81, 0
7, 537088, Note_on_c, 5, 82, 96
7, 537088, Note_off_c, 5, 81, 0
7, 537088, Note_on_c, 5, 82, 96
7, 537088, Note_on_c, 5, 74, 96
7, 537088, Note_on_c, 5, 65, 96
7, 537600, Note_off_c, 5, 82, 0
7, 537600, Note_on_c, 5, 79, 96
7, 537600, Note_off_c, 5, 82, 0
7, 537600, Note_on_c, 5, 79, 96
7, 537600, Note_off_c, 5, 82, 0
7, 537600, Note_on_c, 5, 79, 96
7, 537600, Note_off_c, 5, 74, 0
7, 537600, Note_on_c, 5, 74, 96
7, 537600, Note_off_c, 5, 65, 0
7, 537600, Note_on_c, 5, 67, 96
7, 538112, Note_off_c, 5, 74, 0
7, 538112, Note_on_c, 5, 73, 96
7, 538112, Note_off_c, 5, 67, 0
7, 538112, Note_on_c, 5, 69, 96
7, 538624, Note_off_c, 5, 79, 0
7, 538624, Note_on_c, 5, 77, 96
7, 538624, Note_off_c, 5, 79, 0
7, 538624, Note_on_c, 5, 77, 96
7, 538624, Note_off_c, 5, 79, 0
7, 538624, Note_on_c, 5, 77, 96
7, 538624, Note_off_c, 5, 73, 0
7, 538624, Note_on_c, 5, 74, 96
7, 538624, Note_off_c, 5, 69, 0
7, 538624, Note_on_c, 5, 70, 96
7, 539136, Note_off_c, 5, 77, 0
7, 539136, Note_on_c, 5, 79, 96
7, 539136, Note_off_c, 5, 77, 0
7, 539136, Note_on_c, 5, 79, 96
7, 539136, Note_off_c, 5, 77, 0
7, 539136, Note_on_c, 5, 79, 96
7, 539136, Note_off_c, 5, 74, 0
7, 539136, Note_on_c, 5, 76, 96
7, 539136, Note_off_c, 5, 70, 0
7, 539136, Note_on_c, 5, 64, 96
7, 539648, Note_off_c, 5, 79, 0
7, 539648, Note_on_c, 5, 76, 96
7, 539648, Note_off_c, 5, 79, 0
7, 539648, Note_on_c, 5, 76, 96
7, 539648, Note_off_c, 5, 79, 0
7, 539648, Note_on_c, 5, 76, 96
7, 539648, Note_off_c, 5, 76, 0
7, 539648, Note_on_c, 5, 74, 96
7, 540160, Note_off_c, 5, 76, 0
7, 540160, Note_on_c, 5, 77, 96
7, 540160, Note_off_c, 5, 76, 0
7, 540160, Note_on_c, 5, 77, 96
7, 540160, Note_off_c, 5, 76, 0
7, 540160, Note_on_c, 5, 77, 96
7, 540160, Note_off_c, 5, 74, 0
7, 540160, Note_on_c, 5, 73, 96
7, 540160, Note_off_c, 5, 64, 0
7, 540160, Note_on_c, 5, 69, 96
7, 540672, Note_off_c, 5, 77, 0
7, 540672, Note_off_c, 5, 77, 0
7, 540672, Note_off_c, 5, 77, 0
7, 540672, Note_off_c, 5, 73, 0
7, 540672, Note_off_c, 5, 69, 0
7, 540672, Note_on_c, 5, 77, 96
7, 540672, Note_on_c, 5, 77, 96
7, 540672, Note_on_c, 5, 77, 96
7, 540672, Note_on_c, 5, 74, 96
7, 540672, Note_on_c, 5, 69, 96
7, 540928, Note_off_c, 5, 77, 0
7, 540928, Note_on_c, 5, 74, 96
7, 540928, Note_off_c, 5, 77, 0
7, 540928, Note_on_c, 5, 74, 96
7, 541184, Note_off_c, 5, 74, 0
7, 541184, Note_on_c, 5, 73, 96
7, 541184, Note_off_c, 5, 74, 0
7, 541184, Note_on_c, 5, 73, 96
7, 541440, Note_off_c, 5, 73, 0
7, 541440, Note_on_c, 5, 74, 96
7, 541440, Note_off_c, 5, 73, 0
7, 541440, Note_on_c, 5, 74, 96
7, 541696, Note_off_c, 5, 74, 0
7, 541696, Note_on_c, 5, 69, 96
7, 541696, Note_off_c, 5, 74, 0
7, 541696, Note_on_c, 5, 69, 96
7, 541696, Note_off_c, 5, 77, 0
7, 541696, Note_off_c, 5, 74, 0
7, 541696, Note_off_c, 5, 69, 0
7, 541952, Note_off_c, 5, 69, 0
7, 541952, Note_on_c, 5, 74, 96
7, 541952, Note_off_c, 5, 69, 0
7, 541952, Note_on_c, 5, 74, 96
7, 542208, Note_off_c, 5, 74, 0
7, 542208, Note_on_c, 5, 77, 96
7, 542208, Note_off_c, 5, 74, 0
7, 542208, Note_on_c, 5, 77, 96
7, 542464, Note_off_c, 5, 77, 0
7, 542464, Note_on_c, 5, 74, 96
7, 542464, Note_off_c, 5, 77, 0
7, 542464, Note_on_c, 5, 74, 96
7, 542720, Note_off_c, 5, 74, 0
7, 542720, Note_on_c, 5, 73, 96
7, 542720, Note_off_c, 5, 74, 0
7, 542720, Note_on_c, 5, 73, 96
7, 542976, Note_off_c, 5, 73, 0
7, 542976, Note_on_c, 5, 74, 96
7, 542976, Note_off_c, 5, 73, 0
7, 542976, Note_on_c, 5, 74, 96
7, 543232, Note_off_c, 5, 74, 0
7, 543232, Note_on_c, 5, 69, 96
7, 543232, Note_off_c, 5, 74, 0
7, 543232, Note_on_c, 5, 69, 96
7, 543488, Note_off_c, 5, 69, 0
7, 543488, Note_on_c, 5, 74, 96
7, 543488, Note_off_c, 5, 69, 0
7, 543488, Note_on_c, 5, 74, 96
7, 543744, Note_off_c, 5, 74, 0
7, 543744, Note_on_c, 5, 62, 96
7, 543744, Note_off_c, 5, 74, 0
7, 543744, Note_on_c, 5, 62, 96
7, 543744, Note_on_c, 5, 69, 96
7, 543744, Note_on_c, 5, 69, 96
7, 543744, Note_on_c, 5, 69, 96
7, 544000, Note_off_c, 5, 62, 0
7, 544000, Note_on_c, 5, 72, 96
7, 544000, Note_off_c, 5, 62, 0
7, 544000, Note_on_c, 5, 72, 96
7, 544256, Note_off_c, 5, 72, 0
7, 544256, Note_on_c, 5, 70, 96
7, 544256, Note_off_c, 5, 72, 0
7, 544256, Note_on_c, 5, 70, 96
7, 544256, Note_off_c, 5, 69, 0
7, 544256, Note_on_c, 5, 67, 96
7, 544256, Note_off_c, 5, 69, 0
7, 544256, Note_on_c, 5, 67, 96
7, 544256, Note_off_c, 5, 69, 0
7, 544256, Note_on_c, 5, 67, 96
7, 544512, Note_off_c, 5, 70, 0
7, 544512, Note_on_c, 5, 72, 96
7, 544512, Note_off_c, 5, 70, 0
7, 544512, Note_on_c, 5, 72, 96
7, 544768, Note_off_c, 5, 72, 0
7, 544768, Note_on_c, 5, 69, 96
7, 544768, Note_off_c, 5, 72, 0
7, 544768, Note_on_c, 5, 69, 96
7, 544768, Note_off_c, 5, 67, 0
7, 544768, Note_on_c, 5, 65, 96
7, 544768, Note_off_c, 5, 67, 0
7, 544768, Note_on_c, 5, 65, 96
7, 544768, Note_off_c, 5, 67, 0
7, 544768, Note_on_c, 5, 65, 96
7, 545024, Note_off_c, 5, 69, 0
7, 545024, Note_on_c, 5, 72, 96
7, 545024, Note_off_c, 5, 69, 0
7, 545024, Note_on_c, 5, 72, 96
7, 545280, Note_off_c, 5, 72, 0
7, 545280, Note_on_c, 5, 77, 96
7, 545280, Note_off_c, 5, 72, 0
7, 545280, Note_on_c, 5, 77, 96
7, 545280, Note_off_c, 5, 65, 0
7, 545280, Note_on_c, 5, 69, 96
7, 545280, Note_off_c, 5, 65, 0
7, 545280, Note_on_c, 5, 69, 96
7, 545280, Note_off_c, 5, 65, 0
7, 545280, Note_on_c, 5, 69, 96
7, 545536, Note_off_c, 5, 77, 0
7, 545536, Note_on_c, 5, 72, 96
7, 545536, Note_off_c, 5, 77, 0
7, 545536, Note_on_c, 5, 72, 96
7, 545792, Note_off_c, 5, 72, 0
7, 545792, Note_on_c, 5, 70, 96
7, 545792, Note_off_c, 5, 72, 0
7, 545792, Note_on_c, 5, 70, 96
7, 545792, Note_off_c, 5, 69, 0
7, 545792, Note_on_c, 5, 67, 96
7, 545792, Note_off_c, 5, 69, 0
7, 545792, Note_on_c, 5, 67, 96
7, 545792, Note_off_c, 5, 69, 0
7, 545792, Note_on_c, 5, 67, 96
7, 546048, Note_off_c, 5, 70, 0
7, 546048, Note_on_c, 5, 72, 96
7, 546048, Note_off_c, 5, 70, 0
7, 546048, Note_on_c, 5, 72, 96
7, 546304, Note_off_c, 5, 72, 0
7, 546304, Note_on_c, 5, 69, 96
7, 546304, Note_off_c, 5, 72, 0
7, 546304, Note_on_c, 5, 69, 96
7, 546304, Note_off_c, 5, 67, 0
7, 546304, Note_on_c, 5, 65, 96
7, 546304, Note_off_c, 5, 67, 0
7, 546304, Note_on_c, 5, 65, 96
7, 546304, Note_off_c, 5, 67, 0
7, 546304, Note_on_c, 5, 65, 96
7, 546560, Note_off_c, 5, 69, 0
7, 546560, Note_on_c, 5, 72, 96
7, 546560, Note_off_c, 5, 69, 0
7, 546560, Note_on_c, 5, 72, 96
7, 546816, Note_off_c, 5, 72, 0
7, 546816, Note_off_c, 5, 72, 0
7, 546816, Note_off_c, 5, 65, 0
7, 546816, Note_off_c, 5, 65, 0
7, 546816, Note_off_c, 5, 65, 0
7, 546816, Note_on_c, 5, 62, 96
7, 546816, Note_on_c, 5, 62, 96
7, 546816, Note_on_c, 5, 70, 96
7, 546816, Note_on_c, 5, 70, 96
7, 546816, Note_on_c, 5, 70, 96
7, 547072, Note_off_c, 5, 62, 0
7, 547072, Note_on_c, 5, 70, 96
7, 547072, Note_off_c, 5, 62, 0
7, 547072, Note_on_c, 5, 70, 96
7, 547328, Note_off_c, 5, 70, 0
7, 547328, Note_on_c, 5, 69, 96
7, 547328, Note_off_c, 5, 70, 0
7, 547328, Note_on_c, 5, 69, 96
7, 547584, Note_off_c, 5, 69, 0
7, 547584, Note_on_c, 5, 70, 96
7, 547584, Note_off_c, 5, 69, 0
7, 547584, Note_on_c, 5, 70, 96
7, 547840, Note_off_c, 5, 70, 0
7, 547840, Note_on_c, 5, 67, 96
7, 547840, Note_off_c, 5, 70, 0
7, 547840, Note_on_c, 5, 67, 96
7, 547840, Note_off_c, 5, 70, 0
7, 547840, Note_off_c, 5, 70, 0
7, 547840, Note_off_c, 5, 70, 0
7, 548096, Note_off_c, 5, 67, 0
7, 548096, Note_on_c, 5, 70, 96
7, 548096, Note_off_c, 5, 67, 0
7, 548096, Note_on_c, 5, 70, 96
7, 548352, Note_off_c, 5, 70, 0
7, 548352, Note_on_c, 5, 77, 96
7, 548352, Note_off_c, 5, 70, 0
7, 548352, Note_on_c, 5, 77, 96
7, 548608, Note_off_c, 5, 77, 0
7, 548608, Note_on_c, 5, 70, 96
7, 548608, Note_off_c, 5, 77, 0
7, 548608, Note_on_c, 5, 70, 96
7, 548864, Note_off_c, 5, 70, 0
7, 548864, Note_on_c, 5, 69, 96
7, 548864, Note_off_c, 5, 70, 0
7, 548864, Note_on_c, 5, 69, 96
7, 549120, Note_off_c, 5, 69, 0
7, 549120, Note_on_c, 5, 70, 96
7, 549120, Note_off_c, 5, 69, 0
7, 549120, Note_on_c, 5, 70, 96
7, 549376, Note_off_c, 5, 70, 0
7, 549376, Note_on_c, 5, 67, 96
7, 549376, Note_off_c, 5, 70, 0
7, 549376, Note_on_c, 5, 67, 96
7, 549632, Note_off_c, 5, 67, 0
7, 549632, Note_on_c, 5, 70, 96
7, 549632, Note_off_c, 5, 67, 0
7, 549632, Note_on_c, 5, 70, 96
7, 549888, Note_off_c, 5, 70, 0
7, 549888, Note_on_c, 5, 60, 96
7, 549888, Note_off_c, 5, 70, 0
7, 549888, Note_on_c, 5, 60, 96
7, 549888, Note_on_c, 5, 67, 96
7, 549888, Note_on_c, 5, 67, 96
7, 549888, Note_on_c, 5, 67, 96
7, 550144, Note_off_c, 5, 60, 0
7, 550144, Note_on_c, 5, 70, 96
7, 550144, Note_off_c, 5, 60, 0
7, 550144, Note_on_c, 5, 70, 96
7, 550400, Note_off_c, 5, 70, 0
7, 550400, Note_on_c, 5, 69, 96
7, 550400, Note_off_c, 5, 70, 0
7, 550400, Note_on_c, 5, 69, 96
7, 550400, Note_off_c, 5, 67, 0
7, 550400, Note_on_c, 5, 65, 96
7, 550400, Note_off_c, 5, 67, 0
7, 550400, Note_on_c, 5, 65, 96
7, 550400, Note_off_c, 5, 67, 0
7, 550400, Note_on_c, 5, 65, 96
7, 550656, Note_off_c, 5, 69, 0
7, 550656, Note_on_c, 5, 70, 96
7, 550656, Note_off_c, 5, 69, 0
7, 550656, Note_on_c, 5, 70, 96
7, 550912, Note_off_c, 5, 70, 0
7, 550912, Note_on_c, 5, 67, 96
7, 550912, Note_off_c, 5, 70, 0
7, 550912, Note_on_c, 5, 67, 96
7, 550912, Note_off_c, 5, 65, 0
7, 550912, Note_on_c, 5, 64, 96
7, 550912, Note_off_c, 5, 65, 0
7, 550912, Note_on_c, 5, 64, 96
7, 550912, Note_off_c, 5, 65, 0
7, 550912, Note_on_c, 5, 64, 96
7, 551168, Note_off_c, 5, 67, 0
7, 551168, Note_on_c, 5, 70, 96
7, 551168, Note_off_c, 5, 67, 0
7, 551168, Note_on_c, 5, 70, 96
7, 551424, Note_off_c, 5, 70, 0
7, 551424, Note_on_c, 5, 76, 96
7, 551424, Note_off_c, 5, 70, 0
7, 551424, Note_on_c, 5, 76, 96
7, 551424, Note_off_c, 5, 64, 0
7, 551424, Note_on_c, 5, 67, 96
7, 551424, Note_off_c, 5, 64, 0
7, 551424, Note_on_c, 5, 67, 96
7, 551424, Note_off_c, 5, 64, 0
7, 551424, Note_on_c, 5, 67, 96
7, 551680, Note_off_c, 5, 76, 0
7, 551680, Note_on_c, 5, 70, 96
7, 551680, Note_off_c, 5, 76, 0
7, 551680, Note_on_c, 5, 70, 96
7, 551936, Note_off_c, 5, 70, 0
7, 551936, Note_on_c, 5, 69, 96
7, 551936, Note_off_c, 5, 70, 0
7, 551936, Note_on_c, 5, 69, 96
7, 551936, Note_off_c, 5, 67, 0
7, 551936, Note_on_c, 5, 65, 96
7, 551936, Note_off_c, 5, 67, 0
7, 551936, Note_on_c, 5, 65, 96
7, 551936, Note_off_c, 5, 67, 0
7, 551936, Note_on_c, 5, 65, 96
7, 552192, Note_off_c, 5, 69, 0
7, 552192, Note_on_c, 5, 70, 96
7, 552192, Note_off_c, 5, 69, 0
7, 552192, Note_on_c, 5, 70, 96
7, 552448, Note_off_c, 5, 70, 0
7, 552448, Note_on_c, 5, 67, 96
7, 552448, Note_off_c, 5, 70, 0
7, 552448, Note_on_c, 5, 67, 96
7, 552448, Note_off_c, 5, 65, 0
7, 552448, Note_on_c, 5, 64, 96
7, 552448, Note_off_c, 5, 65, 0
7, 552448, Note_on_c, 5, 64, 96
7, 552448, Note_off_c, 5, 65, 0
7, 552448, Note_on_c, 5, 64, 96
7, 552704, Note_off_c, 5, 67, 0
7, 552704, Note_on_c, 5, 70, 96
7, 552704, Note_off_c, 5, 67, 0
7, 552704, Note_on_c, 5, 70, 96
7, 552960, Note_off_c, 5, 70, 0
7, 552960, Note_off_c, 5, 70, 0
7, 552960, Note_off_c, 5, 64, 0
7, 552960, Note_off_c, 5, 64, 0
7, 552960, Note_off_c, 5, 64, 0
7, 552960, Note_on_c, 5, 60, 96
7, 552960, Note_on_c, 5, 60, 96
7, 552960, Note_on_c, 5, 69, 96
7, 552960, Note_on_c, 5, 69, 96
7, 552960, Note_on_c, 5, 65, 96
7, 553216, Note_off_c, 5, 60, 0
7, 553216, Note_on_c, 5, 69, 96
7, 553216, Note_off_c, 5, 60, 0
7, 553216, Note_on_c, 5, 69, 96
7, 553472, Note_off_c, 5, 69, 0
7, 553472, Note_on_c, 5, 67, 96
7, 553472, Note_off_c, 5, 69, 0
7, 553472, Note_on_c, 5, 67, 96
7, 553472, Note_off_c, 5, 65, 0
7, 553472, Note_on_c, 5, 67, 96
7, 553728, Note_off_c, 5, 67, 0
7, 553728, Note_on_c, 5, 69, 96
7, 553728, Note_off_c, 5, 67, 0
7, 553728, Note_on_c, 5, 69, 96
7, 553984, Note_off_c, 5, 69, 0
7, 553984, Note_on_c, 5, 65, 96
7, 553984, Note_off_c, 5, 69, 0
7, 553984, Note_on_c, 5, 65, 96
7, 553984, Note_off_c, 5, 69, 0
7, 553984, Note_on_c, 5, 65, 96
7, 553984, Note_off_c, 5, 69, 0
7, 553984, Note_on_c, 5, 60, 96
7, 553984, Note_off_c, 5, 67, 0
7, 553984, Note_on_c, 5, 69, 96
7, 554240, Note_off_c, 5, 65, 0
7, 554240, Note_on_c, 5, 69, 96
7, 554240, Note_off_c, 5, 65, 0
7, 554240, Note_on_c, 5, 69, 96
7, 554496, Note_off_c, 5, 69, 0
7, 554496, Note_on_c, 5, 72, 96
7, 554496, Note_off_c, 5, 69, 0
7, 554496, Note_on_c, 5, 72, 96
7, 554496, Note_off_c, 5, 65, 0
7, 554496, Note_on_c, 5, 69, 96
7, 554496, Note_off_c, 5, 60, 0
7, 554496, Note_on_c, 5, 65, 96
7, 554496, Note_off_c, 5, 69, 0
7, 554496, Note_on_c, 5, 60, 96
7, 554752, Note_off_c, 5, 72, 0
7, 554752, Note_on_c, 5, 72, 96
7, 554752, Note_off_c, 5, 72, 0
7, 554752, Note_on_c, 5, 72, 96
7, 555008, Note_off_c, 5, 72, 0
7, 555008, Note_on_c, 5, 70, 96
7, 555008, Note_off_c, 5, 72, 0
7, 555008, Note_on_c, 5, 70, 96
7, 555008, Note_off_c, 5, 69, 0
7, 555008, Note_on_c, 5, 70, 96
7, 555008, Note_off_c, 5, 60, 0
7, 555008, Note_on_c, 5, 62, 96
7, 555264, Note_off_c, 5, 70, 0
7, 555264, Note_on_c, 5, 72, 96
7, 555264, Note_off_c, 5, 70, 0
7, 555264, Note_on_c, 5, 72, 96
7, 555520, Note_off_c, 5, 72, 0
7, 555520, Note_on_c, 5, 69, 96
7, 555520, Note_off_c, 5, 72, 0
7, 555520, Note_on_c, 5, 69, 96
7, 555520, Note_off_c, 5, 70, 0
7, 555520, Note_on_c, 5, 72, 96
7, 555520, Note_off_c, 5, 65, 0
7, 555520, Note_on_c, 5, 67, 96
7, 555520, Note_off_c, 5, 62, 0
7, 555520, Note_on_c, 5, 63, 96
7, 555776, Note_off_c, 5, 69, 0
7, 555776, Note_on_c, 5, 72, 96
7, 555776, Note_off_c, 5, 69, 0
7, 555776, Note_on_c, 5, 72, 96
7, 556032, Note_off_c, 5, 72, 0
7, 556032, Note_on_c, 5, 77, 96
7, 556032, Note_off_c, 5, 72, 0
7, 556032, Note_on_c, 5, 77, 96
7, 556032, Note_off_c, 5, 72, 0
7, 556032, Note_on_c, 5, 72, 96
7, 556032, Note_off_c, 5, 67, 0
7, 556032, Note_on_c, 5, 63, 96
7, 556032, Note_off_c, 5, 63, 0
7, 556032, Note_on_c, 5, 57, 96
7, 556288, Note_off_c, 5, 77, 0
7, 556288, Note_on_c, 5, 77, 96
7, 556288, Note_off_c, 5, 77, 0
7, 556288, Note_on_c, 5, 77, 96
7, 556544, Note_off_c, 5, 77, 0
7, 556544, Note_on_c, 5, 75, 96
7, 556544, Note_off_c, 5, 77, 0
7, 556544, Note_on_c, 5, 75, 96
7, 556544, Note_off_c, 5, 57, 0
7, 556544, Note_on_c, 5, 58, 96
7, 556800, Note_off_c, 5, 75, 0
7, 556800, Note_on_c, 5, 77, 96
7, 556800, Note_off_c, 5, 75, 0
7, 556800, Note_on_c, 5, 77, 96
7, 557056, Note_off_c, 5, 77, 0
7, 557056, Note_on_c, 5, 72, 96
7, 557056, Note_off_c, 5, 77, 0
7, 557056, Note_on_c, 5, 72, 96
7, 557056, Note_off_c, 5, 72, 0
7, 557056, Note_on_c, 5, 69, 96
7, 557056, Note_off_c, 5, 63, 0
7, 557056, Note_on_c, 5, 62, 96
7, 557056, Note_off_c, 5, 58, 0
7, 557056, Note_on_c, 5, 60, 96
7, 557312, Note_off_c, 5, 72, 0
7, 557312, Note_on_c, 5, 77, 96
7, 557312, Note_off_c, 5, 72, 0
7, 557312, Note_on_c, 5, 77, 96
7, 557568, Note_off_c, 5, 77, 0
7, 557568, Note_on_c, 5, 81, 96
7, 557568, Note_off_c, 5, 77, 0
7, 557568, Note_on_c, 5, 81, 96
7, 557568, Note_off_c, 5, 69, 0
7, 557568, Note_on_c, 5, 65, 96
7, 557568, Note_off_c, 5, 62, 0
7, 557568, Note_on_c, 5, 63, 96
7, 557568, Note_off_c, 5, 60, 0
7, 557568, Note_on_c, 5, 53, 96
7, 557824, Note_off_c, 5, 81, 0
7, 557824, Note_on_c, 5, 77, 96
7, 557824, Note_off_c, 5, 81, 0
7, 557824, Note_on_c, 5, 77, 96
7, 558080, Note_off_c, 5, 77, 0
7, 558080, Note_on_c, 5, 75, 96
7, 558080, Note_off_c, 5, 77, 0
7, 558080, Note_on_c, 5, 75, 96
7, 558080, Note_off_c, 5, 63, 0
7, 558080, Note_on_c, 5, 67, 96
7, 558080, Note_off_c, 5, 53, 0
7, 558080, Note_on_c, 5, 55, 96
7, 558336, Note_off_c, 5, 75, 0
7, 558336, Note_on_c, 5, 77, 96
7, 558336, Note_off_c, 5, 75, 0
7, 558336, Note_on_c, 5, 77, 96
7, 558592, Note_off_c, 5, 77, 0
7, 558592, Note_on_c, 5, 72, 96
7, 558592, Note_off_c, 5, 77, 0
7, 558592, Note_on_c, 5, 72, 96
7, 558592, Note_off_c, 5, 67, 0
7, 558592, Note_on_c, 5, 65, 96
7, 558592, Note_off_c, 5, 55, 0
7, 558592, Note_on_c, 5, 57, 96
7, 558848, Note_off_c, 5, 72, 0
7, 558848, Note_on_c, 5, 77, 96
7, 558848, Note_off_c, 5, 72, 0
7, 558848, Note_on_c, 5, 77, 96
7, 559104, Note_off_c, 5, 77, 0
7, 559104, Note_off_c, 5, 77, 0
7, 559104, Note_off_c, 5, 65, 0
7, 559104, Note_off_c, 5, 57, 0
7, 559104, Note_on_c, 5, 70, 96
7, 559104, Note_on_c, 5, 70, 96
7, 559104, Note_on_c, 5, 62, 96
7, 559104, Note_on_c, 5, 58, 96
7, 559360, Note_off_c, 5, 70, 0
7, 559360, Note_on_c, 5, 79, 96
7, 559360, Note_off_c, 5, 70, 0
7, 559360, Note_on_c, 5, 79, 96
7, 559616, Note_off_c, 5, 79, 0
7, 559616, Note_on_c, 5, 77, 96
7, 559616, Note_off_c, 5, 79, 0
7, 559616, Note_on_c, 5, 77, 96
7, 559616, Note_off_c, 5, 65, 0
7, 559616, Note_on_c, 5, 65, 96
7, 559616, Note_off_c, 5, 62, 0
7, 559616, Note_on_c, 5, 62, 96
7, 559616, Note_off_c, 5, 58, 0
7, 559616, Note_on_c, 5, 57, 96
7, 559872, Note_off_c, 5, 77, 0
7, 559872, Note_on_c, 5, 79, 96
7, 559872, Note_off_c, 5, 77, 0
7, 559872, Note_on_c, 5, 79, 96
7, 560128, Note_off_c, 5, 79, 0
7, 560128, Note_on_c, 5, 74, 96
7, 560128, Note_off_c, 5, 79, 0
7, 560128, Note_on_c, 5, 74, 96
7, 560128, Note_off_c, 5, 65, 0
7, 560128, Note_on_c, 5, 65, 96
7, 560128, Note_off_c, 5, 62, 0
7, 560128, Note_on_c, 5, 62, 96
7, 560128, Note_off_c, 5, 57, 0
7, 560128, Note_on_c, 5, 58, 96
7, 560384, Note_off_c, 5, 74, 0
7, 560384, Note_on_c, 5, 79, 96
7, 560384, Note_off_c, 5, 74, 0
7, 560384, Note_on_c, 5, 79, 96
7, 560640, Note_off_c, 5, 79, 0
7, 560640, Note_on_c, 5, 82, 96
7, 560640, Note_off_c, 5, 79, 0
7, 560640, Note_on_c, 5, 82, 96
7, 560640, Note_off_c, 5, 65, 0
7, 560640, Note_on_c, 5, 65, 96
7, 560640, Note_off_c, 5, 62, 0
7, 560640, Note_on_c, 5, 62, 96
7, 560640, Note_off_c, 5, 58, 0
7, 560640, Note_on_c, 5, 55, 96
7, 560896, Note_off_c, 5, 82, 0
7, 560896, Note_on_c, 5, 74, 96
7, 560896, Note_off_c, 5, 82, 0
7, 560896, Note_on_c, 5, 74, 96
7, 561152, Note_off_c, 5, 74, 0
7, 561152, Note_on_c, 5, 72, 96
7, 561152, Note_off_c, 5, 74, 0
7, 561152, Note_on_c, 5, 72, 96
7, 561152, Note_off_c, 5, 65, 0
7, 561152, Note_on_c, 5, 65, 96
7, 561152, Note_off_c, 5, 62, 0
7, 561152, Note_on_c, 5, 62, 96
7, 561152, Note_off_c, 5, 55, 0
7, 561152, Note_on_c, 5, 57, 96
7, 561408, Note_off_c, 5, 72, 0
7, 561408, Note_on_c, 5, 74, 96
7, 561408, Note_off_c, 5, 72, 0
7, 561408, Note_on_c, 5, 74, 96
7, 561664, Note_off_c, 5, 74, 0
7, 561664, Note_on_c, 5, 70, 96
7, 561664, Note_off_c, 5, 74, 0
7, 561664, Note_on_c, 5, 70, 96
7, 561664, Note_off_c, 5, 65, 0
7, 561664, Note_on_c, 5, 65, 96
7, 561664, Note_off_c, 5, 62, 0
7, 561664, Note_on_c, 5, 62, 96
7, 561664, Note_off_c, 5, 57, 0
7, 561664, Note_on_c, 5, 58, 96
7, 561920, Note_off_c, 5, 70, 0
7, 561920, Note_on_c, 5, 74, 96
7, 561920, Note_off_c, 5, 70, 0
7, 561920, Note_on_c, 5, 74, 96
7, 562176, Note_off_c, 5, 74, 0
7, 562176, Note_on_c, 5, 69, 96
7, 562176, Note_off_c, 5, 74, 0
7, 562176, Note_on_c, 5, 69, 96
7, 562176, Note_off_c, 5, 65, 0
7, 562176, Note_on_c, 5, 65, 96
7, 562176, Note_off_c, 5, 62, 0
7, 562176, Note_on_c, 5, 60, 96
7, 562176, Note_off_c, 5, 58, 0
7, 562176, Note_on_c, 5, 60, 96
7, 562432, Note_off_c, 5, 69, 0
7, 562432, Note_on_c, 5, 77, 96
7, 562432, Note_off_c, 5, 69, 0
7, 562432, Note_on_c, 5, 77, 96
7, 562688, Note_off_c, 5, 77, 0
7, 562688, Note_on_c, 5, 76, 96
7, 562688, Note_off_c, 5, 77, 0
7, 562688, Note_on_c, 5, 76, 96
7, 562688, Note_off_c, 5, 65, 0
7, 562688, Note_on_c, 5, 65, 96
7, 562688, Note_off_c, 5, 60, 0
7, 562688, Note_on_c, 5, 60, 96
7, 562688, Note_off_c, 5, 60, 0
7, 562688, Note_on_c, 5, 58, 96
7, 562944, Note_off_c, 5, 76, 0
7, 562944, Note_on_c, 5, 77, 96
7, 562944, Note_off_c, 5, 76, 0
7, 562944, Note_on_c, 5, 77, 96
7, 563200, Note_off_c, 5, 77, 0
7, 563200, Note_on_c, 5, 72, 96
7, 563200, Note_off_c, 5, 77, 0
7, 563200, Note_on_c, 5, 72, 96
7, 563200, Note_off_c, 5, 65, 0
7, 563200, Note_on_c, 5, 65, 96
7, 563200, Note_off_c, 5, 60, 0
7, 563200, Note_on_c, 5, 60, 96
7, 563200, Note_off_c, 5, 58, 0
7, 563200, Note_on_c, 5, 60, 96
7, 563456, Note_off_c, 5, 72, 0
7, 563456, Note_on_c, 5, 77, 96
7, 563456, Note_off_c, 5, 72, 0
7, 563456, Note_on_c, 5, 77, 96
7, 563712, Note_off_c, 5, 77, 0
7, 563712, Note_on_c, 5, 84, 96
7, 563712, Note_off_c, 5, 77, 0
7, 563712, Note_on_c, 5, 84, 96
7, 563712, Note_off_c, 5, 65, 0
7, 563712, Note_on_c, 5, 65, 96
7, 563712, Note_off_c, 5, 60, 0
7, 563712, Note_on_c, 5, 60, 96
7, 563712, Note_off_c, 5, 60, 0
7, 563712, Note_on_c, 5, 57, 96
7, 563968, Note_off_c, 5, 84, 0
7, 563968, Note_on_c, 5, 77, 96
7, 563968, Note_off_c, 5, 84, 0
7, 563968, Note_on_c, 5, 77, 96
7, 564224, Note_off_c, 5, 77, 0
7, 564224, Note_on_c, 5, 76, 96
7, 564224, Note_off_c, 5, 77, 0
7, 564224, Note_on_c, 5, 76, 96
7, 564224, Note_off_c, 5, 65, 0
7, 564224, Note_on_c, 5, 65, 96
7, 564224, Note_off_c, 5, 60, 0
7, 564224, Note_on_c, 5, 60, 96
7, 564224, Note_off_c, 5, 57, 0
7, 564224, Note_on_c, 5, 58, 96
7, 564480, Note_off_c, 5, 76, 0
7, 564480, Note_on_c, 5, 77, 96
7, 564480, Note_off_c, 5, 76, 0
7, 564480, Note_on_c, 5, 77, 96
7, 564736, Note_off_c, 5, 77, 0
7, 564736, Note_on_c, 5, 72, 96
7, 564736, Note_off_c, 5, 77, 0
7, 564736, Note_on_c, 5, 72, 96
7, 564736, Note_off_c, 5, 65, 0
7, 564736, Note_on_c, 5, 65, 96
7, 564736, Note_off_c, 5, 60, 0
7, 564736, Note_on_c, 5, 60, 96
7, 564736, Note_off_c, 5, 58, 0
7, 564736, Note_on_c, 5, 60, 96
7, 564992, Note_off_c, 5, 72, 0
7, 564992, Note_on_c, 5, 77, 96
7, 564992, Note_off_c, 5, 72, 0
7, 564992, Note_on_c, 5, 77, 96
7, 565248, Note_off_c, 5, 77, 0
7, 565248, Note_off_c, 5, 77, 0
7, 565248, Note_off_c, 5, 65, 0
7, 565248, Note_off_c, 5, 60, 0
7, 565248, Note_off_c, 5, 60, 0
7, 565248, Note_on_c, 5, 70, 96
7, 565248, Note_on_c, 5, 70, 96
7, 565248, Note_on_c, 5, 65, 96
7, 565248, Note_on_c, 5, 58, 96
7, 565248, Note_on_c, 5, 62, 96
7, 565504, Note_off_c, 5, 70, 0
7, 565504, Note_on_c, 5, 70, 96
7, 565504, Note_off_c, 5, 70, 0
7, 565504, Note_on_c, 5, 70, 96
7, 565760, Note_off_c, 5, 70, 0
7, 565760, Note_on_c, 5, 69, 96
7, 565760, Note_off_c, 5, 70, 0
7, 565760, Note_on_c, 5, 69, 96
7, 565760, Note_off_c, 5, 65, 0
7, 565760, Note_on_c, 5, 64, 96
7, 565760, Note_off_c, 5, 62, 0
7, 565760, Note_on_c, 5, 60, 96
7, 566016, Note_off_c, 5, 69, 0
7, 566016, Note_on_c, 5, 70, 96
7, 566016, Note_off_c, 5, 69, 0
7, 566016, Note_on_c, 5, 70, 96
7, 566272, Note_off_c, 5, 70, 0
7, 566272, Note_on_c, 5, 65, 96
7, 566272, Note_off_c, 5, 70, 0
7, 566272, Note_on_c, 5, 65, 96
7, 566272, Note_off_c, 5, 64, 0
7, 566272, Note_on_c, 5, 62, 96
7, 566272, Note_off_c, 5, 58, 0
7, 566272, Note_on_c, 5, 57, 96
7, 566272, Note_off_c, 5, 60, 0
7, 566272, Note_on_c, 5, 62, 96
7, 566528, Note_off_c, 5, 65, 0
7, 566528, Note_on_c, 5, 70, 96
7, 566528, Note_off_c, 5, 65, 0
7, 566528, Note_on_c, 5, 70, 96
7, 566784, Note_off_c, 5, 70, 0
7, 566784, Note_on_c, 5, 79, 96
7, 566784, Note_off_c, 5, 70, 0
7, 566784, Note_on_c, 5, 79, 96
7, 566784, Note_off_c, 5, 62, 0
7, 566784, Note_on_c, 5, 67, 96
7, 566784, Note_off_c, 5, 57, 0
7, 566784, Note_on_c, 5, 55, 96
7, 566784, Note_off_c, 5, 62, 0
7, 566784, Note_on_c, 5, 64, 96
7, 567040, Note_off_c, 5, 79, 0
7, 567040, Note_on_c, 5, 72, 96
7, 567040, Note_off_c, 5, 79, 0
7, 567040, Note_on_c, 5, 72, 96
7, 567296, Note_off_c, 5, 72, 0
7, 567296, Note_on_c, 5, 70, 96
7, 567296, Note_off_c, 5, 72, 0
7, 567296, Note_on_c, 5, 70, 96
7, 567296, Note_off_c, 5, 64, 0
7, 567296, Note_on_c, 5, 62, 96
7, 567552, Note_off_c, 5, 70, 0
7, 567552, Note_on_c, 5, 72, 96
7, 567552, Note_off_c, 5, 70, 0
7, 567552, Note_on_c, 5, 72, 96
7, 567808, Note_off_c, 5, 72, 0
7, 567808, Note_on_c, 5, 67, 96
7, 567808, Note_off_c, 5, 72, 0
7, 567808, Note_on_c, 5, 67, 96
7, 567808, Note_off_c, 5, 55, 0
7, 567808, Note_on_c, 5, 60, 96
7, 567808, Note_off_c, 5, 62, 0
7, 567808, Note_on_c, 5, 60, 96
7, 568064, Note_off_c, 5, 67, 0
7, 568064, Note_on_c, 5, 72, 96
7, 568064, Note_off_c, 5, 67, 0
7, 568064, Note_on_c, 5, 72, 96
7, 568320, Note_off_c, 5, 72, 0
7, 568320, Note_on_c, 5, 60, 96
7, 568320, Note_off_c, 5, 72, 0
7, 568320, Note_on_c, 5, 60, 96
7, 568320, Note_off_c, 5, 60, 0
7, 568320, Note_on_c, 5, 60, 96
7, 568320, Note_off_c, 5, 60, 0
7, 568320, Note_on_c, 5, 65, 96
7, 568576, Note_off_c, 5, 60, 0
7, 568576, Note_on_c, 5, 72, 96
7, 568576, Note_off_c, 5, 60, 0
7, 568576, Note_on_c, 5, 72, 96
7, 568832, Note_off_c, 5, 72, 0
7, 568832, Note_on_c, 5, 70, 96
7, 568832, Note_off_c, 5, 72, 0
7, 568832, Note_on_c, 5, 70, 96
7, 568832, Note_off_c, 5, 67, 0
7, 568832, Note_on_c, 5, 65, 96
7, 568832, Note_off_c, 5, 60, 0
7, 568832, Note_on_c, 5, 58, 96
7, 568832, Note_off_c, 5, 65, 0
7, 568832, Note_on_c, 5, 67, 96
7, 569088, Note_off_c, 5, 70, 0
7, 569088, Note_on_c, 5, 72, 96
7, 569088, Note_off_c, 5, 70, 0
7, 569088, Note_on_c, 5, 72, 96
7, 569344, Note_off_c, 5, 72, 0
7, 569344, Note_on_c, 5, 69, 96
7, 569344, Note_off_c, 5, 72, 0
7, 569344, Note_on_c, 5, 69, 96
7, 569344, Note_off_c, 5, 65, 0
7, 569344, Note_on_c, 5, 64, 96
7, 569344, Note_off_c, 5, 58, 0
7, 569344, Note_on_c, 5, 60, 96
7, 569344, Note_off_c, 5, 67, 0
7, 569344, Note_on_c, 5, 69, 96
7, 569600, Note_off_c, 5, 69, 0
7, 569600, Note_on_c, 5, 72, 96
7, 569600, Note_off_c, 5, 69, 0
7, 569600, Note_on_c, 5, 72, 96
7, 569856, Note_off_c, 5, 72, 0
7, 569856, Note_on_c, 5, 77, 96
7, 569856, Note_off_c, 5, 72, 0
7, 569856, Note_on_c, 5, 77, 96
7, 569856, Note_off_c, 5, 64, 0
7, 569856, Note_on_c, 5, 65, 96
7, 569856, Note_off_c, 5, 60, 0
7, 569856, Note_on_c, 5, 62, 96
7, 569856, Note_off_c, 5, 69, 0
7, 569856, Note_on_c, 5, 62, 96
7, 570112, Note_off_c, 5, 77, 0
7, 570112, Note_on_c, 5, 69, 96
7, 570112, Note_off_c, 5, 77, 0
7, 570112, Note_on_c, 5, 69, 96
7, 570368, Note_off_c, 5, 69, 0
7, 570368, Note_on_c, 5, 67, 96
7, 570368, Note_off_c, 5, 69, 0
7, 570368, Note_on_c, 5, 67, 96
7, 570368, Note_off_c, 5, 62, 0
7, 570368, Note_on_c, 5, 64, 96
7, 570624, Note_off_c, 5, 67, 0
7, 570624, Note_on_c, 5, 69, 96
7, 570624, Note_off_c, 5, 67, 0
7, 570624, Note_on_c, 5, 69, 96
7, 570880, Note_off_c, 5, 69, 0
7, 570880, Note_on_c, 5, 65, 96
7, 570880, Note_off_c, 5, 69, 0
7, 570880, Note_on_c, 5, 65, 96
7, 570880, Note_off_c, 5, 64, 0
7, 570880, Note_on_c, 5, 65, 96
7, 571136, Note_off_c, 5, 65, 0
7, 571136, Note_on_c, 5, 69, 96
7, 571136, Note_off_c, 5, 65, 0
7, 571136, Note_on_c, 5, 69, 96
7, 571392, Note_off_c, 5, 69, 0
7, 571392, Note_off_c, 5, 69, 0
7, 571392, Note_off_c, 5, 65, 0
7, 571392, Note_on_c, 5, 62, 96
7, 571392, Note_on_c, 5, 62, 96
7, 571392, Note_on_c, 5, 58, 96
7, 571648, Note_off_c, 5, 62, 0
7, 571648, Note_on_c, 5, 74, 96
7, 571648, Note_off_c, 5, 62, 0
7, 571648, Note_on_c, 5, 74, 96
7, 571904, Note_off_c, 5, 74, 0
7, 571904, Note_on_c, 5, 72, 96
7, 571904, Note_off_c, 5, 74, 0
7, 571904, Note_on_c, 5, 72, 96
7, 571904, Note_off_c, 5, 65, 0
7, 571904, Note_on_c, 5, 64, 96
7, 571904, Note_off_c, 5, 62, 0
7, 571904, Note_on_c, 5, 64, 96
7, 571904, Note_off_c, 5, 58, 0
7, 571904, Note_on_c, 5, 60, 96
7, 572160, Note_off_c, 5, 72, 0
7, 572160, Note_on_c, 5, 74, 96
7, 572160, Note_off_c, 5, 72, 0
7, 572160, Note_on_c, 5, 74, 96
7, 572416, Note_off_c, 5, 74, 0
7, 572416, Note_on_c, 5, 70, 96
7, 572416, Note_off_c, 5, 74, 0
7, 572416, Note_on_c, 5, 70, 96
7, 572416, Note_off_c, 5, 64, 0
7, 572416, Note_on_c, 5, 62, 96
7, 572416, Note_off_c, 5, 64, 0
7, 572416, Note_on_c, 5, 65, 96
7, 572416, Note_off_c, 5, 60, 0
7, 572416, Note_on_c, 5, 62, 96
7, 572672, Note_off_c, 5, 70, 0
7, 572672, Note_on_c, 5, 74, 96
7, 572672, Note_off_c, 5, 70, 0
7, 572672, Note_on_c, 5, 74, 96
7, 572928, Note_off_c, 5, 74, 0
7, 572928, Note_on_c, 5, 77, 96
7, 572928, Note_off_c, 5, 74, 0
7, 572928, Note_on_c, 5, 77, 96
7, 572928, Note_off_c, 5, 62, 0
7, 572928, Note_on_c, 5, 70, 96
7, 572928, Note_off_c, 5, 65, 0
7, 572928, Note_on_c, 5, 67, 96
7, 572928, Note_off_c, 5, 62, 0
7, 572928, Note_on_c, 5, 55, 96
7, 573184, Note_off_c, 5, 77, 0
7, 573184, Note_on_c, 5, 74, 96
7, 573184, Note_off_c, 5, 77, 0
7, 573184, Note_on_c, 5, 74, 96
7, 573440, Note_off_c, 5, 74, 0
7, 573440, Note_on_c, 5, 72, 96
7, 573440, Note_off_c, 5, 74, 0
7, 573440, Note_on_c, 5, 72, 96
7, 573440, Note_off_c, 5, 55, 0
7, 573440, Note_on_c, 5, 57, 96
7, 573696, Note_off_c, 5, 72, 0
7, 573696, Note_on_c, 5, 74, 96
7, 573696, Note_off_c, 5, 72, 0
7, 573696, Note_on_c, 5, 74, 96
7, 573952, Note_off_c, 5, 74, 0
7, 573952, Note_on_c, 5, 70, 96
7, 573952, Note_off_c, 5, 74, 0
7, 573952, Note_on_c, 5, 70, 96
7, 573952, Note_off_c, 5, 67, 0
7, 573952, Note_on_c, 5, 65, 96
7, 573952, Note_off_c, 5, 57, 0
7, 573952, Note_on_c, 5, 58, 96
7, 574208, Note_off_c, 5, 70, 0
7, 574208, Note_on_c, 5, 74, 96
7, 574208, Note_off_c, 5, 70, 0
7, 574208, Note_on_c, 5, 74, 96
7, 574464, Note_off_c, 5, 74, 0
7, 574464, Note_on_c, 5, 67, 96
7, 574464, Note_off_c, 5, 74, 0
7, 574464, Note_on_c, 5, 67, 96
7, 574464, Note_off_c, 5, 65, 0
7, 574464, Note_on_c, 5, 64, 96
7, 574464, Note_off_c, 5, 58, 0
7, 574464, Note_on_c, 5, 60, 96
7, 574720, Note_off_c, 5, 67, 0
7, 574720, Note_on_c, 5, 72, 96
7, 574720, Note_off_c, 5, 67, 0
7, 574720, Note_on_c, 5, 72, 96
7, 574976, Note_off_c, 5, 72, 0
7, 574976, Note_on_c, 5, 70, 96
7, 574976, Note_off_c, 5, 72, 0
7, 574976, Note_on_c, 5, 70, 96
7, 574976, Note_off_c, 5, 70, 0
7, 574976, Note_on_c, 5, 67, 96
7, 575232, Note_off_c, 5, 70, 0
7, 575232, Note_on_c, 5, 72, 96
7, 575232, Note_off_c, 5, 70, 0
7, 575232, Note_on_c, 5, 72, 96
7, 575488, Note_off_c, 5, 72, 0
7, 575488, Note_on_c, 5, 67, 96
7, 575488, Note_off_c, 5, 72, 0
7, 575488, Note_on_c, 5, 67, 96
7, 575488, Note_off_c, 5, 67, 0
7, 575488, Note_on_c, 5, 65, 96
7, 575488, Note_off_c, 5, 64, 0
7, 575488, Note_on_c, 5, 62, 96
7, 575488, Note_off_c, 5, 60, 0
7, 575488, Note_on_c, 5, 48, 96
7, 575744, Note_off_c, 5, 67, 0
7, 575744, Note_on_c, 5, 72, 96
7, 575744, Note_off_c, 5, 67, 0
7, 575744, Note_on_c, 5, 72, 96
7, 576000, Note_off_c, 5, 72, 0
7, 576000, Note_on_c, 5, 76, 96
7, 576000, Note_off_c, 5, 72, 0
7, 576000, Note_on_c, 5, 76, 96
7, 576000, Note_off_c, 5, 65, 0
7, 576000, Note_on_c, 5, 64, 96
7, 576000, Note_off_c, 5, 62, 0
7, 576000, Note_on_c, 5, 60, 96
7, 576000, Note_off_c, 5, 48, 0
7, 576000, Note_on_c, 5, 60, 96
7, 576256, Note_off_c, 5, 76, 0
7, 576256, Note_on_c, 5, 72, 96
7, 576256, Note_off_c, 5, 76, 0
7, 576256, Note_on_c, 5, 72, 96
7, 576512, Note_off_c, 5, 72, 0
7, 576512, Note_on_c, 5, 70, 96
7, 576512, Note_off_c, 5, 72, 0
7, 576512, Note_on_c, 5, 70, 96
7, 576768, Note_off_c, 5, 70, 0
7, 576768, Note_on_c, 5, 72, 96
7, 576768, Note_off_c, 5, 70, 0
7, 576768, Note_on_c, 5, 72, 96
7, 577024, Note_off_c, 5, 72, 0
7, 577024, Note_on_c, 5, 67, 96
7, 577024, Note_off_c, 5, 72, 0
7, 577024, Note_on_c, 5, 67, 96
7, 577024, Note_off_c, 5, 60, 0
7, 577024, Note_on_c, 5, 58, 96
7, 577280, Note_off_c, 5, 67, 0
7, 577280, Note_on_c, 5, 72, 96
7, 577280, Note_off_c, 5, 67, 0
7, 577280, Note_on_c, 5, 72, 96
7, 577536, Note_off_c, 5, 72, 0
7, 577536, Note_off_c, 5, 72, 0
7, 577536, Note_off_c, 5, 64, 0
7, 577536, Note_off_c, 5, 58, 0
7, 577536, Note_on_c, 5, 65, 96
7, 577536, Note_on_c, 5, 65, 96
7, 577536, Note_on_c, 5, 65, 96
7, 577536, Note_on_c, 5, 57, 96
7, 577792, Note_off_c, 5, 65, 0
7, 577792, Note_on_c, 5, 77, 96
7, 577792, Note_off_c, 5, 65, 0
7, 577792, Note_on_c, 5, 77, 96
7, 578048, Note_off_c, 5, 77, 0
7, 578048, Note_on_c, 5, 76, 96
7, 578048, Note_off_c, 5, 77, 0
7, 578048, Note_on_c, 5, 76, 96
7, 578048, Note_off_c, 5, 57, 0
7, 578048, Note_on_c, 5, 58, 96
7, 578304, Note_off_c, 5, 76, 0
7, 578304, Note_on_c, 5, 77, 96
7, 578304, Note_off_c, 5, 76, 0
7, 578304, Note_on_c, 5, 77, 96
7, 578560, Note_off_c, 5, 77, 0
7, 578560, Note_on_c, 5, 72, 96
7, 578560, Note_off_c, 5, 77, 0
7, 578560, Note_on_c, 5, 72, 96
7, 578560, Note_off_c, 5, 65, 0
7, 578560, Note_on_c, 5, 69, 96
7, 578560, Note_off_c, 5, 60, 0
7, 578560, Note_on_c, 5, 60, 96
7, 578560, Note_off_c, 5, 58, 0
7, 578560, Note_on_c, 5, 60, 96
7, 578816, Note_off_c, 5, 72, 0
7, 578816, Note_on_c, 5, 77, 96
7, 578816, Note_off_c, 5, 72, 0
7, 578816, Note_on_c, 5, 77, 96
7, 579072, Note_off_c, 5, 77, 0
7, 579072, Note_on_c, 5, 81, 96
7, 579072, Note_off_c, 5, 77, 0
7, 579072, Note_on_c, 5, 81, 96
7, 579072, Note_off_c, 5, 69, 0
7, 579072, Note_on_c, 5, 72, 96
7, 579072, Note_off_c, 5, 60, 0
7, 579072, Note_on_c, 5, 63, 96
7, 579072, Note_off_c, 5, 60, 0
7, 579072, Note_on_c, 5, 53, 96
7, 579328, Note_off_c, 5, 81, 0
7, 579328, Note_on_c, 5, 77, 96
7, 579328, Note_off_c, 5, 81, 0
7, 579328, Note_on_c, 5, 77, 96
7, 579584, Note_off_c, 5, 77, 0
7, 579584, Note_on_c, 5, 76, 96
7, 579584, Note_off_c, 5, 77, 0
7, 579584, Note_on_c, 5, 76, 96
7, 579584, Note_off_c, 5, 53, 0
7, 579584, Note_on_c, 5, 55, 96
7, 579840, Note_off_c, 5, 76, 0
7, 579840, Note_on_c, 5, 77, 96
7, 579840, Note_off_c, 5, 76, 0
7, 579840, Note_on_c, 5, 77, 96
7, 580096, Note_off_c, 5, 77, 0
7, 580096, Note_on_c, 5, 72, 96
7, 580096, Note_off_c, 5, 77, 0
7, 580096, Note_on_c, 5, 72, 96
7, 580096, Note_off_c, 5, 63, 0
7, 580096, Note_on_c, 5, 65, 96
7, 580096, Note_off_c, 5, 55, 0
7, 580096, Note_on_c, 5, 57, 96
7, 580352, Note_off_c, 5, 72, 0
7, 580352, Note_on_c, 5, 77, 96
7, 580352, Note_off_c, 5, 72, 0
7, 580352, Note_on_c, 5, 77, 96
7, 580608, Note_off_c, 5, 77, 0
7, 580608, Note_on_c, 5, 70, 96
7, 580608, Note_off_c, 5, 77, 0
7, 580608, Note_on_c, 5, 70, 96
7, 580608, Note_off_c, 5, 65, 0
7, 580608, Note_on_c, 5, 63, 96
7, 580608, Note_off_c, 5, 57, 0
7, 580608, Note_on_c, 5, 58, 96
7, 580864, Note_off_c, 5, 70, 0
7, 580864, Note_on_c, 5, 67, 96
7, 580864, Note_off_c, 5, 70, 0
7, 580864, Note_on_c, 5, 67, 96
7, 581120, Note_off_c, 5, 67, 0
7, 581120, Note_on_c, 5, 65, 96
7, 581120, Note_off_c, 5, 67, 0
7, 581120, Note_on_c, 5, 65, 96
7, 581120, Note_off_c, 5, 72, 0
7, 581120, Note_on_c, 5, 70, 96
7, 581120, Note_off_c, 5, 63, 0
7, 581120, Note_on_c, 5, 62, 96
7, 581376, Note_off_c, 5, 65, 0
7, 581376, Note_on_c, 5, 67, 96
7, 581376, Note_off_c, 5, 65, 0
7, 581376, Note_on_c, 5, 67, 96
7, 581632, Note_off_c, 5, 67, 0
7, 581632, Note_on_c, 5, 63, 96
7, 581632, Note_off_c, 5, 67, 0
7, 581632, Note_on_c, 5, 63, 96
7, 581632, Note_off_c, 5, 70, 0
7, 581632, Note_on_c, 5, 69, 96
7, 581632, Note_off_c, 5, 62, 0
7, 581632, Note_on_c, 5, 60, 96
7, 581632, Note_off_c, 5, 58, 0
7, 581632, Note_on_c, 5, 53, 96
7, 581888, Note_off_c, 5, 63, 0
7, 581888, Note_on_c, 5, 65, 96
7, 581888, Note_off_c, 5, 63, 0
7, 581888, Note_on_c, 5, 65, 96
7, 582144, Note_off_c, 5, 65, 0
7, 582144, Note_on_c, 5, 74, 96
7, 582144, Note_off_c, 5, 65, 0
7, 582144, Note_on_c, 5, 74, 96
7, 582144, Note_off_c, 5, 69, 0
7, 582144, Note_on_c, 5, 70, 96
7, 582144, Note_off_c, 5, 60, 0
7, 582144, Note_on_c, 5, 62, 96
7, 582144, Note_off_c, 5, 53, 0
7, 582144, Note_on_c, 5, 58, 96
7, 582400, Note_off_c, 5, 74, 0
7, 582400, Note_on_c, 5, 67, 96
7, 582400, Note_off_c, 5, 74, 0
7, 582400, Note_on_c, 5, 67, 96
7, 582656, Note_off_c, 5, 67, 0
7, 582656, Note_on_c, 5, 65, 96
7, 582656, Note_off_c, 5, 67, 0
7, 582656, Note_on_c, 5, 65, 96
7, 582656, Note_off_c, 5, 70, 0
7, 582656, Note_on_c, 5, 67, 96
7, 582656, Note_off_c, 5, 62, 0
7, 582656, Note_on_c, 5, 58, 96
7, 582656, Note_off_c, 5, 58, 0
7, 582656, Note_on_c, 5, 62, 96
7, 582912, Note_off_c, 5, 65, 0
7, 582912, Note_on_c, 5, 67, 96
7, 582912, Note_off_c, 5, 65, 0
7, 582912, Note_on_c, 5, 67, 96
7, 583168, Note_off_c, 5, 67, 0
7, 583168, Note_on_c, 5, 64, 96
7, 583168, Note_off_c, 5, 67, 0
7, 583168, Note_on_c, 5, 64, 96
7, 583168, Note_off_c, 5, 67, 0
7, 583168, Note_on_c, 5, 69, 96
7, 583168, Note_off_c, 5, 58, 0
7, 583168, Note_on_c, 5, 60, 96
7, 583168, Note_off_c, 5, 62, 0
7, 583168, Note_on_c, 5, 64, 96
7, 583424, Note_off_c, 5, 64, 0
7, 583424, Note_on_c, 5, 65, 96
7, 583424, Note_off_c, 5, 64, 0
7, 583424, Note_on_c, 5, 65, 96
7, 583680, Note_off_c, 5, 65, 0
7, 583680, Note_off_c, 5, 65, 0
7, 583680, Note_off_c, 5, 69, 0
7, 583680, Note_off_c, 5, 60, 0
7, 583680, Note_off_c, 5, 64, 0
7, 583680, Note_on_c, 5, 69, 96
7, 583680, Note_on_c, 5, 69, 96
7, 583680, Note_on_c, 5, 69, 96
7, 583680, Note_on_c, 5, 60, 96
7, 583680, Note_on_c, 5, 65, 96
7, 584704, Note_off_c, 5, 69, 0
7, 584704, Note_on_c, 5, 65, 96
7, 584704, Note_off_c, 5, 69, 0
7, 584704, Note_off_c, 5, 69, 0
7, 584704, Note_off_c, 5, 60, 0
7, 584704, Note_off_c, 5, 65, 0
7, 585216, Note_off_c, 5, 65, 0
7, 585216, Note_on_c, 5, 77, 96
7, 585472, Note_on_c, 5, 62, 96
7, 585728, Note_off_c, 5, 62, 0
7, 585728, Note_on_c, 5, 60, 96
7, 585984, Note_off_c, 5, 60, 0
7, 585984, Note_on_c, 5, 62, 96
7, 586240, Note_off_c, 5, 77, 0
7, 586240, Note_on_c, 5, 79, 96
7, 586240, Note_off_c, 5, 62, 0
7, 586240, Note_on_c, 5, 58, 96
7, 586240, Note_on_c, 5, 74, 96
7, 586240, Note_on_c, 5, 62, 96
7, 586240, Note_on_c, 5, 58, 96
7, 586496, Note_off_c, 5, 58, 0
7, 586496, Note_on_c, 5, 62, 96
7, 586752, Note_off_c, 5, 79, 0
7, 586752, Note_on_c, 5, 75, 96
7, 586752, Note_off_c, 5, 62, 0
7, 586752, Note_on_c, 5, 67, 96
7, 586752, Note_off_c, 5, 74, 0
7, 586752, Note_on_c, 5, 70, 96
7, 586752, Note_off_c, 5, 62, 0
7, 586752, Note_on_c, 5, 67, 96
7, 586752, Note_off_c, 5, 58, 0
7, 586752, Note_on_c, 5, 55, 96
7, 587008, Note_off_c, 5, 67, 0
7, 587008, Note_on_c, 5, 63, 96
7, 587264, Note_off_c, 5, 63, 0
7, 587264, Note_on_c, 5, 62, 96
7, 587264, Note_off_c, 5, 70, 0
7, 587264, Note_off_c, 5, 67, 0
7, 587264, Note_off_c, 5, 55, 0
7, 587520, Note_off_c, 5, 62, 0
7, 587520, Note_on_c, 5, 63, 96
7, 587776, Note_off_c, 5, 75, 0
7, 587776, Note_on_c, 5, 74, 96
7, 587776, Note_off_c, 5, 63, 0
7, 587776, Note_on_c, 5, 58, 96
7, 588032, Note_off_c, 5, 58, 0
7, 588032, Note_on_c, 5, 67, 96
7, 588288, Note_off_c, 5, 74, 0
7, 588288, Note_on_c, 5, 75, 96
7, 588288, Note_off_c, 5, 67, 0
7, 588288, Note_on_c, 5, 69, 96
7, 588544, Note_off_c, 5, 69, 0
7, 588544, Note_on_c, 5, 63, 96
7, 588800, Note_off_c, 5, 75, 0
7, 588800, Note_on_c, 5, 79, 96
7, 588800, Note_off_c, 5, 63, 0
7, 588800, Note_on_c, 5, 62, 96
7, 589056, Note_off_c, 5, 62, 0
7, 589056, Note_on_c, 5, 63, 96
7, 589312, Note_off_c, 5, 79, 0
7, 589312, Note_on_c, 5, 77, 96
7, 589312, Note_off_c, 5, 63, 0
7, 589312, Note_on_c, 5, 60, 96
7, 589312, Note_on_c, 5, 72, 96
7, 589312, Note_on_c, 5, 69, 96
7, 589312, Note_on_c, 5, 53, 96
7, 589568, Note_off_c, 5, 60, 0
7, 589568, Note_on_c, 5, 69, 96
7, 589824, Note_off_c, 5, 77, 0
7, 589824, Note_off_c, 5, 69, 0
7, 589824, Note_off_c, 5, 72, 0
7, 589824, Note_off_c, 5, 69, 0
7, 589824, Note_off_c, 5, 53, 0
7, 589824, Note_on_c, 5, 74, 96
7, 589824, Note_on_c, 5, 70, 96
7, 589824, Note_on_c, 5, 74, 96
7, 589824, Note_on_c, 5, 65, 96
7, 589824, Note_on_c, 5, 58, 96
7, 590336, Note_off_c, 5, 74, 0
7, 590336, Note_off_c, 5, 65, 0
7, 590336, Note_off_c, 5, 58, 0
7, 590848, Note_off_c, 5, 74, 0
7, 590848, Note_off_c, 5, 70, 0
7, 590848, Note_on_c, 5, 60, 96
7, 591360, Note_off_c, 5, 60, 0
7, 591360, Note_on_c, 5, 74, 96
7, 591616, Note_on_c, 5, 70, 96
7, 591872, Note_off_c, 5, 70, 0
7, 591872, Note_on_c, 5, 69, 96
7, 592128, Note_off_c, 5, 69, 0
7, 592128, Note_on_c, 5, 70, 96
7, 592384, Note_off_c, 5, 70, 0
7, 592384, Note_on_c, 5, 67, 96
7, 592384, Note_off_c, 5, 74, 0
7, 592384, Note_on_c, 5, 75, 96
7, 592384, Note_on_c, 5, 70, 96
7, 592384, Note_on_c, 5, 67, 96
7, 592384, Note_on_c, 5, 55, 96
7, 592640, Note_off_c, 5, 67, 0
7, 592640, Note_on_c, 5, 70, 96
7, 592896, Note_off_c, 5, 70, 0
7, 592896, Note_on_c, 5, 76, 96
7, 592896, Note_off_c, 5, 75, 0
7, 592896, Note_on_c, 5, 72, 96
7, 592896, Note_off_c, 5, 70, 0
7, 592896, Note_on_c, 5, 67, 96
7, 592896, Note_off_c, 5, 67, 0
7, 592896, Note_on_c, 5, 64, 96
7, 592896, Note_off_c, 5, 55, 0
7, 592896, Note_on_c, 5, 60, 96
7, 593152, Note_off_c, 5, 76, 0
7, 593152, Note_on_c, 5, 72, 96
7, 593408, Note_off_c, 5, 72, 0
7, 593408, Note_on_c, 5, 70, 96
7, 593408, Note_off_c, 5, 67, 0
7, 593408, Note_off_c, 5, 64, 0
7, 593408, Note_off_c, 5, 60, 0
7, 593664, Note_off_c, 5, 70, 0
7, 593664, Note_on_c, 5, 72, 96
7, 593920, Note_off_c, 5, 72, 0
7, 593920, Note_on_c, 5, 67, 96
7, 593920, Note_off_c, 5, 72, 0
7, 593920, Note_on_c, 5, 70, 96
7, 594176, Note_off_c, 5, 67, 0
7, 594176, Note_on_c, 5, 76, 96
7, 594432, Note_off_c, 5, 76, 0
7, 594432, Note_on_c, 5, 78, 96
7, 594432, Note_off_c, 5, 70, 0
7, 594432, Note_on_c, 5, 72, 96
7, 594688, Note_off_c, 5, 78, 0
7, 594688, Note_on_c, 5, 72, 96
7, 594944, Note_off_c, 5, 72, 0
7, 594944, Note_on_c, 5, 70, 96
7, 594944, Note_off_c, 5, 72, 0
7, 594944, Note_on_c, 5, 75, 96
7, 595200, Note_off_c, 5, 70, 0
7, 595200, Note_on_c, 5, 72, 96
7, 595456, Note_off_c, 5, 72, 0
7, 595456, Note_on_c, 5, 69, 96
7, 595456, Note_off_c, 5, 75, 0
7, 595456, Note_on_c, 5, 74, 96
7, 595456, Note_on_c, 5, 69, 96
7, 595456, Note_on_c, 5, 66, 96
7, 595456, Note_on_c, 5, 62, 96
7, 595712, Note_off_c, 5, 69, 0
7, 595712, Note_on_c, 5, 78, 96
7, 595968, Note_off_c, 5, 78, 0
7, 595968, Note_off_c, 5, 74, 0
7, 595968, Note_off_c, 5, 69, 0
7, 595968, Note_off_c, 5, 66, 0
7, 595968, Note_off_c, 5, 62, 0
7, 595968, Note_on_c, 5, 79, 96
7, 595968, Note_on_c, 5, 71, 96
7, 595968, Note_on_c, 5, 71, 96
7, 595968, Note_on_c, 5, 62, 96
7, 595968, Note_on_c, 5, 55, 96
7, 596480, Note_off_c, 5, 71, 0
7, 596480, Note_off_c, 5, 62, 0
7, 596480, Note_off_c, 5, 55, 0
7, 596992, Note_off_c, 5, 79, 0
7, 596992, Note_on_c, 5, 67, 96
7, 596992, Note_off_c, 5, 71, 0
7, 597504, Note_off_c, 5, 67, 0
7, 597504, Note_on_c, 5, 79, 96
7, 597760, Note_on_c, 5, 64, 96
7, 598016, Note_off_c, 5, 64, 0
7, 598016, Note_on_c, 5, 62, 96
7, 598272, Note_off_c, 5, 62, 0
7, 598272, Note_on_c, 5, 64, 96
7, 598528, Note_off_c, 5, 79, 0
7, 598528, Note_on_c, 5, 81, 96
7, 598528, Note_off_c, 5, 64, 0
7, 598528, Note_on_c, 5, 60, 96
7, 598528, Note_on_c, 5, 76, 96
7, 598528, Note_on_c, 5, 64, 96
7, 598528, Note_on_c, 5, 60, 96
7, 598784, Note_off_c, 5, 60, 0
7, 598784, Note_on_c, 5, 64, 96
7, 599040, Note_off_c, 5, 81, 0
7, 599040, Note_on_c, 5, 77, 96
7, 599040, Note_off_c, 5, 64, 0
7, 599040, Note_on_c, 5, 69, 96
7, 599040, Note_off_c, 5, 76, 0
7, 599040, Note_on_c, 5, 72, 96
7, 599040, Note_off_c, 5, 64, 0
7, 599040, Note_on_c, 5, 69, 96
7, 599040, Note_off_c, 5, 60, 0
7, 599040, Note_on_c, 5, 57, 96
7, 599296, Note_off_c, 5, 69, 0
7, 599296, Note_on_c, 5, 65, 96
7, 599552, Note_off_c, 5, 65, 0
7, 599552, Note_on_c, 5, 64, 96
7, 599552, Note_off_c, 5, 72, 0
7, 599552, Note_off_c, 5, 69, 0
7, 599552, Note_off_c, 5, 57, 0
7, 599808, Note_off_c, 5, 64, 0
7, 599808, Note_on_c, 5, 65, 96
7, 600064, Note_off_c, 5, 77, 0
7, 600064, Note_on_c, 5, 76, 96
7, 600064, Note_off_c, 5, 65, 0
7, 600064, Note_on_c, 5, 60, 96
7, 600320, Note_off_c, 5, 60, 0
7, 600320, Note_on_c, 5, 69, 96
7, 600576, Note_off_c, 5, 76, 0
7, 600576, Note_on_c, 5, 77, 96
7, 600576, Note_off_c, 5, 69, 0
7, 600576, Note_on_c, 5, 71, 96
7, 600832, Note_off_c, 5, 71, 0
7, 600832, Note_on_c, 5, 65, 96
7, 601088, Note_off_c, 5, 77, 0
7, 601088, Note_on_c, 5, 81, 96
7, 601088, Note_off_c, 5, 65, 0
7, 601088, Note_on_c, 5, 64, 96
7, 601344, Note_off_c, 5, 64, 0
7, 601344, Note_on_c, 5, 65, 96
7, 601600, Note_off_c, 5, 81, 0
7, 601600, Note_on_c, 5, 79, 96
7, 601600, Note_off_c, 5, 65, 0
7, 601600, Note_on_c, 5, 62, 96
7, 601600, Note_on_c, 5, 74, 96
7, 601600, Note_on_c, 5, 71, 96
7, 601600, Note_on_c, 5, 55, 96
7, 601856, Note_off_c, 5, 62, 0
7, 601856, Note_on_c, 5, 71, 96
7, 602112, Note_off_c, 5, 79, 0
7, 602112, Note_off_c, 5, 71, 0
7, 602112, Note_off_c, 5, 74, 0
7, 602112, Note_off_c, 5, 71, 0
7, 602112, Note_off_c, 5, 55, 0
7, 602112, Note_on_c, 5, 76, 96
7, 602112, Note_on_c, 5, 72, 96
7, 602112, Note_on_c, 5, 76, 96
7, 602112, Note_on_c, 5, 67, 96
7, 602112, Note_on_c, 5, 60, 96
7, 602624, Note_off_c, 5, 76, 0
7, 602624, Note_off_c, 5, 67, 0
7, 602624, Note_off_c, 5, 60, 0
7, 603136, Note_off_c, 5, 76, 0
7, 603136, Note_off_c, 5, 72, 0
7, 603136, Note_on_c, 5, 64, 96
7, 603648, Note_off_c, 5, 64, 0
7, 603648, Note_on_c, 5, 76, 96
7, 603904, Note_on_c, 5, 72, 96
7, 604160, Note_off_c, 5, 72, 0
7, 604160, Note_on_c, 5, 71, 96
7, 604416, Note_off_c, 5, 71, 0
7, 604416, Note_on_c, 5, 72, 96
7, 604672, Note_off_c, 5, 72, 0
7, 604672, Note_on_c, 5, 69, 96
7, 604672, Note_off_c, 5, 76, 0
7, 604672, Note_on_c, 5, 77, 96
7, 604672, Note_on_c, 5, 72, 96
7, 604672, Note_on_c, 5, 69, 96
7, 604672, Note_on_c, 5, 57, 96
7, 604928, Note_off_c, 5, 69, 0
7, 604928, Note_on_c, 5, 72, 96
7, 605184, Note_off_c, 5, 72, 0
7, 605184, Note_on_c, 5, 78, 96
7, 605184, Note_off_c, 5, 77, 0
7, 605184, Note_on_c, 5, 74, 96
7, 605184, Note_off_c, 5, 72, 0
7, 605184, Note_on_c, 5, 69, 96
7, 605184, Note_off_c, 5, 69, 0
7, 605184, Note_on_c, 5, 66, 96
7, 605184, Note_off_c, 5, 57, 0
7, 605184, Note_on_c, 5, 62, 96
7, 605440, Note_off_c, 5, 78, 0
7, 605440, Note_on_c, 5, 74, 96
7, 605696, Note_off_c, 5, 74, 0
7, 605696, Note_on_c, 5, 72, 96
7, 605696, Note_off_c, 5, 69, 0
7, 605696, Note_off_c, 5, 66, 0
7, 605696, Note_off_c, 5, 62, 0
7, 605952, Note_off_c, 5, 72, 0
7, 605952, Note_on_c, 5, 74, 96
7, 606208, Note_off_c, 5, 74, 0
7, 606208, Note_on_c, 5, 69, 96
7, 606208, Note_off_c, 5, 74, 0
7, 606208, Note_on_c, 5, 72, 96
7, 606464, Note_off_c, 5, 69, 0
7, 606464, Note_on_c, 5, 78, 96
7, 606720, Note_off_c, 5, 78, 0
7, 606720, Note_on_c, 5, 80, 96
7, 606720, Note_off_c, 5, 72, 0
7, 606720, Note_on_c, 5, 74, 96
7, 606976, Note_off_c, 5, 80, 0
7, 606976, Note_on_c, 5, 74, 96
7, 607232, Note_off_c, 5, 74, 0
7, 607232, Note_on_c, 5, 72, 96
7, 607232, Note_off_c, 5, 74, 0
7, 607232, Note_on_c, 5, 77, 96
7, 607488, Note_off_c, 5, 72, 0
7, 607488, Note_on_c, 5, 74, 96
7, 607744, Note_off_c, 5, 74, 0
7, 607744, Note_on_c, 5, 71, 96
7, 607744, Note_off_c, 5, 77, 0
7, 607744, Note_on_c, 5, 76, 96
7, 607744, Note_on_c, 5, 71, 96
7, 607744, Note_on_c, 5, 68, 96
7, 607744, Note_on_c, 5, 64, 96
7, 608000, Note_off_c, 5, 71, 0
7, 608000, Note_on_c, 5, 80, 96
7, 608256, Note_off_c, 5, 80, 0
7, 608256, Note_off_c, 5, 76, 0
7, 608256, Note_off_c, 5, 71, 0
7, 608256, Note_off_c, 5, 68, 0
7, 608256, Note_off_c, 5, 64, 0
7, 608256, Note_on_c, 5, 81, 96
7, 608256, Note_on_c, 5, 73, 96
7, 608256, Note_on_c, 5, 73, 96
7, 608256, Note_on_c, 5, 64, 96
7, 608256, Note_on_c, 5, 57, 96
7, 608768, Note_off_c, 5, 57, 0
7, 608768, Note_on_c, 5, 59, 96
7, 609280, Note_off_c, 5, 81, 0
7, 609280, Note_on_c, 5, 69, 96
7, 609280, Note_off_c, 5, 73, 0
7, 609280, Note_on_c, 5, 69, 96
7, 609280, Note_off_c, 5, 73, 0
7, 609280, Note_on_c, 5, 69, 96
7, 609280, Note_off_c, 5, 64, 0
7, 609280, Note_on_c, 5, 69, 96
7, 609280, Note_off_c, 5, 59, 0
7, 609280, Note_on_c, 5, 61, 96
7, 609792, Note_off_c, 5, 69, 0
7, 609792, Note_on_c, 5, 81, 96
7, 609792, Note_off_c, 5, 69, 0
7, 609792, Note_on_c, 5, 81, 96
7, 609792, Note_off_c, 5, 69, 0
7, 609792, Note_on_c, 5, 81, 96
7, 609792, Note_off_c, 5, 69, 0
7, 609792, Note_on_c, 5, 77, 96
7, 609792, Note_off_c, 5, 61, 0
7, 609792, Note_on_c, 5, 62, 96
7, 610304, Note_off_c, 5, 62, 0
7, 610304, Note_on_c, 5, 64, 96
7, 610816, Note_off_c, 5, 81, 0
7, 610816, Note_on_c, 5, 82, 96
7, 610816, Note_off_c, 5, 81, 0
7, 610816, Note_on_c, 5, 82, 96
7, 610816, Note_off_c, 5, 81, 0
7, 610816, Note_on_c, 5, 82, 96
7, 610816, Note_off_c, 5, 77, 0
7, 610816, Note_on_c, 5, 74, 96
7, 610816, Note_off_c, 5, 64, 0
7, 610816, Note_on_c, 5, 65, 96
7, 611328, Note_off_c, 5, 82, 0
7, 611328, Note_on_c, 5, 79, 96
7, 611328, Note_off_c, 5, 82, 0
7, 611328, Note_on_c, 5, 79, 96
7, 611328, Note_off_c, 5, 82, 0
7, 611328, Note_on_c, 5, 79, 96
7, 611328, Note_off_c, 5, 74, 0
7, 611328, Note_on_c, 5, 76, 96
7, 611328, Note_off_c, 5, 65, 0
7, 611328, Note_on_c, 5, 67, 96
7, 611840, Note_off_c, 5, 67, 0
7, 611840, Note_on_c, 5, 69, 96
7, 612352, Note_off_c, 5, 79, 0
7, 612352, Note_on_c, 5, 77, 96
7, 612352, Note_off_c, 5, 79, 0
7, 612352, Note_on_c, 5, 77, 96
7, 612352, Note_off_c, 5, 79, 0
7, 612352, Note_on_c, 5, 77, 96
7, 612352, Note_off_c, 5, 76, 0
7, 612352, Note_on_c, 5, 74, 96
7, 612352, Note_off_c, 5, 69, 0
7, 612352, Note_on_c, 5, 70, 96
7, 612864, Note_off_c, 5, 77, 0
7, 612864, Note_on_c, 5, 79, 96
7, 612864, Note_off_c, 5, 77, 0
7, 612864, Note_on_c, 5, 79, 96
7, 612864, Note_off_c, 5, 77, 0
7, 612864, Note_on_c, 5, 79, 96
7, 612864, Note_off_c, 5, 74, 0
7, 612864, Note_on_c, 5, 76, 96
7, 612864, Note_off_c, 5, 70, 0
7, 612864, Note_on_c, 5, 69, 96
7, 613376, Note_off_c, 5, 79, 0
7, 613376, Note_on_c, 5, 76, 96
7, 613376, Note_off_c, 5, 79, 0
7, 613376, Note_on_c, 5, 76, 96
7, 613376, Note_off_c, 5, 79, 0
7, 613376, Note_on_c, 5, 76, 96
7, 613376, Note_off_c, 5, 76, 0
7, 613376, Note_on_c, 5, 69, 96
7, 613888, Note_off_c, 5, 76, 0
7, 613888, Note_on_c, 5, 77, 96
7, 613888, Note_off_c, 5, 76, 0
7, 613888, Note_on_c, 5, 77, 96
7, 613888, Note_off_c, 5, 76, 0
7, 613888, Note_on_c, 5, 77, 96
7, 613888, Note_off_c, 5, 69, 0
7, 613888, Note_on_c, 5, 74, 96
7, 613888, Note_off_c, 5, 69, 0
7, 613888, Note_on_c, 5, 57, 96
7, 614400, Note_off_c, 5, 77, 0
7, 614400, Note_off_c, 5, 77, 0
7, 614400, Note_off_c, 5, 77, 0
7, 614400, Note_off_c, 5, 74, 0
7, 614400, Note_off_c, 5, 57, 0
7, 614400, Note_on_c, 5, 77, 96
7, 614400, Note_on_c, 5, 77, 96
7, 614400, Note_on_c, 5, 77, 96
7, 614400, Note_on_c, 5, 74, 96
7, 614400, Note_on_c, 5, 62, 96
7, 614656, Note_off_c, 5, 77, 0
7, 614656, Note_on_c, 5, 77, 96
7, 614656, Note_off_c, 5, 77, 0
7, 614656, Note_on_c, 5, 77, 96
7, 614912, Note_off_c, 5, 77, 0
7, 614912, Note_on_c, 5, 76, 96
7, 614912, Note_off_c, 5, 77, 0
7, 614912, Note_on_c, 5, 76, 96
7, 614912, Note_off_c, 5, 62, 0
7, 614912, Note_on_c, 5, 64, 96
7, 615168, Note_off_c, 5, 76, 0
7, 615168, Note_on_c, 5, 77, 96
7, 615168, Note_off_c, 5, 76, 0
7, 615168, Note_on_c, 5, 77, 96
7, 615424, Note_off_c, 5, 77, 0
7, 615424, Note_on_c, 5, 74, 96
7, 615424, Note_off_c, 5, 77, 0
7, 615424, Note_on_c, 5, 74, 96
7, 615424, Note_off_c, 5, 77, 0
7, 615424, Note_on_c, 5, 69, 96
7, 615424, Note_off_c, 5, 64, 0
7, 615424, Note_on_c, 5, 65, 96
7, 615680, Note_off_c, 5, 74, 0
7, 615680, Note_on_c, 5, 77, 96
7, 615680, Note_off_c, 5, 74, 0
7, 615680, Note_on_c, 5, 77, 96
7, 615936, Note_off_c, 5, 77, 0
7, 615936, Note_on_c, 5, 82, 96
7, 615936, Note_off_c, 5, 77, 0
7, 615936, Note_on_c, 5, 82, 96
7, 615936, Note_off_c, 5, 69, 0
7, 615936, Note_on_c, 5, 70, 96
7, 615936, Note_off_c, 5, 65, 0
7, 615936, Note_on_c, 5, 67, 96
7, 616192, Note_off_c, 5, 82, 0
7, 616192, Note_on_c, 5, 74, 96
7, 616192, Note_off_c, 5, 82, 0
7, 616192, Note_on_c, 5, 74, 96
7, 616448, Note_off_c, 5, 74, 0
7, 616448, Note_on_c, 5, 72, 96
7, 616448, Note_off_c, 5, 74, 0
7, 616448, Note_on_c, 5, 72, 96
7, 616448, Note_off_c, 5, 74, 0
7, 616448, Note_on_c, 5, 67, 96
7, 616448, Note_off_c, 5, 67, 0
7, 616448, Note_on_c, 5, 69, 96
7, 616704, Note_off_c, 5, 72, 0
7, 616704, Note_on_c, 5, 74, 96
7, 616704, Note_off_c, 5, 72, 0
7, 616704, Note_on_c, 5, 74, 96
7, 616704, Note_off_c, 5, 67, 0
7, 616704, Note_on_c, 5, 65, 96
7, 616960, Note_off_c, 5, 74, 0
7, 616960, Note_on_c, 5, 70, 96
7, 616960, Note_off_c, 5, 74, 0
7, 616960, Note_on_c, 5, 70, 96
7, 616960, Note_off_c, 5, 65, 0
7, 616960, Note_on_c, 5, 67, 96
7, 616960, Note_off_c, 5, 69, 0
7, 616960, Note_on_c, 5, 70, 96
7, 617216, Note_off_c, 5, 70, 0
7, 617216, Note_on_c, 5, 74, 96
7, 617216, Note_off_c, 5, 70, 0
7, 617216, Note_on_c, 5, 74, 96
7, 617472, Note_off_c, 5, 74, 0
7, 617472, Note_on_c, 5, 67, 96
7, 617472, Note_off_c, 5, 74, 0
7, 617472, Note_on_c, 5, 67, 96
7, 617472, Note_off_c, 5, 67, 0
7, 617472, Note_on_c, 5, 72, 96
7, 617472, Note_off_c, 5, 70, 0
7, 617472, Note_on_c, 5, 60, 96
7, 617728, Note_off_c, 5, 67, 0
7, 617728, Note_on_c, 5, 76, 96
7, 617728, Note_off_c, 5, 67, 0
7, 617728, Note_on_c, 5, 76, 96
7, 617984, Note_off_c, 5, 76, 0
7, 617984, Note_on_c, 5, 74, 96
7, 617984, Note_off_c, 5, 76, 0
7, 617984, Note_on_c, 5, 74, 96
7, 617984, Note_off_c, 5, 70, 0
7, 617984, Note_on_c, 5, 69, 96
7, 617984, Note_off_c, 5, 60, 0
7, 617984, Note_on_c, 5, 62, 96
7, 618240, Note_off_c, 5, 74, 0
7, 618240, Note_on_c, 5, 76, 96
7, 618240, Note_off_c, 5, 74, 0
7, 618240, Note_on_c, 5, 76, 96
7, 618496, Note_off_c, 5, 76, 0
7, 618496, Note_on_c, 5, 72, 96
7, 618496, Note_off_c, 5, 76, 0
7, 618496, Note_on_c, 5, 72, 96
7, 618496, Note_off_c, 5, 69, 0
7, 618496, Note_on_c, 5, 67, 96
7, 618496, Note_off_c, 5, 62, 0
7, 618496, Note_on_c, 5, 64, 96
7, 618752, Note_off_c, 5, 72, 0
7, 618752, Note_on_c, 5, 76, 96
7, 618752, Note_off_c, 5, 72, 0
7, 618752, Note_on_c, 5, 76, 96
7, 619008, Note_off_c, 5, 76, 0
7, 619008, Note_on_c, 5, 81, 96
7, 619008, Note_off_c, 5, 76, 0
7, 619008, Note_on_c, 5, 81, 96
7, 619008, Note_off_c, 5, 67, 0
7, 619008, Note_on_c, 5, 69, 96
7, 619008, Note_off_c, 5, 64, 0
7, 619008, Note_on_c, 5, 65, 96
7, 619264, Note_off_c, 5, 81, 0
7, 619264, Note_on_c, 5, 72, 96
7, 619264, Note_off_c, 5, 81, 0
7, 619264, Note_on_c, 5, 72, 96
7, 619520, Note_off_c, 5, 72, 0
7, 619520, Note_on_c, 5, 70, 96
7, 619520, Note_off_c, 5, 72, 0
7, 619520, Note_on_c, 5, 70, 96
7, 619520, Note_off_c, 5, 72, 0
7, 619520, Note_on_c, 5, 65, 96
7, 619520, Note_off_c, 5, 65, 0
7, 619520, Note_on_c, 5, 67, 96
7, 619776, Note_off_c, 5, 70, 0
7, 619776, Note_on_c, 5, 72, 96
7, 619776, Note_off_c, 5, 70, 0
7, 619776, Note_on_c, 5, 72, 96
7, 619776, Note_off_c, 5, 65, 0
7, 619776, Note_on_c, 5, 64, 96
7, 620032, Note_off_c, 5, 72, 0
7, 620032, Note_on_c, 5, 69, 96
7, 620032, Note_off_c, 5, 72, 0
7, 620032, Note_on_c, 5, 69, 96
7, 620032, Note_off_c, 5, 64, 0
7, 620032, Note_on_c, 5, 65, 96
7, 620032, Note_off_c, 5, 67, 0
7, 620032, Note_on_c, 5, 69, 96
7, 620288, Note_off_c, 5, 69, 0
7, 620288, Note_on_c, 5, 72, 96
7, 620288, Note_off_c, 5, 69, 0
7, 620288, Note_on_c, 5, 72, 96
7, 620544, Note_off_c, 5, 72, 0
7, 620544, Note_off_c, 5, 72, 0
7, 620544, Note_off_c, 5, 65, 0
7, 620544, Note_off_c, 5, 69, 0
7, 620544, Note_on_c, 5, 65, 96
7, 620544, Note_on_c, 5, 65, 96
7, 620544, Note_on_c, 5, 70, 96
7, 620544, Note_on_c, 5, 58, 96
7, 620800, Note_off_c, 5, 65, 0
7, 620800, Note_on_c, 5, 74, 96
7, 620800, Note_off_c, 5, 65, 0
7, 620800, Note_on_c, 5, 74, 96
7, 621056, Note_off_c, 5, 74, 0
7, 621056, Note_on_c, 5, 72, 96
7, 621056, Note_off_c, 5, 74, 0
7, 621056, Note_on_c, 5, 72, 96
7, 621056, Note_off_c, 5, 69, 0
7, 621056, Note_on_c, 5, 67, 96
7, 621056, Note_off_c, 5, 58, 0
7, 621056, Note_on_c, 5, 60, 96
7, 621312, Note_off_c, 5, 72, 0
7, 621312, Note_on_c, 5, 74, 96
7, 621312, Note_off_c, 5, 72, 0
7, 621312, Note_on_c, 5, 74, 96
7, 621568, Note_off_c, 5, 74, 0
7, 621568, Note_on_c, 5, 70, 96
7, 621568, Note_off_c, 5, 74, 0
7, 621568, Note_on_c, 5, 70, 96
7, 621568, Note_off_c, 5, 67, 0
7, 621568, Note_on_c, 5, 65, 96
7, 621568, Note_off_c, 5, 60, 0
7, 621568, Note_on_c, 5, 62, 96
7, 621824, Note_off_c, 5, 70, 0
7, 621824, Note_on_c, 5, 74, 96
7, 621824, Note_off_c, 5, 70, 0
7, 621824, Note_on_c, 5, 74, 96
7, 622080, Note_off_c, 5, 74, 0
7, 622080, Note_on_c, 5, 79, 96
7, 622080, Note_off_c, 5, 74, 0
7, 622080, Note_on_c, 5, 79, 96
7, 622080, Note_off_c, 5, 65, 0
7, 622080, Note_on_c, 5, 67, 96
7, 622080, Note_off_c, 5, 62, 0
7, 622080, Note_on_c, 5, 64, 96
7, 622336, Note_off_c, 5, 79, 0
7, 622336, Note_on_c, 5, 70, 96
7, 622336, Note_off_c, 5, 79, 0
7, 622336, Note_on_c, 5, 70, 96
7, 622592, Note_off_c, 5, 70, 0
7, 622592, Note_on_c, 5, 69, 96
7, 622592, Note_off_c, 5, 70, 0
7, 622592, Note_on_c, 5, 69, 96
7, 622592, Note_off_c, 5, 70, 0
7, 622592, Note_on_c, 5, 64, 96
7, 622592, Note_off_c, 5, 64, 0
7, 622592, Note_on_c, 5, 65, 96
7, 622848, Note_off_c, 5, 69, 0
7, 622848, Note_on_c, 5, 70, 96
7, 622848, Note_off_c, 5, 69, 0
7, 622848, Note_on_c, 5, 70, 96
7, 622848, Note_off_c, 5, 64, 0
7, 622848, Note_on_c, 5, 62, 96
7, 623104, Note_off_c, 5, 70, 0
7, 623104, Note_on_c, 5, 67, 96
7, 623104, Note_off_c, 5, 70, 0
7, 623104, Note_on_c, 5, 67, 96
7, 623104, Note_off_c, 5, 62, 0
7, 623104, Note_on_c, 5, 64, 96
7, 623104, Note_off_c, 5, 65, 0
7, 623104, Note_on_c, 5, 67, 96
7, 623360, Note_off_c, 5, 67, 0
7, 623360, Note_on_c, 5, 70, 96
7, 623360, Note_off_c, 5, 67, 0
7, 623360, Note_on_c, 5, 70, 96
7, 623616, Note_off_c, 5, 70, 0
7, 623616, Note_on_c, 5, 64, 96
7, 623616, Note_off_c, 5, 70, 0
7, 623616, Note_on_c, 5, 64, 96
7, 623616, Note_off_c, 5, 64, 0
7, 623616, Note_on_c, 5, 69, 96
7, 623616, Note_off_c, 5, 67, 0
7, 623616, Note_on_c, 5, 57, 96
7, 623872, Note_off_c, 5, 64, 0
7, 623872, Note_on_c, 5, 72, 96
7, 623872, Note_off_c, 5, 64, 0
7, 623872, Note_on_c, 5, 72, 96
7, 624128, Note_off_c, 5, 72, 0
7, 624128, Note_on_c, 5, 70, 96
7, 624128, Note_off_c, 5, 72, 0
7, 624128, Note_on_c, 5, 70, 96
7, 624128, Note_off_c, 5, 67, 0
7, 624128, Note_on_c, 5, 65, 96
7, 624128, Note_off_c, 5, 57, 0
7, 624128, Note_on_c, 5, 58, 96
7, 624384, Note_off_c, 5, 70, 0
7, 624384, Note_on_c, 5, 72, 96
7, 624384, Note_off_c, 5, 70, 0
7, 624384, Note_on_c, 5, 72, 96
7, 624640, Note_off_c, 5, 72, 0
7, 624640, Note_on_c, 5, 69, 96
7, 624640, Note_off_c, 5, 72, 0
7, 624640, Note_on_c, 5, 69, 96
7, 624640, Note_off_c, 5, 65, 0
7, 624640, Note_on_c, 5, 64, 96
7, 624640, Note_off_c, 5, 58, 0
7, 624640, Note_on_c, 5, 60, 96
7, 624896, Note_off_c, 5, 69, 0
7, 624896, Note_on_c, 5, 72, 96
7, 624896, Note_off_c, 5, 69, 0
7, 624896, Note_on_c, 5, 72, 96
7, 625152, Note_off_c, 5, 72, 0
7, 625152, Note_on_c, 5, 77, 96
7, 625152, Note_off_c, 5, 72, 0
7, 625152, Note_on_c, 5, 77, 96
7, 625152, Note_off_c, 5, 64, 0
7, 625152, Note_on_c, 5, 65, 96
7, 625152, Note_off_c, 5, 60, 0
7, 625152, Note_on_c, 5, 62, 96
7, 625408, Note_off_c, 5, 77, 0
7, 625408, Note_on_c, 5, 69, 96
7, 625408, Note_off_c, 5, 77, 0
7, 625408, Note_on_c, 5, 69, 96
7, 625664, Note_off_c, 5, 69, 0
7, 625664, Note_on_c, 5, 67, 96
7, 625664, Note_off_c, 5, 69, 0
7, 625664, Note_on_c, 5, 67, 96
7, 625664, Note_off_c, 5, 69, 0
7, 625664, Note_on_c, 5, 62, 96
7, 625664, Note_off_c, 5, 62, 0
7, 625664, Note_on_c, 5, 64, 96
7, 625920, Note_off_c, 5, 67, 0
7, 625920, Note_on_c, 5, 69, 96
7, 625920, Note_off_c, 5, 67, 0
7, 625920, Note_on_c, 5, 69, 96
7, 625920, Note_off_c, 5, 62, 0
7, 625920, Note_on_c, 5, 60, 96
7, 626176, Note_off_c, 5, 69, 0
7, 626176, Note_on_c, 5, 65, 96
7, 626176, Note_off_c, 5, 69, 0
7, 626176, Note_on_c, 5, 65, 96
7, 626176, Note_off_c, 5, 60, 0
7, 626176, Note_on_c, 5, 62, 96
7, 626176, Note_off_c, 5, 64, 0
7, 626176, Note_on_c, 5, 65, 96
7, 626432, Note_off_c, 5, 65, 0
7, 626432, Note_on_c, 5, 69, 96
7, 626432, Note_off_c, 5, 65, 0
7, 626432, Note_on_c, 5, 69, 96
7, 626688, Note_off_c, 5, 69, 0
7, 626688, Note_off_c, 5, 69, 0
7, 626688, Note_off_c, 5, 62, 0
7, 626688, Note_off_c, 5, 65, 0
7, 626688, Note_on_c, 5, 62, 96
7, 626688, Note_on_c, 5, 62, 96
7, 626688, Note_on_c, 5, 67, 96
7, 626688, Note_on_c, 5, 55, 96
7, 626944, Note_off_c, 5, 62, 0
7, 626944, Note_on_c, 5, 70, 96
7, 626944, Note_off_c, 5, 62, 0
7, 626944, Note_on_c, 5, 70, 96
7, 627200, Note_off_c, 5, 70, 0
7, 627200, Note_on_c, 5, 69, 96
7, 627200, Note_off_c, 5, 70, 0
7, 627200, Note_on_c, 5, 69, 96
7, 627200, Note_off_c, 5, 65, 0
7, 627200, Note_on_c, 5, 64, 96
7, 627200, Note_off_c, 5, 55, 0
7, 627200, Note_on_c, 5, 57, 96
7, 627456, Note_off_c, 5, 69, 0
7, 627456, Note_on_c, 5, 70, 96
7, 627456, Note_off_c, 5, 69, 0
7, 627456, Note_on_c, 5, 70, 96
7, 627712, Note_off_c, 5, 70, 0
7, 627712, Note_on_c, 5, 67, 96
7, 627712, Note_off_c, 5, 70, 0
7, 627712, Note_on_c, 5, 67, 96
7, 627712, Note_off_c, 5, 64, 0
7, 627712, Note_on_c, 5, 62, 96
7, 627712, Note_off_c, 5, 57, 0
7, 627712, Note_on_c, 5, 58, 96
7, 627968, Note_off_c, 5, 67, 0
7, 627968, Note_on_c, 5, 70, 96
7, 627968, Note_off_c, 5, 67, 0
7, 627968, Note_on_c, 5, 70, 96
7, 628224, Note_off_c, 5, 70, 0
7, 628224, Note_on_c, 5, 76, 96
7, 628224, Note_off_c, 5, 70, 0
7, 628224, Note_on_c, 5, 76, 96
7, 628224, Note_off_c, 5, 62, 0
7, 628224, Note_on_c, 5, 64, 96
7, 628224, Note_off_c, 5, 58, 0
7, 628224, Note_on_c, 5, 60, 96
7, 628480, Note_off_c, 5, 76, 0
7, 628480, Note_on_c, 5, 67, 96
7, 628480, Note_off_c, 5, 76, 0
7, 628480, Note_on_c, 5, 67, 96
7, 628736, Note_off_c, 5, 67, 0
7, 628736, Note_on_c, 5, 65, 96
7, 628736, Note_off_c, 5, 67, 0
7, 628736, Note_on_c, 5, 65, 96
7, 628736, Note_off_c, 5, 64, 0
7, 628736, Note_on_c, 5, 65, 96
7, 628736, Note_off_c, 5, 67, 0
7, 628736, Note_on_c, 5, 60, 96
7, 628736, Note_off_c, 5, 60, 0
7, 628736, Note_on_c, 5, 62, 96
7, 628992, Note_off_c, 5, 65, 0
7, 628992, Note_on_c, 5, 67, 96
7, 628992, Note_off_c, 5, 65, 0
7, 628992, Note_on_c, 5, 67, 96
7, 628992, Note_off_c, 5, 60, 0
7, 628992, Note_on_c, 5, 58, 96
7, 629248, Note_off_c, 5, 67, 0
7, 629248, Note_on_c, 5, 64, 96
7, 629248, Note_off_c, 5, 67, 0
7, 629248, Note_on_c, 5, 64, 96
7, 629248, Note_off_c, 5, 65, 0
7, 629248, Note_on_c, 5, 67, 96
7, 629248, Note_off_c, 5, 58, 0
7, 629248, Note_on_c, 5, 60, 96
7, 629248, Note_off_c, 5, 62, 0
7, 629248, Note_on_c, 5, 64, 96
7, 629504, Note_off_c, 5, 64, 0
7, 629504, Note_on_c, 5, 67, 96
7, 629504, Note_off_c, 5, 64, 0
7, 629504, Note_on_c, 5, 67, 96
7, 629760, Note_on_c, 5, 60, 96
7, 629760, Note_off_c, 5, 67, 0
7, 629760, Note_on_c, 5, 60, 96
7, 629760, Note_off_c, 5, 67, 0
7, 629760, Note_off_c, 5, 60, 0
7, 629760, Note_on_c, 5, 60, 96
7, 629760, Note_off_c, 5, 64, 0
7, 629760, Note_on_c, 5, 65, 96
7, 630016, Note_off_c, 5, 60, 0
7, 630016, Note_on_c, 5, 69, 96
7, 630016, Note_off_c, 5, 60, 0
7, 630016, Note_on_c, 5, 69, 96
7, 630272, Note_off_c, 5, 69, 0
7, 630272, Note_on_c, 5, 67, 96
7, 630272, Note_off_c, 5, 69, 0
7, 630272, Note_on_c, 5, 67, 96
7, 630272, Note_off_c, 5, 67, 0
7, 630272, Note_on_c, 5, 65, 96
7, 630272, Note_off_c, 5, 65, 0
7, 630272, Note_on_c, 5, 67, 96
7, 630528, Note_off_c, 5, 67, 0
7, 630528, Note_on_c, 5, 69, 96
7, 630528, Note_off_c, 5, 67, 0
7, 630528, Note_on_c, 5, 69, 96
7, 630528, Note_off_c, 5, 65, 0
7, 630528, Note_on_c, 5, 64, 96
7, 630784, Note_off_c, 5, 69, 0
7, 630784, Note_on_c, 5, 65, 96
7, 630784, Note_off_c, 5, 69, 0
7, 630784, Note_on_c, 5, 65, 96
7, 630784, Note_off_c, 5, 64, 0
7, 630784, Note_on_c, 5, 65, 96
7, 630784, Note_off_c, 5, 60, 0
7, 630784, Note_on_c, 5, 60, 96
7, 630784, Note_off_c, 5, 67, 0
7, 630784, Note_on_c, 5, 69, 96
7, 631040, Note_off_c, 5, 65, 0
7, 631040, Note_on_c, 5, 69, 96
7, 631040, Note_off_c, 5, 65, 0
7, 631040, Note_on_c, 5, 69, 96
7, 631296, Note_off_c, 5, 69, 0
7, 631296, Note_on_c, 5, 77, 96
7, 631296, Note_off_c, 5, 69, 0
7, 631296, Note_on_c, 5, 77, 96
7, 631296, Note_off_c, 5, 60, 0
7, 631296, Note_on_c, 5, 62, 96
7, 631296, Note_off_c, 5, 69, 0
7, 631296, Note_on_c, 5, 62, 96
7, 631552, Note_off_c, 5, 77, 0
7, 631552, Note_on_c, 5, 69, 96
7, 631552, Note_off_c, 5, 77, 0
7, 631552, Note_on_c, 5, 69, 96
7, 631808, Note_off_c, 5, 69, 0
7, 631808, Note_on_c, 5, 67, 96
7, 631808, Note_off_c, 5, 69, 0
7, 631808, Note_on_c, 5, 67, 96
7, 631808, Note_off_c, 5, 65, 0
7, 631808, Note_on_c, 5, 67, 96
7, 631808, Note_off_c, 5, 62, 0
7, 631808, Note_on_c, 5, 64, 96
7, 632064, Note_off_c, 5, 67, 0
7, 632064, Note_on_c, 5, 69, 96
7, 632064, Note_off_c, 5, 67, 0
7, 632064, Note_on_c, 5, 69, 96
7, 632320, Note_off_c, 5, 69, 0
7, 632320, Note_on_c, 5, 65, 96
7, 632320, Note_off_c, 5, 69, 0
7, 632320, Note_on_c, 5, 65, 96
7, 632320, Note_off_c, 5, 67, 0
7, 632320, Note_on_c, 5, 69, 96
7, 632320, Note_off_c, 5, 64, 0
7, 632320, Note_on_c, 5, 65, 96
7, 632576, Note_off_c, 5, 65, 0
7, 632576, Note_on_c, 5, 69, 96
7, 632576, Note_off_c, 5, 65, 0
7, 632576, Note_on_c, 5, 69, 96
7, 632832, Note_off_c, 5, 69, 0
7, 632832, Note_off_c, 5, 69, 0
7, 632832, Note_off_c, 5, 69, 0
7, 632832, Note_off_c, 5, 65, 0
7, 632832, Note_on_c, 5, 62, 96
7, 632832, Note_on_c, 5, 62, 96
7, 632832, Note_on_c, 5, 62, 96
7, 632832, Note_on_c, 5, 58, 96
7, 633088, Note_off_c, 5, 62, 0
7, 633088, Note_on_c, 5, 74, 96
7, 633088, Note_off_c, 5, 62, 0
7, 633088, Note_on_c, 5, 74, 96
7, 633344, Note_off_c, 5, 74, 0
7, 633344, Note_on_c, 5, 72, 96
7, 633344, Note_off_c, 5, 74, 0
7, 633344, Note_on_c, 5, 72, 96
7, 633344, Note_off_c, 5, 62, 0
7, 633344, Note_on_c, 5, 64, 96
7, 633344, Note_off_c, 5, 58, 0
7, 633344, Note_on_c, 5, 60, 96
7, 633600, Note_off_c, 5, 72, 0
7, 633600, Note_on_c, 5, 74, 96
7, 633600, Note_off_c, 5, 72, 0
7, 633600, Note_on_c, 5, 74, 96
7, 633856, Note_off_c, 5, 74, 0
7, 633856, Note_on_c, 5, 70, 96
7, 633856, Note_off_c, 5, 74, 0
7, 633856, Note_on_c, 5, 70, 96
7, 633856, Note_off_c, 5, 64, 0
7, 633856, Note_on_c, 5, 65, 96
7, 633856, Note_off_c, 5, 62, 0
7, 633856, Note_on_c, 5, 62, 96
7, 633856, Note_off_c, 5, 60, 0
7, 633856, Note_on_c, 5, 62, 96
7, 634112, Note_off_c, 5, 70, 0
7, 634112, Note_on_c, 5, 74, 96
7, 634112, Note_off_c, 5, 70, 0
7, 634112, Note_on_c, 5, 74, 96
7, 634368, Note_off_c, 5, 74, 0
7, 634368, Note_on_c, 5, 77, 96
7, 634368, Note_off_c, 5, 74, 0
7, 634368, Note_on_c, 5, 77, 96
7, 634368, Note_off_c, 5, 65, 0
7, 634368, Note_on_c, 5, 67, 96
7, 634368, Note_off_c, 5, 62, 0
7, 634368, Note_on_c, 5, 58, 96
7, 634368, Note_off_c, 5, 62, 0
7, 634368, Note_on_c, 5, 55, 96
7, 634624, Note_off_c, 5, 77, 0
7, 634624, Note_on_c, 5, 74, 96
7, 634624, Note_off_c, 5, 77, 0
7, 634624, Note_on_c, 5, 74, 96
7, 634880, Note_off_c, 5, 74, 0
7, 634880, Note_on_c, 5, 72, 96
7, 634880, Note_off_c, 5, 74, 0
7, 634880, Note_on_c, 5, 72, 96
7, 634880, Note_off_c, 5, 55, 0
7, 634880, Note_on_c, 5, 57, 96
7, 635136, Note_off_c, 5, 72, 0
7, 635136, Note_on_c, 5, 74, 96
7, 635136, Note_off_c, 5, 72, 0
7, 635136, Note_on_c, 5, 74, 96
7, 635392, Note_off_c, 5, 74, 0
7, 635392, Note_on_c, 5, 70, 96
7, 635392, Note_off_c, 5, 74, 0
7, 635392, Note_on_c, 5, 70, 96
7, 635392, Note_off_c, 5, 67, 0
7, 635392, Note_on_c, 5, 65, 96
7, 635392, Note_off_c, 5, 57, 0
7, 635392, Note_on_c, 5, 58, 96
7, 635648, Note_off_c, 5, 70, 0
7, 635648, Note_on_c, 5, 74, 96
7, 635648, Note_off_c, 5, 70, 0
7, 635648, Note_on_c, 5, 74, 96
7, 635904, Note_off_c, 5, 74, 0
7, 635904, Note_on_c, 5, 67, 96
7, 635904, Note_off_c, 5, 74, 0
7, 635904, Note_on_c, 5, 67, 96
7, 635904, Note_off_c, 5, 65, 0
7, 635904, Note_on_c, 5, 64, 96
7, 635904, Note_off_c, 5, 58, 0
7, 635904, Note_on_c, 5, 60, 96
7, 636160, Note_off_c, 5, 67, 0
7, 636160, Note_on_c, 5, 72, 96
7, 636160, Note_off_c, 5, 67, 0
7, 636160, Note_on_c, 5, 72, 96
7, 636416, Note_off_c, 5, 72, 0
7, 636416, Note_on_c, 5, 70, 96
7, 636416, Note_off_c, 5, 72, 0
7, 636416, Note_on_c, 5, 70, 96
7, 636416, Note_off_c, 5, 58, 0
7, 636416, Note_on_c, 5, 67, 96
7, 636672, Note_off_c, 5, 70, 0
7, 636672, Note_on_c, 5, 72, 96
7, 636672, Note_off_c, 5, 70, 0
7, 636672, Note_on_c, 5, 72, 96
7, 636928, Note_off_c, 5, 72, 0
7, 636928, Note_on_c, 5, 67, 96
7, 636928, Note_off_c, 5, 72, 0
7, 636928, Note_on_c, 5, 67, 96
7, 636928, Note_off_c, 5, 64, 0
7, 636928, Note_on_c, 5, 62, 96
7, 636928, Note_off_c, 5, 67, 0
7, 636928, Note_on_c, 5, 65, 96
7, 636928, Note_off_c, 5, 60, 0
7, 636928, Note_on_c, 5, 48, 96
7, 637184, Note_off_c, 5, 67, 0
7, 637184, Note_on_c, 5, 72, 96
7, 637184, Note_off_c, 5, 67, 0
7, 637184, Note_on_c, 5, 72, 96
7, 637440, Note_off_c, 5, 72, 0
7, 637440, Note_on_c, 5, 76, 96
7, 637440, Note_off_c, 5, 72, 0
7, 637440, Note_on_c, 5, 76, 96
7, 637440, Note_off_c, 5, 62, 0
7, 637440, Note_on_c, 5, 60, 96
7, 637440, Note_off_c, 5, 65, 0
7, 637440, Note_on_c, 5, 64, 96
7, 637440, Note_off_c, 5, 48, 0
7, 637440, Note_on_c, 5, 60, 96
7, 637696, Note_off_c, 5, 76, 0
7, 637696, Note_on_c, 5, 72, 96
7, 637696, Note_off_c, 5, 76, 0
7, 637696, Note_on_c, 5, 72, 96
7, 637952, Note_off_c, 5, 72, 0
7, 637952, Note_on_c, 5, 70, 96
7, 637952, Note_off_c, 5, 72, 0
7, 637952, Note_on_c, 5, 70, 96
7, 638208, Note_off_c, 5, 70, 0
7, 638208, Note_on_c, 5, 72, 96
7, 638208, Note_off_c, 5, 70, 0
7, 638208, Note_on_c, 5, 72, 96
7, 638464, Note_off_c, 5, 72, 0
7, 638464, Note_on_c, 5, 67, 96
7, 638464, Note_off_c, 5, 72, 0
7, 638464, Note_on_c, 5, 67, 96
7, 638464, Note_off_c, 5, 60, 0
7, 638464, Note_on_c, 5, 58, 96
7, 638720, Note_off_c, 5, 67, 0
7, 638720, Note_on_c, 5, 72, 96
7, 638720, Note_off_c, 5, 67, 0
7, 638720, Note_on_c, 5, 72, 96
7, 638976, Note_off_c, 5, 72, 0
7, 638976, Note_off_c, 5, 72, 0
7, 638976, Note_off_c, 5, 64, 0
7, 638976, Note_off_c, 5, 58, 0
7, 638976, Note_on_c, 5, 65, 96
7, 638976, Note_on_c, 5, 65, 96
7, 638976, Note_on_c, 5, 65, 96
7, 638976, Note_on_c, 5, 57, 96
7, 639232, Note_off_c, 5, 65, 0
7, 639232, Note_on_c, 5, 77, 96
7, 639232, Note_off_c, 5, 65, 0
7, 639232, Note_on_c, 5, 77, 96
7, 639488, Note_off_c, 5, 77, 0
7, 639488, Note_on_c, 5, 76, 96
7, 639488, Note_off_c, 5, 77, 0
7, 639488, Note_on_c, 5, 76, 96
7, 639488, Note_off_c, 5, 57, 0
7, 639488, Note_on_c, 5, 58, 96
7, 639744, Note_off_c, 5, 76, 0
7, 639744, Note_on_c, 5, 77, 96
7, 639744, Note_off_c, 5, 76, 0
7, 639744, Note_on_c, 5, 77, 96
7, 640000, Note_off_c, 5, 77, 0
7, 640000, Note_on_c, 5, 72, 96
7, 640000, Note_off_c, 5, 77, 0
7, 640000, Note_on_c, 5, 72, 96
7, 640000, Note_off_c, 5, 60, 0
7, 640000, Note_on_c, 5, 60, 96
7, 640000, Note_off_c, 5, 65, 0
7, 640000, Note_on_c, 5, 57, 96
7, 640000, Note_off_c, 5, 58, 0
7, 640000, Note_on_c, 5, 60, 96
7, 640256, Note_off_c, 5, 72, 0
7, 640256, Note_on_c, 5, 77, 96
7, 640256, Note_off_c, 5, 72, 0
7, 640256, Note_on_c, 5, 77, 96
7, 640512, Note_off_c, 5, 77, 0
7, 640512, Note_on_c, 5, 81, 96
7, 640512, Note_off_c, 5, 77, 0
7, 640512, Note_on_c, 5, 81, 96
7, 640512, Note_off_c, 5, 60, 0
7, 640512, Note_on_c, 5, 63, 96
7, 640512, Note_off_c, 5, 57, 0
7, 640512, Note_on_c, 5, 60, 96
7, 640512, Note_off_c, 5, 60, 0
7, 640512, Note_on_c, 5, 53, 96
7, 640768, Note_off_c, 5, 81, 0
7, 640768, Note_on_c, 5, 77, 96
7, 640768, Note_off_c, 5, 81, 0
7, 640768, Note_on_c, 5, 77, 96
7, 641024, Note_off_c, 5, 77, 0
7, 641024, Note_on_c, 5, 76, 96
7, 641024, Note_off_c, 5, 77, 0
7, 641024, Note_on_c, 5, 76, 96
7, 641024, Note_off_c, 5, 53, 0
7, 641024, Note_on_c, 5, 55, 96
7, 641280, Note_off_c, 5, 76, 0
7, 641280, Note_on_c, 5, 77, 96
7, 641280, Note_off_c, 5, 76, 0
7, 641280, Note_on_c, 5, 77, 96
7, 641536, Note_off_c, 5, 77, 0
7, 641536, Note_on_c, 5, 72, 96
7, 641536, Note_off_c, 5, 77, 0
7, 641536, Note_on_c, 5, 72, 96
7, 641536, Note_off_c, 5, 63, 0
7, 641536, Note_on_c, 5, 65, 96
7, 641536, Note_off_c, 5, 55, 0
7, 641536, Note_on_c, 5, 57, 96
7, 641792, Note_off_c, 5, 72, 0
7, 641792, Note_on_c, 5, 77, 96
7, 641792, Note_off_c, 5, 72, 0
7, 641792, Note_on_c, 5, 77, 96
7, 642048, Note_off_c, 5, 77, 0
7, 642048, Note_on_c, 5, 70, 96
7, 642048, Note_off_c, 5, 77, 0
7, 642048, Note_on_c, 5, 70, 96
7, 642048, Note_off_c, 5, 65, 0
7, 642048, Note_on_c, 5, 63, 96
7, 642048, Note_off_c, 5, 57, 0
7, 642048, Note_on_c, 5, 58, 96
7, 642304, Note_off_c, 5, 70, 0
7, 642304, Note_on_c, 5, 67, 96
7, 642304, Note_off_c, 5, 70, 0
7, 642304, Note_on_c, 5, 67, 96
7, 642560, Note_off_c, 5, 67, 0
7, 642560, Note_on_c, 5, 65, 96
7, 642560, Note_off_c, 5, 67, 0
7, 642560, Note_on_c, 5, 65, 96
7, 642560, Note_off_c, 5, 63, 0
7, 642560, Note_on_c, 5, 62, 96
7, 642560, Note_off_c, 5, 60, 0
7, 642560, Note_on_c, 5, 58, 96
7, 642816, Note_off_c, 5, 65, 0
7, 642816, Note_on_c, 5, 67, 96
7, 642816, Note_off_c, 5, 65, 0
7, 642816, Note_on_c, 5, 67, 96
7, 643072, Note_off_c, 5, 67, 0
7, 643072, Note_on_c, 5, 63, 96
7, 643072, Note_off_c, 5, 67, 0
7, 643072, Note_on_c, 5, 63, 96
7, 643072, Note_off_c, 5, 62, 0
7, 643072, Note_on_c, 5, 60, 96
7, 643072, Note_off_c, 5, 58, 0
7, 643072, Note_on_c, 5, 57, 96
7, 643072, Note_off_c, 5, 58, 0
7, 643072, Note_on_c, 5, 53, 96
7, 643328, Note_off_c, 5, 63, 0
7, 643328, Note_on_c, 5, 65, 96
7, 643328, Note_off_c, 5, 63, 0
7, 643328, Note_on_c, 5, 65, 96
7, 643584, Note_off_c, 5, 65, 0
7, 643584, Note_on_c, 5, 74, 96
7, 643584, Note_off_c, 5, 65, 0
7, 643584, Note_on_c, 5, 74, 96
7, 643584, Note_off_c, 5, 60, 0
7, 643584, Note_on_c, 5, 62, 96
7, 643584, Note_off_c, 5, 57, 0
7, 643584, Note_on_c, 5, 58, 96
7, 643584, Note_off_c, 5, 53, 0
7, 643584, Note_on_c, 5, 58, 96
7, 643840, Note_off_c, 5, 74, 0
7, 643840, Note_on_c, 5, 67, 96
7, 643840, Note_off_c, 5, 74, 0
7, 643840, Note_on_c, 5, 67, 96
7, 644096, Note_off_c, 5, 67, 0
7, 644096, Note_on_c, 5, 65, 96
7, 644096, Note_off_c, 5, 67, 0
7, 644096, Note_on_c, 5, 65, 96
7, 644096, Note_off_c, 5, 62, 0
7, 644096, Note_on_c, 5, 58, 96
7, 644096, Note_off_c, 5, 58, 0
7, 644096, Note_on_c, 5, 55, 96
7, 644096, Note_off_c, 5, 58, 0
7, 644096, Note_on_c, 5, 65, 96
7, 644352, Note_off_c, 5, 65, 0
7, 644352, Note_on_c, 5, 67, 96
7, 644352, Note_off_c, 5, 65, 0
7, 644352, Note_on_c, 5, 67, 96
7, 644608, Note_off_c, 5, 67, 0
7, 644608, Note_on_c, 5, 64, 96
7, 644608, Note_off_c, 5, 67, 0
7, 644608, Note_on_c, 5, 64, 96
7, 644608, Note_off_c, 5, 58, 0
7, 644608, Note_on_c, 5, 60, 96
7, 644608, Note_off_c, 5, 55, 0
7, 644608, Note_on_c, 5, 57, 96
7, 644608, Note_off_c, 5, 65, 0
7, 644608, Note_on_c, 5, 64, 96
7, 644864, Note_off_c, 5, 64, 0
7, 644864, Note_on_c, 5, 65, 96
7, 644864, Note_off_c, 5, 64, 0
7, 644864, Note_on_c, 5, 65, 96
7, 645120, Note_off_c, 5, 65, 0
7, 645120, Note_off_c, 5, 65, 0
7, 645120, Note_off_c, 5, 60, 0
7, 645120, Note_off_c, 5, 57, 0
7, 645120, Note_off_c, 5, 64, 0
7, 645120, Note_on_c, 5, 69, 96
7, 645120, Note_on_c, 5, 69, 96
7, 645120, Note_on_c, 5, 60, 96
7, 645120, Note_on_c, 5, 57, 96
7, 645120, Note_on_c, 5, 65, 96
7, 646144, Note_off_c, 5, 69, 0
7, 646144, Note_off_c, 5, 69, 0
7, 646144, Note_on_c, 5, 65, 96
7, 646144, Note_off_c, 5, 60, 0
7, 646144, Note_off_c, 5, 57, 0
7, 646144, Note_off_c, 5, 65, 0
7, 646656, Note_off_c, 5, 65, 0
7, 646656, Note_on_c, 5, 72, 96
7, 647680, Note_off_c, 5, 72, 0
7, 647680, Note_on_c, 5, 74, 96
7, 648192, Note_off_c, 5, 74, 0
7, 648192, Note_on_c, 5, 70, 96
7, 649216, Note_off_c, 5, 70, 0
7, 649216, Note_on_c, 5, 69, 96
7, 649728, Note_off_c, 5, 69, 0
7, 649728, Note_on_c, 5, 70, 96
7, 650240, Note_off_c, 5, 70, 0
7, 650240, Note_on_c, 5, 67, 96
7, 650752, Note_off_c, 5, 67, 0
7, 650752, Note_on_c, 5, 69, 96
7, 651264, Note_off_c, 5, 69, 0
7, 651264, Note_on_c, 5, 69, 96
7, 651520, Note_on_c, 5, 77, 96
7, 651520, Note_off_c, 5, 69, 0
7, 651520, Note_on_c, 5, 77, 96
7, 651776, Note_off_c, 5, 77, 0
7, 651776, Note_on_c, 5, 76, 96
7, 651776, Note_off_c, 5, 77, 0
7, 651776, Note_on_c, 5, 76, 96
7, 652032, Note_off_c, 5, 76, 0
7, 652032, Note_on_c, 5, 77, 96
7, 652032, Note_off_c, 5, 76, 0
7, 652032, Note_on_c, 5, 77, 96
7, 652288, Note_off_c, 5, 77, 0
7, 652288, Note_on_c, 5, 72, 96
7, 652288, Note_off_c, 5, 77, 0
7, 652288, Note_on_c, 5, 72, 96
7, 652288, Note_on_c, 5, 65, 96
7, 652288, Note_on_c, 5, 60, 96
7, 652288, Note_on_c, 5, 57, 96
7, 652544, Note_off_c, 5, 72, 0
7, 652544, Note_on_c, 5, 77, 96
7, 652544, Note_off_c, 5, 72, 0
7, 652544, Note_on_c, 5, 77, 96
7, 652800, Note_off_c, 5, 77, 0
7, 652800, Note_on_c, 5, 81, 96
7, 652800, Note_off_c, 5, 77, 0
7, 652800, Note_on_c, 5, 81, 96
7, 652800, Note_off_c, 5, 65, 0
7, 652800, Note_on_c, 5, 65, 96
7, 652800, Note_off_c, 5, 60, 0
7, 652800, Note_on_c, 5, 60, 96
7, 652800, Note_off_c, 5, 57, 0
7, 652800, Note_on_c, 5, 57, 96
7, 653056, Note_off_c, 5, 81, 0
7, 653056, Note_on_c, 5, 77, 96
7, 653056, Note_off_c, 5, 81, 0
7, 653056, Note_on_c, 5, 77, 96
7, 653312, Note_off_c, 5, 77, 0
7, 653312, Note_on_c, 5, 76, 96
7, 653312, Note_off_c, 5, 77, 0
7, 653312, Note_on_c, 5, 76, 96
7, 653312, Note_off_c, 5, 65, 0
7, 653312, Note_on_c, 5, 65, 96
7, 653312, Note_off_c, 5, 60, 0
7, 653312, Note_on_c, 5, 60, 96
7, 653312, Note_off_c, 5, 57, 0
7, 653312, Note_on_c, 5, 57, 96
7, 653568, Note_off_c, 5, 76, 0
7, 653568, Note_on_c, 5, 77, 96
7, 653568, Note_off_c, 5, 76, 0
7, 653568, Note_on_c, 5, 77, 96
7, 653824, Note_off_c, 5, 77, 0
7, 653824, Note_on_c, 5, 72, 96
7, 653824, Note_off_c, 5, 77, 0
7, 653824, Note_on_c, 5, 72, 96
7, 653824, Note_off_c, 5, 65, 0
7, 653824, Note_on_c, 5, 65, 96
7, 653824, Note_off_c, 5, 60, 0
7, 653824, Note_on_c, 5, 60, 96
7, 653824, Note_off_c, 5, 57, 0
7, 653824, Note_on_c, 5, 57, 96
7, 654080, Note_off_c, 5, 72, 0
7, 654080, Note_on_c, 5, 77, 96
7, 654080, Note_off_c, 5, 72, 0
7, 654080, Note_on_c, 5, 77, 96
7, 654336, Note_off_c, 5, 77, 0
7, 654336, Note_on_c, 5, 69, 96
7, 654336, Note_off_c, 5, 77, 0
7, 654336, Note_on_c, 5, 69, 96
7, 654336, Note_off_c, 5, 65, 0
7, 654336, Note_on_c, 5, 65, 96
7, 654336, Note_off_c, 5, 60, 0
7, 654336, Note_on_c, 5, 60, 96
7, 654336, Note_off_c, 5, 57, 0
7, 654336, Note_on_c, 5, 57, 96
7, 654592, Note_off_c, 5, 69, 0
7, 654592, Note_on_c, 5, 77, 96
7, 654592, Note_off_c, 5, 69, 0
7, 654592, Note_on_c, 5, 77, 96
7, 654848, Note_off_c, 5, 77, 0
7, 654848, Note_on_c, 5, 76, 96
7, 654848, Note_off_c, 5, 77, 0
7, 654848, Note_on_c, 5, 76, 96
7, 654848, Note_off_c, 5, 65, 0
7, 654848, Note_on_c, 5, 65, 96
7, 654848, Note_off_c, 5, 60, 0
7, 654848, Note_on_c, 5, 60, 96
7, 654848, Note_off_c, 5, 57, 0
7, 654848, Note_on_c, 5, 57, 96
7, 655104, Note_off_c, 5, 76, 0
7, 655104, Note_on_c, 5, 77, 96
7, 655104, Note_off_c, 5, 76, 0
7, 655104, Note_on_c, 5, 77, 96
7, 655360, Note_off_c, 5, 77, 0
7, 655360, Note_on_c, 5, 72, 96
7, 655360, Note_off_c, 5, 77, 0
7, 655360, Note_on_c, 5, 72, 96
7, 655360, Note_off_c, 5, 65, 0
7, 655360, Note_on_c, 5, 65, 96
7, 655360, Note_off_c, 5, 60, 0
7, 655360, Note_on_c, 5, 60, 96
7, 655360, Note_off_c, 5, 57, 0
7, 655360, Note_on_c, 5, 57, 96
7, 655616, Note_off_c, 5, 72, 0
7, 655616, Note_on_c, 5, 77, 96
7, 655616, Note_off_c, 5, 72, 0
7, 655616, Note_on_c, 5, 77, 96
7, 655872, Note_off_c, 5, 77, 0
7, 655872, Note_on_c, 5, 81, 96
7, 655872, Note_off_c, 5, 77, 0
7, 655872, Note_on_c, 5, 81, 96
7, 655872, Note_off_c, 5, 65, 0
7, 655872, Note_on_c, 5, 65, 96
7, 655872, Note_off_c, 5, 60, 0
7, 655872, Note_on_c, 5, 60, 96
7, 655872, Note_off_c, 5, 57, 0
7, 655872, Note_on_c, 5, 57, 96
7, 656128, Note_off_c, 5, 81, 0
7, 656128, Note_on_c, 5, 77, 96
7, 656128, Note_off_c, 5, 81, 0
7, 656128, Note_on_c, 5, 77, 96
7, 656384, Note_off_c, 5, 77, 0
7, 656384, Note_on_c, 5, 76, 96
7, 656384, Note_off_c, 5, 77, 0
7, 656384, Note_on_c, 5, 76, 96
7, 656384, Note_off_c, 5, 65, 0
7, 656384, Note_on_c, 5, 65, 96
7, 656384, Note_off_c, 5, 60, 0
7, 656384, Note_on_c, 5, 60, 96
7, 656384, Note_off_c, 5, 57, 0
7, 656384, Note_on_c, 5, 57, 96
7, 656640, Note_off_c, 5, 76, 0
7, 656640, Note_on_c, 5, 77, 96
7, 656640, Note_off_c, 5, 76, 0
7, 656640, Note_on_c, 5, 77, 96
7, 656896, Note_off_c, 5, 77, 0
7, 656896, Note_on_c, 5, 72, 96
7, 656896, Note_off_c, 5, 77, 0
7, 656896, Note_on_c, 5, 72, 96
7, 656896, Note_off_c, 5, 65, 0
7, 656896, Note_on_c, 5, 65, 96
7, 656896, Note_off_c, 5, 60, 0
7, 656896, Note_on_c, 5, 60, 96
7, 656896, Note_off_c, 5, 57, 0
7, 656896, Note_on_c, 5, 57, 96
7, 657152, Note_off_c, 5, 72, 0
7, 657152, Note_on_c, 5, 77, 96
7, 657152, Note_off_c, 5, 72, 0
7, 657152, Note_on_c, 5, 77, 96
7, 657408, Note_off_c, 5, 77, 0
7, 657408, Note_off_c, 5, 77, 0
7, 657408, Note_off_c, 5, 65, 0
7, 657408, Note_off_c, 5, 60, 0
7, 657408, Note_off_c, 5, 57, 0
7, 657408, Note_on_c, 5, 69, 96
7, 657408, Note_on_c, 5, 69, 96
7, 657408, Note_on_c, 5, 65, 96
7, 657408, Note_on_c, 5, 60, 96
7, 657408, Note_on_c, 5, 57, 96
7, 657920, Note_off_c, 5, 69, 0
7, 657920, Note_on_c, 5, 65, 96
7, 658176, Note_off_c, 5, 65, 0
7, 658176, Note_on_c, 5, 67, 96
7, 658432, Note_off_c, 5, 69, 0
7, 658432, Note_on_c, 5, 72, 96
7, 658432, Note_off_c, 5, 67, 0
7, 658432, Note_on_c, 5, 69, 96
7, 658432, Note_off_c, 5, 65, 0
7, 658432, Note_off_c, 5, 60, 0
7, 658432, Note_off_c, 5, 57, 0
7, 658688, Note_off_c, 5, 69, 0
7, 658688, Note_on_c, 5, 71, 96
7, 658944, Note_off_c, 5, 72, 0
7, 658944, Note_on_c, 5, 79, 96
7, 658944, Note_off_c, 5, 71, 0
7, 658944, Note_on_c, 5, 72, 96
7, 659968, Note_off_c, 5, 79, 0
7, 659968, Note_on_c, 5, 81, 96
7, 660480, Note_off_c, 5, 81, 0
7, 660480, Note_on_c, 5, 77, 96
7, 661504, Note_off_c, 5, 77, 0
7, 661504, Note_on_c, 5, 76, 96
7, 662016, Note_off_c, 5, 76, 0
7, 662016, Note_on_c, 5, 77, 96
7, 662016, Note_off_c, 5, 72, 0
7, 662016, Note_on_c, 5, 71, 96
7, 662528, Note_off_c, 5, 77, 0
7, 662528, Note_on_c, 5, 74, 96
7, 663040, Note_off_c, 5, 74, 0
7, 663040, Note_on_c, 5, 76, 96
7, 663552, Note_off_c, 5, 76, 0
7, 663552, Note_off_c, 5, 71, 0
7, 663552, Note_on_c, 5, 76, 96
7, 663552, Note_on_c, 5, 72, 96
7, 663808, Note_off_c, 5, 76, 0
7, 663808, Note_on_c, 5, 72, 96
7, 663808, Note_off_c, 5, 72, 0
7, 663808, Note_on_c, 5, 72, 96
7, 664064, Note_off_c, 5, 72, 0
7, 664064, Note_on_c, 5, 71, 96
7, 664064, Note_off_c, 5, 72, 0
7, 664064, Note_on_c, 5, 71, 96
7, 664320, Note_off_c, 5, 71, 0
7, 664320, Note_on_c, 5, 72, 96
7, 664320, Note_off_c, 5, 71, 0
7, 664320, Note_on_c, 5, 72, 96
7, 664576, Note_off_c, 5, 72, 0
7, 664576, Note_on_c, 5, 67, 96
7, 664576, Note_off_c, 5, 72, 0
7, 664576, Note_on_c, 5, 67, 96
7, 664576, Note_on_c, 5, 60, 96
7, 664576, Note_on_c, 5, 55, 96
7, 664576, Note_on_c, 5, 52, 96
7, 664832, Note_off_c, 5, 67, 0
7, 664832, Note_on_c, 5, 72, 96
7, 664832, Note_off_c, 5, 67, 0
7, 664832, Note_on_c, 5, 72, 96
7, 665088, Note_off_c, 5, 72, 0
7, 665088, Note_on_c, 5, 76, 96
7, 665088, Note_off_c, 5, 72, 0
7, 665088, Note_on_c, 5, 76, 96
7, 665088, Note_off_c, 5, 60, 0
7, 665088, Note_on_c, 5, 60, 96
7, 665088, Note_off_c, 5, 55, 0
7, 665088, Note_on_c, 5, 55, 96
7, 665088, Note_off_c, 5, 52, 0
7, 665088, Note_on_c, 5, 52, 96
7, 665344, Note_off_c, 5, 76, 0
7, 665344, Note_on_c, 5, 72, 96
7, 665344, Note_off_c, 5, 76, 0
7, 665344, Note_on_c, 5, 72, 96
7, 665600, Note_off_c, 5, 72, 0
7, 665600, Note_on_c, 5, 71, 96
7, 665600, Note_off_c, 5, 72, 0
7, 665600, Note_on_c, 5, 71, 96
7, 665600, Note_off_c, 5, 60, 0
7, 665600, Note_on_c, 5, 60, 96
7, 665600, Note_off_c, 5, 55, 0
7, 665600, Note_on_c, 5, 55, 96
7, 665600, Note_off_c, 5, 52, 0
7, 665600, Note_on_c, 5, 52, 96
7, 665856, Note_off_c, 5, 71, 0
7, 665856, Note_on_c, 5, 72, 96
7, 665856, Note_off_c, 5, 71, 0
7, 665856, Note_on_c, 5, 72, 96
7, 666112, Note_off_c, 5, 72, 0
7, 666112, Note_on_c, 5, 67, 96
7, 666112, Note_off_c, 5, 72, 0
7, 666112, Note_on_c, 5, 67, 96
7, 666112, Note_off_c, 5, 60, 0
7, 666112, Note_on_c, 5, 60, 96
7, 666112, Note_off_c, 5, 55, 0
7, 666112, Note_on_c, 5, 55, 96
7, 666112, Note_off_c, 5, 52, 0
7, 666112, Note_on_c, 5, 52, 96
7, 666368, Note_off_c, 5, 67, 0
7, 666368, Note_on_c, 5, 72, 96
7, 666368, Note_off_c, 5, 67, 0
7, 666368, Note_on_c, 5, 72, 96
7, 666624, Note_off_c, 5, 72, 0
7, 666624, Note_on_c, 5, 64, 96
7, 666624, Note_off_c, 5, 72, 0
7, 666624, Note_on_c, 5, 64, 96
7, 666624, Note_off_c, 5, 60, 0
7, 666624, Note_on_c, 5, 60, 96
7, 666624, Note_off_c, 5, 55, 0
7, 666624, Note_on_c, 5, 55, 96
7, 666624, Note_off_c, 5, 52, 0
7, 666624, Note_on_c, 5, 52, 96
7, 666880, Note_off_c, 5, 64, 0
7, 666880, Note_on_c, 5, 72, 96
7, 666880, Note_off_c, 5, 64, 0
7, 666880, Note_on_c, 5, 72, 96
7, 667136, Note_off_c, 5, 72, 0
7, 667136, Note_on_c, 5, 71, 96
7, 667136, Note_off_c, 5, 72, 0
7, 667136, Note_on_c, 5, 71, 96
7, 667136, Note_off_c, 5, 60, 0
7, 667136, Note_on_c, 5, 60, 96
7, 667136, Note_off_c, 5, 55, 0
7, 667136, Note_on_c, 5, 55, 96
7, 667136, Note_off_c, 5, 52, 0
7, 667136, Note_on_c, 5, 52, 96
7, 667392, Note_off_c, 5, 71, 0
7, 667392, Note_on_c, 5, 72, 96
7, 667392, Note_off_c, 5, 71, 0
7, 667392, Note_on_c, 5, 72, 96
7, 667648, Note_off_c, 5, 72, 0
7, 667648, Note_on_c, 5, 67, 96
7, 667648, Note_off_c, 5, 72, 0
7, 667648, Note_on_c, 5, 67, 96
7, 667648, Note_off_c, 5, 60, 0
7, 667648, Note_on_c, 5, 60, 96
7, 667648, Note_off_c, 5, 55, 0
7, 667648, Note_on_c, 5, 55, 96
7, 667648, Note_off_c, 5, 52, 0
7, 667648, Note_on_c, 5, 52, 96
7, 667904, Note_off_c, 5, 67, 0
7, 667904, Note_on_c, 5, 72, 96
7, 667904, Note_off_c, 5, 67, 0
7, 667904, Note_on_c, 5, 72, 96
7, 668160, Note_off_c, 5, 72, 0
7, 668160, Note_on_c, 5, 76, 96
7, 668160, Note_off_c, 5, 72, 0
7, 668160, Note_on_c, 5, 76, 96
7, 668160, Note_off_c, 5, 60, 0
7, 668160, Note_on_c, 5, 60, 96
7, 668160, Note_off_c, 5, 55, 0
7, 668160, Note_on_c, 5, 55, 96
7, 668160, Note_off_c, 5, 52, 0
7, 668160, Note_on_c, 5, 52, 96
7, 668416, Note_off_c, 5, 76, 0
7, 668416, Note_on_c, 5, 72, 96
7, 668416, Note_off_c, 5, 76, 0
7, 668416, Note_on_c, 5, 72, 96
7, 668672, Note_off_c, 5, 72, 0
7, 668672, Note_on_c, 5, 71, 96
7, 668672, Note_off_c, 5, 72, 0
7, 668672, Note_on_c, 5, 71, 96
7, 668672, Note_off_c, 5, 60, 0
7, 668672, Note_on_c, 5, 60, 96
7, 668672, Note_off_c, 5, 55, 0
7, 668672, Note_on_c, 5, 55, 96
7, 668672, Note_off_c, 5, 52, 0
7, 668672, Note_on_c, 5, 52, 96
7, 668928, Note_off_c, 5, 71, 0
7, 668928, Note_on_c, 5, 72, 96
7, 668928, Note_off_c, 5, 71, 0
7, 668928, Note_on_c, 5, 72, 96
7, 669184, Note_off_c, 5, 72, 0
7, 669184, Note_on_c, 5, 67, 96
7, 669184, Note_off_c, 5, 72, 0
7, 669184, Note_on_c, 5, 67, 96
7, 669184, Note_off_c, 5, 60, 0
7, 669184, Note_on_c, 5, 60, 96
7, 669184, Note_off_c, 5, 55, 0
7, 669184, Note_on_c, 5, 55, 96
7, 669184, Note_off_c, 5, 52, 0
7, 669184, Note_on_c, 5, 52, 96
7, 669440, Note_off_c, 5, 67, 0
7, 669440, Note_on_c, 5, 72, 96
7, 669440, Note_off_c, 5, 67, 0
7, 669440, Note_on_c, 5, 72, 96
7, 669696, Note_off_c, 5, 72, 0
7, 669696, Note_off_c, 5, 72, 0
7, 669696, Note_off_c, 5, 60, 0
7, 669696, Note_off_c, 5, 55, 0
7, 669696, Note_off_c, 5, 52, 0
7, 669696, Note_on_c, 5, 64, 96
7, 669696, Note_on_c, 5, 64, 96
7, 669696, Note_on_c, 5, 60, 96
7, 669696, Note_on_c, 5, 55, 96
7, 669696, Note_on_c, 5, 52, 96
7, 670720, Note_off_c, 5, 64, 0
7, 670720, Note_off_c, 5, 64, 0
7, 670720, Note_off_c, 5, 60, 0
7, 670720, Note_off_c, 5, 55, 0
7, 670720, Note_off_c, 5, 52, 0
7, 675328, Note_on_c, 5, 76, 96
7, 675328, Note_on_c, 5, 76, 96
7, 675328, Note_on_c, 5, 76, 96
7, 675328, Note_on_c, 5, 69, 96
7, 675328, Note_on_c, 5, 64, 96
7, 675840, Note_off_c, 5, 76, 0
7, 675840, Note_off_c, 5, 76, 0
7, 675840, Note_off_c, 5, 76, 0
7, 675840, Note_off_c, 5, 69, 0
7, 675840, Note_off_c, 5, 64, 0
7, 675840, Note_on_c, 5, 77, 96
7, 675840, Note_on_c, 5, 77, 96
7, 675840, Note_on_c, 5, 77, 96
7, 675840, Note_on_c, 5, 69, 96
7, 675840, Note_on_c, 5, 62, 96
7, 676864, Note_off_c, 5, 77, 0
7, 676864, Note_off_c, 5, 77, 0
7, 676864, Note_off_c, 5, 77, 0
7, 676864, Note_off_c, 5, 69, 0
7, 676864, Note_off_c, 5, 62, 0
7, 681472, Note_on_c, 5, 78, 96
7, 681472, Note_on_c, 5, 78, 96
7, 681472, Note_on_c, 5, 78, 96
7, 681472, Note_on_c, 5, 74, 96
7, 681472, Note_on_c, 5, 69, 96
7, 681984, Note_off_c, 5, 78, 0
7, 681984, Note_off_c, 5, 78, 0
7, 681984, Note_off_c, 5, 78, 0
7, 681984, Note_off_c, 5, 74, 0
7, 681984, Note_off_c, 5, 69, 0
7, 681984, Note_on_c, 5, 79, 96
7, 681984, Note_on_c, 5, 79, 96
7, 681984, Note_on_c, 5, 79, 96
7, 681984, Note_on_c, 5, 74, 96
7, 681984, Note_on_c, 5, 70, 96
7, 683008, Note_off_c, 5, 79, 0
7, 683008, Note_on_c, 5, 84, 96
7, 683008, Note_off_c, 5, 79, 0
7, 683008, Note_on_c, 5, 72, 96
7, 683008, Note_off_c, 5, 79, 0
7, 683008, Note_off_c, 5, 74, 0
7, 683008, Note_off_c, 5, 70, 0
7, 683520, Note_off_c, 5, 84, 0
7, 683520, Note_on_c, 5, 81, 96
7, 683520, Note_off_c, 5, 72, 0
7, 683520, Note_on_c, 5, 77, 96
7, 684032, Note_off_c, 5, 81, 0
7, 684032, Note_on_c, 5, 84, 96
7, 684032, Note_off_c, 5, 77, 0
7, 684032, Note_on_c, 5, 81, 96
7, 684544, Note_off_c, 5, 84, 0
7, 684544, Note_on_c, 5, 82, 96
7, 684544, Note_off_c, 5, 81, 0
7, 684544, Note_on_c, 5, 79, 96
7, 685056, Note_off_c, 5, 82, 0
7, 685056, Note_on_c, 5, 81, 96
7, 685056, Note_off_c, 5, 79, 0
7, 685056, Note_on_c, 5, 77, 96
7, 685568, Note_off_c, 5, 81, 0
7, 685568, Note_on_c, 5, 84, 96
7, 685568, Note_off_c, 5, 77, 0
7, 685568, Note_on_c, 5, 81, 96
7, 686080, Note_off_c, 5, 84, 0
7, 686080, Note_on_c, 5, 82, 96
7, 686080, Note_off_c, 5, 81, 0
7, 686080, Note_on_c, 5, 79, 96
7, 686592, Note_off_c, 5, 82, 0
7, 686592, Note_on_c, 5, 81, 96
7, 686592, Note_off_c, 5, 79, 0
7, 686592, Note_on_c, 5, 77, 96
7, 687104, Note_off_c, 5, 81, 0
7, 687104, Note_on_c, 5, 82, 96
7, 687104, Note_off_c, 5, 77, 0
7, 687104, Note_on_c, 5, 79, 96
7, 687360, Note_off_c, 5, 82, 0
7, 687360, Note_on_c, 5, 81, 96
7, 687360, Note_off_c, 5, 79, 0
7, 687360, Note_on_c, 5, 77, 96
7, 687616, Note_off_c, 5, 81, 0
7, 687616, Note_on_c, 5, 79, 96
7, 687616, Note_off_c, 5, 77, 0
7, 687616, Note_on_c, 5, 76, 96
7, 687616, Note_on_c, 5, 81, 96
7, 687616, Note_on_c, 5, 72, 96
7, 687616, Note_on_c, 5, 69, 96
7, 687872, Note_off_c, 5, 79, 0
7, 687872, Note_on_c, 5, 77, 96
7, 687872, Note_off_c, 5, 76, 0
7, 687872, Note_on_c, 5, 74, 96
7, 688128, Note_off_c, 5, 77, 0
7, 688128, Note_off_c, 5, 74, 0
7, 688128, Note_off_c, 5, 81, 0
7, 688128, Note_off_c, 5, 72, 0
7, 688128, Note_off_c, 5, 69, 0
7, 688128, Note_on_c, 5, 79, 96
7, 688128, Note_on_c, 5, 76, 96
7, 688128, Note_on_c, 5, 84, 96
7, 688128, Note_on_c, 5, 76, 96
7, 688128, Note_on_c, 5, 67, 96
7, 688384, Note_off_c, 5, 79, 0
7, 688384, Note_on_c, 5, 76, 96
7, 688384, Note_off_c, 5, 76, 0
7, 688384, Note_on_c, 5, 76, 96
7, 688640, Note_off_c, 5, 76, 0
7, 688640, Note_on_c, 5, 77, 96
7, 688640, Note_off_c, 5, 76, 0
7, 688640, Note_on_c, 5, 77, 96
7, 688896, Note_off_c, 5, 77, 0
7, 688896, Note_on_c, 5, 79, 96
7, 688896, Note_off_c, 5, 77, 0
7, 688896, Note_on_c, 5, 79, 96
7, 689152, Note_off_c, 5, 79, 0
7, 689152, Note_on_c, 5, 81, 96
7, 689152, Note_off_c, 5, 79, 0
7, 689152, Note_on_c, 5, 81, 96
7, 689152, Note_off_c, 5, 84, 0
7, 689152, Note_on_c, 5, 77, 96
7, 689152, Note_off_c, 5, 76, 0
7, 689152, Note_on_c, 5, 77, 96
7, 689152, Note_off_c, 5, 67, 0
7, 689152, Note_on_c, 5, 65, 96
7, 689408, Note_off_c, 5, 81, 0
7, 689408, Note_on_c, 5, 82, 96
7, 689408, Note_off_c, 5, 81, 0
7, 689408, Note_on_c, 5, 82, 96
7, 689664, Note_off_c, 5, 82, 0
7, 689664, Note_on_c, 5, 84, 96
7, 689664, Note_off_c, 5, 82, 0
7, 689664, Note_on_c, 5, 84, 96
7, 689664, Note_off_c, 5, 77, 0
7, 689664, Note_on_c, 5, 84, 96
7, 689664, Note_off_c, 5, 77, 0
7, 689664, Note_on_c, 5, 81, 96
7, 689664, Note_off_c, 5, 65, 0
7, 689664, Note_on_c, 5, 65, 96
7, 690688, Note_off_c, 5, 84, 0
7, 690688, Note_on_c, 5, 86, 96
7, 690688, Note_off_c, 5, 84, 0
7, 690688, Note_on_c, 5, 86, 96
7, 690688, Note_off_c, 5, 84, 0
7, 690688, Note_on_c, 5, 86, 96
7, 690688, Note_off_c, 5, 81, 0
7, 690688, Note_on_c, 5, 82, 96
7, 690688, Note_off_c, 5, 65, 0
7, 690688, Note_on_c, 5, 62, 96
7, 691200, Note_off_c, 5, 86, 0
7, 691200, Note_on_c, 5, 82, 96
7, 691200, Note_off_c, 5, 86, 0
7, 691200, Note_on_c, 5, 82, 96
7, 691200, Note_off_c, 5, 86, 0
7, 691200, Note_on_c, 5, 82, 96
7, 691200, Note_off_c, 5, 82, 0
7, 691200, Note_on_c, 5, 79, 96
7, 691200, Note_off_c, 5, 62, 0
7, 691200, Note_on_c, 5, 64, 96
7, 692224, Note_off_c, 5, 82, 0
7, 692224, Note_on_c, 5, 81, 96
7, 692224, Note_off_c, 5, 82, 0
7, 692224, Note_on_c, 5, 81, 96
7, 692224, Note_off_c, 5, 82, 0
7, 692224, Note_on_c, 5, 81, 96
7, 692224, Note_off_c, 5, 79, 0
7, 692224, Note_on_c, 5, 77, 96
7, 692224, Note_off_c, 5, 64, 0
7, 692224, Note_on_c, 5, 60, 96
7, 692736, Note_off_c, 5, 81, 0
7, 692736, Note_on_c, 5, 82, 96
7, 692736, Note_off_c, 5, 81, 0
7, 692736, Note_on_c, 5, 82, 96
7, 692736, Note_off_c, 5, 81, 0
7, 692736, Note_on_c, 5, 82, 96
7, 692736, Note_off_c, 5, 77, 0
7, 692736, Note_on_c, 5, 79, 96
7, 692736, Note_off_c, 5, 60, 0
7, 692736, Note_on_c, 5, 72, 96
7, 693248, Note_off_c, 5, 82, 0
7, 693248, Note_on_c, 5, 79, 96
7, 693248, Note_off_c, 5, 82, 0
7, 693248, Note_on_c, 5, 79, 96
7, 693248, Note_off_c, 5, 82, 0
7, 693248, Note_on_c, 5, 79, 96
7, 693248, Note_off_c, 5, 79, 0
7, 693248, Note_on_c, 5, 72, 96
7, 693760, Note_off_c, 5, 79, 0
7, 693760, Note_on_c, 5, 81, 96
7, 693760, Note_off_c, 5, 79, 0
7, 693760, Note_on_c, 5, 81, 96
7, 693760, Note_off_c, 5, 79, 0
7, 693760, Note_on_c, 5, 81, 96
7, 693760, Note_off_c, 5, 72, 0
7, 693760, Note_on_c, 5, 77, 96
7, 693760, Note_off_c, 5, 72, 0
7, 693760, Note_on_c, 5, 60, 96
7, 694272, Note_off_c, 5, 81, 0
7, 694272, Note_off_c, 5, 81, 0
7, 694272, Note_off_c, 5, 81, 0
7, 694272, Note_off_c, 5, 77, 0
7, 694272, Note_off_c, 5, 60, 0
7, 694272, Note_on_c, 5, 81, 96
7, 694272, Note_on_c, 5, 81, 96
7, 694272, Note_on_c, 5, 81, 96
7, 694272, Note_on_c, 5, 77, 96
7, 694272, Note_on_c, 5, 72, 96
7, 694784, Note_off_c, 5, 81, 0
7, 694784, Note_on_c, 5, 86, 96
7, 694784, Note_off_c, 5, 81, 0
7, 694784, Note_on_c, 5, 86, 96
7, 694784, Note_off_c, 5, 72, 0
7, 694784, Note_on_c, 5, 69, 96
7, 695040, Note_off_c, 5, 86, 0
7, 695040, Note_on_c, 5, 84, 96
7, 695040, Note_off_c, 5, 86, 0
7, 695040, Note_on_c, 5, 84, 96
7, 695296, Note_off_c, 5, 84, 0
7, 695296, Note_on_c, 5, 86, 96
7, 695296, Note_off_c, 5, 81, 0
7, 695296, Note_on_c, 5, 77, 96
7, 695296, Note_off_c, 5, 84, 0
7, 695296, Note_on_c, 5, 86, 96
7, 695296, Note_off_c, 5, 77, 0
7, 695296, Note_on_c, 5, 77, 96
7, 695296, Note_off_c, 5, 69, 0
7, 695296, Note_on_c, 5, 65, 96
7, 695808, Note_off_c, 5, 86, 0
7, 695808, Note_on_c, 5, 79, 96
7, 695808, Note_off_c, 5, 77, 0
7, 695808, Note_on_c, 5, 76, 96
7, 695808, Note_off_c, 5, 86, 0
7, 695808, Note_on_c, 5, 79, 96
7, 695808, Note_off_c, 5, 77, 0
7, 695808, Note_on_c, 5, 76, 96
7, 695808, Note_off_c, 5, 65, 0
7, 695808, Note_on_c, 5, 72, 96
7, 696320, Note_off_c, 5, 79, 0
7, 696320, Note_on_c, 5, 84, 96
7, 696320, Note_off_c, 5, 76, 0
7, 696320, Note_on_c, 5, 81, 96
7, 696320, Note_off_c, 5, 79, 0
7, 696320, Note_on_c, 5, 84, 96
7, 696320, Note_off_c, 5, 76, 0
7, 696320, Note_on_c, 5, 81, 96
7, 696576, Note_off_c, 5, 81, 0
7, 696576, Note_on_c, 5, 79, 96
7, 696576, Note_off_c, 5, 81, 0
7, 696576, Note_on_c, 5, 79, 96
7, 696832, Note_off_c, 5, 84, 0
7, 696832, Note_off_c, 5, 79, 0
7, 696832, Note_on_c, 5, 81, 96
7, 696832, Note_off_c, 5, 84, 0
7, 696832, Note_off_c, 5, 79, 0
7, 696832, Note_on_c, 5, 81, 96
7, 696832, Note_off_c, 5, 72, 0
7, 696832, Note_on_c, 5, 65, 96
7, 697344, Note_on_c, 5, 77, 96
7, 697344, Note_off_c, 5, 81, 0
7, 697344, Note_on_c, 5, 74, 96
7, 697344, Note_on_c, 5, 77, 96
7, 697344, Note_off_c, 5, 81, 0
7, 697344, Note_on_c, 5, 74, 96
7, 697344, Note_off_c, 5, 65, 0
7, 697344, Note_on_c, 5, 70, 96
7, 697856, Note_off_c, 5, 77, 0
7, 697856, Note_on_c, 5, 82, 96
7, 697856, Note_off_c, 5, 74, 0
7, 697856, Note_on_c, 5, 79, 96
7, 697856, Note_off_c, 5, 77, 0
7, 697856, Note_on_c, 5, 82, 96
7, 697856, Note_off_c, 5, 74, 0
7, 697856, Note_on_c, 5, 79, 96
7, 698112, Note_off_c, 5, 82, 0
7, 698112, Note_on_c, 5, 81, 96
7, 698112, Note_off_c, 5, 82, 0
7, 698112, Note_on_c, 5, 81, 96
7, 698368, Note_off_c, 5, 81, 0
7, 698368, Note_on_c, 5, 82, 96
7, 698368, Note_off_c, 5, 79, 0
7, 698368, Note_off_c, 5, 81, 0
7, 698368, Note_on_c, 5, 82, 96
7, 698368, Note_off_c, 5, 79, 0
7, 698368, Note_off_c, 5, 70, 0
7, 698368, Note_on_c, 5, 64, 96
7, 698880, Note_off_c, 5, 82, 0
7, 698880, Note_on_c, 5, 76, 96
7, 698880, Note_on_c, 5, 72, 96
7, 698880, Note_off_c, 5, 82, 0
7, 698880, Note_on_c, 5, 76, 96
7, 698880, Note_on_c, 5, 72, 96
7, 698880, Note_off_c, 5, 64, 0
7, 698880, Note_on_c, 5, 69, 96
7, 699392, Note_off_c, 5, 76, 0
7, 699392, Note_on_c, 5, 81, 96
7, 699392, Note_off_c, 5, 72, 0
7, 699392, Note_on_c, 5, 77, 96
7, 699392, Note_off_c, 5, 76, 0
7, 699392, Note_on_c, 5, 81, 96
7, 699392, Note_off_c, 5, 72, 0
7, 699392, Note_on_c, 5, 77, 96
7, 699648, Note_off_c, 5, 77, 0
7, 699648, Note_on_c, 5, 76, 96
7, 699648, Note_off_c, 5, 77, 0
7, 699648, Note_on_c, 5, 76, 96
7, 699904, Note_off_c, 5, 81, 0
7, 699904, Note_off_c, 5, 76, 0
7, 699904, Note_on_c, 5, 77, 96
7, 699904, Note_off_c, 5, 81, 0
7, 699904, Note_off_c, 5, 76, 0
7, 699904, Note_on_c, 5, 77, 96
7, 699904, Note_off_c, 5, 69, 0
7, 699904, Note_on_c, 5, 62, 96
7, 700416, Note_off_c, 5, 77, 0
7, 700416, Note_off_c, 5, 77, 0
7, 700416, Note_off_c, 5, 62, 0
7, 700416, Note_on_c, 5, 74, 96
7, 700416, Note_on_c, 5, 70, 96
7, 700416, Note_on_c, 5, 74, 96
7, 700416, Note_on_c, 5, 70, 96
7, 700416, Note_on_c, 5, 67, 96
7, 700928, Note_off_c, 5, 74, 0
7, 700928, Note_on_c, 5, 79, 96
7, 700928, Note_off_c, 5, 70, 0
7, 700928, Note_on_c, 5, 76, 96
7, 700928, Note_off_c, 5, 74, 0
7, 700928, Note_on_c, 5, 79, 96
7, 700928, Note_off_c, 5, 70, 0
7, 700928, Note_on_c, 5, 76, 96
7, 701184, Note_off_c, 5, 79, 0
7, 701184, Note_on_c, 5, 77, 96
7, 701184, Note_off_c, 5, 79, 0
7, 701184, Note_on_c, 5, 77, 96
7, 701440, Note_off_c, 5, 77, 0
7, 701440, Note_on_c, 5, 79, 96
7, 701440, Note_off_c, 5, 76, 0
7, 701440, Note_off_c, 5, 77, 0
7, 701440, Note_on_c, 5, 79, 96
7, 701440, Note_off_c, 5, 76, 0
7, 701440, Note_off_c, 5, 67, 0
7, 701440, Note_on_c, 5, 60, 96
7, 701952, Note_off_c, 5, 79, 0
7, 701952, Note_on_c, 5, 72, 96
7, 701952, Note_on_c, 5, 69, 96
7, 701952, Note_off_c, 5, 79, 0
7, 701952, Note_on_c, 5, 72, 96
7, 701952, Note_on_c, 5, 69, 96
7, 701952, Note_off_c, 5, 60, 0
7, 701952, Note_on_c, 5, 65, 96
7, 702464, Note_off_c, 5, 72, 0
7, 702464, Note_on_c, 5, 77, 96
7, 702464, Note_off_c, 5, 69, 0
7, 702464, Note_on_c, 5, 74, 96
7, 702464, Note_off_c, 5, 72, 0
7, 702464, Note_on_c, 5, 77, 96
7, 702464, Note_off_c, 5, 69, 0
7, 702464, Note_on_c, 5, 74, 96
7, 702720, Note_off_c, 5, 74, 0
7, 702720, Note_on_c, 5, 72, 96
7, 702720, Note_off_c, 5, 74, 0
7, 702720, Note_on_c, 5, 72, 96
7, 702976, Note_off_c, 5, 77, 0
7, 702976, Note_off_c, 5, 72, 0
7, 702976, Note_on_c, 5, 74, 96
7, 702976, Note_off_c, 5, 77, 0
7, 702976, Note_off_c, 5, 72, 0
7, 702976, Note_on_c, 5, 74, 96
7, 702976, Note_off_c, 5, 65, 0
7, 702976, Note_on_c, 5, 59, 96
7, 703488, Note_off_c, 5, 74, 0
7, 703488, Note_on_c, 5, 67, 96
7, 703488, Note_on_c, 5, 76, 96
7, 703488, Note_off_c, 5, 74, 0
7, 703488, Note_on_c, 5, 67, 96
7, 703488, Note_off_c, 5, 59, 0
7, 703488, Note_on_c, 5, 60, 96
7, 703744, Note_on_c, 5, 79, 96
7, 703744, Note_off_c, 5, 67, 0
7, 703744, Note_on_c, 5, 76, 96
7, 704000, Note_off_c, 5, 79, 0
7, 704000, Note_on_c, 5, 77, 96
7, 704000, Note_off_c, 5, 76, 0
7, 704000, Note_on_c, 5, 74, 96
7, 704000, Note_off_c, 5, 76, 0
7, 704000, Note_on_c, 5, 76, 96
7, 704000, Note_off_c, 5, 67, 0
7, 704000, Note_on_c, 5, 72, 96
7, 704000, Note_off_c, 5, 60, 0
7, 704000, Note_on_c, 5, 67, 96
7, 704256, Note_off_c, 5, 77, 0
7, 704256, Note_on_c, 5, 79, 96
7, 704256, Note_off_c, 5, 74, 0
7, 704256, Note_on_c, 5, 76, 96
7, 704512, Note_off_c, 5, 79, 0
7, 704512, Note_on_c, 5, 76, 96
7, 704512, Note_off_c, 5, 76, 0
7, 704512, Note_on_c, 5, 72, 96
7, 704512, Note_off_c, 5, 76, 0
7, 704512, Note_on_c, 5, 76, 96
7, 704512, Note_off_c, 5, 72, 0
7, 704512, Note_on_c, 5, 72, 96
7, 704512, Note_off_c, 5, 67, 0
7, 704512, Note_on_c, 5, 67, 96
7, 704768, Note_off_c, 5, 76, 0
7, 704768, Note_on_c, 5, 79, 96
7, 704768, Note_off_c, 5, 72, 0
7, 704768, Note_on_c, 5, 76, 96
7, 705024, Note_off_c, 5, 79, 0
7, 705024, Note_on_c, 5, 82, 96
7, 705024, Note_off_c, 5, 76, 0
7, 705024, Note_on_c, 5, 79, 96
7, 705024, Note_off_c, 5, 76, 0
7, 705024, Note_on_c, 5, 76, 96
7, 705024, Note_off_c, 5, 72, 0
7, 705024, Note_on_c, 5, 72, 96
7, 705024, Note_off_c, 5, 67, 0
7, 705024, Note_on_c, 5, 67, 96
7, 705280, Note_off_c, 5, 82, 0
7, 705280, Note_on_c, 5, 79, 96
7, 705280, Note_off_c, 5, 79, 0
7, 705280, Note_on_c, 5, 76, 96
7, 705536, Note_off_c, 5, 79, 0
7, 705536, Note_on_c, 5, 77, 96
7, 705536, Note_off_c, 5, 76, 0
7, 705536, Note_on_c, 5, 74, 96
7, 705536, Note_off_c, 5, 76, 0
7, 705536, Note_on_c, 5, 76, 96
7, 705536, Note_off_c, 5, 72, 0
7, 705536, Note_on_c, 5, 72, 96
7, 705536, Note_off_c, 5, 67, 0
7, 705536, Note_on_c, 5, 67, 96
7, 705792, Note_off_c, 5, 77, 0
7, 705792, Note_on_c, 5, 79, 96
7, 705792, Note_off_c, 5, 74, 0
7, 705792, Note_on_c, 5, 76, 96
7, 706048, Note_off_c, 5, 79, 0
7, 706048, Note_on_c, 5, 76, 96
7, 706048, Note_off_c, 5, 76, 0
7, 706048, Note_on_c, 5, 72, 96
7, 706048, Note_off_c, 5, 76, 0
7, 706048, Note_on_c, 5, 76, 96
7, 706048, Note_off_c, 5, 72, 0
7, 706048, Note_on_c, 5, 72, 96
7, 706048, Note_off_c, 5, 67, 0
7, 706048, Note_on_c, 5, 67, 96
7, 706304, Note_off_c, 5, 76, 0
7, 706304, Note_on_c, 5, 79, 96
7, 706304, Note_off_c, 5, 72, 0
7, 706304, Note_on_c, 5, 76, 96
7, 706560, Note_off_c, 5, 79, 0
7, 706560, Note_off_c, 5, 76, 0
7, 706560, Note_off_c, 5, 76, 0
7, 706560, Note_off_c, 5, 72, 0
7, 706560, Note_off_c, 5, 67, 0
7, 706560, Note_on_c, 5, 72, 96
7, 706560, Note_on_c, 5, 77, 96
7, 706560, Note_on_c, 5, 77, 96
7, 706560, Note_on_c, 5, 72, 96
7, 706560, Note_on_c, 5, 69, 96
7, 706816, Note_off_c, 5, 72, 0
7, 706816, Note_on_c, 5, 77, 96
7, 706816, Note_off_c, 5, 77, 0
7, 706816, Note_on_c, 5, 69, 96
7, 707072, Note_off_c, 5, 77, 0
7, 707072, Note_on_c, 5, 76, 96
7, 707072, Note_off_c, 5, 69, 0
7, 707072, Note_on_c, 5, 67, 96
7, 707072, Note_off_c, 5, 77, 0
7, 707072, Note_on_c, 5, 77, 96
7, 707072, Note_off_c, 5, 72, 0
7, 707072, Note_on_c, 5, 72, 96
7, 707072, Note_off_c, 5, 69, 0
7, 707072, Note_on_c, 5, 69, 96
7, 707328, Note_off_c, 5, 76, 0
7, 707328, Note_on_c, 5, 77, 96
7, 707328, Note_off_c, 5, 67, 0
7, 707328, Note_on_c, 5, 69, 96
7, 707584, Note_off_c, 5, 77, 0
7, 707584, Note_on_c, 5, 72, 96
7, 707584, Note_off_c, 5, 69, 0
7, 707584, Note_on_c, 5, 65, 96
7, 707584, Note_off_c, 5, 77, 0
7, 707584, Note_on_c, 5, 77, 96
7, 707584, Note_off_c, 5, 72, 0
7, 707584, Note_on_c, 5, 72, 96
7, 707584, Note_off_c, 5, 69, 0
7, 707584, Note_on_c, 5, 69, 96
7, 707840, Note_off_c, 5, 72, 0
7, 707840, Note_on_c, 5, 77, 96
7, 707840, Note_off_c, 5, 65, 0
7, 707840, Note_on_c, 5, 69, 96
7, 708096, Note_off_c, 5, 77, 0
7, 708096, Note_on_c, 5, 81, 96
7, 708096, Note_off_c, 5, 69, 0
7, 708096, Note_on_c, 5, 72, 96
7, 708096, Note_off_c, 5, 77, 0
7, 708096, Note_on_c, 5, 77, 96
7, 708096, Note_off_c, 5, 72, 0
7, 708096, Note_on_c, 5, 72, 96
7, 708096, Note_off_c, 5, 69, 0
7, 708096, Note_on_c, 5, 69, 96
7, 708352, Note_off_c, 5, 81, 0
7, 708352, Note_on_c, 5, 77, 96
7, 708352, Note_off_c, 5, 72, 0
7, 708352, Note_on_c, 5, 69, 96
7, 708608, Note_off_c, 5, 77, 0
7, 708608, Note_on_c, 5, 76, 96
7, 708608, Note_off_c, 5, 69, 0
7, 708608, Note_on_c, 5, 67, 96
7, 708608, Note_off_c, 5, 77, 0
7, 708608, Note_on_c, 5, 77, 96
7, 708608, Note_off_c, 5, 72, 0
7, 708608, Note_on_c, 5, 72, 96
7, 708608, Note_off_c, 5, 69, 0
7, 708608, Note_on_c, 5, 69, 96
7, 708864, Note_off_c, 5, 76, 0
7, 708864, Note_on_c, 5, 77, 96
7, 708864, Note_off_c, 5, 67, 0
7, 708864, Note_on_c, 5, 69, 96
7, 709120, Note_off_c, 5, 77, 0
7, 709120, Note_on_c, 5, 72, 96
7, 709120, Note_off_c, 5, 69, 0
7, 709120, Note_on_c, 5, 65, 96
7, 709120, Note_off_c, 5, 77, 0
7, 709120, Note_on_c, 5, 77, 96
7, 709120, Note_off_c, 5, 72, 0
7, 709120, Note_on_c, 5, 72, 96
7, 709120, Note_off_c, 5, 69, 0
7, 709120, Note_on_c, 5, 69, 96
7, 709376, Note_off_c, 5, 72, 0
7, 709376, Note_on_c, 5, 77, 96
7, 709376, Note_off_c, 5, 65, 0
7, 709376, Note_on_c, 5, 69, 96
7, 709632, Note_off_c, 5, 77, 0
7, 709632, Note_on_c, 5, 70, 96
7, 709632, Note_off_c, 5, 69, 0
7, 709632, Note_on_c, 5, 64, 96
7, 709632, Note_off_c, 5, 77, 0
7, 709632, Note_on_c, 5, 79, 96
7, 709632, Note_off_c, 5, 72, 0
7, 709632, Note_on_c, 5, 76, 96
7, 709632, Note_off_c, 5, 69, 0
7, 709632, Note_on_c, 5, 72, 96
7, 709888, Note_off_c, 5, 70, 0
7, 709888, Note_on_c, 5, 76, 96
7, 709888, Note_off_c, 5, 64, 0
7, 709888, Note_on_c, 5, 67, 96
7, 710144, Note_off_c, 5, 76, 0
7, 710144, Note_on_c, 5, 74, 96
7, 710144, Note_off_c, 5, 67, 0
7, 710144, Note_on_c, 5, 65, 96
7, 710144, Note_off_c, 5, 79, 0
7, 710144, Note_on_c, 5, 79, 96
7, 710144, Note_off_c, 5, 76, 0
7, 710144, Note_on_c, 5, 76, 96
7, 710144, Note_off_c, 5, 72, 0
7, 710144, Note_on_c, 5, 72, 96
7, 710400, Note_off_c, 5, 74, 0
7, 710400, Note_on_c, 5, 76, 96
7, 710400, Note_off_c, 5, 65, 0
7, 710400, Note_on_c, 5, 67, 96
7, 710656, Note_off_c, 5, 76, 0
7, 710656, Note_on_c, 5, 70, 96
7, 710656, Note_off_c, 5, 67, 0
7, 710656, Note_on_c, 5, 64, 96
7, 710656, Note_off_c, 5, 79, 0
7, 710656, Note_on_c, 5, 79, 96
7, 710656, Note_off_c, 5, 76, 0
7, 710656, Note_on_c, 5, 76, 96
7, 710656, Note_off_c, 5, 72, 0
7, 710656, Note_on_c, 5, 72, 96
7, 710912, Note_off_c, 5, 70, 0
7, 710912, Note_on_c, 5, 76, 96
7, 710912, Note_off_c, 5, 64, 0
7, 710912, Note_on_c, 5, 67, 96
7, 711168, Note_off_c, 5, 76, 0
7, 711168, Note_on_c, 5, 79, 96
7, 711168, Note_off_c, 5, 67, 0
7, 711168, Note_on_c, 5, 70, 96
7, 711168, Note_off_c, 5, 79, 0
7, 711168, Note_on_c, 5, 79, 96
7, 711168, Note_off_c, 5, 76, 0
7, 711168, Note_on_c, 5, 76, 96
7, 711168, Note_off_c, 5, 72, 0
7, 711168, Note_on_c, 5, 72, 96
7, 711424, Note_off_c, 5, 79, 0
7, 711424, Note_on_c, 5, 76, 96
7, 711424, Note_off_c, 5, 70, 0
7, 711424, Note_on_c, 5, 67, 96
7, 711680, Note_off_c, 5, 76, 0
7, 711680, Note_on_c, 5, 74, 96
7, 711680, Note_off_c, 5, 67, 0
7, 711680, Note_on_c, 5, 65, 96
7, 711680, Note_off_c, 5, 79, 0
7, 711680, Note_on_c, 5, 79, 96
7, 711680, Note_off_c, 5, 76, 0
7, 711680, Note_on_c, 5, 76, 96
7, 711680, Note_off_c, 5, 72, 0
7, 711680, Note_on_c, 5, 72, 96
7, 711936, Note_off_c, 5, 74, 0
7, 711936, Note_on_c, 5, 76, 96
7, 711936, Note_off_c, 5, 65, 0
7, 711936, Note_on_c, 5, 67, 96
7, 712192, Note_off_c, 5, 76, 0
7, 712192, Note_on_c, 5, 70, 96
7, 712192, Note_off_c, 5, 67, 0
7, 712192, Note_on_c, 5, 64, 96
7, 712192, Note_off_c, 5, 79, 0
7, 712192, Note_on_c, 5, 79, 96
7, 712192, Note_off_c, 5, 76, 0
7, 712192, Note_on_c, 5, 76, 96
7, 712192, Note_off_c, 5, 72, 0
7, 712192, Note_on_c, 5, 72, 96
7, 712448, Note_off_c, 5, 70, 0
7, 712448, Note_on_c, 5, 76, 96
7, 712448, Note_off_c, 5, 64, 0
7, 712448, Note_on_c, 5, 67, 96
7, 712704, Note_off_c, 5, 76, 0
7, 712704, Note_off_c, 5, 67, 0
7, 712704, Note_off_c, 5, 79, 0
7, 712704, Note_off_c, 5, 76, 0
7, 712704, Note_off_c, 5, 72, 0
7, 712704, Note_on_c, 5, 69, 96
7, 712704, Note_on_c, 5, 65, 96
7, 712704, Note_on_c, 5, 81, 96
7, 712704, Note_on_c, 5, 77, 96
7, 712704, Note_on_c, 5, 72, 96
7, 713728, Note_off_c, 5, 69, 0
7, 713728, Note_on_c, 5, 72, 96
7, 713728, Note_off_c, 5, 65, 0
7, 713728, Note_on_c, 5, 72, 96
7, 713728, Note_off_c, 5, 81, 0
7, 713728, Note_on_c, 5, 72, 96
7, 713728, Note_off_c, 5, 77, 0
7, 713728, Note_off_c, 5, 72, 0
7, 713728, Note_on_c, 5, 72, 96
7, 714240, Note_off_c, 5, 72, 0
7, 714240, Note_on_c, 5, 77, 96
7, 714240, Note_off_c, 5, 72, 0
7, 714240, Note_on_c, 5, 77, 96
7, 714240, Note_off_c, 5, 72, 0
7, 714240, Note_on_c, 5, 77, 96
7, 714240, Note_off_c, 5, 72, 0
7, 714240, Note_on_c, 5, 70, 96
7, 714752, Note_off_c, 5, 70, 0
7, 714752, Note_on_c, 5, 62, 96
7, 715264, Note_on_c, 5, 70, 96
7, 715264, Note_off_c, 5, 62, 0
7, 715264, Note_on_c, 5, 62, 96
7, 715776, Note_off_c, 5, 70, 0
7, 715776, Note_on_c, 5, 69, 96
7, 715776, Note_off_c, 5, 62, 0
7, 715776, Note_on_c, 5, 60, 96
7, 716288, Note_off_c, 5, 77, 0
7, 716288, Note_on_c, 5, 82, 96
7, 716288, Note_off_c, 5, 77, 0
7, 716288, Note_on_c, 5, 82, 96
7, 716288, Note_off_c, 5, 77, 0
7, 716288, Note_on_c, 5, 82, 96
7, 716800, Note_off_c, 5, 82, 0
7, 716800, Note_on_c, 5, 79, 96
7, 716800, Note_off_c, 5, 82, 0
7, 716800, Note_on_c, 5, 79, 96
7, 716800, Note_off_c, 5, 82, 0
7, 716800, Note_on_c, 5, 79, 96
7, 716800, Note_off_c, 5, 69, 0
7, 716800, Note_on_c, 5, 74, 96
7, 716800, Note_off_c, 5, 60, 0
7, 716800, Note_on_c, 5, 62, 96
7, 717312, Note_off_c, 5, 79, 0
7, 717312, Note_on_c, 5, 76, 96
7, 717312, Note_off_c, 5, 79, 0
7, 717312, Note_on_c, 5, 76, 96
7, 717312, Note_off_c, 5, 79, 0
7, 717312, Note_on_c, 5, 76, 96
7, 717312, Note_off_c, 5, 74, 0
7, 717312, Note_on_c, 5, 72, 96
7, 717312, Note_off_c, 5, 62, 0
7, 717312, Note_on_c, 5, 55, 96
7, 717824, Note_off_c, 5, 72, 0
7, 717824, Note_on_c, 5, 70, 96
7, 717824, Note_off_c, 5, 55, 0
7, 717824, Note_on_c, 5, 60, 96
7, 718080, Note_off_c, 5, 70, 0
7, 718080, Note_on_c, 5, 69, 96
7, 718336, Note_off_c, 5, 76, 0
7, 718336, Note_on_c, 5, 77, 96
7, 718336, Note_off_c, 5, 76, 0
7, 718336, Note_on_c, 5, 77, 96
7, 718336, Note_off_c, 5, 76, 0
7, 718336, Note_on_c, 5, 77, 96
7, 718336, Note_off_c, 5, 69, 0
7, 718336, Note_on_c, 5, 70, 96
7, 718336, Note_off_c, 5, 60, 0
7, 718336, Note_on_c, 5, 60, 96
7, 718848, Note_off_c, 5, 77, 0
7, 718848, Note_off_c, 5, 77, 0
7, 718848, Note_off_c, 5, 77, 0
7, 718848, Note_off_c, 5, 70, 0
7, 718848, Note_off_c, 5, 60, 0
7, 718848, Note_on_c, 5, 77, 96
7, 718848, Note_on_c, 5, 77, 96
7, 718848, Note_on_c, 5, 77, 96
7, 718848, Note_on_c, 5, 69, 96
7, 718848, Note_on_c, 5, 60, 96
7, 719104, Note_off_c, 5, 77, 0
7, 719104, Note_on_c, 5, 77, 96
7, 719104, Note_off_c, 5, 77, 0
7, 719104, Note_on_c, 5, 77, 96
7, 719360, Note_off_c, 5, 77, 0
7, 719360, Note_on_c, 5, 76, 96
7, 719360, Note_off_c, 5, 77, 0
7, 719360, Note_on_c, 5, 76, 96
7, 719616, Note_off_c, 5, 76, 0
7, 719616, Note_on_c, 5, 77, 96
7, 719616, Note_off_c, 5, 76, 0
7, 719616, Note_on_c, 5, 77, 96
7, 719872, Note_off_c, 5, 77, 0
7, 719872, Note_on_c, 5, 72, 96
7, 719872, Note_off_c, 5, 77, 0
7, 719872, Note_on_c, 5, 72, 96
7, 719872, Note_off_c, 5, 77, 0
7, 719872, Note_on_c, 5, 65, 96
7, 719872, Note_off_c, 5, 69, 0
7, 719872, Note_on_c, 5, 60, 96
7, 719872, Note_off_c, 5, 60, 0
7, 719872, Note_on_c, 5, 57, 96
7, 720128, Note_off_c, 5, 72, 0
7, 720128, Note_on_c, 5, 77, 96
7, 720128, Note_off_c, 5, 72, 0
7, 720128, Note_on_c, 5, 77, 96
7, 720384, Note_off_c, 5, 77, 0
7, 720384, Note_on_c, 5, 81, 96
7, 720384, Note_off_c, 5, 77, 0
7, 720384, Note_on_c, 5, 81, 96
7, 720384, Note_off_c, 5, 65, 0
7, 720384, Note_on_c, 5, 65, 96
7, 720384, Note_off_c, 5, 60, 0
7, 720384, Note_on_c, 5, 60, 96
7, 720384, Note_off_c, 5, 57, 0
7, 720384, Note_on_c, 5, 57, 96
7, 720640, Note_off_c, 5, 81, 0
7, 720640, Note_on_c, 5, 77, 96
7, 720640, Note_off_c, 5, 81, 0
7, 720640, Note_on_c, 5, 77, 96
7, 720896, Note_off_c, 5, 77, 0
7, 720896, Note_on_c, 5, 76, 96
7, 720896, Note_off_c, 5, 77, 0
7, 720896, Note_on_c, 5, 76, 96
7, 720896, Note_off_c, 5, 65, 0
7, 720896, Note_on_c, 5, 65, 96
7, 720896, Note_off_c, 5, 60, 0
7, 720896, Note_on_c, 5, 60, 96
7, 720896, Note_off_c, 5, 57, 0
7, 720896, Note_on_c, 5, 57, 96
7, 721152, Note_off_c, 5, 76, 0
7, 721152, Note_on_c, 5, 77, 96
7, 721152, Note_off_c, 5, 76, 0
7, 721152, Note_on_c, 5, 77, 96
7, 721408, Note_off_c, 5, 77, 0
7, 721408, Note_on_c, 5, 72, 96
7, 721408, Note_off_c, 5, 77, 0
7, 721408, Note_on_c, 5, 72, 96
7, 721408, Note_off_c, 5, 65, 0
7, 721408, Note_on_c, 5, 65, 96
7, 721408, Note_off_c, 5, 60, 0
7, 721408, Note_on_c, 5, 60, 96
7, 721408, Note_off_c, 5, 57, 0
7, 721408, Note_on_c, 5, 57, 96
7, 721664, Note_off_c, 5, 72, 0
7, 721664, Note_on_c, 5, 77, 96
7, 721664, Note_off_c, 5, 72, 0
7, 721664, Note_on_c, 5, 77, 96
7, 721920, Note_off_c, 5, 77, 0
7, 721920, Note_on_c, 5, 69, 96
7, 721920, Note_off_c, 5, 77, 0
7, 721920, Note_on_c, 5, 69, 96
7, 721920, Note_off_c, 5, 65, 0
7, 721920, Note_on_c, 5, 65, 96
7, 721920, Note_off_c, 5, 60, 0
7, 721920, Note_on_c, 5, 60, 96
7, 721920, Note_off_c, 5, 57, 0
7, 721920, Note_on_c, 5, 57, 96
7, 722176, Note_off_c, 5, 69, 0
7, 722176, Note_on_c, 5, 77, 96
7, 722176, Note_off_c, 5, 69, 0
7, 722176, Note_on_c, 5, 77, 96
7, 722432, Note_off_c, 5, 77, 0
7, 722432, Note_on_c, 5, 76, 96
7, 722432, Note_off_c, 5, 77, 0
7, 722432, Note_on_c, 5, 76, 96
7, 722432, Note_off_c, 5, 65, 0
7, 722432, Note_on_c, 5, 65, 96
7, 722432, Note_off_c, 5, 60, 0
7, 722432, Note_on_c, 5, 60, 96
7, 722432, Note_off_c, 5, 57, 0
7, 722432, Note_on_c, 5, 57, 96
7, 722688, Note_off_c, 5, 76, 0
7, 722688, Note_on_c, 5, 77, 96
7, 722688, Note_off_c, 5, 76, 0
7, 722688, Note_on_c, 5, 77, 96
7, 722944, Note_off_c, 5, 77, 0
7, 722944, Note_on_c, 5, 72, 96
7, 722944, Note_off_c, 5, 77, 0
7, 722944, Note_on_c, 5, 72, 96
7, 722944, Note_off_c, 5, 65, 0
7, 722944, Note_on_c, 5, 65, 96
7, 722944, Note_off_c, 5, 60, 0
7, 722944, Note_on_c, 5, 60, 96
7, 722944, Note_off_c, 5, 57, 0
7, 722944, Note_on_c, 5, 57, 96
7, 723200, Note_off_c, 5, 72, 0
7, 723200, Note_on_c, 5, 77, 96
7, 723200, Note_off_c, 5, 72, 0
7, 723200, Note_on_c, 5, 77, 96
7, 723456, Note_off_c, 5, 77, 0
7, 723456, Note_on_c, 5, 81, 96
7, 723456, Note_off_c, 5, 77, 0
7, 723456, Note_on_c, 5, 81, 96
7, 723456, Note_off_c, 5, 65, 0
7, 723456, Note_on_c, 5, 65, 96
7, 723456, Note_off_c, 5, 60, 0
7, 723456, Note_on_c, 5, 60, 96
7, 723456, Note_off_c, 5, 57, 0
7, 723456, Note_on_c, 5, 57, 96
7, 723712, Note_off_c, 5, 81, 0
7, 723712, Note_on_c, 5, 77, 96
7, 723712, Note_off_c, 5, 81, 0
7, 723712, Note_on_c, 5, 77, 96
7, 723968, Note_off_c, 5, 77, 0
7, 723968, Note_on_c, 5, 76, 96
7, 723968, Note_off_c, 5, 77, 0
7, 723968, Note_on_c, 5, 76, 96
7, 723968, Note_off_c, 5, 65, 0
7, 723968, Note_on_c, 5, 65, 96
7, 723968, Note_off_c, 5, 60, 0
7, 723968, Note_on_c, 5, 60, 96
7, 723968, Note_off_c, 5, 57, 0
7, 723968, Note_on_c, 5, 57, 96
7, 724224, Note_off_c, 5, 76, 0
7, 724224, Note_on_c, 5, 77, 96
7, 724224, Note_off_c, 5, 76, 0
7, 724224, Note_on_c, 5, 77, 96
7, 724480, Note_off_c, 5, 77, 0
7, 724480, Note_on_c, 5, 72, 96
7, 724480, Note_off_c, 5, 77, 0
7, 724480, Note_on_c, 5, 72, 96
7, 724480, Note_off_c, 5, 65, 0
7, 724480, Note_on_c, 5, 65, 96
7, 724480, Note_off_c, 5, 60, 0
7, 724480, Note_on_c, 5, 60, 96
7, 724480, Note_off_c, 5, 57, 0
7, 724480, Note_on_c, 5, 57, 96
7, 724736, Note_off_c, 5, 72, 0
7, 724736, Note_on_c, 5, 77, 96
7, 724736, Note_off_c, 5, 72, 0
7, 724736, Note_on_c, 5, 77, 96
7, 724992, Note_off_c, 5, 77, 0
7, 724992, Note_off_c, 5, 77, 0
7, 724992, Note_off_c, 5, 65, 0
7, 724992, Note_off_c, 5, 60, 0
7, 724992, Note_off_c, 5, 57, 0
7, 724992, Note_on_c, 5, 69, 96
7, 724992, Note_on_c, 5, 69, 96
7, 724992, Note_on_c, 5, 65, 96
7, 724992, Note_on_c, 5, 60, 96
7, 724992, Note_on_c, 5, 57, 96
7, 728064, Note_off_c, 5, 69, 0
7, 728064, Note_off_c, 5, 69, 0
7, 728064, Note_off_c, 5, 65, 0
7, 728064, Note_off_c, 5, 60, 0
7, 728064, Note_off_c, 5, 57, 0
7, 731136, End_track
8, 0, Start_track
8, 0, Title_t, "Instrument 7"
8, 0, Program_c, 6, 0
8, 7168, Note_on_c, 6, 69, 96
8, 7168, Note_on_c, 6, 65, 96
8, 7680, Note_off_c, 6, 69, 0
8, 7680, Note_on_c, 6, 72, 96
8, 7680, Note_off_c, 6, 65, 0
8, 7680, Note_on_c, 6, 69, 96
8, 8192, Note_off_c, 6, 72, 0
8, 8192, Note_on_c, 6, 69, 96
8, 8192, Note_off_c, 6, 69, 0
8, 8192, Note_on_c, 6, 65, 96
8, 8704, Note_off_c, 6, 69, 0
8, 8704, Note_on_c, 6, 72, 96
8, 8704, Note_off_c, 6, 65, 0
8, 8704, Note_on_c, 6, 69, 96
8, 9216, Note_off_c, 6, 72, 0
8, 9216, Note_on_c, 6, 77, 96
8, 9216, Note_off_c, 6, 69, 0
8, 9216, Note_on_c, 6, 72, 96
8, 9728, Note_off_c, 6, 77, 0
8, 9728, Note_on_c, 6, 72, 96
8, 9728, Note_off_c, 6, 72, 0
8, 9728, Note_on_c, 6, 69, 96
8, 10240, Note_off_c, 6, 72, 0
8, 10240, Note_on_c, 6, 72, 96
8, 10240, Note_off_c, 6, 69, 0
8, 10240, Note_on_c, 6, 69, 96
8, 10752, Note_off_c, 6, 72, 0
8, 10752, Note_on_c, 6, 72, 96
8, 10752, Note_off_c, 6, 69, 0
8, 10752, Note_on_c, 6, 69, 96
8, 11264, Note_off_c, 6, 72, 0
8, 11264, Note_on_c, 6, 69, 96
8, 11264, Note_off_c, 6, 69, 0
8, 11264, Note_on_c, 6, 65, 96
8, 11776, Note_off_c, 6, 69, 0
8, 11776, Note_on_c, 6, 69, 96
8, 11776, Note_off_c, 6, 65, 0
8, 11776, Note_on_c, 6, 65, 96
8, 12288, Note_off_c, 6, 69, 0
8, 12288, Note_off_c, 6, 65, 0
8, 12288, Note_on_c, 6, 69, 96
8, 12288, Note_on_c, 6, 65, 96
8, 13312, Note_off_c, 6, 69, 0
8, 13312, Note_off_c, 6, 65, 0
8, 19456, Note_on_c, 6, 72, 96
8, 19456, Note_on_c, 6, 67, 96
8, 19968, Note_off_c, 6, 72, 0
8, 19968, Note_on_c, 6, 72, 96
8, 19968, Note_off_c, 6, 67, 0
8, 19968, Note_on_c, 6, 67, 96
8, 20480, Note_off_c, 6, 72, 0
8, 20480, Note_on_c, 6, 76, 96
8, 20480, Note_off_c, 6, 67, 0
8, 20480, Note_on_c, 6, 72, 96
8, 20992, Note_off_c, 6, 76, 0
8, 20992, Note_on_c, 6, 72, 96
8, 20992, Note_off_c, 6, 72, 0
8, 20992, Note_on_c, 6, 67, 96
8, 21504, Note_off_c, 6, 72, 0
8, 21504, Note_on_c, 6, 67, 96
8, 21504, Note_off_c, 6, 67, 0
8, 21504, Note_on_c, 6, 60, 96
8, 22016, Note_off_c, 6, 67, 0
8, 22016, Note_on_c, 6, 72, 96
8, 22016, Note_off_c, 6, 60, 0
8, 22016, Note_on_c, 6, 67, 96
8, 22528, Note_off_c, 6, 72, 0
8, 22528, Note_on_c, 6, 76, 96
8, 22528, Note_off_c, 6, 67, 0
8, 22528, Note_on_c, 6, 72, 96
8, 23040, Note_off_c, 6, 76, 0
8, 23040, Note_on_c, 6, 72, 96
8, 23040, Note_off_c, 6, 72, 0
8, 23040, Note_on_c, 6, 67, 96
8, 23552, Note_off_c, 6, 72, 0
8, 23552, Note_on_c, 6, 76, 96
8, 23552, Note_off_c, 6, 67, 0
8, 23552, Note_on_c, 6, 72, 96
8, 24064, Note_off_c, 6, 76, 0
8, 24064, Note_on_c, 6, 79, 96
8, 24064, Note_off_c, 6, 72, 0
8, 24064, Note_on_c, 6, 76, 96
8, 24576, Note_off_c, 6, 79, 0
8, 24576, Note_off_c, 6, 76, 0
8, 24576, Note_on_c, 6, 79, 96
8, 24576, Note_on_c, 6, 76, 96
8, 25600, Note_off_c, 6, 79, 0
8, 25600, Note_on_c, 6, 67, 96
8, 25600, Note_off_c, 6, 76, 0
8, 25600, Note_on_c, 6, 60, 96
8, 26112, Note_off_c, 6, 67, 0
8, 26112, Note_on_c, 6, 67, 96
8, 26112, Note_off_c, 6, 60, 0
8, 26112, Note_on_c, 6, 60, 96
8, 26624, Note_off_c, 6, 67, 0
8, 26624, Note_on_c, 6, 70, 96
8, 26624, Note_off_c, 6, 60, 0
8, 26624, Note_on_c, 6, 67, 96
8, 27136, Note_off_c, 6, 70, 0
8, 27136, Note_on_c, 6, 69, 96
8, 27136, Note_off_c, 6, 67, 0
8, 27136, Note_on_c, 6, 65, 96
8, 27648, Note_off_c, 6, 69, 0
8, 27648, Note_on_c, 6, 67, 96
8, 27648, Note_off_c, 6, 65, 0
8, 27648, Note_on_c, 6, 60, 96
8, 28160, Note_off_c, 6, 67, 0
8, 28160, Note_on_c, 6, 70, 96
8, 28160, Note_off_c, 6, 60, 0
8, 28160, Note_on_c, 6, 67, 96
8, 28672, Note_off_c, 6, 70, 0
8, 28672, Note_on_c, 6, 69, 96
8, 28672, Note_off_c, 6, 67, 0
8, 28672, Note_on_c, 6, 65, 96
8, 29184, Note_off_c, 6, 69, 0
8, 29184, Note_on_c, 6, 67, 96
8, 29184, Note_off_c, 6, 65, 0
8, 29184, Note_on_c, 6, 60, 96
8, 29696, Note_off_c, 6, 67, 0
8, 29696, Note_on_c, 6, 69, 96
8, 29696, Note_off_c, 6, 60, 0
8, 29696, Note_on_c, 6, 57, 96
8, 29952, Note_off_c, 6, 69, 0
8, 29952, Note_on_c, 6, 67, 96
8, 30208, Note_off_c, 6, 67, 0
8, 30208, Note_on_c, 6, 69, 96
8, 30208, Note_off_c, 6, 57, 0
8, 30208, Note_on_c, 6, 57, 96
8, 30464, Note_off_c, 6, 69, 0
8, 30464, Note_on_c, 6, 67, 96
8, 30720, Note_off_c, 6, 67, 0
8, 30720, Note_off_c, 6, 57, 0
8, 30720, Note_on_c, 6, 65, 96
8, 30720, Note_on_c, 6, 57, 96
8, 30976, Note_off_c, 6, 65, 0
8, 30976, Note_on_c, 6, 64, 96
8, 31232, Note_off_c, 6, 64, 0
8, 31232, Note_on_c, 6, 65, 96
8, 31232, Note_off_c, 6, 57, 0
8, 31232, Note_on_c, 6, 53, 96
8, 31488, Note_off_c, 6, 65, 0
8, 31488, Note_on_c, 6, 67, 96
8, 31744, Note_off_c, 6, 67, 0
8, 31744, Note_on_c, 6, 69, 96
8, 31744, Note_off_c, 6, 53, 0
8, 31744, Note_on_c, 6, 65, 96
8, 32000, Note_off_c, 6, 69, 0
8, 32000, Note_on_c, 6, 70, 96
8, 32000, Note_off_c, 6, 65, 0
8, 32000, Note_on_c, 6, 67, 96
8, 32256, Note_off_c, 6, 70, 0
8, 32256, Note_on_c, 6, 72, 96
8, 32256, Note_off_c, 6, 67, 0
8, 32256, Note_on_c, 6, 69, 96
8, 32768, Note_off_c, 6, 72, 0
8, 32768, Note_on_c, 6, 69, 96
8, 32768, Note_off_c, 6, 69, 0
8, 32768, Note_on_c, 6, 65, 96
8, 33280, Note_off_c, 6, 69, 0
8, 33280, Note_on_c, 6, 70, 96
8, 33280, Note_off_c, 6, 65, 0
8, 33280, Note_on_c, 6, 67, 96
8, 33792, Note_off_c, 6, 70, 0
8, 33792, Note_on_c, 6, 72, 96
8, 33792, Note_off_c, 6, 67, 0
8, 33792, Note_on_c, 6, 69, 96
8, 34304, Note_off_c, 6, 72, 0
8, 34304, Note_on_c, 6, 69, 96
8, 34304, Note_off_c, 6, 69, 0
8, 34304, Note_on_c, 6, 65, 96
8, 34816, Note_off_c, 6, 69, 0
8, 34816, Note_on_c, 6, 70, 96
8, 34816, Note_off_c, 6, 65, 0
8, 34816, Note_on_c, 6, 67, 96
8, 35328, Note_off_c, 6, 70, 0
8, 35328, Note_on_c, 6, 72, 96
8, 35328, Note_off_c, 6, 67, 0
8, 35328, Note_on_c, 6, 69, 96
8, 35840, Note_off_c, 6, 72, 0
8, 35840, Note_on_c, 6, 69, 96
8, 35840, Note_off_c, 6, 69, 0
8, 35840, Note_on_c, 6, 65, 96
8, 36352, Note_off_c, 6, 69, 0
8, 36352, Note_on_c, 6, 74, 96
8, 36352, Note_off_c, 6, 65, 0
8, 36352, Note_on_c, 6, 69, 96
8, 36864, Note_off_c, 6, 74, 0
8, 36864, Note_off_c, 6, 69, 0
8, 36864, Note_on_c, 6, 72, 96
8, 36864, Note_on_c, 6, 67, 96
8, 37888, Note_off_c, 6, 72, 0
8, 37888, Note_off_c, 6, 67, 0
8, 44032, Note_on_c, 6, 65, 96
8, 44032, Note_on_c, 6, 60, 96
8, 44544, Note_off_c, 6, 65, 0
8, 44544, Note_on_c, 6, 72, 96
8, 44544, Note_off_c, 6, 60, 0
8, 44544, Note_on_c, 6, 69, 96
8, 45568, Note_off_c, 6, 72, 0
8, 45568, Note_on_c, 6, 74, 96
8, 45568, Note_off_c, 6, 69, 0
8, 45568, Note_on_c, 6, 70, 96
8, 46080, Note_off_c, 6, 74, 0
8, 46080, Note_on_c, 6, 70, 96
8, 46080, Note_off_c, 6, 70, 0
8, 46080, Note_on_c, 6, 67, 96
8, 47104, Note_off_c, 6, 70, 0
8, 47104, Note_on_c, 6, 69, 96
8, 47104, Note_off_c, 6, 67, 0
8, 47104, Note_on_c, 6, 65, 96
8, 47616, Note_off_c, 6, 69, 0
8, 47616, Note_on_c, 6, 70, 96
8, 47616, Note_off_c, 6, 65, 0
8, 47616, Note_on_c, 6, 67, 96
8, 48128, Note_off_c, 6, 70, 0
8, 48128, Note_on_c, 6, 67, 96
8, 48128, Note_off_c, 6, 67, 0
8, 48128, Note_on_c, 6, 60, 96
8, 48640, Note_off_c, 6, 67, 0
8, 48640, Note_on_c, 6, 69, 96
8, 48640, Note_off_c, 6, 60, 0
8, 48640, Note_on_c, 6, 65, 96
8, 49152, Note_off_c, 6, 69, 0
8, 49152, Note_off_c, 6, 65, 0
8, 49152, Note_on_c, 6, 69, 96
8, 49152, Note_on_c, 6, 65, 96
8, 49664, Note_off_c, 6, 69, 0
8, 49664, Note_on_c, 6, 70, 96
8, 49664, Note_off_c, 6, 65, 0
8, 49664, Note_on_c, 6, 67, 96
8, 49920, Note_off_c, 6, 70, 0
8, 49920, Note_on_c, 6, 72, 96
8, 49920, Note_off_c, 6, 67, 0
8, 49920, Note_on_c, 6, 69, 96
8, 50176, Note_off_c, 6, 72, 0
8, 50176, Note_on_c, 6, 74, 96
8, 50176, Note_off_c, 6, 69, 0
8, 50176, Note_on_c, 6, 70, 96
8, 50688, Note_off_c, 6, 74, 0
8, 50688, Note_on_c, 6, 74, 96
8, 50688, Note_off_c, 6, 70, 0
8, 50688, Note_on_c, 6, 67, 96
8, 51200, Note_off_c, 6, 74, 0
8, 51200, Note_off_c, 6, 67, 0
8, 51712, Note_on_c, 6, 72, 96
8, 51712, Note_on_c, 6, 69, 96
8, 52224, Note_off_c, 6, 72, 0
8, 52224, Note_on_c, 6, 72, 96
8, 52224, Note_off_c, 6, 69, 0
8, 52224, Note_on_c, 6, 65, 96
8, 52736, Note_off_c, 6, 72, 0
8, 52736, Note_off_c, 6, 65, 0
8, 53248, Note_on_c, 6, 70, 96
8, 53248, Note_on_c, 6, 67, 96
8, 53760, Note_off_c, 6, 70, 0
8, 53760, Note_on_c, 6, 70, 96
8, 53760, Note_off_c, 6, 67, 0
8, 53760, Note_on_c, 6, 60, 96
8, 54272, Note_off_c, 6, 70, 0
8, 54272, Note_off_c, 6, 60, 0
8, 54784, Note_on_c, 6, 69, 96
8, 54784, Note_on_c, 6, 65, 96
8, 55296, Note_off_c, 6, 69, 0
8, 55296, Note_off_c, 6, 65, 0
8, 55296, Note_on_c, 6, 69, 96
8, 55296, Note_on_c, 6, 65, 96
8, 55808, Note_off_c, 6, 69, 0
8, 55808, Note_off_c, 6, 65, 0
8, 56320, Note_on_c, 6, 67, 96
8, 56320, Note_on_c, 6, 60, 96
8, 56832, Note_off_c, 6, 67, 0
8, 56832, Note_on_c, 6, 67, 96
8, 56832, Note_off_c, 6, 60, 0
8, 56832, Note_on_c, 6, 60, 96
8, 57344, Note_off_c, 6, 67, 0
8, 57344, Note_off_c, 6, 60, 0
8, 57856, Note_on_c, 6, 65, 96
8, 57856, Note_on_c, 6, 65, 96
8, 58368, Note_off_c, 6, 65, 0
8, 58368, Note_on_c, 6, 72, 96
8, 58368, Note_off_c, 6, 65, 0
8, 58368, Note_on_c, 6, 67, 96
8, 58880, Note_off_c, 6, 67, 0
8, 58880, Note_on_c, 6, 69, 96
8, 59392, Note_off_c, 6, 69, 0
8, 59392, Note_on_c, 6, 70, 96
8, 59904, Note_off_c, 6, 70, 0
8, 59904, Note_on_c, 6, 67, 96
8, 60416, Note_off_c, 6, 67, 0
8, 60416, Note_on_c, 6, 69, 96
8, 60928, Note_off_c, 6, 69, 0
8, 60928, Note_on_c, 6, 70, 96
8, 61440, Note_off_c, 6, 70, 0
8, 61440, Note_on_c, 6, 69, 96
8, 61952, Note_off_c, 6, 69, 0
8, 61952, Note_on_c, 6, 72, 96
8, 62464, Note_off_c, 6, 72, 0
8, 62464, Note_on_c, 6, 69, 96
8, 62976, Note_off_c, 6, 69, 0
8, 62976, Note_on_c, 6, 65, 96
8, 63488, Note_off_c, 6, 65, 0
8, 63488, Note_on_c, 6, 67, 96
8, 64000, Note_off_c, 6, 67, 0
8, 64000, Note_on_c, 6, 69, 96
8, 64512, Note_off_c, 6, 69, 0
8, 64512, Note_on_c, 6, 67, 96
8, 65024, Note_off_c, 6, 67, 0
8, 65024, Note_on_c, 6, 70, 96
8, 65536, Note_off_c, 6, 70, 0
8, 65536, Note_on_c, 6, 67, 96
8, 66048, Note_off_c, 6, 67, 0
8, 66048, Note_on_c, 6, 60, 96
8, 66560, Note_off_c, 6, 60, 0
8, 66560, Note_on_c, 6, 60, 96
8, 67072, Note_off_c, 6, 60, 0
8, 67072, Note_on_c, 6, 60, 96
8, 67584, Note_off_c, 6, 60, 0
8, 67584, Note_on_c, 6, 57, 96
8, 67840, Note_off_c, 6, 72, 0
8, 67840, Note_on_c, 6, 70, 96
8, 68096, Note_off_c, 6, 70, 0
8, 68096, Note_on_c, 6, 69, 96
8, 68352, Note_off_c, 6, 69, 0
8, 68352, Note_on_c, 6, 70, 96
8, 68608, Note_off_c, 6, 70, 0
8, 68608, Note_on_c, 6, 67, 96
8, 68608, Note_off_c, 6, 57, 0
8, 68864, Note_off_c, 6, 67, 0
8, 68864, Note_on_c, 6, 69, 96
8, 69120, Note_off_c, 6, 69, 0
8, 69120, Note_on_c, 6, 70, 96
8, 69376, Note_off_c, 6, 70, 0
8, 69376, Note_on_c, 6, 69, 96
8, 69632, Note_off_c, 6, 69, 0
8, 69632, Note_on_c, 6, 67, 96
8, 69888, Note_off_c, 6, 67, 0
8, 69888, Note_on_c, 6, 69, 96
8, 70144, Note_off_c, 6, 69, 0
8, 70144, Note_on_c, 6, 65, 96
8, 70400, Note_off_c, 6, 65, 0
8, 70400, Note_on_c, 6, 67, 96
8, 70656, Note_off_c, 6, 67, 0
8, 70656, Note_on_c, 6, 69, 96
8, 70912, Note_off_c, 6, 69, 0
8, 70912, Note_on_c, 6, 67, 96
8, 71168, Note_off_c, 6, 67, 0
8, 71168, Note_on_c, 6, 65, 96
8, 71424, Note_off_c, 6, 65, 0
8, 71424, Note_on_c, 6, 67, 96
8, 71680, Note_off_c, 6, 67, 0
8, 71680, Note_on_c, 6, 65, 96
8, 71680, Note_on_c, 6, 65, 96
8, 71936, Note_off_c, 6, 65, 0
8, 71936, Note_on_c, 6, 67, 96
8, 72192, Note_off_c, 6, 67, 0
8, 72192, Note_on_c, 6, 67, 96
8, 72192, Note_off_c, 6, 65, 0
8, 72192, Note_on_c, 6, 60, 96
8, 72704, Note_off_c, 6, 60, 0
8, 72704, Note_on_c, 6, 57, 96
8, 73216, Note_off_c, 6, 67, 0
8, 73216, Note_on_c, 6, 65, 96
8, 73216, Note_off_c, 6, 57, 0
8, 73216, Note_on_c, 6, 60, 96
8, 73728, Note_off_c, 6, 65, 0
8, 73728, Note_off_c, 6, 60, 0
8, 73728, Note_on_c, 6, 65, 96
8, 73728, Note_on_c, 6, 57, 96
8, 74752, Note_off_c, 6, 65, 0
8, 74752, Note_on_c, 6, 69, 96
8, 74752, Note_off_c, 6, 57, 0
8, 74752, Note_on_c, 6, 65, 96
8, 75264, Note_off_c, 6, 69, 0
8, 75264, Note_on_c, 6, 72, 96
8, 75264, Note_off_c, 6, 65, 0
8, 75264, Note_on_c, 6, 69, 96
8, 75776, Note_off_c, 6, 72, 0
8, 75776, Note_on_c, 6, 69, 96
8, 75776, Note_off_c, 6, 69, 0
8, 75776, Note_on_c, 6, 65, 96
8, 76288, Note_off_c, 6, 69, 0
8, 76288, Note_on_c, 6, 72, 96
8, 76288, Note_off_c, 6, 65, 0
8, 76288, Note_on_c, 6, 69, 96
8, 76800, Note_off_c, 6, 72, 0
8, 76800, Note_on_c, 6, 77, 96
8, 76800, Note_off_c, 6, 69, 0
8, 76800, Note_on_c, 6, 72, 96
8, 77312, Note_off_c, 6, 77, 0
8, 77312, Note_on_c, 6, 72, 96
8, 77312, Note_off_c, 6, 72, 0
8, 77312, Note_on_c, 6, 69, 96
8, 77824, Note_off_c, 6, 72, 0
8, 77824, Note_on_c, 6, 72, 96
8, 77824, Note_off_c, 6, 69, 0
8, 77824, Note_on_c, 6, 69, 96
8, 78336, Note_off_c, 6, 72, 0
8, 78336, Note_on_c, 6, 72, 96
8, 78336, Note_off_c, 6, 69, 0
8, 78336, Note_on_c, 6, 69, 96
8, 78848, Note_off_c, 6, 72, 0
8, 78848, Note_on_c, 6, 69, 96
8, 78848, Note_off_c, 6, 69, 0
8, 78848, Note_on_c, 6, 65, 96
8, 79360, Note_off_c, 6, 69, 0
8, 79360, Note_on_c, 6, 69, 96
8, 79360, Note_off_c, 6, 65, 0
8, 79360, Note_on_c, 6, 65, 96
8, 79872, Note_off_c, 6, 69, 0
8, 79872, Note_off_c, 6, 65, 0
8, 79872, Note_on_c, 6, 69, 96
8, 79872, Note_on_c, 6, 65, 96
8, 80384, Note_off_c, 6, 69, 0
8, 80384, Note_on_c, 6, 65, 96
8, 80640, Note_off_c, 6, 65, 0
8, 80640, Note_on_c, 6, 67, 96
8, 80896, Note_off_c, 6, 67, 0
8, 80896, Note_on_c, 6, 69, 96
8, 80896, Note_off_c, 6, 65, 0
8, 81152, Note_off_c, 6, 69, 0
8, 81152, Note_on_c, 6, 70, 96
8, 81408, Note_off_c, 6, 70, 0
8, 81408, Note_on_c, 6, 72, 96
8, 82944, Note_off_c, 6, 72, 0
8, 82944, Note_on_c, 6, 69, 96
8, 86016, Note_off_c, 6, 69, 0
8, 86016, Note_on_c, 6, 65, 96
8, 89088, Note_off_c, 6, 65, 0
8, 89088, Note_on_c, 6, 72, 96
8, 89600, Note_on_c, 6, 65, 96
8, 89856, Note_off_c, 6, 65, 0
8, 89856, Note_on_c, 6, 67, 96
8, 90112, Note_off_c, 6, 67, 0
8, 90112, Note_on_c, 6, 69, 96
8, 90368, Note_off_c, 6, 69, 0
8, 90368, Note_on_c, 6, 70, 96
8, 90624, Note_off_c, 6, 70, 0
8, 90624, Note_on_c, 6, 72, 96
8, 92160, Note_off_c, 6, 72, 0
8, 92160, Note_on_c, 6, 74, 96
8, 95232, Note_off_c, 6, 74, 0
8, 95232, Note_on_c, 6, 74, 96
8, 95232, Note_off_c, 6, 72, 0
8, 95232, Note_on_c, 6, 71, 96
8, 98304, Note_off_c, 6, 74, 0
8, 98304, Note_off_c, 6, 71, 0
8, 98304, Note_on_c, 6, 72, 96
8, 98304, Note_on_c, 6, 72, 96
8, 105472, Note_off_c, 6, 72, 0
8, 105472, Note_off_c, 6, 72, 0
8, 111616, Note_on_c, 6, 72, 96
8, 111616, Note_on_c, 6, 67, 96
8, 112128, Note_off_c, 6, 72, 0
8, 112128, Note_on_c, 6, 72, 96
8, 112128, Note_off_c, 6, 67, 0
8, 112128, Note_on_c, 6, 67, 96
8, 112640, Note_off_c, 6, 72, 0
8, 112640, Note_on_c, 6, 76, 96
8, 112640, Note_off_c, 6, 67, 0
8, 112640, Note_on_c, 6, 72, 96
8, 113152, Note_off_c, 6, 76, 0
8, 113152, Note_on_c, 6, 72, 96
8, 113152, Note_off_c, 6, 72, 0
8, 113152, Note_on_c, 6, 67, 96
8, 113664, Note_off_c, 6, 72, 0
8, 113664, Note_on_c, 6, 67, 96
8, 113664, Note_off_c, 6, 67, 0
8, 113664, Note_on_c, 6, 60, 96
8, 114176, Note_off_c, 6, 67, 0
8, 114176, Note_on_c, 6, 72, 96
8, 114176, Note_off_c, 6, 60, 0
8, 114176, Note_on_c, 6, 67, 96
8, 114688, Note_off_c, 6, 72, 0
8, 114688, Note_on_c, 6, 76, 96
8, 114688, Note_off_c, 6, 67, 0
8, 114688, Note_on_c, 6, 72, 96
8, 115200, Note_off_c, 6, 76, 0
8, 115200, Note_on_c, 6, 72, 96
8, 115200, Note_off_c, 6, 72, 0
8, 115200, Note_on_c, 6, 67, 96
8, 115712, Note_off_c, 6, 72, 0
8, 115712, Note_on_c, 6, 76, 96
8, 115712, Note_off_c, 6, 67, 0
8, 115712, Note_on_c, 6, 72, 96
8, 116224, Note_off_c, 6, 76, 0
8, 116224, Note_on_c, 6, 79, 96
8, 116224, Note_off_c, 6, 72, 0
8, 116224, Note_on_c, 6, 76, 96
8, 116736, Note_off_c, 6, 79, 0
8, 116736, Note_off_c, 6, 76, 0
8, 116736, Note_on_c, 6, 79, 96
8, 116736, Note_on_c, 6, 76, 96
8, 117760, Note_off_c, 6, 79, 0
8, 117760, Note_off_c, 6, 76, 0
8, 142336, Note_on_c, 6, 72, 96
8, 142336, Note_on_c, 6, 67, 96
8, 142848, Note_off_c, 6, 72, 0
8, 142848, Note_on_c, 6, 72, 96
8, 142848, Note_off_c, 6, 67, 0
8, 142848, Note_on_c, 6, 69, 96
8, 143360, Note_off_c, 6, 72, 0
8, 143360, Note_on_c, 6, 69, 96
8, 143360, Note_off_c, 6, 69, 0
8, 143360, Note_on_c, 6, 65, 96
8, 143872, Note_off_c, 6, 69, 0
8, 143872, Note_on_c, 6, 72, 96
8, 143872, Note_off_c, 6, 65, 0
8, 143872, Note_on_c, 6, 69, 96
8, 144384, Note_off_c, 6, 72, 0
8, 144384, Note_on_c, 6, 77, 96
8, 144384, Note_off_c, 6, 69, 0
8, 144384, Note_on_c, 6, 72, 96
8, 144896, Note_off_c, 6, 77, 0
8, 144896, Note_on_c, 6, 72, 96
8, 144896, Note_off_c, 6, 72, 0
8, 144896, Note_on_c, 6, 69, 96
8, 145408, Note_off_c, 6, 72, 0
8, 145408, Note_on_c, 6, 72, 96
8, 145408, Note_off_c, 6, 69, 0
8, 145408, Note_on_c, 6, 69, 96
8, 145920, Note_off_c, 6, 72, 0
8, 145920, Note_on_c, 6, 72, 96
8, 145920, Note_off_c, 6, 69, 0
8, 145920, Note_on_c, 6, 69, 96
8, 146432, Note_off_c, 6, 72, 0
8, 146432, Note_on_c, 6, 69, 96
8, 146432, Note_off_c, 6, 69, 0
8, 146432, Note_on_c, 6, 65, 96
8, 146944, Note_off_c, 6, 69, 0
8, 146944, Note_on_c, 6, 69, 96
8, 146944, Note_off_c, 6, 65, 0
8, 146944, Note_on_c, 6, 65, 96
8, 147456, Note_off_c, 6, 69, 0
8, 147456, Note_off_c, 6, 65, 0
8, 147456, Note_on_c, 6, 74, 96
8, 147456, Note_on_c, 6, 65, 96
8, 148480, Note_off_c, 6, 65, 0
8, 150528, Note_off_c, 6, 74, 0
8, 150528, Note_on_c, 6, 76, 96
8, 153600, Note_off_c, 6, 76, 0
8, 153600, Note_on_c, 6, 77, 96
8, 156672, Note_off_c, 6, 77, 0
8, 156672, Note_on_c, 6, 76, 96
8, 158208, Note_on_c, 6, 72, 96
8, 159744, Note_off_c, 6, 76, 0
8, 159744, Note_on_c, 6, 74, 96
8, 162816, Note_off_c, 6, 74, 0
8, 162816, Note_on_c, 6, 74, 96
8, 162816, Note_off_c, 6, 72, 0
8, 162816, Note_on_c, 6, 71, 96
8, 165888, Note_off_c, 6, 74, 0
8, 165888, Note_off_c, 6, 71, 0
8, 165888, Note_on_c, 6, 72, 96
8, 165888, Note_on_c, 6, 72, 96
8, 172032, Note_off_c, 6, 72, 0
8, 172032, Note_off_c, 6, 72, 0
8, 173056, Note_on_c, 6, 67, 96
8, 173056, Note_on_c, 6, 60, 96
8, 173568, Note_off_c, 6, 67, 0
8, 173568, Note_on_c, 6, 67, 96
8, 173568, Note_off_c, 6, 60, 0
8, 173568, Note_on_c, 6, 60, 96
8, 174080, Note_off_c, 6, 67, 0
8, 174080, Note_on_c, 6, 70, 96
8, 174080, Note_off_c, 6, 60, 0
8, 174080, Note_on_c, 6, 67, 96
8, 174592, Note_off_c, 6, 70, 0
8, 174592, Note_on_c, 6, 69, 96
8, 174592, Note_off_c, 6, 67, 0
8, 174592, Note_on_c, 6, 65, 96
8, 175104, Note_off_c, 6, 69, 0
8, 175104, Note_on_c, 6, 67, 96
8, 175104, Note_off_c, 6, 65, 0
8, 175104, Note_on_c, 6, 60, 96
8, 175616, Note_off_c, 6, 67, 0
8, 175616, Note_on_c, 6, 70, 96
8, 175616, Note_off_c, 6, 60, 0
8, 175616, Note_on_c, 6, 67, 96
8, 176128, Note_off_c, 6, 70, 0
8, 176128, Note_on_c, 6, 69, 96
8, 176128, Note_off_c, 6, 67, 0
8, 176128, Note_on_c, 6, 65, 96
8, 176640, Note_off_c, 6, 69, 0
8, 176640, Note_on_c, 6, 67, 96
8, 176640, Note_off_c, 6, 65, 0
8, 176640, Note_on_c, 6, 60, 96
8, 177152, Note_off_c, 6, 67, 0
8, 177152, Note_on_c, 6, 69, 96
8, 177152, Note_off_c, 6, 60, 0
8, 177152, Note_on_c, 6, 57, 96
8, 177408, Note_off_c, 6, 69, 0
8, 177408, Note_on_c, 6, 67, 96
8, 177664, Note_off_c, 6, 67, 0
8, 177664, Note_on_c, 6, 69, 96
8, 177664, Note_off_c, 6, 57, 0
8, 177664, Note_on_c, 6, 57, 96
8, 177920, Note_off_c, 6, 69, 0
8, 177920, Note_on_c, 6, 67, 96
8, 178176, Note_off_c, 6, 67, 0
8, 178176, Note_off_c, 6, 57, 0
8, 178176, Note_on_c, 6, 65, 96
8, 178176, Note_on_c, 6, 57, 96
8, 178432, Note_off_c, 6, 65, 0
8, 178432, Note_on_c, 6, 64, 96
8, 178688, Note_off_c, 6, 64, 0
8, 178688, Note_on_c, 6, 65, 96
8, 178688, Note_off_c, 6, 57, 0
8, 178688, Note_on_c, 6, 53, 96
8, 178944, Note_off_c, 6, 65, 0
8, 178944, Note_on_c, 6, 67, 96
8, 179200, Note_off_c, 6, 67, 0
8, 179200, Note_on_c, 6, 69, 96
8, 179200, Note_off_c, 6, 53, 0
8, 179200, Note_on_c, 6, 65, 96
8, 179456, Note_off_c, 6, 69, 0
8, 179456, Note_on_c, 6, 70, 96
8, 179456, Note_off_c, 6, 65, 0
8, 179456, Note_on_c, 6, 67, 96
8, 179712, Note_off_c, 6, 70, 0
8, 179712, Note_on_c, 6, 72, 96
8, 179712, Note_off_c, 6, 67, 0
8, 179712, Note_on_c, 6, 69, 96
8, 180224, Note_off_c, 6, 72, 0
8, 180224, Note_on_c, 6, 69, 96
8, 180224, Note_off_c, 6, 69, 0
8, 180224, Note_on_c, 6, 65, 96
8, 180736, Note_off_c, 6, 69, 0
8, 180736, Note_on_c, 6, 70, 96
8, 180736, Note_off_c, 6, 65, 0
8, 180736, Note_on_c, 6, 67, 96
8, 181248, Note_off_c, 6, 70, 0
8, 181248, Note_on_c, 6, 72, 96
8, 181248, Note_off_c, 6, 67, 0
8, 181248, Note_on_c, 6, 69, 96
8, 181760, Note_off_c, 6, 72, 0
8, 181760, Note_on_c, 6, 69, 96
8, 181760, Note_off_c, 6, 69, 0
8, 181760, Note_on_c, 6, 65, 96
8, 182272, Note_off_c, 6, 69, 0
8, 182272, Note_on_c, 6, 70, 96
8, 182272, Note_off_c, 6, 65, 0
8, 182272, Note_on_c, 6, 67, 96
8, 182784, Note_off_c, 6, 70, 0
8, 182784, Note_on_c, 6, 72, 96
8, 182784, Note_off_c, 6, 67, 0
8, 182784, Note_on_c, 6, 69, 96
8, 183296, Note_off_c, 6, 72, 0
8, 183296, Note_on_c, 6, 69, 96
8, 183296, Note_off_c, 6, 69, 0
8, 183296, Note_on_c, 6, 65, 96
8, 183808, Note_off_c, 6, 69, 0
8, 183808, Note_on_c, 6, 74, 96
8, 183808, Note_off_c, 6, 65, 0
8, 183808, Note_on_c, 6, 69, 96
8, 184320, Note_off_c, 6, 74, 0
8, 184320, Note_off_c, 6, 69, 0
8, 184320, Note_on_c, 6, 70, 96
8, 184320, Note_on_c, 6, 67, 96
8, 185344, Note_off_c, 6, 70, 0
8, 185344, Note_off_c, 6, 67, 0
8, 191488, Note_on_c, 6, 65, 96
8, 191488, Note_on_c, 6, 60, 96
8, 192000, Note_off_c, 6, 65, 0
8, 192000, Note_on_c, 6, 72, 96
8, 192000, Note_off_c, 6, 60, 0
8, 192000, Note_on_c, 6, 69, 96
8, 193024, Note_off_c, 6, 72, 0
8, 193024, Note_on_c, 6, 74, 96
8, 193024, Note_off_c, 6, 69, 0
8, 193024, Note_on_c, 6, 70, 96
8, 193536, Note_off_c, 6, 74, 0
8, 193536, Note_on_c, 6, 70, 96
8, 193536, Note_off_c, 6, 70, 0
8, 193536, Note_on_c, 6, 67, 96
8, 194560, Note_off_c, 6, 70, 0
8, 194560, Note_on_c, 6, 69, 96
8, 194560, Note_off_c, 6, 67, 0
8, 194560, Note_on_c, 6, 65, 96
8, 195072, Note_off_c, 6, 69, 0
8, 195072, Note_on_c, 6, 70, 96
8, 195072, Note_off_c, 6, 65, 0
8, 195072, Note_on_c, 6, 67, 96
8, 195584, Note_off_c, 6, 70, 0
8, 195584, Note_on_c, 6, 67, 96
8, 195584, Note_off_c, 6, 67, 0
8, 195584, Note_on_c, 6, 60, 96
8, 196096, Note_off_c, 6, 67, 0
8, 196096, Note_on_c, 6, 69, 96
8, 196096, Note_off_c, 6, 60, 0
8, 196096, Note_on_c, 6, 65, 96
8, 196608, Note_off_c, 6, 69, 0
8, 196608, Note_off_c, 6, 65, 0
8, 196608, Note_on_c, 6, 69, 96
8, 196608, Note_on_c, 6, 65, 96
8, 197120, Note_off_c, 6, 69, 0
8, 197120, Note_on_c, 6, 65, 96
8, 197120, Note_off_c, 6, 65, 0
8, 197120, Note_on_c, 6, 60, 96
8, 197632, Note_off_c, 6, 65, 0
8, 197632, Note_on_c, 6, 69, 96
8, 197632, Note_off_c, 6, 60, 0
8, 197632, Note_on_c, 6, 65, 96
8, 198144, Note_off_c, 6, 69, 0
8, 198144, Note_on_c, 6, 72, 96
8, 198144, Note_off_c, 6, 65, 0
8, 198144, Note_on_c, 6, 69, 96
8, 198656, Note_off_c, 6, 72, 0
8, 198656, Note_on_c, 6, 69, 96
8, 198656, Note_off_c, 6, 69, 0
8, 198656, Note_on_c, 6, 65, 96
8, 199168, Note_off_c, 6, 69, 0
8, 199168, Note_on_c, 6, 72, 96
8, 199168, Note_off_c, 6, 65, 0
8, 199168, Note_on_c, 6, 69, 96
8, 199680, Note_off_c, 6, 72, 0
8, 199680, Note_on_c, 6, 77, 96
8, 199680, Note_off_c, 6, 69, 0
8, 199680, Note_on_c, 6, 72, 96
8, 200192, Note_off_c, 6, 77, 0
8, 200192, Note_on_c, 6, 72, 96
8, 200192, Note_off_c, 6, 72, 0
8, 200192, Note_on_c, 6, 69, 96
8, 200704, Note_off_c, 6, 72, 0
8, 200704, Note_on_c, 6, 72, 96
8, 200704, Note_off_c, 6, 69, 0
8, 200704, Note_on_c, 6, 69, 96
8, 201216, Note_off_c, 6, 72, 0
8, 201216, Note_on_c, 6, 72, 96
8, 201216, Note_off_c, 6, 69, 0
8, 201216, Note_on_c, 6, 69, 96
8, 201728, Note_off_c, 6, 72, 0
8, 201728, Note_on_c, 6, 69, 96
8, 201728, Note_off_c, 6, 69, 0
8, 201728, Note_on_c, 6, 65, 96
8, 202240, Note_off_c, 6, 69, 0
8, 202240, Note_on_c, 6, 69, 96
8, 202240, Note_off_c, 6, 65, 0
8, 202240, Note_on_c, 6, 65, 96
8, 202752, Note_off_c, 6, 69, 0
8, 202752, Note_off_c, 6, 65, 0
8, 202752, Note_on_c, 6, 74, 96
8, 202752, Note_on_c, 6, 65, 96
8, 203776, Note_off_c, 6, 65, 0
8, 203776, Note_on_c, 6, 65, 96
8, 204288, Note_off_c, 6, 65, 0
8, 204288, Note_on_c, 6, 70, 96
8, 205824, Note_off_c, 6, 74, 0
8, 205824, Note_on_c, 6, 72, 96
8, 207360, Note_off_c, 6, 70, 0
8, 207360, Note_on_c, 6, 69, 96
8, 208896, Note_off_c, 6, 72, 0
8, 208896, Note_on_c, 6, 70, 96
8, 210432, Note_off_c, 6, 69, 0
8, 210432, Note_on_c, 6, 67, 96
8, 211968, Note_off_c, 6, 70, 0
8, 211968, Note_on_c, 6, 69, 96
8, 213504, Note_off_c, 6, 67, 0
8, 213504, Note_on_c, 6, 65, 96
8, 215040, Note_off_c, 6, 69, 0
8, 215040, Note_on_c, 6, 67, 96
8, 216064, Note_off_c, 6, 65, 0
8, 218624, Note_on_c, 6, 60, 96
8, 219136, Note_off_c, 6, 60, 0
8, 219136, Note_on_c, 6, 60, 96
8, 219648, Note_off_c, 6, 60, 0
8, 219648, Note_on_c, 6, 60, 96
8, 220160, Note_off_c, 6, 60, 0
8, 220160, Note_on_c, 6, 60, 96
8, 220672, Note_off_c, 6, 60, 0
8, 220672, Note_on_c, 6, 60, 96
8, 221184, Note_off_c, 6, 67, 0
8, 221184, Note_off_c, 6, 60, 0
8, 221184, Note_on_c, 6, 65, 96
8, 221184, Note_on_c, 6, 60, 96
8, 221696, Note_off_c, 6, 60, 0
8, 221696, Note_on_c, 6, 60, 96
8, 222208, Note_off_c, 6, 60, 0
8, 222208, Note_on_c, 6, 60, 96
8, 222720, Note_off_c, 6, 60, 0
8, 222720, Note_on_c, 6, 57, 96
8, 223232, Note_off_c, 6, 57, 0
8, 223232, Note_on_c, 6, 57, 96
8, 223744, Note_off_c, 6, 57, 0
8, 223744, Note_on_c, 6, 57, 96
8, 224256, Note_off_c, 6, 57, 0
8, 224256, Note_on_c, 6, 53, 96
8, 224768, Note_off_c, 6, 53, 0
8, 224768, Note_on_c, 6, 53, 96
8, 225280, Note_off_c, 6, 53, 0
8, 225280, Note_on_c, 6, 53, 96
8, 225792, Note_off_c, 6, 53, 0
8, 225792, Note_on_c, 6, 53, 96
8, 226304, Note_off_c, 6, 53, 0
8, 226304, Note_on_c, 6, 53, 96
8, 226816, Note_off_c, 6, 53, 0
8, 226816, Note_on_c, 6, 53, 96
8, 227328, Note_off_c, 6, 53, 0
8, 227328, Note_on_c, 6, 53, 96
8, 228352, Note_off_c, 6, 65, 0
8, 228352, Note_on_c, 6, 65, 96
8, 228352, Note_off_c, 6, 53, 0
8, 228864, Note_off_c, 6, 65, 0
8, 228864, Note_on_c, 6, 72, 96
8, 229888, Note_off_c, 6, 72, 0
8, 229888, Note_on_c, 6, 74, 96
8, 230400, Note_off_c, 6, 74, 0
8, 230400, Note_on_c, 6, 70, 96
8, 231424, Note_off_c, 6, 70, 0
8, 231424, Note_on_c, 6, 69, 96
8, 231936, Note_off_c, 6, 69, 0
8, 231936, Note_on_c, 6, 70, 96
8, 232448, Note_off_c, 6, 70, 0
8, 232448, Note_on_c, 6, 67, 96
8, 232960, Note_off_c, 6, 67, 0
8, 232960, Note_on_c, 6, 69, 96
8, 233472, Note_off_c, 6, 69, 0
8, 233472, Note_on_c, 6, 69, 96
8, 233984, Note_off_c, 6, 69, 0
8, 233984, Note_on_c, 6, 65, 96
8, 233984, Note_on_c, 6, 60, 96
8, 234496, Note_off_c, 6, 65, 0
8, 234496, Note_on_c, 6, 69, 96
8, 234496, Note_off_c, 6, 60, 0
8, 234496, Note_on_c, 6, 65, 96
8, 235008, Note_off_c, 6, 69, 0
8, 235008, Note_on_c, 6, 72, 96
8, 235008, Note_off_c, 6, 65, 0
8, 235008, Note_on_c, 6, 69, 96
8, 235520, Note_off_c, 6, 72, 0
8, 235520, Note_on_c, 6, 69, 96
8, 235520, Note_off_c, 6, 69, 0
8, 235520, Note_on_c, 6, 65, 96
8, 236032, Note_off_c, 6, 69, 0
8, 236032, Note_on_c, 6, 72, 96
8, 236032, Note_off_c, 6, 65, 0
8, 236032, Note_on_c, 6, 69, 96
8, 236544, Note_off_c, 6, 72, 0
8, 236544, Note_on_c, 6, 77, 96
8, 236544, Note_off_c, 6, 69, 0
8, 236544, Note_on_c, 6, 72, 96
8, 237056, Note_off_c, 6, 77, 0
8, 237056, Note_on_c, 6, 72, 96
8, 237056, Note_off_c, 6, 72, 0
8, 237056, Note_on_c, 6, 69, 96
8, 237568, Note_off_c, 6, 72, 0
8, 237568, Note_on_c, 6, 72, 96
8, 237568, Note_off_c, 6, 69, 0
8, 237568, Note_on_c, 6, 69, 96
8, 238080, Note_off_c, 6, 72, 0
8, 238080, Note_on_c, 6, 72, 96
8, 238080, Note_off_c, 6, 69, 0
8, 238080, Note_on_c, 6, 69, 96
8, 238592, Note_off_c, 6, 72, 0
8, 238592, Note_on_c, 6, 69, 96
8, 238592, Note_off_c, 6, 69, 0
8, 238592, Note_on_c, 6, 65, 96
8, 239104, Note_off_c, 6, 69, 0
8, 239104, Note_on_c, 6, 69, 96
8, 239104, Note_off_c, 6, 65, 0
8, 239104, Note_on_c, 6, 65, 96
8, 239616, Note_off_c, 6, 69, 0
8, 239616, Note_off_c, 6, 65, 0
8, 239616, Note_on_c, 6, 69, 96
8, 239616, Note_on_c, 6, 65, 96
8, 240128, Note_off_c, 6, 69, 0
8, 240128, Note_on_c, 6, 65, 96
8, 240384, Note_off_c, 6, 65, 0
8, 240384, Note_on_c, 6, 67, 96
8, 240640, Note_off_c, 6, 67, 0
8, 240640, Note_on_c, 6, 69, 96
8, 240640, Note_off_c, 6, 65, 0
8, 240896, Note_off_c, 6, 69, 0
8, 240896, Note_on_c, 6, 70, 96
8, 241152, Note_off_c, 6, 70, 0
8, 241152, Note_on_c, 6, 72, 96
8, 244224, Note_off_c, 6, 72, 0
8, 244224, Note_on_c, 6, 71, 96
8, 245760, Note_off_c, 6, 71, 0
8, 245760, Note_on_c, 6, 72, 96
8, 246272, Note_off_c, 6, 72, 0
8, 246272, Note_on_c, 6, 67, 96
8, 246784, Note_off_c, 6, 67, 0
8, 246784, Note_on_c, 6, 72, 96
8, 246784, Note_on_c, 6, 67, 96
8, 247296, Note_off_c, 6, 72, 0
8, 247296, Note_on_c, 6, 72, 96
8, 247296, Note_off_c, 6, 67, 0
8, 247296, Note_on_c, 6, 67, 96
8, 247808, Note_off_c, 6, 72, 0
8, 247808, Note_on_c, 6, 76, 96
8, 247808, Note_off_c, 6, 67, 0
8, 247808, Note_on_c, 6, 72, 96
8, 248320, Note_off_c, 6, 76, 0
8, 248320, Note_on_c, 6, 72, 96
8, 248320, Note_off_c, 6, 72, 0
8, 248320, Note_on_c, 6, 67, 96
8, 248832, Note_off_c, 6, 72, 0
8, 248832, Note_on_c, 6, 67, 96
8, 248832, Note_off_c, 6, 67, 0
8, 248832, Note_on_c, 6, 60, 96
8, 249344, Note_off_c, 6, 67, 0
8, 249344, Note_on_c, 6, 72, 96
8, 249344, Note_off_c, 6, 60, 0
8, 249344, Note_on_c, 6, 67, 96
8, 249856, Note_off_c, 6, 72, 0
8, 249856, Note_on_c, 6, 76, 96
8, 249856, Note_off_c, 6, 67, 0
8, 249856, Note_on_c, 6, 72, 96
8, 250368, Note_off_c, 6, 76, 0
8, 250368, Note_on_c, 6, 72, 96
8, 250368, Note_off_c, 6, 72, 0
8, 250368, Note_on_c, 6, 67, 96
8, 250880, Note_off_c, 6, 72, 0
8, 250880, Note_on_c, 6, 76, 96
8, 250880, Note_off_c, 6, 67, 0
8, 250880, Note_on_c, 6, 72, 96
8, 251392, Note_off_c, 6, 76, 0
8, 251392, Note_on_c, 6, 79, 96
8, 251392, Note_off_c, 6, 72, 0
8, 251392, Note_on_c, 6, 76, 96
8, 251904, Note_off_c, 6, 79, 0
8, 251904, Note_off_c, 6, 76, 0
8, 251904, Note_on_c, 6, 79, 96
8, 251904, Note_on_c, 6, 76, 96
8, 252928, Note_off_c, 6, 79, 0
8, 252928, Note_on_c, 6, 67, 96
8, 252928, Note_off_c, 6, 76, 0
8, 252928, Note_on_c, 6, 60, 96
8, 253440, Note_off_c, 6, 67, 0
8, 253440, Note_on_c, 6, 67, 96
8, 253440, Note_off_c, 6, 60, 0
8, 253440, Note_on_c, 6, 60, 96
8, 253952, Note_off_c, 6, 67, 0
8, 253952, Note_on_c, 6, 70, 96
8, 253952, Note_off_c, 6, 60, 0
8, 253952, Note_on_c, 6, 67, 96
8, 254464, Note_off_c, 6, 70, 0
8, 254464, Note_on_c, 6, 69, 96
8, 254464, Note_off_c, 6, 67, 0
8, 254464, Note_on_c, 6, 65, 96
8, 254976, Note_off_c, 6, 69, 0
8, 254976, Note_on_c, 6, 67, 96
8, 254976, Note_off_c, 6, 65, 0
8, 254976, Note_on_c, 6, 60, 96
8, 255488, Note_off_c, 6, 67, 0
8, 255488, Note_on_c, 6, 70, 96
8, 255488, Note_off_c, 6, 60, 0
8, 255488, Note_on_c, 6, 67, 96
8, 256000, Note_off_c, 6, 70, 0
8, 256000, Note_on_c, 6, 69, 96
8, 256000, Note_off_c, 6, 67, 0
8, 256000, Note_on_c, 6, 65, 96
8, 256512, Note_off_c, 6, 69, 0
8, 256512, Note_on_c, 6, 67, 96
8, 256512, Note_off_c, 6, 65, 0
8, 256512, Note_on_c, 6, 60, 96
8, 257024, Note_off_c, 6, 67, 0
8, 257024, Note_on_c, 6, 69, 96
8, 257024, Note_off_c, 6, 60, 0
8, 257024, Note_on_c, 6, 57, 96
8, 257280, Note_off_c, 6, 69, 0
8, 257280, Note_on_c, 6, 67, 96
8, 257536, Note_off_c, 6, 67, 0
8, 257536, Note_on_c, 6, 69, 96
8, 257536, Note_off_c, 6, 57, 0
8, 257536, Note_on_c, 6, 57, 96
8, 257792, Note_off_c, 6, 69, 0
8, 257792, Note_on_c, 6, 67, 96
8, 258048, Note_off_c, 6, 67, 0
8, 258048, Note_off_c, 6, 57, 0
8, 258048, Note_on_c, 6, 65, 96
8, 258048, Note_on_c, 6, 57, 96
8, 258304, Note_off_c, 6, 65, 0
8, 258304, Note_on_c, 6, 64, 96
8, 258560, Note_off_c, 6, 64, 0
8, 258560, Note_on_c, 6, 65, 96
8, 258560, Note_off_c, 6, 57, 0
8, 258560, Note_on_c, 6, 53, 96
8, 258816, Note_off_c, 6, 65, 0
8, 258816, Note_on_c, 6, 67, 96
8, 259072, Note_off_c, 6, 67, 0
8, 259072, Note_on_c, 6, 69, 96
8, 259072, Note_off_c, 6, 53, 0
8, 259072, Note_on_c, 6, 65, 96
8, 259328, Note_off_c, 6, 69, 0
8, 259328, Note_on_c, 6, 70, 96
8, 259328, Note_off_c, 6, 65, 0
8, 259328, Note_on_c, 6, 67, 96
8, 259584, Note_off_c, 6, 70, 0
8, 259584, Note_on_c, 6, 72, 96
8, 259584, Note_off_c, 6, 67, 0
8, 259584, Note_on_c, 6, 69, 96
8, 260096, Note_off_c, 6, 72, 0
8, 260096, Note_on_c, 6, 69, 96
8, 260096, Note_off_c, 6, 69, 0
8, 260096, Note_on_c, 6, 65, 96
8, 260608, Note_off_c, 6, 69, 0
8, 260608, Note_on_c, 6, 70, 96
8, 260608, Note_off_c, 6, 65, 0
8, 260608, Note_on_c, 6, 67, 96
8, 261120, Note_off_c, 6, 70, 0
8, 261120, Note_on_c, 6, 72, 96
8, 261120, Note_off_c, 6, 67, 0
8, 261120, Note_on_c, 6, 69, 96
8, 261632, Note_off_c, 6, 72, 0
8, 261632, Note_on_c, 6, 69, 96
8, 261632, Note_off_c, 6, 69, 0
8, 261632, Note_on_c, 6, 65, 96
8, 262144, Note_off_c, 6, 69, 0
8, 262144, Note_on_c, 6, 70, 96
8, 262144, Note_off_c, 6, 65, 0
8, 262144, Note_on_c, 6, 67, 96
8, 262656, Note_off_c, 6, 70, 0
8, 262656, Note_on_c, 6, 72, 96
8, 262656, Note_off_c, 6, 67, 0
8, 262656, Note_on_c, 6, 69, 96
8, 263168, Note_off_c, 6, 72, 0
8, 263168, Note_on_c, 6, 69, 96
8, 263168, Note_off_c, 6, 69, 0
8, 263168, Note_on_c, 6, 65, 96
8, 263680, Note_off_c, 6, 69, 0
8, 263680, Note_on_c, 6, 74, 96
8, 263680, Note_off_c, 6, 65, 0
8, 263680, Note_on_c, 6, 69, 96
8, 264192, Note_off_c, 6, 74, 0
8, 264192, Note_off_c, 6, 69, 0
8, 264192, Note_on_c, 6, 70, 96
8, 264192, Note_on_c, 6, 67, 96
8, 265216, Note_off_c, 6, 70, 0
8, 265216, Note_off_c, 6, 67, 0
8, 271360, Note_on_c, 6, 65, 96
8, 271360, Note_on_c, 6, 60, 96
8, 271872, Note_off_c, 6, 65, 0
8, 271872, Note_on_c, 6, 72, 96
8, 271872, Note_off_c, 6, 60, 0
8, 271872, Note_on_c, 6, 69, 96
8, 272896, Note_off_c, 6, 72, 0
8, 272896, Note_on_c, 6, 74, 96
8, 272896, Note_off_c, 6, 69, 0
8, 272896, Note_on_c, 6, 70, 96
8, 273408, Note_off_c, 6, 74, 0
8, 273408, Note_on_c, 6, 70, 96
8, 273408, Note_off_c, 6, 70, 0
8, 273408, Note_on_c, 6, 67, 96
8, 274432, Note_off_c, 6, 70, 0
8, 274432, Note_on_c, 6, 69, 96
8, 274432, Note_off_c, 6, 67, 0
8, 274432, Note_on_c, 6, 65, 96
8, 274944, Note_off_c, 6, 69, 0
8, 274944, Note_on_c, 6, 70, 96
8, 274944, Note_off_c, 6, 65, 0
8, 274944, Note_on_c, 6, 67, 96
8, 275456, Note_off_c, 6, 70, 0
8, 275456, Note_on_c, 6, 67, 96
8, 275456, Note_off_c, 6, 67, 0
8, 275456, Note_on_c, 6, 60, 96
8, 275968, Note_off_c, 6, 67, 0
8, 275968, Note_on_c, 6, 69, 96
8, 275968, Note_off_c, 6, 60, 0
8, 275968, Note_on_c, 6, 65, 96
8, 276480, Note_off_c, 6, 69, 0
8, 276480, Note_off_c, 6, 65, 0
8, 276480, Note_on_c, 6, 69, 96
8, 276480, Note_on_c, 6, 65, 96
8, 276992, Note_off_c, 6, 69, 0
8, 276992, Note_on_c, 6, 70, 96
8, 276992, Note_off_c, 6, 65, 0
8, 276992, Note_on_c, 6, 67, 96
8, 277248, Note_off_c, 6, 70, 0
8, 277248, Note_on_c, 6, 72, 96
8, 277248, Note_off_c, 6, 67, 0
8, 277248, Note_on_c, 6, 69, 96
8, 277504, Note_off_c, 6, 72, 0
8, 277504, Note_on_c, 6, 74, 96
8, 277504, Note_off_c, 6, 69, 0
8, 277504, Note_on_c, 6, 70, 96
8, 278016, Note_off_c, 6, 74, 0
8, 278016, Note_on_c, 6, 74, 96
8, 278016, Note_off_c, 6, 70, 0
8, 278016, Note_on_c, 6, 67, 96
8, 278528, Note_off_c, 6, 74, 0
8, 278528, Note_off_c, 6, 67, 0
8, 279040, Note_on_c, 6, 72, 96
8, 279040, Note_on_c, 6, 69, 96
8, 279552, Note_off_c, 6, 72, 0
8, 279552, Note_on_c, 6, 72, 96
8, 279552, Note_off_c, 6, 69, 0
8, 279552, Note_on_c, 6, 65, 96
8, 280064, Note_off_c, 6, 72, 0
8, 280064, Note_off_c, 6, 65, 0
8, 280576, Note_on_c, 6, 70, 96
8, 280576, Note_on_c, 6, 67, 96
8, 281088, Note_off_c, 6, 70, 0
8, 281088, Note_on_c, 6, 70, 96
8, 281088, Note_off_c, 6, 67, 0
8, 281088, Note_on_c, 6, 60, 96
8, 281600, Note_off_c, 6, 70, 0
8, 281600, Note_off_c, 6, 60, 0
8, 282112, Note_on_c, 6, 69, 96
8, 282112, Note_on_c, 6, 65, 96
8, 282624, Note_off_c, 6, 69, 0
8, 282624, Note_off_c, 6, 65, 0
8, 282624, Note_on_c, 6, 69, 96
8, 282624, Note_on_c, 6, 65, 96
8, 283136, Note_off_c, 6, 69, 0
8, 283136, Note_off_c, 6, 65, 0
8, 283648, Note_on_c, 6, 67, 96
8, 283648, Note_on_c, 6, 60, 96
8, 284160, Note_off_c, 6, 67, 0
8, 284160, Note_on_c, 6, 67, 96
8, 284160, Note_off_c, 6, 60, 0
8, 284160, Note_on_c, 6, 60, 96
8, 284672, Note_off_c, 6, 67, 0
8, 284672, Note_off_c, 6, 60, 0
8, 285184, Note_on_c, 6, 65, 96
8, 285184, Note_on_c, 6, 65, 96
8, 285696, Note_off_c, 6, 65, 0
8, 285696, Note_on_c, 6, 72, 96
8, 285696, Note_off_c, 6, 65, 0
8, 285696, Note_on_c, 6, 67, 96
8, 286208, Note_off_c, 6, 67, 0
8, 286208, Note_on_c, 6, 69, 96
8, 286720, Note_off_c, 6, 69, 0
8, 286720, Note_on_c, 6, 70, 96
8, 287232, Note_off_c, 6, 70, 0
8, 287232, Note_on_c, 6, 67, 96
8, 287744, Note_off_c, 6, 67, 0
8, 287744, Note_on_c, 6, 69, 96
8, 288256, Note_off_c, 6, 69, 0
8, 288256, Note_on_c, 6, 70, 96
8, 288768, Note_off_c, 6, 70, 0
8, 288768, Note_on_c, 6, 69, 96
8, 289280, Note_off_c, 6, 69, 0
8, 289280, Note_on_c, 6, 72, 96
8, 289792, Note_off_c, 6, 72, 0
8, 289792, Note_on_c, 6, 69, 96
8, 290304, Note_off_c, 6, 69, 0
8, 290304, Note_on_c, 6, 65, 96
8, 290816, Note_off_c, 6, 65, 0
8, 290816, Note_on_c, 6, 67, 96
8, 291328, Note_off_c, 6, 67, 0
8, 291328, Note_on_c, 6, 69, 96
8, 291840, Note_off_c, 6, 69, 0
8, 291840, Note_on_c, 6, 67, 96
8, 292352, Note_off_c, 6, 67, 0
8, 292352, Note_on_c, 6, 70, 96
8, 292864, Note_off_c, 6, 70, 0
8, 292864, Note_on_c, 6, 67, 96
8, 293376, Note_off_c, 6, 67, 0
8, 293376, Note_on_c, 6, 60, 96
8, 293888, Note_off_c, 6, 60, 0
8, 293888, Note_on_c, 6, 60, 96
8, 294400, Note_off_c, 6, 60, 0
8, 294400, Note_on_c, 6, 60, 96
8, 294912, Note_off_c, 6, 60, 0
8, 294912, Note_on_c, 6, 57, 96
8, 295168, Note_off_c, 6, 72, 0
8, 295168, Note_on_c, 6, 70, 96
8, 295424, Note_off_c, 6, 70, 0
8, 295424, Note_on_c, 6, 69, 96
8, 295680, Note_off_c, 6, 69, 0
8, 295680, Note_on_c, 6, 70, 96
8, 295936, Note_off_c, 6, 70, 0
8, 295936, Note_on_c, 6, 67, 96
8, 295936, Note_off_c, 6, 57, 0
8, 296192, Note_off_c, 6, 67, 0
8, 296192, Note_on_c, 6, 69, 96
8, 296448, Note_off_c, 6, 69, 0
8, 296448, Note_on_c, 6, 70, 96
8, 296704, Note_off_c, 6, 70, 0
8, 296704, Note_on_c, 6, 69, 96
8, 296960, Note_off_c, 6, 69, 0
8, 296960, Note_on_c, 6, 67, 96
8, 297216, Note_off_c, 6, 67, 0
8, 297216, Note_on_c, 6, 69, 96
8, 297472, Note_off_c, 6, 69, 0
8, 297472, Note_on_c, 6, 65, 96
8, 297728, Note_off_c, 6, 65, 0
8, 297728, Note_on_c, 6, 67, 96
8, 297984, Note_off_c, 6, 67, 0
8, 297984, Note_on_c, 6, 69, 96
8, 298240, Note_off_c, 6, 69, 0
8, 298240, Note_on_c, 6, 67, 96
8, 298496, Note_off_c, 6, 67, 0
8, 298496, Note_on_c, 6, 65, 96
8, 298752, Note_off_c, 6, 65, 0
8, 298752, Note_on_c, 6, 67, 96
8, 299008, Note_off_c, 6, 67, 0
8, 299008, Note_on_c, 6, 65, 96
8, 299008, Note_on_c, 6, 65, 96
8, 299264, Note_off_c, 6, 65, 0
8, 299264, Note_on_c, 6, 67, 96
8, 299520, Note_off_c, 6, 67, 0
8, 299520, Note_on_c, 6, 67, 96
8, 299520, Note_off_c, 6, 65, 0
8, 299520, Note_on_c, 6, 60, 96
8, 300032, Note_off_c, 6, 60, 0
8, 300032, Note_on_c, 6, 57, 96
8, 300544, Note_off_c, 6, 67, 0
8, 300544, Note_on_c, 6, 65, 96
8, 300544, Note_off_c, 6, 57, 0
8, 300544, Note_on_c, 6, 60, 96
8, 301056, Note_off_c, 6, 65, 0
8, 301056, Note_off_c, 6, 60, 0
8, 301056, Note_on_c, 6, 65, 96
8, 301056, Note_on_c, 6, 57, 96
8, 302080, Note_off_c, 6, 65, 0
8, 302080, Note_on_c, 6, 69, 96
8, 302080, Note_off_c, 6, 57, 0
8, 302080, Note_on_c, 6, 65, 96
8, 302592, Note_off_c, 6, 69, 0
8, 302592, Note_on_c, 6, 72, 96
8, 302592, Note_off_c, 6, 65, 0
8, 302592, Note_on_c, 6, 69, 96
8, 303104, Note_off_c, 6, 72, 0
8, 303104, Note_on_c, 6, 69, 96
8, 303104, Note_off_c, 6, 69, 0
8, 303104, Note_on_c, 6, 65, 96
8, 303616, Note_off_c, 6, 69, 0
8, 303616, Note_on_c, 6, 72, 96
8, 303616, Note_off_c, 6, 65, 0
8, 303616, Note_on_c, 6, 69, 96
8, 304128, Note_off_c, 6, 72, 0
8, 304128, Note_on_c, 6, 77, 96
8, 304128, Note_off_c, 6, 69, 0
8, 304128, Note_on_c, 6, 72, 96
8, 304640, Note_off_c, 6, 77, 0
8, 304640, Note_on_c, 6, 72, 96
8, 304640, Note_off_c, 6, 72, 0
8, 304640, Note_on_c, 6, 69, 96
8, 305152, Note_off_c, 6, 72, 0
8, 305152, Note_on_c, 6, 72, 96
8, 305152, Note_off_c, 6, 69, 0
8, 305152, Note_on_c, 6, 69, 96
8, 305664, Note_off_c, 6, 72, 0
8, 305664, Note_on_c, 6, 72, 96
8, 305664, Note_off_c, 6, 69, 0
8, 305664, Note_on_c, 6, 69, 96
8, 306176, Note_off_c, 6, 72, 0
8, 306176, Note_on_c, 6, 69, 96
8, 306176, Note_off_c, 6, 69, 0
8, 306176, Note_on_c, 6, 65, 96
8, 306688, Note_off_c, 6, 69, 0
8, 306688, Note_on_c, 6, 69, 96
8, 306688, Note_off_c, 6, 65, 0
8, 306688, Note_on_c, 6, 65, 96
8, 307200, Note_off_c, 6, 69, 0
8, 307200, Note_off_c, 6, 65, 0
8, 307200, Note_on_c, 6, 69, 96
8, 307200, Note_on_c, 6, 65, 96
8, 307712, Note_off_c, 6, 69, 0
8, 307712, Note_on_c, 6, 65, 96
8, 307968, Note_off_c, 6, 65, 0
8, 307968, Note_on_c, 6, 67, 96
8, 308224, Note_off_c, 6, 67, 0
8, 308224, Note_on_c, 6, 69, 96
8, 308224, Note_off_c, 6, 65, 0
8, 308480, Note_off_c, 6, 69, 0
8, 308480, Note_on_c, 6, 70, 96
8, 308736, Note_off_c, 6, 70, 0
8, 308736, Note_on_c, 6, 72, 96
8, 310272, Note_off_c, 6, 72, 0
8, 310272, Note_on_c, 6, 69, 96
8, 313344, Note_off_c, 6, 69, 0
8, 313344, Note_on_c, 6, 65, 96
8, 316416, Note_off_c, 6, 65, 0
8, 316416, Note_on_c, 6, 72, 96
8, 316928, Note_on_c, 6, 65, 96
8, 317184, Note_off_c, 6, 65, 0
8, 317184, Note_on_c, 6, 67, 96
8, 317440, Note_off_c, 6, 67, 0
8, 317440, Note_on_c, 6, 69, 96
8, 317696, Note_off_c, 6, 69, 0
8, 317696, Note_on_c, 6, 70, 96
8, 317952, Note_off_c, 6, 70, 0
8, 317952, Note_on_c, 6, 72, 96
8, 319488, Note_off_c, 6, 72, 0
8, 319488, Note_on_c, 6, 74, 96
8, 322560, Note_off_c, 6, 74, 0
8, 322560, Note_on_c, 6, 74, 96
8, 322560, Note_off_c, 6, 72, 0
8, 322560, Note_on_c, 6, 71, 96
8, 325632, Note_off_c, 6, 74, 0
8, 325632, Note_off_c, 6, 71, 0
8, 325632, Note_on_c, 6, 72, 96
8, 325632, Note_on_c, 6, 72, 96
8, 332800, Note_off_c, 6, 72, 0
8, 332800, Note_off_c, 6, 72, 0
8, 338944, Note_on_c, 6, 72, 96
8, 338944, Note_on_c, 6, 67, 96
8, 339456, Note_off_c, 6, 72, 0
8, 339456, Note_on_c, 6, 72, 96
8, 339456, Note_off_c, 6, 67, 0
8, 339456, Note_on_c, 6, 67, 96
8, 339968, Note_off_c, 6, 72, 0
8, 339968, Note_on_c, 6, 76, 96
8, 339968, Note_off_c, 6, 67, 0
8, 339968, Note_on_c, 6, 72, 96
8, 340480, Note_off_c, 6, 76, 0
8, 340480, Note_on_c, 6, 72, 96
8, 340480, Note_off_c, 6, 72, 0
8, 340480, Note_on_c, 6, 67, 96
8, 340992, Note_off_c, 6, 72, 0
8, 340992, Note_on_c, 6, 67, 96
8, 340992, Note_off_c, 6, 67, 0
8, 340992, Note_on_c, 6, 60, 96
8, 341504, Note_off_c, 6, 67, 0
8, 341504, Note_on_c, 6, 72, 96
8, 341504, Note_off_c, 6, 60, 0
8, 341504, Note_on_c, 6, 67, 96
8, 342016, Note_off_c, 6, 72, 0
8, 342016, Note_on_c, 6, 76, 96
8, 342016, Note_off_c, 6, 67, 0
8, 342016, Note_on_c, 6, 72, 96
8, 342528, Note_off_c, 6, 76, 0
8, 342528, Note_on_c, 6, 72, 96
8, 342528, Note_off_c, 6, 72, 0
8, 342528, Note_on_c, 6, 67, 96
8, 343040, Note_off_c, 6, 72, 0
8, 343040, Note_on_c, 6, 76, 96
8, 343040, Note_off_c, 6, 67, 0
8, 343040, Note_on_c, 6, 72, 96
8, 343552, Note_off_c, 6, 76, 0
8, 343552, Note_on_c, 6, 79, 96
8, 343552, Note_off_c, 6, 72, 0
8, 343552, Note_on_c, 6, 76, 96
8, 344064, Note_off_c, 6, 79, 0
8, 344064, Note_off_c, 6, 76, 0
8, 344064, Note_on_c, 6, 79, 96
8, 344064, Note_on_c, 6, 76, 96
8, 345088, Note_off_c, 6, 79, 0
8, 345088, Note_off_c, 6, 76, 0
8, 369664, Note_on_c, 6, 72, 96
8, 369664, Note_on_c, 6, 67, 96
8, 370176, Note_off_c, 6, 72, 0
8, 370176, Note_on_c, 6, 72, 96
8, 370176, Note_off_c, 6, 67, 0
8, 370176, Note_on_c, 6, 69, 96
8, 370688, Note_off_c, 6, 72, 0
8, 370688, Note_on_c, 6, 69, 96
8, 370688, Note_off_c, 6, 69, 0
8, 370688, Note_on_c, 6, 65, 96
8, 371200, Note_off_c, 6, 69, 0
8, 371200, Note_on_c, 6, 72, 96
8, 371200, Note_off_c, 6, 65, 0
8, 371200, Note_on_c, 6, 69, 96
8, 371712, Note_off_c, 6, 72, 0
8, 371712, Note_on_c, 6, 77, 96
8, 371712, Note_off_c, 6, 69, 0
8, 371712, Note_on_c, 6, 72, 96
8, 372224, Note_off_c, 6, 77, 0
8, 372224, Note_on_c, 6, 72, 96
8, 372224, Note_off_c, 6, 72, 0
8, 372224, Note_on_c, 6, 69, 96
8, 372736, Note_off_c, 6, 72, 0
8, 372736, Note_on_c, 6, 72, 96
8, 372736, Note_off_c, 6, 69, 0
8, 372736, Note_on_c, 6, 69, 96
8, 373248, Note_off_c, 6, 72, 0
8, 373248, Note_on_c, 6, 72, 96
8, 373248, Note_off_c, 6, 69, 0
8, 373248, Note_on_c, 6, 69, 96
8, 373760, Note_off_c, 6, 72, 0
8, 373760, Note_on_c, 6, 69, 96
8, 373760, Note_off_c, 6, 69, 0
8, 373760, Note_on_c, 6, 65, 96
8, 374272, Note_off_c, 6, 69, 0
8, 374272, Note_on_c, 6, 69, 96
8, 374272, Note_off_c, 6, 65, 0
8, 374272, Note_on_c, 6, 65, 96
8, 374784, Note_off_c, 6, 69, 0
8, 374784, Note_off_c, 6, 65, 0
8, 374784, Note_on_c, 6, 74, 96
8, 374784, Note_on_c, 6, 65, 96
8, 375808, Note_off_c, 6, 65, 0
8, 377856, Note_off_c, 6, 74, 0
8, 377856, Note_on_c, 6, 76, 96
8, 380928, Note_off_c, 6, 76, 0
8, 380928, Note_on_c, 6, 77, 96
8, 384000, Note_off_c, 6, 77, 0
8, 384000, Note_on_c, 6, 76, 96
8, 385536, Note_on_c, 6, 72, 96
8, 387072, Note_off_c, 6, 76, 0
8, 387072, Note_on_c, 6, 74, 96
8, 390144, Note_off_c, 6, 74, 0
8, 390144, Note_on_c, 6, 74, 96
8, 390144, Note_off_c, 6, 72, 0
8, 390144, Note_on_c, 6, 71, 96
8, 393216, Note_off_c, 6, 74, 0
8, 393216, Note_off_c, 6, 71, 0
8, 393216, Note_on_c, 6, 72, 96
8, 393216, Note_on_c, 6, 72, 96
8, 399360, Note_off_c, 6, 72, 0
8, 399360, Note_off_c, 6, 72, 0
8, 400384, Note_on_c, 6, 67, 96
8, 400384, Note_on_c, 6, 60, 96
8, 400896, Note_off_c, 6, 67, 0
8, 400896, Note_on_c, 6, 67, 96
8, 400896, Note_off_c, 6, 60, 0
8, 400896, Note_on_c, 6, 60, 96
8, 401408, Note_off_c, 6, 67, 0
8, 401408, Note_on_c, 6, 70, 96
8, 401408, Note_off_c, 6, 60, 0
8, 401408, Note_on_c, 6, 67, 96
8, 401920, Note_off_c, 6, 70, 0
8, 401920, Note_on_c, 6, 69, 96
8, 401920, Note_off_c, 6, 67, 0
8, 401920, Note_on_c, 6, 65, 96
8, 402432, Note_off_c, 6, 69, 0
8, 402432, Note_on_c, 6, 67, 96
8, 402432, Note_off_c, 6, 65, 0
8, 402432, Note_on_c, 6, 60, 96
8, 402944, Note_off_c, 6, 67, 0
8, 402944, Note_on_c, 6, 70, 96
8, 402944, Note_off_c, 6, 60, 0
8, 402944, Note_on_c, 6, 67, 96
8, 403456, Note_off_c, 6, 70, 0
8, 403456, Note_on_c, 6, 69, 96
8, 403456, Note_off_c, 6, 67, 0
8, 403456, Note_on_c, 6, 65, 96
8, 403968, Note_off_c, 6, 69, 0
8, 403968, Note_on_c, 6, 67, 96
8, 403968, Note_off_c, 6, 65, 0
8, 403968, Note_on_c, 6, 60, 96
8, 404480, Note_off_c, 6, 67, 0
8, 404480, Note_on_c, 6, 69, 96
8, 404480, Note_off_c, 6, 60, 0
8, 404480, Note_on_c, 6, 57, 96
8, 404736, Note_off_c, 6, 69, 0
8, 404736, Note_on_c, 6, 67, 96
8, 404992, Note_off_c, 6, 67, 0
8, 404992, Note_on_c, 6, 69, 96
8, 404992, Note_off_c, 6, 57, 0
8, 404992, Note_on_c, 6, 57, 96
8, 405248, Note_off_c, 6, 69, 0
8, 405248, Note_on_c, 6, 67, 96
8, 405504, Note_off_c, 6, 67, 0
8, 405504, Note_off_c, 6, 57, 0
8, 405504, Note_on_c, 6, 65, 96
8, 405504, Note_on_c, 6, 57, 96
8, 405760, Note_off_c, 6, 65, 0
8, 405760, Note_on_c, 6, 64, 96
8, 406016, Note_off_c, 6, 64, 0
8, 406016, Note_on_c, 6, 65, 96
8, 406016, Note_off_c, 6, 57, 0
8, 406016, Note_on_c, 6, 53, 96
8, 406272, Note_off_c, 6, 65, 0
8, 406272, Note_on_c, 6, 67, 96
8, 406528, Note_off_c, 6, 67, 0
8, 406528, Note_on_c, 6, 69, 96
8, 406528, Note_off_c, 6, 53, 0
8, 406528, Note_on_c, 6, 65, 96
8, 406784, Note_off_c, 6, 69, 0
8, 406784, Note_on_c, 6, 70, 96
8, 406784, Note_off_c, 6, 65, 0
8, 406784, Note_on_c, 6, 67, 96
8, 407040, Note_off_c, 6, 70, 0
8, 407040, Note_on_c, 6, 72, 96
8, 407040, Note_off_c, 6, 67, 0
8, 407040, Note_on_c, 6, 69, 96
8, 407552, Note_off_c, 6, 72, 0
8, 407552, Note_on_c, 6, 69, 96
8, 407552, Note_off_c, 6, 69, 0
8, 407552, Note_on_c, 6, 65, 96
8, 408064, Note_off_c, 6, 69, 0
8, 408064, Note_on_c, 6, 70, 96
8, 408064, Note_off_c, 6, 65, 0
8, 408064, Note_on_c, 6, 67, 96
8, 408576, Note_off_c, 6, 70, 0
8, 408576, Note_on_c, 6, 72, 96
8, 408576, Note_off_c, 6, 67, 0
8, 408576, Note_on_c, 6, 69, 96
8, 409088, Note_off_c, 6, 72, 0
8, 409088, Note_on_c, 6, 69, 96
8, 409088, Note_off_c, 6, 69, 0
8, 409088, Note_on_c, 6, 65, 96
8, 409600, Note_off_c, 6, 69, 0
8, 409600, Note_on_c, 6, 70, 96
8, 409600, Note_off_c, 6, 65, 0
8, 409600, Note_on_c, 6, 67, 96
8, 410112, Note_off_c, 6, 70, 0
8, 410112, Note_on_c, 6, 72, 96
8, 410112, Note_off_c, 6, 67, 0
8, 410112, Note_on_c, 6, 69, 96
8, 410624, Note_off_c, 6, 72, 0
8, 410624, Note_on_c, 6, 69, 96
8, 410624, Note_off_c, 6, 69, 0
8, 410624, Note_on_c, 6, 65, 96
8, 411136, Note_off_c, 6, 69, 0
8, 411136, Note_on_c, 6, 74, 96
8, 411136, Note_off_c, 6, 65, 0
8, 411136, Note_on_c, 6, 69, 96
8, 411648, Note_off_c, 6, 74, 0
8, 411648, Note_off_c, 6, 69, 0
8, 411648, Note_on_c, 6, 70, 96
8, 411648, Note_on_c, 6, 67, 96
8, 412672, Note_off_c, 6, 70, 0
8, 412672, Note_off_c, 6, 67, 0
8, 418816, Note_on_c, 6, 65, 96
8, 418816, Note_on_c, 6, 60, 96
8, 419328, Note_off_c, 6, 65, 0
8, 419328, Note_on_c, 6, 72, 96
8, 419328, Note_off_c, 6, 60, 0
8, 419328, Note_on_c, 6, 69, 96
8, 420352, Note_off_c, 6, 72, 0
8, 420352, Note_on_c, 6, 74, 96
8, 420352, Note_off_c, 6, 69, 0
8, 420352, Note_on_c, 6, 70, 96
8, 420864, Note_off_c, 6, 74, 0
8, 420864, Note_on_c, 6, 70, 96
8, 420864, Note_off_c, 6, 70, 0
8, 420864, Note_on_c, 6, 67, 96
8, 421888, Note_off_c, 6, 70, 0
8, 421888, Note_on_c, 6, 69, 96
8, 421888, Note_off_c, 6, 67, 0
8, 421888, Note_on_c, 6, 65, 96
8, 422400, Note_off_c, 6, 69, 0
8, 422400, Note_on_c, 6, 70, 96
8, 422400, Note_off_c, 6, 65, 0
8, 422400, Note_on_c, 6, 67, 96
8, 422912, Note_off_c, 6, 70, 0
8, 422912, Note_on_c, 6, 67, 96
8, 422912, Note_off_c, 6, 67, 0
8, 422912, Note_on_c, 6, 60, 96
8, 423424, Note_off_c, 6, 67, 0
8, 423424, Note_on_c, 6, 69, 96
8, 423424, Note_off_c, 6, 60, 0
8, 423424, Note_on_c, 6, 65, 96
8, 423936, Note_off_c, 6, 69, 0
8, 423936, Note_off_c, 6, 65, 0
8, 423936, Note_on_c, 6, 69, 96
8, 423936, Note_on_c, 6, 65, 96
8, 424448, Note_off_c, 6, 69, 0
8, 424448, Note_on_c, 6, 65, 96
8, 424448, Note_off_c, 6, 65, 0
8, 424448, Note_on_c, 6, 60, 96
8, 424960, Note_off_c, 6, 65, 0
8, 424960, Note_on_c, 6, 69, 96
8, 424960, Note_off_c, 6, 60, 0
8, 424960, Note_on_c, 6, 65, 96
8, 425472, Note_off_c, 6, 69, 0
8, 425472, Note_on_c, 6, 72, 96
8, 425472, Note_off_c, 6, 65, 0
8, 425472, Note_on_c, 6, 69, 96
8, 425984, Note_off_c, 6, 72, 0
8, 425984, Note_on_c, 6, 69, 96
8, 425984, Note_off_c, 6, 69, 0
8, 425984, Note_on_c, 6, 65, 96
8, 426496, Note_off_c, 6, 69, 0
8, 426496, Note_on_c, 6, 72, 96
8, 426496, Note_off_c, 6, 65, 0
8, 426496, Note_on_c, 6, 69, 96
8, 427008, Note_off_c, 6, 72, 0
8, 427008, Note_on_c, 6, 77, 96
8, 427008, Note_off_c, 6, 69, 0
8, 427008, Note_on_c, 6, 72, 96
8, 427520, Note_off_c, 6, 77, 0
8, 427520, Note_on_c, 6, 72, 96
8, 427520, Note_off_c, 6, 72, 0
8, 427520, Note_on_c, 6, 69, 96
8, 428032, Note_off_c, 6, 72, 0
8, 428032, Note_on_c, 6, 72, 96
8, 428032, Note_off_c, 6, 69, 0
8, 428032, Note_on_c, 6, 69, 96
8, 428544, Note_off_c, 6, 72, 0
8, 428544, Note_on_c, 6, 72, 96
8, 428544, Note_off_c, 6, 69, 0
8, 428544, Note_on_c, 6, 69, 96
8, 429056, Note_off_c, 6, 72, 0
8, 429056, Note_on_c, 6, 69, 96
8, 429056, Note_off_c, 6, 69, 0
8, 429056, Note_on_c, 6, 65, 96
8, 429568, Note_off_c, 6, 69, 0
8, 429568, Note_on_c, 6, 69, 96
8, 429568, Note_off_c, 6, 65, 0
8, 429568, Note_on_c, 6, 65, 96
8, 430080, Note_off_c, 6, 69, 0
8, 430080, Note_off_c, 6, 65, 0
8, 430080, Note_on_c, 6, 74, 96
8, 430080, Note_on_c, 6, 65, 96
8, 431104, Note_off_c, 6, 65, 0
8, 431104, Note_on_c, 6, 65, 96
8, 431616, Note_off_c, 6, 65, 0
8, 431616, Note_on_c, 6, 70, 96
8, 433152, Note_off_c, 6, 74, 0
8, 433152, Note_on_c, 6, 72, 96
8, 434688, Note_off_c, 6, 70, 0
8, 434688, Note_on_c, 6, 69, 96
8, 436224, Note_off_c, 6, 72, 0
8, 436224, Note_on_c, 6, 70, 96
8, 437760, Note_off_c, 6, 69, 0
8, 437760, Note_on_c, 6, 67, 96
8, 439296, Note_off_c, 6, 70, 0
8, 439296, Note_on_c, 6, 69, 96
8, 440832, Note_off_c, 6, 67, 0
8, 440832, Note_on_c, 6, 65, 96
8, 442368, Note_off_c, 6, 69, 0
8, 442368, Note_on_c, 6, 67, 96
8, 443392, Note_off_c, 6, 65, 0
8, 445952, Note_on_c, 6, 60, 96
8, 446464, Note_off_c, 6, 60, 0
8, 446464, Note_on_c, 6, 60, 96
8, 446976, Note_off_c, 6, 60, 0
8, 446976, Note_on_c, 6, 60, 96
8, 447488, Note_off_c, 6, 60, 0
8, 447488, Note_on_c, 6, 60, 96
8, 448000, Note_off_c, 6, 60, 0
8, 448000, Note_on_c, 6, 60, 96
8, 448512, Note_off_c, 6, 67, 0
8, 448512, Note_off_c, 6, 60, 0
8, 448512, Note_on_c, 6, 65, 96
8, 448512, Note_on_c, 6, 60, 96
8, 449024, Note_off_c, 6, 60, 0
8, 449024, Note_on_c, 6, 60, 96
8, 449536, Note_off_c, 6, 60, 0
8, 449536, Note_on_c, 6, 60, 96
8, 450048, Note_off_c, 6, 60, 0
8, 450048, Note_on_c, 6, 57, 96
8, 450560, Note_off_c, 6, 57, 0
8, 450560, Note_on_c, 6, 57, 96
8, 451072, Note_off_c, 6, 57, 0
8, 451072, Note_on_c, 6, 57, 96
8, 451584, Note_off_c, 6, 57, 0
8, 451584, Note_on_c, 6, 53, 96
8, 452096, Note_off_c, 6, 53, 0
8, 452096, Note_on_c, 6, 53, 96
8, 452608, Note_off_c, 6, 53, 0
8, 452608, Note_on_c, 6, 53, 96
8, 453120, Note_off_c, 6, 53, 0
8, 453120, Note_on_c, 6, 53, 96
8, 453632, Note_off_c, 6, 53, 0
8, 453632, Note_on_c, 6, 53, 96
8, 454144, Note_off_c, 6, 53, 0
8, 454144, Note_on_c, 6, 53, 96
8, 454656, Note_off_c, 6, 53, 0
8, 454656, Note_on_c, 6, 53, 96
8, 455680, Note_off_c, 6, 65, 0
8, 455680, Note_off_c, 6, 53, 0
8, 488448, Note_on_c, 6, 57, 96
8, 488448, Note_on_c, 6, 57, 96
8, 488960, Note_off_c, 6, 57, 0
8, 488960, Note_on_c, 6, 57, 96
8, 488960, Note_off_c, 6, 57, 0
8, 488960, Note_on_c, 6, 57, 96
8, 489472, Note_off_c, 6, 57, 0
8, 489472, Note_on_c, 6, 57, 96
8, 489472, Note_off_c, 6, 57, 0
8, 489472, Note_on_c, 6, 57, 96
8, 489984, Note_off_c, 6, 57, 0
8, 489984, Note_on_c, 6, 57, 96
8, 489984, Note_off_c, 6, 57, 0
8, 489984, Note_on_c, 6, 57, 96
8, 490496, Note_off_c, 6, 57, 0
8, 490496, Note_on_c, 6, 57, 96
8, 490496, Note_off_c, 6, 57, 0
8, 490496, Note_on_c, 6, 57, 96
8, 491008, Note_off_c, 6, 57, 0
8, 491008, Note_on_c, 6, 57, 96
8, 491008, Note_off_c, 6, 57, 0
8, 491008, Note_on_c, 6, 57, 96
8, 491520, Note_off_c, 6, 57, 0
8, 491520, Note_off_c, 6, 57, 0
8, 491520, Note_on_c, 6, 57, 96
8, 491520, Note_on_c, 6, 57, 96
8, 492032, Note_off_c, 6, 57, 0
8, 492032, Note_on_c, 6, 57, 96
8, 492032, Note_off_c, 6, 57, 0
8, 492032, Note_on_c, 6, 57, 96
8, 492544, Note_off_c, 6, 57, 0
8, 492544, Note_on_c, 6, 57, 96
8, 492544, Note_off_c, 6, 57, 0
8, 492544, Note_on_c, 6, 57, 96
8, 493056, Note_off_c, 6, 57, 0
8, 493056, Note_on_c, 6, 57, 96
8, 493056, Note_off_c, 6, 57, 0
8, 493056, Note_on_c, 6, 57, 96
8, 493568, Note_off_c, 6, 57, 0
8, 493568, Note_on_c, 6, 57, 96
8, 493568, Note_off_c, 6, 57, 0
8, 493568, Note_on_c, 6, 57, 96
8, 494080, Note_off_c, 6, 57, 0
8, 494080, Note_on_c, 6, 57, 96
8, 494080, Note_off_c, 6, 57, 0
8, 494080, Note_on_c, 6, 57, 96
8, 494592, Note_off_c, 6, 57, 0
8, 494592, Note_on_c, 6, 57, 96
8, 494592, Note_off_c, 6, 57, 0
8, 494592, Note_on_c, 6, 57, 96
8, 495104, Note_off_c, 6, 57, 0
8, 495104, Note_on_c, 6, 57, 96
8, 495104, Note_off_c, 6, 57, 0
8, 495104, Note_on_c, 6, 57, 96
8, 495616, Note_off_c, 6, 57, 0
8, 495616, Note_on_c, 6, 57, 96
8, 495616, Note_off_c, 6, 57, 0
8, 495616, Note_on_c, 6, 57, 96
8, 496128, Note_off_c, 6, 57, 0
8, 496128, Note_on_c, 6, 57, 96
8, 496128, Note_off_c, 6, 57, 0
8, 496128, Note_on_c, 6, 57, 96
8, 496640, Note_off_c, 6, 57, 0
8, 496640, Note_on_c, 6, 57, 96
8, 496640, Note_off_c, 6, 57, 0
8, 496640, Note_on_c, 6, 57, 96
8, 497152, Note_off_c, 6, 57, 0
8, 497152, Note_on_c, 6, 57, 96
8, 497152, Note_off_c, 6, 57, 0
8, 497152, Note_on_c, 6, 57, 96
8, 497664, Note_off_c, 6, 57, 0
8, 497664, Note_off_c, 6, 57, 0
8, 497664, Note_on_c, 6, 57, 96
8, 497664, Note_on_c, 6, 57, 96
8, 498176, Note_off_c, 6, 57, 0
8, 498176, Note_off_c, 6, 57, 0
8, 504832, Note_on_c, 6, 65, 96
8, 504832, Note_on_c, 6, 57, 96
8, 505344, Note_off_c, 6, 65, 0
8, 505344, Note_on_c, 6, 72, 96
8, 505344, Note_off_c, 6, 57, 0
8, 505344, Note_on_c, 6, 69, 96
8, 506368, Note_off_c, 6, 72, 0
8, 506368, Note_on_c, 6, 74, 96
8, 506368, Note_off_c, 6, 69, 0
8, 506368, Note_on_c, 6, 70, 96
8, 506880, Note_off_c, 6, 74, 0
8, 506880, Note_on_c, 6, 70, 96
8, 506880, Note_off_c, 6, 70, 0
8, 506880, Note_on_c, 6, 67, 96
8, 507904, Note_off_c, 6, 70, 0
8, 507904, Note_on_c, 6, 69, 96
8, 507904, Note_off_c, 6, 67, 0
8, 507904, Note_on_c, 6, 60, 96
8, 508416, Note_off_c, 6, 69, 0
8, 508416, Note_on_c, 6, 70, 96
8, 508416, Note_off_c, 6, 60, 0
8, 508416, Note_on_c, 6, 67, 96
8, 508928, Note_off_c, 6, 70, 0
8, 508928, Note_on_c, 6, 74, 96
8, 508928, Note_off_c, 6, 67, 0
8, 508928, Note_on_c, 6, 70, 96
8, 509440, Note_off_c, 6, 74, 0
8, 509440, Note_on_c, 6, 72, 96
8, 509440, Note_off_c, 6, 70, 0
8, 509440, Note_on_c, 6, 67, 96
8, 509952, Note_off_c, 6, 72, 0
8, 509952, Note_off_c, 6, 67, 0
8, 509952, Note_on_c, 6, 69, 96
8, 509952, Note_on_c, 6, 65, 96
8, 510464, Note_off_c, 6, 69, 0
8, 510464, Note_on_c, 6, 65, 96
8, 510464, Note_off_c, 6, 65, 0
8, 510464, Note_on_c, 6, 60, 96
8, 510976, Note_off_c, 6, 65, 0
8, 510976, Note_on_c, 6, 69, 96
8, 510976, Note_off_c, 6, 60, 0
8, 510976, Note_on_c, 6, 65, 96
8, 511488, Note_off_c, 6, 69, 0
8, 511488, Note_on_c, 6, 72, 96
8, 511488, Note_off_c, 6, 65, 0
8, 511488, Note_on_c, 6, 69, 96
8, 512000, Note_off_c, 6, 72, 0
8, 512000, Note_on_c, 6, 69, 96
8, 512000, Note_off_c, 6, 69, 0
8, 512000, Note_on_c, 6, 65, 96
8, 512512, Note_off_c, 6, 69, 0
8, 512512, Note_on_c, 6, 72, 96
8, 512512, Note_off_c, 6, 65, 0
8, 512512, Note_on_c, 6, 69, 96
8, 513024, Note_off_c, 6, 72, 0
8, 513024, Note_on_c, 6, 77, 96
8, 513024, Note_off_c, 6, 69, 0
8, 513024, Note_on_c, 6, 72, 96
8, 513536, Note_off_c, 6, 77, 0
8, 513536, Note_on_c, 6, 72, 96
8, 513536, Note_off_c, 6, 72, 0
8, 513536, Note_on_c, 6, 69, 96
8, 514048, Note_off_c, 6, 72, 0
8, 514048, Note_on_c, 6, 72, 96
8, 514048, Note_off_c, 6, 69, 0
8, 514048, Note_on_c, 6, 69, 96
8, 514560, Note_off_c, 6, 72, 0
8, 514560, Note_on_c, 6, 72, 96
8, 514560, Note_off_c, 6, 69, 0
8, 514560, Note_on_c, 6, 69, 96
8, 515072, Note_off_c, 6, 72, 0
8, 515072, Note_on_c, 6, 69, 96
8, 515072, Note_off_c, 6, 69, 0
8, 515072, Note_on_c, 6, 65, 96
8, 515584, Note_off_c, 6, 69, 0
8, 515584, Note_on_c, 6, 69, 96
8, 515584, Note_off_c, 6, 65, 0
8, 515584, Note_on_c, 6, 65, 96
8, 516096, Note_off_c, 6, 69, 0
8, 516096, Note_off_c, 6, 65, 0
8, 516096, Note_on_c, 6, 69, 96
8, 516096, Note_on_c, 6, 65, 96
8, 517120, Note_off_c, 6, 69, 0
8, 517120, Note_off_c, 6, 65, 0
8, 523264, Note_on_c, 6, 72, 96
8, 523264, Note_on_c, 6, 67, 96
8, 523776, Note_off_c, 6, 72, 0
8, 523776, Note_on_c, 6, 72, 96
8, 523776, Note_off_c, 6, 67, 0
8, 523776, Note_on_c, 6, 67, 96
8, 524288, Note_off_c, 6, 72, 0
8, 524288, Note_on_c, 6, 76, 96
8, 524288, Note_off_c, 6, 67, 0
8, 524288, Note_on_c, 6, 72, 96
8, 524800, Note_off_c, 6, 76, 0
8, 524800, Note_on_c, 6, 72, 96
8, 524800, Note_off_c, 6, 72, 0
8, 524800, Note_on_c, 6, 67, 96
8, 525312, Note_off_c, 6, 72, 0
8, 525312, Note_on_c, 6, 69, 96
8, 525312, Note_off_c, 6, 67, 0
8, 525312, Note_on_c, 6, 69, 96
8, 525824, Note_off_c, 6, 69, 0
8, 525824, Note_on_c, 6, 57, 96
8, 525824, Note_off_c, 6, 69, 0
8, 525824, Note_on_c, 6, 57, 96
8, 526336, Note_off_c, 6, 57, 0
8, 526336, Note_on_c, 6, 57, 96
8, 526336, Note_off_c, 6, 57, 0
8, 526336, Note_on_c, 6, 57, 96
8, 526848, Note_off_c, 6, 57, 0
8, 526848, Note_on_c, 6, 57, 96
8, 526848, Note_off_c, 6, 57, 0
8, 526848, Note_on_c, 6, 57, 96
8, 527360, Note_off_c, 6, 57, 0
8, 527360, Note_on_c, 6, 57, 96
8, 527360, Note_off_c, 6, 57, 0
8, 527360, Note_on_c, 6, 57, 96
8, 527872, Note_off_c, 6, 57, 0
8, 527872, Note_on_c, 6, 57, 96
8, 527872, Note_off_c, 6, 57, 0
8, 527872, Note_on_c, 6, 57, 96
8, 528384, Note_off_c, 6, 57, 0
8, 528384, Note_off_c, 6, 57, 0
8, 528384, Note_on_c, 6, 57, 96
8, 528384, Note_on_c, 6, 57, 96
8, 528896, Note_off_c, 6, 57, 0
8, 528896, Note_on_c, 6, 57, 96
8, 528896, Note_off_c, 6, 57, 0
8, 528896, Note_on_c, 6, 57, 96
8, 529408, Note_off_c, 6, 57, 0
8, 529408, Note_on_c, 6, 57, 96
8, 529408, Note_off_c, 6, 57, 0
8, 529408, Note_on_c, 6, 57, 96
8, 529920, Note_off_c, 6, 57, 0
8, 529920, Note_on_c, 6, 57, 96
8, 529920, Note_off_c, 6, 57, 0
8, 529920, Note_on_c, 6, 57, 96
8, 530432, Note_off_c, 6, 57, 0
8, 530432, Note_on_c, 6, 57, 96
8, 530432, Note_off_c, 6, 57, 0
8, 530432, Note_on_c, 6, 57, 96
8, 530944, Note_off_c, 6, 57, 0
8, 530944, Note_on_c, 6, 57, 96
8, 530944, Note_off_c, 6, 57, 0
8, 530944, Note_on_c, 6, 57, 96
8, 531456, Note_off_c, 6, 57, 0
8, 531456, Note_on_c, 6, 57, 96
8, 531456, Note_off_c, 6, 57, 0
8, 531456, Note_on_c, 6, 57, 96
8, 531968, Note_off_c, 6, 57, 0
8, 531968, Note_on_c, 6, 57, 96
8, 531968, Note_off_c, 6, 57, 0
8, 531968, Note_on_c, 6, 57, 96
8, 532480, Note_off_c, 6, 57, 0
8, 532480, Note_on_c, 6, 57, 96
8, 532480, Note_off_c, 6, 57, 0
8, 532480, Note_on_c, 6, 57, 96
8, 532992, Note_off_c, 6, 57, 0
8, 532992, Note_on_c, 6, 57, 96
8, 532992, Note_off_c, 6, 57, 0
8, 532992, Note_on_c, 6, 57, 96
8, 533504, Note_off_c, 6, 57, 0
8, 533504, Note_on_c, 6, 57, 96
8, 533504, Note_off_c, 6, 57, 0
8, 533504, Note_on_c, 6, 57, 96
8, 534016, Note_off_c, 6, 57, 0
8, 534016, Note_on_c, 6, 57, 96
8, 534016, Note_off_c, 6, 57, 0
8, 534016, Note_on_c, 6, 57, 96
8, 534528, Note_off_c, 6, 57, 0
8, 534528, Note_off_c, 6, 57, 0
8, 534528, Note_on_c, 6, 57, 96
8, 534528, Note_on_c, 6, 57, 96
8, 534784, Note_off_c, 6, 57, 0
8, 534784, Note_on_c, 6, 69, 96
8, 535040, Note_off_c, 6, 69, 0
8, 535040, Note_on_c, 6, 70, 96
8, 535296, Note_off_c, 6, 70, 0
8, 535296, Note_on_c, 6, 72, 96
8, 535552, Note_off_c, 6, 72, 0
8, 535552, Note_on_c, 6, 74, 96
8, 535552, Note_off_c, 6, 57, 0
8, 535808, Note_off_c, 6, 74, 0
8, 535808, Note_on_c, 6, 76, 96
8, 536064, Note_off_c, 6, 76, 0
8, 536064, Note_on_c, 6, 77, 96
8, 537088, Note_on_c, 6, 65, 96
8, 537600, Note_off_c, 6, 65, 0
8, 537600, Note_on_c, 6, 67, 96
8, 538112, Note_off_c, 6, 67, 0
8, 538112, Note_on_c, 6, 69, 96
8, 538624, Note_off_c, 6, 69, 0
8, 538624, Note_on_c, 6, 70, 96
8, 539136, Note_off_c, 6, 77, 0
8, 539136, Note_on_c, 6, 76, 96
8, 539136, Note_off_c, 6, 70, 0
8, 539136, Note_on_c, 6, 70, 96
8, 539648, Note_off_c, 6, 70, 0
8, 539648, Note_on_c, 6, 67, 96
8, 540160, Note_off_c, 6, 67, 0
8, 540160, Note_on_c, 6, 69, 96
8, 540672, Note_off_c, 6, 69, 0
8, 540672, Note_on_c, 6, 69, 96
8, 541696, Note_off_c, 6, 76, 0
8, 541696, Note_on_c, 6, 69, 96
8, 542208, Note_off_c, 6, 69, 0
8, 542208, Note_on_c, 6, 74, 96
8, 543232, Note_off_c, 6, 74, 0
8, 543232, Note_on_c, 6, 75, 96
8, 543744, Note_off_c, 6, 75, 0
8, 543744, Note_on_c, 6, 72, 96
8, 543744, Note_off_c, 6, 69, 0
8, 543744, Note_on_c, 6, 69, 96
8, 544768, Note_off_c, 6, 72, 0
8, 544768, Note_on_c, 6, 70, 96
8, 545280, Note_off_c, 6, 70, 0
8, 545280, Note_on_c, 6, 72, 96
8, 545792, Note_off_c, 6, 72, 0
8, 545792, Note_on_c, 6, 75, 96
8, 546304, Note_off_c, 6, 75, 0
8, 546304, Note_on_c, 6, 74, 96
8, 546816, Note_off_c, 6, 74, 0
8, 546816, Note_off_c, 6, 69, 0
8, 546816, Note_on_c, 6, 70, 96
8, 546816, Note_on_c, 6, 67, 96
8, 547840, Note_off_c, 6, 70, 0
8, 547840, Note_on_c, 6, 67, 96
8, 548352, Note_off_c, 6, 67, 0
8, 548352, Note_on_c, 6, 72, 96
8, 549376, Note_off_c, 6, 72, 0
8, 549376, Note_on_c, 6, 74, 96
8, 549888, Note_off_c, 6, 74, 0
8, 549888, Note_on_c, 6, 70, 96
8, 549888, Note_off_c, 6, 67, 0
8, 549888, Note_on_c, 6, 67, 96
8, 550912, Note_off_c, 6, 70, 0
8, 550912, Note_on_c, 6, 67, 96
8, 551424, Note_off_c, 6, 67, 0
8, 551424, Note_on_c, 6, 69, 96
8, 551936, Note_off_c, 6, 69, 0
8, 551936, Note_on_c, 6, 72, 96
8, 552448, Note_off_c, 6, 72, 0
8, 552448, Note_on_c, 6, 70, 96
8, 552960, Note_off_c, 6, 70, 0
8, 552960, Note_off_c, 6, 67, 0
8, 552960, Note_on_c, 6, 69, 96
8, 552960, Note_on_c, 6, 65, 96
8, 556032, Note_off_c, 6, 69, 0
8, 556032, Note_on_c, 6, 69, 96
8, 556032, Note_off_c, 6, 65, 0
8, 556032, Note_on_c, 6, 65, 96
8, 559104, Note_off_c, 6, 69, 0
8, 559104, Note_off_c, 6, 65, 0
8, 559104, Note_on_c, 6, 67, 96
8, 559104, Note_on_c, 6, 65, 96
8, 562176, Note_off_c, 6, 67, 0
8, 562176, Note_on_c, 6, 69, 96
8, 565248, Note_off_c, 6, 69, 0
8, 565248, Note_on_c, 6, 70, 96
8, 566784, Note_off_c, 6, 65, 0
8, 566784, Note_on_c, 6, 67, 96
8, 568320, Note_off_c, 6, 70, 0
8, 568320, Note_on_c, 6, 69, 96
8, 569856, Note_off_c, 6, 67, 0
8, 569856, Note_on_c, 6, 65, 96
8, 571392, Note_off_c, 6, 69, 0
8, 571392, Note_on_c, 6, 67, 96
8, 572928, Note_off_c, 6, 65, 0
8, 574976, Note_on_c, 6, 60, 96
8, 575488, Note_off_c, 6, 60, 0
8, 575488, Note_on_c, 6, 60, 96
8, 576000, Note_off_c, 6, 60, 0
8, 576000, Note_on_c, 6, 60, 96
8, 576512, Note_off_c, 6, 60, 0
8, 576512, Note_on_c, 6, 60, 96
8, 577024, Note_off_c, 6, 60, 0
8, 577024, Note_on_c, 6, 60, 96
8, 577536, Note_off_c, 6, 67, 0
8, 577536, Note_off_c, 6, 60, 0
8, 577536, Note_on_c, 6, 65, 96
8, 577536, Note_on_c, 6, 60, 96
8, 578048, Note_off_c, 6, 60, 0
8, 578048, Note_on_c, 6, 60, 96
8, 578560, Note_off_c, 6, 60, 0
8, 578560, Note_on_c, 6, 60, 96
8, 579072, Note_off_c, 6, 60, 0
8, 579072, Note_on_c, 6, 57, 96
8, 579584, Note_off_c, 6, 57, 0
8, 579584, Note_on_c, 6, 57, 96
8, 580096, Note_off_c, 6, 57, 0
8, 580096, Note_on_c, 6, 57, 96
8, 580608, Note_off_c, 6, 57, 0
8, 580608, Note_on_c, 6, 53, 96
8, 581120, Note_off_c, 6, 53, 0
8, 581120, Note_on_c, 6, 53, 96
8, 581632, Note_off_c, 6, 53, 0
8, 581632, Note_on_c, 6, 53, 96
8, 582144, Note_off_c, 6, 53, 0
8, 582144, Note_on_c, 6, 53, 96
8, 582656, Note_off_c, 6, 53, 0
8, 582656, Note_on_c, 6, 53, 96
8, 583168, Note_off_c, 6, 53, 0
8, 583168, Note_on_c, 6, 53, 96
8, 583680, Note_off_c, 6, 53, 0
8, 583680, Note_on_c, 6, 53, 96
8, 584192, Note_off_c, 6, 53, 0
8, 584704, Note_off_c, 6, 65, 0
8, 590848, Note_on_c, 6, 65, 96
8, 591360, Note_off_c, 6, 65, 0
8, 591360, Note_on_c, 6, 70, 96
8, 594432, Note_off_c, 6, 70, 0
8, 594432, Note_on_c, 6, 69, 96
8, 596480, Note_off_c, 6, 69, 0
8, 596480, Note_on_c, 6, 67, 96
8, 596736, Note_off_c, 6, 67, 0
8, 596736, Note_on_c, 6, 65, 96
8, 596992, Note_off_c, 6, 65, 0
8, 596992, Note_on_c, 6, 67, 96
8, 597504, Note_off_c, 6, 67, 0
8, 603136, Note_on_c, 6, 67, 96
8, 603648, Note_off_c, 6, 67, 0
8, 603648, Note_on_c, 6, 72, 96
8, 606720, Note_off_c, 6, 72, 0
8, 606720, Note_on_c, 6, 71, 96
8, 608768, Note_off_c, 6, 71, 0
8, 608768, Note_on_c, 6, 69, 96
8, 609024, Note_off_c, 6, 69, 0
8, 609024, Note_on_c, 6, 67, 96
8, 609280, Note_off_c, 6, 67, 0
8, 609280, Note_on_c, 6, 69, 96
8, 609280, Note_on_c, 6, 57, 96
8, 609792, Note_off_c, 6, 69, 0
8, 609792, Note_on_c, 6, 77, 96
8, 609792, Note_off_c, 6, 57, 0
8, 609792, Note_on_c, 6, 69, 96
8, 610816, Note_off_c, 6, 77, 0
8, 610816, Note_on_c, 6, 74, 96
8, 610816, Note_off_c, 6, 69, 0
8, 610816, Note_on_c, 6, 70, 96
8, 611328, Note_off_c, 6, 74, 0
8, 611328, Note_on_c, 6, 76, 96
8, 611328, Note_off_c, 6, 70, 0
8, 611328, Note_on_c, 6, 67, 96
8, 612352, Note_off_c, 6, 76, 0
8, 612352, Note_on_c, 6, 74, 96
8, 612352, Note_off_c, 6, 67, 0
8, 612352, Note_on_c, 6, 65, 96
8, 612864, Note_off_c, 6, 74, 0
8, 612864, Note_on_c, 6, 76, 96
8, 612864, Note_off_c, 6, 65, 0
8, 612864, Note_on_c, 6, 67, 96
8, 613376, Note_off_c, 6, 76, 0
8, 613376, Note_on_c, 6, 69, 96
8, 613376, Note_off_c, 6, 67, 0
8, 613376, Note_on_c, 6, 69, 96
8, 613888, Note_off_c, 6, 69, 0
8, 613888, Note_on_c, 6, 74, 96
8, 613888, Note_off_c, 6, 69, 0
8, 613888, Note_on_c, 6, 65, 96
8, 614144, Note_off_c, 6, 74, 0
8, 614144, Note_on_c, 6, 76, 96
8, 614400, Note_off_c, 6, 76, 0
8, 614400, Note_off_c, 6, 65, 0
8, 614400, Note_on_c, 6, 77, 96
8, 614400, Note_on_c, 6, 65, 96
8, 614912, Note_off_c, 6, 65, 0
8, 614912, Note_on_c, 6, 67, 96
8, 615424, Note_off_c, 6, 67, 0
8, 615424, Note_on_c, 6, 69, 96
8, 615936, Note_off_c, 6, 69, 0
8, 615936, Note_on_c, 6, 70, 96
8, 617472, Note_off_c, 6, 77, 0
8, 617472, Note_on_c, 6, 76, 96
8, 619008, Note_off_c, 6, 70, 0
8, 619008, Note_on_c, 6, 69, 96
8, 620544, Note_off_c, 6, 76, 0
8, 620544, Note_on_c, 6, 74, 96
8, 622080, Note_off_c, 6, 69, 0
8, 622080, Note_on_c, 6, 67, 96
8, 623616, Note_off_c, 6, 74, 0
8, 623616, Note_on_c, 6, 72, 96
8, 625152, Note_off_c, 6, 67, 0
8, 625152, Note_on_c, 6, 65, 96
8, 626688, Note_off_c, 6, 72, 0
8, 626688, Note_on_c, 6, 70, 96
8, 628224, Note_off_c, 6, 65, 0
8, 628224, Note_on_c, 6, 60, 96
8, 628736, Note_off_c, 6, 60, 0
8, 628736, Note_on_c, 6, 60, 96
8, 629248, Note_off_c, 6, 60, 0
8, 629248, Note_on_c, 6, 60, 96
8, 629760, Note_off_c, 6, 70, 0
8, 629760, Note_on_c, 6, 69, 96
8, 629760, Note_off_c, 6, 60, 0
8, 629760, Note_on_c, 6, 60, 96
8, 630272, Note_off_c, 6, 60, 0
8, 630272, Note_on_c, 6, 60, 96
8, 630784, Note_off_c, 6, 60, 0
8, 630784, Note_on_c, 6, 60, 96
8, 631296, Note_off_c, 6, 60, 0
8, 631296, Note_on_c, 6, 65, 96
8, 631808, Note_off_c, 6, 65, 0
8, 631808, Note_on_c, 6, 65, 96
8, 632320, Note_off_c, 6, 65, 0
8, 632320, Note_on_c, 6, 65, 96
8, 632832, Note_off_c, 6, 69, 0
8, 632832, Note_off_c, 6, 65, 0
8, 632832, Note_on_c, 6, 67, 96
8, 632832, Note_on_c, 6, 65, 96
8, 633856, Note_off_c, 6, 65, 0
8, 636416, Note_on_c, 6, 60, 96
8, 636928, Note_off_c, 6, 60, 0
8, 636928, Note_on_c, 6, 60, 96
8, 637440, Note_off_c, 6, 60, 0
8, 637440, Note_on_c, 6, 60, 96
8, 637952, Note_off_c, 6, 60, 0
8, 637952, Note_on_c, 6, 60, 96
8, 638464, Note_off_c, 6, 60, 0
8, 638464, Note_on_c, 6, 60, 96
8, 638976, Note_off_c, 6, 67, 0
8, 638976, Note_off_c, 6, 60, 0
8, 638976, Note_on_c, 6, 65, 96
8, 638976, Note_on_c, 6, 60, 96
8, 639488, Note_off_c, 6, 60, 0
8, 639488, Note_on_c, 6, 60, 96
8, 640000, Note_off_c, 6, 60, 0
8, 640000, Note_on_c, 6, 60, 96
8, 640512, Note_off_c, 6, 60, 0
8, 640512, Note_on_c, 6, 57, 96
8, 641024, Note_off_c, 6, 57, 0
8, 641024, Note_on_c, 6, 57, 96
8, 641536, Note_off_c, 6, 57, 0
8, 641536, Note_on_c, 6, 57, 96
8, 642048, Note_off_c, 6, 57, 0
8, 642048, Note_on_c, 6, 53, 96
8, 642560, Note_off_c, 6, 53, 0
8, 642560, Note_on_c, 6, 53, 96
8, 643072, Note_off_c, 6, 53, 0
8, 643072, Note_on_c, 6, 53, 96
8, 643584, Note_off_c, 6, 53, 0
8, 643584, Note_on_c, 6, 53, 96
8, 644096, Note_off_c, 6, 53, 0
8, 644096, Note_on_c, 6, 53, 96
8, 644608, Note_off_c, 6, 53, 0
8, 644608, Note_on_c, 6, 53, 96
8, 645120, Note_off_c, 6, 53, 0
8, 645120, Note_on_c, 6, 53, 96
8, 646144, Note_off_c, 6, 65, 0
8, 646144, Note_off_c, 6, 53, 0
8, 652288, Note_on_c, 6, 69, 96
8, 652288, Note_on_c, 6, 65, 96
8, 652800, Note_off_c, 6, 69, 0
8, 652800, Note_on_c, 6, 72, 96
8, 652800, Note_off_c, 6, 65, 0
8, 652800, Note_on_c, 6, 69, 96
8, 653312, Note_off_c, 6, 72, 0
8, 653312, Note_on_c, 6, 69, 96
8, 653312, Note_off_c, 6, 69, 0
8, 653312, Note_on_c, 6, 65, 96
8, 653824, Note_off_c, 6, 69, 0
8, 653824, Note_on_c, 6, 72, 96
8, 653824, Note_off_c, 6, 65, 0
8, 653824, Note_on_c, 6, 69, 96
8, 654336, Note_off_c, 6, 72, 0
8, 654336, Note_on_c, 6, 77, 96
8, 654336, Note_off_c, 6, 69, 0
8, 654336, Note_on_c, 6, 72, 96
8, 654848, Note_off_c, 6, 77, 0
8, 654848, Note_on_c, 6, 72, 96
8, 654848, Note_off_c, 6, 72, 0
8, 654848, Note_on_c, 6, 69, 96
8, 655360, Note_off_c, 6, 72, 0
8, 655360, Note_on_c, 6, 72, 96
8, 655360, Note_off_c, 6, 69, 0
8, 655360, Note_on_c, 6, 69, 96
8, 655872, Note_off_c, 6, 72, 0
8, 655872, Note_on_c, 6, 72, 96
8, 655872, Note_off_c, 6, 69, 0
8, 655872, Note_on_c, 6, 69, 96
8, 656384, Note_off_c, 6, 72, 0
8, 656384, Note_on_c, 6, 69, 96
8, 656384, Note_off_c, 6, 69, 0
8, 656384, Note_on_c, 6, 65, 96
8, 656896, Note_off_c, 6, 69, 0
8, 656896, Note_on_c, 6, 69, 96
8, 656896, Note_off_c, 6, 65, 0
8, 656896, Note_on_c, 6, 65, 96
8, 657408, Note_off_c, 6, 69, 0
8, 657408, Note_off_c, 6, 65, 0
8, 657408, Note_on_c, 6, 69, 96
8, 657408, Note_on_c, 6, 65, 96
8, 658432, Note_off_c, 6, 69, 0
8, 658432, Note_off_c, 6, 65, 0
8, 664576, Note_on_c, 6, 72, 96
8, 664576, Note_on_c, 6, 67, 96
8, 665088, Note_off_c, 6, 72, 0
8, 665088, Note_on_c, 6, 72, 96
8, 665088, Note_off_c, 6, 67, 0
8, 665088, Note_on_c, 6, 67, 96
8, 665600, Note_off_c, 6, 72, 0
8, 665600, Note_on_c, 6, 76, 96
8, 665600, Note_off_c, 6, 67, 0
8, 665600, Note_on_c, 6, 72, 96
8, 666112, Note_off_c, 6, 76, 0
8, 666112, Note_on_c, 6, 72, 96
8, 666112, Note_off_c, 6, 72, 0
8, 666112, Note_on_c, 6, 67, 96
8, 666624, Note_off_c, 6, 72, 0
8, 666624, Note_on_c, 6, 67, 96
8, 666624, Note_off_c, 6, 67, 0
8, 666624, Note_on_c, 6, 60, 96
8, 667136, Note_off_c, 6, 67, 0
8, 667136, Note_on_c, 6, 72, 96
8, 667136, Note_off_c, 6, 60, 0
8, 667136, Note_on_c, 6, 67, 96
8, 667648, Note_off_c, 6, 72, 0
8, 667648, Note_on_c, 6, 76, 96
8, 667648, Note_off_c, 6, 67, 0
8, 667648, Note_on_c, 6, 72, 96
8, 668160, Note_off_c, 6, 76, 0
8, 668160, Note_on_c, 6, 72, 96
8, 668160, Note_off_c, 6, 72, 0
8, 668160, Note_on_c, 6, 67, 96
8, 668672, Note_off_c, 6, 72, 0
8, 668672, Note_on_c, 6, 76, 96
8, 668672, Note_off_c, 6, 67, 0
8, 668672, Note_on_c, 6, 72, 96
8, 669184, Note_off_c, 6, 76, 0
8, 669184, Note_on_c, 6, 79, 96
8, 669184, Note_off_c, 6, 72, 0
8, 669184, Note_on_c, 6, 76, 96
8, 669696, Note_off_c, 6, 79, 0
8, 669696, Note_off_c, 6, 76, 0
8, 669696, Note_on_c, 6, 79, 96
8, 669696, Note_on_c, 6, 76, 96
8, 670720, Note_off_c, 6, 79, 0
8, 670720, Note_on_c, 6, 67, 96
8, 670720, Note_off_c, 6, 76, 0
8, 670720, Note_on_c, 6, 60, 96
8, 671232, Note_off_c, 6, 67, 0
8, 671232, Note_on_c, 6, 67, 96
8, 671232, Note_off_c, 6, 60, 0
8, 671232, Note_on_c, 6, 60, 96
8, 671744, Note_off_c, 6, 67, 0
8, 671744, Note_on_c, 6, 70, 96
8, 671744, Note_off_c, 6, 60, 0
8, 671744, Note_on_c, 6, 67, 96
8, 672256, Note_off_c, 6, 70, 0
8, 672256, Note_on_c, 6, 69, 96
8, 672256, Note_off_c, 6, 67, 0
8, 672256, Note_on_c, 6, 65, 96
8, 672768, Note_off_c, 6, 69, 0
8, 672768, Note_on_c, 6, 67, 96
8, 672768, Note_off_c, 6, 65, 0
8, 672768, Note_on_c, 6, 60, 96
8, 673280, Note_off_c, 6, 67, 0
8, 673280, Note_on_c, 6, 70, 96
8, 673280, Note_off_c, 6, 60, 0
8, 673280, Note_on_c, 6, 67, 96
8, 673792, Note_off_c, 6, 70, 0
8, 673792, Note_on_c, 6, 69, 96
8, 673792, Note_off_c, 6, 67, 0
8, 673792, Note_on_c, 6, 65, 96
8, 674304, Note_off_c, 6, 69, 0
8, 674304, Note_on_c, 6, 67, 96
8, 674304, Note_off_c, 6, 65, 0
8, 674304, Note_on_c, 6, 60, 96
8, 674816, Note_off_c, 6, 67, 0
8, 674816, Note_on_c, 6, 69, 96
8, 674816, Note_off_c, 6, 60, 0
8, 674816, Note_on_c, 6, 57, 96
8, 675072, Note_off_c, 6, 69, 0
8, 675072, Note_on_c, 6, 67, 96
8, 675328, Note_off_c, 6, 67, 0
8, 675328, Note_on_c, 6, 69, 96
8, 675328, Note_off_c, 6, 57, 0
8, 675328, Note_on_c, 6, 57, 96
8, 675584, Note_off_c, 6, 69, 0
8, 675584, Note_on_c, 6, 67, 96
8, 675840, Note_off_c, 6, 67, 0
8, 675840, Note_off_c, 6, 57, 0
8, 675840, Note_on_c, 6, 65, 96
8, 675840, Note_on_c, 6, 57, 96
8, 676096, Note_off_c, 6, 65, 0
8, 676096, Note_on_c, 6, 64, 96
8, 676352, Note_off_c, 6, 64, 0
8, 676352, Note_on_c, 6, 65, 96
8, 676352, Note_off_c, 6, 57, 0
8, 676352, Note_on_c, 6, 53, 96
8, 676608, Note_off_c, 6, 65, 0
8, 676608, Note_on_c, 6, 67, 96
8, 676864, Note_off_c, 6, 67, 0
8, 676864, Note_on_c, 6, 69, 96
8, 676864, Note_off_c, 6, 53, 0
8, 676864, Note_on_c, 6, 65, 96
8, 677120, Note_off_c, 6, 69, 0
8, 677120, Note_on_c, 6, 70, 96
8, 677120, Note_off_c, 6, 65, 0
8, 677120, Note_on_c, 6, 67, 96
8, 677376, Note_off_c, 6, 70, 0
8, 677376, Note_on_c, 6, 72, 96
8, 677376, Note_off_c, 6, 67, 0
8, 677376, Note_on_c, 6, 69, 96
8, 677888, Note_off_c, 6, 72, 0
8, 677888, Note_on_c, 6, 69, 96
8, 677888, Note_off_c, 6, 69, 0
8, 677888, Note_on_c, 6, 65, 96
8, 678400, Note_off_c, 6, 69, 0
8, 678400, Note_on_c, 6, 70, 96
8, 678400, Note_off_c, 6, 65, 0
8, 678400, Note_on_c, 6, 67, 96
8, 678912, Note_off_c, 6, 70, 0
8, 678912, Note_on_c, 6, 72, 96
8, 678912, Note_off_c, 6, 67, 0
8, 678912, Note_on_c, 6, 69, 96
8, 679424, Note_off_c, 6, 72, 0
8, 679424, Note_on_c, 6, 69, 96
8, 679424, Note_off_c, 6, 69, 0
8, 679424, Note_on_c, 6, 65, 96
8, 679936, Note_off_c, 6, 69, 0
8, 679936, Note_on_c, 6, 70, 96
8, 679936, Note_off_c, 6, 65, 0
8, 679936, Note_on_c, 6, 67, 96
8, 680448, Note_off_c, 6, 70, 0
8, 680448, Note_on_c, 6, 72, 96
8, 680448, Note_off_c, 6, 67, 0
8, 680448, Note_on_c, 6, 69, 96
8, 680960, Note_off_c, 6, 72, 0
8, 680960, Note_on_c, 6, 69, 96
8, 680960, Note_off_c, 6, 69, 0
8, 680960, Note_on_c, 6, 65, 96
8, 681472, Note_off_c, 6, 69, 0
8, 681472, Note_on_c, 6, 74, 96
8, 681472, Note_off_c, 6, 65, 0
8, 681472, Note_on_c, 6, 69, 96
8, 681984, Note_off_c, 6, 74, 0
8, 681984, Note_off_c, 6, 69, 0
8, 681984, Note_on_c, 6, 70, 96
8, 681984, Note_on_c, 6, 67, 96
8, 683008, Note_off_c, 6, 70, 0
8, 683008, Note_off_c, 6, 67, 0
8, 689152, Note_on_c, 6, 65, 96
8, 689152, Note_on_c, 6, 60, 96
8, 689664, Note_off_c, 6, 65, 0
8, 689664, Note_on_c, 6, 72, 96
8, 689664, Note_off_c, 6, 60, 0
8, 689664, Note_on_c, 6, 69, 96
8, 690688, Note_off_c, 6, 72, 0
8, 690688, Note_on_c, 6, 74, 96
8, 690688, Note_off_c, 6, 69, 0
8, 690688, Note_on_c, 6, 70, 96
8, 691200, Note_off_c, 6, 74, 0
8, 691200, Note_on_c, 6, 70, 96
8, 691200, Note_off_c, 6, 70, 0
8, 691200, Note_on_c, 6, 67, 96
8, 692224, Note_off_c, 6, 70, 0
8, 692224, Note_on_c, 6, 69, 96
8, 692224, Note_off_c, 6, 67, 0
8, 692224, Note_on_c, 6, 65, 96
8, 692736, Note_off_c, 6, 69, 0
8, 692736, Note_on_c, 6, 70, 96
8, 692736, Note_off_c, 6, 65, 0
8, 692736, Note_on_c, 6, 67, 96
8, 693248, Note_off_c, 6, 70, 0
8, 693248, Note_on_c, 6, 67, 96
8, 693248, Note_off_c, 6, 67, 0
8, 693248, Note_on_c, 6, 60, 96
8, 693760, Note_off_c, 6, 67, 0
8, 693760, Note_on_c, 6, 69, 96
8, 693760, Note_off_c, 6, 60, 0
8, 693760, Note_on_c, 6, 65, 96
8, 694272, Note_off_c, 6, 69, 0
8, 694272, Note_off_c, 6, 65, 0
8, 694272, Note_on_c, 6, 69, 96
8, 694272, Note_on_c, 6, 65, 96
8, 694784, Note_off_c, 6, 69, 0
8, 694784, Note_on_c, 6, 70, 96
8, 694784, Note_off_c, 6, 65, 0
8, 694784, Note_on_c, 6, 67, 96
8, 695040, Note_off_c, 6, 70, 0
8, 695040, Note_on_c, 6, 72, 96
8, 695040, Note_off_c, 6, 67, 0
8, 695040, Note_on_c, 6, 69, 96
8, 695296, Note_off_c, 6, 72, 0
8, 695296, Note_on_c, 6, 74, 96
8, 695296, Note_off_c, 6, 69, 0
8, 695296, Note_on_c, 6, 70, 96
8, 695808, Note_off_c, 6, 74, 0
8, 695808, Note_on_c, 6, 74, 96
8, 695808, Note_off_c, 6, 70, 0
8, 695808, Note_on_c, 6, 67, 96
8, 696320, Note_off_c, 6, 74, 0
8, 696320, Note_off_c, 6, 67, 0
8, 696832, Note_on_c, 6, 72, 96
8, 696832, Note_on_c, 6, 69, 96
8, 697344, Note_off_c, 6, 72, 0
8, 697344, Note_on_c, 6, 72, 96
8, 697344, Note_off_c, 6, 69, 0
8, 697344, Note_on_c, 6, 65, 96
8, 697856, Note_off_c, 6, 72, 0
8, 697856, Note_off_c, 6, 65, 0
8, 698368, Note_on_c, 6, 70, 96
8, 698368, Note_on_c, 6, 67, 96
8, 698880, Note_off_c, 6, 70, 0
8, 698880, Note_on_c, 6, 70, 96
8, 698880, Note_off_c, 6, 67, 0
8, 698880, Note_on_c, 6, 60, 96
8, 699392, Note_off_c, 6, 70, 0
8, 699392, Note_off_c, 6, 60, 0
8, 699904, Note_on_c, 6, 69, 96
8, 699904, Note_on_c, 6, 65, 96
8, 700416, Note_off_c, 6, 69, 0
8, 700416, Note_off_c, 6, 65, 0
8, 700416, Note_on_c, 6, 69, 96
8, 700416, Note_on_c, 6, 65, 96
8, 700928, Note_off_c, 6, 69, 0
8, 700928, Note_off_c, 6, 65, 0
8, 701440, Note_on_c, 6, 67, 96
8, 701440, Note_on_c, 6, 60, 96
8, 701952, Note_off_c, 6, 67, 0
8, 701952, Note_on_c, 6, 67, 96
8, 701952, Note_off_c, 6, 60, 0
8, 701952, Note_on_c, 6, 60, 96
8, 702464, Note_off_c, 6, 67, 0
8, 702464, Note_off_c, 6, 60, 0
8, 702976, Note_on_c, 6, 65, 96
8, 702976, Note_on_c, 6, 65, 96
8, 703488, Note_off_c, 6, 65, 0
8, 703488, Note_on_c, 6, 72, 96
8, 703488, Note_off_c, 6, 65, 0
8, 703488, Note_on_c, 6, 67, 96
8, 704000, Note_off_c, 6, 67, 0
8, 704000, Note_on_c, 6, 69, 96
8, 704512, Note_off_c, 6, 69, 0
8, 704512, Note_on_c, 6, 70, 96
8, 705024, Note_off_c, 6, 70, 0
8, 705024, Note_on_c, 6, 67, 96
8, 705536, Note_off_c, 6, 67, 0
8, 705536, Note_on_c, 6, 69, 96
8, 706048, Note_off_c, 6, 69, 0
8, 706048, Note_on_c, 6, 70, 96
8, 706560, Note_off_c, 6, 70, 0
8, 706560, Note_on_c, 6, 69, 96
8, 707072, Note_off_c, 6, 69, 0
8, 707072, Note_on_c, 6, 72, 96
8, 707584, Note_off_c, 6, 72, 0
8, 707584, Note_on_c, 6, 69, 96
8, 708096, Note_off_c, 6, 69, 0
8, 708096, Note_on_c, 6, 65, 96
8, 708608, Note_off_c, 6, 65, 0
8, 708608, Note_on_c, 6, 67, 96
8, 709120, Note_off_c, 6, 67, 0
8, 709120, Note_on_c, 6, 69, 96
8, 709632, Note_off_c, 6, 69, 0
8, 709632, Note_on_c, 6, 67, 96
8, 710144, Note_off_c, 6, 67, 0
8, 710144, Note_on_c, 6, 70, 96
8, 710656, Note_off_c, 6, 70, 0
8, 710656, Note_on_c, 6, 67, 96
8, 711168, Note_off_c, 6, 67, 0
8, 711168, Note_on_c, 6, 60, 96
8, 711680, Note_off_c, 6, 60, 0
8, 711680, Note_on_c, 6, 60, 96
8, 712192, Note_off_c, 6, 60, 0
8, 712192, Note_on_c, 6, 60, 96
8, 712704, Note_off_c, 6, 60, 0
8, 712704, Note_on_c, 6, 57, 96
8, 712960, Note_off_c, 6, 72, 0
8, 712960, Note_on_c, 6, 70, 96
8, 713216, Note_off_c, 6, 70, 0
8, 713216, Note_on_c, 6, 69, 96
8, 713472, Note_off_c, 6, 69, 0
8, 713472, Note_on_c, 6, 70, 96
8, 713728, Note_off_c, 6, 70, 0
8, 713728, Note_on_c, 6, 67, 96
8, 713984, Note_off_c, 6, 67, 0
8, 713984, Note_on_c, 6, 69, 96
8, 714240, Note_off_c, 6, 69, 0
8, 714240, Note_on_c, 6, 70, 96
8, 714240, Note_off_c, 6, 57, 0
8, 714496, Note_off_c, 6, 70, 0
8, 714496, Note_on_c, 6, 69, 96
8, 714752, Note_off_c, 6, 69, 0
8, 714752, Note_on_c, 6, 67, 96
8, 715008, Note_off_c, 6, 67, 0
8, 715008, Note_on_c, 6, 69, 96
8, 715264, Note_off_c, 6, 69, 0
8, 715264, Note_on_c, 6, 65, 96
8, 715520, Note_off_c, 6, 65, 0
8, 715520, Note_on_c, 6, 67, 96
8, 715776, Note_off_c, 6, 67, 0
8, 715776, Note_on_c, 6, 69, 96
8, 716032, Note_off_c, 6, 69, 0
8, 716032, Note_on_c, 6, 67, 96
8, 716288, Note_off_c, 6, 67, 0
8, 716288, Note_on_c, 6, 65, 96
8, 716544, Note_off_c, 6, 65, 0
8, 716544, Note_on_c, 6, 67, 96
8, 716800, Note_off_c, 6, 67, 0
8, 716800, Note_on_c, 6, 65, 96
8, 716800, Note_on_c, 6, 65, 96
8, 717056, Note_off_c, 6, 65, 0
8, 717056, Note_on_c, 6, 67, 96
8, 717312, Note_off_c, 6, 67, 0
8, 717312, Note_on_c, 6, 67, 96
8, 717312, Note_off_c, 6, 65, 0
8, 717312, Note_on_c, 6, 60, 96
8, 717824, Note_off_c, 6, 60, 0
8, 717824, Note_on_c, 6, 57, 96
8, 718336, Note_off_c, 6, 67, 0
8, 718336, Note_on_c, 6, 65, 96
8, 718336, Note_off_c, 6, 57, 0
8, 718336, Note_on_c, 6, 60, 96
8, 718848, Note_off_c, 6, 65, 0
8, 718848, Note_off_c, 6, 60, 0
8, 718848, Note_on_c, 6, 65, 96
8, 718848, Note_on_c, 6, 57, 96
8, 719872, Note_off_c, 6, 65, 0
8, 719872, Note_on_c, 6, 69, 96
8, 720384, Note_off_c, 6, 69, 0
8, 720384, Note_on_c, 6, 72, 96
8, 720384, Note_off_c, 6, 57, 0
8, 720384, Note_on_c, 6, 65, 96
8, 720896, Note_off_c, 6, 72, 0
8, 720896, Note_on_c, 6, 69, 96
8, 720896, Note_off_c, 6, 65, 0
8, 720896, Note_on_c, 6, 69, 96
8, 721408, Note_off_c, 6, 69, 0
8, 721408, Note_on_c, 6, 72, 96
8, 721408, Note_off_c, 6, 69, 0
8, 721408, Note_on_c, 6, 65, 96
8, 721920, Note_off_c, 6, 72, 0
8, 721920, Note_on_c, 6, 77, 96
8, 721920, Note_off_c, 6, 65, 0
8, 721920, Note_on_c, 6, 69, 96
8, 722432, Note_off_c, 6, 77, 0
8, 722432, Note_on_c, 6, 72, 96
8, 722432, Note_off_c, 6, 69, 0
8, 722432, Note_on_c, 6, 72, 96
8, 722944, Note_off_c, 6, 72, 0
8, 722944, Note_on_c, 6, 72, 96
8, 722944, Note_off_c, 6, 72, 0
8, 722944, Note_on_c, 6, 69, 96
8, 723456, Note_off_c, 6, 72, 0
8, 723456, Note_on_c, 6, 72, 96
8, 723456, Note_off_c, 6, 69, 0
8, 723456, Note_on_c, 6, 69, 96
8, 723968, Note_off_c, 6, 72, 0
8, 723968, Note_on_c, 6, 69, 96
8, 723968, Note_off_c, 6, 69, 0
8, 723968, Note_on_c, 6, 69, 96
8, 724480, Note_off_c, 6, 69, 0
8, 724480, Note_on_c, 6, 69, 96
8, 724480, Note_off_c, 6, 69, 0
8, 724480, Note_on_c, 6, 65, 96
8, 724992, Note_off_c, 6, 69, 0
8, 724992, Note_off_c, 6, 65, 0
8, 724992, Note_on_c, 6, 69, 96
8, 724992, Note_on_c, 6, 65, 96
8, 728064, Note_off_c, 6, 69, 0
8, 728064, Note_off_c, 6, 65, 0
8, 731136, End_track
9, 0, Start_track
9, 0, Title_t, "Instrument 8"
9, 0, Program_c, 7, 0
9, 7168, Note_on_c, 7, 69, 96
9, 7168, Note_on_c, 7, 65, 96
9, 7680, Note_off_c, 7, 69, 0
9, 7680, Note_on_c, 7, 69, 96
9, 7680, Note_off_c, 7, 65, 0
9, 7680, Note_on_c, 7, 65, 96
9, 8192, Note_off_c, 7, 69, 0
9, 8192, Note_on_c, 7, 72, 96
9, 8192, Note_off_c, 7, 65, 0
9, 8192, Note_on_c, 7, 69, 96
9, 8704, Note_off_c, 7, 72, 0
9, 8704, Note_on_c, 7, 69, 96
9, 8704, Note_off_c, 7, 69, 0
9, 8704, Note_on_c, 7, 65, 96
9, 9216, Note_off_c, 7, 69, 0
9, 9216, Note_on_c, 7, 65, 96
9, 9216, Note_off_c, 7, 65, 0
9, 9216, Note_on_c, 7, 60, 96
9, 9728, Note_off_c, 7, 65, 0
9, 9728, Note_on_c, 7, 69, 96
9, 9728, Note_off_c, 7, 60, 0
9, 9728, Note_on_c, 7, 65, 96
9, 10240, Note_off_c, 7, 69, 0
9, 10240, Note_on_c, 7, 72, 96
9, 10240, Note_off_c, 7, 65, 0
9, 10240, Note_on_c, 7, 69, 96
9, 10752, Note_off_c, 7, 72, 0
9, 10752, Note_on_c, 7, 69, 96
9, 10752, Note_off_c, 7, 69, 0
9, 10752, Note_on_c, 7, 65, 96
9, 11264, Note_off_c, 7, 69, 0
9, 11264, Note_on_c, 7, 72, 96
9, 11264, Note_off_c, 7, 65, 0
9, 11264, Note_on_c, 7, 69, 96
9, 11776, Note_off_c, 7, 72, 0
9, 11776, Note_on_c, 7, 77, 96
9, 11776, Note_off_c, 7, 69, 0
9, 11776, Note_on_c, 7, 72, 96
9, 12288, Note_off_c, 7, 77, 0
9, 12288, Note_off_c, 7, 72, 0
9, 12288, Note_on_c, 7, 77, 96
9, 12288, Note_on_c, 7, 72, 96
9, 13312, Note_off_c, 7, 77, 0
9, 13312, Note_off_c, 7, 72, 0
9, 19456, Note_on_c, 7, 64, 96
9, 19456, Note_on_c, 7, 60, 96
9, 19968, Note_off_c, 7, 64, 0
9, 19968, Note_on_c, 7, 67, 96
9, 19968, Note_off_c, 7, 60, 0
9, 19968, Note_on_c, 7, 64, 96
9, 20480, Note_off_c, 7, 67, 0
9, 20480, Note_on_c, 7, 64, 96
9, 20480, Note_off_c, 7, 64, 0
9, 20480, Note_on_c, 7, 60, 96
9, 20992, Note_off_c, 7, 64, 0
9, 20992, Note_on_c, 7, 67, 96
9, 20992, Note_off_c, 7, 60, 0
9, 20992, Note_on_c, 7, 64, 96
9, 21504, Note_off_c, 7, 67, 0
9, 21504, Note_on_c, 7, 72, 96
9, 21504, Note_off_c, 7, 64, 0
9, 21504, Note_on_c, 7, 67, 96
9, 22016, Note_off_c, 7, 72, 0
9, 22016, Note_on_c, 7, 67, 96
9, 22016, Note_off_c, 7, 67, 0
9, 22016, Note_on_c, 7, 64, 96
9, 22528, Note_off_c, 7, 67, 0
9, 22528, Note_on_c, 7, 67, 96
9, 22528, Note_off_c, 7, 64, 0
9, 22528, Note_on_c, 7, 64, 96
9, 23040, Note_off_c, 7, 67, 0
9, 23040, Note_on_c, 7, 67, 96
9, 23040, Note_off_c, 7, 64, 0
9, 23040, Note_on_c, 7, 64, 96
9, 23552, Note_off_c, 7, 67, 0
9, 23552, Note_on_c, 7, 64, 96
9, 23552, Note_off_c, 7, 64, 0
9, 23552, Note_on_c, 7, 60, 96
9, 24064, Note_off_c, 7, 64, 0
9, 24064, Note_on_c, 7, 64, 96
9, 24064, Note_off_c, 7, 60, 0
9, 24064, Note_on_c, 7, 60, 96
9, 24576, Note_off_c, 7, 64, 0
9, 24576, Note_off_c, 7, 60, 0
9, 24576, Note_on_c, 7, 64, 96
9, 24576, Note_on_c, 7, 60, 96
9, 25600, Note_off_c, 7, 64, 0
9, 25600, Note_off_c, 7, 60, 0
9, 31744, Note_on_c, 7, 65, 96
9, 31744, Note_on_c, 7, 65, 96
9, 32256, Note_off_c, 7, 65, 0
9, 32256, Note_on_c, 7, 72, 96
9, 32256, Note_off_c, 7, 65, 0
9, 32256, Note_on_c, 7, 65, 96
9, 32768, Note_off_c, 7, 72, 0
9, 32768, Note_on_c, 7, 75, 96
9, 32768, Note_off_c, 7, 65, 0
9, 32768, Note_on_c, 7, 72, 96
9, 33280, Note_off_c, 7, 75, 0
9, 33280, Note_on_c, 7, 74, 96
9, 33280, Note_off_c, 7, 72, 0
9, 33280, Note_on_c, 7, 70, 96
9, 33792, Note_off_c, 7, 74, 0
9, 33792, Note_on_c, 7, 72, 96
9, 33792, Note_off_c, 7, 70, 0
9, 33792, Note_on_c, 7, 65, 96
9, 34304, Note_off_c, 7, 72, 0
9, 34304, Note_on_c, 7, 75, 96
9, 34304, Note_off_c, 7, 65, 0
9, 34304, Note_on_c, 7, 72, 96
9, 34816, Note_off_c, 7, 75, 0
9, 34816, Note_on_c, 7, 74, 96
9, 34816, Note_off_c, 7, 72, 0
9, 34816, Note_on_c, 7, 70, 96
9, 35328, Note_off_c, 7, 74, 0
9, 35328, Note_on_c, 7, 72, 96
9, 35328, Note_off_c, 7, 70, 0
9, 35328, Note_on_c, 7, 65, 96
9, 35840, Note_off_c, 7, 72, 0
9, 35840, Note_on_c, 7, 74, 96
9, 35840, Note_off_c, 7, 65, 0
9, 35840, Note_on_c, 7, 69, 96
9, 36096, Note_off_c, 7, 74, 0
9, 36096, Note_on_c, 7, 72, 96
9, 36352, Note_off_c, 7, 72, 0
9, 36352, Note_on_c, 7, 70, 96
9, 36352, Note_off_c, 7, 69, 0
9, 36352, Note_on_c, 7, 66, 96
9, 36608, Note_off_c, 7, 70, 0
9, 36608, Note_on_c, 7, 69, 96
9, 36864, Note_off_c, 7, 69, 0
9, 36864, Note_off_c, 7, 66, 0
9, 36864, Note_on_c, 7, 70, 96
9, 36864, Note_on_c, 7, 62, 96
9, 37376, Note_off_c, 7, 70, 0
9, 37376, Note_on_c, 7, 72, 96
9, 37632, Note_off_c, 7, 72, 0
9, 37632, Note_on_c, 7, 70, 96
9, 37888, Note_off_c, 7, 70, 0
9, 37888, Note_on_c, 7, 69, 96
9, 37888, Note_off_c, 7, 62, 0
9, 37888, Note_on_c, 7, 60, 96
9, 38144, Note_off_c, 7, 69, 0
9, 38144, Note_on_c, 7, 67, 96
9, 38400, Note_off_c, 7, 67, 0
9, 38400, Note_on_c, 7, 69, 96
9, 38400, Note_off_c, 7, 60, 0
9, 38400, Note_on_c, 7, 60, 96
9, 38912, Note_off_c, 7, 69, 0
9, 38912, Note_on_c, 7, 65, 96
9, 38912, Note_off_c, 7, 60, 0
9, 38912, Note_on_c, 7, 57, 96
9, 39424, Note_off_c, 7, 65, 0
9, 39424, Note_on_c, 7, 67, 96
9, 39424, Note_off_c, 7, 57, 0
9, 39424, Note_on_c, 7, 60, 96
9, 39936, Note_off_c, 7, 67, 0
9, 39936, Note_on_c, 7, 69, 96
9, 39936, Note_off_c, 7, 60, 0
9, 39936, Note_on_c, 7, 65, 96
9, 40448, Note_off_c, 7, 69, 0
9, 40448, Note_on_c, 7, 65, 96
9, 40448, Note_off_c, 7, 65, 0
9, 40448, Note_on_c, 7, 57, 96
9, 40960, Note_off_c, 7, 65, 0
9, 40960, Note_on_c, 7, 67, 96
9, 40960, Note_off_c, 7, 57, 0
9, 40960, Note_on_c, 7, 60, 96
9, 41472, Note_off_c, 7, 67, 0
9, 41472, Note_on_c, 7, 69, 96
9, 41472, Note_off_c, 7, 60, 0
9, 41472, Note_on_c, 7, 65, 96
9, 41984, Note_off_c, 7, 69, 0
9, 41984, Note_on_c, 7, 67, 96
9, 41984, Note_off_c, 7, 65, 0
9, 41984, Note_on_c, 7, 64, 96
9, 42496, Note_off_c, 7, 67, 0
9, 42496, Note_on_c, 7, 69, 96
9, 42496, Note_off_c, 7, 64, 0
9, 42496, Note_on_c, 7, 65, 96
9, 43008, Note_off_c, 7, 69, 0
9, 43008, Note_off_c, 7, 65, 0
9, 43008, Note_on_c, 7, 67, 96
9, 43008, Note_on_c, 7, 64, 96
9, 44032, Note_off_c, 7, 67, 0
9, 44032, Note_on_c, 7, 65, 96
9, 44032, Note_off_c, 7, 64, 0
9, 44032, Note_on_c, 7, 60, 96
9, 44544, Note_off_c, 7, 65, 0
9, 44544, Note_on_c, 7, 72, 96
9, 44544, Note_off_c, 7, 60, 0
9, 44544, Note_on_c, 7, 69, 96
9, 45568, Note_off_c, 7, 72, 0
9, 45568, Note_on_c, 7, 74, 96
9, 45568, Note_off_c, 7, 69, 0
9, 45568, Note_on_c, 7, 70, 96
9, 46080, Note_off_c, 7, 74, 0
9, 46080, Note_on_c, 7, 70, 96
9, 46080, Note_off_c, 7, 70, 0
9, 46080, Note_on_c, 7, 67, 96
9, 47104, Note_off_c, 7, 70, 0
9, 47104, Note_on_c, 7, 69, 96
9, 47104, Note_off_c, 7, 67, 0
9, 47104, Note_on_c, 7, 65, 96
9, 47616, Note_off_c, 7, 69, 0
9, 47616, Note_on_c, 7, 70, 96
9, 47616, Note_off_c, 7, 65, 0
9, 47616, Note_on_c, 7, 67, 96
9, 48128, Note_off_c, 7, 70, 0
9, 48128, Note_on_c, 7, 67, 96
9, 48128, Note_off_c, 7, 67, 0
9, 48128, Note_on_c, 7, 60, 96
9, 48640, Note_off_c, 7, 67, 0
9, 48640, Note_on_c, 7, 69, 96
9, 48640, Note_off_c, 7, 60, 0
9, 48640, Note_on_c, 7, 65, 96
9, 49152, Note_off_c, 7, 69, 0
9, 49152, Note_off_c, 7, 65, 0
9, 49152, Note_on_c, 7, 69, 96
9, 49152, Note_on_c, 7, 65, 96
9, 50176, Note_off_c, 7, 69, 0
9, 50176, Note_on_c, 7, 74, 96
9, 50176, Note_off_c, 7, 65, 0
9, 50176, Note_on_c, 7, 65, 96
9, 50688, Note_off_c, 7, 74, 0
9, 50688, Note_on_c, 7, 67, 96
9, 50688, Note_off_c, 7, 65, 0
9, 50688, Note_on_c, 7, 64, 96
9, 51712, Note_off_c, 7, 67, 0
9, 51712, Note_on_c, 7, 72, 96
9, 51712, Note_off_c, 7, 64, 0
9, 51712, Note_on_c, 7, 69, 96
9, 52224, Note_off_c, 7, 72, 0
9, 52224, Note_on_c, 7, 65, 96
9, 52224, Note_off_c, 7, 69, 0
9, 52224, Note_on_c, 7, 62, 96
9, 53248, Note_off_c, 7, 65, 0
9, 53248, Note_on_c, 7, 70, 96
9, 53248, Note_off_c, 7, 62, 0
9, 53248, Note_on_c, 7, 67, 96
9, 53760, Note_off_c, 7, 70, 0
9, 53760, Note_on_c, 7, 64, 96
9, 53760, Note_off_c, 7, 67, 0
9, 53760, Note_on_c, 7, 60, 96
9, 54784, Note_off_c, 7, 64, 0
9, 54784, Note_on_c, 7, 69, 96
9, 54784, Note_off_c, 7, 60, 0
9, 54784, Note_on_c, 7, 65, 96
9, 55296, Note_off_c, 7, 69, 0
9, 55296, Note_off_c, 7, 65, 0
9, 55296, Note_on_c, 7, 62, 96
9, 55296, Note_on_c, 7, 58, 96
9, 56320, Note_off_c, 7, 62, 0
9, 56320, Note_on_c, 7, 67, 96
9, 56320, Note_off_c, 7, 58, 0
9, 56320, Note_on_c, 7, 60, 96
9, 56832, Note_off_c, 7, 67, 0
9, 56832, Note_on_c, 7, 60, 96
9, 56832, Note_off_c, 7, 60, 0
9, 56832, Note_on_c, 7, 57, 96
9, 57856, Note_off_c, 7, 60, 0
9, 57856, Note_on_c, 7, 65, 96
9, 57856, Note_off_c, 7, 57, 0
9, 57856, Note_on_c, 7, 59, 96
9, 58368, Note_off_c, 7, 65, 0
9, 58368, Note_on_c, 7, 64, 96
9, 58368, Note_off_c, 7, 59, 0
9, 58368, Note_on_c, 7, 55, 96
9, 58880, Note_off_c, 7, 64, 0
9, 58880, Note_on_c, 7, 65, 96
9, 59392, Note_off_c, 7, 65, 0
9, 59392, Note_on_c, 7, 67, 96
9, 59392, Note_off_c, 7, 55, 0
9, 59392, Note_on_c, 7, 64, 96
9, 59904, Note_off_c, 7, 67, 0
9, 59904, Note_on_c, 7, 64, 96
9, 59904, Note_off_c, 7, 64, 0
9, 59904, Note_on_c, 7, 60, 96
9, 60416, Note_off_c, 7, 64, 0
9, 60416, Note_on_c, 7, 65, 96
9, 60928, Note_off_c, 7, 65, 0
9, 60928, Note_on_c, 7, 67, 96
9, 60928, Note_off_c, 7, 60, 0
9, 60928, Note_on_c, 7, 64, 96
9, 61440, Note_off_c, 7, 67, 0
9, 61440, Note_off_c, 7, 64, 0
9, 61440, Note_on_c, 7, 65, 96
9, 61440, Note_on_c, 7, 60, 96
9, 61952, Note_off_c, 7, 65, 0
9, 61952, Note_on_c, 7, 69, 96
9, 61952, Note_off_c, 7, 60, 0
9, 61952, Note_on_c, 7, 65, 96
9, 62464, Note_off_c, 7, 69, 0
9, 62464, Note_on_c, 7, 65, 96
9, 62464, Note_off_c, 7, 65, 0
9, 62464, Note_on_c, 7, 60, 96
9, 62976, Note_off_c, 7, 65, 0
9, 62976, Note_on_c, 7, 60, 96
9, 62976, Note_off_c, 7, 60, 0
9, 62976, Note_on_c, 7, 57, 96
9, 64000, Note_off_c, 7, 60, 0
9, 64000, Note_on_c, 7, 65, 96
9, 64000, Note_off_c, 7, 57, 0
9, 64000, Note_on_c, 7, 60, 96
9, 64512, Note_off_c, 7, 65, 0
9, 64512, Note_on_c, 7, 64, 96
9, 64512, Note_off_c, 7, 60, 0
9, 64512, Note_on_c, 7, 58, 96
9, 65024, Note_off_c, 7, 64, 0
9, 65024, Note_on_c, 7, 65, 96
9, 65536, Note_off_c, 7, 65, 0
9, 65536, Note_on_c, 7, 67, 96
9, 65536, Note_off_c, 7, 58, 0
9, 65536, Note_on_c, 7, 58, 96
9, 66048, Note_off_c, 7, 67, 0
9, 66048, Note_on_c, 7, 64, 96
9, 66048, Note_off_c, 7, 58, 0
9, 66048, Note_on_c, 7, 55, 96
9, 66560, Note_off_c, 7, 64, 0
9, 66560, Note_on_c, 7, 65, 96
9, 66560, Note_off_c, 7, 55, 0
9, 66560, Note_on_c, 7, 57, 96
9, 67072, Note_off_c, 7, 65, 0
9, 67072, Note_on_c, 7, 67, 96
9, 67072, Note_off_c, 7, 57, 0
9, 67072, Note_on_c, 7, 58, 96
9, 67584, Note_off_c, 7, 67, 0
9, 67584, Note_off_c, 7, 58, 0
9, 67584, Note_on_c, 7, 65, 96
9, 67584, Note_on_c, 7, 57, 96
9, 68608, Note_off_c, 7, 65, 0
9, 68608, Note_on_c, 7, 60, 96
9, 68608, Note_off_c, 7, 57, 0
9, 69120, Note_off_c, 7, 60, 0
9, 69120, Note_on_c, 7, 65, 96
9, 70144, Note_on_c, 7, 58, 96
9, 70656, Note_off_c, 7, 58, 0
9, 70656, Note_on_c, 7, 57, 96
9, 71168, Note_off_c, 7, 65, 0
9, 71168, Note_on_c, 7, 70, 96
9, 71680, Note_off_c, 7, 70, 0
9, 71680, Note_on_c, 7, 67, 96
9, 71680, Note_off_c, 7, 57, 0
9, 71680, Note_on_c, 7, 62, 96
9, 72192, Note_off_c, 7, 67, 0
9, 72192, Note_on_c, 7, 64, 96
9, 72192, Note_off_c, 7, 62, 0
9, 72192, Note_on_c, 7, 60, 96
9, 72704, Note_off_c, 7, 60, 0
9, 72704, Note_on_c, 7, 58, 96
9, 72960, Note_off_c, 7, 58, 0
9, 72960, Note_on_c, 7, 57, 96
9, 73216, Note_off_c, 7, 64, 0
9, 73216, Note_on_c, 7, 65, 96
9, 73216, Note_off_c, 7, 57, 0
9, 73216, Note_on_c, 7, 58, 96
9, 73728, Note_off_c, 7, 65, 0
9, 73728, Note_off_c, 7, 58, 0
9, 73728, Note_on_c, 7, 65, 96
9, 73728, Note_on_c, 7, 57, 96
9, 74752, Note_off_c, 7, 65, 0
9, 74752, Note_on_c, 7, 69, 96
9, 74752, Note_off_c, 7, 57, 0
9, 74752, Note_on_c, 7, 65, 96
9, 75264, Note_off_c, 7, 69, 0
9, 75264, Note_on_c, 7, 69, 96
9, 75264, Note_off_c, 7, 65, 0
9, 75264, Note_on_c, 7, 65, 96
9, 75776, Note_off_c, 7, 69, 0
9, 75776, Note_on_c, 7, 72, 96
9, 75776, Note_off_c, 7, 65, 0
9, 75776, Note_on_c, 7, 69, 96
9, 76288, Note_off_c, 7, 72, 0
9, 76288, Note_on_c, 7, 69, 96
9, 76288, Note_off_c, 7, 69, 0
9, 76288, Note_on_c, 7, 65, 96
9, 76800, Note_off_c, 7, 69, 0
9, 76800, Note_on_c, 7, 65, 96
9, 76800, Note_off_c, 7, 65, 0
9, 76800, Note_on_c, 7, 60, 96
9, 77312, Note_off_c, 7, 65, 0
9, 77312, Note_on_c, 7, 69, 96
9, 77312, Note_off_c, 7, 60, 0
9, 77312, Note_on_c, 7, 65, 96
9, 77824, Note_off_c, 7, 69, 0
9, 77824, Note_on_c, 7, 72, 96
9, 77824, Note_off_c, 7, 65, 0
9, 77824, Note_on_c, 7, 69, 96
9, 78336, Note_off_c, 7, 72, 0
9, 78336, Note_on_c, 7, 69, 96
9, 78336, Note_off_c, 7, 69, 0
9, 78336, Note_on_c, 7, 65, 96
9, 78848, Note_off_c, 7, 69, 0
9, 78848, Note_on_c, 7, 72, 96
9, 78848, Note_off_c, 7, 65, 0
9, 78848, Note_on_c, 7, 69, 96
9, 79360, Note_off_c, 7, 72, 0
9, 79360, Note_on_c, 7, 77, 96
9, 79360, Note_off_c, 7, 69, 0
9, 79360, Note_on_c, 7, 72, 96
9, 79872, Note_off_c, 7, 77, 0
9, 79872, Note_off_c, 7, 72, 0
9, 79872, Note_on_c, 7, 77, 96
9, 79872, Note_on_c, 7, 72, 96
9, 80896, Note_off_c, 7, 77, 0
9, 80896, Note_off_c, 7, 72, 0
9, 80896, Note_on_c, 7, 60, 96
9, 81408, Note_off_c, 7, 60, 0
9, 81408, Note_on_c, 7, 65, 96
9, 82432, Note_off_c, 7, 65, 0
9, 82432, Note_on_c, 7, 67, 96
9, 82944, Note_off_c, 7, 67, 0
9, 82944, Note_on_c, 7, 63, 96
9, 83968, Note_off_c, 7, 63, 0
9, 83968, Note_on_c, 7, 62, 96
9, 84480, Note_off_c, 7, 62, 0
9, 84480, Note_on_c, 7, 64, 96
9, 84992, Note_off_c, 7, 64, 0
9, 84992, Note_on_c, 7, 67, 96
9, 85504, Note_off_c, 7, 67, 0
9, 85504, Note_on_c, 7, 65, 96
9, 86016, Note_off_c, 7, 65, 0
9, 86016, Note_on_c, 7, 62, 96
9, 87040, Note_off_c, 7, 62, 0
9, 87040, Note_on_c, 7, 60, 96
9, 87552, Note_off_c, 7, 60, 0
9, 87552, Note_on_c, 7, 62, 96
9, 88064, Note_off_c, 7, 62, 0
9, 88064, Note_on_c, 7, 65, 96
9, 88576, Note_off_c, 7, 65, 0
9, 88576, Note_on_c, 7, 63, 96
9, 89088, Note_off_c, 7, 63, 0
9, 89088, Note_on_c, 7, 60, 96
9, 90112, Note_on_c, 7, 65, 96
9, 90112, Note_off_c, 7, 60, 0
9, 90112, Note_on_c, 7, 65, 96
9, 90624, Note_off_c, 7, 65, 0
9, 90624, Note_on_c, 7, 70, 96
9, 90624, Note_off_c, 7, 65, 0
9, 90624, Note_on_c, 7, 65, 96
9, 91136, Note_off_c, 7, 65, 0
9, 91136, Note_on_c, 7, 67, 96
9, 91648, Note_off_c, 7, 70, 0
9, 91648, Note_on_c, 7, 72, 96
9, 91648, Note_off_c, 7, 67, 0
9, 91648, Note_on_c, 7, 64, 96
9, 92160, Note_off_c, 7, 72, 0
9, 92160, Note_off_c, 7, 64, 0
9, 92160, Note_on_c, 7, 69, 96
9, 92160, Note_on_c, 7, 65, 96
9, 93184, Note_off_c, 7, 69, 0
9, 93184, Note_on_c, 7, 67, 96
9, 93184, Note_off_c, 7, 65, 0
9, 93184, Note_on_c, 7, 67, 96
9, 93696, Note_off_c, 7, 67, 0
9, 93696, Note_on_c, 7, 69, 96
9, 93696, Note_off_c, 7, 67, 0
9, 93696, Note_on_c, 7, 65, 96
9, 94208, Note_off_c, 7, 69, 0
9, 94208, Note_on_c, 7, 72, 96
9, 94208, Note_off_c, 7, 65, 0
9, 94208, Note_on_c, 7, 64, 96
9, 94720, Note_off_c, 7, 72, 0
9, 94720, Note_on_c, 7, 71, 96
9, 94720, Note_off_c, 7, 64, 0
9, 94720, Note_on_c, 7, 62, 96
9, 95232, Note_off_c, 7, 71, 0
9, 95232, Note_on_c, 7, 67, 96
9, 95232, Note_off_c, 7, 62, 0
9, 95232, Note_on_c, 7, 62, 96
9, 95744, Note_off_c, 7, 62, 0
9, 95744, Note_on_c, 7, 67, 96
9, 96256, Note_off_c, 7, 67, 0
9, 96256, Note_on_c, 7, 62, 96
9, 96256, Note_off_c, 7, 67, 0
9, 96256, Note_on_c, 7, 67, 96
9, 96768, Note_off_c, 7, 62, 0
9, 96768, Note_on_c, 7, 65, 96
9, 96768, Note_off_c, 7, 67, 0
9, 96768, Note_on_c, 7, 62, 96
9, 97280, Note_off_c, 7, 65, 0
9, 97280, Note_on_c, 7, 69, 96
9, 97280, Note_off_c, 7, 62, 0
9, 97280, Note_on_c, 7, 65, 96
9, 97792, Note_off_c, 7, 69, 0
9, 97792, Note_on_c, 7, 67, 96
9, 97792, Note_off_c, 7, 65, 0
9, 97792, Note_on_c, 7, 65, 96
9, 98304, Note_off_c, 7, 67, 0
9, 98304, Note_off_c, 7, 65, 0
9, 98304, Note_on_c, 7, 67, 96
9, 98304, Note_on_c, 7, 64, 96
9, 99328, Note_off_c, 7, 67, 0
9, 99328, Note_on_c, 7, 60, 96
9, 99328, Note_off_c, 7, 64, 0
9, 99328, Note_on_c, 7, 67, 96
9, 99840, Note_off_c, 7, 60, 0
9, 99840, Note_on_c, 7, 67, 96
9, 99840, Note_off_c, 7, 67, 0
9, 99840, Note_on_c, 7, 64, 96
9, 100352, Note_off_c, 7, 64, 0
9, 100352, Note_on_c, 7, 60, 96
9, 100864, Note_off_c, 7, 67, 0
9, 100864, Note_on_c, 7, 64, 96
9, 100864, Note_off_c, 7, 60, 0
9, 100864, Note_on_c, 7, 67, 96
9, 101376, Note_off_c, 7, 64, 0
9, 101376, Note_on_c, 7, 60, 96
9, 101376, Note_off_c, 7, 67, 0
9, 101376, Note_on_c, 7, 69, 96
9, 102400, Note_off_c, 7, 60, 0
9, 102400, Note_on_c, 7, 70, 96
9, 102400, Note_off_c, 7, 69, 0
9, 102400, Note_on_c, 7, 60, 96
9, 102912, Note_off_c, 7, 70, 0
9, 102912, Note_on_c, 7, 69, 96
9, 102912, Note_off_c, 7, 60, 0
9, 102912, Note_on_c, 7, 60, 96
9, 103424, Note_off_c, 7, 69, 0
9, 103424, Note_on_c, 7, 67, 96
9, 103424, Note_off_c, 7, 60, 0
9, 103424, Note_on_c, 7, 64, 96
9, 103936, Note_off_c, 7, 67, 0
9, 103936, Note_on_c, 7, 69, 96
9, 103936, Note_off_c, 7, 64, 0
9, 103936, Note_on_c, 7, 65, 96
9, 104448, Note_off_c, 7, 69, 0
9, 104448, Note_off_c, 7, 65, 0
9, 104448, Note_on_c, 7, 67, 96
9, 104448, Note_on_c, 7, 64, 96
9, 104960, Note_off_c, 7, 64, 0
9, 104960, Note_on_c, 7, 60, 96
9, 105216, Note_off_c, 7, 60, 0
9, 105216, Note_on_c, 7, 62, 96
9, 105472, Note_off_c, 7, 67, 0
9, 105472, Note_on_c, 7, 67, 96
9, 105472, Note_off_c, 7, 62, 0
9, 105472, Note_on_c, 7, 64, 96
9, 105728, Note_off_c, 7, 64, 0
9, 105728, Note_on_c, 7, 65, 96
9, 105984, Note_off_c, 7, 67, 0
9, 105984, Note_on_c, 7, 72, 96
9, 105984, Note_off_c, 7, 65, 0
9, 105984, Note_on_c, 7, 67, 96
9, 107008, Note_off_c, 7, 67, 0
9, 107008, Note_on_c, 7, 69, 96
9, 107520, Note_off_c, 7, 69, 0
9, 107520, Note_on_c, 7, 65, 96
9, 108544, Note_off_c, 7, 65, 0
9, 108544, Note_on_c, 7, 64, 96
9, 109056, Note_off_c, 7, 72, 0
9, 109056, Note_on_c, 7, 71, 96
9, 109056, Note_off_c, 7, 64, 0
9, 109056, Note_on_c, 7, 65, 96
9, 109568, Note_off_c, 7, 65, 0
9, 109568, Note_on_c, 7, 62, 96
9, 110080, Note_off_c, 7, 62, 0
9, 110080, Note_on_c, 7, 64, 96
9, 110592, Note_off_c, 7, 71, 0
9, 110592, Note_off_c, 7, 64, 0
9, 110592, Note_on_c, 7, 72, 96
9, 110592, Note_on_c, 7, 64, 96
9, 111616, Note_off_c, 7, 72, 0
9, 111616, Note_on_c, 7, 64, 96
9, 111616, Note_off_c, 7, 64, 0
9, 111616, Note_on_c, 7, 60, 96
9, 112128, Note_off_c, 7, 64, 0
9, 112128, Note_on_c, 7, 67, 96
9, 112128, Note_off_c, 7, 60, 0
9, 112128, Note_on_c, 7, 64, 96
9, 112640, Note_off_c, 7, 67, 0
9, 112640, Note_on_c, 7, 64, 96
9, 112640, Note_off_c, 7, 64, 0
9, 112640, Note_on_c, 7, 60, 96
9, 113152, Note_off_c, 7, 64, 0
9, 113152, Note_on_c, 7, 67, 96
9, 113152, Note_off_c, 7, 60, 0
9, 113152, Note_on_c, 7, 64, 96
9, 113664, Note_off_c, 7, 67, 0
9, 113664, Note_on_c, 7, 72, 96
9, 113664, Note_off_c, 7, 64, 0
9, 113664, Note_on_c, 7, 67, 96
9, 114176, Note_off_c, 7, 72, 0
9, 114176, Note_on_c, 7, 67, 96
9, 114176, Note_off_c, 7, 67, 0
9, 114176, Note_on_c, 7, 64, 96
9, 114688, Note_off_c, 7, 67, 0
9, 114688, Note_on_c, 7, 67, 96
9, 114688, Note_off_c, 7, 64, 0
9, 114688, Note_on_c, 7, 64, 96
9, 115200, Note_off_c, 7, 67, 0
9, 115200, Note_on_c, 7, 67, 96
9, 115200, Note_off_c, 7, 64, 0
9, 115200, Note_on_c, 7, 64, 96
9, 115712, Note_off_c, 7, 67, 0
9, 115712, Note_on_c, 7, 64, 96
9, 115712, Note_off_c, 7, 64, 0
9, 115712, Note_on_c, 7, 60, 96
9, 116224, Note_off_c, 7, 64, 0
9, 116224, Note_on_c, 7, 64, 96
9, 116224, Note_off_c, 7, 60, 0
9, 116224, Note_on_c, 7, 60, 96
9, 116736, Note_off_c, 7, 64, 0
9, 116736, Note_off_c, 7, 60, 0
9, 116736, Note_on_c, 7, 64, 96
9, 116736, Note_on_c, 7, 60, 96
9, 117760, Note_off_c, 7, 64, 0
9, 118272, Note_off_c, 7, 60, 0
9, 118272, Note_on_c, 7, 60, 96
9, 119808, Note_off_c, 7, 60, 0
9, 119808, Note_on_c, 7, 62, 96
9, 121344, Note_off_c, 7, 62, 0
9, 121344, Note_on_c, 7, 64, 96
9, 122880, Note_off_c, 7, 64, 0
9, 122880, Note_on_c, 7, 65, 96
9, 124416, Note_off_c, 7, 65, 0
9, 124416, Note_on_c, 7, 64, 96
9, 125952, Note_off_c, 7, 64, 0
9, 125952, Note_on_c, 7, 62, 96
9, 127488, Note_off_c, 7, 62, 0
9, 127488, Note_on_c, 7, 62, 96
9, 129024, Note_off_c, 7, 62, 0
9, 129024, Note_on_c, 7, 60, 96
9, 130048, Note_off_c, 7, 60, 0
9, 130048, Note_on_c, 7, 60, 96
9, 130560, Note_on_c, 7, 65, 96
9, 130560, Note_off_c, 7, 60, 0
9, 130560, Note_on_c, 7, 65, 96
9, 131584, Note_off_c, 7, 65, 0
9, 131584, Note_on_c, 7, 67, 96
9, 132096, Note_off_c, 7, 65, 0
9, 132096, Note_on_c, 7, 67, 96
9, 132096, Note_off_c, 7, 67, 0
9, 132096, Note_on_c, 7, 65, 96
9, 132608, Note_off_c, 7, 65, 0
9, 132608, Note_on_c, 7, 63, 96
9, 133120, Note_off_c, 7, 63, 0
9, 133120, Note_on_c, 7, 62, 96
9, 133632, Note_off_c, 7, 67, 0
9, 133632, Note_on_c, 7, 69, 96
9, 133632, Note_off_c, 7, 62, 0
9, 133632, Note_on_c, 7, 63, 96
9, 134144, Note_off_c, 7, 63, 0
9, 134144, Note_on_c, 7, 67, 96
9, 134656, Note_off_c, 7, 67, 0
9, 134656, Note_on_c, 7, 65, 96
9, 135168, Note_off_c, 7, 69, 0
9, 135168, Note_off_c, 7, 65, 0
9, 135168, Note_on_c, 7, 70, 96
9, 135168, Note_on_c, 7, 63, 96
9, 135680, Note_off_c, 7, 63, 0
9, 135680, Note_on_c, 7, 62, 96
9, 136192, Note_off_c, 7, 62, 0
9, 136192, Note_on_c, 7, 64, 96
9, 136704, Note_off_c, 7, 70, 0
9, 136704, Note_on_c, 7, 69, 96
9, 136704, Note_off_c, 7, 64, 0
9, 136704, Note_on_c, 7, 65, 96
9, 138240, Note_off_c, 7, 69, 0
9, 138240, Note_on_c, 7, 67, 96
9, 138752, Note_off_c, 7, 65, 0
9, 138752, Note_on_c, 7, 67, 96
9, 139264, Note_off_c, 7, 67, 0
9, 139264, Note_on_c, 7, 65, 96
9, 139776, Note_off_c, 7, 67, 0
9, 139776, Note_on_c, 7, 67, 96
9, 139776, Note_off_c, 7, 65, 0
9, 139776, Note_on_c, 7, 64, 96
9, 140288, Note_off_c, 7, 64, 0
9, 140288, Note_on_c, 7, 69, 96
9, 140800, Note_off_c, 7, 69, 0
9, 140800, Note_on_c, 7, 64, 96
9, 141312, Note_off_c, 7, 67, 0
9, 141312, Note_off_c, 7, 64, 0
9, 141312, Note_on_c, 7, 65, 96
9, 141312, Note_on_c, 7, 62, 96
9, 142336, Note_off_c, 7, 65, 0
9, 142336, Note_on_c, 7, 72, 96
9, 142336, Note_off_c, 7, 62, 0
9, 142336, Note_on_c, 7, 67, 96
9, 142848, Note_off_c, 7, 72, 0
9, 142848, Note_on_c, 7, 69, 96
9, 142848, Note_off_c, 7, 67, 0
9, 142848, Note_on_c, 7, 65, 96
9, 143360, Note_off_c, 7, 69, 0
9, 143360, Note_on_c, 7, 72, 96
9, 143360, Note_off_c, 7, 65, 0
9, 143360, Note_on_c, 7, 69, 96
9, 143872, Note_off_c, 7, 72, 0
9, 143872, Note_on_c, 7, 69, 96
9, 143872, Note_off_c, 7, 69, 0
9, 143872, Note_on_c, 7, 65, 96
9, 144384, Note_off_c, 7, 69, 0
9, 144384, Note_on_c, 7, 65, 96
9, 144384, Note_off_c, 7, 65, 0
9, 144384, Note_on_c, 7, 60, 96
9, 144896, Note_off_c, 7, 65, 0
9, 144896, Note_on_c, 7, 69, 96
9, 144896, Note_off_c, 7, 60, 0
9, 144896, Note_on_c, 7, 65, 96
9, 145408, Note_off_c, 7, 69, 0
9, 145408, Note_on_c, 7, 72, 96
9, 145408, Note_off_c, 7, 65, 0
9, 145408, Note_on_c, 7, 69, 96
9, 145920, Note_off_c, 7, 72, 0
9, 145920, Note_on_c, 7, 69, 96
9, 145920, Note_off_c, 7, 69, 0
9, 145920, Note_on_c, 7, 65, 96
9, 146432, Note_off_c, 7, 69, 0
9, 146432, Note_on_c, 7, 72, 96
9, 146432, Note_off_c, 7, 65, 0
9, 146432, Note_on_c, 7, 69, 96
9, 146944, Note_off_c, 7, 72, 0
9, 146944, Note_on_c, 7, 77, 96
9, 146944, Note_off_c, 7, 69, 0
9, 146944, Note_on_c, 7, 72, 96
9, 147456, Note_off_c, 7, 77, 0
9, 147456, Note_off_c, 7, 72, 0
9, 147456, Note_on_c, 7, 74, 96
9, 147456, Note_on_c, 7, 65, 96
9, 148480, Note_off_c, 7, 74, 0
9, 148480, Note_off_c, 7, 65, 0
9, 148480, Note_on_c, 7, 53, 96
9, 148992, Note_off_c, 7, 53, 0
9, 148992, Note_on_c, 7, 58, 96
9, 150016, Note_off_c, 7, 58, 0
9, 150016, Note_on_c, 7, 62, 96
9, 150528, Note_off_c, 7, 62, 0
9, 150528, Note_on_c, 7, 60, 96
9, 151040, Note_off_c, 7, 60, 0
9, 151040, Note_on_c, 7, 58, 96
9, 151552, Note_off_c, 7, 58, 0
9, 151552, Note_on_c, 7, 57, 96
9, 152064, Note_off_c, 7, 57, 0
9, 152064, Note_on_c, 7, 58, 96
9, 152576, Note_off_c, 7, 58, 0
9, 152576, Note_on_c, 7, 62, 96
9, 153088, Note_off_c, 7, 62, 0
9, 153088, Note_on_c, 7, 60, 96
9, 153600, Note_off_c, 7, 60, 0
9, 153600, Note_on_c, 7, 57, 96
9, 154624, Note_on_c, 7, 60, 96
9, 154624, Note_off_c, 7, 57, 0
9, 154624, Note_on_c, 7, 57, 96
9, 155136, Note_off_c, 7, 60, 0
9, 155136, Note_on_c, 7, 69, 96
9, 155136, Note_off_c, 7, 57, 0
9, 155136, Note_on_c, 7, 62, 96
9, 155648, Note_off_c, 7, 62, 0
9, 155648, Note_on_c, 7, 64, 96
9, 156160, Note_off_c, 7, 69, 0
9, 156160, Note_on_c, 7, 70, 96
9, 156160, Note_off_c, 7, 64, 0
9, 156160, Note_on_c, 7, 65, 96
9, 156672, Note_off_c, 7, 70, 0
9, 156672, Note_on_c, 7, 67, 96
9, 156672, Note_off_c, 7, 65, 0
9, 156672, Note_on_c, 7, 59, 96
9, 157184, Note_off_c, 7, 59, 0
9, 157184, Note_on_c, 7, 60, 96
9, 157696, Note_off_c, 7, 67, 0
9, 157696, Note_on_c, 7, 65, 96
9, 157696, Note_off_c, 7, 60, 0
9, 157696, Note_on_c, 7, 62, 96
9, 158208, Note_off_c, 7, 65, 0
9, 158208, Note_on_c, 7, 67, 96
9, 158208, Note_off_c, 7, 62, 0
9, 158208, Note_on_c, 7, 64, 96
9, 158720, Note_off_c, 7, 67, 0
9, 158720, Note_on_c, 7, 70, 96
9, 158720, Note_off_c, 7, 64, 0
9, 158720, Note_on_c, 7, 62, 96
9, 159232, Note_off_c, 7, 70, 0
9, 159232, Note_on_c, 7, 69, 96
9, 159232, Note_off_c, 7, 62, 0
9, 159232, Note_on_c, 7, 60, 96
9, 159744, Note_off_c, 7, 69, 0
9, 159744, Note_off_c, 7, 60, 0
9, 159744, Note_on_c, 7, 65, 96
9, 159744, Note_on_c, 7, 62, 96
9, 160768, Note_off_c, 7, 65, 0
9, 160768, Note_on_c, 7, 67, 96
9, 160768, Note_off_c, 7, 62, 0
9, 160768, Note_on_c, 7, 64, 96
9, 161280, Note_off_c, 7, 67, 0
9, 161280, Note_on_c, 7, 69, 96
9, 161280, Note_off_c, 7, 64, 0
9, 161280, Note_on_c, 7, 65, 96
9, 161792, Note_off_c, 7, 69, 0
9, 161792, Note_on_c, 7, 67, 96
9, 162304, Note_off_c, 7, 67, 0
9, 162304, Note_on_c, 7, 69, 96
9, 162816, Note_off_c, 7, 69, 0
9, 162816, Note_on_c, 7, 71, 96
9, 163328, Note_off_c, 7, 71, 0
9, 163328, Note_on_c, 7, 67, 96
9, 163840, Note_off_c, 7, 67, 0
9, 163840, Note_on_c, 7, 69, 96
9, 163840, Note_off_c, 7, 65, 0
9, 163840, Note_on_c, 7, 62, 96
9, 164352, Note_off_c, 7, 69, 0
9, 164352, Note_on_c, 7, 67, 96
9, 164352, Note_off_c, 7, 62, 0
9, 164352, Note_on_c, 7, 59, 96
9, 164864, Note_off_c, 7, 67, 0
9, 164864, Note_on_c, 7, 69, 96
9, 164864, Note_off_c, 7, 59, 0
9, 164864, Note_on_c, 7, 60, 96
9, 165376, Note_off_c, 7, 69, 0
9, 165376, Note_on_c, 7, 71, 96
9, 165376, Note_off_c, 7, 60, 0
9, 165376, Note_on_c, 7, 62, 96
9, 165888, Note_off_c, 7, 71, 0
9, 165888, Note_off_c, 7, 62, 0
9, 165888, Note_on_c, 7, 64, 96
9, 165888, Note_on_c, 7, 55, 96
9, 166912, Note_off_c, 7, 64, 0
9, 166912, Note_on_c, 7, 60, 96
9, 166912, Note_off_c, 7, 55, 0
9, 166912, Note_on_c, 7, 67, 96
9, 167424, Note_off_c, 7, 60, 0
9, 167424, Note_on_c, 7, 70, 96
9, 167424, Note_off_c, 7, 67, 0
9, 167424, Note_on_c, 7, 64, 96
9, 167936, Note_off_c, 7, 64, 0
9, 167936, Note_on_c, 7, 65, 96
9, 168448, Note_off_c, 7, 70, 0
9, 168448, Note_on_c, 7, 72, 96
9, 168448, Note_off_c, 7, 65, 0
9, 168448, Note_on_c, 7, 67, 96
9, 168960, Note_off_c, 7, 72, 0
9, 168960, Note_on_c, 7, 70, 96
9, 168960, Note_off_c, 7, 67, 0
9, 168960, Note_on_c, 7, 60, 96
9, 169472, Note_off_c, 7, 70, 0
9, 169472, Note_on_c, 7, 69, 96
9, 169984, Note_off_c, 7, 69, 0
9, 169984, Note_on_c, 7, 67, 96
9, 169984, Note_off_c, 7, 60, 0
9, 169984, Note_on_c, 7, 64, 96
9, 170496, Note_off_c, 7, 67, 0
9, 170496, Note_on_c, 7, 69, 96
9, 170496, Note_off_c, 7, 64, 0
9, 170496, Note_on_c, 7, 65, 96
9, 171008, Note_off_c, 7, 69, 0
9, 171008, Note_on_c, 7, 72, 96
9, 171008, Note_off_c, 7, 65, 0
9, 171008, Note_on_c, 7, 60, 96
9, 171520, Note_off_c, 7, 72, 0
9, 171520, Note_on_c, 7, 71, 96
9, 171520, Note_off_c, 7, 60, 0
9, 171520, Note_on_c, 7, 62, 96
9, 172032, Note_off_c, 7, 71, 0
9, 172032, Note_off_c, 7, 62, 0
9, 172032, Note_on_c, 7, 72, 96
9, 172032, Note_on_c, 7, 55, 96
9, 173056, Note_off_c, 7, 72, 0
9, 173056, Note_off_c, 7, 55, 0
9, 179200, Note_on_c, 7, 65, 96
9, 179200, Note_on_c, 7, 65, 96
9, 179712, Note_off_c, 7, 65, 0
9, 179712, Note_on_c, 7, 72, 96
9, 179712, Note_off_c, 7, 65, 0
9, 179712, Note_on_c, 7, 65, 96
9, 180224, Note_off_c, 7, 72, 0
9, 180224, Note_on_c, 7, 75, 96
9, 180224, Note_off_c, 7, 65, 0
9, 180224, Note_on_c, 7, 72, 96
9, 180736, Note_off_c, 7, 75, 0
9, 180736, Note_on_c, 7, 74, 96
9, 180736, Note_off_c, 7, 72, 0
9, 180736, Note_on_c, 7, 70, 96
9, 181248, Note_off_c, 7, 74, 0
9, 181248, Note_on_c, 7, 72, 96
9, 181248, Note_off_c, 7, 70, 0
9, 181248, Note_on_c, 7, 65, 96
9, 181760, Note_off_c, 7, 72, 0
9, 181760, Note_on_c, 7, 75, 96
9, 181760, Note_off_c, 7, 65, 0
9, 181760, Note_on_c, 7, 72, 96
9, 182272, Note_off_c, 7, 75, 0
9, 182272, Note_on_c, 7, 74, 96
9, 182272, Note_off_c, 7, 72, 0
9, 182272, Note_on_c, 7, 70, 96
9, 182784, Note_off_c, 7, 74, 0
9, 182784, Note_on_c, 7, 72, 96
9, 182784, Note_off_c, 7, 70, 0
9, 182784, Note_on_c, 7, 65, 96
9, 183296, Note_off_c, 7, 72, 0
9, 183296, Note_on_c, 7, 74, 96
9, 183296, Note_off_c, 7, 65, 0
9, 183296, Note_on_c, 7, 69, 96
9, 183552, Note_off_c, 7, 74, 0
9, 183552, Note_on_c, 7, 72, 96
9, 183808, Note_off_c, 7, 72, 0
9, 183808, Note_on_c, 7, 70, 96
9, 183808, Note_off_c, 7, 69, 0
9, 183808, Note_on_c, 7, 66, 96
9, 184064, Note_off_c, 7, 70, 0
9, 184064, Note_on_c, 7, 69, 96
9, 184320, Note_off_c, 7, 69, 0
9, 184320, Note_off_c, 7, 66, 0
9, 184320, Note_on_c, 7, 70, 96
9, 184320, Note_on_c, 7, 62, 96
9, 184832, Note_off_c, 7, 70, 0
9, 184832, Note_on_c, 7, 72, 96
9, 185088, Note_off_c, 7, 72, 0
9, 185088, Note_on_c, 7, 70, 96
9, 185344, Note_off_c, 7, 70, 0
9, 185344, Note_on_c, 7, 69, 96
9, 185344, Note_off_c, 7, 62, 0
9, 185344, Note_on_c, 7, 60, 96
9, 185600, Note_off_c, 7, 69, 0
9, 185600, Note_on_c, 7, 67, 96
9, 185856, Note_off_c, 7, 67, 0
9, 185856, Note_on_c, 7, 69, 96
9, 185856, Note_off_c, 7, 60, 0
9, 185856, Note_on_c, 7, 60, 96
9, 186368, Note_off_c, 7, 69, 0
9, 186368, Note_on_c, 7, 65, 96
9, 186368, Note_off_c, 7, 60, 0
9, 186368, Note_on_c, 7, 57, 96
9, 186880, Note_off_c, 7, 65, 0
9, 186880, Note_on_c, 7, 67, 96
9, 186880, Note_off_c, 7, 57, 0
9, 186880, Note_on_c, 7, 60, 96
9, 187392, Note_off_c, 7, 67, 0
9, 187392, Note_on_c, 7, 69, 96
9, 187392, Note_off_c, 7, 60, 0
9, 187392, Note_on_c, 7, 65, 96
9, 187904, Note_off_c, 7, 69, 0
9, 187904, Note_on_c, 7, 65, 96
9, 187904, Note_off_c, 7, 65, 0
9, 187904, Note_on_c, 7, 57, 96
9, 188416, Note_off_c, 7, 65, 0
9, 188416, Note_on_c, 7, 67, 96
9, 188416, Note_off_c, 7, 57, 0
9, 188416, Note_on_c, 7, 60, 96
9, 188928, Note_off_c, 7, 67, 0
9, 188928, Note_on_c, 7, 69, 96
9, 188928, Note_off_c, 7, 60, 0
9, 188928, Note_on_c, 7, 65, 96
9, 189440, Note_off_c, 7, 69, 0
9, 189440, Note_on_c, 7, 67, 96
9, 189440, Note_off_c, 7, 65, 0
9, 189440, Note_on_c, 7, 64, 96
9, 189952, Note_off_c, 7, 67, 0
9, 189952, Note_on_c, 7, 69, 96
9, 189952, Note_off_c, 7, 64, 0
9, 189952, Note_on_c, 7, 65, 96
9, 190464, Note_off_c, 7, 69, 0
9, 190464, Note_off_c, 7, 65, 0
9, 190464, Note_on_c, 7, 67, 96
9, 190464, Note_on_c, 7, 64, 96
9, 191488, Note_off_c, 7, 67, 0
9, 191488, Note_on_c, 7, 65, 96
9, 191488, Note_off_c, 7, 64, 0
9, 191488, Note_on_c, 7, 60, 96
9, 192000, Note_off_c, 7, 65, 0
9, 192000, Note_on_c, 7, 72, 96
9, 192000, Note_off_c, 7, 60, 0
9, 192000, Note_on_c, 7, 69, 96
9, 193024, Note_off_c, 7, 72, 0
9, 193024, Note_on_c, 7, 74, 96
9, 193024, Note_off_c, 7, 69, 0
9, 193024, Note_on_c, 7, 70, 96
9, 193536, Note_off_c, 7, 74, 0
9, 193536, Note_on_c, 7, 70, 96
9, 193536, Note_off_c, 7, 70, 0
9, 193536, Note_on_c, 7, 67, 96
9, 194560, Note_off_c, 7, 70, 0
9, 194560, Note_on_c, 7, 69, 96
9, 194560, Note_off_c, 7, 67, 0
9, 194560, Note_on_c, 7, 65, 96
9, 195072, Note_off_c, 7, 69, 0
9, 195072, Note_on_c, 7, 70, 96
9, 195072, Note_off_c, 7, 65, 0
9, 195072, Note_on_c, 7, 67, 96
9, 195584, Note_off_c, 7, 70, 0
9, 195584, Note_on_c, 7, 67, 96
9, 195584, Note_off_c, 7, 67, 0
9, 195584, Note_on_c, 7, 60, 96
9, 196096, Note_off_c, 7, 67, 0
9, 196096, Note_on_c, 7, 69, 96
9, 196096, Note_off_c, 7, 60, 0
9, 196096, Note_on_c, 7, 65, 96
9, 196608, Note_off_c, 7, 69, 0
9, 196608, Note_off_c, 7, 65, 0
9, 196608, Note_on_c, 7, 69, 96
9, 196608, Note_on_c, 7, 65, 96
9, 197120, Note_off_c, 7, 69, 0
9, 197120, Note_on_c, 7, 72, 96
9, 197120, Note_off_c, 7, 65, 0
9, 197120, Note_on_c, 7, 69, 96
9, 197632, Note_off_c, 7, 72, 0
9, 197632, Note_on_c, 7, 69, 96
9, 197632, Note_off_c, 7, 69, 0
9, 197632, Note_on_c, 7, 65, 96
9, 198144, Note_off_c, 7, 69, 0
9, 198144, Note_on_c, 7, 69, 96
9, 198144, Note_off_c, 7, 65, 0
9, 198144, Note_on_c, 7, 65, 96
9, 198656, Note_off_c, 7, 69, 0
9, 198656, Note_on_c, 7, 72, 96
9, 198656, Note_off_c, 7, 65, 0
9, 198656, Note_on_c, 7, 69, 96
9, 199168, Note_off_c, 7, 72, 0
9, 199168, Note_on_c, 7, 69, 96
9, 199168, Note_off_c, 7, 69, 0
9, 199168, Note_on_c, 7, 65, 96
9, 199680, Note_off_c, 7, 69, 0
9, 199680, Note_on_c, 7, 65, 96
9, 199680, Note_off_c, 7, 65, 0
9, 199680, Note_on_c, 7, 60, 96
9, 200192, Note_off_c, 7, 65, 0
9, 200192, Note_on_c, 7, 69, 96
9, 200192, Note_off_c, 7, 60, 0
9, 200192, Note_on_c, 7, 65, 96
9, 200704, Note_off_c, 7, 69, 0
9, 200704, Note_on_c, 7, 72, 96
9, 200704, Note_off_c, 7, 65, 0
9, 200704, Note_on_c, 7, 69, 96
9, 201216, Note_off_c, 7, 72, 0
9, 201216, Note_on_c, 7, 69, 96
9, 201216, Note_off_c, 7, 69, 0
9, 201216, Note_on_c, 7, 65, 96
9, 201728, Note_off_c, 7, 69, 0
9, 201728, Note_on_c, 7, 72, 96
9, 201728, Note_off_c, 7, 65, 0
9, 201728, Note_on_c, 7, 69, 96
9, 202240, Note_off_c, 7, 72, 0
9, 202240, Note_on_c, 7, 77, 96
9, 202240, Note_off_c, 7, 69, 0
9, 202240, Note_on_c, 7, 72, 96
9, 202752, Note_off_c, 7, 77, 0
9, 202752, Note_off_c, 7, 72, 0
9, 202752, Note_on_c, 7, 74, 96
9, 202752, Note_on_c, 7, 70, 96
9, 203776, Note_off_c, 7, 74, 0
9, 203776, Note_on_c, 7, 65, 96
9, 203776, Note_off_c, 7, 70, 0
9, 204288, Note_off_c, 7, 65, 0
9, 204288, Note_on_c, 7, 70, 96
9, 205312, Note_on_c, 7, 62, 96
9, 205824, Note_off_c, 7, 62, 0
9, 205824, Note_on_c, 7, 67, 96
9, 206336, Note_off_c, 7, 70, 0
9, 206336, Note_on_c, 7, 69, 96
9, 206848, Note_off_c, 7, 69, 0
9, 206848, Note_on_c, 7, 67, 96
9, 207360, Note_on_c, 7, 69, 96
9, 207360, Note_off_c, 7, 67, 0
9, 207872, Note_off_c, 7, 67, 0
9, 207872, Note_on_c, 7, 65, 96
9, 208384, Note_off_c, 7, 65, 0
9, 208384, Note_on_c, 7, 63, 96
9, 208896, Note_off_c, 7, 63, 0
9, 208896, Note_on_c, 7, 62, 96
9, 209408, Note_off_c, 7, 69, 0
9, 209408, Note_on_c, 7, 67, 96
9, 209920, Note_off_c, 7, 67, 0
9, 209920, Note_on_c, 7, 65, 96
9, 209920, Note_off_c, 7, 62, 0
9, 209920, Note_on_c, 7, 62, 96
9, 210432, Note_off_c, 7, 65, 0
9, 210432, Note_on_c, 7, 67, 96
9, 210432, Note_off_c, 7, 62, 0
9, 210432, Note_on_c, 7, 61, 96
9, 210944, Note_off_c, 7, 61, 0
9, 210944, Note_on_c, 7, 62, 96
9, 211456, Note_off_c, 7, 62, 0
9, 211456, Note_on_c, 7, 64, 96
9, 211968, Note_off_c, 7, 64, 0
9, 211968, Note_on_c, 7, 64, 96
9, 212480, Note_off_c, 7, 67, 0
9, 212480, Note_on_c, 7, 65, 96
9, 212992, Note_off_c, 7, 65, 0
9, 212992, Note_on_c, 7, 64, 96
9, 212992, Note_off_c, 7, 64, 0
9, 212992, Note_on_c, 7, 57, 96
9, 213504, Note_off_c, 7, 64, 0
9, 213504, Note_on_c, 7, 65, 96
9, 213504, Note_off_c, 7, 57, 0
9, 213504, Note_on_c, 7, 62, 96
9, 215552, Note_off_c, 7, 65, 0
9, 215552, Note_on_c, 7, 67, 96
9, 215552, Note_off_c, 7, 62, 0
9, 215552, Note_on_c, 7, 64, 96
9, 216064, Note_off_c, 7, 67, 0
9, 216064, Note_on_c, 7, 69, 96
9, 216064, Note_off_c, 7, 64, 0
9, 216064, Note_on_c, 7, 65, 96
9, 216576, Note_off_c, 7, 69, 0
9, 216576, Note_on_c, 7, 70, 96
9, 216576, Note_off_c, 7, 65, 0
9, 216576, Note_on_c, 7, 67, 96
9, 217600, Note_off_c, 7, 67, 0
9, 217600, Note_on_c, 7, 65, 96
9, 218112, Note_off_c, 7, 65, 0
9, 218112, Note_on_c, 7, 64, 96
9, 218624, Note_off_c, 7, 70, 0
9, 218624, Note_on_c, 7, 67, 96
9, 219136, Note_off_c, 7, 67, 0
9, 219136, Note_on_c, 7, 65, 96
9, 219136, Note_off_c, 7, 64, 0
9, 219136, Note_on_c, 7, 62, 96
9, 219648, Note_off_c, 7, 65, 0
9, 219648, Note_on_c, 7, 64, 96
9, 219648, Note_off_c, 7, 62, 0
9, 219648, Note_on_c, 7, 60, 96
9, 221184, Note_off_c, 7, 64, 0
9, 221184, Note_on_c, 7, 65, 96
9, 222208, Note_off_c, 7, 65, 0
9, 222208, Note_on_c, 7, 69, 96
9, 222208, Note_off_c, 7, 60, 0
9, 222208, Note_on_c, 7, 53, 96
9, 222720, Note_off_c, 7, 69, 0
9, 222720, Note_on_c, 7, 72, 96
9, 222720, Note_off_c, 7, 53, 0
9, 222720, Note_on_c, 7, 63, 96
9, 223744, Note_off_c, 7, 63, 0
9, 223744, Note_on_c, 7, 65, 96
9, 224256, Note_off_c, 7, 65, 0
9, 224256, Note_on_c, 7, 63, 96
9, 224768, Note_off_c, 7, 72, 0
9, 224768, Note_on_c, 7, 70, 96
9, 224768, Note_off_c, 7, 63, 0
9, 224768, Note_on_c, 7, 62, 96
9, 225280, Note_off_c, 7, 70, 0
9, 225280, Note_on_c, 7, 69, 96
9, 225280, Note_off_c, 7, 62, 0
9, 225280, Note_on_c, 7, 60, 96
9, 225792, Note_off_c, 7, 69, 0
9, 225792, Note_on_c, 7, 70, 96
9, 225792, Note_off_c, 7, 60, 0
9, 225792, Note_on_c, 7, 62, 96
9, 226304, Note_off_c, 7, 70, 0
9, 226304, Note_on_c, 7, 67, 96
9, 226304, Note_off_c, 7, 62, 0
9, 226304, Note_on_c, 7, 58, 96
9, 226816, Note_off_c, 7, 67, 0
9, 226816, Note_on_c, 7, 69, 96
9, 226816, Note_off_c, 7, 58, 0
9, 226816, Note_on_c, 7, 60, 96
9, 227328, Note_off_c, 7, 69, 0
9, 227328, Note_off_c, 7, 60, 0
9, 227328, Note_on_c, 7, 69, 96
9, 227328, Note_on_c, 7, 60, 96
9, 228352, Note_off_c, 7, 69, 0
9, 228352, Note_off_c, 7, 60, 0
9, 234496, Note_on_c, 7, 69, 96
9, 234496, Note_on_c, 7, 65, 96
9, 235008, Note_off_c, 7, 69, 0
9, 235008, Note_on_c, 7, 69, 96
9, 235008, Note_off_c, 7, 65, 0
9, 235008, Note_on_c, 7, 65, 96
9, 235520, Note_off_c, 7, 69, 0
9, 235520, Note_on_c, 7, 72, 96
9, 235520, Note_off_c, 7, 65, 0
9, 235520, Note_on_c, 7, 69, 96
9, 236032, Note_off_c, 7, 72, 0
9, 236032, Note_on_c, 7, 69, 96
9, 236032, Note_off_c, 7, 69, 0
9, 236032, Note_on_c, 7, 65, 96
9, 236544, Note_off_c, 7, 69, 0
9, 236544, Note_on_c, 7, 65, 96
9, 236544, Note_off_c, 7, 65, 0
9, 236544, Note_on_c, 7, 60, 96
9, 237056, Note_off_c, 7, 65, 0
9, 237056, Note_on_c, 7, 69, 96
9, 237056, Note_off_c, 7, 60, 0
9, 237056, Note_on_c, 7, 65, 96
9, 237568, Note_off_c, 7, 69, 0
9, 237568, Note_on_c, 7, 72, 96
9, 237568, Note_off_c, 7, 65, 0
9, 237568, Note_on_c, 7, 69, 96
9, 238080, Note_off_c, 7, 72, 0
9, 238080, Note_on_c, 7, 69, 96
9, 238080, Note_off_c, 7, 69, 0
9, 238080, Note_on_c, 7, 65, 96
9, 238592, Note_off_c, 7, 69, 0
9, 238592, Note_on_c, 7, 72, 96
9, 238592, Note_off_c, 7, 65, 0
9, 238592, Note_on_c, 7, 69, 96
9, 239104, Note_off_c, 7, 72, 0
9, 239104, Note_on_c, 7, 77, 96
9, 239104, Note_off_c, 7, 69, 0
9, 239104, Note_on_c, 7, 72, 96
9, 239616, Note_off_c, 7, 77, 0
9, 239616, Note_off_c, 7, 72, 0
9, 239616, Note_on_c, 7, 77, 96
9, 239616, Note_on_c, 7, 72, 96
9, 240640, Note_off_c, 7, 77, 0
9, 240640, Note_on_c, 7, 60, 96
9, 240640, Note_off_c, 7, 72, 0
9, 241152, Note_off_c, 7, 60, 0
9, 241152, Note_on_c, 7, 67, 96
9, 242176, Note_off_c, 7, 67, 0
9, 242176, Note_on_c, 7, 69, 96
9, 242688, Note_off_c, 7, 69, 0
9, 242688, Note_on_c, 7, 65, 96
9, 243712, Note_off_c, 7, 65, 0
9, 243712, Note_on_c, 7, 64, 96
9, 244224, Note_off_c, 7, 64, 0
9, 244224, Note_on_c, 7, 65, 96
9, 244736, Note_off_c, 7, 65, 0
9, 244736, Note_on_c, 7, 62, 96
9, 245248, Note_off_c, 7, 62, 0
9, 245248, Note_on_c, 7, 64, 96
9, 245760, Note_off_c, 7, 64, 0
9, 245760, Note_on_c, 7, 64, 96
9, 246272, Note_off_c, 7, 64, 0
9, 246272, Note_on_c, 7, 60, 96
9, 246784, Note_off_c, 7, 60, 0
9, 246784, Note_on_c, 7, 64, 96
9, 246784, Note_on_c, 7, 60, 96
9, 247296, Note_off_c, 7, 64, 0
9, 247296, Note_on_c, 7, 67, 96
9, 247296, Note_off_c, 7, 60, 0
9, 247296, Note_on_c, 7, 64, 96
9, 247808, Note_off_c, 7, 67, 0
9, 247808, Note_on_c, 7, 64, 96
9, 247808, Note_off_c, 7, 64, 0
9, 247808, Note_on_c, 7, 60, 96
9, 248320, Note_off_c, 7, 64, 0
9, 248320, Note_on_c, 7, 67, 96
9, 248320, Note_off_c, 7, 60, 0
9, 248320, Note_on_c, 7, 64, 96
9, 248832, Note_off_c, 7, 67, 0
9, 248832, Note_on_c, 7, 72, 96
9, 248832, Note_off_c, 7, 64, 0
9, 248832, Note_on_c, 7, 67, 96
9, 249344, Note_off_c, 7, 72, 0
9, 249344, Note_on_c, 7, 67, 96
9, 249344, Note_off_c, 7, 67, 0
9, 249344, Note_on_c, 7, 64, 96
9, 249856, Note_off_c, 7, 67, 0
9, 249856, Note_on_c, 7, 67, 96
9, 249856, Note_off_c, 7, 64, 0
9, 249856, Note_on_c, 7, 64, 96
9, 250368, Note_off_c, 7, 67, 0
9, 250368, Note_on_c, 7, 67, 96
9, 250368, Note_off_c, 7, 64, 0
9, 250368, Note_on_c, 7, 64, 96
9, 250880, Note_off_c, 7, 67, 0
9, 250880, Note_on_c, 7, 64, 96
9, 250880, Note_off_c, 7, 64, 0
9, 250880, Note_on_c, 7, 60, 96
9, 251392, Note_off_c, 7, 64, 0
9, 251392, Note_on_c, 7, 64, 96
9, 251392, Note_off_c, 7, 60, 0
9, 251392, Note_on_c, 7, 60, 96
9, 251904, Note_off_c, 7, 64, 0
9, 251904, Note_off_c, 7, 60, 0
9, 251904, Note_on_c, 7, 64, 96
9, 251904, Note_on_c, 7, 60, 96
9, 252928, Note_off_c, 7, 64, 0
9, 252928, Note_off_c, 7, 60, 0
9, 259072, Note_on_c, 7, 65, 96
9, 259072, Note_on_c, 7, 65, 96
9, 259584, Note_off_c, 7, 65, 0
9, 259584, Note_on_c, 7, 72, 96
9, 259584, Note_off_c, 7, 65, 0
9, 259584, Note_on_c, 7, 65, 96
9, 260096, Note_off_c, 7, 72, 0
9, 260096, Note_on_c, 7, 75, 96
9, 260096, Note_off_c, 7, 65, 0
9, 260096, Note_on_c, 7, 72, 96
9, 260608, Note_off_c, 7, 75, 0
9, 260608, Note_on_c, 7, 74, 96
9, 260608, Note_off_c, 7, 72, 0
9, 260608, Note_on_c, 7, 70, 96
9, 261120, Note_off_c, 7, 74, 0
9, 261120, Note_on_c, 7, 72, 96
9, 261120, Note_off_c, 7, 70, 0
9, 261120, Note_on_c, 7, 65, 96
9, 261632, Note_off_c, 7, 72, 0
9, 261632, Note_on_c, 7, 75, 96
9, 261632, Note_off_c, 7, 65, 0
9, 261632, Note_on_c, 7, 72, 96
9, 262144, Note_off_c, 7, 75, 0
9, 262144, Note_on_c, 7, 74, 96
9, 262144, Note_off_c, 7, 72, 0
9, 262144, Note_on_c, 7, 70, 96
9, 262656, Note_off_c, 7, 74, 0
9, 262656, Note_on_c, 7, 72, 96
9, 262656, Note_off_c, 7, 70, 0
9, 262656, Note_on_c, 7, 65, 96
9, 263168, Note_off_c, 7, 72, 0
9, 263168, Note_on_c, 7, 74, 96
9, 263168, Note_off_c, 7, 65, 0
9, 263168, Note_on_c, 7, 69, 96
9, 263424, Note_off_c, 7, 74, 0
9, 263424, Note_on_c, 7, 72, 96
9, 263680, Note_off_c, 7, 72, 0
9, 263680, Note_on_c, 7, 70, 96
9, 263680, Note_off_c, 7, 69, 0
9, 263680, Note_on_c, 7, 66, 96
9, 263936, Note_off_c, 7, 70, 0
9, 263936, Note_on_c, 7, 69, 96
9, 264192, Note_off_c, 7, 69, 0
9, 264192, Note_off_c, 7, 66, 0
9, 264192, Note_on_c, 7, 70, 96
9, 264192, Note_on_c, 7, 62, 96
9, 264704, Note_off_c, 7, 70, 0
9, 264704, Note_on_c, 7, 72, 96
9, 264960, Note_off_c, 7, 72, 0
9, 264960, Note_on_c, 7, 70, 96
9, 265216, Note_off_c, 7, 70, 0
9, 265216, Note_on_c, 7, 69, 96
9, 265216, Note_off_c, 7, 62, 0
9, 265216, Note_on_c, 7, 60, 96
9, 265472, Note_off_c, 7, 69, 0
9, 265472, Note_on_c, 7, 67, 96
9, 265728, Note_off_c, 7, 67, 0
9, 265728, Note_on_c, 7, 69, 96
9, 265728, Note_off_c, 7, 60, 0
9, 265728, Note_on_c, 7, 60, 96
9, 266240, Note_off_c, 7, 69, 0
9, 266240, Note_on_c, 7, 65, 96
9, 266240, Note_off_c, 7, 60, 0
9, 266240, Note_on_c, 7, 57, 96
9, 266752, Note_off_c, 7, 65, 0
9, 266752, Note_on_c, 7, 67, 96
9, 266752, Note_off_c, 7, 57, 0
9, 266752, Note_on_c, 7, 60, 96
9, 267264, Note_off_c, 7, 67, 0
9, 267264, Note_on_c, 7, 69, 96
9, 267264, Note_off_c, 7, 60, 0
9, 267264, Note_on_c, 7, 65, 96
9, 267776, Note_off_c, 7, 69, 0
9, 267776, Note_on_c, 7, 65, 96
9, 267776, Note_off_c, 7, 65, 0
9, 267776, Note_on_c, 7, 57, 96
9, 268288, Note_off_c, 7, 65, 0
9, 268288, Note_on_c, 7, 67, 96
9, 268288, Note_off_c, 7, 57, 0
9, 268288, Note_on_c, 7, 60, 96
9, 268800, Note_off_c, 7, 67, 0
9, 268800, Note_on_c, 7, 69, 96
9, 268800, Note_off_c, 7, 60, 0
9, 268800, Note_on_c, 7, 65, 96
9, 269312, Note_off_c, 7, 69, 0
9, 269312, Note_on_c, 7, 67, 96
9, 269312, Note_off_c, 7, 65, 0
9, 269312, Note_on_c, 7, 64, 96
9, 269824, Note_off_c, 7, 67, 0
9, 269824, Note_on_c, 7, 69, 96
9, 269824, Note_off_c, 7, 64, 0
9, 269824, Note_on_c, 7, 65, 96
9, 270336, Note_off_c, 7, 69, 0
9, 270336, Note_off_c, 7, 65, 0
9, 270336, Note_on_c, 7, 67, 96
9, 270336, Note_on_c, 7, 64, 96
9, 271360, Note_off_c, 7, 67, 0
9, 271360, Note_on_c, 7, 65, 96
9, 271360, Note_off_c, 7, 64, 0
9, 271360, Note_on_c, 7, 62, 96
9, 271872, Note_off_c, 7, 65, 0
9, 271872, Note_on_c, 7, 72, 96
9, 271872, Note_off_c, 7, 62, 0
9, 271872, Note_on_c, 7, 69, 96
9, 272896, Note_off_c, 7, 72, 0
9, 272896, Note_on_c, 7, 74, 96
9, 272896, Note_off_c, 7, 69, 0
9, 272896, Note_on_c, 7, 70, 96
9, 273408, Note_off_c, 7, 74, 0
9, 273408, Note_on_c, 7, 70, 96
9, 273408, Note_off_c, 7, 70, 0
9, 273408, Note_on_c, 7, 67, 96
9, 274432, Note_off_c, 7, 70, 0
9, 274432, Note_on_c, 7, 69, 96
9, 274432, Note_off_c, 7, 67, 0
9, 274432, Note_on_c, 7, 65, 96
9, 274944, Note_off_c, 7, 69, 0
9, 274944, Note_on_c, 7, 70, 96
9, 274944, Note_off_c, 7, 65, 0
9, 274944, Note_on_c, 7, 67, 96
9, 275456, Note_off_c, 7, 70, 0
9, 275456, Note_on_c, 7, 67, 96
9, 275456, Note_off_c, 7, 67, 0
9, 275456, Note_on_c, 7, 60, 96
9, 275968, Note_off_c, 7, 67, 0
9, 275968, Note_on_c, 7, 69, 96
9, 275968, Note_off_c, 7, 60, 0
9, 275968, Note_on_c, 7, 65, 96
9, 276480, Note_off_c, 7, 69, 0
9, 276480, Note_off_c, 7, 65, 0
9, 276480, Note_on_c, 7, 69, 96
9, 276480, Note_on_c, 7, 65, 96
9, 277504, Note_off_c, 7, 69, 0
9, 277504, Note_on_c, 7, 74, 96
9, 277504, Note_off_c, 7, 65, 0
9, 277504, Note_on_c, 7, 65, 96
9, 278016, Note_off_c, 7, 74, 0
9, 278016, Note_on_c, 7, 67, 96
9, 278016, Note_off_c, 7, 65, 0
9, 278016, Note_on_c, 7, 64, 96
9, 279040, Note_off_c, 7, 67, 0
9, 279040, Note_on_c, 7, 72, 96
9, 279040, Note_off_c, 7, 64, 0
9, 279040, Note_on_c, 7, 69, 96
9, 279552, Note_off_c, 7, 72, 0
9, 279552, Note_on_c, 7, 65, 96
9, 279552, Note_off_c, 7, 69, 0
9, 279552, Note_on_c, 7, 62, 96
9, 280576, Note_off_c, 7, 65, 0
9, 280576, Note_on_c, 7, 70, 96
9, 280576, Note_off_c, 7, 62, 0
9, 280576, Note_on_c, 7, 67, 96
9, 281088, Note_off_c, 7, 70, 0
9, 281088, Note_on_c, 7, 64, 96
9, 281088, Note_off_c, 7, 67, 0
9, 281088, Note_on_c, 7, 60, 96
9, 282112, Note_off_c, 7, 64, 0
9, 282112, Note_on_c, 7, 69, 96
9, 282112, Note_off_c, 7, 60, 0
9, 282112, Note_on_c, 7, 65, 96
9, 282624, Note_off_c, 7, 69, 0
9, 282624, Note_off_c, 7, 65, 0
9, 282624, Note_on_c, 7, 62, 96
9, 282624, Note_on_c, 7, 58, 96
9, 283648, Note_off_c, 7, 62, 0
9, 283648, Note_on_c, 7, 67, 96
9, 283648, Note_off_c, 7, 58, 0
9, 283648, Note_on_c, 7, 60, 96
9, 284160, Note_off_c, 7, 67, 0
9, 284160, Note_on_c, 7, 60, 96
9, 284160, Note_off_c, 7, 60, 0
9, 284160, Note_on_c, 7, 57, 96
9, 285184, Note_off_c, 7, 60, 0
9, 285184, Note_on_c, 7, 65, 96
9, 285184, Note_off_c, 7, 57, 0
9, 285184, Note_on_c, 7, 59, 96
9, 285696, Note_off_c, 7, 65, 0
9, 285696, Note_on_c, 7, 64, 96
9, 285696, Note_off_c, 7, 59, 0
9, 285696, Note_on_c, 7, 55, 96
9, 286208, Note_off_c, 7, 64, 0
9, 286208, Note_on_c, 7, 65, 96
9, 286720, Note_off_c, 7, 65, 0
9, 286720, Note_on_c, 7, 67, 96
9, 286720, Note_off_c, 7, 55, 0
9, 286720, Note_on_c, 7, 64, 96
9, 287232, Note_off_c, 7, 67, 0
9, 287232, Note_on_c, 7, 64, 96
9, 287232, Note_off_c, 7, 64, 0
9, 287232, Note_on_c, 7, 60, 96
9, 287744, Note_off_c, 7, 64, 0
9, 287744, Note_on_c, 7, 65, 96
9, 288256, Note_off_c, 7, 65, 0
9, 288256, Note_on_c, 7, 67, 96
9, 288256, Note_off_c, 7, 60, 0
9, 288256, Note_on_c, 7, 64, 96
9, 288768, Note_off_c, 7, 67, 0
9, 288768, Note_off_c, 7, 64, 0
9, 288768, Note_on_c, 7, 65, 96
9, 288768, Note_on_c, 7, 60, 96
9, 289280, Note_off_c, 7, 65, 0
9, 289280, Note_on_c, 7, 69, 96
9, 289280, Note_off_c, 7, 60, 0
9, 289280, Note_on_c, 7, 65, 96
9, 289792, Note_off_c, 7, 69, 0
9, 289792, Note_on_c, 7, 65, 96
9, 289792, Note_off_c, 7, 65, 0
9, 289792, Note_on_c, 7, 60, 96
9, 290304, Note_off_c, 7, 65, 0
9, 290304, Note_on_c, 7, 60, 96
9, 290304, Note_off_c, 7, 60, 0
9, 290304, Note_on_c, 7, 57, 96
9, 291328, Note_off_c, 7, 60, 0
9, 291328, Note_on_c, 7, 65, 96
9, 291328, Note_off_c, 7, 57, 0
9, 291328, Note_on_c, 7, 60, 96
9, 291840, Note_off_c, 7, 65, 0
9, 291840, Note_on_c, 7, 64, 96
9, 291840, Note_off_c, 7, 60, 0
9, 291840, Note_on_c, 7, 58, 96
9, 292352, Note_off_c, 7, 64, 0
9, 292352, Note_on_c, 7, 65, 96
9, 292864, Note_off_c, 7, 65, 0
9, 292864, Note_on_c, 7, 67, 96
9, 292864, Note_off_c, 7, 58, 0
9, 292864, Note_on_c, 7, 58, 96
9, 293376, Note_off_c, 7, 67, 0
9, 293376, Note_on_c, 7, 64, 96
9, 293376, Note_off_c, 7, 58, 0
9, 293376, Note_on_c, 7, 55, 96
9, 293888, Note_off_c, 7, 64, 0
9, 293888, Note_on_c, 7, 65, 96
9, 293888, Note_off_c, 7, 55, 0
9, 293888, Note_on_c, 7, 57, 96
9, 294400, Note_off_c, 7, 65, 0
9, 294400, Note_on_c, 7, 67, 96
9, 294400, Note_off_c, 7, 57, 0
9, 294400, Note_on_c, 7, 58, 96
9, 294912, Note_off_c, 7, 67, 0
9, 294912, Note_off_c, 7, 58, 0
9, 294912, Note_on_c, 7, 65, 96
9, 294912, Note_on_c, 7, 57, 96
9, 295936, Note_off_c, 7, 65, 0
9, 295936, Note_on_c, 7, 60, 96
9, 295936, Note_off_c, 7, 57, 0
9, 296448, Note_off_c, 7, 60, 0
9, 296448, Note_on_c, 7, 65, 96
9, 297472, Note_on_c, 7, 58, 96
9, 297984, Note_off_c, 7, 58, 0
9, 297984, Note_on_c, 7, 57, 96
9, 298496, Note_off_c, 7, 65, 0
9, 298496, Note_on_c, 7, 70, 96
9, 299008, Note_off_c, 7, 70, 0
9, 299008, Note_on_c, 7, 67, 96
9, 299008, Note_off_c, 7, 57, 0
9, 299008, Note_on_c, 7, 62, 96
9, 299520, Note_off_c, 7, 67, 0
9, 299520, Note_on_c, 7, 64, 96
9, 299520, Note_off_c, 7, 62, 0
9, 299520, Note_on_c, 7, 60, 96
9, 300032, Note_off_c, 7, 60, 0
9, 300032, Note_on_c, 7, 58, 96
9, 300288, Note_off_c, 7, 58, 0
9, 300288, Note_on_c, 7, 57, 96
9, 300544, Note_off_c, 7, 64, 0
9, 300544, Note_on_c, 7, 65, 96
9, 300544, Note_off_c, 7, 57, 0
9, 300544, Note_on_c, 7, 58, 96
9, 301056, Note_off_c, 7, 65, 0
9, 301056, Note_off_c, 7, 58, 0
9, 301056, Note_on_c, 7, 65, 96
9, 301056, Note_on_c, 7, 57, 96
9, 302080, Note_off_c, 7, 65, 0
9, 302080, Note_on_c, 7, 69, 96
9, 302080, Note_off_c, 7, 57, 0
9, 302080, Note_on_c, 7, 65, 96
9, 302592, Note_off_c, 7, 69, 0
9, 302592, Note_on_c, 7, 69, 96
9, 302592, Note_off_c, 7, 65, 0
9, 302592, Note_on_c, 7, 65, 96
9, 303104, Note_off_c, 7, 69, 0
9, 303104, Note_on_c, 7, 72, 96
9, 303104, Note_off_c, 7, 65, 0
9, 303104, Note_on_c, 7, 69, 96
9, 303616, Note_off_c, 7, 72, 0
9, 303616, Note_on_c, 7, 69, 96
9, 303616, Note_off_c, 7, 69, 0
9, 303616, Note_on_c, 7, 65, 96
9, 304128, Note_off_c, 7, 69, 0
9, 304128, Note_on_c, 7, 65, 96
9, 304128, Note_off_c, 7, 65, 0
9, 304128, Note_on_c, 7, 60, 96
9, 304640, Note_off_c, 7, 65, 0
9, 304640, Note_on_c, 7, 69, 96
9, 304640, Note_off_c, 7, 60, 0
9, 304640, Note_on_c, 7, 65, 96
9, 305152, Note_off_c, 7, 69, 0
9, 305152, Note_on_c, 7, 72, 96
9, 305152, Note_off_c, 7, 65, 0
9, 305152, Note_on_c, 7, 69, 96
9, 305664, Note_off_c, 7, 72, 0
9, 305664, Note_on_c, 7, 69, 96
9, 305664, Note_off_c, 7, 69, 0
9, 305664, Note_on_c, 7, 65, 96
9, 306176, Note_off_c, 7, 69, 0
9, 306176, Note_on_c, 7, 72, 96
9, 306176, Note_off_c, 7, 65, 0
9, 306176, Note_on_c, 7, 69, 96
9, 306688, Note_off_c, 7, 72, 0
9, 306688, Note_on_c, 7, 77, 96
9, 306688, Note_off_c, 7, 69, 0
9, 306688, Note_on_c, 7, 72, 96
9, 307200, Note_off_c, 7, 77, 0
9, 307200, Note_off_c, 7, 72, 0
9, 307200, Note_on_c, 7, 77, 96
9, 307200, Note_on_c, 7, 69, 96
9, 308224, Note_off_c, 7, 77, 0
9, 308224, Note_off_c, 7, 69, 0
9, 308224, Note_on_c, 7, 60, 96
9, 308736, Note_off_c, 7, 60, 0
9, 308736, Note_on_c, 7, 65, 96
9, 309760, Note_off_c, 7, 65, 0
9, 309760, Note_on_c, 7, 67, 96
9, 310272, Note_off_c, 7, 67, 0
9, 310272, Note_on_c, 7, 63, 96
9, 311296, Note_off_c, 7, 63, 0
9, 311296, Note_on_c, 7, 62, 96
9, 311808, Note_off_c, 7, 62, 0
9, 311808, Note_on_c, 7, 63, 96
9, 312320, Note_off_c, 7, 63, 0
9, 312320, Note_on_c, 7, 67, 96
9, 312832, Note_off_c, 7, 67, 0
9, 312832, Note_on_c, 7, 65, 96
9, 313344, Note_off_c, 7, 65, 0
9, 313344, Note_on_c, 7, 62, 96
9, 314368, Note_off_c, 7, 62, 0
9, 314368, Note_on_c, 7, 60, 96
9, 314880, Note_off_c, 7, 60, 0
9, 314880, Note_on_c, 7, 62, 96
9, 315392, Note_off_c, 7, 62, 0
9, 315392, Note_on_c, 7, 65, 96
9, 315904, Note_off_c, 7, 65, 0
9, 315904, Note_on_c, 7, 63, 96
9, 316416, Note_off_c, 7, 63, 0
9, 316416, Note_on_c, 7, 60, 96
9, 317440, Note_on_c, 7, 65, 96
9, 317440, Note_off_c, 7, 60, 0
9, 317440, Note_on_c, 7, 65, 96
9, 317952, Note_off_c, 7, 65, 0
9, 317952, Note_on_c, 7, 70, 96
9, 317952, Note_off_c, 7, 65, 0
9, 317952, Note_on_c, 7, 65, 96
9, 318464, Note_off_c, 7, 65, 0
9, 318464, Note_on_c, 7, 67, 96
9, 318976, Note_off_c, 7, 70, 0
9, 318976, Note_on_c, 7, 72, 96
9, 318976, Note_off_c, 7, 67, 0
9, 318976, Note_on_c, 7, 64, 96
9, 319488, Note_off_c, 7, 72, 0
9, 319488, Note_off_c, 7, 64, 0
9, 319488, Note_on_c, 7, 69, 96
9, 319488, Note_on_c, 7, 65, 96
9, 320512, Note_off_c, 7, 69, 0
9, 320512, Note_on_c, 7, 67, 96
9, 320512, Note_off_c, 7, 65, 0
9, 320512, Note_on_c, 7, 67, 96
9, 321024, Note_off_c, 7, 67, 0
9, 321024, Note_on_c, 7, 69, 96
9, 321024, Note_off_c, 7, 67, 0
9, 321024, Note_on_c, 7, 65, 96
9, 321536, Note_off_c, 7, 69, 0
9, 321536, Note_on_c, 7, 72, 96
9, 321536, Note_off_c, 7, 65, 0
9, 321536, Note_on_c, 7, 64, 96
9, 322048, Note_off_c, 7, 72, 0
9, 322048, Note_on_c, 7, 71, 96
9, 322048, Note_off_c, 7, 64, 0
9, 322048, Note_on_c, 7, 62, 96
9, 322560, Note_off_c, 7, 71, 0
9, 322560, Note_on_c, 7, 67, 96
9, 322560, Note_off_c, 7, 62, 0
9, 322560, Note_on_c, 7, 62, 96
9, 323072, Note_off_c, 7, 62, 0
9, 323072, Note_on_c, 7, 67, 96
9, 323584, Note_off_c, 7, 67, 0
9, 323584, Note_on_c, 7, 62, 96
9, 323584, Note_off_c, 7, 67, 0
9, 323584, Note_on_c, 7, 67, 96
9, 324096, Note_off_c, 7, 62, 0
9, 324096, Note_on_c, 7, 65, 96
9, 324096, Note_off_c, 7, 67, 0
9, 324096, Note_on_c, 7, 62, 96
9, 324608, Note_off_c, 7, 65, 0
9, 324608, Note_on_c, 7, 69, 96
9, 324608, Note_off_c, 7, 62, 0
9, 324608, Note_on_c, 7, 65, 96
9, 325120, Note_off_c, 7, 69, 0
9, 325120, Note_on_c, 7, 67, 96
9, 325120, Note_off_c, 7, 65, 0
9, 325120, Note_on_c, 7, 65, 96
9, 325632, Note_off_c, 7, 67, 0
9, 325632, Note_off_c, 7, 65, 0
9, 325632, Note_on_c, 7, 67, 96
9, 325632, Note_on_c, 7, 64, 96
9, 326656, Note_off_c, 7, 67, 0
9, 326656, Note_on_c, 7, 60, 96
9, 326656, Note_off_c, 7, 64, 0
9, 326656, Note_on_c, 7, 67, 96
9, 327168, Note_off_c, 7, 60, 0
9, 327168, Note_on_c, 7, 67, 96
9, 327168, Note_off_c, 7, 67, 0
9, 327168, Note_on_c, 7, 64, 96
9, 327680, Note_off_c, 7, 64, 0
9, 327680, Note_on_c, 7, 60, 96
9, 328192, Note_off_c, 7, 67, 0
9, 328192, Note_on_c, 7, 64, 96
9, 328192, Note_off_c, 7, 60, 0
9, 328192, Note_on_c, 7, 67, 96
9, 328704, Note_off_c, 7, 64, 0
9, 328704, Note_on_c, 7, 60, 96
9, 328704, Note_off_c, 7, 67, 0
9, 328704, Note_on_c, 7, 69, 96
9, 329728, Note_off_c, 7, 60, 0
9, 329728, Note_on_c, 7, 70, 96
9, 329728, Note_off_c, 7, 69, 0
9, 329728, Note_on_c, 7, 60, 96
9, 330240, Note_off_c, 7, 70, 0
9, 330240, Note_on_c, 7, 69, 96
9, 330240, Note_off_c, 7, 60, 0
9, 330240, Note_on_c, 7, 60, 96
9, 330752, Note_off_c, 7, 69, 0
9, 330752, Note_on_c, 7, 67, 96
9, 330752, Note_off_c, 7, 60, 0
9, 330752, Note_on_c, 7, 64, 96
9, 331264, Note_off_c, 7, 67, 0
9, 331264, Note_on_c, 7, 69, 96
9, 331264, Note_off_c, 7, 64, 0
9, 331264, Note_on_c, 7, 65, 96
9, 331776, Note_off_c, 7, 69, 0
9, 331776, Note_off_c, 7, 65, 0
9, 331776, Note_on_c, 7, 67, 96
9, 331776, Note_on_c, 7, 64, 96
9, 332800, Note_off_c, 7, 67, 0
9, 332800, Note_off_c, 7, 64, 0
9, 338944, Note_on_c, 7, 64, 96
9, 338944, Note_on_c, 7, 60, 96
9, 339456, Note_off_c, 7, 64, 0
9, 339456, Note_on_c, 7, 67, 96
9, 339456, Note_off_c, 7, 60, 0
9, 339456, Note_on_c, 7, 64, 96
9, 339968, Note_off_c, 7, 67, 0
9, 339968, Note_on_c, 7, 64, 96
9, 339968, Note_off_c, 7, 64, 0
9, 339968, Note_on_c, 7, 60, 96
9, 340480, Note_off_c, 7, 64, 0
9, 340480, Note_on_c, 7, 67, 96
9, 340480, Note_off_c, 7, 60, 0
9, 340480, Note_on_c, 7, 64, 96
9, 340992, Note_off_c, 7, 67, 0
9, 340992, Note_on_c, 7, 72, 96
9, 340992, Note_off_c, 7, 64, 0
9, 340992, Note_on_c, 7, 67, 96
9, 341504, Note_off_c, 7, 72, 0
9, 341504, Note_on_c, 7, 67, 96
9, 341504, Note_off_c, 7, 67, 0
9, 341504, Note_on_c, 7, 64, 96
9, 342016, Note_off_c, 7, 67, 0
9, 342016, Note_on_c, 7, 67, 96
9, 342016, Note_off_c, 7, 64, 0
9, 342016, Note_on_c, 7, 64, 96
9, 342528, Note_off_c, 7, 67, 0
9, 342528, Note_on_c, 7, 67, 96
9, 342528, Note_off_c, 7, 64, 0
9, 342528, Note_on_c, 7, 64, 96
9, 343040, Note_off_c, 7, 67, 0
9, 343040, Note_on_c, 7, 64, 96
9, 343040, Note_off_c, 7, 64, 0
9, 343040, Note_on_c, 7, 60, 96
9, 343552, Note_off_c, 7, 64, 0
9, 343552, Note_on_c, 7, 64, 96
9, 343552, Note_off_c, 7, 60, 0
9, 343552, Note_on_c, 7, 60, 96
9, 344064, Note_off_c, 7, 64, 0
9, 344064, Note_off_c, 7, 60, 0
9, 344064, Note_on_c, 7, 64, 96
9, 344064, Note_on_c, 7, 60, 96
9, 345088, Note_off_c, 7, 64, 0
9, 345600, Note_off_c, 7, 60, 0
9, 345600, Note_on_c, 7, 62, 96
9, 347136, Note_off_c, 7, 62, 0
9, 347136, Note_on_c, 7, 64, 96
9, 348672, Note_off_c, 7, 64, 0
9, 348672, Note_on_c, 7, 65, 96
9, 350208, Note_off_c, 7, 65, 0
9, 350208, Note_on_c, 7, 65, 96
9, 351744, Note_off_c, 7, 65, 0
9, 351744, Note_on_c, 7, 64, 96
9, 353280, Note_off_c, 7, 64, 0
9, 353280, Note_on_c, 7, 62, 96
9, 354816, Note_off_c, 7, 62, 0
9, 354816, Note_on_c, 7, 62, 96
9, 356352, Note_off_c, 7, 62, 0
9, 356352, Note_on_c, 7, 60, 96
9, 357376, Note_off_c, 7, 60, 0
9, 357376, Note_on_c, 7, 60, 96
9, 357888, Note_on_c, 7, 65, 96
9, 357888, Note_off_c, 7, 60, 0
9, 357888, Note_on_c, 7, 65, 96
9, 358912, Note_off_c, 7, 65, 0
9, 358912, Note_on_c, 7, 67, 96
9, 359424, Note_off_c, 7, 65, 0
9, 359424, Note_on_c, 7, 67, 96
9, 359424, Note_off_c, 7, 67, 0
9, 359424, Note_on_c, 7, 65, 96
9, 359936, Note_off_c, 7, 65, 0
9, 359936, Note_on_c, 7, 63, 96
9, 360448, Note_off_c, 7, 63, 0
9, 360448, Note_on_c, 7, 62, 96
9, 360960, Note_off_c, 7, 67, 0
9, 360960, Note_on_c, 7, 69, 96
9, 360960, Note_off_c, 7, 62, 0
9, 360960, Note_on_c, 7, 63, 96
9, 361472, Note_off_c, 7, 63, 0
9, 361472, Note_on_c, 7, 67, 96
9, 361984, Note_off_c, 7, 67, 0
9, 361984, Note_on_c, 7, 65, 96
9, 362496, Note_off_c, 7, 69, 0
9, 362496, Note_off_c, 7, 65, 0
9, 362496, Note_on_c, 7, 70, 96
9, 362496, Note_on_c, 7, 63, 96
9, 363008, Note_off_c, 7, 63, 0
9, 363008, Note_on_c, 7, 62, 96
9, 363520, Note_off_c, 7, 62, 0
9, 363520, Note_on_c, 7, 64, 96
9, 364032, Note_off_c, 7, 70, 0
9, 364032, Note_on_c, 7, 69, 96
9, 364032, Note_off_c, 7, 64, 0
9, 364032, Note_on_c, 7, 65, 96
9, 365568, Note_off_c, 7, 69, 0
9, 365568, Note_on_c, 7, 67, 96
9, 366080, Note_off_c, 7, 65, 0
9, 366080, Note_on_c, 7, 67, 96
9, 366592, Note_off_c, 7, 67, 0
9, 366592, Note_on_c, 7, 65, 96
9, 367104, Note_off_c, 7, 67, 0
9, 367104, Note_on_c, 7, 67, 96
9, 367104, Note_off_c, 7, 65, 0
9, 367104, Note_on_c, 7, 64, 96
9, 367616, Note_off_c, 7, 64, 0
9, 367616, Note_on_c, 7, 69, 96
9, 368128, Note_off_c, 7, 69, 0
9, 368128, Note_on_c, 7, 64, 96
9, 368640, Note_off_c, 7, 67, 0
9, 368640, Note_off_c, 7, 64, 0
9, 368640, Note_on_c, 7, 65, 96
9, 368640, Note_on_c, 7, 62, 96
9, 369664, Note_off_c, 7, 65, 0
9, 369664, Note_on_c, 7, 72, 96
9, 369664, Note_off_c, 7, 62, 0
9, 369664, Note_on_c, 7, 67, 96
9, 370176, Note_off_c, 7, 72, 0
9, 370176, Note_on_c, 7, 69, 96
9, 370176, Note_off_c, 7, 67, 0
9, 370176, Note_on_c, 7, 65, 96
9, 370688, Note_off_c, 7, 69, 0
9, 370688, Note_on_c, 7, 72, 96
9, 370688, Note_off_c, 7, 65, 0
9, 370688, Note_on_c, 7, 69, 96
9, 371200, Note_off_c, 7, 72, 0
9, 371200, Note_on_c, 7, 69, 96
9, 371200, Note_off_c, 7, 69, 0
9, 371200, Note_on_c, 7, 65, 96
9, 371712, Note_off_c, 7, 69, 0
9, 371712, Note_on_c, 7, 65, 96
9, 371712, Note_off_c, 7, 65, 0
9, 371712, Note_on_c, 7, 60, 96
9, 372224, Note_off_c, 7, 65, 0
9, 372224, Note_on_c, 7, 69, 96
9, 372224, Note_off_c, 7, 60, 0
9, 372224, Note_on_c, 7, 65, 96
9, 372736, Note_off_c, 7, 69, 0
9, 372736, Note_on_c, 7, 72, 96
9, 372736, Note_off_c, 7, 65, 0
9, 372736, Note_on_c, 7, 69, 96
9, 373248, Note_off_c, 7, 72, 0
9, 373248, Note_on_c, 7, 69, 96
9, 373248, Note_off_c, 7, 69, 0
9, 373248, Note_on_c, 7, 65, 96
9, 373760, Note_off_c, 7, 69, 0
9, 373760, Note_on_c, 7, 72, 96
9, 373760, Note_off_c, 7, 65, 0
9, 373760, Note_on_c, 7, 69, 96
9, 374272, Note_off_c, 7, 72, 0
9, 374272, Note_on_c, 7, 77, 96
9, 374272, Note_off_c, 7, 69, 0
9, 374272, Note_on_c, 7, 72, 96
9, 374784, Note_off_c, 7, 77, 0
9, 374784, Note_off_c, 7, 72, 0
9, 374784, Note_on_c, 7, 77, 96
9, 374784, Note_on_c, 7, 65, 96
9, 375808, Note_off_c, 7, 77, 0
9, 375808, Note_off_c, 7, 65, 0
9, 375808, Note_on_c, 7, 53, 96
9, 376320, Note_off_c, 7, 53, 0
9, 376320, Note_on_c, 7, 58, 96
9, 377344, Note_off_c, 7, 58, 0
9, 377344, Note_on_c, 7, 62, 96
9, 377856, Note_off_c, 7, 62, 0
9, 377856, Note_on_c, 7, 60, 96
9, 378368, Note_off_c, 7, 60, 0
9, 378368, Note_on_c, 7, 58, 96
9, 378880, Note_off_c, 7, 58, 0
9, 378880, Note_on_c, 7, 57, 96
9, 379392, Note_off_c, 7, 57, 0
9, 379392, Note_on_c, 7, 58, 96
9, 379904, Note_off_c, 7, 58, 0
9, 379904, Note_on_c, 7, 62, 96
9, 380416, Note_off_c, 7, 62, 0
9, 380416, Note_on_c, 7, 60, 96
9, 380928, Note_off_c, 7, 60, 0
9, 380928, Note_on_c, 7, 57, 96
9, 381952, Note_on_c, 7, 60, 96
9, 381952, Note_off_c, 7, 57, 0
9, 381952, Note_on_c, 7, 57, 96
9, 382464, Note_off_c, 7, 60, 0
9, 382464, Note_on_c, 7, 69, 96
9, 382464, Note_off_c, 7, 57, 0
9, 382464, Note_on_c, 7, 62, 96
9, 382976, Note_off_c, 7, 62, 0
9, 382976, Note_on_c, 7, 64, 96
9, 383488, Note_off_c, 7, 69, 0
9, 383488, Note_on_c, 7, 70, 96
9, 383488, Note_off_c, 7, 64, 0
9, 383488, Note_on_c, 7, 65, 96
9, 384000, Note_off_c, 7, 70, 0
9, 384000, Note_on_c, 7, 67, 96
9, 384000, Note_off_c, 7, 65, 0
9, 384000, Note_on_c, 7, 59, 96
9, 384512, Note_off_c, 7, 59, 0
9, 384512, Note_on_c, 7, 60, 96
9, 385024, Note_off_c, 7, 67, 0
9, 385024, Note_on_c, 7, 65, 96
9, 385024, Note_off_c, 7, 60, 0
9, 385024, Note_on_c, 7, 62, 96
9, 385536, Note_off_c, 7, 65, 0
9, 385536, Note_on_c, 7, 67, 96
9, 385536, Note_off_c, 7, 62, 0
9, 385536, Note_on_c, 7, 64, 96
9, 386048, Note_off_c, 7, 67, 0
9, 386048, Note_on_c, 7, 70, 96
9, 386048, Note_off_c, 7, 64, 0
9, 386048, Note_on_c, 7, 62, 96
9, 386560, Note_off_c, 7, 70, 0
9, 386560, Note_on_c, 7, 69, 96
9, 386560, Note_off_c, 7, 62, 0
9, 386560, Note_on_c, 7, 60, 96
9, 387072, Note_off_c, 7, 69, 0
9, 387072, Note_off_c, 7, 60, 0
9, 387072, Note_on_c, 7, 65, 96
9, 387072, Note_on_c, 7, 62, 96
9, 388096, Note_off_c, 7, 65, 0
9, 388096, Note_on_c, 7, 67, 96
9, 388096, Note_off_c, 7, 62, 0
9, 388096, Note_on_c, 7, 64, 96
9, 388608, Note_off_c, 7, 67, 0
9, 388608, Note_on_c, 7, 69, 96
9, 388608, Note_off_c, 7, 64, 0
9, 388608, Note_on_c, 7, 65, 96
9, 389120, Note_off_c, 7, 69, 0
9, 389120, Note_on_c, 7, 67, 96
9, 389632, Note_off_c, 7, 67, 0
9, 389632, Note_on_c, 7, 69, 96
9, 390144, Note_off_c, 7, 69, 0
9, 390144, Note_on_c, 7, 71, 96
9, 390656, Note_off_c, 7, 71, 0
9, 390656, Note_on_c, 7, 67, 96
9, 391168, Note_off_c, 7, 67, 0
9, 391168, Note_on_c, 7, 69, 96
9, 391168, Note_off_c, 7, 65, 0
9, 391168, Note_on_c, 7, 62, 96
9, 391680, Note_off_c, 7, 69, 0
9, 391680, Note_on_c, 7, 67, 96
9, 391680, Note_off_c, 7, 62, 0
9, 391680, Note_on_c, 7, 59, 96
9, 392192, Note_off_c, 7, 67, 0
9, 392192, Note_on_c, 7, 69, 96
9, 392192, Note_off_c, 7, 59, 0
9, 392192, Note_on_c, 7, 60, 96
9, 392704, Note_off_c, 7, 69, 0
9, 392704, Note_on_c, 7, 71, 96
9, 392704, Note_off_c, 7, 60, 0
9, 392704, Note_on_c, 7, 62, 96
9, 393216, Note_off_c, 7, 71, 0
9, 393216, Note_off_c, 7, 62, 0
9, 393216, Note_on_c, 7, 64, 96
9, 393216, Note_on_c, 7, 55, 96
9, 394240, Note_off_c, 7, 64, 0
9, 394240, Note_on_c, 7, 60, 96
9, 394240, Note_off_c, 7, 55, 0
9, 394240, Note_on_c, 7, 67, 96
9, 394752, Note_off_c, 7, 60, 0
9, 394752, Note_on_c, 7, 70, 96
9, 394752, Note_off_c, 7, 67, 0
9, 394752, Note_on_c, 7, 64, 96
9, 395264, Note_off_c, 7, 64, 0
9, 395264, Note_on_c, 7, 65, 96
9, 395776, Note_off_c, 7, 70, 0
9, 395776, Note_on_c, 7, 72, 96
9, 395776, Note_off_c, 7, 65, 0
9, 395776, Note_on_c, 7, 67, 96
9, 396288, Note_off_c, 7, 72, 0
9, 396288, Note_on_c, 7, 70, 96
9, 396288, Note_off_c, 7, 67, 0
9, 396288, Note_on_c, 7, 60, 96
9, 396800, Note_off_c, 7, 70, 0
9, 396800, Note_on_c, 7, 69, 96
9, 397312, Note_off_c, 7, 69, 0
9, 397312, Note_on_c, 7, 67, 96
9, 397312, Note_off_c, 7, 60, 0
9, 397312, Note_on_c, 7, 64, 96
9, 397824, Note_off_c, 7, 67, 0
9, 397824, Note_on_c, 7, 69, 96
9, 397824, Note_off_c, 7, 64, 0
9, 397824, Note_on_c, 7, 65, 96
9, 398336, Note_off_c, 7, 69, 0
9, 398336, Note_on_c, 7, 72, 96
9, 398336, Note_off_c, 7, 65, 0
9, 398336, Note_on_c, 7, 60, 96
9, 398848, Note_off_c, 7, 72, 0
9, 398848, Note_on_c, 7, 71, 96
9, 398848, Note_off_c, 7, 60, 0
9, 398848, Note_on_c, 7, 62, 96
9, 399360, Note_off_c, 7, 71, 0
9, 399360, Note_off_c, 7, 62, 0
9, 399360, Note_on_c, 7, 72, 96
9, 399360, Note_on_c, 7, 55, 96
9, 400384, Note_off_c, 7, 72, 0
9, 400384, Note_off_c, 7, 55, 0
9, 406528, Note_on_c, 7, 65, 96
9, 406528, Note_on_c, 7, 65, 96
9, 407040, Note_off_c, 7, 65, 0
9, 407040, Note_on_c, 7, 72, 96
9, 407040, Note_off_c, 7, 65, 0
9, 407040, Note_on_c, 7, 65, 96
9, 407552, Note_off_c, 7, 72, 0
9, 407552, Note_on_c, 7, 75, 96
9, 407552, Note_off_c, 7, 65, 0
9, 407552, Note_on_c, 7, 72, 96
9, 408064, Note_off_c, 7, 75, 0
9, 408064, Note_on_c, 7, 74, 96
9, 408064, Note_off_c, 7, 72, 0
9, 408064, Note_on_c, 7, 70, 96
9, 408576, Note_off_c, 7, 74, 0
9, 408576, Note_on_c, 7, 72, 96
9, 408576, Note_off_c, 7, 70, 0
9, 408576, Note_on_c, 7, 65, 96
9, 409088, Note_off_c, 7, 72, 0
9, 409088, Note_on_c, 7, 75, 96
9, 409088, Note_off_c, 7, 65, 0
9, 409088, Note_on_c, 7, 72, 96
9, 409600, Note_off_c, 7, 75, 0
9, 409600, Note_on_c, 7, 74, 96
9, 409600, Note_off_c, 7, 72, 0
9, 409600, Note_on_c, 7, 70, 96
9, 410112, Note_off_c, 7, 74, 0
9, 410112, Note_on_c, 7, 72, 96
9, 410112, Note_off_c, 7, 70, 0
9, 410112, Note_on_c, 7, 65, 96
9, 410624, Note_off_c, 7, 72, 0
9, 410624, Note_on_c, 7, 74, 96
9, 410624, Note_off_c, 7, 65, 0
9, 410624, Note_on_c, 7, 69, 96
9, 410880, Note_off_c, 7, 74, 0
9, 410880, Note_on_c, 7, 72, 96
9, 411136, Note_off_c, 7, 72, 0
9, 411136, Note_on_c, 7, 70, 96
9, 411136, Note_off_c, 7, 69, 0
9, 411136, Note_on_c, 7, 66, 96
9, 411392, Note_off_c, 7, 70, 0
9, 411392, Note_on_c, 7, 69, 96
9, 411648, Note_off_c, 7, 69, 0
9, 411648, Note_off_c, 7, 66, 0
9, 411648, Note_on_c, 7, 70, 96
9, 411648, Note_on_c, 7, 62, 96
9, 412160, Note_off_c, 7, 70, 0
9, 412160, Note_on_c, 7, 72, 96
9, 412416, Note_off_c, 7, 72, 0
9, 412416, Note_on_c, 7, 70, 96
9, 412672, Note_off_c, 7, 70, 0
9, 412672, Note_on_c, 7, 69, 96
9, 412672, Note_off_c, 7, 62, 0
9, 412672, Note_on_c, 7, 60, 96
9, 412928, Note_off_c, 7, 69, 0
9, 412928, Note_on_c, 7, 67, 96
9, 413184, Note_off_c, 7, 67, 0
9, 413184, Note_on_c, 7, 69, 96
9, 413184, Note_off_c, 7, 60, 0
9, 413184, Note_on_c, 7, 60, 96
9, 413696, Note_off_c, 7, 69, 0
9, 413696, Note_on_c, 7, 65, 96
9, 413696, Note_off_c, 7, 60, 0
9, 413696, Note_on_c, 7, 57, 96
9, 414208, Note_off_c, 7, 65, 0
9, 414208, Note_on_c, 7, 67, 96
9, 414208, Note_off_c, 7, 57, 0
9, 414208, Note_on_c, 7, 60, 96
9, 414720, Note_off_c, 7, 67, 0
9, 414720, Note_on_c, 7, 69, 96
9, 414720, Note_off_c, 7, 60, 0
9, 414720, Note_on_c, 7, 65, 96
9, 415232, Note_off_c, 7, 69, 0
9, 415232, Note_on_c, 7, 65, 96
9, 415232, Note_off_c, 7, 65, 0
9, 415232, Note_on_c, 7, 57, 96
9, 415744, Note_off_c, 7, 65, 0
9, 415744, Note_on_c, 7, 67, 96
9, 415744, Note_off_c, 7, 57, 0
9, 415744, Note_on_c, 7, 60, 96
9, 416256, Note_off_c, 7, 67, 0
9, 416256, Note_on_c, 7, 69, 96
9, 416256, Note_off_c, 7, 60, 0
9, 416256, Note_on_c, 7, 65, 96
9, 416768, Note_off_c, 7, 69, 0
9, 416768, Note_on_c, 7, 67, 96
9, 416768, Note_off_c, 7, 65, 0
9, 416768, Note_on_c, 7, 64, 96
9, 417280, Note_off_c, 7, 67, 0
9, 417280, Note_on_c, 7, 69, 96
9, 417280, Note_off_c, 7, 64, 0
9, 417280, Note_on_c, 7, 65, 96
9, 417792, Note_off_c, 7, 69, 0
9, 417792, Note_off_c, 7, 65, 0
9, 417792, Note_on_c, 7, 67, 96
9, 417792, Note_on_c, 7, 64, 96
9, 418816, Note_off_c, 7, 67, 0
9, 418816, Note_on_c, 7, 65, 96
9, 418816, Note_off_c, 7, 64, 0
9, 418816, Note_on_c, 7, 60, 96
9, 419328, Note_off_c, 7, 65, 0
9, 419328, Note_on_c, 7, 72, 96
9, 419328, Note_off_c, 7, 60, 0
9, 419328, Note_on_c, 7, 69, 96
9, 420352, Note_off_c, 7, 72, 0
9, 420352, Note_on_c, 7, 74, 96
9, 420352, Note_off_c, 7, 69, 0
9, 420352, Note_on_c, 7, 70, 96
9, 420864, Note_off_c, 7, 74, 0
9, 420864, Note_on_c, 7, 70, 96
9, 420864, Note_off_c, 7, 70, 0
9, 420864, Note_on_c, 7, 67, 96
9, 421888, Note_off_c, 7, 70, 0
9, 421888, Note_on_c, 7, 69, 96
9, 421888, Note_off_c, 7, 67, 0
9, 421888, Note_on_c, 7, 65, 96
9, 422400, Note_off_c, 7, 69, 0
9, 422400, Note_on_c, 7, 70, 96
9, 422400, Note_off_c, 7, 65, 0
9, 422400, Note_on_c, 7, 67, 96
9, 422912, Note_off_c, 7, 70, 0
9, 422912, Note_on_c, 7, 67, 96
9, 422912, Note_off_c, 7, 67, 0
9, 422912, Note_on_c, 7, 60, 96
9, 423424, Note_off_c, 7, 67, 0
9, 423424, Note_on_c, 7, 69, 96
9, 423424, Note_off_c, 7, 60, 0
9, 423424, Note_on_c, 7, 65, 96
9, 423936, Note_off_c, 7, 69, 0
9, 423936, Note_off_c, 7, 65, 0
9, 423936, Note_on_c, 7, 69, 96
9, 423936, Note_on_c, 7, 65, 96
9, 424448, Note_off_c, 7, 69, 0
9, 424448, Note_on_c, 7, 72, 96
9, 424448, Note_off_c, 7, 65, 0
9, 424448, Note_on_c, 7, 69, 96
9, 424960, Note_off_c, 7, 72, 0
9, 424960, Note_on_c, 7, 69, 96
9, 424960, Note_off_c, 7, 69, 0
9, 424960, Note_on_c, 7, 65, 96
9, 425472, Note_off_c, 7, 69, 0
9, 425472, Note_on_c, 7, 69, 96
9, 425472, Note_off_c, 7, 65, 0
9, 425472, Note_on_c, 7, 65, 96
9, 425984, Note_off_c, 7, 69, 0
9, 425984, Note_on_c, 7, 72, 96
9, 425984, Note_off_c, 7, 65, 0
9, 425984, Note_on_c, 7, 69, 96
9, 426496, Note_off_c, 7, 72, 0
9, 426496, Note_on_c, 7, 69, 96
9, 426496, Note_off_c, 7, 69, 0
9, 426496, Note_on_c, 7, 65, 96
9, 427008, Note_off_c, 7, 69, 0
9, 427008, Note_on_c, 7, 65, 96
9, 427008, Note_off_c, 7, 65, 0
9, 427008, Note_on_c, 7, 60, 96
9, 427520, Note_off_c, 7, 65, 0
9, 427520, Note_on_c, 7, 69, 96
9, 427520, Note_off_c, 7, 60, 0
9, 427520, Note_on_c, 7, 65, 96
9, 428032, Note_off_c, 7, 69, 0
9, 428032, Note_on_c, 7, 72, 96
9, 428032, Note_off_c, 7, 65, 0
9, 428032, Note_on_c, 7, 69, 96
9, 428544, Note_off_c, 7, 72, 0
9, 428544, Note_on_c, 7, 69, 96
9, 428544, Note_off_c, 7, 69, 0
9, 428544, Note_on_c, 7, 65, 96
9, 429056, Note_off_c, 7, 69, 0
9, 429056, Note_on_c, 7, 72, 96
9, 429056, Note_off_c, 7, 65, 0
9, 429056, Note_on_c, 7, 69, 96
9, 429568, Note_off_c, 7, 72, 0
9, 429568, Note_on_c, 7, 77, 96
9, 429568, Note_off_c, 7, 69, 0
9, 429568, Note_on_c, 7, 72, 96
9, 430080, Note_off_c, 7, 77, 0
9, 430080, Note_off_c, 7, 72, 0
9, 430080, Note_on_c, 7, 74, 96
9, 430080, Note_on_c, 7, 70, 96
9, 431104, Note_off_c, 7, 74, 0
9, 431104, Note_on_c, 7, 65, 96
9, 431104, Note_off_c, 7, 70, 0
9, 431616, Note_off_c, 7, 65, 0
9, 431616, Note_on_c, 7, 70, 96
9, 432640, Note_on_c, 7, 62, 96
9, 433152, Note_off_c, 7, 62, 0
9, 433152, Note_on_c, 7, 67, 96
9, 433664, Note_off_c, 7, 70, 0
9, 433664, Note_on_c, 7, 69, 96
9, 434176, Note_off_c, 7, 69, 0
9, 434176, Note_on_c, 7, 67, 96
9, 434688, Note_on_c, 7, 69, 96
9, 434688, Note_off_c, 7, 67, 0
9, 435200, Note_off_c, 7, 67, 0
9, 435200, Note_on_c, 7, 65, 96
9, 435712, Note_off_c, 7, 65, 0
9, 435712, Note_on_c, 7, 63, 96
9, 436224, Note_off_c, 7, 63, 0
9, 436224, Note_on_c, 7, 62, 96
9, 436736, Note_off_c, 7, 69, 0
9, 436736, Note_on_c, 7, 67, 96
9, 437248, Note_off_c, 7, 67, 0
9, 437248, Note_on_c, 7, 65, 96
9, 437248, Note_off_c, 7, 62, 0
9, 437248, Note_on_c, 7, 62, 96
9, 437760, Note_off_c, 7, 65, 0
9, 437760, Note_on_c, 7, 67, 96
9, 437760, Note_off_c, 7, 62, 0
9, 437760, Note_on_c, 7, 61, 96
9, 438272, Note_off_c, 7, 61, 0
9, 438272, Note_on_c, 7, 62, 96
9, 438784, Note_off_c, 7, 62, 0
9, 438784, Note_on_c, 7, 64, 96
9, 439296, Note_off_c, 7, 64, 0
9, 439296, Note_on_c, 7, 64, 96
9, 439808, Note_off_c, 7, 67, 0
9, 439808, Note_on_c, 7, 65, 96
9, 440320, Note_off_c, 7, 65, 0
9, 440320, Note_on_c, 7, 64, 96
9, 440320, Note_off_c, 7, 64, 0
9, 440320, Note_on_c, 7, 57, 96
9, 440832, Note_off_c, 7, 64, 0
9, 440832, Note_on_c, 7, 65, 96
9, 440832, Note_off_c, 7, 57, 0
9, 440832, Note_on_c, 7, 62, 96
9, 442880, Note_off_c, 7, 65, 0
9, 442880, Note_on_c, 7, 67, 96
9, 442880, Note_off_c, 7, 62, 0
9, 442880, Note_on_c, 7, 64, 96
9, 443392, Note_off_c, 7, 67, 0
9, 443392, Note_on_c, 7, 69, 96
9, 443392, Note_off_c, 7, 64, 0
9, 443392, Note_on_c, 7, 65, 96
9, 443904, Note_off_c, 7, 69, 0
9, 443904, Note_on_c, 7, 70, 96
9, 443904, Note_off_c, 7, 65, 0
9, 443904, Note_on_c, 7, 67, 96
9, 444928, Note_off_c, 7, 67, 0
9, 444928, Note_on_c, 7, 65, 96
9, 445440, Note_off_c, 7, 65, 0
9, 445440, Note_on_c, 7, 64, 96
9, 445952, Note_off_c, 7, 70, 0
9, 445952, Note_on_c, 7, 67, 96
9, 446464, Note_off_c, 7, 67, 0
9, 446464, Note_on_c, 7, 65, 96
9, 446464, Note_off_c, 7, 64, 0
9, 446464, Note_on_c, 7, 62, 96
9, 446976, Note_off_c, 7, 65, 0
9, 446976, Note_on_c, 7, 64, 96
9, 446976, Note_off_c, 7, 62, 0
9, 446976, Note_on_c, 7, 60, 96
9, 448512, Note_off_c, 7, 64, 0
9, 448512, Note_on_c, 7, 65, 96
9, 449536, Note_off_c, 7, 65, 0
9, 449536, Note_on_c, 7, 69, 96
9, 449536, Note_off_c, 7, 60, 0
9, 449536, Note_on_c, 7, 53, 96
9, 450048, Note_off_c, 7, 69, 0
9, 450048, Note_on_c, 7, 72, 96
9, 450048, Note_off_c, 7, 53, 0
9, 450048, Note_on_c, 7, 63, 96
9, 451072, Note_off_c, 7, 63, 0
9, 451072, Note_on_c, 7, 65, 96
9, 451584, Note_off_c, 7, 65, 0
9, 451584, Note_on_c, 7, 63, 96
9, 452096, Note_off_c, 7, 72, 0
9, 452096, Note_on_c, 7, 70, 96
9, 452096, Note_off_c, 7, 63, 0
9, 452096, Note_on_c, 7, 62, 96
9, 452608, Note_off_c, 7, 70, 0
9, 452608, Note_on_c, 7, 69, 96
9, 452608, Note_off_c, 7, 62, 0
9, 452608, Note_on_c, 7, 60, 96
9, 453120, Note_off_c, 7, 69, 0
9, 453120, Note_on_c, 7, 70, 96
9, 453120, Note_off_c, 7, 60, 0
9, 453120, Note_on_c, 7, 62, 96
9, 453632, Note_off_c, 7, 70, 0
9, 453632, Note_on_c, 7, 67, 96
9, 453632, Note_off_c, 7, 62, 0
9, 453632, Note_on_c, 7, 58, 96
9, 454144, Note_off_c, 7, 67, 0
9, 454144, Note_on_c, 7, 69, 96
9, 454144, Note_off_c, 7, 58, 0
9, 454144, Note_on_c, 7, 60, 96
9, 454656, Note_off_c, 7, 69, 0
9, 454656, Note_off_c, 7, 60, 0
9, 454656, Note_on_c, 7, 69, 96
9, 454656, Note_on_c, 7, 60, 96
9, 455680, Note_off_c, 7, 69, 0
9, 455680, Note_off_c, 7, 60, 0
9, 480256, Note_on_c, 7, 70, 96
9, 480256, Note_on_c, 7, 67, 96
9, 480768, Note_off_c, 7, 70, 0
9, 480768, Note_on_c, 7, 64, 96
9, 480768, Note_off_c, 7, 67, 0
9, 480768, Note_on_c, 7, 60, 96
9, 481792, Note_off_c, 7, 64, 0
9, 481792, Note_on_c, 7, 69, 96
9, 481792, Note_off_c, 7, 60, 0
9, 481792, Note_on_c, 7, 65, 96
9, 482304, Note_off_c, 7, 69, 0
9, 482304, Note_on_c, 7, 62, 96
9, 482816, Note_off_c, 7, 65, 0
9, 482816, Note_on_c, 7, 58, 96
9, 483328, Note_off_c, 7, 62, 0
9, 483328, Note_on_c, 7, 67, 96
9, 483328, Note_off_c, 7, 58, 0
9, 483328, Note_on_c, 7, 64, 96
9, 483840, Note_off_c, 7, 67, 0
9, 483840, Note_on_c, 7, 60, 96
9, 484352, Note_off_c, 7, 64, 0
9, 484352, Note_on_c, 7, 57, 96
9, 484864, Note_off_c, 7, 60, 0
9, 484864, Note_on_c, 7, 65, 96
9, 484864, Note_off_c, 7, 57, 0
9, 484864, Note_on_c, 7, 62, 96
9, 485376, Note_off_c, 7, 65, 0
9, 485376, Note_off_c, 7, 62, 0
9, 485376, Note_on_c, 7, 59, 96
9, 485376, Note_on_c, 7, 55, 96
9, 486400, Note_off_c, 7, 59, 0
9, 486400, Note_on_c, 7, 64, 96
9, 486400, Note_off_c, 7, 55, 0
9, 486400, Note_on_c, 7, 57, 96
9, 486912, Note_off_c, 7, 64, 0
9, 486912, Note_on_c, 7, 57, 96
9, 486912, Note_off_c, 7, 57, 0
9, 486912, Note_on_c, 7, 53, 96
9, 487936, Note_off_c, 7, 57, 0
9, 487936, Note_on_c, 7, 62, 96
9, 487936, Note_off_c, 7, 53, 0
9, 487936, Note_on_c, 7, 55, 96
9, 488448, Note_off_c, 7, 62, 0
9, 488448, Note_on_c, 7, 61, 96
9, 488448, Note_off_c, 7, 55, 0
9, 488448, Note_on_c, 7, 57, 96
9, 488960, Note_off_c, 7, 61, 0
9, 488960, Note_on_c, 7, 64, 96
9, 488960, Note_off_c, 7, 57, 0
9, 488960, Note_on_c, 7, 64, 96
9, 489472, Note_off_c, 7, 64, 0
9, 489472, Note_on_c, 7, 67, 96
9, 489472, Note_off_c, 7, 64, 0
9, 489472, Note_on_c, 7, 67, 96
9, 489984, Note_off_c, 7, 67, 0
9, 489984, Note_on_c, 7, 61, 96
9, 489984, Note_off_c, 7, 67, 0
9, 489984, Note_on_c, 7, 61, 96
9, 490496, Note_off_c, 7, 61, 0
9, 490496, Note_on_c, 7, 64, 96
9, 490496, Note_off_c, 7, 61, 0
9, 490496, Note_on_c, 7, 64, 96
9, 491008, Note_off_c, 7, 64, 0
9, 491008, Note_on_c, 7, 67, 96
9, 491008, Note_off_c, 7, 64, 0
9, 491008, Note_on_c, 7, 67, 96
9, 491520, Note_off_c, 7, 67, 0
9, 491520, Note_off_c, 7, 67, 0
9, 491520, Note_on_c, 7, 65, 96
9, 491520, Note_on_c, 7, 65, 96
9, 492032, Note_off_c, 7, 65, 0
9, 492032, Note_on_c, 7, 69, 96
9, 492032, Note_off_c, 7, 65, 0
9, 492032, Note_on_c, 7, 69, 96
9, 492544, Note_off_c, 7, 69, 0
9, 492544, Note_on_c, 7, 74, 96
9, 492544, Note_off_c, 7, 69, 0
9, 492544, Note_on_c, 7, 74, 96
9, 493056, Note_off_c, 7, 74, 0
9, 493056, Note_on_c, 7, 65, 96
9, 493056, Note_off_c, 7, 74, 0
9, 493056, Note_on_c, 7, 65, 96
9, 493568, Note_off_c, 7, 65, 0
9, 493568, Note_on_c, 7, 69, 96
9, 493568, Note_off_c, 7, 65, 0
9, 493568, Note_on_c, 7, 69, 96
9, 494080, Note_off_c, 7, 69, 0
9, 494080, Note_on_c, 7, 74, 96
9, 494080, Note_off_c, 7, 69, 0
9, 494080, Note_on_c, 7, 74, 96
9, 494592, Note_off_c, 7, 74, 0
9, 494592, Note_on_c, 7, 64, 96
9, 494592, Note_off_c, 7, 74, 0
9, 494592, Note_on_c, 7, 64, 96
9, 495104, Note_off_c, 7, 64, 0
9, 495104, Note_on_c, 7, 67, 96
9, 495104, Note_off_c, 7, 64, 0
9, 495104, Note_on_c, 7, 67, 96
9, 495616, Note_off_c, 7, 67, 0
9, 495616, Note_on_c, 7, 73, 96
9, 495616, Note_off_c, 7, 67, 0
9, 495616, Note_on_c, 7, 73, 96
9, 496128, Note_off_c, 7, 73, 0
9, 496128, Note_on_c, 7, 64, 96
9, 496128, Note_off_c, 7, 73, 0
9, 496128, Note_on_c, 7, 64, 96
9, 496640, Note_off_c, 7, 64, 0
9, 496640, Note_on_c, 7, 67, 96
9, 496640, Note_off_c, 7, 64, 0
9, 496640, Note_on_c, 7, 67, 96
9, 497152, Note_off_c, 7, 67, 0
9, 497152, Note_on_c, 7, 73, 96
9, 497152, Note_off_c, 7, 67, 0
9, 497152, Note_on_c, 7, 73, 96
9, 497664, Note_off_c, 7, 73, 0
9, 497664, Note_off_c, 7, 73, 0
9, 497920, Note_on_c, 7, 67, 96
9, 497920, Note_on_c, 7, 67, 96
9, 498176, Note_off_c, 7, 67, 0
9, 498176, Note_on_c, 7, 65, 96
9, 498176, Note_off_c, 7, 67, 0
9, 498176, Note_on_c, 7, 65, 96
9, 498432, Note_off_c, 7, 65, 0
9, 498432, Note_on_c, 7, 67, 96
9, 498432, Note_off_c, 7, 65, 0
9, 498432, Note_on_c, 7, 67, 96
9, 498688, Note_off_c, 7, 67, 0
9, 498688, Note_on_c, 7, 64, 96
9, 498688, Note_off_c, 7, 67, 0
9, 498688, Note_on_c, 7, 64, 96
9, 498944, Note_off_c, 7, 64, 0
9, 498944, Note_on_c, 7, 65, 96
9, 498944, Note_off_c, 7, 64, 0
9, 498944, Note_on_c, 7, 65, 96
9, 499200, Note_off_c, 7, 65, 0
9, 499200, Note_on_c, 7, 67, 96
9, 499200, Note_off_c, 7, 65, 0
9, 499200, Note_on_c, 7, 67, 96
9, 499456, Note_off_c, 7, 67, 0
9, 499456, Note_on_c, 7, 65, 96
9, 499456, Note_off_c, 7, 67, 0
9, 499456, Note_on_c, 7, 65, 96
9, 499712, Note_off_c, 7, 65, 0
9, 499712, Note_on_c, 7, 64, 96
9, 499712, Note_off_c, 7, 65, 0
9, 499712, Note_on_c, 7, 64, 96
9, 499968, Note_off_c, 7, 64, 0
9, 499968, Note_on_c, 7, 65, 96
9, 499968, Note_off_c, 7, 64, 0
9, 499968, Note_on_c, 7, 65, 96
9, 500224, Note_off_c, 7, 65, 0
9, 500224, Note_on_c, 7, 62, 96
9, 500224, Note_off_c, 7, 65, 0
9, 500224, Note_on_c, 7, 62, 96
9, 500480, Note_off_c, 7, 62, 0
9, 500480, Note_on_c, 7, 64, 96
9, 500480, Note_off_c, 7, 62, 0
9, 500480, Note_on_c, 7, 64, 96
9, 500736, Note_off_c, 7, 64, 0
9, 500736, Note_on_c, 7, 65, 96
9, 500736, Note_off_c, 7, 64, 0
9, 500736, Note_on_c, 7, 65, 96
9, 500992, Note_off_c, 7, 65, 0
9, 500992, Note_on_c, 7, 64, 96
9, 500992, Note_off_c, 7, 65, 0
9, 500992, Note_on_c, 7, 64, 96
9, 501248, Note_off_c, 7, 64, 0
9, 501248, Note_on_c, 7, 62, 96
9, 501248, Note_off_c, 7, 64, 0
9, 501248, Note_on_c, 7, 62, 96
9, 501504, Note_off_c, 7, 62, 0
9, 501504, Note_on_c, 7, 64, 96
9, 501504, Note_off_c, 7, 62, 0
9, 501504, Note_on_c, 7, 64, 96
9, 501760, Note_off_c, 7, 64, 0
9, 501760, Note_on_c, 7, 62, 96
9, 501760, Note_off_c, 7, 64, 0
9, 501760, Note_on_c, 7, 62, 96
9, 502016, Note_off_c, 7, 62, 0
9, 502016, Note_on_c, 7, 64, 96
9, 502016, Note_off_c, 7, 62, 0
9, 502016, Note_on_c, 7, 64, 96
9, 502272, Note_off_c, 7, 64, 0
9, 502272, Note_on_c, 7, 64, 96
9, 502272, Note_off_c, 7, 64, 0
9, 502272, Note_on_c, 7, 64, 96
9, 503296, Note_off_c, 7, 64, 0
9, 503296, Note_on_c, 7, 62, 96
9, 503296, Note_off_c, 7, 64, 0
9, 503296, Note_on_c, 7, 62, 96
9, 503808, Note_off_c, 7, 62, 0
9, 503808, Note_off_c, 7, 62, 0
9, 503808, Note_on_c, 7, 62, 96
9, 504832, Note_off_c, 7, 62, 0
9, 510976, Note_on_c, 7, 69, 96
9, 510976, Note_on_c, 7, 65, 96
9, 511488, Note_off_c, 7, 69, 0
9, 511488, Note_on_c, 7, 69, 96
9, 511488, Note_off_c, 7, 65, 0
9, 511488, Note_on_c, 7, 65, 96
9, 512000, Note_off_c, 7, 69, 0
9, 512000, Note_on_c, 7, 72, 96
9, 512000, Note_off_c, 7, 65, 0
9, 512000, Note_on_c, 7, 69, 96
9, 512512, Note_off_c, 7, 72, 0
9, 512512, Note_on_c, 7, 69, 96
9, 512512, Note_off_c, 7, 69, 0
9, 512512, Note_on_c, 7, 65, 96
9, 513024, Note_off_c, 7, 69, 0
9, 513024, Note_on_c, 7, 65, 96
9, 513024, Note_off_c, 7, 65, 0
9, 513024, Note_on_c, 7, 60, 96
9, 513536, Note_off_c, 7, 65, 0
9, 513536, Note_on_c, 7, 69, 96
9, 513536, Note_off_c, 7, 60, 0
9, 513536, Note_on_c, 7, 65, 96
9, 514048, Note_off_c, 7, 69, 0
9, 514048, Note_on_c, 7, 72, 96
9, 514048, Note_off_c, 7, 65, 0
9, 514048, Note_on_c, 7, 69, 96
9, 514560, Note_off_c, 7, 72, 0
9, 514560, Note_on_c, 7, 69, 96
9, 514560, Note_off_c, 7, 69, 0
9, 514560, Note_on_c, 7, 65, 96
9, 515072, Note_off_c, 7, 69, 0
9, 515072, Note_on_c, 7, 72, 96
9, 515072, Note_off_c, 7, 65, 0
9, 515072, Note_on_c, 7, 69, 96
9, 515584, Note_off_c, 7, 72, 0
9, 515584, Note_on_c, 7, 77, 96
9, 515584, Note_off_c, 7, 69, 0
9, 515584, Note_on_c, 7, 72, 96
9, 516096, Note_off_c, 7, 77, 0
9, 516096, Note_off_c, 7, 72, 0
9, 516096, Note_on_c, 7, 77, 96
9, 516096, Note_on_c, 7, 72, 96
9, 517120, Note_off_c, 7, 77, 0
9, 517120, Note_on_c, 7, 60, 96
9, 517120, Note_off_c, 7, 72, 0
9, 517120, Note_on_c, 7, 65, 96
9, 517632, Note_off_c, 7, 60, 0
9, 517632, Note_on_c, 7, 67, 96
9, 517632, Note_off_c, 7, 65, 0
9, 517632, Note_on_c, 7, 64, 96
9, 518656, Note_off_c, 7, 67, 0
9, 518656, Note_on_c, 7, 69, 96
9, 518656, Note_off_c, 7, 64, 0
9, 518656, Note_on_c, 7, 65, 96
9, 519168, Note_off_c, 7, 69, 0
9, 519168, Note_on_c, 7, 65, 96
9, 519168, Note_off_c, 7, 65, 0
9, 519168, Note_on_c, 7, 62, 96
9, 520192, Note_off_c, 7, 65, 0
9, 520192, Note_on_c, 7, 64, 96
9, 520192, Note_off_c, 7, 62, 0
9, 520192, Note_on_c, 7, 55, 96
9, 520704, Note_off_c, 7, 64, 0
9, 520704, Note_on_c, 7, 65, 96
9, 520704, Note_off_c, 7, 55, 0
9, 520704, Note_on_c, 7, 62, 96
9, 521216, Note_off_c, 7, 65, 0
9, 521216, Note_on_c, 7, 69, 96
9, 521216, Note_off_c, 7, 62, 0
9, 521216, Note_on_c, 7, 65, 96
9, 521728, Note_off_c, 7, 69, 0
9, 521728, Note_on_c, 7, 67, 96
9, 521728, Note_off_c, 7, 65, 0
9, 521728, Note_on_c, 7, 62, 96
9, 522240, Note_off_c, 7, 67, 0
9, 522240, Note_off_c, 7, 62, 0
9, 522240, Note_on_c, 7, 64, 96
9, 522240, Note_on_c, 7, 60, 96
9, 522752, Note_off_c, 7, 64, 0
9, 522752, Note_on_c, 7, 60, 96
9, 522752, Note_off_c, 7, 60, 0
9, 522752, Note_on_c, 7, 55, 96
9, 523264, Note_off_c, 7, 60, 0
9, 523264, Note_on_c, 7, 64, 96
9, 523264, Note_off_c, 7, 55, 0
9, 523264, Note_on_c, 7, 60, 96
9, 523776, Note_off_c, 7, 64, 0
9, 523776, Note_on_c, 7, 67, 96
9, 523776, Note_off_c, 7, 60, 0
9, 523776, Note_on_c, 7, 64, 96
9, 524288, Note_off_c, 7, 67, 0
9, 524288, Note_on_c, 7, 64, 96
9, 524288, Note_off_c, 7, 64, 0
9, 524288, Note_on_c, 7, 60, 96
9, 524800, Note_off_c, 7, 64, 0
9, 524800, Note_on_c, 7, 67, 96
9, 524800, Note_off_c, 7, 60, 0
9, 524800, Note_on_c, 7, 64, 96
9, 525312, Note_off_c, 7, 67, 0
9, 525312, Note_on_c, 7, 69, 96
9, 525312, Note_off_c, 7, 64, 0
9, 525312, Note_on_c, 7, 64, 96
9, 525824, Note_off_c, 7, 69, 0
9, 525824, Note_on_c, 7, 64, 96
9, 525824, Note_off_c, 7, 64, 0
9, 525824, Note_on_c, 7, 57, 96
9, 526336, Note_off_c, 7, 64, 0
9, 526336, Note_on_c, 7, 69, 96
9, 526336, Note_off_c, 7, 57, 0
9, 526336, Note_on_c, 7, 64, 96
9, 526848, Note_off_c, 7, 69, 0
9, 526848, Note_on_c, 7, 65, 96
9, 526848, Note_off_c, 7, 64, 0
9, 526848, Note_on_c, 7, 62, 96
9, 527360, Note_off_c, 7, 65, 0
9, 527360, Note_on_c, 7, 62, 96
9, 527360, Note_off_c, 7, 62, 0
9, 527360, Note_on_c, 7, 57, 96
9, 527872, Note_off_c, 7, 62, 0
9, 527872, Note_on_c, 7, 65, 96
9, 527872, Note_off_c, 7, 57, 0
9, 527872, Note_on_c, 7, 62, 96
9, 528384, Note_off_c, 7, 65, 0
9, 528384, Note_off_c, 7, 62, 0
9, 528384, Note_on_c, 7, 64, 96
9, 528384, Note_on_c, 7, 61, 96
9, 529408, Note_off_c, 7, 64, 0
9, 529408, Note_off_c, 7, 61, 0
9, 530944, Note_on_c, 7, 69, 96
9, 530944, Note_on_c, 7, 61, 96
9, 531456, Note_off_c, 7, 69, 0
9, 531456, Note_on_c, 7, 65, 96
9, 531456, Note_off_c, 7, 61, 0
9, 531456, Note_on_c, 7, 62, 96
9, 531968, Note_off_c, 7, 65, 0
9, 531968, Note_off_c, 7, 62, 0
9, 532992, Note_on_c, 7, 68, 96
9, 532992, Note_on_c, 7, 59, 96
9, 533504, Note_off_c, 7, 68, 0
9, 533504, Note_off_c, 7, 59, 0
9, 534528, Note_on_c, 7, 69, 96
9, 534528, Note_on_c, 7, 64, 96
9, 535552, Note_off_c, 7, 69, 0
9, 535552, Note_on_c, 7, 57, 96
9, 535552, Note_off_c, 7, 64, 0
9, 535552, Note_on_c, 7, 57, 96
9, 536064, Note_off_c, 7, 57, 0
9, 536064, Note_on_c, 7, 69, 96
9, 536064, Note_off_c, 7, 57, 0
9, 536064, Note_on_c, 7, 69, 96
9, 537088, Note_off_c, 7, 69, 0
9, 537088, Note_on_c, 7, 70, 96
9, 537088, Note_off_c, 7, 69, 0
9, 537088, Note_on_c, 7, 70, 96
9, 537600, Note_off_c, 7, 70, 0
9, 537600, Note_on_c, 7, 67, 96
9, 537600, Note_off_c, 7, 70, 0
9, 537600, Note_on_c, 7, 67, 96
9, 538624, Note_off_c, 7, 67, 0
9, 538624, Note_on_c, 7, 65, 96
9, 538624, Note_off_c, 7, 67, 0
9, 538624, Note_on_c, 7, 65, 96
9, 539136, Note_off_c, 7, 65, 0
9, 539136, Note_on_c, 7, 67, 96
9, 539136, Note_off_c, 7, 65, 0
9, 539136, Note_on_c, 7, 67, 96
9, 539648, Note_off_c, 7, 67, 0
9, 539648, Note_on_c, 7, 64, 96
9, 539648, Note_off_c, 7, 67, 0
9, 539648, Note_on_c, 7, 64, 96
9, 540160, Note_off_c, 7, 64, 0
9, 540160, Note_on_c, 7, 65, 96
9, 540160, Note_off_c, 7, 64, 0
9, 540160, Note_on_c, 7, 65, 96
9, 540672, Note_off_c, 7, 65, 0
9, 540672, Note_off_c, 7, 65, 0
9, 540672, Note_on_c, 7, 65, 96
9, 540672, Note_on_c, 7, 65, 96
9, 541696, Note_off_c, 7, 65, 0
9, 541696, Note_off_c, 7, 65, 0
9, 553984, Note_on_c, 7, 60, 96
9, 553984, Note_on_c, 7, 60, 96
9, 554496, Note_off_c, 7, 60, 0
9, 554496, Note_on_c, 7, 65, 96
9, 554496, Note_off_c, 7, 60, 0
9, 554496, Note_on_c, 7, 65, 96
9, 555520, Note_off_c, 7, 65, 0
9, 555520, Note_on_c, 7, 67, 96
9, 555520, Note_off_c, 7, 65, 0
9, 555520, Note_on_c, 7, 67, 96
9, 556032, Note_off_c, 7, 67, 0
9, 556032, Note_on_c, 7, 63, 96
9, 556032, Note_off_c, 7, 67, 0
9, 556032, Note_on_c, 7, 63, 96
9, 557056, Note_off_c, 7, 63, 0
9, 557056, Note_on_c, 7, 62, 96
9, 557056, Note_off_c, 7, 63, 0
9, 557056, Note_on_c, 7, 62, 96
9, 557568, Note_off_c, 7, 62, 0
9, 557568, Note_on_c, 7, 63, 96
9, 557568, Note_off_c, 7, 62, 0
9, 557568, Note_on_c, 7, 63, 96
9, 558080, Note_off_c, 7, 63, 0
9, 558080, Note_on_c, 7, 67, 96
9, 558080, Note_off_c, 7, 63, 0
9, 558080, Note_on_c, 7, 67, 96
9, 558592, Note_off_c, 7, 67, 0
9, 558592, Note_on_c, 7, 65, 96
9, 558592, Note_off_c, 7, 67, 0
9, 558592, Note_on_c, 7, 65, 96
9, 559104, Note_off_c, 7, 65, 0
9, 559104, Note_off_c, 7, 65, 0
9, 559104, Note_on_c, 7, 62, 96
9, 559104, Note_on_c, 7, 62, 96
9, 559616, Note_off_c, 7, 62, 0
9, 559616, Note_on_c, 7, 62, 96
9, 559872, Note_off_c, 7, 62, 0
9, 559872, Note_on_c, 7, 60, 96
9, 560128, Note_off_c, 7, 60, 0
9, 560128, Note_on_c, 7, 62, 96
9, 560128, Note_off_c, 7, 62, 0
9, 560640, Note_off_c, 7, 62, 0
9, 560640, Note_on_c, 7, 74, 96
9, 561152, Note_on_c, 7, 67, 96
9, 561408, Note_off_c, 7, 67, 0
9, 561408, Note_on_c, 7, 65, 96
9, 561664, Note_off_c, 7, 74, 0
9, 561664, Note_off_c, 7, 65, 0
9, 561664, Note_on_c, 7, 67, 96
9, 562176, Note_off_c, 7, 67, 0
9, 562176, Note_on_c, 7, 60, 96
9, 562688, Note_on_c, 7, 65, 96
9, 562944, Note_off_c, 7, 65, 0
9, 562944, Note_on_c, 7, 64, 96
9, 563200, Note_off_c, 7, 64, 0
9, 563200, Note_on_c, 7, 65, 96
9, 563200, Note_off_c, 7, 60, 0
9, 563712, Note_off_c, 7, 65, 0
9, 563712, Note_on_c, 7, 77, 96
9, 564224, Note_on_c, 7, 69, 96
9, 564480, Note_off_c, 7, 69, 0
9, 564480, Note_on_c, 7, 67, 96
9, 564736, Note_off_c, 7, 77, 0
9, 564736, Note_on_c, 7, 60, 96
9, 564736, Note_off_c, 7, 67, 0
9, 564736, Note_on_c, 7, 69, 96
9, 565248, Note_off_c, 7, 60, 0
9, 565248, Note_off_c, 7, 69, 0
9, 565248, Note_on_c, 7, 65, 96
9, 565248, Note_on_c, 7, 58, 96
9, 565760, Note_off_c, 7, 65, 0
9, 565760, Note_on_c, 7, 64, 96
9, 566272, Note_off_c, 7, 64, 0
9, 566272, Note_on_c, 7, 62, 96
9, 566272, Note_off_c, 7, 58, 0
9, 566272, Note_on_c, 7, 57, 96
9, 566784, Note_off_c, 7, 62, 0
9, 566784, Note_on_c, 7, 67, 96
9, 566784, Note_off_c, 7, 57, 0
9, 566784, Note_on_c, 7, 55, 96
9, 567296, Note_off_c, 7, 55, 0
9, 567296, Note_on_c, 7, 53, 96
9, 567808, Note_off_c, 7, 53, 0
9, 567808, Note_on_c, 7, 55, 96
9, 568320, Note_off_c, 7, 55, 0
9, 568320, Note_on_c, 7, 57, 96
9, 568832, Note_off_c, 7, 67, 0
9, 568832, Note_on_c, 7, 65, 96
9, 568832, Note_off_c, 7, 57, 0
9, 568832, Note_on_c, 7, 58, 96
9, 569344, Note_off_c, 7, 65, 0
9, 569344, Note_on_c, 7, 64, 96
9, 569344, Note_off_c, 7, 58, 0
9, 569344, Note_on_c, 7, 60, 96
9, 569856, Note_off_c, 7, 64, 0
9, 569856, Note_on_c, 7, 65, 96
9, 569856, Note_off_c, 7, 60, 0
9, 569856, Note_on_c, 7, 62, 96
9, 571904, Note_off_c, 7, 65, 0
9, 571904, Note_on_c, 7, 64, 96
9, 571904, Note_off_c, 7, 62, 0
9, 571904, Note_on_c, 7, 64, 96
9, 572416, Note_off_c, 7, 64, 0
9, 572416, Note_on_c, 7, 62, 96
9, 572416, Note_off_c, 7, 64, 0
9, 572416, Note_on_c, 7, 65, 96
9, 572928, Note_off_c, 7, 62, 0
9, 572928, Note_on_c, 7, 70, 96
9, 572928, Note_off_c, 7, 65, 0
9, 572928, Note_on_c, 7, 67, 96
9, 573952, Note_off_c, 7, 67, 0
9, 573952, Note_on_c, 7, 65, 96
9, 574464, Note_off_c, 7, 65, 0
9, 574464, Note_on_c, 7, 64, 96
9, 574976, Note_off_c, 7, 70, 0
9, 574976, Note_on_c, 7, 67, 96
9, 575488, Note_off_c, 7, 67, 0
9, 575488, Note_on_c, 7, 65, 96
9, 575488, Note_off_c, 7, 64, 0
9, 575488, Note_on_c, 7, 62, 96
9, 576000, Note_off_c, 7, 65, 0
9, 576000, Note_on_c, 7, 64, 96
9, 576000, Note_off_c, 7, 62, 0
9, 576000, Note_on_c, 7, 60, 96
9, 577536, Note_off_c, 7, 64, 0
9, 577536, Note_on_c, 7, 65, 96
9, 578560, Note_off_c, 7, 65, 0
9, 578560, Note_on_c, 7, 69, 96
9, 578560, Note_off_c, 7, 60, 0
9, 578560, Note_on_c, 7, 53, 96
9, 579072, Note_off_c, 7, 69, 0
9, 579072, Note_on_c, 7, 72, 96
9, 579072, Note_off_c, 7, 53, 0
9, 579072, Note_on_c, 7, 63, 96
9, 580096, Note_off_c, 7, 63, 0
9, 580096, Note_on_c, 7, 65, 96
9, 580608, Note_off_c, 7, 65, 0
9, 580608, Note_on_c, 7, 63, 96
9, 581120, Note_off_c, 7, 72, 0
9, 581120, Note_on_c, 7, 70, 96
9, 581120, Note_off_c, 7, 63, 0
9, 581120, Note_on_c, 7, 62, 96
9, 581632, Note_off_c, 7, 70, 0
9, 581632, Note_on_c, 7, 69, 96
9, 581632, Note_off_c, 7, 62, 0
9, 581632, Note_on_c, 7, 60, 96
9, 582144, Note_off_c, 7, 69, 0
9, 582144, Note_on_c, 7, 70, 96
9, 582144, Note_off_c, 7, 60, 0
9, 582144, Note_on_c, 7, 62, 96
9, 582656, Note_off_c, 7, 70, 0
9, 582656, Note_on_c, 7, 67, 96
9, 582656, Note_off_c, 7, 62, 0
9, 582656, Note_on_c, 7, 65, 96
9, 583168, Note_off_c, 7, 67, 0
9, 583168, Note_on_c, 7, 69, 96
9, 583168, Note_off_c, 7, 65, 0
9, 583168, Note_on_c, 7, 64, 96
9, 583680, Note_off_c, 7, 69, 0
9, 583680, Note_off_c, 7, 64, 0
9, 583680, Note_on_c, 7, 69, 96
9, 583680, Note_on_c, 7, 65, 96
9, 584704, Note_off_c, 7, 69, 0
9, 584704, Note_on_c, 7, 69, 96
9, 584704, Note_off_c, 7, 65, 0
9, 585216, Note_off_c, 7, 69, 0
9, 585216, Note_on_c, 7, 74, 96
9, 588288, Note_off_c, 7, 74, 0
9, 588288, Note_on_c, 7, 72, 96
9, 590336, Note_off_c, 7, 72, 0
9, 590336, Note_on_c, 7, 70, 96
9, 590592, Note_off_c, 7, 70, 0
9, 590592, Note_on_c, 7, 69, 96
9, 590848, Note_off_c, 7, 69, 0
9, 590848, Note_on_c, 7, 70, 96
9, 591360, Note_off_c, 7, 70, 0
9, 596992, Note_on_c, 7, 67, 96
9, 597504, Note_off_c, 7, 67, 0
9, 597504, Note_on_c, 7, 76, 96
9, 600576, Note_off_c, 7, 76, 0
9, 600576, Note_on_c, 7, 74, 96
9, 602624, Note_off_c, 7, 74, 0
9, 602624, Note_on_c, 7, 72, 96
9, 602880, Note_off_c, 7, 72, 0
9, 602880, Note_on_c, 7, 71, 96
9, 603136, Note_off_c, 7, 71, 0
9, 603136, Note_on_c, 7, 72, 96
9, 603648, Note_off_c, 7, 72, 0
9, 609280, Note_on_c, 7, 57, 96
9, 609280, Note_on_c, 7, 57, 96
9, 609792, Note_off_c, 7, 57, 0
9, 609792, Note_on_c, 7, 69, 96
9, 609792, Note_off_c, 7, 57, 0
9, 609792, Note_on_c, 7, 65, 96
9, 610816, Note_off_c, 7, 69, 0
9, 610816, Note_on_c, 7, 70, 96
9, 610816, Note_off_c, 7, 65, 0
9, 610816, Note_on_c, 7, 62, 96
9, 611328, Note_off_c, 7, 70, 0
9, 611328, Note_on_c, 7, 67, 96
9, 611328, Note_off_c, 7, 62, 0
9, 611328, Note_on_c, 7, 64, 96
9, 612352, Note_off_c, 7, 67, 0
9, 612352, Note_on_c, 7, 65, 96
9, 612352, Note_off_c, 7, 64, 0
9, 612352, Note_on_c, 7, 62, 96
9, 612864, Note_off_c, 7, 65, 0
9, 612864, Note_on_c, 7, 67, 96
9, 612864, Note_off_c, 7, 62, 0
9, 612864, Note_on_c, 7, 64, 96
9, 613376, Note_off_c, 7, 67, 0
9, 613376, Note_on_c, 7, 64, 96
9, 613376, Note_off_c, 7, 64, 0
9, 613376, Note_on_c, 7, 57, 96
9, 613888, Note_off_c, 7, 64, 0
9, 613888, Note_on_c, 7, 65, 96
9, 613888, Note_off_c, 7, 57, 0
9, 613888, Note_on_c, 7, 62, 96
9, 614400, Note_off_c, 7, 65, 0
9, 614400, Note_off_c, 7, 62, 0
9, 614400, Note_on_c, 7, 65, 96
9, 614400, Note_on_c, 7, 62, 96
9, 614912, Note_off_c, 7, 65, 0
9, 614912, Note_on_c, 7, 67, 96
9, 615424, Note_off_c, 7, 67, 0
9, 615424, Note_on_c, 7, 69, 96
9, 615936, Note_off_c, 7, 69, 0
9, 615936, Note_on_c, 7, 70, 96
9, 616448, Note_off_c, 7, 62, 0
9, 616448, Note_on_c, 7, 67, 96
9, 616704, Note_off_c, 7, 67, 0
9, 616704, Note_on_c, 7, 65, 96
9, 616960, Note_off_c, 7, 65, 0
9, 616960, Note_on_c, 7, 67, 96
9, 617472, Note_off_c, 7, 67, 0
9, 617472, Note_on_c, 7, 60, 96
9, 617984, Note_off_c, 7, 70, 0
9, 617984, Note_on_c, 7, 69, 96
9, 618496, Note_off_c, 7, 69, 0
9, 618496, Note_on_c, 7, 67, 96
9, 619008, Note_off_c, 7, 67, 0
9, 619008, Note_on_c, 7, 69, 96
9, 619520, Note_off_c, 7, 60, 0
9, 619520, Note_on_c, 7, 65, 96
9, 619776, Note_off_c, 7, 65, 0
9, 619776, Note_on_c, 7, 64, 96
9, 620032, Note_off_c, 7, 64, 0
9, 620032, Note_on_c, 7, 65, 96
9, 620544, Note_off_c, 7, 65, 0
9, 620544, Note_on_c, 7, 58, 96
9, 621056, Note_off_c, 7, 69, 0
9, 621056, Note_on_c, 7, 67, 96
9, 621568, Note_off_c, 7, 67, 0
9, 621568, Note_on_c, 7, 65, 96
9, 622080, Note_off_c, 7, 65, 0
9, 622080, Note_on_c, 7, 67, 96
9, 622592, Note_off_c, 7, 58, 0
9, 622592, Note_on_c, 7, 64, 96
9, 622848, Note_off_c, 7, 64, 0
9, 622848, Note_on_c, 7, 62, 96
9, 623104, Note_off_c, 7, 62, 0
9, 623104, Note_on_c, 7, 64, 96
9, 623616, Note_off_c, 7, 64, 0
9, 623616, Note_on_c, 7, 57, 96
9, 624128, Note_off_c, 7, 67, 0
9, 624128, Note_on_c, 7, 65, 96
9, 624640, Note_off_c, 7, 65, 0
9, 624640, Note_on_c, 7, 64, 96
9, 625152, Note_off_c, 7, 64, 0
9, 625152, Note_on_c, 7, 65, 96
9, 625664, Note_off_c, 7, 57, 0
9, 625664, Note_on_c, 7, 62, 96
9, 625920, Note_off_c, 7, 62, 0
9, 625920, Note_on_c, 7, 60, 96
9, 626176, Note_off_c, 7, 60, 0
9, 626176, Note_on_c, 7, 62, 96
9, 626688, Note_off_c, 7, 62, 0
9, 626688, Note_on_c, 7, 55, 96
9, 627200, Note_off_c, 7, 65, 0
9, 627200, Note_on_c, 7, 64, 96
9, 627712, Note_off_c, 7, 64, 0
9, 627712, Note_on_c, 7, 62, 96
9, 628224, Note_off_c, 7, 62, 0
9, 628224, Note_on_c, 7, 64, 96
9, 628736, Note_off_c, 7, 64, 0
9, 628736, Note_on_c, 7, 65, 96
9, 628736, Note_off_c, 7, 55, 0
9, 628736, Note_on_c, 7, 60, 96
9, 628992, Note_off_c, 7, 60, 0
9, 628992, Note_on_c, 7, 58, 96
9, 629248, Note_off_c, 7, 65, 0
9, 629248, Note_on_c, 7, 67, 96
9, 629248, Note_off_c, 7, 58, 0
9, 629248, Note_on_c, 7, 57, 96
9, 629504, Note_off_c, 7, 57, 0
9, 629504, Note_on_c, 7, 55, 96
9, 629760, Note_off_c, 7, 55, 0
9, 629760, Note_on_c, 7, 53, 96
9, 630272, Note_off_c, 7, 67, 0
9, 630272, Note_on_c, 7, 65, 96
9, 630272, Note_off_c, 7, 53, 0
9, 630272, Note_on_c, 7, 60, 96
9, 630528, Note_off_c, 7, 65, 0
9, 630528, Note_on_c, 7, 64, 96
9, 630784, Note_off_c, 7, 64, 0
9, 630784, Note_on_c, 7, 65, 96
9, 630784, Note_off_c, 7, 60, 0
9, 630784, Note_on_c, 7, 60, 96
9, 631296, Note_off_c, 7, 60, 0
9, 631296, Note_on_c, 7, 62, 96
9, 631808, Note_off_c, 7, 65, 0
9, 631808, Note_on_c, 7, 67, 96
9, 632320, Note_off_c, 7, 67, 0
9, 632320, Note_on_c, 7, 69, 96
9, 632832, Note_off_c, 7, 69, 0
9, 632832, Note_on_c, 7, 62, 96
9, 633344, Note_off_c, 7, 62, 0
9, 633344, Note_on_c, 7, 64, 96
9, 633856, Note_off_c, 7, 64, 0
9, 633856, Note_on_c, 7, 65, 96
9, 633856, Note_off_c, 7, 62, 0
9, 633856, Note_on_c, 7, 62, 96
9, 634368, Note_off_c, 7, 65, 0
9, 634368, Note_on_c, 7, 67, 96
9, 634368, Note_off_c, 7, 62, 0
9, 634368, Note_on_c, 7, 58, 96
9, 635392, Note_off_c, 7, 67, 0
9, 635392, Note_on_c, 7, 65, 96
9, 635904, Note_off_c, 7, 65, 0
9, 635904, Note_on_c, 7, 64, 96
9, 636416, Note_off_c, 7, 58, 0
9, 636416, Note_on_c, 7, 67, 96
9, 636928, Note_off_c, 7, 64, 0
9, 636928, Note_on_c, 7, 62, 96
9, 636928, Note_off_c, 7, 67, 0
9, 636928, Note_on_c, 7, 65, 96
9, 637440, Note_off_c, 7, 62, 0
9, 637440, Note_on_c, 7, 60, 96
9, 637440, Note_off_c, 7, 65, 0
9, 637440, Note_on_c, 7, 64, 96
9, 638976, Note_off_c, 7, 64, 0
9, 638976, Note_on_c, 7, 65, 96
9, 640000, Note_off_c, 7, 60, 0
9, 640000, Note_on_c, 7, 53, 96
9, 640000, Note_off_c, 7, 65, 0
9, 640000, Note_on_c, 7, 57, 96
9, 640512, Note_off_c, 7, 53, 0
9, 640512, Note_on_c, 7, 63, 96
9, 640512, Note_off_c, 7, 57, 0
9, 640512, Note_on_c, 7, 60, 96
9, 641536, Note_off_c, 7, 63, 0
9, 641536, Note_on_c, 7, 65, 96
9, 642048, Note_off_c, 7, 65, 0
9, 642048, Note_on_c, 7, 63, 96
9, 642560, Note_off_c, 7, 63, 0
9, 642560, Note_on_c, 7, 62, 96
9, 642560, Note_off_c, 7, 60, 0
9, 642560, Note_on_c, 7, 58, 96
9, 643072, Note_off_c, 7, 62, 0
9, 643072, Note_on_c, 7, 60, 96
9, 643072, Note_off_c, 7, 58, 0
9, 643072, Note_on_c, 7, 57, 96
9, 643584, Note_off_c, 7, 60, 0
9, 643584, Note_on_c, 7, 62, 96
9, 643584, Note_off_c, 7, 57, 0
9, 643584, Note_on_c, 7, 58, 96
9, 644096, Note_off_c, 7, 62, 0
9, 644096, Note_on_c, 7, 58, 96
9, 644096, Note_off_c, 7, 58, 0
9, 644096, Note_on_c, 7, 55, 96
9, 644608, Note_off_c, 7, 58, 0
9, 644608, Note_on_c, 7, 60, 96
9, 644608, Note_off_c, 7, 55, 0
9, 644608, Note_on_c, 7, 57, 96
9, 645120, Note_off_c, 7, 60, 0
9, 645120, Note_off_c, 7, 57, 0
9, 645120, Note_on_c, 7, 60, 96
9, 645120, Note_on_c, 7, 57, 96
9, 646144, Note_off_c, 7, 60, 0
9, 646144, Note_off_c, 7, 57, 0
9, 652288, Note_on_c, 7, 69, 96
9, 652288, Note_on_c, 7, 65, 96
9, 652800, Note_off_c, 7, 69, 0
9, 652800, Note_on_c, 7, 69, 96
9, 652800, Note_off_c, 7, 65, 0
9, 652800, Note_on_c, 7, 65, 96
9, 653312, Note_off_c, 7, 69, 0
9, 653312, Note_on_c, 7, 72, 96
9, 653312, Note_off_c, 7, 65, 0
9, 653312, Note_on_c, 7, 69, 96
9, 653824, Note_off_c, 7, 72, 0
9, 653824, Note_on_c, 7, 69, 96
9, 653824, Note_off_c, 7, 69, 0
9, 653824, Note_on_c, 7, 65, 96
9, 654336, Note_off_c, 7, 69, 0
9, 654336, Note_on_c, 7, 65, 96
9, 654336, Note_off_c, 7, 65, 0
9, 654336, Note_on_c, 7, 60, 96
9, 654848, Note_off_c, 7, 65, 0
9, 654848, Note_on_c, 7, 69, 96
9, 654848, Note_off_c, 7, 60, 0
9, 654848, Note_on_c, 7, 65, 96
9, 655360, Note_off_c, 7, 69, 0
9, 655360, Note_on_c, 7, 72, 96
9, 655360, Note_off_c, 7, 65, 0
9, 655360, Note_on_c, 7, 69, 96
9, 655872, Note_off_c, 7, 72, 0
9, 655872, Note_on_c, 7, 69, 96
9, 655872, Note_off_c, 7, 69, 0
9, 655872, Note_on_c, 7, 65, 96
9, 656384, Note_off_c, 7, 69, 0
9, 656384, Note_on_c, 7, 72, 96
9, 656384, Note_off_c, 7, 65, 0
9, 656384, Note_on_c, 7, 69, 96
9, 656896, Note_off_c, 7, 72, 0
9, 656896, Note_on_c, 7, 77, 96
9, 656896, Note_off_c, 7, 69, 0
9, 656896, Note_on_c, 7, 72, 96
9, 657408, Note_off_c, 7, 77, 0
9, 657408, Note_off_c, 7, 72, 0
9, 657408, Note_on_c, 7, 77, 96
9, 657408, Note_on_c, 7, 72, 96
9, 658432, Note_off_c, 7, 77, 0
9, 658432, Note_off_c, 7, 72, 0
9, 664576, Note_on_c, 7, 64, 96
9, 664576, Note_on_c, 7, 60, 96
9, 665088, Note_off_c, 7, 64, 0
9, 665088, Note_on_c, 7, 67, 96
9, 665088, Note_off_c, 7, 60, 0
9, 665088, Note_on_c, 7, 64, 96
9, 665600, Note_off_c, 7, 67, 0
9, 665600, Note_on_c, 7, 64, 96
9, 665600, Note_off_c, 7, 64, 0
9, 665600, Note_on_c, 7, 60, 96
9, 666112, Note_off_c, 7, 64, 0
9, 666112, Note_on_c, 7, 67, 96
9, 666112, Note_off_c, 7, 60, 0
9, 666112, Note_on_c, 7, 64, 96
9, 666624, Note_off_c, 7, 67, 0
9, 666624, Note_on_c, 7, 72, 96
9, 666624, Note_off_c, 7, 64, 0
9, 666624, Note_on_c, 7, 67, 96
9, 667136, Note_off_c, 7, 72, 0
9, 667136, Note_on_c, 7, 67, 96
9, 667136, Note_off_c, 7, 67, 0
9, 667136, Note_on_c, 7, 64, 96
9, 667648, Note_off_c, 7, 67, 0
9, 667648, Note_on_c, 7, 67, 96
9, 667648, Note_off_c, 7, 64, 0
9, 667648, Note_on_c, 7, 64, 96
9, 668160, Note_off_c, 7, 67, 0
9, 668160, Note_on_c, 7, 67, 96
9, 668160, Note_off_c, 7, 64, 0
9, 668160, Note_on_c, 7, 64, 96
9, 668672, Note_off_c, 7, 67, 0
9, 668672, Note_on_c, 7, 64, 96
9, 668672, Note_off_c, 7, 64, 0
9, 668672, Note_on_c, 7, 60, 96
9, 669184, Note_off_c, 7, 64, 0
9, 669184, Note_on_c, 7, 64, 96
9, 669184, Note_off_c, 7, 60, 0
9, 669184, Note_on_c, 7, 60, 96
9, 669696, Note_off_c, 7, 64, 0
9, 669696, Note_off_c, 7, 60, 0
9, 669696, Note_on_c, 7, 64, 96
9, 669696, Note_on_c, 7, 60, 96
9, 670720, Note_off_c, 7, 64, 0
9, 670720, Note_off_c, 7, 60, 0
9, 676864, Note_on_c, 7, 65, 96
9, 676864, Note_on_c, 7, 65, 96
9, 677376, Note_off_c, 7, 65, 0
9, 677376, Note_on_c, 7, 72, 96
9, 677376, Note_off_c, 7, 65, 0
9, 677376, Note_on_c, 7, 65, 96
9, 677888, Note_off_c, 7, 72, 0
9, 677888, Note_on_c, 7, 75, 96
9, 677888, Note_off_c, 7, 65, 0
9, 677888, Note_on_c, 7, 72, 96
9, 678400, Note_off_c, 7, 75, 0
9, 678400, Note_on_c, 7, 74, 96
9, 678400, Note_off_c, 7, 72, 0
9, 678400, Note_on_c, 7, 70, 96
9, 678912, Note_off_c, 7, 74, 0
9, 678912, Note_on_c, 7, 72, 96
9, 678912, Note_off_c, 7, 70, 0
9, 678912, Note_on_c, 7, 65, 96
9, 679424, Note_off_c, 7, 72, 0
9, 679424, Note_on_c, 7, 75, 96
9, 679424, Note_off_c, 7, 65, 0
9, 679424, Note_on_c, 7, 72, 96
9, 679936, Note_off_c, 7, 75, 0
9, 679936, Note_on_c, 7, 74, 96
9, 679936, Note_off_c, 7, 72, 0
9, 679936, Note_on_c, 7, 70, 96
9, 680448, Note_off_c, 7, 74, 0
9, 680448, Note_on_c, 7, 72, 96
9, 680448, Note_off_c, 7, 70, 0
9, 680448, Note_on_c, 7, 65, 96
9, 680960, Note_off_c, 7, 72, 0
9, 680960, Note_on_c, 7, 74, 96
9, 680960, Note_off_c, 7, 65, 0
9, 680960, Note_on_c, 7, 69, 96
9, 681216, Note_off_c, 7, 74, 0
9, 681216, Note_on_c, 7, 72, 96
9, 681472, Note_off_c, 7, 72, 0
9, 681472, Note_on_c, 7, 70, 96
9, 681472, Note_off_c, 7, 69, 0
9, 681472, Note_on_c, 7, 66, 96
9, 681728, Note_off_c, 7, 70, 0
9, 681728, Note_on_c, 7, 69, 96
9, 681984, Note_off_c, 7, 69, 0
9, 681984, Note_off_c, 7, 66, 0
9, 681984, Note_on_c, 7, 70, 96
9, 681984, Note_on_c, 7, 62, 96
9, 682496, Note_off_c, 7, 70, 0
9, 682496, Note_on_c, 7, 72, 96
9, 682752, Note_off_c, 7, 72, 0
9, 682752, Note_on_c, 7, 70, 96
9, 683008, Note_off_c, 7, 70, 0
9, 683008, Note_on_c, 7, 69, 96
9, 683008, Note_off_c, 7, 62, 0
9, 683008, Note_on_c, 7, 60, 96
9, 683264, Note_off_c, 7, 69, 0
9, 683264, Note_on_c, 7, 67, 96
9, 683520, Note_off_c, 7, 67, 0
9, 683520, Note_on_c, 7, 69, 96
9, 683520, Note_off_c, 7, 60, 0
9, 683520, Note_on_c, 7, 60, 96
9, 684032, Note_off_c, 7, 69, 0
9, 684032, Note_on_c, 7, 65, 96
9, 684032, Note_off_c, 7, 60, 0
9, 684032, Note_on_c, 7, 57, 96
9, 684544, Note_off_c, 7, 65, 0
9, 684544, Note_on_c, 7, 67, 96
9, 684544, Note_off_c, 7, 57, 0
9, 684544, Note_on_c, 7, 60, 96
9, 685056, Note_off_c, 7, 67, 0
9, 685056, Note_on_c, 7, 69, 96
9, 685056, Note_off_c, 7, 60, 0
9, 685056, Note_on_c, 7, 65, 96
9, 685568, Note_off_c, 7, 69, 0
9, 685568, Note_on_c, 7, 65, 96
9, 685568, Note_off_c, 7, 65, 0
9, 685568, Note_on_c, 7, 57, 96
9, 686080, Note_off_c, 7, 65, 0
9, 686080, Note_on_c, 7, 67, 96
9, 686080, Note_off_c, 7, 57, 0
9, 686080, Note_on_c, 7, 60, 96
9, 686592, Note_off_c, 7, 67, 0
9, 686592, Note_on_c, 7, 69, 96
9, 686592, Note_off_c, 7, 60, 0
9, 686592, Note_on_c, 7, 65, 96
9, 687104, Note_off_c, 7, 69, 0
9, 687104, Note_on_c, 7, 67, 96
9, 687104, Note_off_c, 7, 65, 0
9, 687104, Note_on_c, 7, 64, 96
9, 687616, Note_off_c, 7, 67, 0
9, 687616, Note_on_c, 7, 69, 96
9, 687616, Note_off_c, 7, 64, 0
9, 687616, Note_on_c, 7, 65, 96
9, 688128, Note_off_c, 7, 69, 0
9, 688128, Note_off_c, 7, 65, 0
9, 688128, Note_on_c, 7, 67, 96
9, 688128, Note_on_c, 7, 64, 96
9, 689152, Note_off_c, 7, 67, 0
9, 689152, Note_on_c, 7, 65, 96
9, 689152, Note_off_c, 7, 64, 0
9, 689152, Note_on_c, 7, 60, 96
9, 689664, Note_off_c, 7, 65, 0
9, 689664, Note_on_c, 7, 72, 96
9, 689664, Note_off_c, 7, 60, 0
9, 689664, Note_on_c, 7, 69, 96
9, 690688, Note_off_c, 7, 72, 0
9, 690688, Note_on_c, 7, 74, 96
9, 690688, Note_off_c, 7, 69, 0
9, 690688, Note_on_c, 7, 70, 96
9, 691200, Note_off_c, 7, 74, 0
9, 691200, Note_on_c, 7, 70, 96
9, 691200, Note_off_c, 7, 70, 0
9, 691200, Note_on_c, 7, 67, 96
9, 692224, Note_off_c, 7, 70, 0
9, 692224, Note_on_c, 7, 69, 96
9, 692224, Note_off_c, 7, 67, 0
9, 692224, Note_on_c, 7, 65, 96
9, 692736, Note_off_c, 7, 69, 0
9, 692736, Note_on_c, 7, 70, 96
9, 692736, Note_off_c, 7, 65, 0
9, 692736, Note_on_c, 7, 67, 96
9, 693248, Note_off_c, 7, 70, 0
9, 693248, Note_on_c, 7, 67, 96
9, 693248, Note_off_c, 7, 67, 0
9, 693248, Note_on_c, 7, 60, 96
9, 693760, Note_off_c, 7, 67, 0
9, 693760, Note_on_c, 7, 69, 96
9, 693760, Note_off_c, 7, 60, 0
9, 693760, Note_on_c, 7, 65, 96
9, 694272, Note_off_c, 7, 69, 0
9, 694272, Note_off_c, 7, 65, 0
9, 694272, Note_on_c, 7, 69, 96
9, 694272, Note_on_c, 7, 65, 96
9, 695296, Note_off_c, 7, 69, 0
9, 695296, Note_on_c, 7, 74, 96
9, 695296, Note_off_c, 7, 65, 0
9, 695296, Note_on_c, 7, 65, 96
9, 695808, Note_off_c, 7, 74, 0
9, 695808, Note_on_c, 7, 67, 96
9, 695808, Note_off_c, 7, 65, 0
9, 695808, Note_on_c, 7, 64, 96
9, 696832, Note_off_c, 7, 67, 0
9, 696832, Note_on_c, 7, 72, 96
9, 696832, Note_off_c, 7, 64, 0
9, 696832, Note_on_c, 7, 69, 96
9, 697344, Note_off_c, 7, 72, 0
9, 697344, Note_on_c, 7, 65, 96
9, 697344, Note_off_c, 7, 69, 0
9, 697344, Note_on_c, 7, 62, 96
9, 698368, Note_off_c, 7, 65, 0
9, 698368, Note_on_c, 7, 70, 96
9, 698368, Note_off_c, 7, 62, 0
9, 698368, Note_on_c, 7, 67, 96
9, 698880, Note_off_c, 7, 70, 0
9, 698880, Note_on_c, 7, 64, 96
9, 698880, Note_off_c, 7, 67, 0
9, 698880, Note_on_c, 7, 60, 96
9, 699904, Note_off_c, 7, 64, 0
9, 699904, Note_on_c, 7, 69, 96
9, 699904, Note_off_c, 7, 60, 0
9, 699904, Note_on_c, 7, 65, 96
9, 700416, Note_off_c, 7, 69, 0
9, 700416, Note_off_c, 7, 65, 0
9, 700416, Note_on_c, 7, 62, 96
9, 700416, Note_on_c, 7, 58, 96
9, 701440, Note_off_c, 7, 62, 0
9, 701440, Note_on_c, 7, 67, 96
9, 701440, Note_off_c, 7, 58, 0
9, 701440, Note_on_c, 7, 60, 96
9, 701952, Note_off_c, 7, 67, 0
9, 701952, Note_on_c, 7, 60, 96
9, 701952, Note_off_c, 7, 60, 0
9, 701952, Note_on_c, 7, 57, 96
9, 702976, Note_off_c, 7, 60, 0
9, 702976, Note_on_c, 7, 65, 96
9, 702976, Note_off_c, 7, 57, 0
9, 702976, Note_on_c, 7, 59, 96
9, 703488, Note_off_c, 7, 65, 0
9, 703488, Note_on_c, 7, 64, 96
9, 703488, Note_off_c, 7, 59, 0
9, 703488, Note_on_c, 7, 55, 96
9, 704000, Note_off_c, 7, 64, 0
9, 704000, Note_on_c, 7, 65, 96
9, 704512, Note_off_c, 7, 65, 0
9, 704512, Note_on_c, 7, 67, 96
9, 704512, Note_off_c, 7, 55, 0
9, 704512, Note_on_c, 7, 64, 96
9, 705024, Note_off_c, 7, 67, 0
9, 705024, Note_on_c, 7, 64, 96
9, 705024, Note_off_c, 7, 64, 0
9, 705024, Note_on_c, 7, 60, 96
9, 705536, Note_off_c, 7, 64, 0
9, 705536, Note_on_c, 7, 65, 96
9, 706048, Note_off_c, 7, 65, 0
9, 706048, Note_on_c, 7, 67, 96
9, 706048, Note_off_c, 7, 60, 0
9, 706048, Note_on_c, 7, 64, 96
9, 706560, Note_off_c, 7, 67, 0
9, 706560, Note_off_c, 7, 64, 0
9, 706560, Note_on_c, 7, 65, 96
9, 706560, Note_on_c, 7, 60, 96
9, 707072, Note_off_c, 7, 65, 0
9, 707072, Note_on_c, 7, 69, 96
9, 707072, Note_off_c, 7, 60, 0
9, 707072, Note_on_c, 7, 65, 96
9, 707584, Note_off_c, 7, 69, 0
9, 707584, Note_on_c, 7, 65, 96
9, 707584, Note_off_c, 7, 65, 0
9, 707584, Note_on_c, 7, 60, 96
9, 708096, Note_off_c, 7, 65, 0
9, 708096, Note_on_c, 7, 60, 96
9, 708096, Note_off_c, 7, 60, 0
9, 708096, Note_on_c, 7, 57, 96
9, 709120, Note_off_c, 7, 60, 0
9, 709120, Note_on_c, 7, 65, 96
9, 709120, Note_off_c, 7, 57, 0
9, 709120, Note_on_c, 7, 60, 96
9, 709632, Note_off_c, 7, 65, 0
9, 709632, Note_on_c, 7, 64, 96
9, 709632, Note_off_c, 7, 60, 0
9, 709632, Note_on_c, 7, 58, 96
9, 710144, Note_off_c, 7, 64, 0
9, 710144, Note_on_c, 7, 65, 96
9, 710656, Note_off_c, 7, 65, 0
9, 710656, Note_on_c, 7, 67, 96
9, 710656, Note_off_c, 7, 58, 0
9, 710656, Note_on_c, 7, 58, 96
9, 711168, Note_off_c, 7, 67, 0
9, 711168, Note_on_c, 7, 64, 96
9, 711168, Note_off_c, 7, 58, 0
9, 711168, Note_on_c, 7, 55, 96
9, 711680, Note_off_c, 7, 64, 0
9, 711680, Note_on_c, 7, 65, 96
9, 711680, Note_off_c, 7, 55, 0
9, 711680, Note_on_c, 7, 57, 96
9, 712192, Note_off_c, 7, 65, 0
9, 712192, Note_on_c, 7, 67, 96
9, 712192, Note_off_c, 7, 57, 0
9, 712192, Note_on_c, 7, 58, 96
9, 712704, Note_off_c, 7, 67, 0
9, 712704, Note_off_c, 7, 58, 0
9, 712704, Note_on_c, 7, 65, 96
9, 712704, Note_on_c, 7, 57, 96
9, 713728, Note_off_c, 7, 65, 0
9, 713728, Note_on_c, 7, 60, 96
9, 714240, Note_off_c, 7, 60, 0
9, 714240, Note_on_c, 7, 65, 96
9, 714240, Note_off_c, 7, 57, 0
9, 715264, Note_on_c, 7, 58, 96
9, 715776, Note_off_c, 7, 58, 0
9, 715776, Note_on_c, 7, 57, 96
9, 716288, Note_off_c, 7, 65, 0
9, 716288, Note_on_c, 7, 70, 96
9, 716800, Note_off_c, 7, 70, 0
9, 716800, Note_on_c, 7, 67, 96
9, 716800, Note_off_c, 7, 57, 0
9, 716800, Note_on_c, 7, 62, 96
9, 717312, Note_off_c, 7, 67, 0
9, 717312, Note_on_c, 7, 64, 96
9, 717312, Note_off_c, 7, 62, 0
9, 717312, Note_on_c, 7, 60, 96
9, 717824, Note_off_c, 7, 60, 0
9, 717824, Note_on_c, 7, 58, 96
9, 718080, Note_off_c, 7, 58, 0
9, 718080, Note_on_c, 7, 57, 96
9, 718336, Note_off_c, 7, 64, 0
9, 718336, Note_on_c, 7, 65, 96
9, 718336, Note_off_c, 7, 57, 0
9, 718336, Note_on_c, 7, 58, 96
9, 718848, Note_off_c, 7, 65, 0
9, 718848, Note_off_c, 7, 58, 0
9, 718848, Note_on_c, 7, 65, 96
9, 718848, Note_on_c, 7, 57, 96
9, 719872, Note_off_c, 7, 65, 0
9, 719872, Note_on_c, 7, 69, 96
9, 719872, Note_off_c, 7, 57, 0
9, 719872, Note_on_c, 7, 65, 96
9, 720384, Note_off_c, 7, 69, 0
9, 720384, Note_on_c, 7, 69, 96
9, 720384, Note_off_c, 7, 65, 0
9, 720384, Note_on_c, 7, 65, 96
9, 720896, Note_off_c, 7, 69, 0
9, 720896, Note_on_c, 7, 72, 96
9, 720896, Note_off_c, 7, 65, 0
9, 720896, Note_on_c, 7, 69, 96
9, 721408, Note_off_c, 7, 72, 0
9, 721408, Note_on_c, 7, 69, 96
9, 721408, Note_off_c, 7, 69, 0
9, 721408, Note_on_c, 7, 65, 96
9, 721920, Note_off_c, 7, 69, 0
9, 721920, Note_on_c, 7, 65, 96
9, 721920, Note_off_c, 7, 65, 0
9, 721920, Note_on_c, 7, 60, 96
9, 722432, Note_off_c, 7, 65, 0
9, 722432, Note_on_c, 7, 69, 96
9, 722432, Note_off_c, 7, 60, 0
9, 722432, Note_on_c, 7, 65, 96
9, 722944, Note_off_c, 7, 69, 0
9, 722944, Note_on_c, 7, 72, 96
9, 722944, Note_off_c, 7, 65, 0
9, 722944, Note_on_c, 7, 69, 96
9, 723456, Note_off_c, 7, 72, 0
9, 723456, Note_on_c, 7, 69, 96
9, 723456, Note_off_c, 7, 69, 0
9, 723456, Note_on_c, 7, 65, 96
9, 723968, Note_off_c, 7, 69, 0
9, 723968, Note_on_c, 7, 72, 96
9, 723968, Note_off_c, 7, 65, 0
9, 723968, Note_on_c, 7, 69, 96
9, 724480, Note_off_c, 7, 72, 0
9, 724480, Note_on_c, 7, 77, 96
9, 724480, Note_off_c, 7, 69, 0
9, 724480, Note_on_c, 7, 72, 96
9, 724992, Note_off_c, 7, 77, 0
9, 724992, Note_off_c, 7, 72, 0
9, 724992, Note_on_c, 7, 77, 96
9, 724992, Note_on_c, 7, 72, 96
9, 728064, Note_off_c, 7, 77, 0
9, 728064, Note_off_c, 7, 72, 0
9, 731136, End_track
0, 0, End_of_file
