0, 0, Header, 1, 6, 1024
1, 0, Start_track
1, 0, Time_signature, 12, 3, 36, 8
1, 0, Key_signature, 1, "minor"
1, 0, Tempo, 759493
1, 238081, End_track
2, 0, Start_track
2, 0, Title_t, "Instrument 1"
2, 30720, Note_on_c, 0, 64, 96
2, 32256, Note_off_c, 0, 64, 0
2, 32256, Note_on_c, 0, 71, 96
2, 33792, Note_off_c, 0, 71, 0
2, 33792, Note_on_c, 0, 71, 96
2, 35328, Note_off_c, 0, 71, 0
2, 35328, Note_on_c, 0, 69, 96
2, 36864, Note_off_c, 0, 69, 0
2, 36864, Note_on_c, 0, 71, 96
2, 38400, Note_off_c, 0, 71, 0
2, 38400, Note_on_c, 0, 64, 96
2, 39424, Note_off_c, 0, 64, 0
2, 39424, Note_on_c, 0, 66, 96
2, 39936, Note_off_c, 0, 66, 0
2, 39936, Note_on_c, 0, 67, 96
2, 41472, Note_off_c, 0, 67, 0
2, 41472, Note_on_c, 0, 67, 96
2, 43008, Note_off_c, 0, 67, 0
2, 43008, Note_on_c, 0, 67, 96
2, 45056, Note_off_c, 0, 67, 0
2, 45056, Note_on_c, 0, 66, 96
2, 45568, Note_off_c, 0, 66, 0
2, 45568, Note_on_c, 0, 67, 96
2, 46080, Note_off_c, 0, 67, 0
2, 46080, Note_on_c, 0, 66, 96
2, 49152, Note_off_c, 0, 66, 0
2, 49152, Note_on_c, 0, 64, 96
2, 56832, Note_off_c, 0, 64, 0
2, 79872, Note_on_c, 0, 67, 96
2, 81408, Note_off_c, 0, 67, 0
2, 81408, Note_on_c, 0, 67, 96
2, 82944, Note_off_c, 0, 67, 0
2, 82944, Note_on_c, 0, 67, 96
2, 84480, Note_off_c, 0, 67, 0
2, 84480, Note_on_c, 0, 64, 96
2, 86016, Note_off_c, 0, 64, 0
2, 86016, Note_on_c, 0, 67, 96
2, 87552, Note_off_c, 0, 67, 0
2, 87552, Note_on_c, 0, 69, 96
2, 89088, Note_off_c, 0, 69, 0
2, 89088, Note_on_c, 0, 71, 96
2, 90624, Note_off_c, 0, 71, 0
2, 90624, Note_on_c, 0, 69, 96
2, 92160, Note_off_c, 0, 69, 0
2, 92160, Note_on_c, 0, 67, 96
2, 93696, Note_off_c, 0, 67, 0
2, 93696, Note_on_c, 0, 66, 96
2, 95232, Note_off_c, 0, 66, 0
2, 95232, Note_on_c, 0, 64, 96
2, 102912, Note_off_c, 0, 64, 0
2, 125952, Note_on_c, 0, 67, 96
2, 127488, Note_off_c, 0, 67, 0
2, 127488, Note_on_c, 0, 67, 96
2, 129024, Note_off_c, 0, 67, 0
2, 129024, Note_on_c, 0, 67, 96
2, 130304, Note_off_c, 0, 67, 0
2, 130304, Note_on_c, 0, 65, 96
2, 130560, Note_off_c, 0, 65, 0
2, 130560, Note_on_c, 0, 64, 96
2, 131840, Note_off_c, 0, 64, 0
2, 131840, Note_on_c, 0, 66, 96
2, 132096, Note_off_c, 0, 66, 0
2, 132096, Note_on_c, 0, 67, 96
2, 133632, Note_off_c, 0, 67, 0
2, 133632, Note_on_c, 0, 69, 96
2, 135168, Note_off_c, 0, 69, 0
2, 135168, Note_on_c, 0, 71, 96
2, 136704, Note_off_c, 0, 71, 0
2, 136704, Note_on_c, 0, 69, 96
2, 138240, Note_off_c, 0, 69, 0
2, 138240, Note_on_c, 0, 67, 96
2, 141312, Note_off_c, 0, 67, 0
2, 141568, Note_on_c, 0, 67, 96
2, 141824, Note_off_c, 0, 67, 0
2, 141824, Note_on_c, 0, 69, 96
2, 142080, Note_off_c, 0, 69, 0
2, 142080, Note_on_c, 0, 71, 96
2, 142336, Note_off_c, 0, 71, 0
2, 142336, Note_on_c, 0, 72, 96
2, 142592, Note_off_c, 0, 72, 0
2, 142592, Note_on_c, 0, 74, 96
2, 142848, Note_off_c, 0, 74, 0
2, 142848, Note_on_c, 0, 76, 96
2, 143104, Note_off_c, 0, 76, 0
2, 143104, Note_on_c, 0, 71, 96
2, 143360, Note_off_c, 0, 71, 0
2, 143360, Note_on_c, 0, 72, 96
2, 143616, Note_off_c, 0, 72, 0
2, 143616, Note_on_c, 0, 74, 96
2, 143872, Note_off_c, 0, 74, 0
2, 143872, Note_on_c, 0, 76, 96
2, 144128, Note_off_c, 0, 76, 0
2, 144128, Note_on_c, 0, 78, 96
2, 144384, Note_off_c, 0, 78, 0
2, 144384, Note_on_c, 0, 79, 96
2, 145920, Note_off_c, 0, 79, 0
2, 161280, Note_on_c, 0, 69, 96
2, 162816, Note_off_c, 0, 69, 0
2, 162816, Note_on_c, 0, 71, 96
2, 164352, Note_off_c, 0, 71, 0
2, 164352, Note_on_c, 0, 69, 96
2, 165632, Note_off_c, 0, 69, 0
2, 165632, Note_on_c, 0, 67, 96
2, 165888, Note_off_c, 0, 67, 0
2, 165888, Note_on_c, 0, 66, 96
2, 167168, Note_off_c, 0, 66, 0
2, 167168, Note_on_c, 0, 64, 96
2, 167424, Note_off_c, 0, 64, 0
2, 167424, Note_on_c, 0, 62, 96
2, 168704, Note_off_c, 0, 62, 0
2, 168704, Note_on_c, 0, 64, 96
2, 168960, Note_off_c, 0, 64, 0
2, 168960, Note_on_c, 0, 66, 96
2, 170496, Note_off_c, 0, 66, 0
2, 170496, Note_on_c, 0, 64, 96
2, 172032, Note_off_c, 0, 64, 0
2, 172032, Note_on_c, 0, 62, 96
2, 173568, Note_off_c, 0, 62, 0
2, 173568, Note_on_c, 0, 61, 96
2, 175104, Note_off_c, 0, 61, 0
2, 175104, Note_on_c, 0, 59, 96
2, 175616, Note_off_c, 0, 59, 0
2, 175616, Note_on_c, 0, 66, 96
2, 176128, Note_off_c, 0, 66, 0
2, 176128, Note_on_c, 0, 71, 96
2, 177152, Note_off_c, 0, 71, 0
2, 177152, Note_on_c, 0, 70, 96
2, 178176, Note_off_c, 0, 70, 0
2, 192000, Note_on_c, 0, 74, 96
2, 193536, Note_off_c, 0, 74, 0
2, 193536, Note_on_c, 0, 76, 96
2, 195072, Note_off_c, 0, 76, 0
2, 195072, Note_on_c, 0, 74, 96
2, 196352, Note_off_c, 0, 74, 0
2, 196352, Note_on_c, 0, 72, 96
2, 196608, Note_off_c, 0, 72, 0
2, 196608, Note_on_c, 0, 71, 96
2, 197888, Note_off_c, 0, 71, 0
2, 197888, Note_on_c, 0, 69, 96
2, 198144, Note_off_c, 0, 69, 0
2, 198144, Note_on_c, 0, 67, 96
2, 199424, Note_off_c, 0, 67, 0
2, 199424, Note_on_c, 0, 69, 96
2, 199680, Note_off_c, 0, 69, 0
2, 199680, Note_on_c, 0, 71, 96
2, 201216, Note_off_c, 0, 71, 0
2, 201216, Note_on_c, 0, 69, 96
2, 202752, Note_off_c, 0, 69, 0
2, 202752, Note_on_c, 0, 67, 96
2, 204288, Note_off_c, 0, 67, 0
2, 204288, Note_on_c, 0, 66, 96
2, 205824, Note_off_c, 0, 66, 0
2, 205824, Note_on_c, 0, 64, 96
2, 209408, Note_off_c, 0, 64, 0
2, 218624, Note_on_c, 0, 80, 96
2, 222720, Note_off_c, 0, 80, 0
2, 222720, Note_on_c, 0, 83, 96
2, 222976, Note_off_c, 0, 83, 0
2, 222976, Note_on_c, 0, 81, 96
2, 223232, Note_off_c, 0, 81, 0
2, 223232, Note_on_c, 0, 80, 96
2, 223488, Note_off_c, 0, 80, 0
2, 223488, Note_on_c, 0, 78, 96
2, 223744, Note_off_c, 0, 78, 0
2, 223744, Note_on_c, 0, 76, 96
2, 224000, Note_off_c, 0, 76, 0
2, 224000, Note_on_c, 0, 74, 96
2, 224256, Note_off_c, 0, 74, 0
2, 224256, Note_on_c, 0, 72, 96
2, 224512, Note_off_c, 0, 72, 0
2, 224512, Note_on_c, 0, 81, 96
2, 224768, Note_off_c, 0, 81, 0
2, 224768, Note_on_c, 0, 80, 96
2, 225024, Note_off_c, 0, 80, 0
2, 225024, Note_on_c, 0, 78, 96
2, 225280, Note_off_c, 0, 78, 0
2, 225280, Note_on_c, 0, 76, 96
2, 225536, Note_off_c, 0, 76, 0
2, 225536, Note_on_c, 0, 74, 96
2, 225792, Note_off_c, 0, 74, 0
2, 225792, Note_on_c, 0, 72, 96
2, 227584, Note_off_c, 0, 72, 0
2, 227584, Note_on_c, 0, 71, 96
2, 227840, Note_off_c, 0, 71, 0
2, 227840, Note_on_c, 0, 69, 96
2, 228096, Note_off_c, 0, 69, 0
2, 228096, Note_on_c, 0, 67, 96
2, 228352, Note_off_c, 0, 67, 0
2, 228352, Note_on_c, 0, 66, 96
2, 228608, Note_off_c, 0, 66, 0
2, 228608, Note_on_c, 0, 64, 96
2, 228864, Note_off_c, 0, 64, 0
2, 228864, Note_on_c, 0, 63, 96
2, 229120, Note_on_c, 0, 59, 96
2, 229376, Note_off_c, 0, 59, 0
2, 229376, Note_on_c, 0, 60, 96
2, 229632, Note_off_c, 0, 60, 0
2, 229632, Note_on_c, 0, 57, 96
2, 229888, Note_off_c, 0, 57, 0
2, 229888, Note_on_c, 0, 59, 96
2, 230400, Note_off_c, 0, 63, 0
2, 230400, Note_off_c, 0, 59, 0
2, 230656, Note_on_c, 0, 59, 96
2, 230912, Note_off_c, 0, 59, 0
2, 230912, Note_on_c, 0, 64, 96
2, 231168, Note_off_c, 0, 64, 0
2, 231168, Note_on_c, 0, 62, 96
2, 231424, Note_off_c, 0, 62, 0
2, 231424, Note_on_c, 0, 64, 96
2, 238080, Note_off_c, 0, 64, 0
2, 238081, End_track
3, 0, Start_track
3, 0, Title_t, "Instrument 2"
3, 6144, Note_on_c, 1, 59, 96
3, 6656, Note_off_c, 1, 59, 0
3, 6656, Note_on_c, 1, 64, 96
3, 7168, Note_off_c, 1, 64, 0
3, 7168, Note_on_c, 1, 63, 96
3, 7680, Note_off_c, 1, 63, 0
3, 7680, Note_on_c, 1, 64, 96
3, 9728, Note_off_c, 1, 64, 0
3, 9728, Note_on_c, 1, 66, 96
3, 10240, Note_off_c, 1, 66, 0
3, 10240, Note_on_c, 1, 64, 96
3, 10752, Note_off_c, 1, 64, 0
3, 10752, Note_on_c, 1, 62, 96
3, 12800, Note_off_c, 1, 62, 0
3, 12800, Note_on_c, 1, 64, 96
3, 13312, Note_off_c, 1, 64, 0
3, 13312, Note_on_c, 1, 62, 96
3, 13824, Note_off_c, 1, 62, 0
3, 13824, Note_on_c, 1, 60, 96
3, 15360, Note_off_c, 1, 60, 0
3, 15360, Note_on_c, 1, 59, 96
3, 17408, Note_off_c, 1, 59, 0
3, 17408, Note_on_c, 1, 64, 96
3, 17920, Note_off_c, 1, 64, 0
3, 17920, Note_on_c, 1, 63, 96
3, 18432, Note_off_c, 1, 63, 0
3, 18432, Note_on_c, 1, 64, 96
3, 19456, Note_off_c, 1, 64, 0
3, 19456, Note_on_c, 1, 52, 96
3, 19968, Note_off_c, 1, 52, 0
3, 19968, Note_on_c, 1, 57, 96
3, 22016, Note_off_c, 1, 57, 0
3, 22016, Note_on_c, 1, 55, 96
3, 22528, Note_off_c, 1, 55, 0
3, 22528, Note_on_c, 1, 54, 96
3, 23040, Note_off_c, 1, 54, 0
3, 23040, Note_on_c, 1, 55, 96
3, 23552, Note_off_c, 1, 55, 0
3, 23552, Note_on_c, 1, 60, 96
3, 24064, Note_off_c, 1, 60, 0
3, 24064, Note_on_c, 1, 59, 96
3, 24576, Note_off_c, 1, 59, 0
3, 24576, Note_on_c, 1, 60, 96
3, 25088, Note_off_c, 1, 60, 0
3, 25088, Note_on_c, 1, 65, 96
3, 25600, Note_off_c, 1, 65, 0
3, 25600, Note_on_c, 1, 64, 96
3, 26112, Note_off_c, 1, 64, 0
3, 26112, Note_on_c, 1, 65, 96
3, 26624, Note_off_c, 1, 65, 0
3, 26624, Note_on_c, 1, 63, 96
3, 27136, Note_off_c, 1, 63, 0
3, 27136, Note_on_c, 1, 64, 96
3, 29184, Note_off_c, 1, 64, 0
3, 29184, Note_on_c, 1, 63, 96
3, 30720, Note_off_c, 1, 63, 0
3, 30720, Note_on_c, 1, 64, 96
3, 32768, Note_off_c, 1, 64, 0
3, 32768, Note_on_c, 1, 67, 96
3, 33280, Note_off_c, 1, 67, 0
3, 33280, Note_on_c, 1, 66, 96
3, 33792, Note_off_c, 1, 66, 0
3, 33792, Note_on_c, 1, 67, 96
3, 34816, Note_off_c, 1, 67, 0
3, 34816, Note_on_c, 1, 64, 96
3, 35328, Note_off_c, 1, 64, 0
3, 35328, Note_on_c, 1, 61, 96
3, 35840, Note_off_c, 1, 61, 0
3, 35840, Note_on_c, 1, 66, 96
3, 36352, Note_off_c, 1, 66, 0
3, 36352, Note_on_c, 1, 64, 96
3, 36864, Note_off_c, 1, 64, 0
3, 36864, Note_on_c, 1, 66, 96
3, 37888, Note_off_c, 1, 66, 0
3, 37888, Note_on_c, 1, 63, 96
3, 38400, Note_off_c, 1, 63, 0
3, 38400, Note_on_c, 1, 59, 96
3, 38912, Note_off_c, 1, 59, 0
3, 38912, Note_on_c, 1, 64, 96
3, 39424, Note_off_c, 1, 64, 0
3, 39424, Note_on_c, 1, 62, 96
3, 39936, Note_off_c, 1, 62, 0
3, 39936, Note_on_c, 1, 64, 96
3, 43520, Note_off_c, 1, 64, 0
3, 43520, Note_on_c, 1, 64, 96
3, 44032, Note_off_c, 1, 64, 0
3, 44032, Note_on_c, 1, 63, 96
3, 44544, Note_off_c, 1, 63, 0
3, 44544, Note_on_c, 1, 64, 96
3, 47616, Note_off_c, 1, 64, 0
3, 47616, Note_on_c, 1, 63, 96
3, 48128, Note_off_c, 1, 63, 0
3, 48128, Note_on_c, 1, 59, 96
3, 48640, Note_off_c, 1, 59, 0
3, 48640, Note_on_c, 1, 60, 96
3, 49152, Note_off_c, 1, 60, 0
3, 49152, Note_on_c, 1, 56, 96
3, 49664, Note_off_c, 1, 56, 0
3, 49664, Note_on_c, 1, 60, 96
3, 50176, Note_off_c, 1, 60, 0
3, 50176, Note_on_c, 1, 59, 96
3, 50688, Note_off_c, 1, 59, 0
3, 50688, Note_on_c, 1, 60, 96
3, 55296, Note_off_c, 1, 60, 0
3, 55296, Note_on_c, 1, 59, 96
3, 56832, Note_off_c, 1, 59, 0
3, 61952, Note_on_c, 1, 67, 96
3, 62464, Note_off_c, 1, 67, 0
3, 62464, Note_on_c, 1, 62, 96
3, 62976, Note_off_c, 1, 62, 0
3, 62976, Note_on_c, 1, 64, 96
3, 63488, Note_off_c, 1, 64, 0
3, 63488, Note_on_c, 1, 62, 96
3, 64000, Note_off_c, 1, 62, 0
3, 64000, Note_on_c, 1, 60, 96
3, 64512, Note_off_c, 1, 60, 0
3, 64512, Note_on_c, 1, 59, 96
3, 65024, Note_off_c, 1, 59, 0
3, 65024, Note_on_c, 1, 60, 96
3, 65536, Note_off_c, 1, 60, 0
3, 65536, Note_on_c, 1, 62, 96
3, 66048, Note_off_c, 1, 62, 0
3, 66048, Note_on_c, 1, 55, 96
3, 67072, Note_off_c, 1, 55, 0
3, 67072, Note_on_c, 1, 57, 96
3, 67584, Note_off_c, 1, 57, 0
3, 67584, Note_on_c, 1, 59, 96
3, 68096, Note_off_c, 1, 59, 0
3, 68096, Note_on_c, 1, 71, 96
3, 68608, Note_off_c, 1, 71, 0
3, 68608, Note_on_c, 1, 66, 96
3, 69120, Note_off_c, 1, 66, 0
3, 69120, Note_on_c, 1, 67, 96
3, 69632, Note_off_c, 1, 67, 0
3, 69632, Note_on_c, 1, 66, 96
3, 70144, Note_off_c, 1, 66, 0
3, 70144, Note_on_c, 1, 64, 96
3, 70656, Note_off_c, 1, 64, 0
3, 70656, Note_on_c, 1, 63, 96
3, 71680, Note_off_c, 1, 63, 0
3, 71680, Note_on_c, 1, 67, 96
3, 72192, Note_off_c, 1, 67, 0
3, 72192, Note_on_c, 1, 66, 96
3, 74240, Note_off_c, 1, 66, 0
3, 74240, Note_on_c, 1, 59, 96
3, 74752, Note_off_c, 1, 59, 0
3, 74752, Note_on_c, 1, 64, 96
3, 75264, Note_off_c, 1, 64, 0
3, 75264, Note_on_c, 1, 63, 96
3, 75776, Note_off_c, 1, 63, 0
3, 75776, Note_on_c, 1, 64, 96
3, 76288, Note_off_c, 1, 64, 0
3, 76288, Note_on_c, 1, 66, 96
3, 76800, Note_off_c, 1, 66, 0
3, 76800, Note_on_c, 1, 59, 96
3, 77312, Note_off_c, 1, 59, 0
3, 77312, Note_on_c, 1, 64, 96
3, 77824, Note_off_c, 1, 64, 0
3, 77824, Note_on_c, 1, 59, 96
3, 78336, Note_off_c, 1, 59, 0
3, 78336, Note_on_c, 1, 60, 96
3, 78848, Note_off_c, 1, 60, 0
3, 78848, Note_on_c, 1, 59, 96
3, 79360, Note_off_c, 1, 59, 0
3, 79360, Note_on_c, 1, 57, 96
3, 79872, Note_off_c, 1, 57, 0
3, 79872, Note_on_c, 1, 55, 96
3, 80384, Note_off_c, 1, 55, 0
3, 86528, Note_on_c, 1, 67, 96
3, 87040, Note_off_c, 1, 67, 0
3, 87040, Note_on_c, 1, 62, 96
3, 87552, Note_off_c, 1, 62, 0
3, 87552, Note_on_c, 1, 64, 96
3, 88064, Note_off_c, 1, 64, 0
3, 88064, Note_on_c, 1, 62, 96
3, 88576, Note_off_c, 1, 62, 0
3, 88576, Note_on_c, 1, 60, 96
3, 89088, Note_off_c, 1, 60, 0
3, 89600, Note_on_c, 1, 59, 96
3, 90112, Note_off_c, 1, 59, 0
3, 90112, Note_on_c, 1, 64, 96
3, 90624, Note_off_c, 1, 64, 0
3, 90624, Note_on_c, 1, 63, 96
3, 91136, Note_off_c, 1, 63, 0
3, 91136, Note_on_c, 1, 64, 96
3, 91648, Note_off_c, 1, 64, 0
3, 91648, Note_on_c, 1, 66, 96
3, 92672, Note_off_c, 1, 66, 0
3, 92672, Note_on_c, 1, 64, 96
3, 93184, Note_off_c, 1, 64, 0
3, 93184, Note_on_c, 1, 59, 96
3, 93696, Note_off_c, 1, 59, 0
3, 93696, Note_on_c, 1, 60, 96
3, 94208, Note_off_c, 1, 60, 0
3, 94208, Note_on_c, 1, 59, 96
3, 94720, Note_off_c, 1, 59, 0
3, 94720, Note_on_c, 1, 57, 96
3, 95232, Note_off_c, 1, 57, 0
3, 95232, Note_on_c, 1, 59, 96
3, 96256, Note_off_c, 1, 59, 0
3, 96256, Note_on_c, 1, 62, 96
3, 97792, Note_off_c, 1, 62, 0
3, 97792, Note_on_c, 1, 60, 96
3, 98304, Note_off_c, 1, 60, 0
3, 98304, Note_on_c, 1, 59, 96
3, 98816, Note_off_c, 1, 59, 0
3, 98816, Note_on_c, 1, 64, 96
3, 99328, Note_off_c, 1, 64, 0
3, 99328, Note_on_c, 1, 59, 96
3, 99840, Note_off_c, 1, 59, 0
3, 99840, Note_on_c, 1, 60, 96
3, 100352, Note_off_c, 1, 60, 0
3, 100352, Note_on_c, 1, 59, 96
3, 100864, Note_off_c, 1, 59, 0
3, 100864, Note_on_c, 1, 57, 96
3, 101376, Note_off_c, 1, 57, 0
3, 101376, Note_on_c, 1, 56, 96
3, 102912, Note_off_c, 1, 56, 0
3, 107776, Note_on_c, 1, 67, 96
3, 108032, Note_off_c, 1, 67, 0
3, 108032, Note_on_c, 1, 66, 96
3, 108288, Note_off_c, 1, 66, 0
3, 108288, Note_on_c, 1, 64, 96
3, 108544, Note_off_c, 1, 64, 0
3, 108544, Note_on_c, 1, 62, 96
3, 108800, Note_off_c, 1, 62, 0
3, 108800, Note_on_c, 1, 60, 96
3, 109056, Note_off_c, 1, 60, 0
3, 109056, Note_on_c, 1, 59, 96
3, 109312, Note_off_c, 1, 59, 0
3, 109312, Note_on_c, 1, 64, 96
3, 109568, Note_off_c, 1, 64, 0
3, 109568, Note_on_c, 1, 62, 96
3, 109824, Note_off_c, 1, 62, 0
3, 109824, Note_on_c, 1, 60, 96
3, 110080, Note_off_c, 1, 60, 0
3, 110080, Note_on_c, 1, 59, 96
3, 110336, Note_off_c, 1, 59, 0
3, 110336, Note_on_c, 1, 57, 96
3, 110592, Note_off_c, 1, 57, 0
3, 110592, Note_on_c, 1, 55, 96
3, 112128, Note_off_c, 1, 55, 0
3, 113920, Note_on_c, 1, 57, 96
3, 114176, Note_off_c, 1, 57, 0
3, 114176, Note_on_c, 1, 59, 96
3, 114432, Note_off_c, 1, 59, 0
3, 114432, Note_on_c, 1, 60, 96
3, 114688, Note_off_c, 1, 60, 0
3, 114688, Note_on_c, 1, 62, 96
3, 114944, Note_off_c, 1, 62, 0
3, 114944, Note_on_c, 1, 64, 96
3, 115200, Note_off_c, 1, 64, 0
3, 115200, Note_on_c, 1, 66, 96
3, 115456, Note_off_c, 1, 66, 0
3, 115456, Note_on_c, 1, 59, 96
3, 115712, Note_off_c, 1, 59, 0
3, 115712, Note_on_c, 1, 60, 96
3, 115968, Note_off_c, 1, 60, 0
3, 115968, Note_on_c, 1, 62, 96
3, 116224, Note_off_c, 1, 62, 0
3, 116224, Note_on_c, 1, 64, 96
3, 116480, Note_off_c, 1, 64, 0
3, 116480, Note_on_c, 1, 66, 96
3, 116736, Note_off_c, 1, 66, 0
3, 116736, Note_on_c, 1, 67, 96
3, 117248, Note_off_c, 1, 67, 0
3, 117248, Note_on_c, 1, 62, 96
3, 117760, Note_off_c, 1, 62, 0
3, 117760, Note_on_c, 1, 67, 96
3, 118528, Note_off_c, 1, 67, 0
3, 118528, Note_on_c, 1, 67, 96
3, 118784, Note_off_c, 1, 67, 0
3, 118784, Note_on_c, 1, 66, 96
3, 119040, Note_off_c, 1, 66, 0
3, 119040, Note_on_c, 1, 67, 96
3, 119296, Note_off_c, 1, 67, 0
3, 119296, Note_on_c, 1, 64, 96
3, 119552, Note_off_c, 1, 64, 0
3, 119552, Note_on_c, 1, 66, 96
3, 119808, Note_off_c, 1, 66, 0
3, 119808, Note_on_c, 1, 67, 96
3, 120064, Note_off_c, 1, 67, 0
3, 120064, Note_on_c, 1, 69, 96
3, 120320, Note_off_c, 1, 69, 0
3, 120320, Note_on_c, 1, 67, 96
3, 120576, Note_off_c, 1, 67, 0
3, 120576, Note_on_c, 1, 65, 96
3, 120832, Note_off_c, 1, 65, 0
3, 120832, Note_on_c, 1, 64, 96
3, 121088, Note_off_c, 1, 64, 0
3, 121088, Note_on_c, 1, 62, 96
3, 121344, Note_off_c, 1, 62, 0
3, 121344, Note_on_c, 1, 64, 96
3, 121600, Note_on_c, 1, 62, 96
3, 121856, Note_off_c, 1, 62, 0
3, 121856, Note_on_c, 1, 60, 96
3, 122112, Note_off_c, 1, 60, 0
3, 122112, Note_on_c, 1, 59, 96
3, 122368, Note_off_c, 1, 59, 0
3, 122368, Note_on_c, 1, 60, 96
3, 123136, Note_off_c, 1, 64, 0
3, 123136, Note_on_c, 1, 64, 96
3, 123392, Note_off_c, 1, 64, 0
3, 123392, Note_on_c, 1, 62, 96
3, 123648, Note_off_c, 1, 62, 0
3, 123648, Note_on_c, 1, 60, 96
3, 123904, Note_on_c, 1, 62, 96
3, 123904, Note_off_c, 1, 60, 0
3, 124160, Note_off_c, 1, 60, 0
3, 124160, Note_on_c, 1, 60, 96
3, 124416, Note_off_c, 1, 62, 0
3, 124416, Note_on_c, 1, 62, 96
3, 124416, Note_off_c, 1, 60, 0
3, 124416, Note_on_c, 1, 59, 96
3, 124672, Note_off_c, 1, 59, 0
3, 124672, Note_on_c, 1, 57, 96
3, 124928, Note_off_c, 1, 57, 0
3, 124928, Note_on_c, 1, 59, 96
3, 125952, Note_off_c, 1, 59, 0
3, 126208, Note_off_c, 1, 62, 0
3, 126208, Note_on_c, 1, 62, 96
3, 126464, Note_off_c, 1, 62, 0
3, 126464, Note_on_c, 1, 60, 96
3, 126720, Note_off_c, 1, 60, 0
3, 126720, Note_on_c, 1, 59, 96
3, 126976, Note_off_c, 1, 59, 0
3, 126976, Note_on_c, 1, 60, 96
3, 127744, Note_off_c, 1, 60, 0
3, 127744, Note_on_c, 1, 60, 96
3, 128000, Note_off_c, 1, 60, 0
3, 128000, Note_on_c, 1, 59, 96
3, 128256, Note_off_c, 1, 59, 0
3, 128256, Note_on_c, 1, 57, 96
3, 128512, Note_off_c, 1, 57, 0
3, 128512, Note_on_c, 1, 59, 96
3, 129280, Note_off_c, 1, 59, 0
3, 129280, Note_on_c, 1, 59, 96
3, 129536, Note_off_c, 1, 59, 0
3, 129536, Note_on_c, 1, 60, 96
3, 129792, Note_off_c, 1, 60, 0
3, 129792, Note_on_c, 1, 62, 96
3, 130048, Note_off_c, 1, 62, 0
3, 130048, Note_on_c, 1, 64, 96
3, 130816, Note_off_c, 1, 64, 0
3, 130816, Note_on_c, 1, 62, 96
3, 131072, Note_off_c, 1, 62, 0
3, 131072, Note_on_c, 1, 60, 96
3, 131328, Note_off_c, 1, 60, 0
3, 131328, Note_on_c, 1, 59, 96
3, 131584, Note_off_c, 1, 59, 0
3, 131584, Note_on_c, 1, 57, 96
3, 132096, Note_off_c, 1, 57, 0
3, 132352, Note_on_c, 1, 66, 96
3, 132608, Note_off_c, 1, 66, 0
3, 132608, Note_on_c, 1, 64, 96
3, 132864, Note_off_c, 1, 64, 0
3, 132864, Note_on_c, 1, 62, 96
3, 133120, Note_off_c, 1, 62, 0
3, 133120, Note_on_c, 1, 60, 96
3, 133376, Note_off_c, 1, 60, 0
3, 133376, Note_on_c, 1, 59, 96
3, 133632, Note_off_c, 1, 59, 0
3, 133632, Note_on_c, 1, 57, 96
3, 133888, Note_off_c, 1, 57, 0
3, 133888, Note_on_c, 1, 64, 96
3, 134144, Note_off_c, 1, 64, 0
3, 134144, Note_on_c, 1, 62, 96
3, 134400, Note_off_c, 1, 62, 0
3, 134400, Note_on_c, 1, 60, 96
3, 134656, Note_off_c, 1, 60, 0
3, 134656, Note_on_c, 1, 59, 96
3, 134912, Note_off_c, 1, 59, 0
3, 134912, Note_on_c, 1, 57, 96
3, 135168, Note_off_c, 1, 57, 0
3, 135168, Note_on_c, 1, 55, 96
3, 135680, Note_off_c, 1, 55, 0
3, 135680, Note_on_c, 1, 62, 96
3, 136192, Note_off_c, 1, 62, 0
3, 136192, Note_on_c, 1, 67, 96
3, 137216, Note_off_c, 1, 67, 0
3, 137216, Note_on_c, 1, 66, 96
3, 137472, Note_off_c, 1, 66, 0
3, 137472, Note_on_c, 1, 64, 96
3, 137728, Note_off_c, 1, 64, 0
3, 137728, Note_on_c, 1, 66, 96
3, 138240, Note_off_c, 1, 66, 0
3, 138240, Note_on_c, 1, 67, 96
3, 139264, Note_off_c, 1, 67, 0
3, 139264, Note_on_c, 1, 65, 96
3, 139776, Note_off_c, 1, 65, 0
3, 139776, Note_on_c, 1, 64, 96
3, 141312, Note_off_c, 1, 64, 0
3, 141312, Note_on_c, 1, 62, 96
3, 141824, Note_off_c, 1, 62, 0
3, 142080, Note_on_c, 1, 55, 96
3, 142336, Note_off_c, 1, 55, 0
3, 142336, Note_on_c, 1, 57, 96
3, 142592, Note_off_c, 1, 57, 0
3, 142592, Note_on_c, 1, 59, 96
3, 142848, Note_off_c, 1, 59, 0
3, 142848, Note_on_c, 1, 60, 96
3, 143104, Note_off_c, 1, 60, 0
3, 143104, Note_on_c, 1, 62, 96
3, 143360, Note_off_c, 1, 62, 0
3, 143360, Note_on_c, 1, 64, 96
3, 143616, Note_off_c, 1, 64, 0
3, 143616, Note_on_c, 1, 66, 96
3, 143872, Note_off_c, 1, 66, 0
3, 143872, Note_on_c, 1, 67, 96
3, 144128, Note_off_c, 1, 67, 0
3, 144128, Note_on_c, 1, 69, 96
3, 144384, Note_off_c, 1, 69, 0
3, 144384, Note_on_c, 1, 71, 96
3, 145920, Note_off_c, 1, 71, 0
3, 146176, Note_on_c, 1, 76, 96
3, 146432, Note_off_c, 1, 76, 0
3, 146432, Note_on_c, 1, 74, 96
3, 146688, Note_off_c, 1, 74, 0
3, 146688, Note_on_c, 1, 72, 96
3, 146944, Note_off_c, 1, 72, 0
3, 146944, Note_on_c, 1, 71, 96
3, 147200, Note_off_c, 1, 71, 0
3, 147200, Note_on_c, 1, 69, 96
3, 147456, Note_off_c, 1, 69, 0
3, 147456, Note_on_c, 1, 67, 96
3, 147712, Note_off_c, 1, 67, 0
3, 147712, Note_on_c, 1, 71, 96
3, 147968, Note_off_c, 1, 71, 0
3, 147968, Note_on_c, 1, 69, 96
3, 148224, Note_off_c, 1, 69, 0
3, 148224, Note_on_c, 1, 67, 96
3, 148480, Note_off_c, 1, 67, 0
3, 148480, Note_on_c, 1, 72, 96
3, 149248, Note_off_c, 1, 72, 0
3, 149248, Note_on_c, 1, 72, 96
3, 149504, Note_off_c, 1, 72, 0
3, 149504, Note_on_c, 1, 71, 96
3, 149760, Note_off_c, 1, 71, 0
3, 149760, Note_on_c, 1, 69, 96
3, 150016, Note_off_c, 1, 69, 0
3, 150016, Note_on_c, 1, 74, 96
3, 150784, Note_off_c, 1, 74, 0
3, 150784, Note_on_c, 1, 72, 96
3, 151040, Note_off_c, 1, 72, 0
3, 151040, Note_on_c, 1, 71, 96
3, 151296, Note_off_c, 1, 71, 0
3, 151296, Note_on_c, 1, 69, 96
3, 151552, Note_off_c, 1, 69, 0
3, 151552, Note_on_c, 1, 71, 96
3, 152320, Note_off_c, 1, 71, 0
3, 152320, Note_on_c, 1, 69, 96
3, 152576, Note_off_c, 1, 69, 0
3, 152576, Note_on_c, 1, 67, 96
3, 152832, Note_off_c, 1, 67, 0
3, 152832, Note_on_c, 1, 66, 96
3, 153088, Note_off_c, 1, 66, 0
3, 153088, Note_on_c, 1, 67, 96
3, 153856, Note_off_c, 1, 67, 0
3, 153856, Note_on_c, 1, 66, 96
3, 154112, Note_off_c, 1, 66, 0
3, 154112, Note_on_c, 1, 67, 96
3, 154368, Note_off_c, 1, 67, 0
3, 154368, Note_on_c, 1, 69, 96
3, 154624, Note_off_c, 1, 69, 0
3, 154624, Note_on_c, 1, 71, 96
3, 154880, Note_off_c, 1, 71, 0
3, 154880, Note_on_c, 1, 67, 96
3, 155136, Note_off_c, 1, 67, 0
3, 155136, Note_on_c, 1, 72, 96
3, 155392, Note_off_c, 1, 72, 0
3, 155392, Note_on_c, 1, 71, 96
3, 155648, Note_off_c, 1, 71, 0
3, 155648, Note_on_c, 1, 72, 96
3, 155904, Note_off_c, 1, 72, 0
3, 155904, Note_on_c, 1, 66, 96
3, 156160, Note_off_c, 1, 66, 0
3, 156160, Note_on_c, 1, 69, 96
3, 156416, Note_off_c, 1, 69, 0
3, 156416, Note_on_c, 1, 72, 96
3, 156672, Note_off_c, 1, 72, 0
3, 156672, Note_on_c, 1, 71, 96
3, 156928, Note_off_c, 1, 71, 0
3, 156928, Note_on_c, 1, 69, 96
3, 157184, Note_off_c, 1, 69, 0
3, 157184, Note_on_c, 1, 71, 96
3, 157440, Note_off_c, 1, 71, 0
3, 157440, Note_on_c, 1, 64, 96
3, 157696, Note_off_c, 1, 64, 0
3, 157696, Note_on_c, 1, 66, 96
3, 157952, Note_off_c, 1, 66, 0
3, 157952, Note_on_c, 1, 67, 96
3, 158208, Note_off_c, 1, 67, 0
3, 158208, Note_on_c, 1, 69, 96
3, 158464, Note_off_c, 1, 69, 0
3, 158464, Note_on_c, 1, 67, 96
3, 158720, Note_off_c, 1, 67, 0
3, 158720, Note_on_c, 1, 69, 96
3, 158976, Note_off_c, 1, 69, 0
3, 158976, Note_on_c, 1, 72, 96
3, 159232, Note_off_c, 1, 72, 0
3, 159232, Note_on_c, 1, 71, 96
3, 159488, Note_off_c, 1, 71, 0
3, 159488, Note_on_c, 1, 69, 96
3, 159744, Note_off_c, 1, 69, 0
3, 159744, Note_on_c, 1, 67, 96
3, 160000, Note_off_c, 1, 67, 0
3, 160000, Note_on_c, 1, 66, 96
3, 160256, Note_off_c, 1, 66, 0
3, 160256, Note_on_c, 1, 64, 96
3, 160512, Note_off_c, 1, 64, 0
3, 160512, Note_on_c, 1, 67, 96
3, 160768, Note_off_c, 1, 67, 0
3, 160768, Note_on_c, 1, 66, 96
3, 161024, Note_off_c, 1, 66, 0
3, 161024, Note_on_c, 1, 64, 96
3, 161280, Note_off_c, 1, 64, 0
3, 161280, Note_on_c, 1, 66, 96
3, 162816, Note_off_c, 1, 66, 0
3, 163328, Note_on_c, 1, 67, 96
3, 163584, Note_off_c, 1, 67, 0
3, 163584, Note_on_c, 1, 66, 96
3, 163840, Note_off_c, 1, 66, 0
3, 163840, Note_on_c, 1, 64, 96
3, 164096, Note_off_c, 1, 64, 0
3, 164096, Note_on_c, 1, 62, 96
3, 164352, Note_off_c, 1, 62, 0
3, 164352, Note_on_c, 1, 61, 96
3, 164864, Note_off_c, 1, 61, 0
3, 164864, Note_on_c, 1, 57, 96
3, 165376, Note_off_c, 1, 57, 0
3, 165376, Note_on_c, 1, 61, 96
3, 165888, Note_off_c, 1, 61, 0
3, 165888, Note_on_c, 1, 62, 96
3, 166912, Note_off_c, 1, 62, 0
3, 166912, Note_on_c, 1, 58, 96
3, 167424, Note_off_c, 1, 58, 0
3, 167424, Note_on_c, 1, 59, 96
3, 168448, Note_off_c, 1, 59, 0
3, 168448, Note_on_c, 1, 54, 96
3, 168960, Note_off_c, 1, 54, 0
3, 168960, Note_on_c, 1, 56, 96
3, 170496, Note_off_c, 1, 56, 0
3, 170496, Note_on_c, 1, 58, 96
3, 172032, Note_off_c, 1, 58, 0
3, 172032, Note_on_c, 1, 59, 96
3, 174080, Note_off_c, 1, 59, 0
3, 174080, Note_on_c, 1, 58, 96
3, 175104, Note_off_c, 1, 58, 0
3, 175104, Note_on_c, 1, 59, 96
3, 176128, Note_off_c, 1, 59, 0
3, 178688, Note_on_c, 1, 76, 96
3, 178944, Note_off_c, 1, 76, 0
3, 178944, Note_on_c, 1, 74, 96
3, 179200, Note_off_c, 1, 74, 0
3, 179200, Note_on_c, 1, 73, 96
3, 179456, Note_off_c, 1, 73, 0
3, 179456, Note_on_c, 1, 71, 96
3, 179712, Note_off_c, 1, 71, 0
3, 179712, Note_on_c, 1, 70, 96
3, 180224, Note_off_c, 1, 70, 0
3, 180224, Note_on_c, 1, 66, 96
3, 180736, Note_off_c, 1, 66, 0
3, 180736, Note_on_c, 1, 70, 96
3, 181248, Note_off_c, 1, 70, 0
3, 181248, Note_on_c, 1, 71, 96
3, 182272, Note_off_c, 1, 71, 0
3, 182272, Note_on_c, 1, 66, 96
3, 182784, Note_off_c, 1, 66, 0
3, 182784, Note_on_c, 1, 67, 96
3, 183808, Note_off_c, 1, 67, 0
3, 183808, Note_on_c, 1, 62, 96
3, 184064, Note_off_c, 1, 62, 0
3, 184064, Note_on_c, 1, 64, 96
3, 184320, Note_off_c, 1, 64, 0
3, 184320, Note_on_c, 1, 65, 96
3, 185856, Note_off_c, 1, 65, 0
3, 185856, Note_on_c, 1, 66, 96
3, 187392, Note_off_c, 1, 66, 0
3, 187392, Note_on_c, 1, 67, 96
3, 189440, Note_off_c, 1, 67, 0
3, 189440, Note_on_c, 1, 66, 96
3, 190464, Note_off_c, 1, 66, 0
3, 190464, Note_on_c, 1, 67, 96
3, 191232, Note_off_c, 1, 67, 0
3, 191232, Note_on_c, 1, 66, 96
3, 191488, Note_off_c, 1, 66, 0
3, 191488, Note_on_c, 1, 67, 96
3, 191744, Note_off_c, 1, 67, 0
3, 191744, Note_on_c, 1, 69, 96
3, 192000, Note_off_c, 1, 69, 0
3, 192000, Note_on_c, 1, 71, 96
3, 193792, Note_off_c, 1, 71, 0
3, 193792, Note_on_c, 1, 71, 96
3, 194048, Note_off_c, 1, 71, 0
3, 194048, Note_on_c, 1, 69, 96
3, 194304, Note_off_c, 1, 69, 0
3, 194304, Note_on_c, 1, 67, 96
3, 194560, Note_off_c, 1, 67, 0
3, 194560, Note_on_c, 1, 72, 96
3, 194816, Note_off_c, 1, 72, 0
3, 194816, Note_on_c, 1, 71, 96
3, 195072, Note_off_c, 1, 71, 0
3, 195072, Note_on_c, 1, 69, 96
3, 197120, Note_off_c, 1, 69, 0
3, 197120, Note_on_c, 1, 67, 96
3, 197632, Note_off_c, 1, 67, 0
3, 197632, Note_on_c, 1, 66, 96
3, 198656, Note_off_c, 1, 66, 0
3, 198656, Note_on_c, 1, 64, 96
3, 199168, Note_off_c, 1, 64, 0
3, 199168, Note_on_c, 1, 63, 96
3, 199680, Note_off_c, 1, 63, 0
3, 199680, Note_on_c, 1, 64, 96
3, 201216, Note_off_c, 1, 64, 0
3, 201216, Note_on_c, 1, 66, 96
3, 203264, Note_off_c, 1, 66, 0
3, 203264, Note_on_c, 1, 64, 96
3, 203776, Note_off_c, 1, 64, 0
3, 203776, Note_on_c, 1, 62, 96
3, 204288, Note_off_c, 1, 62, 0
3, 204288, Note_on_c, 1, 60, 96
3, 205056, Note_off_c, 1, 60, 0
3, 205056, Note_on_c, 1, 60, 96
3, 205312, Note_off_c, 1, 60, 0
3, 205312, Note_on_c, 1, 59, 96
3, 207616, Note_off_c, 1, 59, 0
3, 207616, Note_on_c, 1, 60, 96
3, 207872, Note_off_c, 1, 60, 0
3, 207872, Note_on_c, 1, 62, 96
3, 208128, Note_off_c, 1, 62, 0
3, 208128, Note_on_c, 1, 59, 96
3, 208384, Note_off_c, 1, 59, 0
3, 208384, Note_on_c, 1, 60, 96
3, 208640, Note_off_c, 1, 60, 0
3, 208640, Note_on_c, 1, 62, 96
3, 208896, Note_off_c, 1, 62, 0
3, 208896, Note_on_c, 1, 60, 96
3, 209408, Note_off_c, 1, 60, 0
3, 238081, End_track
4, 0, Start_track
4, 0, Title_t, "Instrument 3"
4, 0, Note_on_c, 2, 52, 96
4, 512, Note_off_c, 2, 52, 0
4, 512, Note_on_c, 2, 59, 96
4, 1024, Note_off_c, 2, 59, 0
4, 1024, Note_on_c, 2, 57, 96
4, 1536, Note_off_c, 2, 57, 0
4, 1536, Note_on_c, 2, 59, 96
4, 3584, Note_off_c, 2, 59, 0
4, 3584, Note_on_c, 2, 60, 96
4, 4096, Note_off_c, 2, 60, 0
4, 4096, Note_on_c, 2, 59, 96
4, 4608, Note_off_c, 2, 59, 0
4, 4608, Note_on_c, 2, 57, 96
4, 7680, Note_off_c, 2, 57, 0
4, 7680, Note_on_c, 2, 55, 96
4, 8192, Note_off_c, 2, 55, 0
4, 8192, Note_on_c, 2, 60, 96
4, 8704, Note_off_c, 2, 60, 0
4, 8704, Note_on_c, 2, 59, 96
4, 9216, Note_off_c, 2, 59, 0
4, 9216, Note_on_c, 2, 60, 96
4, 10240, Note_off_c, 2, 60, 0
4, 10752, Note_on_c, 2, 54, 96
4, 11264, Note_off_c, 2, 54, 0
4, 11264, Note_on_c, 2, 59, 96
4, 11776, Note_off_c, 2, 59, 0
4, 11776, Note_on_c, 2, 57, 96
4, 12288, Note_off_c, 2, 57, 0
4, 12288, Note_on_c, 2, 59, 96
4, 14336, Note_off_c, 2, 59, 0
4, 14336, Note_on_c, 2, 52, 96
4, 14848, Note_off_c, 2, 52, 0
4, 14848, Note_on_c, 2, 57, 96
4, 15360, Note_off_c, 2, 57, 0
4, 15360, Note_on_c, 2, 51, 96
4, 16384, Note_off_c, 2, 51, 0
4, 16384, Note_on_c, 2, 47, 96
4, 16896, Note_off_c, 2, 47, 0
4, 16896, Note_on_c, 2, 52, 96
4, 17920, Note_off_c, 2, 52, 0
4, 17920, Note_on_c, 2, 47, 96
4, 18432, Note_off_c, 2, 47, 0
4, 18432, Note_on_c, 2, 48, 96
4, 20480, Note_off_c, 2, 48, 0
4, 20480, Note_on_c, 2, 52, 96
4, 20992, Note_off_c, 2, 52, 0
4, 20992, Note_on_c, 2, 51, 96
4, 21504, Note_off_c, 2, 51, 0
4, 21504, Note_on_c, 2, 52, 96
4, 25088, Note_off_c, 2, 52, 0
4, 25088, Note_on_c, 2, 57, 96
4, 25600, Note_off_c, 2, 57, 0
4, 25600, Note_on_c, 2, 55, 96
4, 26112, Note_off_c, 2, 55, 0
4, 26112, Note_on_c, 2, 57, 96
4, 26624, Note_off_c, 2, 57, 0
4, 26624, Note_on_c, 2, 54, 96
4, 27136, Note_off_c, 2, 54, 0
4, 27136, Note_on_c, 2, 55, 96
4, 27648, Note_off_c, 2, 55, 0
4, 27648, Note_on_c, 2, 54, 96
4, 28160, Note_off_c, 2, 54, 0
4, 28160, Note_on_c, 2, 59, 96
4, 28672, Note_off_c, 2, 59, 0
4, 28672, Note_on_c, 2, 57, 96
4, 29184, Note_off_c, 2, 57, 0
4, 29184, Note_on_c, 2, 59, 96
4, 29696, Note_off_c, 2, 59, 0
4, 29696, Note_on_c, 2, 54, 96
4, 30208, Note_off_c, 2, 54, 0
4, 30208, Note_on_c, 2, 57, 96
4, 31232, Note_off_c, 2, 57, 0
4, 31232, Note_on_c, 2, 55, 96
4, 31744, Note_off_c, 2, 55, 0
4, 31744, Note_on_c, 2, 54, 96
4, 32256, Note_off_c, 2, 54, 0
4, 32256, Note_on_c, 2, 55, 96
4, 34304, Note_off_c, 2, 55, 0
4, 34304, Note_on_c, 2, 54, 96
4, 34816, Note_off_c, 2, 54, 0
4, 34816, Note_on_c, 2, 55, 96
4, 35328, Note_off_c, 2, 55, 0
4, 35328, Note_on_c, 2, 54, 96
4, 37376, Note_off_c, 2, 54, 0
4, 37376, Note_on_c, 2, 55, 96
4, 37888, Note_off_c, 2, 55, 0
4, 37888, Note_on_c, 2, 57, 96
4, 38400, Note_off_c, 2, 57, 0
4, 38400, Note_on_c, 2, 55, 96
4, 39424, Note_off_c, 2, 55, 0
4, 39424, Note_on_c, 2, 54, 96
4, 39936, Note_off_c, 2, 54, 0
4, 39936, Note_on_c, 2, 52, 96
4, 43520, Note_off_c, 2, 52, 0
4, 43520, Note_on_c, 2, 55, 96
4, 44032, Note_off_c, 2, 55, 0
4, 44032, Note_on_c, 2, 54, 96
4, 44544, Note_off_c, 2, 54, 0
4, 44544, Note_on_c, 2, 55, 96
4, 45056, Note_off_c, 2, 55, 0
4, 45056, Note_on_c, 2, 51, 96
4, 45568, Note_off_c, 2, 51, 0
4, 45568, Note_on_c, 2, 52, 96
4, 46080, Note_off_c, 2, 52, 0
4, 46080, Note_on_c, 2, 54, 96
4, 46592, Note_off_c, 2, 54, 0
4, 46592, Note_on_c, 2, 51, 96
4, 47104, Note_off_c, 2, 51, 0
4, 47104, Note_on_c, 2, 52, 96
4, 47616, Note_off_c, 2, 52, 0
4, 47616, Note_on_c, 2, 47, 96
4, 48128, Note_off_c, 2, 47, 0
4, 48128, Note_on_c, 2, 52, 96
4, 48640, Note_off_c, 2, 52, 0
4, 48640, Note_on_c, 2, 51, 96
4, 49152, Note_off_c, 2, 51, 0
4, 49152, Note_on_c, 2, 52, 96
4, 50688, Note_off_c, 2, 52, 0
4, 51200, Note_on_c, 2, 56, 96
4, 51712, Note_off_c, 2, 56, 0
4, 51712, Note_on_c, 2, 57, 96
4, 52736, Note_off_c, 2, 57, 0
4, 52736, Note_on_c, 2, 57, 96
4, 53248, Note_off_c, 2, 57, 0
4, 53248, Note_on_c, 2, 56, 96
4, 53760, Note_off_c, 2, 56, 0
4, 53760, Note_on_c, 2, 57, 96
4, 55296, Note_off_c, 2, 57, 0
4, 55296, Note_on_c, 2, 56, 96
4, 56832, Note_off_c, 2, 56, 0
4, 57600, Note_on_c, 2, 47, 96
4, 57856, Note_off_c, 2, 47, 0
4, 57856, Note_on_c, 2, 49, 96
4, 58112, Note_off_c, 2, 49, 0
4, 58112, Note_on_c, 2, 51, 96
4, 58368, Note_off_c, 2, 51, 0
4, 58368, Note_on_c, 2, 52, 96
4, 58624, Note_off_c, 2, 52, 0
4, 58624, Note_on_c, 2, 51, 96
4, 58880, Note_off_c, 2, 51, 0
4, 58880, Note_on_c, 2, 52, 96
4, 59136, Note_off_c, 2, 52, 0
4, 59136, Note_on_c, 2, 54, 96
4, 59392, Note_off_c, 2, 54, 0
4, 59392, Note_on_c, 2, 55, 96
4, 59648, Note_off_c, 2, 55, 0
4, 59648, Note_on_c, 2, 57, 96
4, 59904, Note_off_c, 2, 57, 0
4, 59904, Note_on_c, 2, 59, 96
4, 60160, Note_off_c, 2, 59, 0
4, 60160, Note_on_c, 2, 57, 96
4, 60416, Note_off_c, 2, 57, 0
4, 60416, Note_on_c, 2, 59, 96
4, 60672, Note_off_c, 2, 59, 0
4, 60672, Note_on_c, 2, 54, 96
4, 60928, Note_off_c, 2, 54, 0
4, 60928, Note_on_c, 2, 55, 96
4, 61184, Note_off_c, 2, 55, 0
4, 61184, Note_on_c, 2, 57, 96
4, 61440, Note_off_c, 2, 57, 0
4, 61440, Note_on_c, 2, 55, 96
4, 62976, Note_off_c, 2, 55, 0
4, 62976, Note_on_c, 2, 55, 96
4, 64512, Note_off_c, 2, 55, 0
4, 64512, Note_on_c, 2, 55, 96
4, 66048, Note_off_c, 2, 55, 0
4, 66048, Note_on_c, 2, 52, 96
4, 67072, Note_off_c, 2, 52, 0
4, 67072, Note_on_c, 2, 54, 96
4, 67584, Note_off_c, 2, 54, 0
4, 67584, Note_on_c, 2, 55, 96
4, 69120, Note_off_c, 2, 55, 0
4, 69120, Note_on_c, 2, 57, 96
4, 70656, Note_off_c, 2, 57, 0
4, 70656, Note_on_c, 2, 59, 96
4, 72192, Note_off_c, 2, 59, 0
4, 72192, Note_on_c, 2, 57, 96
4, 73728, Note_off_c, 2, 57, 0
4, 73728, Note_on_c, 2, 55, 96
4, 75264, Note_off_c, 2, 55, 0
4, 75264, Note_on_c, 2, 54, 96
4, 76800, Note_off_c, 2, 54, 0
4, 76800, Note_on_c, 2, 52, 96
4, 79360, Note_off_c, 2, 52, 0
4, 79360, Note_on_c, 2, 51, 96
4, 79872, Note_off_c, 2, 51, 0
4, 79872, Note_on_c, 2, 52, 96
4, 80384, Note_off_c, 2, 52, 0
4, 83456, Note_on_c, 2, 55, 96
4, 83968, Note_off_c, 2, 55, 0
4, 83968, Note_on_c, 2, 50, 96
4, 84480, Note_off_c, 2, 50, 0
4, 84480, Note_on_c, 2, 52, 96
4, 84992, Note_off_c, 2, 52, 0
4, 84992, Note_on_c, 2, 50, 96
4, 85504, Note_off_c, 2, 50, 0
4, 85504, Note_on_c, 2, 48, 96
4, 86016, Note_off_c, 2, 48, 0
4, 86016, Note_on_c, 2, 47, 96
4, 86528, Note_off_c, 2, 47, 0
4, 86528, Note_on_c, 2, 50, 96
4, 87040, Note_off_c, 2, 50, 0
4, 87040, Note_on_c, 2, 55, 96
4, 88576, Note_off_c, 2, 55, 0
4, 88576, Note_on_c, 2, 54, 96
4, 89088, Note_off_c, 2, 54, 0
4, 89088, Note_on_c, 2, 55, 96
4, 90624, Note_off_c, 2, 55, 0
4, 90624, Note_on_c, 2, 54, 96
4, 92160, Note_off_c, 2, 54, 0
4, 92672, Note_on_c, 2, 47, 96
4, 93184, Note_off_c, 2, 47, 0
4, 93184, Note_on_c, 2, 52, 96
4, 93696, Note_off_c, 2, 52, 0
4, 93696, Note_on_c, 2, 51, 96
4, 94208, Note_off_c, 2, 51, 0
4, 94208, Note_on_c, 2, 52, 96
4, 94720, Note_off_c, 2, 52, 0
4, 94720, Note_on_c, 2, 54, 96
4, 95232, Note_off_c, 2, 54, 0
4, 95232, Note_on_c, 2, 56, 96
4, 97792, Note_off_c, 2, 56, 0
4, 97792, Note_on_c, 2, 57, 96
4, 98304, Note_off_c, 2, 57, 0
4, 98304, Note_on_c, 2, 59, 96
4, 98816, Note_off_c, 2, 59, 0
4, 98816, Note_on_c, 2, 47, 96
4, 99328, Note_off_c, 2, 47, 0
4, 99328, Note_on_c, 2, 52, 96
4, 100352, Note_off_c, 2, 52, 0
4, 100352, Note_on_c, 2, 50, 96
4, 100864, Note_off_c, 2, 50, 0
4, 100864, Note_on_c, 2, 48, 96
4, 101376, Note_off_c, 2, 48, 0
4, 101376, Note_on_c, 2, 47, 96
4, 103680, Note_off_c, 2, 47, 0
4, 103680, Note_on_c, 2, 47, 96
4, 103936, Note_off_c, 2, 47, 0
4, 103936, Note_on_c, 2, 49, 96
4, 104192, Note_off_c, 2, 49, 0
4, 104192, Note_on_c, 2, 51, 96
4, 104448, Note_off_c, 2, 51, 0
4, 104448, Note_on_c, 2, 52, 96
4, 104704, Note_off_c, 2, 52, 0
4, 104704, Note_on_c, 2, 51, 96
4, 104960, Note_off_c, 2, 51, 0
4, 104960, Note_on_c, 2, 52, 96
4, 105216, Note_off_c, 2, 52, 0
4, 105216, Note_on_c, 2, 54, 96
4, 105472, Note_off_c, 2, 54, 0
4, 105472, Note_on_c, 2, 55, 96
4, 105728, Note_off_c, 2, 55, 0
4, 105728, Note_on_c, 2, 57, 96
4, 105984, Note_off_c, 2, 57, 0
4, 105984, Note_on_c, 2, 59, 96
4, 106240, Note_off_c, 2, 59, 0
4, 106240, Note_on_c, 2, 57, 96
4, 106496, Note_off_c, 2, 57, 0
4, 106496, Note_on_c, 2, 59, 96
4, 106752, Note_off_c, 2, 59, 0
4, 106752, Note_on_c, 2, 54, 96
4, 107008, Note_off_c, 2, 54, 0
4, 107008, Note_on_c, 2, 55, 96
4, 107264, Note_off_c, 2, 55, 0
4, 107264, Note_on_c, 2, 57, 96
4, 107520, Note_off_c, 2, 57, 0
4, 107520, Note_on_c, 2, 55, 96
4, 109056, Note_off_c, 2, 55, 0
4, 109056, Note_on_c, 2, 55, 96
4, 110592, Note_off_c, 2, 55, 0
4, 110592, Note_on_c, 2, 55, 96
4, 112128, Note_off_c, 2, 55, 0
4, 112128, Note_on_c, 2, 52, 96
4, 113664, Note_off_c, 2, 52, 0
4, 113664, Note_on_c, 2, 55, 96
4, 115200, Note_off_c, 2, 55, 0
4, 115200, Note_on_c, 2, 57, 96
4, 116736, Note_off_c, 2, 57, 0
4, 116736, Note_on_c, 2, 59, 96
4, 118272, Note_off_c, 2, 59, 0
4, 118272, Note_on_c, 2, 57, 96
4, 119808, Note_off_c, 2, 57, 0
4, 119808, Note_on_c, 2, 55, 96
4, 122624, Note_off_c, 2, 55, 0
4, 122624, Note_on_c, 2, 54, 96
4, 122880, Note_off_c, 2, 54, 0
4, 122880, Note_on_c, 2, 55, 96
4, 125184, Note_off_c, 2, 55, 0
4, 125184, Note_on_c, 2, 53, 96
4, 125440, Note_off_c, 2, 53, 0
4, 125440, Note_on_c, 2, 52, 96
4, 125696, Note_off_c, 2, 52, 0
4, 125696, Note_on_c, 2, 50, 96
4, 125952, Note_off_c, 2, 50, 0
4, 125952, Note_on_c, 2, 52, 96
4, 127232, Note_off_c, 2, 52, 0
4, 127232, Note_on_c, 2, 52, 96
4, 127488, Note_off_c, 2, 52, 0
4, 127488, Note_on_c, 2, 50, 96
4, 129280, Note_off_c, 2, 50, 0
4, 129280, Note_on_c, 2, 50, 96
4, 129536, Note_off_c, 2, 50, 0
4, 129536, Note_on_c, 2, 48, 96
4, 129792, Note_off_c, 2, 48, 0
4, 129792, Note_on_c, 2, 47, 96
4, 130048, Note_off_c, 2, 47, 0
4, 130048, Note_on_c, 2, 48, 96
4, 130816, Note_off_c, 2, 48, 0
4, 130816, Note_on_c, 2, 43, 96
4, 131072, Note_off_c, 2, 43, 0
4, 131072, Note_on_c, 2, 45, 96
4, 131328, Note_off_c, 2, 45, 0
4, 131328, Note_on_c, 2, 47, 96
4, 131584, Note_off_c, 2, 47, 0
4, 131584, Note_on_c, 2, 48, 96
4, 131840, Note_off_c, 2, 48, 0
4, 131840, Note_on_c, 2, 50, 96
4, 132096, Note_off_c, 2, 50, 0
4, 132096, Note_on_c, 2, 52, 96
4, 132608, Note_off_c, 2, 52, 0
4, 132608, Note_on_c, 2, 55, 96
4, 133120, Note_off_c, 2, 55, 0
4, 133120, Note_on_c, 2, 52, 96
4, 133632, Note_off_c, 2, 52, 0
4, 133632, Note_on_c, 2, 54, 96
4, 135168, Note_off_c, 2, 54, 0
4, 135168, Note_on_c, 2, 55, 96
4, 135424, Note_off_c, 2, 55, 0
4, 135424, Note_on_c, 2, 57, 96
4, 135680, Note_off_c, 2, 57, 0
4, 135680, Note_on_c, 2, 55, 96
4, 135936, Note_off_c, 2, 55, 0
4, 135936, Note_on_c, 2, 54, 96
4, 136192, Note_off_c, 2, 54, 0
4, 136192, Note_on_c, 2, 52, 96
4, 136448, Note_off_c, 2, 52, 0
4, 136448, Note_on_c, 2, 50, 96
4, 136704, Note_off_c, 2, 50, 0
4, 136704, Note_on_c, 2, 48, 96
4, 136960, Note_off_c, 2, 48, 0
4, 136960, Note_on_c, 2, 52, 96
4, 137216, Note_off_c, 2, 52, 0
4, 137216, Note_on_c, 2, 50, 96
4, 137472, Note_off_c, 2, 50, 0
4, 137472, Note_on_c, 2, 48, 96
4, 137728, Note_off_c, 2, 48, 0
4, 137728, Note_on_c, 2, 47, 96
4, 137984, Note_off_c, 2, 47, 0
4, 137984, Note_on_c, 2, 45, 96
4, 138240, Note_off_c, 2, 45, 0
4, 138240, Note_on_c, 2, 47, 96
4, 138752, Note_off_c, 2, 47, 0
4, 138752, Note_on_c, 2, 62, 96
4, 140288, Note_off_c, 2, 62, 0
4, 140288, Note_on_c, 2, 60, 96
4, 140544, Note_off_c, 2, 60, 0
4, 140544, Note_on_c, 2, 59, 96
4, 140800, Note_off_c, 2, 59, 0
4, 140800, Note_on_c, 2, 60, 96
4, 141312, Note_off_c, 2, 60, 0
4, 141312, Note_on_c, 2, 59, 96
4, 141824, Note_off_c, 2, 59, 0
4, 145920, Note_on_c, 2, 62, 96
4, 147456, Note_off_c, 2, 62, 0
4, 147456, Note_on_c, 2, 64, 96
4, 148992, Note_off_c, 2, 64, 0
4, 148992, Note_on_c, 2, 62, 96
4, 150272, Note_off_c, 2, 62, 0
4, 150272, Note_on_c, 2, 60, 96
4, 150528, Note_off_c, 2, 60, 0
4, 150528, Note_on_c, 2, 59, 96
4, 151808, Note_off_c, 2, 59, 0
4, 151808, Note_on_c, 2, 57, 96
4, 152064, Note_off_c, 2, 57, 0
4, 152064, Note_on_c, 2, 55, 96
4, 153344, Note_off_c, 2, 55, 0
4, 153344, Note_on_c, 2, 57, 96
4, 153600, Note_off_c, 2, 57, 0
4, 153600, Note_on_c, 2, 59, 96
4, 155136, Note_off_c, 2, 59, 0
4, 155136, Note_on_c, 2, 57, 96
4, 156672, Note_off_c, 2, 57, 0
4, 156672, Note_on_c, 2, 55, 96
4, 158208, Note_off_c, 2, 55, 0
4, 158208, Note_on_c, 2, 54, 96
4, 159744, Note_off_c, 2, 54, 0
4, 159744, Note_on_c, 2, 52, 96
4, 161280, Note_off_c, 2, 52, 0
4, 176896, Note_on_c, 2, 67, 96
4, 177152, Note_off_c, 2, 67, 0
4, 177152, Note_on_c, 2, 66, 96
4, 177408, Note_off_c, 2, 66, 0
4, 177408, Note_on_c, 2, 64, 96
4, 177664, Note_off_c, 2, 64, 0
4, 177664, Note_on_c, 2, 62, 96
4, 177920, Note_off_c, 2, 62, 0
4, 177920, Note_on_c, 2, 61, 96
4, 178176, Note_off_c, 2, 61, 0
4, 178176, Note_on_c, 2, 59, 96
4, 178432, Note_off_c, 2, 59, 0
4, 178432, Note_on_c, 2, 62, 96
4, 178688, Note_off_c, 2, 62, 0
4, 178688, Note_on_c, 2, 61, 96
4, 178944, Note_off_c, 2, 61, 0
4, 178944, Note_on_c, 2, 59, 96
4, 179200, Note_off_c, 2, 59, 0
4, 179200, Note_on_c, 2, 64, 96
4, 179968, Note_off_c, 2, 64, 0
4, 179968, Note_on_c, 2, 64, 96
4, 180224, Note_off_c, 2, 64, 0
4, 180224, Note_on_c, 2, 62, 96
4, 180480, Note_off_c, 2, 62, 0
4, 180480, Note_on_c, 2, 61, 96
4, 180736, Note_off_c, 2, 61, 0
4, 180736, Note_on_c, 2, 66, 96
4, 181504, Note_off_c, 2, 66, 0
4, 181504, Note_on_c, 2, 64, 96
4, 181760, Note_off_c, 2, 64, 0
4, 181760, Note_on_c, 2, 62, 96
4, 182016, Note_off_c, 2, 62, 0
4, 182016, Note_on_c, 2, 61, 96
4, 182272, Note_off_c, 2, 61, 0
4, 182272, Note_on_c, 2, 62, 96
4, 183040, Note_off_c, 2, 62, 0
4, 183040, Note_on_c, 2, 60, 96
4, 183296, Note_off_c, 2, 60, 0
4, 183296, Note_on_c, 2, 59, 96
4, 183552, Note_off_c, 2, 59, 0
4, 183552, Note_on_c, 2, 57, 96
4, 183808, Note_off_c, 2, 57, 0
4, 183808, Note_on_c, 2, 59, 96
4, 184576, Note_off_c, 2, 59, 0
4, 184576, Note_on_c, 2, 56, 96
4, 184832, Note_off_c, 2, 56, 0
4, 184832, Note_on_c, 2, 57, 96
4, 185088, Note_off_c, 2, 57, 0
4, 185088, Note_on_c, 2, 59, 96
4, 185344, Note_off_c, 2, 59, 0
4, 185344, Note_on_c, 2, 60, 96
4, 185600, Note_off_c, 2, 60, 0
4, 185600, Note_on_c, 2, 62, 96
4, 185856, Note_off_c, 2, 62, 0
4, 185856, Note_on_c, 2, 63, 96
4, 186112, Note_off_c, 2, 63, 0
4, 186112, Note_on_c, 2, 62, 96
4, 186368, Note_off_c, 2, 62, 0
4, 186368, Note_on_c, 2, 63, 96
4, 186624, Note_off_c, 2, 63, 0
4, 186624, Note_on_c, 2, 57, 96
4, 186880, Note_off_c, 2, 57, 0
4, 186880, Note_on_c, 2, 60, 96
4, 187136, Note_off_c, 2, 60, 0
4, 187136, Note_on_c, 2, 63, 96
4, 187392, Note_off_c, 2, 63, 0
4, 187392, Note_on_c, 2, 62, 96
4, 187648, Note_off_c, 2, 62, 0
4, 187648, Note_on_c, 2, 60, 96
4, 187904, Note_off_c, 2, 60, 0
4, 187904, Note_on_c, 2, 62, 96
4, 188160, Note_off_c, 2, 62, 0
4, 188160, Note_on_c, 2, 55, 96
4, 188416, Note_off_c, 2, 55, 0
4, 188416, Note_on_c, 2, 57, 96
4, 188672, Note_off_c, 2, 57, 0
4, 188672, Note_on_c, 2, 59, 96
4, 188928, Note_off_c, 2, 59, 0
4, 188928, Note_on_c, 2, 60, 96
4, 189184, Note_off_c, 2, 60, 0
4, 189184, Note_on_c, 2, 59, 96
4, 189440, Note_off_c, 2, 59, 0
4, 189440, Note_on_c, 2, 60, 96
4, 189696, Note_off_c, 2, 60, 0
4, 189696, Note_on_c, 2, 64, 96
4, 189952, Note_off_c, 2, 64, 0
4, 189952, Note_on_c, 2, 62, 96
4, 190208, Note_off_c, 2, 62, 0
4, 190208, Note_on_c, 2, 60, 96
4, 190464, Note_off_c, 2, 60, 0
4, 190464, Note_on_c, 2, 59, 96
4, 190720, Note_off_c, 2, 59, 0
4, 190720, Note_on_c, 2, 60, 96
4, 190976, Note_off_c, 2, 60, 0
4, 190976, Note_on_c, 2, 59, 96
4, 191232, Note_off_c, 2, 59, 0
4, 191232, Note_on_c, 2, 57, 96
4, 191488, Note_off_c, 2, 57, 0
4, 191488, Note_on_c, 2, 55, 96
4, 191744, Note_off_c, 2, 55, 0
4, 191744, Note_on_c, 2, 54, 96
4, 192000, Note_off_c, 2, 54, 0
4, 192000, Note_on_c, 2, 55, 96
4, 192256, Note_off_c, 2, 55, 0
4, 192256, Note_on_c, 2, 57, 96
4, 192512, Note_off_c, 2, 57, 0
4, 192512, Note_on_c, 2, 55, 96
4, 192768, Note_off_c, 2, 55, 0
4, 192768, Note_on_c, 2, 53, 96
4, 193024, Note_off_c, 2, 53, 0
4, 193024, Note_on_c, 2, 52, 96
4, 193280, Note_off_c, 2, 52, 0
4, 193280, Note_on_c, 2, 50, 96
4, 193536, Note_off_c, 2, 50, 0
4, 193536, Note_on_c, 2, 48, 96
4, 194048, Note_off_c, 2, 48, 0
4, 194048, Note_on_c, 2, 60, 96
4, 195328, Note_off_c, 2, 60, 0
4, 195328, Note_on_c, 2, 60, 96
4, 195584, Note_off_c, 2, 60, 0
4, 195584, Note_on_c, 2, 59, 96
4, 195840, Note_off_c, 2, 59, 0
4, 195840, Note_on_c, 2, 57, 96
4, 196096, Note_off_c, 2, 57, 0
4, 196096, Note_on_c, 2, 62, 96
4, 196864, Note_off_c, 2, 62, 0
4, 196864, Note_on_c, 2, 60, 96
4, 197120, Note_off_c, 2, 60, 0
4, 197120, Note_on_c, 2, 59, 96
4, 197376, Note_off_c, 2, 59, 0
4, 197376, Note_on_c, 2, 57, 96
4, 197632, Note_off_c, 2, 57, 0
4, 197632, Note_on_c, 2, 59, 96
4, 198400, Note_off_c, 2, 59, 0
4, 198400, Note_on_c, 2, 57, 96
4, 198656, Note_off_c, 2, 57, 0
4, 198656, Note_on_c, 2, 55, 96
4, 198912, Note_off_c, 2, 55, 0
4, 198912, Note_on_c, 2, 54, 96
4, 199168, Note_off_c, 2, 54, 0
4, 199168, Note_on_c, 2, 55, 96
4, 199936, Note_off_c, 2, 55, 0
4, 199936, Note_on_c, 2, 54, 96
4, 200192, Note_off_c, 2, 54, 0
4, 200192, Note_on_c, 2, 55, 96
4, 200448, Note_off_c, 2, 55, 0
4, 200448, Note_on_c, 2, 57, 96
4, 200704, Note_off_c, 2, 57, 0
4, 200704, Note_on_c, 2, 59, 96
4, 200960, Note_off_c, 2, 59, 0
4, 200960, Note_on_c, 2, 55, 96
4, 201216, Note_off_c, 2, 55, 0
4, 201216, Note_on_c, 2, 60, 96
4, 201472, Note_off_c, 2, 60, 0
4, 201472, Note_on_c, 2, 59, 96
4, 201728, Note_off_c, 2, 59, 0
4, 201728, Note_on_c, 2, 60, 96
4, 201984, Note_off_c, 2, 60, 0
4, 201984, Note_on_c, 2, 54, 96
4, 202240, Note_off_c, 2, 54, 0
4, 202240, Note_on_c, 2, 57, 96
4, 202496, Note_off_c, 2, 57, 0
4, 202496, Note_on_c, 2, 60, 96
4, 202752, Note_off_c, 2, 60, 0
4, 202752, Note_on_c, 2, 59, 96
4, 203008, Note_off_c, 2, 59, 0
4, 203008, Note_on_c, 2, 57, 96
4, 203264, Note_off_c, 2, 57, 0
4, 203264, Note_on_c, 2, 59, 96
4, 203520, Note_off_c, 2, 59, 0
4, 203520, Note_on_c, 2, 52, 96
4, 203776, Note_off_c, 2, 52, 0
4, 203776, Note_on_c, 2, 54, 96
4, 204032, Note_off_c, 2, 54, 0
4, 204032, Note_on_c, 2, 55, 96
4, 204288, Note_off_c, 2, 55, 0
4, 204288, Note_on_c, 2, 57, 96
4, 204544, Note_off_c, 2, 57, 0
4, 204544, Note_on_c, 2, 55, 96
4, 204800, Note_off_c, 2, 55, 0
4, 204800, Note_on_c, 2, 57, 96
4, 205568, Note_off_c, 2, 57, 0
4, 205568, Note_on_c, 2, 57, 96
4, 205824, Note_off_c, 2, 57, 0
4, 205824, Note_on_c, 2, 56, 96
4, 207616, Note_off_c, 2, 56, 0
4, 207616, Note_on_c, 2, 54, 96
4, 207872, Note_off_c, 2, 54, 0
4, 207872, Note_on_c, 2, 52, 96
4, 208128, Note_off_c, 2, 52, 0
4, 208128, Note_on_c, 2, 56, 96
4, 208384, Note_off_c, 2, 56, 0
4, 208384, Note_on_c, 2, 54, 96
4, 208640, Note_off_c, 2, 54, 0
4, 208640, Note_on_c, 2, 52, 96
4, 208896, Note_off_c, 2, 52, 0
4, 208896, Note_on_c, 2, 57, 96
4, 209408, Note_off_c, 2, 57, 0
4, 238081, End_track
5, 0, Start_track
5, 0, Title_t, "Instrument 4"
5, 1536, Note_on_c, 3, 47, 96
5, 2048, Note_off_c, 3, 47, 0
5, 2048, Note_on_c, 3, 52, 96
5, 2560, Note_off_c, 3, 52, 0
5, 2560, Note_on_c, 3, 51, 96
5, 3072, Note_off_c, 3, 51, 0
5, 3072, Note_on_c, 3, 52, 96
5, 5120, Note_off_c, 3, 52, 0
5, 5120, Note_on_c, 3, 54, 96
5, 5632, Note_off_c, 3, 54, 0
5, 5632, Note_on_c, 3, 52, 96
5, 6144, Note_off_c, 3, 52, 0
5, 6144, Note_on_c, 3, 51, 96
5, 6656, Note_off_c, 3, 51, 0
5, 6656, Note_on_c, 3, 49, 96
5, 7168, Note_off_c, 3, 49, 0
5, 7168, Note_on_c, 3, 47, 96
5, 7680, Note_off_c, 3, 47, 0
5, 7680, Note_on_c, 3, 48, 96
5, 8704, Note_off_c, 3, 48, 0
5, 8704, Note_on_c, 3, 43, 96
5, 9216, Note_off_c, 3, 43, 0
5, 9216, Note_on_c, 3, 45, 96
5, 10240, Note_off_c, 3, 45, 0
5, 10240, Note_on_c, 3, 42, 96
5, 10752, Note_off_c, 3, 42, 0
5, 10752, Note_on_c, 3, 47, 96
5, 11776, Note_off_c, 3, 47, 0
5, 11776, Note_on_c, 3, 42, 96
5, 12288, Note_off_c, 3, 42, 0
5, 12288, Note_on_c, 3, 44, 96
5, 13312, Note_off_c, 3, 44, 0
5, 13312, Note_on_c, 3, 40, 96
5, 13824, Note_off_c, 3, 40, 0
5, 13824, Note_on_c, 3, 45, 96
5, 15872, Note_off_c, 3, 45, 0
5, 15872, Note_on_c, 3, 47, 96
5, 16384, Note_off_c, 3, 47, 0
5, 16384, Note_on_c, 3, 45, 96
5, 16896, Note_off_c, 3, 45, 0
5, 16896, Note_on_c, 3, 43, 96
5, 18944, Note_off_c, 3, 43, 0
5, 18944, Note_on_c, 3, 45, 96
5, 19456, Note_off_c, 3, 45, 0
5, 19456, Note_on_c, 3, 43, 96
5, 19968, Note_off_c, 3, 43, 0
5, 19968, Note_on_c, 3, 42, 96
5, 20992, Note_off_c, 3, 42, 0
5, 20992, Note_on_c, 3, 47, 96
5, 21504, Note_off_c, 3, 47, 0
5, 21504, Note_on_c, 3, 40, 96
5, 23552, Note_off_c, 3, 40, 0
5, 23552, Note_on_c, 3, 45, 96
5, 24064, Note_off_c, 3, 45, 0
5, 24064, Note_on_c, 3, 44, 96
5, 24576, Note_off_c, 3, 44, 0
5, 24576, Note_on_c, 3, 45, 96
5, 27648, Note_off_c, 3, 45, 0
5, 27648, Note_on_c, 3, 47, 96
5, 30720, Note_off_c, 3, 47, 0
5, 30720, Note_on_c, 3, 52, 96
5, 33280, Note_off_c, 3, 52, 0
5, 33280, Note_on_c, 3, 50, 96
5, 33792, Note_off_c, 3, 50, 0
5, 33792, Note_on_c, 3, 52, 96
5, 34816, Note_off_c, 3, 52, 0
5, 34816, Note_on_c, 3, 49, 96
5, 35328, Note_off_c, 3, 49, 0
5, 35328, Note_on_c, 3, 54, 96
5, 36352, Note_off_c, 3, 54, 0
5, 36352, Note_on_c, 3, 49, 96
5, 36864, Note_off_c, 3, 49, 0
5, 36864, Note_on_c, 3, 51, 96
5, 37888, Note_off_c, 3, 51, 0
5, 37888, Note_on_c, 3, 47, 96
5, 38400, Note_off_c, 3, 47, 0
5, 39936, Note_on_c, 3, 40, 96
5, 40448, Note_off_c, 3, 40, 0
5, 40448, Note_on_c, 3, 48, 96
5, 40960, Note_off_c, 3, 48, 0
5, 40960, Note_on_c, 3, 47, 96
5, 41472, Note_off_c, 3, 47, 0
5, 41472, Note_on_c, 3, 48, 96
5, 41984, Note_off_c, 3, 48, 0
5, 41984, Note_on_c, 3, 46, 96
5, 42496, Note_off_c, 3, 46, 0
5, 42496, Note_on_c, 3, 47, 96
5, 43008, Note_off_c, 3, 47, 0
5, 43008, Note_on_c, 3, 46, 96
5, 46592, Note_off_c, 3, 46, 0
5, 46592, Note_on_c, 3, 47, 96
5, 47104, Note_off_c, 3, 47, 0
5, 47104, Note_on_c, 3, 46, 96
5, 47616, Note_off_c, 3, 46, 0
5, 47616, Note_on_c, 3, 47, 96
5, 49152, Note_off_c, 3, 47, 0
5, 49152, Note_on_c, 3, 52, 96
5, 52224, Note_off_c, 3, 52, 0
5, 52224, Note_on_c, 3, 52, 96
5, 54272, Note_off_c, 3, 52, 0
5, 54272, Note_on_c, 3, 51, 96
5, 54784, Note_off_c, 3, 51, 0
5, 54784, Note_on_c, 3, 52, 96
5, 55296, Note_off_c, 3, 52, 0
5, 55296, Note_on_c, 3, 40, 96
5, 57600, Note_off_c, 3, 40, 0
5, 65024, Note_on_c, 3, 52, 96
5, 65536, Note_off_c, 3, 52, 0
5, 65536, Note_on_c, 3, 47, 96
5, 66048, Note_off_c, 3, 47, 0
5, 66048, Note_on_c, 3, 48, 96
5, 66560, Note_off_c, 3, 48, 0
5, 66560, Note_on_c, 3, 47, 96
5, 67072, Note_off_c, 3, 47, 0
5, 67072, Note_on_c, 3, 45, 96
5, 67584, Note_off_c, 3, 45, 0
5, 67584, Note_on_c, 3, 43, 96
5, 68096, Note_off_c, 3, 43, 0
5, 68096, Note_on_c, 3, 52, 96
5, 68608, Note_off_c, 3, 52, 0
5, 68608, Note_on_c, 3, 50, 96
5, 69120, Note_off_c, 3, 50, 0
5, 69120, Note_on_c, 3, 48, 96
5, 70656, Note_off_c, 3, 48, 0
5, 71168, Note_on_c, 3, 47, 96
5, 71680, Note_off_c, 3, 47, 0
5, 71680, Note_on_c, 3, 52, 96
5, 72192, Note_off_c, 3, 52, 0
5, 72192, Note_on_c, 3, 51, 96
5, 72704, Note_off_c, 3, 51, 0
5, 72704, Note_on_c, 3, 52, 96
5, 73216, Note_off_c, 3, 52, 0
5, 73216, Note_on_c, 3, 54, 96
5, 73728, Note_off_c, 3, 54, 0
5, 73728, Note_on_c, 3, 47, 96
5, 74240, Note_off_c, 3, 47, 0
5, 74240, Note_on_c, 3, 52, 96
5, 74752, Note_off_c, 3, 52, 0
5, 74752, Note_on_c, 3, 47, 96
5, 75264, Note_off_c, 3, 47, 0
5, 75264, Note_on_c, 3, 48, 96
5, 75776, Note_off_c, 3, 48, 0
5, 75776, Note_on_c, 3, 47, 96
5, 76288, Note_off_c, 3, 47, 0
5, 76288, Note_on_c, 3, 45, 96
5, 76800, Note_off_c, 3, 45, 0
5, 76800, Note_on_c, 3, 43, 96
5, 78336, Note_off_c, 3, 43, 0
5, 78336, Note_on_c, 3, 45, 96
5, 79360, Note_off_c, 3, 45, 0
5, 79360, Note_on_c, 3, 47, 96
5, 79872, Note_off_c, 3, 47, 0
5, 79872, Note_on_c, 3, 40, 96
5, 80384, Note_off_c, 3, 40, 0
5, 80384, Note_on_c, 3, 55, 96
5, 80896, Note_off_c, 3, 55, 0
5, 80896, Note_on_c, 3, 50, 96
5, 81408, Note_off_c, 3, 50, 0
5, 81408, Note_on_c, 3, 52, 96
5, 81920, Note_off_c, 3, 52, 0
5, 81920, Note_on_c, 3, 50, 96
5, 82432, Note_off_c, 3, 50, 0
5, 82432, Note_on_c, 3, 48, 96
5, 82944, Note_off_c, 3, 48, 0
5, 82944, Note_on_c, 3, 47, 96
5, 83456, Note_off_c, 3, 47, 0
5, 83456, Note_on_c, 3, 52, 96
5, 83968, Note_off_c, 3, 52, 0
5, 83968, Note_on_c, 3, 47, 96
5, 84480, Note_off_c, 3, 47, 0
5, 84480, Note_on_c, 3, 48, 96
5, 84992, Note_off_c, 3, 48, 0
5, 84992, Note_on_c, 3, 47, 96
5, 85504, Note_off_c, 3, 47, 0
5, 85504, Note_on_c, 3, 45, 96
5, 86016, Note_off_c, 3, 45, 0
5, 86016, Note_on_c, 3, 43, 96
5, 87040, Note_off_c, 3, 43, 0
5, 87040, Note_on_c, 3, 47, 96
5, 87552, Note_off_c, 3, 47, 0
5, 87552, Note_on_c, 3, 48, 96
5, 88576, Note_off_c, 3, 48, 0
5, 88576, Note_on_c, 3, 50, 96
5, 89088, Note_off_c, 3, 50, 0
5, 89088, Note_on_c, 3, 43, 96
5, 90112, Note_off_c, 3, 43, 0
5, 90112, Note_on_c, 3, 45, 96
5, 90624, Note_off_c, 3, 45, 0
5, 90624, Note_on_c, 3, 47, 96
5, 91136, Note_off_c, 3, 47, 0
5, 91136, Note_on_c, 3, 49, 96
5, 91648, Note_off_c, 3, 49, 0
5, 91648, Note_on_c, 3, 51, 96
5, 92160, Note_off_c, 3, 51, 0
5, 92160, Note_on_c, 3, 40, 96
5, 93696, Note_off_c, 3, 40, 0
5, 93696, Note_on_c, 3, 45, 96
5, 95232, Note_off_c, 3, 45, 0
5, 95232, Note_on_c, 3, 38, 96
5, 95744, Note_off_c, 3, 38, 0
5, 95744, Note_on_c, 3, 52, 96
5, 96256, Note_off_c, 3, 52, 0
5, 96256, Note_on_c, 3, 47, 96
5, 96768, Note_off_c, 3, 47, 0
5, 96768, Note_on_c, 3, 48, 96
5, 97280, Note_off_c, 3, 48, 0
5, 97280, Note_on_c, 3, 47, 96
5, 97792, Note_off_c, 3, 47, 0
5, 97792, Note_on_c, 3, 45, 96
5, 98304, Note_off_c, 3, 45, 0
5, 98304, Note_on_c, 3, 44, 96
5, 99840, Note_off_c, 3, 44, 0
5, 99840, Note_on_c, 3, 45, 96
5, 101376, Note_off_c, 3, 45, 0
5, 101376, Note_on_c, 3, 40, 96
5, 102912, Note_off_c, 3, 40, 0
5, 110848, Note_on_c, 3, 40, 96
5, 111104, Note_off_c, 3, 40, 0
5, 111104, Note_on_c, 3, 42, 96
5, 111360, Note_off_c, 3, 42, 0
5, 111360, Note_on_c, 3, 43, 96
5, 111616, Note_off_c, 3, 43, 0
5, 111616, Note_on_c, 3, 45, 96
5, 111872, Note_off_c, 3, 45, 0
5, 111872, Note_on_c, 3, 47, 96
5, 112128, Note_off_c, 3, 47, 0
5, 112128, Note_on_c, 3, 48, 96
5, 112384, Note_off_c, 3, 48, 0
5, 112384, Note_on_c, 3, 43, 96
5, 112640, Note_off_c, 3, 43, 0
5, 112640, Note_on_c, 3, 45, 96
5, 112896, Note_off_c, 3, 45, 0
5, 112896, Note_on_c, 3, 47, 96
5, 113152, Note_off_c, 3, 47, 0
5, 113152, Note_on_c, 3, 48, 96
5, 113408, Note_off_c, 3, 48, 0
5, 113408, Note_on_c, 3, 50, 96
5, 113664, Note_off_c, 3, 50, 0
5, 113664, Note_on_c, 3, 52, 96
5, 113920, Note_off_c, 3, 52, 0
5, 113920, Note_on_c, 3, 54, 96
5, 114176, Note_off_c, 3, 54, 0
5, 114176, Note_on_c, 3, 52, 96
5, 114432, Note_off_c, 3, 52, 0
5, 114432, Note_on_c, 3, 50, 96
5, 114688, Note_off_c, 3, 50, 0
5, 114688, Note_on_c, 3, 48, 96
5, 114944, Note_off_c, 3, 48, 0
5, 114944, Note_on_c, 3, 47, 96
5, 115200, Note_off_c, 3, 47, 0
5, 115200, Note_on_c, 3, 45, 96
5, 115456, Note_off_c, 3, 45, 0
5, 115456, Note_on_c, 3, 52, 96
5, 115712, Note_off_c, 3, 52, 0
5, 115712, Note_on_c, 3, 50, 96
5, 115968, Note_off_c, 3, 50, 0
5, 115968, Note_on_c, 3, 48, 96
5, 116224, Note_off_c, 3, 48, 0
5, 116224, Note_on_c, 3, 47, 96
5, 116480, Note_off_c, 3, 47, 0
5, 116480, Note_on_c, 3, 45, 96
5, 116736, Note_off_c, 3, 45, 0
5, 116736, Note_on_c, 3, 43, 96
5, 116992, Note_off_c, 3, 43, 0
5, 116992, Note_on_c, 3, 57, 96
5, 117248, Note_off_c, 3, 57, 0
5, 117248, Note_on_c, 3, 55, 96
5, 117504, Note_off_c, 3, 55, 0
5, 117504, Note_on_c, 3, 54, 96
5, 117760, Note_off_c, 3, 54, 0
5, 117760, Note_on_c, 3, 52, 96
5, 118016, Note_off_c, 3, 52, 0
5, 118016, Note_on_c, 3, 50, 96
5, 118272, Note_off_c, 3, 50, 0
5, 118272, Note_on_c, 3, 48, 96
5, 118784, Note_off_c, 3, 48, 0
5, 118784, Note_on_c, 3, 45, 96
5, 119296, Note_off_c, 3, 45, 0
5, 119296, Note_on_c, 3, 50, 96
5, 119808, Note_off_c, 3, 50, 0
5, 119808, Note_on_c, 3, 52, 96
5, 120832, Note_off_c, 3, 52, 0
5, 120832, Note_on_c, 3, 47, 96
5, 121344, Note_off_c, 3, 47, 0
5, 121344, Note_on_c, 3, 48, 96
5, 122880, Note_off_c, 3, 48, 0
5, 122880, Note_on_c, 3, 43, 96
5, 128768, Note_off_c, 3, 43, 0
5, 128768, Note_on_c, 3, 41, 96
5, 129024, Note_off_c, 3, 41, 0
5, 129024, Note_on_c, 3, 40, 96
5, 130304, Note_off_c, 3, 40, 0
5, 130304, Note_on_c, 3, 38, 96
5, 130560, Note_off_c, 3, 38, 0
5, 130560, Note_on_c, 3, 36, 96
5, 131072, Note_off_c, 3, 36, 0
5, 138496, Note_on_c, 3, 43, 96
5, 138752, Note_off_c, 3, 43, 0
5, 138752, Note_on_c, 3, 45, 96
5, 139008, Note_off_c, 3, 45, 0
5, 139008, Note_on_c, 3, 47, 96
5, 139264, Note_off_c, 3, 47, 0
5, 139264, Note_on_c, 3, 48, 96
5, 139520, Note_off_c, 3, 48, 0
5, 139520, Note_on_c, 3, 50, 96
5, 139776, Note_off_c, 3, 50, 0
5, 139776, Note_on_c, 3, 52, 96
5, 140032, Note_off_c, 3, 52, 0
5, 140032, Note_on_c, 3, 47, 96
5, 140288, Note_off_c, 3, 47, 0
5, 140288, Note_on_c, 3, 48, 96
5, 140544, Note_off_c, 3, 48, 0
5, 140544, Note_on_c, 3, 50, 96
5, 140800, Note_off_c, 3, 50, 0
5, 140800, Note_on_c, 3, 52, 96
5, 141056, Note_off_c, 3, 52, 0
5, 141056, Note_on_c, 3, 54, 96
5, 141312, Note_off_c, 3, 54, 0
5, 141312, Note_on_c, 3, 55, 96
5, 141824, Note_off_c, 3, 55, 0
5, 144384, Note_on_c, 3, 43, 96
5, 145920, Note_off_c, 3, 43, 0
5, 147968, Note_on_c, 3, 60, 96
5, 148224, Note_off_c, 3, 60, 0
5, 148224, Note_on_c, 3, 59, 96
5, 148480, Note_off_c, 3, 59, 0
5, 148480, Note_on_c, 3, 57, 96
5, 148736, Note_off_c, 3, 57, 0
5, 148736, Note_on_c, 3, 55, 96
5, 148992, Note_off_c, 3, 55, 0
5, 148992, Note_on_c, 3, 54, 96
5, 149504, Note_off_c, 3, 54, 0
5, 149504, Note_on_c, 3, 50, 96
5, 150016, Note_off_c, 3, 50, 0
5, 150016, Note_on_c, 3, 54, 96
5, 150528, Note_off_c, 3, 54, 0
5, 150528, Note_on_c, 3, 55, 96
5, 151552, Note_off_c, 3, 55, 0
5, 151552, Note_on_c, 3, 51, 96
5, 152064, Note_off_c, 3, 51, 0
5, 152064, Note_on_c, 3, 52, 96
5, 153088, Note_off_c, 3, 52, 0
5, 153088, Note_on_c, 3, 47, 96
5, 153600, Note_off_c, 3, 47, 0
5, 153600, Note_on_c, 3, 49, 96
5, 155136, Note_off_c, 3, 49, 0
5, 155136, Note_on_c, 3, 51, 96
5, 156672, Note_off_c, 3, 51, 0
5, 156672, Note_on_c, 3, 52, 96
5, 158720, Note_off_c, 3, 52, 0
5, 158720, Note_on_c, 3, 51, 96
5, 159744, Note_off_c, 3, 51, 0
5, 159744, Note_on_c, 3, 52, 96
5, 160256, Note_off_c, 3, 52, 0
5, 160256, Note_on_c, 3, 40, 96
5, 160768, Note_off_c, 3, 40, 0
5, 161536, Note_on_c, 3, 64, 96
5, 161792, Note_off_c, 3, 64, 0
5, 161792, Note_on_c, 3, 62, 96
5, 162048, Note_off_c, 3, 62, 0
5, 162048, Note_on_c, 3, 60, 96
5, 162304, Note_off_c, 3, 60, 0
5, 162304, Note_on_c, 3, 59, 96
5, 162560, Note_off_c, 3, 59, 0
5, 162560, Note_on_c, 3, 57, 96
5, 162816, Note_off_c, 3, 57, 0
5, 162816, Note_on_c, 3, 55, 96
5, 163072, Note_off_c, 3, 55, 0
5, 163072, Note_on_c, 3, 54, 96
5, 163328, Note_off_c, 3, 54, 0
5, 163328, Note_on_c, 3, 52, 96
5, 163584, Note_off_c, 3, 52, 0
5, 163584, Note_on_c, 3, 50, 96
5, 163840, Note_off_c, 3, 50, 0
5, 163840, Note_on_c, 3, 55, 96
5, 164608, Note_off_c, 3, 55, 0
5, 164608, Note_on_c, 3, 55, 96
5, 164864, Note_off_c, 3, 55, 0
5, 164864, Note_on_c, 3, 54, 96
5, 165120, Note_off_c, 3, 54, 0
5, 165120, Note_on_c, 3, 52, 96
5, 165376, Note_off_c, 3, 52, 0
5, 165376, Note_on_c, 3, 57, 96
5, 166144, Note_off_c, 3, 57, 0
5, 166144, Note_on_c, 3, 55, 96
5, 166400, Note_off_c, 3, 55, 0
5, 166400, Note_on_c, 3, 54, 96
5, 166656, Note_off_c, 3, 54, 0
5, 166656, Note_on_c, 3, 52, 96
5, 166912, Note_off_c, 3, 52, 0
5, 166912, Note_on_c, 3, 54, 96
5, 167680, Note_off_c, 3, 54, 0
5, 167680, Note_on_c, 3, 52, 96
5, 167936, Note_off_c, 3, 52, 0
5, 167936, Note_on_c, 3, 50, 96
5, 168192, Note_off_c, 3, 50, 0
5, 168192, Note_on_c, 3, 49, 96
5, 168448, Note_off_c, 3, 49, 0
5, 168448, Note_on_c, 3, 50, 96
5, 169216, Note_off_c, 3, 50, 0
5, 169216, Note_on_c, 3, 48, 96
5, 169472, Note_off_c, 3, 48, 0
5, 169472, Note_on_c, 3, 50, 96
5, 169728, Note_off_c, 3, 50, 0
5, 169728, Note_on_c, 3, 52, 96
5, 169984, Note_off_c, 3, 52, 0
5, 169984, Note_on_c, 3, 54, 96
5, 170240, Note_off_c, 3, 54, 0
5, 170240, Note_on_c, 3, 50, 96
5, 170496, Note_off_c, 3, 50, 0
5, 170496, Note_on_c, 3, 55, 96
5, 170752, Note_off_c, 3, 55, 0
5, 170752, Note_on_c, 3, 54, 96
5, 171008, Note_off_c, 3, 54, 0
5, 171008, Note_on_c, 3, 55, 96
5, 171264, Note_off_c, 3, 55, 0
5, 171264, Note_on_c, 3, 49, 96
5, 171520, Note_off_c, 3, 49, 0
5, 171520, Note_on_c, 3, 52, 96
5, 171776, Note_off_c, 3, 52, 0
5, 171776, Note_on_c, 3, 55, 96
5, 172032, Note_off_c, 3, 55, 0
5, 172032, Note_on_c, 3, 54, 96
5, 172288, Note_off_c, 3, 54, 0
5, 172288, Note_on_c, 3, 52, 96
5, 172544, Note_off_c, 3, 52, 0
5, 172544, Note_on_c, 3, 54, 96
5, 172800, Note_off_c, 3, 54, 0
5, 172800, Note_on_c, 3, 47, 96
5, 173056, Note_off_c, 3, 47, 0
5, 173056, Note_on_c, 3, 49, 96
5, 173312, Note_off_c, 3, 49, 0
5, 173312, Note_on_c, 3, 50, 96
5, 173568, Note_off_c, 3, 50, 0
5, 173568, Note_on_c, 3, 52, 96
5, 173824, Note_off_c, 3, 52, 0
5, 173824, Note_on_c, 3, 50, 96
5, 174080, Note_off_c, 3, 50, 0
5, 174080, Note_on_c, 3, 52, 96
5, 174336, Note_off_c, 3, 52, 0
5, 174336, Note_on_c, 3, 55, 96
5, 174592, Note_off_c, 3, 55, 0
5, 174592, Note_on_c, 3, 54, 96
5, 174848, Note_off_c, 3, 54, 0
5, 174848, Note_on_c, 3, 52, 96
5, 175104, Note_off_c, 3, 52, 0
5, 175104, Note_on_c, 3, 50, 96
5, 175360, Note_off_c, 3, 50, 0
5, 175360, Note_on_c, 3, 49, 96
5, 175616, Note_off_c, 3, 49, 0
5, 175616, Note_on_c, 3, 47, 96
5, 175872, Note_off_c, 3, 47, 0
5, 175872, Note_on_c, 3, 50, 96
5, 176128, Note_off_c, 3, 50, 0
5, 176128, Note_on_c, 3, 49, 96
5, 176384, Note_off_c, 3, 49, 0
5, 176384, Note_on_c, 3, 47, 96
5, 176640, Note_off_c, 3, 47, 0
5, 176640, Note_on_c, 3, 54, 96
5, 178176, Note_off_c, 3, 54, 0
5, 178176, Note_on_c, 3, 55, 96
5, 179712, Note_off_c, 3, 55, 0
5, 179712, Note_on_c, 3, 54, 96
5, 180992, Note_off_c, 3, 54, 0
5, 180992, Note_on_c, 3, 52, 96
5, 181248, Note_off_c, 3, 52, 0
5, 181248, Note_on_c, 3, 50, 96
5, 182528, Note_off_c, 3, 50, 0
5, 182528, Note_on_c, 3, 48, 96
5, 182784, Note_off_c, 3, 48, 0
5, 182784, Note_on_c, 3, 47, 96
5, 184064, Note_off_c, 3, 47, 0
5, 184064, Note_on_c, 3, 49, 96
5, 184320, Note_off_c, 3, 49, 0
5, 184320, Note_on_c, 3, 50, 96
5, 185856, Note_off_c, 3, 50, 0
5, 185856, Note_on_c, 3, 48, 96
5, 187392, Note_off_c, 3, 48, 0
5, 187392, Note_on_c, 3, 47, 96
5, 188928, Note_off_c, 3, 47, 0
5, 188928, Note_on_c, 3, 45, 96
5, 190464, Note_off_c, 3, 45, 0
5, 190464, Note_on_c, 3, 43, 96
5, 192000, Note_off_c, 3, 43, 0
5, 194048, Note_on_c, 3, 60, 96
5, 194304, Note_off_c, 3, 60, 0
5, 194304, Note_on_c, 3, 59, 96
5, 194560, Note_off_c, 3, 59, 0
5, 194560, Note_on_c, 3, 57, 96
5, 194816, Note_off_c, 3, 57, 0
5, 194816, Note_on_c, 3, 55, 96
5, 195072, Note_off_c, 3, 55, 0
5, 195072, Note_on_c, 3, 54, 96
5, 195584, Note_off_c, 3, 54, 0
5, 195584, Note_on_c, 3, 50, 96
5, 196096, Note_off_c, 3, 50, 0
5, 196096, Note_on_c, 3, 54, 96
5, 196608, Note_off_c, 3, 54, 0
5, 196608, Note_on_c, 3, 55, 96
5, 197632, Note_off_c, 3, 55, 0
5, 197632, Note_on_c, 3, 51, 96
5, 198144, Note_off_c, 3, 51, 0
5, 198144, Note_on_c, 3, 52, 96
5, 199168, Note_off_c, 3, 52, 0
5, 199168, Note_on_c, 3, 47, 96
5, 199680, Note_off_c, 3, 47, 0
5, 199680, Note_on_c, 3, 49, 96
5, 201216, Note_off_c, 3, 49, 0
5, 201216, Note_on_c, 3, 51, 96
5, 202752, Note_off_c, 3, 51, 0
5, 202752, Note_on_c, 3, 52, 96
5, 204800, Note_off_c, 3, 52, 0
5, 204800, Note_on_c, 3, 51, 96
5, 205312, Note_off_c, 3, 51, 0
5, 205312, Note_on_c, 3, 50, 96
5, 206080, Note_off_c, 3, 50, 0
5, 206080, Note_on_c, 3, 48, 96
5, 206336, Note_off_c, 3, 48, 0
5, 206336, Note_on_c, 3, 50, 96
5, 206592, Note_off_c, 3, 50, 0
5, 206592, Note_on_c, 3, 44, 96
5, 206848, Note_off_c, 3, 44, 0
5, 206848, Note_on_c, 3, 45, 96
5, 207104, Note_off_c, 3, 45, 0
5, 207104, Note_on_c, 3, 47, 96
5, 207360, Note_off_c, 3, 47, 0
5, 207360, Note_on_c, 3, 48, 96
5, 209152, Note_off_c, 3, 48, 0
5, 209152, Note_on_c, 3, 47, 96
5, 209408, Note_off_c, 3, 47, 0
5, 209408, Note_on_c, 3, 48, 96
5, 209664, Note_off_c, 3, 48, 0
5, 209664, Note_on_c, 3, 45, 96
5, 209920, Note_off_c, 3, 45, 0
5, 209920, Note_on_c, 3, 48, 96
5, 210176, Note_off_c, 3, 48, 0
5, 210176, Note_on_c, 3, 52, 96
5, 210432, Note_off_c, 3, 52, 0
5, 210432, Note_on_c, 3, 57, 96
5, 210688, Note_off_c, 3, 57, 0
5, 210688, Note_on_c, 3, 56, 96
5, 210944, Note_off_c, 3, 56, 0
5, 210944, Note_on_c, 3, 57, 96
5, 211200, Note_off_c, 3, 57, 0
5, 211200, Note_on_c, 3, 52, 96
5, 211456, Note_off_c, 3, 52, 0
5, 211456, Note_on_c, 3, 57, 96
5, 211712, Note_off_c, 3, 57, 0
5, 211712, Note_on_c, 3, 60, 96
5, 211968, Note_off_c, 3, 60, 0
5, 211968, Note_on_c, 3, 64, 96
5, 212224, Note_off_c, 3, 64, 0
5, 212224, Note_on_c, 3, 62, 96
5, 212480, Note_off_c, 3, 62, 0
5, 212480, Note_on_c, 3, 64, 96
5, 212736, Note_off_c, 3, 64, 0
5, 212736, Note_on_c, 3, 57, 96
5, 212992, Note_off_c, 3, 57, 0
5, 212992, Note_on_c, 3, 60, 96
5, 213248, Note_off_c, 3, 60, 0
5, 213248, Note_on_c, 3, 64, 96
5, 213504, Note_off_c, 3, 64, 0
5, 213504, Note_on_c, 3, 69, 96
5, 213760, Note_off_c, 3, 69, 0
5, 213760, Note_on_c, 3, 68, 96
5, 214016, Note_off_c, 3, 68, 0
5, 214016, Note_on_c, 3, 69, 96
5, 214272, Note_off_c, 3, 69, 0
5, 214272, Note_on_c, 3, 64, 96
5, 214528, Note_off_c, 3, 64, 0
5, 214528, Note_on_c, 3, 69, 96
5, 214784, Note_off_c, 3, 69, 0
5, 214784, Note_on_c, 3, 72, 96
5, 215040, Note_off_c, 3, 72, 0
5, 215040, Note_on_c, 3, 76, 96
5, 215296, Note_off_c, 3, 76, 0
5, 215296, Note_on_c, 3, 74, 96
5, 215552, Note_off_c, 3, 74, 0
5, 215552, Note_on_c, 3, 76, 96
5, 215808, Note_off_c, 3, 76, 0
5, 215808, Note_on_c, 3, 69, 96
5, 216064, Note_off_c, 3, 69, 0
5, 216064, Note_on_c, 3, 72, 96
5, 216320, Note_off_c, 3, 72, 0
5, 216320, Note_on_c, 3, 76, 96
5, 216576, Note_off_c, 3, 76, 0
5, 216576, Note_on_c, 3, 81, 96
5, 216832, Note_off_c, 3, 81, 0
5, 216832, Note_on_c, 3, 80, 96
5, 217088, Note_off_c, 3, 80, 0
5, 217088, Note_on_c, 3, 81, 96
5, 217344, Note_off_c, 3, 81, 0
5, 217344, Note_on_c, 3, 78, 96
5, 217600, Note_off_c, 3, 78, 0
5, 217600, Note_on_c, 3, 75, 96
5, 217856, Note_off_c, 3, 75, 0
5, 217856, Note_on_c, 3, 71, 96
5, 218112, Note_off_c, 3, 71, 0
5, 218112, Note_on_c, 3, 80, 96
5, 218368, Note_off_c, 3, 80, 0
5, 218368, Note_on_c, 3, 78, 96
5, 218624, Note_off_c, 3, 78, 0
5, 218624, Note_on_c, 3, 80, 96
5, 218880, Note_off_c, 3, 80, 0
5, 218880, Note_on_c, 3, 77, 96
5, 219136, Note_off_c, 3, 77, 0
5, 219136, Note_on_c, 3, 74, 96
5, 219392, Note_off_c, 3, 74, 0
5, 219392, Note_on_c, 3, 71, 96
5, 219648, Note_off_c, 3, 71, 0
5, 219648, Note_on_c, 3, 74, 96
5, 219648, Note_on_c, 3, 77, 96
5, 219904, Note_off_c, 3, 74, 0
5, 219904, Note_off_c, 3, 77, 0
5, 219904, Note_on_c, 3, 72, 96
5, 219904, Note_on_c, 3, 76, 96
5, 220160, Note_off_c, 3, 72, 0
5, 220160, Note_off_c, 3, 76, 0
5, 220160, Note_on_c, 3, 74, 96
5, 220160, Note_on_c, 3, 77, 96
5, 220416, Note_off_c, 3, 74, 0
5, 220416, Note_on_c, 3, 71, 96
5, 220672, Note_off_c, 3, 71, 0
5, 220672, Note_on_c, 3, 68, 96
5, 220928, Note_off_c, 3, 68, 0
5, 220928, Note_on_c, 3, 64, 96
5, 221184, Note_off_c, 3, 64, 0
5, 221184, Note_on_c, 3, 71, 96
5, 221184, Note_on_c, 3, 74, 96
5, 221440, Note_off_c, 3, 71, 0
5, 221440, Note_off_c, 3, 74, 0
5, 221440, Note_on_c, 3, 69, 96
5, 221440, Note_on_c, 3, 72, 96
5, 221696, Note_off_c, 3, 69, 0
5, 221696, Note_off_c, 3, 72, 0
5, 221696, Note_on_c, 3, 71, 96
5, 221696, Note_on_c, 3, 74, 96
5, 221952, Note_off_c, 3, 71, 0
5, 221952, Note_on_c, 3, 68, 96
5, 222208, Note_off_c, 3, 68, 0
5, 222208, Note_on_c, 3, 65, 96
5, 222464, Note_off_c, 3, 65, 0
5, 222464, Note_on_c, 3, 62, 96
5, 222720, Note_off_c, 3, 62, 0
5, 222720, Note_off_c, 3, 74, 0
5, 222720, Note_off_c, 3, 77, 0
5, 222720, Note_on_c, 3, 68, 96
5, 222720, Note_on_c, 3, 71, 96
5, 222720, Note_on_c, 3, 74, 96
5, 223232, Note_off_c, 3, 68, 0
5, 223232, Note_off_c, 3, 71, 0
5, 223232, Note_off_c, 3, 74, 0
5, 224256, Note_on_c, 3, 69, 96
5, 224256, Note_on_c, 3, 72, 96
5, 224768, Note_off_c, 3, 69, 0
5, 224768, Note_off_c, 3, 72, 0
5, 226048, Note_on_c, 3, 71, 96
5, 226304, Note_off_c, 3, 71, 0
5, 226304, Note_on_c, 3, 69, 96
5, 226560, Note_off_c, 3, 69, 0
5, 226560, Note_on_c, 3, 68, 96
5, 226816, Note_off_c, 3, 68, 0
5, 226816, Note_on_c, 3, 69, 96
5, 227072, Note_on_c, 3, 66, 96
5, 227328, Note_on_c, 3, 63, 96
5, 227840, Note_off_c, 3, 63, 0
5, 227840, Note_off_c, 3, 66, 0
5, 227840, Note_off_c, 3, 69, 0
5, 229632, Note_on_c, 3, 57, 96
5, 230144, Note_on_c, 3, 54, 96
5, 230400, Note_off_c, 3, 54, 0
5, 230400, Note_off_c, 3, 57, 0
5, 230400, Note_on_c, 3, 56, 96
5, 230912, Note_off_c, 3, 56, 0
5, 231680, Note_on_c, 3, 57, 96
5, 231936, Note_off_c, 3, 57, 0
5, 231936, Note_on_c, 3, 59, 96
5, 232192, Note_on_c, 3, 54, 96
5, 232448, Note_off_c, 3, 54, 0
5, 232448, Note_on_c, 3, 56, 96
5, 232960, Note_on_c, 3, 51, 96
5, 233216, Note_off_c, 3, 51, 0
5, 233216, Note_on_c, 3, 52, 96
5, 233472, Note_off_c, 3, 56, 0
5, 233472, Note_on_c, 3, 55, 96
5, 238080, Note_off_c, 3, 52, 0
5, 238080, Note_off_c, 3, 55, 0
5, 238080, Note_off_c, 3, 59, 0
5, 238081, End_track
6, 0, Start_track
6, 0, Title_t, "Instrument 5"
6, 218112, Note_on_c, 4, 28, 96
6, 218112, Note_on_c, 4, 40, 96
6, 238080, Note_off_c, 4, 28, 0
6, 238080, Note_off_c, 4, 40, 0
6, 238081, End_track
0, 0, End_of_file
