0, 0, Header, 1, 9, 1024
1, 0, Start_track
1, 0, Time_signature, 4, 2, 24, 8
1, 0, Key_signature, 2, "major"
1, 0, Tempo, 1000000
1, 141312, End_track
2, 0, Start_track
2, 0, Title_t, "Instrument 1"
2, 27648, Note_on_c, 0, 69, 96
2, 28672, Note_off_c, 0, 69, 0
2, 28672, Note_on_c, 0, 66, 96
2, 29696, Note_off_c, 0, 66, 0
2, 29696, Note_on_c, 0, 64, 96
2, 30208, Note_off_c, 0, 64, 0
2, 30208, Note_on_c, 0, 62, 96
2, 30720, Note_off_c, 0, 62, 0
2, 30720, Note_on_c, 0, 69, 96
2, 31744, Note_off_c, 0, 69, 0
2, 31744, Note_on_c, 0, 69, 96
2, 32768, Note_off_c, 0, 69, 0
2, 32768, Note_on_c, 0, 71, 96
2, 34816, Note_off_c, 0, 71, 0
2, 35840, Note_on_c, 0, 71, 96
2, 36864, Note_off_c, 0, 71, 0
2, 36864, Note_on_c, 0, 64, 96
2, 37888, Note_off_c, 0, 64, 0
2, 37888, Note_on_c, 0, 64, 96
2, 38912, Note_off_c, 0, 64, 0
2, 38912, Note_on_c, 0, 69, 96
2, 40448, Note_off_c, 0, 69, 0
2, 40448, Note_on_c, 0, 67, 96
2, 40960, Note_off_c, 0, 67, 0
2, 40960, Note_on_c, 0, 66, 96
2, 41984, Note_off_c, 0, 66, 0
2, 41984, Note_on_c, 0, 64, 96
2, 43008, Note_off_c, 0, 64, 0
2, 43008, Note_on_c, 0, 62, 96
2, 44032, Note_off_c, 0, 62, 0
2, 52224, Note_on_c, 0, 69, 96
2, 53248, Note_off_c, 0, 69, 0
2, 53248, Note_on_c, 0, 71, 96
2, 54272, Note_off_c, 0, 71, 0
2, 54272, Note_on_c, 0, 71, 96
2, 55296, Note_off_c, 0, 71, 0
2, 55296, Note_on_c, 0, 69, 96
2, 56320, Note_off_c, 0, 69, 0
2, 56320, Note_on_c, 0, 67, 96
2, 57344, Note_off_c, 0, 67, 0
2, 57344, Note_on_c, 0, 66, 96
2, 59392, Note_off_c, 0, 66, 0
2, 60416, Note_on_c, 0, 64, 96
2, 61440, Note_off_c, 0, 64, 0
2, 61440, Note_on_c, 0, 66, 96
2, 62464, Note_off_c, 0, 66, 0
2, 62464, Note_on_c, 0, 68, 96
2, 63488, Note_off_c, 0, 68, 0
2, 63488, Note_on_c, 0, 69, 96
2, 64512, Note_off_c, 0, 69, 0
2, 64512, Note_on_c, 0, 71, 96
2, 65024, Note_off_c, 0, 71, 0
2, 65024, Note_on_c, 0, 73, 96
2, 65280, Note_off_c, 0, 73, 0
2, 65280, Note_on_c, 0, 74, 96
2, 65536, Note_off_c, 0, 74, 0
2, 65536, Note_on_c, 0, 73, 96
2, 66560, Note_off_c, 0, 73, 0
2, 66560, Note_on_c, 0, 71, 96
2, 67584, Note_off_c, 0, 71, 0
2, 67584, Note_on_c, 0, 69, 96
2, 68608, Note_off_c, 0, 69, 0
2, 76800, Note_on_c, 0, 69, 96
2, 77824, Note_off_c, 0, 69, 0
2, 77824, Note_on_c, 0, 69, 96
2, 78848, Note_off_c, 0, 69, 0
2, 78848, Note_on_c, 0, 69, 96
2, 79872, Note_off_c, 0, 69, 0
2, 79872, Note_on_c, 0, 74, 96
2, 80896, Note_off_c, 0, 74, 0
2, 80896, Note_on_c, 0, 72, 96
2, 81920, Note_off_c, 0, 72, 0
2, 81920, Note_on_c, 0, 71, 96
2, 83968, Note_off_c, 0, 71, 0
2, 84992, Note_on_c, 0, 71, 96
2, 86016, Note_off_c, 0, 71, 0
2, 86016, Note_on_c, 0, 71, 96
2, 87040, Note_off_c, 0, 71, 0
2, 87040, Note_on_c, 0, 71, 96
2, 88064, Note_off_c, 0, 71, 0
2, 88064, Note_on_c, 0, 76, 96
2, 89088, Note_off_c, 0, 76, 0
2, 89088, Note_on_c, 0, 74, 96
2, 90112, Note_off_c, 0, 74, 0
2, 90112, Note_on_c, 0, 73, 96
2, 91136, Note_off_c, 0, 73, 0
2, 101376, Note_on_c, 0, 69, 96
2, 102400, Note_off_c, 0, 69, 0
2, 102400, Note_on_c, 0, 71, 96
2, 103424, Note_off_c, 0, 71, 0
2, 103424, Note_on_c, 0, 69, 96
2, 104448, Note_off_c, 0, 69, 0
2, 104448, Note_on_c, 0, 71, 96
2, 105472, Note_off_c, 0, 71, 0
2, 105472, Note_on_c, 0, 73, 96
2, 106496, Note_off_c, 0, 73, 0
2, 106496, Note_on_c, 0, 74, 96
2, 108544, Note_off_c, 0, 74, 0
2, 109568, Note_on_c, 0, 69, 96
2, 110592, Note_off_c, 0, 69, 0
2, 110592, Note_on_c, 0, 71, 96
2, 111104, Note_off_c, 0, 71, 0
2, 111104, Note_on_c, 0, 69, 96
2, 111616, Note_off_c, 0, 69, 0
2, 111616, Note_on_c, 0, 67, 96
2, 112128, Note_off_c, 0, 67, 0
2, 112128, Note_on_c, 0, 66, 96
2, 112640, Note_off_c, 0, 66, 0
2, 112640, Note_on_c, 0, 64, 96
2, 113152, Note_off_c, 0, 64, 0
2, 113152, Note_on_c, 0, 66, 96
2, 113408, Note_off_c, 0, 66, 0
2, 113408, Note_on_c, 0, 67, 96
2, 113664, Note_off_c, 0, 67, 0
2, 113664, Note_on_c, 0, 64, 96
2, 114688, Note_off_c, 0, 64, 0
2, 114688, Note_on_c, 0, 62, 96
2, 116736, Note_off_c, 0, 62, 0
2, 141312, End_track
3, 0, Start_track
3, 0, Title_t, "Instrument 2"
3, 27648, Note_on_c, 1, 64, 96
3, 28672, Note_off_c, 1, 64, 0
3, 28672, Note_on_c, 1, 62, 96
3, 29696, Note_off_c, 1, 62, 0
3, 29696, Note_on_c, 1, 57, 96
3, 30720, Note_off_c, 1, 57, 0
3, 30720, Note_on_c, 1, 62, 96
3, 31744, Note_off_c, 1, 62, 0
3, 31744, Note_on_c, 1, 62, 96
3, 32768, Note_off_c, 1, 62, 0
3, 32768, Note_on_c, 1, 62, 96
3, 34816, Note_off_c, 1, 62, 0
3, 35840, Note_on_c, 1, 62, 96
3, 36864, Note_off_c, 1, 62, 0
3, 36864, Note_on_c, 1, 61, 96
3, 37888, Note_off_c, 1, 61, 0
3, 37888, Note_on_c, 1, 61, 96
3, 38400, Note_off_c, 1, 61, 0
3, 38400, Note_on_c, 1, 62, 96
3, 38912, Note_off_c, 1, 62, 0
3, 38912, Note_on_c, 1, 64, 96
3, 40448, Note_off_c, 1, 64, 0
3, 40448, Note_on_c, 1, 61, 96
3, 40960, Note_off_c, 1, 61, 0
3, 40960, Note_on_c, 1, 62, 96
3, 42496, Note_off_c, 1, 62, 0
3, 42496, Note_on_c, 1, 61, 96
3, 43008, Note_off_c, 1, 61, 0
3, 43008, Note_on_c, 1, 57, 96
3, 44032, Note_off_c, 1, 57, 0
3, 52224, Note_on_c, 1, 66, 96
3, 53248, Note_off_c, 1, 66, 0
3, 53248, Note_on_c, 1, 67, 96
3, 54272, Note_off_c, 1, 67, 0
3, 54272, Note_on_c, 1, 67, 96
3, 54784, Note_off_c, 1, 67, 0
3, 54784, Note_on_c, 1, 66, 96
3, 55296, Note_off_c, 1, 66, 0
3, 55296, Note_on_c, 1, 64, 96
3, 55808, Note_off_c, 1, 64, 0
3, 55808, Note_on_c, 1, 62, 96
3, 56320, Note_off_c, 1, 62, 0
3, 56320, Note_on_c, 1, 64, 96
3, 57344, Note_off_c, 1, 64, 0
3, 57344, Note_on_c, 1, 62, 96
3, 59392, Note_off_c, 1, 62, 0
3, 60416, Note_on_c, 1, 64, 96
3, 61440, Note_off_c, 1, 64, 0
3, 61440, Note_on_c, 1, 64, 96
3, 61952, Note_off_c, 1, 64, 0
3, 61952, Note_on_c, 1, 61, 96
3, 62464, Note_off_c, 1, 61, 0
3, 62464, Note_on_c, 1, 62, 96
3, 63488, Note_off_c, 1, 62, 0
3, 63488, Note_on_c, 1, 69, 96
3, 64512, Note_off_c, 1, 69, 0
3, 64512, Note_on_c, 1, 69, 96
3, 65536, Note_off_c, 1, 69, 0
3, 65536, Note_on_c, 1, 69, 96
3, 66560, Note_off_c, 1, 69, 0
3, 66560, Note_on_c, 1, 68, 96
3, 67584, Note_off_c, 1, 68, 0
3, 67584, Note_on_c, 1, 64, 96
3, 68608, Note_off_c, 1, 64, 0
3, 76800, Note_on_c, 1, 64, 96
3, 77824, Note_off_c, 1, 64, 0
3, 77824, Note_on_c, 1, 66, 96
3, 78336, Note_off_c, 1, 66, 0
3, 78336, Note_on_c, 1, 64, 96
3, 78848, Note_off_c, 1, 64, 0
3, 78848, Note_on_c, 1, 66, 96
3, 79360, Note_off_c, 1, 66, 0
3, 79360, Note_on_c, 1, 67, 96
3, 79872, Note_off_c, 1, 67, 0
3, 79872, Note_on_c, 1, 69, 96
3, 80384, Note_off_c, 1, 69, 0
3, 80384, Note_on_c, 1, 67, 96
3, 80896, Note_off_c, 1, 67, 0
3, 80896, Note_on_c, 1, 69, 96
3, 81920, Note_off_c, 1, 69, 0
3, 81920, Note_on_c, 1, 67, 96
3, 83968, Note_off_c, 1, 67, 0
3, 84992, Note_on_c, 1, 67, 96
3, 86016, Note_off_c, 1, 67, 0
3, 86016, Note_on_c, 1, 68, 96
3, 86528, Note_off_c, 1, 68, 0
3, 86528, Note_on_c, 1, 66, 96
3, 87040, Note_off_c, 1, 66, 0
3, 87040, Note_on_c, 1, 68, 96
3, 87552, Note_off_c, 1, 68, 0
3, 87552, Note_on_c, 1, 69, 96
3, 88064, Note_off_c, 1, 69, 0
3, 88064, Note_on_c, 1, 71, 96
3, 88576, Note_off_c, 1, 71, 0
3, 88576, Note_on_c, 1, 69, 96
3, 89088, Note_off_c, 1, 69, 0
3, 89088, Note_on_c, 1, 71, 96
3, 90112, Note_off_c, 1, 71, 0
3, 90112, Note_on_c, 1, 69, 96
3, 91136, Note_off_c, 1, 69, 0
3, 101376, Note_on_c, 1, 66, 96
3, 102400, Note_off_c, 1, 66, 0
3, 102400, Note_on_c, 1, 67, 96
3, 103424, Note_off_c, 1, 67, 0
3, 103424, Note_on_c, 1, 69, 96
3, 104448, Note_off_c, 1, 69, 0
3, 104448, Note_on_c, 1, 67, 96
3, 104960, Note_off_c, 1, 67, 0
3, 104960, Note_on_c, 1, 66, 96
3, 105472, Note_off_c, 1, 66, 0
3, 105472, Note_on_c, 1, 64, 96
3, 105984, Note_off_c, 1, 64, 0
3, 105984, Note_on_c, 1, 66, 96
3, 106496, Note_off_c, 1, 66, 0
3, 106496, Note_on_c, 1, 66, 96
3, 108544, Note_off_c, 1, 66, 0
3, 109568, Note_on_c, 1, 62, 96
3, 110592, Note_off_c, 1, 62, 0
3, 110592, Note_on_c, 1, 62, 96
3, 111616, Note_off_c, 1, 62, 0
3, 111616, Note_on_c, 1, 62, 96
3, 112640, Note_off_c, 1, 62, 0
3, 112640, Note_on_c, 1, 62, 96
3, 113152, Note_off_c, 1, 62, 0
3, 113152, Note_on_c, 1, 59, 96
3, 113664, Note_off_c, 1, 59, 0
3, 113664, Note_on_c, 1, 61, 96
3, 114688, Note_off_c, 1, 61, 0
3, 114688, Note_on_c, 1, 57, 96
3, 116736, Note_off_c, 1, 57, 0
3, 141312, End_track
4, 0, Start_track
4, 0, Title_t, "Instrument 3"
4, 27648, Note_on_c, 2, 61, 96
4, 28672, Note_off_c, 2, 61, 0
4, 28672, Note_on_c, 2, 57, 96
4, 29696, Note_off_c, 2, 57, 0
4, 29696, Note_on_c, 2, 54, 96
4, 30208, Note_off_c, 2, 54, 0
4, 30208, Note_on_c, 2, 55, 96
4, 30720, Note_off_c, 2, 55, 0
4, 30720, Note_on_c, 2, 57, 96
4, 31232, Note_off_c, 2, 57, 0
4, 31232, Note_on_c, 2, 55, 96
4, 31744, Note_off_c, 2, 55, 0
4, 31744, Note_on_c, 2, 57, 96
4, 32768, Note_off_c, 2, 57, 0
4, 32768, Note_on_c, 2, 55, 96
4, 34816, Note_off_c, 2, 55, 0
4, 35840, Note_on_c, 2, 50, 96
4, 36864, Note_off_c, 2, 50, 0
4, 36864, Note_on_c, 2, 57, 96
4, 37888, Note_off_c, 2, 57, 0
4, 37888, Note_on_c, 2, 57, 96
4, 38400, Note_off_c, 2, 57, 0
4, 38400, Note_on_c, 2, 59, 96
4, 38912, Note_off_c, 2, 59, 0
4, 38912, Note_on_c, 2, 61, 96
4, 40448, Note_off_c, 2, 61, 0
4, 40448, Note_on_c, 2, 64, 96
4, 40960, Note_off_c, 2, 64, 0
4, 40960, Note_on_c, 2, 57, 96
4, 41472, Note_off_c, 2, 57, 0
4, 41472, Note_on_c, 2, 59, 96
4, 42496, Note_off_c, 2, 59, 0
4, 42496, Note_on_c, 2, 57, 96
4, 43008, Note_off_c, 2, 57, 0
4, 43008, Note_on_c, 2, 54, 96
4, 44032, Note_off_c, 2, 54, 0
4, 52224, Note_on_c, 2, 62, 96
4, 53248, Note_off_c, 2, 62, 0
4, 53248, Note_on_c, 2, 62, 96
4, 54272, Note_off_c, 2, 62, 0
4, 54272, Note_on_c, 2, 64, 96
4, 55296, Note_off_c, 2, 64, 0
4, 55296, Note_on_c, 2, 57, 96
4, 56320, Note_off_c, 2, 57, 0
4, 56320, Note_on_c, 2, 57, 96
4, 57344, Note_off_c, 2, 57, 0
4, 57344, Note_on_c, 2, 57, 96
4, 59392, Note_off_c, 2, 57, 0
4, 60416, Note_on_c, 2, 61, 96
4, 61440, Note_off_c, 2, 61, 0
4, 61440, Note_on_c, 2, 61, 96
4, 61952, Note_off_c, 2, 61, 0
4, 61952, Note_on_c, 2, 57, 96
4, 62464, Note_off_c, 2, 57, 0
4, 62464, Note_on_c, 2, 62, 96
4, 63488, Note_off_c, 2, 62, 0
4, 63488, Note_on_c, 2, 64, 96
4, 64512, Note_off_c, 2, 64, 0
4, 64512, Note_on_c, 2, 66, 96
4, 65536, Note_off_c, 2, 66, 0
4, 65536, Note_on_c, 2, 64, 96
4, 66560, Note_off_c, 2, 64, 0
4, 66560, Note_on_c, 2, 62, 96
4, 67072, Note_off_c, 2, 62, 0
4, 67072, Note_on_c, 2, 61, 96
4, 67584, Note_off_c, 2, 61, 0
4, 67584, Note_on_c, 2, 61, 96
4, 68608, Note_off_c, 2, 61, 0
4, 76800, Note_on_c, 2, 61, 96
4, 77824, Note_off_c, 2, 61, 0
4, 77824, Note_on_c, 2, 62, 96
4, 78848, Note_off_c, 2, 62, 0
4, 78848, Note_on_c, 2, 62, 96
4, 79872, Note_off_c, 2, 62, 0
4, 79872, Note_on_c, 2, 57, 96
4, 80896, Note_off_c, 2, 57, 0
4, 80896, Note_on_c, 2, 62, 96
4, 81920, Note_off_c, 2, 62, 0
4, 81920, Note_on_c, 2, 62, 96
4, 83968, Note_off_c, 2, 62, 0
4, 84992, Note_on_c, 2, 62, 96
4, 86016, Note_off_c, 2, 62, 0
4, 86016, Note_on_c, 2, 64, 96
4, 87040, Note_off_c, 2, 64, 0
4, 87040, Note_on_c, 2, 64, 96
4, 88064, Note_off_c, 2, 64, 0
4, 88064, Note_on_c, 2, 59, 96
4, 89088, Note_off_c, 2, 59, 0
4, 89088, Note_on_c, 2, 64, 96
4, 90112, Note_off_c, 2, 64, 0
4, 90112, Note_on_c, 2, 64, 96
4, 91136, Note_off_c, 2, 64, 0
4, 101376, Note_on_c, 2, 62, 96
4, 102400, Note_off_c, 2, 62, 0
4, 102400, Note_on_c, 2, 62, 96
4, 103424, Note_off_c, 2, 62, 0
4, 103424, Note_on_c, 2, 62, 96
4, 104448, Note_off_c, 2, 62, 0
4, 104448, Note_on_c, 2, 55, 96
4, 104960, Note_off_c, 2, 55, 0
4, 104960, Note_on_c, 2, 59, 96
4, 105472, Note_off_c, 2, 59, 0
4, 105472, Note_on_c, 2, 59, 96
4, 105984, Note_off_c, 2, 59, 0
4, 105984, Note_on_c, 2, 58, 96
4, 106496, Note_off_c, 2, 58, 0
4, 106496, Note_on_c, 2, 54, 96
4, 108544, Note_off_c, 2, 54, 0
4, 109568, Note_on_c, 2, 57, 96
4, 110592, Note_off_c, 2, 57, 0
4, 110592, Note_on_c, 2, 55, 96
4, 111104, Note_off_c, 2, 55, 0
4, 111104, Note_on_c, 2, 54, 96
4, 111616, Note_off_c, 2, 54, 0
4, 111616, Note_on_c, 2, 52, 96
4, 112128, Note_off_c, 2, 52, 0
4, 112128, Note_on_c, 2, 50, 96
4, 112640, Note_off_c, 2, 50, 0
4, 112640, Note_on_c, 2, 57, 96
4, 113152, Note_off_c, 2, 57, 0
4, 113152, Note_on_c, 2, 50, 96
4, 113664, Note_off_c, 2, 50, 0
4, 113664, Note_on_c, 2, 57, 96
4, 114176, Note_off_c, 2, 57, 0
4, 114176, Note_on_c, 2, 55, 96
4, 114688, Note_off_c, 2, 55, 0
4, 114688, Note_on_c, 2, 54, 96
4, 116736, Note_off_c, 2, 54, 0
4, 141312, End_track
5, 0, Start_track
5, 0, Title_t, "Instrument 4"
5, 27648, Note_on_c, 3, 45, 96
5, 28672, Note_off_c, 3, 45, 0
5, 28672, Note_on_c, 3, 50, 96
5, 29184, Note_off_c, 3, 50, 0
5, 29184, Note_on_c, 3, 49, 96
5, 29696, Note_off_c, 3, 49, 0
5, 29696, Note_on_c, 3, 50, 96
5, 30208, Note_off_c, 3, 50, 0
5, 30208, Note_on_c, 3, 52, 96
5, 30720, Note_off_c, 3, 52, 0
5, 30720, Note_on_c, 3, 54, 96
5, 31232, Note_off_c, 3, 54, 0
5, 31232, Note_on_c, 3, 52, 96
5, 31744, Note_off_c, 3, 52, 0
5, 31744, Note_on_c, 3, 54, 96
5, 32256, Note_off_c, 3, 54, 0
5, 32256, Note_on_c, 3, 50, 96
5, 32768, Note_off_c, 3, 50, 0
5, 32768, Note_on_c, 3, 55, 96
5, 34816, Note_off_c, 3, 55, 0
5, 35840, Note_on_c, 3, 55, 96
5, 36864, Note_off_c, 3, 55, 0
5, 36864, Note_on_c, 3, 57, 96
5, 37888, Note_off_c, 3, 57, 0
5, 37888, Note_on_c, 3, 45, 96
5, 38912, Note_off_c, 3, 45, 0
5, 38912, Note_on_c, 3, 57, 96
5, 39424, Note_off_c, 3, 57, 0
5, 39424, Note_on_c, 3, 55, 96
5, 39936, Note_off_c, 3, 55, 0
5, 39936, Note_on_c, 3, 54, 96
5, 40448, Note_off_c, 3, 54, 0
5, 40448, Note_on_c, 3, 52, 96
5, 40960, Note_off_c, 3, 52, 0
5, 40960, Note_on_c, 3, 50, 96
5, 41472, Note_off_c, 3, 50, 0
5, 41472, Note_on_c, 3, 47, 96
5, 41984, Note_off_c, 3, 47, 0
5, 41984, Note_on_c, 3, 43, 96
5, 42496, Note_off_c, 3, 43, 0
5, 42496, Note_on_c, 3, 45, 96
5, 43008, Note_off_c, 3, 45, 0
5, 43008, Note_on_c, 3, 50, 96
5, 44032, Note_off_c, 3, 50, 0
5, 52224, Note_on_c, 3, 50, 96
5, 53248, Note_off_c, 3, 50, 0
5, 53248, Note_on_c, 3, 55, 96
5, 53760, Note_off_c, 3, 55, 0
5, 53760, Note_on_c, 3, 54, 96
5, 54272, Note_off_c, 3, 54, 0
5, 54272, Note_on_c, 3, 52, 96
5, 54784, Note_off_c, 3, 52, 0
5, 54784, Note_on_c, 3, 50, 96
5, 55296, Note_off_c, 3, 50, 0
5, 55296, Note_on_c, 3, 49, 96
5, 55808, Note_off_c, 3, 49, 0
5, 55808, Note_on_c, 3, 47, 96
5, 56320, Note_off_c, 3, 47, 0
5, 56320, Note_on_c, 3, 49, 96
5, 56832, Note_off_c, 3, 49, 0
5, 56832, Note_on_c, 3, 45, 96
5, 57344, Note_off_c, 3, 45, 0
5, 57344, Note_on_c, 3, 50, 96
5, 59392, Note_off_c, 3, 50, 0
5, 60416, Note_on_c, 3, 57, 96
5, 61440, Note_off_c, 3, 57, 0
5, 61440, Note_on_c, 3, 45, 96
5, 62464, Note_off_c, 3, 45, 0
5, 62464, Note_on_c, 3, 47, 96
5, 63488, Note_off_c, 3, 47, 0
5, 63488, Note_on_c, 3, 49, 96
5, 64512, Note_off_c, 3, 49, 0
5, 64512, Note_on_c, 3, 50, 96
5, 65536, Note_off_c, 3, 50, 0
5, 65536, Note_on_c, 3, 52, 96
5, 67584, Note_off_c, 3, 52, 0
5, 67584, Note_on_c, 3, 45, 96
5, 68608, Note_off_c, 3, 45, 0
5, 76800, Note_on_c, 3, 45, 96
5, 77824, Note_off_c, 3, 45, 0
5, 77824, Note_on_c, 3, 50, 96
5, 78336, Note_off_c, 3, 50, 0
5, 78336, Note_on_c, 3, 49, 96
5, 78848, Note_off_c, 3, 49, 0
5, 78848, Note_on_c, 3, 50, 96
5, 79360, Note_off_c, 3, 50, 0
5, 79360, Note_on_c, 3, 52, 96
5, 79872, Note_off_c, 3, 52, 0
5, 79872, Note_on_c, 3, 54, 96
5, 80384, Note_off_c, 3, 54, 0
5, 80384, Note_on_c, 3, 52, 96
5, 80896, Note_off_c, 3, 52, 0
5, 80896, Note_on_c, 3, 54, 96
5, 81408, Note_off_c, 3, 54, 0
5, 81408, Note_on_c, 3, 50, 96
5, 81920, Note_off_c, 3, 50, 0
5, 81920, Note_on_c, 3, 55, 96
5, 83968, Note_off_c, 3, 55, 0
5, 84992, Note_on_c, 3, 55, 96
5, 85504, Note_off_c, 3, 55, 0
5, 85504, Note_on_c, 3, 54, 96
5, 86016, Note_off_c, 3, 54, 0
5, 86016, Note_on_c, 3, 52, 96
5, 86528, Note_off_c, 3, 52, 0
5, 86528, Note_on_c, 3, 50, 96
5, 87040, Note_off_c, 3, 50, 0
5, 87040, Note_on_c, 3, 52, 96
5, 87552, Note_off_c, 3, 52, 0
5, 87552, Note_on_c, 3, 54, 96
5, 88064, Note_off_c, 3, 54, 0
5, 88064, Note_on_c, 3, 56, 96
5, 88576, Note_off_c, 3, 56, 0
5, 88576, Note_on_c, 3, 54, 96
5, 89088, Note_off_c, 3, 54, 0
5, 89088, Note_on_c, 3, 56, 96
5, 89600, Note_off_c, 3, 56, 0
5, 89600, Note_on_c, 3, 52, 96
5, 90112, Note_off_c, 3, 52, 0
5, 90112, Note_on_c, 3, 57, 96
5, 91136, Note_off_c, 3, 57, 0
5, 101376, Note_on_c, 3, 50, 96
5, 102400, Note_off_c, 3, 50, 0
5, 102400, Note_on_c, 3, 55, 96
5, 102912, Note_off_c, 3, 55, 0
5, 102912, Note_on_c, 3, 57, 96
5, 103424, Note_off_c, 3, 57, 0
5, 103424, Note_on_c, 3, 55, 96
5, 103936, Note_off_c, 3, 55, 0
5, 103936, Note_on_c, 3, 54, 96
5, 104448, Note_off_c, 3, 54, 0
5, 104448, Note_on_c, 3, 52, 96
5, 104960, Note_off_c, 3, 52, 0
5, 104960, Note_on_c, 3, 50, 96
5, 105472, Note_off_c, 3, 50, 0
5, 105472, Note_on_c, 3, 49, 96
5, 105984, Note_off_c, 3, 49, 0
5, 105984, Note_on_c, 3, 54, 96
5, 106496, Note_off_c, 3, 54, 0
5, 106496, Note_on_c, 3, 47, 96
5, 108544, Note_off_c, 3, 47, 0
5, 109568, Note_on_c, 3, 54, 96
5, 110592, Note_off_c, 3, 54, 0
5, 110592, Note_on_c, 3, 43, 96
5, 111104, Note_off_c, 3, 43, 0
5, 111104, Note_on_c, 3, 45, 96
5, 111616, Note_off_c, 3, 45, 0
5, 111616, Note_on_c, 3, 47, 96
5, 112128, Note_off_c, 3, 47, 0
5, 112128, Note_on_c, 3, 43, 96
5, 112640, Note_off_c, 3, 43, 0
5, 112640, Note_on_c, 3, 45, 96
5, 113152, Note_off_c, 3, 45, 0
5, 113152, Note_on_c, 3, 43, 96
5, 113664, Note_off_c, 3, 43, 0
5, 113664, Note_on_c, 3, 45, 96
5, 114688, Note_off_c, 3, 45, 0
5, 114688, Note_on_c, 3, 50, 96
5, 116736, Note_off_c, 3, 50, 0
5, 141312, End_track
6, 0, Start_track
6, 0, Title_t, "Instrument 5"
6, 3584, Note_on_c, 4, 62, 96
6, 4096, Note_off_c, 4, 62, 0
6, 4096, Note_on_c, 4, 62, 96
6, 5120, Note_off_c, 4, 62, 0
6, 5120, Note_on_c, 4, 57, 96
6, 6144, Note_off_c, 4, 57, 0
6, 6144, Note_on_c, 4, 50, 96
6, 6400, Note_on_c, 4, 50, 96
6, 6656, Note_off_c, 4, 50, 0
6, 6656, Note_on_c, 4, 50, 96
6, 6912, Note_off_c, 4, 50, 0
6, 6912, Note_on_c, 4, 50, 96
6, 7168, Note_off_c, 4, 50, 0
6, 7168, Note_on_c, 4, 50, 96
6, 7168, Note_off_c, 4, 50, 0
6, 7680, Note_off_c, 4, 50, 0
6, 7680, Note_on_c, 4, 50, 96
6, 8192, Note_off_c, 4, 50, 0
6, 8192, Note_on_c, 4, 50, 96
6, 9216, Note_off_c, 4, 50, 0
6, 9216, Note_on_c, 4, 45, 96
6, 10240, Note_off_c, 4, 45, 0
6, 10240, Note_on_c, 4, 38, 96
6, 10496, Note_on_c, 4, 50, 96
6, 10752, Note_off_c, 4, 50, 0
6, 10752, Note_on_c, 4, 50, 96
6, 11008, Note_off_c, 4, 50, 0
6, 11008, Note_on_c, 4, 50, 96
6, 11264, Note_off_c, 4, 50, 0
6, 11264, Note_on_c, 4, 50, 96
6, 11264, Note_off_c, 4, 38, 0
6, 11776, Note_off_c, 4, 50, 0
6, 11776, Note_on_c, 4, 50, 96
6, 11776, Note_on_c, 4, 50, 96
6, 12288, Note_off_c, 4, 50, 0
6, 12288, Note_off_c, 4, 50, 0
6, 12288, Note_on_c, 4, 50, 96
6, 12288, Note_on_c, 4, 50, 96
6, 12800, Note_off_c, 4, 50, 0
6, 12800, Note_on_c, 4, 50, 96
6, 13312, Note_off_c, 4, 50, 0
6, 13312, Note_off_c, 4, 50, 0
6, 13312, Note_on_c, 4, 50, 96
6, 13824, Note_on_c, 4, 50, 96
6, 13824, Note_off_c, 4, 50, 0
6, 13824, Note_on_c, 4, 50, 96
6, 14080, Note_off_c, 4, 50, 0
6, 14080, Note_on_c, 4, 50, 96
6, 14336, Note_off_c, 4, 50, 0
6, 14336, Note_on_c, 4, 50, 96
6, 14336, Note_off_c, 4, 50, 0
6, 14336, Note_on_c, 4, 50, 96
6, 14848, Note_off_c, 4, 50, 0
6, 14848, Note_on_c, 4, 50, 96
6, 15360, Note_off_c, 4, 50, 0
6, 15360, Note_off_c, 4, 50, 0
6, 15360, Note_on_c, 4, 50, 96
6, 15872, Note_on_c, 4, 50, 96
6, 15872, Note_off_c, 4, 50, 0
6, 15872, Note_on_c, 4, 50, 96
6, 16128, Note_off_c, 4, 50, 0
6, 16128, Note_on_c, 4, 50, 96
6, 16384, Note_off_c, 4, 50, 0
6, 16384, Note_off_c, 4, 50, 0
6, 16384, Note_on_c, 4, 50, 96
6, 16384, Note_on_c, 4, 50, 96
6, 16896, Note_off_c, 4, 50, 0
6, 16896, Note_on_c, 4, 50, 96
6, 17408, Note_off_c, 4, 50, 0
6, 17408, Note_off_c, 4, 50, 0
6, 17408, Note_on_c, 4, 50, 96
6, 17920, Note_on_c, 4, 50, 96
6, 17920, Note_off_c, 4, 50, 0
6, 17920, Note_on_c, 4, 50, 96
6, 18176, Note_off_c, 4, 50, 0
6, 18176, Note_on_c, 4, 50, 96
6, 18432, Note_off_c, 4, 50, 0
6, 18432, Note_on_c, 4, 50, 96
6, 18432, Note_off_c, 4, 50, 0
6, 18432, Note_on_c, 4, 50, 96
6, 19456, Note_off_c, 4, 50, 0
6, 19456, Note_off_c, 4, 50, 0
6, 19968, Note_on_c, 4, 50, 96
6, 19968, Note_on_c, 4, 50, 96
6, 20224, Note_off_c, 4, 50, 0
6, 20224, Note_on_c, 4, 50, 96
6, 20480, Note_off_c, 4, 50, 0
6, 20480, Note_off_c, 4, 50, 0
6, 20480, Note_on_c, 4, 45, 96
6, 20480, Note_on_c, 4, 57, 96
6, 20992, Note_off_c, 4, 45, 0
6, 20992, Note_on_c, 4, 45, 96
6, 20992, Note_off_c, 4, 57, 0
6, 20992, Note_on_c, 4, 52, 96
6, 21504, Note_off_c, 4, 45, 0
6, 21504, Note_on_c, 4, 45, 96
6, 21504, Note_off_c, 4, 52, 0
6, 21504, Note_on_c, 4, 49, 96
6, 22016, Note_off_c, 4, 45, 0
6, 22016, Note_on_c, 4, 45, 96
6, 22016, Note_off_c, 4, 49, 0
6, 22016, Note_on_c, 4, 45, 96
6, 22528, Note_off_c, 4, 45, 0
6, 22528, Note_on_c, 4, 45, 96
6, 22528, Note_off_c, 4, 45, 0
6, 22528, Note_on_c, 4, 50, 96
6, 23040, Note_off_c, 4, 45, 0
6, 23040, Note_on_c, 4, 45, 96
6, 23040, Note_off_c, 4, 50, 0
6, 23040, Note_on_c, 4, 54, 96
6, 23552, Note_off_c, 4, 45, 0
6, 23552, Note_on_c, 4, 45, 96
6, 23552, Note_off_c, 4, 54, 0
6, 23552, Note_on_c, 4, 57, 96
6, 24064, Note_off_c, 4, 45, 0
6, 24064, Note_on_c, 4, 50, 96
6, 24064, Note_off_c, 4, 57, 0
6, 24064, Note_on_c, 4, 55, 96
6, 24576, Note_off_c, 4, 50, 0
6, 24576, Note_off_c, 4, 55, 0
6, 24576, Note_on_c, 4, 50, 96
6, 24576, Note_on_c, 4, 54, 96
6, 25088, Note_off_c, 4, 50, 0
6, 25088, Note_on_c, 4, 50, 96
6, 25088, Note_off_c, 4, 54, 0
6, 25088, Note_on_c, 4, 47, 96
6, 25344, Note_off_c, 4, 50, 0
6, 25344, Note_on_c, 4, 50, 96
6, 25600, Note_off_c, 4, 50, 0
6, 25600, Note_on_c, 4, 50, 96
6, 25600, Note_off_c, 4, 47, 0
6, 25600, Note_on_c, 4, 42, 96
6, 26112, Note_off_c, 4, 50, 0
6, 26112, Note_on_c, 4, 50, 96
6, 26112, Note_off_c, 4, 42, 0
6, 26112, Note_on_c, 4, 43, 96
6, 26368, Note_off_c, 4, 50, 0
6, 26368, Note_on_c, 4, 50, 96
6, 26624, Note_off_c, 4, 50, 0
6, 26624, Note_on_c, 4, 45, 96
6, 26624, Note_off_c, 4, 43, 0
6, 26624, Note_on_c, 4, 45, 96
6, 27136, Note_off_c, 4, 45, 0
6, 27136, Note_on_c, 4, 47, 96
6, 27648, Note_off_c, 4, 45, 0
6, 27648, Note_off_c, 4, 47, 0
6, 27648, Note_on_c, 4, 49, 96
6, 28160, Note_off_c, 4, 49, 0
6, 28160, Note_on_c, 4, 45, 96
6, 28672, Note_off_c, 4, 45, 0
6, 28672, Note_on_c, 4, 50, 96
6, 29184, Note_off_c, 4, 50, 0
6, 29184, Note_on_c, 4, 49, 96
6, 29696, Note_off_c, 4, 49, 0
6, 29696, Note_on_c, 4, 50, 96
6, 30208, Note_off_c, 4, 50, 0
6, 30208, Note_on_c, 4, 52, 96
6, 30720, Note_off_c, 4, 52, 0
6, 30720, Note_on_c, 4, 54, 96
6, 31232, Note_off_c, 4, 54, 0
6, 31232, Note_on_c, 4, 52, 96
6, 31744, Note_off_c, 4, 52, 0
6, 31744, Note_on_c, 4, 54, 96
6, 32256, Note_off_c, 4, 54, 0
6, 32256, Note_on_c, 4, 50, 96
6, 32768, Note_off_c, 4, 50, 0
6, 32768, Note_on_c, 4, 55, 96
6, 33792, Note_off_c, 4, 55, 0
6, 33792, Note_on_c, 4, 43, 96
6, 34816, Note_off_c, 4, 43, 0
6, 34816, Note_on_c, 4, 55, 96
6, 35840, Note_off_c, 4, 55, 0
6, 36352, Note_on_c, 4, 55, 96
6, 36864, Note_off_c, 4, 55, 0
6, 36864, Note_on_c, 4, 57, 96
6, 37376, Note_off_c, 4, 57, 0
6, 37376, Note_on_c, 4, 52, 96
6, 37888, Note_off_c, 4, 52, 0
6, 37888, Note_on_c, 4, 49, 96
6, 38400, Note_off_c, 4, 49, 0
6, 38400, Note_on_c, 4, 45, 96
6, 38912, Note_off_c, 4, 45, 0
6, 38912, Note_on_c, 4, 57, 96
6, 39424, Note_off_c, 4, 57, 0
6, 39424, Note_on_c, 4, 55, 96
6, 39936, Note_off_c, 4, 55, 0
6, 39936, Note_on_c, 4, 54, 96
6, 40448, Note_off_c, 4, 54, 0
6, 40448, Note_on_c, 4, 52, 96
6, 40960, Note_off_c, 4, 52, 0
6, 40960, Note_on_c, 4, 50, 96
6, 41472, Note_off_c, 4, 50, 0
6, 41472, Note_on_c, 4, 47, 96
6, 41984, Note_off_c, 4, 47, 0
6, 41984, Note_on_c, 4, 43, 96
6, 42496, Note_off_c, 4, 43, 0
6, 42496, Note_on_c, 4, 45, 96
6, 43008, Note_off_c, 4, 45, 0
6, 43008, Note_on_c, 4, 50, 96
6, 44032, Note_off_c, 4, 50, 0
6, 44544, Note_on_c, 4, 49, 96
6, 45056, Note_off_c, 4, 49, 0
6, 45056, Note_on_c, 4, 50, 96
6, 46080, Note_off_c, 4, 50, 0
6, 46080, Note_on_c, 4, 57, 96
6, 47104, Note_off_c, 4, 57, 0
6, 47104, Note_on_c, 4, 62, 96
6, 47616, Note_on_c, 4, 50, 96
6, 47872, Note_off_c, 4, 50, 0
6, 47872, Note_on_c, 4, 50, 96
6, 48128, Note_off_c, 4, 50, 0
6, 48128, Note_on_c, 4, 50, 96
6, 48128, Note_off_c, 4, 62, 0
6, 48640, Note_off_c, 4, 50, 0
6, 48640, Note_on_c, 4, 57, 96
6, 49152, Note_off_c, 4, 57, 0
6, 49152, Note_on_c, 4, 50, 96
6, 50176, Note_off_c, 4, 50, 0
6, 50176, Note_on_c, 4, 45, 96
6, 51200, Note_off_c, 4, 45, 0
6, 51200, Note_on_c, 4, 38, 96
6, 51712, Note_on_c, 4, 50, 96
6, 51712, Note_off_c, 4, 38, 0
6, 51712, Note_on_c, 4, 50, 96
6, 51968, Note_off_c, 4, 50, 0
6, 51968, Note_on_c, 4, 50, 96
6, 52224, Note_off_c, 4, 50, 0
6, 52224, Note_on_c, 4, 50, 96
6, 52224, Note_off_c, 4, 50, 0
6, 52224, Note_on_c, 4, 49, 96
6, 52736, Note_off_c, 4, 49, 0
6, 52736, Note_on_c, 4, 50, 96
6, 53248, Note_off_c, 4, 50, 0
6, 53248, Note_off_c, 4, 50, 0
6, 53248, Note_on_c, 4, 55, 96
6, 53760, Note_off_c, 4, 55, 0
6, 53760, Note_on_c, 4, 54, 96
6, 54272, Note_off_c, 4, 54, 0
6, 54272, Note_on_c, 4, 52, 96
6, 54784, Note_off_c, 4, 52, 0
6, 54784, Note_on_c, 4, 50, 96
6, 55296, Note_off_c, 4, 50, 0
6, 55296, Note_on_c, 4, 49, 96
6, 55808, Note_off_c, 4, 49, 0
6, 55808, Note_on_c, 4, 47, 96
6, 56320, Note_off_c, 4, 47, 0
6, 56320, Note_on_c, 4, 49, 96
6, 56832, Note_off_c, 4, 49, 0
6, 56832, Note_on_c, 4, 45, 96
6, 57344, Note_off_c, 4, 45, 0
6, 57344, Note_on_c, 4, 50, 96
6, 58368, Note_off_c, 4, 50, 0
6, 58368, Note_on_c, 4, 38, 96
6, 59392, Note_off_c, 4, 38, 0
6, 59392, Note_on_c, 4, 50, 96
6, 60416, Note_off_c, 4, 50, 0
6, 60416, Note_on_c, 4, 49, 96
6, 60928, Note_off_c, 4, 49, 0
6, 60928, Note_on_c, 4, 47, 96
6, 61440, Note_off_c, 4, 47, 0
6, 61440, Note_on_c, 4, 45, 96
6, 61952, Note_off_c, 4, 45, 0
6, 61952, Note_on_c, 4, 57, 96
6, 62464, Note_off_c, 4, 57, 0
6, 62464, Note_on_c, 4, 59, 96
6, 62976, Note_off_c, 4, 59, 0
6, 62976, Note_on_c, 4, 47, 96
6, 63488, Note_off_c, 4, 47, 0
6, 63488, Note_on_c, 4, 49, 96
6, 64000, Note_off_c, 4, 49, 0
6, 64000, Note_on_c, 4, 61, 96
6, 64512, Note_off_c, 4, 61, 0
6, 64512, Note_on_c, 4, 62, 96
6, 65024, Note_off_c, 4, 62, 0
6, 65024, Note_on_c, 4, 50, 96
6, 65536, Note_off_c, 4, 50, 0
6, 65536, Note_on_c, 4, 52, 96
6, 66048, Note_off_c, 4, 52, 0
6, 66048, Note_on_c, 4, 50, 96
6, 66560, Note_off_c, 4, 50, 0
6, 66560, Note_on_c, 4, 52, 96
6, 67072, Note_off_c, 4, 52, 0
6, 67072, Note_on_c, 4, 40, 96
6, 67584, Note_off_c, 4, 40, 0
6, 67584, Note_on_c, 4, 45, 96
6, 68608, Note_off_c, 4, 45, 0
6, 69120, Note_on_c, 4, 44, 96
6, 69632, Note_off_c, 4, 44, 0
6, 69632, Note_on_c, 4, 45, 96
6, 70656, Note_off_c, 4, 45, 0
6, 70656, Note_on_c, 4, 52, 96
6, 71680, Note_off_c, 4, 52, 0
6, 71680, Note_on_c, 4, 57, 96
6, 72704, Note_off_c, 4, 57, 0
6, 73216, Note_on_c, 4, 52, 96
6, 73728, Note_off_c, 4, 52, 0
6, 73728, Note_on_c, 4, 45, 96
6, 74752, Note_off_c, 4, 45, 0
6, 74752, Note_on_c, 4, 40, 96
6, 75776, Note_off_c, 4, 40, 0
6, 75776, Note_on_c, 4, 45, 96
6, 76288, Note_on_c, 4, 45, 96
6, 76288, Note_off_c, 4, 45, 0
6, 76288, Note_on_c, 4, 47, 96
6, 76544, Note_off_c, 4, 45, 0
6, 76544, Note_on_c, 4, 45, 96
6, 76800, Note_off_c, 4, 45, 0
6, 76800, Note_on_c, 4, 45, 96
6, 76800, Note_off_c, 4, 47, 0
6, 76800, Note_on_c, 4, 49, 96
6, 77312, Note_off_c, 4, 49, 0
6, 77312, Note_on_c, 4, 45, 96
6, 77824, Note_off_c, 4, 45, 0
6, 77824, Note_off_c, 4, 45, 0
6, 77824, Note_on_c, 4, 50, 96
6, 78336, Note_off_c, 4, 50, 0
6, 78336, Note_on_c, 4, 49, 96
6, 78848, Note_off_c, 4, 49, 0
6, 78848, Note_on_c, 4, 50, 96
6, 79360, Note_off_c, 4, 50, 0
6, 79360, Note_on_c, 4, 52, 96
6, 79872, Note_off_c, 4, 52, 0
6, 79872, Note_on_c, 4, 54, 96
6, 80384, Note_off_c, 4, 54, 0
6, 80384, Note_on_c, 4, 52, 96
6, 80896, Note_off_c, 4, 52, 0
6, 80896, Note_on_c, 4, 54, 96
6, 81408, Note_off_c, 4, 54, 0
6, 81408, Note_on_c, 4, 50, 96
6, 81920, Note_off_c, 4, 50, 0
6, 81920, Note_on_c, 4, 55, 96
6, 82944, Note_off_c, 4, 55, 0
6, 82944, Note_on_c, 4, 43, 96
6, 83968, Note_off_c, 4, 43, 0
6, 83968, Note_on_c, 4, 55, 96
6, 84480, Note_off_c, 4, 55, 0
6, 84480, Note_on_c, 4, 57, 96
6, 84992, Note_off_c, 4, 57, 0
6, 84992, Note_on_c, 4, 55, 96
6, 85504, Note_off_c, 4, 55, 0
6, 85504, Note_on_c, 4, 54, 96
6, 86016, Note_off_c, 4, 54, 0
6, 86016, Note_on_c, 4, 52, 96
6, 86528, Note_off_c, 4, 52, 0
6, 86528, Note_on_c, 4, 50, 96
6, 87040, Note_off_c, 4, 50, 0
6, 87040, Note_on_c, 4, 52, 96
6, 87552, Note_off_c, 4, 52, 0
6, 87552, Note_on_c, 4, 54, 96
6, 88064, Note_off_c, 4, 54, 0
6, 88064, Note_on_c, 4, 56, 96
6, 88576, Note_off_c, 4, 56, 0
6, 88576, Note_on_c, 4, 54, 96
6, 89088, Note_off_c, 4, 54, 0
6, 89088, Note_on_c, 4, 56, 96
6, 89600, Note_off_c, 4, 56, 0
6, 89600, Note_on_c, 4, 52, 96
6, 90112, Note_off_c, 4, 52, 0
6, 90112, Note_on_c, 4, 57, 96
6, 90624, Note_off_c, 4, 57, 0
6, 90624, Note_on_c, 4, 45, 96
6, 91136, Note_off_c, 4, 45, 0
6, 91136, Note_on_c, 4, 45, 96
6, 91648, Note_off_c, 4, 45, 0
6, 91648, Note_on_c, 4, 45, 96
6, 92160, Note_off_c, 4, 45, 0
6, 92160, Note_on_c, 4, 45, 96
6, 92672, Note_off_c, 4, 45, 0
6, 92672, Note_on_c, 4, 45, 96
6, 93184, Note_off_c, 4, 45, 0
6, 93184, Note_on_c, 4, 45, 96
6, 93696, Note_off_c, 4, 45, 0
6, 93696, Note_on_c, 4, 45, 96
6, 94208, Note_off_c, 4, 45, 0
6, 94208, Note_on_c, 4, 45, 96
6, 94720, Note_off_c, 4, 45, 0
6, 94720, Note_on_c, 4, 45, 96
6, 95232, Note_off_c, 4, 45, 0
6, 95232, Note_on_c, 4, 45, 96
6, 95744, Note_on_c, 4, 45, 96
6, 95744, Note_off_c, 4, 45, 0
6, 95744, Note_on_c, 4, 45, 96
6, 96000, Note_off_c, 4, 45, 0
6, 96000, Note_on_c, 4, 45, 96
6, 96256, Note_off_c, 4, 45, 0
6, 96256, Note_on_c, 4, 45, 96
6, 96256, Note_off_c, 4, 45, 0
6, 96256, Note_on_c, 4, 45, 96
6, 96768, Note_off_c, 4, 45, 0
6, 96768, Note_on_c, 4, 45, 96
6, 97280, Note_off_c, 4, 45, 0
6, 97280, Note_off_c, 4, 45, 0
6, 97280, Note_on_c, 4, 45, 96
6, 97792, Note_on_c, 4, 45, 96
6, 97792, Note_off_c, 4, 45, 0
6, 97792, Note_on_c, 4, 45, 96
6, 98048, Note_off_c, 4, 45, 0
6, 98048, Note_on_c, 4, 45, 96
6, 98304, Note_off_c, 4, 45, 0
6, 98304, Note_off_c, 4, 45, 0
6, 98304, Note_on_c, 4, 50, 96
6, 98304, Note_on_c, 4, 50, 96
6, 98816, Note_off_c, 4, 50, 0
6, 98816, Note_on_c, 4, 50, 96
6, 99328, Note_off_c, 4, 50, 0
6, 99328, Note_off_c, 4, 50, 0
6, 99328, Note_on_c, 4, 50, 96
6, 99840, Note_on_c, 4, 50, 96
6, 99840, Note_off_c, 4, 50, 0
6, 99840, Note_on_c, 4, 50, 96
6, 100096, Note_off_c, 4, 50, 0
6, 100096, Note_on_c, 4, 50, 96
6, 100352, Note_off_c, 4, 50, 0
6, 100352, Note_on_c, 4, 50, 96
6, 100352, Note_off_c, 4, 50, 0
6, 100352, Note_on_c, 4, 50, 96
6, 100864, Note_off_c, 4, 50, 0
6, 100864, Note_on_c, 4, 52, 96
6, 101376, Note_off_c, 4, 50, 0
6, 101376, Note_off_c, 4, 52, 0
6, 101376, Note_on_c, 4, 54, 96
6, 101888, Note_off_c, 4, 54, 0
6, 101888, Note_on_c, 4, 50, 96
6, 102400, Note_off_c, 4, 50, 0
6, 102400, Note_on_c, 4, 55, 96
6, 102912, Note_off_c, 4, 55, 0
6, 102912, Note_on_c, 4, 57, 96
6, 103424, Note_off_c, 4, 57, 0
6, 103424, Note_on_c, 4, 55, 96
6, 103936, Note_off_c, 4, 55, 0
6, 103936, Note_on_c, 4, 54, 96
6, 104448, Note_off_c, 4, 54, 0
6, 104448, Note_on_c, 4, 52, 96
6, 104960, Note_off_c, 4, 52, 0
6, 104960, Note_on_c, 4, 50, 96
6, 105472, Note_off_c, 4, 50, 0
6, 105472, Note_on_c, 4, 49, 96
6, 105984, Note_off_c, 4, 49, 0
6, 105984, Note_on_c, 4, 54, 96
6, 106496, Note_off_c, 4, 54, 0
6, 106496, Note_on_c, 4, 47, 96
6, 107520, Note_off_c, 4, 47, 0
6, 107520, Note_on_c, 4, 59, 96
6, 108544, Note_off_c, 4, 59, 0
6, 108544, Note_on_c, 4, 47, 96
6, 109056, Note_off_c, 4, 47, 0
6, 109056, Note_on_c, 4, 59, 96
6, 109568, Note_off_c, 4, 59, 0
6, 109568, Note_on_c, 4, 54, 96
6, 110080, Note_off_c, 4, 54, 0
6, 110080, Note_on_c, 4, 50, 96
6, 110592, Note_off_c, 4, 50, 0
6, 110592, Note_on_c, 4, 43, 96
6, 111104, Note_off_c, 4, 43, 0
6, 111104, Note_on_c, 4, 45, 96
6, 111616, Note_off_c, 4, 45, 0
6, 111616, Note_on_c, 4, 47, 96
6, 112128, Note_off_c, 4, 47, 0
6, 112128, Note_on_c, 4, 43, 96
6, 112640, Note_off_c, 4, 43, 0
6, 112640, Note_on_c, 4, 45, 96
6, 113152, Note_off_c, 4, 45, 0
6, 113152, Note_on_c, 4, 43, 96
6, 113664, Note_off_c, 4, 43, 0
6, 113664, Note_on_c, 4, 45, 96
6, 114176, Note_off_c, 4, 45, 0
6, 114176, Note_on_c, 4, 45, 96
6, 114688, Note_off_c, 4, 45, 0
6, 114688, Note_on_c, 4, 38, 96
6, 115712, Note_off_c, 4, 38, 0
6, 115712, Note_on_c, 4, 50, 96
6, 116736, Note_off_c, 4, 50, 0
6, 116736, Note_on_c, 4, 62, 96
6, 116992, Note_on_c, 4, 50, 96
6, 117248, Note_off_c, 4, 50, 0
6, 117248, Note_on_c, 4, 50, 96
6, 117504, Note_off_c, 4, 50, 0
6, 117504, Note_on_c, 4, 50, 96
6, 117760, Note_off_c, 4, 50, 0
6, 117760, Note_on_c, 4, 50, 96
6, 117760, Note_off_c, 4, 62, 0
6, 118272, Note_off_c, 4, 50, 0
6, 118272, Note_on_c, 4, 50, 96
6, 118784, Note_off_c, 4, 50, 0
6, 118784, Note_on_c, 4, 50, 96
6, 119808, Note_off_c, 4, 50, 0
6, 119808, Note_on_c, 4, 45, 96
6, 120832, Note_off_c, 4, 45, 0
6, 120832, Note_on_c, 4, 38, 96
6, 121088, Note_on_c, 4, 50, 96
6, 121344, Note_off_c, 4, 50, 0
6, 121344, Note_on_c, 4, 50, 96
6, 121600, Note_off_c, 4, 50, 0
6, 121600, Note_on_c, 4, 50, 96
6, 121856, Note_off_c, 4, 50, 0
6, 121856, Note_on_c, 4, 50, 96
6, 121856, Note_off_c, 4, 38, 0
6, 122368, Note_off_c, 4, 50, 0
6, 122368, Note_on_c, 4, 50, 96
6, 122368, Note_on_c, 4, 50, 96
6, 122880, Note_off_c, 4, 50, 0
6, 122880, Note_off_c, 4, 50, 0
6, 122880, Note_on_c, 4, 50, 96
6, 122880, Note_on_c, 4, 50, 96
6, 123392, Note_off_c, 4, 50, 0
6, 123392, Note_on_c, 4, 50, 96
6, 123904, Note_off_c, 4, 50, 0
6, 123904, Note_off_c, 4, 50, 0
6, 123904, Note_on_c, 4, 50, 96
6, 124416, Note_on_c, 4, 50, 96
6, 124416, Note_off_c, 4, 50, 0
6, 124416, Note_on_c, 4, 50, 96
6, 124672, Note_off_c, 4, 50, 0
6, 124672, Note_on_c, 4, 50, 96
6, 124928, Note_off_c, 4, 50, 0
6, 124928, Note_on_c, 4, 50, 96
6, 124928, Note_off_c, 4, 50, 0
6, 124928, Note_on_c, 4, 50, 96
6, 125440, Note_off_c, 4, 50, 0
6, 125440, Note_on_c, 4, 50, 96
6, 125952, Note_off_c, 4, 50, 0
6, 125952, Note_off_c, 4, 50, 0
6, 125952, Note_on_c, 4, 50, 96
6, 126464, Note_on_c, 4, 50, 96
6, 126464, Note_off_c, 4, 50, 0
6, 126464, Note_on_c, 4, 50, 96
6, 126720, Note_off_c, 4, 50, 0
6, 126720, Note_on_c, 4, 50, 96
6, 126976, Note_off_c, 4, 50, 0
6, 126976, Note_off_c, 4, 50, 0
6, 126976, Note_on_c, 4, 50, 96
6, 126976, Note_on_c, 4, 50, 96
6, 127488, Note_off_c, 4, 50, 0
6, 127488, Note_on_c, 4, 50, 96
6, 128000, Note_off_c, 4, 50, 0
6, 128000, Note_off_c, 4, 50, 0
6, 128000, Note_on_c, 4, 50, 96
6, 128512, Note_on_c, 4, 50, 96
6, 128512, Note_off_c, 4, 50, 0
6, 128512, Note_on_c, 4, 50, 96
6, 128768, Note_off_c, 4, 50, 0
6, 128768, Note_on_c, 4, 50, 96
6, 129024, Note_off_c, 4, 50, 0
6, 129024, Note_on_c, 4, 50, 96
6, 129024, Note_off_c, 4, 50, 0
6, 129024, Note_on_c, 4, 50, 96
6, 130048, Note_off_c, 4, 50, 0
6, 130048, Note_off_c, 4, 50, 0
6, 130560, Note_on_c, 4, 50, 96
6, 130560, Note_on_c, 4, 50, 96
6, 130816, Note_off_c, 4, 50, 0
6, 130816, Note_on_c, 4, 50, 96
6, 131072, Note_off_c, 4, 50, 0
6, 131072, Note_off_c, 4, 50, 0
6, 131072, Note_on_c, 4, 45, 96
6, 131072, Note_on_c, 4, 57, 96
6, 131584, Note_off_c, 4, 45, 0
6, 131584, Note_on_c, 4, 45, 96
6, 131584, Note_off_c, 4, 57, 0
6, 131584, Note_on_c, 4, 52, 96
6, 132096, Note_off_c, 4, 45, 0
6, 132096, Note_on_c, 4, 45, 96
6, 132096, Note_off_c, 4, 52, 0
6, 132096, Note_on_c, 4, 49, 96
6, 132608, Note_off_c, 4, 45, 0
6, 132608, Note_on_c, 4, 45, 96
6, 132608, Note_off_c, 4, 49, 0
6, 132608, Note_on_c, 4, 45, 96
6, 133120, Note_off_c, 4, 45, 0
6, 133120, Note_on_c, 4, 45, 96
6, 133120, Note_off_c, 4, 45, 0
6, 133120, Note_on_c, 4, 50, 96
6, 133632, Note_off_c, 4, 45, 0
6, 133632, Note_on_c, 4, 45, 96
6, 133632, Note_off_c, 4, 50, 0
6, 133632, Note_on_c, 4, 54, 96
6, 134144, Note_off_c, 4, 45, 0
6, 134144, Note_on_c, 4, 45, 96
6, 134144, Note_off_c, 4, 54, 0
6, 134144, Note_on_c, 4, 49, 96
6, 134656, Note_off_c, 4, 45, 0
6, 134656, Note_on_c, 4, 45, 96
6, 134656, Note_off_c, 4, 49, 0
6, 134656, Note_on_c, 4, 45, 96
6, 135168, Note_off_c, 4, 45, 0
6, 135168, Note_off_c, 4, 45, 0
6, 135168, Note_on_c, 4, 50, 96
6, 135168, Note_on_c, 4, 50, 96
6, 135680, Note_off_c, 4, 50, 0
6, 135680, Note_on_c, 4, 50, 96
6, 135680, Note_off_c, 4, 50, 0
6, 135680, Note_on_c, 4, 55, 96
6, 135936, Note_off_c, 4, 50, 0
6, 135936, Note_on_c, 4, 50, 96
6, 136192, Note_off_c, 4, 50, 0
6, 136192, Note_on_c, 4, 45, 96
6, 136192, Note_off_c, 4, 55, 0
6, 136192, Note_on_c, 4, 57, 96
6, 136704, Note_off_c, 4, 45, 0
6, 136704, Note_on_c, 4, 45, 96
6, 136704, Note_off_c, 4, 57, 0
6, 136704, Note_on_c, 4, 45, 96
6, 136960, Note_off_c, 4, 45, 0
6, 136960, Note_on_c, 4, 45, 96
6, 137216, Note_off_c, 4, 45, 0
6, 137216, Note_on_c, 4, 50, 96
6, 137216, Note_off_c, 4, 45, 0
6, 137216, Note_on_c, 4, 38, 96
6, 141312, Note_off_c, 4, 50, 0
6, 141312, Note_off_c, 4, 38, 0
6, 141312, End_track
7, 0, Start_track
7, 0, Title_t, "Instrument 6"
7, 3584, Note_on_c, 5, 69, 96
7, 4096, Note_off_c, 5, 69, 0
7, 4096, Note_on_c, 5, 74, 96
7, 4352, Note_off_c, 5, 74, 0
7, 4352, Note_on_c, 5, 76, 96
7, 4608, Note_off_c, 5, 76, 0
7, 4608, Note_on_c, 5, 78, 96
7, 5120, Note_off_c, 5, 78, 0
7, 5120, Note_on_c, 5, 78, 96
7, 5632, Note_off_c, 5, 78, 0
7, 5632, Note_on_c, 5, 76, 96
7, 6144, Note_off_c, 5, 76, 0
7, 6144, Note_on_c, 5, 74, 96
7, 6400, Note_on_c, 5, 66, 96
7, 6400, Note_on_c, 5, 62, 96
7, 6656, Note_off_c, 5, 74, 0
7, 6656, Note_on_c, 5, 69, 96
7, 6656, Note_off_c, 5, 66, 0
7, 6656, Note_on_c, 5, 66, 96
7, 6656, Note_off_c, 5, 62, 0
7, 6656, Note_on_c, 5, 62, 96
7, 6912, Note_off_c, 5, 66, 0
7, 6912, Note_on_c, 5, 66, 96
7, 6912, Note_off_c, 5, 62, 0
7, 6912, Note_on_c, 5, 62, 96
7, 7168, Note_off_c, 5, 69, 0
7, 7168, Note_on_c, 5, 69, 96
7, 7168, Note_off_c, 5, 66, 0
7, 7168, Note_on_c, 5, 66, 96
7, 7168, Note_off_c, 5, 62, 0
7, 7168, Note_on_c, 5, 62, 96
7, 7680, Note_off_c, 5, 69, 0
7, 7680, Note_on_c, 5, 74, 96
7, 7680, Note_off_c, 5, 66, 0
7, 7680, Note_on_c, 5, 69, 96
7, 7680, Note_off_c, 5, 62, 0
7, 7936, Note_off_c, 5, 74, 0
7, 7936, Note_on_c, 5, 76, 96
7, 8192, Note_off_c, 5, 76, 0
7, 8192, Note_off_c, 5, 69, 0
7, 8192, Note_on_c, 5, 78, 96
7, 8192, Note_on_c, 5, 74, 96
7, 8448, Note_off_c, 5, 78, 0
7, 8448, Note_on_c, 5, 79, 96
7, 8448, Note_off_c, 5, 74, 0
7, 8448, Note_on_c, 5, 76, 96
7, 8704, Note_off_c, 5, 79, 0
7, 8704, Note_on_c, 5, 81, 96
7, 8704, Note_off_c, 5, 76, 0
7, 8704, Note_on_c, 5, 78, 96
7, 9216, Note_off_c, 5, 81, 0
7, 9216, Note_on_c, 5, 81, 96
7, 9216, Note_off_c, 5, 78, 0
7, 9216, Note_on_c, 5, 78, 96
7, 9728, Note_off_c, 5, 81, 0
7, 9728, Note_on_c, 5, 79, 96
7, 9728, Note_off_c, 5, 78, 0
7, 9728, Note_on_c, 5, 76, 96
7, 10240, Note_off_c, 5, 79, 0
7, 10240, Note_on_c, 5, 78, 96
7, 10240, Note_off_c, 5, 76, 0
7, 10240, Note_on_c, 5, 74, 96
7, 10496, Note_on_c, 5, 66, 96
7, 10752, Note_off_c, 5, 78, 0
7, 10752, Note_on_c, 5, 74, 96
7, 10752, Note_off_c, 5, 74, 0
7, 10752, Note_on_c, 5, 69, 96
7, 10752, Note_off_c, 5, 66, 0
7, 10752, Note_on_c, 5, 66, 96
7, 11008, Note_off_c, 5, 66, 0
7, 11008, Note_on_c, 5, 66, 96
7, 11264, Note_off_c, 5, 74, 0
7, 11264, Note_on_c, 5, 74, 96
7, 11264, Note_off_c, 5, 69, 0
7, 11264, Note_on_c, 5, 69, 96
7, 11264, Note_off_c, 5, 66, 0
7, 11264, Note_on_c, 5, 66, 96
7, 11520, Note_off_c, 5, 74, 0
7, 11520, Note_on_c, 5, 76, 96
7, 11776, Note_off_c, 5, 76, 0
7, 11776, Note_on_c, 5, 78, 96
7, 11776, Note_off_c, 5, 69, 0
7, 11776, Note_on_c, 5, 74, 96
7, 11776, Note_off_c, 5, 66, 0
7, 11776, Note_on_c, 5, 69, 96
7, 12032, Note_off_c, 5, 78, 0
7, 12032, Note_on_c, 5, 79, 96
7, 12032, Note_off_c, 5, 74, 0
7, 12032, Note_on_c, 5, 76, 96
7, 12288, Note_off_c, 5, 79, 0
7, 12288, Note_off_c, 5, 76, 0
7, 12288, Note_off_c, 5, 69, 0
7, 12288, Note_on_c, 5, 81, 96
7, 12288, Note_on_c, 5, 78, 96
7, 12288, Note_on_c, 5, 74, 96
7, 12800, Note_off_c, 5, 81, 0
7, 12800, Note_on_c, 5, 83, 96
7, 12800, Note_off_c, 5, 78, 0
7, 12800, Note_on_c, 5, 79, 96
7, 13312, Note_off_c, 5, 83, 0
7, 13312, Note_on_c, 5, 83, 96
7, 13312, Note_off_c, 5, 79, 0
7, 13312, Note_on_c, 5, 79, 96
7, 13312, Note_off_c, 5, 74, 0
7, 13824, Note_off_c, 5, 83, 0
7, 13824, Note_on_c, 5, 81, 96
7, 13824, Note_off_c, 5, 79, 0
7, 13824, Note_on_c, 5, 78, 96
7, 13824, Note_on_c, 5, 74, 96
7, 14080, Note_off_c, 5, 81, 0
7, 14080, Note_on_c, 5, 79, 96
7, 14080, Note_off_c, 5, 78, 0
7, 14080, Note_on_c, 5, 76, 96
7, 14080, Note_off_c, 5, 74, 0
7, 14080, Note_on_c, 5, 74, 96
7, 14336, Note_off_c, 5, 79, 0
7, 14336, Note_on_c, 5, 81, 96
7, 14336, Note_off_c, 5, 76, 0
7, 14336, Note_on_c, 5, 78, 96
7, 14336, Note_off_c, 5, 74, 0
7, 14336, Note_on_c, 5, 74, 96
7, 14848, Note_off_c, 5, 81, 0
7, 14848, Note_on_c, 5, 79, 96
7, 14848, Note_off_c, 5, 78, 0
7, 14848, Note_on_c, 5, 76, 96
7, 15104, Note_off_c, 5, 79, 0
7, 15104, Note_on_c, 5, 78, 96
7, 15104, Note_off_c, 5, 76, 0
7, 15104, Note_on_c, 5, 74, 96
7, 15360, Note_off_c, 5, 78, 0
7, 15360, Note_on_c, 5, 79, 96
7, 15360, Note_off_c, 5, 74, 0
7, 15360, Note_on_c, 5, 76, 96
7, 15360, Note_off_c, 5, 74, 0
7, 15872, Note_off_c, 5, 79, 0
7, 15872, Note_on_c, 5, 78, 96
7, 15872, Note_off_c, 5, 76, 0
7, 15872, Note_on_c, 5, 74, 96
7, 15872, Note_on_c, 5, 69, 96
7, 16128, Note_off_c, 5, 78, 0
7, 16128, Note_on_c, 5, 76, 96
7, 16128, Note_off_c, 5, 74, 0
7, 16128, Note_on_c, 5, 73, 96
7, 16128, Note_off_c, 5, 69, 0
7, 16128, Note_on_c, 5, 69, 96
7, 16384, Note_off_c, 5, 76, 0
7, 16384, Note_off_c, 5, 73, 0
7, 16384, Note_off_c, 5, 69, 0
7, 16384, Note_on_c, 5, 78, 96
7, 16384, Note_on_c, 5, 74, 96
7, 16384, Note_on_c, 5, 69, 96
7, 16640, Note_off_c, 5, 78, 0
7, 16640, Note_on_c, 5, 79, 96
7, 16640, Note_off_c, 5, 74, 0
7, 16640, Note_on_c, 5, 76, 96
7, 16896, Note_off_c, 5, 79, 0
7, 16896, Note_on_c, 5, 81, 96
7, 16896, Note_off_c, 5, 76, 0
7, 16896, Note_on_c, 5, 78, 96
7, 17408, Note_off_c, 5, 81, 0
7, 17408, Note_on_c, 5, 81, 96
7, 17408, Note_off_c, 5, 78, 0
7, 17408, Note_on_c, 5, 78, 96
7, 17408, Note_off_c, 5, 69, 0
7, 17920, Note_off_c, 5, 81, 0
7, 17920, Note_on_c, 5, 79, 96
7, 17920, Note_off_c, 5, 78, 0
7, 17920, Note_on_c, 5, 76, 96
7, 17920, Note_on_c, 5, 69, 96
7, 18176, Note_off_c, 5, 79, 0
7, 18176, Note_on_c, 5, 78, 96
7, 18176, Note_off_c, 5, 76, 0
7, 18176, Note_on_c, 5, 74, 96
7, 18176, Note_off_c, 5, 69, 0
7, 18176, Note_on_c, 5, 69, 96
7, 18432, Note_off_c, 5, 78, 0
7, 18432, Note_on_c, 5, 79, 96
7, 18432, Note_off_c, 5, 74, 0
7, 18432, Note_on_c, 5, 76, 96
7, 18432, Note_off_c, 5, 69, 0
7, 18432, Note_on_c, 5, 69, 96
7, 18944, Note_off_c, 5, 79, 0
7, 18944, Note_on_c, 5, 78, 96
7, 18944, Note_off_c, 5, 76, 0
7, 18944, Note_on_c, 5, 74, 96
7, 19200, Note_off_c, 5, 78, 0
7, 19200, Note_on_c, 5, 76, 96
7, 19200, Note_off_c, 5, 74, 0
7, 19200, Note_on_c, 5, 73, 96
7, 19456, Note_off_c, 5, 76, 0
7, 19456, Note_on_c, 5, 78, 96
7, 19456, Note_off_c, 5, 73, 0
7, 19456, Note_on_c, 5, 74, 96
7, 19456, Note_off_c, 5, 69, 0
7, 19968, Note_off_c, 5, 78, 0
7, 19968, Note_on_c, 5, 76, 96
7, 19968, Note_off_c, 5, 74, 0
7, 19968, Note_on_c, 5, 69, 96
7, 19968, Note_on_c, 5, 66, 96
7, 20224, Note_off_c, 5, 76, 0
7, 20224, Note_on_c, 5, 74, 96
7, 20224, Note_off_c, 5, 66, 0
7, 20224, Note_on_c, 5, 66, 96
7, 20480, Note_off_c, 5, 74, 0
7, 20480, Note_off_c, 5, 69, 0
7, 20480, Note_off_c, 5, 66, 0
7, 20480, Note_on_c, 5, 76, 96
7, 20480, Note_on_c, 5, 69, 96
7, 20480, Note_on_c, 5, 69, 96
7, 20736, Note_off_c, 5, 76, 0
7, 20736, Note_on_c, 5, 78, 96
7, 20992, Note_off_c, 5, 78, 0
7, 20992, Note_on_c, 5, 79, 96
7, 20992, Note_off_c, 5, 69, 0
7, 20992, Note_on_c, 5, 69, 96
7, 20992, Note_off_c, 5, 69, 0
7, 20992, Note_on_c, 5, 69, 96
7, 21504, Note_off_c, 5, 79, 0
7, 21504, Note_on_c, 5, 79, 96
7, 21504, Note_off_c, 5, 69, 0
7, 21504, Note_on_c, 5, 69, 96
7, 21504, Note_off_c, 5, 69, 0
7, 21504, Note_on_c, 5, 69, 96
7, 22016, Note_off_c, 5, 79, 0
7, 22016, Note_on_c, 5, 78, 96
7, 22016, Note_off_c, 5, 69, 0
7, 22016, Note_on_c, 5, 69, 96
7, 22016, Note_off_c, 5, 69, 0
7, 22016, Note_on_c, 5, 69, 96
7, 22272, Note_off_c, 5, 78, 0
7, 22272, Note_on_c, 5, 76, 96
7, 22528, Note_off_c, 5, 76, 0
7, 22528, Note_on_c, 5, 78, 96
7, 22528, Note_off_c, 5, 69, 0
7, 22528, Note_on_c, 5, 69, 96
7, 22528, Note_off_c, 5, 69, 0
7, 22528, Note_on_c, 5, 69, 96
7, 23040, Note_off_c, 5, 78, 0
7, 23040, Note_on_c, 5, 76, 96
7, 23040, Note_off_c, 5, 69, 0
7, 23040, Note_on_c, 5, 69, 96
7, 23040, Note_off_c, 5, 69, 0
7, 23040, Note_on_c, 5, 69, 96
7, 23296, Note_off_c, 5, 76, 0
7, 23296, Note_on_c, 5, 74, 96
7, 23552, Note_off_c, 5, 74, 0
7, 23552, Note_on_c, 5, 76, 96
7, 23552, Note_off_c, 5, 69, 0
7, 23552, Note_on_c, 5, 69, 96
7, 23552, Note_off_c, 5, 69, 0
7, 23552, Note_on_c, 5, 69, 96
7, 24064, Note_off_c, 5, 76, 0
7, 24064, Note_on_c, 5, 69, 96
7, 24064, Note_off_c, 5, 69, 0
7, 24064, Note_on_c, 5, 69, 96
7, 24064, Note_off_c, 5, 69, 0
7, 24064, Note_on_c, 5, 69, 96
7, 24576, Note_off_c, 5, 69, 0
7, 24576, Note_off_c, 5, 69, 0
7, 24576, Note_off_c, 5, 69, 0
7, 24576, Note_on_c, 5, 74, 96
7, 24576, Note_on_c, 5, 69, 96
7, 24576, Note_on_c, 5, 69, 96
7, 24832, Note_off_c, 5, 74, 0
7, 24832, Note_on_c, 5, 76, 96
7, 25088, Note_off_c, 5, 76, 0
7, 25088, Note_on_c, 5, 78, 96
7, 25088, Note_off_c, 5, 69, 0
7, 25088, Note_on_c, 5, 74, 96
7, 25088, Note_off_c, 5, 69, 0
7, 25088, Note_on_c, 5, 62, 96
7, 25344, Note_off_c, 5, 78, 0
7, 25344, Note_on_c, 5, 79, 96
7, 25344, Note_off_c, 5, 74, 0
7, 25344, Note_on_c, 5, 76, 96
7, 25600, Note_off_c, 5, 79, 0
7, 25600, Note_on_c, 5, 81, 96
7, 25600, Note_off_c, 5, 76, 0
7, 25600, Note_on_c, 5, 78, 96
7, 25600, Note_off_c, 5, 62, 0
7, 26112, Note_off_c, 5, 81, 0
7, 26112, Note_on_c, 5, 79, 96
7, 26112, Note_off_c, 5, 78, 0
7, 26112, Note_on_c, 5, 76, 96
7, 26112, Note_on_c, 5, 62, 96
7, 26368, Note_off_c, 5, 79, 0
7, 26368, Note_on_c, 5, 78, 96
7, 26368, Note_off_c, 5, 76, 0
7, 26368, Note_on_c, 5, 74, 96
7, 26624, Note_off_c, 5, 78, 0
7, 26624, Note_on_c, 5, 76, 96
7, 26624, Note_off_c, 5, 74, 0
7, 26624, Note_on_c, 5, 81, 96
7, 26624, Note_off_c, 5, 62, 0
7, 26624, Note_on_c, 5, 69, 96
7, 27648, Note_off_c, 5, 76, 0
7, 27648, Note_off_c, 5, 81, 0
7, 27648, Note_off_c, 5, 69, 0
7, 44544, Note_on_c, 5, 69, 96
7, 45056, Note_off_c, 5, 69, 0
7, 45056, Note_on_c, 5, 74, 96
7, 45312, Note_off_c, 5, 74, 0
7, 45312, Note_on_c, 5, 76, 96
7, 45568, Note_off_c, 5, 76, 0
7, 45568, Note_on_c, 5, 78, 96
7, 46080, Note_off_c, 5, 78, 0
7, 46080, Note_on_c, 5, 78, 96
7, 46592, Note_off_c, 5, 78, 0
7, 46592, Note_on_c, 5, 76, 96
7, 47104, Note_off_c, 5, 76, 0
7, 47104, Note_on_c, 5, 74, 96
7, 47616, Note_off_c, 5, 74, 0
7, 47616, Note_on_c, 5, 69, 96
7, 47616, Note_on_c, 5, 66, 96
7, 47616, Note_on_c, 5, 62, 96
7, 47872, Note_off_c, 5, 66, 0
7, 47872, Note_on_c, 5, 66, 96
7, 47872, Note_off_c, 5, 62, 0
7, 47872, Note_on_c, 5, 62, 96
7, 48128, Note_off_c, 5, 69, 0
7, 48128, Note_on_c, 5, 69, 96
7, 48128, Note_off_c, 5, 66, 0
7, 48128, Note_on_c, 5, 66, 96
7, 48128, Note_off_c, 5, 62, 0
7, 48128, Note_on_c, 5, 62, 96
7, 48640, Note_off_c, 5, 69, 0
7, 48640, Note_on_c, 5, 74, 96
7, 48640, Note_off_c, 5, 66, 0
7, 48640, Note_on_c, 5, 69, 96
7, 48640, Note_off_c, 5, 62, 0
7, 48896, Note_off_c, 5, 74, 0
7, 48896, Note_on_c, 5, 76, 96
7, 49152, Note_off_c, 5, 76, 0
7, 49152, Note_off_c, 5, 69, 0
7, 49152, Note_on_c, 5, 78, 96
7, 49152, Note_on_c, 5, 74, 96
7, 49408, Note_off_c, 5, 78, 0
7, 49408, Note_on_c, 5, 79, 96
7, 49408, Note_off_c, 5, 74, 0
7, 49408, Note_on_c, 5, 76, 96
7, 49664, Note_off_c, 5, 79, 0
7, 49664, Note_on_c, 5, 81, 96
7, 49664, Note_off_c, 5, 76, 0
7, 49664, Note_on_c, 5, 78, 96
7, 50176, Note_off_c, 5, 81, 0
7, 50176, Note_on_c, 5, 81, 96
7, 50176, Note_off_c, 5, 78, 0
7, 50176, Note_on_c, 5, 78, 96
7, 50688, Note_off_c, 5, 81, 0
7, 50688, Note_on_c, 5, 79, 96
7, 50688, Note_off_c, 5, 78, 0
7, 50688, Note_on_c, 5, 76, 96
7, 51200, Note_off_c, 5, 79, 0
7, 51200, Note_on_c, 5, 78, 96
7, 51200, Note_off_c, 5, 76, 0
7, 51200, Note_on_c, 5, 74, 96
7, 51712, Note_off_c, 5, 78, 0
7, 51712, Note_on_c, 5, 74, 96
7, 51712, Note_off_c, 5, 74, 0
7, 51712, Note_on_c, 5, 69, 96
7, 51712, Note_on_c, 5, 66, 96
7, 51968, Note_off_c, 5, 66, 0
7, 51968, Note_on_c, 5, 66, 96
7, 52224, Note_off_c, 5, 74, 0
7, 52224, Note_on_c, 5, 74, 96
7, 52224, Note_off_c, 5, 69, 0
7, 52224, Note_on_c, 5, 69, 96
7, 52224, Note_off_c, 5, 66, 0
7, 52224, Note_on_c, 5, 66, 96
7, 53248, Note_off_c, 5, 74, 0
7, 53248, Note_off_c, 5, 69, 0
7, 53248, Note_off_c, 5, 66, 0
7, 67072, Note_on_c, 5, 76, 96
7, 67584, Note_off_c, 5, 76, 0
7, 67584, Note_on_c, 5, 76, 96
7, 72192, Note_on_c, 5, 81, 96
7, 72448, Note_off_c, 5, 81, 0
7, 72448, Note_on_c, 5, 81, 96
7, 72704, Note_off_c, 5, 81, 0
7, 72704, Note_on_c, 5, 81, 96
7, 73216, Note_off_c, 5, 81, 0
7, 76288, Note_on_c, 5, 81, 96
7, 76288, Note_on_c, 5, 69, 96
7, 76544, Note_off_c, 5, 81, 0
7, 76544, Note_on_c, 5, 81, 96
7, 76544, Note_off_c, 5, 69, 0
7, 76544, Note_on_c, 5, 69, 96
7, 76800, Note_off_c, 5, 76, 0
7, 76800, Note_off_c, 5, 81, 0
7, 76800, Note_on_c, 5, 81, 96
7, 76800, Note_off_c, 5, 69, 0
7, 76800, Note_on_c, 5, 69, 96
7, 77824, Note_off_c, 5, 81, 0
7, 77824, Note_off_c, 5, 69, 0
7, 93696, Note_on_c, 5, 81, 96
7, 93696, Note_on_c, 5, 76, 96
7, 94208, Note_off_c, 5, 81, 0
7, 94208, Note_off_c, 5, 76, 0
7, 94208, Note_on_c, 5, 81, 96
7, 94208, Note_on_c, 5, 76, 96
7, 94464, Note_off_c, 5, 76, 0
7, 94464, Note_on_c, 5, 78, 96
7, 94720, Note_off_c, 5, 81, 0
7, 94720, Note_on_c, 5, 83, 96
7, 94720, Note_off_c, 5, 78, 0
7, 94720, Note_on_c, 5, 79, 96
7, 95232, Note_off_c, 5, 83, 0
7, 95232, Note_on_c, 5, 83, 96
7, 95232, Note_off_c, 5, 79, 0
7, 95232, Note_on_c, 5, 79, 96
7, 95744, Note_off_c, 5, 83, 0
7, 95744, Note_on_c, 5, 81, 96
7, 95744, Note_off_c, 5, 79, 0
7, 95744, Note_on_c, 5, 78, 96
7, 95744, Note_on_c, 5, 74, 96
7, 96000, Note_off_c, 5, 81, 0
7, 96000, Note_on_c, 5, 79, 96
7, 96000, Note_off_c, 5, 78, 0
7, 96000, Note_on_c, 5, 76, 96
7, 96000, Note_off_c, 5, 74, 0
7, 96000, Note_on_c, 5, 74, 96
7, 96256, Note_off_c, 5, 79, 0
7, 96256, Note_on_c, 5, 81, 96
7, 96256, Note_off_c, 5, 76, 0
7, 96256, Note_on_c, 5, 78, 96
7, 96256, Note_off_c, 5, 74, 0
7, 96256, Note_on_c, 5, 74, 96
7, 96768, Note_off_c, 5, 81, 0
7, 96768, Note_on_c, 5, 79, 96
7, 96768, Note_off_c, 5, 78, 0
7, 96768, Note_on_c, 5, 76, 96
7, 97024, Note_off_c, 5, 79, 0
7, 97024, Note_on_c, 5, 78, 96
7, 97024, Note_off_c, 5, 76, 0
7, 97024, Note_on_c, 5, 74, 96
7, 97280, Note_off_c, 5, 78, 0
7, 97280, Note_on_c, 5, 79, 96
7, 97280, Note_off_c, 5, 74, 0
7, 97280, Note_on_c, 5, 76, 96
7, 97280, Note_off_c, 5, 74, 0
7, 97792, Note_off_c, 5, 79, 0
7, 97792, Note_on_c, 5, 78, 96
7, 97792, Note_off_c, 5, 76, 0
7, 97792, Note_on_c, 5, 74, 96
7, 97792, Note_on_c, 5, 69, 96
7, 98048, Note_off_c, 5, 78, 0
7, 98048, Note_on_c, 5, 76, 96
7, 98048, Note_off_c, 5, 74, 0
7, 98048, Note_on_c, 5, 73, 96
7, 98048, Note_off_c, 5, 69, 0
7, 98048, Note_on_c, 5, 69, 96
7, 98304, Note_off_c, 5, 76, 0
7, 98304, Note_off_c, 5, 73, 0
7, 98304, Note_off_c, 5, 69, 0
7, 98304, Note_on_c, 5, 78, 96
7, 98304, Note_on_c, 5, 74, 96
7, 98304, Note_on_c, 5, 69, 96
7, 98560, Note_off_c, 5, 78, 0
7, 98560, Note_on_c, 5, 79, 96
7, 98560, Note_off_c, 5, 74, 0
7, 98560, Note_on_c, 5, 76, 96
7, 98816, Note_off_c, 5, 79, 0
7, 98816, Note_on_c, 5, 81, 96
7, 98816, Note_off_c, 5, 76, 0
7, 98816, Note_on_c, 5, 78, 96
7, 99328, Note_off_c, 5, 81, 0
7, 99328, Note_on_c, 5, 81, 96
7, 99328, Note_off_c, 5, 78, 0
7, 99328, Note_on_c, 5, 78, 96
7, 99328, Note_off_c, 5, 69, 0
7, 99840, Note_off_c, 5, 81, 0
7, 99840, Note_on_c, 5, 79, 96
7, 99840, Note_off_c, 5, 78, 0
7, 99840, Note_on_c, 5, 76, 96
7, 99840, Note_on_c, 5, 69, 96
7, 100096, Note_off_c, 5, 79, 0
7, 100096, Note_on_c, 5, 78, 96
7, 100096, Note_off_c, 5, 76, 0
7, 100096, Note_on_c, 5, 74, 96
7, 100096, Note_off_c, 5, 69, 0
7, 100096, Note_on_c, 5, 69, 96
7, 100352, Note_off_c, 5, 78, 0
7, 100352, Note_on_c, 5, 79, 96
7, 100352, Note_off_c, 5, 74, 0
7, 100352, Note_on_c, 5, 76, 96
7, 100352, Note_off_c, 5, 69, 0
7, 100352, Note_on_c, 5, 69, 96
7, 100864, Note_off_c, 5, 79, 0
7, 100864, Note_on_c, 5, 78, 96
7, 100864, Note_off_c, 5, 76, 0
7, 100864, Note_on_c, 5, 74, 96
7, 101120, Note_off_c, 5, 78, 0
7, 101120, Note_on_c, 5, 76, 96
7, 101120, Note_off_c, 5, 74, 0
7, 101120, Note_on_c, 5, 73, 96
7, 101376, Note_off_c, 5, 76, 0
7, 101376, Note_on_c, 5, 78, 96
7, 101376, Note_off_c, 5, 73, 0
7, 101376, Note_on_c, 5, 74, 96
7, 101376, Note_off_c, 5, 69, 0
7, 102400, Note_off_c, 5, 78, 0
7, 102400, Note_off_c, 5, 74, 0
7, 114176, Note_on_c, 5, 69, 96
7, 114688, Note_off_c, 5, 69, 0
7, 114688, Note_on_c, 5, 74, 96
7, 114944, Note_off_c, 5, 74, 0
7, 114944, Note_on_c, 5, 76, 96
7, 115200, Note_off_c, 5, 76, 0
7, 115200, Note_on_c, 5, 78, 96
7, 115712, Note_off_c, 5, 78, 0
7, 115712, Note_on_c, 5, 78, 96
7, 116224, Note_off_c, 5, 78, 0
7, 116224, Note_on_c, 5, 76, 96
7, 116736, Note_off_c, 5, 76, 0
7, 116736, Note_on_c, 5, 74, 96
7, 116992, Note_on_c, 5, 66, 96
7, 116992, Note_on_c, 5, 62, 96
7, 117248, Note_off_c, 5, 74, 0
7, 117248, Note_on_c, 5, 69, 96
7, 117248, Note_off_c, 5, 66, 0
7, 117248, Note_on_c, 5, 66, 96
7, 117248, Note_off_c, 5, 62, 0
7, 117248, Note_on_c, 5, 62, 96
7, 117504, Note_off_c, 5, 66, 0
7, 117504, Note_on_c, 5, 66, 96
7, 117504, Note_off_c, 5, 62, 0
7, 117504, Note_on_c, 5, 62, 96
7, 117760, Note_off_c, 5, 69, 0
7, 117760, Note_on_c, 5, 69, 96
7, 117760, Note_off_c, 5, 66, 0
7, 117760, Note_on_c, 5, 66, 96
7, 117760, Note_off_c, 5, 62, 0
7, 117760, Note_on_c, 5, 62, 96
7, 118272, Note_off_c, 5, 69, 0
7, 118272, Note_on_c, 5, 74, 96
7, 118272, Note_off_c, 5, 66, 0
7, 118272, Note_on_c, 5, 69, 96
7, 118272, Note_off_c, 5, 62, 0
7, 118528, Note_off_c, 5, 74, 0
7, 118528, Note_on_c, 5, 76, 96
7, 118784, Note_off_c, 5, 76, 0
7, 118784, Note_off_c, 5, 69, 0
7, 118784, Note_on_c, 5, 78, 96
7, 118784, Note_on_c, 5, 74, 96
7, 119040, Note_off_c, 5, 78, 0
7, 119040, Note_on_c, 5, 79, 96
7, 119040, Note_off_c, 5, 74, 0
7, 119040, Note_on_c, 5, 76, 96
7, 119296, Note_off_c, 5, 79, 0
7, 119296, Note_on_c, 5, 81, 96
7, 119296, Note_off_c, 5, 76, 0
7, 119296, Note_on_c, 5, 78, 96
7, 119808, Note_off_c, 5, 81, 0
7, 119808, Note_on_c, 5, 81, 96
7, 119808, Note_off_c, 5, 78, 0
7, 119808, Note_on_c, 5, 78, 96
7, 120320, Note_off_c, 5, 81, 0
7, 120320, Note_on_c, 5, 79, 96
7, 120320, Note_off_c, 5, 78, 0
7, 120320, Note_on_c, 5, 76, 96
7, 120832, Note_off_c, 5, 79, 0
7, 120832, Note_on_c, 5, 78, 96
7, 120832, Note_off_c, 5, 76, 0
7, 120832, Note_on_c, 5, 74, 96
7, 121088, Note_on_c, 5, 66, 96
7, 121344, Note_off_c, 5, 78, 0
7, 121344, Note_on_c, 5, 74, 96
7, 121344, Note_off_c, 5, 74, 0
7, 121344, Note_on_c, 5, 69, 96
7, 121344, Note_off_c, 5, 66, 0
7, 121344, Note_on_c, 5, 66, 96
7, 121600, Note_off_c, 5, 66, 0
7, 121600, Note_on_c, 5, 66, 96
7, 121856, Note_off_c, 5, 74, 0
7, 121856, Note_on_c, 5, 74, 96
7, 121856, Note_off_c, 5, 69, 0
7, 121856, Note_on_c, 5, 69, 96
7, 121856, Note_off_c, 5, 66, 0
7, 121856, Note_on_c, 5, 66, 96
7, 122112, Note_off_c, 5, 74, 0
7, 122112, Note_on_c, 5, 76, 96
7, 122368, Note_off_c, 5, 76, 0
7, 122368, Note_on_c, 5, 78, 96
7, 122368, Note_off_c, 5, 69, 0
7, 122368, Note_on_c, 5, 74, 96
7, 122368, Note_off_c, 5, 66, 0
7, 122368, Note_on_c, 5, 69, 96
7, 122624, Note_off_c, 5, 78, 0
7, 122624, Note_on_c, 5, 79, 96
7, 122624, Note_off_c, 5, 74, 0
7, 122624, Note_on_c, 5, 76, 96
7, 122880, Note_off_c, 5, 79, 0
7, 122880, Note_off_c, 5, 76, 0
7, 122880, Note_off_c, 5, 69, 0
7, 122880, Note_on_c, 5, 81, 96
7, 122880, Note_on_c, 5, 78, 96
7, 122880, Note_on_c, 5, 74, 96
7, 123392, Note_off_c, 5, 81, 0
7, 123392, Note_on_c, 5, 83, 96
7, 123392, Note_off_c, 5, 78, 0
7, 123392, Note_on_c, 5, 79, 96
7, 123904, Note_off_c, 5, 83, 0
7, 123904, Note_on_c, 5, 83, 96
7, 123904, Note_off_c, 5, 79, 0
7, 123904, Note_on_c, 5, 79, 96
7, 123904, Note_off_c, 5, 74, 0
7, 124416, Note_off_c, 5, 83, 0
7, 124416, Note_on_c, 5, 81, 96
7, 124416, Note_off_c, 5, 79, 0
7, 124416, Note_on_c, 5, 78, 96
7, 124416, Note_on_c, 5, 74, 96
7, 124672, Note_off_c, 5, 81, 0
7, 124672, Note_on_c, 5, 79, 96
7, 124672, Note_off_c, 5, 78, 0
7, 124672, Note_on_c, 5, 76, 96
7, 124672, Note_off_c, 5, 74, 0
7, 124672, Note_on_c, 5, 74, 96
7, 124928, Note_off_c, 5, 79, 0
7, 124928, Note_on_c, 5, 81, 96
7, 124928, Note_off_c, 5, 76, 0
7, 124928, Note_on_c, 5, 78, 96
7, 124928, Note_off_c, 5, 74, 0
7, 124928, Note_on_c, 5, 74, 96
7, 125440, Note_off_c, 5, 81, 0
7, 125440, Note_on_c, 5, 79, 96
7, 125440, Note_off_c, 5, 78, 0
7, 125440, Note_on_c, 5, 76, 96
7, 125696, Note_off_c, 5, 79, 0
7, 125696, Note_on_c, 5, 78, 96
7, 125696, Note_off_c, 5, 76, 0
7, 125696, Note_on_c, 5, 74, 96
7, 125952, Note_off_c, 5, 78, 0
7, 125952, Note_on_c, 5, 79, 96
7, 125952, Note_off_c, 5, 74, 0
7, 125952, Note_on_c, 5, 76, 96
7, 125952, Note_off_c, 5, 74, 0
7, 126464, Note_off_c, 5, 79, 0
7, 126464, Note_on_c, 5, 78, 96
7, 126464, Note_off_c, 5, 76, 0
7, 126464, Note_on_c, 5, 74, 96
7, 126464, Note_on_c, 5, 69, 96
7, 126720, Note_off_c, 5, 78, 0
7, 126720, Note_on_c, 5, 76, 96
7, 126720, Note_off_c, 5, 74, 0
7, 126720, Note_on_c, 5, 73, 96
7, 126720, Note_off_c, 5, 69, 0
7, 126720, Note_on_c, 5, 69, 96
7, 126976, Note_off_c, 5, 76, 0
7, 126976, Note_off_c, 5, 73, 0
7, 126976, Note_off_c, 5, 69, 0
7, 126976, Note_on_c, 5, 78, 96
7, 126976, Note_on_c, 5, 74, 96
7, 126976, Note_on_c, 5, 69, 96
7, 127232, Note_off_c, 5, 78, 0
7, 127232, Note_on_c, 5, 79, 96
7, 127232, Note_off_c, 5, 74, 0
7, 127232, Note_on_c, 5, 76, 96
7, 127488, Note_off_c, 5, 79, 0
7, 127488, Note_on_c, 5, 81, 96
7, 127488, Note_off_c, 5, 76, 0
7, 127488, Note_on_c, 5, 78, 96
7, 128000, Note_off_c, 5, 81, 0
7, 128000, Note_on_c, 5, 81, 96
7, 128000, Note_off_c, 5, 78, 0
7, 128000, Note_on_c, 5, 78, 96
7, 128000, Note_off_c, 5, 69, 0
7, 128512, Note_off_c, 5, 81, 0
7, 128512, Note_on_c, 5, 79, 96
7, 128512, Note_off_c, 5, 78, 0
7, 128512, Note_on_c, 5, 76, 96
7, 128512, Note_on_c, 5, 69, 96
7, 128768, Note_off_c, 5, 79, 0
7, 128768, Note_on_c, 5, 78, 96
7, 128768, Note_off_c, 5, 76, 0
7, 128768, Note_on_c, 5, 74, 96
7, 128768, Note_off_c, 5, 69, 0
7, 128768, Note_on_c, 5, 69, 96
7, 129024, Note_off_c, 5, 78, 0
7, 129024, Note_on_c, 5, 79, 96
7, 129024, Note_off_c, 5, 74, 0
7, 129024, Note_on_c, 5, 76, 96
7, 129024, Note_off_c, 5, 69, 0
7, 129024, Note_on_c, 5, 69, 96
7, 129536, Note_off_c, 5, 79, 0
7, 129536, Note_on_c, 5, 78, 96
7, 129536, Note_off_c, 5, 76, 0
7, 129536, Note_on_c, 5, 74, 96
7, 129792, Note_off_c, 5, 78, 0
7, 129792, Note_on_c, 5, 76, 96
7, 129792, Note_off_c, 5, 74, 0
7, 129792, Note_on_c, 5, 73, 96
7, 130048, Note_off_c, 5, 76, 0
7, 130048, Note_on_c, 5, 78, 96
7, 130048, Note_off_c, 5, 73, 0
7, 130048, Note_on_c, 5, 74, 96
7, 130048, Note_off_c, 5, 69, 0
7, 130560, Note_off_c, 5, 78, 0
7, 130560, Note_on_c, 5, 76, 96
7, 130560, Note_off_c, 5, 74, 0
7, 130560, Note_on_c, 5, 69, 96
7, 130560, Note_on_c, 5, 66, 96
7, 130816, Note_off_c, 5, 76, 0
7, 130816, Note_on_c, 5, 74, 96
7, 130816, Note_off_c, 5, 66, 0
7, 130816, Note_on_c, 5, 66, 96
7, 131072, Note_off_c, 5, 74, 0
7, 131072, Note_off_c, 5, 69, 0
7, 131072, Note_off_c, 5, 66, 0
7, 131072, Note_on_c, 5, 76, 96
7, 131072, Note_on_c, 5, 69, 96
7, 131072, Note_on_c, 5, 69, 96
7, 131328, Note_off_c, 5, 76, 0
7, 131328, Note_on_c, 5, 78, 96
7, 131584, Note_off_c, 5, 78, 0
7, 131584, Note_on_c, 5, 79, 96
7, 131584, Note_off_c, 5, 69, 0
7, 131584, Note_on_c, 5, 76, 96
7, 131584, Note_off_c, 5, 69, 0
7, 131584, Note_on_c, 5, 69, 96
7, 132096, Note_off_c, 5, 79, 0
7, 132096, Note_on_c, 5, 79, 96
7, 132096, Note_off_c, 5, 76, 0
7, 132096, Note_on_c, 5, 76, 96
7, 132096, Note_off_c, 5, 69, 0
7, 132096, Note_on_c, 5, 69, 96
7, 132608, Note_off_c, 5, 79, 0
7, 132608, Note_on_c, 5, 78, 96
7, 132608, Note_off_c, 5, 76, 0
7, 132608, Note_on_c, 5, 74, 96
7, 132608, Note_off_c, 5, 69, 0
7, 132608, Note_on_c, 5, 69, 96
7, 132864, Note_off_c, 5, 78, 0
7, 132864, Note_on_c, 5, 76, 96
7, 132864, Note_off_c, 5, 74, 0
7, 132864, Note_on_c, 5, 73, 96
7, 133120, Note_off_c, 5, 76, 0
7, 133120, Note_on_c, 5, 78, 96
7, 133120, Note_off_c, 5, 73, 0
7, 133120, Note_on_c, 5, 74, 96
7, 133120, Note_off_c, 5, 69, 0
7, 133120, Note_on_c, 5, 69, 96
7, 133632, Note_off_c, 5, 78, 0
7, 133632, Note_on_c, 5, 76, 96
7, 133632, Note_off_c, 5, 74, 0
7, 133632, Note_on_c, 5, 69, 96
7, 133632, Note_off_c, 5, 69, 0
7, 133632, Note_on_c, 5, 69, 96
7, 133888, Note_off_c, 5, 76, 0
7, 133888, Note_on_c, 5, 74, 96
7, 134144, Note_off_c, 5, 74, 0
7, 134144, Note_on_c, 5, 81, 96
7, 134144, Note_off_c, 5, 69, 0
7, 134144, Note_on_c, 5, 76, 96
7, 134144, Note_off_c, 5, 69, 0
7, 134144, Note_on_c, 5, 69, 96
7, 134656, Note_off_c, 5, 81, 0
7, 134656, Note_on_c, 5, 79, 96
7, 134656, Note_off_c, 5, 76, 0
7, 134656, Note_on_c, 5, 76, 96
7, 134656, Note_off_c, 5, 69, 0
7, 134656, Note_on_c, 5, 69, 96
7, 135168, Note_off_c, 5, 79, 0
7, 135168, Note_off_c, 5, 76, 0
7, 135168, Note_off_c, 5, 69, 0
7, 135168, Note_on_c, 5, 78, 96
7, 135168, Note_on_c, 5, 74, 96
7, 135168, Note_on_c, 5, 69, 96
7, 135680, Note_off_c, 5, 78, 0
7, 135680, Note_on_c, 5, 76, 96
7, 135680, Note_off_c, 5, 74, 0
7, 135680, Note_on_c, 5, 74, 96
7, 135680, Note_off_c, 5, 69, 0
7, 135680, Note_on_c, 5, 62, 96
7, 135936, Note_off_c, 5, 76, 0
7, 135936, Note_on_c, 5, 78, 96
7, 136192, Note_off_c, 5, 78, 0
7, 136192, Note_on_c, 5, 79, 96
7, 136192, Note_off_c, 5, 74, 0
7, 136192, Note_on_c, 5, 74, 96
7, 136192, Note_off_c, 5, 62, 0
7, 136192, Note_on_c, 5, 69, 96
7, 136704, Note_off_c, 5, 79, 0
7, 136704, Note_on_c, 5, 78, 96
7, 136704, Note_off_c, 5, 74, 0
7, 136704, Note_on_c, 5, 69, 96
7, 136704, Note_off_c, 5, 69, 0
7, 136704, Note_on_c, 5, 69, 96
7, 136960, Note_off_c, 5, 78, 0
7, 136960, Note_on_c, 5, 76, 96
7, 136960, Note_off_c, 5, 69, 0
7, 136960, Note_on_c, 5, 69, 96
7, 137216, Note_off_c, 5, 76, 0
7, 137216, Note_on_c, 5, 74, 96
7, 137216, Note_off_c, 5, 69, 0
7, 137216, Note_on_c, 5, 69, 96
7, 137216, Note_off_c, 5, 69, 0
7, 137216, Note_on_c, 5, 66, 96
7, 141312, Note_off_c, 5, 74, 0
7, 141312, Note_off_c, 5, 69, 0
7, 141312, Note_off_c, 5, 66, 0
7, 141312, End_track
8, 0, Start_track
8, 0, Title_t, "Instrument 7"
8, 6400, Note_on_c, 6, 74, 96
8, 6400, Note_on_c, 6, 69, 96
8, 6656, Note_off_c, 6, 74, 0
8, 6656, Note_on_c, 6, 78, 96
8, 6656, Note_off_c, 6, 69, 0
8, 6656, Note_on_c, 6, 74, 96
8, 6912, Note_off_c, 6, 78, 0
8, 6912, Note_on_c, 6, 81, 96
8, 6912, Note_off_c, 6, 74, 0
8, 6912, Note_on_c, 6, 78, 96
8, 7168, Note_off_c, 6, 81, 0
8, 7168, Note_on_c, 6, 86, 96
8, 7168, Note_off_c, 6, 78, 0
8, 7168, Note_on_c, 6, 81, 96
8, 7680, Note_off_c, 6, 86, 0
8, 7680, Note_off_c, 6, 81, 0
8, 10496, Note_on_c, 6, 74, 96
8, 10496, Note_on_c, 6, 69, 96
8, 10752, Note_off_c, 6, 74, 0
8, 10752, Note_on_c, 6, 78, 96
8, 10752, Note_off_c, 6, 69, 0
8, 10752, Note_on_c, 6, 74, 96
8, 11008, Note_off_c, 6, 78, 0
8, 11008, Note_on_c, 6, 81, 96
8, 11008, Note_off_c, 6, 74, 0
8, 11008, Note_on_c, 6, 78, 96
8, 11264, Note_off_c, 6, 81, 0
8, 11264, Note_on_c, 6, 86, 96
8, 11264, Note_off_c, 6, 78, 0
8, 11264, Note_on_c, 6, 81, 96
8, 11776, Note_off_c, 6, 86, 0
8, 11776, Note_on_c, 6, 81, 96
8, 11776, Note_off_c, 6, 81, 0
8, 11776, Note_on_c, 6, 78, 96
8, 12288, Note_off_c, 6, 81, 0
8, 12288, Note_off_c, 6, 78, 0
8, 12288, Note_on_c, 6, 81, 96
8, 12288, Note_on_c, 6, 78, 96
8, 12800, Note_off_c, 6, 81, 0
8, 12800, Note_on_c, 6, 83, 96
8, 12800, Note_off_c, 6, 78, 0
8, 12800, Note_on_c, 6, 79, 96
8, 13312, Note_off_c, 6, 83, 0
8, 13312, Note_on_c, 6, 83, 96
8, 13312, Note_off_c, 6, 79, 0
8, 13312, Note_on_c, 6, 79, 96
8, 13824, Note_off_c, 6, 83, 0
8, 13824, Note_on_c, 6, 81, 96
8, 13824, Note_off_c, 6, 79, 0
8, 13824, Note_on_c, 6, 78, 96
8, 14080, Note_off_c, 6, 81, 0
8, 14080, Note_on_c, 6, 79, 96
8, 14080, Note_off_c, 6, 78, 0
8, 14080, Note_on_c, 6, 76, 96
8, 14336, Note_off_c, 6, 79, 0
8, 14336, Note_on_c, 6, 81, 96
8, 14336, Note_off_c, 6, 76, 0
8, 14336, Note_on_c, 6, 78, 96
8, 14848, Note_off_c, 6, 81, 0
8, 14848, Note_on_c, 6, 79, 96
8, 14848, Note_off_c, 6, 78, 0
8, 14848, Note_on_c, 6, 76, 96
8, 15104, Note_off_c, 6, 79, 0
8, 15104, Note_on_c, 6, 78, 96
8, 15104, Note_off_c, 6, 76, 0
8, 15104, Note_on_c, 6, 74, 96
8, 15360, Note_off_c, 6, 78, 0
8, 15360, Note_on_c, 6, 79, 96
8, 15360, Note_off_c, 6, 74, 0
8, 15360, Note_on_c, 6, 76, 96
8, 15872, Note_off_c, 6, 79, 0
8, 15872, Note_on_c, 6, 78, 96
8, 15872, Note_off_c, 6, 76, 0
8, 15872, Note_on_c, 6, 74, 96
8, 16128, Note_off_c, 6, 78, 0
8, 16128, Note_on_c, 6, 76, 96
8, 16128, Note_off_c, 6, 74, 0
8, 16128, Note_on_c, 6, 73, 96
8, 16384, Note_off_c, 6, 76, 0
8, 16384, Note_off_c, 6, 73, 0
8, 16384, Note_on_c, 6, 78, 96
8, 16384, Note_on_c, 6, 74, 96
8, 16640, Note_off_c, 6, 78, 0
8, 16640, Note_on_c, 6, 79, 96
8, 16640, Note_off_c, 6, 74, 0
8, 16640, Note_on_c, 6, 76, 96
8, 16896, Note_off_c, 6, 79, 0
8, 16896, Note_on_c, 6, 81, 96
8, 16896, Note_off_c, 6, 76, 0
8, 16896, Note_on_c, 6, 78, 96
8, 17408, Note_off_c, 6, 81, 0
8, 17408, Note_on_c, 6, 81, 96
8, 17408, Note_off_c, 6, 78, 0
8, 17408, Note_on_c, 6, 78, 96
8, 17920, Note_off_c, 6, 81, 0
8, 17920, Note_on_c, 6, 79, 96
8, 17920, Note_off_c, 6, 78, 0
8, 17920, Note_on_c, 6, 76, 96
8, 18176, Note_off_c, 6, 79, 0
8, 18176, Note_on_c, 6, 78, 96
8, 18176, Note_off_c, 6, 76, 0
8, 18176, Note_on_c, 6, 74, 96
8, 18432, Note_off_c, 6, 78, 0
8, 18432, Note_on_c, 6, 79, 96
8, 18432, Note_off_c, 6, 74, 0
8, 18432, Note_on_c, 6, 76, 96
8, 18944, Note_off_c, 6, 79, 0
8, 18944, Note_on_c, 6, 78, 96
8, 18944, Note_off_c, 6, 76, 0
8, 18944, Note_on_c, 6, 74, 96
8, 19200, Note_off_c, 6, 78, 0
8, 19200, Note_on_c, 6, 76, 96
8, 19200, Note_off_c, 6, 74, 0
8, 19200, Note_on_c, 6, 73, 96
8, 19456, Note_off_c, 6, 76, 0
8, 19456, Note_on_c, 6, 78, 96
8, 19456, Note_off_c, 6, 73, 0
8, 19456, Note_on_c, 6, 74, 96
8, 19968, Note_off_c, 6, 78, 0
8, 19968, Note_on_c, 6, 76, 96
8, 19968, Note_off_c, 6, 74, 0
8, 19968, Note_on_c, 6, 69, 96
8, 20224, Note_off_c, 6, 76, 0
8, 20224, Note_on_c, 6, 74, 96
8, 20480, Note_off_c, 6, 74, 0
8, 20480, Note_off_c, 6, 69, 0
8, 20480, Note_on_c, 6, 76, 96
8, 20480, Note_on_c, 6, 73, 96
8, 20736, Note_off_c, 6, 76, 0
8, 20736, Note_on_c, 6, 78, 96
8, 20736, Note_off_c, 6, 73, 0
8, 20736, Note_on_c, 6, 74, 96
8, 20992, Note_off_c, 6, 78, 0
8, 20992, Note_on_c, 6, 79, 96
8, 20992, Note_off_c, 6, 74, 0
8, 20992, Note_on_c, 6, 76, 96
8, 21504, Note_off_c, 6, 79, 0
8, 21504, Note_on_c, 6, 79, 96
8, 21504, Note_off_c, 6, 76, 0
8, 21504, Note_on_c, 6, 76, 96
8, 22016, Note_off_c, 6, 79, 0
8, 22016, Note_on_c, 6, 78, 96
8, 22016, Note_off_c, 6, 76, 0
8, 22016, Note_on_c, 6, 74, 96
8, 22272, Note_off_c, 6, 78, 0
8, 22272, Note_on_c, 6, 76, 96
8, 22272, Note_off_c, 6, 74, 0
8, 22272, Note_on_c, 6, 73, 96
8, 22528, Note_off_c, 6, 76, 0
8, 22528, Note_on_c, 6, 78, 96
8, 22528, Note_off_c, 6, 73, 0
8, 22528, Note_on_c, 6, 74, 96
8, 23040, Note_off_c, 6, 78, 0
8, 23040, Note_on_c, 6, 76, 96
8, 23040, Note_off_c, 6, 74, 0
8, 23040, Note_on_c, 6, 69, 96
8, 23296, Note_off_c, 6, 76, 0
8, 23296, Note_on_c, 6, 74, 96
8, 23552, Note_off_c, 6, 74, 0
8, 23552, Note_on_c, 6, 76, 96
8, 23552, Note_off_c, 6, 69, 0
8, 23552, Note_on_c, 6, 73, 96
8, 24064, Note_off_c, 6, 76, 0
8, 24064, Note_on_c, 6, 69, 96
8, 24064, Note_off_c, 6, 73, 0
8, 24064, Note_on_c, 6, 76, 96
8, 24576, Note_off_c, 6, 69, 0
8, 24576, Note_off_c, 6, 76, 0
8, 24576, Note_on_c, 6, 74, 96
8, 24576, Note_on_c, 6, 69, 96
8, 24832, Note_off_c, 6, 74, 0
8, 24832, Note_on_c, 6, 76, 96
8, 25088, Note_off_c, 6, 76, 0
8, 25088, Note_on_c, 6, 78, 96
8, 25088, Note_off_c, 6, 69, 0
8, 25088, Note_on_c, 6, 74, 96
8, 25344, Note_off_c, 6, 78, 0
8, 25344, Note_on_c, 6, 79, 96
8, 25344, Note_off_c, 6, 74, 0
8, 25344, Note_on_c, 6, 76, 96
8, 25600, Note_off_c, 6, 79, 0
8, 25600, Note_on_c, 6, 81, 96
8, 25600, Note_off_c, 6, 76, 0
8, 25600, Note_on_c, 6, 78, 96
8, 26112, Note_off_c, 6, 81, 0
8, 26112, Note_on_c, 6, 79, 96
8, 26112, Note_off_c, 6, 78, 0
8, 26112, Note_on_c, 6, 76, 96
8, 26368, Note_off_c, 6, 79, 0
8, 26368, Note_on_c, 6, 78, 96
8, 26368, Note_off_c, 6, 76, 0
8, 26368, Note_on_c, 6, 74, 96
8, 26624, Note_off_c, 6, 78, 0
8, 26624, Note_on_c, 6, 76, 96
8, 26624, Note_off_c, 6, 74, 0
8, 26624, Note_on_c, 6, 73, 96
8, 27648, Note_on_c, 6, 81, 96
8, 27648, Note_off_c, 6, 76, 0
8, 27648, Note_off_c, 6, 73, 0
8, 28672, Note_off_c, 6, 81, 0
8, 28672, Note_on_c, 6, 78, 96
8, 29696, Note_off_c, 6, 78, 0
8, 29696, Note_on_c, 6, 76, 96
8, 30208, Note_off_c, 6, 76, 0
8, 30208, Note_on_c, 6, 74, 96
8, 30720, Note_off_c, 6, 74, 0
8, 30720, Note_on_c, 6, 81, 96
8, 31744, Note_off_c, 6, 81, 0
8, 31744, Note_on_c, 6, 81, 96
8, 32256, Note_on_c, 6, 78, 96
8, 32256, Note_on_c, 6, 69, 96
8, 32768, Note_off_c, 6, 81, 0
8, 32768, Note_off_c, 6, 78, 0
8, 32768, Note_off_c, 6, 69, 0
8, 32768, Note_on_c, 6, 83, 96
8, 32768, Note_on_c, 6, 79, 96
8, 32768, Note_on_c, 6, 71, 96
8, 33024, Note_off_c, 6, 79, 0
8, 33024, Note_on_c, 6, 81, 96
8, 33024, Note_off_c, 6, 71, 0
8, 33024, Note_on_c, 6, 72, 96
8, 33280, Note_off_c, 6, 81, 0
8, 33280, Note_on_c, 6, 83, 96
8, 33280, Note_off_c, 6, 72, 0
8, 33280, Note_on_c, 6, 74, 96
8, 33792, Note_off_c, 6, 83, 0
8, 33792, Note_on_c, 6, 83, 96
8, 33792, Note_off_c, 6, 74, 0
8, 33792, Note_on_c, 6, 74, 96
8, 34304, Note_off_c, 6, 83, 0
8, 34304, Note_on_c, 6, 81, 96
8, 34304, Note_off_c, 6, 74, 0
8, 34304, Note_on_c, 6, 73, 96
8, 34816, Note_off_c, 6, 83, 0
8, 34816, Note_off_c, 6, 81, 0
8, 34816, Note_on_c, 6, 79, 96
8, 34816, Note_off_c, 6, 73, 0
8, 34816, Note_on_c, 6, 71, 96
8, 35328, Note_off_c, 6, 79, 0
8, 35328, Note_on_c, 6, 74, 96
8, 35328, Note_off_c, 6, 71, 0
8, 35328, Note_on_c, 6, 67, 96
8, 35840, Note_on_c, 6, 83, 96
8, 35840, Note_off_c, 6, 74, 0
8, 35840, Note_on_c, 6, 74, 96
8, 35840, Note_off_c, 6, 67, 0
8, 35840, Note_on_c, 6, 67, 96
8, 36352, Note_off_c, 6, 74, 0
8, 36352, Note_on_c, 6, 79, 96
8, 36352, Note_off_c, 6, 67, 0
8, 36352, Note_on_c, 6, 71, 96
8, 36864, Note_off_c, 6, 83, 0
8, 36864, Note_off_c, 6, 79, 0
8, 36864, Note_off_c, 6, 71, 0
8, 36864, Note_on_c, 6, 76, 96
8, 36864, Note_on_c, 6, 73, 96
8, 36864, Note_on_c, 6, 64, 96
8, 37120, Note_off_c, 6, 73, 0
8, 37120, Note_on_c, 6, 74, 96
8, 37120, Note_off_c, 6, 64, 0
8, 37120, Note_on_c, 6, 66, 96
8, 37376, Note_off_c, 6, 74, 0
8, 37376, Note_on_c, 6, 76, 96
8, 37376, Note_off_c, 6, 66, 0
8, 37376, Note_on_c, 6, 67, 96
8, 37888, Note_off_c, 6, 76, 0
8, 37888, Note_on_c, 6, 76, 96
8, 37888, Note_off_c, 6, 76, 0
8, 37888, Note_on_c, 6, 76, 96
8, 37888, Note_off_c, 6, 67, 0
8, 37888, Note_on_c, 6, 67, 96
8, 38400, Note_off_c, 6, 76, 0
8, 38400, Note_on_c, 6, 74, 96
8, 38400, Note_off_c, 6, 67, 0
8, 38400, Note_on_c, 6, 66, 96
8, 38912, Note_off_c, 6, 76, 0
8, 38912, Note_on_c, 6, 81, 96
8, 38912, Note_off_c, 6, 74, 0
8, 38912, Note_on_c, 6, 73, 96
8, 38912, Note_off_c, 6, 66, 0
8, 38912, Note_on_c, 6, 64, 96
8, 39424, Note_off_c, 6, 73, 0
8, 39424, Note_on_c, 6, 69, 96
8, 39424, Note_off_c, 6, 64, 0
8, 39424, Note_on_c, 6, 61, 96
8, 39936, Note_off_c, 6, 69, 0
8, 39936, Note_on_c, 6, 69, 96
8, 39936, Note_off_c, 6, 61, 0
8, 39936, Note_on_c, 6, 61, 96
8, 40448, Note_off_c, 6, 81, 0
8, 40448, Note_on_c, 6, 79, 96
8, 40448, Note_off_c, 6, 69, 0
8, 40448, Note_off_c, 6, 61, 0
8, 40960, Note_off_c, 6, 79, 0
8, 40960, Note_on_c, 6, 78, 96
8, 41984, Note_off_c, 6, 78, 0
8, 41984, Note_on_c, 6, 76, 96
8, 42496, Note_on_c, 6, 73, 96
8, 42496, Note_on_c, 6, 73, 96
8, 43008, Note_off_c, 6, 76, 0
8, 43008, Note_on_c, 6, 74, 96
8, 43008, Note_off_c, 6, 73, 0
8, 43008, Note_on_c, 6, 74, 96
8, 43008, Note_off_c, 6, 73, 0
8, 43008, Note_on_c, 6, 74, 96
8, 43264, Note_off_c, 6, 74, 0
8, 43264, Note_on_c, 6, 76, 96
8, 43264, Note_off_c, 6, 74, 0
8, 43264, Note_on_c, 6, 76, 96
8, 43520, Note_off_c, 6, 76, 0
8, 43520, Note_on_c, 6, 78, 96
8, 43520, Note_off_c, 6, 76, 0
8, 43520, Note_on_c, 6, 78, 96
8, 44032, Note_off_c, 6, 74, 0
8, 44032, Note_off_c, 6, 78, 0
8, 44032, Note_on_c, 6, 78, 96
8, 44032, Note_off_c, 6, 78, 0
8, 44032, Note_on_c, 6, 78, 96
8, 44544, Note_off_c, 6, 78, 0
8, 44544, Note_on_c, 6, 76, 96
8, 44544, Note_off_c, 6, 78, 0
8, 44544, Note_on_c, 6, 76, 96
8, 45056, Note_off_c, 6, 76, 0
8, 45056, Note_off_c, 6, 76, 0
8, 45056, Note_on_c, 6, 78, 96
8, 45056, Note_on_c, 6, 78, 96
8, 45312, Note_off_c, 6, 78, 0
8, 45312, Note_on_c, 6, 79, 96
8, 45312, Note_off_c, 6, 78, 0
8, 45312, Note_on_c, 6, 79, 96
8, 45568, Note_off_c, 6, 79, 0
8, 45568, Note_on_c, 6, 81, 96
8, 45568, Note_off_c, 6, 79, 0
8, 45568, Note_on_c, 6, 81, 96
8, 46080, Note_off_c, 6, 81, 0
8, 46080, Note_on_c, 6, 81, 96
8, 46080, Note_off_c, 6, 81, 0
8, 46080, Note_on_c, 6, 81, 96
8, 51456, Note_off_c, 6, 81, 0
8, 51456, Note_on_c, 6, 79, 96
8, 51456, Note_off_c, 6, 81, 0
8, 51456, Note_on_c, 6, 79, 96
8, 51712, Note_off_c, 6, 79, 0
8, 51712, Note_on_c, 6, 78, 96
8, 51712, Note_off_c, 6, 79, 0
8, 51712, Note_on_c, 6, 78, 96
8, 51968, Note_off_c, 6, 78, 0
8, 51968, Note_on_c, 6, 76, 96
8, 51968, Note_off_c, 6, 78, 0
8, 51968, Note_on_c, 6, 76, 96
8, 52224, Note_on_c, 6, 81, 96
8, 52224, Note_off_c, 6, 76, 0
8, 52224, Note_on_c, 6, 74, 96
8, 52224, Note_off_c, 6, 76, 0
8, 52224, Note_on_c, 6, 74, 96
8, 53248, Note_off_c, 6, 81, 0
8, 53248, Note_off_c, 6, 74, 0
8, 53248, Note_off_c, 6, 74, 0
8, 53248, Note_on_c, 6, 83, 96
8, 54272, Note_off_c, 6, 83, 0
8, 54272, Note_on_c, 6, 83, 96
8, 55296, Note_off_c, 6, 83, 0
8, 55296, Note_on_c, 6, 81, 96
8, 56320, Note_off_c, 6, 81, 0
8, 56320, Note_on_c, 6, 79, 96
8, 56832, Note_on_c, 6, 73, 96
8, 56832, Note_on_c, 6, 64, 96
8, 57344, Note_off_c, 6, 79, 0
8, 57344, Note_off_c, 6, 73, 0
8, 57344, Note_off_c, 6, 64, 0
8, 57344, Note_on_c, 6, 78, 96
8, 57344, Note_on_c, 6, 74, 96
8, 57344, Note_on_c, 6, 66, 96
8, 57600, Note_off_c, 6, 74, 0
8, 57600, Note_on_c, 6, 76, 96
8, 57600, Note_off_c, 6, 66, 0
8, 57600, Note_on_c, 6, 67, 96
8, 57856, Note_off_c, 6, 76, 0
8, 57856, Note_on_c, 6, 78, 96
8, 57856, Note_off_c, 6, 67, 0
8, 57856, Note_on_c, 6, 69, 96
8, 58368, Note_off_c, 6, 78, 0
8, 58368, Note_on_c, 6, 78, 96
8, 58368, Note_off_c, 6, 69, 0
8, 58368, Note_on_c, 6, 69, 96
8, 58880, Note_off_c, 6, 78, 0
8, 58880, Note_on_c, 6, 76, 96
8, 58880, Note_off_c, 6, 69, 0
8, 58880, Note_on_c, 6, 67, 96
8, 59392, Note_off_c, 6, 78, 0
8, 59392, Note_off_c, 6, 76, 0
8, 59392, Note_on_c, 6, 74, 96
8, 59392, Note_off_c, 6, 67, 0
8, 59392, Note_on_c, 6, 66, 96
8, 59904, Note_off_c, 6, 74, 0
8, 59904, Note_on_c, 6, 69, 96
8, 59904, Note_off_c, 6, 66, 0
8, 59904, Note_on_c, 6, 62, 96
8, 60416, Note_on_c, 6, 76, 96
8, 60416, Note_off_c, 6, 69, 0
8, 60416, Note_on_c, 6, 69, 96
8, 60416, Note_off_c, 6, 62, 0
8, 60416, Note_on_c, 6, 64, 96
8, 60928, Note_off_c, 6, 69, 0
8, 60928, Note_on_c, 6, 74, 96
8, 60928, Note_off_c, 6, 64, 0
8, 60928, Note_on_c, 6, 69, 96
8, 61440, Note_off_c, 6, 76, 0
8, 61440, Note_off_c, 6, 74, 0
8, 61440, Note_off_c, 6, 69, 0
8, 61440, Note_on_c, 6, 78, 96
8, 61440, Note_on_c, 6, 73, 96
8, 61440, Note_on_c, 6, 69, 96
8, 61696, Note_off_c, 6, 73, 0
8, 61696, Note_on_c, 6, 74, 96
8, 61696, Note_off_c, 6, 69, 0
8, 61696, Note_on_c, 6, 71, 96
8, 61952, Note_off_c, 6, 74, 0
8, 61952, Note_on_c, 6, 76, 96
8, 61952, Note_off_c, 6, 71, 0
8, 61952, Note_on_c, 6, 73, 96
8, 62464, Note_off_c, 6, 78, 0
8, 62464, Note_on_c, 6, 80, 96
8, 62464, Note_off_c, 6, 76, 0
8, 62464, Note_on_c, 6, 76, 96
8, 62464, Note_off_c, 6, 73, 0
8, 62464, Note_on_c, 6, 73, 96
8, 62976, Note_off_c, 6, 76, 0
8, 62976, Note_on_c, 6, 74, 96
8, 62976, Note_off_c, 6, 73, 0
8, 62976, Note_on_c, 6, 71, 96
8, 63488, Note_off_c, 6, 80, 0
8, 63488, Note_on_c, 6, 81, 96
8, 63488, Note_off_c, 6, 74, 0
8, 63488, Note_on_c, 6, 73, 96
8, 63488, Note_off_c, 6, 71, 0
8, 63488, Note_on_c, 6, 69, 96
8, 64000, Note_off_c, 6, 73, 0
8, 64000, Note_on_c, 6, 69, 96
8, 64000, Note_off_c, 6, 69, 0
8, 64000, Note_on_c, 6, 64, 96
8, 64512, Note_off_c, 6, 81, 0
8, 64512, Note_on_c, 6, 83, 96
8, 64512, Note_off_c, 6, 69, 0
8, 64512, Note_on_c, 6, 69, 96
8, 64512, Note_off_c, 6, 64, 0
8, 64512, Note_on_c, 6, 66, 96
8, 65024, Note_off_c, 6, 83, 0
8, 65024, Note_on_c, 6, 85, 96
8, 65024, Note_off_c, 6, 69, 0
8, 65024, Note_off_c, 6, 66, 0
8, 65280, Note_off_c, 6, 85, 0
8, 65280, Note_on_c, 6, 86, 96
8, 65536, Note_off_c, 6, 86, 0
8, 65536, Note_on_c, 6, 85, 96
8, 66560, Note_off_c, 6, 85, 0
8, 66560, Note_on_c, 6, 83, 96
8, 67072, Note_on_c, 6, 68, 96
8, 67584, Note_off_c, 6, 83, 0
8, 67584, Note_on_c, 6, 81, 96
8, 67584, Note_off_c, 6, 68, 0
8, 67584, Note_on_c, 6, 69, 96
8, 67840, Note_off_c, 6, 69, 0
8, 67840, Note_on_c, 6, 71, 96
8, 68096, Note_off_c, 6, 71, 0
8, 68096, Note_on_c, 6, 73, 96
8, 68608, Note_off_c, 6, 81, 0
8, 68608, Note_off_c, 6, 73, 0
8, 68608, Note_on_c, 6, 73, 96
8, 69120, Note_off_c, 6, 73, 0
8, 69120, Note_on_c, 6, 71, 96
8, 69120, Note_on_c, 6, 64, 96
8, 69632, Note_off_c, 6, 71, 0
8, 69632, Note_off_c, 6, 64, 0
8, 69632, Note_on_c, 6, 73, 96
8, 69632, Note_on_c, 6, 69, 96
8, 69888, Note_off_c, 6, 73, 0
8, 69888, Note_on_c, 6, 74, 96
8, 69888, Note_off_c, 6, 69, 0
8, 69888, Note_on_c, 6, 71, 96
8, 70144, Note_off_c, 6, 74, 0
8, 70144, Note_on_c, 6, 76, 96
8, 70144, Note_off_c, 6, 71, 0
8, 70144, Note_on_c, 6, 73, 96
8, 70656, Note_off_c, 6, 76, 0
8, 70656, Note_on_c, 6, 76, 96
8, 70656, Note_off_c, 6, 73, 0
8, 70656, Note_on_c, 6, 73, 96
8, 71168, Note_off_c, 6, 76, 0
8, 71168, Note_on_c, 6, 74, 96
8, 71168, Note_off_c, 6, 73, 0
8, 71168, Note_on_c, 6, 71, 96
8, 71680, Note_off_c, 6, 74, 0
8, 71680, Note_on_c, 6, 73, 96
8, 71680, Note_off_c, 6, 71, 0
8, 71680, Note_on_c, 6, 69, 96
8, 72192, Note_off_c, 6, 73, 0
8, 72192, Note_on_c, 6, 69, 96
8, 72192, Note_off_c, 6, 69, 0
8, 72192, Note_on_c, 6, 64, 96
8, 72704, Note_off_c, 6, 69, 0
8, 72704, Note_on_c, 6, 69, 96
8, 72704, Note_off_c, 6, 64, 0
8, 72704, Note_on_c, 6, 64, 96
8, 72960, Note_off_c, 6, 69, 0
8, 72960, Note_on_c, 6, 71, 96
8, 73216, Note_off_c, 6, 71, 0
8, 73216, Note_on_c, 6, 73, 96
8, 73216, Note_off_c, 6, 64, 0
8, 73216, Note_on_c, 6, 69, 96
8, 73472, Note_off_c, 6, 73, 0
8, 73472, Note_on_c, 6, 74, 96
8, 73472, Note_off_c, 6, 69, 0
8, 73472, Note_on_c, 6, 71, 96
8, 73728, Note_off_c, 6, 74, 0
8, 73728, Note_off_c, 6, 71, 0
8, 73728, Note_on_c, 6, 76, 96
8, 73728, Note_on_c, 6, 73, 96
8, 73984, Note_off_c, 6, 73, 0
8, 73984, Note_on_c, 6, 74, 96
8, 74240, Note_off_c, 6, 76, 0
8, 74240, Note_on_c, 6, 81, 96
8, 74240, Note_off_c, 6, 74, 0
8, 74240, Note_on_c, 6, 76, 96
8, 74752, Note_off_c, 6, 81, 0
8, 74752, Note_on_c, 6, 81, 96
8, 74752, Note_off_c, 6, 76, 0
8, 74752, Note_on_c, 6, 76, 96
8, 75264, Note_off_c, 6, 81, 0
8, 75264, Note_on_c, 6, 80, 96
8, 75264, Note_off_c, 6, 76, 0
8, 75264, Note_on_c, 6, 74, 96
8, 75776, Note_off_c, 6, 80, 0
8, 75776, Note_on_c, 6, 81, 96
8, 75776, Note_off_c, 6, 74, 0
8, 75776, Note_on_c, 6, 73, 96
8, 76288, Note_off_c, 6, 81, 0
8, 76288, Note_on_c, 6, 73, 96
8, 76288, Note_off_c, 6, 73, 0
8, 76288, Note_on_c, 6, 69, 96
8, 76800, Note_on_c, 6, 81, 96
8, 76800, Note_off_c, 6, 73, 0
8, 76800, Note_on_c, 6, 73, 96
8, 76800, Note_off_c, 6, 69, 0
8, 76800, Note_on_c, 6, 69, 96
8, 77824, Note_off_c, 6, 81, 0
8, 77824, Note_off_c, 6, 73, 0
8, 77824, Note_off_c, 6, 69, 0
8, 77824, Note_on_c, 6, 81, 96
8, 78848, Note_off_c, 6, 81, 0
8, 78848, Note_on_c, 6, 81, 96
8, 79872, Note_off_c, 6, 81, 0
8, 79872, Note_on_c, 6, 86, 96
8, 80896, Note_off_c, 6, 86, 0
8, 80896, Note_on_c, 6, 84, 96
8, 81408, Note_on_c, 6, 78, 96
8, 81408, Note_on_c, 6, 69, 96
8, 81920, Note_off_c, 6, 84, 0
8, 81920, Note_off_c, 6, 78, 0
8, 81920, Note_off_c, 6, 69, 0
8, 81920, Note_on_c, 6, 83, 96
8, 81920, Note_on_c, 6, 79, 96
8, 81920, Note_on_c, 6, 71, 96
8, 82176, Note_off_c, 6, 79, 0
8, 82176, Note_on_c, 6, 81, 96
8, 82176, Note_off_c, 6, 71, 0
8, 82176, Note_on_c, 6, 72, 96
8, 82432, Note_off_c, 6, 81, 0
8, 82432, Note_on_c, 6, 83, 96
8, 82432, Note_off_c, 6, 72, 0
8, 82432, Note_on_c, 6, 74, 96
8, 82944, Note_off_c, 6, 83, 0
8, 82944, Note_on_c, 6, 83, 96
8, 82944, Note_off_c, 6, 74, 0
8, 82944, Note_on_c, 6, 74, 96
8, 83456, Note_off_c, 6, 83, 0
8, 83456, Note_on_c, 6, 81, 96
8, 83456, Note_off_c, 6, 74, 0
8, 83456, Note_on_c, 6, 72, 96
8, 83968, Note_off_c, 6, 83, 0
8, 83968, Note_off_c, 6, 81, 0
8, 83968, Note_on_c, 6, 79, 96
8, 83968, Note_off_c, 6, 72, 0
8, 83968, Note_on_c, 6, 71, 96
8, 84480, Note_off_c, 6, 79, 0
8, 84480, Note_on_c, 6, 74, 96
8, 84480, Note_off_c, 6, 71, 0
8, 84480, Note_on_c, 6, 67, 96
8, 84992, Note_on_c, 6, 83, 96
8, 84992, Note_off_c, 6, 74, 0
8, 84992, Note_off_c, 6, 67, 0
8, 86016, Note_off_c, 6, 83, 0
8, 86016, Note_on_c, 6, 83, 96
8, 87040, Note_off_c, 6, 83, 0
8, 87040, Note_on_c, 6, 83, 96
8, 88064, Note_off_c, 6, 83, 0
8, 88064, Note_on_c, 6, 88, 96
8, 89088, Note_off_c, 6, 88, 0
8, 89088, Note_on_c, 6, 86, 96
8, 89600, Note_on_c, 6, 76, 96
8, 89600, Note_on_c, 6, 74, 96
8, 90112, Note_off_c, 6, 86, 0
8, 90112, Note_off_c, 6, 76, 0
8, 90112, Note_off_c, 6, 74, 0
8, 90112, Note_on_c, 6, 85, 96
8, 90112, Note_on_c, 6, 76, 96
8, 90112, Note_on_c, 6, 73, 96
8, 90624, Note_off_c, 6, 76, 0
8, 90624, Note_on_c, 6, 78, 96
8, 90624, Note_off_c, 6, 73, 0
8, 90624, Note_on_c, 6, 74, 96
8, 91136, Note_off_c, 6, 85, 0
8, 91136, Note_off_c, 6, 78, 0
8, 91136, Note_on_c, 6, 78, 96
8, 91136, Note_off_c, 6, 74, 0
8, 91136, Note_on_c, 6, 74, 96
8, 91648, Note_off_c, 6, 78, 0
8, 91648, Note_on_c, 6, 76, 96
8, 91648, Note_off_c, 6, 74, 0
8, 91648, Note_on_c, 6, 73, 96
8, 91904, Note_off_c, 6, 76, 0
8, 91904, Note_on_c, 6, 74, 96
8, 91904, Note_off_c, 6, 73, 0
8, 91904, Note_on_c, 6, 71, 96
8, 92160, Note_off_c, 6, 74, 0
8, 92160, Note_on_c, 6, 76, 96
8, 92160, Note_off_c, 6, 71, 0
8, 92160, Note_on_c, 6, 73, 96
8, 92672, Note_off_c, 6, 76, 0
8, 92672, Note_on_c, 6, 74, 96
8, 92672, Note_off_c, 6, 73, 0
8, 92672, Note_on_c, 6, 71, 96
8, 92928, Note_off_c, 6, 74, 0
8, 92928, Note_on_c, 6, 73, 96
8, 92928, Note_off_c, 6, 71, 0
8, 92928, Note_on_c, 6, 69, 96
8, 93184, Note_off_c, 6, 73, 0
8, 93184, Note_on_c, 6, 74, 96
8, 93184, Note_off_c, 6, 69, 0
8, 93184, Note_on_c, 6, 71, 96
8, 93696, Note_off_c, 6, 74, 0
8, 93696, Note_on_c, 6, 73, 96
8, 93696, Note_off_c, 6, 71, 0
8, 93696, Note_on_c, 6, 69, 96
8, 93952, Note_off_c, 6, 73, 0
8, 93952, Note_on_c, 6, 71, 96
8, 93952, Note_off_c, 6, 69, 0
8, 93952, Note_on_c, 6, 68, 96
8, 94208, Note_off_c, 6, 71, 0
8, 94208, Note_off_c, 6, 68, 0
8, 94208, Note_on_c, 6, 73, 96
8, 94208, Note_on_c, 6, 69, 96
8, 94720, Note_off_c, 6, 73, 0
8, 94720, Note_on_c, 6, 83, 96
8, 94720, Note_off_c, 6, 69, 0
8, 94720, Note_on_c, 6, 79, 96
8, 95232, Note_off_c, 6, 83, 0
8, 95232, Note_on_c, 6, 83, 96
8, 95232, Note_off_c, 6, 79, 0
8, 95232, Note_on_c, 6, 79, 96
8, 95744, Note_off_c, 6, 83, 0
8, 95744, Note_on_c, 6, 81, 96
8, 95744, Note_off_c, 6, 79, 0
8, 95744, Note_on_c, 6, 78, 96
8, 96000, Note_off_c, 6, 81, 0
8, 96000, Note_on_c, 6, 79, 96
8, 96000, Note_off_c, 6, 78, 0
8, 96000, Note_on_c, 6, 76, 96
8, 96256, Note_off_c, 6, 79, 0
8, 96256, Note_on_c, 6, 81, 96
8, 96256, Note_off_c, 6, 76, 0
8, 96256, Note_on_c, 6, 78, 96
8, 96768, Note_off_c, 6, 81, 0
8, 96768, Note_on_c, 6, 79, 96
8, 96768, Note_off_c, 6, 78, 0
8, 96768, Note_on_c, 6, 76, 96
8, 97024, Note_off_c, 6, 79, 0
8, 97024, Note_on_c, 6, 78, 96
8, 97024, Note_off_c, 6, 76, 0
8, 97024, Note_on_c, 6, 74, 96
8, 97280, Note_off_c, 6, 78, 0
8, 97280, Note_on_c, 6, 79, 96
8, 97280, Note_off_c, 6, 74, 0
8, 97280, Note_on_c, 6, 76, 96
8, 97792, Note_off_c, 6, 79, 0
8, 97792, Note_on_c, 6, 78, 96
8, 97792, Note_off_c, 6, 76, 0
8, 97792, Note_on_c, 6, 74, 96
8, 98048, Note_off_c, 6, 78, 0
8, 98048, Note_on_c, 6, 76, 96
8, 98048, Note_off_c, 6, 74, 0
8, 98048, Note_on_c, 6, 73, 96
8, 98304, Note_off_c, 6, 76, 0
8, 98304, Note_off_c, 6, 73, 0
8, 98304, Note_on_c, 6, 78, 96
8, 98304, Note_on_c, 6, 74, 96
8, 98560, Note_off_c, 6, 78, 0
8, 98560, Note_on_c, 6, 79, 96
8, 98560, Note_off_c, 6, 74, 0
8, 98560, Note_on_c, 6, 76, 96
8, 98816, Note_off_c, 6, 79, 0
8, 98816, Note_on_c, 6, 81, 96
8, 98816, Note_off_c, 6, 76, 0
8, 98816, Note_on_c, 6, 78, 96
8, 99328, Note_off_c, 6, 81, 0
8, 99328, Note_on_c, 6, 81, 96
8, 99328, Note_off_c, 6, 78, 0
8, 99328, Note_on_c, 6, 78, 96
8, 99840, Note_off_c, 6, 81, 0
8, 99840, Note_on_c, 6, 79, 96
8, 99840, Note_off_c, 6, 78, 0
8, 99840, Note_on_c, 6, 76, 96
8, 100096, Note_off_c, 6, 79, 0
8, 100096, Note_on_c, 6, 78, 96
8, 100096, Note_off_c, 6, 76, 0
8, 100096, Note_on_c, 6, 74, 96
8, 100352, Note_off_c, 6, 78, 0
8, 100352, Note_on_c, 6, 79, 96
8, 100352, Note_off_c, 6, 74, 0
8, 100352, Note_on_c, 6, 76, 96
8, 100864, Note_off_c, 6, 79, 0
8, 100864, Note_on_c, 6, 78, 96
8, 100864, Note_off_c, 6, 76, 0
8, 100864, Note_on_c, 6, 74, 96
8, 101120, Note_off_c, 6, 78, 0
8, 101120, Note_on_c, 6, 76, 96
8, 101120, Note_off_c, 6, 74, 0
8, 101120, Note_on_c, 6, 73, 96
8, 101376, Note_on_c, 6, 81, 96
8, 101376, Note_off_c, 6, 76, 0
8, 101376, Note_on_c, 6, 78, 96
8, 101376, Note_off_c, 6, 73, 0
8, 101376, Note_on_c, 6, 74, 96
8, 101888, Note_off_c, 6, 78, 0
8, 101888, Note_off_c, 6, 74, 0
8, 102400, Note_off_c, 6, 81, 0
8, 102400, Note_on_c, 6, 83, 96
8, 103424, Note_off_c, 6, 83, 0
8, 103424, Note_on_c, 6, 81, 96
8, 104448, Note_off_c, 6, 81, 0
8, 104448, Note_on_c, 6, 83, 96
8, 105472, Note_off_c, 6, 83, 0
8, 105472, Note_on_c, 6, 85, 96
8, 105984, Note_on_c, 6, 70, 96
8, 105984, Note_on_c, 6, 66, 96
8, 106496, Note_off_c, 6, 85, 0
8, 106496, Note_off_c, 6, 70, 0
8, 106496, Note_off_c, 6, 66, 0
8, 106496, Note_on_c, 6, 86, 96
8, 106496, Note_on_c, 6, 71, 96
8, 106496, Note_on_c, 6, 62, 96
8, 106752, Note_off_c, 6, 71, 0
8, 106752, Note_on_c, 6, 73, 96
8, 106752, Note_off_c, 6, 62, 0
8, 106752, Note_on_c, 6, 64, 96
8, 107008, Note_off_c, 6, 73, 0
8, 107008, Note_on_c, 6, 74, 96
8, 107008, Note_off_c, 6, 64, 0
8, 107008, Note_on_c, 6, 66, 96
8, 107520, Note_off_c, 6, 74, 0
8, 107520, Note_on_c, 6, 74, 96
8, 107520, Note_off_c, 6, 66, 0
8, 107520, Note_on_c, 6, 66, 96
8, 108032, Note_off_c, 6, 74, 0
8, 108032, Note_on_c, 6, 73, 96
8, 108032, Note_off_c, 6, 66, 0
8, 108032, Note_on_c, 6, 64, 96
8, 108544, Note_off_c, 6, 86, 0
8, 108544, Note_off_c, 6, 73, 0
8, 108544, Note_on_c, 6, 71, 96
8, 108544, Note_off_c, 6, 64, 0
8, 108544, Note_on_c, 6, 62, 96
8, 109056, Note_off_c, 6, 71, 0
8, 109056, Note_on_c, 6, 66, 96
8, 109056, Note_off_c, 6, 62, 0
8, 109056, Note_on_c, 6, 62, 96
8, 109568, Note_on_c, 6, 81, 96
8, 109568, Note_off_c, 6, 66, 0
8, 109568, Note_on_c, 6, 66, 96
8, 109568, Note_off_c, 6, 62, 0
8, 109568, Note_on_c, 6, 62, 96
8, 110080, Note_off_c, 6, 66, 0
8, 110080, Note_off_c, 6, 62, 0
8, 110592, Note_off_c, 6, 81, 0
8, 110592, Note_on_c, 6, 83, 96
8, 111104, Note_off_c, 6, 83, 0
8, 111104, Note_on_c, 6, 81, 96
8, 111616, Note_off_c, 6, 81, 0
8, 111616, Note_on_c, 6, 79, 96
8, 112128, Note_off_c, 6, 79, 0
8, 112128, Note_on_c, 6, 78, 96
8, 112640, Note_off_c, 6, 78, 0
8, 112640, Note_on_c, 6, 76, 96
8, 113152, Note_off_c, 6, 76, 0
8, 113152, Note_on_c, 6, 78, 96
8, 113408, Note_off_c, 6, 78, 0
8, 113408, Note_on_c, 6, 79, 96
8, 113664, Note_off_c, 6, 79, 0
8, 113664, Note_on_c, 6, 76, 96
8, 114688, Note_off_c, 6, 76, 0
8, 114688, Note_on_c, 6, 74, 96
8, 116736, Note_off_c, 6, 74, 0
8, 116992, Note_on_c, 6, 74, 96
8, 116992, Note_on_c, 6, 69, 96
8, 117248, Note_off_c, 6, 74, 0
8, 117248, Note_on_c, 6, 78, 96
8, 117248, Note_off_c, 6, 69, 0
8, 117248, Note_on_c, 6, 74, 96
8, 117504, Note_off_c, 6, 78, 0
8, 117504, Note_on_c, 6, 81, 96
8, 117504, Note_off_c, 6, 74, 0
8, 117504, Note_on_c, 6, 78, 96
8, 117760, Note_off_c, 6, 81, 0
8, 117760, Note_on_c, 6, 86, 96
8, 117760, Note_off_c, 6, 78, 0
8, 117760, Note_on_c, 6, 81, 96
8, 118272, Note_off_c, 6, 86, 0
8, 118272, Note_off_c, 6, 81, 0
8, 121088, Note_on_c, 6, 74, 96
8, 121088, Note_on_c, 6, 69, 96
8, 121344, Note_off_c, 6, 74, 0
8, 121344, Note_on_c, 6, 78, 96
8, 121344, Note_off_c, 6, 69, 0
8, 121344, Note_on_c, 6, 74, 96
8, 121600, Note_off_c, 6, 78, 0
8, 121600, Note_on_c, 6, 81, 96
8, 121600, Note_off_c, 6, 74, 0
8, 121600, Note_on_c, 6, 78, 96
8, 121856, Note_off_c, 6, 81, 0
8, 121856, Note_on_c, 6, 86, 96
8, 121856, Note_off_c, 6, 78, 0
8, 121856, Note_on_c, 6, 81, 96
8, 122368, Note_off_c, 6, 86, 0
8, 122368, Note_on_c, 6, 81, 96
8, 122368, Note_off_c, 6, 81, 0
8, 122368, Note_on_c, 6, 78, 96
8, 122880, Note_off_c, 6, 81, 0
8, 122880, Note_off_c, 6, 78, 0
8, 122880, Note_on_c, 6, 81, 96
8, 122880, Note_on_c, 6, 78, 96
8, 123392, Note_off_c, 6, 81, 0
8, 123392, Note_on_c, 6, 83, 96
8, 123392, Note_off_c, 6, 78, 0
8, 123392, Note_on_c, 6, 79, 96
8, 123904, Note_off_c, 6, 83, 0
8, 123904, Note_on_c, 6, 83, 96
8, 123904, Note_off_c, 6, 79, 0
8, 123904, Note_on_c, 6, 79, 96
8, 124416, Note_off_c, 6, 83, 0
8, 124416, Note_on_c, 6, 81, 96
8, 124416, Note_off_c, 6, 79, 0
8, 124416, Note_on_c, 6, 78, 96
8, 124672, Note_off_c, 6, 81, 0
8, 124672, Note_on_c, 6, 79, 96
8, 124672, Note_off_c, 6, 78, 0
8, 124672, Note_on_c, 6, 76, 96
8, 124928, Note_off_c, 6, 79, 0
8, 124928, Note_on_c, 6, 81, 96
8, 124928, Note_off_c, 6, 76, 0
8, 124928, Note_on_c, 6, 78, 96
8, 125440, Note_off_c, 6, 81, 0
8, 125440, Note_on_c, 6, 79, 96
8, 125440, Note_off_c, 6, 78, 0
8, 125440, Note_on_c, 6, 76, 96
8, 125696, Note_off_c, 6, 79, 0
8, 125696, Note_on_c, 6, 78, 96
8, 125696, Note_off_c, 6, 76, 0
8, 125696, Note_on_c, 6, 74, 96
8, 125952, Note_off_c, 6, 78, 0
8, 125952, Note_on_c, 6, 79, 96
8, 125952, Note_off_c, 6, 74, 0
8, 125952, Note_on_c, 6, 76, 96
8, 126464, Note_off_c, 6, 79, 0
8, 126464, Note_on_c, 6, 78, 96
8, 126464, Note_off_c, 6, 76, 0
8, 126464, Note_on_c, 6, 74, 96
8, 126720, Note_off_c, 6, 78, 0
8, 126720, Note_on_c, 6, 76, 96
8, 126720, Note_off_c, 6, 74, 0
8, 126720, Note_on_c, 6, 73, 96
8, 126976, Note_off_c, 6, 76, 0
8, 126976, Note_off_c, 6, 73, 0
8, 126976, Note_on_c, 6, 78, 96
8, 126976, Note_on_c, 6, 74, 96
8, 127232, Note_off_c, 6, 78, 0
8, 127232, Note_on_c, 6, 79, 96
8, 127232, Note_off_c, 6, 74, 0
8, 127232, Note_on_c, 6, 76, 96
8, 127488, Note_off_c, 6, 79, 0
8, 127488, Note_on_c, 6, 81, 96
8, 127488, Note_off_c, 6, 76, 0
8, 127488, Note_on_c, 6, 78, 96
8, 128000, Note_off_c, 6, 81, 0
8, 128000, Note_on_c, 6, 81, 96
8, 128000, Note_off_c, 6, 78, 0
8, 128000, Note_on_c, 6, 78, 96
8, 128512, Note_off_c, 6, 81, 0
8, 128512, Note_on_c, 6, 79, 96
8, 128512, Note_off_c, 6, 78, 0
8, 128512, Note_on_c, 6, 76, 96
8, 128768, Note_off_c, 6, 79, 0
8, 128768, Note_on_c, 6, 78, 96
8, 128768, Note_off_c, 6, 76, 0
8, 128768, Note_on_c, 6, 74, 96
8, 129024, Note_off_c, 6, 78, 0
8, 129024, Note_on_c, 6, 79, 96
8, 129024, Note_off_c, 6, 74, 0
8, 129024, Note_on_c, 6, 76, 96
8, 129536, Note_off_c, 6, 79, 0
8, 129536, Note_on_c, 6, 78, 96
8, 129536, Note_off_c, 6, 76, 0
8, 129536, Note_on_c, 6, 74, 96
8, 129792, Note_off_c, 6, 78, 0
8, 129792, Note_on_c, 6, 76, 96
8, 129792, Note_off_c, 6, 74, 0
8, 129792, Note_on_c, 6, 73, 96
8, 130048, Note_off_c, 6, 76, 0
8, 130048, Note_on_c, 6, 78, 96
8, 130048, Note_off_c, 6, 73, 0
8, 130048, Note_on_c, 6, 74, 96
8, 130560, Note_off_c, 6, 78, 0
8, 130560, Note_on_c, 6, 76, 96
8, 130560, Note_off_c, 6, 74, 0
8, 130560, Note_on_c, 6, 73, 96
8, 130816, Note_off_c, 6, 76, 0
8, 130816, Note_on_c, 6, 74, 96
8, 130816, Note_off_c, 6, 73, 0
8, 130816, Note_on_c, 6, 71, 96
8, 131072, Note_off_c, 6, 74, 0
8, 131072, Note_off_c, 6, 71, 0
8, 131072, Note_on_c, 6, 76, 96
8, 131072, Note_on_c, 6, 73, 96
8, 131328, Note_off_c, 6, 76, 0
8, 131328, Note_on_c, 6, 78, 96
8, 131328, Note_off_c, 6, 73, 0
8, 131328, Note_on_c, 6, 74, 96
8, 131584, Note_off_c, 6, 78, 0
8, 131584, Note_on_c, 6, 79, 96
8, 131584, Note_off_c, 6, 74, 0
8, 131584, Note_on_c, 6, 76, 96
8, 132096, Note_off_c, 6, 79, 0
8, 132096, Note_on_c, 6, 79, 96
8, 132096, Note_off_c, 6, 76, 0
8, 132096, Note_on_c, 6, 76, 96
8, 132608, Note_off_c, 6, 79, 0
8, 132608, Note_on_c, 6, 78, 96
8, 132608, Note_off_c, 6, 76, 0
8, 132608, Note_on_c, 6, 74, 96
8, 132864, Note_off_c, 6, 78, 0
8, 132864, Note_on_c, 6, 76, 96
8, 132864, Note_off_c, 6, 74, 0
8, 132864, Note_on_c, 6, 73, 96
8, 133120, Note_off_c, 6, 76, 0
8, 133120, Note_on_c, 6, 78, 96
8, 133120, Note_off_c, 6, 73, 0
8, 133120, Note_on_c, 6, 74, 96
8, 133632, Note_off_c, 6, 78, 0
8, 133632, Note_on_c, 6, 76, 96
8, 133632, Note_off_c, 6, 74, 0
8, 133632, Note_on_c, 6, 69, 96
8, 133888, Note_off_c, 6, 76, 0
8, 133888, Note_on_c, 6, 74, 96
8, 134144, Note_off_c, 6, 74, 0
8, 134144, Note_on_c, 6, 81, 96
8, 134144, Note_off_c, 6, 69, 0
8, 134144, Note_on_c, 6, 76, 96
8, 134656, Note_off_c, 6, 81, 0
8, 134656, Note_on_c, 6, 79, 96
8, 134656, Note_off_c, 6, 76, 0
8, 134656, Note_on_c, 6, 69, 96
8, 135168, Note_off_c, 6, 79, 0
8, 135168, Note_off_c, 6, 69, 0
8, 135168, Note_on_c, 6, 78, 96
8, 135168, Note_on_c, 6, 74, 96
8, 135680, Note_off_c, 6, 78, 0
8, 135680, Note_on_c, 6, 76, 96
8, 135680, Note_off_c, 6, 74, 0
8, 135680, Note_on_c, 6, 74, 96
8, 135936, Note_off_c, 6, 76, 0
8, 135936, Note_on_c, 6, 78, 96
8, 136192, Note_off_c, 6, 78, 0
8, 136192, Note_on_c, 6, 79, 96
8, 136192, Note_off_c, 6, 74, 0
8, 136192, Note_on_c, 6, 74, 96
8, 136704, Note_off_c, 6, 79, 0
8, 136704, Note_on_c, 6, 78, 96
8, 136704, Note_off_c, 6, 74, 0
8, 136704, Note_on_c, 6, 73, 96
8, 136960, Note_off_c, 6, 78, 0
8, 136960, Note_on_c, 6, 76, 96
8, 137216, Note_off_c, 6, 76, 0
8, 137216, Note_on_c, 6, 74, 96
8, 137216, Note_off_c, 6, 73, 0
8, 137216, Note_on_c, 6, 69, 96
8, 141312, Note_off_c, 6, 74, 0
8, 141312, Note_off_c, 6, 69, 0
8, 141312, End_track
9, 0, Start_track
9, 0, Title_t, "Instrument 8"
9, 6400, Note_on_c, 7, 74, 96
9, 6400, Note_on_c, 7, 69, 96
9, 6400, Note_on_c, 7, 66, 96
9, 6656, Note_off_c, 7, 74, 0
9, 6656, Note_on_c, 7, 78, 96
9, 6656, Note_off_c, 7, 69, 0
9, 6656, Note_on_c, 7, 74, 96
9, 6656, Note_off_c, 7, 66, 0
9, 6656, Note_on_c, 7, 69, 96
9, 6912, Note_off_c, 7, 78, 0
9, 6912, Note_on_c, 7, 81, 96
9, 6912, Note_off_c, 7, 74, 0
9, 6912, Note_on_c, 7, 78, 96
9, 6912, Note_off_c, 7, 69, 0
9, 6912, Note_on_c, 7, 74, 96
9, 7168, Note_off_c, 7, 81, 0
9, 7168, Note_on_c, 7, 86, 96
9, 7168, Note_off_c, 7, 78, 0
9, 7168, Note_on_c, 7, 81, 96
9, 7168, Note_off_c, 7, 74, 0
9, 7168, Note_on_c, 7, 66, 96
9, 7680, Note_off_c, 7, 86, 0
9, 7680, Note_off_c, 7, 81, 0
9, 7680, Note_off_c, 7, 66, 0
9, 10496, Note_on_c, 7, 74, 96
9, 10496, Note_on_c, 7, 69, 96
9, 10496, Note_on_c, 7, 66, 96
9, 10752, Note_off_c, 7, 74, 0
9, 10752, Note_on_c, 7, 78, 96
9, 10752, Note_off_c, 7, 69, 0
9, 10752, Note_on_c, 7, 74, 96
9, 10752, Note_off_c, 7, 66, 0
9, 10752, Note_on_c, 7, 69, 96
9, 11008, Note_off_c, 7, 78, 0
9, 11008, Note_on_c, 7, 81, 96
9, 11008, Note_off_c, 7, 74, 0
9, 11008, Note_on_c, 7, 78, 96
9, 11008, Note_off_c, 7, 69, 0
9, 11008, Note_on_c, 7, 74, 96
9, 11264, Note_off_c, 7, 81, 0
9, 11264, Note_on_c, 7, 86, 96
9, 11264, Note_off_c, 7, 78, 0
9, 11264, Note_on_c, 7, 81, 96
9, 11264, Note_off_c, 7, 74, 0
9, 11264, Note_on_c, 7, 66, 96
9, 11776, Note_off_c, 7, 86, 0
9, 11776, Note_on_c, 7, 74, 96
9, 11776, Note_off_c, 7, 81, 0
9, 11776, Note_on_c, 7, 69, 96
9, 11776, Note_off_c, 7, 66, 0
9, 11776, Note_on_c, 7, 66, 96
9, 12288, Note_off_c, 7, 74, 0
9, 12288, Note_off_c, 7, 69, 0
9, 12288, Note_off_c, 7, 66, 0
9, 12288, Note_on_c, 7, 74, 96
9, 12288, Note_on_c, 7, 69, 96
9, 12288, Note_on_c, 7, 66, 96
9, 12800, Note_off_c, 7, 74, 0
9, 12800, Note_on_c, 7, 73, 96
9, 12800, Note_off_c, 7, 69, 0
9, 12800, Note_on_c, 7, 67, 96
9, 12800, Note_off_c, 7, 66, 0
9, 12800, Note_on_c, 7, 64, 96
9, 13312, Note_off_c, 7, 73, 0
9, 13312, Note_on_c, 7, 73, 96
9, 13312, Note_off_c, 7, 67, 0
9, 13312, Note_on_c, 7, 67, 96
9, 13312, Note_off_c, 7, 64, 0
9, 13312, Note_on_c, 7, 64, 96
9, 13824, Note_off_c, 7, 73, 0
9, 13824, Note_on_c, 7, 74, 96
9, 13824, Note_off_c, 7, 67, 0
9, 13824, Note_on_c, 7, 69, 96
9, 13824, Note_off_c, 7, 64, 0
9, 13824, Note_on_c, 7, 66, 96
9, 14336, Note_off_c, 7, 74, 0
9, 14336, Note_on_c, 7, 74, 96
9, 14336, Note_off_c, 7, 69, 0
9, 14336, Note_on_c, 7, 69, 96
9, 14336, Note_off_c, 7, 66, 0
9, 14336, Note_on_c, 7, 66, 96
9, 14848, Note_off_c, 7, 74, 0
9, 14848, Note_on_c, 7, 76, 96
9, 14848, Note_off_c, 7, 69, 0
9, 14848, Note_on_c, 7, 73, 96
9, 14848, Note_off_c, 7, 66, 0
9, 14848, Note_on_c, 7, 67, 96
9, 15360, Note_off_c, 7, 76, 0
9, 15360, Note_on_c, 7, 76, 96
9, 15360, Note_off_c, 7, 73, 0
9, 15360, Note_on_c, 7, 73, 96
9, 15360, Note_off_c, 7, 67, 0
9, 15360, Note_on_c, 7, 67, 96
9, 15872, Note_off_c, 7, 76, 0
9, 15872, Note_on_c, 7, 78, 96
9, 15872, Note_off_c, 7, 73, 0
9, 15872, Note_on_c, 7, 74, 96
9, 15872, Note_off_c, 7, 67, 0
9, 15872, Note_on_c, 7, 69, 96
9, 16128, Note_off_c, 7, 78, 0
9, 16128, Note_on_c, 7, 79, 96
9, 16128, Note_off_c, 7, 74, 0
9, 16128, Note_on_c, 7, 76, 96
9, 16384, Note_off_c, 7, 79, 0
9, 16384, Note_off_c, 7, 76, 0
9, 16384, Note_off_c, 7, 69, 0
9, 16384, Note_on_c, 7, 78, 96
9, 16384, Note_on_c, 7, 74, 96
9, 16384, Note_on_c, 7, 69, 96
9, 16896, Note_off_c, 7, 78, 0
9, 16896, Note_on_c, 7, 74, 96
9, 16896, Note_off_c, 7, 74, 0
9, 16896, Note_on_c, 7, 69, 96
9, 16896, Note_off_c, 7, 69, 0
9, 16896, Note_on_c, 7, 66, 96
9, 17408, Note_off_c, 7, 74, 0
9, 17408, Note_on_c, 7, 74, 96
9, 17408, Note_off_c, 7, 69, 0
9, 17408, Note_on_c, 7, 69, 96
9, 17408, Note_off_c, 7, 66, 0
9, 17408, Note_on_c, 7, 66, 96
9, 17920, Note_off_c, 7, 74, 0
9, 17920, Note_on_c, 7, 76, 96
9, 17920, Note_off_c, 7, 69, 0
9, 17920, Note_on_c, 7, 73, 96
9, 17920, Note_off_c, 7, 66, 0
9, 17920, Note_on_c, 7, 67, 96
9, 18432, Note_off_c, 7, 76, 0
9, 18432, Note_on_c, 7, 76, 96
9, 18432, Note_off_c, 7, 73, 0
9, 18432, Note_on_c, 7, 73, 96
9, 18432, Note_off_c, 7, 67, 0
9, 18432, Note_on_c, 7, 67, 96
9, 18944, Note_off_c, 7, 76, 0
9, 18944, Note_on_c, 7, 78, 96
9, 18944, Note_off_c, 7, 73, 0
9, 18944, Note_on_c, 7, 74, 96
9, 18944, Note_off_c, 7, 67, 0
9, 18944, Note_on_c, 7, 69, 96
9, 19456, Note_off_c, 7, 78, 0
9, 19456, Note_on_c, 7, 78, 96
9, 19456, Note_off_c, 7, 74, 0
9, 19456, Note_on_c, 7, 74, 96
9, 19456, Note_off_c, 7, 69, 0
9, 19456, Note_on_c, 7, 69, 96
9, 19968, Note_off_c, 7, 78, 0
9, 19968, Note_on_c, 7, 79, 96
9, 19968, Note_off_c, 7, 74, 0
9, 19968, Note_on_c, 7, 76, 96
9, 19968, Note_off_c, 7, 69, 0
9, 19968, Note_on_c, 7, 69, 96
9, 20224, Note_off_c, 7, 79, 0
9, 20224, Note_on_c, 7, 81, 96
9, 20224, Note_off_c, 7, 76, 0
9, 20224, Note_on_c, 7, 78, 96
9, 20480, Note_off_c, 7, 81, 0
9, 20480, Note_off_c, 7, 78, 0
9, 20480, Note_off_c, 7, 69, 0
9, 20480, Note_on_c, 7, 79, 96
9, 20480, Note_on_c, 7, 76, 96
9, 20480, Note_on_c, 7, 69, 96
9, 20992, Note_off_c, 7, 79, 0
9, 20992, Note_on_c, 7, 76, 96
9, 20992, Note_off_c, 7, 76, 0
9, 20992, Note_on_c, 7, 73, 96
9, 20992, Note_off_c, 7, 69, 0
9, 20992, Note_on_c, 7, 69, 96
9, 21504, Note_off_c, 7, 76, 0
9, 21504, Note_on_c, 7, 76, 96
9, 21504, Note_off_c, 7, 73, 0
9, 21504, Note_on_c, 7, 73, 96
9, 21504, Note_off_c, 7, 69, 0
9, 21504, Note_on_c, 7, 69, 96
9, 22016, Note_off_c, 7, 76, 0
9, 22016, Note_on_c, 7, 78, 96
9, 22016, Note_off_c, 7, 73, 0
9, 22016, Note_on_c, 7, 74, 96
9, 22016, Note_off_c, 7, 69, 0
9, 22016, Note_on_c, 7, 69, 96
9, 22272, Note_off_c, 7, 78, 0
9, 22272, Note_on_c, 7, 79, 96
9, 22272, Note_off_c, 7, 74, 0
9, 22272, Note_on_c, 7, 76, 96
9, 22528, Note_off_c, 7, 79, 0
9, 22528, Note_on_c, 7, 78, 96
9, 22528, Note_off_c, 7, 76, 0
9, 22528, Note_on_c, 7, 74, 96
9, 22528, Note_off_c, 7, 69, 0
9, 22528, Note_on_c, 7, 69, 96
9, 23040, Note_off_c, 7, 78, 0
9, 23040, Note_on_c, 7, 76, 96
9, 23040, Note_off_c, 7, 74, 0
9, 23040, Note_on_c, 7, 69, 96
9, 23040, Note_off_c, 7, 69, 0
9, 23040, Note_on_c, 7, 69, 96
9, 23296, Note_off_c, 7, 76, 0
9, 23296, Note_on_c, 7, 74, 96
9, 23552, Note_off_c, 7, 74, 0
9, 23552, Note_on_c, 7, 76, 96
9, 23552, Note_off_c, 7, 69, 0
9, 23552, Note_on_c, 7, 73, 96
9, 23552, Note_off_c, 7, 69, 0
9, 23552, Note_on_c, 7, 69, 96
9, 24064, Note_off_c, 7, 76, 0
9, 24064, Note_on_c, 7, 69, 96
9, 24064, Note_off_c, 7, 73, 0
9, 24064, Note_on_c, 7, 76, 96
9, 24064, Note_off_c, 7, 69, 0
9, 24064, Note_on_c, 7, 73, 96
9, 24576, Note_off_c, 7, 69, 0
9, 24576, Note_off_c, 7, 76, 0
9, 24576, Note_off_c, 7, 73, 0
9, 24576, Note_on_c, 7, 74, 96
9, 24576, Note_on_c, 7, 69, 96
9, 24576, Note_on_c, 7, 74, 96
9, 24832, Note_off_c, 7, 74, 0
9, 24832, Note_on_c, 7, 76, 96
9, 25088, Note_off_c, 7, 76, 0
9, 25088, Note_on_c, 7, 78, 96
9, 25088, Note_off_c, 7, 69, 0
9, 25088, Note_on_c, 7, 74, 96
9, 25088, Note_off_c, 7, 74, 0
9, 25088, Note_on_c, 7, 71, 96
9, 25344, Note_off_c, 7, 78, 0
9, 25344, Note_on_c, 7, 79, 96
9, 25344, Note_off_c, 7, 74, 0
9, 25344, Note_on_c, 7, 76, 96
9, 25600, Note_off_c, 7, 79, 0
9, 25600, Note_on_c, 7, 81, 96
9, 25600, Note_off_c, 7, 76, 0
9, 25600, Note_on_c, 7, 78, 96
9, 25600, Note_off_c, 7, 71, 0
9, 25600, Note_on_c, 7, 69, 96
9, 26112, Note_off_c, 7, 81, 0
9, 26112, Note_on_c, 7, 79, 96
9, 26112, Note_off_c, 7, 78, 0
9, 26112, Note_on_c, 7, 76, 96
9, 26112, Note_off_c, 7, 69, 0
9, 26112, Note_on_c, 7, 71, 96
9, 26368, Note_off_c, 7, 79, 0
9, 26368, Note_on_c, 7, 78, 96
9, 26368, Note_off_c, 7, 76, 0
9, 26368, Note_on_c, 7, 74, 96
9, 26624, Note_off_c, 7, 78, 0
9, 26624, Note_on_c, 7, 76, 96
9, 26624, Note_off_c, 7, 74, 0
9, 26624, Note_on_c, 7, 73, 96
9, 26624, Note_off_c, 7, 71, 0
9, 26624, Note_on_c, 7, 64, 96
9, 27648, Note_off_c, 7, 76, 0
9, 27648, Note_off_c, 7, 73, 0
9, 27648, Note_off_c, 7, 64, 0
9, 47360, Note_on_c, 7, 74, 96
9, 47360, Note_on_c, 7, 69, 96
9, 47360, Note_on_c, 7, 66, 96
9, 47616, Note_off_c, 7, 74, 0
9, 47616, Note_on_c, 7, 78, 96
9, 47616, Note_off_c, 7, 69, 0
9, 47616, Note_on_c, 7, 74, 96
9, 47616, Note_off_c, 7, 66, 0
9, 47616, Note_on_c, 7, 69, 96
9, 47872, Note_off_c, 7, 78, 0
9, 47872, Note_on_c, 7, 81, 96
9, 47872, Note_off_c, 7, 74, 0
9, 47872, Note_on_c, 7, 78, 96
9, 47872, Note_off_c, 7, 69, 0
9, 47872, Note_on_c, 7, 74, 96
9, 48128, Note_off_c, 7, 81, 0
9, 48128, Note_on_c, 7, 86, 96
9, 48128, Note_off_c, 7, 78, 0
9, 48128, Note_on_c, 7, 81, 96
9, 48128, Note_off_c, 7, 74, 0
9, 48128, Note_on_c, 7, 66, 96
9, 48640, Note_off_c, 7, 86, 0
9, 48640, Note_off_c, 7, 81, 0
9, 48640, Note_off_c, 7, 66, 0
9, 51456, Note_on_c, 7, 74, 96
9, 51456, Note_on_c, 7, 69, 96
9, 51456, Note_on_c, 7, 66, 96
9, 51712, Note_off_c, 7, 74, 0
9, 51712, Note_on_c, 7, 78, 96
9, 51712, Note_off_c, 7, 69, 0
9, 51712, Note_on_c, 7, 74, 96
9, 51712, Note_off_c, 7, 66, 0
9, 51712, Note_on_c, 7, 69, 96
9, 51968, Note_off_c, 7, 78, 0
9, 51968, Note_on_c, 7, 81, 96
9, 51968, Note_off_c, 7, 74, 0
9, 51968, Note_on_c, 7, 78, 96
9, 51968, Note_off_c, 7, 69, 0
9, 51968, Note_on_c, 7, 74, 96
9, 52224, Note_off_c, 7, 81, 0
9, 52224, Note_on_c, 7, 86, 96
9, 52224, Note_off_c, 7, 78, 0
9, 52224, Note_on_c, 7, 81, 96
9, 52224, Note_off_c, 7, 74, 0
9, 52224, Note_on_c, 7, 66, 96
9, 53248, Note_off_c, 7, 86, 0
9, 53248, Note_off_c, 7, 81, 0
9, 53248, Note_off_c, 7, 66, 0
9, 59648, Note_on_c, 7, 69, 96
9, 59648, Note_on_c, 7, 66, 96
9, 59648, Note_on_c, 7, 62, 96
9, 59904, Note_off_c, 7, 69, 0
9, 59904, Note_on_c, 7, 74, 96
9, 59904, Note_off_c, 7, 66, 0
9, 59904, Note_on_c, 7, 69, 96
9, 59904, Note_off_c, 7, 62, 0
9, 59904, Note_on_c, 7, 66, 96
9, 60160, Note_off_c, 7, 74, 0
9, 60160, Note_on_c, 7, 78, 96
9, 60160, Note_off_c, 7, 69, 0
9, 60160, Note_on_c, 7, 74, 96
9, 60160, Note_off_c, 7, 66, 0
9, 60160, Note_on_c, 7, 69, 96
9, 60416, Note_off_c, 7, 78, 0
9, 60416, Note_on_c, 7, 81, 96
9, 60416, Note_off_c, 7, 74, 0
9, 60416, Note_on_c, 7, 69, 96
9, 60416, Note_off_c, 7, 69, 0
9, 60416, Note_on_c, 7, 64, 96
9, 60928, Note_off_c, 7, 81, 0
9, 60928, Note_off_c, 7, 69, 0
9, 60928, Note_off_c, 7, 64, 0
9, 63744, Note_on_c, 7, 69, 96
9, 63744, Note_on_c, 7, 66, 96
9, 63744, Note_on_c, 7, 62, 96
9, 64000, Note_off_c, 7, 69, 0
9, 64000, Note_on_c, 7, 74, 96
9, 64000, Note_off_c, 7, 66, 0
9, 64000, Note_on_c, 7, 69, 96
9, 64000, Note_off_c, 7, 62, 0
9, 64000, Note_on_c, 7, 66, 96
9, 64256, Note_off_c, 7, 74, 0
9, 64256, Note_on_c, 7, 78, 96
9, 64256, Note_off_c, 7, 69, 0
9, 64256, Note_on_c, 7, 74, 96
9, 64256, Note_off_c, 7, 66, 0
9, 64256, Note_on_c, 7, 69, 96
9, 64512, Note_off_c, 7, 78, 0
9, 64512, Note_on_c, 7, 81, 96
9, 64512, Note_off_c, 7, 74, 0
9, 64512, Note_on_c, 7, 69, 96
9, 64512, Note_off_c, 7, 69, 0
9, 64512, Note_on_c, 7, 64, 96
9, 65024, Note_off_c, 7, 81, 0
9, 65024, Note_off_c, 7, 69, 0
9, 65024, Note_off_c, 7, 64, 0
9, 67072, Note_on_c, 7, 68, 96
9, 67584, Note_off_c, 7, 68, 0
9, 67584, Note_on_c, 7, 69, 96
9, 67840, Note_off_c, 7, 69, 0
9, 67840, Note_on_c, 7, 71, 96
9, 68096, Note_off_c, 7, 71, 0
9, 68096, Note_on_c, 7, 73, 96
9, 68608, Note_off_c, 7, 73, 0
9, 68608, Note_on_c, 7, 73, 96
9, 69120, Note_off_c, 7, 73, 0
9, 69120, Note_on_c, 7, 71, 96
9, 69120, Note_on_c, 7, 64, 96
9, 69632, Note_off_c, 7, 71, 0
9, 69632, Note_off_c, 7, 64, 0
9, 69632, Note_on_c, 7, 73, 96
9, 69632, Note_on_c, 7, 69, 96
9, 69888, Note_off_c, 7, 73, 0
9, 69888, Note_on_c, 7, 74, 96
9, 69888, Note_off_c, 7, 69, 0
9, 69888, Note_on_c, 7, 71, 96
9, 70144, Note_off_c, 7, 74, 0
9, 70144, Note_on_c, 7, 76, 96
9, 70144, Note_off_c, 7, 71, 0
9, 70144, Note_on_c, 7, 73, 96
9, 70656, Note_off_c, 7, 76, 0
9, 70656, Note_on_c, 7, 76, 96
9, 70656, Note_off_c, 7, 73, 0
9, 70656, Note_on_c, 7, 73, 96
9, 71168, Note_off_c, 7, 76, 0
9, 71168, Note_on_c, 7, 74, 96
9, 71168, Note_off_c, 7, 73, 0
9, 71168, Note_on_c, 7, 71, 96
9, 71680, Note_off_c, 7, 74, 0
9, 71680, Note_on_c, 7, 73, 96
9, 71680, Note_off_c, 7, 71, 0
9, 71680, Note_on_c, 7, 69, 96
9, 72192, Note_off_c, 7, 73, 0
9, 72192, Note_on_c, 7, 69, 96
9, 72192, Note_off_c, 7, 69, 0
9, 72192, Note_on_c, 7, 64, 96
9, 72704, Note_off_c, 7, 69, 0
9, 72704, Note_on_c, 7, 69, 96
9, 72704, Note_off_c, 7, 64, 0
9, 72704, Note_on_c, 7, 64, 96
9, 72960, Note_off_c, 7, 69, 0
9, 72960, Note_on_c, 7, 71, 96
9, 73216, Note_off_c, 7, 71, 0
9, 73216, Note_on_c, 7, 73, 96
9, 73216, Note_off_c, 7, 64, 0
9, 73216, Note_on_c, 7, 69, 96
9, 73216, Note_on_c, 7, 64, 96
9, 73472, Note_off_c, 7, 73, 0
9, 73472, Note_on_c, 7, 74, 96
9, 73472, Note_off_c, 7, 69, 0
9, 73472, Note_on_c, 7, 71, 96
9, 73728, Note_off_c, 7, 74, 0
9, 73728, Note_off_c, 7, 71, 0
9, 73728, Note_off_c, 7, 64, 0
9, 73728, Note_on_c, 7, 76, 96
9, 73728, Note_on_c, 7, 73, 96
9, 73728, Note_on_c, 7, 69, 96
9, 73984, Note_off_c, 7, 73, 0
9, 73984, Note_on_c, 7, 74, 96
9, 73984, Note_off_c, 7, 69, 0
9, 73984, Note_on_c, 7, 71, 96
9, 74240, Note_off_c, 7, 76, 0
9, 74240, Note_on_c, 7, 81, 96
9, 74240, Note_off_c, 7, 74, 0
9, 74240, Note_on_c, 7, 76, 96
9, 74240, Note_off_c, 7, 71, 0
9, 74240, Note_on_c, 7, 73, 96
9, 74752, Note_off_c, 7, 81, 0
9, 74752, Note_on_c, 7, 81, 96
9, 74752, Note_off_c, 7, 76, 0
9, 74752, Note_on_c, 7, 76, 96
9, 74752, Note_off_c, 7, 73, 0
9, 74752, Note_on_c, 7, 73, 96
9, 75264, Note_off_c, 7, 81, 0
9, 75264, Note_on_c, 7, 80, 96
9, 75264, Note_off_c, 7, 76, 0
9, 75264, Note_on_c, 7, 74, 96
9, 75264, Note_off_c, 7, 73, 0
9, 75264, Note_on_c, 7, 71, 96
9, 75776, Note_off_c, 7, 80, 0
9, 75776, Note_on_c, 7, 81, 96
9, 75776, Note_off_c, 7, 74, 0
9, 75776, Note_on_c, 7, 73, 96
9, 75776, Note_off_c, 7, 71, 0
9, 75776, Note_on_c, 7, 69, 96
9, 76288, Note_off_c, 7, 81, 0
9, 76288, Note_on_c, 7, 73, 96
9, 76288, Note_off_c, 7, 73, 0
9, 76288, Note_on_c, 7, 69, 96
9, 76288, Note_off_c, 7, 69, 0
9, 76288, Note_on_c, 7, 64, 96
9, 76800, Note_off_c, 7, 73, 0
9, 76800, Note_on_c, 7, 73, 96
9, 76800, Note_off_c, 7, 69, 0
9, 76800, Note_on_c, 7, 69, 96
9, 76800, Note_off_c, 7, 64, 0
9, 76800, Note_on_c, 7, 64, 96
9, 77312, Note_off_c, 7, 64, 0
9, 77824, Note_off_c, 7, 73, 0
9, 77824, Note_off_c, 7, 69, 0
9, 84224, Note_on_c, 7, 67, 96
9, 84224, Note_on_c, 7, 62, 96
9, 84224, Note_on_c, 7, 59, 96
9, 84480, Note_off_c, 7, 67, 0
9, 84480, Note_on_c, 7, 71, 96
9, 84480, Note_off_c, 7, 62, 0
9, 84480, Note_on_c, 7, 67, 96
9, 84480, Note_off_c, 7, 59, 0
9, 84480, Note_on_c, 7, 62, 96
9, 84736, Note_off_c, 7, 71, 0
9, 84736, Note_on_c, 7, 74, 96
9, 84736, Note_off_c, 7, 67, 0
9, 84736, Note_on_c, 7, 71, 96
9, 84736, Note_off_c, 7, 62, 0
9, 84736, Note_on_c, 7, 67, 96
9, 84992, Note_off_c, 7, 74, 0
9, 84992, Note_on_c, 7, 79, 96
9, 84992, Note_off_c, 7, 71, 0
9, 84992, Note_on_c, 7, 74, 96
9, 84992, Note_off_c, 7, 67, 0
9, 84992, Note_on_c, 7, 71, 96
9, 85504, Note_off_c, 7, 79, 0
9, 85504, Note_off_c, 7, 74, 0
9, 85504, Note_off_c, 7, 71, 0
9, 89600, Note_on_c, 7, 68, 96
9, 89600, Note_on_c, 7, 64, 96
9, 89600, Note_on_c, 7, 59, 96
9, 90112, Note_off_c, 7, 68, 0
9, 90112, Note_off_c, 7, 64, 0
9, 90112, Note_off_c, 7, 59, 0
9, 90112, Note_on_c, 7, 69, 96
9, 90112, Note_on_c, 7, 64, 96
9, 90112, Note_on_c, 7, 61, 96
9, 90624, Note_off_c, 7, 69, 0
9, 90624, Note_on_c, 7, 68, 96
9, 90624, Note_off_c, 7, 64, 0
9, 90624, Note_on_c, 7, 62, 96
9, 90624, Note_off_c, 7, 61, 0
9, 90624, Note_on_c, 7, 59, 96
9, 91136, Note_off_c, 7, 68, 0
9, 91136, Note_on_c, 7, 68, 96
9, 91136, Note_off_c, 7, 62, 0
9, 91136, Note_on_c, 7, 62, 96
9, 91136, Note_off_c, 7, 59, 0
9, 91136, Note_on_c, 7, 59, 96
9, 91648, Note_off_c, 7, 68, 0
9, 91648, Note_on_c, 7, 69, 96
9, 91648, Note_off_c, 7, 62, 0
9, 91648, Note_on_c, 7, 64, 96
9, 91648, Note_off_c, 7, 59, 0
9, 91648, Note_on_c, 7, 61, 96
9, 92160, Note_off_c, 7, 69, 0
9, 92160, Note_on_c, 7, 69, 96
9, 92160, Note_off_c, 7, 64, 0
9, 92160, Note_on_c, 7, 64, 96
9, 92160, Note_off_c, 7, 61, 0
9, 92160, Note_on_c, 7, 61, 96
9, 92672, Note_off_c, 7, 69, 0
9, 92672, Note_on_c, 7, 71, 96
9, 92672, Note_off_c, 7, 64, 0
9, 92672, Note_on_c, 7, 68, 96
9, 92672, Note_off_c, 7, 61, 0
9, 92672, Note_on_c, 7, 62, 96
9, 93184, Note_off_c, 7, 71, 0
9, 93184, Note_on_c, 7, 71, 96
9, 93184, Note_off_c, 7, 68, 0
9, 93184, Note_on_c, 7, 68, 96
9, 93184, Note_off_c, 7, 62, 0
9, 93184, Note_on_c, 7, 62, 96
9, 93696, Note_off_c, 7, 71, 0
9, 93696, Note_on_c, 7, 73, 96
9, 93696, Note_off_c, 7, 68, 0
9, 93696, Note_on_c, 7, 69, 96
9, 93696, Note_off_c, 7, 62, 0
9, 93696, Note_on_c, 7, 64, 96
9, 93952, Note_off_c, 7, 73, 0
9, 93952, Note_on_c, 7, 74, 96
9, 93952, Note_off_c, 7, 69, 0
9, 93952, Note_on_c, 7, 71, 96
9, 94208, Note_off_c, 7, 74, 0
9, 94208, Note_off_c, 7, 71, 0
9, 94208, Note_off_c, 7, 64, 0
9, 94208, Note_on_c, 7, 73, 96
9, 94208, Note_on_c, 7, 69, 96
9, 94208, Note_on_c, 7, 64, 96
9, 94720, Note_off_c, 7, 73, 0
9, 94720, Note_on_c, 7, 73, 96
9, 94720, Note_off_c, 7, 69, 0
9, 94720, Note_on_c, 7, 67, 96
9, 94720, Note_off_c, 7, 64, 0
9, 94720, Note_on_c, 7, 64, 96
9, 95232, Note_off_c, 7, 73, 0
9, 95232, Note_on_c, 7, 73, 96
9, 95232, Note_off_c, 7, 67, 0
9, 95232, Note_on_c, 7, 67, 96
9, 95232, Note_off_c, 7, 64, 0
9, 95232, Note_on_c, 7, 64, 96
9, 95744, Note_off_c, 7, 73, 0
9, 95744, Note_on_c, 7, 74, 96
9, 95744, Note_off_c, 7, 67, 0
9, 95744, Note_on_c, 7, 69, 96
9, 95744, Note_off_c, 7, 64, 0
9, 95744, Note_on_c, 7, 66, 96
9, 96256, Note_off_c, 7, 74, 0
9, 96256, Note_on_c, 7, 74, 96
9, 96256, Note_off_c, 7, 69, 0
9, 96256, Note_on_c, 7, 69, 96
9, 96256, Note_off_c, 7, 66, 0
9, 96256, Note_on_c, 7, 66, 96
9, 96768, Note_off_c, 7, 74, 0
9, 96768, Note_on_c, 7, 76, 96
9, 96768, Note_off_c, 7, 69, 0
9, 96768, Note_on_c, 7, 73, 96
9, 96768, Note_off_c, 7, 66, 0
9, 96768, Note_on_c, 7, 67, 96
9, 97280, Note_off_c, 7, 76, 0
9, 97280, Note_on_c, 7, 76, 96
9, 97280, Note_off_c, 7, 73, 0
9, 97280, Note_on_c, 7, 73, 96
9, 97280, Note_off_c, 7, 67, 0
9, 97280, Note_on_c, 7, 67, 96
9, 97792, Note_off_c, 7, 76, 0
9, 97792, Note_on_c, 7, 78, 96
9, 97792, Note_off_c, 7, 73, 0
9, 97792, Note_on_c, 7, 74, 96
9, 97792, Note_off_c, 7, 67, 0
9, 97792, Note_on_c, 7, 69, 96
9, 98048, Note_off_c, 7, 78, 0
9, 98048, Note_on_c, 7, 79, 96
9, 98048, Note_off_c, 7, 74, 0
9, 98048, Note_on_c, 7, 76, 96
9, 98304, Note_off_c, 7, 79, 0
9, 98304, Note_off_c, 7, 76, 0
9, 98304, Note_off_c, 7, 69, 0
9, 98304, Note_on_c, 7, 78, 96
9, 98304, Note_on_c, 7, 74, 96
9, 98304, Note_on_c, 7, 69, 96
9, 98816, Note_off_c, 7, 78, 0
9, 98816, Note_on_c, 7, 74, 96
9, 98816, Note_off_c, 7, 74, 0
9, 98816, Note_on_c, 7, 69, 96
9, 98816, Note_off_c, 7, 69, 0
9, 98816, Note_on_c, 7, 66, 96
9, 99328, Note_off_c, 7, 74, 0
9, 99328, Note_on_c, 7, 74, 96
9, 99328, Note_off_c, 7, 69, 0
9, 99328, Note_on_c, 7, 69, 96
9, 99328, Note_off_c, 7, 66, 0
9, 99328, Note_on_c, 7, 66, 96
9, 99840, Note_off_c, 7, 74, 0
9, 99840, Note_on_c, 7, 76, 96
9, 99840, Note_off_c, 7, 69, 0
9, 99840, Note_on_c, 7, 73, 96
9, 99840, Note_off_c, 7, 66, 0
9, 99840, Note_on_c, 7, 67, 96
9, 100352, Note_off_c, 7, 76, 0
9, 100352, Note_on_c, 7, 76, 96
9, 100352, Note_off_c, 7, 73, 0
9, 100352, Note_on_c, 7, 73, 96
9, 100352, Note_off_c, 7, 67, 0
9, 100352, Note_on_c, 7, 67, 96
9, 100864, Note_off_c, 7, 76, 0
9, 100864, Note_on_c, 7, 78, 96
9, 100864, Note_off_c, 7, 73, 0
9, 100864, Note_on_c, 7, 74, 96
9, 100864, Note_off_c, 7, 67, 0
9, 100864, Note_on_c, 7, 69, 96
9, 101120, Note_off_c, 7, 78, 0
9, 101120, Note_on_c, 7, 79, 96
9, 101120, Note_off_c, 7, 74, 0
9, 101120, Note_on_c, 7, 76, 96
9, 101376, Note_off_c, 7, 79, 0
9, 101376, Note_on_c, 7, 78, 96
9, 101376, Note_off_c, 7, 76, 0
9, 101376, Note_on_c, 7, 74, 96
9, 101376, Note_off_c, 7, 69, 0
9, 101376, Note_on_c, 7, 69, 96
9, 101888, Note_off_c, 7, 78, 0
9, 102400, Note_off_c, 7, 74, 0
9, 102400, Note_off_c, 7, 69, 0
9, 116992, Note_on_c, 7, 74, 96
9, 116992, Note_on_c, 7, 69, 96
9, 116992, Note_on_c, 7, 66, 96
9, 117248, Note_off_c, 7, 74, 0
9, 117248, Note_on_c, 7, 78, 96
9, 117248, Note_off_c, 7, 69, 0
9, 117248, Note_on_c, 7, 74, 96
9, 117248, Note_off_c, 7, 66, 0
9, 117248, Note_on_c, 7, 69, 96
9, 117504, Note_off_c, 7, 78, 0
9, 117504, Note_on_c, 7, 81, 96
9, 117504, Note_off_c, 7, 74, 0
9, 117504, Note_on_c, 7, 78, 96
9, 117504, Note_off_c, 7, 69, 0
9, 117504, Note_on_c, 7, 74, 96
9, 117760, Note_off_c, 7, 81, 0
9, 117760, Note_on_c, 7, 86, 96
9, 117760, Note_off_c, 7, 78, 0
9, 117760, Note_on_c, 7, 81, 96
9, 117760, Note_off_c, 7, 74, 0
9, 117760, Note_on_c, 7, 66, 96
9, 118272, Note_off_c, 7, 86, 0
9, 118272, Note_off_c, 7, 81, 0
9, 118272, Note_off_c, 7, 66, 0
9, 121088, Note_on_c, 7, 74, 96
9, 121088, Note_on_c, 7, 69, 96
9, 121088, Note_on_c, 7, 66, 96
9, 121344, Note_off_c, 7, 74, 0
9, 121344, Note_on_c, 7, 78, 96
9, 121344, Note_off_c, 7, 69, 0
9, 121344, Note_on_c, 7, 74, 96
9, 121344, Note_off_c, 7, 66, 0
9, 121344, Note_on_c, 7, 69, 96
9, 121600, Note_off_c, 7, 78, 0
9, 121600, Note_on_c, 7, 81, 96
9, 121600, Note_off_c, 7, 74, 0
9, 121600, Note_on_c, 7, 78, 96
9, 121600, Note_off_c, 7, 69, 0
9, 121600, Note_on_c, 7, 74, 96
9, 121856, Note_off_c, 7, 81, 0
9, 121856, Note_on_c, 7, 86, 96
9, 121856, Note_off_c, 7, 78, 0
9, 121856, Note_on_c, 7, 81, 96
9, 121856, Note_off_c, 7, 74, 0
9, 121856, Note_on_c, 7, 66, 96
9, 122368, Note_off_c, 7, 86, 0
9, 122368, Note_on_c, 7, 74, 96
9, 122368, Note_off_c, 7, 81, 0
9, 122368, Note_on_c, 7, 69, 96
9, 122368, Note_off_c, 7, 66, 0
9, 122368, Note_on_c, 7, 66, 96
9, 122880, Note_off_c, 7, 74, 0
9, 122880, Note_off_c, 7, 69, 0
9, 122880, Note_off_c, 7, 66, 0
9, 122880, Note_on_c, 7, 74, 96
9, 122880, Note_on_c, 7, 69, 96
9, 122880, Note_on_c, 7, 66, 96
9, 123392, Note_off_c, 7, 74, 0
9, 123392, Note_on_c, 7, 73, 96
9, 123392, Note_off_c, 7, 69, 0
9, 123392, Note_on_c, 7, 67, 96
9, 123392, Note_off_c, 7, 66, 0
9, 123392, Note_on_c, 7, 64, 96
9, 123904, Note_off_c, 7, 73, 0
9, 123904, Note_on_c, 7, 73, 96
9, 123904, Note_off_c, 7, 67, 0
9, 123904, Note_on_c, 7, 67, 96
9, 123904, Note_off_c, 7, 64, 0
9, 123904, Note_on_c, 7, 64, 96
9, 124416, Note_off_c, 7, 73, 0
9, 124416, Note_on_c, 7, 74, 96
9, 124416, Note_off_c, 7, 67, 0
9, 124416, Note_on_c, 7, 69, 96
9, 124416, Note_off_c, 7, 64, 0
9, 124416, Note_on_c, 7, 66, 96
9, 124928, Note_off_c, 7, 74, 0
9, 124928, Note_on_c, 7, 74, 96
9, 124928, Note_off_c, 7, 69, 0
9, 124928, Note_on_c, 7, 69, 96
9, 124928, Note_off_c, 7, 66, 0
9, 124928, Note_on_c, 7, 66, 96
9, 125440, Note_off_c, 7, 74, 0
9, 125440, Note_on_c, 7, 76, 96
9, 125440, Note_off_c, 7, 69, 0
9, 125440, Note_on_c, 7, 73, 96
9, 125440, Note_off_c, 7, 66, 0
9, 125440, Note_on_c, 7, 67, 96
9, 125952, Note_off_c, 7, 76, 0
9, 125952, Note_on_c, 7, 76, 96
9, 125952, Note_off_c, 7, 73, 0
9, 125952, Note_on_c, 7, 73, 96
9, 125952, Note_off_c, 7, 67, 0
9, 125952, Note_on_c, 7, 67, 96
9, 126464, Note_off_c, 7, 76, 0
9, 126464, Note_on_c, 7, 78, 96
9, 126464, Note_off_c, 7, 73, 0
9, 126464, Note_on_c, 7, 74, 96
9, 126464, Note_off_c, 7, 67, 0
9, 126464, Note_on_c, 7, 69, 96
9, 126720, Note_off_c, 7, 78, 0
9, 126720, Note_on_c, 7, 79, 96
9, 126720, Note_off_c, 7, 74, 0
9, 126720, Note_on_c, 7, 76, 96
9, 126976, Note_off_c, 7, 79, 0
9, 126976, Note_off_c, 7, 76, 0
9, 126976, Note_off_c, 7, 69, 0
9, 126976, Note_on_c, 7, 78, 96
9, 126976, Note_on_c, 7, 74, 96
9, 126976, Note_on_c, 7, 69, 96
9, 127488, Note_off_c, 7, 78, 0
9, 127488, Note_on_c, 7, 74, 96
9, 127488, Note_off_c, 7, 74, 0
9, 127488, Note_on_c, 7, 69, 96
9, 127488, Note_off_c, 7, 69, 0
9, 127488, Note_on_c, 7, 66, 96
9, 128000, Note_off_c, 7, 74, 0
9, 128000, Note_on_c, 7, 74, 96
9, 128000, Note_off_c, 7, 69, 0
9, 128000, Note_on_c, 7, 69, 96
9, 128000, Note_off_c, 7, 66, 0
9, 128000, Note_on_c, 7, 66, 96
9, 128512, Note_off_c, 7, 74, 0
9, 128512, Note_on_c, 7, 76, 96
9, 128512, Note_off_c, 7, 69, 0
9, 128512, Note_on_c, 7, 73, 96
9, 128512, Note_off_c, 7, 66, 0
9, 128512, Note_on_c, 7, 67, 96
9, 129024, Note_off_c, 7, 76, 0
9, 129024, Note_on_c, 7, 76, 96
9, 129024, Note_off_c, 7, 73, 0
9, 129024, Note_on_c, 7, 73, 96
9, 129024, Note_off_c, 7, 67, 0
9, 129024, Note_on_c, 7, 67, 96
9, 129536, Note_off_c, 7, 76, 0
9, 129536, Note_on_c, 7, 78, 96
9, 129536, Note_off_c, 7, 73, 0
9, 129536, Note_on_c, 7, 74, 96
9, 129536, Note_off_c, 7, 67, 0
9, 129536, Note_on_c, 7, 69, 96
9, 130048, Note_off_c, 7, 78, 0
9, 130048, Note_on_c, 7, 78, 96
9, 130048, Note_off_c, 7, 74, 0
9, 130048, Note_on_c, 7, 74, 96
9, 130048, Note_off_c, 7, 69, 0
9, 130048, Note_on_c, 7, 69, 96
9, 130560, Note_off_c, 7, 78, 0
9, 130560, Note_on_c, 7, 79, 96
9, 130560, Note_off_c, 7, 74, 0
9, 130560, Note_on_c, 7, 76, 96
9, 130560, Note_off_c, 7, 69, 0
9, 130560, Note_on_c, 7, 69, 96
9, 130816, Note_off_c, 7, 79, 0
9, 130816, Note_on_c, 7, 81, 96
9, 130816, Note_off_c, 7, 76, 0
9, 130816, Note_on_c, 7, 78, 96
9, 131072, Note_off_c, 7, 81, 0
9, 131072, Note_off_c, 7, 78, 0
9, 131072, Note_off_c, 7, 69, 0
9, 131072, Note_on_c, 7, 79, 96
9, 131072, Note_on_c, 7, 76, 96
9, 131072, Note_on_c, 7, 69, 96
9, 131584, Note_off_c, 7, 79, 0
9, 131584, Note_on_c, 7, 76, 96
9, 131584, Note_off_c, 7, 76, 0
9, 131584, Note_on_c, 7, 73, 96
9, 131584, Note_off_c, 7, 69, 0
9, 131584, Note_on_c, 7, 69, 96
9, 132096, Note_off_c, 7, 76, 0
9, 132096, Note_on_c, 7, 76, 96
9, 132096, Note_off_c, 7, 73, 0
9, 132096, Note_on_c, 7, 73, 96
9, 132096, Note_off_c, 7, 69, 0
9, 132096, Note_on_c, 7, 69, 96
9, 132608, Note_off_c, 7, 76, 0
9, 132608, Note_on_c, 7, 78, 96
9, 132608, Note_off_c, 7, 73, 0
9, 132608, Note_on_c, 7, 74, 96
9, 132608, Note_off_c, 7, 69, 0
9, 132608, Note_on_c, 7, 69, 96
9, 132864, Note_off_c, 7, 78, 0
9, 132864, Note_on_c, 7, 79, 96
9, 132864, Note_off_c, 7, 74, 0
9, 132864, Note_on_c, 7, 76, 96
9, 133120, Note_off_c, 7, 79, 0
9, 133120, Note_on_c, 7, 78, 96
9, 133120, Note_off_c, 7, 76, 0
9, 133120, Note_on_c, 7, 74, 96
9, 133120, Note_off_c, 7, 69, 0
9, 133120, Note_on_c, 7, 69, 96
9, 133632, Note_off_c, 7, 78, 0
9, 133632, Note_on_c, 7, 76, 96
9, 133632, Note_off_c, 7, 74, 0
9, 133632, Note_on_c, 7, 69, 96
9, 133632, Note_off_c, 7, 69, 0
9, 133632, Note_on_c, 7, 69, 96
9, 133888, Note_off_c, 7, 76, 0
9, 133888, Note_on_c, 7, 74, 96
9, 134144, Note_off_c, 7, 74, 0
9, 134144, Note_on_c, 7, 81, 96
9, 134144, Note_off_c, 7, 69, 0
9, 134144, Note_on_c, 7, 76, 96
9, 134144, Note_off_c, 7, 69, 0
9, 134144, Note_on_c, 7, 69, 96
9, 134656, Note_off_c, 7, 81, 0
9, 134656, Note_on_c, 7, 79, 96
9, 134656, Note_off_c, 7, 76, 0
9, 134656, Note_on_c, 7, 73, 96
9, 134656, Note_off_c, 7, 69, 0
9, 134656, Note_on_c, 7, 69, 96
9, 135168, Note_off_c, 7, 79, 0
9, 135168, Note_off_c, 7, 73, 0
9, 135168, Note_off_c, 7, 69, 0
9, 135168, Note_on_c, 7, 78, 96
9, 135168, Note_on_c, 7, 74, 96
9, 135168, Note_on_c, 7, 69, 96
9, 135680, Note_off_c, 7, 78, 0
9, 135680, Note_on_c, 7, 76, 96
9, 135680, Note_off_c, 7, 74, 0
9, 135680, Note_on_c, 7, 74, 96
9, 135680, Note_off_c, 7, 69, 0
9, 135680, Note_on_c, 7, 71, 96
9, 135936, Note_off_c, 7, 76, 0
9, 135936, Note_on_c, 7, 78, 96
9, 136192, Note_off_c, 7, 78, 0
9, 136192, Note_on_c, 7, 79, 96
9, 136192, Note_off_c, 7, 74, 0
9, 136192, Note_on_c, 7, 74, 96
9, 136192, Note_off_c, 7, 71, 0
9, 136192, Note_on_c, 7, 69, 96
9, 136704, Note_off_c, 7, 79, 0
9, 136704, Note_on_c, 7, 78, 96
9, 136704, Note_off_c, 7, 74, 0
9, 136704, Note_on_c, 7, 73, 96
9, 136704, Note_off_c, 7, 69, 0
9, 136704, Note_on_c, 7, 69, 96
9, 136960, Note_off_c, 7, 78, 0
9, 136960, Note_on_c, 7, 76, 96
9, 137216, Note_off_c, 7, 76, 0
9, 137216, Note_on_c, 7, 74, 96
9, 137216, Note_off_c, 7, 73, 0
9, 137216, Note_on_c, 7, 69, 96
9, 137216, Note_off_c, 7, 69, 0
9, 137216, Note_on_c, 7, 69, 96
9, 141312, Note_off_c, 7, 74, 0
9, 141312, Note_off_c, 7, 69, 0
9, 141312, Note_off_c, 7, 69, 0
9, 141312, End_track
0, 0, End_of_file
