0, 0, Header, 1, 4, 384
1, 0, Start_track
1, 0, Tempo, 833330
1, 0, Time_signature, 4, 2, 24, 8
1, 43008, Tempo, 895520
1, 44544, Tempo, 967740
1, 46080, Tempo, 1052630
1, 46464, Tempo, 833330
1, 89088, Tempo, 895520
1, 90624, Tempo, 967740
1, 92160, Tempo, 1052630
1, 92928, Tempo, 1500000
1, 93696, End_track
2, 0, Start_track
2, 0, Title_t, "Track 1"
2, 0, Program_c, 0, 19
2, 0, Note_on_c, 0, 65, 92
2, 0, Note_on_c, 0, 69, 92
2, 0, Note_on_c, 0, 74, 92
2, 384, Note_off_c, 0, 74, 64
2, 384, Note_off_c, 0, 69, 64
2, 384, Note_off_c, 0, 65, 64
2, 960, Note_on_c, 0, 65, 92
2, 960, Note_on_c, 0, 69, 92
2, 960, Note_on_c, 0, 74, 92
2, 1152, Note_off_c, 0, 74, 64
2, 1152, Note_off_c, 0, 69, 64
2, 1152, Note_off_c, 0, 65, 64
2, 1152, Note_on_c, 0, 64, 92
2, 1152, Note_on_c, 0, 67, 92
2, 1152, Note_on_c, 0, 73, 92
2, 1344, Note_off_c, 0, 73, 64
2, 1344, Note_off_c, 0, 67, 64
2, 1344, Note_off_c, 0, 64, 64
2, 1344, Note_on_c, 0, 69, 92
2, 1344, Note_on_c, 0, 65, 92
2, 1344, Note_on_c, 0, 74, 92
2, 1536, Note_off_c, 0, 74, 64
2, 1536, Note_off_c, 0, 65, 64
2, 1536, Note_on_c, 0, 64, 92
2, 1536, Note_on_c, 0, 76, 92
2, 1632, Note_off_c, 0, 69, 64
2, 1632, Note_on_c, 0, 69, 92
2, 1728, Note_off_c, 0, 69, 64
2, 1728, Note_on_c, 0, 67, 92
2, 1824, Note_off_c, 0, 67, 64
2, 1824, Note_on_c, 0, 65, 92
2, 1920, Note_off_c, 0, 65, 64
2, 1920, Note_off_c, 0, 76, 64
2, 1920, Note_off_c, 0, 64, 64
2, 1920, Note_on_c, 0, 64, 92
2, 2016, Note_off_c, 0, 64, 64
2, 2016, Note_on_c, 0, 62, 92
2, 2112, Note_off_c, 0, 62, 64
2, 2112, Note_on_c, 0, 61, 92
2, 2208, Note_off_c, 0, 61, 64
2, 2208, Note_on_c, 0, 59, 92
2, 2304, Note_off_c, 0, 59, 64
2, 2496, Note_on_c, 0, 61, 92
2, 2496, Note_on_c, 0, 69, 92
2, 2688, Note_off_c, 0, 69, 64
2, 2688, Note_off_c, 0, 61, 64
2, 2688, Note_on_c, 0, 62, 92
2, 2688, Note_on_c, 0, 67, 92
2, 2880, Note_off_c, 0, 67, 64
2, 2880, Note_on_c, 0, 65, 92
2, 3024, Note_off_c, 0, 65, 64
2, 3024, Note_on_c, 0, 64, 92
2, 3072, Note_off_c, 0, 64, 64
2, 3072, Note_off_c, 0, 62, 64
2, 3072, Note_on_c, 0, 62, 92
2, 3072, Note_on_c, 0, 65, 92
2, 3264, Note_off_c, 0, 62, 64
2, 3264, Note_on_c, 0, 74, 92
2, 3456, Note_off_c, 0, 74, 64
2, 3456, Note_off_c, 0, 65, 64
2, 3456, Note_on_c, 0, 64, 92
2, 3456, Note_on_c, 0, 72, 92
2, 3648, Note_off_c, 0, 72, 64
2, 3648, Note_off_c, 0, 64, 64
2, 3648, Note_on_c, 0, 62, 92
2, 3648, Note_on_c, 0, 70, 92
2, 3840, Note_off_c, 0, 70, 64
2, 3840, Note_off_c, 0, 62, 64
2, 3840, Note_on_c, 0, 60, 92
2, 3840, Note_on_c, 0, 69, 92
2, 4032, Note_off_c, 0, 60, 64
2, 4032, Note_on_c, 0, 77, 92
2, 4224, Note_off_c, 0, 77, 64
2, 4224, Note_off_c, 0, 69, 64
2, 4224, Note_on_c, 0, 76, 92
2, 4224, Note_on_c, 0, 67, 92
2, 4416, Note_off_c, 0, 67, 64
2, 4416, Note_off_c, 0, 76, 64
2, 4416, Note_on_c, 0, 74, 92
2, 4416, Note_on_c, 0, 65, 92
2, 4608, Note_off_c, 0, 65, 64
2, 4608, Note_off_c, 0, 74, 64
2, 4608, Note_on_c, 0, 64, 92
2, 4608, Note_on_c, 0, 73, 92
2, 4992, Note_off_c, 0, 73, 64
2, 4992, Note_off_c, 0, 64, 64
2, 4992, Note_on_c, 0, 62, 92
2, 5088, Note_off_c, 0, 62, 64
2, 5088, Note_on_c, 0, 64, 92
2, 5184, Note_off_c, 0, 64, 64
2, 5184, Note_on_c, 0, 65, 92
2, 5280, Note_off_c, 0, 65, 64
2, 5280, Note_on_c, 0, 67, 92
2, 5376, Note_off_c, 0, 67, 64
2, 5376, Note_on_c, 0, 69, 92
2, 5568, Note_off_c, 0, 69, 64
2, 5568, Note_on_c, 0, 64, 92
2, 5568, Note_on_c, 0, 67, 92
2, 5760, Note_off_c, 0, 67, 64
2, 5760, Note_off_c, 0, 64, 64
2, 5760, Note_on_c, 0, 62, 92
2, 5760, Note_on_c, 0, 65, 92
2, 5952, Note_off_c, 0, 65, 64
2, 5952, Note_off_c, 0, 62, 64
2, 5952, Note_on_c, 0, 61, 92
2, 5952, Note_on_c, 0, 64, 92
2, 6144, Note_off_c, 0, 64, 64
2, 6144, Note_off_c, 0, 61, 64
2, 6144, Note_on_c, 0, 62, 92
2, 6336, Note_off_c, 0, 62, 64
2, 6336, Note_on_c, 0, 64, 92
2, 6432, Note_off_c, 0, 64, 64
2, 6432, Note_on_c, 0, 65, 92
2, 6528, Note_off_c, 0, 65, 64
2, 6528, Note_on_c, 0, 64, 92
2, 6624, Note_off_c, 0, 64, 64
2, 6624, Note_on_c, 0, 65, 92
2, 6720, Note_off_c, 0, 65, 64
2, 6720, Note_on_c, 0, 62, 92
2, 6912, Note_off_c, 0, 62, 64
2, 6912, Note_on_c, 0, 69, 92
2, 6912, Note_on_c, 0, 64, 92
2, 6912, Note_on_c, 0, 61, 92
2, 7296, Note_off_c, 0, 61, 64
2, 7296, Note_off_c, 0, 64, 64
2, 7296, Note_off_c, 0, 69, 64
2, 7296, Note_on_c, 0, 62, 92
2, 7296, Note_on_c, 0, 65, 92
2, 7296, Note_on_c, 0, 69, 92
2, 7680, Note_off_c, 0, 69, 64
2, 7680, Note_off_c, 0, 65, 64
2, 7680, Note_on_c, 0, 67, 92
2, 7872, Note_off_c, 0, 62, 64
2, 7872, Note_on_c, 0, 61, 92
2, 8064, Note_off_c, 0, 61, 64
2, 8064, Note_off_c, 0, 67, 64
2, 8064, Note_on_c, 0, 62, 92
2, 8064, Note_on_c, 0, 65, 92
2, 8448, Note_off_c, 0, 65, 64
2, 8448, Note_on_c, 0, 64, 92
2, 8832, Note_off_c, 0, 62, 64
2, 8832, Note_on_c, 0, 62, 92
2, 8880, Note_off_c, 0, 62, 64
2, 8880, Note_on_c, 0, 61, 92
2, 8928, Note_off_c, 0, 61, 64
2, 8928, Note_on_c, 0, 62, 92
2, 8976, Note_off_c, 0, 62, 64
2, 8976, Note_on_c, 0, 61, 92
2, 9024, Note_off_c, 0, 61, 64
2, 9024, Note_on_c, 0, 62, 92
2, 9072, Note_off_c, 0, 62, 64
2, 9072, Note_on_c, 0, 61, 92
2, 9120, Note_off_c, 0, 61, 64
2, 9120, Note_on_c, 0, 62, 92
2, 9168, Note_off_c, 0, 62, 64
2, 9168, Note_on_c, 0, 61, 92
2, 9216, Note_off_c, 0, 61, 64
2, 9216, Note_off_c, 0, 64, 64
2, 9216, Note_on_c, 0, 62, 92
2, 9600, Note_off_c, 0, 62, 64
2, 9792, Note_on_c, 0, 69, 92
2, 9984, Note_off_c, 0, 69, 64
2, 9984, Note_on_c, 0, 74, 92
2, 9984, Note_on_c, 0, 77, 92
2, 10368, Note_off_c, 0, 77, 64
2, 10368, Note_off_c, 0, 74, 64
2, 10752, Note_on_c, 0, 74, 92
2, 10752, Note_on_c, 0, 77, 92
2, 11136, Note_off_c, 0, 77, 64
2, 11136, Note_off_c, 0, 74, 64
2, 11328, Note_on_c, 0, 74, 92
2, 11328, Note_on_c, 0, 77, 92
2, 11520, Note_off_c, 0, 77, 64
2, 11520, Note_on_c, 0, 76, 92
2, 11904, Note_off_c, 0, 74, 64
2, 11904, Note_on_c, 0, 73, 92
2, 12288, Note_off_c, 0, 73, 64
2, 12288, Note_off_c, 0, 76, 64
2, 12288, Note_on_c, 0, 74, 92
2, 12288, Note_on_c, 0, 77, 92
2, 12672, Note_off_c, 0, 77, 64
2, 12672, Note_on_c, 0, 79, 92
2, 13056, Note_off_c, 0, 79, 64
2, 13056, Note_off_c, 0, 74, 64
2, 13056, Note_on_c, 0, 72, 92
2, 13056, Note_on_c, 0, 76, 92
2, 13440, Note_off_c, 0, 76, 64
2, 13440, Note_on_c, 0, 77, 92
2, 13824, Note_off_c, 0, 77, 64
2, 13824, Note_off_c, 0, 72, 64
2, 13824, Note_on_c, 0, 74, 92
2, 13824, Note_on_c, 0, 65, 92
2, 14208, Note_off_c, 0, 65, 64
2, 14208, Note_on_c, 0, 70, 92
2, 14592, Note_off_c, 0, 74, 64
2, 14592, Note_on_c, 0, 72, 92
2, 14976, Note_off_c, 0, 70, 64
2, 14976, Note_on_c, 0, 69, 92
2, 15360, Note_off_c, 0, 72, 64
2, 15360, Note_on_c, 0, 74, 92
2, 15456, Note_off_c, 0, 69, 64
2, 15456, Note_on_c, 0, 69, 92
2, 15552, Note_off_c, 0, 69, 64
2, 15552, Note_on_c, 0, 70, 92
2, 15648, Note_off_c, 0, 70, 64
2, 15648, Note_on_c, 0, 69, 92
2, 15744, Note_off_c, 0, 69, 64
2, 15744, Note_off_c, 0, 74, 64
2, 15744, Note_on_c, 0, 67, 92
2, 15840, Note_off_c, 0, 67, 64
2, 15840, Note_on_c, 0, 69, 92
2, 15936, Note_off_c, 0, 69, 64
2, 15936, Note_on_c, 0, 74, 92
2, 15936, Note_on_c, 0, 67, 92
2, 16032, Note_off_c, 0, 67, 64
2, 16032, Note_on_c, 0, 65, 92
2, 16128, Note_off_c, 0, 65, 64
2, 16128, Note_off_c, 0, 74, 64
2, 16128, Note_on_c, 0, 64, 92
2, 16128, Note_on_c, 0, 67, 92
2, 16512, Note_off_c, 0, 67, 64
2, 16512, Note_off_c, 0, 64, 64
2, 16512, Note_on_c, 0, 65, 92
2, 16512, Note_on_c, 0, 69, 92
2, 16896, Note_off_c, 0, 69, 64
2, 16896, Note_on_c, 0, 67, 92
2, 17280, Note_off_c, 0, 65, 64
2, 17280, Note_on_c, 0, 65, 92
2, 17328, Note_off_c, 0, 65, 64
2, 17328, Note_on_c, 0, 64, 92
2, 17376, Note_off_c, 0, 64, 64
2, 17376, Note_on_c, 0, 65, 92
2, 17424, Note_off_c, 0, 65, 64
2, 17424, Note_on_c, 0, 64, 92
2, 17472, Note_off_c, 0, 64, 64
2, 17472, Note_on_c, 0, 65, 92
2, 17520, Note_off_c, 0, 65, 64
2, 17520, Note_on_c, 0, 64, 92
2, 17568, Note_off_c, 0, 64, 64
2, 17568, Note_on_c, 0, 65, 92
2, 17616, Note_off_c, 0, 65, 64
2, 17616, Note_on_c, 0, 64, 92
2, 17664, Note_off_c, 0, 64, 64
2, 17664, Note_off_c, 0, 67, 64
2, 17664, Note_on_c, 0, 57, 92
2, 17664, Note_on_c, 0, 60, 92
2, 17664, Note_on_c, 0, 65, 92
2, 18048, Note_off_c, 0, 65, 64
2, 18048, Note_off_c, 0, 60, 64
2, 18048, Note_off_c, 0, 57, 64
2, 18240, Note_on_c, 0, 60, 92
2, 18432, Note_off_c, 0, 60, 64
2, 18432, Note_on_c, 0, 65, 92
2, 18528, Note_off_c, 0, 65, 64
2, 18528, Note_on_c, 0, 60, 92
2, 18624, Note_off_c, 0, 60, 64
2, 18816, Note_on_c, 0, 65, 92
2, 18912, Note_off_c, 0, 65, 64
2, 18912, Note_on_c, 0, 60, 92
2, 19008, Note_off_c, 0, 60, 64
2, 19200, Note_on_c, 0, 63, 92
2, 19296, Note_off_c, 0, 63, 64
2, 19296, Note_on_c, 0, 60, 92
2, 19392, Note_off_c, 0, 60, 64
2, 19584, Note_on_c, 0, 63, 92
2, 19680, Note_off_c, 0, 63, 64
2, 19680, Note_on_c, 0, 60, 92
2, 19776, Note_off_c, 0, 60, 64
2, 19968, Note_on_c, 0, 62, 92
2, 20064, Note_off_c, 0, 62, 64
2, 20064, Note_on_c, 0, 58, 92
2, 20160, Note_off_c, 0, 58, 64
2, 20160, Note_on_c, 0, 63, 92
2, 20256, Note_off_c, 0, 63, 64
2, 20256, Note_on_c, 0, 58, 92
2, 20352, Note_off_c, 0, 58, 64
2, 20352, Note_on_c, 0, 62, 92
2, 20448, Note_off_c, 0, 62, 64
2, 20448, Note_on_c, 0, 58, 92
2, 20544, Note_off_c, 0, 58, 64
2, 20544, Note_on_c, 0, 63, 92
2, 20640, Note_off_c, 0, 63, 64
2, 20640, Note_on_c, 0, 58, 92
2, 20736, Note_off_c, 0, 58, 64
2, 20736, Note_on_c, 0, 62, 92
2, 21120, Note_off_c, 0, 62, 64
2, 21216, Note_on_c, 0, 62, 92
2, 21312, Note_off_c, 0, 62, 64
2, 21312, Note_on_c, 0, 64, 92
2, 21408, Note_off_c, 0, 64, 64
2, 21408, Note_on_c, 0, 66, 92
2, 21504, Note_off_c, 0, 66, 64
2, 21504, Note_on_c, 0, 67, 92
2, 21600, Note_off_c, 0, 67, 64
2, 21600, Note_on_c, 0, 62, 92
2, 21696, Note_off_c, 0, 62, 64
2, 21696, Note_on_c, 0, 59, 92
2, 21792, Note_off_c, 0, 59, 64
2, 21792, Note_on_c, 0, 55, 92
2, 21888, Note_off_c, 0, 55, 64
2, 21888, Note_on_c, 0, 67, 92
2, 21984, Note_off_c, 0, 67, 64
2, 21984, Note_on_c, 0, 62, 92
2, 22080, Note_off_c, 0, 62, 64
2, 22080, Note_on_c, 0, 59, 92
2, 22176, Note_off_c, 0, 59, 64
2, 22176, Note_on_c, 0, 55, 92
2, 22272, Note_off_c, 0, 55, 64
2, 22272, Note_on_c, 0, 65, 92
2, 22368, Note_off_c, 0, 65, 64
2, 22368, Note_on_c, 0, 62, 92
2, 22464, Note_off_c, 0, 62, 64
2, 22464, Note_on_c, 0, 59, 92
2, 22560, Note_off_c, 0, 59, 64
2, 22560, Note_on_c, 0, 55, 92
2, 22656, Note_off_c, 0, 55, 64
2, 22656, Note_on_c, 0, 65, 92
2, 22752, Note_off_c, 0, 65, 64
2, 22752, Note_on_c, 0, 62, 92
2, 22848, Note_off_c, 0, 62, 64
2, 22848, Note_on_c, 0, 59, 92
2, 22944, Note_off_c, 0, 59, 64
2, 22944, Note_on_c, 0, 55, 92
2, 23040, Note_off_c, 0, 55, 64
2, 23040, Note_on_c, 0, 64, 92
2, 23136, Note_off_c, 0, 64, 64
2, 23136, Note_on_c, 0, 60, 92
2, 23232, Note_off_c, 0, 60, 64
2, 23232, Note_on_c, 0, 65, 92
2, 23328, Note_off_c, 0, 65, 64
2, 23328, Note_on_c, 0, 60, 92
2, 23424, Note_off_c, 0, 60, 64
2, 23424, Note_on_c, 0, 64, 92
2, 23520, Note_off_c, 0, 64, 64
2, 23520, Note_on_c, 0, 60, 92
2, 23616, Note_off_c, 0, 60, 64
2, 23616, Note_on_c, 0, 65, 92
2, 23712, Note_off_c, 0, 65, 64
2, 23712, Note_on_c, 0, 60, 92
2, 23808, Note_off_c, 0, 60, 64
2, 23808, Note_on_c, 0, 64, 92
2, 24192, Note_off_c, 0, 64, 64
2, 24288, Note_on_c, 0, 64, 92
2, 24384, Note_off_c, 0, 64, 64
2, 24384, Note_on_c, 0, 66, 92
2, 24480, Note_off_c, 0, 66, 64
2, 24480, Note_on_c, 0, 68, 92
2, 24576, Note_off_c, 0, 68, 64
2, 24576, Note_on_c, 0, 69, 92
2, 24672, Note_off_c, 0, 69, 64
2, 24672, Note_on_c, 0, 64, 92
2, 24768, Note_off_c, 0, 64, 64
2, 24768, Note_on_c, 0, 61, 92
2, 24864, Note_off_c, 0, 61, 64
2, 24864, Note_on_c, 0, 57, 92
2, 24960, Note_off_c, 0, 57, 64
2, 24960, Note_on_c, 0, 69, 92
2, 25056, Note_off_c, 0, 69, 64
2, 25056, Note_on_c, 0, 64, 92
2, 25152, Note_off_c, 0, 64, 64
2, 25152, Note_on_c, 0, 61, 92
2, 25248, Note_off_c, 0, 61, 64
2, 25248, Note_on_c, 0, 57, 92
2, 25344, Note_off_c, 0, 57, 64
2, 25344, Note_on_c, 0, 67, 92
2, 25440, Note_off_c, 0, 67, 64
2, 25440, Note_on_c, 0, 64, 92
2, 25536, Note_off_c, 0, 64, 64
2, 25536, Note_on_c, 0, 61, 92
2, 25632, Note_off_c, 0, 61, 64
2, 25632, Note_on_c, 0, 57, 92
2, 25728, Note_off_c, 0, 57, 64
2, 25728, Note_on_c, 0, 67, 92
2, 25824, Note_off_c, 0, 67, 64
2, 25824, Note_on_c, 0, 64, 92
2, 25920, Note_off_c, 0, 64, 64
2, 25920, Note_on_c, 0, 61, 92
2, 26016, Note_off_c, 0, 61, 64
2, 26016, Note_on_c, 0, 57, 92
2, 26112, Note_off_c, 0, 57, 64
2, 26112, Note_on_c, 0, 65, 92
2, 26208, Note_off_c, 0, 65, 64
2, 26208, Note_on_c, 0, 62, 92
2, 26304, Note_off_c, 0, 62, 64
2, 26304, Note_on_c, 0, 67, 92
2, 26400, Note_off_c, 0, 67, 64
2, 26400, Note_on_c, 0, 62, 92
2, 26496, Note_off_c, 0, 62, 64
2, 26496, Note_on_c, 0, 65, 92
2, 26592, Note_off_c, 0, 65, 64
2, 26592, Note_on_c, 0, 62, 92
2, 26688, Note_off_c, 0, 62, 64
2, 26688, Note_on_c, 0, 67, 92
2, 26784, Note_off_c, 0, 67, 64
2, 26784, Note_on_c, 0, 62, 92
2, 26880, Note_off_c, 0, 62, 64
2, 26880, Note_on_c, 0, 65, 92
2, 26976, Note_off_c, 0, 65, 64
2, 26976, Note_on_c, 0, 62, 92
2, 27072, Note_off_c, 0, 62, 64
2, 27072, Note_on_c, 0, 66, 92
2, 27168, Note_off_c, 0, 66, 64
2, 27168, Note_on_c, 0, 62, 92
2, 27264, Note_off_c, 0, 62, 64
2, 27264, Note_on_c, 0, 67, 92
2, 27360, Note_off_c, 0, 67, 64
2, 27360, Note_on_c, 0, 62, 92
2, 27456, Note_off_c, 0, 62, 64
2, 27456, Note_on_c, 0, 69, 92
2, 27552, Note_off_c, 0, 69, 64
2, 27552, Note_on_c, 0, 62, 92
2, 27648, Note_off_c, 0, 62, 64
2, 27648, Note_on_c, 0, 70, 92
2, 27744, Note_off_c, 0, 70, 64
2, 27744, Note_on_c, 0, 69, 92
2, 27840, Note_off_c, 0, 69, 64
2, 27840, Note_on_c, 0, 67, 92
2, 27936, Note_off_c, 0, 67, 64
2, 27936, Note_on_c, 0, 65, 92
2, 28032, Note_off_c, 0, 65, 64
2, 28032, Note_on_c, 0, 67, 92
2, 28128, Note_off_c, 0, 67, 64
2, 28128, Note_on_c, 0, 65, 92
2, 28224, Note_off_c, 0, 65, 64
2, 28224, Note_on_c, 0, 64, 92
2, 28320, Note_off_c, 0, 64, 64
2, 28320, Note_on_c, 0, 62, 92
2, 28416, Note_off_c, 0, 62, 64
2, 28416, Note_on_c, 0, 64, 92
2, 28512, Note_off_c, 0, 64, 64
2, 28512, Note_on_c, 0, 60, 92
2, 28608, Note_off_c, 0, 60, 64
2, 28608, Note_on_c, 0, 64, 92
2, 28704, Note_off_c, 0, 64, 64
2, 28704, Note_on_c, 0, 60, 92
2, 28800, Note_off_c, 0, 60, 64
2, 28800, Note_on_c, 0, 65, 92
2, 28896, Note_off_c, 0, 65, 64
2, 28896, Note_on_c, 0, 60, 92
2, 28992, Note_off_c, 0, 60, 64
2, 28992, Note_on_c, 0, 67, 92
2, 29088, Note_off_c, 0, 67, 64
2, 29088, Note_on_c, 0, 60, 92
2, 29184, Note_off_c, 0, 60, 64
2, 29184, Note_on_c, 0, 69, 92
2, 29280, Note_off_c, 0, 69, 64
2, 29280, Note_on_c, 0, 67, 92
2, 29376, Note_off_c, 0, 67, 64
2, 29376, Note_on_c, 0, 65, 92
2, 29472, Note_off_c, 0, 65, 64
2, 29472, Note_on_c, 0, 64, 92
2, 29568, Note_off_c, 0, 64, 64
2, 29568, Note_on_c, 0, 65, 92
2, 29664, Note_off_c, 0, 65, 64
2, 29664, Note_on_c, 0, 63, 92
2, 29760, Note_off_c, 0, 63, 64
2, 29760, Note_on_c, 0, 62, 92
2, 29856, Note_off_c, 0, 62, 64
2, 29856, Note_on_c, 0, 60, 92
2, 29952, Note_off_c, 0, 60, 64
2, 29952, Note_on_c, 0, 62, 92
2, 30144, Note_off_c, 0, 62, 64
2, 30144, Note_on_c, 0, 65, 92
2, 30144, Note_on_c, 0, 74, 92
2, 30240, Note_off_c, 0, 74, 64
2, 30240, Note_on_c, 0, 70, 92
2, 30336, Note_off_c, 0, 70, 64
2, 30336, Note_off_c, 0, 65, 64
2, 30336, Note_on_c, 0, 65, 92
2, 30336, Note_on_c, 0, 74, 92
2, 30432, Note_off_c, 0, 74, 64
2, 30432, Note_on_c, 0, 70, 92
2, 30528, Note_off_c, 0, 70, 64
2, 30528, Note_off_c, 0, 65, 64
2, 30528, Note_on_c, 0, 65, 92
2, 30528, Note_on_c, 0, 74, 92
2, 30624, Note_off_c, 0, 74, 64
2, 30624, Note_on_c, 0, 70, 92
2, 30720, Note_off_c, 0, 70, 64
2, 30720, Note_off_c, 0, 65, 64
2, 30720, Note_on_c, 0, 72, 92
2, 30912, Note_off_c, 0, 72, 64
2, 30912, Note_on_c, 0, 60, 92
2, 30912, Note_on_c, 0, 72, 92
2, 31008, Note_off_c, 0, 72, 64
2, 31008, Note_on_c, 0, 69, 92
2, 31104, Note_off_c, 0, 69, 64
2, 31104, Note_off_c, 0, 60, 64
2, 31104, Note_on_c, 0, 65, 92
2, 31104, Note_on_c, 0, 72, 92
2, 31200, Note_off_c, 0, 72, 64
2, 31200, Note_on_c, 0, 69, 92
2, 31296, Note_off_c, 0, 69, 64
2, 31296, Note_on_c, 0, 72, 92
2, 31392, Note_off_c, 0, 72, 64
2, 31392, Note_on_c, 0, 69, 92
2, 31488, Note_off_c, 0, 69, 64
2, 31488, Note_on_c, 0, 70, 92
2, 31680, Note_off_c, 0, 70, 64
2, 31680, Note_off_c, 0, 65, 64
2, 31680, Note_on_c, 0, 58, 92
2, 31680, Note_on_c, 0, 70, 92
2, 31776, Note_off_c, 0, 70, 64
2, 31776, Note_on_c, 0, 67, 92
2, 31872, Note_off_c, 0, 67, 64
2, 31872, Note_off_c, 0, 58, 64
2, 31872, Note_on_c, 0, 64, 92
2, 31872, Note_on_c, 0, 70, 92
2, 31968, Note_off_c, 0, 70, 64
2, 31968, Note_on_c, 0, 67, 92
2, 32064, Note_off_c, 0, 67, 64
2, 32064, Note_on_c, 0, 70, 92
2, 32160, Note_off_c, 0, 70, 64
2, 32160, Note_on_c, 0, 67, 92
2, 32256, Note_off_c, 0, 67, 64
2, 32256, Note_on_c, 0, 69, 92
2, 32448, Note_off_c, 0, 69, 64
2, 32448, Note_off_c, 0, 64, 64
2, 32448, Note_on_c, 0, 69, 92
2, 32544, Note_off_c, 0, 69, 64
2, 32544, Note_on_c, 0, 65, 92
2, 32640, Note_off_c, 0, 65, 64
2, 32640, Note_on_c, 0, 62, 92
2, 32640, Note_on_c, 0, 69, 92
2, 32736, Note_off_c, 0, 69, 64
2, 32736, Note_on_c, 0, 65, 92
2, 32832, Note_off_c, 0, 65, 64
2, 32832, Note_on_c, 0, 69, 92
2, 32928, Note_off_c, 0, 69, 64
2, 32928, Note_on_c, 0, 65, 92
2, 33024, Note_off_c, 0, 65, 64
2, 33024, Note_on_c, 0, 67, 92
2, 33216, Note_off_c, 0, 67, 64
2, 33216, Note_off_c, 0, 62, 64
2, 33216, Note_on_c, 0, 67, 92
2, 33312, Note_off_c, 0, 67, 64
2, 33312, Note_on_c, 0, 64, 92
2, 33408, Note_off_c, 0, 64, 64
2, 33408, Note_on_c, 0, 61, 92
2, 33408, Note_on_c, 0, 67, 92
2, 33504, Note_off_c, 0, 67, 64
2, 33504, Note_on_c, 0, 64, 92
2, 33600, Note_off_c, 0, 64, 64
2, 33600, Note_on_c, 0, 67, 92
2, 33696, Note_off_c, 0, 67, 64
2, 33696, Note_on_c, 0, 64, 92
2, 33792, Note_off_c, 0, 64, 64
2, 33792, Note_off_c, 0, 61, 64
2, 33792, Note_on_c, 0, 57, 92
2, 33792, Note_on_c, 0, 62, 92
2, 33792, Note_on_c, 0, 65, 92
2, 34176, Note_off_c, 0, 65, 64
2, 34176, Note_off_c, 0, 62, 64
2, 34176, Note_off_c, 0, 57, 64
2, 34560, Note_on_c, 0, 62, 92
2, 34656, Note_off_c, 0, 62, 64
2, 34944, Note_on_c, 0, 62, 92
2, 35040, Note_off_c, 0, 62, 64
2, 35040, Note_on_c, 0, 64, 92
2, 35136, Note_off_c, 0, 64, 64
2, 35136, Note_on_c, 0, 65, 92
2, 35232, Note_off_c, 0, 65, 64
2, 35232, Note_on_c, 0, 67, 92
2, 35328, Note_off_c, 0, 67, 64
2, 35328, Note_on_c, 0, 69, 92
2, 35424, Note_off_c, 0, 69, 64
2, 35424, Note_on_c, 0, 62, 92
2, 35520, Note_off_c, 0, 62, 64
2, 35520, Note_on_c, 0, 64, 92
2, 35616, Note_off_c, 0, 64, 64
2, 35616, Note_on_c, 0, 65, 92
2, 35712, Note_off_c, 0, 65, 64
2, 35712, Note_on_c, 0, 67, 92
2, 35808, Note_off_c, 0, 67, 64
2, 35808, Note_on_c, 0, 69, 92
2, 35904, Note_off_c, 0, 69, 64
2, 35904, Note_on_c, 0, 71, 92
2, 36000, Note_off_c, 0, 71, 64
2, 36000, Note_on_c, 0, 73, 92
2, 36096, Note_off_c, 0, 73, 64
2, 36096, Note_on_c, 0, 74, 92
2, 36288, Note_off_c, 0, 74, 64
2, 36288, Note_on_c, 0, 65, 92
2, 36288, Note_on_c, 0, 74, 92
2, 36480, Note_off_c, 0, 74, 64
2, 36480, Note_off_c, 0, 65, 64
2, 36480, Note_on_c, 0, 67, 92
2, 36480, Note_on_c, 0, 76, 92
2, 36576, Note_off_c, 0, 76, 64
2, 36576, Note_off_c, 0, 67, 64
2, 36576, Note_on_c, 0, 65, 92
2, 36576, Note_on_c, 0, 74, 92
2, 36672, Note_off_c, 0, 74, 64
2, 36672, Note_off_c, 0, 65, 64
2, 36672, Note_on_c, 0, 67, 92
2, 36672, Note_on_c, 0, 76, 92
2, 36768, Note_off_c, 0, 76, 64
2, 36768, Note_off_c, 0, 67, 64
2, 36768, Note_on_c, 0, 64, 92
2, 36768, Note_on_c, 0, 72, 92
2, 36864, Note_off_c, 0, 72, 64
2, 36864, Note_off_c, 0, 64, 64
2, 36864, Note_on_c, 0, 65, 92
2, 36864, Note_on_c, 0, 69, 92
2, 36864, Note_on_c, 0, 74, 92
2, 37248, Note_off_c, 0, 74, 64
2, 37248, Note_off_c, 0, 69, 64
2, 37248, Note_off_c, 0, 65, 64
2, 37824, Note_on_c, 0, 65, 92
2, 37824, Note_on_c, 0, 69, 92
2, 37824, Note_on_c, 0, 74, 92
2, 38016, Note_off_c, 0, 74, 64
2, 38016, Note_off_c, 0, 69, 64
2, 38016, Note_off_c, 0, 65, 64
2, 38016, Note_on_c, 0, 64, 92
2, 38016, Note_on_c, 0, 67, 92
2, 38016, Note_on_c, 0, 73, 92
2, 38208, Note_off_c, 0, 73, 64
2, 38208, Note_off_c, 0, 67, 64
2, 38208, Note_off_c, 0, 64, 64
2, 38208, Note_on_c, 0, 69, 92
2, 38208, Note_on_c, 0, 65, 92
2, 38208, Note_on_c, 0, 74, 92
2, 38400, Note_off_c, 0, 74, 64
2, 38400, Note_off_c, 0, 65, 64
2, 38400, Note_on_c, 0, 64, 92
2, 38400, Note_on_c, 0, 76, 92
2, 38496, Note_off_c, 0, 69, 64
2, 38496, Note_on_c, 0, 69, 92
2, 38592, Note_off_c, 0, 69, 64
2, 38592, Note_on_c, 0, 67, 92
2, 38688, Note_off_c, 0, 67, 64
2, 38688, Note_on_c, 0, 65, 92
2, 38784, Note_off_c, 0, 65, 64
2, 38784, Note_off_c, 0, 76, 64
2, 38784, Note_off_c, 0, 64, 64
2, 38784, Note_on_c, 0, 64, 92
2, 38880, Note_off_c, 0, 64, 64
2, 38880, Note_on_c, 0, 62, 92
2, 38976, Note_off_c, 0, 62, 64
2, 38976, Note_on_c, 0, 61, 92
2, 39072, Note_off_c, 0, 61, 64
2, 39360, Note_on_c, 0, 61, 92
2, 39360, Note_on_c, 0, 69, 92
2, 39552, Note_off_c, 0, 69, 64
2, 39552, Note_off_c, 0, 61, 64
2, 39552, Note_on_c, 0, 62, 92
2, 39552, Note_on_c, 0, 67, 92
2, 39744, Note_off_c, 0, 67, 64
2, 39744, Note_on_c, 0, 65, 92
2, 39888, Note_off_c, 0, 65, 64
2, 39888, Note_on_c, 0, 64, 92
2, 39936, Note_off_c, 0, 64, 64
2, 39936, Note_off_c, 0, 62, 64
2, 39936, Note_on_c, 0, 65, 92
2, 39936, Note_on_c, 0, 62, 92
2, 40128, Note_off_c, 0, 62, 64
2, 40128, Note_on_c, 0, 74, 92
2, 40320, Note_off_c, 0, 74, 64
2, 40320, Note_off_c, 0, 65, 64
2, 40320, Note_on_c, 0, 64, 92
2, 40320, Note_on_c, 0, 72, 92
2, 40512, Note_off_c, 0, 72, 64
2, 40512, Note_off_c, 0, 64, 64
2, 40512, Note_on_c, 0, 62, 92
2, 40512, Note_on_c, 0, 70, 92
2, 40704, Note_off_c, 0, 70, 64
2, 40704, Note_off_c, 0, 62, 64
2, 40704, Note_on_c, 0, 60, 92
2, 40704, Note_on_c, 0, 69, 92
2, 40896, Note_off_c, 0, 60, 64
2, 40896, Note_on_c, 0, 77, 92
2, 41088, Note_off_c, 0, 77, 64
2, 41088, Note_off_c, 0, 69, 64
2, 41088, Note_on_c, 0, 67, 92
2, 41088, Note_on_c, 0, 76, 92
2, 41280, Note_off_c, 0, 76, 64
2, 41280, Note_off_c, 0, 67, 64
2, 41280, Note_on_c, 0, 65, 92
2, 41280, Note_on_c, 0, 74, 92
2, 41472, Note_off_c, 0, 74, 64
2, 41472, Note_off_c, 0, 65, 64
2, 41472, Note_on_c, 0, 64, 92
2, 41472, Note_on_c, 0, 73, 92
2, 41856, Note_off_c, 0, 73, 64
2, 41856, Note_off_c, 0, 64, 64
2, 41856, Note_on_c, 0, 62, 92
2, 41952, Note_off_c, 0, 62, 64
2, 41952, Note_on_c, 0, 64, 92
2, 42048, Note_off_c, 0, 64, 64
2, 42048, Note_on_c, 0, 65, 92
2, 42144, Note_off_c, 0, 65, 64
2, 42144, Note_on_c, 0, 67, 92
2, 42240, Note_off_c, 0, 67, 64
2, 42240, Note_on_c, 0, 69, 92
2, 42432, Note_off_c, 0, 69, 64
2, 42432, Note_on_c, 0, 64, 92
2, 42432, Note_on_c, 0, 67, 92
2, 42624, Note_off_c, 0, 67, 64
2, 42624, Note_off_c, 0, 64, 64
2, 42624, Note_on_c, 0, 62, 92
2, 42624, Note_on_c, 0, 65, 92
2, 42816, Note_off_c, 0, 65, 64
2, 42816, Note_off_c, 0, 62, 64
2, 42816, Note_on_c, 0, 61, 92
2, 42816, Note_on_c, 0, 64, 92
2, 43008, Note_off_c, 0, 64, 64
2, 43008, Note_off_c, 0, 61, 64
2, 43008, Note_on_c, 0, 62, 92
2, 43200, Note_off_c, 0, 62, 64
2, 43200, Note_on_c, 0, 64, 92
2, 43296, Note_off_c, 0, 64, 64
2, 43296, Note_on_c, 0, 65, 92
2, 43392, Note_off_c, 0, 65, 64
2, 43392, Note_on_c, 0, 64, 92
2, 43488, Note_off_c, 0, 64, 64
2, 43488, Note_on_c, 0, 65, 92
2, 43584, Note_off_c, 0, 65, 64
2, 43584, Note_on_c, 0, 62, 92
2, 43776, Note_off_c, 0, 62, 64
2, 43776, Note_on_c, 0, 61, 92
2, 43776, Note_on_c, 0, 64, 92
2, 43776, Note_on_c, 0, 69, 92
2, 44160, Note_off_c, 0, 69, 64
2, 44160, Note_off_c, 0, 64, 64
2, 44160, Note_off_c, 0, 61, 64
2, 44160, Note_on_c, 0, 62, 92
2, 44160, Note_on_c, 0, 65, 92
2, 44160, Note_on_c, 0, 69, 92
2, 44544, Note_off_c, 0, 69, 64
2, 44544, Note_off_c, 0, 65, 64
2, 44544, Note_on_c, 0, 67, 92
2, 44736, Note_off_c, 0, 62, 64
2, 44736, Note_on_c, 0, 61, 92
2, 44928, Note_off_c, 0, 61, 64
2, 44928, Note_off_c, 0, 67, 64
2, 44928, Note_on_c, 0, 62, 92
2, 44928, Note_on_c, 0, 65, 92
2, 45312, Note_off_c, 0, 65, 64
2, 45312, Note_on_c, 0, 64, 92
2, 45696, Note_off_c, 0, 62, 64
2, 45696, Note_on_c, 0, 62, 92
2, 45744, Note_off_c, 0, 62, 64
2, 45744, Note_on_c, 0, 61, 92
2, 45792, Note_off_c, 0, 61, 64
2, 45792, Note_on_c, 0, 62, 92
2, 45840, Note_off_c, 0, 62, 64
2, 45840, Note_on_c, 0, 61, 92
2, 45888, Note_off_c, 0, 61, 64
2, 45888, Note_on_c, 0, 62, 92
2, 45936, Note_off_c, 0, 62, 64
2, 45936, Note_on_c, 0, 61, 92
2, 45984, Note_off_c, 0, 61, 64
2, 45984, Note_on_c, 0, 62, 92
2, 46032, Note_off_c, 0, 62, 64
2, 46032, Note_on_c, 0, 61, 92
2, 46080, Note_off_c, 0, 61, 64
2, 46080, Note_off_c, 0, 64, 64
2, 46080, Note_on_c, 0, 62, 92
2, 46464, Note_off_c, 0, 62, 64
2, 46656, Note_on_c, 0, 69, 92
2, 46848, Note_off_c, 0, 69, 64
2, 46848, Note_on_c, 0, 65, 92
2, 47040, Note_off_c, 0, 65, 64
2, 47040, Note_on_c, 0, 69, 92
2, 47232, Note_off_c, 0, 69, 64
2, 47232, Note_on_c, 0, 64, 92
2, 47424, Note_off_c, 0, 64, 64
2, 47424, Note_on_c, 0, 69, 92
2, 47616, Note_off_c, 0, 69, 64
2, 47616, Note_on_c, 0, 62, 92
2, 47808, Note_off_c, 0, 62, 64
2, 47808, Note_on_c, 0, 65, 92
2, 48000, Note_off_c, 0, 65, 64
2, 48000, Note_on_c, 0, 70, 92
2, 48384, Note_off_c, 0, 70, 64
2, 48384, Note_on_c, 0, 69, 92
2, 48576, Note_off_c, 0, 69, 64
2, 48576, Note_on_c, 0, 71, 92
2, 48672, Note_off_c, 0, 71, 64
2, 48672, Note_on_c, 0, 73, 92
2, 48768, Note_off_c, 0, 73, 64
2, 48768, Note_on_c, 0, 74, 92
2, 49344, Note_off_c, 0, 74, 64
2, 49344, Note_on_c, 0, 73, 92
2, 49440, Note_off_c, 0, 73, 64
2, 49440, Note_on_c, 0, 71, 92
2, 49536, Note_off_c, 0, 71, 64
2, 49536, Note_on_c, 0, 69, 92
2, 49728, Note_off_c, 0, 69, 64
2, 49728, Note_on_c, 0, 67, 92
2, 49920, Note_off_c, 0, 67, 64
2, 49920, Note_on_c, 0, 65, 92
2, 50112, Note_off_c, 0, 65, 64
2, 50112, Note_on_c, 0, 62, 92
2, 50208, Note_off_c, 0, 62, 64
2, 50208, Note_on_c, 0, 64, 92
2, 50304, Note_off_c, 0, 64, 64
2, 50304, Note_on_c, 0, 65, 92
2, 50400, Note_off_c, 0, 65, 64
2, 50400, Note_on_c, 0, 67, 92
2, 50496, Note_off_c, 0, 67, 64
2, 50496, Note_on_c, 0, 65, 92
2, 50496, Note_on_c, 0, 62, 92
2, 50592, Note_off_c, 0, 65, 64
2, 50592, Note_on_c, 0, 67, 92
2, 50688, Note_off_c, 0, 67, 64
2, 50688, Note_off_c, 0, 62, 64
2, 50688, Note_on_c, 0, 60, 92
2, 50688, Note_on_c, 0, 69, 92
2, 50880, Note_off_c, 0, 60, 64
2, 50880, Note_on_c, 0, 64, 92
2, 51072, Note_off_c, 0, 64, 64
2, 51072, Note_off_c, 0, 69, 64
2, 51072, Note_on_c, 0, 59, 92
2, 51072, Note_on_c, 0, 68, 92
2, 51264, Note_off_c, 0, 59, 64
2, 51264, Note_on_c, 0, 64, 92
2, 51456, Note_off_c, 0, 64, 64
2, 51456, Note_off_c, 0, 68, 64
2, 51456, Note_on_c, 0, 57, 92
2, 51456, Note_on_c, 0, 69, 92
2, 51648, Note_off_c, 0, 57, 64
2, 51648, Note_on_c, 0, 60, 92
2, 51840, Note_off_c, 0, 60, 64
2, 51840, Note_off_c, 0, 69, 64
2, 51840, Note_on_c, 0, 65, 92
2, 52032, Note_on_c, 0, 69, 92
2, 52128, Note_off_c, 0, 69, 64
2, 52128, Note_on_c, 0, 71, 92
2, 52224, Note_off_c, 0, 71, 64
2, 52224, Note_off_c, 0, 65, 64
2, 52224, Note_on_c, 0, 64, 92
2, 52224, Note_on_c, 0, 72, 92
2, 52416, Note_off_c, 0, 64, 64
2, 52416, Note_on_c, 0, 66, 92
2, 52512, Note_off_c, 0, 66, 64
2, 52512, Note_on_c, 0, 68, 92
2, 52608, Note_off_c, 0, 68, 64
2, 52608, Note_on_c, 0, 69, 92
2, 52704, Note_off_c, 0, 72, 64
2, 52704, Note_on_c, 0, 74, 92
2, 52800, Note_off_c, 0, 74, 64
2, 52800, Note_on_c, 0, 72, 92
2, 52896, Note_off_c, 0, 72, 64
2, 52896, Note_on_c, 0, 74, 92
2, 52992, Note_off_c, 0, 74, 64
2, 52992, Note_on_c, 0, 76, 92
2, 53184, Note_off_c, 0, 69, 64
2, 53184, Note_on_c, 0, 68, 92
2, 53280, Note_off_c, 0, 68, 64
2, 53280, Note_on_c, 0, 66, 92
2, 53376, Note_off_c, 0, 66, 64
2, 53376, Note_off_c, 0, 76, 64
2, 53376, Note_on_c, 0, 69, 92
2, 53376, Note_on_c, 0, 64, 92
2, 53424, Note_off_c, 0, 69, 64
2, 53424, Note_on_c, 0, 68, 92
2, 53472, Note_off_c, 0, 68, 64
2, 53472, Note_on_c, 0, 69, 92
2, 53520, Note_off_c, 0, 69, 64
2, 53520, Note_on_c, 0, 68, 92
2, 53568, Note_off_c, 0, 68, 64
2, 53568, Note_off_c, 0, 64, 64
2, 53568, Note_on_c, 0, 69, 92
2, 53568, Note_on_c, 0, 62, 92
2, 53616, Note_off_c, 0, 69, 64
2, 53616, Note_on_c, 0, 68, 92
2, 53664, Note_off_c, 0, 68, 64
2, 53664, Note_on_c, 0, 69, 92
2, 53712, Note_off_c, 0, 69, 64
2, 53712, Note_on_c, 0, 68, 92
2, 53760, Note_off_c, 0, 68, 64
2, 53760, Note_off_c, 0, 62, 64
2, 53760, Note_on_c, 0, 69, 92
2, 53760, Note_on_c, 0, 61, 92
2, 53952, Note_off_c, 0, 61, 64
2, 53952, Note_on_c, 0, 57, 92
2, 54144, Note_off_c, 0, 57, 64
2, 54144, Note_off_c, 0, 69, 64
2, 54144, Note_on_c, 0, 67, 92
2, 54144, Note_on_c, 0, 59, 92
2, 54336, Note_off_c, 0, 59, 64
2, 54336, Note_off_c, 0, 67, 64
2, 54336, Note_on_c, 0, 64, 92
2, 54336, Note_on_c, 0, 61, 92
2, 54528, Note_off_c, 0, 61, 64
2, 54528, Note_off_c, 0, 64, 64
2, 54528, Note_on_c, 0, 62, 92
2, 54528, Note_on_c, 0, 65, 92
2, 54912, Note_off_c, 0, 65, 64
2, 54912, Note_on_c, 0, 67, 92
2, 55104, Note_off_c, 0, 67, 64
2, 55104, Note_off_c, 0, 62, 64
2, 55104, Note_on_c, 0, 61, 92
2, 55104, Note_on_c, 0, 64, 92
2, 55296, Note_off_c, 0, 64, 64
2, 55296, Note_off_c, 0, 61, 64
2, 55296, Note_on_c, 0, 62, 92
2, 55296, Note_on_c, 0, 65, 92
2, 55680, Note_off_c, 0, 65, 64
2, 55680, Note_off_c, 0, 62, 64
2, 55872, Note_on_c, 0, 62, 92
2, 55872, Note_on_c, 0, 65, 92
2, 55968, Note_off_c, 0, 65, 64
2, 55968, Note_on_c, 0, 67, 92
2, 56064, Note_off_c, 0, 67, 64
2, 56064, Note_off_c, 0, 62, 64
2, 56064, Note_on_c, 0, 69, 92
2, 56064, Note_on_c, 0, 61, 92
2, 56256, Note_off_c, 0, 61, 64
2, 56256, Note_on_c, 0, 62, 92
2, 56352, Note_off_c, 0, 62, 64
2, 56352, Note_on_c, 0, 64, 92
2, 56448, Note_off_c, 0, 64, 64
2, 56448, Note_on_c, 0, 65, 92
2, 56640, Note_off_c, 0, 69, 64
2, 56640, Note_on_c, 0, 70, 92
2, 56736, Note_off_c, 0, 70, 64
2, 56736, Note_on_c, 0, 69, 92
2, 56832, Note_off_c, 0, 69, 64
2, 56832, Note_off_c, 0, 65, 64
2, 56832, Note_on_c, 0, 64, 92
2, 56832, Note_on_c, 0, 67, 92
2, 57216, Note_off_c, 0, 67, 64
2, 57216, Note_off_c, 0, 64, 64
2, 57216, Note_on_c, 0, 73, 92
2, 57216, Note_on_c, 0, 76, 92
2, 57408, Note_off_c, 0, 73, 64
2, 57408, Note_on_c, 0, 71, 92
2, 57600, Note_off_c, 0, 71, 64
2, 57600, Note_on_c, 0, 69, 92
2, 57792, Note_off_c, 0, 76, 64
2, 57792, Note_on_c, 0, 74, 92
2, 57888, Note_off_c, 0, 74, 64
2, 57888, Note_on_c, 0, 73, 92
2, 57984, Note_off_c, 0, 73, 64
2, 57984, Note_off_c, 0, 69, 64
2, 57984, Note_on_c, 0, 65, 92
2, 57984, Note_on_c, 0, 74, 92
2, 58080, Note_off_c, 0, 74, 64
2, 58080, Note_off_c, 0, 65, 64
2, 58080, Note_on_c, 0, 67, 92
2, 58080, Note_on_c, 0, 76, 92
2, 58176, Note_off_c, 0, 76, 64
2, 58176, Note_off_c, 0, 67, 64
2, 58176, Note_on_c, 0, 69, 92
2, 58176, Note_on_c, 0, 77, 92
2, 58368, Note_off_c, 0, 77, 64
2, 58368, Note_off_c, 0, 69, 64
2, 58368, Note_on_c, 0, 69, 92
2, 58368, Note_on_c, 0, 76, 92
2, 58752, Note_off_c, 0, 76, 64
2, 58752, Note_off_c, 0, 69, 64
2, 58752, Note_on_c, 0, 71, 92
2, 58752, Note_on_c, 0, 74, 92
2, 59136, Note_off_c, 0, 74, 64
2, 59136, Note_on_c, 0, 72, 92
2, 59328, Note_off_c, 0, 71, 64
2, 59328, Note_on_c, 0, 64, 92
2, 59520, Note_off_c, 0, 64, 64
2, 59520, Note_on_c, 0, 69, 92
2, 59712, Note_off_c, 0, 72, 64
2, 59712, Note_on_c, 0, 74, 92
2, 59904, Note_off_c, 0, 74, 64
2, 59904, Note_off_c, 0, 69, 64
2, 59904, Note_on_c, 0, 68, 92
2, 59904, Note_on_c, 0, 76, 92
2, 60096, Note_off_c, 0, 68, 64
2, 60096, Note_on_c, 0, 69, 92
2, 60192, Note_off_c, 0, 69, 64
2, 60192, Note_on_c, 0, 71, 92
2, 60288, Note_off_c, 0, 71, 64
2, 60288, Note_on_c, 0, 72, 92
2, 60480, Note_off_c, 0, 76, 64
2, 60480, Note_on_c, 0, 78, 92
2, 60576, Note_off_c, 0, 78, 64
2, 60576, Note_on_c, 0, 76, 92
2, 60672, Note_off_c, 0, 76, 64
2, 60672, Note_off_c, 0, 72, 64
2, 60672, Note_on_c, 0, 75, 92
2, 60672, Note_on_c, 0, 66, 92
2, 61056, Note_off_c, 0, 66, 64
2, 61056, Note_off_c, 0, 75, 64
2, 61056, Note_on_c, 0, 76, 92
2, 61056, Note_on_c, 0, 68, 92
2, 61440, Note_off_c, 0, 68, 64
2, 61440, Note_on_c, 0, 69, 92
2, 61632, Note_off_c, 0, 76, 64
2, 61632, Note_on_c, 0, 74, 92
2, 61824, Note_off_c, 0, 74, 64
2, 61824, Note_off_c, 0, 69, 64
2, 61824, Note_on_c, 0, 64, 92
2, 61824, Note_on_c, 0, 72, 92
2, 62016, Note_off_c, 0, 72, 64
2, 62016, Note_on_c, 0, 74, 92
2, 62112, Note_off_c, 0, 74, 64
2, 62112, Note_on_c, 0, 72, 92
2, 62208, Note_off_c, 0, 72, 64
2, 62208, Note_off_c, 0, 64, 64
2, 62208, Note_on_c, 0, 71, 92
2, 62208, Note_on_c, 0, 65, 92
2, 62400, Note_off_c, 0, 65, 64
2, 62400, Note_on_c, 0, 67, 92
2, 62496, Note_off_c, 0, 67, 64
2, 62496, Note_on_c, 0, 65, 92
2, 62592, Note_off_c, 0, 65, 64
2, 62592, Note_off_c, 0, 71, 64
2, 62592, Note_on_c, 0, 64, 92
2, 62784, Note_on_c, 0, 74, 92
2, 62976, Note_off_c, 0, 74, 64
2, 62976, Note_on_c, 0, 72, 92
2, 63168, Note_off_c, 0, 72, 64
2, 63168, Note_on_c, 0, 76, 92
2, 63360, Note_off_c, 0, 76, 64
2, 63360, Note_off_c, 0, 64, 64
2, 63360, Note_on_c, 0, 64, 92
2, 63360, Note_on_c, 0, 71, 92
2, 63552, Note_off_c, 0, 71, 64
2, 63552, Note_on_c, 0, 76, 92
2, 63744, Note_off_c, 0, 76, 64
2, 63744, Note_off_c, 0, 64, 64
2, 63744, Note_on_c, 0, 64, 92
2, 63744, Note_on_c, 0, 69, 92
2, 63936, Note_off_c, 0, 69, 64
2, 63936, Note_on_c, 0, 72, 92
2, 64128, Note_off_c, 0, 72, 64
2, 64128, Note_off_c, 0, 64, 64
2, 64128, Note_on_c, 0, 77, 92
2, 64320, Note_on_c, 0, 72, 92
2, 64512, Note_off_c, 0, 72, 64
2, 64512, Note_on_c, 0, 74, 92
2, 64704, Note_off_c, 0, 74, 64
2, 64704, Note_on_c, 0, 71, 92
2, 64896, Note_off_c, 0, 71, 64
2, 64896, Note_on_c, 0, 67, 92
2, 65088, Note_off_c, 0, 77, 64
2, 65088, Note_on_c, 0, 76, 92
2, 65280, Note_off_c, 0, 67, 64
2, 65280, Note_on_c, 0, 69, 92
2, 65472, Note_off_c, 0, 69, 64
2, 65472, Note_off_c, 0, 76, 64
2, 65472, Note_on_c, 0, 69, 92
2, 65664, Note_off_c, 0, 69, 64
2, 65664, Note_on_c, 0, 74, 92
2, 65856, Note_off_c, 0, 74, 64
2, 65856, Note_on_c, 0, 76, 92
2, 65952, Note_off_c, 0, 76, 64
2, 65952, Note_on_c, 0, 77, 92
2, 66048, Note_off_c, 0, 77, 64
2, 66048, Note_on_c, 0, 62, 92
2, 66048, Note_on_c, 0, 71, 92
2, 66240, Note_off_c, 0, 71, 64
2, 66240, Note_on_c, 0, 69, 92
2, 66336, Note_off_c, 0, 69, 64
2, 66336, Note_on_c, 0, 67, 92
2, 66432, Note_off_c, 0, 62, 64
2, 66432, Note_on_c, 0, 72, 92
2, 66624, Note_off_c, 0, 67, 64
2, 66624, Note_on_c, 0, 65, 92
2, 66720, Note_off_c, 0, 65, 64
2, 66720, Note_on_c, 0, 64, 92
2, 66816, Note_off_c, 0, 64, 64
2, 66816, Note_on_c, 0, 62, 92
2, 67200, Note_off_c, 0, 62, 64
2, 67200, Note_off_c, 0, 72, 64
2, 67200, Note_on_c, 0, 71, 92
2, 67392, Note_on_c, 0, 67, 92
2, 67584, Note_off_c, 0, 67, 64
2, 67584, Note_off_c, 0, 71, 64
2, 67584, Note_on_c, 0, 72, 92
2, 67584, Note_on_c, 0, 64, 92
2, 67776, Note_off_c, 0, 64, 64
2, 67776, Note_on_c, 0, 67, 92
2, 67968, Note_off_c, 0, 67, 64
2, 67968, Note_off_c, 0, 72, 64
2, 67968, Note_on_c, 0, 62, 92
2, 68160, Note_off_c, 0, 62, 64
2, 68160, Note_on_c, 0, 71, 92
2, 68160, Note_on_c, 0, 67, 92
2, 68352, Note_off_c, 0, 67, 64
2, 68352, Note_off_c, 0, 71, 64
2, 68352, Note_on_c, 0, 72, 92
2, 68352, Note_on_c, 0, 60, 92
2, 68544, Note_off_c, 0, 60, 64
2, 68544, Note_on_c, 0, 64, 92
2, 68736, Note_off_c, 0, 64, 64
2, 68736, Note_off_c, 0, 72, 64
2, 68736, Note_on_c, 0, 69, 92
2, 68928, Note_on_c, 0, 72, 92
2, 69024, Note_off_c, 0, 72, 64
2, 69024, Note_on_c, 0, 74, 92
2, 69120, Note_off_c, 0, 74, 64
2, 69120, Note_off_c, 0, 69, 64
2, 69120, Note_on_c, 0, 67, 92
2, 69120, Note_on_c, 0, 76, 92
2, 69312, Note_off_c, 0, 67, 64
2, 69312, Note_on_c, 0, 69, 92
2, 69408, Note_off_c, 0, 69, 64
2, 69408, Note_on_c, 0, 71, 92
2, 69504, Note_off_c, 0, 71, 64
2, 69504, Note_on_c, 0, 72, 92
2, 69600, Note_off_c, 0, 76, 64
2, 69600, Note_on_c, 0, 77, 92
2, 69696, Note_off_c, 0, 77, 64
2, 69696, Note_on_c, 0, 76, 92
2, 69792, Note_off_c, 0, 76, 64
2, 69792, Note_on_c, 0, 77, 92
2, 69888, Note_off_c, 0, 77, 64
2, 69888, Note_on_c, 0, 74, 92
2, 70080, Note_off_c, 0, 72, 64
2, 70080, Note_on_c, 0, 71, 92
2, 70176, Note_off_c, 0, 71, 64
2, 70176, Note_on_c, 0, 69, 92
2, 70272, Note_off_c, 0, 69, 64
2, 70272, Note_on_c, 0, 67, 92
2, 70464, Note_off_c, 0, 67, 64
2, 70464, Note_on_c, 0, 65, 92
2, 70656, Note_off_c, 0, 65, 64
2, 70656, Note_on_c, 0, 64, 92
2, 70848, Note_off_c, 0, 74, 64
2, 70848, Note_on_c, 0, 72, 92
2, 70944, Note_off_c, 0, 72, 64
2, 70944, Note_on_c, 0, 70, 92
2, 71040, Note_off_c, 0, 70, 64
2, 71040, Note_off_c, 0, 64, 64
2, 71040, Note_on_c, 0, 69, 92
2, 71232, Note_off_c, 0, 69, 64
2, 71232, Note_on_c, 0, 64, 92
2, 71232, Note_on_c, 0, 67, 92
2, 71424, Note_off_c, 0, 67, 64
2, 71424, Note_off_c, 0, 64, 64
2, 71424, Note_on_c, 0, 65, 92
2, 71520, Note_on_c, 0, 69, 92
2, 71616, Note_off_c, 0, 69, 64
2, 71616, Note_on_c, 0, 67, 92
2, 71712, Note_off_c, 0, 67, 64
2, 71712, Note_on_c, 0, 69, 92
2, 71808, Note_off_c, 0, 69, 64
2, 71808, Note_on_c, 0, 70, 92
2, 71904, Note_off_c, 0, 65, 64
2, 71904, Note_on_c, 0, 64, 92
2, 72000, Note_off_c, 0, 64, 64
2, 72000, Note_on_c, 0, 65, 92
2, 72096, Note_off_c, 0, 65, 64
2, 72096, Note_on_c, 0, 62, 92
2, 72192, Note_off_c, 0, 62, 64
2, 72192, Note_on_c, 0, 64, 92
2, 72384, Note_off_c, 0, 64, 64
2, 72384, Note_off_c, 0, 70, 64
2, 72384, Note_on_c, 0, 65, 92
2, 72384, Note_on_c, 0, 69, 92
2, 72576, Note_off_c, 0, 69, 64
2, 72576, Note_on_c, 0, 67, 92
2, 72768, Note_off_c, 0, 65, 64
2, 72768, Note_on_c, 0, 64, 92
2, 72960, Note_off_c, 0, 64, 64
2, 72960, Note_off_c, 0, 67, 64
2, 72960, Note_on_c, 0, 65, 92
2, 72960, Note_on_c, 0, 69, 92
2, 73344, Note_off_c, 0, 69, 64
2, 73344, Note_on_c, 0, 70, 92
2, 73536, Note_off_c, 0, 70, 64
2, 73536, Note_off_c, 0, 65, 64
2, 73536, Note_on_c, 0, 67, 92
2, 73536, Note_on_c, 0, 64, 92
2, 73728, Note_off_c, 0, 64, 64
2, 73728, Note_on_c, 0, 69, 92
2, 73920, Note_off_c, 0, 67, 64
2, 73920, Note_on_c, 0, 65, 92
2, 74016, Note_off_c, 0, 65, 64
2, 74016, Note_on_c, 0, 64, 92
2, 74112, Note_off_c, 0, 64, 64
2, 74112, Note_on_c, 0, 65, 92
2, 74304, Note_off_c, 0, 69, 64
2, 74304, Note_on_c, 0, 71, 92
2, 74496, Note_off_c, 0, 71, 64
2, 74496, Note_off_c, 0, 65, 64
2, 74496, Note_on_c, 0, 64, 92
2, 74496, Note_on_c, 0, 72, 92
2, 74688, Note_off_c, 0, 64, 64
2, 74688, Note_on_c, 0, 65, 92
2, 74784, Note_off_c, 0, 65, 64
2, 74784, Note_on_c, 0, 67, 92
2, 74880, Note_off_c, 0, 67, 64
2, 74880, Note_on_c, 0, 69, 92
2, 75072, Note_off_c, 0, 72, 64
2, 75072, Note_on_c, 0, 74, 92
2, 75168, Note_off_c, 0, 74, 64
2, 75168, Note_on_c, 0, 72, 92
2, 75264, Note_off_c, 0, 72, 64
2, 75264, Note_off_c, 0, 69, 64
2, 75264, Note_on_c, 0, 62, 92
2, 75264, Note_on_c, 0, 71, 92
2, 75648, Note_off_c, 0, 71, 64
2, 75648, Note_off_c, 0, 62, 64
2, 75648, Note_on_c, 0, 72, 92
2, 75648, Note_on_c, 0, 64, 92
2, 76224, Note_off_c, 0, 72, 64
2, 76224, Note_on_c, 0, 71, 92
2, 76320, Note_off_c, 0, 71, 64
2, 76320, Note_on_c, 0, 69, 92
2, 76416, Note_off_c, 0, 69, 64
2, 76416, Note_off_c, 0, 64, 64
2, 76416, Note_on_c, 0, 67, 92
2, 76608, Note_off_c, 0, 67, 64
2, 76608, Note_on_c, 0, 62, 92
2, 76608, Note_on_c, 0, 65, 92
2, 76800, Note_off_c, 0, 65, 64
2, 76800, Note_off_c, 0, 62, 64
2, 76800, Note_on_c, 0, 60, 92
2, 76800, Note_on_c, 0, 64, 92
2, 76992, Note_off_c, 0, 64, 64
2, 76992, Note_on_c, 0, 67, 92
2, 77184, Note_off_c, 0, 67, 64
2, 77184, Note_off_c, 0, 60, 64
2, 77184, Note_on_c, 0, 62, 92
2, 77376, Note_on_c, 0, 67, 92
2, 77568, Note_off_c, 0, 67, 64
2, 77568, Note_off_c, 0, 62, 64
2, 77568, Note_on_c, 0, 60, 92
2, 77568, Note_on_c, 0, 64, 92
2, 77760, Note_off_c, 0, 64, 64
2, 77760, Note_on_c, 0, 67, 92
2, 77952, Note_off_c, 0, 67, 64
2, 77952, Note_off_c, 0, 60, 64
2, 77952, Note_on_c, 0, 60, 92
2, 78144, Note_on_c, 0, 64, 92
2, 78336, Note_off_c, 0, 64, 64
2, 78336, Note_off_c, 0, 60, 64
2, 78336, Note_on_c, 0, 65, 92
2, 78720, Note_off_c, 0, 65, 64
2, 78720, Note_on_c, 0, 64, 92
2, 79104, Note_off_c, 0, 64, 64
2, 79104, Note_on_c, 0, 65, 92
2, 79488, Note_off_c, 0, 65, 64
2, 79680, Note_on_c, 0, 62, 92
2, 79680, Note_on_c, 0, 74, 92
2, 79776, Note_off_c, 0, 74, 64
2, 79776, Note_on_c, 0, 72, 92
2, 79872, Note_off_c, 0, 72, 64
2, 79872, Note_off_c, 0, 62, 64
2, 79872, Note_on_c, 0, 70, 92
2, 79872, Note_on_c, 0, 62, 92
2, 80064, Note_off_c, 0, 70, 64
2, 80064, Note_on_c, 0, 74, 92
2, 80256, Note_off_c, 0, 74, 64
2, 80256, Note_off_c, 0, 62, 64
2, 80256, Note_on_c, 0, 69, 92
2, 80256, Note_on_c, 0, 62, 92
2, 80448, Note_off_c, 0, 69, 64
2, 80448, Note_on_c, 0, 74, 92
2, 80640, Note_off_c, 0, 74, 64
2, 80640, Note_off_c, 0, 62, 64
2, 80640, Note_on_c, 0, 70, 92
2, 80640, Note_on_c, 0, 62, 92
2, 80832, Note_off_c, 0, 70, 64
2, 80832, Note_on_c, 0, 74, 92
2, 81024, Note_off_c, 0, 74, 64
2, 81024, Note_off_c, 0, 62, 64
2, 81024, Note_on_c, 0, 67, 92
2, 81216, Note_off_c, 0, 67, 64
2, 81216, Note_on_c, 0, 64, 92
2, 81216, Note_on_c, 0, 76, 92
2, 81312, Note_off_c, 0, 76, 64
2, 81312, Note_on_c, 0, 74, 92
2, 81408, Note_off_c, 0, 74, 64
2, 81408, Note_off_c, 0, 64, 64
2, 81408, Note_on_c, 0, 73, 92
2, 81408, Note_on_c, 0, 64, 92
2, 81600, Note_off_c, 0, 73, 64
2, 81600, Note_on_c, 0, 76, 92
2, 81792, Note_off_c, 0, 76, 64
2, 81792, Note_off_c, 0, 64, 64
2, 81792, Note_on_c, 0, 71, 92
2, 81792, Note_on_c, 0, 64, 92
2, 81984, Note_off_c, 0, 71, 64
2, 81984, Note_on_c, 0, 76, 92
2, 82176, Note_off_c, 0, 76, 64
2, 82176, Note_off_c, 0, 64, 64
2, 82176, Note_on_c, 0, 73, 92
2, 82176, Note_on_c, 0, 64, 92
2, 82368, Note_off_c, 0, 73, 64
2, 82368, Note_on_c, 0, 76, 92
2, 82560, Note_off_c, 0, 76, 64
2, 82560, Note_off_c, 0, 64, 64
2, 82560, Note_on_c, 0, 69, 92
2, 82752, Note_off_c, 0, 69, 64
2, 82752, Note_on_c, 0, 72, 92
2, 82752, Note_on_c, 0, 64, 92
2, 82752, Note_on_c, 0, 69, 92
2, 82848, Note_off_c, 0, 69, 64
2, 82848, Note_on_c, 0, 67, 92
2, 82944, Note_off_c, 0, 67, 64
2, 82944, Note_off_c, 0, 64, 64
2, 82944, Note_off_c, 0, 72, 64
2, 82944, Note_on_c, 0, 62, 92
2, 82944, Note_on_c, 0, 74, 92
2, 82944, Note_on_c, 0, 65, 92
2, 83136, Note_off_c, 0, 65, 64
2, 83136, Note_on_c, 0, 69, 92
2, 83328, Note_off_c, 0, 69, 64
2, 83328, Note_off_c, 0, 74, 64
2, 83328, Note_off_c, 0, 62, 64
2, 83328, Note_on_c, 0, 64, 92
2, 83520, Note_on_c, 0, 69, 92
2, 83712, Note_off_c, 0, 69, 64
2, 83712, Note_off_c, 0, 64, 64
2, 83712, Note_on_c, 0, 62, 92
2, 83904, Note_off_c, 0, 62, 64
2, 83904, Note_on_c, 0, 65, 92
2, 84096, Note_off_c, 0, 65, 64
2, 84096, Note_on_c, 0, 70, 92
2, 84288, Note_on_c, 0, 74, 92
2, 84480, Note_off_c, 0, 74, 64
2, 84480, Note_off_c, 0, 70, 64
2, 84480, Note_on_c, 0, 69, 92
2, 84480, Note_on_c, 0, 73, 92
2, 84672, Note_off_c, 0, 73, 64
2, 84672, Note_off_c, 0, 69, 64
2, 84672, Note_on_c, 0, 71, 92
2, 84672, Note_on_c, 0, 74, 92
2, 84768, Note_off_c, 0, 74, 64
2, 84768, Note_off_c, 0, 71, 64
2, 84768, Note_on_c, 0, 73, 92
2, 84768, Note_on_c, 0, 76, 92
2, 84864, Note_off_c, 0, 76, 64
2, 84864, Note_off_c, 0, 73, 64
2, 84864, Note_on_c, 0, 77, 92
2, 84864, Note_on_c, 0, 74, 92
2, 85248, Note_off_c, 0, 77, 64
2, 85248, Note_on_c, 0, 76, 92
2, 85440, Note_off_c, 0, 74, 64
2, 85440, Note_on_c, 0, 73, 92
2, 85536, Note_off_c, 0, 73, 64
2, 85536, Note_on_c, 0, 71, 92
2, 85632, Note_off_c, 0, 71, 64
2, 85632, Note_on_c, 0, 69, 92
2, 85824, Note_off_c, 0, 69, 64
2, 85824, Note_on_c, 0, 67, 92
2, 86016, Note_off_c, 0, 67, 64
2, 86016, Note_off_c, 0, 76, 64
2, 86016, Note_on_c, 0, 74, 92
2, 86016, Note_on_c, 0, 65, 92
2, 86400, Note_off_c, 0, 65, 64
2, 86400, Note_off_c, 0, 74, 64
2, 86592, Note_on_c, 0, 66, 92
2, 86592, Note_on_c, 0, 69, 92
2, 86784, Note_off_c, 0, 69, 64
2, 86784, Note_off_c, 0, 66, 64
2, 86784, Note_on_c, 0, 67, 92
2, 86784, Note_on_c, 0, 74, 92
2, 87168, Note_off_c, 0, 74, 64
2, 87168, Note_off_c, 0, 67, 64
2, 87168, Note_on_c, 0, 69, 92
2, 87168, Note_on_c, 0, 72, 92
2, 87552, Note_off_c, 0, 72, 64
2, 87552, Note_on_c, 0, 70, 92
2, 87744, Note_off_c, 0, 69, 64
2, 87744, Note_on_c, 0, 62, 92
2, 87936, Note_off_c, 0, 62, 64
2, 87936, Note_on_c, 0, 67, 92
2, 88128, Note_off_c, 0, 70, 64
2, 88128, Note_on_c, 0, 72, 92
2, 88320, Note_off_c, 0, 72, 64
2, 88320, Note_off_c, 0, 67, 64
2, 88320, Note_on_c, 0, 66, 92
2, 88320, Note_on_c, 0, 74, 92
2, 88512, Note_off_c, 0, 66, 64
2, 88512, Note_on_c, 0, 67, 92
2, 88608, Note_off_c, 0, 67, 64
2, 88608, Note_on_c, 0, 69, 92
2, 88704, Note_off_c, 0, 69, 64
2, 88704, Note_on_c, 0, 70, 92
2, 88896, Note_off_c, 0, 74, 64
2, 88896, Note_on_c, 0, 76, 92
2, 88992, Note_off_c, 0, 76, 64
2, 88992, Note_on_c, 0, 74, 92
2, 89088, Note_off_c, 0, 74, 64
2, 89088, Note_off_c, 0, 70, 64
2, 89088, Note_on_c, 0, 64, 92
2, 89088, Note_on_c, 0, 73, 92
2, 89472, Note_off_c, 0, 73, 64
2, 89472, Note_off_c, 0, 64, 64
2, 89472, Note_on_c, 0, 74, 92
2, 89472, Note_on_c, 0, 65, 92
2, 89856, Note_off_c, 0, 65, 64
2, 89856, Note_on_c, 0, 67, 92
2, 90048, Note_off_c, 0, 74, 64
2, 90048, Note_on_c, 0, 72, 92
2, 90240, Note_off_c, 0, 72, 64
2, 90240, Note_off_c, 0, 67, 64
2, 90240, Note_on_c, 0, 62, 92
2, 90240, Note_on_c, 0, 70, 92
2, 90432, Note_off_c, 0, 62, 64
2, 90432, Note_on_c, 0, 64, 92
2, 90528, Note_off_c, 0, 64, 64
2, 90528, Note_on_c, 0, 62, 92
2, 90624, Note_off_c, 0, 62, 64
2, 90624, Note_off_c, 0, 70, 64
2, 90624, Note_on_c, 0, 61, 92
2, 90624, Note_on_c, 0, 69, 92
2, 90816, Note_off_c, 0, 61, 64
2, 90816, Note_on_c, 0, 59, 92
2, 90912, Note_off_c, 0, 59, 64
2, 90912, Note_on_c, 0, 61, 92
2, 91008, Note_off_c, 0, 61, 64
2, 91008, Note_on_c, 0, 62, 92
2, 91200, Note_off_c, 0, 69, 64
2, 91200, Note_on_c, 0, 70, 92
2, 91296, Note_off_c, 0, 70, 64
2, 91296, Note_on_c, 0, 69, 92
2, 91392, Note_off_c, 0, 69, 64
2, 91392, Note_on_c, 0, 67, 92
2, 91584, Note_off_c, 0, 62, 64
2, 91584, Note_on_c, 0, 61, 92
2, 91776, Note_off_c, 0, 61, 64
2, 91776, Note_off_c, 0, 67, 64
2, 91776, Note_on_c, 0, 62, 92
2, 91776, Note_on_c, 0, 65, 92
2, 92160, Note_off_c, 0, 65, 64
2, 92160, Note_on_c, 0, 64, 92
2, 92544, Note_off_c, 0, 62, 64
2, 92544, Note_on_c, 0, 61, 92
2, 92928, Note_off_c, 0, 61, 64
2, 92928, Note_off_c, 0, 64, 64
2, 92928, Note_on_c, 0, 62, 92
2, 93696, Note_off_c, 0, 62, 64
2, 93696, End_track
3, 0, Start_track
3, 0, Title_t, "Track 2"
3, 96, Note_on_c, 0, 50, 92
3, 192, Note_off_c, 0, 50, 64
3, 192, Note_on_c, 0, 52, 92
3, 288, Note_off_c, 0, 52, 64
3, 288, Note_on_c, 0, 53, 92
3, 384, Note_off_c, 0, 53, 64
3, 384, Note_on_c, 0, 55, 92
3, 480, Note_off_c, 0, 55, 64
3, 480, Note_on_c, 0, 57, 92
3, 576, Note_off_c, 0, 57, 64
3, 576, Note_on_c, 0, 59, 92
3, 672, Note_off_c, 0, 59, 64
3, 672, Note_on_c, 0, 61, 92
3, 768, Note_off_c, 0, 61, 64
3, 768, Note_on_c, 0, 62, 92
3, 960, Note_off_c, 0, 62, 64
3, 960, Note_on_c, 0, 57, 92
3, 1152, Note_off_c, 0, 57, 64
3, 1152, Note_on_c, 0, 55, 92
3, 1344, Note_off_c, 0, 55, 64
3, 1344, Note_on_c, 0, 57, 92
3, 1536, Note_off_c, 0, 57, 64
3, 1536, Note_on_c, 0, 52, 92
3, 1536, Note_on_c, 0, 57, 92
3, 1920, Note_off_c, 0, 57, 64
3, 1920, Note_off_c, 0, 52, 64
3, 2304, Note_on_c, 0, 57, 92
3, 2496, Note_off_c, 0, 57, 64
3, 2496, Note_on_c, 0, 57, 92
3, 2688, Note_off_c, 0, 57, 64
3, 2688, Note_on_c, 0, 50, 92
3, 2880, Note_off_c, 0, 50, 64
3, 2880, Note_on_c, 0, 57, 92
3, 3072, Note_off_c, 0, 57, 64
3, 3072, Note_on_c, 0, 57, 92
3, 3456, Note_off_c, 0, 57, 64
3, 3456, Note_on_c, 0, 55, 92
3, 3840, Note_off_c, 0, 55, 64
3, 3840, Note_on_c, 0, 57, 92
3, 4224, Note_off_c, 0, 57, 64
3, 4224, Note_on_c, 0, 58, 92
3, 4608, Note_off_c, 0, 58, 64
3, 4704, Note_on_c, 0, 57, 92
3, 4800, Note_off_c, 0, 57, 64
3, 4800, Note_on_c, 0, 59, 92
3, 4896, Note_off_c, 0, 59, 64
3, 4896, Note_on_c, 0, 61, 92
3, 4992, Note_off_c, 0, 61, 64
3, 5568, Note_on_c, 0, 57, 92
3, 5760, Note_off_c, 0, 57, 64
3, 5760, Note_on_c, 0, 57, 92
3, 5952, Note_off_c, 0, 57, 64
3, 5952, Note_on_c, 0, 57, 92
3, 6528, Note_off_c, 0, 57, 64
3, 6528, Note_on_c, 0, 55, 92
3, 6912, Note_off_c, 0, 55, 64
3, 6912, Note_on_c, 0, 57, 92
3, 7296, Note_off_c, 0, 57, 64
3, 7296, Note_on_c, 0, 57, 92
3, 7680, Note_off_c, 0, 57, 64
3, 7680, Note_on_c, 0, 52, 92
3, 8064, Note_off_c, 0, 52, 64
3, 8064, Note_on_c, 0, 53, 92
3, 8064, Note_on_c, 0, 57, 92
3, 8256, Note_off_c, 0, 53, 64
3, 8256, Note_on_c, 0, 55, 92
3, 8448, Note_off_c, 0, 55, 64
3, 8448, Note_off_c, 0, 57, 64
3, 8448, Note_on_c, 0, 57, 92
3, 9024, Note_off_c, 0, 57, 64
3, 9024, Note_on_c, 0, 55, 92
3, 9216, Note_off_c, 0, 55, 64
3, 9216, Note_on_c, 0, 50, 92
3, 9216, Note_on_c, 0, 53, 92
3, 9216, Note_on_c, 0, 57, 92
3, 9600, Note_off_c, 0, 57, 64
3, 9600, Note_off_c, 0, 53, 64
3, 9600, Note_off_c, 0, 50, 64
3, 10080, Note_on_c, 0, 50, 92
3, 10176, Note_off_c, 0, 50, 64
3, 10176, Note_on_c, 0, 52, 92
3, 10272, Note_off_c, 0, 52, 64
3, 10272, Note_on_c, 0, 53, 92
3, 10368, Note_off_c, 0, 53, 64
3, 10368, Note_on_c, 0, 55, 92
3, 10464, Note_off_c, 0, 55, 64
3, 10464, Note_on_c, 0, 57, 92
3, 10560, Note_off_c, 0, 57, 64
3, 10560, Note_on_c, 0, 59, 92
3, 10656, Note_off_c, 0, 59, 64
3, 10656, Note_on_c, 0, 61, 92
3, 10752, Note_off_c, 0, 61, 64
3, 10752, Note_on_c, 0, 62, 92
3, 10848, Note_off_c, 0, 62, 64
3, 10848, Note_on_c, 0, 57, 92
3, 10944, Note_off_c, 0, 57, 64
3, 10944, Note_on_c, 0, 59, 92
3, 11040, Note_off_c, 0, 59, 64
3, 11040, Note_on_c, 0, 61, 92
3, 11136, Note_off_c, 0, 61, 64
3, 11136, Note_on_c, 0, 62, 92
3, 11232, Note_off_c, 0, 62, 64
3, 11232, Note_on_c, 0, 64, 92
3, 11328, Note_off_c, 0, 64, 64
3, 11328, Note_on_c, 0, 65, 92
3, 11424, Note_off_c, 0, 65, 64
3, 11424, Note_on_c, 0, 67, 92
3, 11520, Note_off_c, 0, 67, 64
3, 11520, Note_on_c, 0, 69, 92
3, 11616, Note_off_c, 0, 69, 64
3, 11616, Note_on_c, 0, 67, 92
3, 11712, Note_off_c, 0, 67, 64
3, 11712, Note_on_c, 0, 65, 92
3, 11808, Note_off_c, 0, 65, 64
3, 11808, Note_on_c, 0, 64, 92
3, 11904, Note_off_c, 0, 64, 64
3, 11904, Note_on_c, 0, 69, 92
3, 12000, Note_off_c, 0, 69, 64
3, 12000, Note_on_c, 0, 67, 92
3, 12096, Note_off_c, 0, 67, 64
3, 12096, Note_on_c, 0, 65, 92
3, 12192, Note_off_c, 0, 65, 64
3, 12192, Note_on_c, 0, 64, 92
3, 12288, Note_off_c, 0, 64, 64
3, 12288, Note_on_c, 0, 62, 92
3, 12384, Note_off_c, 0, 62, 64
3, 12384, Note_on_c, 0, 64, 92
3, 12480, Note_off_c, 0, 64, 64
3, 12480, Note_on_c, 0, 62, 92
3, 12576, Note_off_c, 0, 62, 64
3, 12576, Note_on_c, 0, 60, 92
3, 12672, Note_off_c, 0, 60, 64
3, 12672, Note_on_c, 0, 58, 92
3, 12768, Note_off_c, 0, 58, 64
3, 12768, Note_on_c, 0, 57, 92
3, 12864, Note_off_c, 0, 57, 64
3, 12864, Note_on_c, 0, 58, 92
3, 12960, Note_off_c, 0, 58, 64
3, 12960, Note_on_c, 0, 55, 92
3, 13056, Note_off_c, 0, 55, 64
3, 13056, Note_on_c, 0, 60, 92
3, 13152, Note_off_c, 0, 60, 64
3, 13152, Note_on_c, 0, 62, 92
3, 13248, Note_off_c, 0, 62, 64
3, 13248, Note_on_c, 0, 60, 92
3, 13344, Note_off_c, 0, 60, 64
3, 13344, Note_on_c, 0, 58, 92
3, 13440, Note_off_c, 0, 58, 64
3, 13440, Note_on_c, 0, 57, 92
3, 13536, Note_off_c, 0, 57, 64
3, 13536, Note_on_c, 0, 55, 92
3, 13632, Note_off_c, 0, 55, 64
3, 13632, Note_on_c, 0, 57, 92
3, 13728, Note_off_c, 0, 57, 64
3, 13728, Note_on_c, 0, 53, 92
3, 13824, Note_off_c, 0, 53, 64
3, 13824, Note_on_c, 0, 58, 92
3, 13920, Note_off_c, 0, 58, 64
3, 13920, Note_on_c, 0, 60, 92
3, 14016, Note_off_c, 0, 60, 64
3, 14016, Note_on_c, 0, 58, 92
3, 14112, Note_off_c, 0, 58, 64
3, 14112, Note_on_c, 0, 57, 92
3, 14208, Note_off_c, 0, 57, 64
3, 14208, Note_on_c, 0, 55, 92
3, 14304, Note_off_c, 0, 55, 64
3, 14304, Note_on_c, 0, 57, 92
3, 14400, Note_off_c, 0, 57, 64
3, 14400, Note_on_c, 0, 55, 92
3, 14496, Note_off_c, 0, 55, 64
3, 14496, Note_on_c, 0, 53, 92
3, 14592, Note_off_c, 0, 53, 64
3, 14592, Note_on_c, 0, 52, 92
3, 14688, Note_off_c, 0, 52, 64
3, 14688, Note_on_c, 0, 48, 92
3, 14784, Note_off_c, 0, 48, 64
3, 14784, Note_on_c, 0, 50, 92
3, 14880, Note_off_c, 0, 50, 64
3, 14880, Note_on_c, 0, 52, 92
3, 14976, Note_off_c, 0, 52, 64
3, 14976, Note_on_c, 0, 53, 92
3, 15072, Note_off_c, 0, 53, 64
3, 15072, Note_on_c, 0, 52, 92
3, 15168, Note_off_c, 0, 52, 64
3, 15168, Note_on_c, 0, 50, 92
3, 15264, Note_off_c, 0, 50, 64
3, 15264, Note_on_c, 0, 48, 92
3, 15360, Note_off_c, 0, 48, 64
3, 15360, Note_on_c, 0, 46, 92
3, 15744, Note_off_c, 0, 46, 64
3, 15936, Note_on_c, 0, 46, 92
3, 16128, Note_off_c, 0, 46, 64
3, 16128, Note_on_c, 0, 48, 92
3, 16224, Note_off_c, 0, 48, 64
3, 16224, Note_on_c, 0, 50, 92
3, 16320, Note_off_c, 0, 50, 64
3, 16320, Note_on_c, 0, 48, 92
3, 16416, Note_off_c, 0, 48, 64
3, 16416, Note_on_c, 0, 46, 92
3, 16512, Note_off_c, 0, 46, 64
3, 16512, Note_on_c, 0, 45, 92
3, 16608, Note_off_c, 0, 45, 64
3, 16608, Note_on_c, 0, 50, 92
3, 16704, Note_off_c, 0, 50, 64
3, 16704, Note_on_c, 0, 48, 92
3, 16800, Note_off_c, 0, 48, 64
3, 16800, Note_on_c, 0, 50, 92
3, 16896, Note_off_c, 0, 50, 64
3, 16896, Note_on_c, 0, 46, 92
3, 16992, Note_off_c, 0, 46, 64
3, 16992, Note_on_c, 0, 45, 92
3, 17088, Note_off_c, 0, 45, 64
3, 17088, Note_on_c, 0, 46, 92
3, 17184, Note_off_c, 0, 46, 64
3, 17184, Note_on_c, 0, 43, 92
3, 17280, Note_off_c, 0, 43, 64
3, 17280, Note_on_c, 0, 48, 92
3, 17472, Note_off_c, 0, 48, 64
3, 17472, Note_on_c, 0, 36, 92
3, 17664, Note_off_c, 0, 36, 64
3, 17664, Note_on_c, 0, 53, 92
3, 17856, Note_off_c, 0, 53, 64
3, 17856, Note_on_c, 0, 41, 92
3, 18048, Note_off_c, 0, 41, 64
3, 18432, Note_on_c, 0, 50, 92
3, 18432, Note_on_c, 0, 53, 92
3, 18624, Note_off_c, 0, 53, 64
3, 18624, Note_off_c, 0, 50, 64
3, 18624, Note_on_c, 0, 57, 92
3, 18720, Note_off_c, 0, 57, 64
3, 18720, Note_on_c, 0, 53, 92
3, 18816, Note_on_c, 0, 50, 92
3, 19008, Note_off_c, 0, 50, 64
3, 19008, Note_off_c, 0, 53, 64
3, 19008, Note_on_c, 0, 57, 92
3, 19104, Note_off_c, 0, 57, 64
3, 19104, Note_on_c, 0, 53, 92
3, 19200, Note_on_c, 0, 50, 92
3, 19392, Note_off_c, 0, 50, 64
3, 19392, Note_off_c, 0, 53, 64
3, 19392, Note_on_c, 0, 57, 92
3, 19488, Note_off_c, 0, 57, 64
3, 19488, Note_on_c, 0, 53, 92
3, 19584, Note_on_c, 0, 50, 92
3, 19776, Note_off_c, 0, 50, 64
3, 19776, Note_off_c, 0, 53, 64
3, 19776, Note_on_c, 0, 57, 92
3, 19872, Note_off_c, 0, 57, 64
3, 19872, Note_on_c, 0, 53, 92
3, 20160, Note_off_c, 0, 53, 64
3, 20160, Note_on_c, 0, 51, 92
3, 20160, Note_on_c, 0, 55, 92
3, 20352, Note_off_c, 0, 55, 64
3, 20352, Note_off_c, 0, 51, 64
3, 20352, Note_on_c, 0, 53, 92
3, 20544, Note_off_c, 0, 53, 64
3, 20544, Note_on_c, 0, 51, 92
3, 20544, Note_on_c, 0, 55, 92
3, 20736, Note_off_c, 0, 55, 64
3, 20736, Note_off_c, 0, 51, 64
3, 20832, Note_on_c, 0, 53, 92
3, 20928, Note_off_c, 0, 53, 64
3, 20928, Note_on_c, 0, 55, 92
3, 21024, Note_off_c, 0, 55, 64
3, 21024, Note_on_c, 0, 57, 92
3, 21120, Note_off_c, 0, 57, 64
3, 21120, Note_on_c, 0, 58, 92
3, 21312, Note_off_c, 0, 58, 64
3, 21312, Note_on_c, 0, 57, 92
3, 21504, Note_off_c, 0, 57, 64
3, 21504, Note_on_c, 0, 50, 92
3, 21504, Note_on_c, 0, 55, 92
3, 21696, Note_off_c, 0, 55, 64
3, 21696, Note_off_c, 0, 50, 64
3, 21888, Note_on_c, 0, 50, 92
3, 21888, Note_on_c, 0, 55, 92
3, 22080, Note_off_c, 0, 55, 64
3, 22080, Note_off_c, 0, 50, 64
3, 22272, Note_on_c, 0, 50, 92
3, 22272, Note_on_c, 0, 55, 92
3, 22464, Note_off_c, 0, 55, 64
3, 22464, Note_off_c, 0, 50, 64
3, 22656, Note_on_c, 0, 50, 92
3, 22656, Note_on_c, 0, 55, 92
3, 22848, Note_off_c, 0, 55, 64
3, 22848, Note_off_c, 0, 50, 64
3, 23040, Note_on_c, 0, 55, 92
3, 23232, Note_off_c, 0, 55, 64
3, 23232, Note_on_c, 0, 53, 92
3, 23232, Note_on_c, 0, 57, 92
3, 23424, Note_off_c, 0, 57, 64
3, 23424, Note_off_c, 0, 53, 64
3, 23424, Note_on_c, 0, 55, 92
3, 23616, Note_off_c, 0, 55, 64
3, 23616, Note_on_c, 0, 53, 92
3, 23616, Note_on_c, 0, 57, 92
3, 23808, Note_off_c, 0, 57, 64
3, 23808, Note_off_c, 0, 53, 64
3, 23904, Note_on_c, 0, 55, 92
3, 24000, Note_off_c, 0, 55, 64
3, 24000, Note_on_c, 0, 57, 92
3, 24096, Note_off_c, 0, 57, 64
3, 24096, Note_on_c, 0, 59, 92
3, 24192, Note_off_c, 0, 59, 64
3, 24192, Note_on_c, 0, 60, 92
3, 24384, Note_off_c, 0, 60, 64
3, 24384, Note_on_c, 0, 59, 92
3, 24576, Note_off_c, 0, 59, 64
3, 24576, Note_on_c, 0, 52, 92
3, 24576, Note_on_c, 0, 57, 92
3, 24768, Note_off_c, 0, 57, 64
3, 24768, Note_off_c, 0, 52, 64
3, 24960, Note_on_c, 0, 52, 92
3, 24960, Note_on_c, 0, 57, 92
3, 25152, Note_off_c, 0, 57, 64
3, 25152, Note_off_c, 0, 52, 64
3, 25344, Note_on_c, 0, 52, 92
3, 25344, Note_on_c, 0, 57, 92
3, 25536, Note_off_c, 0, 57, 64
3, 25536, Note_off_c, 0, 52, 64
3, 25728, Note_on_c, 0, 52, 92
3, 25728, Note_on_c, 0, 57, 92
3, 25920, Note_off_c, 0, 57, 64
3, 25920, Note_off_c, 0, 52, 64
3, 26112, Note_on_c, 0, 57, 92
3, 26304, Note_off_c, 0, 57, 64
3, 26304, Note_on_c, 0, 55, 92
3, 26304, Note_on_c, 0, 58, 92
3, 26496, Note_off_c, 0, 58, 64
3, 26496, Note_off_c, 0, 55, 64
3, 26496, Note_on_c, 0, 57, 92
3, 26688, Note_off_c, 0, 57, 64
3, 26688, Note_on_c, 0, 55, 92
3, 26688, Note_on_c, 0, 58, 92
3, 26880, Note_off_c, 0, 58, 64
3, 26880, Note_off_c, 0, 55, 64
3, 26880, Note_on_c, 0, 57, 92
3, 27072, Note_off_c, 0, 57, 64
3, 27072, Note_on_c, 0, 57, 92
3, 27264, Note_off_c, 0, 57, 64
3, 27264, Note_on_c, 0, 55, 92
3, 27456, Note_off_c, 0, 55, 64
3, 27456, Note_on_c, 0, 54, 92
3, 27648, Note_off_c, 0, 54, 64
3, 27648, Note_on_c, 0, 50, 92
3, 27648, Note_on_c, 0, 55, 92
3, 28032, Note_off_c, 0, 55, 64
3, 28032, Note_off_c, 0, 50, 64
3, 28416, Note_on_c, 0, 55, 92
3, 28608, Note_off_c, 0, 55, 64
3, 28608, Note_on_c, 0, 55, 92
3, 28800, Note_off_c, 0, 55, 64
3, 28800, Note_on_c, 0, 53, 92
3, 28992, Note_off_c, 0, 53, 64
3, 28992, Note_on_c, 0, 52, 92
3, 29184, Note_off_c, 0, 52, 64
3, 29184, Note_on_c, 0, 48, 92
3, 29184, Note_on_c, 0, 53, 92
3, 29568, Note_off_c, 0, 53, 64
3, 29568, Note_off_c, 0, 48, 64
3, 30144, Note_on_c, 0, 58, 92
3, 30336, Note_off_c, 0, 58, 64
3, 30336, Note_on_c, 0, 58, 92
3, 30528, Note_off_c, 0, 58, 64
3, 30528, Note_on_c, 0, 58, 92
3, 30720, Note_off_c, 0, 58, 64
3, 30720, Note_on_c, 0, 57, 92
3, 31296, Note_off_c, 0, 57, 64
3, 31296, Note_on_c, 0, 57, 92
3, 31488, Note_off_c, 0, 57, 64
3, 31488, Note_on_c, 0, 55, 92
3, 32064, Note_off_c, 0, 55, 64
3, 32064, Note_on_c, 0, 55, 92
3, 32256, Note_off_c, 0, 55, 64
3, 32256, Note_on_c, 0, 53, 92
3, 32448, Note_on_c, 0, 57, 92
3, 32640, Note_off_c, 0, 57, 64
3, 32832, Note_off_c, 0, 53, 64
3, 32832, Note_on_c, 0, 53, 92
3, 33024, Note_off_c, 0, 53, 64
3, 33024, Note_on_c, 0, 52, 92
3, 33216, Note_on_c, 0, 55, 92
3, 33408, Note_off_c, 0, 55, 64
3, 33600, Note_off_c, 0, 52, 64
3, 33600, Note_on_c, 0, 52, 92
3, 33792, Note_off_c, 0, 52, 64
3, 33792, Note_on_c, 0, 50, 92
3, 33888, Note_on_c, 0, 50, 92
3, 33984, Note_off_c, 0, 50, 64
3, 33984, Note_on_c, 0, 52, 92
3, 34080, Note_off_c, 0, 52, 64
3, 34080, Note_on_c, 0, 53, 92
3, 34176, Note_off_c, 0, 53, 64
3, 34176, Note_off_c, 0, 50, 64
3, 34176, Note_on_c, 0, 55, 92
3, 34272, Note_off_c, 0, 55, 64
3, 34272, Note_on_c, 0, 57, 92
3, 34368, Note_off_c, 0, 57, 64
3, 34368, Note_on_c, 0, 59, 92
3, 34464, Note_off_c, 0, 59, 64
3, 34464, Note_on_c, 0, 61, 92
3, 34560, Note_off_c, 0, 61, 64
3, 34656, Note_on_c, 0, 57, 92
3, 34752, Note_off_c, 0, 57, 64
3, 34752, Note_on_c, 0, 59, 92
3, 34848, Note_off_c, 0, 59, 64
3, 34848, Note_on_c, 0, 61, 92
3, 34944, Note_off_c, 0, 61, 64
3, 36960, Note_on_c, 0, 50, 92
3, 37056, Note_off_c, 0, 50, 64
3, 37056, Note_on_c, 0, 52, 92
3, 37152, Note_off_c, 0, 52, 64
3, 37152, Note_on_c, 0, 53, 92
3, 37248, Note_off_c, 0, 53, 64
3, 37248, Note_on_c, 0, 55, 92
3, 37344, Note_off_c, 0, 55, 64
3, 37344, Note_on_c, 0, 57, 92
3, 37440, Note_off_c, 0, 57, 64
3, 37440, Note_on_c, 0, 59, 92
3, 37536, Note_off_c, 0, 59, 64
3, 37536, Note_on_c, 0, 61, 92
3, 37632, Note_off_c, 0, 61, 64
3, 37632, Note_on_c, 0, 62, 92
3, 37824, Note_off_c, 0, 62, 64
3, 37824, Note_on_c, 0, 57, 92
3, 38016, Note_off_c, 0, 57, 64
3, 38016, Note_on_c, 0, 55, 92
3, 38208, Note_off_c, 0, 55, 64
3, 38208, Note_on_c, 0, 57, 92
3, 38400, Note_off_c, 0, 57, 64
3, 38400, Note_on_c, 0, 52, 92
3, 38400, Note_on_c, 0, 57, 92
3, 38784, Note_off_c, 0, 57, 64
3, 38784, Note_off_c, 0, 52, 64
3, 39072, Note_on_c, 0, 59, 92
3, 39168, Note_off_c, 0, 59, 64
3, 39168, Note_on_c, 0, 57, 92
3, 39360, Note_off_c, 0, 57, 64
3, 39360, Note_on_c, 0, 57, 92
3, 39552, Note_off_c, 0, 57, 64
3, 39552, Note_on_c, 0, 50, 92
3, 39744, Note_off_c, 0, 50, 64
3, 39744, Note_on_c, 0, 57, 92
3, 39936, Note_off_c, 0, 57, 64
3, 39936, Note_on_c, 0, 57, 92
3, 40320, Note_off_c, 0, 57, 64
3, 40320, Note_on_c, 0, 55, 92
3, 40704, Note_off_c, 0, 55, 64
3, 40704, Note_on_c, 0, 57, 92
3, 41088, Note_off_c, 0, 57, 64
3, 41088, Note_on_c, 0, 58, 92
3, 41472, Note_off_c, 0, 58, 64
3, 41568, Note_on_c, 0, 57, 92
3, 41664, Note_off_c, 0, 57, 64
3, 41664, Note_on_c, 0, 59, 92
3, 41760, Note_off_c, 0, 59, 64
3, 41760, Note_on_c, 0, 61, 92
3, 41856, Note_off_c, 0, 61, 64
3, 42432, Note_on_c, 0, 57, 92
3, 42624, Note_off_c, 0, 57, 64
3, 42624, Note_on_c, 0, 57, 92
3, 42816, Note_off_c, 0, 57, 64
3, 42816, Note_on_c, 0, 57, 92
3, 43392, Note_off_c, 0, 57, 64
3, 43392, Note_on_c, 0, 55, 92
3, 43776, Note_off_c, 0, 55, 64
3, 43776, Note_on_c, 0, 57, 92
3, 44160, Note_off_c, 0, 57, 64
3, 44160, Note_on_c, 0, 57, 92
3, 44544, Note_off_c, 0, 57, 64
3, 44544, Note_on_c, 0, 52, 92
3, 44928, Note_off_c, 0, 52, 64
3, 44928, Note_on_c, 0, 53, 92
3, 44928, Note_on_c, 0, 57, 92
3, 45120, Note_off_c, 0, 53, 64
3, 45120, Note_on_c, 0, 55, 92
3, 45312, Note_off_c, 0, 55, 64
3, 45312, Note_off_c, 0, 57, 64
3, 45312, Note_on_c, 0, 57, 92
3, 45888, Note_off_c, 0, 57, 64
3, 45888, Note_on_c, 0, 55, 92
3, 46080, Note_off_c, 0, 55, 64
3, 46080, Note_on_c, 0, 50, 92
3, 46080, Note_on_c, 0, 53, 92
3, 46080, Note_on_c, 0, 57, 92
3, 46464, Note_off_c, 0, 57, 64
3, 46464, Note_off_c, 0, 53, 64
3, 46464, Note_off_c, 0, 50, 64
3, 54336, Note_on_c, 0, 57, 92
3, 54528, Note_off_c, 0, 57, 64
3, 54528, Note_on_c, 0, 53, 92
3, 54720, Note_off_c, 0, 53, 64
3, 54720, Note_on_c, 0, 57, 92
3, 54912, Note_off_c, 0, 57, 64
3, 54912, Note_on_c, 0, 52, 92
3, 55104, Note_off_c, 0, 52, 64
3, 55104, Note_on_c, 0, 57, 92
3, 55296, Note_off_c, 0, 57, 64
3, 55296, Note_on_c, 0, 50, 92
3, 55488, Note_off_c, 0, 50, 64
3, 55488, Note_on_c, 0, 53, 92
3, 55680, Note_off_c, 0, 53, 64
3, 55680, Note_on_c, 0, 58, 92
3, 56064, Note_off_c, 0, 58, 64
3, 56064, Note_on_c, 0, 57, 92
3, 56256, Note_off_c, 0, 57, 64
3, 56256, Note_on_c, 0, 59, 92
3, 56352, Note_off_c, 0, 59, 64
3, 56352, Note_on_c, 0, 61, 92
3, 56448, Note_off_c, 0, 61, 64
3, 56448, Note_on_c, 0, 62, 92
3, 57024, Note_off_c, 0, 62, 64
3, 57024, Note_on_c, 0, 61, 92
3, 57120, Note_off_c, 0, 61, 64
3, 57120, Note_on_c, 0, 59, 92
3, 57216, Note_off_c, 0, 59, 64
3, 57216, Note_on_c, 0, 57, 92
3, 57408, Note_off_c, 0, 57, 64
3, 57408, Note_on_c, 0, 55, 92
3, 57600, Note_off_c, 0, 55, 64
3, 57600, Note_on_c, 0, 53, 92
3, 57792, Note_off_c, 0, 53, 64
3, 57792, Note_on_c, 0, 57, 92
3, 57984, Note_off_c, 0, 57, 64
3, 57984, Note_on_c, 0, 62, 92
3, 58176, Note_off_c, 0, 62, 64
3, 58176, Note_on_c, 0, 57, 92
3, 58368, Note_off_c, 0, 57, 64
3, 58368, Note_on_c, 0, 57, 92
3, 58752, Note_off_c, 0, 57, 64
3, 58752, Note_on_c, 0, 56, 92
3, 59136, Note_off_c, 0, 56, 64
3, 59136, Note_on_c, 0, 57, 92
3, 59712, Note_off_c, 0, 57, 64
3, 59712, Note_on_c, 0, 59, 92
3, 59904, Note_off_c, 0, 59, 64
3, 59904, Note_on_c, 0, 60, 92
3, 60480, Note_off_c, 0, 60, 64
3, 60480, Note_on_c, 0, 62, 92
3, 60576, Note_off_c, 0, 62, 64
3, 60576, Note_on_c, 0, 60, 92
3, 60672, Note_off_c, 0, 60, 64
3, 60672, Note_on_c, 0, 59, 92
3, 61056, Note_off_c, 0, 59, 64
3, 61056, Note_on_c, 0, 59, 92
3, 61440, Note_off_c, 0, 59, 64
3, 61440, Note_on_c, 0, 57, 92
3, 62592, Note_off_c, 0, 57, 64
3, 62592, Note_on_c, 0, 56, 92
3, 62976, Note_off_c, 0, 56, 64
3, 62976, Note_on_c, 0, 57, 92
3, 63360, Note_off_c, 0, 57, 64
3, 63360, Note_on_c, 0, 56, 92
3, 63744, Note_off_c, 0, 56, 64
3, 63744, Note_on_c, 0, 60, 92
3, 64128, Note_off_c, 0, 60, 64
3, 64320, Note_on_c, 0, 57, 92
3, 64512, Note_off_c, 0, 57, 64
3, 64512, Note_on_c, 0, 59, 92
3, 64704, Note_off_c, 0, 59, 64
3, 64704, Note_on_c, 0, 55, 92
3, 64896, Note_off_c, 0, 55, 64
3, 64896, Note_on_c, 0, 60, 92
3, 65088, Note_off_c, 0, 60, 64
3, 65088, Note_on_c, 0, 48, 92
3, 65280, Note_off_c, 0, 48, 64
3, 65280, Note_on_c, 0, 53, 92
3, 65664, Note_on_c, 0, 57, 92
3, 66048, Note_off_c, 0, 57, 64
3, 66432, Note_off_c, 0, 53, 64
3, 66432, Note_on_c, 0, 52, 92
3, 66624, Note_off_c, 0, 52, 64
3, 66624, Note_on_c, 0, 50, 92
3, 66720, Note_off_c, 0, 50, 64
3, 66720, Note_on_c, 0, 48, 92
3, 66816, Note_off_c, 0, 48, 64
3, 66816, Note_on_c, 0, 55, 92
3, 67008, Note_off_c, 0, 55, 64
3, 67008, Note_on_c, 0, 53, 92
3, 67200, Note_off_c, 0, 53, 64
3, 67200, Note_on_c, 0, 55, 92
3, 67392, Note_off_c, 0, 55, 64
3, 67392, Note_on_c, 0, 43, 92
3, 67584, Note_off_c, 0, 43, 64
3, 67584, Note_on_c, 0, 48, 92
3, 67776, Note_off_c, 0, 48, 64
3, 67776, Note_on_c, 0, 52, 92
3, 67968, Note_off_c, 0, 52, 64
3, 67968, Note_on_c, 0, 55, 92
3, 68256, Note_off_c, 0, 55, 64
3, 68256, Note_on_c, 0, 53, 92
3, 68352, Note_off_c, 0, 53, 64
3, 68352, Note_on_c, 0, 52, 92
3, 68544, Note_off_c, 0, 52, 64
3, 68544, Note_on_c, 0, 48, 92
3, 68736, Note_off_c, 0, 48, 64
3, 68736, Note_on_c, 0, 53, 92
3, 69120, Note_off_c, 0, 53, 64
3, 69120, Note_on_c, 0, 52, 92
3, 69312, Note_off_c, 0, 52, 64
3, 69312, Note_on_c, 0, 53, 92
3, 69408, Note_off_c, 0, 53, 64
3, 69408, Note_on_c, 0, 55, 92
3, 69504, Note_off_c, 0, 55, 64
3, 69504, Note_on_c, 0, 57, 92
3, 69696, Note_off_c, 0, 57, 64
3, 69696, Note_on_c, 0, 52, 92
3, 69888, Note_off_c, 0, 52, 64
3, 69888, Note_on_c, 0, 53, 92
3, 70080, Note_off_c, 0, 53, 64
3, 70080, Note_on_c, 0, 50, 92
3, 70272, Note_off_c, 0, 50, 64
3, 70272, Note_on_c, 0, 59, 92
3, 70368, Note_off_c, 0, 59, 64
3, 70368, Note_on_c, 0, 57, 92
3, 70464, Note_off_c, 0, 57, 64
3, 70464, Note_on_c, 0, 59, 92
3, 70560, Note_off_c, 0, 59, 64
3, 70560, Note_on_c, 0, 55, 92
3, 70656, Note_off_c, 0, 55, 64
3, 70656, Note_on_c, 0, 60, 92
3, 71040, Note_off_c, 0, 60, 64
3, 71232, Note_on_c, 0, 61, 92
3, 71424, Note_off_c, 0, 61, 64
3, 71424, Note_on_c, 0, 62, 92
3, 71904, Note_off_c, 0, 62, 64
3, 71904, Note_on_c, 0, 60, 92
3, 72000, Note_off_c, 0, 60, 64
3, 72000, Note_on_c, 0, 62, 92
3, 72096, Note_off_c, 0, 62, 64
3, 72096, Note_on_c, 0, 58, 92
3, 72192, Note_off_c, 0, 58, 64
3, 72192, Note_on_c, 0, 60, 92
3, 72384, Note_off_c, 0, 60, 64
3, 72384, Note_on_c, 0, 62, 92
3, 72576, Note_off_c, 0, 62, 64
3, 72576, Note_on_c, 0, 58, 92
3, 72768, Note_off_c, 0, 58, 64
3, 72768, Note_on_c, 0, 60, 92
3, 72960, Note_off_c, 0, 60, 64
3, 72960, Note_on_c, 0, 60, 92
3, 73344, Note_off_c, 0, 60, 64
3, 73344, Note_on_c, 0, 58, 92
3, 73536, Note_off_c, 0, 58, 64
3, 73536, Note_on_c, 0, 60, 92
3, 73728, Note_off_c, 0, 60, 64
3, 73728, Note_on_c, 0, 60, 92
3, 74112, Note_off_c, 0, 60, 64
3, 74112, Note_on_c, 0, 53, 92
3, 74304, Note_off_c, 0, 53, 64
3, 74304, Note_on_c, 0, 55, 92
3, 74496, Note_off_c, 0, 55, 64
3, 74496, Note_on_c, 0, 57, 92
3, 75072, Note_off_c, 0, 57, 64
3, 75072, Note_on_c, 0, 59, 92
3, 75168, Note_off_c, 0, 59, 64
3, 75168, Note_on_c, 0, 57, 92
3, 75264, Note_off_c, 0, 57, 64
3, 75264, Note_on_c, 0, 55, 92
3, 75648, Note_off_c, 0, 55, 64
3, 75648, Note_on_c, 0, 55, 92
3, 76032, Note_off_c, 0, 55, 64
3, 76032, Note_on_c, 0, 57, 92
3, 76224, Note_off_c, 0, 57, 64
3, 76224, Note_on_c, 0, 55, 92
3, 76320, Note_off_c, 0, 55, 64
3, 76320, Note_on_c, 0, 53, 92
3, 76416, Note_off_c, 0, 53, 64
3, 76416, Note_on_c, 0, 52, 92
3, 76608, Note_off_c, 0, 52, 64
3, 76608, Note_on_c, 0, 55, 92
3, 76800, Note_off_c, 0, 55, 64
3, 76800, Note_on_c, 0, 55, 92
3, 77184, Note_off_c, 0, 55, 64
3, 77184, Note_on_c, 0, 55, 92
3, 77568, Note_off_c, 0, 55, 64
3, 77568, Note_on_c, 0, 55, 92
3, 77952, Note_off_c, 0, 55, 64
3, 78336, Note_on_c, 0, 57, 92
3, 78528, Note_off_c, 0, 57, 64
3, 78528, Note_on_c, 0, 60, 92
3, 78720, Note_off_c, 0, 60, 64
3, 78720, Note_on_c, 0, 55, 92
3, 78912, Note_off_c, 0, 55, 64
3, 78912, Note_on_c, 0, 60, 92
3, 79104, Note_off_c, 0, 60, 64
3, 79104, Note_on_c, 0, 57, 92
3, 79296, Note_off_c, 0, 57, 64
3, 79296, Note_on_c, 0, 60, 92
3, 79488, Note_off_c, 0, 60, 64
3, 79488, Note_on_c, 0, 53, 92
3, 79680, Note_off_c, 0, 53, 64
3, 79680, Note_on_c, 0, 54, 92
3, 79680, Note_on_c, 0, 58, 92
3, 79872, Note_off_c, 0, 58, 64
3, 79872, Note_off_c, 0, 54, 64
3, 79872, Note_on_c, 0, 55, 92
3, 79872, Note_on_c, 0, 58, 92
3, 80256, Note_off_c, 0, 58, 64
3, 80256, Note_off_c, 0, 55, 64
3, 80256, Note_on_c, 0, 54, 92
3, 80256, Note_on_c, 0, 57, 92
3, 80640, Note_off_c, 0, 57, 64
3, 80640, Note_off_c, 0, 54, 64
3, 80640, Note_on_c, 0, 55, 92
3, 80640, Note_on_c, 0, 58, 92
3, 81024, Note_off_c, 0, 58, 64
3, 81024, Note_off_c, 0, 55, 64
3, 81216, Note_on_c, 0, 55, 92
3, 81216, Note_on_c, 0, 58, 92
3, 81408, Note_off_c, 0, 58, 64
3, 81408, Note_off_c, 0, 55, 64
3, 81408, Note_on_c, 0, 57, 92
3, 81792, Note_off_c, 0, 57, 64
3, 81792, Note_on_c, 0, 56, 92
3, 81792, Note_on_c, 0, 59, 92
3, 82176, Note_off_c, 0, 59, 64
3, 82176, Note_off_c, 0, 56, 64
3, 82176, Note_on_c, 0, 57, 92
3, 82560, Note_off_c, 0, 57, 64
3, 82752, Note_on_c, 0, 57, 92
3, 82944, Note_off_c, 0, 57, 64
3, 82944, Note_on_c, 0, 57, 92
3, 83328, Note_off_c, 0, 57, 64
3, 83328, Note_on_c, 0, 57, 92
3, 83712, Note_off_c, 0, 57, 64
3, 83712, Note_on_c, 0, 57, 92
3, 84096, Note_off_c, 0, 57, 64
3, 84096, Note_on_c, 0, 55, 92
3, 84480, Note_off_c, 0, 55, 64
3, 84480, Note_on_c, 0, 57, 92
3, 84864, Note_off_c, 0, 57, 64
3, 84864, Note_on_c, 0, 57, 92
3, 85248, Note_off_c, 0, 57, 64
3, 85248, Note_on_c, 0, 57, 92
3, 85632, Note_on_c, 0, 61, 92
3, 86016, Note_off_c, 0, 61, 64
3, 86016, Note_off_c, 0, 57, 64
3, 86016, Note_on_c, 0, 57, 92
3, 86016, Note_on_c, 0, 62, 92
3, 86208, Note_off_c, 0, 62, 64
3, 86208, Note_on_c, 0, 60, 92
3, 86304, Note_off_c, 0, 60, 64
3, 86304, Note_on_c, 0, 58, 92
3, 86400, Note_off_c, 0, 58, 64
3, 86400, Note_off_c, 0, 57, 64
3, 86400, Note_on_c, 0, 57, 92
3, 86784, Note_off_c, 0, 57, 64
3, 86784, Note_on_c, 0, 55, 92
3, 87168, Note_off_c, 0, 55, 64
3, 87168, Note_on_c, 0, 54, 92
3, 87552, Note_off_c, 0, 54, 64
3, 87552, Note_on_c, 0, 55, 92
3, 88128, Note_off_c, 0, 55, 64
3, 88128, Note_on_c, 0, 57, 92
3, 88320, Note_off_c, 0, 57, 64
3, 88320, Note_on_c, 0, 58, 92
3, 88896, Note_off_c, 0, 58, 64
3, 88896, Note_on_c, 0, 60, 92
3, 88992, Note_off_c, 0, 60, 64
3, 88992, Note_on_c, 0, 58, 92
3, 89088, Note_off_c, 0, 58, 64
3, 89088, Note_on_c, 0, 57, 92
3, 89856, Note_off_c, 0, 57, 64
3, 89856, Note_on_c, 0, 55, 92
3, 91008, Note_off_c, 0, 55, 64
3, 91008, Note_on_c, 0, 53, 92
3, 91200, Note_off_c, 0, 53, 64
3, 91200, Note_on_c, 0, 55, 92
3, 91296, Note_off_c, 0, 55, 64
3, 91296, Note_on_c, 0, 53, 92
3, 91392, Note_off_c, 0, 53, 64
3, 91392, Note_on_c, 0, 52, 92
3, 91776, Note_off_c, 0, 52, 64
3, 91776, Note_on_c, 0, 53, 92
3, 91968, Note_off_c, 0, 53, 64
3, 91968, Note_on_c, 0, 55, 92
3, 92160, Note_off_c, 0, 55, 64
3, 92160, Note_on_c, 0, 57, 92
3, 92736, Note_off_c, 0, 57, 64
3, 92736, Note_on_c, 0, 55, 92
3, 92928, Note_off_c, 0, 55, 64
3, 92928, Note_on_c, 0, 50, 92
3, 92928, Note_on_c, 0, 53, 92
3, 92928, Note_on_c, 0, 57, 92
3, 93696, Note_off_c, 0, 57, 64
3, 93696, Note_off_c, 0, 53, 64
3, 93696, Note_off_c, 0, 50, 64
3, 93696, End_track
4, 0, Start_track
4, 0, Title_t, "Track 3"
4, 0, Note_on_c, 0, 50, 102
4, 384, Note_off_c, 0, 50, 64
4, 960, Note_on_c, 0, 50, 102
4, 1152, Note_off_c, 0, 50, 64
4, 1152, Note_on_c, 0, 52, 102
4, 1344, Note_off_c, 0, 52, 64
4, 1344, Note_on_c, 0, 50, 102
4, 1536, Note_off_c, 0, 50, 64
4, 1536, Note_on_c, 0, 49, 102
4, 1920, Note_off_c, 0, 49, 64
4, 2496, Note_on_c, 0, 45, 102
4, 2688, Note_off_c, 0, 45, 64
4, 2688, Note_on_c, 0, 47, 102
4, 2880, Note_off_c, 0, 47, 64
4, 2880, Note_on_c, 0, 48, 102
4, 3072, Note_off_c, 0, 48, 64
4, 3072, Note_on_c, 0, 50, 102
4, 3456, Note_off_c, 0, 50, 64
4, 3456, Note_on_c, 0, 52, 102
4, 3840, Note_off_c, 0, 52, 64
4, 3840, Note_on_c, 0, 53, 102
4, 4224, Note_off_c, 0, 53, 64
4, 4224, Note_on_c, 0, 55, 102
4, 4608, Note_off_c, 0, 55, 64
4, 4608, Note_on_c, 0, 57, 102
4, 4992, Note_off_c, 0, 57, 64
4, 5568, Note_on_c, 0, 49, 102
4, 5760, Note_off_c, 0, 49, 64
4, 5760, Note_on_c, 0, 50, 102
4, 5952, Note_off_c, 0, 50, 64
4, 5952, Note_on_c, 0, 45, 102
4, 6144, Note_off_c, 0, 45, 64
4, 6144, Note_on_c, 0, 46, 102
4, 6912, Note_off_c, 0, 46, 64
4, 6912, Note_on_c, 0, 45, 102
4, 9216, Note_off_c, 0, 45, 64
4, 9216, Note_on_c, 0, 38, 102
4, 9600, Note_off_c, 0, 38, 64
4, 18432, Note_on_c, 0, 45, 102
4, 18624, Note_off_c, 0, 45, 64
4, 18816, Note_on_c, 0, 45, 102
4, 19008, Note_off_c, 0, 45, 64
4, 19200, Note_on_c, 0, 45, 102
4, 19392, Note_off_c, 0, 45, 64
4, 19584, Note_on_c, 0, 45, 102
4, 19776, Note_off_c, 0, 45, 64
4, 19968, Note_on_c, 0, 46, 102
4, 20160, Note_off_c, 0, 46, 64
4, 20160, Note_on_c, 0, 46, 102
4, 20352, Note_off_c, 0, 46, 64
4, 20352, Note_on_c, 0, 46, 102
4, 20544, Note_off_c, 0, 46, 64
4, 20544, Note_on_c, 0, 46, 102
4, 20736, Note_off_c, 0, 46, 64
4, 20736, Note_on_c, 0, 46, 102
4, 21120, Note_off_c, 0, 46, 64
4, 21504, Note_on_c, 0, 47, 102
4, 21696, Note_off_c, 0, 47, 64
4, 21888, Note_on_c, 0, 47, 102
4, 22080, Note_off_c, 0, 47, 64
4, 22272, Note_on_c, 0, 47, 102
4, 22464, Note_off_c, 0, 47, 64
4, 22656, Note_on_c, 0, 47, 102
4, 22848, Note_off_c, 0, 47, 64
4, 23040, Note_on_c, 0, 48, 102
4, 23232, Note_off_c, 0, 48, 64
4, 23232, Note_on_c, 0, 48, 102
4, 23424, Note_off_c, 0, 48, 64
4, 23424, Note_on_c, 0, 48, 102
4, 23616, Note_off_c, 0, 48, 64
4, 23616, Note_on_c, 0, 48, 102
4, 23808, Note_off_c, 0, 48, 64
4, 23808, Note_on_c, 0, 48, 102
4, 24192, Note_off_c, 0, 48, 64
4, 24576, Note_on_c, 0, 49, 102
4, 24768, Note_off_c, 0, 49, 64
4, 24960, Note_on_c, 0, 49, 102
4, 25152, Note_off_c, 0, 49, 64
4, 25344, Note_on_c, 0, 49, 102
4, 25536, Note_off_c, 0, 49, 64
4, 25728, Note_on_c, 0, 49, 102
4, 25920, Note_off_c, 0, 49, 64
4, 26112, Note_on_c, 0, 50, 102
4, 26304, Note_off_c, 0, 50, 64
4, 26304, Note_on_c, 0, 50, 102
4, 26496, Note_off_c, 0, 50, 64
4, 26496, Note_on_c, 0, 50, 102
4, 26688, Note_off_c, 0, 50, 64
4, 26688, Note_on_c, 0, 50, 102
4, 26880, Note_off_c, 0, 50, 64
4, 26880, Note_on_c, 0, 50, 102
4, 27072, Note_off_c, 0, 50, 64
4, 27072, Note_on_c, 0, 48, 102
4, 27264, Note_off_c, 0, 48, 64
4, 27264, Note_on_c, 0, 46, 102
4, 27456, Note_off_c, 0, 46, 64
4, 27456, Note_on_c, 0, 45, 102
4, 27648, Note_off_c, 0, 45, 64
4, 27648, Note_on_c, 0, 43, 102
4, 28032, Note_off_c, 0, 43, 64
4, 28416, Note_on_c, 0, 48, 102
4, 28608, Note_off_c, 0, 48, 64
4, 28608, Note_on_c, 0, 46, 102
4, 28800, Note_off_c, 0, 46, 64
4, 28800, Note_on_c, 0, 45, 102
4, 28992, Note_off_c, 0, 45, 64
4, 28992, Note_on_c, 0, 43, 102
4, 29184, Note_off_c, 0, 43, 64
4, 29184, Note_on_c, 0, 41, 102
4, 29568, Note_off_c, 0, 41, 64
4, 36864, Note_on_c, 0, 50, 102
4, 37248, Note_off_c, 0, 50, 64
4, 37824, Note_on_c, 0, 50, 102
4, 38016, Note_off_c, 0, 50, 64
4, 38016, Note_on_c, 0, 52, 102
4, 38208, Note_off_c, 0, 52, 64
4, 38208, Note_on_c, 0, 50, 102
4, 38400, Note_off_c, 0, 50, 64
4, 38400, Note_on_c, 0, 49, 102
4, 38784, Note_off_c, 0, 49, 64
4, 39360, Note_on_c, 0, 45, 102
4, 39552, Note_off_c, 0, 45, 64
4, 39552, Note_on_c, 0, 47, 102
4, 39744, Note_off_c, 0, 47, 64
4, 39744, Note_on_c, 0, 49, 102
4, 39936, Note_off_c, 0, 49, 64
4, 39936, Note_on_c, 0, 50, 102
4, 40320, Note_off_c, 0, 50, 64
4, 40320, Note_on_c, 0, 52, 102
4, 40704, Note_off_c, 0, 52, 64
4, 40704, Note_on_c, 0, 53, 102
4, 41088, Note_off_c, 0, 53, 64
4, 41088, Note_on_c, 0, 55, 102
4, 41472, Note_off_c, 0, 55, 64
4, 41472, Note_on_c, 0, 57, 102
4, 41856, Note_off_c, 0, 57, 64
4, 42432, Note_on_c, 0, 49, 102
4, 42624, Note_off_c, 0, 49, 64
4, 42624, Note_on_c, 0, 50, 102
4, 42816, Note_off_c, 0, 50, 64
4, 42816, Note_on_c, 0, 45, 102
4, 43008, Note_off_c, 0, 45, 64
4, 43008, Note_on_c, 0, 46, 102
4, 43776, Note_off_c, 0, 46, 64
4, 43776, Note_on_c, 0, 45, 102
4, 46080, Note_off_c, 0, 45, 64
4, 46080, Note_on_c, 0, 38, 102
4, 46464, Note_off_c, 0, 38, 64
4, 58176, Note_on_c, 0, 50, 102
4, 58368, Note_off_c, 0, 50, 64
4, 58368, Note_on_c, 0, 48, 102
4, 58560, Note_off_c, 0, 48, 64
4, 58560, Note_on_c, 0, 52, 102
4, 58752, Note_off_c, 0, 52, 64
4, 58752, Note_on_c, 0, 47, 102
4, 58944, Note_off_c, 0, 47, 64
4, 58944, Note_on_c, 0, 52, 102
4, 59136, Note_off_c, 0, 52, 64
4, 59136, Note_on_c, 0, 45, 102
4, 59328, Note_off_c, 0, 45, 64
4, 59328, Note_on_c, 0, 48, 102
4, 59520, Note_off_c, 0, 48, 64
4, 59520, Note_on_c, 0, 53, 102
4, 59904, Note_off_c, 0, 53, 64
4, 59904, Note_on_c, 0, 52, 102
4, 60096, Note_off_c, 0, 52, 64
4, 60096, Note_on_c, 0, 54, 102
4, 60192, Note_off_c, 0, 54, 64
4, 60192, Note_on_c, 0, 56, 102
4, 60288, Note_off_c, 0, 56, 64
4, 60288, Note_on_c, 0, 57, 102
4, 60864, Note_off_c, 0, 57, 64
4, 60864, Note_on_c, 0, 56, 102
4, 60960, Note_off_c, 0, 56, 64
4, 60960, Note_on_c, 0, 54, 102
4, 61056, Note_off_c, 0, 54, 64
4, 61056, Note_on_c, 0, 52, 102
4, 61248, Note_off_c, 0, 52, 64
4, 61248, Note_on_c, 0, 50, 102
4, 61440, Note_off_c, 0, 50, 64
4, 61440, Note_on_c, 0, 48, 102
4, 61632, Note_off_c, 0, 48, 64
4, 61632, Note_on_c, 0, 47, 102
4, 61824, Note_off_c, 0, 47, 64
4, 61824, Note_on_c, 0, 45, 102
4, 62208, Note_off_c, 0, 45, 64
4, 62208, Note_on_c, 0, 50, 102
4, 62592, Note_off_c, 0, 50, 64
4, 62592, Note_on_c, 0, 52, 102
4, 62976, Note_off_c, 0, 52, 64
4, 62976, Note_on_c, 0, 45, 102
4, 63360, Note_off_c, 0, 45, 64
4, 72768, Note_on_c, 0, 48, 102
4, 72960, Note_off_c, 0, 48, 64
4, 72960, Note_on_c, 0, 45, 102
4, 73152, Note_off_c, 0, 45, 64
4, 73152, Note_on_c, 0, 48, 102
4, 73344, Note_off_c, 0, 48, 64
4, 73344, Note_on_c, 0, 43, 102
4, 73536, Note_off_c, 0, 43, 64
4, 73536, Note_on_c, 0, 48, 102
4, 73728, Note_off_c, 0, 48, 64
4, 73728, Note_on_c, 0, 41, 102
4, 73920, Note_off_c, 0, 41, 64
4, 73920, Note_on_c, 0, 45, 102
4, 74112, Note_off_c, 0, 45, 64
4, 74112, Note_on_c, 0, 50, 102
4, 74496, Note_off_c, 0, 50, 64
4, 74496, Note_on_c, 0, 48, 102
4, 74688, Note_off_c, 0, 48, 64
4, 74688, Note_on_c, 0, 50, 102
4, 74784, Note_off_c, 0, 50, 64
4, 74784, Note_on_c, 0, 52, 102
4, 74880, Note_off_c, 0, 52, 64
4, 74880, Note_on_c, 0, 53, 102
4, 75456, Note_off_c, 0, 53, 64
4, 75456, Note_on_c, 0, 52, 102
4, 75552, Note_off_c, 0, 52, 64
4, 75552, Note_on_c, 0, 50, 102
4, 75648, Note_off_c, 0, 50, 64
4, 75648, Note_on_c, 0, 48, 102
4, 75840, Note_off_c, 0, 48, 64
4, 75840, Note_on_c, 0, 47, 102
4, 76032, Note_off_c, 0, 47, 64
4, 76032, Note_on_c, 0, 45, 102
4, 76416, Note_off_c, 0, 45, 64
4, 76608, Note_on_c, 0, 47, 102
4, 76800, Note_off_c, 0, 47, 64
4, 76800, Note_on_c, 0, 48, 102
4, 77184, Note_off_c, 0, 48, 64
4, 77184, Note_on_c, 0, 47, 102
4, 77568, Note_off_c, 0, 47, 64
4, 77568, Note_on_c, 0, 48, 102
4, 77952, Note_off_c, 0, 48, 64
4, 82752, Note_on_c, 0, 45, 102
4, 82944, Note_off_c, 0, 45, 64
4, 82944, Note_on_c, 0, 50, 102
4, 83328, Note_off_c, 0, 50, 64
4, 83328, Note_on_c, 0, 49, 102
4, 83712, Note_off_c, 0, 49, 64
4, 83712, Note_on_c, 0, 53, 102
4, 84096, Note_off_c, 0, 53, 64
4, 84096, Note_on_c, 0, 52, 102
4, 84480, Note_off_c, 0, 52, 64
4, 84480, Note_on_c, 0, 57, 102
4, 84864, Note_off_c, 0, 57, 64
4, 84864, Note_on_c, 0, 53, 102
4, 85056, Note_off_c, 0, 53, 64
4, 85056, Note_on_c, 0, 50, 102
4, 85248, Note_off_c, 0, 50, 64
4, 85248, Note_on_c, 0, 57, 102
4, 85632, Note_off_c, 0, 57, 64
4, 85632, Note_on_c, 0, 45, 102
4, 86016, Note_off_c, 0, 45, 64
4, 86016, Note_on_c, 0, 50, 102
4, 86400, Note_off_c, 0, 50, 64
4, 86592, Note_on_c, 0, 50, 102
4, 86784, Note_off_c, 0, 50, 64
4, 86784, Note_on_c, 0, 46, 102
4, 86976, Note_off_c, 0, 46, 64
4, 86976, Note_on_c, 0, 50, 102
4, 87168, Note_off_c, 0, 50, 64
4, 87168, Note_on_c, 0, 45, 102
4, 87360, Note_off_c, 0, 45, 64
4, 87360, Note_on_c, 0, 50, 102
4, 87552, Note_off_c, 0, 50, 64
4, 87552, Note_on_c, 0, 43, 102
4, 87744, Note_off_c, 0, 43, 64
4, 87744, Note_on_c, 0, 46, 102
4, 87936, Note_off_c, 0, 46, 64
4, 87936, Note_on_c, 0, 51, 102
4, 88320, Note_off_c, 0, 51, 64
4, 88320, Note_on_c, 0, 50, 102
4, 88512, Note_off_c, 0, 50, 64
4, 88512, Note_on_c, 0, 52, 102
4, 88608, Note_off_c, 0, 52, 64
4, 88608, Note_on_c, 0, 54, 102
4, 88704, Note_off_c, 0, 54, 64
4, 88704, Note_on_c, 0, 55, 102
4, 89280, Note_off_c, 0, 55, 64
4, 89280, Note_on_c, 0, 53, 102
4, 89376, Note_off_c, 0, 53, 64
4, 89376, Note_on_c, 0, 52, 102
4, 89472, Note_off_c, 0, 52, 64
4, 89472, Note_on_c, 0, 50, 102
4, 89664, Note_off_c, 0, 50, 64
4, 89664, Note_on_c, 0, 48, 102
4, 89856, Note_off_c, 0, 48, 64
4, 89856, Note_on_c, 0, 46, 102
4, 90048, Note_off_c, 0, 46, 64
4, 90048, Note_on_c, 0, 45, 102
4, 90240, Note_off_c, 0, 45, 64
4, 90240, Note_on_c, 0, 43, 102
4, 90624, Note_off_c, 0, 43, 64
4, 90624, Note_on_c, 0, 45, 102
4, 92928, Note_off_c, 0, 45, 64
4, 92928, Note_on_c, 0, 38, 102
4, 93696, Note_off_c, 0, 38, 64
4, 93696, End_track
0, 0, End_of_file
