0, 0, Header, 1, 6, 1024
1, 0, Start_track
1, 0, Time_signature, 4, 2, 24, 8
1, 0, Key_signature, 1, "major"
1, 0, Tempo, 769230
1, 291841, End_track
2, 0, Start_track
2, 0, Title_t, "Instrument 1"
2, 18432, Note_on_c, 0, 74, 96
2, 20480, Note_off_c, 0, 74, 0
2, 20480, Note_on_c, 0, 74, 96
2, 22528, Note_off_c, 0, 74, 0
2, 22528, Note_on_c, 0, 74, 96
2, 24576, Note_off_c, 0, 74, 0
2, 24576, Note_on_c, 0, 76, 96
2, 26624, Note_off_c, 0, 76, 0
2, 26624, Note_on_c, 0, 76, 96
2, 28672, Note_off_c, 0, 76, 0
2, 28672, Note_on_c, 0, 74, 96
2, 32768, Note_off_c, 0, 74, 0
2, 55296, Note_on_c, 0, 71, 96
2, 57344, Note_off_c, 0, 71, 0
2, 57344, Note_on_c, 0, 72, 96
2, 59392, Note_off_c, 0, 72, 0
2, 59392, Note_on_c, 0, 71, 96
2, 61440, Note_off_c, 0, 71, 0
2, 61440, Note_on_c, 0, 69, 96
2, 63488, Note_off_c, 0, 69, 0
2, 63488, Note_on_c, 0, 71, 96
2, 65536, Note_off_c, 0, 71, 0
2, 65536, Note_on_c, 0, 69, 96
2, 69632, Note_off_c, 0, 69, 0
2, 69632, Note_on_c, 0, 67, 96
2, 75776, Note_off_c, 0, 67, 0
2, 96256, Note_on_c, 0, 74, 96
2, 98304, Note_off_c, 0, 74, 0
2, 98304, Note_on_c, 0, 74, 96
2, 100352, Note_off_c, 0, 74, 0
2, 100352, Note_on_c, 0, 74, 96
2, 102400, Note_off_c, 0, 74, 0
2, 102400, Note_on_c, 0, 76, 96
2, 104448, Note_off_c, 0, 76, 0
2, 104448, Note_on_c, 0, 76, 96
2, 106496, Note_off_c, 0, 76, 0
2, 106496, Note_on_c, 0, 74, 96
2, 110592, Note_off_c, 0, 74, 0
2, 133120, Note_on_c, 0, 71, 96
2, 135168, Note_off_c, 0, 71, 0
2, 135168, Note_on_c, 0, 72, 96
2, 137216, Note_off_c, 0, 72, 0
2, 137216, Note_on_c, 0, 71, 96
2, 139264, Note_off_c, 0, 71, 0
2, 139264, Note_on_c, 0, 69, 96
2, 141312, Note_off_c, 0, 69, 0
2, 141312, Note_on_c, 0, 71, 96
2, 143360, Note_off_c, 0, 71, 0
2, 143360, Note_on_c, 0, 69, 96
2, 147456, Note_off_c, 0, 69, 0
2, 147456, Note_on_c, 0, 67, 96
2, 155648, Note_off_c, 0, 67, 0
2, 174080, Note_on_c, 0, 69, 96
2, 176128, Note_off_c, 0, 69, 0
2, 176128, Note_on_c, 0, 69, 96
2, 178176, Note_off_c, 0, 69, 0
2, 178176, Note_on_c, 0, 69, 96
2, 180224, Note_off_c, 0, 69, 0
2, 180224, Note_on_c, 0, 71, 96
2, 182272, Note_off_c, 0, 71, 0
2, 182272, Note_on_c, 0, 71, 96
2, 184320, Note_off_c, 0, 71, 0
2, 184320, Note_on_c, 0, 69, 96
2, 188416, Note_off_c, 0, 69, 0
2, 202752, Note_on_c, 0, 69, 96
2, 204800, Note_off_c, 0, 69, 0
2, 204800, Note_on_c, 0, 71, 96
2, 206336, Note_off_c, 0, 71, 0
2, 206336, Note_on_c, 0, 73, 96
2, 206848, Note_off_c, 0, 73, 0
2, 206848, Note_on_c, 0, 74, 96
2, 208896, Note_off_c, 0, 74, 0
2, 208896, Note_on_c, 0, 74, 96
2, 210944, Note_off_c, 0, 74, 0
2, 210944, Note_on_c, 0, 73, 96
2, 212992, Note_off_c, 0, 73, 0
2, 212992, Note_on_c, 0, 74, 96
2, 217088, Note_off_c, 0, 74, 0
2, 231424, Note_on_c, 0, 74, 96
2, 233472, Note_off_c, 0, 74, 0
2, 233472, Note_on_c, 0, 76, 96
2, 236544, Note_off_c, 0, 76, 0
2, 236544, Note_on_c, 0, 74, 96
2, 237568, Note_off_c, 0, 74, 0
2, 237568, Note_on_c, 0, 72, 96
2, 239616, Note_off_c, 0, 72, 0
2, 239616, Note_on_c, 0, 71, 96
2, 241664, Note_off_c, 0, 71, 0
2, 241664, Note_on_c, 0, 72, 96
2, 245760, Note_off_c, 0, 72, 0
2, 264192, Note_on_c, 0, 71, 96
2, 266240, Note_off_c, 0, 71, 0
2, 266240, Note_on_c, 0, 69, 96
2, 268288, Note_off_c, 0, 69, 0
2, 268288, Note_on_c, 0, 71, 96
2, 270336, Note_off_c, 0, 71, 0
2, 270336, Note_on_c, 0, 69, 96
2, 272384, Note_off_c, 0, 69, 0
2, 272384, Note_on_c, 0, 69, 96
2, 274432, Note_off_c, 0, 69, 0
2, 274432, Note_on_c, 0, 67, 96
2, 291840, Note_off_c, 0, 67, 0
2, 291841, End_track
3, 0, Start_track
3, 0, Title_t, "Instrument 2"
3, 1024, Note_on_c, 1, 62, 96
3, 2048, Note_off_c, 1, 62, 0
3, 2048, Note_on_c, 1, 62, 96
3, 3072, Note_off_c, 1, 62, 0
3, 3072, Note_on_c, 1, 62, 96
3, 4096, Note_off_c, 1, 62, 0
3, 4096, Note_on_c, 1, 64, 96
3, 5120, Note_off_c, 1, 64, 0
3, 5120, Note_on_c, 1, 64, 96
3, 5376, Note_off_c, 1, 64, 0
3, 5376, Note_on_c, 1, 62, 96
3, 5632, Note_off_c, 1, 62, 0
3, 5632, Note_on_c, 1, 64, 96
3, 5888, Note_off_c, 1, 64, 0
3, 5888, Note_on_c, 1, 65, 96
3, 6144, Note_off_c, 1, 65, 0
3, 6144, Note_on_c, 1, 62, 96
3, 6656, Note_off_c, 1, 62, 0
3, 6656, Note_on_c, 1, 64, 96
3, 6912, Note_off_c, 1, 64, 0
3, 6912, Note_on_c, 1, 66, 96
3, 7168, Note_off_c, 1, 66, 0
3, 7168, Note_on_c, 1, 67, 96
3, 9472, Note_off_c, 1, 67, 0
3, 9472, Note_on_c, 1, 66, 96
3, 9728, Note_off_c, 1, 66, 0
3, 9728, Note_on_c, 1, 64, 96
3, 9984, Note_off_c, 1, 64, 0
3, 9984, Note_on_c, 1, 66, 96
3, 10240, Note_off_c, 1, 66, 0
3, 10240, Note_on_c, 1, 67, 96
3, 10752, Note_off_c, 1, 67, 0
3, 10752, Note_on_c, 1, 69, 96
3, 11008, Note_off_c, 1, 69, 0
3, 11008, Note_on_c, 1, 71, 96
3, 11264, Note_off_c, 1, 71, 0
3, 11264, Note_on_c, 1, 69, 96
3, 11776, Note_off_c, 1, 69, 0
3, 11776, Note_on_c, 1, 67, 96
3, 12288, Note_off_c, 1, 67, 0
3, 12288, Note_on_c, 1, 66, 96
3, 12800, Note_off_c, 1, 66, 0
3, 12800, Note_on_c, 1, 67, 96
3, 13056, Note_off_c, 1, 67, 0
3, 13056, Note_on_c, 1, 69, 96
3, 13312, Note_off_c, 1, 69, 0
3, 13312, Note_on_c, 1, 62, 96
3, 13824, Note_off_c, 1, 62, 0
3, 13824, Note_on_c, 1, 67, 96
3, 14336, Note_off_c, 1, 67, 0
3, 14336, Note_on_c, 1, 64, 96
3, 14848, Note_off_c, 1, 64, 0
3, 14848, Note_on_c, 1, 66, 96
3, 15104, Note_off_c, 1, 66, 0
3, 15104, Note_on_c, 1, 67, 96
3, 15360, Note_off_c, 1, 67, 0
3, 15360, Note_on_c, 1, 69, 96
3, 16896, Note_off_c, 1, 69, 0
3, 16896, Note_on_c, 1, 67, 96
3, 17408, Note_off_c, 1, 67, 0
3, 17408, Note_on_c, 1, 72, 96
3, 18944, Note_off_c, 1, 72, 0
3, 18944, Note_on_c, 1, 71, 96
3, 19200, Note_off_c, 1, 71, 0
3, 19200, Note_on_c, 1, 69, 96
3, 19456, Note_off_c, 1, 69, 0
3, 19456, Note_on_c, 1, 71, 96
3, 19968, Note_off_c, 1, 71, 0
3, 19968, Note_on_c, 1, 72, 96
3, 20224, Note_off_c, 1, 72, 0
3, 20224, Note_on_c, 1, 71, 96
3, 20480, Note_off_c, 1, 71, 0
3, 20480, Note_on_c, 1, 69, 96
3, 23040, Note_off_c, 1, 69, 0
3, 23040, Note_on_c, 1, 67, 96
3, 23296, Note_off_c, 1, 67, 0
3, 23296, Note_on_c, 1, 66, 96
3, 23552, Note_off_c, 1, 66, 0
3, 23552, Note_on_c, 1, 67, 96
3, 25600, Note_off_c, 1, 67, 0
3, 25600, Note_on_c, 1, 69, 96
3, 26112, Note_off_c, 1, 69, 0
3, 26112, Note_on_c, 1, 71, 96
3, 26624, Note_off_c, 1, 71, 0
3, 26624, Note_on_c, 1, 64, 96
3, 26880, Note_off_c, 1, 64, 0
3, 26880, Note_on_c, 1, 62, 96
3, 27136, Note_off_c, 1, 62, 0
3, 27136, Note_on_c, 1, 64, 96
3, 27392, Note_off_c, 1, 64, 0
3, 27392, Note_on_c, 1, 66, 96
3, 27648, Note_off_c, 1, 66, 0
3, 27648, Note_on_c, 1, 67, 96
3, 28160, Note_off_c, 1, 67, 0
3, 28160, Note_on_c, 1, 64, 96
3, 28672, Note_off_c, 1, 64, 0
3, 28672, Note_on_c, 1, 69, 96
3, 29184, Note_off_c, 1, 69, 0
3, 29184, Note_on_c, 1, 67, 96
3, 29440, Note_off_c, 1, 67, 0
3, 29440, Note_on_c, 1, 66, 96
3, 29696, Note_off_c, 1, 66, 0
3, 29696, Note_on_c, 1, 67, 96
3, 31744, Note_off_c, 1, 67, 0
3, 31744, Note_on_c, 1, 66, 96
3, 32768, Note_off_c, 1, 66, 0
3, 32768, Note_on_c, 1, 67, 96
3, 33792, Note_off_c, 1, 67, 0
3, 34304, Note_on_c, 1, 71, 96
3, 34816, Note_off_c, 1, 71, 0
3, 34816, Note_on_c, 1, 64, 96
3, 35328, Note_off_c, 1, 64, 0
3, 35328, Note_on_c, 1, 69, 96
3, 35840, Note_off_c, 1, 69, 0
3, 35840, Note_on_c, 1, 62, 96
3, 36352, Note_off_c, 1, 62, 0
3, 36352, Note_on_c, 1, 67, 96
3, 37376, Note_off_c, 1, 67, 0
3, 37376, Note_on_c, 1, 66, 96
3, 38400, Note_off_c, 1, 66, 0
3, 38400, Note_on_c, 1, 64, 96
3, 39424, Note_off_c, 1, 64, 0
3, 39424, Note_on_c, 1, 63, 96
3, 39680, Note_off_c, 1, 63, 0
3, 39680, Note_on_c, 1, 61, 96
3, 39936, Note_off_c, 1, 61, 0
3, 39936, Note_on_c, 1, 63, 96
3, 40192, Note_off_c, 1, 63, 0
3, 40192, Note_on_c, 1, 64, 96
3, 40448, Note_off_c, 1, 64, 0
3, 40448, Note_on_c, 1, 61, 96
3, 40704, Note_off_c, 1, 61, 0
3, 40704, Note_on_c, 1, 63, 96
3, 40960, Note_off_c, 1, 63, 0
3, 40960, Note_on_c, 1, 64, 96
3, 41216, Note_off_c, 1, 64, 0
3, 41216, Note_on_c, 1, 66, 96
3, 41472, Note_off_c, 1, 66, 0
3, 41472, Note_on_c, 1, 67, 96
3, 41984, Note_off_c, 1, 67, 0
3, 41984, Note_on_c, 1, 66, 96
3, 43008, Note_off_c, 1, 66, 0
3, 43008, Note_on_c, 1, 64, 96
3, 44032, Note_off_c, 1, 64, 0
3, 44032, Note_on_c, 1, 66, 96
3, 45056, Note_off_c, 1, 66, 0
3, 45056, Note_on_c, 1, 66, 96
3, 47104, Note_off_c, 1, 66, 0
3, 47104, Note_on_c, 1, 64, 96
3, 48384, Note_off_c, 1, 64, 0
3, 48384, Note_on_c, 1, 64, 96
3, 48640, Note_off_c, 1, 64, 0
3, 48640, Note_on_c, 1, 67, 96
3, 48896, Note_off_c, 1, 67, 0
3, 48896, Note_on_c, 1, 66, 96
3, 49152, Note_off_c, 1, 66, 0
3, 49152, Note_on_c, 1, 64, 96
3, 49920, Note_off_c, 1, 64, 0
3, 49920, Note_on_c, 1, 72, 96
3, 50176, Note_off_c, 1, 72, 0
3, 50176, Note_on_c, 1, 62, 96
3, 50432, Note_off_c, 1, 62, 0
3, 50432, Note_on_c, 1, 60, 96
3, 50688, Note_off_c, 1, 60, 0
3, 50688, Note_on_c, 1, 62, 96
3, 50944, Note_off_c, 1, 62, 0
3, 50944, Note_on_c, 1, 64, 96
3, 51200, Note_off_c, 1, 64, 0
3, 51200, Note_on_c, 1, 60, 96
3, 51456, Note_off_c, 1, 60, 0
3, 51456, Note_on_c, 1, 64, 96
3, 51712, Note_off_c, 1, 64, 0
3, 51712, Note_on_c, 1, 62, 96
3, 51968, Note_off_c, 1, 62, 0
3, 51968, Note_on_c, 1, 60, 96
3, 52224, Note_off_c, 1, 60, 0
3, 52224, Note_on_c, 1, 62, 96
3, 52480, Note_off_c, 1, 62, 0
3, 52480, Note_on_c, 1, 60, 96
3, 52736, Note_off_c, 1, 60, 0
3, 52736, Note_on_c, 1, 59, 96
3, 52992, Note_off_c, 1, 59, 0
3, 52992, Note_on_c, 1, 62, 96
3, 53248, Note_off_c, 1, 62, 0
3, 53248, Note_on_c, 1, 60, 96
3, 53760, Note_off_c, 1, 60, 0
3, 53760, Note_on_c, 1, 69, 96
3, 54784, Note_off_c, 1, 69, 0
3, 54784, Note_on_c, 1, 60, 96
3, 55296, Note_off_c, 1, 60, 0
3, 55296, Note_on_c, 1, 59, 96
3, 55808, Note_off_c, 1, 59, 0
3, 55808, Note_on_c, 1, 60, 96
3, 56064, Note_off_c, 1, 60, 0
3, 56064, Note_on_c, 1, 62, 96
3, 56320, Note_off_c, 1, 62, 0
3, 56320, Note_on_c, 1, 64, 96
3, 57856, Note_off_c, 1, 64, 0
3, 57856, Note_on_c, 1, 62, 96
3, 58112, Note_off_c, 1, 62, 0
3, 58112, Note_on_c, 1, 64, 96
3, 58368, Note_off_c, 1, 64, 0
3, 58368, Note_on_c, 1, 66, 96
3, 58880, Note_off_c, 1, 66, 0
3, 58880, Note_on_c, 1, 64, 96
3, 59136, Note_off_c, 1, 64, 0
3, 59136, Note_on_c, 1, 66, 96
3, 59392, Note_off_c, 1, 66, 0
3, 59392, Note_on_c, 1, 67, 96
3, 60928, Note_off_c, 1, 67, 0
3, 60928, Note_on_c, 1, 66, 96
3, 61440, Note_off_c, 1, 66, 0
3, 61440, Note_on_c, 1, 64, 96
3, 62464, Note_off_c, 1, 64, 0
3, 62464, Note_on_c, 1, 62, 96
3, 64000, Note_off_c, 1, 62, 0
3, 64000, Note_on_c, 1, 64, 96
3, 64256, Note_off_c, 1, 64, 0
3, 64256, Note_on_c, 1, 66, 96
3, 64512, Note_off_c, 1, 66, 0
3, 64512, Note_on_c, 1, 67, 96
3, 65792, Note_off_c, 1, 67, 0
3, 65792, Note_on_c, 1, 69, 96
3, 66048, Note_off_c, 1, 69, 0
3, 66048, Note_on_c, 1, 67, 96
3, 66304, Note_off_c, 1, 67, 0
3, 66304, Note_on_c, 1, 66, 96
3, 66560, Note_off_c, 1, 66, 0
3, 66560, Note_on_c, 1, 67, 96
3, 67840, Note_off_c, 1, 67, 0
3, 67840, Note_on_c, 1, 67, 96
3, 68096, Note_off_c, 1, 67, 0
3, 68096, Note_on_c, 1, 66, 96
3, 68352, Note_off_c, 1, 66, 0
3, 68352, Note_on_c, 1, 64, 96
3, 68608, Note_off_c, 1, 64, 0
3, 68608, Note_on_c, 1, 66, 96
3, 69888, Note_off_c, 1, 66, 0
3, 69888, Note_on_c, 1, 66, 96
3, 70144, Note_off_c, 1, 66, 0
3, 70144, Note_on_c, 1, 64, 96
3, 70400, Note_off_c, 1, 64, 0
3, 70400, Note_on_c, 1, 63, 96
3, 70656, Note_off_c, 1, 63, 0
3, 70656, Note_on_c, 1, 64, 96
3, 71680, Note_off_c, 1, 64, 0
3, 71680, Note_on_c, 1, 62, 96
3, 72704, Note_off_c, 1, 62, 0
3, 74240, Note_on_c, 1, 55, 96
3, 74752, Note_off_c, 1, 55, 0
3, 74752, Note_on_c, 1, 57, 96
3, 75264, Note_off_c, 1, 57, 0
3, 75264, Note_on_c, 1, 59, 96
3, 75776, Note_off_c, 1, 59, 0
3, 75776, Note_on_c, 1, 60, 96
3, 76288, Note_off_c, 1, 60, 0
3, 76288, Note_on_c, 1, 62, 96
3, 76800, Note_off_c, 1, 62, 0
3, 76800, Note_on_c, 1, 64, 96
3, 77312, Note_off_c, 1, 64, 0
3, 77312, Note_on_c, 1, 66, 96
3, 77824, Note_off_c, 1, 66, 0
3, 77824, Note_on_c, 1, 67, 96
3, 78848, Note_off_c, 1, 67, 0
3, 78848, Note_on_c, 1, 62, 96
3, 79872, Note_off_c, 1, 62, 0
3, 79872, Note_on_c, 1, 62, 96
3, 80896, Note_off_c, 1, 62, 0
3, 80896, Note_on_c, 1, 62, 96
3, 81920, Note_off_c, 1, 62, 0
3, 81920, Note_on_c, 1, 64, 96
3, 82944, Note_off_c, 1, 64, 0
3, 82944, Note_on_c, 1, 64, 96
3, 83200, Note_off_c, 1, 64, 0
3, 83200, Note_on_c, 1, 62, 96
3, 83456, Note_off_c, 1, 62, 0
3, 83456, Note_on_c, 1, 64, 96
3, 83712, Note_off_c, 1, 64, 0
3, 83712, Note_on_c, 1, 65, 96
3, 83968, Note_off_c, 1, 65, 0
3, 83968, Note_on_c, 1, 62, 96
3, 84480, Note_off_c, 1, 62, 0
3, 84480, Note_on_c, 1, 64, 96
3, 84736, Note_off_c, 1, 64, 0
3, 84736, Note_on_c, 1, 66, 96
3, 84992, Note_off_c, 1, 66, 0
3, 84992, Note_on_c, 1, 67, 96
3, 87296, Note_off_c, 1, 67, 0
3, 87296, Note_on_c, 1, 66, 96
3, 87552, Note_off_c, 1, 66, 0
3, 87552, Note_on_c, 1, 64, 96
3, 87808, Note_off_c, 1, 64, 0
3, 87808, Note_on_c, 1, 66, 96
3, 88064, Note_off_c, 1, 66, 0
3, 88064, Note_on_c, 1, 67, 96
3, 88576, Note_off_c, 1, 67, 0
3, 88576, Note_on_c, 1, 69, 96
3, 88832, Note_off_c, 1, 69, 0
3, 88832, Note_on_c, 1, 71, 96
3, 89088, Note_off_c, 1, 71, 0
3, 89088, Note_on_c, 1, 69, 96
3, 89600, Note_off_c, 1, 69, 0
3, 89600, Note_on_c, 1, 67, 96
3, 90112, Note_off_c, 1, 67, 0
3, 90112, Note_on_c, 1, 66, 96
3, 90624, Note_off_c, 1, 66, 0
3, 90624, Note_on_c, 1, 67, 96
3, 90880, Note_off_c, 1, 67, 0
3, 90880, Note_on_c, 1, 69, 96
3, 91136, Note_off_c, 1, 69, 0
3, 91136, Note_on_c, 1, 62, 96
3, 91648, Note_off_c, 1, 62, 0
3, 91648, Note_on_c, 1, 67, 96
3, 92160, Note_off_c, 1, 67, 0
3, 92160, Note_on_c, 1, 64, 96
3, 92672, Note_off_c, 1, 64, 0
3, 92672, Note_on_c, 1, 66, 96
3, 92928, Note_off_c, 1, 66, 0
3, 92928, Note_on_c, 1, 67, 96
3, 93184, Note_off_c, 1, 67, 0
3, 93184, Note_on_c, 1, 69, 96
3, 94720, Note_off_c, 1, 69, 0
3, 94720, Note_on_c, 1, 67, 96
3, 95232, Note_off_c, 1, 67, 0
3, 95232, Note_on_c, 1, 72, 96
3, 96768, Note_off_c, 1, 72, 0
3, 96768, Note_on_c, 1, 71, 96
3, 97024, Note_off_c, 1, 71, 0
3, 97024, Note_on_c, 1, 69, 96
3, 97280, Note_off_c, 1, 69, 0
3, 97280, Note_on_c, 1, 71, 96
3, 97792, Note_off_c, 1, 71, 0
3, 97792, Note_on_c, 1, 72, 96
3, 98048, Note_off_c, 1, 72, 0
3, 98048, Note_on_c, 1, 71, 96
3, 98304, Note_off_c, 1, 71, 0
3, 98304, Note_on_c, 1, 69, 96
3, 100864, Note_off_c, 1, 69, 0
3, 100864, Note_on_c, 1, 67, 96
3, 101120, Note_off_c, 1, 67, 0
3, 101120, Note_on_c, 1, 66, 96
3, 101376, Note_off_c, 1, 66, 0
3, 101376, Note_on_c, 1, 67, 96
3, 103424, Note_off_c, 1, 67, 0
3, 103424, Note_on_c, 1, 69, 96
3, 103936, Note_off_c, 1, 69, 0
3, 103936, Note_on_c, 1, 71, 96
3, 104448, Note_off_c, 1, 71, 0
3, 104448, Note_on_c, 1, 64, 96
3, 104704, Note_off_c, 1, 64, 0
3, 104704, Note_on_c, 1, 62, 96
3, 104960, Note_off_c, 1, 62, 0
3, 104960, Note_on_c, 1, 64, 96
3, 105216, Note_off_c, 1, 64, 0
3, 105216, Note_on_c, 1, 66, 96
3, 105472, Note_off_c, 1, 66, 0
3, 105472, Note_on_c, 1, 67, 96
3, 105984, Note_off_c, 1, 67, 0
3, 105984, Note_on_c, 1, 64, 96
3, 106496, Note_off_c, 1, 64, 0
3, 106496, Note_on_c, 1, 69, 96
3, 107008, Note_off_c, 1, 69, 0
3, 107008, Note_on_c, 1, 67, 96
3, 107264, Note_off_c, 1, 67, 0
3, 107264, Note_on_c, 1, 66, 96
3, 107520, Note_off_c, 1, 66, 0
3, 107520, Note_on_c, 1, 67, 96
3, 109568, Note_off_c, 1, 67, 0
3, 109568, Note_on_c, 1, 66, 96
3, 110592, Note_off_c, 1, 66, 0
3, 110592, Note_on_c, 1, 67, 96
3, 111616, Note_off_c, 1, 67, 0
3, 112128, Note_on_c, 1, 71, 96
3, 112640, Note_off_c, 1, 71, 0
3, 112640, Note_on_c, 1, 64, 96
3, 113152, Note_off_c, 1, 64, 0
3, 113152, Note_on_c, 1, 69, 96
3, 113664, Note_off_c, 1, 69, 0
3, 113664, Note_on_c, 1, 62, 96
3, 114176, Note_off_c, 1, 62, 0
3, 114176, Note_on_c, 1, 67, 96
3, 115200, Note_off_c, 1, 67, 0
3, 115200, Note_on_c, 1, 66, 96
3, 116224, Note_off_c, 1, 66, 0
3, 116224, Note_on_c, 1, 64, 96
3, 117248, Note_off_c, 1, 64, 0
3, 117248, Note_on_c, 1, 63, 96
3, 117504, Note_off_c, 1, 63, 0
3, 117504, Note_on_c, 1, 61, 96
3, 117760, Note_off_c, 1, 61, 0
3, 117760, Note_on_c, 1, 63, 96
3, 118016, Note_off_c, 1, 63, 0
3, 118016, Note_on_c, 1, 64, 96
3, 118272, Note_off_c, 1, 64, 0
3, 118272, Note_on_c, 1, 61, 96
3, 118528, Note_off_c, 1, 61, 0
3, 118528, Note_on_c, 1, 63, 96
3, 118784, Note_off_c, 1, 63, 0
3, 118784, Note_on_c, 1, 64, 96
3, 119040, Note_off_c, 1, 64, 0
3, 119040, Note_on_c, 1, 66, 96
3, 119296, Note_off_c, 1, 66, 0
3, 119296, Note_on_c, 1, 67, 96
3, 119808, Note_off_c, 1, 67, 0
3, 119808, Note_on_c, 1, 66, 96
3, 120832, Note_off_c, 1, 66, 0
3, 120832, Note_on_c, 1, 64, 96
3, 121856, Note_off_c, 1, 64, 0
3, 121856, Note_on_c, 1, 66, 96
3, 122880, Note_off_c, 1, 66, 0
3, 122880, Note_on_c, 1, 66, 96
3, 124928, Note_off_c, 1, 66, 0
3, 124928, Note_on_c, 1, 64, 96
3, 126208, Note_off_c, 1, 64, 0
3, 126208, Note_on_c, 1, 64, 96
3, 126464, Note_off_c, 1, 64, 0
3, 126464, Note_on_c, 1, 67, 96
3, 126720, Note_off_c, 1, 67, 0
3, 126720, Note_on_c, 1, 66, 96
3, 126976, Note_off_c, 1, 66, 0
3, 126976, Note_on_c, 1, 64, 96
3, 127744, Note_off_c, 1, 64, 0
3, 127744, Note_on_c, 1, 72, 96
3, 128000, Note_off_c, 1, 72, 0
3, 128000, Note_on_c, 1, 62, 96
3, 128256, Note_off_c, 1, 62, 0
3, 128256, Note_on_c, 1, 60, 96
3, 128512, Note_off_c, 1, 60, 0
3, 128512, Note_on_c, 1, 62, 96
3, 128768, Note_off_c, 1, 62, 0
3, 128768, Note_on_c, 1, 64, 96
3, 129024, Note_off_c, 1, 64, 0
3, 129024, Note_on_c, 1, 60, 96
3, 129280, Note_off_c, 1, 60, 0
3, 129280, Note_on_c, 1, 64, 96
3, 129536, Note_off_c, 1, 64, 0
3, 129536, Note_on_c, 1, 62, 96
3, 129792, Note_off_c, 1, 62, 0
3, 129792, Note_on_c, 1, 60, 96
3, 130048, Note_off_c, 1, 60, 0
3, 130048, Note_on_c, 1, 62, 96
3, 130304, Note_off_c, 1, 62, 0
3, 130304, Note_on_c, 1, 60, 96
3, 130560, Note_off_c, 1, 60, 0
3, 130560, Note_on_c, 1, 59, 96
3, 130816, Note_off_c, 1, 59, 0
3, 130816, Note_on_c, 1, 62, 96
3, 131072, Note_off_c, 1, 62, 0
3, 131072, Note_on_c, 1, 60, 96
3, 131584, Note_off_c, 1, 60, 0
3, 131584, Note_on_c, 1, 69, 96
3, 132608, Note_off_c, 1, 69, 0
3, 132608, Note_on_c, 1, 60, 96
3, 133120, Note_off_c, 1, 60, 0
3, 133120, Note_on_c, 1, 59, 96
3, 133632, Note_off_c, 1, 59, 0
3, 133632, Note_on_c, 1, 60, 96
3, 133888, Note_off_c, 1, 60, 0
3, 133888, Note_on_c, 1, 62, 96
3, 134144, Note_off_c, 1, 62, 0
3, 134144, Note_on_c, 1, 64, 96
3, 135680, Note_off_c, 1, 64, 0
3, 135680, Note_on_c, 1, 62, 96
3, 135936, Note_off_c, 1, 62, 0
3, 135936, Note_on_c, 1, 64, 96
3, 136192, Note_off_c, 1, 64, 0
3, 136192, Note_on_c, 1, 66, 96
3, 136704, Note_off_c, 1, 66, 0
3, 136704, Note_on_c, 1, 64, 96
3, 136960, Note_off_c, 1, 64, 0
3, 136960, Note_on_c, 1, 66, 96
3, 137216, Note_off_c, 1, 66, 0
3, 137216, Note_on_c, 1, 67, 96
3, 138752, Note_off_c, 1, 67, 0
3, 138752, Note_on_c, 1, 66, 96
3, 139264, Note_off_c, 1, 66, 0
3, 139264, Note_on_c, 1, 64, 96
3, 140288, Note_off_c, 1, 64, 0
3, 140288, Note_on_c, 1, 62, 96
3, 141824, Note_off_c, 1, 62, 0
3, 141824, Note_on_c, 1, 64, 96
3, 142080, Note_off_c, 1, 64, 0
3, 142080, Note_on_c, 1, 66, 96
3, 142336, Note_off_c, 1, 66, 0
3, 142336, Note_on_c, 1, 67, 96
3, 143616, Note_off_c, 1, 67, 0
3, 143616, Note_on_c, 1, 69, 96
3, 143872, Note_off_c, 1, 69, 0
3, 143872, Note_on_c, 1, 67, 96
3, 144128, Note_off_c, 1, 67, 0
3, 144128, Note_on_c, 1, 66, 96
3, 144384, Note_off_c, 1, 66, 0
3, 144384, Note_on_c, 1, 67, 96
3, 145664, Note_off_c, 1, 67, 0
3, 145664, Note_on_c, 1, 67, 96
3, 145920, Note_off_c, 1, 67, 0
3, 145920, Note_on_c, 1, 66, 96
3, 146176, Note_off_c, 1, 66, 0
3, 146176, Note_on_c, 1, 64, 96
3, 146432, Note_off_c, 1, 64, 0
3, 146432, Note_on_c, 1, 66, 96
3, 147712, Note_off_c, 1, 66, 0
3, 147712, Note_on_c, 1, 66, 96
3, 147968, Note_off_c, 1, 66, 0
3, 147968, Note_on_c, 1, 64, 96
3, 148224, Note_off_c, 1, 64, 0
3, 148224, Note_on_c, 1, 63, 96
3, 148480, Note_off_c, 1, 63, 0
3, 148480, Note_on_c, 1, 64, 96
3, 149504, Note_off_c, 1, 64, 0
3, 149504, Note_on_c, 1, 62, 96
3, 150528, Note_off_c, 1, 62, 0
3, 151808, Note_on_c, 1, 55, 96
3, 152064, Note_off_c, 1, 55, 0
3, 152064, Note_on_c, 1, 57, 96
3, 152320, Note_off_c, 1, 57, 0
3, 152320, Note_on_c, 1, 59, 96
3, 152576, Note_off_c, 1, 59, 0
3, 152576, Note_on_c, 1, 60, 96
3, 152832, Note_off_c, 1, 60, 0
3, 152832, Note_on_c, 1, 62, 96
3, 153088, Note_off_c, 1, 62, 0
3, 153088, Note_on_c, 1, 64, 96
3, 153600, Note_off_c, 1, 64, 0
3, 153600, Note_on_c, 1, 62, 96
3, 155392, Note_off_c, 1, 62, 0
3, 155392, Note_on_c, 1, 61, 96
3, 155648, Note_off_c, 1, 61, 0
3, 155648, Note_on_c, 1, 62, 96
3, 156672, Note_off_c, 1, 62, 0
3, 164864, Note_on_c, 1, 64, 96
3, 165888, Note_off_c, 1, 64, 0
3, 165888, Note_on_c, 1, 64, 96
3, 166912, Note_off_c, 1, 64, 0
3, 166912, Note_on_c, 1, 64, 96
3, 167936, Note_off_c, 1, 64, 0
3, 167936, Note_on_c, 1, 66, 96
3, 169216, Note_off_c, 1, 66, 0
3, 169216, Note_on_c, 1, 64, 96
3, 169472, Note_off_c, 1, 64, 0
3, 169472, Note_on_c, 1, 66, 96
3, 169728, Note_off_c, 1, 66, 0
3, 169728, Note_on_c, 1, 67, 96
3, 169984, Note_off_c, 1, 67, 0
3, 169984, Note_on_c, 1, 64, 96
3, 171264, Note_off_c, 1, 64, 0
3, 171264, Note_on_c, 1, 62, 96
3, 171520, Note_off_c, 1, 62, 0
3, 171520, Note_on_c, 1, 64, 96
3, 171776, Note_off_c, 1, 64, 0
3, 171776, Note_on_c, 1, 69, 96
3, 172032, Note_off_c, 1, 69, 0
3, 172032, Note_on_c, 1, 62, 96
3, 173312, Note_off_c, 1, 62, 0
3, 173312, Note_on_c, 1, 61, 96
3, 173568, Note_off_c, 1, 61, 0
3, 173568, Note_on_c, 1, 62, 96
3, 173824, Note_off_c, 1, 62, 0
3, 173824, Note_on_c, 1, 67, 96
3, 174080, Note_off_c, 1, 67, 0
3, 174080, Note_on_c, 1, 61, 96
3, 174848, Note_off_c, 1, 61, 0
3, 174848, Note_on_c, 1, 61, 96
3, 175104, Note_off_c, 1, 61, 0
3, 175104, Note_on_c, 1, 62, 96
3, 175360, Note_off_c, 1, 62, 0
3, 175360, Note_on_c, 1, 66, 96
3, 175616, Note_off_c, 1, 66, 0
3, 175616, Note_on_c, 1, 64, 96
3, 175872, Note_off_c, 1, 64, 0
3, 175872, Note_on_c, 1, 67, 96
3, 176128, Note_off_c, 1, 67, 0
3, 176128, Note_on_c, 1, 66, 96
3, 176384, Note_off_c, 1, 66, 0
3, 176384, Note_on_c, 1, 67, 96
3, 176640, Note_off_c, 1, 67, 0
3, 176640, Note_on_c, 1, 66, 96
3, 176896, Note_off_c, 1, 66, 0
3, 176896, Note_on_c, 1, 64, 96
3, 177152, Note_off_c, 1, 64, 0
3, 177152, Note_on_c, 1, 62, 96
3, 177408, Note_off_c, 1, 62, 0
3, 177408, Note_on_c, 1, 61, 96
3, 177664, Note_off_c, 1, 61, 0
3, 177664, Note_on_c, 1, 59, 96
3, 177920, Note_off_c, 1, 59, 0
3, 177920, Note_on_c, 1, 57, 96
3, 178176, Note_off_c, 1, 57, 0
3, 178176, Note_on_c, 1, 62, 96
3, 178688, Note_off_c, 1, 62, 0
3, 178688, Note_on_c, 1, 55, 96
3, 179200, Note_off_c, 1, 55, 0
3, 179200, Note_on_c, 1, 54, 96
3, 179712, Note_off_c, 1, 54, 0
3, 182528, Note_on_c, 1, 59, 96
3, 182784, Note_off_c, 1, 59, 0
3, 182784, Note_on_c, 1, 64, 96
3, 183040, Note_off_c, 1, 64, 0
3, 183040, Note_on_c, 1, 63, 96
3, 183296, Note_off_c, 1, 63, 0
3, 183296, Note_on_c, 1, 64, 96
3, 183552, Note_off_c, 1, 64, 0
3, 183552, Note_on_c, 1, 66, 96
3, 183808, Note_off_c, 1, 66, 0
3, 183808, Note_on_c, 1, 67, 96
3, 184832, Note_off_c, 1, 67, 0
3, 184832, Note_on_c, 1, 67, 96
3, 185344, Note_off_c, 1, 67, 0
3, 185344, Note_on_c, 1, 66, 96
3, 185600, Note_off_c, 1, 66, 0
3, 185600, Note_on_c, 1, 67, 96
3, 185856, Note_off_c, 1, 67, 0
3, 185856, Note_on_c, 1, 64, 96
3, 186112, Note_off_c, 1, 64, 0
3, 186112, Note_on_c, 1, 66, 96
3, 186368, Note_off_c, 1, 66, 0
3, 186368, Note_on_c, 1, 62, 96
3, 186624, Note_off_c, 1, 62, 0
3, 186624, Note_on_c, 1, 57, 96
3, 186880, Note_off_c, 1, 57, 0
3, 186880, Note_on_c, 1, 62, 96
3, 187648, Note_off_c, 1, 62, 0
3, 187648, Note_on_c, 1, 62, 96
3, 187904, Note_off_c, 1, 62, 0
3, 187904, Note_on_c, 1, 61, 96
3, 188416, Note_off_c, 1, 61, 0
3, 188416, Note_on_c, 1, 62, 96
3, 189440, Note_off_c, 1, 62, 0
3, 195584, Note_on_c, 1, 62, 96
3, 196608, Note_off_c, 1, 62, 0
3, 196608, Note_on_c, 1, 64, 96
3, 197120, Note_off_c, 1, 64, 0
3, 197120, Note_on_c, 1, 66, 96
3, 197632, Note_off_c, 1, 66, 0
3, 197632, Note_on_c, 1, 67, 96
3, 199680, Note_off_c, 1, 67, 0
3, 199680, Note_on_c, 1, 66, 96
3, 200704, Note_off_c, 1, 66, 0
3, 200704, Note_on_c, 1, 67, 96
3, 201216, Note_off_c, 1, 67, 0
3, 201216, Note_on_c, 1, 62, 96
3, 201728, Note_off_c, 1, 62, 0
3, 201728, Note_on_c, 1, 67, 96
3, 202240, Note_off_c, 1, 67, 0
3, 202240, Note_on_c, 1, 66, 96
3, 202752, Note_off_c, 1, 66, 0
3, 202752, Note_on_c, 1, 64, 96
3, 204288, Note_off_c, 1, 64, 0
3, 204288, Note_on_c, 1, 62, 96
3, 204544, Note_off_c, 1, 62, 0
3, 204544, Note_on_c, 1, 60, 96
3, 204800, Note_off_c, 1, 60, 0
3, 204800, Note_on_c, 1, 59, 96
3, 205824, Note_off_c, 1, 59, 0
3, 205824, Note_on_c, 1, 64, 96
3, 206848, Note_off_c, 1, 64, 0
3, 206848, Note_on_c, 1, 62, 96
3, 207360, Note_off_c, 1, 62, 0
3, 207360, Note_on_c, 1, 66, 96
3, 207616, Note_off_c, 1, 66, 0
3, 207616, Note_on_c, 1, 64, 96
3, 207872, Note_off_c, 1, 64, 0
3, 207872, Note_on_c, 1, 62, 96
3, 208384, Note_off_c, 1, 62, 0
3, 208384, Note_on_c, 1, 64, 96
3, 208640, Note_off_c, 1, 64, 0
3, 208640, Note_on_c, 1, 66, 96
3, 208896, Note_off_c, 1, 66, 0
3, 208896, Note_on_c, 1, 64, 96
3, 209920, Note_off_c, 1, 64, 0
3, 211456, Note_on_c, 1, 64, 96
3, 211712, Note_off_c, 1, 64, 0
3, 211712, Note_on_c, 1, 66, 96
3, 211968, Note_off_c, 1, 66, 0
3, 211968, Note_on_c, 1, 67, 96
3, 212480, Note_off_c, 1, 67, 0
3, 212480, Note_on_c, 1, 66, 96
3, 212736, Note_off_c, 1, 66, 0
3, 212736, Note_on_c, 1, 64, 96
3, 212992, Note_off_c, 1, 64, 0
3, 212992, Note_on_c, 1, 69, 96
3, 213504, Note_off_c, 1, 69, 0
3, 215296, Note_on_c, 1, 62, 96
3, 215552, Note_off_c, 1, 62, 0
3, 215552, Note_on_c, 1, 64, 96
3, 215808, Note_off_c, 1, 64, 0
3, 215808, Note_on_c, 1, 66, 96
3, 216064, Note_off_c, 1, 66, 0
3, 216064, Note_on_c, 1, 67, 96
3, 216320, Note_off_c, 1, 67, 0
3, 216320, Note_on_c, 1, 66, 96
3, 216576, Note_off_c, 1, 66, 0
3, 216576, Note_on_c, 1, 64, 96
3, 216832, Note_off_c, 1, 64, 0
3, 216832, Note_on_c, 1, 67, 96
3, 217088, Note_off_c, 1, 67, 0
3, 217088, Note_on_c, 1, 66, 96
3, 217344, Note_off_c, 1, 66, 0
3, 217344, Note_on_c, 1, 64, 96
3, 217600, Note_off_c, 1, 64, 0
3, 217600, Note_on_c, 1, 66, 96
3, 217856, Note_off_c, 1, 66, 0
3, 217856, Note_on_c, 1, 67, 96
3, 218112, Note_off_c, 1, 67, 0
3, 218112, Note_on_c, 1, 69, 96
3, 219136, Note_off_c, 1, 69, 0
3, 219136, Note_on_c, 1, 71, 96
3, 220672, Note_off_c, 1, 71, 0
3, 220672, Note_on_c, 1, 69, 96
3, 221184, Note_off_c, 1, 69, 0
3, 221184, Note_on_c, 1, 67, 96
3, 222208, Note_off_c, 1, 67, 0
3, 222208, Note_on_c, 1, 66, 96
3, 223232, Note_off_c, 1, 66, 0
3, 223232, Note_on_c, 1, 68, 96
3, 223744, Note_off_c, 1, 68, 0
3, 223744, Note_on_c, 1, 69, 96
3, 224768, Note_off_c, 1, 69, 0
3, 224768, Note_on_c, 1, 67, 96
3, 225792, Note_off_c, 1, 67, 0
3, 225792, Note_on_c, 1, 66, 96
3, 226304, Note_off_c, 1, 66, 0
3, 226304, Note_on_c, 1, 64, 96
3, 226816, Note_off_c, 1, 64, 0
3, 226816, Note_on_c, 1, 69, 96
3, 227584, Note_off_c, 1, 69, 0
3, 227584, Note_on_c, 1, 67, 96
3, 227840, Note_off_c, 1, 67, 0
3, 227840, Note_on_c, 1, 66, 96
3, 228096, Note_off_c, 1, 66, 0
3, 228096, Note_on_c, 1, 67, 96
3, 228352, Note_off_c, 1, 67, 0
3, 228352, Note_on_c, 1, 72, 96
3, 229888, Note_off_c, 1, 72, 0
3, 229888, Note_on_c, 1, 71, 96
3, 230912, Note_off_c, 1, 71, 0
3, 230912, Note_on_c, 1, 69, 96
3, 231680, Note_off_c, 1, 69, 0
3, 231680, Note_on_c, 1, 62, 96
3, 231936, Note_off_c, 1, 62, 0
3, 231936, Note_on_c, 1, 67, 96
3, 232192, Note_off_c, 1, 67, 0
3, 232192, Note_on_c, 1, 69, 96
3, 232448, Note_off_c, 1, 69, 0
3, 232448, Note_on_c, 1, 67, 96
3, 232960, Note_off_c, 1, 67, 0
3, 232960, Note_on_c, 1, 65, 96
3, 233472, Note_off_c, 1, 65, 0
3, 233472, Note_on_c, 1, 64, 96
3, 233728, Note_off_c, 1, 64, 0
3, 233728, Note_on_c, 1, 65, 96
3, 233984, Note_off_c, 1, 65, 0
3, 233984, Note_on_c, 1, 64, 96
3, 234240, Note_off_c, 1, 64, 0
3, 234240, Note_on_c, 1, 62, 96
3, 234496, Note_off_c, 1, 62, 0
3, 234496, Note_on_c, 1, 60, 96
3, 234752, Note_off_c, 1, 60, 0
3, 234752, Note_on_c, 1, 59, 96
3, 235008, Note_off_c, 1, 59, 0
3, 235008, Note_on_c, 1, 57, 96
3, 235264, Note_off_c, 1, 57, 0
3, 235264, Note_on_c, 1, 56, 96
3, 235520, Note_off_c, 1, 56, 0
3, 235520, Note_on_c, 1, 57, 96
3, 235776, Note_off_c, 1, 57, 0
3, 237824, Note_on_c, 1, 64, 96
3, 238080, Note_off_c, 1, 64, 0
3, 238080, Note_on_c, 1, 66, 96
3, 238336, Note_off_c, 1, 66, 0
3, 238336, Note_on_c, 1, 68, 96
3, 238592, Note_off_c, 1, 68, 0
3, 238592, Note_on_c, 1, 69, 96
3, 240896, Note_off_c, 1, 69, 0
3, 240896, Note_on_c, 1, 68, 96
3, 241152, Note_off_c, 1, 68, 0
3, 241152, Note_on_c, 1, 66, 96
3, 241408, Note_off_c, 1, 66, 0
3, 241408, Note_on_c, 1, 68, 96
3, 241664, Note_off_c, 1, 68, 0
3, 241664, Note_on_c, 1, 69, 96
3, 242176, Note_off_c, 1, 69, 0
3, 243968, Note_on_c, 1, 71, 96
3, 244224, Note_off_c, 1, 71, 0
3, 244224, Note_on_c, 1, 69, 96
3, 244480, Note_off_c, 1, 69, 0
3, 244480, Note_on_c, 1, 67, 96
3, 244736, Note_off_c, 1, 67, 0
3, 244736, Note_on_c, 1, 69, 96
3, 244992, Note_off_c, 1, 69, 0
3, 244992, Note_on_c, 1, 67, 96
3, 245248, Note_off_c, 1, 67, 0
3, 245248, Note_on_c, 1, 67, 96
3, 245504, Note_off_c, 1, 67, 0
3, 245504, Note_on_c, 1, 69, 96
3, 245760, Note_off_c, 1, 69, 0
3, 245760, Note_on_c, 1, 66, 96
3, 247808, Note_off_c, 1, 66, 0
3, 247808, Note_on_c, 1, 64, 96
3, 248832, Note_off_c, 1, 64, 0
3, 248832, Note_on_c, 1, 66, 96
3, 249856, Note_off_c, 1, 66, 0
3, 249856, Note_on_c, 1, 64, 96
3, 251136, Note_off_c, 1, 64, 0
3, 251136, Note_on_c, 1, 62, 96
3, 251392, Note_off_c, 1, 62, 0
3, 251392, Note_on_c, 1, 64, 96
3, 251648, Note_off_c, 1, 64, 0
3, 251648, Note_on_c, 1, 61, 96
3, 251904, Note_off_c, 1, 61, 0
3, 251904, Note_on_c, 1, 62, 96
3, 252160, Note_off_c, 1, 62, 0
3, 252160, Note_on_c, 1, 66, 96
3, 252416, Note_off_c, 1, 66, 0
3, 252416, Note_on_c, 1, 64, 96
3, 252672, Note_off_c, 1, 64, 0
3, 252672, Note_on_c, 1, 62, 96
3, 252928, Note_off_c, 1, 62, 0
3, 252928, Note_on_c, 1, 67, 96
3, 254720, Note_off_c, 1, 67, 0
3, 254720, Note_on_c, 1, 66, 96
3, 254976, Note_off_c, 1, 66, 0
3, 254976, Note_on_c, 1, 74, 96
3, 255744, Note_off_c, 1, 74, 0
3, 255744, Note_on_c, 1, 67, 96
3, 256000, Note_off_c, 1, 67, 0
3, 256000, Note_on_c, 1, 72, 96
3, 256512, Note_off_c, 1, 72, 0
3, 256512, Note_on_c, 1, 66, 96
3, 257024, Note_off_c, 1, 66, 0
3, 257024, Note_on_c, 1, 71, 96
3, 258304, Note_off_c, 1, 71, 0
3, 258304, Note_on_c, 1, 69, 96
3, 258560, Note_off_c, 1, 69, 0
3, 258560, Note_on_c, 1, 71, 96
3, 258816, Note_off_c, 1, 71, 0
3, 258816, Note_on_c, 1, 76, 96
3, 259072, Note_off_c, 1, 76, 0
3, 259072, Note_on_c, 1, 69, 96
3, 260352, Note_off_c, 1, 69, 0
3, 260352, Note_on_c, 1, 67, 96
3, 260608, Note_off_c, 1, 67, 0
3, 260608, Note_on_c, 1, 69, 96
3, 260864, Note_off_c, 1, 69, 0
3, 260864, Note_on_c, 1, 74, 96
3, 261120, Note_off_c, 1, 74, 0
3, 261120, Note_on_c, 1, 67, 96
3, 262400, Note_off_c, 1, 67, 0
3, 262400, Note_on_c, 1, 66, 96
3, 262656, Note_off_c, 1, 66, 0
3, 262656, Note_on_c, 1, 67, 96
3, 262912, Note_off_c, 1, 67, 0
3, 262912, Note_on_c, 1, 72, 96
3, 263168, Note_off_c, 1, 72, 0
3, 263168, Note_on_c, 1, 71, 96
3, 263424, Note_off_c, 1, 71, 0
3, 263424, Note_on_c, 1, 69, 96
3, 263680, Note_off_c, 1, 69, 0
3, 263680, Note_on_c, 1, 67, 96
3, 263936, Note_off_c, 1, 67, 0
3, 263936, Note_on_c, 1, 66, 96
3, 264192, Note_off_c, 1, 66, 0
3, 264192, Note_on_c, 1, 67, 96
3, 265216, Note_off_c, 1, 67, 0
3, 265472, Note_on_c, 1, 59, 96
3, 265728, Note_off_c, 1, 59, 0
3, 265728, Note_on_c, 1, 60, 96
3, 265984, Note_off_c, 1, 60, 0
3, 265984, Note_on_c, 1, 62, 96
3, 266240, Note_off_c, 1, 62, 0
3, 266240, Note_on_c, 1, 64, 96
3, 266496, Note_off_c, 1, 64, 0
3, 266496, Note_on_c, 1, 62, 96
3, 266752, Note_off_c, 1, 62, 0
3, 266752, Note_on_c, 1, 60, 96
3, 267008, Note_off_c, 1, 60, 0
3, 267008, Note_on_c, 1, 59, 96
3, 267264, Note_off_c, 1, 59, 0
3, 267264, Note_on_c, 1, 57, 96
3, 267520, Note_off_c, 1, 57, 0
3, 267520, Note_on_c, 1, 62, 96
3, 267776, Note_off_c, 1, 62, 0
3, 267776, Note_on_c, 1, 60, 96
3, 268032, Note_off_c, 1, 60, 0
3, 268032, Note_on_c, 1, 62, 96
3, 268288, Note_off_c, 1, 62, 0
3, 268288, Note_on_c, 1, 59, 96
3, 268800, Note_off_c, 1, 59, 0
3, 269568, Note_on_c, 1, 67, 96
3, 269824, Note_off_c, 1, 67, 0
3, 269824, Note_on_c, 1, 66, 96
3, 270080, Note_off_c, 1, 66, 0
3, 270080, Note_on_c, 1, 67, 96
3, 270336, Note_off_c, 1, 67, 0
3, 270336, Note_on_c, 1, 64, 96
3, 270848, Note_off_c, 1, 64, 0
3, 271616, Note_on_c, 1, 69, 96
3, 271872, Note_off_c, 1, 69, 0
3, 271872, Note_on_c, 1, 67, 96
3, 272128, Note_off_c, 1, 67, 0
3, 272128, Note_on_c, 1, 69, 96
3, 272384, Note_off_c, 1, 69, 0
3, 272384, Note_on_c, 1, 66, 96
3, 273664, Note_off_c, 1, 66, 0
3, 273664, Note_on_c, 1, 67, 96
3, 273920, Note_off_c, 1, 67, 0
3, 273920, Note_on_c, 1, 64, 96
3, 274176, Note_off_c, 1, 64, 0
3, 274176, Note_on_c, 1, 66, 96
3, 274432, Note_off_c, 1, 66, 0
3, 274432, Note_on_c, 1, 67, 96
3, 274688, Note_off_c, 1, 67, 0
3, 274688, Note_on_c, 1, 65, 96
3, 274944, Note_off_c, 1, 65, 0
3, 274944, Note_on_c, 1, 64, 96
3, 275200, Note_off_c, 1, 64, 0
3, 275200, Note_on_c, 1, 62, 96
3, 275456, Note_off_c, 1, 62, 0
3, 275456, Note_on_c, 1, 64, 96
3, 276480, Note_off_c, 1, 64, 0
3, 276480, Note_on_c, 1, 62, 96
3, 276736, Note_off_c, 1, 62, 0
3, 276736, Note_on_c, 1, 60, 96
3, 276992, Note_off_c, 1, 60, 0
3, 276992, Note_on_c, 1, 62, 96
3, 277248, Note_off_c, 1, 62, 0
3, 277248, Note_on_c, 1, 64, 96
3, 277504, Note_off_c, 1, 64, 0
3, 277504, Note_on_c, 1, 62, 96
3, 277760, Note_off_c, 1, 62, 0
3, 277760, Note_on_c, 1, 65, 96
3, 278016, Note_off_c, 1, 65, 0
3, 278016, Note_on_c, 1, 59, 96
3, 278272, Note_off_c, 1, 59, 0
3, 278272, Note_on_c, 1, 62, 96
3, 278528, Note_off_c, 1, 62, 0
3, 278528, Note_on_c, 1, 60, 96
3, 278784, Note_off_c, 1, 60, 0
3, 278784, Note_on_c, 1, 62, 96
3, 279040, Note_off_c, 1, 62, 0
3, 279040, Note_on_c, 1, 64, 96
3, 279552, Note_off_c, 1, 64, 0
3, 279552, Note_on_c, 1, 62, 96
3, 280832, Note_off_c, 1, 62, 0
3, 280832, Note_on_c, 1, 60, 96
3, 281088, Note_off_c, 1, 60, 0
3, 281088, Note_on_c, 1, 62, 96
3, 281344, Note_off_c, 1, 62, 0
3, 281344, Note_on_c, 1, 64, 96
3, 281600, Note_off_c, 1, 64, 0
3, 281600, Note_on_c, 1, 62, 96
3, 281856, Note_off_c, 1, 62, 0
3, 281856, Note_on_c, 1, 64, 96
3, 282112, Note_off_c, 1, 64, 0
3, 282112, Note_on_c, 1, 65, 96
3, 282624, Note_off_c, 1, 65, 0
3, 282624, Note_on_c, 1, 66, 96
3, 282880, Note_off_c, 1, 66, 0
3, 282880, Note_on_c, 1, 64, 96
3, 283136, Note_off_c, 1, 64, 0
3, 283136, Note_on_c, 1, 62, 96
3, 283904, Note_off_c, 1, 62, 0
3, 283904, Note_on_c, 1, 60, 96
3, 284416, Note_off_c, 1, 60, 0
3, 284416, Note_on_c, 1, 59, 96
3, 284672, Note_off_c, 1, 59, 0
3, 284672, Note_on_c, 1, 60, 96
3, 286976, Note_off_c, 1, 60, 0
3, 286976, Note_on_c, 1, 60, 96
3, 287232, Note_off_c, 1, 60, 0
3, 287232, Note_on_c, 1, 59, 96
3, 287488, Note_off_c, 1, 59, 0
3, 287488, Note_on_c, 1, 57, 96
3, 287744, Note_off_c, 1, 57, 0
3, 287744, Note_on_c, 1, 59, 96
3, 288000, Note_on_c, 1, 55, 96
3, 288256, Note_off_c, 1, 59, 0
3, 288256, Note_on_c, 1, 57, 96
3, 288512, Note_off_c, 1, 55, 0
3, 288512, Note_on_c, 1, 54, 96
3, 288768, Note_off_c, 1, 54, 0
3, 288768, Note_off_c, 1, 57, 0
3, 288768, Note_on_c, 1, 55, 96
3, 288768, Note_on_c, 1, 59, 96
3, 291840, Note_off_c, 1, 55, 0
3, 291840, Note_off_c, 1, 59, 0
3, 291841, End_track
4, 0, Start_track
4, 0, Title_t, "Instrument 3"
4, 3072, Note_on_c, 2, 55, 96
4, 4096, Note_off_c, 2, 55, 0
4, 4096, Note_on_c, 2, 55, 96
4, 5120, Note_off_c, 2, 55, 0
4, 5120, Note_on_c, 2, 55, 96
4, 6144, Note_off_c, 2, 55, 0
4, 6144, Note_on_c, 2, 59, 96
4, 7168, Note_off_c, 2, 59, 0
4, 7168, Note_on_c, 2, 59, 96
4, 7424, Note_off_c, 2, 59, 0
4, 7424, Note_on_c, 2, 57, 96
4, 7680, Note_off_c, 2, 57, 0
4, 7680, Note_on_c, 2, 59, 96
4, 7936, Note_off_c, 2, 59, 0
4, 7936, Note_on_c, 2, 60, 96
4, 8192, Note_off_c, 2, 60, 0
4, 8192, Note_on_c, 2, 57, 96
4, 8704, Note_off_c, 2, 57, 0
4, 8704, Note_on_c, 2, 59, 96
4, 8960, Note_off_c, 2, 59, 0
4, 8960, Note_on_c, 2, 61, 96
4, 9216, Note_off_c, 2, 61, 0
4, 9216, Note_on_c, 2, 62, 96
4, 11264, Note_off_c, 2, 62, 0
4, 11264, Note_on_c, 2, 60, 96
4, 13568, Note_off_c, 2, 60, 0
4, 13568, Note_on_c, 2, 59, 96
4, 13824, Note_off_c, 2, 59, 0
4, 13824, Note_on_c, 2, 57, 96
4, 14080, Note_off_c, 2, 57, 0
4, 14080, Note_on_c, 2, 59, 96
4, 14336, Note_off_c, 2, 59, 0
4, 14336, Note_on_c, 2, 60, 96
4, 14848, Note_off_c, 2, 60, 0
4, 14848, Note_on_c, 2, 62, 96
4, 15104, Note_off_c, 2, 62, 0
4, 15104, Note_on_c, 2, 64, 96
4, 15360, Note_off_c, 2, 64, 0
4, 15360, Note_on_c, 2, 62, 96
4, 15872, Note_off_c, 2, 62, 0
4, 15872, Note_on_c, 2, 60, 96
4, 16384, Note_off_c, 2, 60, 0
4, 16384, Note_on_c, 2, 59, 96
4, 16896, Note_off_c, 2, 59, 0
4, 16896, Note_on_c, 2, 60, 96
4, 17152, Note_off_c, 2, 60, 0
4, 17152, Note_on_c, 2, 62, 96
4, 17408, Note_off_c, 2, 62, 0
4, 17408, Note_on_c, 2, 64, 96
4, 17920, Note_off_c, 2, 64, 0
4, 17920, Note_on_c, 2, 66, 96
4, 18176, Note_off_c, 2, 66, 0
4, 18176, Note_on_c, 2, 67, 96
4, 18432, Note_off_c, 2, 67, 0
4, 18432, Note_on_c, 2, 69, 96
4, 18944, Note_off_c, 2, 69, 0
4, 18944, Note_on_c, 2, 66, 96
4, 19456, Note_off_c, 2, 66, 0
4, 19456, Note_on_c, 2, 67, 96
4, 20480, Note_off_c, 2, 67, 0
4, 20992, Note_on_c, 2, 62, 96
4, 22016, Note_off_c, 2, 62, 0
4, 22016, Note_on_c, 2, 60, 96
4, 22528, Note_off_c, 2, 60, 0
4, 22528, Note_on_c, 2, 59, 96
4, 24064, Note_off_c, 2, 59, 0
4, 24064, Note_on_c, 2, 57, 96
4, 24320, Note_off_c, 2, 57, 0
4, 24320, Note_on_c, 2, 59, 96
4, 24576, Note_off_c, 2, 59, 0
4, 24576, Note_on_c, 2, 60, 96
4, 25088, Note_off_c, 2, 60, 0
4, 25088, Note_on_c, 2, 64, 96
4, 25344, Note_off_c, 2, 64, 0
4, 25344, Note_on_c, 2, 62, 96
4, 25600, Note_off_c, 2, 62, 0
4, 25600, Note_on_c, 2, 64, 96
4, 26112, Note_off_c, 2, 64, 0
4, 26112, Note_on_c, 2, 59, 96
4, 26624, Note_off_c, 2, 59, 0
4, 26624, Note_on_c, 2, 60, 96
4, 29696, Note_off_c, 2, 60, 0
4, 29696, Note_on_c, 2, 59, 96
4, 30208, Note_off_c, 2, 59, 0
4, 30208, Note_on_c, 2, 60, 96
4, 30464, Note_off_c, 2, 60, 0
4, 30464, Note_on_c, 2, 59, 96
4, 30720, Note_off_c, 2, 59, 0
4, 30720, Note_on_c, 2, 57, 96
4, 31232, Note_off_c, 2, 57, 0
4, 31232, Note_on_c, 2, 55, 96
4, 31744, Note_off_c, 2, 55, 0
4, 31744, Note_on_c, 2, 57, 96
4, 32256, Note_off_c, 2, 57, 0
4, 32256, Note_on_c, 2, 59, 96
4, 32512, Note_off_c, 2, 59, 0
4, 32512, Note_on_c, 2, 60, 96
4, 32768, Note_off_c, 2, 60, 0
4, 32768, Note_on_c, 2, 59, 96
4, 33792, Note_off_c, 2, 59, 0
4, 33792, Note_on_c, 2, 59, 96
4, 34816, Note_off_c, 2, 59, 0
4, 34816, Note_on_c, 2, 60, 96
4, 35840, Note_off_c, 2, 60, 0
4, 35840, Note_on_c, 2, 59, 96
4, 36864, Note_off_c, 2, 59, 0
4, 36864, Note_on_c, 2, 57, 96
4, 37888, Note_off_c, 2, 57, 0
4, 37888, Note_on_c, 2, 59, 96
4, 38912, Note_off_c, 2, 59, 0
4, 38912, Note_on_c, 2, 57, 96
4, 40960, Note_off_c, 2, 57, 0
4, 40960, Note_on_c, 2, 55, 96
4, 41216, Note_off_c, 2, 55, 0
4, 41216, Note_on_c, 2, 57, 96
4, 41472, Note_off_c, 2, 57, 0
4, 41472, Note_on_c, 2, 59, 96
4, 41728, Note_off_c, 2, 59, 0
4, 41728, Note_on_c, 2, 61, 96
4, 41984, Note_off_c, 2, 61, 0
4, 41984, Note_on_c, 2, 62, 96
4, 43520, Note_off_c, 2, 62, 0
4, 43520, Note_on_c, 2, 61, 96
4, 44288, Note_off_c, 2, 61, 0
4, 44288, Note_on_c, 2, 58, 96
4, 44544, Note_off_c, 2, 58, 0
4, 44544, Note_on_c, 2, 59, 96
4, 44800, Note_off_c, 2, 59, 0
4, 44800, Note_on_c, 2, 62, 96
4, 45056, Note_off_c, 2, 62, 0
4, 45056, Note_on_c, 2, 56, 96
4, 45568, Note_off_c, 2, 56, 0
4, 45568, Note_on_c, 2, 58, 96
4, 45824, Note_off_c, 2, 58, 0
4, 45824, Note_on_c, 2, 59, 96
4, 46080, Note_off_c, 2, 59, 0
4, 46080, Note_on_c, 2, 58, 96
4, 46336, Note_off_c, 2, 58, 0
4, 46336, Note_on_c, 2, 59, 96
4, 46592, Note_off_c, 2, 59, 0
4, 46592, Note_on_c, 2, 56, 96
4, 46848, Note_off_c, 2, 56, 0
4, 46848, Note_on_c, 2, 58, 96
4, 47104, Note_off_c, 2, 58, 0
4, 47104, Note_on_c, 2, 59, 96
4, 47360, Note_off_c, 2, 59, 0
4, 47360, Note_on_c, 2, 54, 96
4, 47616, Note_off_c, 2, 54, 0
4, 47616, Note_on_c, 2, 59, 96
4, 47872, Note_off_c, 2, 59, 0
4, 47872, Note_on_c, 2, 57, 96
4, 48128, Note_off_c, 2, 57, 0
4, 48128, Note_on_c, 2, 55, 96
4, 49408, Note_off_c, 2, 55, 0
4, 49408, Note_on_c, 2, 52, 96
4, 49664, Note_off_c, 2, 52, 0
4, 49664, Note_on_c, 2, 57, 96
4, 50688, Note_off_c, 2, 57, 0
4, 50688, Note_on_c, 2, 55, 96
4, 51712, Note_off_c, 2, 55, 0
4, 51712, Note_on_c, 2, 54, 96
4, 52736, Note_off_c, 2, 54, 0
4, 52736, Note_on_c, 2, 55, 96
4, 53760, Note_off_c, 2, 55, 0
4, 53760, Note_on_c, 2, 54, 96
4, 54016, Note_off_c, 2, 54, 0
4, 54016, Note_on_c, 2, 52, 96
4, 54272, Note_off_c, 2, 52, 0
4, 54272, Note_on_c, 2, 54, 96
4, 55296, Note_off_c, 2, 54, 0
4, 55296, Note_on_c, 2, 55, 96
4, 56832, Note_off_c, 2, 55, 0
4, 56832, Note_on_c, 2, 54, 96
4, 57088, Note_off_c, 2, 54, 0
4, 57088, Note_on_c, 2, 55, 96
4, 57344, Note_off_c, 2, 55, 0
4, 57344, Note_on_c, 2, 57, 96
4, 58880, Note_off_c, 2, 57, 0
4, 58880, Note_on_c, 2, 55, 96
4, 59136, Note_off_c, 2, 55, 0
4, 59136, Note_on_c, 2, 57, 96
4, 59392, Note_off_c, 2, 57, 0
4, 59392, Note_on_c, 2, 59, 96
4, 59904, Note_off_c, 2, 59, 0
4, 59904, Note_on_c, 2, 60, 96
4, 60160, Note_off_c, 2, 60, 0
4, 60160, Note_on_c, 2, 62, 96
4, 60416, Note_off_c, 2, 62, 0
4, 60416, Note_on_c, 2, 64, 96
4, 60928, Note_off_c, 2, 64, 0
4, 60928, Note_on_c, 2, 62, 96
4, 61440, Note_off_c, 2, 62, 0
4, 61440, Note_on_c, 2, 60, 96
4, 63488, Note_off_c, 2, 60, 0
4, 63488, Note_on_c, 2, 59, 96
4, 65024, Note_off_c, 2, 59, 0
4, 65024, Note_on_c, 2, 60, 96
4, 65280, Note_off_c, 2, 60, 0
4, 65280, Note_on_c, 2, 62, 96
4, 65536, Note_off_c, 2, 62, 0
4, 65536, Note_on_c, 2, 64, 96
4, 66560, Note_off_c, 2, 64, 0
4, 67072, Note_on_c, 2, 64, 96
4, 67584, Note_off_c, 2, 64, 0
4, 67584, Note_on_c, 2, 57, 96
4, 68096, Note_off_c, 2, 57, 0
4, 68096, Note_on_c, 2, 62, 96
4, 69120, Note_off_c, 2, 62, 0
4, 69120, Note_on_c, 2, 60, 96
4, 69632, Note_off_c, 2, 60, 0
4, 69632, Note_on_c, 2, 59, 96
4, 70912, Note_off_c, 2, 59, 0
4, 70912, Note_on_c, 2, 57, 96
4, 71168, Note_off_c, 2, 57, 0
4, 71168, Note_on_c, 2, 59, 96
4, 71424, Note_off_c, 2, 59, 0
4, 71424, Note_on_c, 2, 60, 96
4, 71680, Note_off_c, 2, 60, 0
4, 71680, Note_on_c, 2, 62, 96
4, 71936, Note_off_c, 2, 62, 0
4, 71936, Note_on_c, 2, 60, 96
4, 72192, Note_off_c, 2, 60, 0
4, 72192, Note_on_c, 2, 59, 96
4, 72448, Note_off_c, 2, 59, 0
4, 72448, Note_on_c, 2, 57, 96
4, 72704, Note_off_c, 2, 57, 0
4, 72704, Note_on_c, 2, 55, 96
4, 72960, Note_off_c, 2, 55, 0
4, 72960, Note_on_c, 2, 53, 96
4, 73216, Note_off_c, 2, 53, 0
4, 73216, Note_on_c, 2, 52, 96
4, 73472, Note_off_c, 2, 52, 0
4, 73472, Note_on_c, 2, 50, 96
4, 73728, Note_off_c, 2, 50, 0
4, 73728, Note_on_c, 2, 52, 96
4, 74752, Note_off_c, 2, 52, 0
4, 75264, Note_on_c, 2, 50, 96
4, 75776, Note_off_c, 2, 50, 0
4, 75776, Note_on_c, 2, 52, 96
4, 76288, Note_off_c, 2, 52, 0
4, 76288, Note_on_c, 2, 54, 96
4, 76800, Note_off_c, 2, 54, 0
4, 76800, Note_on_c, 2, 55, 96
4, 77312, Note_off_c, 2, 55, 0
4, 77312, Note_on_c, 2, 57, 96
4, 77824, Note_off_c, 2, 57, 0
4, 77824, Note_on_c, 2, 59, 96
4, 78848, Note_off_c, 2, 59, 0
4, 80896, Note_on_c, 2, 55, 96
4, 81920, Note_off_c, 2, 55, 0
4, 81920, Note_on_c, 2, 55, 96
4, 82944, Note_off_c, 2, 55, 0
4, 82944, Note_on_c, 2, 55, 96
4, 83968, Note_off_c, 2, 55, 0
4, 83968, Note_on_c, 2, 59, 96
4, 84992, Note_off_c, 2, 59, 0
4, 84992, Note_on_c, 2, 59, 96
4, 85248, Note_off_c, 2, 59, 0
4, 85248, Note_on_c, 2, 57, 96
4, 85504, Note_off_c, 2, 57, 0
4, 85504, Note_on_c, 2, 59, 96
4, 85760, Note_off_c, 2, 59, 0
4, 85760, Note_on_c, 2, 60, 96
4, 86016, Note_off_c, 2, 60, 0
4, 86016, Note_on_c, 2, 57, 96
4, 86528, Note_off_c, 2, 57, 0
4, 86528, Note_on_c, 2, 59, 96
4, 86784, Note_off_c, 2, 59, 0
4, 86784, Note_on_c, 2, 61, 96
4, 87040, Note_off_c, 2, 61, 0
4, 87040, Note_on_c, 2, 62, 96
4, 89088, Note_off_c, 2, 62, 0
4, 89088, Note_on_c, 2, 60, 96
4, 91392, Note_off_c, 2, 60, 0
4, 91392, Note_on_c, 2, 59, 96
4, 91648, Note_off_c, 2, 59, 0
4, 91648, Note_on_c, 2, 57, 96
4, 91904, Note_off_c, 2, 57, 0
4, 91904, Note_on_c, 2, 59, 96
4, 92160, Note_off_c, 2, 59, 0
4, 92160, Note_on_c, 2, 60, 96
4, 92672, Note_off_c, 2, 60, 0
4, 92672, Note_on_c, 2, 62, 96
4, 92928, Note_off_c, 2, 62, 0
4, 92928, Note_on_c, 2, 64, 96
4, 93184, Note_off_c, 2, 64, 0
4, 93184, Note_on_c, 2, 62, 96
4, 93696, Note_off_c, 2, 62, 0
4, 93696, Note_on_c, 2, 60, 96
4, 94208, Note_off_c, 2, 60, 0
4, 94208, Note_on_c, 2, 59, 96
4, 94720, Note_off_c, 2, 59, 0
4, 94720, Note_on_c, 2, 60, 96
4, 94976, Note_off_c, 2, 60, 0
4, 94976, Note_on_c, 2, 62, 96
4, 95232, Note_off_c, 2, 62, 0
4, 95232, Note_on_c, 2, 64, 96
4, 95744, Note_off_c, 2, 64, 0
4, 95744, Note_on_c, 2, 66, 96
4, 96000, Note_off_c, 2, 66, 0
4, 96000, Note_on_c, 2, 67, 96
4, 96256, Note_off_c, 2, 67, 0
4, 96256, Note_on_c, 2, 69, 96
4, 96768, Note_off_c, 2, 69, 0
4, 96768, Note_on_c, 2, 66, 96
4, 97280, Note_off_c, 2, 66, 0
4, 97280, Note_on_c, 2, 67, 96
4, 98304, Note_off_c, 2, 67, 0
4, 98816, Note_on_c, 2, 62, 96
4, 99840, Note_off_c, 2, 62, 0
4, 99840, Note_on_c, 2, 60, 96
4, 100352, Note_off_c, 2, 60, 0
4, 100352, Note_on_c, 2, 59, 96
4, 101888, Note_off_c, 2, 59, 0
4, 101888, Note_on_c, 2, 57, 96
4, 102144, Note_off_c, 2, 57, 0
4, 102144, Note_on_c, 2, 59, 96
4, 102400, Note_off_c, 2, 59, 0
4, 102400, Note_on_c, 2, 60, 96
4, 102912, Note_off_c, 2, 60, 0
4, 102912, Note_on_c, 2, 64, 96
4, 103168, Note_off_c, 2, 64, 0
4, 103168, Note_on_c, 2, 62, 96
4, 103424, Note_off_c, 2, 62, 0
4, 103424, Note_on_c, 2, 64, 96
4, 103936, Note_off_c, 2, 64, 0
4, 103936, Note_on_c, 2, 59, 96
4, 104448, Note_off_c, 2, 59, 0
4, 104448, Note_on_c, 2, 60, 96
4, 107520, Note_off_c, 2, 60, 0
4, 107520, Note_on_c, 2, 59, 96
4, 108032, Note_off_c, 2, 59, 0
4, 108032, Note_on_c, 2, 60, 96
4, 108288, Note_off_c, 2, 60, 0
4, 108288, Note_on_c, 2, 59, 96
4, 108544, Note_off_c, 2, 59, 0
4, 108544, Note_on_c, 2, 57, 96
4, 109056, Note_off_c, 2, 57, 0
4, 109056, Note_on_c, 2, 55, 96
4, 109568, Note_off_c, 2, 55, 0
4, 109568, Note_on_c, 2, 57, 96
4, 110080, Note_off_c, 2, 57, 0
4, 110080, Note_on_c, 2, 59, 96
4, 110336, Note_off_c, 2, 59, 0
4, 110336, Note_on_c, 2, 60, 96
4, 110592, Note_off_c, 2, 60, 0
4, 110592, Note_on_c, 2, 59, 96
4, 111616, Note_off_c, 2, 59, 0
4, 111616, Note_on_c, 2, 59, 96
4, 112640, Note_off_c, 2, 59, 0
4, 112640, Note_on_c, 2, 60, 96
4, 113664, Note_off_c, 2, 60, 0
4, 113664, Note_on_c, 2, 59, 96
4, 114688, Note_off_c, 2, 59, 0
4, 114688, Note_on_c, 2, 57, 96
4, 115712, Note_off_c, 2, 57, 0
4, 115712, Note_on_c, 2, 59, 96
4, 116736, Note_off_c, 2, 59, 0
4, 116736, Note_on_c, 2, 57, 96
4, 118784, Note_off_c, 2, 57, 0
4, 118784, Note_on_c, 2, 55, 96
4, 119040, Note_off_c, 2, 55, 0
4, 119040, Note_on_c, 2, 57, 96
4, 119296, Note_off_c, 2, 57, 0
4, 119296, Note_on_c, 2, 59, 96
4, 119552, Note_off_c, 2, 59, 0
4, 119552, Note_on_c, 2, 61, 96
4, 119808, Note_off_c, 2, 61, 0
4, 119808, Note_on_c, 2, 62, 96
4, 121344, Note_off_c, 2, 62, 0
4, 121344, Note_on_c, 2, 61, 96
4, 122112, Note_off_c, 2, 61, 0
4, 122112, Note_on_c, 2, 58, 96
4, 122368, Note_off_c, 2, 58, 0
4, 122368, Note_on_c, 2, 59, 96
4, 122624, Note_off_c, 2, 59, 0
4, 122624, Note_on_c, 2, 62, 96
4, 122880, Note_off_c, 2, 62, 0
4, 122880, Note_on_c, 2, 56, 96
4, 123392, Note_off_c, 2, 56, 0
4, 123392, Note_on_c, 2, 58, 96
4, 123648, Note_off_c, 2, 58, 0
4, 123648, Note_on_c, 2, 59, 96
4, 123904, Note_off_c, 2, 59, 0
4, 123904, Note_on_c, 2, 58, 96
4, 124160, Note_off_c, 2, 58, 0
4, 124160, Note_on_c, 2, 59, 96
4, 124416, Note_off_c, 2, 59, 0
4, 124416, Note_on_c, 2, 56, 96
4, 124672, Note_off_c, 2, 56, 0
4, 124672, Note_on_c, 2, 58, 96
4, 124928, Note_off_c, 2, 58, 0
4, 124928, Note_on_c, 2, 59, 96
4, 125184, Note_off_c, 2, 59, 0
4, 125184, Note_on_c, 2, 54, 96
4, 125440, Note_off_c, 2, 54, 0
4, 125440, Note_on_c, 2, 59, 96
4, 125696, Note_off_c, 2, 59, 0
4, 125696, Note_on_c, 2, 57, 96
4, 125952, Note_off_c, 2, 57, 0
4, 125952, Note_on_c, 2, 55, 96
4, 127232, Note_off_c, 2, 55, 0
4, 127232, Note_on_c, 2, 52, 96
4, 127488, Note_off_c, 2, 52, 0
4, 127488, Note_on_c, 2, 57, 96
4, 128512, Note_off_c, 2, 57, 0
4, 128512, Note_on_c, 2, 55, 96
4, 129536, Note_off_c, 2, 55, 0
4, 129536, Note_on_c, 2, 54, 96
4, 130560, Note_off_c, 2, 54, 0
4, 130560, Note_on_c, 2, 55, 96
4, 131584, Note_off_c, 2, 55, 0
4, 131584, Note_on_c, 2, 54, 96
4, 131840, Note_off_c, 2, 54, 0
4, 131840, Note_on_c, 2, 52, 96
4, 132096, Note_off_c, 2, 52, 0
4, 132096, Note_on_c, 2, 54, 96
4, 133120, Note_off_c, 2, 54, 0
4, 133120, Note_on_c, 2, 55, 96
4, 134656, Note_off_c, 2, 55, 0
4, 134656, Note_on_c, 2, 54, 96
4, 134912, Note_off_c, 2, 54, 0
4, 134912, Note_on_c, 2, 55, 96
4, 135168, Note_off_c, 2, 55, 0
4, 135168, Note_on_c, 2, 57, 96
4, 136704, Note_off_c, 2, 57, 0
4, 136704, Note_on_c, 2, 55, 96
4, 136960, Note_off_c, 2, 55, 0
4, 136960, Note_on_c, 2, 57, 96
4, 137216, Note_off_c, 2, 57, 0
4, 137216, Note_on_c, 2, 59, 96
4, 137728, Note_off_c, 2, 59, 0
4, 137728, Note_on_c, 2, 60, 96
4, 137984, Note_off_c, 2, 60, 0
4, 137984, Note_on_c, 2, 62, 96
4, 138240, Note_off_c, 2, 62, 0
4, 138240, Note_on_c, 2, 64, 96
4, 138752, Note_off_c, 2, 64, 0
4, 138752, Note_on_c, 2, 62, 96
4, 139264, Note_off_c, 2, 62, 0
4, 139264, Note_on_c, 2, 60, 96
4, 141312, Note_off_c, 2, 60, 0
4, 141312, Note_on_c, 2, 59, 96
4, 142848, Note_off_c, 2, 59, 0
4, 142848, Note_on_c, 2, 60, 96
4, 143104, Note_off_c, 2, 60, 0
4, 143104, Note_on_c, 2, 62, 96
4, 143360, Note_off_c, 2, 62, 0
4, 143360, Note_on_c, 2, 64, 96
4, 144384, Note_off_c, 2, 64, 0
4, 144896, Note_on_c, 2, 64, 96
4, 145408, Note_off_c, 2, 64, 0
4, 145408, Note_on_c, 2, 57, 96
4, 145920, Note_off_c, 2, 57, 0
4, 145920, Note_on_c, 2, 62, 96
4, 146944, Note_off_c, 2, 62, 0
4, 146944, Note_on_c, 2, 60, 96
4, 147456, Note_off_c, 2, 60, 0
4, 147456, Note_on_c, 2, 59, 96
4, 148736, Note_off_c, 2, 59, 0
4, 148736, Note_on_c, 2, 57, 96
4, 148992, Note_off_c, 2, 57, 0
4, 148992, Note_on_c, 2, 59, 96
4, 149248, Note_off_c, 2, 59, 0
4, 149248, Note_on_c, 2, 60, 96
4, 149504, Note_off_c, 2, 60, 0
4, 149504, Note_on_c, 2, 62, 96
4, 149760, Note_off_c, 2, 62, 0
4, 149760, Note_on_c, 2, 60, 96
4, 150016, Note_off_c, 2, 60, 0
4, 150016, Note_on_c, 2, 59, 96
4, 150272, Note_off_c, 2, 59, 0
4, 150272, Note_on_c, 2, 57, 96
4, 150528, Note_off_c, 2, 57, 0
4, 150528, Note_on_c, 2, 55, 96
4, 150784, Note_off_c, 2, 55, 0
4, 150784, Note_on_c, 2, 53, 96
4, 151040, Note_off_c, 2, 53, 0
4, 151040, Note_on_c, 2, 52, 96
4, 151296, Note_off_c, 2, 52, 0
4, 151296, Note_on_c, 2, 50, 96
4, 151552, Note_off_c, 2, 50, 0
4, 151552, Note_on_c, 2, 52, 96
4, 152576, Note_off_c, 2, 52, 0
4, 153344, Note_on_c, 2, 60, 96
4, 153856, Note_off_c, 2, 60, 0
4, 153856, Note_on_c, 2, 60, 96
4, 154112, Note_off_c, 2, 60, 0
4, 154112, Note_on_c, 2, 59, 96
4, 154368, Note_off_c, 2, 59, 0
4, 154368, Note_on_c, 2, 57, 96
4, 154624, Note_off_c, 2, 57, 0
4, 154624, Note_on_c, 2, 59, 96
4, 154880, Note_off_c, 2, 59, 0
4, 154880, Note_on_c, 2, 55, 96
4, 155136, Note_off_c, 2, 55, 0
4, 155136, Note_on_c, 2, 52, 96
4, 155648, Note_off_c, 2, 52, 0
4, 155648, Note_on_c, 2, 54, 96
4, 156672, Note_off_c, 2, 54, 0
4, 156672, Note_on_c, 2, 57, 96
4, 157696, Note_off_c, 2, 57, 0
4, 157696, Note_on_c, 2, 57, 96
4, 158720, Note_off_c, 2, 57, 0
4, 158720, Note_on_c, 2, 57, 96
4, 159744, Note_off_c, 2, 57, 0
4, 159744, Note_on_c, 2, 59, 96
4, 160768, Note_off_c, 2, 59, 0
4, 160768, Note_on_c, 2, 59, 96
4, 161024, Note_off_c, 2, 59, 0
4, 161024, Note_on_c, 2, 57, 96
4, 161280, Note_off_c, 2, 57, 0
4, 161280, Note_on_c, 2, 59, 96
4, 161536, Note_off_c, 2, 59, 0
4, 161536, Note_on_c, 2, 60, 96
4, 161792, Note_off_c, 2, 60, 0
4, 161792, Note_on_c, 2, 57, 96
4, 162304, Note_off_c, 2, 57, 0
4, 162304, Note_on_c, 2, 59, 96
4, 162560, Note_off_c, 2, 59, 0
4, 162560, Note_on_c, 2, 61, 96
4, 162816, Note_off_c, 2, 61, 0
4, 162816, Note_on_c, 2, 62, 96
4, 163072, Note_off_c, 2, 62, 0
4, 163072, Note_on_c, 2, 57, 96
4, 163328, Note_off_c, 2, 57, 0
4, 163328, Note_on_c, 2, 62, 96
4, 164352, Note_off_c, 2, 62, 0
4, 164352, Note_on_c, 2, 61, 96
4, 164608, Note_off_c, 2, 61, 0
4, 164608, Note_on_c, 2, 59, 96
4, 164864, Note_off_c, 2, 59, 0
4, 164864, Note_on_c, 2, 61, 96
4, 165632, Note_off_c, 2, 61, 0
4, 165632, Note_on_c, 2, 62, 96
4, 165888, Note_off_c, 2, 62, 0
4, 165888, Note_on_c, 2, 59, 96
4, 166656, Note_off_c, 2, 59, 0
4, 166656, Note_on_c, 2, 61, 96
4, 166912, Note_off_c, 2, 61, 0
4, 166912, Note_on_c, 2, 61, 96
4, 167680, Note_off_c, 2, 61, 0
4, 167680, Note_on_c, 2, 59, 96
4, 167808, Note_off_c, 2, 59, 0
4, 167808, Note_on_c, 2, 61, 96
4, 167936, Note_off_c, 2, 61, 0
4, 167936, Note_on_c, 2, 62, 96
4, 170240, Note_off_c, 2, 62, 0
4, 170240, Note_on_c, 2, 61, 96
4, 170496, Note_off_c, 2, 61, 0
4, 170496, Note_on_c, 2, 62, 96
4, 170752, Note_off_c, 2, 62, 0
4, 170752, Note_on_c, 2, 59, 96
4, 171008, Note_off_c, 2, 59, 0
4, 171008, Note_on_c, 2, 61, 96
4, 172288, Note_off_c, 2, 61, 0
4, 172288, Note_on_c, 2, 59, 96
4, 172544, Note_off_c, 2, 59, 0
4, 172544, Note_on_c, 2, 60, 96
4, 172800, Note_off_c, 2, 60, 0
4, 172800, Note_on_c, 2, 57, 96
4, 173056, Note_off_c, 2, 57, 0
4, 173056, Note_on_c, 2, 59, 96
4, 174080, Note_off_c, 2, 59, 0
4, 174080, Note_on_c, 2, 57, 96
4, 175104, Note_off_c, 2, 57, 0
4, 178688, Note_on_c, 2, 49, 96
4, 179200, Note_off_c, 2, 49, 0
4, 179200, Note_on_c, 2, 50, 96
4, 179456, Note_off_c, 2, 50, 0
4, 179456, Note_on_c, 2, 54, 96
4, 179712, Note_off_c, 2, 54, 0
4, 179712, Note_on_c, 2, 52, 96
4, 179968, Note_off_c, 2, 52, 0
4, 179968, Note_on_c, 2, 55, 96
4, 180224, Note_off_c, 2, 55, 0
4, 180224, Note_on_c, 2, 54, 96
4, 180480, Note_off_c, 2, 54, 0
4, 180480, Note_on_c, 2, 52, 96
4, 180736, Note_off_c, 2, 52, 0
4, 180736, Note_on_c, 2, 54, 96
4, 180992, Note_off_c, 2, 54, 0
4, 180992, Note_on_c, 2, 57, 96
4, 181248, Note_off_c, 2, 57, 0
4, 181248, Note_on_c, 2, 55, 96
4, 181504, Note_off_c, 2, 55, 0
4, 181504, Note_on_c, 2, 54, 96
4, 181760, Note_off_c, 2, 54, 0
4, 181760, Note_on_c, 2, 52, 96
4, 182016, Note_off_c, 2, 52, 0
4, 182016, Note_on_c, 2, 54, 96
4, 182272, Note_off_c, 2, 54, 0
4, 182272, Note_on_c, 2, 55, 96
4, 182784, Note_off_c, 2, 55, 0
4, 182784, Note_on_c, 2, 57, 96
4, 183296, Note_off_c, 2, 57, 0
4, 183296, Note_on_c, 2, 59, 96
4, 184064, Note_off_c, 2, 59, 0
4, 184064, Note_on_c, 2, 59, 96
4, 184320, Note_off_c, 2, 59, 0
4, 184320, Note_on_c, 2, 64, 96
4, 184576, Note_off_c, 2, 64, 0
4, 184576, Note_on_c, 2, 62, 96
4, 184832, Note_off_c, 2, 62, 0
4, 184832, Note_on_c, 2, 61, 96
4, 185088, Note_off_c, 2, 61, 0
4, 185088, Note_on_c, 2, 64, 96
4, 185344, Note_off_c, 2, 64, 0
4, 185344, Note_on_c, 2, 62, 96
4, 185856, Note_off_c, 2, 62, 0
4, 185856, Note_on_c, 2, 55, 96
4, 186368, Note_off_c, 2, 55, 0
4, 186368, Note_on_c, 2, 54, 96
4, 187136, Note_off_c, 2, 54, 0
4, 187136, Note_on_c, 2, 54, 96
4, 187392, Note_off_c, 2, 54, 0
4, 187392, Note_on_c, 2, 52, 96
4, 188160, Note_off_c, 2, 52, 0
4, 188160, Note_on_c, 2, 55, 96
4, 188416, Note_off_c, 2, 55, 0
4, 188416, Note_on_c, 2, 54, 96
4, 189440, Note_off_c, 2, 54, 0
4, 189440, Note_on_c, 2, 57, 96
4, 190464, Note_off_c, 2, 57, 0
4, 190464, Note_on_c, 2, 59, 96
4, 190976, Note_off_c, 2, 59, 0
4, 190976, Note_on_c, 2, 61, 96
4, 191488, Note_off_c, 2, 61, 0
4, 191488, Note_on_c, 2, 62, 96
4, 193536, Note_off_c, 2, 62, 0
4, 193536, Note_on_c, 2, 61, 96
4, 194560, Note_off_c, 2, 61, 0
4, 194560, Note_on_c, 2, 62, 96
4, 195072, Note_off_c, 2, 62, 0
4, 195072, Note_on_c, 2, 57, 96
4, 195584, Note_off_c, 2, 57, 0
4, 195584, Note_on_c, 2, 62, 96
4, 196096, Note_off_c, 2, 62, 0
4, 196096, Note_on_c, 2, 60, 96
4, 196608, Note_off_c, 2, 60, 0
4, 196608, Note_on_c, 2, 59, 96
4, 197120, Note_off_c, 2, 59, 0
4, 197120, Note_on_c, 2, 60, 96
4, 197632, Note_off_c, 2, 60, 0
4, 197632, Note_on_c, 2, 62, 96
4, 198144, Note_off_c, 2, 62, 0
4, 198144, Note_on_c, 2, 64, 96
4, 198400, Note_off_c, 2, 64, 0
4, 198400, Note_on_c, 2, 62, 96
4, 198656, Note_off_c, 2, 62, 0
4, 198656, Note_on_c, 2, 60, 96
4, 199168, Note_off_c, 2, 60, 0
4, 199168, Note_on_c, 2, 59, 96
4, 199680, Note_off_c, 2, 59, 0
4, 199680, Note_on_c, 2, 60, 96
4, 200192, Note_off_c, 2, 60, 0
4, 200192, Note_on_c, 2, 62, 96
4, 200448, Note_off_c, 2, 62, 0
4, 200448, Note_on_c, 2, 60, 96
4, 200704, Note_off_c, 2, 60, 0
4, 200704, Note_on_c, 2, 59, 96
4, 201216, Note_off_c, 2, 59, 0
4, 201216, Note_on_c, 2, 57, 96
4, 201728, Note_off_c, 2, 57, 0
4, 201728, Note_on_c, 2, 55, 96
4, 203264, Note_off_c, 2, 55, 0
4, 203264, Note_on_c, 2, 54, 96
4, 203520, Note_off_c, 2, 54, 0
4, 203520, Note_on_c, 2, 52, 96
4, 203776, Note_off_c, 2, 52, 0
4, 203776, Note_on_c, 2, 54, 96
4, 205312, Note_off_c, 2, 54, 0
4, 205312, Note_on_c, 2, 55, 96
4, 205568, Note_off_c, 2, 55, 0
4, 205568, Note_on_c, 2, 57, 96
4, 205824, Note_off_c, 2, 57, 0
4, 205824, Note_on_c, 2, 55, 96
4, 206848, Note_off_c, 2, 55, 0
4, 206848, Note_on_c, 2, 54, 96
4, 207360, Note_off_c, 2, 54, 0
4, 209408, Note_on_c, 2, 59, 96
4, 209664, Note_off_c, 2, 59, 0
4, 209664, Note_on_c, 2, 57, 96
4, 209920, Note_off_c, 2, 57, 0
4, 209920, Note_on_c, 2, 55, 96
4, 210432, Note_off_c, 2, 55, 0
4, 210432, Note_on_c, 2, 57, 96
4, 210688, Note_off_c, 2, 57, 0
4, 210688, Note_on_c, 2, 59, 96
4, 210944, Note_off_c, 2, 59, 0
4, 210944, Note_on_c, 2, 52, 96
4, 211456, Note_off_c, 2, 52, 0
4, 213504, Note_on_c, 2, 57, 96
4, 213760, Note_off_c, 2, 57, 0
4, 213760, Note_on_c, 2, 59, 96
4, 214016, Note_off_c, 2, 59, 0
4, 214016, Note_on_c, 2, 60, 96
4, 214528, Note_off_c, 2, 60, 0
4, 214528, Note_on_c, 2, 59, 96
4, 214784, Note_off_c, 2, 59, 0
4, 214784, Note_on_c, 2, 57, 96
4, 215040, Note_off_c, 2, 57, 0
4, 215040, Note_on_c, 2, 59, 96
4, 217088, Note_off_c, 2, 59, 0
4, 217088, Note_on_c, 2, 57, 96
4, 218112, Note_off_c, 2, 57, 0
4, 220160, Note_on_c, 2, 62, 96
4, 221184, Note_off_c, 2, 62, 0
4, 221184, Note_on_c, 2, 64, 96
4, 222720, Note_off_c, 2, 64, 0
4, 222720, Note_on_c, 2, 62, 96
4, 223232, Note_off_c, 2, 62, 0
4, 223232, Note_on_c, 2, 60, 96
4, 224256, Note_off_c, 2, 60, 0
4, 224256, Note_on_c, 2, 59, 96
4, 225280, Note_off_c, 2, 59, 0
4, 225280, Note_on_c, 2, 61, 96
4, 225792, Note_off_c, 2, 61, 0
4, 225792, Note_on_c, 2, 62, 96
4, 226816, Note_off_c, 2, 62, 0
4, 226816, Note_on_c, 2, 61, 96
4, 227328, Note_off_c, 2, 61, 0
4, 227328, Note_on_c, 2, 62, 96
4, 228352, Note_off_c, 2, 62, 0
4, 228352, Note_on_c, 2, 64, 96
4, 228864, Note_off_c, 2, 64, 0
4, 228864, Note_on_c, 2, 66, 96
4, 229376, Note_off_c, 2, 66, 0
4, 229376, Note_on_c, 2, 67, 96
4, 229632, Note_off_c, 2, 67, 0
4, 229632, Note_on_c, 2, 55, 96
4, 229888, Note_off_c, 2, 55, 0
4, 229888, Note_on_c, 2, 54, 96
4, 230144, Note_off_c, 2, 54, 0
4, 230144, Note_on_c, 2, 55, 96
4, 230400, Note_off_c, 2, 55, 0
4, 230400, Note_on_c, 2, 60, 96
4, 231936, Note_off_c, 2, 60, 0
4, 231936, Note_on_c, 2, 59, 96
4, 232960, Note_off_c, 2, 59, 0
4, 232960, Note_on_c, 2, 57, 96
4, 233472, Note_off_c, 2, 57, 0
4, 233472, Note_on_c, 2, 55, 96
4, 233984, Note_off_c, 2, 55, 0
4, 235776, Note_on_c, 2, 64, 96
4, 236032, Note_off_c, 2, 64, 0
4, 236032, Note_on_c, 2, 62, 96
4, 236288, Note_off_c, 2, 62, 0
4, 236288, Note_on_c, 2, 60, 96
4, 236544, Note_off_c, 2, 60, 0
4, 236544, Note_on_c, 2, 59, 96
4, 236800, Note_off_c, 2, 59, 0
4, 236800, Note_on_c, 2, 57, 96
4, 237056, Note_off_c, 2, 57, 0
4, 237056, Note_on_c, 2, 56, 96
4, 237312, Note_off_c, 2, 56, 0
4, 237312, Note_on_c, 2, 54, 96
4, 237568, Note_off_c, 2, 54, 0
4, 237568, Note_on_c, 2, 56, 96
4, 238080, Note_off_c, 2, 56, 0
4, 238848, Note_on_c, 2, 60, 96
4, 239104, Note_off_c, 2, 60, 0
4, 239104, Note_on_c, 2, 62, 96
4, 239360, Note_off_c, 2, 62, 0
4, 239360, Note_on_c, 2, 64, 96
4, 239616, Note_off_c, 2, 64, 0
4, 239616, Note_on_c, 2, 65, 96
4, 239872, Note_off_c, 2, 65, 0
4, 239872, Note_on_c, 2, 64, 96
4, 240128, Note_off_c, 2, 64, 0
4, 240128, Note_on_c, 2, 62, 96
4, 240384, Note_off_c, 2, 62, 0
4, 240384, Note_on_c, 2, 60, 96
4, 240640, Note_off_c, 2, 60, 0
4, 240640, Note_on_c, 2, 59, 96
4, 241152, Note_off_c, 2, 59, 0
4, 241152, Note_on_c, 2, 64, 96
4, 241920, Note_off_c, 2, 64, 0
4, 241920, Note_on_c, 2, 65, 96
4, 242176, Note_off_c, 2, 65, 0
4, 242176, Note_on_c, 2, 64, 96
4, 242432, Note_off_c, 2, 64, 0
4, 242432, Note_on_c, 2, 62, 96
4, 242688, Note_off_c, 2, 62, 0
4, 242688, Note_on_c, 2, 64, 96
4, 242944, Note_off_c, 2, 64, 0
4, 242944, Note_on_c, 2, 60, 96
4, 243200, Note_off_c, 2, 60, 0
4, 243200, Note_on_c, 2, 59, 96
4, 243456, Note_off_c, 2, 59, 0
4, 243456, Note_on_c, 2, 57, 96
4, 243712, Note_off_c, 2, 57, 0
4, 243712, Note_on_c, 2, 63, 96
4, 245248, Note_off_c, 2, 63, 0
4, 245248, Note_on_c, 2, 64, 96
4, 245760, Note_off_c, 2, 64, 0
4, 245760, Note_on_c, 2, 66, 96
4, 246016, Note_off_c, 2, 66, 0
4, 246016, Note_on_c, 2, 59, 96
4, 246272, Note_off_c, 2, 59, 0
4, 246272, Note_on_c, 2, 57, 96
4, 246528, Note_off_c, 2, 57, 0
4, 246528, Note_on_c, 2, 55, 96
4, 246784, Note_off_c, 2, 55, 0
4, 246784, Note_on_c, 2, 57, 96
4, 247040, Note_off_c, 2, 57, 0
4, 247040, Note_on_c, 2, 60, 96
4, 247296, Note_off_c, 2, 60, 0
4, 247296, Note_on_c, 2, 59, 96
4, 247552, Note_off_c, 2, 59, 0
4, 247552, Note_on_c, 2, 57, 96
4, 247808, Note_off_c, 2, 57, 0
4, 247808, Note_on_c, 2, 55, 96
4, 248064, Note_off_c, 2, 55, 0
4, 248064, Note_on_c, 2, 62, 96
4, 248320, Note_off_c, 2, 62, 0
4, 248320, Note_on_c, 2, 61, 96
4, 248576, Note_off_c, 2, 61, 0
4, 248576, Note_on_c, 2, 59, 96
4, 248832, Note_off_c, 2, 59, 0
4, 248832, Note_on_c, 2, 58, 96
4, 249088, Note_off_c, 2, 58, 0
4, 249088, Note_on_c, 2, 54, 96
4, 249344, Note_off_c, 2, 54, 0
4, 249344, Note_on_c, 2, 59, 96
4, 250112, Note_off_c, 2, 59, 0
4, 250112, Note_on_c, 2, 58, 96
4, 250368, Note_off_c, 2, 58, 0
4, 250368, Note_on_c, 2, 59, 96
4, 250624, Note_off_c, 2, 59, 0
4, 250624, Note_on_c, 2, 56, 96
4, 250880, Note_off_c, 2, 56, 0
4, 250880, Note_on_c, 2, 58, 96
4, 251904, Note_off_c, 2, 58, 0
4, 251904, Note_on_c, 2, 59, 96
4, 253952, Note_off_c, 2, 59, 0
4, 253952, Note_on_c, 2, 57, 96
4, 254976, Note_off_c, 2, 57, 0
4, 254976, Note_on_c, 2, 59, 96
4, 256000, Note_off_c, 2, 59, 0
4, 256000, Note_on_c, 2, 57, 96
4, 257280, Note_off_c, 2, 57, 0
4, 257280, Note_on_c, 2, 55, 96
4, 257536, Note_off_c, 2, 55, 0
4, 257536, Note_on_c, 2, 57, 96
4, 257792, Note_off_c, 2, 57, 0
4, 257792, Note_on_c, 2, 54, 96
4, 258048, Note_off_c, 2, 54, 0
4, 258048, Note_on_c, 2, 55, 96
4, 259328, Note_off_c, 2, 55, 0
4, 259328, Note_on_c, 2, 54, 96
4, 259584, Note_off_c, 2, 54, 0
4, 259584, Note_on_c, 2, 55, 96
4, 259840, Note_off_c, 2, 55, 0
4, 259840, Note_on_c, 2, 52, 96
4, 260096, Note_off_c, 2, 52, 0
4, 260096, Note_on_c, 2, 54, 96
4, 261376, Note_off_c, 2, 54, 0
4, 261376, Note_on_c, 2, 52, 96
4, 261632, Note_off_c, 2, 52, 0
4, 261632, Note_on_c, 2, 54, 96
4, 261888, Note_off_c, 2, 54, 0
4, 261888, Note_on_c, 2, 51, 96
4, 262144, Note_off_c, 2, 51, 0
4, 262144, Note_on_c, 2, 52, 96
4, 262400, Note_off_c, 2, 52, 0
4, 262400, Note_on_c, 2, 64, 96
4, 262656, Note_off_c, 2, 64, 0
4, 262656, Note_on_c, 2, 67, 96
4, 262912, Note_off_c, 2, 67, 0
4, 262912, Note_on_c, 2, 66, 96
4, 263168, Note_off_c, 2, 66, 0
4, 263168, Note_on_c, 2, 64, 96
4, 263424, Note_off_c, 2, 64, 0
4, 263424, Note_on_c, 2, 63, 96
4, 263680, Note_off_c, 2, 63, 0
4, 263680, Note_on_c, 2, 64, 96
4, 263936, Note_off_c, 2, 64, 0
4, 263936, Note_on_c, 2, 59, 96
4, 264192, Note_off_c, 2, 59, 0
4, 264192, Note_on_c, 2, 57, 96
4, 264448, Note_off_c, 2, 57, 0
4, 264448, Note_on_c, 2, 59, 96
4, 264704, Note_off_c, 2, 59, 0
4, 264704, Note_on_c, 2, 55, 96
4, 265728, Note_off_c, 2, 55, 0
4, 266240, Note_on_c, 2, 55, 96
4, 267264, Note_off_c, 2, 55, 0
4, 267264, Note_on_c, 2, 54, 96
4, 268288, Note_off_c, 2, 54, 0
4, 268288, Note_on_c, 2, 55, 96
4, 268800, Note_off_c, 2, 55, 0
4, 268800, Note_on_c, 2, 59, 96
4, 269312, Note_off_c, 2, 59, 0
4, 269312, Note_on_c, 2, 64, 96
4, 269824, Note_off_c, 2, 64, 0
4, 269824, Note_on_c, 2, 62, 96
4, 270336, Note_off_c, 2, 62, 0
4, 270336, Note_on_c, 2, 61, 96
4, 270848, Note_off_c, 2, 61, 0
4, 270848, Note_on_c, 2, 57, 96
4, 271360, Note_off_c, 2, 57, 0
4, 271360, Note_on_c, 2, 62, 96
4, 271872, Note_off_c, 2, 62, 0
4, 271872, Note_on_c, 2, 64, 96
4, 272640, Note_off_c, 2, 64, 0
4, 272640, Note_on_c, 2, 64, 96
4, 272896, Note_off_c, 2, 64, 0
4, 272896, Note_on_c, 2, 62, 96
4, 273152, Note_off_c, 2, 62, 0
4, 273152, Note_on_c, 2, 61, 96
4, 273408, Note_off_c, 2, 61, 0
4, 273408, Note_on_c, 2, 62, 96
4, 275712, Note_off_c, 2, 62, 0
4, 275712, Note_on_c, 2, 59, 96
4, 275968, Note_off_c, 2, 59, 0
4, 275968, Note_on_c, 2, 60, 96
4, 276224, Note_off_c, 2, 60, 0
4, 276224, Note_on_c, 2, 54, 96
4, 276480, Note_off_c, 2, 54, 0
4, 276480, Note_on_c, 2, 55, 96
4, 279296, Note_off_c, 2, 55, 0
4, 279296, Note_on_c, 2, 60, 96
4, 279808, Note_off_c, 2, 60, 0
4, 279808, Note_on_c, 2, 60, 96
4, 280064, Note_off_c, 2, 60, 0
4, 280064, Note_on_c, 2, 59, 96
4, 280320, Note_off_c, 2, 59, 0
4, 280320, Note_on_c, 2, 57, 96
4, 280576, Note_off_c, 2, 57, 0
4, 280576, Note_on_c, 2, 59, 96
4, 282368, Note_off_c, 2, 59, 0
4, 282368, Note_on_c, 2, 57, 96
4, 282624, Note_off_c, 2, 57, 0
4, 282624, Note_on_c, 2, 60, 96
4, 283136, Note_off_c, 2, 60, 0
4, 283136, Note_on_c, 2, 62, 96
4, 283392, Note_off_c, 2, 62, 0
4, 283392, Note_on_c, 2, 53, 96
4, 283648, Note_off_c, 2, 53, 0
4, 283648, Note_on_c, 2, 52, 96
4, 284160, Note_off_c, 2, 52, 0
4, 284160, Note_on_c, 2, 50, 96
4, 284672, Note_off_c, 2, 50, 0
4, 284672, Note_on_c, 2, 52, 96
4, 284928, Note_off_c, 2, 52, 0
4, 284928, Note_on_c, 2, 50, 96
4, 285184, Note_off_c, 2, 50, 0
4, 285184, Note_on_c, 2, 52, 96
4, 285440, Note_off_c, 2, 52, 0
4, 285440, Note_on_c, 2, 53, 96
4, 285696, Note_off_c, 2, 53, 0
4, 285696, Note_on_c, 2, 55, 96
4, 285952, Note_off_c, 2, 55, 0
4, 285952, Note_on_c, 2, 53, 96
4, 286208, Note_off_c, 2, 53, 0
4, 286208, Note_on_c, 2, 52, 96
4, 286464, Note_off_c, 2, 52, 0
4, 286464, Note_on_c, 2, 53, 96
4, 286720, Note_off_c, 2, 53, 0
4, 286720, Note_on_c, 2, 50, 96
4, 288256, Note_off_c, 2, 50, 0
4, 288256, Note_on_c, 2, 48, 96
4, 288768, Note_off_c, 2, 48, 0
4, 288768, Note_on_c, 2, 50, 96
4, 291840, Note_off_c, 2, 50, 0
4, 291841, End_track
5, 0, Start_track
5, 0, Title_t, "Instrument 4"
5, 7168, Note_on_c, 3, 50, 96
5, 8192, Note_off_c, 3, 50, 0
5, 8192, Note_on_c, 3, 50, 96
5, 9216, Note_off_c, 3, 50, 0
5, 9216, Note_on_c, 3, 50, 96
5, 10240, Note_off_c, 3, 50, 0
5, 10240, Note_on_c, 3, 52, 96
5, 11264, Note_off_c, 3, 52, 0
5, 11264, Note_on_c, 3, 52, 96
5, 12288, Note_off_c, 3, 52, 0
5, 12288, Note_on_c, 3, 50, 96
5, 12800, Note_off_c, 3, 50, 0
5, 12800, Note_on_c, 3, 52, 96
5, 13056, Note_off_c, 3, 52, 0
5, 13056, Note_on_c, 3, 54, 96
5, 13312, Note_off_c, 3, 54, 0
5, 13312, Note_on_c, 3, 55, 96
5, 15360, Note_off_c, 3, 55, 0
5, 15360, Note_on_c, 3, 54, 96
5, 16384, Note_off_c, 3, 54, 0
5, 16384, Note_on_c, 3, 55, 96
5, 16896, Note_off_c, 3, 55, 0
5, 16896, Note_on_c, 3, 57, 96
5, 17152, Note_off_c, 3, 57, 0
5, 17152, Note_on_c, 3, 59, 96
5, 17408, Note_off_c, 3, 59, 0
5, 17408, Note_on_c, 3, 57, 96
5, 17920, Note_off_c, 3, 57, 0
5, 17920, Note_on_c, 3, 55, 96
5, 18432, Note_off_c, 3, 55, 0
5, 18432, Note_on_c, 3, 54, 96
5, 18944, Note_off_c, 3, 54, 0
5, 18944, Note_on_c, 3, 50, 96
5, 19456, Note_off_c, 3, 50, 0
5, 19456, Note_on_c, 3, 55, 96
5, 20992, Note_off_c, 3, 55, 0
5, 20992, Note_on_c, 3, 54, 96
5, 21248, Note_off_c, 3, 54, 0
5, 21248, Note_on_c, 3, 52, 96
5, 21504, Note_off_c, 3, 52, 0
5, 21504, Note_on_c, 3, 54, 96
5, 22016, Note_off_c, 3, 54, 0
5, 22016, Note_on_c, 3, 50, 96
5, 22528, Note_off_c, 3, 50, 0
5, 22528, Note_on_c, 3, 55, 96
5, 23040, Note_off_c, 3, 55, 0
5, 23040, Note_on_c, 3, 59, 96
5, 23552, Note_off_c, 3, 59, 0
5, 23552, Note_on_c, 3, 52, 96
5, 24064, Note_off_c, 3, 52, 0
5, 24064, Note_on_c, 3, 55, 96
5, 24576, Note_off_c, 3, 55, 0
5, 24576, Note_on_c, 3, 48, 96
5, 25088, Note_off_c, 3, 48, 0
5, 25088, Note_on_c, 3, 60, 96
5, 25344, Note_off_c, 3, 60, 0
5, 25344, Note_on_c, 3, 59, 96
5, 25600, Note_off_c, 3, 59, 0
5, 25600, Note_on_c, 3, 60, 96
5, 26112, Note_off_c, 3, 60, 0
5, 26112, Note_on_c, 3, 56, 96
5, 26624, Note_off_c, 3, 56, 0
5, 26624, Note_on_c, 3, 57, 96
5, 27136, Note_off_c, 3, 57, 0
5, 27136, Note_on_c, 3, 60, 96
5, 27648, Note_off_c, 3, 60, 0
5, 27648, Note_on_c, 3, 52, 96
5, 28160, Note_off_c, 3, 52, 0
5, 28160, Note_on_c, 3, 55, 96
5, 28672, Note_off_c, 3, 55, 0
5, 28672, Note_on_c, 3, 54, 96
5, 29184, Note_off_c, 3, 54, 0
5, 29184, Note_on_c, 3, 50, 96
5, 29696, Note_off_c, 3, 50, 0
5, 29696, Note_on_c, 3, 55, 96
5, 30208, Note_off_c, 3, 55, 0
5, 30208, Note_on_c, 3, 43, 96
5, 30720, Note_off_c, 3, 43, 0
5, 30720, Note_on_c, 3, 50, 96
5, 31744, Note_off_c, 3, 50, 0
5, 31744, Note_on_c, 3, 38, 96
5, 32768, Note_off_c, 3, 38, 0
5, 32768, Note_on_c, 3, 43, 96
5, 33280, Note_off_c, 3, 43, 0
5, 33280, Note_on_c, 3, 50, 96
5, 33792, Note_off_c, 3, 50, 0
5, 33792, Note_on_c, 3, 55, 96
5, 35328, Note_off_c, 3, 55, 0
5, 35328, Note_on_c, 3, 54, 96
5, 35840, Note_off_c, 3, 54, 0
5, 35840, Note_on_c, 3, 55, 96
5, 36352, Note_off_c, 3, 55, 0
5, 36352, Note_on_c, 3, 52, 96
5, 36864, Note_off_c, 3, 52, 0
5, 36864, Note_on_c, 3, 48, 96
5, 37376, Note_off_c, 3, 48, 0
5, 37376, Note_on_c, 3, 50, 96
5, 37888, Note_off_c, 3, 50, 0
5, 37888, Note_on_c, 3, 43, 96
5, 38400, Note_off_c, 3, 43, 0
5, 38400, Note_on_c, 3, 48, 96
5, 38912, Note_off_c, 3, 48, 0
5, 38912, Note_on_c, 3, 42, 96
5, 39936, Note_off_c, 3, 42, 0
5, 39936, Note_on_c, 3, 47, 96
5, 40960, Note_off_c, 3, 47, 0
5, 40960, Note_on_c, 3, 40, 96
5, 41472, Note_off_c, 3, 40, 0
5, 41472, Note_on_c, 3, 52, 96
5, 41984, Note_off_c, 3, 52, 0
5, 41984, Note_on_c, 3, 54, 96
5, 42240, Note_off_c, 3, 54, 0
5, 42240, Note_on_c, 3, 52, 96
5, 42496, Note_off_c, 3, 52, 0
5, 42496, Note_on_c, 3, 54, 96
5, 42752, Note_off_c, 3, 54, 0
5, 42752, Note_on_c, 3, 50, 96
5, 43008, Note_off_c, 3, 50, 0
5, 43008, Note_on_c, 3, 57, 96
5, 43520, Note_off_c, 3, 57, 0
5, 43520, Note_on_c, 3, 45, 96
5, 44032, Note_off_c, 3, 45, 0
5, 44032, Note_on_c, 3, 50, 96
5, 45568, Note_off_c, 3, 50, 0
5, 45568, Note_on_c, 3, 49, 96
5, 45824, Note_off_c, 3, 49, 0
5, 45824, Note_on_c, 3, 47, 96
5, 46080, Note_off_c, 3, 47, 0
5, 46080, Note_on_c, 3, 49, 96
5, 46592, Note_off_c, 3, 49, 0
5, 46592, Note_on_c, 3, 42, 96
5, 47104, Note_off_c, 3, 42, 0
5, 47104, Note_on_c, 3, 47, 96
5, 49152, Note_off_c, 3, 47, 0
5, 49152, Note_on_c, 3, 48, 96
5, 50176, Note_off_c, 3, 48, 0
5, 50176, Note_on_c, 3, 47, 96
5, 51200, Note_off_c, 3, 47, 0
5, 51200, Note_on_c, 3, 45, 96
5, 52224, Note_off_c, 3, 45, 0
5, 52224, Note_on_c, 3, 47, 96
5, 53248, Note_off_c, 3, 47, 0
5, 53248, Note_on_c, 3, 45, 96
5, 55296, Note_off_c, 3, 45, 0
5, 55296, Note_on_c, 3, 43, 96
5, 56320, Note_off_c, 3, 43, 0
5, 59904, Note_on_c, 3, 43, 96
5, 60416, Note_off_c, 3, 43, 0
5, 60416, Note_on_c, 3, 55, 96
5, 61952, Note_off_c, 3, 55, 0
5, 61952, Note_on_c, 3, 54, 96
5, 62208, Note_off_c, 3, 54, 0
5, 62208, Note_on_c, 3, 52, 96
5, 62464, Note_off_c, 3, 52, 0
5, 62464, Note_on_c, 3, 54, 96
5, 62976, Note_off_c, 3, 54, 0
5, 62976, Note_on_c, 3, 50, 96
5, 63488, Note_off_c, 3, 50, 0
5, 63488, Note_on_c, 3, 55, 96
5, 64000, Note_off_c, 3, 55, 0
5, 64000, Note_on_c, 3, 51, 96
5, 64512, Note_off_c, 3, 51, 0
5, 64512, Note_on_c, 3, 52, 96
5, 65024, Note_off_c, 3, 52, 0
5, 65024, Note_on_c, 3, 47, 96
5, 65536, Note_off_c, 3, 47, 0
5, 65536, Note_on_c, 3, 48, 96
5, 66560, Note_off_c, 3, 48, 0
5, 67072, Note_on_c, 3, 49, 96
5, 67584, Note_off_c, 3, 49, 0
5, 67584, Note_on_c, 3, 50, 96
5, 68608, Note_off_c, 3, 50, 0
5, 69120, Note_on_c, 3, 51, 96
5, 69632, Note_off_c, 3, 51, 0
5, 69632, Note_on_c, 3, 52, 96
5, 70656, Note_off_c, 3, 52, 0
5, 71168, Note_on_c, 3, 52, 96
5, 71680, Note_off_c, 3, 52, 0
5, 71680, Note_on_c, 3, 47, 96
5, 72704, Note_off_c, 3, 47, 0
5, 73216, Note_on_c, 3, 47, 96
5, 73728, Note_off_c, 3, 47, 0
5, 73728, Note_on_c, 3, 48, 96
5, 74752, Note_off_c, 3, 48, 0
5, 75264, Note_on_c, 3, 43, 96
5, 75776, Note_off_c, 3, 43, 0
5, 75776, Note_on_c, 3, 36, 96
5, 76544, Note_off_c, 3, 36, 0
5, 76544, Note_on_c, 3, 48, 96
5, 76800, Note_off_c, 3, 48, 0
5, 76800, Note_on_c, 3, 47, 96
5, 77056, Note_off_c, 3, 47, 0
5, 77056, Note_on_c, 3, 48, 96
5, 77312, Note_off_c, 3, 48, 0
5, 77312, Note_on_c, 3, 45, 96
5, 77568, Note_off_c, 3, 45, 0
5, 77568, Note_on_c, 3, 47, 96
5, 77824, Note_off_c, 3, 47, 0
5, 77824, Note_on_c, 3, 43, 96
5, 78848, Note_off_c, 3, 43, 0
5, 84992, Note_on_c, 3, 50, 96
5, 86016, Note_off_c, 3, 50, 0
5, 86016, Note_on_c, 3, 50, 96
5, 87040, Note_off_c, 3, 50, 0
5, 87040, Note_on_c, 3, 50, 96
5, 88064, Note_off_c, 3, 50, 0
5, 88064, Note_on_c, 3, 52, 96
5, 89088, Note_off_c, 3, 52, 0
5, 89088, Note_on_c, 3, 52, 96
5, 90112, Note_off_c, 3, 52, 0
5, 90112, Note_on_c, 3, 50, 96
5, 90624, Note_off_c, 3, 50, 0
5, 90624, Note_on_c, 3, 52, 96
5, 90880, Note_off_c, 3, 52, 0
5, 90880, Note_on_c, 3, 54, 96
5, 91136, Note_off_c, 3, 54, 0
5, 91136, Note_on_c, 3, 55, 96
5, 93184, Note_off_c, 3, 55, 0
5, 93184, Note_on_c, 3, 54, 96
5, 94208, Note_off_c, 3, 54, 0
5, 94208, Note_on_c, 3, 55, 96
5, 94720, Note_off_c, 3, 55, 0
5, 94720, Note_on_c, 3, 57, 96
5, 94976, Note_off_c, 3, 57, 0
5, 94976, Note_on_c, 3, 59, 96
5, 95232, Note_off_c, 3, 59, 0
5, 95232, Note_on_c, 3, 57, 96
5, 95744, Note_off_c, 3, 57, 0
5, 95744, Note_on_c, 3, 55, 96
5, 96256, Note_off_c, 3, 55, 0
5, 96256, Note_on_c, 3, 54, 96
5, 96768, Note_off_c, 3, 54, 0
5, 96768, Note_on_c, 3, 50, 96
5, 97280, Note_off_c, 3, 50, 0
5, 97280, Note_on_c, 3, 55, 96
5, 98816, Note_off_c, 3, 55, 0
5, 98816, Note_on_c, 3, 54, 96
5, 99072, Note_off_c, 3, 54, 0
5, 99072, Note_on_c, 3, 52, 96
5, 99328, Note_off_c, 3, 52, 0
5, 99328, Note_on_c, 3, 54, 96
5, 99840, Note_off_c, 3, 54, 0
5, 99840, Note_on_c, 3, 50, 96
5, 100352, Note_off_c, 3, 50, 0
5, 100352, Note_on_c, 3, 55, 96
5, 100864, Note_off_c, 3, 55, 0
5, 100864, Note_on_c, 3, 59, 96
5, 101376, Note_off_c, 3, 59, 0
5, 101376, Note_on_c, 3, 52, 96
5, 101888, Note_off_c, 3, 52, 0
5, 101888, Note_on_c, 3, 55, 96
5, 102400, Note_off_c, 3, 55, 0
5, 102400, Note_on_c, 3, 48, 96
5, 102912, Note_off_c, 3, 48, 0
5, 102912, Note_on_c, 3, 60, 96
5, 103168, Note_off_c, 3, 60, 0
5, 103168, Note_on_c, 3, 59, 96
5, 103424, Note_off_c, 3, 59, 0
5, 103424, Note_on_c, 3, 60, 96
5, 103936, Note_off_c, 3, 60, 0
5, 103936, Note_on_c, 3, 56, 96
5, 104448, Note_off_c, 3, 56, 0
5, 104448, Note_on_c, 3, 57, 96
5, 104960, Note_off_c, 3, 57, 0
5, 104960, Note_on_c, 3, 60, 96
5, 105472, Note_off_c, 3, 60, 0
5, 105472, Note_on_c, 3, 52, 96
5, 105984, Note_off_c, 3, 52, 0
5, 105984, Note_on_c, 3, 55, 96
5, 106496, Note_off_c, 3, 55, 0
5, 106496, Note_on_c, 3, 54, 96
5, 107008, Note_off_c, 3, 54, 0
5, 107008, Note_on_c, 3, 50, 96
5, 107520, Note_off_c, 3, 50, 0
5, 107520, Note_on_c, 3, 55, 96
5, 108032, Note_off_c, 3, 55, 0
5, 108032, Note_on_c, 3, 43, 96
5, 108544, Note_off_c, 3, 43, 0
5, 108544, Note_on_c, 3, 50, 96
5, 109568, Note_off_c, 3, 50, 0
5, 109568, Note_on_c, 3, 38, 96
5, 110592, Note_off_c, 3, 38, 0
5, 110592, Note_on_c, 3, 43, 96
5, 111104, Note_off_c, 3, 43, 0
5, 111104, Note_on_c, 3, 50, 96
5, 111616, Note_off_c, 3, 50, 0
5, 111616, Note_on_c, 3, 55, 96
5, 113152, Note_off_c, 3, 55, 0
5, 113152, Note_on_c, 3, 54, 96
5, 113664, Note_off_c, 3, 54, 0
5, 113664, Note_on_c, 3, 55, 96
5, 114176, Note_off_c, 3, 55, 0
5, 114176, Note_on_c, 3, 52, 96
5, 114688, Note_off_c, 3, 52, 0
5, 114688, Note_on_c, 3, 48, 96
5, 115200, Note_off_c, 3, 48, 0
5, 115200, Note_on_c, 3, 50, 96
5, 115712, Note_off_c, 3, 50, 0
5, 115712, Note_on_c, 3, 43, 96
5, 116224, Note_off_c, 3, 43, 0
5, 116224, Note_on_c, 3, 48, 96
5, 116736, Note_off_c, 3, 48, 0
5, 116736, Note_on_c, 3, 42, 96
5, 117760, Note_off_c, 3, 42, 0
5, 117760, Note_on_c, 3, 47, 96
5, 118784, Note_off_c, 3, 47, 0
5, 118784, Note_on_c, 3, 40, 96
5, 119296, Note_off_c, 3, 40, 0
5, 119296, Note_on_c, 3, 52, 96
5, 119808, Note_off_c, 3, 52, 0
5, 119808, Note_on_c, 3, 54, 96
5, 120064, Note_off_c, 3, 54, 0
5, 120064, Note_on_c, 3, 52, 96
5, 120320, Note_off_c, 3, 52, 0
5, 120320, Note_on_c, 3, 54, 96
5, 120576, Note_off_c, 3, 54, 0
5, 120576, Note_on_c, 3, 50, 96
5, 120832, Note_off_c, 3, 50, 0
5, 120832, Note_on_c, 3, 57, 96
5, 121344, Note_off_c, 3, 57, 0
5, 121344, Note_on_c, 3, 45, 96
5, 121856, Note_off_c, 3, 45, 0
5, 121856, Note_on_c, 3, 50, 96
5, 123392, Note_off_c, 3, 50, 0
5, 123392, Note_on_c, 3, 49, 96
5, 123648, Note_off_c, 3, 49, 0
5, 123648, Note_on_c, 3, 47, 96
5, 123904, Note_off_c, 3, 47, 0
5, 123904, Note_on_c, 3, 49, 96
5, 124416, Note_off_c, 3, 49, 0
5, 124416, Note_on_c, 3, 42, 96
5, 124928, Note_off_c, 3, 42, 0
5, 124928, Note_on_c, 3, 47, 96
5, 126976, Note_off_c, 3, 47, 0
5, 126976, Note_on_c, 3, 48, 96
5, 128000, Note_off_c, 3, 48, 0
5, 128000, Note_on_c, 3, 47, 96
5, 129024, Note_off_c, 3, 47, 0
5, 129024, Note_on_c, 3, 45, 96
5, 130048, Note_off_c, 3, 45, 0
5, 130048, Note_on_c, 3, 47, 96
5, 131072, Note_off_c, 3, 47, 0
5, 131072, Note_on_c, 3, 45, 96
5, 133120, Note_off_c, 3, 45, 0
5, 133120, Note_on_c, 3, 43, 96
5, 134144, Note_off_c, 3, 43, 0
5, 137728, Note_on_c, 3, 43, 96
5, 138240, Note_off_c, 3, 43, 0
5, 138240, Note_on_c, 3, 55, 96
5, 139776, Note_off_c, 3, 55, 0
5, 139776, Note_on_c, 3, 54, 96
5, 140032, Note_off_c, 3, 54, 0
5, 140032, Note_on_c, 3, 52, 96
5, 140288, Note_off_c, 3, 52, 0
5, 140288, Note_on_c, 3, 54, 96
5, 140800, Note_off_c, 3, 54, 0
5, 140800, Note_on_c, 3, 50, 96
5, 141312, Note_off_c, 3, 50, 0
5, 141312, Note_on_c, 3, 55, 96
5, 141824, Note_off_c, 3, 55, 0
5, 141824, Note_on_c, 3, 51, 96
5, 142336, Note_off_c, 3, 51, 0
5, 142336, Note_on_c, 3, 52, 96
5, 142848, Note_off_c, 3, 52, 0
5, 142848, Note_on_c, 3, 47, 96
5, 143360, Note_off_c, 3, 47, 0
5, 143360, Note_on_c, 3, 48, 96
5, 144384, Note_off_c, 3, 48, 0
5, 144896, Note_on_c, 3, 49, 96
5, 145408, Note_off_c, 3, 49, 0
5, 145408, Note_on_c, 3, 50, 96
5, 146432, Note_off_c, 3, 50, 0
5, 146944, Note_on_c, 3, 51, 96
5, 147456, Note_off_c, 3, 51, 0
5, 147456, Note_on_c, 3, 52, 96
5, 148480, Note_off_c, 3, 52, 0
5, 148992, Note_on_c, 3, 52, 96
5, 149504, Note_off_c, 3, 52, 0
5, 149504, Note_on_c, 3, 47, 96
5, 150528, Note_off_c, 3, 47, 0
5, 151040, Note_on_c, 3, 47, 96
5, 151552, Note_off_c, 3, 47, 0
5, 151552, Note_on_c, 3, 48, 96
5, 152064, Note_off_c, 3, 48, 0
5, 152064, Note_on_c, 3, 43, 96
5, 152576, Note_off_c, 3, 43, 0
5, 152576, Note_on_c, 3, 40, 96
5, 153088, Note_off_c, 3, 40, 0
5, 153088, Note_on_c, 3, 36, 96
5, 153600, Note_off_c, 3, 36, 0
5, 153600, Note_on_c, 3, 43, 96
5, 155648, Note_off_c, 3, 43, 0
5, 155648, Note_on_c, 3, 38, 96
5, 156672, Note_off_c, 3, 38, 0
5, 158720, Note_on_c, 3, 50, 96
5, 159744, Note_off_c, 3, 50, 0
5, 159744, Note_on_c, 3, 50, 96
5, 160768, Note_off_c, 3, 50, 0
5, 160768, Note_on_c, 3, 50, 96
5, 161792, Note_off_c, 3, 50, 0
5, 161792, Note_on_c, 3, 54, 96
5, 162816, Note_off_c, 3, 54, 0
5, 162816, Note_on_c, 3, 54, 96
5, 163840, Note_off_c, 3, 54, 0
5, 163840, Note_on_c, 3, 52, 96
5, 164352, Note_off_c, 3, 52, 0
5, 164352, Note_on_c, 3, 54, 96
5, 164608, Note_off_c, 3, 54, 0
5, 164608, Note_on_c, 3, 55, 96
5, 164864, Note_off_c, 3, 55, 0
5, 164864, Note_on_c, 3, 57, 96
5, 165120, Note_off_c, 3, 57, 0
5, 165120, Note_on_c, 3, 52, 96
5, 165376, Note_off_c, 3, 52, 0
5, 165376, Note_on_c, 3, 57, 96
5, 166400, Note_off_c, 3, 57, 0
5, 166400, Note_on_c, 3, 55, 96
5, 167168, Note_off_c, 3, 55, 0
5, 167168, Note_on_c, 3, 54, 96
5, 167424, Note_off_c, 3, 54, 0
5, 167424, Note_on_c, 3, 55, 96
5, 167680, Note_off_c, 3, 55, 0
5, 167680, Note_on_c, 3, 52, 96
5, 167936, Note_off_c, 3, 52, 0
5, 167936, Note_on_c, 3, 59, 96
5, 168448, Note_off_c, 3, 59, 0
5, 168448, Note_on_c, 3, 47, 96
5, 168960, Note_off_c, 3, 47, 0
5, 168960, Note_on_c, 3, 59, 96
5, 169472, Note_off_c, 3, 59, 0
5, 169472, Note_on_c, 3, 57, 96
5, 169984, Note_off_c, 3, 57, 0
5, 169984, Note_on_c, 3, 56, 96
5, 170496, Note_off_c, 3, 56, 0
5, 170496, Note_on_c, 3, 52, 96
5, 171008, Note_off_c, 3, 52, 0
5, 171008, Note_on_c, 3, 57, 96
5, 171520, Note_off_c, 3, 57, 0
5, 171520, Note_on_c, 3, 55, 96
5, 172032, Note_off_c, 3, 55, 0
5, 172032, Note_on_c, 3, 54, 96
5, 172544, Note_off_c, 3, 54, 0
5, 172544, Note_on_c, 3, 50, 96
5, 173056, Note_off_c, 3, 50, 0
5, 173056, Note_on_c, 3, 55, 96
5, 174336, Note_off_c, 3, 55, 0
5, 174336, Note_on_c, 3, 54, 96
5, 174592, Note_off_c, 3, 54, 0
5, 174592, Note_on_c, 3, 55, 96
5, 174848, Note_off_c, 3, 55, 0
5, 174848, Note_on_c, 3, 52, 96
5, 175104, Note_off_c, 3, 52, 0
5, 175104, Note_on_c, 3, 54, 96
5, 175616, Note_off_c, 3, 54, 0
5, 175616, Note_on_c, 3, 49, 96
5, 176128, Note_off_c, 3, 49, 0
5, 176128, Note_on_c, 3, 50, 96
5, 176640, Note_off_c, 3, 50, 0
5, 176640, Note_on_c, 3, 52, 96
5, 177152, Note_off_c, 3, 52, 0
5, 177152, Note_on_c, 3, 54, 96
5, 177664, Note_off_c, 3, 54, 0
5, 177664, Note_on_c, 3, 55, 96
5, 178176, Note_off_c, 3, 55, 0
5, 178176, Note_on_c, 3, 54, 96
5, 178688, Note_off_c, 3, 54, 0
5, 178688, Note_on_c, 3, 52, 96
5, 179200, Note_off_c, 3, 52, 0
5, 179200, Note_on_c, 3, 50, 96
5, 179712, Note_off_c, 3, 50, 0
5, 179712, Note_on_c, 3, 49, 96
5, 180224, Note_off_c, 3, 49, 0
5, 180224, Note_on_c, 3, 51, 96
5, 180736, Note_off_c, 3, 51, 0
5, 180736, Note_on_c, 3, 47, 96
5, 181248, Note_off_c, 3, 47, 0
5, 181248, Note_on_c, 3, 49, 96
5, 181760, Note_off_c, 3, 49, 0
5, 181760, Note_on_c, 3, 51, 96
5, 182272, Note_off_c, 3, 51, 0
5, 182272, Note_on_c, 3, 52, 96
5, 182784, Note_off_c, 3, 52, 0
5, 182784, Note_on_c, 3, 54, 96
5, 183296, Note_off_c, 3, 54, 0
5, 183296, Note_on_c, 3, 55, 96
5, 183808, Note_off_c, 3, 55, 0
5, 183808, Note_on_c, 3, 52, 96
5, 184320, Note_off_c, 3, 52, 0
5, 184320, Note_on_c, 3, 49, 96
5, 184832, Note_off_c, 3, 49, 0
5, 184832, Note_on_c, 3, 45, 96
5, 185344, Note_off_c, 3, 45, 0
5, 185344, Note_on_c, 3, 47, 96
5, 185856, Note_off_c, 3, 47, 0
5, 185856, Note_on_c, 3, 49, 96
5, 186368, Note_off_c, 3, 49, 0
5, 186368, Note_on_c, 3, 50, 96
5, 186880, Note_off_c, 3, 50, 0
5, 186880, Note_on_c, 3, 42, 96
5, 187136, Note_off_c, 3, 42, 0
5, 187136, Note_on_c, 3, 43, 96
5, 187392, Note_off_c, 3, 43, 0
5, 187392, Note_on_c, 3, 45, 96
5, 187904, Note_off_c, 3, 45, 0
5, 187904, Note_on_c, 3, 45, 96
5, 188416, Note_off_c, 3, 45, 0
5, 188416, Note_on_c, 3, 38, 96
5, 189440, Note_off_c, 3, 38, 0
5, 191488, Note_on_c, 3, 50, 96
5, 192512, Note_off_c, 3, 50, 0
5, 192512, Note_on_c, 3, 52, 96
5, 193024, Note_off_c, 3, 52, 0
5, 193024, Note_on_c, 3, 54, 96
5, 193536, Note_off_c, 3, 54, 0
5, 193536, Note_on_c, 3, 55, 96
5, 195584, Note_off_c, 3, 55, 0
5, 195584, Note_on_c, 3, 54, 96
5, 196608, Note_off_c, 3, 54, 0
5, 196608, Note_on_c, 3, 55, 96
5, 197120, Note_off_c, 3, 55, 0
5, 197120, Note_on_c, 3, 57, 96
5, 197632, Note_off_c, 3, 57, 0
5, 197632, Note_on_c, 3, 59, 96
5, 198144, Note_off_c, 3, 59, 0
5, 198144, Note_on_c, 3, 55, 96
5, 198656, Note_off_c, 3, 55, 0
5, 198656, Note_on_c, 3, 57, 96
5, 199168, Note_off_c, 3, 57, 0
5, 199168, Note_on_c, 3, 55, 96
5, 199680, Note_off_c, 3, 55, 0
5, 199680, Note_on_c, 3, 57, 96
5, 200192, Note_off_c, 3, 57, 0
5, 200192, Note_on_c, 3, 50, 96
5, 200704, Note_off_c, 3, 50, 0
5, 200704, Note_on_c, 3, 55, 96
5, 201216, Note_off_c, 3, 55, 0
5, 201216, Note_on_c, 3, 54, 96
5, 201728, Note_off_c, 3, 54, 0
5, 201728, Note_on_c, 3, 52, 96
5, 202240, Note_off_c, 3, 52, 0
5, 202240, Note_on_c, 3, 50, 96
5, 202752, Note_off_c, 3, 50, 0
5, 202752, Note_on_c, 3, 49, 96
5, 203264, Note_off_c, 3, 49, 0
5, 203264, Note_on_c, 3, 45, 96
5, 203776, Note_off_c, 3, 45, 0
5, 203776, Note_on_c, 3, 50, 96
5, 205312, Note_off_c, 3, 50, 0
5, 205312, Note_on_c, 3, 51, 96
5, 205824, Note_off_c, 3, 51, 0
5, 205824, Note_on_c, 3, 52, 96
5, 206336, Note_off_c, 3, 52, 0
5, 206336, Note_on_c, 3, 46, 96
5, 206848, Note_off_c, 3, 46, 0
5, 206848, Note_on_c, 3, 47, 96
5, 207360, Note_off_c, 3, 47, 0
5, 207360, Note_on_c, 3, 59, 96
5, 208384, Note_off_c, 3, 59, 0
5, 208384, Note_on_c, 3, 57, 96
5, 208896, Note_off_c, 3, 57, 0
5, 208896, Note_on_c, 3, 55, 96
5, 209408, Note_off_c, 3, 55, 0
5, 209408, Note_on_c, 3, 54, 96
5, 209920, Note_off_c, 3, 54, 0
5, 209920, Note_on_c, 3, 52, 96
5, 210432, Note_off_c, 3, 52, 0
5, 210432, Note_on_c, 3, 54, 96
5, 210688, Note_off_c, 3, 54, 0
5, 210688, Note_on_c, 3, 55, 96
5, 210944, Note_off_c, 3, 55, 0
5, 210944, Note_on_c, 3, 57, 96
5, 211456, Note_off_c, 3, 57, 0
5, 211456, Note_on_c, 3, 45, 96
5, 211968, Note_off_c, 3, 45, 0
5, 211968, Note_on_c, 3, 57, 96
5, 212480, Note_off_c, 3, 57, 0
5, 212480, Note_on_c, 3, 55, 96
5, 212992, Note_off_c, 3, 55, 0
5, 212992, Note_on_c, 3, 54, 96
5, 213504, Note_off_c, 3, 54, 0
5, 213504, Note_on_c, 3, 50, 96
5, 214016, Note_off_c, 3, 50, 0
5, 214016, Note_on_c, 3, 52, 96
5, 214528, Note_off_c, 3, 52, 0
5, 214528, Note_on_c, 3, 54, 96
5, 215040, Note_off_c, 3, 54, 0
5, 215040, Note_on_c, 3, 55, 96
5, 215552, Note_off_c, 3, 55, 0
5, 215552, Note_on_c, 3, 43, 96
5, 215808, Note_off_c, 3, 43, 0
5, 215808, Note_on_c, 3, 45, 96
5, 216064, Note_off_c, 3, 45, 0
5, 216064, Note_on_c, 3, 47, 96
5, 216576, Note_off_c, 3, 47, 0
5, 216576, Note_on_c, 3, 49, 96
5, 217088, Note_off_c, 3, 49, 0
5, 217088, Note_on_c, 3, 50, 96
5, 217600, Note_off_c, 3, 50, 0
5, 217600, Note_on_c, 3, 52, 96
5, 218112, Note_off_c, 3, 52, 0
5, 218112, Note_on_c, 3, 54, 96
5, 218624, Note_off_c, 3, 54, 0
5, 218624, Note_on_c, 3, 50, 96
5, 219136, Note_off_c, 3, 50, 0
5, 219136, Note_on_c, 3, 55, 96
5, 219648, Note_off_c, 3, 55, 0
5, 219648, Note_on_c, 3, 57, 96
5, 220160, Note_off_c, 3, 57, 0
5, 220160, Note_on_c, 3, 55, 96
5, 220672, Note_off_c, 3, 55, 0
5, 220672, Note_on_c, 3, 54, 96
5, 221184, Note_off_c, 3, 54, 0
5, 221184, Note_on_c, 3, 52, 96
5, 221696, Note_off_c, 3, 52, 0
5, 221696, Note_on_c, 3, 48, 96
5, 222208, Note_off_c, 3, 48, 0
5, 222208, Note_on_c, 3, 45, 96
5, 222720, Note_off_c, 3, 45, 0
5, 222720, Note_on_c, 3, 47, 96
5, 223232, Note_off_c, 3, 47, 0
5, 223232, Note_on_c, 3, 40, 96
5, 224256, Note_off_c, 3, 40, 0
5, 226304, Note_on_c, 3, 57, 96
5, 227328, Note_off_c, 3, 57, 0
5, 227328, Note_on_c, 3, 59, 96
5, 228864, Note_off_c, 3, 59, 0
5, 228864, Note_on_c, 3, 57, 96
5, 229376, Note_off_c, 3, 57, 0
5, 229376, Note_on_c, 3, 55, 96
5, 230400, Note_off_c, 3, 55, 0
5, 230400, Note_on_c, 3, 54, 96
5, 231424, Note_off_c, 3, 54, 0
5, 231424, Note_on_c, 3, 55, 96
5, 231936, Note_off_c, 3, 55, 0
5, 231936, Note_on_c, 3, 43, 96
5, 232448, Note_off_c, 3, 43, 0
5, 232448, Note_on_c, 3, 45, 96
5, 232960, Note_off_c, 3, 45, 0
5, 232960, Note_on_c, 3, 47, 96
5, 233472, Note_off_c, 3, 47, 0
5, 233472, Note_on_c, 3, 36, 96
5, 233984, Note_off_c, 3, 36, 0
5, 233984, Note_on_c, 3, 48, 96
5, 234496, Note_off_c, 3, 48, 0
5, 234496, Note_on_c, 3, 50, 96
5, 235008, Note_off_c, 3, 50, 0
5, 235008, Note_on_c, 3, 52, 96
5, 235520, Note_off_c, 3, 52, 0
5, 235520, Note_on_c, 3, 53, 96
5, 236032, Note_off_c, 3, 53, 0
5, 236032, Note_on_c, 3, 52, 96
5, 236544, Note_off_c, 3, 52, 0
5, 236544, Note_on_c, 3, 53, 96
5, 237056, Note_off_c, 3, 53, 0
5, 237056, Note_on_c, 3, 50, 96
5, 237568, Note_off_c, 3, 50, 0
5, 237568, Note_on_c, 3, 52, 96
5, 238080, Note_off_c, 3, 52, 0
5, 238080, Note_on_c, 3, 47, 96
5, 238592, Note_off_c, 3, 47, 0
5, 238592, Note_on_c, 3, 48, 96
5, 239104, Note_off_c, 3, 48, 0
5, 239104, Note_on_c, 3, 53, 96
5, 239616, Note_off_c, 3, 53, 0
5, 239616, Note_on_c, 3, 50, 96
5, 240128, Note_off_c, 3, 50, 0
5, 240128, Note_on_c, 3, 47, 96
5, 240640, Note_off_c, 3, 47, 0
5, 240640, Note_on_c, 3, 52, 96
5, 241152, Note_off_c, 3, 52, 0
5, 241152, Note_on_c, 3, 40, 96
5, 241664, Note_off_c, 3, 40, 0
5, 241664, Note_on_c, 3, 45, 96
5, 242176, Note_off_c, 3, 45, 0
5, 242176, Note_on_c, 3, 57, 96
5, 243200, Note_off_c, 3, 57, 0
5, 243200, Note_on_c, 3, 55, 96
5, 243712, Note_off_c, 3, 55, 0
5, 243712, Note_on_c, 3, 54, 96
5, 244224, Note_off_c, 3, 54, 0
5, 244224, Note_on_c, 3, 42, 96
5, 245248, Note_off_c, 3, 42, 0
5, 245248, Note_on_c, 3, 40, 96
5, 245760, Note_off_c, 3, 40, 0
5, 245760, Note_on_c, 3, 39, 96
5, 246272, Note_off_c, 3, 39, 0
5, 246272, Note_on_c, 3, 40, 96
5, 247296, Note_off_c, 3, 40, 0
5, 247296, Note_on_c, 3, 39, 96
5, 247808, Note_off_c, 3, 39, 0
5, 247808, Note_on_c, 3, 40, 96
5, 248320, Note_off_c, 3, 40, 0
5, 248320, Note_on_c, 3, 52, 96
5, 249344, Note_off_c, 3, 52, 0
5, 249344, Note_on_c, 3, 50, 96
5, 249856, Note_off_c, 3, 50, 0
5, 249856, Note_on_c, 3, 49, 96
5, 250368, Note_off_c, 3, 49, 0
5, 250368, Note_on_c, 3, 47, 96
5, 250880, Note_off_c, 3, 47, 0
5, 250880, Note_on_c, 3, 49, 96
5, 251392, Note_off_c, 3, 49, 0
5, 251392, Note_on_c, 3, 42, 96
5, 251904, Note_off_c, 3, 42, 0
5, 251904, Note_on_c, 3, 47, 96
5, 252928, Note_off_c, 3, 47, 0
5, 253184, Note_on_c, 3, 52, 96
5, 253440, Note_off_c, 3, 52, 0
5, 253440, Note_on_c, 3, 47, 96
5, 253696, Note_off_c, 3, 47, 0
5, 253696, Note_on_c, 3, 50, 96
5, 253952, Note_off_c, 3, 50, 0
5, 253952, Note_on_c, 3, 49, 96
5, 254208, Note_off_c, 3, 49, 0
5, 254208, Note_on_c, 3, 45, 96
5, 254464, Note_off_c, 3, 45, 0
5, 254464, Note_on_c, 3, 50, 96
5, 255232, Note_off_c, 3, 50, 0
5, 255232, Note_on_c, 3, 47, 96
5, 255488, Note_off_c, 3, 47, 0
5, 255488, Note_on_c, 3, 52, 96
5, 256256, Note_off_c, 3, 52, 0
5, 256256, Note_on_c, 3, 51, 96
5, 256512, Note_off_c, 3, 51, 0
5, 256512, Note_on_c, 3, 52, 96
5, 256768, Note_off_c, 3, 52, 0
5, 256768, Note_on_c, 3, 49, 96
5, 257024, Note_off_c, 3, 49, 0
5, 257024, Note_on_c, 3, 50, 96
5, 257536, Note_off_c, 3, 50, 0
5, 257536, Note_on_c, 3, 47, 96
5, 258048, Note_off_c, 3, 47, 0
5, 258048, Note_on_c, 3, 52, 96
5, 258560, Note_off_c, 3, 52, 0
5, 258560, Note_on_c, 3, 47, 96
5, 259072, Note_off_c, 3, 47, 0
5, 259072, Note_on_c, 3, 49, 96
5, 259584, Note_off_c, 3, 49, 0
5, 259584, Note_on_c, 3, 45, 96
5, 260096, Note_off_c, 3, 45, 0
5, 260096, Note_on_c, 3, 50, 96
5, 260608, Note_off_c, 3, 50, 0
5, 260608, Note_on_c, 3, 45, 96
5, 261120, Note_off_c, 3, 45, 0
5, 261120, Note_on_c, 3, 47, 96
5, 261632, Note_off_c, 3, 47, 0
5, 261632, Note_on_c, 3, 43, 96
5, 262144, Note_off_c, 3, 43, 0
5, 262144, Note_on_c, 3, 48, 96
5, 262656, Note_off_c, 3, 48, 0
5, 262656, Note_on_c, 3, 43, 96
5, 263168, Note_off_c, 3, 43, 0
5, 263168, Note_on_c, 3, 45, 96
5, 263680, Note_off_c, 3, 45, 0
5, 263680, Note_on_c, 3, 47, 96
5, 264192, Note_off_c, 3, 47, 0
5, 264192, Note_on_c, 3, 40, 96
5, 264704, Note_off_c, 3, 40, 0
5, 264704, Note_on_c, 3, 47, 96
5, 265216, Note_off_c, 3, 47, 0
5, 265216, Note_on_c, 3, 52, 96
5, 265728, Note_off_c, 3, 52, 0
5, 265728, Note_on_c, 3, 50, 96
5, 266240, Note_off_c, 3, 50, 0
5, 266240, Note_on_c, 3, 48, 96
5, 266752, Note_off_c, 3, 48, 0
5, 266752, Note_on_c, 3, 45, 96
5, 267264, Note_off_c, 3, 45, 0
5, 267264, Note_on_c, 3, 50, 96
5, 267776, Note_off_c, 3, 50, 0
5, 267776, Note_on_c, 3, 38, 96
5, 268288, Note_off_c, 3, 38, 0
5, 268288, Note_on_c, 3, 43, 96
5, 268800, Note_off_c, 3, 43, 0
5, 268800, Note_on_c, 3, 50, 96
5, 269312, Note_off_c, 3, 50, 0
5, 269312, Note_on_c, 3, 55, 96
5, 270848, Note_off_c, 3, 55, 0
5, 270848, Note_on_c, 3, 54, 96
5, 271104, Note_off_c, 3, 54, 0
5, 271104, Note_on_c, 3, 52, 96
5, 271360, Note_off_c, 3, 52, 0
5, 271360, Note_on_c, 3, 54, 96
5, 271872, Note_off_c, 3, 54, 0
5, 271872, Note_on_c, 3, 49, 96
5, 272384, Note_off_c, 3, 49, 0
5, 272384, Note_on_c, 3, 50, 96
5, 272896, Note_off_c, 3, 50, 0
5, 272896, Note_on_c, 3, 57, 96
5, 273408, Note_off_c, 3, 57, 0
5, 273408, Note_on_c, 3, 62, 96
5, 273920, Note_off_c, 3, 62, 0
5, 273920, Note_on_c, 3, 60, 96
5, 274432, Note_off_c, 3, 60, 0
5, 274432, Note_on_c, 3, 59, 96
5, 274944, Note_off_c, 3, 59, 0
5, 274944, Note_on_c, 3, 55, 96
5, 275456, Note_off_c, 3, 55, 0
5, 275456, Note_on_c, 3, 60, 96
5, 276992, Note_off_c, 3, 60, 0
5, 276992, Note_on_c, 3, 59, 96
5, 277248, Note_off_c, 3, 59, 0
5, 277248, Note_on_c, 3, 57, 96
5, 277504, Note_off_c, 3, 57, 0
5, 277504, Note_on_c, 3, 59, 96
5, 278016, Note_off_c, 3, 59, 0
5, 278016, Note_on_c, 3, 55, 96
5, 278528, Note_off_c, 3, 55, 0
5, 278528, Note_on_c, 3, 52, 96
5, 279040, Note_off_c, 3, 52, 0
5, 279040, Note_on_c, 3, 48, 96
5, 279552, Note_off_c, 3, 48, 0
5, 279552, Note_on_c, 3, 55, 96
5, 281088, Note_off_c, 3, 55, 0
5, 281088, Note_on_c, 3, 53, 96
5, 281344, Note_off_c, 3, 53, 0
5, 281344, Note_on_c, 3, 52, 96
5, 281600, Note_off_c, 3, 52, 0
5, 281600, Note_on_c, 3, 53, 96
5, 282112, Note_off_c, 3, 53, 0
5, 282112, Note_on_c, 3, 50, 96
5, 282624, Note_off_c, 3, 50, 0
5, 282624, Note_on_c, 3, 52, 96
5, 283136, Note_off_c, 3, 52, 0
5, 283136, Note_on_c, 3, 47, 96
5, 283648, Note_off_c, 3, 47, 0
5, 283648, Note_on_c, 3, 48, 96
5, 284160, Note_off_c, 3, 48, 0
5, 284160, Note_on_c, 3, 43, 96
5, 284672, Note_off_c, 3, 43, 0
5, 284672, Note_on_c, 3, 40, 96
5, 285184, Note_off_c, 3, 40, 0
5, 285184, Note_on_c, 3, 43, 96
5, 285696, Note_off_c, 3, 43, 0
5, 285696, Note_on_c, 3, 40, 96
5, 286208, Note_off_c, 3, 40, 0
5, 286208, Note_on_c, 3, 36, 96
5, 286720, Note_off_c, 3, 36, 0
5, 286720, Note_on_c, 3, 43, 96
5, 291840, Note_off_c, 3, 43, 0
5, 291841, End_track
6, 0, Start_track
6, 0, Title_t, "Instrument 5"
6, 7168, Note_on_c, 4, 38, 96
6, 8192, Note_off_c, 4, 38, 0
6, 8192, Note_on_c, 4, 38, 96
6, 9216, Note_off_c, 4, 38, 0
6, 9216, Note_on_c, 4, 38, 96
6, 10240, Note_off_c, 4, 38, 0
6, 10240, Note_on_c, 4, 40, 96
6, 11264, Note_off_c, 4, 40, 0
6, 11264, Note_on_c, 4, 40, 96
6, 12288, Note_off_c, 4, 40, 0
6, 12288, Note_on_c, 4, 38, 96
6, 12800, Note_off_c, 4, 38, 0
6, 12800, Note_on_c, 4, 40, 96
6, 13056, Note_off_c, 4, 40, 0
6, 13056, Note_on_c, 4, 42, 96
6, 13312, Note_off_c, 4, 42, 0
6, 13312, Note_on_c, 4, 43, 96
6, 15360, Note_off_c, 4, 43, 0
6, 15360, Note_on_c, 4, 42, 96
6, 16384, Note_off_c, 4, 42, 0
6, 16384, Note_on_c, 4, 43, 96
6, 16896, Note_off_c, 4, 43, 0
6, 16896, Note_on_c, 4, 45, 96
6, 17152, Note_off_c, 4, 45, 0
6, 17152, Note_on_c, 4, 47, 96
6, 17408, Note_off_c, 4, 47, 0
6, 17408, Note_on_c, 4, 45, 96
6, 17920, Note_off_c, 4, 45, 0
6, 17920, Note_on_c, 4, 43, 96
6, 18432, Note_off_c, 4, 43, 0
6, 18432, Note_on_c, 4, 42, 96
6, 18944, Note_off_c, 4, 42, 0
6, 18944, Note_on_c, 4, 38, 96
6, 19456, Note_off_c, 4, 38, 0
6, 19456, Note_on_c, 4, 43, 96
6, 20992, Note_off_c, 4, 43, 0
6, 20992, Note_on_c, 4, 42, 96
6, 21248, Note_off_c, 4, 42, 0
6, 21248, Note_on_c, 4, 40, 96
6, 21504, Note_off_c, 4, 40, 0
6, 21504, Note_on_c, 4, 42, 96
6, 22016, Note_off_c, 4, 42, 0
6, 22016, Note_on_c, 4, 38, 96
6, 22528, Note_off_c, 4, 38, 0
6, 22528, Note_on_c, 4, 43, 96
6, 23040, Note_off_c, 4, 43, 0
6, 23040, Note_on_c, 4, 47, 96
6, 23552, Note_off_c, 4, 47, 0
6, 23552, Note_on_c, 4, 40, 96
6, 24064, Note_off_c, 4, 40, 0
6, 24064, Note_on_c, 4, 43, 96
6, 24576, Note_off_c, 4, 43, 0
6, 24576, Note_on_c, 4, 36, 96
6, 25088, Note_off_c, 4, 36, 0
6, 25088, Note_on_c, 4, 48, 96
6, 25344, Note_off_c, 4, 48, 0
6, 25344, Note_on_c, 4, 47, 96
6, 25600, Note_off_c, 4, 47, 0
6, 25600, Note_on_c, 4, 48, 96
6, 26112, Note_off_c, 4, 48, 0
6, 26112, Note_on_c, 4, 44, 96
6, 26624, Note_off_c, 4, 44, 0
6, 26624, Note_on_c, 4, 45, 96
6, 27136, Note_off_c, 4, 45, 0
6, 27136, Note_on_c, 4, 48, 96
6, 27648, Note_off_c, 4, 48, 0
6, 27648, Note_on_c, 4, 40, 96
6, 28160, Note_off_c, 4, 40, 0
6, 28160, Note_on_c, 4, 43, 96
6, 28672, Note_off_c, 4, 43, 0
6, 28672, Note_on_c, 4, 42, 96
6, 29184, Note_off_c, 4, 42, 0
6, 29184, Note_on_c, 4, 38, 96
6, 29696, Note_off_c, 4, 38, 0
6, 29696, Note_on_c, 4, 43, 96
6, 30208, Note_off_c, 4, 43, 0
6, 30208, Note_on_c, 4, 31, 96
6, 30720, Note_off_c, 4, 31, 0
6, 30720, Note_on_c, 4, 38, 96
6, 31744, Note_off_c, 4, 38, 0
6, 31744, Note_on_c, 4, 26, 96
6, 32768, Note_off_c, 4, 26, 0
6, 32768, Note_on_c, 4, 31, 96
6, 33280, Note_off_c, 4, 31, 0
6, 33280, Note_on_c, 4, 38, 96
6, 33792, Note_off_c, 4, 38, 0
6, 33792, Note_on_c, 4, 43, 96
6, 35328, Note_off_c, 4, 43, 0
6, 35328, Note_on_c, 4, 42, 96
6, 35840, Note_off_c, 4, 42, 0
6, 35840, Note_on_c, 4, 43, 96
6, 36352, Note_off_c, 4, 43, 0
6, 36352, Note_on_c, 4, 40, 96
6, 36864, Note_off_c, 4, 40, 0
6, 36864, Note_on_c, 4, 36, 96
6, 37376, Note_off_c, 4, 36, 0
6, 37376, Note_on_c, 4, 38, 96
6, 37888, Note_off_c, 4, 38, 0
6, 37888, Note_on_c, 4, 31, 96
6, 38400, Note_off_c, 4, 31, 0
6, 38400, Note_on_c, 4, 36, 96
6, 38912, Note_off_c, 4, 36, 0
6, 38912, Note_on_c, 4, 30, 96
6, 39936, Note_off_c, 4, 30, 0
6, 39936, Note_on_c, 4, 35, 96
6, 40960, Note_off_c, 4, 35, 0
6, 40960, Note_on_c, 4, 28, 96
6, 41472, Note_off_c, 4, 28, 0
6, 41472, Note_on_c, 4, 40, 96
6, 41984, Note_off_c, 4, 40, 0
6, 41984, Note_on_c, 4, 42, 96
6, 42240, Note_off_c, 4, 42, 0
6, 42240, Note_on_c, 4, 40, 96
6, 42496, Note_off_c, 4, 40, 0
6, 42496, Note_on_c, 4, 42, 96
6, 42752, Note_off_c, 4, 42, 0
6, 42752, Note_on_c, 4, 38, 96
6, 43008, Note_off_c, 4, 38, 0
6, 43008, Note_on_c, 4, 45, 96
6, 43520, Note_off_c, 4, 45, 0
6, 43520, Note_on_c, 4, 33, 96
6, 44032, Note_off_c, 4, 33, 0
6, 44032, Note_on_c, 4, 38, 96
6, 45568, Note_off_c, 4, 38, 0
6, 45568, Note_on_c, 4, 37, 96
6, 45824, Note_off_c, 4, 37, 0
6, 45824, Note_on_c, 4, 35, 96
6, 46080, Note_off_c, 4, 35, 0
6, 46080, Note_on_c, 4, 37, 96
6, 46592, Note_off_c, 4, 37, 0
6, 46592, Note_on_c, 4, 30, 96
6, 47104, Note_off_c, 4, 30, 0
6, 47104, Note_on_c, 4, 35, 96
6, 49152, Note_off_c, 4, 35, 0
6, 49152, Note_on_c, 4, 36, 96
6, 50176, Note_off_c, 4, 36, 0
6, 50176, Note_on_c, 4, 35, 96
6, 51200, Note_off_c, 4, 35, 0
6, 51200, Note_on_c, 4, 33, 96
6, 52224, Note_off_c, 4, 33, 0
6, 52224, Note_on_c, 4, 35, 96
6, 53248, Note_off_c, 4, 35, 0
6, 53248, Note_on_c, 4, 33, 96
6, 55296, Note_off_c, 4, 33, 0
6, 55296, Note_on_c, 4, 31, 96
6, 56320, Note_off_c, 4, 31, 0
6, 59904, Note_on_c, 4, 31, 96
6, 60416, Note_off_c, 4, 31, 0
6, 60416, Note_on_c, 4, 43, 96
6, 61952, Note_off_c, 4, 43, 0
6, 61952, Note_on_c, 4, 42, 96
6, 62208, Note_off_c, 4, 42, 0
6, 62208, Note_on_c, 4, 40, 96
6, 62464, Note_off_c, 4, 40, 0
6, 62464, Note_on_c, 4, 42, 96
6, 62976, Note_off_c, 4, 42, 0
6, 62976, Note_on_c, 4, 38, 96
6, 63488, Note_off_c, 4, 38, 0
6, 63488, Note_on_c, 4, 43, 96
6, 64000, Note_off_c, 4, 43, 0
6, 64000, Note_on_c, 4, 39, 96
6, 64512, Note_off_c, 4, 39, 0
6, 64512, Note_on_c, 4, 40, 96
6, 65024, Note_off_c, 4, 40, 0
6, 65024, Note_on_c, 4, 35, 96
6, 65536, Note_off_c, 4, 35, 0
6, 65536, Note_on_c, 4, 36, 96
6, 66560, Note_off_c, 4, 36, 0
6, 67072, Note_on_c, 4, 37, 96
6, 67584, Note_off_c, 4, 37, 0
6, 67584, Note_on_c, 4, 38, 96
6, 68608, Note_off_c, 4, 38, 0
6, 69120, Note_on_c, 4, 39, 96
6, 69632, Note_off_c, 4, 39, 0
6, 69632, Note_on_c, 4, 40, 96
6, 70656, Note_off_c, 4, 40, 0
6, 71168, Note_on_c, 4, 40, 96
6, 71680, Note_off_c, 4, 40, 0
6, 71680, Note_on_c, 4, 35, 96
6, 72704, Note_off_c, 4, 35, 0
6, 73216, Note_on_c, 4, 35, 96
6, 73728, Note_off_c, 4, 35, 0
6, 73728, Note_on_c, 4, 36, 96
6, 74752, Note_off_c, 4, 36, 0
6, 75264, Note_on_c, 4, 31, 96
6, 75776, Note_off_c, 4, 31, 0
6, 75776, Note_on_c, 4, 24, 96
6, 76544, Note_off_c, 4, 24, 0
6, 76544, Note_on_c, 4, 36, 96
6, 76800, Note_off_c, 4, 36, 0
6, 76800, Note_on_c, 4, 35, 96
6, 77056, Note_off_c, 4, 35, 0
6, 77056, Note_on_c, 4, 36, 96
6, 77312, Note_off_c, 4, 36, 0
6, 77312, Note_on_c, 4, 33, 96
6, 77568, Note_off_c, 4, 33, 0
6, 77568, Note_on_c, 4, 35, 96
6, 77824, Note_off_c, 4, 35, 0
6, 77824, Note_on_c, 4, 31, 96
6, 78848, Note_off_c, 4, 31, 0
6, 84992, Note_on_c, 4, 38, 96
6, 86016, Note_off_c, 4, 38, 0
6, 86016, Note_on_c, 4, 38, 96
6, 87040, Note_off_c, 4, 38, 0
6, 87040, Note_on_c, 4, 38, 96
6, 88064, Note_off_c, 4, 38, 0
6, 88064, Note_on_c, 4, 40, 96
6, 89088, Note_off_c, 4, 40, 0
6, 89088, Note_on_c, 4, 40, 96
6, 90112, Note_off_c, 4, 40, 0
6, 90112, Note_on_c, 4, 38, 96
6, 90624, Note_off_c, 4, 38, 0
6, 90624, Note_on_c, 4, 40, 96
6, 90880, Note_off_c, 4, 40, 0
6, 90880, Note_on_c, 4, 42, 96
6, 91136, Note_off_c, 4, 42, 0
6, 91136, Note_on_c, 4, 43, 96
6, 93184, Note_off_c, 4, 43, 0
6, 93184, Note_on_c, 4, 42, 96
6, 94208, Note_off_c, 4, 42, 0
6, 94208, Note_on_c, 4, 43, 96
6, 94720, Note_off_c, 4, 43, 0
6, 94720, Note_on_c, 4, 45, 96
6, 94976, Note_off_c, 4, 45, 0
6, 94976, Note_on_c, 4, 47, 96
6, 95232, Note_off_c, 4, 47, 0
6, 95232, Note_on_c, 4, 45, 96
6, 95744, Note_off_c, 4, 45, 0
6, 95744, Note_on_c, 4, 43, 96
6, 96256, Note_off_c, 4, 43, 0
6, 96256, Note_on_c, 4, 42, 96
6, 96768, Note_off_c, 4, 42, 0
6, 96768, Note_on_c, 4, 38, 96
6, 97280, Note_off_c, 4, 38, 0
6, 97280, Note_on_c, 4, 43, 96
6, 98816, Note_off_c, 4, 43, 0
6, 98816, Note_on_c, 4, 42, 96
6, 99072, Note_off_c, 4, 42, 0
6, 99072, Note_on_c, 4, 40, 96
6, 99328, Note_off_c, 4, 40, 0
6, 99328, Note_on_c, 4, 42, 96
6, 99840, Note_off_c, 4, 42, 0
6, 99840, Note_on_c, 4, 38, 96
6, 100352, Note_off_c, 4, 38, 0
6, 100352, Note_on_c, 4, 43, 96
6, 100864, Note_off_c, 4, 43, 0
6, 100864, Note_on_c, 4, 47, 96
6, 101376, Note_off_c, 4, 47, 0
6, 101376, Note_on_c, 4, 40, 96
6, 101888, Note_off_c, 4, 40, 0
6, 101888, Note_on_c, 4, 43, 96
6, 102400, Note_off_c, 4, 43, 0
6, 102400, Note_on_c, 4, 36, 96
6, 102912, Note_off_c, 4, 36, 0
6, 102912, Note_on_c, 4, 48, 96
6, 103168, Note_off_c, 4, 48, 0
6, 103168, Note_on_c, 4, 47, 96
6, 103424, Note_off_c, 4, 47, 0
6, 103424, Note_on_c, 4, 48, 96
6, 103936, Note_off_c, 4, 48, 0
6, 103936, Note_on_c, 4, 44, 96
6, 104448, Note_off_c, 4, 44, 0
6, 104448, Note_on_c, 4, 45, 96
6, 104960, Note_off_c, 4, 45, 0
6, 104960, Note_on_c, 4, 48, 96
6, 105472, Note_off_c, 4, 48, 0
6, 105472, Note_on_c, 4, 40, 96
6, 105984, Note_off_c, 4, 40, 0
6, 105984, Note_on_c, 4, 43, 96
6, 106496, Note_off_c, 4, 43, 0
6, 106496, Note_on_c, 4, 42, 96
6, 107008, Note_off_c, 4, 42, 0
6, 107008, Note_on_c, 4, 38, 96
6, 107520, Note_off_c, 4, 38, 0
6, 107520, Note_on_c, 4, 43, 96
6, 108032, Note_off_c, 4, 43, 0
6, 108032, Note_on_c, 4, 31, 96
6, 108544, Note_off_c, 4, 31, 0
6, 108544, Note_on_c, 4, 38, 96
6, 109568, Note_off_c, 4, 38, 0
6, 109568, Note_on_c, 4, 26, 96
6, 110592, Note_off_c, 4, 26, 0
6, 110592, Note_on_c, 4, 31, 96
6, 111104, Note_off_c, 4, 31, 0
6, 111104, Note_on_c, 4, 38, 96
6, 111616, Note_off_c, 4, 38, 0
6, 111616, Note_on_c, 4, 43, 96
6, 113152, Note_off_c, 4, 43, 0
6, 113152, Note_on_c, 4, 42, 96
6, 113664, Note_off_c, 4, 42, 0
6, 113664, Note_on_c, 4, 43, 96
6, 114176, Note_off_c, 4, 43, 0
6, 114176, Note_on_c, 4, 40, 96
6, 114688, Note_off_c, 4, 40, 0
6, 114688, Note_on_c, 4, 36, 96
6, 115200, Note_off_c, 4, 36, 0
6, 115200, Note_on_c, 4, 38, 96
6, 115712, Note_off_c, 4, 38, 0
6, 115712, Note_on_c, 4, 31, 96
6, 116224, Note_off_c, 4, 31, 0
6, 116224, Note_on_c, 4, 36, 96
6, 116736, Note_off_c, 4, 36, 0
6, 116736, Note_on_c, 4, 30, 96
6, 117760, Note_off_c, 4, 30, 0
6, 117760, Note_on_c, 4, 35, 96
6, 118784, Note_off_c, 4, 35, 0
6, 118784, Note_on_c, 4, 28, 96
6, 119296, Note_off_c, 4, 28, 0
6, 119296, Note_on_c, 4, 40, 96
6, 119808, Note_off_c, 4, 40, 0
6, 119808, Note_on_c, 4, 42, 96
6, 120064, Note_off_c, 4, 42, 0
6, 120064, Note_on_c, 4, 40, 96
6, 120320, Note_off_c, 4, 40, 0
6, 120320, Note_on_c, 4, 42, 96
6, 120576, Note_off_c, 4, 42, 0
6, 120576, Note_on_c, 4, 38, 96
6, 120832, Note_off_c, 4, 38, 0
6, 120832, Note_on_c, 4, 45, 96
6, 121344, Note_off_c, 4, 45, 0
6, 121344, Note_on_c, 4, 33, 96
6, 121856, Note_off_c, 4, 33, 0
6, 121856, Note_on_c, 4, 38, 96
6, 123392, Note_off_c, 4, 38, 0
6, 123392, Note_on_c, 4, 37, 96
6, 123648, Note_off_c, 4, 37, 0
6, 123648, Note_on_c, 4, 35, 96
6, 123904, Note_off_c, 4, 35, 0
6, 123904, Note_on_c, 4, 37, 96
6, 124416, Note_off_c, 4, 37, 0
6, 124416, Note_on_c, 4, 30, 96
6, 124928, Note_off_c, 4, 30, 0
6, 124928, Note_on_c, 4, 35, 96
6, 126976, Note_off_c, 4, 35, 0
6, 126976, Note_on_c, 4, 36, 96
6, 128000, Note_off_c, 4, 36, 0
6, 128000, Note_on_c, 4, 35, 96
6, 129024, Note_off_c, 4, 35, 0
6, 129024, Note_on_c, 4, 33, 96
6, 130048, Note_off_c, 4, 33, 0
6, 130048, Note_on_c, 4, 35, 96
6, 131072, Note_off_c, 4, 35, 0
6, 131072, Note_on_c, 4, 33, 96
6, 133120, Note_off_c, 4, 33, 0
6, 133120, Note_on_c, 4, 31, 96
6, 134144, Note_off_c, 4, 31, 0
6, 137728, Note_on_c, 4, 31, 96
6, 138240, Note_off_c, 4, 31, 0
6, 138240, Note_on_c, 4, 43, 96
6, 139776, Note_off_c, 4, 43, 0
6, 139776, Note_on_c, 4, 42, 96
6, 140032, Note_off_c, 4, 42, 0
6, 140032, Note_on_c, 4, 40, 96
6, 140288, Note_off_c, 4, 40, 0
6, 140288, Note_on_c, 4, 42, 96
6, 140800, Note_off_c, 4, 42, 0
6, 140800, Note_on_c, 4, 38, 96
6, 141312, Note_off_c, 4, 38, 0
6, 141312, Note_on_c, 4, 43, 96
6, 141824, Note_off_c, 4, 43, 0
6, 141824, Note_on_c, 4, 39, 96
6, 142336, Note_off_c, 4, 39, 0
6, 142336, Note_on_c, 4, 40, 96
6, 142848, Note_off_c, 4, 40, 0
6, 142848, Note_on_c, 4, 35, 96
6, 143360, Note_off_c, 4, 35, 0
6, 143360, Note_on_c, 4, 36, 96
6, 144384, Note_off_c, 4, 36, 0
6, 144896, Note_on_c, 4, 37, 96
6, 145408, Note_off_c, 4, 37, 0
6, 145408, Note_on_c, 4, 38, 96
6, 146432, Note_off_c, 4, 38, 0
6, 146944, Note_on_c, 4, 39, 96
6, 147456, Note_off_c, 4, 39, 0
6, 147456, Note_on_c, 4, 40, 96
6, 148480, Note_off_c, 4, 40, 0
6, 148992, Note_on_c, 4, 40, 96
6, 149504, Note_off_c, 4, 40, 0
6, 149504, Note_on_c, 4, 35, 96
6, 150528, Note_off_c, 4, 35, 0
6, 151040, Note_on_c, 4, 35, 96
6, 151552, Note_off_c, 4, 35, 0
6, 151552, Note_on_c, 4, 36, 96
6, 152064, Note_off_c, 4, 36, 0
6, 152064, Note_on_c, 4, 31, 96
6, 152576, Note_off_c, 4, 31, 0
6, 152576, Note_on_c, 4, 28, 96
6, 153088, Note_off_c, 4, 28, 0
6, 153088, Note_on_c, 4, 24, 96
6, 153600, Note_off_c, 4, 24, 0
6, 153600, Note_on_c, 4, 31, 96
6, 155648, Note_off_c, 4, 31, 0
6, 155648, Note_on_c, 4, 26, 96
6, 156672, Note_off_c, 4, 26, 0
6, 158720, Note_on_c, 4, 38, 96
6, 159744, Note_off_c, 4, 38, 0
6, 159744, Note_on_c, 4, 38, 96
6, 160768, Note_off_c, 4, 38, 0
6, 160768, Note_on_c, 4, 38, 96
6, 161792, Note_off_c, 4, 38, 0
6, 161792, Note_on_c, 4, 42, 96
6, 162816, Note_off_c, 4, 42, 0
6, 162816, Note_on_c, 4, 42, 96
6, 163840, Note_off_c, 4, 42, 0
6, 163840, Note_on_c, 4, 40, 96
6, 164352, Note_off_c, 4, 40, 0
6, 164352, Note_on_c, 4, 42, 96
6, 164608, Note_off_c, 4, 42, 0
6, 164608, Note_on_c, 4, 43, 96
6, 164864, Note_off_c, 4, 43, 0
6, 164864, Note_on_c, 4, 45, 96
6, 165120, Note_off_c, 4, 45, 0
6, 165120, Note_on_c, 4, 40, 96
6, 165376, Note_off_c, 4, 40, 0
6, 165376, Note_on_c, 4, 45, 96
6, 166400, Note_off_c, 4, 45, 0
6, 166400, Note_on_c, 4, 43, 96
6, 167168, Note_off_c, 4, 43, 0
6, 167168, Note_on_c, 4, 42, 96
6, 167424, Note_off_c, 4, 42, 0
6, 167424, Note_on_c, 4, 43, 96
6, 167680, Note_off_c, 4, 43, 0
6, 167680, Note_on_c, 4, 40, 96
6, 167936, Note_off_c, 4, 40, 0
6, 167936, Note_on_c, 4, 47, 96
6, 168448, Note_off_c, 4, 47, 0
6, 168448, Note_on_c, 4, 35, 96
6, 168960, Note_off_c, 4, 35, 0
6, 168960, Note_on_c, 4, 47, 96
6, 169472, Note_off_c, 4, 47, 0
6, 169472, Note_on_c, 4, 45, 96
6, 169984, Note_off_c, 4, 45, 0
6, 169984, Note_on_c, 4, 44, 96
6, 170496, Note_off_c, 4, 44, 0
6, 170496, Note_on_c, 4, 40, 96
6, 171008, Note_off_c, 4, 40, 0
6, 171008, Note_on_c, 4, 45, 96
6, 171520, Note_off_c, 4, 45, 0
6, 171520, Note_on_c, 4, 43, 96
6, 172032, Note_off_c, 4, 43, 0
6, 172032, Note_on_c, 4, 42, 96
6, 172544, Note_off_c, 4, 42, 0
6, 172544, Note_on_c, 4, 38, 96
6, 173056, Note_off_c, 4, 38, 0
6, 173056, Note_on_c, 4, 43, 96
6, 174336, Note_off_c, 4, 43, 0
6, 174336, Note_on_c, 4, 42, 96
6, 174592, Note_off_c, 4, 42, 0
6, 174592, Note_on_c, 4, 43, 96
6, 174848, Note_off_c, 4, 43, 0
6, 174848, Note_on_c, 4, 40, 96
6, 175104, Note_off_c, 4, 40, 0
6, 175104, Note_on_c, 4, 42, 96
6, 175616, Note_off_c, 4, 42, 0
6, 175616, Note_on_c, 4, 37, 96
6, 176128, Note_off_c, 4, 37, 0
6, 176128, Note_on_c, 4, 38, 96
6, 176640, Note_off_c, 4, 38, 0
6, 176640, Note_on_c, 4, 40, 96
6, 177152, Note_off_c, 4, 40, 0
6, 177152, Note_on_c, 4, 42, 96
6, 177664, Note_off_c, 4, 42, 0
6, 177664, Note_on_c, 4, 43, 96
6, 178176, Note_off_c, 4, 43, 0
6, 178176, Note_on_c, 4, 42, 96
6, 178688, Note_off_c, 4, 42, 0
6, 178688, Note_on_c, 4, 40, 96
6, 179200, Note_off_c, 4, 40, 0
6, 179200, Note_on_c, 4, 38, 96
6, 179712, Note_off_c, 4, 38, 0
6, 179712, Note_on_c, 4, 37, 96
6, 180224, Note_off_c, 4, 37, 0
6, 180224, Note_on_c, 4, 39, 96
6, 180736, Note_off_c, 4, 39, 0
6, 180736, Note_on_c, 4, 35, 96
6, 181248, Note_off_c, 4, 35, 0
6, 181248, Note_on_c, 4, 37, 96
6, 181760, Note_off_c, 4, 37, 0
6, 181760, Note_on_c, 4, 39, 96
6, 182272, Note_off_c, 4, 39, 0
6, 182272, Note_on_c, 4, 40, 96
6, 182784, Note_off_c, 4, 40, 0
6, 182784, Note_on_c, 4, 42, 96
6, 183296, Note_off_c, 4, 42, 0
6, 183296, Note_on_c, 4, 43, 96
6, 183808, Note_off_c, 4, 43, 0
6, 183808, Note_on_c, 4, 40, 96
6, 184320, Note_off_c, 4, 40, 0
6, 184320, Note_on_c, 4, 37, 96
6, 184832, Note_off_c, 4, 37, 0
6, 184832, Note_on_c, 4, 33, 96
6, 185344, Note_off_c, 4, 33, 0
6, 185344, Note_on_c, 4, 35, 96
6, 185856, Note_off_c, 4, 35, 0
6, 185856, Note_on_c, 4, 37, 96
6, 186368, Note_off_c, 4, 37, 0
6, 186368, Note_on_c, 4, 38, 96
6, 186880, Note_off_c, 4, 38, 0
6, 186880, Note_on_c, 4, 30, 96
6, 187136, Note_off_c, 4, 30, 0
6, 187136, Note_on_c, 4, 31, 96
6, 187392, Note_off_c, 4, 31, 0
6, 187392, Note_on_c, 4, 33, 96
6, 187904, Note_off_c, 4, 33, 0
6, 187904, Note_on_c, 4, 33, 96
6, 188416, Note_off_c, 4, 33, 0
6, 188416, Note_on_c, 4, 26, 96
6, 189440, Note_off_c, 4, 26, 0
6, 191488, Note_on_c, 4, 38, 96
6, 192512, Note_off_c, 4, 38, 0
6, 192512, Note_on_c, 4, 40, 96
6, 193024, Note_off_c, 4, 40, 0
6, 193024, Note_on_c, 4, 42, 96
6, 193536, Note_off_c, 4, 42, 0
6, 193536, Note_on_c, 4, 43, 96
6, 195584, Note_off_c, 4, 43, 0
6, 195584, Note_on_c, 4, 42, 96
6, 196608, Note_off_c, 4, 42, 0
6, 196608, Note_on_c, 4, 43, 96
6, 197120, Note_off_c, 4, 43, 0
6, 197120, Note_on_c, 4, 45, 96
6, 197632, Note_off_c, 4, 45, 0
6, 197632, Note_on_c, 4, 47, 96
6, 198144, Note_off_c, 4, 47, 0
6, 198144, Note_on_c, 4, 43, 96
6, 198656, Note_off_c, 4, 43, 0
6, 198656, Note_on_c, 4, 45, 96
6, 199168, Note_off_c, 4, 45, 0
6, 199168, Note_on_c, 4, 43, 96
6, 199680, Note_off_c, 4, 43, 0
6, 199680, Note_on_c, 4, 45, 96
6, 200192, Note_off_c, 4, 45, 0
6, 200192, Note_on_c, 4, 38, 96
6, 200704, Note_off_c, 4, 38, 0
6, 200704, Note_on_c, 4, 43, 96
6, 201216, Note_off_c, 4, 43, 0
6, 201216, Note_on_c, 4, 42, 96
6, 201728, Note_off_c, 4, 42, 0
6, 201728, Note_on_c, 4, 40, 96
6, 202240, Note_off_c, 4, 40, 0
6, 202240, Note_on_c, 4, 38, 96
6, 202752, Note_off_c, 4, 38, 0
6, 202752, Note_on_c, 4, 37, 96
6, 203264, Note_off_c, 4, 37, 0
6, 203264, Note_on_c, 4, 33, 96
6, 203776, Note_off_c, 4, 33, 0
6, 203776, Note_on_c, 4, 38, 96
6, 205312, Note_off_c, 4, 38, 0
6, 205312, Note_on_c, 4, 39, 96
6, 205824, Note_off_c, 4, 39, 0
6, 205824, Note_on_c, 4, 40, 96
6, 206336, Note_off_c, 4, 40, 0
6, 206336, Note_on_c, 4, 34, 96
6, 206848, Note_off_c, 4, 34, 0
6, 206848, Note_on_c, 4, 35, 96
6, 207360, Note_off_c, 4, 35, 0
6, 207360, Note_on_c, 4, 47, 96
6, 208384, Note_off_c, 4, 47, 0
6, 208384, Note_on_c, 4, 45, 96
6, 208896, Note_off_c, 4, 45, 0
6, 208896, Note_on_c, 4, 43, 96
6, 209408, Note_off_c, 4, 43, 0
6, 209408, Note_on_c, 4, 42, 96
6, 209920, Note_off_c, 4, 42, 0
6, 209920, Note_on_c, 4, 40, 96
6, 210432, Note_off_c, 4, 40, 0
6, 210432, Note_on_c, 4, 42, 96
6, 210688, Note_off_c, 4, 42, 0
6, 210688, Note_on_c, 4, 43, 96
6, 210944, Note_off_c, 4, 43, 0
6, 210944, Note_on_c, 4, 45, 96
6, 211456, Note_off_c, 4, 45, 0
6, 211456, Note_on_c, 4, 33, 96
6, 211968, Note_off_c, 4, 33, 0
6, 211968, Note_on_c, 4, 45, 96
6, 212480, Note_off_c, 4, 45, 0
6, 212480, Note_on_c, 4, 43, 96
6, 212992, Note_off_c, 4, 43, 0
6, 212992, Note_on_c, 4, 42, 96
6, 213504, Note_off_c, 4, 42, 0
6, 213504, Note_on_c, 4, 38, 96
6, 214016, Note_off_c, 4, 38, 0
6, 214016, Note_on_c, 4, 40, 96
6, 214528, Note_off_c, 4, 40, 0
6, 214528, Note_on_c, 4, 42, 96
6, 215040, Note_off_c, 4, 42, 0
6, 215040, Note_on_c, 4, 43, 96
6, 215552, Note_off_c, 4, 43, 0
6, 215552, Note_on_c, 4, 31, 96
6, 215808, Note_off_c, 4, 31, 0
6, 215808, Note_on_c, 4, 33, 96
6, 216064, Note_off_c, 4, 33, 0
6, 216064, Note_on_c, 4, 35, 96
6, 216576, Note_off_c, 4, 35, 0
6, 216576, Note_on_c, 4, 37, 96
6, 217088, Note_off_c, 4, 37, 0
6, 217088, Note_on_c, 4, 38, 96
6, 217600, Note_off_c, 4, 38, 0
6, 217600, Note_on_c, 4, 40, 96
6, 218112, Note_off_c, 4, 40, 0
6, 218112, Note_on_c, 4, 42, 96
6, 218624, Note_off_c, 4, 42, 0
6, 218624, Note_on_c, 4, 38, 96
6, 219136, Note_off_c, 4, 38, 0
6, 219136, Note_on_c, 4, 43, 96
6, 219648, Note_off_c, 4, 43, 0
6, 219648, Note_on_c, 4, 45, 96
6, 220160, Note_off_c, 4, 45, 0
6, 220160, Note_on_c, 4, 43, 96
6, 220672, Note_off_c, 4, 43, 0
6, 220672, Note_on_c, 4, 42, 96
6, 221184, Note_off_c, 4, 42, 0
6, 221184, Note_on_c, 4, 40, 96
6, 221696, Note_off_c, 4, 40, 0
6, 221696, Note_on_c, 4, 36, 96
6, 222208, Note_off_c, 4, 36, 0
6, 222208, Note_on_c, 4, 33, 96
6, 222720, Note_off_c, 4, 33, 0
6, 222720, Note_on_c, 4, 35, 96
6, 223232, Note_off_c, 4, 35, 0
6, 223232, Note_on_c, 4, 28, 96
6, 224256, Note_off_c, 4, 28, 0
6, 226304, Note_on_c, 4, 45, 96
6, 227328, Note_off_c, 4, 45, 0
6, 227328, Note_on_c, 4, 47, 96
6, 228864, Note_off_c, 4, 47, 0
6, 228864, Note_on_c, 4, 45, 96
6, 229376, Note_off_c, 4, 45, 0
6, 229376, Note_on_c, 4, 43, 96
6, 230400, Note_off_c, 4, 43, 0
6, 230400, Note_on_c, 4, 42, 96
6, 231424, Note_off_c, 4, 42, 0
6, 231424, Note_on_c, 4, 43, 96
6, 231936, Note_off_c, 4, 43, 0
6, 231936, Note_on_c, 4, 31, 96
6, 232448, Note_off_c, 4, 31, 0
6, 232448, Note_on_c, 4, 33, 96
6, 232960, Note_off_c, 4, 33, 0
6, 232960, Note_on_c, 4, 35, 96
6, 233472, Note_off_c, 4, 35, 0
6, 233472, Note_on_c, 4, 24, 96
6, 233984, Note_off_c, 4, 24, 0
6, 233984, Note_on_c, 4, 36, 96
6, 234496, Note_off_c, 4, 36, 0
6, 234496, Note_on_c, 4, 38, 96
6, 235008, Note_off_c, 4, 38, 0
6, 235008, Note_on_c, 4, 40, 96
6, 235520, Note_off_c, 4, 40, 0
6, 235520, Note_on_c, 4, 41, 96
6, 236032, Note_off_c, 4, 41, 0
6, 236032, Note_on_c, 4, 40, 96
6, 236544, Note_off_c, 4, 40, 0
6, 236544, Note_on_c, 4, 41, 96
6, 237056, Note_off_c, 4, 41, 0
6, 237056, Note_on_c, 4, 38, 96
6, 237568, Note_off_c, 4, 38, 0
6, 237568, Note_on_c, 4, 40, 96
6, 238080, Note_off_c, 4, 40, 0
6, 238080, Note_on_c, 4, 35, 96
6, 238592, Note_off_c, 4, 35, 0
6, 238592, Note_on_c, 4, 36, 96
6, 239104, Note_off_c, 4, 36, 0
6, 239104, Note_on_c, 4, 41, 96
6, 239616, Note_off_c, 4, 41, 0
6, 239616, Note_on_c, 4, 38, 96
6, 240128, Note_off_c, 4, 38, 0
6, 240128, Note_on_c, 4, 35, 96
6, 240640, Note_off_c, 4, 35, 0
6, 240640, Note_on_c, 4, 40, 96
6, 241152, Note_off_c, 4, 40, 0
6, 241152, Note_on_c, 4, 28, 96
6, 241664, Note_off_c, 4, 28, 0
6, 241664, Note_on_c, 4, 33, 96
6, 242176, Note_off_c, 4, 33, 0
6, 242176, Note_on_c, 4, 45, 96
6, 243200, Note_off_c, 4, 45, 0
6, 243200, Note_on_c, 4, 43, 96
6, 243712, Note_off_c, 4, 43, 0
6, 243712, Note_on_c, 4, 42, 96
6, 244224, Note_off_c, 4, 42, 0
6, 244224, Note_on_c, 4, 30, 96
6, 245248, Note_off_c, 4, 30, 0
6, 245248, Note_on_c, 4, 28, 96
6, 245760, Note_off_c, 4, 28, 0
6, 245760, Note_on_c, 4, 27, 96
6, 246272, Note_off_c, 4, 27, 0
6, 246272, Note_on_c, 4, 28, 96
6, 247296, Note_off_c, 4, 28, 0
6, 247296, Note_on_c, 4, 27, 96
6, 247808, Note_off_c, 4, 27, 0
6, 247808, Note_on_c, 4, 28, 96
6, 248320, Note_off_c, 4, 28, 0
6, 248320, Note_on_c, 4, 40, 96
6, 249344, Note_off_c, 4, 40, 0
6, 249344, Note_on_c, 4, 38, 96
6, 249856, Note_off_c, 4, 38, 0
6, 249856, Note_on_c, 4, 37, 96
6, 250368, Note_off_c, 4, 37, 0
6, 250368, Note_on_c, 4, 35, 96
6, 250880, Note_off_c, 4, 35, 0
6, 250880, Note_on_c, 4, 37, 96
6, 251392, Note_off_c, 4, 37, 0
6, 251392, Note_on_c, 4, 30, 96
6, 251904, Note_off_c, 4, 30, 0
6, 251904, Note_on_c, 4, 35, 96
6, 252928, Note_off_c, 4, 35, 0
6, 253184, Note_on_c, 4, 40, 96
6, 253440, Note_off_c, 4, 40, 0
6, 253440, Note_on_c, 4, 35, 96
6, 253696, Note_off_c, 4, 35, 0
6, 253696, Note_on_c, 4, 38, 96
6, 253952, Note_off_c, 4, 38, 0
6, 253952, Note_on_c, 4, 37, 96
6, 254208, Note_off_c, 4, 37, 0
6, 254208, Note_on_c, 4, 33, 96
6, 254464, Note_off_c, 4, 33, 0
6, 254464, Note_on_c, 4, 38, 96
6, 255232, Note_off_c, 4, 38, 0
6, 255232, Note_on_c, 4, 35, 96
6, 255488, Note_off_c, 4, 35, 0
6, 255488, Note_on_c, 4, 40, 96
6, 256256, Note_off_c, 4, 40, 0
6, 256256, Note_on_c, 4, 39, 96
6, 256512, Note_off_c, 4, 39, 0
6, 256512, Note_on_c, 4, 40, 96
6, 256768, Note_off_c, 4, 40, 0
6, 256768, Note_on_c, 4, 37, 96
6, 257024, Note_off_c, 4, 37, 0
6, 257024, Note_on_c, 4, 38, 96
6, 257536, Note_off_c, 4, 38, 0
6, 257536, Note_on_c, 4, 35, 96
6, 258048, Note_off_c, 4, 35, 0
6, 258048, Note_on_c, 4, 40, 96
6, 258560, Note_off_c, 4, 40, 0
6, 258560, Note_on_c, 4, 35, 96
6, 259072, Note_off_c, 4, 35, 0
6, 259072, Note_on_c, 4, 37, 96
6, 259584, Note_off_c, 4, 37, 0
6, 259584, Note_on_c, 4, 33, 96
6, 260096, Note_off_c, 4, 33, 0
6, 260096, Note_on_c, 4, 38, 96
6, 260608, Note_off_c, 4, 38, 0
6, 260608, Note_on_c, 4, 33, 96
6, 261120, Note_off_c, 4, 33, 0
6, 261120, Note_on_c, 4, 35, 96
6, 261632, Note_off_c, 4, 35, 0
6, 261632, Note_on_c, 4, 31, 96
6, 262144, Note_off_c, 4, 31, 0
6, 262144, Note_on_c, 4, 36, 96
6, 262656, Note_off_c, 4, 36, 0
6, 262656, Note_on_c, 4, 31, 96
6, 263168, Note_off_c, 4, 31, 0
6, 263168, Note_on_c, 4, 33, 96
6, 263680, Note_off_c, 4, 33, 0
6, 263680, Note_on_c, 4, 35, 96
6, 264192, Note_off_c, 4, 35, 0
6, 264192, Note_on_c, 4, 28, 96
6, 264704, Note_off_c, 4, 28, 0
6, 264704, Note_on_c, 4, 35, 96
6, 265216, Note_off_c, 4, 35, 0
6, 265216, Note_on_c, 4, 40, 96
6, 265728, Note_off_c, 4, 40, 0
6, 265728, Note_on_c, 4, 38, 96
6, 266240, Note_off_c, 4, 38, 0
6, 266240, Note_on_c, 4, 36, 96
6, 266752, Note_off_c, 4, 36, 0
6, 266752, Note_on_c, 4, 33, 96
6, 267264, Note_off_c, 4, 33, 0
6, 267264, Note_on_c, 4, 38, 96
6, 267776, Note_off_c, 4, 38, 0
6, 267776, Note_on_c, 4, 26, 96
6, 268288, Note_off_c, 4, 26, 0
6, 268288, Note_on_c, 4, 31, 96
6, 268800, Note_off_c, 4, 31, 0
6, 268800, Note_on_c, 4, 38, 96
6, 269312, Note_off_c, 4, 38, 0
6, 269312, Note_on_c, 4, 43, 96
6, 270848, Note_off_c, 4, 43, 0
6, 270848, Note_on_c, 4, 42, 96
6, 271104, Note_off_c, 4, 42, 0
6, 271104, Note_on_c, 4, 40, 96
6, 271360, Note_off_c, 4, 40, 0
6, 271360, Note_on_c, 4, 42, 96
6, 271872, Note_off_c, 4, 42, 0
6, 271872, Note_on_c, 4, 37, 96
6, 272384, Note_off_c, 4, 37, 0
6, 272384, Note_on_c, 4, 38, 96
6, 272896, Note_off_c, 4, 38, 0
6, 272896, Note_on_c, 4, 45, 96
6, 273408, Note_off_c, 4, 45, 0
6, 273408, Note_on_c, 4, 50, 96
6, 273920, Note_off_c, 4, 50, 0
6, 273920, Note_on_c, 4, 48, 96
6, 274432, Note_off_c, 4, 48, 0
6, 274432, Note_on_c, 4, 47, 96
6, 274944, Note_off_c, 4, 47, 0
6, 274944, Note_on_c, 4, 43, 96
6, 275456, Note_off_c, 4, 43, 0
6, 275456, Note_on_c, 4, 48, 96
6, 276992, Note_off_c, 4, 48, 0
6, 276992, Note_on_c, 4, 47, 96
6, 277248, Note_off_c, 4, 47, 0
6, 277248, Note_on_c, 4, 45, 96
6, 277504, Note_off_c, 4, 45, 0
6, 277504, Note_on_c, 4, 47, 96
6, 278016, Note_off_c, 4, 47, 0
6, 278016, Note_on_c, 4, 43, 96
6, 278528, Note_off_c, 4, 43, 0
6, 278528, Note_on_c, 4, 40, 96
6, 279040, Note_off_c, 4, 40, 0
6, 279040, Note_on_c, 4, 36, 96
6, 279552, Note_off_c, 4, 36, 0
6, 279552, Note_on_c, 4, 43, 96
6, 281088, Note_off_c, 4, 43, 0
6, 281088, Note_on_c, 4, 41, 96
6, 281344, Note_off_c, 4, 41, 0
6, 281344, Note_on_c, 4, 40, 96
6, 281600, Note_off_c, 4, 40, 0
6, 281600, Note_on_c, 4, 41, 96
6, 282112, Note_off_c, 4, 41, 0
6, 282112, Note_on_c, 4, 38, 96
6, 282624, Note_off_c, 4, 38, 0
6, 282624, Note_on_c, 4, 40, 96
6, 283136, Note_off_c, 4, 40, 0
6, 283136, Note_on_c, 4, 35, 96
6, 283648, Note_off_c, 4, 35, 0
6, 283648, Note_on_c, 4, 36, 96
6, 284160, Note_off_c, 4, 36, 0
6, 284160, Note_on_c, 4, 31, 96
6, 284672, Note_off_c, 4, 31, 0
6, 284672, Note_on_c, 4, 28, 96
6, 285184, Note_off_c, 4, 28, 0
6, 285184, Note_on_c, 4, 31, 96
6, 285696, Note_off_c, 4, 31, 0
6, 285696, Note_on_c, 4, 28, 96
6, 286208, Note_off_c, 4, 28, 0
6, 286208, Note_on_c, 4, 24, 96
6, 286720, Note_off_c, 4, 24, 0
6, 286720, Note_on_c, 4, 31, 96
6, 291840, Note_off_c, 4, 31, 0
6, 291841, End_track
0, 0, End_of_file
